<svg width="500.00000000000006" height="332.409972299169" xmlns="http://www.w3.org/2000/svg" xmlns:svg="http://www.w3.org/2000/svg" xmlns:xlink="http://www.w3.org/1999/xlink">
 <!-- Created with SVG-edit - http://svg-edit.googlecode.com/ -->
 <g display="inline" class="layer">
  <title>Layer 1</title>
  <path t="9983,10502,10510,10510,10523,10542,10542,10556,10574,10574,10591,10592,10599,10599,10622,10670,10689,10974,10974,11022,11062,11103,11158,11158,11262,11262,11470,11470,11518,11622,11622,11734,11758" d="M126.5,110.82166C125.47916,109.82166 124.47894,109.66002 123.91067,109.21099C123.13383,108.59717 122.57288,107.73234 121.9,107.25765C121.16519,106.73928 120.31631,106.51207 119.61467,106.02032C118.86526,105.4951 118.1151,105.17504 117.38533,104.62166C116.66033,104.07189 116.20295,103.22424 115.3,102.90699C114.44707,102.60731 113.35572,102.79091 112.85717,102.11716C112.34343,101.42288 112.5,100.42165 112.5,99.51716C112.5,98.65499 112.5,97.82166 112.5,96.84299C112.5,96.06898 112.5,95.16899 112.5,94.30566C112.5,93.32166 112.5,92.33765 112.5,91.64699L112.5,90.57882L112.49983,89.72182" id="svg_2" stroke-width="20" stroke="#fff" fill="none"/>
  <path t="14415,15054,15102,15102,15126,15127,15182,15478,15526,15526,15582,15614,15623,15623,15639,15694,15726,15782,15838,15878,15878,15910,15974,16022,16022,16126,16126,16190,16206,16206,16270,16310,16358,16358,16414,16414,16430,16494,16566,16622,16662,16703,16846,16846,16998,17118,17118,17190,17230" d="M124.5,110.82166C122.78533,109.82299 122.07901,109.35541 121.47916,108.82166C120.694,108.123 120.07004,107.69363 119.416,107.10565C118.76572,106.52106 118.68574,105.77915 118.41467,105.02165C118.0922,104.12055 117.09906,103.74677 116.66666,102.82166C116.32076,102.0816 116.48796,101.04834 115.62133,100.82166C114.80705,100.60867 114.487,99.97056 113.97916,99.32166C113.37864,98.55431 112.64878,98.05334 112.5045,97.12166C112.36126,96.19667 112.60699,95.32374 112.44283,94.47432C112.26308,93.54427 111.67825,92.95932 111.536,91.99632C111.38862,90.9985 111.66497,90.16379 111.47916,89.30082C111.30003,88.46886 110.60299,87.66366 110.52084,86.82166C110.42579,85.84756 110.5,85.12615 110.5,84.22166C110.5,83.32166 110.5,82.42165 110.5,81.52165C110.5,80.62166 110.5,79.72166 110.5,78.82166C110.5,78.02165 110.5,77.06449 110.5,76.16899L110.5,75.30566L110.52084,74.34249L110.85267,73.52165" id="svg_3" stroke-width="20" stroke="#fff" fill="none"/>
  <path t="27231,27822,27839,27839,27839,27846,27869,27870,27901,27966,28238,28270,28302,28310,28350,28374,28374,28406,28427,28430,28454,28574,28606,28694,28718,28830,28902,28958,29030,29206,29430,29430,29470,29510,29582,29606,29670,29774,29830,29894,29982,30078,30078,30118,30238,30350,30350,30414,30422,30526,30526,30574,30574,30710,30750,30750,30950,30966,31030,31062,31078,31110,31110,31118,31142,31206,31214,31270,31310,31310,31318,31327,31438,31438,31494,31526,31534,31590,31590,31670,31702,31726,31750,31838,31910,32038,32054,32064,32198,32198,32262,32342,32414,32432,32463,32463,32484,32484,32484,32517,32528,32542,32574,32734,32874,32874,32893,32910,32910,32922,32926,32952,32989,32990,33070,33070,33118,33118,33167,33176,33198,33198,33254,33310,33310,33342,33367,33398,33398,33486,33486,33518,33518,33550,33622,33678,33678,33774,33830,33886,33886,33910,33966,34046,34094,34094,34174,34230,34326,34398,34438,34502,34638,34686,34742,34814,34838,34886,34942,34982,34982,35078,35222,35263,35326,35382,35486,35598,36022,36022,36110,36238" d="M122.5,107.82166C120,107.27999 119.32482,106.66328 118.85183,106.16899C118.19786,105.48557 117.79473,104.64859 117.33334,103.82166C116.90322,103.05077 116.25806,102.43678 115.40017,101.94299C114.66285,101.51859 114.59026,100.7332 114.5,99.82166C114.41626,98.97595 113.68658,98.49011 113.27866,97.72166C112.93365,97.0717 112.84804,96.14115 112.47916,95.34249C112.12303,94.57141 111.50067,94.02032 111.5,93.12166C111.49936,92.25765 111.81792,91.3273 111.48933,90.43232C111.2252,89.71289 110.5,89.38566 110.5,88.52165C110.5,87.62166 110.5,86.72166 110.5,85.82166C110.5,85.02165 110.5,84.12166 110.5,83.22166C110.5,82.32166 110.5,81.42165 110.5,80.52165C110.5,79.62299 110.93036,79.17379 111.41467,78.53632C111.97039,77.80485 111.49549,76.72147 111.5,75.93633C111.50533,75.00694 111.74585,74.10778 112.5,73.65499C113.12207,73.2815 114.06783,72.94563 114.8,72.46449C115.59425,71.94256 115.95376,71.27194 116.70133,70.62299C117.34835,70.06132 118.30759,70.24442 119.16666,69.65499C119.7924,69.22566 120.04277,68.08049 120.88934,67.85766C121.75523,67.62974 122.89714,68.05762 123.44733,67.46449C124.06405,66.79964 124.27267,65.98909 125.2,65.82616C126.08732,65.67025 126.81033,65.20354 127.7,64.90699C128.55765,64.62111 129.5004,64.84702 130.3,64.82166C131.20135,64.79306 131.90881,64.39484 132.59984,63.72182C133.22272,63.11516 134.02083,62.82385 134.89999,62.82166C135.80002,62.8194 136.63835,62.43559 137.3,62.10566C138.14336,61.68512 139.10001,61.82166 140,61.82166C140.89999,61.82166 141.8,61.82166 142.7,61.82166C143.59984,61.82166 144.48318,61.81995 145.02083,61.30082C145.71112,60.63432 146.26833,59.97052 147.2,59.82616C148.0894,59.68834 149.00644,59.91956 149.91066,59.81099C150.83888,59.69954 151.49681,59.2403 152.5,58.98832C153.27597,58.79342 154.10991,59.25615 155.05333,58.82166C155.67654,58.53463 155.31544,57.17505 156.02083,56.84249C156.82591,56.46292 157.82133,56.82166 158.67467,56.82166C159.61467,56.82166 160.5,56.82166 161.3,56.82166C162.2,56.82166 163.00845,57.03384 163.66701,57.46899C164.45494,57.98963 165.30482,57.67598 166.35699,58.04316C167.13112,58.3133 167.79625,59.12544 168.3,59.62165C168.99486,60.30609 169.87601,60.60614 170.59984,61.04316C171.32332,61.47996 171.45752,62.53552 172.20984,63.11716C172.78731,63.56362 173.92596,63.71051 174.48534,64.25765C175.17279,64.93008 175.71019,65.38423 176.47867,65.92165C177.14854,66.39011 177.96208,67.06516 178.67467,67.38566C179.58894,67.79686 180.19617,68.2613 180.94267,68.70033C181.69223,69.14114 182.37013,69.40557 182.85716,70.12166C183.39165,70.90751 184.15735,71.29047 184.88933,71.79633C185.56332,72.26211 185.83189,73.14574 186.5,73.82166C187.07889,74.40731 188.14864,74.60972 188.47917,75.34249C188.84077,76.14412 188.44637,77.1231 188.5,78.11716C188.54272,78.9091 189.30988,79.48002 189.48933,80.42165C189.65784,81.3058 189.5,82.22166 189.5,83.12166C189.5,84.02165 189.5,84.92165 189.5,85.82166C189.5,86.62166 189.51041,87.52171 189.5,88.42165C189.48958,89.32184 188.92464,89.96931 188.536,90.79633C188.18065,91.55251 187.97917,92.32166 187.3,93.02032L186.7,93.53632L185.8,93.81715L184.89999,93.82166" id="svg_5" stroke-width="3" stroke="#000" fill="none"/>
  <path t="40064,40677,40699,40715,40733,40765,40773,40773,40781,40790,40805,40845,40845,40894,40934,40934,41030,41118,41222,41446,41462,41494,41505,41510,41527,41542,41574,41606,41606,41630,41678,41688,41688,41734,41846,41902,41902,41942,41966,41966,41982,41982,42005,42005,42013,42021,42053,42061,42077,42077,42087,42109,42166,42166,42214,42214,42269,42309,42358,42406,42425,42461,42477,42477,42493,42557,42597,42621,42709,42709,42829,42901,42902,42917,43005,43038,43038,43110,43150,43150,43182,43182,43182,43222,43222,43232,43248,43266,43283,43283,43302,43318,43358,43389,43437,43437,43493,43515,43515,43532,43661,43717,43717,43725,43725,43741,43757,43769,43782,43799,43821,43821,43837,43837,43850,43877,43901,43909,43909,43925,43941,43950,43981,43982,44000,44000,44000,44005,44046,44077,44077,44085,44085,44101,44109,44125,44125,44141,44151,44168,44189,44202,44205,44229,44237,44269,44269,44288,44288,44288,44309,44309,44320,44336,44336,44341,44341,44353,44357,44370,44387,44387,44404,44405,44413,44414,44429,44445,44445,44461,44471,44471,44509,44541,44541,44597,44637,44661,44661,44686,44708,44725,44813,44861,44917,45013,45045,45046,45086,45109,45126,45144,45161,45165,45181,45205,45205,45237,45258,45261,45365,45397,45421,45445,45446,45461,45462,45480,45495,45495,45501,45502,45517,45541,45565,45565,45575,45575,45597,45685,45695,46141" d="M122.5,81.82166C124.3,81.82166 125.21976,81.66456 126,81.84249C126.96202,82.06187 127.59839,82.71273 128.5,82.82166C129.29874,82.91815 130.03827,83.56429 130.89999,83.78565C131.7728,84.00986 132.57864,84.28028 133,84.82166C133.66719,85.67889 134.46033,86.05196 135.2,86.46899C135.94502,86.88903 136.14519,87.51713 136.52083,88.30082C136.85791,89.00407 138.03479,88.87465 138.8,88.46899C139.6458,88.02061 140.31511,87.45889 140.85266,86.87432C141.38808,86.29208 141.73689,85.32623 142.60001,84.94315C143.24918,84.65503 144.26237,84.85841 145,84.30082C145.7773,83.71323 146.26653,82.97638 147.10001,82.83232C148.00743,82.67548 148.98399,82.82166 149.67467,82.82166C150.74733,82.82166 151.66667,82.82166 152.5,82.82166C153.47867,82.82166 154.25267,82.82166 155.15266,82.82166C156.01601,82.82166 156.97917,82.82166 157.8,82.82166C158.7,82.82166 159.60001,82.82166 160.5,82.82166C161.3,82.82166 162.21159,82.70639 163.136,82.85766C164.00829,83.0004 164.70329,83.38887 165.61467,84.02032C166.2157,84.43674 167.11821,84.81248 167.89999,85.24699C168.71931,85.70235 169.35178,86.15798 169.92534,86.79633C170.46539,87.39737 171.09985,87.97889 171.64934,88.42165C172.44058,89.05923 172.93546,89.80301 173.8,89.82166C174.69978,89.84106 175.62602,90.0125 176.2,90.52615C176.93532,91.18419 177.42168,91.91879 178.10001,92.38566C178.9238,92.95264 179.73639,93.28359 180.5,93.65499C181.25391,94.02167 181.99109,94.38599 182.8215,94.92165C183.49852,95.35836 184.5,95.82166 185.10001,96.12166C185.89999,96.52165 186.70039,96.92001 187.45833,97.30082C188.38657,97.76719 188.65517,98.58918 189.52083,98.82166C190.32187,99.03677 191.18129,99.24191 191.97917,99.82166C192.62054,100.28767 193.20448,100.8194 194.02083,100.82166C194.98399,100.82431 195.84734,100.82166 196.74733,100.82166C197.66667,100.82166 198.78203,100.42103 199.38567,101.17432C199.93369,101.8582 199.78941,102.89182 200.52083,103.30082C201.29443,103.73341 202.19557,103.80869 203.10001,103.82166C203.97932,103.83426 204.54556,104.48066 205.2045,104.87432C206.01236,105.35696 206.80188,105.9586 207.5,106.30082C208.31303,106.69937 209.29813,106.44611 210.064,106.85766C210.79343,107.24962 211.00096,108.34149 211.60001,108.92149C212.18138,109.48438 213.10001,109.81105 214,109.82166C214.91066,109.83238 215.8293,110.02554 216.52083,110.34249C217.51183,110.79671 218.07492,111.16541 218.84283,111.46449C219.83086,111.84929 220.72278,111.77429 221.60017,111.82182C222.38878,111.86455 223.34843,112.21698 224.01601,112.62299C224.89766,113.15919 225.59389,113.76077 226.5,113.82166C227.2982,113.87529 228.20006,113.81124 229.10001,113.82166C230.00018,113.83208 230.70467,114.36118 231.59984,114.70016C232.40051,115.00335 233.2045,114.82019 234.136,114.82166C234.98534,114.82299 235.94473,114.85176 236.7,115.26432C237.55566,115.73173 238.05069,116.3741 238.89867,116.65099C239.80927,116.94832 240.76886,116.73253 241.66667,116.98832C242.52985,117.23425 243.32286,117.71932 244.08934,117.81099C244.99409,117.9192 245.73608,118.28761 246.60001,118.70033C247.45265,119.10765 248.03893,119.57732 249,119.80082C249.88753,120.00721 250.85667,119.97498 251.47917,120.34249C252.31441,120.83559 252.82271,121.71991 253.52083,121.80082C254.47235,121.9111 255.52661,121.67925 256.20001,121.87882C257.09424,122.14383 257.81628,122.75059 258.67465,122.81099C259.6124,122.87698 260.60001,122.82166 261.5,122.82166C262.29999,122.82166 263.20001,122.82166 264.10001,122.82166C264.97916,122.82166 265.85718,122.82166 266.79999,122.82166C267.70001,122.82166 268.60001,122.82166 269.5,122.82166C270.29999,122.82166 271.20001,122.82166 272.10001,122.82166C273,122.82166 273.89999,122.82166 274.79999,122.82166C275.69867,122.82166 276.55267,122.82166 277.5,122.82166C278.29999,122.82166 279.20001,122.82166 280.10001,122.82166C281,122.82166 281.89999,122.82166 282.79999,122.82166C283.70001,122.82166 284.61502,122.73266 285.38535,122.90699C286.17371,123.08541 286.92007,123.57431 287.86166,123.82616C288.8121,124.08038 289.46609,124.42495 290.47849,124.70016C291.17953,124.89073 292.08902,124.92125 292.60983,125.52615C293.16141,126.16682 293.88834,126.55588 294.89868,126.73632C295.83154,126.90292 296.74283,126.82166 297.69867,126.82299L298.41467,127.10565L298.7215,127.82166" id="svg_6" stroke-width="3" stroke="#000" fill="none"/>
  <path t="52454,52749,52757,52782,52803,52805,52853,52853,52877,52877,52893,52906,52911,52941,52952,52957,52957,53013,53021,53054,53061,53085,53093,53093,53109,53134,53141,53157,53157,53173,53173,53197,53213,53229,53245,53285,53307,53324,53357,53357,53375,53382,53405,53425,53477,53493,53493,53508,53509,53534,53549,53573,53581,53593,53608,53629,53654,53661,53677,53693,53693,53702,53712,53733,53733,53773,53869,53869" d="M248.5,117.82166C250.3,117.82166 251.2,117.82166 252.10001,117.82166C252.89999,117.82166 253.88933,117.82166 254.83333,117.82166C255.52083,117.82166 256.47849,117.82166 257.29868,117.82166C258.29999,117.82166 259.12201,117.6436 260,117.84249C260.96234,118.06049 261.59839,118.71273 262.5,118.82166C263.29871,118.91815 264.03641,119.5686 264.88934,119.78565C265.75836,120.0068 266.70001,119.82166 267.60001,119.82166C268.5,119.82166 269.29999,119.82166 270.20001,119.82166C271.10001,119.82166 272.03775,119.78419 272.82132,120.04299C273.6983,120.33264 274.47195,120.75954 275.29868,120.82032C276.33057,120.89618 277.11066,120.82166 278,120.82166C278.89999,120.82166 279.79999,120.82166 280.70001,120.82166C281.60001,120.82166 282.5,120.82166 283.29999,120.82166C284.20001,120.82166 285.10001,120.82166 286,120.82166C286.97916,120.82166 287.68051,121.27958 288.5,121.65499C289.24268,121.99521 290.2265,121.63792 291.10001,121.85766C291.96283,122.07471 292.59387,122.76077 293.5,122.82166C294.41391,122.88306 295.2045,122.82166 296.10001,122.82166C297,122.82166 297.93396,122.58177 298.7955,122.82616C299.57288,123.04667 300.20877,123.78307 301.01733,123.82032C301.97839,123.8646 302.73639,124.28359 303.5,124.65499C304.25391,125.02166 305.02084,125.32166 305.98401,125.73632L306.67465,125.81099" id="svg_7" stroke-width="20" stroke="#fff" fill="none"/>
  <path t="58894,59181,59245,59245,59377,59449,59449,59597,59645,59645,59685,59741,59765,59806,59861,59861,59901,59933,59933,59949,59962,59962,59990,59990,59997,60013,60037,60085" d="M243.5,116.82166C245.32533,116.82166 246.36504,117.00311 247.1955,116.76449C247.96428,116.54359 248.51534,115.6102 249.2,115.17883C249.95052,114.70596 250.98399,114.82382 251.84734,114.82166C252.74284,114.8194 253.47871,114.41516 254.33333,113.98832C254.98433,113.66317 255.98399,113.82166 256.84732,113.82166C257.74734,113.82166 258.66666,113.82159 259.5,113.82166C260.47833,113.82174 261.32346,113.99184 261.58401,114.70832C261.92322,115.64108 262.30133,116.25232 263.10001,116.80032L263.97916,116.84249L264.55267,117.46899L265.33334,117.82166" id="svg_8" stroke-width="3" stroke="#000" fill="none"/>
  <path t="62422,62597,62597,62613,62645,62645,62685,62733,62733,62774,62774,62796,62821,62822,62833,62848,62848,62853,62877,62885,62894,62917,62917,62928,62928,62996,63021,63037" d="M243.5,115.82166C245.32533,115.39632 245.99156,114.98589 247,114.84249C247.97441,114.70393 248.67467,114.82166 249.74733,114.82166C250.66667,114.82166 251.5,114.82166 252.4785,114.82166C253.1955,114.82166 253.89458,114.51814 254.66667,113.98832C255.27579,113.57034 256.32535,113.82166 257.33334,113.82166C258.08932,113.82166 259,113.82166 259.89999,113.82166C260.79999,113.82166 261.70132,113.82166 262.66666,113.82166C263.32535,113.82166 264.33334,113.82166 265.21335,113.82166L266.11066,113.82166L267,113.82166L267.88934,113.81099" id="svg_9" stroke-width="20" stroke="#fff" fill="none"/>
  <path t="67198,67693,67741,67781,67797,67885,67909,67965,67997,67997,68021,68093,68101,68133,68197,68211,68228,68269,68293,68313,68329,68381,68381,68405,68430,68453,68477,68533,68605" d="M238.5,115.82166C240.3,115.82166 241.2,115.82166 242.10001,115.82166C242.97917,115.82166 243.85716,115.82166 244.7,115.82166C245.60001,115.82166 246.5,115.82166 247.3,115.82166C248.2,115.82166 249.10001,115.82166 250,115.82166C250.89999,115.82166 251.8,115.82166 252.7,115.82166C253.69867,115.82166 254.55267,115.82166 255.30133,115.82166C256.20001,115.82166 257.13599,115.82166 257.98401,115.82166C258.84732,115.82166 259.90021,115.56893 260.7955,115.82616C261.56342,116.04679 262.02084,116.80082 262.89999,116.82166L263.79999,116.82166" id="svg_10" stroke-width="20" stroke="#fff" fill="none"/>
  <path t="71518,71924,71925,71933,71957,71973,71983,72013,72037,72062,72093,72093,72133,72157,72213,72253,72269,72317,72341,72381,72437,72461,72461,72493,72541,72581,72581,72621,72653,72653,72677,72687,72717,72717,72757,72789,72821,72845,72845,72861,72877,72917,72941,72965,72966,72981,72991,73005,73024,73040,73045,73057,73074,73091,73125,73125,73141,73157,73197,73213,73229,73229,73261,73277,73293,73325,73333,73349,73397,73413,73424,73429,73445,73477,73517,73517,73533,73549,73565,73581,73629,73661,73677,73693,73693,73711,73717,73728,73744,73764,73780,73796,73828,73842,73876,73876,73900,73900,73908,73908,73941,73972,73996,74021,74021,74053,74053,74069,74093,74093,74101,74132,74145,74161,74196,74220,74221,74229,74268,74292,74332,74347,74365,74365,74389,74413,74421,74445,74465,74469,74493,74493,74533,74605,74629,74650,74668,74669,74693,74701,74725,74741,74772,74796,74817,74845,74853,74867,74893,74925,74925,74940,74956,74957,74972,74988,74999,75020,75020,75045,75076,75109,75118,75133,75140,75156,75172,75172,75183,75213,75260,75276,75276,75308,75368,75461,75509,75565,75636,75660,75661,75701,75732,75756,75772,75805,75844,75857,75873,75873,75877,75877,75877,75891,75891,75908,75933,75933,75958,75980,75981,76005,76028,76040,76040,76077,76092,76108,76126,76149,76160,76188,76197,76197,76212,76225,76229,76243,76245,76245,76260,76277,76277,76293,76310,76341,76341,76389,76409,76409,76428,76429,76453,76453,76477,76494,76516,76532,76545,76564,76565,76578,76595,76596,76597,76597,76621,76629,76645,76645,76661,76684,76685,76696,76701,76701,76724,76724,76732,76742,76758,76780,76796,76821,76821,76828,76844,76852,76860,76877,76877,76884,76884,76900,76910,76932,76948,76948,76980,76980,76996,77020,77036,77052,77092,77092,77113,77130,77196,77236,77268,77316,77332,77364,77365,77432,77447,77452,77493,77532,77564,77596,77645,77645,77708,77764,78836,78892,78917,78948,79004,79028,79076,79172,79204,79260,79332,79358,79388,79452,79508,79564,79565,79588,79589,79596,79621,79652,79668,79669,79684,79724,79724,79732,79732,79748,79773,79805,79813,79813,79821,79836,79868,79882,79882,79909,79932,79957" d="M232.5,113.82166C233.5,112.82166 234.3,112.82166 235.2,112.82166C236.10001,112.82166 237,112.82166 237.89999,112.82166C238.8,112.82166 239.7,112.82166 240.60001,112.82166C241.5,112.82166 242.42799,112.74931 243.064,113.39632C243.64815,113.9906 243.93546,114.80301 244.8,114.82166C245.69846,114.84103 246.2476,115.44936 247.02083,115.80082C247.82143,116.16471 248.85007,115.68999 249.60001,116.04299C250.37553,116.40804 251.10989,116.70423 252.02083,116.84249C253.00673,116.99213 253.59248,117.5156 254.54817,117.81715C255.47044,118.10816 256.03772,118.56644 256.89999,118.78565C257.77313,119.00762 258.71548,119.08951 259.29999,119.62299C260.01968,120.27987 260.69699,120.77894 261.60001,120.82166C262.49899,120.86418 263.30042,120.7944 264.20001,120.82166C265.14413,120.85025 265.49167,121.76064 266.14667,121.82166C267.14835,121.91496 267.84732,121.82166 268.86401,121.82166C269.79999,121.82166 270.79788,121.66232 271.44733,122.17432C272.06195,122.65887 272.89999,122.82166 273.79999,122.82166C274.70001,122.82166 275.60001,122.82166 276.5,122.82166C277.29999,122.82166 278.2265,122.63792 279.10001,122.85766C279.96283,123.07471 280.59387,123.76077 281.5,123.82166C282.29819,123.87529 283.20007,123.81124 284.10001,123.82166C285.00018,123.83208 285.70328,124.36487 286.59982,124.70016C287.45062,125.01833 288.30133,124.82166 289.20001,124.82166C290.10001,124.82166 291.03473,124.76876 291.79999,125.17432C292.6459,125.62263 293.5,125.82166 294.29999,125.82166C295.20001,125.82166 296.10001,125.82166 297,125.82166C297.88934,125.82166 298.78534,125.82166 299.70001,125.82166C300.60001,125.82166 301.53644,125.65351 302.29999,125.90699C303.07217,126.16333 303.89941,126.80312 304.70001,126.82166C305.69839,126.84478 306.17661,127.3905 306.936,127.78565C307.70309,128.1848 308.69867,127.82166 309.58401,127.82166C310.5,127.82166 311.29111,127.88568 311.98401,128.38965C312.71408,128.92065 313.45285,129.69633 314.29868,129.81898C315.19067,129.94833 316.10941,129.83865 316.91068,130.24699C317.67606,130.63705 318.49985,130.81123 319.47849,130.82166C320.29861,130.83038 321.18051,130.81473 321.79999,131.52699C322.26743,132.06442 322.99927,132.80081 323.89999,132.82166C324.79974,132.84247 325.70001,132.82166 326.60001,132.82166C327.5,132.82166 328.33441,132.62569 329.20001,132.87881C330.07764,133.13545 330.7941,133.79306 331.66666,133.82166C332.59952,133.85222 333.5,133.82166 334.29999,133.82166C335.20001,133.82166 336.10001,133.82166 337,133.82166C337.89999,133.82166 338.79999,133.82156 339.70001,133.82166C340.60001,133.82175 341.28162,133.93692 342.064,134.39632C342.84012,134.85204 343.80472,134.73076 344.70001,134.82298C345.5126,134.90669 346.15262,135.62184 347,135.80083C347.8808,135.98688 348.88934,135.83232 349.5,136.32166C350.11066,136.81099 351.01303,136.67934 351.89999,136.83232C352.73187,136.9758 353.41351,137.76364 354.2045,137.82166C355.13419,137.88983 355.97696,138.12302 356.67465,138.39632C357.60583,138.76106 358.45377,139.06378 359.20001,139.46899C359.96112,139.88228 360.91049,139.68895 361.79999,139.82616C362.73138,139.96983 363.26813,140.6767 364.21466,140.82033C365.10052,140.95476 366,140.82166 366.89999,140.82166C367.79999,140.82166 368.70001,140.82166 369.60001,140.82166C370.5,140.82166 371.44977,140.73776 372.064,141.43233C372.65341,142.09886 372.65085,143.21623 373.5,143.65498C374.13837,143.98483 375.14282,143.82166 376.02084,143.82166C376.89999,143.82166 377.79999,143.82166 378.70001,143.82166C379.60001,143.82166 380.5,143.82166 381.29999,143.82166C382.20001,143.82166 383.10001,143.82166 384,143.82166C384.89999,143.82166 385.88934,143.82166 386.78534,143.82166C387.60001,143.82166 388.5,143.82166 389.31433,143.82166C390.26935,143.82166 391.02084,143.82166 391.81732,143.82166C393.03833,143.82166 393.83835,143.82166 394.74734,143.82166C395.66666,143.82166 396.56445,143.65016 397.332,144.10565C398.06503,144.54065 398.6853,144.81631 399.74283,144.82166C400.60001,144.82597 401.5,144.82166 402.29999,144.82166C403.20001,144.82166 404.10001,144.82166 405,144.82166C405.89999,144.82166 406.79999,144.82166 407.69867,144.82166C408.66666,144.82166 409.5,144.82166 410.29999,144.82166C411.20001,144.82166 412.10001,144.82166 413,144.82166C413.91068,144.82166 414.82132,144.82166 415.67465,144.82166C416.61465,144.82166 417.5,144.82166 418.29999,144.82166C419.20001,144.82166 420.13599,144.82166 420.98401,144.82166C421.84732,144.82166 422.87466,144.82166 423.82132,144.82166C424.5,144.82166 425.47867,144.82166 426.384,144.82166C427.32535,144.82166 428.01599,144.82166 429.08932,144.82166C429.89999,144.82166 430.79999,144.82166 431.70001,144.82166C432.60001,144.82166 433.5,144.82166 434.29999,144.82166C435.25717,144.82166 436.15717,144.82166 436.90451,144.82166C437.89868,144.82166 438.664,144.82166 439.74283,144.82166C440.60001,144.82166 441.53577,144.6555 442.29999,144.90698C443.22012,145.20978 443.98126,145.76871 444.67465,145.81099C445.74545,145.8763 446.668,145.98491 447.32535,146.24699C448.33545,146.64973 449.08926,146.81631 450,146.82166C450.89996,146.82692 451.7955,146.82156 452.7215,146.82166C453.60001,146.82175 454.46667,147.04225 455.10001,147.39632C455.96127,147.87782 456.89999,147.82166 457.79999,147.82166C458.70001,147.82166 459.60016,147.82166 460.38535,147.82166C461.32535,147.82166 462.01599,147.82166 463.08932,147.82166C464,147.82166 464.91077,147.80788 465.82132,147.82182C466.50024,147.83221 467.44406,148.10713 468.1955,148.46899C469.06674,148.88857 470,148.81941 470.89999,148.82166C471.8045,148.82391 472.67764,148.96272 473.47916,149.32166C474.2688,149.67528 475.11066,149.82166 476,149.82166C476.89999,149.82166 477.79999,149.82166 478.70001,149.82166C479.60001,149.82166 480.5,149.82166 481.29999,149.82166C482.20001,149.82166 483.10001,149.82166 484,149.82166C484.88934,149.82166 485.78534,149.82156 486.70001,149.82166C487.60001,149.82175 488.46667,150.04225 489.10001,150.39632C489.96127,150.87782 490.89999,150.82166 491.79099,150.82166C491.79099,150.82166 490.89999,150.82166 490,150.82166C489.10001,150.82166 488.20001,150.82166 487.29999,150.82166C486.40018,150.82166 485.47467,150.82166 484.69867,150.82166C483.79999,150.82166 482.89999,150.82166 482,150.82166C481.10001,150.82166 480.1955,150.82166 479.17868,150.82166C478.5,150.82166 477.48254,150.64302 476.70132,150.90698C475.8118,151.20753 475.14166,151.83601 474.47916,152.32166C473.8186,152.80588 472.98267,152.82033 472,152.82166C471.01599,152.82298 470.2767,152.71758 469.38535,153.10565C468.64359,153.4286 467.79999,153.8194 466.89999,153.82166C465.97916,153.82396 464.97168,153.60535 464.20984,153.87881C463.37183,154.17963 463.11212,155.13287 462.33334,155.65498C461.62744,156.12822 460.70001,155.82166 459.79999,155.82166L458.936,155.85765L458.41599,156.53766" id="svg_11" stroke-width="3" stroke="#000" fill="none"/>
  <path t="100741,100996,101004,101023,101052,101059,101075,101100,101100,101118,101134,101152,101156,101180,101203,101219,101227,101227,101244,101356,101413,101452,101508,101548,101564,101575,101592,101612,101684,101684,101692,101707,101726,101748,101759,101780,101780,101796,101796,101812,101828,101853,101916,101916,101980,102220,102220" d="M451.5,152.82166C453.11066,152.82166 454,152.82166 454.89999,152.82166C455.79999,152.82166 456.70001,152.82166 457.60001,152.82166C458.5,152.82166 459.29999,152.82166 460.20001,152.82166C461.10001,152.82166 462,152.82166 462.88934,152.82166C463.85718,152.82166 464.70001,152.82166 465.60001,152.82166C466.5,152.82166 467.33847,152.6122 468.20001,152.87881C469.06616,153.14685 469.2056,154.39551 469.936,154.78566C470.69873,155.19308 471.70001,154.82166 472.60001,154.82166C473.5,154.82166 473.94797,155.32962 474.58533,155.82033C475.31009,156.37831 476.29999,155.82166 477.20001,155.82166C478.10001,155.82166 479.03473,155.76875 479.79999,156.17432C480.6459,156.62262 481.51254,156.73016 482.25717,156.87881C483.18192,157.06343 483.91061,157.31622 484.85333,157.79633C485.53732,158.14467 486.0423,158.78148 486.98401,158.82298C487.8483,158.86107 488.74283,159.17432 489.5,159.65498L490.29999,159.82033" id="svg_15" stroke-width="20" stroke="#fff" fill="none"/>
  <path t="105887,106476,106476,106489,106492,106516,106535,106581,106581,106604,106676,106748,106772,106884,106916,106940,106956,107012,107036,107124,107156,107156,107188,107196,107276,107289,107289,107332,107348,107380,107444,107456,107508,107540,107558,107580,107596,107620,107644,107660,107676,107708,107708,107716,107726,107772,107780,107804,107827,107844,107916,107916,108604,108660,108660,108700,108700,108716,108788,108852,108915,108956,108980,108988,109020,109020,109068,109100,109140,109156,109167,109185,109202,109219,109219,109236,109236,109252,109276,109276,109316,109348,109348,109380,109380,109428,109484,109540,109556,109572,109596,109620,109644,109692,109692,109724,109724,109812,109868,109932,109932,109988,109996,109996,110068,110124,110212,110212,110253,110253,110292,110340,110380,110420,110421,110452,110452,110500,110500,110556,110605,110605,110636,110668,110678,110708,110732,110748,110796,110796,110828,110845,110884,110908,110932,111004,111036,111068,111068,111084,111096,111125,111148,111164,111196,111214,111230,111230,111268,111281,111300,111315,111317,111340,111356,111371,111372,111395,111412,111427,111460,111556,111612,111668,111700,111717,111748,111748,111804,111884,112308,112396,112396,112404,112404,112419,112420,112443,112459,112460,112484,112484,112484,112540,112588,112588,112636,112676,112689,112732,112788,112788,112811,112836,112836,112860,112907,112908,112956,112980,112995,113012,113028,113043,113044,113068,113092,113092,113107,113116,113132,113143,113148,113148,113171,113203,113236,113236,113244,113259,113261,113276,113293,113315,113331,113331,113340,113357,113357,113379,113391,113391,113395,113411,113427,113443,113443,113467,113475,113475,113483,113499,113518,113531,113531,113542,113547,113563,113575,113575,113592,113611,113625,113627,113635,113676,113676,113699,113732,113732,113756,113756,113756,113764,113779,113795,113804,113820,113820,113836,113836,113851,113851,113875,113915,113931,113963,113963,113981,113997,113997,114035,114059,114060,114067,114115,114164,114220,114220,114244,114266,114316,114316,114340,114340,114350,114523,114588,114588,114636,114708,114708,115147,115212,115212,115252,115292,115292,115340,115387,115387,115420,115451,115452,115475,115489,115489,115532,115555,115604,115622,115668,115691,115724,116347,116475,116494,116494,116500,116512,116512,116516,116526,116543,116603,116603,116643,116644,116675,116676,116724,116819,116820,116835,116891,116913,116947,116948,117020,117163,117182,117182,117299,117331,117351,117395,117416,117420,117420,117444,117476,117502,117523,117539,117564,117582,117619,117619,117667,117691,117715,117771,117819,117843,117867,117896,117896,117971,117982,118028,118051,118075,118075,118091,118123,118171,118203,118212,118227,118228,118275,118291,118305,118339,118364,118372,118372,118444,118491,118527,118555,118556,118564,118603,118635,118636,118659,118691,118723,118763,118764,118811,118827,118842,118875,118907,118931,118963,118995,119011,119011,119036,119075,119076,119084,119107,119128,119156,119156,119179,119180,119211,119236,119236,119267,119268,119279,119315,119316,119329,119345,119348,119363,119388,119389,119413,119413,119435,119436,119451,119475,119499,119515,119516,119540,119572,119604,119643,119644,119667,119668,119680,119681,119699,119716,119740,119747,119779,119811,119832,119851,119867,119892,119917,119917,119948,119966,119972,119983,119988,120011,120030,120060,120080,120096,120123,120139,120163,120163,120187,120187,120211,120212,120251,120251,120291,120331,120339,120340,120363,120412,120435,120451,120451,120507,120539,120540,120571,120587,120588,120603,120621,120622,120638,120655,120659,120668,120699,120717,120733,120755,120755,120771,120811,120819,120843,120859,120883,120883,120918,120919,120932,120948,120968,120987,121003,121003,121019,121035,121059,121069,121116,121116,121139,121180,121180,121211,121224,121225,121259,121283,121308,121323,121342,121342,121363,121379,121395,121405,121435,121443,121467,121467,121475,121507,121516,121532,121555,121564,121565,121574,121603,121625,121643,121644,121660,121676,121693,121755,121756,121787,121788,121836,121860,121878,121895,121900,121923,121931,121931,121941,121957,121958,121987,121995,122009,122025,122027,122043,122043,122067,122083,122099,122123,122131,122179,122194,122196,122197,122235,122245,122260,122278,122295,122299,122315,122331,122356,122363,122378,122396,122404,122404,122419,122419,122435,122446,122475,122499,122540,122541,122564,122595,122596,122616,122632,122651,122667,122691,122731,122811,122812,122812,122867,123051,123099,123123,123139,123171,123187,123188,123228,123260,123276,123299,123339,123398,123420,123475,123476,123499,123563,123596,123622,123623,123651,123699,123739,123763,123876,124187,124188" d="M447.5,144.82166C448.5,145.82166 449.30017,145.80367 450.20001,145.82166C451.10056,145.83966 451.7366,146.51509 452.58401,146.82033C453.4458,147.13074 454.29999,146.82166 455.20001,146.82166C456.10001,146.82166 457,146.82166 457.89999,146.82166C458.79999,146.82166 459.70001,146.82166 460.60001,146.82166C461.5,146.82166 462.04526,147.27065 462.784,147.73633C463.53415,148.20921 464.5,147.82166 465.29999,147.82166C466.20001,147.82166 466.88715,148.13614 467.66666,148.65498C468.37411,149.12587 469.29999,148.82166 470.20001,148.82166C471.10001,148.82166 472.03476,148.76871 472.79999,149.17432C473.64572,149.62259 474.44733,149.82166 475.30133,149.82166C476.20001,149.82166 477.10001,149.82166 478,149.82166C478.89999,149.82166 479.79999,149.82166 480.70001,149.82166C481.60001,149.82166 482.5,149.82166 483.29999,149.82166C484.20001,149.82166 485.064,149.82166 485.936,149.82166C486.89999,149.82166 487.79999,149.82166 488.70001,149.82166C489.60001,149.82166 490.5,149.82166 491.29999,149.82166C492.12799,149.82166 491.17868,149.82166 490.5,149.82166C489.52151,149.82166 488.70132,149.82166 487.79999,149.82166C486.89999,149.82166 485.936,149.82166 485.064,149.82166C484.20001,149.82166 483.29999,149.82166 482.39999,149.82166C481.5,149.82166 480.70001,149.82166 479.79999,149.82166C478.89999,149.82166 478,149.82166 477.10001,149.82166C476.20001,149.82166 475.29999,149.82166 474.39999,149.82166C473.5,149.82166 472.61465,149.82166 471.67465,149.82166C470.98401,149.82166 470,149.82166 469.01599,149.82166C468.32535,149.82166 467.25266,149.82166 466.33334,149.82166C465.5,149.82166 464.52151,149.82166 463.8045,149.82166C462.89999,149.82166 461.96527,149.76875 461.20001,150.17432C460.3541,150.62262 459.36209,150.49986 458.66666,150.98833C457.95148,151.49065 457.25717,151.68175 456.5,151.98833C455.6687,152.32492 454.84875,152.78926 454.15268,152.81715C453.13678,152.85785 452.20001,152.82166 451.29868,152.82166C450.61465,152.82166 449.67401,152.78593 448.66666,152.82166C447.86014,152.85025 447.35892,153.65817 446.47916,153.80083C445.53345,153.95416 444.74734,153.82166 443.84732,153.82166C442.98401,153.82166 442.02084,153.82166 441.10001,153.82166C440.1955,153.82166 439.33334,153.82166 438.5,153.82166C437.52133,153.82166 436.74734,153.82166 435.84732,153.82166C434.98401,153.82166 434,153.82166 433.01599,153.82166C432.32535,153.82166 431.38535,153.82166 430.39999,153.82166C429.5,153.82166 428.95242,154.26781 428.21466,154.73633C427.52319,155.17545 426.5,154.82166 425.70001,154.82166C424.79999,154.82166 423.89999,154.82166 423,154.82166C422.10001,154.82166 421.20001,154.82166 420.30133,154.82166C419.33334,154.82166 418.5,154.82166 417.70001,154.82166C416.79999,154.82166 415.89999,154.82166 415,154.82166C414.10001,154.82166 413.20001,154.82166 412.29999,154.82166C411.39999,154.82166 410.5,154.82166 409.70001,154.82166C408.66666,154.82166 407.88934,154.82166 407,154.82166C406.10001,154.82166 405.20001,154.82166 404.29999,154.82166C403.39999,154.82166 402.5,154.82166 401.70001,154.82166C400.79999,154.82166 399.89999,154.82166 399,154.82166C398.02084,154.82166 397.14282,154.82166 396.29999,154.82166C395.39999,154.82166 394.39178,154.56602 393.62115,155.04298C392.88489,155.49867 392.35071,155.81622 391.33334,155.82166C390.40018,155.82663 389.56088,156.03688 389.5,156.92183C389.44611,157.70514 389.49826,158.65765 389.5,159.42299C389.50226,160.41716 389.48941,161.19124 389.92532,162.19632C390.27982,163.01369 390.38892,163.67508 390.66666,164.82166C390.81284,165.42516 391.30099,166.25139 392,166.82166C392.69833,167.39139 393.21384,167.96477 393.44284,169.06448C393.61798,169.90553 393.1232,171.00163 393.66666,171.65498C394.24063,172.34502 395.14798,172.38708 395.7955,173.12166C396.37924,173.78387 396.50797,174.67624 397.07468,175.38565C397.65036,176.10626 398.22571,176.71086 399,177.30083C399.73419,177.86024 400.32657,178.30594 401.02084,178.82166C401.70563,179.33032 402.22833,180.00531 402.66934,180.62166C403.19763,181.35997 404.16138,181.82457 404.54816,182.52165C404.99393,183.32506 405.30692,184.0385 405.50015,184.92149C405.68497,185.76607 406.73865,185.92467 407.21466,186.62299C407.72546,187.3723 408.24518,188.02927 408.66666,188.82166C409.00739,189.46227 409.57446,190.23192 410.07468,190.84698C410.5788,191.46686 410.53171,192.4734 411.35068,192.79633C412.2247,193.14095 412.70868,193.79514 413.07468,194.42166C413.58139,195.28902 414.10129,195.97714 414.64932,196.42166C415.44333,197.06567 415.58826,198.02722 416.02084,198.80083C416.42984,199.53224 417.3819,199.75493 418.20532,199.82616C419.17661,199.91017 419.49683,200.62299 419.5,201.45766C419.50385,202.46982 419.43631,203.48517 420.2045,203.81265C421.06979,204.18153 421.54691,204.59709 422.20984,205.12166C422.80301,205.59103 423.68454,206.21048 424.5,206.65498C425.28806,207.08455 425.53625,207.95856 426.2045,208.46449C426.89972,208.99086 427.75885,209.24297 428.59982,209.70032C429.34732,210.10684 429.92532,210.58446 430.66666,210.98833C431.30008,211.3334 432.15994,211.77904 432.98532,212.10832C433.73746,212.40839 434.50723,212.97951 435.09549,213.46982C435.85229,214.10062 436.61526,214.6479 437.5,214.82166C438.33392,214.98543 438.78491,215.7569 439.66666,215.82166C440.49881,215.88277 441.44519,216.06792 441.95834,216.84248C442.45258,217.58849 442.54172,218.47774 443.2045,218.87433C443.98764,219.34296 444.91281,219.62503 445.60001,220.26433C446.10226,220.73158 446.68652,221.73584 447.5,221.82166C448.29556,221.90558 449.25717,221.82166 450.15268,221.82166C451.01599,221.82166 452.10599,221.66205 452.50449,222.17882C453.0462,222.88135 453.4895,223.71831 454.29999,223.82033C455.0946,223.92035 455.88156,224.29895 456.66666,224.82166C457.30356,225.2457 458.32288,225.71931 459.08932,225.81099C459.99411,225.9192 460.73111,226.29816 461.60001,226.70032C462.26202,227.00673 463.06665,227.39363 463.78534,228.10699C464.30325,228.62106 465.11761,229.28729 465.37851,230.14299C465.62946,230.96608 465.5,231.93633 465.5,232.82166C465.5,233.62166 465.5,234.57883 465.5,235.47432C465.5,236.16899 465.5,237.19632 465.5,238.14299C465.5,238.99632 465.5,239.93633 465.5,240.82166C465.5,241.62166 465.97623,242.68492 465.44284,243.46449C464.96036,244.16965 464.51038,244.52621 464.5,245.42166C464.48956,246.32184 463.95679,247.02495 463.62149,247.92166C463.30341,248.77229 463.34732,249.7366 462.61334,249.82033C461.68069,249.92671 460.6666,249.83051 459.91068,249.82166C459.02066,249.81123 458.4826,249.10521 457.73834,248.76898C456.88025,248.38132 456.12878,248.15242 455.384,247.62166C454.72476,247.15184 453.79288,246.60355 453.20984,246.12166C452.48593,245.52335 452.17087,244.67702 451.784,244.02032C451.29691,243.19348 450.92474,242.36122 450.58401,241.62166C450.18631,240.75842 449.73566,240.17557 449.11066,239.42166C448.56561,238.76422 448.69382,237.77621 448.41467,237.02165C448.09299,236.15207 447.10056,235.83966 446.20001,235.82166C445.30017,235.80367 444.39999,235.82166 443.5,235.82166C442.70001,235.82166 441.78534,235.82166 440.88934,235.82166C440,235.82166 439.10001,235.82166 438.20001,235.82166C437.29999,235.82166 436.39999,235.82166 435.5,235.82166C434.70001,235.82166 433.79999,235.82166 432.89999,235.82166C432,235.82166 431.11066,235.82166 430.14282,235.82166C429.29999,235.82166 428.39999,235.82166 427.5,235.82166C426.70001,235.82166 425.7735,236.0054 424.89999,235.78566C424.03717,235.5686 423.24634,235.03264 422.39999,234.60033C421.74466,234.26559 420.90005,233.827 420.02084,233.82166C419.14285,233.81633 418.20001,233.82175 417.29999,233.82166C416.39999,233.82156 415.72256,233.69737 414.89999,233.24699C414.1196,232.81972 413.20001,232.82166 412.29999,232.82166C411.39999,232.82166 410.46176,232.99521 409.70001,232.73633C408.81207,232.43457 408.08746,231.97226 407.20001,231.81715C406.27167,231.65489 405.67365,231.16911 404.79999,230.76898C404.0744,230.43666 403.48923,229.60286 402.79999,229.17882C401.97861,228.67348 400.93042,228.93311 400.20001,228.46449C399.40009,227.95129 399.00003,227.32161 398.30133,226.62299C397.62137,225.94312 396.76852,225.96321 396.11066,225.38565C395.41415,224.77417 395.01144,224.00967 394.52533,223.38565C393.9472,222.64349 393.50571,221.95781 392.70001,221.82298C391.80502,221.6732 391.30832,221.02841 390.70001,220.38965C390.03741,219.69385 389.56567,219.03522 389.05334,218.42166C388.45264,217.70226 387.49631,217.58122 386.83334,216.65498C386.42432,216.08351 386.23602,215.13667 385.5,214.65498C384.85706,214.23422 384.35324,213.30339 383.89999,212.68298C383.35971,211.94342 382.44916,211.52081 381.79999,211.17432C380.95062,210.72096 379.93741,210.86833 379.47467,210.21098C378.96249,209.4834 378.3992,208.72246 377.89999,208.22165C377.19888,207.51828 376.66742,206.95653 376.2045,206.17349C375.75275,205.40935 375.52414,204.44604 375,203.82166C374.46671,203.18634 373.87146,202.69987 373.20532,202.12166C372.48703,201.49817 372.23834,200.60268 371.58267,199.90433C370.95154,199.2321 370.47916,198.80083 369.66666,197.98833C369.13599,197.45766 368.4614,196.64531 367.89999,196.25766C367.09247,195.70007 366.64874,195.09038 366.064,194.43233C365.44885,193.74005 364.51675,193.6777 363.88934,193.24699C363.09207,192.69968 362.64862,192.09048 362.064,191.43233C361.44775,190.73856 360.5423,190.58667 359.79999,190.17432C358.97559,189.71635 358.50571,189.00356 357.69867,188.82298C356.82169,188.62675 355.91455,189.00337 354.97916,188.80083C354.15552,188.62248 353.50021,187.83208 352.69867,187.82166C351.80005,187.80998 350.89197,187.924 349.97916,187.80083C349.16132,187.69048 348.29684,187.255 347.52133,186.72165C346.84781,186.25844 346.17709,185.7243 345.5,185.32166C344.6647,184.82494 343.9761,184.08049 343.10001,183.85765C342.22272,183.63451 341.31937,183.9523 340.52084,183.80083C339.56827,183.62013 339.026,182.9279 338.29999,182.53766C337.44522,182.0782 336.7164,181.70786 335.97916,181.32166C335.19482,180.91078 334.32538,180.82707 333.38535,180.82166C332.40002,180.81598 331.73395,180.67308 330.86401,180.24699C330.04349,179.84512 329.15268,179.82391 328.25717,179.82166C327.29999,179.81924 326.27509,180.07793 325.62134,179.60033C324.92224,179.08961 324.29999,178.82166 323.39999,178.82166C322.5,178.82166 321.70001,178.82166 320.78534,178.82166C319.88934,178.82166 319,178.82166 318.10001,178.82166C317.1955,178.82166 316.33334,178.82166 315.5,178.82166C314.52151,178.82166 313.70114,178.80363 312.79999,178.82166C311.89944,178.83966 311.15427,179.34908 310.29999,179.73766C309.5369,180.08478 308.66943,180.25418 307.936,180.84698C307.28528,181.37294 307.12924,182.32121 306.29999,182.73766C305.45065,183.16418 304.79886,183.52502 304.10001,184.22165C303.49902,184.82069 302.94275,185.46751 302.20001,186.11716C301.53555,186.69835 300.64978,186.83392 300,187.34248C299.23343,187.94246 298.66669,188.65503 298.064,189.25766C297.40005,189.92154 296.80081,190.46637 296,190.82166C295.20084,191.17619 294.26862,191.5042 293.58401,192.10565C292.98834,192.629 292.23068,192.63277 291.39999,193.04315C290.70941,193.38431 290.20111,194.41386 289.29999,194.73633C288.54251,195.0074 287.94086,195.19826 287.42801,195.84698C286.87921,196.54117 285.96414,196.48111 285.02084,196.82166C284.18054,197.12502 283.40613,197.76077 282.5,197.82166C281.70181,197.87529 280.79993,197.81148 279.89999,197.82166C278.97897,197.83208 278.18408,198.05634 277.32535,198.39632C276.52634,198.71265 275.70132,198.82098 274.79999,198.82166C273.89999,198.82231 273,198.82166 272.10001,198.82166C271.20001,198.82166 270.29999,198.82166 269.39984,198.82166C268.61465,198.82166 267.67465,198.82166 266.66666,198.82166C265.86166,198.82166 264.97916,198.82166 264.10001,198.82166C263.20001,198.82166 262.29999,198.82166 261.39999,198.82166C260.5,198.82166 259.70001,198.82166 258.79999,198.82166C257.89999,198.82166 257,198.82166 256.10001,198.82166C255.11067,198.82166 254.21466,198.82166 253.39999,198.82166C252.5,198.82166 251.7,198.82166 250.8,198.82166C249.89999,198.82166 249,198.82166 248.10001,198.82166C247.2,198.82166 246.3,198.82166 245.39999,198.82166C244.5,198.82166 243.584,198.82166 242.7955,198.82166C241.89999,198.82166 240.95287,198.88268 240.01601,198.53632C239.29991,198.27158 238.56917,197.65129 237.91066,197.25766C237.05161,196.74416 236.1174,196.80246 235.5,196.32166C234.86018,195.82339 234.01733,195.82336 233.20984,195.82166C232.14284,195.8194 231.36165,195.43558 230.7,195.10565C229.85664,194.6851 228.89999,194.82166 228,194.82166C227.10001,194.82166 226.1967,194.89735 225.29866,194.82033C224.32285,194.73663 223.69339,194.34705 222.98399,194.10565C221.96844,193.76009 221.064,193.82166 220.10001,193.82166C219.2,193.82166 218.3,193.82166 217.39999,193.82166C216.5,193.82166 215.7,193.82166 214.8,193.82166C213.89999,193.82166 213,193.82166 212.10001,193.82166C211.2045,193.82166 210.33333,193.82166 209.39999,193.82166C208.5,193.82166 207.7,193.82166 206.8,193.82166C205.89999,193.82166 205.08934,193.82166 204.17867,193.82166C203.32533,193.82166 202.3759,193.68588 201.40016,193.82182C200.5983,193.93353 200.14734,194.76898 199.51466,195.24699L198.79016,195.76898L198.14816,195.87433" id="svg_16" stroke-width="3" stroke="#000" fill="none"/>
  <path t="128652,129099,129120,129124,129164,129186,129204,129252,129284,129304,129379,129419,129452,129580,129620,129652,129724,129740,129740,129772,129820,129844,129900,129924,129941,129964,129977,129977,129995,130084,130140" d="M190.5,194.82166C192.3,194.82166 193.2,194.82166 194.10001,194.82166C194.89999,194.82166 195.8,194.82166 196.7,194.82166C197.60001,194.82166 198.59984,194.82166 199.44733,194.82166C200.2045,194.82166 201.10001,194.82166 202,194.82166C202.89999,194.82166 203.8,194.82166 204.7,194.82166C205.60001,194.82166 206.5,194.82166 207.3,194.82166C208.2,194.82166 209.10001,194.82166 210.064,194.82166C210.936,194.82166 211.8,194.82166 212.7,194.82166C213.60001,194.82166 214.5,194.82166 215.3,194.82166L216.2,194.82166L217.10001,194.82166L218,194.82166" id="svg_17" stroke-width="20" stroke="#fff" fill="none"/>
  <path t="134564,134931,134956,134980,134980,135012,135060,135060,135364,135364,135580,135683,135707,135709,135716,135756,135796,135852,135948,136044,136076,136124,136124,136204,136332,136356,136396,136444,136444,136500,136516,136564,136596,136628,136676,136716,136780,136868,136948" d="M219.5,192.82166C217.8,192.82166 216.84853,192.80981 216.01601,193.10565C215.30992,193.35657 214.25374,193.78561 213.33333,193.82166C212.67508,193.84743 211.52437,193.81442 210.94667,194.43233C210.34547,195.07538 210.5,196.17882 210.5,197.02165C210.5,197.92166 210.91399,199.03445 210.33333,199.65498C209.74673,200.28186 209.82178,200.95955 209.33333,201.65498C208.83101,202.37016 208.5,202.92166 208.5,203.82166C208.5,204.62166 208.69078,205.54994 208.464,206.42166C208.24121,207.27805 207.24637,207.61066 206.39999,208.04298C205.74469,208.37772 204.90004,208.81631 204,208.82166C203.10002,208.82698 202.2,208.82166 201.3,208.82166C200.40016,208.82166 199.52533,208.82166 198.69867,208.82166L197.8,208.82166L196.89999,208.82166" id="svg_18" stroke-width="3" stroke="#000" fill="none"/>
  <path t="139189,139315,139331,139332,139332,139332,139346,139346,139346,139348,139348,139348,139360,139360,139360,139363,139363,139377,139377,139379,139379,139395,139411,139443" d="M193.5,204.82166C196.08934,204.85765 196.881,205.29977 197.66667,205.82166C198.32382,206.25816 198.95137,206.54733 199.92149,206.92149C200.728,207.23256 201.59738,207.5018 202.5,207.65498C203.39,207.80603 204.27634,207.77338 205.33333,207.98833C206.05013,208.13409 206.89203,208.52727 207.47867,209.14282C208.05783,209.75053 208.63379,210.61327 209.52083,210.77998C210.48402,210.96101 211.27867,210.83232 212.16667,210.98833L212.7215,211.70015L213.60001,211.82166" id="svg_19" stroke-width="20" stroke="#fff" fill="none"/>
  <path t="144645,145028,145046,145046,145067,145078,145515,145540,145579,145580,145660,145660,145724,145724,145788,145799,145800,145828,145860,145885,145900,145918,145932,145939,145963,145963,145996,146018,146018,146044,146099,146099,146099,146227" d="M209.5,196.82166C210.47917,197.84248 210.5,198.80016 210.5,199.62032C210.5,200.52165 210.64691,201.54521 210.064,202.21098C209.45248,202.90939 208.33333,202.82166 207.67467,202.82166C206.66667,202.82166 205.87386,202.78505 204.84734,202.82616C204.15123,202.85403 203.17354,203.3587 202.33333,203.65498C201.55112,203.9308 200.73215,204.16032 200.14734,204.76898C199.55762,205.38275 198.81078,205.48016 198.02083,205.84248C197.29015,206.17763 197.09013,207.24741 196.39999,207.92149C195.82109,208.48692 194.97934,208.81123 194.01601,208.82166C193.32538,208.82912 192.25267,208.82616 191.33333,208.98833L190.67467,209.24699L189.98399,209.53766L188.91066,209.81099" id="svg_20" stroke-width="3" stroke="#000" fill="none"/>
  <path t="148509,148723,148723,148739,148739,148739,148755,148755,148787,148787,148818,148859,148859,148979,149019,149019,149043,149075,149115" d="M199.5,199.82166C198.78566,201.47882 198.28136,202.03497 197.5,202.82166C196.90652,203.41919 196.336,203.98566 195.5215,204.80016C195.02083,205.30083 194.3,206.02165 193.8,206.52165C193.10001,207.22165 192.39999,207.92166 191.89999,208.42166C191.2,209.12166 190.5,209.82166 189.89999,210.38565L189.11067,210.79633L188.52083,211.34248L188.5,212.22165" id="svg_21" stroke-width="20" stroke="#fff" fill="none"/>
  <path t="150253,151027,151076,151076,151108,151108,151163,151171" d="M207.5,202.82166C206.61333,201.82298 205.664,201.82166 204.89867,201.82166C203.9045,201.82166 203.15717,201.82166 202.136,201.82166L201.2,201.82616" id="svg_22" stroke-width="20" stroke="#fff" fill="none"/>
  <path t="152836,152956,152956,152963,152963,152978,152978,152980,152980,152980,152994,152994,153011,153011" d="M195.5,196.82166C197.15266,197.53149 197.85742,198.1635 198.4785,198.80032C199.09958,199.43716 199.58574,200.15205 200.02083,200.84248C200.64619,201.83485 201.14291,202.42627 201.67467,202.98566C202.32166,203.66628 202.97917,204.30083 203.60017,204.92183L204.25717,205.57883" id="svg_23" stroke-width="20" stroke="#fff" fill="none"/>
  <path t="155109,155299,155356,155356,155407" d="M206.5,198.82166C206.936,200.25766 207.60001,200.92166 208.2,201.52165L208.88933,202.22165" id="svg_24" stroke-width="20" stroke="#fff" fill="none"/>
  <path t="156821,156971,156985,156985,156985,156988,156988,156988,157000,157000,157000,157000,157000,157004,157004,157004,157018,157018,157018,157018,157018,157019,157019,157031,157034,157035,157050,157050" d="M203.5,196.82166C205.32533,196.85365 206.3595,197.30296 206.75183,197.87965C207.19159,198.52606 207.8049,199.38538 208.51433,199.66365C209.29655,199.97049 210.52008,200.28976 211.09866,200.67632C211.71243,201.08636 212.27016,201.61125 212.81467,202.14032C213.82895,203.12584 214.27698,203.60532 214.76134,204.04698C215.81551,205.00824 216.4657,205.50552 216.80083,205.76982C217.47725,206.30327 218.14758,206.79919 219.2355,207.67848C219.79729,208.13254 220.59984,208.70049 221.33333,209.15498L221.56134,209.97099L222.06934,210.65233L222.85184,210.86983" id="svg_25" stroke-width="20" stroke="#fff" fill="none"/>
  <path t="160701,161178,161195,161195,161236,161236,161275,161331,161342,161499,161627,161643,161739,161795,161907,161931,162187,162331,162363,162419,162419,162459,162512,162520,162520,162602,162626,162650,162682,162771,162787,162819,162843,162851,162899,162939,162939,163003,163107,163107,163242,163243,163474,163475,163818,163867,163887,163922,163979,163979,164019,164130,164162,164203,164226,164258,164339,164370,164371,164392,164426,164442,164482,164562,164610,164666,164746,164802,164858,164954,165034,165035,165075,165114,165130,165155,165218,165306,165411,165412,165466,165507,165586,165978,166034,166052,166052,166067,166085,166102,166119,166119,166138,166153,166170,166202,166202,166242,166258,166306,166370,166385,166482,166514,166554,166578,166579,166634,166654,166683,166746,166747,166802,166826,166906,166946,166986,167090,167114,167138,167187,167187,167226,167251,167410,167466,167476,167826,167866,167922,167971,168058,168498,168610,168666,168706,168706,168738,168762,168842,168882,168882,168914,168994,168994,169018,169074,169090,169106,169122,169122,169163,169163,169202,169202,169226,169250,169270,169315,169354,169371,169371,169379,169490,169522,169539,169586,169594,169618,169618,169650,169674,169690,169730,169730,169746,169794,169794,169806,169810,169851,169914,169914,169946,169994,170018,170058,170130,170130,170202,170202,170250,170266,170266,170330,170330,170371,170378,170402,170490,170539,170610,170642,170682,170730,170762,170762,170786,170826,170890,170970,171066,171082,171138,171194,171194,171218,171338,171474,171490,171642,171698,171698,171717,171794,171818,171850,171882,171903,171931,171954,171969,171979,172058,172146,172186,172226,172242,172274,172354,172354,172378,172394,172394,172406,172466,172530,172530,172570,172658,172706,172706,172738,172762,172774,172792,172809,172826,172858,172875,172914,172914,172946,172978,172993,173010,173042,173060,173090,173090,173090,173098,173098,173110,173114,173138,173139,173170,173178,173202,173219,173219,173229,173250,173282,173298,173330,173345,173386,173411,173458,173530,173594,173626,173682,173738,173738,173746,173786,173826,173826,173875,173875,173898,173898,173946,173986,174026,174027,174034,174066,174098,174130,174130,174138,174154,174178,174218,174259,174259,174298,174362,174386,174418,174436,174436,174498,174522,174563,174642,174643,174682,174682,174690,174690,174754,174786,174826,174842,174874,174898,174938,174978,174990,175004,175098,175170,175762,175818,175882,175882,175914,176178,176210,176282,176282,176418,176506,176650,176650,176698,176762,176786,176850,176882,176970,177018,177018,177058,177194,177194,177242,177267,177314,177314,177354,177354,177378,177450,177450,177562,177610,177650,177690,177738,177906,177954,177994,177994,178130,178130,178204,178242,178290,178330,178354,178394,178442,178442,178466,178466,178493,178498,178510,178538,178538,178557,178578,178594,178594,178610,178642,178642,178666,178666,178682,178691,178691,178714,178746,178746,178770,178791,178807,178850,178874,178874,178922,178923,178971,178971,179002,179015,179015,179034,179058,179082,179083,179098,179115,179115,179155,179187,179187,179210,179258,179259,179280,179281,179338,179450,179451,179498,179546,179634,179730,179762,179818,179938,179951,179951,180082,180362,180498,181010,181266,181266,181394,181522,181802,181803,181850,181851,181946,182026,182402,182458,182530,182570,182571,182618,183370,183466,183522,183602,183707,183770,183826,183890,183930,183970,183970,184082,184178,184258,184370,184450,184530,185522,185535,185634,185699,185699,185719,185762,185811,185843,185882,185890,185906,185921,185994,186058,186059,186138,186155,186172,186210,186250,186272,186386,186418,186418,186443,186443,186466,186466,186506,186586,186586,186834,186922,186946,186962,187122" d="M216.5,190.82166C214.68533,190.84299 213.72404,191.25824 213.48534,192.00699C213.19133,192.92921 212.72551,193.45531 212.11067,194.22165C211.51173,194.96815 211.75627,196.04657 211.27867,196.70032C210.76796,197.3994 210.5,198.02165 210.5,198.92149C210.5,199.82166 210.89241,200.75323 210.41467,201.53632C209.92442,202.3399 209.20596,202.67017 208.3,202.82298C207.3864,202.97708 206.84579,203.63091 205.89999,203.81099C205.10358,203.96263 204.14906,203.63615 203.36133,203.85765C202.4371,204.11754 201.81638,204.49263 201.02083,204.84248C200.30881,205.15561 199.66667,205.82166 198.88933,205.82166C198,205.82166 197.10001,205.82166 196.2,205.82166C195.3,205.82166 194.39983,205.82166 193.61467,205.82166C192.67467,205.82166 191.66667,205.82166 190.87466,205.82166C190.01733,205.82166 189.20984,205.82166 188.16667,205.82166C187.31467,205.82166 186.10767,205.43619 185.58533,206.10699C185.02094,206.8318 185.5,207.92166 185.5,208.82166C185.5,209.62166 185.5,210.46449 185.5,211.43233C185.5,212.32166 185.5,213.22165 185.5,214.12166C185.5,215.02165 185.5,215.92166 185.5,216.82166C185.5,217.62166 185.56552,218.45068 186.30133,218.90565C186.98721,219.32976 187.34074,220.28746 187.784,221.02032C188.25145,221.79318 188.5,222.52615 188.5,223.42166C188.5,224.32166 188.40454,225.26619 188.784,226.02165C189.21957,226.88885 189.49774,227.52164 189.5,228.42166C189.50224,229.32166 189.5,230.22165 189.5,231.12166C189.5,232.02032 189.5,232.98833 189.5,233.82166C189.5,234.62166 189.5,235.52165 189.5,236.42166C189.5,237.32166 189.62514,238.52397 188.95833,238.80083C188.08783,239.16226 187.12097,239.05272 186.26167,238.81715C185.43858,238.59152 185.35277,237.41998 184.5,236.98833C183.80913,236.63861 182.71654,237.18753 181.83333,236.65498C181.11969,236.22469 180.46811,235.69511 179.89999,235.21098C179.15465,234.57582 178.35089,234.23584 177.66667,233.65498C177.00041,233.08937 176.11707,233.21642 175.58533,232.53632C175.0195,231.81262 175.5,230.72165 175.5,229.82166C175.5,229.02165 175.5,228.12166 175.5,227.22165C175.5,226.30083 175.5,225.50032 175.5,224.64699C175.5,223.70699 175.5,222.72182 175.5,221.84698C175.5,221.02032 175.51041,220.1216 175.5,219.22165C175.48958,218.32147 174.97282,217.6122 174.62151,216.72165C174.36087,216.06096 174.68376,215.09515 174.464,214.22165C174.24695,213.35883 173.54271,212.62468 173.5,211.72182C173.45746,210.82266 173.5,210.02032 173.5,209.12166C173.5,208.22165 173.81216,207.26106 173.48933,206.43233C173.21194,205.72023 172.10001,206.25766 171.5,206.82166C170.89999,207.38565 169.94044,207.75835 169.47467,208.43233C168.96881,209.16431 168.46509,210.00342 167.89999,210.38565C167.09465,210.93039 166.21855,211.11092 165.69867,211.62299C165.00514,212.30609 164.20135,212.79298 163.3,212.82166C162.40045,212.85028 161.5007,212.98933 160.864,213.43233C160.01694,214.02167 159.3573,214.48454 158.52133,214.70015C157.63699,214.92824 156.68527,214.81126 155.83333,214.82166C154.97899,214.83208 154.18207,215.4108 153.39999,215.70015C152.54826,216.01527 151.7,215.82166 150.8,215.82166C149.89999,215.82166 149,215.82166 148.10001,215.82166C147.2,215.82166 146.23077,215.63284 145.40016,216.04298C144.6926,216.39236 144.08891,217.14072 143.62134,217.92149C143.15346,218.70279 142.39981,218.8172 141.61467,218.82166C140.67462,218.827 139.66249,218.98033 139.02083,219.32166C138.19901,219.75882 137.70947,220.3662 137.14284,221.11716C136.638,221.78621 135.74283,221.8194 134.68533,221.82166C133.83333,221.82347 132.91211,221.71716 132.2,222.17882C131.40253,222.69582 130.90675,223.51576 130.01601,223.73633C129.17432,223.94475 128.25259,223.81017 127.33334,223.82166C126.4998,223.83208 125.53942,224.07597 124.91067,224.39632C124.0228,224.84868 123.11066,224.83232 122.5,225.32166C121.88934,225.81099 121,225.82166 120.1,225.82166C119.2,225.82166 118.3,225.82166 117.4,225.82166C116.5,225.82166 115.7,225.82166 114.8,225.82166C113.9,225.82166 113,225.82166 112.11066,225.82166C111.14283,225.82166 110.3,225.82166 109.4,225.82166C108.5,225.82166 107.7,225.82166 106.8,225.82166C105.9,225.82166 105.09241,225.72685 104.44733,225.17432C103.73522,224.56436 103.5,223.82166 103.5,223.02165C103.5,222.10699 104.21218,222.21526 105.064,221.78566C105.76281,221.43323 106.33583,221.01793 107.2,220.7645C108.07743,220.50717 108.77274,220.01315 109.44733,219.46899C110.10843,218.93573 110.89796,218.82156 111.5,218.32166C112.11974,217.80705 112.89381,217.38609 113.69867,216.90565C114.44621,216.45943 115.08195,215.96461 115.85183,215.76898C116.76302,215.53745 117.49216,214.94437 118.3,214.82298C119.20856,214.68648 119.60294,213.93176 120.36134,213.43233C120.97288,213.0296 122.06808,212.9731 122.936,212.81099C123.73407,212.66193 124.2227,211.93008 125,211.34248C125.73762,210.78488 126.7,210.82166 127.6,210.82166C128.5,210.82166 129.04526,210.37184 129.78534,209.90698C130.56334,209.4183 131.4577,209.58667 132.2,209.17432C133.0244,208.71635 133.50043,208.0291 134.30133,207.82298C135.17348,207.59854 135.94908,207.21431 136.8045,206.87433C137.63124,206.54576 138.31821,206.34428 139.10133,206.10565C140.07773,205.80812 140.88564,205.8701 141.864,205.39632C142.64198,205.01956 143.45038,204.58025 144.14284,204.17432C144.89169,203.73534 145.80653,203.92862 146.7,203.82033C147.61978,203.70885 148.32417,203.38116 149.064,202.79633C149.74222,202.26019 150.04492,201.37131 150.78534,200.90698C151.5636,200.41893 152.72595,201.07935 153.37866,200.60033C154.07463,200.08955 154.81686,199.97282 155.44733,199.46899C156.05873,198.98039 156.94453,198.91711 157.7,198.53766C158.5672,198.10208 159.2,197.76898 160,197.32166C160.8,196.87433 161.59169,196.58839 162.25717,196.11716C162.97507,195.60881 163.69911,195.25839 164.61467,194.62299C165.31856,194.13448 166.08879,193.72665 166.60983,193.11716C167.15709,192.47701 168.11659,192.32996 168.95833,191.82166C169.6494,191.40434 170.17296,190.86931 170.98267,190.53632C171.8241,190.19028 172.25262,189.1902 172.936,188.85765C173.80383,188.43535 174.6273,188.41278 175.5,187.98833C176.15967,187.66748 177.01706,187.34561 177.50133,186.53766C177.88832,185.89201 178.63457,185.42743 179.5,184.98833C180.17538,184.64565 180.81497,184.0721 181.416,183.53766C182.06207,182.96318 182.71935,182.55528 183.25717,182.05998C184.01024,181.36646 184.42159,180.73448 185.33333,180.15498C186.08514,179.67712 186.58174,179.01894 187,178.34248C187.49866,177.536 188.16605,177.01285 188.47917,176.30083C188.82903,175.50528 189.25941,174.88046 189.4955,174.11716C189.76038,173.26076 189.90385,172.38242 190.69867,171.90565C191.38956,171.49123 191.58212,170.61789 191.49983,169.72165C191.41615,168.81021 190.73907,168.28531 190.52083,167.34248C190.32277,166.48686 190.68889,165.55235 190.2785,164.72165C189.93735,164.03108 188.90779,163.52277 188.58533,162.62166C188.31425,161.86417 188.51799,161.02147 188.5,160.12166C188.48199,159.22112 188.06549,158.42722 187.584,157.62299C187.13881,156.87938 186.61147,156.22604 185.79466,155.87433C185.11554,155.58189 184.36497,155.19943 183.5,154.65498C182.89253,154.27261 182.61063,153.41522 182.4955,152.51715C182.3633,151.48587 182.02687,150.79236 181.5,149.98833C181.05923,149.31569 180.66359,148.47459 180.27867,147.72165C179.8885,146.95845 179.90317,146.11707 179.464,145.25766C179.10786,144.56073 178.3978,144.03084 178,143.32166C177.50223,142.43423 177.1225,141.67839 176.66667,140.82166C176.31316,140.15721 175.78249,139.53372 175.14816,139.12166C174.25049,138.53851 174.02335,137.56229 173.33333,136.98833C172.67998,136.44487 171.90942,136.43713 171.21333,135.90565C170.48608,135.35037 169.70004,135.32693 168.66667,134.98833C167.92545,134.74544 167.18965,134.20361 166.3,133.90698C165.44235,133.62102 164.53331,133.60106 163.89999,133.24699C163.03873,132.76549 162.05119,132.92552 161.3,132.53766C160.64305,132.19846 159.72592,131.81502 158.84283,131.46449C158.27699,131.23988 157.30057,130.72136 156.54167,130.34248C155.66826,129.90645 154.72942,130.04794 154.06799,129.73633C153.24826,129.35013 152.5,128.82166 151.7,128.82166C150.8,128.82166 149.87486,128.83354 149.10001,128.39632C148.37375,127.98652 147.48735,127.9137 146.74283,127.76449C145.82242,127.58002 145.0986,126.96499 144.05716,126.82166C143.32159,126.72042 142.33191,127.00004 141.5,126.65499C140.71565,126.32967 140.00018,125.83208 139.08934,125.82166C138.17873,125.81124 137.32533,125.82166 136.38533,125.82166C135.5,125.82166 134.7,125.82431 133.66667,125.82166C132.79015,125.8194 131.96495,125.77797 131.12534,125.39632C130.31427,125.02766 129.44753,124.98616 128.5215,124.60016C127.85298,124.3215 127.3026,123.35588 126.5,122.98832C125.75728,122.64817 124.8,122.82166 123.9,122.82166C123.02084,122.82166 122.14283,122.82174 121.2045,122.82166C120.27866,122.82157 119.71442,122.3797 119.21467,121.62299C118.81252,121.01406 117.79993,120.83432 116.9,120.82166C115.99985,120.80898 115.17592,120.48975 114.5,119.82166C113.91434,119.24277 113.59969,118.41654 113.4955,117.51716C113.39454,116.6457 112.92503,115.84785 112.66666,114.98832C112.44445,114.24907 112.5,113.32166 112.5,112.34249C112.5,111.46449 112.5,110.62166 112.5,109.72166C112.5,108.82166 112.47276,108.02124 112.5,107.12166C112.52859,106.17753 113.30133,105.82233 114.2,105.82166C115.1,105.82098 116,105.82166 116.9,105.82166C117.8,105.82166 118.7,105.82166 119.6,105.82166C120.5,105.82166 121.3,105.82166 122.21467,105.82166C123.11066,105.82166 124,105.82166 124.9,105.82166C125.8,105.82166 126.70862,105.94577 127.59983,105.82149C128.40158,105.70968 128.5,104.72166 128.5,103.82166C128.5,103.02165 128.97621,101.95839 128.44284,101.17883C127.96038,100.47366 127.07919,100.3829 126.55267,99.52615C126.15077,98.87219 125.64902,98.28677 125.48933,97.42165C125.33588,96.59029 124.73755,95.79536 124.44733,95.12166C124.08472,94.27986 123.59,93.49828 123.07467,92.84698C122.54722,92.18037 122.5,91.32166 122.5,90.43232C122.5,89.53499 122.61863,88.64049 122.45834,87.82166C122.28872,86.9552 121.34516,86.49526 120.83334,85.82166C120.30962,85.13241 120.51183,84.17017 120.216,83.33765C119.90237,82.45505 119.55717,81.57882 119.50017,80.72182L119.78533,79.90699L120.7,79.82166L121.6,79.82166" id="svg_26" stroke-width="3" stroke="#000" fill="none"/>
  <path t="201292,201562,201579,201579,201595,201603,201603,201603,201611,201626,201634,201634,201634,201650,201650,201650,201659,201659,201659,201666,201666,201676,201693,201714,201747,201747,201778,201778,201802,201818,201834,201834,201858,201876,201898,201898,201910,201910,201929,201944,201961,201985,201994,202041,202041,202074,202099,202170,202170,202354,202370,202383,202401,202417,202418,202435,202458,202458,202466,202482,202490,202514,202514,202522,202522,202531,202531,202538,202554,202565,202602,202618,202618,202630,202658,202666,202705,202761,202785,202787,202801,202849,202874,202897,202898,202905,202921,202937,202950,202953,202966,202985,203001,203017,203041,203057,203073,203145,203217,203218,203249,203321,203322,203378,203465,203697,203698" d="M194.5,149.82166C195.30133,150.99098 195.87495,151.69893 196.3,152.33899C196.8775,153.20862 197.6713,153.81425 198.31467,154.22165C198.93521,154.61458 199.46236,155.50737 200.04167,155.86333C200.78886,156.32243 201.50497,156.86165 202.10133,157.33899C202.88142,157.96338 203.52423,158.31583 204.18533,158.70566C205.1879,159.29684 205.98483,159.81346 206.49017,160.16899C207.36705,160.78593 208.01128,161.55453 208.89999,161.78566C209.76756,162.01128 210.31511,162.34866 210.86166,163.12166C211.28023,163.71364 212.12886,164.16953 212.84734,164.46449C213.83665,164.87065 214.6273,165.23053 215.5,165.65498C216.15967,165.97583 216.94908,166.429 217.8045,166.76898C218.63124,167.09755 219.47319,167.39864 220.33333,167.65498C221.1203,167.88953 221.66805,168.25636 222.216,168.90565C222.73598,169.52179 223.08942,170.4294 223.89999,170.79633C224.68182,171.15024 225.38922,171.54617 225.97917,172.32166C226.54039,173.05936 226.8369,173.85291 227.216,174.62166C227.63281,175.46686 227.55815,176.59032 226.7955,176.81715C225.93715,177.07246 225,176.81941 224.10001,176.82166C223.19998,176.82391 222.36165,177.20773 221.7,177.53766C220.85664,177.95821 219.89999,177.82166 219.08934,177.82166C218.1785,177.82166 217.28934,177.82166 216.30017,177.82166C215.52083,177.82166 214.5215,177.82166 213.70134,177.82166C212.8,177.82166 211.88742,177.67348 211.02083,177.82166C210.17833,177.96571 209.5126,178.73662 208.7,178.82033C207.80473,178.91254 206.89999,178.82166 206,178.82166C205.10001,178.82166 204.2,178.82156 203.3,178.82166C202.40016,178.82175 201.89102,179.32889 201.14284,179.7645C200.4127,180.18959 199.44917,180.1225 198.8,180.46899C197.95062,180.92235 197,180.82166 196.10001,180.82166C195.2,180.82166 194.28741,180.67186 193.40016,180.82182C192.54814,180.96582 192.14413,181.79306 191.2,181.82166C190.30042,181.84889 189.39964,181.79196 188.55267,181.82166C187.73683,181.85025 186.85829,182.2016 186.15266,182.46899C185.26955,182.80365 184.28291,183.08775 183.7,183.62299C183.08121,184.19116 182.3,184.73898 181.5,185.15498L181.02083,185.84248" id="svg_27" stroke-width="3" stroke="#000" fill="none"/>
  <path t="207108,207258,207266,207266,207279,207279,207282,207282,207282,207294,207295,207297,207297,207297,207313,207313,207329,207329,207345,207345,207345,207361,207377,207377,207401,207402,207402,207409,207426,207426,207449,207459,207465,207490,207509,207554,207579,207586,207587,207601,207611,207617,207633,207649,207660,207677,207694,207722,208105,208121,208137,208153,208177,208196,208212,208233,208305,208305,208337,208337,208385,208401,208458,208505,208517,208546,208594,208697,208705,208729,208729,208842,208898,208922,208938,208956,208957,208963,208963,208964" d="M243.5,148.82166C243.5,150.57883 243.49899,151.47882 243.5,152.22615C243.50134,153.22165 243.4445,154.0787 243.94284,155.02148C244.28069,155.66063 244.88338,156.13464 245.61467,156.939C246.22269,157.60774 246.59219,158.36787 246.91066,159.07233C247.24875,159.82018 247.9942,160.83987 248.47917,161.30083C249.1839,161.97066 249.41133,162.85796 249.66667,163.82166C249.88028,164.62785 250.29358,165.34164 250.7955,166.06448C251.32521,166.82736 251.52939,167.64194 251.784,168.58966C251.98201,169.32672 252.17375,170.0645 252.47467,171.14966C252.69124,171.93063 253.35182,172.59027 253.4955,173.52165C253.63272,174.41115 253.5,175.32166 253.5,176.22165C253.5,177.11716 253.5,177.98833 253.5,178.92166C253.5,179.82166 253.5,180.62166 253.5,181.52165C253.5,182.42166 253.5,183.32166 253.5,184.22165C253.5,185.12166 253.5,186.02165 253.5,186.92166C253.5,187.82166 253.51823,188.65518 253.5,189.52615C253.48199,190.38622 252.79552,190.8194 251.89999,190.82166C251,190.82391 250.10001,190.821 249.2,190.82166C248.29866,190.82233 247.30472,190.92783 246.68533,191.25766C245.78348,191.73792 245.45009,192.64005 244.69867,192.82033C243.80655,193.03438 243.49561,193.76601 242.69867,193.82166C241.85727,193.88042 241.58424,194.77235 240.88933,195.38565C240.22221,195.97441 239.3882,196.26399 238.5,196.65498C237.84236,196.94449 236.77725,196.67567 236.11067,197.25766C235.41249,197.86723 235.14429,198.79306 234.29601,198.82166C233.44449,198.85036 232.44533,198.82166 231.80267,198.82166L231.104,198.82166" id="svg_28" stroke-width="3" stroke="#000" fill="none"/>
  <path t="213347,213451,213462,213462,213462,213462,213462,213465,213465,213476,213476,213494,213494,213494,213513,213513,213537,213537,213545,213545,213545,213569,213569,213569,213625,213646,213649,213681,213698,213713,213753,213769,213817" d="M358.5,144.82166C357.43866,145.57632 357.17111,146.4899 356.93201,147.15898C356.65448,147.93552 356.33301,148.7504 356.06799,149.57098C355.7196,150.6497 355.58826,151.50412 355.5,152.65498C355.43921,153.44792 355.04568,154.13402 354.5,154.84248C354.05844,155.41576 353.62445,156.42468 353.45184,157.22165C353.23434,158.2258 352.8801,159.00841 352.66666,159.82166C352.45941,160.61128 352.32138,161.48465 351.64801,162.22032C351.06058,162.86208 350.12689,163.17796 349.67151,164.06448C349.27209,164.84207 349.5,165.82166 349.5,166.73766C349.5,167.52615 349.5,168.42166 349.5,169.32166L349.5,170.22165L349.5,171.12166" id="svg_29" stroke-width="3" stroke="#000" fill="none"/>
  <path t="216908,217298,217394,217426,217438,217442,217455,217455,217458,217470,217470,217485,217489,217538,217610,217610,217642,217683,217714,217740,217740,217762,217778,217850,217850,217898,217899,217906,217954,218026,218026,218154,218314,218354,218434,218461,218477,218530,218562,218562,218594,218626,218658,218690,218722,218730,218770,218802,219042,219042,219130,219162,219274,219322,219378,219458,219482,219500,219500,219610,219634,219666,219810,220002" d="M158.5,93.82166C160.2,92.82616 161.1192,92.65644 162,92.84249C162.8474,93.02148 163.59389,93.76077 164.5,93.82166C165.2982,93.87529 166.25885,93.88166 166.8,94.52699C167.36678,95.20287 168.01881,95.64193 168.89999,95.83232C169.84265,96.036 170.44647,96.88464 171,97.30082C171.73906,97.8565 172.70377,97.73953 173.60001,97.82182C174.51144,97.9055 175.20082,98.46711 176,98.82166C176.80084,99.17694 177.41524,99.93499 178.136,100.38566C178.91406,100.87215 179.67462,100.81622 180.74283,100.82166C181.59999,100.82602 182.63356,100.86047 183.14284,101.52615C183.66115,102.20366 184.1618,102.86555 184.55267,103.52615C185.01743,104.31161 185.47141,105.1203 185.5,106.02165C185.52853,106.9212 185.5,107.82166 185.5,108.62166C185.5,109.52165 185.57779,110.48885 185.07466,111.21099C184.52742,111.99644 183.84315,112.62184 183,112.80082C182.11938,112.98775 181.14336,112.68511 180.3,113.10565C179.63835,113.43559 178.80002,113.8194 177.936,113.82166C176.97917,113.82415 176.10001,113.82166 175.2,113.82166C174.3,113.82166 173.39999,113.82166 172.5,113.82166C171.7,113.82166 170.8,113.82166 169.89999,113.82166L169,113.82166L168.10001,113.82166L167.2045,113.82166" id="svg_30" stroke-width="3" stroke="#000" fill="none"/>
 </g>
</svg>