<svg width="500" height="333.3333333333333" xmlns="http://www.w3.org/2000/svg" xmlns:svg="http://www.w3.org/2000/svg" xmlns:xlink="http://www.w3.org/1999/xlink">
 <!-- Created with SVG-edit - http://svg-edit.googlecode.com/ -->
 <g display="inline" class="layer">
  <title>Layer 1</title>
  <path t="0,766,774,774,902,902,1134,1278,1342,1342,1454,1454,1486,1638,1638,1686,1742,1742,1878,1878,2182,2342,2430,2767,2767,2768,2798,3142,3398,3398,3518,3622,3623,3694,3798,3870,3870,4030,4030,4087,4134,4198,4230,4230,4262,4262,4334,4366,4398,4398,4518,4558,4622,4622,4790,4886,4886,4966,5030,5030,5062,5150,5150,5318,6094,6094,6134,6134,6254,6254,6286,6326,6390,6390,6423,6510,6630,6630,6670,6670,6774,6974,7038,7126,7126,7270,7270,7326,7390,7534,7534,7574,7630,7766,7766,7822,7822,7870,8022,8549,8550,8550,8742,8742,9254,9302,9382,9382,9518,9606,9790,10182,10182,10182,10182,10262,10262,10398,10550,10678,10926,10926,11158,11222,11222,11502,11622,11622,11862,12006,12006,12070,12078,12126,12157,12158,12189,12190,12190,12238,12278,12326,12518,12518,12518,12678,12678,12785,12817,12865,12865,12953,13065,13065,13065,13097,13185,13249,13249,13321,13321,13345,13433,13609,13609,13673,13673,13721,13769,13833,13833,13857,13873,13873,13913,13922,14041,14041,14305,14305,14521,14697,14697,14793,14793,14897,15001,15113,15113,15169,15281,15649,15649,15673,15705,15705,16241,16321,16321,16361,16433,16481,16609,16609,16633,16681,16681,16969,16993,17393,17481,17577,17585,17585,17633,17665,17665,17677,17677,17985" d="M153.5,124.78333C155.31467,124.80466 156.27646,125.21976 156.51466,125.96867C156.80794,126.89072 157.34596,127.5489 157.48933,128.38333C157.64528,129.29094 157.42989,130.27466 157.536,130.95799C157.68517,131.91864 157.95381,132.73817 158.584,133.498C159.18567,134.22345 159.3166,134.69258 159.52133,135.59799C159.74905,136.60512 160.84581,136.64653 161.33067,137.35133C161.84077,138.09282 162.21487,138.81296 162.89999,139.20866C163.71426,139.67897 164.67616,140.10458 165.15266,140.48866C165.86192,141.06036 166.61565,141.60712 167.60001,141.78349C168.50093,141.94492 168.86543,142.53212 169.52083,143.2625C170.0755,143.88062 171.03696,143.60962 171.97917,143.80417C172.84625,143.9832 173.48734,144.69537 174.25717,144.77884C175.14746,144.87537 176.01601,144.78333 176.97917,144.78333C177.89999,144.78333 178.8045,144.78333 179.66667,144.78333C180.5,144.78333 181.4785,144.78333 182.29866,144.78333C183.2,144.78333 184.136,144.78333 184.98399,144.78333C185.84734,144.78333 186.864,144.78333 187.7,144.78333C188.60017,144.78333 189.38846,144.85007 190.32533,144.77266C191.34186,144.68866 191.9496,144.22418 192.8,143.836C193.67529,143.43646 194.37645,143.03574 195.14816,142.836C196.15678,142.57494 196.67171,142.0775 197.52083,141.7625C198.33701,141.45972 198.87886,140.63457 199.66667,140.11667C200.25879,139.72742 201.33333,139.78333 202.1955,139.78333C203.10001,139.78333 204.02083,139.78333 204.82133,139.78333C205.67467,139.78333 206.61467,139.78333 207.60001,139.78333C208.5,139.78333 209.25717,139.78333 210.15266,139.78333C211.01601,139.78333 211.97917,139.78333 212.89999,139.78333C213.8045,139.78333 214.66667,139.78333 215.5,139.78333C216.4785,139.78333 217.29866,139.78333 218.2,139.78333C219.02083,139.78333 219.98399,139.78333 220.84734,139.78333C221.74283,139.78333 222.7,139.78333 223.60017,139.78333C224.38533,139.78333 225.32533,139.78333 226.01601,139.78333C227.08934,139.78333 227.93083,139.8205 228.83333,139.61667C229.76303,139.40669 230.48105,139.07739 231.35699,138.90483C232.28711,138.7216 233.31238,138.77873 233.4955,139.545C233.70261,140.41161 233.5,141.29933 233.5,142.2625C233.5,143.18333 233.37294,144.18398 234,144.95C234.47087,145.52522 235.26466,145.9516 235.73334,146.29933C236.69545,147.01318 237.38596,147.5056 237.97917,148.28333C238.53897,149.01723 238.86038,149.75473 239.82133,149.78333C240.67429,149.8087 241.61467,149.78333 242.5,149.78333C243.3,149.78333 244.136,149.78333 245.15266,149.78333C245.84734,149.78333 246.98877,149.63818 247.59984,150.22617C248.23082,150.83331 248.36995,151.90346 248.5,152.78333C248.62427,153.62404 249.33313,154.12666 249.75467,154.67C250.43507,155.54701 251.04466,155.73175 251.64799,156.29933C252.46902,157.07172 252.96092,157.82416 253.59734,158.394C254.31129,159.03328 255.06859,159.20279 255.64799,159.66867C256.44962,160.31322 256.52066,161.32655 256.92532,162.14734C257.35397,163.01677 257.53922,163.91634 258.2045,164.42616C258.91855,164.97337 259.82397,165.22278 260.5,165.78333C261.01804,166.21288 261.99487,166.61665 262.89999,166.79401C263.73129,166.95689 264.35968,167.627 265.15268,168.07883C265.82748,168.4633 266.75186,168.64101 267.70001,168.78467C268.61621,168.92349 269.22797,169.5414 270.15268,169.72617C270.83582,169.86266 271.92752,169.45418 272.7955,169.79233C273.5737,170.09549 273.32727,171.37566 274.14667,171.76199C274.9043,172.11922 275.84732,171.7825 276.86401,171.78333C277.70001,171.784 278.55209,172.09007 279.25717,172.43066C280.10373,172.8396 280.94379,172.85336 281.60535,173.48784C282.21774,174.07515 283.05099,174.60883 283.39017,175.4315C283.69733,176.1765 284.09238,176.97803 284.75467,177.58467C285.4519,178.22331 286.35599,178.19536 287.13568,178.88316C287.81476,179.48219 288.22726,180.14917 288.52533,180.93266C288.84012,181.76016 289.82132,181.78453 290.67465,181.78333C291.61334,181.782 292.40543,181.46008 292.48932,180.59799C292.57922,179.67429 292.94534,179.04477 293.44733,178.42616C294.01999,177.72046 294.16727,176.88246 294.48532,175.96867C294.78784,175.09947 295.60944,174.99846 296.39017,174.43066C297.05377,173.94806 297.4339,172.9989 298.2045,172.78783C298.992,172.57211 300.03616,172.97786 300.63867,173.394C301.47754,173.9734 301.5,174.95 301.52084,175.78333L301.7215,176.76167L302.11066,177.33667L302.97916,177.80417" id="svg_1" stroke-width="3" stroke="#000" fill="none"/>
  <path t="21316,21465,21473,21488,21488,21500,21505,21505,21517,21533,21533,21550,21553,21593,21593,21633,21633,21801,21801,21801,21816,21841,21842,21969,21969,21983,21985,21985,22001,22002,22002,22002,22010,22025,22025,22169,22169,22184,22184,22185,22193,22194,22202,22225,22225,22361,22361,22385,22394,22395,22395,22410,22411,22513,22534,22534,22537,22537,22551,22551,22553,22729,22729,22729,22737,22761" d="M298.5,184.78333C297.92532,183.18333 297.51801,182.3732 297.5,181.46201C297.48312,180.60884 297.5,179.66867 297.5,178.78333C297.5,177.98334 297.53955,177.0251 297.49551,176.13066C297.45288,175.2646 296.9122,174.4973 296.62149,173.68333C296.31601,172.82808 296.5,171.89799 296.5,170.95799C296.5,170.26733 296.5,169.45 296.5,170.106C296.5,171.01801 296.5,172.12199 296.5,172.95C296.5,173.80417 296.5,174.78333 296.5,175.54066C296.5,175.85001 296.48679,174.80472 296.5,174.08783C296.51801,173.11082 296.71799,172.23969 296.92532,171.53267C297.1438,170.78763 297.47141,169.59917 297.5,168.78333C297.52853,167.9695 297.21796,166.94771 297.57199,166.142C297.86499,165.4752 298.87082,165.86971 299.32935,166.89799C299.69656,167.72147 299.49631,168.58334 299.5,169.41933C299.50452,170.43604 299.41946,171.29895 300.20984,172.01717C300.75006,172.50806 302.01041,172.36198 302.33334,171.45C302.56061,170.8082 302.45694,170.0332 302.50015,168.92633C302.53275,168.09102 303.1936,167.1833 303.46399,167.702C303.82059,168.38608 303.5,169.466 303.5,170.2625C303.5,171.45 303.56445,172.24446 303.49551,173.09233C303.41144,174.12601 303.14734,174.77516 302.85266,175.60651L302.51068,175.56599L302.5,174.5405" id="svg_2" stroke-width="20" stroke="#fff" fill="none"/>
  <path t="25442,25817,25905,25905,26057,26057,26105,26105,26201,26297,26297" d="M283.5,179.78333C285.32535,179.78333 286.33334,179.78333 287.12534,179.78333C288.15717,179.78333 288.90451,179.78333 289.89868,179.78333C290.664,179.78333 291.61465,179.782 292.5,179.61667L293.14282,179.07883" id="svg_3" stroke-width="20" stroke="#fff" fill="none"/>
  <path t="28778,28977,29689,29689,29721,29721,29777,29777,30081,30201,30297,30298,30593,30593,30593,30625,30625,30657,30658,30705,30705,30841,30873,30873,30969,31057,31057,31449,31449,31609,31681,31681,31761,31825,31825,31905,31905,31945,31985,32105,32105,32145,32163,32169,32233,32233,32257,32257,32281,32361,32433,32457,32457,32521,32521,32585,32617,32665,32665,32889,32889,32969,33009,33009,33033,33057,33057,33113,33193,33225,33225,33249,33249,33337,33385,33385,33457,33457,33625,33665,33721,33721,33737,33747,33747,33777,33785,33897,33897,33953,33953,33964,34065,34105,34105,34201,34241,34241,34273,34273,34321,34345,34393,34425,34425,34449,34488,34729,34809,34873,34873,34921,35017,35017,35017,35033,35105,35115,35144,35145,35176,35225,35336,35417,35417,35417,35505,35505,35569,35840,35841,35913,36049,36049,36121,36153,36217,36217,36233,36234,36250,36305,36329,36329,36337,36337,36545,36649,36649,36667,36696,36697,36728,36762,36831,36832,36832,36923,36923,36923,36977,37056,37097,37232,37233,37328,37329,37480,37537,37537,37537,37688,37984,38064,38085,38085,38113,38144,38145,38240,38344,38345,38368,38369,38537,38608,38609,38688,38832,38833,38864,38865,38952,38953,39096,39240,39337,39337,39337,39448,39536,39537,39600,39712,39713,39744,39745,39969,40160,40161,40344,40345,40345,40345,40544,40600,40601,40976,41112,41113,41200,41233,41233,41288,41320,41360,41496,41512,41513,41608,41609,41672,41760,41761,41840,41841,41841,41912,41913,41960,41961,41974,42001,42064,42065,42074,42192,42193,42408,42409,42409,42592,42593,42593,42688,42689,42689,42720,42721,42721,42784,42808,42809,42944,43032,43033,43064,43065,43096,43152,43248,43288,43336,43337,43400,43448,43449,43496,43520,43521,43560,43561,43610,43654,43809,43849,43885,43885,43894,43910,43910,43961,44025,44073,44073,44122,44187,44201,44201,44258,44258,44297,44297,44369,44369,44609,44689,44689,44689,44769,44769,44826,44826,44827,44836,44867,44936,44967,45025,45025,45105,45153,45193,45265,45289,45289,45315,45425,45425,45489,45553,45553,45721,45849,45913,45913,46033,46089,46089,46137,46249,46353,46409,46409,46521,46521,46569,46616,46673,46673,46745,46848,46849,46992,47056,47057,47128,47240,47320,47321,47416,47417,47472,47488,47497,47520,47521,47544,47565,47565,47664,47712,47713,47744,47792,47816,47832,47833,47904,47905,47969,48025,48120,48121,48224,48256,48257,48347,48395,48667,48668,48668,49059,49060,49203,49203,49251,49252,49459,49460,49539,49571,49651,49723,49723,49724,49763,49763,49843,49844,49859,49931,49931,49987,50059,50091,50187,50267,50267,50285,50286,50339,50403,50507,50507,50519,50520,50571,50586,50619,50683,50683,50723,50723,50763,50764,50835,50883,50907,51043,51043,51075,51075,51076,51115,51323,51323,51435,51443,51444,51675,51676,51923,51923,52067,52067,52091,52091,52139,52667,53243,53243,53275,53619,53620,53811,54123,54195,54195,54196,54259,54307,54499,54635,54715,54715,54819,54819,54947,55083,55235,55323,55427,55427,55499,55627,55667,56387,56410,56411,56467,56787,56787,57027,57075,57075,57107,57139,57139,57203,57403,57531,57531,57547,57547,57643,57747,57747,57779,57779,57796,57812,57851,57907,57963,57963,57964,57987,58003,58014,58030,58030,58099,58099,58113,58130,58130,58156,58195,58219,58243,58243,58263,58283,58323,58346,58347,58396,58396,58396,58451,58451,58499,58499,58548,58605,58605,58724,58724,58948,58948,58979,59027,59067,59067,59081,59098,59147,59147,59164,59259,59259,59315,59379,59459,59467,59468,59539,59539,59579,59579,59667,59667,59723,59724,59724,59755,59771,59771,59811,59811,59859,59860,59915,59916,60035,60067,60123,60124,60171,60172,60235,60236,60267,60323,60324,60355,60387,60435,60436,60467,60468,60571,60627,60723,60724,60763,60764,60787,60819,60820,60859,60923,60939,60940,61003,61019,61083,61084,61155,61171,61172,61203,61251,61267,61380,61459,61515,61516,61547,61548,61611,61635,61691,61692,61715,61716,61716,61736,61795,61867,61868,61868,61885,61885,61931,61932,61985,61986,61986,62035,62036,62060,62147,62148,62256,62257,62451,62547,62548,62595,62596,62596,62643,62659,62660,62715,63131,63131,63132,63371,63563,63787,63804,64035,64035,64044,64044,64115,64155,64155,64179,64179,64219,64547,64547,64587,64587,64675,65083,65115,65115,65171,65179,65235,65315,65459,65459,65923,65971,65971,66099,66803,67203,67283,67283,67347,67347,68043,68171,68171,68419,68515,68515,68619,68619,68803,68803,68804,68883,68995,69036,69075,69075,69099,69099,69163,69163,69235,69251,69252,69403,69451,69452,69571,69571,69635,69731,69811,69811,70003,70227,70275,70299,70363,70363,70571,70571,70611,70611,70715,70923,70923,70955,71003,71203,71331,71371,71427,71427,71467,71523,71523,71579,71651,71747,71747,71870,71871,71901,71971,71971,72083,72083,72139,72139,72164,72181,72219,72219,72220,72259,72299,72299,72315,72316,72635,72648,72649,72649,72675,72747,72779,72779,72819,72819,72820,72833,72931,72995,72995,73027,73027,73067,73067,73123,73149,73149,73235,73235,73291,73347,73347,73355,73483,73483,73571,73603,73619,73635,73635,73659,73659,73684,73731,73811,73811,73875,73875,73963,73963,74019,74019,74267,74267,74387,74387,74699,74699,74700,74731,74731,74751,74752,74768,74769,74771,74772,74787,74787,74788,74788,74803,74819,74835,75075,75075,75076,75123,75299,75331,75403,75403,75539,75731,75771,75771,75803,75803,75851,75851,76019,76019,76075,76179,76179,76204,76204,76299,76331,76432,76699,76699,76795,76795,76827,76828,76891,77067,77459,77459,77507,77507,77522,77587,77955,78019,78107,78107,78275,78275,78291,78491,78691,78706,78899,79275,79427,79427,79667,79795,79795,79891,80259,80259,80755,81011,81011" d="M282.5,173.78333C283.31885,172.845 284.28201,173.0265 284.97916,173.30417C286.02682,173.72145 286.48398,174.41887 286.5,175.26733C286.5163,176.13051 286.33856,177.1636 286.50266,177.98334C286.67258,178.83214 287.58542,179.23038 288.33334,179.95C288.79095,180.39029 289.12289,181.35408 290.15268,181.66C290.81857,181.85782 291.75244,181.08017 292.1955,180.4315C292.71133,179.67627 293.22464,178.89519 293.91068,178.394C294.74533,177.78424 295.71301,178.13033 296.39017,177.42166C297.09155,176.68764 296.95859,175.74429 297.5,174.95C297.95081,174.28864 298.8028,173.80086 299.66666,173.78333C300.47925,173.76685 301.44269,174.13895 301.5,174.95C301.55872,175.78125 301.5,176.76183 301.5,177.582C301.5,178.48334 301.5,179.41933 301.5,180.26733C301.5,181.13066 301.50015,182.14734 301.5,182.98334C301.49982,183.88316 301.11096,184.47079 300.35068,184.84467C299.58899,185.21924 299.50452,186.13513 299.5,187.14734C299.49585,188.08331 299.5,188.98466 299.5,189.95C299.5,190.60867 299.5,191.61667 299.5,192.47884C299.5,193.38333 299.46664,194.30487 299.50034,195.10466C299.53638,195.96024 300.07932,196.88448 300.64932,197.37267C301.34351,197.96719 301.5,198.8835 301.5,199.66867C301.5,200.60867 301.49136,201.61671 301.5,202.37267C301.51044,203.28351 301.99283,204.02348 302.33334,204.95C302.565,205.58028 302.11472,206.7482 302.58533,207.49667C303.0509,208.23712 303.49496,208.78334 303.5,209.66867C303.50534,210.60872 303.54327,211.31854 304,212.2625C304.40622,213.10205 304.491,213.88354 304.5,214.66867C304.51068,215.59818 304.96341,216.48946 305.64932,216.798C306.45676,217.16121 306.38889,218.12769 306.784,218.98466C307.12274,219.71935 307.46078,220.43503 307.49866,221.29933C307.54083,222.26183 308.03528,222.98964 308.37851,223.8835C308.66324,224.62503 308.31979,225.65746 308.66666,226.61667C308.91452,227.30211 309.85257,227.54062 310.63867,227.80867C311.48083,228.09584 311.53891,229.15176 312,229.80417C312.47272,230.47302 312.49933,231.30066 312.5,232.2625C312.50064,233.18333 312.45364,234.11253 312.92532,234.76866C313.37054,235.388 313.3251,236.25661 313.94666,237.14734C314.4964,237.93517 315.39688,238.07883 315.93066,238.58333C316.69,239.30101 317.33643,239.92444 317.47916,240.80417C317.63254,241.74954 317.61023,242.4521 318.30133,242.86734C319.09579,243.34468 319.38495,244.25179 319.94284,245.10466C320.30145,245.65289 320.99039,246.32744 321.74283,247.02167C322.28021,247.51747 322.89218,248.08369 323.66666,248.61667C324.27521,249.03548 325.32562,248.75934 326.33334,248.78333C327.08997,248.80133 327.80954,249.40425 328.70132,249.698C329.62177,250.00117 330.32535,249.78333 331.33334,249.78333C332.1955,249.78333 333.10001,249.78204 334.02084,249.78333C334.98401,249.78467 335.79211,249.67825 336.61465,250.35133C337.1955,250.82661 337.68799,251.69762 338.60016,251.78333C339.3819,251.85678 340.3699,251.6151 341.33334,251.95C342.0119,252.18587 342.24283,253.29878 342.95734,253.758C343.71176,254.24287 344.52878,254.0901 345.24933,254.42999C346.203,254.87985 346.89645,255.56912 347.21201,256.29935C347.60287,257.20386 348.11902,257.67706 349.02084,257.80417C349.83798,257.91931 350.65768,258.409 351.61465,258.69934C352.28867,258.90384 353.14767,259.43954 354.04251,259.66217C354.7272,259.83252 355.82635,259.78036 356.33301,260.48868C356.92502,261.31631 357.41626,261.93765 357.5,262.78333C357.57883,263.57944 357.45639,264.54178 357.50449,265.43149C357.54694,266.21701 358.23874,266.85629 358.8045,267.48868C359.42477,268.18198 360.24835,268.43723 360.93066,268.866C361.67606,269.33441 361.375,270.45813 361.58533,271.29935C361.80551,272.18002 362.70547,272.68692 363.47067,272.86734C364.26981,273.05576 365.30887,273.24228 366,273.78333C366.66296,274.30231 367.30133,274.78275 368.172,274.78333C369.04266,274.78391 370.00912,274.82999 370.73199,274.698C371.70633,274.52008 372.49216,273.90604 373.29999,273.78467C374.20856,273.64813 374.83246,272.94632 375.52084,272.78333C376.47729,272.55685 377.2435,272.22559 378,271.76251C378.76096,271.29669 379.11978,270.51447 379.83334,269.78333C380.4581,269.14316 381.03018,268.86218 381.64667,268.26868C382.46652,267.4794 382.5,266.46201 382.5,265.60867C382.5,264.66867 382.5,263.78333 382.5,262.98334C382.5,262.14734 382.5,261.13068 382.5,260.436C382.5,259.41934 382.59021,258.41907 382.07468,257.80865C381.56229,257.20197 380.73453,256.98016 379.98267,256.61401C379.17252,256.21945 378.81,255.25844 378.52533,254.41933C378.23801,253.57239 377.76245,252.9855 377.29868,252.01534C376.95419,251.29474 376.71112,250.4688 376.01599,249.754C375.40076,249.12135 374.41537,248.7841 373.94666,248.18333C373.34006,247.40585 372.8653,246.87901 372.30133,246.214C371.71936,245.52779 371.62888,244.53264 371.49951,243.683C371.38898,242.95717 370.65332,242.00926 370.21335,241.53267C369.74695,241.02747 368.8439,240.1058 368.30533,239.59317C367.70618,239.02286 366.95111,238.47032 366.24933,237.94733C365.49857,237.38782 364.78159,236.82439 364.31885,236.18784C363.80508,235.48111 363.69589,234.33406 363.21466,233.58467C362.82034,232.97064 361.81729,232.875 360.85184,232.42166C360.16714,232.10016 359.82434,231.2419 359.45184,230.49316C359.0433,229.67195 358.11844,229.32664 357.30133,228.86734C356.5975,228.47171 356.00253,228.078 355.20532,227.73067C354.43414,227.39467 354.3045,226.24783 353.88934,225.64467C353.31305,224.80737 352.28494,224.85822 351.61465,224.698C350.64246,224.46561 349.84488,224.36212 348.94666,223.758C348.28479,223.31285 347.6882,222.88423 346.86401,222.74733C345.9924,222.60255 345.09174,222.27602 344.26166,221.8315C343.55042,221.45062 343.60922,220.34337 342.97916,219.80417C342.31958,219.23973 341.32193,218.99826 340.52084,218.78333C339.6539,218.55072 339.0643,217.98793 338.29999,217.49667C337.71982,217.12378 337.24689,216.09431 336.74283,215.436C336.22818,214.76387 335.46835,214.35165 334.66666,213.78333C334.0137,213.32043 333.52859,212.47552 333.5,211.45C333.48126,210.77826 333.5,210.034 333.5,208.92599C333.5,208.13266 333.5,207.01534 333.5,206.28333C333.5,205.55133 333.50745,204.45264 333,203.78333C332.52722,203.15976 332.52472,202.26215 332.49866,201.30066C332.48087,200.644 331.7738,199.92699 331.51068,199.17267C331.21774,198.33289 331.5,197.37267 331.5,196.46201C331.5,195.60867 331.5,194.66867 331.5,193.78333C331.5,192.98334 331.5,192.02617 331.5,191.13066C331.5,190.26733 331.28369,189.29953 331.85718,188.48784C332.34082,187.80331 333.29999,187.784 334.13599,187.78333C335.15268,187.7825 335.84732,187.78333 336.86401,187.78333C337.79999,187.78333 338.70132,187.78333 339.66666,187.78333C340.32535,187.78333 341.33334,187.78333 342.1955,187.78333C343.10001,187.78333 344.02084,187.78333 344.98401,187.78333C345.67465,187.78333 346.79727,187.93266 347.60001,187.562C348.26807,187.25351 349.02066,186.79375 349.98401,186.78333C350.84726,186.77399 351.74283,186.78333 352.70001,186.78333C353.60016,186.78333 354.38535,186.78333 355.32535,186.78333C356.01599,186.78333 357.08932,186.78333 358,186.78333C358.91068,186.78333 359.82132,186.78333 360.5,186.78333C361.61465,186.78333 362.5,186.78333 363.29999,186.78333C364.13599,186.78333 365.15268,186.78333 365.84732,186.78333C366.86401,186.78333 367.79999,186.78333 368.70132,186.78333C369.66666,186.78333 370.32535,186.78333 371.33334,186.78333C372.1955,186.78333 373.10001,186.78333 374.02084,186.78333C374.82132,186.78333 375.70676,187.02408 376.61334,186.78067C377.46594,186.55176 377.20712,185.31274 378.02084,184.825C378.78537,184.36671 379.83963,184.59865 380.52084,184.24167C381.11896,183.92824 382.08041,183.11713 382.664,182.64467C383.45892,182.00113 384.25574,181.85098 385.15268,181.77434C385.85272,181.71452 386.81186,181.11383 387.13834,180.4315C387.54355,179.58464 388.10727,178.94302 388.5,178.22083C388.98007,177.33807 388.93829,176.53641 389.14734,175.78867C389.43527,174.75885 389.634,173.94351 390.35068,173.38333C390.90665,172.94878 391.45261,172.14624 391.50134,171.30066C391.55609,170.35052 392.12973,169.72469 392.58401,168.98199C393.00479,168.29408 393.82819,167.91399 394.66666,167.61667C395.51007,167.3176 396.17542,166.61998 396.47916,165.80417C396.79446,164.95734 397.65564,164.96988 398.5,164.61667C399.21555,164.31734 400.01801,163.63623 400.63867,163.18333C401.37781,162.64398 401.89862,162.04823 402.69867,161.78067C403.46689,161.52376 403.29932,160.50185 403.78665,159.67C404.21558,158.93785 405.34708,158.90298 406.01599,158.69933C407.00964,158.3968 407.33423,157.39175 407.936,156.798C408.51013,156.23154 409.08768,155.50264 409.83334,155.11667C410.67398,154.68155 411.63754,155.05199 412.40268,154.34734C413.03122,153.76848 413.41324,153.07416 413.97916,152.2625C414.49088,151.52856 414.40433,150.51315 414.94284,149.80484C415.40564,149.19611 416.50235,148.71114 417.08932,148.18333C417.72592,147.61092 418.2681,146.91116 418.47467,145.95799C418.6228,145.2746 419.16235,144.37573 419.41467,143.58333C419.68903,142.72176 419.5,141.89799 419.5,140.95799C419.5,139.95 419.5,139.194 419.5,138.28333C419.5,137.362 419.52481,136.44937 419.48932,135.54333C419.46194,134.84482 419.1022,133.85291 418.5,133.28333C417.91479,132.7298 417.1387,132.24115 416.17883,131.9045C415.54364,131.6817 414.78934,131.16795 414.45184,130.48866C414.05496,129.68985 413.45602,128.92906 412.69867,128.78467C411.75974,128.60565 410.83377,128.87245 410.15268,128.72617C409.09549,128.49911 408.39569,127.9332 407.5,127.78333C406.6618,127.64308 406.06299,126.85386 405.31467,126.794C404.38824,126.71989 403.49963,126.75948 402.70001,126.78333C401.74155,126.81193 400.85828,127.16328 400.15268,127.43066C399.26953,127.76533 398.26135,127.88636 397.78534,128.58467C397.27457,129.33398 396.69241,129.828 396.01733,130.35266C395.30679,130.90488 394.94113,131.88692 394.41733,132.49667C393.80203,133.21292 393.5,133.8835 393.5,134.66867C393.5,135.60867 393.72821,136.33174 393.46399,137.37267C393.24393,138.23959 392.14447,138.48842 391.58267,139.06999C390.9064,139.77008 390.754,140.40344 390.20532,141.13066C389.55988,141.98616 389.00104,142.58736 388.52533,143.21933C388.02859,143.87926 387.65634,144.64301 387.2045,145.436C386.82001,146.11081 386.65048,147.3253 385.93201,147.69933C385.15128,148.10577 384.43646,148.40515 383.69867,148.86734C383.00558,149.30153 382.69623,150.29494 382.47467,150.922C382.15311,151.83214 381.48502,152.46873 380.63867,152.758C379.70111,153.07843 379.02051,153.3344 378.1785,153.8835C377.4949,154.3293 376.87326,154.63625 376.10132,155.26733C375.50003,155.75891 374.70541,156.65941 374.13599,157.13667C373.44296,157.71753 372.5007,157.95102 371.86401,158.394C371.01694,158.98335 370.35583,159.4406 369.52151,159.66183C368.72028,159.8743 367.79999,159.78333 366.86401,159.78333C366.01599,159.78333 365.15268,159.78333 364.13599,159.78333C363.29999,159.78333 362.39984,159.78333 361.61465,159.78333C360.67465,159.78333 359.66647,159.80118 358.8045,159.78333C357.93546,159.76532 357.34811,159.26068 356.66666,158.61667C356.061,158.04428 355.23044,157.96309 354.38666,157.49667C353.76703,157.15416 353.66055,156.10651 353.41599,155.26733C353.15402,154.36841 352.54239,153.87971 351.73199,153.30066C351.01233,152.78644 350.3172,152.23344 349.47067,151.95399C348.53479,151.64505 347.66559,151.64165 347.08932,150.922C346.58322,150.28995 346.02234,149.6593 345.32535,149.194C344.39368,148.57202 343.8493,147.98645 342.89999,147.79401C341.99698,147.61095 341.18402,147.5488 340.32535,147.20866C339.52631,146.89215 338.65924,146.64894 338.10001,145.93266C337.66574,145.37645 336.85092,144.80688 336.01599,144.49933C335.31287,144.24033 334.38812,143.82603 333.39999,143.78333C332.50085,143.74446 331.72989,143.76282 330.84732,143.43066C330.14111,143.16489 328.96469,142.98149 328.52533,142.33667C328.01367,141.58575 328.07248,140.43062 327.29868,139.95399C326.69897,139.58459 325.6741,139.81668 324.66666,139.78333C323.80307,139.75473 323.19046,139.16241 322.29868,138.86867C321.37823,138.56548 320.405,139.00243 319.66934,138.49933C318.97028,138.02127 318.36441,137.39162 317.70001,137.06734C316.80389,136.62996 315.74356,137.04147 315.06934,136.61267C314.35312,136.15717 314.27768,135.02924 313.40018,134.78317C312.62061,134.56458 312.13962,133.81192 311.17868,133.78333C310.50031,133.76314 309.48254,133.96196 308.70132,133.698C307.8118,133.39745 307.06415,132.88762 306.17868,132.56166C305.47455,132.30244 304.6431,131.63527 304.13599,130.96867C303.67953,130.36864 302.90863,129.75092 302.07867,129.358C301.17563,128.9305 300.49564,128.82091 299.75067,128.79401C298.64383,128.75403 298.02313,128.48889 297.33334,127.95C296.6687,127.43074 295.71756,127.53481 295,127.24167C294.25089,126.93564 293.35602,126.10004 292.80899,125.49316C292.23657,124.85809 291.17441,124.84132 290.5,124.7625C289.5079,124.64654 288.75528,124.12463 288.2045,123.48333C287.55927,122.73206 287.38303,121.97554 286.64801,121.29933C286.03839,120.73849 285.22321,120.37004 284.66699,119.5405C284.14288,118.75885 283.75772,118.11844 283.10001,117.37267C282.46161,116.6488 282.04471,115.98537 281.78534,115.26733C281.45468,114.35189 282.23175,113.93262 282.88934,113.34734C283.58276,112.73017 283.5,111.61667 283.5,110.958C283.5,109.95 283.23227,109.28384 282.66666,108.61667C282.08624,107.93207 281.8967,107.08884 281.01599,106.86867C280.1748,106.65837 279.01123,106.92847 278.40018,106.3405C277.7692,105.73335 277.56219,104.81135 277.50134,103.98466C277.43518,103.08577 277.4733,102.14687 277.50134,101.29933C277.52994,100.43467 277.91211,99.57426 278.37866,98.6835C278.77347,97.92975 279.24704,97.25163 280.06934,96.86867C280.78247,96.53655 281.79688,96.63489 282.60001,97.00467C283.37857,97.36314 284.28104,97.78482 284.49866,98.58466C284.71863,99.39316 285.07376,100.26255 285.5,100.78333C286.1759,101.60918 285.56116,103.322 286.5,103.31133C287.12811,103.3042 286.5,101.898 286.5,100.958C286.5,99.95 286.53964,99.15696 286.49734,98.298C286.46152,97.57024 286.10309,96.54753 285.63867,96.00467C285.03802,95.30256 284.13806,94.81936 283.20001,94.78333C282.29935,94.74874 281.31885,94.90196 280.5,94.74167C279.63354,94.57205 279.2887,93.78621 278.5,93.11667C277.89224,92.60073 277.02832,92.15414 276.17868,91.90483C275.353,91.66254 274.25439,92.01926 273.5,91.45C272.97632,91.05485 272.59357,89.96146 272.51068,89.194C272.41287,88.28854 272.5,87.37267 272.5,86.462C272.5,85.60867 272.11758,84.39487 272.78534,83.86867C273.42859,83.36178 274.2601,83.37157 274.94284,82.6835C275.42981,82.19273 276.47253,81.85238 277.25266,81.78783C278.1452,81.71398 278.98416,81.65031 279.44934,80.93266C280.01068,80.0667 280.68515,79.79408 281.61465,79.78333C282.59976,79.77194 283.56171,79.56802 283.49985,78.6835C283.44336,77.87595 282.39984,77.78333 281.61465,77.78333C280.67465,77.78333 279.66666,77.78333 278.91068,77.78333C278,77.78333 277.06924,77.72089 276.17868,78.00467C275.47964,78.22742 274.47617,78.52896 273.70132,78.86733C272.93387,79.20248 272.45892,80.14624 271.97916,80.7625C271.39972,81.5068 270.50079,81.7625 269.66666,81.78333C268.80478,81.80486 267.89999,81.78333 266.95834,81.78333C265.95734,81.78333 265.24933,81.78333 264.50534,81.78333C263.47067,81.78333 262.5,81.78714 261.74283,81.78333C260.84729,81.77883 259.71518,81.84917 259.27518,81.078C258.79575,80.23771 259.85474,80.00143 260.64932,79.70067C261.5889,79.34503 261.87524,78.24865 262.66666,77.95C263.47739,77.64406 264.50125,77.81847 265.28934,77.77267C266.01727,77.73036 266.90378,77.09871 267.79999,76.8405C268.668,76.59042 269.42093,76.66003 270.15268,76.0735C270.70364,75.6319 271.47882,74.80517 272.08932,74.194C272.69901,73.58366 273.15079,72.68987 273.58401,72.06866C274.13986,71.27163 274.48956,70.76265 274.5,69.66866C274.50842,68.78337 274.50186,67.98333 274.5,67.14733C274.49774,66.13515 274.57321,65.0965 273.7955,64.79234C272.96146,64.46615 271.97775,64.73405 271.01733,64.786C270.35864,64.82163 269.79376,65.56464 269.41733,66.21533C268.97897,66.97307 268.01236,67.31718 267.29868,67.98333C266.75211,68.49347 265.98288,68.93602 265.32535,69.41933C264.47421,70.04496 264.06192,70.81046 263.5,71.61667C263.03296,72.28673 262.43881,72.92902 261.74283,73.48333C261.05154,74.03388 260.24396,74.38321 259.66666,75.11667C259.18231,75.73201 259.21021,76.74945 258.29733,77.52734C257.79651,77.95409 256.73016,77.81773 256,77.7625C254.82759,77.67382 254.05362,77.19986 253.1785,76.90434C252.49825,76.67461 251.47047,76.31326 250.9045,75.72533C250.49858,75.30367 250.1683,74.34879 249.136,73.89133C248.27458,73.50961 247.27673,73.87971 246.33333,73.61667C245.6517,73.42661 245.00882,72.93816 243.91066,72.794C243.00769,72.67545 242.08913,72.76347 241.17883,72.7835C240.36075,72.8015 239.65118,73.3169 238.97917,73.78333C238.27348,74.27314 237.69812,74.66877 237.1955,75.436C236.74113,76.12956 236.02444,76.91053 235.32533,77.37267C234.53101,77.89774 233.70461,78.43459 233.52083,79.30417C233.32161,80.24677 233.6674,81.03743 233.21466,81.89667C232.84576,82.59678 231.61101,82.82099 231.50133,83.58466C231.37094,84.49254 232.56699,84.57771 233.2,84.89767C233.9545,85.27903 234.32549,86.33434 235.14816,86.6735C235.89316,86.98064 236.91776,87.33768 237.37849,88.00483C237.88255,88.7347 237.52747,89.72083 237.05333,90.598C236.69337,91.26395 235.70663,91.35741 234.83333,91.95C234.14375,92.41792 233.67033,93.10647 233.27867,93.8835C232.92622,94.58272 232.53879,95.43484 232.5045,96.13067C232.44981,97.24061 231.54494,97.71761 231.56166,98.48783C231.58122,99.38815 232.84389,99.50223 233.69867,99.786C234.4673,100.04118 234.25673,101.00175 234.50267,101.89667C234.73659,102.74785 235.69431,102.64951 236.74283,102.78783C237.61929,102.90346 238.14284,103.48783 238.47917,104.30417L238.50133,105.266L238.55716,106.0735" id="svg_4" stroke-width="3" stroke="#000" fill="none"/>
  <path t="83151,83652,83678,83732,83732,83768,83768,83964,83964,83980,83983,83997,83997,84204,84204,84204,84220,84220,84236,84260,84284,84284,84300,84300,84315,84315,84379,84379,84475,84475,84475,84731,84746,84746,84750,84765,84765,84781,84781,84908,84916,84917,84931,84932,84946,84946,84946,84947,84964,84964,84987,84987,84987,85011,85011,85091,85112,85115,85115,85115,85129,85130,85132,85132,85149,85149,85149,85149,85149,85164,85164,85164,85164,85164,85165,85171,85171,85171,85172,85315,85315,85332,85348,85349,85349,85356,85357,85357,85357,85369,85369,85369,85372,85372,85372,85381,85382,85382,85382,85397,85397,85397,85397,85547" d="M229.5,108.78333C231.95833,108.2625 232.38219,107.45959 232.66667,106.61667C232.95622,105.75874 233.38814,104.83646 234.02083,104.325C234.72356,103.75692 235.56683,103.78807 235.29333,103.78333C234.26181,103.76546 233.60487,104.19597 233.16,104.75533C232.46104,105.63416 231.80057,106.00176 231.27333,106.49667C230.46904,107.25165 230.88199,107.9277 231.864,107.77267C232.73279,107.63551 233.48778,106.87518 234.25717,106.78783C235.14705,106.68682 236.11067,106.72108 236.74283,106.0735C237.29155,105.51139 237.65898,104.62227 238.31433,104.03066C238.99977,103.4119 240.34143,103.27086 240.39067,102.35267C240.42708,101.67376 239.05077,102.00925 238.41867,102.49934C237.74628,103.02067 237.1817,103.72367 236.61467,104.21533C235.93768,104.80233 234.94635,104.90339 234.26167,105.47967C233.5811,106.0525 233.46107,105.3801 233.92534,104.41933C234.30145,103.64101 234.9959,102.92526 235.776,102.80866C236.43918,102.70954 237.35278,102.31682 237.72183,101.462C238.02281,100.76482 238.80632,99.90135 239.50534,99.545C240.22513,99.17806 241.18643,99.02555 241.95833,98.78333C242.82112,98.51259 243.00713,97.80134 241.95717,97.78333C241.23877,97.77101 240.44809,97.77136 239.42166,97.7835C238.54149,97.79391 237.67407,97.96565 236.9375,98.30417C235.84381,98.80681 235.15952,98.98425 234.36667,99.20467C233.93724,99.32405 233.01776,99.54423 231.66667,100.11667C231.21379,100.30855 230.3532,100.77981 229.54167,101.30417C229.1424,101.56216 228.38835,102.10302 227.32184,102.86183C226.66719,103.32761 226.02454,103.7169 225.272,104.382C224.42639,105.12936 223.80873,106.16656 223.58333,105.74167C223.15129,104.92725 224.81543,104.86842 225.61349,104.678C226.81339,104.39172 227.40407,104.08125 228,103.7625C228.90636,103.2777 229.80063,102.80679 230.67867,102.40867C231.22859,102.15932 232.16867,101.6188 232.86,100.96867C233.36397,100.49472 234.25902,99.9968 235.20799,99.834C235.92854,99.71038 236.71968,99.67636 237.89934,99.3405C238.69469,99.11405 239.41667,98.7625 240.07133,98.4315L241.01401,97.80517" id="svg_5" stroke-width="20" stroke="#fff" fill="none"/>
  <path t="94124,94891,94995,95235,95235,95339,95507,95587,95691,95691,96018,96019,96042,96042,96074,96074,96083,96586,96714,97210,97211,97322,97323,97342,97402,97403,97770,97770,97826,97834,97835,97890,98258,98386,98386,98554,98602,98603,98666,98667,98730,98754,98898,98962,98962,99002,99066,99067,99082,99098,99098,99138,99202,99330,99330,99402,99402,99538,99674,99730,99802,99858,99858,99955,99955,100059,100059,100099,100112,100112,100539,100619,100619,100755,100819,100819,100843,100883,100955,100986,100987,101027,101027,101099,101147,101299,101299,101299,101347,101395,101395,101530,101531,101555,101587,101643,101755,101755,101811,101811,101899,101939,101979,101979,102059,102091,102139,102139,102211,102211,102235,102251,102332,102380,102380,102401,102401,103948,104060,104196,104196,105212,105212,105244,105244,105255,105380,106332,106332,106468,106468,106692,106692,106732,106827,106828,107124,107228,107540,107540,107596,107667,107675,107675,108242,108242,108291,108291,108434,108763,108834,108835,109219,109299,109388,109388,109876,109876,110027,110611,110660,110660,110739,110739,110867,110903,110912" d="M153.5,121.78333C152.416,123.498 151.61333,123.78266 150.67467,123.78333C149.98399,123.78382 148.73749,123.84573 148.5045,123.07883C148.2672,122.29774 148.39299,121.28542 148.55716,120.436C148.73691,119.50594 149.31694,118.92005 149.464,117.94733C149.57854,117.18983 149.77409,116.11568 149.41467,115.354C149.04109,114.56232 147.68939,114.21874 147.972,113.38333C148.27336,112.49252 149.09326,112.08923 149.98399,111.86867C150.8257,111.66025 151.87045,111.96563 152.60001,111.34067C153.121,110.89436 153.68623,109.8716 154.38533,109.786C155.31837,109.67175 156.487,109.41098 157.13834,109.89767C157.78682,110.38221 157.69679,111.66072 158.60017,111.78333C159.37819,111.88893 160.5013,112.06688 161.16667,111.45C161.72047,110.93655 161.56909,109.65993 162.2045,109.145C162.93681,108.55153 163.38461,107.94927 163.94667,107.394C164.65959,106.68968 165.49985,106.79375 166.61467,106.78333C167.49995,106.77506 168.3,106.78333 169.136,106.78333C170.15266,106.78333 170.86079,106.62876 171.864,106.794C172.73186,106.93694 173.48755,107.69341 174.25717,107.77883C175.14278,107.87713 176.00792,107.80022 176.54817,108.48783C177.10881,109.20141 177.79865,109.75474 178.70134,109.78333C179.66618,109.8139 180.58281,109.65167 181.33333,110.11667C181.96332,110.50699 182.50081,111.44852 183.2,111.8315C184.02177,112.28161 184.81628,112.71227 185.67467,112.77267C186.61241,112.83865 187.5,112.78333 188.3,112.78333C189.25717,112.78333 190.15266,112.78333 191.01601,112.78333C191.864,112.78333 192.8,112.78333 193.70134,112.78333C194.66667,112.78333 195.5,112.78333 196.33333,112.78333C197.1955,112.78333 198.10001,112.78333 199.04167,112.78333C200.04266,112.78333 200.75067,112.78333 201.49466,112.78333C202.52933,112.78333 203.5,112.78333 204.25717,112.78333C205.15266,112.78333 206.01601,112.78333 206.97917,112.78333C207.89999,112.78333 208.82434,112.86182 209.66667,112.61667C210.52844,112.36586 211.3222,111.87144 212.1955,111.78783C213.0959,111.70163 214.02083,111.78333 214.82133,111.78333C215.67467,111.78333 216.61467,111.78333 217.60001,111.78333C218.5,111.78333 219.25717,111.78333 220.15266,111.78333C221.01601,111.78333 221.97917,111.78333 222.89999,111.78333C223.8045,111.78333 224.66667,111.78333 225.5,111.78333C226.4785,111.78333 227.29866,111.78333 228.2,111.78333C229.02083,111.78333 229.98534,111.78345 230.71066,111.78333C231.69966,111.78316 232.85898,111.9337 233.32933,111.214C233.76645,110.54514 233.47433,109.44074 233,108.7625C232.52853,108.08834 232.31635,107.19098 231.4375,106.89767C230.77002,106.6749 229.43692,107.19511 228.78799,106.61266C228.1248,106.01741 228.47839,104.8045 228.5,104.08783C228.52859,103.13921 229.26166,102.78558 230.15266,102.78333C231.01601,102.78115 232.02005,102.84965 232.8,102.43066C233.54805,102.02883 234.30386,101.74003 234.98267,101.214C235.69397,100.66278 236.37468,99.83047 236.49733,98.98466C236.62668,98.09266 236.5,97.2625 236.5,96.29933C236.5,95.436 236.38623,94.53355 236.50133,93.58334C236.61276,92.6634 237.25809,92.05539 237.44284,91.13067C237.57933,90.4475 237.62144,89.41084 237.4955,88.48333C237.38399,87.66208 236.7478,87.11185 235.85184,86.8315C235.07674,86.58896 234.52083,85.78333 234.216,84.95267L233.55716,84.42616" id="svg_6" stroke-width="3" stroke="#000" fill="none"/>
  <path t="114758,115547,115747,115875,115875,115923,115923,116339,116386,116434,116739,116739,116827,117026,117027,117170,117194,117194,117378,117378,117498,117498,117498,117794,117819,117819,117882,118259,118259,118259,118346,118770,118866,118866,118886,118886,119002,119186,119595,119752,119752,120337,120337,120358,120358,120665,120745,120793,120793,121177,121209,121209,121273,121345,121345,121345,121385,121386,121465,121993,122105,122105,122105,122265,122265,122314,122402,122490,122490,122538,122658,122658,122770,122874,123259,123259,124106,124178,124178,124226,124250,124250,124290" d="M237.5,89.78333C236.7215,88.90483 237.60001,88.78333 238.5,88.78333C239.25717,88.78333 240.15266,88.78333 241.01601,88.78333C241.97917,88.78333 242.89999,88.78333 243.8045,88.78333C244.66667,88.78333 245.50713,88.66568 246.47833,88.7835C247.39861,88.89514 247.49933,89.67 247.5,90.60867C247.50072,91.61667 247.52312,92.41883 248.20534,93.09233C248.7578,93.63773 249.39546,94.54438 249.4375,95.28333C249.47911,96.0146 248.91908,96.87147 248.62167,97.88333C248.42403,98.55576 249.03229,99.31342 249.82133,100.1045C250.31947,100.60391 250.92723,101.41315 251.864,101.71133C252.66356,101.96584 253.64993,101.93619 254.38533,101.61266C255.24039,101.2365 255.71925,100.65296 256.33066,99.67C256.78455,98.94028 257.5415,97.86079 258.33334,98.28333C258.99365,98.63568 258.50006,99.98317 258.5,100.7625C258.49991,101.76183 258.58942,102.73772 257.88934,103.34734C257.21481,103.93472 256.17868,103.78273 255.32533,103.78333C254.38533,103.784 253.52492,103.98929 252.89999,104.358C252.11732,104.81978 251.16444,105.2096 250.67467,105.64467C249.96251,106.27728 249.15857,106.9525 248.78667,107.582C248.2968,108.4112 248.03197,109.17113 247.5,109.95C247.06223,110.59096 246.69336,111.39332 245.84734,112.02167C245.20381,112.49963 244.13658,112.76533 243.3,112.78333C242.40004,112.8027 241.61467,112.78333 240.67467,112.78333C239.66667,112.78333 238.91066,112.78333 238,112.78333C237.08934,112.78333 236.17867,112.78333 235.32533,112.78333C234.38533,112.78333 233.5,112.78333 232.7,112.78333C231.74283,112.78333 230.84734,112.78333 230.15266,112.78333L229.136,112.78333" id="svg_7" stroke-width="3" stroke="#000" fill="none"/>
  <path t="130050,131297,131873,132169,132177,132177" d="M241.5,94.78333C239.54167,95.80417 239.5,96.7615 239.5,97.30067L239.5,96.462L239.5,95.60867" id="svg_8" stroke-width="3" stroke="#000" fill="none"/>
  <path t="141673,142000,142009,142041,142801,142801,142953,143217,143289,143361,143361,143401,143401,143473,143993,144136,144179,144241,144241,144253,144321,144321,144673,144857,144857,145057,145153,145497,145497,145537,145601,145793,145793,145985,145985,145993,146089,146129,146537,146689,146689,146753,146897,146961,146961,147161,147161,147257,147297,147321,147321,147465,147529,147601,147721,147841,147841,147897,148017,148017,148113,148145,148145,148201,148257,148257,148393,148425,148425,148465,148497,148553,148553,148577,148577,148609,148705,148729,148729,148809,148809,148809,148873,148873,148993,148993,148993,149113,149113,150009,150857,150857,151001,151001,151153,151153,151185,151185,151249,151249,151305,151305,151354,151426,151426,151466,151594,152554,152634,152738,152738,152858,153042,153042,153154" d="M151.5,116.78333C153.2,117.77883 154.09016,117.88197 154.60983,118.48783C155.15814,119.12709 155.99237,119.61652 156.97917,119.7625C157.79143,119.88266 158.70134,119.78333 159.66667,119.78333C160.5,119.78333 161.60442,120.11836 162.21333,119.698C162.87683,119.23994 163.06857,117.59166 163.97917,117.84583C164.74007,118.05822 164.3813,119.56583 163.69867,119.78066C162.83421,120.05271 162.13625,120.46125 161.78534,121.30067C161.44643,122.1114 160.79329,122.36865 160.06799,122.86733C159.45401,123.28947 160.52141,123.82238 161.4785,123.78316C162.30238,123.74941 162.94908,123.17597 163.8045,122.836C164.63124,122.50743 165.47156,122.20081 166.33333,121.95C167.17566,121.70485 168.16649,121.46814 168.97917,121.80417C169.72173,122.11121 170.36082,122.76533 171.33333,122.78333C172.08922,122.79733 173.02084,122.75755 173.8045,123.136C174.69337,123.56527 175.4998,123.77291 176.33333,123.78333C177.19543,123.79411 178.10001,123.78397 179.02083,123.78333C179.98267,123.78266 180.8103,123.75604 181.47917,123.28333C182.13159,122.82225 183,122.78333 183.91066,122.78333C184.82133,122.78333 185.67467,122.78333 186.61467,122.78333C187.5,122.78333 188.3,122.78091 189.25717,122.78333C190.14818,122.78558 190.80208,123.03725 191.58267,123.49934C192.40903,123.98851 193.3,123.78333 194.136,123.78333C195.15266,123.78333 195.84734,123.78089 196.864,123.78333C197.80002,123.78558 198.55109,124.0922 199.25717,124.43066C200.10751,124.83827 201.01601,124.78266 201.97917,124.78333C202.89999,124.78397 203.83099,124.72003 204.47067,124.954C205.30843,125.26041 205.9969,125.8307 206.81734,126.21533C207.79094,126.67178 208.50777,126.71928 209.66667,126.95C210.45453,127.10684 211.228,127.39986 212.16667,127.61667C212.951,127.79783 213.91066,127.78333 214.82133,127.78333C215.5,127.78333 216.616,127.78333 217.384,127.78333C218.336,127.78333 219.10202,127.81605 220.0955,127.77883C220.84416,127.75079 221.80937,127.48418 222.29866,126.89667C223.00632,126.04696 223.18184,125.10264 224.136,124.80466C224.94569,124.5518 225.87776,125.00973 226.73833,124.77883C227.55746,124.55905 228.02065,123.79375 228.91066,123.78333C229.82127,123.77267 230.67467,123.78333 231.61467,123.78333L232.5,123.78333L233.3,123.78333L234.25717,123.78333" id="svg_9" stroke-width="3" stroke="#000" fill="none"/>
  <path t="155551,155925,155943,155965,155965,156030,156030,156054,156054,156077,156102,156102,156126,156143,156143,156246,156318,156622,156710,156710" d="M224.5,122.78333C223.52083,120.84583 223.4938,120.86669 223.5,121.78333C223.50534,122.57272 223.51453,123.7383 224.04167,124.24167C224.68222,124.85332 225.67462,124.77808 226.61467,124.78333C227.59999,124.78884 228.31583,124.72237 229.136,124.17267C229.83543,123.70389 230.43648,123.08106 231.47833,122.905C232.32254,122.76234 232.78534,123.69666 233.60017,123.5615L234.136,123.10067" id="svg_10" stroke-width="20" stroke="#fff" fill="none"/>
  <path t="158062,158165,158181,158181,158194,158194,158197,158197,158213,158229,158389,158421,158444,158446,158460,158460,158477,158477,158518,158546,158566,158566,158590,158598,158613,158614,158617,158632,158854,158854,158902" d="M222.5,126.78333C223.47917,125.7625 223.5,124.80466 223.5,124.03066C223.5,123.12617 223.5,122.182 223.5,121.18784C223.5,120.4405 223.5,119.41933 223.5,118.58334C223.5,117.68366 223.5,117.40466 223.5,118.28333C223.5,119.194 223.42165,120.1116 223.536,120.958C223.64644,121.7755 223.88745,122.66064 224.56134,123.34734C225.18781,123.98571 226.33333,123.78333 227.08934,123.78333C228,123.78333 228.91066,123.78333 229.82133,123.78333C230.67467,123.78333 231.61333,123.782 232.416,123.498L232.7215,122.68366L233.30133,122.154L234.14284,122.378" id="svg_11" stroke-width="20" stroke="#fff" fill="none"/>
  <path t="163877,164164,164196,164197,164348,164421,164452,164452,164532,164564,164604,164604,164708,164708,164748,164812,164949,165014,165014,165054,165054,165158,165245,165310,165310,165406,165438,165478,165478,165526,165526,165566,165638" d="M208.5,111.78333C210.32533,111.78333 211.33333,111.78333 212.1955,111.78333C213.10001,111.78333 214.02083,111.78333 214.82133,111.78333C215.67467,111.78333 216.61467,111.78333 217.60001,111.78333C218.5,111.78333 219.25717,111.78333 220.15266,111.78333C221.01601,111.78333 221.97917,111.78333 222.89999,111.78333C223.8045,111.78333 224.66667,111.78333 225.5,111.78333C226.4785,111.78333 227.29866,111.78333 228.2,111.78333C229.02083,111.78333 229.98399,111.78333 230.84734,111.78333C231.74283,111.78333 232.7,111.78333 233.60017,111.78333C234.38533,111.78333 235.32533,111.78333 236.01601,111.78333L237.08934,111.78333L238,111.78333" id="svg_12" stroke-width="3" stroke="#000" fill="none"/>
  <path t="168262,168933,168989,169109,169141,169141,169181,169325,169326,169381,169410,169410,169469,169517,169582,169670,169670,169710,169710,169758,169854,169894,169894,169926,169966,169974,169974,169998,169998,170030,170046,170070" d="M209.5,124.78333C212.08934,124.78333 213,124.78333 213.91066,124.78333C214.82133,124.78333 215.67467,124.78333 216.61467,124.78333C217.5,124.78333 218.3,124.78333 219.136,124.78333C220.15266,124.78333 220.84734,124.78333 221.864,124.78333C222.8,124.78333 223.70134,124.78333 224.66667,124.78333C225.32533,124.78333 226.33333,124.78333 227.1955,124.78333C228.10001,124.78333 229.02083,124.78333 229.82133,124.78333C230.67467,124.78333 231.61467,124.78333 232.60001,124.78333C233.5,124.78333 234.25717,124.78333 235.15266,124.78333C236.01601,124.78333 236.97917,124.78333 237.89999,124.78333L238.8045,124.78333" id="svg_13" stroke-width="3" stroke="#000" fill="none"/>
  <path t="171343,171877,172045,172045,172045,172268,172269,172516,172525,172525,172636,172636,172748,172844,173036,173036,173156,173221,173228,173228" d="M196.5,122.78333C197.47917,123.825 197.5,124.78333 197.5,125.58334C197.5,126.38333 197.49614,127.37884 197.5,128.12616C197.50534,129.15805 197.72832,130.10184 198,130.78333C198.38852,131.75789 198.49933,132.582 198.5,133.48334C198.50061,134.30417 198.5,135.26733 198.5,136.13066C198.5,137.02617 198.5,137.98334 198.5,138.8835L198.5,139.66867" id="svg_14" stroke-width="3" stroke="#000" fill="none"/>
  <path t="176125,176404,176492,176492,176580,176580,176676,176676,176796,176845,176868,176868,176916,176916,176988,177092,177148,177148,177196,177268,177268,177308,177308,177356,177372,177412,177532,177556,177580,177644,177652,177756,177756,177862,177908,177908,177948,178036,178036,178068,178196,178196,178324,178324,178444,178484,178780,178780,178925,178925" d="M298.5,172.78333C298.51068,170.95799 298.55362,169.86945 299.04166,169.30417C299.69296,168.54977 300.52545,168.3235 301.33334,167.78333C302.00183,167.33635 302.79861,166.81192 303.70132,166.78333C304.66617,166.75276 305.67859,166.99745 306.25717,166.34067C306.75433,165.77629 307.12506,164.9679 307.7955,164.42616C308.53006,163.83263 308.64661,163.01706 309.07468,162.14734C309.47858,161.32674 309.38809,160.49211 310.06799,159.66867C310.54584,159.08995 311.31339,158.42589 311.85266,157.836C312.42697,157.20778 313.15686,156.75853 313.47467,155.93266C313.81207,155.05589 314.25,154.46329 314.50034,153.6835C314.77411,152.83069 315.94394,153.07799 316.42801,152.33667C316.90784,151.60184 316.49994,150.60867 316.5,149.66867C316.50009,148.68333 316.64801,148.017 317.07468,147.14734C317.47729,146.32668 317.40289,145.37013 317.85718,144.5405C318.19888,143.91644 319.17328,143.3674 319.44284,142.47884C319.69366,141.65198 319.5,140.78333 319.5,139.80484L319.5,138.98466" id="svg_15" stroke-width="3" stroke="#000" fill="none"/>
  <path t="180997,181764,182108,182108,182428,182692,182780,182868,182868,182964,182964,182964,183132,183188,183188,183284,183284,183524,183524,183708,183828,183838,183838,183900,184236,184236,184380,184380,184660,184684,184772,184772,185220,185220,185308,185364,185373,185373,185812,185812,185972,185972,186180,186180,186292,186500,186804,186852,186964,186964" d="M323.5,139.78333C322.08932,140.634 321.26599,141.32976 320.70667,141.722C320.24536,142.0455 321.36832,142.36565 321.5,142.68066C321.86102,143.54424 321.5,144.44467 321.5,145.326C321.5,146.28333 321.75992,147.05182 321.47867,148.11133C321.25299,148.96152 320.30637,149.15781 319.74283,150.10466C319.37762,150.71826 319.22565,151.73288 318.85266,152.47884C318.46347,153.2572 318.51987,154.19421 318.49985,155.10449C318.48184,155.92259 318.02112,156.63972 317.29868,157.06866C316.56192,157.5061 315.78741,157.9949 315.20984,158.48334C314.41565,159.15495 313.80951,159.76463 313.29999,160.35266C312.69189,161.05446 312.18726,161.82532 311.78534,162.582C311.388,163.33012 311.5647,164.30653 311.49734,165.26601C311.44025,166.07918 310.78485,166.66992 310.091,166.8315C309.10013,167.06224 308.3692,167.4715 307.384,167.698C306.63107,167.87111 305.55597,167.48364 304.74283,168.00467C304.00897,168.4749 303.29999,168.78333 302.39984,168.78349L301.61465,168.86867" id="svg_16" stroke-width="3" stroke="#000" fill="none"/>
  <path t="191821,192004,192024,192024,192108,192324,192324,192428,192448,192448,192628,192628,192740,192740,192772,192772,192916,192948,193068,193068,193420,193420,193492,193524,193628,193628,193772" d="M256.5,102.78333C257.97916,104.30417 258.25311,105.13732 258.52533,105.922C258.81857,106.76733 259.82132,106.78333 260.67465,106.78333C261.61465,106.78333 262.68451,106.98708 263.29999,106.61266C264.09448,106.12934 264.34714,105.15039 264.98401,104.386C265.47189,103.8004 266.28998,102.9898 266.97916,102.825C267.87567,102.61063 268.8045,102.78333 269.66666,102.78333C270.5,102.78333 271.47849,102.78333 272.29868,102.78333C273.20001,102.78333 274.13599,102.78333 274.98267,102.78467L275.79016,102.8405L276.47867,103.394" id="svg_17" stroke-width="3" stroke="#000" fill="none"/>
  <path t="196149,197444,197484,197484,197564,197572,197572,197580,197596,197596,197608,197624,197624,198036,198044,198058,198058,198260,198260" d="M253.5,107.78333C252.50133,106.89667 252.60622,105.9351 252.41467,105.26733C252.12599,104.26089 251.16768,103.67595 250.36133,103.83C249.49216,103.99606 249.5,105.10467 249.5,105.958C249.5,106.898 249.67033,107.92615 249.41467,108.58334C249.06445,109.4836 248.75734,108.98067 249.558,108.48333L250.224,108.18333L251.1355,107.68317L251.496,106.898" id="svg_18" stroke-width="20" stroke="#fff" fill="none"/>
  <path t="199613,199788,199844,199876,199900,199932,199932,199956,199956,200412,200412,200556,200564,200578,200578,200716,200732,200748,200748,200748" d="M249.5,113.78333C252.08934,113.74733 252.94043,113.3802 253.416,112.58466C253.83029,111.89165 254.44838,111.21566 254.48933,110.562C254.55052,109.58535 254.5,108.61933 254.5,107.66734C254.5,106.89933 254.77333,105.71669 254.5,105.71667C253.455,105.71658 254.38033,108.03764 254.08533,107.74733C253.51302,107.18411 254.94284,106.24067 255.36133,105.53267L255.68533,105.034" id="svg_19" stroke-width="20" stroke="#fff" fill="none"/>
  <path t="202333,202388,202388,202416,202430,202460,202460,202460,202628,202628,202636,202652,202664,202664,202682,202682,202684,202684,202684,202828,202852,202852,202852,202868" d="M248.5,106.78333C251.68567,104.5405 252.38463,104.06005 252.97917,103.28333C253.54771,102.5406 253.98761,101.60207 254.558,101.13067C255.21027,100.59161 255.66721,99.05244 256.46799,99.266C256.86084,99.37077 256.54782,100.6098 256.5,101.61667C256.46396,102.37523 255.73839,103.03272 255.14816,103.59766C254.45415,104.26195 254.1882,105.05063 253.8045,105.72083C253.27762,106.64117 252.84283,106.11916 253.02083,105.2625L253.21733,104.55L253.464,103.45533" id="svg_20" stroke-width="20" stroke="#fff" fill="none"/>
  <path t="204621,204812,205004,205004,205020,205020,205036,205052,205052,205148,205148,205276,205388,205424,205424,205436,205459,205459,205472,205472,205472,205596,205613,205614,205626,205626,205626,205655,205655,205846,205846,205900,205900,205918,206028,206036,206052,206052,206052,206132" d="M242.5,106.78333C244.25717,106.78333 245.21034,106.96252 246.01601,106.61266C246.84364,106.25327 247.11191,105.37605 248,104.80417C248.74734,104.32292 249.38275,103.97803 250.14816,103.48333C250.92805,102.97927 251.43207,102.25867 251.50017,102.88333C251.59935,103.79321 252.04193,104.8327 253,104.72083C253.85887,104.62054 254.13229,103.5435 254.33333,102.61667C254.5006,101.84547 254.49466,101.0447 254.5,99.92667C254.50342,99.21117 254.5,99.842 254.5,100.83533C254.5,101.78333 254.52246,102.42557 254.49983,103.519C254.48184,104.38788 254.50002,105.97431 253.784,106.04333C253.02266,106.11673 252.93686,106.17763 252.55267,107.02167C252.21758,107.75787 251.536,107.326 251.5,106.45L251.5,105.53267L251.5,104.78867L251.50267,103.75533" id="svg_21" stroke-width="20" stroke="#fff" fill="none"/>
  <path t="209664,210012,210082,210108,210188,210188,210244,210348,210348,210396,210548,210548,210684,210860,210860,211236,211236,211316,211316,211508,211508,211676,211740,211780,212148,212148,212268,212268,212291,212612,212612,212708,212708,212708,212740,212740,212812,212844,212972,212972,213284,213284" d="M239.5,112.78333C242.08934,112.78333 243,112.78333 243.91066,112.78333C244.82133,112.78333 245.67467,112.78333 246.61467,112.78333C247.5,112.78333 248.3,112.78519 249.136,112.78333C250.14816,112.78108 251.17355,112.85938 251.47867,112.13667C251.87181,111.20542 251.48885,110.36073 251.784,109.38467C252.02095,108.60104 252.36992,107.65578 252.584,106.89933C252.80574,106.11584 253.32196,105.29136 253.464,104.41933C253.61461,103.49483 253.5,102.582 253.5,101.61667C253.5,100.78333 253.69366,99.91468 253.44284,99.08783C253.17329,98.19926 252.29866,97.582 251.74283,97.02617C251.17867,96.462 250.5,95.78334 249.98399,95.26733C249.25717,94.5405 248.60957,94.06329 248.02083,93.28333C247.46141,92.54221 247.5,91.462 247.5,90.78333L247.5,89.80483L247.5,88.98466" id="svg_22" stroke-width="3" stroke="#000" fill="none"/>
  <path t="215005,215324,215588,216148,216148,216260,216420,216420,216468,216596,216596,216780,216916,217044,217172,217197,217197,217244,217308,217476,217732,217764,217764,217868,217929,218428,218428,218428,218476,218532,218588,218628,218636,218756,218756,218884,218916,218996,219116,219132,219132,219284,219284,219404,219436,220932,220932,220932,221012,221068,221068,221292,221292,221340,221340,221396,221444,221468,221476,221476,221573,221573,221573,221613,221638,221638" d="M252.5,101.78333C253.02083,99.325 253.80309,98.81194 254.66667,98.78333C255.49954,98.75575 256.70721,98.34442 257.33334,98.95C257.86435,99.46358 257.5,100.60867 257.5,101.61667C257.5,102.37267 257.44681,103.536 258.2045,103.77883C259.0239,104.04144 259.54395,104.43115 259.49551,105.4315C259.45746,106.21724 258.83026,106.89164 258.41599,107.58466C257.94043,108.38019 257.08984,108.76533 256.17868,108.78333C255.3255,108.80019 254.21548,108.49783 253.58267,109.07C252.86067,109.72281 252.52478,110.27891 252.2625,111.0735C252.04045,111.74618 253.16682,111.6783 253.5,110.78333C253.80627,109.96062 254.31897,109.23558 255.06934,108.86733C255.78244,108.51737 256.70163,108.35862 257.5,107.95C258.29895,107.54107 258.78357,106.82605 259.66666,106.78333C260.49902,106.74307 261.47849,106.78333 262.29868,106.78333C263.20001,106.78333 264.04166,106.78333 265.04266,106.78333C265.75067,106.78333 266.49466,106.78355 267.68567,106.78333C268.60016,106.78316 269.42926,106.66995 270.14816,106.0735C270.67392,105.63729 271.33557,104.82388 271.49734,103.98466C271.67151,103.08108 272.10776,102.30106 272.78534,101.86867C273.56219,101.37294 274.48526,101.64066 275.26801,101.21533C276.01483,100.80953 276.73199,100.35133 277.68115,99.90667L278.37851,100.22633L278.48932,101.00467" id="svg_23" stroke-width="3" stroke="#000" fill="none"/>
  <path t="222269,222676,222700,222748,222884,222884,222964,222964,223012,223116,223171,223267,223267,223324,223436,223436,223508,223508,223820,223892,223892,223948,223956,224180,224948,224948,225036,225124,225124,225308,225308,225308,225420,225442,225445,225596,225596" d="M267.5,111.78333C268.30133,109.786 269.17526,109.88362 269.48532,110.64467C269.87485,111.6008 270.48608,112.00414 271.16666,112.78333C271.71063,113.40615 272.34253,113.5652 273.20001,113.8405C274.07358,114.12097 274.42892,115.09962 274.48932,115.958C274.5553,116.89574 274.25198,117.88059 274.67065,118.58334C275.13535,119.36334 276.08374,119.33827 276.97916,119.80417C277.78177,120.22176 278.06076,121.16776 278.44733,122.02167C278.78415,122.76566 279.33826,123.35918 280.06934,123.98067C280.60202,124.43349 281.9368,124.51804 282.33334,123.78333C282.72772,123.05265 282.5,122.01534 282.5,121.28333C282.5,120.55133 282.51068,119.45533 282.784,118.58334L283.33334,117.78333L283.66666,116.95L284.38666,116.614" id="svg_24" stroke-width="3" stroke="#000" fill="none"/>
  <path t="235950,236084,236093,236093,236103,236103,236103,236108,236108,236108,236119,236120,236126,236126,236126,236138,236138,236138,236142,236142,236154,236155,236171,236171,236171,236171,236188,236188,236280,236291,236292,236294,236294,236294,236294,236294,236305,236305,236305,236305,236308,236308,236308,236309,236309,236309,236319,236319,236319,236319,236319,236319,236329,236329,236329,236329,236329,236329,236329,236329,236340,236340,236340,236340,236342,236343,236343,236343,236355,236355,236355,236366,236367,236489,236502,236502,236502,236502,236512,236512,236513,236513,236513,236513,236522,236522,236522,236522,236522,236524,236524,236525,236538,236538,236542,236542,236542,236555,236556,236556,236556,236576,236645,236646,236646,236654,236654,236661,236661,236661,236670,236670,236677,236677,236677,236677,236687,236687,236687,236687,236692,236693,236693,236693,236704,236710,236710,236710,236797,236797,236804,236820,236820,236821,236836,236836,236836,236837,236838,236838,236845,236855,236855,236861,236885,236953,236958,236958" d="M417.5,139.78333C416.50134,138.89667 416.53345,137.92584 416.38568,137.32167C416.14471,136.33643 415.62729,135.56952 415.20532,134.73599C414.81256,133.96017 414.59314,133.01321 414.41733,132.18466C414.24548,131.37485 413.87225,130.55431 413.5,129.61667C413.19016,128.83621 412.88818,128.0197 412.66666,126.95C412.52094,126.24634 412.51181,125.37075 412.216,124.38467C412.03806,123.7914 411.65491,122.79491 411.43866,122.086C411.10818,121.00251 410.79379,120.42574 410.5,119.78333C410.06671,118.83592 409.5943,117.84972 409.509,117.03967C409.41522,116.14905 409.5,115.6255 409.5,116.37283C409.5,117.28333 409.48785,118.03713 409.52133,118.87C409.55646,119.74409 409.59256,120.63669 409.94284,121.84067C410.1619,122.59364 410.53336,123.2776 410.85184,123.98866C411.35318,125.10799 411.62085,125.9526 411.74734,126.39767C412.0101,127.32218 412.24664,128.29396 412.384,128.786C412.80356,130.28888 412.97391,130.79123 413.35733,131.80467C413.55527,132.32779 414.01251,133.40057 414.272,133.95399C414.8201,135.12297 415.14084,135.72644 415.46533,136.34866C415.7948,136.98045 416.46152,138.24005 416.77734,138.86067C417.0834,139.46211 417.44223,140.01308 418.01416,141.5975C418.31992,142.44453 418.44467,143.21982 418.53915,143.9225C418.67712,144.94864 418.74936,145.67484 418.95734,146.38733C419.26294,147.4343 419.78064,148.34401 420.50082,148.91634C421.16953,149.44774 422.077,149.90808 422.40268,150.59799C422.82712,151.49707 423.19122,151.10971 423.00665,150.44333C422.83783,149.83383 422.53973,149.11755 421.95734,147.81917C421.73691,147.32776 421.24838,146.2971 421,145.7625C420.74973,145.22377 420.24884,144.15785 419.83334,143.11667C419.453,142.16353 419.30698,141.70901 419.04166,140.86667C418.69296,139.75967 418.39975,138.82651 418.11066,138.05533C417.78485,137.18619 417.55188,136.38432 417.51068,135.54733C417.45242,134.36322 417.52643,133.82446 417.46399,132.97267C417.37653,131.77937 417.15274,130.8909 417,130.325C416.79135,129.55197 416.599,128.39999 416.16666,127.45C415.85339,126.76163 415.40646,125.30753 414.61432,125.67367C413.87961,126.01326 414.5,127.46733 414.5,128.28333C414.5,129.09933 414.5,130.09933 414.5,130.78333C414.5,131.95 414.45602,132.74883 414.608,133.59399C414.71576,134.19331 415.34781,135.38759 415.776,135.994C416.2197,136.62239 416.73877,137.23059 417.13568,138.30417C417.39401,139.0029 417.367,139.73769 417.58133,140.64333C417.83176,141.70155 418.63397,142.43314 418.88934,143.08067C419.18292,143.82507 419.42874,144.85654 419.47916,145.67917C419.48172,145.72075 419.22702,144.8331 418.85266,144.08783C418.44119,143.26866 418.29187,142.23637 418.064,141.522C417.8103,140.72664 417.39993,139.70511 417.11066,139.03C416.78506,138.27013 416.51044,137.28352 416.5,136.46201C416.48917,135.60875 416.5,134.66867 416.5,133.68333L416.5,132.78333L416.66666,131.95L417.30133,131.52867" id="svg_25" stroke-width="20" stroke="#fff" fill="none"/>
  <path t="247608,248085,248110,248142,248142,248165,248197,248270,248270,248718,248718,249237,249237,249269,249294,249294,249373,249485,249486,249541,249733,249773,250078,250078,250605,250716,250796,250797,251020,251020,251364,251364,251412,251412,251412,251468,251468,251900,251980,252084,252108,252148,252148,252236,252236,252324,252324,252436,252460,252484,252484,252604,252604,252644,252668,252668,252764,252796,252837,252837,253117,253117,253166,253421,253421,253421,253468,253468,253500,253500,253757,253758,253829,253830,253885,253885,253886,253917,253918,253966,253966,254094,254094,254165,254597,254598,254638,254684,254685,254740,254740,254804,254844,254844,254844,254892,254892,254924,254924,254924,254972,255028,255028,255092,255140,255140,255196,255380,255476,255532,255604,255604,255604,255708,255708,255732,255742,255748,255748,255932,255957,256212,256212,256340,256364,256364,256428,256469,256548,256548,256660,256660,256702,256942,256942" d="M401.5,126.78333C403.20001,126.78333 404.13599,126.78333 404.98401,126.78333C405.84732,126.78333 406.86401,126.78333 407.79999,126.78333C408.60016,126.78333 409.38535,126.78333 410.336,126.78333C411.10132,126.78333 412.09549,126.78333 413.01468,126.78333C413.87466,126.78333 414.82132,126.78273 415.67465,126.78333C416.61465,126.784 417.4577,127.0183 418.20001,127.43066C419.02441,127.88863 419.56512,128.57103 420.36133,128.74733C421.311,128.95761 422.08932,128.78333 423,128.78333C423.91068,128.78333 424.8215,128.78325 425.71066,128.78333C426.69983,128.78342 427.50903,128.68279 428.33334,128.95C429.21143,129.23463 430.04358,129.65633 430.75067,129.76866C431.49567,129.88702 432.63049,130.27988 433.04266,130.96867C433.55627,131.82701 434.04852,132.45259 434.44284,133.1405C434.91483,133.96387 434.38135,134.96449 434.54166,135.78333C434.71127,136.6498 435.65482,137.10974 436.16666,137.78333C436.6904,138.47258 436.43192,139.56866 435.63867,139.74733C434.68976,139.96104 433.74442,139.84189 433.20001,140.48866C432.63199,141.1635 431.97983,141.7625 431.01599,141.78333C430.3255,141.79825 429.25717,141.78333 428.39999,141.78333C427.5,141.78333 426.74283,141.78333 425.84732,141.78333C424.98401,141.78333 423.94696,141.73091 423.1785,142.22617C422.41586,142.71767 421.93301,143.34959 421.10132,143.89667C420.3638,144.38181 419.40475,144.46375 418.8045,144.95033C417.96716,145.62914 417.89432,146.53198 417.66666,147.45C417.4621,148.27484 417.31091,149.3372 417.05334,150.034C416.77319,150.79181 416.20047,151.66409 415.68533,152.11133C414.86594,152.82271 414.1474,153.22153 413.62149,154.005C413.24487,154.56609 413.67896,155.65701 413.33334,156.61667C413.06348,157.366 412.50226,157.01718 412.5,156.12616C412.49762,155.18201 412.5,154.18784 412.5,153.44051C412.5,152.53149 412.5,151.45 412.5,150.778C412.5,150.034 412.5,148.92599 412.5,148.13266C412.5,147.01534 412.49643,146.28331 412.5,145.55133C412.50534,144.45529 412.88116,143.6425 413.216,142.98334C413.61435,142.19917 413.41089,141.11713 413.55716,140.436C413.78421,139.37883 414.52869,138.69104 414.5,137.78333C414.47314,136.93391 413.63956,136.28772 413.52533,135.49667C413.42288,134.78726 413.18466,133.77026 412.85266,133.09233C412.43427,132.23796 411.73312,131.8712 410.85184,131.77434C410.05759,131.68704 409.88623,130.75581 409.2785,130.02617C408.71555,129.35028 407.84637,128.98259 406.97916,128.80417C406.03552,128.61003 405.32535,128.78333 404.25717,128.78333C403.39999,128.78333 402.5,128.78333 401.61465,128.78333C400.67465,128.78333 399.98401,128.78333 399,128.78333L398.01468,128.78333L397.28934,128.78333" id="svg_26" stroke-width="3" stroke="#000" fill="none"/>
  <path t="262510,262852,262932,262932,262964,263012,263077,263140,263220,263220,263356,263562,263604,263709,263709,263773,263773,263869,263973,264029,264029,264317,264317,264349,264349,264388" d="M172.5,123.78333C171.58667,124.67 171.89874,125.41801 172.216,126.29933C172.54936,127.22536 173.17815,127.46705 173.97917,127.80417C174.71977,128.11586 175.37943,128.67928 176.01733,128.86734C177.02251,129.16367 177.79865,129.75473 178.70134,129.78333C179.66618,129.81389 180.32533,129.78333 181.33333,129.78333C182.1955,129.78333 183.13985,129.81956 183.91066,129.34734C184.71494,128.8546 185.49007,128.57587 186.16667,127.78333C186.62663,127.24456 186.5,126.13067 186.5,125.436L186.5,124.41933" id="svg_27" stroke-width="3" stroke="#000" fill="none"/>
 </g>
</svg>