<svg width="500" height="333.3333333333333" xmlns="http://www.w3.org/2000/svg" xmlns:svg="http://www.w3.org/2000/svg" xmlns:xlink="http://www.w3.org/1999/xlink">
 <!-- Created with SVG-edit - http://svg-edit.googlecode.com/ -->
 <g display="inline" class="layer">
  <title>Layer 1</title>
  <path t="0,329,353,362,385,395,420,420,442,641,690,729,748,821,849,868,884,890,924,945,954,985,993,1033,1106,1131,1153,1161,1169,1201,1210,1231,1237,1241,1251,1273,1289,1305,1329,1369,1385,1457,1473,1497,1506,1514,1538,1554,1561,1571,1593,1605,1634,1690,1705,1738,1745,1769,1801,1850,1859,1865,1913,1930,1953,2041,2073,2193,2230,2244,2281,2313,2362,2545,2969,3020,3058,3066,3097,3129,3138,3249,3265,3321,3385,3419,3457,3473,3482,3545,3555,3569,3585,3600,3641,3657,3689,3722,3745,3746,3753,3777,3801,3830,3839,3841,3852,3869,3889,3899,3923,3934,3961,3969,3977,3993,4001,4025,4049,4057,4073,4089,4105,4125,4145,4145,4153,4161,4177,4201,4209,4233,4241,4257,4266,4289,4313,4329,4337,4359,4361,4377,4385,4402,4402,4409,4433,4441,4452,4457,4467,4489,4497" d="M115.5,86.16667C114.2785,85.28817 113.39562,85.25536 112.5,85.16667C111.6543,85.08293 111.15581,84.37619 110.4,83.94517C109.7309,83.56359 109.20111,82.57446 108.3,82.252C107.5425,81.98093 106.75341,81.84904 106.216,81.25067C105.64258,80.61221 105.12419,80.03543 104.44733,79.51933C103.7897,79.01789 102.88266,79.09379 102.416,78.36533C101.91605,77.5849 101.11165,77.19086 100.5,76.66667C99.85371,76.11279 99.27439,75.62384 98.62133,74.94534C98.0636,74.36587 97.51551,73.75016 97,73.16667C96.43644,72.52879 95.8288,71.88368 95.27866,71.288C94.69041,70.65105 93.97221,70.28267 93.5,69.64584C92.92118,68.86523 92.26623,68.48682 91.584,67.88267C90.98946,67.35616 90.44619,66.72006 89.92533,66.14133C89.35125,65.50347 88.75341,64.84904 88.216,64.25067C87.64258,63.61221 86.77441,63.29275 86.51067,62.556C86.21091,61.71864 86.43465,60.72924 85.92533,60.14133C85.36343,59.49272 84.81911,58.8838 84.216,58.25067C83.66912,57.67655 83.57304,56.81649 83.07467,56.192C82.58949,55.58403 82.46665,54.79675 81.92533,54.14133C81.42579,53.5365 80.66666,53 80.5,52.16667C80.33334,51.33334 79.63657,50.84061 79.07467,50.192C78.56535,49.6041 78.43305,48.82311 77.92533,48.14133C77.44812,47.50053 77.82812,46.49472 77.47916,45.6875C77.17052,44.97352 76.50225,44.46218 76.5,43.56667C76.49774,42.66667 76.3116,41.51178 77.02084,41.1875C77.89238,40.78901 78.44141,41.92536 79.2045,42.16217C80.02629,42.41719 80.55151,42.98582 81.30133,43.16533C82.19356,43.37894 82.80802,43.93365 83.44733,44.51933C84.03059,45.05365 84.90342,45.44717 85.33334,46.16667C85.79371,46.93713 86.32713,47.5186 86.85267,48.114C87.41592,48.75214 88.19547,48.81186 88.97916,49.1875C89.68241,49.52459 89.49348,50.78933 90.11066,51.192C90.85586,51.6782 91.70195,52.18809 92.14283,52.86667C92.65762,53.659 93.33913,54.04747 93.97916,54.6875C94.6192,55.32754 94.86213,56.10311 95.5,56.66667C96.08349,57.18219 96.86963,57.59582 97.3785,58.38817C97.85767,59.13427 98.00782,59.77531 98.44283,60.52383C98.86731,61.25422 98.10567,62.54905 98.78533,63.08133C99.50763,63.647 100.4572,63.44902 100.5,64.36667C100.54192,65.26553 101.00782,65.77531 101.44283,66.52383C101.86731,67.25422 101.18098,68.46444 101.78533,69.08266C102.39342,69.70473 103.32999,69.93726 103.48933,70.76667C103.67142,71.71446 104.28072,72.17023 104.49866,72.968C104.74045,73.853 105.31281,74.33771 105.5,75.16667C105.69958,76.05053 106.35746,76.49793 106.92533,77.14133C107.44995,77.73573 107.9212,78.42559 108.37867,79.2665C108.78524,80.01386 109.87901,79.77499 110.41467,80.452C110.92293,81.09439 110.53881,82.30023 111.2045,82.8095C111.88201,83.32782 112.48521,83.7774 112.5,84.66667C112.51629,85.64592 113.11066,86.156 113.97916,86.1875L114.48933,86.77734L114.52084,87.64584" id="svg_1" stroke-width="3" stroke="#000" fill="none"/>
  <path t="7435,7657,7673,7692,7706,7736,7794,7806,7842,7985,7993,8033,8043,8073,8081,8094,8097,8123,8193,8221,8221,8229,8242,8257,8265,8329,8367,8386,8393,8424,8433,8457,8482,8521,8553,8571,8674,8681,8694,8753,8801,8841,8865,8865,8883,8899,9033,9046,9049,9120,9145,9153,9177,9185,9214,9217,9258,9265,9289,9337,9482,9482,9522,9553,9566,9586,9609,9609,9629,9641,9673,9673,9689,9705,9737,9747,9761,9777,9793,9809,9842,9842,9849,9866,9890,9906,9924,9933,9953,9978,9978,10001,10033,10041,10057,10081,10100,10105,10123,10129,10153,10172,10186,10193,10209,10234,10250,10268,10268,10283,10289,10313,10329,10369,10392,10400,10409,10426,10435,10436,10441,10452,10465,10465,10473,10489,10497,10505,10530,10536,10545,10553,10576,10586,10605,10657,10737,10809,10833,10945,10961,11057,11065,11081,11092,11145,11169,11185,11213,11217,11225,11249,11257,11274,11291,11321,11345,11369,11425,11449,11717,11721,11761,11769,11793,11824,11826,11841,11849,11857,11889,11905,12025,12033,12049,12065,12084,12089,12099,12099,12105,12121,12121,12129,12129,12129,12137,12137,12145,12145,12153,12153,12163,12163,12169,12184,12185,12196,12220" d="M113.5,78.16667C115.3,78.16667 116.20006,78.15601 117.1,78.16667C117.97935,78.17709 118.43661,78.94146 119.2045,79.16217C120.06516,79.40955 121,79.16667 121.9,79.16667C122.8,79.16667 123.71273,79.31734 124.59983,79.1665C125.45091,79.0218 125.27141,77.94633 125.784,77.25067C126.29306,76.5598 127.05081,76.22654 127.8,75.814C128.6387,75.35219 129.45474,75.25591 130.064,74.556C130.70204,73.823 130.9413,73.01086 131.55267,72.51933C132.19719,72.00114 133.04803,71.95068 133.66667,71.33334C134.28563,70.71568 134.97371,70.4172 135.7955,70.16217C136.55858,69.92536 137.02068,69.1793 137.89999,69.16667C138.79543,69.15382 139.37717,68.45 140.11067,68.17734C140.92528,67.87453 141.65883,67.64857 142.216,67.08266C142.87668,66.41165 143.60127,66.21447 144.5,66.16667C145.30341,66.12395 145.88339,65.58369 146.47467,64.77734C146.95003,64.12908 147.89795,64.16657 148.5,63.66667C149.11974,63.15207 149.91605,62.74844 150.416,61.968C150.88266,61.23955 151.78969,61.31544 152.44733,60.814C153.12419,60.29791 153.15625,59.4764 153.52083,58.6875C153.87714,57.91649 154.5518,57.31029 155.5,57.16667C156.29099,57.04686 157.18608,57.07034 157.47467,56.316C157.84155,55.35699 158.60001,55.16667 159.5,55.16667C160.3,55.16667 160.95149,54.83566 161.66667,54.33334C162.36211,53.84489 163.3,54.16667 164.2,54.16667C165.10001,54.16667 166.08592,54.54747 166.97917,54.14584C167.71233,53.81618 167.82854,52.56858 168.7,52.252C169.54971,51.94333 170.5,52.16667 171.3,52.16667C172.2,52.16667 173.10001,52.16667 174,52.16667C174.89999,52.16667 175.8,52.16667 176.7,52.16667C177.60001,52.16667 178.5,52.16667 179.3,52.16667C180.2,52.16667 181.10001,52.16667 182,52.16667C182.89999,52.16667 183.8159,51.99967 184.69867,52.168C185.45604,52.31242 185.93544,53.14866 186.8,53.16667C187.6998,53.18541 188.73216,52.92243 189.416,53.45067C190.04349,53.93538 190.95398,53.97079 191.44733,54.52383C192.05099,55.20056 192.4874,56.08163 193.3,56.16533C194.19527,56.25755 194.96028,56.30252 195.55267,56.814C196.20868,57.38041 197.03719,57.91361 197.89999,58.13067C198.7735,58.35042 199.70377,58.08455 200.60001,58.16684C201.51144,58.25052 202.08723,58.76796 202.89999,59.14133C203.78703,59.54884 204.4874,60.08163 205.3,60.16533C206.19527,60.25755 207.17857,59.82361 207.97917,60.1875C208.75241,60.53896 209.30133,61.166 210.2,61.16667C211.10001,61.16734 211.91737,61.25615 212.52533,61.74133C213.14983,62.23971 214.01675,62.32867 214.584,62.88267C215.25772,63.54065 215.78236,64.12395 216.7,64.16667C217.59903,64.20852 218.63841,63.84416 219.33333,64.33334C220.04836,64.83666 220.20923,65.56937 220.5045,66.46217C220.75435,67.21759 221.8548,67.08788 222.47467,67.592C223.08974,68.09222 223.94826,68.56303 224.37866,69.2665C224.85394,70.04333 225.72035,69.93808 226.416,70.45067C227.10687,70.95973 227.58408,71.5812 228.14734,72.21934C228.67287,72.81474 229.26357,73.47782 229.85266,74.114C230.38565,74.68959 231.10248,74.79819 231.97917,75.1875C232.69006,75.50318 233.17006,76.27617 233.584,76.968C234.05988,77.76335 234.9391,77.90629 235.7955,78.17117C236.55881,78.40725 237.02068,79.15405 237.89999,79.16667C238.79543,79.17953 239.8026,79.65525 239.48933,80.556C239.22795,81.30757 238.29669,81.70985 237.39999,82.04517C236.54936,82.36325 235.70656,82.26328 235,82.66667C234.19377,83.12698 233.44147,83.23845 232.448,83.45067C231.82231,83.58433 230.8654,83.85235 229.76433,84.04517C229.04562,84.17102 228.01057,84.11827 227.28934,84.20267C226.28978,84.31963 225.54811,84.7475 224.66667,85C223.8233,85.24159 222.864,85.20267 222.01601,85.45067L221.32533,85.74133L220.38667,86.08266L219.584,86.45067" id="svg_2" stroke-width="3" stroke="#000" fill="none"/>
  <path t="13338,13609,13609,13637,13644,13665,13689,13713,13735,13745,13769,13789,13793,14089,14122,14153,14169,14177,14195,14218,14281,14316,14353,14353,14365,14370,14449,14473,14521,14577,14993,14993,15049,15089,15102,15233,15257,15273" d="M152.5,71.16667C153.5,72.16667 154.3385,71.95724 155.2,72.22383C156.06618,72.49187 156.19746,73.71989 156.85716,74.1095C157.67049,74.58984 158.7086,74.04266 159.59984,74.16683C160.40172,74.27856 160.86888,75.09361 161.47467,75.592C162.09187,76.09978 162.44176,75.46027 162,74.66667C161.55611,73.86925 161.0239,73.42477 160.2045,73.16217C159.44679,72.91934 159.60706,71.86012 159.49867,70.96667C159.38712,70.04704 158.72942,69.33669 157.89999,69.17734C156.95221,68.99525 156.29994,68.69145 155.66667,68C155.11906,67.40208 154.39999,67.16667 153.5,67.16667C152.7,67.16667 151.79985,67.14988 150.89999,67.16667C149.9355,67.18467 149.51067,67.77734 149.464,68.73067L148.85266,69.21934" id="svg_3" stroke-width="3" stroke="#000" fill="none"/>
  <path t="16107,16305,16336,16337,16355,16361,16489,16553,16553,16585,16593,16605,16630,16633,16656,16665,16680,16688,16731,16737,16744,16760,16772,16810,16848,16859,16875,16953,16961,16976,17121,17145,17145,17160,17160,17162,17170,17170,17179,17179,17179,17185,17185,17185,17196,17196,17201,17201,17221,17221,17225,17225,17225,17233,17233,17241,17673,17721,17736,17744,17752,17768,17779,17796,17820,17829,17848,17888,17904,17920,17969,17986,17998,18009,18033,18049,18057,18068,18098,18105,18131,18144,18164,18224,18289,18289,18328,18376,18392,18401,18401,18424,18432,18449,18466,18473,18482,18504,18524,18524,18533,18560,18577,18588,18724,18760,18761,18769,18792,18822,18822,18873,18889,18907" d="M112.5,86.16667C113.37867,87.38817 113.78497,88.22623 114.14733,88.86667C114.61175,89.68745 114.93886,90.40887 115.66666,91C116.36335,91.56586 117.03901,91.92194 118,92.14584C118.86668,92.34776 119.44119,92.74402 120.11066,93.192C120.8461,93.68413 121.69697,94.12395 122.6,94.16667C123.49899,94.2092 124.04757,94.61281 124.78533,95.08134C125.4768,95.52046 126.64098,94.86183 127.37867,95.388C128.08455,95.89148 128.30685,96.83719 129.02083,97.14584C129.82805,97.49479 130.82169,96.97177 131.69867,97.168C132.50571,97.34858 133.88908,97.30865 133.87866,98.16667C133.87407,98.5453 132.74283,98.16667 131.84734,98.16667C130.98399,98.16667 130,98.16667 129.17833,98.16667C128.25333,98.16667 127.33316,98.17947 126.54733,98.16217C125.72493,98.14406 124.65343,98.04378 123.95717,97.8095C123.08454,97.51589 122.31344,97.03825 121.52084,96.6875C120.53652,96.25192 119.73345,96.15265 118.83833,95.8095C118.24301,95.58128 117.33826,95.15331 116.55183,94.87117C115.76602,94.58924 114.64782,94.25012 113.92133,94.17734C112.9398,94.07899 112.6008,93.02763 113.33334,93.33334C114.13988,93.66994 114.95226,93.83598 115.41467,94.452C115.96542,95.18574 115.88507,96.07455 116.47467,96.592C117.11242,97.15171 117.68489,97.65608 118.33334,98.33334C118.93774,98.9646 119.60684,99.05592 120.5,99.16667C121.39923,99.27818 121.81366,99.92622 122.69867,100.168C123.49644,100.38595 123.93545,101.14803 124.8,101.16667C125.69846,101.18605 126.24982,101.78953 127.02084,102.14584C127.80974,102.51041 128.45268,102.79438 129.20534,103.114C130.11293,103.49941 130.6543,104.08293 131.5,104.16667C132.29611,104.24551 132.92894,104.53737 133.7215,105.04517C134.46825,105.52361 135.5,105.16667 136.3,105.16667C137.2,105.16667 137.90079,105.36688 138.584,105.88267C139.19934,106.34722 140.32257,105.75545 141.14284,106.22383C141.95601,106.68816 142.5004,107.1413 143.3,107.16667C144.20135,107.19527 144.92236,107.85286 145.8,108.1095C146.66556,108.36262 147.60001,108.16667 148.5,108.16667C149.3,108.16667 149.88716,108.48116 150.66667,109C151.37413,109.47088 152.3,109.16667 153.21466,109.252L153.7215,110.04517L154.60001,110.16667" id="svg_4" stroke-width="3" stroke="#000" fill="none"/>
  <path t="20489,20585,20601,20624,20632,20633,20633,20644,20644,20648,20648,20657,20664,20672,20672,20688,20704,20720,20736,20736,20745,20745,20762,20784,20931,20944,20952,20952,20961,20961,20968,20968,20979,20980,20980,20985,20985,20996,20996,21000,21022,21137,21148,21153,21153,21165,21169,21169,21169,21177,21177,21185,21185,21185,21193,21193,21201,21229,21229,21235,21235,21248,21323,21334,21366,21384,21394,21394,21408,21424,21433,21441,21456,21537,21551,21553,21553,21561,21561,21568,21569,21577,21577,21593,21593,21623,21640,21793,21804,21810,21833,21848,21856,21868,21872,21883,21888,21904,21904,21928,21936,21952,21952,21960,21969,21976,21992,22002" d="M167.5,117.16667C169.3,117.16667 170.2,117.16667 171.04167,117.16667C172.04266,117.16667 172.75067,117.16528 173.49466,117.16667C174.69017,117.16892 175.40752,117.19132 176.32533,117.60267C177.03835,117.92223 177.77304,118.73353 178.60001,119.04517C179.44983,119.36542 180.3,119.16667 181.2,119.16667C182.10001,119.16667 183.03773,119.1292 183.82133,119.388C184.69833,119.67765 185.47198,120.10448 186.29866,120.16534C187.19757,120.23151 188.49597,120.89185 189.028,120.13067C189.37392,119.63576 188.00967,118.97742 187.32533,118.56667C186.51361,118.07946 185.9034,117.52245 185.01466,117.24934C184.11699,116.97348 183.26738,116.76561 182.52083,116.14584C181.95897,115.67938 181.28925,114.87892 180.616,114.368C179.88797,113.81551 179.24959,113.42962 178.52083,112.6875C177.95468,112.11098 177.54549,111.31546 178.26167,111.17117C179.13513,110.99519 180.01601,111.16667 181.02083,111.16667C182.04283,111.16667 182.76134,111.16667 183.55183,111.16667C184.57851,111.16667 185.47917,111.16667 186.5,111.16667C187.3,111.16667 188.10001,111.16667 189.0955,111.16667C189.84283,111.16667 190.74733,111.16667 191.66667,111.16667C192.5,111.16667 193.47891,111.19264 194.29866,111.16667C195.20135,111.13808 196.42424,110.77158 196.43834,109.87117C196.45049,109.09576 195.28119,108.66617 194.5,108.33334C193.74846,108.01314 192.66414,108.28478 192.02083,107.64584C191.37863,107.00799 191.02443,106.4231 190.2045,106.16217C189.46034,105.92535 190.0415,105.17709 190.98534,105.16667C191.71062,105.15867 192.69983,105.16667 193.664,105.16667C194.616,105.16667 195.384,105.16667 196.336,105.16667C197.10133,105.16667 198.0955,105.16667 198.84283,105.16667C199.864,105.16667 201.06703,105.42023 201.464,104.73067C201.8933,103.98495 201.86028,103.11897 202.52533,102.592C203.15155,102.0958 203.92705,101.9995 204.584,101.45067C205.20271,100.93377 206.07008,100.52382 206.7,99.968C207.46571,99.29237 208.04239,98.94164 208.72133,98.288C209.30122,97.72972 209.80687,97.11987 210.216,96.36667C210.64922,95.56915 211.30133,95.168 212.14284,95.1095L212.49867,94.36533L212.58533,93.452" id="svg_5" stroke-width="3" stroke="#000" fill="none"/>
  <path t="24050,24137,24137,24153,24153,24167,24167,24167,24169,24169,24169,24177,24177,24189,24189,24193,24193,24202,24202,24208,24225,24225,24232,24232,24232,24240,24249,24249,24273,24284,24409,24430,24439,24439,24456,24472,24483,24489,24504,24524,24524,24528,24528,24536,24536,24544,24544,24552,24560,24568,24568,24576,24576,24584,24592,24592,24601,24608,24625,24625,24634,24640,24640,24651,24656,24668,24668,24672,24672,24684,24684,24688,24696,24713,24713,24738,24738,24752,24752,24760,24768,24768,24784,24792,24808,24808,24826,24840,24852,24852,24856,24869,24872,24880,24896,24904,24912,24928,24928,24938,24944,24954,24970,24970,24990,24993,24993,25009,25010,25027,25037,25056" d="M142.5,108.16667C144.32533,109.56667 145.03691,109.93745 145.75183,110.47117C146.32761,110.901 147.27228,111.64619 147.75067,112.00267C148.50148,112.56213 149.3564,113.36697 149.83867,113.94534C150.38181,114.59671 151.19148,114.96087 151.84734,115.272C152.82686,115.73669 153.2032,116.56721 153.82117,117.14533C154.43422,117.71886 155.15678,118.3372 155.47917,119.14584C155.84598,120.06587 156.63295,120.58892 157,121.20834C157.55106,122.13825 157.76355,122.78285 158.2,123.5095C158.755,124.43356 159.68869,124.70576 160.21466,125.25067C160.88097,125.94097 160.7818,126.83916 161.37866,127.388C162.01871,127.97655 162.8369,128.34366 163.21466,128.968C163.70207,129.77354 163.1848,130.83315 163.52083,131.64583C163.82787,132.38838 164.3347,133.06648 164.66667,134C164.91962,134.71127 165.63696,135.46855 165.97917,136.16667C166.37772,136.97971 166.45807,137.79294 166.5045,138.81934C166.53598,139.51529 167.01762,140.48128 167.37866,141.26666C167.77335,142.12526 168.17232,142.76964 168.416,143.65067C168.64902,144.49313 168.99673,145.33537 169.33333,146.16667C169.63991,146.92387 169.5,147.86667 169.5,148.6875C169.5,149.65067 169.5,150.51401 169.5,151.414C169.5,152.33333 169.30911,153.25397 169.85266,154.05684C170.32056,154.74796 170.72833,155.48517 171,156.16667C171.38855,157.14139 171.45393,157.92073 171.5045,158.81483C171.54892,159.60025 172.36089,160.02908 172.97917,160.70833C173.56885,161.35612 173.39487,162.34744 173.50267,163.28267C173.5927,164.06366 174.23856,164.79247 174.79466,165.51401C175.36606,166.25537 175.7206,167.13335 176.07466,167.76666C176.55618,168.62793 176.3647,169.63284 176.78534,170.36667C177.17889,171.05324 178.06116,171.62404 178.44733,172.46667C178.79962,173.2354 179.34586,173.93353 179.48933,174.76666C179.64209,175.65367 179.57188,176.5985 180.07466,177.192C180.6115,177.8257 181.07365,178.62973 181.44733,179.46667C181.79207,180.23882 181.97163,181.11229 182.55267,181.80949C183.04561,182.40099 184.00514,182.68224 184.7,183.36667C185.20375,183.86288 185.84821,184.68567 186.66667,185C187.44095,185.29736 188.39017,185.51933 188.92534,186.14134L189.52533,186.74133L190.14734,187.21933L190.66667,188" id="svg_6" stroke-width="3" stroke="#000" fill="none"/>
  <path t="25746,25915,25930,25943,25944,25961,25977,25985,26000,26000,26018,26032,26116,26137,26137,26161,26169,26185,26201,26223,26233,26246,26261,26273,26288,26289,26296,26321,26329,26337,26351,26362,26368,26377,26432,26443,26464,26496,26504,26552,26576,26576,26596,26600,26621,26632,26665,26736,26752,26792,26792,26825,26841,26841,26853,26868,26872,26872,26882,26888,26898,26904,26904,26923,26959,26973,26973,26991,26991,26992,26992,27008,27043,27048,27048,27078,27078,27080,27088,27109,27142,27158,27158,27176,27195,27195,27230,27232,27232,27240,27257,27275,27293,27323,27361,27362,27440,27440,27456,27472,27489,27521,27560,27572,27587,27634,27634,27641,27664,27692,27704,27713,27742,27752,27752,27752,27760,27760,27776,27792,27802,27826,27840,27840,27856,27864,27880,27888,27904,27928,27939,27939,27944,28128,28145,28201,28235,28249,28256,28272,28280,28304,28304,28334,28344,28362,28372,28372,28384,28392,28400,28417,28417,28433,28433,28440,28440,28448,28460,28473,28481,28490,28496,28515,28523,28528,28528,28529,28540,28557,28560,28568,28576,28576,28584,28584,28592,28592,28600,28600,28614,28614,28616,28616,28625,28632,28648,28648,28657,28664,28674,28691,28696,28752,28770,28822,28825,28842,28873,28912,28921,28944,28963,28977,28985,29000,29017,29027,29032,29056,29064,29080,29080,29097,29118,29120,29128,29136,29152,29168,29184,29200,29224,29225,29232,29248,29264,29273,29305,29305,29346,29362,29368" d="M168.5,166.16667C166.8,166.16667 165.89999,166.16667 165,166.16667C164.10001,166.16667 163.2,166.16667 162.3,166.16667C161.39999,166.16667 160.5,166.16667 159.7,166.16667C158.8,166.16667 158.11284,166.48116 157.33333,167C156.62587,167.47087 155.7189,167.28435 154.89999,167.74133C154.12727,168.17255 153.62608,168.89226 152.88933,169.15601C152.05197,169.45576 151.10001,169.16667 150.2,169.16667C149.3,169.16667 148.39873,169.11888 147.5,169.16667C146.69659,169.2094 145.96281,169.9136 145.10001,170.13066C144.2265,170.35042 143.20212,170.00734 142.55267,170.51933C141.93806,171.00388 141.18866,171.14938 140.5,171.66667C139.87431,172.13666 139,172.16667 138.10001,172.16667C137.2,172.16667 136.3,172.16667 135.39999,172.16667C134.5,172.16667 133.7,172.16667 132.8,172.16667C131.89999,172.16667 131,172.16667 130.10001,172.16667C129.2,172.16667 128.3,172.16667 127.4,172.16667C126.5,172.16667 125.68958,172.06624 124.864,172.20267C123.9923,172.34673 123.18269,172.92885 122.25716,173.1095C121.41399,173.27408 120.54623,173.4088 119.8,173.814C119.03888,174.22729 118.08949,174.03395 117.2,174.17117C116.26862,174.31485 115.72945,175.00647 114.8,175.16217C113.99006,175.29785 112.99773,175.41574 112.32533,175.77733C111.49647,176.22307 110.9168,176.86037 110.016,177.08133C109.17385,177.2879 108.13293,177.09641 107.29867,177.168C106.32287,177.25174 105.70744,177.68481 104.66666,178C103.92787,178.22372 102.94803,177.87758 102.11066,178.17734C101.37392,178.44109 100.83955,179.151 100.016,179.45067C99.31183,179.70689 98.25859,180.13806 97.39983,180.16667C96.6151,180.19281 95.67467,180.16667 94.66666,180.16667C93.91067,180.16667 93.11829,180.2932 92.44733,180.814C91.86356,181.26712 90.9,181.16667 89.97916,181.16667C89.01466,181.16667 88.28933,181.16667 87.30016,181.16667C86.52084,181.16667 85.37769,180.85187 84.62133,181.388C83.91398,181.8894 83.51801,182.6021 83.5,183.46667C83.48126,184.36647 83.5,185.26666 83.5,186.16667C83.5,186.96667 83.72578,187.70988 84.37867,188.388C84.93616,188.96704 85.79948,189.00531 86.44733,189.51933C87.07872,190.02029 87.83556,190.59293 88.32533,191.028C89.03748,191.66061 89.65888,192.52609 90.29867,192.88C91.12511,193.33717 91.92352,193.33809 92.584,193.88268C93.16782,194.36404 94.13891,194.55414 94.84734,194.814C95.84705,195.18069 97.06702,194.9131 97.464,195.60266C97.8933,196.34839 97.9481,197.02144 98.8,197.17117C99.72817,197.3343 100.26862,198.01849 101.2,198.16217C102.08949,198.29939 103,198.16667 103.9,198.16667C104.8,198.16667 105.71258,198.31647 106.59983,198.1665C107.45186,198.02251 107.9044,197.3194 108.7,196.88268C109.34812,196.5269 110.2,196.114 111,195.66667C111.8,195.21933 112.54456,194.85562 113.3,194.45067C114.05596,194.04544 114.85038,193.64928 115.7,193.25067C116.56059,192.84692 117.23947,192.43518 117.984,191.96667C118.65952,191.5416 119.61497,191.18895 120.13834,190.46667C120.69383,189.70006 121.20458,189.17953 122.1,189.16667C122.97932,189.15404 123.4412,188.40726 124.2045,188.17117C125.06089,187.9063 125.88156,187.68939 126.66666,187.16667C127.30355,186.74263 127.99104,186.32298 129.08934,186.17734C129.89304,186.07077 130.8,186.16675 131.7,186.16667C132.60017,186.16658 133.40164,186.12274 134.336,185.73067C134.91574,185.4874 135.87895,184.91788 136.7,184.60266C137.67848,184.22699 138.47899,184.17709 139.33333,184.16667C140.12527,184.15701 141.15268,184.17032 141.84734,184.16667C142.86404,184.16133 143.60719,183.71371 144.5,183.33333C145.25154,183.01314 146.29689,183.52983 147.064,183.13066C147.82338,182.73552 148.30133,182.16734 149.2,182.16667C150.10001,182.166 151,182.16441 151.89999,182.16667C152.79552,182.16893 153.37717,182.88335 154.11067,183.15601C154.92528,183.45882 155.4366,183.94145 156.2045,184.16217C157.06517,184.40955 158.12093,184.16127 158.52533,184.77733C159.00842,185.51326 159.71671,185.97426 160.59984,186.16684C161.44411,186.35095 161.86798,187.01598 162.8,187.17117C163.61761,187.30731 164.31554,187.84515 165.10001,188.192C165.91803,188.55368 166.71671,188.97426 167.59984,189.16684C168.44411,189.35095 168.85587,190.13808 169.8,190.16667C170.69958,190.19392 171.65349,189.98532 172.5,190.33333C173.17108,190.60922 173.89946,191.14867 174.8,191.16667C175.69981,191.18466 176.60001,191.16667 177.5,191.16667C178.3,191.16667 179.2,191.16667 180.10001,191.16667L181,191.16667" id="svg_7" stroke-width="3" stroke="#000" fill="none"/>
  <path t="29938,30009,30027,30027,30032,30032,30032,30040,30040,30048,30048,30056,30056,30066,30072,30083,30088,30101,30104,30124,30136,30144,30152,30168,30184,30192,30208,30225,30240,30250,30267,30288,30301,30301,30324,30328,30336,30344,30358,30360,30376,30384,30392,30401,30401,30409,30425,30434,30434,30440,30440,30451,30451,30456,30468,30468,30472,30472,30484,30488,30496,30496,30504,30504,30512,30525,30529,30529,30536,30544,30544,30560,30560,30568,30568,30585,30592,30592,30602,30602,30608,30626,30635,30635,30640,30652,30656,30656,30672,30689,30697" d="M196.5,184.16667C195.2785,185.04533 194.3954,185.38266 193.828,185.81334C192.95065,186.47929 192.49181,186.81529 191.75067,187.34134C190.82976,187.995 190.16319,188.52148 189.5,189.16667C188.8918,189.75836 188.29546,190.36215 187.7,190.96667C187.01556,191.66153 186.6478,192.53201 186.14734,193.114C185.59238,193.75937 184.81078,193.82518 184.02083,194.1875C183.29016,194.52263 183.06549,195.56111 182.584,196.36534C182.13881,197.10895 181.51865,197.60211 181.5,198.46667C181.48064,199.36513 180.87228,199.91426 180.52083,200.6875C180.15694,201.4881 180.49992,202.46667 180.5,203.36667C180.50009,204.26666 180.7206,205.13335 181.07466,205.76666C181.55618,206.62793 181.25713,207.6015 181.5045,208.46217C181.72522,209.23007 182.48958,209.68732 182.5,210.56667C182.51067,211.46661 182.5,212.36667 182.5,213.26666C182.5,214.16667 182.5,214.96667 182.5,215.86667C182.5,216.80267 182.5,217.65201 182.5,218.57117C182.5,219.56534 182.5,220.33067 182.5,221.28267C182.5,222.05067 182.5,222.992 182.5,224C182.5,224.79201 182.5,225.65067 182.5,226.51401C182.5,227.53067 182.5,228.368 182.5,229.33333C182.5,230.16667 182.5,231 182.5,231.86217C182.5,232.76666 182.5,233.6875 182.5,234.65067C182.5,235.34134 182.5,236.4095 182.5,237.26683C182.5,238.052 182.5,239.00267 182.5,239.76801C182.5,240.76216 182.50009,241.50951 182.5,242.54134C182.49991,243.48801 182.6041,244.39 182.216,245.28134C181.89305,246.02309 181.50534,246.76662 181.5,247.6875C181.49442,248.65065 181.50011,249.34134 181.5,250.4095C181.49991,251.26666 181.33333,252.16667 180.85266,252.86667L180.5,253.66667L180.14734,254.46667L179.62151,255.26666" id="svg_8" stroke-width="3" stroke="#000" fill="none"/>
  <path t="32242,32392,32401,32425,32433,32433,32440,32448,32464,32464,32472,32488,32504,32521,32537,32547,32564,32564,32580,32597,32597,32608,32621,32648,32665,32673,32683,32702,32732,32743,32752,32752,32768,32792,32799,32799,32808,32843,32849,32874,32891,32892,32899,32899,32922,32936,32936,32948,32948,32955,32955,32960,32976,32976,32985,32985,33000,33000,33000,33009,33009,33023,33023,33032,33040,33050,33066,33072,33072,33083,33099,33104,33104,33134,33143,33144,33144,33162,33177,33185,33221,33240,33266,33266,33288,33288,33304,33312,33313,33328,33336,33336,33337,33337,33344,33344,33344,33359,33359,33359,33360,33360,33360,33370,33370,33370,33370,33376,33376,33384,33392,33408,33425,33526,33544,33544,33552,33561,33571,33571,33576,33577,33592,33592,33593,33608,33664,33665,33713,33738,33752,33752,33770,33873,33893,33897,33913,33938,33938,33950,33950,33956,33956,33960,33971,33976,33976,33989,33992,34006,34006,34016,34032,34193,34232,34248" d="M201.5,245.16667C201.5,243.46667 201.5,242.56667 201.5,241.64583C201.5,240.68266 201.5,239.992 201.5,238.92383C201.5,238.06667 201.5,237.16667 201.5,236.36667C201.5,235.46667 201.5,234.56667 201.5,233.66667C201.5,232.76666 201.5,231.86667 201.5,230.96667C201.5,230.0665 201.5,229.28134 201.5,228.34134C201.5,227.33333 201.5,226.47116 201.5,225.66667C201.5,224.76666 201.5,223.86667 201.5,222.96667C201.5,222.06667 201.22588,220.92833 201.72133,220.28799C202.21321,219.65227 202.33629,218.90938 202.72133,218.06667C203.02713,217.39737 203.41763,216.50148 203.936,215.76666C204.41069,215.0938 204.93008,214.48639 205.5,213.6875C205.97507,213.02156 206.1723,212.17699 206.66667,211.5C207.23979,210.71516 208.10266,210.55869 208.8,209.86667C209.30193,209.36859 209.98888,208.62151 210.82133,208.06667C211.47685,207.62976 212.36163,207.20123 212.97917,206.66667C213.63187,206.10167 214.17969,205.47296 215.02083,205.16667C215.96474,204.82295 216.68735,204.57625 217.47884,204.06683C218.1729,203.62013 219.04129,203.2756 219.76134,203.192C220.55037,203.10039 221.81691,202.89307 222.45833,202.66667C223.48431,202.30453 223.92734,201.79686 224.7215,201.28816C225.46817,200.80988 226.18327,200.7688 226.85716,200.21933C227.56056,199.6458 228.32596,199.51323 229.2,199.114C230.05031,198.7256 230.85184,198.40724 231.63867,198.14134C232.49059,197.85345 232.64568,196.76192 233.5,196.33333C234.23018,195.96701 235.33586,196.28477 235.97917,195.64583C236.62137,195.00798 236.89958,194.3105 237.7,193.88268C238.55586,193.4252 239.35568,193.11517 239.5,192.16667C239.62033,191.37576 239.5,190.53067 239.5,189.68266C239.5,188.81934 239.57307,187.74487 239.16667,186.83333C238.85121,186.12575 238.49324,185.61511 237.812,184.93466C237.1302,184.25366 236.27258,183.83214 235.72533,183.552C234.66255,183.00798 233.95636,182.515 233.31067,181.992C232.49899,181.33458 231.89786,180.91536 231.26401,180.54134C230.33675,179.99416 229.5479,179.51994 229.02083,179.16667C228.2636,178.65913 227.37857,177.83136 226.70267,177.45334C225.86101,176.98262 225.10556,176.73216 224.30133,176.25067C223.55771,175.80547 223.02049,175.17709 223.5,175.16667C224.29982,175.14929 225.18857,175.2457 226.02083,175.66667C226.81104,176.06638 227.71434,176.07648 228.616,176.45067C229.29306,176.73164 230.17354,177.01765 231.01601,177.25067C231.89703,177.49435 232.74609,177.96666 233.5,178.33333C234.26361,178.70473 235.26242,179.21959 235.48933,178.52C235.79973,177.56303 235.5,176.81934 235.5,175.80267C235.5,174.86667 235.1689,173.71387 235.78534,173.252C236.52158,172.70036 237.66896,173.21185 238.32533,173.15601C239.34166,173.06953 240.18239,172.56456 240.41467,171.68266C240.59161,171.01089 240.43706,169.88609 240.92534,169.18134C241.35974,168.55435 241.45433,167.77542 241.85266,166.92383C242.27872,166.01295 242.5,165.16667 242.5,164.36667C242.5,163.46667 242.5,162.56667 242.52083,161.6875L243.07466,161.10533L243.464,160.30533" id="svg_9" stroke-width="3" stroke="#000" fill="none"/>
  <path t="35241,35289,35298,35304,35325,35325,35333,35333,35333,35336,35354,35354,35362,35362,35368,35368,35379,35384,35400,35408,35422,35432,35440,35450,35464,35547,35667,35685,35698,35698,35728,35736,35736,35749,35753,35760,35776,35784,35784,35800,35822,35832,35840,35856,35872,35883,35899,35899,35904,35923,35932,35960,35984,35992,36008,36024,36024,36033,36050,36066,36083,36088,36104,36133,36133,36142,36152,36152,36162,36168,36176,36192,36208,36226,36234,36251,36256,36272,36296,36296,36312,36325,36336,36359,36370,36371,36376,36376,36385,36402,36408,36427,36440,36440,36452,36464,36473,36473,36480,36496,36496,36504,36512,36526,36529,36537,36537,36553,36560,36569,36587,36603,36608,36628,36640,36640,36656,36664,36672,36688,36688,36696,36712,36728,36737,36754,36760,36760,36770,36776,36787,36792,36792,36804,36804,36808,36828,36829,36840,36856,36864,36880,36896,36896,36905,36912,36929,36929,36944,36944,36960,36972,36977,36992,37000,37008,37016,37029,37032,37040,37057,37072,37089,37089,37096,37113,37128,37139,37156,37209,37224,37232,37289,37297,37320,37329,37414,37417,37456,37465,37488,37505,37527,37546,37568,37592,37592,37600,37616,37632,37672,38328" d="M248.5,88.16667C250.10001,88.74133 250.94319,89.05161 251.8,89.51933C252.54532,89.92619 253.32434,90.18163 254.26666,90.452C254.98798,90.65897 255.60867,91.01753 256.47916,91.64584C257.18588,92.15594 257.9325,92.13565 258.89868,92.452C259.689,92.71077 260.42084,93.35249 261.1955,93.8095C261.95361,94.25676 262.70328,94.70985 263.60001,95.04517C264.45065,95.36324 265.04529,95.61642 265.78534,96.08134C266.56219,96.56938 267.17661,96.73552 267.936,97.13067C268.70309,97.52982 269.70001,97.16667 270.60001,97.16667C271.5,97.16667 272.29999,97.16667 273.13599,97.16667C274.15268,97.16667 274.84732,97.16667 275.86401,97.16667C276.79999,97.16667 277.70001,97.16667 278.60001,97.16667C279.5,97.16667 280.29999,97.16667 281.20001,97.16667C282.10001,97.16667 283,97.16667 283.89999,97.16667C284.79999,97.16667 285.70001,97.16667 286.60001,97.16667C287.5,97.16667 288.29999,97.16667 289.20001,97.16667C290.10001,97.16667 291,97.16667 291.89999,97.16667C292.79999,97.16667 293.70001,97.16667 294.60001,97.16667C295.5,97.16667 296.29999,97.16667 297.20001,97.16667C298.10001,97.16667 299,97.16667 299.89999,97.16667C300.79999,97.16667 301.70001,97.16667 302.60016,97.16667C303.38535,97.16667 304.32535,97.16667 305.33334,97.16667C306.08932,97.16667 307.05972,97.47658 307.88934,97.156C308.68225,96.84961 309.2045,96.16892 310.10001,96.16667C311,96.16441 311.89999,96.16667 312.79999,96.16667C313.70001,96.16667 314.60001,96.16667 315.5,96.16667C316.29999,96.16667 317.20001,96.16667 318.10001,96.16667C319,96.16667 319.82803,96.25243 320.82132,95.94534C321.52225,95.72862 322.3222,95.25477 323.1955,95.17117C324.09589,95.08496 325.05258,95.45743 325.88934,95.156C326.65314,94.88087 327.03046,93.89116 327.85184,93.52383C328.71005,93.14003 329.60001,93.16667 330.5,93.16667C331.29999,93.16667 332.25717,93.16667 333.15268,93.16667C333.84732,93.16667 334.86401,93.16667 335.79999,93.16667C336.70001,93.16667 337.60001,93.16667 338.5,93.16667C339.29999,93.16667 340.20001,93.16667 341.10001,93.16667C342,93.16667 342.89999,93.16667 343.79999,93.16667C344.70001,93.16667 345.65427,92.9834 346.5,93.33334C347.28464,93.658 348.03204,94.10146 348.79999,94.51933C349.6409,94.97692 350.5,95.16667 351.29999,95.16667C352.20001,95.16667 353.10004,95.16134 354,95.16667C354.90005,95.172 355.62732,95.57555 356.5,96C357.15967,96.32085 357.92236,96.85286 358.79999,97.1095C359.66559,97.36263 360.61533,97.07636 361.38535,97.252C362.17902,97.43303 363.02109,97.96057 363.74283,98.46217C364.50549,98.9922 365.29999,99.166 366.20001,99.16667C367.10001,99.16734 368.03473,99.11381 368.79999,99.51933C369.64603,99.96766 370.39157,100.06931 371.31467,100.17734C372.27393,100.28959 372.54874,101.29366 373.14667,101.73067C373.87958,102.26633 374.84732,102.16361 375.86401,102.16667C376.69867,102.16918 377.23712,102.77839 377.936,103.13067C378.79742,103.56487 379.79999,103.16659 380.70001,103.16667C381.59982,103.16676 382.10864,103.67448 382.85718,104.1095C383.58755,104.53397 384.65427,103.9834 385.5,104.33334C386.28464,104.658 387.03204,105.10146 387.79999,105.51933C388.6409,105.97692 389.6489,105.82958 390.33334,106.33334C390.98633,106.81393 391.73422,106.91975 392.41599,107.45067C393.04257,107.93861 393.37717,108.88334 394.11066,109.156C394.92526,109.45881 395.10144,109.88086 395.53601,110.73067C395.89233,111.42748 396.48062,111.96821 396.5,112.86667C396.51865,113.73122 397.38724,113.7121 398.14282,114.281C398.79242,114.77007 398.48605,116.00013 398.5,116.756C398.51801,117.73116 399.14734,118.21934 399.49866,118.968L399.58533,119.88133L400.33334,120.33334" id="svg_10" stroke-width="3" stroke="#000" fill="none"/>
  <path t="41162,41272,41283,41299,41304,41322,41322,41330,41336,41354,41363,41363,41380,41380,41384,41392,41401,41429,41437,41456,41480,41489,41502,41528,41528,41539,41547,41552,41560,41568,41584,41593,41608,41622,41624,41632,41632,41656,41672,41672,41688,41703,41703,41705,41733,41741,41741,41741,41753,41760,41776,41776,41784,41792,41808,41824,41849,41856,41866,41872,41881,41899,41904,41904,41924,41928,41928,41936,41953,41960,41968,41976,41984,41992,42002,42008,42025,42034,42034,42056,42072,42087,42089,42112,42136,42143,42152,42169,42176,42192,42208,42226,42235,42235,42253,42256,42264,42272,42288,42304,42312,42326,42328,42344,42361,42370,42371,42386,42403,42408,42427,42456,42464,42496,42505,42512,42533,42540,42544,42553,42560,42570,42587,42604,42604,42608,42616,42630,42632,42632,42640,42648,42656,42664,42673,42673,42680,42688,42688,42696,42705,42705,42712,42712,42729,42744,42760,42760,42776,42816,42856" d="M366.5,179.16667C368.33334,179.33333 368.80801,179.93365 369.44733,180.51933C370.03058,181.05367 370.81659,181.50583 371.29999,181.968C372.00427,182.64134 372.34918,183.54347 372.936,184.15201C373.60355,184.84422 374.06641,185.37419 374.59982,186.14517C375.11154,186.88481 375.32007,187.77521 375.85718,188.46217C376.43878,189.20605 377.26697,189.47469 377.85266,190.114C378.38699,190.69725 378.93289,191.41789 379.33334,192.16667C379.75662,192.95811 380.53824,192.99312 381.29999,193.252C382.18793,193.55376 382.99518,193.96263 383.69867,194.452C384.48331,194.99782 384.91763,195.72108 385.37851,196.38817C385.88254,197.11769 385.94461,197.90585 386.44733,198.52383C387.01962,199.22731 387.65457,199.74088 388.21466,200.25067C388.86807,200.84543 388.8988,201.80133 389.216,202.68266C389.51968,203.52646 389.65332,204.52335 390.02084,205.14583C390.51392,205.98093 391.33536,206.40263 391.66666,207.33333C391.9053,208.00374 392.30966,208.67696 392.88934,209.53067C393.38583,210.26184 393.73029,211.12698 394.14734,211.86667C394.56738,212.61166 395.2999,213.15852 395.49551,213.87117C395.73279,214.73561 395.93161,215.56284 396.41599,216.36534C396.86301,217.106 397.87958,216.91989 398.44733,217.52383C399.06848,218.18457 399.52917,218.92252 400.20001,219.21933C401.04767,219.59438 401.80383,220.2903 402.21466,220.96667C402.68607,221.7428 403.2045,222.21933 404,222.66667C404.7955,223.114 405.51495,223.55424 406.07468,224.192C406.5921,224.78159 407.2908,225.26888 408,225.66667C408.88742,226.16444 409.64801,226.53409 410.29999,226.88268C411.1474,227.33575 412.02359,227.62708 412.7955,228.114C413.49792,228.5571 414.08255,228.85428 414.88934,229.17734C415.67847,229.49332 415.88785,230.47787 416.66666,231C417.37256,231.47325 418.04526,231.61646 418.78534,232.08133C419.56335,232.57004 420.45377,232.40878 421.20001,232.814C421.96112,233.22728 422.91736,233.25615 423.52533,233.74133C424.14984,234.23972 425.10004,234.16127 426,234.16667C426.8894,234.17201 427.44119,234.74402 428.11066,235.192C428.8461,235.68413 429.75363,235.9557 430.60001,236.388C431.25531,236.72272 432.10001,237.15594 433,237.16667C433.88934,237.17728 434.4527,237.79439 435.20532,238.114C436.11292,238.49942 436.66666,239 437.5,239.16667C438.33334,239.33333 438.78235,240.12395 439.70001,240.16667C440.59903,240.20853 441.64896,239.82948 442.33334,240.33333C442.98633,240.81406 443.31393,241.59053 443.78534,242.36667C444.19617,243.04305 444.99432,243.65504 445.69867,244.08267C446.44147,244.53363 446.75906,245.3903 447.30133,245.96667C447.96899,246.67633 449.05167,246.86505 449.44284,247.52383C449.92526,248.33626 449.69086,249.29268 450.2045,249.86667C450.86252,250.60201 451.60001,251.26666 452.10001,251.76666C452.79999,252.46667 453.50024,253.16643 454,253.66667C454.69901,254.36633 455.15179,254.99287 455.55267,255.86667C455.88547,256.59207 456.60001,257.26651 457.20001,257.80951L458.064,258.19199L458.58401,258.88266L459.30133,259.16534" id="svg_11" stroke-width="3" stroke="#000" fill="none"/>
  <path t="44801,44841,44856,44856,44869,44869,44872,44872,44872,44880,44881,44889,44896,44912,44912,44934,44934,44934,44952,44952,44960,44968,44984,44984,44992,45104,45112,45136,45152,45160,45176,45185,45192,45224,45236,45252,45256,45264,45280,45323,45336,45336,45384,45527,45576,45592,45608,45637,45648,45648,45648,45664,45680,45689,45705,45730,45730,45739,45744,45756,45760,45772,46000,46024,46033,46045,46045,46048,46048,46057,46057,46064,46064,46074,46074,46080,46090,46096" d="M406.5,116.16667C407.47916,118.66667 407.5,119.652 407.5,120.37733C407.5,121.36667 407.5,122.16667 407.5,123.16667C407.5,123.96667 407.5,124.76667 407.5,125.76217C407.5,126.68134 407.60025,127.6524 407.48932,128.57733C407.37799,129.50557 406.92404,130.16486 406.66666,131.16667C406.46451,131.95351 406.46259,132.7798 406.216,133.56534C405.97083,134.34644 405.76157,135.57751 405.14282,136.114C404.45767,136.70805 404.0553,137.13174 403.41599,137.88133C402.84811,138.54715 402.19946,138.9884 401.40018,139.16684C400.55682,139.35512 400.0835,140.15115 399.5,140.66667C398.86212,141.23022 398.2912,141.72612 397.62134,142.388C397.00458,142.99739 396.4523,143.52693 395.92532,144.192C395.42914,144.81822 395.57568,145.83307 395.064,146.56667C394.5929,147.24207 393.74457,147.7011 393.52084,148.66667C393.31766,149.54367 393.30194,150.48907 393.50134,151.36534C393.68439,152.16963 394.72327,152.0703 395.66666,152.33333C396.34833,152.52339 396.99115,153.01184 398.08932,153.15601C398.99231,153.27455 399.90814,153.28316 400.79999,153.16217C401.62134,153.05074 402.44562,152.69504 403.14282,152.114C403.73431,151.62106 403.96042,150.64307 404.44733,149.87117C404.89041,149.16873 405.66025,148.71716 406.14734,148.05684C406.63394,147.39719 406.62546,146.30974 407.02084,145.66667C407.54724,144.81055 407.95773,144.1398 408.5,143.33333C408.965,142.6418 409.59735,141.84377 410,141.16667C410.49673,140.33138 410.97916,139.6875 411.44733,138.87117L411.92532,138.192L412.5,137.66667" id="svg_12" stroke-width="3" stroke="#000" fill="none"/>
  <path t="46793,46833,46833,46833,46840,46856,46873,46873,46883,46883,46888,46898,46904,46936,46936,46952,46968,46968,47008,47025,47040,47064,47072,47088,47096,47122,47136,47147,47147,47164,47181,47192,47192,47200,47208,47222,47224,47233,47233,47240" d="M412.5,118.16667C414.14816,119.22917 414.66913,119.90919 414.93066,120.4C415.49609,121.46111 415.40363,122.38993 415.66666,123.33334C415.85672,124.01498 416.06613,125.1272 416.55267,125.805C417.01871,126.45419 417.15585,127.07064 417.58533,127.88133C418.03976,128.73911 418.48956,129.18735 418.5,130.28134C418.50842,131.16663 418.59561,131.96069 419,132.66667C419.4545,133.46011 419.5,134.36667 419.5,135.26666C419.5,136.16667 419.98318,136.77385 420.41467,137.452C420.90784,138.22705 420.5,139.26666 420.5,140.16667C420.5,140.96667 420.46381,141.92862 421.02084,142.66667C421.52319,143.33229 422.26099,143.81145 422.88934,144.56667C423.43549,145.2231 423.78534,146.08133 424.69867,146.16934L425.37866,146.60933L425.52533,147.31599L426.02084,148.125" id="svg_13" stroke-width="3" stroke="#000" fill="none"/>
  <path t="47304,47368,47376,47392,47400,47422,47432,47440,47456,47465,47465,47472,47472,47482,47488,47498,47498,47504,47504,47523,47523,47532,47532,47532,47533,47536,47536,47544,47544,47544,47552,47552,47560,47560,47568,47568,47576,47576,47584,47584,47592,47600,47600,47608,47624,47624,47633,47633,47640,47650,47656,47672,47672,47683,47683,47700,47704,47704,47724,47736,47752,47752,47768,47784,47784,47792,47802,47808,47825,47840,47851,47851,47867,47884,47884,47884,47888,47896,47904,47912,47912,47925,47928,47928,47944,47952,47952,47960,47968,47985,47992,48008,48027,48035,48036,48040,48053,48056,48064,48080,48080,48088,48096,48112,48112,48126,48126,48128,48136,48136,48144,48153,48160,48160,48169,48169,48176,48176,48186,48186,48192,48192,48203,48208,48228,48228,48237,48237,48240,48240,48248,48248,48256,48264,48264,48280,48296,48296,48304,48384,48392" d="M432.5,153.16667C433.72134,154.04533 434.40582,154.55354 434.92532,155.14134C435.44043,155.72417 435.5,156.66667 435.5,157.56667C435.5,158.46667 435.5,159.36667 435.5,160.26683C435.5,161.052 435.5,161.992 435.5,162.68266C435.5,163.756 435.5,164.57733 435.5,165.48801C435.5,166.34134 435.5,167.28267 435.5,168.05067C435.5,169.024 435.5,169.6855 435.5,170.80934C435.5,171.472 435.5,172.51601 435.5,173.19867C435.5,174.396 435.5,175.125 435.5,176.16667C435.5,176.96667 435.5,177.76666 435.5,178.76666C435.5,179.56667 435.5,180.56667 435.5,181.36667C435.5,182.36667 435.5,183.16667 435.5,184.16667C435.5,184.95599 435.5,186 435.5,186.86217C435.5,187.6875 435.5,188.65067 435.5,189.51401C435.5,190.4095 435.5,191.36667 435.5,192.26666C435.5,193.16667 435.5,193.96667 435.5,194.86667C435.5,195.76666 435.5,196.57733 435.5,197.48801C435.5,198.34134 435.5,199.28267 435.5,200.05067C435.5,200.992 435.5,202 435.5,202.86217C435.5,203.76666 435.5,204.57733 435.5,205.48801C435.5,206.34134 435.32159,207.33476 435.66666,208.16667C435.99197,208.95103 436.18024,209.72974 436.51068,210.556C436.82632,211.34528 437.46725,211.92563 437.936,212.56667C438.50549,213.34549 439.23087,213.83752 439.79999,214.47116C440.54208,215.29738 440.94064,215.97009 441.21466,216.68266C441.56805,217.60165 442.17548,218.08618 442.89999,218.60266C443.68555,219.16264 444.14841,219.64577 445,220.1875C445.74966,220.6644 445.96066,221.47862 446.79999,222.05684C447.51294,222.54799 447.96149,223.12186 448.55267,223.80949C449.11917,224.46843 449.89822,224.73898 450.47467,225.556C450.93906,226.2142 451.48972,226.84741 452.06799,227.36667C452.7243,227.95601 453.44879,228.54684 454,229.16667C454.53531,229.7686 454.94421,230.55898 455.59982,231.26666C456.14978,231.86031 456.43475,232.69873 456.85266,233.46667C457.31036,234.30777 457.52451,235.07649 457.936,235.992C458.25632,236.70465 458.96252,237.31516 459.33334,238.16667C459.65948,238.91565 459.49927,239.86667 459.5,240.80267C459.50067,241.65201 459.49713,242.58678 459.784,243.56667C459.96317,244.17868 460.3847,245.15987 460.46399,245.95599C460.5675,246.99548 460.5,247.79201 460.5,248.65067C460.5,249.51401 460.5,250.4095 460.5,251.36667C460.5,252.267 460.5,252.981 460.5,253.93466C460.5,254.916 460.5,255.83333 460.5,256.64584C460.5,257.65067 460.5,258.34134 460.5,259.40952C460.5,260.26685 460.5,261.052 460.5,261.992C460.5,263 460.5,263.75601 460.5,264.66666L460.48932,265.556L459.97916,266.14584" id="svg_14" stroke-width="3" stroke="#000" fill="none"/>
  <path t="49337,49384,49392,49400,49400,49416,49426,49427,49432,49432,49443,49443,49448,49460,49472,49480,49496,49519,49519,49520,49529,49544,49552,49568,49584,49600,49600,49618,49618,49627,49627,49644,49644,49656,49656,49672,49672,49682,49689,49704,49729,49729,49743,49744,49744,49751,49751,49751,49761,49767,49776,49795,49795,49800,49819,49819,49824,49824,49848,49856,49896,49922,49936" d="M334.5,196.16667C333.50449,197.86667 333.5,198.80267 333.5,199.65067C333.5,200.51401 333.5,201.54134 333.5,202.33333C333.5,203.16667 333.5,204.14534 333.5,204.91934C333.5,205.81934 333.5,206.68266 333.5,207.64583C333.5,208.56667 333.5,209.46667 333.5,210.36667C333.5,211.26666 333.5,212.16667 333.5,212.96667C333.5,213.86667 333.5,214.76666 333.5,215.66667C333.5,216.56667 333.5,217.46667 333.5,218.36667C333.5,219.26683 333.45914,220.05334 333.51068,221.00267C333.55237,221.77051 333.80688,222.78766 334.2045,223.50951C334.64737,224.31351 335.23618,224.89449 336.15268,225.46667C336.83261,225.89117 337.63486,226.3441 338.1955,226.86667C338.91647,227.5387 339.1185,228.62921 339.78534,229.08133C340.54819,229.59856 341.49518,229.39122 342.26935,230.02C342.77826,230.43333 343.2565,230.96111 344.33334,231.83333C344.80002,232.21132 345.71423,232.64893 346.33066,233.36534C346.88385,234.00826 347.76932,233.97778 348.60001,234.38817C349.29059,234.72932 349.79999,235.46667 350.5,236.16667C351.10001,236.76666 351.70456,237.36217 352.29999,237.96667C352.98441,238.66153 353.44733,239.46217 353.92532,240.14134L354.47916,240.6875L354.5,241.56667" id="svg_15" stroke-width="3" stroke="#000" fill="none"/>
  <path t="50586,50658,50658,50658,50658,50658,50658,50658,50658,50658,50668,50668,50668,50668,50668,50668,50668,50668,50668,50672,50672,50672,50672,50672,50684,50684,50688,50688,50688,50696,50696,50696,50704,50704,50711,50712,50725,50725,50725,50728,50728,50728,50736,50736,50744,50744,50744,50744,50752,50752,50760,50760,50768,50768,50776" d="M375.5,197.16667C375,201.5 374.83856,202.46619 374.64532,203.54533C374.43616,204.71356 374.20651,205.94342 373.95834,207.20833C373.70789,208.48477 373.45404,209.74596 373.18134,210.96133C372.68552,213.17099 372.43027,214.11075 372.18799,214.94C371.97357,215.67387 371.76202,216.31499 371.5625,216.875C371.38678,217.36816 371.21558,217.7971 371.07199,218.18001C370.82779,218.83127 370.73596,219.12192 370.66934,219.396C370.54883,219.8918 370.52942,220.57912 370.21466,221.56667C369.95239,222.3895 369.37891,223.35719 369.11066,223.97734C368.83499,224.61469 368.5813,225.85039 368.5,226.66667C368.4455,227.21382 368.2626,228.49959 367.97916,229.125C367.56732,230.03363 366.94202,230.65456 366.5,231.5C366.15796,232.15421 365.88284,232.93974 365.66666,234C365.47861,234.92236 365.51926,235.58156 365.21466,236.56801C364.95038,237.42395 364.48587,238.32816 364.2045,239.11934C364.01105,239.66328 363.7439,240.47552 363.55267,241.7095C363.45294,242.35301 363.27866,243.3665 363,244.14583L362.62149,245.14517L362.50134,245.96533L362.5,246.86667" id="svg_16" stroke-width="3" stroke="#000" fill="none"/>
  <path t="51586,51674,51680,51680,51693,51696,51717,51723,51728,51744,51920,51943,51960,51961,51979,52022,52034,52044,52064,52064,52080,52080,52082,52089,52089,52104,52104,52119,52120,52272,52297,52304,52324,52328,52328,52336,52336,52354,52354,52368,52368,52480,52496,52504,52524,52530,52535,52543,52639,52656,52672,52680,52688,52688,52800,52830,52936,52960,52968,52985,53048,53067,53084,53106,53136,53152,53168,53176,53184,53192,53200,53200,53208,53208,53208,53224,53225,53234,53234,53235,53356,53360,53376,53386,53408,53429,53435,53449,53455,53466,53472,53472,53472,53483,53488,53488,53488,53500,53500,53504,53504,53512,53592,53608,53632,53672,54000,54009,54033,54043,54048,54063,54071,54087,54088,54096,54123,54232,54232,54248,54256,54264,54277,54292,54296,54305,54335,54335,54341,54376,54376,54392,54405,54512,54544,54544,54576,54584,54648,54658,54679,54696,54720,54728,54728,54896,54923,54932,54944,54944,54952,54962,54968,54968,54979,54984,54984,54992,54992,55000,55144,55168,55184,55184,55199,55201,55224,55224,55224,55239,55240,55240,55304,55304,55328,55351,55367,55421,55439,55447,55479,55528,55536,55560,55579,55579,55595,55600,55640,55656,55663,55680,55697,55726,55726,55728,55728,55736,55746,55764,55768,55768,55781,55792,55807,55808,55824,55832,55832,55848,55865,55872,55952,55967,56026,56056,56056,56122,56135,56135" d="M224.5,202.16667C226.32533,202.16667 227.33333,202.16667 228.1955,202.16667C229.10001,202.16667 229.91737,202.25615 230.52533,202.74133C231.14983,203.23972 232.10002,203.16127 233,203.16667C233.88937,203.17201 234.48958,203.68733 234.5,204.66667C234.50957,205.56662 234.332,206.48277 234.50133,207.36534C234.64647,208.12181 235.7,208.16667 236.60017,208.16667C237.38533,208.16667 238.34576,208.26407 239.01601,208.08133C240.03583,207.80328 240.67024,206.92976 241.25717,206.46667C241.9489,205.9209 242.82751,205.50209 243.39017,204.87117C243.96568,204.22583 244.44119,203.40726 245.2045,203.17117C246.0609,202.9063 246.90881,202.73985 247.60001,202.06667C248.10657,201.5733 248.8045,200.86217 249.38533,200.28134C249.98399,199.68266 250.67801,198.99533 251.33333,198.33333C251.85602,197.80531 252.38185,196.82993 252.5,196.87567C253.33087,197.1974 252.21091,198.71864 252.51067,199.556C252.77441,200.29276 253.48459,200.99535 254.2045,201.16217C255.07742,201.36446 255.99953,200.7959 256.41599,199.96667C256.84247,199.11746 257.19705,197.92432 258.064,198.21333C258.81036,198.46214 258.4913,200.00964 259.30133,200.16533C260.12952,200.32451 260.58615,199.15778 261.41467,198.884C261.49606,198.8571 261.4946,199.76668 261.5,200.66667C261.50534,201.55605 262.02066,202.15625 262.89999,202.16667C263.79993,202.17734 264.7038,202.24879 265.60001,202.1665C266.51144,202.08282 267.14343,201.50124 268.04266,201.06683C268.73141,200.73412 269.5054,200.56146 270.53067,200.248C271.25674,200.02602 271.98401,199.31467 272.5,198.66667C273.01599,198.01866 273.97992,196.96274 274.44284,197.52383C275.04398,198.25244 274.37589,199.37529 274.50015,200.26649C274.61197,201.06825 275.6044,201.25536 276.5,201.16667C277.3457,201.08293 277.80185,200.29895 278.66666,200C279.33923,199.7675 280.06238,199.42593 280.87466,198.756C281.71933,198.05936 282.15265,197.51398 282.67465,196.992C283.47861,196.18811 283.96967,195.6452 284.82117,195.06667C285.4581,194.63393 285.87268,193.60663 286.72134,193.28833C287.43198,193.0218 287.5,194.36667 287.5,195.26666C287.5,196.16667 287.73209,196.98434 288.59982,197.16684C289.39203,197.33345 289.25467,198.39964 289.784,199.08267C290.27197,199.71236 290.85941,200.319 291.216,200.96667C291.6915,201.83034 292.2338,202.4584 292.66666,203.16667C293.08133,203.84515 293.98239,203.49576 294.47467,202.77733C294.92999,202.11284 295.49335,201.53897 295.92532,200.76666C296.38287,199.94859 297.04773,199.34769 297.41599,198.59734C297.76596,197.88423 297.99677,196.99797 298.33334,196.16667C298.63992,195.40948 298.53891,194.27773 299.30133,194.168C300.20917,194.03734 300.5,195.16667 300.5,195.96667C300.5,196.86667 300.44186,197.93533 301.2045,198.16217C302.06284,198.41748 303,198.16891 303.89999,198.16667C304.79999,198.16441 305.7171,197.90056 306.29999,197.36534C306.91879,196.79715 307.69699,196.20938 308.60001,196.16667C309.49899,196.12415 310.43103,196.56073 311.21466,196.08133C311.93817,195.63872 312.37552,194.78905 313.01733,194.36667C313.88419,193.7962 314.41565,193.05402 315.13599,192.60266C315.91299,192.1158 316.92191,192.25233 317.51468,191.556C318.08859,190.88185 318.59387,190.22755 319.5,190.16667C320.29819,190.11304 321.22726,190.15474 322.02084,189.64583C322.85284,189.11226 323.35175,188.76488 324.18668,188.28134C324.92575,187.85332 325.70166,187.33009 326.49017,186.8765C327.34357,186.38557 328.19098,186.17117 329.10001,186.16667C330,186.16222 330.93481,185.9238 331.7955,186.17117C332.56339,186.39188 333.02066,187.15625 333.89999,187.16667C334.79993,187.17734 335.70001,187.16667 336.60001,187.16667C337.5,187.16667 338.29999,187.16667 339.20001,187.16667C340.10001,187.16667 341,187.16667 341.89999,187.16667C342.79999,187.16667 343.70001,187.16667 344.60001,187.16667C345.5,187.16667 346.25717,187.16667 347.15268,187.16667C348.01599,187.16667 348.97916,187.16898 349.89999,187.16667C350.79999,187.16441 351.63837,186.78059 352.29999,186.45067C353.14337,186.03011 354.13599,186.16667 354.98401,186.16667C355.84732,186.16667 356.87045,186.34895 357.60001,185.724C358.121,185.27769 358.70328,184.35194 359.5,184.16667C360.38257,183.96144 360.78238,183.20947 361.70001,183.16667C362.59903,183.12474 363.5,183 364.064,182.556L364.52084,181.6875L365.20532,181.21933L365.93201,181.08267" id="svg_17" stroke-width="3" stroke="#000" fill="none"/>
  <path t="57209,57273,57273,57280,57280,57293,57293,57296,57307,57307,57312,57312,57340,57340,57359,57359,57359,57359,57364,57364,57368,57368,57376,57376,57392,57392,57400,57400,57415,57416,57432,57432,57448,57472,57480,57490,57496,57496,57513,57524,57524,57524,57528,57528,57528,57541,57541,57552,57552,57567,57568,57568,57576,57576,57592,57592,57600,57600,57600,57615,57616,57616,57616,57624,57625,57632,57632,57632,57641,57641,57648,57648,57648,57659,57659,57664,57664,57676,57677,57680" d="M198.5,123.16667C197.33333,124.16667 196.82768,124.76962 196.584,125.65067C196.35098,126.49312 196.16864,127.43114 195.69867,127.96533C195.03496,128.71974 194.36304,129.46855 194.02083,130.16667C193.62228,130.97971 193.53755,131.81366 193.21333,132.65334C192.91043,133.43784 192.33289,134.33305 192.01733,134.85066C191.52013,135.66624 190.9738,136.44965 190.67067,137.48134C190.47984,138.13078 190.55315,139.16919 190.48933,139.95599C190.40401,141.00813 189.88956,141.62428 189.62134,142.48801C189.36455,143.3149 189.14969,144.24916 188.85266,144.91934C188.46712,145.78928 188.50226,146.57115 188.5,147.56534C188.49786,148.50951 188.49991,149.4095 188.5,150.36667C188.50009,151.26649 188.77007,151.94034 189.60001,152.388C190.24765,152.73732 191.0645,153.13492 191.83333,153.5C192.52916,153.83041 193.26697,154.32773 194.16667,155C194.8526,155.51253 195.36017,156.00255 196.336,156.56667C196.8925,156.88837 197.89999,157.36667 198.5,157.66667C199.5,158.16667 200.30008,158.56651 200.89999,158.86667C201.8988,159.36641 202.52299,159.59911 203.47867,160.26683C204.0278,160.65051 204.81252,161.49701 205.32533,161.98134C205.83867,162.46617 206.80388,162.95851 207.66667,163.5C208.38168,163.94875 208.84845,164.51736 209.616,165.28267C210.12608,165.79126 210.82133,166.48801 211.32533,166.992C212.01601,167.68266 212.7471,168.41423 213.25267,168.91934C213.985,169.651 214.50003,170.19107 215.10133,170.68266C215.87328,171.31375 216.68044,171.73067 217.47867,172.26649C218.13959,172.71014 218.98267,173.08267 219.79016,173.21933L220.51466,173.77733" id="svg_18" stroke-width="3" stroke="#000" fill="none"/>
  <path t="59233,59324,59324,59337,59344,59365,59370,59383,59400,59400,59425,59496,59537,59584,59584,59608,59628,59640,59640,59664,59672,59752,59848,60074,60090,60096,60111,60132,60139,60184,60208,60239,60240,60257,60296" d="M126.5,91.16667C127.5,92.16667 128.28812,92.27275 129,92.66667C129.88597,93.15692 130.81604,92.99895 131.69867,93.168C132.45641,93.31312 132.58476,94.43329 133.30133,94.88133C134.09966,95.38049 135.10001,95.16667 135.91066,95.16667C136.82133,95.16667 137.67467,95.16667 138.61467,95.16667C139.60001,95.16667 140.5,95.16667 141.3,95.16667C142.2,95.16667 143.10001,95.16667 144,95.16667C144.89999,95.16667 145.791,95.16667 145.791,95.16667C144.89999,95.16667 144,95.16667 143.10001,95.16667C142.2,95.16667 141.3,95.16667 140.39999,95.16667C139.5,95.16667 138.7,95.16667 137.8,95.16667L136.89999,95.16667" id="svg_19" stroke-width="3" stroke="#000" fill="none"/>
  <path t="62083,62168,62192,62208,62233,62241,62263,62264,62284,62287,62303,62311,62328,62336,62392,62432,62432,62440,62472,62489,62530,62543,62559,62568,62585,62622,62639,62651,62655,62671,62687,62695,62703,62703,62727,62775,62775,62808,62841,62855,62871,62887,62887,62911,63112,63138,63168,63216,63320,63328,63344,63377,63514,63527,63559,63632,63656,63664,63689,63725,63880,63917,63929,63936,63951,63961,63968,63983,63994,63999,64024,64047,64079,64105,64119,64135,64159,64168" d="M131.5,72.16667C133.3,72.16667 134.28227,71.83294 135.064,72.20267C135.80487,72.55307 136.36195,73.11649 137.33333,73.16667C138.19624,73.21125 138.92258,73.85217 139.8,74.1095C140.66417,74.36295 141.17662,74.73552 141.936,75.13067C142.70311,75.52984 143.75729,75.00296 144.60001,75.388C145.2693,75.6938 145.94176,76.30391 146.584,76.88267C147.23357,77.46803 147.78236,78.12395 148.7,78.16667C149.59903,78.20852 150.6489,77.82959 151.33333,78.33334C151.98633,78.81393 152.73216,78.92242 153.416,79.45067C154.04349,79.93538 154.8,80.16667 155.7,80.16667C156.60001,80.16667 157.5,80.16667 158.3,80.16667C159.136,80.16667 159.98399,80.16667 160.84734,80.16667C161.864,80.16667 162.8,80.16667 163.7,80.16667C164.60001,80.16667 165.5,80.16667 166.3,80.16667C167.2,80.16667 168.17195,79.83855 168.97917,80.1875C169.69315,80.49615 170.20457,81.15382 171.10001,81.16667C171.97932,81.1793 172.65883,81.68477 173.216,82.25067C173.87668,82.92168 174.73424,82.91974 175.416,83.45067C176.04257,83.93861 176.57758,84.59274 177.07466,85.192C177.58476,85.80695 177.662,86.68341 178.216,87.25067C178.87398,87.92439 179.36342,88.49272 179.92534,89.14133C180.43465,89.72923 180.58948,90.58404 181.07466,91.192C181.57304,91.8165 181.63741,92.61977 182.216,93.25067C182.85251,93.94473 183.25955,94.48033 183.50133,95.36533C183.71927,96.1631 184.464,96.60267 184.5,97.46667L184.5,98.36667L184.5,99.26667" id="svg_20" stroke-width="3" stroke="#000" fill="none"/>
  <path t="66624,66703,66718,66719,66727,66735,66743,66759,66776,66776,66793,66793,66799,66799,66817,66827,66831,66843,66847,66860,66871,66903,66935,66935,66951,66967,66977,66994,67018,67028,67028,67040,67040,67047,67055,67063,67063,67071,67071,67079,67079,67087,67103,67103,67119,67119,67135,67135,67151" d="M191.5,74.16667C194.08934,74.16667 195.05197,73.87759 195.88933,74.17734C196.62608,74.44108 196.95839,75.3935 197.584,75.88267C198.25439,76.40685 199.34508,76.11276 200.10133,76.252C201.11496,76.43862 201.86238,76.8419 202.61467,77.36533C203.31798,77.85468 204.11778,78.15826 204.89999,78.592C205.72014,79.04678 206.60439,79.07799 207.5,79.16667C208.34569,79.25041 208.782,80.12395 209.60001,80.16667C210.49878,80.21362 211.3,80.16667 212.2,80.16667C213.10001,80.16667 214,80.16891 214.89999,80.16667C215.80452,80.16442 216.66667,80 217.5,79.66667C218.33333,79.33334 219.19699,79.11668 220,78.66667C220.8015,78.21751 221.49113,77.82659 222,77.16667C222.59,76.40154 223.41153,76.14809 224.14816,75.8095C224.96571,75.43372 225.49133,74.47364 226.21434,74.21934C227.06219,73.92112 228.0955,73.8095 228.664,73.556L229.61467,72.968L230.1955,72.52383L231.064,72.14133" id="svg_21" stroke-width="3" stroke="#000" fill="none"/>
  <path t="69418,69718,69731,69768,69832,69848,69864,70144,70165,70192,70209,70234,70248,70280,70322,70336,70354,70408,70432,70560,70584" d="M117.5,81.16667C115.7,81.16667 115.02599,81.36987 114.33334,82C113.73359,82.54562 113.89468,83.5495 113.21467,84.08134C112.49314,84.64564 112.12135,84.17194 113,84.16667C113.88938,84.16133 114.51284,83.49149 115.20533,83.21934C116.12304,82.85868 116.81298,82.41485 117.416,81.88267C118.05783,81.31623 118.8,81.16667 119.69867,81.16534L120.44733,80.814L121,80.16667" id="svg_22" stroke-width="3" stroke="#000" fill="none"/>
  <path t="72560,72727,72736,72746,72746,72752,72752,72762,72762,72762,72768,72768,72768,72781,72781,72781,72784,72784,72799,72799,72801,72801,72819,72819,72828,72828,72828,72831,72831,72831,72839,72839,72839,72847,72847,72855,72855,72863,72863,72871,72887,72895,73120,73133,73135,73147,73151,73167,73167,73167,73168,73168,73181,73181,73181,73184,73184,73184,73184,73191,73192,73199,73199,73208,73208,73224,73231,73231,73239,73247,73354,73366,73383,73392,73392,73408,73432,73504,73530,73541,73541,73541,73544,73544,73554,73559,73567,73575,73672,73687,73768,73776,73791,73800,73807,73808,73832,73832,73832,73841,73841,73841,73841,73841,73841,74000,74000,74000,74055,74073,74160,74175,74188,74192,74208,74238,74238,74247,74247,74249,74265,74400,74435,74552,74552,74560,74573,74589,74592,74592,74599,74600,74609,74616,74616,74635,74636,74636,74641,74641,74641,74641,74641,74647,74647,74655,74655,74663,74663,74735,74754,74772,74783,74791,74807,74815,74839,74856,74856,74863,74879,74889,74895,74914,74914,74923,74923,74940" d="M149.5,264.16666C151.3,264.16666 152.136,264.16666 152.98534,264.16666C153.9045,264.16666 154.89999,264.16666 155.7,264.16666C156.70016,264.16666 157.52083,264.16666 158.18533,264.16666C159.18533,264.16666 160.02083,264.16666 160.90134,264.16666C161.79967,264.16666 162.67867,264.16666 163.48567,264.16666C164.69017,264.16666 165.38266,264.16666 166.336,264.16666C167.10133,264.16666 168.10001,264.16718 168.89999,264.16666C169.90134,264.16599 170.74306,264.17374 171.66667,264C172.46045,263.85068 173.26503,263.54877 174.33333,263.33334C175.04211,263.1904 175.95978,263.15076 176.92134,262.94534C177.73251,262.77206 178.53896,262.47821 179.57834,262.28799C180.24898,262.16525 181.32814,261.98944 182,261.66666C182.81508,261.27509 183.67529,261.20102 184.47917,260.66666C185.14449,260.2244 186.05774,260.47144 186.88933,260.15601C187.6185,259.87943 187.43773,258.59241 188.02083,258.16666C188.82109,257.58231 189.67599,257.18124 190.32533,256.75601C191.02643,256.29688 191.5742,255.64638 192.16133,254.992C192.78973,254.29163 193.51428,253.92833 194.28534,253.54134C195.33955,253.01222 196.04671,252.51883 196.47917,252.16667C197.10435,251.65758 198.11926,250.95284 198.664,250.54134C199.51888,249.89557 199.94637,249.14525 200.5,248.33333C200.95305,247.66891 201.28448,246.79066 201.7215,246.06683C202.15829,245.34334 203.21368,245.58719 204.064,245.13066C204.71271,244.78238 204.5,245.36667 204.5,246.26666C204.5,247.16667 204.5,247.96667 204.5,248.86667C204.5,249.76666 204.61478,250.86098 205.14667,250.50934C205.93642,249.98723 206.50021,249.1425 207.10133,248.65067C207.87219,248.01996 208.72443,247.67332 209.33067,246.968C209.8838,246.32448 210.21104,245.76456 210.5045,244.87117C210.7482,244.12924 211.1031,244.78233 211.52083,245.64583C211.86044,246.34787 213.01318,246.30986 213.89999,246.15601C214.73506,246.01114 215.24133,245.38861 215.99066,244.68001C216.59175,244.11157 217.11171,243.67247 218.16667,243C219.01817,242.45723 219.50504,242.21645 219.99066,241.952C220.96043,241.42389 221.44745,241.20369 222.66667,240.5C223.52534,240.00441 224.12914,239.36389 225.10001,239.17734C225.98389,239.00749 227.1465,238.98215 227.47917,239.6875C227.85431,240.48289 227.5,241.46667 227.5,242.368C227.5,243.33333 227.5,243.992 227.5,245C227.5,245.86217 227.4946,246.76668 227.5,247.66667C227.50534,248.55605 228.04242,249.12444 228.98267,249.168C229.79123,249.20546 230.60371,249.64206 231.14734,250.21933C231.79016,250.90193 232.5,251.16667 233.25717,251.16667C234.15266,251.16667 235.01601,251.16734 236,251.16667C236.98534,251.166 237.72826,251.20766 238.7005,250.94501C239.34769,250.77017 240.06921,250.39972 241,250C241.74886,249.67841 242.5677,249.34686 243.388,248.992C244.16495,248.65588 245.13322,248.21825 245.9375,247.6875C246.68541,247.19395 247.2841,246.66849 248.33333,246.33333C249.06866,246.09843 250.21275,246.04817 250.48933,246.77733C250.80476,247.60892 250.5,248.56667 250.5,249.46667C250.5,250.36667 250.18091,251.46451 250.78534,252.08267C251.39359,252.70473 252.31554,252.84515 253.10001,253.192C253.91803,253.55368 254.70464,254.04173 255.60001,254.16684C256.50647,254.29349 257.10001,254.77733 257.8045,255.46217L258.38535,255.88133L259.32535,256.13068" id="svg_23" stroke-width="3" stroke="#000" fill="none"/>
  <polyline timestamps="75718,75776" startTime="1501993513692" id="svg_24" points="163.5,256.1666679382324 161.79999999999998,256.1666679382324 " stroke-linecap="round" stroke-width="3" stroke="#000" fill="none"/>
  <path t="76488,76623,76637,76637,76640,76651,76651,76671,76671,76672,76672,76688,76688,76696,76696,76703,76711,76911,76943,76954,76959,76967,76967,76975,76975,76985,76991,76991,77003,77007,77028,77039,77039,77047,77047,77127,77143,77151,77159,77170,77175,77187,77191,77191,77204,77207,77207,77229,77231,77231,77255,77255,77272,77279,77480,77490,77507,77540,77540,77540,77549,77549,77549,77549,77555,77555,77555,77555,77559,77567,77567,77575,77639,77647,77647,77655,77663,77673,77679,77689,77695,77777,77784,77793,77800,77816,77817,77817,77831,77831,77896,77921,77935,77943,77951,77959,77967,77983,77999,78017,78017,78025,78025,78031,78041" d="M327.5,246.16667C328.38666,247.16533 329.32544,247.17825 330.01599,247.16667C331.08978,247.14867 331.89691,246.69098 332.47067,246.36534C333.46786,245.79938 334.23615,245.55276 335.16666,245.33333C335.97009,245.14386 336.99142,245.23734 337.67465,245.13066C338.63428,244.98083 338.88406,244.146 339.58401,243.452C340.13187,242.90881 341.2265,242.98293 342.10001,243.20267C342.96283,243.41972 343.79218,243.88754 344.59982,244.38834C345.25064,244.7919 345.37936,245.8331 345.55267,246.51401C345.82224,247.57307 346.28506,248.34474 346.5,249.14583C346.7326,250.01279 347.40054,250.52783 347.50134,251.368C347.61801,252.34041 347.98578,252.96959 348.33334,254C348.60001,254.79059 349.2045,255.16441 350.10001,255.16667C351,255.16893 351.84357,255.09972 352.52533,254.592C353.16614,254.11479 354.17432,254.17284 354.70001,253.59866C355.29565,252.94807 355.93024,252.28467 356.82117,251.94518C357.49667,251.68777 358.04889,250.83775 358.83334,250.33333C359.42834,249.95071 360.45316,249.89949 361.1955,249.51933C362.03857,249.08759 362.67194,248.01933 363.37866,248.388C364.09134,248.75975 364.70157,249.18901 365.66666,249.16667C366.35788,249.15067 367.05399,249.06862 368.14267,248.50233C368.83057,248.14452 369.50958,247.63768 370.19467,247.11034C371.18076,246.35132 371.7272,245.85376 372.21735,245.424C372.83282,244.88435 373.82257,244.4352 374.59982,243.94518C375.31473,243.49446 375.65552,241.9017 376.33334,242.33333C377.0502,242.78981 376.5,243.96667 376.5,244.86667C376.5,245.76666 376.5,246.66667 376.5,247.56667C376.5,248.46667 376.44882,249.36812 376.5,250.26634C376.51804,250.58287 377.24011,250.36095 378.13599,250.09467C378.88309,249.8726 379.50531,249.12706 380.10132,248.64934C380.87787,248.02692 381.41656,247.23235 382.38568,246.87567C382.57321,246.80666 383.2518,247.47964 383.784,248.08267C384.35043,248.7245 384.24536,249.73558 384.936,250.13066C385.68661,250.56004 386.70132,250.21519 387.60016,250.1665C388.38879,250.12378 389.32535,249.74133 390.01599,249.45067L390.97916,249.1875L391.88934,249.15601" id="svg_25" stroke-width="3" stroke="#000" fill="none"/>
  <path t="78560,78623,78625,78636,78640,78649,78649,78655,78655,78655,78663,78663,78663,78671,78671,78679,78679,78679,78699,78699,78703,78767,78792,78802,78808,78830,78835,78835,78855,78863,78863,78887,78896,78903,78921,78931,78931,78931,78949,78949,78949,78951,78963,79064,79088,79152,79152" d="M420.5,260.16666C422.20001,260.16666 423.20001,260.16666 424.10001,260.16666C424.91068,260.16666 425.82166,260.16666 426.54166,260.16666C427.66666,260.16666 428.45267,260.16666 429.27466,260.16666C430.33334,260.16666 431.0499,260.23083 431.89551,260.1095C432.91513,259.9632 433.70212,259.56027 434.5,259.16666C435.30212,258.77097 436.09653,258.35962 436.89868,257.96799C437.66077,257.59592 438.73959,257.46545 439.37866,256.94534C440.04532,256.40277 440.35098,256.70154 440.51068,257.56668C440.66412,258.39804 441.25586,259.19583 441.55267,259.86667C441.9277,260.71432 442.61343,261.48779 443.29999,261.88135C444.03381,262.302 445,262.16666 445.89999,262.16666C446.80899,262.16666 447.83353,262.17813 448.50983,262.16217C449.28577,262.14386 450.3461,262.04169 451.25333,261.74133C452.02579,261.4856 452.86349,261.18466 453.79999,261.16666C454.69986,261.14935 455.60001,261.16666 456.5,261.16666L457.29999,261.16666" id="svg_26" stroke-width="3" stroke="#000" fill="none"/>
  <path t="84217,84287,84317,84320,84335,84367,84377,84479,84495,84504,84529,84632,84672,84683,84688,84704,84784,84820,84824,84839,84853,84868,84984,85008,85144,85152,85166,85225,85280,85288,85301,85304,85329,85338,85338,85424,85480,85488,85524,85609,85784,85804,85928,85938,85954,85960,85984,86088,86228,86247,86247,86263,86263,86275,86276,86280,86280,86296,86313,86313,86339,86340,86439,86457,86474,86474,86479,86480,86493,86493,86496,86523,86523,86536,86536,86551,86551,86551,86687,86695,86723,86730,86735,86751,86762,86767,86783,86795,86871,86893,86895,86922,86935,86935,86935,86967,86967,86983,86999,87023,87031,87032,87032,87045,87045,87062,87063,87117,87167,87255" d="M126.5,189.16667C128.3,189.16667 129.20001,189.16068 130.10001,189.16667C130.90004,189.17201 131.90341,189.44717 132.33333,190.16667C132.7937,190.93713 133.60439,191.07799 134.5,191.16667C135.34569,191.25041 135.71756,192.25475 136.59984,192.1665C137.45885,192.08058 137.27141,190.94632 137.784,190.25067C138.29306,189.5598 139.22417,189.07526 139.48933,189.77733C139.80359,190.60938 139.56535,191.6041 140.07466,192.192C140.63658,192.84062 141.1069,192.68306 141.78534,192.252C142.55948,191.76013 143.28738,192.54938 143.50133,193.36534C143.709,194.15742 144.5538,193.72006 145.07466,193.14134C145.64874,192.50346 146.38989,192.06372 146.88933,191.30533C147.29205,190.69379 147.40961,189.65591 147.50017,190.26649C147.61893,191.06725 148.56879,191.05202 149.41467,190.884C149.55467,190.8562 150.1862,191.58904 150.44284,192.46667C150.69595,193.33223 150.25575,194.39882 150.784,195.08267C151.26871,195.71017 151.24669,196.50391 151.50267,197.36534C151.73332,198.14154 152.74919,198.29518 153.616,197.88C154.33241,197.53687 154.96542,196.66396 155.5,196.1875C156.30649,195.4687 157.15479,195.2592 157.89999,194.73067C158.57167,194.25429 159.04865,193.51047 159.8045,192.87117C160.35141,192.4086 161.54016,191.752 162.257,192.38817C162.86697,192.9295 162.5,194.052 162.5,194.82384C162.5,195.76801 162.5,196.76216 162.5,197.50951C162.5,198.53067 162.5,199.36934 162.5,200.13733C162.5,201.1765 162.5,201.952 162.5,203C162.5,203.705 162.12685,204.76581 162.52083,205.625C162.85164,206.34642 164.05197,206.45576 164.88933,206.15601C165.62608,205.89226 166.1515,205.11656 166.55267,204.46217C167.02576,203.69049 167.82652,203.38979 168.69867,203.16533C169.49957,202.95921 170.20872,202.08128 170.48933,202.77733C170.83798,203.64217 170.82248,204.50612 171.20534,205.172C171.63721,205.92311 171.99663,206.92667 172.47917,207.60417C172.96568,208.28726 174.01927,208.33293 174.91066,208.14534C175.711,207.97691 176.32518,207.29251 176.9045,206.81483C177.68564,206.17073 178.44209,205.60883 179.33333,205.33333C180.17148,205.07423 181.10001,205.16667 182,205.16667L182.89999,205.16667" id="svg_27" stroke-width="3" stroke="#000" fill="none"/>
 </g>
</svg>