<svg width="280" height="420" xmlns="http://www.w3.org/2000/svg" xmlns:svg="http://www.w3.org/2000/svg" xmlns:xlink="http://www.w3.org/1999/xlink">
 <!-- Created with SVG-edit - http://svg-edit.googlecode.com/ -->
 <g display="inline" class="layer">
  <title>Layer 1</title>
  <path t="0,872,872,913,935,987,1011,1050,1051,1097,1145,1176,1231,1231,1264,1296,1336,1336,1348,1367,1389,1406,1406,1416,1416,1449,1449,1449,1472,1473,1489,1529,1580,1622,1639,1662,1703,1703,1718,1743,1797,1844,1898,1898,1979,1979,2045,2045,2097,2179,2242,2297,2297,2338,2338,2363,2414,2496,2496,2565,2565,2597,2679,2720,2745,2909,2909,2971,2971,3045,3045,3367,3415,3480,3480,3627,3673,3673,3693,3693,3765,3831,3831,3864,3864,3904,3904,3919,3935,3992,4024,4024,4072,4072,4130,4197,4212,4296,4332,4380,4380,4403,4422,4452,4483,4497,4513,4527,4527,4545,4546,4560,4576,4603,4621,4639,4651,4672,4672,4683,4705,4723,4723,4739,4756,4756,4773,4773,4789,4789,4806,4823,4823,4838,4839,4856,4856,4872,4883,4883,4906,4922,4922,4942,4942,4979,4980,5019,5036,5036,5083,5099,5123,5171,5171,5204,5227,5242,5255,5274,5291,5292,5306,5324,5338,5356,5372,5387,5406,5407,5419,5453,5484,5515,5535,5563,5563,5575,5575,5575,5576,5612,5612,5612,5613,5613,5634,5634,5641,5675,5675,5715,5736,5762,5787,5812,5813,5875,5900,5948,5948,5972,5998,6017,6017,6038,6068,6068,6094,6117,6140,6179,6179,6211,6265,6316,6348,6404,6421,6468,6539,6540,6566,6943,6991,7004,7039,7114,7115,7354,7437,7486,7503,7504,7542,7569,7575,7609,7669,7709,7709,7749,7749,7815,7815,7877,7895,7933,7996,8046,8061,8061,8117,8141,8157,8185,8237,8237,8237,8285,8309,8329,8329,8357,8381,8428,8429,8453,8500,8548,8567,8613,8613,8653,8653,8675,8675,8696,8717,8740,8741,8773,8773,8798,8821,8853,8853,8892,8911,8912,8934,8950,8977,8978,9000,9023,9023,9034,9070,9091,9092,9108,9108,9140,9141,9164,9174,9200,9236,9236,9265,9288,9288,9289,9309,9335,9372,9388,9405,9435,9459,9460,9460,9468,9500,9527,9527,9551,9551,9578,9579,9579,9589,9624,9625,9661,9661,9662,9681,9704,9727,9737,9737,9773,9773,9801,9816,9817,9855,9856,9878,9879,9889,9918,9919,9956,9957,9989,9989,10020,10052,10053,10077,10109,10128,10152,10171,10199,10234,10234,10257,10258,10284,10285,10285,10317,10317,10339,10340,10340,10364,10392,10402,10402,10438,10439,10464,10464,10465,10500,10533,10534,10565,10596,10597,10618,10627,10661,10662,10662,10685,10719,10733,10734,10774,10799,10799,10837,10838,10838,10865,10874,10875,10907,10944,10944,10964,10988,11016,11017,11027,11028,11069,11069,11070,11070,11090,11091,11092,11092,11092,11093,11093,11094,11126,11127,11147,11148,11171,11172,11200,11200,11222,11223,11224,11252,11253,11278,11279,11325,11325,11344,11372,11397,11398,11408,11408,11409,11446,11447,11447,11470,11471,11471,11472,11485,11486,11486,11516,11517,11517,11549,11550,11550,11560,11561,11600,11601,11623,11650,11684,11707,11708,11716,11757,11783,11784,11807,11844,11856,11857,11890,11915,11915,11925,11926,11926,11967,11968,11968,11999,12000,12024,12025,12025,12046,12046,12069,12109,12109,12129,12154,12178,12186,12224,12224,12252,12253,12280,12281,12281,12308,12309,12310,12340,12341,12364,12374,12436,12437,12513,12529,12575,12594,12627,12745" d="M257.5,376.5C256.5,377.5 256.69595,378.33441 256.44284,379.20001C256.18619,380.07764 255.61949,380.80621 255.49867,381.70001C255.38925,382.50955 254.70502,383.15372 254.52083,384C254.33157,384.86954 253.80536,385.50586 253.55267,386.20984C253.27599,386.98065 252.94473,387.90805 252.2045,388.45184C251.59023,388.90311 251.72743,389.88266 251.4955,390.73834C251.27362,391.55692 250.61397,392.08429 250.13834,392.8045C249.70686,393.45782 248.83029,394.14157 248.32533,394.71066C247.64301,395.47964 247.26949,396.10309 246.8045,396.84283C246.31418,397.62289 245.86597,398.33319 245.44733,399.20001C245.05202,400.01852 244.14876,400.37662 243.52533,400.92532C242.94087,401.43976 242.51137,402.18661 241.79466,402.79999C241.25351,403.26312 240.51894,403.84958 239.92534,404.52533C239.43781,405.08032 239.07317,405.90881 238.39999,406.60001C237.80797,407.20789 237.15894,407.77155 236.7,408.38535C236.0376,409.27127 235.74316,409.99493 234.89999,410.51468C234.13452,410.98654 233.30341,411.45728 232.5,411.5C231.61592,411.54703 230.67458,411.48843 229.98399,411.5C228.9102,411.51801 228.26363,412.0033 227.33333,412.33334C226.53603,412.61621 225.5215,412.5 224.70134,412.5C223.89999,412.5 222.98392,412.34097 222.10001,412.51068C221.15289,412.6925 220.52946,413.53262 219.97917,414C219.21666,414.64761 218.47455,414.95984 217.66667,415.5C216.99815,415.94699 216.20135,416.47141 215.3,416.5C214.40028,416.52853 213.61467,416.5 212.67467,416.5C211.66667,416.5 210.87466,416.5 210.01601,416.5C209.15266,416.5 208.25267,416.5 207.33333,416.5C206.5,416.5 205.52133,416.5 204.74733,416.5C203.84734,416.5 202.96446,416.32672 202.02083,416.52084C201.15363,416.69925 200.40611,417.43912 199.5,417.5C198.74454,417.55075 197.84734,417.5 196.98399,417.5C196.02083,417.5 195.10001,417.5 194.2,417.5C193.3,417.5 192.39999,417.5 191.5,417.5C190.7,417.5 189.8,417.5 188.89999,417.5C188,417.5 187.10001,417.5 186.2,417.5C185.3,417.5 184.39983,417.5 183.61467,417.5C182.67467,417.5 181.98399,417.5 180.91066,417.5C180,417.5 179.10001,417.5 178.2,417.5C177.3,417.5 176.39999,417.5 175.5,417.5C174.7,417.5 173.8,417.5 172.97917,417.5C172.01601,417.5 171.15266,417.5 170.25267,417.5C169.33333,417.5 168.5,417.5 167.52133,417.5C166.74733,417.5 165.84734,417.5 164.98399,417.5C164,417.5 163.1785,417.5 162.28934,417.5C161.30017,417.5 160.52083,417.5 159.5215,417.5C158.70134,417.5 157.864,417.5 156.84734,417.5C156.15266,417.5 155.12534,417.5 154.17867,417.5C153.5,417.5 152.384,417.5 151.616,417.5C150.67467,417.5 149.98399,417.5 149,417.5C148.01601,417.5 147.15266,417.5 146.25717,417.5C145.3,417.5 144.39999,417.5 143.5,417.5C142.7,417.5 141.8,417.5 140.89999,417.5C140,417.5 139.09184,417.38348 138.2,417.50449C137.37865,417.61591 136.73314,418.34586 135.89999,418.48932C135.013,418.64206 134.10001,418.5 133.2,418.5C132.3,418.5 131.39999,418.5 130.5,418.5C129.7,418.5 128.8,418.5 127.9,418.5C127,418.5 126.1,418.5 125.1955,418.5C124.17834,418.5 123.45834,418.5 122.33334,418.5C121.53384,418.5 120.9375,418.5 119.928,418.5C118.75767,418.5 118.33466,418.5 117.47066,418.5C116.62267,418.5 115.83867,418.5 114.42867,418.5C113.70533,418.5 112.74284,418.5 111.84734,418.5C110.984,418.5 110.02084,418.5 109.2,418.5C108.3,418.5 107.4,418.5 106.5,418.5C105.7,418.5 104.8,418.5 103.864,418.5C103.016,418.5 102.15266,418.5 101.136,418.5C100.3,418.5 99.39982,418.50446 98.61467,418.5C97.67462,418.49466 96.6636,418.33923 96.02084,418C95.19599,417.56467 94.3,417.5 93.4,417.5C92.5,417.5 91.7,417.5 90.8,417.5C89.9,417.5 89,417.5 88.1,417.5C87.2,417.5 86.3,417.5 85.4,417.5C84.5,417.5 83.7,417.5 82.8,417.5C81.9,417.5 81,417.50223 80.1,417.5C79.19999,417.49774 78.27637,417.24094 77.7,416.69867C76.99033,416.03101 76.5286,415.20154 76.5,414.39999C76.4679,413.50058 76.5,412.70001 76.5,411.79999C76.5,410.89999 76.5,410 76.5,409.10001C76.5,408.1955 76.5,407.17868 76.5,406.5C76.5,405.52133 76.5,404.616 76.5,403.67465C76.5,402.98401 76.5,401.91068 76.5,401.10001C76.5,400.20001 76.5,399.29999 76.5,398.39999C76.5,397.5 76.37571,396.72256 75.92533,395.89999C75.49806,395.1196 75.6467,394.18756 75.49733,393.29868C75.32823,392.29239 74.76102,391.87451 74.20533,391.15268C73.63483,390.41159 73.5,389.39999 73.5,388.5C73.5,387.70001 73.5,386.79999 73.5,385.97916C73.5,385.01599 73.2736,384.12225 73.5045,383.26166C73.72428,382.44254 74.48958,381.97934 74.5,381.08932C74.51066,380.17874 74.44942,379.32391 74.50134,378.384C74.54395,377.61258 74.97139,376.69229 75.216,375.98401C75.54195,375.04025 75.48622,374.08923 75.50017,373.17868C75.51057,372.49976 75.77262,371.54959 76.14733,370.8045C76.58778,369.92871 76.92679,369.09122 77.5,368.5C78.09065,367.89078 78.71675,367.07382 79.5,366.66666C80.24385,366.27997 81.10775,365.91061 81.47467,365.10001C81.82858,364.31815 82.30099,363.69968 83,363C83.59971,362.39972 84.1448,361.73901 84.9,361.11066C85.55661,360.56433 86.48057,360.1506 86.91067,359.64932C87.63499,358.80511 88.36234,358.68719 89.33334,358.33334C90.01619,358.0845 90.82681,357.72424 91.69867,357.49866C92.5051,357.29001 92.95847,356.42114 93.5,356C94.35831,355.33252 94.81386,354.4729 95.36134,354.10001C95.99635,353.66748 96.88807,353.12338 97.416,352.30133C97.88435,351.57208 98.40073,350.98505 99.11066,350.47467C99.83716,349.95239 100.49261,349.32874 100.9,348.68533C101.29292,348.06479 102.16508,347.5907 102.9,347.064C103.68433,346.50189 104.11372,345.86722 104.98534,345.29868C105.69358,344.8367 106.52067,344.35745 107.091,343.84732C107.64919,343.34808 108.10766,342.15973 108.83334,341.66666C109.43521,341.25769 110.50875,341.35864 111.28934,341.07468C112.02366,340.80753 112.84898,340.37906 113.55267,339.85266C114.18515,339.37952 115.21033,339.6792 116.016,339.32935C116.84364,338.96997 117.03151,337.94568 117.91067,337.57199C118.75139,337.21463 119.71494,337.58438 120.616,337.216C121.29454,336.9386 122.15133,336.52985 123.016,336.50134C123.99947,336.4689 124.83015,336.59146 125.67467,336.46399C126.63721,336.31873 127.36358,335.6973 128.15266,335.55716C129.00449,335.40588 130.00061,335.53323 130.98267,335.49866C131.79158,335.47018 132.35635,334.7738 133.11067,334.51068C133.95044,334.21777 134.89999,334.50134 135.8,334.5C136.7,334.49866 137.49109,334.15988 138,333.5C138.5901,332.73483 139.31895,332.46985 140.26933,332.216C141.02478,332.01422 141.8103,331.74493 142.81599,331.58401C143.72037,331.4393 144.67513,331.36499 145.44366,331.14282C146.2124,330.92062 146.95259,330.22354 147.66667,329.66666C148.3744,329.11472 149.1123,328.85434 149.8215,328.39999C150.49988,327.96542 151.493,327.48547 152.28934,327.11066C153.00859,326.77213 153.87415,326.51801 154.82133,326.5C155.67451,326.48376 156.61467,326.5 157.5,326.5C158.3,326.5 159.2,326.5 160.04167,326.5C161.04266,326.5 161.75067,326.5 162.73199,326.5C163.68567,326.5 164.60001,326.5 165.5,326.5C166.3,326.5 167.25717,326.5 168.16167,326.5C168.96167,326.5 169.92117,326.5 170.71466,326.5C171.49017,326.5 172.52933,326.5 173.5,326.5C174.3,326.5 175.25717,326.5 176.15266,326.5C176.84734,326.5 177.864,326.5 178.8045,326.5C179.66667,326.5 180.5,326.5 181.479,326.5C182.19733,326.5 183.26517,326.5 183.8895,326.5C184.64583,326.5 185.54216,326.5 187.16667,326.5C187.78484,326.5 188.43201,326.5 189.09717,326.5C189.76933,326.5 191.09067,326.5 191.71783,326.5C192.308,326.5 193.74966,326.5 194.65866,326.5C195.66667,326.5 196.52083,326.5 197.5,326.5C198.28934,326.5 199.33333,326.49994 200.16133,326.5C201.04266,326.50009 201.7627,326.41495 202.73199,326.58533C203.71175,326.75754 204.36198,327.31689 205.336,327.46399C206.09354,327.57837 207.0955,327.5 207.84283,327.5C208.864,327.5 209.80081,327.46298 210.70399,327.50134C211.37323,327.52979 212.26422,327.72104 213.18666,327.92532C213.86005,328.07446 215.16519,328.34418 215.73199,328.41599C216.7484,328.54477 217.83533,328.6564 218.468,328.78534C219.15302,328.92493 219.86346,329.0657 221.16667,329.5C221.99564,329.77625 222.70592,330.09601 223.5,330.66666C224.12759,331.11768 224.67891,331.75525 225.66667,332.16666C226.41589,332.4787 227.23851,332.48932 228.35716,332.5C229.11464,332.50723 230.05911,332.20303 230.93066,332.58533C231.69531,332.92075 232.3511,333.51303 233,334.02084C233.76735,334.62137 234.3262,335.15179 235.2,335.55267C235.92538,335.88547 236.51816,336.707 237.2,337.14282C238.02399,337.66949 238.90878,337.92679 239.5,338.5C240.10921,339.09067 240.74063,339.88321 241.5,340.33334C242.21176,340.75528 242.99617,341.34555 243.32533,341.79733C243.8678,342.54184 244.48843,343.573 244.864,344.26401C245.20457,344.89066 245.72807,345.88712 245.97917,346.5C246.38136,347.48166 246.42381,348.30859 246.584,349.10001C246.78856,350.11063 247.15291,350.841 247.44733,351.74283C247.72662,352.5983 248.33623,353.26855 248.48933,354.10001C248.65242,354.98566 249.04318,355.70328 249.37849,356.60001C249.69658,357.45065 249.47253,358.25772 249.5045,359.16165C249.53284,359.96289 249.69948,360.92752 249.936,361.72534C250.18179,362.55441 250.60944,363.57452 250.88933,364.26401C251.22627,365.09406 251.4675,366.09415 251.4955,366.84283C251.53366,367.86331 251.45148,368.70132 251.50017,369.60016C251.54288,370.38879 251.96432,371.31021 252.216,372.01599C252.55328,372.96182 252.85266,373.79999 253.37866,374.59982L253.72133,375.37866" id="svg_1" stroke-width="3" stroke="#000" fill="none"/>
  <path t="17787,17986,17986,18028,18044,18060,18060,18076,18091,18091,18108,18121,18144,18160,18184,18205,18223,18240,18255,18255,18287,18287,18320,18351,18352,18391,18440,18440,18512,18512,18562,18563,18742,18797,18797,18845,18845,18871,18871,18890,18912,18912,18928,18944,18959,18965,19007,19039,19072,19087,19087,19106,19127,19152,19167,19190,19190,19199,19223,19240,19240,19258,19258,19273,19289,19289,19312,19328,19343,19359,19366,19391,19406,19406,19415,19471,19472,19491,19518,19524,19562,19587,19618,19618,19626,19626,19626,19665,19665,19665,19701,19701,19729,20051,20803,20803,20929,21155,21155,21204,21238,21238,21266,21285,21286,21309,21321,21695,21761,21778,21805,21829,21836,21837,21837,21861,21861,21898,21908,21934,21970,21971,21997,21997,21997,22009,22010,22043,22073,22096,22097,22121,22149,22165,22165,22204,22225,22225,22250,22250,22250,22283,22283,22322,22322,22341,22342,22368,22398,22399,22408,22447,22470,22470,22477,22477,22520,22546,22546,22556,22594,22619,22643,22673,22699,22700,22700,22723,22753,22780,22781,22781,22781,22789,22790,22829,22829,22838,22877,22884,22922,22953,22982,22983,22992,22992,23031,23074,23100,23137,23162,23202,23202,23215,23273,23274,23293,23427,23519,23519,23580,23580,23646,23646,23707,23707,23708,23755,23861,23903,23936,24014,24014,24055,24095,24095,24143,24191,24215,24281,24396,24396,24454,24454,24477,24482,24517,24547,24573,24598,24608,24608,24637,24675,24746,24796,24817,24817,24845,24912,24947,25008,25080,25431,25512,25560,25592,25632,25688,25936,25936,25990,25990,26037,26317,26364,26396,26396,26495,26579,26579,26708,26708,26731,26804,26911,26950,26951,26986,27079,27079,27143,27206,27452,27530,27579,27663,27723,27723,27787,27847,27847,27926,27947,27971,27996,28031,28031,28056,28080,28090,28090,28602,28683,28707,28735,28767,28811,28812,28812,28879,28879,28879,28927,28996,28996,29079,29131,29132,29157,29157,29180,29206,29231,29231,29296,29296,29504,29554,29575,29605,29632,29677,29678,29717,29742,29743,29789,29810,29870,30055,30055,30109,30211,30211,30376,30418,30454,30454,30481,30507,30508,30533,30533,30534,30558,30567,30569,30608,30609,30631,30673,30697,30707,30748,30749,30781,30782,30782,30807,30807,30836,30836,30849,30893,30894,30914,30914,30961,30961,30983,31011,31145,31145,31189,31227,31246,31277,31331,31347,31381,31406,31407,31435,31855,31855,32478,32543,32569,32596,32623,32649,32650,32659,32705,32767,32815,32871,32927,32928,33262,33316,33362,33555,33638,33686,33780,33835,33836,33883,33931,33963,34125,34176,34176,34246,34246,34486,34486,34566,34591,34614,34640,34665,34666,34679,34680,34721,34722,34753,34829,34845,34928,34928,35060,35334,35334,35382,35456,35480,35510,35510,35532,35541,35779,35779,35854,35879,35901,35912,35951,36013,36013,36056,36056,36129,36182,36183,36261,36325,36357,36372,36410,36431,36432,36457,36484,36500,36548,36574,36609,36661,36685,36686,36721,36783,36833,36833,36884,36885,36925,36926,36926,36967,36968,36968,37009,37010,37084,37122,37181,37181,37214,37229,37230,37278,37330,37379,37380,37418,37420,37420,37472,37473,37516,37517,37557,37601,37602,37685,37722,37764,37821,37893,37918,37950,38825,38893,38927,38928,38951,39006,39007,39028,39029,39092,39093,39126,39176,39177,39466,39625,39711,39828,39828,39878,39879,39965,40265,40309,40310,40383,40383,40424,40424,40467,40468,40469,40509,40510,40510,40549,40549,41484,41484,41597,41656,41657,41684,41739,41746,41816,41857,41900,41919,41972,42017,42060,42061,42101,42147,42200,42244,42245,42284,42291,42292,42361,42361,42387,42388,42442,42443,42465,42496,42497,42560,42596,42638,42759,42760,42778,42779,42780,42809,42856,42918,42918,42959,42987,42988,42989,43040,43079,43079,43132,43168,43169,43222,43223,43224,43266,43266,43299,43300,43351,43352,43371,43372,43418,43419,43420,43421,43475,43476,43476,43516,43517,43567,43610,43650,43751,43816,43896,43896,43996,44112,44112,44159,44197,44238,44326,44398,44399,44433,44474,44474,44513,44533,44580,44580,44646,44721,44721,44766,44767,44801,44854,44894,44895,44935,44975,44976,45037,45175,45191,45254,45254,45299,45300,45373,45478,45478,45523,45587,45635,45653,45718,45719,45746,45779,45851,45852,45893,45894,45895,45895,45936,45937,45938,45978,45979,45996,46059,46109,46150,46151,46201,46248,46307,46355,46356,46393,46424,46475,46516,46517,46518,46560,46561,46603,46604,46604,46621,46622,46687,46688,46689,46735,46736,46777,46779,46815,46816,46883,46884,46924,46925,46966,46967,46997,46998,47049,47050,47101,47102,47103,47149,47151,47151,47185,47186,47187,47243,47244,47244,47282,47283,47333,47334,47387,47388,47389,48281,48694,48746,48747,48804,48850,48901,48902,48903,48952,48953,48954,48994,48995,49034,49035,49081,49082,49136,49185,49239,49240,49284,49285,49333,49376,49418,49419,49463,49504,49567,49568,49631,49632,49679,49680,49751,49794,49795,49839,49840,49856,49903,49961,49962,50170,50170,50170,50214,50215,50267,50321" d="M66.5,222.5C67.5,221.66667 68.2498,222.04572 68.47916,223C68.68961,223.87561 68.76344,224.71954 69.30133,225.3C69.97356,226.02542 70.51077,226.71881 71.2,227.14284C72.02139,227.64818 73,227.49774 73.9,227.5C74.79551,227.50226 75.51497,227.88759 76.07467,228.52533C76.59211,229.11493 77.29407,229.56235 77.984,230.06799C78.71215,230.60164 79.45123,231.36897 80.1955,231.491C81.12365,231.64317 81.984,231.5 82.84734,231.5C83.74733,231.5 84.66666,231.5 85.5,231.5C86.47867,231.5 87.25375,231.46027 88.15266,231.5045C89.01872,231.54712 89.85143,231.97015 90.66666,232.5C91.3082,232.91695 92.32243,233.40598 93.12534,233.48933C93.97948,233.57802 94.85447,233.39162 95.74284,233.5045C96.61994,233.61595 97.26862,234.35182 98.2,234.4955C99.08949,234.63272 100,234.5 100.9,234.5C101.8,234.5 102.7,234.5 103.6,234.5C104.5,234.5 105.30019,234.48201 106.2,234.5C107.10054,234.51801 107.81793,235.08914 108.6,235.37849C109.45174,235.69362 110.3,235.5 111.2,235.5C112.136,235.5 112.98534,235.5 113.9045,235.5C114.89867,235.5 115.664,235.5 116.61467,235.5C117.5,235.5 118.3,235.5 119.2,235.5C120.1,235.5 121,235.5 121.9,235.5C122.8,235.5 123.7,235.5 124.60017,235.5C125.38533,235.5 126.32533,235.5 127.33334,235.5C128.08934,235.5 129,235.5 129.89999,235.5C130.8,235.5 131.7,235.5 132.60001,235.5C133.5,235.5 134.32579,235.48618 135.26933,235.21333C136.03168,234.99289 136.84535,234.65906 137.57834,234.17867C138.2829,233.7169 138.84058,233.15492 139.61467,232.38533C140.19719,231.8062 140.79707,230.90266 141.7,230.58533C142.55293,230.28555 143.33083,230.35533 143.89999,229.64934C144.53569,228.86081 145.26071,228.54207 146,227.97917C146.66341,227.47406 147.29776,226.84749 147.47917,225.97917C147.67592,225.03741 147.56235,224.21352 148.07466,223.48534C148.55759,222.79893 149.18947,221.7849 149.4955,222.209C150.01689,222.93153 149.5,224 149.5,224.92133C149.5,225.83333 149.5,226.75067 149.5,227.49466C149.5,228.52933 149.5,229.29733 149.5,230.2C149.5,231.10001 149.5,232.02083 149.5,232.98666C149.5,233.74667 149.5,234.66667 149.5,235.44817C149.5,236.23866 149.5,237.35699 149.5,238.19099C149.5,239.10001 149.5,240.02083 149.5,240.98399C149.5,241.67467 149.40689,242.79488 149.85266,243.45183C150.32149,244.14276 150.49774,244.85184 150.5,245.87466C150.50209,246.82167 150.5,247.54167 150.5,248.66667C150.5,249.44817 150.48811,250.23874 150.5,251.16667C150.51042,251.97937 150.80196,252.97672 151.07466,253.67467C151.4389,254.60689 151.49933,255.384 151.5,256.32535C151.50072,257.33334 151.49467,258.08936 151.5,259C151.50534,259.91074 151.7283,260.81848 152,261.5C152.38852,262.47455 152.49748,263.29868 152.5,264.13599C152.50305,265.15268 152.4556,265.88748 152.85266,266.74283C153.27605,267.65488 154.00728,268.10895 154.44284,268.85718C154.86855,269.58847 154.65874,270.66983 154.92534,271.32535C155.20764,272.01944 155.59041,272.99432 156.11067,273.63333C156.67732,274.32932 156.90221,275.22198 157.10001,275.87067C157.30226,276.534 157.70229,277.72656 157.97917,278.4375C158.3838,279.47644 158.49933,280.29868 158.5,281.20001C158.50066,282.10001 158.49776,283 158.5,283.89999C158.50226,284.8045 158.66325,285.668 158.92534,286.32535C159.32808,287.33545 159.49466,288.08926 159.5,289C159.50526,289.89996 159.49991,290.79999 159.5,291.70001C159.50009,292.60001 159.62654,293.53189 160.11067,294.10001C160.74583,294.84534 161.38925,295.49045 161.49867,296.29999C161.61949,297.19379 162.04178,297.98032 162.69867,298.70001C163.23215,299.28452 163.41597,300.16638 163.936,300.89999C164.49411,301.68732 165.13959,302.13242 165.82117,302.82132C166.31729,303.32275 166.99474,303.98077 167.43866,304.86401C167.84485,305.67221 168.03201,306.6987 168.66667,307.33334C169.30132,307.96799 170.24127,308.0444 170.464,308.91068C170.69092,309.79318 170.43428,310.70349 171,311.47916C171.48224,312.14035 172.48967,312.1723 173.16667,312.66666C173.95152,313.23978 174.11349,314.14822 174.82133,314.59982C175.64026,315.12231 176.47198,315.43781 177.29866,315.49866C178.19757,315.56482 179.10001,315.5 180,315.5C180.91066,315.5 181.84659,315.6694 182.63867,315.46399C183.50444,315.23947 183.7805,314.09659 184.5,313.66666C185.27045,313.2063 185.5,312.5 185.5,311.70001C185.5,310.79999 185.5,309.89999 185.5,309C185.5,308.10001 185.30305,307.17786 185.50133,306.30133C185.68199,305.50266 186.48738,306.02069 186.5,306.89999C186.51286,307.79541 187.0466,308.36377 187.7,309.06934C188.19905,309.60825 188.47864,310.61371 189.2,311.13834C189.91003,311.65472 190.70329,312.04321 191.60001,312.37851C192.45064,312.69659 193.31862,312.55591 194.02083,313.02084C194.84457,313.56625 195.46667,314.07104 196.33333,314.33334C197.17299,314.58749 198.10001,314.5 199,314.5C199.91066,314.5 200.84659,314.6694 201.63867,314.46399C202.50444,314.23947 202.76785,313.28452 203.30133,312.70001C203.95822,311.98032 205.00887,311.36884 204.95833,310.5C204.91724,309.79349 203.96432,309.22125 203.33333,308.66666C202.65919,308.07413 201.96895,307.81039 201.1955,307.2045C200.39554,306.57785 199.55293,306.81985 198.74283,306.27866C198.0179,305.79437 197.64522,305.05188 197.4955,304.20001C197.33237,303.27182 196.84746,302.67365 196.44733,301.79999C196.11501,301.0744 195.39766,300.40231 194.8,299.79999C194.11867,299.11331 193.94681,298.67685 194.584,299.216C195.19946,299.73679 196.02345,300.03894 196.66667,300.66666C197.33876,301.32254 197.87642,301.88443 198.69983,302.47849C199.27106,302.89063 200.06017,303.23907 200.864,303.89999C201.64848,304.54501 202.14301,305.40598 203.02083,305.45834C204.01257,305.51752 204.71878,304.95535 205.47833,304.39999C206.09343,303.95026 206.48561,303.00537 207.11067,302.43866C207.68709,301.91608 208.17462,301.13095 208.69867,300.38535C209.19136,299.68436 209.58826,298.69415 209.064,298.11066C208.44456,297.42123 207.75528,297.10745 207.491,296.20001C207.23654,295.32632 206.27409,295.20685 205.743,294.39999C205.23044,293.62134 205.38013,292.72015 204.92534,291.89999C204.49159,291.1178 204.09113,290.37268 203.66667,289.5C203.34581,288.84033 202.98444,287.99484 202.3,287.29999C201.8038,286.79623 200.99451,286.16537 200.584,285.29999C200.2247,284.54254 199.892,283.89734 199.2,283.20001C198.50269,282.49731 197.9818,281.97653 197.33333,281.33334C196.67731,280.68265 196.21342,280.10733 195.25717,279.60983C194.442,279.18573 193.78629,278.75961 193.55267,277.85184C193.35471,277.08255 192.79648,276.45013 192,276C191.20546,275.55096 190.62398,274.96658 189.93066,274.29868C189.38771,273.77563 188.5136,273.18466 188.12534,272.67465C187.60553,271.99185 186.84641,271.25861 186.15266,270.8045C185.38429,270.30157 184.80342,269.80109 184.10001,269.10001C183.39874,268.40109 182.89037,267.86087 182.01601,267.29999C181.34421,266.86905 180.56544,266.33582 179.91066,265.936C179.04893,265.40985 178.17592,265.16809 177.5,264.5C176.91435,263.92111 176.5146,263.11972 176,262.5C175.50009,261.89798 175.5,261 175.5,260.10001C175.5,259.20001 175.5,258.29999 175.5,257.39984C175.5,256.61465 175.5,255.67467 175.5,254.66667C175.5,253.91066 175.5,253 175.5,252.10001C175.5,251.2 175.5,250.3 175.5,249.39999C175.5,248.5 175.62428,247.72256 176.07466,246.89999C176.50195,246.11961 176.5,245.2 176.5,244.3C176.5,243.39999 176.5,242.5 176.5,241.7C176.5,240.8 176.5,239.89999 176.5,239C176.5,238.10001 176.5,237.2 176.5,236.3C176.5,235.39999 176.5,234.5 176.5,233.7C176.5,232.8 176.5,231.89999 176.5,231C176.5,230.08934 176.5,229.17867 176.5,228.5C176.5,227.384 176.5,226.616 176.5,225.67467C176.5,224.98399 176.5,223.91066 176.5,223C176.5,222.10001 176.48923,221.19543 176.5,220.33333C176.51042,219.4998 176.76175,218.54182 177.07466,217.87466C177.46681,217.03853 177.49774,216.15268 177.5,215.25267C177.5023,214.33333 177.55051,213.49869 177.49983,212.5215C177.45712,211.69804 176.95821,211.01971 176.30133,210.3C175.76785,209.7155 175.44733,208.8 175,208C174.55267,207.2 174.18896,206.45544 173.784,205.7C173.37877,204.94405 173.0558,204.1077 172.40016,203.39999C171.8502,202.80637 171.19984,201.94397 171.51067,201.11067C171.80774,200.31422 172.39969,199.78687 172.52083,198.97917C172.66893,197.99174 173.18866,197.35901 173.41467,196.384C173.58914,195.63138 173.5,194.67467 173.5,193.66667C173.5,192.91066 173.5,192 173.5,191.10001C173.5,190.2 173.5,189.3 173.5,188.39999C173.5,187.5 173.5,186.7 173.5,185.8C173.5,184.89999 173.5,184 173.5,183.10001C173.5,182.2 173.5,181.3 173.5,180.39999C173.5,179.5 173.70447,178.66302 173.44284,177.8C173.17458,176.91512 172.26234,176.33035 171.8,175.74283C171.25308,175.04782 170.87663,174.26314 170.5,173.33333C170.18474,172.55504 169.88821,171.73634 169.66667,170.66667C169.52094,169.963 169.54166,169.0778 169.21466,168.10266C168.96037,167.34435 168.11949,166.87386 167.584,166.21466C167.03545,165.53938 166.75949,164.70866 166.47467,163.864C166.19139,163.02391 165.98721,162.30046 165.584,161.38667C165.20396,160.52539 164.53767,160.02432 164.33067,159.44267C163.97139,158.43311 163.63882,157.82877 163.20534,156.858C162.82404,156.00409 162.71227,155.13487 162.21466,154.3C161.80949,153.62022 160.98491,153.01471 160.40016,152.39999C159.84242,151.81367 159.34077,151.07739 158.784,150.416C158.26479,149.79922 157.83829,149.02084 157.11067,148.52533C156.44487,148.0719 155.68195,147.50571 155.50133,146.69867C155.31903,145.88416 155.5,144.84734 155.5,144.15266C155.5,143.12534 155.5,142.17867 155.5,141.5C155.5,140.52133 155.5,139.616 155.5,138.67467C155.5,137.98399 155.5,137 155.5,136.01601C155.5,135.15266 155.5,134.25717 155.5,133.3C155.5,132.39999 155.49809,131.5 155.5,130.74283C155.50226,129.84732 155.37451,128.85997 155.936,128.14667C156.5224,127.40174 157.60019,127.4956 158.38533,127.5C159.33604,127.50533 160.11896,127.52708 161.10451,127.85717C161.74974,128.07327 162.66449,128.50578 163.45267,128.8C164.27245,129.10603 165.34129,129.48193 166.03833,129.8C166.66086,130.08406 167.60004,130.72101 168.25267,131.2C168.96599,131.72353 169.80464,131.95627 170.39017,132.8C170.8838,133.51134 171.34586,134.26686 171.48933,135.10001C171.64209,135.987 171.17776,136.95763 171.51067,137.88933C171.77396,138.62624 172.49466,139.11063 172.5,140C172.5054,140.89998 172.38333,141.84319 172.72133,142.60017C173.04057,143.31517 173.10471,144.28937 173.66667,145.16667C174.11615,145.86838 174.71733,146.46852 175.07466,147.10001C175.57419,147.98279 175.68167,148.84033 176.02083,149.5C176.5408,150.51137 177.14015,151.09819 177.59984,151.82133C178.01694,152.47748 178.25383,153.52032 178.584,154.29866C178.90666,155.05931 179.62363,155.80385 180.3,156.21466C181.07614,156.68608 181.55542,157.31947 182.02083,158.02083C182.56717,158.84415 183.06351,159.49431 183.33333,160.5C183.54112,161.27451 183.52971,162.03993 184,162.97917C184.37285,163.7238 184.38953,164.67708 184.52083,165.47917C184.66521,166.36121 185.38091,166.99356 185.464,167.78667C185.53831,168.49597 185.34398,169.73495 185.66667,170.5C185.99667,171.28239 186.46722,172.02118 186.50133,172.98534C186.52701,173.71104 186.69003,174.71249 187.02083,175.5C187.27733,176.11066 187.76993,177.1124 188.2,177.84283C188.66679,178.63565 189.27414,179.36855 189.44733,180.15717C189.60921,180.89432 189.71918,181.9375 190.18266,182.73599C190.75273,183.71811 191.26561,184.18616 191.75067,184.72533C192.24689,185.27689 193.19,186.31662 193.528,186.81334C194.0822,187.62779 194.43782,188.47198 194.49867,189.29866C194.56485,190.19757 194.49805,191.11961 194.92534,191.89999C195.37572,192.72256 195.45221,193.60127 195.5,194.5C195.54272,195.30341 196.04179,195.98029 196.69867,196.7C197.23215,197.2845 197.59843,198.18788 198.30133,198.584C199.11794,199.0442 199.91013,199.48199 200.82133,199.5C201.49986,199.5134 202.61467,199.5 203.5,199.5C204.3,199.5 205.2,199.5 206.02083,199.5C206.98399,199.5 207.84734,199.5 208.74733,199.5C209.66667,199.5 210.5,199.5 211.4785,199.5C212.29866,199.5 213.25571,199.53133 213.89999,199.064C214.68102,198.49748 215.14479,197.73904 215.89999,197.11067C216.55661,196.56433 217.40117,196.4054 217.88933,195.63867C218.46324,194.73726 218.46761,193.87408 218.50133,193.01601C218.53529,192.15154 218.9386,191.29454 219.216,190.616C219.58438,189.71494 219.5,188.66667 219.5,187.91066C219.5,187 219.50067,186.10001 219.5,185.2C219.49933,184.3 219.2103,183.4431 218.85266,182.8C218.37823,181.94688 218.07318,181.09119 217.39967,180.39967C216.96419,179.95255 216.16414,179.16919 215.73199,178.73067C214.99565,177.98344 214.47531,177.47301 213.83333,176.66667C213.28806,175.9818 212.88538,175.10573 212.3,174.38667C211.7643,173.72862 210.77754,173.65303 210.11067,173.064C209.41519,172.44969 209.38219,171.28606 208.7955,170.85716C208.03604,170.30196 207.23326,169.99933 206.66667,169.33333C206.0851,168.64972 205.84637,167.93958 205.2045,167.2C204.62589,166.53331 204.22011,165.81926 203.5,165.16667C203.00284,164.71613 202.71809,163.88799 202.1955,162.89999C201.87498,162.29407 201.35225,161.48404 200.84734,160.9045C200.17709,160.13518 199.44841,159.58012 198.91066,158.83867C198.31259,158.01407 198.07706,157.24867 197.85716,156.44817C197.57819,155.43254 197.69099,154.70366 197.33333,153.66667C197.08719,152.95302 196.40265,152.17709 196,151.5C195.50327,150.66472 194.96684,150.02364 194.5,149.33333C194.06831,148.69499 193.4594,147.69368 193.11067,147.12534C192.5533,146.21696 192.67815,145.3875 192.05716,144.52133C191.60364,143.88875 190.62152,143.36745 190.25717,142.83833C189.73586,142.08127 189.39679,141.07985 189.10001,140.27467C188.89781,139.72612 188.51364,138.66075 188.2,137.95717C187.81653,137.09695 187.39999,136.3 187,135.5C186.7,134.89999 186.23022,133.88751 185.8,133.15717C185.33209,132.36285 184.74464,131.71701 184.30133,130.73199C183.97961,130.01715 183.70247,129.2841 183.55716,128.31433C183.4214,127.40832 183.25786,126.54623 182.85266,125.8C182.43936,125.03888 182.5,124.07867 182.5,123.16666C182.5,122.49017 182.5,121.71467 182.5,120.4215C182.5,119.736 182.5,118.90134 182.5,117.9C182.5,117.1 182.5793,116.09339 182.464,115.336C182.3163,114.36565 181.54282,114.04671 180.78534,113.416C180.06091,112.81281 179.4744,112.18511 179.10001,111.63866C178.45439,110.69634 178.01514,110.02426 177.584,109.30133C177.13692,108.55167 176.345,108.08982 176.02083,107.47916C175.53436,106.56278 175.11949,105.86623 174.66667,105.16666C174.19209,104.43349 174.15169,103.41663 173.85266,102.74733C173.46568,101.88117 173.45737,100.96638 173.07466,100.12534C172.70567,99.31443 172.67726,98.44209 172.2785,97.52167C172.00249,96.88457 170.7856,96.62977 170.51067,95.85333C170.23026,95.06145 170.5,94.25333 170.5,93.07883C170.5,92.28533 170.5,91.50983 170.5,90.47066L170.5,89.70267L170.5,88.8L170.5,87.9" id="svg_2" stroke-width="3" stroke="#000" fill="none"/>
  <path t="54734,55001,55059,55080,55119,55119,55137,55151,55187,55198,55199,55234,55235,55256,55256,55256,55319,55319,55319,55359,55399,55399,55417,55454,55510,55511,55542,55542,55568,55595,55605,55636,55670,55670,55718,55719,55743,55815,55863,55863,55884,55885,55918,55943,55944,55975,55997,56014,56051,56079,56080,56105,56178,56178,56245,56285,56285,56304,56305,56411,56543,56587,56587,56612,56682,56700,56745,56845,56889,56918,57229,57287,57287,57328,57360,57385,57411,57422,57449,57480,57481,57512,57550,57575,57599,57638,57678,57710,57710,57711,57758,57823,57823,57855,57873,57873,57898,57898,57918,57944,57964,57995,58024,58031,58032,58062,58062,58091,58092,58101,58138,58138,58165,58165,58198,58198,58250,58292,58615,58615,59067,59067,59192,59308,59374,59445,59494,59521,59578,59578,59625,59650,59775,59843,59844,59926,59926,59991,60014,60070,60126,60182,60183,60244,60244,60342,60392,60392,60415,60416,60448,60477,60487,61226,61242,61360,61426,61450,61497,61498,61561,63877,63877,63976" d="M125.5,60.5C125.5,62.3 125.8145,62.88715 126.33334,63.66667C126.80421,64.37412 126.43199,65.26011 126.5045,66.14817C126.58843,67.17607 127.22946,67.71616 127.66666,68.5C128.03026,69.15187 128.8045,69.8045 129.38533,70.38533C129.98534,70.98534 130.52083,71.52084 131.10133,72.10133C131.89867,72.89867 132.47917,73.47916 133.01466,74.01466C133.864,74.864 134.42712,75.58932 135.10001,76.064C135.83481,76.58237 136.60857,76.94975 137.5,77.33334C138.21129,77.6394 139.22169,77.24443 139.93066,77.58533C140.8764,78.04008 141.63809,78.17794 142.33333,78.66666C143.04926,79.16992 143.66643,79.65594 144.2,80.26167C144.77997,80.92006 144.88861,81.91944 145.8,82.38567C146.60783,82.79891 147.55185,82.80727 148.25717,83.14733C149.10786,83.55748 149.93376,83.37457 150.864,83.936C151.59178,84.37524 152.08601,85.09249 152.89999,85.47467C153.78145,85.88853 153.97665,86.75937 154.66667,87.33334C155.32002,87.87679 156.35506,87.5098 157.10001,88.11066C157.75462,88.63866 158.26198,89.34142 159.02083,90C159.6377,90.53535 160.59688,90.86913 161.16667,91.5C161.72093,92.11368 162.18381,92.89722 162.85716,93.44733C163.55945,94.02107 163.88483,94.52058 164.584,95.21467C165.13153,95.75821 166.2,95.5 167.10001,95.5C168,95.5 168.89999,95.50067 169.8,95.5C170.7,95.49933 171.72861,95.39262 172.14284,94.7955C172.69014,94.00655 172.5,93 172.5,92.1C172.5,91.2 172.5,90.3 172.5,89.4C172.5,88.5 172.5,87.7 172.5,86.8C172.5,85.9 172.5,85 172.5,84.1C172.5,83.2 172.59637,82.27674 172.33333,81.33334C172.14326,80.6517 171.66423,80.00844 171.52083,79C171.38228,78.02558 171.5,77.32533 171.5,76.25267C171.5,75.33334 171.63367,74.45756 171.33333,73.66666C171.03304,72.87588 169.79521,72.63245 169.51067,71.88934C169.19244,71.05828 169.17407,70.16238 168.40016,69.62117C167.69302,69.12666 167.62968,68.4396 167.27867,67.52133C166.96321,66.69608 166.61427,65.83516 166.44733,65.15266C166.2236,64.23804 165.22069,63.81944 164.78534,63.24533C164.27812,62.57646 164.50226,61.50084 164.5,60.47066C164.49832,59.70267 164.61528,58.78839 164.464,57.864C164.32126,56.9917 163.98026,56.26168 163.3,55.38667C162.85503,54.81429 161.90004,54.50533 161,54.5C160.10002,54.49467 159.2,54.5 158.3,54.5C157.39999,54.5 156.5,54.5 155.7,54.5C154.8,54.5 153.89197,54.39776 152.97917,54.52083C152.16133,54.6311 151.35339,55.16304 150.5215,55.3785C149.71906,55.58633 148.8,55.5 147.89999,55.5C147,55.5 146.08934,55.5 145.17867,55.5C144.32533,55.5 143.384,55.5 142.616,55.5C141.67467,55.5 140.66667,55.5 139.87466,55.5C139.01601,55.5 138.15266,55.5 137.136,55.5C136.3,55.5 135.39999,55.5 134.5,55.5C133.7,55.5 132.67657,55.08729 131.85716,55.55717C131.16933,55.9516 130.49913,56.4628 129.7,56.5C128.78236,56.54271 128.33333,57.33333 127.61333,57.49866L126.68533,57.51067" id="svg_3" stroke-width="3" stroke="#000" fill="none"/>
  <path t="66114,66660,66660,66746,66761,66811,66868,66868,66886,66951,66951,66980,67011,67064,67064,67105,67149,67149,67241,67288,67376,67438,67438,67486,67532,67532,67582,67610,67640,67640,67640,67692,67692,67714,67772,67813,67877,67919,67973,68011,68011,68053,68099,68129,68129,68156,68215,68215,68259,68260,68303,68303,68346,68346,68387,68387,68437,68438,68528,68587,68588,68633,68681,68716,68745,68745,68831,68856,68895,68952,68971,68996,68996,69031,69111,69180,69201,69228,69260,69285,69316,69343,69369,69369,69395,69428,69448,69448,69484,69508,69529,69529,69557,69557,69588,69588,69644,69644,69668,69668,69692,69740,69772,69772,69798,69828,69828,69852,69880,69890,69930,69963,69964,69988,70020,70020,70044,70084,70116,70145,70188,70220,70284,70316,70340,70355,70386,70412,70421,70449,70524,70524,71301,71430,71430,71606,71668,71669,71806,71806,71990,72061,72109,72133,72189,72190,72221,72309,73051,73051,73084,73084,73139,73160,73204,73205" d="M131.5,50.5C130.33333,49.5 129.93459,48.85202 129.2,48.2045C128.5378,47.62077 127.62853,47.34006 127.5,46.5C127.37832,45.70472 126.99008,44.95633 126.17883,44.4C125.54378,43.9645 124.97048,43.20729 124.2785,42.62133C123.55884,42.01192 122.79888,41.79663 122.2,41.2C121.49868,40.50132 120.84265,40.0312 120.11066,39.52533C119.43668,39.05956 118.96472,38.29368 118.6215,37.39983C118.33676,36.65831 118.5,35.67467 118.5,34.66667C118.5,33.91067 118.5,33 118.5,32.07867C118.5,31.16667 118.5,30.49467 118.5,29.50533C118.5,28.47067 118.5,27.70267 118.5,26.8C118.5,25.9 118.5,25 118.5,24.1C118.5,23.2 118.33631,22.24271 118.72134,21.4C119.02714,20.7307 119.49467,19.90005 119.5,19.08933C119.50599,18.17869 119.5,17.32533 119.5,16.38533C119.5,15.39967 119.5,14.68567 119.5,13.732C119.5,13 119.50008,11.83333 119.5,11.02083C119.49992,10.17867 119.58438,9.28506 119.216,8.384C118.93861,7.70547 118.65354,6.82519 118.416,5.984C118.16648,5.1004 117.47858,4.29805 116.8,3.85717C116.00766,3.34238 115.58058,2.82446 115.064,2.1C114.50392,1.31453 113.84866,0.70222 113,0.52083C112.11964,0.33267 111.2,0.5 110.3,0.5C109.4,0.5 108.5,0.5 107.7,0.5C106.8,0.5 105.87997,0.49729 105.1,0.92533C104.27826,1.3763 103.59211,1.88507 103.07467,2.47467C102.51496,3.11242 101.73487,3.46229 101,4.02083C100.33617,4.52538 99.88949,5.21443 99.47467,6.1C99.09322,6.91434 98.3157,7.53318 97.936,8.1C97.38438,8.92345 97.56245,9.93074 97.27866,10.82133C97.05592,11.52035 96.72359,12.51696 96.39017,13.25267C96.03365,14.03936 95.47606,14.49698 94.66666,15.33333C94.14465,15.87273 93.73386,16.6834 93.5,17.47917C93.22456,18.41641 92.51801,18.94611 92.5,19.82133C92.48245,20.67449 92.5,21.61467 92.5,22.5C92.5,23.3 92.5,24.2 92.5,25.1C92.5,26 92.5,26.91067 92.5,27.82133C92.5,28.67467 92.5,29.61467 92.5,30.5C92.5,31.3 92.5,32.2 92.5,33.1C92.5,34 92.5,34.9 92.5,35.8C92.5,36.7 92.61076,37.60684 92.5,38.5C92.38848,39.39923 91.54272,39.78235 91.5,40.7C91.45815,41.59903 91.8768,42.67998 91.33334,43.33333C90.75937,44.02335 89.74596,44.04612 89.52084,45.02083C89.34063,45.80107 89.5,46.67467 89.5,47.616C89.5,48.66667 89.53336,49.32589 89.5,50.33333C89.4714,51.19692 88.81381,51.92237 88.55717,52.8C88.30405,53.66557 88.53666,54.60075 88.5,55.5C88.47139,56.20175 87.93781,56.96827 87.55267,57.8C87.14837,58.67309 86.69727,59.36487 86.55717,60.15267C86.40569,61.00444 86.47916,61.97917 86.14283,62.8L85.5,63.5L84.9,64.1" id="svg_4" stroke-width="3" stroke="#000" fill="none"/>
  <path t="75037,75565,75616,75629,75649,75703,75808,75876,75876,75892,75937,75955,75955,75972,75982,76007,76024,76039,76062,76110,76150,76182,76199,76199,76221,76262,76325,76326,76326,76394,76425,76426,76508,76556,76574,76590,76691,76691,76723,76775,76839,76854,76879,76887,77071,77148,77188,77212,77213" d="M88.5,65.5C89.584,63.78533 90.44877,63.58253 91.064,62.88933C91.64835,62.23093 92.08604,61.61709 92.8,61.14283C93.59165,60.61697 94.03434,59.76102 94.9,59.536C95.77193,59.30935 96.81181,59.30712 97.21467,58.69867C97.75855,57.87722 98.30133,57.50067 99.2,57.5C100.1,57.49933 101,57.5 101.9,57.5C102.8,57.5 103.7,57.5 104.6,57.5C105.5,57.5 106.3,57.5 107.2,57.5C108.1,57.5 109.02084,57.5 109.984,57.5C110.67467,57.5 111.79728,57.35067 112.6,57.72133C113.26807,58.02982 114.09995,58.49467 115,58.5C115.89999,58.50533 116.85664,58.36346 117.7,58.784C118.36164,59.11393 119.22686,59.31403 120.1,59.536C120.96228,59.75521 121.79729,60.26711 122.416,60.784C123.07294,61.33284 123.7955,61.5045 124.47467,61.92533L125.04166,62.47917L125.98267,62.50134L126.79017,62.55717" id="svg_5" stroke-width="3" stroke="#000" fill="none"/>
  <path t="85325,85784,85817,85848,85888,86449,86525,86608,86675,86675,86759,86760,86760,86804,86823,86886,86886,87293,87563,87641,88279,88375,88391,88466,88542,88558,88625,88673,88713,88777,88844,89003,89003,89157,89201,89338,89474,89607" d="M85.5,63.5C84.69867,63.5 83.79994,63.51041 82.9,63.5C81.99982,63.48958 81.05335,62.599 80.52084,63.04167C79.85239,63.59734 80.5,64.82133 80.5,65.67467C80.5,66.61467 80.5,67.5 80.5,68.3C80.5,69.2 80.50696,70.18052 79.79467,70.8C79.25723,71.26742 78.52084,71.99928 78.5,72.9C78.47919,73.79976 78.38447,75.00329 78.936,75.03867C79.82209,75.0955 80.26128,74.13837 80.7215,73.40017C81.1686,72.683 82.22868,72.69299 83.1,72.464C83.95583,72.23907 84.18253,71.12029 84.78533,70.584C85.43526,70.00578 86.34516,69.73219 86.48933,68.9C86.64297,68.01315 86.52084,67.02084 87.11066,66.47467L87.88934,66.064" id="svg_6" stroke-width="3" stroke="#000" fill="none"/>
  <path t="90721,90983,91021,91060,91092,91149,91180,91181,91243,91295,91328,91375,91505,91548,91571,91626,91666,91714,91777,91777,91856,91888,91912,91992,91992,92039,92060,92108,92177,92323,92399,92416,92493,92493,92540,92555,92588,92588,92588,92620,92638,92638,92771,92857,92925,93564,93641,93803,93924,93972,93991,94020,94068,94069,94100,94349,94399,94460,94496,94524,95000,95056,95058,95091,95315,95380,95417,95454,95480,95549,95549,95595,95595,95595,95643,95643,95692,95729,95772,95772,95843,95910,95953,96000,96000,96050,96050,96101,96101,96101,96102,96143,96143,96143,96143,96187,96187,96187,96187,96214,96215,96253,96254,96318,96345,96408,96409,96469,96470,96534,96534,96577,96592,96593,96988,96988,97068,97105,97120,97145,97185,97202,97221,97241,97258,97273,97290,97307,97307,97324,97340,97357,97370,97391,97425,97443,97459,97481,97498,97523,97553,97553,97585,97585,97609,97610,97620,97636,97665,97665,97721,97721,97777,97777,97859,97859,97902,97942,97958,97997,98015,98015,98094,98133,98182,98199,98291,98343,98358,98358,98383,98458,98872,98922" d="M78.5,61.5C78.5,63.3 78.5,64.2 78.5,65.1C78.5,66 78.36346,66.85664 78.784,67.7C79.11393,68.36165 79.49775,69.19999 79.5,70.1C79.50225,71 79.50067,71.9 79.5,72.8C79.49933,73.69867 78.87714,74.24983 78.52084,75.02084C78.15627,75.80974 77.85107,76.44447 77.55267,77.20983C77.25517,77.97288 76.88273,78.7781 76.58533,79.7C76.30779,80.56038 76.5,81.5 76.5,82.3C76.5,83.2 76.5,84.1 76.5,85C76.5,85.9 76.5,86.8 76.5,87.7C76.5,88.6 76.5,89.5 76.5,90.3C76.5,91.2 76.49762,92.17853 76.05717,92.82133C75.55328,93.55671 74.91297,93.95253 74.14667,94.864C73.56476,95.55614 73.37653,96.2771 72.92533,97.1C72.49757,97.88013 72.55188,98.83386 72.07467,99.47467C71.56696,100.15644 71.5,101 71.5,101.9C71.5,102.8 71.5,103.7 71.5,104.6C71.5,105.5 71.5,106.3 71.5,107.2C71.5,108.1 71.50226,109 71.5,109.9C71.49775,110.79551 71.02601,111.39375 70.3,111.784C69.44521,112.24347 68.7,112.49933 67.8,112.5C66.9,112.50067 66,112.5 65.1,112.5C64.2,112.5 63.29928,112.53577 62.39967,112.49983C61.68396,112.47124 60.71758,112.25147 60,111.95834C59.25087,111.65231 58.49158,110.99924 57.92133,110.36134C57.22916,109.58705 56.68608,109.07613 56.21467,108.3C55.80384,107.62362 54.99379,107.03124 54.2045,106.55267C53.54284,106.15148 53.02917,105.43761 52.35067,104.9C51.63623,104.33392 51.42545,103.61625 51.057,102.73566C50.66063,101.78835 50.28864,101.09865 49.89734,100.38133C49.31473,99.31333 48.9046,98.65425 48.5,98.02084C48.10447,97.40162 47.5014,96.49906 47.10133,95.90266C46.52285,95.04031 46.18818,94.49084 45.5215,93.643C44.93709,92.89977 44.29545,92.30451 43.7,91.7C43.01557,91.00514 42.68975,90.02103 41.932,89.58266C41.28131,89.20624 40.62505,88.78223 40.41733,87.89733C40.22969,87.09799 39.79807,86.37225 39.58533,85.384C39.36349,84.35349 39.65827,83.63353 39.33333,82.66666C39.05966,81.85236 38.34438,80.86018 39.02083,80.52084C39.79764,80.13115 40.30954,79.85358 40.936,79.11066C41.46766,78.48018 42.6538,78.82236 43.37867,78.27866C44.02168,77.79636 44.7,77.5 45.6,77.5C46.5,77.5 47.30019,77.51874 48.2,77.5C49.06456,77.48199 49.54893,76.66973 50.30133,76.50134C51.18016,76.30464 52.02615,76.04361 52.7955,75.55267C53.50083,75.10258 53.68683,74.16897 54.5,73.66666C55.26359,73.19498 55.83848,72.68823 56.68533,72.47467C57.6223,72.23838 58.22713,71.75542 58.984,71.30133C59.654,70.89935 60.74879,70.79421 61.41733,70.21467C62.14975,69.57975 62.48974,68.93608 63.47867,68.62133C64.23462,68.38073 65.17252,68.17999 65.84734,67.7955C66.64034,67.34367 67.2701,66.66748 68.2,66.5045C69.08738,66.34897 69.8696,66.04996 70.41734,65.30133C70.92473,64.60784 71.70178,64.55643 72.47916,64C73.1249,63.5378 73.54893,62.66973 74.30133,62.50134C75.18015,62.30464 76.03101,62.00967 76.69867,61.3C77.24093,60.72363 77.55267,59.85717 78.30133,59.416L79,59L79.8,58.55717" id="svg_7" stroke-width="3" stroke="#000" fill="none"/>
  <path t="101125,101473,101473,101538,101564,101586,101605,101621,101651,101651,101691,101691,101758,101758,101851,101851,101875,101923,101976,101976,102010,102092,102092,102140,102140,102172,102188,102188,102213,102240,102260,102286,102308,102308,102333,102372,102372,102397,102397,102421,102453,102453,102493,102493,102507,102548,102580,102643,103173,103173,103226,103266,103406,103406,103455,103455,103525,103570,103571,103602,103660,103660,103707,103739,103791,103860,103904,104024,104565,104625,104694,104695,104712,104758,104822,104854,104894,104894,104959,105104,105153,105257,105359,105911,105953,105974,105974,105993,106012,106042,106067,106068,106090,106090,107519,107985,107985,109520,109520,109566,109593,109705,109788,109788,109814,109861,109861,109879,109924,109941,109981,109981,110036,110093,110232,110232,110297,110297,110316,110333,110376,110392" d="M67.5,115.5C67.92533,117.32533 68.33522,117.99113 68.47916,118.97916C68.61195,119.89062 68.49992,120.8 68.5,121.7C68.50008,122.6 68.62651,123.53191 69.11066,124.1C69.75,124.85017 70.32132,125.37186 70.8,126.15266C71.21897,126.83606 71.78987,127.75212 72.3,128.29866C72.96616,129.01236 73.29301,130.01147 74.06934,130.416C74.77378,130.78307 75.76965,130.82686 76.5,131.5C77.01995,131.97922 77.7,132.7 78.3,133.3C78.9,133.89999 79.59887,134.60114 80.2,135.2C80.79888,135.79663 81.86575,136.04256 82.3785,136.7215C82.913,137.42923 82.55246,138.61273 83.11066,139.064C83.88091,139.68668 84.84921,139.81885 85.3,140.38667C85.86642,141.10014 86.24433,142.01031 87,142.47917C87.75349,142.94667 88.29909,143.38727 88.9,144.31467C89.29939,144.93106 90.18235,145.14694 90.97916,145.52083C91.74809,145.88164 92.0089,146.82059 92.83334,147.33333C93.54517,147.77605 94.34721,148.0359 95.02084,148.5C95.73003,148.9886 96.35704,149.3483 97.15266,149.7955C97.98927,150.26575 98.93186,150.33215 99.7,150.78534C100.38158,151.18747 100.97457,152.02644 101.7,152.69867C102.28046,153.23656 103.15893,153.54282 103.55267,154.2045C104.01936,154.9888 104.41,155.82338 104.92533,156.47467C105.45278,157.1413 105.38856,158.06958 105.85717,158.8C106.37036,159.59991 107.24114,160.03378 107.464,160.89999C107.68842,161.77231 107.5,162.7 107.5,163.60001C107.5,164.5 107.48201,165.30019 107.5,166.2C107.51801,167.10054 108.1129,167.81209 108.41467,168.7C108.67355,169.46175 108.89751,170.16962 109.416,170.78534C109.97639,171.45082 109.96165,172.45407 110.55267,173.14284C111.11855,173.80231 112.04368,174.00992 112.6,174.82117C113.0355,175.45624 113.61835,176.22029 114.3,176.58267C115.1687,177.04448 115.3744,176.46732 114.88934,175.89999C114.25089,175.15329 113.61195,174.77579 113.02084,174C112.4614,173.26581 111.94913,172.71631 111.2045,172.13834C110.67379,171.72641 110.66811,170.63664 110.33334,169.66667C110.09621,168.97964 109.52859,168.20135 109.5,167.3C109.47146,166.40045 109.5372,165.49913 109.5,164.7C109.45728,163.78236 108.56857,163.28365 108.5,162.33333C108.45259,161.67628 108.32148,160.67294 107.92533,159.91066C107.51289,159.11702 106.97916,158.5 106.2045,158.14284L105.62133,157.40016" id="svg_8" stroke-width="3" stroke="#000" fill="none"/>
  <path t="112965,113110,113156,113177,113197,113198,113198,113216,113216,113216,113216,113216,113216,113224,113224,113224,113224,113252,113252,113302,113319,113348,113348,113363,113429,113446,113447,113485,113518,113519,113519,113536,113556,113580,113597,113597,113615,113615,113636,113670,113670,113678,113704,113724,113742,113763,113782,113814,113832,113832,113861,113948,114002,114002,114043,114073,114111,114111,114111,114144,114144,114175,114176,114176,114208,114208" d="M78.5,134.5C80.3,134.5 81.2261,134.33215 82.02084,134.54167C82.88729,134.7701 83.36418,135.38622 84.01884,136.02333C84.84204,136.82448 85.46816,137.46919 85.80983,137.80533C86.51842,138.50246 87.24709,139.19987 87.61733,139.532C88.66497,140.47176 89.32956,140.98688 89.9375,141.4375C90.72255,142.01941 91.46896,142.70004 92.191,143.13834C92.94852,143.59818 93.94639,143.76035 94.37867,144.60001C94.71258,145.2486 95.21518,145.91142 95.88934,146.48534C96.58566,147.07813 96.48827,148.06322 96.936,148.87466C97.40572,149.72598 97.94994,150.29991 98.21467,151.01601C98.56101,151.95287 98.49866,152.89999 98.5,153.8C98.50134,154.70134 98.63484,155.41158 99.20533,156.15266C99.76102,156.87453 100.36673,157.60828 100.5,158.5C100.61892,159.2957 100.96582,160.16537 101.47467,160.88933C101.97746,161.60466 102.48739,162.20457 102.5,163.10001C102.51268,164.00015 103.00051,164.71881 103.33334,165.5C103.65353,166.25154 103.78796,166.98848 104.37867,167.7215C104.89951,168.36781 104.95152,169.31558 105.52533,170.064C106.00957,170.6956 107.00504,171.0486 107.5,171.54167C108.03999,172.07961 108.55451,172.94745 109.16133,173.664C109.77428,174.3878 110.50533,174.73833 111.24934,175.05333L112.35733,175.37849L113.15067,175.48933" id="svg_9" stroke-width="20" stroke="#fff" fill="none"/>
  <path t="119688,120013,120061,120265,120313,120368,120368,120368,120386,120386,120440,120465,120564,120616,120746,120794,120794,120815,120832,120892,120924,120941,121021,121145,121145,121228,121228,121268,121268,121349,122071,122501,122597,122745,122831,122831,122863,122887,122919,122967,122985,123016,123145,123190,123190,123248,123272,123273,123283,123307,123618,123693,123693,123693,123711,123740,123849" d="M76.5,133.5C76.5,135.3 76.35322,136.21747 76.52084,137C76.70347,137.85265 77.54253,138.64368 77.88934,139.336C78.2618,140.07954 78.28818,141.13475 78.55267,141.78566C78.89019,142.61633 79.55534,143.203 80,144C80.44551,144.79851 80.5,145.7 80.5,146.60017C80.5,147.38533 80.18568,148.45358 80.72134,149.25717C81.16766,149.92674 82.10787,150.23907 82.464,150.936C82.90315,151.79543 82.76588,152.7198 83.26167,153.25717C83.95589,154.00961 84.40707,154.61069 85.33334,155.16667C86.03455,155.58757 87.03474,155.4471 87.8,155.85266C88.64589,156.30096 89.73241,156.06573 90.33334,156.66667C90.93426,157.26759 90.61768,158.2811 91.07467,159.10001C91.50588,159.87273 92.02065,160.48958 92.9,160.5C93.79994,160.51067 94.7,160.5 95.6,160.5C96.5,160.5 97.3502,160.51346 98,161.02083C98.76802,161.62051 99.27139,162.33253 100.2,162.4955C101.08735,162.65121 101.88156,162.97728 102.66666,163.5C103.30354,163.92403 104.016,164.21466 105.05334,164.52533L105.55267,165.2045L105.936,165.89999" id="svg_10" stroke-width="3" stroke="#000" fill="none"/>
  <path t="126172,126517,126599,126638,126656,126794,126845,126869,126870,126948,126948,127011,127011,127042,127074,127107,127124,127124,127144,127165,127194,127213,127213,127236,127267,127284,127350,127350,127415,127464,127515" d="M90.5,140.5C90.5,141.30133 90.5,142.2 90.5,143.10001C90.5,144 90.5,144.89999 90.5,145.8045C90.5,146.66667 90.40016,147.50514 90.50034,148.4785C90.5861,149.31175 91.44083,149.81787 91.932,150.38533C92.51437,151.05815 92.82642,152.00523 93.33334,152.66667C93.87929,153.37904 94.29439,153.99132 94.97916,154.5C95.67342,155.01572 96.27544,155.54692 96.8,156.20984C97.26938,156.80301 97.88883,157.68452 98.33334,158.5C98.76289,159.28806 99.5,159.66667 100.1,160.07466L100.97916,160.5L101.52533,161.07466L102.216,161.584" id="svg_11" stroke-width="3" stroke="#000" fill="none"/>
  <path t="129363,129682,129736,129752,129770,129816,129865,129915,129940,129987,130020,130075,130123,130123,130171,130248,130294,130294,130356,130432,130498,130566,130631,130731,130731,130777,130816,130849,130863,131694,132175,132239,132612,132661,132682,132682,132702,132702,132742,132742,132791,133612,133612,133678,133678,133733,133733,133943,133999,134017,134046,134046,134075,135052,135052,135097,135132,135399,135464,135579,135698,135698,135755,135832,135884,135912,135980,136008,136036,136280,136280,136328,136447" d="M91.5,141.5C92.37867,140.72133 92.84415,141.45747 93.5,142C94.10297,142.49878 95.10928,142.33272 95.7955,142.85716C96.54575,143.43056 96.73207,144.31778 97.59983,144.50017C98.39215,144.6667 98.94196,145.28558 99.69867,145.78534C100.30759,146.18748 100.46096,147.26126 101.02084,148C101.52447,148.66452 102.29617,149.15514 102.48933,150.10001C102.66554,150.96191 103.15531,151.54778 103.55267,152.2045C104.0305,152.99423 104.61344,153.82111 105.3,154.21466C106.03383,154.6353 107,154.5 107.9,154.5C108.8,154.5 109.71258,154.3502 110.59983,154.50017C111.45186,154.64417 111.93786,155.56047 112.8045,155.4955C113.67933,155.4299 114.47836,154.93976 115.33334,154.66667C116.10963,154.41872 116.97672,154.19804 117.67467,153.92534C118.60689,153.5611 119.66666,153.5 120.32533,153.5C121.33334,153.5 122.12534,153.5 123.15266,153.5C123.84734,153.5 124.864,153.5 125.8,153.5C126.7,153.5 127.60017,153.5 128.38533,153.5C129.32533,153.5 130.33333,153.5 131.08934,153.5C132,153.5 132.89999,153.5 133.8,153.5C134.7,153.5 135.60001,153.5 136.5,153.5C137.3,153.5 138.2,153.5 139.10001,153.5C140,153.5 140.89999,153.5 141.8,153.5C142.7,153.5 143.60001,153.5 144.5,153.5L145.3,153.41467L146.064,152.88933L146.464,152.10001" id="svg_12" stroke-width="3" stroke="#000" fill="none"/>
  <path t="139725,139892,139938,139938,139957,139957,139957,139957,139972,139972,140005,140006,140006,140032,140051,140078,140098,140134,140151,140206,140462,140512,140566,140566,140639,140695,140725,140754,140786,140786,140825,140859,140909,140953,141003,141058,141082,141082,141082,141128,141197,141198,141246,141294,141343,141343,141343,141393,141393,141471,141472,141513,141568,141598,141667,141714,141762,141762,141810,141887,141944,141944,141992,141992,142055,142104,142151,142223,142224,142272,142272,142360,142399,142448,142448,142474,142474,142550,142609,142857,142857,142944,142991,143034,143034,143092,143177,143177,143233,143233,143275,143361,143361,143425,143425,143497,143569,144339,144409,145234,145234,145633,145674,145675,145740,145789,145790,146007,146076,146124,146174" d="M105.5,164.5C106.11066,166.10001 106.70267,166.70267 107.31433,167.31433C108.04266,168.04266 108.50533,168.50534 109.24934,169.24933C109.732,169.73199 110.53063,170.5307 111.11467,171.11467C111.8213,171.82121 112.26786,172.38591 113.016,172.93066C113.81072,173.50934 114.85972,173.41524 115.47467,173.92534C116.07393,174.42242 116.4939,175.29263 117.2045,175.4955C118.10873,175.75365 118.74839,176.21117 119.37883,176.72133C120.05205,177.2661 120.93707,177.39326 121.47916,178.02083C122.04263,178.67314 122.78989,179.10712 123.37867,179.7215C124.03105,180.40224 124.33421,180.93166 125.064,181.52533C125.71307,182.05333 125.96041,183.02359 126.44733,183.7955C126.89043,184.49794 127.43616,185.09386 127.94283,185.82117C128.44347,186.53979 129.15526,186.74855 129.95833,187.5C130.5869,188.08817 130.59396,189.05354 131.35066,189.43866C132.1972,189.86951 132.99538,190.36253 133.79733,190.47467C134.55298,190.58034 135.58563,190.69861 136.25333,190.92534C137.34651,191.29655 138.08929,191.49466 139,191.5C139.89998,191.50526 140.8,191.5 141.7,191.5C142.60001,191.5 143.54105,191.68163 144.3,191.41467C145.0611,191.14697 145.39815,190.0661 145.784,189.29866C146.14738,188.57588 146.48091,187.67531 146.49867,186.98399C146.52625,185.91101 146.36748,185.08952 146.5045,184.2C146.64818,183.26732 147.31483,182.63531 147.464,181.67467C147.57011,180.99132 147.4122,179.9048 147.51067,179.08934C147.62271,178.16136 148.11153,177.53612 148.37849,176.5215C148.58942,175.71986 148.5,174.8 148.5,173.864C148.5,173.01601 148.50063,172.15266 148.5,171.25717C148.49933,170.3 148.30914,169.37398 147.7955,168.8C147.13747,168.06468 146.5,167.5 145.89999,166.89999C145.3,166.3 144.70004,165.69995 144,165C143.39987,164.39995 142.75652,163.77954 142.01733,163.3C141.37276,162.88184 140.64896,162.17175 140.07466,161.52533C139.51111,160.89099 138.81337,160.51138 138.2,159.79466C137.73689,159.25352 136.817,158.50473 136.91434,157.79016C137.03528,156.90234 137.77388,156.23216 138.5,155.5C139.07986,154.91531 139.89999,154.536 140.7955,154.4955L141.47467,154.064L141.85716,153.2045" id="svg_13" stroke-width="3" stroke="#000" fill="none"/>
  <path t="156109,156702,156702,156830,156830,156894,156925,156957,157013,157014,157112,157164,157236,157268,157284,157340,157530,157708,157814,157898,157938,158202,158256,158304,158352,158376,158376,158480,158480,158536,158574,158574,158620,158620,158620,158660,158660,158689,158764,158819,158852,158892,158964,159005,159005,159068,159097,159126,159188,159188,159243,159308,159429,159429,159480,159480,159564,159641,159697,159727,159769,159809,159857,159891,159937,160014,160086,160086,160148,160182,160244,160361,160416,160445,160476,160503,160503,160532,160565" d="M130.5,147.5C129.5,147.66667 128.83043,148.11285 128.33333,147.5C127.86312,146.9203 127.11716,146.25916 126.66666,145.5C126.17646,144.67392 125.53968,144.26968 124.8,143.85266C124.05499,143.43263 123.64835,142.76907 123.064,142.11067C122.44876,141.41747 121.57422,141.13017 121.07467,140.52533C120.53335,139.86992 120.49774,139 120.5,138.10001C120.50225,137.20448 121.16604,136.69119 121.47916,135.97917C121.82902,135.18362 122.04887,134.55365 122.9,134.07466C123.62691,133.66559 124.39417,133.43941 125.32533,133.07466C126.02306,132.80136 126.97897,132.51042 127.8135,132.5C128.55594,132.49074 129.552,132.5 130.5,132.5C131.142,132.5 132.2355,132.5 133.18649,132.5C134.10001,132.5 135,132.5 135.89999,132.5C136.8,132.5 137.7,132.5 138.60001,132.5C139.5,132.5 140.33179,132.31331 141.2,132.55716C141.96146,132.77103 142.69914,133.44489 143.66667,133.5C144.47812,133.54622 145.23128,133.8761 145.85716,134.45183C146.51242,135.05457 147.15791,135.65427 147.37849,136.4785C147.59279,137.27924 147.5,138.2 147.5,139.10001C147.5,140 147.41052,140.91737 146.92534,141.52533C146.42696,142.14983 146.5027,143.12003 146.07466,143.89999C145.62369,144.72174 145.00157,145.26274 144.584,146.06799C144.24362,146.7244 144.07426,147.6521 143.416,148.216C142.80373,148.74051 141.96283,149.24695 141.10001,149.464C140.2265,149.68376 139.3,149.50133 138.39999,149.72133L137.8,150.14734L136.89999,150.48933L136.08934,150.5" id="svg_14" stroke-width="3" stroke="#000" fill="none"/>
  <path t="163444,163611,163611,163669,163705,163746,163746,164347,164446,164486,164502,164549,164589,164601,164645,164645,165012" d="M128.5,145.5C128.66667,146.5 129.14546,147.20082 129.5,148C129.85529,148.80084 130.58217,149.42836 131.064,150.064C131.60732,150.78076 131.91777,150.90672 132.47467,150.11067C132.93643,149.45062 133.351,148.76849 133.936,148.11067C134.55215,147.41783 135.60001,147.49983 136.3,147.41467L137.14284,146.90984" id="svg_15" stroke-width="3" stroke="#000" fill="none"/>
  <path t="167505,168926,168926,169027,169630,169746,169926,170063" d="M127.5,138.5C128.33333,137.5 127.97262,136.56247 127,136.54167C126.15025,136.5235 126.04166,137.47917 126.88934,137.51067L127.52084,138.02083" id="svg_16" stroke-width="3" stroke="#000" fill="none"/>
  <path t="171657,172142,172219,172219,172269,172309,172481,172544,172732,172784,172798,172870,172870,172904,172905" d="M139.5,137.5C139.33333,139.33333 138.38193,139.5482 137.936,140.11067C137.32628,140.87976 137.75034,142.47241 137,142.45833C136.27261,142.44469 136.8286,140.90207 137.7,140.58533C138.54968,140.27647 139.5,140.16667 139.91066,139.64934L140.66667,138.83333L141.31467,138.56134" id="svg_17" stroke-width="3" stroke="#000" fill="none"/>
  <path t="176482,177157,177172,177306,177306,177347,177485,177500,177610,177636,177653,177705,177770,177800,177800,177822,177822,177863,177863,177951,178132,178132,178252,178303,178330,178404,178404,178845,179001,179001,179277,179277,179417,179598,179598,179648,179720,179790,179870,179870,179920,180190,180271,180271,180286,180286,180362,180378,180404,180487,180542,180735,180735,181179,181382,181433,181488,181542,181561,181750,181794,181795,181859" d="M82.5,107.5C84,106.02084 84.87284,105.70461 85.7,105.21467C86.38088,104.81136 86.98996,104.00663 87.416,103.30133C87.86413,102.55947 88.37392,101.77441 89.11066,101.51067C89.94803,101.21091 90.9,101.5 91.8045,101.5C92.66666,101.5 93.5,101.5 94.47867,101.5C95.25267,101.5 96.15266,101.5 97.016,101.5C98,101.5 98.82133,101.49939 99.67467,101.5C100.61333,101.50067 101.24065,102.11102 101.94667,102.464C102.72952,102.85539 103.85617,102.26158 104.43867,102.94667C105.03413,103.647 104.98343,104.52312 105.59967,105.4785C106.00406,106.10544 106.02956,106.90141 105.40017,107.6C104.85851,108.20121 104.49637,109.09566 103.7955,109.55267C103.02231,110.05682 102.4023,110.6023 101.8,111.2C101.10265,111.89202 100.40612,112.43912 99.5,112.5C98.74454,112.55077 97.84734,112.5 96.984,112.5C96.02084,112.5 95.1,112.5 94.2,112.5C93.3,112.5 92.4,112.5 91.5,112.5C90.7,112.5 89.79852,112.44551 89,112C88.203,111.55534 87.69126,110.8338 86.97916,110.52084C86.17379,110.16687 85.2,110.14733 84.5,109.66666L83.7,109.50134L82.8,109.5" id="svg_18" stroke-width="3" stroke="#000" fill="none"/>
  <path t="185266,185863,185923,186112,186186,186186,186201,186219,186282,186353,186575,186575,186622,186648,186700,186716,186990,187289,187289,187419,187916,188208,188351,188594,188768,188965,188965,189118,189228,189276,189301,189301,189331,189332,189365,189411,189643,189725,189726,189773,189774,189837,189837,190186,190236,190324,190881,190941" d="M144.5,95.5C143,96.97916 142.00545,97.25378 141.52533,97.94667C141.0078,98.69355 141.1116,99.60403 140.30133,100.33067C139.66959,100.8972 139.10042,101.35616 138.3,101.784C137.44414,102.24146 136.80002,102.49775 135.89999,102.5C135,102.50225 134.10001,102.50067 133.2,102.5C132.3,102.49933 131.2435,102.40881 130.78534,101.69867C130.32747,100.98897 130.5,100 130.5,99.1C130.5,98.2 130.5,97.3 130.5,96.4C130.5,95.5 130.03444,94.52046 130.58533,93.78533C131.04724,93.16893 132.26138,93.57825 133.15266,93.491C134.02684,93.40542 134.67924,92.73985 135.1955,92.20533C135.92001,91.45516 136.89999,91.5 137.8045,91.5C138.66667,91.5 139.5,91.5 140.47867,91.5C141.25267,91.5 142.15266,91.5 143.01601,91.5C143.97917,91.5 144.88933,91.51067 145.5,92.02084L145.84816,92.7955L145.95833,93.5" id="svg_19" stroke-width="3" stroke="#000" fill="none"/>
  <path t="193223,193442,193442,193474,193497,193518,193538,193546,193546,193595,193595,193620,193637,193661,193715,193715,193763,193836,193836,193895,193911,193967,194067,194116,194137,194157,194178,194218,194227,194267,194336,194336,194416,194501,194501,194501,194791" d="M105.5,103.5C106.5,104.5 106.5,105.3 106.5,106.2C106.5,107.1 106.40199,108.00645 106.51067,108.91067C106.6222,109.83875 106.97314,110.5293 107.5,111.33334C107.94076,112.00596 108.47141,112.79865 108.5,113.7C108.52854,114.59955 108.44949,115.50159 108.5,116.3C108.55728,117.20542 109.30929,117.67529 109.932,118.3C110.61604,118.98624 110.5,120 110.5,120.9C110.5,121.8 110.5,122.7 110.5,123.6C110.5,124.5 110.78298,125.1712 111.37867,125.72134C112.01563,126.30959 112.40905,126.96791 112.7215,127.82117C112.97006,128.49998 113.7,129.332 114.5,129.83333L114.9,130.36133L115.3,131.01733L115.9,131.85333" id="svg_20" stroke-width="3" stroke="#000" fill="none"/>
  <path t="197802,197993,198048,198076,198108,198139,198139,198139,198177,198206,198206,198214,198214,198214,198265,198265,198294,198330,198347,198403,198403,198435,198463,198515,198526,198557,198588,198589,198631,198659,198659,198739,198851,198851,198851,198913,199002,199067" d="M130.5,104.5C129.85266,105.2045 129.50534,106.09995 129.5,107C129.49521,107.80898 129.48351,108.83365 129.5045,109.50083C129.534,110.43851 129.95523,111.23397 130.60001,111.943C131.08441,112.47568 131.49265,113.50376 131.8,114.0955C132.19072,114.84772 132.78987,115.75212 133.3,116.29867C133.96616,117.01237 134.33429,117.89152 134.936,118.48534C135.50987,119.05167 135.89719,119.91972 136.8,120.38567C137.51801,120.75623 138.287,120.80662 138.50133,121.69867C138.68156,122.44883 139.73637,122.61264 140.14284,123.26167C140.64035,124.05608 140.66411,125.17059 141.30133,125.58266C142.01797,126.0461 142.65434,126.67944 143.32533,127.31467C143.8381,127.80011 144.73833,128.39017 145.44733,128.85266L146.02083,129.47917" id="svg_21" stroke-width="3" stroke="#000" fill="none"/>
  <path t="205117,205311,205355,205379,205404,205419,205439,205468,205488,205507,205538,205578,205637,205689,205689,205720,205721,205739,205770,205808,205827,205840,205871,205871,205899,205915,205977,205977,205993,205993,206017,206080,206102,206120,206120,206141,206168,206189,206212,206212,206256,206320,206320,206335,206335,206383,206404,206404,206422,206422,206444,206444,206444,206515,206515,206515,206539,206539,206558,206558,206582,206582,206600,206619,206651,206667,206668,206676,206677,206707,206707,206727,206745,206745,206759,206791,206791,206818,206848,206848,206878,206913,206946,206978,207012,207149,207149,207236,207261,207279,207321,207359,207411,207411,207451,207451,207481,207481,207509,207519,207572,207572,207572,207572,207587,207588,207588,207588,207626,207626,207636,207636,207665,207729,207729,207762,207763,207763,207774,207774,207827,207827,207828,207828,207866,207866,207866,207867,207892,207892,207892,207892,207925,207925,207959,207959,207969,207969,207970,208009,208010,208010,208040,208041,208041,208072,208073,208114,208114,208146,208204,208205,208253,208253,208281,208309,208346,208346,208381,208415,208451,208451,208457,208457,208458,208510,208510,208518,208519,208572,208612,208654,208666,208715,208745,208783,208815,208816,208816,208848,208848,208848,208880,208881,208911,208912,208912,208948,208949,208980,208980,209013,209050,209051,209081,209082,209115,209115,209149,209181,209213,209243,209277,209316,209316,209347,209348,209397,209397,209429,209448,209493,209549,209549,209580,209637,209669,209669,209698,209733,209748,209807,209847,209909,209934,209981,209981,210021,210044,210045,210080,210157,210197,210285,210344,210435,210505,210505,210568,210588,210622,210671,210671,210698,210742,210742,210742,211025,211058,211088,211089,211119,211165,211166,211198,211199,211235,211303,211345,211389,211420,211468,211497,211532,211532,211564,211609,211637,211713,211748,211749,211783,211815,211815,211844,211844,211845,211883,211984,211984,212058,212130,212164,212197,212266,212298,212331,212365,212640,212683,212732,212733,212785,212785,212866,212866,212885,212953,212981,213013,213043,213043,213114,213265,213307,213356,213357,213400,213401,213432,213432,213580,213642,213678,213678,213715,213745,213746,213757,213757,213810,213838,213839,213882,213915,213949,213981,213982,214011,214047,214075,214117,214117,214149,214163,214164,214208,214243,214260,214316,214352,214352,214382,214383,214518,214518,214579,214614,214648,214649,214682,214683,214715,214716,214748,214749,214749,214783,214783,214815,214816,214846,214846,214881,214913,214914,214947,214986,214993,214993,215046,215047,215047,215048,215079,215080,215116,215162,215163,215252,215268,215268,215346,215347,215377,215394,215447,215483,215483,215491,215542,215543,215576,215576,215577,215610,215635,215636,215678,215716,215770,215771,215802,215833,215864" d="M56.5,112.5C55.5045,114.2 55.5,115.1 55.5,116C55.5,116.9 55.5173,117.81135 55,118.5C54.53001,119.12567 54.5,120 54.5,120.9C54.5,121.8 54.5,122.7 54.5,123.6C54.5,124.5 54.5,125.25716 54.5,126.15266C54.5,127.016 54.5,127.97916 54.5,128.89999C54.5,129.8 54.39207,130.76007 54.85266,131.45183C55.31541,132.14682 55.49775,132.85182 55.5,133.74283C55.50242,134.70134 55.5,135.66667 55.5,136.32533C55.5,137.33333 55.5,138.1955 55.5,139.10001C55.5,140 55.48014,140.91087 55.50017,141.82117C55.51816,142.63925 56.03678,143.3466 56.5,144.02083C56.98431,144.72575 57.43336,145.59372 57.49866,146.38533C57.57596,147.32222 57.67735,148.32809 58,149C58.39138,149.81503 58.69039,150.80684 58.064,151.43866C57.38815,152.12036 56.72902,152.45985 56.584,153.26933C56.4038,154.27519 56.3849,155.34956 56.13833,156.04283C55.90157,156.70851 55.17337,157.69554 54.68533,158.3C54.20441,158.89566 53.66013,159.68359 53.54167,160.5C53.39795,161.49049 53.5,162.28934 53.5,163.33333C53.5,164.08934 53.5,165 53.5,165.89999C53.5,166.8045 53.5,167.82133 53.5,168.5C53.5,169.47867 53.5,170.384 53.5,171.32533C53.5,172.01601 53.5,173 53.5,173.98399C53.5,174.67467 53.5,175.74283 53.5,176.60017C53.5,177.38533 53.5,178.32533 53.5,179.33333C53.5,180.08934 53.5,181 53.5,181.89999C53.5,182.8 53.5,183.7 53.5,184.60001C53.5,185.5 53.5,186.3 53.5,187.2C53.5,188.10001 53.5,189 53.5,189.89999C53.5,190.8045 53.5,191.82133 53.5,192.5C53.5,193.47867 53.5,194.384 53.5,195.32533C53.5,196.01601 53.5,196.97917 53.5,197.93201C53.5,199 53.5,199.556 53.5,200.5625C53.5,201.31351 53.5,202.5 53.5,203.29601C53.5,204.06799 53.49187,204.79204 53.5,206C53.50533,206.79207 53.89171,207.63557 54.216,208.3C54.65337,209.19611 54.4026,210.18008 54.61433,210.9045C54.92141,211.95509 55.53621,212.48761 56.01733,213.10001C56.63479,213.88594 57.01475,214.50531 57.5,215.66667C57.7146,216.18028 58.00608,217.03519 58.14283,217.66167C58.43713,219.00989 58.44733,219.75267 58.5,220.5C58.55267,221.24733 58.63124,222.3407 58.85717,223.33833C58.9988,223.96373 59.28537,224.81984 59.69867,225.81334C60.0505,226.65907 60.3656,227.48167 60.55267,228.30983C60.7702,229.27287 61.00448,230.02678 61.30133,230.81734C61.67934,231.82399 62.0111,232.49524 62.3,233.18401C62.7161,234.17606 62.96397,234.99458 63.3,235.73067C63.74846,236.71304 64.2677,237.36859 64.44733,238.15266C64.64253,239.00468 64.97014,239.85143 65.5,240.66667C65.91695,241.3082 66.11191,242.43336 66.52533,243.05333C67.00857,243.77798 67.63516,244.34262 68.35067,244.89999C68.90736,245.33365 69.62516,246.05881 70.2045,246.66701C70.78835,247.27994 70.92269,248.05777 71.5,249.16667C71.86367,249.86522 72.38466,250.38333 73.15266,251.15266C73.67422,251.67513 74.41132,252.26607 74.95834,252.97917C75.53751,253.73421 75.91651,254.48448 76.5,255C77.13787,255.56357 77.31492,256.23126 77.536,257.10001C77.76131,257.98532 78.52679,258.82227 78.7955,259.50983C79.09424,260.2742 79.36588,261.32907 79.44283,262.04285C79.53441,262.89221 79.5,263.90134 79.5,264.73599C79.5,265.66666 79.5,266.44818 79.5,267.23868C79.5,268.35718 79.5,269.11465 79.5,270.15268C79.5,270.84732 79.5,271.86401 79.5,272.80899C79.5,273.47067 79.5,274.50534 79.5,275.24933C79.5,276.35699 79.5,277.19101 79.5,278.10001C79.5,279 79.5,279.89999 79.5,280.79999C79.5,281.70001 79.5044,282.60016 79.5,283.38535C79.49467,284.33603 79.47032,285.11798 79.14733,286.09549C78.89529,286.85828 78.67171,287.75827 78.49983,288.59982C78.32683,289.44687 77.25751,289.6004 76.78533,290.30133C76.30654,291.01205 76.0558,291.8923 75.40017,292.60001C74.85021,293.19363 74.5142,294.11914 73.88934,294.52533C73.15124,295.00513 72.71374,295.79132 72.14733,296.44733C71.63586,297.0397 71.5,297.8045 71.5,298.82132C71.5,299.5 71.5,300.47849 71.5,301.5C71.5,302.29999 71.48933,303.20007 71.5,304.10001C71.51042,304.97934 72.1106,305.49994 73,305.5C73.90006,305.50006 74.72363,305.24094 75.3,304.69867C76.00967,304.03101 76.27844,303.04272 76.936,302.52533C77.58416,302.01535 78.30033,301.69901 79.02084,300.97916C79.66695,300.33365 80.29049,299.64401 80.84734,299.20984C81.69051,298.5524 82.60148,298.96957 82.05733,299.60001C81.49171,300.25534 80.80573,300.80508 80.16666,301.5C79.60258,302.1134 78.77821,302.61758 78.41734,303.29999C78.03635,304.02042 77.51733,304.89944 77.5,305.79999C77.4827,306.69852 77.94725,307.25098 78.47467,307.936C78.97705,308.58853 79.49046,309.38925 80.3,309.49866C81.19377,309.61945 81.92339,310.18274 82.8,310.44284C83.5689,310.67099 84.5,310.5 85.3,310.5C86.25716,310.5 87.16167,310.5 87.96167,310.5C88.92117,310.5 89.71467,310.50146 90.49017,310.5C91.68568,310.49774 92.85387,310.55612 93.08567,309.7955C93.34338,308.94983 92.11165,308.5242 91.5,308C90.85371,307.44611 90.50067,306.69867 90.5,305.79999C90.49933,304.89999 91.36801,303.13199 90.5,303.13199C90.09033,303.13199 90.49942,304.47882 90.5,305.30984C90.50067,306.26801 90.37739,307.02707 90.66666,308.16666C90.84138,308.85495 91.33327,309.71149 91.50017,310.59982C91.64967,311.39554 92.34725,311.90442 92.784,312.70001C93.13977,313.34811 93.37592,314.33859 94.02084,314.97916C94.66688,315.62085 95.66666,315.5 96.5,315.5C97.47867,315.5 98.25267,315.5 99.15266,315.5C100.016,315.5 101.09161,315.67581 101.7955,315.14282C102.54832,314.57278 102.4988,313.70001 102.5,312.828C102.5015,311.73334 102.21859,310.92877 102.66666,310C103.0142,309.27963 103.45843,308.73718 103.5045,307.84732C103.54934,306.98138 104.11719,306.22186 104.41467,305.29999C104.69229,304.43964 104.74213,303.54623 105.14733,302.79999C105.56062,302.03888 105.40453,301.05545 105.784,300.29999C106.21958,299.4328 106.46033,298.73825 107.02084,298C107.61006,297.22394 108.35114,296.73169 108.4955,295.79999C108.63331,294.91058 108.35837,293.98709 108.51067,293.10001C108.65414,292.26431 109.23677,291.70633 109.41467,290.73199C109.54665,290.00912 109.5,288.83334 109.5,288.04166C109.5,287.10001 109.5,286.20001 109.5,285.29733C109.5,284.52933 109.5,283.49466 109.5,282.75067C109.5,281.83334 109.5,281 109.5,279.95715C109.5,279.23868 109.5,278.44818 109.5,277.42166C109.5,276.54166 109.5,275.52133 109.5,274.74734C109.5,273.84732 109.5,272.98401 109.5,272C109.5,271.17868 109.5,270.32535 109.5,269.38535C109.5,268.39999 109.5,267.5 109.5,266.79199C109.5,265.73584 109.5,265.13751 109.5,264.14001C109.5,263.46667 109.50063,262.272 109.5,261.35733C109.49933,260.38535 109.37394,259.46722 108.85333,258.86401C108.22498,258.13599 107.67443,257.6749 107.15266,257.15268C106.38632,256.38568 106.03057,255.55547 105.44733,254.85716C104.95375,254.2662 103.96899,254.00967 103.30133,253.3C102.75907,252.72362 102.54262,251.84004 102.21333,251.01466C101.91328,250.26256 101.34216,249.49277 100.85184,248.9045C100.22104,248.14769 99.58572,247.39755 99.5,246.5C99.42394,245.70363 99.5,244.8 99.5,243.864C99.5,243.01601 99.5,242.15266 99.5,241.136L99.5,240.3L99.5,239.39999" id="svg_22" stroke-width="3" stroke="#000" fill="none"/>
  <path t="220998,221162,221162,221210,221238,221238,221258,221259,221279,221279,221302,221311,221311,221343,221344,221344,221344,221368,221368,221388,221389,221389,221419,221420,221437,221457,221457,221478,221493,221528,221529,221565,221565,221596,221609,221609,221661,221661,221684,221684,221684,221729,221730,221766,221767,221800,221800,221824,221861,221902,221933,221933,221966,221967,222000,222035,222069,222077,222077,222137,222137,222164,222165,222165,222165,222236,222237,222237,222266,222299,222333,222368,222377,222377,222377,222377,222377,222431,222431,222431,222431,222432,222645,222745,222745,222781,222833,222863,222875,222934,222934,222967,222967,222975,222975,223041,223075,223121,223121,223156,223184,223265,223265" d="M64.5,154.5C64.5,155.5 64.4976,156.3 64.5,157.25717C64.50225,158.15718 64.4705,158.92845 64.78533,159.89867C65.04201,160.68968 65.65861,161.438 66.064,162.08934C66.54922,162.86894 66.7508,163.81094 67,164.54167C67.37874,165.65221 67.44184,166.4532 67.52533,167.27467C67.58038,167.81638 67.84556,169.05179 68.11066,169.72533C68.48376,170.67322 68.81334,171.44232 69.064,172.23866C69.35413,173.16039 69.41065,174.14684 69.936,174.89999C70.4071,175.57539 71.09249,176.08601 71.47467,176.89999C71.88853,177.78145 72.59542,178.1629 73.3,178.66933C74.0372,179.19919 74.32993,179.89514 75.1,180.55066C75.83466,181.17604 76.19281,181.91643 76.8215,182.4785C77.46269,183.05174 78.5,183.5 79.1,183.8C79.9,184.2 80.90675,184.68484 81.47916,185C82.34618,185.47737 82.98431,185.99474 83.7,186.7C84.30438,187.29559 84.79701,188.09749 85.7,188.41467C86.55295,188.71428 87.51299,188.40627 88.25716,188.55716C89.17857,188.744 89.86234,189.36285 90.47916,189.97917C91.05344,190.55299 92.04242,190.44881 92.82133,190.7215C93.70654,191.0314 94.49901,191.57664 95.02084,192.04167C95.86775,192.7964 96.25291,193.28439 97.02084,193.97917C97.54099,194.44977 98.55361,195.21365 99.25333,195.392C99.99665,195.58147 100.95249,195.63463 101.55267,196.14734C102.21165,196.71028 103.03378,197.08176 104,197.5C104.5434,197.73523 105.21651,197.90825 105.968,198.10001C106.78708,198.30902 108.12023,198.60269 109.03917,198.7955C109.49304,198.89073 110.36468,199.07487 111.16,199.21466C112.56808,199.46214 113.5,199.5 114.3,199.5C115.2,199.5 116.1,199.5 117,199.5C117.9,199.5 118.70267,199.5 119.47066,199.5C120.50533,199.5 121.25008,199.54045 122.35683,199.49983C123.1354,199.47125 123.51269,198.64865 124.02084,198C124.62231,197.23222 125.3,196.7 125.9,196.11067L126.69867,195.584L127.45634,195.13383L127.75467,194.528" id="svg_23" stroke-width="3" stroke="#000" fill="none"/>
  <path t="225502,225661,225710,225710,225738,225757,225757,225757,225777,225778,225800,225800,225885,225942,225963,225985,225985,225993,225993,226023,226041,226073,226074,226100,226100,226233,226233,226278,226291,226323,226323,226323,226354,226355,226355,226355,226489,226489,226489,226538,226572,226610,226610,226624,226624,226674,226674,227376,227376,227531,227531,227587,227629,227660,227660,227671,227671,227715,227715,227715,227715,227912,227912,227912,227912,227965,227965,228001,228001,228001" d="M106.5,200.5C107.584,201.38667 107.89381,202.13649 108.216,203.01601C108.52555,203.86101 108.93542,204.82762 109.36134,205.336C109.84354,205.91154 110.53335,206.66852 110.95834,207.47917C111.39147,208.30537 111.30595,209.2243 111.536,210.10001C111.76083,210.95586 112.70058,211.40866 113.60017,211.50017C114.38588,211.58009 115.30771,211.97139 116.016,212.216C116.95977,212.54195 117.8045,212.5 118.8215,212.5C119.52084,212.5 120.5,212.5 121.28934,212.5C122.33334,212.5 123.08933,212.5 124,212.5C124.91067,212.5 125.822,212.5 126.58334,212.5C127.35733,212.5 128.364,212.5 129.158,212.5C130,212.5 130.842,212.5 132,212.5C132.924,212.5 133.85394,212.70561 134.73833,212.4955C135.50874,212.31245 135.72714,211.23389 136.38667,210.7C137.10059,210.12209 137.90614,209.80325 138.69983,209.39999C139.4808,209.00319 140.36171,208.53465 140.97917,208C141.63179,207.43492 142.73042,206.6788 142.43834,205.85716C142.1722,205.10851 141.21204,204.7825 140.8,204.14816C140.20807,203.23685 139.6868,202.68904 138.957,201.957C138.4864,201.48494 137.95833,200.95833 137.39101,200.39101C136.5,199.5 135.90709,198.89948 135.32133,198.332C134.77608,197.80376 133.83333,197 133.15067,196.608L132.16667,196.5L131.23866,196.5L130.44817,196.5" id="svg_24" stroke-width="3" stroke="#000" fill="none"/>
  <path t="229209,229455,229455,229491,229491,229743,229786" d="M125.5,194.5C126.5,193.5 127.25716,193.5 128.15266,193.5L129.01601,193.5L129.95833,193.47917L130.56134,192.88933" id="svg_25" stroke-width="3" stroke="#000" fill="none"/>
  <path t="235710,235847,235847,235929,235929,235951,235951,235951,235989,235990,235990,235990,235990,235990,235990,235990,235990,236006,236006,236006,236061,236078,236098,236098,236119,236119,236138,236159,236159,236159,236184,236185,236185,236185,236206,236206,236206,236206,236225,236225,236245,236263,236264,236290,236290,236310,236310,236341,236341,236397,236397,236453,236453,236453,236502,236546,236546,236566" d="M5.5,146.5C7.336,146.5 8.10133,146.5 9.0955,146.5C10.01467,146.5 10.98133,146.5 11.48533,146.5C12.23733,146.5 13.33333,146.5 14.03467,146.5C14.824,146.5 15.67933,146.5 16.57867,146.5C17.5,146.5 18.42133,146.5 19.32067,146.5C20.176,146.5 21.66667,146.50246 22.26333,146.49983C23.49337,146.49442 24.04622,146.05089 24.78667,145.58533C25.53514,145.11472 26.50077,145.53871 27.4785,145.49983C28.19719,145.47125 29.01288,144.92802 29.83333,144.5C30.48945,144.15771 31.29387,143.92168 32.33333,143.5C33.0581,143.20598 33.76977,142.8419 34.26933,142.52933C35.48818,141.76668 36.13878,141.25826 36.47917,141.02083C37.44323,140.34839 38.24739,139.89011 39.068,139.496C39.91307,139.09015 40.56765,138.3627 41.136,137.89999C41.94159,137.24416 42.70115,136.94026 43.47867,136.39999C44.14994,135.93355 44.82488,135.40596 45.5,135C46.48375,134.40846 47.12219,133.8873 47.6,133.17883C48.03057,132.54041 48.59983,131.74283 49.37867,131.2785L49.7215,130.40016L50.2045,129.85716L51.064,129.47467" id="svg_26" stroke-width="3" stroke="#000" fill="none"/>
  <path t="237665,237893,237893,237960,237982,237996,237996,237996,237996,238019,238019,238019,238019,238082,238082,238099,238120,238138,238156,238156,238156,238156,238195,238211,238211,238238,238239,238239,238267,238275,238275,238307,238307,238307,238332,238332,238404,238440,238466,238484,238493,238513,238514,238587,238588,238638,238682" d="M3.5,192.5C4.5,191.5 5.30007,191.48914 6.2,191.5C7.06269,191.51042 8.00035,191.66507 8.867,191.85266C9.54194,191.99875 10.25105,192.18106 11.33333,192.33333C12.33442,192.47417 12.95817,192.48846 13.81333,192.49867C15.03825,192.51331 15.83833,192.49937 16.74283,192.5C17.69867,192.50067 18.37098,193.02328 19.16667,193.33333C19.87151,193.60799 20.83462,193.49365 21.44933,193.49867C22.63296,193.50833 23.66667,193.5 24.336,193.5C25.5,193.5 26.28933,193.5 27.01467,193.5C27.97917,193.5 28.93538,193.48645 29.556,193.58533C30.55897,193.74512 31.49875,194.00555 32.142,194.14734C33.23346,194.38792 34.06796,194.49466 35,194.5C35.89999,194.50514 36.8,194.5 37.7,194.5C38.6,194.5 39.5,194.5 40.3,194.5C41.2,194.5 42.1,194.5 43,194.5L43.9,194.5" id="svg_27" stroke-width="3" stroke="#000" fill="none"/>
  <path t="240807,241166,241211,241211,241228,241245,241245,241245,241262,241283,241283,241300,241300,241300,241300,241300,241336,241336,241352,241376,241376,241408,241471,241471,241471,241511,241511,241536,241536,241542,241543,241543,241568,241576,241576,241603,241631,241648,241665,241665,241682,241683,241700,241700,241700,241848,241848,241848,241893,241893,241893,241916,241934,241934,241953,241953,241965,241987,241987,241995,242041,242058,242058,242088,242088,242104,242104,242119,242119,242154,242154,242193,242207,242225,242241,242258,242258,242274,242291,242291,242309,242310,242327,242333,242333,242358,242378,242378,242379,242397,242397,242407,242407,242408,242434,242434,242434,242434,242434,242434,242443,242444,242464,242488,242488,242506,242557,242580,242581,242649,242650,242650,242650,242677,242781,242825,242826,242857,242895,242927,242927,242927,242927,242928" d="M178.5,89.5C179.11067,87.9 179.8,87.2 180.3,86.7C181.02083,85.97916 181.65839,85.32482 182.15266,84.85184C182.83607,84.19786 183.66728,83.78422 184.5,83.33334C185.27039,82.9162 185.99643,82.16207 186.552,81.73333C187.17204,81.25484 187.81009,80.76591 188.448,80.35333C189.42377,79.72224 190.3511,79.49412 191.10001,78.88934C191.7543,78.36095 192.3,77.7 193,77C193.60001,76.4 194.14474,75.73899 194.89999,75.11066C195.55675,74.56428 196.41298,74.36813 197.15717,73.79017C197.73347,73.34259 198.46982,72.61765 199.28934,72.14667C199.99141,71.74319 200.89934,71.60564 201.82117,71.2785C202.50243,71.03674 202.96584,70.12239 203.7215,69.6215C204.46074,69.13149 205.49898,69.33186 206.136,68.88934C206.98529,68.29936 207.51685,67.92924 208.66667,67.66666C209.44096,67.48985 210.28667,67.54601 211.33333,67.33334C212.0544,67.18681 212.72736,66.90709 213.69983,66.17883C214.3152,65.71799 214.78259,65.10778 215.74283,64.60983C216.55878,64.18671 217.10234,63.83754 217.98399,63.30133C218.65157,62.89533 219.61159,62.54272 220.5,62.5C221.29907,62.46158 221.92903,62.12944 222.7215,61.6215C223.4682,61.14289 224.31615,61.34349 224.91066,60.64933C225.39885,60.07931 226.34267,59.59312 227.10133,59.41733C228.10608,59.18452 228.86238,58.82478 229.61467,58.30133C230.31798,57.81198 231.09996,57.50533 232,57.5C232.89998,57.49467 233.85664,57.63654 234.7,57.216C235.36165,56.88607 236.25716,56.50225 237.15717,56.5C237.9045,56.49813 238.94057,56.72219 239.78566,56.44283C240.59425,56.17555 241.03976,55.24611 241.68533,54.936C242.5818,54.50536 243.66667,54.5 244.336,54.5C245.10133,54.5 246.10661,54.55813 246.89999,54.44283C247.92146,54.29439 248.59697,53.9543 249.52667,53.69867C250.3277,53.47841 251.31796,53.29731 251.85884,53.2045C252.97777,53.0125 253.53632,52.92866 254.59467,52.78533C255.86983,52.61264 256.68893,52.60156 257.60001,52.49983C258.50961,52.39827 259.03763,51.7387 260,51.52083C260.88843,51.3197 261.82916,51.57003 262.54166,51.45833C263.68982,51.27833 264.18808,50.94182 264.97916,50.5C265.73593,50.07733 266.68033,49.55728 267.60001,49.5C268.49826,49.44406 269.29999,49.5 270.20001,49.5C271.08334,49.5 272.16666,49.5 272.83734,49.5L273.612,49.5L274.43466,49.5L275.24933,49.5" id="svg_28" stroke-width="3" stroke="#000" fill="none"/>
  <path t="245014,245293,245293,245336,245336,245336,245354,245354,245355,245355,245372,245372,245372,245391,245391,245391,245391,245391,245415,245415,245433,245434,245453,245453,245460,245461,245487,245487,245503,245504,245504,245532,245532,245543,245543,245566,245582,245599,245617,245633,245633,245650,245666,245667,245688,245688,245688,245704,245721,245738,245764,245765,245773,245799,245799,245816,245816,245817,245839,245840,245840,245857,245857,245879,245880,245904,245904,245920,245952,245953,245964,245984,245984,245993,246019,246036,246036,246052,246053,246071,246088,246088,246112,246112,246134,246152,246168,246168,246185,246202,246202,246217,246217,246218,246233,246233,246252,246252,246260,246286,246294,246294,246340,246340,246380,246381,246389,246437,246474,246474,246474,246501,246502,246510,246510" d="M203.5,146.5C205.34666,146.064 205.95224,145.77176 206.92149,145.40016C207.72862,145.09071 208.59734,144.81958 209.5,144.66667C210.39444,144.51517 211.30235,144.49515 211.89999,144.416C213.10884,144.25591 213.72055,144.06107 214.71434,143.7955C215.83246,143.4967 216.66533,143.3 217.09633,143.2C217.95833,143 218.81458,142.90013 220.11383,142.39999C220.7663,142.14883 221.22362,141.31296 221.66933,140.7C222.21272,139.9527 223.10588,139.70634 223.89867,139.3C224.66718,138.90611 225.47762,138.39827 226.16133,137.864C227.04092,137.17665 227.51811,136.87013 228.21333,136.32533C229.02092,135.69249 229.48495,134.81532 230.36133,134.52533C230.99271,134.31641 232.00807,134.0491 232.7955,133.55267C233.5033,133.10646 233.66814,132.13736 234.5,131.66667C235.22964,131.25381 236.00061,130.95015 236.82133,130.39983C237.48451,129.95515 238.35469,129.35071 238.74283,128.85184C239.33221,128.0943 240.10757,127.6928 240.7955,127.14283C241.53314,126.55312 241.56033,125.39682 242.11067,124.936C242.79668,124.36158 243.69833,123.92731 244.136,123.27866C244.66306,122.49755 245.13068,121.87745 245.71066,121.336C246.46716,120.62977 247.29771,120.1496 247.84283,119.8045C248.76202,119.22257 249.37071,118.67896 250.15266,118.2C250.83623,117.7813 251.75598,117.21424 252.29866,116.7C253.01791,116.01842 253.60001,115.4 254.2,114.8C254.89999,114.1 255.59714,113.57833 256.064,112.9C256.63098,112.07621 256.78488,111.09827 257.60001,110.62117C258.25409,110.23834 258.8757,109.62321 259.29999,108.98267C259.86826,108.12477 260.68536,107.77406 261.29999,107.33067C262.04279,106.79482 262.16888,105.87081 262.89999,105.14667C263.59491,104.45838 264.5343,104.37526 265.20001,103.7955C265.83511,103.24241 266.65869,102.72853 267.25717,102.333C268.09119,101.7818 268.45984,100.93966 269.10132,100.352C269.83594,99.67902 270.71173,99.62451 271.61465,99.216C272.35175,98.88252 273.08765,98.40403 273.60983,97.7955C274.16037,97.15394 274.89362,96.79361 275.89868,96.584C276.65549,96.42617 277.65588,96.26521 278.29868,95.69867C279.03033,95.05379 279.30896,94.10046 279.83334,93.5C280.41165,92.83779 281.10266,92.61467 281.89868,92.01733L282.664,91.36134L283.47849,90.74284L284.1955,90.45184" id="svg_29" stroke-width="3" stroke="#000" fill="none"/>
  <path t="250453,250816,250917,250917,250950,251036,251530,251605,251733,251733,251867,252001,252181,252330,252419,252487,252568,252568,252623,252718,252803" d="M92.5,105.5C93.11066,106.11066 93.70454,106.69548 94.3,107.3C94.98443,107.99485 95.87277,108.8798 95.49866,109.69733C95.27142,110.19395 94.39919,109.40081 93.9,108.9C93.20337,108.20112 93.0454,107.19968 92.2785,106.6215C91.5705,106.08772 90.56089,106.71523 90.5,107.6C90.4382,108.49788 90.5,109.3 90.58533,110.21467L91.30133,110.49866L92.2,110.44283" id="svg_30" stroke-width="3" stroke="#000" fill="none"/>
  <path t="256063,256392,256579,256643,256704,256741,256976,257054,257103,257392,257515,257551,257551,257574,257594,258029,258233" d="M136.5,96.5C135.5,96.5 134.56842,96.10759 133.78534,96.58533C132.98175,97.07558 132.63658,97.82605 132.07466,98.47467C131.56535,99.06257 131.31544,100.14661 132.02083,100.47916C132.82591,100.85873 133.85094,100.6855 134.63867,100.464C135.5629,100.20412 136.07466,99.47467 136.4955,98.7955L136.5,97.9" id="svg_31" stroke-width="3" stroke="#000" fill="none"/>
  <path t="262728,262943,263020,263067,263104,263169,263169,263216,263250,263287,263309,263309,263348,263381,263412,263412,263446,263447,263496,263524,263542,263584,263592,263643,263673,263684,263684,263714,263749,263829,263829,263877,263877,263945,263945,264177,264230,264284,264284,264339,264371,264690,264690,264754" d="M123.5,157.5C124,158.5 124.4808,159.28069 125,160.02083C125.51596,160.75636 125.82613,161.53667 126.216,162.3C126.60054,163.0529 126.38856,164.06958 126.85717,164.8C127.37036,165.59991 128.24123,166.03377 128.464,166.89999C128.68947,167.77669 128.4263,168.67178 128.52083,169.5C128.63408,170.49226 129.32164,170.94446 130.064,171.52533C130.68697,172.01279 131.42456,172.43542 131.97917,173.02083C132.66687,173.74669 133.13377,174.40192 133.5,175.04167C133.98851,175.89505 133.89685,176.9193 134.8,177.38567C135.60625,177.802 136.62492,177.69208 137.2,178.2045C137.83354,178.76901 138.38612,179.29877 139.31467,179.89999C139.9312,180.29919 140.48933,181.09982 140.5,182.02083C140.51115,182.98393 140.5,183.67467 140.5,184.61467C140.5,185.60001 140.5,186.5 140.5,187.3L140.5,188.2" id="svg_32" stroke-width="3" stroke="#000" fill="none"/>
 </g>
</svg>