<svg width="500" height="334.26183844011143" xmlns="http://www.w3.org/2000/svg" xmlns:svg="http://www.w3.org/2000/svg" xmlns:xlink="http://www.w3.org/1999/xlink">
 <!-- Created with SVG-edit - http://svg-edit.googlecode.com/ -->
 <g display="inline" class="layer">
  <title>Layer 1</title>
  <path t="0,117,165,237,357,397,418,469,494,519,544,573,573,594,619,644,669,694,719,768,793,877,877,894,919,946,1013,1053,1093,1143,1168,1309,1437,1460,1493,1518,1543,1568,1629,1668,1693,1757,1797,1818,1844,1845,1868,1901,1919,1948,2004,2045,2076,2132,2133,2149,2196,2218,2244,2268,2294,2348,2405,2468,2493,2525,2573,2573,2605,2637,2685,2740,2821,2821,2868,2894,2949,2989,2989,2996,3020,3084,3101,3141,3169,3196,3218,3244,3284,3294,3324,3357,3388,3453,3453,3492,3519,3568,3594,3618,3619,3661,3700,3719,3744,3768,3794,3818,3852,3901,3919,3949,4021,4060,4068,4108,4132,4164,4204,4244,4268,4293,4669,4773,4820,4844,4869,4893,4919,4943,4944,4968,5020,5021,5093,5118,5144,5168,5196,5218,5364,5365,5428,5460,5484,5508,5556,5557,5596,5628,5660,5676,5694,5718,5788,5812,5812,5852,5892,5919,5944,5968,5969,5994,6020,6130,6237,6237,6333,6404,6405,6445,6500,6518,6519,6717,6797,6852,6884,6884,6919,6943,6944,6968,6994,7018,7043,7084,7085,7116,7143,7168,7244,7268,7300,7324,7344,7369,7394,7418,7444,7444,7508,7508,7540,7572,7593,7636,7701,7724,7748,7748,7772,7804,7844,7918,7944,7969,7993,8133,8133,8156,8781,8794,8818,8843,8844,8868,8869,8893,8919,8943,8988,8988,9036,9037,9076,9124,9144,9172,9218,9243,9269,9300,9300,9348,9380,9394,9418,9508,9524,9524,9556,9644,9684,9756,9756,9876,9956,9956,10084,10140,10276,10277,10308,10324,10364,10394,10443,10468,10469,10493,10518,10519,10543,10544,10544,10569,10594,10619,10619,10643,10644,10676,10676,10948,12462,12494,12533,12549,12597,12901,12973,12973,13045,13109,13189,13285,13333,13429,14117,14533,14637,14733,14861,14861,14909,14981,15037,15333,15365,15395,15420,15446,15469,15533,15597,15619,15709,15749,15789,15789,15819,15853,15944,15969,15994,16028,16061,16077,16109,16157,16301,16301,16333,16365,16395,16419,16461,16500,16533,16589,16644,16669,16725,16744,16769,16821,16844,16870,16901,16945,17004,17021,17061,17070,17094,17149,17253,17276,17374,17461,17493,17519,17549,17589,17589,17621,17621,17645,17669,17695,17719,17744,17770,17794,17861,17893,17945,17945,17981,18077,18149,18205,18253,18301,18333,18357,18357,18405,18461,18525,18589,18644,18685,18709,18741,18773,18805,18805,18837,18972,18997,19021,19061,19101,19124,19213,19469,19541,19569,19594,19619,19677,19837,20141,20189,20261,20389,20493,21061,21095,21095,21181,21212,21261,21276,21341,21945,21997,22052,22108,22172,22194,22220,22340,22369,22445,22509,22532,22580,22596,22685,22732,22748,22772,22794,22819,22844,22870,22908,22948,23021,23061,23100,23119,23148,23180,23220,23301,23485,23548,23629,23709,23748,23770,23861,23876,23876,23900,23920,23972,24028,24140,24188,24219,24276,24405,24419,24444,24557,24636,24733,24756,24804,24836,24844,24844,24892,24945,24988,25020,25068,25204,25268,25348,25349,25404,25436,25500,25556,25569,25593,25620,25644,25724,25764,25793,25828,25894,25920,25943,25968,25996,26028,26043,26076,26093,26124,26172,26193,26218,26243,26244,26268,26293,26342,26342,26381,26429,26449,26532,26572,26636,26637,26652,26692,26748,26772,26812,26852,26908,26924,26980,27028,27044,27092,27124,27164,27193,27219,27244,27300,27324,27404,27436,27436,27469,27493,27518,27543,27569,27596,27597,27628,27652,27676,27724,27748,27772,27819,27843,27893,27948,28020,28021,28084,28100,28118,28228,28276,28300,28300,28340,28372,28394,28418,28444,28484,28484,28494,28528,28884,28908,28948,28969,29044,29100,29119,29172,29236,29293,29319,29345,29369,29395,29420,29420,29445,29501,29525,29573,29605,29621,29653,29685,29709,29741,29770,29794,29819,29820,29845,29877,29901,29933,29970,29994,30020,30020,30061,30149,30169,30221,30253,30317,30345,30437,30653,30685,30717,30773,30794,30795,30820,30844,30869,30909,31061,31189,31373,31394,31395,31419,31469,31494,31495,31519,31565,31595,31595,31661,31717,31765,31795,31795,31853,31853,31870,31894,31920,31944,31973,31995,32019,32044,32045,32069,32094,32120,32144,32169,32277,32333,32365,32365,32397,32429,32445,32469,32533,32565,32597,32645,33757,33770,33853,33925,33945,34269,34295,34319,34344,34369,34394,34419,34453,34470,34494,34581,34637,34669,34725,34725,34764,34818,35078,35108,35180,35212,35244,35364,35364,35572,35636,35676,35699,35700,35740,35740,35788,35868,35916,35944,36020,36075" d="M270.01135,185.31274C270.01135,187.01274 270.01135,187.91273 270.01135,188.81274C270.01135,189.71274 270.16223,190.62424 270.01135,191.60825C269.89941,192.33832 269.10001,192.69478 268.58603,193.2874C268.06671,193.88618 268.22766,194.84108 267.95419,195.60291C267.65338,196.44089 267.37463,197.11452 266.97537,197.87674C266.57816,198.63504 266.40439,199.24457 265.92603,200.0274C265.43518,200.83063 264.58441,201.11716 263.91153,201.53424C263.19321,201.97948 263.01852,203.12842 262.21002,203.3114C261.33353,203.50978 260.24261,203.25458 260.01587,204.01724C259.74844,204.91667 259.3179,204.96288 258.5322,205.33357C257.8269,205.66634 258.01135,206.81274 258.01135,207.71274C258.01135,208.61273 258.01135,209.51274 258.01135,210.41273C258.01135,211.31274 258.01135,212.19141 258.01135,213.01724C258.01135,213.91273 258.15344,214.82574 258.0007,215.71274C257.85724,216.54588 257.09641,217.30014 257.0127,218.11273C256.92047,219.00801 257.01135,219.91273 257.01135,220.81274C257.01135,221.70207 257.01135,222.59807 257.01135,223.51274C257.01135,224.41273 256.98425,225.3132 257.01135,226.11273C257.03998,226.95702 257.69226,227.5956 258.29538,228.22874C258.84225,228.80284 258.84436,229.62865 259.0127,230.5114C259.15714,231.26878 259.99335,231.7375 260.01135,232.59807C260.03049,233.51254 260.05914,234.414 260.01135,235.31274C259.96863,236.11613 259.34964,236.79189 258.62204,237.2874C257.95621,237.74083 257.36475,238.3074 256.52737,238.31274C255.66405,238.31824 254.64737,238.31274 253.81137,238.31274C252.91136,238.31274 251.96593,238.50653 251.21136,238.2274C250.34177,237.90572 250.02937,236.92395 250.01137,236.0274C249.99301,235.11292 250.01137,234.21274 250.01137,233.31274C250.01137,232.43407 250.01137,231.60825 250.01137,230.71274C250.01137,229.81274 250.01137,228.91273 250.01137,228.01274C250.01137,227.11273 250.01137,226.21274 250.01137,225.31274C250.01137,224.51274 250.22566,223.58806 250.01137,222.66991C249.83029,221.8941 249.07225,221.21886 249.01137,220.31274C248.95773,219.51454 249.01137,218.61273 249.01137,217.71274C249.01137,216.81274 249.10684,215.86819 248.72737,215.11273C248.29178,214.24554 247.56531,213.76512 247.09669,213.0274C246.65758,212.33611 246.46295,211.64342 246.06853,210.95557C245.59866,210.13617 246.17343,209.0127 245.65869,208.3654C245.16637,207.74631 244.57848,207.06152 244.17802,206.31274C243.75475,205.52129 243.18423,204.9608 242.65869,204.3654C242.09544,203.72728 241.23698,203.26828 241.01587,204.01724C240.76231,204.8761 240.84857,205.75079 240.36403,206.3654C239.85202,207.01485 240.04758,207.94955 240.00687,208.96541C239.97897,209.6615 239.68452,210.58238 239.01137,211.31274C238.47079,211.89925 238.01404,212.67096 237.51137,213.31274C237.02885,213.9288 237.15346,214.82574 237.0007,215.71274C236.85722,216.54588 236.09639,217.30014 236.0127,218.11273C235.92049,219.00801 236.01137,219.91273 236.01137,220.81274C236.01137,221.70207 236.35934,222.44664 236.72737,223.11407C237.18181,223.93822 236.6683,224.9913 237.0322,225.7919C237.38365,226.56512 237.60017,227.14015 238.06853,227.95557C238.53491,228.76755 239.18491,229.351 238.92603,230.11273C238.62425,231.00064 238.27657,231.75336 238.00687,232.60825C237.76477,233.37561 236.78775,233.57181 236.21136,234.11407C235.50169,234.78174 235.30278,235.88759 234.5647,236.27673C233.79033,236.68501 232.8367,236.31274 231.8967,236.31274C231.01137,236.31274 230.21136,236.31274 229.31137,236.31274C228.37537,236.31274 227.47722,236.54472 226.72119,236.25557C225.82393,235.9124 225.25861,235.2446 224.92737,234.42607C224.62445,233.67752 224.22227,232.96016 223.58603,232.29141C222.99236,231.6674 223.01363,230.96091 223.01137,229.94875C223.00929,229.01274 223.01137,228.11273 223.01137,227.21274C223.01137,226.31274 223.03862,225.51233 223.01137,224.61273C222.98277,223.66861 222.15518,223.2628 222.01137,222.3654C221.87624,221.52216 222.01137,220.61273 222.01137,219.71274C222.01137,218.81274 222.01137,217.91273 222.01137,217.01274C222.01137,216.11273 222.01137,215.21257 222.01137,214.4274C222.01137,213.48741 222.01137,212.79674 222.01137,211.7234C222.01137,210.81274 222.01137,209.91273 222.01137,209.01274C222.01137,208.11273 222.01137,207.21274 222.01137,206.31274C222.01137,205.51274 222.01137,204.61273 222.01137,203.71274C222.01137,202.83357 222.01137,201.95557 222.01137,201.01274C222.01137,200.11273 222.01137,199.21274 222.01137,198.31274C222.01137,197.51274 222.41762,196.47189 221.93936,195.74873C221.45377,195.01448 220.38437,195.12094 219.8447,194.31274C219.43019,193.69199 218.77299,192.9055 218.12604,192.59807C217.25697,192.18507 216.24284,192.4229 215.3647,192.27673C214.50288,192.13329 213.77304,191.793 212.89803,191.11273C212.32565,190.66776 212.07401,189.56006 211.30687,189.31725C210.48651,189.05759 210.20395,188.56786 209.97537,187.70207C209.75191,186.85567 208.75774,186.52373 207.91136,186.0914C207.25606,185.75668 206.57779,185.15773 205.95869,184.66541C205.31142,184.15067 204.55988,183.98172 203.8447,183.4794C203.14926,182.99095 202.08096,183.70575 201.29669,183.2274C200.49318,182.73732 199.92737,182.31274 199.01137,182.31274C198.21136,182.31274 197.37537,182.31274 196.3587,182.31274C195.66403,182.31274 194.64737,182.31274 193.70686,182.31274C192.8447,182.31274 191.73701,182.98682 191.0327,182.27673C190.49353,181.73315 190.60016,180.49016 191.06853,179.66991C191.53285,178.85674 191.8399,178.27519 192.09669,177.51274C192.36551,176.71461 193.12805,176.00053 193.51137,175.2919C194.03445,174.32487 194.20142,173.64555 194.71136,173.02707C195.3849,172.21019 196.33195,171.97728 197.01137,171.31274C197.52751,170.80789 198.1087,169.98984 198.51137,169.31274C199.0081,168.47745 199.45326,167.81104 199.95869,167.01724C200.40475,166.31668 200.95146,165.7619 201.36403,165.01274C201.82582,164.17419 202.22659,163.37363 203.11136,163.31274C204.00925,163.25095 204.81137,163.31274 205.71136,163.31274C206.61136,163.31274 207.51137,163.31274 208.41136,163.31274C209.30687,163.31274 209.74773,163.87444 210.44736,164.27673C211.19702,164.70781 212.21136,164.31274 213.11136,164.31274C214.01137,164.31274 214.81137,164.31274 215.71136,164.31274C216.61136,164.31274 217.56912,164.61751 218.4007,164.30208C219.12985,164.0255 219.07831,162.96918 219.58603,162.2874C220.06323,161.64659 220.01137,160.71274 220.01137,159.81274C220.01137,158.91273 220.01137,158.01724 220.01137,157.09123C220.01137,156.21274 219.8432,155.27631 220.09669,154.51274C220.35304,153.74057 220.7787,152.89307 221.0127,152.02873C221.20885,151.30418 221.95146,150.7619 222.36403,150.01274C222.82582,149.17419 223.49403,148.70525 223.92603,148.0274C224.41982,147.25261 224.29633,146.25317 224.65869,145.61273C225.12311,144.79195 225.82965,144.70602 226.57536,144.27673C227.26492,143.87976 227.01009,142.49556 227.8447,142.31274C228.69569,142.12634 229.77551,142.42888 230.01137,141.7919C230.31296,140.97739 230.53204,140.32536 231.41136,140.31274C232.30679,140.29988 233.03267,139.93066 233.58603,139.2874C234.14568,138.63684 234.94319,138.70578 235.72603,138.2274C236.52925,137.73657 236.68799,136.74388 237.44736,136.34874C238.21448,135.94957 239.35989,136.52928 239.95419,135.96007C240.48349,135.45311 240.81822,134.64221 241.5322,134.33357C242.33942,133.98462 243.31137,134.31274 244.21136,134.31274C245.11136,134.31274 246.02425,134.40591 246.76852,134.25557C247.69424,134.06857 248.40701,133.67531 249.24969,133.01724C249.97318,132.45227 250.71587,132.31274 251.61136,132.31274C252.51137,132.31274 253.41136,132.31274 254.31137,132.31274C255.21136,132.31274 256.11136,132.31274 257.01135,132.31274C257.81137,132.31274 258.71136,132.31274 259.57538,132.31274C260.5322,132.31274 261.41138,132.31274 262.31137,132.31274C263.21136,132.31274 264.11136,132.31274 265.01135,132.31274C265.81137,132.31274 266.71136,132.31274 267.61136,132.31274C268.51135,132.31274 269.43457,132.55525 270.29538,132.3114C271.0751,132.09053 271.56213,131.37256 272.31137,130.96007C273.14999,130.49835 274.01221,130.34995 274.81137,130.31274C275.72903,130.27002 276.32898,129.56615 276.92737,129.02873C277.56583,128.45532 278.09543,127.89821 278.65869,127.26007C279.18423,126.66467 280.11566,126.67639 280.8447,126.14607C281.50043,125.66909 281.75055,124.70506 282.44736,124.34874C283.29718,123.91418 283.88528,123.58714 284.62204,123.3234C285.45938,123.02366 286.66919,123.49186 287.0007,122.73808C287.3475,121.94956 286.90439,121.0062 287.0127,120.11274C287.12418,119.19297 287.84726,118.54411 288.0007,117.71274C288.1604,116.84763 288.80215,116.31186 289.01004,115.51141C289.22208,114.69496 289.92761,114.15844 290.01135,113.31274C290.10159,112.40119 290.00061,111.59668 290.01135,110.70207C290.02179,109.83338 290.48648,109.11258 291.17804,108.47941C291.77609,107.93184 292.39359,107.52342 293.21002,107.3114C294.0105,107.10352 294.53201,106.32316 295.41138,106.31274C296.31131,106.30207 297.30923,106.47209 297.95871,105.96008C298.5733,105.47554 299.32269,105.33002 300.01135,104.81274C300.63705,104.34274 301.56332,104.60184 302.4007,104.30207C303.13745,104.03833 303.62198,103.31807 304.51135,103.31274C305.41135,103.30734 306.32269,103.33002 307.01135,102.81274C307.63705,102.34274 308.51135,102.31274 309.4007,102.31274C310.29669,102.31274 311.21136,102.31274 312.11136,102.31274C313.01135,102.31274 313.55899,102.7588 314.29669,103.2274C314.98813,103.66661 316.14493,103.35154 316.65421,104.01723C317.17252,104.69475 317.72556,104.91418 318.57538,105.34874C319.27219,105.70506 319.92761,106.46704 320.01135,107.31274C320.0903,108.11018 320.23792,108.85522 320.89005,109.53407C321.4472,110.11408 321.86319,110.76084 322.01135,111.60824C322.13858,112.33582 322.98276,112.66861 323.01135,113.61274C323.0386,114.51233 323.01135,115.41273 323.01135,116.31274C323.01135,117.11274 323.01135,118.01274 323.01135,118.91273C323.01135,119.81274 323.01135,120.71274 323.01135,121.60824C323.01135,122.47941 323.01135,123.41273 323.01135,124.31274C323.01135,125.11274 323.01135,126.01274 323.01135,126.91273C323.01135,127.81274 323.02203,128.70209 323.51135,129.31274C324.0007,129.92342 324.16043,130.67757 324.65869,131.3654C325.16122,132.05914 324.65018,133.11366 325.04736,133.87674C325.4426,134.63608 326.13507,135.091 326.58603,135.91273C327.01407,136.69272 326.81647,137.63441 327.0127,138.5114C327.1933,139.31845 327.76083,139.78644 328.01587,140.60825C328.25269,141.37132 329.00027,141.88741 329.01135,142.83357C329.02164,143.71274 329.4537,144.42456 329.8447,145.31274C330.13419,145.97038 330.01135,146.91273 330.01135,147.83357C330.01135,148.79674 330.01135,149.48741 330.01135,150.55557C330.01135,151.41257 330.32828,151.89374 330.88986,152.53424C331.47455,153.20107 331.01135,154.31274 331.01135,155.11273C331.01135,156.01274 331.01135,156.91273 331.01135,157.81274C331.01135,158.71274 331.01135,159.61273 331.01135,160.51274C331.01135,161.41257 331.01135,162.31274 331.01135,163.11407C331.01135,164.01274 331.01135,164.91273 331.01135,165.81274C331.01135,166.71274 331.20627,167.63441 331.01004,168.5114C330.82947,169.31847 330.02936,169.74823 330.01135,170.71274C329.99463,171.60809 330.17529,172.52983 329.8447,173.31274C329.51437,174.095 329.07666,174.84485 328.65869,175.61273C328.20102,176.45354 327.61395,176.99638 327.06403,177.66991C326.48972,178.37331 326.27811,179.19064 325.51135,179.7919C324.86295,180.30037 324.07492,180.67487 323.51135,181.31274C322.99585,181.89622 322.17197,181.90291 321.36404,182.3699C320.67972,182.76546 320.15274,183.53722 320.0112,184.41273C319.86511,185.31628 319.35773,185.87314 318.71585,186.61273C318.13724,187.27942 317.59369,187.86714 317.13287,188.53424C316.62881,189.26393 317.25665,190.40839 316.8407,191.11273C316.38315,191.88756 315.45822,192.22015 314.99054,192.81274C314.47299,193.46854 314.03076,194.10252 313.65421,194.96091C313.36096,195.62936 312.29718,196.15962 312.02203,196.9234C311.72061,197.76018 312.01135,198.71274 312.01135,199.61273C312.01135,200.51274 312.01135,201.41257 312.01135,202.26007C312.01135,203.11407 312.01135,204.01274 312.01135,204.91273C312.01135,205.81274 312.01135,206.71274 312.01135,207.61273C312.01135,208.51274 312.01135,209.41273 312.01135,210.31274C312.01135,211.11273 312.10315,211.84708 312.58603,212.34874C313.13385,212.91786 313.01135,213.91273 313.01135,214.81274C313.01135,215.71274 312.99405,216.6241 313.51135,217.31274C313.98135,217.93842 314.1279,218.71394 314.58603,219.37407C315.09329,220.105 315.01135,221.14607 315.01135,221.90207C315.01135,222.81274 315.01135,223.71274 315.01135,224.61273C315.01135,225.51274 314.69235,226.6105 315.29669,227.22874C315.90479,227.85081 316.81888,227.96991 317.0007,228.91273C317.17114,229.79652 316.87195,230.78114 317.29538,231.5114C317.77451,232.33769 318.01135,233.01724 318.01135,233.91273C318.01135,234.81274 318.25909,235.74898 318.00687,236.60825C317.78024,237.38031 316.79257,237.81325 316.01135,238.14607C315.25983,238.46626 314.31137,238.31274 313.41138,238.31274C312.51135,238.31274 311.59482,238.48399 310.71585,238.31274C309.96979,238.16739 310.01135,237.21274 310.01135,236.31274C310.01135,235.51274 309.72989,234.81898 309.13269,234.09123C308.53448,233.36224 308.26089,232.65477 307.71585,232.01274C307.07516,231.25803 306.79077,230.34605 306.43671,229.71274C305.9552,228.85147 306.32715,227.85181 306.00235,227.01724C305.6991,226.23802 304.53226,226.3416 304.12119,225.60291C303.71753,224.87755 303.43787,224.01945 303.09671,223.11407C302.77881,222.27036 302.36319,221.60861 302.01135,220.81274C301.65784,220.01312 301.07224,219.21886 301.01135,218.31274C300.9577,217.51454 301.01135,216.61273 301.01135,215.71274C301.01135,214.81274 301.01135,213.91273 301.01135,213.01724C301.01135,212.09123 301.01135,211.21274 301.01135,210.31274C301.01135,209.51274 301.01135,208.61273 301.01135,207.71274C301.01135,206.81274 301.01135,205.91273 301.01135,205.01274C301.01135,204.11273 301.09509,203.20889 301.01135,202.33807C300.92764,201.46739 300.05408,201.03075 300.01135,200.21274C299.96439,199.31396 300.68103,197.72707 300.01135,197.72707C299.12567,197.72707 300.01135,199.51274 300.01135,200.41273C300.01135,201.31274 300.01135,202.22874 300.01135,203.01724C300.01135,203.91273 300.01135,204.81274 300.01135,205.70207C300.01135,206.66991 300.01135,207.51274 300.01135,208.41273C300.01135,209.31274 300.01135,210.11273 300.01135,211.0274C300.01135,211.96007 299.91333,212.73595 299.36404,213.3654C298.74756,214.07188 298.32755,214.70996 297.65421,215.26007C296.9519,215.83382 296.56665,216.27782 295.92737,217.0274C295.3595,217.69324 294.72778,218.27002 293.8447,218.31274C293.01233,218.35301 292.03287,218.31274 291.21271,218.31274C290.36853,218.31274 289.49054,218.31274 288.5322,218.2919L287.98602,217.73807L287.29538,217.22874L286.8447,216.4794" id="svg_1" stroke-width="3" stroke="#000" fill="none"/>
  <path t="39477,39769,39769,39796,39819,39844,39869,39894,39919,39994,40020,40044,40069,40094,40119,40144,40169,40196,40219,40252,40275,40332,40380,40412,40468,40604,40604,40628,40724,40771,41060,41093,41118,41143,41143,41143,41460,41475,41475,41507,41539,41569,41569,41612,41644,41717,41748,41788,41788,41812,41852,41884,41919,41949,41980,41996,42019,42044,42069,42094,42119,42119,42156,42188,42219,42244,42269,42404,42500,42580,42652,42669,42694,42719,42744,42780,42812,42820,42844,42869,43940,43969,43969,43994,43994,44028,44068,44094,44140,44236,44236,45540,45569,45594,45619,45619,45644,45788,45788,45836,45852,45869,45894,45919,45944,45969,45994,46019,46043,46069,46099,46123,46123,46147,46169,46212" d="M294.01135,216.31274C295.17804,217.31274 295.43542,218.00316 296.01135,218.7919C296.47888,219.43219 296.9985,220.01732 297.01135,220.91273C297.02399,221.79205 297.74472,221.95949 298.51135,222.33357C299.20013,222.66966 298.64465,223.89246 299.0322,224.7919C299.34,225.50626 300.00909,226.01723 300.01135,226.91273C300.01361,227.81274 299.76849,228.74757 300.01587,229.60825C300.23657,230.37613 301.00095,230.8334 301.01135,231.7919C301.02087,232.66986 301.01135,233.51274 301.01135,234.41273C301.01135,235.31274 301.01135,236.11273 301.01135,237.01274C301.01135,237.91273 301.40723,238.90559 300.99054,239.7919C300.65872,240.49767 299.59003,240.31274 298.67804,240.31274C297.76071,240.31274 297.01669,240.31274 295.98203,240.31274C295.01135,240.31274 294.21136,240.31274 293.31137,240.31274C292.49054,240.31274 291.47153,240.55914 290.72119,240.25557C289.87186,239.91194 290.01355,238.7919 290.01135,237.91273C290.00909,237.01273 289.62531,236.17436 289.29538,235.51274C288.87485,234.66936 289.01361,233.71274 289.01135,232.83357C289.00909,231.96005 288.28577,231.43881 288.02203,230.70207C287.72229,229.86472 288.01135,228.91273 288.01135,228.01274C288.01135,227.11273 288.01135,226.21274 288.01135,225.31274C288.01135,224.51274 288.0228,223.61266 288.01135,222.66991C288.00095,221.81256 287.1933,221.31845 287.0127,220.5114C286.81647,219.63441 287.01675,218.71272 287.01135,217.81274C287.00601,216.92336 286.29437,216.43568 286.02203,215.70207C285.71234,214.86781 285.59003,214.05388 285.13269,213.21291C284.72617,212.46541 284.08557,211.9429 283.58603,211.33807C283.04471,210.68266 283.06396,209.7309 282.44336,209.1114C281.92966,208.5986 281.26111,207.80199 280.9967,207.17407C280.62003,206.27957 280.0177,205.6852 279.58603,204.91273C279.1282,204.09349 278.99167,203.17024 278.36404,202.66991C277.6347,202.08849 277.09189,201.63722 276.57538,200.91273C276.01529,200.12712 275.41138,199.71274 274.71136,199.01274C274.01135,198.31274 273.63455,197.74742 273.03671,196.9234C272.56464,196.27274 271.36487,196.49725 271.0322,195.7919C270.65707,194.99651 271.18472,193.9366 270.72736,193.11407C270.31943,192.38048 270.01135,191.70207 270.01135,190.81274C270.01135,189.91273 270.14789,188.95612 269.72736,188.11273C269.39743,187.45111 269.01587,186.61273 269.01135,185.71274L269.01135,184.81274" id="svg_2" stroke-width="3" stroke="#000" fill="none"/>
  <path t="50702,50820,50820,50844,50870,50901,50920,50945,50970,50995,51020,51044,51044,51070,51070,51095,51095,51120,51144,51170,51195,51220,51244,51244,51284,51284,51308,51388,51420,51452,51508,51532,51556,51580,51596,51620,51645,51670,51694,51694,51720,51745,51772,51795,51820,51860,51940,51970,51994,52019,52044,52044,52076,52076,52109,52132,52148,52204,52420" d="M299.01135,159.31274C299.8447,159.64607 300.00601,160.49803 300.01135,161.42607C300.01657,162.33806 300.01135,163.11407 300.01135,164.01274C300.01135,164.91273 300.01135,165.81274 300.01135,166.71274C300.01135,167.61723 300.12134,168.64995 299.9697,169.31274C299.73383,170.34364 298.97229,170.76448 298.17804,171.31274C297.51624,171.76959 296.68484,172.08961 295.81268,172.31407C295.01178,172.52019 294.50183,173.15224 293.71136,173.66991C292.91629,174.1906 292.48492,174.78732 291.81268,175.51274C291.27481,176.09319 290.70001,176.69748 290.17804,177.4794C289.70621,178.18623 289.56104,178.85768 289.09671,179.59807C288.60861,180.37633 289.01135,181.41257 289.01135,182.26007C289.01135,183.11407 289.01135,184.01274 289.01135,184.91273C289.01135,185.7234 288.91962,186.64293 289.04736,187.48741C289.1926,188.44736 289.91809,189.1339 290.01135,189.9234C290.11328,190.78615 290.46469,191.5461 291.09537,192.02873C291.81714,192.58109 292.8074,192.40712 293.51135,192.81274C294.30554,193.27036 295.19983,193.61572 295.76852,194.01724C296.64502,194.63608 297.40289,194.84836 298.24969,195.26007C299.03918,195.64394 299.51135,196.2919 300.02203,196.73807L300.58603,197.33807" id="svg_3" stroke-width="3" stroke="#000" fill="none"/>
  <path t="53532,53619,53644,53669,53708,53708,53719,53744,53769,53794,53819,53844,53844,53869,53894,53919,53944,53969,53994,54019,54044,54069,54069,54094,54119,54156,54156,54180,54204,54219,54276,54276,54294,54344,54420,54564,54572,54604" d="M311.01135,155.31274C312.61136,157.32741 313.36176,157.83008 314.21136,158.22874C315.07166,158.63242 315.80798,158.97208 316.0007,159.91273C316.18146,160.79497 316.30139,161.7058 317.11121,162.19141C317.841,162.62903 318.29633,163.3723 318.65869,164.01274C319.12311,164.83353 319.79929,165.37721 319.97537,166.16341C320.1897,167.12036 319.82861,168.04362 320.04736,168.91273C320.26453,169.77554 320.95047,170.40662 321.01135,171.31274C321.06497,172.11093 321.01135,173.01274 321.01135,173.94875C321.01135,174.79674 321.01135,175.66006 321.01135,176.67674C321.01135,177.51274 321.01135,178.41273 321.01135,179.31274C321.01135,180.11273 320.64166,180.74228 320.13287,181.53407C319.66193,182.267 320.01135,183.31274 320.01135,184.19141L320.01135,185.01724" id="svg_4" stroke-width="3" stroke="#000" fill="none"/>
  <path t="58212,58519,58544,58594,58619,58660,58660,58669,58694,58719,58748,58748,58771,58795,58828,58908,59012,59067,59379,59725,59772,59772" d="M310.01135,151.31274C309.95419,152.96007 309.4505,153.5201 308.79004,154.19141C308.18024,154.81125 307.64395,155.46075 307.29538,156.11273C306.84232,156.96014 306.53552,157.87659 305.71136,158.26007C304.9447,158.61682 304.24274,159.14862 303.41138,159.30208C302.54623,159.46176 301.81125,159.78789 301.17804,160.4794C300.63052,161.07732 299.92737,161.31274 299.09671,161.0274L299.01135,160.21274L299.01135,159.31274L299.01135,158.51274" id="svg_5" stroke-width="3" stroke="#000" fill="none"/>
  <path t="60893,61316,61369,61395,61395,61444,61469,61494,61519,61884,61884,61900,61947" d="M298.01135,152.31274C299.8447,152.31274 300.46408,151.89304 301.11121,151.21274C301.66895,150.62642 301.69113,149.6445 302.0322,148.83357C302.34372,148.0929 302.98602,147.4514 303.17804,146.4794L303.5322,145.8544L304.30685,145.3654L304.98602,144.88741" id="svg_6" stroke-width="3" stroke="#000" fill="none"/>
  <path t="65861,66076,66095,66164,66221,66252,66308,66373,66404,66404,66436,66492,66548,66580,66708,66724,66725,66805,66820,66870,66895,66932,66957,67100,67132,67197,67228,67228,67268,67294,67332,67444,67469" d="M291.01135,139.31274C291.01135,141.11273 291.01135,141.95557 291.01135,142.83357C291.01135,143.81274 291.01135,144.71274 291.01135,145.61273C291.01135,146.51274 291.18491,147.351 290.92603,148.11273C290.62427,149.00064 290.02936,149.7122 290.01135,150.61273C289.99338,151.51122 290.01135,152.4794 290.01135,153.31274C290.01135,154.11273 289.99988,155.01282 290.01135,155.95557C290.02179,156.81293 290.80215,157.31361 291.01004,158.11407C291.22208,158.93051 291.55893,159.75887 292.29669,160.2274C292.98816,160.66653 294.01135,160.31274 294.81137,160.31274C295.71136,160.31274 296.61136,160.31274 297.51135,160.31274L298.41138,160.31274L299.4007,160.31274" id="svg_7" stroke-width="3" stroke="#000" fill="none"/>
  <path t="75069,75245,75269,75294,75294,75319,75319,75363,75700,75719,75744,75744,75769,75769,75769" d="M289.01135,152.31274C289.99054,152.3544 290.01135,153.17407 290.01135,154.14607C290.01135,154.93806 290.01135,155.96541 290.01135,156.66006C290.01135,157.67674 290.01135,158.60374 290.01135,158.54657C290.01135,157.65108 290.01135,156.85107 290.01135,155.89157L290.01135,155.09807L290.01135,154.32257" id="svg_8" stroke-width="20" stroke="#fff" fill="none"/>
  <path t="77453,77570,77595,77595,77619,77620,77652,77652,77670,77670,77700,77764,77804,77820" d="M285.01135,152.31274C285.92603,152.02608 285.93768,151.14096 286.0322,150.31274C286.14548,149.32016 286.65851,148.71165 287.11121,147.99141C287.52496,147.33316 287.91089,146.33705 288.01004,145.51407C288.12012,144.60059 288.95419,144.30824 289.01135,143.5114L289.09671,142.59807" id="svg_9" stroke-width="20" stroke="#fff" fill="none"/>
  <path t="83726,84084,84124,84169,84212,84244,84269,84294,84319,84348,84348,84370,84412,84484,84532,84580,84595,84669,84732,84932,84948,85045,85120,85204" d="M288.01135,144.31274C288.04736,143.32341 289.08966,142.75638 289.8447,143.4794C290.44055,144.05 290.17804,145.14609 291.01135,145.31274C291.8447,145.47942 292.4928,146.06853 292.89005,146.7554C293.32538,147.50816 293.77005,148.24466 294.00687,149.01724C294.25903,149.83992 294.83051,150.36424 295.01004,151.11407C295.22366,152.00629 295.95871,152.31274 296.81268,152.31274C297.71136,152.31274 298.61136,152.31274 299.49054,152.31274L300.29669,152.02873L301.01135,151.4794" id="svg_10" stroke-width="3" stroke="#000" fill="none"/>
  <polyline timestamps="89660,90212,90235" startTime="1503452910202" id="svg_11" points="294.01136471971495,144.3127383928407 294.1780313863816,142.47940505950737 294.8898647197149,142.5342383928407 " stroke-linecap="round" stroke-width="3" stroke="#000" fill="none"/>
  <polyline timestamps="91108,92124" startTime="1503452910202" id="svg_12" points="298.01136471971495,144.3127383928407 298.8898647197149,143.0914050595074 " stroke-linecap="round" stroke-width="3" stroke="#000" fill="none"/>
  <path t="102597,103446,103757,103780,103820" d="M311.01135,116.31274C310.55304,117.31274 311.49054,117.33357 312.0007,117.92341L311.99054,118.79191" id="svg_14" stroke-width="3" stroke="#000" fill="none"/>
  <path t="105213,105596,105780,105828,105949,106341,106695,106716" d="M296.01135,120.31274C296.01135,118.51274 296.00839,117.49711 296.81268,117.31407C297.68896,117.11465 298.64069,117.31274 297.81268,117.31407L297.09671,117.5994" id="svg_15" stroke-width="3" stroke="#000" fill="none"/>
  <path t="115756,115875,115895,115920,115969,115970,115995,116019,116045,116091,116119,116163,116163,116171,116219,116245,116270,116347,116348,116394,116420,116492,116492,116604,116701,116724" d="M290.01135,140.31274C290.01135,139.93407 289.89597,140.82027 290.01135,141.70207C290.12305,142.55579 290.78601,143.13658 291.71136,143.30824C292.64038,143.48058 292.89136,144.15269 293.5322,144.7919C294.17578,145.43384 295.32388,145.50513 295.72604,146.11407C296.2258,146.87077 296.55899,147.7588 297.29669,148.2274C297.98813,148.66661 298.95944,148.55804 299.65421,148.96007C300.40182,149.39267 301.31824,148.96298 302.01135,148.31274C302.51642,147.83891 303.4007,147.33807 303.9697,146.7919L303.65869,146.01274" id="svg_16" stroke-width="20" stroke="#fff" fill="none"/>
  <path t="117661,117820,117820,117846,117895,117896,117921,117972,118005,118046,118141,118141,118148,118171,118197,118253,118421,118446,118471,118495,118520,118521,118546,118546,118546,118571,118571,118571,118596,118596,118596,118853,118853" d="M287.01135,142.31274C288.01135,141.31274 288.81137,141.31274 289.72604,141.31274C290.58069,141.31274 291.36319,141.31274 292.37537,141.31274C293.31137,141.31274 294.21136,141.31274 295.11136,141.31274C296.01135,141.31274 296.79947,141.41884 297.51135,141.81274C298.39734,142.30299 299.30685,142.31274 300.17804,142.31274C301.11121,142.31274 301.92419,142.13965 301.21002,142.39807C300.31113,142.72334 299.87665,143.62462 299.19702,143.95557C298.30283,144.39101 297.46634,144.28342 296.6087,144.39674C295.40524,144.55577 294.81543,144.75523 293.91138,144.96007C293.01505,145.16316 292.12036,145.25557 291.28336,145.30208L290.3447,145.31274L289.43271,145.31274" id="svg_17" stroke-width="20" stroke="#fff" fill="none"/>
  <path t="120108,120324,120348,120533,120548" d="M285.01135,139.31274C285.01135,141.11273 285.01135,141.95557 284.97537,142.88741L284.36404,143.3654" id="svg_18" stroke-width="20" stroke="#fff" fill="none"/>
  <path t="126429,126471,126532,126532,126546,126596,126621,126621,126645,126692,126720,126745,126771,126771,126796,126796,127037,127046,127071,127071,127096,127096,127096,127121,127121,127121,127121,127146,127146,127171,127171,127220,127246,127271,127308,127308,127332,127346,127371,127508,127521" d="M296.01135,110.31274C296.89804,110.39807 297.92258,110.62103 298.44202,111.11407C299.17529,111.81007 299.04318,112.85499 299.01004,113.7954C298.98154,114.60433 298.43719,115.23696 297.98602,115.92341C297.5,116.66288 297.26126,117.62508 296.67804,118.31274C296.13901,118.94828 295.30179,119.43689 294.92871,120.11274C294.47668,120.93159 294.76041,120.44793 295.44336,119.91273C296.02676,119.45557 297.0658,119.11472 297.69803,118.90207C298.71234,118.56089 299.69217,118.17001 300.24069,117.83007C300.99042,117.36543 301.5527,116.72972 302.61136,116.42707C303.38721,116.20527 304.45792,116.55244 305.29703,116.25557C306.13983,115.9574 306.73062,115.33743 307.06403,116.0744C307.45154,116.93099 307.7926,117.62769 307.97537,118.67673C308.11899,119.5011 308.01154,120.41257 308.29538,121.22607L308.97537,120.87674" id="svg_19" stroke-width="20" stroke="#fff" fill="none"/>
  <path t="128380,128520,128520,128546,128546,128571,128571,128595,128596,128620,128646,128646,128671,128696,128721,128721,128748,128748,128748,128771,128796,128821,128821,128821,128846,128846,128846,128846,128871,128871,128871,128871,128896,128896,128921,128921,128946,128970,128996,128996,128996,129021,129021,129021,129021,129045,129045,129045,129070,129071,129071,129071,129096,129096,129096,129096,129120,129121,129121,129155,129171,129171,129195,129220,129245,129246,129271,129271,129296,129296,129420,129446,129446,129470,129470,129470,129470,129470,129470,129496,129496,129496,129496,129496,129496,129521,129521,129521,129521,129555,129555,129587,129603,129604,129621,129646,129646,129671,129671,129671,129671,129671,129696,129696,129696,129696,129721,129721,129746,129821,129821,129971,129972,129995,129996,130003,130004,130004,130004,130004,130004,130004" d="M312.01135,114.31274C310.17804,114.47941 309.91672,115.21706 309.13937,115.70207C308.46078,116.12547 307.41263,116.28008 306.61136,116.30824C305.61331,116.3433 304.84735,116.31274 303.8967,116.31274C302.91119,116.31274 302.12604,116.31274 301.19669,116.31274C300.25403,116.31274 299.41904,116.41826 298.60236,116.1984C297.77551,115.97581 297.06873,115.26306 296.4967,114.88074C295.58319,114.27017 294.5448,114.40219 293.8447,113.97941C293.1105,113.53604 292.59818,112.88695 292.03302,111.89108C291.73721,111.36983 291.43018,110.4724 291.29803,109.82607C291.08823,108.7997 291.03958,107.6983 291.02203,106.97408C291.00528,106.28221 290.93048,105.0779 291.04736,104.17007C291.15668,103.32095 291.6189,102.59956 292.03671,101.71274C292.42209,100.89481 293.16721,100.29395 293.86868,99.90207C294.52063,99.53785 295.34106,99.13865 296.31671,98.66457C297.00882,98.32829 297.68686,97.96876 298.67804,97.64607C299.48828,97.38229 300.22589,97.3234 301.4332,97.31274C302.26868,97.30536 302.89404,97.31274 303.58337,97.31274C304.75388,97.31274 305.61221,97.31274 306.49054,97.31274C307.34888,97.31274 308.51135,97.31274 309.43536,97.31274C310.14337,97.31274 311.12604,97.31274 312.01135,97.31274C312.81137,97.31274 313.71136,97.312 314.64737,97.31274C315.49536,97.31341 316.41095,97.24411 317.2587,97.66991C317.95239,98.01833 318.76151,98.45744 319.44202,99.0274C320.14651,99.61745 320.07684,100.73095 319.41403,101.19807C318.55759,101.80167 318.02014,101.80428 316.99136,102.14874C316.42917,102.33697 315.84143,102.51359 314.65802,102.91407C313.50809,103.30322 312.96851,103.49461 311.98737,103.91273C311.08749,104.29623 310.67178,104.49832 309.9007,104.91273C308.82205,105.49244 308.18283,105.92078 307.25803,106.44073C306.7037,106.7524 305.47794,107.24696 304.67303,107.30374C303.77072,107.3674 302.91119,107.31274 302.12604,107.31274C301.19669,107.31274 300.17404,107.31274 299.50204,107.31274C298.30203,107.31274 297.87735,107.31274 296.92804,107.31274C295.89871,107.31274 295.37402,107.31454 293.85504,107.31257C293.38736,107.31196 292.52087,107.37064 291.44904,107.25557C290.48849,107.15244 289.87415,106.47626 288.99054,106.33357C288.04489,106.18087 286.66605,105.76608 286.66605,106.31274C286.66605,107.0144 288.45004,106.31274 289.10703,106.31274C290.17804,106.31274 291.20068,106.31274 291.78455,106.31274C292.39935,106.31274 293.67004,106.31274 294.29987,106.31274L294.90869,106.31274" id="svg_20" stroke-width="20" stroke="#fff" fill="none"/>
  <path t="134479,134636,134636,134745,134956,135028,135205" d="M283.01135,122.31274C284.01135,122.31274 284.81137,122.31274 285.72604,122.31274L286.65869,122.25557L287.06403,121.60824L287.5322,120.83357" id="svg_21" stroke-width="3" stroke="#000" fill="none"/>
  <path t="137268,137428,137477,137500,137521,137765,137773,137796,137909,137925,137947,137947,137971,137971" d="M284.01135,122.31274C284.01135,123.11407 284.1951,124.03924 283.97537,124.91273C283.75833,125.77557 283.3934,126.77611 282.72604,127.2274C281.96603,127.74134 281.04001,127.65941 281.01135,127.25024C280.94583,126.31503 281.01135,125.52341 281.01135,124.47941L281.04736,123.7234" id="svg_22" stroke-width="20" stroke="#fff" fill="none"/>
  <path t="138861,138988,138988,138996,139020,139046,139046,139071,139071,139096,139096,139156,139156" d="M285.01135,122.31274C286.01135,122.31274 286.81207,122.34865 287.71136,122.31274C288.61353,122.27671 289.37646,121.62905 289.65421,120.90374C290.02167,119.94408 290.0007,119.11274 290.01135,118.11291L290.01135,117.33357L290.01135,116.33424L290.01135,115.61724" id="svg_23" stroke-width="20" stroke="#fff" fill="none"/>
  <polyline timestamps="139469,139571" startTime="1503452910202" id="svg_24" points="288.01136471971495,121.31273839284071 287.5753647197149,122.74873839284072 " stroke-linecap="round" stroke-width="20" stroke="#fff" fill="none"/>
  <path t="143949,144348,144348,144371,144436,144468,144531,144531,144579,144676,144763,144780,144812,144821,144868,144932,145028,145046,145204,145221,145307,145420,145508,145539,145628,145659,145740,145851,145932,145988,145988,146035,146071,146108,146156,146172,146172,146203,146236,146308,146652,146652,146988,146995,147021,147046,147071,147096,147121,147147,147148,147171,147195,147220,147246,147283,147296,147396,147436,147467,147507,147531,147596,147723,147755,147828,147867,147900,147900,147923,147946,147970,148083,148156,148172,148251,148299,148332,148363,148435,148435,148483,148545,148571,148571,148596,148643,148675,148716,148821,148846,148846,148875,149020,149046,149155,149171,149268,149331,149332,149347,149395,149476,149524,149556,149604,149644,149716,149780,149780,149804,149948,149972,149996,150004" d="M272.01135,132.31274C273.01135,132.31274 273.8118,132.34 274.71136,132.31274C275.65552,132.28415 276.06317,131.45636 277.01135,131.31274C277.80234,131.19293 278.78479,131.6613 279.57538,131.31274C280.19507,131.03952 280.6221,130.32755 281.51135,130.31274C282.49063,130.29645 282.95279,129.55405 283.71585,129.31725C284.53766,129.06219 285.06287,128.49359 285.81268,128.31407C286.70493,128.10045 286.67419,127.16377 287.17804,126.47941C287.65878,125.82643 288.62311,125.57561 288.97537,124.87674C289.40958,124.0153 289.01135,123.01723 289.01135,122.14607C289.01135,121.21274 289.01135,120.31274 289.01135,119.51274C289.01135,118.61274 289.02325,117.68761 288.58603,116.91273C288.17624,116.1865 288.01135,115.31274 288.01135,114.51274C288.01135,113.61274 287.76935,112.86437 287.29538,112.22874C286.72211,111.45991 286.50729,110.3027 287.09671,109.59807C287.57343,109.02814 288.61945,109.902 288.98602,110.71274C289.33887,111.49316 290.0079,112.0266 290.71585,112.42707C291.44611,112.84016 291.89389,113.65007 292.57538,114.32741C293.14236,114.89094 293.9566,114.89563 294.65421,115.3699C295.33636,115.83368 295.11099,117.00094 295.81268,117.39674C296.62912,117.85725 297.4505,118.05237 298.30685,118.31724C299.07016,118.55332 299.58597,119.3074 300.44736,119.31274C301.31134,119.31808 302.21136,119.31274 303.11136,119.31274C304.01135,119.31274 304.81137,119.31274 305.71136,119.31274C306.61136,119.31274 307.44943,119.14995 308.06403,118.66541C308.71347,118.1534 309.86673,118.26305 310.01135,117.39674C310.1412,116.619 310.25342,115.86438 310.72736,115.22874C311.3006,114.45991 310.60861,113.37633 311.09671,112.59807C311.56104,111.85768 312.05017,111.17918 312.71585,110.66991C313.39337,110.15157 314.00525,109.52011 314.71585,109.31724C315.62009,109.05907 316.21896,108.56755 317.01135,108.14607C317.65195,107.80534 318.56909,107.61887 319.4007,107.30207C320.11688,107.02924 320.44736,106.31338 321.31137,106.31274C322.21136,106.31207 323.06219,106.0119 323.71136,105.66541C324.56073,105.21206 325.56909,105.00797 326.4007,105.3234C327.12988,105.59998 327.01135,106.71274 327.01135,107.61274C327.01135,108.51274 327.01135,109.41273 327.01135,110.31274C327.01135,111.11274 326.92603,112.0274 326.06854,112.31724L325.92603,113.11407L325.49054,113.79191L324.61136,114.27674" id="svg_25" stroke-width="3" stroke="#000" fill="none"/>
  <path t="152565,152622,152660,152661,152661,152740,152771,152797,152822,152847,153046,153046,153072,153072,153097,153097,153097,153122,153148,153236" d="M320.01135,109.31274C321.05304,109.33357 322.02011,109.45411 322.80069,109.73808C323.53503,110.00522 324.50534,110.15599 325.41138,110.3234C326.24188,110.47686 326.42593,111.51547 327.01154,112.19124C327.25143,112.46806 326.48178,112.20493 326.05136,111.44073C325.66498,110.75471 325.17081,109.90104 324.51135,109.33357C323.87418,108.78526 323.17838,108.0744 322.65869,107.3654L322.04736,106.87674" id="svg_26" stroke-width="20" stroke="#fff" fill="none"/>
  <path t="157365,157571,157571,157604,157671,157732,157732,157861,157946,157988,158036,158036,158068,158121,158146,158171,158204,158221,158246,158321,158348,158421,158446,158471" d="M323.01135,105.31274C323.01135,106.31274 323.01135,107.11274 323.01135,108.01274C323.01135,108.94874 323.01135,109.79674 323.01135,110.66007C323.01135,111.66607 323.01135,112.53424 323.01135,113.41273C323.01135,114.31274 322.88708,115.09018 322.43671,115.91273C322.00943,116.69313 322.08441,117.66291 321.58603,118.28741C321.10083,118.89537 321.14426,119.72327 321.00687,120.61274C320.86319,121.54284 320.13287,122.19141 320.01135,122.92341L320.01135,123.91273L320.01135,124.81274" id="svg_27" stroke-width="3" stroke="#000" fill="none"/>
  <path t="159988,160684,161096,161164,161172,161212" d="M292.01135,134.31274C293.71136,134.25557 294.51135,133.7919 295.21002,133.11407L295.8447,132.4794L296.62204,132.31274" id="svg_28" stroke-width="3" stroke="#000" fill="none"/>
  <path t="162357,162572,162604,162621,162671,162696,162696,162721,162746,163061,163068" d="M306.01135,130.31274C307.81137,130.31274 308.64679,130.28705 309.49054,130.81274C310.21204,131.26228 310.96512,131.55486 311.71136,131.96007C312.47247,132.37335 313.49054,132.33357 313.96469,132.9234L313.57538,133.70207" id="svg_29" stroke-width="3" stroke="#000" fill="none"/>
  <path t="165493,165595,165595,165621,165675,165675,165732,165956,165972,165996,166021,166021,166046,166075,166075" d="M308.01135,131.31274C309.01135,131.31274 309.82315,131.16644 310.72604,131.31274C311.6138,131.45659 312.62094,131.71281 313.01135,132.53424C313.3884,133.32753 312.72845,134.36292 311.81137,134.3114C310.99573,134.26559 310.31137,133.60825 309.70688,133.01724L308.8447,132.4794L308.0322,132.31274" id="svg_30" stroke-width="3" stroke="#000" fill="none"/>
  <polyline timestamps="166860,167203,167221" startTime="1503452910202" id="svg_31" points="311.01136471971495,130.3127383928407 311.01136471971495,132.14607172617406 310.29536471971494,132.39807172617404 " stroke-linecap="round" stroke-width="3" stroke="#000" fill="none"/>
  <path t="169765,169852,169872,169897,169933,170245,170271,170297,170297,170322" d="M309.01135,131.31274C309.01135,132.31274 309.13589,133.09134 309.58603,133.91273C310.01361,134.69298 310.01135,135.59924 310.01135,135.27107L310.01135,134.33424L310.01135,133.51407L310.01135,132.59807" id="svg_32" stroke-width="20" stroke="#fff" fill="none"/>
  <path t="171453,171572,171572,171612,171917,171972,171972,172004,172084" d="M310.01135,130.31274C311.01135,131.31274 311.01135,132.11273 311.01135,133.01274C311.01135,133.94208 310.79004,133.21274 310.29538,132.51274L310.02203,131.71274L310.01135,130.81274" id="svg_33" stroke-width="20" stroke="#fff" fill="none"/>
  <path t="175725,176620,176684,176696,176722" d="M310.01135,131.31274C310.01135,132.19124 309.30685,132.31274 308.41138,132.31274L307.5322,132.31274" id="svg_34" stroke-width="3" stroke="#000" fill="none"/>
  <polyline timestamps="180212,180876" startTime="1503452910202" id="svg_35" points="297.01136471971495,145.3127383928407 297.01136471971495,147.1127383928407 " stroke-linecap="round" stroke-width="3" stroke="#000" fill="none"/>
  <path t="185404,186652,186672,186700,186722,186756,186772,187045,187324,187346,187645,187671,187696,187697,187722,187722,187748,188045" d="M301.01135,145.31274C301.65869,145.26007 301.02399,145.83342 301.01135,146.71274C300.9985,147.60817 300.34094,148.11963 300.0322,148.83357C299.68735,149.63095 300.01135,149.87674 300.01135,149.01724C300.01135,148.09123 299.71991,146.9879 300.3447,146.4794C301.02206,145.92812 302.12604,146.0274 302.70688,145.60825L303.41138,144.9234L304.21002,144.3994" id="svg_36" stroke-width="3" stroke="#000" fill="none"/>
  <path t="192901,193196,193221,193276,193300,193332,193412,193476,193564,193572,193628,193700,193828,193868,193897,193922,193946,193947,193971,193972,193996,194022,194047,194124,194244,194284,194340,194340,194348,194371,194396,194460,194492,194548,194572,194620,194676,194700,194722" d="M292.01135,143.31274C292.01135,144.31274 292.01135,145.11407 292.01135,146.01274C292.01135,146.91273 292.01135,147.81274 292.01135,148.71274C292.01135,149.61273 292.01135,150.51274 292.01135,151.41257C292.01135,152.31274 291.99338,153.11426 292.01135,154.01274C292.02936,154.91327 292.33908,155.91357 293.21271,156.2274C294.12476,156.55502 294.8367,156.31274 295.8447,156.31274C296.70688,156.31274 297.61136,156.31274 298.51135,156.31274C299.4007,156.31274 300.29669,156.31284 301.21136,156.31274C302.11136,156.31265 303.12146,156.25816 303.57538,155.70207C304.18988,154.94923 304.46802,154.18228 305.09537,153.59674C305.78372,152.95427 305.59186,152.00008 306.23288,151.43423C306.89764,150.84743 307.88986,151.09123 308.01135,150.21274L308.01135,149.31274L308.17804,148.4794" id="svg_37" stroke-width="3" stroke="#000" fill="none"/>
  <path t="198588,198723,198724,198759,198803,198822,198876,198900,198964,199116,199156,199188,199236,199300,199322,199347,199347,199347,199347,199347,199372,199372,199372,199372,199372,199372,199396,199397,199397,199421,199447,199646,199672,199672,199697,199697,199697,199722,199722,199722,199747,199747,199747,199788,199788,199788,199964,199964,199987,199987,200003,200027,200027,200047,200076,200196" d="M295.01135,142.31274C295.01135,143.31274 295.01135,144.11273 295.01135,145.0274C295.01135,145.9234 295.01135,146.81274 295.01135,147.71274C295.01135,148.61273 295.01135,149.51274 295.01135,150.41273C295.01135,151.31274 294.98737,152.22911 295.01135,153.01724C295.03995,153.95688 295.76596,154.30832 296.67804,154.31274C297.35403,154.31602 298.16626,154.30908 299.09003,154.27673C299.58667,154.25934 301.17868,154.15219 301.73221,154.09123C302.85196,153.96793 303.40659,153.88795 304.47803,153.70207C304.98816,153.61357 306.35043,153.33258 307.0687,153.11407C307.91458,152.85674 308.98325,152.37373 309.8447,152.31274C310.66632,152.25458 309.83334,151.98894 309.19702,151.60825C308.27429,151.0562 307.49719,150.81023 306.95953,150.66991C305.70712,150.34305 304.99072,150.32423 304.24203,150.31407C303.04349,150.29779 302.36069,150.31274 301.66202,150.31274C300.3447,150.31274 299.5257,150.31274 298.8327,150.31274C297.81152,150.31274 297.0322,150.31274 296.03287,150.31274C295.21271,150.31274 294.25421,150.31274 293.3587,150.31274C292.49536,150.31274 291.5322,150.31274 290.71136,150.31274L289.81268,150.31407" id="svg_38" stroke-width="20" stroke="#fff" fill="none"/>
  <path t="209526,209708,209708,209756,209795,209860,209860,209900,209922,209972,210100,210124,210173,210197,210221,210221,210252,210276,210324,210348,210404,210669,210722,210723,210764,210764,210764,210820,210860,210876,210897,210924,210980,211044,211396" d="M291.01135,144.31274C291.01135,145.31274 291.01135,146.11273 291.01135,147.01274C291.01135,147.95557 291.01135,148.88206 291.01135,149.66457C291.01135,150.67674 290.64716,151.68976 291.17804,152.31274C291.69727,152.92207 291.68637,153.79184 292.36853,154.25557C293.06723,154.73055 294.06219,154.61357 294.71136,154.96007C295.56073,155.41342 296.51135,155.31274 297.41138,155.31274C298.31137,155.31274 299.21359,155.39232 300.09537,155.31274C301.02261,155.22906 301.53967,154.75375 302.3447,154.14607C303.00162,153.65021 303.67282,153.08708 304.51135,152.64607C305.32312,152.21915 306.06516,151.86613 306.58603,151.2874C307.16013,150.64954 307.89005,150.0914 308.29538,149.39674L308.97537,148.87674" id="svg_39" stroke-width="3" stroke="#000" fill="none"/>
  <path t="215044,215452,215508,215522,215556,215572,215676,215708,215724,215796,215892,216221,216292,216371,216564,216588,216684,216748,216771" d="M307.01135,149.31274C306.01135,148.3544 305.31696,148.92792 304.57538,149.27673C303.70242,149.68733 302.44434,149.05919 302.04736,149.74873C301.61807,150.49446 301.64038,151.3472 300.98602,151.88741C300.40689,152.36551 299.89136,152.79607 299.36404,153.3654C298.7269,154.05331 298.09537,154.59674 297.65869,155.26007L297.01135,155.81274L296.43671,156.33807L295.92737,157.02873" id="svg_40" stroke-width="3" stroke="#000" fill="none"/>
  <path t="218540,218822,218846,218892,218948,218973,219060,219075,219196,219243,219308,219347,219404,219422,219447,219472,219496,219555,219621,219659,219672,219707,219739,219747,219779,219811,219822,219846,219871,219871,219932,219948,220003,220059" d="M292.01135,157.31274C293.8447,157.4794 293.68958,158.45064 294.17804,159.14607C294.68036,159.86124 294.90057,160.41959 295.01135,161.31274C295.12286,162.21181 295.98853,162.4657 296.62204,162.88741C297.4353,163.42877 298.41138,163.31274 299.31137,163.31274C300.21136,163.31274 301.11575,163.40143 302.01135,163.31274C302.85706,163.229 303.46771,162.67577 304.01135,162.14607C304.58475,161.58739 305.49042,161.63771 305.95419,160.95557C306.42847,160.258 306.6391,159.56514 306.99054,158.7919C307.35443,157.9913 306.88495,156.91541 307.44736,156.32741C308.00464,155.74478 308.57538,155.12741 308.92603,154.19807L309.01135,153.31274L309.17804,152.4794L310.0007,152.27673" id="svg_41" stroke-width="3" stroke="#000" fill="none"/>
  <path t="224365,225036,225048,225072,225293" d="M296.01135,147.31274C297.53937,147.31274 296.71136,147.31274 295.81137,147.31274L294.91171,147.31274" id="svg_42" stroke-width="3" stroke="#000" fill="none"/>
  <polyline timestamps="226661,227204" startTime="1503452910202" id="svg_43" points="300.01136471971495,144.3127383928407 300.01136471971495,146.1127383928407 " stroke-linecap="round" stroke-width="3" stroke="#000" fill="none"/>
  <path t="232052,232379,232379,232420,232447,232804,232823,232932" d="M316.01135,158.31274C315.01135,158.31274 314.21136,158.31274 313.31137,158.31274C312.41138,158.31274 311.51135,158.31274 310.62204,158.31274L309.65869,158.30824" id="svg_44" stroke-width="3" stroke="#000" fill="none"/>
  <path t="240342,240581,240581,240613,240623,240673,240673,240698,240723,240748,240773,240798,240845,240845,240873,240917" d="M223.01137,164.31274C223.01137,165.31274 223.01137,166.11273 223.01137,167.01274C223.01137,167.95557 222.91595,168.89505 223.06853,169.66457C223.2511,170.58537 223.92769,171.30147 224.01137,172.22874C224.08223,173.01405 224.01137,173.94875 224.01137,174.79674L224.01137,175.66006L224.02203,176.66608L224.43669,177.2874" id="svg_45" stroke-width="3" stroke="#000" fill="none"/>
  <path t="243485,243677,243700,243700,243724,243773,243798,243823,243901,243923,243948,244045" d="M220.01137,165.31274C219.09804,165.0274 219.34094,164.27783 219.72737,163.51274C220.1277,162.72014 220.62297,162.30167 221.06403,161.60825C221.55383,160.83817 221.95869,160.01724 222.36403,159.3654L222.99052,158.7919L223.02203,157.9234" id="svg_46" stroke-width="3" stroke="#000" fill="none"/>
  <path t="248093,248300,248323,248323,248348,248348,248373,248373,248373,248398,248398,248423,248685,248723,248748,248773,248773,248773,248804,248804" d="M222.01137,175.31274C222.62202,174.70207 223.20879,174.11014 223.81137,173.51274C224.43005,172.8994 224.96977,172.41069 225.7807,171.82874C226.52132,171.29726 227.05023,170.94382 228.08954,170.33441C228.93864,169.83653 230.61107,170.10129 230.55003,169.31274C230.50076,168.67615 229.23662,169.70299 228.67802,170.31274C228.09236,170.95206 227.40869,171.11273 226.42036,171.60825L225.72569,171.95557" id="svg_47" stroke-width="20" stroke="#fff" fill="none"/>
  <path t="249764,249922,249922,249947,249947,249947,250228,250228,250228,250228,250228,250284,250308,250332,250348,250372,250372,250397,250422,250447,250448,250472,250472,250472,250497,250523,250548,250548" d="M222.01137,172.31274C226.14886,171.96007 226.96759,171.54903 227.7847,171.3954C228.58722,171.24452 229.24413,171.2455 230.3447,170.9794C231.18245,170.77686 232.02437,170.4751 232.8167,170.16341C233.50658,169.89201 234.16942,169.1201 233.31137,169.3699C232.43343,169.62549 231.66431,170.14915 230.91136,170.53407C230.14816,170.92422 229.41068,171.33667 228.60069,171.73807C227.68909,172.18983 226.97551,172.24077 226.01137,172.4794C225.20506,172.67897 224.4967,173.02873 223.5322,173.31274L222.70686,173.66541L221.8447,174.14607L221.0322,174.33357" id="svg_48" stroke-width="20" stroke="#fff" fill="none"/>
  <path t="257534,257948,258005,258005,258052,258074,258124,258221" d="M226.01137,232.31274C226.9967,232.30208 227.69934,231.90698 228.5287,231.59674C229.44931,231.25237 230.0007,230.73807 230.5322,230.31274L231.41136,230.31274" id="svg_49" stroke-width="20" stroke="#fff" fill="none"/>
  <path t="261285,261588,261628,261652,261723,261804,261932,261948,261988,262045,262074,262099,262421,262541,262549,262598,262636,262636,262660,262764,262852,263060,263060,263116,263261,263341,263341" d="M223.01137,232.31274C224.81137,232.31274 225.61136,232.31274 226.57536,232.31274C227.44736,232.31274 228.31282,232.25911 229.30687,232.31274C230.09882,232.35547 230.66972,233.1226 231.61136,233.30208C232.49551,233.4706 233.41136,233.31274 234.31137,233.31274C235.20869,233.31274 235.61797,233.62691 234.8447,234.14607C234.13913,234.61978 233.21136,234.31274 232.31137,234.31274C231.41136,234.31274 230.5322,234.31274 229.56853,234.31274C228.82603,234.31274 227.8967,234.31274 226.91136,234.31274L226.01137,234.31274L225.21136,234.31274" id="svg_50" stroke-width="3" stroke="#000" fill="none"/>
  <path t="267276,267497,267522,267548,267588,267588,267620,267660,267676,267908" d="M228.01137,230.31274C229.8447,230.4794 230.01137,231.31274 230.01137,232.19157C230.01137,233.02257 230.01137,233.83008 230.01137,234.7919L230.01137,235.71274L230.01137,236.61273L230.01003,237.5114" id="svg_51" stroke-width="20" stroke="#fff" fill="none"/>
  <path t="271676,271972,272012,272012,272023,272084,272100,272123,272244,272253,272298,272332,272348,272412,272476,272523,272548,272628,272660,272740,272852,272892,272892,272932,273052,273188,273252,273348,273372,273398,273398,273423,273423,273475,273531,273675,273699,273723,273747,273772,273798,273868" d="M235.01137,222.31274C235.17802,223.14607 236.14493,223.35155 236.65421,224.01724C237.17252,224.69475 237.80399,225.30664 238.00687,226.01724C238.26501,226.92146 238.68471,227.59375 239.2327,228.19141C239.81778,228.82953 239.86159,229.52533 240.01154,230.41257C240.15553,231.2646 240.76115,231.77489 241.0127,232.59674C241.24988,233.37167 242.00095,233.83339 242.01137,234.71274C242.02203,235.61267 242.23764,236.73476 241.5687,237.19141C240.85049,237.68167 240.14186,238.08774 239.49052,238.31274C238.65955,238.59981 237.71136,238.31274 236.81137,238.31274C235.91136,238.31274 235.01137,238.31274 234.2542,238.31274C233.3587,238.31274 232.49536,238.31274 231.5322,238.31274C230.62202,238.31274 230.19678,237.93459 230.01003,237.11407C229.82695,236.30978 228.71587,236.30824 228.0367,235.88741L227.51137,235.31274L226.95869,234.66541" id="svg_52" stroke-width="3" stroke="#000" fill="none"/>
  <path t="276101,276380,276485,276588,276599,276717,276781,276868,276924,277005,277077,277261,277332,277356" d="M228.01137,232.31274C228.8127,232.31274 229.82449,232.67793 230.58603,232.27673C231.33769,231.88074 231.8127,231.31342 232.71136,231.31274C233.61136,231.31207 234.51137,231.31274 235.41136,231.31274C236.31137,231.31274 237.21136,231.31274 238.11119,231.31291L238.92603,231.59674" id="svg_53" stroke-width="3" stroke="#000" fill="none"/>
  <path t="278086,278224,278269,278621,278741,278837,278917,278973,278999,279024,279024,279049,279261" d="M250.01137,230.31274C250.8127,230.39807 251.54854,231.05968 252.41136,231.27673C253.28488,231.49648 254.21136,231.31274 255.11136,231.31274C256.01135,231.31274 256.8447,231.14607 257.3447,230.4794L258.16071,230.2874L258.95004,229.88741L259.55002,229.32341" id="svg_54" stroke-width="3" stroke="#000" fill="none"/>
 </g>
</svg>