<svg width="500" height="334.26183844011143" xmlns="http://www.w3.org/2000/svg" xmlns:svg="http://www.w3.org/2000/svg" xmlns:xlink="http://www.w3.org/1999/xlink">
 <!-- Created with SVG-edit - http://svg-edit.googlecode.com/ -->
 <g display="inline" class="layer">
  <title>Layer 1</title>
  <path t="0,260,268,280,390,395,395,546,546,627,649,727,762,908,914,926,930,942,942,954,968,968,1011,1011,1251,1251,1251,1251,1266,1266,1266,1274,1274,1274,1274,1274,1274,1286,1286,1286,1286,1286,1294,1294,1294,1302,1302,1302,1306,1306,1306,1314,1314,1330,1330,1334,1334,2017,2017,2032,2038,2038,2038,2054,2054,2062,2062,2066,2066,2066,2066,2074,2074,2125,2142,2262,2262,2262" d="M55.37109,150.88092C55.53776,149.88092 56.02893,149.09334 56.87109,148.90175C57.73925,148.70425 58.15373,148.2655 58.48093,147.52908C58.91557,146.55084 59.69022,146.12073 60.61393,145.93808C61.55336,145.75232 62.15258,145.34644 62.81776,144.90625C63.57576,144.40465 64.37164,144.31395 65.37109,144.04759C66.1377,143.84329 67.04863,143.55258 67.35026,142.88092C67.74717,141.99709 68.53776,141.71425 69.37109,141.38092C70.20443,141.04759 71.06659,140.88297 71.91276,140.88092C72.91376,140.87851 73.66384,140.76903 74.36576,141.05241C75.52027,141.51852 75.70143,142.21794 76.29076,142.99442C76.99162,143.91783 77.70385,144.48921 78.09526,144.77641C78.91885,145.38072 79.37065,145.65688 80.29109,146.19559C81.19758,146.72612 82.0838,147.19427 82.91376,147.64491C83.30893,147.85947 84.07758,148.23697 85.03776,148.88092C85.87573,149.44292 86.51904,150.03952 87.20443,150.71425C87.76074,151.2619 88.33688,151.85382 89.13909,152.64758C89.61964,153.12308 90.05887,153.67232 91.03776,154.38092C91.78736,154.92355 92.63664,155.41832 92.9351,156.10225C93.34615,157.0442 93.11577,158.06474 93.81393,158.63792C94.41283,159.12962 95.48722,158.89766 96.53776,158.88092C97.20734,158.87025 98.01633,158.78497 98.97559,158.17108C99.64142,157.74498 100.52718,157.02721 101.05509,156.76625C101.85626,156.37021 102.69296,156.09657 103.68443,155.68225C104.3334,155.41106 105.34398,154.9603 106.0666,154.88542C106.96718,154.7921 107.78176,154.43425 108.53776,153.71425L109.02376,153.23276L109.54576,152.74225" id="svg_1" stroke-width="3" stroke="#000" fill="none"/>
  <path t="4003,4137,4137,4145,4145,4161,4161,4169,4169,4169,4169,4181,4181,4181,4185,4185,4185,4193,4193,4193,4201,4205,4205,4209,4209,4217,4217,4225,4225,4225,4240,4240,4240,4240,4244,4296,4296,4296,4322,4334,4334,4342,4342,4342,4342,4346,4350,4350,4350,4350,4350,4358,4358,4358,4358,4358,4358,4358,4366,4366,4366,4366,4366,4366,4366,4374,4374,4374,4374,4374,4374,4374,4374,4382,4382,4382,4382,4390,4390,4390,4390,4390,4398,4398,4398,4398,4398,4398,4406,4406,4406,4406,4506,4522,4522,4530,4530,4530,4530,4530,4530,4530,4534,4538,4538,4538,4546,4546,4550,4608,4624,4624,4624,4624,4628,4632,4632,4636,4636,4636,4636,4636,4636,4640,4644,4644,4644,4644,4648,4648,4648,4648,4648,4656,4656,4656,4656,4656,4656,4656,4656,4656,4660,4660,4660,4660,4660,4660,4660,4660,4660,4668,4668,4668,4668,4668,4668,4668,4668,4668,4676,4676,4676,4676,4676,4676,4676,4676,4676,4684,4684,4684,4684,4684,4684,4684,4684,4684,4710,4714,4714,4714,4714,4714,4714,4714,4714,4724,4724,4724,4724,4724,4724,4724,4724,4724,4732,4732,4732,4732,4732,4732,4732,4732,4732,4740,4740,4740,4740,4740,4740,4740,4740,4740,4748,4748,4748,4748,4748,4748,4748,4748,4748,4756,4756,4756,4756,4756,4756,4756,4756,4756,4764,4764,4764,4764,4764,4764,4764,4768,4768,4772,4772,4772,4776,4776,4776,4776,4776,4776,4784,4784,4784,4784,4784,4784,4784,4784,4784,4788,4788,4788,4792,4792,4792,4792,4792,4792,4804,4804,4804,4804,4804,4808,4808,4808,4808,4872,4872,4872,4876,4876,4876,4880,4880,4880,4888,4888,4892,4892,4892,4896,4896,4896,4900,4972,4972,4972,4976,4976,4980,4980,4980,4980,4992,4992,4992,4996,4996,4996,5000,5000,5000,5016,5016,5016,5020,5020,5024,5024,5024,5028,5032,5036,5036,5036,5036,5040,5040,5040,5040,5048,5048,5048,5052,5052,5052,5052,5052,5052,5064,5064,5064,5064,5064,5064,5068,5068,5068,5072,5072,5072,5072,5072,5076,5076,5076,5076,5145,5157,5161,5161,5161,5161,5161,5165,5169,5169,5169,5169,5169,5173,5173,5173,5177,5177,5177,5177,5177,5181,5185,5185,5185,5185,5185,5302,5302,5309,5309,5313,5317,5321,5333,5337,5337,5345,5345,5345,5349,5349,5349,5349,5353,5353,5357,5357,5357,5357,5357,5361,5361,5393,5393,5393,5393,5393,5493,5493,5503,5511,5524,5527,5531,5535,5535,5535,5539,5539,5539,5547,5547,5547,5547,5547,5551" d="M90.37109,164.88092C91.7711,163.05559 92.10085,162.31075 92.6756,161.63809C93.19785,161.02689 94.0673,160.62532 94.7756,160.06659C95.62249,159.39853 95.9587,158.86092 96.60709,158.13159C97.04524,157.63875 98.04681,156.83522 98.59643,156.54225C99.40684,156.11026 100.46722,155.58253 100.90943,155.22375C101.55196,154.70247 102.19973,153.87766 102.75643,153.08092C103.17739,152.47844 103.89272,151.65451 104.62176,151.10225C105.10709,150.7346 106.04558,150.23338 106.82943,149.90175C107.68464,149.53992 108.24316,148.98056 109.04176,148.21925C109.4478,147.83217 110.21607,147.17702 111.23492,146.45958C111.61723,146.19037 112.43791,145.65782 112.85026,145.38092C113.65887,144.83794 114.73338,144.07755 115.22976,143.56892C115.97441,142.80589 116.79397,142.03493 116.7151,142.45026C116.60175,143.04712 115.39296,143.74892 114.7531,144.12825C114.04901,144.54567 113.43358,144.77502 112.28526,145.20259C111.34996,145.55084 110.83656,145.72437 110.30859,145.92259C109.20773,146.33591 108.6416,146.54613 107.53776,147.04759C106.44529,147.54388 105.92313,147.83238 105.39643,148.10625C104.34451,148.6532 103.8227,148.93689 103.28709,149.19691C101.66181,149.98598 101.08525,150.20238 100.50493,150.42825C99.31292,150.8922 98.68875,151.10715 98.05226,151.33359C97.39942,151.56584 96.03734,152.04643 95.32909,152.30209C94.608,152.56239 93.88335,152.82799 93.16309,153.09558C92.45403,153.35901 91.10426,153.86891 90.48043,154.11159C89.36958,154.54372 88.48184,154.91699 87.7551,155.20892C86.83001,155.58054 85.87301,155.88826 85.1151,156.08226C84.26516,156.29982 83.80553,156.38977 82.8576,156.63809C81.36605,157.02881 80.86971,157.19693 79.8801,157.52908C79.39156,157.69305 78.44559,158.02734 77.98543,158.17108C76.71098,158.56918 75.59645,158.7874 74.95443,158.83925C74.14612,158.90453 72.69701,158.8949 72.81243,158.16658C72.91312,157.5312 74.36619,156.87007 74.79926,156.68076C75.7811,156.25156 76.33496,156.07339 76.89193,155.86009C78.01471,155.43008 78.59926,155.27917 79.96342,154.45992C80.35807,154.2229 80.97935,153.67587 81.69143,152.94792C82.48589,152.13574 83.25948,151.96172 84.18576,151.87025C85.04773,151.78514 84.69957,151.5394 83.92443,152.00508C83.58224,152.21066 82.79182,152.70146 82.32442,152.94176C80.72826,153.76236 80.08842,153.96967 79.42709,154.19292C78.73708,154.42584 78.00833,154.63391 77.24609,154.81842C76.45894,155.00896 75.64136,155.17786 74.7951,155.30891C73.04252,155.58034 72.12621,155.64644 71.18043,155.71159C70.18983,155.77983 69.13922,155.82333 68.01693,155.86009C66.80988,155.89963 65.50456,155.92786 64.08842,155.96359C60.87102,156.04478 59.05022,156.10094 57.10443,156.16492C55.05855,156.23219 52.93778,156.30669 50.76693,156.38092C48.57111,156.45601 46.37537,156.53203 44.20443,156.59692C40.03797,156.72148 38.08699,156.7627 36.23109,156.79559C34.46531,156.82689 32.78445,156.84718 31.18359,156.86009C29.65778,156.87241 28.20193,156.87766 26.81109,156.87959C24.20443,156.88322 22.97859,156.88092 21.79776,156.88092C20.65693,156.88092 19.55109,156.88092 18.47526,156.88092C17.42443,156.88092 16.39359,156.88092 15.37776,156.88092C13.37109,156.88092 12.37225,156.88263 11.38043,156.87825C10.40258,156.87393 9.44562,156.86517 8.51693,156.83925C7.62293,156.81429 6.76986,156.78389 5.96843,156.71025C4.53458,156.57849 3.9186,156.45145 3.36976,156.31293C2.87261,156.18745 2.43096,156.03748 2.03776,155.88092C1.67909,155.73811 1.36104,155.58348 1.06576,155.44891C0.53999,155.20929 0.29444,155.11876 0.05909,155.05025C-0.16142,154.98605 -0.37137,154.94127 -0.56641,154.90175C-0.74606,154.86534 -0.91214,154.84059 -1.05691,154.79825C-1.29975,154.7272 -1.39365,154.66699 -1.45557,154.59425C-1.514,154.52562 -1.5451,154.43477 -1.54557,154.33925C-1.5461,154.23378 -1.51411,154.11548 -1.45557,153.99425C-1.31535,153.70384 -1.19107,153.55376 -1.04757,153.39558C-0.88564,153.21709 -0.67807,153.03577 -0.42057,152.86009C-0.1266,152.65955 0.23028,152.46043 0.65643,152.27959C1.6886,151.84155 2.34076,151.67256 3.05376,151.48225C3.82601,151.27614 4.65777,151.08533 5.53776,150.90175C6.45509,150.71039 7.40578,150.53044 8.38176,150.36626C10.36854,150.03203 11.37127,149.89972 12.37509,149.76358C13.38428,149.62671 14.40329,149.49706 15.43359,149.36009C16.47929,149.22108 17.5438,149.0791 18.62709,148.91159C20.87372,148.56419 22.0364,148.3416 23.22843,148.11292C24.44775,147.879 25.6894,147.62837 26.95443,147.38092C28.23872,147.1297 29.53978,146.87495 30.86043,146.64893C33.53394,146.19135 34.89084,146.01521 36.25109,145.85292C37.60923,145.69089 38.96383,145.55672 40.30859,145.44342C41.63721,145.33148 42.94649,145.23952 44.23109,145.16891C46.70367,145.03302 47.88565,144.99872 49.0351,144.96625C50.16033,144.93445 51.26973,144.91441 52.37109,144.90175C53.4724,144.88908 54.58176,144.88416 55.7071,144.88225C58.03776,144.8783 59.25726,144.88092 60.51376,144.88092C61.80426,144.88092 63.12576,144.88092 64.47526,144.88092C65.84976,144.88092 67.24626,144.88092 68.66176,144.88092C71.53776,144.88092 72.9921,144.88092 74.45243,144.88092C75.91476,144.88092 77.37509,144.88092 78.82943,144.88092C80.27376,144.88092 81.70409,144.88092 83.11642,144.88092C85.87109,144.88092 87.20493,144.88092 88.50176,144.88092C89.75459,144.88092 90.95643,144.88092 92.10026,144.88092C93.17909,144.88092 94.18593,144.88092 95.11376,144.88092C96.70443,144.88092 97.35528,144.87865 97.91109,144.88359C98.37695,144.88774 98.75859,144.89233 99.05859,144.92259C99.28531,144.94547 99.47722,144.95927 99.5311,145.05159C99.61316,145.19218 99.4688,145.32877 99.34576,145.45158C99.19566,145.60143 99.00308,145.75459 98.78776,145.92259C98.55517,146.10406 98.30457,146.28835 98.04976,146.48358C97.53532,146.87776 97.29105,147.0782 97.06042,147.27826C96.83978,147.46967 96.63649,147.65695 96.45443,147.83925C96.28735,148.00655 96.1394,148.16055 96.02843,148.31026C95.85886,148.53902 95.81835,148.63997 95.83376,148.71425C95.84857,148.78564 95.92957,148.84618 96.03776,148.90175C96.17969,148.97466 96.37109,149.04176 96.60176,149.13425C97.20619,149.37657 97.57922,149.54178 97.98976,149.73558C98.43171,149.9442 98.88972,150.17332 99.35026,150.42259C99.81111,150.67203 100.25959,150.92352 100.66576,151.19958C101.3879,151.69038 101.65605,151.94746 101.85776,152.19691C102.03673,152.41824 102.16081,152.65038 102.22526,152.88092C102.28716,153.10237 102.29977,153.33446 102.27776,153.56493C102.23136,154.05092 102.15607,154.30525 102.07643,154.57159C101.99059,154.85866 101.8706,155.16466 101.70443,155.48509C101.51956,155.84158 101.28073,156.22475 100.97243,156.62358C100.23761,157.57419 99.72739,158.07169 99.18176,158.61426C98.60401,159.18877 97.98672,159.76491 97.35026,160.33925C96.71601,160.91159 96.08701,161.46115 95.47376,161.97426C94.3789,162.89034 93.90358,163.25616 93.48443,163.56758C93.12142,163.83728 92.80103,164.05945 92.51693,164.23509C92.27381,164.38541 92.06032,164.50826 91.86443,164.58759C91.17953,164.86496 92.04276,164.88092 92.4511,164.88092C93.43776,164.88092 93.99609,164.88092 95.19276,164.88092C95.8111,164.88092 97.03791,164.86778 98.20176,164.88759C98.76141,164.89711 99.31557,164.89204 100.38577,165.06091C100.923,165.14569 102.545,165.70003 103.09243,165.98775C103.66302,166.28763 104.22894,166.64093 105.37109,167.40175C105.94841,167.78632 106.51114,168.18616 107.0871,168.54625C108.19091,169.23636 109.28012,169.75288 109.80943,169.96126C110.8216,170.35974 111.33202,170.4893 112.28443,170.84625C113.21227,171.194 114.09557,171.62617 114.90309,172.13159C115.66606,172.60913 116.31675,173.10915 117.10676,173.73775C117.83219,174.31497 118.5304,174.76497 119.26043,174.84492C120.05727,174.93221 121.20444,174.88306 122.20042,174.87959C122.76594,174.87762 123.37258,174.87727 124.69643,174.84492C125.40803,174.82753 126.14909,174.80745 127.70443,174.71425C128.51366,174.66576 129.33527,174.59895 130.16293,174.52826C130.98994,174.45761 131.80859,174.38095 132.61243,174.30626C133.39426,174.23361 134.14644,174.15689 135.53777,174.04759C136.16283,173.99849 137.27213,173.93408 137.75909,173.89558C138.61049,173.82829 139.96272,173.66907 140.4906,173.17558C141.13737,172.57094 140.48309,171.88226 139.69142,171.88092C138.98042,171.87971 137.53777,171.88092 137.06393,171.88092C135.99426,171.88092 135.41243,171.88092 134.80859,171.88092C133.56293,171.88092 132.93509,171.88092 131.70442,171.88092C130.54309,171.88092 129.98993,171.88092 128.93359,171.88092L128.42842,171.88092L127.45909,171.88092" id="svg_2" stroke-width="20" stroke="#fff" fill="none"/>
  <path t="8027,8374,8433,8433,8693,8731,8829,8829,8869,8869,8902,8902,8918,8918,8942,8942,8978,8986,8986,8990,8990,9222,9241,9241,9262,9265,9289,9742,9793,9793,9852,9891,9891,10151,10171,10179,10179,10187,10187,10458,10478,10478,10478,10490,10506,10506,10506,10506,10506,10514,10514,10518,10546,10546,10950,10965,10973,10973,10989,11627,11647,11651,11663,12013,12042,12042,12042,12062,12078,12082,12090,12098,12098,12102,12102,12114,12114,12336,12376,12384,12388,12433,12433,12594,12594,12610,12614,12614,12618,12744,12744,12766,12802,12802,12814,12814,12822,12822,12858,12868,12868,12868,12896,12896,13010,13038,13038,13055,13172,13172,13204,13252,13268,13268,13276,13276,13288,13304,13304,13448,13448,13448,13468,13540,13540,13602,13602,13709,13709,13737,13745,13749,13761,13761,13789,13789,13817,13817,13825,13825,13825,13837,13845,13845,13855,13863,13863,13871,13871,13879,13879,13879,13879,13887,13887,13887,13887,13887,13895,13895,13899,13903,13903,13903,13903,13911,13911,13915,13915,13935,13935" d="M57.37109,158.88092C57.37109,158.01959 57.37109,157.04759 57.37109,156.29158C57.37109,155.38092 57.35207,154.47006 57.37126,153.55959C57.38926,152.70569 57.48679,151.80865 58.13276,151.18542C58.76684,150.57367 59.60852,150.36925 60.48576,149.67958C61.11777,149.18271 61.50498,148.35306 61.9711,147.74225C62.59401,146.92598 63.54288,146.95461 64.37109,146.86009C65.36352,146.74684 65.92329,146.22949 66.6711,145.58542C67.33997,145.00934 68.14063,144.86292 69.02376,144.52826C69.72939,144.26086 70.73451,143.89893 71.5711,143.88092C72.47105,143.86156 73.25643,143.88092 74.19643,143.88092C75.20443,143.88092 76.06661,143.87621 76.87109,143.88092C77.78181,143.88626 78.68962,144.10918 79.37109,144.38092C80.34568,144.76955 81.33202,144.79268 81.85026,145.44342C82.50954,146.27127 82.20875,147.14821 82.45509,148.02759C82.6917,148.87222 83.55523,149.70518 83.85376,150.30225C84.20672,151.00815 84.52384,151.78496 84.80176,152.54625C85.14581,153.48869 85.33559,154.46461 85.79642,155.28091C86.20645,156.0072 86.27383,156.77246 86.38176,157.69559C86.49393,158.65498 87.1579,159.34909 87.39643,160.03026C87.68889,160.86542 88.36691,161.6086 89.08092,161.82376C89.85593,162.05731 90.96043,161.88092 91.79243,161.88092C92.70443,161.88092 93.62644,161.97652 94.30859,161.82376C95.32039,161.59718 95.74676,160.73666 96.20443,159.88092C96.62771,159.08948 97.19547,158.54553 97.39643,157.69559C97.5844,156.90056 98.11061,156.16963 99.01926,155.93359C99.78809,155.73387 100.56661,155.28931 101.17242,154.62625C101.81278,153.92538 101.9117,153.09233 102.37109,152.21425C102.73618,151.51643 103.53776,150.71425 104.02826,150.22375C104.58176,149.67026 105.37849,148.88817 105.9621,148.28542C106.50607,147.72359 107.06622,146.87399 107.41926,146.18542C107.84179,145.36131 108.70095,145.04529 109.54576,144.85559C110.49646,144.64212 111.08239,144.1414 111.31843,143.23276C111.51814,142.46393 112.20263,141.87851 113.13776,141.59425C113.8618,141.37416 114.69434,141.12218 115.20409,140.23276C115.61231,139.52048 116.13159,138.8264 116.6711,138.17558C117.23403,137.49651 117.89125,136.90176 118.85509,136.88092C119.5456,136.866 120.61752,136.95914 121.47109,136.88075C122.38253,136.79706 122.97343,136.21846 123.85509,135.68225C124.52267,135.27626 125.48473,134.95473 126.37109,134.88092C127.18462,134.81317 128.1391,134.59692 128.87109,134.38092C129.60309,134.16492 130.69713,134.1295 131.4711,133.43808C131.99529,132.9698 132.25917,131.93398 132.89192,131.42259C133.59508,130.85432 134.54572,130.88626 135.48576,130.88092C136.47108,130.87534 137.5231,131.22221 138.20442,130.71425C138.78014,130.28502 139.21489,129.41893 139.97375,129.16626C140.94864,128.84166 141.82825,128.88318 142.79227,128.88092C143.58575,128.87907 144.36127,128.88092 145.40042,128.88092C146.37109,128.88092 147.1711,128.88092 148.0071,128.88092C149.02376,128.88092 149.71843,128.88092 150.76709,128.88092C151.42577,128.88092 152.42842,128.88092 153.08977,128.88092C154.24176,128.88092 154.66043,128.88092 155.9921,128.88092C156.91476,128.88092 157.82942,128.88092 158.27376,128.88092C159.11642,128.88092 160.51776,128.88092 161.35027,128.88092C162.13776,128.88092 163.34177,128.88092 164.04309,128.88092C164.79243,128.88092 165.57376,128.88092 166.7706,128.88092C167.5576,128.88092 168.30859,128.88092 169.31509,128.88092L170.31509,128.88092L171.1671,128.88092" id="svg_3" stroke-width="3" stroke="#000" fill="none"/>
  <path t="18008,18439,18439,18465,18506,18506,18509,18509,18509,18509,18509,18509,18509,18517,18517,18517,18525,18525,18525,18549,18549,18602,18668,18668,18702,18706,18726,18726,18726,18742" d="M158.37109,144.88092C160.61392,143.23276 161.10332,142.35103 161.91277,141.88092C162.65555,141.44952 163.40062,141.17352 163.91277,140.77675C164.49837,140.32307 165.38863,139.39452 165.9671,138.63025C166.26685,138.23425 166.82819,137.41336 167.29959,136.59608C167.89624,135.56169 168.14996,134.76926 168.5291,134.08458C168.96591,133.29576 169.65457,132.63687 170.09509,132.13159C170.88467,131.22592 171.41141,130.50792 171.87109,129.83925C172.38779,129.08766 172.22617,128.32944 172.53777,127.21426C172.73103,126.52258 173.53777,125.88092 174.19643,125.48092L174.8871,125.08092L175.73509,124.49158" id="svg_4" stroke-width="20" stroke="#fff" fill="none"/>
  <path t="23533,23682,23705,23705,23721,23721,23729,23741,23741,23769,23769,23777,23793,23809,23817,23817,23829,24068,24192,24200,24200,24224,24224,24224,24236,24236,24236,24236,24236,24236,24256,24272,24272,24272,24272,24374,24378,24625,24625,24644,24660,24660,24680,24680,24696,24704,24704,24708,24712,24720,24720,24720,24724,24728,24736,24736,24744,24744,24744,24752,24752,24760,24760,24760,24768,24772,24776,24776,24776,24784,24784,24784,24792,24816,24816,24816" d="M155.37109,146.88092C156.01843,144.71841 156.33372,143.81946 156.36043,143.12093C156.40234,142.02484 156.74197,141.4538 157.24959,140.65942C157.72723,139.91196 157.37109,138.99559 157.37109,138.05559C157.37109,137.36491 157.37109,136.29158 157.37109,135.38092C157.37109,134.47026 157.20593,133.53543 157.40709,132.74225C157.62579,131.87985 158.36067,131.36028 158.37109,130.48093C158.38187,129.57198 158.31906,128.90828 158.3846,127.86208C158.43735,127.01994 158.56438,126.3659 159.0351,125.35992C159.38394,124.6144 159.87735,123.92664 160.3131,123.24792C161.01675,122.15189 161.2113,121.4299 161.3801,120.57192C161.58749,119.51768 162.06848,118.86395 162.41277,118.38092C162.94804,117.62991 163.7906,116.87666 164.32942,116.40176C165.06995,115.74905 165.5381,114.69423 165.1996,114.59442C164.39722,114.35785 163.56738,115.35428 162.87109,115.88092C162.16931,116.41171 161.29843,116.57369 160.61375,117.32375C160.07553,117.91338 159.94031,118.87325 159.35027,119.38092C158.55357,120.0664 157.99008,120.70733 157.6756,121.28542C157.14314,122.26421 156.8019,123.04293 156.4921,123.85959C156.19917,124.63173 155.51256,125.35844 154.87109,125.90176C154.42447,126.28004 153.61562,127.27758 153.39192,127.88092C153.02313,128.87563 152.55821,129.71143 152.01926,130.16658C151.18993,130.86694 150.44354,131.09373 149.8871,131.73558C149.32428,132.3848 148.8438,133.19283 148.39259,133.95926C147.87895,134.83174 147.57243,135.39426 146.9711,136.26625L146.37109,137.21425L146.07559,137.88626L145.8071,138.63025" id="svg_5" stroke-width="20" stroke="#fff" fill="none"/>
  <path t="27849,27984,27984,28002,28018,28018,28034,28034,28542,28542,28563,28563,28575,28575,28583,28583,28583,28607,28607,28607,28607,28613,28946,28966,28966,28990,28990,29010,29010" d="M140.37109,126.88092C141.37109,126.88092 142.1711,126.88092 143.12827,126.88092C144.02826,126.88092 144.77559,126.88092 145.76976,126.88092C146.5351,126.88092 147.62292,126.88092 148.34042,126.88092C149.37643,126.88092 150.12155,126.8312 151.22842,126.88126C152.02417,126.91724 152.92482,127.30619 153.63243,127.75292C154.16496,128.08911 155.2093,128.87509 155.68443,129.27826C156.33623,129.83133 156.96107,130.19579 157.82942,130.86009C158.50253,131.37503 159.28508,131.73376 159.88843,132.05025C160.86278,132.56134 161.06659,133.28992 161.57109,134.28226L161.87109,134.90175" id="svg_6" stroke-width="3" stroke="#000" fill="none"/>
  <path t="30771,31051,31074,31125,31149,31149,31149,31202,31202,31249,31408,31408,31408,31427,31439,31451,31451,31475,31483,31483,31499,31647,31669,31669,31689,31705,31705,31870,31886,31886,31886,31898,31898,32216,32229,32241,32241,32249,32253,32313,32313,32313,32371,32395,32395,32395,32403,32403,32415,32466,32758,32758,32787,32787,32795,32795,32831,32831,32924,32972,33040,33040,33068,33068,33068,33076,33076,33076,33084,33096,33096,33104,33120,33120,33124,33141,33141,33283,33283,33312,33324,33340,33356,33360,33402,33471,33492,33492,33836,33836,33881,34166,34180,34180,34188,34188,34208,34208,34216,34216,34220,34220,34228,34228,34528,34528,34572,34572,34946,34992,35118,35181,35181,35239,35239,35247,35255,35263,35267,35487,35503,35511,35511,35531,35531,35535,35535,35535,35535,35535,35539,35539,35559,35559,35567,35575,35575,35808,35839,35839,35859,35871,35953,35970,35970,36055,36071,36099,36112,37038,37078,37078,37094,37094,37314,37388,37388,37452,37452,37468,37572,37572,37637,37637,37637,37653,37665,37669,37693,37774,37774,37790,38736,38979,39000,39000,39004,39012,39012,39020,39020,39024,39024,39024,39024,39032,39032,40088,40114,40114,40122,40122,40155,40318,40353,40353,40539,40587,40587,40784,40800,40815,40815,40839,40874,40877,40877,41064,41071,41071,41111,41151,41352,41352,41380,41384,41388,41400,41430,41430,41438,41438,41448,41615,41647,41647,41663,41722,41722,41788,41788,41819,41823,41827,41851,41883,41914,41914,41918,41953,41953,42728" d="M176.37109,180.88092C176.37109,182.35959 176.37109,181.40175 176.37109,180.45958C176.37109,179.54759 176.37109,178.87558 176.37109,177.88626C176.37109,176.85159 176.37109,176.08359 176.37109,175.20892C176.37109,174.33826 176.37109,173.38092 176.37109,172.64893C176.37109,171.55292 176.37109,170.68092 176.37109,169.78075C176.37109,168.99559 176.37109,168.05559 176.37109,167.04759C176.37109,166.29158 176.37109,165.38092 176.37109,164.47026C176.37109,163.55959 176.37109,162.70625 176.37109,161.76625C176.37109,160.88092 176.35699,160.03055 175.82942,159.36009C175.27365,158.65379 174.54599,158.05536 174.02376,157.53358C173.25676,156.76726 172.67728,156.23882 171.87109,155.88092C171.06825,155.52451 170.19301,155.09586 169.39192,154.88092C168.52496,154.64832 167.81799,154.0363 167.4926,153.21675C167.1743,152.41507 167.37177,151.64758 167.37109,150.68625C167.3703,149.54759 167.37109,148.87558 167.37109,148.13159C167.37109,147.02393 167.55458,146.16377 167.3351,145.28091C167.11813,144.40817 166.47408,143.72292 166.39192,142.88092C166.29686,141.90666 166.37109,141.12825 166.37109,140.22375C166.37109,139.47643 166.37109,138.48225 166.37109,137.53809C166.37109,136.63809 166.40686,135.68021 166.37093,134.78059C166.34235,134.0649 166.11487,133.10056 165.82942,132.36009C165.5172,131.55017 164.92397,130.53659 164.37109,129.94342C163.88568,129.42264 162.88763,129.07454 162.27126,128.43808C161.66209,127.80907 161.46092,126.76581 161.37109,125.88092C161.28984,125.08049 160.87378,124.29975 160.04993,124.00209C159.26215,123.71746 158.68054,123.09028 158.28842,122.44892C157.85226,121.73554 156.77109,121.88092 155.85027,121.88092C154.8871,121.88092 154.19643,121.88092 153.12827,121.88092C152.27109,121.88092 151.37108,121.88594 150.48576,121.88092C149.54572,121.87559 148.69067,122.04747 147.91277,121.36008C147.22522,120.75253 147.37045,119.67825 147.37109,118.91026C147.37177,118.11425 147.10262,117.04836 147.59276,116.24509C148.03596,115.51874 149.00163,115.14019 149.58176,114.73159C150.5309,114.06307 151.54041,114.13713 152.12827,113.43809C152.63408,112.83662 152.54146,111.63196 153.13277,111.24258C153.91916,110.72474 154.8871,110.88159 155.85027,110.88092C156.77109,110.88028 157.6756,110.88092 158.53777,110.88092C159.37109,110.88092 160.34959,110.88092 161.16975,110.88092C162.07109,110.88092 162.89252,110.8484 163.85376,110.88226C164.66267,110.91075 165.40767,111.48431 166.22176,111.86626C167.02487,112.24306 167.19965,112.95312 167.59293,113.85992C167.93251,114.6429 168.70901,115.37735 169.13776,115.93292C169.61626,116.55298 170.10538,117.19088 170.51776,117.82892C171.14919,118.80584 171.33359,119.65694 171.72826,120.52908C172.09921,121.34883 173.04414,121.78697 173.31393,122.59075C173.57149,123.35811 173.30513,124.54214 174.08093,124.82375C174.84178,125.09994 175.85027,124.88092 176.77109,124.88092C177.6756,124.88092 178.53777,124.88092 179.37109,124.88092C180.34959,124.88092 181.17017,124.90821 182.07109,124.88092C183.01523,124.85233 183.41577,124.07332 183.94043,123.39825C184.49265,122.68773 185.37267,122.17516 186.06659,121.83276C186.90335,121.41988 187.38406,120.65361 188.12827,120.23809C188.9541,119.77699 189.76086,119.92822 190.73509,119.45559C191.51315,119.07813 192.20583,118.81133 193.1391,118.31292C193.88884,117.91252 194.29695,117.42403 195.40042,117.05159C196.33423,116.73642 197.1711,116.88092 198.0071,116.88092C199.02376,116.88092 199.71843,116.88092 200.73509,116.88092C201.6711,116.88092 202.57256,116.89629 203.53777,116.88092C204.20735,116.87025 205.0311,116.80663 205.9666,116.17109C206.57965,115.7546 207.23347,115.07462 207.87109,114.36008C208.57086,113.5759 208.85509,113.11292 209.37109,112.38092C209.8871,111.64892 210.47047,110.83784 211.06659,110.18992C211.74342,109.45425 212.26811,108.72292 212.35027,107.88092C212.44531,106.90682 212.37109,106.18542 212.37109,105.28092C212.37109,104.36008 212.37109,103.39692 212.37109,102.70625C212.37109,101.63808 212.37109,100.78059 212.37109,99.91026C212.37109,99.11292 212.37109,98.13158 212.37109,97.21426C212.37109,96.30225 212.37633,95.45957 212.37109,94.54758C212.36575,93.61954 212.38275,92.81568 212.14977,91.80259C211.99171,91.11537 211.99718,90.1953 211.34576,89.32758C210.90211,88.73662 209.89587,89.1867 209.19643,89.45559C208.14047,89.86154 207.24327,90.06977 206.6711,90.58542C206.04312,91.15134 205.47565,92.03907 205.39192,92.88092C205.30943,93.71043 205.37109,94.57642 205.37109,95.48092C205.37109,96.40176 205.37401,97.36493 205.37109,98.05559C205.36659,99.12379 205.03099,99.87202 204.37109,100.38092C203.60609,100.97087 203.37244,101.76625 203.37109,102.70625C203.37012,103.39692 203.37109,104.47025 203.37109,105.38092C203.37109,106.18992 203.37109,107.21426 203.37109,107.88625C203.37109,108.87559 203.37109,109.73792 203.37109,110.67825L203.37109,111.51692" id="svg_7" stroke-width="3" stroke="#000" fill="none"/>
  <path t="43808,44124,44154,44275,44275,44275,44275,44283,44283,44295,44295,44295,44299,44323,44331,44331,44331,44331,44331,44347,44347,44466,44466,44481,44485,44489,44501,44501,44501,44513,44513,44521,44525,44537,44537,44537,44549,44549,44565,44818,44818,44840,44840,44860,44860,44868,44868,44872,44888,44904,44904,44993,45424,45427,45451,45451,45455,45463,45467,45479,45684,45684,45742,45742,45754,45758,45770,45770,45778,45778,45778,45790,46004,46021,46025,46025,46033,46033,46041,46045,46045,46045,46053,46053,46236,46236,46402,46402,46418,46422,47096,47115,47135,47135" d="M213.37109,91.88092C215.92442,90.92759 216.38457,91.5145 217.03777,92.54758C217.47522,93.23946 217.78435,93.5942 218.37109,94.40176C218.67108,94.81463 219.32123,95.58314 219.8851,96.71626C220.29164,97.5332 220.07291,98.44651 220.39192,99.33926C220.66676,100.10838 221.39082,100.87566 221.56976,101.58625C221.78424,102.43794 221.86031,102.90002 222.01393,103.82209C222.21776,105.04543 222.3425,105.89852 222.37109,107.04758C222.38748,107.70605 222.19962,108.74316 222.42827,109.57642C222.64365,110.36127 223.24098,111.20931 223.31393,111.88625C223.42009,112.87128 223.36755,113.9116 223.37109,114.62909C223.3756,115.54262 223.41669,116.36893 223.81377,117.30209C224.16312,118.12309 224.63495,118.56458 225.1281,119.73792C225.42061,120.43389 225.33884,121.41695 225.59242,122.20242C225.82372,122.91882 226.25581,123.87411 226.3351,124.67025C226.43863,125.70973 226.37109,126.50626 226.37109,127.53358C226.37109,128.22826 226.37109,129.24492 226.37109,130.18092C226.37109,131.08226 226.37109,131.76625 226.37109,132.70625C226.37109,133.71425 226.3772,134.69087 225.60942,134.87642C224.74335,135.08572 223.83556,135.05423 222.89192,134.86009C222.02472,134.68169 221.05388,134.23912 220.53777,133.54759C220.11154,132.9765 219.98947,131.81744 219.35027,131.42259C218.46062,130.87303 217.5161,130.82971 217.37109,129.88092C217.24808,129.07593 217.39217,128.11197 217.35027,127.38092C217.30821,126.64729 216.89999,125.57803 216.49243,124.78109C216.10493,124.02339 215.44321,123.44379 215.38176,122.69559C215.30536,121.76527 215.23877,120.99126 214.70692,120.11692C214.33525,119.50589 213.85822,118.87492 213.37193,118.23892C212.52777,117.13484 212.06238,116.57011 211.37109,115.88092C210.75189,115.2636 210.07166,114.73894 209.37109,114.40176C208.41881,113.94341 207.57243,113.88226 206.6711,113.88092L205.8071,113.77292L205.45377,113.02759L205.30977,112.12092" id="svg_8" stroke-width="3" stroke="#000" fill="none"/>
  <path t="48233,48620,48644,48644,48672,48672,48742,48742,48742,48796,48796,48895,48895,48915,48923,48931,48931,48943,48947,48963,48963,48971,48971,49019,49019,49064,49072,49084,49084,49092,49092,49339,49358,49362,49362,49370,49370,49378,49378,49378,49378,49382,49382,49390,49390,49398,49398,49406,49406,49414,49414,49422,49430,49450,49450,49472,49472,49496,49504,49512,49512,49512,49536,49536,49544,49544,49572,49572,49693,49722,49742,49742,49750,49750,49758,49758,49774,49774,49802,49802,49802,49858,49858,49870,49870,49886,49894,49894,49902,50014,50014,50039,50043,50051,50051,50063,50063,50063,50075,50087,50087,50095,50103,50103,50131,50185,50294,50294,50322,50322,50334,50334,50346,50346,50354,50362,50362,50370,50370,50370,50378,50378,50378,50386,50386,50402,50418,50418,50418,50439,50439,50530,50578,50606,50606,50606,50618,50618,50634,50646,50662,50662,50662,50666,50678,50678,50698" d="M222.37109,129.88092C223.20442,130.04759 223.36542,130.88094 223.37109,131.63809C223.37785,132.53816 223.43481,133.3685 224.2231,134.27959C224.60033,134.71558 225.47911,135.08208 226.11642,135.99692C226.5956,136.68475 226.77248,137.51466 227.0871,138.39693C227.42438,139.34274 227.86879,140.10094 228.20442,140.88092C228.5105,141.59221 228.1931,142.59074 228.54176,143.39693C228.90138,144.22842 229.87675,144.52666 230.25676,145.53809C230.5222,146.24458 230.37109,147.27959 230.37109,148.04492C230.37109,148.99559 230.20113,150.02982 230.53777,150.88092C230.81569,151.58357 231.32396,152.36218 231.36659,153.22826C231.41063,154.12268 231.32257,155.08223 231.37126,155.98109C231.41397,156.7697 231.69183,157.57005 232.18993,158.34259C232.66287,159.07611 233.37773,159.82857 233.85027,160.38092C234.31435,160.92339 235.09749,161.93141 235.26309,162.63425C235.51202,163.6907 235.3504,164.49998 235.8071,165.30225C236.13348,165.8756 236.68932,166.87845 236.93509,167.63025C237.23216,168.53899 237.35834,169.33911 237.37109,170.28091C237.38335,171.18535 237.53777,172.04759 237.87109,172.88092C238.20442,173.71425 238.35695,174.57652 238.37109,175.48093C238.38377,176.29176 238.79736,177.21649 239.23242,177.70625C239.86504,178.41841 240.73947,179.04939 241.08443,179.76492C241.51195,180.65169 241.37042,181.48225 241.37109,182.47643C241.3716,183.22375 241.37109,184.24492 241.37109,185.18092C241.37109,185.98125 241.37109,186.85159 241.37109,187.64893C241.37109,188.63025 241.2028,189.57004 241.40709,190.45958C241.58659,191.2412 242.21411,191.92128 242.56976,192.93292C242.78616,193.54846 242.97885,194.19576 243.20442,195.38092C243.38567,196.33319 243.37109,197.20226 243.37109,198.05559C243.37109,198.99559 243.37109,199.88092 243.37109,200.68092C243.37109,201.63809 243.37109,202.53358 243.37109,203.22826C243.37109,204.24492 243.27542,205.18629 243.37376,206.08359C243.45941,206.86507 243.9391,207.64893 244.37109,208.38092C244.8031,209.11292 245.31381,210.06125 245.37109,210.98109C245.41989,211.76474 245.37109,212.70625 245.37109,213.71425C245.37109,214.47026 245.37109,215.38092 245.37109,216.29158C245.37109,217.20226 245.37109,218.05559 245.37109,218.99692C245.37109,219.76492 245.37109,220.71692 245.37109,221.48225C245.37109,222.47643 245.37109,223.22375 245.37109,224.25558C245.37109,225.20259 245.37109,225.92259 245.37109,227.04759C245.37109,227.83359 245.37109,228.65559 245.37109,229.71425C245.37109,230.42375 245.37109,231.27641 245.37109,232.27959C245.37109,233.04492 245.37109,233.99692 245.37109,235.04759C245.37109,235.71692 245.37109,236.48225 245.37109,237.47643C245.37109,238.39558 245.37109,239.36009 245.37109,240.30225C245.37109,241.21425 245.37109,241.88626 245.37109,242.87558C245.37109,243.91025 245.37109,244.67825 245.37109,245.58092C245.37109,246.42259 245.37109,247.42358 245.37109,248.13159C245.37109,249.11292 245.37109,250.06659 245.37109,250.98109L245.37109,251.76625L245.37109,252.70625" id="svg_9" stroke-width="3" stroke="#000" fill="none"/>
  <path t="52704,53015,53015,53133,53133,53163,53199,53199,53207,53207,53219,53285,53285,53481,53503,53503,53531,53535,53704,53724,53732,53905,53905,53936,53936,53936,53956,53956,53972,53988,54064,54064,54086,54086,54116,54116,54270,54270,54295,54295,54418,54451,54451,54483,54507,54507,54507,54533,54533,54549,54577,54577,54588,54775,54775,54805,54805,54805,54817,54817,54837,54837,54858,54946,54969,54977,54977,54989,54989,55081,55124,55249,55249,55277,55281,55293,55329,55521,55521,55539,55539,55555,55567,55583,55716,55739,55747,55747,55751,55751,55767,55767,56100,56112,56112,56132,56132,56144,56144,56144,56144,56282,56282,56305,56305,56313,56451,56451,56467,56475,56475,56483,56491,56491,56495,56499,56499,56519,56519,56557,56557,56557,56573,56573,56595,56615,56615" d="M232.37109,150.88092C231.37109,151.04759 230.67659,151.48422 230.45642,152.36491C230.24611,153.20615 230.49869,154.35321 229.92842,154.98093C229.34633,155.62166 228.45937,156.06715 228.37376,156.76625C228.25951,157.6993 228.71634,158.8197 228.31393,159.51926C227.84576,160.33313 227.373,160.88092 227.37109,161.63809C227.36884,162.5336 227.34839,163.4248 226.94576,164.24492C226.51906,165.11403 225.98978,165.76585 225.20442,166.04759C224.34428,166.35616 223.5072,167.02341 223.12827,167.53358C222.63387,168.1992 221.97235,169.07121 221.65643,169.76492C221.25595,170.64433 221.01099,171.39882 220.53777,172.21425C220.18008,172.8306 219.98947,173.9444 219.35027,174.33925C218.46062,174.88881 217.5161,174.93213 217.37109,175.88092C217.25671,176.62939 217.62666,177.60262 217.28577,178.31158C216.83102,179.25732 216.16513,179.856 215.79643,180.48093C215.33466,181.2636 214.94484,182.21649 214.50977,182.70625C213.87715,183.41841 213.03732,184.05467 212.65776,184.67958C212.14478,185.52415 211.46031,186.0341 211.37242,186.76759C211.26074,187.69966 211.28177,188.76411 210.82942,189.38092C210.289,190.11783 209.52493,190.69847 209.02376,191.28542C208.3645,192.0575 207.92078,192.63091 207.53777,193.71425C207.27777,194.44965 206.96796,195.32135 206.17242,195.79692C205.47942,196.21121 204.83943,196.54681 204.07643,196.99075C203.34575,197.41589 203.49722,198.5217 202.93509,199.23425C202.34741,199.97919 201.32002,200.18979 200.61392,200.52826C199.76358,200.93587 199.00998,200.72412 198.0071,200.89159C197.13956,201.03645 196.38376,201.79294 195.61392,201.87642C194.72363,201.97295 193.85509,201.88092 192.89192,201.88092C191.9711,201.88092 190.80577,202.1335 190.40709,201.44492C189.97359,200.69618 189.96091,199.72594 189.35027,199.40175C188.4337,198.91515 187.51231,198.75957 186.9711,198.01959C186.51752,197.39943 186.03471,196.38309 185.20442,196.04759C184.43541,195.73686 183.53857,195.59113 183.20859,195.00491C182.70833,194.11621 182.3131,193.52292 181.87109,192.88092C181.42909,192.23892 180.93518,191.00702 180.3311,190.34892C179.79813,189.7683 178.66791,190.06361 177.91277,189.33925C177.27361,188.72615 177.4624,187.70175 177.36977,186.76625C177.28102,185.87 176.83983,185.25684 176.37509,184.47026C175.91289,183.68799 175.29767,183.24736 174.64709,182.70625C173.71265,181.92903 173.40607,181.25546 173.36977,180.39426C173.33772,179.63412 173.16052,178.45691 172.94576,177.66626C172.7343,176.8878 172.4926,176.02393 172.3756,175.18993L172.37109,174.24492L172.37109,173.39693L172.37109,172.53358" id="svg_10" stroke-width="3" stroke="#000" fill="none"/>
  <path t="57570,57807,57835,57850,57936,57936,57959,57959,58213,58233,58249,58253,58261,58261,58281,58331,58339,58339,58367,58367,58367,58387,58387,58493,58493,58517,58517,58529,58557,58581,58597,58613,58613,58643,58643,58667,58667,58721,58803,58803,58803,58829,58829,59257" d="M185.37109,186.88092C186.17242,186.79559 186.93619,186.22592 187.78177,185.90625C188.66428,185.57262 189.35101,185.3255 190.20442,185.04759C191.05034,184.77213 191.93756,184.4818 192.6666,183.92909C193.36418,183.40022 193.32539,182.36736 194.08093,181.99525C194.81224,181.63509 195.9223,181.99936 196.6711,181.52376C197.47334,181.01421 198.01468,180.22304 198.91376,180.00226C199.60764,179.83188 200.43292,180.02924 201.40042,179.59425C202.14331,179.26025 202.57954,178.15288 203.12827,177.59076C203.76042,176.94318 204.75124,177.11635 205.60942,176.87642C206.43137,176.64662 206.80396,175.6297 207.20442,174.88092C207.62772,174.08948 208.26408,173.97063 209.19643,173.85959C209.8981,173.77602 210.6429,172.94823 211.16975,172.44891C211.93176,171.72673 212.91959,171.67781 213.62177,171.44492C214.37251,171.19591 215.39909,170.68092 216.00493,170.18092L216.39642,169.31693" id="svg_11" stroke-width="3" stroke="#000" fill="none"/>
  <path t="60721,61845,61936,61936,61968,62407,62463,62601,62601,62611,62795,62795,63420,63420,63445,63445,63449,63477,63477,63477,63482,63482,63482,63693,63693,63693,63737,63737,63761,63761,63781,63797,63809,63813,63825,63825,63825,64003,64042,64103,64233,64233,64233,64258,64266,64305,64305,64305,64639,64639,64654,64654,64658,64658,64658" d="M186.37109,171.88092C185.48442,170.88225 184.54576,170.88092 183.85509,170.88092C182.78177,170.88092 181.75023,170.80208 181.34576,171.52759C180.91904,172.29305 180.83823,173.0719 180.45377,173.99559C180.07788,174.89868 179.21085,175.21912 178.70442,175.88092C178.17175,176.57704 178.33299,177.65349 178.41277,178.40175C178.49831,179.20409 178.91522,180.21596 179.41277,180.88092C179.76201,181.34769 180.57635,182.29805 180.9666,182.82909C181.54318,183.61369 182.15555,184.59108 182.61842,185.06209C183.19945,185.65332 184.20648,185.86348 184.97243,185.87959C185.96188,185.90041 186.74025,185.72661 187.45377,185.16492C188.19463,184.5817 188.28336,183.70551 188.39243,183.05559C188.56706,182.01497 189.19839,181.45706 189.88843,181.16759C190.88615,180.74904 191.36884,180.17644 191.37109,179.33925C191.37378,178.33826 191.3725,177.63025 191.37109,176.88626C191.36884,175.69975 191.00609,174.91275 190.03777,174.88092C189.36612,174.85884 188.56018,175.06799 187.51443,174.65926C186.79111,174.37654 186.79443,173.22826 187.19443,172.53358L187.91409,171.90242L188.6431,171.51692L189.19243,171.29158" id="svg_12" stroke-width="3" stroke="#000" fill="none"/>
  <path t="65693,66229,66229,66244,66288,66325,66325,66334,66350,66405,66405,66471,66471,66519,66519,66531,66797,66805" d="M200.37109,146.88092C201.37109,145.71425 202.05243,145.44421 202.85027,144.88092C203.51852,144.40912 204.08098,143.93874 204.88843,143.88225C205.92448,143.80977 206.01707,142.87122 206.53777,142.21425C206.99017,141.64343 208.1391,141.88092 208.87109,141.88092C210.03777,141.88092 210.82942,141.88092 211.77109,141.88092L212.66209,141.88092L212.56842,141.88092" id="svg_13" stroke-width="3" stroke="#000" fill="none"/>
  <path t="67199,67818,68009,68009,69723,69723,69752,69752,69772,69776,70137,70209,70254,70254,70607,70835,70835,70856,70856,70864,70868" d="M207.37109,143.88092C205.73509,144.49159 205.07158,145.02274 204.37109,145.36009C203.41888,145.81868 202.56743,146.11523 202.42827,146.94342C202.2728,147.86859 202.33936,148.73845 202.37109,149.67825C202.3997,150.52521 203.13275,150.87866 204.02376,150.88092C204.8871,150.8831 205.97809,150.97916 206.56976,150.31026C207.06416,149.75133 207.24959,148.68109 207.35027,147.90175L207.37126,146.90242L207.45642,146.08226" id="svg_14" stroke-width="3" stroke="#000" fill="none"/>
  <path t="73305,73536,73565,73565,73660,73689,73697,73697,73705,73721,73721,73807,73834,74169,74175,74180,74485,74499,74499,74531,74531,74657,74692,74692,74721,74840,74862,74862,74862,75239,75251,75251" d="M168.37109,144.88092C167.93359,144.88092 168.85376,144.88092 169.66125,144.88092C170.65643,144.88092 171.57109,144.88092 172.47127,144.88092C173.25642,144.88092 174.23462,145.03026 175.20442,144.71425C175.89545,144.48907 176.66974,143.90952 177.57243,143.88092C178.53728,143.85036 179.60149,143.50746 180.20042,144.16626C180.76033,144.78214 180.37109,145.88092 180.37109,146.63809C180.37109,147.53358 180.64816,148.45024 180.32942,149.36009C180.03433,150.20242 179.05379,150.56044 178.43243,151.27025C177.91573,151.86052 177.26321,152.54112 176.9711,153.15692C176.55994,154.02371 175.96043,154.77292 175.04993,154.88109L174.23242,154.91692" id="svg_15" stroke-width="3" stroke="#000" fill="none"/>
  <path t="78885,79340,79381,79381,79517,79533,79680,79680,79699,79699,79707,79720,79720,79727,79727,79739,79739,79743,79769,79769,79769,79769,79789,79797,79805,79805,79855,79855,79863,79928,79955,79955,79963,79963,79975,79993,79993,80009,80009,80025,80025,80037,80037,80037,80037,80053,80069,80081,80081,80186,80200,80204,80208,80208,80220,80220,80236,80236,80329,80374,80374,80390,80390,80410,80430" d="M175.37109,180.88092C175.37109,181.64259 175.36176,182.53363 175.37109,183.39693C175.38152,184.36026 175.90636,185.08725 176.24959,185.98109C176.53433,186.72261 176.28236,187.7244 176.45642,188.39693C176.72397,189.43066 177.29231,190.1976 177.35027,190.90175C177.4306,191.87784 177.34282,192.86057 177.37109,193.71425C177.3997,194.57784 177.836,195.28813 178.53777,196.21425C178.86232,196.64256 179.39024,197.35771 179.80176,198.11292C180.30734,199.04076 180.33719,199.98157 180.37109,200.88092C180.3997,201.63971 180.75858,202.51982 181.01843,203.22826C181.38513,204.22797 181.31673,205.18265 181.37242,206.08226C181.41501,206.77007 181.83743,207.6904 182.0871,208.39693C182.42831,209.36256 182.61996,210.19197 182.94576,211.09158C183.22859,211.87259 183.35309,212.6698 183.37109,213.71425C183.38599,214.57813 183.37109,215.64491 183.37109,216.23892C183.37109,217.20493 183.3709,217.82892 183.37109,219.00941C183.37126,219.98076 183.73692,220.60817 184.52043,220.90625C185.34792,221.22107 185.31633,222.20634 185.40709,223.09158C185.48869,223.8875 185.89087,224.63812 186.20442,225.71425C186.43024,226.48924 186.37109,227.36491 186.37109,228.22826C186.37109,229.12825 186.37109,230.04759 186.37109,230.90175C186.37109,231.88092 186.38176,232.65959 186.59242,233.63809L187.24959,234.10242" id="svg_16" stroke-width="3" stroke="#000" fill="none"/>
  <path t="81675,81971,81997,81997,82000,82024,82024,82024,82024,82041,82041,82041,82041,82041,82041,82044,82044,82056,82056,82084,82175,82192,82200,82200,82220,82220,82220,82236,82236,82236,82312,82312,82332,82332,82348,82348,82356,82356,82368,82372,82372,82384,82384,82440,82440,82463,82479,82503,82503,82503,82511,82511,82519,82527,82543,82543,82551,82551,82567,82579,82579,82579,82583,82606,82622,82630,82630,82642,82642" d="M151.37109,186.88092C150.39192,187.90175 150.37109,188.85942 150.37109,189.67958C150.37109,190.58891 150.36188,191.64597 150.3801,192.26141C150.40154,192.98552 150.44539,193.81557 150.70442,195.21425C150.79919,195.726 151.07248,196.77385 151.22176,197.29959C151.51276,198.32446 151.69687,198.79521 152.03777,200.04759C152.32553,201.10475 152.26027,202.05806 152.39192,202.86009C152.53629,203.73956 153.3425,204.23663 153.37109,205.08092C153.40157,205.98073 153.35173,206.8519 153.37376,207.65025C153.39453,208.40248 153.43634,209.24718 153.94043,210.19559C154.31747,210.90498 154.96054,211.43141 155.60942,212.48093C155.96579,213.05731 156.29166,214.07646 156.35027,214.86009C156.42484,215.85703 156.37109,216.63359 156.37109,217.53358C156.37109,218.39693 156.34824,219.38121 156.37242,220.36626C156.39024,221.09219 156.58128,222.08482 156.87109,222.86009C157.19215,223.71893 157.35884,224.57649 157.37109,225.48093C157.38385,226.42273 157.53082,227.21623 157.79643,228.13159C158.01279,228.87724 158.02003,230.08247 158.54042,230.59293C159.16805,231.20859 160.24136,231.24969 160.53777,232.04759C160.85031,232.88893 161.27773,233.70276 161.36043,234.47026C161.46246,235.41718 161.34787,236.42416 161.38176,237.12093C161.42596,238.02959 161.99483,238.68318 162.6666,239.23808C163.39462,239.83946 163.37109,240.88092 163.37109,241.63809L163.3801,242.53358L163.54176,243.39693" id="svg_17" stroke-width="3" stroke="#000" fill="none"/>
  <path t="84133,84550,84550,84569,84569,84585,84585,84661,84669,84669,84681,84681,84723,84723,84759,84787,84787,84807,84811,84823,84827,84847,84847,84847,84865,84865,84865,84889,84889,84907,84907,84907,84915,84937,84953,84969,84969,84969,84969,84990,85241,85241,85262,85262,85270,85270,85278,85278,85293,85293,85293,85293,85644,85648,85648,85660,85672,85672,85704,85704,85704,85704,85969,85969,85987,85987,85995,86542,86703,86727,86727,86762,86835,86877,86877,86915,86915,86927,87063,87081,87128,87128,87297,87297,87439,87457,87469,87469,87494,87837,87837,87859,87859,87907,87907,88051,88069,88077,88077,88473,88473,88497,88497,88509,88535,88543,88583,88612,88624,88652,88652,88664,88664,90048,90048,90092,90092,90092,90108,90112,90124,90124,90128,90136,90136,90140,90156,90221,90221,90229,90237,90237,90347,90365,90365,90365,90381,90389,90393,90393,90409,90409,90421,90433,90471,90471,90471,90471,90485,90485" d="M155.37109,200.88092C153.48543,201.94342 153.48494,202.88663 153.36842,203.91025C153.27951,204.69138 152.43958,205.18346 151.9391,205.68092C151.21638,206.39931 151.15735,207.40813 150.72443,208.05559C150.14111,208.92798 149.34967,209.3273 148.53777,209.88092C147.87334,210.33397 147.03156,210.73241 146.27094,211.10225C145.56673,211.44467 144.67831,211.7095 144.02376,211.99075C143.02995,212.41777 142.68546,213.3009 142.04942,213.85942C141.39046,214.43808 140.69038,214.69472 139.68709,215.08092C138.87573,215.39323 138.05115,215.67114 137.05643,216.07959C136.38921,216.35356 135.37735,216.76035 134.58176,216.84492C133.85966,216.92169 132.78175,216.87585 131.87109,216.88092C131.06206,216.88542 130.0318,217.20366 129.36577,217.58626C128.8665,217.87306 128.20764,218.50714 127.04309,218.80891C126.19353,219.02905 125.40043,218.88092 124.36576,218.88092C123.62176,218.88092 122.51409,218.88092 121.79243,218.88092C120.92843,218.88092 120.22976,218.88092 119.03376,218.88092C118.25909,218.88092 117.43642,218.88092 116.62176,218.88092C115.53576,218.88092 114.68976,218.88092 113.86043,218.88092C112.89193,218.88092 111.92843,218.88092 111.22976,218.88092C110.0351,218.88092 109.26976,218.88092 108.47243,218.88092C107.70709,218.88092 106.51109,218.88092 105.77776,218.88092C104.88709,218.88092 104.02376,218.88092 103.0071,218.88092C102.1711,218.88092 100.99911,219.17671 100.49259,218.43808C100.06802,217.81895 100.37109,216.76625 100.37109,215.78091C100.37109,214.88092 100.37109,214.12375 100.37109,213.22826C100.37109,212.36491 100.37109,211.40175 100.37109,210.48093C100.37109,209.67958 100.37109,208.71425 100.37109,207.88092C100.37109,206.90242 100.37109,206.08226 100.37109,205.18092C100.37109,204.36009 100.37109,203.39693 100.37109,202.70625C100.37109,201.63809 100.37109,200.78059 100.37109,199.91025C100.37109,199.11292 100.37109,198.13159 100.37109,197.21425C100.37109,196.30225 100.70711,195.30624 100.34976,194.49159C100.04446,193.79559 98.82349,193.92397 98.44309,193.00893C98.16136,192.33121 98.38124,191.28535 98.37109,190.36626C98.36067,189.42242 97.69591,188.86807 97.42376,188.17558C97.0631,187.25787 96.51247,186.65645 96.37093,185.78091C96.22486,184.87738 95.75082,184.24646 94.88843,183.96359C94.09965,183.70486 93.43106,183.17674 93.37376,182.36359C93.31641,181.54961 93.37109,182.20358 93.37109,183.11559C93.37109,184.20892 93.37109,185.08092 93.37109,185.98109C93.37109,186.76625 93.37109,187.70625 93.37109,188.71425C93.37109,189.47026 93.37109,190.38092 93.37109,191.29158C93.37109,192.20226 93.37109,193.05559 93.37109,193.99559C93.37109,194.88092 93.37109,195.68092 93.37109,196.55292C93.37109,197.42358 93.37109,198.38092 93.37109,199.11292C93.37109,200.20892 93.37109,201.08226 93.37109,202.04759C93.37109,202.70625 93.37109,203.71425 93.37109,204.57642C93.37109,205.48093 93.37109,206.31293 93.37109,207.38092C93.37109,208.23892 93.37109,208.88092 93.37109,209.82892L93.37376,210.82359L93.54176,211.59158" id="svg_18" stroke-width="3" stroke="#000" fill="none"/>
  <path t="92418,92645,92645,92664,92672,92672,92672,92684,92684,92684,92684,92891,92891,92914,92926,92926,92938,92946,92946,92966,92966,92966,92978,92978,92978,92986,92986,92994,92994,93010,93010,93010,93018,93018,93018,93026,93034,93046,93054,93054,93084,93084,93084,93104,93128,93128,93128,93207,93207,93377,93395,93428,93428" d="M86.37109,190.88092C88.37193,190.87642 89.21946,191.14828 90.20409,190.52826C90.87489,190.10587 91.56152,189.57457 92.24259,189.11925C93.11838,188.53377 93.7291,188.22826 94.37109,187.88092C95.01309,187.53358 96.08569,186.87047 96.80859,186.42259C97.65289,185.89951 98.55252,185.74615 99.35026,185.90175C100.3008,186.08716 100.31844,187.05051 100.39193,187.90175C100.47707,188.88805 100.82752,189.68173 101.01842,190.33809C101.29533,191.29012 101.34904,192.10583 101.36659,192.92825C101.38858,193.95903 101.37109,194.83925 101.37109,195.85992C101.37109,196.57825 101.35869,197.64514 101.38176,198.55692C101.39816,199.20522 101.48586,200.39854 101.72376,201.01392C102.02373,201.78983 102.0526,202.82707 102.59243,203.63809C103.07582,204.36432 103.37109,205.04759 103.37109,205.90175C103.37109,206.88092 103.35577,207.67043 103.37109,208.39558C103.39193,209.38158 103.82542,210.19328 104.37109,210.90175C104.81264,211.47502 105.30598,212.47113 105.36209,213.22375C105.43802,214.24213 105.37109,215.18092 105.37109,216.08226L105.37109,216.76625" id="svg_19" stroke-width="20" stroke="#fff" fill="none"/>
  <path t="97503,97531,97531,97531,97531,97539,97539,97555,97555,97567,97567,97567,97567,97567,97579,97579,97579,97579,97587,97587,97587,97587,97595,97595,97595,97603,97603,97603,97611,97617,97617,97625,97625,97775,97775,97791,97795,97799,97807,97807,97815,97815,97815,97819,97819,97819,97827,97827,97827,97827,97833,97833,97841,97857,97857,97857,97918,97930,97930,97938,97954,97970,97970,98093,98113,98117,98117,98117,98129,98129,98129,98129,98268,98283,98297,98301,98305,98305,98305,98313,98313,98313,98329,98329,98329,98333,98333,98333,98333,98333,98333,98337,98337,98337,98337,98345,98345,98357,98357" d="M60.37109,148.88092C63.67076,144.70293 64.25143,144.04109 64.82943,143.46425C65.34737,142.94734 66.45619,142.22293 67.0621,141.78009C67.76778,141.26433 68.25949,140.46085 69.03776,140.04759C69.68165,139.7057 70.49419,139.50772 71.34176,139.25558C72.20621,138.99841 73.43295,138.57007 74.16126,138.23276C74.85487,137.91151 75.49685,137.52344 76.53776,137.21425C77.24161,137.00517 78.34978,136.90955 79.06126,136.88992C80.03743,136.86301 80.86126,136.88092 81.81926,136.88092C82.79226,136.88092 83.58576,136.88092 84.36126,136.88092C85.40043,136.88092 86.37109,136.88092 87.18542,136.88092C88.13909,136.88092 88.87109,136.88092 90.03776,136.88092C90.80859,136.88092 91.37163,137.32376 91.37109,138.06625C91.37042,138.99425 91.06772,139.75992 90.39909,140.05025C89.58031,140.40578 88.8355,140.90221 88.05376,141.48358C87.27726,142.06107 86.6007,142.68579 86.14576,143.08092C85.21307,143.89099 84.6917,144.28409 83.89193,144.86009C83.38299,145.22664 82.38709,146.05777 81.79243,146.43425C81.0004,146.93568 80.03776,146.88092 79.12043,146.88092C78.37643,146.88092 77.10268,146.55185 76.53776,147.21425C75.99379,147.85208 75.99381,148.87538 75.35026,149.38092C74.70426,149.88837 73.50092,149.54834 73.02843,150.30626C72.72945,150.78584 73.91426,150.88092 74.65376,150.88092C75.53726,150.88092 76.53776,150.88092 77.25376,150.88092C78.35026,150.88092 79.06126,150.88092 80.03776,150.88092C81.06709,150.88092 81.88609,150.87827 80.87109,150.88092C80.00859,150.88318 79.34838,150.87592 78.67193,150.93808C77.40858,151.05417 76.63975,151.33116 75.92293,151.52826C74.95794,151.79359 74.10889,151.8331 73.15226,151.99075C72.0307,152.1756 71.62577,152.31552 70.76126,152.58626C69.84755,152.87241 68.9227,153.18784 68.45376,153.31293C67.10208,153.67349 66.24322,153.78467 65.45443,153.83925C64.74803,153.88814 63.63543,153.88092 62.76709,153.88092L61.71393,153.88092L60.96659,153.88092" id="svg_20" stroke-width="20" stroke="#fff" fill="none"/>
  <path t="100887,101005,101005,101005,101011,101011,101027,101035,101035,101043,101043,101043,101055,101055,101055,101055,101059,101059,101059,101059,101059,101059,101075,101075,101213,101231,101235,101235,101243,101251,101255,101255,101255,101263,101263,101263,101263,101271,101271,101271,101271,101279,101279,101279,101279,101287,101287,101287,101287,101295,101295,101295,101303,101303,101303,101303,101311,101311,101311,101311,101319,101319,101327,101327,101327,101339,101339,101343,101343,101359,101359,101359,101359,101365,101365,101376,101376,101384,101384,101392,101412,101412,101428,101428" d="M53.37109,164.88092C54.08093,162.87558 54.3733,162.36794 54.88843,161.64893C55.58471,160.67706 56.2152,160.11581 56.36043,159.24492C56.50036,158.40578 56.35612,157.63414 56.37143,156.45943C56.38205,155.64471 56.34843,155.04543 56.70443,153.88092C56.89393,153.26105 57.42728,152.33542 57.83726,151.66658C58.52719,150.54105 58.79547,150.14064 59.31476,149.28459C59.5768,148.85263 60.08897,148.01198 60.51643,147.21959C61.02505,146.27673 61.26443,145.12531 62.0756,144.88542C62.85857,144.65388 63.90529,145.07832 64.50976,145.49159C65.34908,146.06543 65.91886,146.72775 66.2496,147.54559C66.49686,148.15704 66.36884,149.05159 66.37109,150.04759C66.37355,151.13359 66.37109,151.88092 66.37109,152.62825C66.37109,153.71425 66.37109,154.72826 66.37109,155.38092C66.37109,156.03358 66.37109,157.40225 66.37109,158.13359C66.37109,158.88092 66.37109,159.62825 66.37109,160.71425C66.37109,161.72375 66.37109,162.36009 66.37109,163.27959C66.37109,164.48225 66.37109,165.09158 66.37109,166.03809C66.37109,167.04759 66.37109,167.76492 66.37109,168.50626C66.37109,169.62825 66.37109,170.71425 66.37109,171.39291C66.37109,172.31842 66.32755,173.11009 66.3756,174.08009C66.41805,174.93701 66.65411,175.93315 66.79642,176.55692C67.0169,177.52327 67.29198,178.61195 67.35026,179.33925C67.43253,180.36588 67.37592,181.16794 67.53776,182.21425C67.63622,182.85078 67.80217,183.51965 68.01842,184.51842C68.25591,185.61525 68.36067,186.3391 68.37109,187.36626C68.37845,188.09155 68.37096,189.08075 68.37109,189.86009C68.37126,190.85925 68.70443,191.71425 69.37109,191.90175L70.20042,192.45026L70.36209,193.23276" id="svg_21" stroke-width="3" stroke="#000" fill="none"/>
  <path t="102780,102833,102850,102858,102858,102870,102870,102870,102874,102878,102882,102882,102894,102902,102902,102902,102910,102910,102918,102918,102918,102926,102930,102930,102938,102938,102938,102946,102946,102946,102946,102954,102954,102954,102954,102962,102962,102962,102962,102970,102970,102970,102970,102970,102978,102978,102986,102986,102986,102994,102994,102994,102994,103002,103002,103010,103010,103026,103026,103026,103043,103043,103142,103167,103167,103183,103183,103187,103191,103191,103191,103191,103199,103199,103199,103199,103207,103207,103207,103211,103211,103211,103211,103211,103223,103223,103223,103223,103223,103231,103231,103231,103239,103239,103239,103255,103255,103325,103329,103329,103576,103576,103576,103579" d="M63.37109,144.88092C65.96043,143.89159 66.97677,143.80615 67.57243,144.45293C68.12221,145.04988 68.53572,146.04884 68.85376,146.56358C69.34711,147.36205 69.95218,148.05353 70.25676,149.06659C70.49352,149.85408 70.37109,150.68092 70.37109,151.55292C70.37109,152.65025 70.37109,153.40175 70.37109,154.19826C70.37109,155.19559 70.37109,156.07025 70.37109,157.08109C70.37109,157.90175 70.37109,158.56625 70.37109,159.56493C70.37109,160.38092 70.37109,161.19691 70.37109,162.19958C70.37109,163.17825 70.37109,163.73558 70.37109,165.13425C70.37109,165.54343 70.37109,166.40175 70.37109,167.28009C70.37109,168.54759 70.37109,169.31158 70.37109,170.36009C70.37109,171.02908 70.37109,172.04759 70.37109,172.76625C70.37109,173.90175 70.37109,174.68542 70.37109,175.88092C70.37109,176.67825 70.37109,177.45958 70.37109,178.20892C70.37109,178.91025 70.37109,180.11026 70.37109,180.83925C70.37109,181.88092 70.37109,182.71292 70.37109,183.45242C70.37109,184.74475 70.37109,185.53442 70.37109,185.94626C70.37109,186.76892 70.37109,188.21425 70.37109,188.95226C70.37109,189.88092 70.37109,190.75243 70.37109,191.64491C70.37109,192.55692 70.37109,193.20493 70.37109,194.38092C70.37109,195.17291 70.37109,196.08226 70.37109,197.04759C70.37109,197.88092 70.21593,198.88921 70.42826,199.57642C70.7161,200.50803 71.53515,201.21617 72.03276,201.89075C72.41078,202.40321 72.78276,202.98189 73.79276,203.95975C74.30851,204.45909 74.91734,204.896 75.53276,205.39075C76.54539,206.20485 76.8959,206.51907 77.61476,207.17725C78.33326,207.8351 78.96842,208.50443 79.87109,209.21425C80.4901,209.70102 81.07702,209.94095 81.87109,210.54759C82.44766,210.98807 83.0497,211.59148 83.73109,212.17958C84.39668,212.75403 85.29901,213.46887 86.10976,213.74759C86.80026,213.98497 87.80016,214.07506 88.58576,214.31693C89.37009,214.5584 90.35438,215.15739 91.0621,215.52376C91.92599,215.97098 92.81376,215.8813 93.51243,215.88092C94.70576,215.88025 95.46176,215.87025 96.23376,215.84492L96.94976,215.79559" id="svg_22" stroke-width="3" stroke="#000" fill="none"/>
  <path t="104902,104934,104934,104974,104974,104974,104984,104984,104993,105008,105016,105016,105024,105032,105040,105040,105123,105138,105146,105154,105162,105162,105162,105170,105170,105170,105170,105170,105186,105190,105190,105194,105194,105194,105206,105210,105210,105226,105359,105359,105381,105381,105393,105397,105397,105405,105405,105405,105413,105413,105417,105417,105429,105433,105433,105433,105433,105433,105437,105445,105445,105445,105445,105449,105449,105449,105449,105457,105457,105461,105465,105465,105465,105477,105477,105481,105493,105493,105493,105497,105497,105509,105509,105509,105517,105517,105533,105533,105533,105541,105541,105557,105577,105577,105577,105585,105597,105597,105597,105605,105605,105621,105629,105637,105737,105737,105756,105756,105764,105764,105764,105772,105772,105772,105772,105784,105784,105784,105784,105784,105792,105792,105792,105800,105800,105800,105800,105804,105804,105804,105892,105940,105940,106072,106211,106232,106232,106252,106252,106260,106260,106268,106268,106268,106268,106268,106268,106268,106268,106272,106272,106272,106272,106272,106272,106284,106284,106284,106284,106284,106288,106288,106288,106288,106288,106288,106288,106288,106300,106300,106300,106300,106300,106300,106304,106308,106308,106308,106308,106308,106308,106312,106312,106316,106316,106316,106316,106320,106320,106324,106324,106324,106324,106324,106324,106336,106336,106336,106336,106406,106406,106427,106435,106435,106443,106443,106443,106451,106455,106455,106455,106459,106459,106459,106463,106463,106463,106467,106467,106471,106471,106471,106471,106475,106475,106475,106483,106483,106483,106483,106491,106491,106491,106499,106499,106499,106511,106511,106511,106511,106519,106519,106519,106527,106527,106527,106535,106535,106543,106543,106547,106551,106551,106551,106551,106559,106559,106559,106567,106567,106567,106567,106567,106571,106571,106579,106579,106579,106583,106583,106583,106591,106591,106599,106599,106599,106725,106725,106725,106757,106761,106765,106769,106781,106781,106781,106785,106785,106785,106785,106785,106785,106785,106785,106793,106793,106793,106797,106797,106797,106797,106797,106797,106801,106805,106805,106805,106805,106805,106805,106805,106813,106813,106813,106813,106813,106813,106817,106817,106817,106817,106821,106821,106825,106829,106829,106829,106833,106833,106833,106841,106841,106841,106845,106849,106849,106849,106857,106857,106857,106873,106873,106877,106877,107038,107054,107070,107070,107082,107082,107094,107102,107102,107110,107110,107110,107114,107118,107118,107118,107118,107130,107130,107130,107130,107134,107134,107134,107134,107138,107138,107142,107142,107142,107142,107150,107150,107150,107150,107150,107154,107154,107154,107158,107158,107166,107166,107166,107166,107174,107174,107182,107182,107190,107190,107332,107361,107361,107365,107369,107369,107381,107385,107385,107389,107397,107405,107405,107413,107413,107421,107421,107441,107566,107582,107607,107619,107627,107631,107631,107631,107635,107635,107643,107643,107721,107758,107758,107766,107766,107774,107778,107778,107778,107778,107778,107782,107782,107782,107790,107790,107790,107790,107798,107798,107802,107802,107802,107810,107810,107810,107814,107814,107818,107818,107826,107830,107830,107955,107955,107969,107985,107985,107989,107989,107993,108009,108009,108009,108009,108009,108009,108013,108013,108013,108017,108017,108017,108021,108021,108021,108021,108021,108021,108030,108030,108030,108030,108034,108034,108034,108034,108034,108042,108042,108042,108042,108042,108046,108046,108046,108046,108054,108058,108058,108062,108062,108062" d="M36.37109,143.88092C40.50409,146.12825 41.10395,146.64474 41.85643,147.36359C42.38446,147.86803 42.9299,148.41731 43.96209,148.77109C44.77578,149.04997 45.33544,149.6393 45.80709,150.28091C46.37849,151.05821 47.24307,151.27687 47.93509,151.94226C48.58006,152.56239 48.69815,153.56136 49.37109,153.86009C50.2534,154.25179 50.80653,154.86292 51.67109,154.88092C52.57224,154.89969 53.53776,154.88092 54.24976,154.88092C55.00426,154.88092 56.03776,154.88092 56.90709,154.88092C57.87243,154.88092 58.37109,154.88092 59.36043,154.88092C60.70443,154.88092 61.43217,154.9272 62.28776,154.86009C63.37752,154.77461 64.02517,154.61334 64.71393,154.11925C65.57208,153.50363 65.91923,152.70422 66.28709,151.76759C66.58835,151.00058 67.42216,150.57205 68.12826,150.23358C68.9786,149.82596 69.72491,149.7762 70.74576,149.89159C71.70965,150.00053 72.39693,150.39166 73.37109,150.88092C73.96521,151.17931 74.87166,151.5273 75.25676,152.53809C75.52546,153.24335 75.37109,154.28358 75.37109,154.92259C75.37109,156.21425 75.37109,156.84892 75.37109,157.53159C75.37109,158.57559 75.37109,159.54759 75.37109,160.37558C75.37109,161.13159 75.37109,162.21425 75.37109,163.19075C75.37109,163.90175 75.36868,164.63275 75.37109,165.71425C75.37334,166.72375 75.35532,167.36339 75.45643,168.27959C75.5564,169.18546 75.81133,170.06651 76.01842,170.92375C76.26761,171.95525 76.35187,172.64438 76.36976,173.47958C76.39111,174.4762 76.37109,175.39558 76.37109,176.40175C76.37109,177.21425 76.37109,178.13159 76.37109,178.87558C76.37109,179.91426 76.37109,180.74342 76.37109,181.64491C76.37109,182.55692 76.37109,183.20493 76.37109,184.38092C76.37109,185.19426 76.37109,186.21425 76.37109,186.88626C76.37109,187.87558 76.37109,188.91025 76.37109,189.67825C76.37109,190.55292 76.37109,191.42358 76.37109,192.38092C76.37109,193.11292 76.2769,194.09271 76.53776,195.04759C76.72685,195.73979 77.16911,196.46704 77.31393,197.47643C77.4447,198.38794 77.09029,199.40796 77.38176,200.27025C77.61549,200.9617 78.77856,200.96698 79.50976,201.52759C80.2363,202.08463 80.2533,202.95013 80.70443,203.88092C81.01383,204.51929 81.57882,205.11816 82.53776,205.71425C83.30241,206.18956 83.93211,206.3848 84.58993,206.63359C85.70197,207.05417 86.53878,207.36232 87.41109,207.70625C87.85078,207.87961 88.71292,208.21803 89.87109,208.71425C90.80766,209.11551 91.31896,209.38507 92.53776,209.88092C93.05223,210.09023 93.88314,210.39581 94.77243,210.59558C95.66325,210.79568 96.55932,210.74271 97.29959,210.93359C98.40535,211.21872 99.0795,211.85107 99.88843,211.87959C100.80802,211.91202 100.48176,211.92166 99.5351,211.87025C98.76726,211.82855 97.78286,211.50912 97.02826,211.23358C96.10505,210.89647 95.51801,210.77592 94.20443,210.21425C93.71667,210.00568 93.17704,209.74651 91.96176,209.15825C91.30748,208.84154 90.64014,208.51085 89.96826,208.17725C89.3028,207.84683 88.03798,207.21381 87.45726,206.92409C86.40466,206.39894 85.92866,206.15756 85.04976,205.73825C84.26432,205.36353 83.19258,204.89989 82.50576,204.62459C81.7886,204.33713 80.98768,204.01877 80.54576,203.82625C78.95659,203.13394 78.34846,202.82893 77.70326,202.51392C77.03239,202.18637 76.34861,201.84244 75.66176,201.48492C74.9756,201.12776 74.29517,200.78073 73.03776,200.04759C71.89993,199.38417 71.39116,199.04196 70.89376,198.72758C69.94253,198.12639 69.49661,197.80174 68.03776,197.04759C67.53555,196.78798 67.00571,196.5587 65.92043,196.10625C65.3724,195.87778 64.81339,195.67488 63.73909,195.19691C62.69596,194.73282 61.73493,194.20038 61.27193,193.92375C60.34449,193.36964 59.89287,193.0562 58.91776,192.47958C57.87987,191.86584 57.30926,191.57713 56.72043,191.28226C56.1196,190.98137 54.89201,190.40158 54.2831,190.11691C53.68634,189.83792 53.09318,189.59648 51.55743,188.80258C50.69992,188.3593 50.31725,188.15712 49.40343,187.54259C48.49425,186.93117 47.83789,186.45395 47.42376,185.58092C47.06119,184.81657 46.62073,184.08966 46.27126,183.33775C45.93655,182.61758 45.6906,181.72119 45.53776,180.71425C45.42963,180.00182 45.3854,178.90187 45.3756,178.19075C45.36213,177.21432 45.41996,176.3792 45.2991,175.63025C45.12166,174.53072 44.80174,173.9108 44.52043,173.20892C44.22032,172.46016 43.87648,171.69351 43.61409,170.48125C43.4445,169.69768 43.3949,168.9231 43.37376,167.85159C43.35545,166.9236 43.38752,166.1189 43.31393,165.31842C43.19384,164.01228 43.0202,163.2271 42.87109,162.40175C42.72549,161.59576 42.50685,160.55147 42.42826,159.80058C42.33596,158.91864 42.37109,158.10892 42.37109,157.31842C42.37109,156.39291 42.37109,155.35976 42.37109,154.63275C42.37109,153.54225 42.37109,152.85025 42.37109,151.65025C42.37109,150.90175 42.37109,150.19826 42.37109,149.19691C42.37109,148.38092 42.34476,147.56454 42.3756,146.33359C42.39259,145.65508 42.49139,144.701 42.73726,143.92825C43.00433,143.08888 43.68195,142.02625 44.1391,141.56758C44.60015,141.105 45.40449,140.59166 46.2286,139.90141C46.92712,139.31636 47.25079,138.85361 47.87109,137.88092C48.44038,136.98824 48.73034,136.46742 49.05776,135.93959C49.72449,134.86481 50.0519,134.34087 50.40443,133.87025C51.28375,132.6964 52.10041,132.08949 52.81926,131.79808C53.78067,131.40833 54.31855,131.17432 55.10976,130.73158C56.03693,130.21277 56.87118,129.9247 57.91376,129.88042C58.62182,129.85034 59.47056,129.85915 60.22826,129.21725C60.80991,128.7245 61.28848,127.58981 62.2071,127.85025C62.87365,128.03923 63.61284,128.80312 64.32943,129.38092C65.08665,129.99149 65.31896,130.78391 65.53359,131.62842C65.8531,132.88564 66.03378,133.41019 66.22309,133.99159C66.42767,134.61987 66.6608,135.28201 67.09509,136.70892C67.32022,137.44862 67.55628,138.1954 67.87109,139.71425C68.02484,140.45602 68.12532,141.1958 68.19959,141.92825C68.27325,142.65463 68.31461,143.38069 68.3391,144.10625C68.36363,144.8334 68.36909,145.56493 68.37109,147.04759C68.37211,147.80193 68.37109,148.56226 68.37109,150.08492C68.37109,150.83925 68.37109,151.58359 68.37109,152.31392C68.37109,153.02626 68.37109,154.38092 68.37109,155.01642C68.37109,156.20943 68.37109,156.77292 68.37109,157.84892C68.37109,158.36742 68.36909,159.88092 68.37143,160.38075C68.3761,161.37645 68.40284,162.36081 68.44309,162.84492C68.52229,163.79741 68.79513,165.16504 69.07643,166.01476C69.2128,166.42667 69.59369,167.17241 70.03776,168.54759C70.30094,169.36261 70.36043,170.13144 70.37109,171.21425C70.37734,171.84889 70.37109,172.53159 70.37109,173.57559C70.37109,174.54759 70.37109,175.37109 70.37109,176.32909C70.37109,177.30258 70.37109,178.12759 70.37109,178.72758C70.37109,180.04759 70.37109,180.76225 70.37109,181.48492C70.37109,182.51392 70.50584,183.63724 70.32943,184.33925C70.09755,185.26195 69.4933,186.17967 68.53776,186.38092C67.7868,186.53908 66.98137,185.80072 66.53776,184.88092C66.23808,184.25955 66.37808,183.10738 66.36043,182.58759C66.32882,181.65697 66.219,180.54536 66.08443,179.71159C65.94003,178.81693 65.85407,178.35393 65.60943,177.42909C65.24126,176.03732 65.05865,175.59921 64.72293,174.74258C64.40028,173.91927 64.02804,173.15938 63.70443,172.04759C63.50785,171.37222 63.39375,170.35991 63.32293,169.67108C63.20739,168.54729 63.08886,167.71132 62.94576,166.81958C62.87201,166.35994 62.69475,165.43269 62.53776,164.04759C62.43793,163.16682 62.40359,162.30637 62.39193,161.88092C62.36857,161.02843 62.37109,159.71425 62.37109,158.79825C62.37109,157.86626 62.37109,157.40175 62.37109,156.49075C62.37109,155.21425 62.37109,154.45293 62.37109,153.76358C62.37109,152.84709 62.37109,151.80258 62.37109,150.92259C62.37109,149.90225 62.37109,149.12825 62.37109,148.22826C62.37109,147.36491 62.37109,146.36359 62.37109,147.04759C62.37109,147.71692 62.37109,148.48225 62.37109,149.48541C62.37109,150.33809 62.37109,151.30209 62.37109,152.09558C62.37109,152.87109 62.37109,154.06659 62.37109,154.98093C62.37109,155.88092 62.37109,156.63809 62.37109,157.53809C62.37109,158.28542 62.37109,159.27959 62.37109,160.22375C62.37109,161.12825 62.37109,162.04759 62.37109,162.88092C62.37109,163.85909 62.37109,164.45308 62.37109,163.38092C62.37109,162.82892 62.37109,161.88092 62.37109,161.23892C62.37109,159.93559 62.33093,159.13617 62.3756,158.22826C62.4182,157.36218 62.73109,156.36076 63.53776,156.04759C64.30409,155.75008 65.28996,156.25789 65.47643,156.92842C65.73882,157.87202 65.93824,158.78516 66.07643,159.29692C66.36928,160.38141 66.5254,160.9276 66.80309,161.97691C67.04204,162.87981 67.30503,163.84695 67.36209,164.72542C67.42174,165.64369 67.37109,166.59959 67.37109,167.34892C67.37109,168.17026 67.37109,169.50209 67.37109,169.96359C67.37109,170.89558 67.37109,171.81958 67.37109,172.27109C67.37109,173.54759 67.37109,174.66658 67.37109,175.33925C67.37109,176.27826 67.37109,177.18059 67.37109,178.05959C67.37109,178.86659 67.37109,179.91025 67.37109,180.88092C67.37109,181.69525 67.37109,182.64626 67.37109,183.33925C67.37109,184.30492 67.37109,183.38092 67.37109,182.48692C67.37109,181.71425 67.37109,181.26892 67.37109,180.25026C67.37109,179.04759 67.37109,178.37225 67.37109,177.64491C67.37109,176.86359 67.37109,176.02626 67.37109,175.13092C67.37109,174.17558 67.37109,173.15825 67.37109,172.07692C67.37109,169.71425 67.37109,168.43225 67.37109,167.09825C67.37109,165.73026 67.37109,164.34625 67.37109,162.96425C67.37109,161.60225 67.37109,160.27826 67.37109,159.01025C67.37109,156.71425 67.37109,155.71742 67.37109,154.81958C67.37109,154.00975 67.37109,153.27692 67.37109,152.61009C67.37109,151.99826 67.37109,151.43042 67.37109,150.89558C67.37109,149.88092 67.37109,149.38126 67.37109,148.88359C67.37109,148.38992 67.37109,147.90225 67.37109,147.42259C67.37109,146.95293 67.37109,146.49525 67.37109,146.05159C67.37109,145.21425 67.37109,144.82425 67.37109,144.45425L67.37109,144.10425L67.37109,143.46425L67.37109,142.65425" id="svg_23" stroke-width="20" stroke="#fff" fill="none"/>
  <path t="112295,112575,112730,112756,112756,112768,112768,112768,112776,113145,113145,113289,113329,113329,113425,113493,113592,113592,113793,113793,114005,114005,114021,114021,114036,114036,114048,114048,114048,114048,114052,114056,114056,114068,114068,114068,114068,114068,114073,114073,114073,114073,114073,114073,114085,114085,114085,114536,114536,114540,114739,114739,114753,114757,114773,114773,114781,114801,114960,114960,114988,114988,115141,115141,115141" d="M45.37109,146.88092C45.65509,145.96625 46.58311,146.03253 47.37109,145.71425C48.07171,145.43124 48.85236,144.9278 49.71843,144.88542C50.73389,144.83574 51.57109,144.88092 52.47126,144.88092C53.25643,144.88092 54.19643,144.88092 55.20443,144.88092C55.96043,144.88092 57.00094,145.07234 57.6666,144.51926C58.41124,143.90054 58.21975,142.79404 58.70443,142.04759C59.10801,141.42606 60.19353,140.97495 60.99643,140.89159C61.85189,140.80278 62.77559,140.88092 63.77243,140.88092C64.39193,140.88092 65.53776,140.88092 66.32826,140.88092C67.18176,140.88092 67.77243,140.88092 68.97243,140.88092C69.89193,140.88092 70.52827,140.87473 71.53776,140.88092C72.63732,140.88768 73.43506,140.93146 73.85376,140.98892C74.74696,141.1115 76.21671,141.53603 76.73643,141.73293C77.80751,142.1387 78.32936,142.38107 78.84843,142.60492C79.8323,143.02921 81.07527,143.5547 81.74693,143.70943C82.55508,143.8956 83.5401,143.82909 84.58576,143.90225C85.36491,143.95677 86.33221,144.2352 86.80859,144.90175C87.33411,145.63705 87.38827,146.64621 87.72376,147.53358C87.99062,148.23941 88.3425,149.12247 88.37109,150.08092C88.39794,150.98085 88.34705,151.69562 88.37376,152.64893C88.39429,153.38167 88.70443,154.54759 89.07643,155.06659L89.80309,155.67825" id="svg_24" stroke-width="3" stroke="#000" fill="none"/>
  <path t="116662,117116,117116,117132,117132,117132,117140,117140,117140,117152,117152,117152,117156,117156,117164,117168,117196,117196,117196,117331,117331,117351,117363,117375,117387,117387,117387,118423,118441,118441,118441,118449,118449,118468,118468,118468,118468,118472,118472,118472,118472,118472,118993,118993,118993,119020,119020,119024,119887,119891,119899,119907,119907,119915,119915,119915,119931,119931,119943,119943,119943,120167,120179,120179,120194,120194,120202,120202,120202,120214,120219,120226,120226,120226,120242,120242,120254,120254,120258,120258,120270,120308,120396,120396,120404,120404,120420,120428,120436,120436,120460,120493,120493,120517,120615,120631,120631,120639,120639,120647,120647,120655,120655,120663,120663,120663,120671,120671,120679,120679,120683,120691,120707,120707,120727,120731,120892,120896,120912,120916,120916,120924,120936,120936,120936,120960,120964,120964,120964,120964,120968,120968,121001,121009,121009,121033" d="M41.37109,141.88092C42.79243,142.74225 43.29623,143.46426 44.1391,143.99692C44.83786,144.43851 45.66984,144.68512 46.4031,145.36626C46.92415,145.85028 47.29525,146.52881 48.1391,147.27959C48.83707,147.90059 49.38227,148.20207 50.40176,148.99559C50.99564,149.45784 51.68331,149.99762 52.39193,150.38092C53.35896,150.90399 54.25617,151.17256 54.80043,151.76625C55.40268,152.4232 55.37754,153.39928 56.0756,153.92909C56.80433,154.48219 57.72969,154.72856 58.53776,155.21425C59.25562,155.64572 59.69934,156.20511 60.61393,156.77559C61.35639,157.23871 61.87496,157.92055 62.17109,158.48358C62.69141,159.47287 63.00071,160.1506 63.87109,160.71425C64.68258,161.23975 65.44077,161.38374 66.18459,161.69075C67.38335,162.18553 67.78264,162.40369 68.55759,162.88626C69.32095,163.36162 70.01385,163.8575 70.87109,164.54759C71.51051,165.06233 72.09628,165.66653 72.57243,166.64893C72.92078,167.36765 73.16863,168.18697 73.85376,168.91025C74.44217,169.53143 75.14352,170.10796 75.53776,170.88092C75.89495,171.58125 76.25874,172.42268 76.37109,173.40175C76.4624,174.19745 76.65465,175.19574 76.87109,175.86009C77.20374,176.88115 77.25623,177.68953 77.45509,178.39558C77.74506,179.42508 78.2923,180.1976 78.35026,180.90175C78.4306,181.87784 78.23582,182.94284 78.70443,183.71425C79.09319,184.3542 79.99055,184.68954 80.2991,185.72758C80.47523,186.32019 80.37109,187.56493 80.37109,188.38092C80.37109,189.19691 80.37109,190.19559 80.37109,190.86009C80.37109,191.88092 80.37109,192.86009 80.37109,193.71425C80.37109,194.57642 80.38809,195.49033 80.79642,196.29158C81.18649,197.05701 81.31017,197.8826 81.37126,198.85942C81.42274,199.68239 82.07692,200.30267 82.3351,201.29158C82.56532,202.17342 82.37109,202.88092 82.37109,203.85942C82.37109,204.88092 82.06458,205.76128 82.42826,206.52376C82.81533,207.33528 83.33366,207.94238 83.36043,208.64091C83.40244,209.73717 83.44689,210.61153 84.07643,211.18542C84.76391,211.81215 85.26785,212.54132 85.41926,213.34259C85.60032,214.30078 85.81417,215.10165 86.01842,215.92825C86.2719,216.95404 86.18625,217.67516 86.53776,218.71425C86.77065,219.40271 87.3425,220.17957 87.37109,221.08226C87.40166,222.0471 87.33237,222.8817 87.37126,223.85942C87.39985,224.57811 87.90986,225.36035 88.32293,226.18542C88.745,227.02847 89.2549,227.67979 89.66576,228.22826C90.31129,229.08998 90.33793,230.04901 90.39193,230.92259C90.43192,231.56956 90.66115,232.56607 90.87109,233.42259C91.0228,234.04153 91.25696,235.40109 91.31843,236.12009C91.37808,236.81786 91.45509,237.74092 91.79642,238.75826L92.28709,239.44891L92.42376,240.17558L92.94576,240.96759" id="svg_25" stroke-width="3" stroke="#000" fill="none"/>
  <path t="122465,122707,122727,122727,122747,122747,122751,122751,122771,122771,122799,122835,122839,122861,122861,122881,122881,122897,122921,122921,123013,123013,123013,123036,123036,123040,123044,123044,123056,123084,123084,123104,123104,123104,123119,123119,123237,123258,123258,123274,123290,123311,123311,123338,123338,123338,123354,123386,123406,123406,123406,123795,123818,123818,123822,123826,123826,123826,123842" d="M105.37109,184.88092C105.37109,185.92259 105.37109,186.88092 105.37109,187.67026C105.37109,188.71425 105.37109,189.50626 105.37109,190.36626C105.37109,191.28542 105.37109,192.27959 105.37109,193.04492C105.37109,193.99559 105.37109,194.88092 105.37109,195.69525C105.37109,196.64893 105.37109,197.38092 105.37109,198.54759C105.37109,199.33925 105.37109,200.18092 105.37109,201.08492C105.37109,201.93692 105.37109,202.93292 105.37109,203.55692C105.37109,204.52292 105.37109,205.61659 105.37109,206.33925C105.37109,207.36491 105.13403,208.08337 105.3756,209.11925C105.5559,209.89243 106.28413,210.4534 106.39643,211.13826C106.5874,212.30293 106.80341,213.09361 107.01842,213.87109C107.25755,214.73579 107.44579,215.56041 107.87109,216.40175C108.27057,217.192 108.36576,218.05554 108.37109,218.99559C108.37669,219.98091 108.37109,220.88092 108.37109,221.55292C108.37109,222.64893 108.37109,223.38092 108.37109,224.11292C108.37109,225.20892 108.22271,226.14807 108.70443,227.04759C108.99336,227.58713 109.88515,228.11772 110.25676,229.12825C110.57651,229.99774 110.3359,230.73293 110.45643,231.56758C110.60162,232.57303 110.89193,233.36009 111.17242,234.11159L111.6666,235.06659" id="svg_26" stroke-width="3" stroke="#000" fill="none"/>
  <path t="125701,125925,125925,125925,125933,125933,125933,125941,125941,125941,125953,125981,125989,126001,126001,126017,126017,126025,126033,126041,126041,126049,126049,126049,126066,126066,126066,126082,126082,126082,126082,126086,126098,126098,126098,126118,126122,126122,126122,126126,126142,126142,126158,126158,126162,126162,126178,126194,126194,126194,126266,126266,126279,126291,126291,126307,126311,126327,126347,126347,126347,126367,126367,126415,126441,126441,126449,126465,126465,126473,126481,126481,126489,126501,126501,126501,126517,126517,126517,126629,126629,126660,126660,126660,126840,126862,126866,126866,126866,126866,126866" d="M86.37109,244.88092C86.37109,246.30508 86.37109,246.94342 86.37109,247.64175C86.37109,249.05925 86.37109,249.71925 86.37109,250.63425C86.37109,251.71425 86.37109,252.41925 86.37109,253.21925C86.37109,254.24492 86.37109,255.18092 86.37109,256.08224C86.37109,257.04758 86.37109,257.70627 86.37109,258.71426C86.37109,259.57642 86.37109,260.48093 86.37109,261.40176C86.37109,262.20242 86.37109,263.09158 86.37109,264.08109C86.37109,264.90176 86.37109,265.56625 86.37109,266.56491C86.37109,267.38092 86.37109,268.19693 86.37109,269.42825C86.37109,270.10626 86.37109,271.04758 86.37109,271.83359C86.37109,272.65558 86.37109,273.71426 86.37109,274.63425C86.37109,275.39426 86.37109,276.40176 86.37109,277.42358C86.37109,278.13159 86.37109,278.87558 86.37109,280.06659C86.37109,280.98126 86.37109,281.69525 86.37109,282.64893C86.37109,283.38092 86.37109,284.54758 86.37109,285.33926C86.37109,286.30225 86.37109,287.21426 86.37109,287.88626C86.37109,288.87558 86.37109,289.91025 86.37109,290.67825C86.37109,291.51691 86.36741,292.5336 86.37109,293.22824C86.37643,294.23428 86.90776,294.84766 87.6756,295.23358C88.55756,295.67688 89.20651,295.86182 89.97243,295.87958C91.16011,295.90714 91.88576,295.88092 92.87109,295.88092C93.85509,295.88092 94.55422,295.75116 95.61393,295.88541C96.49109,295.99652 97.02473,296.68167 97.89193,296.86008C98.83556,297.0542 99.73206,296.73358 100.61843,296.88992C101.57848,297.05927 102.18106,297.78748 102.83276,298.1756C103.74783,298.72058 104.58399,298.83704 105.36126,298.87192C106.40208,298.91861 107.17643,298.88092 108.13909,298.88092C108.87109,298.88092 109.60314,298.89111 110.6991,298.88092C111.66672,298.87192 112.20443,298.21426 112.29593,297.43427L112.26693,296.71426L112.13792,295.83426L112.02843,295.33426" id="svg_27" stroke-width="3" stroke="#000" fill="none"/>
  <path t="129647,129841,129863,129887,129887,129887,129891,129891,129891,129891,129899,129899,129899,129899,129911,129911,129911,129911,129916,129916,129916,129927,129927,129932,129932,129943,129943,129943,129956,129956,129967,129980,129980,130177,130177,130197,130209,130209,130213,130213,130213,130217,130217,130225,130225,130257,130257,130257,130257,130257,130257,130261,130261,130265,130265,130281,130477,130495,130495,130499,130503,130507,130531,130531,130531,130531" d="M81.37109,254.88092C82.9351,255.49159 83.32854,256.29187 83.37143,257.20291C83.40728,257.96454 83.51389,258.74622 83.81376,259.74493C84.05426,260.5459 84.38198,261.3772 84.66576,262.22293C85.05267,263.37604 85.19849,264.02853 85.37109,264.86008C85.53474,265.6485 85.80559,266.52689 86.07643,267.18625C86.50749,268.23566 86.86833,268.89255 87.1281,269.83792C87.39871,270.82281 87.33907,271.47888 87.3756,272.48093C87.40481,273.2821 87.68196,274.27338 87.94576,275.11691C88.23408,276.03882 88.33339,276.82819 88.36043,277.6196C88.39861,278.7373 88.10117,279.63562 88.44309,280.48093C88.73539,281.20352 89.84103,281.53729 90.20042,282.36493C90.55026,283.17056 90.3195,284.12521 90.37243,285.08359C90.41503,285.85501 90.64334,286.65448 90.89193,287.40176C91.15848,288.203 91.52952,289.21533 91.97109,290.03424C92.42927,290.88394 92.92749,291.39954 93.53776,292.38092C93.87521,292.92358 94.20427,293.57437 94.54576,294.27692C94.89516,294.9957 95.48576,296.39291 95.73509,297.02359C96.06659,297.86209 96.33346,298.86343 96.97109,299.42358C97.64711,300.01746 98.30322,300.56842 99.08543,300.82376C99.93157,301.09998 100.96659,300.88092 101.71393,300.88092C102.62292,300.88092 103.70443,300.88092 104.38993,300.88092L105.22843,300.88092L105.85909,300.88092" id="svg_28" stroke-width="20" stroke="#fff" fill="none"/>
  <path t="134424,134535,134550,134582,134602,134618,134618,134626,134650,134690,134690,134768,134788,134792,134800,134816,134856,134856,134906,135034,135034,135049,135053,135053,135065,135077,135081,135115,135167,135167,135167,135179,135283,135311,135311,135413,135413,135413,135413,135438,135438,135438,135454,135454,135458,135458,135482,135654,135681,135769,135769,135769,135773,135785,135785,135821,135869,135909,135976,135976,136014,136026,136030,136118,136133,136133,136166,136219,136320,136347,136347,136367,136367,136375,136375,136391,136456,136456,136456,136537,136537,136578,136598,136602,136610,136610,136622,136631,136631,136663,136671,136699,136707,136707,136723,136747,136755,136777,136785,136785,136793,136793,136805,136813,136833,136833,136841,136841,136853,136869,136877,136913,136913,136943,136965,136965,136981,136981,136997,136997,137009,137045,137061,137061,137077,137077,137095,137095,137111,137111,137127,137169,137203,137203,137219,137288,137288,137319,137327,137347,137347,137367,137367,137383,137383,137391,137395,137415,137415,137415,137431,137439,137439,137455,137455,137467,137483,137483,137487,137487,137499,137515,137531,137555,137555,137591,137591,137603,137623,137639,137655,137655,137734,137734,137757,137757,137770,137770,137774,137790,137802,137802,137810,137810,137818,137904,137904,137942,137942,137942,137950,137958,137958,138089,138089,138089,138185,138185,138201,138201,138205,138217,138337,138337,138360,138376,138380,138459,138459,138599,138632,138648,138648,138656,138684,138684,138823,138858,138978,138978,138998,138998,139030,139030,139287,139287,139294,139294,139298,139302,139314,139314,139322,139334" d="M87.37109,253.88092C86.38176,253.91692 86.37109,254.68225 86.37109,255.58092C86.37109,256.51691 86.37109,257.36493 86.37109,258.22824C86.37109,259.24493 86.37109,260.08093 86.37109,260.98108C86.37109,261.76627 86.37109,262.70627 86.37109,263.71426C86.37109,264.57642 86.37109,265.38092 86.37109,266.2916C86.37109,267.20224 86.37109,268.05557 86.37109,268.99557C86.37109,269.88092 86.37109,270.68091 86.37109,271.63809C86.37109,272.5336 86.36545,273.39694 86.37109,274.36008C86.37643,275.27032 87.08754,275.75278 87.35026,276.44342C87.69878,277.35962 87.18723,278.15857 87.45643,279.02759C87.74854,279.97052 88.36913,280.55667 89.08543,281.18991C89.72903,281.75888 90.58759,282.41016 90.96659,282.89075C91.56201,283.64578 91.89504,284.19269 92.48709,285.19559C92.87725,285.85648 93.21301,286.51352 94.02376,287.47641C94.52087,288.0668 95.2729,288.65439 95.82943,289.36008C96.35748,290.02963 96.83116,290.71637 97.3671,291.33826C98.02686,292.10385 98.2214,292.65042 98.87109,293.38092C99.31195,293.87659 99.91905,295.04861 100.45243,295.59293C101.01964,296.17178 101.90901,296.62799 102.78176,296.84491C103.66623,297.06476 104.54576,296.88092 105.48576,296.88092C106.37109,296.88092 107.1711,296.88333 108.12826,296.88092C109.01927,296.87866 109.87901,296.86404 110.41926,296.17642C110.9799,295.46286 111.74322,295.08411 112.57243,294.59424C113.20191,294.22235 113.83652,293.3782 114.37109,292.90176C115.17759,292.18295 115.96022,291.8916 116.79243,291.88092C117.70435,291.86923 118.62757,291.92758 119.36576,291.82376C120.41496,291.67621 121.12647,291.23557 121.76043,290.48093C122.30988,289.82687 122.34286,288.94354 122.81776,288.06625C123.17814,287.40054 124.18366,287.33417 125.03776,286.71426C125.6519,286.26852 125.78316,285.32806 126.34576,284.49158C126.80419,283.80997 127.34126,283.17252 127.36976,282.36359C127.40362,281.40237 127.36984,280.48184 127.87109,279.88092C128.4196,279.22333 128.81812,278.56314 129.37109,277.88092C130.04308,277.05185 130.05411,276.22604 130.39192,275.40176C130.70667,274.63379 131.31772,274.02966 131.36043,273.12091C131.403,272.21521 131.5321,271.45859 132.01843,270.82825C132.52361,270.17349 132.37109,269.24493 132.37109,268.22824C132.37109,267.5336 132.31595,266.51505 132.3756,265.57193C132.41766,264.90665 132.72939,263.87723 132.94576,263.13159C133.21136,262.21625 133.36575,261.30231 133.37109,260.38092C133.37636,259.47025 133.37109,258.55942 133.37109,257.86008C133.37109,256.88092 133.37109,256.09158 133.37109,255.04759C133.37109,254.25558 133.37109,253.22826 133.37109,252.53358C133.37109,251.51692 133.37109,250.58092 133.37109,249.67958C133.37109,248.99559 133.37109,248.05559 133.37109,247.04759C133.37109,246.18542 133.37125,245.28091 133.37109,244.47026C133.37093,243.55959 133.46913,242.60321 132.92827,241.90242C132.34082,241.14127 131.40109,240.7695 130.74576,240.28091C130.05864,239.76862 129.29321,239.44968 128.53777,238.71425C127.93762,238.13 127.55606,237.47086 126.7711,236.83025C126.15653,236.3287 125.71474,235.41098 124.88709,235.05159C124.08144,234.70174 123.12826,234.88092 122.16843,234.88092C121.40043,234.88092 120.36398,234.94446 119.65776,234.84492C118.60677,234.69681 118.08874,233.92363 117.1711,233.88092C116.2719,233.83907 115.48576,233.88092 114.54576,233.88092C113.85509,233.88092 112.78176,233.88092 111.87109,233.88092C110.96043,233.88092 110.04959,233.88092 109.35026,233.88092C108.37109,233.88092 107.58176,233.88092 106.53776,233.88092C105.74576,233.88092 104.71842,233.87727 104.02376,233.88092C103.00706,233.88626 102.26251,234.33066 101.37109,234.71425C100.65981,235.02031 99.65355,234.63412 98.94043,234.96625C98.11812,235.34921 97.36371,235.81464 96.55676,235.93808C95.58776,236.08632 94.87561,236.39687 94.13909,236.59692C93.19527,236.8533 92.50342,237.4646 92.30976,238.10225C92.00455,239.10722 91.53226,239.70448 90.9621,240.22375C90.21203,240.90689 89.40085,241.36026 88.53776,241.71425C87.66624,242.07169 87.66961,243.05542 87.08576,243.71159C86.48523,244.38651 85.84206,244.64803 85.30976,245.48093C84.88631,246.14351 83.90116,246.53728 83.54176,247.36491C83.19191,248.17058 83.37109,249.12375 83.37109,250.08092C83.37109,250.98109 83.37109,251.76625 83.37109,252.70625C83.37109,253.71425 83.37109,254.47026 83.37109,255.38092C83.37109,256.2916 83.37109,257.20242 83.37109,257.90176C83.37109,258.88092 83.33559,259.86081 83.37109,260.71426C83.40713,261.58051 83.68836,262.38815 84.08092,263.23892C84.3798,263.88666 84.68715,264.54422 85.34943,265.61658C85.8053,266.35474 86.2496,267.20224 86.35026,267.88092L86.37126,268.85925L86.59243,269.75958" id="svg_29" stroke-width="3" stroke="#000" fill="none"/>
  <polyline timestamps="147070,147653" startTime="1501916386640" id="svg_30" points="203.3710946199135,108.88092008978128 203.3710946199135,109.76758675644795 " stroke-linecap="round" stroke-width="3" stroke="#000" fill="none"/>
  <path t="157344,157691,157691,157691,157710,157710,157738,157738,157738,157862,157862,157862,157862,157882,157882,157902,157902,157910,157949,157949,157949,157997,158023,158039,158039,158051,158051,158051,158059,158063,158063,158063,158063,158071,158071,158099,158099,158099,158163,158189,158213,158307,158307,158325,158325,158345,158357,158369,158369,158381,158389,158389,158393,158397,158397,158401,158409,158409,158425,158425,158425,158425,158441,158441" d="M213.37109,196.88092C215.48576,198.01825 215.84323,198.90422 216.06659,199.52742C216.45863,200.62125 216.9574,201.32318 217.20442,202.21425C217.46083,203.13918 217.36035,203.74265 217.53777,205.04759C217.63533,205.76521 217.79565,206.48509 217.94576,207.18359C218.20309,208.38121 218.19113,209.29219 218.81377,209.98093C219.39429,210.62308 220.18288,211.08904 220.53777,212.04759C220.78345,212.7112 221.21626,213.3721 221.36043,214.47026C221.47897,215.37323 221.37061,216.19443 221.37109,216.93692C221.37177,217.93692 221.35416,218.59042 221.42827,219.69443C221.50809,220.88329 221.6395,221.68042 221.8071,222.44891C221.96581,223.17657 222.11935,223.84831 222.6666,225.01842C222.98381,225.69667 223.30821,226.64729 223.35027,227.38092C223.39217,228.11197 223.37109,229.20892 223.37109,230.18092C223.37109,231.08226 223.37109,232.04759 223.37109,232.70625C223.37109,233.71425 223.37109,234.57642 223.37109,235.48093C223.37109,236.40175 223.37109,237.20226 223.37109,238.05559C223.37109,238.99692 223.37109,240.04759 223.37109,240.72758C223.37109,241.56758 223.37109,242.56493 223.37109,243.38092C223.37109,244.19691 223.37109,245.19826 223.37109,246.14226C223.37109,247.21425 223.37109,247.84758 223.37109,248.52092L223.37109,249.51842L223.37109,250.61659L223.37109,251.48492" id="svg_31" stroke-width="3" stroke="#000" fill="none"/>
 </g>
</svg>