<svg width="500" height="333.3333333333333" xmlns="http://www.w3.org/2000/svg" xmlns:svg="http://www.w3.org/2000/svg" xmlns:xlink="http://www.w3.org/1999/xlink">
 <!-- Created with SVG-edit - http://svg-edit.googlecode.com/ -->
 <g display="inline" class="layer">
  <title>Layer 1</title>
  <path t="0,276,301,336,356,373,396,396,414,431,448,466,466,483,500,517,534,534,551,552,575,589,589,606,622,640,658,675,692,709,733,757,956,973,990,1007,1025,1045,1063,1080,1098,1116,1116,1132,1149,1181,1199,1229,1254,1272,1289,1306,1322,1323,1323,1339,1339,1357,1357,1373,1373,1389,1390,1407,1424,1441,1484,1485,1518,1557,1578,1598,1622,1677,1805,1830,1864,1881,1882,1899,1917,1917,1933,1950,1950,1967,1990,1990,2023,2061,2095,2119,2137,2191,2223,2262,2262,2287,2311,2329,2346,2363,2381,2398,2463,2480,2503,2520,2543,2615,2662,2680,2926,2960,2978,2978,2995,3012,3012,3029,3046,3046,3064,3082,3082,3099,3117,3134,3134,3151,3151,3168,3186,3186,3203,3221,3238,3255,3256,3273,3291,3486,3519,3551,3569,3586,3604,3638,3671,3703,3727,3746,3763,3784,3784,3801,3824,3841,3859,3877,3896,3913,3930,3947,3964,3983,3984,4040,4064,4088,4120,4176,4176,4543,4568,4600,4624,4659,4676,4677,4694,4694,4720,4775,4808,4959,5055,5088,5105,5123,5140,5157,5157,5175,5175,5192,5295,5367,5407,5407,5425,5457,5474,5514,5533,5551,5567,5589,5601,5601,5618,5618,5635,5653,5671,5688,5706,5706,5724,5741,5759,5776,5793,5794,5811,5828,5846,5846,5863,5863,5880,5880,5897,5914,5945,5962,5979,6002,6018,6019,6036,6053,6070,6097,6114,6137,6161,6178,6201,6225,6242,6260,6281,6385,6402,6402,6448,6466,6483,6483,6500,6520,6537,6558,6559,6592,6607,6624,6645,6677,6695,6712,6730,6747,6860,6878,6895,6912,6930,6930,6930,6948,6966,7277,7294,7294,7311,7329,7346,7347,7366,7366,7398,7485,7549,7582,7600,7617,7635,7653,7669,7687,7706,7723,7742,7742,7759,7813,7838,7871,7871,7958,7974,7991,7992,8008,8025,8070,8110,8127,8145,8162,8179,8199,8223,8262,8279,8296,8296,8313,8331,8349,8366,8384,8402,8419,8419,8437,8454,8471,8489,8508,8526,8542,8542,8559,8607,8639,8663,8758,8798,8816,8833,8833,8850,8851,8868,8868,8886,8886,8886,8903,8904,8921,8922,8939,8956,8957,8957,8977,8977,9010,9031,9049,9066,9083,9101,9101,9120,9137,9160,9177,9178,9195,9211,9229,9246,9246,9262,9288,9320,9352,9369,9386,9386,9404,9421,9422,9471,9735,9753,9770,9787,9787,9787,9805,9805,9822,9823,9840,9840,9859,9859,9880,9897,9920,9938,9955,9973,9974,9974,9990,9991,10008,10025,10056,10080,10097,10097,10120,10208,10240,10272,10296,10314,10415,10415,10419,10419,10419,10419,10434,10434,10451,10451,10469,10487,10503,10521,10538,10538,10555,10556,10576,10594,10594,10617,10634,10651,10651,10668,10685,10703,10719,10720,10737,10754,10992,11010,11027,11027,11044,11045,11045,11062,11062,11062,11079,11080,11080,11080,11096,11096,11113,11114,11132,11149,11149,11166,11182,11199,11200,11216,11234,11234,11251,11268,11289,11306,11323,11324,11341,11358,11376,11394,11394,11411,11428,11446,11446,11464,11464,11480,11499,11516,11533,11534,11550,11568,11588,11588,11588,11601,11602,11618,11619,11636,11636,11654,11672,11672,11688,11689,11689,11706,11707,11723,11741,11741,11758,11759,11776,11810,11834,11851,11852,11882,11914,11938,11938,11962,11980,11997,12042,12060,12077,12095,12112,12113,12130,12162,12180,12202,12244,12266,12321,12393,12427,12445,12462,12482,12506,12601,12626,12643,12661,12678,12678,12696,12731,12748,12778,12795,12818,12842,12860,12878,12878,12895,12896,12913,12913,12929,12929,12947,12947,12948,12964,12964,12965,12982,12982,12999,13000,13000,13016,13016,13033,13033,13033,13050,13050,13068,13068,13085,13104,13104,13121,13122,13138,13155,13172,13188,13206,13222,13222,13239,13240,13257,13273,13274,13291,13291,13308,13309,13326,13326,13343,13360,13377,13394,13394,13411,13412,13429,13446,13446,13464,13481,13481,13498,13498,13498,13515,13516,13533,13533,13550,13550,13568,13568,13569,13585,13602,13602,13620,13620,13637,13656,13656,13674,13691,13691,13708,13725,13747,13771,13789,13811,13835,13882,13900,13917,13917,13940,13957,13987,14011,14052,14069,14087,14115,14116,14147,14674,14692,14709,14726,14726,14742,14743,14760,14760,14776,14794,14794,14811,14811,14828,14828,14845,14868,14891,14916,14952,14970,14986,15003,15021,15057,15076,15092,15093,15109,15132,15132,15150,15185,15219,15219,15237,15475,15501,15518,15540,15558,15575,15599,15612,15612,15629,15646,15663,15702,15719,15757,15774,15774,15797,15829,15853,15877,15925,15949,15966,15989,16013,16037,16108,16141,16142,16173,16191,16208,16237,16254,16255,16277,16325,16349,16397,16421,16453,16485,16518,16542,16565,16601,16614,16631,16661,16693,16711,16733,16758,16775,16811,16831,16831,16848,16881,16903,16903,16926,16988,17173,17198,17222,17246,17270,17287,17310,17334,17352,17369,17388,17405,17422,17440,17458,17478,17513,17534,17551,17568,17590,17607,17624,17642,17660,17660,17677,17695,17695,17712,17713,17730,17750,17751,17751,17768,17784,17802,17819,17836,17837,17854,17871,17889,17909,17925,17941,17958,17990,18022,18054,18117,18118" d="M399.5,78.66666C397.79999,78.66666 397.026,78.86987 396.33334,79.5C395.73358,80.04562 395.68329,80.82094 395.33334,81.66666C395.00867,82.4513 394.6524,83.18101 394.48932,84.06667C394.33621,84.89809 393.58502,85.65406 393.50134,86.46667C393.40915,87.36193 393.57568,88.33308 393.064,89.06667C392.5929,89.74206 391.80591,90.25992 391.58533,91.15067C391.37689,91.99236 391.65338,92.97057 391.216,93.86667C390.89169,94.53109 390.27237,95.14413 389.784,95.836C389.27774,96.55319 389.00455,97.428 388.52533,98.10267C388.048,98.77464 387.92929,99.8289 387.33334,100.5C386.79492,101.1063 386.14398,101.6376 386.30267,101.66666C387.18533,101.82831 388.10001,101.66666 389,101.66666C389.89999,101.66666 390.79999,101.66666 391.70001,101.66666C392.60001,101.66666 393.5,101.66666 394.29999,101.66666C395.20001,101.66666 396.10004,101.67206 397,101.66666C397.8894,101.66133 398.13153,101.06419 398.52084,100.1875C398.83655,99.47661 399.49774,98.96217 399.5,98.125C399.50269,97.12383 399.5,96.40533 399.5,95.61483C399.5,94.58817 399.5,93.6875 399.5,92.66666C399.5,91.87733 399.5,90.83334 399.5,90.04134C399.5,89.18267 399.5,88.31934 399.5,87.42384C399.5,86.46667 399.5,85.56667 399.5,84.66666C399.5,83.86667 399.5,82.96667 399.5,82.06667C399.5,81.16666 399.5,80.26667 399.5,79.37117C399.5,78.44517 399.10797,77.31638 399.72134,76.78817C400.44354,76.16624 401.5,76.66666 402.29999,76.66666C403.25717,76.66666 404.15268,76.66666 404.84732,76.66666C405.87466,76.66666 406.82132,76.66666 407.67465,76.66666C408.61465,76.66666 409.5004,76.6413 410.29999,76.66666C411.20139,76.69526 411.92239,77.35281 412.79999,77.6095C413.66428,77.86229 414.58847,77.5764 415.5,77.66666C416.3457,77.7504 416.32645,78.70492 416.58533,79.46667C416.88708,80.35459 417.23962,81.10577 417.50449,81.96217C417.74057,82.72547 418.48956,83.18732 418.5,84.06667C418.51172,85.05593 418.40921,86.0165 418.92532,86.64133C419.42117,87.24164 420.01804,87.82555 420.58401,88.38267C421.25513,89.04329 421.8241,89.53235 422.47467,90.092C423.07935,90.61216 422.39999,90.66666 421.5,90.66666C420.70001,90.66666 419.86401,90.66666 418.84732,90.66666C418.15268,90.66666 417.09579,90.75737 416.29868,90.38267C415.56653,90.03851 414.67514,89.68467 413.66666,89.66666C412.9108,89.65317 411.97916,89.69246 411.1955,89.314C410.30664,88.88474 409.50018,88.67709 408.66666,88.66666C407.80457,88.65589 406.86401,88.66666 406.01599,88.66666C405.15268,88.66666 404.25717,88.66675 403.29999,88.66666C402.39999,88.66658 401.53333,88.44608 400.89999,88.092C400.03873,87.6105 399.06284,87.41585 398.2045,87.67117C397.44186,87.89801 397.30511,88.98835 397.50134,89.86533C397.68192,90.67238 398.3739,91.39226 399.11066,91.656C399.94803,91.95576 400.89999,91.66666 401.79999,91.66666C402.70001,91.66666 403.60001,91.66666 404.5,91.66666C405.29999,91.66666 406.20001,91.66666 407.10001,91.66666C408,91.66666 408.89999,91.66666 409.79999,91.66666C410.70001,91.66666 411.59982,91.66666 412.47467,91.66666C413.30133,91.66666 414.13599,91.66666 415.14816,91.66666C415.93066,91.66666 416.85718,91.66666 417.79999,91.66666C418.69867,91.66666 419.58401,91.66666 420.5,91.66666C421.29999,91.66666 421.8653,91.46423 421.52084,92.1875C421.14273,92.98147 421.5,93.96217 421.5,94.88834C421.5,95.83334 421.5,96.492 421.5,97.5C421.5,98.36217 421.84305,99.34525 421.47916,100.14584C421.12769,100.91906 420.50226,101.37116 420.5,102.26667C420.49774,103.16666 420.5,104.06667 420.5,104.96667C420.5,105.868 420.5,106.83334 420.5,107.66666C420.5,108.64516 420.3082,109.39059 420.53601,110.26667C420.75873,111.12308 421.75363,111.45569 422.60001,111.888C423.25531,112.22273 424.24561,112.6063 424.49551,113.37117C424.78757,114.26502 425.44775,114.30378 426.14734,114.72383C426.80215,115.117 427.18921,116.08856 427.44284,116.97117C427.72409,117.94984 427.2735,118.88835 428.06799,119.49734C428.67001,119.95879 429.32629,120.29785 429.52084,121.16666C429.71008,122.01183 430.43912,122.76055 430.5,123.66666C430.55362,124.46487 430.31628,125.39317 430.53601,126.26667C430.75305,127.12949 431.45728,127.86327 431.5,128.66667C431.54248,129.46553 431.57913,130.35519 432,131.1875C432.39966,131.97783 432.49466,132.87729 432.5,133.8665C432.50421,134.64581 432.5,135.64517 432.5,136.36217C432.5,137.26666 432.5,138.16667 432.5,139.06667C432.5,139.96666 432.5,140.86667 432.5,141.76666C432.5,142.66667 432.5,143.46666 432.5,144.36667C432.5,145.26666 432.5,146.16667 432.5,147.06667C432.5,147.96666 432.5,148.86667 432.5,149.76649C432.5,150.692 432.5,151.468 432.5,152.36667C432.5,153.26666 432.5,154.16667 432.5,155.06667C432.5,155.97116 432.60565,156.99979 432.47916,157.64583C432.29337,158.5947 431.14996,158.535 430.39999,158.888C429.62448,159.25304 428.88196,159.65778 428.10001,160.092C427.27951,160.54762 426.37201,160.85532 425.79999,161.37117C425.07278,162.02696 424.82672,162.89445 424.27866,163.54533C423.72104,164.20758 423.64981,164.87926 423.49985,165.76649C423.35583,166.61853 422.51553,167.08318 422,167.66667C421.43643,168.30453 420.85089,168.78914 420.41599,169.468C419.89297,170.28441 418.95828,170.55118 418.26001,170.64133C417.35428,170.75826 416.40448,171.13806 415.85266,171.71933C415.20712,172.39934 414.52478,172.46094 413.89999,172.092C413.05106,171.5907 412.85333,170.83778 412.33334,170C411.96735,169.41031 411.04626,168.8335 410.78534,168.14934C410.42987,167.21729 410.24918,166.22951 410.50449,165.37117C410.73132,164.60852 411.8548,164.74545 412.47467,164.24133C413.08975,163.74112 413.70712,163.13359 414.59982,162.78816C415.44977,162.45927 416.07486,162.01053 416.91068,161.692C417.79214,161.35608 418.79352,161.54233 419.42801,160.692C419.87125,160.09798 420.01556,159.16151 420.70001,158.46666C421.19623,157.96289 422.00549,157.33203 422.41599,156.46666C422.77527,155.70921 423.13687,154.96196 423.5,154.16667C423.91348,153.26115 424.35013,152.56238 424.5,151.66667C424.64023,150.82848 425.45728,150.38431 425.5,149.46666C425.54184,148.56764 425.1629,147.51778 425.66666,146.83333C426.14728,146.18031 426.5,145.56667 426.5,144.66667C426.5,143.86667 426.5,142.96666 426.5,142.06667C426.5,141.16667 426.49933,140.26666 426.5,139.36667C426.50067,138.46666 426.80084,137.61583 427.14734,136.96666C427.60068,136.11729 427.5,135.16667 427.5,134.26666C427.5,133.36667 427.5,132.46666 427.5,131.56667C427.5,130.66667 427.5,129.86667 427.5,128.952C427.5,128.056 427.80475,127.10891 427.48932,126.27734C427.21274,125.54818 426.07129,125.44994 425.20001,125.67567C424.31918,125.90386 423.9361,126.65641 423.62134,127.64533C423.38074,128.40128 423.15268,129.32851 422.7955,130.07117C422.4104,130.87184 422.0076,131.68489 421.61465,132.26666C421.05643,133.09314 420.24878,133.75636 419.74283,134.64517C419.36002,135.31764 419.01996,136.0464 418.5,136.83333C418.07312,137.47939 417.70547,138.25293 417.55716,139.25766C417.43448,140.08884 416.78351,140.56116 416.51068,141.27733C416.19388,142.10893 416.03406,142.90274 415.62134,143.76666C415.21402,144.61932 414.73883,145.20433 414.52084,146.16667C414.32196,147.04466 414.63165,148.01672 414.27866,148.76666C413.9136,149.54218 413.50534,150.26662 413.5,151.16667C413.4946,152.07732 413.66513,153.01216 413.46399,153.80533C413.24527,154.66772 412.51044,155.18733 412.5,156.16667C412.49042,157.06662 412.5,157.96666 412.5,158.868C412.5,159.552 412.5,160.492 412.5,161.5C412.5,162.36217 412.5,163.26666 412.5,164.16667C412.5,165.06667 412.5,165.868 412.5,166.83333C412.5,167.70833 412.5,168.35333 412.5,169.34933C412.5,170.14583 412.41574,171.33989 412.52084,172.14583C412.63281,173.00427 413.06131,173.64511 413.37866,174.64517C413.6344,175.45105 414.24469,176.20441 414.46399,177.06667C414.68494,177.93542 415.17322,178.48172 415.47916,179.22917C415.85056,180.13649 415.4538,180.92308 415.55716,181.66133C415.70404,182.71034 416.34583,183.43097 416.48932,184.26666C416.64163,185.15376 416.36728,186.07718 416.50449,186.96666C416.64816,187.89806 417.35501,188.43481 417.49866,189.38133C417.63309,190.26718 417.5,191.16667 417.5,192.06667C417.5,192.96666 417.53088,193.8672 417.49985,194.76733C417.47125,195.5968 417.28064,196.65236 417.14734,197.37733C417.00214,198.16707 416.83997,198.95381 416.66666,200C416.51413,200.92088 416.17386,201.70332 415.784,202.46666C415.39948,203.21956 415.55295,204.20145 415.14734,204.96666C414.69894,205.81261 414.37256,206.69778 413.88934,207.26666C413.25327,208.01549 412.67892,208.53006 412.53601,209.492C412.38779,210.48969 412.50497,211.27699 412.07468,212.06667C411.62561,212.89075 411.25787,213.62044 410.85266,214.36667C410.43936,215.12779 410.59399,216.11377 410.14734,216.96666C409.75339,217.7189 409.52792,218.46709 409.5,219.36667C409.4707,220.31078 408.64529,220.71463 408.50134,221.55333C408.33893,222.4995 408.5,223.12833 408.5,224.35201C408.5,224.90266 408.5,225.77116 408.5,226.96666C408.5,227.86667 408.5,228.46666 408.5,229.66667C408.5,230.56216 408.5,231.14583 408.5,231.98134C408.5,233.2095 408.5,233.856 408.5,234.8665C408.5,235.64583 408.5,236.78133 408.5,237.66667C408.5,238.46666 408.50058,239.36667 408.5,240.1875C408.49933,241.15067 408.55087,242.05721 408.14734,242.9095C407.76355,243.72011 407.69662,244.50121 407.44284,245.36667C407.18555,246.24411 406.62494,246.87131 406.49985,247.76666C406.3732,248.67314 405.70486,249.32036 405.52084,250.16667C405.3295,251.04666 405.04703,251.77386 404.66666,252.66667C404.34647,253.4182 404.42096,254.35524 404,255.1875C403.60028,255.97771 403.65012,256.71323 403.27866,257.64517C402.96988,258.41989 402.50842,259.28445 402.07468,260.06668C401.6199,260.88681 401.52536,261.66705 401.5,262.46667C401.47141,263.36804 400.89578,264.17215 400.66666,265C400.41949,265.89301 400.50226,266.66135 400.5,267.69733C400.49817,268.54935 400.55231,269.51144 400.41467,270.26801C400.23041,271.28085 399.73587,271.97937 399.55716,272.914C399.38416,273.81873 399.5,274.50266 399.5,275.66666C399.5,276.46667 399.5,277.26666 399.5,278.26218C399.5,279.00949 399.5,280.04132 399.5,280.83334C399.5,281.66666 399.53809,282.64606 399.5,283.46533C399.45728,284.38431 398.64139,284.89114 398.49985,285.76666C398.35379,286.6702 397.75522,287.20438 397.53601,288.06668C397.31406,288.93982 397.11392,289.80502 396.784,290.46667C396.36343,291.31003 396.26395,292.11951 395.784,292.75067C395.21616,293.49744 394.7551,294.21426 394.53601,295.06668C394.31174,295.93921 394.16312,296.69791 393.784,297.46667C393.36719,298.31189 393.8418,299.34467 393.47916,300.14584C393.16864,300.83182 391.78833,300.56302 391.51068,301.27734C391.16489,302.16696 391.02487,302.86682 390.33334,303.5C389.73529,304.04758 389.07541,304.47925 388.30133,304.95065C387.58441,305.38724 386.88934,305.66666 386,305.66666C385.10001,305.66666 384.14337,305.80322 383.29999,305.38266C382.63837,305.05273 381.64465,304.61826 381.5,303.75067C381.37033,302.9729 381.5,302.06668 381.5,301.16666C381.5,300.26666 381.5,299.36667 381.5,298.46667C381.5,297.5665 381.5,296.78134 381.5,295.83066C381.5,295.06534 381.49945,294.06668 381.5,293.26666C381.50067,292.26532 381.49042,291.42313 381.66666,290.5C381.81833,289.70557 382.08841,288.88354 382.5,287.83334C382.78046,287.11777 383.1413,286.49823 383.37866,285.46667C383.56012,284.67813 383.62558,283.65164 383.936,282.86667C384.2594,282.04883 384.74875,281.28769 385.064,280.46667C385.43979,279.48801 385.42429,278.85815 385.58401,278.06668C385.78885,277.0517 386.23019,276.28525 386.41467,275.26801C386.55188,274.51135 386.5,273.55066 386.5,272.5C386.5,271.84134 386.5,270.83334 386.5,269.97116C386.5,269.06668 386.5,268.16666 386.5,267.26666C386.5,266.36667 386.5,265.46667 386.5,264.5665C386.5,263.78134 386.5,262.84134 386.5,262.15067C386.5,261.04132 386.5,260.18134 386.5,259.45599C386.5,258.46683 386.5,257.50266 386.5,256.55066C386.5,255.78267 386.5,254.84134 386.5,254.15067C386.5,253.07733 386.49991,252.16667 386.5,251.256C386.50009,250.34534 386.36099,249.61974 386.72134,248.68817C387.02225,247.91032 387.48956,247.146 387.5,246.18266C387.50934,245.31938 387.5,244.41933 387.5,243.5C387.5,242.64583 387.5,241.66667 387.5,240.86667C387.5,240.06667 387.5,239.06667 387.5,238.26666C387.5,237.26666 387.5,236.46666 387.5,235.46666C387.5,234.66667 387.46487,233.66542 387.51068,232.87733C387.55298,232.14938 388.12817,231.21436 388.37851,230.34534C388.6167,229.51846 388.49564,228.55066 388.5,227.78267C388.50534,226.84129 388.6615,225.83064 389,225.1875C389.43622,224.35866 389.5,223.5 389.5,222.6875C389.5,221.6875 389.5,220.905 389.5,220.01849C389.5,219 389.5,218.14583 389.5,217.26666C389.5,216.37117 389.5,215.44516 389.5,214.56667C389.5,213.66667 389.5,212.86667 389.5,211.96666C389.5,211.06667 389.5,210.16667 389.5,209.27733C389.5,208.30949 389.5,207.46666 389.5,206.56667C389.5,205.66667 389.47275,204.86626 389.5,203.96666C389.52859,203.02254 390.21622,202.78334 391.13599,202.63066C392.00922,202.4857 392.70999,202.05464 393.69983,201.56683C394.28894,201.27652 395.35687,200.90948 396.08932,200.64133C396.9472,200.32724 397.66882,199.84384 398.5,199.66667C399.4812,199.45753 400.0946,199.06139 400.79999,198.36667C401.30377,197.8705 401.96292,197.11746 402.79999,196.71933C403.66663,196.30713 404.32184,195.76538 405.11066,195.66667C406.05728,195.54822 406.50089,194.87589 407.30133,194.668C408.11777,194.45596 408.68539,193.90883 409.5,193.66667C410.36032,193.41092 410.19806,192.4733 410.85718,191.7765C411.49649,191.10066 412.45602,191.21236 413.21466,190.58267C413.93991,189.98068 414.46033,189.43637 415.20001,189.01933C415.94501,188.5993 416.49734,187.84866 415.69867,187.668C414.82214,187.46973 413.89999,187.66667 413,187.66667C412.10001,187.66667 411.14996,187.79834 410.39999,187.44533C409.62448,187.08029 408.70651,187.02365 407.936,186.63066C407.2388,186.27507 406.49484,186.03203 405.784,185.58133C405.04648,185.11372 404.36597,184.81317 403.70001,184.58133C402.81433,184.27299 402.10056,183.68468 401.20001,183.66667C400.30151,183.64871 399.33334,183.66728 398.5,183.66667C397.58401,183.666 397.05875,182.98026 396.20001,182.72383C395.33716,182.46619 394.33334,182.66667 393.5,182.66667C392.70001,182.66667 391.69562,183.04446 390.85718,182.6095C390.10855,182.22112 389.47934,181.67709 388.52151,181.66667C387.70139,181.65776 386.85718,181.66667 385.88934,181.66667C385.02084,181.66667 384.07101,181.82291 383.30133,181.38266C382.5173,180.93422 381.7955,180.66667 380.89999,180.66667C380,180.66667 379.10001,180.66734 378.20001,180.66667C377.30133,180.666 376.76212,180.05644 376.064,179.70267C375.29266,179.31178 374.29999,179.66667 373.39999,179.66667C372.5,179.66667 371.97705,179.4176 371.33334,178.83333C370.70407,178.26215 369.5636,179.06941 368.78534,178.58133C368.04492,178.11699 367.49915,177.70387 366.70001,177.66667C365.78235,177.62395 365.28467,176.60497 364.40018,176.66684C363.59262,176.72333 363.5,177.76666 363.5,178.66667C363.5,179.58267 363.48328,180.37132 363.5,181.26666C363.51801,182.23117 364.29254,182.6671 364.49866,183.468C364.72311,184.34015 365.18265,185.09009 365.44284,185.96666C365.67102,186.7354 365.879,187.47589 366.46399,188.092C366.94424,188.59782 367.56024,189.10754 368.07468,189.692C368.62338,190.31543 369.18552,191.08923 369.44284,191.96666C369.69629,192.83084 369.99841,193.42943 370.41599,194.23466C370.75638,194.89107 371.18896,195.64003 371.70001,196.23601C372.30447,196.94092 372.6817,197.79761 373.20001,198.36217C373.87677,199.09933 374.50687,199.82921 374.89999,200.492C375.30716,201.17847 375.93661,202.00134 376.37866,202.76649C376.83453,203.55556 377.31393,204.09053 377.78534,204.86667C378.19617,205.54303 379.01968,206.11388 379.7955,206.614C380.49353,207.064 380.90732,207.75903 381.55267,208.314C382.13467,208.81445 382.92236,209.35286 383.79999,209.6095C384.66559,209.86263 385.60001,209.66667 386.5,209.66667L387.29999,209.66667" id="svg_1" stroke-width="3" stroke="#000" fill="none"/>
  <path t="20298,20523,20523,20543,20558,20576,20592,20592,20612,20627,20645,20645,20663,20679,20679,20696,20714,20714,20732,20750,20767,20785,20805,20805,20822,20823,20837,20856,20873,20891,20891,20906,20922,20922,20942,20942,20960,20960,20976,20977,20993,20994,20994,21010,21027,21027,21046,21046,21063,21063,21080,21097,21114,21114,21140,21172,21196,21228,21260,21278,21308,21340,21340,21372,21389,21407,21430,21447,21464,21464,21481,21498,21498,21515,21515,21531,21548,21548,21548,21565,21583,21583,21603,21618,21631,21631,21648,21648,21683,21700,21700,21717,21735,21735,21753,21753,21770,21770,21787,21787,21804,21822,21839,21839,21857,21857,21875,21894,21911,21930,21930,21945,21945,21961,21979,21979,21996,22013,22030,22030,22047,22065,22097,22129,22168,22280,22280,22297,22331,22348,22365,22383,22383,22400,22400,22417,22434,22434,22451,22451,22469,22491,22504,22504,22560,22694,22712,22730,22747,22764,22781,22782,22799,22818,22818,22834,22852,22869,22885,22902,22925,22926,22951,22968,22968,22985,23002,23016,23040,23040,23051,23051,23077,23094,23118,23135,23152,23169,23186,23202,23203,23219,23220,23236,23236,23253,23270,23270,23288,23288,23305,23323,23324,23340,23357,23357,23375,23375,23392,23409,23427,23444,23444,23461,23486,23486,23545,23563,23580,23580,23580,23597,23645,23662,23680,23680,23697,23715,23732,23732,23748,23766,23784,23803,23820,23820,23845,23871,23887,23918,23942,23989,23990,24006,24024,24024,24041,24041,24059,24076,24076,24094,24111,24129,24146,24146,24164,24180,24180,24196,24214,24214,24232,24249,24285,24318,24318,24349,24374,24406,24462" d="M361.5,186.66667C361.5,188.3765 361.5,189.18401 361.5,190.03067C361.5,190.96666 361.5,191.868 361.5,192.83333C361.5,193.64583 361.5,194.55684 361.5,195.42833C361.5,196.31934 361.5,197.18266 361.5,198.04134C361.5,198.98801 361.5,199.84134 361.5,200.78133C361.5,201.66667 361.5,202.46666 361.5,203.36667C361.5,204.26666 361.49994,205.16667 361.5,206.07733C361.50009,206.98801 361.39594,207.89 361.784,208.78133C362.10693,209.52309 362.48401,210.26674 362.5,211.16667C362.51602,212.06677 363.10126,212.8222 363.64932,213.26666C364.43845,213.9066 364.49615,214.86801 364.5,215.552C364.50534,216.50272 364.51428,217.29012 364.85718,218.26666C365.14612,219.08955 365.64124,219.84831 365.97916,220.66667C366.38403,221.64725 366.39279,222.47316 366.58401,223.18134C366.8252,224.0746 367.36325,224.99094 367.5,225.66667C367.69904,226.65012 368.2254,227.39697 368.44733,228.31934C368.61169,229.00246 369.04105,229.81937 369.37851,230.76666C369.68329,231.62218 369.5,232.46666 369.5,233.36667C369.5,234.26666 369.5,235.16667 369.5,236.06667C369.5,236.96666 369.5,237.86667 369.5,238.76666C369.5,239.66667 369.5,240.46666 369.5,241.36667C369.5,242.26666 369.50223,243.16667 369.5,244.06667C369.49774,244.96667 369.30695,245.7907 368.7955,246.36667C368.14529,247.09894 367.62387,247.87903 367.41599,248.552C367.11975,249.51103 366.71552,250.19466 366.10001,251.04134C365.51575,251.84502 365.12509,252.50716 364.70001,253.18266C364.23151,253.9272 363.71194,254.7999 363.41599,255.46666C363.03522,256.32443 362.53705,257.07736 362.49985,257.98801C362.46497,258.84137 362.25824,259.81281 361.784,260.38C361.12955,261.16272 360.73318,261.84988 360.5,262.64584C360.22415,263.58734 359.55164,264.23434 359.51068,264.888C359.44949,265.86462 359.55115,266.83209 359.49866,267.78265C359.45605,268.55408 359.09763,269.30005 358.784,270.18268C358.48816,271.0152 358.51077,271.97122 358.5,272.83334C358.48956,273.66684 358.22565,274.61621 357.85266,275.36215C357.46347,276.14053 357.63254,277.07715 357.49551,277.96667C357.35184,278.89935 356.69727,279.53152 356.55716,280.31934C356.40567,281.17111 356.5,282.16666 356.5,283.15067C356.5,283.84134 356.5,284.90952 356.5,285.76666C356.5,286.66666 356.3757,287.44409 355.92532,288.26666C355.49805,289.04706 355.5,289.96667 355.5,290.86533C355.5,291.75067 355.4628,292.66751 355.5,293.46667C355.54272,294.38434 356.1799,294.9505 356.784,295.58267C357.33435,296.15863 357.88913,296.81198 358.216,297.552C358.60992,298.44382 358.48544,299.23264 359.02084,300.16666C359.42914,300.87894 360.04398,301.642 360.33334,302.5C360.58261,303.23911 361.01743,304.01703 361.41599,304.86667C361.81961,305.72708 361.56747,307.34723 362.48932,307.23065C362.57413,307.21994 362.5,306.26666 362.5,305.36667C362.5,304.46667 362.5,303.56668 362.5,302.66666C362.5,301.78134 362.22037,300.66895 362.83334,300C363.33075,299.45715 364.44272,299.31531 364.5,298.46667C364.56061,297.56888 364.63138,296.74689 365.07468,296.01999C365.54547,295.24802 365.44659,294.27649 365.85266,293.42383C366.23828,292.61411 366.31265,291.83478 366.55716,290.96667C366.77158,290.20538 367.30692,289.42194 367.72134,288.5665C368.06274,287.86185 368.4646,287.01514 368.49866,286.15067C368.53204,285.30325 369.00684,284.45053 369.33334,283.66666C369.67722,282.84106 370.18646,282.22543 370.44284,281.36667C370.70081,280.50256 370.49557,279.5665 370.5,278.78134C370.50534,277.83063 370.52966,277.04868 370.85266,276.07117C371.10471,275.30838 371.41354,274.4216 371.50134,273.46533C371.56436,272.77908 371.9733,271.85962 372.216,271.15067C372.54593,270.18698 372.5,269.18268 372.5,268.492C372.5,267.41934 372.43835,266.49615 372.52084,265.66666C372.60455,264.82483 373.24686,264.13937 373.46399,263.26666C373.68146,262.39261 373.33633,261.40939 373.72134,260.56668C374.02713,259.89737 374.49466,259.03073 374.5,258.18399C374.5051,257.37653 374.4231,256.37799 374.50134,255.46533C374.58502,254.48953 374.97461,253.86006 375.216,253.15067C375.56158,252.13512 376.04507,251.4135 376.37851,250.56667C376.71121,249.72165 376.55545,248.96571 377,248.16667C377.44562,247.36571 377.8674,246.51866 378.216,245.86667C378.66907,245.01927 379.18555,244.24411 379.44284,243.36667C379.69662,242.50121 379.74213,241.71291 380.14734,240.96666C380.56061,240.20555 380.56696,239.3231 381.07468,238.64133C381.55188,238.00052 381.41446,237.07657 381.72134,236.22383C381.99979,235.45013 382.28882,234.50565 382.66666,233.66667C382.97696,232.97769 383.34479,232.16833 383.55267,231.31934C383.77728,230.40202 384.24222,229.63219 384.58401,228.86667C384.91599,228.12314 385.48199,227.2672 385.5,226.36667C385.51804,225.46552 385.5,224.78133 385.5,223.84134C385.5,222.83333 385.5,221.97116 385.5,221.14583C385.5,220.18266 385.5,219.31934 385.5,218.42383C385.5,217.46666 385.5,216.56667 385.5,215.66667C385.5,214.86667 385.5,213.96666 385.5,213.06667L385.5,212.1875L385.5,211.30949" id="svg_2" stroke-width="3" stroke="#000" fill="none"/>
  <path t="25593,25913,25913,25913,25930,25930,25948,25948,25948,25948,25965,25966,25966,25982,25982,25999,26038,26064,26064,26081,26116,26134,26134,26150,26168,26185,26202,26202,26220,26220,26238,26254,26255,26272,26290,26291,26308,26327,26327,26343,26344,26344,26360,26360,26360,26360,26377,26377,26394,26411,26428,26428,26448,26472,26551,26578,26595,26617,26633,26664,26664,26696,26735,26927,26961,26979,26979,26996,26997,27013,27030,27046,27047,27063,27081,27098,27116,27116,27134,27151,27168,27168,27185,27185,27202,27219,27219,27237,27254,27273,27273,27290,27325,27343,27343,27360,27378,27396,27413,27413,27433,27467,27489,27506,27530,27553,27570,27571,27593,27627,27645,27664,27664,27681,27681,27697,27697,27715,27731,27748,27748,27766,27783,27783,27800,27800,27817,27817,27835,27852,27853,27869,27887,27887,27904,27922,27938,27976,28024,28064,28296,28316,28333,28346,28363,28380,28397,28397,28397,28415,28415,28432,28432,28450,28450,28467,28484,28502,28527,28527,28550,28591,28622,28647,28664,28664,28695,28727,28744,28763,28780,28797,28813,28830,28847,28864,28864,28880,28881,28898,28914,28915,28932,28949,28967,29008,29031,29031,29055,29095,29095,29129,29151,29151,29168,29185,29185,29203,29203,29220,29221,29237,29237,29254,29275,29275,29293,29310,29328,29345,29362,29398,29398,29415,29415,29433,29450,29469,29485,29503,29519,29519,29535,29553,29553,29570,29587,29623,29643,29643,29669,29686,29703,29720,29737,29752,29771,29827,29846,29863,29880,29898,29915,29950,29972,29987,30020,30037,30083,30116,30140,30164,30211,30275" d="M368.5,175.66667C368.5,172.714 368.49704,172.16667 368.5,171.35066C368.50452,170.11481 368.50983,169.38824 368.83334,168.33333C369.03186,167.68597 369.35333,167.01225 369.68533,166.31734C370.31821,164.99266 370.59631,164.42894 370.97916,163.72917C371.4765,162.82008 372.10501,162.09683 372.47467,161.26666C372.82358,160.48311 373.39066,159.67752 373.49551,158.96666C373.63342,158.03194 374.41626,157.51236 374.5,156.66667C374.57883,155.87056 374.55545,154.96571 375,154.16667C375.44562,153.36571 375.80887,152.61559 376.14734,151.9095C376.55496,151.05916 376.49933,150.15067 376.5,149.16667C376.50055,148.34534 376.41403,147.48795 376.50134,146.552C376.58499,145.65526 377.30078,145.01303 377.47916,144.14583C377.6738,143.1996 377.5,142.42 377.5,141.5C377.5,140.7095 377.5,139.856 377.5,138.66667C377.5,138.06799 377.5,137.1875 377.5,136.35201C377.5,135.35333 377.5,134.51334 377.5,133.42383C377.5,132.56667 377.5,131.66667 377.5,130.86667C377.5,129.96666 377.5,129.02383 377.5,128.14583C377.5,127.26667 377.5,126.36667 377.5,125.46667C377.5,124.56667 377.5,123.66666 377.5,122.86667C377.5,121.96667 378.42801,120.13866 377.5,120.13866C376.87201,120.13866 377.5,121.66666 377.5,122.42384C377.5,123.31934 377.50558,124.18269 377.5,125.14584C377.49466,126.06671 377.11194,126.81245 376.784,127.552C376.39294,128.43385 376.11722,129.2543 375.62134,129.88817C375.04031,130.63087 374.70108,131.32291 374.51068,132.26666C374.33258,133.14944 374.11905,133.95372 373.69867,134.552C373.17395,135.29878 372.80994,136.1906 372.52533,137.03067C372.23917,137.87537 371.61008,138.39061 371.02084,139.16667C370.46033,139.90491 370.13977,140.81856 369.784,141.46666C369.34726,142.26225 368.75662,142.87523 368.33334,143.66667C367.93289,144.41545 367.56522,145.19873 367.14734,145.96666C366.68976,146.80757 366.64981,147.69554 366.44284,148.36667C366.17871,149.22308 364.93829,149.40303 364.53601,150.10266C364.10495,150.85231 364.58212,151.87044 364.49985,152.76666C364.41617,153.67812 363.73907,154.203 363.52084,155.14583C363.32278,156.00146 363.5,156.96666 363.5,157.86934C363.5,158.63733 363.5,159.43466 363.5,160.416C363.5,161.33333 363.5,162.24533 363.5,163.16667C363.5,164.07733 363.5,164.98801 363.5,165.66667C363.5,166.78133 363.5,167.66667 363.5,168.42383C363.5,169.32384 363.5,170.07117 363.5,171.06534C363.5,172.00951 363.5,172.9095 363.5,173.868C363.5,174.552 363.5,175.492 363.5,176.5C363.5,177.36217 363.5,178.26666 363.5,179.16667C363.5,180.06667 363.5,180.96666 363.5,181.86667C363.5,182.76666 363.98911,184.0041 363.48932,184.20534C362.74942,184.50325 362.4454,182.96324 362,182.16667C361.55075,181.36324 361.35422,180.49121 361.064,179.83067C360.72287,179.05424 360.16931,178.08121 359.936,177.46666C359.564,176.48672 359.65549,175.63983 359.27866,174.68817C358.97162,173.91273 358.56522,173.13461 358.14734,172.36667C357.68976,171.52576 357.5,170.66667 357.5,169.86667C357.5,169.02383 356.88113,168.32437 356.58533,167.46666C356.29059,166.61203 356.5,165.66667 356.5,164.86667C356.5,163.96666 356.82813,162.99472 356.47916,162.1875C356.1705,161.47351 355.50226,160.96219 355.5,160.06667C355.49774,159.16667 355.5,158.26666 355.5,157.36217C355.5,156.5 355.5,155.66667 355.5,154.68817C355.5,153.868 355.5,152.9095 355.5,152.01401C355.5,151.15067 355.5,150.30267 355.5,149.36667C355.5,148.468 355.5,147.5 355.5,146.66667C355.5,145.86667 355.5,144.952 355.5,143.96133C355.5,143.23466 356.14996,142.7039 356.44733,141.95683C356.75021,141.19591 357.03912,140.34094 357.33334,139.5C357.61398,138.69785 357.7027,137.6763 358.11066,137.04134C358.67322,136.16577 359.11975,135.51103 359.41599,134.552C359.62387,133.87903 360.13931,133.05403 360.41733,132.18401C360.67001,131.39325 361.34314,131.06786 362.16666,130.5C362.85269,130.02693 363.25656,129.24286 363.85266,128.72383C364.53354,128.13098 365.05774,127.66719 365.33334,126.83334C365.61252,125.98865 366.07364,125.20359 366.44733,124.36667C366.79205,123.59467 367.32855,122.83205 367.52084,122.125C367.77762,121.18091 368.03287,120.47569 368.41733,119.552C368.79321,118.6489 369.54675,118.46764 370.16666,117.66666C370.71597,116.95688 370.936,116.23067 371.60001,115.56667C372.20001,114.96667 372.94287,114.3012 373.37866,113.56683C373.84372,112.78315 374.43643,112.30454 375,111.66666C375.5155,111.08318 376.04285,110.44106 376.72134,109.788C377.30078,109.23028 377.97372,108.9172 378.7955,108.66217C379.55859,108.42536 380.09229,107.83054 380.936,107.656C381.84351,107.46827 382.08511,106.51694 382.66666,105.83334C383.23325,105.16732 383.8559,104.69596 384.79999,104.66666C385.69824,104.63879 386.44733,104.314 386.936,103.70267L387.79999,103.66666" id="svg_3" stroke-width="3" stroke="#000" fill="none"/>
  <path t="31166,31469,31501,31501,31520,31538,31630,31662,31686,31705,31722,31821,31838,31856,31873,31873,31892,31892,31909,31909,31925,31943,31959,31975,31997,32014,32032,32054,32072,32101,32236,32261,32278,32334,32381,32437,32501,32518,32749,32766,32783,32806,33077,33096,33113,33129,33129,33146,33146,33174,33261,33261,33325,33359,33397,33445" d="M391.5,107.66666C389.66666,107.83334 389.2883,108.63839 388.92532,109.26667C388.43677,110.11233 387.72519,110.60327 387.50449,111.37117C387.25711,112.23183 387.37344,113.04839 386.85266,113.71933C386.39954,114.30311 386.51324,115.6568 387.30133,115.58C388.13773,115.4985 388.80188,114.52972 389.5,114.1875C390.31305,113.78895 391.2814,113.68813 392.14816,113.3095C392.81708,113.01731 393.44995,112.28752 394,111.66666C394.56445,111.02957 395.2045,110.614 396,110.16666C396.7955,109.71933 397.32153,108.99331 398.11066,108.67733C398.91745,108.35428 399.86447,108.00803 399.47916,107.16666C399.13132,106.4071 398.45004,105.81048 397.55267,105.66666C396.70944,105.53152 395.79993,105.656 394.89999,105.66666C394.02066,105.67709 393.51062,106.27734 393.5,107.16666C393.48926,108.06667 393.09204,108.79441 392.66666,109.66666C392.42395,110.16431 392.42151,109.34234 392.66666,108.5C392.91748,107.63822 393.21603,106.79465 393.55267,105.97117C393.90491,105.10957 394.71878,104.6559 395.14282,103.96667C395.64816,103.14527 395.5,102.16666 395.5,101.26667L395.5,100.36667" id="svg_4" stroke-width="3" stroke="#000" fill="none"/>
  <path t="34439,34751,34751,34783,34815,34894,34934,34967,34967,35006,35039,35071,35095,35142,35214,35231,35249,35279,35526,35543,35569,35585,35601,35624,35655,35687,35704,35766,35792" d="M398.5,99.66666C399.33334,101 399.20184,102.1089 399.936,102.59467C400.6553,103.07059 401.7215,102.66666 402.60001,102.66666C403.5,102.66666 404.29999,102.66666 405.20001,102.66666C406.10001,102.66666 407,102.66666 407.89999,102.66666C408.79999,102.66666 409.8028,102.50114 410.44733,103.01933C411.05869,103.51086 411.1452,104.36214 411.52084,105.14584C411.85791,105.84906 413.05197,105.37756 413.88934,105.67733C414.6261,105.94107 415.12769,106.66003 415.89999,107.092C416.71808,107.54958 417.44733,108.01933 417.936,108.63067L418.88934,108.67733" id="svg_5" stroke-width="3" stroke="#000" fill="none"/>
  <path t="36882,37115,37138,37169,37193,37233,37257,37273,37291,37307,37307,37325,37343,37358,37376,37394,37411,37428,37429,37446,37463,37481,37498,37515,37537,37560,37578,37601,37601,37632,37649,37681,37698,37715,37752,37769,37792,37831,37858" d="M379.5,142.66667C381.20001,142.66667 382.20001,142.66667 383.10001,142.66667C383.97916,142.66667 384.85718,142.66667 385.79999,142.66667C386.70001,142.66667 387.60001,142.66667 388.5,142.66667C389.29999,142.66667 390.20001,142.66667 391.10001,142.66667C392,142.66667 392.89999,142.66667 393.79999,142.66667C394.70001,142.66667 395.53824,142.49312 396.29999,142.752C397.18793,143.05376 397.89944,143.64867 398.79999,143.66667C399.69983,143.68466 400.60684,143.55591 401.5,143.66667C402.39923,143.77818 402.83112,144.48094 403.60001,144.888C404.35751,145.28903 405.1178,145.65826 405.89999,146.092C406.72015,146.54677 407.73212,146.42244 408.41599,146.95067C409.04349,147.43538 409.7955,147.67117 410.47467,148.092L411,148.66667L411.55267,149.314" id="svg_6" stroke-width="3" stroke="#000" fill="none"/>
  <path t="39852,39995,40057,40145,40171,40188,40206,40224,40241,40258,40258,40275,40294,40311,40328,40328,40347,40364,40395,40427,40427,40459,40491,40523,40547,40564,40582,40599,40616,40616,40633,40650,40666,40683,40701,40718,40736,40754,40754,40779,40796,40813,40831,40849,40867,40885,40908,40958,40995,41020,41038,41055,41084,41108,41132,41149,41166,41196,41235,41235,41260,41292,41403,41468,41486,41504,41522,41539,41557,41557,41574,41596,41615,41636,41648,41666,41666,41683,41699,41716,41733,41733,41750,41767,41785,41785,41803,41820,41837,41855,41872,41873,41890,41890,41907,41907,41925,41942,41959,41981,42005,42022,42039,42057,42074,42091,42108,42125,42125,42143,42161,42179,42196,42213,42233,42249,42267,42268,42283,42300" d="M125.5,112.66666C123.7,112.66666 122.87655,112.48231 122,112.6875C121.04436,112.91121 120.81746,113.89808 120.216,114.58266C119.69267,115.17833 119.63166,116.01673 119.27866,116.76667C118.91362,117.54219 118.50889,118.28471 118.07467,119.06667C117.61906,119.88714 117.19916,120.71751 116.85267,121.36667C116.39932,122.21605 116.5529,123.2014 116.14733,123.96667C115.69904,124.81256 115.50067,125.46667 115.5,126.36667C115.49934,127.26667 115.34289,128.18239 115.51067,129.06667C115.69013,130.01257 116.03202,130.86536 116.66666,131.5C117.30132,132.13464 117.99294,132.45987 118.5,133.14583C118.987,133.80466 119.81036,134.28468 120.7,134.58133C121.55747,134.86725 122.32007,134.92957 122.85267,135.6185C123.36329,136.27901 123.41138,137.09758 124.11066,137.68134C124.79371,138.25154 125.79372,138.45016 126.44733,139.01933C127.04385,139.53879 127.65925,140.21948 128.44733,140.6095C129.14799,140.95625 129.06575,141.89908 129.66667,142.5C130.26759,143.10092 131.04492,143.11699 131.78534,143.58133C132.56358,144.0694 133.60001,143.66667 134.5,143.66667C135.33333,143.66667 135.56937,144.45441 136.36133,144.63066C137.31076,144.84196 138.31946,144.25185 139.14284,144.72383C139.83072,145.11815 140.6922,146.13382 141.33333,145.5C141.93768,144.90253 141.94615,144.11909 142.41467,143.38133C142.85379,142.68987 142.32645,141.62842 142.58533,140.86667C142.88708,139.97876 143.48199,139.2672 143.5,138.36667C143.51799,137.46684 143.5,136.56667 143.5,135.66667C143.5,134.86667 143.5,133.96666 143.5,133.06667C143.5,132.14583 143.5,131.18266 143.5,130.492C143.5,129.42383 143.5,128.56667 143.5,127.66666C143.5,126.86667 143.5,125.96667 143.5,125.06667C143.5,124.16666 143.5,123.256 143.5,122.34517C143.5,121.456 143.5553,120.46339 143.47917,119.6875C143.39455,118.82512 143.03427,118.01285 142.52533,117.27734C142.06792,116.6163 141.0529,116.76068 140.2,116.314C139.44777,115.92006 138.62134,115.66666 137.7955,115.66666C136.89999,115.66666 135.987,115.80875 135.10001,115.656C134.26686,115.51252 133.5126,114.7517 132.7,114.668C131.80473,114.57578 130.89999,114.66666 130,114.66666C129.10001,114.66666 128.2,114.66666 127.3,114.66666C126.4,114.66666 125.5,114.66666 124.7,114.66666L123.8,114.66666L122.9,114.66666" id="svg_7" stroke-width="3" stroke="#000" fill="none"/>
  <path t="43281,43926,43951,43983,44022,44190" d="M137.5,131.66667C138.37833,132.44533 138.14284,131.72383 137.2,131.66667L136.3,131.66667L135.40033,131.66667" id="svg_8" stroke-width="3" stroke="#000" fill="none"/>
  <path t="44904,45214,45255,45383,45416,45448,45480,45512,45536" d="M120.5,129.66667C122.3,129.66667 123.31339,129.27327 124.064,129.70267C124.75465,130.09776 124.5,131.26666 124.5,132.16667L124.5,133.06667L124.5,133.96217" id="svg_9" stroke-width="3" stroke="#000" fill="none"/>
  <path t="46507,46649,46666,46666,46683,46683,46701,46701,46701,46718,46718,46718,46735,46751,46770,46787,46787,46804,46804,46822,46839,46839,46857,46857,46874,46874,46891,46912,46912,46930,46946,46946,46981,46981,46998,46998,47016,47033,47051,47071,47086,47103,47103,47121,47138,47138,47156,47156,47174,47174,47191,47191,47207,47207,47207,47225,47225,47225,47242,47242,47260,47260,47260,47277,47277,47277,47296,47296,47296,47313,47313,47313,47330,47330,47636,47636,47648,47649,47665,47666,47683,47684,47701,47701,47701,47719,47719,47719,47736,47736,47754,47754,47771,47771,47771,47788,47788,47806,47806,47823,47824,47841,47841,47858,47858,47875,47893,47910,47927,47927,47944,47962,47979,47979,47998,47998,48016,48016,48032,48049,48065,48065,48082,48099,48116,48116,48133,48133,48150,48151,48167,48168,48184,48184,48202,48202,48219,48237,48237,48254,48272,48272,48288,48306,48307,48330,48330,48349,48366,48386,48403,48404,48421,48438,48456,48482,48601,48618,48638,48652,48668,48669,48686,48704,48704,48721,48721,48738,48738,48738,48755,48755,48773,48773,48773,48790,48808,48808,48825,48825,48843,48860,48861,48878,48896,48913,48913,48930,48931,48948,48967,48968,48985,49001,49018,49035,49052,49052,49069,49069,49069,49088,49088,49104,49104,49121,49121,49138,49139,49155,49156,49173,49173,49190,49208,49208,49208,49225,49225,49241,49258,49259,49259,49276,49276,49293,49293,49310,49328,49328,49345,49345,49361,49362,49362,49379,49396,49397,49414,49415,49415,49432,49432,49449,49449,49466,49483,49483,49500,49500,49519,49519,49536,49536,49553,49569,49570,49586,49586,49611,49611,49646,49664,49681,49681,49698" d="M115.5,135.66667C113.74284,135.66667 112.84283,135.66667 112.0955,135.66667C111.09866,135.66667 110.264,135.66667 109.33334,135.66667C108.54733,135.66667 107.72533,135.66667 106.66666,135.66667C105.74667,135.66667 104.98664,135.65959 103.91067,135.66667C103.09995,135.67201 102.26759,136.1369 101.5,136.5C100.78741,136.83708 99.82532,136.98291 99.15266,137.37117C98.22342,137.90755 97.49477,138.48271 96.74284,138.71933C95.8406,139.00323 95.09616,139.29318 94.38667,139.86667C93.72676,140.40007 93.45457,141.43887 92.79017,141.96666C92.19788,142.43715 91.32487,143.07321 90.5,143.5C89.82735,143.84804 89.3744,144.69936 88.88934,145.26666C88.25089,146.01337 87.61195,146.39088 87.02084,147.16667C86.46141,147.90086 85.95861,148.5408 85.5,149.1875C85.00289,149.88849 84.60339,150.82448 84.52084,151.64583C84.42925,152.55699 84.61464,153.41267 84.32933,154.26933C84.04821,155.11342 83.37078,155.55914 82.83334,156.5C82.41111,157.23915 82.5,158.15334 82.5,158.91333C82.5,160.088 82.5,160.892 82.5,161.714C82.5,162.74516 82.5,163.43066 82.5,164.26534C82.5,165.27116 82.5,166.12384 82.5,167.08817C82.5,167.90266 82.5,168.77116 82.5,169.66667C82.5,170.56216 82.49322,171.43068 82.5,172.5C82.5045,173.20955 82.50692,174.11812 83.06934,175.06667C83.45231,175.71257 84.06602,176.23254 84.61333,177.06534C85.09818,177.80307 85.45606,178.77927 85.49866,179.55067C85.55116,180.50122 85.5,181.26801 85.5,182.26666C85.5,183.06667 85.5,184.06667 85.5,184.86667C85.5,185.86684 85.5,186.6875 85.5,187.35201C85.5,188.35066 85.5,189.16667 85.5,189.98267C85.5,191.2095 85.5,191.856 85.5,192.86667C85.5,193.66667 85.46812,194.66774 85.51067,195.46666C85.55339,196.269 85.88964,197.254 86.14733,198.06667C86.46021,199.05336 86.49467,199.86662 86.5,200.8665C86.50416,201.64581 86.5,202.64534 86.5,203.41933C86.5,204.31934 86.49435,205.18268 86.5,206.14583C86.50533,207.05605 87.18509,207.59908 87.44283,208.3765C87.69756,209.14481 87.39971,210.1524 87.51067,211.07733C87.622,212.0054 88.10922,212.63116 88.3785,213.64534C88.57938,214.4019 88.49066,215.31938 88.5,216.18266C88.51042,217.146 89.00051,217.88547 89.33334,218.66667C89.65352,219.4182 89.5791,220.35521 90,221.1875C90.3996,221.97768 90.49467,222.84129 90.5,223.784C90.50391,224.47649 90.46561,225.43649 90.52084,226.16667C90.60951,227.33907 91.0694,227.95096 91.3785,228.98801C91.57448,229.64551 91.32896,230.68163 91.58533,231.46533C91.88688,232.3871 92.44849,233.14784 92.48933,233.84134C92.55215,234.9077 92.5,235.76683 92.5,236.552C92.5,237.492 92.5,238.5 92.5,239.29201C92.5,240.15067 92.5,241.01401 92.5,242.03067C92.5,242.86667 92.5,243.76666 92.5,244.66667C92.5,245.46666 92.5,246.36667 92.5,247.26666C92.5,248.16667 92.16164,249.13022 92.51067,250.056C92.77541,250.75822 93.41951,249.9912 93.936,249.26666C94.49599,248.48111 95.20139,247.98973 95.5,247.14583C95.77704,246.36287 96.13786,245.51314 96.37867,244.68784C96.61649,243.8728 96.77225,242.89311 97.02084,242.14583C97.28738,241.34456 97.72057,240.36082 97.97916,239.6875C98.36655,238.67882 98.48083,237.87794 98.49866,237.15199C98.52286,236.16696 98.5,235.18134 98.5,234.45599C98.5,233.46683 98.5,232.6875 98.5,231.68817C98.5,230.66667 98.5,229.86667 98.5,228.96666C98.5,228.14583 98.5,227.18134 98.5,226.45599C98.5,225.46683 98.5,224.6875 98.5,223.68817C98.5,222.66667 98.5,221.86667 98.5,220.96666C98.5,220.06667 98.5,219.16667 98.5,218.256C98.5,217.34517 98.5,216.64583 98.5,215.66667C98.5,214.86667 98.5,214.06667 98.5,213.06667C98.5,212.26666 98.5,211.26666 98.5,210.46666C98.5,209.46666 98.5,208.66667 98.5,207.66667C98.5,206.87733 98.50173,205.83333 98.5,205.04134C98.49775,204.01401 98.51579,203.29201 98.14733,202.41933C97.74383,201.46361 97.51919,200.83125 97.50134,200.06534C97.47816,199.07144 97.5,198.15199 97.5,197.14583C97.5,196.33333 97.5,195.416 97.5,194.672C97.5,193.636 97.54539,192.78239 97.48933,191.84134C97.44802,191.14787 96.87785,190.21259 96.6215,189.34517C96.42125,188.66759 96.5,187.46666 96.5,186.66667C96.5,185.66667 96.5,184.87733 96.5,184.15199C96.5,183.16667 96.5349,182.17749 96.464,181.42C96.3774,180.49481 96.14396,179.71945 95.92533,178.92799C95.61673,177.81081 95.50533,177.05205 95.5,176.18266C95.49471,175.31935 95.58913,174.3978 95.33334,173.5C95.08741,172.63683 94.59319,171.84431 94.51067,171.04134C94.40517,170.01486 94.5,169.26216 94.5,168.26801C94.5,167.50267 94.66331,166.50468 94.33334,165.66667C94.00474,164.83218 93.53255,164.01083 93.5045,163.26216C93.46733,162.27002 93.5,161.53867 93.5,160.5C93.5,159.56667 93.5,158.66667 93.5,157.86667L93.44283,157.02383" id="svg_10" stroke-width="3" stroke="#000" fill="none"/>
  <path t="50878,50973,50992,51009,51026,51044,51061,51078,51096,51114,51114,51131,51148,51165,51188,51205,51228,51245,51262,51262,51284,51301,51318,51336,51353,51370,51387,51404,51421,51421,51444,51478,51500,51517,51540,51559,51576,51576,51593,51610,51610,51628,51628,51646,51668,51702,51702,51703,51720,51738,51754,51772,51792,51809,51826,51842,51843,51859,51876,51900,51917,51935,51935,51952,51970,51987,52005,52005,52023,52040,52059,52059,52076,52093,52110,52127,52143,52143,52160,52160,52177,52195,52195,52195,52211,52211,52229,52229,52247,52264,52281,52282,52299,52299,52317,52334,52357,52380,52405,52422,52440,52457,52475,52491,52510,52527,52528,52544,52562,52578,52611,52649,52669,52763,52797,52829,52853,52853,52870,52893,52911,52928,52946,52962,52962,52979,52979,52996,52996,53013,53031,53031,53049,53049,53067,53084,53084,53101,53102,53119,53136,53136,53153,53171,53171,53188,53206,53206,53224,53224,53241,53241,53259,53259,53276,53276,53294,53312,53312,53312,53329,53329,53346,53363,53380,53380,53396,53396,53414,53414,53430,53430,53447,53464,53464,53481,53481,53498,53516,53533,53551,53568,53568,53586,53603,53620,53620,53620,53638,53655,53655,53673,53691,53691,53708,53725,53742,53743,53760,53760,53778,53797,53797,53814,53846,53846,53865,53882,53899,53918,53936,53953,53970,53988,53988,54005,54005,54022,54039,54057,54074,54094,54112,54131,54149,54149,54166,54182,54199,54216,54232,54254,54278,54302,54326,54368,54386,54421,54439,54456,54487,54487,54504,54545,54563,54591,54615,54670" d="M134.5,152.66667C134.5,154.46666 134.5,155.36667 134.5,156.26666C134.5,157.16667 134.5,158.06667 134.5,158.96666C134.5,159.86667 134.5,160.76666 134.5,161.66667C134.5,162.46666 134.5,163.36667 134.5,164.26666C134.5,165.16667 134.5,166.06667 134.5,166.96666C134.5,167.86667 134.5,168.76666 134.5,169.66667C134.5,170.46666 134.5,171.36667 134.5,172.26666C134.5,173.16667 134.5,174.06667 134.5,174.96666C134.5,175.86667 134.5,176.76649 134.5,177.6185C134.5,178.3765 134.5,179.18401 134.5,180.22C134.5,181.10266 134.5,182.06667 134.5,182.96666C134.5,183.86667 134.53665,184.76741 134.5,185.66667C134.47139,186.36842 133.88812,187.1436 133.62134,187.98801C133.36049,188.81363 133.13298,189.73547 132.784,190.46533C132.41876,191.22917 132.63455,192.30424 132.16667,193C131.75417,193.6134 130.86513,194.09422 130.57201,195.03067C130.29158,195.92656 130.5,196.86667 130.5,197.76649C130.5,198.66667 130.5,199.468 130.5,200.42383C130.5,201.31934 130.5,202.01401 130.5,203.03067C130.5,203.96666 130.5,204.86667 130.5,205.76666C130.5,206.66667 130.5,207.46666 130.5,208.36667C130.5,209.26666 130.5,210.1875 130.5,211.15067C130.5,211.84134 130.5,212.9095 130.5,213.76666C130.5,214.66667 130.51799,215.46684 130.5,216.36667C130.48199,217.2672 129.88187,217.97699 129.58533,218.86667C129.29941,219.72447 129.54524,220.5536 129.48933,221.492C129.44801,222.18546 128.89635,223.15234 128.66667,224C128.42159,224.90453 128.51015,225.71855 128.49983,226.745C128.49304,227.42004 128.33922,228.50307 128,229.14583C127.56469,229.97067 127.51206,230.86807 127.5,231.83333C127.48958,232.66687 127.31539,233.49059 126.92533,234.256C126.517,235.05727 126.5,235.96666 126.5,236.86667C126.5,237.76649 126.5,238.692 126.5,239.468C126.5,240.36667 126.5,241.26666 126.5,242.16667C126.5,243.06667 126.63655,244.0233 126.216,244.86667C125.88607,245.52831 125.50225,246.36665 125.5,247.26666C125.49775,248.16667 125.5,249.06667 125.5,249.96666C125.5,250.86667 125.10827,252.04573 125.78533,252.58133C126.42775,253.08952 127.50086,252.70387 128.3,252.66667C129.21764,252.62395 129.62369,251.88841 130.07466,251.06667C130.50272,250.28668 130.35434,249.30528 130.78534,248.46533C131.10315,247.84595 131.78145,247.00299 132.2,246.31934C132.67783,245.53885 133.34341,244.89973 133.48933,244.03067C133.62976,243.19426 133.48343,242.22498 134.06799,241.552C134.67804,240.84967 135.39859,240.24257 135.72133,239.34534C135.96965,238.65498 136.41197,237.84447 136.4955,236.97116C136.58504,236.03493 136.49783,235.18266 136.5,234.31934C136.50226,233.42381 136.88115,232.52583 137.216,231.86667C137.61435,231.0825 137.4995,230.00951 137.5,229.26216C137.50067,228.26801 137.41296,227.46179 137.784,226.55067C138.06047,225.87175 138.46745,225.01083 138.4955,224.26216C138.53271,223.26869 138.42339,222.32021 138.5045,221.41933C138.58821,220.48956 139.03873,219.6588 139.216,219.06534C139.50787,218.08827 139.49933,217.15199 139.5,216.1875C139.50064,215.256 139.5,214.34517 139.5,213.64583C139.5,212.66667 139.5,211.87733 139.5,210.83333C139.5,210.04134 139.42117,209.00259 139.55716,208.31934C139.74207,207.39027 140.38643,206.50835 140.464,205.84134C140.58052,204.83943 140.5,203.97116 140.5,203.06667C140.5,202.16667 140.40454,201.22212 140.784,200.46666C141.21957,199.59947 141.49933,198.86667 141.5,197.96666C141.50063,197.125 141.5,196.12399 141.5,195.416C141.5,194.672 141.3913,193.47447 141.50034,192.56667C141.58624,191.85138 142.52562,191.45084 143.16667,190.66667C143.65497,190.06937 143.517,189.05727 143.92534,188.256C144.3154,187.4906 144.48958,186.66684 144.5,185.68817C144.50873,184.86804 144.45018,184.02922 144.5045,183.01849C144.54671,182.23297 145.35541,181.71008 145.5,180.95683C145.65222,180.16382 145.35449,179.17422 145.51067,178.26666C145.65404,177.4335 146.39671,176.67688 146.5,175.83333C146.59457,175.06093 147.07352,174.31572 147.37849,173.34534C147.5842,172.69081 147.5,171.68817 147.5,170.868C147.5,169.96666 147.5,169.06667 147.5,168.16667C147.5,167.26666 147.5,166.36667 147.5,165.46666C147.5,164.56667 147.5,163.66667 147.5,162.86667C147.5,161.96666 147.5,161.06667 147.5,160.16667C147.5,159.26666 147.5,158.36667 147.5,157.46666C147.5,156.56683 147.5,155.64133 147.5,154.86534C147.5,153.83333 147.2964,153.18962 146.66667,152.5C146.1199,151.90121 145.65274,151.26225 145.216,150.46666C144.86023,149.81856 144.31477,149.18103 143.66667,148.5C143.06387,147.86658 142.55267,147.314 142,146.66667L141.47467,146.056" id="svg_11" stroke-width="3" stroke="#000" fill="none"/>
  <path t="55722,55963,55981,55998,55998,56015,56015,56032,56050,56068,56086,56086,56105,56121,56138,56139,56155,56172,56188,56205,56205,56222,56239,56256,56273,56296,56331,56355,56372,56372,56389,56409,56426,56444,56461,56490,56522,56545" d="M98.5,186.66667C100.11066,186.70267 100.85552,187.22591 101.82133,187.54533C102.47589,187.76181 103.44955,187.94101 104.1955,188.314C104.97387,188.70319 105.9471,188.57266 106.8,189.01933C107.55223,189.41328 108.3,189.666 109.2,189.66667C110.136,189.66737 110.984,189.66667 111.84734,189.66667C112.74284,189.66667 113.7,189.66667 114.6,189.66667C115.5,189.66667 116.3,189.66667 117.2,189.66667C118.1,189.66667 119,189.66667 119.9,189.66667C120.7955,189.66667 121.7215,189.66667 122.6,189.66667C123.5,189.66667 124.3,189.66667 125.2,189.66667C126.1,189.66667 127,189.66667 127.9,189.66667C128.8,189.66667 129.7,189.66667 130.60001,189.66667L131.5,189.66667" id="svg_12" stroke-width="3" stroke="#000" fill="none"/>
  <path t="57445,57572,57589,57589,57607,57607,57607,57626,57626,57646,57646,57646,57659,57676,57692,57709,57726,57746,57746,57763,57763,57780,57797,57815,57832,57832,57848,57866,57866,57883,57883,57900,57917,57917,57935,57935,57953,57953,57970,57970,57987,58005,58022,58022,58040,58058,58058,58076,58092,58092,58110,58126,58145,58177,58194,58345,58401,58426,58444,58460,58460,58478,58478,58478,58495,58495,58513,58513,58513,58529,58546,58546,58563,58564,58580,58580,58598,58615,58615,58633,58649,58650,58667,58684,58684,58701,58719,58738,58738,58818,58851,58875,58922,58955,58979,58979,59014,59032,59050,59050,59067,59084,59084,59101,59119,59137,59137,59154,59180" d="M146.5,197.66667C146.5,199.42383 146.5,200.32834 146.5,201.12833C146.5,202.088 146.5,202.892 146.5,203.714C146.5,204.74516 146.5,205.64583 146.5,206.66667C146.5,207.45599 146.49294,208.18137 146.5,209.256C146.50534,210.06671 146.93286,210.91788 147.33333,211.66667C147.75661,212.45811 148.35039,213.11565 148.52533,213.85201C148.74829,214.79053 149.33621,215.43396 149.48933,216.26666C149.65221,217.15237 149.8531,217.97041 150.5,218.66667C151.0605,219.26993 151.46297,220.07738 151.50017,220.98801C151.53502,221.84138 151.84441,222.74672 152.216,223.46533C152.63205,224.26988 153.07376,225.14589 153.5,225.66667C154.17592,226.49252 154.5014,227.31612 155.20984,227.6185C155.97897,227.94679 156.83929,228.32506 157.21333,229.18401C157.61403,230.10419 157.96193,230.90305 158.33333,231.66667C158.7,232.42058 159.01556,233.17183 159.7,233.86667C160.29546,234.47118 160.88283,235.08427 161.60001,235.76649C162.18633,236.32423 163.10979,236.66129 163.55267,237.37117C163.97034,238.04062 164.30759,238.88336 164.50017,239.76649C164.68428,240.61078 165.57359,241.10506 165.5,241.96217C165.43098,242.76598 164.56621,243.04309 163.98267,243.63867C163.28561,244.3501 163.05833,245.20038 162.616,245.89867C162.08159,246.74232 161.29378,247.25375 160.5,247.66667C159.71497,248.07504 159.00113,248.49084 158.25267,248.96217C157.35138,249.52974 156.62715,249.47221 155.66667,249.83333C154.84601,250.14188 154.36964,250.95964 153.7,251.38133C152.86826,251.90512 152.21207,252.38417 151.8,253.01849C151.21686,253.91618 150.46768,254.41377 149.7,254.75067C148.9379,255.08511 148.0188,255.61469 147.32533,255.65601C146.38693,255.71193 145.3385,255.46642 144.5,255.83333C143.76465,256.15512 143.064,256.66666 142.2,256.66666C141.3,256.66666 140.20216,256.98575 139.584,256.38135C138.96202,255.77322 138.80051,254.94556 138.47917,254.14583C138.16342,253.36002 137.56664,252.57295 137.50133,251.78133C137.42403,250.84445 137.33922,249.83026 137,249.1875C136.56468,248.36266 136.49867,247.46666 136.27867,246.56667L135.85266,245.96666L135.51067,245.06667L135.5,244.16667" id="svg_13" stroke-width="3" stroke="#000" fill="none"/>
  <path t="60894,61094,61094,61111,61111,61128,61128,61146,61146,61163,61163,61163,61180,61180,61197,61214,61232,61251,61251,61268,61284,61308,61325,61325,61342,61360,61360,61378,61395,61412,61412,61429,61452,61452,61484,61508,61540,61564,61564,61581,61604" d="M154.5,253.66667C154.5,255.50267 154.5,256.26801 154.5,257.26666C154.5,258.06668 154.5,259.06668 154.5,259.86667C154.5,260.86667 154.5,261.66666 154.5,262.66666C154.5,263.46667 154.4586,264.2677 154.5045,265.26218C154.54704,266.1839 155.1172,266.94479 155.41467,267.86667C155.69229,268.72702 155.55461,269.77676 156.11067,270.23065C156.86351,270.84515 157.4211,271.34103 157.936,272.06668C158.41252,272.73825 159.14584,273.22394 159.7955,273.96667C160.37668,274.6311 160.43341,275.59174 161.02083,276.14584C161.75494,276.83832 162.71954,276.93008 163.3,277.46799C164.02544,278.14023 164.70703,278.68481 165.14284,279.36667C165.66948,280.19064 165.86589,281.17606 166.7,281.58267C167.45357,281.95004 168.14284,282.37115 168.52533,283.23065L169.14734,283.71933" id="svg_14" stroke-width="3" stroke="#000" fill="none"/>
  <path t="62359,62543,62561,62561,62578,62578,62596,62613,62630,62654,62654,62686,62718,62718,62734,62752,62769,62807,62824,62859,62876,62876,62893,62910,62910,62928,62928,62945,62962,62963,62979,62979,62996,63013,63013,63030,63053,63053,63077,63109,63134,63180,63206" d="M163.5,244.66667C163.5,246.492 163.5,247.5 163.5,248.29201C163.5,249.31934 163.5,250.01401 163.5,251.03067C163.5,251.96666 163.32652,252.92395 163.66667,253.66667C164.03424,254.46925 164.8109,254.95593 165.5,255.66667C166.0732,256.25787 166.47581,257.05502 167,257.66666C167.55389,258.31296 168.44147,258.31442 169.14734,258.72385C169.95515,259.19241 170.61528,259.7171 171.064,260.27734C171.69489,261.06503 171.7346,261.98264 172.07466,262.84134C172.39108,263.64035 172.50935,264.51971 173.11067,265.26666C173.63809,265.92178 174.2681,266.53882 174.47467,267.492C174.62279,268.17542 175.12029,269.12128 175.37849,269.98801C175.57439,270.64554 175.32352,271.83398 175.66667,272.66666C175.94313,273.33749 176.5,274.14584 177.07466,274.69199L177.4955,275.37115L177.5,276.26666L177.5,277.14584" id="svg_15" stroke-width="3" stroke="#000" fill="none"/>
  <path t="64472,64655,64672,64672,64690,64690,64707,64724,64725,64741,64741,64760,64777,64794,64794,64811,64827,64844,64862,64862,64878,64933,64966,64984,65007,65046,65063,65102" d="M116.5,214.66667C116.5,216.42383 116.5,217.32384 116.5,218.07117C116.5,219.06534 116.5,220.00951 116.5,220.914C116.5,221.83333 116.36642,222.71152 116.72134,223.64517C116.97208,224.30478 117.57945,225.0769 118.07467,225.728C118.52747,226.32332 118.54279,227.2029 119,228.14583C119.40692,228.98505 119.34647,229.91513 119.66666,230.66667C119.99949,231.44786 120.43736,232.41936 121.2045,232.66217C122.02484,232.92183 122.55267,233.314 123.30133,233.75067L124.1,234.24133L124.88934,234.64133L125.5,235.1875" id="svg_16" stroke-width="3" stroke="#000" fill="none"/>
  <path t="65792,65985,66002,66020,66020,66020,66037,66056,66073,66091,66091,66108,66144,66176,66176,66193,66256,66319,66337,66368,66432,66471,66496,66538,66560,66596,66617,66640" d="M115.5,215.66667C115.5,217.46666 115.5,218.33867 115.5,219.20934C115.5,219.91733 115.5,220.89867 115.5,221.85234C115.5,222.86667 115.5,223.76666 115.5,224.66667C115.5,225.46666 115.1855,226.0538 114.66666,226.83333C114.19579,227.5408 114.89305,228.59708 114.41467,229.38133C113.92447,230.18495 113.18606,230.42519 112.30133,230.668C111.50774,230.8858 111.14219,231.55467 110.55267,232.01933C109.89655,232.53648 109.07467,232.67734 108.52084,233.16667L108.48933,234.092L107.92533,234.692L107.44733,235.314" id="svg_17" stroke-width="3" stroke="#000" fill="none"/>
  <path t="67858,68072,68089,68106,68123,68145,68162,68179,68201,68233,68233,68257,68305,68337,68384,68402" d="M74.5,244.66667C76.33334,244.66667 77.11066,244.66667 78.1,244.66667C79,244.66667 79.9,244.66667 80.8,244.66667C81.7,244.66667 82.6,244.66667 83.5,244.66667C84.3,244.66667 85.14283,244.72383 85.66666,245.5L86.5,245.66667L87.30133,245.66667L88.21467,245.752" id="svg_18" stroke-width="3" stroke="#000" fill="none"/>
  <path t="71197,71366,71383,71383,71401,71401,71418,71418,71434,71434,71451,71451,71451,71469,71487,71505,71522,71522,71540,71540,71557,71575,71597,71597,71627,71658,71682,71714,71738,71762,71801,71819,71857,71874,71898,71953,71978,72049" d="M84.5,210.66667C84.5,212.492 84.5,213.5 84.5,214.29201C84.5,215.32384 84.5,216.07117 84.5,217.06667C84.5,217.86667 84.5,218.86667 84.5,219.66667C84.5,220.66667 84.59811,221.47562 84.41467,222.18134C84.15054,223.19742 83.52868,223.9653 83.5,224.86667C83.47137,225.76654 83.47155,226.4883 83.216,227.43333C83.02166,228.15204 82.71907,229.17882 82.4955,230.02383C82.26838,230.88226 81.66676,231.43834 81.5045,232.36667C81.34939,233.25412 80.88197,233.97704 80.58533,234.86667C80.29942,235.72414 80.20378,236.44679 79.55267,237.01933C78.91347,237.58139 78.82902,238.35028 78.47916,239.14583C78.16604,239.85786 77.5045,240.37117 77.44283,241.30949L76.66666,241.83333" id="svg_19" stroke-width="3" stroke="#000" fill="none"/>
  <path t="72841,73001,73018,73018,73035,73053,73079,73096,73113,73132,73133,73150,73150,73166,73183,73201,73217,73217,73234,73234,73251,73251,73268,73268,73285,73285,73303,73303,73321,73321,73338,73355,73355,73372,73389,73406,73424,73424,73441,73471,73503" d="M75.5,245.66667C75.5,247.42383 75.5,248.31934 75.5,249.18266C75.5,250.14583 75.5,251.06667 75.5,251.96666C75.5,252.86667 75.5,253.76666 75.5,254.66667C75.5,255.42383 75.5,256.31934 75.5,257.18268C75.5,258.14584 75.5,259.06668 75.5,259.86801C75.5,260.83334 75.5,261.66666 75.5,262.64532C75.5,263.41934 75.5,264.32382 75.5,265.07117C75.5,266.06668 75.5,266.86667 75.5,267.86649C75.5,268.64584 75.5,269.64532 75.5,270.55066C75.5,271.492 75.5,272.18268 75.5,273.16666C75.5,274.15067 75.5,274.84134 75.5,275.90952C75.5,276.86667 75.5,277.76666 75.5,278.66666C75.5,279.46667 75.5,280.36667 75.5,281.26666L75.5,282.16666" id="svg_20" stroke-width="3" stroke="#000" fill="none"/>
  <path t="75773,75996,76012,76012,76029,76049,76089,76121,76153,76171,76216,76280,76297,76344,76361,76385,76417,76435,76452,76474,76492,76509,76525,76525,76542,76560,76576,76593,76627,76644,76644,76664,76682,76682,76699,76730,76754,76794,76826,76843,76860" d="M87.5,247.66667C87.5,249.42383 87.5,250.31934 87.5,251.18266C87.5,252.14583 87.5,253.056 87.5,253.952C87.5,254.86667 87.24139,255.8933 87.72134,256.54532C88.23532,257.24359 88.97371,257.41614 89.7955,257.67117C90.55859,257.90799 91.2748,258.60327 91.4955,259.37115C91.74287,260.23184 91.5,261.16666 91.5,262.06668C91.5,262.96667 91.5,263.86667 91.5,264.76666C91.5,265.66666 91.5,266.46667 91.5,267.36667C91.5,268.26666 91.72752,269.19626 91.5,270.056C91.3176,270.74527 90.55499,271.23346 90.5045,272.01849C90.43951,273.0289 90.07909,273.80145 89.35067,274.23065C88.54304,274.70651 87.75173,275.21259 87.536,276.056C87.29601,276.99429 87.5,277.86667 87.49983,278.76651L87.216,279.58267" id="svg_21" stroke-width="3" stroke="#000" fill="none"/>
  <path t="78130,78406,78424,78441,78463,78481,78498,78527,78544,78599,78617,78639,78657,78694,78728,78776,78830,78856,78873,78919,78966,79015,79048,79066,79082,79112,79151,79184,79216,79248,79280,79312,79312,79329,79360,79360,79384,79432,79464,79496,79535,79535,79591,79647,79703,79751,79751,79768,79793,79810,79834,79888,79905,80072" d="M92.5,250.66667C92.5,252.46666 92.56553,253.29568 93.30133,253.75067C93.9872,254.17477 94.46552,255.064 95,255.66667C95.5166,256.24918 96.04836,256.88171 96.66666,257.5C97.28497,258.11829 97.90856,258.66028 98.5,259.16666C99.09444,259.6756 100.03063,259.69931 100.52084,260.16666C101.07555,260.6955 101.88171,260.79321 102.55267,261.314C103.13644,261.76712 104.1,261.66666 105,261.66666C105.9,261.66666 106.88934,261.67734 107.5,262.16666C108.11067,262.65601 109,262.66666 109.9,262.66666C110.8,262.66666 111.7,262.66666 112.6,262.66666C113.5,262.66666 114.3,262.66666 115.136,262.66666C116.15266,262.66666 116.84734,262.66666 117.85333,262.66666C118.78533,262.66666 119.7,262.66666 120.6,262.66666C121.5,262.66666 122.30019,262.68463 123.2,262.66666C124.10054,262.64865 124.89231,262.22244 125.6,261.56683C126.19363,261.01688 127.19978,260.79718 127.48933,260.056C127.83667,259.16696 128.14734,258.61401 128.49867,257.86533L128.55716,257.02383L129.33333,256.5" id="svg_22" stroke-width="3" stroke="#000" fill="none"/>
  <path t="80690,80917,80934,80954,80970,80970,80988,81006,81022,81022,81039,81039,81056,81073,81090,81107,81131,81156,81189,81190,81220,81251,81251,81277,81354,81394,81458,81498,81523,81578,81650,81747" d="M123.5,242.66667C121.66666,242.5 121.28477,241.72755 120.4,241.66667C119.50212,241.60487 118.72134,241.5446 117.9,241.092C117.10828,240.6557 116.18149,240.43835 115.5,240.16667C114.52543,239.77815 113.8045,239.66893 112.9,239.66667C112,239.66443 111.15645,239.59972 110.47467,239.092C109.83386,238.61479 108.9099,238.75221 108.05717,238.44533C107.28346,238.16689 106.3884,237.70938 105.5,237.66667C104.70092,237.62825 103.78533,237.66667 102.88934,237.66667C102,237.66667 101.06516,237.4238 100.2045,237.67117C99.43661,237.89188 98.92533,238.692 98.44733,239.314L97.66666,239.83333" id="svg_23" stroke-width="3" stroke="#000" fill="none"/>
  <path t="82462,82789,82859,82898,82946,82946,83002,83035,83122,83163,83210,83250,83284,83322,83322,83356,83394,83434,83483,83530,83531,83587,83651,83668,83715,83763,83827,83995,84028,84060,84099,84132,84164,84164,84182,84204,84244,84277,84309,84333,84350,84368,84385,84405,84437,84454,84455,84486,84503,84521,84549,84573" d="M104.5,247.66667C103.416,249.38133 102.56089,249.8819 102.5,250.76666C102.4382,251.66455 102.5,252.46666 102.5,253.36667C102.5,254.23067 103.02084,254.66667 103.9,254.66667C104.8,254.66667 105.7,254.66667 106.6,254.66667C107.5,254.66667 108.30019,254.64868 109.2,254.66667C110.10054,254.68468 110.84574,255.19409 111.7,255.58267C112.46311,255.92979 113.1526,256.46686 114,256.64584C114.88081,256.83188 115.81136,256.64935 116.5,257.16666C117.12568,257.63666 118.05775,257.97144 118.88934,257.65601C119.61849,257.37943 119.50066,256.26666 119.5,255.36667C119.49933,254.46666 119.38218,253.45273 118.7955,253.02383C118.03603,252.46863 117.45604,251.81242 116.69867,251.668C115.81591,251.49966 114.79742,252.06488 113.936,251.63066C113.23713,251.27838 112.66418,250.86295 111.8,250.6095C110.92258,250.35217 110.15294,249.83025 109.4,249.44533C108.6368,249.05518 107.9,248.67734 106.936,248.63066L106.44733,248.01933L105.69867,247.668L104.78533,247.66667" id="svg_24" stroke-width="3" stroke="#000" fill="none"/>
  <path t="87537,87799,87902,87942,87982,88022,88062,88110,88110,88150,88214,88232,88256,88303,88343,88360,88377,88430,88431,88449,88536,88553,88594,88594,88611,88633,88665,88682,88705,88723,88753,88769,88792,88855,88873,88943,89183" d="M123.5,136.66667C123.5,138.46666 123.55759,139.30879 124.30133,139.75067C125.0004,140.16602 125.80855,140.53114 126.7,140.668C127.61577,140.80858 128.26659,141.51836 129.14284,141.66217C130.00925,141.80437 130.84355,141.73361 131.52533,142.24133C132.16614,142.71855 133.20757,142.2849 133.97917,142.70833C134.69118,143.09906 134.6152,144.4606 135.30133,144.664C136.18105,144.92479 136.99144,145.66818 136.41467,146.38133C135.81215,147.12633 134.7,146.66667 133.8,146.66667C132.89999,146.66667 132,146.66893 131.10001,146.66667C130.20448,146.66441 129.69119,146.00063 128.97917,145.6875C128.18362,145.33765 127.51067,145.092 127.48933,144.24133L126.92533,143.64133L126.5045,142.96217L126.55717,142.02383" id="svg_25" stroke-width="3" stroke="#000" fill="none"/>
  <path t="94662,94838,94838,94855,94855,94855,94875,94875,94875,94892,94892,94892,94892,94892,94908,94909,94909,94925,94925,94925,94925,94942,94942,94942,94959,94959,94959,94976,94976,94976,94976,94992,94992,94992,95010,95026,95026,95043,95043,95068,95085,95103,95121,95138,95155,95180,95198,95198,95214,95232,95249,95250,95267,95284,95302,95302,95319,95319,95336,95354,95371,95388,95388,95405,95423,95441,95460,95460,95485,95533,95557,95557,95574,95591,95610,95628" d="M32.5,282.66666C34.34667,282.66666 35.18667,282.66666 36.18533,282.66666C37.02083,282.66666 37.90133,282.66666 38.80017,282.66666C39.71067,282.66666 40.336,282.66666 41.66667,282.66666C42.384,282.66666 43.12533,282.66666 43.87467,282.66666C44.616,282.66666 46.016,282.66666 46.67467,282.66666C47.65267,282.66666 48.66667,282.66666 49.38267,282.66666C50.11467,282.66666 51.19017,282.66666 52.16667,282.66666C52.99017,282.66666 53.94817,282.66666 54.9215,282.66666C55.736,282.66666 56.6045,282.66666 57.5,282.66666C58.4,282.66666 59.3,282.66666 59.9,282.66666C61.09733,282.66666 61.95833,282.66666 62.72933,282.66666C63.69017,282.66666 64.66666,282.66666 65.5,282.66666C66.4785,282.66666 67.29867,282.66666 68.2,282.66666C69.1,282.66666 70,282.66666 70.9,282.66666C71.8,282.66666 72.7,282.66666 73.6,282.66666C74.5,282.66666 75.3,282.66666 76.2,282.66666C77.02084,282.66666 77.984,282.66666 78.84734,282.66666C79.74284,282.66666 80.70133,282.66666 81.66666,282.66666C82.32533,282.66666 83.36623,282.48117 84.1955,282.72385C85.07685,282.98178 85.69697,283.62393 86.6,283.66666C87.49899,283.70917 88.3,283.66666 89.2,283.66666C90.1,283.66666 91.02084,283.66666 91.984,283.66666C92.67467,283.66666 93.73833,283.66666 94.66666,283.66666C95.5,283.66666 96.3,283.66666 97.2,283.66666L98.1,283.66666L99,283.66666L99.9,283.66666" id="svg_26" stroke-width="3" stroke="#000" fill="none"/>
  <path t="96254,96447,96465,96486,96504,96521,96539,96539,96556,96574,96574,96591,96591,96608,96608,96626,96626,96644,96644,96661,96661,96661,96684,96684,96697,96697,96714,96714,96757" d="M156.5,288.66666C158.3,288.66666 159.2,288.66666 160.10001,288.66666C161,288.66666 161.85664,288.80322 162.7,288.38266C163.36165,288.05273 164.25716,287.66891 165.15717,287.66666C165.9045,287.66479 166.89999,287.66666 167.7,287.66666C168.7,287.66666 169.5,287.66666 170.5,287.66666C171.28934,287.66666 172.33333,287.66666 173.16133,287.66666C174.04283,287.66666 174.76134,287.66666 175.55183,287.66666C176.81467,287.66666 177.47917,287.66666 178.5,287.66666C179.28934,287.66666 180.33333,287.66666 181.08934,287.66666L182,287.66666" id="svg_27" stroke-width="3" stroke="#000" fill="none"/>
  <path t="98186,98329,98347,98347,98363,98363,98382,98382,98397,98398,98398,98414,98414,98414,98432,98432,98432,98451,98451,98451,98468,98468,98468,98468,98485,98485,98502,98502,98502,98518,98518,98518,98518,98536,98536,98552,98552,98552,98569,98569,98585,98586,98602,98603,98620,98620,98638,98655,98655,98680,98680,98766" d="M359.5,295.66666C358.68115,295.66666 357.73199,295.66666 356.75067,295.66666C355.83334,295.66666 355.02084,295.66666 354.01468,295.66666C353.28934,295.66666 352.29984,295.66666 351.47916,295.66666C350.81467,295.66666 349.81467,295.66666 348.97916,295.66666C348.09866,295.66666 346.89999,295.66666 346.29999,295.66666C345.39999,295.66666 344.20001,295.66666 343.60001,295.66666C342.70001,295.66666 341.5,295.66666 340.90134,295.66666C340.02084,295.66666 339.18533,295.66666 338.18399,295.66666C337.27466,295.66666 336.33334,295.66666 335.54285,295.66666C334.68933,295.66666 333.5,295.66666 332.90134,295.66666C332.02084,295.66666 331.18515,295.64825 330.18399,295.668C329.27417,295.68594 328.32605,295.80563 327.55182,296.02383C326.75281,296.24902 325.78281,296.59439 325.04166,297.16666C324.34625,297.70361 323.76169,298.39523 323.01599,298.86667C322.3414,299.29315 321.49307,299.73422 320.8045,300.36667C320.17725,300.94284 319.66666,301.83334 319.53601,302.492L319.5,303.5L319.5,304.36215L319.53601,305.23065" id="svg_28" stroke-width="3" stroke="#000" fill="none"/>
  <path t="99509,99703,99703,99720,99720,99720,99738,99738,99738,99738,99738,99754,99755,99755,99755,99755,99755,99772,99772,99772,99772,99772,99772,99772,99785,99786,99786,99786,99786,99803,99803,99803,99803,99803,99822,99822,99839,99840" d="M364.5,304.66666C366.50983,304.66666 367.28534,304.66666 368.33334,304.66666C369.05634,304.66666 370.06699,304.66666 371,304.66666C371.75601,304.66666 372.608,304.66666 373.53201,304.66666C374.01349,304.66666 375.5,304.66418 376.50266,304.668C377.009,304.66992 378.04181,304.68317 378.57199,304.70267C379.67102,304.74307 380.83386,304.82797 381.4425,304.88815C382.702,305.0127 383.34036,305.09985 383.97916,305.1875C384.61374,305.27457 385.84811,305.4599 387,305.66666C387.53619,305.76291 388.53,305.95996 389.4375,306.16666C390.28796,306.36038 391.49951,306.66858 392.29733,306.86533C393.07822,307.05789 393.82477,307.24655 394.52933,307.38135C395.72314,307.60974 396.4375,307.66666 397.33334,307.83334L398.08932,308.24133" id="svg_29" stroke-width="3" stroke="#000" fill="none"/>
  <path t="101316,101483,101483,101483,101501,101501,101501,101501,101501,101517,101518,101518,101518,101518,101518,101535,101535,101535,101535,101536,101536,101552,101552,101552,101552,101552,101570,101570,101570,101570,101570,101587,101587,101587,101587,101587,101605,101605,101605,101605,101622,101622,101622,101622,101640,101640,101640,101656,101656,101656,101656,101657,101674,101674,101674,101674,101697,101697,101697,101697,101697,101710,101710,101710,101728,101728,101728,101728,101728,101744,101744,101744,101744,101744,101760,101760,101760,101760,101761,101778,101778,101778,101778,101794,101795,101795,101795,101795,101812,101812,101812,101812,101812,101812,101812,101828,101828,101828,101828,101846,101846,101846,101846,101846,101846,101863,101863,101864,101864,101880,101880,101880,101880,101880,101880,101896,101897,101897,101897,101897,101914,101915,101915,101915,101915,101915,101932,101932,101932,101932,101949,101949,101949,101949,101949,101966,101966,101966,101966,101966,101966,101984,101984,101984,101984,101984,102000,102001,102001,102001,102001,102001,102001,102018,102018,102018,102018,102019,102019,102035,102036,102036,102036,102036,102036,102036,102036,102053,102053,102053,102053,102053,102053,102053,102070,102070,102070,102070,102070,102070,102071,102071,102088,102088,102088,102088,102088,102088,102088,102088,102105,102105,102105,102105,102105,102105,102105,102105,102123,102123,102123,102123,102123,102123,102140,102140,102140,102140,102140,102353,102353,102353,102353,102354,102371,102371,102371,102388,102388,102388,102388,102389,102389,102406,102406,102406,102406,102406,102406,102406,102406,102423,102423,102424,102424,102424,102424,102424,102424,102424,102441,102441,102441,102441,102441,102441,102441,102441,102441,102457,102457,102457,102458,102458,102458,102458,102458,102458,102475,102475,102475,102476,102476,102476,102476,102476,102476,102492,102492,102493,102493,102493,102493,102509,102510,102510,102510,102510,102510,102529,102529,102529,102529,102529,102529,102530,102546,102546,102546,102546,102546,102546,102547,102562,102563,102563,102563,102563,102580,102580,102580,102581,102581,102596,102596,102596,102597,102597,102597,102597,102597,102613,102614,102614,102614,102614,102614,102630,102630,102630,102631,102631,102631,102647,102648,102648,102648,102648,102648,102649,102665,102665,102665,102665,102665,102682,102683,102683,102683,102702,102702,102702,102702,102717,102717,102717,102717,102734,102734,102734,102735,102752,102752,102752,102752,102769,102769,102769,102786,102786,102786,102786,102786,102804,102804,102804,102821,102821,103017,103018,103034,103035,103052,103052,103052,103052,103052,103070,103070,103070,103070,103071,103071,103087,103087,103088,103088,103088,103109,103109,103109,103109,103109,103126,103126,103126,103142,103143,103143,103158,103158,103178,103178,103195,103213,103214,103226,103243,103243,103261,103261,103279,103297,103316" d="M11.5,102.66666C13.556,102.66666 14.5625,102.66666 15.3135,102.66666C16.5,102.66666 17.30133,102.66666 18.11067,102.66666C18.936,102.66666 19.78533,102.6673 20.66667,102.66666C21.58667,102.666 22.54676,102.65973 23.04167,102.64584C24.06191,102.61719 24.58874,102.60432 26.22117,102.44534C26.78349,102.39057 27.91471,102.24165 28.47917,102.16666C29.03871,102.09232 30.1291,101.93584 31.16667,101.83334C32.1294,101.73822 33.03847,101.69471 33.91467,101.67733C34.78254,101.66012 35.66667,101.66666 36.584,101.66666C37.52533,101.66666 38.47467,101.66666 38.94733,101.66666C40.33333,101.66666 41.21467,101.66666 42.064,101.66666C42.88933,101.66666 43.69867,101.66666 44.89983,101.66666C45.6955,101.66666 46.47917,101.66666 47.24283,101.66666C48.33333,101.66666 49.01467,101.66666 49.97917,101.66666C50.89867,101.66666 51.80017,101.66666 52.71067,101.66666C53.336,101.66666 54.66667,101.66666 55.38533,101.66666C56.136,101.66666 56.91067,101.66666 57.70133,101.66666C58.9,101.66666 59.7,101.66666 60.5,101.66666C61.3,101.66666 62.5,101.66666 63.29867,101.66666C64.08933,101.66666 64.864,101.66666 65.61467,101.66666C67.01733,101.66666 67.68533,101.66666 68.36134,101.66666C69.83334,101.66666 70.66933,101.66666 71.10983,101.66666C72.02084,101.66666 72.95184,101.66666 74.33334,101.66666C74.77866,101.66666 75.64733,101.66666 76.5,101.66666C77.35267,101.66666 78.66666,101.66666 79.58266,101.66666C80.04816,101.66666 80.97916,101.66666 81.89017,101.66666C83.16666,101.66666 83.93066,101.66666 84.63866,101.66666C85.31467,101.66666 86.66668,101.663 87.38934,101.668C88.16804,101.67339 89.01897,101.69684 89.476,101.72383C91.00127,101.8139 91.56439,101.88308 92.7535,102.01933C93.36563,102.08947 93.97892,102.16867 95.18483,102.314C95.76255,102.38363 97.31415,102.54984 97.76266,102.58134C98.58744,102.63926 99.75349,102.66441 101,102.66666C101.464,102.6675 102.458,102.66666 102.976,102.66666C104.024,102.66666 104.542,102.66666 106,102.66666C106.84666,102.66666 107.61333,102.66666 108.34,102.66666C109.83334,102.66666 110.243,102.66666 111.11433,102.66666C112.04166,102.66666 113.009,102.66666 113.50267,102.66666C115,102.66666 115.5,102.66666 116.5,102.66666C117.5,102.66666 118,102.66666 119.5,102.66666C119.99966,102.66666 120.991,102.66666 121.95834,102.66666C122.428,102.66666 123.32933,102.66666 124.55733,102.66666C125.64933,102.66666 126.35067,102.66666 127.068,102.66666C128.243,102.66666 129.11433,102.66666 130.04167,102.66666C130.52133,102.66666 131.50267,102.66666 132.5,102.66666C133.5,102.66666 134.5,102.66666 135,102.66666C136,102.66666 136.5,102.66666 138.00017,102.66666C139.0045,102.66666 139.51067,102.66666 140.536,102.66666C141.05716,102.66666 142.66667,102.66666 143.22133,102.66666C144.35266,102.66666 144.92534,102.66666 145.5,102.66666C146.64734,102.66666 147.216,102.66666 148.879,102.66666C149.41867,102.66666 150.496,102.66666 151.04167,102.66666C151.59734,102.66666 152.75467,102.66666 154,102.66666C154.664,102.66666 155.35201,102.66666 156.776,102.66666C157.5,102.66666 158.224,102.66666 158.942,102.66666C159.64799,102.66666 161,102.66666 162.248,102.66666C162.842,102.66666 163.424,102.66666 164.576,102.66666C165.158,102.66666 165.752,102.66666 167.66434,102.66666C168.35466,102.66666 169.067,102.66666 169.79733,102.66666C170.54167,102.66666 171.29601,102.66666 172.05634,102.66666C172.81866,102.66666 174.33333,102.66666 175.07851,102.66666C175.81467,102.66666 176.54283,102.66666 177.97917,102.66666C178.68933,102.66666 179.39549,102.66666 180.09866,102.66666C181.5,102.66666 182.19983,102.66827 182.89867,102.66534C184.28935,102.65951 184.97925,102.64893 185.664,102.63067C186.34293,102.61256 187.01688,102.61018 188.97816,102.44534C189.61285,102.39199 190.23413,102.31633 190.84267,102.24133C192.0179,102.0965 192.57899,101.99983 194.16667,101.83334C194.6564,101.78198 195.58574,101.72059 196.45833,101.66666C197.29108,101.6152 198.50203,101.51308 199.29733,101.38267C200.08087,101.25418 200.82561,101.07953 201.52933,100.95067C202.73094,100.73064 203.54152,100.67827 204.43866,100.668C205.58609,100.65486 206.04266,100.66666 207.05467,100.66666C207.60417,100.66666 208.77516,100.66666 209.39067,100.66666C210.66667,100.66666 211.32184,100.66666 212.66617,100.66666C213.35733,100.66666 214.0625,100.66666 214.78267,100.66666C215.51883,100.66666 216.272,100.66666 217.83333,100.66666C218.64317,100.66666 219.472,100.66666 220.31883,100.66666C221.18266,100.66666 222.0625,100.66666 222.95734,100.66666C223.86617,100.66666 224.78799,100.66666 226.66667,100.66666C227.621,100.66666 228.58133,100.66666 229.54367,100.66666C230.504,100.66666 231.45833,100.66666 232.40266,100.66666C233.33299,100.66666 234.24533,100.66649 236,100.66666C236.83549,100.66675 237.64401,100.66641 238.4285,100.67117C239.19202,100.67579 239.93758,100.68433 240.668,100.70267C241.3866,100.72071 242.09689,100.73771 243.5,100.83334C244.20001,100.88104 244.89642,100.94803 245.5865,101.02383C246.26845,101.09875 246.93796,101.18424 247.592,101.27734C248.22896,101.368 248.84544,101.45972 250,101.66666C250.53653,101.76283 251.53795,101.96458 252.47917,102.16666C252.94022,102.26565 253.86548,102.4725 254.83333,102.66666C255.8681,102.87425 256.4108,102.9662 257.52084,103.1875C258.08585,103.30014 259.22162,103.53551 260.33334,103.83334C260.88107,103.98007 261.95288,104.32074 262.48532,104.50267C263.56351,104.87108 264.10858,105.07473 264.66934,105.268C266.43848,105.87775 267.06482,106.06699 267.69632,106.26217C268.32883,106.45766 268.95804,106.64687 270.18033,107.0095C270.76117,107.18182 272.31439,107.64497 272.76132,107.78133C273.57742,108.03033 274.32663,108.26583 275.06534,108.46533C276.23923,108.78236 277.12216,108.97231 278.08334,109.16666C278.59271,109.26966 279.67252,109.47153 280.83334,109.66666C281.44241,109.76905 282.0683,109.87253 283.36133,110.056C284.02032,110.14951 284.68494,110.23407 285.35184,110.3095C286.01697,110.38473 287.97812,110.54893 288.61334,110.58134C289.23816,110.6132 290.45831,110.64778 291.05334,110.656C291.63831,110.66408 293.33334,110.66666 293.87885,110.66666C294.95184,110.66666 295.48532,110.66666 296.56134,110.66666C297.10983,110.66666 298.83334,110.66666 299.4425,110.66666C300.06668,110.66666 300.70084,110.66666 301.97916,110.66666C302.61334,110.66666 303.23749,110.66666 305,110.66666C305.53534,110.66666 306.52399,110.66666 307.41666,110.66666C307.832,110.66666 309.33334,110.66666 310.01599,110.66666C310.67465,110.66666 311.65268,110.66666 312.66666,110.66666C313.384,110.66666 314.5,110.66666 315.24734,110.66666C316.33334,110.66666 317.01523,110.64936 317.97916,110.6875C318.59607,110.71191 319.80161,110.88164 320.71066,111.092C321.33704,111.23695 321.97971,111.42686 323.384,111.58266C324.12311,111.66467 324.87634,111.67365 325.616,111.75066C326.68176,111.86163 327.67212,112.10344 328.32535,112.24133C329.66193,112.52348 330.3833,112.59344 331.12534,112.63067C331.87415,112.66823 332.616,112.666 334.01334,112.66666C334.65332,112.66697 335.53833,112.66666 336.57834,112.66666C337.45834,112.66666 338.33334,112.66666 339.12534,112.66666C340.17065,112.66666 340.81866,112.66666 342,112.66666C342.75601,112.66666 343.608,112.66666 344.0625,112.66666C345.01349,112.66666 346.5,112.66666 346.99985,112.66666C347.99551,112.66666 348.97916,112.66666 349.46399,112.66666C350.41467,112.66666 351.77866,112.66666 352.64734,112.66666C353.07468,112.66666 353.92532,112.66666 354.784,112.66666C356.12115,112.66666 357.04816,112.66666 357.51468,112.66666C358.43866,112.66666 359.33066,112.66666 360.55682,112.66666C361.28116,112.66666 362.24268,112.66666 363.33334,112.66666C364.04285,112.66666 364.89578,112.68871 365.89868,112.66534C366.66458,112.64749 367.56653,112.29484 368.29868,111.95067C369.09579,111.57597 370.15268,111.66666 370.84732,111.66666C371.87466,111.66666 372.82825,111.74502 373.67465,111.63067C374.49216,111.52023 375.1955,111.01933 376.10001,110.67733L377,110.66666L377.88934,110.66666" id="svg_30" stroke-width="3" stroke="#000" fill="none"/>
  <path t="104108,104254,104254,104254,104254,104271,104271,104271,104271,104271,104288,104288,104288,104288,104288,104288,104288,104306,104306,104306,104306,104306,104323,104323,104323,104323,104340,104340,104357,104358,104358,104375,104375,104392,104392,104392,104410,104410,104410,104428,104428,104428,104444,104444,104468,104468,104492,104509,104527,104527,104544,104544,104544,104561,104562,104578,104578,104595,104612,104630" d="M434.5,111.66666C437.47198,111.66666 438.18268,111.66666 438.95734,111.66666C439.78799,111.66666 441.12167,111.66666 442.06168,111.66666C442.54666,111.66666 443.54666,111.66666 444.06168,111.66666C445.66666,111.66666 446.22134,111.66666 447.35266,111.66666C447.92532,111.66666 448.5,111.66666 449.64734,111.66666C450.216,111.66666 451.87817,111.66666 452.41199,111.66666C453.44266,111.66666 453.9375,111.66666 454.88116,111.66666C456.16666,111.66666 456.92801,111.66666 457.9375,111.66666C458.53384,111.66666 459.81601,111.66666 460.5,111.66666C461.66666,111.66666 462.44818,111.66666 463.23868,111.66666C464.16666,111.66666 465,111.66666 466.043,111.66666C466.772,111.66666 467.60901,111.6689 468.5,111.66666C469.39551,111.66441 470.27585,111.70552 471.33334,111.5C472.05447,111.35985 472.89474,110.96062 473.69983,110.56683C474.47842,110.186 475.3222,109.75478 476.1955,109.67117C477.09589,109.58496 478.03479,109.69505 478.82166,109.44534C479.55753,109.21179 480.66422,108.81513 481.44818,108.71933C482.23666,108.62298 483.17227,108.51338 483.97916,108.16666C484.82745,107.80214 485.67465,107.67733 486.61465,107.66666L487.5,107.66666L488.37866,107.44534" id="svg_31" stroke-width="3" stroke="#000" fill="none"/>
 </g>
</svg>