<svg width="500" height="333.3333333333333" xmlns="http://www.w3.org/2000/svg" xmlns:svg="http://www.w3.org/2000/svg" xmlns:xlink="http://www.w3.org/1999/xlink">
 <!-- Created with SVG-edit - http://svg-edit.googlecode.com/ -->
 <g display="inline" class="layer">
  <title>Layer 1</title>
  <path t="0,106,115,130,143,164,178,178,194,202,202,219,226,226,240,242,268,268,274,290,315,330,354,371,395,411,419,444,450,474,485,499,533,533,548,548,556,556,572,594,594,602,610,610,644,650,650,666,675,684,684,700,706,722,738,738,754,778,778,785,802,803,810,826,849,850,868,882,890,890,1105,1114,1138,1138,1145,1154,1162,1162,1170,1177,1193,1203,1203,1217,1218,1233,1305,1337,1338,1377,1401,1417,1449,1449,1473,1489,1500,1529,1530,1554,1609,1625,1641,1657,1665,1674,1689,1945,1953,1971,1978,1985,1993,1993,2001,2009,2018,2025,2041,2161,2305,2314,2321,2329,2338,2345,2354,2354,2369,2369,2377,2377,2386,2417,2450,2473,2473,2489,2490,2499,2500,2514,2529,2545,2641,2667,2673,2683,2690,2705,2706,2729,2745,2754,2770,2785,2794,2809,2841,2850,2850,2865,2889,2897,2914,2945,2985,2985,3065,3089,3185,3209,3225,3241,3241,3266,3267,3267,3283,3290,3305,3313,3313,3321,3329,3346,3346,3354,3361,3370,3386,3386,3409,3409,3425,3434,3465,3473,3545,3545,3577,3593,3609,3610,3618,3626,3634,3642,3665,3689,3713,3714,3721,3745,3761,3770,3786,3786,3794,3802,3810,3810,3825,3849,3850,3850,3889,3889,3913,3913,3945,3962,3987,3993,4002,4033,4034,4041,4066,4082,4105,4115,4129,4145,4169,4170,4193,4209,4249,4273,4273,4329,4330,4345,4370,4401,4410,4529,4593,4594,4609,4625,4625,4649,4673,4697,4706,4721,4833,4833,4897,4929,4977,5001,5081,5089,5145,5161,5186,5203,5203,5249,5249,5281,5361,5385,5386,5409,5489,5514,5777,5778,5809,5809,6105,6401,6457,6489,6489,6513,6513,6529,6554,6554,6625,6625,6649,6649,6673,6737,6738,6753,6777,6793,6897,6937,6977,7001,7018,7041,7065,7065,7089,7098,7122,7122,7145,7169,7169,7193,7193,7217,7233,7249,7258,7258,7281,7289,7337,7353,7393,7393,7425,7449,7474,7474,7522,7633,7721,7745,7771,7881,7900,7923,7940,7961,7961,7969,7985,7994,8001,8009,8017,8033,8073,8090,8090,8106,8137,8155,8201,8225,8225,8241,8249,8249,8274,8281,8282,8291,8306,8338,8345,8377,8377,8393,8417,8417,8449,8458,8458,8505,8529,8529,8553,8553,8577,8649,8713,8713,8769,8787,8809,8857,8858,8874,8889,8898,8907,8915,8922,8931,8941,8945,8953,8962,8970,9001,9001,9009,9017,9017,9035,9042,9233,9257,9273,9290,9307,9353,9441,9458,9466,9489,9499,9552,9554,9585,9585,9602,9612,9622,9626,9626,9643,9666,9666,9674,9674,9685,9705,9724,9726,9750,9775,9809,9833,9842,9905" d="M225.3,124.86667C223.46666,124.86667 223.3,125.57117 223.3,126.46667C223.3,127.36667 223.3,128.27733 223.3,129.188C223.3,130.04134 223.34703,130.98259 223.3,131.86667C223.25728,132.67007 222.67081,133.33835 222.42149,134.188C222.17921,135.01369 222.3,135.98 222.3,136.95067C222.3,137.86667 222.3,138.66667 222.3,139.56667C222.3,140.43066 222.14897,141.24731 221.65266,141.91933C221.14375,142.60841 221.68459,143.55835 221.3,144.43066C221.02678,145.05038 220.29091,145.46527 219.5955,145.91933C218.8376,146.41418 218.52412,147.19345 218.29866,148.06534C218.09264,148.86206 217.02435,148.95982 216.65266,149.62833C216.19646,150.44884 216.11066,151.43759 215.242,151.75684C214.60605,151.99055 213.43484,152.21246 213.3,153.03334C213.18248,153.74878 213.04004,154.82881 212.3,155.53334C211.75861,156.04877 211.07724,156.58449 210.3,157.03334C209.67841,157.39232 209.46921,158.46696 208.94284,159.16217C208.4369,159.8304 207.5229,159.99013 206.7,160.44133C205.91986,160.86909 204.95253,160.74887 204.09866,161.15067C203.49782,161.43341 202.53665,161.51422 201.63333,162.03334C200.98853,162.4039 200.23369,162.72194 199.3215,163.088C198.54749,163.39861 197.78571,163.71446 196.89999,163.87733C196.06729,164.03046 195.43645,164.68726 194.48534,164.83067C193.55267,164.9713 193.12148,165.50781 192.5955,166.16133C192.00572,166.89413 190.70612,166.78221 190.67067,167.43466C190.6272,168.23505 191.89911,168.68465 192.5955,169.22383C193.25822,169.73695 193.29933,170.66667 193.3,171.56667C193.3007,172.50951 193.25804,173.4613 193.868,174.06799C194.51665,174.71318 195.20607,175.33771 195.291,176.15683C195.39365,177.14673 195.3,177.96666 195.3,178.86667C195.3,179.66667 195.31456,180.78278 194.59467,180.86667C193.6398,180.97795 192.73067,180.86667 191.94817,180.86667C191.05716,180.86667 190.09624,180.78455 189.2,180.86684C188.28856,180.95052 187.70508,181.45226 186.8,181.86667C186.00883,182.22893 185.42105,182.89516 184.77916,183.36667C183.98149,183.95261 183.42606,184.59215 182.68933,184.856C181.87163,185.14885 180.25064,184.67474 180.34666,185.44133C180.44373,186.2162 181.89999,185.86659 182.71066,185.86667C183.62117,185.86676 184.47705,185.83907 185.27916,186.36667C185.94661,186.80571 186.8,186.86667 187.7,186.86667C188.5955,186.86667 189.52292,186.81674 190.39967,186.86667C190.7162,186.88469 190.67799,187.67589 190.24283,188.50951C189.85255,189.25713 189.32573,189.73839 189.3,190.86667C189.28226,191.64522 189.08043,192.47282 188.49867,193.03467C187.84474,193.66621 187.46558,194.35886 187.32083,195.34584C187.18874,196.2466 187.22372,197.24892 187.46666,198.03334C187.73453,198.89828 188.18814,199.81354 188.82083,200.325C189.52385,200.89331 190.51614,200.76477 191.23866,201.29201C191.88759,201.76553 192.15099,202.59819 192.73599,203.256C193.35214,203.94884 194.40437,203.95535 195.3,203.86667C196.14571,203.78293 196.3,202.86667 196.3,202.06667C196.3,201.03334 196.3006,200.23753 196.72533,199.46666C197.17787,198.64529 196.78236,197.57446 197.336,196.87733C197.87949,196.19299 198.3,195.76666 198.3,194.86667C198.3,194.06667 198.3,193.15199 198.3,192.256C198.3,191.36667 198.20454,190.42212 198.584,189.66667C199.01958,188.79947 199.17889,188.03108 199.82083,187.3875C200.46005,186.74664 201.11787,186.41191 201.3,185.57117C201.46092,184.82831 202.57132,184.7298 203.18533,185.12267C203.89691,185.57796 204.32027,186.36305 204.73067,187.10001C205.24315,188.02026 205.65587,188.83807 206.60451,188.86667C207.46626,188.89265 208.58008,188.47008 209.18567,189.22383C209.7178,189.88614 209.78819,190.59409 210.59467,190.91933C211.36928,191.2317 212.13963,191.49643 212.96666,192.03334C213.66562,192.48709 214.22049,192.87192 215.11467,193.30267C215.75989,193.61349 216.45491,194.37987 217.01601,194.95067C217.67615,195.62221 218.39999,195.86667 219.3,195.86667C220.10001,195.86667 221.08534,195.79858 221.26401,195.00534C221.47772,194.05644 221.3,193.17117 221.3,192.26666C221.3,191.36667 221.3,190.46666 221.3,189.57117C221.3,188.64517 221.3,187.76666 221.3,186.86667C221.3,186.06667 221.3,185.15199 221.3,184.29201C221.3,183.34584 221.18669,182.36534 221.74266,181.76666C222.33174,181.13232 222.99896,180.55611 223.65717,179.91484C224.2948,179.29362 224.75986,178.65312 225.28534,177.91733C225.78143,177.22267 226.3419,176.82524 226.90266,176.26401C227.69766,175.46834 228.39836,174.98642 228.96666,174.03334C229.41113,173.2879 229.3,172.34584 229.3,171.46666C229.3,170.56667 229.3,169.668 229.3,168.78267C229.3,167.86667 229.3,167.06667 229.3,166.16667C229.3,165.30267 229.3,164.34584 229.3,163.46666C229.3,162.56667 229.3,161.668 229.3,160.78267C229.3,159.86667 229.3,159.06667 229.3,158.16667C229.3,157.30267 229.24306,156.40089 229.52133,155.54533C229.80701,154.66704 230.21167,153.89235 230.29866,153.06799C230.39345,152.16977 230.84207,151.42097 231.5955,150.91933C232.28476,150.4604 232.28526,149.47722 232.3,148.53334C232.31042,147.86642 232.73785,147.1156 233.49867,146.58133C234.09586,146.16197 234.29933,145.15199 234.3,144.256C234.30067,143.36667 234.38452,142.46266 234.3,141.57117C234.21629,140.68816 233.82777,139.91994 233.24733,139.22383C232.75423,138.63248 231.87744,138.18115 231,137.92383C230.13583,137.67039 229.55025,137.24364 228.77916,136.8875C227.9805,136.51863 227.16544,136.47244 226.3,136.03334C225.6246,135.69066 225.32709,134.86621 225.3,134.06667C225.27139,133.22238 224.39864,132.88123 223.94284,132.16133C223.5769,131.58337 222.57693,131.02292 222.31067,130.256C222.01213,129.39613 222.47142,128.52068 222.91066,127.692C223.35132,126.86065 223.82971,126.11734 224.77916,125.8875C225.62401,125.68298 225.58522,125.64214 225.13333,124.86667C224.74648,124.20279 223.78174,123.71991 223.16133,123.26667C222.42177,122.72638 222.05663,121.78393 221.584,121.152C221.0531,120.44215 220.72665,119.65707 220.20016,118.88817C219.69202,118.14606 219.33459,117.30205 219.29984,116.424C219.26605,115.57076 218.57349,115.01043 218.31067,114.256C217.99704,113.35567 218.3,112.43066 218.3,111.56667C218.3,110.66666 217.90562,109.48424 218.58533,108.952C219.30872,108.38557 220.3343,108.74191 221,108.16217C221.63512,107.60907 222.45053,107.11395 223.3,106.7C223.95226,106.38216 224.72786,105.94844 225.62134,105.64533C226.3161,105.40964 227.32249,105.1179 228.09866,104.78267C228.93326,104.4222 229.58533,103.86684 230.5,103.86667C231.39999,103.8665 232.17786,103.75633 232.68933,103.016C233.2748,102.16857 233.91861,101.96762 234.82083,101.84583C235.63849,101.73546 236.37381,101.10593 237.3,100.8875C238.13858,100.68972 239.23938,101.21294 239.93834,100.8095C240.62723,100.41188 240.90718,99.38351 241.58533,98.952C242.36038,98.45884 243.39999,98.86667 244.3,98.86667C245.17867,98.86667 246.0045,98.86594 246.936,98.86667C247.784,98.86734 248.74907,98.71302 249.53833,99.22383C250.2737,99.69975 250.45428,100.78293 251.3,100.86667C252.21155,100.95693 253.07362,100.93511 253.3,101.814C253.52487,102.68704 254.41011,102.92126 254.864,103.47733C255.4785,104.23017 256.03149,104.71765 256.68933,105.30267C257.38217,105.91882 257.09827,107.04996 257.47067,107.66666C257.93945,108.44296 258.96426,108.868 259.34818,109.56667C259.73355,110.26801 260.50195,110.88808 260.94284,111.56667C261.45764,112.359 261.98593,112.9669 262.384,113.668C262.79083,114.38454 263.60306,114.99077 264.01468,115.66666C264.52777,116.50914 265.23404,117.08066 265.29868,117.75333C265.38846,118.68777 265.46307,119.70205 265.87466,120.42C266.2963,121.15546 266.29999,122.03333 266.29999,122.86667C266.29999,123.84517 266.29999,124.66534 266.29999,125.56667C266.29999,126.50267 266.0715,127.3995 266.35718,128.15683C266.67896,129.00989 267.80939,129.23256 268.216,130.06667C268.58337,130.82024 269.10019,131.51927 269.27917,132.36667C269.46521,133.24747 269.4949,134.18835 269.29868,135.06534C269.1181,135.87239 268.47159,136.49278 267.94284,137.16217C267.35751,137.90315 266.48224,138.09874 266.29984,138.96651C266.1333,139.7588 265.55377,140.30928 265.07849,141.08817C264.72269,141.67125 263.89999,142.26666 263.20001,142.96666C262.70001,143.46666 262.17856,144.40623 261.32535,144.83067C260.57724,145.20282 259.62589,145.30072 259.35718,146.16667C259.09027,147.02678 258.87427,147.67731 258.10132,148.15067C257.33105,148.62238 256.59549,148.86667 255.7,148.86667C254.8,148.86667 253.91066,148.86667 253.01466,148.86667C252.09866,148.86667 251.13333,148.86667 250.48534,148.86667C249.46933,148.86667 248.5955,148.86723 247.77916,148.86667C246.81734,148.866 246.01433,148.80345 245.32133,148.29201C244.73444,147.85886 243.85463,147.88156 243.18533,147.29866C242.48381,146.68771 241.90028,146.01984 241.01466,145.86534C240.18336,145.72032 239.53038,145.036 238.7,144.87733C237.75201,144.6962 237.3045,144.16217 237.3,143.26666L237.3,142.36667L237.3,141.47734" id="svg_1" stroke-width="3" stroke="#000" fill="none"/>
  <path t="11722,11849,11849,11849,11857,11865,11865,11874,11874,11874,11881,11881,11889,11889,11897,11897,11905,11917,11917,11921,11937,11954,12097,12097,12169,12225,12273,12300" d="M222.3,99.86667C221.3,101.53083 221.3,102.15334 221.3,103.1C221.3,104.05233 221.41689,105.12019 221.04401,105.83733C220.58478,106.72055 220.01007,107.10509 219.358,107.86134C218.78761,108.52285 218.37923,109.3585 218.07866,110.188C217.76402,111.05635 217.36214,111.83865 217.30133,112.66534C217.23102,113.62125 217.54678,114.58421 217.21466,115.29733C216.8317,116.11963 215.79202,116.31464 215.30133,116.952C214.74336,117.67677 215.3,118.66666 215.24283,119.56667L214.77916,120.34583L214.0045,120.814L213.336,121.30267" id="svg_2" stroke-width="3" stroke="#000" fill="none"/>
  <path t="14098,14217,14225,14225,14233,14233,14241,14250,14250,14250,14257,14257,14266,14266,14273,14284,14285,14299,14305,14305,14321,14345,14361,14369,14377,14394,14409,14417,14425,14433,14441,14521,14529,14530,14553,14577,14577,14601,14617,14625,14649,14657,14681,14889,14889" d="M224.3,93.86667C224.3,95.692 224.3,96.7 224.3,97.492C224.3,98.51933 224.37921,99.21784 224.28934,100.252C224.20616,101.20914 223.93907,101.86958 223.72533,102.616C223.40907,103.72039 223.32172,104.49673 223.01601,105.35067C222.76344,106.05617 222.3286,107.10807 222.3,107.96684C222.27388,108.75156 222.3,109.692 222.3,110.7C222.3,111.456 222.3,112.34583 222.3,113.30267C222.3,114.16666 222.4498,115.07925 222.29984,115.9665C222.15584,116.81853 221.3286,117.22253 221.3,118.16666C221.27277,119.06625 221.60132,120.02358 221.2955,120.814C221.01706,121.53371 220.10001,122.06667 219.5,122.66666C218.89999,123.26667 218.28923,124.08546 217.60001,124.5095C216.77861,125.01485 215.8,124.86667 214.89999,124.86667C214.0045,124.86667 213.19017,124.86667 212.25833,124.86667L211.3,124.86667L210.52133,124.86667" id="svg_3" stroke-width="3" stroke="#000" fill="none"/>
  <path t="16617,16744,16744,16753,16761,16769,16777,16788,16793,16808,16808,16818,16818,16825,16834,16849,16849,16857,16867,16873,16881,16902,16905,16914,16914,16914,16923,16929,16929,16945,16953,16961,17017,17049,17049,17065,17073,17097,17097,17097,17130,17130,17146,17154,17170,17178,17186,17194,17203,17218,17298,17306,17386,17466,17498,17514,17530,17546,17570,17587,17587,17603,17619,17619,17626,17642,17642,17649,17665,17674,17690,17708,17708,17723,17724,17730,17738,17746,17746,17754,17810,17858" d="M229.3,88.86667C228.3,88.03333 227.60957,88.29072 226.82083,88.86667C226.18056,89.3342 225.51125,89.93095 225.336,90.71733C225.10974,91.73255 225.01697,92.35528 224.46666,93.03333C223.98622,93.62529 223.90947,94.71805 223.49867,95.38267C222.95747,96.25825 221.97054,96.4995 221.46666,97.2C220.97716,97.88052 220.76396,98.71378 220.3,99.3875C219.81725,100.08852 219.25842,100.67599 218.49867,100.952C217.69786,101.24293 217.12056,102.02101 216.48534,102.692C215.99989,103.20477 215.5127,104.15671 215.07866,104.96667C214.6738,105.72217 214.30872,106.48461 213.87466,107.26667C213.42014,108.08564 213.3,108.95067 213.3,109.86667C213.3,110.66666 213.46765,111.59271 213.25833,112.3875C213.03027,113.25344 212.2368,113.84542 211.868,114.468C211.31313,115.40468 211.30356,116.296 211.3,117.22383C211.2964,118.16218 210.76001,118.7418 210.3,119.3875C209.80612,120.08073 209.47276,120.92991 209.21466,121.668C208.90549,122.55215 208.07434,123.29618 208.3045,124.16217C208.50974,124.93433 209.2366,125.64146 210.0045,125.86217C210.86516,126.10954 211.82959,126.09418 212.68933,125.86667C213.3786,125.68427 213.8824,125.01138 214.65184,124.814C215.5639,124.58004 216.37025,123.92558 216.77916,123.36667C217.37724,122.54918 217.4339,121.51868 218.10133,121.15067C218.92548,120.69624 219.98404,120.96783 220.68933,120.44133C221.40837,119.90457 221.0806,118.79253 221.41434,118.16666C221.89603,117.26335 222.89702,117.16547 223.53833,116.56667C224.28723,115.86741 224.3,114.86667 224.38533,114.06667L224.87466,113.30267L225.3,112.58134L225.3,111.66666" id="svg_4" stroke-width="20" stroke="#fff" fill="none"/>
  <path t="19018,19097,19105,19115,19122,19130,19130,19138,19145,19145,19155,19172,19172,19186,19186,19193,19194,19217,19218,19225,19226,19250,19265,19274,19274,19282,19299,19308,19315,19341,19341,19354,19362,19441" d="M233.3,88.86667C233.24283,90.514 232.59604,90.9203 231.8,91.36667C231.00053,91.81496 230.08051,92.13015 229.5,92.668C228.87825,93.24406 228.2731,94.0603 227.60001,94.5095C226.86404,95.00066 226.12834,95.45805 225.664,96.052C225.01839,96.87782 224.27287,97.30475 223.46666,97.86667C222.7966,98.33369 222.23961,99.01336 221.54283,99.56667C220.85342,100.11413 220.0139,100.51965 219.13333,100.86667C218.38734,101.16064 217.99313,101.91348 217.584,102.66666C217.15079,103.46419 216.59647,103.92105 215.8,104.36667C215.00546,104.81122 214.13333,105.03333 213.5955,105.57117L212.89999,106.256L212.10133,106.78267L211.38266,107.15067" id="svg_5" stroke-width="20" stroke="#fff" fill="none"/>
  <path t="21718,21978,21998,22014,22018,22026,22034,22034,22049,22050,22060,22073,22081,22081,22242,22242,22281,22289,22321,22346,22346,22482" d="M234.3,104.86667C234.21466,105.668 233.55305,106.40385 233.336,107.26667C233.11626,108.14017 233.3958,109.07182 233.29967,109.96684C233.21387,110.76567 232.62297,111.54892 232.11467,112.00533C231.36638,112.67724 230.57248,113.08392 230.13333,113.86667C229.7406,114.56669 229.53162,115.35774 229.24283,116.16133C228.94295,116.99577 228.3045,117.57117 228.228,118.46667L227.73199,119.06667L227.00534,119.56667L226.36133,120.256" id="svg_6" stroke-width="3" stroke="#000" fill="none"/>
  <path t="23124,23276,23283,23298,23305,23330,23330,23345,23355,23377,23386,23402,23403,23412,23425,23434,23450,23466,23484,23515,23562,23601,23697,23747,23788" d="M228.3,113.86667C226.73599,114.47733 226.64734,115.33253 226.28934,116.256C226.01231,116.97057 225.14996,117.35369 224.68933,118.016C224.17546,118.75485 223.5426,119.18092 223.29866,120.06533C223.07825,120.86442 221.9631,121.04366 221.58533,121.668C221.09792,122.47354 221.3,123.46667 221.3,124.36667C221.3,125.26667 221.3,126.16666 221.3,127.06667C221.3,127.9665 221.28934,128.84134 220.72533,129.47734L220.336,130.26666L220.3,131.16667L220.3,132.06667" id="svg_7" stroke-width="3" stroke="#000" fill="none"/>
  <path t="24659,24826,24850,24898,24920,24920,25115,25121,25298,25433,25441,25459,25489,25490,25498" d="M254.3,122.86667C253.65266,123.57117 253.37146,124.62955 252.65334,124.856C251.69815,125.15721 250.86934,124.86667 249.864,124.86667C249,124.86667 247.99866,125.1149 247.20033,124.64533C246.48122,124.22236 247.39999,123.86667 248.3,123.86667L249.10001,123.86667L250.01466,123.78133" id="svg_8" stroke-width="3" stroke="#000" fill="none"/>
  <polyline timestamps="26554,26793" startTime="1502008403998" id="svg_9" points="260.3,123.8666669845581 260.4,122.86666698455811 " stroke-linecap="round" stroke-width="3" stroke="#000" fill="none"/>
  <path t="27594,27825,27849,27889,27921,27937,28153,28169,28193,28202,28241" d="M255.3,128.86667C257.29999,129.3875 257.29999,130.26666 257.29999,131.16667C257.29999,132.06534 257.30008,132.95067 257.29999,133.86667C257.2999,134.74516 256.59549,134.86667 255.7,134.86667L254.8,134.86667" id="svg_10" stroke-width="3" stroke="#000" fill="none"/>
  <path t="29602,30022,30022,30036,30063,30076,30146,30154,30353,30417,30433,30457,30481,30497,30769,30786,30833,30937,30937,30969,30993,31081,31113,31146,31578,31578,31625,31641,31649,31665,31697,31697,31729,31851,31857,31954,31993,31993,32041,32385,32601,32633" d="M249.3,139.86667C250.3,140.86667 251.10001,140.86667 252,140.86667C252.89999,140.86667 253.71736,140.95615 254.32533,141.44133C254.94983,141.93971 256.11719,141.86794 256.29999,141.03334C256.48639,140.18234 256.29999,139.26666 256.29999,138.36667C256.29999,137.47734 256.01468,136.86667 255.10001,136.86667C254.2,136.86667 253.3,136.86667 252.5,136.86667C251.60001,136.86667 250.69998,136.86177 249.82083,136.86667C248.86395,136.87201 247.89525,137.01234 247.46666,137.86667C247.10036,138.59685 247.29703,139.68233 248.10133,139.86534C248.9919,140.06799 249.96162,139.85684 250.784,140.15067C251.48965,140.40279 252.41191,140.82396 253.39999,140.86667C254.29916,140.90553 255.01781,140.64389 255.46666,139.86667C255.82562,139.24509 256.77917,138.86667 257.28934,138.256L257.27917,137.3875L256.68933,136.87733" id="svg_11" stroke-width="3" stroke="#000" fill="none"/>
  <path t="34067,34659,34690,34786,34794,35098,35178,35178,35234,35250,35250" d="M255.3,137.86667C256.10132,137.86667 257.01474,137.85619 257.91068,137.86667C258.80017,137.87709 259.90204,138.06386 260.17816,138.96666C260.38342,139.63779 259.43866,140.256 258.46667,140.7L257.74667,140.856" id="svg_12" stroke-width="3" stroke="#000" fill="none"/>
  <path t="35899,36090,36107,36108,36123,36131,36138,36175,36177,36177,36187,36188,36196,36217,36233,36241,36264,36264,36276,36321,36322,36322,36331,36340,36362,36401,36425,36426,36449,36457,36481,36481,36513,36537,36537,36553,36554,36574,36578,36587,36588,36601,36626,36649,36649,36658,36673,36683,36683,36690,36698,36698,36706,36721,36731,36746,36753,36753,36769,36785,36795,36810,36810,36817,36825,36849,36858,36877,36880,36882,36895,36906,36906,36917,36917,36922,36931,36931,36938,36948,36948,36959,36960,36965,36965,36970,36970,36980,36997,37000,37024,37025,37026,37052,37058,37065,37099,37106,37153,37154,37187,37226,37257,37258,37266,37266,37275,37284,37298,37313,37313,37322,37322,37333,37348,37355,37355,37363,37388,37395,37395,37404,37404,37417,37418,37419,37426,37439,37457,37458,37467,37468,37468,37479,37489,37489,37499,37506,37530,37553,37593,37602,37637,37667,37667,37685,37699,37719,37731,37748,37748,37754,37772,37781,37781,37797,37797,37809,37841,37842,37847,37867,37868,37882,37882,37904,37906,37935,37939,37958,37986,38033,38053,38053,38064,38085,38113,38141,38148,38148,38227,38258,38285,38321,38358,38373,38373,38387,38387,38618" d="M266.29999,144.86667C267.15067,146.26666 267.74152,147.0591 268.38266,147.58133C269.08975,148.15727 269.87616,148.27708 270.68933,148.84134C271.37527,149.31732 271.92703,149.99861 272.44934,150.50267C273.23135,151.25734 273.08096,152.20021 273.79999,152.825C274.44214,153.38297 275.10165,153.66766 275.79999,154.36667C276.49899,155.06633 276.93668,155.69681 277.2955,156.50951C277.66565,157.34784 278.28223,157.91554 278.81732,158.29866C279.70239,158.93234 280.53235,159.32077 281.01599,159.95067C281.57294,160.67606 281.54556,161.65335 282.10132,162.29866C282.67844,162.96877 282.86414,163.75281 283.46667,164.53334C283.90396,165.09981 285.06003,165.00696 285.24283,165.92917C285.37875,166.61487 285.29999,167.72366 285.29999,168.55766C285.29999,169.46666 285.29999,170.3875 285.29999,171.34933C285.29999,172.15683 285.29999,173.03467 285.29999,173.8875C285.29999,174.84517 285.29999,175.66533 285.29999,176.56667C285.29999,177.50267 285.29999,178.35066 285.29999,179.214C285.29999,180.114 285.30005,181.03334 285.29999,181.86667C285.2999,182.845 284.85022,183.41193 284.38535,184.15199C283.89664,184.93001 284.06607,185.82495 283.65268,186.56667C283.22705,187.33035 282.83405,188.10275 282.42133,188.96666C282.01398,189.81932 281.53897,190.40434 281.32083,191.36667C281.12418,192.23424 281.30008,193.15199 281.29999,194.06667C281.2999,194.96666 281.37888,195.81084 280.68933,196.43066C280.03091,197.02254 279.42026,197.60143 279.19016,198.27567C278.83832,199.30666 278.16672,199.71989 277.63333,200.53334C277.17014,201.23973 277.42859,202.06039 277.2955,203.1095C277.1842,203.98671 276.54388,204.57475 275.81732,205.06799C275.16626,205.50998 274.4758,206.35242 274.28534,207.04134C274.02481,207.98381 273.65164,208.69357 273.24734,209.56667C272.86218,210.39841 272.46356,211.21373 272.07867,211.96666C271.68851,212.72987 271.30533,213.46661 271.29999,214.36667C271.29465,215.26665 271.45996,216.19298 271.21466,217.036C270.99789,217.78087 270.26883,218.67801 269.82083,219.34584C269.35165,220.04521 269.53854,221.09605 268.96667,221.86667C268.57193,222.39862 267.38019,222.77452 266.84167,223.36667C266.27972,223.98459 265.91815,224.69293 265.13068,224.952C264.3847,225.1974 263.6832,225.64095 262.70901,226.16667C262.00357,226.54736 261.49698,227.42973 260.75833,227.86667C260.06076,228.2793 259.15518,228.53668 258.32166,228.74516C257.36938,228.98334 256.60406,229.26714 255.89101,229.51401C254.92317,229.84909 254.15755,229.86636 253.3,230.36667C252.57736,230.78827 251.76259,230.69075 250.82083,230.8875C249.95251,231.06891 249.37415,231.96666 248.75833,232.34584C247.84064,232.9109 247.0498,232.84502 246.30533,232.86217C245.11464,232.8896 244.3,232.86667 243.5,232.86667C242.60001,232.86667 241.65717,232.86667 240.77916,232.86667C239.89999,232.86667 239,232.86667 238.10133,232.86667C237.13333,232.86667 236.3,232.86667 235.5,232.86667C234.60001,232.86667 233.68013,232.86424 232.89999,233.29201C232.0771,233.74321 231.2431,234.15637 230.60001,234.51401C229.74689,234.98843 228.9449,235.41832 228.13333,235.7C227.33411,235.97739 226.32132,235.84904 225.50133,235.86667C224.66342,235.88467 223.82977,236.18532 222.95267,236.51401C222.06963,236.84491 221.18318,236.76999 220.41467,236.952C219.4384,237.18321 218.73973,237.60954 217.94667,238.256C217.285,238.79533 216.70836,239.48132 215.89999,239.84134C215.11649,240.19029 214.31238,240.78293 213.46666,240.86667C212.59444,240.95303 211.78267,240.86667 210.82083,240.86667C209.91066,240.86667 209.01466,240.86667 208.2,240.86667C207.3,240.86667 206.5,240.86667 205.46666,240.86667C204.68933,240.86667 203.8,240.86667 202.89999,240.86667C201.9955,240.86667 200.97867,240.86667 200.3,240.86667L199.3215,240.86667L198.50133,240.86667L197.46666,240.86667" id="svg_13" stroke-width="3" stroke="#000" fill="none"/>
  <path t="39674,39844,39856,39887,39891,39901,39920,39926,39926,39931,39951,39965,39971,39987,39993,40009,40009,40026,40026,40113,40130,40150,40162" d="M203.3,236.86667C201.46666,236.86667 200.68933,236.86667 199.8,236.86667C198.89999,236.86667 198,236.86667 197.09866,236.86667C196.13333,236.86667 195.3,236.86667 194.32167,236.86667C193.46666,236.86667 192.68933,236.86667 191.8,236.86667C190.89999,236.86667 189.9955,236.86667 188.97867,236.86667C188.3,236.86667 187.27521,237.06602 186.50133,236.78133C185.63013,236.46083 185.32083,235.3875 185.65717,234.86667L186.60451,234.86667" id="svg_14" stroke-width="3" stroke="#000" fill="none"/>
  <path t="40554,40602,40617,40634,40642,40649,40681,40681,40697,40721,40746,40754,40754,40769,40769,40793,40803" d="M205.3,230.86667C204.5955,230.21933 203.70004,229.87201 202.8,229.86667C201.90001,229.86134 200.9955,229.86667 200.13333,229.86667C199.3,229.86667 198.16956,230.21449 197.46666,229.7C196.81236,229.22107 196.13333,228.86667 195.3,228.86667C194.46666,228.86667 193.58667,228.86667 192.68933,228.86667L191.8,228.86667" id="svg_15" stroke-width="3" stroke="#000" fill="none"/>
  <path t="41211,41348,41355,41371,41378,41393,41394,41402,41402,41410,41428,41428,41440,41452" d="M208.3,222.86667C206.5,222.86667 205.65715,222.8614 204.77916,222.86667C203.88928,222.87201 202.98149,223.09499 202.3,223.36667C201.32544,223.75519 200.50133,223.866 199.664,223.86667C198.64734,223.86748 197.95267,223.86667 196.936,223.87733L196.10001,224.15067" id="svg_16" stroke-width="3" stroke="#000" fill="none"/>
  <path t="41955,42097,42106,42114,42114,42122,42122,42122,42132,42132,42132,42132,42132,42137,42137,42137,42145,42145,42145,42145,42153,42153,42154,42164,42164,42165,42174,42174,42174,42178,42178,42191,42193,42193,42225,42249,42281,42289,42305,42322,42345,42345,42357,42386,42393,42409,42419,42458,42486,42486,42490,42499,42507,42513,42530,42542,42547,42563,42573,42589,42609,42622,42622,42634,42634,42641,42659,42659,42677,42697,42705,42721,42737,42773,42786,42786,42818,42834,42886,42898,42935,42935,42937,43341,43371,43371,43372,43384,43384,43384,43385" d="M212.3,223.86667C214.10001,223.86667 214.936,223.86667 215.78667,223.86667C216.54666,223.86667 217.72166,223.86667 218.54666,223.86667C219.14667,223.86667 220.46666,223.86667 221.18401,223.86667C221.92534,223.86667 222.67467,223.86667 223.416,223.86667C224.81467,223.86667 225.464,223.86667 226.39549,223.86667C227.3,223.86667 228.2,223.86667 229.10001,223.86667C229.7,223.86667 230.89999,223.86667 231.8,223.86667C232.39999,223.86667 233.59984,223.86667 234.48933,223.86667C235.34283,223.86667 236.37866,223.86667 237.07466,223.86667C237.98399,223.86667 238.98134,223.86667 239.75833,223.86667C240.8,223.86667 241.74283,223.86667 242.48534,223.86667C243.41467,223.86667 244.45383,224.15988 245.24733,223.86217C245.95694,223.59593 246.74133,222.9828 247.5,222.58267C248.35838,222.12996 249.00018,221.88571 249.89999,221.86667C250.86446,221.84625 251.36447,221.07877 252.15067,220.90266C253.10631,220.68861 253.884,220.48537 254.1785,219.54533C254.43575,218.72418 254.04823,217.62856 254.52133,216.98801C255.03644,216.29057 255.82254,215.97133 256.32535,215.256C256.8342,214.53204 257.23315,213.7724 257.29999,212.84584C257.35971,212.01808 257.79059,211.34239 258.21466,210.58C258.64444,209.80736 258.14661,208.81401 258.52151,207.88817C258.79337,207.21684 259.72617,206.64992 260.13333,205.86667C260.52002,205.12282 261.00565,204.44574 261.26401,203.46666C261.4938,202.59576 261.11716,201.56427 261.58401,200.95067C262.10748,200.26265 262.56784,199.65117 263.10132,199.06667C263.75821,198.34695 264.27139,197.57249 264.29999,196.64517C264.32706,195.76707 264.29999,194.86667 264.29999,194.06667C264.29999,193.15199 264.84848,192.45674 265.13333,191.53334C265.33273,190.88696 265.2955,189.92917 265.31799,188.94817L265.444,188.17867L265.52866,187.73683L265.64133,187.164" id="svg_17" stroke-width="3" stroke="#000" fill="none"/>
  <path t="43671,43777,43777,43787,43787,43794,43807,43807,43810,43810,43824,43825,43825,43837,43850,43850,43876,43876,43906,43907,43912,43912,43912,43938,43938,43938,43940,43940,43943,43956,43967,44011,44011,44023,44023,44042,44054,44074,44074,44099,44120,44123,44145,44202" d="M266.29999,144.86667C265.29999,145.86667 265.26047,146.62491 265.3045,147.51933C265.34717,148.38539 265.8493,149.18892 266.13333,150.03334C266.40305,150.83519 266.28238,151.84535 266.29999,152.66533C266.31799,153.50325 266.68155,154.50778 266.94733,155.214C267.27948,156.09656 267.29999,157.06934 267.29999,157.83734C267.29999,158.63467 267.28824,159.61607 267.29999,160.53334C267.31042,161.34604 267.60251,162.34804 267.79999,162.92917C268.0386,163.63139 268.21899,164.83307 268.27466,165.50667C268.35709,166.50381 268.48782,167.61642 268.79999,168.30417C269.20071,169.18703 269.29999,170.06667 269.29999,170.96666C269.29999,171.86667 269.29999,172.62384 269.29999,173.51933C269.29999,174.38266 269.29999,175.34584 269.29999,176.256C269.29999,177.2 269.29999,177.8875 269.29999,178.98134C269.29999,179.86667 269.29999,180.7 269.29999,181.57117L269.29999,182.46666" id="svg_18" stroke-width="3" stroke="#000" fill="none"/>
  <path t="46014,46226,46294,46428,46444,46499,46505,46524,46577,46593,46609,46625" d="M261.29999,187.86667C261.32083,188.86667 262.28064,189.3315 263.01468,188.78133C263.63104,188.31938 263.29999,187.16667 263.29999,186.26666C263.29999,185.30267 263.29999,184.43066 263.29999,183.56667L263.29999,182.66667L263.29999,181.76683" id="svg_19" stroke-width="3" stroke="#000" fill="none"/>
  <path t="47443,47529,47529,47538,47554,47564,47570,47570,47611,47624,47624,47629,47630,47659,47666,47674,47697,47697,47706,47731,47752,47753,47756,47772,47785,47786,47797,47797,47817,47849,47881,47881,47905,47905,47953,47953,47979,47993,48017,48037,48042,48051,48057,48088,48100,48110,48121,48155,48165,48165,48165,48250,48250,48267,48309,48309,48402,48437,48442,48470,48474,48474,48491,48538,48558,48905,48909,48939,48939,48939" d="M259.29999,156.86667C258.87466,158.692 258.45493,159.35699 258.31067,160.42C258.19196,161.29472 258.29999,162.17117 258.29999,163.18784C258.29999,163.84584 258.29999,164.8875 258.29999,165.72C258.29999,166.62666 258.29999,167.53334 258.29999,168.40933C258.29999,169.30267 258.40695,170.1732 258.29868,171.06667C258.18719,171.98643 257.49002,172.52072 257.31067,173.46666C257.13913,174.37144 257.49756,175.38853 257.24283,176.15683C256.98508,176.93427 256.32217,177.56676 255.59016,178.16667C255.00513,178.64613 254.05537,178.95934 253.58667,179.66667C253.04153,180.48936 252.49884,180.91965 251.81599,181.436C251.07782,181.99419 250.46671,182.70004 249.82083,183.34584C249.20004,183.96655 248.64711,184.67418 247.7,184.856C246.81609,185.0257 245.91066,184.86667 245.01466,184.86667C244.10001,184.86667 243.2,184.86667 242.3,184.86667C241.42134,184.86667 240.5955,184.86667 239.7,184.86667C238.8,184.86667 237.87866,184.86667 236.96666,184.86667C236.29466,184.86667 235.30533,184.86667 234.26933,184.86667C233.55183,184.86667 232.49925,185.26022 231.63333,184.7C230.9962,184.2878 230.78444,183.36151 230.10133,182.668C229.47148,182.02855 228.88028,181.41396 228.2,180.76683C227.61368,180.20909 226.67085,180.06558 225.91066,179.43066C225.27766,178.90198 225.3,177.86667 225.3,176.948L225.304,176.01334L225.3625,175.34584L225.556,174.63333" id="svg_20" stroke-width="3" stroke="#000" fill="none"/>
  <path t="49459,49613,49613,49626,49642,49659,49666,49712,49715,49736,49759,49778,49796,49821,49857,49888,49906,49921,49937,49969,49969,49971,49971,50017,50033,50034,50081,50099,50123,50129,50137,50137,50145,50159,50159,50163,50181,50185,50201,50201,50225,50225,50241,50281,50321,50321" d="M217.3,196.86667C218.3,195.86667 219.05716,195.86667 219.94817,195.86667C220.96666,195.86667 221.87163,195.58449 222.68933,195.87733C223.42606,196.14119 223.99379,196.47719 224.864,196.86667C225.48218,197.14336 225.73024,198.02675 226.384,198.58267C226.99818,199.10493 227.9026,199.47469 228.49867,200.06534C229.18167,200.74214 230.05957,200.83675 230.7,201.30267C231.48029,201.87035 232.03467,202.6012 232.49867,203.34933C232.89444,203.98744 233.46783,204.82242 234.3,204.86667C235.10341,204.90939 235.83638,205.61362 236.68933,205.83067C237.55835,206.05182 238.50133,205.86667 239.46666,205.86667C240.27916,205.86667 241.19467,205.86667 242.00983,205.86667C242.81734,205.86667 243.77916,205.86667 244.7,205.86667C245.60451,205.86667 246.46666,205.86667 247.3,205.86667C248.2785,205.86667 249.09866,205.86667 250,205.86667L250.936,205.86667L251.78267,205.86667L252.59016,205.86667" id="svg_21" stroke-width="3" stroke="#000" fill="none"/>
  <path t="50929,51105,51106,51121,51129,51161,51185,51209,51242,51242,51266,51273,51289,51313,51332,51345,51353,51369,51425,51449,51505,51505,51545,51705,51761,51793,51833,51873,51889,51929,52017,52017,52033" d="M225.3,196.86667C224.3,196.86667 223.34648,196.7795 222.73599,197.47734C222.15335,198.14334 222.3,199.16667 222.3,200.06534C222.3,200.95067 222.3,201.86667 222.3,202.66667C222.3,203.56667 222.64136,204.58951 222.27916,205.36667C221.92625,206.12389 221.31897,206.57135 221.3,207.46666C221.27957,208.43112 220.58011,208.86331 220.26401,209.47734C219.85899,210.2641 219.2,210.96666 218.7,211.46666C218.0045,212.16217 217.31801,212.84076 217.3,213.668C217.28046,214.56645 217.3,215.46666 217.3,216.36667C217.3,217.26666 217.2955,218.16667 217.07851,218.96651L216.49867,219.58133L215.664,219.856" id="svg_22" stroke-width="3" stroke="#000" fill="none"/>
  <polyline timestamps="52906,53001" startTime="1502008403998" id="svg_23" points="270.3,222.8666669845581 270.01599999999996,221.95200031789142 " stroke-linecap="round" stroke-width="3" stroke="#000" fill="none"/>
  <path t="53703,53801,53801,53801,53801,53801,53802,53802,53802,53802,53809,53809,53809,53809,53809,53819,53826,53826,53835,53842,53842,53850,53858,53866,53883,53889,53890,53897,53897,53906,53914,53922,53938,53947,53954,53954,53969,53977,53985,54002,54002,54010,54027,54041,54042,54066,54073,54081,54108,54123,54123,54158,54164,54189,54193,54212,54221,54234,54257,54273,54289,54317,54321,54355,54355,54362,54378,54402,54441,54449,54468,54482,54490,54506,54506,54529,54578,54578,54593,54602,54610,54641,54641,54649,54665,54681,54697,54713,54714,54722,54737,54738,54755,54772,54787,54793,54794,54809,54810,54842,54849,54873,54921,54971,55041,55321" d="M267.29999,223.86667C262.29999,247.53334 261.82581,249.14462 261.30667,250.552C260.84457,251.8047 260.37042,252.89099 259.90417,253.825C259.49487,254.64491 259.0918,255.3373 258.72665,255.92799C258.14276,256.87256 257.90173,257.23444 257.72665,257.55466C257.58099,257.82108 257.47485,258.04965 257.29984,258.96667C257.12827,259.86572 256.64227,260.34882 255.8,260.88751C255.05153,261.36621 254.74742,262.06357 254.0045,262.75684C253.37352,263.34564 253.58432,264.36292 253.01466,264.86801C252.38319,265.42789 251.58113,265.6156 251.10001,266.34933C250.57922,267.14359 249.72212,267.53082 249.336,268.30267C248.94911,269.07602 249.38213,270.07047 249.29984,270.96667C249.21616,271.87811 248.47861,272.31442 247.73599,272.892C247.14771,273.34955 246.85579,274.25897 246.20016,274.96667C245.65021,275.5603 245.33798,276.3844 244.94733,277.17117C244.50833,278.05527 244.31042,278.86652 244.3,279.845C244.29091,280.69995 244.37384,281.5434 243.864,282.26666C243.30809,283.05527 242.59552,283.56223 242.0045,284.16217C241.31557,284.86151 241.3,285.62833 241.3,286.51483C241.3,287.53333 241.17096,288.26413 240.65266,288.91934C240.1942,289.4989 240.48001,290.48914 240.27916,291.36667C240.06117,292.31906 239.30226,292.91934 239.3,293.86667C239.2981,294.66666 239.3,295.56668 239.3,296.43066C239.3,297.30267 239.3,298.26666 239.3,299.16666C239.3,300.06534 239.3,300.91934 239.3,301.75333C239.3,302.69199 239.3,303.38266 239.3,304.42001C239.3,305.30951 239.3,306.21851 239.3,307.1095C239.3,308.06534 239.3,308.91934 239.3,309.86667C239.3,310.66666 239.3,311.56668 239.3,312.43066C239.3,313.30267 239.2088,314.19641 239.52133,315.18784C239.73616,315.86935 240.27139,316.75983 240.3,317.57651C240.32826,318.38351 240.3,319.34583 240.3,320.26666C240.3,321.17117 240.22636,322.03842 240.32083,322.86667C240.43401,323.85892 241.11978,324.44934 241.3,325.30267C241.47855,326.14801 241.3,327.06668 241.3,327.96649L241.3,328.892L241.3,329.668L241.3,330.56668" id="svg_24" stroke-width="3" stroke="#000" fill="none"/>
  <path t="56836,57001,57010,57010,57024,57026,57034,57034,57046,57046,57058,57073,57082,57100,57100,57106,57130,57147,57178,57178,57188,57225,57233,57241,57265,57281,57306,57313,57314,57330,57361,57377,57377,57377,57393,57409,57417,57441,57449,57457,57473,57482,57497,57497,57521,57538,57554,57563,57570,57593,57593,57601,57625,57633,57650,57665,57666,57682,57683,57706,57722,57729,57746,57785,57786,57793,57793,57803,57825,57849,57873,57874,57881,57890,57913,57929,57945,57985,57993,58025,58041,58058,58058,58065,58217,58217" d="M232.3,257.86667C233.27916,260.36667 233.3,261.35068 233.3,262.21399C233.3,263.1095 233.3,264.06668 233.3,264.96683C233.3,265.75201 233.3,266.69199 233.3,267.38266C233.3,268.42001 233.22424,269.3421 233.65266,270.16666C234.09407,271.01617 233.9064,271.79724 234.38533,272.58133C234.87598,273.38461 235.3,273.96667 235.3,274.86667C235.3,275.66666 235.3,276.58133 235.3,277.47733C235.3,278.36667 235.3,279.26666 235.3,280.16217C235.3,281.08817 235.3,281.96667 235.3,282.86667C235.3,283.66666 235.3152,284.59045 234.864,285.32401C234.31815,286.21143 233.99315,286.86331 233.73599,287.57999C233.40688,288.49719 233.45335,289.40289 233.28934,290.26666C233.10973,291.21255 232.6682,291.93036 232.29984,292.74533C231.96466,293.48688 231.46909,294.21927 231.01601,295.06668C230.66742,295.71866 230.30067,296.58133 230.3,297.47733C230.29935,298.36667 230.38452,299.27066 230.3,300.16217C230.21629,301.04517 229.49013,301.52502 229.31067,302.46667C229.14217,303.35083 229.3,304.26666 229.3,305.17117C229.3,306.03333 229.3,306.86667 229.3,307.84515C229.3,308.66534 229.3,309.56668 229.3,310.46667C229.3,311.36667 229.3,312.25601 229.3,313.20001C229.3,313.88751 229.10359,315.06421 229.47067,315.66534C229.94009,316.43405 231.17661,316.71307 231.3,317.40833C231.46468,318.33618 231.07361,319.24442 231.3045,320.10501C231.52428,320.92413 232.28958,321.38733 232.3,322.26666C232.31067,323.1666 232.08417,324.21451 232.65266,324.80951C233.1586,325.33902 233.13631,326.12396 233.52133,326.96667C233.82713,327.63599 234.28934,328.43066 234.63333,329.20001L235.25833,329.86667" id="svg_25" stroke-width="3" stroke="#000" fill="none"/>
  <path t="58873,58953,58970,58985,58985,59002,59009,59025,59034,59034,59041,59050,59069,59069,59073,59073,59081,59081,59090,59100,59121,59137,59137,59153,59171,59179,59185,59193,59201,59225,59235,59241,59250,59257,59265,59274,59297,59306,59313,59321,59337,59362,59370,59385,59385,59393,59393,59409,59418,59418,59442,59442,59450,59458,59474,59482,59482,59489,59497,59506,59513,59521,59522,59529,59529,59537,59546,59546,59563,59563,59570,59570,59579,59585,59586,59603,59603,59609,59618,59625,59641,59641,59651,59651,59673,59681,59713,59721,59745,59761,59769,59793,59825,59835,59857,59889,59921,59937,59946,59993,60009" d="M211.3,330.86667C209.82083,329.36667 209.46909,328.51407 209.01601,327.66666C208.66742,327.01468 208.30226,326.16666 208.3,325.26666C208.2977,324.34583 208.3,323.38266 208.3,322.69199C208.3,321.62833 208.3,320.76935 208.3,320.01334C208.3,319.10666 208.3,318.20001 208.3,317.25201C208.3,316.38266 208.3,315.51935 208.3,314.62384C208.3,313.668 208.3,312.78265 208.3,311.86667C208.3,311.06668 208.35716,310.16666 208.8,309.36667C209.24283,308.56668 209.3,307.66666 209.3,306.76666C209.3,305.86667 209.3,305.03333 209.3,304.16217C209.3,303.26666 209.13268,302.25735 209.65717,301.57117C210.23053,300.82104 211.27139,300.86368 211.3,300.06534C211.33218,299.16724 210.95924,298.18912 211.32083,297.38751C211.65137,296.65475 212.90083,296.53897 213.21466,295.66534C213.54228,294.7533 213.3,294.04132 213.3,293.03333C213.3,292.15332 213.3,291.32501 213.3,290.384C213.3,289.57651 213.62915,288.72205 214.01601,288.06534C214.50311,287.23849 214.87355,286.40356 215.24733,285.56668C215.59213,284.79465 216.28212,284.43515 216.94284,283.814C217.54678,283.24625 217.3,282.16666 217.3,281.34583C217.3,280.38135 217.3,279.65601 217.3,278.66699C217.3,277.73868 217.22804,276.81097 217.32133,275.99466C217.40601,275.25372 218.01164,274.27603 218.44934,273.70267C219.06596,272.8949 219.29866,272.06799 219.3,271.23065C219.30162,270.21851 219.3,269.436 219.3,268.42383C219.3,267.68134 219.3,266.75201 219.3,265.76685C219.3,264.91483 219.3,264.15234 219.3,263.26401C219.3,262.27567 219.3,261.43735 219.3,260.50949C219.3,259.56668 219.17601,258.65805 219.30017,257.76685C219.4119,256.96497 220.27139,256.51096 220.3,255.66667C220.33047,254.76718 220.3,253.86667 220.3,252.98801C220.3,252.16217 220.30225,251.2469 219.87466,250.46666C219.42453,249.64526 219.21466,248.868 218.38533,248.58133L218.3,247.76666" id="svg_26" stroke-width="3" stroke="#000" fill="none"/>
  <path t="60466,60601,60625,60641,60658,60673,60689,60705,60705,60713,60721,60729,60729,60737,60746,60753,60761,60761,60777,60801,60817,60825,60833,60841,60857,60867,60867,60873,60889,60889,60921,60929,60929,60937,60953,60963,60985" d="M212.3,235.86667C212.3,237.47734 212.3,238.36667 212.3,239.26666C212.3,240.16217 212.3,241.036 212.3,241.8875C212.3,242.84517 212.3,243.66533 212.3,244.56667C212.3,245.50267 212.3,246.35066 212.3,247.214C212.3,248.23067 212.3,249.06667 212.3,249.96666C212.3,250.86667 212.27202,251.6671 212.3,252.58133C212.3286,253.51532 213.13643,254.00777 213.27916,254.8875C213.43254,255.83287 213.64278,256.47952 214.17867,257.08817C214.80173,257.79584 215.06767,258.39481 215.89999,258.92801C216.56039,259.35107 216.99971,260.14139 217.30017,261.08817C217.5742,261.95166 217.94733,262.56668 218.32533,263.46667L218.73599,264.25601L219.49867,264.78134L220.29866,264.952" id="svg_27" stroke-width="3" stroke="#000" fill="none"/>
  <path t="62513,62672,62673,62681,62681,62689,62689,62689,62697,62713,62713,62721,62737,62745,62745,62753,62765,62769,62777,62777,62785,62793,62793,62817,62825,62849,62857,62881,62881,63073,63073,63081,63089,63098,63098,63105,63105,63114,63121,63121,63129,63146,63163,63163,63169,63177,63177,63185,63185,63202,63202,63217,63225,63241,63257,63257" d="M220.3,241.86667C219.59016,243.51933 218.9493,244.21513 218.32133,244.84534C217.67583,245.49316 216.99002,246.19971 216.47467,246.68134C215.79852,247.31325 214.85257,247.64951 214.10133,248.15199C213.49477,248.55771 213.3848,249.66905 212.75833,250.36667C212.10109,251.09854 211.20729,251.23959 210.63333,251.86667C209.97717,252.58353 209.50952,253.21086 209.07851,253.96666C208.69693,254.63576 207.90921,255.27602 207.3,255.86667C206.70879,256.43988 205.5865,256.73096 205.31067,257.47733C205.00237,258.31158 205.41202,259.31989 205.01466,260.06799C204.61275,260.82471 203.53345,261.45593 203.67067,262.29733C203.77478,262.93564 204.86365,262.21637 205.50133,261.668C206.15096,261.10934 207.14621,260.98355 207.81599,260.78265C208.82901,260.47882 209.39769,259.76434 210,259.16666C210.69734,258.47464 211.46547,258.14331 212.3,257.70001C212.93391,257.36328 213.20815,256.31924 213.65717,255.56216C214.03017,254.93327 214.46301,254.09015 215.18533,253.436C215.84828,252.83563 216.68933,252.91661 217.664,252.44133C218.44083,252.06253 219.21733,251.58267 219.74266,250.98801L220.59467,250.814" id="svg_28" stroke-width="20" stroke="#fff" fill="none"/>
  <path t="65607,65770,65786,65786,65808,65819,65824,65833,65840,65849,65865,65872,65881,65904,65921,65953,65953,65969,65969,66001,66017,66033,66050,66072,66128,66161,66161,66177,66178,66217,66233,66327,66342" d="M211.3,242.86667C211.37199,242.48801 212.05724,243.09926 212.59467,243.56667C213.30695,244.18616 213.3,245.16667 213.3,246.06667C213.3,246.96666 213.3,247.86667 213.3,248.78267C213.3,249.57117 213.3,250.46666 213.3,251.36667C213.3,252.26666 213.21252,253.19366 213.46666,254.03334C213.72896,254.89998 214.34097,255.67152 214.77916,256.34583C215.29285,257.13632 215.17601,258.07529 215.30017,258.96649C215.4119,259.76837 216.17131,260.23187 216.30133,261.06668C216.44392,261.98227 217.01578,262.60364 217.24733,263.51483C217.44296,264.2847 218.01601,264.94934 218.29866,265.668L218.3,266.56668L218.24283,267.50949" id="svg_29" stroke-width="3" stroke="#000" fill="none"/>
  <path t="66814,66990,66990,67006,67025,67050,67057,67081,67089,67097,67137,67193,67193,67209" d="M207.3,241.86667C208.3,241.86667 209.31552,241.90331 210.10133,241.86667C211.01765,241.82394 211.51523,240.92757 212.39983,240.86667C213.27261,240.80658 214.23756,241.26874 215.01466,240.78133C215.75502,240.31696 216.3,239.86667 217.10001,239.86667L218.05716,239.80949" id="svg_30" stroke-width="3" stroke="#000" fill="none"/>
  <path t="68236,68435,68450,68473,68481,68497,68513,68537,68537,68553,68563,68578,68617,68679" d="M184.3,235.86667C185.91066,235.86667 186.90929,236.03395 187.5955,235.50951C188.34575,234.93611 188.58092,233.90938 189.46666,233.86667C190.29904,233.82652 191.10001,233.86667 192,233.86667C192.89999,233.86667 193.864,233.83067 194.35266,233.21933L195.17883,232.8665" id="svg_31" stroke-width="3" stroke="#000" fill="none"/>
  <path t="69445,69685,69729,69745,69777,69860,69876,69977,70090,70113" d="M191.3,227.86667C193.01466,228.86534 194.03148,229.00821 194.68933,228.43066C195.38583,227.81917 195.65717,226.92383 196.49867,226.86534L197.24733,226.51401L197.82083,225.86667L198.60001,225.51401" id="svg_32" stroke-width="3" stroke="#000" fill="none"/>
  <path t="72049,72143,72178,72178,72186,72195,72217,72226,72234,72242,72249,72257,72265,72265,72273,72281,72289,72289,72298,72321,72337,72337,72353,72369,72385,72409,72409,72457,72473,72489,72521,72537,72585,72594,72610,72610,72641,72681,72759,72812,72812,73001,73077,73077,73137,73153,73153,73185,73209,73209" d="M195.3,196.86667C193.46666,196.86667 193.30875,197.57655 193.3,198.384C193.28958,199.34601 192.71324,200.00945 192.32083,200.86667C191.98438,201.60165 191.55313,202.40385 191.336,203.26666C191.11726,204.13579 191.25822,204.98447 190.864,205.728C190.51227,206.39139 189.80899,207.17467 189.384,208.06667C188.97522,208.92464 188.51195,209.52515 188.31067,210.46666C188.12219,211.34827 187.70013,212.02391 187.15067,212.46666C186.35942,213.10423 185.62794,213.67766 185.32083,214.40834C184.95613,215.27603 185.3,216.15683 185.3,217.08817C185.3,217.96666 185.62288,219.02086 185.07866,219.74533C184.5963,220.38745 184.3,221.08817 184.3,221.96666C184.3,222.86667 184.31836,223.66685 184.3,224.58133C184.282,225.47789 183.86401,226.26666 183.3,226.86667C182.73601,227.46666 182.42412,228.39279 182.01601,229.15334C181.66643,229.80481 181.35374,230.69279 181.3,231.7C181.257,232.50589 180.5955,232.9765 180,233.57201L179.5,234.29866" id="svg_33" stroke-width="3" stroke="#000" fill="none"/>
  <path t="73873,73974,73974,73989,73989,73989,74010,74025,74033,74041,74041,74041,74049,74057,74057,74065,74073,74073,74081,74089,74097,74098,74113,74113,74130,74146,74169,74185,74185,74201,74201,74217,74233,74273,74273" d="M197.3,201.86667C196.32083,202.8875 196.3,203.845 196.3,204.784C196.3,205.57651 196.3,206.384 196.3,207.34584C196.3,208.26666 196.3,209.17567 196.3,210.2C196.3,210.86751 196.3,211.80417 196.3,212.78C196.3,213.57651 196.3,214.384 196.3,215.36667C196.3,216.35066 196.3,217.04134 196.3,218.1095C196.3,218.96666 196.3,219.86667 196.3,220.62384C196.3,221.51933 196.3,222.38266 196.3,223.34584C196.3,224.26666 196.31078,225.17123 196.3,226.03334C196.28958,226.86687 196.02563,227.81364 195.65266,228.505C195.23859,229.27258 195.3,230.17117 195.29984,231.188L195.27916,231.86667" id="svg_34" stroke-width="3" stroke="#000" fill="none"/>
  <path t="74831,75019,75019,75071,75101,75101,75101,75101,75121,75121,75135,75154,75161,75161,75178,75186,75198,75205,75209,75218,75225,75242,75252,75270,75282,75291,75292,75298,75338,75353,75354,75379,75380,75386,75386,75457,75466,75474,75474,75507,75524,75551,75554,75554,75570,75580,75594,75594,75602,75617,75642,75642,75682,75694,75722,75761,75761,75827,75894,75929,75937,75945,75969,75969,75977,75985,75995,75995,76001,76009,76009,76017,76025,76033,76041,76049,76057,76065,76089,76089,76105,76121,76121,76129,76137,76146,76146,76169,76169,76185,76185,76201,76201,76209,76209,76217,76233,76233,76241,76249,76265,76273,76281,76297,76305,76313,76313,76321,76329,76346,76362,76369,76385,76395,76417,76417,76433,76433,76473,76482,76482,76489,76498,76505,76513,76532,76553,76577,76617,76633,76649,76657,76681,76689" d="M181.3,232.86667C180.3,232.86667 179.45464,232.67682 178.62801,232.97467C177.65604,233.32489 177.28677,233.92084 176.55066,234.62666C176.0627,235.09454 175.35538,236.00276 174.60899,236.5005C173.88596,236.98268 173.33351,237.51398 173.29866,238.34933C173.26492,239.15805 172.67422,239.85352 171.89999,240.29201C171.08438,240.75394 170.38347,241.24426 169.87466,241.84134C169.30756,242.50684 168.83435,243.24214 168.42134,243.96651C167.97057,244.7571 166.94949,244.58354 166.384,245.15199C165.77042,245.76878 165.66138,246.69641 165.3045,247.50951C164.93988,248.34029 164.1627,248.93431 163.7,249.50267C163.04416,250.30824 162.75192,251.07607 162.20016,251.845C161.70189,252.5394 161.42215,253.23236 161.2955,254.16667C161.18416,254.98802 160.4483,255.63326 160.3045,256.50949C160.16231,257.37595 160.3,258.27734 160.3,259.18784C160.3,260.00534 160.38394,260.97778 160.27916,261.88751C160.16722,262.85938 159.59241,263.26794 158.82083,263.86667C158.21371,264.33777 158.3,265.436 158.3,266.21851C158.3,267.1095 158.3,268.06668 158.3,268.96667C158.3,269.86667 158.09055,270.70514 158.35716,271.56668C158.6252,272.43283 159.59865,272.83807 160.49867,272.86667C161.35223,272.8938 162.3,272.86667 163.05716,272.86667C163.94817,272.86667 164.96666,272.86667 165.74283,272.86667C166.65184,272.86667 167.54283,272.86667 168.50133,272.86667C169.18533,272.86667 170.24402,273.16635 171.05716,272.64532C171.79102,272.17511 172.59789,272.026 173.24733,271.51401C173.86194,271.02948 174.67552,271.03857 175.5,270.58133C176.19206,270.19751 176.77214,269.26959 177.62117,268.98801C178.40948,268.72653 179.20467,268.4061 179.82083,267.84583C180.46535,267.25977 181.06381,266.61221 181.3,265.70001C181.48174,264.99811 181.73,264.0278 182.0045,263.46216C182.48947,262.4628 182.83456,261.65866 183.39999,260.88834C183.85088,260.27405 184.97318,259.94232 185.24283,259.15683C185.50565,258.39127 185.38609,257.46542 185.87466,256.84134C186.36719,256.21222 186.29805,255.24706 186.72533,254.46666C187.17569,253.6441 187.3,252.76666 187.3,251.86667C187.3,251.06667 187.3,250.16667 187.3,249.22383C187.3,248.34584 187.3,247.46666 187.3,246.56667C187.3,245.668 187.3,244.78267 187.3,243.86667C187.3,243.1095 187.3,242.214 187.3,241.35066C187.3,240.36667 187.30147,239.38266 187.3,238.692C187.29774,237.62833 186.91493,236.95877 186.32533,236.44133C185.68758,235.88162 185.31287,235.16209 185.3,234.26666C185.28737,233.38734 184.68938,232.87201 183.8,232.86667C182.90001,232.86127 182.0045,232.86667 181.07851,232.86667L180.2,232.86667" id="svg_35" stroke-width="3" stroke="#000" fill="none"/>
  <path t="80635,80737,80737,80766,80771,80787,80794,80801,80817,80825,80833,80841,80857,80867,80882,80890,80924,80937,80937,80965,80965,80987,81018,81041,81057,81067,81113,81130,81185,81186,81217,81249,81257,81257,81275,81289,81314,81314,81314,81361,81361,81386,81505,81546,81590" d="M222.3,136.86667C223.3,136.86667 224.27954,136.40111 225.01466,136.952C225.63106,137.41391 225.3,138.56667 225.3,139.46666C225.3,140.43066 225.3,141.30267 225.3,142.16667C225.3,143.06667 225.3,143.96651 225.3,144.91933C225.3,145.75333 225.58231,146.79262 225.13333,147.53334C224.66551,148.30515 224.3,148.96683 224.3,149.752C224.3,150.692 224.3,151.38266 224.3,152.45599C224.3,153.36667 224.3,154.26666 224.3,155.16667C224.3,156.06534 224.3,156.92799 224.3,157.728C224.3,158.7 224.3,159.56216 224.3,160.46666C224.3,161.3875 224.29939,162.188 224.3,163.04134C224.30067,163.98 224.7115,164.72745 225.46666,165.2C226.18228,165.6478 226.66762,166.19867 227.41333,166.98134C227.9534,167.54819 228.32533,168.43066 228.94733,168.91933L229.29866,169.668L229.3,170.56667" id="svg_36" stroke-width="3" stroke="#000" fill="none"/>
  <path t="84709,84931,84947,84947,85210,85256,85265,85297,85313,85329,85353,85353,85362,85409,85418,85524,85594,85594" d="M231.3,127.86667C229.60001,126.75684 229.11795,126.06409 228.5,125.43467C227.84184,124.76431 227.3,125.3875 227.3,126.26667C227.3,127.16666 227.3,128.06534 227.3,128.91933C227.3,129.86667 226.89728,130.80307 227.38533,131.58133C227.84966,132.32175 228.35716,132.86217 229.17867,133.08817L229.52133,133.96683L229.94733,134.62384" id="svg_37" stroke-width="3" stroke="#000" fill="none"/>
  <path t="86226,86465,86465,86465,86498,86530,86553,86570,86570,86627,86739,86786,86794,86810,86810,86834,86858,86866,86928,86943,86969,87017,87034,87058,87067,87083,87106,87114,87130,87154,87170,87242,87282,87282,87314,87338,87378,87410,87426,87458,87498,87498,87562,87601,87602,87641" d="M231.3,128.86667C231.3,127.86667 231.28201,127.06648 231.3,126.16666C231.31801,125.26613 231.81743,124.51632 232.216,123.66666C232.61961,122.80625 232.75781,122.06487 233.28934,121.30267C233.68127,120.74065 234.42523,120.31342 235.01601,119.78267C235.73822,119.13383 236.45552,119.12691 237.18567,118.514C237.76836,118.02488 238.59789,118.02601 239.24733,117.514C239.86194,117.02946 240.6906,116.91418 241.584,116.86667C242.38741,116.82394 242.95839,116.05693 243.89999,115.87733C244.76366,115.7126 245.13484,115.19801 245.82083,114.8875C246.62199,114.52486 247.60001,114.86667 248.49867,114.86667C249.46666,114.86667 250.3,114.86667 251.10001,114.86667C252,114.86667 252.94284,114.86667 253.82083,114.86667C254.7,114.86667 255.60001,114.86667 256.5,114.86667C257.40018,114.86667 258.18533,114.86667 259.12534,114.86667L260.13333,114.86667L260.88934,114.86667L261.79999,114.86667" id="svg_38" stroke-width="3" stroke="#000" fill="none"/>
  <path t="91570,91782,91797,91797,91817,91841,91841,91849,91865,91881,91881,91889,91905,91913,91913,91929,91945,91961,91978,91978,92033,92033,92049,92073,92081,92097,92098,92145,92153,92161,92201" d="M231.3,240.86667C231.3,242.62384 231.3,243.51933 231.3,244.38266C231.3,245.24133 231.3,246.188 231.3,247.04134C231.3,247.98 231.3,248.91933 231.3,249.86667C231.3,250.66667 231.3,251.46666 231.3,252.3875C231.3,253.35066 231.3,254.04134 231.3,255.1095C231.3,256.06668 231.3,256.96667 231.3,257.86667C231.3,258.62384 231.3,259.51483 231.3,260.29733C231.3,261.30267 231.20499,262.27249 231.30133,263.06668C231.41289,263.98627 232.01601,264.58133 232.336,265.44135L233.01601,265.95065L233.29866,266.668L233.35716,267.56668" id="svg_39" stroke-width="3" stroke="#000" fill="none"/>
  <path t="92801,93032,93048,93065,93081,93081,93089,93113,93121,93153,93153,93177,93177,93201,93225,93225,93265,93281,93298,93298,93321,93368,93369,93378,93378,93409,93441,93490,93505,93521,93545,93561,93577,93601,93609,93640,93657,93673,93713,93745,93777" d="M229.3,241.86667C231.27867,244.42 231.2146,245.34421 231.584,246.06667C232.02579,246.93073 232.10338,247.70122 232.35716,248.56667C232.61446,249.44411 233.27139,250.16975 233.3,251.03334C233.32759,251.86621 233.28239,252.84535 233.3,253.66533C233.31801,254.50325 233.60872,255.33867 233.94733,256.15683C234.32816,257.07703 234.11865,258.02014 234.46666,258.86667C234.74255,259.53775 235.18016,260.37375 235.46666,261.20001C235.71696,261.92191 236.04875,262.88916 236.384,263.66534C236.74446,264.49994 237.3,265.15201 237.3,266.06668C237.3,266.96667 237.3,267.86667 237.3,268.74533C237.3,269.57117 237.3,270.46667 237.3,271.36667C237.3,272.25601 237.3,273.15201 237.3,274.06668C237.3,274.96667 237.3,275.86667 237.3,276.74533L237.3,277.57117" id="svg_40" stroke-width="3" stroke="#000" fill="none"/>
  <path t="110138,110232,110241,110241,110241,110249,110249,110249,110249,110257,110257,110257,110257,110265,110265,110265,110265,110265,110273,110273,110273,110273,110273,110273,110273,110281,110281,110281,110281,110281,110289,110289,110289,110289,110289,110289,110289,110301,110301,110301,110301,110301,110305,110305,110305,110305,110313,110313,110313,110313,110321,110321,110329,110329,110337,110337,110345,110353,110353,110361,110362,110369,110369,110378,110385,110395,110395,110401,110401,110409,110409,110409,110417,110425,110425,110433,110433,110441,110441,110441,110449,110449,110449,110457,110465,110465,110473,110473,110473,110481,110481,110489,110489,110497,110497,110505,110505,110505,110513,110513,110513,110521,110521,110521,110521,110529,110529,110529,110529,110529,110537,110537,110537,110537,110537,110537,110545,110545,110545,110545,110553,110553,110553,110553,110553,110561,110562,110562,110562,110562,110569,110569,110569,110569,110569,110569,110577,110578,110578,110578,110578,110585,110585,110585,110585,110594,110595,110595,110595,110601,110601,110601,110609,110609,110617,110625,110625,110633,110633,110641,110649,110649,110657,110673,110681,110689,110753,110777" d="M0.3,192.86667C1.972,193.892 2.84163,194.09296 3.572,194.29201C4.40747,194.5197 5.5986,194.76216 6.2045,194.80949C7.13433,194.88214 7.78537,194.85796 9.18533,194.868C9.93604,194.87338 10.71217,194.88261 11.50133,194.952C12.70357,195.05769 13.51421,195.2202 14.3625,195.3875C14.80838,195.47543 15.75432,195.67702 16.8,195.86667C17.95024,196.07527 18.55747,196.16576 19.176,196.256C20.42296,196.43791 21.04128,196.51591 21.648,196.58133C23.33418,196.76314 23.8478,196.78603 24.824,196.84134C25.29991,196.8683 26.2594,196.90175 27.8,197.03334C28.36459,197.08156 28.95229,197.14815 30.176,197.29201C30.80015,197.36539 31.42307,197.44958 32.648,197.58267C33.79918,197.70775 34.33463,197.75717 35.324,197.80949C36.21616,197.85667 37.02933,197.86441 38.13334,197.86667C39.14733,197.86873 39.8,197.86667 40.784,197.86667C41.821,197.86667 42.54367,197.86667 43.25834,197.86667C44.24533,197.86667 45.24667,197.86667 46.10083,197.86667C47.068,197.86667 47.8,197.86667 48.96667,197.86667C49.75834,197.86667 50.6045,197.86667 51.62133,197.86667C52.3,197.86667 53.27867,197.86667 54.184,197.86667C55.12533,197.86667 55.816,197.86667 56.88933,197.86667C57.71067,197.86667 58.6215,197.86667 59.51067,197.86667C60.5,197.86667 61.3,197.86667 62.3,197.86667C63.08933,197.86667 63.81467,197.86667 64.8,197.86667C65.78533,197.86667 66.51067,197.86667 67.50017,197.86667C68.32083,197.86667 69.46667,197.86667 70.25267,197.86667C71.07467,197.86667 72.13333,197.86667 72.83833,197.86667C73.63834,197.86667 74.67467,197.86667 75.6215,197.86667C76.32083,197.86667 77.3,197.86667 78.1,197.86667C78.9,197.86667 79.90662,197.80847 80.7,197.92383C81.71473,198.07138 82.47784,198.52721 83.5,198.74516C84.28859,198.91331 85.3,198.86667 86.11066,198.86667C86.75716,198.86667 87.7215,198.86667 88.536,198.86667C89.4045,198.86667 90.60033,198.86667 91.209,198.86667C92.172,198.86667 92.87067,198.86667 94.04317,198.86667C94.91883,198.86667 95.38267,198.86667 96.35733,198.86667C97.388,198.86667 98.46667,198.86667 99.58134,198.86667C100.14367,198.86667 100.704,198.86667 101.80267,198.86667C102.333,198.86667 103.8,198.86667 104.64533,198.86667C105.40266,198.86667 106.44366,198.86667 107.46667,198.86667C108.18667,198.86667 108.94667,198.86667 109.74667,198.86667C110.58667,198.86667 111.92167,198.86667 112.38667,198.86667C113.34666,198.86667 114.34666,198.86667 114.86166,198.86667C116.46667,198.86667 117.021,198.86667 118.14367,198.86667C118.704,198.86667 119.25833,198.86667 120.333,198.86667C121.8,198.86667 122.64533,198.86667 123.40266,198.86667C124.104,198.86667 124.78133,198.86667 126.18533,198.86667C126.936,198.86667 127.71066,198.86667 128.50133,198.86667C129.69966,198.86667 130.491,198.86667 131.25833,198.86667C131.98567,198.86667 133.257,198.86667 134.028,198.86667C134.89734,198.86667 135.89549,198.86667 136.64284,198.86667C137.67467,198.86667 138.46666,198.86667 139.3,198.86667C140.2785,198.86667 141.09866,198.86667 142.05716,198.86667C142.95267,198.86667 143.81599,198.86667 144.664,198.86667C145.60001,198.86667 146.5,198.86667 147.39999,198.86667L148.3,198.86667L149.21466,198.86534" id="svg_42" stroke-width="20" stroke="#fff" fill="none"/>
  <path t="111345,111504,111512,111521,111529,111537,111545,111553,111553,111568,111568,111569,111577,111577,111584,111585,111595,111595,111601,111601,111609,111617,111617,111625,111625,111625,111633,111641,111649,111656,111665,111665,111672,111689,111697,111697,111705,111713,111720,111729,111729,111736,111745,111762,111778,111778,111784,111794,111817,111817,111849" d="M-4.7,185.86667C-3,185.86667 -1.99998,185.86067 -1.1,185.86667C-0.29995,185.87201 0.4401,186.46284 1.25183,186.80949C1.95504,187.1098 2.90267,186.86667 3.8955,186.86667C4.64283,186.86667 5.69607,186.79742 6.62133,187.088C7.32128,187.30782 8.1229,187.77846 9.05267,187.86217C9.95353,187.94327 10.7045,187.86667 11.69867,187.86667C12.464,187.86667 13.54736,187.85934 14.46667,187.86667C15.13606,187.87201 16.30717,188.01178 16.8955,188.21933C17.65307,188.48659 18.66348,188.84866 19.6,188.86667C20.49983,188.88397 21.4,188.86667 22.3,188.86667C23.05717,188.86667 23.94817,188.86667 24.96667,188.86667C25.86933,188.86667 26.65183,188.86667 27.54283,188.86667C28.5,188.86667 29.4,188.86667 30.3,188.86667C31.1,188.86667 32,188.86667 32.864,188.86667C33.74667,188.86667 34.62133,188.86667 35.47467,188.86667C36.41333,188.86667 37.384,188.86667 38.3,188.86667L39.1,188.86667L40,188.86667" id="svg_43" stroke-width="20" stroke="#fff" fill="none"/>
  <path t="113369,113512,113512,113520,113521,113528,113536,113536,113536,113544,113545,113552,113553,113553,113561,113561,113569,113569,113578,113579,113579,113585,113585,113596,113596,113596,113596,113601,113602,113611,113612,113612,113617,113617,113618,113626,113626,113626,113633,113634,113634,113634,113634,113642,113642,113642,113642,113649,113650,113650,113650,113657,113657,113657,113658,113658,113666,113666,113666,113666,113673,113673,113673,113674,113682,113682,113682,113689,113690,113690,113699,113700,113705,113706,113714,113714,113714,113721,113721,113721,113730,113730,113746,113753,113753,113762,113779,113785,113785,113796,113801,113812,113817,113818,113834,113841,113850,113850,113857,113866,113873,113874,113874,113882,113883,113883,113890,113890,113890,113898,113898,113898,113898,113898,113905,113906,113906,113906,113906,113914,113914,113914,113914,113914,113914,113914,113921,113922,113922,113922,113922,113922,113922,113930,113930,113930,113930,113930,113930,113930,113930,113938,113938,113938,113938,113938,113938,113938,113946,113946,113946,113947,113947,113947,113947,113953,113954,113954,113954,113954,113954,113954,113962,113962,113963,113963,113963,113963,113969,113970,113970,113970,113979,113979,113979,113980,113980,113980,113986,113986,113986,113996,113996,113996,114001,114002,114013,114013,114013,114027,114027,114049,114081,114082,114098,114098" d="M5.3,184.86667C6.172,184.86667 6.90267,184.86667 7.8955,184.86667C8.64283,184.86667 9.68533,184.86667 10.63333,184.86667C11.30533,184.86667 12.29467,184.86667 13.332,184.86667C14.10533,184.86667 15.06933,184.86667 15.82083,184.86667C16.61733,184.86667 17.61467,184.86667 18.48933,184.86667C19.5,184.86667 20.3,184.86667 21.3,184.86667C22.1,184.86667 22.90033,184.84497 23.909,184.87117C24.57253,184.8884 25.63758,185.01289 26.60083,185.22383C27.28248,185.37309 27.96465,185.50261 29.03583,185.96651C29.80163,186.29816 30.84003,186.77347 31.56133,186.83067C32.34998,186.89322 33.38,186.83388 34.3,186.8875C34.98587,186.92747 35.98916,187.14771 36.8625,187.3875C37.51973,187.56795 38.6313,187.87541 39.468,188.06534C40.34862,188.26523 40.79747,188.36031 41.69467,188.50951C42.96343,188.7205 43.72985,188.79492 44.43867,188.83067C45.44738,188.88155 46.46667,188.86667 47.18533,188.86667C47.936,188.86667 49.1045,188.86568 50.3,188.86667C51.1,188.86734 51.90047,188.86536 52.7,188.90266C53.50065,188.94002 54.30191,189.02097 55.09867,189.15067C55.89143,189.27972 57.03852,189.5414 58.13334,189.7C58.81242,189.79837 59.77902,189.85284 60.3955,189.86217C61.59987,189.88037 62.2,189.86667 63.1,189.86667C64.3,189.86667 65.191,189.86667 65.75833,189.86667C66.96667,189.86667 67.77917,189.86667 68.62167,189.86667C69.54667,189.86667 70.46667,189.86667 71.25267,189.86667C72.07467,189.86667 73.13333,189.86667 73.84283,189.86667C74.6955,189.86667 75.69733,189.86667 76.58566,189.86667C77.58533,189.86667 78.50134,189.86667 79.18533,189.86667C80.11467,189.86667 81.14214,189.89047 81.86933,189.58267C82.66383,189.24638 83.54155,188.89526 84.5,188.86667C85.3996,188.83983 86.3,188.86667 87.05717,188.86667C87.94817,188.86667 88.96667,188.86667 89.86933,188.86667C90.65183,188.86667 91.54283,188.86667 92.50134,188.86667C93.46667,188.86667 94.1519,188.90111 94.98666,188.78133C95.99458,188.6367 96.81692,188.35019 97.4045,188.21933C98.59319,187.95462 99.51034,187.89252 100.136,187.87733C101.46632,187.84506 102.18667,187.86667 102.94667,187.86667C103.74667,187.86667 104.58667,187.86667 105.92167,187.86667C106.38667,187.86667 107.34666,187.86667 107.84167,187.86667C108.86166,187.86667 110.46667,187.86667 111.0215,187.86667C111.58533,187.86667 112.736,187.86667 113.32083,187.86667C113.91067,187.86667 115.10133,187.86667 116.3,187.86667C116.90017,187.86667 118.1045,187.86667 118.71066,187.86667C119.32083,187.86667 120.55717,187.86667 121.18533,187.86667C122.46667,187.86667 123.1215,187.86667 124.45717,187.86667C125.136,187.86667 125.82083,187.86667 126.51067,187.86667C127.2045,187.86667 127.90134,187.86667 129.99966,187.86667C130.69733,187.86667 131.39101,187.86667 132.07866,187.86667C132.75833,187.86667 133.42799,187.86667 134.72934,187.86667C135.96666,187.86667 136.55736,187.87065 137.69467,187.86217C138.24934,187.85803 139.3508,187.83395 139.90533,187.80949C140.46815,187.78467 142.2429,187.64766 142.868,187.58267C143.50558,187.51637 144.1505,187.43982 145.44934,187.29201C146.09457,187.21858 146.73007,187.12733 148.55684,186.98817C149.1275,186.9447 149.68088,186.91432 150.7375,186.8875C151.73366,186.86221 152.21201,186.87065 153.57867,186.8665C154.44733,186.86386 155.30092,186.86311 156.15266,186.80949C157.46861,186.72665 157.92224,186.65379 158.84367,186.51401C159.75964,186.37506 160.6322,186.21437 161.04533,186.15067C162.44284,185.93518 163.25815,185.87871 163.98134,185.868C164.98389,185.85315 165.8062,185.90068 166.616,185.78133C167.86255,185.5976 168.51062,185.23082 169.46666,185.03334C170.23949,184.8737 171.03864,184.87201 172.157,184.86667C172.99098,184.86269 173.936,184.83067 174.784,184.58133L175.47467,184.256L176.27834,183.76683L176.93834,183.22383" id="svg_44" stroke-width="3" stroke="#000" fill="none"/>
  <path t="115066,115201,115211,115211,115211,115218,115218,115218,115218,115226,115226,115226,115226,115226,115226,115234,115234,115234,115234,115242,115242,115242,115243,115243,115250,115250,115250,115250,115250,115250,115250,115258,115258,115258,115258,115258,115258,115258,115267,115267,115267,115267,115267,115267,115273,115274,115274,115274,115274,115274,115281,115282,115282,115282,115282,115282,115289,115290,115290,115290,115290,115290,115290,115299,115299,115299,115299,115299,115305,115306,115306,115306,115319,115319,115319,115319,115319,115323,115324,115324,115330,115330,115330,115337,115345,115346,115346,115353,115365,115385,115385,115401,115402,115409,115418,115418,115426,115426,115426,115434,115434,115434,115441,115442,115442,115450,115450,115450,115457,115458,115458,115468,115468,115469,115473,115474,115474,115482,115482,115482,115489,115490,115490,115490,115501,115501,115501,115505,115506,115506,115514,115514,115521,115522,115522,115522,115534,115534,115534,115534,115537,115538,115538,115538,115545,115545,115546,115546,115554,115554,115554,115568,115568,115568,115570,115570,115570,115577,115578,115578,115586,115586,115593,115594,115594,115605,115605,115605,115609,115610,115610,115618,115618,115618,115625,115626,115626,115639,115639,115639,115639,115641,115642,115650,115650,115650,115657,115658,115658,115658,115666,115666,115674,115674,115690,115690,115691,115700,115700,115700,115700,115700,115700,115705,115706,115706,115714,115714,115714,115714,115722,115722,115722,115738,115738,115738,115745,115746,115746,115746,115746,115754,115754,115754,115761,115762,115770,115770,115785,115793,115794,115802,115809,115826,115826,115834,115834,115834,115841,115842,115842,115842,115851,115851,115858,115858,115867,115867,115873,115874,115874,115881" d="M288.29999,183.86667C288.58667,184.78133 289.46667,184.86667 290.15732,184.86667C291.07199,184.86667 291.94333,184.86667 292.99335,184.86667C293.79333,184.86667 294.22333,184.86667 295.63333,184.86667C296.66666,184.86667 297.20084,184.86667 298.27917,184.86667C298.81332,184.86667 299.84668,184.86667 300.79999,184.86667C301.64532,184.86667 302.75833,184.86667 303.44366,184.86667C304.46667,184.86667 305.18933,184.86667 305.96799,184.86667C306.81866,184.86667 307.75732,184.86667 308.79999,184.86667C309.95468,184.86667 310.56699,184.86667 311.19733,184.86667C311.84167,184.86667 313.15634,184.86667 313.81866,184.86667C315.13333,184.86667 315.7785,184.86667 317.04285,184.86667C317.664,184.86667 318.27917,184.86667 319.49551,184.86667C320.09866,184.86667 321.29999,184.86667 322.49734,184.86667C323.091,184.86667 323.67868,184.86667 324.828,184.86667C325.38568,184.86667 326.96667,184.86667 327.45734,184.86667C328.39465,184.86667 329.29999,184.86667 330.20532,184.86667C330.668,184.86667 332.14316,184.86667 332.672,184.86667C333.78265,184.86667 334.36249,184.86667 334.95734,184.86667C336.18799,184.86667 337.46667,184.86667 338.121,184.86667C338.78134,184.86667 340.104,184.86667 340.75833,184.86667C341.40268,184.86667 342.03299,184.86667 343.79999,184.86667C344.33533,184.86667 345.32401,184.86667 346.21667,184.86667C347.02933,184.86667 348.13333,184.86667 348.81732,184.86667C349.82083,184.86667 350.50983,184.86667 351.63333,184.86667C352.46667,184.86667 353.34,184.86667 354.21335,184.86667C355.04666,184.86667 356.13568,184.86667 357.00266,184.86667C357.74365,184.86667 358.72101,184.86667 359.504,184.86667C360.44534,184.86667 361.37759,184.79715 362.15332,184.29866C362.8222,183.86882 363.47308,183.27765 364.48117,182.981C365.35419,182.72411 366.29999,182.86667 367.10001,182.86667C368,182.86667 368.89999,182.86667 369.82083,182.86667C370.62149,182.86667 371.51068,182.86667 372.50015,182.86667C373.32083,182.86667 373.98532,182.86667 374.98532,182.86667C375.82083,182.86667 376.70132,182.86667 377.89999,182.86667C378.5,182.86667 379.39999,182.86667 380.59982,182.86667C381.1955,182.86667 382.064,182.86667 383.13333,182.86667C384.07468,182.86667 384.75266,182.86667 385.72134,182.86667C386.52533,182.86667 387.34732,182.86667 388.37866,182.86667C389.29999,182.86667 389.98401,182.86667 390.98666,182.86667C391.84167,182.86667 392.78665,182.86667 393.82117,182.86667C394.54816,182.86667 395.27917,182.86667 396.33066,182.86667C397.25717,182.86667 398.03867,182.86667 398.98267,182.86667C399.98401,182.86667 400.79999,182.86667 401.616,182.86667C402.61734,182.86667 403.56134,182.86667 404.63333,182.86667C405.26935,182.86667 405.96133,182.86667 407.05182,182.86667C408.13333,182.86667 408.81467,182.86667 409.77917,182.86667C410.39551,182.86667 411.6004,182.85365 412.51068,182.87733C413.13629,182.89362 413.79044,182.91898 415.18399,183.15067C415.92847,183.27444 416.67218,183.45493 417.41599,183.58267C418.47519,183.76459 419.45294,183.8445 420.33835,183.86217C421.37848,183.88292 422.07468,183.86667 422.98401,183.86667C423.98532,183.86667 424.82083,183.86667 425.40451,183.86667C426.59967,183.86667 427.47867,183.86667 428.28568,183.86667C429.332,183.86667 430.10535,183.86667 431.07068,183.86667C431.84167,183.86667 432.70267,183.86667 433.59982,183.86667C434.48932,183.86667 435.34283,183.86667 436.37866,183.86667C437.29999,183.86667 437.98401,183.86667 438.98532,183.86667C439.82083,183.86667 440.70132,183.86667 441.60016,183.86667C442.51068,183.86667 443.13599,183.86667 444.46667,183.86667C445.18134,183.86667 445.90399,183.86659 446.93301,183.86667C448.03583,183.86676 448.78851,183.84064 449.63333,184.03334C450.58542,184.25052 451.12161,184.47653 452.29999,184.86667C452.8988,185.06493 453.77069,185.37831 454.61465,185.58133C455.60617,185.81984 456.48929,185.86133 457.5,185.86667C458.29999,185.8709 459.30048,185.84711 460.14267,185.87733C460.92953,185.90558 461.96725,186.02921 462.836,186.15067C463.311,186.21707 464.29968,186.36873 465.28934,186.51401C465.76385,186.58366 467.01251,186.76932 467.97733,186.83067C468.79529,186.88269 469.94266,186.86667 470.60535,186.86667C471.29999,186.86667 472.332,186.86667 473.25717,186.86667C474.27917,186.86667 474.98267,186.86667 475.98801,186.86667C476.86249,186.86667 477.51883,186.86667 478.63333,186.86667C479.46667,186.86667 480.34,186.86667 481.21335,186.86667C482.04666,186.86667 483.1355,186.86667 483.992,186.86667C484.896,186.86667 485.89999,186.86667 486.70001,186.86667C487.69867,186.86667 488.46399,186.86667 489.41467,186.86667C490.29999,186.86667 491.05716,186.86667 491.94818,186.86667C492.96667,186.86667 493.87201,186.86667 494.55734,186.86667C495.7215,186.86667 496.53601,186.86667 497.11066,186.86667C498.29999,186.86667 499.1955,186.86667 499.77917,186.86667C500.61465,186.86667 501.84283,186.86667 502.6955,186.86667C503.70001,186.86667 504.5,186.86667 505.5,186.86667C506.29999,186.86667 507.29999,186.86667 508.08932,186.86667L508.81467,186.86667L509.77917,186.86667" id="svg_45" stroke-width="3" stroke="#000" fill="none"/>
  <path t="116905,117009,117009,117018,117025,117033,117049,117049,117057,117058,117067,117067,117067,117081,117089,117089,117089,117097,117097,117113,117121,117129,117129,117137,117137,117145,117153,117153,117161,117161,117161,117169,117169,117178,117185,117186,117201,117225,117226,117241,117305,117329,117337,117345,117353,117361,117362,117369,117378,117378,117386,117395,117401,117402,117411,117417,117418,117425,117425,117425,117433,117433,117441,117449,117450,117457,117457,117465,117481,117489,117529,117553,117569,117569,117578,117578,117595,117595,117595,117595,117602,117602,117602,117602,117617,117617,117641,117665,117665,117673,117913,117913,117921,117929,117945,117953,117977,118017,118017,118081,118097,118105,118114,118121,118129,118130,118130,118137,118138,118138,118145,118154,118154,118161,118161,118178,118178,118178,118186,118186,118195,118195,118195,118202,118211,118218,118218,118225,118233,118234,118249,118273,118273,118337,118361,118377,118385,118385,118401,118402,118410,118426,118441,118457,118457,118466,118498,118498,118537,118537,118553,118561,118578,118586,118586,118595,118595,118602,118602,118602,118602,118611,118611,118611,118618,118618,118625,118625,118633,118634,118634,118641,118641,118649,118649,118657,118665,118665,118673,118674,118681,118753,118793,118809,118809,118817,118881,118889,118897,118905,118906,118914,118914,118921,118922,118929,118930,118937,118938,118938,118938,118945,118945,118954,118954,118961,118961,118970,118977,118977,118986,119002,119137,119161,119177,119201,119217,119218,119227,119227,119233,119281,119321,119345,119345,119345,119353,119361,119362,119369,119370,119377,119377,119386,119386,119401,119417,119449,119553,119561,119561,119570,119577,119577,119578,119586,119586,119586,119594,119609,119665,119665,119713,119729,119753,119769,119785,119786,119794,119794,119794,119802,119825,119825,119833,119834,119841,119857,119857,119866,119873,119874,119921,119961,119969,119977,119994,120026,120026,120033,120041,120049,120058,120058,120058,120058,120065,120066,120066,120066,120073,120074,120074,120081,120082,120089,120105,120105,120129,120129,120169,120169,120177,120186,120194,120210,120227,120233,120241,120242,120265,120297,120305,120321,120329,120329,120338,120338,120345,120345,120353,120369,120370,120370,120377,120425,120441,120449,120457,120458,120465,120473,120481,120505,120505,120513,120522,120529,120545,120554,120561,120561,120570,120570,120577,120586,120586,120594,120594,120602,120602,120610,120618,120618,120627,120634,120665,120689,120689,120713,120729,120745,120761,120762,120769,120777,120794,120801,120810,120817,120827,120833,120834,120841,120849,120865,120873,120873,120881,120889,120890,120905,120913,120922,120945,120953,120954,120985,121001,121041,121097,121169,121185,121225" d="M0.3,25.86667C1.58533,26.43467 1.90571,27.28807 2.7,27.80533C3.43017,28.28084 4.48113,28.41674 5.13333,29.03333C5.7107,29.57917 5.98941,30.54476 6.52133,31.04133C7.26685,31.7373 8.15439,32.13454 8.72933,32.66533C9.40562,33.2897 9.71634,34.21197 10.172,34.692C10.8642,35.42122 11.68722,35.99725 12.428,36.42C13.21765,36.87064 13.00244,37.8513 13.5215,38.624C13.91771,39.21381 14.68222,39.73917 15.1,40.384C15.66569,41.25711 16.19681,42.02489 16.27917,42.8875C16.37225,43.86246 16.29819,44.66667 16.3,45.46667C16.30225,46.46217 16.25424,47.25271 16.72533,48.23067C17.1005,49.00948 17.29933,49.752 17.3,50.692C17.30071,51.7 16.94127,52.54074 17.32083,53.34583C17.65339,54.05122 18.81585,54.02451 19.7,53.856C20.64163,53.67653 21.25189,52.91943 22.00983,52.5095C22.65188,52.16225 23.46806,51.44617 24.3,51.03333C24.9571,50.70726 25.69118,50.28474 26.25183,49.57117C26.79208,48.88356 27.65182,48.86892 28.54733,48.86667C29.46666,48.86436 30.40228,49.01609 31.27883,48.424C31.92305,47.98884 32.22108,47.30519 33.30083,46.9765C33.99278,46.76587 34.91879,46.38705 35.74283,45.988C36.42401,45.65813 37.36399,45.48939 38.09867,45.15067C38.95564,44.75555 39.9,44.86667 40.77917,44.86667C41.65717,44.86667 42.6045,44.86667 43.46667,44.86667C44.3,44.86667 45.30347,44.75006 46.10983,44.981C46.88246,45.20228 47.5867,45.74321 48.15733,46.124C48.79256,46.5479 49.82538,47.28169 50.53917,47.81483C51.24203,48.33982 51.93711,48.79391 52.63334,49.53333C53.21119,50.14704 53.11655,51.24343 53.5215,51.9665C53.93445,52.70386 55.054,52.80586 55.30267,53.43467C55.62635,54.25317 56.37152,55.25413 57.057,54.64517C57.73834,54.03988 57.56289,53.0466 58.25183,52.514C58.91234,52.00338 59.54416,51.74371 60.34817,51.21933C60.97047,50.81346 62.01748,50.71989 62.8,50.8875C63.65263,51.07013 64.46606,51.86765 65.136,52.27733C65.70399,52.62467 66.4996,53.1881 67.27917,53.84583C67.81451,54.29752 68.76561,54.69077 69.4,55.30933C70.01981,55.91367 70.65062,56.69942 71.18533,57.12C71.85228,57.64458 72.28535,58.41793 72.90134,59.1C73.6571,59.93684 74.3476,60.26857 75.13333,61.03333C75.58629,61.4742 76.18745,62.20553 76.77917,62.86667C77.34374,63.49748 77.46748,64.53209 78.10133,64.94933C78.90104,65.47576 79.5,66.06667 80.1,66.66666C80.8,67.36667 81.39771,67.96897 82,68.56667C82.69735,69.25868 83.65788,70.19739 84.21467,69.58C84.80679,68.92343 84.3,67.84583 84.3,66.86667C84.3,66.088 84.14066,65.18104 84.32083,64.34583C84.50028,63.51394 85.08469,62.68849 85.3,61.8875C85.53345,61.01903 86.32689,60.5521 86.8,59.84583C87.33096,59.05322 87.70739,58.20459 88.5955,57.92383C89.43047,57.65987 90.34169,57.8602 91.3,57.86667C92.08939,57.872 93.14373,58.01384 93.82083,58.3875C94.64669,58.84326 95.31071,59.1766 96.12133,59.46667C96.70016,59.67379 97.90284,60.0513 98.75833,60.36667C99.53458,60.65282 100.32752,61.07121 101.04816,61.56667C101.78216,62.07131 102.50959,62.4688 103.5,62.96667C104.09935,63.26796 104.90349,63.65978 105.69867,64.06667C106.46743,64.46004 107.43178,65.04745 107.9955,65.56667C108.61965,66.14154 109.40974,66.71169 110.18533,66.95067C110.96372,67.19051 111.85233,67.6187 112.53833,68.16217C113.29086,68.75834 114.06167,68.86667 114.95267,68.86667C115.816,68.86667 116.75833,68.86667 117.65717,68.86667C118.6,68.86667 119.5,68.86667 120.40017,68.86667C121.18533,68.86667 122.136,68.86667 122.90134,68.86667C123.8955,68.86667 124.65919,68.71098 125.696,68.89867C126.38058,69.0226 127.35371,69.71615 127.976,70.14267C128.62579,70.58805 129.19785,71.10777 130.24533,71.612C131.01326,71.98165 131.97276,72.18626 132.64734,72.57117C133.44069,73.02384 133.99666,73.5655 134.7,74.26667C135.40099,74.96551 135.78964,75.65721 136.3,76.34583C136.81496,77.04064 137.17862,77.70798 137.82083,78.34583C138.46414,78.98477 139.50131,78.91519 140.40016,78.8665C141.18878,78.82378 142.20012,78.54641 142.73067,78.06533C143.50389,77.36422 144.00449,76.86884 144.94284,76.86667C145.96417,76.8643 146.59891,76.78293 147.53334,76.952C148.50363,77.12756 149.05389,77.90061 149.40984,78.62383C149.78906,79.39434 150.42471,80.09211 151.2785,80.624C151.95496,81.04542 152.49553,81.65628 153.10001,82.29867C153.70886,82.94572 154.55882,83.28806 155.39983,83.74533C156.14697,84.15157 155.89035,84.12463 155.584,83.348C155.20694,82.39209 154.85722,81.54494 154.43866,81.02C153.94824,80.40494 153.30943,79.45149 152.936,78.66267C152.59335,77.93885 151.7679,77.47578 151.3,76.7C150.86963,75.98641 151.3,75.06667 151.3,74.16666C151.3,73.22383 151.89636,72.97791 152.7,72.43066C153.38065,71.96718 153.93245,71.2271 154.62134,70.5455C155.12276,70.04939 155.76042,69.32749 156.65334,68.93867C157.43047,68.60026 158.02304,68.12701 158.24733,67.214C158.45586,66.36516 158.7173,65.48537 159.39999,64.76667C159.88698,64.25399 160.72618,63.64991 161.13333,62.86667C161.52,62.12281 161.8436,61.12546 162.7,60.90267C163.57172,60.6759 164.49867,60.86667 165.384,60.86667C166.3,60.86667 167.05716,60.86667 167.94817,60.86667C168.96666,60.86667 169.76625,60.83366 170.63333,61.03333C171.59497,61.25478 172.15599,61.48184 172.78799,61.668C174.17976,62.07795 174.91982,62.26143 175.63867,62.50267C176.336,62.73668 177.27029,63.16765 178.028,63.68134C178.70331,64.13917 179.68961,64.74062 180.42799,64.84534C181.39877,64.98301 182.15192,65.34869 182.90266,65.58266C183.87077,65.88438 184.72934,65.866 185.74283,65.86667C186.48534,65.86716 187.4285,66.03092 188.39983,65.8665C189.25058,65.7225 189.38618,64.78219 189.91066,64.256C190.59663,63.56778 191.02557,62.68105 191.46933,62.06667C191.9968,61.33638 192.95459,60.95039 193.82083,60.86667C194.70654,60.78107 195.62134,60.86667 196.47467,60.86667C197.41733,60.86667 198.10983,60.86667 199.06667,60.86667C200.01334,60.86667 200.936,60.86667 201.8,60.86667C202.58667,60.86667 203.53334,60.86667 204.48117,60.86667C205.36133,60.86667 206.35114,60.49764 207.13066,61.152C207.8226,61.73284 208.15163,62.27753 208.864,62.892C209.4733,63.41757 209.3,64.5095 209.3,65.436C209.3,66.2185 209.3,67.1095 209.3,68.06533C209.3,68.95067 209.3,69.75333 209.3,70.692C209.3,71.7 209.3,72.492 209.3,73.35067C209.3,74.214 209.3,75.114 209.3,76.03333C209.3,76.8875 209.3,77.86667 209.3,78.656C209.3,79.7 209.3,80.456 209.3,81.3875C209.3,82.35067 209.3,83.04134 209.3,84.105C209.3,84.95067 209.66162,85.62795 210.39983,86.08817C211.11699,86.53527 211.28983,87.46666 211.3,88.34583C211.3112,89.31332 211.52829,90.18519 211.8,90.86667C212.18849,91.84107 212.3,92.7 212.3,93.57117C212.3,94.46667 212.19206,95.43362 212.65266,96.16217C213.12433,96.90822 213.3,97.728 213.3,98.384C213.3,99.456 213.3,100.36667 213.3,101.27734C213.3,102.188 213.3,102.86667 213.3,103.98133C213.3,104.86667 213.49594,105.7011 213.24283,106.56667C212.98619,107.4443 212.3286,108.16077 212.3,109.03333C212.27271,109.86622 212.3,110.66666 212.3,111.56667C212.3,112.5095 212.3,113.3875 212.3,114.26667L212.3045,115.16666L212.584,116.06533L213.17867,116.74517" id="svg_46" stroke-width="3" stroke="#000" fill="none"/>
  <path t="122204,122377,122377,122385,122385,122396,122396,122411,122411,122417,122417,122433,122433,122443,122465,122465,122481,122497,122505,122513,122529,122577,122601,122610,122617,122625,122633,122633,122649,122657,122657,122657,122665,122674,122681,122689,122689,122697,122705,122705,122713,122713,122729,122753,122753,122769,122777,122777,122785,122785,122793,122801,122810,122810,122817,122817,122825,122833,122841,122857,122857,122857,122865,122865,122865,122873,122881,122881,122889,122889,122889,122897,122897,122905,122905,122914,122921,122929,122937,122945,122953,122961,122969,122977,122985,123009,123027,123058,123073,123089,123097,123105,123114,123121,123121,123129,123137,123153,123161,123161,123161,123177,123193,123193,123225,123225,123241,123257,123273,123281,123305,123321,123329,123329,123337,123345,123345,123353,123353,123361,123361,123369,123369,123377,123377,123385,123385,123393,123393,123401,123417,123417,123433,123457,123489,123497,123497,123513,123529,123537,123553,123569,123577,123609,123609,123617,123633,123649,123657,123665,123682,123697,123713,123713,123721,123729,123745,123745,123753,123753,123761,123761,123769,123769,123777,123785,123785,123786,123793,123801,123801,123810,123817,123817,123827,123833,123833,123843,123849,123865,123865,123873,123882,123889,123898,123929,123929,123953,123961,123969,123985,123985,123993,124001,124010,124010,124018,124018,124025,124035,124035,124042,124050,124050,124057,124058,124066,124073,124073,124081,124081,124089,124113,124113,124121,124129,124137,124145,124153,124169,124177,124177,124185,124185,124193,124201,124201,124210,124226,124241,124242,124249,124249,124273,124281,124297,124305,124337,124385,124385,124409,124419,124425,124434,124434,124443,124449,124457,124457,124465,124473,124482,124497,124505,124521,124537,124561,124569,124569,124578,124585,124601,124617,124625,124633,124641,124642,124649,124665,124665,124673,124689,124697,124714,124745,124745,124753,124769,124769,124785,124785,124793,124794,124801,124810,124818,124819,124825,124825,124833,124833,124833,124834,124841,124841,124849,124849,124849,124850,124857,124857,124858,124858,124865,124865,124865,124866,124866,124873,124873,124873,124874,124874,124874,124881,124881,124881,124882,124882,124897,124897,124897,124969,124969,125032,125052,125057,125073,125073,125081,125097,125113,125113" d="M263.29999,112.86667C264.29999,112.86667 265.05716,112.86667 265.95715,112.86667C266.90134,112.86667 267.89099,112.86667 268.58566,112.86667C269.63333,112.86667 270.34167,112.86667 271.49985,112.86667C272.27917,112.86667 273.13333,112.86667 273.99551,112.86667C274.936,112.86667 275.78265,112.86667 276.59018,112.86667C277.65717,112.86667 278.5,112.86667 279.39999,112.86667C280.29999,112.86667 280.8446,113.31748 281.58533,113.78133C282.36267,114.26812 283.25726,113.58431 283.29999,112.66666C283.34183,111.76765 283.29999,110.86667 283.29999,110.06667C283.29999,109.19466 283.29999,108.324 283.29999,107.36667C283.29999,106.63467 283.29999,105.54933 283.29999,104.69733C283.29999,103.825 283.29993,102.86667 283.29999,102.088C283.30008,101.10934 283.56149,100.28415 283.91068,99.68134C284.46188,98.72973 284.84998,97.99389 285.2955,97.22383C285.72647,96.47895 286.61285,96.39775 287.19016,95.56667C287.6842,94.85545 288.03101,94.11904 288.784,93.668C289.61688,93.16908 290.54141,92.89527 291.39999,92.86667C292.2995,92.83671 293.05716,92.86667 293.95267,92.86667C294.81601,92.86667 295.77917,92.86667 296.70001,92.86667C297.60901,92.86667 298.63333,92.86667 299.30984,92.86667C300.08533,92.86667 301.13333,92.86667 302.05334,92.86667C302.81332,92.86667 303.79999,92.86667 304.78665,92.86667C305.54666,92.86667 306.46667,92.86667 307.24817,92.86667C308.03867,92.86667 309.15717,92.86667 310.04816,92.86667C310.95267,92.86667 311.81601,92.86667 312.664,92.86667C313.59549,92.86667 314.46933,92.86659 315.32083,92.86667C316.27832,92.86675 316.90753,93.34929 317.58533,93.78133C318.35895,94.27447 319.20789,94.25174 319.72534,94.84133C320.28506,95.47909 321.03122,95.68171 321.89999,95.90266C322.76227,96.12197 323.60181,96.6284 324.216,97.15067C324.86978,97.70657 325.25778,98.40908 325.30133,99.34933C325.33878,100.15789 325.86877,100.79444 326.32535,101.47733C326.82788,102.22898 327.47314,103.027 327.94818,103.51933C328.44553,104.0348 329.01276,105.03559 329.46667,105.86667C329.82446,106.52174 330.59625,107.17045 331.10001,107.66666C331.79483,108.3511 332.87186,108.57333 333.26401,109.30267C333.67148,110.06052 333.73544,110.84866 334.60449,110.86667C335.62094,110.88773 336.43866,110.86667 337.32083,110.86667C338.15332,110.86667 339.06,110.86667 339.96667,110.86667C340.77917,110.86667 341.78534,110.86667 342.51068,110.86667C343.49985,110.86667 344.27917,110.86667 345.27884,110.86667C346.10983,110.86667 347.06995,110.91663 347.77917,110.84583C348.94727,110.72922 349.43854,110.03024 350.32083,109.8875C351.26645,109.73451 352.08997,109.76745 352.86401,109.292C353.57755,108.85373 354.55728,109.03036 355.39999,108.64533C356.06931,108.33953 357.06888,107.93423 357.2955,107.16217C357.5477,106.30291 357.25333,105.30405 357.91068,104.84133C358.63828,104.32917 359.32431,103.66913 360,103.22383C360.7157,102.75217 361.3439,102.20487 362.00449,101.814C362.78995,101.34925 363.59863,100.89526 364.49866,100.86667C365.46619,100.83592 366.29999,100.86667 367.05716,100.86667C368.11465,100.86667 368.96667,100.86667 369.87067,100.86667C370.70901,100.86667 371.70001,100.86667 372.5,100.86667C373.5,100.86667 374.29999,100.86667 375.29999,100.86667C376.07867,100.86667 376.96667,100.86667 377.96417,100.86667C378.58667,100.86667 379.53333,100.86667 380.48566,100.86667C381.40018,100.86667 382.18533,100.86667 383.12534,100.86667C384.13333,100.86667 384.88934,100.86667 385.82083,100.86667C386.784,100.86667 387.47467,100.86667 388.54285,100.86667C389.39999,100.86667 390.30038,100.89204 391.10001,100.86667C392.00137,100.83807 392.97415,100.43262 393.24283,99.56667C393.5101,98.70527 393.49307,97.74262 394.00449,97.16666C394.65469,96.43438 394.90808,95.56124 395.58533,94.95067C396.23154,94.36807 396.94611,94.10234 397.70001,93.47733C398.35745,92.93231 399.3938,93.10883 400.10001,92.696C400.8829,92.23833 400.98175,91.18324 401.936,90.888C402.90747,90.58744 403.64734,90.86676 404.67465,90.86667C405.62149,90.86658 406.33707,90.92981 407.29999,90.7C408.09808,90.50951 408.95526,89.95035 409.87067,89.86667C410.51862,89.80743 411.49966,89.86667 412.42801,89.86667C413.38266,89.86667 414.29999,89.86667 415.05716,89.86667C415.94818,89.86667 416.96667,89.86667 417.82083,89.86667C418.70001,89.86667 419.6033,89.79099 420.50134,89.868C421.47714,89.95169 422.23911,90.14926 422.96667,90.86667C423.52084,91.41308 424.20093,91.6983 425.13333,92.03333C425.9418,92.32383 426.74112,92.78664 427.32083,93.3875C427.92712,94.01591 428.63315,94.38315 429.13068,95.34933C429.4426,95.95506 429.83603,96.70638 430.70001,96.87733C431.5285,97.04128 431.92072,97.98762 432.46667,98.7C432.97357,99.36142 432.74698,100.29629 433.38535,100.86667C433.98291,101.40057 435.12534,100.86667 436.13333,100.86667C436.88934,100.86667 437.81311,101.00942 438.70001,100.856C439.53345,100.71183 440.18826,100.14141 440.77917,99.36667C441.33896,98.63274 441.77399,97.97292 442.5,97.58266C443.35477,97.1232 444.30518,97.232 445.01599,96.78133C445.75354,96.31373 446.29999,95.86667 447.10001,95.86667C448,95.86667 448.94284,95.86667 449.82083,95.86667C450.70001,95.86667 451.60001,95.86667 452.5,95.86667C453.40018,95.86667 454.18533,95.86667 455.12534,95.86667C456.13333,95.86667 456.88934,95.86667 457.79999,95.86667C458.70001,95.86667 459.60001,95.86667 460.49866,95.86667C461.46667,95.86667 462.18668,95.86667 463.12534,95.86667C464.13333,95.86667 464.92532,95.86667 465.78534,95.86667C466.7045,95.86667 467.69733,95.86667 468.42801,95.86667C469.40533,95.86667 470.32147,95.83156 471.27866,95.86684C472.05423,95.89542 472.97064,96.2106 473.54666,96.51334C474.48212,97.00499 475.25211,97.5134 475.77917,97.86667C476.53641,98.37421 477.31473,99.00749 477.98666,99.492C478.77914,100.06342 479.66302,100.52713 480.34167,100.86667C481.05228,101.22221 482.13077,101.70628 482.81601,101.98267C483.47226,102.24737 484.45926,102.60352 485.46667,103.03333C486.19025,103.34205 486.94067,103.70443 487.71066,104.11333C488.10693,104.32378 489.30453,105.02637 490.10001,105.55067C490.50232,105.81583 491.29767,106.37009 492.10001,106.914C492.49884,107.18438 493.69254,107.95786 494.49551,108.405C495.27231,108.83755 495.65683,109.03538 496.41467,109.38C497.79947,110.0097 498.45227,110.20728 499.28116,110.56216C500.16782,110.94179 500.76108,111.64191 501.65717,111.86667C502.47467,112.07172 503.45425,111.6834 504.29999,112.03333C505.08463,112.35799 505.79999,112.84583 506.71066,112.87733L507.62115,113.08817L508.27917,113.3875" id="svg_47" stroke-width="3" stroke="#000" fill="none"/>
  <path t="127905,128017,128025,128041,128049,128065,128065,128081,128088,128161,128241,128321,128401" d="M249.3,205.86667C251.88933,205.86667 252.83475,205.91959 253.60001,205.51401C254.44589,205.0657 255.3,204.86667 256.10001,204.86667C257,204.86667 257.89999,204.86667 258.79999,204.86667L259.68933,204.856L260.29999,204.36667L260.94733,203.87117" id="svg_48" stroke-width="3" stroke="#000" fill="none"/>
  <path t="131651,131833,131850,131860,131873,131906,131937,132057,132081,132098,132122" d="M212.3,116.86667C213.3,116.86667 214.10176,116.83871 215.01466,116.86667C215.94864,116.89526 216.46912,117.39899 217.24733,117.87117C217.99312,118.32368 218.27467,119.26667 218.584,120.06533L219.1785,120.74533" id="svg_49" stroke-width="3" stroke="#000" fill="none"/>
 </g>
</svg>