<svg width="500" height="333.3333333333333" xmlns="http://www.w3.org/2000/svg" xmlns:svg="http://www.w3.org/2000/svg" xmlns:xlink="http://www.w3.org/1999/xlink">
 <!-- Created with SVG-edit - http://svg-edit.googlecode.com/ -->
 <g display="inline" class="layer">
  <title>Layer 1</title>
  <path t="0,213,284,332,364,396,404,452,468,482,482,484,787,812,832,836,836,851,868,885,892,902,918,935,940,956,956,972,996,1004,1028,1052,1068,1092,1108,1132,1140,1156,1168,1187,1196,1228,1244,1339,1371,1380,1388,1468,1508,1524,1537,1580,1604,1612,1612,1622,1643,1668,1709,1740,1748,1780,1812,1824,1838,1868,1868,1893,1895,1908,1924,1941,1948,1963,1979,1979,1988,2005,2021,2038,2043,2059,2075,2083,2083,2099,2115,2131,2139,2155,2172,2189,2206,2206,2227,2267,2276,2476,2500,2515,2540,2563,2580,2595,2596,2611,2635,2660,2668,2679,2694,2700,2723,2732,2747,2795,2811,2811,2843,2875,2897,2900,2911,2930,2940,2956,2971,2982,2988,3003,3035,3048,3067,3068,3108,3139,3156,3165,3212,3259,3291,3308,3324,3349,3364,3387,3587,3599,3615,3635,3644,3644,3653,3669,3685,3692,3707,3723,3739,3748,3748,3766,3782,3787,3799,3815,3833,3851,3859,3875,3891,3903,3903,3920,3924,3936,3953,3955,3971,3995,4003,4011,4019,4043,4059,4068,4085,4085,4091,4107,4119,4136,4139,4155,4169,4171,4187,4187,4195,4211,4227,4236,4253,4269,4287,4287,4291,4307,4323,4339,4355,4387,4467,4475,4476" d="M102.5,211.16667C104.3,211.16667 105.2,211.16667 106.1,211.16667C107,211.16667 107.9,211.16667 108.8,211.16667C109.7,211.16667 110.6,211.16667 111.5,211.16667C112.3,211.16667 112.80783,211.62683 113.66666,212C114.36128,212.30182 114.4522,211.0654 114.5,210.16667C114.54272,209.36327 115.24694,208.62949 115.464,207.76666C115.68374,206.89316 115.34066,205.86879 115.85267,205.21933C116.3372,204.60472 116.38351,203.7585 116.5045,202.86667C116.61593,202.04532 117.34586,201.39981 117.48933,200.56667C117.64209,199.67967 117.5,198.76666 117.5,197.86667C117.5,196.96667 117.27749,195.95076 117.784,195.25067C118.28577,194.55711 118.30511,193.84499 118.50134,192.968C118.68192,192.16095 119.54771,191.8064 120.07467,191.14134C120.57086,190.51512 120.64533,189.72073 121.216,189.08267C121.79893,188.43091 122.64098,188.47151 123.37867,187.94533C124.08454,187.44185 124.30685,186.49614 125.02084,186.1875C125.82806,185.83855 126.8,186.16667 127.7,186.16667C128.60001,186.16667 129.50087,186.12947 130.3,186.16667C131.21764,186.20938 131.41133,187.12242 132.11067,187.73067C132.84393,188.36841 133.49466,188.77728 133.5,189.66667C133.5054,190.56665 133.5,191.46667 133.5,192.36667C133.5,193.26666 133.5,194.16667 133.5,194.96667C133.5,195.86667 133.5,196.76666 133.5,197.66667C133.5,198.56667 133.5,199.46667 133.5,200.36667C133.5,201.26666 133.5,202.16667 133.5,202.96667C133.5,203.86667 133.5,204.76666 133.5,205.66667C133.5,206.56667 133.5,207.46667 133.5,208.36667C133.5,209.26666 133.5,210.16667 133.5,210.96667C133.5,211.86667 133.5,212.76666 133.5,213.66667C133.5,214.56667 133.5,215.46667 133.5,216.36667C133.5,217.26666 133.5,218.16667 133.5,218.96667C133.5,219.86667 133.4946,220.76668 133.5,221.66667C133.50534,222.55605 133.91454,223.25073 134.55267,223.814C135.14807,224.33954 135.81763,224.91325 136.416,225.45067C137.05446,226.02409 137.37392,226.89226 138.11067,227.15601C138.94803,227.45576 139.91737,227.25615 140.52533,227.74133C141.14983,228.23972 142.17857,227.82361 142.97917,228.1875C143.7524,228.53896 144.32741,228.75546 145.14284,229.22383C145.95482,229.69022 146.50087,230.12947 147.3,230.16667C148.21764,230.20938 148.73207,230.98445 149.59984,231.16684C150.39214,231.33337 150.88222,231.95596 151.69867,232.168C152.49911,232.37589 152.9968,232.83911 153.88933,233.17734C154.62109,233.45464 155.13046,233.99826 156,234.1875C156.84628,234.37169 157.59389,235.10579 158.5,235.16667C159.2982,235.22031 160.20006,235.15601 161.10001,235.16667C161.97935,235.17709 162.4366,235.94145 163.2045,236.16217C164.06517,236.40955 165.03474,236.11377 165.8,236.51933C166.64589,236.96764 167.63789,236.84488 168.33333,237.33333C169.04852,237.83565 169.95276,238.49773 170.41467,237.88133C170.96556,237.14621 170.5,236.06667 170.5,235.16667C170.5,234.36667 170.5,233.46667 170.5,232.56667C170.5,231.66667 170.5,230.76666 170.5,229.86667C170.5,228.96667 170.5,228.06667 170.5,227.16667C170.5,226.36667 170.13683,225.36978 170.536,224.60266C170.93114,223.84328 171.49933,223.36534 171.5,222.46667C171.50067,221.56667 171.5,220.66667 171.5,219.76666C171.5,218.86667 171.33723,217.90981 171.72133,217.06667C172.07668,216.28665 172.15196,215.48616 172.52083,214.6875C172.87697,213.91641 173.31296,213.3335 173.55716,212.46667C173.77162,211.70537 174.45729,210.9697 174.5,210.06667C174.54253,209.16768 174.98317,208.55949 175.41467,207.88133C175.90782,207.10629 175.31866,206.0132 175.66667,205.16667C175.94257,204.49559 176.57445,203.75641 177.07466,203.14134C177.57878,202.52147 177.5,201.56667 177.5,200.66667C177.5,199.76666 177.39304,198.86014 177.50133,197.96667C177.61281,197.04689 178.30988,196.51259 178.48933,195.56667C178.6571,194.68239 178.5,193.76666 178.5,192.86667C178.5,191.96667 178.5,191.06667 178.5,190.16667C178.5,189.36667 178.5,188.46667 178.5,187.56667C178.5,186.66667 178.5,185.76666 178.5,184.86667C178.5,183.96667 178.5,183.06667 178.5,182.16667L178.5,181.36667" id="svg_1" stroke-width="3" stroke="#000" fill="none"/>
  <path t="5101,5251,5276,5284,5284,5292,5311,5316,5328,5344,5361,5364,5378,5412,5603,5660,5701,5731,5746,5761,5764,5804,5813,5995,6003,6027,6048,6067,6067,6083,6084,6099,6100,6100,6107,6116,6116,6124,6139,6140,6155,6156,6156,6166,6172,6187,6188,6211,6211,6219,6251,6263,6267,6291,6307,6315,6331,6371,6403,6435,6467,6499,6548,6556,6595,6597,6619,6667,6676,6691,6707,6719,6724,6747,6756,6769,6784,6788,6803,6835,6899,7148,7148,7171,7451,7507,7531,7563,7604,7613,7635,7659,8027,8075,8076,8083,8107,8131,8147,8163,8178,8179,8190,8207,8227,8243,8259,8267,8275,8291,8299,8310,8374,8419,8427,8491,8563,8564,8603,8613,8667,8748,8779,8787,8788,8803,9027,9107,9131,9139,9148,9171,9183,9491,9523,9571,9587,9619,9636,9650,9660,9669,9675,9707,9720,9720,9734,9750,9766,9767,9771,9783,9783,9787,9800,9803,9899,9981,10002,10004,10019,10039,10044,10057,10083,10102,10123,10147,10147,10155,10164,10180,10188,10228,10260,10332,10340,10355,10357,10379,10391,10411,10427,10427,10437,10454,10471,10475,10491,10507,10507,10515,10523,10531,10539,10547,10563,10579,10579,10595,10605,10622,10638,10643,10691,10764,10764,10812,10900,10940,10980,10995,11008,11043,11076,11076,11084,11108,11129,11132,11147" d="M180.5,194.16667C182.2,194.22383 182.98029,194.70847 183.7,195.36534C184.2845,195.89882 185.20007,196.15376 186.10001,196.16667C186.97932,196.17929 187.14519,196.86214 187.52083,197.64583C187.85791,198.34909 188.93806,198.32945 189.55267,198.814C190.20212,199.32599 191.2,199.16667 192.10001,199.16667C193,199.16667 193.93483,199.40955 194.7955,199.16217C195.5634,198.94145 195.91452,198.0826 196.55267,197.51933C197.14807,196.9938 198.00781,196.55803 198.44284,195.80949C198.86731,195.07913 198.5,194.06667 198.5,193.16667C198.5,192.36667 198.68843,191.43898 198.464,190.56667C198.24115,189.70044 197.39999,189.06667 196.89999,188.56667C196.2,187.86667 195.41422,187.23705 194.936,186.56667C194.41093,185.83058 194.07774,185.03374 193.45833,184.66667C192.52841,184.11562 191.73082,183.72803 190.98534,183.452C190.0421,183.10274 189.18616,182.82423 188.5,182.16667C187.98947,181.67743 187.37637,180.86282 186.7,180.452C185.92386,179.98059 185.92859,179.21199 185.41467,178.452C184.96338,177.78462 184.02086,177.50494 183.52533,176.77733C183.0719,176.11154 182.50534,175.55605 182.5,174.66667C182.4946,173.76668 182.5,172.86667 182.5,171.96667C182.5,171.06667 182.88394,169.96222 182.2785,169.28799C181.72391,168.67039 180.70737,168.50996 180.52083,167.66667C180.32863,166.79778 180.03616,166.03766 179.44733,165.51933C178.79677,164.94669 178.03407,164.49577 177.52533,163.77733C177.06078,163.12129 176.10298,163.16545 175.5,162.66667C174.84413,162.12415 174.86436,161.2545 174.44284,160.52383C173.97491,159.71272 173.16844,159.35324 172.39999,158.94533C171.75005,158.60031 170.90004,158.17201 170,158.16667C169.10002,158.16135 168.2,158.16667 167.3,158.16667C166.39999,158.16667 165.36211,158.48845 164.66667,158C163.95149,157.49768 163.39999,157.16667 162.5,157.16667C161.7,157.16667 160.67743,156.75545 159.85716,157.22383C159.04399,157.68816 158.73643,158.47783 158.14734,159.114C157.61435,159.68959 157.09637,160.35966 156.416,160.88268C155.80472,161.35257 155.07106,161.53737 154.2785,162.04517C153.53175,162.52361 152.3511,161.82959 151.66667,162.33333C151.01367,162.81393 150.26784,162.92242 149.584,163.45067C148.95651,163.93538 148.2,164.16667 147.3,164.16667C146.39999,164.16667 145.5,164.16667 144.7,164.16667C143.8,164.16667 143.05406,164.02135 142.416,163.45067C141.76424,162.86774 141.13835,162.4054 140.40016,161.94518C139.683,161.49808 139.34157,160.65166 138.784,160.08267C138.12491,159.4101 137.27509,159.42293 136.62134,158.94533C135.92227,158.43462 135.21889,158.30399 134.55267,157.814C133.86845,157.31076 133.10001,157.166 132.2,157.16667C131.30133,157.16734 130.71071,157.54889 130.49867,158.36534C130.2908,159.16579 129.4462,159.61328 128.92534,160.192C128.35126,160.82988 127.62853,161.3266 127.5,162.16667C127.37832,162.96196 126.85715,163.73674 126.30133,164.36667C125.62569,165.13239 125.53968,165.92842 124.97916,166.66667C124.38994,167.44273 123.67004,167.93599 123.51067,168.76666C123.32882,169.71451 123.01127,170.35226 122.33334,171C121.70111,171.60406 121.13787,172.1031 120.5,172.66667C119.91651,173.18219 119.94931,174.0172 119.44283,174.80949C119.04578,175.4306 118.02602,175.3699 117.33334,176C116.73346,176.54568 116.31135,177.29466 115.7955,177.86667C115.1397,178.59387 114.10423,178.70361 113.58533,179.452C113.1187,180.12503 112.95334,180.83701 112.55717,181.52383C112.08732,182.33841 112.0835,183.15115 111.5,183.66667C110.86213,184.23022 110.86435,185.07884 110.44283,185.80949C109.97491,186.62059 109.5372,187.16754 109.5,187.96667C109.45728,188.88431 108.75044,189.48164 108.216,190.08267C107.64153,190.72873 107.04704,191.27386 106.66666,192.16667C106.34647,192.91821 106.86317,193.96356 106.464,194.73067C106.06885,195.49005 105.70479,196.00504 105.44283,196.86667C105.17387,197.75134 104.17889,198.28011 103.78533,198.96667C103.36469,199.70049 103.5,200.66667 103.5,201.56667C103.5,202.46667 103.5,203.36667 103.5,204.26666C103.5,205.16667 103.5,205.96667 103.5,206.86667C103.5,207.76666 103.5,208.66667 103.5,209.56667C103.5,210.46667 103.5,211.36667 103.5,212.26666C103.5,213.16667 103.5,213.96667 103.5,214.86667C103.5,215.76666 103.5,216.66667 103.5,217.56667L103.5,218.46667" id="svg_2" stroke-width="3" stroke="#000" fill="none"/>
  <path t="13173,13355,13375,13380,13395,13411,13427,13451,13483,13483,13507,13520,13539,13563,13571,13588,13605,13621,13621,13627,13643,13655,13659,13675,13683,13683,13691,13699,13707,13715,13731,13755,13795,13819,13819,13859,13867,13923,13979,13992,14008,14011,14027,14035,14051,14063,14079,14083,14099,14112,14128,14131,14147,14171,14315,14327,14643,14643,14651,14667,14683,14693,14711,14715,14727,14747,14763,14787,14795,14803,15019,15031,15050,15051,15065,15075,15091,15091,15100,15115,15131,15147,15155,15164,15181,15387,15400,15435,15443,15453,15515,15534,15555,15579,15691,15787,15811,15827,15843,15859,15859,15871,15875,15891,15891,15907,15922,15922,15923,15939,15955,15972,16019,16227,16267,16275,16299,16324,16339,16358,16358,16375,16392,16395,16408,16435,16459,16579,16595,16611,16643,16667,16667,16683,16699,16716,16727,16747,16756,16763,16773,16790,16807,16823,16827,16827,16843,16859,16867,16883,16899,16915,16924,16941,16941,16963,16974,16991,17008,17019,17027,17043,17059,17059,17067,17083,17099,17115,17125,17147,17179,17195,17195" d="M102.5,213.16667C102.5,214.96667 102.5,215.86667 102.5,216.76666C102.5,217.56667 102.5,218.46667 102.5,219.36667C102.5,220.26666 102.5,221.16667 102.5,221.96667C102.5,222.86667 102.5,223.76666 102.5,224.66667C102.5,225.56667 102.5,226.46667 102.5,227.36667C102.5,228.26666 102.52537,229.16707 102.5,229.96667C102.47141,230.86803 101.81381,231.58904 101.55717,232.46667C101.30405,233.33223 101.5,234.26666 101.5,235.16667C101.5,235.96667 101.5,236.86667 101.5,237.76666C101.5,238.66667 101.5,239.56667 101.5,240.46667C101.5,241.36667 101.5,242.26666 101.5,243.16667C101.5,243.96667 101.9127,244.9901 101.44283,245.80949C101.0484,246.49734 100.83708,247.31557 100.33334,248C99.85273,248.653 99.61076,249.2735 99.5,250.16667C99.38848,251.06589 98.63658,251.49272 98.07467,252.14134C97.56536,252.72923 97.74287,253.6015 97.4955,254.46217C97.2748,255.23006 96.50533,255.77728 96.5,256.66666C96.49461,257.56665 96.5,258.46667 96.5,259.36667C96.5,260.26666 96.47292,261.16711 96.5,261.96667C96.5286,262.81097 97.30177,263.13879 98.2,263.16666C99.14411,263.19595 99.02992,264.03085 99.55717,264.80951C100.01965,265.49252 101.20006,265.15598 102.1,265.16666C102.97935,265.17709 103.43022,265.96503 104.2045,266.16217C105.11525,266.39407 105.49775,265.46216 105.5,264.56668C105.50226,263.66666 105.594,262.71957 105.14733,261.86667C104.75338,261.11444 104.50067,260.36667 104.5,259.46667C104.49934,258.56668 104.80989,257.60693 104.48933,256.77734C104.18295,255.98441 103.50225,255.46219 103.5,254.56667C103.49774,253.66667 103.25713,252.73183 103.5045,251.87117C103.7252,251.10329 104.58407,250.75214 105.14733,250.114C105.67287,249.5186 106.26358,248.8555 106.85267,248.21933C107.38565,247.64375 108.27438,247.12221 108.4955,247.87117C108.74905,248.73003 108.5,249.6875 108.5,250.65067C108.5,251.34134 108.4069,252.46155 108.85267,253.1185C109.32148,253.80942 109.49775,254.51848 109.5,255.414C109.50231,256.33334 109.30873,257.25424 109.85267,258.05682C110.31246,258.73523 110.5,259.56668 110.5,260.46667C110.5,261.36667 110.14133,262.625 110.5,262.625C111.35834,262.625 110.49992,260.86667 110.5,259.96667C110.50008,259.06668 110.74213,258.21289 111.14733,257.46667C111.56063,256.70554 111.25713,255.73183 111.5045,254.87117C111.7252,254.10329 112.48958,253.646 112.5,252.66667C112.50957,251.76671 112.5,250.86667 112.5,249.96667C112.5,249.06667 112.5,248.16667 112.5,247.36667C112.5,246.46667 112.5,245.56667 112.5,244.66667C112.5,243.76666 112.66699,242.85077 112.49866,241.968C112.35425,241.21063 111.51801,240.73123 111.5,239.86667C111.48126,238.96687 111.5,238.06667 111.5,237.16667C111.5,236.36667 111.5,235.46667 111.5,234.56667C111.5,233.66667 111.5,232.76666 111.5,231.86667C111.5,230.96667 111.5,230.06667 111.5,229.16667C111.5,228.36667 111.5,227.46667 111.5,226.56667C111.5,225.66667 111.5,224.76666 111.5,223.86667C111.5,222.96667 111.5,222.06667 111.5,221.16667C111.5,220.36667 111.5,219.46667 111.5,218.56667C111.5,217.66667 111.5,216.76666 111.5,215.86667C111.5,214.96667 111.5,214.06667 111.5,213.16667L111.5,212.36667" id="svg_3" stroke-width="3" stroke="#000" fill="none"/>
  <path t="19419,19579,19579,19595,19611,19623,19639,19651,19651,19659,19667,19674,19698,19706,19715,19723,19763,19787,19795,19811,19812,19834,19859,19883,19898,19909,19925,19947,19959,19976,19979,19992,20027,20059,20083,20091,20131,20143,20158,20163,20195,20203,20227,20307,20315,20327,20371,20380,20411,20443,20451,20464,20499,20555,20563,20635,20851,20867,20875,20884,20899,20917,20933,20950,20955,20971,20971,20984,20987,20996,21002,21013,21018,21018,21029,21034,21046,21051,21066,21083,21083,21098,21099,21115,21123,21146,21179,21203,21217,21219,21242,21251,21266,21282" d="M131.5,245.16667C132.5,246.16667 133.33444,245.97072 134.2,246.22383C135.07764,246.48047 135.80623,247.0472 136.7,247.168C137.50954,247.27742 138.15372,247.96164 139,248.14583C139.86954,248.33508 140.44142,248.92537 141.2045,249.16217C142.02629,249.41719 142.54396,250.0209 143.30133,250.16533C144.1841,250.33366 145.22563,249.72546 146.064,250.20267C146.75549,250.59627 146.44185,251.93533 147.2045,252.16217C148.06285,252.41748 148.88173,252.2932 149.55267,252.814C150.13644,253.26712 151.10005,253.1571 152,253.16667C152.97934,253.17709 153.14519,253.86214 153.52083,254.64583C153.85791,255.34909 155.05972,254.85678 155.88933,255.17734C156.68225,255.48372 157.30177,255.80342 158.064,256.20267C158.8223,256.59988 159.43182,256.77365 160.21466,257.25201C161.01788,257.74286 161.17661,258.73553 161.936,259.13068C162.70311,259.52985 163.79788,259.00732 164.44733,259.51935C165.06194,260.00391 165.90556,260.15775 166.5,260.66666C167.09145,261.173 167.54396,262.02094 168.30133,262.16534C169.1841,262.33368 170.10001,262.16666 171,262.16666C171.89999,262.16666 173.14209,262.34909 173.47917,261.64584C173.85483,260.86215 174.22559,260.29276 174.48933,259.556C174.78909,258.71863 174.26012,257.7327 174.5045,256.87115C174.72502,256.09378 175.47018,255.45825 175.49867,254.64934C175.53253,253.6881 175.5,252.76666 175.5,251.86667C175.5,250.96667 175.5,250.06667 175.5,249.16667C175.5,248.36667 175.5,247.46667 175.5,246.56667C175.5,245.66667 175.5,244.76666 175.5,243.96533C175.5,243 175.5,242.16667 175.5,241.18817C175.5,240.368 175.5,239.46667 175.5,238.56667C175.5,237.66667 175.74287,236.73183 175.4955,235.87117C175.27478,235.10327 174.5,234.66667 173.88933,234.17734L173,234.14583L172.2,233.814L171.40016,233.28799" id="svg_4" stroke-width="3" stroke="#000" fill="none"/>
  <path t="21996,22091,22109,22124,22131,22139,22147,22147,22154,22163,22171,22179,22187,22187,22195,22204,22204,22211,22211,22220,22221,22226,22226,22242,22256,22256,22259,22267,22267,22276,22291,22306,23627,23627,23635,23667,23691,23723,23747,23767,23787,23803,23803,23827,23859,23875,23884,23898,23918,23935,23939,23951,23954,23970,23981,23987,23998,24002,24014,24018,24031,24031,24034,24042,24050,24066,24074,24074" d="M128.5,225.16667C128.5,226.96667 128.5,227.86667 128.5,228.76666C128.5,229.56667 128.36345,230.52332 128.784,231.36667C129.11392,232.02832 129.49774,232.86665 129.5,233.76666C129.50226,234.66667 129.5,235.57733 129.5,236.48801C129.5,237.34134 129.31841,238.33609 129.66667,239.16667C129.96661,239.88199 130.74428,240.6284 131.064,241.34134C131.47504,242.25792 131.49933,243.05067 131.5,243.992C131.50049,244.68266 131.45409,245.687 131.784,246.65067C132.0267,247.35962 132.45729,248.27826 132.5,249.16667C132.53842,249.96576 132.8707,250.59561 133.37849,251.38817C133.85693,252.1349 133.5,253.16667 133.5,253.96667C133.5,254.86667 133.5,255.76666 133.5,256.66666C133.5,257.56668 133.5,258.46667 133.5,259.36667C133.5,260.26666 133.5,261.16666 133.5,261.96667C133.5,262.86667 133.4946,263.76669 133.5,264.66666C133.50534,265.55606 134.22559,266.04059 134.48933,266.77734C134.78908,267.61469 134.25713,268.6015 134.5045,269.46216C134.72522,270.23004 135.17097,270.85031 135.52083,271.64584C135.83395,272.35785 136.31503,272.89789 136.536,273.76666C136.75531,274.62894 137.24344,275.44522 137.7215,276.26651C138.08708,276.89459 139.16504,277.18317 139.47467,278.01733C139.76637,278.80322 140.37866,279.38815 140.66667,280.16666L141.2045,280.80951" id="svg_5" stroke-width="3" stroke="#000" fill="none"/>
  <path t="24708,24747,24756,24770,24771,24789,24795,24805,24811,24822,24822,24827,24843,24854,24871,24875,24875,24890,24891,24905,24905,24907,24915,24915,24930,24931,24939,24947,24962,24978,24989,24989,24995,25010,25022,25039,25043,25058,25059,25072,25072,25075,25075,25088,25091,25099,25099,25106,25115,25115,25123,25131,25140,25140,25156,25173,25173,25173,25179,25179,25190,25195,25207,25211,25211,25223,25227,25242,25257,25257,25259,25275,25283,25290,25291,25307" d="M123.5,285.16666C125.3,285.16666 126.2,285.16666 127.1,285.16666C128,285.16666 128.89999,285.16666 129.8,285.16666C130.7,285.16666 131.60001,285.16666 132.5,285.16666C133.3,285.16666 134.21976,285.00955 135,285.1875C135.96202,285.40689 136.59682,286.07169 137.5,286.16666C138.25516,286.24606 139.14174,286.56198 139.9045,286.814C140.882,287.13699 141.67033,287.05783 142.61467,287.168C143.61763,287.285 144.22795,287.92474 145.15266,288.1095C145.83583,288.246 146.864,288.16666 147.8,288.16666C148.7,288.16666 149.60001,288.16666 150.5,288.16666C151.3,288.16666 152.2,288.16666 153.10001,288.16666C154,288.16666 154.89999,288.16666 155.8045,288.16666C156.66667,288.16666 157.5,288.16666 158.47867,288.16666C159.25267,288.16666 160.15266,288.16666 161.01601,288.16666C161.97917,288.16666 162.91066,288.16666 163.82133,288.16666C164.67467,288.16666 165.61467,288.16666 166.5,288.16666C167.3,288.16666 168.2,288.16666 169.136,288.16666C169.98399,288.16666 170.85095,288.24289 171.74733,288.16217C172.67711,288.07846 173.3177,287.68762 174.10133,287.45065C175.07741,287.15552 176.01466,287.16733 176.97917,287.16666C177.89999,287.16602 178.85007,287.29834 179.60001,286.94534C180.37553,286.58029 181.10001,286.17725 182,286.16666C182.91066,286.15591 183.86275,286.02347 184.47917,285.64584C185.40724,285.0773 185.78534,284.25201 186.60001,284.16666L187.5,284.16666L188.3,284.16666L189.21466,284.08133" id="svg_6" stroke-width="3" stroke="#000" fill="none"/>
  <path t="26268,26323,26331,26347,26355,26364,26372,26382,26398,26419,26435,26450,26451,26467,26491,26499,26499,26555,26587,26643" d="M161.5,263.16666C163.33333,263.33334 163.81114,263.93027 164.44733,264.51935C165.02292,265.05231 165.62901,265.63049 166.14734,266.21933C166.72,266.86987 167.20309,267.58829 167.464,268.56668C167.69498,269.4328 168.0407,270.04129 168.5,270.6875C168.99548,271.38461 169.43912,272.26053 169.5,273.16666C169.55363,273.96487 169.5,274.86667 169.5,275.76666L169.5,276.66666" id="svg_7" stroke-width="3" stroke="#000" fill="none"/>
  <path t="28213,28299,28309,28309,28315,28331,28343,28347,28359,28378,28393,28410" d="M171.5,262.16666C172.5,263.1875 172.77434,264.11621 173.14734,264.86218C173.53653,265.64053 173.25713,266.6015 173.5045,267.46216C173.72522,268.23004 174.5,268.6875 174.92534,269.56668L175.37849,270.26666L175.5,271.16666" id="svg_8" stroke-width="3" stroke="#000" fill="none"/>
  <path t="38011,38074,38098,38114,38162,38170,38442,38464,38467,38484,38506,38518,38554,38555,38674,38706,38722,38738,38818,38850,38869,38874,38954,38986,39090,39114,39226,39226,39290,39362,39394,39394,39418,39450,39458,39472,39474,39594,39618,39658,39682,39699,39722,39741,39770,39779,39794,39806,39810,39826,39850,39850,39859,39875,39892,39909,39909,39914,39930,39946,39959,39976,39976,39993,40009,40011,40026,40026,40043,40051,40051,40066,40082,40090,40107,40114,40124,40154,40162,40178,40189,40274,40283,40410,40419,40467,40498,40538,40547,40561,40563,40611,40619" d="M256.5,221.16667C257.7215,222.04517 258.73212,221.92244 259.41599,222.45067C260.04349,222.93538 261.33911,222.81947 261.45334,223.592C261.56,224.31325 260.10001,224.16667 259.20001,224.16667C258.29999,224.16667 257.39999,224.16667 256.5,224.16667C255.7,224.16667 254.79985,224.18347 253.89999,224.16667C252.9355,224.14867 252.50571,223.34857 251.69867,223.168C250.82169,222.97177 249.82805,223.49478 249.02083,223.14583C248.30685,222.83717 248.07091,221.79695 247.2785,221.28816C246.53223,220.80899 245.49954,221.19376 244.7,221.16667C243.85571,221.13806 243.34569,220.25041 242.5,220.16667C241.70389,220.08784 240.95752,219.94011 240.27867,219.28799C239.69865,218.73083 239.02629,218.41719 238.2045,218.16217C237.44142,217.92537 236.97926,217.18295 236,217.16667C235.11073,217.15189 234.62283,216.45 233.88933,216.17734C233.07472,215.87453 232.49957,215.37411 231.69867,215.168C230.82652,214.94354 230.18967,214.54854 229.3,214.252C228.44235,213.96613 227.46175,214.34023 226.7,214.08133C225.81209,213.77956 225.05867,213.28281 224.3,212.88268C223.44162,212.42995 222.6998,212.18533 221.8,212.16667C220.89946,212.14799 220.18208,211.57751 219.39999,211.28816C218.54826,210.97305 217.72256,211.04237 216.89999,210.592C216.11961,210.16472 215.14336,210.30322 214.3,209.88268C213.63835,209.55275 212.86235,209.22182 211.85184,209.16217C211.06654,209.11581 210.28667,208.61821 209.66667,208C209.04779,207.3829 208.2914,207.29068 207.40016,207.1665C206.59828,207.05478 206.14429,206.19534 205.3,206.16667C204.40068,206.13612 203.82968,205.62001 203.14284,205.22383C202.32826,204.75398 201.51552,204.75015 201,204.16667C200.43643,203.52879 199.94057,202.95789 199.27867,202.28799C198.66928,201.67123 198.064,201.20267 197.2045,201.16217L196.52533,200.74133L195.92534,200.14134" id="svg_10" stroke-width="3" stroke="#000" fill="none"/>
  <path t="41268,41306,41322,41322,41332,41338,41351,41354,41355,41370,41386,41386,41411,41427,41436,41449,41449,41459,41474,41482,41538,41554,41595,41617,41642,41690,41700,41717,41770,41786,41818,41850,41871,41890,41904,41912,41930,41954,41969,41979,42018,42043,42053,42090,42105,42154,42170,42187,42210,42226,42226,42250,42275,42288,42314,42324,42340,42346,42362,42378,42386,42386,42394,42442,42458,42610,42738,42986,43066,43082,43098,43107,43138,43186,43202,43202,43229,43278,43378,43394,43442,43634,43645,43650,43662,43682,43706,43746,43778,43786,43810,43832,43882,43922,43932" d="M203.5,192.16667C205.25717,192.16667 206.15266,192.16667 207.01601,192.16667C207.97917,192.16667 208.90791,191.94095 209.69867,192.452C210.50142,192.97079 210.54846,194.01588 211.38667,194.16533C212.31084,194.33009 213.03522,194.20995 213.97917,194.66667C214.81873,195.07289 215.76451,194.97781 216.5,195.33333C217.25462,195.69809 217.48251,196.79091 218.11067,197.192C218.85649,197.66821 219.79132,197.95293 220.44733,198.51933C221.03972,199.03081 221.88933,199.17734 222.5,199.66667C223.11067,200.15601 223.86845,200.31076 224.55267,200.814C225.21889,201.30399 226.22649,200.98293 227.10001,201.20267C227.96281,201.41972 228.73141,201.84921 229.416,202.45067C230.01166,202.974 230.85017,203.09363 231.47467,203.592C232.08263,204.07718 232.93483,203.9238 233.7955,204.17117C234.56339,204.39188 234.90363,205.35966 235.584,205.88268C236.19528,206.35257 237.20006,206.15627 238.10001,206.16667C239.00018,206.17709 239.70331,206.70985 240.60001,207.04517C241.45064,207.36325 242.28812,207.27275 243,207.66667C243.88597,208.15692 244.8159,207.99966 245.69867,208.168C246.45604,208.31242 246.93544,209.14867 247.8,209.16667C248.6998,209.18541 249.60001,209.16667 250.5,209.16667C251.3,209.16667 252.04248,209.39322 252.72133,210.04533C253.30135,210.60251 253.9761,210.90857 254.7955,211.17117C255.55321,211.414 255.75548,212.73706 255.064,213.13066C254.22563,213.60786 253.2,213.16667 252.3,213.16667C251.39999,213.16667 250.5,213.16667 249.7,213.16667C248.8,213.16667 247.89999,213.16667 247,213.16667C246.10001,213.16667 245.19569,213.07889 244.30267,213.16667C244.11868,213.18475 244.91603,213.5849 245.416,214.36534C245.88264,215.09378 246.7,215.16667 247.60001,215.16667C248.5,215.16667 249.10718,215.64983 249.78534,216.08133C250.56038,216.57448 251.60001,216.16667 252.5,216.16667L253.33333,216.33333" id="svg_11" stroke-width="3" stroke="#000" fill="none"/>
  <path t="45731,46114,46154,46162,46194,46218,46226,46274,46314,46330,46370,46418,46442,46450,46482,46498,46586,46594,46658,46666,46738,46762,46762,46898,46898,46922,46978,47010,47010,47042,47082,47114,47122,47234,47274,47298,47362,47362,47370,47434,47466,47474,47514,47610,47618,47658,47682,47704,47718,47738,47762,47794,47804,47819,47826,47858,47898,47930,48082,48130,48139,48162,48194,48210,48226,48258,48258,48274,48298,48314,48338,48362,48378,48402" d="M135.5,136.16667C135.66667,138 136.26967,138.47223 136.85266,139.114C137.37891,139.69331 137.51067,140.556 138,141.16667C138.48933,141.77733 138.21091,142.71864 138.51067,143.556C138.77441,144.29276 139.05904,144.9039 139.536,145.73067C139.93359,146.41988 141.24565,146.11574 141.4955,146.87117C141.79077,147.76396 142.17747,148.27177 142.584,148.968C143.06639,149.79416 143.84016,150.27248 144.33333,151.16667C144.69908,151.82985 145.50046,152.13959 146.3,152.16667C147.14429,152.19527 147.6543,153.08293 148.5,153.16667C149.29611,153.2455 149.929,153.53729 150.7215,154.04517C151.46808,154.52362 152.10864,154.67448 152.85716,155.1095C153.58754,155.53398 154.60001,155.16667 155.5,155.16667C156.3,155.16667 156.92894,154.79594 157.7215,154.28816C158.46825,153.80972 159.63841,154.48918 160.33333,154C161.04836,153.49667 161.45747,152.82253 162,152.16667C162.49878,151.56369 162.59636,150.76041 163.14734,150.114C163.66249,149.5096 164.4391,148.95145 164.5,148.06667C164.5618,147.16879 164.78525,146.48827 165.416,145.88268C165.98888,145.33266 166.57758,144.7406 167.07466,144.14134C167.58476,143.52638 167.5,142.56667 167.5,141.66667C167.5,140.76666 167.5,139.86667 167.5,138.96667C167.5,138.06667 167.5,137.16667 167.5,136.36667C167.5,135.46667 167.5,134.56667 167.5,133.66667C167.5,132.76666 167.5,131.86667 167.5,130.96667L167.5,130.06667" id="svg_12" stroke-width="3" stroke="#000" fill="none"/>
  <path t="49771,49954,50002,50002,50114,50138,50154,50170,50186,50202,50226,50242,50242,50258,50298,50338" d="M138.5,146.16667C140.33333,146.33333 140.5,147.16667 140.5,147.96667C140.5,148.86667 140.5,149.76666 140.5,150.66667C140.5,151.56667 140.5,152.46667 140.5,153.36667C140.5,154.26666 140.5,155.16667 140.5,155.96667L140.5,156.86667L140.5,157.76666L140.5,158.66667" id="svg_13" stroke-width="3" stroke="#000" fill="none"/>
  <path t="55682,55793,55812,55817,55828,55841,55849,55865,55889,55897,55954,55978,56122,56137,56154,56170,56194,56210,56226,56258,56269,56284,56290,56314,56336,56386,56466,56487,56530,56552,56570,56578,56602,56610,56634,56642,56674,56688,56703,56706,56738,56762,56802,56802,56820,56850,56906,56906,56970,57010,57024,57066,57090,57098,57122,57141,57146,57156,57162,57177,57188,57204,57225,57282,57298" d="M147.5,116.16667C145.8,116.16667 144.78786,115.75 143.936,116.20267C143.20476,116.59124 142.97618,117.64091 142.2045,118.114C141.55011,118.51517 140.92215,118.86623 140.11067,119.17734C139.36768,119.4622 138.95682,120.36997 138.62151,121.26667C138.30342,122.11731 138.05392,122.71429 137.58533,123.452C137.14621,124.1433 136.93114,124.84328 136.536,125.60267C136.13683,126.36978 136.62399,127.37527 136.49983,128.26649C136.38811,129.06837 135.54253,129.5108 135,130.16667C134.50122,130.76964 134.41052,131.58403 133.92534,132.192C133.42696,132.8165 133.29671,133.64059 132.66667,134.33333C132.12109,134.9332 131.59416,135.55354 131.07466,136.14134C130.55956,136.72417 130.66728,137.77596 130.14284,138.46217C129.56944,139.21242 128.74818,139.47964 128.216,140.08267C127.64957,140.7245 127.63654,141.52332 127.216,142.36667C126.88607,143.02832 126.18861,143.55139 125.66666,144.33333C125.19484,145.04016 125.5,145.96667 125.5,146.86667C125.5,147.76666 125.5,148.66667 125.5,149.56667C125.5,150.46667 125.35021,151.37926 125.50017,152.26649C125.64417,153.11853 126.24983,153.78952 127.02084,154.14583C127.80974,154.51041 128.58408,154.58119 129.14734,155.21933C129.67288,155.81473 130.37866,156.388 130.85716,157.1095L131.7,157.16667" id="svg_15" stroke-width="3" stroke="#000" fill="none"/>
  <path t="58059,58170,58226,58245,58245,58262" d="M134.5,142.16667C135.5,143.16667 135.66667,144 136.5,144.16667L137.3,144.16667L138.2,144.16667" id="svg_16" stroke-width="3" stroke="#000" fill="none"/>
  <path t="60580,60737,60746,60769,60795,60795,60810,60829,60850,60862,60890,60898,60912,60946,61034,61066,61080,61097,61130,61138,61170,61194,61226,61248,61265,61330,61338,61346,61369,61382,61402,61442,61466,61506,61634,61682,61705,61746,61765,61770,61850,61882,61902,62162,62185,62203,62203,62218,62226,62226,62237,62290,62322,62330,62338,62378,62388,62394,62434,62442,62469,62474,62489,62537,62553,62553,62570,62618,62674,62714,62770,62801,62823,62841,62857,62866,62905,62922,62939,62939,62986,63017,63057,63106,63185,63194,63217,63265,63297,63313,63345,63409,63465,63489,63545,63570,63578,63617,63641,63642,63665,63713,63785,63833,63844,63881,63882,63937,63946,63961,63970,63985,64009,64018,64049,64064,64066,64089,64242,64490,64506,64517,64570,64582,64650,64842,64882,64905,64921,64946,64946,64962,64994,65010,65034,65090,65131,65161,65178,65178,65202,65210,65226,65241,65258,65268,65284,65285,65289,65289,65301,65305,65321,65321,65337,65337,65345,65353,65361,65361,65377,65393" d="M146.5,114.16667C148.3,114.16667 148.88716,114.48116 149.66667,115C150.37413,115.47088 151.43036,114.77372 152.21466,115.252C153.0183,115.74207 153.60439,116.07799 154.5,116.16667C155.34569,116.25041 155.73772,116.95936 156.59984,117.16683C157.43996,117.36901 157.90001,117.88414 158.7955,118.17117C159.55635,118.41504 160.08253,118.85429 160.88933,119.17734C161.67847,119.49332 162.20457,120.15382 163.10001,120.16667C163.97932,120.1793 164.63835,120.61603 165.216,121.25067C165.8046,121.89732 166.17662,122.73552 166.936,123.13067C167.70311,123.52984 168.97908,122.84168 169.44284,123.52383C169.9171,124.22141 169.84413,125.12415 170.5,125.66667C171.10298,126.16545 171.90627,126.26303 172.55267,126.814C173.15707,127.32916 173.81297,127.91849 174.416,128.45067C175.05783,129.01709 175.83908,129.10786 176.47467,129.592C177.14211,130.10039 176.33942,130.36484 175.5,130C174.81544,129.70247 174.3118,128.67354 173.39999,128.28816C172.74579,128.01166 172.071,127.79604 171.2785,127.28817C170.53192,126.80973 169.82967,126.62 169.14284,126.22383C168.32826,125.75398 167.78252,125.76665 167.4955,124.87117C167.25163,124.11031 166.36876,123.79086 165.85266,123.114C165.35121,122.45636 165.18552,121.77952 164.66667,121C164.1958,120.29255 164.5,119.36667 164.5,118.46667C164.5,117.56667 164.5,116.66667 164.5,115.76667C164.5,114.86667 164.6498,113.95409 164.49983,113.06683C164.35583,112.21481 163.52859,111.8108 163.5,110.86667C163.47276,109.96708 163.5,109.06667 163.5,108.16667C163.5,107.36667 163.31129,106.67919 162.66667,106C162.06471,105.36577 161.56357,104.80454 161,104.16667C160.48448,103.58318 159.79552,103.16892 158.89999,103.16667C158,103.16441 157.15645,103.09972 156.47467,102.592C155.83386,102.11479 154.89999,102.16667 154,102.16667C153.10001,102.16667 152.2,102.16667 151.3,102.16667C150.39999,102.16667 149.5,102.16667 148.7,102.16667C147.8,102.16667 146.89998,102.16134 146,102.16667C145.09996,102.172 144.36543,102.5609 143.5,103C142.82462,103.34267 142.19446,103.93636 141.55267,104.51933C140.97336,105.04557 140.15155,105.0958 139.52533,105.592C138.86028,106.11897 138.28497,106.71503 137.66667,107.33334C137.04837,107.95164 136.75018,108.78953 135.97917,109.14584C135.19026,109.51041 134.80045,109.74452 134.48933,110.556C134.20448,111.299 133.05104,111.56261 132.62134,112.2665C132.14651,113.0443 131.52859,113.52254 131.5,114.46667C131.47276,115.36626 131.5,116.26667 131.5,117.16667C131.5,117.96667 131.5,118.86667 131.5,119.76667C131.5,120.66667 131.5,121.56667 131.5,122.46667C131.5,123.36667 131.5,124.26667 131.5,125.16667C131.5,125.96667 131.5,126.86667 131.5,127.76667C131.5,128.66667 131.5,129.56667 131.5,130.46667C131.5,131.36667 131.58829,132.28154 131.41467,133.052C131.23605,133.8447 130.98019,134.76588 130.5,135.625C130.13281,136.28195 129.52985,136.8797 129.50133,137.76933C129.46951,138.76166 129.50081,139.50951 129.5,140.53067C129.49933,141.36667 129.27867,142.26666 128.85266,142.86667L128.51067,143.76666L128.5,144.66667" id="svg_17" stroke-width="3" stroke="#000" fill="none"/>
  <path t="66466,66625,66625,66634,66634,66644,66650,66660,66679,66680,66682,66697,66698,66712,66726,66729,66745" d="M176.5,138.16667C175.5,139.16667 175.43843,139.92674 174.64934,140.56667C174.10124,141.01115 173.89136,141.86467 173.464,142.73067C173.12769,143.4122 172.14249,143.84663 171.85716,144.51849C171.44208,145.49591 171.64877,146.45636 171.14734,147.114C170.63124,147.79086 169.92534,148.192 169.416,148.88268L168.62151,149.38817" id="svg_18" stroke-width="3" stroke="#000" fill="none"/>
  <path t="70298,70353,70377,70386,70489,70545,70569,70582,70609,70619,70657,70668,70785,70857,70866,70889,70902,70921,70936,70954,70961,71001,71009,71017,71034,71053,71070,71074,71087,71090,71105,71117,71121,71129,71137,71169,71185,71185,71193" d="M161.5,158.16667C162.7215,159.04517 163.73424,158.91974 164.416,159.45067C165.04257,159.93861 165.5538,160.61328 166.07466,161.192C166.64874,161.82988 167.31282,162.33769 167.5,163.16667C167.69958,164.05052 168.25955,164.48033 168.50133,165.36534C168.71927,166.1631 169.32152,166.84003 170.11067,167.15601C170.91747,167.47906 171.15625,167.85692 171.52083,168.64583C171.87714,169.41684 172.86963,169.59584 173.37849,170.38817C173.85767,171.13426 173.7962,171.94681 174.44733,172.51933C175.08653,173.08139 175.17097,173.85028 175.52083,174.64583C175.83395,175.35786 176.49774,175.87115 176.5,176.76666C176.50226,177.66667 176.55954,178.60918 177.07466,179.192C177.59416,179.77979 178.33333,180.33333 178.5,181.16667L178.58533,181.96667L179.07466,182.76666" id="svg_19" stroke-width="3" stroke="#000" fill="none"/>
  <path t="72315,72369,72393,72450,72513,72538,72602,72611,72618,72641,72705,72737,72777,72801,72833,72848,72850,72865,72882,72890,72905,72916,72933,72953,72962,72969,72993,73012,73017,73033,73089,73145,73929,73970,73978,74017,74037,74297,74306,74314,74370,74394,74425,74449,74457,74465,74481,74538,74801,74849,74914,74929,74954,74978,75009,75009,75057,75233" d="M171.5,158.16667C173.54817,159.80949 174.41217,159.80231 175.14284,160.22383C175.95393,160.69176 176.32713,161.5186 176.85266,162.114C177.41592,162.75215 178.27478,163.10327 178.4955,163.87117C178.74287,164.73183 178.5,165.66667 178.5,166.56667C178.5,167.46667 178.5,168.36667 178.5,169.26666C178.5,170.16667 178.98317,170.77383 179.41467,171.452C179.90784,172.22705 179.24373,173.39159 179.72133,174.04533C180.23204,174.74442 180.36267,175.4478 180.85266,176.114C181.35591,176.79822 181.25713,177.6015 181.5045,178.46217C181.72522,179.23007 182.48958,179.68732 182.5,180.56667C182.51067,181.46661 182.82701,182.64876 182.14284,183.1095C181.35936,183.63712 180.2914,183.29068 179.40016,183.1665C178.59828,183.05478 178.11493,182.25877 177.52533,181.74133C176.88759,181.18164 176.29984,180.69154 175.66667,180C175.11911,179.40195 174.71365,178.78366 174.49867,177.968C174.28844,177.17038 172.6609,177.51387 172.54666,176.74133C172.44,176.0201 173.89999,176.16667 174.8,176.16667C175.7,176.16667 176.60001,176.16667 177.5,176.16667L178.3,176.16667L179.2,176.16667L180.10001,176.16667" id="svg_20" stroke-width="3" stroke="#000" fill="none"/>
  <path t="78210,78369,78417,78481,78513,78553,78649,78905,78914,79001,79001,79065,79321,79353,79377,79385" d="M150.5,145.16667C152.3,145.16667 153.2,145.16667 154.10001,145.16667C155,145.16667 155.89999,145.16667 156.8,145.16667C157.7,145.16667 158.60075,145.20334 159.5,145.16667C160.20175,145.13806 160.97917,144.64583 161.44284,143.86667L161.5,142.96667L161.50017,142.06683L161.78534,141.252" id="svg_21" stroke-width="3" stroke="#000" fill="none"/>
  <path t="80378,80857,80905,80953,81065,81106,81185,81217,81393,81705,81714,81753,81777,81799" d="M144.5,133.16667C146.3,133.16667 147.2,133.16667 148.10001,133.16667C149,133.16667 149.89999,133.16667 150.8,133.16667C151.7,133.16667 152.72664,132.90805 153.37866,133.388C154.07692,133.90198 154.47467,134.60266 154.784,135.36667L155.33333,136.16667" id="svg_22" stroke-width="3" stroke="#000" fill="none"/>
  <path t="82978,83561,83575,83601,83665,84025" d="M161.5,128.16667C159.66667,128.33333 159.27867,129.04533 158.55267,129.51933L158.064,130.13066L157.11067,130.17734" id="svg_23" stroke-width="3" stroke="#000" fill="none"/>
  <path t="90449,90600,90617,90630,90633,90641,90641,90649,90657,90666,90666,90673,90684,90684,90689,90689,90700,90704,90704,90713,90730,90730,90746,90746,90763,90780,90797,90800,90808,90816,90832,90848,90856,90881,90889,90901,90937,90951,90953,90953,90969,90985,90993,91001,91018,91025,91041,91057,91068,91073,91088,91120,91137,91150,91169,91177,91193,91217,91240,91265,91273,91296,91305,91319,91385,91393,91481,91513,91545,91561,91572,91601,91601,91622,91625,91665,91688,91704,91745,91769,91817,91825,91848,91873,91937,92105,92153,92161,92209,92353,92409,92424,92448,92473,92481,92494,92508,92527,92529,92561,92569,92584,92601,92611,92626,92641,92641,92648,92664,92680,92692,92696,92708,92712,92724,92725,92728,92744,92744,92752,92760,92768,92768,92776,92777,92784,92784,92792,92800,92800,92808,92808,92816,92825,92825,92832,92832,92842,92842,92848,92848,92848,92858,92864,92864,92864,92875,92875,92875,92880,92880,92892,92892,92896,92896,92896,92909,92909,92909,92912,92912,92920,92920,92928,92928,92936,92936,92944,92944,92952,92960,92968,92976,92976,92984,92993,92993,93000,93000,93010,93016,93026,93043,93043,93048,93048,93060,93060,93064,93080,93080,93088,93088,93096,93112,93128,93128,93144,93152,93160,93168,93177,93184,93194,93211,93211,93216,93246,93253,93253,93260,93272,93272,93288,93288,93296,93304,93312,93320,93320,93329,93337,93348,93365,93369,93382,93385,93400,93412,93429,93432,93432,93448,93456,93464,93480,93488,93496,93504,93512,93529,93536,93552,93576,93576,93596,93600,93612,93632,93656,93696,93736,93752,93765,93808,93832,93856,93968,94025,94034,94050,94057,94069,94082,94088,94104,94128,94136,94152,94184,94224,94224,94233,94281,94312,94321,94337,94360,94385,94385,94393,94404,94419,94419,94425,94425,94438,94441,94456,94457,94472,94473,94488,94496,94504,94512,94520,94528,94552,94568,94576,94576,94592,94608,94624,94635,94640,94656,94680,94688,94696,94696,94706,94723,94729,94740,94757,94770,94770,94776,94786,94803,94808,94824,94837,94837,94840,94856,94864,94872,94872,94888,94896,94904,94912,94928,94937,94955,94971,94992,95008,95024,95064,95064,95080,95104,95176,95190,95216,95248,95259,95265,95280,95304,95312,95328,95344,95356,95373,95376,95416" d="M265.5,251.16667C263.79999,251.16667 262.87701,250.98431 262,251.1875C261.03445,251.41121 260.57288,252.25598 259.89999,252.73067C259.16519,253.24902 258.19315,253.51643 257.5,254.16667C256.99493,254.64049 256.17624,255.04884 255.33333,255.33333C254.4754,255.62288 253.69424,256.20624 253.02083,256.64584C252.22954,257.16238 251.45837,257.48322 250.7,257.88266C249.91132,258.29807 248.99548,258.41159 248.32533,258.77734C247.3521,259.3085 246.85138,259.97418 245.89999,260.15601C245.01593,260.32495 244.11067,260.17734 243.5,260.66666C242.88933,261.15601 242.06194,261.32944 241.44733,261.814C240.79788,262.32602 240.04851,262.49768 239.33333,263C238.63789,263.48843 237.8925,263.64932 237.21466,264.08133C236.43987,264.5751 235.28604,264.28448 234.85716,264.87115C234.30196,265.63065 233.69823,265.80341 232.936,266.20267C232.1777,266.59988 231.55124,267.08414 230.936,267.77734C230.35165,268.43573 229.91747,268.85428 229.11067,269.17734C228.32153,269.49332 228.01126,270.35226 227.33333,271C226.70111,271.60406 225.87714,271.9165 225.52083,272.6875C225.15625,273.47641 224.92529,273.87454 224.11067,274.17734C223.37718,274.44998 222.86919,275.22922 222.416,275.96799C221.99434,276.65536 221.10268,277.13217 220.5,277.66666C219.91748,278.18326 219.9127,278.99493 219.44284,279.80951C219.04666,280.49634 218.01733,280.77417 217.58533,281.452C217.09154,282.22678 217.19916,283.2175 216.85266,283.86667C216.39931,284.71603 216.5,285.66666 216.5,286.56668C216.5,287.46667 216.31409,288.47137 216.784,289.08267C217.30701,289.76306 217.87582,290.29788 218.55267,290.814C219.21031,291.31546 219.88716,291.48117 220.66667,292C221.37413,292.47086 222.31778,292.39871 222.50017,293.26651C222.6667,294.05884 223.23885,294.77499 223.936,295.13068C224.70247,295.5217 225.5538,295.61325 226.07466,296.19199C226.64874,296.82986 227.27826,297.29037 228.10001,297.74133C228.87997,298.16937 229.8,298.16656 230.7,298.16666C231.59984,298.16675 232.10864,298.67447 232.85716,299.1095C233.58754,299.53397 234.60001,299.16666 235.5,299.16666C236.3,299.16666 237.2,299.16666 238.10001,299.16666C239,299.16666 239.89999,299.16666 240.8,299.16666C241.7,299.16666 242.60001,299.16666 243.5,299.16666C244.3,299.16666 245.01213,298.85092 245.83333,298.33334C246.41469,297.96695 247.1976,297.5524 247.94667,297.20267C248.73988,296.83231 249.72708,297.27896 250.616,296.88135C251.31184,296.5701 252.13069,295.82321 252.84734,295.52383C253.72009,295.15924 254.55185,294.85941 255.25717,294.51935C256.10788,294.10919 257.0336,294.12402 257.87466,293.74133C258.68558,293.37234 259.55246,293.33115 260.47849,292.94516C261.147,292.6665 261.77371,291.81754 262.31433,291.46667C263.21707,290.8808 263.99112,290.65787 264.73199,290.452C265.8273,290.14767 266.67126,290.01117 267.54166,289.64584C268.19022,289.37363 269.18369,288.96585 270,288.66666C270.54712,288.46613 271.57416,288.05695 272.45834,287.6875C273.32932,287.32358 274.16888,287.17255 275.04285,286.94516C275.76849,286.75638 276.56094,286.48508 277.57849,286.06668C278.27057,285.7821 279.09531,285.35986 279.89868,284.96799C280.66089,284.59619 281.62949,284.30353 282.384,284.08267C283.35812,283.79755 283.9006,283.45422 284.89868,282.96799C285.66107,282.59659 286.51904,282.40985 287.29868,282.08267C288.16507,281.71906 288.91254,281.31729 289.79999,281.16217C290.72833,280.99991 291.29153,280.42673 292.13599,280.14133C292.97626,279.85733 293.7012,279.59647 294.61465,278.96799C295.32053,278.48233 296.11981,278.3363 297,278.14584C297.85059,277.96179 298.65814,277.27124 299.5,277.1875C300.3295,277.10501 301.28186,277.18561 302.14816,276.80951C302.81772,276.51883 303.32092,275.56812 304.07068,275.25201C304.84674,274.9248 305.93954,275.38571 306.78568,275.1095C307.56787,274.85416 308.14661,274.172 308.98401,274.16666C309.84729,274.16116 310.86401,274.16666 311.70001,274.16666C312.60001,274.16666 313.65381,274.48901 314.37866,273.94534C315.0217,273.46304 315.75729,273.33035 316.60001,272.94534C317.26932,272.63956 318.01773,272.20465 318.8045,271.814C319.6886,271.37503 320.61118,271.4191 321.332,270.88135C322.03174,270.35931 322.54327,269.70139 323.33334,269.16666C323.9993,268.71594 324.82706,268.39194 325.69867,268.16534C326.50092,267.95679 326.677,266.82974 327.30133,266.452C328.10687,265.96457 328.99176,265.97787 329.58401,265.45065C330.18619,264.91461 331.15869,264.69119 331.88934,264.19199C332.5658,263.72983 332.80179,262.79272 333.59982,262.28799C334.37048,261.80057 334.69308,261.04263 335.2045,260.46667C335.85474,259.73441 336.18253,258.93524 336.784,258.25067C337.30734,257.655 337.33301,256.85077 337.50134,255.968C337.64575,255.21063 338.4845,254.75015 339,254.16667C339.56357,253.52879 340.37146,253.00673 340.5,252.16667C340.62167,251.37138 340.98254,250.51276 341.47467,249.77733C341.92264,249.10786 342.15625,248.47639 342.52084,247.6875C342.87717,246.9165 343.48062,246.36513 343.5,245.46667C343.51865,244.60211 344.35425,244.12271 344.49866,243.36534C344.66699,242.48257 344.85428,241.48289 344.47916,240.6875C344.14651,239.98218 342.92029,240.53336 342.02084,240.14583C341.30649,239.83804 340.7955,239.16893 339.89999,239.16667C339,239.16441 338.10001,239.16667 337.20001,239.16667C336.29999,239.16667 335.39999,239.16667 334.5,239.16667C333.70001,239.16667 332.79999,239.16667 331.89999,239.16667C331,239.16667 330.10001,239.16667 329.20001,239.16667C328.29999,239.16667 327.39984,239.16217 326.61465,239.16667C325.68527,239.17201 324.89316,239.57748 324.16666,240C323.55515,240.35564 322.47562,240.3262 321.8045,240.87117C321.04178,241.49051 320.40613,242.10579 319.5,242.16667C318.74454,242.21744 317.82678,242.04814 316.98401,242.252C316.09598,242.4668 315.30301,243.12395 314.39999,243.16667C313.50101,243.2092 312.95508,243.61699 312.21466,244.08133C311.4364,244.56941 310.34653,243.98532 309.5,244.33333C308.82892,244.60922 308.10056,245.14867 307.20001,245.16667C306.30017,245.18466 305.39316,245.05591 304.5,245.16667C303.60077,245.27818 303.20593,246.01508 302.29999,246.168C301.38657,246.32219 301.08914,247.0183 300.47467,247.73067C299.9491,248.33997 298.89999,248.16667 298,248.16667C297.08932,248.16667 296.17868,248.16606 295.32535,248.16667C294.38666,248.16734 293.82925,248.71262 293.14282,249.1095C292.4115,249.53235 291.39999,249.16667 290.5,249.16667C289.70001,249.16667 288.79904,249.22212 288,249.66667C287.19907,250.11229 286.36163,250.55275 285.70001,250.88268C284.85663,251.30324 283.89999,251.16667 283,251.16667C282.10001,251.16667 281.20001,251.16667 280.29999,251.16667C279.39999,251.16667 278.36209,250.84486 277.66666,251.33333C276.95148,251.83565 276.39999,252.16667 275.5,252.16667C274.70001,252.16667 273.79984,252.14987 272.89999,252.16667C271.93549,252.18468 271.50571,252.98474 270.69867,253.16533C269.82169,253.36157 269.09921,253.36688 268.41599,253.88268C267.80066,254.34721 266.79993,254.15627 265.89999,254.16667C264.99982,254.17709 264.20001,254.51933 263.40018,255.04533L262.58401,255.45067L262.14282,256.1095L261.29999,256.16666" id="svg_24" stroke-width="3" stroke="#000" fill="none"/>
  <path t="98601,98736,98746,98762,98780,98784,98800,98800,98816,98848,98864,98888,99048,99064" d="M169.5,273.16666C171.3,273.16666 172.20001,273.16064 173.10001,273.16666C173.90005,273.172 174.71881,273.66718 175.5,274C176.25154,274.32019 177.2,274.16666 178.10001,274.16666C179,274.16666 179.89999,274.16666 180.8,274.16666L181.7,274.16666" id="svg_25" stroke-width="3" stroke="#000" fill="none"/>
 </g>
</svg>