<svg width="500" height="342.8571428571429" xmlns="http://www.w3.org/2000/svg" xmlns:svg="http://www.w3.org/2000/svg" xmlns:xlink="http://www.w3.org/1999/xlink">
 <!-- Created with SVG-edit - http://svg-edit.googlecode.com/ -->
 <g display="inline" class="layer">
  <title>Layer 1</title>
  <path t="0,336,336,395,435,435,467,507,563,563,563,612,628,628,696,696,712,712,795,810,844,868,884,884,930,979,980,980,1020,1060,1099,1100,1124,1166,1180,1180,1203,1204,1219,1236,1296,1340,1413,1413,1429,1429,1452,1476,1492,1532,1556,1556,1572,1572,1588,1604,1628,1654,1684,1684,1746,1746,1762,1812,1813,1843,1859,1876,1899,1900,1923,1924,1931,1931,1947,1971,1987,2035,2035,2060,2060,2113,2171,2185,2185,2236,2267,2299,2299,2331,2331,2427,2443,2475,2475,2491,2523,2523,2539,2547,2579,2786,2819,2835,2835,2843,2851,2851,2867,2875,2891,2891,2899,2899,2923,2923,2931,2963,2963,2979,2987,2995,3011,3019,3019,3035,3043,3051,3059,3092,3116,3116,3140,3324,3340,3364,3380,3380,3431,3431,3446,3468,3484,3562,3596,3596,3628,3628,3887,3887,3902,3924,3963,3964,3987,3988,4078,4094,4115,4163,4245,4292,4292,4332,4332,4364,4372,4372,4396,4420,4444,4444,4452,4484,4484,4508,4532,4572,4572,4620,4620,4668,4692,4708,4780,4812,4812,4820,4828,4945,4996,5028,5028,5052,5084,5084,5124,5140,5140,5140,5164,5196,5196,5212,5228,5244,5260,5260,5292,5316,5316,5340,5380,5396,5420,5420,5452,5468,5468,5500,5508,5540,5540,5556,5556,5572,5588,5612,5620,5652,5652,5729,5771,5771,5795,5819,5819,5843,5843,5875,5899,5899,5939,5971,5971,6003,6003,6043,6067,6067,6129,6129,6145,6171,6230,6230,6267,6267,6275,6283,6307,6323,6412,6412,6427,6452,6468,6468,6484,6492,6516,6548,6643,6643,6643,6684,6684,6730,6745,6745,6771,6795,6811,6851,6875,6891,6892,6932,6963,6987,6988,6988,7027,7035,7059,7060,7129,7164,7164,7196,7196,7293,7308,7324,7356,7388,7404,7404,7428,7428,7452,7492,7492,7516,7524,7531,7556,7556,7563,7564,7572,7580,7580,7588,7596,7596,7604,7613,7628,7628,7652,7652,7668,7708,7756,7763,7780,7788,7788,7796,7813,7844,7844,7868,7868,7869,7916,7932,7940,7979,8012,8012,8052,8052,8059,8060,8076,8100,8116,8156,8172,8196,8196,8220,8220,8227,8236,8252,8260,8284,8284,8291,8316,8316,8324,8324,8379,8380,8380,8380,8396,8396,8396" d="M229.5,143.42857C229.5,141.72858 229.5,140.82857 229.5,139.90775C229.5,138.94456 229.5,138.25391 229.5,137.18575C229.5,136.32857 229.52536,135.42818 229.5,134.62857C229.47141,133.72722 228.86864,132.95752 228.62151,132.10707C228.37148,131.24663 228.5665,130.22411 228.47917,129.4494C228.36499,128.43657 227.74025,127.90058 227.52083,126.92857C227.3446,126.14794 227.5,125.22857 227.5,124.32858C227.5,123.42857 227.57333,122.62244 227.464,121.75657C227.35251,120.87354 227.07515,119.90038 226.69867,119.28191C226.14882,118.37862 225.51042,117.88708 225.5,116.94457C225.49046,116.08129 225.5,115.18574 225.5,114.22724C225.5,113.2619 225.5,112.60324 225.5,111.59524C225.5,110.73307 225.5,109.82858 225.5,108.92857C225.5,108.02857 225.5,107.12407 225.5,106.2619C225.5,105.42857 225.5,104.45007 225.5,103.62991C225.5,102.72857 225.5,101.82858 225.5,100.92857C225.5,100.01791 225.42165,99.1003 225.536,98.25391C225.64644,97.43641 226.30988,96.77877 226.48933,95.82858C226.65637,94.94415 226.5,94.02857 226.5,93.12407C226.5,92.2619 226.5,91.42857 226.5,90.45007C226.5,89.62991 226.5,88.72857 226.5,87.82858C226.5,86.92857 226.5,86.02857 226.5,85.12857C226.5,84.22857 226.5,83.32824 226.5,82.61423C226.5,81.66057 226.5,80.92857 226.5,79.7619C226.5,78.97024 226.5,78.02857 226.5,77.12857C226.5,76.22857 226.5,75.32841 226.5,74.54324C226.5,73.60324 226.5,72.91257 226.5,71.83924C226.5,70.90774 226.3071,70.07552 226.536,69.2899C226.80742,68.35832 227.7253,67.93919 228.60017,67.5499C229.34164,67.21998 230.13339,67.02621 231.01601,66.71257C231.84853,66.41673 232.91739,66.58765 233.60001,65.98591C234.11461,65.53226 234.69221,64.55746 235.5,64.42857C236.29449,64.30181 237.03719,63.68163 237.89999,63.46457C238.77351,63.24483 239.72038,63.23845 240.59984,63.42891C241.38713,63.5994 241.40968,64.61836 241.50133,65.54324C241.59013,66.43949 242.29533,67.08221 242.47917,67.92857C242.67258,68.81902 242.72829,69.74709 243,70.42857C243.38864,71.40332 243.51717,72.19386 243.85266,73.08124C244.11952,73.78706 244.31998,74.72314 244.72133,75.52857C245.10362,76.29575 245.48734,77.12865 245.5,78.02857C245.51266,78.92873 246.00049,79.64738 246.33333,80.42857C246.65352,81.18011 246.5,82.12857 246.5,83.02857C246.5,83.92857 246.28339,84.85727 246.509,85.72857C246.73711,86.6095 247.88052,86.84055 248.32933,87.62857C248.78261,88.42445 248.71523,89.36768 249.60001,89.42857C250.49788,89.49036 251.25717,89.42857 252.15266,89.42857C253.01601,89.42857 253.97917,89.42857 254.89999,89.42857C255.8,89.42857 256.70001,89.42857 257.60016,89.42857C258.38535,89.42857 259.336,89.43031 260.10132,89.42857C261.09549,89.42632 261.88608,89.47439 262.86401,89.00323C263.64267,88.6281 264.5,88.43047 265.25717,88.42857C266.15268,88.42632 267.13947,88.55338 267.85333,87.99257C268.5986,87.40708 268.85574,86.45725 269.70001,86.42857C270.59949,86.39802 271.57156,86.33971 272.10001,85.78191C272.80792,85.03466 273.103,84.2676 273.41599,83.3139C273.70291,82.43964 274.1857,81.98967 274.97916,81.42857C275.59271,80.9947 276.12619,80.30405 276.79468,79.72857C277.52103,79.10329 277.97046,78.36572 278.64932,77.82858C279.3605,77.26586 279.5,76.32858 279.5,75.42857C279.5,74.6714 279.5,73.7759 279.5,72.91257C279.5,71.9494 279.49933,71.02857 279.5,70.12857C279.50067,69.22857 279.69305,68.30453 280.2045,67.72857C280.85471,66.9963 281.35013,66.32429 281.5,65.42857C281.64023,64.59039 282.5,64.42857 283.29999,64.42857C284.25717,64.42857 285.17386,64.30735 286.01599,64.51391C286.91681,64.73486 287.64917,65.45981 288.32535,65.8179C289.00003,66.17519 290.12421,66.35775 290.44733,67.1384C290.76056,67.89513 290.90988,68.81916 291.69867,69.34457C292.42059,69.82545 292.39679,70.76121 292.52084,71.40774C292.70435,72.36407 293.45331,72.99487 293.49551,73.7804C293.54984,74.79112 293.5,75.62857 293.5,76.52857C293.5,77.42857 293.5,78.22857 293.5,79.18574C293.5,80.08124 293.5,80.94457 293.5,81.90774C293.5,82.73307 293.5,83.74991 293.5,84.42857C293.5,85.40707 293.5,86.22724 293.5,87.12857C293.5,88.02857 293.5,88.92857 293.5,89.83924C293.5,90.74991 293.41403,91.6073 293.50134,92.54324C293.58499,93.43998 294.32645,93.88641 294.97916,94.4494C295.61188,94.99514 295.5618,96.04011 296.20984,96.6714C296.77252,97.21955 297.6485,97.89109 298.5,98.2619C299.24896,98.58805 300.19186,98.41581 300.98267,98.9979C301.52313,99.39572 301.97491,100.38502 302.54816,101.0669C303.01978,101.62791 304.02509,101.95563 304.63867,102.61391C305.20859,103.22535 305.48953,104.12408 305.5,105.02857C305.50937,105.83926 305.72833,106.74709 306,107.42857C306.38852,108.40314 306.48129,109.22743 306.5,110.12857C306.51868,111.0291 307.01733,111.77896 307.41599,112.62857C307.8197,113.48901 308.25049,114.08649 308.7955,114.72857C309.4361,115.48325 309.5,116.42857 309.5,117.22857C309.5,118.12857 309.67258,118.87037 310.14734,119.53841C310.62543,120.21115 310.5,121.42857 310.5,122.22857C310.5,123.02857 310.49609,124.02408 310.5,124.77141C310.50534,125.79261 310.76089,126.65049 311.30133,127.22857C311.87503,127.84223 312.98941,128.04898 313.44284,128.78574C313.88562,129.50517 313.45221,130.52983 313.5,131.42857C313.54272,132.23198 314.17834,132.98573 314.47467,133.8499C314.77698,134.73151 314.76813,135.46742 315.2045,136.36607C315.61813,137.21794 316.45728,137.71056 316.5,138.52873C316.54095,139.31284 316.33847,140.29614 316.66666,141.2619C316.90366,141.95932 317.70001,142.62859 318.29999,143.22858C318.89999,143.82858 319.60114,144.52744 320.20001,145.12857C320.79663,145.72745 321.36606,146.53033 321.5,147.42857C321.60461,148.13008 322.22308,148.70779 323.01733,149.22858C323.75107,149.7097 324.43784,150.52094 324.49866,151.22858C324.57571,152.12526 324.38806,153.03795 324.52084,153.9494C324.66479,154.93744 325.18869,155.56956 325.41467,156.54457C325.58911,157.2972 325.47601,158.2542 325.5,159.2619C325.51801,160.01854 325.94421,160.82088 326.59982,161.52856C327.14978,162.12221 327.39169,162.93584 327.51068,163.83923C327.63275,164.76595 328.1033,165.39465 328.37851,166.40707C328.56909,167.10811 328.5,168.02856 328.5,168.92857C328.5,169.82857 328.53891,170.797 329,171.4494C329.47272,172.11827 329.49933,172.94591 329.5,173.90775C329.50064,174.83923 329.45886,175.75252 329.52084,176.4494C329.60855,177.43549 329.95889,178.20535 330.216,178.94324C330.57263,179.96663 331.14877,180.48039 331.58401,181.2299C332.00137,181.94861 332.42831,182.7449 332.48932,183.60324C332.55606,184.54228 332.56107,185.32169 332.92532,186.25391C333.19803,186.95186 333.48956,187.90756 333.5,188.82857C333.51019,189.72852 333.5,190.62857 333.5,191.52856C333.5,192.42857 333.5,193.18575 333.5,194.08124C333.5,194.94456 333.5,195.90775 333.5,196.82857C333.5,197.72858 333.5,198.62857 333.5,199.52873C333.5,200.3139 333.47711,201.25417 333.5,202.2619C333.51801,203.05452 333.77176,203.92017 334.11066,204.63924C334.58112,205.63744 334.95261,206.19273 335.21466,206.94324C335.58029,207.99045 335.48932,208.83923 335.27832,209.74974L334.95834,210.40775" id="svg_1" stroke-width="3" stroke="#000" fill="none"/>
  <path t="9538,9690,9705,9705,9725,9725,9732,9748,9788,9788,9796,9820,9820,9852,9852,9868,9884,9916,9932,9932,9964,9972,9972,9980,9988,10004,10013,10020,10028,10044,10060,10060,10084,10084,10092,10108,10124,10140,10164,10164,10172,10188,10188,10220,10236,10236,10244,10252,10260,10268,10276,10292,10332,10332,10349,10350,10365,10365,10404,10404,10460,10460,10500,10596,10596,10612,10620,10628,10628,10636,10644,10644,10652,10713,10713,10825,10841,10868,10884,10892,10908,10908,10932,10956,10996,11012,11012,11028,11036,11068,11092,11092,11108,11124,11140,11148,11156,11172,11196,11212,11228,11244,11244,11260,11276,11316,11316,11364,11380,11388,11396,11396,11420,11420,11428,11428,11480,11480,11495,11495,11516,11516,11532,11532,11540,11548,11556,11580,11580,11596,11596,11620,11620,11627,11644,11652,11652,11668,11676,11692,11716,11716,11740,11740,11747,11756,11772,11780,11820,11820,11836,11836,11836,11852,11868,11868,11924,11924,11924,11972,11972" d="M232.5,140.42857C231.66667,140.59525 231.5,141.42857 231.5,142.18575C231.5,143.08124 231.50558,143.94458 231.5,144.90775C231.49466,145.82861 231.05945,146.68661 230.784,147.3139C230.39201,148.20657 230.412,149.31177 229.97917,149.90775C229.39772,150.70836 228.64886,151.1969 228.5045,152.12857C228.36668,153.01796 228.5,153.83923 228.5,154.74991C228.5,155.60324 228.55952,156.54506 228.49983,157.52856C228.45711,158.23244 227.8291,158.89452 227.11067,159.40324C226.45462,159.8678 226.5,160.92857 226.5,161.82857C226.5,162.72858 226.5,163.62857 226.5,164.52873C226.5,165.3139 226.5,166.25391 226.5,166.94456C226.5,168.0179 226.5,168.92857 226.5,169.82857C226.5,170.72858 226.5,171.6299 226.5,172.3139C226.5,173.25391 226.15475,174.36736 226.55716,175.06691C227.02533,175.88078 227.5,176.42857 227.5,177.22858C227.5,178.12857 227.35402,179.15131 227.936,179.8179C228.54558,180.51608 229.47133,180.78429 229.5,181.62857C229.53055,182.52821 229.52525,183.33856 229.936,184.25391C230.25589,184.96675 230.75743,185.72519 231.38533,186.22723C232.10022,186.79883 233.05885,187.25047 233.39017,188.08124C233.71782,188.90285 233.9077,189.81885 234.5,190.42857C235.07378,191.01924 236.1003,191.25937 236.7955,191.78574C237.46373,192.29167 237.47348,193.31488 238.04167,193.92857C238.70996,194.65038 239.7115,194.71159 240.257,195.52856C240.77469,196.30385 240.51799,197.22876 240.5,198.12857C240.48199,199.0291 240.06729,199.82408 239.584,200.62724C239.13597,201.37181 238.23338,201.51334 237.78534,202.2299C237.28618,203.02823 237.57741,204.09616 237.064,204.82857C236.51024,205.61853 235.96422,206.17831 235,206.40775C234.12392,206.61621 233.13736,206.59671 232.66667,207.42857C232.30542,208.06702 231.8138,208.85094 231.55716,209.72858C231.30405,210.59413 231.61076,211.5354 231.5,212.42857C231.38849,213.32779 230.54271,213.71092 230.5,214.62857C230.45816,215.52759 230.5,216.42857 230.5,217.22858C230.5,218.12857 230.5,218.9494 230.5,219.91257C230.5,220.77591 230.32187,221.6884 230.50133,222.62724C230.64641,223.38625 231.61566,223.86087 232,224.4494C232.52164,225.24818 233.01358,225.89482 233.7,226.6299C234.21027,227.17633 234.76878,228.10571 235.136,228.60324C235.76323,229.45305 236.65865,229.73332 237.25717,230.52873C237.76822,231.2079 237.71021,232.18088 238.30133,232.85924C238.9324,233.58344 239.23187,234.19666 239.57201,235.02856C239.86732,235.75087 240.76636,235.98071 241.4785,236.74991C242.05145,237.36876 242.54099,238.23343 242.97917,238.90775C243.49286,239.69824 243.3363,240.68587 243.72133,241.52856C244.02713,242.19788 244.3295,243.04857 244.52083,243.92857C244.70483,244.7749 245.34705,245.53769 245.584,246.3139C245.82138,247.09149 246.00308,248.03735 246.5,248.8869C246.87939,249.53554 248.01094,249.65875 248.37849,250.52856C248.73199,251.36511 248.51736,252.25333 248.78534,253.19524C248.99069,253.91701 249.23242,254.63831 250,255.40775C250.64796,256.05728 251.09981,256.67584 251.66667,257.42856C252.12869,258.04208 252.9045,258.71423 253.69983,259.18573L254.47917,259.40775" id="svg_2" stroke-width="3" stroke="#000" fill="none"/>
  <path t="14632,14726,14742,14742,14764,14772,14772,14772,14788,14788,14788,14797,14820,14820,14844,14860,14868,14868,14892,14908,14916,14917,14940,14949,14956,14956,14972,14996,14996,14996,15078,15116,15241,15257,15276,15276,15276,15284,15284,15307,15308,15379,15394,15446,15446,15462,15483,15492,15500,15507,15508,15516,15524,15524,15532,15532,15539,15540,15564,15564,15580,15724,15724,15724,15724,15739,15739,15757,15757,15764,15764,15772,15772,15772,15780,15780,15796,15796,15804,15879,15916,15916,15924,15932,15940,15940,15948,15956,15980,16100,16100,16116,16124,16124,16124,16131,16132,16156,16213,16229,16244,16259,16267,16283,16284,16316,16316" d="M232.5,116.42857C233.52083,115.92857 234.36626,115.69809 235.1955,115.37591C235.95184,115.08205 236.64986,114.39851 237.34666,114.02857C238.16841,113.59229 239.18002,113.22238 239.71466,113.03924C240.48653,112.77483 241.74399,112.63564 242.5,112.2619C243.29134,111.8707 243.68146,110.91906 244.60001,110.55007C245.44272,110.21156 246.29489,110.33447 247,109.92857C247.79436,109.4713 248.71594,109.16376 249.37866,108.5499C249.9514,108.01939 250.69914,107.48369 251.66667,107.42857C252.47812,107.38235 253.26923,107.10305 253.83333,106.2619C254.17377,105.75426 254.75186,104.95725 255.61467,104.59924C256.53812,104.21606 257.10956,104.9404 257.86618,105.37141C258.70804,105.85096 259.51813,105.50761 260.24933,105.35658C261.39322,105.12029 261.81082,104.27325 262.60001,103.6714C263.21384,103.20329 263.97421,102.87609 264.89999,102.4539C265.68085,102.0978 266.22269,101.53699 267,100.9494C267.73761,100.39182 268.61624,100.25838 269.5,100.42857C270.38135,100.5983 270.48956,101.44925 270.5,102.54324C270.50842,103.42854 270.47058,104.18636 270.50449,105.08574C270.53271,105.83439 270.733,106.85166 271.11066,107.59258C271.54211,108.43906 272.20078,109.10133 272.5,109.9494C272.77637,110.73267 273.04465,111.64735 273.60001,112.40691C274.04974,113.02201 274.99982,113.41815 275.89999,113.42857C276.70261,113.43787 277.47092,113.44742 278.50983,113.42407C279.2858,113.40664 280.34656,113.30568 281.04285,113.0714C281.91547,112.7778 282.71121,112.35 283.47916,111.92857C284.34686,111.45242 284.8963,110.75424 285.79999,110.48574C286.66449,110.22889 287.60016,110.42406 288.38535,110.42857C289.31473,110.43391 290.37708,110.62234 290.5,111.42857C290.62057,112.21943 290.5,113.12857 290.5,114.02857C290.5,114.9494 290.26154,115.96523 290.55716,116.71873C290.85114,117.46803 292.05533,117.0064 292.73999,116.56724C293.22281,116.25753 293.96573,115.30798 294.54367,114.79024C295.16855,114.23042 296.13599,114.42857 297.15268,114.42857C297.84732,114.42857 298.86401,114.42857 299.8045,114.42857C300.66666,114.42857 301.5,114.42857 302.47849,114.42857L303.29868,114.42857" id="svg_3" stroke-width="3" stroke="#000" fill="none"/>
  <path t="17493,17721,18030,18079,18095,18132,18148,18148,18164,18180,18197,18220,18220,18260,18260,18268,18284,18284,18308,18316,18316,18380,18380,18395,18395,18428,18428,18444,18468,18513,18528,18572,18588,18612,18612,18835,18879,18916,18994,19035,19112,19128,19210,19268,19284,19284,19423,19423,19559" d="M246.5,130.42857C246.536,129.43924 247.31767,129.66066 247.50017,130.52841C247.66678,131.32059 248.60127,131.38078 249.5,131.42857C250.30341,131.4713 251.24121,131.97218 251.464,132.82857C251.69078,133.70029 251.6217,134.67313 251.32933,135.3139C250.94156,136.16376 250.2742,136.97179 249.38533,137.25658C248.54221,137.52672 247.79872,136.78415 247,136.42857C246.19418,136.06984 245.59309,135.56268 244.85184,134.77141C244.34622,134.23167 243.73253,133.45506 243.57201,132.63924C243.36996,131.61246 243.5,130.83923 243.5,129.92857C243.5,129.02856 243.24234,127.85434 243.936,127.46457C244.7767,126.99218 245.89458,127.57943 246.33333,128.42857C246.66316,129.06694 246.08331,130.1407 246.536,130.99257C246.92458,131.7238 248.1515,131.86589 248.41467,132.62857C248.7095,133.483 248.21764,134.38594 247.3,134.42857C246.40097,134.47034 245.5,134.2619 244.89999,133.8179L244.209,133.13307L243.972,132.46457L244.8,132.42857" id="svg_4" stroke-width="3" stroke="#000" fill="none"/>
  <path t="19923,20415,20510,20525,20548,20548,20644,20727,20743,20780,20804,20878,20923,20963,20963,20971,20971,21029,21084,21140,21140,21172,21196,21246,21300,21300,21316,21340,21340,21411" d="M272.5,130.42857C270.79999,130.3714 269.8114,129.67149 270.26617,129.43307C271.05133,129.02142 272.10156,129.05647 272.95834,129.4494C273.67972,129.78023 273.56708,131.19031 272.88934,131.41791C271.95142,131.73288 270.83347,131.66203 270.20901,131.07141C269.60754,130.50252 270.36703,129.61436 271.32535,129.46457C272.00858,129.35777 273.11246,129.22806 273.7955,129.79024C274.543,130.40549 274.86893,131.66284 274.21466,132.2579C273.52634,132.88397 272.39383,132.53383 271.5,132.42857C270.77029,132.34265 270.52084,131.40775 270.50015,130.45007L270.58533,129.6299L271.11066,128.86458" id="svg_5" stroke-width="3" stroke="#000" fill="none"/>
  <path t="22416,22542,22558,22588,22604,22620,22636,22652,22700,22708,22778,22794,22820,22836,22852,22875,22892,22892,22962,22978,22978,23004,23078,23162,23260,23260,23276,23300,23300,23340,23443,23508,23515,23572,23572,23595,23612,23636,23679,23762,23778,23876,23908,23916,23955,23964,23964,23981,24012,24028,24028,24076,24160,24176,24212,24212,24220,24237,24284,24308,24340,24380,24396,24412,24444,24444,24484,24500,24501,24524,24540,24548,24548,24613,24709,24709,24748,24748,24788,24908,24947,24996,25028,25060,25060,25128,25203,25203,25227,25252,25259,25283,25307,25307,25362,25404,25463,25463,25545,25545,25561,25588,25695,25711,25732,25732,26047,26062" d="M258.5,129.42857C257.50449,131.12857 257.89819,132.13115 257.46399,132.99257C257.11172,133.69144 256.92859,134.38326 256.41467,135.14323C255.96338,135.81062 254.75879,135.97218 254.536,136.82857C254.30922,137.70029 254.62401,138.63718 254.49983,139.52841C254.38811,140.33028 253.52859,140.78429 253.5,141.62857C253.46953,142.52821 253.5,143.3139 253.5,144.25391C253.5,145.2619 253.5,146.0179 253.5,146.92857C253.5,147.82857 253.29793,148.8217 253.78534,149.62724C254.1631,150.25157 255.25716,150.42632 256.15268,150.42857C256.84732,150.43031 257.90265,150.68956 258.7955,150.42407C259.55817,150.1973 259.70209,149.03545 259.21466,148.2299C258.83688,147.60556 257.79999,147.43083 256.89999,147.42857C256,147.42633 255.06285,147.17776 254.2045,147.43307C253.44185,147.65991 253.24919,148.86572 253.5045,149.72408C253.73134,150.48672 254.80458,150.43962 255.66667,150.42857C256.47937,150.41815 257.39087,150.07651 257.92532,149.44324C258.41663,148.8611 258.7244,148.1082 259.216,147.3459C259.63455,146.69691 259.4472,145.57288 258.5,145.42857C257.70914,145.30809 256.79999,145.42857 255.89999,145.42857C255,145.42857 253.8535,145.24405 253.52083,145.9494C253.14569,146.7448 253.39294,147.73512 253.50133,148.62857C253.61288,149.54822 254.15663,150.22696 255.02083,150.40775C255.96381,150.60501 256.84732,150.42857 257.74283,150.42857C258.70132,150.42857 259.67111,150.49445 260.31467,150.41791C261.27356,150.30386 261.67041,149.23485 261.45834,148.4494C261.23022,147.60446 260.31485,147.43916 259.38535,147.42857C258.40024,147.41736 257.25793,147.90564 257.85718,148.3714C258.52411,148.88977 259.62604,148.23773 260.20001,147.72408C260.93533,147.06604 261.60358,146.51129 262.064,145.82857C262.61816,145.00684 262.2601,143.99458 262.50449,143.13307C262.72501,142.35567 263.45331,141.86227 263.49551,141.07674C263.54984,140.06602 263.5,139.12407 263.5,138.2619C263.5,137.42857 263.5,136.45007 263.5,135.6299C263.5,134.72858 263.49466,133.82855 263.5,132.92857C263.50534,132.02852 263.78534,131.22858 264.30133,130.62857L264.97916,129.97025L265.43832,130.19473" id="svg_6" stroke-width="3" stroke="#000" fill="none"/>
  <path t="27875,28085,28132,28132,28172,28172,28188,28188,28204,28236,28260,28276,28360,28360,28375,28375,28404,28428,28444,28496,28512,28512,28656,28656,29057,29073,29073,29091,29478,29546,29546,29612,29612,29628,29695,29710,29740,29756,29796,29845,29861,29907,29931,29971,29972,30011,30094,30109,30158,30158,30172,30188,30244,30267,30268,30375,30428,30510,30510,30547,30548,30588,30644,30668,30728,30743,30743,30780,31016,31078,31078,31124,31148,31148" d="M248.5,156.42857C250.136,157.03925 250.79506,157.58186 251.52083,157.90775C252.47072,158.33426 253.28888,158.41057 254.33333,158.42857C255.08923,158.4416 256,158.42857 256.89999,158.42857C257.79999,158.42857 258.70132,158.42857 259.66666,158.42857C260.5,158.42857 261.33334,158.42857 262.1955,158.42857C263.10001,158.42857 264,158.42857 264.89999,158.42857C265.8045,158.42857 266.66666,158.42857 267.5,158.42857C268.47849,158.42857 269.31409,158.55194 270.25717,158.3714C271.18335,158.19409 271.84525,157.77496 272.74283,157.48123C273.5979,157.20142 274.54211,156.76428 274.49866,157.62857C274.45215,158.55389 273.88217,159.14154 273.47467,160.02856C273.10129,160.84134 272.81747,161.65999 272.216,162.34457C271.69266,162.94023 271.68161,163.88747 271.064,164.40324C270.43192,164.93111 269.96799,165.62726 269.33334,166.2619C268.6987,166.89656 267.85202,166.994 267.2045,167.72858C266.62076,168.39079 266.3457,169.34483 265.5,169.42857C264.70392,169.5074 263.6655,169.31184 263.02084,169.9494C262.37561,170.58754 261.93369,171.38161 261.14816,171.42407C260.25845,171.47217 259.29868,171.42857 258.33334,171.42857C257.67465,171.42857 256.66666,171.42857 255.8045,171.42857C254.89999,171.42857 254,171.43082 253.10001,171.42857C252.19998,171.42632 251.45319,171.1217 250.7,170.71257C249.90248,170.27936 249.28384,169.69911 248.5,169.2619C247.84813,168.8983 247.2045,168.12857 246.66667,167.42857L246.416,166.62857" id="svg_7" stroke-width="3" stroke="#000" fill="none"/>
  <path t="31813,31956,31972,32020,32060,32060,32112,32179,32229,32229,32267,32267,32299,32299,32522,32522,32537,32537,32555,32572,32612,32636,32651,32668,32675,32932,32932,32947" d="M249.5,157.42857C249.5,159.22858 249.49944,160.12857 249.5,160.9494C249.50067,161.91124 249.55745,162.71852 250.07466,163.44324C250.52559,164.07506 250.71375,164.95578 251.14667,165.60324C251.72998,166.47563 252.53163,166.86026 253.33333,167.42857C253.9863,167.89145 254.44102,169.03091 255.02083,168.8869C255.93788,168.65912 256.32996,167.65926 256.48932,166.82857C256.67117,165.88074 257.3089,165.52083 257.88934,164.99257C258.5748,164.36874 258.85718,163.48123 259.69867,163.14323L260.33334,162.42857L260.49551,161.72858L260.5,160.79257" id="svg_8" stroke-width="3" stroke="#000" fill="none"/>
  <path t="34746,34936,34980,34980,35030,35030,35045,35292,35292" d="M253.5,158.42857C252.73833,158.42857 251.78966,158.60776 250.98399,158.2579C250.15636,157.89851 249.70134,156.99657 248.97917,156.47025L248.01601,156.42723L247.32533,156.39258" id="svg_9" stroke-width="3" stroke="#000" fill="none"/>
  <path t="35989,36154,36154,36187,36195,36235,36244,36291,36346,36362,36476,36476,36508,36508,36524,36524,36657" d="M249.5,170.42857C249.5,169.42857 249.38232,168.64748 248.92534,167.82857C248.49413,167.05585 247.9281,166.4837 247.47467,165.8179C246.97916,165.09029 246.01132,164.80592 245.55716,164.06691C245.13461,163.37933 245.5,162.40775 245.5,161.42857C245.5,160.63924 245.5,159.59525 245.5,158.83923L245.5,157.92857" id="svg_10" stroke-width="3" stroke="#000" fill="none"/>
  <path t="38262,38300,38308,38332,38340,38364,38404,38404,38420,38420,38428,38428,38436,38460,38468,38500,38500,38508,38508,38516,38523,38545,38547,38596,38604,38620,38628,38636,38645,38645,38660,38660,38676,38684,38684,38692,38692,38700,38708,38724,38732,38739,38748,38748,38756,38756,38772,38780,38796,38803,38820,38820,38844,38852,38852,38875,38876,38891,38892,38899,38900,38915,38916,38993,38993" d="M296.5,137.42857C297.14734,138.13307 297.49466,139.02852 297.5,139.92857C297.50534,140.82855 297.5,141.72858 297.5,142.6299C297.5,143.3139 297.5,144.26457 297.5,145.02991C297.5,146.02408 297.5,146.94324 297.5,147.90775C297.5,148.82857 297.5,149.73308 297.5,150.59525C297.5,151.42857 297.67307,152.4442 297.41467,153.22723C297.15936,154.00096 296.70816,154.80339 296.216,155.62724C295.75272,156.40274 295.06067,156.85574 294.58401,157.62724C294.1293,158.36322 293.04138,158.24721 292.52533,158.86458C291.99606,159.49774 291.63953,160.27164 290.84732,160.72408C290.17291,161.10924 289.23105,161.2997 288.33334,161.59525C287.47327,161.87839 286.57159,162.32874 286.04166,162.92857C285.42343,163.62837 285.06454,164.41057 284.20001,164.42857C283.30017,164.44731 282.33942,164.23041 281.5,164.59525C280.81543,164.89278 280.20377,165.73238 279.70001,166.22858C279.00516,166.91301 278.20139,167.39998 277.29999,167.42857C276.40045,167.45712 275.46518,167.2653 274.70001,167.5139C273.90909,167.77087 273.00888,168.3065 272.32535,168.4539C271.36978,168.65997 270.70847,169.15291 269.73199,169.34457C269.009,169.48648 267.81378,169.54993 267.172,169.85391C266.26669,170.28271 265.61465,170.51257 264.67465,170.85391L263.98401,171.14458" id="svg_11" stroke-width="3" stroke="#000" fill="none"/>
  <path t="40465,40544,40560,40560,40587,40603,40603,40611,40611,40619,40627,40635,40635,40659,40659,40666,40674,40690,40738,40746,40746,40763,40771,40786,40810,40810,40818,40819,40834,40844,40851,40866,40890,40890,40898,40899,40914,40922,40938,40962,40978,40978,41010,41011,41019,41058,41058,41074,41083,41090,41098,41098,41114,41138,41138,41170,41170,41210,41210,41218,41218,41235,41244,41244,41259,41274,41275,41282,41282,41298,41306,41322" d="M299.5,195.42857C299.5,198.0179 299.64206,198.94157 299.48932,199.82857C299.34586,200.66171 298.58795,201.41591 298.50449,202.18575C298.40796,203.07603 298.50262,203.94456 298.5,204.90775C298.49774,205.73309 298.27557,206.74864 298,207.42857C297.66287,208.26038 297.50226,209.12405 297.5,210.02856C297.49777,210.92857 297.5,211.82857 297.5,212.73308C297.5,213.59525 297.59387,214.43311 297.49985,215.40691C297.41614,216.27393 296.62625,216.72838 296.33334,217.59525C296.10681,218.26564 295.59357,219.25044 295.51068,220.0179C295.41287,220.92337 295.5,221.82857 295.5,222.72858C295.5,223.6299 295.5,224.59525 295.5,225.25391C295.5,226.2619 295.5,227.12407 295.5,228.02856C295.5,228.92857 295.58173,229.83267 295.49551,230.73308C295.41193,231.60637 294.91748,232.40013 294.66666,233.2619C294.42151,234.10423 294.5,234.9494 294.5,235.91257C294.5,236.77591 294.5,237.6714 294.5,238.62857C294.5,239.52856 294.5,240.42857 294.5,241.22858C294.5,242.06458 294.50061,242.91391 294.5,243.83307C294.49933,244.82724 294.58704,245.63345 294.216,246.54457C293.93954,247.2235 293.52985,248.07991 293.50134,248.94456C293.4689,249.92804 293.5,250.74991 293.5,251.60324C293.5,252.54457 293.54517,253.59753 293.48932,254.25391C293.40286,255.27023 292.92532,256.01791 292.53601,256.82858L292.5,257.72858L292.5,258.62857" id="svg_12" stroke-width="3" stroke="#000" fill="none"/>
  <path t="42449,42525,42555,42555,42555,42562,42570,42570,42586,42587,42602,42642,42658,42666,42674,42674,42690,42691,42698,42714,42714,42730,42746,42746,42770" d="M260.5,233.42857C260.20901,234.24741 260.63162,234.95924 260.97916,235.92857C261.23868,236.6524 261.47141,237.61749 261.5,238.59525C261.51926,239.25363 261.5,240.2619 261.5,241.12407C261.5,242.02856 261.5,242.92857 261.5,243.82857C261.5,244.73308 261.49994,245.59525 261.5,246.42857C261.50009,247.40707 261.51273,248.27791 262.02084,248.92857C262.62115,249.69728 263.29999,250.22858 263.89999,250.82857L264.60001,251.52856L265.20001,252.12857L265.79999,252.72408" id="svg_13" stroke-width="3" stroke="#000" fill="none"/>
  <path t="43267,43404,43404,43419,43435,43458,43458,43459,43474,43490,43522,43562,43578,43579,43602,43650,43658,43674,43682,43690,43698,43706,43706,43714,43714,43730,43730,43762,43803,43803,43819,43834,43850,43858,43898,43898,43938,43940,43986,43986,44018,44018,44035,44035,44050,44058,44066,44090,44098,44098,44122,44122,44132,44147,44147,44154,44162,44162,44170,44178,44178,44187,44187,44194,44194" d="M261.5,227.42857C263.29999,227.42857 264.1376,227.47855 264.98532,227.4259C265.90948,227.36852 266.71631,227.00827 267.47916,226.42857C268.02698,226.01228 268.97836,225.44942 269.79999,225.42857C270.69974,225.40575 271.60001,225.42857 272.5,225.42857C273.29999,225.42857 274.2265,225.24483 275.10001,225.46457C275.96283,225.68163 276.7937,226.21207 277.44733,226.78123C278.04385,227.3007 278.9144,227.70262 279.33334,228.42857C279.73624,229.12672 280.08627,229.8976 280.64932,230.60324C281.2778,231.3909 281.49866,232.22723 281.5,233.06458C281.50162,234.08124 281.5,234.77591 281.5,235.79257C281.5,236.72858 281.5,237.62857 281.5,238.52856C281.5,239.42857 281.47058,240.18637 281.50449,241.08574C281.53271,241.8344 281.80551,242.82108 282.07468,243.62857C282.40515,244.61992 282.48956,245.40758 282.5,246.40707C282.50748,247.12402 282.5,248.02856 282.5,248.92857C282.5,249.82857 282.5,250.73308 282.5,251.74991C282.5,252.42857 282.5,253.40707 282.5,254.22723C282.5,255.18575 282.5,256.08124 282.5,256.94458C282.5,257.80325 282.5,258.74991 282.5,259.60324C282.5,260.54324 282.5,261.42856 282.5,262.24292C282.5,263.19656 282.5,263.92856 282.5,265.09525L282.5,265.8869" id="svg_14" stroke-width="3" stroke="#000" fill="none"/>
  <path t="44980,45122,45137,45137,45211,45278,45278,45314,45354,45474,45522,45538,45562,45578,45578,45690,45690,45690,45707,45722,45755" d="M263.5,227.42857C263.5,229.18575 263.62311,230.10287 263.41467,230.94456C263.19409,231.83531 262.3157,232.46175 261.936,233.02856C261.38437,233.85202 261.61655,234.83673 261.49551,235.72858C261.38409,236.54961 260.54272,237.06119 260.5,236.22723C260.45062,235.26317 260.5,234.42857 260.5,233.59525C260.5,232.73308 260.5,231.82857 260.54166,230.9494L261.20532,230.48123L262.16666,230.2619" id="svg_15" stroke-width="3" stroke="#000" fill="none"/>
  <path t="46751,46872,46872,46872,46872,46888,46907,46923,46931,46931,46987,47035,47043,47051,47059,47059,47067,47067,47075,47075,47083,47084,47084,47084,47084,47091,47092,47092,47092,47107,47107,47147,47147,47179,47187,47203,47235,47259,47259,47259,47283,47283,47291,47291,47307,47315,47323,47331,47355,47355,47355,47363,47363,47363,47387,47411" d="M300.5,199.42857C302.15268,198.71873 302.83908,198.06831 303.47849,197.45024C304.08167,196.8672 304.99985,196.44124 305.89999,196.42857C306.7999,196.41591 307.53665,196.10245 308.29999,195.71257C309.05289,195.32802 310.00006,195.41887 310.89999,195.42857C311.88953,195.43924 312.35587,196.01082 312.55267,196.78041C312.78702,197.69678 313.33444,198.29224 313.8045,199.09474C314.29242,199.92773 314.66522,200.76263 314.98532,201.3979C315.33441,202.0907 315.70215,202.81851 316.10132,203.5459C316.68738,204.61383 317.09387,205.26791 317.664,206.1819C318.0137,206.74251 318.64618,207.72539 318.95834,208.3869C319.4292,209.38469 319.49933,210.22723 319.5,211.12857C319.50067,212.02856 319.41779,212.93324 319.50449,213.73308C319.61658,214.76695 320.01117,215.46863 320.38666,216.02991C320.94061,216.85797 321.49908,217.40865 322.33334,218.2619C322.85275,218.79314 323.33325,219.64006 323.50015,220.52841C323.64966,221.32411 324.32065,221.76784 324.83334,222.59525C325.28238,223.3199 325.88748,223.80623 326.47849,224.6284C326.88962,225.20035 327.29868,225.94324 327.88934,226.79257L328.41599,227.62857" id="svg_16" stroke-width="3" stroke="#000" fill="none"/>
 </g>
</svg>