<svg width="500" height="333.3333333333333" xmlns="http://www.w3.org/2000/svg" xmlns:svg="http://www.w3.org/2000/svg" xmlns:xlink="http://www.w3.org/1999/xlink">
 <!-- Created with SVG-edit - http://svg-edit.googlecode.com/ -->
 <g display="inline" class="layer">
  <title>Layer 1</title>
  <path t="0,645,733,734,745,745,748,756,780,819,828,843,1035,1044,1044,1057,1075,1103,1103,1112,1347,1356,1356,1364,1387,1396,1416,1539,1548" d="M175.5,201.16667C173.67467,201.188 172.63028,201.46512 172.136,202.01733C171.446,202.78821 170.79993,203.1515 169.89999,203.16667C169.02071,203.18149 168.64902,203.89818 168.064,204.556C167.44785,205.24883 166.2204,204.84349 165.62134,205.38817C164.92365,206.02252 164.88687,206.88181 164.47467,207.76666C164.09494,208.58182 163.32104,209.20348 162.936,209.76666C162.3716,210.59222 161.97282,211.37613 161.62151,212.26666C161.36086,212.92737 161.12938,213.59567 160.62151,214.38817C160.14307,215.13474 160.27867,216.04533 159.55716,216.52383L159.5,217.36667" id="svg_1" stroke-width="3" stroke="#000" fill="none"/>
  <path t="3948,4228,4253,4285,4285,4363,4382,4382,4492,4515,4539,4557,4603,4683,4699,4699,4923,4923,4939,4955,4965,4972,4981,5019,5020,5043,5058,5058,5163,5183,5188,5211,5212,5235,5236,5267,5268,5291,5307,5308,5355,5355,5372,5372,5403,5405,5436,5451,5547,5547,5564,5564,5580,6251,7443,7444,7464,7464,7533,7533,8091,8092" d="M172.5,199.16667C174.2,200.16217 175.13646,200.19337 175.98399,200.16533C176.84866,200.13672 177.6687,199.66991 178.5,199.33333C179.2572,199.02675 180.2,199.16667 181.10001,199.16667C182,199.16667 183.00279,199.26711 183.5,198.64583C184.11023,197.88332 184.658,197.26965 185.5,197.1875C186.47409,197.09245 187.29866,197.16667 188.2,197.16667C189.10001,197.16667 190,197.16667 190.89999,197.16667C191.8,197.16667 192.70134,197.16667 193.38533,197.16667C194.32533,197.16667 195.36363,196.99013 196.1955,197.22383C196.96077,197.43883 197.70464,198.04173 198.60001,198.16684C199.50647,198.29349 200.07838,198.80014 200.8045,199.46667C201.36909,199.98494 202.16591,200.44452 202.84734,200.86667C203.76154,201.43303 204.50505,201.98329 205.25717,202.21933C206.16368,202.50383 206.90286,202.87448 207.69983,203.26649C208.47758,203.64906 209.50836,203.95062 210.1955,204.21933C211.05278,204.55458 211.8199,205.06053 212.66667,205.33333C213.34021,205.55032 214.35757,205.92195 215.08934,206.192C215.93739,206.50497 216.69698,207.12395 217.60017,207.16667C218.38446,207.20377 219.336,207.16667 220.10133,207.16667C221.10001,207.16667 221.89999,207.16667 222.89734,207.168L223.62801,207.20267" id="svg_2" stroke-width="3" stroke="#000" fill="none"/>
  <path t="9020,9139,9139,9151,9179,9199,9199,9204,9215,9215,9235,9236,9246,9252,9267,9277,9277,9284,9299,9323,9339,9340,9356,9356,9364,9364,9372,9380,9389,9396,9396,9411,9459,9596,9596,9605,9637,9645,9732,9796,9796,9821,9868" d="M217.5,164.16667C216.5,163.16667 215.54343,162.73317 214.78534,163.252C214.16138,163.67903 214.18378,164.84135 213.7955,165.51401C213.25912,166.44325 212.68225,167.17136 212.44733,167.92383C212.16588,168.82533 211.7345,169.48334 211.55716,170.4095C211.37683,171.35126 211.5,172.26666 211.5,173.16667C211.5,173.96667 211.5,174.86667 211.5,175.76666C211.5,176.6875 211.5,177.48817 211.5,178.37733C211.5,179.3665 211.5,180.14583 211.5,181.14517C211.5,181.96533 211.5,182.86667 211.5,183.76666C211.5,184.6875 211.5,185.48801 211.5,186.34134C211.5,187.28134 211.5,188.26666 211.5,189.16667C211.5,189.96667 211.5,190.86667 211.5,191.76666C211.5,192.66667 211.51067,193.56667 211.78534,194.36667L212.30133,194.96667L212.97917,195.66667L213.44284,196.46667" id="svg_3" stroke-width="3" stroke="#000" fill="none"/>
  <path t="11564,11996,12043,12075,12115,12124,12136,12137,12155,12156,12179,12188,12316,12316,12339,12404,12435,12436,12459,12507,12508,12548,12548,12548,12571,12572,12590,12590,12707,13324,13324" d="M226.5,205.16667C228.2,204.17117 229.1192,204.00145 230,204.1875C230.8474,204.36649 231.65897,204.90253 232.5,205.33333C233.16434,205.67361 233.79623,206.47047 234.3,206.96667C234.99484,207.65109 235.85262,207.9976 236.7,208.45067C237.35201,208.79927 238.25513,209.13246 238.89999,209.60266C239.67961,210.1711 240.2,210.86667 240.89999,211.56667C241.5,212.16667 242.1395,212.79919 242.82133,213.48817C243.32794,214.00009 243.88779,214.54068 244.4785,215.3665C245.01741,216.11989 245.5,217 245.97917,217.64583L246.416,218.36667L246.7215,219.26666L247.2045,219.86667" id="svg_4" stroke-width="3" stroke="#000" fill="none"/>
  <path t="18212,18388,18405,18405,18420,18420,18436,18436,18500,18500,18516,18540,18559,18559,18575,18580,18596,18620,18620,18652,18660,18668,18668,18684,18685,18692,18700,18708,18717,18740,18740,18740,18749,18764,18780,18794,18794,18796,18812,18828,18828,18841,18841,18857,18872,18872,19060,19060,19100,19100,19124,19138,19164,19172,19184,19204,19204,19220,19232,19232,19268,19268,19292,19300,19324,19324,19341,19341,19348,19364,19388,19388,19396,19420,19420,19436,19444,19481,19497,19529,19548,19548,19572,19572,19580,19580,19596,19607,19607,19612,19612,19660,19692,19692,19692,19708,19708,19718,19740,19772,19772,19932,19940,19964,19964,19981,20012,20012,20020,20084,20107,20109,20132,20132,20156,20156,20180,20200,20201,20217,20231,20364,20388,20396,20412,20508,20532,20556,20556,20580,20820,20820,20860,20892,20924" d="M182.5,163.16667C183.5,164.16667 183.34731,165.08162 182.61333,165.16533C181.67012,165.2729 180.89867,165.16667 179.89999,165.16667C179.10001,165.16667 178.10133,165.16667 177.336,165.16667C176.25717,165.16667 175.39999,165.16667 174.5,165.16667C173.7,165.16667 172.8,165.16667 171.89999,165.16667C170.97917,165.16667 170.01601,165.16667 169.32533,165.16667C168.25717,165.16667 167.39999,165.16667 166.5,165.16667C165.74283,165.16667 164.84734,165.16667 163.98399,165.16667C163.02083,165.16667 162.10001,165.16734 161.2,165.16667C160.29866,165.166 159.33015,165.00793 158.67467,164.74133C157.98053,164.45903 156.88608,164.18771 156.10001,163.74133C155.37488,163.32956 154.5,163.16667 153.7,163.16667C152.8,163.16667 151.83899,163.15657 151.1955,162.46133C150.69072,161.91597 150.00592,161.3727 149.15266,161.1185C148.24478,160.84804 147.49953,160.16714 147,159.66667C146.30066,158.966 145.69797,158.30206 145.55716,157.51401C145.40498,156.66235 145.5,155.6875 145.5,154.76666C145.5,153.86667 145.58212,152.96291 145.49983,152.06667C145.41615,151.15523 144.81036,150.63562 144.2045,149.86217C143.57787,149.06221 143.66811,148.30331 143.33333,147.33333C143.09621,146.64632 142.6344,145.75681 142.4955,144.86667C142.36768,144.04755 141.73679,143.43973 141.55716,142.51401C141.39236,141.6647 141.5,140.6875 141.5,139.86217C141.5,138.84534 141.5,138.16667 141.5,137.18817C141.5,136.16667 141.5,135.36667 141.5,134.46667C141.5,133.56667 141.5,132.66667 141.5,131.76666C141.5,130.96533 141.5,130 141.5,129.14583C141.5,128.16667 141.17088,127.25304 141.66667,126.5C142.08397,125.86619 143.16718,125.55624 143.416,124.68267C143.65544,123.84202 143.83136,122.9022 144.30133,122.368C144.96504,121.61359 145.57996,120.83238 146.02083,120.16667C146.36966,119.63994 147.2092,118.99989 147.79016,118.47117C148.57353,117.75824 148.76035,116.72029 149.60001,116.288C150.2486,115.95409 151.10774,115.57726 151.47467,114.76667C151.82858,113.98484 152.30133,113.36667 153,112.66667C153.69867,111.96667 154.17772,111.35132 154.52533,110.56667C154.88762,109.74889 155.2569,108.84853 155.85716,108.21484C156.46951,107.56837 156.96423,107.12271 157.5,106.33334C158.02969,105.55291 158.34386,104.70261 158.78534,103.96667C159.19243,103.28805 159.9472,102.64697 160.44733,101.87117C160.89732,101.17313 161.3284,100.54056 161.85716,99.87117C162.44249,99.13019 163.4391,98.95144 163.5,98.06667C163.5618,97.16879 163.5,96.36667 163.5,95.4095C163.5,94.514 163.5,93.81934 163.5,92.80267L163.5,91.86667L163.5,90.96667" id="svg_5" stroke-width="3" stroke="#000" fill="none"/>
  <path t="23549,23780,23780,23796,23884,24140,24228,24236,24247,24248,24252,24252,24252,24280,24452,24466,24469,24469,24476,24493,24494,24516,24516,24532,24532,24548,24564,24660,24676,24686,24692,24693,24702,24708,24718,24724,24734,24748,24773,24796,24796,24810,24827,24829,24844,24860,24892,24904,24904,24920,24936,24940,24940,24951,24972,25068,25077,25077,25124,25124,25220,25220,25232,25232,25248,25249,25252,25252,25324,25332,25342,25342,25348,25404,25420,25436,25484,25500,25508,25532,25574,25574,25669,25680,25680,25704,25705,25724,25724,25740,25740,25756,25756,25766,25773,25782,25789,25804,25804,25828,25828,25844,25860,25874,25890,25905,25921,25921,25996,26004,26036,26036,26068,26092,26092,26108,26108,26196,26196,26236,26236,26249,26265,26265,26279,26280,26284,26300,26388,26396,26412,26412,26444,26454,26468,26485,26485,26524,26524,26546,26572,26592,26593,26608,26612,26625,26625,26640,26657,26724,26724,26748,26748,26860,28084,28094,28094,28109,28117,28117,28127,28133,28143,28156,28172,28172,28204,28204,28252,28276,28276,28284,28296,28297,28300,28313,28316,28316,28329,28329,28332,28344,28344,28380,28380,28460,28484,28501,28516,28516,28532,28548,28636,28657,28657,28660,28672,28740,28750,28766,28781,28781,28804,28836,28836,28948" d="M165.5,89.16667C164.5,90.16667 163.7,90.16667 162.8,90.16667C161.89999,90.16667 161,90.16667 160.10001,90.16667C159.1955,90.16667 158.33333,90.16667 157.47917,90.16667C156.5,90.16667 155.71066,90.16667 154.98534,90.16667C153.91066,90.16667 152.98689,90.02393 152.10001,90.17734C151.26654,90.32151 150.69972,90.96772 150,91.66667C149.39958,92.26643 148.76169,92.89525 148.01601,93.36667C147.34137,93.79317 146.36823,94.34746 145.8045,94.86667C145.18036,95.44154 144.13426,95.70925 143.62151,96.38817C143.0871,97.09576 143.15579,97.95715 142.39999,98.38817C141.7309,98.76974 140.93196,99.47112 140.62151,100.26667C140.29135,101.1127 140.01683,101.77384 139.58533,102.452C139.09218,103.22705 139.71065,104.33279 139.33333,105.16667C139.03741,105.82063 137.79521,106.03423 137.51067,106.77734C137.19244,107.60839 137.07877,108.42557 136.62134,109.2665C136.21472,110.01402 135.3631,110.20294 134.85716,110.87117C134.3308,111.56638 134.01021,112.40794 133.66667,113.33334C133.37802,114.11091 132.94554,114.77522 132.55716,115.52383C132.12218,116.36228 132.61955,117.41025 132.32933,118.052C131.94397,118.90415 131.12686,119.46473 130.668,120.28267C130.25786,121.01376 129.7592,121.79717 129.35066,122.37733C128.68221,123.32658 128.66121,124.18929 128.33333,125C128.01617,125.78418 126.84968,125.95917 126.52084,126.70834C126.142,127.57141 126.50011,128.34134 126.5,129.4095C126.49992,130.26649 125.95334,130.83701 125.55717,131.52383C125.08732,132.33841 124.9593,133.04131 124.5,133.6875C124.0045,134.38461 123.56215,135.26003 123.50134,136.052C123.42936,136.98924 123.50062,138 123.5,138.79201C123.49933,139.65067 123.53178,140.54826 123.14733,141.414C122.84982,142.08397 122.51919,143.00209 122.50134,143.76801C122.47817,144.76189 122.5,145.50951 122.5,146.53067C122.5,147.46667 122.5,148.36667 122.5,149.26666C122.5,150.16667 122.5,150.92383 122.5,151.81934C122.5,152.68266 122.5,153.64583 122.5,154.56667C122.5,155.46667 122.5,156.36667 122.5,157.26666C122.5,158.16667 122.5,158.96667 122.5,159.86667C122.5,160.80267 122.5,161.65067 122.5,162.51401C122.5,163.414 122.49986,164.33333 122.5,165.16667C122.50017,166.14534 122.56276,166.95398 123.068,167.65067C123.59799,168.38147 124.20576,169.16824 124.54816,169.86217C124.96104,170.69893 125.80252,171.299 126.14283,171.92383C126.59455,172.75322 126.14137,173.76216 126.52084,174.625C126.8502,175.37393 127.84574,175.69409 128.7,176.08267C129.4631,176.42979 130.29662,176.826 130.48933,177.76666C130.67009,178.6489 130.78421,179.56395 131.5,180C132.24101,180.45143 132.80821,181.09261 133.3,181.59866C134.02763,182.34738 134.72278,182.88448 135.5,183.33333C136.12158,183.69229 136.42703,184.70299 136.85266,185.46667C137.26605,186.20839 137.41519,187.11636 138.11067,187.73067C138.77754,188.3197 139.76434,188.39525 140.3,189.05333C140.87509,189.75984 141.11467,190.57059 142,191.14583C142.74196,191.62791 143.56911,192.1086 143.97917,192.66667C144.58751,193.49458 144.8674,194.31467 145.216,194.96667C145.66907,195.81406 146.18623,196.58902 146.44284,197.46667C146.69629,198.33351 146.45482,199.33562 146.51067,199.992C146.59714,201.00833 147.24699,201.69467 147.464,202.57733C147.68161,203.46236 147.5,204.34134 147.5,205.28134C147.5,206.16667 147.5,206.96667 147.5,207.86667C147.5,208.6875 147.5,209.65201 147.5,210.37733C147.5,211.3665 147.5,212.33067 147.5,213.28134C147.5,214.16667 147.52049,214.93677 147.85266,215.81934C148.11845,216.52556 148.48199,217.53009 148.5,218.36667C148.51936,219.26645 148.5,220.16667 148.5,220.96667C148.5,221.86667 148.5,222.76666 148.5,223.6875C148.5,224.65067 148.50011,225.34134 148.5,226.4095C148.49991,227.26649 148.05481,227.90538 147.55267,228.52383C146.98061,229.22842 146.74414,230.19585 146.44733,230.86667C146.07228,231.71432 145.30133,232.36667 144.78534,232.96667L144.44733,233.80949" id="svg_6" stroke-width="3" stroke="#000" fill="none"/>
  <path t="32261,32404,32404,32421,32421,32421,32429,32429,32429,32438,32444,32445,32445,32455,32455,32460,32461,32470,32470,32484,32484,32485,32492,32492,32501,32501,32513,32516,32516,32530,32530,32545,32548,32548,32564,32577,32577,32580,32580,32593,32593,32596,32608,32612,32624,32643,32643,32645,32657,32657,32660,32660,32671,32676,32687,32724,32724" d="M184.5,160.16667C185.8,157.56667 186.20403,156.76866 186.60001,155.96651C187.00412,155.14786 187.32088,154.48943 187.69867,153.48401C187.99571,152.69351 188.22279,151.93794 188.44733,150.9765C188.67493,150.00189 188.89641,149.31889 189.30133,148.65067C189.84836,147.74796 190.35229,147.22076 190.7955,146.16133C191.10077,145.43164 191.27655,144.48515 191.52083,143.66667C191.77536,142.81384 192.21451,142.16672 192.64934,141.41733C193.17789,140.50642 193.47916,139.68814 193.5,138.68266C193.51431,137.99216 193.5,137.05067 193.5,136C193.5,135.34134 193.11473,134.2018 193.58533,133.45334C194.05089,132.71289 194.7455,132.21472 195.14734,131.46667C195.56633,130.68671 195.42955,129.67529 195.536,128.992C195.6859,128.02982 196.21783,127.42273 196.8,126.5185C197.20947,125.88251 198.01173,125.3339 198.5,124.64584C198.99495,123.94835 199.23586,123.00771 199.66667,122.16667C200.00697,121.50233 200.93468,120.95428 201.33333,120.16667C201.68932,119.46333 201.75128,118.44869 202.2045,117.8765C202.84822,117.06381 203.52533,116.556 203.936,115.76667L204.60001,115.06667L205.10001,114.56667" id="svg_7" stroke-width="3" stroke="#000" fill="none"/>
  <path t="34893,34917,34925,34937,34937,34937,34941,34941,34941,34953,34953,34968,34968,34973,34973,34984,34988,34989,34999,35000,35004,35005,35020,35020,35020,35031,35031,35031,35036,35037,35047,35052,35068,35078,35078,35085,35085,35095,35095,35101,35101,35111,35111,35111,35117,35117,35127,35127,35133,35133,35142,35142,35149,35149,35149,35158,35158,35165,35165,35180,35180,35188,35188,35202,35219,35219,35221,35221,35244,35244,35244,35252,35265,35265,35268,35269,35281,35284,35285,35297,35297,35300,35328,35329,35329,35332,35344,35344,35348,35349,35360,35360,35360,35364,35364,35365,35375,35376,35391,35391,35396,35436,35436,35460,35484,35484,35532,35547,35547,35579,35579,35594,35597,35597,35597,35612,35626,35628,35629,35642,35644,35658,35673,35673,35676,35677,35688,35689,35692,35693,35704,35705,35708,35709,35724,35736,35736,35772,35772,35812,35812,35844,35844,35900,35900,35940,35940,36148,36148,36156,36157,36173,36189,36189,36205,36205,36221,36237,36237,36252,36396,36396,36428,36444,36492,36492,36517,36517,36533,36684,36684,36705,36724,36724,36724,36738,36740,36756,36756,36772,36788,36804,36821,36868,36940,36955,36955,36971,36972,36988,36988,37003,37003,37003,37018,37021,37036,37068,37068,37100,37112,37127,37127,37133,37276,37301,37301,37340,37361,37420,37452,37452,37460,37472,37564,37604,37604,37627,37668,37690,37706,37706,37722,37725,37780,37812,37812,37876,37876,37908,37932,37956,37972,37988,37988,37996,38020,38035,38140,38204,38204,38221,38238,38238,38279,38564,38588,38612,38644,38708,38732,38812,38812,38837,38837,38850,38850,38866,38895,38911,38911,38911,38926,38926,39004,39004,39019,39020,39022,39022,39108,39108,39180,39181,39189,39206,39260,39268,39285,39285,39301,39301,39301,39317,39348,39348,39364,39383,39420,39420,39476,39476,39492,39519,39540,39540,39596,39613,39613,39630,39637,39637,39662,39677,39700,39700,39724,39724,39741,39764,39876,39900,39932,39932,39964,39972,39973,39988,40005,40005,40021,40036,40052,40052,40052,40069,41476,41580,41580,41660,41708,41756,41860,42108,42117,42132,42133,42188,42244,42270,42271,42292,42412,42412,42460,42474,42475,42478,42556,43628,43646,43646,43663,43664,43684,43685,43708,43708,43972,43972,44052,44052,44068,44069,44084,44085,44100,44100,44109,44292,44317,44334,44365,44366,45108,45109,45117,45117,45156,45157,45268,46004,46028,46029,46060,46308,46516,46536,46552,46568,46585,46600,46601,46884,46893,46893,46911,46964,47004,47005,47028,47055,47055,47076,47077,47100,47124,47146,47147,47165,47180,47204,47229,47245,47260,47276,47278,47279,47348,47372,48516,48517,48533,48533,48533,48534,48534,48534,48535,48535,48557,48557,48558,48558,48652,48653,48661,48678,48679,48695,48695,48705,48735,48756,48796,48820,48837,48837,48860,48861,48871,48887,48903,48909,48929,48948,48949,48977,48977,48994,48995,49012,49021,49039,49055,49072,49072,49077,49164,49233,49233,49256,49284,49304,49321,49322,49333,49333,49356,49404,49405,49428,49445,49462,49462,49479,49508,49509,49532,49572,49573,49600,49601,49630,49630,49708,49725,49742,49759,49775,49776,49852,49853,49853,49893,49893,49913,49988,50006,50024,50029,50037,50092,50093,50132,50148,50165,50181,50182,51020,51068,51100,51268,51288,51288,51364,51468,51492,51524,51557,51557,51558,51573,51574,51590,51607,51676,51740,51757,51757,51788,51789,51844,51845,51866,51869,51918,52164,52260,52261,52324,52351,52404,52405,52413,52429,52492,52509,52509,52526,52526,52533" d="M180.5,162.16667C181.11067,160.60266 181.98407,160.26636 182.66667,159.66667C183.22734,159.17409 183.65019,158.35025 184.5,157.5C185.05841,156.94128 185.69885,156.63879 186.4785,156.06667C187.23224,155.51355 187.83978,154.89417 188.3,154.28134C188.84998,153.549 189.1321,152.7699 189.8,151.92383C190.43892,151.11447 191.08308,150.68976 191.37883,149.84534C191.66728,149.02176 191.9308,148.17435 192.52083,147.66667C193.31752,146.98119 193.87967,146.32306 194.25267,145.705C194.82893,144.75014 195.1633,144.22769 195.63867,143.42799C196.18423,142.51022 196.52693,141.77391 197.07466,141.14134C197.63641,140.49258 198.34526,139.93993 198.50034,139.0665C198.64078,138.27545 199.19952,137.50441 199.68533,136.992C200.4623,136.1725 200.97917,135.6875 201.70134,134.96533C202.25717,134.4095 202.98399,133.68266 203.5,133.16667C204.01601,132.65067 204.78865,131.9566 205.29866,131.28267C205.85245,130.55089 206.10799,129.74979 206.8045,128.92383C207.32277,128.30925 208.21461,127.93336 208.84734,127.35233C209.55721,126.70047 209.85681,125.91275 210.1955,125.172C210.59163,124.30563 211.13487,123.57506 211.7,122.68267C212.12701,122.00837 212.53905,121.12858 213.136,120.57733C213.76381,119.9976 214.67223,119.85069 215.33067,118.96667C215.84898,118.27079 216.13063,117.54423 216.70134,116.68267C217.15201,116.00234 217.6369,115.2941 218.32533,114.80267C218.98953,114.32854 219.8728,113.77586 220.5,113.16667C221.10867,112.57546 221.73958,111.76194 222.38533,111.452C223.2646,111.02999 224.38341,111.07896 224.97917,110.64584C225.78023,110.06346 226.16359,109.42767 226.91066,108.76667C227.63351,108.12711 228.34421,107.79762 229.01601,107.36667C229.89037,106.80579 230.46346,106.1254 231.136,105.56667C231.78864,105.02447 232.5202,104.66545 233.5,104.16667C234.09962,103.86142 234.92451,103.44276 235.7,102.84534C236.32074,102.36711 236.87033,101.7798 237.69983,101.18817C238.45398,100.65029 239.30576,100.12709 239.97917,99.6875C240.77046,99.17097 241.62602,98.97581 242.2,98.46217C242.93532,97.80413 243.60001,97.06667 244.10001,96.56667C244.8,95.86667 245.5,95.16667 246,94.66667C246.7,93.96667 247.26915,93.33356 247.91066,92.76667C248.63391,92.12756 249.34239,91.79478 250.01601,91.36667C250.88756,90.81277 251.76434,90.40205 252.5,90C253.23549,89.59804 253.32004,88.55811 253.85716,87.87117C254.43889,87.1272 255.4648,86.93905 256.13599,86.592C256.94846,86.17191 257.93646,86.18063 258.616,85.59734C259.2225,85.07672 259.82065,84.18748 260.47916,83.6875C261.16611,83.16595 261.54196,82.39519 262.20984,81.86667C262.80301,81.39728 263.75671,80.88138 264.5,80.16667C265.0097,79.67657 265.74078,78.99947 266.20001,78.4095C266.86212,77.55891 267.0545,76.9614 267.70001,76.05067C268.16815,75.39021 268.68542,74.67401 269.10001,73.992C269.67987,73.03812 270.22769,72.43217 270.70001,71.68267C271.12555,71.00743 271.68945,70.24796 272.14282,69.47117C272.59613,68.69447 272.67151,67.82072 273.11066,66.992C273.55124,66.16055 274.24118,65.64197 274.46399,64.756C274.68625,63.87214 274.5,62.992 274.5,62.052C274.5,61.16667 274.62207,60.38801 275.07468,59.56667C275.51099,58.77495 275.65329,57.80997 276.02084,57.1875C276.51407,56.35221 277.33026,56.02412 277.89999,55.316C278.53491,54.52687 279.414,54.11684 279.43832,53.34784C279.46912,52.37445 279.09824,51.62379 278.69867,51.02C278.06644,50.06463 276.90613,50.23084 276.29999,49.59867C275.81161,49.08932 275.20544,48.22403 274.29999,48.16667C273.40198,48.10977 272.67752,47.81062 272.14734,47.21933C271.56845,46.57373 270.76886,46.31208 269.98267,46.08267C269.08905,45.8219 268.6051,45.29073 267.84732,44.5095C267.31763,43.96339 266.66306,43.16912 266.13599,42.388C265.6983,41.73936 264.89243,41.35947 264.2045,40.8095C263.46686,40.21979 263.28543,39.19659 262.92532,38.56667C262.43127,37.70248 261.99948,36.94787 261.66666,36.16667C261.34647,35.41513 261.129,34.55735 261.04166,33.66667C260.96066,32.8407 261.83865,32.28432 262.51468,31.60267C263.04541,31.06754 263.8923,30.72246 264.60001,30.06684C265.19363,29.51688 265.95389,29.0362 266.55267,28.51933C267.17087,27.98569 268.13892,27.77918 268.84732,27.51933C269.84705,27.15263 270.70001,27.16667 271.60001,27.16667C272.5,27.16667 273.27744,27.04238 274.10001,26.592C274.8804,26.16473 275.8045,26.16667 276.66666,26.16667C277.5,26.16667 278.47849,26.16667 279.29868,26.16667C280.20001,26.16667 281.10004,26.1614 282,26.16667C282.91074,26.172 283.85669,26.31997 284.47916,26.6875C285.31427,27.18059 285.80801,27.93366 286.44733,28.51933C287.03058,29.05366 287.90921,29.45498 288.21466,30.05334C288.6575,30.92085 288.66528,32.00071 289,32.64584C289.47275,33.557 289.92606,34.24424 290.52533,34.74133C291.14029,35.25144 292.10001,35.16667 293,35.16667C293.91068,35.16667 294.8215,35.16667 295.52084,35.16667C296.5,35.16667 297.47916,35.16667 298.33334,35.16667C299.1955,35.16667 300.10468,35.24187 301.04166,35.14584C301.84247,35.06375 302.76251,34.76146 303.49466,34.46217C304.37292,34.10315 305.07422,33.47761 305.98532,33.252C306.69312,33.07674 307.71707,33.29325 308.47916,33.125C309.53061,32.89286 309.78677,31.95474 310.60016,31.40967C311.28229,30.95254 312.32535,31.16667 313.01599,31.16667C314.08932,31.16667 315,31.16667 315.89999,31.16667C316.79999,31.16667 317.72922,31.25731 318.47067,30.996C319.31088,30.6999 319.98148,30.13363 320.73199,29.73467C321.66452,29.23896 322.5,29.16667 323.29999,29.16667C324.20001,29.16667 325.18054,29.16399 325.98401,28.59867C326.53439,28.21143 327.28903,27.35642 328.08932,27.188C328.98071,27.00041 329.91068,27.16667 330.82132,27.16667C331.67465,27.16667 332.61465,27.16667 333.5,27.16667C334.29999,27.16667 335.13599,27.16667 336.15268,27.16667C336.84732,27.16667 337.86401,27.16667 338.8045,27.16667C339.66666,27.16667 340.5,27.16667 341.47849,27.16667C342.29868,27.16667 343.20007,27.15625 344.10001,27.16667C345.00018,27.17709 345.94638,27.42702 346.37866,28.26667C346.71259,28.91525 347.10797,29.76932 347.79999,30.46667C348.29807,30.96858 349.02643,31.64124 349.69867,32.36667C350.23654,32.94712 350.45718,33.80495 350.936,34.57734C351.43295,35.379 351.87189,36.00906 352.29999,36.68267C352.85391,37.55423 353.21097,38.33884 353.66666,39.16667C354.07083,39.90093 354.99982,40.15625 355.89999,40.16667C356.79993,40.17708 357.74405,40.29998 358.59982,39.9455C359.3927,39.61707 359.80087,40.21749 360.14734,40.86667C360.60068,41.71604 360.5,42.6875 360.5,43.65067C360.5,44.34134 360.5,45.28133 360.5,46.26683C360.5,47.052 360.5,47.992 360.5,49C360.5,49.756 360.5,50.66667 360.5,51.56667C360.5,52.47117 360.5,53.33334 360.5,54.1875C360.5,55.16667 360.5,55.956 360.5,57C360.5,57.792 360.5,58.652 360.5,59.37733C360.5,60.36667 360.5,61.16667 360.5,62.16667C360.5,63.14584 360.33148,64.03397 360.57199,64.792C360.87189,65.73719 361.62433,66.08089 362.16666,67C362.58228,67.70438 362.5,68.66667 362.5,69.56667C362.5,70.46667 362.5,71.36667 362.5,72.26684C362.5,73.052 362.5,74.00267 362.5,74.768C362.5,75.76667 362.5,76.56667 362.5,77.56534C362.5,78.33067 362.5,79.4095 362.5,80.26667C362.5,81.16667 362.5,81.96667 362.5,82.86667C362.5,83.76667 362.5036,84.77839 363.2045,85.21934C363.87238,85.63951 364.70465,86.04173 365.60001,86.16683C366.50647,86.29349 367.10266,86.77466 367.79999,87.46667C368.50269,88.16399 369.03378,88.90781 369.89999,89.13067C370.77231,89.35509 371.70132,89.16667 372.38535,89.16667C373.32535,89.16667 374.34308,89.07378 375.12534,89.20267C376.0072,89.34797 376.81726,89.92895 377.74283,90.1095C378.58603,90.27399 379.5,90.16667 380.29999,90.16667C381.20001,90.16667 382.10001,90.16667 383,90.16667C383.89999,90.16667 384.79999,90.16667 385.70001,90.16667C386.60001,90.16667 387.5,90.16667 388.29999,90.16667C389.20001,90.16667 390.33786,89.76002 390.95834,90.39584C391.46805,90.91815 391.17746,92.00027 391.15683,92.60133C391.10718,94.04713 391.02475,94.84609 390.9375,95.66667C390.8501,96.48882 390.75369,97.29081 390.612,98.04267C390.36746,99.34023 390.41257,100.0011 389.664,100.78133C389.04724,101.42419 388.10413,101.45814 387.336,101.74133C386.3887,102.09058 385.39984,102.16667 384.61465,102.16667C383.67465,102.16667 382.98401,102.16667 381.91068,102.16667C381,102.16667 380.10001,102.16667 379.20001,102.16667C378.29868,102.16667 377.33334,102.16667 376.67465,102.16667C375.66666,102.16667 374.8045,102.16667 373.89999,102.16667C373,102.16667 372.10001,102.16667 371.20001,102.16667C370.29999,102.16667 369.39984,102.16667 368.61465,102.16667C367.664,102.16667 366.89868,102.16667 365.90451,102.16667C365.15717,102.16667 364.13599,102.16667 363.20001,102.16667C362.29999,102.16667 361.39999,102.16667 360.5,102.16667C359.70001,102.16667 358.79999,102.16667 357.97916,102.16667C357.01599,102.16667 356.15268,102.16667 355.25717,102.16667C354.29999,102.16667 353.39999,102.16667 352.5,102.16667C351.74283,102.16667 350.84732,102.16667 349.98401,102.16667C349,102.16667 348.17868,102.16667 347.32535,102.16667C346.38535,102.16667 345.39999,102.16667 344.5,102.16667C343.70001,102.16667 342.86401,102.16667 341.84732,102.16667C341.15268,102.16667 340.12534,102.16667 339.17868,102.16667C338.5,102.16667 337.384,102.16667 336.616,102.16667C335.67465,102.16667 334.98401,102.16667 333.91068,102.16667C333,102.16667 332.10001,102.16667 331.1955,102.16667C330.33334,102.16667 329.47916,102.16667 328.5,102.16667C327.70001,102.16667 326.89874,102.21203 325.909,102.16217C325.06787,102.1198 324.50992,101.34853 323.69867,101.168C322.82144,100.97278 321.89996,101.172 321,101.16667C320.09995,101.16133 319.28452,100.89881 318.70001,100.36533C317.98032,99.70845 317.20135,99.19527 316.29868,99.16667C315.33383,99.13611 314.40396,99.38731 313.66934,98.88267C312.9736,98.40472 312.60532,97.69107 312.14734,96.86667C311.73499,96.12437 311.47342,95.36628 311.5,94.46667C311.52789,93.52251 311.92673,92.79314 312.72168,92.28817C313.52588,91.77731 314.336,92.16667 315.10132,92.16667C316.09549,92.16667 317.01468,92.16667 317.97916,92.16667C318.89999,92.16667 319.79999,92.16667 320.70001,92.16667C321.60016,92.16667 322.38535,92.16667 323.336,92.16667C324.10132,92.16667 325.09549,92.16667 325.84283,92.16667C326.86401,92.16667 327.79999,92.16667 328.70001,92.16667C329.60001,92.16667 330.5,92.16667 331.29999,92.16667C332.20001,92.16667 333.13599,92.16667 333.98401,92.16667C334.84732,92.16667 335.74283,92.16667 336.70001,92.16667C337.60001,92.16667 338.5,92.16667 339.25717,92.1095L340.15268,91.814L340.84732,91.51933L341.86401,91.20267" id="svg_8" stroke-width="3" stroke="#000" fill="none"/>
  <path t="53317,53644,53644,53660,53661,53674,53674,53689,53788,53884,53940,53940,54116,54140,54149,54149,54158,54204,54220,54237,54308,54340,54341,54363,54428,54444,54460,54485,54485,54700,54709,54740,54796,54814,54876,54924,55150,55165,55176,55204,55204,55285,55413,55413,55477,55488,55509,55557,55567,55567,55605,55613,55627,55677,55677,55693,55693,55709,55709,55721,55737,55786,55821,55822,55877,55877,55933,55933,55955,55972,55975,55975,55987" d="M342.5,91.16667C339.909,90.45683 339.24158,90.06918 338.74283,89.188C338.33551,88.46839 338.11252,87.52776 337.85266,86.81934C337.48596,85.81963 337.5,84.86667 337.5,83.96667C337.5,83.0665 337.40332,82.27517 337.51068,81.35201C337.62225,80.39284 338.5004,80.19204 339.29999,80.16667C340.20139,80.13808 340.92236,79.48048 341.79999,79.22383C342.66559,78.97071 343.60001,79.16667 344.5,79.16667C345.29999,79.16667 346.20007,79.17709 347.10001,79.16667C348.00018,79.15625 348.70944,78.63949 349.60001,78.28817C350.26068,78.02754 351.20001,78.16667 352.10001,78.16667C353,78.16667 353.89999,78.16667 354.79999,78.16667C355.70001,78.16667 356.60687,78.05582 357.5,78.16667C358.39911,78.27827 358.5,79.26667 358.5,80.16667C358.5,80.96667 358.5,81.80267 358.5,82.81934C358.5,83.514 358.5,84.53067 358.5,85.46667C358.5,86.36667 358.71066,87.33279 358.33334,88.16667C358.03745,88.82063 357.00015,89.15401 356.10001,89.16667C355.19559,89.17939 354.332,89.32991 353.67465,89.592C352.66455,89.99475 351.87473,90.16133 351.01599,90.16667C350.15271,90.17204 349.25717,90.16667 348.29999,90.16667C347.39999,90.16667 346.5,90.16856 345.74283,90.16667C344.84283,90.16442 344.07739,90.17782 343.10132,89.88267C342.31772,89.64571 341.38535,89.252 340.39999,89.16667L339.5,89.16667L338.70001,89.16667L337.85718,89.1095" id="svg_9" stroke-width="3" stroke="#000" fill="none"/>
  <path t="57191,57429,57453,57470,57565,57580,57580,57589,57598,57621,57725,57813,57813,57845,57853,57853,57973,58005" d="M306.5,63.16667C309.08932,63.16667 310.03473,63.11377 310.79999,63.51933C311.6459,63.96764 312.5,64.16667 313.29999,64.16667C314.20001,64.16667 315.10001,64.16667 316,64.16667C316.8045,64.16667 317.82132,64.16667 318.5,64.16667C319.47849,64.16667 320.5,64.16667 321.29999,64.16667L322.20001,64.16667L323.10001,64.16667" id="svg_10" stroke-width="3" stroke="#000" fill="none"/>
  <path t="58902,59093,59101,59125,59133,59269,59287,59287,59299,59373,59405,59440,59440,59461,59461,59472,59472" d="M307.5,61.16667C309.29999,61.16667 310.20004,61.16067 311.10001,61.16667C311.90005,61.172 312.71878,61.66717 313.5,62C314.25153,62.32019 315.15884,62.28367 315.58401,62.968C316.08417,63.77303 316.98267,64.11469 317.71066,64.156C318.69849,64.21204 319.5,64.16667 320.5,64.16667L321.27866,64.17734" id="svg_11" stroke-width="3" stroke="#000" fill="none"/>
  <path t="60486,60645,60645,60659,60669,60757,60781,60829,60846,61181" d="M313.5,60.16667C314.5,59.16667 315.29999,59.16667 316.20001,59.16667C317.10001,59.16667 318,59.16667 318.89999,59.16667L319.79999,59.16667L320.70001,59.16667L321.60001,59.16684" id="svg_12" stroke-width="3" stroke="#000" fill="none"/>
  <path t="61702,61829,61869,61869,61893,61981,61981,62165,62253,62312,62312,62333,62741,62741,62773,62784,62997,63237,63381,63677,63677,63691,63691" d="M313.5,60.16667C312.58667,61.88134 313.53925,61.99024 314.29999,62.252C315.07956,62.52024 315.60794,63.49752 316.29999,63.88134C317.12448,64.33862 318.02084,64.16667 318.98401,64.16667C319.84732,64.16667 320.82489,64.37059 321.59982,63.94517C322.34067,63.53847 322.49878,62.35108 321.69867,62.168C320.82263,61.96755 319.60507,62.21493 319.58667,61.45067C319.57162,60.82551 319.14368,60.46217 318.38535,59.96534L317.8045,59.4095" id="svg_13" stroke-width="3" stroke="#000" fill="none"/>
  <path t="66389,66661,66669,66757,66768,66797,67069,67069,67125,67133,67149,67160,67173,67469,67477,67501,67501,67509,67533,67533,67541,67557,67726" d="M349.5,61.16667C351.20001,62.16217 352.1192,62.00145 353,62.1875C353.84738,62.36649 354.6655,62.89003 355.5,63.33334C356.13391,63.67008 356.60144,64.8786 355.88934,65.156C355.06061,65.47884 354.10001,65.16667 353.20001,65.16667C352.29999,65.16667 351.39871,65.21447 350.5,65.16667C349.69659,65.12395 349.01968,64.62489 348.29999,63.968C347.71548,63.43452 346.78534,63.08267 346.41599,62.36533L345.92532,61.56667" id="svg_14" stroke-width="3" stroke="#000" fill="none"/>
  <path t="72630,72750,72774,72774,72790,72802,72806,72818,72818,72833,72833,72838,72849,72849,72854,72854,72865,72870,72870,72881,72896,72912,72912,72918,72950,72974,72974,72990,72990,73007,73023,73023,73038,73053,73071,73071,73083,73083,73086,73099,73100,73115,73115,73190,73190,73198,73198,73209,73224,73278,73302,73302,73334,73430,73443,73446,73462,73502,73502,73542,73558,73569,73570,73574,73589,73669,73669,73691,73691,73691,73691,73694,73694,73707,73710,73723,73765,73773,73785,73789,73789,73789,73801,73801,73805,73805,73805,73817,73817,73821,73821,73833,73833,73853,73853,73917,73917,73925,73949,73959,73966,73981,74005,74005,74020,74020,74036,74038,74038,74039,74052,74054,74054,74077,74077,74141,74141,74149,74160,74165,74173,74181,74193,74193,74208,74224,74245,74256,74256,74271,74287,74312,74312,74312,74333,74333,74349,74365,74381,74405,74421,74442,74443,74458,74459,74461,74476,74477,74490,74493,74506,74525,74541,74541,74552,74557,74558,74558,74570,74584,74606,74629,74645,74646,74654,74654,74693,74717,74717,74749,74781,74790,74802,74821,74821,74869,74882,74981,75013,75013,75173,75173,75245,75269,75286,75287,75303,75303,75310,75321,75321,75334,75335,75517,76229,76245,76301,76341,76365,76365,76445,76461,77037,77037,77093,77093,77115,77133,77133,77301,77318,77349,77349,77365,77429,77477,77477,77491,77491,77506,77661,77661,77781,77781,77789,77837,77837,77849,77866,77881,77882,77885,77897,77911" d="M331.5,119.16667C329.67465,119.16667 328.54922,118.8013 327.86166,119.22383C327.12265,119.67799 326.88739,120.74879 326.52533,121.56667C326.17743,122.35256 325.65634,123.02633 325.2045,123.81934C324.82001,124.49414 324.61929,125.4325 324.33334,126.33334C324.0618,127.1888 323.59348,127.98853 323.51068,128.756C323.41077,129.68219 323.5,130.65067 323.5,131.34134C323.5,132.4095 323.5,133.26666 323.5,134.16667C323.5,134.96667 323.5,135.86667 323.5,136.80267C323.5,137.65201 323.5,138.57117 323.5,139.56534C323.5,140.33067 323.5,141.28134 323.5,142.16667C323.5,142.96667 323.91122,143.98924 323.44284,144.80949C322.97852,145.62267 322.43924,146.06189 322.14734,146.81934C321.81052,147.69334 321.59793,148.69553 321.14282,149.47116C320.7728,150.10181 320.1904,150.81877 319.79999,151.57117C319.39001,152.36131 318.94882,153.11996 318.62134,154.14517C318.39682,154.84799 317.81445,155.58923 317.55716,156.46667C317.30338,157.33212 317.19916,158.2175 316.85266,158.86667C316.39932,159.71603 316.5,160.66667 316.5,161.56667C316.5,162.46667 316.48761,163.36807 316.5,164.33333C316.51044,165.14603 316.77209,166.08089 317.60001,166.16667C318.49521,166.25943 319.33698,165.96219 320.20001,166.22383C321.0849,166.4921 321.56638,167.30821 322.20801,167.80267C322.96313,168.38458 323.85394,168.82286 324.5,169.14583C325.13806,169.4648 326.21512,170.0238 327.06799,170.14534C327.99091,170.27687 328.89798,170.16676 329.5,170.66667C330.11972,171.18127 330.83652,171.71526 331.70132,172.08267C332.61926,172.47266 333.33948,172.59544 334.10132,172.968C334.90375,173.36043 335.72589,173.76556 336.5,174.33333C337.11752,174.78624 337.60748,175.39034 338.61465,175.99867C339.26697,176.39268 339.80759,177.11966 340.38535,177.59866C341.21854,178.28943 342.13928,178.26659 342.89868,178.73466C343.51465,179.11435 344.47165,179.62401 345.13834,180.21483C345.71924,180.72961 346.04019,181.61519 346.7955,182.114C347.49368,182.57509 347.84244,183.48051 348.5,184.16667C348.98926,184.6772 349.70264,185.36404 350.29999,185.96667C350.90268,186.57469 351.50687,187.32921 351.89999,187.992C352.30716,188.67847 352.97983,189.48004 353.41733,190.368C353.7395,191.0219 354.19949,191.82895 354.68533,192.34134C355.46225,193.16071 356.06769,193.76453 356.89999,194.14134C357.68066,194.4948 358.07077,195.32886 358.66666,196C359.20508,196.60641 359.7897,197.22357 360.14734,197.86667C360.62173,198.71979 361.02179,199.51291 361.37866,200.26666C361.78305,201.12073 362.14816,201.8663 362.5,202.66667C362.85349,203.47079 363.38303,204.32552 363.46399,205.00267C363.55496,205.76337 363.5,206.76216 363.5,207.68134C363.5,208.64583 363.5,209.56667 363.5,210.46667C363.5,211.36667 363.5,212.26666 363.5,213.16667C363.5,213.92383 363.62311,214.84097 363.41467,215.68266C363.19409,216.57341 362.29166,217.18398 361.85718,217.86667C361.39124,218.5988 361.5,219.56667 361.5,220.46667C361.5,221.36667 361.50891,222.26688 361.5,223.052C361.48932,223.99219 361.20645,225.04195 360.64932,225.53067C360.10364,226.00934 359.51068,226.76648 359.5,227.66667C359.48935,228.5666 359.5,229.47116 359.5,230.48801C359.5,231.16667 359.5,232.14517 359.5,232.96533C359.5,233.92383 359.7468,234.88422 359.41467,235.59734C359.03171,236.41963 358.01733,236.77415 357.58533,237.452C357.09155,238.22679 357.19916,239.2175 356.85266,239.86667C356.39932,240.71603 356.61142,241.73624 356.14282,242.46667C355.62964,243.26659 355.02542,243.6931 354.29999,244.36534C353.71954,244.90321 352.79999,245.16441 351.86401,245.16667C351.01468,245.16872 350.28934,245.16667 349.10132,245.16667C348.336,245.16667 347.38535,245.16667 346.5,245.16667C345.74283,245.16667 344.84732,245.16667 343.98401,245.16667C343.02084,245.16667 342.05545,245.26215 341.29999,244.88268C340.4328,244.44708 339.58374,244.01236 339.5,243.16667C339.42117,242.37056 339.50073,241.46667 339.5,240.53067C339.49933,239.68134 339.55716,238.93388 339.2785,237.967C339.05264,237.1833 338.41632,236.33815 337.5,236.16667C336.7092,236.01869 335.96207,235.41968 335.08932,235.20267C334.20505,234.98279 333.29669,235.24217 332.56134,234.74133C331.88464,234.28044 331.01468,234.16673 330.28934,234.16667C329.30032,234.16658 328.34225,234.47656 327.60983,233.80949C326.9212,233.18231 326.77393,232.40964 325.84732,231.87117C325.17581,231.48096 324.20544,231.34668 323.39999,230.94533C322.63284,230.56305 321.90891,230.07364 321.39017,229.46217C320.84537,228.81998 320.06799,228.36667 319.48532,227.60266L318.85266,227.114L318.41599,226.36534" id="svg_15" stroke-width="3" stroke="#000" fill="none"/>
  <path t="80830,80941,80957,80973,80974,80981,81013,81037,81037,81056,81069,81070,81085,81085,81099,81101,81117,81117,81117,81133,81149,81161,81181,81181,81192,81197,81197,81221,81269,81269,81278,81293,81309,81341,81357,81381,81405,81413,81413,81437" d="M348.5,196.16667C346.79999,196.22383 345.96899,196.657 345.30133,197.36667C344.75906,197.94305 344.1886,198.55139 343.66666,199.33333C343.19482,200.04016 343.68204,201.00296 343.42801,201.80267C343.13058,202.73897 342.36108,203.07245 341.83334,204C341.37781,204.80064 341.68491,205.69008 341.47867,206.57733C341.2515,207.5547 340.58844,207.94504 340.06799,208.68266C339.50162,209.48538 339.5,210.46667 339.5,211.36667C339.5,212.26683 339.59665,213.05817 339.48932,213.98134C339.37775,214.94081 338.59811,215.26064 338.11066,216.028C337.53766,216.92999 337.85233,217.83742 337.47916,218.64583C337.12317,219.41698 336.5126,219.87125 336.5,220.76666C336.48734,221.66682 336.14734,222.46667 335.62149,223.26666L335.5,224.16667L335.5,224.96667L335.5,225.80267" id="svg_16" stroke-width="3" stroke="#000" fill="none"/>
  <path t="82590,82813,82861,82861,82880,82880" d="M334.5,226.16667C335.47916,227.1875 335.5,228.14534 335.5,228.91934L335.5,229.81934L335.5,230.68266" id="svg_17" stroke-width="3" stroke="#000" fill="none"/>
  <path t="85262,85381,85470,85470,85491,85491,85506,85521,85522,85549,85583,85590,85601,85601,85617,85631,85631,85646,85693,85709,85709,85744,85747,85760,85781,85801,85813,85813,85885,85885,85901,85933,85933,86189,86189,86197,86198,86208,86208,86213,86237,86255,86255,86261,86301,86317,86325,86335,86342,86342,86365,86389,86397,86429,86453,86489,86505,86525,86525,86605,86629,86646,86665,86679,86741,87517,87525,87526,87557,87597" d="M323.5,222.16667C321.97916,223.64583 321.17044,224.00359 320.32535,224.192C319.37378,224.40416 318.70966,224.90622 317.86401,225.192C317.02493,225.47557 316.19116,225.85396 315.56134,226.556C315.0484,227.12773 314.26361,227.6286 313.5,228C312.74609,228.36667 311.91879,228.79715 311.29999,229.36534C310.7171,229.90056 309.73868,230.12758 309,230.6875C308.33542,231.19125 307.85529,231.92776 307.10001,232.556C306.44345,233.10211 305.34573,232.8437 304.62134,233.388C303.97687,233.87222 303.43329,234.63623 302.97916,235.16667C302.37552,235.87175 301.31647,235.83571 300.60983,236.52383C300.02716,237.09123 299.75095,237.84854 298.84732,238.1185C297.99429,238.37334 297.3287,238.94687 296.74734,239.46133C295.94199,240.17403 294.97891,240.17104 294.45184,240.87117C293.9729,241.50737 293.48184,242.37367 292.79999,242.80949C291.97601,243.33615 291.12427,243.63185 290.40018,244.04533C289.60934,244.49693 289.5,245.26666 289.5,246.16667C289.5,246.96667 289.6181,248.00252 288.97916,248.64583C288.34131,249.28802 287.51801,249.6021 287.5,250.46667C287.48126,251.36647 287.5,252.26666 287.5,253.16667C287.5,253.96667 287.5,254.86667 287.5,255.76666C287.5,256.66666 287.5,257.56668 287.5,258.46667C287.5,259.36667 287.5,260.26666 287.5,261.16666L287.58533,261.96667L288.07468,262.76666L288.46399,263.56668" id="svg_18" stroke-width="3" stroke="#000" fill="none"/>
  <path t="88872,88989,88989,88998,88998,88998,89007,89007,89014,89014,89045,89046,89083,89083,89094,89094,89104,89104,89115,89115,89118,89131,89131,89146,89146,89181,89181,89192,89192,89208,89214,89224,89230,89301,89301,89310,89326,89341,89351,89365,89389,89397,89398,89429,89469,89469,89490,89494,89506,89506,89549,89549,89605,89629,89646,89677,89677,89741,89741,89757,89757,89772,89772,90189,90189,90189,90198,90209,90214,90214,90225,90226,90230,90230,90230,90245,90245,90245,90357,90357,90437,90437,90446,90461,90501,90501,90522,90526,90541,90541,90605,90615,90622,90637,90637,90648,90664,90679,90679,90686,90697,90697,90702,90712,90725,90727,90757,90853,90853,90886,90886,90886,90897,90914,90918,90941,90965,90981,90997,90998,91008,91023,91045,91046,91061,91070,91070,91085,91101,91101,91102,91102,91103,91104,91189,91189,91210,91210,91245,91285,91285,91341,91373,91549,91566,91574,91597,91616,91616,91622,91633,91633,91649,91665,91665,91670,91670,91681,91687,91702,91702,91702,91713,91713,91718,91718,91718,91729,91729,91730,91743,91743,91743,91759,91759,91759,91759,91759,91760,91760,91760,91774,91774,91775,91775,91775,91775,91775,91775,91776,91917,91918" d="M302.5,233.16667C301.4285,232.22833 300.65979,232.15031 299.5,232.33333C298.60001,232.47534 298.00305,232.59973 296.83334,233.16667C296.13446,233.5054 295.3244,233.96544 294.67465,234.15201C293.64969,234.4463 293.31937,235.20169 292.5,235.83333C291.84763,236.33623 290.83649,236.11337 290.09549,236.22383C289.08661,236.37421 288.30817,236.7337 287.52151,237.26649C286.88632,237.69672 286.08832,238.11069 285.17868,238.16701C284.32397,238.21992 283.52823,238.61517 282.91068,239.31599C282.30521,240.00313 281.60602,240.22649 280.67465,240.592C279.97711,240.86574 278.90909,240.97838 278.2045,241.52383C277.45782,242.10185 277.21606,242.91557 276.39999,243.38817C275.73343,243.77419 275.05713,244.53214 274.62134,245.26649C274.15628,246.05019 273.55835,246.52422 273,247.16667C272.52563,247.71252 272.70764,248.69194 272.44284,249.45683C272.14191,250.3261 271.60403,251.0461 271.41599,251.68401C271.11966,252.68916 270.58298,253.46872 270.49866,254.368C270.43433,255.05412 270.03571,255.97687 269.784,256.68268C269.44672,257.62851 268.95679,258.36996 268.62149,259.26666C268.30341,260.11728 268.52942,260.92447 268.49551,261.82382C268.46729,262.57248 268.19449,263.55917 267.92532,264.36667C267.59482,265.35818 267.51044,266.1665 267.5,267.16666C267.49176,267.95596 267.95557,268.80432 267.46399,269.72C267.10907,270.3811 265.84283,270.16714 265.09549,270.16666C264.10001,270.16599 263.28113,270.2131 262.29984,269.94516C261.45712,269.71506 260.82004,269.35156 259.81601,268.96667C259.00421,268.65549 258.4451,268.48569 257.42166,268.06683C256.53479,267.70386 255.67651,267.27408 254.91066,267.17734C253.94258,267.05502 253.53856,266.44516 252.79016,265.87115C252.21097,265.42694 250.96469,265.36481 250.52533,264.72C250.01366,263.96909 250.11081,263.06351 249.30133,262.336C248.6705,261.76907 248.5,260.96667 248.5,260.0665C248.5,259.28134 248.73579,258.26697 248.33333,257.5C247.89525,256.66516 247.51042,256.14603 247.5,255.18817C247.48889,254.16673 247.5,253.36667 247.5,252.46667C247.5,251.56667 247.5,250.66667 247.5,249.76666C247.5,248.86217 247.5,248 247.5,247.14583C247.5,246.16667 247.5,245.37733 247.5,244.65201C247.5,243.57733 247.5,242.66667 247.5,241.76666C247.5,240.86667 247.5,239.96667 247.5,239.06667C247.5,238.16667 247.47658,237.36636 247.5,236.46667C247.52084,235.66586 248.12854,235.04489 248.79466,234.46667C249.51299,233.84315 249.76601,232.94949 250.30133,232.36667C250.89003,231.72575 251.6669,230.8335 251.98534,230.39867C252.52121,229.66695 253.05997,228.89226 253.69966,228.30966C254.41541,227.65782 255.28525,227.07823 255.54817,226.4095C255.89479,225.52789 256.18924,224.80907 256.7955,223.92383C257.32028,223.15756 257.49774,222.46669 257.5,221.56667C257.50223,220.66667 257.6713,219.50674 256.88934,219.17734C256.0697,218.83205 255.08934,219.16667 254.17867,219.16667C253.5,219.16667 252.5215,219.16667 251.5,219.16667C250.7,219.16667 249.86081,219.23859 248.84734,219.15767C248.14696,219.10175 247.44298,218.54857 246.8045,217.87199C246.15433,217.18301 245.17709,217.2402 244.33333,217C243.64317,216.80353 242.90932,216.39835 241.89549,216.21933C241.04944,216.06993 240.06732,215.98216 239.27467,215.72C238.4389,215.44357 237.64838,215.02576 236.96167,214.51849C236.32893,214.05109 235.52328,213.40193 234.85417,213.10417C234.02245,212.73404 233.16528,212.33604 232.62833,212.05966C231.34831,211.4008 230.63443,211.01654 229.875,210.625C229.0878,210.21913 228.28281,209.80638 227.46001,209.416C225.84192,208.6483 225.04668,208.32504 224.28,208.024C223.54817,207.73665 222.84734,207.48346 222.1875,207.25C221.57394,207.03291 221.00917,206.83734 220.5,206.65601L219.35033,206.18817L218.53867,205.57733" id="svg_19" stroke-width="3" stroke="#000" fill="none"/>
  <path t="97974,98102,98118,98118,98134,98137,98150,98150,98166,98166,98174,98182,98278,98278,98290,98306,98306,98322,98322,98342,98374,98386,98391,98414,98455,98455,98455,98526,98566,98663,98663,98679,98697,98710,98766,98798,98823,98911,98911,98959,98999,99038,99119,99119,99143,99151,99166,99166,99303,99311,99324,99350,99375,99375,99406,99447,99447,99461,99694,99694,101278,101278,101350,101638,101655,101766,101918,101918,101947,101960,101979,101998,101999,102022,102174,102197,102230,102230,102246,102262,103078,103078,103103,103111,103111,103111,103126,103206,103206,103228,103228,103231,103254,103278,103278,103279,103302,103334,103374,103774,103774,103791" d="M313.5,100.16667C313.55716,101.92384 313.74323,102.89112 314.2045,103.45683C314.86099,104.26199 315.92255,104.00181 316.60001,104.6095C317.12323,105.07886 317.50403,106.24522 318.10001,106.72C318.79984,107.2775 319.40433,107.80135 320.06934,108.36533C320.75555,108.9473 321.78671,109.00277 322.60016,109.388C323.30783,109.72315 324.22293,109.88995 324.93066,110.25067C325.73969,110.66302 326.24658,111.4843 326.784,112.08266C327.35742,112.72113 328.08557,113.11486 328.82132,113.60934C329.5502,114.09921 329.99359,114.64012 330.97916,115.14584C331.78317,115.5584 332.44006,116.23833 333,116.64584C333.82657,117.24738 334.85016,117.09363 335.47467,117.592C336.08264,118.07719 336.91049,118.03396 337.79999,118.17117C338.73138,118.31484 339.26862,119.01849 340.20001,119.16217C341.08951,119.29939 342.02084,119.16667 342.82132,119.16667C343.67465,119.16667 344.61465,119.16667 345.60001,119.16667C346.5,119.16667 347.30017,119.18466 348.20001,119.16667C349.10056,119.14867 350.00937,118.80077 350.41599,117.96667C350.78336,117.21309 351.16306,116.61433 351.7955,115.86667C352.43481,115.1109 352.37402,114.35081 352.55716,113.4095C352.73752,112.48246 353.17639,111.80049 353.69867,111.052C354.18896,110.34935 354.91202,109.57321 354.97916,108.6875C355.02069,108.13952 353.86401,108.16667 353.01599,108.16667C352.15268,108.16667 351.25717,108.16667 350.29999,108.16667C349.39999,108.16667 348.5,108.16667 347.70001,108.16667C346.79999,108.16667 345.89999,108.16667 344.97916,108.16667C344.01599,108.16667 343.32535,108.16667 342.25717,108.16667C341.39999,108.16667 340.5,108.16667 339.70001,108.16667C338.828,108.16667 337.95612,108.19822 337,108.14584C336.26627,108.10564 335.38089,107.67714 334.5,107.33334C333.77866,107.0518 332.84726,107.17601 331.98401,107.16667C331.02066,107.15625 330.22861,106.76254 329.33334,106.16667C328.69638,105.74271 328.0083,105.33785 327.02084,105.1875C326.10995,105.04881 325.29999,104.88267 324.5,104.33334L323.78534,104.08266L323.50134,103.28" id="svg_20" stroke-width="3" stroke="#000" fill="none"/>
  <path t="104694,105135,105150,105150" d="M335.5,101.16667" id="svg_21" stroke-width="3" stroke="#000" fill="none"/>
  <path t="106583,106806,106822,107054,107055,107072,107103,107119" d="M340.5,103.16667C340.5,101.36667 341.39999,99.66667 340.5,99.66667C339.80402,99.66667 340.5,101.4095 340.5,102.36667L340.5,103.26667" id="svg_22" stroke-width="3" stroke="#000" fill="none"/>
  <path t="107671,108470,108494,108494,108518,108518,108540,108806,108830" d="M340.5,105.16667C341.37851,103.945 341.5,103 341.5,102.34133C341.5,101.33334 341.5,100.47117 341.5,99.56667L341.5,98.63866L341.5,99.26667" id="svg_23" stroke-width="3" stroke="#000" fill="none"/>
  <path t="109807,110015,110031,110042,110057" d="M346.5,105.16667C348.49734,104.36533 348.5,103.46667 348.53601,102.60267L349.216,102.08266" id="svg_24" stroke-width="3" stroke="#000" fill="none"/>
 </g>
</svg>