<svg width="500" height="334.26183844011143" xmlns="http://www.w3.org/2000/svg" xmlns:svg="http://www.w3.org/2000/svg" xmlns:xlink="http://www.w3.org/1999/xlink">
 <!-- Created with SVG-edit - http://svg-edit.googlecode.com/ -->
 <g display="inline" class="layer">
  <title>Layer 1</title>
  <path t="0,674,690,741,741,890,972,1024,1137,1153,1237,1384,1424,1424,1440,1490,1542,1580,1580,1589,1606,1622,1622,1672,1689,1741,1791,1791,1807,1855,1857,1876,1892,1938,1938,2193,2678,2739,2789,2806,2806,2828,2861,2954,2954,2991,3087,3139,3139,3189,3212,3212,3228,3252,3291,3307,3322,3338,3338,3355,3407,3423,3489,3520,3540,3540,3588,3656,3656,3671,3700,3739,3789,3789,3806,3806,3822,3822,3839,3856,3872,3892,3939,3989,3989,4006,4022,4039,4056,4072,4092,4139,4156,4156,4180,4189,4189,4206,4236,4244,4260,4276,4276,4292,4308,4308,4324,4324,4340,4356,4372,4372,4389,4389,4439,4439,4456,4476,4476,4500,4540,4557,4557,4572,4589,4606,4622,4652,4689,4689,4740,4790,4790,4822,4869,4877,4922,4939,4939,4956,5054,5139,5139,5191,5191,5228,5244,5260,5260,5306,5322,5546,5607,5607,6095,7033,7033,7086,7139,7164,7206,7320,7336,7372,7372,7389,7456,7485,7524,7524,7564,7572,7624,7672,7689,7708,7732,7772,7824,7824,7871,7938,7938,7988,8005,8005,8036,8060,8060,8071,8123,8139,8139,8164,8172,8221,8238,8238,8260,8271,8321,8321,8371,8388,8388,8438,8488,8505,8521,8538,8556,8572,8572,8621,8621,8644,8668,8668,8723,8771,8821,8838,8838,8855,8871,8888,8889,8905,8955,8955,8971,8971,8988,9020,9020,9151,9190,9239,9306,9355,9355,9405,9421,9444,9615,9720,9820,10018,10104,10104,10135,10172,10222,10239,10239,10268,10268,10276,10340,10438,10438,10538,10553,10606,10705,10756,10807,10844,10845,10905,10955,10988,10989,11039,11091,11091,11172,11203,11203,11228,11228,11273,11309,11309,11325,11372,11585,11585,11601,11774,11822,11822,11972,12021,12074,12295,12387,12595,12704,12788,12788,13097,13156,13207,13367,13502,13502,13634,13634,13767,13767,13884,13972,14021,14215,14215,14272,14272,14324,14372,14372,14389,14412,14428,14472,14649,14738,14738,14972,15040,15040,15105,15219,15381,15381,15579,15670,15722,15774,15839,15891,16007,16007,16072,16139,16237,16269,16404,16441,16456,16764,17348,17422,17567,17669,17669,17800,17989,18022,18653,18815,18830,18972,19055,19137,19189,19205,19237,19288,19340,19390,19455,19538,19538,19589,19589,19605,19605,19703,19896,19938,19938,19964,20005,20005,20055,20356,20356,20405,20428,20438,20438,20455,20455,20472,20488,20505,20505,21068,21154,21221,21305,21305,21404" d="M73.5,100.63092C73.78533,99.71626 74.6,99.63092 75.5,99.63092C76.3,99.63092 77.2,99.63092 78.1,99.63092C79,99.63092 79.9,99.63092 80.8,99.63092C81.7,99.63092 82.65427,99.44764 83.5,99.79758C84.28462,100.12225 85.06147,100.31517 85.88934,100.64159C86.64217,100.93842 86.69739,102.16512 87.11066,102.76958C87.68451,103.6089 88.34726,104.03532 88.784,104.83092C89.13977,105.47903 89.30936,106.35898 89.536,107.23092C89.76102,108.09658 90.60081,108.73012 91.1,109.23092C91.79663,109.92979 92.2774,110.76898 92.584,111.43092C92.98656,112.30001 93.84018,112.73672 94.33334,113.63092C94.69908,114.29411 95.31767,114.86301 95.50017,115.73075C95.66677,116.52293 96.60126,116.67872 97.5,116.63092C98.30341,116.5882 99.08223,116.01853 99.9,115.65625C100.68465,115.30864 101.22394,114.74098 102,114.15176C102.73825,113.59124 103.62601,113.44006 104.2,112.92642C104.93533,112.26839 105.5173,111.42257 106.2,110.98808C106.93213,110.52213 107.9,110.63159 108.8,110.63092C109.69867,110.63025 110.28558,110.18896 110.78533,109.43225C111.18748,108.82333 112.22686,108.81689 113.1,108.59492C113.96228,108.37571 114.70464,107.75585 115.6,107.63075C116.50646,107.5041 117.06041,106.9773 117.8,106.33542C118.46669,105.75681 119.33454,105.82753 120.2,105.57375C121.07744,105.31646 121.80308,104.65952 122.66666,104.63092C123.49954,104.60334 124.47867,104.63092 125.25267,104.63092C126.15266,104.63092 127.016,104.63092 127.97916,104.63092C128.89999,104.63092 129.8,104.63092 130.7,104.63092C131.60001,104.63092 132.5,104.63092 133.3,104.63092C134.2,104.63092 135.10001,104.63092 136,104.63092C136.89999,104.63092 137.8,104.63092 138.7,104.63092C139.60001,104.63092 140.50018,104.64813 141.3,104.63092C142.13658,104.61292 143.06354,104.47392 143.79016,103.92642C144.54343,103.35885 144.9355,102.64892 145.89999,102.63092C146.79985,102.61413 147.70134,102.63092 148.38533,102.63092C149.32533,102.63092 150.33333,102.63092 151.12534,102.63092C152.15266,102.63092 152.84734,102.63092 153.864,102.63092C154.8045,102.63092 155.66667,102.63092 156.5,102.63092C157.47867,102.63092 158.25267,102.63092 159.15266,102.63092C160.01601,102.63092 161,102.63092 161.82133,102.63092C162.67467,102.63092 163.61467,102.63092 164.60001,102.63092C165.5,102.63092 166.3,102.63092 167.2,102.63092C168.10001,102.63092 169,102.63092 169.89999,102.63092C170.8,102.63092 171.70134,102.63092 172.38533,102.63092C173.32533,102.63092 174.33333,102.63092 175.1955,102.63092C176.10001,102.63092 177.013,102.48883 177.89999,102.64159C178.73314,102.78506 179.48813,103.52878 180.2,103.62642C181.09256,103.74884 181.87781,104.09113 182.60017,104.73075C183.23831,105.29579 184.15123,105.59853 184.84734,105.62642C185.86319,105.66712 186.85007,105.49925 187.60001,105.85225C188.37553,106.21729 189.10008,106.61492 190,106.63092C190.9001,106.64692 191.65636,107.2315 192.10001,107.78025C192.7408,108.57286 193.53667,108.95704 194.3,109.34692C195.0529,109.73146 196.01572,109.78802 196.89999,109.62025C197.84592,109.44079 198.75937,109.15427 199.33333,108.46426C199.8768,107.81091 199.10704,106.70056 199.58533,105.91625C200.07539,105.11262 200.31865,104.47745 200.66667,103.63092C200.94257,102.95985 201.43799,102.07326 202.11067,101.60558C202.83347,101.10307 203.26173,100.3291 203.784,99.71492C204.33992,99.06116 205.12613,98.80256 205.7955,98.27375C206.53654,97.68832 206.50844,96.7757 207.11067,96.03092C207.72839,95.26698 208.3,94.83092 209,94.13092C209.7,93.43092 210.19995,92.93087 210.89999,92.23092C211.59996,91.53104 212.09331,91.05282 213,90.63092C213.79433,90.26131 214.42461,89.53802 215.10001,89.06692C215.83359,88.55522 216.82921,88.67725 217.48534,88.20559C218.10468,87.76037 218.89392,87.67709 219.864,87.20559C220.64145,86.82771 221.47122,86.41833 222.10001,86.05625C222.87933,85.60749 223.85304,85.82381 224.63867,85.59492C225.57025,85.32349 225.78996,84.2378 226.59984,83.75225C227.32961,83.31473 227.78236,82.67372 228.7,82.63092C229.5992,82.58898 230.40536,82.5966 231.15266,82.27375C232.04395,81.88869 232.64848,81.1684 233.5,80.79758C234.24898,80.47143 235.19948,80.57281 236,80.13092C236.80399,79.68713 237.66667,79.63099 238.5,79.63092C239.47833,79.63084 240.12473,79.23614 240.83333,78.79758C241.56985,78.34176 242.61467,78.63092 243.5,78.63092C244.25717,78.63092 245.15271,78.64006 246.01601,78.63092C247.00017,78.6205 247.87852,78.51212 248.63867,78.02026C249.40106,77.52693 249.85571,76.65952 250.7,76.63092C251.59949,76.60045 252.5,76.63092 253.3,76.63092C254.2,76.63092 255.10001,76.63092 256,76.63092C256.89999,76.63092 257.79999,76.63092 258.70001,76.63092C259.60001,76.63092 260.5,76.63092 261.29999,76.63092C262.20001,76.63092 263.10947,76.51838 264.02084,76.65176C265.00912,76.79639 265.70093,77.20081 266.47849,77.73075C267.11243,78.16282 268.01447,78.47784 268.89999,78.64159C269.73175,78.79539 270.22464,79.51991 271,80.11008C271.73447,80.66915 272.37463,81.17161 273.02084,81.63092C273.71793,82.1264 274.6655,82.35428 275.5,82.79758C276.13391,83.13432 276.38495,84.07411 276.85266,84.93092C277.25952,85.67625 277.51227,86.48116 278.02084,87.13092C278.62198,87.89896 279.3331,88.40006 279.89999,89.04159C280.53909,89.76482 280.72217,90.60413 281.5,91.29758C282.09506,91.8281 283.03101,92.12125 283.69867,92.83092C284.24094,93.40729 284.7388,94.07702 285.216,94.71492C285.79047,95.48284 285.13565,96.54166 285.55716,97.27375C286.02441,98.08526 286.5,98.63092 286.5,99.43092C286.5,100.33092 286.5,101.23092 286.5,102.13092C286.5,103.03092 286.5,103.93092 286.5,104.83092C286.5,105.73092 286.5,106.63092 286.5,107.43092C286.5,108.33092 286.5,109.23092 286.5,110.13092C286.5,111.04159 286.44525,111.95634 286.53601,112.84158C286.61761,113.63749 286.75204,114.61169 287.66666,115.29758C288.22891,115.71923 289.1478,115.95081 289.784,116.54692C290.36807,117.09418 290.93387,117.74422 291.52084,118.13092C292.46454,118.75262 293.12717,119.19476 293.69867,119.83092C294.3811,120.59058 294.60928,121.30016 295.30133,121.71492C296.09631,122.19138 296.36148,123.14465 297.02084,123.63092C297.71063,124.13965 298.50098,124.62995 299.10001,125.23092C299.79663,125.92979 300.38925,126.62138 300.49866,127.43092C300.61945,128.32469 300.94421,129.02324 301.59982,129.73093C302.14978,130.32455 302.49466,131.23088 302.5,132.13092C302.50534,133.0309 302.50006,133.93092 302.5,134.83092C302.49991,135.73093 302.2883,136.60265 301.92532,137.23093C301.43677,138.07658 301.09634,138.8239 300.41599,139.34692C299.80472,139.81682 298.68152,139.68335 298.50134,140.43225C298.28674,141.32423 297.89136,142.13873 297.14282,142.57375C296.41245,142.99821 295.39871,142.58313 294.5,142.63092C293.69662,142.67365 293.03406,143.30182 292.52533,144.02025C292.06076,144.6763 291.10001,144.63092 290.20001,144.63092C289.29999,144.63092 288.3956,144.7196 287.5,144.63092C286.6543,144.54718 286.16873,143.77345 285.52533,143.20558C284.93094,142.68097 284.1069,142.34094 283.62134,141.53108C283.18381,140.80132 282.68005,140.16722 282.05716,139.53091C281.56546,139.02861 280.71216,138.56023 280,138.15175C279.06717,137.6167 278.18225,137.82736 277.52084,137.11009C276.93375,136.47342 276.57288,135.54161 275.89999,135.06693C275.16519,134.54857 274.28046,134.36746 273.70001,133.82959C272.97458,133.15735 272.38657,132.3098 271.70001,131.91626C270.96619,131.49561 269.97885,131.6544 269.01599,131.62959C268.32471,131.61177 267.43604,131.25365 266.70132,130.91492C265.84433,130.51981 264.86401,130.63092 264.01599,130.63092C263.15268,130.63092 261.89404,130.41452 261.53601,131.06693C261.1178,131.82896 261.5,132.95226 261.5,133.63092L261.50015,134.60925" id="svg_1" stroke-width="3" stroke="#000" fill="none"/>
  <path t="24858,25239,25239,25354,25390,25456,25662,25817,26445,26803,26819,26834,26860,26876,26938,26969,26987,26987,27037,27037,27060,27084,27138,27190,27256,27256,27272,27320,27370,27387,27412,27519,27556,27573,27573,27623,27661,27910,27910,27957,27988,27988,28004,28054,28106,28122,28122,28171,28221,28245,28340,28437,28437,28489,28556,28556,28608,28608,28658,28726,28726,28836,28836,28852,28953,29898,29914,29958,30183,30214,30214,30238,30306,30322,30372,30398,30414,30489,30542,30542,30590,30606,30630,30639,30661,30685,30717,30725,30772,30822,30822,30839,30861,30906,30906,30922,30939,30939,30989,31021,31021,31053,31073,31093,31139,31157,31213,31256,31285,31306,31322,31322,31349,31389,31413,31458,31474,31509,31558,31605,31605,31629,31653,31671,31701,31721,31738,31755,31781,31781,31797,31838,31855,31871,31893,31917,31938,31955,31955,31981,32038,32061,32105,32155,32173,32173,32221,32221,32271,32288,32288,32372,32403,32422,32422,32472,32493,32493,32603,32619,32619,32673,32739,32790,32822,32874,32874,32917,32989,33022,33039,33039,33091,33125,33171,33332,33374,33397,33440,33456,33456,33488,33505,33533,33555,33571,33588,33605,33621,33638,33661,33685,33709,33755,33755,33771,33797,33821,33838,33855,33877,33877,33888,33909,33957,33957,33981,34041,36900,36900,36900,36956,37167,37198,37198,37206,37319,37335,37335,37420,37628,37628,37705,37804,37855,37877,37878,37924,37972,38072,38122,38392,38392,38430,38430,38454,38478,38489,38587,38764,38807,38838,38854,38871,38939,38939,38955,39007,39038,39061,39104,39104,39125,39138,39154,39181,39197,39197,39240,39294,39294,39387,39403,39403,39487,39487,39503,39539,39539,39555,39555,39582,39582,39590,39590,39622,39705,39757,39807,39875,40230,40601,40601,40672,40703,40722,40739,40789,40841,40877,40940,40989,40989,41039,41089,41117,41188,41219,41238,41290,41339,41390,41406,41406,41455,41455,41472,41489,41505,41505,41526,41572,41622,41672,41672,41689,41739,41739,41789,41805,41805,41855,41885,41886,41918,42004,43106,43219,43219,43234,43289,43305,43372,43421,43489,43489,43664,43801,43801,43839,43902,43955,43972,43972,43997,44038,44072,44088,44117,44118,44155,44181,44239,44321,44321,44561,44561,44639,44690,44706,44756,44808,44845,44888,44905,44905,44922,44922,44938,44938,44955,44955,44955,44972,44972,44972,44989,45005,45216,45304,45340,45405,45436,45436,45455,45522,45538,45555,45555,45572,45597,45656,45722,45930,46215,46253,46305,46305,46322,46349,46390,46471,49513,49555,49605,49622,49622,49645,49655,49705,49755,49823,49854,49905,49926,49926,49972,50022,50022,50053,50073,50102,50172,50172,50222,50336,50388,50421,50445,50506,50521,50588,50656,50656,50738,50821,50821,50872,50894,50905,51035,51154,51154,51154,51285,51355,51405,51405,51457,51457,51524,51539,51555,51555,51572,51588,51605,51658,51658,51693,51738,51788,51805,51855,51855,51877,51921,51938,51965,51965,51988,51988,52005,52121,52121,52204,52204,52237,52320,52352,52422,52455,52504,52520,52537,52537,52587,52620,52621,52704,52755,52979,53038,53055,53138,53424,53469,53488,53555,53555,53654,53690,53706,53733,53789,53837,53861,53904,53933,53957,53982,54030,54088,54088,54140,54140,54155,54205,54246,54246,54305,54321,54355,54355,54371,54390,54406,54422,54471,54471,54538,54538,54569,54569,54621,54661,54704,54704,54754,54806,54822,54873,54924,54971,54989,54990,55038,55069,55109,55109,55155,55155,55550,55605,55654,55988,55988,56102,56171,56270,56307,56322,56406,56437,56438,56488,56517,56549,56571,56590,56590,56638,56655,56655,56671,56671,56688,56705,56733,56852,56952,57038,58826,58905,59035,59138,59138,59139,59188,59188,59205,59205,59221,59221,59238,59255,59255,59305,59305,60561,60561" d="M74.5,98.63092C73.5,98.63092 72.7,98.63092 71.8,98.63092C70.9,98.63092 69.73867,98.56396 69.51067,99.24158C69.22703,100.08455 69.41051,101.04829 68.92533,101.65625C68.42696,102.28075 68.5,103.23092 68.5,104.13092C68.5,105.03092 68.5,105.93092 68.5,106.83225C68.5,107.79758 68.46664,108.4568 68.5,109.46426C68.5286,110.32784 69.18619,111.05329 69.44283,111.93092C69.69595,112.79648 69.5,113.73092 69.5,114.63092C69.5,115.43092 69.5,116.33092 69.5,117.23092C69.5,118.13092 69.5,119.03092 69.5,119.93092C69.5,120.83092 69.5,121.73092 69.5,122.63092C69.5,123.43092 69.38557,124.46162 69.94667,125.02026C70.65686,125.72733 71.67821,125.71159 72.61467,125.62959C73.51187,125.55102 74.2498,125.08521 74.47916,124.13092C74.68961,123.2553 74.94234,122.51911 75.33334,121.63092C75.62284,120.97328 75.50372,119.84249 76.30133,119.63226C77.117,119.41727 77.6543,118.71466 78.5,118.63092C79.25348,118.55631 80.44736,118.31506 81.16666,118.79758C81.75363,119.19133 81.88518,120.27068 82.14733,120.97826C82.52193,121.98931 82.72832,122.94943 83,123.63092C83.38853,124.60548 83.49775,125.32641 83.5,126.23092C83.50224,127.13092 83.5,128.03091 83.5,128.93092C83.5,129.83092 83.5,130.73093 83.5,131.63092C83.5,132.43092 83.5,133.33092 83.5,134.23093C83.5,135.13092 83.5,136.03091 83.5,136.93092C83.5,137.83092 83.5,138.73093 83.5,139.63092C83.5,140.43092 83.5168,141.33107 83.5,142.23093C83.48199,143.19542 82.70745,143.63135 82.50134,144.43225C82.27688,145.3044 81.81737,146.05434 81.55717,146.93092C81.32893,147.69981 81.26606,148.5892 80.85267,149.33092C80.42703,150.0946 80.14689,150.93468 79.5,151.63092C78.93949,152.23419 78.65615,153.09497 78.21467,153.83092C77.80757,154.50954 76.97356,155.1055 76.30133,155.83092C75.76344,156.41138 75.90315,157.33549 75.464,158.19492C75.10787,158.89185 74.69628,159.46675 74.44283,160.33092C74.1855,161.20834 73.52859,161.92957 73.5,162.83092C73.47146,163.73047 73.5,164.63092 73.5,165.43092C73.5,166.33092 73.5,167.23093 73.5,168.13092C73.5,169.03091 73.5,169.93092 73.5,170.83092C73.5,171.73093 73.5,172.63092 73.5,173.43092C73.5,174.33092 73.5,175.23093 73.5,176.13092C73.5,177.03091 73.5,177.93092 73.5,178.83092C73.5,179.73093 73.5,180.63092 73.5,181.43092C73.5,182.33092 73.5,183.23093 73.5,184.13092C73.5,185.03091 73.5,185.93092 73.5,186.83092C73.5,187.73093 73.5,188.63092 73.5,189.43092C73.5,190.33092 73.5,191.23093 73.5,192.13092C73.5,193.03091 73.5,193.93542 73.5,194.79759C73.5,195.63092 73.5,196.60942 73.5,197.42958C73.5,198.26692 73.5,199.28358 73.5,199.97826C73.5,200.99492 73.63166,201.98099 73.27866,202.73093C72.91362,203.50645 72.53204,204.26749 72.49866,205.11491C72.46461,205.97939 72.04431,206.81744 71.66666,207.63092C71.31365,208.39133 70.75306,209.16811 70.536,210.03091C70.31625,210.90443 70.6637,211.88821 70.27866,212.73093C69.97287,213.40022 69.51838,214.25432 69.07467,215.03091C68.66098,215.75496 68.5,216.63092 68.5,217.43092C68.5,218.33092 68.5,219.23093 68.5,220.13092C68.5,221.03091 68.5,221.93092 68.5,222.83092C68.5,223.73093 68.5,224.63092 68.5,225.43092C68.5,226.33092 68.5,227.23093 68.5,228.13092C68.5,229.03091 68.30511,229.95261 68.50134,230.82959C68.68192,231.63663 69.48958,232.15157 69.5,233.03091C69.51067,233.93086 69.5,234.83092 69.5,235.73093C69.5,236.63092 69.60609,237.41904 70,238.13092C70.49024,239.01689 70.5,239.93092 70.5,240.83092C70.5,241.73093 70.47463,242.63132 70.5,243.43092C70.52859,244.33228 70.9442,245.02322 71.59983,245.73093C72.14978,246.32455 72.4565,247.26767 72.85717,247.93542C73.4105,248.85759 73.87189,249.47331 74.3,250.14693C74.8539,251.01848 75.25272,251.78146 75.66666,252.63092C75.98451,253.28319 76.38495,254.07411 76.85267,254.93092C77.25952,255.67624 77.51227,256.48114 78.02084,257.13092C78.62198,257.89899 79.24538,258.49225 79.9,259.02026C80.64494,259.62112 81.60126,259.67871 82.5,259.63092C83.30341,259.5882 84.24121,259.08731 84.464,258.23093C84.69077,257.35922 84.5,256.4296 84.5,255.46425C84.5,254.80559 84.05442,253.62457 84.58533,252.91759C85.04817,252.30127 86.21547,252.80132 86.5,253.63092C86.7848,254.46132 87.25207,255.61465 88,255.58925C88.75004,255.56378 88.38856,254.06134 88.85717,253.33092C89.37036,252.53101 90.24114,252.09714 90.464,251.23093C90.68842,250.35861 90.5,249.43092 90.5,248.53091C90.5,247.63092 90.5,246.83092 90.5,245.93092C90.5,245.03091 90.52578,244.11008 90.14733,243.32642C89.71806,242.43755 89.68332,241.56677 89.216,240.79892C88.7728,240.07068 88.60354,239.39964 88.216,238.51625C87.79743,237.5621 87.48198,236.86139 87.14733,235.97826C86.87994,235.27263 86.5401,234.38449 86.5,233.46425C86.46371,232.63145 86.29731,231.64055 85.88934,231.00558C85.32678,230.13004 84.84274,229.48676 84.6215,228.65242C84.40903,227.8512 84.5,226.93092 84.5,226.03091C84.5,225.13092 84.49933,224.23093 84.5,223.33092C84.50067,222.43092 84.82613,221.59425 85.216,220.83092C85.60054,220.07802 85.1901,219.0712 85.51067,218.24159C85.81705,217.44867 86.49412,217.00365 86.92533,216.23093C87.38232,215.41202 87.27697,214.45908 87.66666,213.63092C88.02353,212.87253 89.0321,212.69623 89.8,212.27826C90.64081,211.8206 91.26699,211.32292 91.85267,210.68359C92.38699,210.10033 92.87566,209.48668 93.33334,208.63092C93.75661,207.83948 94.53268,207.50531 95.1,207.02025C95.84671,206.38181 96.22349,205.74191 97,205.15175C97.73797,204.59088 98.81181,204.43803 99.21467,203.82959C99.75855,203.00815 100.38737,202.65695 101,202.08925C101.72151,201.42064 101.83017,200.48419 102.6,199.87375C103.37476,199.2594 104.14797,199.06551 104.7955,198.33092C105.37923,197.66872 105.51259,196.78093 106.02084,196.13092C106.62103,195.36331 107.14792,194.80295 107.55267,193.93092C107.93855,193.09953 108.33642,192.28386 108.72134,191.53091C109.1115,190.76772 109.48927,190.03091 109.5,189.13092C109.5106,188.24159 110.18212,187.67081 110.52533,186.98425C110.91719,186.20038 111.08862,185.46101 111.44733,184.38809C111.73264,183.53473 112.15717,182.82343 113.1,182.64159C113.98378,182.47115 114.96617,182.49562 115.7,182.91626C116.38656,183.30981 116.94318,184.15323 117.44733,184.92642C117.90434,185.62729 118.6273,186.03979 119.5,186.46425C120.15967,186.7851 120.94465,187.17369 121.44733,187.92642C121.91548,188.62746 122.84032,188.81262 123.5,189.15175C124.51118,189.67159 125.02393,190.37199 125.9,190.59492C126.7729,190.81705 127.79788,190.47157 128.44733,190.98358C129.06195,191.46814 129.8,191.63092 130.70134,191.63092C131.66667,191.63092 132.50067,191.59505 133.47867,191.63109C134.25424,191.65967 135.16176,191.97838 135.9045,192.33542C136.70525,192.72035 137.50574,193.15805 138.18533,193.34558C139.16588,193.61617 139.97899,193.61938 140.73067,193.62959C141.8279,193.64449 142.8224,193.82899 143.69867,193.62959C144.50298,193.44656 144.5,192.43092 144.5,191.53091C144.5,190.63092 144.89294,189.70056 144.41467,188.91626C143.92461,188.11263 143.5,187.53091 143.5,186.63092C143.5,185.83092 143.44284,184.93092 143,184.13092C142.55716,183.33092 142.5,182.43092 142.5,181.53091C142.5,180.63092 142.6543,179.71466 143.5,179.63092C144.29611,179.55209 145.2,179.57375 146,179.13092C146.8,178.68808 147.70862,178.50681 148.59984,178.63109C149.40158,178.74289 149.5,179.73093 149.5,180.63092C149.5,181.43092 149.5,182.33092 149.5,183.23093C149.5,184.13092 149.5,185.03091 149.5,185.93092C149.5,186.83092 149.54779,187.73219 149.5,188.63092C149.45728,189.43433 148.98444,190.13606 148.3,190.83092C147.70454,191.43544 147.01161,192.12524 146.584,192.82959C146.13304,193.57239 145.1631,193.80792 144.78534,194.43225C144.29793,195.23779 144.50195,196.25053 144.07466,197.03091C143.62428,197.85349 143.75627,198.85583 143.27867,199.50958C142.76796,200.20866 142.5,200.83092 142.5,201.73108C142.5,202.51625 142.5,203.45625 142.5,204.46425C142.5,205.22025 142.11919,206.21684 142.52083,207.11009C142.85048,207.84326 143.95979,208.03171 144.5,208.79759C144.94099,209.42284 145.15628,210.16618 145.5,211.11009C145.80629,211.95123 146.5,212.63092 147.10001,213.23093C147.7,213.83092 148.38901,214.3544 148.97917,215.13092C149.54004,215.8689 149.68866,216.75891 150.2045,217.33092C150.86031,218.05812 151.87979,218.3134 152.416,218.91626C152.9942,219.56633 152.97163,220.57655 153.55267,221.27376C154.04561,221.86525 155.05162,222.11258 155.44733,222.93092C155.8653,223.7953 156.33562,224.26563 157.2,224.68359C158.01834,225.0793 158.29756,226.04922 158.94284,226.73093C159.42604,227.24141 160.42792,227.53151 160.95833,228.13092C161.58124,228.83487 161.91016,229.786 162.52083,230.11009C163.43735,230.59651 164.29866,230.63025 165.2,230.63092C166.10001,230.63158 167,230.63092 167.89999,230.63092C168.8,230.63092 169.7,230.63092 170.60001,230.63092C171.5,230.63092 172.50078,231.12373 173.21466,230.54559C173.95926,229.94258 173.51799,228.83073 173.5,227.93092C173.48199,227.03038 172.77757,226.35004 172.62167,225.53108C172.46625,224.71463 173.70862,224.75504 174.59984,224.63075C175.40158,224.51895 175.54779,223.52965 175.5,222.63092C175.45728,221.82751 174.95581,220.89194 174.10001,220.66692C173.23305,220.43895 172.5166,220.21344 172,219.63092C171.46552,219.02824 171.08354,218.2121 170.30133,217.71492C169.56989,217.25 168.92624,216.68732 168.47467,216.02025C167.97589,215.28343 167.5,214.63092 166.89999,214.03091C166.2,213.33092 165.61099,212.90744 165.02083,212.13092C164.45996,211.39294 164.29585,210.33562 163.69867,209.91626C162.93785,209.38199 162.66835,208.73001 162.33333,207.79759C162.04283,206.98912 161.63799,206.11792 160.97917,205.63092C160.2932,205.12384 159.62856,204.52994 159.5,203.63092C159.3916,202.87288 158.91382,202.16183 158.35066,201.45625C157.72209,200.6687 157.13103,200.20438 156.62151,199.40942C156.14294,198.66275 156.5,197.63092 156.5,196.83092C156.5,195.93092 156.5,195.03091 156.5,194.13092C156.5,193.23093 156.40912,192.32619 156.50133,191.43092C156.58504,190.61832 157.20412,189.98724 158,189.63092C158.79962,189.27292 159.5,188.63092 160.10001,188.03091C160.8,187.33092 161.22224,186.74028 162,186.15175C162.73735,185.5938 163.75729,185.79463 164.60001,185.40959C165.2693,185.10379 166.09996,184.63626 167,184.63092C167.89998,184.6256 168.8,184.63084 169.7,184.63092C170.60001,184.63101 171.47217,184.84189 172.10001,185.20558C172.86986,185.65155 173.8,185.63092 174.7,185.63092C175.60001,185.63092 176.5,185.63092 177.3,185.63092C178.25717,185.63092 179.16344,185.57809 179.9045,185.68808C180.91316,185.83778 181.62932,186.32547 182.61467,186.54559C183.48271,186.7395 184.04492,187.08127 184.78534,187.54559C185.5636,188.03365 186.60439,187.54224 187.5,187.63092C188.3457,187.71466 188.7328,188.47531 189.66667,188.79759C190.34499,189.03168 191.09132,189.39545 192.10001,189.57825C192.89397,189.72212 193.92308,189.86394 194.664,190.24159C195.51048,190.67307 196.02472,191.37206 196.91066,191.59492C197.79468,191.81731 198.71066,191.66692 199.5,191.79759L200.28934,192.05626L201.33333,192.46425L202.08934,192.62025" id="svg_2" stroke-width="3" stroke="#000" fill="none"/>
  <path t="62674,62997,62997,63005,63086,63202,63218,63256,63304,63334,63334,63371,63371,63388,63404,63430,63454,63486,63494,63538,63538,63554,63571,63621,63621,63638,63670,63670,63739,63754,63782,63822,63854,63886,63921,63942,63942,63954,63954,63972,63988,63989,64004,64022,64046,64088,64118,64166,64221,64288,64387,64423,64504,64649,64665,64801,64854,64871,64888,64910,64910,64921,64921,64950,64966,65166,65237,65328,65365,65626,65626,65662,65671,65694,65710,65734,65734,65789,65789,65829,65877,65878,65901,65901,65954,65971,65997,66038,66054,66054,66104,66121,66121,66154,66181,66221,66238,66238,66269,66321,66338,66355,66373,66389,66438,66461,66478,66501,66533,66533,66588,66630,66630,66673,66721,66749,66790,66840,66892,66942,67021,67104,67235,67251,68102,68220,68220,68381,68421,68421,68504,68504,68587,68639,68639,68654,68722,68804,68855,68855,68903,68903,68933,68965,68965,69005,69054,69071,69121,69121,69157,69157,69204,69204,69204,69229,69271,69271,69287,69287,69304,69321,69321,69349,69405,69420,69420,69473,69521,69541,69541,69557,69581,69581,69621,69621,69653,69653,69671,69687,69709,69756,69756,69772,69789,69837,69889,69904,69904,69925,69937,70005,70054,70171,70171,70189,70189,70213,70213,70290,70336,70498,70498,70513,70529,70542,70587,70587,70604,70844,70920,70973,70973,71236,71236,71251,71270,71293,71304,71354,71371,71371,71390,71439,71522,71636,71720,71720,71751,71789,71839,71887,71917,71937,71954,71971,71987,72004,72004,72021,72037,72054,72071,72071,72087,72104,72121,72142,72173,72173,72197,72237,72237,72261,72277,72277,72301,72321,72321,72341,72365,72381,72397,72397,72439,72489,72505,72505,72521,72536,72557,72603,72620,72620,72637,72653,72670,72701,72720,72720,72736,72736,72753,72803,72803,72853,72885,72885,72909,72920,72949,72949,73037,73068,73087,73117,73165,73181,73182,73238,73286,73286,73337,73354,73406,73406,73502,73518,73518,73586,73618,73618,73721,73737,73820,73820,73887,73938,73989,74071,74071,74104,74205,74255,74255,74681,74988,75101,75154,75284,75300,75417,75417,77001,77658,77693,77737,77976,78070,78121" d="M201.5,192.63092C201.5,193.63092 201.5,194.43092 201.5,195.33092C201.5,196.23093 201.5,197.13092 201.5,198.03091C201.5,198.93092 201.5,199.83226 201.5,200.79759C201.5,201.63092 201.5,202.46425 201.5,203.32642C201.5,204.23093 201.5,205.13092 201.5,206.03091C201.5,206.93092 201.5,207.83092 201.5,208.73093C201.5,209.63092 201.5,210.43092 201.5,211.33092C201.5,212.26692 201.60764,213.12895 201.44284,213.97826C201.26321,214.90398 200.58504,215.61832 200.50133,216.43092C200.40912,217.32619 200.89821,218.3335 200.464,219.19492C200.11172,219.8938 199.44542,220.33435 199,221.13092C198.55075,221.93436 198.38264,222.82033 197.97917,223.63092C197.55083,224.49147 196.94168,225.06975 196.55267,225.93092C196.20461,226.70148 195.55325,227.10236 194.85716,227.68359C194.26614,228.17709 194.0396,229.15453 193.55267,229.92642C193.10956,230.62886 192.34421,231.07222 191.85266,231.68359C191.33447,232.32811 191.5,233.33092 191.5,234.23093C191.5,235.13092 191.49933,236.03091 191.5,236.93092C191.50067,237.82959 191.8557,238.60248 192.7,238.63092C193.5995,238.66122 194.55659,238.33498 194.88933,237.76959C195.43132,236.84863 195.48921,236.04158 195.5,235.13092C195.51054,234.24159 196.04884,233.68452 196.89999,233.20558C197.62654,232.79677 198.44597,232.91512 198.5,233.79759C198.54967,234.60884 198.77777,235.75125 199.69867,235.62959C200.51643,235.52156 200.45148,234.42961 200.50017,233.53075C200.54288,232.74214 200.96634,231.82144 201.216,231.11491C201.55722,230.14928 201.6817,229.2906 202.02083,228.63092C202.54066,227.61974 202.96545,226.98276 203.47467,226.24159C203.9386,225.56633 204.93617,225.36523 205.37866,224.53091C205.82141,223.69611 206.15363,223.0705 206.7955,222.33092C207.37411,221.66423 207.2899,220.79231 207.55716,219.93092C207.82584,219.06494 208.85947,218.81781 209.60001,218.40942C210.27449,218.03746 211.0974,217.33388 211.41467,216.43092C211.71431,215.57814 212.00719,215.02193 212.44284,214.27376C212.86731,213.5448 213.11172,212.8938 213.464,212.19492C213.89821,211.3335 213.5,210.33092 213.5,209.42958C213.5,208.74559 213.5,207.80559 213.5,206.79759C213.5,205.93542 213.4946,205.0309 213.5,204.13092C213.50534,203.24155 214.07733,202.68973 214.52533,202.02025C215.01746,201.28482 215.26711,200.33363 215.784,199.71492C216.33284,199.05797 216.49992,198.33092 216.5,197.43092C216.50009,196.53091 216.62469,195.59746 217.11067,195.03091C217.74823,194.28767 218.48714,193.71696 219.25717,193.63542C220.14769,193.54112 221.08803,193.5771 221.864,194.06693C222.70224,194.59604 223.24716,195.28754 223.7955,195.93092C224.43758,196.68428 224.94205,197.32571 225.37866,198.07375C225.76019,198.7274 225.73978,199.78247 226.30133,200.42958C226.85747,201.07045 227.60114,201.7298 228.2,202.33092C228.79663,202.92979 229.10716,203.92078 229.7215,204.50958C230.40236,205.16216 231.21638,205.38148 231.70134,206.11491C232.15144,206.79562 232.80428,207.63281 233.32533,207.99492C233.99547,208.46063 234.84698,209.06932 235.66667,209.63092C236.29488,210.06133 237.01079,210.77159 237.60533,211.27376C238.23198,211.80304 239.20807,212.09348 239.51466,212.78026C239.87939,213.59727 240.80688,213.98067 241.5,214.63092C242.00507,215.10475 242.79993,215.57193 243.48534,216.05626C244.2146,216.57158 245.0891,216.57675 245.864,217.06693C246.70174,217.59683 247.07545,218.25653 247.8045,218.93092C248.36711,219.45134 249.16713,219.90678 249.84734,220.33092C250.75883,220.89928 251.03203,221.82961 251.66667,222.46425C252.30132,223.09889 253.08836,223.22975 253.89999,223.60559C254.78363,224.01477 255.03203,224.82961 255.66667,225.46425C256.30133,226.09889 257.15372,226.4259 258,226.61009C258.86954,226.79935 259.30484,227.27768 259.86166,227.92642C260.49219,228.66106 261.53116,228.51695 262.33334,228.79759C263.17426,229.0918 264.03027,229.37811 264.79016,229.68359C265.56305,229.99431 265.8728,231.17212 266.66666,231.46425C267.43814,231.74815 268.44272,231.27954 268.5,230.43092C268.56061,229.53296 268.52536,228.63052 268.5,227.83092C268.47141,226.92957 267.48224,226.23764 267.56616,225.33542C267.64005,224.5412 268.73755,224.6033 269.69968,224.85208C270.64954,225.09769 271.46399,225.16101 271.5,224.23093C271.53482,223.33159 271.5,222.43092 271.5,221.53091C271.5,220.63092 271.40439,219.8369 271,219.13092C270.5455,218.33748 270.74731,217.25078 270.14282,216.68359C269.48096,216.06258 268.54395,216.17667 267.78534,215.54692C267.06018,214.94495 266.64877,214.29411 266.07468,213.65625C265.5538,213.07753 264.76907,212.77928 264.11066,212.19492C263.41748,211.57968 263.07611,210.817 262.29999,210.34558C261.62363,209.93477 261.01163,209.1366 260.58401,208.43225C260.13303,207.68945 259.34766,207.2715 258.70001,206.91492C257.83633,206.43941 257.58423,205.68022 256.88934,205.06693C256.22223,204.47815 255.35246,204.2468 254.61467,203.91492C253.73225,203.51799 252.82101,203.30322 252.52083,202.63092C252.12653,201.74785 251.2805,201.36743 250.7,200.82959C250.07826,200.25354 249.47858,199.42896 248.8,198.98808C248.00768,198.4733 247.5377,197.86578 246.97917,197.13092C246.47462,196.46709 245.78557,196.02042 244.89999,195.60559C244.08566,195.22414 243.4614,194.45457 242.89999,194.06693C242.09245,193.50932 241.33568,193.20427 240.784,192.54692C240.29755,191.9673 240.28064,190.88647 239.69867,190.20026C239.13469,189.53523 238.50606,189.00354 238.07466,188.23093C237.61658,187.41052 237.39383,186.43564 237.064,185.81625C236.58374,184.9144 235.68753,184.64381 235.5045,183.86925C235.29959,183.00212 235.5,182.11491 235.5,181.13092C235.5,180.14693 235.5,179.45625 235.5,178.38809C235.5,177.53091 235.5,176.63092 235.5,175.83092C235.5,174.93092 235.49467,174.0309 235.5,173.13092C235.50534,172.23088 235.90887,171.50362 236.33333,170.63092C236.70001,169.877 237.04179,169.15063 237.69867,168.43092C238.23215,167.84642 238.46581,166.87579 238.936,166.23093C239.50444,165.45131 240.2,164.93092 240.8,164.33092C241.5,163.63092 242.13504,163.06395 242.69867,162.43092C243.37773,161.66826 243.86972,161.20268 244.37849,160.40942C244.8573,159.66289 244.62469,158.59746 245.11067,158.03091C245.74823,157.28767 246.75937,157.15427 247.33333,156.46425C247.87679,155.8109 247.10701,154.70053 247.58533,153.91626C248.0755,153.11253 248.62476,152.59662 249.2045,151.93092C249.7576,151.29581 250.35011,150.52663 250.5,149.63092C250.64026,148.79274 251.73241,149.06517 252.33333,148.46425C252.93425,147.86333 252.41284,146.67741 253.11067,146.06693C253.77667,145.48428 254.7955,145.62642 255.464,145.19492L255.5,144.33092L255.5,143.43092L255.50017,142.53091" id="svg_3" stroke-width="3" stroke="#000" fill="none"/>
  <path t="80565,80902,80987,81148,81268,81268,81300" d="M260.5,133.63092C260.66666,134.46425 261.41467,134.91626 261.50015,135.73093L261.66666,136.63092L262.14734,137.33092L262.5,138.11009" id="svg_4" stroke-width="3" stroke="#000" fill="none"/>
  <path t="82393,82572,82620,82687,82786,82786,82801,82838,82854,83255,83368,83593,83779" d="M254.5,144.63092C254.5,142.93092 254.74539,142.19305 255.33333,141.46425C255.89687,140.76569 255.92406,139.94049 256.5,139.15175C256.96753,138.51147 257.55267,137.92642 258.02084,137.15175L258.79999,136.68808L259.70001,136.63092L260.60001,136.63092" id="svg_5" stroke-width="3" stroke="#000" fill="none"/>
  <path t="88763,88813,88852,88870,88870,88870,88870,88887,88887,88887,88887,88902,88903,88919,88949,88949,88970,88970,88986" d="M192.5,245.63092C194.3,245.63092 195.20193,245.59547 195.8215,244.96625C196.40532,244.37332 196.72179,243.76978 197.10133,243.14159C197.71811,242.12074 198.09491,241.38693 198.47917,240.67259C198.84227,239.99762 199.50903,238.91545 199.95833,238.19342C200.48424,237.3483 200.66667,236.46425 200.92534,235.80559L201.33333,234.79759L201.48933,234.04158L201.52083,233.13092" id="svg_6" stroke-width="20" stroke="#fff" fill="none"/>
  <path t="89900,89986,90001,90002,90018,90018,90018,90018,90036,90036,90036,90036,90051,90051,90051,90068,90068,90092,90092,90092" d="M187.5,240.63092C189.97917,240.11009 190.68564,239.41045 191.172,238.99492C192.01469,238.27495 192.76924,237.7944 193.28534,237.38425C193.82582,236.95473 194.82393,235.95447 195.26401,235.40558C195.69859,234.86354 196.07756,234.29764 196.89867,233.31625C197.46487,232.63953 198.05414,232.06035 198.61467,231.23093C199.00777,230.64926 199.5,229.63092 199.89999,228.85225L200.3,228.20158" id="svg_7" stroke-width="20" stroke="#fff" fill="none"/>
  <path t="93301,93624,93668,93692,93708,93751,93913,93913,93928,93971,94020,94073,94137,94394,94394,94410,94437,94461,94469,94485,94502,94502,94525,94664,94720,94802,94854,94885,94902,94902,94952,94980,94988,95115,95115,95216,95285,95337,95385,95468,95639,95812,95812,95827,95869,95900,95900,95932,95952,96002,96002,96019,96069,96085,96153,96303,96335" d="M198.5,223.63092C198.216,222.71759 197.5166,223.0484 197,223.63092C196.46552,224.2336 196.0558,225.02322 195.40016,225.73093C194.8502,226.32455 194.41051,227.02272 193.85266,227.68359C193.35754,228.27014 192.93802,229.09929 192.55267,229.93092C192.1487,230.80278 191.64818,231.39954 191.5045,232.33092C191.36728,233.22041 191.35791,234.14392 191.51067,235.03091C191.65414,235.86406 192.41496,236.61832 192.49867,237.43092C192.59088,238.32619 192.36427,239.34485 192.936,240.02025C193.46886,240.64973 194.70445,241.01485 195.37866,240.40942C195.99626,239.85483 196.30019,238.97832 196.47917,238.13092C196.66522,237.25012 196.32808,236.2554 196.78534,235.43092C197.16914,234.73886 197.91885,233.97984 198.7,233.71625C199.55641,233.42725 200.4572,233.91328 200.5,234.83092C200.54193,235.72995 200.54585,236.75197 201.11067,237.19492C201.86124,237.78352 202.48958,237.08942 202.5,236.14693C202.50954,235.28363 202.3862,234.38115 202.50133,233.43092C202.61276,232.51114 203.30988,231.97684 203.48933,231.03091C203.6571,230.14664 203.5,229.23093 203.5,228.33092L203.5,227.43092L203.5,226.53091" id="svg_8" stroke-width="3" stroke="#000" fill="none"/>
  <path t="103569,103901,103901,103952,104002,104054,104069,104119,104168,104185,104204,104204,104254,104292,104316,104368,104396,104404,104452,104468,104468,104485,104502,104532,104570,104586,104668,104700,104752,104752,104781,104820,104931,104946,104946,104985,105037,105085,105085,105135,105156,105202,105218,105268,105302,105318,105335,105387,105403,105451,105476,105517,105569,105569,105613,105621,105645,105733,105785,105817,105817,105836,105884,105916,105916,105948,105986,105986,106037,106104,106104,106152,106180,106218,106218,106286,106286,106308,106324,106335,106352,106401,106451,106501,106501,106517,106585,106637,106637,106684,106684,106708,106708,106753,106769,106769,106817,106834,106860,106884,106908,106908,106951,107001,107051,107101,107117,107169,107169,107235,107235,107252,107252,107269,107269,107285,107318,107318,107349,107349,107402,107452,107468,107485,107485,107509,107535,107552,107553,107573,107597,107597,107652,107669,107669,107701,107701,107724,107770,107802,107802,107852,107868,107868,107892,107918,107935,107964,108018,108018,108068,108199,108236,108236,108253,108335,108365,108385,108435,108460,108461,108518,108518,108540,108552,108581,108637,108652,108684,108684,108736,108787,108836,108885,108937,108987,108987,109055,109070,109092,109108,109170,109185,109185,109212,109213,109252,109318,109340,109385,109452,109452,109484,109535,109587,109635,109685,109685,109737,109753,109866,109881,109920,110001,110053,110053,110053,110101,110151,110180,110180,110196,110212,110251,110268,110301,110301,110318,110368,110385,110385,110401,110420,110468,110500,110518,110568,110618,110618,110668,110668,110668,110735,110735,110785,110801,110820,110868,110892,110892,110916,110948,110968,110996,111035,111035,111103" d="M258.5,136.63092C258.5,137.63092 258.5,138.43092 258.5,139.33092C258.5,140.23093 258.5,141.13092 258.5,142.03091C258.5,142.93092 258.5,143.83092 258.5,144.73093C258.5,145.63092 258.5,146.43092 258.5,147.33092C258.5,148.23093 258.5,149.13092 258.5,150.03091C258.5,150.93092 258.5,151.83092 258.5,152.73093C258.5,153.63092 258.5,154.43092 258.5,155.33092C258.5,156.23093 258.5,157.13092 258.5,158.03091C258.5,158.93092 258.5,159.83092 258.5,160.73093C258.5,161.63092 258.6199,162.41078 259.07468,163.23093C259.50842,164.01312 259.95297,164.73811 260.33334,165.63092C260.65353,166.38246 260.4227,167.29846 260.936,168.03091C261.48965,168.82094 262.29654,169.28598 262.48932,170.23093C262.66934,171.1133 262.78827,172.02162 263.5,172.46425C264.31558,172.97147 264.41132,173.73531 264.5,174.63092C264.58374,175.47661 265.29269,175.86865 265.50015,176.73076C265.70233,177.57089 266.34918,177.99892 266.50449,178.93092C266.64072,179.7484 267.48212,180.06245 268.14282,180.68359C268.74677,181.25136 268.4086,182.43668 268.936,183.02025C269.5582,183.70869 270.7565,183.72209 271.21466,184.43225C271.67252,185.14195 271.43582,186.22479 272.06799,186.83092C272.70471,187.44139 273.26157,187.99918 273.78534,188.83092C274.20703,189.50056 274.89999,190.03091 275.60001,190.73093C276.20001,191.33092 276.93048,191.84819 277.37866,192.73093C277.80646,193.5735 278.10797,194.23358 278.79999,194.93092C279.29807,195.43285 279.9472,196.1506 280.44733,196.92642C280.89731,197.62447 281.50018,198.24348 282.2045,198.68359C282.87796,199.10443 283.51816,199.83795 284.20001,200.27376C285.02399,200.8004 285.90051,201.06638 286.5,201.63092C287.13654,202.23035 287.82486,202.72501 288.5,203.13092C289.4837,203.72234 290.05881,204.26373 290.70001,204.82959C291.46567,205.50528 292.19907,205.68532 293,206.13092C293.79904,206.57547 294.87958,206.38414 295.44733,206.98808C296.06848,207.64882 296.27267,208.46349 297.20001,208.62642C298.08731,208.78232 298.81036,209.24896 299.70001,209.54559C300.55765,209.83154 301.50229,209.79433 302.13599,210.24159C302.82401,210.72722 303.49432,211.19443 304.5,211.46425C305.27451,211.67204 306.33673,211.79109 306.97916,212.13092C307.80899,212.56989 308.68939,212.74826 309.5,213.15175C310.36057,213.58009 310.8963,214.30525 311.79999,214.57375C312.66449,214.8306 313.60001,214.63092 314.5,214.63092C315.29999,214.63092 316.20001,214.63092 317.02084,214.63092C317.98401,214.63092 318.85446,214.7393 319.74283,214.62642C320.61996,214.51497 321.29153,213.89102 322.13599,213.60559C322.97626,213.32158 323.72171,213.08936 324.61465,212.43092C325.23151,211.97609 325.68146,211.12141 326.60001,210.75243C327.44272,210.41391 328.35068,210.61809 329,210.11009C329.76743,209.50969 329.91922,208.645 330.58401,207.91626C331.12778,207.32021 332.10773,207.0415 332.47467,206.23093C332.82858,205.4491 333.38995,204.90698 333.97916,204.13092C334.53967,203.39267 334.80688,202.58411 335.216,201.83092C335.64923,201.0334 336.17337,200.34991 336.72134,199.75226C337.30643,199.11415 337.45148,198.42961 337.50015,197.53075C337.54288,196.74214 337.97137,195.82321 338.216,195.11491C338.54193,194.17114 338.5,193.23093 338.5,192.33092C338.5,191.43092 338.5,190.53091 338.5,189.63092C338.5,188.83092 338.5,187.93092 338.5,187.03091C338.5,186.13092 338.61658,185.22276 338.49551,184.33092C338.384,183.50954 337.7247,182.99377 337.11066,182.23093C336.51053,181.48538 336.7558,180.40634 336.27866,179.75226C335.76477,179.04779 335.33334,178.46425 335,177.63092C334.66666,176.79759 334.50226,175.93544 334.5,175.03091C334.49777,174.13092 334.59546,173.18639 334.216,172.43092C333.78043,171.56371 333.68594,170.90407 333.46399,170.03091C333.24478,169.16866 332.62494,168.42628 332.49985,167.53091C332.3732,166.62445 331.70502,165.9772 331.52084,165.13092C331.3316,164.26138 330.78302,163.75386 330.51068,163.02025C330.20096,162.18599 330.19257,161.26318 329.33334,160.63092C328.72,160.17958 328.00949,159.87134 327.48532,159.03091C327.00684,158.26375 326.47568,157.43338 325.79999,156.98808C325.08432,156.51643 324.45221,155.9756 323.7955,155.57825C323.00577,155.10042 322.3786,154.32335 321.70001,153.91626C320.96405,153.47476 320.07425,153.22105 319.40018,152.53091C318.83475,151.95201 318.56287,150.87752 317.7955,150.63542C316.94061,150.36572 316.12454,150.16527 315.40018,149.75226C314.60699,149.29999 314.19849,148.58246 313.45834,148.13092C312.53555,147.56798 311.88702,147.36201 311.15717,146.93092C310.3663,146.46379 310.11664,145.6113 309.41599,144.91626C308.86826,144.37292 307.73761,144.66768 307,144.11009C306.22269,143.52249 305.68185,142.9595 304.89999,142.60559C304.08939,142.23866 303.58401,141.43225 303.14282,140.68359L302.29999,140.34692L301.70001,139.91492L300.79999,139.63542" id="svg_9" stroke-width="3" stroke="#000" fill="none"/>
  <path t="115337,115603,115619,115652,115676,115676,115684,115752,115834,115869,115869,115885,115951,115968,115968,116018" d="M300.5,128.63092C299.784,128.43358 299.1886,129.01566 298.66666,129.79759C298.19485,130.50441 298.89294,131.56128 298.41467,132.34558C297.92459,133.14923 297.5,133.73093 297.5,134.63092C297.5,135.43092 297.44284,136.27376 296.66666,136.79759L296.5,137.63092L296.5,138.43092L296.5,139.33092" id="svg_10" stroke-width="3" stroke="#000" fill="none"/>
  <path t="128229,128468,128468,128517,128517,128635,128684,128684,128736,128801,128817,128845,128932,129016,129052,129069,129085,129101,129153,129153,129265" d="M266.5,110.63092C266.5,109.63092 266.50668,108.85539 266.85266,107.98275C267.17065,107.18075 267.92728,106.78389 268.70001,106.34559C269.38834,105.95516 269.9151,104.95635 270.79999,104.68809C271.66302,104.42645 272.72491,104.88718 273.37866,104.40958C274.07773,103.89887 274.70001,103.63092 275.60001,103.63092C276.5,103.63092 277.33334,103.79758 277.66666,104.63092L278.14734,105.33092L278.5,106.13092" id="svg_11" stroke-width="3" stroke="#000" fill="none"/>
  <path t="130081,130251,130269,130465,130481,130534,130584,130601,130628,130763" d="M271.5,112.63092C271.5,110.83092 271.49704,109.81528 272.30133,109.63226C273.17761,109.43285 274.10001,109.63092 275,109.63092L275.89999,109.63092L276.79999,109.63092L277.70001,109.63092" id="svg_12" stroke-width="3" stroke="#000" fill="none"/>
  <path t="132465,132634,132684,132701,132815,132884,132934,132951,132951,132967,132967,132984,132984,133005,133117,133184,133233,133233,133260,133268,133308,133324,133324,133333,133384,133545,133601,133668,133684,133716,133740,133756,133800,133800,133816,133836,133884,133900,133900,133932,133983,134033,134085,134101,134125,134141,134141,134157,134201" d="M251.5,83.63092C249.8,83.63092 248.89999,83.63092 248,83.63092C247.10001,83.63092 246.2,83.63092 245.29866,83.63092C244.33333,83.63092 243.4594,83.50869 242.52133,83.85225C241.82938,84.10567 240.96544,84.36768 240.20984,84.68359C239.38597,85.02804 238.73495,85.59332 238,86.15176C237.33609,86.6562 236.67598,87.06867 235.936,87.65625C235.25896,88.19386 234.71519,88.8939 234.33333,89.63092C233.9427,90.38487 233.36836,90.99856 232.85266,91.74075C232.39052,92.40588 231.77881,93.06668 231.58667,93.91492C231.41777,94.66051 232.8,94.63084 233.7,94.63092C234.60001,94.631 235.46667,94.85151 236.10001,95.20559C236.96126,95.6871 237.90816,95.51443 238.8,95.63542C239.62135,95.74685 240.26857,96.46715 241.10001,96.62025C241.98566,96.78335 242.77019,97.032 243.59984,97.50958C244.3891,97.96391 244.5,98.73092 244.5,99.63092L244.5,100.43092L244.5,101.33092L244.5,102.23092" id="svg_13" stroke-width="3" stroke="#000" fill="none"/>
  <path t="136748,136833,136866,136866,136866,136883,136883,136883,136899,136899,136916,136916,136933,136933,136949,136949,136966,136966,136966,136966,136983,136983,136983,137004,137004,137004,137016,137033,137060,137060,137099,137099,137116,137116,137133,137133,137156,137166,137183,137199,137199,137216,137216,137233,137233,137249,137249,137266,137266,137266,137283,137299,137299,137316,137316,137333,137333,137349,137349,137366,137366,137383,137400,137400,137416,137416,137433,137433,137449,137466,137466,137484,137499,137499,137532,137549,137566,137583,137599,137616,137616,137633,137649,137668,137684,137699,137716,137716,137733,137749,137766,137783,137783,137799,137816,137816,137833,137833,137852,137866" d="M121.5,2.63092C123.136,3.24159 123.81866,3.73628 124.54166,4.15175C125.18403,4.52088 126.18877,5.10379 126.704,5.45625C127.44402,5.9625 128.20581,6.77072 128.66667,7.51492C129.1628,8.31605 129.75108,8.78359 130.16667,9.63092C130.53432,10.38049 130.66667,11.46426 131.02083,12.17259C131.49998,13.13092 131.69345,13.68689 132.02083,14.65175C132.25163,15.33199 132.63252,16.31865 133.14816,17.11659C133.60898,17.82968 134.2567,18.60662 134.42799,19.42025C134.57811,20.13326 134.38156,21.18213 134.85716,21.93092C135.36671,22.73317 136.16966,23.23048 136.416,24.11625C136.61253,24.82296 136.71408,25.83339 137,26.61009C137.36916,27.6129 137.49774,28.32641 137.5,29.23092C137.50224,30.13092 137.38797,31.08413 137.78534,31.83225C138.18726,32.58894 138.85962,33.26151 139.14284,34.03542C139.49748,35.00451 139.49466,35.83088 139.5,36.83092C139.50427,37.63091 139.5,38.63092 139.5,39.42025C139.5,40.14559 139.5,41.25625 139.5,42.11492C139.5,42.97825 139.5,43.88275 139.5,44.60025C139.5,45.63625 139.5,46.38025 139.5,47.48809C139.5,48.24559 139.5,49.28358 139.5,49.97825C139.5,51.00558 139.5,51.95225 139.5,52.63092C139.5,53.74692 139.5,54.51492 139.5,55.45625C139.5,56.14692 139.47295,57.25672 139.50133,58.11492C139.52992,58.97958 139.99673,59.79963 140.33333,60.63092C140.63991,61.38811 140.5,62.33092 140.5,63.23092C140.5,64.13092 140.38351,65.03908 140.5045,65.93092C140.61592,66.75226 141.34586,67.39777 141.48933,68.23092C141.64209,69.11793 141.49934,70.03092 141.5,70.93092C141.50067,71.83092 141.82613,72.66757 142.216,73.43092C142.60054,74.18381 142.5,75.13092 142.5,76.04159C142.5,76.95226 142.5,77.80559 142.5,78.74558C142.5,79.63092 142.5,80.38808 142.5,81.28358L142.5,82.14692L142.5,83.11008L142.5,84.03092" id="svg_14" stroke-width="3" stroke="#000" fill="none"/>
  <path t="139202,139333,139366,139366,139366,139383,139384,139384,139384,139399,139399,139399,139399,139416,139436,139436,139436,139449,139449,139449,139466,139466,139483,139483,139499,139499,139516,139516,139533,139533,139533,139549,139549,139566,139566,139566,139583,139583,139583,139599,139599,139616,139616,139616,139633,139633,139649,139649,139666,139666,139666,139683,139683,139699,139716,139716,139716,139733,139733,139733,139749,139766,139766,139783,139783,139799,139816,139816,139833,139833,139849,139866,139866,139883,139899,139899,139916,139933,139933,139949,139949,139966,139966,139988,140004,140020,140033,140033,140049,140099,140116,140133,140133,140156,140199,140220,140220,140244" d="M186.5,-0.36908C186.5,1.30292 186.5,2.40292 186.5,3.19342C186.5,3.79709 186.49435,5.15231 186.5045,5.88359C186.51488,6.63103 186.51204,7.38375 186.66667,8.46425C186.81084,9.47163 187.01587,10.06425 187.216,10.85892C187.49706,11.97485 187.66312,12.96524 187.85266,13.64075C188.07059,14.41741 188.34625,15.4623 188.44733,16.17375C188.56816,17.02436 188.79117,18.0269 189.07466,18.79492C189.42488,19.74369 189.57069,20.51979 189.92534,21.46692C190.13936,22.03847 190.44717,23.02998 190.48933,23.86692C190.53616,24.79647 190.49989,25.57909 190.5,26.62109C190.50009,27.48825 190.52296,28.44499 190.78534,29.40025C190.99391,30.15966 191.18861,30.68901 191.59984,31.70942C191.96515,32.61586 192.29649,33.21447 192.44284,34.23542C192.56406,35.08107 192.5,36.05225 192.5,36.85625C192.5,37.67825 192.5,38.70925 192.5,39.58925C192.5,40.60975 192.5,41.44075 192.5,42.40025C192.5,43.15175 192.5,43.94825 192.5,44.94425C192.5,45.78425 192.5,46.74692 192.5,47.79758C192.5,48.47758 192.5,49.31758 192.5,50.31359C192.5,51.11008 192.5,51.86159 192.5,52.96959C192.5,53.95225 192.5,54.80559 192.5,55.74692C192.5,56.51492 192.5,57.45625 192.5,58.46425C192.5,59.25625 192.60764,60.12896 192.44284,60.97825C192.26321,61.90398 191.60254,62.62031 191.50133,63.43092C191.39764,64.26131 191.18135,65.10114 190.85266,65.97826C190.52174,66.86128 190.50441,67.7311 190.5,68.51625C190.49466,69.46696 190.47034,70.24892 190.14734,71.22642C189.89529,71.98919 189.52859,72.87247 189.5,73.83092C189.47316,74.73052 189.5,75.63092 189.5,76.43092C189.5,77.33092 189.5,78.23092 189.5,79.15176C189.5,80.11492 189.5,80.80559 189.5,81.87376C189.5,82.73092 189.5,83.63092 189.5,84.43092L189.5,85.33092" id="svg_15" stroke-width="3" stroke="#000" fill="none"/>
 </g>
</svg>