<svg width="499.99999999999994" height="339.94334277620396" xmlns="http://www.w3.org/2000/svg" xmlns:svg="http://www.w3.org/2000/svg" xmlns:xlink="http://www.w3.org/1999/xlink">
 <!-- Created with SVG-edit - http://svg-edit.googlecode.com/ -->
 <g display="inline" class="layer">
  <title>Layer 1</title>
  <path t="0,128,163,163,175,175,175,193,214,214,214,239,240,240,256,256,281,281,290,290,290,306,306,323,340,357,375,375,391,392,407,424,439,456,474,474,504,523,539,556,579,581,591,607,626,640,658,658,681,681,707,707,723,723,723,740,740,740,756,756,772,789,790,807,807,807,823,823,823,823,823,840,840,840,856,856,876,877,877,889,889,906,906,906,906,923,923,939,939,939,956,956,973,974,974,989,991,991,1006,1023,1023,1023,1039,1039,1039,1056,1056,1074,1074,1089,1089,1106,1107,1132,1139,1139,1156,1157,1173,1173,1194,1195,1213,1239,1239,1275,1276,1306,1306,1306,1306,1339,1339,1339,1356,1374,1389,1389,1407,1407,1424,1424,1439,1439,1456,1456,1479,1506,1523,1539,1539,1556,1575,1575,1590,1607,1608,1608,1623,1624,1624,1624,1639,1640,1657,1657,1658,1673,1673,1689,1689,1689,1706,1706,1706,1724,1724,1739,1739,1756,1756,1788,1789,1823,1823,1823,1840,1840,1840,1857,1857,1857,1873,1873,1873,1889,1889,1906,1928,1928,1928,1955,1955,1973,1973,1988,1988,2005,2006,2022,2022,2038,2056,2056,2072,2105,2122,2151,2151,2192,2222,2255,2279,2305,2305,2339,2378,2585,2640,2666,2706,2760,2773,2789,2816,2816,2840,2856,2856,2874,2888,2939,2940,2957,2957,2973,2993,3009,3056,3080,3080,3164,3190,3190,3208,3256,3280,3280,3288,3289,3307,3324,3339,3340,3357,3357,3374,3390,3390,3408,3409,3425,3439,3439,3439,3440,3456,3456,3472,3473,3473,3488,3489,3506,3524,3538,3539,3556,3556,3574,3574,3590,3590,3591,3608,3608,3624,3640,3656,3677,3677,3690,3707,3723,3744,3744,3757,3776,3790,3808,3825,3825,3841,3842,3856,3857,3873,3873,3894,3909,3928,3944,3974,3989,4024,4041,4041,4056,4057,4073,4073,4074,4088,4089,4124,4140,4140,4161,4161,4162,4173,4190,4206,4206,4224,4225,4241,4258,4258,4274,4291,4292,4308,4308,4323,4323,4339,4339,4357,4373,4390,4391,4408,4425,4441,4441,4464,4464,4464,4480,4480,4489,4506,4523,4523,4539,4539,4540,4557,4558,4573,4592,4608,4608,4688,4689,4739,4768,4791,4809,4825,4841,4888,4912,4923,5064,5090,5106,5107,5108,5124,5124,5125,5141,5141,5142,5157,5158,5176,5176,5209,5223,5224,5240,5241,5258,5258,5259,5273,5274,5274,5290,5291,5306,5323,5339,5340,5356,5373,5392,5392,5407,5424,5440,5512,5523,5541,5542,5556,5556,5573,5574,5574,5592,5592,5592,5606,5607,5607,5623,5623,5639,5640,5656,5674,5674,5696,5696,5706,5723,5739,5740,5756,5757,5757,5773,5773,5789,5806,5824,5856,5874,5876,5920,5941,5941,5956,5973,5989,6008,6056,6073,6090,6144,6168,6189,6207,6207,6224,6224,6224,6240,6240,6240,6241,6256,6257,6273,6273,6322,6323,6352,6373,6389,6406,6406,6424,6439,6440,6456,6473,6489,6506,6523,6544,6568,6568,6592,6616,6832,6873,6889,6957,7006,7088,7089,7112,7139,7157,7174,7192,7206,7207,7280,7281,7305,7323,7340,7367,7392,7407,7455,7472,7503,7504,7504,7527,7528,7572,7573,7589,7607,7632,7656,7672,7673,7688,7689,7707,7722,7739,7740,7756,7772,7772,7790,7806,7806,7807,7823,7840,7856,7856,7856,7872,7872,7889,7890,7890,7906,7907,7955,7956,7973,7973,7973,7989,8006,8023,8040,8056,8072,8088,8106,8122,8123,8139,8140,8188,8189,8207,8223,8240,8256,8272,8288,8306,8340,8340,8356,8373,8389,8390,8407,8407,8423,8439,8440,8488,8511,8527,8552,8553,8573,8704,8864,9000,9023,9024,9056,9071,9089,9106,9122,9141,9157,9173,9190,9207,9223,9239,9240,9271,9272,9289,9290,9306,9322,9375,9376,9406,9406,9439,9456,9457,9472,9472,9489,9506,9507,9523,9539,9556,9572,9573,9589,9607,9608,9623,9624,9639,9655,9672,9695,9696,9722,9738,9739,9759,9760,9775,9776,9791,9807,9808,9822,9840,9872,9888,9906,9907,9922,9940,9956,10006,10007,10023,10024,10072,10088,10106,10192,10193,10222,10240,10256,10287,10306,10307,10357,10389,10416,10440,10440,10456,10473,10473,10490,10506,10522,10539,10557,10557,10572,10590,10607,10623,10624,10639,10640,10695,10722,10743,10805,10823,10840,10855,10872,10872,10889,10907,10922,10952,10953,10992,11007,11023,11023,11039,11040,11056,11073,11095,11121,11171,11191,11192,11206,11223,11239,11240,11256,11257,11272,11273,11289,11306,11307,11322,11338,11356,11357,11373,11373,11389,11390,11391,11407,11423,11423,11439,11440,11456,11457,11457,11472,11472,11473,11489,11506,11507,11522,11523,11538,11539,11556,11571,11591,11608,11623,11624,11656,11657,11673,11674,11691,11692,11723,11724,11739,11739,11756,11757,11773,11789,11807,11807,11822,11839,11856,11857,11857,11880,11881,11906,11923,11939,11956,11972,11972,11989,12006,12023,12039,12055,12056,12072,12073,12097,12112,12147,12215" d="M161.01137,128.56258C162.8367,128.56258 163.8447,128.56258 164.6727,128.56258C165.55403,128.56258 166.51138,128.55739 167.24336,128.56258C168.19711,128.56934 169.03191,129.05232 169.42203,129.85991C169.66006,130.35265 170.12753,131.43414 170.66853,132.09642C171.17734,132.71928 171.97786,133.38603 172.8007,133.47992C173.84132,133.59865 174.5442,133.0273 175.17802,132.22925C175.69154,131.58267 176.08328,130.75027 176.8447,130.06258C177.4236,129.53972 178.33331,129.75861 179.21004,129.56125C180.02269,129.37831 180.41524,128.39366 181.1967,127.99858C181.95816,127.61361 182.81023,127.58127 183.71136,127.56258C184.61188,127.54391 185.36176,127.04522 186.21136,126.64658C187.07179,126.24287 187.6575,125.79829 188.41136,125.17325C189.06866,124.62827 190.01137,124.56258 190.77303,124.56258C191.66403,124.56258 192.63477,124.98766 193.5647,124.52658C194.27188,124.17594 194.8127,123.56325 195.64737,123.56258C196.66853,123.56178 197.41586,123.56258 198.40869,123.56258C199.13936,123.56258 200.1861,123.50575 200.98337,123.64791C201.79295,123.79227 202.55627,124.05328 203.3287,124.44925C204.36261,124.97926 204.94824,125.60638 205.61003,125.99325C206.55602,126.54625 207.36418,126.43273 208.2542,126.56708C209.24307,126.71635 209.80687,127.30394 210.55453,127.66275C211.27762,128.00977 212.18352,128.30544 213.17802,128.72925C213.89851,129.03629 214.62756,129.38477 215.35004,129.73724C216.04352,130.07558 217.24069,130.67725 217.9697,131.04175C218.6087,131.36125 219.41133,131.76263 220.21136,132.16258C221.21133,132.66248 221.78867,133.01459 222.61136,133.27725C223.59457,133.59117 224.49281,133.60904 225.43269,134.00542C225.98061,134.2365 226.78445,134.75049 227.32736,135.07991C228.32182,135.68332 229.22534,136.11946 229.8447,136.72925C230.45224,137.32739 230.83229,138.14961 231.49803,138.67725C232.20027,139.23381 233.17174,139.5799 233.96404,139.85808C234.77994,140.14455 235.84055,140.42715 236.5497,140.50542C237.34659,140.59335 238.40807,140.49132 239.33304,140.78409C240.07642,141.01938 240.69255,141.37791 241.69536,141.76259C242.5071,142.07397 243.07042,142.23361 244.08969,142.66258C244.98065,143.03755 245.8447,143.56258 246.51137,144.06258C247.17802,144.56258 247.80333,145.03712 248.8447,145.39592C249.58215,145.65001 250.36646,146.11424 251.17802,146.39592C251.97726,146.67331 253.08366,146.31602 253.81003,146.73325C254.60333,147.18892 254.81909,148.18382 255.8367,148.49059C256.50131,148.69093 257.57697,148.50258 258.21271,149.13058C258.7291,149.6407 259.49176,150.4214 260.25803,150.57724C261.17181,150.76308 261.97159,150.90974 262.82202,151.17325C263.41489,151.35695 264.61658,151.73785 265.44885,152.06258C266.16391,152.34157 266.81845,153.06699 267.5322,153.56258C268.23779,154.05252 268.87729,154.41138 269.4007,155.39857C269.69229,155.94853 269.57581,157.16527 270.17838,157.79108C270.83441,158.47243 271.75089,157.86972 272.86819,157.68425C273.63699,157.55663 274.02209,158.36397 274.01135,159.26259C274.00156,160.08362 273.70956,161.03937 273.43671,161.73724C273.07272,162.66823 273.19077,163.60284 272.92603,164.36258C272.64529,165.16821 271.81168,165.69919 271.18604,166.41992C270.63367,167.05627 270.15491,167.88614 269.8967,168.52925C269.49576,169.52788 269.40979,170.23943 268.91119,171.29825C268.55496,172.05475 267.83618,172.72096 267.36319,173.21524C266.70923,173.89865 266.20459,174.69041 265.90604,175.37242C265.47888,176.34824 265.12531,176.80504 264.71671,177.61441C264.20926,178.61961 264.06531,179.5482 263.92871,180.16125C263.70361,181.17162 263.32883,181.98793 262.52737,182.67725C261.892,183.22372 261.009,183.63477 260.42203,184.16258C259.78406,184.73625 259.27206,185.35728 258.81003,186.33191C258.46021,187.06979 258.32526,187.65678 257.68985,188.64108C257.22501,189.36118 256.61603,189.96725 255.8112,190.76242C255.20749,191.35887 254.82152,191.79593 253.8447,192.39592C253.09468,192.8566 252.28317,193.15331 251.3447,193.39592C250.58116,193.59331 250.01257,194.24866 249.56853,194.88391C249.05782,195.61455 248.5246,196.11063 247.6367,196.92657C247.14366,197.37965 246.35924,197.87212 245.60686,198.26259C244.61914,198.77519 243.99646,199.0067 243.0327,199.66258C242.48946,200.03227 241.66705,200.62679 241.0322,201.06258C240.22218,201.61861 239.96318,202.68065 239.4007,203.12659C238.63161,203.73631 237.56682,203.46713 236.81137,203.84659C235.94417,204.28218 235.45041,204.76886 234.79002,205.44125C234.18338,206.05891 234.01137,206.76259 234.01137,207.66258C234.01137,208.56258 234.01137,209.36258 234.01137,210.26259C234.01137,211.16258 233.72227,212.11455 234.02203,212.95192C234.28578,213.68866 235.32257,213.95044 235.8447,214.72925C236.31793,215.43513 236.16566,216.47884 237.01137,216.56258C237.80748,216.6414 238.77022,216.62259 239.31137,217.26791C239.87814,217.9438 240.44423,218.72009 241.1212,219.20992C241.78986,219.69373 242.6153,219.51668 243.60237,219.56708C244.4435,219.61003 244.94188,220.4913 245.5322,221.04175C246.26649,221.72644 247.32732,221.36543 248.01137,221.89592C248.66988,222.4066 249.16682,223.21498 250.01137,223.72925C250.62445,224.10257 251.08609,224.96552 251.00687,225.86708C250.91585,226.90279 250.45593,227.5425 250.17802,228.39592C249.90256,229.24182 249.57669,230.23613 248.70686,230.50542C247.88145,230.76096 247.01137,230.56258 246.03287,230.56258C245.21269,230.56258 244.37537,230.56258 243.3542,230.56258C242.60686,230.56258 241.61403,230.56258 240.88336,230.56258C239.85269,230.56258 238.90463,230.56752 238.24803,230.55807C237.51126,230.54749 236.36015,230.69792 235.43404,230.27725C234.66263,229.92685 233.9413,229.26476 233.21536,228.92657C232.69044,228.68204 231.67682,228.10707 231.07387,227.58342C230.22061,226.84241 229.71719,226.07251 228.8447,225.72925C228.21782,225.48262 227.15445,225.4371 226.51137,225.04175C225.65511,224.51534 224.99265,224.05841 224.01137,223.56258C223.41264,223.26004 222.61136,222.86258 221.81169,222.46275C221.05302,222.08342 220.17284,221.55006 219.49052,221.06258C218.75951,220.54028 217.88655,220.3698 217.21136,219.76125C216.58734,219.19881 215.81439,218.6053 214.91136,218.56258C214.01237,218.52005 213.21136,218.56258 212.31137,218.56258C211.41136,218.56258 210.49829,218.42004 209.61136,218.57324C208.77663,218.71742 208.15749,219.41687 207.3542,219.85808C206.63188,220.25482 205.60448,220.43146 204.84737,220.58792C203.88252,220.78731 203.24406,221.39879 202.41136,221.55191C201.52567,221.71478 200.44749,221.85718 200.01587,222.61525C199.59225,223.35927 198.74458,223.23076 198.13269,223.78409C197.43332,224.41652 197.25899,225.23332 196.3542,225.51892C195.61374,225.75266 194.78043,226.1987 194.22203,226.84924C193.63438,227.53386 193.10695,228.49263 192.5322,229.00008C191.88306,229.5732 191.01933,229.90202 190.49052,230.58342C189.85419,231.40338 189.26865,231.69193 188.5807,232.36125C187.95164,232.9733 188.13612,234.08542 187.44203,234.76259C186.91632,235.2755 186.0101,235.636 185.42203,236.16258C184.68124,236.8259 183.9754,237.3015 183.21136,237.64658C182.44321,237.99353 181.66708,238.62682 181.0322,239.06258C180.22205,239.61864 179.91824,240.46584 179.13936,240.95192C178.46083,241.37537 177.34117,241.26553 176.58203,241.64658C175.76962,242.05435 175.24971,242.56032 174.3587,242.56258C173.49536,242.56476 172.52562,242.4623 171.60069,242.57324C170.67247,242.68459 170.01482,243.14502 169.01137,243.39592C168.22498,243.59254 167.41136,243.5619 166.41586,243.56258C165.66853,243.56308 164.64737,243.56258 163.70686,243.56258C162.8447,243.56258 161.99051,243.55605 161.01137,243.56258C160.21132,243.56792 159.39464,243.59203 158.41586,243.91525C157.65306,244.16716 156.76996,244.53398 155.91136,244.56258C155.01187,244.59253 154.24173,244.58435 153.3587,244.91525C152.48158,245.24394 151.61421,245.8064 150.71587,245.55807C149.94896,245.34608 150.00041,244.26701 150.01137,243.39325C150.02179,242.56238 150.36275,241.61995 151.21136,241.56258C152.10915,241.50188 153.25232,240.93295 152.5647,240.60925C151.75735,240.2292 150.96143,241.08922 150.32469,241.44925C149.31233,242.02167 148.79868,242.42255 147.90686,242.85275C147.03192,243.27481 146.12364,243.48512 145.28337,243.54124C144.34654,243.60382 143.5322,243.56258 142.52736,243.56258C141.8367,243.56258 140.76404,243.56258 139.8447,243.56258C139.01137,243.56258 138.1723,243.63026 137.35004,243.52658C136.4563,243.41389 135.74446,243.14244 134.95953,242.85808C133.92511,242.48332 133.03036,242.06633 132.4127,241.76259C131.41737,241.27312 130.77489,240.75728 129.84337,240.56392C129.00804,240.39053 128.04773,240.31421 127.42204,239.98792C126.53083,239.52316 125.68729,239.23068 125.01137,238.56258C124.42571,237.9837 124.02597,237.18231 123.51137,236.56258C123.01146,235.96054 122.81995,234.93272 123.37303,234.26707C123.99174,233.52245 125.0112,233.573 125.9902,233.56258C126.67266,233.55531 127.7807,233.56258 128.5322,233.56258C129.3287,233.56258 130.3287,233.56258 131.0322,233.56258C131.7807,233.56258 132.97803,233.56258 133.65137,233.56258C134.64886,233.56258 135.74702,233.56258 136.4697,233.56258C137.49536,233.56258 138.18604,233.56258 139.2587,233.56258C140.17802,233.56258 141.01137,233.56258 141.98987,233.56258C142.70686,233.56258 143.61136,233.56258 144.5322,233.56258C145.49803,233.56258 146.25803,233.56258 147.17802,233.56258C147.95953,233.56258 148.75003,233.56258 149.86836,233.56258C150.70236,233.56258 151.61137,233.5679 152.51137,233.56258C153.41141,233.55724 154.44273,233.29805 154.8447,232.56258C155.24675,231.82693 155.63104,231.08508 155.92737,230.07991C156.11542,229.44202 156.59207,228.87308 157.4007,228.55191C158.14023,228.25818 158.40771,227.11432 159.11119,226.68391C159.88802,226.20865 160.01352,225.46259 160.01137,224.56258C160.00911,223.61974 159.24915,223.58989 158.3497,223.55807C157.54846,223.52972 156.5865,223.35298 155.76469,223.12659C155.16225,222.96062 153.84599,222.55786 153.13004,222.36391C152.40863,222.16849 151.71622,221.96262 150.51137,221.72925C149.71297,221.57462 148.68987,221.56258 147.99052,221.56258C147.01137,221.56258 145.98219,222.02798 145.25436,221.34108C144.59157,220.71555 144.55173,219.87772 144.13286,219.11975C143.76974,218.46268 144.16069,217.2653 143.79002,216.46259C143.48154,215.79451 143.01671,214.96263 143.01137,214.06258C143.00604,213.1626 143.01137,212.26259 143.01137,211.36258C143.01137,210.46259 143.01137,209.56258 143.01137,208.76259C143.01137,207.86258 143.01137,206.96259 143.01137,206.06258C143.01137,205.16258 143.01137,204.26707 143.01137,203.34108C143.01137,202.46259 143.04857,201.56171 143.01137,200.76259C142.96864,199.84494 142.06065,199.64684 141.44736,198.95192C140.8586,198.28481 140.61713,197.42801 140.17802,196.56258C139.83536,195.88719 139.01137,195.56258 138.21136,195.56258C137.31137,195.56258 136.33382,195.22182 135.5322,195.58342C134.79944,195.91396 134.60805,197.0027 133.8127,197.47858C133.12085,197.89252 132.53734,198.45547 131.69003,198.78441C130.98213,199.05923 130.40952,199.479 129.76852,200.56342C129.36537,201.24545 129.12289,202.28809 128.31137,202.54909C127.45449,202.82469 126.51137,202.56033 125.61137,202.56258C124.71136,202.56483 123.96029,202.87144 123.2542,203.20992C122.40385,203.61752 121.49536,203.5619 120.5322,203.56258C119.6007,203.56322 118.69003,203.56258 117.8367,203.56258C116.8967,203.56258 116.01137,203.56258 115.21136,203.56258C114.33936,203.56258 113.46745,203.59717 112.5322,203.54175C111.86276,203.50208 111.01708,202.81534 110.3287,202.53725C109.293,202.11884 108.49731,202.03583 107.69403,201.84659C106.70395,201.61334 106.01525,201.64508 105.01137,201.39592C104.1921,201.19258 103.40762,200.76866 102.6127,200.36258C101.84367,199.96973 101.00918,199.48959 100.38603,198.92657C99.66135,198.27182 99.24351,197.67667 98.49536,197.13191C97.70064,196.55324 96.44246,196.81723 96.04736,196.12659C95.61797,195.37598 96.28548,194.29214 95.92603,193.47858C95.5877,192.71281 95.04527,192.04135 95.01003,191.07858C94.98474,190.3875 94.62629,189.49524 94.29536,188.67857C93.92978,187.77638 94.0246,187.04651 94.01137,185.97325C94.0004,185.08324 93.60773,184.3696 92.92737,183.84659C92.31609,183.37669 91.31136,183.56258 90.36853,183.56258C89.44203,183.56258 88.65953,183.56258 87.64736,183.56258C86.81003,183.56258 85.8447,183.56258 85.01137,183.56258C84.17803,183.56258 83.31586,183.56258 82.37537,183.56258C81.5287,183.56258 80.7212,183.56258 79.6542,183.56258C78.81136,183.56258 77.91136,183.56258 77.01137,183.56258C76.21136,183.56258 75.31136,183.56258 74.41136,183.56258C73.44736,183.56258 72.83086,184.02051 72.01137,184.39592C71.26868,184.73615 70.17803,184.56258 69.4007,184.56258C68.51137,184.56258 67.56897,184.8304 66.71587,184.55807C65.89536,184.29616 65.40179,183.56052 64.95869,182.85808C64.47177,182.08618 64.13084,181.25636 64.01003,180.36258C63.90061,179.55304 63.25097,178.83496 63.06853,177.90541C62.92425,177.17026 63.01136,176.16391 63.01136,175.39857C63.01136,174.44925 63.01136,173.50992 63.01136,172.56258C63.01136,171.80542 63.26694,170.84087 62.92603,170.13191C62.47128,169.18619 61.88392,168.53146 61.4007,167.96259C60.76463,167.21376 60.3448,166.66187 60.02603,165.74791C59.72295,164.87892 58.79201,164.66096 58.0727,164.13725C57.41138,163.65576 56.56498,163.30223 56.1327,162.46259C55.79878,161.81401 55.36107,160.99893 54.8127,160.36125C54.25404,159.71162 54.03047,158.73788 54.0127,158.04659C53.98512,156.9736 54.14233,156.09863 54.35503,155.26259C54.55359,154.48216 53.58015,154.16162 53.1257,153.25809C52.73491,152.48111 53.01136,151.56258 53.01136,150.58391C53.01136,149.80992 53.01136,148.90991 53.01136,148.04659C53.01136,147.06258 53.01197,146.24124 53.01136,145.38791C53.0107,144.44925 52.38965,143.90434 52.01136,143.27725C51.5389,142.49405 51.76923,141.6088 51.36403,140.86258C50.95074,140.10146 51.01136,139.16258 51.01136,138.25809C51.01136,137.39592 51.01136,136.56258 51.01136,135.58408C51.01136,134.76392 50.59867,133.73915 51.06853,132.91975C51.46296,132.23192 52.22233,131.59042 52.58603,130.96259C53.03201,130.19272 53.01136,129.26259 53.01136,128.36258C53.01136,127.46258 53.01136,126.56258 53.01136,125.76258C53.01136,124.86258 53.04161,123.95979 53.4367,123.15192C53.88354,122.23822 53.69893,121.38594 54.36853,120.67242C55.00515,119.99404 55.78304,119.72934 56.71136,119.56708C57.59882,119.41196 58.35711,119.03516 59.21136,118.64658C59.97448,118.29946 60.66397,117.76241 61.51136,117.58341C62.39217,117.39736 63.31586,117.56258 64.3327,117.56258C65.01137,117.56258 65.98987,117.56258 66.81003,117.56258C67.71136,117.56258 68.61137,117.56258 69.57536,117.56258C70.44736,117.56258 71.31136,117.56258 72.21136,117.56258C73.11137,117.56258 74.01137,117.56258 74.81136,117.56258C75.71136,117.56258 76.61137,117.56258 77.5322,117.56258C78.49403,117.56258 79.30153,117.56258 80.2967,117.56258C81.11137,117.56258 82.01137,117.56258 82.8967,117.56258C83.8367,117.56258 84.52737,117.56258 85.6007,117.56258C86.41136,117.56258 87.31136,117.56258 88.21136,117.56258C89.11137,117.56258 90.01137,117.56258 90.81136,117.56258C91.71136,117.56258 92.64736,117.56258 93.4967,117.56258C94.41586,117.56258 95.41003,117.56258 96.17536,117.56258C97.12737,117.56258 97.89536,117.56258 98.8367,117.56258C99.8447,117.56258 100.6007,117.56258 101.51137,117.56258C102.42204,117.56258 103.33286,117.56266 104.22203,117.56258C105.21136,117.5625 106.02757,117.62704 107.01137,117.39591C107.81998,117.20594 108.50233,116.74063 109.38603,116.59858C110.32137,116.44823 111.18604,116.56258 112.1287,116.56258C112.8212,116.56258 113.78203,116.56258 114.55303,116.56258C115.41403,116.56258 116.6087,116.56258 117.19003,116.56258C118.2407,116.56258 119.20153,116.56258 120.17803,116.56258C121.01137,116.56258 121.8447,116.56258 122.76403,116.56258C123.66403,116.56258 124.3587,116.56258 125.37537,116.56258C126.31136,116.56258 127.21513,116.48046 128.11136,116.56274C129.02281,116.64642 129.60661,117.26194 130.29803,117.84658C130.86259,118.32395 131.85545,118.49078 132.6127,118.64658C133.62138,118.85412 134.33656,119.26984 135.2632,119.50991C135.97026,119.69309 137.01503,119.92088 137.7607,120.13725C138.67604,120.40285 139.59003,120.55185 140.51137,120.56258C141.42203,120.57319 142.36806,120.71588 142.99052,121.08341C143.82562,121.57649 144.2272,122.50171 145.17802,122.56258C145.84599,122.60535 146.6127,122.56258 147.8007,122.56258C148.52603,122.56258 149.6763,122.49464 149.95419,123.26791C150.27989,124.1742 150.35867,124.92976 151.01137,125.56258C151.60257,126.13579 152.56903,126.50056 153.0367,127.17325C153.5392,127.89605 154.27135,128.3353 155.01137,128.72925C155.68961,129.09032 156.13383,130.10495 156.64737,130.70125C157.24973,131.40067 158.18604,131.54124 159.12469,131.56392L159.92603,131.84659" id="svg_1" stroke-width="3" stroke="#000" fill="none"/>
  <path t="12867,12942,12974,12990,12990,13006,13023,13056,13080,13089,13120,13144,13156,13173,13192,13206,13224,13248,13248,13265,13273,13290,13340,13369,13424,13440,13458,13482,13513,13537,13558,13573,13590,13607,13623,13640,13640,13657,13657,13672,13690,13690,13706,13723,13723,13740,13740,13756,13756,13777,13791,13808,13826,13864,13873,13897,13920,13944,13968,13990,14008,14058,14096,14108,14130,14140,14156,14176,14222,14223,14223,14241,14241,14258,14274,14289,14328,14328,14344,14360,14384,14408,14423,14448,14681,14707,14722,14817,14841,14857,14858,14873,14889,14907,14923,14940,14940,14956,14956,14972,14989,15006,15023,15040,15040,15056,15106,15106,15130,15130,15145,15160,15176,15225" d="M74.01137,147.56258C73.01137,147.58342 72.4007,148.17325 71.81136,148.76259C71.21137,149.36258 70.56819,150.08488 70.06403,150.85808C69.60703,151.55894 68.86711,151.93825 68.01137,152.39592C67.21992,152.8192 66.77364,153.35527 65.91153,153.56274C65.0714,153.76492 64.60972,154.27501 63.71587,154.56708C62.95101,154.81699 62.74352,155.77808 62.21003,156.36258C61.55315,157.08228 61.12285,157.90355 60.58603,158.53725C60.08326,159.13075 60.01136,159.96259 60.01136,160.86258C60.01136,161.76259 59.61664,162.94547 60.2967,163.47725C61.01931,164.04231 62.10704,163.38365 62.8127,163.64792C63.67996,163.97272 63.92601,165.14417 64.5322,165.56258C65.23945,166.05075 66.16959,166.4594 67.0322,166.54175C68.00716,166.63483 68.79003,166.56192 69.67803,166.56258C70.5807,166.56325 71.40298,166.5195 72.2542,166.91525C73.16619,167.33926 73.8967,167.5619 74.84737,167.56258C75.6127,167.56311 76.60687,167.55864 77.35419,167.56258C78.36475,167.56792 78.88528,168.28816 79.62203,168.55191C80.4594,168.85167 81.4462,168.80545 82.30686,168.55807C83.07475,168.33737 83.77006,167.62115 84.00687,166.85808C84.26189,166.03629 84.86562,165.51862 85.01003,164.76125C85.18111,163.86407 85.01137,162.95192 85.01137,162.06258C85.01137,161.16258 85.20954,160.24016 85.01003,159.36391C84.82468,158.54982 83.82346,158.2547 83.18604,157.70125C82.64517,157.23163 81.79528,156.5264 81.37303,155.86708C80.84245,155.0386 80.39283,154.29514 80.0127,153.47858C79.61966,152.63429 79.29388,152.16608 78.5322,151.56258C77.90852,151.06842 78.30045,150.0106 78.00069,149.17325C77.73695,148.43649 76.60438,147.84312 77.04736,146.99858C77.432,146.26527 78.68552,146.12856 78.9542,145.26259C79.22147,144.40118 79.25349,143.6088 79.6587,142.86258C80.07199,142.10146 80.01137,141.16258 80.01137,140.26259C80.01137,139.36125 79.94971,138.39209 80.0322,137.56258C80.11591,136.72073 80.62183,135.98994 80.98603,135.16258C81.33129,134.37823 82.27073,134.08592 82.8447,133.39592C83.38818,132.74257 82.66729,131.66002 83.09669,130.84792C83.55043,129.98979 84.00095,129.54192 84.01137,128.58408C84.02029,127.76396 84.01137,126.86258 84.01137,125.96258L84.01137,125.06258L84.01137,124.08341" id="svg_2" stroke-width="3" stroke="#000" fill="none"/>
  <path t="15883,16023,16023,16041,16057,16057,16057,16073,16091,16107,16124,16140,16156,16174,16190,16207,16208,16225,16240,16256,16280,16280,16312,16336,16360,16360,16408" d="M70.01137,142.56258C71.01137,141.56258 70.93813,140.75647 71.04736,139.89058C71.15878,139.0074 71.46352,138.31947 71.72736,137.33058C71.98007,136.38344 72.01137,135.46259 72.01137,134.56258C72.01137,133.72925 72.0579,132.85207 72.51137,132.06258C72.9166,131.35707 73.01137,130.46259 73.01137,129.56258C73.01137,128.76259 73.01137,127.86258 73.01137,126.96258C73.01137,126.04175 73.01137,125.07992 73.01137,124.27242C73.01137,123.27724 73.01137,122.46258 73.01137,121.56258L73.01137,120.76258L73.01137,119.86258" id="svg_3" stroke-width="3" stroke="#000" fill="none"/>
  <path t="17208,17272,17290,17306,17306,17323,17323,17351,17352,17406,17406,17424,17440,17455,17472,17472,17472,17489,17506,17523,17584,17606,17606,17664,17679,17691,17711,17722,17743,17755,17773,17774,17832" d="M73.01137,155.56258C71.1967,155.57324 70.3656,155.88062 69.67803,156.56258C69.07446,157.16121 68.17564,157.55936 67.6367,157.96259C66.84113,158.55783 66.01247,158.76259 65.3447,159.56258C64.8503,160.15485 65.00771,161.18312 65.4367,161.96259C65.88933,162.785 66.50493,163.4435 67.29803,163.52658C68.00734,163.60089 69.29463,163.39828 69.95869,163.91525C70.57626,164.39603 71.368,164.42604 72.21136,164.84659C72.873,165.17651 73.84448,165.41945 73.99053,164.56258C74.14016,163.68471 74.69782,163.12134 74.9542,162.26259C75.21219,161.39845 75.01137,160.46259 75.01137,159.56258L75.01137,158.76259L74.92603,157.84792" id="svg_4" stroke-width="3" stroke="#000" fill="none"/>
  <path t="18192,18273,18292,18308,18308,18324,18340,18341,18360,18385,18409,18424,18425,18473,18473,18504,18505,18536,18624,18657" d="M77.01137,167.56258C77.01137,169.26259 77.03808,170.19904 77.01003,171.04659C76.98142,171.91124 76.67313,172.82191 76.01137,173.56258C75.46272,174.17665 75.03071,174.96207 75.01137,175.86258C74.99204,176.76239 74.6968,177.58946 73.99053,178.06258C73.19791,178.59354 72.51183,179.04219 71.91153,179.66258C71.34881,180.24414 70.98603,181.12659 70.29536,181.56125L69.9542,182.20992" id="svg_5" stroke-width="3" stroke="#000" fill="none"/>
  <path t="19281,19323,19340,19341,19357,19357,19373,19373,19373,19390,19391,19407,19407,19424,19424,19441,19441,19456,19456,19456,19473,19473,19490,19506,19506,19522,19523,19523,19523,19539,19539,19556,19573,19589,19606,19623,19623,19639,19640,19640,19656,19656,19656,19679,19680,19695,19696,19719,19739,19755,19773,19789,19789,19806,19822,19822,19840,19857,19873,19889,19889,19905,19943,19984,20005,20023,20040,20040,20041,20055,20055,20055,20055,20055,20072,20072,20072,20072,20089,20089,20089,20089,20089,20105,20105,20122,20122,20140,20159,20160,20183,20184,20205,20222,20222,20239,20239,20256,20272,20272,20289,20289,20289,20305,20322,20351,20372,20388,20388,20405,20405,20422,20422,20423,20423,20423,20438,20438,20438,20439,20456,20456,20489,20489,20523,20523,20540,20540,20555,20556,20573,20573,20589,20589,20606,20606,20606,20622,20622,20623,20640,20640,20656,20656,20673,20673,20689,20689,20728,20774,20801,20823,20841,20858,20858,20859,20874,20874,20875,20890,20890,20890,20906,20923,20924,20940,20940,20956,20956,20973,20990,20991,21006,21006,21023,21023,21040,21040,21057,21058,21072,21072,21072,21073,21089,21089,21105,21105,21122,21123,21139,21155,21173,21190,21205,21205,21222,21239,21240,21256,21256,21272,21290,21306,21322,21340,21340,21356,21356,21372,21389,21389,21390,21405,21405,21406,21422,21422,21439,21440,21440,21456,21456,21456,21456,21456,21472,21473,21473,21473,21489,21489,21490,21490,21490,21506,21506,21506,21507,21523,21523,21540,21540,21555,21555,21572,21572,21573,21589,21589,21605,21605,21606,21622,21623,21623,21640,21655,21656,21656,21672,21673,21689,21689,21690,21706,21706,21707,21723,21743,21744,21756,21757,21773,21773,21790,21805,21806,21823,21824,21840,21841,21856,21857,21857,21857,21873,21873,21889,21889,21890,21906,21906,21923,21923,21939,21939,21940,21956,21956,21973,21989,22005,22005,22039,22055,22055,22080,22124,22141,22156,22173,22200" d="M97.01137,171.56258C98.01137,170.54175 98.21452,169.57251 98.62203,168.93724C99.18513,168.05943 99.58118,167.54553 99.8447,166.39592C100.02016,165.63045 99.76102,164.74913 100.2967,163.81458C100.6554,163.18878 101.30812,162.49867 101.61137,161.80258C102.00715,160.89407 102.61015,160.13034 102.89003,159.24092C103.1092,158.54443 103.16239,157.39203 103.36403,156.61441C103.57012,155.81961 103.90855,154.90506 103.99053,154.10425C104.08755,153.15665 104.04723,152.23898 103.99053,151.52092C103.90123,150.39003 103.65755,149.61021 103.51137,149.06258C103.29366,148.24704 103.0442,147.02548 103.01586,146.22424C102.98389,145.3203 102.68598,144.0829 103.36853,143.61975C104.06866,143.14467 105.17803,143.56258 105.84737,143.56258C107.01137,143.56258 107.82504,143.58316 108.46853,143.50542C109.43952,143.38812 110.23209,143.11945 111.0587,142.91525C112.08447,142.66187 112.96951,142.573 113.8447,142.56258C114.7068,142.55231 115.73699,142.12138 116.57536,142.59859C117.26685,142.99219 116.96942,144.10281 117.29536,145.04659C117.53998,145.75487 117.96865,146.67416 118.01137,147.56258C118.04773,148.31888 117.64549,149.34605 118.17803,150.22925C118.60833,150.94289 118.97417,151.56345 119.01137,152.36258C119.05408,153.28023 119.97536,153.56258 120.8127,153.56258C121.71136,153.56258 122.53309,153.60162 123.50069,153.55992C124.33215,153.52408 124.87713,153.42136 125.87553,153.11975C126.68137,152.87631 127.53283,152.54343 128.41054,152.21075C128.84502,152.04608 130.07434,151.59889 131.15002,151.17725C131.82985,150.91077 132.51445,150.62875 133.53236,150.01974C134.27074,149.57799 134.97458,149.04797 135.31403,148.77725C135.96628,148.25705 136.98215,147.26889 137.44887,146.60425C138.04666,145.75298 138.46277,145.01401 139.31137,144.61525C140.07684,144.25555 140.73199,143.75809 141.66403,143.62425C142.51895,143.50148 143.52499,143.90343 143.92737,144.76392C144.22571,145.40195 144.47568,146.37277 144.72737,147.07858C145.06465,148.0244 145.41161,148.84462 145.8127,149.53325C146.26137,150.30356 146.47212,151.07993 146.81137,151.79459C147.34099,152.91026 147.96184,153.53398 148.86203,153.56258C149.76823,153.59135 150.58203,153.56258 151.42036,153.56258C152.41403,153.56258 153.05302,153.56122 154.3447,153.56258C154.98203,153.56325 155.68382,153.56229 156.43269,153.59859C157.21468,153.63649 158.41275,153.77396 159.20236,153.91525C159.9715,154.05289 161.03551,154.31168 161.9682,154.44109C162.94467,154.57657 163.94363,154.23363 164.7247,154.64792C165.58298,155.10316 166.08839,155.39223 166.98987,155.78409C167.7827,156.12872 168.35323,156.83353 168.81137,157.44792C169.35965,158.18318 169.74336,158.94696 169.92603,159.96391C170.07417,160.78871 169.99857,161.72943 170.01587,162.51524C170.03398,163.33765 170.14702,164.40511 170.43669,165.32658C170.63744,165.96516 170.95955,166.95871 171.0007,167.72658C171.05891,168.8129 171.01137,169.53192 171.01137,170.56792C171.01137,171.31192 171.01137,172.41942 171.01137,173.19641C171.01137,174.08342 171.0107,174.96259 171.01137,175.86258C171.01204,176.76125 171.37224,177.52066 172.33319,177.56274C173.07344,177.59517 173.78754,177.62431 174.97937,177.84659C175.66469,177.9744 176.3535,178.17705 177.67802,178.39592C178.48888,178.52991 179.15399,178.55724 180.12737,178.56258C181.17801,178.56833 181.88387,178.73827 182.8447,178.39592C183.67058,178.10165 184.28708,177.42104 184.72603,176.76259C185.28476,175.92447 185.86794,175.37228 186.51137,175.06258C187.51877,174.57767 187.9933,173.88753 188.57936,173.07858C188.97418,172.5336 189.81897,171.77112 189.99004,170.93724C190.16321,170.09312 190.02193,169.26799 190.51137,168.39592C190.98134,167.55852 191.52539,167.09521 191.95337,166.57242C192.7859,165.55545 193.07695,164.83473 193.71671,164.25809C194.40771,163.63525 194.95139,162.91522 195.0087,162.04659C195.06453,161.20041 195.01137,160.26259 195.01137,159.36258C195.01137,158.46259 194.82562,157.52008 195.09669,156.76259C195.41916,155.86148 196.12624,155.22273 196.8967,154.84792C197.77121,154.42247 198.52736,154.56325 199.60069,154.56258C200.51137,154.56201 201.65919,154.38309 201.99052,155.10425C202.38405,155.96077 201.87125,156.80273 202.29669,157.67725C202.67152,158.44772 203.53839,158.92894 203.8447,159.89592C204.05164,160.54922 204.00603,161.34787 204.01137,162.39592C204.0161,163.32657 204.01137,164.16125 204.01137,165.16708C204.01137,166.01974 204.04706,166.98643 203.97937,167.80925C203.92978,168.412 203.53835,169.74321 203.15804,170.44525C202.75285,171.19321 202.49315,171.54352 202.01219,172.25275C201.34831,173.2317 200.81102,174.0585 200.3607,174.84924C200.03931,175.41362 199.47249,176.42891 199.00153,177.22058C198.75212,177.63983 198.23755,178.49414 197.69403,179.31058C197.18863,180.06975 196.71973,180.72385 196.05302,181.47925C195.51511,182.08875 194.80199,182.85214 194.12737,183.36125C193.39185,183.91634 192.59439,184.23874 191.81169,184.66292C191.04002,185.08112 190.2919,185.88062 190.1212,186.56792C189.93938,187.30002 189.88116,188.4789 189.3647,189.17725C188.78363,189.96297 188.17537,190.39857 187.60686,190.96709C186.81169,191.76225 186.2327,192.34125 185.72569,192.84825C184.99052,193.58342 184.34143,194.22096 183.73537,194.84924C183.2829,195.31831 182.43295,196.1881 182.1087,196.90125C181.68097,197.84198 181.48062,198.60004 181.21004,199.24925C180.7975,200.23906 180.50607,201.03406 180.29669,201.79324C180.03564,202.73979 180.01137,203.66275 180.01137,204.44792C180.01137,205.39857 180.01137,206.16391 180.01137,207.15808C180.01137,208.07724 180.01137,208.93724 180.01137,209.88408C180.01137,210.77325 180.01137,211.76242 180.01137,212.54175C180.01137,213.54158 180.01137,214.25992 180.01137,215.32675C180.01137,215.92508 180.01175,216.92258 180.01137,217.59592C180.0107,218.79192 180.0947,219.54091 179.8447,220.56258C179.64563,221.3761 179.17216,222.12846 178.5287,222.67725C177.77187,223.32272 177.07153,223.86993 177.01404,224.61858C176.93777,225.61166 177.02016,226.56494 176.95419,227.20457C176.84074,228.3045 176.40344,229.1154 176.0367,229.96259C175.69595,230.74971 175.39778,231.6837 174.92737,232.27725C174.34192,233.01593 173.97592,233.70058 173.30687,234.20541C172.55589,234.77206 172.01587,235.26707 171.97537,236.12659L171.30687,236.55807L170.36853,236.61975L170.01587,237.26707" id="svg_6" stroke-width="3" stroke="#000" fill="none"/>
  <path t="22850,22924,22940,22958,22958,22974,22974,22974,22991,23008,23008,23024,23040,23040,23055,23055,23072,23090,23105,23105,23122,23140,23156,23173,23189,23223,23240,23256,23256,23272,23289,23289,23306,23307,23323,23339,23339,23356,23377,23390,23466,23467,23490,23490,23490,23490,23490,23506,23506,23523,23560,23576,23576,23590,23605,23623,23640,23655,23655,23672,23672,23690,23706,23723,23740,23740,23756,23784" d="M154.01137,241.56258C154.06853,239.86258 154.52368,239.0224 155.3327,238.46242C155.98924,238.00798 156.86606,237.4133 157.2542,236.91441C157.84358,236.15686 158.59961,235.65668 159.21136,234.99458C159.69025,234.4763 160.42404,233.80389 161.11136,233.11975C161.60954,232.62387 162.08263,231.77751 162.57536,230.97325C163.04761,230.20242 162.82791,229.18584 163.23286,228.46275C163.64581,227.72539 164.82704,227.56972 165.01003,226.76125C165.2084,225.88475 165.15669,225.11665 165.72737,224.47858C166.31029,223.82683 166.80185,223.21838 167.23286,222.46259C167.61444,221.79349 168.43677,221.18709 169.11119,220.46242C169.59416,219.94347 169.96423,219.08131 170.00687,218.21524C170.05112,217.31633 169.88072,216.38194 170.0322,215.58342C170.21289,214.63084 170.99336,214.12715 171.01137,213.26259C171.03024,212.35611 171.01137,211.57675 171.01137,210.35591C171.01137,209.94258 171.01137,209.03592 171.01137,208.08925C171.01137,207.18259 171.01137,206.07008 171.01137,205.34258C171.01137,204.36391 171.01137,203.39592 171.01137,202.56258C171.01137,201.76259 170.63354,200.75819 171.06853,199.91975C171.45691,199.17113 171.8831,198.50273 172.2327,197.58391C172.49475,196.89517 172.71753,195.99777 173.1212,195.27242C173.53229,194.53374 174.45105,194.13501 175.23286,193.68408C176.00111,193.24097 176.81137,193.47725 177.57536,192.95192L177.97537,192.16258" id="svg_7" stroke-width="3" stroke="#000" fill="none"/>
  <path t="24651,24760,24789,24808,24824,24824,24840,24906,24923,24923,24940,24956,24956,24985,25041,25057" d="M102.01137,167.56258C100.2967,168.56125 99.4007,168.56258 98.49053,168.56258C97.52737,168.56258 96.8367,168.56258 95.76853,168.56258C94.91136,168.56258 94.00996,168.61011 93.21136,168.56258C92.24909,168.50531 91.5287,167.99458 90.8727,167.41325L90.18069,166.73325L89.4007,166.56258L88.51137,166.56258" id="svg_8" stroke-width="3" stroke="#000" fill="none"/>
  <path t="25892,25957,25975,25990,25990,26006,26024,26145,26170,26223,26353,26378,26392,26402,26402,26402" d="M61.01136,134.56258C62.01136,135.56258 62.88283,135.72252 63.01136,136.56258C63.13305,137.35786 63.68189,138.02904 64.4007,138.53725C65.03304,138.98431 64.29388,139.52473 63.61137,139.13725C62.79622,138.67447 62.07303,138.20992 62.4687,137.59859L63.3447,137.56258L64.26203,137.56258L65.00603,137.56258" id="svg_9" stroke-width="3" stroke="#000" fill="none"/>
  <path t="26705,26793,26817,26842,26857,26857,26874,26874,26993" d="M84.01137,137.56258C84.62203,139.12659 85.4134,139.62639 86.31586,139.55807C87.19064,139.49185 88.01137,139.06258 88.8447,138.72925L89.7247,138.47858L90.01003,137.64792" id="svg_10" stroke-width="3" stroke="#000" fill="none"/>
  <path t="28026,28106,28156,28189,28189,28189,28206,28206,28206,28239,28239,28257,28257,28257,28257,28287,28288,28288,28288,28288,28308,28308,28308,28308,28338,28339,28339,28373,28373,28391,28391,28391,28391,28392,28392,28422,28422,28422,28456,28456,28456,28456,28488,28488,28488,28488,28488,28488,28508,28508,28508,28508,28508,28538,28538,28538,28573,28573,28606,28606,28606,28639,28639,28658,28688,28688,28723,28756,28756,28783,28783,28824,28856,28889,28922,28922,28922,28955,28955,28955,28975,28975,29006,29030,29030,29054,29055,29072,29072,29088,29088,29088,29105,29105,29105,29105,29123,29123,29123,29138,29138,29138,29155,29155,29155,29155,29172,29172,29172,29188,29188,29188,29188,29188,29205,29205,29205,29205,29205,29205,29205,29222,29222,29222,29222,29222,29222,29238,29238,29238,29238,29238,29256,29256,29256,29271,29272,29272,29288,29288,29288,29288,29306,29306,29306,29322,29322,29322,29322,29322,29339,29339,29339,29339,29356,29356,29356,29373,29373,29405,29423,29437,29438,29473,29487,29488,29538,29588,29588,29664,29736,29792,29808" d="M405.01135,172.56258C407.60071,172.56258 408.43271,172.56258 409.3447,172.56258C410.27271,172.56258 411.0632,172.56258 412.08987,172.56258C412.77536,172.56258 413.61005,172.56258 414.62036,172.56258C415.5257,172.56258 416.65436,172.56258 417.32568,172.56258C418.05304,172.56258 418.82037,172.56357 420.01135,172.56258C420.81137,172.5619 421.61182,172.56389 422.41138,172.52658C423.21201,172.48923 424.41275,172.35123 425.20236,172.20992C425.9715,172.07227 426.68976,171.87099 427.96835,171.68408C428.73596,171.57187 429.60901,171.58311 430.62936,171.55807C431.35583,171.54024 432.67834,171.39825 433.09671,171.34125C434.02274,171.21507 435.01123,171.06177 435.51004,170.98792C436.47513,170.84502 437.72418,170.66838 438.38721,170.61975C439.44897,170.54189 440.43353,170.56258 441.29004,170.56258C441.96603,170.56258 442.75403,170.56258 443.67804,170.56258C444.74869,170.56258 445.32654,170.56258 446.5322,170.56258C447.14603,170.56258 447.75787,170.56258 449.51135,170.56258C450.04654,170.56258 451.03085,170.56258 451.9072,170.56258C452.68353,170.56258 453.67804,170.56258 454.49704,170.56258C455.40237,170.56258 456.41269,170.56258 457.24738,170.56258C458.17804,170.56258 458.95953,170.56258 459.75003,170.56258C460.86838,170.56258 461.70236,170.56258 462.5322,170.56258C463.49536,170.56258 464.36584,170.45421 465.25421,170.56708C466.1315,170.67854 466.74832,171.27837 467.65955,171.50992C468.42938,171.70554 469.2959,172.2321 469.89005,172.78392C470.53088,173.3791 470.89151,174.2267 470.9967,174.85991C471.12274,175.61865 471.42981,176.6561 471.86203,177.32658C472.41315,178.1815 472.90897,178.95103 472.99002,179.72658C473.10263,180.80418 472.84811,181.73061 472.58603,182.38791C472.18329,183.39803 472.05679,184.26041 471.43936,184.76125C470.83621,185.25049 469.59167,185.45856 469.0542,185.50542C468.20264,185.57967 467.01135,185.56258 466.11136,185.56258C465.51135,185.56258 464.61136,185.56258 463.41269,185.56258C462.82202,185.56258 461.96854,185.56258 460.93253,185.56258C459.99054,185.56258 459.24203,185.56258 458.04202,185.56258C457.35004,185.56258 456.62604,185.56258 455.89404,185.56258C454.49536,185.56258 453.8367,185.56258 453.18604,185.56258C451.8447,185.56258 451.12204,185.56258 450.34335,185.56258C449.49271,185.56258 448.55402,185.56258 447.51135,185.56258C446.9472,185.56258 445.74887,185.56258 445.12469,185.56258C444.49054,185.56258 443.21219,185.56258 442.57803,185.56258C441.3447,185.56258 440.75436,185.56258 439.6257,185.56258C439.08337,185.56258 438.03268,185.56258 437.01404,185.56258C436.01135,185.56258 435.01535,185.56258 434.52487,185.56258C433.57385,185.56258 432.68286,185.56258 431.51135,185.56258C430.57837,185.56258 429.80737,185.56258 428.8447,185.56258C428.0542,185.56258 427.20068,185.56258 426.01135,185.56258C425.41138,185.56258 424.51135,185.56258 423.61136,185.56258C422.71121,185.56258 421.80069,185.56258 421.17535,185.56258C419.8447,185.56258 419.12512,185.58838 418.38602,185.51991C417.63309,185.45016 416.83478,185.32603 415.83304,184.67708C415.1228,184.21696 414.55377,183.54106 413.97302,182.91608C413.17905,182.06163 412.48337,181.41924 411.85803,180.99458C411.04599,180.44315 410.39749,179.86638 409.65421,179.55807C408.83398,179.21786 407.89017,178.94907 407.29669,178.47858C406.55807,177.89301 406.08243,177.12555 406.02203,176.37724C405.94727,175.45085 405.71054,174.51175 405.36404,173.86258C404.91071,173.0132 405.0322,172.08342 405.62204,171.57324L406.51135,171.56258" id="svg_11" stroke-width="3" stroke="#000" fill="none"/>
  <path t="30672,30722,30824,30839,30856,30872,30872,30873,30873,30873,30873,30873,30888,30888,30888,30888,30888,30888,30888,30888,30888,30906,30906,30906,30906,30906,30906,30906,30906,30906,30923,30923,30923,30923,30923,30923,30923,30923,30923,30939,30939,30939,30939,30939,30939,30939,30939,30939,30955,30955,30955,30955,30955,30955,30955,30955,30955,30971,30972,30972,30972,30972,30972,30972,30972,30972,30988,30989,30989,30989,30989,30989,30989,30989,30989,31004,31005,31005,31005,31005,31005,31005,31005,31005,31021,31022,31022,31022,31022,31022,31022,31022,31022,31039,31039,31039,31039,31039,31039,31039,31039,31039,31055,31055,31055,31055,31055,31055,31055,31055,31055,31071,31072,31072,31072,31072,31072,31072,31072,31072,31087,31088,31088,31088,31088,31088,31088,31088,31088,31104,31105,31105,31105,31105,31105,31105,31105,31105,31122,31123,31123,31123,31123,31123,31123,31123,31123,31137,31138,31138,31138,31138,31138,31138,31138,31138,31155,31156,31156,31156,31156,31156,31156,31156,31156,31172,31173,31173,31173,31173,31173,31173,31174,31174,31188,31188,31188,31188,31188,31188,31188,31188,31188,31204,31205,31205,31205,31205,31205,31205,31205,31205,31223,31223,31223,31223,31223,31224,31224,31224,31224,31239,31239,31239,31239,31239,31239,31240,31240,31240,31255,31255,31255,31255,31256,31256,31256,31256,31256,31271,31272,31272,31272,31272,31272,31273,31273,31273,31287,31288,31288,31288,31288,31288,31288,31288,31289,31305,31306,31306,31306,31306,31306,31307,31307,31307,31322,31323,31323,31323,31323,31324,31324,31324,31324,31338,31339,31339,31339,31339,31339,31339,31340,31340,31354,31355,31355,31355,31355,31355,31356,31356,31356,31371,31372,31372,31372,31372,31373,31373,31373,31373,31388,31389,31389,31389,31389,31390,31391,31391,31392,31405,31406,31406,31407,31408,31408,31408,31409,31409,31423,31423,31424,31424,31424,31425,31425,31426,31426,31439,31439,31439,31440,31440,31441,31441,31441,31441,31455,31456,31456,31456,31456,31457,31457,31458,31458,31471,31472,31472,31472,31472,31473,31473,31473,31474,31487,31488,31488,31488,31489,31489,31489,31489,31489,31504,31505,31505,31505,31506,31506,31506,31506,31507,31522,31523,31523,31524,31524,31525,31525,31526,31527,31538,31539,31539,31539,31540,31540,31541,31541,31541,31555,31556,31556,31557,31557,31558,31559,31559,31560,31572,31573,31573,31575,31576,31576,31577,31577,31577,31588,31589,31589,31589,31591,31591,31592,31593,31593,31606,31607,31608,31608,31609,31609,31610,31610,31610,31623,31624,31625,31625,31625,31626,31627,31627,31628,31639,31639,31640,31640,31641,31641,31642,31642,31643,31655,31656,31656,31657,31657,31658,31659,31659,31659,31671,31672,31672,31673,31673,31674,31674,31675,31675,31687,31688,31688,31688,31689,31689,31690,31690,31691,31705,31706,31707,31707,31708,31708,31709,31709,31710,31722,31723,31724,31724,31725,31726,31727,31727,31728,31738,31739,31740,31740,31741,31741,31742,31743,31743,31755,31756,31757,31757,31758,31760,31760,31760,31761,31771,31772,31772,31773,31773,31775,31776,31776,31777,31789,31789,31790,31792,31792,31793,31793,31793,31794,31804,31805,31805,31807,31808,31808,31809,31810,31810,31823,31824,31825,31826,31826,31827,31827,31827,31839,31839,31840,31841,31872,31873,31873,31874,31904,31905,31905,31906,31907,31937,31938,31938,31939,31971,31972,31972,32020,32054,32055,32055,32087,32088,32088,32109,32110,32175,32205,32227,32496,32504" d="M10.01136,65.56258C10.01136,67.26258 9.58736,68.27865 10.04737,69.12658C10.39099,69.75999 11.8447,69.56258 12.64203,69.56258C13.1107,69.56258 14.17803,69.56258 14.7727,69.56258C15.40536,69.56258 16.07403,69.56258 17.51136,69.56258C18.2767,69.56258 19.07403,69.56258 19.90536,69.56258C20.7727,69.56258 21.67803,69.56258 22.62337,69.56258C23.6107,69.56258 24.64203,69.56258 26.8447,69.56258C28.01903,69.56258 29.23936,69.56258 30.5017,69.56258C31.80203,69.56258 33.13636,69.56258 34.5007,69.56258C35.89103,69.56258 37.30336,69.56258 40.17803,69.56258C41.6327,69.56258 43.09536,69.56258 44.56403,69.56258C46.0367,69.56258 47.51136,69.56258 48.98603,69.56258C50.4587,69.56258 51.92736,69.56258 54.8447,69.56258C56.2902,69.56258 57.7287,69.56258 59.1632,69.56258C60.5967,69.56258 62.0322,69.56258 63.4727,69.56258C64.9212,69.56258 66.3807,69.56258 69.3447,69.56258C70.85419,69.56258 72.3807,69.56258 73.9212,69.56258C75.47269,69.56258 77.0322,69.56258 78.59669,69.56258C80.1632,69.56258 81.7287,69.56292 84.8447,69.56258C86.39003,69.56242 87.92738,69.56293 89.45869,69.55358C90.98605,69.54426 92.5115,69.52688 94.0367,69.49058C95.56419,69.45422 97.09691,69.41888 100.17803,69.22925C101.73343,69.13351 103.29438,68.9985 104.85953,68.85725C106.42639,68.71584 107.99038,68.56097 109.55003,68.41325C111.10138,68.26631 112.64018,68.10534 115.67803,67.89591C117.16806,67.79319 118.64445,67.72632 120.11053,67.67691C121.57115,67.62769 123.03214,67.60021 124.49803,67.58392C125.97382,67.56751 127.4647,67.56392 130.51137,67.56258C132.07503,67.5619 133.66071,67.56258 135.26036,67.56258C136.86603,67.56258 138.4697,67.56258 140.06337,67.56258C141.63904,67.56258 143.18871,67.56258 146.17802,67.56258C147.60387,67.56258 148.9847,67.56258 150.32553,67.56258C151.63136,67.56258 152.9072,67.56258 154.15804,67.56258C155.38887,67.56258 156.60469,67.56258 159.01137,67.56258C160.2117,67.56258 161.41403,67.56258 162.62036,67.56258C163.8327,67.56258 165.05302,67.56258 166.28337,67.56258C167.5257,67.56258 168.78203,67.56258 171.3447,67.56258C172.65453,67.56258 173.98337,67.56258 175.3302,67.56258C176.69403,67.56258 178.07387,67.56258 179.4687,67.56258C180.87753,67.56258 182.29936,67.56258 185.17802,67.56258C186.63187,67.56258 188.0887,67.56258 189.54153,67.56258C190.98337,67.56258 192.4072,67.56258 193.80603,67.56258C195.17287,67.56258 196.5007,67.56258 199.01137,67.56258C200.18187,67.56258 201.29536,67.56258 202.35486,67.56258C203.36336,67.56258 204.32387,67.56258 205.23936,67.56258C206.11287,67.56258 206.94736,67.56258 208.51137,67.56258C209.2467,67.56258 209.95403,67.56258 210.63536,67.56258C211.29269,67.56258 211.92802,67.56258 212.54337,67.56258C213.1407,67.56258 213.72203,67.56258 214.8447,67.56258C215.39037,67.56258 215.93004,67.56258 216.4677,67.56258C217.00737,67.56258 217.55302,67.56258 218.1087,67.56258C218.67836,67.56258 219.26604,67.56258 220.51137,67.56258C221.1757,67.56258 221.86603,67.56258 222.57837,67.56258C223.3087,67.56258 224.05302,67.56258 224.80736,67.56258C225.5677,67.56258 226.33003,67.56258 227.8447,67.56258C228.59003,67.56258 229.32736,67.56258 230.0587,67.56258C230.78603,67.56258 231.51137,67.56258 232.23669,67.56258C232.96404,67.56258 233.69536,67.56258 235.17802,67.56258C235.93269,67.56258 236.69536,67.56258 237.46404,67.56258C238.23669,67.56258 239.01137,67.56258 239.78603,67.56258C240.5587,67.56258 241.32736,67.56258 242.8447,67.56258C243.58986,67.56258 244.32603,67.56258 245.0542,67.56258C245.77536,67.56258 246.49052,67.56258 247.2007,67.56258C247.90686,67.56258 248.61003,67.56258 250.01137,67.56258C250.71136,67.56258 251.41136,67.56258 252.11136,67.56258C252.81137,67.56258 253.51137,67.56258 254.21136,67.56258C254.91136,67.56258 255.61136,67.56258 257.01135,67.56258C257.71121,67.56258 258.41003,67.56258 259.10687,67.56258C259.80069,67.56258 260.49054,67.56258 261.17535,67.56258C261.85419,67.56258 262.52603,67.56258 263.8447,67.56258C264.4902,67.56258 265.12869,67.56258 265.76318,67.56258C266.3967,67.56258 267.0322,67.56258 267.6727,67.56258C268.3212,67.56258 268.98071,67.56211 270.3447,67.56258C271.05588,67.56284 271.7941,67.56255 272.56619,67.57608C273.37946,67.59033 274.24091,67.61812 275.15671,67.67058C276.13531,67.72664 277.18488,67.79283 279.51135,68.06258C280.80527,68.21261 282.16959,68.41145 283.58987,68.62958C285.05093,68.85397 286.53287,69.10031 288.01938,69.35858C289.49521,69.61501 290.94226,69.87303 293.67804,70.39591C294.94009,70.63712 296.12881,70.87531 297.25403,71.10091C298.32349,71.31534 299.34433,71.52272 300.32602,71.71591C301.27502,71.90267 302.19833,72.08948 304.01135,72.39591C304.9101,72.54781 305.80957,72.68048 306.70688,72.80541C307.60028,72.9298 308.49033,73.04337 309.37537,73.15192C310.25403,73.25969 311.12613,73.36044 312.8447,73.56258C313.69009,73.66202 314.52722,73.7625 315.3587,73.85808C316.18588,73.95316 317.01105,74.04482 317.8367,74.12658C318.66373,74.20848 319.49438,74.29208 321.17804,74.39591C322.03244,74.44861 322.89658,74.48083 323.76852,74.50542C324.64728,74.53019 325.53217,74.54375 326.42203,74.55191C327.31583,74.5601 328.21271,74.56191 330.01135,74.56258C330.91138,74.56292 331.81137,74.56258 332.71136,74.56258C333.61136,74.56258 334.51135,74.56258 335.41138,74.56258C336.31137,74.56258 337.21136,74.56242 339.01135,74.56258C339.91071,74.56267 340.80603,74.56236 341.69336,74.56708C342.5687,74.57172 343.4281,74.5801 344.26736,74.59858C345.08279,74.61653 345.87115,74.62949 347.3447,74.72925C348.02634,74.7754 348.67307,74.84328 349.29169,74.91525C349.88907,74.98473 350.4696,75.06331 351.04071,75.13725C351.6076,75.21063 352.17526,75.29386 353.3447,75.39591C353.95355,75.44904 354.58054,75.48093 355.22119,75.50542C355.87259,75.53032 356.53217,75.54375 357.19669,75.55191C357.86316,75.56009 358.52869,75.56191 359.8447,75.56258C360.48953,75.56291 361.12335,75.56258 361.74521,75.56258C362.35403,75.56258 362.94885,75.56258 363.52869,75.56258C364.09253,75.56258 364.63937,75.56258 365.67804,75.56258C366.16937,75.56258 366.64871,75.56258 367.12402,75.56258C367.60336,75.56258 368.0947,75.56258 368.60602,75.56258C369.14536,75.56258 369.7207,75.56258 371.01135,75.56258C371.73987,75.56258 372.51938,75.56258 373.34085,75.56258C374.19537,75.56258 375.07385,75.56258 375.96738,75.56258C376.86685,75.56258 377.76337,75.56242 379.51135,75.56258C380.34671,75.56267 381.15402,75.56231 381.93536,75.56708C382.69269,75.5717 383.42813,75.58014 384.14337,75.59858C384.84079,75.61656 385.52307,75.63264 386.8447,75.72925C387.4906,75.77646 388.12759,75.84438 388.7587,75.91525C389.38626,75.98572 390.01123,76.06368 390.63669,76.13725C391.26392,76.21101 391.89413,76.29292 393.17804,76.39591C393.83215,76.44839 394.49521,76.48081 395.16403,76.50542C395.83658,76.53016 396.51132,76.54373 397.18604,76.55191C397.85867,76.56006 398.52737,76.56191 399.8447,76.56258C400.48969,76.56291 401.12469,76.56258 401.74969,76.56258C402.36469,76.56258 402.9697,76.56258 403.5647,76.56258C404.14969,76.56258 404.7247,76.56258 405.8447,76.56258C406.38986,76.56258 406.92603,76.56258 407.45419,76.56258C407.97537,76.56258 408.49054,76.56258 409.0007,76.56258C409.50687,76.56258 410.01004,76.56258 411.01135,76.56258C411.51169,76.56258 412.01404,76.56258 412.52036,76.56258C413.03268,76.56258 413.55304,76.56258 414.08337,76.56258C414.6257,76.56258 415.18204,76.56258 416.3447,76.56258C416.95438,76.56258 417.58203,76.56258 418.22571,76.56258C418.88336,76.56258 419.55304,76.56258 420.2327,76.56258C420.92038,76.56258 421.61404,76.56275 423.01135,76.56258C423.71088,76.5625 424.40738,76.56279 425.09787,76.55808C425.77936,76.55344 426.44894,76.54504 427.10336,76.52658C427.73996,76.50862 428.35681,76.49563 429.51135,76.39591C430.04749,76.3496 430.55487,76.28267 431.03537,76.20541C431.49356,76.13174 431.92889,76.04566 432.34335,75.95191C432.74155,75.86183 433.12338,75.76604 433.8447,75.56258C434.19049,75.46504 434.52591,75.36347 434.85419,75.26708C435.17523,75.17282 435.4899,75.08109 435.80069,74.99858C436.10626,74.91746 436.4075,74.83423 437.01135,74.72925C437.31027,74.67728 437.61105,74.64444 437.91138,74.61975C438.21109,74.59511 438.51129,74.58142 438.81137,74.57325C439.1113,74.56509 439.41138,74.56342 440.01135,74.56258C440.31137,74.56216 440.61139,74.56275 440.91138,74.55808C441.2114,74.55341 441.51151,74.54474 441.81137,74.52658C442.11154,74.50841 442.41339,74.49087 443.01135,74.39591C443.31253,74.34808 443.61179,74.28048 443.91138,74.20992C444.21182,74.13914 444.51111,74.06165 444.81137,73.98792C445.11111,73.91431 445.40897,73.83344 446.01135,73.72925C446.3103,73.67754 446.61105,73.64444 446.91138,73.61975C447.21109,73.59511 447.51129,73.58142 447.81137,73.57325C448.1113,73.56509 448.41138,73.56342 449.01135,73.56258C449.31171,73.56216 449.61407,73.56269 449.92038,73.55808C450.23273,73.55338 450.55316,73.54436 450.88336,73.52658C451.22586,73.50813 451.58319,73.48735 452.3447,73.39591C452.75473,73.34668 453.17957,73.2799 453.6167,73.20992C454.06226,73.13859 454.51123,73.06193 454.96069,72.98792C455.40594,72.9146 455.84198,72.83639 456.67804,72.72925C457.06763,72.67932 457.43915,72.64497 457.79254,72.61975C458.12851,72.59578 458.44879,72.58157 458.75403,72.57325C459.04517,72.56532 459.32336,72.56325 459.8447,72.56258C460.09003,72.56227 460.32736,72.56258 460.55869,72.56258C460.78604,72.56258 461.01135,72.56258 461.23669,72.56258C461.46402,72.56258 461.69537,72.56274 462.17804,72.56258C462.43304,72.5625 462.69806,72.56264 462.97302,72.55808C463.25806,72.55335 463.55319,72.5444 463.85803,72.52658C464.17322,72.50816 464.49948,72.48876 465.17804,72.39591C465.53357,72.34727 465.89566,72.28014 466.26404,72.20992C466.63699,72.13882 467.0112,72.06181 467.38602,71.98792C467.75854,71.91447 468.12555,71.83508 468.8447,71.72925C469.18909,71.67857 469.52576,71.64466 469.85419,71.61975C470.17514,71.59541 470.49048,71.58146 470.80069,71.57325C471.10684,71.56515 472.01135,71.56258 472.61136,71.56258C473.51135,71.56258 474.41138,71.56763 475.31171,71.56242C476.23273,71.55708 476.88464,71.54229 477.58203,71.47725C478.75699,71.36766 479.62094,71.20837 480.5322,71.06258C481.46295,70.91367 481.92548,70.81673 483.28952,70.68408C484.14359,70.60102 484.94873,70.57655 485.69254,70.56708C486.96811,70.55083 487.72873,70.57079 488.52338,70.56258C489.53235,70.55216 490.34424,70.39428 491.28336,70.13725C491.83243,69.98696 493.00818,69.69944 493.90237,69.61975C494.73737,69.54533 495.67804,69.56258 496.4697,69.56258C497.41138,69.56258 498.31137,69.56258 499.21002,69.56258L500.01135,69.39591L499.93936,68.57325" id="svg_12" stroke-width="3" stroke="#000" fill="none"/>
  <path t="33705,33839,33840,33864,33864,33864,33956,33956,33956,33956,33956,33956,33956,34031,34031" d="M13.01136,68.56258C11.78953,67.68408 11.03937,67.56325 9.97453,67.56258C9.36553,67.5622 8.61653,67.56258 7.17803,67.56258C6.6052,67.56258 5.99536,67.56258 4.7167,67.56258C4.07386,67.56258 3.44603,67.56258 2.28736,67.56258L1.3447,67.56258L0.2887,67.56258" id="svg_13" stroke-width="3" stroke="#000" fill="none"/>
  <path t="36665,36760,36778,36815,36824,36848,36863,36864,36872,36872,36912,36937,37007,37023,37023,37040,37056,37072,37072,37090,37107,37123,37123,37140,37140,37140,37157,37172,37172,37191,37207,37208,37223,37223,37241,37241,37257,37257,37272,37272,37272,37289,37305,37322,37344,37368,37388,37389,37408,37424,37472,37496,37522,37539,37556,37576,37633,37665,37681,37723,37739,37757,37777,37789,37807,37821,37856,37857,37977,38233" d="M94.01137,193.56258C94.01137,195.26259 94.0167,196.1626 94.01137,197.06258C94.00603,197.96263 93.54113,198.79498 93.17803,199.56258C92.84095,200.27518 92.79199,201.30702 92.21003,201.99324C91.64605,202.65825 91.01362,203.2099 91.01137,204.10425C91.009,205.04659 91.01127,205.73724 91.01137,206.80542C91.01145,207.66258 91.24166,208.5229 91.6587,209.26259C92.07874,210.0076 92.65988,210.50792 93.4967,210.56525C94.42046,210.62852 95.22588,210.9848 95.8007,211.41325C96.54599,211.96877 97.38398,212.52655 98.3327,212.56258C99.18542,212.59496 100.17414,212.39726 101.01137,212.72925C101.71378,213.00777 102.49413,213.51553 103.41586,213.55807C104.41032,213.60397 105.21136,213.56258 106.21136,213.56258C107.01137,213.56258 108.01137,213.56258 108.8007,213.56258C109.52603,213.56258 110.49053,213.56258 111.41136,213.56258C112.31136,213.56258 113.21136,213.56258 114.11137,213.56258C115.01137,213.56258 115.81136,213.56258 116.71136,213.56258C117.61137,213.56258 118.51137,213.56258 119.4007,213.56258C120.36853,213.56258 121.30106,213.71136 121.95869,213.20992C122.63555,212.69382 123.00603,211.95197 123.01137,211.06258C123.01677,210.1626 123.20945,209.24019 123.01003,208.36391C122.827,207.55962 121.53101,207.88843 121.06853,207.20541C120.5413,206.42676 120.58603,205.59859 119.67803,205.56258L118.99053,205.56258L117.89803,205.56125L117.13303,205.34125" id="svg_14" stroke-width="3" stroke="#000" fill="none"/>
  <path t="39817,39889,39906,39921,39921,39939,39939,39939,39956,39972,39972,39988,40006,40006,40006,40022,40022,40040,40041,40065,40089,40121,40144,40201,40257,40272,40289,40289,40306,40306,40306,40321,40321,40340,40340,40340,40388,40416,40438,40558,40632" d="M162.01137,193.56258C162.01137,194.44925 162.01137,195.38791 162.01137,196.39592C162.01137,197.22391 162.01137,198.10526 162.01137,198.81325C162.01137,199.79459 162.0239,200.75282 162.01137,201.72925C162.00095,202.54195 161.60432,203.28568 161.01137,204.06258C160.62587,204.56766 160.44228,205.32114 160.13254,206.41959C159.89767,207.2525 159.21812,207.75429 158.57936,208.36258C157.88356,209.02519 157.3674,209.61723 156.92737,210.36391C156.51453,211.06445 155.84088,211.8774 156.0127,212.76125C156.17009,213.57095 157.34235,213.49928 157.98203,213.73325C158.81979,214.03967 159.50836,214.60976 160.3287,214.99458C161.30109,215.45073 162.00549,215.47331 163.01137,215.72925C163.81636,215.93408 164.50119,216.3978 165.49052,216.54175C166.40199,216.67438 167.30687,216.56708 168.01137,217.06258L168.62202,217.55191" id="svg_15" stroke-width="3" stroke="#000" fill="none"/>
  <path t="42731,42822,42839,42855,42872,42872" d="M160.01137,223.56258C160.8127,223.56258 161.71136,223.56258 162.64737,223.56258L163.49536,223.56258L164.3587,223.56258" id="svg_16" stroke-width="3" stroke="#000" fill="none"/>
 </g>
</svg>