<svg width="500" height="333.3333333333333" xmlns="http://www.w3.org/2000/svg" xmlns:svg="http://www.w3.org/2000/svg" xmlns:xlink="http://www.w3.org/1999/xlink">
 <!-- Created with SVG-edit - http://svg-edit.googlecode.com/ -->
 <g display="inline" class="layer">
  <title>Layer 1</title>
  <path t="0,767,847,897,948,997,997,1013,1021,1037,1159,1245,1347,1347,1388,1477,1545,1643,1684,1684,1729,1765,1813,1925,1972,1972,2061,2061,2210,2294,2294,2334,2334,2357,2405,2437,2437,2477,2501,2525,2627,2627,3026,3026,3041,3041,3061,3393,3478,3478,3494,3540,3556,3572,3581,3596,3662,3725,3795,3795,3828,3828,3844,3911,3911,3963,3978,4005,4029,4029,4061,4144,4160,4188,4189,4212,4244,4252,4252,4343,4343,4373,4373,4381,4389,4477,4577,4592,4644,4661,4668,4693,4693,4740,4892,4941,4941,4949,4989,5029,5029" d="M125.5,29.66667C125.5,32.256 125.50225,33.16667 125.5,34.06667C125.49775,34.96667 125.39698,35.90532 124.69867,36.38133C123.94936,36.89211 123.92858,37.62135 123.41467,38.38133C122.96337,39.04871 122.01971,39.20846 121.3,39.86533C120.71549,40.39882 119.66223,40.54337 119.02084,41.1875C118.38107,41.82999 118.66369,42.92396 118.27866,43.76667C117.97286,44.43597 117.37212,45.12281 116.85267,45.71933C116.28349,46.37295 115.98444,47.17182 115.3,47.86667C114.70455,48.47118 114.09034,49.05363 113.584,49.86533C113.12408,50.60263 112.35157,51.04883 111.61467,51.38267C110.88582,51.71286 109.9639,51.49049 109.02084,51.6875C108.15251,51.8689 107.57539,52.75956 106.9,53.23067C106.1664,53.74237 105.2,53.66659 104.3,53.66667C103.39983,53.66675 102.61131,53.74275 101.664,54.092C100.89587,54.37519 100.10371,54.61695 99.15717,54.66217C98.26264,54.70489 97.51802,55.0825 97.5,54.66667C97.46537,53.86742 97.48959,52.96661 97.5,52.06667C97.51042,51.16649 97.92131,50.40781 98.37867,49.56683C98.78519,48.81934 99.37125,48.30146 99.50134,47.46667C99.64402,46.55102 100.24541,45.9357 100.69867,45.18267C101.10161,44.51324 101.39767,43.55038 101.50017,42.56667C101.57324,41.8653 102.24479,41.12894 102.464,40.26667C102.68597,39.39353 102.76785,38.45118 103.30133,37.86667C103.95821,37.14697 104.45728,36.46969 104.5,35.56667C104.54253,34.66768 104.51023,33.81195 105.11066,33.06667C105.63771,32.41247 106.03909,31.47798 106.584,30.952C107.27429,30.28569 108.25886,30.60666 108.8,29.96133C109.36678,29.28545 110.18235,29.01972 110.97916,28.64583C111.74808,28.28504 112.203,27.61133 113,27.16667C113.79852,26.72115 114.7,26.66667 115.6,26.66667C116.5,26.66667 117.3,26.66667 118.2,26.66667C119.136,26.66667 119.984,26.66667 120.84734,26.66667C121.74284,26.66667 122.7,26.668 123.6,26.888L124.2,27.314" id="svg_1" stroke-width="3" stroke="#000" fill="none"/>
  <path t="8987,9359,9420,9444,9476,9545,9561,9612,9644,9660,9684,9684,9745,9874,9874,9909,9933,9995,10028,10060,10060,10128,10165,10228,10228,10276,10348,10411,10444,10444,10468,10512,10512,10528,10548,10556,10572,10630,10677,10677,10732,10795,10795,10877,10924,10925,10964,11170,11243,11297,11333,11381,11389,11389,11413,11445,11469,11469,11493,11524,11573,11573,11613,11613,11710,11725,11741,11757,11765,11773,11813,11845,11911,11911,11927,11927,11949,11957,12013,12045,12045,12053,12053,12061,12069,12077,12093,12101,12101,12117,12117,12117,12444,12493,12509,12509,12533,12533,12565,12597,12613,12788,12788,12803,12803,12803,12845,12845,12861,12877,12893,12901,12901,12909,12933,12933,12949,12949,12957,12957,12981,12997,13005,13013,13013,13037,13037,13046,13046,13061,13085,13085,13117,13141,13141,13141,13157,13157,13165,13165,13165,13182,13197,13197,13221,13230,13231,13237,13293,13427,13476,13476,13500,13501,13508,13517,13524,13556,13580,13580,13738,13754,13754,13773,13781,13781,13797,13813,13830,13837,13838,13853,13853,13877,13877,13901,13901,13901,13994,14029,14045,14053,14054,14061,14061,14070,14070,14077,14077,14093,14109,14148,14149,14157,14181,14181,14324,14324,14324,14339,14339,14339,14339,14357,14357,14365,14365,14373,14381,14389,14437,14605,14605,14621,14636,14637,14646,14684,14684,14700,14708,14709,14825,14825,14845,14845,14852,14863,14870,14870,14877,15023,15038,15038,15060,15061,15069,15077,15085,15085,15093,15132,15133,15148,15149,15172,15173,15189,15189,15205,15205,15309,15324,15332,15332,15332,15340,15340,15341,15341,15356,15356,15356,15357,15365,15365,15365,15380,15380,15412,15412,15428,15479,15495,15495,15495,15517,15533,15541,15549,15565,15581,15581,15589,15597,15597,15605,15613,15621,15622,15773,15789,15789,15804,15805,15812,15911,15911,15948,15980,15981,16004,16020,16020,16029,16029,16045,16061,16068,16068,16069,16100,16101,16116,16117,16156,16180,16204,16228,16236,16268,16268,16292,16316,16340,16340,16364,16364,16388,16388,16412,16413,16452,16484,16516,16517,16517,16532,16541,16548,16556,16596,16612,16613,16628,16644,16652,16668,16668,16676,16677,16692,16761,16761,16761,16876,16961,17045,17111,17111,17111" d="M212.5,125.66666C212.55716,123.96667 213.04207,123.22098 213.7955,122.71933C214.48476,122.26041 214.38901,121.15039 215.02083,120.66666C215.69815,120.14809 216.10191,119.37129 216.7215,118.788C217.32588,118.21902 218.20113,117.96329 218.8,117.36667C219.50133,116.66798 220.03378,115.92552 220.89999,115.70267C221.77231,115.47823 222.7,115.66666 223.60001,115.66666C224.5,115.66666 225.3,115.66666 226.2,115.66666C227.136,115.66666 227.98399,115.66666 228.84734,115.66666C229.74283,115.66666 230.7,115.66666 231.60001,115.66666C232.5,115.66666 233.3502,115.68013 234,116.1875C234.76802,116.78717 235.3344,117.30103 236.2,117.71933C237.01845,118.11485 237.27859,119.12375 237.936,119.64133C238.58304,120.15076 239.25586,120.69583 239.55267,121.36667C239.92772,122.21432 240.82568,122.77751 241.21466,123.46667C241.6472,124.23299 241.5,125.15067 241.5,126.014C241.5,127.03067 241.332,127.98277 241.50133,128.86534C241.64647,129.62181 242.70377,129.74879 243.60001,129.6665C244.51144,129.58282 245.0945,129.08014 246,128.66667C246.7953,128.30353 247.49216,127.78938 248.3,127.668C249.20856,127.53149 249.7198,126.77518 250.60017,126.6665C251.38399,126.56975 252.17468,126.35043 252.84734,125.96217C253.77658,125.42579 254.4874,124.7517 255.3,124.668C256.19528,124.57578 257.10004,124.672 258,124.66666C258.90005,124.66133 259.60721,124.21371 260.5,123.83334C261.25153,123.51315 262.20001,123.66666 263.10001,123.66666C264,123.66666 264.89999,123.66666 265.8045,123.66666C266.66666,123.66666 267.5,123.66666 268.47849,123.66666C269.29868,123.66666 270.20001,123.66666 271.10001,123.66666C272,123.66666 272.91068,123.66666 273.8215,123.66666C274.52084,123.66666 275.5,123.66666 276.29999,123.66666C277.10001,123.66666 278.80862,123.16319 279.04401,123.952C279.30081,124.81266 277.97357,125.14124 277.30133,125.86667C276.76346,126.44712 276.51266,127.36674 276.5,128.26666C276.48734,129.16682 275.95679,129.86995 275.62149,130.76666C275.30341,131.61731 275.51315,132.51711 276.02084,133.16667C276.62146,133.93512 277.24536,134.528 277.89999,135.056C278.64496,135.65686 279.60001,135.66667 280.5,135.66667C281.25717,135.66667 282.28564,135.2972 283.16666,135.83333C283.79816,136.21762 284.02051,137.19888 284.68533,137.80533C285.42834,138.48308 286.22284,138.47746 287.10001,138.70267C287.96176,138.92392 288.6991,139.61186 289.66666,139.66667C290.49893,139.71382 291.31442,139.87234 292.12534,140.24133C292.9664,140.62404 293.72125,140.56032 294.61465,140.95067C295.56943,141.36783 296.22644,141.67575 297.02084,142.1875C297.85156,142.72266 298.51947,143.16936 299.10132,143.46666C300.09766,143.97577 300.74115,144.24622 301.69968,144.98801C302.30673,145.45781 302.88998,145.95183 303.39017,146.9095C303.81561,147.72406 304.20337,148.3678 304.79999,148.96666C305.49869,149.66798 305.96249,150.32841 306.47467,151.056C306.93741,151.71333 307.95834,151.66667 307.5,151.66667C306.74283,151.66667 305.84732,151.66667 304.98401,151.66667C304.02084,151.66667 303.10001,151.66667 302.20001,151.66667C301.29999,151.66667 300.39984,151.66667 299.61465,151.66667C298.71735,151.66667 298.67682,151.66667 299.50818,151.66667C300.52933,151.66667 301.50085,151.62949 302.29999,151.66667C303.21765,151.70938 303.51016,152.52193 304.11066,153.26666C304.63858,153.92139 305.23441,154.5466 305.48532,155.50267C305.68515,156.26404 306.07886,157.05898 306.5,157.66667C307.18457,158.6545 307.3714,159.47266 307.58267,160.18134C307.84433,161.05901 308.77554,162.13689 308.13834,162.6095C307.36618,163.18221 306.49933,162.70256 305.52133,162.6665C304.74579,162.63791 303.82462,162.35159 303.15268,161.96217C302.2222,161.42293 301.77951,160.7753 301,160.1875C300.25861,159.62843 299.31903,159.79906 298.52084,159.64583C297.56714,159.46275 297.28711,158.38354 296.69867,157.952C296.20285,157.58838 297.08759,157.62729 297.51468,158.31334C297.98019,159.06111 298.15955,159.85516 298.37851,160.8665C298.5448,161.63451 298.5,162.64534 298.5,163.55067C298.5,164.492 298.5,165.18266 298.5,166.256C298.5,167.16667 298.5,168.06667 298.5,168.97116C298.5,169.83333 298.96191,171.01291 298.21466,171.49466C297.44113,171.99335 297.01816,170.72849 296.44733,170.02383C295.85553,169.29333 295.40494,168.76462 294.63867,168.27733C293.73694,167.7039 292.82211,167.69124 292.2045,166.96584C291.70538,166.37959 291.69305,166.7907 292.2045,167.36667C292.85471,168.09894 293.43912,168.76054 293.5,169.66667C293.55362,170.46486 293.97043,171.52603 293.44284,172.30949C292.98209,172.99368 291.86401,172.66667 290.84732,172.66667C290.15268,172.66667 289.03571,172.8638 288.30133,172.38133C287.5025,171.85652 287.34204,171.05173 286.69867,170.49733C286.00549,169.90001 285.75491,169.10745 285.08932,168.29201C284.64908,167.75264 283.84732,167.01401 283.32535,166.492C282.52151,165.68816 282.02084,165.1875 281.29999,164.46666C280.79999,163.96666 279.70392,162.97969 280.15732,162.78534C280.94748,162.44664 281.34296,163.96977 281.71066,164.49867C282.51535,165.65614 282.90439,166.26299 283.28934,166.86667C283.66968,167.46309 284.35468,168.65717 284.61334,169.26666C284.98987,170.15395 285.19208,170.75714 285.37851,171.96634C285.46915,172.5542 285.49466,173.39464 285.5,174.52383C285.50421,175.41483 285.50934,176.31938 285.5,177.18266C285.48956,178.146 285.25461,179.13525 284.5,179.5C283.76453,179.8555 282.79999,179.66667 281.89999,179.66667C281,179.66667 280.11957,179.6458 279.47467,179.092C278.89719,178.59607 278.21021,177.95036 277.79999,177.31483C277.21881,176.41443 276.73755,175.64038 276.44733,174.96666C276.08472,174.12488 275.66357,173.31961 275.27866,172.56667C274.88849,171.80348 274.5,171.03867 274.5,171.98801C274.5,172.66667 274.5,173.64517 274.5,174.46533C274.5,175.42383 274.78555,176.40358 274.41467,177.09734C274.00061,177.8719 272.73978,177.93069 272.06934,177.496C271.35519,177.03297 271.5,175.83333 271.5,174.914C271.5,174.01401 271.50241,173.31934 271.5,172.30267C271.49774,171.35765 271.35077,170.32814 271.14282,169.66133C270.90881,168.91098 270.46304,168.02069 270.02084,167.1875C269.58395,166.36429 269.60776,165.45467 269.14734,164.7765C268.64801,164.04103 268.50067,163.26666 268.5,162.36667C268.49933,161.46666 268.30792,160.54176 267.7955,159.96666C267.23526,159.33786 266.76416,158.50771 266.33334,157.66667C265.99304,157.00233 265.16025,156.39417 264.70001,155.78133C264.15005,155.049 263.86212,154.27443 263.20001,153.42383C262.74078,152.83386 261.90491,152.22377 261.55267,151.36217C261.21603,150.5387 261.10468,149.81824 260.69867,149.15067C260.16245,148.269 259.87921,147.17789 259.14282,146.72383C258.4248,146.28111 257.71442,146.22472 257.21466,145.468C256.8125,144.85909 255.77313,144.85265 254.89999,144.63066C254.03773,144.41145 253.28761,143.79053 252.61467,143.58267C251.65562,143.28645 250.98975,142.85695 250.136,142.27733C249.40485,141.78093 248.46175,141.84023 247.7,141.58133C246.81209,141.27956 246.11067,140.71333 245.5625,141.22917L245.83333,142L246.20534,142.672L246.64934,143.416" id="svg_2" stroke-width="3" stroke="#000" fill="none"/>
  <path t="18143,18413,18499,18561,18786,18801,18845,18845,18915,19041,19041,19127,19195,19246,19297,19445,19445" d="M244.5,139.66667C243.69867,139.66667 242.8,139.66667 241.89999,139.66667C241,139.66667 240.08913,139.64682 239.17883,139.66684C238.36075,139.68483 237.66608,140.15948 237.21466,140.86667C236.78888,141.53371 235.82611,142.08199 235.55716,142.96666C235.29521,143.82831 235.14284,144.614 234.3,144.95067L233.7,145.38266" id="svg_3" stroke-width="3" stroke="#000" fill="none"/>
  <path t="20088,20365,20694,20694,20740,20812,20867,20867,20946,20996,21064,21064,21109,21109,21117,21117,21141,21141,21165,21165,21165,21197,21213,21213,21261,21277,21376,21391,21391,21391,21429,21453,21477,21525,21525,21549,21549,21596,21611,21611,21663,21663,21679,21716,21716,21740,21772,21828,21972,21972,22123,22172,22173,22181,22244,22269,22313,22357,22357,22445,22445,22453,22528,22528,22528,22625,22625,22625,23101,23161,23197,23197,23205,23245,23269,23344,23344,23493,23493,23493,23549,23588,23604,23644,23652,23652,23700,23776,23776,23792,23792,23852,24256,24312,24349,24365,24389,24421,24453,24453,24485,24485,24529,24573,24573,24605,25024,25024,25110,25287,25340,25372,25445,25508,25508,25556,25556,25572,25604,25604,25662,25678,25744,25760,25876,25876,25876,25909,25909,25963,25963,26020,26060,26112,26112,26128,26128,26172,26212,26212,26236,26236,26278,26294,26294,26349,26373,26373,26389,26446,26446,26501" d="M210.5,124.66666C210.5,126.492 210.53564,127.50074 210.5,128.36217C210.46396,129.23289 209.63933,129.67181 208.66667,129.66667C207.90982,129.66267 207.15427,129.13925 206.3,128.75067C205.53688,128.40355 204.88756,128.02057 204.01601,127.46667C203.34239,127.03856 202.53339,126.55067 201.87466,126.06667C201.02963,125.44577 200.47995,125.16515 199.5,124.66666C198.71129,124.26545 197.98032,123.87397 197.25717,123.37117C196.49463,122.84098 195.72046,122.54762 194.89999,122.092C194.11806,121.65778 193.3727,121.25779 192.5,120.83334C191.84033,120.51249 190.97641,120.20625 190.2045,119.71933C189.50206,119.27623 188.93497,118.73472 188.01601,118.38133C187.30342,118.10731 186.49789,117.59419 185.91066,117.06667C185.16859,116.40005 184.5,115.66666 184,115.16666C183.3,114.46667 182.80005,113.96662 182.10001,113.26667C181.40004,112.56679 180.71065,112.17542 180.02083,111.66666C179.36148,111.18039 179.07317,110.25785 178.39999,109.56667C177.80797,108.9588 177.05873,108.4548 176.62134,107.56667C176.29904,106.91223 175.75305,106.12949 175.536,105.26667C175.31625,104.39317 175.5,103.46533 175.5,102.5C175.5,101.66666 175.52121,100.83308 175.5,99.97117C175.47916,99.12423 175.0666,98.11826 174.63867,97.40533C174.32161,96.87711 173.64961,95.84286 173.26167,95.12833C172.93198,94.52109 172.55771,93.50063 172.5,93.564C171.86981,94.25607 172.68477,95.38878 172.464,96.26667C172.24702,97.12952 171.59259,97.76324 171.5,98.66666C171.41676,99.47875 171.24248,100.44314 170.97917,101.14584C170.72511,101.82384 169.90042,102.65067 169,102.66666C168.10014,102.68266 167.14993,102.79833 166.39999,102.44534C165.62447,102.08029 164.89992,101.68266 164,101.66666C163.0999,101.65067 162.34364,101.06609 161.89999,100.51733C161.2592,99.72472 160.27202,98.3986 159.62167,99.0095C159.11073,99.48946 160.44019,100.21745 160.85266,100.96667C161.31436,101.80531 161.40683,102.67954 161.55716,103.42384C161.74414,104.34956 162.18924,105.02425 162.7955,105.9095C163.32028,106.67577 163.56873,107.41651 164.38667,107.75066C165.13559,108.05662 165.9884,108.42883 166.51466,109.26667C166.99059,110.02435 167.89572,110.20365 168.41467,110.952C168.88147,111.62514 168.81488,112.69227 169.36133,113.06667C170.30365,113.71228 171.04985,114.11473 171.416,114.86667C171.83209,115.72118 172.14825,116.42849 172.89999,117.056C173.55556,117.60323 174.25407,118.09367 174.86166,118.6185C175.53581,119.20082 176.33208,119.52093 176.84734,120.0185C177.62498,120.76946 178.26666,121.50148 179.10001,121.656C179.98546,121.82018 180.93617,121.93235 181.37866,122.76667C181.82141,123.60149 182.12509,124.29716 182.82117,124.76667C183.61563,125.30254 184.19595,125.9702 184.83333,126.66666C185.28053,127.15533 186.42007,127.57429 186.95833,128.16667C187.52075,128.78566 187.69307,129.7907 188.2045,130.36667C188.85471,131.09894 189.4333,131.76038 189.49867,132.552C189.57516,133.47826 189.7215,134.424 190.30133,134.83467L190.89999,135.51733" id="svg_4" stroke-width="3" stroke="#000" fill="none"/>
  <path t="27411,27790,27837,27869,27885,27944,27960,28005,28021,28077,28101,28125,28125,28133,28141,28189,28189,28261,28343,28381,28397,28397,28446,28446,28485,28485,28529,28587,28587,28587,28603,28603,28644,28685,28709,28725,28749,28765,28781,28829,28829,28883,28883,28924,28948,28972,28988,29028,29028,29052,29111,29111,29111,29127,29189,29245,29311,29362,29404,29404,29436,29560,29597,29637,29775,29790,29861,29877,29893,29908,29908,29961,30012,30044,30113,30129,30165,30165,30181,30205,30221,30237,30246,30246,30293,30293,30346,30346,30346,30361,30389,30397,30397,30405,30421,30445,30477,30477,30501,30509,30533,30589,30629,30629,30636,30693,30725,30725,30750,30773,30805,30844,30896,30911,30978,30978,30994,31036,31044,31061,31061,31077,31077,31100,31100,31148,31148,31156,31196,31196,31276,31276,31341,31341,31357,31405,31429,31429,31437,31454,31590,31590,31662,31677,31693,31777,31836,31837,31892,31976,32046,32077,32128,32128,32144,32181,32197,32213,32308,32373,32602,32834,32956,32956,33044,33044,33085,33109,33133,33165,33212,33227,33227,33269,33359,33413,33469,33469,33477,33546,33588,33604,33662,33662,33708,33756,33756,33780,33788,33804,33804,33852,33852,33860,33892,33893,33945,33961,33961,33980,34004,34093,34093,34141,34173,34197,34197,34221,34229,34229,34253,34262,34285,34293,34293,34301,34301,34301,34309,34309,34317,34325,34357,34421,34469,34529,34544,34588,34612,34613,34629,34629,34756,34842,34842,34858,34885,34909,34909,34925,34925,34933,34933,34973,34982,34982,35021,35037,35037,35061,35112,35127,35173,35173,35213,35253,35253,35277,35293,35309,35309,35349,35373,35373,35421,35421,35438,35461,35527,35766" d="M235.5,145.66667C237.2,146.71933 237.92258,147.35217 238.8,147.6095C239.66417,147.86295 240.31046,148.1572 240.936,148.64133C241.68181,149.21852 242.64934,149.25221 243.33333,149.83333C244.00024,150.39995 244.7565,150.75786 245.21466,151.468C245.67252,152.1777 245.45506,153.30424 246.20984,153.614C246.9675,153.92493 248.13936,154.09613 248.41467,154.86667C248.71886,155.718 248.62653,156.69858 249.11067,157.26666C249.75,158.01683 250.34746,158.52336 250.7955,159.31934C251.26625,160.15565 251.43861,161.06003 251.66667,162C251.83136,162.67879 252.0307,163.45488 252.59984,164.52367C252.93402,165.15121 253.27687,165.99318 253.50133,166.86534C253.70744,167.66624 254.48199,168.10216 254.5,169.06667C254.5168,169.96651 254.5,170.86667 254.5,171.76683C254.5,172.552 254.5,173.492 254.5,174.18266C254.5,175.256 254.5,176.16667 254.5,177.06667C254.5,177.96666 254.5,178.868 254.5,179.552C254.5,180.492 254.5,181.5 254.5,182.36217C254.5,183.26666 254.5,184.16667 254.5,185.06667C254.5,185.96666 254.5,186.86667 254.5,187.76666C254.5,188.66667 254.5,189.46666 254.5,190.36667C254.5,191.26666 254.5,192.16667 254.5,193.06667C254.5,193.96666 254.62411,194.87529 254.49983,195.76649C254.38803,196.56825 253.39999,196.66667 252.5,196.66667C251.7,196.66667 250.8,196.72383 250,197.16667C249.2,197.6095 248.3,197.66667 247.39999,197.66667C246.5,197.66667 245.6998,197.64793 244.8,197.66667C243.93544,197.68468 243.43488,198.45436 242.63867,198.63066C241.68901,198.84094 240.77567,198.75246 240.19099,199.37199C239.65817,199.9366 238.7361,200.51924 238,200.64583C237.27142,200.77112 236.13228,201.06313 235.62117,201.76649C235.11391,202.46455 234.27948,202.57498 233.56134,203.092C232.89746,203.56995 232.19626,204.01978 231.5,204.66667C230.89673,205.22717 230.00482,205.46262 229.30133,205.952C228.51671,206.49782 228.2924,207.41185 227.5,207.83333C226.85939,208.17407 225.96368,208.5937 225.2,209.01933C224.45828,209.43272 223.69957,209.63876 222.8,209.66667C221.85588,209.69597 221.42944,210.43031 220.5,210.66667C219.67639,210.87611 219.16844,211.48009 218.39999,211.888C217.75005,212.233 216.87933,212.49318 216,212.6875C215.15666,212.87387 214.79065,213.88895 214.24533,214.46666C213.5948,215.15582 212.75513,215.28812 211.83333,215.5C210.89699,215.71521 210.01601,215.66451 209.15266,215.66667C208.25716,215.66893 207.40831,215.89993 206.74283,216.37117C206.02493,216.87952 205.26341,217.17934 204.38667,217.86667C203.8161,218.31396 203.50813,219.28429 203.07466,220.06667C202.61963,220.88797 202.40399,221.55811 202.51067,222.48134C202.62155,223.4409 203.57016,223.95609 203.97917,224.6875C204.41176,225.46109 204.46402,226.37602 204.07466,227.06667C203.61377,227.88419 203.39262,228.89526 202.7955,229.30949C202.00655,229.85681 200.98685,229.80965 200.10001,229.65601C199.26782,229.51183 198.77127,228.62602 198.416,227.86667C198.07379,227.13524 196.85136,226.8786 196.52083,226.14583C196.15923,225.34419 196.30305,224.34453 196.50133,223.468C196.68199,222.66931 197.48958,223.14616 197.5,222.66667C197.51645,221.90968 197.5,221.01401 197.5,220.15067C197.5,219.1875 197.5,218.26666 197.5,217.36667C197.5,216.46666 197.5,215.56667 197.5,214.66667C197.5,213.86667 197.38107,212.82999 198.02083,212.1875C198.66223,211.54337 199.54234,211.35147 200.3,210.95067C201.14938,210.50136 201.81035,210.04863 202.7,209.752C203.55765,209.46603 204.53189,209.54013 205.10001,209.056C205.84535,208.42084 206.5369,207.92979 207.3,207.58267C208.15427,207.19409 208.93182,206.75986 209.82133,206.44516C210.52061,206.19777 211.30576,205.62709 211.97917,205.1875C212.77046,204.67096 213.71475,204.39799 214.3,203.86534C214.92696,203.29474 215.81635,202.7453 216.5,202.6875C217.47508,202.60506 218.26527,202.39322 218.66667,201.66667C219.09355,200.89398 219.71727,200.23618 220.60001,199.78799C221.44258,199.36021 222.06042,199.01305 222.8,198.37117C223.46669,197.79256 224.42352,197.7318 224.97917,197.14583C225.66719,196.42026 225.94666,195.70222 226.8215,195.6665C227.71065,195.6302 228.70145,195.44948 229.5,195.16667C230.10112,194.95378 231.1702,194.96371 231.92934,194.58267C232.74174,194.1749 233.28069,193.54736 234.10001,193.092C234.88179,192.65749 235.75122,192.2338 236.5,191.83333C237.29144,191.41005 237.14174,190.50168 237.66667,189.83333C238.15744,189.20848 239.18796,188.99471 239.63867,188.48134C240.40312,187.61061 240.7206,186.69998 241.07466,186.06667C241.55617,185.2054 241.5,184.36217 241.5,183.34534C241.5,182.66667 241.61032,181.6707 241.41467,180.78267C241.23926,179.98645 240.81076,179.30908 240.2045,178.42383C239.67972,177.65756 239.48804,176.81618 238.97917,176.16667C238.37825,175.39966 237.6656,175.03229 236.8,174.614C235.98155,174.21849 235.68689,173.30721 235.2785,172.56667C234.90654,171.89217 234.08691,171.27951 233.40016,170.56667C232.92682,170.07535 232.51042,169.16685 232.5,168.256C232.48959,167.3454 232.5,166.66667 232.5,165.552C232.5,164.66667 232.5,163.9095 232.5,163.01401C232.5,162.15067 232.5,161.1875 232.5,160.26666L232.5,159.36667L232.5,158.46666" id="svg_5" stroke-width="3" stroke="#000" fill="none"/>
  <path t="38009,38154,38170,38170,38307,38410,38469,38493,38501,38501,38640,38676,38677,38724,38733,38765,38765,38789,38837,38860" d="M202.5,209.66667C203.52083,209.66667 204.5248,209.46732 205.29866,209.752C206.16986,210.07248 206.48199,211.06613 206.5,211.96666C206.51799,212.86649 206.5,213.76683 206.5,214.552C206.5,215.492 206.95073,216.67783 206.44284,217.30499C206.01137,217.8378 205.51042,216.646 205.5,215.68817C205.49109,214.86804 205.5,213.96666 205.5,213.06667L205.5,212.16667" id="svg_6" stroke-width="3" stroke="#000" fill="none"/>
  <path t="40462,40589,40605,40621,40637,40637,40653,40669,40677,40685,40685,40694,40701,40717,40741,40749,40749,40749,40765,40781,40789,40813,40813,40844,40884,40900,40900,40932,40948,40964,40964,40972,40980,40980,41036,41036,41068,41084,41100,41100,41116,41116,41140" d="M217.5,159.66667C217.5,161.46666 217.5,162.36667 217.5,163.1875C217.5,164.15067 217.5,164.84134 217.5,165.9095C217.5,166.86667 217.5,167.76666 217.5,168.66667C217.5,169.46666 217.5,170.36667 217.5,171.26666C217.5,172.16667 217.61861,173.03065 217.16667,173.83333C216.75575,174.56316 215.98337,174.90202 215.61433,175.9095C215.28278,176.81465 215.5,177.76666 215.5,178.66667C215.5,179.46666 215.5,180.36667 215.5,181.30267C215.5,182.15067 215.49937,183.01401 215.5,183.9095C215.50067,184.86667 215.69086,185.79268 216.2045,186.36667C216.86252,187.10201 217.5,187.66667 218.10001,188.26666C218.8,188.96666 219.22154,189.55824 220,190.14583C220.74113,190.70525 221.66667,190.66667 222.5,190.6875L223.47833,190.88817L224.13834,191.37117L224.5,192.14583" id="svg_7" stroke-width="3" stroke="#000" fill="none"/>
  <path t="43104,43269,43301,43301,43332,43340,43348,43380,43380,43388,43428,43460,43460,43484,43500,43509,43524,43532,43532,43548,43548,43564,43580,43604,43628,43668,43668,43711,43711,43849,43849,43885,43885,43901,43901,43917,43925,43933,43933,43941,43941,43995,44037,44069,44069,44093,44093,44133,44141,44165,44189,44237,44237,44285,44285,44341,44357,44389,44389,44405,44429,44445,44445,44461,44493,44517,44517,44533,44540,44557,44564,44565,44605,44613,44613,44645,44653,44685,44685,44701,44702,44717,44741,44741,44765,44765,44781,44781,44813,44829,44845,44869,44885,44909,44909,44917,44933,44973,45028,45028,45028,45043,45043,45043,45084,45092,45101,45101,45108,45125,45172,45189,45189,45204,45220,45220,45244,45261,45269,45284,45316,45316,45316,45340,45340,45348,45380,45380,45396,45436,45436,45468,45493,45494,45509,45509,45524,45525,45525,45541,45541,45557,45557,45573,45573,45604,45605,45621,45621,45645,45645,45652,45662,45668,45669,45693,45732,45732,45794,45794,45836,45894,45910,45910,45941,45957,45957,45981,45981,46005,46029,46029,46037" d="M257.5,200.66667C259.33334,200.83333 259.62653,201.69856 260.11066,202.26666C260.74585,203.01201 261.03201,203.86536 261.66666,204.5C262.3013,205.13466 263.08002,205.26965 263.5,206.16667C263.87149,206.96011 264.42841,207.75415 265.10001,208.23067C265.82568,208.74554 266.44485,209.23859 267.11066,209.692C267.83829,210.18753 268.37952,210.87801 268.58401,211.552C268.87439,212.50897 269.15607,213.20241 269.5,214.14583C269.80521,214.983 270.74374,215.32155 271.37885,215.88817C272.05151,216.4883 272.55313,217.11765 273.33334,217.66667C273.98792,218.12729 274.36398,219.02879 274.75467,219.552C275.41937,220.44214 276.3121,220.7498 277,221.5C277.53522,222.08369 277.78052,223.07008 278.5,223.5C279.27048,223.96037 279.52481,224.57771 279.936,225.492C280.2565,226.20457 281.00778,226.79858 281.37851,227.76666C281.70331,228.61478 281.5,229.42383 281.5,230.31934C281.5,231.18266 281.5,232.14583 281.5,233.06667C281.5,233.96666 281.5,234.86667 281.5,235.76683C281.5,236.552 281.5,237.492 281.5,238.18266C281.5,239.256 281.5,240.07733 281.5,240.98801C281.5,241.84134 281.5,242.78133 281.5,243.76666C281.5,244.66667 281.5,245.46666 281.5,246.36667C281.5,247.1875 281.5,248.15067 281.5,249.01401C281.5,249.9095 281.5,250.86667 281.5,251.76666C281.5,252.66667 281.5,253.46666 281.5,254.30267C281.5,255.31934 281.50241,256.01401 281.5,257.03067C281.49774,257.97116 281.33676,258.83469 281.07468,259.492C280.67191,260.50211 280.60886,261.26456 280.47916,262.1875C280.36432,263.0047 279.81131,263.80768 279.58533,264.78265C279.41089,265.53528 279.5,266.492 279.5,267.18268C279.5,268.25601 279.5,269.16666 279.5,270.06668C279.5,270.96667 279.65353,271.91513 279.33334,272.66666C279.00052,273.44788 278.51263,274.1665 278.5,275.06668C278.48724,275.97559 278.34732,277.00409 278.14282,277.67651C277.90546,278.45709 277.50446,279.50189 277.2045,280.20499C276.86224,281.0072 276.52859,281.90808 276.5,282.76666C276.47003,283.66617 276.5,284.46667 276.5,285.36667C276.5,286.26666 276.5,287.1875 276.5,288.15067C276.5,288.84134 276.35068,289.96396 276.72134,290.76666C277.02985,291.43472 277.49081,292.28488 277.92532,293.06668C278.38068,293.88599 278.92133,294.44983 279.5,295.16666C280.05435,295.85336 280.12878,296.70279 280.60001,297.52368C281.03708,298.2851 281.85532,298.76428 282.33334,299.66666C282.67673,300.31488 283.01556,301.17181 283.70001,301.86667C284.19623,302.37042 284.91217,303.05472 285.60001,303.76685C286.10916,304.29398 286.71039,305.14633 287,305.6875C287.51877,306.65683 287.86606,307.47577 288.29999,308.18134C288.76468,308.93689 289.33234,309.53067 289.79999,310.32382C290.23053,311.05402 290.68484,312.07343 291,312.64584C291.47736,313.51285 292.04553,314.1044 292.69867,314.86801C293.25558,315.5191 293.46078,316.31836 293.49866,317.18268C293.54083,318.14517 293.83191,318.99075 294.5,319.66666C295.07889,320.25232 296.06525,320.56421 296.37866,321.33066C296.69839,322.11258 296.54974,323.37289 297.30133,323.66266C298.08856,323.96616 298.70758,324.41187 299.5,324.83334C300.14059,325.17407 300.93185,325.57346 301.82132,325.88815C302.5206,326.13556 303.50146,326.73984 304.08932,327.26666C304.7262,327.8374 305.5,328.5 306.20001,328.66217L307.14282,328.72385" id="svg_8" stroke-width="3" stroke="#000" fill="none"/>
  <path t="47355,47492,47508,47508,47540,47541,47572,47588,47604,47628,47628,47636,47692,47716,47716,47724,47724,47732,47732,47748,47748,47764,47772,47772,47788,47796,47796,47813,47829,47844,47876,47876,47892,47892,47932,47956,47956,47996,47996,47996,48012,48060,48060,48068,48078,48101" d="M259.5,308.66666C261.25717,308.72385 262.17255,308.98666 262.84732,309.37115C263.64032,309.823 264.48483,310.08524 265.21466,310.75067C265.81088,311.29428 265.99036,312.19763 266.70001,312.86533C267.27637,313.40759 268.29657,313.58844 269,314.20834C269.60049,314.73752 269.89035,315.79752 270.66666,316.33334C271.25314,316.73816 272.38339,316.75439 272.97916,317.1875C273.78024,317.7699 274.29999,318.46667 274.89999,319.06668C275.60001,319.76666 276.20001,320.36667 276.79999,320.96667C277.49997,321.66669 278.14841,322.14865 278.88934,322.64133C279.57336,323.09616 280.33295,323.30685 281.16666,323.83334C281.85049,324.2652 282.37277,325.04852 283.01733,325.46667C283.7565,325.9462 284.49997,326.66669 285.02084,327.1875C285.82129,327.98785 286.2915,328.52136 286.84732,328.95685C287.69583,329.62164 288.60001,329.888 289.29999,330.38266L290.10001,330.69199L290.89999,331.09201L291.70132,331.58267" id="svg_9" stroke-width="3" stroke="#000" fill="none"/>
  <path t="49231,49512,49512,49557,49642,49685,49685,49716,49717,49733,49741,49788,49789,49813,49836,49837,49876,49916,49962,49996,49996,50044,50099,50099,50115,50115,50141,50157,50157,50157,50227,50243,50268,50358,50358,50397,50397,50405,50405" d="M259.5,306.66666C258.79468,305.01401 258.02625,304.41699 257.67065,303.552C257.29044,302.62711 257.59149,301.65411 257.44284,300.90952C257.25824,299.98477 256.7196,299.35156 256.53601,298.30267C256.39172,297.47836 256.19498,296.61807 255.85266,295.96667C255.38908,295.08453 255.5,294.18268 255.5,293.31934C255.5,292.42383 255.5,291.46667 255.5,290.56668C255.5,289.66666 255.5,288.86667 255.5,288.03067C255.5,287.01401 255.5,286.31934 255.5,285.30267C255.5,284.36667 255.40363,283.44339 255.66667,282.5C255.85674,281.81836 256.33713,281.17441 256.48932,280.07733C256.60074,279.27408 256.97025,278.43427 257.33334,277.66666C257.67041,276.9541 257.85718,276.00949 258.2045,275.26218L258.59982,274.46667L258.97916,273.66666" id="svg_10" stroke-width="3" stroke="#000" fill="none"/>
  <path t="51538,51671,51671,51687,51732,51772,51789,51789,51805,51828,51829,51852,51884,51931,51931,51947,51980,51980,51996,51996,51996,52021,52045,52053,52077,52077,52077,52101,52101,52141,52141,52189,52213,52213,52237" d="M272.5,222.66667C271.5,222.83333 270.85718,223.37117 270.5,224.16667C270.14282,224.96217 269.15567,225.28902 268.66666,226C268.19586,226.68449 268.44049,227.70625 267.63867,228.092C266.9921,228.40306 265.95044,228.53578 265.20001,229.02383C264.40329,229.54199 263.96542,230.40787 263.08932,230.63066C262.2059,230.85533 261.27591,230.63815 260.5,230.83333C259.69116,231.03679 258.87302,231.3358 258.14667,232.06667C257.45801,232.75963 257.19693,233.53091 256.33334,233.83333C255.64857,234.07314 254.87299,234.52051 254.10133,235.15067C253.49976,235.64194 252.70543,236.54274 252.136,237.02C251.44298,237.60086 250.5,237.83333 249.89999,238.24133L249,238.66667" id="svg_11" stroke-width="3" stroke="#000" fill="none"/>
  <path t="53340,53456,53456,53501,53501,53517,53517,53533,53549,53549,53565,53565,53597,53605,53645,53661,53661,53701,53733,53733,53765,53782,53798,53798,53814,53814,53830,53846,53870,53878,53918,53918,53934,53950,53950,53974,53990,54030,54046,54046,54086,54094,54110,54110,54126,54142,54174,54190,54238,54270,54310,54310,54326,54326,54350,54374,54390,54414,54446,54446,54454,54454,54470,54494,54510,54558,54558,54590,54606,54662,54702,54702,54793" d="M249.5,240.66667C249.5,242.50267 249.5,243.26801 249.5,244.26666C249.5,245.06667 249.5,246.06534 249.5,247.00951C249.5,247.9095 249.42511,248.88174 249.58533,249.552C249.81772,250.52422 250.32951,251.15863 250.47917,252.14583C250.61728,253.05679 251.00049,253.88547 251.33333,254.66667C251.65352,255.4182 251.5,256.30267 251.5,257.31934C251.5,258.01401 251.5,259.03067 251.5,259.97116C251.5,260.83334 251.5,261.66666 251.5,262.64517C251.5,263.46533 251.5,264.36667 251.5,265.26666C251.5,266.16666 251.5,267.07733 251.5,267.98801C251.5,268.84134 251.5,269.78134 251.5,270.66666C251.5,271.46667 251.5,272.36667 251.5,273.26666C251.5,274.1875 251.5,275.15067 251.5,275.84134C251.5,276.90952 251.5,277.76666 251.5,278.66666C251.5,279.46667 251.5,280.36667 251.5,281.26666C251.5,282.16666 251.5,283.06668 251.5,283.96667C251.5,284.86801 251.5,285.83334 251.5,286.492C251.5,287.5 251.5,288.36215 251.5,289.26666C251.5,290.16666 251.5,291.06668 251.5,291.97116C251.5,292.83334 251.5,293.66666 251.5,294.64517C251.5,295.46533 251.38106,296.50336 252.02083,297.14584C252.66223,297.78998 253.73865,297.76968 254.21466,298.46799C254.72545,299.21732 255.30133,299.66534 256.13599,299.66666L257.15268,299.66666L257.84732,299.66666L258.86401,299.66666" id="svg_12" stroke-width="3" stroke="#000" fill="none"/>
  <path t="55627,55724,55724,55758,55758,55758,55774,55774,55790,55798,55798,55805,55821,55821,55846,55846,55846,55878,55878,55910,55926,55934,55942,55966,55966,55982,55982,55998,56006,56014,56030,56046,56062,56062,56070,56079,56094,56149,56198,56198,56205,56205,56279,56279,56325,56341,56365,56397,56437,56437,56461,56689,56705,56735,56741,56741,56757,56773,56773,56789,56789,56813,56845,56895,56911,56911,56950,56950,56966,56974,56974,56982,57014,57030,57030,57038,57062,57078,57110,57134,57182,57182,57230,57230,57230,57254,57312,57358,57390,57390,57414,57446,57558,57574,57629,57725,57725,57826,57869,57885,57933,57933,57965,57965,57989,58021,58061,58061,58061,58077,58085,58085,58117,58157,58157,58173,58182,58205,58277,58293,58293,58361,58361,58377,58397,58397,58508,58508,58508,58526,58644,58644,58659,58659,58678,58678,58687,58702,58702,58702,58703,58703,58710,58710,58734,58750,58750,58766,58782,58790,58790,58806,58806,58806,58830,58830,58846,58846,58854,58878,58894,58894,58926,58958,58958,58982,58998,59006,59022,59070,59070" d="M278.5,281.66666C279.30133,281.66666 280.172,281.66666 281.04285,281.66666C282.02084,281.66666 282.81732,281.66666 283.81332,281.66666C284.65332,281.66666 285.61465,281.66666 286.5,281.66666C287.29999,281.66666 288.00146,281.99976 288.83334,282.5C289.45309,282.87268 290.5,282.66666 291.29999,282.66666C292.10001,282.66666 293.09549,282.66666 294.01468,282.66666C294.86401,282.66666 295.79999,282.66666 296.70001,282.66666C297.60001,282.66666 298.5,282.66666 299.25717,282.66666C300.15268,282.66666 301.01599,282.66666 301.97916,282.66666C302.89999,282.66666 303.79999,282.66666 304.70001,282.66666C305.60001,282.66666 306.5,282.66666 307.29999,282.66666C308.20001,282.66666 308.95746,282.89673 309.58401,283.38266C310.25644,283.90417 311.34506,283.61276 312.10132,283.75201C313.11493,283.93863 313.86237,284.34189 314.61465,284.86533C315.31799,285.35471 316.19293,285.28708 317.064,285.70267C317.80368,286.05557 318.36084,286.64865 319.33334,286.66666C320.19534,286.68262 321.10001,286.66666 322,286.66666C322.89999,286.66666 323.87674,286.48322 324.59982,286.88815C325.33719,287.30109 325.47412,288.35898 326.20984,288.96667C326.79303,289.44839 327.77374,289.74091 328.21335,290.46667C328.702,291.27341 328.517,292.27606 328.92532,293.07733C329.3154,293.84277 329.48956,294.6665 329.5,295.64517C329.50873,296.46527 329.46378,297.30347 329.50449,298.31934C329.53238,299.01544 330.0878,299.9527 330.37851,300.76666C330.68399,301.62192 330.48199,302.46686 330.5,303.36667C330.51801,304.26721 331.11813,304.97702 331.41467,305.86667C331.70056,306.7243 331.43372,307.67404 331.55716,308.48099C331.70538,309.44998 332.01962,310.16116 332.216,310.89868C332.46823,311.84592 332.5,312.86667 332.5,313.76666C332.5,314.66666 332.5,315.46667 332.5,316.36667C332.5,317.26666 332.50226,318.16666 332.5,319.06668C332.49774,319.96667 332.31134,320.79465 331.7955,321.36667C331.13971,322.09387 330.30301,322.62393 329.39999,322.66666C328.50101,322.70917 327.74283,322.66666 326.84732,322.66666C325.98401,322.66666 324.86978,322.77505 324.5,322.10416C324.01495,321.22412 324.06082,320.41998 323.85266,319.672C323.56616,318.64249 323.67645,317.62741 323.41467,316.86667C323.14642,316.0871 322.16916,315.55872 321.78534,314.86667C321.32806,314.04218 321.5,313.06668 321.5,312.16666C321.5,311.25601 321.57843,310.33838 321.46399,309.492C321.35345,308.6745 320.73651,308.02405 320.11066,307.26666C319.56653,306.60818 319.43942,305.77249 319.07468,304.84134C318.80139,304.14362 318.51059,303.18768 318.5,302.25601C318.48965,301.3454 318.68307,300.54056 318.05716,299.68832C317.61243,299.08279 316.52847,298.73172 315.8045,298.67117C314.91974,298.5972 313.83334,298.66666 313.164,298.66666C312.39868,298.66666 311.60132,298.66666 310.836,298.66666C309.42868,298.66666 308.70532,298.66666 307.74283,298.66666C306.84732,298.66666 305.98401,298.66666 305.02084,298.66666C304.1955,298.66666 303.1691,298.74646 302.47916,298.625C301.47296,298.44788 300.9314,297.91614 300.10001,297.37201C299.327,296.86609 298.52148,296.6875 297.52151,296.66666C296.70151,296.64957 296.04849,296.33566 295.33334,295.83334C294.63791,295.34488 293.70001,295.66666 292.74283,295.66666C291.84732,295.66666 290.98401,295.66666 290.02084,295.66666C289.20001,295.66666 288.29999,295.66666 287.39999,295.6665L286.5,295.5L285.86401,295.09201" id="svg_13" stroke-width="3" stroke="#000" fill="none"/>
  <path t="60676,60852,60852,60852,60852,60868,60868,60868,60894,60894,60894,60945,60945,61012,61012,61078,61078,61093,61110,61118,61142,61142,61182,61182,61182,61260,61260,61276,61276,61276,61325,61341,61381,61381,61381,61397,61421,61421,61429,61429,61430,61446,61453,61469" d="M231.5,209.66667C233.32533,209.688 234.40201,209.94005 234.864,210.53867C235.38344,211.21172 235.6167,212.11621 236.10001,212.79466C236.70427,213.64293 237.52457,214.15425 237.8,214.72917C238.24005,215.64769 238.66385,216.48816 239.064,217.28133C239.48645,218.1187 239.39009,218.88951 239.784,219.78133C240.11087,220.52136 240.48758,221.36674 240.5,222.26666C240.51271,223.18765 240.67389,224.01207 241.04167,224.6875C241.59718,225.7077 242.14256,226.27161 242.67467,226.83067C243.46378,227.65977 244.04051,228.15131 244.5,229C244.84842,229.64355 244.89182,230.53313 245.69867,231.412C246.26013,232.02359 246.65874,232.8365 246.92534,233.492C247.20764,234.18613 247.42155,235.19296 247.78667,236.15199C247.9977,236.7063 248.65723,237.67444 249.14816,238.26216C249.62953,238.83844 250.25717,239.645 250.66667,240.5L251.416,240.952" id="svg_14" stroke-width="3" stroke="#000" fill="none"/>
  <path t="63424,63586,63602,63622,63686,63744,63744,63744,63797,63798,63846,63878,63885,63909,63909,63933,64003,64060,64060,64093,64175,64191,64229,64309,64309,64325,64325,64365" d="M220.5,146.66667C218.8,146.66667 217.89999,146.66667 217,146.66667C216.07866,146.66667 215.16611,146.68997 214.24933,146.65601C213.50439,146.6284 212.4247,146.44633 211.80901,145.96217C211.03415,145.35284 210.1946,145.05858 209.584,144.38133C209.0015,143.73524 208.63722,143.26849 207.936,142.64133C207.29988,142.07237 207.5,141.01401 207.5,140.31934C207.5,139.30267 207.5,138.36667 207.5,137.46666C207.5,136.56667 207.5,135.66667 207.5,134.9095L207.5045,134.01401L207.58533,133.15067L207.92534,132.30267" id="svg_15" stroke-width="3" stroke="#000" fill="none"/>
  <path t="68708,68724,68724,68724,68742,68742,68757,68757,68757,68765,68765,68765,68789,68789,68805,68805,68805,68821,68829,68829,68845,68845,68845,68853,68853,68861,68861,68869,68885,68885,68893,68893,68961,68977,68977,69090,69090,69090,69090,69090,69106,69106,69106,69106,69106,69133,69133,69189,69213,69221,69229,69229,69237,69237,69245,69245,69245,69253,69253,69253,69261,69277,69360,69360,69375,69375,69375,69375,69375,69397,69397,69398,69398,69398,69407,69407,69407,69407,69407,69413,69414,69414,69414,69414,69414,69422,69422,69422,69429,69429,69429,69438,69438,69494,69510,69510,69510,69510,69510,69510,69510,69525,69525,69533,69533,69533,69541,69541,69541,69549,69549,69549,69581,69621,69621,69637,69638,69645,69645,69645,69654,69661,69661,69670,69670,69670,69677,69677,69677,69686,69686,69686,69694,69694,69694,69694,69702,69702,69702,69702,69702,69702,69741,69741,69741,69742,69749,69749,69765,69765,69773,69773,69781,69789,69821,69821,69877,69877,69893,69893,69893,69893,69893,69918,69942,69950,69950,69958,69958,69966,69966,69974,69974,69974,69982,69982,69982,69990,69990,69998,69998,69998,70077,70077,70093,70093,70109,70133,70141,70149,70149,70157,70165,70165,70173,70173,70181,70181,70189,70189,70190,70197,70197,70205,70205,70357,70357,70373,70373,70391,70391,70398,70398,70405,70406,70477,70477,70492,70510,70510,70526,70526,70526,70582,70614,70614,70622,70630,70630,70638,70645,70646,70654,70654,70662,70662,70670,70670,70678,70745,70761,70781,70782,70806,70806,70830,70893,70908,70926,70934,70934,71011,71011,71026,71026,71054,71112" d="M-0.5,86.66666C0.04167,87.66666 0.66334,88.34214 1.47917,88.64584C2.32996,88.96255 2.71023,89.60022 3.356,90.15067C4.02181,90.7182 4.59254,91.05507 5.79967,91.64516C6.38158,91.92963 7.26613,92.17802 8.16667,92.66666C8.99958,93.11862 9.50688,93.82921 9.9,94.492C10.30717,95.17847 11.01049,95.9847 11.33333,96.83334C11.64427,97.65069 11.80903,98.68243 12.20533,99.26667C12.62434,99.88438 13.2812,100.86005 13.47917,101.64584C13.69281,102.49384 14.24699,103.19468 14.464,104.07733C14.68159,104.96236 14.5,105.84133 14.5,106.78267C14.5,107.55067 14.33328,108.53602 14.66667,109.5C14.91667,110.22289 15.65434,110.84611 16.32533,111.48133C16.8381,111.96677 17.7582,112.64132 18.55467,112.57867C19.5669,112.49905 20.18279,112.2845 21.08483,111.96217C22.03607,111.62225 22.54615,110.91106 23.20533,110.36667C23.88545,109.80499 24.40956,108.88845 25.11067,108.67733C25.96275,108.42075 26.7657,109.204 27.064,109.888C27.47499,110.8304 27.48958,111.68736 27.5,112.83334C27.50714,113.6193 27.5,114.44133 27.5,115.5C27.5,116.205 27.5,117.005 27.5,118.03067C27.5,118.97117 27.24569,119.88239 27.52083,120.625C27.75515,121.25742 28.66667,120.5 29.16617,120.0005C29.78267,119.384 30.27062,118.89329 31.14283,118.024C31.80878,117.36028 32.15541,117.0098 32.88533,116.31734C33.61149,115.62845 34.31872,114.98171 35.01867,114.43733C35.6826,113.92096 36.38503,113.46492 37.15467,113.06934C37.98745,112.6413 38.94919,112.26418 39.4535,112.07117C40.47623,111.67973 40.98969,111.50732 41.96267,111.152C43.21637,110.69415 43.87555,110.42316 44.69333,110.07733C45.66633,109.66586 46.44233,109.35333 47.23867,109.10267C48.16038,108.81254 48.92743,108.57766 49.8045,108.323C50.64597,108.07867 51.3653,108.55667 51.9045,109.13734C52.74775,110.04545 53.10313,110.60664 53.45833,111.14584C53.94624,111.88647 54.44034,113.02632 54.58267,113.72C54.78774,114.71951 54.91721,115.35851 55.2045,116.36584C55.48195,117.33867 55.7846,118.15921 56.1,118.84534C56.48156,119.67539 56.86036,120.47932 57.3,121.18134C57.85194,122.06266 58.28198,123.37553 59.14283,123.25233C59.8219,123.15516 59.5,121.85233 59.5,120.89867C59.5,120.16666 59.49246,119.43465 59.5,118.33867C59.50675,117.3576 59.71426,116.66282 60.35467,115.9C60.77137,115.40366 61.49871,114.63947 62.33333,114.16666C63.22417,113.66203 63.96012,113.65967 64.9215,113.44517C65.74356,113.26176 66.60495,112.96352 67.5,112.66666C68.41396,112.36354 69.0625,112.14584 69.7715,111.9095C71,111.5 71.46289,111.34211 72.458,111.0185C72.97543,110.85023 74.02166,110.51974 74.542,110.3765C75.99383,109.97685 76.83852,109.8137 77.57066,109.73867C78.46966,109.64655 79.53069,109.6619 80.38267,109.66666C81.33604,109.672 82.118,109.69634 83.0955,110.01933C83.85827,110.27137 85.01611,110.33127 85.44283,111.02834C85.94485,111.8484 85.48677,112.68759 85.5,113.66666C85.51067,114.45621 85.76685,115.57753 86.36134,116.02C86.96161,116.46677 87.97899,116.65625 88.9,116.66666C89.79994,116.67684 90.7,116.66666 91.60017,116.66666C92.38533,116.66666 93.336,116.66494 94.10133,116.66666C95.10001,116.66891 95.9265,116.62963 96.90134,116.95467C97.54414,117.16899 98.21437,117.60363 99.18134,118.43467C99.72089,118.89838 100.28053,119.35374 101,120.33334C101.46701,120.9692 101.79668,121.8651 102.372,122.492C102.87837,123.04375 103.66852,123.70001 104.47916,124.125C105.30537,124.55814 106.22431,124.47263 107.1,124.70267C107.95586,124.9275 108.20166,126.11044 108.94283,126.54517C109.59039,126.92498 110.61467,126.66666 111.60033,126.66666C112.31433,126.66666 113.268,126.66666 114,126.66666C115.16666,126.66666 116,126.66666 116.83334,126.66666C117.75066,126.66666 118.49467,126.66666 119.53067,126.66666C120.38267,126.66666 121.32533,126.66666 122.016,126.66666C123.08933,126.66666 123.91067,126.66666 124.8215,126.66666C125.71066,126.66666 126.69984,126.66666 127.47916,126.66666C128.47867,126.66666 129.25375,126.70641 130.15266,126.66217C131.01874,126.61954 131.77809,126.04939 132.7,125.752C133.56038,125.47445 134.5,125.66666 135.172,125.66666C136.26801,125.66666 137,125.66666 137.73199,125.66666C138.83867,125.66666 139.82133,125.66666 140.5,125.66666C141.4785,125.66666 142.5,125.66666 143.3,125.66666C144.136,125.66666 145.15717,125.66666 145.9045,125.66666C146.89867,125.66666 147.66545,125.6155 148.616,125.668C149.38741,125.7106 150.30771,126.13805 151.01601,126.38267C151.95978,126.70861 152.89999,126.66666 153.8045,126.66666C154.66667,126.66666 155.5,126.66666 156.4785,126.66666C157.29866,126.66666 158.2,126.66666 159.10001,126.66666C160,126.66666 160.99875,126.55615 161.60017,127.1095C162.27402,127.72946 162.78719,128.69592 163.32533,129.02C164.28174,129.59598 165.08934,129.65601 166,129.66667L166.89999,129.66667" id="svg_16" stroke-width="3" stroke="#000" fill="none"/>
  <path t="71992,72106,72125,72134,72134,72141,72141,72141,72141,72149,72150,72150,72165,72165,72221,72230,72237,72237,72237,72245,72246,72246,72246,72253,72254,72254,72254,72261,72261,72262,72262,72262,72270,72270,72270,72270,72270,72270,72277,72277,72341,72341,72341,72357,72365,72365,72365,72373,72373,72373,72381,72381,72381,72381,72381,72389,72389,72389,72389,72389,72389,72397,72397,72397,72397,72397,72399,72405,72405,72405,72405,72413,72413,72413,72437,72437,72445,72446,72462,72462,72469,72469,72543,72543,72559,72559,72559,72559,72559,72581,72582,72589,72589,72598,72598,72598,72605,72605,72614,72621,72621,72633,72653,72709,72725,72725,72725,72750,72750,72827,72827,72842,72842,72912,72912,72912,72912,73025,73025,73025,73025,73025,73041,73041,73041,73066,73066,73066,73070,73070,73070,73080,73080,73080,73086,73086,73086,73086,73101,73193,73193,73253,73261,73279,73279,73285,73357,73365,73365,73374,73374,73374,73374,73374,73382,73382,73382,73382,73382,73390,73390,73390,73390,73390,73397,73398,73398,73398,73461,73461,73477,73494,73510,73526,73595,73610,73610,73610,73610,73610,73610,73654,73654,73654,73654,73654,73718,73718,73725,73725,73742,73742,73750,73806,73830,73830,73839,73839,73852,73852,73852,73852,73855,73855,73855,73855,73855,73861,73862,73862,73943,73943,73959,73959,74045,74045,74060,74060,74060,74128,74128,74128,74210,74210,74210,74210,74210,74225,74225,74225,74225,74225,74225,74246,74246,74246,74255,74421,74493,74493,74550,74566,74582,74598,74598,74606,74606,74606,74654,74661,74670,74679,74680,74686,74687,74687,74696,74702,74720,74720,74720,74742,74750,74750,74758,74758,74766,74774,74774,74774,74774,74782,74782,74782,74790,74790,74790,74790,74798,74798,74854,74861,74871,74871,74878,74878,74889,74894,74894,74894,74993,75038,75039,75054,75054,75062,75062,75072,75078,75078,75079,75087,75088,75088,75088,75094,75094,75094,75094,75110,75110,75166,75182,75190,75190,75230,75246,75262,75262,75270,75279,75280,75288,75296,75297,75305,75305,75310,75310,75318,75390,75390,75406,75422,75431,75439,75455,75463,75479,75480,75496,75497,75510,75534,75542,75558,75558,75566,75566,75582,75582,75590,75590,75693,75693,75693,75693,75693" d="M288.5,131.66667C288.5,129.96666 288.44025,128.99609 288.78799,128.18266C289.10071,127.45122 289.81195,126.79591 290.51434,126.41933C291.29971,125.99827 291.91937,125.8149 293.09732,125.184C293.68747,124.86791 294.43997,124.2788 295.35699,123.90967C296.16055,123.5862 297.11761,123.52237 298.04166,123.70834C298.86877,123.8748 299.53314,124.34242 300.24933,124.888C301.20648,125.61715 301.71576,126.25995 302.11465,126.93867C302.40149,127.42674 302.98532,128.63733 303.336,129.33867C303.71066,130.088 303.90491,130.47546 304.5,131.66667C304.90027,132.46786 305.30154,133.27657 305.5,133.6875C305.90317,134.52231 306.50174,135.83257 306.69983,136.28751C307.099,137.20432 307.47711,138.10506 307.664,138.53334C308.01089,139.32832 308.56049,140.56851 309.12534,141.25999C309.76242,142.03993 310.37354,142.44371 310.93066,143.18266C311.52704,143.97366 312.16086,144.57701 312.79733,144.63066C313.81564,144.71649 314.81866,144.66667 315.54166,144.66667C316.35468,144.66667 317.36465,144.66667 318.17599,144.66667C319.08334,144.66667 319.56799,144.66667 320.58932,144.66667C321.66666,144.66667 322.784,144.66667 323.35266,144.66667C324.5,144.66667 325.07468,144.66667 325.64734,144.66667C327.33334,144.66667 327.87817,144.66667 328.93384,144.66667C329.44266,144.66667 330.41733,144.66667 331.328,144.66667C332.55701,144.66667 333.28568,144.66667 334.27866,144.66667C334.89734,144.66667 336.09866,144.66667 336.97916,144.66667C337.81467,144.66667 338.81467,144.66667 339.47916,144.66667C340.5,144.66667 341.51862,144.53816 342.33334,144.83333C343.03546,145.08771 343.64188,145.96616 343.97916,146.66667C344.43774,147.61917 344.5596,148.45335 345.06934,149.15199C345.48218,149.71783 346.36542,150.64609 346.73834,151.26216C347.17731,151.9873 347.42429,152.92328 347.58401,153.636C347.819,154.68462 348.12149,155.44154 348.33334,156.5C348.47424,157.20393 348.49774,158.06216 348.5,159.06534C348.50171,159.83067 348.5,160.78133 348.5,161.66667C348.5,162.46666 348.46881,163.3672 348.5,164.26666C348.53128,165.1683 349.16763,165.75981 350.02084,166.1875C350.7363,166.54614 351.56335,167.12492 352.07867,167.84134C352.63806,168.61903 352.67261,169.61443 353.5,170.125C353.96097,170.40945 354.79504,169.5134 355.52084,169.1875C356.47073,168.76099 357.28888,168.68468 358.33334,168.66667C359.02075,168.65483 360.0433,168.68814 360.75067,168.65601C361.73383,168.61136 362.7182,168.35115 363.29733,167.86534C364.0679,167.21893 364.67975,166.6868 365.336,166.24533C366.11765,165.7195 366.724,165.14301 367.28934,164.40533C367.68118,163.89406 368.32214,162.8266 368.75183,162.12384C369.15103,161.47093 369.80951,160.63843 370.50534,160.07567C370.98441,159.68822 371.76688,159.30525 372.828,158.71733C373.62933,158.27336 374.01309,157.65929 374.37866,156.68834C374.69656,155.84399 375.5,155.66667 376.29999,155.66667C377.20001,155.66667 378.2417,155.82251 378.89999,155.188C379.4581,154.65004 379.6066,153.68259 379.8045,152.9425C380.02817,152.10609 380.24838,151.20329 380.38535,150.74667C380.79532,149.37987 381.15012,148.51628 381.52084,147.66667C381.70712,147.23978 382.10883,146.38599 382.70001,145.04567C382.90256,144.58646 383.29675,143.66124 383.5,143.20833C383.89377,142.33084 384.48004,141.15393 384.89734,140.52267C385.43323,139.71201 386.02148,139.11053 386.33066,138.26933C386.64618,137.4109 387.10315,136.29842 387.97916,136.6875C388.69186,137.00406 388.12564,138.51337 388.85718,138.94867C389.49832,139.33018 390.00519,138.09644 390.25717,137.60583C390.78897,136.57047 391.35034,135.89235 391.90451,135.15683C392.51605,134.34517 392.89999,133.7 393.29999,133.02667C393.70001,132.35333 393.99994,131.63074 394.89868,130.724C395.42624,130.19173 396.47223,129.73178 397.25266,129.67117C398.14999,129.60149 399.03598,129.49115 399.97916,129.6875C400.8476,129.8683 401.4296,130.75687 402.02084,131.14583C402.9021,131.72559 403.82147,131.64635 404.47882,130.78067C404.84619,130.29688 405.00543,129.57707 405.30984,128.84866C405.80832,127.6559 406.25986,126.86517 406.73999,126.088C406.97583,125.70626 407.5415,125.03282 408.13568,123.71C408.46188,122.98379 408.63461,122.2905 409.33334,121.5C409.79184,120.98129 410.57169,120.57349 411.44199,120.72833C412.44965,120.90761 413.07666,121.1162 413.5,120.33334C413.85291,119.68076 414.06506,118.8423 414.66666,117.83334C415.10327,117.10103 415.57364,116.39597 416.47882,115.90967C417.11099,115.57005 418.26895,115.68774 419,115.64584C419.73361,115.60378 420.72748,115.3417 421.30533,114.84783C422.09088,114.17645 422.7597,113.41106 423.21335,112.84534C423.66693,112.27968 424.20987,111.38536 424.392,110.488C424.55362,109.69172 424.14246,108.42587 424.78534,107.75066C425.38525,107.12057 426.15408,106.8568 427.10001,106.67733C427.98428,106.50955 428.91077,106.68004 429.8215,106.6665C430.52106,106.65611 431.50876,106.5253 432.28934,106.24133C433.02368,105.97419 433.93051,105.50417 434.60983,105.01933C435.27359,104.54559 436.33905,104.59904 437.16135,104.70267C438.05487,104.81527 438.74387,105.11608 439.73199,105.38267C440.6752,105.63714 441.31412,106.01 441.83334,106.83334C442.27921,107.54034 442.73907,108.17823 443.74734,108.55233C444.61588,108.87458 445.5,108.66666 446.47849,108.66666C447.1955,108.66666 448.06253,108.67407 449,108.66666C449.85358,108.65991 450.83853,108.68894 451.36267,108.41067C452.44995,107.8334 452.52179,106.81867 452.75067,106.26266C453.25955,105.02643 453.77429,104.4771 454.26001,103.93867C454.72183,103.42671 455.68378,102.47909 456.19101,101.97567C456.89734,101.27466 457.73514,100.48068 458.5,101C459.1933,101.47073 459.39822,102.48947 459.48932,103.256C459.60175,104.2022 459.69754,105.217 459.936,105.90667C460.18024,106.61302 460.79184,107.58051 461.66666,107.66666C462.496,107.74834 463.47867,107.66666 464.25266,107.66666C465.15268,107.66666 466.09683,107.3379 466.97916,107.72916C467.76971,108.07973 467.91263,108.97007 468.20001,109.78017C468.61868,110.96043 468.79721,111.57378 469.02084,112.1875C469.37387,113.15626 469.81323,114.19144 470.15268,114.91033C470.49194,115.62885 470.79581,116.33081 471.47849,117.402C471.83771,117.96565 472.93716,118.94977 473.41467,118.38C473.98257,117.70238 473.40613,116.66214 473.50015,115.68833C473.58386,114.8213 474.5,114.66666 475.29999,114.66666C476.25717,114.66666 477.21326,114.90407 477.93066,114.58134C478.76578,114.20566 479.20346,113.34717 479.909,112.96667C480.8844,112.44063 481.4545,112.11919 482.47849,111.788C483.28296,111.52782 483.98032,111.12489 484.70001,110.468C485.28452,109.93452 486.20001,109.66891 487.10001,109.66666C488,109.66441 488.89999,109.66666 489.79999,109.66666C490.70132,109.66666 491.66666,109.66666 492.32535,109.66666C493.33334,109.66666 494.1955,109.66666 495.10001,109.66666C496,109.66666 496.9375,109.74789 497.70132,109.38267C498.43121,109.03368 499.33542,108.68585 500.10132,108.668C501.09973,108.64473 501.90097,108.70854 502.89999,108.664C503.70221,108.62823 504.69968,108.22383 505.27866,107.80534L505.78568,107.31483L506.39017,106.41483L506.58267,105.69733" id="svg_17" stroke-width="3" stroke="#000" fill="none"/>
  <path t="76975,77073,77073,77073,77073,77073,77073,77089,77089,77089,77089,77089,77089,77089,77089,77089,77089,77110,77110,77110,77110,77110,77110,77110,77117,77117,77117,77117,77117,77126,77126,77126,77126,77126,77133,77133,77133,77133,77133,77133,77141,77141,77142,77142,77142,77149,77149,77149,77149,77149,77158,77158,77158,77158,77158,77158,77165,77165,77165,77166,77166,77173,77173,77173,77173,77174,77181,77181,77182,77182,77189,77189,77189,77189,77197,77197,77198,77198,77205,77205,77205,77213,77213,77214,77221,77221,77221,77222,77229,77229,77237,77237,77246,77246,77253,77253,77262,77262,77269,77269,77269,77270,77277,77278,77278,77278,77285,77286,77286,77286,77286,77286,77295,77295,77295,77296,77296,77296,77296,77305,77305,77305,77306,77306,77306,77306,77310,77310,77311,77311,77311,77311,77311,77311,77318,77318,77318,77318,77318,77319,77319,77319,77327,77327,77327,77327,77328,77328,77333,77334,77334,77334,77334,77341,77341,77349,77350,77350,77350,77365,77373,77373,77405,77405,77413,77421,77429,77437,77437,77446,77446,77453,77453,77454,77462,77462,77469,77469,77477,77477,77485,77486,77501,77533,77549,77557,77565,77566,77573,77573,77581,77582,77589,77589,77590,77597,77598,77598,77605,77605,77606,77613,77614,77614,77621,77637,77669,77669,77709" d="M3.5,212.66667C5.244,211.67734 6.16667,211.66667 6.84,211.66667C7.63333,211.66667 8.50667,211.66667 9.42,211.66667C10.77867,211.66667 11.216,211.66667 12.07467,211.66667C12.92533,211.66667 13.784,211.66667 15.12183,211.66667C15.588,211.66667 16.55733,211.66667 17.58267,211.66667C18.11883,211.66667 19.83333,211.66667 20.44233,211.66667C21.06533,211.66667 21.69633,211.66667 22.95833,211.66667C23.57733,211.66667 24.18033,211.66667 25.83333,211.66667C26.76133,211.66667 27.18033,211.66667 28.32933,211.66667C29.06533,211.66667 30.243,211.66667 31.11433,211.66667C31.572,211.66667 32.52133,211.66667 33.50267,211.66667C34.5,211.66667 35.5,211.66667 36,211.66667C37,211.66667 38,211.66667 38.5,211.66667C39.99983,211.66667 40.49866,211.66667 41.48933,211.66667C42.464,211.66667 42.94283,211.66667 44.33333,211.66667C45.21733,211.66667 46.08533,211.66667 46.96133,211.66667C47.40983,211.66667 48.83333,211.66667 49.868,211.66667C50.40533,211.66667 51.5,211.66667 52.04933,211.66667C52.59467,211.66667 54.16667,211.66667 55.13066,211.66667C55.59017,211.66667 56.47917,211.66667 57.34817,211.66667C58.66667,211.66667 59.58267,211.66667 60.04817,211.66667C60.97917,211.66667 61.89017,211.66667 63.16667,211.66667C63.92933,211.66667 64.628,211.66667 65.591,211.66667C66.5,211.66667 67.4045,211.66667 68.336,211.66667C68.98534,211.66667 70.02133,211.66667 70.75267,211.66667C71.87466,211.66667 72.616,211.66667 73.67834,211.66667C74.65334,211.66667 75.25333,211.66667 76.33334,211.66667C77.28533,211.66667 78.00983,211.66667 79.14267,211.66667C79.80534,211.66667 80.5,211.66667 81.532,211.66667C82.45683,211.66667 83.4375,211.66667 84.33334,211.66667C85.25267,211.66667 86.15717,211.66667 86.9045,211.66667C87.9,211.66667 88.7,211.66667 89.70016,211.66667C90.52084,211.66667 91.66666,211.66667 92.46167,211.66667C93.04166,211.66667 93.98666,211.66667 95.02167,211.66667C95.76167,211.66667 96.54166,211.66667 97.36166,211.66667C98.66666,211.66667 99.588,211.66667 100.06617,211.66667C101.0625,211.66667 101.58266,211.66667 102.672,211.66667C103.83334,211.66667 104.44267,211.66667 105.70533,211.66667C106.35067,211.66667 107,211.66667 107.64933,211.66667C108.932,211.66667 110.16666,211.66667 110.7575,211.66667C111.89917,211.66667 112.46,211.66667 113.58667,211.66667C114.1625,211.66667 114.75333,211.66667 116.66434,211.66667C117.35467,211.66667 118.067,211.66667 118.79733,211.66667C119.54166,211.66667 120.296,211.66667 121.05634,211.66667C121.81866,211.66667 123.33334,211.66667 124.07816,211.66667C124.812,211.66667 126.24267,211.66667 126.9375,211.66667C127.61733,211.66667 128.28117,211.66667 128.92799,211.66667C130.757,211.66667 131.32933,211.66667 132.42799,211.66667C132.95833,211.66667 133.991,211.66667 134.49733,211.66667C135.99933,211.66667 136.49466,211.66667 137.45734,211.66667C138.356,211.66667 139.15866,211.66667 140.36267,211.66667C141.16533,211.66667 142.26401,211.66667 142.858,211.66667C143.82401,211.66667 144.448,211.66667 145.633,211.66667C146.66667,211.66667 147.5,211.66667 148.33333,211.66667C149.1955,211.66667 150.10001,211.66667 151,211.66667C151.91066,211.66667 152.8215,211.66667 153.71066,211.66667C154.7,211.66667 155.5,211.66667 156.5,211.66667C157.3,211.66667 158.10001,211.66667 159.10001,211.66667C159.89999,211.66667 160.89999,211.66667 161.7,211.66667C162.69983,211.66667 163.47917,211.66667 164.33333,211.66667C165.1955,211.66667 166.10001,211.66667 167,211.66667C167.89999,211.66667 168.86139,211.81233 169.70134,211.38133C170.32072,211.06352 171.1337,210.31541 171.9045,210.02383C172.68056,209.73027 173.51454,209.73804 174.5,209.5C175.32715,209.3002 175.94434,208.9519 177.18533,208.75067C177.73196,208.66203 178.61186,208.65977 179.79984,208.44533C180.4001,208.33698 181.25281,208.04025 182.33333,207.83333C183.24597,207.65855 184.01334,207.66734 184.97917,207.66667C185.91066,207.66603 186.82133,207.66667 187.5,207.66667L188.61467,207.66667" id="svg_18" stroke-width="3" stroke="#000" fill="none"/>
  <path t="78581,78628,78643,78643,78643,78643,78643,78643,78643,78643,78643,78643,78643,78662,78662,78662,78662,78662,78662,78662,78662,78662,78670,78670,78670,78670,78670,78670,78670,78670,78670,78678,78678,78678,78678,78678,78680,78680,78680,78680,78687,78687,78687,78687,78687,78687,78687,78687,78687,78695,78695,78695,78695,78695,78695,78695,78695,78695,78702,78702,78702,78702,78702,78702,78702,78702,78702,78711,78711,78711,78711,78711,78711,78711,78711,78718,78718,78718,78718,78718,78726,78726,78726,78726,78734,78734,78734,78742,78742,78742,78742,78742,78750,78750,78750,78750,78750,78758,78758,78758,78758,78766,78766,78766,78774,78774,78774,78774,78782,78782,78782,78782,78782,78782,78790,78790,78790,78790,78798,78798,78798,78798,78806,78806,78806,78806,78806,78814,78814,78814,78814,78822,78822,78822,78822,78822,78822,78830,78831,78831,78831,78831,78831,78838,78838,78838,78838,78838,78838,78847,78847,78847,78847,78854,78854,78854,78854,78862,78862,78862,78862,78870,78870,78870,78870,78870,78878,78878,78878,78878,78878,78886,78886,78895,78895,78895,78895,78895,78902,78902,78902,78902,78911,78911,78911,78911,78918,78918,78926,78927,78927,78934,78934,78942,78950,78950,78958,78958,78966,78967,78967,78974,78990,78990,78990,78998,78998,79006,79006,79014,79022,79031,79031,79046,79054,79054,79070,79070,79078,79078,79086,79086,79095,79095,79111,79111,79118,79118,79126,79134,79142,79142,79150,79150,79158,79158,79158,79174,79174,79174,79182,79182,79206,79206,79206,79214,79222,79222,79238,79286,79286,79318,79318,79342,79350" d="M265.5,208.66667C267.24399,208.66667 268.16666,208.66667 268.84134,208.66667C269.64401,208.66667 270.54266,208.66667 271.50534,208.66667C272.5,208.66667 273.50665,208.66667 274.02249,208.66667C275.10416,208.66667 275.67999,208.66667 276.28583,208.66667C278.33334,208.66667 279.10699,208.66667 279.92267,208.66667C280.77234,208.66667 281.64801,208.66667 282.54166,208.66667C283.44534,208.66667 284.35101,208.66667 285.25067,208.66667C287,208.66667 287.83585,208.66667 288.64667,208.66667C289.4375,208.66667 290.21335,208.66667 290.97916,208.66667C291.73999,208.66667 292.50082,208.66667 293.26666,208.66667C294.83334,208.66667 295.64301,208.66667 296.47067,208.66667C297.31433,208.66667 298.172,208.66667 299.04166,208.66667C299.92133,208.66667 300.80899,208.66667 301.70267,208.66667C303.5,208.66667 304.39951,208.66667 305.29599,208.66667C306.18649,208.66667 307.06799,208.66667 307.9375,208.66667C308.79199,208.66667 309.62851,208.66667 310.444,208.66667C312,208.66667 312.73599,208.66667 313.448,208.66667C314.142,208.66667 314.82401,208.66667 315.5,208.66667C316.17599,208.66667 316.858,208.66667 317.552,208.66667C319,208.66667 319.76401,208.66667 320.552,208.66667C321.358,208.66667 322.17599,208.66667 323,208.66667C323.82401,208.66667 324.642,208.66667 325.448,208.66667C327,208.66667 327.73517,208.66667 328.44135,208.66667C329.11951,208.66667 329.77066,208.66667 330.39584,208.66667C330.996,208.66667 331.57217,208.66667 333.16666,208.66667C334.12799,208.66667 334.58118,208.66667 335.4375,208.66667C336.23383,208.66667 337.6785,208.66667 338.34283,208.66667C339.28934,208.66667 339.89868,208.66667 341.10266,208.66667C341.72134,208.66667 342.71432,208.66667 343.83334,208.66667C344.66934,208.66667 345.56134,208.66667 346.02084,208.66667C346.95184,208.66667 348.33334,208.66667 349.21335,208.66667C349.63834,208.66667 350.45834,208.66667 351.61334,208.66667C352.6785,208.66667 353.34283,208.66667 354.28934,208.66667C354.89868,208.66667 356.10132,208.66667 357.02084,208.66667C357.65717,208.66667 359.02167,208.66667 359.76166,208.66667C360.54166,208.66667 361.36166,208.66667 362.66666,208.66667C363.12115,208.66667 364.04816,208.66667 364.97916,208.66667C365.43866,208.66667 366.33066,208.66667 367.55716,208.66667C368.63867,208.66667 369.31467,208.66667 369.98267,208.66667C371.38666,208.66667 372.14667,208.66667 372.94666,208.66667C373.78665,208.66667 374.66666,208.66667 375.58267,208.66667C376.51468,208.66667 377.43866,208.66667 377.89017,208.66667C379.16666,208.66667 379.93332,208.66667 381.02084,208.66667C381.76251,208.66667 383,208.66667 383.46417,208.66667C384.46249,208.66667 385.52084,208.66667 386.06,208.66667C386.59915,208.66667 388.16666,208.66667 389.13333,208.66667C389.59915,208.66667 390.52084,208.66667 391.46249,208.66667C391.95334,208.66667 393.56384,208.66667 394.15067,208.66667C395.36533,208.66667 395.97916,208.66667 396.58801,208.66667C397.76266,208.66667 398.83334,208.66667 399.75867,208.66667C400.556,208.66667 401.25732,208.66667 402.5,208.66667C403.10132,208.66667 404.02084,208.66667 404.98532,208.66667C406.02151,208.66667 406.75717,208.66667 407.52084,208.66667C408.3045,208.66667 409.5,208.66667 410.30133,208.66667C411.11066,208.66667 411.936,208.66667 412.78534,208.66667C414.12082,208.66667 414.57999,208.66667 415.49335,208.66667C416.36667,208.66667 417.16,208.66667 418.36401,208.66667C419.20132,208.66667 420.16666,208.66667 420.84,208.66667C421.63333,208.66667 422.50665,208.66667 423.42001,208.66667C424.77832,208.66667 425.21335,208.66667 426.05334,208.66667C426.85333,208.66667 428.33334,208.66667 429.01334,208.66667C429.95834,208.66667 430.53833,208.66667 431.81601,208.66667C432.5,208.66667 433.66666,208.66667 434.44818,208.66667C435.23868,208.66667 436.16666,208.66667 437.07867,208.66667C437.91068,208.66667 438.8215,208.66667 439.71066,208.66667C440.70001,208.66667 441.5,208.66667 442.5,208.66667C443.28934,208.66667 444.01468,208.66667 445.02084,208.66667C446.04285,208.66667 446.76132,208.66667 447.55182,208.66667C448.57834,208.66667 449.45834,208.66667 450.47849,208.66667C451.29868,208.66667 452.10001,208.66667 453.02084,208.66667C453.98401,208.66667 454.67465,208.66667 455.74283,208.66667C456.60016,208.66667 457.38535,208.66667 458.336,208.66667C459.10132,208.66667 460.10001,208.66667 460.89999,208.66667C461.89868,208.66667 462.84283,208.66667 463.75183,208.66667C464.46933,208.66667 465.50534,208.66667 466.24933,208.66667C467.35699,208.66667 468.19101,208.66667 469,208.66667C469.91068,208.66667 470.8215,208.66667 471.71066,208.66667C472.70001,208.66667 473.50003,208.67325 474.5,208.66667C475.31073,208.66133 475.96448,208.64784 476.92133,208.44533C477.73285,208.27357 478.53827,207.97438 479.57849,207.78799C480.47305,207.62772 481.50876,207.5253 482.28934,207.24133C483.02368,206.9742 483.87415,206.68468 484.82132,206.66667C485.6745,206.65045 486.61465,206.66667 487.5,206.66667C488.25717,206.66667 489.15268,206.66667 490.01599,206.66667L490.97916,206.66667L491.91068,206.66667" id="svg_19" stroke-width="3" stroke="#000" fill="none"/>
 </g>
</svg>