<svg width="500" height="333.3333333333333" xmlns="http://www.w3.org/2000/svg" xmlns:svg="http://www.w3.org/2000/svg" xmlns:xlink="http://www.w3.org/1999/xlink">
 <!-- Created with SVG-edit - http://svg-edit.googlecode.com/ -->
 <g display="inline" class="layer">
  <title>Layer 1</title>
  <path t="0,313,376,424,472,472,504,504,512,544,618,618,685,735,787,787,832,832,840,918,918,951,1018,1018,1056,1102,1102,1143,1199,1224,1231,1263,1318,1352,1352,1384,1483,1568,1583,1583,1608,1648,1656,1680,1688,1712,1720,1736,1752,1768,1768,1808,1816,1840,1848,1864,1872,1880,1896,1904,1904,1912,1928,1952,1976,2000,2068,2197,2248,2248,2280,2304,2328,2385,2432,2472,2488,2504,2505,2536,2560,2568,2616,2648,2656,2781,2824,2824,2880,2951,3033,3181,3939,3976,4032,4457,4457,4511,4536,4585,5316,5316,5556,5556,5592,5600,5652,5667,5696,5696,5720,5744,5768,5816,5816,5832,5848,5917,6186,6202,6280,6280,6327,6697,7003,7051,7134,7168,7200,7315,7315,7376,7450,7466,7520,7647,7647,7696,7751,7990,8006,8067,8149,8256,8296,8446,8581,8648,8701,8701,8743,8791,8847,8871,9028,9028,9112,9112,9112,9183,9183,9199,9272,9272,9312,9336,9376,9376,9400,9400,9408,9408,9432,9456,9534,9534,9633,9701,9736,9776,9777,9824,9840,9848,9888,9920,10062,10096,10128,10128,10176,10200,10200,10232,10256,10280,10296,10328,10336,10354,10376,10408,10484,10500,10500,10551,10790,10850,10902,10917,10936,10936,10944,10960,10960,10968,10976,10976,10992,10992,11000,11008,11161,11256,11280,11328,11352,11353,11384,11416,11456,11519,11534,11663,11688,11727,11848,11848,11896,11928,11928,11976,12035,12226,12226,12394,12484,12803,13227,13551,13602,13602,13648,13696,13907,13960,14016,14084,14149,14233,14233,14288,14320,14344,14392,14432,14464,14488,14582,14623,14648,14717,14733,14768,14776,14913,15000,15016,15016,15165,15264,15296,15446,15462,15527,15584,15584,15600,15667,15703,15719,15720,15736,15862,15912,15944,15992,16024,16064,16096,16167,16280,16280,16304,16431,16548,16548,16665,16812,16812,16856,16856,16997,17084,17084,17084,17151,17192,17240,17490,17490,17613,17731,17863,17966,18112,18231,18296,18296,18328,18368,18418,18434,18434,18688,18704,18736,18831,18847,18847,18965,19034,19084,19084,19144,19288,19336,19368,19369,19416,19532,19576,19634,19684,19684,19752,19792,19792,19809,19899,19944,19968,20034,20034,20049,20134,20168,20200,20200,20272,20272,20280,20305,20368,20383,20424,20484,20520,20560,20560,20634,20717,20717,20732,20837,20837,20915,20915,20931,20960,20969,20970,20992,21008,21009,21048,21072,21072,21088,21152,21216,21264,21264,21304,21344,21448,21472,21550,21601,21683,21750,21750,21792,21816,21856,21888,21904,21944,21968,22016,22016,22040,22080,22134,22176,22232,22296,22866,22866" d="M297.5,181.66667C299.29999,181.66667 300.20001,181.66724 301.02084,181.66667C301.98401,181.666 302.75507,181.82765 303.74283,181.30949C304.37289,180.97897 304.9574,180.10558 305.79999,179.71933C306.56876,179.36693 307.2724,179.02713 307.88934,178.26666C308.49277,177.52286 308.66766,176.66737 309.11066,176.03067C309.70001,175.18359 310.03085,174.4789 310.41599,173.55333C310.75522,172.7381 311.34921,172.29866 311.50449,171.36667C311.64072,170.54903 312.2034,169.96558 312.89999,169.26666C313.59872,168.56558 313.91742,167.9772 314.5,167.1875C314.97067,166.54951 315.08731,165.83841 315.55716,165.02383C315.95334,164.33699 316.79578,163.93762 317.59982,163.44516C318.21954,163.06558 318.4816,162.04326 318.92532,161.26666C319.33902,160.54262 319.30621,159.62123 319.58533,158.86667C319.90701,157.99707 321.14862,157.87859 321.47916,157.14583C321.84076,156.34419 321.4827,155.35533 322,154.66667C322.46997,154.041 322.38858,153.09711 322.85718,152.36667C323.37036,151.56676 324.23889,151.13229 324.46399,150.26666C324.68961,149.39911 325.16617,148.85793 325.47916,148.14583C325.83313,147.34045 325.78052,146.26324 326.5,145.83333C327.27048,145.37294 327.73029,144.70636 328.14734,143.96666C328.56738,143.22165 329.23093,142.81503 329.88934,142.23067C330.58252,141.61545 330.99054,140.85622 331.47467,140.23067C332.05188,139.48486 332.41498,138.67928 332.49866,137.86667C332.59085,136.97139 332.5,136.06667 332.5,135.16667C332.5,134.26666 332.5,133.36667 332.5,132.46666C332.5,131.56667 332.5,130.66667 332.5,129.86667C332.5,128.96666 332.5,128.06667 332.5,127.16666C332.5,126.26667 332.5,125.36667 332.5,124.46667C332.5,123.56667 332.5,122.66666 332.5,121.86667C332.5,120.96667 332.5,120.06667 332.5,119.16666C332.5,118.26667 332.50006,117.36667 332.5,116.46667C332.49991,115.56667 332.27942,114.7 331.92532,114.06667C331.44382,113.20541 331.59546,112.22213 331.216,111.46667C330.78043,110.59946 330.44849,109.81097 329.5,109.66666C328.70911,109.54633 327.7735,109.85041 326.89999,109.63067C326.03717,109.41361 325.34851,108.91587 324.5,108.5C323.73752,108.12629 323.00015,107.67933 322.10001,107.66666C321.2001,107.654 320.46875,107.32977 319.70001,106.95067C318.85477,106.53384 317.89996,106.672 317,106.66666C316.09995,106.66133 315.36542,106.27243 314.5,105.83334C313.82462,105.49065 313.37628,104.8884 312.92532,104.06667C312.49728,103.2867 312.49991,102.36667 312.5,101.46667C312.50009,100.56683 312.83112,99.85239 313.60001,99.44534C314.35754,99.0443 315.09995,98.672 316,98.66666C316.89996,98.66133 317.85663,98.80323 318.70001,98.38267C319.36163,98.05274 320.2287,97.85966 321.10001,97.63067C321.95584,97.40574 322.26477,96.36744 322.784,95.75066C323.34076,95.08928 323.87567,94.52242 324.33334,93.66666C324.75662,92.87523 325.43912,92.45144 325.5,91.56667C325.5618,90.66879 325.5,89.86667 325.5,88.96667C325.5,88.06667 325.5979,87.16023 325.48932,86.256C325.37787,85.32779 324.9252,84.66818 324.66666,83.66666C324.46622,82.89024 324.45779,82.13287 324,81.1875C323.59351,80.34808 323.67349,79.40939 323.33334,78.66666C322.96579,77.86407 321.99048,77.48522 321.62149,76.56667C321.28296,75.72395 321.50488,74.88626 321.14282,74.014C320.84506,73.29669 320.10315,72.48739 319.78534,71.868C319.35434,71.02805 319.5,70.06667 319.5,69.16666C319.5,68.26667 319.5,67.36667 319.5,66.46667C319.5,65.56667 319.47464,64.66626 319.5,63.86667C319.52859,62.96531 319.96042,62.14307 320.44733,61.37117C320.89041,60.66874 321.58255,60.25078 322.14734,59.614C322.7695,58.91254 323.50018,58.64946 324.29999,58.66667C325.13657,58.68467 326.06354,58.82367 326.79016,59.37117C327.54343,59.93874 328.21664,60.54385 328.48932,61.27733C328.79214,62.09194 329.1618,62.71056 329.55267,63.37117C330.01743,64.15662 330.47141,64.96531 330.5,65.86667C330.52853,66.76622 330.32645,67.70492 330.58533,68.46667C330.88708,69.35459 331.2901,70.31086 332.02084,70.64584C332.82056,71.01241 333.71878,71.16717 334.5,71.5C335.25153,71.82019 336.15146,71.65482 336.98401,71.95067C337.86661,72.2643 338.746,72.63807 339.66666,72.66666C340.4996,72.69254 341.47849,72.66666 342.1955,72.66666C343.10001,72.66666 344,72.66666 344.89999,72.66666C345.79999,72.66666 346.70001,72.66666 347.60001,72.66666C348.5,72.66666 349.29999,72.66666 350.20001,72.66666C351.10001,72.66666 352,72.66666 352.89999,72.66666C353.79999,72.66666 354.71271,72.81711 355.59982,72.6665C356.45218,72.5218 356.69086,71.54065 357.2045,70.96667C357.86252,70.23134 358.69016,69.63744 359.14282,68.96667C359.62726,68.24881 360.38611,68.10252 361.16666,67.5C361.73315,67.06271 361.5,65.96667 361.5,65.06667C361.5,64.16666 361.59546,63.22213 361.216,62.46667C360.78043,61.59946 360.50067,60.86667 360.5,59.96667C360.49933,59.06667 360.3815,57.95391 361.11066,57.67733C361.94226,57.36189 362.91049,57.53395 363.79999,57.67117C364.73138,57.81484 365.32813,58.31534 366.20001,58.71933C367.03165,59.10467 367.86533,59.51887 368.44733,60.01933C369.09271,60.5743 369.15625,61.35693 369.52084,62.14583C369.87717,62.91683 370.49933,63.468 370.5,64.36667C370.50067,65.26667 370.5,66.16666 370.5,67.06667C370.5,67.96667 370.5,68.86667 370.5,69.76667C370.5,70.66666 370.86435,71.57742 370.44284,72.3095C369.97559,73.12101 368.9516,73.33599 368.55716,74.02383C368.08728,74.84324 368.55438,75.86832 368.49985,76.76667C368.45712,77.47054 367.75522,78.2044 367.53601,79.06667C367.31406,79.9398 367.11392,80.80502 366.784,81.46667C366.36343,82.31003 366.5,83.26667 366.5,84.16666C366.5,85.06667 366.5,85.96667 366.5,86.86667C366.5,87.76667 366.1232,88.84665 366.66666,89.5C367.24063,90.19003 368.28168,90.17172 368.97916,90.66666C369.66724,91.15494 370.18292,92.01731 370.85184,92.3095C371.7186,92.68813 372.66666,92.83334 373.5,93.16666C374.33334,93.5 375.15717,93.57919 375.89999,94.10267C376.68857,94.65839 377.31802,95.11208 378.064,95.692C378.68848,96.1775 379.35159,96.67904 380,97.1875C380.76675,97.78876 381.35114,98.43498 381.49551,99.36667C381.63333,100.25607 381.5,101.16666 381.5,102.06667C381.5,102.96667 381.68884,103.93118 381.33334,104.66666C380.9686,105.4213 379.98276,105.49924 379.10001,105.67733C378.15622,105.86772 377.5126,106.58163 376.70001,106.66534C375.80472,106.75755 374.88034,106.49934 374,106.6875C373.15137,106.86889 372.57538,107.75956 371.89999,108.23067C371.16641,108.74236 369.9296,108.41119 369.53601,109.10267C369.05881,109.94104 369.5,110.96667 369.5,111.86667C369.5,112.76667 369.5,113.66666 369.5,114.46667C369.5,115.36667 369.5,116.26667 369.5,117.16666C369.5,118.06667 369.5,118.96667 369.5,119.86667C369.5,120.76667 369.5,121.66666 369.5,122.46667C369.5,123.36667 369.33481,124.28587 369.52084,125.16666C369.69983,126.01405 370.37729,126.65883 370.49866,127.46667C370.63516,128.37523 371.43912,128.8819 371.5,129.76666C371.5618,130.66455 371.52051,131.43677 371.85266,132.31934C372.11847,133.02556 372.44479,134.04282 372.92532,134.64133C373.45752,135.30418 373.5,136.16667 373.5,137.06667C373.5,137.96666 373.34647,138.91513 373.66666,139.66667C373.99948,140.44788 374.44672,141.20485 374.784,142.15067C375.03571,142.85648 375.28882,143.82768 375.66666,144.66667C375.97696,145.35565 376.45288,146.14793 376.49551,147.01401C376.53955,147.90843 376.31113,148.93597 376.7215,149.76666C377.06265,150.45724 378.0014,150.85143 378.37851,151.76683C378.68106,152.50127 378.47601,153.49229 378.5,154.5C378.51801,155.25664 379.11813,155.97699 379.41467,156.86667C379.70056,157.7243 379.47293,158.66713 379.5,159.46666C379.52859,160.31094 380.4288,160.5981 380.97916,161.1875C381.66437,161.92133 381.5,162.96666 381.5,163.86667C381.5,164.76666 381.5,165.66667 381.5,166.46666C381.5,167.36667 381.5,168.26666 381.5,169.16667C381.5,170.06667 381.5,170.96666 381.5,171.86667C381.5,172.76666 381.5,173.66667 381.5,174.46666C381.5,175.36667 381.5,176.26666 381.5,177.16667C381.5,178.06667 381.5,178.96666 381.5,179.86667L381.50015,180.76683L381.58533,181.552" id="svg_1" stroke-width="3" stroke="#000" fill="none"/>
  <path t="38009,38223,38223,38238,38272,38274,38274,38320,38329,38352,38376,38376,38400,38424,38464,38504,38520,38560,38576,38632,38632,38640,38664,38696,38720,38736,38768,38792,38801,38801,38832,38848,38856,38880,38896,38912,38920,38936,38936,38952,38960,38968,38985,38985,38992,39008,39016,39016,39024,39040,39048,39072,39128,39230,39296,39352,39352,39478,39566,39664,39764,39764,39958,40000,40017,40099,40099,40181,40233,40315,40330,40478,40494,40560,40617,40664,40680,40680,40712,40720,40744,40768,40776,40849,40865,40912,40912,40982,40998,41066,41128,41160,41184,41224,41240,41240,41256,41272,41296,41336,41343,41360,41376,41384,41384,41448,41488,41512,41544,41576,41592,41599,41616,41617,41632,41648,41672,41697,41737,41753,41777,41849,41849,41904,41912,41952,41968,41976,42000,42024,42056,42056,42104,42293" d="M326.5,95.66666C327.5,95.66666 328.29999,95.66666 329.20001,95.66666C330.13599,95.66666 330.98267,95.66666 331.79016,95.66666C332.85718,95.66666 333.70001,95.66666 334.60001,95.66666C335.5,95.66666 336.29999,95.66666 337.20001,95.66666C338.10001,95.66666 339,95.66666 339.89999,95.66666C340.79999,95.66666 341.70001,95.66666 342.60001,95.66666C343.5,95.66666 344.29999,95.66666 345.20001,95.66666C346.10001,95.66666 347,95.66666 347.89999,95.66666C348.79999,95.66666 349.70001,95.66666 350.60001,95.66666C351.5,95.66666 352.29999,95.66666 353.20001,95.66666C354.10001,95.66666 355,95.66666 355.89999,95.66666C356.79999,95.66666 357.70001,95.66666 358.60001,95.66666C359.5,95.66666 360.29999,95.66666 361.20001,95.66666C362.10001,95.66666 363.02084,95.66666 363.98401,95.66666C364.67465,95.66666 365.74283,95.66666 366.60001,95.66666C367.5,95.66666 368.29999,95.66666 369.20001,95.66666C370.10001,95.66666 371,95.66666 371.89999,95.66666C372.79999,95.66666 373.70001,95.66666 374.60001,95.66666C375.5,95.66666 376.33441,95.47071 377.20001,95.72383C378.07764,95.98048 378.85947,96.47977 379.60001,96.88817C380.27451,97.26013 381.0975,97.96368 381.41467,98.86667C381.71426,99.71962 381.5372,100.66753 381.5,101.46667C381.45728,102.38431 380.71808,102.78376 379.89999,103.24133C379.12769,103.6733 378.62296,104.38365 377.88934,104.656C377.05508,104.96572 376.29672,105.20986 375.39999,105.54517C374.54935,105.86324 373.70001,105.66666 372.79999,105.66666C371.89999,105.66666 370.94492,105.36903 370.11066,105.67733C369.36426,105.95316 369.26981,107.17761 368.39999,107.54517C367.56345,107.89866 366.70001,107.66666 365.79999,107.66666C364.89999,107.66666 364,107.66666 363.10001,107.66666C362.20001,107.66666 361.29999,107.66666 360.39999,107.66666C359.5,107.66666 358.70001,107.66666 357.79999,107.66666C356.89999,107.66666 356,107.66666 355.10001,107.66666C354.20001,107.66666 353.29999,107.66666 352.39999,107.66666C351.5,107.66666 350.70001,107.66666 349.79999,107.66666C348.89999,107.66666 348,107.66666 347.10001,107.66666C346.20001,107.66666 345.29999,107.66666 344.39999,107.66666C343.5,107.66666 342.70001,107.66666 341.79999,107.66666C340.89999,107.66666 340,107.66666 339.10001,107.66666C338.20001,107.66666 337.29999,107.66666 336.39999,107.66666C335.5,107.66666 334.70001,107.66666 333.79999,107.66666C332.89999,107.66666 332,107.66666 331.10001,107.66666C330.20001,107.66666 329.29999,107.66666 328.39999,107.66666C327.5,107.66666 326.70001,107.66666 325.79999,107.66666L324.89999,107.66666" id="svg_4" stroke-width="3" stroke="#000" fill="none"/>
  <path t="45759,45956,45956,46009,46046,46073,46212,46330,46432,46484,46551,46551" d="M350.5,80.66666C351.5,80.66666 352.29999,80.66666 353.20001,80.66666C354.14282,80.66666 355.02084,80.66666 355.89999,80.66666C356.79999,80.66666 357.70001,80.66666 358.60001,80.66666L359.5,80.66666L360.29999,80.66666" id="svg_5" stroke-width="3" stroke="#000" fill="none"/>
  <path t="48149,48432,48447,48472,48488" d="M331.5,79.66666C333.29999,79.66666 334.20001,79.66666 335.10001,79.66666L336,79.66666" id="svg_6" stroke-width="3" stroke="#000" fill="none"/>
  <path t="50698,50891,50952,50984,51000,51000,51050,51066,51066,51215" d="M327.5,80.66666C329.29999,80.66666 330.20001,80.66666 331.02084,80.66666C331.98401,80.66666 332.67465,80.66666 333.74283,80.66217L334.60001,80.44534L335.29999,79.95067L336.10001,79.67733" id="svg_7" stroke-width="3" stroke="#000" fill="none"/>
  <path t="60639,60746,60792,60816,60824,60872,60896,60917,60921,60960,61127,61127,61184,61233,61233,61315,61413,61480,61565,61565,61648,61715,61715,61715,61815,61848,61896,61949,62046,62088,62096,62197,62197,62344,62448,62463,62533,62872,62887,62887" d="M339.5,90.66666C338.85266,89.96217 338.50534,89.06671 338.5,88.16666C338.49466,87.26669 338.5,86.36667 338.5,85.46667C338.5,84.56683 338.47104,83.71884 338.5,82.86533C338.52859,82.02238 339.30133,81.66734 340.20001,81.66666C341.10001,81.66599 342,81.66666 342.89999,81.66666C343.79999,81.66666 344.70001,81.66666 345.60001,81.66666C346.5,81.66666 347.24338,81.87523 347.66666,82.66666C348.06711,83.41546 348.61151,84.04049 349.14734,84.71933C349.60519,85.2994 349.50958,86.26672 349.5,87.16666C349.48956,88.146 348.90579,88.54256 348.10001,89.10267C347.42386,89.57267 346.96555,90.42212 346,90.64584C345.12299,90.84903 344.20001,90.66666 343.29999,90.66666L342.39999,90.66666L341.5,90.66666L340.70001,90.66666" id="svg_9" stroke-width="3" stroke="#000" fill="none"/>
  <path t="65642,65870,65870,65903,65914" d="M342.5,85.66666C343.5,85.66666 344.29999,85.66666 345.20001,85.66666L346.14282,85.66666" id="svg_11" stroke-width="3" stroke="#000" fill="none"/>
  <path t="86022,86299,86299,86315,86360,86416,86465,86465,86519,86560,86584,86599,86640,86671,86679,86712,86765,86816,86816,86856,86856,86880,86904,86960,86977,87000,87016,87040,87040,87056,87065,87073,87112,87152,87152,87160,87208,87297,87312,87352,87368,87400,87432,87456,87480,87488,87520,87664,87664,87664,87704,87760,87776,87800,87832,87848,87872,87904,87904,87912,87937,87976,88008,88024,88064,88064,88088,88112,88160,88192,88192,88264,88264,88331,88331,88368,88384,88464,88464,88496,88520,88593,88593,88600,88648,88657,88704,88712,88721,88814,88814,88927,88968,88968,89000,89128,89197,89213,89213,89297,89379,89379,89432,89448,89464,89481,89512,89512,89529,89568,89624,89648,89672,89704,89704,89728,89729,89768,89785,89792,89832,89840,89864,89916,89952,89968,90016,90016,90056,90080,90112,90144,90184,90192,90248,90298,90298,90313,90352,90376,90416,90424,90560,90624,90632,90632,90688,90744,90878,91135,91135,91135,91151,91151,91168,91200" d="M299.5,180.66667C298.5,180.83333 297.70721,181.32333 297.52084,182.16667C297.32651,183.04601 297.04703,183.77386 296.66666,184.66667C296.34647,185.4182 296.51068,186.36673 296.5,187.26666C296.48956,188.14601 295.89041,188.66873 295.44733,189.37117C294.96042,190.14307 294.61142,191.00757 294.07468,191.64133C293.55292,192.25739 293.32858,193.01266 292.88934,193.84134C292.44867,194.6727 291.79227,195.05241 291.02084,195.66667C290.39835,196.16232 290.43463,197.1041 289.92532,197.692C289.3634,198.34061 288.61011,198.76959 288.11066,199.528C287.70795,200.13954 287.37332,201.11505 286.85266,201.71933C286.28693,202.37593 285.95819,203.14697 285.30133,203.86667C284.76785,204.45117 284.2579,205.10239 283.66666,205.83333C283.1022,206.53114 282.73883,207.20433 282.52084,208.16667C282.32196,209.04466 282.50009,209.96666 282.5,210.86667C282.49991,211.76649 281.99219,212.27531 281.55716,213.02383C281.13269,213.75421 281.5,214.76666 281.5,215.66667C281.5,216.46666 281.5,217.36667 281.5,218.26666C281.5,219.16667 281.5,220.06667 281.5,220.96666C281.5,221.86667 281.5,222.76666 281.5,223.66667C281.5,224.46666 281.48959,225.36673 281.5,226.26666C281.51044,227.16685 282.04321,227.86995 282.37851,228.76666C282.69659,229.61731 282.60608,230.45477 283,231.16667C283.49023,232.05264 283.48923,232.97122 283.5,233.83333C283.51044,234.66687 283.66162,235.68773 284.11066,236.256C284.72446,237.03282 285.38898,237.39015 285.97916,238.16667C286.54004,238.90463 286.76089,239.88858 287.30133,240.46666C287.87503,241.08032 288.92422,241.38005 289.37866,242.10933C289.83853,242.84737 290.21231,243.528 290.48932,244.27733C290.82025,245.17261 291.28073,245.67023 291.49866,246.468C291.74042,247.35301 292.41495,247.81935 292.49866,248.55333C292.60501,249.48596 292.35049,250.52223 292.53601,251.256C292.75647,252.12787 293.45728,252.86365 293.5,253.76666C293.54251,254.66566 293.5,255.46666 293.5,256.36667C293.5,257.26666 293.5,258.16666 293.5,259.06668C293.5,259.96667 293.5,260.86667 293.5,261.76666C293.5,262.66666 293.5,263.46667 293.5,264.36667C293.5,265.26666 293.5,266.16666 293.5,267.06668C293.5,267.97116 293.5,268.83334 293.5,269.66666C293.5,270.64517 293.5,271.46533 293.5,272.36667C293.5,273.26666 293.33719,274.10471 292.85266,274.71933C292.34067,275.36877 292.68372,276.39316 292.46399,277.26666C292.24695,278.12949 291.56088,278.76053 291.5,279.66666C291.44638,280.46487 291.5,281.36667 291.5,282.26666C291.5,283.16666 291.5,284.06668 291.5,284.96667C291.5,285.86667 291.5,286.76666 291.5,287.66666C291.5,288.46667 291.5,289.36667 291.5,290.26666C291.5,291.16666 291.5,292.06668 291.5,292.96667C291.5,293.86667 291.5,294.76666 291.5,295.66666C291.5,296.46667 291.48981,297.36673 291.5,298.26666C291.51044,299.18768 291.80182,300.14343 292.07468,300.84134C292.43866,301.77231 292.5,302.66666 292.5,303.46667L292.5,304.36667L292.53601,305.26666" id="svg_13" stroke-width="3" stroke="#000" fill="none"/>
  <path t="91840,92632,92632,92672,92728,92776,92831,92871,92947,92947,93310,93600,93648,93702,93828,93872,93912,93936,93936,93952,94014,94029,94056,94112,94165,94200,94240,94240,94264,94272,94312,94312,94365,94381,94656,94704,94736,94736,94760,94815,94865,94928,94968,95047,95098,95098,95098,95160,95208,95216,95280,95347,95384,95400,95449,95449,95464,95496,95579,95595,95648,95672,95704,95744,95744,95752,95792,95840,95872,95872,95920,95920,95952,95960,96000,96000,96032,96040,96056,96112,96112,96120,96144,96198,96198,96231,96240,96271,96287,96327,96335,96336,96360,96415,96415,96456,96465,96496,96504,96560,96608,96632,96648,96648,96696,96720,96744,96760,96784,96808,96866,96931,96931,96931,96984,97024,97081,97148,97148,97214,97515,97560,97664,97730,97745,97792,97864,97864,97879,97920,97976,98031,98031,98096,98164,98179,98179,98231,98246,98246,98296,98328,98368,98384,98392,98448,98488,98564,98600,98600,98648,98696,98736,98768,98800,98840,98864,98880,98920,98944,98952,98992,99024,99024,99048,99072,99080,99120,99144,99176,99216,99224,99240,99296,99304,99336,99384,99392,99464,99530,99545,99545,99576,99624,99640,99688,99720,99736,99799,99814,99814,99840,99864,99896,99920,99960,100000,100032,100081,100081,100128,100160,100245,100314,100489,100744,100830,100881,101072,101179,101216,101390,101390,101390,101526,101542,101616,101616,101656,101696,101764,101814,101830,101880,101896,101912,101912,101944,101968,102008,102040,102072,102088,102104,102144,102144,102192,102249,102249,102288,102328,102336,102336,102398,102448,102472,102496,102544,102568,102584,102632,102632,102656,102680,102704,102744,102776,102816,102832,102848,102896,102928,102936,103014,103014,103055,103095,103111,103159,103214,103230,103256,103288,103312,103336,103384,103392,103440,103499,103514,103581,103596,103680,103695,103720,103812,103812,103832,103872,103896,103928,103928,103944,103999,104014,104142,104192,104279,104279" d="M293.5,306.66666C293.66666,305.66666 294.15558,304.86887 295,304.6875C295.88016,304.49844 296.79999,304.66656 297.70001,304.66666C298.60001,304.66675 299.46475,304.89072 300.10001,305.24133C300.93982,305.70483 301.49466,305.05606 301.5,304.16666C301.5054,303.26669 301.5,302.36667 301.5,301.46667C301.5,300.56668 301.5,299.66666 301.5,298.86667C301.5,297.96667 301.5,297.06668 301.5,296.16666C301.5,295.26666 301.5,294.36667 301.5,293.46667C301.5,292.56668 301.47464,291.66626 301.5,290.86667C301.52859,289.9653 302.03506,289.18005 302.59982,288.56668C303.2309,287.88129 303.48932,287.06668 303.5,286.16666C303.51068,285.26666 303.95297,284.55948 304.33334,283.66666C304.65353,282.91513 304.5,281.96667 304.5,281.06668C304.5,280.16666 304.5,279.26666 304.5,278.36667C304.5,277.46667 304.5,276.56668 304.5,275.66666C304.5,274.86667 304.5,273.96667 304.5,273.06668C304.5,272.16666 304.5,271.26666 304.5,270.36667C304.5,269.46667 304.5,268.56668 304.5,267.66666C304.5,266.86667 304.5,265.96667 304.5,265.06668C304.5,264.16666 304.5,263.26666 304.5,262.36667C304.5,261.46667 304.5,260.56668 304.5,259.66666C304.5,258.86667 304.55716,257.96667 305,257.16666C305.44284,256.36667 305.42178,255.45078 305.58533,254.78133C305.82343,253.80672 306.30972,253.15642 306.88934,252.30267C307.38574,251.57152 307.32645,250.62842 307.58533,249.86667C307.88708,248.97874 308.36554,248.25679 308.50449,247.36667C308.63232,246.54771 308.98059,245.72842 309.55267,245.02383C310.05481,244.40538 310.5,243.66667 310.5,242.86667C310.5,241.96666 310.49466,241.06665 310.5,240.16667C310.50534,239.26662 310.95297,238.55946 311.33334,237.66667C311.65353,236.91513 311.48816,236.01518 311.784,235.18266C312.03491,234.47658 312.32889,233.40849 312.50015,232.56683C312.67245,231.72008 313.47141,231.31079 313.5,230.36667C313.52725,229.46707 313.46335,228.56592 313.5,227.66667C313.52859,226.96492 314.18619,226.24431 314.44284,225.36667C314.69595,224.5011 314.25467,223.43369 314.784,222.75067C315.27197,222.12099 315.94235,221.55486 316.33334,220.66667C316.62286,220.00902 316.49728,219.04663 316.92532,218.26666C317.37628,217.44493 317.90442,216.8194 318.70001,216.38266C319.34811,216.0269 320.19907,215.61229 321,215.16667C321.79904,214.72212 322.95276,214.3356 323.41467,214.952C323.96558,215.68713 323.5,216.76666 323.5,217.66667C323.5,218.46666 323.5,219.36667 323.5,220.26666C323.5,221.16667 323.5,222.06667 323.5,222.96666C323.5,223.86667 323.5,224.76666 323.5,225.66667C323.5,226.46666 323.86316,227.46356 323.46399,228.23067C323.06885,228.99005 322.50067,229.468 322.5,230.36667C322.49933,231.26666 322.5,232.16667 322.5,233.06667C322.5,233.96666 322.5,234.86667 322.5,235.76666C322.5,236.66667 322.5,237.46666 322.5,238.36667C322.5,239.26666 322.5,240.16667 322.5,241.06667C322.5,241.96666 322.5,242.86667 322.5,243.76666C322.5,244.66667 322.01682,245.27385 321.58533,245.952C321.09216,246.72705 321.5,247.76666 321.5,248.66667C321.5,249.46666 321.51068,250.36673 321.5,251.26666C321.48956,252.14601 320.68573,252.65474 320.50449,253.37117C320.28485,254.23932 320.8667,255.24638 320.47916,256.14584C320.17136,256.86017 319.50226,257.37115 319.5,258.26666C319.49774,259.16666 319.5,260.06668 319.5,260.96667C319.5,261.86667 319.5,262.76666 319.5,263.66666C319.5,264.46667 319.5,265.36667 319.5,266.26666C319.5,267.16666 319.5,268.06668 319.5,268.96667C319.5,269.86667 319.5,270.76666 319.5,271.66666C319.5,272.46667 319.5,273.36667 319.5,274.26666C319.5,275.16666 319.5,276.06668 319.5,276.96667C319.5,277.86667 319.5,278.76666 319.5,279.66666C319.5,280.46667 319.5,281.36667 319.5,282.26666C319.5,283.16666 319.31549,284.31317 320.02084,284.64584C320.81622,285.02097 321.82169,284.86157 322.69867,284.66534C323.50571,284.48477 324.02066,283.67709 324.91068,283.66666C325.82126,283.65601 326.67465,283.66666 327.61465,283.66666C328.5,283.66666 329.41626,283.51236 329.5,282.66666C329.57883,281.87057 329.5,280.96667 329.5,280.06668C329.5,279.16666 329.5,278.26666 329.5,277.36667C329.5,276.46667 329.5,275.56668 329.5,274.66666C329.5,273.86667 329.5,272.96667 329.5,272.06668C329.5,271.16666 329.5,270.26666 329.5,269.36667C329.5,268.46667 329.3186,267.51318 329.66666,266.66666C329.94257,265.99561 330.48956,265.16684 330.5,264.26666C330.51041,263.36673 330.5,262.46667 330.5,261.56668C330.5,260.66666 330.5,259.86667 330.5,258.96667C330.5,258.06668 330.5,257.16666 330.5,256.26666C330.5,255.36667 330.5,254.46666 330.5,253.56667C330.5,252.66667 330.48126,251.86647 330.5,250.96666C330.51801,250.1021 331.35425,249.62271 331.49866,248.86534C331.66699,247.98256 331.5,247.06667 331.5,246.16667C331.5,245.26666 331.5,244.36667 331.5,243.46666C331.5,242.56667 331.5,241.66667 331.5,240.86667C331.5,239.96666 331.5,239.06667 331.5,238.16667C331.5,237.26666 331.49991,236.36667 331.5,235.46666C331.50009,234.56683 332.06677,233.98897 332.46399,233.23067C332.86325,232.46844 333.1705,231.85982 333.47916,231.14583C333.82813,230.33861 333.5,229.36667 333.5,228.46666C333.5,227.56667 333.17764,226.51286 333.72134,225.78799C334.20364,225.14499 334.33633,224.40936 334.72134,223.56667C335.02713,222.89737 335.4816,222.04326 335.92532,221.26666C336.33902,220.54262 336.47464,219.66628 336.5,218.86667C336.52859,217.9653 337.18619,217.24431 337.44284,216.36667C337.69595,215.5011 337.5,214.56667 337.5,213.66667L337.5,212.86667" id="svg_14" stroke-width="3" stroke="#000" fill="none"/>
  <path t="108227,108342,108376,108431,108447,108498,108536,108598,108681,108681,108854,108854,109024,109024,109072,109072,109162,109162,109199,109231,109248,109264,109311,109367,109375,109407,109408,109464,109464,109496,109579,109594,109632,109648,109688,109704,109736,109891,109891,109979,110125,110197,110232,110501,110501,110536,110613,110671,110731,110860,110962,110962,110978,110978,111047,111087,111119,111119,111181,111232,111232,111264,111264,111296,111320,111376,111376,111462,111514,111580,111580,111664,111664,111730,111730,111730,111792,111878,111878,111894,111894,111975,111999,111999,112094,112094,112603,112603,112728,112906,112906,112906,112982,113266,113314,113352,113384,113424,113448,113448,113496,113536,113592,113672,113809,113912,113912,113951,113991,114047,114047,114410,114448,114448,114512,114565,114565,114600,114600,114632,114664,114664,114729,114745,114745,114800,114832,114864,114888,114920,114928,114928,114936,114968,114984,115000,115032,115040,115040,115080,115178,115193,115280,115362,115424,115440,115472,115520,115552,115560,115608,115624,115680,115680,115746,115814,115848,115896,115936,115944,115944,115976,116008,116016,116017,116040,116056,116064,116112,116181,116197,116197,116247,116263,116304,116320,116344,116368,116416,116424,116424,116496,116527,116544,116567,116806,116806,116806,116872,116880,116928,116980,117023,118151,118167,118371,118371,118423,118432,118715,118715,118752,118814,118829,118880,118930,118982,118982,119063,119114,119114,119114,119196,119278,119278,119346,119618,119888,119936,119997,119997,120040,120056,120130,120192,120294,120294,120352,120408,120464,120512,120564,120614,120712,120720,120720,120776,120862,120877,120904,120944,120984,121024,121127,121127,121197,121240,121280,121346,121400,121464,121496,121512,121512,121520,121580,121630,121672,121672,121696,121760,121808,121840,121929,121944,121984,122046,122129,122196,122196,122240,122296,122312,122336,122429,122480,122496,122544,122575,122584,122608,122647,122664,122672,122715,122779,122863,122878,122977,122977,123024,123032,123128,123212,123327,123413,123463,123658,123658,123673,123704,124059,124096,124120,124144,124213,124435,124435,124451,124472,124530,124591,124964,125008,125008,125112,125152,125192,125278,125327,125412,125466,125561,125577,125639,125640,125696,125703,125751,125759,125791,125847,125888,125904,125979,126015,126079,126130,126175,126223,126263,126264,126295,126335,126383,126407,126463,126504,126513,126596,126596,126631,126639,126703,126727,126751,126783,126784,126807,126847,126879,126927,126959,126960,127076,127076,127147,127208,127216,127232,127288,127288,127296,127328,127352,127384,127384,127432,127464,127560,127728,127781,127883,127961,127977,128141,128229,128296,128409,128409,128425,128558,128558,128592,128616,128663,128663,128679,128712,128920,128968,129024,129048,129056,129056,129145,129208,129256,129256,129312,129336,129352,129384,129407,129424,129464,129504,129504,129520,129544,129560,129568,129624,129664,129688,129720,129720,129780" d="M332.5,236.66667C333.30133,236.66667 334.20007,236.65627 335.10001,236.66667C336.00018,236.67709 336.75888,237.08794 337.59982,237.54533C338.3475,237.952 338.81458,238.69356 339.52084,239.16667C340.31345,239.69763 341.02121,240.15575 341.5,240.83333C342.05057,241.61246 342.69946,242.10251 343.21466,242.74933C343.8132,243.50079 343.5,244.46666 343.5,245.36667C343.5,246.26666 343.5,247.16667 343.5,248.06667C343.5,248.96666 343.5,249.86667 343.5,250.76666C343.5,251.66667 343.5,252.46666 343.5,253.36667C343.5,254.26666 343.5,255.16667 343.5,256.06668C343.5,256.96667 343.62402,257.87527 343.49985,258.76651C343.38812,259.56836 342.62878,260.03189 342.49866,260.86667C342.35599,261.78201 341.64838,262.07755 340.936,262.69199C340.32669,263.21756 340.5773,264.3342 340.064,265.06668C339.51035,265.85669 338.54376,266.3067 338.54166,267.16666C338.53955,268.02499 339.18304,268.89761 339.784,269.58267C340.31097,270.18341 340.66666,270.83334 341,271.66666C341.33334,272.5 341.55173,273.36267 342,274.16666C342.44638,274.96719 342.69525,275.78879 343.2045,276.36667C343.85699,277.10715 344.39694,277.82468 344.47916,278.66666C344.57428,279.64078 344.60251,280.45544 345,281.16666C345.49643,282.05487 345.88608,282.80502 346.216,283.46667C346.63657,284.31003 346.48816,285.31815 346.784,286.15067C347.03491,286.85675 347.36176,287.79657 347.58401,288.55066C347.86813,289.51468 348.30966,290.17697 348.88934,291.03067C349.38583,291.76184 349.62744,292.69778 350.11066,293.26666C350.74673,294.0155 351.25323,294.54218 351.47467,295.492C351.70764,296.49133 352.01019,297.15604 352.70001,297.86667C353.19254,298.37405 353.98074,299.37378 354.52533,299.04532C355.27914,298.59067 355.5173,297.45831 356.20001,297.02383C356.93213,296.55789 357.89999,296.66666 358.79999,296.66666C359.70001,296.66666 360.88293,297.06143 361.41467,296.38135C361.9805,295.65765 361.35345,294.53262 361.58533,293.86667C361.89368,292.98102 362.48199,292.26721 362.5,291.36667C362.51801,290.46686 362.54779,289.5654 362.5,288.66666C362.45728,287.86328 361.85715,287.09662 361.30133,286.46667C360.62567,285.70096 360.21301,285.17883 359.62134,284.44516C359.10025,283.79904 358.79663,282.96555 358.20001,282.36667C357.50131,281.66534 356.89999,281.06668 356.29999,280.46667C355.70001,279.86667 354.98489,279.18137 354.40018,278.56668C353.84244,277.98035 353.58157,277.11777 353.21466,276.18399C352.9469,275.5025 351.92212,275.00247 351.53601,274.23065C351.14914,273.45731 351.5,272.46667 351.5,271.56668C351.5,270.66666 351.69595,269.83224 351.44284,268.96667C351.18619,268.08902 350.52859,267.36804 350.5,266.46667C350.47147,265.56714 350.5,264.66666 350.5,263.86667C350.5,262.96667 350.5,262.06668 350.5,261.16666C350.5,260.26666 350.5,259.36667 350.5,258.46667C350.5,257.56668 350.1629,256.51776 350.66666,255.83333C351.14728,255.18031 351.25467,254.43369 351.784,253.75067C352.27197,253.12099 352.8674,252.51866 353.216,251.86667C353.66907,251.01927 354.18619,250.24431 354.44284,249.36667C354.69595,248.5011 354.5,247.56667 354.5,246.66667C354.5,245.86667 354.40067,244.95808 354.52084,244.14583C354.66684,243.15904 355.05731,242.47566 355.7955,241.7765C356.42209,241.18304 356.5,240.36667 356.5,239.46666C356.5,238.56667 356.5,237.66667 356.5,236.86667C356.5,235.96666 356.5,235.06667 356.5,234.16667C356.5,233.26666 356.5,232.36667 356.5,231.46666C356.5,230.56667 356.5,229.66667 356.5,228.86667C356.5,227.96666 356.50534,227.06665 356.5,226.16667C356.49466,225.26662 356.04703,224.55946 355.66666,223.66667C355.34647,222.91513 355.86316,221.86977 355.46399,221.10266C355.06885,220.34329 354.89297,219.73491 354.41467,218.952C353.92395,218.14874 353.45221,217.5654 353.5,216.66667C353.54272,215.86327 353.98743,215.12285 354.89999,214.692C355.67563,214.32581 356.48587,214.24667 357.21466,213.58267C357.81107,213.03929 358.08951,212.05916 358.89999,211.692C359.6806,211.33838 360.23395,210.62843 360.58401,209.86667C360.92856,209.11694 361.80383,208.54303 362.21466,207.86667C362.68607,207.09053 363.41626,206.51236 363.5,205.66667C363.57883,204.87056 363.54807,203.80786 364.38666,203.668C365.30206,203.51532 366.33026,203.78532 366.5,204.66667C366.65128,205.45222 366.31628,206.39316 366.53601,207.26666C366.75305,208.12949 367.43912,208.76054 367.5,209.66667C367.55362,210.46486 367.5,211.36667 367.5,212.26666C367.5,213.16667 367.5,214.06667 367.5,214.96666C367.5,215.86667 367.5,216.76666 367.5,217.66667C367.5,218.46666 367.5,219.36667 367.5,220.26666C367.5,221.16667 367.5,222.06667 367.5,222.96666C367.5,223.86667 367.5,224.76666 367.5,225.66667C367.5,226.46666 367.5,227.36667 367.5,228.26666C367.5,229.16667 367.5,230.06667 367.5,230.96666C367.5,231.86667 367.5,232.76666 367.5,233.66667C367.5,234.46666 367.12936,235.09564 366.62149,235.88817C366.14297,236.63487 366.27939,237.63335 365.92532,238.26666C365.44382,239.12791 365.5,240.06667 365.5,240.96666C365.5,241.86667 365.58868,242.77104 365.5,243.66667C365.41626,244.51236 364.56088,244.8819 364.5,245.76666C364.4382,246.66455 364.5,247.46666 364.5,248.36667C364.5,249.26666 364.39523,250.06586 363.85266,250.71933C363.36234,251.30989 362.81381,252.08904 362.55716,252.96666C362.30405,253.83223 362.61078,254.7735 362.5,255.66667C362.38849,256.56589 361.54279,256.94904 361.5,257.86667C361.4581,258.76553 360.99216,259.2753 360.55716,260.02383C360.13269,260.75421 360.5,261.76666 360.5,262.66666C360.5,263.46667 360.5,264.36667 360.5,265.26666C360.5,266.16666 360.5,267.06668 360.5,267.96667C360.5,268.86667 360.5,269.76666 360.5,270.66666C360.5,271.46667 360.08878,272.48926 360.55716,273.30951C361.02148,274.12268 361.71524,274.60577 362.60001,274.66666C363.49786,274.72845 364.2063,274.43713 364.66666,273.66666C365.09656,272.94717 366.04852,272.38742 366.88934,272.67734C367.62912,272.93243 367.88785,273.97787 368.66666,274.5C369.37256,274.97324 370.47952,275.13223 371.21466,274.58133C371.83105,274.11942 371.5,272.96667 371.5,272.06668C371.5,271.16666 371.5,270.26666 371.5,269.36667C371.5,268.46667 371.5,267.56668 371.5,266.66666C371.5,265.86667 371.5,264.96667 371.5,264.06668C371.5,263.16666 371.56696,262.32312 372.07468,261.64133C372.55188,261.00052 372.17188,259.99472 372.52084,259.1875C372.8295,258.47351 373.55533,257.96365 374,257.16666C374.4455,256.36816 374.5,255.46666 374.5,254.56667C374.5,253.66667 374.5,252.86667 374.5,251.96666C374.5,251.06667 374.5,250.16667 374.5,249.26666C374.5,248.36667 374.5,247.46666 374.5,246.56667C374.5,245.66667 374.5,244.86667 374.5,243.96666C374.5,243.06667 374.49774,242.16667 374.5,241.26666C374.50226,240.36665 374.83691,239.63541 375.216,238.86667C375.63281,238.02144 375.33481,237.04747 375.52084,236.16667C375.69983,235.31927 376.31775,234.66199 376.55267,233.9095C376.83411,233.00801 377.28363,232.35213 377.46399,231.30267C377.62265,230.37952 377.41788,229.46289 377.50015,228.56667C377.58383,227.65523 378.25977,227.12868 378.47916,226.16667C378.65707,225.38643 378.33725,224.40979 378.72134,223.56667C379.07669,222.78665 379.09683,221.96208 379.53601,221.10266C379.89215,220.40575 380.49933,219.86534 380.5,218.96666C380.50067,218.06667 380.5,217.16667 380.5,216.26666C380.5,215.36667 380.5,214.46666 380.5,213.56667C380.5,212.66667 380.60043,211.85625 380.46399,211.03067C380.31995,210.15897 379.7377,209.34938 379.55716,208.42383C379.39267,207.58066 379.5,206.66667 379.5,205.86667C379.5,204.96666 379.5,204.06667 379.5,203.16667C379.5,202.26666 379.60703,201.36012 379.49866,200.46666C379.38708,199.54688 378.73566,199.02057 378.11066,198.26666C377.56561,197.60922 377.5,196.66667 377.5,195.86667C377.5,194.96666 377.5,194.06667 377.5,193.16667C377.5,192.26666 377.5,191.36667 377.5,190.46666C377.5,189.56667 377.5,188.66667 377.5,187.86667C377.5,186.96666 377.5,186.06667 377.5,185.16667C377.5,184.26666 377.49991,183.36667 377.5,182.46666C377.50009,181.56667 377.66666,180.66667 378.14734,179.96666L378.47916,179.14583" id="svg_15" stroke-width="3" stroke="#000" fill="none"/>
  <path t="136015,136281,136297,136328,136329,136336,136412,136456,136456,136456,136504,136544,136544,136592,136632,136648,136656,136688,136728,136736,136776,136800,136846,136880,136888,136888,136920,136928,136928,136944,136952,136968,136992,136992,137062,137078,137130,137181,137251,137251,137532,137812,138036,138036,138096,138096,138144,138184,138216,138216,138248,138296,138344,138344,138368,138392,138408,138440,138440,138448,138480,138480,138528,138528,138552,138584,138584,138624,138624,138640,138648,138688,138760,138760,138816" d="M337.5,211.66667C336.58533,211.38133 336.5,210.56667 336.5,209.66667C336.5,208.86667 336.80963,208.1951 337.37866,207.44501C337.97574,206.65793 337.89252,205.81651 338.30133,205.15067C338.84445,204.26607 339.60358,203.74939 340.064,203.06667C340.61816,202.24493 340.49933,201.26666 340.5,200.36667C340.50067,199.468 340.83679,198.81541 341.47467,198.24133C342.05341,197.72047 342.31891,197.03334 342.52084,196.16667C342.74475,195.20569 343.39108,194.56827 343.5,193.66667C343.5965,192.86794 344.13046,192.08546 344.69867,191.46666C345.23389,190.88376 345.08521,189.84236 345.55716,189.02383C345.95322,188.33693 346.5,187.66667 346.5,186.86667C346.5,185.96666 346.64532,185.22073 347.216,184.58267C347.79892,183.93091 348.6369,183.63039 349.14282,182.96217C349.66919,182.26695 349.76367,181.18248 350.66666,180.83333C351.45261,180.52943 352.47739,180.65779 353.05334,181.27733C353.65918,181.92899 353.29791,183.05978 353.78534,183.86534C354.16312,184.48967 355.26004,184.72987 355.55267,185.42833C355.91492,186.29285 356.24487,187.17809 357,187.64583C357.74875,188.10962 358.25269,188.8172 358.66666,189.66667C358.9845,190.31892 359.40814,191.21408 359.85718,191.97116C360.23019,192.60007 360.84897,193.29509 361.14282,194.01401C361.5513,195.01334 361.72833,195.98518 362,196.66667C362.38852,197.64124 362.31305,198.38914 362.53601,199.26666C362.7551,200.12897 363.41599,200.86667 363.7215,201.76649L364.2045,202.30949L365.064,202.692" id="svg_16" stroke-width="3" stroke="#000" fill="none"/>
  <path t="149101,149490,149505,149552,149560,149560,149584,149608,149640,149656,149664,149729,149729,149744,149768,149784,149816,149832,149832,149848,149872,149888,149904,149912,149928,149928,149944,149952,149976,150000,150024,150032,150032,150088,150128,150136,150196,150246,150298,150344,150376,150376,150617" d="M332.5,124.66666C334.29999,124.66666 334.88715,124.35217 335.66666,123.83334C336.37411,123.36245 337.29999,123.66666 338.20001,123.66666C339.10001,123.66666 340,123.66891 340.89999,123.66666C341.79999,123.66441 342.63837,123.28059 343.29999,122.95067C344.14337,122.53011 345.1192,122.83189 346,122.64584C346.84738,122.46684 347.59467,121.75124 348.29999,121.668C349.19571,121.5623 349.92236,120.98048 350.79999,120.72383C351.66559,120.47071 352.60001,120.66666 353.5,120.66666C354.29999,120.66666 355.20001,120.66666 356.10001,120.66666C357,120.66666 357.94708,120.76067 358.79999,120.314C359.55222,119.92005 360.29999,119.66734 361.20001,119.66666C362.10001,119.666 363,119.66666 363.89999,119.66666C364.79999,119.66666 365.70001,119.66666 366.60001,119.66666L367.5,119.66666L368.29999,119.66666L369.20001,119.66666" id="svg_17" stroke-width="3" stroke="#000" fill="none"/>
  <path t="152271,152484,152484,152499,152536,152547,152584,152608,152632,152648,152672,152672,152712,152728,152744,152784,152816,152856,152864,152896,152896,152952,152976,153000,153078,153078,153128,153144,153243,153288,153304,153304,153344,153384,153445,153445,153480,153496,153562,153562,153612,153742" d="M333.5,130.66667C334.5,130.66667 335.29999,130.66667 336.20001,130.66667C337.10001,130.66667 338.064,130.66667 338.936,130.66667C339.79999,130.66667 340.70001,130.66667 341.60001,130.66667C342.5,130.66667 343.29999,130.66667 344.20001,130.66667C345.10001,130.66667 346,130.66667 346.89999,130.66667C347.79999,130.66667 348.7038,130.74879 349.60001,130.6665C350.51144,130.58282 351.15262,129.86649 352,129.6875C352.8808,129.50145 353.85004,129.79834 354.60001,129.44533C355.37552,129.08029 356.22687,128.85263 357.10001,128.63066C357.96228,128.41145 358.59387,127.72755 359.5,127.66666C360.29819,127.61303 361.21152,127.78126 362.13599,127.63067C363.00803,127.48862 363.63846,126.96703 364.61465,126.752C365.58057,126.53924 366.5,126.5 367.10001,126.092L368,125.6875L368.89999,125.66666" id="svg_18" stroke-width="3" stroke="#000" fill="none"/>
  <path t="156522,156735,156735,156768,156784,156806,156928,156995,156995,157032,157032,157048,157080,157269,157269" d="M341.5,147.66667C342.5,147.66667 343.45325,147.23802 344.21466,147.752C344.88242,148.20276 345.1868,149.17976 345.50449,150.02834C345.84946,150.94974 346.08252,151.63823 346.33334,152.5C346.57849,153.34233 346.53601,154.26666 346.92532,155.07733L347.33334,155.83333L347.5,156.64583" id="svg_19" stroke-width="3" stroke="#000" fill="none"/>
  <path t="158382,158678,158721,158737,158753,158809,158809,158905,159009,159009,159025,159175,159175,159190,159240" d="M362.5,143.66667C362.5,145.46666 362.50195,146.28627 362.07468,147.06667C361.6243,147.88924 361.50446,148.76685 361.5,149.552C361.49466,150.49205 361.34058,151.50378 361,152.14583C360.56192,152.97163 360.216,153.86667 359.784,154.46666L359.44733,155.36667L359,156.16667" id="svg_20" stroke-width="3" stroke="#000" fill="none"/>
  <path t="166059,166143,166143,166143,166143,166143,166143,166143,166143,166159,166159,166159,166159,166159,166159,166159,166159,166159,166159,166159,166159,166159,166159,166159,166179,166179,166179,166179,166179,166179,166179,166179,166184,166185,166185,166185,166185,166185,166185,166185,166192,166192,166192,166192,166192,166192,166192,166192,166192,166200,166200,166200,166200,166201,166201,166201,166201,166201,166208,166208,166208,166208,166208,166208,166208,166208,166208,166216,166216,166216,166216,166216,166216,166217,166217,166217,166224,166224,166224,166224,166224,166224,166224,166224,166225,166232,166232,166232,166232,166232,166232,166232,166240,166240,166240,166240,166240,166248,166248,166248,166248,166256,166256,166256,166264,166280,166280,166296,166304,166304,166312,166312,166320,166328,166328,166328,166336,166336,166336,166344,166344,166344,166352,166352,166352,166360,166360,166360,166360,166368,166368,166369,166376,166376,166376,166376,166384,166385,166385,166385,166385,166392,166392,166392,166392,166392,166401,166401,166401,166401,166408,166408,166408,166416,166416,166417,166417,166424,166424,166424,166432,166432,166432,166433,166440,166440,166440,166448,166448,166448,166456,166456,166456,166457,166457,166464,166464,166464,166465,166472,166472,166472,166473,166480,166480,166480,166481,166488,166488,166488,166489,166489,166496,166496,166496,166497,166504,166504,166504,166512,166513,166513,166520,166520,166528,166529,166536,166536,166552,166552,166553,166560,166568,166576,166584,166601,166616,166617,166624,166632,166656,166712,166736,166752,166760,166768,166769" d="M21.5,169.66667C23.52333,170.02383 24.07975,170.20045 25.07333,170.468C26.23916,170.78192 26.67064,170.87296 27.58267,171.06667C28.55593,171.27338 29.06512,171.3723 30.66667,171.66667C31.22131,171.76862 31.78625,171.86911 32.94667,172.06667C33.54145,172.16792 34.14618,172.2697 35.38667,172.46666C36.66617,172.66982 37.32156,172.76645 37.98533,172.868C38.65722,172.97078 40.02127,173.18494 40.71067,173.30267C41.40495,173.42125 42.1041,173.53857 43.5,173.83333C44.20145,173.98145 44.90117,174.14731 45.6,174.32384C47.00241,174.6781 47.70039,174.87595 48.4,175.07117C49.10039,175.26662 50.49983,175.66727 51.20016,175.8665C51.90117,176.06593 52.60386,176.26453 53.31067,176.45599C54.0202,176.64821 55.45549,177.01674 56.18533,177.18134C57.66343,177.51468 58.42101,177.64908 59.18667,177.78267C59.96102,177.91779 60.74655,178.0421 61.54167,178.16667C62.34655,178.29277 63.16225,178.4157 63.98667,178.55067C65.66789,178.82593 66.52197,178.98488 67.384,179.15199C68.25332,179.32051 69.12585,179.50027 70,179.6875C70.87518,179.87494 71.74785,180.06888 72.616,180.26801C74.33438,180.66216 75.17838,180.86632 76.01334,181.06534C76.83837,181.26199 77.65304,181.45726 78.45834,181.64583C79.25304,181.83192 80.03735,182.01398 80.81333,182.18134C82.33147,182.50876 83.07792,182.64836 83.81467,182.78133C84.54227,182.91264 85.26367,183.03273 85.97916,183.14583C86.68901,183.25804 87.39535,183.36322 88.09866,183.46533C89.4997,183.66876 90.19985,183.76653 90.89867,183.86667C91.59551,183.96652 92.28939,184.06631 92.97916,184.16667C93.66405,184.26631 94.34297,184.36574 95.01466,184.46666C96.33361,184.66484 97.61346,184.86588 98.23833,184.96666C98.85346,185.06587 100.05348,185.26582 100.63834,185.36667C101.21348,185.46584 102.87849,185.76494 103.412,185.86667C104.44331,186.06332 104.93959,186.15704 105.88116,186.36667C107.16966,186.65353 107.9315,186.855 108.61733,187.06667C109.5388,187.35106 110.57823,187.76672 111.25333,188.056C112.01322,188.38159 112.99983,188.65625 113.984,188.66667C114.67463,188.67398 115.74733,188.66667 116.66666,188.66667C117.5,188.66667 118.33334,188.66667 119.1955,188.66667C120.04166,188.66667 121.04337,188.68149 121.772,188.65601C122.60978,188.62671 123.8021,188.45522 124.3955,188.314C125.26757,188.10646 126.33108,187.81813 127.04733,187.71933C127.95023,187.59479 128.92566,187.46042 129.73599,187.23067C130.31384,187.06682 131.5,186.66667 132.39999,186.36667C133,186.16667 133.89999,185.86667 134.8,185.56667C135.7,185.26666 136.29947,185.06508 137.5,184.66667C138.10107,184.46721 139.01582,184.16667 139.65717,184.02383C140.65993,183.80051 141.76126,183.71344 142.54167,183.6875C143.36137,183.66025 143.78667,183.67036 145.12117,183.6665C146.04817,183.66382 146.97937,183.65094 147.43866,183.63066C148.33116,183.59126 149.56187,183.46907 150.28566,183.30949C151.28648,183.08884 151.89767,182.86633 153.10001,182.46666C153.70016,182.26715 154.59933,181.96463 155.5,181.66667C156.39932,181.36916 157.29439,181.07823 157.89999,180.952C159.09224,180.70349 159.71031,180.68903 160.65717,180.67117C161.6665,180.65213 162.38266,180.66667 163.47917,180.66667C164.19017,180.66667 165.16667,180.66667 166.23866,180.66667C166.94817,180.66667 167.92166,180.66667 168.74667,180.66667C169.66167,180.66667 170.66667,180.66667 171.38533,180.66667C172.136,180.66667 172.91066,180.66667 173.70134,180.66667C174.89983,180.66667 175.6955,180.66667 176.47917,180.66667C177.61467,180.66667 178.67867,180.66667 179.34734,180.66667C180.32533,180.66667 180.98399,180.66667 182.02167,180.66667C182.76167,180.66667 183.54167,180.66667 184.36166,180.66667C185.66667,180.66667 186.58267,180.66667 187.51466,180.66667C187.97917,180.66667 188.89017,180.66667 190.16667,180.66667C190.92934,180.66667 191.95833,180.66667 192.591,180.66667C193.79984,180.66667 194.39549,180.66667 195.26401,180.66667C196.33333,180.66667 197.26401,180.66667 198.09866,180.66667C199.10001,180.66667 199.89999,180.66667 200.89999,180.66667C201.7,180.66667 202.7,180.66667 203.5,180.66667C204.5,180.66667 205.28934,180.66667 206.01466,180.66667C207.08934,180.66667 207.89999,180.66667 208.8,180.66667C209.7,180.66667 210.60001,180.66667 211.5,180.66667C212.3,180.66667 213.2,180.66667 214.10001,180.66667C215,180.66667 215.89999,180.66667 216.8,180.66667C217.7,180.66667 218.60001,180.66667 219.5,180.66667L220.3,180.66667" id="svg_21" stroke-width="3" stroke="#000" fill="none"/>
  <path t="167623,167709,167709,167724,167724,167724,167724,167724,167724,167724,167724,167744,167744,167752,167752,167752,167752,167760,167760,167760,167760,167760,167760,167768,167768,167768,167768,167776,167776,167776,167785,167785,167785,167792,167792,167792,167801,167801,167801,167801,167801,167808,167808,167808,167818,167818,167824,167824,167840,167840,167848,167864,167872,167880,167888,167888,167896,167896,167904,167904,167904,167913,167913,167913,167920,167920,167920,167929,167929,167929,167929,167936,167936,167936,167946,167946,167946,167946,167960,167960,167968,167968" d="M413.5,165.66667C415.20001,165.66667 416.08334,165.66667 417.16666,165.66667C417.83734,165.66667 418.612,165.66667 419.43466,165.66667C420.24933,165.66667 421.64401,165.66667 422.4375,165.66667C423.09601,165.66667 424.1116,165.63736 425.01434,165.72383C425.83685,165.80263 426.81952,166.02084 427.5625,166.1875C428.36691,166.36794 429.66644,166.6676 430.12115,166.76666C431.04776,166.96854 431.97946,167.16522 432.43866,167.26666C433.33127,167.46385 434.55963,167.75737 435.28568,167.96666C436.28241,168.25397 436.8949,168.47414 438.10001,168.86534C438.69882,169.05972 439.59259,169.34879 440.5,169.5C441.38989,169.6483 442.26398,169.658 443.33334,169.66667C444.05634,169.67253 444.80084,169.67368 446,169.83333C446.75467,169.93381 447.57819,170.09238 448.42401,170.27733C449.25024,170.45799 450.3429,170.74596 450.9285,170.96666C451.89996,171.33278 452.68881,171.79001 453.47916,172.14583C454.32236,172.52544 455.12531,172.66133 456.15268,172.66667C456.84732,172.67027 457.86401,172.66667 458.79999,172.66667C459.70001,172.66667 460.60001,172.66667 461.5,172.66667C462.25717,172.66667 463.16165,172.66675 463.96167,172.66667C464.92151,172.66658 465.73868,172.69199 466.60449,172.6095C467.8056,172.49506 468.3941,172.30838 469.26401,172.092C470.33167,171.82643 471.0527,171.72697 471.76132,171.64133C472.83481,171.51157 473.80533,171.314 474.5,171.16667C475.19467,171.01933 476.45496,170.76202 477.24933,170.70267C478.00391,170.64629 479.14273,170.67213 479.80533,170.66217C480.50012,170.65173 481.53201,170.58133 482.45685,170.44533L483.4375,170.16667L484.33334,169.83333L485.08932,169.67734" id="svg_22" stroke-width="3" stroke="#000" fill="none"/>
  <path t="168777,168793,168793,168793,168793,168793,168793,168793,168793,168808,168808,168808,168808,168808,168808,168808,168808,168808,168816,168816,168816,168816,168816,168816,168816,168816,168816,168824,168824,168824,168824,168824,168824,168824,168824,168824,168832,168832,168832,168832,168832,168832,168832,168832,168832,168840,168840,168840,168840,168840,168840,168840,168840,168840,168848,168848,168848,168848,168848,168848,168848,168848,168848,168856,168856,168856,168856,168856,168856,168856,168856,168856,168864,168864,168864,168864,168864,168864,168864,168864,168864,168872,168872,168872,168872,168872,168872,168872,168872,168872,168880,168880,168880,168880,168880,168880,168880,168880,168880,168888,168888,168888,168888,168888,168888,168888,168888,168888,168896,168896,168896,168896,168896,168896,168896,168896,168896,168904,168904,168904,168904,168904,168904,168904,168904,168904,168912,168912,168912,168920,168920,168928,168945,168945,168984,169032,169032,169040,169048,169056,169064,169064,169072,169072,169072,169080,169080,169080,169088,169088,169088,169088,169096,169096,169096,169096,169104,169104,169104,169104,169104,169112,169112,169112,169112,169120,169120,169120,169128,169128,169128,169128,169136,169136,169136,169144,169144,169144,169152,169152,169152,169152,169160,169168,169168,169176,169176,169176,169184,169185,169185,169192,169192,169200,169200,169200,169208,169208,169208,169216,169216,169224,169224,169224,169224,169232,169233,169233,169233,169233" d="M37.5,286.66666C44.54317,285.34515 45.27233,285.18277 46.01883,285.00949C46.783,284.83212 47.56257,284.64612 48.35733,284.45599C49.16624,284.26248 49.9873,284.06241 51.66667,283.66666C52.52098,283.46533 53.38358,283.26614 54.25267,283.07117C55.12492,282.87546 55.99944,282.68481 56.87467,282.50266C57.74678,282.32114 58.61394,282.14069 60.33333,281.83334C61.17769,281.6824 62.01574,281.54901 62.84733,281.41934C63.67442,281.29037 64.50012,281.16748 65.32533,281.04132C66.15279,280.91483 66.98585,280.79343 68.66666,280.5C69.52231,280.35062 70.3846,280.1843 71.25267,280.00949C72.12594,279.83365 73.00046,279.64795 73.87466,279.45599C74.7478,279.26428 75.61679,279.06876 77.33334,278.66666C78.17923,278.46851 79.01703,278.26669 79.85184,278.07117C80.68503,277.87601 81.52003,277.68381 82.36134,277.50266C83.20904,277.3201 84.06622,277.13425 85.83334,276.83334C86.74149,276.67871 87.67046,276.54788 88.61433,276.41483C89.57179,276.27985 90.54214,276.14917 91.52133,276.00534C92.5095,275.8602 93.50763,275.72354 95.5,275.33334C96.5025,275.13699 97.50002,274.90286 98.4955,274.65683C99.49072,274.41086 100.47962,274.14755 101.464,273.88135C102.44329,273.61652 103.41234,273.34061 105.33334,272.83334C106.27738,272.58405 107.21371,272.34937 108.14283,272.12833C109.06308,271.90939 109.97823,271.70395 110.88934,271.51334C111.79459,271.32394 112.69619,271.13904 114.5,270.83334C115.39866,270.68106 116.29821,270.54877 117.1955,270.42383C118.08889,270.29944 118.97897,270.18588 119.864,270.07733C120.74264,269.96957 121.61478,269.86893 123.33334,269.66666C124.17889,269.56714 125.01734,269.46674 125.85184,269.36667C126.68534,269.26672 127.52078,269.1662 128.36133,269.06668C129.20978,268.96622 130.06898,268.86359 131.83333,268.66666C132.74199,268.56525 133.66385,268.46655 134.59183,268.37115C135.51851,268.27591 136.43732,268.18549 137.34134,268.10266C138.22298,268.02188 139.0753,267.9422 140.66667,267.83334C141.39221,267.78372 142.07321,267.74915 142.71417,267.72385C143.3199,267.69995 143.8958,267.68561 144.44667,267.67734C144.97746,267.66937 145.49333,267.66733 146.5,267.66666C146.99966,267.66632 147.49733,267.66666 147.991,267.66666C148.47867,267.66666 148.95833,267.66666 149.42799,267.66666C149.88567,267.66666 150.32933,267.66666 151.16667,267.66666C151.55684,267.66666 151.92799,267.66666 152.28117,267.66666C152.61734,267.66666 152.9375,267.66666 153.24266,267.66666C153.53383,267.66666 153.812,267.66666 154.33333,267.66666C154.57834,267.66666 155.45833,267.66666 156.33333,267.66666C157.1955,267.66666 158.13646,267.63995 158.98399,267.668C159.84866,267.69662 160.76253,268.00131 161.5,268.66666C162.01421,269.13055 162.79865,269.63806 163.7,269.66666C164.59955,269.69519 165.5,269.66608 166.31433,269.66666C167.27066,269.66733 168.04474,269.65494 168.90266,269.75201C169.80452,269.85406 170.70273,270.09357 171.3,270.27734C172.50578,270.64838 173.39999,270.96664 174,271.16666C174.90001,271.46664 175.79787,271.77438 176.72133,272.06668C177.3703,272.27209 178.06667,272.48279 179.24266,272.76651C180.10257,272.97397 180.99928,273.14978 181.44934,273.23065C182.33066,273.38904 183.55649,273.55103 184.28566,273.61401C185.27803,273.69974 185.90762,273.69672 187.10001,273.952C188.00969,274.14673 188.60068,274.36911 189.8,274.76666C190.40033,274.96567 191.2999,275.26697 191.89999,275.46667C193.09979,275.86594 193.69052,276.09244 194.60001,276.30951C195.78954,276.59341 196.40131,276.60016 197.3,276.69199C198.50203,276.81482 199.10037,276.9389 199.95833,277.16666C200.73222,277.3721 201.83809,277.64865 202.66667,277.66666C203.52063,277.68521 204.5,277.66666 205.31067,277.66666C205.95717,277.66666 207.18401,277.66666 208,277.66666C208.81599,277.66666 209.81467,277.66666 210.47917,277.66666C211.5,277.66666 212.31067,277.66666 213.18533,277.66666C214.18401,277.66666 215,277.66666 215.81599,277.66666C216.81599,277.66666 217.72533,277.66666 218.66667,277.66666C219.46617,277.66666 220.38266,277.6666 221.07201,277.66666C222.24283,277.66675 223.10983,277.67117 223.56134,277.67734L224.48534,277.70267L225.41733,277.75201" id="svg_23" stroke-width="3" stroke="#000" fill="none"/>
  <path t="169776,169875,169875,169890,169890,169890,169890,169890,169890,169890,169912,169912,169912,169912,169912,169920,169920,169920,169920,169920,169928,169928,169928,169928,169936,169936,169936,169936,169944,169944,169944,169953,169953,169960,169960,169960,169968,169968,169976,169976,169976,169992,169992,170000,170000,170000,170016,170032,170032,170040,170048,170048,170056,170064,170072,170080,170080,170088,170096,170096,170104,170112,170112,170120,170128,170144,170144,170152" d="M399.5,292.66666C402.10449,291.37115 402.94345,290.95822 403.92151,290.78818C404.72836,290.64789 405.31064,290.672 406.5,290.66666C407.409,290.66257 408.04166,290.66666 409.07068,290.66666C410.24301,290.66666 410.67065,290.66666 411.57199,290.66666C412.52133,290.66666 413.009,290.66666 414.5,290.66666C415.49734,290.66666 415.991,290.66666 416.95834,290.66666C417.88568,290.66666 419.16666,290.66666 419.92932,290.66666C420.62799,290.66666 421.27866,290.66666 422.5,290.66666C423.39999,290.66666 424,290.66666 424.89999,290.66666C426.09866,290.66666 426.97916,290.66666 427.54285,290.66666C428.81601,290.66666 429.5,290.66666 430.66666,290.66666C431.44818,290.66666 432.23868,290.66666 433.16666,290.66666C434,290.66666 435.04285,290.66666 435.76132,290.66666C436.55182,290.66666 437.57849,290.66666 438.47916,290.66666C439.5,290.66666 440.28937,290.659 441.01468,290.66666C442.00015,290.67709 442.97678,290.96848 443.67465,291.24133C444.60562,291.60535 445.5,291.66666 446.29999,291.66666C447.20001,291.66666 448.10001,291.66666 449.02084,291.66666C449.98401,291.66666 450.67465,291.66666 451.61465,291.66666C452.60016,291.66666 453.38535,291.66666 454.32535,291.66666C455.33334,291.66666 456.08932,291.66666 457,291.66666C457.91068,291.66666 458.82132,291.66666 459.67465,291.66666L460.61465,291.66666" id="svg_24" stroke-width="3" stroke="#000" fill="none"/>
 </g>
</svg>