<svg width="315" height="420" xmlns="http://www.w3.org/2000/svg" xmlns:svg="http://www.w3.org/2000/svg" xmlns:xlink="http://www.w3.org/1999/xlink">
 <!-- Created with SVG-edit - http://svg-edit.googlecode.com/ -->
 <g display="inline" class="layer">
  <title>Layer 1</title>
  <path t="0,425,440,471,496,497,497,572,587,587,637,671,738,738,777,804,825,837,837,854,871,871,887,887,904,937,937,954,971,971,993,1025,1054,1070,1070,1091,1154,1208,1219,1236,1236,1253,1269,1269,1303,1303,1319,1360,1376,1376,1392,1424,1453,1469,1486,1503,1528,1528,1576,1586,1603,1624,1640,1653,1669,1669,1688,1688,1688,1703,1703,1719,1736,1736,1753,1753,1769,1819,1819,1836,1869,1869,1888,1912,1944,1986,2003,2024,2036,2069,2086,2104,2120,2136,2136,2153,2176,2186,2203,2203,2224,2240,2256,2256,2269,2312,2353,2353,2437,2468,2487,2504,2504,2520,2520,2537,2537,2554,2604,2604,2654,2654,2670,2697,2737,2737,2770,2787,2820,2854,2870,2887,2904,2921,2937,2989,3024,3036,3053,3069,3086,3104,3119,3218,3218,3234,3270,3270,3304,3329,3354,3437,3468,3468,3487,3529,3554,3554,3668,3705,3705,3756,3808,3853,3853,3888,3920,4034,4034,4086,4103,4119,4119,4144,4169,4203,4203,4224,4236,4236,4253,4286,4286,4303,4303,4303,4319,4319,4319,4319,4319,4336,4336,4336,4336,4337,4353,4353,4353,4353,4353,4354,4369,4369,4369,4369,4369,4370,4370,4386,4386,4386,4386,4387,4387,4408,4409,4409,4409,4659,4690,4690,4703,4833,4857,4887,4939,4989,4989,5040,5057,5097,5097,5120,5137,5154,5170,5187,5187,5204,5204,5220,5257,5322,5371,5408,5455,5455,5488,5503,5519,5536,5553,5553,5569,5569,5586,5586,5586,5603,5603,5619,5687,5687,5728,5728,5753,5930,6020,6057,6097,6119,6136,6153,6153,6169,6169,6186,6186,6186,6209,6209,6209,6209,6236,6236,6253,6253,6313,6336,6336,6388,6453,6469,6496,6528,6553,6569,6586,6586,6604,6619,6636,6653,6672,6688,6704,6728,6728,6753,6769,6769,6786,6803,6819,6836,6836,6853,6853,6886,6903,6936,7269,7496,7496,7601,7796,7812,7853,7921,7972,8101,8101,8136,8153,8356,8356,8483,8570,8601,8671,8784,9761,9776,9803" d="M60.5,420.5C61.07467,418.89999 61.32486,418.08221 61.509,417.1955C61.6963,416.29361 62.38222,415.69992 62.79467,415.15268C63.44194,414.29385 63.81105,413.45544 64.216,412.70001C64.62125,411.94403 64.9442,411.1077 65.59983,410.39999C66.14979,409.80637 66.33257,408.98276 66.51067,408.10001C66.70107,407.15625 67.39081,406.50977 67.49866,405.70001C67.62528,404.74945 67.82001,403.82745 68.2045,403.15268C68.65633,402.35968 69.23959,401.71014 69.52533,400.86401C69.80899,400.02402 70.08874,399.33014 70.44733,398.25717C70.73257,397.40366 71.11783,396.78702 71.52533,395.89999C71.8987,395.08725 72.39108,394.40161 72.5,393.5C72.5965,392.70129 73.24694,391.96283 73.464,391.10001C73.68374,390.2265 73.31112,389.23068 73.7215,388.39999C74.06265,387.70941 75.02103,387.15256 75.33334,386.33334C75.63606,385.53925 75.68054,384.67398 76.07467,383.91068C76.48941,383.10745 77.00051,382.28122 77.33334,381.5C77.65352,380.74847 77.61044,379.83041 78.30133,379.41599C79.09615,378.93924 79.48132,378.10052 79.5,377.20001C79.51866,376.30017 79.80084,375.44916 80.14733,374.79999C80.60068,373.95062 80.33272,372.89072 80.85717,372.2045C81.43055,371.45425 82.35863,371.27551 82.50017,370.39999C82.64623,369.49646 83.08383,368.99225 83.6,367.95734C83.9432,367.26923 84.14174,366.47586 84.59983,365.64301C85.01337,364.89117 85.46296,364.08929 85.50017,363.17868C85.53503,362.32532 85.8367,361.41516 86.14733,360.8045C86.6069,359.90106 86.80137,359.02304 87.07467,358.32535C87.43941,357.3942 87.73029,356.53967 88.14733,355.79999C88.56736,355.05499 89.29988,354.50143 89.49866,353.69867C89.69085,352.92258 90.11803,352.18964 90.41467,351.29999C90.70057,350.44254 91.04841,349.83069 91.44283,349.14282C91.91268,348.32343 91.34648,347.25153 91.66666,346.5C91.99949,345.71878 92.43474,344.96793 92.85267,344.20001C93.31036,343.35904 93.71456,342.52991 94.07467,341.89999C94.5687,341.0358 95.02719,340.29056 95.3785,339.39999C95.63913,338.73932 95.78153,338.00632 96.37867,337.2785C96.97679,336.5495 97.30987,335.84592 97.48933,334.89999C97.65711,334.01572 97.38804,333.04681 97.78533,332.29868C98.11185,331.68381 98.78104,330.83606 99.2,330.15268C99.67869,329.37189 100.38892,328.77594 100.88934,328.08932C101.49822,327.25388 101.3237,326.44254 101.7215,325.52151C102.06429,324.72784 102.77858,324.17392 103.59983,323.62115C104.31568,323.13931 104.40832,322.27951 104.92533,321.56134C105.40327,320.89746 105.78998,320.10687 106.59983,319.62134C107.32961,319.18381 107.8241,318.63434 108.47467,318.07468C109.11794,317.5213 109.13675,316.69821 109.536,315.936C109.93321,315.17767 110.6171,314.71808 111.07467,313.89999C111.50664,313.12769 112.12617,312.67169 112.7955,312.14282C113.53642,311.5574 113.32357,310.46075 113.58533,309.70001C113.85358,308.92044 114.83086,308.39206 115.21467,307.70001C115.67194,306.87552 115.33267,305.88034 115.52084,305C115.70222,304.15137 116.58932,303.57288 117.064,302.89999C117.58237,302.16519 117.90888,301.37268 118.33334,300.5C118.65418,299.84033 119.01556,298.99484 119.7,298.29999C120.19621,297.79623 121.09741,297.20294 121.41467,296.29999C121.71434,295.44705 121.51054,294.64554 122.11066,293.89999C122.72471,293.13715 123.11361,292.37891 123.584,291.78534C124.16933,291.04675 124.5,290.39999 124.5,289.5C124.5,288.70001 124.38541,287.78848 124.536,286.86401C124.67805,285.99197 125.10892,285.3371 125.416,284.38535C125.69855,283.50964 126.14711,282.7999 126.5,282C126.85695,281.19092 127.34452,280.54938 127.7,279.72665C128.0426,278.93375 128.216,278.28088 128.5,277.16666C128.71199,276.33496 128.89915,275.44916 129.10001,274.55066C129.19957,274.10526 129.49487,272.832 129.7,272.06668C129.89513,271.33868 130.20502,270.23874 130.3,269.84668C130.61678,268.53928 130.80188,267.52432 130.89999,266.98132C131.00195,266.41699 131.20152,265.22958 131.3,264.61066C131.50316,263.33383 131.59674,262.67831 131.8045,261.35184C131.90894,260.68506 132.0172,260.0202 132.136,259.36133C132.25359,258.70917 132.66078,256.83176 132.82117,256.24335C132.97696,255.67175 133.31435,254.59323 133.47917,254.08333C133.78955,253.12314 134.19212,251.83833 134.32933,251.07333C134.45064,250.397 134.4955,249.52336 134.5,248.47067C134.50415,247.50002 134.30405,246.66556 134.55716,245.8C134.8138,244.92236 135.47141,244.20135 135.5,243.3C135.52853,242.40045 135.47464,241.4996 135.5,240.7C135.52859,239.79865 135.9442,239.1077 136.59984,238.39999C137.1498,237.80637 137.49466,236.90004 137.5,236C137.50533,235.10002 137.42418,234.17644 137.66667,233.33333C137.86227,232.65327 138.40643,231.67813 138.48933,230.91066C138.58714,230.0052 138.5,229.10001 138.5,228.2C138.5,227.3 138.5,226.39999 138.5,225.5C138.5,224.7 138.5,223.8 138.5,222.89999C138.5,222 138.5,221.08934 138.5,220.1785C138.5,219.28934 138.5,218.3 138.5,217.5C138.5,216.5 138.5,215.7 138.5,214.89999C138.5,213.9045 138.5,213.15717 138.5,212.25267C138.5,211.33333 138.5,210.5 138.5,209.5215C138.5,208.70134 138.5,207.8 138.5,206.89999C138.5,206 138.5,205.10001 138.5,204.2C138.5,203.3 138.5,202.39999 138.5,201.5C138.5,200.74283 138.5,199.83833 138.5,199.03833C138.5,198.07834 138.5,197.25333 138.5,196.33833C138.5,195.33333 138.5,194.61867 138.5,193.54167C138.5,192.867 138.50066,191.76433 138.5,190.896C138.49933,190.01601 138.55086,189.10947 138.14734,188.25717C137.76357,187.44658 137.50067,186.7 137.5,185.8C137.49933,184.89999 137.5,184 137.5,183.10001C137.5,182.2 137.5,181.3 137.5,180.39999C137.5,179.5 137.5,178.7 137.5,177.8C137.5,176.89999 137.5,176 137.5,175.10001C137.5,174.2 137.5,173.3 137.5,172.39999C137.5,171.5 137.5,170.7 137.5,169.74283C137.5,168.84734 137.5,167.98399 137.5,167.136C137.5,166.2 137.5,165.29866 137.5,164.33333C137.5,163.5 137.5,162.66667 137.5,161.8045C137.5,160.89999 137.49776,160 137.5,159.10001C137.50226,158.19998 137.75908,157.27638 138.30133,156.7C138.96899,155.99033 139.71671,155.69241 140.59984,155.49983C141.44411,155.31573 141.868,154.65077 142.8,154.4955C143.61765,154.35928 144.13751,153.72516 144.89999,153.11067C145.64577,152.50966 146.45378,152.25786 147.2,151.85266C147.96112,151.43936 148.95763,151.82224 149.88933,151.48933C150.62624,151.22604 151.11067,150.47467 151.89999,150.07466L152.7,149.58533L153.59984,149.49983" id="svg_1" stroke-width="3" stroke="#000" fill="none"/>
  <path t="11323,11821,11853,11870,11887,11887,11903,11920,11937,12020,12052,12052,12069,12086,12086,12104,12105,12120,12234,12512,12512,12555,12683,12720,12760,12804,12893,12908,12953,12977,13003,13026,13119,13119,13187,13203,13224,13225,13337,13353,13377,13402,13419,13441,13502,13519,13519,13602,13640,13829,13872,13872,13920,14158,14174,14763,14779,14779,14803,14803,14803,14820,14820,14950,15286,15286,15320,15352,15369,15386,15386,15408,15452,15452,15469,15520,15561,15561,15593,15844,15888,15888,15912,15944,15944,15992,16036,16073,16104,16128,16152,16169,16169,16186,16186,16202,16219,16219,16219,16240,16286,16286,16305,16305,16352,16369,16386,16386,16402,16424,16436,16469,16469,16486,16486,16528,16588,16620,16637,16653,16653,16670,16670,16687,16720,16737,16777,16777,16803,16820,16837,16837,16853,16853,16870,16887,16970,16970,17001,17009,17020,17020,17053,17053,17053,17070,17070,17087,17129,17129,17205,17241,17241,17270,17270,17287,17287,17303,17387,17420,17420,17437,17437,17437,17453,17487,17529,17698,17698,17714,17736,17770,17770,17837,17837,17903,17934,17952,17969,17969,18019,18040,18041,18231,18231,18247,18270,18289,18290,18321,18370,18403,18403,18420,18420,18436,18456,18456,18486,18503,19211,19436,19629,19829,20014,20197,20687,20738,20738,20913,21066,21082,21082,21121,21202,21202,21270,21483,21710,21710,21863,21863,21886,21886,22109,22125,22234,22303,22920,22936,22936,22953,22953,22969,22969,22969,22969,23272,23272,23288,23288,23304,23320,23335,23335,23352,23353,23353,23392,23393,23484,23500,23520,23520,23536,23553,23553,23553,23570,23571,23586,23586,23653,23688,23704,23704,23728,23728,23752,23914,23914,23929,23929,23952,23969,23985,23985,24019,24040,24040,24056,24085,24246,24262,24262,24285,24302,24302,24302,24302,24319,24319,24319,24319,24335,24376,24562,24562,24578,24593,24619,24635,24656,24798,24870,24886,24886,24903,24919,25175,25191,25284,25336,25353,25353,25386,25386,25611,25687,25831,25846,26120,26136,26136,26152,26153,26204,26333,26352,26353,26498,26498,26514,26536,26536,26553,26667,26721,26753,26805,26805,26820,26836,26836,26966,26986,27009,27009,27071,27071,27086,27119,27119,27137,27155,27169,27299,27299,27314,27335,27353,27376,27376,27402,27402,27517,27537,27537,27569,27586,27638,27704,27704,27719,27753,27777,27777,27803,27995,27995,28011,28011,28068,28370,28403,28419,28436,28436,28469,28486,28836,28836,29873,29888,29889,29889,29928,30299" d="M134.5,182.5C135.33333,184.66667 135.8974,185.18365 136.44733,185.85716C137.02165,186.56056 137.23325,187.37791 138,187.97917C138.64841,188.48763 139.28154,189.03439 139.94667,189.47467C140.70438,189.97623 141.79408,189.96635 142.33067,190.7C142.84293,191.40036 143.10312,192.21045 144.15266,192.44284C144.83286,192.59344 145.87248,192.37868 146.8,192.5045C147.62138,192.61594 148.13715,193.27528 148.89999,193.88933C149.64554,194.48946 150.84731,194.88936 151.37849,194.2785C151.96036,193.60938 151.86276,192.68489 152.44733,192.14734C153.02959,191.61191 153.89305,191.20999 154.37866,190.40016C154.81628,189.67038 155.45378,189.25786 156.2,188.85266C156.96112,188.43936 157.97627,188.64438 158.8,188.14284C159.37125,187.79503 159.91533,186.82611 160.8,186.55716C161.66164,186.29521 162.24759,185.87228 163.02083,185.52083C163.82143,185.15694 164.86148,185.65489 165.60001,185.2785C166.28627,184.92876 166.79701,183.90251 167.7,183.58533C168.55295,183.28572 169.5004,183.52536 170.3,183.5C171.20135,183.47141 171.92339,182.81728 172.8,182.55716C173.56891,182.32901 174.5,182.49944 175.31433,182.5C176.26933,182.50067 177.02591,182.47473 177.81734,182.58533C178.82318,182.72589 179.61911,183.19412 180.61467,183.41467C181.48305,183.60706 182.33444,183.30405 183.2,183.55716C184.07764,183.8138 184.91281,184.30338 185.60001,184.94267C186.10228,185.40994 186.57587,186.37744 187.5,186.5C188.29306,186.60518 189.26265,186.46288 190,187.02083C190.77776,187.60936 191.13606,188.27161 191.89999,188.88933C192.64478,189.49156 193.53268,189.62561 194.10001,190.11067C194.84671,190.74911 195.42842,191.58748 196.10001,192.064C196.82565,192.57889 197.37706,193.217 198.11067,193.48933C198.94493,193.79904 199.83762,193.82593 200.37883,194.59984C200.87334,195.30698 201.57704,195.32964 202.4785,195.7215C203.27133,196.06615 203.87137,196.95316 204.66667,197.5C205.29713,197.9335 206.01334,198.22403 207,198.5C207.8192,198.72913 208.65837,199.12187 209.4785,199.37866C210.28535,199.6313 211.08223,200.11238 211.89999,200.47467C212.68465,200.8223 213.2227,201.39157 214,201.97917C214.73761,202.53677 215.70131,202.45148 216.60017,202.50017C217.38878,202.54288 218.39522,202.82571 218.93066,203.30133C219.64883,203.93925 220.203,204.55534 221,205C221.79852,205.44551 222.71509,205.42511 223.38533,205.58533C224.35754,205.81772 225.03461,206.15921 225.97917,206.5C226.81953,206.80321 227.65054,207.25273 228.5,207.66667C229.15225,207.98451 229.89946,208.48199 230.8045,208.5C231.82114,208.52022 232.50131,208.44949 233.4785,208.50017C234.30196,208.54288 235.07007,209.14285 235.7,209.69867C236.46571,210.3743 237.19852,210.55534 238,211C238.80302,211.44551 239.66959,211.44734 240.52083,211.52083C241.50713,211.60597 242.28589,211.96759 243.10001,212.216C243.88718,212.45619 244.85025,212.38882 245.74283,212.5045C246.61967,212.61813 247.29128,213.24069 248.136,213.52533C248.97737,213.80884 249.69139,214.14647 250.69983,214.37866C251.46844,214.55563 252.44954,214.77435 253.1955,215.14734C253.97386,215.53654 254.93285,215.431 255.8215,215.7215C256.54456,215.95786 257.49628,216.50764 258.09549,216.7955C258.83832,217.15236 259.86349,217.48131 260.79999,217.5C261.69983,217.51796 262.45828,217.73395 263.20001,218.14734C263.96368,218.57297 264.72528,218.98938 265.60016,219.37866C266.34164,219.7086 267.13065,219.91023 268.01599,220.216C268.95975,220.54196 269.79999,220.5 270.70001,220.5C271.60016,220.5 272.38535,220.5 273.32535,220.5C274.33334,220.5 275.14133,220.48613 275.98401,220.784C276.69049,221.03372 277.61188,221.45729 278.60001,221.5C279.49915,221.53886 280.29999,221.5 281.20001,221.5C282.13599,221.5 282.98532,221.5 283.71066,221.5C284.69983,221.5 285.664,221.5 286.61465,221.5C287.5,221.5 288.29999,221.5 289.20001,221.5C290.10001,221.5 291.05774,221.19522 291.88934,221.51067C292.6185,221.78725 292.5,222.89999 292.5,223.8C292.5,224.7 292.5,225.60001 292.5,226.5C292.5,227.3 292.50073,228.2 292.5,229.136C292.49933,229.98399 292.65363,230.94907 292.14282,231.73833C291.6669,232.47368 290.64484,232.5085 289.89999,233.11067C289.2467,233.63881 288.68167,234.50452 288.44733,235.25717C288.16531,236.16295 287.80197,236.89148 287.62134,237.69966C287.41632,238.61688 287.0231,239.23163 286.2045,239.5045C285.4465,239.75717 284.96332,240.46674 284.1955,240.85266C283.31354,241.29594 282.50015,241.48958 281.521,241.5C280.8027,241.50764 279.73575,241.50711 279.13751,241.4955C278.13971,241.47614 277.45114,241.49229 276.272,241.216C275.5499,241.04681 274.52847,240.565 273.8045,240.5045C272.90314,240.42918 271.95596,240.55255 271.01468,240.21466C270.26648,239.94608 269.51007,239.47861 268.70001,239.11067C268.10696,238.84131 267.10379,238.54732 266.15717,238.5045C265.25809,238.46384 264.24271,238.6637 263.39999,238.27867C262.73068,237.97287 261.9585,237.51042 260.95734,237.5C260.24936,237.49263 259.5032,237.56715 258.30984,237.4955C257.61389,237.4537 256.65155,237.10466 255.98399,236.69867C255.10234,236.16246 254.40611,235.56088 253.5,235.5C252.74454,235.44923 251.84729,235.50914 250.98399,235.5C249.99983,235.48958 249.18407,235.26532 248.32533,234.92534C247.52634,234.60901 246.66812,234.69226 245.8,234.44284C244.90359,234.1853 244.18367,233.57169 243.32533,233.51067C242.38762,233.44402 241.54172,233.26605 240.8,232.85266C240.03632,232.42703 239.29669,231.95682 238.39999,231.62151C237.54936,231.30342 236.68489,231.60799 235.79201,231.42799C234.97444,231.26318 234.13271,230.79077 233.45833,230.47917C232.74336,230.14882 231.6714,229.65492 230.98801,229.38667C230.06859,229.02577 229.28824,228.70319 228.31433,228.55716C227.40834,228.42133 226.5,228.5 225.7,228.5C224.8,228.5 223.89999,228.5 223,228.5C222.10001,228.5 221.2,228.5 220.3,228.5C219.39999,228.5 218.5,228.5 217.7,228.5C216.8,228.5 215.89999,228.5 215,228.5C214.10001,228.5 213.2,228.5 212.3,228.5C211.39983,228.5 210.61467,228.5 209.67467,228.5C208.98399,228.5 207.91066,228.5 207,228.5C206.10001,228.5 205.2,228.50008 204.3,228.5C203.39983,228.49991 202.60585,228.43875 201.84734,228.14734C200.97296,227.81142 200.01706,227.73761 199.2045,227.14284C198.52817,226.64778 198.37823,225.64029 197.63867,225.10001C197.01825,224.64676 196.33739,224.06421 195.39999,223.62134C194.74042,223.30972 194.02783,222.83348 193.52533,222.11067C193.05766,221.43799 192.18617,221.15758 191.5,220.5C190.88737,219.91289 190.30258,219.03424 189.5,218.66667C188.75728,218.32652 187.74432,218.5313 187.10001,218.064C186.31886,217.49747 185.77023,216.75748 185.01601,216.30133C184.34743,215.89699 183.32591,215.73892 182.5,215.33333C181.83002,215.0043 181.11517,214.25803 180.62134,213.40016C180.19681,212.66269 179.5423,212.26501 178.8,211.85266C177.9756,211.3947 177.45026,210.84813 176.73833,210.39017C176.01894,209.92741 175.39781,209.24051 174.5215,208.74283C173.84863,208.3607 172.98016,207.99904 172.40016,207.39999C171.83727,206.81862 171.49637,205.90433 170.7955,205.44733C170.02231,204.94318 169.48184,204.29297 168.8,203.85716C167.97601,203.33051 167.09119,203.07318 166.39999,202.39999C165.89343,201.90663 165.19283,201.20711 164.5,200.5C163.99472,199.9843 163.43576,199.15572 163,198.52083C162.44408,197.71086 161.75044,197.18503 161.216,196.584C160.64153,195.93793 160.23215,195.2845 159.69867,194.7C159.04179,193.98029 158.69206,193.13765 158.2785,192.39999C157.834,191.60713 157.05911,191.12006 156.5,190.33333C156.05559,189.70799 155.61467,189.06934 154.68533,188.56134L153.83333,188.33333" id="svg_2" stroke-width="3" stroke="#000" fill="none"/>
  <path t="34686,35024,35024,35052,35072,35073,35086,35102,35121,35136,35137,35186,35286,35301,35328,35328,35352,35353,35386,35516,35516,35552,35602,35602,35763,35801,35801,35840,35840,35887,35937,35961,35961,36052,36198,36198,36218,36218,36235,36251,36251,36268,36419,36419,36436,36436,36452,36551,36551,36566,36585,36585,36601,36641,36651,36797,36818,36818,36835" d="M185.5,180.5C185.5,179.5 185.373,178.72241 185,177.97917C184.52995,177.04256 184.4872,176.18225 184,175.52083C183.51283,174.85944 183.0558,174.1077 182.40016,173.39999C181.8502,172.80637 181.66934,171.98238 181.48933,171.10001C181.29657,170.15506 180.49976,169.50024 180,169C179.30099,168.30034 178.91624,167.62946 178.43866,166.89999C177.91779,166.10442 177.14149,165.87683 176.136,165.52533C175.2941,165.23102 174.69977,164.6989 174,164C173.39963,163.40036 172.76389,162.78664 171.85184,162.55267C171.0824,162.3553 170.23427,161.99998 169.66667,161.33333C169.08482,160.64995 168.79625,159.8555 168,159.5C167.19624,159.14116 166.62708,158.67873 165.67467,158.10001C164.99257,157.68553 164.35017,157.04054 163.5,156.66667C162.79117,156.35497 161.5755,156.77989 160.83333,156.33333C160.14032,155.91635 159.66496,155.05115 158.98267,154.78534C158.02921,154.41389 157.18407,154.26532 156.32533,153.92534C155.52634,153.60901 154.4998,153.51799 153.7,153.5C152.89938,153.48199 152.18967,152.88187 151.3,152.58533C150.44235,152.29945 149.5,152.5 148.7,152.5L147.8,152.5" id="svg_3" stroke-width="3" stroke="#000" fill="none"/>
  <path t="42414,42718,42718,42770,42851,42851,42996,42996,43012" d="M185.5,181.5C184.5,181.5 183.61346,181.5257 183,180.95833C182.2778,180.29041 182.02083,179.5 181.62151,178.5215L181.50133,177.70134L181.5,176.8" id="svg_6" stroke-width="3" stroke="#000" fill="none"/>
  <path t="44719,45067,45117,45135,45150,45167,45282,45297,45317,45317,45333,45333,45375,45501,45501,45536,45552,45568,45568,45760,45776,45801,45801,45818,45818,45834,45948,45948,45968,45968,45984,45984,45984,46067,46067,46135,46185,46303,46318,46343,46343,46383,46433,46450,46876,46919,46935,46985,47380,47380,47396,47563,47584,47608,47618,47795,47795,48937,49221,49237,49267,49503,49584,49584,49651,49702,49862,49878,50280,50334" d="M179.5,170.5C178.85266,171.2045 178.45847,172.24573 179.2045,172.4955C180.09621,172.79405 180.72511,173.0433 181.37866,173.72133C181.93729,174.30089 182.55109,174.80887 183.25717,175.14734C184.10751,175.55496 185.01601,175.49933 186,175.5C186.82133,175.50055 187.67467,175.5 188.61467,175.5C189.60001,175.5 190.5004,175.47464 191.3,175.5C192.20135,175.52859 192.87843,175.98199 193.66667,176.5C194.47,177.02792 195.35757,177.25526 196.08934,177.52533C196.93741,177.8383 197.69926,178.45612 198.47067,178.49867C199.50826,178.55591 200.28534,178.49667 201.33333,178.5C202.04285,178.50226 202.92245,178.46074 203.89734,178.78534C204.6562,179.03801 205.06221,179.99672 205.85716,180.44284C206.59386,180.85626 207.60001,180.5 208.5,180.5C209.3,180.5 210.2,180.5 211.10001,180.5C212,180.5 212.89999,180.5 213.8,180.5C214.7,180.5 215.67184,180.27698 216.5,180.66667C217.25839,181.02353 217.34668,182.01451 217.51067,182.89999C217.66446,183.73047 218.75937,183.97665 219.33333,184.66667C219.87679,185.32002 219.62428,186.27744 220.07466,187.10001C220.50195,187.88039 220.5,188.8 220.5,189.7C220.5,190.60001 220.5,191.5 220.5,192.3C220.5,193.2 220.5,194.10001 220.5,195L220.5,195.89999L220.5,196.8L220.5,197.7" id="svg_7" stroke-width="3" stroke="#000" fill="none"/>
  <path t="53660,53967,53967,54081,54167,54199,54381,54381" d="M220.5,202.5C220.5,201.5 220.47276,200.69958 220.5,199.8C220.52859,198.85587 221.216,198.416 221.5,197.5L221.58533,196.7" id="svg_8" stroke-width="3" stroke="#000" fill="none"/>
  <path t="79293,79538,79568,79568,79592,79592,79615,79746,79746,79784,79850,79933,79933,79965,79982,79999,79999,80023,80023,80049,80049,80117,80183,80183,80216,80233,80255,80256,80283,80300,80300,80316,80333,80366,80383,80400,80416,80450,80450,80564,80580,80616,80650,80650,80688,80688,80716,80733,80750,80750,80768,80783,80800,80800,80816,80816,80833,80833,80850,80850,80850,80866,80934,80949,80949,81017,81033,81051,81066,81088,81088,81088,81104,81104,81292,81335,81350,81376,81400,81400,81416,81433,81456,81456,81466,81483,81483,81500,81533,81663,81683,81704,81704,81716,81716,81733,81863,81899,81915,82077,82077,82092,82115,82132,82149,83012,83049,83049,83071,83087,83087,83290,83290,83335,83563,83634,83683,83700,83700,83733,83785,83800,83816,83832,83832,83849,83849,83865,83865,83933,84125,84141,84165,84165,84182,84182,84199,84199,84199,84329,84329,84329,84345,84367,84382,84382,84398,84415,84432,84432,84484,84519,84535,84548,84548,84565,84582,84598,84598,84615,84632,84794,84794,84809,84809,84832,84832,84832,84832,84848,84848,84848,84865,84865,84898,84950,84950,85094,85110,85110,85133,85133,85185,85250,85411,85426,85426,85465,85487,85532,85548,85548,85565,85565,85582,86106,86121,86121,86198,86841,86841,86885,86900,86932,86965,86982,86998,87015,87015,87032,87162,87178,87224,87224,87249,87266,87283,87283,87299,87316,87333,87333,87366,87383,87399,87416,87433,87449,87449,87472,87472,87488,87488,87516,87516,87533,87616,87647,87665,87665,87682,87698,87698,87715,87735,87735,87815,87849,87849,87866,87883,87899,87916,87916,87933,87952,87952,87952,87999,88097,88113,88199,88239,88287,88315,88315,88348,88348,88365,88365,88382,88382,88398,88415,88467,88483,88483,88500,88516,88516,88533,88533,88549,88549,88549,88566,88608,88608,88633,88704,88704,88736,88736,88752,88752,88766,88766,88783,88783,88799,88799,88816,88816,88868,88883,88899,88899,88916,88933,88933,88949,88949,88968,88968,88984,88999,89016,89016,89033,89049,89116,89152,89168,89184,89200,89216,89233,89249,89249,89272,89272,89304,89320,89333,89366,89384,89399,89416,89416,89433,89449,89449,89466,89466,89467,89483,89483,89484,89499,89499,89500,89516,89516,89568,89568,89583,89608,89633,89633,89683,89683,89720,89749,89766,89767,89783,89784,89784,89835,89835,89979,89979,90065" d="M208.5,231.5C209.2045,232.2045 209.84267,232.77034 210.3,233.38533C210.96545,234.28018 211.24915,235.05376 211.8,235.74283C212.44388,236.54826 213.10667,237.0795 213.47467,237.89999C213.82568,238.6826 214.0867,239.64345 214.584,240.21466C215.11378,240.82318 216.12201,241.08913 216.7,241.70134C217.32462,242.36293 217.74394,243.19612 218.25717,243.84734C218.91083,244.67673 219.67073,244.80049 220.33067,245.7C220.84395,246.3996 221.2045,247.14284 222,247.5C222.7955,247.85716 223.27739,248.63808 223.584,249.3C223.98656,250.1691 224.80379,250.79625 225.3,251.3C225.98444,251.99486 226.27859,252.95709 226.936,253.47467C227.58304,253.98409 228.03203,254.69868 228.66667,255.33333C229.30132,255.96797 230.09592,256.08347 231,256.5C231.79199,256.8649 232.13452,257.82709 232.83333,258.33334C233.4062,258.74835 234.45367,258.7662 235.1955,259.14734C235.97681,259.54877 236.80376,259.85312 237.5,260.5C238.10327,261.06049 238.91261,261.34894 239.8,261.50449C240.7299,261.66748 241.21646,262.27173 242.15717,262.7955C242.87717,263.19641 243.70091,263.37283 244.5,263.5C245.50119,263.65933 246.31645,263.88654 247.01466,264.30133C247.90277,264.82895 248.59389,265.43912 249.5,265.5C250.2982,265.55362 251.2,265.5 252.10001,265.5C253,265.5 253.93033,265.465 254.83333,265.66666C255.51384,265.81863 256.48212,266.20056 257.35699,266.37851C258.18228,266.54636 259.10004,266.49466 260,266.5C260.90005,266.50534 261.71878,267.00052 262.5,267.33334C263.25153,267.65353 264.21152,267.38541 265.13599,267.53601C266.00803,267.67807 266.66293,268.10892 267.61465,268.41599C268.49036,268.69852 269.15262,269.30017 270,269.47916C270.8808,269.66519 271.79999,269.5 272.70132,269.5C273.66666,269.5 274.5,269.5 275.33334,269.5C276.1955,269.5 277.1192,269.33481 278,269.52084C278.84738,269.69983 279.6655,270.22336 280.5,270.66666C281.13391,271.00339 281.43799,272.05768 282.11066,272.52533C282.83347,273.02786 283.28891,273.77954 283.784,274.41733C284.27054,275.04413 284.49774,275.85184 284.5,276.74734C284.50229,277.66666 284.5,278.5 284.5,279.47849C284.5,280.29868 284.59174,281.30609 284.064,281.88934C283.44189,282.57687 282.39999,282.5 281.5,282.5C280.70001,282.5 279.79999,282.5 278.89999,282.5C278,282.5 277.08932,282.5 276.1785,282.5C275.28934,282.5 274.30017,282.5 273.52084,282.5C272.52151,282.5 271.8045,282.5 270.89999,282.5C270,282.5 269.08932,282.5 268.1785,282.5C267.28934,282.5 266.29999,282.5 265.5,282.5C264.5,282.5 263.68933,282.5 263.04285,282.5C262.07883,282.5 261.02084,282.5 260.26935,282.5C259.31433,282.5 258.39999,282.5 257.5,282.5C256.70001,282.5 255.8,282.5 254.864,282.5C254.01601,282.5 253.15266,282.5 252.136,282.5C251.3,282.5 250.39999,282.5 249.5,282.5C248.7,282.5 247.8,282.5 246.864,282.5C246.01601,282.5 245.15266,282.5 244.136,282.5C243.3,282.5 242.39983,282.5 241.61467,282.5C240.64267,282.5 239.98114,282.50714 238.85716,282.49966C238.19012,282.49524 237.10765,282.47064 236.38266,282.32935C235.30775,282.11984 234.65866,281.80933 233.78267,281.35068C232.82486,280.84921 232.16068,280.66202 231.2,280.49551C230.3833,280.35397 229.67241,279.84439 228.864,279.43866C227.98112,278.99557 227.58577,278.37567 226.66667,277.83334C225.96228,277.41772 224.96523,277.55295 224.2,277.14734C223.35405,276.69894 222.38989,276.4454 221.936,275.88934C221.3215,275.13651 220.90581,274.62411 220.10001,274.064C219.42384,273.59399 218.89999,272.89999 218.2,272.20001C217.7,271.70001 217.0369,270.95114 216.2,270.55267C215.33199,270.13937 214.69971,269.69897 214.10001,269.10001C213.39966,268.40051 212.80675,267.25558 211.936,267.54666C211.18987,267.79608 211.49467,269.10004 211.5,270C211.50534,270.90005 211.94234,271.61182 212.33333,272.5C212.62283,273.15765 212.49759,274.11987 212.92534,274.89999C213.37656,275.7229 213.80084,276.55084 214.14734,277.20001C214.60069,278.04938 214.5,279.02084 214.5,279.82132C214.5,280.67465 214.5,281.61465 214.5,282.60001C214.5,283.5 214.5,284.29999 214.5,285.20001C214.5,286.10001 214.5,287 214.5,287.89999C214.5,288.8045 214.5,289.66666 214.5,290.52084C214.5,291.5 214.5,292.28934 214.5,293.33334C214.5,294.12534 214.5,294.98401 214.5,295.84732C214.5,296.74283 214.5,297.70001 214.5,298.60001C214.5,299.5 214.5,300.29999 214.5,301.13599C214.5,302.15268 214.5,302.84732 214.5,303.87466C214.5,304.82132 214.5,305.67465 214.5,306.61465C214.5,307.5 214.5,308.29999 214.5,309.20001C214.5,310.10001 214.5,311.02084 214.5,311.82132C214.5,312.67465 214.61205,313.64023 214.33333,314.66666C214.14789,315.34958 213.66478,315.99112 213.52083,316.97916C213.38805,317.89059 213.69807,318.82239 213.49867,319.69867C213.31564,320.50299 212.2,320.5 211.29866,320.5C210.61467,320.5 209.65492,320.55389 208.89867,320.41467C207.88504,320.22806 207.11066,319.86041 206.25717,319.20001C205.66588,318.74249 205.0849,317.82544 204.2,317.55716C203.33698,317.29553 202.36215,317.65717 201.7,317.41467C200.8013,317.08554 200.3842,316.16205 199.61467,315.78534C198.72021,315.3475 198.02916,315.49136 196.81734,315.216C196.28058,315.09402 195.26631,314.79614 194.31433,314.55267C193.49727,314.34372 192.81934,313.80374 191.97917,313.5C191.03447,313.15848 190.28938,312.94403 189.5215,312.39999C188.8774,311.94366 188.26086,311.09433 187.61467,310.78534C186.72551,310.36017 185.87666,310.48645 184.89999,310.14282C184.0773,309.85336 183.31119,309.37668 182.52083,309.02084C181.67766,308.64124 180.80397,308.44827 180,308C179.19946,307.55362 178.45837,307.18344 177.7,306.784C176.91132,306.36859 175.99773,306.25092 175.32533,305.88934C174.49646,305.4436 173.77734,304.74445 172.84734,304.55716C172.16438,304.41962 171.08856,304.60556 170.3,304.216C169.42993,303.78616 168.79947,303.4483 168,303C167.20396,302.55362 166.69351,301.82864 165.97917,301.52084C165.07971,301.1333 164.10001,301.5 163.2,301.5C162.3,301.5 161.39935,301.53391 160.5,301.5C159.74121,301.47141 158.78203,301.24872 158.20984,300.7955C157.39714,300.15179 156.88937,299.50534 156,299.5C155.10002,299.4946 154.19527,299.59085 153.3,299.49866C152.4874,299.41498 151.84625,298.69983 150.97917,298.52084C150.03304,298.32553 149.24593,298.50833 148.33333,298.33334C147.53905,298.18106 146.71623,297.91324 145.66667,297.5C144.94604,297.21628 144.28255,296.88095 143.33333,296.5C142.55795,296.18881 141.77576,295.88016 140.83333,295.66666C139.89633,295.45441 139.01601,295.5 138.15266,295.5C137.25717,295.5 136.29869,295.54852 135.39983,295.49985C134.61122,295.45712 133.86937,295.08975 132.98399,294.784C132.04022,294.45807 131.1767,294.57495 130.33333,294.33334C129.45189,294.08084 128.50633,293.61902 127.7,293.53601C126.90346,293.45401 125.9045,293.49551 125.15717,293.44284L124.25267,293.14734L123.616,292.784L122.67467,292.53601" id="svg_10" stroke-width="3" stroke="#000" fill="none"/>
  <path t="92843,93118,93152,93166,93200,93232,93249,93282,93282,93304,93320,93352,93352,93382,93408,93408,93432,93432,93449,93466,93482,93499,93516,93516,93536,93549,93600,93600,93616,93640,93699,93699,93767,93799,93816,93840,93872,93872,93899,93899,93916,94030,94048,94048,94065,94081,94081,94098,94115,94152,94152,94216,94256,94256,94282,94282,94299,94316,94316,94332,94332,94384,94416,94416,94440,94481,94549,94549,94581,94632,94656,94656,94699,94716,94716,94732,94732,94752,94782,95008,95457,95811,95827,95827,95856,95882,95916,95916,95949,95966,96080,96120,96120,96148,96148,96168,96181,96200,96201,96224,96248,96265,96281,96298,96298,96315,96315,96331,96348,96365,96384,96408,96408,96431,96455,96481,96498,96515,96531,96548,96565,96565,96581,96598,96615,96632,96648,96665,96681,96698,96698,96715,96732,96732,96748,96765,96765,96781,96800,96800,96944,97361" d="M111.5,424.5C113.3,424.5 114.29018,424.49677 114.49866,423.69867C114.72628,422.82733 115.07359,422.03693 115.44733,421.20001C115.79218,420.42783 116.27529,419.86285 116.88934,419.10001C117.48946,418.35446 117.47614,417.49963 117.5,416.70001C117.52859,415.74155 117.82001,414.82745 118.2045,414.15268C118.65633,413.35968 119.14761,412.67325 119.55267,411.79999C119.93835,410.96851 120.38052,410.19379 120.50134,409.29999C120.61076,408.49045 121.29516,407.84631 121.47916,407C121.67049,406.12003 121.84653,405.19034 122.30133,404.70001C122.96397,403.9856 123.29536,403.12717 123.78533,402.29999C124.18864,401.61914 124.88764,401.09143 125.69867,400.58401C126.43208,400.12515 126.32938,399.23947 126.7215,398.39984C127.06654,397.66098 127.63676,396.97433 128.10001,396.36133C128.71735,395.5444 129.34605,394.99469 129.85716,394.20001C130.21893,393.63751 131.02643,393.02542 131.69867,392.29999C132.23654,391.71954 132.41599,390.83362 132.936,390.10001C133.49397,389.31287 134.20001,388.79999 134.8,388.20001C135.50002,387.5 136.09999,386.89999 136.7,386.29999C137.29999,385.70001 138.03531,385.005 138.5,384.33334C139.0428,383.5488 139.50671,382.84543 140.2,382.45184C141.00807,381.9931 141.69807,381.29807 142.2,380.79999C142.89734,380.10797 143.74609,379.70004 144.5,379.33334C145.26361,378.96194 146.06783,378.62396 146.8,378.14282C147.59424,377.62091 148.06236,376.85123 148.91066,376.52533C149.79143,376.18695 150.54449,376.04932 151.33333,375.5C152.10245,374.96442 152.28809,373.85138 153.02083,373.52084C153.82246,373.15924 154.8,373.5 155.70134,373.5C156.66667,373.5 157.59502,373.28088 158.33067,373.784C159.02971,374.26205 159.65233,374.85941 160.3,375.216C161.16367,375.6915 161.55537,376.31952 162.02083,377.02084C162.56712,377.84399 163.05338,378.4729 163.37866,379.47849C163.60574,380.18048 164.062,380.96835 164.44733,381.79999C164.85132,382.67188 165.35182,383.26862 165.4955,384.20001C165.63271,385.08951 165.40207,386.00644 165.51067,386.91068C165.62212,387.83871 166.10329,388.46609 166.37849,389.47849C166.56906,390.17953 166.49467,391.10004 166.5,392C166.50534,392.90005 167.00049,393.71881 167.33333,394.5C167.65352,395.25153 167.5,396.20001 167.5,397.10001C167.5,398 167.5,398.89999 167.5,399.79999C167.5,400.70001 167.5,401.60001 167.5,402.5C167.5,403.29999 167.5,404.20001 167.5,405.10001C167.5,406 167.5,406.89999 167.5,407.79999C167.5,408.70001 167.5,409.60001 167.5,410.5C167.5,411.29999 167.5,412.13599 167.5,413.15268C167.5,413.84732 167.5,414.87466 167.5,415.82132C167.5,416.67465 167.5,417.61465 167.5,418.5L167.5,419.29999L167.5,420.20001L167.536,421.10001" id="svg_11" stroke-width="3" stroke="#000" fill="none"/>
  <path t="98548,98601,98617,98633,98650,98700,98700,98717,98733,98750,98750,98767,98783,98800,98817,98817,98840,98841,98856,98873,98900,98917,98950,98950,98969,98992,98993,99017,99017,99033,99033,99050,99072,99100,99120,99137,99153,99153,99185,99185,99200,99217,99233,99233,99250,99272,99288,99289,99305,99337,99369,99385,99401,99401,99424,99450,99467,99467,99483,99517,99517,99533,99533,99553,99583,99600,99617,99617,99633,99650,99650,99667,99667,99667,99683,99683,99700,99700,99700,99717,99733,99750,99750,99801,99833,99850,99867,99883,99883,99900,99900,99917,99917,99933,99933,99950,99967,99967,99992,99993,100041,100067,100083,100100,100117,100117,100133,100133,100150,100150,100167,100167,100183,100200,100217,100240,100283,100283,100304,100333,100350,100367,100367,100383,100401,100401,100417,100440,100441,100467,100467,100483,100483,100517,100550,100582" d="M211.5,313.5C212.14734,314.2045 212.48157,315.12344 212.92534,315.89999C213.33913,316.62408 213.73395,317.45828 214.14734,318.20001C214.57297,318.96368 214.8531,319.80374 215.5,320.5C216.0605,321.10327 216.48199,321.89944 216.5,322.79999C216.51799,323.69983 216.40715,324.61591 216.58533,325.38535C216.81084,326.35919 217.33386,326.9913 217.47917,327.97916C217.59866,328.7915 217.41788,329.7038 217.50017,330.60001C217.58385,331.51144 218.20395,332.17795 218.5,333.02084C218.77522,333.80441 219.16866,334.64517 219.37849,335.47867C219.60147,336.36432 219.5,337.32535 219.5,338.01599C219.5,339.08932 219.5,340 219.5,340.89999C219.5,341.79999 219.5,342.70001 219.5,343.60016C219.5,344.38535 219.5,345.32535 219.5,346.01599C219.5,347.08932 219.5,347.91068 219.5,348.82132C219.5,349.67465 219.5,350.61465 219.5,351.60001C219.5,352.5 219.48201,353.30017 219.5,354.20001C219.51801,355.10056 220.08914,355.81793 220.37849,356.60001C220.69362,357.45175 220.5,358.29999 220.5,359.20001C220.5,360.13599 220.49551,360.98401 220.5,361.84732C220.50534,362.87469 220.66667,363.66666 221,364.5C221.33333,365.33334 221.55344,366.19507 222,367C222.44359,367.79956 222.5,368.60001 222.5,369.5C222.5,370.29999 222.47253,371.25772 222.5045,372.16165C222.53284,372.96289 222.71057,373.92401 222.92534,374.71466C223.1368,375.4931 223.39252,376.53653 223.55267,377.30533C223.75458,378.2746 224.02368,378.99344 224.216,379.73199C224.49918,380.81946 224.3363,381.75729 224.72133,382.60001C225.02713,383.26932 225.49466,384.09995 225.5,385C225.50533,385.89996 225.5,386.8045 225.5,387.66666C225.5,388.5 225.5,389.47867 225.5,390.25266C225.5,391.15717 225.5,391.90451 225.5,393.09549C225.5,393.84283 225.5,394.74734 225.5,395.66666C225.5,396.5 225.47403,397.47888 225.5,398.29868C225.52859,399.20135 226.18623,399.92236 226.44284,400.79999C226.69629,401.66684 226.5,402.66666 226.5,403.32535C226.5,404.33334 226.46916,405.14764 226.78534,405.98401C227.0553,406.69812 227.81274,407.54196 228.21466,408.29868C228.61201,409.04678 228.49776,410 228.5,410.89999C228.50226,411.79999 228.8674,412.64801 229.216,413.29999C229.6691,414.1474 230.18274,414.92337 230.44284,415.79999C230.67104,416.56906 230.43324,417.38849 230.51067,418.32535C230.59467,419.34189 231.18912,419.90286 231.44284,420.8045C231.7187,421.78485 231.5,422.5 231.5,423.47867C231.5,424.384 231.51067,425.32535 231.58533,426.01599L232,426.97916L232.44284,427.79999L232.50133,428.70001" id="svg_12" stroke-width="3" stroke="#000" fill="none"/>
  <path t="104674,104865,104889,104905,104905,104916,104933,104950,104966,104983,105000,105016,105016,105066,105089,105089,105100,105152,105152,105168,105183,105209,105209,105232,105301,105337,105350,105401,105417,105441,105441,105533,105565,105609,105609,105633,105650,105700,105700,105716,105733,105733,105750,105801,105833,105883,105883,105932,105953,105953,105965,106009,106065,106082,106134,106134,106185,106202,106252,106284,106299,106299,106321,106321,106332,106369,106393,106415,106449,106449,106515,106532,106549,106699,106699,106732,106732,106749,106765,106782,106782,106799,106799,106799,106815,106815,106815,106832,106832,106832,106832,106853,106853,106854,106854,106869,106869,106870,106870,106870,106870,106885,106885,106885,106885,106901,106901,106917,107352,107352,107352,107383,107383,107383,107383,107383,107384,107384,107384,107384,107399,107399,107399,107399,107399,107400,107400,107400,107415,107593,107609,107609,107633" d="M262.5,266.5C261.58533,266.21466 261.5,265.39999 261.5,264.5C261.5,263.70001 261.5,262.79999 261.5,261.89999C261.5,261 261.5,260.10001 261.5,259.20001C261.5,258.29999 261.49554,257.39984 261.5,256.61465C261.50534,255.67462 261.65942,254.66289 262,254.02083C262.43808,253.19502 262.8674,252.35201 263.216,251.7C263.66907,250.85262 264.01556,249.99486 264.60001,249.39999C265.19467,248.79472 266.06805,248.19556 266.37851,247.39999C266.70865,246.55397 266.98267,245.8925 267.41467,245.21466C267.90845,244.43987 267.69211,243.37509 268.2045,242.8C268.76477,242.17119 269.25272,241.34946 269.66666,240.5C269.98453,239.84773 270.32751,239.02206 270.85718,238.2C271.37192,237.40109 272.04941,237.03716 272.44733,236.2C272.85983,235.33215 272.95428,234.54393 273.58401,233.78534C274.18597,233.06021 274.88226,232.7164 275.5,232.16667C276.12253,231.61267 276.63806,230.81783 277.5,230.33333C278.13251,229.9778 279.01379,229.7235 279.7955,229.14284C280.46835,228.64305 280.6543,227.58374 281.5,227.5C282.29608,227.42117 283.2265,227.68375 284.10001,227.464C284.96283,227.24695 285.70059,226.59132 286.60016,226.49983C287.38589,226.41991 288.30774,226.02861 289.01599,225.784C289.95975,225.45805 290.89999,225.50066 291.79999,225.5C292.70001,225.49933 293.45377,225.25787 294.20001,224.85266C294.96112,224.43938 295.89999,224.5 296.8045,224.5C297.82132,224.5 298.5,224.5 299.47849,224.5C300.29868,224.5 301.21149,224.38559 302.13599,224.536C303.00931,224.67807 303.69336,225.13802 304.70016,225.37883C305.51019,225.57259 306.20996,225.61256 307.18533,226.06934C308.04538,226.47211 308.58997,226.87991 309.5,227.33333C310.38669,227.77512 311.0097,227.97798 311.89999,228.384C312.81082,228.79939 313.41229,229.15622 314.04166,229.54167C314.71793,229.95586 315.83231,230.66833 316.668,231.18401C317.1048,231.45354 318.00021,231.99968 318.44934,232.27467C319.3324,232.81535 320.55667,233.57819 320.92667,233.812C321.91663,234.43755 322.4353,234.86897 323.52933,235.33067C324.17105,235.60149 325.16708,235.80563 325.7955,236.51483C326.20172,236.97325 326.24051,237.86191 326.33334,239.16667C326.39551,240.04044 326.41876,241.04523 326.43384,242.14717C326.44983,243.31592 326.44589,244.521 326.41733,245.73067C326.38937,246.91473 326.38449,248.04681 326.16666,250C326.07965,250.78017 325.95355,251.4254 325.79016,251.938C325.65704,252.35564 325.49817,252.68105 325.31467,252.90401C325.16284,253.08847 324.25717,253.44284 323.39999,253.5L322.5,253.5L321.70001,253.5L320.79999,253.44284" id="svg_13" stroke-width="3" stroke="#000" fill="none"/>
  <path t="108575,108800,108800,108930,108985,108985,109000,109000,109017,109050,109066,109118,109133,109166,109183,109183,109200,109250,109283,109335,109384,109384,109432,109432,109448,109498,109498,109520,109536,109565,109633,109649,109673,109699,109733,109766,109766,109783,109816,109899,110030,110030,110116,110147,110147,110168,110168,110184,110232,110316,110316,110446,110547,110710,111190,111190,111205,111233,111233,111256,111316,111333,111365,111433,111433,111448,111466,111489,111505,111566,111598,111752,111798,111815,111832" d="M274.5,271.5C275.5,271.5 276.3158,271.62531 277.25717,271.44284C278.18436,271.26312 278.85678,270.80994 279.616,270.30133C280.26093,269.86929 281.28937,269.89529 282.16666,269.33334C282.86838,268.88385 283.17105,267.95459 283.85718,267.55716C284.58826,267.1337 285.53665,267.17386 286.29999,266.784C287.05289,266.39948 288.11768,266.50323 288.52533,265.88934C289.01511,265.15179 289.82428,264.63681 290.5,264.5C291.48328,264.3009 292.19772,263.79776 292.79999,263.20001C293.50262,262.50262 294.15253,262.02411 294.88934,261.52533C295.5564,261.07376 296.11072,260.5148 297,260.5C297.97925,260.4837 298.50647,259.89731 299.2045,259.44733C299.98032,258.9472 300.59772,258.39767 301.20001,257.79999C301.89734,257.10797 302.80542,256.89194 303.41599,256.21466C303.99857,255.56844 304.20337,254.79887 304.89999,254.10001C305.49902,253.49904 306.10001,252.89999 306.79999,252.2C307.29999,251.7 307.9632,250.95134 308.79999,250.55267C309.66678,250.13971 310.14822,249.67079 310.55267,248.8C310.93875,247.96872 311.28448,247.12399 311.7215,246.40016C312.15829,245.67668 313.17877,245.51494 313.79999,244.79466C314.26517,244.25529 314.92966,243.47131 315.52533,242.92534C316.10364,242.39528 316.72275,241.78218 317.5,241.33333C318.12158,240.97437 318.55667,240.07484 319.07468,239.47467C319.61731,238.84595 320.18552,238.07742 320.44284,237.2C320.69629,236.33583 320.85266,235.55267 321.46399,235.064L321.5,234.2L321.50134,233.30133" id="svg_14" stroke-width="3" stroke="#000" fill="none"/>
  <path t="120236,120399,120399,120433,120449,120846,120916,121046,121088,121088,121131,121148,121181,121224,121224,121281,121315,121315,121348,121348,121781,121959,121982,122051,122051,122082,122415,122450,122483,122483,122925,123234,123316,123540,123940,123940,123972,123972,124016,124016,124162,124177,124177,124313,124383,124383,124496,124566,124608,124608,124730,124798,125023,125240,125255,125255,125444,125482,125516,125708,125724,125724,125737,125750,125750,125781,125815,125930,126077,126134,126134,126201,126216,126240,126240,126316,126332,126332,126509,126629,126648,126700,126716,126849,127088,127120,127131,127148,127164,127164,127181,127452,127532,127532,127662,128036,128194,128194,128217,128232,128487,128643" d="M163.5,156.5C163.5,155.5 163.03445,154.52046 163.58533,153.78534C164.04724,153.16893 165.30743,153.4623 166.02083,153C166.77481,152.51141 167.62404,152.30693 168.2,151.7955C168.93227,151.14529 169.69698,150.54271 170.60001,150.5C171.49899,150.45747 172.22723,150.48805 173.02083,149.97917C173.85249,149.44588 174.4796,148.96835 175.33333,148.66667C176.19606,148.3618 176.94981,147.95474 177.41467,147.21466C177.90335,146.43666 177.73395,145.54172 178.14734,144.8C178.57297,144.03632 178.96594,143.2639 179.37866,142.39999C179.786,141.54735 180.26117,140.96234 180.47917,140C180.67807,139.12201 180.64514,138.09846 180.14284,137.54817C179.54262,136.89061 178.86707,136.33789 178.584,135.384C178.36034,134.63033 178.18378,133.82532 177.7955,133.15266C177.25912,132.22342 176.7529,131.46768 176.416,130.7C176.08156,129.9379 175.55199,129.0188 175.51067,128.32533C175.45476,127.38693 175.5,126.4 175.5,125.5C175.5,124.7 175.31625,123.77351 175.536,122.9C175.75305,122.03717 176.40282,121.2988 176.50017,120.4C176.5761,119.69894 177.24695,118.96283 177.464,118.1C177.68375,117.22649 177.5,116.3 177.5,115.39983C177.5,114.61467 177.66823,113.63012 177.33333,112.66666C177.09746,111.98812 176.11974,111.5146 175.5,111C174.89795,110.50009 173.97917,110.5 173.17867,110.5C172.32533,110.5 171.38533,110.5 170.39999,110.5C169.5,110.5 168.6498,110.51347 168,111.02084C167.23198,111.62051 166.72845,112.33167 165.8,112.4955C164.94821,112.6458 164.44849,113.31915 163.69867,113.49866C162.80644,113.71227 162.58752,114.45443 161.88933,115.064C161.22275,115.64597 160.19347,115.39304 159.3,115.50134C158.38022,115.61282 157.6826,116.17432 156.89999,116.52533C156.0795,116.89333 155.47789,117.70089 154.8,118.14283C154.06609,118.62131 153.03981,118.77333 152.66667,119.66666C152.347,120.432 152.216,121.33067 151.55267,121.85267L151.064,122.47467L150.2,122.85717" id="svg_15" stroke-width="3" stroke="#000" fill="none"/>
  <path t="131038,131516,131583,131617,131713,131749,131782,131833,131856,131857,131882,131934,131968,131981,132064,132115,132165,132263,132263,132288,132492,132521,132613,132664,132698,132766,133115,133115,133167,133389,133929" d="M149.5,146.5C149.5,144.8 149.5,143.89999 149.5,143C149.5,142.10001 149.5,141.2 149.5,140.3C149.5,139.39999 149.5,138.5 149.5,137.7C149.5,136.8 149.5,135.89999 149.5,135C149.5,134.10001 149.5,133.2 149.5,132.3C149.5,131.39999 149.5,130.5 149.5,129.7C149.5,128.8 149.5,127.9 149.5,127C149.5,126.1 149.5,125.2 149.5,124.3C149.5,123.4 149.5,122.5 149.5,121.7L149.66667,120.66666L150.37866,120.27866L150.85716,119.55717" id="svg_16" stroke-width="3" stroke="#000" fill="none"/>
  <path t="136294,136825,136825,137009,137024,137024,137047,137458,137458,137458,137458,137517,137517,137598,137598,137629,137629,137672,137779,137848,137865,137933,138093,138109,138109,138153,138185,138265,138288,138396,138424,138448,138562,138562,138577,138624,138624,138699,138699,138747,138865,138948,138979,138979,139065,139132,139132,139169,139215,139376,139376,139424,139483,139565,139615,139615,139729,140115,140169,140214,140214,140231,140256,140256,140297,140297" d="M178.5,135.5C178.66667,136.5 179.10799,137.10266 179.8,137.8C180.49731,138.50269 180.96234,139.05051 181.80901,139.45183C182.79672,139.92001 183.51758,140.19112 183.97917,140.54167C184.67355,141.06902 185.35216,142.09486 185.504,142.7C185.75302,143.69241 186.05902,144.45876 186.37866,145.4785C186.63155,146.28526 186.9604,147.02361 187.44733,147.7955C187.89044,148.49794 188.48428,149.13286 188.92534,149.89999C189.34097,150.62291 189.32645,151.53825 189.58533,152.3C189.88708,153.18791 190.47467,153.88933 191,154.5C191.52533,155.11067 192.11813,155.81033 192.41467,156.7C192.70055,157.55765 192.46564,158.50073 192.5,159.3C192.53604,160.13832 193.07376,160.97922 193.5,161.5C194.17592,162.32585 194.31078,163.22282 194.536,164.10001C194.75725,164.96176 195.39108,165.5984 195.5,166.5C195.5965,167.29874 196.10799,168.10266 196.7,168.7C197.2973,169.30269 198.06105,169.95741 198.44733,170.8C198.79968,171.5686 199.26782,172.34515 200.10001,172.48933C200.98685,172.64297 201.93616,172.4211 202.82117,172.7215C203.50569,172.95386 204.06439,173.96788 204.78534,174.41467C205.48161,174.84618 206.53268,174.62561 207.10001,175.11067C207.84671,175.74911 208.5,176.5 209,177L209.7,177.69867L210.3,178.21466" id="svg_17" stroke-width="3" stroke="#000" fill="none"/>
  <path t="142226,142333,142365,142397,142466,142466,142721,142844,142948,143014,143030,143030,143072,143148,143199,143240,143240,143280,143348,143348,143379,143479,143479,143532,143581,143581,143601,143650,143650,143732,143783,143783,143849,143873,143873,143990,143990,144142,144142,144197,144230,144329,144398,144449,144449,144515,144566,144648,144761,144814,144882,144921,144998,144998,145040,145072,145097,145227,145243,145273,145273,145395,145431,145449,145562,145633,145681,145733,145783,145783,145866,145904,145936,146029,146130,146145,146215,146392,146392,146407,146440,146488,146514,146530,146547,146569,146584,146614,146640,146737,146737,146798,146798,146848,146865,146881,146881,146905,146905,146905,146948,146948,147000,147047,147064,147617,147617,147745" d="M176.5,111.5C176.52083,110.5 177.09769,109.8986 177.89999,109.52533C178.78665,109.11282 179.2227,108.60843 180,108.02084C180.73763,107.46324 181.70377,107.41788 182.60001,107.50017C183.51144,107.58385 184.15369,108.29516 185,108.47916C185.87999,108.67049 186.62729,108.90888 187.5,109.33334C188.25391,109.70001 188.9803,110.04179 189.7,110.69867C190.28452,111.23215 190.96822,111.70405 191.66667,112.33334C192.20018,112.81401 192.73712,113.50043 193.5,114.16666C194.10046,114.69106 195.00514,115.01556 195.60001,115.6C196.20528,116.19467 196.89079,116.90935 197.5,117.5C198.09122,118.07321 199.12984,118.43924 199.44733,119.20533C199.73042,119.8884 200.3325,120.66695 200.584,121.38667C200.85178,122.15297 201.32196,122.99197 201.464,123.864C201.61461,124.78851 201.5,125.7 201.5,126.6C201.5,127.5 201.5,128.3 201.5,129.2C201.5,130.10001 201.5,131 201.5,131.89999C201.5,132.8 201.5,133.7 201.5,134.60001C201.5,135.5 201.5,136.3 201.5,137.2C201.5,138.10001 201.4471,139.03474 201.85266,139.8C202.30096,140.64589 202.5,141.5 202.5,142.3C202.5,143.2 202.5,144.10001 202.5,145C202.5,145.89999 202.5,146.8 202.5,147.7C202.5,148.60001 202.5,149.5 202.5,150.3C202.5,151.2 202.5,152.10001 202.5,153C202.5,153.89999 202.5,154.8 202.5,155.7C202.5,156.60001 202.5,157.5 202.5,158.3C202.5,159.2 202.5,160.10001 202.5,161C202.5,161.89999 202.3051,162.82169 202.50133,163.69867C202.6819,164.50571 203.48199,164.9355 203.5,165.89999C203.5168,166.79985 203.42177,167.7159 203.58533,168.38533C203.82346,169.35994 204.30965,170.0103 204.88933,170.864C205.38583,171.59518 205.61105,172.54739 206.0625,173.02083C206.75648,173.74861 207.49081,174.17093 208.24933,174.63867C209.15025,175.19423 209.92712,175.4906 210.5,176C211.13608,176.5656 211.55267,177.26167 211.85266,178.15266L212.14734,178.84734L212.44284,179.74283" id="svg_18" stroke-width="3" stroke="#000" fill="none"/>
  <path t="150026,150256,150256,150347,150493,150514,150691,150875,151011,151011,151065,151209,151920,152014" d="M152.5,130.5C152.5,129.5 152.5,128.7 152.5,127.8C152.5,126.9 152.34023,125.98378 152.51067,125.1C152.6925,124.15717 153.4874,123.58504 154.3,123.50134C155.19527,123.40913 156.10001,123.5 157,123.5L157.89999,123.5" id="svg_19" stroke-width="3" stroke="#000" fill="none"/>
  <path t="153293,153631,153791,153791,153807,153931,154108,154124,154293" d="M161.5,121.5C160.58667,121.5 161.46667,121.27941 162.10001,120.92533C162.96126,120.44382 163.89999,120.5 164.8,120.5L165.7,120.5L166.60001,120.5" id="svg_20" stroke-width="3" stroke="#000" fill="none"/>
  <path t="160167,160609,161168,161213,161452,161468,161516,161999,162048,162117,162117,162132,162180,162372,162431,162472,162472,162496,162496,162798,162814,162846" d="M155.5,130.5C155.5,131.30133 155.55449,132.20148 156,133C156.44466,133.797 156.93544,134.48199 157.8,134.5C158.6998,134.51874 159.60001,134.5 160.5,134.5C161.3,134.5 161.95149,134.16899 162.66667,133.66667C163.36211,133.17822 164.43912,133.28416 164.5,132.33333C164.54208,131.67601 164.5,130.66667 164.44284,129.8045L164,129L163.55716,128.2L163.5,127.4" id="svg_21" stroke-width="3" stroke="#000" fill="none"/>
  <path t="164169,164348,164431,164464,164464,164546,164598,164711,164797,164846,164863,164880,164880,164896,164953,165015,165031" d="M154.5,143.5C155.55267,141.8 155.99033,140.96899 156.7,140.30133C157.27638,139.75908 158.09996,139.50534 159,139.5C159.89998,139.49467 160.8,139.5 161.7,139.5C162.60001,139.5 163.5,139.5 164.3,139.5C165.2,139.5 166.10001,139.5 167,139.5L167.89999,139.5" id="svg_22" stroke-width="3" stroke="#000" fill="none"/>
  <path t="167170,167448,167448,167545,167661,167661,167689,167714,167730,167797,167833,167833" d="M149.5,148.5C149.5,147.5 149.5,146.7 149.5,145.74283C149.5,144.84734 149.5,144.15266 149.5,143.136C149.5,142.2 149.5,141.3 149.5,140.39999L149.5,139.5L149.5,138.7" id="svg_23" stroke-width="3" stroke="#000" fill="none"/>
  <path t="187931,187996,188030,188030,188046,188046,188063,188063,188063,188096,188096,188113,188146,188146,188163,188180,188196,188196,188230,188230,188230,188376,188376,188400,188400,188445,188504,188519,188529,188545,188545,188562,188562,188562,188579,188579,188612,188612,188629,188645,188645,188662,188714,188730,188752,188768,188800,188800,188845,188862,188880,188896,188896,188896,188912,189014,189030,189030,189080,189080,189096,189113,189113,189130,189130,189130,189146,189163,189163,189180,189196,189196,189213,189230,189282,189394,189410,189410,189430,189446,189463,189480,189496,189496,189513,189513,189596,189596,189632,189632,189664,189680,189680,189704,189729,189752,189784,189784,189812,189829,189829,189845,189862,189862,189879,189896,189920,189979,189979,190012,190142,190277,190277,190292,190336,190352,190362,190384,190384,190395,190416,190429,190445,190464,190546,190546,190614,190629,190649,190697,190697,190713,190730,190753,190753,190780,190796,190830,190830,190863,190881,190881,190905,190963,190981,190981,191001,191013,191033,191081,191097,191288,191288,191304,191330,191346,191346,191363,191363,191363,191380,191396,191396,191413,191413,191430,191430,191446,191463,191640,191655,191679,191679,191695,191712,191712,191729,191729,191762,191762,191784,191795,191795,191816,191832,191845,191862,191879,191895,191895,191936,191962,191979,191980,192000,192001,192016,192080,192121,192121,192146,192146,192163,192180,192180,192213,192263,192263,192280,192296,192313,192330,192330,192346,192346,192363,192380,192396,192413,192527,192527,192580,192617,192646,192663,192680,192680,192680,192696,192697,192697,192713,192713,192713,192729,192729,192729,192729,192891,192891,192907,192937,192963,192996,192996,193013,193046,193046,193067,193106,193129,193129,193146,193163,193196,193196,193246,193246,193265,193281,193281,193313,193313,193363,193396,193396,193413,193413,193429,193449,193465,193489,193489,193513,193529,193581,193596,193616,193617,193628,193628,193645,193662,193662,193662,193678,193678,193695,193695,193747,193784,193784,193800,193812,193828,193845,193845,193862,193862,193863,193878,193878,193878,193912,193912,193945,193962,193962,194093,194128,194128,194152,194197,194213,194262,194262,194288,194312,194312,194352,194352,194429,194460,194479,194479,194496,194513,194513,194529,194546,194563,194563,194677,194677,194695,194712,194728,194728,194745,194745,194768,194768,194812,194812,194828,194848,194848,194864,194878,194896,194913,194913,194928,194945,194962,194978,194979,194995,194995,195012,195028,195045,195062,195062,195080,195096,195112,195129,195129,195145,195162,195178,195178,195195,195228,195245,195246,195262,195262,195263,195278,195278,195279,195279,195295,195295,195296,195296,195312,195312,195313,195313,195313,195380,195380,195380,195432,195433,195433,195449,195449,195464,195465,195478,195495,195513,195513,195545,195568,195569,195595,195805,195821,195821,195821" d="M-2.5,69.5C-1,68 -0.33036,67.26234 0.25717,66.8C0.95218,66.25308 1.73817,65.87985 2.66667,65.5C3.44144,65.18304 4.26829,64.96272 5.16667,64.5C5.98934,64.07627 6.75364,63.71098 7.6,63.27867C8.25531,62.94394 9.10624,62.59196 9.91067,62.48933C10.83807,62.37102 11.52289,61.98335 12.5,61.5C13.10128,61.20257 13.89678,60.7935 14.89867,60.30133C15.47733,60.01707 16.47198,59.56219 17.29867,59.50134C18.19757,59.43517 19.1,59.5 20,59.5C20.91067,59.5 21.8215,59.5 22.52083,59.5C23.5,59.5 24.3,59.4982 25.1,59.5C26.10001,59.50225 26.91825,59.48806 27.89867,59.784C28.68241,60.02057 29.61159,60.45728 30.5,60.5C31.29908,60.53842 32.20006,60.48959 33.1,60.5C34.00018,60.51042 34.84625,61.02179 35.6,61.37867C36.45406,61.78304 37.19922,61.91218 37.97917,62.5C38.63343,62.9931 38.90401,63.95525 39.66667,64.5C40.29374,64.94791 41.00998,65.30877 41.864,65.88934C42.59492,66.38622 43.4993,66.66767 44.136,67.11066C44.98307,67.70001 45.64125,68.16858 46.4785,68.3785C47.47631,68.62868 48.172,68.5 49.268,68.5C50,68.5 50.732,68.5 51.83867,68.5C52.82133,68.5 53.5,68.5 54.4785,68.5C55.5,68.5 56.33178,68.31332 57.2,68.55717C57.96145,68.77103 58.69698,69.45728 59.6,69.5C60.49899,69.54253 61.3,69.5 62.2,69.5C63.1,69.5 64.00643,69.40207 64.91067,69.51067C65.83871,69.62212 66.4645,70.10922 67.47867,70.3785C68.23524,70.57938 69.16351,70.4466 69.9045,70.55717C70.91206,70.70751 71.79798,70.96012 72.39017,71.8C72.88905,72.50755 73.48211,72.93153 74.14283,73.55267C74.74678,74.12043 74.48817,75.15148 74.784,75.984C75.09763,76.86661 75.4596,77.74644 75.5,78.66666C75.53564,79.47865 75.8551,80.21009 76.59983,80.7215C77.2965,81.19991 77.4911,82.11805 77.92533,82.9C78.38094,83.72047 78.62476,84.53429 79.2045,85.2C79.7576,85.83511 80.22336,86.66548 80.66666,87.5C81.0034,88.13391 81.89946,88.48199 82.8,88.5C83.69981,88.51799 84.6,88.5 85.5,88.5C86.3,88.5 87.20006,88.51041 88.1,88.5C89.00018,88.48958 89.84624,87.97821 90.6,87.62133C91.45406,87.21696 91.90943,86.79259 92.5,86.02084C92.99788,85.3702 93.92577,85.09014 94.59983,84.4C95.16526,83.82109 95.40442,82.88155 96.14667,82.47467C96.91438,82.05383 97.69387,81.9454 98.39017,81.2045C98.98688,80.56956 99.71954,80.23656 100.3,79.69867C101.02543,79.02644 101.62138,78.19243 102.3,77.78533C103.03594,77.34386 103.89231,77.05579 104.6,76.40017C105.19363,75.85021 106.10854,75.67992 106.7955,75.14283C107.53939,74.56123 107.78931,73.61718 108.6,73.49983C109.50583,73.36871 110.15258,72.69971 111,72.52084C111.89127,72.3327 112.82394,72.54114 113.52084,72.47916C114.5069,72.39147 115.31525,72.11144 116.01466,71.69867C116.91187,71.16917 117.65823,70.6032 118.52084,70.52084C119.49579,70.42776 120.28934,70.5 121.33334,70.5C122.08933,70.5 123,70.5 123.9,70.5C124.8,70.5 125.7,70.5 126.60017,70.5C127.38533,70.5 128.32533,70.5 129.33333,70.5C130.12534,70.5 130.98534,70.5 131.71066,70.5C132.69983,70.5 133.664,70.5 134.61467,70.5C135.5,70.5 136.3,70.5 137.2,70.5C138.10001,70.5 139,70.49775 139.89999,70.5C140.80002,70.50225 141.54456,70.81104 142.3,71.216C143.05597,71.62124 143.88156,71.97727 144.66667,72.5C145.30354,72.92403 146.32286,73.39767 147.08934,73.48933C147.99409,73.59754 148.81383,73.84243 149.5,74.5C150.11263,75.0871 150.69113,75.70899 151.3,76.3C152.01065,76.98981 152.81627,77.4223 153.5,77.47916C154.61102,77.57156 155.5,77.5 156.3,77.5C157.2,77.5 158.10803,77.39777 159.02083,77.52084C159.83867,77.6311 160.65837,78.12188 161.4785,78.37867C162.28534,78.6313 163.03719,79.24694 163.89999,79.464C164.77351,79.68375 165.75729,79.3363 166.60001,79.72134C167.2693,80.02713 168.09996,80.49467 169,80.5C169.89998,80.50533 170.8045,80.5 171.66667,80.5C172.54167,80.5 173.18666,80.5 174.18533,80.5C175.02083,80.5 175.90134,80.5 177.10133,80.5C177.71066,80.5 178.65717,80.5 179.66667,80.5C180.38133,80.5 181.104,80.5 182.133,80.5C183.2355,80.5 184.06801,80.49448 185,80.5C185.90004,80.50533 186.86264,80.66814 187.33333,81.5C187.69458,82.13844 188.04179,82.98029 188.69867,83.7C189.23215,84.28451 189.41602,85.16634 189.936,85.9C190.49385,86.68707 191.28775,87.15354 191.47917,88C191.6779,88.8788 192.11505,89.64464 192.64934,90.136C193.3235,90.75601 193.35855,91.74133 193.936,92.44933C194.55789,93.2118 195.05202,93.7177 195.60001,94.4785C196.06136,95.11902 196.8,95.8 197.5,96.5C198,97 198.62411,97.80305 199.3,98.21467C200.14247,98.72775 200.51237,99.35159 201.02083,100C201.62209,100.76675 202.27139,101.33254 203.2,101.4955C204.08736,101.65122 204.81035,102.11804 205.7,102.41467C206.5578,102.70068 207.39415,102.56126 208.15266,102.85267C209.02704,103.18858 209.91486,103.41356 210.83333,103.83334C211.53192,104.15262 212.21481,104.71599 213.16667,105.16666C213.81834,105.4752 214.82133,105.5 215.67467,105.5C216.61467,105.5 217.5,105.5 218.3,105.5C219.2,105.5 220.10001,105.5 221.02083,105.5C221.98666,105.5 222.74667,105.5 223.66667,105.5C224.45267,105.5 225.27469,105.50607 226.33333,105.5C227.26405,105.49467 227.91391,105.51273 228.89867,105.216C229.68253,104.9798 230.61629,104.60233 231.60001,104.49983C232.30136,104.42676 233.16718,103.88957 233.416,103.016C233.65544,102.17535 233.9247,101.29835 234.33333,100.5C234.74226,99.70104 235.53189,99.37347 236.10001,98.88934C236.84535,98.25416 237.48734,97.58797 238.25717,97.5045C239.14746,97.40797 240.01601,97.5 240.97917,97.5C241.91066,97.5 242.82133,97.5 243.67467,97.5C244.61467,97.5 245.53644,97.33185 246.3,97.58533C247.07216,97.84167 247.8033,98.47141 248.82133,98.5C249.49973,98.51906 250.51747,98.32139 251.29866,98.58533C252.18819,98.88589 252.93365,99.40172 253.82117,99.7215C254.50127,99.96655 255.14656,100.67812 255.668,101.3C256.26233,102.00881 257.09891,102.30756 257.89868,102.69867C258.66052,103.07124 259.66702,103.27573 260.5,103.66666C261.26871,104.02744 262.01724,104.33257 262.89999,104.51067C263.84375,104.70107 264.5369,105.23689 265.29999,105.584C266.15427,105.97259 266.94131,106.38386 267.70001,106.784C268.55838,107.23672 269.26953,107.51801 270.15268,107.85267C270.85828,108.12005 271.74155,108.47141 272.70001,108.5C273.59961,108.52684 274.5,108.5 275.29999,108.5C276.20001,108.5 277.10001,108.5 278.02084,108.5C278.82132,108.5 279.67465,108.5 280.61465,108.5C281.60001,108.5 282.5,108.5 283.29999,108.5C284.20001,108.5 285.02115,108.52236 285.98532,108.49866C286.71127,108.48082 287.69601,108.26525 288.54166,108C289.26712,107.77244 290.1412,107.59621 291.172,107.536C291.92047,107.49228 292.70267,107.50067 293.89999,107.5C294.70001,107.49956 295.5,107.5 296.29999,107.5C297.5,107.5 298.29868,107.5 299.08932,107.5C299.86401,107.5 300.61465,107.5 302.01334,107.5C302.65332,107.5 303.53836,107.49212 304.57849,107.50017C305.26407,107.50547 306.12512,107.50226 307.09549,107.85717C307.86945,108.14025 308.75211,108.78986 309.29868,109.3C310.01236,109.96615 310.85947,110.31311 311.60001,110.7215C312.27451,111.09345 312.84821,112.01901 313.66666,112.33334C314.44095,112.6307 315.39017,112.85717 315.7215,113.59967L316.5,114.16666L317.14282,113.791L317.47916,113" id="svg_25" stroke-width="3" stroke="#000" fill="none"/>
  <path t="212410,212562,212579,212579,212579,212595,212595,212595,212595,212612,212612,212612,212612,212612,212629,212629,212629,212649,212916,212932,212953,212953,212961,212978,212994,212994,212994,212994,213011,213011,213221,213221,213237,213252,213261,213261,213294,213565,213754,213907,213907,213945,214081,214105,214145,214446,214559,214585,214662,214662,214714,214764,214780,214909,214963,215062,215112,215112,215398,215444,215478,215478,215530,215784,215784,215817,216970,217011,217782,217908" d="M189.5,108.5C188.45833,108.5 187.49641,108.55778 186.68933,108.47867C185.80624,108.39211 184.81139,107.93185 184.24266,107.63866C183.61667,107.31596 182.94479,106.93752 181.75751,106.5215C180.90991,106.2245 180.02097,106.02032 179.58667,105.91067C178.75357,105.70033 177.34172,105.33752 176.58333,105C175.97536,104.72942 175.23479,103.90321 174.3,103.58533C173.44409,103.29428 172.5,103.5 171.7,103.5C170.8,103.5 169.92049,103.50827 169,103.16666C168.12326,102.84129 167.50439,102.49023 166.858,102.20533C165.77147,101.72645 165.04231,101.52084 164.01601,101.5C163.32547,101.48598 162.25717,101.5 161.39999,101.5C160.5,101.5 159.72256,101.3757 158.89999,100.92533C158.11961,100.49805 157.10687,100.29792 156.30133,100.78533C155.677,101.1631 155.51291,102.20008 155.5,103.1C155.48738,103.97932 154.76849,104.35099 154.11067,104.936C153.41783,105.55215 153.5,106.6 153.5,107.5C153.5,108.3 153.51067,109.20006 153.5,110.1C153.48958,110.97935 152.98192,111.65885 152.416,112.216C151.74486,112.87674 151.30791,113.6249 150.7955,114.2C150.23524,114.8288 149.60892,115.59839 149.5,116.5C149.4035,117.29874 148.95821,117.98029 148.30133,118.7C147.76785,119.28451 147.5045,120.2 147.5,121.1L147.5,122L147.5,122.9L147.5,123.8" id="svg_27" stroke-width="3" stroke="#000" fill="none"/>
  <path t="231426,231536,231536,231560,231577,231577,231577,231577,231594,231594,231594,231610,231632,231632,231632,231644,231644,231660,231660,231677,231694,231694,231710,231727,231744,231760,231760,231777,231777,231777,231794,231794,231794,231794,231810,231810,231810,231827,231827,231844,231860,231877,231877,231894,231910,231910,231927,231927,231927,231944,231944,231944,231944,231960,231960,231977,231977,231994,232010,232010,232027,232027,232027,232044,232044,232044,232060,232060,232077,232077,232112,232112,232128,232129,232144,232160,232177,232200,232200,232200,232201,232216,232217,232217,232244,232244,232260,232260,232277,232277,232294,232294,232310,232310,232327,232327,232344,232360,232377,232394,232394,232410,232410,232427,232444,232444,232460,232460,232480,232480,232480,232494,232510,232527,232527,232544,232544,232560,232560,232577,232594,232594,232616,232616,232616,232644,232660,232677,232694,232694,232694,232712,232712,232727,232744,232760,232760,232760,232777,232794,232794,232810,232827,232827,232860,232877,232894,232910,232927,232927,232927,232944,232944,232944,232960,232960,232977,232977,232977,232994,232994,233016,233032,233044,233044,233065,233112,233112,233128,233145,233145,233160,233161,233161,233177,233194,233195,233210,233210,233227,233244,233264,233277,233294,233294,233320,233321,233344,233360,233361,233377,233377,233394,233395,233410,233427,233444,233444,233460,233460,233480,233494,233656,233656,233671,233689,233689" d="M33.5,251.5C33.92533,249.67467 34.26654,248.99666 34.5,247.95833C34.71338,247.00931 34.85035,246.13576 35.02083,245.47917C35.19745,244.79897 35.58982,243.53928 35.88933,242.78267C36.13468,242.16287 36.44152,241.10735 36.66667,240.16667C36.82897,239.48854 37.14299,238.76718 37.3785,237.64284C37.53546,236.89352 37.39237,236.00197 37.55717,235.15266C37.73679,234.22694 38.43784,233.40762 38.49866,232.7C38.57574,231.80331 38.38762,230.89055 38.52083,229.97917C38.66548,228.98956 39.11683,228.29234 39.5,227.5C39.89571,226.68172 40.20111,225.99629 40.37867,224.85733C40.48129,224.19908 40.46582,223.49664 40.584,222.468C40.69074,221.53894 41.00619,220.53505 41.30133,219.90266C41.77238,218.89339 42.21327,218.3773 42.44283,217.25717C42.61531,216.41559 42.5,215.5 42.5,214.7C42.5,213.864 42.53701,212.83452 42.44283,212.03833C42.32844,211.07126 42.07538,210.25586 41.85333,209.68933C41.37965,208.4808 41.02848,207.89516 40.67467,207.32133C40.17023,206.50323 39.50821,205.65331 39.02083,205.02083C38.3823,204.19218 38.09178,203.44052 37.40017,202.74266C36.74368,202.08025 36.59401,201.41292 36.16667,200.5C35.86636,199.85846 35.2681,199.33524 34.5215,198.30017C34.10944,197.72891 33.72511,196.96849 33.2,196.25267C32.72116,195.59993 32.19006,194.84807 31.8,194.0955C31.28819,193.10803 30.84341,192.36594 30.6215,191.5215C30.41082,190.7198 30.5,189.8 30.5,188.89999C30.5,187.9375 30.49155,186.99991 30.5045,186.1375C30.51439,185.47905 30.4687,184.78607 30.7215,183.543C30.88099,182.75877 31.30733,181.90561 31.69867,181.10133C32.06971,180.33875 32.25523,179.30122 32.66933,178.70134C33.19015,177.94687 34.05923,177.75491 34.87467,177.08934C35.41404,176.64909 36.12426,175.81973 36.67467,175.36133C37.57159,174.61433 38.27927,174.38425 39.1,173.92534C39.87236,173.49347 40.4142,172.93407 40.85717,172.1955C41.23325,171.56844 41.8735,170.65863 42.3,169.98399C42.77142,169.23831 43.58831,168.56917 43.97917,167.97917C44.56423,167.09601 44.44685,166.2372 44.94267,165.30017C45.27797,164.66649 46.0165,164.2686 46.38567,163.25717C46.71618,162.35164 46.5,161.39983 46.5,160.61467C46.5,159.664 46.5,158.89867 46.5,157.9045C46.5,157.15717 46.5139,156.12523 46.49983,155.1785C46.48944,154.47894 46.35863,153.49126 46.07467,152.71066C45.80753,151.97635 45.50788,150.91069 45.5,150C45.49304,149.19551 45.2944,148.17148 44.97917,147.47917C44.712,146.89241 44.16162,145.92296 43.85717,145.15717C43.50669,144.2756 43.59637,143.27673 43.33333,142.33333C43.14328,141.6517 42.66423,141.00844 42.52083,140C42.38227,139.02559 42.62972,138.31688 42.4955,137.25717C42.3844,136.38 41.65414,135.73314 41.51067,134.89999C41.35791,134.013 41.5,133.10001 41.5,132.19099C41.5,131.16667 41.5,130.49017 41.5,129.71466C41.5,128.66667 41.5,127.736 41.5,126.90134C41.5,125.8955 41.5,125.264 41.5,124.07883C41.5,123.28533 41.5,122.50983 41.5,121.47066C41.5,120.70267 41.46288,119.73734 42.02083,119C42.60936,118.22225 43.19996,117.79996 43.9,117.1C44.59996,116.40012 45.14904,116.02191 46,115.47916C46.75047,115.00051 47.1008,114.27908 47.6,113.30016C47.90049,112.71091 48.3392,112.01093 48.88933,111.12534C49.36844,110.35406 49.48958,109.50017 49.5,108.5215C49.50873,107.70138 49.5347,106.78772 49.92533,106.1C50.38851,105.28458 50.5,104.4 50.5,103.5C50.5,102.74284 50.50731,101.67463 50.5,100.984C50.48958,99.99983 50.25092,98.99773 49.88933,98.32533C49.4436,97.49647 48.83889,96.90837 48.584,96.01733C48.35875,95.22993 47.88918,94.5116 47.43867,93.85333C46.88591,93.04568 46.39393,92.57475 45.83333,91.66666C45.39615,90.9585 44.98256,90.14964 44.584,89.3C44.18038,88.43958 43.85266,87.8 43.52083,86.97916L43.50134,86.01466L43.536,85.28934" id="svg_28" stroke-width="3" stroke="#000" fill="none"/>
  <path t="235549,235736,235736,235761,235761,235777,235777,235777,235800,235800,235810,235810,235827,235843,235843,235843,235860,235860,235860,235878,235878,235878,235894,235894,235894,235911,235911,235928,235928,235944,235944,235944,235961,235961,235961,235978,235978,235978,235994,236011,236011,236011,236028,236028,236028,236044,236044,236044,236061,236061,236078,236078,236111,236111,236128,236128,236145,236161,236161,236178,236178,236178,236178,236194,236194,236194,236211,236211,236228,236244,236244,236261,236278,236278,236294,236294,236311,236328,236328,236344,236344,236344,236361,236361,236361,236378,236378,236378,236378,236378,236394,236394,236394,236411,236411,236428,236428,236428,236444,236444,236461,236478,236478,236494,236511,236528,236544,236561,236578,236578,236578,236594,236594,236611,236611,236628,236644,236694,236711,236711,236728,236744,236761,236785,236785,236811,236828,236828,236844,236844,236844,236894,236894,236911,236929,236929,236944,236944,236961,236978,236978,236994,237011,237033,237033,237080,237095,237095,237113,237161,237161" d="M94.5,218.5C93.932,214.272 93.41863,213.61766 92.83334,212.66667C92.44266,212.03191 92.06304,211.1736 91.47916,210.47917C90.98758,209.8945 90.38714,209.1002 89.91067,208.336C89.40209,207.52029 88.91841,206.91945 88.51466,206.08934C88.15064,205.34091 87.60899,204.67587 87.14817,204.03833C86.47675,203.10942 86.24526,202.55225 85.91067,201.72533C85.48476,200.67271 85.23432,199.93575 84.864,199.31067C84.24158,198.26009 83.6601,197.71237 83.15266,197.10001C82.50263,196.31557 82.04378,195.75208 81.66666,194.66667C81.43449,193.99844 81.27764,192.95746 81.07467,192.23866C80.85154,191.44849 80.59216,190.42432 80.536,189.72533C80.46313,188.81825 80.5,187.81734 80.5,187.02083C80.5,186.26933 80.5,185.15067 80.5,184.16667C80.5,183.49017 80.49406,182.71465 80.5,181.66667C80.50533,180.72528 80.5098,180.03764 80.784,178.81734C80.90467,178.28027 81.23607,177.27396 81.44733,176.30983C81.59842,175.62035 81.92902,174.66063 82.30133,173.89867C82.69269,173.09772 83.0608,172.31061 83.59983,171.5215C84.10715,170.77882 84.4192,169.95903 84.86166,169.18649C85.20288,168.59073 85.8274,167.73917 86.15266,167.1375C86.50664,166.48271 87.02126,165.46928 87.47833,164.543C87.85772,163.77415 88.22508,163.12885 88.41467,162.10133C88.55419,161.34512 88.5,160.25717 88.5,159.39983C88.5,158.61467 88.5,157.67467 88.5,156.66667C88.5,155.87466 88.5,155.01601 88.5,154.15266C88.5,153.25267 88.55265,152.33041 88.47916,151.47917C88.39402,150.49287 88.07557,149.69469 87.7955,149.10001C87.31821,148.08656 86.97033,147.4415 86.61467,146.644C86.16733,145.64091 85.84529,144.84094 85.664,144.424C85.29433,143.57381 84.9436,142.72603 84.30033,141.66467C83.93394,141.06017 83.23739,140.45303 82.74284,139.52116C82.33009,138.74342 82.23458,137.72528 81.97916,137C81.71878,136.26062 81.22942,135.28905 80.7,134.70267C80.03533,133.96649 79.2812,133.48923 78.85717,132.8C78.35182,131.97861 78.5,131 78.5,130.10001C78.5,129.2 78.5,128.29866 78.5,127.33334C78.5,126.664 78.46944,125.89806 78.5045,124.9C78.53265,124.09876 78.79147,123.10413 79.07467,122.336C79.42392,121.38869 79.11606,120.29554 79.7215,119.62133C80.27609,119.00373 81.15368,118.70484 82,118.52084C82.87999,118.32951 83.80688,118.15024 84.5,117.5C85.00507,117.02618 85.84751,116.65936 86.70267,116.21467C87.36054,115.87256 88.268,115.3 89,115C89.732,114.7 90.70855,114.22675 91.29733,113.7C91.93678,113.12791 92.67906,112.51942 93.31467,112.1C94.18443,111.52605 94.45804,110.73938 95.02084,110C95.52586,109.33653 96.11522,108.78776 96.52533,107.9C96.90044,107.08803 97.4561,106.30249 97.49866,105.61467C97.55672,104.67646 97.5,103.66666 97.55717,102.8045L97.936,102.1L98.59983,101.39983L99.14283,100.74284" id="svg_29" stroke-width="3" stroke="#000" fill="none"/>
  <path t="252324,252443,252465,252465,252481,252526,252545,252559,252576,252576,252593,252609,252609,252609,252643,252659,252659,252659,252676,252693,252693,252693,252709,252709,252726,252726,252760,252776,252793,252809,252809,252826,252826,252826" d="M85.5,152.5C85.78533,151.584 86.54455,151.18896 87.3,150.784C88.05595,150.37877 88.93954,150.09633 89.416,149.30133C89.83076,148.60927 90.62487,148.30728 91.3,147.69867C91.93518,147.12608 92.66254,146.49313 93.32533,146.10001C94.0118,145.69284 94.84494,145.05861 95.66666,144.5C96.30396,144.06676 97.09779,143.79993 97.864,143.08934C98.58839,142.41754 98.87209,141.65773 99.3,140.98399C99.77435,140.23715 100.38213,139.69644 101.14817,139.2C101.92744,138.69499 102.48826,137.89641 103.2045,137.44733C103.87733,137.02547 104.60033,136.39983 105.172,135.864L106.04266,135.17867L106.50533,134.84734L107.24934,134.32533" id="svg_30" stroke-width="3" stroke="#000" fill="none"/>
  <path t="253890,254161,254177,254193,254243,254264,254296,254296,254408,254410,254410,254410,254427,254444" d="M76.5,134.5C74.8,134.5 73.89999,134.49467 73,134.5C72.09995,134.50534 71.28119,135.00049 70.5,135.33333C69.74846,135.65353 68.8206,135.50412 67.95734,135.72133C66.9904,135.96463 66.268,136.216 65.31433,136.44284L64.4,136.5" id="svg_31" stroke-width="3" stroke="#000" fill="none"/>
  <path t="255449,255528,255552,255552,255576,255576,255600,255600,255609,255677,255709,255709,255727,255727,255753,255777,255777,255829,255845,255876,255893,255909,255928,256025,256025,256041,256065,256077" d="M40.5,159.5C39.7215,158.62117 40.52688,158.18544 41,157.47917C41.53096,156.68655 41.97518,155.99583 42.6,155.40016C43.27433,154.75729 44.1663,154.58394 44.9,154.064C45.68721,153.50613 46.1004,152.83353 46.984,152.584C47.82518,152.34645 48.68653,152.04433 49.5,151.66667C50.2604,151.31366 51.14985,151.01135 51.88933,150.52533C52.57578,150.07416 53.33962,149.87024 54.16667,149.33333C54.86562,148.87958 55.5,148.5 56.3,148.5L57.2,148.44284L58,148L58.8,147.55267" id="svg_32" stroke-width="3" stroke="#000" fill="none"/>
  <path t="257616,257927,257943,257943,257943,257959,257960,257960,257960,257960,257976,257977,258044,258044,258044,258077,258094,258094,258110,258110,258110,258127,258127,258194,258210,258227,258227,258294,258294" d="M41.5,119.5C40.68117,119.38567 39.72983,118.92744 39.21733,118.63866C38.33694,118.1426 37.33963,117.65009 36.61733,117.38533C35.89128,117.11919 35.15819,116.92079 34.46933,116.70133C33.26491,116.31762 32.53837,116.00681 31.5,115.5C30.90258,115.2084 30.1661,114.828 29.12533,114.52533C28.18582,114.25211 27.50181,113.92406 26.5,113.66666C25.71317,113.4645 24.88341,113.47128 23.9045,113.14733C23.14185,112.89494 22.25239,112.60682 21.4,112.49983C20.49185,112.38585 19.864,111.92533 19.016,111.584L18.15267,111.44733" id="svg_33" stroke-width="3" stroke="#000" fill="none"/>
 </g>
</svg>