<svg width="500" height="375" xmlns="http://www.w3.org/2000/svg" xmlns:svg="http://www.w3.org/2000/svg" xmlns:xlink="http://www.w3.org/1999/xlink">
 <!-- Created with SVG-edit - http://svg-edit.googlecode.com/ -->
 <g display="inline" class="layer">
  <title>Layer 1</title>
  <path t="0,262,293,348,413,454,501,501,519,526,541,574,584,631,676,686,716,726,749,749,781,796,849,849,893,910,933,958,963,970,980,1013,1045,1070,1093,1133,1133,1143,1181,1196,1214,1246,1261,1301,1301,1319,1341,1389,1396,1416,1461,1479,1479,1494,1516,1534,1549,1566,1614,1646,1676,1726,1726,1781,1781,1796,1829,1846,1894,1894,1901,1919,1934,1966,2006,2014,2029,2061,2069,2079,2101,2116,2141,2141,2174,2189,2214,2224,2246,2286,2296,2296,2316,2326,2389,2399,2434,2459,2459,2469,2514,2524,2564,2589,2626,2636,2654,2654,2691,2724,2739,2814,2830,3150,3287,3303,3303,3386,3564,3564,3632,3683,3683,3685,3724,3724,4064,4079,4123,4130,4188,4266,4299,4299,4382,4434,4459,4563,4610,4643,4643,4675,4690,4738,4798,4842,4867,4867,4914,4917,4955,4987,5010,5010,5037,5100,5100,5115,5138,5164,5179,5179,5204,5234,5284,5299,5317,5340,5340,5347,5370,5387,5410,5435,5450,5452,5512,5512,5546,5563,5596,5636,5666,5666,5716,5738,5796,5803,5843,5883,5883,5891,5938,5946,5956,5956,5993,6026,6043,6043,6056,6083,6123,6123,6171,6211,6228,6258,6266,6283,6298,6308,6308,6338,6346,6371,6378,6386,6411,6443,6458,6478,6506,6523,6523,6538,6553,6586,6603,6618,6618,6636,6658,6676,6691,6691,6708,6738,6746,6763,6778,6788,6788,6818,6826,6843,6851,6866,6868,6883,6891,6906,6923,6933,6956,6966,6978,7006,7031,7051,7051,7061,7061,7098,7106,7113,7138,7146,7178,7178,7196,7203,7226,7243,7266,7283,7298,7323,7323,7338,7396,7403,7443,7491,7531,7626,7716,7716,7796,7898,7906,8091,8211,8258,8291,8618,8618,8633,8651,8756,9051,9066,9138,9138,9186,9251,9266,9298,9378,9393,9443,9476,9476,9523,9563,9596,9643,9658,9716,9771,9778,9778,9788,9833,9876,9876,9923,9941,9956,10018,10018,10051,10083,10098,10131,10138,10218,10331,10346,10346,10403,10451,10458,10586,10626,10643,10643,10666,10673,10706,10738,10796,10811,10876,10946,11091,11091,11091,11123,11356,11411,11451,11533,11533,11658,11691,11746,11864,11864,11964,12011,12124,12236,12251,12299,12371,12371,12419,12539,12539,12564,12571,12644,12756,12826,12826,12884,12884,13011,13044,13131,13171,13284,13834,13899,13986,14049,14386,14434,14482,14522,14617,14704,14719,14719,14777,14807,14991,15024,15057,15072,15072,15089,15137,15559,15609,15672,15674,15719,15965,16041,16079,16121,16249,16279,16344,16377,16417,16472,16571,16586,16649,16697,16697,16844,16947,17017,17248,17345,17360,17425,17465,17560,17600,17600,17647,17680,17727,17785,17800,17865,17905,17937,17937,18000,18015,18048,18063,18096,18128,18128,18193,18248,18248,18287,18337,18352,18367,18432,18495,18530,18530,18560,18560,18608,18643,18670,18670,18703,18743,18758,18773,18775,18793,18838,18903,18918,18925,18925,18960,19013,19045,19045,19063,19078,19118,19125,19128,19158,19173,19223,19223,19230,19263,19263,19270,19310,19343,19343,19373,19383,19393,19408,19470,19470,19518,19518,19558,19558,19590,19685,20223,20285,20285,20390,20438,20550,20550,20568,20685,20733,20735,20790,20860,20860,20926,20966,20966,20984,21029,21214,21269,21319,21326,21446,21519,21678,21791,21821,21823,21918,22038,22038,22497,22613,22683,22698,22698,22766,22863,22947,22991,23053,23101,23181,23221,23288,23342,23342,23359,23414,23507,23534,23534,23582,23582,23629,23654,23687,23762,23762,23846,23861,23861,23871,23901,23934,23966,23989,24039,24054,24054,24069,24101,24111,24126,24159,24196,24214,24261,24381,24381,24429,24461,24461,24494,24511,24794,24930,24999,25038,25078,25125,25133,25183,25223,25245,25248,25310,25365,25406,25406,25466,25502,25502,25510,25542,25590,25696,25948,25981,26069,26101,26126,26126,26144,26159,26214,26246,26264,26264,26309,26366,26399,26446,26464,26486,26486,26511,26549,26551,26556,26606,26626,26639,26639,26684,26694,26702,26742,26749,26797,26837,26884,26914,26954,26987,27004,27004,27027,27034,27047,27074,27092,27109,27147,27157,27157,27172,27187,27212,27237,27259,27284,27284,27292,27324,27339,27364,27394,27427,27467,27469,27484,27532,27532,27587,27614,27644,27644,27699,28062,28077,28124,28131,28195,28197,28235,28292,28365,28365,28404,28404,28444,28499,28524,28539,28571,28586,28589,28644,28659,28691,28771,28789,28844,28844,28849,28874,28907,28924,28979,29019,29087,29131,29131,29138,29171,29233,29233,29249,29274,29307,29314,29347,29379,29387,29452,29452,29474,29494,29547,29557,29602,29604,29652,29692,29699,29739,29739,29772,29834,29867,29874,29877,29909,29964,30011,30051,30068,30068,30108,30126,30186,30201,30244,30292,30299,30332,30332,30387,30412,30464,30480,30540,30578,30595,30613,30643,30653,30668,30698,30715,30740,30743,30755,30770,30810,30850,30868,31254,31254,31316,31364,31364,31387,31412,31419,31452,31499,31514,31539,31549,31549,31572,31582,31599,31619,31634,31684,31692,31707,31707,31734,31739,31754,31757,31764,31779,31819,31834,31837,31844,31862,31874,31924,31964,31972,32019,32029,32067,32074,32092,32092,32107,32124,32139,32154,32187,32227,32237,32252,32252,32267,32279,32299,32314,32317,32339,32339,32372,32394,32404,32404,32427,32444,32462,32474,32499,32507,32522,32554,32562,32594,32612,32627,32659,32677,32699,32699,32714,32732,32757,32774,32787,32797,32827,32852,32852,32859,32892,32914,32922,32934,32947,32964,32994,33002,33042,33077,33079,33107,33195,33228,33228,33253,33290,33300,33308,33308,33323,33348,33370,33380,33403,33405,33420,33475,33523,33530,33563,33573,33610,33643,33645,33653,33653,33700,33708,33708,33755,33770,33780,33780,33843,33865,33868,33890,33908,33938,33955,34003,34003,34035,34035,34050,34115,34130,34180,34180,34188,34235,34235,34268,34268,34275,34285,34300,34308,34308,34315,34340,34378,34380,34388,34388,34410,34420,34450,34453,34468,34490,34530,34580,34580,34635,34650,34660,34683,34700,34740,34788,34795,34798,34863,34895,34928,34975,34985,35349,35365,35400,35448,35488,35528,35608,35680,35729,35833,35904,35944,35947,35954,35994,36002,36017,36034,36034,36064,36097,36104,36195,36249,36332,36332,36348,36433,36473,36473,36521,36764,36810,36817,36817,36865,36945,37062,37090,37105,37152,37170,37230,37288,37328,37328,37376,37393,37441,37456,37481,37503,37506,37516,37536,37576,37656,37746,37753,37808,37848,37848,37858,38096,38194,38232,38280,38282,38544,38593,38593,38648,38673,38673,38720,38745,38778,38778,38808,38848,38865,38888,38890,38958,38975,39005,39008,39023,39085,39703,40711,40711,40727,40832,40848,40977,41037,41087,41147,41254,41330,41330,41330,41346,41411,41486,41501,41564,41579,41647,41727,41730,41730,41758,41783,41845,41848,41848,41864,41967,41990,41990,42007,42055,42065,42065,42080,42097,42097,42105,42182,42197,42255,42270,42280,42288,42298,42303,42316,42321,42321,42328,42328,42336,42343,42346,42358,42361,42376,42495,42700" d="M130.5,329.5C130.5,327.79999 130.49467,326.89996 130.5,326C130.50534,325.09995 130.96193,324.26361 131.33333,323.5C131.7,322.74609 131.98254,321.8461 132.47467,321.11066C132.92265,320.44119 133.10144,319.78583 133.536,318.936C133.89232,318.23917 134.4301,317.73526 134.5045,316.85184C134.59106,315.82416 135.41626,315.3457 135.5,314.5C135.57883,313.70392 135.5,312.79999 135.5,311.89999C135.5,311 135.5,310.10001 135.5,309.20001C135.5,308.29999 135.5,307.39999 135.5,306.5C135.5,305.70001 135.5,304.79999 135.5,303.89999C135.5,303 135.49934,302.10001 135.5,301.20001C135.50067,300.29999 135.80084,299.44916 136.14734,298.79999C136.60069,297.95062 136.5,297 136.5,296.10001C136.5,295.20001 136.5,294.29999 136.5,293.39999C136.5,292.5 136.5,291.70001 136.5,290.79999C136.5,289.89999 136.5,289 136.5,288.10001C136.5,287.20001 136.6637,286.24271 136.27867,285.39999C135.97287,284.73068 135.51073,283.89999 135.5,283C135.4894,282.11066 134.77441,281.6261 134.51067,280.88934C134.21091,280.05197 134.63252,279.08954 134.4955,278.20001C134.35182,277.26733 133.73679,276.77307 133.55716,275.84732C133.39236,274.99805 133.44154,273.98413 133.85266,273.20001C134.29726,272.35205 134.7117,271.52826 135.07466,270.89999C135.56322,270.05435 136.25941,269.55881 136.4955,268.7955C136.76038,267.93912 136.90387,267.06076 137.69867,266.58401C138.38957,266.16959 138.37601,265.29138 138.50017,264.40018C138.61189,263.5983 139.37131,263.1348 139.50133,262.29999C139.64392,261.38452 140.30988,260.84592 140.48933,259.89999C140.6571,259.01572 140.5,258.10001 140.5,257.20001C140.5,256.29999 140.5,255.39999 140.5,254.5C140.5,253.7 140.5,252.8 140.5,251.89999C140.5,251 140.40454,250.05547 140.784,249.3C141.21957,248.4328 141.49933,247.7 141.5,246.8C141.50067,245.89999 141.5,245 141.5,244.10001C141.5,243.2 141.5,242.3 141.5,241.39999C141.5,240.5 141.5,239.7 141.5,238.8C141.5,237.89999 141.5,237 141.5,236.10001C141.5,235.2 141.88841,233.90495 141.14284,233.56166C140.35075,233.19696 139.69966,234.30099 139.10001,234.89999C138.39961,235.59962 137.8,236.2 137.2,236.8C136.5,237.5 135.93767,238.14885 135.08934,238.47467C134.20859,238.81296 133.55751,239.21307 132.52167,239.37833C131.67618,239.51321 130.99219,238.89137 130.55716,238.14284C130.13269,237.41246 130.5,236.39999 130.5,235.5C130.5,234.7 130.51041,233.79994 130.5,232.89999C130.48958,231.99982 129.95682,231.29669 129.62151,230.39999C129.30342,229.54936 129.51799,228.69981 129.5,227.8C129.48199,226.89946 128.88187,226.18967 128.58533,225.3C128.29945,224.44235 128.66817,223.46356 128.41467,222.7C128.15833,221.92783 127.52859,221.20135 127.5,220.3C127.47146,219.40045 127.52386,218.49965 127.5,217.7C127.47141,216.74155 127.11845,215.85889 126.85267,215.15266C126.52052,214.27011 126.58212,213.29623 126.49983,212.39999C126.41615,211.48856 125.73883,210.96233 125.52084,210C125.32195,209.12201 125.5,208.2 125.5,207.3C125.5,206.39999 125.5,205.5 125.5,204.7C125.5,203.8 125.50533,202.89998 125.5,202C125.49467,201.09996 125.05766,200.3882 124.66666,199.5C124.37717,198.84236 124.5,197.89999 124.5,197C124.5,196.10001 124.5,195.2 124.5,194.3C124.5,193.39999 124.5,192.5 124.5,191.7C124.5,190.8 124.49805,189.88039 124.92533,189.10001C125.3757,188.27744 125.31865,187.34651 125.66666,186.5C125.94256,185.82892 126.34757,184.98566 126.51067,184.10001C126.66377,183.26859 127.11362,182.37889 127.584,181.78534C128.16931,181.04675 128.5,180.39999 128.5,179.5C128.5,178.7 128.83101,178.04851 129.33333,177.33333C129.82178,176.63789 129.5,175.7 129.5,174.8C129.5,173.89999 129.5,173 129.5,172.10001C129.5,171.2 129.5,170.3 129.5,169.39999C129.5,168.5 129.5,167.7 129.5,166.8C129.5,165.89999 129.86671,164.92029 129.47917,164.02083C129.17139,163.30649 128.50226,162.79552 128.5,161.89999C128.49774,161 128.59546,160.05547 128.216,159.3C127.78042,158.4328 127.69661,157.66545 127.44283,156.8C127.18554,155.92256 126.62493,155.29536 126.49983,154.39999C126.37318,153.49353 125.69983,152.8474 125.52084,152C125.33479,151.1192 125.63654,150.14336 125.216,149.3C124.88607,148.63835 124.50225,147.80002 124.5,146.89999C124.49775,146 124.59547,145.05547 124.216,144.3C123.78042,143.4328 123.44562,142.80096 123,142C122.55545,141.20094 122.58212,140.29623 122.49983,139.39999C122.41615,138.48856 121.70502,137.84628 121.52084,137C121.33159,136.13046 120.77441,135.62608 120.51067,134.88933C120.21091,134.05197 120.82223,133.04237 120.48933,132.11067C120.22604,131.37376 119.50597,130.88937 119.5,129.97917C119.49369,129.01602 119.60408,128.27667 119.216,127.38533C118.89306,126.64359 118.51266,125.79993 118.5,124.9C118.48733,123.99985 117.9568,123.2967 117.6215,122.4C117.30341,121.54936 117.5,120.7 117.5,119.8C117.5,118.9 117.5,118 117.5,117.1C117.5,116.2 117.5,115.3 117.5,114.4C117.5,113.5 117.5,112.7 117.5,111.8C117.5,110.9 117.5,110 117.5,109.1C117.5,108.2 117.5,107.3 117.5,106.4C117.5,105.5 117.43177,104.57213 118.02084,104.02084C118.75388,103.3348 119.85017,103.57304 120.47467,103.07467C121.08263,102.58949 121.91051,102.63271 122.8,102.4955C123.73138,102.35182 124.27183,101.66763 125.2,101.5045C126.0519,101.35477 126.71463,100.95123 127.33334,100.33334C127.95253,99.71495 128.62404,99.30692 129.2,98.7955C129.93227,98.14528 130.80182,97.73827 131.416,97.216C132.06976,96.66009 132.35098,95.96512 132.51067,95.1C132.66411,94.26864 133.41496,93.51261 133.49867,92.7C133.59088,91.80474 133.5,90.9 133.5,90C133.5,89.1 133.5,88.2 133.5,87.3C133.5,86.4 133.5372,85.49914 133.5,84.7C133.45729,83.78236 132.62854,83.34007 132.5,82.5C132.37831,81.70471 131.7552,80.96229 131.536,80.1C131.31403,79.22686 131.11392,78.36165 130.784,77.7C130.36345,76.85664 130.5,75.9 130.5,75C130.5,74.1 130.5,73.2 130.5,72.3C130.5,71.4 130.4628,70.49914 130.5,69.7C130.54271,68.78236 131.43176,68.89294 132.21466,68.41467C133.0179,67.92396 133.65349,67.68135 134.5,67.33334C135.17108,67.05744 135.96284,66.83948 136.88933,66.48933C137.62134,66.21268 138.11063,65.50533 139,65.5C139.89998,65.49461 140.8033,65.57568 141.70134,65.49866C142.67714,65.41498 143.30562,65.02245 144.01601,64.784C145.06602,64.43153 145.89999,64.49933 146.8,64.5C147.7,64.50067 148.62404,64.69308 149.2,65.2045C149.93227,65.85472 150.87979,66.18247 151.416,66.78533C151.9942,67.4354 152.34586,68.26686 152.48933,69.1C152.64209,69.98701 152.5,70.9 152.5,71.8C152.5,72.7 152.30183,73.66058 152.66667,74.5C152.9642,75.18455 153.96576,75.69741 154.33333,76.5C154.67348,77.24272 154.08878,78.32257 154.55716,79.14283C155.02148,79.95599 155.83751,80.22198 156.5,80.83334C157.11586,81.40165 157.01894,82.49704 157.55267,83.13834C158.08418,83.77695 159.04248,83.72655 159.72133,84.37867C160.30135,84.93584 161.1748,85.30502 161.47917,86.02084C161.81903,86.82014 160.97929,87.48484 160.10001,87.5C159.11076,87.51705 158.51042,88.02065 158.5,88.9C158.48933,89.79994 158.5,90.7 158.5,91.6C158.5,92.5 158.5,93.3 158.5,94.2C158.5,95.1 158.64209,96.01299 158.48933,96.9C158.34586,97.73314 157.60938,98.48916 157.5045,99.2C157.36659,100.13473 156.66667,100.66666 156.5,101.5C156.33333,102.33334 155.46175,102.67355 154.7,102.41467C153.81209,102.1129 153.10054,101.51801 152.2,101.5C151.30019,101.48201 150.26576,101.25307 149.584,101.784C148.95743,102.27194 148.59705,102.97105 148.14734,103.8C147.69086,104.64145 147.01683,105.10717 146.58533,105.78533C146.09216,106.56037 146.5,107.6 146.5,108.5C146.5,109.3 146.48933,110.20006 146.5,111.1C146.51042,111.97935 146.90363,112.69299 147.584,113.216C148.19528,113.6859 149.05438,113.91769 149.7215,114.3785C150.4512,114.88255 151.5,114.5 152.3,114.5C153.2,114.5 154.10001,114.5 155,114.5C155.89999,114.5 156.8,114.5 157.7,114.5C158.60001,114.5 159.5,114.5 160.3,114.5C161.2,114.5 162.10001,114.5 163,114.5C163.89999,114.5 164.85664,114.63654 165.7,114.216C166.36165,113.88607 167.21182,113.46874 167.89999,113.07467C168.71342,112.60886 169.2476,111.87229 170.02083,111.52084C170.82143,111.15694 171.85011,111.57296 172.47467,111.07467C173.10573,110.57118 174.00229,110.25095 174.67467,109.88934C175.50339,109.44363 176.08263,108.92168 177,108.5C177.79439,108.13485 178.49046,107.61076 179.3,107.50134C180.19377,107.38053 180.96306,106.92634 181.8,106.55267C182.57216,106.20792 183.45407,106.03835 184.14284,105.44733C184.80231,104.88145 184.98784,103.9571 185.89999,103.52533C186.67458,103.15869 187.13971,102.66679 187.55267,101.8C187.95134,100.9632 188.62138,100.19243 189.3,99.78533C190.03595,99.34385 190.84573,98.97259 191.7,98.584C192.4631,98.23688 193.15796,97.74954 193.8,97.2045C194.55472,96.5638 195.53189,96.37347 196.10001,95.88934C196.84535,95.25416 197.49069,94.61253 198.3,94.50134C199.13701,94.38633 199.71616,93.77053 200.5,93.33334C201.15187,92.96974 201.73297,92.10361 202.5,91.66666C203.27986,91.2224 203.83495,90.69289 204.60017,90.2785C205.31721,89.8902 205.99258,89.31447 206.67467,88.9C207.62708,88.32127 208.32024,88.06409 209.064,87.47467C209.74156,86.9377 210.47354,86.65229 210.49983,87.6C210.51939,88.30489 209.88762,89.08222 209.52533,89.9C209.17772,90.68465 208.61005,91.22393 208.02083,92C207.46033,92.73824 207.23651,93.71951 206.69867,94.3C206.12262,94.92175 205.39999,95.6 204.8,96.2C204.2,96.8 203.57158,97.58748 202.89999,98.064C202.17435,98.57889 201.40762,98.9073 200.85266,99.55267C200.35219,100.13466 200.0396,101.02361 199.55267,101.7955C199.10956,102.49794 198.32727,103.04016 198.52083,104C198.69238,104.8507 199.58931,105.42712 200.064,106.1C200.58237,106.83481 200.88608,107.63835 201.216,108.3C201.63655,109.14336 201.3979,110.65589 200.66667,110.33334C199.92485,110.0061 199.26784,109.74424 198.584,109.216C197.95651,108.73129 197.14983,108.57304 196.52533,108.07467C195.91737,107.58949 195.10001,107.5 194.2,107.5C193.3,107.5 192.39999,107.5 191.5,107.5C190.7,107.5 189.7729,107.31388 188.89999,107.536C188.02394,107.75893 187.32092,108.48058 186.68533,108.9C185.81557,109.47395 185.44839,110.19807 185,111C184.55374,111.7981 184.67348,112.75728 184.33333,113.5C183.96576,114.30259 183.18909,114.78927 182.5,115.5C181.9268,116.09121 181.52419,116.88835 181,117.5C180.44612,118.14629 179.9391,118.70734 179.27867,119.37867C178.66888,119.9985 178.1848,120.54234 177.784,121.3C177.33467,122.14938 177.08354,122.91882 176.30133,123.416C175.56989,123.88092 174.87389,124.3284 174.2045,124.85717C173.46353,125.44248 173.22656,126.26527 172.5,126.66666C171.72731,127.09354 171.21074,127.81091 170.5,128.5C169.90878,129.07321 169.11067,129.47467 168.5,130C167.88933,130.52533 166.70691,130.78119 166.58667,131.69867C166.48343,132.48643 167.37392,133.22559 168.11067,133.48933C168.94803,133.78909 169.94453,133.40454 170.7,133.784C171.5672,134.21957 172.2,134.55267 173,135C173.8,135.44733 174.7195,135.76349 175.3,136.30133C175.92174,136.87738 176.70197,137.52142 177.14284,138.2C177.65762,138.99232 178.3181,139.49429 178.49867,140.30133C178.6949,141.17831 178.35336,142.22333 178.936,142.88933C179.54649,143.58716 180.60001,143.5 181.5,143.5C182.3,143.5 183.20006,143.51041 184.10001,143.5C185.00018,143.48958 185.71881,142.99951 186.5,142.66667C187.25154,142.34647 188.2,142.44284 189,142C189.8,141.55716 190.70377,141.58212 191.60001,141.49983C192.51144,141.41615 193.06042,140.84637 193.8,140.2045C194.46669,139.62589 195.33455,139.69661 196.2,139.44284C197.07744,139.18555 197.84706,138.66359 198.60001,138.27867C199.3632,137.8885 200.10007,137.51491 201,137.5C201.97926,137.48378 202.4366,136.72522 203.2045,136.5045C204.06517,136.25713 205,136.5 205.89999,136.5C206.8,136.5 207.7,136.5 208.60001,136.5C209.5,136.5 210.3,136.5 211.2,136.5C212.10001,136.5 213,136.5 213.89999,136.5C214.8,136.5 215.7,136.5 216.60001,136.5C217.5,136.5 218.33444,136.30405 219.2,136.55716C220.07764,136.8138 220.79865,137.47141 221.7,137.5C222.59955,137.52853 223.5,137.5 224.3,137.5C225.2,137.5 226.10001,137.5 227,137.5C227.89999,137.5 228.80473,137.40912 229.7,137.50133C230.5126,137.58504 231.15796,138.25046 231.8,138.7955C232.55472,139.43619 233.3562,139.50723 234.10001,140.11067C234.86046,140.7276 235.38747,141.49069 235.49867,142.3C235.61368,143.13699 236.76714,143.89664 236.21466,144.41467C235.54454,145.04301 234.39999,144.5 233.5,144.5C232.7,144.5 231.7735,144.68376 230.89999,144.464C230.03717,144.24695 229.4016,143.60892 228.5,143.5C227.70126,143.4035 226.96283,142.75305 226.10001,142.536C225.2265,142.31624 224.29623,142.58212 223.39999,142.49983C222.48856,142.41615 221.96234,141.73883 221,141.52083C220.12201,141.32193 219.2,141.5 218.3,141.5C217.39999,141.5 216.5,141.5 215.7,141.5C214.8,141.5 213.89999,141.5 213,141.5C212.10001,141.5 211.2,141.5 210.3,141.5C209.39999,141.5 208.4996,141.47464 207.7,141.5C206.79865,141.52859 206.07364,142.16278 205.3,142.41467C204.44052,142.69452 203.64874,142.83679 203.07466,143.47467C202.5538,144.05339 201.98196,144.65891 201.416,145.216C200.74487,145.87663 200.07614,146.31392 199.3,146.78534C198.62363,147.19615 198.08853,147.88582 197.584,148.69867C197.12694,149.43504 196.62781,150.0374 195.93201,150.7C195.42097,151.18665 194.84119,152.05626 194.14284,152.44284C193.31619,152.90045 192.37596,152.69307 191.8,153.2045C191.06773,153.85471 190.30302,154.45729 189.39999,154.5C188.50101,154.54253 187.66556,154.30405 186.8,154.55716C185.92236,154.8138 185.20152,155.47141 184.39999,155.5C183.50058,155.53209 182.7,155.5 181.8,155.5C180.89999,155.5 180,155.5 179.10001,155.5C178.2,155.5 177.3,155.5 176.39999,155.5C175.5,155.5 174.7,155.5 173.8,155.5C172.89999,155.5 172,155.5 171.10001,155.5C170.2,155.5 169.3,155.5 168.39999,155.5C167.5,155.5 166.73642,155.18886 166.14734,154.55267C165.61435,153.97708 164.87389,153.67162 164.2045,153.14284C163.46352,152.55753 163.14807,151.67287 162.55267,151.14734C161.91452,150.58408 161.50635,149.87247 161.07466,149.10001C160.61684,148.28076 160.60687,146.72675 159.784,146.87067C159.01302,147.00551 159.5,148.5 159.5,149.3C159.5,150.2 159.5,151.10001 159.5,152C159.5,152.89999 159.5,153.8 159.5,154.7C159.5,155.60001 159.5,156.5 159.5,157.3C159.5,158.2 159.5,159.10001 159.5,160C159.5,160.89999 159.5,161.8 159.5,162.7C159.5,163.60001 159.33183,164.53644 159.58533,165.3C159.84167,166.07217 160.29538,166.87285 160.78534,167.7C161.18864,168.38087 162.15094,168.9189 162.41467,169.7C162.70389,170.55655 162.74214,171.45378 163.14734,172.2C163.56064,172.96112 163.56694,173.84355 164.07466,174.52533C164.55188,175.16614 164.5,176.10001 164.5,177C164.5,177.89999 164.5,178.8 164.5,179.7C164.5,180.60001 164.5,181.5 164.5,182.3C164.5,183.2 164.5,184.10001 164.5,185C164.5,185.89999 164.5,186.8 164.5,187.7C164.5,188.60001 164.5,189.5 164.5,190.3C164.5,191.2 164.51701,192.10941 164.92534,192.91066C165.3154,193.67607 165.35535,194.54442 165.72133,195.4785C165.97876,196.13553 166.42703,197.03632 166.85266,197.8C167.26605,198.54172 167.49933,199.3 167.5,200.2C167.50067,201.10001 167.66278,201.93805 168.14734,202.55267C168.65935,203.20212 168.13683,204.29689 168.536,205.064C168.93114,205.82338 169.49933,206.30133 169.5,207.2C169.50067,208.10001 169.3429,209.01572 169.51067,209.89999C169.69012,210.84592 170.41496,211.4874 170.49867,212.3C170.59088,213.19527 170.5,214.10001 170.5,215C170.5,215.89999 170.5,216.8 170.5,217.7C170.5,218.60001 170.5,219.5 170.5,220.3C170.5,221.2 170.5054,222.10002 170.5,223C170.49466,223.88937 169.78796,224.37891 169.51067,225.11067C169.17245,226.0032 168.86412,226.55948 168.416,227.30133C167.98996,228.00664 167.19696,228.62411 166.78534,229.3C166.27226,230.14247 165.75662,230.70856 165.33333,231.5C164.93286,232.24878 164.51266,232.99985 164.5,233.89999C164.48734,234.79993 164.11392,235.63835 163.784,236.3C163.36345,237.14336 163.50195,238.11961 163.07466,238.89999C162.62428,239.72256 162.5,240.5 162.5,241.3C162.5,242.2 162.5,243.10001 162.5,244C162.5,244.89999 162.50008,245.8 162.5,246.7C162.49991,247.60001 162.27194,248.46457 161.92534,249.136C161.50604,249.94827 161.54688,250.8871 161.14734,251.74283C160.72186,252.6541 160.49066,253.35449 159.88933,254.10001C159.36191,254.75388 158.8864,255.62111 158.416,256.21466C157.83067,256.95325 157.75862,257.72662 157.27867,258.37866C156.76469,259.07693 155.82286,259.32001 155.51067,260.11066C155.21674,260.85504 155.2717,261.81848 155,262.5C154.61148,263.47455 154.50067,264.29868 154.5,265.20001C154.49934,266.10001 154.53748,267.03775 154.27867,267.82132C153.98901,268.6983 153.57614,269.61383 153.5,270.5C153.435,271.25653 153.11252,272.13892 152.85266,272.84732C152.48595,273.84705 152.5,274.70001 152.5,275.60001C152.5,276.5 152.69969,277.33551 152.44284,278.20001C152.17435,279.1037 151.40265,279.82291 151,280.5C150.50328,281.3353 149.84946,281.9003 149.58533,282.70001C149.30182,283.55844 149.53719,284.50085 149.5,285.29999C149.45729,286.21765 148.5609,286.71524 148.5,287.60001C148.4382,288.49786 148.5,289.29999 148.5,290.20001C148.5,291.10001 148.5,292 148.5,292.89999C148.5,293.79999 148.5,294.70001 148.5,295.60001C148.5,296.5 148.5,297.29999 148.5,298.20001C148.5,299.10001 148.5,300 148.5,300.89999C148.5,301.79999 148.37601,302.70862 148.50017,303.59982C148.61189,304.4017 149.44611,304.8537 150,305.5C150.52419,306.11163 150.90334,306.94012 151.69867,307.41599C152.39052,307.82993 152.974,308.39374 153.7,308.784C154.55479,309.24347 155.32399,309.33804 156.10001,309.53601C156.96208,309.75595 157.70464,310.37506 158.60001,310.50015C159.50647,310.6268 160.1526,311.30017 161,311.47916C161.8808,311.66519 162.8,311.5 163.7,311.5C164.60001,311.5 165.50087,311.4628 166.3,311.5C167.21764,311.54272 167.70856,312.24338 168.5,312.66666C169.24878,313.06711 170.1086,313.31998 170.7955,313.85718C171.53934,314.4389 171.5,315.5 171.5,316.29999C171.5,317.20001 171.55815,318.26868 170.7955,318.49551C169.93715,318.75082 169,318.5 168.10001,318.5C167.2,318.5 166.29623,318.58212 165.39999,318.49985C164.48856,318.41617 163.96233,317.73883 163,317.52084C162.12201,317.32196 161.2,317.5 160.3,317.5C159.39999,317.5 158.5,317.5 157.7,317.5C156.8,317.5 155.89999,317.5 155,317.5C154.10001,317.5 153.2,317.5 152.3,317.5C151.39999,317.5 150.49913,317.4628 149.7,317.5C148.78236,317.54272 148.04913,318.04459 147.58533,318.78534C147.09789,319.56384 147.62349,320.5354 148.2045,321.20001C148.76088,321.83643 149.42712,322.58932 150.10001,323.064C150.83481,323.58237 151.71548,323.76785 152.3,324.30133C153.0197,324.95819 153.85947,325.31311 154.60001,325.7215C155.27449,326.09344 155.79701,327.0975 156.7,327.41467C157.55296,327.71426 158.53644,327.33185 159.3,327.58533C160.07217,327.84167 160.87285,328.29538 161.7,328.78534C162.38087,329.18866 162.91887,330.151 163.7,330.41467C164.55656,330.7038 165.50087,330.4628 166.3,330.5C167.21764,330.54272 167.71097,331.47217 168.07466,332.10001C168.52063,332.86987 168.69705,333.82214 168.49867,334.69867C168.31569,335.50714 167.3882,335.94232 166.5,336.33334C165.84236,336.62286 164.79742,336.10181 163.936,336.53601C163.23712,336.88828 162.6985,337.5173 161.8,337.5C160.89944,337.48267 160.18968,336.88187 159.3,336.58533C158.44235,336.29944 157.5,336.5 156.7,336.5C155.8,336.5 154.8942,336.58667 154.08934,336.48932C153.1615,336.37711 152.26517,335.9866 151.66933,335.30133C151.11208,334.66043 150.37596,334.30692 149.8,333.7955C149.06773,333.14526 148.25391,332.70004 147.5,332.33334C146.73639,331.96194 145.97934,331.51044 145.01601,331.5C144.32538,331.49252 143.25717,331.5 142.39999,331.5C141.5,331.5 140.89247,331.01736 140.21466,330.58533C139.44102,330.09222 138.76212,329.8898 138.064,329.53601C137.29263,329.14511 136.27673,329.59637 135.33333,329.33334C134.65169,329.14328 133.64243,328.74472 132.91066,328.47467C132.06259,328.16171 131.3895,327.65741 130.61467,327.41599C129.6599,327.1185 128.98399,326.784 128.02083,326.52084L127.1,326.5L126.2,326.5" id="svg_1" stroke-width="3" stroke="#000" fill="none"/>
  <path t="44793,45094,45129,45137,45137,45184,45192,45254,45270,45305,45313,45313,45353,45368,45400,45400,45425,45440,45458,45505,45505,45528,45538,45614,45614,45664,45704,45764" d="M138.5,231.5C138.784,230.58533 139.66667,230.5 140.5,230.5C141.3,230.5 142.2,230.5 143.10001,230.5C144,230.5 144.91051,230.36728 145.8,230.5045C146.73138,230.64818 147.45599,230.95436 148.21466,231.584C148.93983,232.18585 149.63405,232.35349 150.3,232.58533C151.18565,232.89365 151.91254,233.34938 152.8,233.5045C153.72832,233.66676 154.26862,234.35182 155.2,234.4955C156.08949,234.63272 157,234.5 157.89999,234.5L158.8,234.5L159.7,234.5L160.60001,234.49983" id="svg_2" stroke-width="3" stroke="#000" fill="none"/>
  <path t="46704,46826,46833,46851,46861,46861,46861,46868,46868,46873,46886,46886,46888,46896,46896,46906,46921,46928,46983,46983,46999,46999,47042,47099,47115,47138,47138,47153,47160,47160,47168,47195,47200,47231,47249,47274,47274,47289,47304,47321,47331,47354,47354,47456" d="M127.5,176.5C129.3,176.5 130.2,176.5 131.04167,176.5C132.04266,176.5 132.75067,176.5 133.49466,176.5C134.69017,176.5 135.38266,176.5 136.32533,176.5C137.33333,176.5 138.1955,176.5 139.02083,176.5C139.98399,176.5 140.67467,176.5 141.74283,176.5C142.7,176.5 143.60001,176.5 144.5,176.5C145.3,176.5 146.29263,176.1451 147.064,176.536C147.76212,176.88979 148.04756,177.94617 148.78534,178.41467C149.47696,178.85388 150.38533,178.5 151.32533,178.5C152.33333,178.5 153.08934,178.5 154,178.5C154.89999,178.5 155.8,178.5 156.7,178.5C157.60001,178.5 158.5004,178.47464 159.3,178.5C160.20135,178.52859 160.92256,179.18555 161.8,179.44284C162.66545,179.69661 163.60001,179.7215 164.2,180.2045L164.89999,180.88933" id="svg_3" stroke-width="3" stroke="#000" fill="none"/>
  <path t="48299,48421,48436,48436,48436,48436,48464,48474,48482,48497,48514,48514,48552,48609,48642,48642,48722,48777,48777,48824,48857,48912,48922,48977,49009,49057,49122,49129,49192,49192,49242,49272,49304,49322,49382,49426,49426,49614,49647,49680,49697,49705,49715,49720,49752,49792,49792,49857,49872,49872,49920,49945,49945,49952,49970,49985,49992,50000,50032,50040,50050,50090,50097,50097,50105,50120,50120,50130,50137,50152,50217,50225,50240,50312,50330,50377,50377,50657,50672,50672,50690,50720,50720,50760,50760,50770,50792,50832,50832,50865,50897,50905,50920,50970,50985,51002,51017,51032,51032,51072,51087,51102,51110,51117,51135,51165,51197,51255,51397,51400,51415,51445,51455,51470,51477,51527,51575,51607,51622,51632,51637,51640,51662,51685,51717,51717,51735,51790,51807,51822,51832,51832,51847,51865,51872,51872,51887,51917,51917,51942,51950,51957,51975,51975,52222,52277,52287,52302,52310,52310,52327,52327,52350,52357,52357,52375,52397,52415,52437,52437,52470,52502,52575,52575,52582,52597,52622,52645,52647,52662,52680,52717,52727,52727,52855,52887,52927,52927,52975,52982,53015,53020,53092,53092,53342,53357,53367,53400,53415,53422,53470,53517,53527,53527,53565,53575,53807,53822,53837,53850,53850,53867,53877,53892,53979,53979,54050,54050,54093,54246,54286,54286" d="M211.5,114.5C211.47467,114.94667 211.72824,115.81853 212,116.5C212.3886,117.47443 212.70854,118.05763 213.37866,118.72134C213.99469,119.33147 214.29053,120.04453 214.85716,120.7955C215.362,121.46457 216.44969,121.41518 217.064,122.11066C217.65303,122.77755 217.76344,123.71954 218.30133,124.3C218.97356,125.02543 219.5977,125.6023 220.2,126.2C220.89734,126.89202 221.73378,127.17985 222.416,127.784C223.01054,128.3105 223.44119,129.07733 224.11067,129.52533C224.8461,130.01746 225.69698,130.45729 226.60001,130.5C227.49899,130.54253 228.3,130.5 229.2,130.5C230.10001,130.5 231.013,130.35791 231.89999,130.51067C232.73314,130.65414 233.48412,131.43382 234.2,131.4955C235.14082,131.57654 235.49933,130.69867 235.5,129.8C235.50067,128.89999 235.43465,128.06256 234.92534,127.47467C234.36342,126.82605 233.63937,126.37782 233.10001,125.63866C232.64711,125.01801 232.10921,124.1272 231.5,123.5C230.9088,122.89133 230.3026,122.03423 229.5,121.66666C228.75728,121.32652 227.78772,121.4653 227.10001,121.07467C226.28458,120.61149 225.27965,120.72859 224.584,120.216C223.89313,119.70694 223.62306,118.78271 222.88933,118.51067C222.03543,118.19406 221.18628,118.2597 220.32533,117.92533C219.39311,117.56329 218.52785,117.28904 217.89999,116.92533C217.13014,116.47936 216.18866,116.5173 215.5,116C214.87431,115.53001 214,115.5 213.10001,115.5C212.2,115.5 211.24271,115.6637 210.39999,115.27866C209.7307,114.97287 208.96617,114.38167 209.60001,114.7215C210.27884,115.08545 210.89999,115.9 211.5,116.5C212.10001,117.1 212.79623,117.80379 213.3,118.3C213.99486,118.98443 214.87285,119.29539 215.7,119.78533C216.38087,120.18864 216.88583,120.91148 217.69867,121.416C218.43504,121.87307 218.9756,122.3947 219.8,122.85267C220.5423,123.26502 221.11226,123.85674 221.78534,124.416C222.4545,124.97201 223.31554,125.17848 224.10001,125.52533C224.91803,125.88702 225.79677,126.28001 226.44733,126.85267C227.03616,127.37099 227.48579,128.1313 228.11067,128.52533C228.85918,128.99731 229.75363,129.289 230.60001,129.72133C231.25531,130.05606 232.18169,130.8494 232.97917,130.47917C233.68652,130.15079 233.5,129 233.5,128.10001C233.5,127.2 233.5,126.3 233.5,125.4C233.5,124.5 233.27948,123.61423 232.39999,123.49983C231.70073,123.40887 230.93958,122.84638 230.2,122.2045C229.53331,121.62589 228.66812,121.68735 227.8,121.44283C227.03871,121.2284 226.30302,120.54272 225.39999,120.5C224.50101,120.45747 223.66692,120.69126 222.8,120.44283C221.90343,120.18591 221.18367,119.57168 220.32533,119.51067C219.38762,119.44401 218.54622,119.25787 217.8,118.85267C217.03888,118.43938 216.08952,118.63253 215.2,118.4955C214.26732,118.35182 213.7583,117.80202 212.85184,117.55267C211.84729,117.27633 211.71523,116.56089 212.60001,116.5C213.49788,116.43821 214.25845,116.45641 215.14816,116.5045C215.93369,116.54696 216.65994,117.37147 217.5,117.5C218.29529,117.62168 219.08197,118.11298 219.89999,118.47467C220.68446,118.82152 221.48813,119.39786 222.2,119.4955C223.09256,119.61792 223.8923,119.9442 224.60001,120.59983C225.19363,121.14978 226.03207,121.43473 226.8,121.85267C227.64096,122.31036 228.47174,122.71169 229.10001,123.07467C229.94566,123.56323 230.55807,124.03555 231.2045,124.60983C231.83409,125.16917 232.24368,126.01292 233,126.47916C233.75319,126.94348 234.58748,127.42842 235.064,128.10001C235.57889,128.82565 236.07376,129.4436 236.52533,130.11067C237.02411,130.84749 237.72659,131.50604 238.14284,132.2C238.6151,132.98732 237.81067,133.39896 237.416,132.69867C236.95578,131.88206 236.52533,131.11067 236,130.5C235.47467,129.88933 235.0558,129.1077 234.40016,128.39999C233.8502,127.80637 233.42059,127.09957 232.85266,126.44733C232.23694,125.7402 231.26759,125.06574 230.66667,125.66666C230.06573,126.26759 230.47276,127.30042 230.5,128.2C230.52859,129.14413 231.0433,129.72511 231.72133,130.37866C232.30089,130.93729 232.60303,131.73865 233.30133,132.21466C234.05066,132.72545 234.66667,133.33333 235.5,133.66667L236.10001,134.07466" id="svg_4" stroke-width="3" stroke="#000" fill="none"/>
  <path t="57628,57831,57847,57898,57980,58114,58114,58190,58205,58245,58378,58454,58462,58479,58527,58654,58654" d="M132.5,80.5C133.5,80.5 134.33359,80.25442 135.21466,80.5C136.02658,80.72631 136.71881,81.51077 137.14284,82.2C137.64818,83.02139 137.5,84 137.5,84.9C137.5,85.8 137.62411,86.70862 137.49983,87.59983C137.38803,88.40159 136.39999,88.5 135.5,88.5L134.7,88.5" id="svg_5" stroke-width="3" stroke="#000" fill="none"/>
  <path t="63763,64202,64529,64562,64646,64682,64689,64737,64737,64797,64833,64850,64858,64905,64920,64996,64996,65012,65072,65082,65090,65097,65115,65177,65177,65185,65192,65210,65250,65305,65315" d="M127.5,76.5C129.3,76.5 130.12903,76.43447 130.584,75.69867C131.0081,75.0128 131.90987,74.63443 132.8,74.4955C133.61896,74.36768 134.26686,73.65414 135.10001,73.51067C135.987,73.35791 136.89999,73.5 137.8,73.5C138.7,73.5 139.60001,73.5 140.5,73.5C141.3,73.5 142.2,73.5 143.10001,73.5C144,73.5 144.89999,73.49933 145.8,73.5C146.7,73.50067 147.55084,73.80084 148.2,74.14733C149.04938,74.60069 149.97917,74.52084 150.55267,75.14733L151.2045,75.55267L152,76L152.8,76.44733" id="svg_6" stroke-width="3" stroke="#000" fill="none"/>
  <path t="68320,68470,68470,68506,68506,68529,68554,68569,68586,68589,68616,68656,68674,68674,68706,68706,68756,68764,68764,68794,68794,68826,68856,68856,68906,68914,68946,68954,68964,69001,69009,69026,69026,69089,69114,69129,69146,69176,69209,69226,69313,69346,69386,69401,69418,69433,69451,69473,69521,69593,69593,69641,69698,69748,69763,69793,69833,69833,69898,69921,70008,70048,70121,70168,70201,70233,70233,70248,70273,70288,70288,70313,70346" d="M119.5,106.5C119.85267,105.91434 120.41467,106.7 120.5,107.5C120.58533,108.3 120.96581,109.16537 121.47467,109.88934C121.97746,110.60466 122.41906,111.17518 122.92533,111.88934C123.47896,112.6703 124.12146,113.14821 124.984,113.7C125.65633,114.1301 126.50211,114.57247 127.08933,115.1C127.8314,115.76662 128.5,116.5 129,117C129.7,117.7 130.3,118.30001 130.89999,118.9C131.60001,119.60001 132.15662,120.24715 132.8,120.7955C133.55338,121.43758 134.26357,121.81116 134.85266,122.44733C135.38565,123.02292 136.14137,123.07217 136.97917,123.54166C137.68768,123.93871 137.52313,125.00618 138.30133,125.58266C138.95528,126.06709 139.83911,126.39072 140.47467,126.92533C141.12402,127.47153 141.59868,128.18871 142.30133,128.584C143.11827,129.04359 143.88026,129.4854 144.5,130C145.10205,130.49991 146,130.5 146.89999,130.5C147.8,130.5 148.7,130.5 149.60001,130.5C150.5,130.5 151.43042,130.89305 152.21466,130.41467C153.01828,129.92448 153.17764,128.93312 153.936,128.536C154.70226,128.13475 155.63835,128.11392 156.3,127.784C157.14336,127.36346 158.10001,127.5 159,127.5C159.89999,127.5 160.8,127.5 161.7,127.5C162.60001,127.5 163.5,127.5 164.3,127.5C165.2,127.5 166.02083,127.5 166.98399,127.5L167.84734,127.5L168.74283,127.5L169.7,127.5" id="svg_7" stroke-width="3" stroke="#000" fill="none"/>
  <path t="71269,71411,71427,71427,71442,71473,71473,71505,71505,71545,71644,71665,71682,71697,71737,71747,71762,71777,71848,71863,71879,71881,71904,71944,71964,71964,71976,72009,72026,72066,72066,72121" d="M129.5,97.5C129.5,99.32533 129.31854,100.36504 129.55716,101.1955C129.77806,101.96429 130.72675,102.51328 131.14284,103.25716C131.60249,104.07894 131.66269,104.86269 132.216,105.58266C132.74954,106.27689 133.35126,106.8368 133.92534,107.47467C134.4462,108.05339 135.11063,108.49467 136,108.5C136.89998,108.50539 137.8,108.49992 138.7,108.5C139.60001,108.50008 140.45378,108.74213 141.2,109.14733C141.96112,109.56062 142.91087,109.48014 143.82117,109.50017C144.63925,109.51817 145.28009,110.16779 146.02083,110.47916C146.84164,110.8242 147.82133,110.72134 148.5,111L149.47833,111.37867" id="svg_8" stroke-width="3" stroke="#000" fill="none"/>
  <path t="78153,78290,78290,78306,78306,78361,78361,78369,78376,78394,78409,78436,78441,78466,78489,78504,78544,78569,78571,78576,78586,78586,78594,78601,78601,78609,78616,78626,78634,78649" d="M158.5,123.5C158.5,124.5 158.05019,125.04526 157.58533,125.78533C157.09663,126.56334 157.26501,127.4577 156.85266,128.2C156.3947,129.0244 155.6819,129.49429 155.50133,130.30133C155.3051,131.17831 155.5,132.10001 155.5,133C155.5,133.89999 155.5,134.8 155.5,135.7C155.5,136.60001 155.5,137.5 155.5,138.3C155.5,139.136 155.2626,140.21324 155.58533,140.93066C155.961,141.76578 156.70027,142.2852 157.3,142.93201C157.89301,143.57155 158.55267,144.14734 159.2045,144.55267L159.97917,145.02083L160.44733,145.7955" id="svg_9" stroke-width="3" stroke="#000" fill="none"/>
  <path t="83897,84026,84049,84049,84097,84097,84155,84193,84225,84265,84290,84290,84323,84330,84348,84363,84380,84380,84403,84510,84530,84545" d="M146.5,316.5C145.584,316.21466 145.17387,315.46335 144.784,314.70001C144.39944,313.94711 144.5,313 144.5,312.11066C144.5,311.14282 144.5,310.29999 144.5,309.39999C144.5,308.5 144.29054,307.66153 144.55716,306.79999C144.8252,305.93384 145.95729,305.72156 146.47467,305.064C146.98466,304.41583 147.30133,303.70001 148,303.02084L148.7955,302.55267L149.464,302.064L149.5,301.1955" id="svg_10" stroke-width="3" stroke="#000" fill="none"/>
 </g>
</svg>