<svg width="500" height="333.3333333333333" xmlns="http://www.w3.org/2000/svg" xmlns:svg="http://www.w3.org/2000/svg" xmlns:xlink="http://www.w3.org/1999/xlink">
 <!-- Created with SVG-edit - http://svg-edit.googlecode.com/ -->
 <g display="inline" class="layer">
  <title>Layer 1</title>
  <path t="0,236,237,267,313,329,339,339,340,356,539,572,572,590,590,607,607,623,672,673,726,726,747,902,903,949,1113,1124,1124,1141,1163,1174,1174,1192,1237,1258,1275,1275,1292,1309,1358,1415,1437,1478,1478,1493,1493,1609,1626,1626,1643,1671,1741,1778,1778,1797,1825,1844,1887,1927,1927,1927,1944,1944,1961,1977,1994,2011,2011,2011,2027,2045,2045,2159,2159,2212,2391,2392,2469,2493,2547,2577,2597,2613,2630,2803,2803,2848,2849,2943,3043,3105,3167,3254,3306,3307,3353,3366,3382,3383,3415,3433,3433,3663,3663,3736,3736,3936,4078,4104,4183,4253,4580,4922,4954,4954,4991,5013,5099,5152,5269,5305,5305,5322,5665,5673,5711,5711,5789,5789,5812,5812,5825,5992,6008,6008,6052,6053,6107,6142,6258,6259,6275,6276,6293,6309,6309,6309,6433,6593,6610,6610,7185,7185,7194,7211,7230,7231,7279,7296,7449,7449,7450,7464,7480,7498,7498,7513,7515,7515,7531,7547,7564,7597,7614,7614,7630,7647,7663,7681,7681,7697,7698,7731,7748,7767,7783,7783,8007,8031,8082,8083,8083,8100,8100,8132,8132,8132,8149,8165,8166,8183,8183,8199,8216,8217,8232,8270,8441,8464,8483,8500,8500,8518,8518,8519,8535,8535,8572,8573" d="M331.29999,130.86667C333.52133,131.30933 334.02283,131.96056 334.2955,132.91484C334.50388,133.64415 334.84058,134.38858 335.62115,135.188C336.11395,135.69269 336.92975,136.29391 337.228,137.23067C337.48215,138.02896 337.46667,138.86531 338.272,138.86667C339.06668,138.86801 340.21277,138.62709 340.93549,139.30933C341.50342,139.84544 341.39929,140.9467 342.172,141.29201C342.88995,141.61284 343.98398,141.54332 344.72934,141.95067C345.47498,142.35815 345.61539,143.42216 345.87466,144.052C346.29987,145.0849 346.66037,145.83807 347.62115,145.86667C348.27887,145.88625 349.32205,145.80101 350.11884,145.92383C351.08206,146.0723 351.76053,146.43034 352.79999,146.7C353.64523,146.91928 354.50134,146.86667 355.46667,146.86667C356.27917,146.86667 357.24271,146.86987 357.29999,147.71733C357.36115,148.62178 357.29984,149.47734 357.29999,150.34584C357.30017,151.30949 357.21451,152.14693 357.74268,152.84517C358.30618,153.59012 358.93951,154.30925 359.74268,154.74516C360.37137,155.08636 361.26328,155.03815 361.29999,155.86667C361.3443,156.86667 362.29999,156.86476 363.05716,156.86667C363.94818,156.86893 365.12924,156.97795 365.29999,157.74533C365.48184,158.56268 365.73062,159.3226 366.34167,159.8875C366.89178,160.39604 367.74057,160.92061 368.42801,161.45599C369.24774,162.09442 369.672,162.70088 370.50134,162.86934C371.50131,163.07245 372.10007,163.74889 372.64734,164.16133C373.50616,164.80859 374.35056,165.17662 375.05716,165.51401C375.90302,165.91788 376.99277,165.94087 377.29733,165.15067C377.65475,164.22331 377.29999,163.51483 377.29999,162.50267C377.29999,161.57117 377.29999,160.69733 377.29999,159.86667C377.29999,158.85201 377.29999,158.06534 377.29999,157.15199C377.29999,156.16133 377.29999,155.43466 377.29999,154.424C377.29999,153.57201 377.29999,152.69867 377.29999,151.86667C377.29999,150.85201 377.29791,150.06534 377.29999,149.15199C377.30225,148.16132 377.22739,147.17889 378.00449,146.87567C378.87231,146.53705 379.78265,146.86897 380.73065,146.86667C381.65717,146.86441 382.49033,146.56631 383.05716,146.16217C383.93182,145.53854 384.76212,145.20995 385.12933,144.384C385.4639,143.6315 385.29999,142.58267 385.29999,141.64534C385.29999,140.80533 385.29999,140.01601 385.29999,138.981C385.29999,138.16217 385.29999,137.22383 385.29999,136.29733C385.29999,135.51483 385.29999,134.62384 385.29999,133.668C385.29999,132.80533 385.79114,131.89204 385.29999,130.981C384.89679,130.23311 383.94608,130.22549 383.05716,129.91933C382.099,129.58931 381.47217,129.0278 380.85718,128.424C380.28424,127.86147 379.43179,127.26031 378.82083,126.86667C378.05023,126.37018 377.50647,125.61913 377.30133,124.69867C377.12012,123.88551 376.72992,123.04636 376.00534,122.87566C375.07587,122.65671 374.87933,121.8735 374.24734,121.22383C373.61996,120.57888 372.75729,120.26606 372.25833,119.86667C371.34692,119.13714 370.52353,118.90269 369.63333,118.86667C368.80066,118.83297 368.01334,118.86667 367.06668,118.86667C366.11884,118.86667 365.19199,118.86667 364.44666,118.86667C363.54001,118.86667 362.48694,119.32428 361.66617,118.8095C361.03799,118.41551 361.29999,117.23067 361.29999,116.38267C361.29999,115.51933 361.56967,114.45654 361.29599,113.668C361.03186,112.90704 360.01379,112.886 359.06668,112.868C358.11902,112.84999 357.22675,112.92685 356.59018,113.581C356.10541,114.07916 355.44595,114.85313 354.936,115.656C354.48264,116.36978 353.82925,116.97803 353.35718,117.814C352.96295,118.51211 352.27936,118.85625 351.3215,118.86667C350.5014,118.87559 349.51709,118.93468 349.336,119.71733C349.10245,120.72665 348.57532,120.79454 347.69733,120.952C346.68958,121.13274 345.75552,121.29285 345.29999,122.088C344.91098,122.76702 344.27295,122.75804 343.32166,122.867C342.57208,122.95285 342.69781,124.1737 341.93384,124.75233C341.1575,125.34035 340.29468,124.86667 339.55066,124.86667C338.44318,124.86667 337.58801,124.86667 336.63583,124.86667C335.77917,124.86667 335.06668,124.86667 333.96133,124.86667C333.13333,124.86667 332.27917,124.86667 331.29999,124.86667C330.52133,124.86667 329.54266,124.86667 328.73065,124.86667C327.94818,124.86667 326.80826,124.73935 326.29999,125.3875C325.77475,126.05728 325.22098,126.8923 325.31067,127.71733C325.41129,128.64281 326.13528,128.93962 327.06934,129.43466C327.83524,129.84059 328.35184,130.16133 329.37851,130.62367L330.27917,130.825L331.29999,130.86667L332.07867,130.86667" id="svg_1" stroke-width="3" stroke="#000" fill="none"/>
  <path t="10087,10340,10373,10390,10458,10474,10474,10667,10667,10682,10682,10708,10708,10708,10725,10741,10759,10759,10776,10776,10776,10793,10837,10978,10978,11001,11001,11209,11226,11226,11243,11243,11243,11271,11271,11272,11760,11760,11778,11778,11794,11794,11812,11812,11812,11845,11845,11862,11879,11896,11896,11947,11948" d="M341.29999,140.86667C341.29999,141.86667 341.29999,142.784 341.29999,143.57201C341.29999,144.53334 340.71698,145.12735 340.11465,145.47734C339.16354,146.02998 338.54449,146.59207 338.35718,147.51483C338.20111,148.28365 338.80682,149.01436 339.57599,149.30267C340.24841,149.55472 341.04224,150.19148 341.35718,150.9765C341.67416,151.76668 342.22372,152.45435 343.06668,152.98134C343.7453,153.40559 344.45581,153.65562 345.26801,154.43066C345.74139,154.8824 346.44461,155.48175 346.936,156.01601C347.55597,156.69005 348.75983,156.37466 349.29999,157.08817C349.83054,157.78899 349.29999,158.73817 349.29999,159.63083C349.29999,160.55333 349.29999,161.22667 349.29999,162.53334C349.29999,163.34334 348.96259,164.43723 349.63333,164.86667C350.22989,165.2486 351.29999,164.86667 352.08932,164.86667C353.13333,164.86667 353.96133,164.86667 354.8425,164.86667C355.77917,164.86667 356.76675,165.27829 357.29999,164.53334C357.77542,163.86916 357.74435,163.00793 358.71066,162.856C359.63419,162.7108 360.32083,162.36667 361.29999,162.03334L362.07867,161.892" id="svg_2" stroke-width="3" stroke="#000" fill="none"/>
  <path t="13101,13319,13319,13343,13356,13367,13384,13401,13401,13451,13468,13485,13485,13485,13501,13667,13723,13745,13768,13823,13823,13861,13861,13885,13885,13903,13903,13903,13903,13918,13919,13979,13980,14008,14079,14079,14156,14169,14186,14204,14204,14204,14257,14271,14286,14287,14303,14304,14427,14550,14582,14582,14605,14769,14769,14769,14789,14805,14823,14824,14824,14869,14889,14889,14906,14906,14906,14939,15087,15157,15157,15173,15174,15190,15191,15211,15224,15224,15240,15257,15327,15327,15327,15342,15342,15529,15558,15575,15591,15609,15609,15626,15626,15642,15642,15642,15658,15658,15675,15676,15692,15709,15709,15726,15726,15742,15743,15792,15809,15810,15830,15831,15843,15876,15877,15916,15916,15932,15942,15943,15959,15995,16087,16110,16177,16177,16193,16194,16251,16278,16337,16337,16361,16378,16378,16421,16421,16444,16461,16461,16478,16507,16507,16528,16545,16546,16563,16563,16578,16578,16595,16653,16653,16678,16679,16769,16809,16832,16855,16880,16896,16924,16962,16963,16980,16980,17057,17103,17103,17118,17134,17147,17235,17235,17248,17264,17429,17429,17515,17515,17532,17549,17549,17647,17647,17681,17682,17731,17731,17762,17782,17800,17815,17816,17887,17887,17916,17916,17986,18011,18011,18048" d="M346.29999,160.86667C346.29999,161.86667 346.29999,162.62384 346.29999,163.51483C346.29999,164.53334 346.12225,165.49814 345.25833,165.84584C344.50632,166.1485 343.4502,165.60052 342.55466,166.15067C341.84476,166.58678 341.12384,167.18791 340.64734,167.57201C339.93808,168.14371 339.04669,168.69093 338.20016,168.86684C337.40759,169.03152 337.61395,170.03217 337.27866,170.85201C336.97583,171.59241 336.06754,171.99471 335.54266,172.84517C335.12411,173.52339 334.58704,174.19003 333.77667,174.62384C332.9765,175.0522 332.32678,175.33582 331.34167,175.86667C330.71451,176.20462 329.80566,176.86259 329.27066,177.45599C328.61398,178.18436 327.86829,178.33813 327.06168,178.8185C326.2756,179.28664 326.466,180.26915 325.94733,180.87117C325.45892,181.43806 325.38544,182.33083 324.96667,183.03334C324.53867,183.75133 323.87134,184.49583 322.936,184.79466C322.13531,185.05046 321.13199,185.02992 320.47467,185.29201C319.46457,185.69476 318.61823,185.49132 317.82083,185.8875C317.09775,186.24677 317.08432,187.39479 317.35718,188.15683C317.65091,188.97716 318.85028,189.29628 319.54001,189.71733C320.24573,190.14813 321.06,190.83324 321.64133,190.696C322.50604,190.49187 323.3002,189.86711 323.88934,189.57201C324.96039,189.03548 325.439,188.36551 325.98267,187.68134C326.55396,186.9624 327.28931,186.6008 328.01334,186.31334C329.11261,185.87689 329.22534,185.04997 329.87067,184.86667C330.67712,184.63759 331.7793,185.14143 332.58566,184.75233C333.34705,184.38493 333.2442,183.17473 334.11884,182.87567C335.01575,182.56898 335.83505,183.19975 336.79999,182.86667C337.45175,182.64169 338.18387,181.97473 339.00134,181.892C339.59775,181.83163 340.72366,181.51685 341.38,181.15067C342.22083,180.68155 343.21609,180.8521 343.29999,181.57117C343.39459,182.382 343.29999,183.35201 343.29999,184.07733C343.29999,185.06667 343.29999,185.86667 343.29999,186.86667C343.29999,187.66667 343.29999,188.46666 343.29999,189.46666C343.29999,190.26666 343.02673,191.34526 343.41434,192.15233C343.78171,192.91731 345.09338,193.16026 345.25833,193.90834C345.46487,194.84508 345.29999,195.65601 345.29999,196.7C345.29999,197.45599 345.28329,198.38768 345.30017,199.188C345.31818,200.0419 345.6778,200.93044 346.01599,201.66533C346.41675,202.53616 346.2999,203.43466 346.29999,204.29866C346.30008,205.30933 346.30634,206.03287 346.79999,206.86667C347.22672,207.58748 347.36365,208.52449 348.29999,208.825C349.185,209.10904 349.4194,209.50562 350.01599,209.952C350.76938,210.51569 351.2229,210.98792 351.94818,211.57201C352.62692,212.11862 353.22357,212.88863 353.35718,213.6855C353.51834,214.64668 353.76706,215.35719 354.13333,216.36667C354.43945,217.21037 354.88181,217.8837 355.13333,218.86667C355.32907,219.63158 355.20065,220.59915 355.74268,221.30933C356.22086,221.93587 357.12985,222.48212 357.29999,223.30949C357.44955,224.03679 357.29999,225.1095 357.29999,225.96683C357.29999,226.752 357.21957,227.72977 357.47067,228.468C357.75714,229.31027 358.2735,230.226 359.13199,230.696C359.91409,231.12418 360.92935,230.93326 361.228,231.73866C361.48318,232.42682 360.8913,233.74498 361.29999,234.53334C361.62363,235.15767 362.28198,235.7168 362.29999,236.62384C362.31693,237.47717 362.27686,238.34612 362.30017,239.30949C362.31815,240.05264 362.67184,240.9332 363.01599,241.66533C363.39072,242.46248 363.03845,243.62529 363.47067,244.29733C363.92639,245.00589 364.86398,245.0204 365.41434,245.51401C366.02567,246.0623 366.90268,245.866 368.07867,245.86667C368.96667,245.86717 369.87067,245.86667 370.52133,245.86667C371.49985,245.86667 372.46399,245.86667 373.41467,245.86667C374.29999,245.86667 375.07553,245.86 375.94818,245.51401C376.75015,245.19603 377.41296,244.50191 377.82083,243.86667C378.33585,243.06451 379.19162,242.96471 380.11465,242.856C381.07367,242.74306 380.86728,241.63579 381.46667,241.03334C382.04654,240.45053 383.08862,241.00888 384.01334,240.79466C384.98154,240.57036 385.26801,239.71733 385.46667,238.86667L386.29999,238.7L386.94284,238.16217L387.28934,237.30267" id="svg_3" stroke-width="3" stroke="#000" fill="none"/>
  <path t="18817,19035,19035,19081,19081,19120,19120,19204,19251,19275,19313,19359,19383,19405,19422,19422,19469,19469,19489,19506,19522,19556,19556,19586,19586,19773,19790,19790,19790,19807,19857,19874,19890,19890,19932,19957,19957,20002,20025,20050,20074,20074,20237,20308,20308,20325,20325,20341,20359,20359,20639,20639,20659,20660,20693,20710,20710,20710,20726,20776,20794,20810,20810,20827,20827,20879,20957,21044,21061,21094,21111,21111,21112,21127,21128,21145,21145,21145,21229,21244,21439,21439,21463,21478,21478,21495,21512,21529,21529,21547,21562,21580,21580,21580,21596,21613,21613,21629,21662,21663,21663,21680,21717,21741,21764,21802,21803,21818,21889,21902,21997,22051,22121,22137,22207,22231,22252,22265,22315,22332,22332,22349,22366,22382,22383,22399,22400,22423,22423" d="M383.29999,212.86667C383.28934,211.58 383.41669,210.81305 383.01599,209.83867C382.70831,209.09047 382.29999,208.29866 382.29999,207.57201C382.29999,206.50951 382.29999,205.668 382.29999,204.75684C382.29999,203.86667 382.29999,202.972 382.29999,202.16133C382.29999,201.2 382.29999,200.29601 382.29999,199.45767C382.29999,198.46933 382.29999,197.73866 382.29999,196.76134C382.29999,195.86667 382.29999,194.972 382.29999,194.15233C382.29999,193.26401 382.13696,192.25626 382.29999,191.58099C382.48602,190.81049 383.50323,191.15807 384.11465,191.728C384.77292,192.34158 385.08426,193.25606 385.30133,194.06534C385.51663,194.86804 385.96518,195.52452 386.384,196.29866C386.75729,196.98865 387.95822,196.7417 388.73065,196.86667C389.61972,197.01051 390.42093,197.48738 391.13333,198.03334C391.79477,198.54024 392.4707,198.66785 393.38266,198.86667C394.18515,199.04163 394.22934,199.92334 394.46667,200.86667C394.66687,201.66238 395.23907,202.6172 395.29999,203.43466C395.3642,204.29626 395.09167,204.36996 395.37201,203.71733C395.75534,202.82495 396.76437,202.99246 397.64133,202.696C398.483,202.41145 399.00134,202.01598 399.88934,201.57201C400.81418,201.10963 401.73599,200.86667 402.60449,200.86667C403.46667,200.86667 404.30634,200.97765 405.27832,200.86633C406.02792,200.78049 406.28958,199.86682 406.29999,198.85201C406.30804,198.06538 406.18167,197.23392 405.38135,196.864C404.59555,196.50079 404.03043,195.9873 403.30084,195.57201C402.2901,194.99667 401.49469,194.87117 400.53201,194.86667C399.79999,194.86325 399.01343,195.19601 397.98267,194.856C397.15741,194.58377 396.75977,193.61374 396.11465,193.30267C395.21912,192.87083 394.25208,192.56529 393.82083,191.86667C393.32819,191.06857 393.1568,190.13194 392.448,189.95067C391.59656,189.73293 390.67529,189.45526 390.01334,188.94934C389.23996,188.35826 388.49994,187.98445 387.95267,187.57201C387.09384,186.92474 386.07556,186.75636 385.65717,186.16217C385.12363,185.40446 384.87125,184.40903 384.27917,183.86667C383.79385,183.4221 382.71854,183.05672 382.00449,182.50951C381.33923,181.99969 381.32242,180.93179 380.73199,180.29866C380.1713,179.69742 379.54926,179.0108 379.26401,178.256C378.95624,177.44164 378.40695,176.79681 378.28934,176.01601C378.13779,175.00993 377.32861,174.51096 377.29999,173.668C377.26907,172.75735 377.29999,171.86667 377.29999,170.9765C377.29999,170.03334 376.5708,169.97488 375.78265,169.78133C374.89661,169.56372 374.10068,168.92503 373.13333,168.86667C372.47552,168.82698 371.46667,168.53334 370.936,168.01601L370.29999,167.2L369.58533,166.86934" id="svg_4" stroke-width="3" stroke="#000" fill="none"/>
  <path t="23325,23440,23463,23486,23555,23569,23569,23720,23720,23720,23790,23791,23804,23820,23838,24013,24038,24038,24055,24055,24056,24137,24160,24301,24301,24426,24493,24532,24574,24594,24773,24790,24811,24811,24826,24850,24859,24874,24913,24913,24935,25125,25125,25141,25142,25142,25142,25142,25142,25158,25158,25158,25158,25159,25159,25159,25174,25175,25175,25175,25285,25285,25378,25378,25408,25409,25426,25426,25443,25443,25459,25477,25477,25494,25494,25509,25543,25576,25610,25660,25677,25677,25774,25812,25812,25850,25860,25878,25898,25898,25912,25913,25944,25944,25962,25978,25999,26011,26028,26045,26115" d="M397.29999,202.86667C397.29999,203.86667 397.29999,204.88133 397.29999,205.668C397.29999,206.7 397.55658,207.61882 397.29999,208.29866C397.03278,209.00664 396.00769,208.823 395.30084,208.92383C394.25757,209.07266 393.85898,209.86212 393.19016,210.50951C392.60999,211.07108 391.38751,210.5945 390.59549,210.981C389.83289,211.35315 389.54614,212.29659 388.75751,212.84517C388.10327,213.30025 387.27325,213.44672 386.46701,214.16217C385.78693,214.76569 385.34396,215.43164 385.30133,216.29866C385.25201,217.30147 385.29999,218.16217 385.29999,219.036C385.29999,219.86667 385.29999,220.85767 385.29999,221.71733C385.29999,222.62399 385.29999,223.436 385.29999,224.21851C385.29999,225.23067 385.68634,226.4035 385.12933,226.86534C384.49005,227.3954 383.61594,227.49591 383.25183,228.16133C382.81088,228.96719 382.92499,228.86667 383.52802,228.86667C384.50784,228.86667 385.39484,228.86667 386.44583,228.86667C387.02533,228.86667 387.63684,228.86667 388.27734,228.86667C390.34201,228.86667 391.06265,228.86667 391.78732,228.86667C392.508,228.86667 393.21667,228.86667 393.90533,228.86667C394.56601,228.86667 396.29999,228.86667 397.18799,228.86667C397.884,228.86667 398.673,228.86667 399.69733,228.86667C400.58566,228.86667 401.29999,228.424 401.29999,227.71733C401.29999,226.7 401.29999,225.89467 401.29999,225.09866C401.29999,224.11734 401.11115,223.17258 401.336,222.28799C401.55869,221.4119 402.44409,221.08647 403.18533,220.69733C404.0108,220.26396 404.89423,219.77911 405.27866,218.888C405.60464,218.13239 405.54108,217.39424 406.01599,216.69733C406.51788,215.96085 406.29999,214.88817 406.29999,214.06799C406.29999,213.15199 406.29999,212.29866 406.29999,211.43466C406.29999,210.43066 406.29999,209.57117 406.29999,208.69966C406.29999,207.80417 406.29999,207.10667 406.29999,206.00983C406.29999,205.15466 406.29999,204.29733 406.29999,203.51483C406.29999,202.50267 406.29999,201.57117 406.29999,200.69733C406.29999,199.86667 406.29999,198.8875 406.21466,198.06534L405.79999,197.34584" id="svg_5" stroke-width="3" stroke="#000" fill="none"/>
  <path t="26888,26913,26913,27053,27053,27053,27155,27192,27200,27217,27217,27233,27233,27233,27333,27333,27333,27503,27567,27567,27681,27681" d="M381.29999,236.86667C385.24667,233.83867 385.91022,233.22939 386.8425,232.98784C387.75958,232.75023 388.73404,232.91602 389.19199,232.01601C389.63916,231.13715 389.69278,230.3844 390.40033,229.76683C391.07611,229.17697 392.07187,228.95789 392.84167,228.84584C393.40994,228.76314 394.6109,228.44814 395.18649,228.16133C396.00974,227.75114 396.93549,227.10966 397.29999,227.30966L397.29999,228.088L397.29999,229.06633L397.29999,229.825" id="svg_6" stroke-width="3" stroke="#000" fill="none"/>
  <path t="29690,29853,29871,29888,29888,29909,30059,30075,30092,30092,30092,30109,30109,30126,30142,30142,30159,30176,30192,30192,30209,30227,30227,30243,30243,30276,30276,30293,30293,30310,30326,30343,30343,30343,30360,30360,30376,30394,30394,30410,30434,30434,30444,30444,30460,30460,30477,30477,30513,30682,30682,30710,30727,30744,30744,30761,30761,30777,30795,30795,30836,30852,30861,30878,30895,30895,30895,30912,30912,30929,30929,30945,30946,30962,30962,30962,31012,31012,31079,31079" d="M363.29999,248.86667C362.58401,251.03467 362.43939,251.93083 362.07867,252.84517C361.8197,253.50159 361.14655,254.45401 361.3045,254.51401C362.02374,254.78722 362.63531,253.70692 363.55066,253.44133C364.29633,253.22496 365.32596,252.91068 366.09732,252.868C366.93472,252.82167 367.95267,252.86667 368.64734,252.86667C369.664,252.86667 370.60449,252.86667 371.46667,252.86667C372.27917,252.86667 373.24933,252.86667 374.172,252.86667C374.90268,252.86667 375.89099,252.86659 376.72934,252.86667C377.74301,252.86676 378.53992,252.82277 379.49966,253.088C380.27869,253.30328 381.07278,253.86362 381.75732,254.29201C382.57651,254.80466 383.30435,254.83324 384.29468,254.86217C385.15665,254.88734 386.13379,254.68364 386.936,254.93866C387.87112,255.23593 388.12119,256.07391 389.05734,256.62366C389.78931,257.0535 390.70901,256.86667 391.70001,256.86667C392.5,256.86667 393.5,256.86667 394.29999,256.86667C395.29999,256.86667 396.19608,257.30795 396.96667,256.86667C397.53818,256.5394 397.29999,255.43466 397.29999,254.50951C397.29999,253.66533 397.29999,252.7 397.29999,251.86667C397.29999,250.88817 397.29999,250.17117 397.29999,249.23067C397.29999,248.384 397.29999,247.436 397.29999,246.50951C397.29999,245.668 397.29999,244.75684 397.29999,243.99466C397.29999,242.86667 397.29999,242.06667 397.29999,241.26666C397.29999,240.26666 397.29999,239.46666 397.29999,238.46666C397.29999,237.66667 397.29999,236.66667 397.29999,235.86667C397.29999,234.86667 397.29999,234.06667 397.29999,233.26666C397.29999,232.27567 397.29999,231.43733 397.29999,230.53334L397.29999,229.71733" id="svg_7" stroke-width="3" stroke="#000" fill="none"/>
  <path t="32008,32115,32149,32186,32233,32272,32288,32356,32356,32384,32384,32400,32401,32418,32418,32545,32545,32683" d="M361.29999,256.86667C361.29999,257.86667 361.29999,258.784 361.29999,259.57199C361.29999,260.53333 361.29999,261.38751 361.29999,262.25601C361.29999,263.20001 361.40881,264.19519 360.73065,264.69867C360.06516,265.19275 359.13547,265.40375 358.71066,266.08801C358.12857,267.02567 357.82083,267.84583 357.46667,268.70001L357.31067,269.45599L357.29999,270.43066" id="svg_8" stroke-width="3" stroke="#000" fill="none"/>
  <path t="33761,33838,33870,33889,33889,33905,33906,33923,33923,33939,33939,33962,34041,34062,34089,34089,34123,34140,34172,34172,34218,34218,34241,34257,34257,34273,34274,34290,34307,34466,34473,34474,34490,34507,34507,34513,34513" d="M393.29999,250.86667C393.29999,253.30267 393.29999,254.27733 393.29999,255.188C393.29999,255.86667 393.54654,256.93896 393.12933,257.66534C392.67368,258.45865 391.67877,258.67441 391.37201,259.69199C391.17166,260.3566 391.66827,261.54532 391.27917,262.34583C390.92426,263.07599 389.99619,263.42517 389.72534,264.01599C389.26584,265.01837 389.63416,266.09998 388.96667,266.70001C388.45163,267.16299 387.39627,267.42426 387.30899,268.21851C387.21167,269.10428 387.06174,269.95483 386.59549,270.62384C385.98203,271.50412 385.54013,272.18295 385.35718,273.1095C385.1908,273.95212 385.27866,274.888 384.73199,275.43466C384.15067,276.01599 383.40982,276.76132 383.01468,277.43735L382.59549,278.27567L382.19983,279.0665L381.77917,279.84583" id="svg_9" stroke-width="3" stroke="#000" fill="none"/>
  <path t="35964,36026,36046,36046,36080,36080,36110,36219,36219,36230,36246,36246,36320,36331,36347,36347,36348,36363,36364,36364,36382,36382,36382,36382,36399,36399,36399,36399,36413,36474,36475,36490,36498,36515,36533,36533,36533,36548,36548,36565,36565,36583,36598,36616,36616,36616,36632,36632,36649,36649,36709,36716,36749,36749,36766,36766,36783,36799,36816,36833,36833,36833,36833,36850,36850,36850,36850,36850,36850,36866,36866,36866,36866,36866,36866,36866" d="M353.29999,274.86667C355.05716,274.86667 356.00739,275.16525 356.73065,274.86667C357.47488,274.55942 357.41202,273.61499 357.94733,272.87567C358.34433,272.32736 358.224,271.19077 358.94666,270.888C359.87061,270.50092 360.73065,270.86145 361.73599,270.86667C362.60452,270.87119 363.49844,271.16336 364.12534,271.73868C364.67709,272.24506 365.26837,273.07391 365.68533,273.66666C366.25522,274.47681 366.81595,275.10236 367.58267,275.65601C368.13882,276.05759 368.76849,276.42752 369.82101,276.845C370.88632,277.26755 371.59869,277.43689 372.24533,277.57999C373.42209,277.84039 374.40018,277.86667 375.18533,277.86667C376.11465,277.86667 377.05716,277.86667 377.86249,277.86667C378.84268,277.86667 379.55066,277.86667 380.29468,277.86667C381.49466,277.86667 382.26801,277.86667 383.06668,277.86667C384.01334,277.86667 385.04532,277.86667 385.86249,277.86667C386.84283,277.86667 387.56134,277.86667 388.35184,277.86667C389.37851,277.86667 390.27917,277.86667 391.29999,277.86667C392.07867,277.86667 392.86182,277.97934 393.29999,278.51401C393.7261,279.03397 394.754,278.8887 395.49966,279.30933C396.31958,279.77185 396.90546,280.56702 397.3045,281.21933C397.70929,281.88104 398.80222,282.02347 399.35599,282.15332C400.36685,282.39038 401.12183,282.60471 402.29999,283.03333C402.70352,283.18015 403.51251,283.52609 404.36249,283.88751C405.27048,284.27359 405.74963,284.48508 406.79999,284.86667C407.94534,285.28278 408.55801,285.45767 409.17599,285.64532L409.79999,285.82501L411.04199,286.15234L411.64801,286.29599" id="svg_10" stroke-width="3" stroke="#000" fill="none"/>
  <path t="38555,38655,38655,38655,38668,38686,38686,38686,38705,38705,38739,38739,39039,39056,39056,39102,39102,39123,39123,39140,39158,39191,39191,39234,39359,39444,39459,39479,39492,39492,39575,39724,39742,39743,39759,39759,39776,39799,39799,39800,39810,39810,39826,39826,39846,39860,39877,39932,39933,39972,39972,40057,40076,40094,40111,40111,40127,40127,40144,40145,40161,40161,40179,40194,40194,40212,40212,40283,40283,40320" d="M313.29999,192.86667C312.79999,193.7 312.01379,193.84348 311.30084,193.86217C310.27231,193.88914 309.48395,194.3705 309.30399,195.14267C309.14792,195.81232 308.46432,196.68774 307.77917,196.80417C306.64786,196.99641 305.86249,196.86667 305.04401,196.86667C304.01334,196.86667 303.30084,196.86667 302.26935,196.86667C301.41733,196.86667 300.47467,196.86667 299.784,196.86667C298.71066,196.86667 297.82083,196.86667 296.85718,196.86667C296.11465,196.86667 295.18533,196.86404 294.20016,196.86667C293.35718,196.86893 293.29999,197.668 293.29999,198.50267C293.29999,199.51933 293.04739,200.24623 293.29999,201.22C293.4845,201.93127 294.44843,201.48451 295.18533,201.15067C295.91418,200.82047 296.81601,200.86734 297.82083,200.86667C298.84283,200.866 299.56134,200.86667 300.35184,200.86667C301.37851,200.86667 302.27917,200.86667 303.29999,200.86667C304.07867,200.86667 304.96667,200.86667 305.82083,200.86667C306.71066,200.86667 307.66922,201.08 308.43866,200.79466C309.23593,200.49901 309.23959,199.38712 309.72534,198.856C310.24396,198.28896 310.57794,197.41739 311.46667,197.03334C312.23212,196.70258 312.94296,196.36478 313.35068,195.71733C313.88068,194.87567 314.73489,194.90799 315.69733,194.58133C316.45471,194.32426 317.03265,193.35686 317.74301,192.98817C318.4408,192.62602 319.49966,192.86633 320.25833,192.825L321.12933,192.29866L321.29099,191.57201L321.65268,190.86217" id="svg_11" stroke-width="3" stroke="#000" fill="none"/>
  <path t="41647,42033,42063,42083,42083,42101,42117,42134,42151,42151,42151,42167,42167,42167,42290,42305,42322,42352,42352,42368,42368,42368,42384,42402,42419,42420,42420,42435,42502,42503,42519,42519,42519,42536,42552,42633,42652,42652,42670,42686,42757,42757,42788,42802,42803,42803,42820,42820,42836,42853,42881,42881,42904,42904,42926,42970,42970,42971,42988,43005,43034,43034,43075,43075,43121,43137,43137,43138,43283,43360,43360,43438,43638,43639,43655,43739,43810,43840,43840,43873,43873,43951,44020,44041,44060,44093,44109,44109,44124,44125,44198,44198,44258,44290,44384,44393,44393,44409,44409,44425,44442,44459,44476,44476,44493,44493,44516,44527,44543,44560,44560,44578,44594,44594,44610,44610,44610,44627,44664,44665,44677,44678,44694,44694,44694,44710,44727,44744,44761,44761,44776,44776,44810,44827,44827,44888,44889,44950,44950,44982,45029,45050,45050,45111,45144,45162,45162,45178,45178,45195,45211,45212,45228,45244,45262,45263,45263,45284,45299,45312,45312,45338,45338,45379,45448,45448,45462,45463,45556,45646,45663,45680,45697,45714,45812,45812,45831,45848,45848,45911,45911,45998,46060,46160,46206,46230,46230,46248,46265,46380,46400" d="M135.3,144.86667C135.3,142.27733 135.3,141.34584 135.3,140.54533C135.3,139.692 135.3,138.752 135.3,137.76683C135.3,136.90584 135.3,135.981 135.3,135.144C135.3,134.496 135.3,133.2 135.3,132.39C135.3,131.59 135.42116,130.63675 135.29984,129.76683C135.18802,128.96509 134.17616,128.96681 133.48567,128.75233C132.47713,128.43906 131.80858,127.85176 131.30533,127.572C130.28844,127.00671 129.30341,126.85785 128.44667,126.58266C127.7787,126.36811 127.07003,126.13545 125.98267,125.90266C124.9696,125.68578 124.27956,125.29787 123.3,125.03333C122.53407,124.82649 121.64905,124.80228 121.34167,123.86667C121.05135,122.983 120.43867,122.86667 119.46667,122.86667C118.71066,122.86667 117.74874,122.81939 117.23867,122.256C116.60566,121.55682 115.98138,121.08536 114.91467,120.90266C113.9796,120.74252 113.2819,120.94572 112.55067,120.79467C111.40678,120.55839 111.02737,119.65766 110.20016,119.10966C109.51987,118.659 108.58566,118.86799 107.891,118.86667C106.70899,118.86442 106.07332,118.73081 105.309,118.21933C104.67736,117.79664 104.00147,117.94836 103.06667,117.78133C102.09721,117.60812 101.38425,116.90938 100.44666,116.86667C99.77986,116.8363 98.62926,116.94576 97.8625,116.86667C97.03081,116.78088 96.24377,116.15134 95.54,115.71733C95.07075,115.42795 93.98457,114.90269 92.96667,114.86667C92.15118,114.83781 91.01631,114.54771 90.46667,115.2C89.9265,115.84104 89.62959,116.56099 89.3,117.152C88.85516,117.94968 88.82903,118.61495 88.00533,118.86217C87.25628,119.08698 87.59506,120.30585 86.87466,120.79467C86.16154,121.27855 85.31801,121.3021 85.3,122.16217C85.28177,123.03348 85.3,123.92917 85.3,124.62666C85.3,125.7235 85.3,126.57867 85.3,127.572C85.3,128.29866 85.1362,129.31842 85.3,130.16217C85.44534,130.91075 86.26531,131.22862 86.82083,131.86667C87.43033,132.56671 88.54881,132.22246 89.228,132.888C89.82257,133.47063 89.29481,134.73065 90.01434,134.87567C90.70309,135.0145 91.72015,135.40654 92.25833,135.86667C93.09483,136.58185 93.82714,136.77101 94.71066,136.87733C95.63857,136.989 96.36262,137.28963 97.05733,137.96651C97.72532,138.61734 98.3948,138.75653 99.3,139.2C100.14486,139.61389 100.53941,140.25212 101.19466,141.105C101.7082,141.77341 102.52232,141.82172 103.49966,141.86717C104.26004,141.90254 105.09564,142.52055 105.23867,143.14267C105.4367,144.004 105.71752,145.01506 106.384,145.58267C106.96008,146.07329 108.0462,146.10272 108.59016,146.62833C109.35816,147.37041 109.06169,148.41792 109.58533,149.15067C110.10943,149.88403 111.075,149.87083 111.94817,150.21933C112.74944,150.53914 113.41309,151.23135 113.82083,151.86667C114.33566,152.66885 114.98239,153.33073 115.74267,153.74516C116.49776,154.15677 117.47066,153.86667 118.34167,153.86667C119.3,153.86667 120.08933,153.86667 121.13333,153.86667C121.88934,153.86667 122.82143,153.8992 123.78267,153.86534C124.59159,153.83684 125.16663,153.13898 125.98267,152.87733C126.80151,152.61479 127.61983,153.09685 128.44667,152.696C129.35452,152.25587 129.27025,150.98982 130.01433,150.86667C130.69968,150.75323 131.69733,150.86726 132.58566,150.86667C133.58533,150.866 134.3521,150.55994 135.05716,150.21933C135.90372,149.81038 137.00101,149.91875 137.3,148.98817C137.55293,148.20097 137.3644,147.27673 137.8,146.84584C138.40028,146.25204 138.3,145.30267 138.3,144.42383C138.3,143.68134 138.12677,142.55791 138.52133,141.76683C138.87355,141.06067 139.3,140.29866 139.3,139.43466C139.3,138.50951 139.3,137.57117 139.3,136.69733C139.3,135.84584 139.32773,134.8877 139.3,134.06799C139.27139,133.22238 138.584,132.69733 138.3,131.86667L137.94733,130.981" id="svg_12" stroke-width="3" stroke="#000" fill="none"/>
  <path t="48511,48603,48628,48628,48628,48628,48628,48653,48653,48653,48653,48653,48653,48653,48653,48674,48674,48674,48674,48674,48674,48674,48674,48674,48690,48691,48691,48691,48691,48691,48691,48691,48691,48708,48708,48708,48708,48708,48708,48708,48708,48708,48723,48724,48724,48724,48724,48724,48724,48724,48724,48741,48741,48741,48741,48741,48758,48758,48758,48758,48758,48758,48758,48758,48758,48774,48774,48774,48774,48774,48774,48775,48775,48791,48791,48791,48791,48791,48807,48807,48808,48824,48825,48825,48825,48841,48841,48841,48841,48842,48842,48842,48857,48858,48858,48858,48858,48858,48875,48875,48875,48875,48875,48876,48876,48892,48892,48892,48892,48892,48892,48908,48908,48908,48909,48924,48925,48925,48925,48925,48925,48942,48942,48942,48942,48943,48943,48943,48959,48960,48960,48960,48960,48960,48960,48961,48975,48975,48975,48976,48976,48976,48976,48976,48976,48992,48992,48992,48992,48993,48993,48993,48993,49008,49008,49009,49009,49009,49009,49010,49010,49010,49026,49026,49027,49027,49027,49027,49042,49042,49043,49043,49043,49044,49044,49058,49059,49059,49059,49059,49060,49060,49060,49060,49076,49076,49076,49076,49077,49077,49077,49077,49077,49091,49092,49092,49092,49092,49093,49093,49093,49093,49109,49109,49109,49110,49110,49110,49110,49111,49111,49126,49126,49126,49127,49127,49127,49128,49128,49128,49142,49143,49143,49144,49144,49144,49144,49145,49145,49159,49159,49160,49160,49160,49160,49161,49161,49175,49176" d="M13.3,52.86667C17.40133,52.86667 18.18714,52.85838 19.108,52.87733C19.95886,52.89486 20.46127,52.91902 21.01733,52.952C23.03078,53.07141 23.81799,53.15102 24.661,53.24183C25.55942,53.33861 26.50983,53.46118 27.508,53.62133C28.55734,53.7897 29.65835,53.97096 31.96667,54.53333C33.19078,54.83156 34.43954,55.19834 35.71967,55.57283C37.02356,55.95428 38.33967,56.35283 39.67067,56.72933C41.0017,57.10584 42.32177,57.5064 44.96667,58.03333C46.2496,58.28893 47.51301,58.45523 48.73617,58.58083C49.90926,58.70129 51.02878,58.77132 52.08267,58.81334C53.06187,58.85237 53.95866,58.86333 55.46667,58.86667C56.06384,58.86799 56.564,58.86667 56.98017,58.86667C57.32533,58.86667 57.6125,58.86667 57.85467,58.86667C58.06483,58.86667 58.256,58.86667 58.63334,58.86667C58.84317,58.86667 59.072,58.86667 59.31883,58.86667C59.58267,58.86667 59.8625,58.86667 60.15733,58.86667C60.46617,58.86667 60.788,58.86667 61.46667,58.86667C62.19067,58.86667 62.97867,58.86667 63.40417,58.86667C64.33317,58.86667 65.96667,58.86667 66.586,58.86667C67.24133,58.86667 67.92867,58.86667 68.644,58.86667C69.38333,58.86667 70.14267,58.86667 70.918,58.86667C71.70533,58.86667 73.3,58.86667 74.09933,58.86667C74.89467,58.86667 75.682,58.86667 76.45734,58.86667C77.956,58.86667 78.67133,58.86667 79.35867,58.86667C80.63333,58.86667 81.75478,58.86334 82.25784,58.87567C83.1545,58.89764 83.98392,58.79195 85.036,59.30933C85.88462,59.72667 86.31445,60.41127 87.36,60.69733C88.02412,60.87904 88.84023,60.8782 89.76,60.94933C90.80029,61.02979 91.95364,61.14949 92.5625,61.22383C93.18699,61.30009 93.82166,61.38186 95.09917,61.57117C95.73375,61.6652 96.96683,61.86575 98.132,62.06533C98.69474,62.16172 99.24796,62.26488 100.35067,62.43067C100.90468,62.51396 102.63299,62.70491 103.2425,62.74517C103.86636,62.78637 104.50063,62.81742 105.77917,62.84583C106.41325,62.85992 107.03749,62.86442 108.8,62.86667C109.3355,62.86735 110.3285,62.86667 111.2375,62.86667C111.668,62.86667 112.496,62.86667 113.70016,62.86667C114.5045,62.86667 115.32083,62.86667 116.15717,62.86667C117.46667,62.86667 118.388,62.86667 118.86617,62.86667C119.8625,62.86667 120.38267,62.86667 121.472,62.86667C122.63333,62.86667 123.86808,62.86628 124.50533,62.88017C125.15078,62.89423 125.80119,62.9146 126.44933,62.97467C127.735,63.09382 128.97246,63.3471 129.55817,63.53117C130.73004,63.89943 131.30344,64.17287 131.90416,64.42917C132.53146,64.6968 133.187,64.99047 133.89467,65.27067C135.45778,65.88957 136.34653,66.1741 137.28534,66.46267C138.25719,66.7614 139.25446,67.04049 140.25833,67.30417C141.24918,67.56442 142.21513,67.80332 143.14133,68.01067C144.7968,68.38127 145.50676,68.50778 146.14133,68.61333C146.71622,68.70896 147.25043,68.78186 147.75833,68.84583C148.25577,68.90849 149.28694,69.02235 150.46666,69.2C151.1505,69.30297 151.88954,69.43347 152.67317,69.572C153.48824,69.71608 154.3206,69.86793 155.15866,70.016C155.98828,70.16257 156.79494,70.31458 158.3,70.53333C158.97034,70.63076 159.589,70.71709 160.70534,70.79467C161.70686,70.86428 162.18732,70.86217 163.63333,70.86667C164.14366,70.86826 165.23233,70.86667 165.81467,70.86667C166.425,70.86667 167.73767,70.86667 168.444,70.86667C169.96666,70.86667 170.786,70.86511 171.64133,70.86933C172.52869,70.87371 173.44411,70.88332 174.38333,70.90833C175.3428,70.93388 176.31876,70.96897 177.30533,71.03733C179.30183,71.17567 180.30106,71.30371 181.30267,71.43467C182.30975,71.56635 183.32123,71.71805 184.34166,71.86667C185.37189,72.01672 186.41293,72.17254 187.47067,72.29867C189.63072,72.55624 190.74135,72.63169 191.86133,72.696C192.98241,72.76037 194.09721,72.79942 195.19583,72.825C196.26924,72.84998 197.30882,72.86011 198.30533,72.864C200.13332,72.87114 200.94949,72.86667 201.70267,72.86667C202.39983,72.86667 203.048,72.86667 203.65416,72.86667C204.22533,72.86667 204.76849,72.86667 205.29066,72.86667C206.3,72.86667 206.80034,72.86667 207.30267,72.86667C207.80901,72.86667 208.32133,72.86667 208.84166,72.86667C209.37199,72.86667 209.91434,72.86667 210.47067,72.86667C211.63333,72.86667 212.243,72.86667 212.87067,72.86667C213.51433,72.86667 214.172,72.86667 214.84166,72.86667C215.52133,72.86667 216.209,72.86667 216.90266,72.86667C218.3,72.86667 218.99899,72.86667 219.692,72.86667C220.373,72.86667 221.036,72.86667 221.675,72.86667C222.85699,72.86667 223.388,72.86667 224.67101,72.86667L225.675,72.86667" id="svg_13" stroke-width="3" stroke="#000" fill="none"/>
  <path t="49589,49676,49694,49694,49694,49711,49711,49711,49728,49728,49728,49744,49744,49744,49745,49745,49745,49745,49745,49745,49761,49761,49761,49761,49761,49761,49761,49761,49762,49778,49778,49778,49778,49778,49778,49778,49794,49795,49795,49795,49795,49795,49795,49810,49810,49811,49811,49811,49811,49811,49829,49829,49829,49829,49829,49845,49845,49845,49845,49845,49861,49861,49862,49862,49862,49862,49862,49878,49878,49878,49878,49878,49878,49894,49895,49895,49895,49895,49895,49912,49912,49912,49912,49912,49912,49912,49928,49928,49928,49928,49929,49929,49945,49945,49946,49946,49946,49961,49961,49962,49962,49962,49962,49962,49962,49962,49978,49979,49979,49979,49979,49979,49979,49980,49980,49994,49995,49995,49995,49995,49995,49995,49995,50011,50011,50011,50011,50012,50012,50012,50012,50012,50028,50028,50029,50029,50029,50029,50029,50029,50030,50046,50046,50046,50046,50046,50046,50047,50047,50047,50062,50062,50062,50062,50063,50063,50063,50063,50064,50078,50079,50079,50079,50079,50079,50079,50080,50080,50095,50095,50096,50096,50096,50128,50129,50129,50129,50130,50130,50130,50130,50130,50162,50162,50162,50163,50163,50163,50163,50163,50164,50196,50196,50196,50196,50197,50197,50197,50197,50198,50229,50230,50230,50230,50230,50230,50231,50231,50231,50262,50263,50263,50263,50263,50264,50264,50264,50264,50296,50297,50297,50297,50297,50297,50298,50298,50298" d="M259.29999,66.86667C261.75732,66.86667 262.63333,66.86667 263.56134,66.86667C264.35184,66.86667 265.37851,66.86667 266.064,66.86667C266.89868,66.86667 267.94501,66.86667 268.50833,66.86667C269.27167,66.86667 270.96667,66.86667 271.71384,66.86667C272.54401,66.86667 273.44016,66.86667 274.38535,66.86667C275.36249,66.86667 276.35468,66.86667 277.34485,66.86667C278.31601,66.86667 280.13333,66.86667 280.94983,66.86667C281.70532,66.86667 282.40884,66.86667 283.06934,66.86667C283.69583,66.86667 284.29733,66.86667 284.88284,66.86667C285.46133,66.86667 286.63333,66.86667 287.24283,66.86667C288.50983,66.86667 289.16135,66.86667 289.82083,66.86667C290.48532,66.86667 291.15182,66.86667 293.13333,66.86667C293.7785,66.86667 294.41467,66.86667 295.04285,66.86667C296.27917,66.86667 296.88934,66.86667 297.49551,66.86667C299.29999,66.86667 299.89966,66.86667 300.49734,66.86667C301.67868,66.86667 302.25833,66.86667 303.38568,66.86667C303.92932,66.86667 305.457,66.86667 305.92932,66.86667C306.828,66.86667 307.67868,66.86667 308.49734,66.86667C309.70065,66.86667 310.51801,66.86667 311.38333,66.86667C312.32867,66.86667 312.84134,66.86667 313.96667,66.86667C315.23599,66.86667 315.91068,66.86667 316.60132,66.86667C317.29999,66.86667 317.99866,66.86667 318.68933,66.86667C320.63333,66.86667 321.21417,66.86667 322.27585,66.86667C322.76666,66.86667 323.69333,66.86656 324.57999,66.86667C325.92184,66.86684 326.3884,66.85474 327.35733,66.888C328.3833,66.92323 328.92044,66.9669 329.47198,67.03733C331.24905,67.26424 331.86899,67.43166 332.50534,67.5765C333.15167,67.7236 334.44946,68.05149 335.09467,68.2185C335.73212,68.3835 336.96469,68.70834 338.12799,68.98C338.68024,69.10897 339.73645,69.33064 340.24268,69.42C341.21017,69.5908 342.5788,69.75261 343.02133,69.78C343.9165,69.8354 344.8696,69.82783 345.38135,69.805C347.13474,69.72679 347.80762,69.64809 348.52533,69.58C349.28165,69.50826 350.06976,69.42368 350.88333,69.325C351.7178,69.22378 352.56644,69.11232 353.42133,68.98C355.13565,68.71465 355.97919,68.55021 356.81201,68.38133C357.63486,68.21448 358.44363,68.03476 359.23749,67.84583C360.01831,67.66001 360.78241,67.46688 361.52802,67.26534C362.96918,66.87577 363.65729,66.66678 364.332,66.46934C364.9946,66.27544 365.64804,66.08333 366.29999,65.90833C366.94943,65.73401 368.26291,65.40589 369.63333,65.2C370.34073,65.09371 371.07007,65.02975 371.81433,64.99C372.5715,64.94956 373.34186,64.94016 374.12134,64.96C374.9093,64.98006 375.70581,65.01128 377.29999,65.2C378.10184,65.29492 378.90067,65.43079 379.70001,65.572C380.5007,65.71345 381.29962,65.8686 382.10001,66.016C382.89963,66.16326 383.69632,66.32529 385.29999,66.53333C386.09872,66.63696 386.90222,66.70313 387.70901,66.75233C388.52094,66.80185 389.34158,66.82909 390.172,66.84534C391.01428,66.86182 391.87067,66.86533 393.63333,66.86667C394.54233,66.86736 395.46533,66.86667 396.39633,66.86667C397.32935,66.86667 398.25833,66.86667 399.17734,66.86667C400.08032,66.86667 400.96133,66.86667 402.63333,66.86667C403.41367,66.86667 404.15601,66.86667 404.86234,66.86667C405.53467,66.86667 406.17499,66.86667 406.78534,66.86667C407.36768,66.86667 407.92401,66.86667 409.45767,66.86667C409.93466,66.86667 410.87067,66.86667 411.82266,66.86667C412.31967,66.86667 413.96667,66.86667 414.58667,66.86667C415.24667,66.86667 415.94666,66.86667 416.68668,66.86667C417.46667,66.86667 418.28665,66.86667 419.14667,66.86667C420.04666,66.86667 421.96667,66.86763 422.98532,66.86633C424.03601,66.86499 425.11072,66.8616 426.20132,66.84534C427.30005,66.82896 428.39899,66.80207 429.48932,66.75233C430.56436,66.70329 432.63464,66.54445 433.61432,66.42367C434.56271,66.30674 435.48166,66.15962 436.37732,65.99467C437.25967,65.83216 438.12991,65.64798 438.99634,65.45766C439.86591,65.26665 441.63263,64.86348 442.54367,64.667C443.47531,64.46607 444.43115,64.26939 445.41467,64.088C446.42383,63.90188 447.46405,63.72963 448.53766,63.581C449.64276,63.42802 451.96597,63.18984 453.18701,63.10967C454.4487,63.02683 455.75549,62.97448 457.108,62.93867C458.50818,62.90159 459.95865,62.88489 461.461,62.87567C463.0173,62.86611 466.29999,62.86667 468.026,62.86667C469.78799,62.86667 471.56201,62.86667 473.32401,62.86667C475.04999,62.86667 476.716,62.86667 478.298,62.86667L479.772,62.86667" id="svg_14" stroke-width="3" stroke="#000" fill="none"/>
  <path t="52613,52776,52800,52800,52822,52838,52838,52855,52855,52930,52954,52954,52992,52992,53022,53057,53057,53072,53072,53089,53140,53157,53172,53173,53173,53190,53239,53240,53256,53256,53273,53290,53318,53318,53319,53340,53358,53375,53375,53390,53390,53442,53458,53473,53473,53537,53537" d="M346.29999,124.86667C347.18668,124.952 348.14658,125.26506 348.81601,125.668C349.56903,126.12125 350.43427,126.66507 351.05716,126.9765C352.01572,127.45576 352.24689,128.28818 353.19467,128.75233C353.93793,129.11633 354.90268,128.86667 355.89099,128.86667C356.58566,128.86667 357.0177,129.44554 357.58801,129.868C358.14175,130.27818 359.3027,130.21342 360.01334,130.44133C361.04678,130.77277 361.93146,130.70557 362.71066,130.888C363.68765,131.11674 364.08081,131.77478 364.81601,132.29866C365.62048,132.8719 366.4827,133.1777 367.18533,133.668C367.93381,134.19028 368.61429,134.64392 369.664,134.83067C370.48929,134.97749 371.49048,135.1714 371.94818,135.57651C372.62805,136.17825 372.99985,137.27669 373.65717,137.814C374.3616,138.38982 375.05826,138.62721 375.78265,139.34933C376.27994,139.84508 377.05716,140.62384 377.65717,141.22383C378.29999,141.86665 378.936,142.43066 379.78265,142.78133L380.59018,142.86217" id="svg_15" stroke-width="3" stroke="#000" fill="none"/>
  <path t="55118,55192,55193,55193,55211,55212,55212,55212,55212,55227,55227,55227,55227,55227,55227,55228,55228,55251,55252,55252,55252,55252,55252,55264,55264,55264,55280,55280,55280,55280,55280,55280,55297,55297,55314,55314,55332,55332,55347,55347,55364,55382,55382,55382,55397,55413,55414,55414,55430,55430,55447,55464,55464,55481,55482,55482,55482,55498,55498,55498,55498,55514,55515,55515,55531,55531,55548,55564,55564,55581,55581,55597,55615,55615,55615,55615,55631,55631,55648,55649,55649,55665,55682,55682,55698,55699,55699,55715,55715,55732,55732,55749,55749,55749,55765,55765,55782,55782,55800,55816,55833,55833,55833,55849,55849,55866,55866,55866,55882,55883,55883,55899,55915,55916,55916,55933,55933,55933,55949,55950,55950,55965,55966,55966,55983,55983,55983,56000,56000,56001,56017,56017,56018,56018,56038,56039,56039,56039,56040,56040,56058,56058,56059,56059,56059,56059,56059,56060,56060,56077,56078,56078,56079,56079,56079,56079,56080,56080,56098,56099,56099,56100,56100,56100,56100,56101,56101,56122,56122,56122,56123,56123,56142,56142,56143,56221,56221,56251,56259,56260" d="M321.29999,220.86667C316.78534,221.43466 316.14209,221.73045 315.51068,222.01601C314.31107,222.55852 313.69162,222.69958 312.67499,222.90834C312.28384,222.98866 311.38083,223.18246 310.29999,223.53334C309.66736,223.73871 308.99316,223.99886 307.53732,224.56799C306.77838,224.86469 306.01761,225.16957 305.25882,225.45599C304.52023,225.7348 303.13617,226.21016 302.508,226.381C301.93314,226.53734 300.9108,226.73744 300.06134,226.896C299.36163,227.0266 298.35892,227.45116 297.73749,227.8875C297.00446,228.40219 295.87497,228.85593 295.396,228.98134C294.35388,229.25421 293.79977,229.34483 292.716,229.56216C292.20392,229.66486 290.91492,229.92958 290.10535,230.256C289.11426,230.65561 288.47177,230.78227 287.46667,230.86667C286.60001,230.93944 286.06848,231.61288 285.58533,232.29866C285.02908,233.0882 284.164,233.43466 283.59866,233.71733C282.71066,234.16133 281.73303,234.5556 280.96667,235.2C280.39514,235.68056 279.94818,236.21851 279.18533,236.98134C278.60449,237.56216 277.80786,238.22569 277.46667,239.03334C277.13034,239.82948 276.64969,240.72917 276.16135,240.98399C275.28448,241.44156 274.55069,241.60008 273.63333,242.2C273.03845,242.58902 272.34079,243.37198 271.96616,243.9185C271.28073,244.9184 270.92914,245.62712 270.50134,246.46533C270.09476,247.26202 269.61115,247.99355 269.38535,248.98134C269.18713,249.8484 269.29999,250.62384 269.29999,251.51933C269.29999,252.38266 269.32358,253.41397 268.96667,254.2C268.64658,254.90494 268.10977,255.64897 267.78265,256.18399C267.17624,257.17581 266.8139,257.84232 266.29999,258.86667C265.90533,259.65335 265.68811,260.42126 265.31467,261.23065C264.95157,262.01767 264.03653,262.42151 263.3215,263.18817C262.88303,263.65833 262.48691,264.46094 262.10132,265.26666C261.72168,266.05997 261.37964,267.06253 261.32083,267.86667C261.24786,268.86423 261.29999,269.66666 261.29999,270.46667C261.29999,271.46667 261.29999,272.26666 261.29999,273.26401C261.29999,273.99466 261.29999,275.03467 261.29999,275.90833C261.29999,276.86667 261.23831,277.67676 261.38535,278.46667C261.57462,279.48355 261.8923,280.13815 262.84268,280.84549C263.49759,281.33292 264.15283,281.40582 264.96667,282.20001C265.56982,282.7886 265.63,283.68454 266.21866,284.61334C266.6608,285.31094 267.59866,285.71143 268.02399,286.08801C268.84705,286.81674 269.14984,287.68961 269.46667,288.46667C269.80505,289.29654 270.33218,289.8757 270.90268,290.46667C271.68713,291.2793 272.29999,291.86667 272.89999,292.46667C273.5,293.06668 274.09988,293.66678 274.70001,294.26666C275.50018,295.0665 276.07501,295.71564 276.81433,296.15234C277.59207,296.61172 278.61392,296.76401 279.34167,296.86667C280.10861,296.97485 281.30569,297.18137 282.11066,297.43866C282.53928,297.57565 283.46609,297.93076 283.98801,298.12399C284.5567,298.33456 286.63184,299.0383 287.47134,299.28818C288.37573,299.55737 289.33896,299.8251 290.34534,300.10266C291.38297,300.38882 292.44186,300.67542 293.50732,300.97116C294.56985,301.26608 296.63498,301.86133 297.61334,302.1665C298.55496,302.46021 299.4549,302.75766 300.31332,303.056C301.13486,303.34152 301.91473,303.62698 302.65332,303.90952C303.35468,304.17783 304.63452,304.6972 305.21399,304.94516C305.7598,305.17871 306.27231,305.40738 306.75601,305.63068C307.21762,305.84378 307.65793,306.05484 308.082,306.26218C308.49521,306.4642 309.29959,306.86749 309.69968,307.06635C310.4902,307.45929 311.25,307.84421 311.98566,308.15234C312.95633,308.55893 313.78156,308.79144 314.47867,308.84534C315.49686,308.92404 316.42801,308.86667 317.29999,308.82501L317.87067,308.29868L318.52133,307.71735" id="svg_16" stroke-width="3" stroke="#000" fill="none"/>
  <path t="56878,56968,56968,56985,56985,56986,57002,57002,57002,57002,57002,57002,57019,57019,57036,57036,57053,57053,57053,57070,57070,57070,57086,57086,57086,57087,57103,57103,57104,57104,57119,57120,57120,57120,57120,57137,57137,57138,57154,57154,57154,57170,57170,57170,57187,57187,57187,57187,57203,57203,57203,57220,57220,57220,57237,57237,57237,57253,57253,57270,57270,57271,57271,57271,57288,57288,57288,57288,57288,57304,57304,57304,57304,57304,57304,57320,57320,57320,57320,57321,57338,57338,57339,57339,57339,57354,57354,57354,57355,57371,57388,57388,57388,57407,57408,57421,57421,57421,57422,57422,57438,57439,57439,57455,57455,57456,57471,57471,57471,57471,57488,57505,57505,57505,57521,57522,57522,57522,57538,57538,57538,57538,57556,57556,57556,57556,57557,57572,57572,57572,57572,57572,57589,57589,57589,57589,57605,57605,57606,57622,57623,57623,57623,57623,57623,57639,57639,57655,57656,57656,57672,57672,57672,57688,57688,57705,57706,57706,57722,57723,57723,57738,57739,57739,57739,57739,57756,57756,57756,57757,57757,57757,57772,57773,57773,57789,57806,57823,57823,57823,57994,57995" d="M438.29999,209.86667C440.13599,210.31334 440.72281,210.60364 441.70532,211.35201C442.15128,211.69168 442.9071,212.31046 443.96667,212.86667C444.37723,213.08218 445.30319,213.46304 446.25833,213.86667C446.72742,214.0649 447.71075,214.30777 448.57117,215.0665C449.32028,215.7271 449.33887,216.79846 449.86249,217.34584C450.50555,218.0181 451.32379,218.13248 452.04935,218.50267C452.99335,218.98433 453.62943,219.71922 454.10535,220.27116C454.81375,221.0927 455.33694,221.43886 456.01334,222.13867C456.47244,222.61368 457.05679,223.83405 457.23468,224.528C457.41977,225.25005 457.53598,226.04282 458.18549,227.04517C458.64752,227.75821 459.32333,228.34332 459.9465,228.96217C460.25055,229.26411 461.25229,230.46049 461.61334,231.04533C462.10861,231.8476 462.60779,232.56734 463.30084,233.06134C463.98969,233.55235 464.84555,234.17841 465.14651,234.87199C465.46097,235.59665 465.93176,236.58635 466.71066,237.06134C467.27734,237.40691 468.28397,237.72243 468.81433,238.4095C469.30621,239.04674 469.27908,239.96588 469.74301,240.94516C470.08923,241.67596 470.71268,242.25856 471.49966,243.06667C472.08139,243.66403 472.66449,244.22511 473.05768,245.06667C473.41702,245.83577 473.95425,246.88158 474.436,247.27066C474.98764,247.71619 475.66467,248.11392 476.164,248.72267C476.92517,249.65062 477.09805,250.53615 477.29999,251.42917C477.40591,251.89766 477.55057,252.90488 478.18549,254.3665C478.40814,254.87904 478.7041,255.36908 479.32083,256.34583C479.62918,256.83417 480.28195,257.76257 480.79999,258.70001C481.27731,259.56375 481.439,260.00439 481.77917,260.82501C482.10226,261.60443 482.61389,262.71274 483.06668,263.38266C483.52087,264.05466 484.06094,264.66302 484.44666,265.35068C485.00751,266.35056 485.17493,267.10522 485.26801,268.16934C485.32407,268.81018 485.29999,269.99966 485.29999,271.03333C485.29999,271.70267 485.40591,272.47546 485.28201,273.47568C485.16776,274.39816 484.65057,275.21313 484.164,275.83466C483.61761,276.53259 482.98956,277.20642 482.71066,277.56134C481.74362,278.79187 481.59344,279.38831 481.14651,280.25766C480.70905,281.10864 479.99896,281.66187 479.54001,282.10266C478.60294,283.00272 478.22156,283.52536 477.86249,284.34583C477.54172,285.07877 477.42673,286.26193 476.96667,287.03333C476.52661,287.77124 475.89212,288.27231 475.29999,288.86667C474.69662,289.47229 474.06445,290.10312 473.61465,290.552C472.61432,291.55035 472.06943,292.10034 471.45334,292.60535C470.82901,293.1171 469.78665,293.74234 469.04285,294.06134C468.28699,294.3855 467.87854,294.49164 467.09866,294.83466C465.88202,295.36981 465.10156,295.86737 464.32083,296.36667C463.93454,296.61371 463.20483,297.13309 462.12167,297.72385C461.47269,298.07782 460.5336,298.45557 459.98666,298.74933C458.95306,299.3045 458.25244,299.91037 457.67584,300.27118C456.65808,300.90805 455.76807,301.27081 455.29382,301.45767C454.3262,301.83896 453.84195,302.009 452.92133,302.29599C451.81277,302.64154 450.78226,302.77533 450.19968,303.53067C449.77762,304.07788 449.63791,305.03653 448.53201,305.61066C447.86002,305.95953 447.06799,305.86465 445.94,305.86667C445.24667,305.86789 444.24667,305.86667 443.61334,305.86667C442.60083,305.86667 441.633,305.84735 440.80533,305.87115C439.79373,305.90024 438.96277,306.01453 437.97665,306.22833C437.21338,306.39383 436.37561,306.62457 435.92667,306.75333C434.4541,307.1756 433.93481,307.34985 432.87067,307.68134C432.34177,307.8461 431.32169,308.16388 430.83865,308.29733C429.59109,308.64197 428.65671,308.82813 427.79068,308.86401C426.82166,308.90417 425.86966,308.83167 424.96667,309.03333C424.28616,309.1853 423.55066,309.44135 422.44318,309.74518L421.58801,309.86533" id="svg_17" stroke-width="3" stroke="#000" fill="none"/>
  <path t="58533,58608,58626,58626,58642,58658,58659,58675,58675,58675,58692,58692,58692,58709,58709,58709,58754,58755,58777,58777,58793,58793,58809,58809,58826,58826,58826,58843,58843,58843,58843,58843,58859,58859,58859,58859,58876,58893,58893,58910,58910,58910,58910,58926,58926,58926,58943,58960,58960,58976,58976,58993,59010,59034,59060,59060,59077,59093,59094,59110,59110,59110,59127,59127,59128,59144,59144,59145,59145,59160,59160,59178,59178,59178,59193,59194,59211,59211,59227,59227,59245,59262,59262,59262,59262,59414,59414,59423" d="M417.29999,230.86667C418.11884,230.86667 419.06668,230.86667 419.77917,230.86667C420.79999,230.86667 421.7598,230.76268 422.52133,230.93866C423.54095,231.17429 424.12347,231.70558 424.64282,232.27567C425.32635,233.02597 425.78537,233.8949 426.26935,234.46666C426.80536,235.0999 427.52679,235.68225 428.29468,236.15233C429.13297,236.66551 430.03494,236.93013 430.60449,237.57201C431.09769,238.12785 432.06384,238.54239 432.73065,239.03467C433.43414,239.55403 433.39508,240.51054 433.87201,241.26933C434.30069,241.95134 434.99655,242.63022 435.7215,243.50934C436.26361,244.16675 436.52734,244.52457 437.11066,245.216C437.69275,245.90599 438.58978,246.83456 439.18649,247.34784C439.72885,247.81438 440.57349,248.27536 441.133,249.1095C441.65747,249.89142 441.98593,250.53545 442.8425,251.40967C443.30261,251.87927 443.82269,252.37578 444.23749,252.97566C445.0224,254.11086 445.11276,254.75774 445.30399,255.55867C445.55737,256.62006 446.22952,257.30408 446.28934,258.08801C446.3638,259.06357 446.29999,259.82501 446.29999,260.88135C446.29999,261.668 446.32977,262.58191 446.29868,263.436C446.27014,264.21997 445.83502,265.20764 445.42099,265.96683C445.00424,266.73102 444.44669,267.35202 443.77917,267.88751C443.30087,268.27121 442.4425,269.06668 441.94,269.66666C441.4375,270.26666 440.54156,271.07474 439.9465,271.46667C439.32632,271.87515 438.33344,272.37051 437.78568,273.06668C437.21991,273.78574 437.00534,274.89294 436.59018,275.46216C436.15341,276.06097 435.32083,276.84448 434.71066,277.45599C434.10065,278.06732 433.48587,278.73111 433.336,279.69199C433.22943,280.37527 433.29584,281.45065 432.63333,282.20001C432.21024,282.67856 431.59866,283.10666 430.71066,283.80417L429.96667,284.36667L429.20367,284.85318L428.27917,284.86667" id="svg_18" stroke-width="3" stroke="#000" fill="none"/>
  <path t="60028,60163,60163,60179,60197,60214,60214,60231,60299,60299,60315,60332,60349,60366,60366,60366,60383,60383,60383,60399,60399,60399,60399,60415,60415,60431,60449,60465,60483,60483,60515,60516,60532,60532,60532,60550,60550,60566,60582,60582,60582,60582,60599,60599,60599,60599,60600,60617,60617,60617,60617,60618,60633,60633,60633,60634,60634,60649,60649,60649,60666,60666,60666,60682,60683,60683,60700,60700,60700,60716,60716,60716,60733,60733,60733,60750,60751,60767,60783,60784,60784,60800,60800,60840,60841,60856,60867,60867,60900,60900,60916,60917,60934,60934,60934,60951,60951,60951,60951,60967,60983,61001,61017,61017" d="M330.29999,238.86667C328.59018,238.86667 327.78265,238.86258 326.936,238.86667C326.00446,238.87117 325.59247,239.52632 325.19016,240.16133C324.66418,240.99152 323.46661,240.85782 322.71066,240.86667C321.82065,240.87709 321.56113,241.53369 321.23749,242.3875C320.88251,243.32401 320.00446,243.69171 319.54001,244.07733C318.61514,244.84526 318.12213,245.47978 317.64932,246.06667C316.98956,246.88564 316.29333,247.46501 315.79999,247.86667C315.06601,248.46422 314.23303,249.23753 313.86249,249.825C313.29486,250.72493 313.29999,251.57201 313.29999,252.53334C313.29999,253.43466 313.33047,254.16177 313.29999,255.2C313.27914,255.90926 312.99164,256.88336 312.44934,257.66666C312.02448,258.28036 311.60953,259.08746 311.28534,259.99466C311,260.79312 310.26291,261.51996 310.00449,262.29532C309.78949,262.9404 309.62253,263.6796 309.46667,264.86667C309.362,265.66394 309.328,266.46646 309.31067,267.26666C309.29333,268.06656 309.29999,269.267 309.29999,270.07565C309.29999,270.90833 309.29999,271.78101 309.29999,272.23734C309.29999,273.70901 309.29999,274.763 309.29999,275.29599C309.29999,276.34399 309.29999,276.84702 309.29999,278.20001C309.29999,278.92532 309.29999,279.78333 309.29999,280.86667C309.29999,281.67734 309.29999,282.552 309.29999,283.552C309.29999,284.38751 309.28589,284.97125 309.30032,286.16632C309.31094,287.0455 309.25192,287.93237 309.74301,288.724C310.20602,289.47034 310.94928,289.79092 311.69733,290.63467C312.10541,291.09497 312.67429,291.81931 313.13068,292.896C313.44614,293.6402 313.81787,294.48059 314.84283,294.74518C315.54343,294.92603 316.35184,294.86441 317.37851,294.86667C318.27917,294.86865 319.29999,294.86667 320.07867,294.86667C320.96667,294.86667 321.29984,294.29868 321.29999,293.43466C321.30017,292.42383 321.17801,291.54733 321.87067,290.75201C322.39963,290.14465 323.28296,289.82849 324.12134,289.47733C324.80194,289.19226 325.94107,288.974 326.59634,288.92383C327.25739,288.8732 328.53378,289.55338 329.29468,288.69601C329.84546,288.07541 329.65717,286.9765 330.40018,286.64484L331.05716,286.04782" id="svg_19" stroke-width="3" stroke="#000" fill="none"/>
  <path t="61662,61794,61819,61836,61853,61853,61853,61869,61869,61869,61887,61887,61903,61920,61920,61920,61937,61937,61937,61953,61953,61971,61987,62004,62004,62004,62020,62020" d="M341.29999,250.86667C341.29999,251.86667 341.30112,252.88133 341.29999,253.6855C341.29865,254.636 341.34442,255.40631 341.12933,256.18399C340.84314,257.21872 340.24197,257.80917 339.86801,258.46533C339.32571,259.41687 339.3045,260.20947 339.29999,261.25201C339.2959,262.20001 339.29999,262.8765 339.29999,263.91849C339.29999,264.94516 339.29999,265.63068 339.29999,266.46533C339.29999,267.46216 339.2951,268.2095 339.29999,269.23065C339.3045,270.1712 339.63333,271.03333 340.15067,271.70267L340.59467,272.27118L341.12933,273.26401L341.27866,273.99466" id="svg_20" stroke-width="3" stroke="#000" fill="none"/>
  <path t="62678,62772,62805,62805,62805,62823,62824,62824,62841,62857,62857,62874,62874,62891,62891,62891,62907,62908,62924,62940,62957,62957,62974,63128,63129,63145,63146" d="M417.29999,246.86667C417.29999,247.90834 417.27081,248.86758 417.31067,249.67734C417.35382,250.55412 417.578,251.55098 417.79999,252.34584C418.01031,253.09894 418.27139,254.05559 418.29999,255.03334C418.32434,255.86632 418.29999,256.84549 418.29999,257.52802C418.29999,258.63599 418.29999,259.38751 418.29999,260.18399C418.29999,261.17868 418.29999,261.98401 418.29999,262.97202C418.29999,263.88751 418.29999,264.84515 418.29999,265.56216C418.29999,266.50949 418.29868,267.43735 418.24283,268.27567L418.01599,269.26401L417.72534,269.99466" id="svg_21" stroke-width="3" stroke="#000" fill="none"/>
  <path t="64858,64976,64993,64993,64993,65010,65010,65010,65010,65010,65031,65031,65031,65031,65031,65031,65031,65031,65031,65047,65047,65048,65048,65048,65048,65048,65048,65048,65064,65064,65064,65064,65064,65064,65064,65064,65065,65082,65082,65082,65082,65082,65082,65082,65097,65098,65098,65098,65115,65115,65115,65115,65115,65115,65131,65131,65131,65131,65131,65131,65132,65132,65132,65148,65148,65148,65148,65148,65148,65148,65148,65148,65165,65165,65165,65165,65165,65165,65166,65166,65181,65182,65182,65214,65232,65248,65248,65248,65248,65265,65266,65266,65266,65266,65266,65266,65282,65282,65282,65282,65282,65282,65282,65283,65298,65298,65298,65298,65298,65299,65315,65315,65315,65315,65315,65331,65332,65332,65332,65332,65348,65349,65349,65349,65349,65365,65366,65366,65366,65366,65366,65382,65382,65382,65382,65382,65382,65383,65383,65398,65399,65399,65399,65399,65399,65399,65400,65400,65415,65416,65416,65416,65486,65486" d="M61.3,212.86667C62.11883,212.981 63.06647,213.4449 63.58267,213.71733C64.45714,214.17885 65.4586,214.57568 66.19067,214.69333C66.97269,214.819 67.85754,214.80322 68.84267,214.69333C69.971,214.56746 70.58752,214.42918 71.244,214.29333C71.93897,214.14952 72.66677,213.97897 73.425,213.78334C74.21621,213.57921 75.03493,213.35193 75.876,213.09334C77.63895,212.5513 78.5432,212.22632 79.46667,211.90134C80.40154,211.57234 81.33871,211.23363 82.27917,210.90834C83.21207,210.58566 84.13248,210.26956 85.04667,210.00534C86.79102,209.50117 87.63315,209.34079 88.44133,209.20534C89.21771,209.07521 89.97026,208.98564 90.69583,208.90834C91.39563,208.83379 92.07325,208.77989 92.72533,208.70134C93.96899,208.55153 94.55849,208.43204 95.12666,208.29866C95.67855,208.16911 96.20811,208.02081 97.20667,207.71733C97.67736,207.57426 98.96229,207.17822 99.732,207.03467C100.79481,206.83644 101.51424,206.80165 102.63333,206.53334C103.48521,206.32909 103.93372,206.15047 104.94583,205.86667C105.49969,205.71136 106.08393,205.50629 108.13333,205.2C108.90386,205.08484 109.72353,205.02966 110.57684,204.981C111.45824,204.93074 112.36242,204.90428 113.28133,204.888C114.20811,204.87158 115.136,204.86783 116.96667,204.86667C117.85667,204.8661 118.72668,204.86642 119.57667,204.87117C120.40668,204.87581 121.21674,204.88423 122.00667,204.90266C122.77675,204.92064 123.52768,204.93568 124.96667,205.03334C125.65691,205.08018 126.32438,205.14717 126.96767,205.21933C127.58572,205.28865 128.17519,205.3653 128.73466,205.44133C129.75633,205.58017 130.63365,205.69717 131.66234,205.814C132.56796,205.91684 133.15451,206.58383 133.8625,206.84584C134.78304,207.18651 135.62534,206.86667 136.30133,206.86667C137.12933,206.86667 138.13333,206.86667 139.32401,206.86667C139.97684,206.86667 140.65866,206.86667 141.3625,206.86667C142.08133,206.86667 142.80817,206.86667 144.96666,206.86667C145.657,206.86667 146.32933,206.86667 146.98567,206.86667C147.62801,206.86667 148.87866,206.86667 149.491,206.86667C150.09734,206.86667 151.89969,206.86499 152.49733,206.86934C153.09102,206.87366 154.25897,206.89804 154.828,206.93866C155.93094,207.0174 156.97325,207.17445 157.92934,207.43466C158.38916,207.55981 159.25238,207.88406 160.091,208.16133C161.29201,208.55841 162.0993,208.71387 162.91066,208.80533C163.73427,208.89816 164.58678,208.93526 165.46666,209.03334C166.38708,209.13596 167.33585,209.293 167.82083,209.36667C168.8042,209.51604 170.29968,209.70363 170.80034,209.74567C171.80841,209.83031 172.32306,209.84608 173.37199,209.964C173.91537,210.02509 175.6358,210.35777 176.24316,210.53084C176.87469,210.71078 177.51952,210.92717 178.18266,211.15334C178.8632,211.38544 180.26288,211.87619 180.98801,212.10001C182.46031,212.55446 183.21883,212.73192 183.97867,212.89467C184.73293,213.05621 185.48172,213.1899 186.21666,213.30417C186.92979,213.41505 187.61786,213.50769 188.27467,213.57867C189.99042,213.76411 190.90967,213.814 191.675,213.86667L192.608,213.95067L193.612,214.15067L194.2375,214.36667" id="svg_22" stroke-width="3" stroke="#000" fill="none"/>
  <path t="65944,66027,66036,66036,66036,66036,66050,66050,66050,66050,66084,66084,66084,66084,66084,66102,66102,66102,66102,66102,66102,66102,66102,66102,66117,66118,66118,66118,66118,66118,66118,66134,66135,66135,66151,66152,66152,66152,66152,66167,66168,66168,66168,66168,66168,66168,66168,66184,66185,66185,66185,66185,66185,66185,66185,66201,66201,66202,66202,66202,66202,66218,66218,66218,66218,66218,66245,66245,66245,66245,66245,66252,66252,66252,66252,66268,66268,66268,66268,66268,66285,66285,66286,66286,66302,66303,66318,66319,66319" d="M101.3,238.86667C101.38333,239.86667 101.94945,240.60599 102.72867,240.75233C103.72942,240.94029 104.50533,240.86533 105.69967,240.86667C106.491,240.86755 107.25833,240.86658 107.98566,240.86667C109.259,240.86684 109.84033,240.86409 110.50833,240.90834C111.37813,240.96594 111.92216,241.03046 113.3,241.2C114.15653,241.30539 115.10848,241.43393 116.132,241.58099C117.20452,241.73509 118.30099,241.9024 119.396,242.088C120.469,242.26985 121.50173,242.42737 123.3,242.86667C124.04645,243.04901 124.68064,243.25157 125.214,243.45767C125.67223,243.63475 126.05355,243.81844 126.372,243.99466C127.31085,244.51421 128.11932,244.82326 128.81433,244.85767C129.94232,244.91351 130.6331,244.86052 131.425,244.90834C132.33888,244.96353 132.84888,245.00769 134.586,245.30933C135.24338,245.42348 135.92859,245.5724 136.644,245.71733C137.38326,245.86708 138.14177,246.02089 138.918,246.16133C139.70445,246.30362 141.29921,246.54057 142.09933,246.62416C142.89395,246.70718 143.68205,246.7652 144.45734,246.82666C145.21671,246.88687 145.95882,246.93022 146.67133,247.02916C148.64323,247.30298 149.22154,247.51039 149.75867,247.72C150.77167,248.11533 151.21579,248.38907 152.082,248.86583C153.29878,249.53555 154.09233,249.91685 154.89999,250.18401C155.29654,250.31517 156.09428,250.53865 157.3,250.7C158.09703,250.80666 158.89978,250.83867 159.7,250.856C160.49986,250.87334 161.7,250.86667 162.5,250.86667C163.3,250.86667 164.10001,250.86667 165.3,250.86667C166.10001,250.86667 166.89999,250.86667 167.7,250.86667C168.5,250.86667 169.69966,250.86667 170.491,250.86667C171.62801,250.86667 172.32933,250.86667 173.52933,250.86667C174.25833,250.86667 175.3,250.86667 176.08934,250.86667L176.81467,250.86667" id="svg_23" stroke-width="3" stroke="#000" fill="none"/>
  <path t="66777,66820,66820,66820,66820,66820,66820,66820,66820,66837,66837,66837,66837,66853,66853,66870,66871,66871,66887,66888,66888,66888,66888,66888,66888,66904,66904,66905,66905,66905,66905,66905,66905,66905,66921,66921,66921,66921,66921,66921,66921,66921,66921,66938,66938,66938,66938,66938,66938,66939,66939,66939,66955,66955,66955,66955,66955,66956,66956,66956,66956,66971,66971,66972,66972,66972,66972,66972,66988,66988,67021,67021,67038,67038,67038,67055,67055,67055,67070,67070,67071,67071,67071,67071" d="M137.3,301.86667C141.27066,300.5455 141.97139,300.38123 142.72133,300.21851C143.50204,300.0491 144.29953,299.88513 145.09734,299.728C145.8782,299.57419 146.62575,299.42285 147.96666,299.20001C149.01567,299.0257 149.81682,298.96057 150.664,298.81851C151.50586,298.67734 152.29977,298.38086 153.13333,297.86667C153.92511,297.37827 154.6002,296.95346 155.72917,296.5455C156.20918,296.37204 156.74261,296.20032 157.94583,295.88751C158.59752,295.71811 159.28171,295.56345 159.99333,295.436C161.46207,295.17297 162.22206,295.10089 162.996,295.03732C163.79248,294.97192 164.62117,294.93317 165.4875,294.90833C166.39851,294.8822 167.36182,294.87311 168.384,294.86932C170.63332,294.86102 171.87033,294.86667 173.16933,294.86667C174.51233,294.86667 175.88133,294.86667 177.25833,294.86667C178.62534,294.86667 179.96434,294.86667 181.25734,294.86667C183.63333,294.86667 184.685,294.86667 185.64667,294.86667C186.52834,294.86667 187.34,294.86667 188.09166,294.86667C188.79333,294.86667 189.455,294.86667 190.08667,294.86667C191.3,294.86667 191.89934,294.86667 192.49466,294.86667C193.082,294.86667 193.65733,294.86667 194.21666,294.86667C194.756,294.86667 195.27133,294.86667 195.75867,294.86667C196.63333,294.86667 197.01401,294.86667 197.35867,294.86667C197.67133,294.86667 197.95599,294.86667 198.21666,294.86667C198.68201,294.86667 199.71182,295.02646 200.58566,294.86667C201.51225,294.69724 201.86497,293.84518 202.13333,292.86667C202.34924,292.07938 202.38327,291.40421 203.15199,290.46133C203.53691,289.98923 204.17253,289.59924 204.8,288.20001C204.98033,287.79791 205.12849,286.83801 205.192,286.32266L205.26801,285.224L205.2865,284.64868" id="svg_24" stroke-width="3" stroke="#000" fill="none"/>
  <path t="67532,67573,67573,67590,67590,67590,67590,67590,67590,67590,67590,67606,67606,67606,67606,67606,67606,67606,67606,67606,67623,67623,67623,67623,67623,67623,67623,67623,67623,67641,67641,67641,67641,67641,67641,67641,67641,67642,67657,67657,67657,67657,67657,67657,67658,67673,67673,67674,67674,67674,67674,67674,67674,67690,67690,67691,67691,67723,67723,67723,67723,67740,67741,67741,67741,67741,67782,67782" d="M230.3,132.86667C232.2,132.86667 233.0475,132.86667 234.3,132.86667C234.82899,132.86667 235.412,132.86667 236.716,132.86667C237.425,132.86667 238.164,132.86667 238.927,132.86667C239.70799,132.86667 241.3,132.86667 242.10001,132.86667C242.89999,132.86667 243.7,132.86667 244.5,132.86667C245.3,132.86667 246.10001,132.86667 246.89999,132.86667C247.7,132.86667 249.3,132.86667 250.10001,132.86667C250.89999,132.86667 251.7,132.86667 252.5,132.86667C253.3,132.86667 254.10001,132.86667 254.89999,132.86667C255.7,132.86667 257.29999,132.86667 258.09949,132.86667C258.896,132.86667 259.68649,132.86667 260.46799,132.86667C261.23749,132.86667 261.992,132.86667 262.72849,132.86667C263.444,132.86667 264.80002,132.87196 266.04935,132.864C266.64655,132.8602 267.23547,132.86125 268.41199,132.79466C269.01569,132.7605 269.64066,132.72118 270.96667,132.53334C272.43622,132.32516 273.19803,132.16107 273.96933,132.00534C274.73834,131.85007 275.49152,131.68506 276.21783,131.51483C276.90884,131.35287 278.13821,131.04968 279.10535,130.752C279.87341,130.51558 280.49014,130.25688 281.63333,129.86667C282.26425,129.65132 283.32608,129.35716 283.99466,128.99516C285.01254,128.44403 285.54645,127.82951 286.02802,127.20133C286.49567,126.59132 286.89734,126.004 287.69733,125.208L288.58566,124.88467" id="svg_25" stroke-width="3" stroke="#000" fill="none"/>
  <path t="68219,68258,68258,68258,68258,68258,68258,68258,68258,68291,68292,68292,68292,68292,68292,68292,68292,68292,68309,68309,68309,68309,68309,68309,68309,68309,68309,68326,68327,68327,68327,68327,68343,68343" d="M457.29999,97.86667C462.58618,97.86667 463.24268,97.86667 463.93317,97.86667C464.65466,97.86667 465.40417,97.86667 466.17868,97.86667C466.97516,97.86667 467.79068,97.8665 469.46667,97.86667C470.32184,97.86675 471.18799,97.86655 472.06616,97.87117C472.95734,97.87586 473.86255,97.88467 474.78265,97.90266C475.7189,97.92097 476.67255,97.93951 478.63333,98.03333C479.64151,98.08157 480.65619,98.14798 481.66483,98.21933C482.65485,98.28937 483.61261,98.36521 484.52533,98.44133C485.38028,98.51263 486.16406,98.58215 487.46667,98.7C487.96387,98.74497 488.36401,98.78133 488.68018,98.8095L489.11249,98.84583L490.01434,98.86667L490.70901,98.86667" id="svg_26" stroke-width="3" stroke="#000" fill="none"/>
  <path t="68646,68693,68693,68693,68693,68693,68694,68694,68694,68710,68710,68710,68710,68710,68710,68710,68710,68710,68727,68727,68727,68727,68727,68727,68727,68727,68727,68743,68743,68743,68743,68743,68743,68744,68744,68744,68766,68766,68766,68766,68766,68766,68766,68766,68766,68777,68778,68778,68778,68778,68778" d="M459.29999,130.86667C466.56549,130.86717 467.36407,130.86659 468.19849,130.88017C469.07208,130.89439 469.98788,130.92171 470.948,130.97467C471.95697,131.03032 473.01941,131.09248 475.29999,131.36667C476.53024,131.51457 477.80615,131.71489 479.12051,131.92917C480.46353,132.14812 481.82092,132.38698 483.18399,132.62666C484.54126,132.86533 485.87885,133.11514 488.46667,133.53334C489.69086,133.73117 490.8692,133.89952 492.00067,134.06134C493.08789,134.21683 494.13409,134.36176 495.13867,134.51733C496.10672,134.66727 497.04526,134.79825 498.79999,135.2C499.63864,135.39201 500.43903,135.62511 501.20151,135.87199C501.93103,136.10822 502.6152,136.35983 503.25201,136.616C503.8461,136.85498 504.39072,137.08481 505.29999,137.53334C505.67401,137.71783 505.99057,137.89249 506.26151,138.04784C506.49576,138.18213 506.69504,138.30551 506.87201,138.40933C507.02948,138.50171 507.17096,138.59515 507.46667,138.7C507.61838,138.75378 507.78265,138.78133 507.94818,138.80949L508.11465,138.83067L508.59018,138.86217" id="svg_27" stroke-width="3" stroke="#000" fill="none"/>
 </g>
</svg>