<svg width="500" height="333.3333333333333" xmlns="http://www.w3.org/2000/svg" xmlns:svg="http://www.w3.org/2000/svg" xmlns:xlink="http://www.w3.org/1999/xlink">
 <!-- Created with SVG-edit - http://svg-edit.googlecode.com/ -->
 <g display="inline" class="layer">
  <title>Layer 1</title>
  <path t="0,107,115,120,134,139,143,147,163,169,179,187,189,195,201,207,211,218,220,227,227,235,235,239,239,243,255,259,275,348,348,363,371,379,391,391,403,408,417,427,435,447,448,459,481,493,509,533,549,553,553,562,563,568,573,584,605,618,621,637,637,677,708,717,717,721,729,734,741,745,745,757,792,848,860,876,885,897,904,918,922,934,942,946,949,958,968,970,982,989,1037,1047,1064,1073,1087,1094,1119,1141,1189,1213,1236,1236,1257,1257,1277,1309,1309,1357,1368,1389,1420,1421,1429,1434,1453,1461,1480,1489,1493,1504,1532,1542,1572,1583,1589,1600,1605,1605,1621,1652,1684,1708,1732,1732,1748,1764,1776,1790,1800,1804,1819,1824,1841,1863,1881,1896,1950,1955,1956,1967,1967,1974,1982,1986,1994,2006,2017,2023,2038,2054,2066,2094,2106,2107,2122,2134,2142,2154,2162,2213,2214,2219,2219,2231,2231,2254,2263,2278,2294,2302,2307,2314,2314,2319,2319,2332,2338,2346,2358,2374,2374,2406,2414,2430,2454,2486,2510,2534,2542,2558,2567,2606,2654,2658,2666,2678,2694,2702,2802,2826,3280,3561,3584" d="M278.5,63.66667C279.72134,62.788 280.23886,62.05835 280.936,61.70267C281.70245,61.31163 282.5538,61.22006 283.07468,60.64133C283.64877,60.00347 284.43176,60.05961 285.21466,59.58133C286.01791,59.09063 286.72491,58.92294 287.37866,58.44534C288.07776,57.93462 288.71259,57.81646 289.59982,57.6665C290.45184,57.5225 290.8996,56.8105 291.70001,56.38267C292.55585,55.9252 293.27991,55.6741 294.15268,55.3095C294.86929,55.01013 295.53638,54.34322 296.29868,53.952C297.13858,53.52094 298.1196,53.66861 298.89999,53.24133C299.72256,52.79095 300.53824,52.84021 301.29999,52.58133C302.18793,52.27957 302.94131,51.78281 303.70001,51.38267C304.55838,50.92995 305.30017,50.68532 306.20001,50.66667C307.10052,50.648 307.81033,50.04855 308.70001,49.752C309.55765,49.46613 310.5,49.66667 311.29999,49.66667C312.20001,49.66667 313.10001,49.66667 314,49.66667C314.89999,49.66667 315.79999,49.66667 316.70001,49.66667C317.60016,49.66667 318.38535,49.66667 319.32535,49.66667C320.01599,49.66667 321.08932,49.66667 322,49.66667C322.89999,49.66667 323.79999,49.66667 324.70001,49.66667C325.60001,49.66667 326.50046,49.63958 327.29999,49.66667C328.14429,49.69527 328.65994,50.53813 329.5,50.66667C330.29526,50.78835 331.03717,51.41361 331.89999,51.63067C332.7735,51.85041 333.75729,51.50298 334.60001,51.888C335.26932,52.1938 336.03027,52.60778 336.89999,53.092C337.62857,53.49763 338.63843,53.34414 339.33334,53.83333C340.04837,54.33667 340.4845,55.08318 341,55.66667C341.56357,56.30454 342.17007,56.77615 342.58401,57.468C343.05988,58.26334 343.94717,58.38147 344.7955,58.67117C345.6106,58.94951 346.19025,59.32293 346.97916,59.6875C347.75018,60.0438 348.04285,60.89227 348.72134,61.54533C349.30078,62.10306 350.03842,62.54291 350.5,63.1875C350.99664,63.88107 351.72977,64.33761 352.37866,64.888C353.03989,65.44884 353.33951,66.17621 353.85718,66.96667C354.37787,67.76172 355,68.16666 355.70001,68.86667C356.29999,69.46666 356.89999,70.06667 357.60001,70.76667C358.20001,71.36667 358.74194,72.05149 359.59982,72.54533C360.33731,72.96988 360.73499,73.62436 361.14734,74.36667C361.60532,75.19107 362.28073,75.67023 362.49866,76.468C362.74042,77.353 363.17841,77.9519 363.784,78.58266C364.33398,79.15554 365.12613,79.49506 365.7955,80.02383C366.53647,80.60915 367.00781,81.27531 367.44284,82.02383C367.86731,82.75422 367.45221,83.76794 367.5,84.66666C367.54272,85.47007 368.24695,86.20385 368.46399,87.06667C368.68372,87.94017 368.34647,88.91513 368.66666,89.66666C368.99948,90.44788 369.49466,91.26662 369.5,92.06667C369.50601,92.96664 369.5,93.86667 369.5,94.76667C369.5,95.66666 369.98318,96.27385 370.41467,96.952C370.90784,97.72705 370.41132,98.77105 370.5,99.66666C370.58374,100.51237 371.45728,100.95023 371.5,101.83334C371.54025,102.66569 371.5,103.64516 371.5,104.46533C371.5,105.36667 371.5,106.26667 371.5,107.16666C371.5,108.06667 371.42694,109.01684 371.92532,109.64133C372.41052,110.2493 372.5,111.06667 372.5,111.96667C372.5,112.86667 372.5,113.76667 372.5,114.66666C372.5,115.46667 372.5,116.36667 372.5,117.26667C372.5,118.16666 372.5,119.06667 372.5,119.96667C372.5,120.86933 372.5,121.63734 372.5,122.672C372.5,123.416 372.51056,124.3334 372.5,125.24533C372.48956,126.14602 371.68192,126.66096 371.50134,127.468C371.30511,128.34499 371.483,129.27608 371.07468,130.07733C370.6846,130.84274 370.54916,131.66769 370.49985,132.64517C370.46362,133.36351 369.81381,134.08904 369.55716,134.96666C369.30405,135.83223 369.68329,136.82094 369.33334,137.66667C369.00867,138.45129 368.79904,139.22174 368.48932,140.056C368.21698,140.78961 367.50665,141.29436 367.07468,142.06667C366.6171,142.88475 366.11493,143.57455 365.52533,144.092C364.88757,144.6517 364.40131,145.35536 363.69867,145.75067C362.88171,146.21028 361.85138,146.45474 361.52084,147.1875C361.15924,147.98914 361.57306,149.01685 361.07468,149.64133C360.58948,150.2493 360.5,151.06667 360.48932,152.056L360,152.66667L359.51068,153.27733" id="svg_1" stroke-width="3" stroke="#000" fill="none"/>
  <path t="4918,5106,5106,5190,5283,5310,5394,5414,5426,5450,5506,5522,5555,5650,5682" d="M355.5,135.66667C355.5,136.66667 355.5,137.46666 355.5,138.38133C355.5,139.27733 355.49774,140.16667 355.5,141.06667C355.50226,141.96219 356.17334,142.48819 356.48932,143.27733C356.81238,144.08412 357.07468,144.692 357.49551,145.37117L357.53601,146.26666L357.92532,147.06667" id="svg_2" stroke-width="3" stroke="#000" fill="none"/>
  <path t="6652,6728,6733,6750,6756,6756,6768,6776,6781,6791,6796,6796,6807,6807,6809,6818,6825,6825,6835,6835,6837,6837,6841,6849,6916,6916,6921,6928,6934,6936,6940,6950,6960,6960,6995,7028,7056,7060,7060,7065,7068,7076,7076,7084,7092,7131,7150,7164,7173,7232,7252,7257,7260,7260,7267,7268,7273,7316,7330,7330,7330,7341,7342,7373,7401,7422,7438,7446,7462,7470,7474,7478,7478,7483,7486,7494,7494,7498,7503,7510,7516,7519,7526,7530,7531,7537,7540,7558,7563,7581,7591,7591,7598,7603,7606,7617,7619,7626,7630,7639,7677,7702,7734,7738,7751,7754,7762,7767,7771,7778,7790,7801,7817,7841,7851,7854,7862,7867,7870,7884,7894,7901,7906,7917,7942,7965,7981,7997,8006,8006,8038,8085,8105,8117,8130,8149,8173,8201,8237,8270,8302,8333,8333,8405,8429,8461,8509,8510,8542,8573,8589,8594,8598,8637,8646,8677,8695,8704,8735,8759,8768,8788,8805,8810,8820,8834,8841,8853,8873,8888,8906,8929,8942,8945,8952,9000,9012,9031,9071,9103,9104,9119,9132,9144,9152,9167,9183,9184,9200,9263,9272,9280,9399,9715,9723,9735,9736" d="M278.5,59.66667C276.79999,59.66667 276.11285,59.98116 275.33334,60.5C274.62589,60.97088 273.66559,60.47071 272.79999,60.72383C271.92236,60.98048 271.20135,61.63799 270.29999,61.66667C269.4003,61.69529 268.60583,61.72792 267.84732,62.01933C266.97296,62.35525 266.13071,62.56364 265.1955,62.67117C264.32397,62.77137 263.52734,63.24551 262.66666,63.5C261.89258,63.72888 260.79428,63.44657 260.06934,63.752C259.26013,64.09292 258.63916,64.64867 257.66666,64.66666C256.80466,64.68262 255.89999,64.66666 255,64.66666C254.10001,64.66666 253.2,64.66666 252.3,64.66666C251.39999,64.66666 250.5,64.66666 249.7,64.66666C248.8,64.66666 247.89999,64.66666 246.97917,64.66666C246.17867,64.66666 245.32533,64.66666 244.38533,64.66666C243.39999,64.66666 242.4996,64.69203 241.7,64.66666C240.79865,64.63807 240.07365,64.00381 239.3,63.752C238.44035,63.4722 237.34621,63.98903 236.62134,63.44534C235.97832,62.96302 235.3,62.66667 234.39999,62.66667C233.5,62.66667 232.74283,62.66667 231.84734,62.66667C230.98399,62.66667 230.02083,62.66667 229.07866,62.66667C228.16667,62.66667 227.49466,62.66667 226.50534,62.66667C225.47067,62.66667 224.70267,62.66667 223.8,62.66667C222.89999,62.66667 221.94803,62.37758 221.11067,62.67733C220.37392,62.94107 219.87247,63.66033 219.10001,64.092C218.28076,64.54983 217.37596,64.85975 216.8,65.37117C216.06773,66.02139 215.34946,66.41939 214.5,66.83334C213.84775,67.15118 213.08974,67.74111 212.47467,68.24133C211.8548,68.74545 210.88013,68.66425 210.10001,69.092C209.2771,69.54321 208.54172,69.90061 207.8,70.314C207.03632,70.73963 206.23029,71.06857 205.40016,71.54533C204.60995,71.99918 204.09561,72.51394 203.3,72.95067C202.65189,73.30644 201.6757,73.25187 200.85716,73.72383C200.17027,74.1199 199.72174,74.79036 198.89999,75.24133C198.12003,75.66937 197.17146,75.62725 196.5,76.16666C195.89301,76.65429 195.28497,77.21503 194.66667,77.83334C194.04837,78.45164 193.78252,79.06668 193.4955,79.96217C193.25163,80.72302 192.36876,81.04247 191.85266,81.71933C191.35121,82.37698 191.5,83.36667 191.5,84.26667C191.5,85.16666 191.31758,86.30875 192.02083,86.64584C192.80452,87.02148 193.37392,87.39226 194.11067,87.656C194.94803,87.95575 195.89999,87.66463 196.8,87.66666C197.79552,87.66891 198.30685,88.33719 199.02083,88.64584C199.82805,88.99479 200.8,88.66666 201.7,88.66666C202.60001,88.66666 203.5,88.66666 204.3,88.66666C205.2,88.66666 206.10001,88.66666 207,88.66666C207.89999,88.66666 208.82169,88.47177 209.69867,88.668C210.50571,88.84858 210.93544,89.64866 211.8,89.66666C212.6998,89.6854 213.60001,89.66666 214.5,89.66666C215.3,89.66666 216.0544,89.24898 216.7215,88.78817C217.4512,88.28412 218.50087,88.62946 219.3,88.66666C220.21764,88.70938 220.98264,89.27418 221.41467,89.952C221.90779,90.72564 221.88507,91.57455 222.47467,92.092C223.11241,92.6517 223.13673,93.46845 223.536,94.23067C223.93321,94.98898 224.78525,95.34508 225.416,95.95067C225.98886,96.50067 226.5538,97.11327 227.07466,97.692C227.64874,98.32986 228.28192,98.78375 229.10001,99.24133C229.8723,99.67329 230.37891,100.3787 231.11067,100.656C232.0032,100.99422 232.68489,101.15609 233.33333,101.83334C233.93774,102.46461 234.71591,102.44416 235.416,102.95067C236.10956,103.45245 236.8,103.66666 237.7,103.66666C238.60001,103.66666 239.5,103.66666 240.3,103.66666C241.2,103.66666 242.10002,103.672 243,103.66666C243.90004,103.66133 244.60721,103.21371 245.5,102.83334C246.25154,102.51314 246.88716,102.35217 247.66667,101.83334C248.37413,101.36246 249.04492,101.21633 249.78534,100.752C250.56358,100.26394 251.60001,100.66666 252.5,100.66666L253.3,100.66666" id="svg_3" stroke-width="3" stroke="#000" fill="none"/>
  <path t="10274,10381,10390,10394,10397,10403,10406,10409,10413,10418,10422,10425,10429,10441,10450,10529,10529,10538,10542,10553,10557,10562,10681,10705,10705,10709,10729,10746,10753,10757,10769,10817,10817,10825,10849,10865,10873,10881,10892,10897,10910,10953,10953,10993,11005,11017,11025,11030,11041,11053,11056,11062,11073,11129,11137,11141,11145,11150,11154,11161,11173,11173,11177,11231,11236,11252,11254,11261,11267,11273,11286,11290,11298,11309,11321,11325,11332,11345,11358,11367,11370,11383,11389,11425,11435,11435,11443,11447,11448,11456,11459,11463,11468,11472,11475,11488,11500,11561,11563,11563,11563,11568,11584,11588,11588,11592,11596,11603,11606,11612,11619,11619,11624,11627,11633,11633,11683,11696,11704,11718,11718,11725,11747,11772,11778,11786,11789,11792,11796,11804,11808,11808,11815,11823,11834,11844,11884,11911,11911,11917,11933,11940,11940,11951,11960,11972,11979,11980,11995,12027,12051,12064,12079,12080,12094,12099,12123,12179,12179,12207,12223,12248,12268,12288,12331,12475" d="M252.5,100.66666C251.5045,102.36667 251.89822,103.36925 251.464,104.23067C251.11172,104.92954 250.69629,105.5025 250.44284,106.36667C250.18552,107.24409 249.69536,107.98651 249.49867,108.86533C249.33028,109.61774 248.51801,110.1021 248.5,110.96667C248.48126,111.86647 248.71065,112.83279 248.33333,113.66666C248.03741,114.32063 247.08974,114.74111 246.47467,115.24133C245.8548,115.74545 244.88036,115.49934 244,115.6875C243.15134,115.86889 242.57158,116.75414 241.89999,117.23067C241.17435,117.74555 240.6716,118.29278 240.14284,118.96217C239.55751,119.70315 238.76129,120.11186 238.14284,120.614C237.43825,121.18607 236.51413,121.08666 235.78534,121.75066C235.18893,122.29406 235.01746,123.32057 234.52533,124.056C234.07735,124.72547 233.2999,125.14185 232.66667,125.83334C232.119,126.43139 231.44043,126.95163 230.8,127.314C229.97922,127.77843 229.31439,128.1554 228.66667,128.83333C228.06261,129.46556 227.67522,130.15338 226.97917,130.66667C226.29083,131.17429 225.25685,131.32222 224.62134,131.888C224.02098,132.42247 223.19995,132.50461 222.55267,133.01933C221.93356,133.51166 221.24878,134.09953 220.5,134.5C219.70856,134.92328 219.16844,135.48009 218.39999,135.888C217.75005,136.233 216.88179,136.65749 216.10001,137.092C215.28069,137.54736 214.64874,138.00346 214.07466,138.64133C213.5538,139.22006 212.84851,139.71677 212.44733,140.37117C211.97426,141.14284 211.16089,141.55739 210.52533,142.092C209.87598,142.6382 209.4485,143.48581 208.69867,143.66533C207.80646,143.87894 207.18237,144.41325 206.584,144.95067C205.94554,145.52408 205.62608,146.39226 204.88933,146.65601C204.05197,146.95576 202.98625,146.55063 202.3,147.23466C201.80022,147.73283 201.15825,148.46999 200.39999,148.888C199.64937,149.3018 198.88179,149.65749 198.10001,150.092C197.28069,150.54736 196.76114,151.27498 196.064,151.63066C195.29753,152.0217 194.55763,152.24226 193.88933,152.692C193.1433,153.19405 192.33746,153.67355 191.67467,154.06667C190.98819,154.47383 190.19652,155.16231 189.39999,155.54533C188.54839,155.95483 187.96098,156.42194 187,156.64583C186.13333,156.84775 185.56001,157.24582 184.88933,157.692C184.14465,158.18741 183.34198,158.5636 182.5,158.64583C181.52608,158.74095 180.79372,158.89619 180.33333,159.66667C179.90341,160.38615 179.00015,160.65399 178.10001,160.66667C177.20007,160.67934 176.36163,161.05273 175.7,161.38266C174.85663,161.80321 173.89999,161.66667 173,161.66667C172.10001,161.66667 171.14983,161.59363 170.52533,162.092C169.91737,162.57718 169.08949,162.53395 168.2,162.67117C167.26862,162.81485 166.73138,163.51849 165.8,163.66217C164.91051,163.79939 164,163.66443 163.10001,163.66667C162.19998,163.66893 161.34811,164.02689 160.7,164.38266C159.90439,164.81938 159.34006,165.53813 158.5,165.66667C157.70471,165.78836 156.96227,166.41145 156.10001,166.63066C155.22687,166.85265 154.45766,166.98186 153.7,167.38266C152.85062,167.83197 152.18967,168.28477 151.3,168.58133C150.44235,168.86722 149.5,168.66667 148.7,168.66667C147.8,168.66667 147.05164,168.90869 146.416,169.38266C145.64719,169.95593 144.7,169.66667 143.8,169.66667C142.89999,169.66667 142,169.66667 141.10001,169.66667L140.2,169.66667L139.3,169.66667L138.39999,169.66667" id="svg_4" stroke-width="3" stroke="#000" fill="none"/>
  <path t="15322,15458,15470,15493,15501,15521,15524,15545,15561,15561,15593,15595,15660,15680,15696,15736,15768,15817,15832,15888,15928,15929,15960,16032,16032,16080,16104,16136,16140,16160,16312,16352,16360,16376,16401,16412,16419,16419,16429,16437,16437,16445,16456,16467,16489,16553,16577,16593,16601,16609,16625,16633,16646,16653,16657,16669,16669,16704,16732,16787,16804,16804,16806,16817,16817,16834,16962,17091,17107,17130,17170,17178,17184,17184,17187,17191,17191,17274,17299,17314,17330,17330,17371,17387,17403,17419,17434,17443,17451,17467,17474,17490,17506,17519,17520,17523,17563,17587,17595,17611,17636,17659,17690,17699,17722,17762,17786,17795,17814,17837,17860,17868,17892,17915,17938,17943,17950,17958,17970,17994,18058,18063,18074,18074,18086,18178,18284,18296,18303,18332,18412,18412,18452,18460,18508,18516,18540,18628,19148,19164,19173,19220,19237,19332,19380,19384,19604,19620,19621,19629,19644,20030" d="M360.5,130.66667C360.216,131.58267 359.75238,132.29437 358.97916,132.64583C358.17859,133.00972 357.20001,132.66667 356.29999,132.66667C355.39999,132.66667 354.5,132.66667 353.70001,132.66667C352.79999,132.66667 351.936,132.66667 350.97916,132.66667C350.10001,132.66667 349.20001,132.66667 348.29999,132.66667C347.39999,132.66667 346.36191,132.98874 345.66666,132.5C344.95074,131.99673 344.37396,131.47581 343.79999,130.96217C343.06467,130.30414 342.50098,129.66571 341.89999,129.06667C341.20114,128.37004 340.24063,128.19002 339.66666,127.5C339.1232,126.84665 339.23508,125.96637 338.58401,125.38267C337.95776,124.82121 337.40762,125.07396 336.85266,125.71933C336.3522,126.30133 335.98444,127.17181 335.29999,127.86667C334.80377,128.37044 334.11719,129.08427 333.39999,129.76649C332.81366,130.32423 332.00015,130.65399 331.10001,130.66667C330.20459,130.67929 329.69351,131.33804 328.97916,131.64583C328.07971,132.03336 327.06519,131.4238 326.2045,131.67117C325.43661,131.89188 324.97934,132.65625 324.10001,132.66667C323.20007,132.67734 322.29999,132.66667 321.39999,132.66667C320.5,132.66667 319.70001,132.66667 318.79999,132.66667C317.89999,132.66667 316.96225,132.70413 316.17868,132.44533C315.3017,132.15567 314.52692,131.72752 313.5,131.66667C312.70142,131.61935 311.79993,131.65601 310.89999,131.66667C310.02066,131.67709 309.50534,132.27728 309.5,133.16667C309.4946,134.06665 309.30707,135.04884 309.72168,135.76649C310.10477,136.42958 311.30759,136.24391 312.16666,136.83333C312.79239,137.26266 313.11298,138.24863 313.47467,139.06667C313.8215,139.85114 314.41211,140.65298 314.49551,141.36667C314.59998,142.26059 314.61862,143.14229 315.14734,143.71933C315.78076,144.41064 316.32172,144.96719 316.50015,145.76649C316.68842,146.60986 317.21243,147.06831 317.50449,147.96217C317.75439,148.72702 318.60721,149.11963 319.5,149.5C320.25153,149.82019 320.88715,149.98116 321.66666,150.5C322.37411,150.97089 323.10751,151.14929 323.78534,151.58133C324.55899,152.07445 325.4079,152.05174 325.92532,152.64133C326.48505,153.27908 327.31808,153.66095 327.49866,154.468C327.69489,155.34499 327.66718,156.09373 328.216,156.75067C328.73291,157.36938 328.98254,158.32056 329.47467,159.056C329.92267,159.72548 330.49429,160.48474 331.30133,160.66533C332.17831,160.86157 333.10001,160.66667 334,160.66667C334.89999,160.66667 335.79999,160.66667 336.70001,160.66667C337.60001,160.66667 338.5,160.66667 339.29999,160.66667C340.20001,160.66667 341.10001,160.66667 342,160.66667C342.89999,160.66667 343.95908,160.84842 344.47467,160.23067C345.00314,159.59747 345.22525,158.77841 346,158.1875C346.73392,157.62772 347.49365,157.25812 348,156.66667C348.50891,156.07224 348.49515,155.16666 348.5,154.26666C348.50534,153.27728 349.22559,152.79274 349.48932,152.056C349.78906,151.21864 349.31693,150.17076 349.78534,149.468C350.31546,148.67268 351.21783,148.44389 351.66666,147.66667C352.0256,147.04507 352.97916,146.66667 353.52533,146.092L354.2045,145.614" id="svg_5" stroke-width="3" stroke="#000" fill="none"/>
  <path t="21803,21943,22016,22039,22064,22064,22104,22152,22172,22184,22231,22249,22260,22279,22280,22327,22352,22369,22374,22393,22417,22449,22449,22454,22466,22478,22483,22490,22553,22564,22566,22574,22578,22586,22590,22599,22610,22618,22665,22697,22721,22721,22761,22787,22833,22846,22865,22874,22913,22922,22984,22989,23017,23018,23081,23081,23105,23131,23153,23169,23185,23201,23217,23233,23234,23249,23258,23270,23305,23369,23378,23383,23393,23402,23402,23409,23457,23485,23505,23505,23529,23545,23617,23681,23689,23713,23755,23771,23795,23819,23883,23900,23931,24059,24107,24155,24187,24187,24243" d="M334.5,119.66666C334.33334,117.83334 333.56088,117.45144 333.5,116.56667C333.4382,115.66879 333.5,114.86667 333.5,113.96667C333.5,113.06667 333.5,112.16666 333.5,111.26667C333.5,110.36667 333.5,109.46667 333.5,108.56667C333.5,107.66666 333.5,106.86667 333.5,105.96667C333.5,105.06667 333.60477,104.26747 334.14734,103.614C334.63766,103.02344 335.04181,102.18637 335.69867,101.46667C336.23215,100.88216 336.69986,100.19466 337.33334,99.5C337.87973,98.90087 338.23788,98.05645 338.936,97.70267C339.70734,97.31178 340.78113,97.80399 341.44733,97.314C342.13156,96.81076 342.89999,96.66733 343.79999,96.66666C344.69867,96.666 345.23788,96.05645 345.936,95.70267C346.70734,95.31178 347.70001,95.66666 348.60001,95.66666C349.5,95.66666 350.29999,95.66666 351.20001,95.66666C352.10001,95.66666 353.07971,95.29997 353.97916,95.6875C354.69351,95.99529 355.04837,96.88169 355.66666,97.5C356.28494,98.11831 356.8996,98.52283 357.70001,98.95067C358.55585,99.40813 359.35568,99.71816 359.5,100.66666C359.62033,101.45757 359.5,102.36667 359.5,103.26667C359.5,104.16666 359.5,105.06667 359.5,105.96667C359.5,106.86667 359.5,107.76667 359.5,108.66666C359.5,109.46667 359.86316,110.46356 359.46399,111.23067C359.06885,111.99004 358.52786,112.46844 358.5,113.36667C358.4707,114.31078 358.01126,114.95364 357.2785,115.54533C356.63269,116.06682 355.79999,116.314 355,116.66666C354.20001,117.01933 353.40613,117.60578 352.5,117.66666C351.70181,117.7203 350.79999,117.66666 349.89999,117.66666C349,117.66666 348.15643,117.73361 347.47467,118.24133C346.83386,118.71855 345.82803,118.33855 345.02084,118.6875C344.30685,118.99615 343.7955,119.66441 342.89999,119.66666C342,119.66892 341.10001,119.66666 340.20001,119.66666C339.29999,119.66666 338.39999,119.66666 337.5,119.66666L336.70001,119.66666L335.79999,119.66666" id="svg_6" stroke-width="3" stroke="#000" fill="none"/>
  <path t="25101,25525,25525,25590,25614,25630,25662,25686,25742,25765,25886,25949,26037,26069,26165,26165,26277,26389,26453,26479,26519,26551,26647,26743,26747" d="M343.5,106.66666C342.5,107.66666 341.69983,107.64793 340.79999,107.66666C339.93546,107.68467 339.44849,108.48582 338.69867,108.66534C337.80646,108.87894 336.99219,109.27531 336.55716,110.02383C336.13269,110.75422 336.10825,112.04575 336.78534,112.58134C337.42776,113.08952 338.5,112.66666 339.29999,112.66666C340.20001,112.66666 341.20212,113.06397 342.064,112.63067C342.72241,112.29965 342.92532,111.26667 343.41467,110.46667L343.5,109.56667L343.5,108.66666L343.5,107.86667" id="svg_7" stroke-width="3" stroke="#000" fill="none"/>
  <path t="27522,27823,28009,28057,28097,28137,28169,28201,28305,28417" d="M354.5,104.66666C352.79999,104.66666 351.68439,104.6637 351.50134,105.468C351.30194,106.34427 351.5,107.26667 351.5,108.16666L351.5,109.06667L351.5,109.96667L351.50134,110.86533" id="svg_8" stroke-width="3" stroke="#000" fill="none"/>
  <path t="30148,30339,30363,30395,30451,30451,30499,30555,30596,30645,30650,30661,30677,30686,30733,30757,30829,30869,30894,30909,30973,31021,31029,31053,31077,31117,31121,31129,31137,31150,31205,31228,31229,31253,31317,31373,31398,31453,31477,31500,31549,31577,31609,31609,31653,31725" d="M345.5,79.66666C347.33334,79.5 347.71524,78.72756 348.60001,78.66666C349.49786,78.60487 350.29999,78.66666 351.20001,78.66666C352.10001,78.66666 353,78.66441 353.89999,78.66666C354.7955,78.66891 355.51495,79.05424 356.07468,79.692C356.59213,80.28159 357.48093,80.20125 358.21466,80.752C358.83069,81.2144 358.5,82.36667 358.5,83.26667C358.5,84.16666 358.50067,85.06667 358.5,85.96667C358.49933,86.86533 358.15585,87.62414 357.5,88.16666C356.89703,88.66544 356,88.66666 355.10001,88.66666C354.20001,88.66666 353.29999,88.66666 352.39999,88.66666C351.5,88.66666 350.70001,88.66666 349.79999,88.66666C348.89999,88.66666 347.94226,88.97144 347.11066,88.656C346.3815,88.37942 346.5,87.26667 346.5,86.36667C346.5,85.46667 346.5,84.56667 346.5,83.66666L346.5,82.86667L346.5,81.96667L346.5,81.06667" id="svg_9" stroke-width="3" stroke="#000" fill="none"/>
  <path t="32479,32599,32631,32654,32666,32686,32726,32735,32743,32743,32747,32935,32966,32991,33006,33022,33114,33139,33158,33183,33191,33191,33222,33239,33242,33360,33385,33385,33393,33417,33433,33449,33461,33477,33477,33500,33525,33553,33568,33592,33593,33640,33736,33784,33808,33864,33864,33920,33929,33960,33968,33992,34040,34064,34084,34093" d="M310.5,80.66666C308.79999,80.66666 307.89999,80.66666 307,80.66666C306.10001,80.66666 305.20001,80.66666 304.29999,80.66666C303.39999,80.66666 302.5,80.66666 301.70001,80.66666C300.79999,80.66666 299.35962,80.76212 299.66666,81.5C300.00259,82.30731 300.90271,82.37589 301.7955,82.67117C302.5509,82.92101 302.5,83.96667 302.5,84.86667C302.5,85.76667 302.5,86.66666 302.5,87.46667C302.5,88.36667 302.19305,88.9987 301.784,89.75066C301.40308,90.45089 302.45377,90.9088 303.20001,91.314C303.96112,91.72729 304.89999,91.66666 305.79999,91.66666C306.70001,91.66666 307.60001,91.66666 308.5,91.66666C309.29999,91.66666 310.2265,91.85041 311.10001,91.63067C311.96283,91.41361 312.75363,90.87764 313.60001,90.44534C314.25534,90.11061 315.22281,89.8201 315.88934,89.23067C316.58389,88.61646 316.5,87.56667 316.5,86.66666C316.5,85.86667 316.89337,84.85327 316.46399,84.10267C316.06891,83.41203 315.09921,83.46645 314.41599,82.95067C313.80066,82.48612 312.79999,82.6095 312,82.16666L311.20001,81.72383" id="svg_10" stroke-width="3" stroke="#000" fill="none"/>
  <path t="37365,37481,37481,37493,37510,37530,37546,37558,37590,37623,37641,37641,37658,37670,37678,37701,37725,37741,37758,37773,37790,37800,37822,37838,37848,37867,37880,37888,37903,37934,37949,37973,37993,37994,38010,38021,38069,38101,38141,38142,38165,38197,38237,38325,38325,38381,38399,38437,38469,38588" d="M218.5,66.66666C219.5,66.66666 220.3,66.66666 221.2,66.66666C222.10001,66.66666 223,66.66666 223.89999,66.66666C224.8,66.66666 225.70377,66.58454 226.60001,66.66683C227.51144,66.75052 228.08737,67.48418 228.936,67.66666C229.77631,67.84735 230.44119,68.24401 231.11067,68.692C231.8461,69.18412 232.81383,69.4146 233.416,69.95067C234.00822,70.47787 234.85017,70.59362 235.47467,71.092C236.08263,71.57719 236.91737,71.75615 237.52533,72.24133C238.14983,72.73972 238.90079,72.86688 239.584,73.38267C240.19934,73.84722 241.20094,73.72211 242,74.16666C242.80096,74.61228 243.63835,75.05273 244.3,75.38267C245.14336,75.80321 246.11961,75.66473 246.89999,76.092C247.72256,76.54238 248.50087,76.62946 249.3,76.66666C250.21764,76.70938 250.71523,77.60577 251.60001,77.66666C252.49788,77.72845 253.3,77.66666 254.2,77.66666C255.10001,77.66666 256,77.66666 256.89999,77.66666L257.79999,77.66666" id="svg_11" stroke-width="3" stroke="#000" fill="none"/>
  <path t="40964,41021,41033,41037,41049,41061,41069,41073,41105,41137,41149,41153,41161,41173,41185,41185,41209,41241,41249,41265,41282,41282,41289,41329,41353,41353,41359,41369,41373,41384,41400,41409,41417,41429,41441,41456,41457,41468,41482,41505,41505,41522,41531,41539,41539,41548,41556,41565,41571,41575,41588,41599,41611,41611,41628,41647,41698,41715,41727,41751,41752,41754,41786,41818,41846,41867,41875,41898,41912,41951,41963,42012,42012,42015,42028,42062,42082,42091,42114,42138,42162,42234,42258,42306,42474,43084,43188,43308,43340,43360,43468,43500,43540,43540,43597,43613,43636,43692,43708,43732,43797,43844,43844,43892,43912,43972,44004,44020,44126,44140,44156,44672,44678,44699,44700,44712,44767,44791,44800,44808,44827,44855,44887,44895,44935,44947,44951,44967,44983,44999,45023,45033,45044,45049,45071,45079,45103,45119,45119,45143,45159,45159,45167,45191,45215,45219,45239,45255,45287,45311,45322,45322,45363,45423,45423,45431,45448,45475,45488,45519,45535,45544,45567,45591,45599,45612,45618,45625,45640,45653,45673,45673,45697,45705,45729,45737,45746,45769,45789,45810,45833,45843,45858,45874,45881,45893,45907,45915,45949,45961,45966,45969,45970,45977,45993,46009,46041,46073,46078,46089,46101,46105,46117,46129,46177,46209,46217,46248,46329,46345,46369,46425,46488,46489,46494,46580,46594,46601" d="M138.5,166.66667C136.8,166.66667 135.89999,166.66667 135,166.66667C134.10001,166.66667 133.16135,166.93694 132.2045,166.66217C131.43655,166.44165 130.92528,165.95882 130.11067,165.65601C129.37717,165.38335 128.86412,164.60719 128.416,163.86534C127.98996,163.16003 127.19615,162.54303 126.78533,161.86667C126.31392,161.09053 125.82009,160.38286 125.216,159.75067C124.66563,159.1747 124.14058,158.51433 123.784,157.86667C123.30849,157.00299 122.79371,156.43713 122.33334,155.66667C121.90342,154.94717 121.10094,154.58568 120.44733,154.01933C119.84715,153.49927 118.99281,153.05765 118.55717,152.30949C118.13271,151.58055 118.00945,150.8562 117.52533,150.23067C116.94813,149.48486 116.76312,148.62978 116.416,147.86667C116.02741,147.01241 115.65615,146.20261 115.21467,145.46666C114.80757,144.78804 114.04261,144.10559 113.2,143.71933C112.43124,143.36693 111.86285,142.89139 111.1,142.27733C110.35446,141.67722 109.39562,141.75536 108.5,141.66667C107.6543,141.58293 107.21801,140.7094 106.4,140.66667C105.50123,140.61974 104.72256,140.54236 103.9,140.092C103.11961,139.66472 102.2,139.66667 101.3,139.66667C100.4,139.66667 99.5,139.66667 98.7,139.66667C97.8,139.66667 96.9,139.66667 96,139.66667C95.1,139.66667 94.2,139.66667 93.3,139.66667C92.4,139.66667 91.36191,139.3446 90.66666,139.83333C89.95074,140.33659 89.26134,140.76968 88.78533,141.468C88.27456,142.2173 87.93814,142.87308 87.27866,143.54533C86.67239,144.16336 86.64877,144.95636 86.14733,145.614C85.63124,146.29085 84.74131,146.60809 84.5045,147.37117C84.24947,148.19296 83.64575,148.71063 83.50134,149.468C83.33301,150.35077 83.5,151.26666 83.5,152.16667C83.5,153.06667 83.5,153.96666 83.5,154.86667C83.5,155.76666 83.5,156.66667 83.5,157.46666C83.5,158.36667 83.5,159.26666 83.5,160.16667C83.5,161.06667 83.5,161.96666 83.5,162.86667C83.5,163.76666 83.5,164.66667 83.5,165.46666C83.5,166.36667 83.5,167.26666 83.5,168.16667C83.5,169.06667 83.49992,169.96666 83.5,170.86667C83.50008,171.76649 83.94798,172.41708 84.47467,173.10266C84.97682,173.75629 85.41497,174.65407 85.49866,175.46666C85.59088,176.36194 85.49461,177.26668 85.5,178.16667C85.50533,179.05605 86.22559,179.54059 86.48933,180.27733C86.7891,181.1147 86.5,182.06667 86.5,182.96666C86.5,183.86667 86.41132,184.77104 86.5,185.66667C86.58374,186.51236 87.36343,186.99272 87.92533,187.64133C88.43465,188.22923 88.50121,189.06369 89,189.66667C89.54252,190.32253 90.17249,190.94846 90.72134,191.54533C91.30988,192.18538 91.76349,192.88617 92.30133,193.46666C92.8774,194.08841 93.52142,194.86861 94.2,195.30949C94.99234,195.8243 95.50356,196.44737 96.30133,196.66533C97.18634,196.9071 97.78286,197.34756 98.416,197.95067C98.99012,198.49754 99.85006,198.53502 100.6,198.888C101.37553,199.25304 102.14535,199.66304 102.98267,199.94934C103.80026,200.2289 104.80791,200.27812 105.33334,199.5C105.80891,198.7957 105.94975,198.12137 106.41467,197.38133C106.90271,196.60448 106.94725,195.9157 107.47467,195.23067C107.97706,194.57816 108.66224,194.09598 109.33334,193.5C109.93964,192.96158 110.31152,192.17749 110.936,191.692C111.68198,191.11206 112.56769,190.72371 112.97916,190.16667C113.58406,189.34779 114.21667,188.78951 114.48933,188.056C114.79214,187.24139 115.31424,186.67859 115.4955,185.96217C115.71515,185.09401 115.5,184.16667 115.5,183.26666C115.5,182.36667 115.5,181.46666 115.5,180.56667C115.5,179.66667 115.01737,179.05914 114.58533,178.38133C114.09221,177.6077 114.01082,176.85515 113.52533,176.23067C112.94539,175.4847 112.43702,174.7202 112.02084,174.16667C111.46516,173.42761 111.64979,172.45407 111.49983,171.56683C111.35583,170.71481 110.75053,170.19296 110.4955,169.37117C110.25869,168.60809 109.86847,168.06418 109.47916,167.1875C109.16348,166.47661 108.44466,165.96367 108,165.16667C107.55449,164.36816 107.6859,163.36195 107.216,162.75067C106.69299,162.0703 106.08411,161.58414 105.44733,161.01933C104.74587,160.39716 104.5372,159.6658 104.5,158.86667C104.45728,157.94902 103.66666,157.5 103.5,156.66667L103.27866,155.78799" id="svg_12" stroke-width="3" stroke="#000" fill="none"/>
  <path t="47820,47881,47955,48006,48011,48015,48034,48034,48039,48039,48043,48043,48048,48054,48059,48070,48075,48083,48083,48092,48095,48102,48108,48111,48120,48190,48195,48195,48203,48207,48211,48215,48224,48224,48232,48233,48235,48243" d="M75.5,173.66667C74.62133,174.888 74.11492,175.57455 73.52533,176.092C72.88757,176.6517 72.32935,177.17 71.66666,177.83333C71.12825,178.37225 70.44865,178.99313 69.74,179.23067C68.65808,179.59331 67.99118,179.82425 67.416,180.38266C66.74035,181.0386 66.88942,182.01404 66.2785,182.54517C65.60921,183.12704 64.5,182.66667 63.7,182.66667C62.8,182.66667 61.9,182.66667 61,182.66667C60.1,182.66667 59.2,182.66667 58.3,182.66667C57.4,182.66667 56.5,182.66667 55.7,182.66667C54.8,182.66667 53.88081,182.50145 53,182.6875C52.15261,182.86649 51.40664,183.60451 50.61467,183.66533C49.67743,183.7373 48.984,183.66667 47.91067,183.66667L47,183.66667" id="svg_13" stroke-width="3" stroke="#000" fill="none"/>
  <path t="48861,48885,48896,48905,48913,48920,48929,48941,48945,48945,48950,48950,48953,48953,48961,48966,48973,48973,48977,48977,48981,48988,48988,48993,49000,49005,49009,49009,49017,49021,49028,49033,49041,49052,49056" d="M82.5,176.66667C82.5,178.46666 82.50195,179.28627 82.07467,180.06667C81.6243,180.88924 81.74532,181.89964 81.216,182.58267C80.72802,183.21236 80.23412,183.88646 79.73833,184.42383C79.04411,185.17628 78.59293,185.77733 77.66666,186.33333C76.96544,186.75424 76.0582,186.83923 75.39017,187.314C74.71742,187.7921 73.89606,187.62077 72.909,187.67117C72.06787,187.71413 71.44053,188.47282 70.5,188.66667C69.71202,188.82907 69.07819,189.36906 68.1,189.63066C67.32632,189.83757 66.45544,189.97769 65.7,190.38266C64.94404,190.78789 64.18964,191.28468 63.3,191.58133C62.44252,191.86725 61.62133,191.888 61.14283,192.6095L60.30133,192.668" id="svg_14" stroke-width="3" stroke="#000" fill="none"/>
  <path t="49549,49601,49604,49618,49630,49643,49643,49646,49653,49658,49672,49688,49700,49700,49713,49728,49728,49740,49740,49744,49764,49781,49781,49800,49816,49816" d="M87.5,184.66667C86.02084,186.16667 85.71357,187.11397 85.064,187.64133C84.33043,188.23689 83.55703,188.73436 83,189.14583C82.18113,189.75072 81.44619,190.11328 80.92533,190.692C80.35125,191.32985 79.77054,191.88283 79.33334,192.66667C78.96975,193.31854 78.2,193.96666 77.5,194.66667C77,195.16667 76.37589,195.96971 75.7,196.38133C74.85751,196.89441 74.28384,197.39613 73.5,197.83333C72.84813,198.19691 72.2,198.96666 71.5,199.66667L71,200.14583" id="svg_15" stroke-width="3" stroke="#000" fill="none"/>
  <path t="50279,50382,50382,50389,50389,50391,50391,50394,50399,50402,50408,50408,50410,50418,50422,50423,50432,50438,50448,50449,50454,50454,50458,50478,50491" d="M91.5,197.66667C90.4375,198.96666 89.69673,199.18095 88.643,199.76666C88.01174,200.11755 87.37862,200.97424 86.7,201.38133C85.96406,201.82281 85.14962,202.18404 84.3,202.58267C83.43957,202.98639 82.85385,203.43094 82.1,204.056C81.44253,204.60114 80.52991,204.88123 79.9,205.24133C79.0358,205.73538 78.18616,206.00909 77.5,206.66667C76.98948,207.15593 76.30133,207.86667 75.78533,208.46666L75.416,209.38133L74.66666,209.83333L74.216,210.58267" id="svg_16" stroke-width="3" stroke="#000" fill="none"/>
  <path t="51105,51232,51237,51248,51260,51260,51266,51269,51272,51282,51288,51300,51300,51309,51328,51344,51360,51360,51369,51373,51384,51393,51397,51408,51420,51428,51432,51445,51450,51461,51472,51495,51508,51528,51552,51576,51600" d="M93.5,198.66667C93.5,200.46666 93.57732,201.3342 93.064,202.06667C92.51035,202.85669 91.70383,203.32181 91.51067,204.26666C91.33446,205.12857 90.76884,205.51804 90.11066,206.10266C89.41689,206.7189 89.26606,207.62495 88.85267,208.36667C88.42703,209.13036 88.03403,209.90274 87.62133,210.76666C87.214,211.61932 87.07594,212.35707 86.5,213.14583C86.03247,213.78612 85.86326,214.46846 85.464,215.23067C85.06679,215.98897 84.89294,216.59843 84.41467,217.38133C83.92396,218.18457 83.75862,218.8933 83.27866,219.54533C82.76468,220.24359 82.0032,220.33911 81.11066,220.67734C80.37891,220.95464 79.92533,221.692 79.416,222.38266L78.62133,222.888L78.21467,223.58133L77.3,223.66667" id="svg_17" stroke-width="3" stroke="#000" fill="none"/>
  <path t="52091,52151,52167,52179,52181,52187,52193,52193,52200,52204,52209,52212,52220,52225,52236,52236,52240,52257,52267,52276,52294,52303,52317,52317,52324,52336,52340,52340,52350,52352,52366,52377" d="M95.5,204.66667C93.936,207.67067 93.68495,208.39792 93.464,209.26666C93.24469,210.12892 92.58533,210.86667 92.5,211.66667C92.41467,212.46666 91.75531,213.20441 91.536,214.06667C91.31504,214.93542 90.96753,215.54721 90.5,216.1875C89.92406,216.97626 89.5667,217.76038 89.50134,218.552C89.42485,219.47826 89.2777,220.42078 88.40017,220.66684C87.62061,220.88544 87.20596,221.51518 86.3,221.668C85.38641,221.82211 84.84595,222.47665 83.9,222.65601C82.99522,222.82755 82.14907,222.48117 81.36134,222.70267C80.4371,222.96255 79.88934,223.65601 79,223.66667L78.1,223.66667" id="svg_18" stroke-width="3" stroke="#000" fill="none"/>
  <path t="54491,54643,54659,54663,54671,54683,54687,54697,54697,54703,54711,54723,54747,54771,54783,54799,54799,54813,54829,54840,54869,54900,54922,54975,54975,54995,55012,55012,55035,55059,55082,55083,55091,55115,55139,55163,55171,55195,55221,55245,55293,55341,55373,55373,55396,55413,55421,55497,55509,55533,56915,56936,56936" d="M92.5,225.66667C92.5,227.46666 92.5,228.36667 92.5,229.26666C92.5,230.06667 92.60696,230.97319 92.49866,231.86667C92.38718,232.78644 91.65414,233.43352 91.51067,234.26666C91.35791,235.15367 91.5,236.06667 91.5,236.96666C91.5,237.86667 91.5,238.76666 91.5,239.66667C91.5,240.46666 91.55449,241.36816 92,242.16667C92.44466,242.96367 92.97398,243.56041 93.7,243.95067C94.55478,244.41014 95.21964,244.90811 95.66933,245.468C96.23798,246.17599 97.43779,246.27203 98.05334,246.692C98.74968,247.16708 99.03052,248.15747 99.59983,248.76666C100.15237,249.35789 100.49918,250.26924 101.2045,250.71933C101.97385,251.21028 102.85124,251.54327 103.47467,252.092C104.05913,252.60641 104.65889,253.18469 105.216,253.75067C105.87663,254.42181 106.34727,255.07108 106.784,255.86667C107.13977,256.5148 107.49775,257.36667 107.5,258.26666C107.50225,259.16666 107.5,260.06668 107.5,260.96667C107.5,261.86667 107.5,262.76666 107.5,263.66666L107.5,264.46667" id="svg_19" stroke-width="3" stroke="#000" fill="none"/>
  <path t="58721,58857,58896,58905,58920,58946,58954,58963,58975,58981,58991,59002,59026,59050,59096,59121,59144,59172,59172,59196,59215,59269,59330,59426,59450,60178,60186,60190,60203,60226,60298,60327,60343,60387,60387,60395,60410,60434,60446,60446,60454,60459,60498,60538,60570,60587,60595,60643,60692" d="M173.5,262.66666C171.8,262.66666 170.79742,263.06488 169.936,262.63068C169.23712,262.27841 168.82159,261.38144 168.216,260.75067C167.666,260.1778 167.05339,259.61285 166.47467,259.09201C165.83679,258.51791 165.69627,257.83084 165.44284,256.96667C165.18552,256.08923 164.52859,255.36803 164.5,254.46666C164.47147,253.56712 164.5,252.66667 164.5,251.86667C164.5,250.96666 164.5,250.06667 164.5,249.16667C164.5,248.26666 164.50009,247.36667 164.5,246.46666C164.49991,245.56683 163.95334,244.99634 163.55716,244.30949C163.08733,243.49493 163.08252,242.68327 162.5,242.16667C161.89732,241.63219 161.1077,241.22247 160.39999,240.56683C159.80637,240.01688 159.09956,239.58727 158.44733,239.01933C157.7402,238.40361 157.2883,237.69493 156.92534,237.06667C156.43677,236.22099 155.74059,235.72546 155.5045,234.96217C155.23962,234.10577 155.07466,233.26666 154.584,232.468L154.216,231.75067L153.536,231.23067L153.5,230.36667" id="svg_20" stroke-width="3" stroke="#000" fill="none"/>
  <path t="66679,66854,66854,66870,66896,66954,66974,66995,67005,67045,67086,67086,67101,67110,67118,67143,67151,67163,67166,67213,67222,67238,67254,67264,67270,67274,67286,67290,67317,67349,67366,67386,67402,67419,67438,67461,67486,67486,67509,67518,67549,67558,67581,67598,67625,67645,67657,67664,67670,67686,67709,67721,67741,67765,67781,67790,67815,67830,67846,67861,67877,67878,67897,67964,67985,67985,67985,67987,67987,67987,67995,68006,68007,68010,68102,68118,68166,68189,68198,68221,68232,68247,68270,68312,68312,68339,68340,68359,68375,68400,68447,68583,68619,68620,68711,68727,68848" d="M346.5,154.66667C346.5,155.66667 346.5,156.46666 346.5,157.36667C346.5,158.26666 346.5,159.23067 346.5,160.10266C346.5,160.96666 346.58212,161.87044 346.49985,162.76666C346.41617,163.67812 345.99548,164.44873 345.5,165.14583C345.04068,165.79204 344.13034,166.09581 343.62149,166.88817C343.14233,167.63426 343.18884,168.43025 342.55267,169.01933C341.97708,169.55231 341.38812,170.14604 340.85266,170.71933C340.21265,171.40456 339.67288,172.0186 339.14734,172.614C338.58408,173.25214 338.09634,173.85965 337.41599,174.38266C336.80472,174.85255 335.79999,174.66667 334.89999,174.66667C334,174.66667 333.10001,174.66667 332.20001,174.66667C331.29999,174.66667 330.39999,174.66667 329.5,174.66667C328.70001,174.66667 327.79999,174.66667 326.89999,174.66667C326,174.66667 325.0575,174.6071 324.47467,174.092C323.88687,173.57251 323.21478,172.98825 322.58401,172.38266C322.01114,171.83266 321.79214,171.09193 321.48932,170.27733C321.21664,169.54385 320.31436,169.17375 319.784,168.58267C319.24557,167.9826 319.03418,167.00128 318.52533,166.27733C318.02252,165.562 317.31439,165.17793 316.66666,164.5C316.06259,163.86778 315.65274,163.26225 315.216,162.46666C314.86023,161.81856 314.30652,161.06174 313.7955,160.4425C313.13348,159.64027 313.10254,158.94322 312.79999,157.963C312.5025,156.99922 312.19144,156.19066 311.936,155.524C311.56628,154.55908 311.5372,153.6658 311.5,152.86667C311.45728,151.94902 310.74817,151.3537 310.216,150.75067C309.64957,150.10884 309.5,149.36667 309.5,148.46666C309.5,147.56667 309.82181,146.52878 309.33334,145.83333C308.83102,145.11813 308.57489,144.45158 308.41467,143.78133C308.18231,142.80913 307.66479,142.17554 307.52084,141.1875C307.38806,140.27605 307.5,139.36667 307.5,138.46666C307.5,137.56667 307.5,136.66667 307.5,135.86667L307.5,134.96666L307.5,134.06667L307.5,133.16667" id="svg_21" stroke-width="3" stroke="#000" fill="none"/>
  <path t="72236,72395,72395,72439,72653,72654,72677,72689,72805,72805,72821,72981,73012,73069,73082,73097,73109,73197,73209,73221,73241,73253,73253,73277,73389,73413,73436,73525,73533,73943,73951,73999,74007,74007,74015,74335,74355,74419,74419,74435,74447,74455,74575,74595,74627,74640,74655,74655,74666,74675,74687,74691,74700,74711,74735,74812,74813,74839,74979,75135,75151,75305,75321,75345,75350,75350,75385,75401,75410,75413,75425,75433,75545,75553,75553,75561,75593" d="M346.5,164.66667C347.5,165.66667 347.61462,166.45059 348,167.1875C348.41037,167.97215 348.49466,168.84129 348.5,169.78133C348.50558,170.76665 348.5,171.66667 348.5,172.46666C348.5,173.36667 348.5,174.26666 348.5,175.16667C348.5,176.06667 348.5,176.96666 348.5,177.86667C348.5,178.76666 348.17819,179.80457 348.66666,180.5C349.16898,181.21519 349.5,181.76666 349.5,182.66667C349.5,183.46666 349.5,184.36667 349.5,185.26666C349.5,186.16667 349.76785,187.10907 349.49551,187.96217C349.23358,188.78268 348.50589,189.29395 348.07468,190.06667C347.61768,190.88559 347.5372,191.66754 347.5,192.46666C347.45728,193.38431 346.56088,193.8819 346.5,194.76666C346.4382,195.66455 346.5,196.46666 346.5,197.36667C346.5,198.26666 346.5,199.16667 346.5,200.06667C346.5,200.96666 346.5,201.86667 346.5,202.76666C346.5,203.66667 346.5,204.46666 346.5,205.36667C346.5,206.26666 346.5,207.16667 346.5,208.06667C346.5,208.96666 346.5,209.86667 346.5,210.76666C346.5,211.66667 346.5,212.46666 346.5,213.36667C346.5,214.26666 346.5,215.16667 346.5,216.06667C346.5,216.96666 346.5,217.86667 346.5,218.76666C346.5,219.66667 346.69595,220.5011 346.44284,221.36667C346.18619,222.24431 345.62338,223.01791 345.07468,223.64133C344.56024,224.2258 343.82446,224.58609 343.10001,225.10266C342.31454,225.66273 341.85718,226.36667 341.5,227.14583L340.85266,227.71933" id="svg_22" stroke-width="3" stroke="#000" fill="none"/>
  <path t="76561,76602,76607,76611,76619,76623,76633,76635,76643,76656,76659,76659,76667,76671,76671,76675,76682,76691,76707,76716,76720,76727,76734,76737,76739,76739,76743,76749,76749,76750,76755,76759,76842,76850,76859,76865,76868,76883,76887,76888,76891,76907,76955,76966,76981,77010,77022,77032,77035,77048,77055,77059,77070,77083,77083,77095,77103,77107,77116,77123,77132,77139,77155,77168,77172,77181,77183,77191,77195,77195,77203,77207,77215,77219,77220,77227,77235,77249,77249,77265,77275,77282,77285,77291,77299,77307,77311,77311,77321,77327,77332,77339,77351,77355,77375,77383,77383,77391,77396,77403,77407,77411,77418,77427,77434,77450,77475,77475,77483,77487,77499,77501,77501,77503,77503,77507,77511,77511,77516,77519,77519,77523,77523,77527,77533,77535,77539,77539,77544,77549,77551,77602,77624,77627,77636,77641,77644,77664,77664,77671,77671,77672,77675,77675,77684,77699,77711,77711,77734,77754,77770,77779,77787,77795,77803,77813,77813,77821,77835,77837,77853,77866,77884,77884,77894,77907,77916,77918,77927,77933,77933,77942,77944,77966,77972,77972,77982,78028,78053,78061,78076,78088,78108,78140,78140,78147,78155,78155,78204,78232,78237,78241" d="M338.5,216.66667C338.33334,218.5 337.73642,218.97783 337.14734,219.614C336.61435,220.18959 335.9014,220.67577 335.44733,221.37117C334.95245,222.12906 334.10229,222.48376 333.54816,223.02383C332.91055,223.64525 332.19922,224.12947 331.66934,224.86667C331.16293,225.57124 330.67816,226.11388 329.936,226.692C329.31198,227.1781 328.82159,227.9519 328.216,228.58267C327.66602,229.15555 327.05911,229.72693 326.47467,230.24133C325.85123,230.79005 324.99487,231.18222 324.39999,231.76666C323.79471,232.36134 323.12335,233.11223 322.33334,233.66667C321.71002,234.10414 321.20834,234.58882 320.45184,235.30949C319.87231,235.86157 319.01736,236.27419 318.58533,236.952C318.09219,237.72565 317.89215,238.40575 317.53601,239.10266C317.09683,239.96208 317.14059,240.819 316.784,241.46666C316.30847,242.33034 315.89249,243.14929 315.21466,243.58133C314.44101,244.07445 313.76114,244.27498 313.064,244.63066C312.29755,245.0217 311.43976,245.10754 310.92532,245.692C310.37662,246.31543 310.04361,247.19283 309.55267,247.96217C309.1026,248.6675 308.28452,248.93452 307.70001,249.468C306.98032,250.12489 306.15903,250.55518 305.52533,251.092C304.93182,251.59477 304.15643,251.73363 303.47467,252.24133C302.83386,252.71855 301.87997,252.66396 301.10001,253.092C300.27826,253.54297 299.82236,254.23355 299.064,254.63066C298.29776,255.03191 297.37518,254.85947 296.70001,255.468C296.07599,256.03046 295.29535,256.54172 294.39999,256.66684C293.49353,256.79349 292.90549,257.25317 292,257.66666C291.20471,258.02982 290.4631,258.40356 289.70001,258.75067C288.84573,259.13925 288.06088,259.40628 287.2045,259.67117C286.44119,259.90726 285.97931,260.65405 285.10001,260.66666C284.2001,260.67957 283.36163,261.05273 282.70001,261.38266C281.85663,261.80322 280.79742,261.26846 279.936,261.70267C279.23712,262.05493 278.58783,262.30234 277.85718,262.72385C277.04608,263.19177 276.46176,263.49313 275.70001,263.75201C274.8121,264.05377 274.10052,264.64798 273.20001,264.66666C272.30151,264.68527 271.76212,265.27692 271.064,265.63068C270.29263,266.02155 269.29999,265.66666 268.39999,265.66666C267.5,265.66666 266.66559,265.47073 265.79999,265.72385C264.92239,265.9805 264.17923,266.55789 263.33334,266.83334C262.47992,267.11124 261.67776,267.57837 260.8045,267.66217C259.98291,267.74103 259.01599,267.66449 258.15268,267.66666C257.25266,267.66891 256.332,267.82993 255.67467,268.09201C254.66457,268.49475 253.89044,268.49408 253,268.6875C252.15364,268.87134 251.40611,269.60577 250.5,269.66666C249.7018,269.72028 248.8,269.66666 247.89999,269.66666C247,269.66666 246.10001,269.66599 245.2,269.66666C244.30133,269.66733 243.76212,270.27692 243.064,270.63068C242.29263,271.02155 241.29601,270.66666 240.444,270.66666C239.448,270.66666 238.82401,270.66656 237.858,270.66666C236.7645,270.66675 235.90189,270.64056 235.2,271.01935C234.35753,271.47403 233.5,271.66666 232.7,271.66666C231.8,271.66666 230.89999,271.66666 230,271.66666C229.10001,271.66666 228.2,271.66666 227.3,271.66666C226.39999,271.66666 225.5,271.66666 224.7,271.66666C223.8,271.66666 222.89999,271.66666 222,271.66666C221.10001,271.66666 220.14336,271.80322 219.3,271.38266C218.63835,271.05273 217.79993,270.67932 216.89999,270.66666C215.99985,270.65399 215.29669,270.12347 214.39999,269.78818C213.54936,269.47009 212.7,269.66666 211.8,269.66666C210.89999,269.66666 210.08934,269.66666 209.17867,269.66666C208.32533,269.66666 207.26811,269.88882 206.584,269.38266C205.89413,268.87222 205.55881,268.08932 204.88933,267.64133C204.1539,267.1492 203.23294,266.90292 202.39999,266.44516C201.72498,266.07419 201.10921,265.25732 200.5,264.66666C199.90878,264.09344 199.10001,263.69199 198.2,263.314L197.5,262.83334L196.66667,262.5" id="svg_23" stroke-width="3" stroke="#000" fill="none"/>
  <path t="79626,79734,79739,79742,79747,79755,79766,79770,79771,79778,79784,79793,79793,79806,79820,79820,79878,79902" d="M343.5,221.66667C342.2785,222.54517 341.3956,222.57799 340.5,222.66667C339.6543,222.75041 339.21762,223.62387 338.29999,223.66667C337.40097,223.7086 336.64529,223.6769 335.89999,224.27733C335.24579,224.80438 334.37888,225.28026 333.78534,225.75067C333.04666,226.33612 332.39999,226.88817 331.79999,227.37117L331.20001,227.96217L330.39999,228.54517" id="svg_24" stroke-width="3" stroke="#000" fill="none"/>
  <path t="83180,83347,83359,83367,83419,83432,83451,83455,83541,83547,83547,83548,83550,83550,83553,83559,83582,83582,83584,83584,83603,83611,83631,83631,83639,83643,83659,83669,83676,83691,83713,83729,83751,83751,83771,83843,83867,83891,83915,83939,83987,83997" d="M192.5,258.66666C190.8,258.66666 190.11282,258.35217 189.33333,257.83334C188.62587,257.36246 187.62854,257.50671 187.5,256.66666C187.37831,255.87138 186.96138,255.11621 186.16667,254.5C185.51335,253.99342 184.78673,253.45972 183.83333,253C183.19281,252.69115 182.04138,252.84804 181.52533,252.23067C180.99606,251.59749 180.63953,250.82361 179.84734,250.37117C179.17291,249.98599 178.12839,249.78392 177.3,249.66533C176.38284,249.53403 175.8437,248.86813 174.89999,248.67734C174.0377,248.50301 173.50571,247.84857 172.69867,247.668C171.82169,247.47177 170.87482,247.67862 170.10001,247.24133C169.3737,246.83144 168.46811,246.54013 167.89999,246.056C167.15465,245.42084 166.35028,245.08156 165.66667,244.5C165.00066,243.93341 164.52533,243.24133 164,242.66667L163.44733,242.01933L162.784,241.58267" id="svg_25" stroke-width="3" stroke="#000" fill="none"/>
  <path t="84518,84629,84661,84670,84674,84677,84682,84690,84765,84773,84781,84793,84793,84801" d="M192.5,254.66667C192.66667,256.5 193.29269,256.90439 193.50017,257.76651C193.70235,258.60663 194.21748,259.06668 194.5045,259.96216C194.74837,260.72302 195.32835,261.29282 195.85716,261.96216C196.44261,262.70322 197.5,262.83334 198.10001,263.24133L198.89999,263.64133" id="svg_26" stroke-width="3" stroke="#000" fill="none"/>
  <path t="89118,89247,89255,89259,89272,89287,89303,89318,89334,89351,89351,89355,89367,89383,89442,89467,89480,89500,89509,89541,89541,89569,89588,89601,89617,89653" d="M363.5,73.66666C365.20001,73.66666 366.29266,73.31178 367.064,73.70267C367.76212,74.05645 368.04764,75.11273 368.78534,75.58134C369.47662,76.02045 370.26126,76.02831 370.7215,76.7665C371.16861,77.48366 371.97202,77.86652 372.66666,78.5C373.26581,79.04638 374.1102,79.40456 374.46399,80.10267C374.85489,80.87402 374.5,81.86667 374.5,82.76667C374.5,83.66666 374.5,84.46667 374.5,85.36667C374.5,86.26667 374.5,87.16666 374.5,88.06667L374.5,88.96667" id="svg_27" stroke-width="3" stroke="#000" fill="none"/>
  <path t="90385,90509,90557,90582,90765,90813,90829" d="M368.5,84.66666C368.5,86.46667 368.55716,87.3095 369.33334,87.83334L369.72134,88.54533L370.44284,89.02383L370.5,89.86667" id="svg_28" stroke-width="3" stroke="#000" fill="none"/>
  <path t="91489,91591,91591,91611,91628,91655,91695,91719,91723,91759,91775,91784,91798,91804,91822,91833,91849,91919,91929,91939,91951,91960,91983,92031,92035,92047,92055,92055,92151,92167,92183,92191,92203,92207,92216,92233,92233,92255,92273,92297,92305,92318,92321,92337,92348,92348,92357,92377,92393,92405,92409,92417,92433,92468,92470,92481,92498,92514,92514,92537,92553,92557,92563,92573,92581,92589,92594,92594,92601,92618,92641,92665,92705,92817,92829,92857,92881,92886,92890,92890,92897,92905,92917,92931,93050,93058,93074,93105,93161,93179,93202,93233,93234,93290" d="M370.5,87.66666C370.5,88.66666 370.5,89.46667 370.5,90.36667C370.5,91.26667 370.5,92.16666 370.5,93.06667C370.5,93.96667 370.34067,94.96455 370.85266,95.614C371.33719,96.22861 371.51068,97.056 372,97.66666C372.48932,98.27734 372.44708,99.20141 372.85266,99.96667C373.30096,100.81257 373.17819,101.80456 373.66666,102.5C374.16898,103.21519 374.38922,103.77351 374.5,104.66666C374.61151,105.5659 375.45728,105.94903 375.5,106.86667C375.54184,107.76569 375.5,108.66666 375.5,109.46667C375.5,110.36667 375.5,111.26667 375.5,112.16666C375.5,113.06667 375.5,113.96667 375.5,114.86667C375.5,115.76667 375.5,116.66666 375.5,117.46667C375.5,118.36667 375.5,119.26667 375.5,120.16666C375.5,121.06667 375.5,121.96667 375.5,122.86667C375.5,123.76667 375.5,124.66666 375.5,125.46667C375.5,126.36667 375.5,127.26667 375.5,128.16667C375.5,129.06667 375.42694,130.01685 375.92532,130.64133C376.41052,131.2493 376.5,132.06667 376.5,132.96666C376.5,133.86667 376.5,134.76666 376.5,135.66667C376.5,136.46666 376.5,137.36667 376.5,138.26666C376.5,139.16667 376.5,140.06667 376.5,140.96666C376.5,141.86667 376.5,142.76666 376.5,143.66667C376.5,144.46666 376.5,145.36667 376.5,146.26666C376.5,147.16667 376.50067,148.06667 376.5,148.96666C376.49933,149.86534 376.14413,150.63808 375.20001,150.66667C374.30042,150.69392 373.33386,150.87732 372.5,150.5C371.84604,150.20409 371.57297,149.13036 371.14734,148.36667C370.73395,147.62494 370.23068,146.97124 369.58401,146.38266C368.94937,145.80502 368.51044,145.14601 368.5,144.26666C368.48932,143.36673 368.5,142.46666 368.5,141.56667L368.5,140.66667L368.5,139.86667L368.5,138.96666" id="svg_29" stroke-width="3" stroke="#000" fill="none"/>
  <path t="95921,96072,96072,96077,96080,96085,96085,96089,96093,96098,96101,96104,96110,96110,96116,96118,96118,96121,96124,96129,96137,96160,96267,96284,96300,96312,96320,96324,96338,96339,96351,96364,96370,96382,96398,96434,96434,96446,96446,96458,96464,96606,96633,96662,96694,96707,96711,96719,96723,96723,96733,96733,96735,96735,96739,96743,96748,96751,96759,96902,96918,96919,96931,96943,96950,96966,96982,96983,96998,96998,97002,97087,97103,97143,97167,97191,97198,97343,97351,97360,97375,97399,97439,97446,97543,97590,97622,97647,97678,97689,97714,97760,97784,97784,97789,97789,97798,97798,97817,97960,97984,97993,98032,98064,98069,98072,98077,98081,98093,98112,98120,98120,98168,98186,98189,98200,98213,98224,98232,98233,98247,98261,98280,98288,98304,98328,98340,98392,98416,98424,98437,98448,98448,98453,98456,98464,98468,98488,98544,98568,98572,98584,98588,98597,98609,98620,98620,98633,98645,98645,98660,98677,98686,98693,98697,98700,98709,98716,98732,98737,98747,98761,98772,98784,98793,98793,98804,98818,98849,98881,98881,98881,98914,98915,98946,98959,98992,99040,99040,99058,99114,99122,99122,99131,99138,99154,99242,99258,99282,99306,99314,99318,99330,99334,99343,99350,99364,99426,99440,99443,99448,99459,99470,99470,99476" d="M349.5,192.66667C349.92532,192.34399 350.07751,191.64209 350.41599,190.63867C350.72339,189.72737 351.72858,189.55928 352.14282,188.96217C352.69012,188.17323 352.33273,187.05739 352.85718,186.37117C353.43054,185.62093 354.2489,185.38272 354.7215,184.56667C355.10751,183.90012 355.81091,183.37741 356.5,182.66667C357.07321,182.07545 357.50757,181.30682 358.07468,180.64133C358.58347,180.04427 359.42456,179.73123 359.97916,179.14583C360.66684,178.41995 361.08344,177.64137 361.52533,178.27733C362.03027,179.00401 362.45728,179.86365 362.5,180.76666C362.54251,181.66566 362.5,182.46666 362.5,183.36667C362.5,184.26666 362.5,185.16667 362.5,186.06667C362.5,186.96666 362.57489,187.88174 362.41467,188.552C362.18231,189.52422 361.6705,190.15865 361.52084,191.14583C361.38272,192.05679 360.56158,193.07318 360.97198,193.63066C361.52258,194.37856 362.81589,193.83368 363.69867,193.66533C364.45602,193.5209 364.98288,192.78883 365.70132,192.38133C366.44659,191.95862 367.16666,191.39 367.84732,190.96666C368.76266,190.39738 369.22318,189.77884 370,189.1875C370.73447,188.62842 371.3248,188.17996 372.02084,187.66667C372.70917,187.15907 373.59387,186.72755 374.5,186.66667C375.29819,186.61304 376.20007,186.65627 377.10001,186.66667C378.00018,186.67709 378.81381,187.00909 379.5,187.66667C380.01053,188.15591 380.62411,188.96971 381.29999,189.38133C382.14246,189.89442 382.49933,190.468 382.5,191.36667C382.50067,192.26666 382.80988,193.22639 382.48932,194.056C382.18292,194.84891 381.50266,195.48465 382.30133,195.66533C383.17786,195.86362 384.10004,195.67207 385,195.66667C385.8894,195.66133 386.37375,194.94063 387.11066,194.67734C388.04239,194.34444 389,194.66667 389.89999,194.66667C390.79999,194.66667 391.8024,194.48383 392.41599,194.95067C393.10403,195.47415 393.76523,195.89453 394.29999,196.55333C394.8765,197.26355 395.17374,198.03206 395.7955,198.9095C396.198,199.47751 396.49774,200.36665 396.5,201.26666C396.50226,202.16667 396.31509,203.31403 397.02084,203.64583C397.90714,204.06253 398.90558,203.65775 399.5,204.16667C400.09146,204.67305 400.72513,205.20998 401.37866,205.888C401.93729,206.46756 402.7565,206.75784 403.21466,207.468C403.67252,208.17769 403.5,209.16667 403.5,210.06667C403.5,210.96666 403.5,211.86667 403.5,212.76666C403.5,213.66667 403.5,214.46666 403.5,215.36667C403.5,216.26666 403.8667,217.24638 403.47916,218.14583C403.17136,218.86018 402.50226,219.37115 402.5,220.26666C402.49774,221.16667 402.25226,222.10291 402.50449,222.96217C402.73111,223.73425 403.81659,224.00583 404.29999,224.468C405.00427,225.14134 405.39072,226.00577 405.92532,226.64133C406.47153,227.29068 407.2045,227.71933 408,228.16667C408.7955,228.614 409.43643,229.02879 410,229.66667C410.5155,230.25015 410.98874,230.95366 411.7215,231.54533C412.36731,232.06682 413.15796,232.41714 413.79999,232.96217C414.55472,233.60287 415.45343,233.57857 416.064,234.27733C416.64624,234.94368 416.49991,235.96666 416.5,236.86667C416.50009,237.76649 417.0484,238.336 417.44284,239.02383C417.91272,239.84323 417.37598,240.87527 417.50015,241.76649C417.61188,242.56839 418.47141,243.02238 418.5,243.86667C418.53046,244.76614 418.5,245.66667 418.5,246.46666C418.5,247.36667 418.41754,248.27211 418.52084,249.20833C418.63281,250.22305 418.93918,250.91333 419.14734,251.66133C419.43384,252.69086 419.3027,253.49864 419.55716,254.36667C419.81436,255.24414 420.33643,256.0137 420.72134,256.76666C421.11151,257.52988 421.8114,258.05142 422.33334,258.83334C422.80515,259.54016 422.5,260.46667 422.5,261.36667C422.5,262.26666 422.21091,263.21863 422.51068,264.056C422.77441,264.79272 423.70016,265.14178 424.33334,265.83334C424.88089,266.43137 425.23917,267.27435 425.936,267.63068C426.78583,268.06522 427.37704,268.38364 428.11066,268.65601C428.94492,268.96573 430.01096,268.89685 430.37851,269.76666C430.73199,270.60321 430.66666,271.5 431.41599,271.952L431.72134,272.76666L432.14734,273.36667L432.52533,274.23065" id="svg_30" stroke-width="3" stroke="#000" fill="none"/>
  <path t="102585,103110,103118,103143,103193,103232,103233,103241,103253,103261,103269,103269,103281,103293,103293,103301,103424,103448,103448,103460,103465,103473,103496,103536,103560,103576,103577,103588,103604,103632,103664,103664,103681,103689,103768,103794,103795,103840" d="M393.5,184.66667C393.70001,184.66667 394.84738,185.05609 395.37851,184.44516C395.96036,183.77586 395.69379,182.62123 395.41467,181.86667C395.09299,180.99707 394.05869,180.78281 393.29999,180.38266C392.44162,179.92995 391.73825,179.70633 391,179.14583C390.22394,178.55661 389.56293,178.18541 388.85718,177.614C388.1265,177.02242 387.45456,176.47287 386.70001,176.752C385.83041,177.07368 385.51459,178.04694 385,178.66667C384.50009,179.26871 384.5,180.16667 384.5,181.07733C384.5,181.98801 384.34161,182.85503 384.50134,183.78C384.64603,184.61777 385.60001,184.66667 386.5,184.66667C387.29999,184.66667 388.32257,184.25546 389.14282,184.72383C389.95599,185.18816 390.5,185.66667 391.29999,185.66667L392.20001,185.66667" id="svg_31" stroke-width="3" stroke="#000" fill="none"/>
  <path t="104297,104380,104388,104392,104408,104456,104488,104504,104520,104538,104646,104666,104694,104717,104717,104724,104770,104772,104772,104772,104780,104781,104875" d="M414.5,187.66667C412.79999,187.66667 411.89999,187.66667 411,187.66667C410.10001,187.66667 408.85349,187.48218 408.52084,188.1875C408.14572,188.98289 408.49991,189.96666 408.5,190.86667C408.50009,191.76649 408.71524,192.60577 409.60001,192.66667C410.49786,192.72847 411.4342,193.06589 412.21466,192.58133C412.94678,192.12679 413.14459,191.1062 413.78665,190.42667C414.24637,189.94009 415.16666,189.16667 415.81732,188.76401L416.46399,188.23067" id="svg_32" stroke-width="3" stroke="#000" fill="none"/>
  <path t="105258,105402,105408,105415,105423,105426,105434,105434,105443,105451,105459,105466,105466,105474,105474,105482,105491,105498,105511,105542,105554,105565,105570,105570,105586,105618,105681,105698,105707,105710,105722,105731,105734,105742,105748,105754,105765,105802,105818,105818,105931,105979" d="M424.5,197.66667C424.5,199.46666 424.50601,200.36668 424.5,201.26666C424.49466,202.06673 424.03806,202.90305 423.66666,203.66667C423.29999,204.42056 422.95584,205.40573 422.10001,205.63066C421.2287,205.85966 420.44894,205.97552 419.74283,206.314C418.89246,206.7216 417.98401,206.666 417.02084,206.66667C416.10001,206.66731 415.20001,206.66667 414.29999,206.66667C413.39999,206.66667 412.26758,207.10094 411.66666,206.5C411.06573,205.89908 411.5,204.86667 411.5,203.96666C411.5,203.06667 411.19009,202.10695 411.51068,201.27733C411.81708,200.48442 412.50043,199.87411 413.30133,199.668C414.17349,199.44354 414.92258,198.98117 415.79999,198.72383C416.66418,198.47038 417.25043,198.21869 417.936,197.692C418.58963,197.18985 419.5,196.83333 420.29999,196.668L421.20001,196.66667L422.10001,196.66667" id="svg_33" stroke-width="3" stroke="#000" fill="none"/>
  <path t="106444,106655,106671,106707,106708,106723,106731,106735,106736,106747,106801,106830,106830,106848,106862,106874,106885,106909,106963,106980,106980,106983,106987,106995,107007,107011,107043,107083,107131,107143,107159,107165" d="M429.5,207.66667C431.02802,207.66667 430.12448,207.49472 429.29999,207.952C428.60794,208.3358 427.93741,209.12106 427.58401,209.86667C427.177,210.72537 426.61749,211.04346 425.936,211.692C425.37534,212.22556 426.5,212.66667 427.29999,212.66667C428.20001,212.66667 429.10001,212.66667 430,212.66667C430.89999,212.66667 431.80472,212.75755 432.70001,212.66533C433.5126,212.58163 433.94717,211.84483 434.52533,211.10266C435.01144,210.47865 435.91763,210.11224 436.37851,209.44516C436.88254,208.71564 437.0484,207.99734 437.44284,207.30949C437.91272,206.4901 437.5,205.46666 437.5,204.56667L437.5,203.66667" id="svg_34" stroke-width="3" stroke="#000" fill="none"/>
  <path t="109495,109567,109575,109597,109613,109615,109632,109663,109686,109702,109715,109715,109724,109727,109735,109743,109747,109755,109759,109766,109775,109792,109793,109799,109815,109833,109839,109840,109855,109945,110000,110000,110006,110006,110007,110007,110007,110017,110017,110030,110042,110048,110057,110057,110065,110069,110073,110084,110094,110100,110101,110113,110117,110125,110141,110141,110148,110153,110157,110163,110169,110180,110182,110182,110185,110194,110194,110209,110209,110213,110217,110218,110221,110232,110241,110241,110268,110280,110289,110289,110293,110300,110309,110317,110317,110321,110325,110333,110337,110341,110356,110357,110364,110369,110377,110389,110389,110397,110405,110409,110413,110417,110421,110425,110425,110437,110447,110452,110452,110457,110462,110492,110504,110505,110509,110528,110540,110549,110549,110553,110561,110569,110580,110589,110593,110604,110616,110617,110625,110636,110650,110657,110661,110668,110669,110681,110684,110693,110698,110706,110706,110713,110713,110719,110725,110727,110732,110744,110768,110777,110781,110793,110801,110801,110805,110816,110821,110821,110825,110833,110837,110849,110857,110863,110873,110877,110877,110882,110886,110893,110899,110901,110908,110915,110918,110918,111057,111062,111069,111073,111073,111081,111089,111089,111101,111101,111258,111269,111285" d="M492.5,46.66667C490.79999,46.66667 489.89999,46.66667 489,46.66667C488.10001,46.66667 487.10202,46.66676 486.5,47.16667C485.88028,47.68127 485.15427,48.19408 484.29999,48.58267C483.5369,48.92978 482.68179,49.11481 481.936,49.692C481.31046,50.17613 480.69867,50.666 479.79999,50.66667C478.89999,50.66734 478,50.66667 477.10001,50.66667C476.20001,50.66667 475.25153,50.82019 474.5,50.5C473.71878,50.16717 472.87912,49.682 472.47467,49.056C471.99182,48.30864 471.29807,47.64524 470.85718,46.96667C470.34238,46.17433 469.78934,45.73981 468.89584,45.625C468.26532,45.54398 467.29239,45.22711 466.43668,44.96133C465.49893,44.67007 465.02917,44.50917 464.12,44.23467C463.01047,43.89968 462.10489,43.6875 461.20001,43.66667C460.30023,43.64595 459.39871,43.71447 458.5,43.66667C457.69659,43.62394 456.96283,42.91972 456.10001,42.70267C455.2265,42.48293 454.29999,42.66667 453.39999,42.66667C452.5,42.66667 451.69958,42.69392 450.79999,42.66667C449.85587,42.63807 449.44818,41.81029 448.5,41.66667C447.70905,41.54686 446.70734,42.02156 445.936,41.63067C445.23788,41.27689 444.69867,40.66734 443.79999,40.66667C442.86401,40.66597 442.00195,40.77429 441.15268,40.6095C440.22693,40.42987 439.51266,39.75463 438.74283,39.67117C437.85254,39.57463 436.98401,39.66667 436,39.66667C435.01599,39.66667 434.32535,39.66667 433.25717,39.66667C432.39999,39.66667 431.5,39.66667 430.70001,39.66667C429.79999,39.66667 428.86401,39.66667 428.01599,39.66667C427.15268,39.66667 426.25717,39.66658 425.29999,39.66667C424.39999,39.66675 423.52826,39.87836 422.89999,40.24133C422.05435,40.7299 421.55637,41.4183 420.7955,41.66217C419.90002,41.94919 419.44818,42.52305 418.5,42.66667C417.70905,42.78647 416.79312,42.71163 416,43.16667C415.2937,43.5719 414.44308,43.95637 413.79999,44.314C412.94687,44.78842 412.08118,45.08313 411.58401,45.86533C411.11911,46.59679 410.64523,47.11478 410.49551,47.96667C410.33237,48.89485 409.85983,49.49881 409.44733,50.36667C409.04941,51.20383 408.29807,51.68809 407.85718,52.36667C407.34238,53.159 407.04837,53.99667 406.33334,54.5C405.6384,54.98919 404.56964,54.27371 403.78534,54.752C402.98172,55.24207 402.39999,55.66667 401.5,55.66667C400.70001,55.66667 399.79999,55.66667 398.89999,55.66667C398,55.66667 397.10001,55.66667 396.20001,55.66667C395.29999,55.66667 394.39999,55.66667 393.5,55.66667C392.70001,55.66667 391.79993,55.67708 390.89999,55.66667C389.99982,55.65625 389.29672,55.12347 388.39999,54.78817C387.54935,54.47009 386.69983,54.68466 385.79999,54.66667C384.89944,54.64867 384.18793,54.05376 383.29999,53.752C382.53824,53.49312 381.60583,53.60541 380.84732,53.314C379.97296,52.97809 379.09546,52.93689 378.2045,52.66217C377.44098,52.42675 376.97934,51.67709 376.10001,51.66667C375.20007,51.65601 374.22321,51.79805 373.55267,51.314C372.85248,50.80855 372.01599,50.66667 371.32535,50.66667C370.25717,50.66667 369.39999,50.66667 368.5,50.66667C367.70001,50.66667 366.79999,50.66667 365.89999,50.66667C365,50.66667 364.10001,50.66667 363.20001,50.66667C362.29999,50.66667 361.39999,50.66667 360.5,50.66667C359.70001,50.66667 358.79999,50.66667 357.89999,50.66667C357,50.66667 356.10001,50.66667 355.20001,50.66667C354.29999,50.66667 353.39999,50.66667 352.5,50.66667C351.70001,50.66667 350.79999,50.66667 349.89999,50.66667C348.97916,50.66667 348.01599,50.66667 347.32535,50.66667C346.384,50.66667 345.33334,50.66667 344.67465,50.66667C343.66666,50.66667 342.8045,50.66667 341.89999,50.66667L341,50.66667L340.10001,50.66667" id="svg_35" stroke-width="3" stroke="#000" fill="none"/>
  <path t="112251,112322,112330,112339,112350,112355,112358,112365,112374,112374,112386,112396,112462,112471,112474,112486,112570,112582,112586,112604,112609,112620,112630,112637,112641,112647,112654,112654,112657,112661,112667,112670,112673,112684,112689,112698,112701,112717,112746,112762,112767,112772,112773,112781,112785,112785,112789,112792,112798,112801,112805,112817,112852,112852,112864,112868,112876,112881,112881,112885,112885,112889,112889,112889,112892,112898,112898,112901,112901,112905,112909,112915,112917,112966,112984,112992,112997,112997,113004,113008,113015,113020,113032,113084,113097,113105,113105,113109,113116,113118,113121,113125,113131,113136,113147,113147,113149,113157,113160,113166,113196,113205,113214,113221,113222,113230,113237,113237,113247,113248,113250,113263,113268,113268,113300,113316,113320,113321,113324,113329,113332,113332,113336,113340,113340,113346,113352,113352,113356,113356,113363,113363,113372,113404,113404,113420,113430,113436,113437,113448,113454,113454,113457,113464,113465,113473,113474,113476,113482,113485,113489,113489,113498,113501,113508,113514,113521,113530,113533,113533,113540,113548,113553,113568,113577,113582,113585,113585,113589,113589,113592,113598,113598,113601,113604,113605,113608,113609,113614,113615,113621,113621,113632,113633,113637,113645,113645,113668,113688,113706,113764,113772,113776,113781,113790,113790,113795,113801,113863,113878,113899,113902,113902,113906,113907,113912,113921,113924,113929,113932,113932,113936,113937,113940,113944,113945,113954,113959,113959,113965,113965,113969,113976,113984,113992,114002,114003,114049,114055,114055,114055,114055,114068,114069,114076,114095,114101,114117,114120,114133,114136,114137,114150,114159,114167" d="M204.5,59.66667C202.8,59.66667 201.89999,59.66667 201,59.66667C200.10001,59.66667 199.2,59.66667 198.3,59.66667C197.39999,59.66667 196.5,59.66667 195.7,59.66667C194.8,59.66667 193.89999,59.66667 193,59.66667C192.10001,59.66667 191.2,59.66667 190.3,59.66667C189.39999,59.66667 188.26167,59.39257 187.62134,59.888C186.98561,60.37988 186.19995,60.5046 185.55267,61.01933C184.93356,61.51167 184.09659,61.94718 183.66667,62.66667C183.2063,63.43713 182.46811,63.7932 181.89999,64.27734C181.15465,64.91251 180.25621,65.3215 179.62134,65.888C179.02124,66.42347 178.69315,67.33719 177.97917,67.64584C177.17195,67.99479 176.16614,67.61479 175.52533,68.092C174.84355,68.59972 174,68.66666 173.10001,68.66666C172.2,68.66666 171.29866,68.66666 170.61467,68.66666C169.67467,68.66666 168.66667,68.66666 167.8045,68.66666C166.89999,68.66666 166,68.66666 165.10001,68.66666C164.2,68.66666 163.3,68.66666 162.39999,68.66666C161.5,68.66666 160.69981,68.64867 159.8,68.66666C158.89946,68.68467 158.18159,69.25462 157.39967,69.54517C156.57608,69.85118 155.73067,69.66666 154.97917,69.66666C153.66667,69.66666 152.96167,69.66666 152.16167,69.66666C151.12534,69.66666 150.17867,69.66666 149.5,69.66666C148.5215,69.66666 147.70134,69.66666 146.8,69.66666C145.89999,69.66666 145,69.66666 144.10001,69.66666C143.2,69.66666 142.3,69.66666 141.39999,69.66666C140.5,69.66666 139.7,69.66666 138.8,69.66666C137.89999,69.66666 137,69.66666 136.10001,69.66666C135.2,69.66666 134.3,69.66666 133.39999,69.66666C132.5,69.66666 131.7,69.66666 130.8,69.66666C129.89999,69.66666 129,69.66666 128.10001,69.66666C127.2,69.66666 126.3,69.66666 125.4,69.66666C124.5,69.66666 123.7,69.66666 122.8,69.66666C121.9,69.66666 121,69.66666 120.1,69.66666C119.2,69.66666 118.3,69.66666 117.4,69.66666C116.5,69.66666 115.7,69.66666 114.74284,69.66666C113.84283,69.66666 113.0955,69.66666 112.10133,69.66666C111.336,69.66666 110.25716,69.66666 109.4,69.66666C108.5,69.66666 107.7,69.66666 106.8,69.66666C105.864,69.66666 105.016,69.66666 104.15266,69.66666C103.136,69.66666 102.3,69.66666 101.39983,69.66666C100.61467,69.66666 99.63647,69.51732 98.66666,69.83334C97.97565,70.05851 97.19671,70.63807 96.1785,70.66666C95.47944,70.68629 94.5,70.66666 93.71066,70.66666C92.66666,70.66666 92.11598,70.98132 91.33334,71.5C90.62494,71.96947 89.56358,71.26392 88.78533,71.752C88.04493,72.21633 87.49964,72.64281 86.7,72.66666C85.74155,72.69526 84.85909,73.04874 84.15266,73.314C83.26586,73.647 82.33334,73.6666 81.5,73.66666C80.5215,73.66675 79.72373,73.79072 78.9,74.24133C78.11945,74.66833 77.14994,74.535 76.4,74.888C75.62447,75.25304 74.90005,75.66133 74,75.66666C73.10001,75.672 72.2,75.66666 71.3,75.66666C70.4,75.66666 69.5,75.66666 68.7,75.66666C67.8,75.66666 66.9,75.66666 66,75.66666C65.1,75.66666 64.2,75.66666 63.29867,75.66666C62.33333,75.66666 61.5,75.66666 60.5215,75.66666C59.8045,75.66666 58.864,75.66666 58.016,75.66666C57.15267,75.66666 56.12533,75.66666 55.17867,75.66666C54.5,75.66666 53.52133,75.66666 52.616,75.66666C51.664,75.66666 50.89867,75.66666 49.9,75.66666C49.1,75.66666 48.10133,75.66666 47.336,75.66666C46.38533,75.66666 45.5,75.66666 44.7,75.66666C43.8,75.66666 42.9,75.66666 42,75.66666C41.1,75.66666 40.2,75.66666 39.3,75.66666C38.4,75.66666 37.5,75.66666 36.7,75.66666C35.8,75.66666 34.9,75.66666 34,75.66666C33.1,75.66666 32.1955,75.66666 31.17867,75.66666C30.5,75.66666 29.5215,75.66666 28.70133,75.66666C27.8,75.66666 26.9,75.66666 26,75.66666C25.08933,75.66666 24.16983,75.57507 23.32533,75.70267C22.36408,75.84791 21.70992,76.407 20.864,76.692C20.02383,76.97507 19.36153,77.36632 18.38533,77.58134C17.41929,77.79412 16.60585,77.72792 15.84733,78.01933C14.97297,78.35525 14.02103,78.65625 13.2,78.66666C12.30007,78.67808 11.4,78.66666 10.5,78.66666C9.7,78.66666 8.77659,78.63596 7.736,78.224C7.13212,77.98492 6.51009,77.64379 5.552,77.23466C4.56582,76.81355 3.71349,77.03999 2.936,76.63067C2.17852,76.23189 1.69824,75.69454 0.8,75.66666C-0.14411,75.63737 -0.65994,74.7952 -1.5,74.66666C-2.29528,74.54498 -3.1,74.092 -3.9,73.70267L-4.8,73.66666" id="svg_36" stroke-width="3" stroke="#000" fill="none"/>
  <path t="115859,115935,115937,115944,115954,115954,115961,115973,115977,115986,115993,115998,116001,116009,116009,116014,116017,116025,116029,116037,116048,116048,116057,116088,116116,116116,116121,116139,116188,116188,116190,116190,116190,116190,116190,116195,116195,116228" d="M27.5,78.66666C29.2,78.66666 29.88715,78.98116 30.66667,79.5C31.37412,79.97088 32.3,79.66666 33.2,79.66666C34.1,79.66666 35,79.66666 35.9,79.66666C36.8,79.66666 37.7,79.66666 38.6,79.66666C39.5,79.66666 40.30018,79.64867 41.2,79.66666C42.10054,79.68467 42.81036,80.28471 43.7,80.58134C44.55763,80.86729 45.47216,80.87763 46.1,81.24133C46.86987,81.68731 47.85664,81.53012 48.7,81.95067C49.36164,82.28059 49.92836,83.0362 50.7215,83.54517C51.46839,84.02446 52.24188,83.76264 53,84.33334C53.57875,84.769 54.17588,85.36829 54.788,86.00134C55.37292,86.60625 56.16,87.60934 56.58,88.37733L57.33333,88.83334" id="svg_37" stroke-width="3" stroke="#000" fill="none"/>
  <path t="116825,116852,116860,116873,116963,116987,116992,117003,117014,117023,117023,117027,117032,117035,117039,117039,117039,117043,117043,117050,117052,117053,117056,117056,117066,117066,117068,117075,117081" d="M99.5,72.66666C101.3,72.66666 102.2,72.66666 103.1,72.66666C104,72.66666 104.9,72.66666 105.8,72.66666C106.7,72.66666 107.60075,72.63 108.5,72.66666C109.20174,72.69527 109.92255,73.35225 110.8,73.6095C111.66675,73.86361 112.66592,73.83528 113.336,74.092C114.10049,74.38489 115.09432,74.63032 115.84283,74.66217C116.87384,74.70605 117.81854,74.89491 118.5,75.16666C119.47443,75.55525 120.01049,75.98151 120.83334,76.5C121.41473,76.86634 122.39017,77.01933 123.02084,77.64584L123.9,77.67733" id="svg_38" stroke-width="3" stroke="#000" fill="none"/>
  <path t="117604,117681,117687,117694,117706,117706,117717,117717,117722,117726,117732,117732,117734,117738,117742,117747,117754,117754,117762,117763,117766,117770,117774,117782,117790,117795,117812,117814,117821,117830,117841,117846,117846,117856,117864,117864,117869,117881,117892,117892,117904,117923" d="M137.5,67.66666C139.10001,68.27734 139.89638,68.89964 140.33333,69.66666C140.7776,70.44653 141.39522,70.72742 142.15266,71.01933C143.02669,71.35617 143.91064,71.54179 144.8,72.01933C145.54811,72.42104 146.3,72.666 147.2,72.66666C148.10001,72.66733 149.03471,72.6138 149.8,73.01933C150.64604,73.46766 151.38696,73.62075 152.32533,73.67733C153.01877,73.71915 153.90343,74.35257 154.8,74.6095C155.66692,74.85793 156.60439,74.57798 157.5,74.66666C158.3457,74.7504 158.73772,75.45936 159.59984,75.66683C160.43996,75.86901 160.95708,76.43006 161.69867,76.952C162.48029,77.50211 162.78696,78.1545 163.37866,78.88817C163.89975,79.53429 164.14546,80.3675 164.5,81.16666C164.85529,81.96751 165.5,82.66666 166.10001,83.26667L166.7955,83.96667L167.33333,84.66666" id="svg_39" stroke-width="3" stroke="#000" fill="none"/>
  <path t="118604,118676,118681,118681,118685,118688,118692,118692,118697,118700,118700,118704,118708,118715,118715,118717,118722,118724,118731,118736,118743,118755,118759,118804,118821,118828,118833,118841,118846,118850,118856,118867,118867,118869,118869,118873,118878,118878,118885,118885,118891,118891,118892,118893,118893" d="M366.5,50.66667C367.7215,51.54533 368.62405,51.85974 369.20001,52.37117C369.93228,53.02137 370.65897,53.40253 371.5,53.83333C372.16434,54.17363 372.71674,55.09283 373.5,55.5C374.24384,55.88667 374.97391,56.21981 375.89999,56.64133C376.68066,56.99667 377.32813,57.31534 378.20001,57.71933C379.03165,58.10467 379.79865,58.63799 380.70001,58.66667C381.59937,58.69528 382.10901,59.17385 382.85718,59.6095C383.58612,60.03396 384.44611,60.02037 385,60.66667C385.5242,61.27831 385.90332,62.10679 386.69867,62.58267C387.3905,62.9966 387.96771,63.59846 388.52084,64.1875C389.11844,64.82388 389.72873,65.20427 390.61465,65.86667C391.22845,66.3256 391.89999,67.06667 392.5,67.66666C393.10001,68.26667 393.77188,69.00726 394.38535,69.46667C395.12143,70.01792 395.90451,70.36667 396.70001,70.76683L397.5,71.1875L398.10001,71.552" id="svg_40" stroke-width="3" stroke="#000" fill="none"/>
  <path t="119324,119403,119409,119428,119443,119448,119455,119460,119466,119470,119476,119483,119488,119488,119491,119491,119496,119496,119504,119507,119508,119513,119516,119520,119520,119529,119547,119571,119571,119587,119592,119605,119613,119617,119617,119618,119618,119621,119626,119631,119631,119634,119634,119638,119642" d="M414.5,38.66667C415.72134,39.54533 416.31046,40.1572 416.936,40.64133C417.68179,41.21852 418.64911,41.25247 419.33334,41.83333C419.9996,42.39894 420.72034,42.43808 421.41599,42.95067C422.10684,43.45973 422.44247,44.32198 423.21432,44.614C423.87149,44.86262 424.9256,44.89484 425.664,45.27733C426.65656,45.79147 427.17529,46.36034 428.02084,46.66667C428.96497,47.00871 429.68005,47.22681 430.61334,47.58267C431.3833,47.87626 431.61462,48.88503 432.2045,49.3095C432.9949,49.87826 433.92575,50.07653 434.59982,50.76667C435.16525,51.34558 435.55667,52.09182 436.07468,52.692C436.61731,53.32072 436.96326,54.07513 437.66666,55C437.99179,55.42752 438.4426,56.19443 439.01599,56.81334C439.78268,57.6409 440.41394,58.1328 440.7215,58.988C440.9725,59.68599 441.60001,60.645 442.10001,61.22L442.88934,61.64133L443.5,62.1875" id="svg_41" stroke-width="3" stroke="#000" fill="none"/>
  <path t="120135,120245,120286,120289,120289,120289,120289,120296,120296,120305,120317,120325,120345,120357,120365,120365,120370,120374,120374,120381,120383,120385,120386,120389,120393,120398,120398,120402,120406,120406,120410,120418,120422,120431,120431,120434,120441,120447,120451,120469,120493,120493" d="M461.5,49.66667C463.20001,49.66667 464.0625,49.66421 465,49.66667C465.858,49.66892 466.82916,49.65797 467.448,49.752C468.64465,49.93383 469.26794,50.49896 470.20001,50.66217C471.05197,50.81135 471.72513,51.20998 472.37866,51.888C472.93729,52.46756 473.62604,52.85752 474.20001,53.37117C474.93533,54.02919 475.70087,54.68878 476.14282,55.36667C476.62131,56.10059 476.76035,57.11305 477.60001,57.54533C478.24857,57.87925 479.14798,58.23209 479.7955,58.96667C480.37924,59.62888 480.45996,60.4287 481.02084,61.16667C481.61102,61.94318 482.27133,62.30296 482.88934,63.06667C483.49115,63.81034 483.86163,64.42796 484.59982,64.88817C485.31699,65.33528 485.68524,66.1523 486.33334,66.83334C486.93613,67.46676 487.44284,68.02383 487.50449,68.96667L487.72134,69.76667L488.216,70.46667" id="svg_42" stroke-width="3" stroke="#000" fill="none"/>
 </g>
</svg>