<svg width="278.25" height="420" xmlns="http://www.w3.org/2000/svg" xmlns:svg="http://www.w3.org/2000/svg" xmlns:xlink="http://www.w3.org/1999/xlink">
 <!-- Created with SVG-edit - http://svg-edit.googlecode.com/ -->
 <g display="inline" class="layer">
  <title>Layer 1</title>
  <path t="0,353,353,372,372,400,428,428,440,468,484,484,484,543,543,617,664,702,702,737,768,770,794,818,818,822,834,842,842,850,862,870,870,882,906,914,934,934,962,1100,1124,1124,1148,1148,1160,1172,1204,1204,1250,1250,1250,1292,1292,1389,1389,1458,1462,1470,1514,1522,1522,1546,1558,1558,1582,1590,1627,1627,1707,1711,1711,1715,1719,1727,1727,1773,1821,1853,1853,1906,1906,1906,1918,1939,1939,1957,1978,1994,1994,2035,2035,2071,2107,2134,2154,2154,2178,2220,2220,2228,2248,2248,2256,2272,2272,2288,2308,2308,2336,2361,2369,2389,2389,2409,2409,2433,2453,2473,2477,2515,2563,2575,2575,2603,2607,2639,2665,2665,2673,2673,2673,2681,2701,2701,2725,2725,2769,2769,2793,2793,2945,2945,2986,2990,2990,2994,3010,3022,3038,3050,3050,3050,3066,3066,3074,3078,3114,3143,3194,3194,3298,3298,3321,3366,3434,3434,3511,3511,3616,3616,3679,3727,3727,3755,3755,3776,3776,3818,3867,3915,4083,4083,4133,4133,4165,4177,4177,4189,4209,4225,4225,4245,4245,4685,4685,4754,4754,4790,4790,4818,4885,4949,5106,5106,5111,5153,5153,5195,5297,5435,5645,5645,5690,5690,5814" d="M115.63281,214.25C116.59682,212.96333 116.63056,212.25084 116.63281,211.22067C116.63449,210.45267 116.63281,209.49283 116.63281,208.59734C116.63281,207.73399 116.63281,206.77083 116.63281,205.94099C116.63281,204.91667 116.63281,204.24467 116.63281,203.50067C116.63281,202.39301 116.63281,201.55901 116.63281,200.64999C116.63281,199.72917 116.63427,198.76601 116.63281,198.07533C116.63056,197.00717 116.33035,196.20078 115.91682,195.45C115.48042,194.65771 115.2103,193.91083 114.61198,193.25C114.13136,192.71918 113.1496,191.9632 112.75415,191.14999C112.43513,190.49396 111.91962,189.83624 111.24348,189.26466C110.54572,188.6748 110.53883,187.6965 109.78215,187.31134C108.93592,186.88058 108.30172,186.43573 107.53281,186.02867C106.77528,185.62762 105.98434,185.201 105.52298,184.48833C105.05775,183.76968 104.44476,183.078 103.79948,182.41667C103.17182,181.77341 102.93411,180.86972 102.27565,180.30267C101.58585,179.70865 100.8598,179.44325 100.31148,178.70734C99.79223,178.01044 99.30482,177.24092 98.79948,176.58333C98.17694,175.77322 97.40382,175.23798 96.98998,174.49283C96.53145,173.66721 96.63506,172.90266 96.63281,171.886C96.63074,170.95 96.63281,170.04866 96.63281,169.36467C96.63281,168.42467 96.63281,167.41667 96.63281,166.5545C96.63281,165.64999 96.63281,164.83934 96.63281,163.92867C96.63281,163.07533 96.63281,162.13533 96.63281,161.14967C96.63281,160.43567 96.63281,159.48199 96.63281,158.75C96.63281,157.58333 96.63281,156.79167 96.63281,155.85001C96.63281,154.9455 96.63281,154.08333 96.63281,153.22917C96.63281,152.25 96.63281,151.46066 96.63281,150.73534C96.63281,149.75 96.63281,148.76601 96.63281,147.90266C96.63281,147.00717 96.63281,146.05 96.63281,145.14984C96.63281,144.36467 96.63281,143.42467 96.63281,142.73399C96.63281,141.66066 96.63281,140.75 96.63281,139.83934C96.63281,138.92867 96.53074,138.24519 96.63415,137.13533C96.7177,136.23859 97.37989,135.71208 97.59682,134.83934C97.81667,133.95486 97.63281,133.07533 97.63281,132.13533C97.63281,131.25 97.63281,130.45 97.63281,129.49283C97.63281,128.59734 97.63281,127.734 97.63281,126.77084C97.63281,125.95 97.63281,125.04867 97.63281,124.08334C97.63281,123.25 97.63281,122.2715 97.63281,121.5545C97.63281,120.65 97.63281,119.72916 97.63281,118.766C97.63281,118.07533 97.63281,117.00716 97.63281,116.15C97.63281,115.25 97.67806,114.36307 97.62215,113.42467C97.58083,112.73121 97.06113,111.77943 96.75381,110.92883C96.4663,110.13303 95.97222,109.48059 95.13281,109.25C94.4873,109.07268 93.72147,108.39062 93.63281,107.41666C93.55965,106.61296 92.72105,106.09795 92.63731,105.43117C92.51904,104.48938 92.72318,103.47356 92.46615,102.58334C92.22557,101.75008 91.42136,101.23466 90.98998,100.55C90.51711,99.79948 90.63063,98.766 90.63281,97.90266C90.63506,97.01166 91.29491,96.43945 91.61198,95.72916C91.97511,94.9157 92.03895,93.8942 92.50481,93.43533C93.18568,92.7647 94.12133,92.62259 94.91848,92.14467C95.64897,91.70671 95.8325,90.92102 96.46615,90.08334C96.95546,89.43647 97.59813,88.88805 98.15365,88.25C98.76315,87.54996 99.86909,87.64644 100.46214,86.96467C101.00845,86.33664 100.80048,85.2507 101.24348,84.614C101.83282,83.76693 102.24879,83.09379 102.51148,82.2715C102.76877,81.46612 103.24324,80.58281 104.11681,80.334C104.78934,80.14246 105.94206,79.95074 106.43148,79.36333C107.01592,78.66189 107.12484,77.83964 107.60748,76.89667C107.9572,76.2134 108.56469,75.64664 109.20215,75.04867C109.75201,74.53288 110.60383,73.92307 111.11198,73.27084C111.72372,72.48563 112.42247,71.9042 112.63281,71.25C112.9259,70.33848 113.59091,69.63546 114.34264,69.29816C115.10564,68.95581 115.91269,68.55844 116.32832,67.841C116.77354,67.07246 117.20721,66.30435 117.46615,65.41666C117.72756,64.52049 117.63933,63.59731 117.63281,62.90267C117.62239,61.79152 117.06956,61.3313 116.32832,60.89283C115.40269,60.34531 114.7177,59.94688 114.20215,59.36467C113.61074,58.69679 113.63415,57.734 113.63281,56.77083C113.63154,55.85 113.63281,54.9455 113.63281,54.08334C113.63281,53.25 113.63281,52.2715 113.63281,51.45133L113.63281,50.55" id="svg_1" stroke-width="3" stroke="#000" fill="none"/>
  <path t="7025,7267,7293,7293,7321,7329,7358,7358,7397,7521,7521,7553,7585,7585,7593,7609,7617,7629,7637,7637,7672,7680,7700,7736,7744,7744,7768,7768,7776,7853,7915,7960,7960,7972,7972,8094,8218,8218,8258,8372,8376,8416,8432,8456,8456,8492,8492,8659,8695,8695,8736,8736,8742,8770,8794,8794,8806,8806,8822,8847,8847,8886,8886,8886,8938,8938,9029,9029,9120,9120,9170,9170,9178,9178,9206,9245,9245,9301,9301,9325,9685,9685,10556,10556,10593,10593,10641,10641,10678,10678,10709,10709,10725,10725,10737,10758,10766,10819,10819,10875,10936,10936,10940,10986,10986,10998,10998,11006,11018,11026,11042,11042,11050,11066,11066,11078,11078,11086,11094,11126,11134,11158,11170,11194,11211,11211,11242,11250,11250,11278,11290,11310,11310,11326,11326,11350,11350,11386,11386,11406,11406,11434,11434,11442,11450,11450,11458,11458,11494,11510,11514,11534,11542,11542,11558,11574,11591,11591,11608,11608,11659,11679,11729,11729,11729,11745,11745,11745,11797,11813,11837,11841,11861,11861,11861,11881,11881,11943,11978,11994,11994,12071,12071,12099,12119,12131,12131,12139,12139,12155,12163,12175,12175,12215,12239,12239,12272,12272,12272,12300,12300,12403,12430,12454,12454,12502,12526,12526,12570,12590,12935,12935,13062,13089,13089,13101,13121,13121,13186,13247,13275,13279,13339,13339,13361,13361,13377,13389,13409,13422,13422,13434,13434,13463,13479,13479,13495,13495,13511,13511,13539,13539,13551,13559,13579,13583,13595,13595,13595,13615,13619,13638,13654,13662,13678,13694,13694,13710,13718,13718,13734,13734,13742,13742,13758,13758,13782,13798,13822,13822,13830,13830,13838,13877,13877,13885,13885,13921,13921,13941,13941,13949,13991,13991,14023,14027,14047,14063,14063,14063,14071,14071,14079,14095,14099,14115,14119,14131,14131,14143,14179,14179,14195,14211,14211,14231,14231,14239,14239,14271,14271,14301,14301,14301,14349,14356,14356,14356,14376,14392,14392,14408,14408,14430,14430,14466,14466,14772,14831" d="M145.63281,64.25C144.61198,62.29167 143.6539,62.27597 142.83415,62.25C141.93146,62.2214 141.28188,61.67647 140.31148,61.3715C139.65695,61.1658 138.65431,61.25 137.63281,61.25C136.83281,61.25 135.99681,61.25 134.98015,61.25C134.28548,61.25 133.26881,61.25069 132.33281,61.25C131.43414,61.24933 130.87007,60.75156 130.06482,60.334C129.40842,59.99362 128.7057,59.47502 127.92831,59.2545C127.0668,59.01012 126.10962,59.3147 125.15015,59.24733C124.33696,59.19024 123.94113,58.46005 123.55015,57.818C123.04592,56.98999 122.18374,56.64264 121.32832,56.30267C120.50159,55.9741 119.6529,55.69458 118.79948,55.41667C117.95358,55.14121 117.01423,54.7652 116.75431,53.92867C116.49899,53.10692 116.58579,52.13408 116.63281,51.25C116.67554,50.4466 117.17725,49.50881 118.04348,49.286C118.92614,49.05896 119.74693,49.41653 120.61131,48.80733C121.22369,48.37574 121.70867,47.37256 122.63281,47.25C123.38341,47.15045 124.28548,47.25 125.14881,47.25C126.11198,47.25 127.12508,47.14659 127.73298,47.69267C128.39273,48.28532 128.93427,49.10702 129.80748,49.22867C130.73872,49.3584 131.64027,49.18319 132.44714,49.30717C133.41635,49.45609 134.14996,49.72962 134.86481,50.05133C135.84982,50.49464 136.34026,51.01736 137.28998,51.5455C138.01021,51.94602 138.82864,52.17036 139.63281,52.22917C140.63037,52.30212 141.61411,52.1898 142.46614,52.25C143.27721,52.30731 143.4104,53.21326 143.96614,54.08334C144.36505,54.70787 145.49039,55.00528 146.22215,55.27533C147.07022,55.58831 147.80821,56.0011 148.51814,56.50467C149.20563,56.99231 150.26395,57.71656 149.96614,58.75C149.78072,59.39345 148.53201,58.67039 148.04349,58.10067C147.44675,57.40475 146.6573,57.18525 145.62749,56.89734C144.87975,56.68828 143.97527,56.35292 143.17448,56.27084C142.2375,56.17479 141.32161,56.27022 140.64748,55.82467C139.90469,55.33376 139.03461,55.5788 138.15364,55.1875C137.36353,54.83656 137.25226,53.95483 136.93282,53.25084C136.4599,52.20863 135.90886,51.4939 134.98015,51.30717C134.13197,51.13662 133.04944,51.41475 132.33731,50.89283C131.66129,50.39738 131.47911,49.34349 130.74614,49.25134C129.82512,49.13554 128.85699,48.81337 128.61815,48.06467C128.32436,47.14373 127.69345,46.7704 126.98998,46.19733C126.37234,45.69418 125.74186,45.32923 124.81815,45.23933C123.95605,45.15544 123.41759,44.31089 122.53281,44.25C121.63493,44.1882 120.98139,44.05316 120.61198,43.25C120.24982,42.46262 119.44763,42.2614 118.38998,42.25C117.43287,42.23968 116.66825,42.02194 115.99681,41.67533C115.18453,41.25603 114.23356,41.32117 113.38548,40.89283C112.69255,40.54286 112.00223,39.89038 111.22831,39.60717C110.25922,39.25253 109.43286,39.25533 108.43298,39.25C107.65366,39.24584 106.41599,39.59624 105.79948,38.91667C105.33416,38.40376 105.07544,37.34426 104.28098,37.259C103.39502,37.16391 102.33762,37.40591 101.68548,36.89734C101.06303,36.41192 100.31148,36.25 99.45815,36.25C98.51815,36.25 97.53217,36.28391 96.63281,36.25C95.87403,36.2214 94.9917,35.86846 94.28548,35.60267C93.40292,35.27052 92.27854,35.43488 91.63281,34.75C91.19402,34.28461 91.11069,33.41292 90.46615,32.58333C89.89811,31.85221 89.09863,31.59299 88.15365,31.25C87.31387,30.94519 86.53231,30.37201 85.81848,30.19733C84.86593,29.96424 84.08038,29.8232 83.48615,29.36333C82.67277,28.73387 82.76062,27.61014 82.19682,26.89667C81.60786,26.15137 80.43754,26.14385 79.81815,25.814C78.91629,25.33374 78.38614,24.70322 77.91682,24.08067C77.37238,23.35847 77.32558,22.38858 76.63281,21.77083C75.90211,21.11926 76.06345,20.24603 75.46214,19.53533C74.89113,18.86045 73.7755,18.82999 73.65414,18.06467C73.50856,17.14653 73.44173,16.26551 73.02215,15.578C72.50186,14.72547 72.25713,13.98906 71.93282,13.25533C71.46847,12.20481 70.84544,11.60488 70.65365,10.75C70.45875,9.88126 69.82043,9.51819 69.20081,9.08067C68.50021,8.58597 68.44821,7.42608 68.05814,6.66067C67.64981,5.85941 67.63281,4.9455 67.63281,4.08333C67.63281,3.25 67.19392,2.0428 67.79948,1.41667C68.31305,0.88565 69.45843,1.22602 70.46615,1.25C71.22279,1.26801 72.05991,1.63383 72.83148,2.16733C73.53846,2.65617 73.54115,3.52924 74.07565,4.2285C74.54004,4.83603 75.57298,5.40517 76.22215,5.814C76.98307,6.29321 77.63028,6.86252 78.27948,7.31133C79.08509,7.86828 79.63383,8.26979 80.46615,9.08333C80.99747,9.60267 81.7859,9.99751 82.63281,10.41667C83.32798,10.76072 83.92685,11.40399 84.80748,11.814C85.5901,12.17838 86.47357,12.38438 87.03281,13.10067C87.46707,13.65688 88.13596,14.45797 88.79981,14.89733C89.58974,15.42015 90.42877,15.24467 91.46615,15.25C92.3968,15.25479 93.23148,15.25 94.22831,15.25C94.97565,15.25 96.03157,15.19959 96.60748,15.67533C97.20717,16.17072 98.04348,16.25 98.95415,16.25C99.80748,16.25 100.76257,16.07871 101.73281,16.2505C102.46658,16.38042 102.8922,17.33243 103.26881,17.974C103.74473,18.78473 104.63332,19.17998 105.61131,19.25017C106.32874,19.30165 107.05595,19.93491 107.93732,20.19283C108.76659,20.43552 109.65367,20.24329 110.63281,20.25C111.41154,20.25533 112.30667,20.52138 112.79948,21.25C113.21439,21.86347 114.15854,22.03218 114.98015,22.35983C115.81091,22.69114 116.14165,23.49363 116.83282,24.36333C117.28389,24.93092 118.17813,25.1776 119.11681,25.53533C119.83022,25.80721 120.56353,26.4195 121.32832,26.89283C122.09184,27.36539 122.72414,27.91856 123.04348,28.526C123.50546,29.40479 124.27365,30.14489 124.98015,30.2365C125.98896,30.36731 126.69595,30.72025 127.23281,31.39933C127.797,32.113 128.54385,32.38305 129.28548,32.95533C130.0067,33.51187 130.79385,33.97752 131.63281,34.41667C132.38512,34.81046 133.17361,35.18754 133.95415,35.4715C134.83553,35.79214 135.73393,36.24316 136.18614,36.886C136.7171,37.64077 136.49969,38.55988 137.20348,39.36467C137.73366,39.97094 138.63992,40.23627 139.42215,40.65C140.15436,41.03727 141.06151,41.61067 141.63281,42.41667C142.07527,43.04089 142.28693,43.78605 142.63281,44.72917C142.94167,45.5713 143.51825,46.05188 144.28548,46.5545C144.97903,47.00887 145.7601,47.7255 146.22215,48.42467C146.74716,49.2191 147.19681,49.83933 147.61198,50.75L147.64348,51.63934" id="svg_2" stroke-width="3" stroke="#000" fill="none"/>
  <path t="16256,16410,16410,16432,16432,16469,16496,16590,16608,16608,16713,16745,16769,16809,16809,16817,16817,16845,16869,16897,16897,16909,16913,16963,16988,16988,17016,17016,17024,17054,17062,17062,17086,17086,17098,17114,17174,17215,17307,17327,17359,17359,17385,17413,17437,17437,17457,17457,17473,17473,17481,17509,17525,17554,17585,17585,17639,17639,17651,17671,17687,17757,17757,17839,17839,17942,17979,18023,18023,18055,18071,18103,18103,18115,18127,18127,18143,18190,18214,18214,18256,18288,18288,18316,18365,18365,18393,18393,18417,18417,18417,18453,18481,18573,18589,18589,18629,18649,18701,18701,18725,18725,18790,18906,18928,18928,18944,18976,19004,19020,19020,19046,19046,19063,19099,19131,19131,19131,19176,19231,19234,19262,19262,19305,19305,20142,20208,20209,20217,20331,20331,20437,20437,20474,20482,20573,20573,20590,20638,20638,20733,20733,20842,20842,20868,20884,20888,20888,20923,20939,20990,21047,21063,21067,21079,21079,21107,21123,21176" d="M143.63281,61.25C144.49414,59.83933 145.20779,59.41561 145.87564,58.60183C146.37398,57.99461 147.07419,57.52523 147.92831,57.2455C148.69624,56.994 149.34123,56.27983 150.15015,56.25134C151.11139,56.21748 151.93282,56.25 152.83415,56.25C153.79948,56.25 154.63281,56.25 155.61131,56.25C156.32831,56.25 157.23557,56.28033 158.04349,56.67533C158.95731,57.12211 159.63885,57.13978 160.61131,57.25034C161.44362,57.34496 161.87048,58.24979 162.63281,58.91667C163.17847,59.39401 164.10303,59.56865 164.98015,59.89734C165.86317,60.22824 166.73282,60.25 167.63281,60.25C168.38998,60.25 169.28548,60.25 170.14882,60.25C171.11198,60.25 172.00273,60.28335 172.65814,60.82467C173.26299,61.32421 173.7739,62.08652 174.65364,62.22917C175.59918,62.38249 176.43147,62.25 177.33281,62.25C178.15364,62.25 179.11815,62.25 179.84348,62.25C180.83264,62.25 181.79681,62.25 182.74881,62.25C183.51682,62.25 184.5863,62.56421 185.38998,62.02867C186.05959,61.58247 186.73282,61.25 187.63281,61.25C188.38998,61.25 189.28548,61.25 190.14882,61.25C191.11198,61.25 192.03281,61.25 192.93732,61.25C193.79948,61.25 194.63281,61.25 195.61131,61.25C196.43147,61.25 197.33281,61.25 198.26881,61.25C199.11681,61.25 199.98015,61.25 200.87564,61.25C201.83281,61.25 202.73299,61.25 203.51814,61.25C204.45815,61.25 205.46614,61.25 206.22215,61.25C207.13281,61.25 208.04349,61.25 208.95415,61.25C209.80748,61.25 210.74873,61.20298 211.63281,61.25C212.43622,61.29273 213.11626,61.84991 214.11681,62.16734C214.78931,62.38069 215.79584,62.78801 216.22215,63.47133C216.68811,64.21822 216.92113,65.11228 217.43282,65.67934C218.07759,66.39387 218.76479,66.84841 219.63281,67.27084C220.41211,67.65009 220.62215,68.43515 220.63281,69.36467C220.64412,70.34993 220.63281,71.25 220.63281,72.00716C220.63281,72.90266 220.6441,73.76607 220.63281,74.72916C220.62215,75.63953 220.06651,76.20329 219.28098,76.2455C218.27026,76.29982 217.33281,76.25 216.43147,76.25C215.46614,76.25 214.80748,76.25 213.79948,76.25C212.93732,76.25 212.03281,76.25 211.21149,76.25C210.29948,76.25 209.38214,76.25 208.63815,76.25C207.60349,76.25 206.63281,76.25057 205.81848,76.25C204.86615,76.24933 204.06157,76.5314 203.13281,76.08334C202.41245,75.7358 201.70151,75.03364 201.63281,74.08334C201.58607,73.43694 201.35843,72.33573 200.46614,72.25C199.63663,72.1703 198.79948,72.25 197.93732,72.25C197.03281,72.25 196.11198,72.25 195.14882,72.25C194.45815,72.25 193.27673,72.06966 192.63281,72.58334C191.96826,73.11346 191.74474,74.19696 191.11198,74.70834C190.40883,75.2766 189.44528,75.40383 188.51949,75.24866C187.68056,75.10806 187.74364,74.07287 187.61198,73.27084C187.46762,72.39137 186.65082,71.81457 186.63281,70.95C186.61404,70.04887 186.63281,69.08334 186.63281,68.42467C186.63281,67.41666 186.63281,66.5545 186.59682,65.686L185.91681,65.166L185.63414,64.36333" id="svg_3" stroke-width="3" stroke="#000" fill="none"/>
  <path t="22414,22951,22986,22990,23025,23065,23065,23189,23189,23217,23217,23251,23251,23841,23895,23895,23942,23963,23963,24135,24135,24155,24229,24229,24261,24285,24297,24297,24297,24333,24333,24365,24381,24405,24417,24417,24453,24453,24465,24485,24501,24567,24567,24595,24638,24687,24715,24737,24741,24749,24749,24812,24812,24840,24844,24868,24929,24929,24955,24971,24983,25019,25019,25027,25027,25035,25051,25117,25125,25125,25133,25133,25149,25149,25185,25203,25203,25231,25231,25276,25295,25327,25327,25343,25343,25363,25391,25403,25415,25435,25455,25455,25479,25495,25519,25565,25581,25581,25581,25755,25755,25791,25859,26236,26236,26261,26261,26297,26297,26358,26358,26511,26624,26633,26728,26773,26773,26785,26843,26843,26845,26910,26910,26980,26980,27018,27018,27061,27061,27095,27111,27127,27179,27179,27231,27251,27271,27271,27291,27311,27311,27355,27363,27387,27391,27399,27442,27442,27462,27544,27584,27584,27588,27588,27618,27661,27721,27721,27757,27757,27795,27799,27853,27853,27865,27869,27893,27893,27925,27945,27945,27965,27965,27965,28028,28053,28065,28081,28125,28129,28129,28163,28163,28179,28195,28223,28255,28255,28293,28305,28349,28349,28361,28361,28385,28397,28429,28579,28595,28595,28639,28639,28667,28695,29759,29783,29787,29807,29827,29839,29843,29879,29913,29913,29961,29972,29972,29992,29992,30000,30016,30040,30040,30075,30087,30107,30107,30139,30139,30187,30187" d="M187.63281,77.25C189.45815,77.25 190.46687,77.21436 191.32831,77.25C192.19904,77.28603 192.48508,78.18827 192.88748,78.76733C193.50711,79.65897 194.41876,79.78629 195.29948,80.25C195.98337,80.61008 196.67508,81.42108 197.23282,81.814C198.04277,82.38461 198.35469,83.06952 198.80214,83.682C199.39575,84.49457 200.49069,84.66992 200.61148,85.43533C200.75659,86.35487 200.63281,87.134 200.63281,88.07533C200.63281,89.08334 200.64471,89.94558 200.63281,90.85C200.62215,91.66088 200.20656,92.58556 199.77148,93.07533C199.13887,93.78748 198.39417,94.49704 197.83415,95.04867C197.13797,95.73444 196.29649,96.13768 195.68098,96.60267C195.01334,97.10706 194.18791,97.23213 193.51814,97.818C192.81795,98.43048 192.24881,99.19452 191.63281,99.75C191.09573,100.23431 190.14882,100.24782 189.28548,100.25C188.39447,100.25225 187.60896,100.62989 187.05815,101.27534C186.55989,101.8592 186.46277,102.81181 185.98615,103.38866C185.29369,104.22672 184.33286,104.12015 183.51814,104.81934C182.92801,105.32579 182.64575,106.35233 181.93282,106.88834C181.23903,107.40994 180.91621,108.07341 180.46349,108.682C179.8698,109.48009 178.79379,109.53336 178.63264,110.35C178.45546,111.24796 177.93295,111.84599 177.71814,112.734C177.51427,113.57681 177.77531,114.7427 177.19681,115.22467C176.47401,115.82684 175.83369,116.3839 175.52298,117.00716C175.04317,117.96962 174.36992,118.35027 173.87564,119.2285C173.44286,119.99747 173.07822,120.71887 172.43414,121.45133C171.96431,121.98564 171.78183,122.92355 171.54881,123.766C171.30513,124.64704 170.77141,125.45667 170.63248,126.35017C170.50903,127.14405 169.96069,127.93779 169.44748,128.38867C168.57784,129.15271 167.69371,129.46523 167.63281,130.35001C167.57101,131.24788 167.2556,131.88591 166.79948,132.58333C166.34065,133.2849 165.96068,134.02829 165.65364,134.77083C165.31761,135.58351 165.7554,136.61626 165.29948,137.41667C164.88167,138.15019 164.26289,138.5798 163.51949,139.36467C162.98108,139.93311 162.62221,140.85744 162.20747,141.66066C161.81334,142.42398 161.81596,143.3105 161.41115,144.2285C161.11089,144.90938 160.14247,145.43922 159.45815,145.85001C158.64658,146.33717 157.93613,146.65414 157.24348,147.23534C156.54568,147.82086 156.69638,148.93985 155.87114,149.241C155.0341,149.54646 154.03603,149.57864 153.15364,149.1875C152.36327,148.83714 152.25208,147.95491 151.93282,147.25084C151.45967,146.20743 150.88829,145.54051 150.14882,145.04866C149.46933,144.59671 148.62782,143.94743 148.15364,143.25C147.60112,142.43733 146.98235,141.84966 146.71814,141.05C146.43457,140.19174 146.12596,139.50821 145.75432,138.80717C145.32503,137.99742 145.63281,137.00717 145.63281,136.05C145.63281,135.14984 145.78429,134.34871 145.61148,133.43533C145.44281,132.54382 144.33078,132.65878 143.74715,131.89284C143.23164,131.21631 143.63281,130.14984 143.63281,129.36467C143.63281,128.42467 143.63281,127.41666 143.63281,126.66067C143.63281,125.75 143.63281,124.83933 143.63281,123.9285C143.63281,123.03934 143.73299,122.0409 143.61198,121.29166C143.46672,120.39216 142.73854,119.87157 142.41148,118.92867C142.17107,118.23553 141.90871,117.38123 141.58014,116.5545C141.24016,115.69908 140.68353,114.94591 140.63281,114.08334C140.58505,113.27117 140.19624,112.47404 139.44748,112.23534C138.52525,111.94133 137.83348,111.44934 137.13281,110.75C136.53207,110.15041 135.99681,109.614 135.31148,108.92867C134.63281,108.25 134.07336,107.77473 133.39449,107.00716C132.7565,106.28584 132.2664,105.65708 131.75415,105.02834C131.13016,104.26244 131.26611,103.36665 130.74614,102.734C130.07773,101.92075 129.33977,101.55719 128.69415,100.86066C128.13028,100.25233 127.63815,99.60339 127.63281,98.766C127.62731,97.90268 127.66667,96.98872 127.20748,96.26466C126.72868,95.50969 126.66541,94.84044 126.63148,93.85267C126.60092,92.9631 126.18646,92.09911 125.52298,91.60267C124.8745,91.11745 123.80395,91.0453 123.63264,90.14983C123.48425,89.37413 123.31853,88.57418 122.92831,87.90266C122.38987,86.97607 121.51186,86.62929 120.79948,86.08334C120.13804,85.57643 119.40767,85.34806 118.69415,84.82467C118.02264,84.3321 117.35916,83.7187 116.98998,82.89817C116.60364,82.03948 116.35252,81.18777 115.98548,80.55C115.53565,79.76838 115.18579,78.93222 114.63281,78.25C113.96082,77.42095 113.65365,76.77155 113.63281,75.85C113.61237,74.94573 113.63287,73.92867 113.63281,73.25C113.63273,72.27167 113.19806,71.60893 112.71681,70.962C112.29642,70.39689 112.28014,69.24467 112.05814,68.50066L111.79948,67.58334L111.64348,66.67133" id="svg_4" stroke-width="3" stroke="#000" fill="none"/>
  <path t="30796,30997,31042,31042,31058,31058,31058,31070,31070,31109,31120,31120,31144,31144,31168,31213,31213,31232,31244,31273,31294,31325,31325,31345,31378,31378,31386,31386,31406,31406,31430,31442,31492,31492,31516,31564,31564,31620,31640,31640,31664,31664,31839,31839,32009" d="M126.63281,89.25C127.15365,86.77084 127.85329,86.06437 128.26881,85.578C128.98846,84.73566 129.43927,83.99548 129.80748,83.53667C130.57317,82.58257 131.06119,82.0147 131.79948,81.41666C132.4969,80.85174 133.23701,80.58228 134.11548,80.334C134.90358,80.11127 135.61125,79.59081 135.91681,78.766C136.17711,78.06332 136.19836,76.84568 136.91815,76.33533C137.66655,75.8047 138.43997,75.67629 139.20215,75.33533C139.92023,75.01409 140.96841,75.46195 141.83281,74.96333C142.43021,74.61874 142.84126,73.52195 143.38998,72.95983C144.02213,72.31226 144.98012,72.25513 145.87564,72.25C146.83279,72.24452 147.75937,72.20578 148.27565,71.5455C148.8645,70.79241 149.36447,70.39719 150.15015,70.166C151.03375,69.90599 151.60185,69.06345 152.13281,68.27084C152.60593,67.56457 153.38998,67.20184 154.28548,66.89733L154.98015,66.60267L155.87114,66.30267" id="svg_5" stroke-width="3" stroke="#000" fill="none"/>
  <path t="32941,33206,33238,33238,33258,33258,33274,33302,33318,33346,33346,33358,33358,33392,33400,33409,33417,33466,33486,33490,33494,33514,33514,33534,33534,33550,33570,33570,33607,33607" d="M176.63281,61.25C177.71681,62.13667 177.91682,62.95359 178.39449,63.59734C179.0219,64.4429 179.8455,64.76804 180.52298,65.5455C181.04805,66.14806 181.59654,66.69669 181.63298,67.57133C181.66853,68.42467 181.79147,69.50158 182.43414,69.96333C183.23463,70.53848 183.80916,70.94624 184.63281,71.25C185.53114,71.58131 186.23776,72.13512 186.58014,72.95983C186.82959,73.5607 187.03174,74.64892 187.63281,75.25C188.23389,75.85108 189.11418,76.20068 189.98015,76.2455C190.8745,76.29178 191.73282,76.47166 192.33281,77.01167L192.83148,77.734L193.27565,78.59734" id="svg_6" stroke-width="3" stroke="#000" fill="none"/>
  <path t="35574,35733,35733,35757,35757,35769,35773,35781,35781,35833,36029,36029,36051,36080,36080,36080,36252,36252,36252" d="M146.63281,140.25C147.63281,140.25 148.39105,140.28954 149.28548,140.2455C150.15155,140.20287 151.02922,139.8759 151.83148,139.33267C152.543,138.85089 152.44102,137.66235 153.20747,137.27133C153.98106,136.87666 154.81815,137.25 155.88014,137.25C156.79948,137.25 157.47948,137.25 158.31947,137.25L159.31548,137.25267L160.11198,137.29167L160.86348,137.42067" id="svg_7" stroke-width="3" stroke="#000" fill="none"/>
  <path t="37959,38101,38218,38256,38256,38272,38272,38276,38297,38297,38349,38353,38374,38394,38410,38414,38414,38426,38426,38446,38458,38478,38490,38490,38506,38506,38534,38558,38566,38566,38604,38616,38616,38636,38660,38660,38688,38738,38738,38802,38802,38846,38846,38866,38920,38946,38946,39016,39016,39039,39264,39589,39589,39608,39616,39616,39644,39644,39703,39703,39761,39761,39777,39809,39813,39913,39968,40018,40018,40050,40050,40054,40074,40099,40115,40115,40123,40123,40131,40131,40143,40155,40171,40179,40179,40191,40209,40255,40255,40275,40279,40349,40349,40420,40420,40428,40440,40468,40488,40488,40488,40496,40504,40536,40536,40544,40544,40556,40556,40592,40610,40610,40610,40634,40634,40650,40702,40706,40730,40787,40787,40850,40866,40886,40886,40917,40929,40929,41042,41314,41314,41356,41372,41393,41422,41422,41464,41464,41472,41500,41500,41543,41579,41579,41627,41627,41819,41852,41852,41852,41871,41904,41950,41950,41968,41972,41996,42000,42024,42040,42044,42052,42052,42060,42060,42088,42100,42124,42124,42128,42156,42156,42177,42177,42177,42185,42197,42213,42229,42229,42265,42265,42297,42297,42379,42379,42421,42421,42437,42437,42479,42483,42483,42521,42537,42634,42634,42667,42667,42671,42734,42757,42757,42818,42818,42914,42983,42983,43719,43722,43722,43738,43738,43747,43758,43758,43779,43779,43831,43831,43841,43841,43994,44070,44136,44156,44260,44260,44260,44435,44435,44545,44545,44587,44587" d="M193.63281,99.25C191.93282,99.25 190.9964,99.22491 190.14748,99.25134C189.22707,99.27999 188.18294,99.43658 187.50481,99.86066C186.72812,100.34639 186.7211,101.36488 186.54749,102.13533C186.36885,102.92802 185.81085,103.74197 185.66881,104.614C185.5182,105.53851 185.65755,106.45165 185.63281,107.41666C185.61197,108.22997 185.15932,108.93463 184.48347,109.26466C183.62596,109.68341 183.63281,110.65 183.63281,111.5545C183.63281,112.41666 183.77185,113.29694 183.41148,114.2285C183.11058,115.00634 182.64323,115.74982 182.63281,116.66067C182.62241,117.57127 182.63281,118.42467 182.63281,119.36467C182.63281,120.25 182.63281,121.05 182.63281,121.886C182.63281,122.90266 182.63281,123.59734 182.63281,124.614C182.63281,125.559 182.63281,126.22066 182.63281,127.25533C182.63281,127.99934 182.63281,129.10699 182.63281,129.94099C182.63281,130.85001 182.67029,131.78773 182.41148,132.57133C182.12184,133.44833 181.69499,134.22198 181.63414,135.04866C181.56796,135.94757 181.64465,136.90147 181.34882,137.73399C181.0979,138.44008 180.76328,139.50092 180.63248,140.35001C180.5228,141.06203 179.67719,141.57819 179.20082,142.22067C178.67024,142.93628 178.64348,143.99915 178.63281,144.91667C178.62221,145.82861 178.63281,146.66066 178.63281,147.57133C178.63281,148.42467 178.63281,149.36467 178.63281,150.35001C178.63281,151.25 178.63281,151.922 178.63281,153.01801C178.63281,153.75 178.63281,154.48199 178.63281,155.578C178.63281,156.45134 178.51419,157.43117 178.67448,158.25C178.8441,159.11644 179.78766,159.5764 180.29948,160.25C180.8232,160.93924 180.8739,161.72241 181.34882,162.41933C181.85071,163.15582 181.63281,164.2285 181.63281,165.04866C181.63281,165.95 181.63281,166.886 181.63281,167.73399C181.63281,168.59734 181.51906,169.49977 181.63414,170.45C181.74557,171.37009 182.30983,171.89279 182.51131,172.79266C182.72163,173.73203 182.63132,174.48199 182.63281,175.578C182.634,176.45134 182.79155,177.41985 183.05815,178.07533C183.34045,178.76947 183.36119,179.89333 183.67448,180.75C183.97566,181.57353 184.9722,181.76346 185.46349,182.73399C185.7863,183.3717 185.88118,184.3942 186.43414,185.04866C186.98688,185.70285 187.49957,186.57874 187.57565,187.25534C187.65895,187.99611 187.6078,189.10738 187.63281,189.94099C187.66141,190.89412 188.54776,191.40269 188.63148,192.13667C188.73787,193.06929 188.63281,194.08333 188.63281,194.83934C188.63281,195.75 188.63281,196.66066 188.63281,197.57133C188.63281,198.42467 188.63281,199.36467 188.63281,200.25C188.63281,201.05 188.73122,201.89168 188.62381,202.89816C188.53902,203.69267 187.65346,203.92667 186.87564,204.47133C186.16016,204.97234 185.4485,205.37703 184.80748,205.686C183.76698,206.18752 183.24315,206.6008 182.43414,207.16733C181.73029,207.66023 181.77295,208.73642 181.09114,209.22917C180.42946,209.70738 179.47513,209.87564 178.51814,210.166C177.84416,210.3705 176.98845,210.92009 176.09015,211.12849C175.39545,211.28967 174.63815,211.24774 173.44714,211.25C172.53281,211.25172 171.63281,211.25 170.87564,211.25C169.98015,211.25 169.03755,211.608 168.17448,211.22917C167.42531,210.90033 167.09094,209.89145 166.79948,209.08333C166.51117,208.28391 166.54579,207.14169 165.98615,206.69667C165.27289,206.1295 164.02887,206.42085 163.64182,205.5455C163.31168,204.79886 163.63498,203.76601 163.63281,202.90266C163.63055,202.00716 163.31355,201.19963 162.98547,200.43567C162.59465,199.5256 162.64433,198.75018 162.63414,198.01801C162.61888,196.9221 162.63281,195.95 162.63281,195.04866C162.63281,194.08333 162.63281,193.42467 162.63281,192.41667C162.63281,191.62466 162.63281,190.59283 162.63281,189.8455C162.63281,188.85001 162.63281,188.05 162.63281,187.05017C162.63281,186.27083 162.63281,185.27116 162.63281,184.44017C162.63281,183.48199 162.63281,182.75 162.63281,182.01801C162.63281,180.922 162.63281,179.9455 162.63281,179.08333C162.63281,178.25 162.60509,177.27103 162.63281,176.45134C162.66142,175.60571 163.43413,175.29355 164.28098,174.88834C164.9633,174.56184 165.56429,173.60275 165.62381,172.90266C165.71085,171.87885 165.8721,170.93538 166.13281,170.22917C166.49104,169.25883 166.5545,168.44095 166.71681,167.64999C166.92345,166.64302 167.16742,165.7012 168.04349,165.32201C168.88182,164.95914 169.63281,165.25 170.61148,165.25C171.51682,165.25 172.46881,165.25174 173.23415,165.25C174.22383,165.24774 174.98492,165.0656 175.68098,164.60266C176.37299,164.14243 177.35887,164.41771 178.15364,164.20833C179.01964,163.98018 179.63765,163.20984 180.23415,162.73267C181.01147,162.11082 181.79681,161.69667 182.74881,161.334L183.51682,161.166L184.28548,160.89734L185.14882,160.534" id="svg_8" stroke-width="3" stroke="#000" fill="none"/>
  <path t="47789,47857,47885,47889,47893,47897,47905,47905,47917,47917,47921,47921,47947,47947,47955,47955,47955,47971,47971,47991,48007,48007,48015,48019,48019,48047,48059,48069,48077,48097,48117,48117,48153,48165,48177,48205,48205,48205,48233,48233,48249,48261,48269,48269,48281,48281,48293,48305,48317,48321,48341,48341,48341,48349,48349,48361,48361,48385,48393,48401,48409,48417,48417,48429,48445,48453,48453,48461,48461,48469,48481,48497,48505,48505,48517,48517,48529,48529,48545,48545,48561,48561,48565,48577,48581,48597,48613,48613,48629,48649,48661,48661,48665,48669,48693,48693,48709,48729,48745,48745,48761,48761,48797,48797,48854,48854,48870,48894,48898,48898,48906,48906,48941,48969,48981,48981,48993,49009,49009,49033,49041,49049,49049,49057,49057,49069,49073,49089,49089,49089,49093,49097,49301,49319,49332,49332,49332,49332,49349,49349,49361,49377,49405,49405,49425,49429,49473,49537,49537,49549,49549,49736" d="M113.63281,116.25C114.65365,115.75 115.45502,115.3381 116.32832,115.2545C117.22871,115.1683 118.15365,115.25 118.95432,115.25C119.84348,115.25 120.83729,115.18345 121.61198,115.27084C122.625,115.3851 123.23972,115.88843 124.11815,116.45133C124.64317,116.78777 125.6535,117.39256 126.22382,117.90266C126.78201,118.40193 127.30905,119.26544 127.71548,120.04867C128.10153,120.79265 128.97702,121.31532 129.63281,121.77084C130.4987,122.37229 131.0544,123.04385 131.34615,123.766C131.67738,124.58589 131.45837,125.70044 132.06882,126.22467C132.78114,126.8364 133.60422,127.20022 133.63281,127.95983C133.66319,128.76677 133.62772,129.83936 133.63281,130.75C133.63731,131.55453 133.94067,132.43791 134.49414,133.07533C134.96378,133.6162 135.8894,134.26173 136.34615,135.04866C136.77159,135.78168 136.60933,136.77115 136.63414,137.73399C136.65196,138.42531 136.98938,139.3239 137.34882,140.04866C137.77631,140.91063 138.23206,141.73102 138.51164,142.5715C138.73688,143.24863 138.92889,144.27571 139.48347,145.03934C139.90044,145.61348 140.50539,146.50291 140.71548,147.134C141.03191,148.08447 141.46803,148.74113 141.61198,149.72917C141.74477,150.64061 141.61122,151.56212 142.05815,152.23534C142.55203,152.97928 142.65584,153.79456 143.05815,154.614C143.48506,155.48354 143.63281,156.35017 143.63281,157.13533C143.63281,158.07533 143.14191,158.92906 143.70482,159.80333C144.18411,160.54771 145.28706,160.42426 145.79948,161.25C146.19791,161.89204 146.58078,162.73268 146.62215,163.46066C146.67827,164.44829 146.50404,165.27126 146.85414,166.22867C147.15756,167.05843 147.59671,167.90138 147.62831,168.59734C147.67393,169.60242 148.35851,170.12389 148.62215,170.86067C148.9288,171.71768 148.63281,172.73399 148.63281,173.42467C148.63281,174.49283 148.63281,175.35001 148.63281,176.25C148.63281,177.13533 148.51303,178.12183 148.80348,178.76601C149.17436,179.58856 150.31326,179.92694 150.61148,180.85001C150.86078,181.62167 150.63281,182.5715 150.63281,183.46066C150.63281,184.44983 150.63281,185.22917 150.63281,186.22867C150.63281,187.00267 150.63281,187.90266 150.63281,188.76601C150.63281,189.72917 150.52078,190.70322 150.91815,191.45134C151.32007,192.20801 151.97789,192.88002 152.27565,193.59734C152.63773,194.46959 152.63281,195.45 152.63281,196.35017C152.63281,197.13533 152.63281,198.07533 152.63281,199.08333C152.63281,199.83934 152.63281,200.75 152.63281,201.66066C152.63281,202.57133 152.58223,203.4261 152.63414,204.366C152.67674,205.13741 152.96899,205.92493 153.39449,206.71167C153.92287,207.68864 154.29611,208.18896 154.77148,208.98866C155.31706,209.90645 155.31136,210.76801 155.64348,211.63933C155.90508,212.32561 157.1329,212.25865 157.99081,212.2455C158.63295,212.23566 159.61467,212.29124 160.57681,211.966C161.35992,211.70128 162.15056,211.28798 162.93732,210.89734C163.82144,210.45836 164.45882,210.30136 165.46614,210.25C166.32909,210.20599 167.1662,209.73364 167.63281,209.08333C168.19545,208.29919 168.79948,207.58333 169.44748,207.31134L170.38982,207.0285" id="svg_9" stroke-width="3" stroke="#000" fill="none"/>
  <path t="50933,51021,51047,51047,51051,51059,51075,51075,51079,51087,51099,51099,51115,51115,51115,51127,51131,51143,51143,51147,51151,51159,51163,51183,51183,51183,51211,51223,51223,51231,51231,51260,51297,51315,51327,51331,51331,51360,51360,51368,51388,51388,51400,51424,51424,51436,51456,51456,51486,51517,51539,51591,51591,51823,51823,51945,51961,51981,51993,52045,52045,52063,52091,52091,52137,52149,52153,52167,52182,52198,52198,52214,52355,52355,52461,52675,52713,52713,52725,52725,52741,52749,52757,52757,52765,52777,52785,52785,52805,52805,52805,52821,52831,52853,52853,52861,52861,52881,52893,52919,52919,52950,52962,52970,52970,52986,52986,52994,53010,53018,53026,53026,53034,53034,53050,53058,53066,53066,53074,53098,53098,53127,53127,53147,53147,53179,53191,53235,53235,53254,53282,53282,53302,53314,53314,53338,53362,53384,53417,53417,53417,53472,53476,53497,53533,53533,53557,53599,53623,53627,53676,53676,53697,53741,53757,53807,53807,53825,53825,53889,53924,53965,53969,53997" d="M135.63281,137.25C136.61198,138.27083 136.63281,139.2285 136.63281,140.04866C136.63281,140.95 136.63281,141.886 136.63281,142.73399C136.63281,143.59734 136.53354,144.62007 136.63414,145.45C136.74567,146.37009 137.36958,147.04367 137.54749,148.01801C137.67947,148.74089 137.63214,149.48199 137.63281,150.578C137.63335,151.45134 137.63281,152.41667 137.63281,153.25C137.63281,154.2285 137.63281,154.9455 137.63281,155.85001C137.63281,156.79167 137.63281,157.79266 137.63281,158.50067C137.63281,159.24467 137.63281,160.27933 137.63281,161.25C137.63281,162.13533 137.63281,163.07533 137.63281,163.76601C137.63281,164.72917 137.63281,165.64999 137.63281,166.55901C137.63281,167.58333 137.63275,168.25534 137.63281,168.99933C137.6329,170.10699 137.71025,170.9305 138.13281,171.77083C138.53061,172.56192 138.62747,173.42462 138.63281,174.36467C138.63783,175.24998 138.63281,176.05 138.63281,177.00717C138.63281,177.90266 138.63281,178.76601 138.63281,179.72917C138.63281,180.55 138.63281,181.45134 138.63281,182.41667C138.63281,183.25 138.65442,184.22882 138.63281,184.9455C138.60422,185.89413 137.8004,186.06566 136.93282,186.30717C136.16177,186.52182 135.31654,187.1723 134.63281,187.22917C133.52179,187.32158 132.63281,187.25 131.83281,187.25C130.99681,187.25 129.98015,187.25 129.28548,187.25C128.26881,187.25 127.33282,187.25 126.43148,187.25C125.74748,187.25 124.80748,187.25 123.79948,187.25C122.93732,187.25 122.03281,187.25008 121.22215,187.25C120.31148,187.24991 119.37872,187.4174 118.51948,186.96466C117.81937,186.59576 117.63506,185.55002 117.63281,184.72917C117.63017,183.76601 117.63344,182.90266 117.63281,182.00717C117.63214,181.05 117.34724,180.18469 117.05814,179.578C116.66146,178.74553 116.64435,177.75018 116.63415,177.01801C116.61888,175.9221 116.63281,175.04866 116.63281,174.08333C116.63281,173.42467 116.63281,172.41667 116.63281,171.5545C116.63281,170.64999 116.63281,169.72917 116.63281,168.76601C116.63281,168.07533 116.63281,167.00717 116.63281,166.14999C116.63281,165.25 116.63281,164.49283 116.63281,163.59734C116.63281,162.73399 116.63281,161.77083 116.63281,160.85001C116.63281,159.9455 116.63281,159.08333 116.63281,158.25C116.63281,157.2715 116.63281,156.45134 116.63281,155.55C116.63281,154.614 116.63281,153.76601 116.63281,152.90266C116.63281,152.00717 116.63281,151.04733 116.63281,150.27933C116.63281,149.24467 116.63281,148.50067 116.63281,147.58333C116.63281,146.67134 116.63281,145.75 116.63281,144.83934C116.63281,143.92867 116.63281,143.07533 116.63281,142.13533C116.63281,141.25 116.63281,140.45 116.63281,139.614C116.63281,138.59734 116.63281,137.90266 116.63281,136.886C116.63281,135.95 116.63281,135.04866 116.63281,134.08333C116.63281,133.414 116.63281,132.64867 116.63281,131.46066C116.63281,130.73534 116.63281,129.75 116.63281,128.76601C116.63281,128.07533 116.63281,127.00716 116.63281,126.15C116.63281,125.25 116.63281,124.49284 116.63281,123.59734C116.63281,122.734 116.63281,121.77084 116.63281,120.85C116.63281,119.9455 116.63281,119.08334 116.63281,118.25C116.63281,117.2715 116.63281,116.45133 116.63281,115.55C116.63281,114.614 116.63281,113.766 116.63281,112.90266L116.63281,112.00716" id="svg_10" stroke-width="3" stroke="#000" fill="none"/>
  <path t="55315,55376,55388,55408,55416,55432,55436,55436,55468,55500,55500,55516,55560,55560,55584,55584,55584,55596,55620,55660,55660,55660,55742,55811,55883,55883,55959,55959,55989,56099,56130,56130,56174,56174,56219,56239,56255,56271,56287,56287,56299,56319,56347,56363,56387,56387,56407,56423,56427,56443,56467,56471,56479,56497,56521,56529,56529,56638,56775,56799,56807,56807,56823,56831,56831,56851,56867,56895,56895,56980,56988,57016" d="M121.63281,184.25C121.91682,185.166 122.56126,185.61928 123.13281,186.25C123.63741,186.80682 124.05533,187.58917 124.65365,188.25C125.13427,188.78082 125.88744,189.48122 126.63281,190.25C127.20602,190.84122 127.52851,191.68585 127.85448,192.57133C128.11368,193.27547 128.7821,194.10469 129.28098,194.49283C130.03851,195.08221 130.533,195.79208 130.98997,196.5545C131.54286,197.47694 131.93376,198.14177 132.43282,198.68066C133.08621,199.38622 133.63055,200.01166 133.63281,200.90717C133.63469,201.6545 133.63281,202.64867 133.63281,203.414C133.63281,204.49283 133.63281,205.35001 133.63281,206.25C133.63281,207.00717 133.63281,207.90266 133.63281,208.76601C133.63281,209.72917 133.8727,210.68398 133.62831,211.5455C133.40779,212.32291 132.67139,212.95877 132.63414,213.76733C132.58986,214.72841 132.35231,215.65341 131.63281,216.08333C130.86235,216.5437 130.19583,217.17947 129.44748,217.23933C128.52104,217.31345 127.63281,217.25 126.83282,217.25C125.87565,217.25 124.98015,217.25 124.11681,217.25C123.15365,217.25 122.33282,217.25 121.43148,217.25C120.46615,217.25 119.53864,217.46788 118.80215,216.966C118.10522,216.49109 117.33282,216.25 116.43148,216.25C115.74748,216.25 114.76634,216.40826 113.79948,216.08333C112.98517,215.80966 112.23335,215.26801 111.32832,215.25C110.46632,215.23285 109.63281,215.25 108.65448,215.24983L107.79948,215.08333L107.41148,214.37117" id="svg_11" stroke-width="3" stroke="#000" fill="none"/>
  <path t="60239,60417,60439,60439,60459,60459,60459,60459,60459,60471,60471,60479,60479,60487,60811,60811" d="M106.63281,212.25C107.63281,213.27083 107.75973,214.30679 108.27948,214.83934C109.00443,215.58214 109.89175,215.84761 110.46615,216.58333C110.94899,217.20178 111.23068,217.98691 111.46615,218.91667C111.70361,219.85431 111.91814,220.73267 112.24348,221.38867L112.92831,222.14467L113.54748,222.81934L113.62831,223.60184" id="svg_12" stroke-width="20" stroke="#fff" fill="none"/>
  <path t="63291,63479,63497,63533,63533,63549,63549,63573,63573,63746,63746" d="M116.63281,206.25C116.63281,207.13667 116.60992,208.07559 116.63281,209.08333C116.65082,209.87595 116.94715,210.72391 117.20748,211.46066C117.55225,212.43637 117.63281,213.22917 117.85448,214.2285L118.27948,214.83934" id="svg_13" stroke-width="20" stroke="#fff" fill="none"/>
  <path t="66499,66760,66775,66775,66802,66802,66814,66986,67094,67094,67125,67125,67196,67237,67343" d="M115.63281,202.25C116.06882,205.578 116.82447,206.28275 117.19682,206.886C117.67879,207.66687 117.62994,208.59734 117.63281,209.49283C117.63589,210.45 117.93795,211.30289 118.28014,212.00717C118.69164,212.85408 118.80215,213.68066 119.48348,214.18867L120.38998,214.47133L120.91814,215.16467" id="svg_14" stroke-width="3" stroke="#000" fill="none"/>
  <path t="71245,71473,71473,71531,71531,71600,71634,71666,71666,71686,71686,71710,71710,71710,71751,71763,71763,71771,71791,71791,71815,71815,71823,71831,71855,71863,71863,71899,71899,71907,71915,71931,71943,71943,71959,71959,71967,71975,71983,71999,71999,72019,72035,72035,72047,72091,72091,72107,72131,72131,72157,72250,72254" d="M156.63281,69.25C157.63281,69.25 158.38998,69.25 159.28548,69.25C160.14882,69.25 161.18402,69.13157 161.93282,69.60717C162.73506,70.11671 163.25041,70.87624 163.95415,71.35017C164.61644,71.79617 165.50539,72.38689 165.99681,73.07533C166.47093,73.73952 167.12329,74.38873 167.51131,75.35C167.77716,76.00861 167.60439,77.041 167.99448,77.90266C168.32507,78.63293 168.96744,79.2113 169.61198,79.72916C170.48088,80.42729 170.37721,81.35821 170.85414,82.12884C171.30995,82.86533 171.52576,83.48283 171.91681,84.36467C172.24477,85.10422 172.25322,85.94293 172.66881,86.814C173.02171,87.55369 173.61032,88.12148 173.63148,88.85267C173.66008,89.84064 173.74503,90.77979 174.63281,91.22916C175.42227,91.62878 176.20651,92.05717 176.54749,92.81934C176.86873,93.53742 176.51846,94.66582 176.91681,95.45C177.25166,96.10918 177.65082,97.01953 177.98547,97.90266C178.25287,98.60829 178.38895,99.70493 179.07565,100.12867C179.86327,100.61469 180.87114,100.60717 181.46614,101.25L181.68549,102.00716" id="svg_15" stroke-width="3" stroke="#000" fill="none"/>
  <path t="76137,76379,76427,76525,76525,76549,76549,76573,76573,76601,76601,76633,76649,76649,76657,76665,76681,76681,76693,76693,76701,76709,76709,76724,76724,76744,76744,76953,76969,76985,76985,77001,77001,77013,77013,77041,77041,77087,77087,77098" d="M118.63281,347.25C121.22215,347.25 122.22308,347.31067 122.83414,346.68066C123.35905,346.1395 123.91111,345.20413 124.63281,344.79166C125.4262,344.3382 126.30373,344.26855 126.93282,343.54468C127.40003,343.00705 128.15283,342.27084 128.95415,342.25C129.80719,342.22781 130.7516,342.33994 131.73282,342.24985C132.64426,342.16617 133.22881,341.55014 134.11681,341.33533C134.95961,341.13144 135.87564,341.25 136.83548,341.25C137.60349,341.25 138.63815,341.25 139.38214,341.25C140.29948,341.25 141.2115,341.2554 142.13281,341.25C143.04353,341.24466 143.95139,341.02182 144.63281,340.75C145.60745,340.36121 146.39966,340.13022 146.83281,339.39801C147.19638,338.78342 147.63281,337.75 148.30481,337.28201L149.17548,337.25L150.13281,337.25L150.86481,337.25" id="svg_16" stroke-width="3" stroke="#000" fill="none"/>
  <path t="78132,78259,78301,78301,78370,78370,78408,78408,78428,78428,78443,78443,78458,78458,78482,78498,78506,78522,78542,78542,78597,78621,78661,78677,78677,78707,78707,78715,78747,78747,78757,78803,78803,78845,78865,81244,81244,81451,81462,81506,81506,81569,81681,81681,81727,81829,81868,81868,81945,81945,81953,81991,82096,82096,82116,82124,82144,82164,82184,82184,82194,82194,82206,82206,82230,82246,82254,82270,82270,82282,82282,82298,82306,82306,82306,82314,82367,82509,82509,82539,82539,82594,82620,82636,82636,82636,82652,82735,82751,82763,82763,82783,82803,82883,82883,82968,82968,83009,83043,83117,83117,83142,83150,83150,83158,83166,83166,83174,83174,83190,83190,83210,83242,83260,83288,83288,83296,83316,83316,83336,83388,83388,83411,83427,83463,83640,83640,83666,83666" d="M118.63281,344.25C118.63281,343.22916 118.61726,342.27121 118.63281,341.366C118.64881,340.43491 118.8284,339.69324 119.69531,339.35535C120.58984,339.00668 121.52435,338.84244 122.09115,338.25C122.77724,337.5329 123.51815,337.25134 124.45815,337.25C125.14881,337.24902 126.22216,337.25546 127.13281,337.25C128.02219,337.24466 128.56522,336.56491 129.34265,336.30716C130.11095,336.05246 131.11198,336.25 132.03281,336.25C132.93732,336.25 133.79948,336.25 134.63281,336.25C135.61131,336.25 136.56805,336.65338 137.34747,336.16467C138.08794,335.70038 138.51949,335.25067 139.45815,335.25C140.46614,335.24927 141.22215,335.25 142.13281,335.25C143.04349,335.25 143.95415,335.24939 144.80748,335.25C145.74614,335.25067 146.5901,335.53238 146.63281,336.45132C146.66457,337.13461 146.66617,338.0759 146.63281,339.08334C146.60422,339.94693 146.01189,340.55954 145.71814,341.45132C145.41496,342.37177 145.63281,343.25 145.63281,344.22852C145.63281,344.9455 145.63281,345.85001 145.63281,346.77084C145.63281,347.73401 145.63281,348.42465 145.63281,349.49283C145.63281,350.35001 145.17967,351.52377 145.85431,352.12851C146.51474,352.72049 147.44896,352.40649 148.04349,353.10068C148.53168,353.67068 149.45558,354.21176 150.14882,354.24734C151.22075,354.30234 152.13925,354.15207 153.04349,354.26068C153.97153,354.37213 154.59889,354.8533 155.61131,355.12851C156.31235,355.31909 157.30481,355.25 158.17548,355.25C158.88348,355.25 159.86481,355.25 160.81848,355.25C161.73282,355.25 162.63281,355.25 163.38998,355.25C164.28548,355.25 165.27834,355.71719 166.18614,355.21399C166.86829,354.83588 166.63281,353.70734 166.63281,352.75C166.63281,352.01801 166.48466,351.01401 166.85414,350.14984C167.16197,349.42984 167.60295,348.59866 167.63148,347.73401C167.66324,346.77136 167.55157,345.8125 167.91681,345.04868C168.26579,344.31879 168.62531,343.42551 168.63148,342.73401C168.64108,341.66016 168.21509,340.83228 167.63281,340.25C167.05054,339.66772 166.22269,339.26801 165.31148,339.25C164.45831,339.23312 163.51111,339.36713 162.53281,339.24966C161.81752,339.16379 161.32831,338.29327 160.74748,337.81799C159.92494,337.1449 159.11681,337.25134 158.04349,337.25C157.13281,337.24887 156.22215,337.25 155.31148,337.25C154.45815,337.25 153.51814,337.25 152.63281,337.25C151.83281,337.25 150.99681,337.25 149.98015,337.25C149.28548,337.25 148.26881,337.25 147.33281,337.25C146.43147,337.25 145.46614,337.25 144.69531,337.25L144.61948,337.25L145.27948,337.25" id="svg_17" stroke-width="3" stroke="#000" fill="none"/>
  <path t="84227,84719,84759,84759,84764,84803,84803,84836,84836,84868,84876,84892,84892,84958,84979,84979,84999,84999,85105,85346,85346,85376,85404,85404,85431,85431,85447,85447,85471,85471,85491,85491,85587,85587,85587,85613,85613,85617,85757,85840,85866,85886,85906,85906,86099,86099,86117,86137,86153,86153,86157,86157,86165,86185,86189,86224,86224,86250,86299,86299,86299,86320,86341,86349,86377,86405,86413,86413,86518,86793,86793,86824,86824,86824,86840,86840,86864,86864,86896,86896,86904,86904,86920,86932,86932,86944,87245,87406,87488,87488,87595,87615,87615,87631,87639,87639,87651,87663,87663,87699,87715,87715,87719,87727,87845,87845,87877,87877,87889,87897,87909,87913,87913,87933,87933,87957,87967,87978,87978,88020,88020,88052,88052,88057,88061,88069,88085,88085,88093,88113,88218,88218,88249,88253,88266,88347,88634,88654,88674,88678,88690,88787,88946,88950,88981,88989,89001,89013,89013,89021,89034,89046,89046,89186,89186,89289,89289,89335,89420,89420,89475,89475,89479,89503,89511,89511,89519,89519,89539,89539,89547,89563,89563,89583,89587,89587,89595,89619,89623,89653,89683,89683,89695,89711,89711,89735,89770,89786,89798,89798,89810,89810,89826,89844,89844,89876,89876,90163,90185,90185,90193,90197,90201,90201,90205,90205,90213,90213,90213,90213,90217,90217,90221,90237,90237,90237,90442,90442,90449,90469,90493,90493,90509,90509,90517,90517,90517,90537,90545,90561,90561,90573,90581,90601,90601,90617,90617,90625,90629,90633,90641,90663,90663,90671,90699,90699,90729,90761,90761,90799,90823,90847,90865,90865,90877,90877,90893,90901,90909,90909,90917,90937,90937,90937,90945,90945,90957,90957,90969,90969,91040,91040,91100,91124,91136,91258,91258" d="M162.63281,336.25C163.80214,335.44867 164.47334,334.81485 165.15015,334.53534C166.1599,334.11835 166.52844,333.52615 166.71681,332.64734C166.93172,331.64471 167.326,330.95227 168.02214,330.31134C168.64374,329.73904 169.44519,329.51816 170.06482,329.08066C170.76541,328.58597 170.71338,327.35898 171.24348,326.66068C171.75662,325.98471 172.34142,325.33755 173.15364,324.77084C173.8873,324.25894 174.83051,324.45438 175.74614,324.24734C176.51894,324.0726 176.57748,323.06302 176.63414,322.134C176.68117,321.36285 177.10425,320.42996 177.34882,319.64868C177.5947,318.86325 177.61497,318.0499 177.63298,317.04984C177.64775,316.22903 177.76009,315.07245 177.99448,314.30182C178.239,313.49789 178.7605,312.54425 179.28098,312.06433C179.88164,311.5105 180.35536,310.45108 181.15364,310.29166C181.97635,310.12738 182.91066,310.86893 183.51164,311.47168C184.02402,311.98553 184.29044,312.95502 184.98465,313.54016C185.69891,314.14221 186.73282,314.25 187.63281,314.25C188.38998,314.25 189.39085,314.51065 190.06348,314.07935C190.78523,313.61655 190.71338,312.35898 191.24348,311.66068C191.75662,310.98471 192.43282,310.45001 193.04349,309.83932C193.79947,309.08334 194.32802,308.63803 194.92297,307.90268C195.51266,307.17383 196.1996,306.57233 196.59682,305.814C196.99606,305.05179 197.22679,304.37213 197.54881,303.68066C197.88416,302.96057 197.98517,301.70938 198.79948,301.41666C199.56808,301.14035 200.49081,301.89819 200.53947,302.53668C200.61166,303.48398 200.10013,304.32343 199.44748,304.82867C198.56351,305.51303 197.91434,305.92786 197.33281,306.5545C196.81148,307.11627 196.19707,308.05533 195.91815,308.76599C195.54892,309.70679 195.0927,310.50317 194.44748,310.814C193.55331,311.24475 192.42863,311.80365 193.07948,312.21399C193.82001,312.68085 194.82942,312.05084 195.74614,312.25266C196.51993,312.423 196.62747,313.43527 196.63281,314.36465C196.63789,315.25 196.63522,316.04999 196.63281,317.00717C196.63055,317.90268 196.80679,318.71948 196.18614,319.61401C195.6385,320.40329 194.82378,320.67645 194.11681,320.96466C193.19316,321.34119 192.69202,322.10132 192.65364,322.77084C192.58807,323.91498 192.63045,324.70834 192.63281,325.64999C192.63507,326.5455 193.20386,327.13873 193.55014,327.81934C193.91556,328.53757 194.30133,329.56393 194.98465,329.88834C195.83525,330.29218 196.88251,330.09357 197.63281,330.41666C198.34521,330.72342 199.09146,331.50732 199.84348,331.814C200.8046,332.20593 201.6167,332.15793 202.46614,332.25C203.35732,332.34659 203.39967,333.4646 204.07565,334.00699C204.68004,334.49191 205.7516,334.16006 206.73282,334.25015C207.64426,334.33383 208.22881,334.94986 209.11681,335.16467C209.95961,335.36856 210.87564,335.24991 211.83281,335.25C212.73265,335.25009 213.57191,335.46524 213.63281,336.35016C213.68672,337.13348 213.99835,338.24026 213.41132,339.00717C212.87665,339.70566 211.4866,339.91409 211.67448,340.72916C211.84615,341.47385 213.15364,341.25 214.11681,341.25C214.80748,341.25 215.87564,341.25 216.73282,341.25C217.63281,341.25 218.44714,341.25 219.40082,341.25C220.13281,341.25 221.29948,341.25 222.09114,341.25C222.93732,341.25 223.97925,341.11938 224.63281,341.3125C225.53543,341.57919 226.02914,342.52097 226.27115,343.24918C226.60701,344.2598 226.46486,345.07971 225.74614,345.33401C224.7951,345.67053 224.24808,345.98639 223.23415,346.16467C222.30084,346.32877 221.38542,346.2388 220.46614,346.25C219.6118,346.26044 218.62407,346.39136 217.84348,346.67532C217.10916,346.94247 216.25867,347.23199 215.31148,347.25C214.4583,347.26624 213.51814,347.25 212.63281,347.25C211.83281,347.25 210.87564,347.25 209.98015,347.25C209.11681,347.25 208.15364,347.25061 207.33281,347.25C206.43147,347.24933 205.43753,347.14383 204.81815,346.814C203.91629,346.33371 203.62666,345.52432 203.11198,344.72916C202.57518,343.89981 202.30568,343.0994 201.53265,342.49283C200.96735,342.04926 199.27864,342.01816 199.53998,341.37167C199.86879,340.55823 201.34584,341.32718 202.13281,341.79166C203.02989,342.32111 203.40016,342.74014 204.17448,343.27084C204.73941,343.65802 205.63124,344.25238 206.52832,344.84549C207.11096,345.23071 207.66522,345.61014 208.71149,346.22867C209.4008,346.63617 210.09116,346.9931 211.05415,347.57117C211.86299,348.0567 212.36964,348.47256 213.46614,348.91666C214.15164,349.19431 215.08327,349.07358 215.87114,349.60718C216.6828,350.15689 216.40338,351.09756 215.57031,351.5545C214.89322,351.9259 213.91763,352.37061 213.30481,353.06467C212.79224,353.64517 212.12509,354.13126 211.22215,354.26068C210.29689,354.39331 209.64098,354.77182 208.65448,355.12866C207.80609,355.43555 207.41811,356.1879 206.66081,356.24866C205.6308,356.3313 204.88348,356.25 203.77582,356.25C203.05415,356.25 202.13281,356.25 201.22215,356.25C200.31148,356.25 199.45815,356.25 198.51814,356.25C197.63281,356.25 196.83281,356.25 195.87564,356.25C194.98015,356.25 194.11681,356.25 193.26881,356.25C192.33281,356.25 191.43147,356.25 190.46614,356.25C189.63281,356.25 188.79948,356.25 187.93732,356.25C187.03281,356.25 186.11198,356.25 185.14882,356.25C184.45815,356.25 183.36543,356.33386 182.46614,356.08334C181.77489,355.89078 181.04623,355.45468 180.03281,355.30716C179.23944,355.19168 178.22632,355.32852 177.46881,355.21399C176.49609,355.06693 175.76924,354.4473 174.98015,354.30716C174.12833,354.15588 173.15364,354.25 172.23282,354.25L171.32831,354.25L170.46614,354.25L169.63281,354.25" id="svg_18" stroke-width="3" stroke="#000" fill="none"/>
  <path t="92667,93149,93149,93231,93231,93253,93265,93265,93292,93292,93312,93312,93477,93576,93595,93615,93627,93643,93659,93663,93705,93749,93749,93757" d="M188.63281,337.25C189.34265,336.89282 190.0296,336.60779 190.87564,335.95001C191.46587,335.49112 192.23299,334.77887 192.51147,333.92868C192.78101,333.10587 192.83987,332.05988 193.39449,331.5545C194.18848,330.83099 194.97737,330.59888 195.87564,330.30267C196.73009,330.02094 197.54918,329.57144 197.63281,330.45001C197.71808,331.34576 197.19437,331.94687 196.75415,332.69266C196.38728,333.31418 196.09114,334.20834 195.14882,334.25L194.45815,334.25L193.39449,334.25449" id="svg_19" stroke-width="3" stroke="#000" fill="none"/>
  <path t="95141,95691,95731,95731,95764,95809,95822,95834,95834,95842,95846,95846,95862,95866,95866,95866,95882,95882" d="M170.63281,331.25C170.63281,329.49283 170.63281,328.59732 170.63281,327.73401C170.63281,326.77084 170.63281,325.85001 170.63281,325.04868C170.63281,324.08334 170.33533,323.09412 170.91815,322.41934C171.50873,321.7356 172.46088,321.59534 173.26881,321.18866C174.1524,320.74393 174.63281,320.20834 175.14882,319.64734L175.74748,318.85135L176.22215,318.086" id="svg_20" stroke-width="3" stroke="#000" fill="none"/>
  <path t="96036,96104,96120,96120,96132,96136,96148,96148,96164,96164,96168,96168,96180,96180,96196,96196,96196,96208,96216,96216,96224" d="M182.63281,312.25C183.61198,313.27084 183.63281,314.22852 183.63281,315.04868C183.63281,315.95001 183.65791,316.88638 183.63148,317.73532C183.60284,318.65576 183.51576,319.49973 183.11198,320.20834C182.56361,321.17072 181.78595,321.47592 181.32831,322.3125C180.95767,322.99002 180.51302,323.9649 179.98015,324.43567C179.33635,325.00439 178.38998,325.5455 177.63281,326.08334L176.83281,326.24866L175.99681,326.28601" id="svg_21" stroke-width="3" stroke="#000" fill="none"/>
  <path t="103051,103204,103261,103261,103277,103297,103309,103325,103325,103341,103341,103345,103345,103361,103377,103401,103401,103429,103445,103449,103465,103517,103517,103809,103843,103871,103929,103929,103939" d="M120.63281,155.25C120.71815,154.36333 121.0312,153.40343 121.43414,152.73399C121.88739,151.98097 122.17297,150.88091 122.85448,150.37151C123.61763,149.80107 124.51546,150.45291 125.46615,150.08333C126.27267,149.76979 126.37455,148.7175 126.68548,147.95984C126.99522,147.20506 128.04349,147.25 128.95415,147.25C129.80748,147.25 130.74748,147.25 131.63281,147.25C132.43282,147.25 133.38998,147.25 134.28548,147.25C135.14882,147.25 136.11198,147.24878 136.93282,147.25C137.83415,147.25134 138.79948,147.58333 139.28998,147.95984L140.03731,148.60184" id="svg_22" stroke-width="3" stroke="#000" fill="none"/>
  <path t="106420,106650,106675,106675,106687,106699,106699,106711,106711,106719,106719,106719,106719,106727,106727,106727,106743,106763,106767,106767,106848,106848,106866" d="M120.63281,199.25C120.65365,198.25 121.11686,197.48041 121.60748,196.814C122.16524,196.0564 122.74009,195.39626 123.38998,195.19733C124.30128,194.91838 125.07825,194.47377 125.83298,193.7075C126.26187,193.27205 126.8225,192.48283 127.31815,192.10333C128.24118,191.39659 129.11049,191.2883 129.86348,191.254C130.95978,191.20406 131.74139,190.80025 132.63281,190.41667C133.3441,190.1106 134.28548,190.25 135.14882,190.25L136.11198,190.25" id="svg_23" stroke-width="3" stroke="#000" fill="none"/>
  <path t="109098,109211,109221,109225,109225,109253,109257,109257,109257,109261,109261,109285,109285,109301,109301,109301,109325,109325,109337,109337,109337,109369,109369,109381,109381,109527,109527,109544,109577,109585,109607,109607" d="M155.63281,92.25C154.61198,91.27084 153.6539,91.22403 152.83415,91.25C151.93146,91.27859 151.10684,91.78638 150.46614,92.41666C149.97618,92.89866 149.28548,93.59734 148.65431,94.2285C148.04349,94.83933 147.36624,95.61178 146.66214,96.05C145.9043,96.52168 145.09683,96.70609 144.40082,97.13533C143.55124,97.65927 143.08521,98.48896 142.31165,99.22867C141.85434,99.66596 141.09424,100.08271 140.68349,101.086C140.38191,101.82262 140.13322,102.71236 139.44748,103.378C138.72113,104.08306 137.81949,104.23724 137.63414,105.05133C137.43465,105.92757 137.63281,106.886 137.63281,107.734L137.63281,108.59734" id="svg_24" stroke-width="3" stroke="#000" fill="none"/>
  <path t="110012,110103,110152,110152,110172,110180,110214,110214,110230,110230,110238,110238,110250,110250,110270,110270,110286,110443" d="M157.63281,94.25C158.80214,95.05133 159.50655,95.63034 160.15015,96.05C161.01425,96.61345 161.99295,96.88303 162.51147,97.69283C162.91959,98.33022 162.87637,99.40055 163.39449,100.00267C164.06432,100.78111 164.56839,101.31572 165.46614,101.91666C166.05476,102.31068 166.58014,102.95983 166.71681,103.76733L167.05815,104.614L167.54881,105.44867" id="svg_25" stroke-width="3" stroke="#000" fill="none"/>
 </g>
</svg>