<svg width="500" height="333.3333333333333" xmlns="http://www.w3.org/2000/svg" xmlns:svg="http://www.w3.org/2000/svg" xmlns:xlink="http://www.w3.org/1999/xlink">
 <!-- Created with SVG-edit - http://svg-edit.googlecode.com/ -->
 <g display="inline" class="layer">
  <title>Layer 1</title>
  <path t="0,309,310,325,484,541,579,651,728,795,797,814,886,984,997,1050,1051,1069,1142,1228,1228,1320,1447,1468,1483,1657,2121,2140,2158,2225,2249,2282,2423,2462,2481,2517,2517,2568,2605,2695,2735,2825,2863,2864,2918,2956,2975,2993,2994,3093,3142,3167,3186,3257,3279,3304,3317,3333,3440,3441,3495,3586,3731,3803,3849,3859,4019,4020,4037,4110,4165,4206,4232,4233,4246,4247,4260,4278,4299,4315,4333,4334,4398,4452,4530,4547,4569,4582,4583,4616,4637,4653,4673,4674,4690,4709,4710,4725,4795,4889,5079,5214,5759,5778,5922,6066,6157" d="M116,192.66667C111.42533,196.61067 111.05756,197.56845 110.5,198.14583C109.84566,198.82344 109.19788,199.33655 108.5,199.64583C107.65381,200.02084 107.13199,200.20871 106.432,200.58267C105.65566,200.99742 104.89112,201.22487 104.35267,201.72383C103.79246,202.24297 103.50526,203.15097 102.83334,203.83333C102.29965,204.37529 101.40385,204.91891 101.00134,205.75067C100.59566,206.58894 100.58781,207.36589 100,208.14583C99.5069,208.80009 98.55988,209.06998 98.084,209.86534C97.67007,210.55717 97.19309,211.33707 96.47916,211.64583C95.68179,211.99068 94.95226,211.2047 94.12133,210.78816C93.36494,210.409 92.39233,210.65306 91.94733,209.96217C91.46294,209.21011 90.93761,208.37059 90.284,207.95067C89.51304,207.45535 89.13332,206.93266 88.57467,206.24133C88.02582,205.56213 87.22792,205.31166 86.7785,204.56683C86.40305,203.9446 85.34756,203.61995 84.94733,202.96217C84.46754,202.17363 83.66854,201.57301 83.28533,200.952C82.80951,200.18089 82.45839,199.41214 82.1215,198.56683C81.80453,197.7715 82,196.86534 82,195.96666C82,195.06667 81.88473,194.15916 82,193.27733C82.11161,192.42349 82.85503,191.89723 82.99866,190.952C83.13328,190.06616 82.83273,189.05739 83.35717,188.37117C83.93055,187.62093 84.75027,187.38472 85.16666,186.66667C85.58713,185.9416 86.56396,185.67201 87.5,185.66667C88.35265,185.66182 89.32933,185.54425 90.10017,185.888C90.8153,186.20691 91.65133,186.6368 92.516,186.66533C93.47864,186.6971 94.3,186.66667 95.2,186.66667C96.1,186.66667 97,186.66667 97.8,186.66667C98.7,186.66667 99.64283,186.66667 100.52084,186.66667C101.4,186.66667 102.35664,186.53014 103.2,186.95067C103.86164,187.28059 104.70002,187.67461 105.6,187.66667C106.52103,187.65855 107.31351,187.42581 108.17467,187.092C109.10669,186.7307 110,186.66667 110.8,186.66667C111.71467,186.66667 112.61066,186.66667 113.5,186.66667C114.38934,186.66667 115.55519,186.28496 116,186.88817C116.52138,187.59521 116,188.66667 116,189.5L115.94283,190.314" id="svg_1" stroke-width="3" stroke="#000" fill="none"/>
  <path t="7916,8038,8060,8080,8115,8115,8183,8272,8293,8311,8418,8439,8528,8548,8601,8620,8691,8746,8818,8837,8860,8880,8933,8993,8994,9001,9002,9018,9040,9054,9075,9093,9162,9180,9199,9269,9287,9397,9710,9711,9737,9946,10165" d="M91,147.66667C90.0045,149.36667 90,150.26666 90,151.23067C90,152.1095 90,152.85201 90,153.905C90,154.83333 89.89708,155.59758 89.42533,156.24133C88.89889,156.95972 89,157.96217 89,158.888C89,159.71933 89,160.64133 89,161.468C89,162.38133 89,163.24133 89,164.1875C89,165.06667 89,165.96666 89,166.86534C89,167.71933 89,168.66667 89,169.42383C89,170.31934 89,171.18266 89,172.14583C89,173.06667 89,173.96666 89,174.86667C89,175.76649 89.18919,176.68359 88.91467,177.468C88.61533,178.32329 88,178.952 88,179.86534C88,180.75067 87.83334,181.66667 87.35267,182.30949L87,183.092L87,183.95067L87,184.88817" id="svg_2" stroke-width="3" stroke="#000" fill="none"/>
  <path t="11659,11786,11806,11825,11883,11897,11916,11988,12025,12078,12132,12152,12188,12225,12243,12330,12348,12384,12385,12420,12439,12494,12529,12566,12601,12657,12680,12715,12731,12784,12874,12892,12968,12987,13194,13212" d="M118,156.66667C118,157.66667 118,158.66667 118,159.51733C118,160.49733 118,161.27733 118,162.23067C118,163.10266 118,163.96217 118,164.952C118,165.76666 118,166.66667 118,167.58267C118,168.37117 118,169.30949 118,170.1875C118,171.07733 118,171.98784 118,172.80533C118,173.83333 118,174.692 118,175.58267C118,176.37117 118,177.30949 118,178.24133C118,179.10266 118.23768,179.9915 117.99866,180.95067C117.81716,181.67902 117.14923,182.20158 116.98933,183.06667C116.8359,183.89676 116.08533,184.58267 115.91467,185.38266L115.16666,185.83333L114.716,186.58267" id="svg_3" stroke-width="3" stroke="#000" fill="none"/>
  <path t="14703,14846,14868,14908,14956,14979,14994,15039,15051,15085,15158,15194,15214,15231,15264,15264,15306,15325,15361,15482,15536,15574,16097,16115,16206,16225,16260,17617,17635,17657,17688,17710,17731,17746,17835,17874,17927,17950,17965,18250,18400,18401,18436,18505,18565,18579,18623,18637,18637,18638,18654,18654,18723,18742,18933,18994,18995,19003,19017,19018,19040,19063,19073,19095,19115,19116,19130,19156,19157,19198,19215,19215,19357,19357,19427,19525,19583,19645,19666,19685,19736,20678,20719,20890,20971,21060,21225,21295,21312,21421,21494,21584,21675,21868,21918,21934,21935,21968,22011,22013,22079,22146,22165,22202,22326,22326,22389,22403,22475,22493,22514,22529,22562,22606,22606,22618,22638,22709,22726,22748,22799,22837,22854,22855,22875,22892,22915,22931,22958,23050,23088,23126,23144,23162,23163,23179,23250,23287,23307,23326,23327,23359,23432,23449,23450,23467,23505,23528,23544,23560,23579,23667,23691,23706,23744,23761,23798" d="M112,192.66667C112.9955,194.36667 112.96724,195.30447 113.42533,196.056C113.92847,196.88142 114.56739,197.34065 114.964,198.092C115.36523,198.85208 115.67643,199.47963 115.98933,200.24133C116.31267,201.02844 116.67119,201.6861 116.97467,202.51733C117.26216,203.30476 117.89909,203.98895 117.97916,204.66667C118.10218,205.70779 118.12237,206.44646 118.57467,207.26666C118.99968,208.03737 119.4189,208.7673 119.83334,209.66667C120.189,210.43849 120,211.27733 120,212.16667C120,213.06667 119.9475,213.96356 120,214.95067C120.04272,215.75407 120.7045,216.37117 121.2955,216.96217C122,217.66667 122.61066,218.27733 123.19867,218.86534C123.87849,219.54517 124.63766,220.12367 124.94283,220.96217C125.21687,221.71513 125.95127,222.33423 126,223.16667C126.05659,224.13347 125.37887,224.64809 125.1215,225.645C124.88515,226.5605 124.78899,227.3952 125,228.30949C125.18097,229.09361 125.85476,229.99672 125.94733,230.672C126.04894,231.41315 126.22796,232.52046 126.57467,233.24533C126.96074,234.05249 126.46374,234.49416 125.52084,234.66667C124.67963,234.82057 124.19872,235.46805 123.5,236.16667C122.90005,236.76654 122.23174,237.5022 121.4,237.65601C120.51447,237.81976 119.56381,237.93234 119.12133,238.76666C118.67858,239.60149 118.43459,240.31464 117.7,240.96217C117.03779,241.5459 116.16362,241.48396 115.364,241.73866C114.42793,242.03683 114.08804,242.79488 113.16666,243.33333C112.41735,243.77122 111.72999,244.34914 110.916,244.66533C110.08132,244.98955 109.8457,245.58293 109,245.66667C108.05727,245.76003 107.31615,245.27669 106.5,245.1875C106.02581,245.13568 106.68702,246.08839 106.94283,246.96217C107.20346,247.8524 107.36872,248.26559 107.91467,248.952C108.42445,249.59294 107.68909,250.84256 108.22134,251.54533C108.70692,252.18648 109.5928,252.51413 109.57467,252.66667C109.47316,253.52066 107.78381,252.74614 107.11467,252.58133C106.1502,252.34377 105.37168,251.64764 105.00267,250.952C104.61391,250.21913 103.94702,249.6143 103.35267,249.01933C102.71567,248.38167 102.26312,247.62978 101.916,246.86667C101.52741,246.01241 101.16027,245.20024 100.716,244.468C100.22054,243.65141 100,242.96217 100,242.02383C100,241.16667 99.84386,240.19832 100.036,239.51733C100.29913,238.58476 100.95937,237.96217 101,237C101.03516,236.16716 101.51807,235.50781 102.084,234.95067C102.75516,234.28992 103.24213,233.71289 103.64733,232.96666C104.06062,232.20555 104.08948,231.2493 104.57467,230.64133C105.07304,230.01685 104.94734,229.01636 105.42533,228.27733C105.91449,227.52104 106.13185,226.74721 106.57467,226.02C107.0447,225.24812 106.99775,224.31935 107,223.42833C107.00234,222.5 107.21503,221.46999 106.77866,220.78783C106.312,220.05832 106.02295,219.48111 106,218.55333C105.97655,217.60493 105.52659,216.82458 105.284,216.14934C104.95364,215.22977 104.5323,214.49059 104.16666,213.66667C103.78901,212.81566 104.01113,211.96211 104,211.02383C103.98958,210.14565 103.64733,209.37117 103.01067,208.64133L103,207.75067L103,206.96217L103,206.02383" id="svg_4" stroke-width="3" stroke="#000" fill="none"/>
  <path t="26168,26387,26406,26441,26475,26499,26514,26537,26603,26620,26620,26645,26663,26676,26692,26692,26713,26749,26765,26765,26785,26802,26804,26822,26822,26839,26855,26944,26944,27072,27202,27252,27274,27343,27361,27487,27524,27600,27619,27634,27670,27707,27817,27818,27865,27939,27998,28068,28121,28141,28163,28298,28395,28411,28500,28558,28600,28611,28663,28720,28986,28998,29014,29033,29084,29103,29104,29119,29172,29190,29228,29248,29316,29317,29426,29504,29535,29575,29659,29717,29804,29850,29864,29916,29988,30060,30132,30153,30154,30408,30719,30730,30956,31039,31501,31517,31536,31536,31543,31595,31621,31670,31842,31842,31859,32030,32089,32127,32196,32285" d="M89,147.66667C90.57467,148.70267 91.10023,149.3526 91.80133,149.75067C92.51788,150.15752 93.41176,150.70467 93.8785,151.54533C94.26157,152.23528 94.71781,152.88943 95.16666,153.66667C95.52563,154.28825 96.51434,154.51424 97.4,154.67734C98.23142,154.83044 98.98631,155.57886 99.7,155.66217C100.63648,155.7715 101.54166,155.66667 102.484,155.66667C103.17467,155.66667 104.24733,155.66667 105.16666,155.66667C106,155.66667 107.00653,155.81604 107.6955,155.6095C108.57514,155.34579 109.36988,154.91733 110.16666,154.5C110.91023,154.11055 111.59995,153.67201 112.564,153.66667C113.43598,153.66185 114.32169,153.86156 115.19867,153.66533C116.00571,153.48474 116.55259,152.9003 117.38934,152.66667C118.0723,152.47598 118.38757,151.6517 119.02533,151.092C119.61492,150.57455 120.2076,149.92148 121,149.5C121.64059,149.15927 122.56923,148.7933 123.2955,148.314C124.0576,147.81105 124.40771,147.09372 124.91467,146.38266C125.38953,145.71661 125.81522,145.01118 125.98933,144.10266C126.15145,143.25673 125.41039,142.83261 124.5,142.66667C123.67921,142.51707 123.0837,141.67841 123,140.78799C122.92164,139.95435 123.38207,138.99994 122.97916,138.16667C122.64555,137.47672 121.48701,137.52458 120.6,137.67734C119.76686,137.82082 118.96552,138.40887 118.2,138.75067C117.45647,139.08266 116.53419,139.5074 115.80133,139.95067C115.02847,140.41812 114.35333,140.66667 113.516,140.66667C112.65266,140.66667 111.64667,140.66667 110.716,140.66667C109.83334,140.66667 108.81377,140.94713 108.12133,140.44533C107.41927,139.93655 107.19006,139.00319 106.47916,138.6875C105.60249,138.29819 104.99692,138.10725 104.5,137.64583C103.92215,137.10925 103.13916,136.68468 102.16666,136.66667C101.3618,136.65178 100.5,136.66667 99.564,136.66667C98.7,136.66667 97.78921,136.52068 96.916,136.66667C96.0468,136.812 95.86569,137.57907 95.29467,138.31934C94.73826,139.04065 94.55004,139.99777 93.91467,140.66533C93.30914,141.30153 92.55804,141.45224 91.80133,141.952C91.19241,142.35414 91.01266,143.36674 91,144.26666C90.98733,145.16682 90.64733,145.96217 90.01067,146.692L90,147.58267" id="svg_5" stroke-width="3" stroke="#000" fill="none"/>
  <path t="33786,34197,34226,34252,34302,34354,34355,34363,34366,34379,34394,34415,34447,34626,34675,34712,34768,34805,34914,34931,34932,35006,35043,35095,35112,35113,35133,35150,35169,35202,35292,35400,35420,35441,35459,35493,35527,35552,35567,35672,35694,35802,35819,35909,35932,35949,35984,36022,36038,36073,36126,36146,36234,36253,36269,36453,36525,36544,36605,36619,36637,36742,36742,36760,36799,36821,36821,36844,36845,36873,36877,36911,36928,36946,36966,36984,37030,37085,37104,37178,37195,37213,37320,37341,37359,37381,37465,37503,37504,37539,37592,37593,37614,37631,37669,37722,37738,37757,37758,37846,37865,37865,37883,37936,37978,37979,38010,38030,38046,38402,38403,38617,38798,38833,38917,38953,39009,39042,39064,39132,39186,39260,39295,39333,39522,39543,39557,39574,39597,39603,39609,39642,39711,39729,39803,39824,39842,39843,39893,39912,39984,40004,40054,40091,40127,40152,40187,40188,40255,40273,40310,40348,40366,40419,40508,40583,40585,40641,40693,40745,40853,40853,40871,40889,41006,41018,41087,41107,41177,41271,41291,41307,41416,41504,41524,41730,41868,41957,42122,42133,42134,42549,42564,42579,42580,42581,43133,43264,43282,43283,43557,43575,43643,43663,43664,43893,43913,44231,44246" d="M97,133.66667C97,131.83333 97.00043,131.03743 97.42533,130.26666C97.87896,129.4438 98.16324,128.49864 98.42533,127.84133C98.82809,126.83123 98.9892,126.07733 99,125.16666C99.01054,124.27734 99.73188,123.79073 99.9955,123.01933C100.27124,122.21246 100.38708,121.44984 100.83334,120.66666C101.27768,119.88686 101.66808,119.39854 102.2215,118.788C102.85479,118.08934 103.65421,117.86641 104.564,117.67733C105.50133,117.48253 106.23112,117.19016 107.1,116.788C107.76202,116.48159 108.53719,115.91982 109.4,115.70267C110.26912,115.48393 110.73263,115.10557 111.42533,114.70267C112.16818,114.2706 112.8069,115.33709 113.52084,115.64584C114.31821,115.99067 115.1404,116.14265 115.87867,116.54517C116.62051,116.94962 117.37495,117.37605 118.22134,117.66666C119.00946,117.93729 119.7045,118.314 120.5,118.66666C121.2955,119.01933 122.06991,119.56339 122.57467,120.27734C123.08003,120.99213 123.58596,121.54919 124.2955,122.01933C125.09306,122.54778 125.5476,123.41146 126.4,123.63067C127.26817,123.85393 127.89304,124.19397 128.57466,124.656C129.28542,125.13778 129.8949,125.73348 130.57466,126.24133C131.28815,126.77438 132.40019,126.40066 132.94284,127.01933C133.54451,127.70528 133.86176,128.41412 134.38933,129.06667C134.99197,129.81206 135.31456,130.69356 136.02083,131.16667C136.81345,131.69763 137.46349,132.14055 138.16667,132.83333C138.7085,133.36714 139.38933,134.056 140.02533,134.692C140.61067,135.27733 141.49654,135.81224 141.91467,136.58267C142.30486,137.30161 142.78192,137.78377 143.60001,138.24133C144.3723,138.67329 144.87891,139.37871 145.61067,139.65601C146.5032,139.99422 147.00357,140.44737 147.80133,140.66533C148.68633,140.9071 149.21616,141.39613 150,141.83333C150.65187,142.19691 151.21188,143.10794 152.10001,143.54533C152.75444,143.86763 153.45222,144.34746 153.97467,145.056C154.47824,145.73894 155.51236,145.52768 156.3,146.02383C157.10414,146.53038 157.46284,147.21606 158.3,147.614C159.16785,148.02652 159.83044,148.31042 160.7,148.71933C161.51305,149.10167 162.25697,149.76459 162.64734,150.37117C163.15546,151.16074 163.76532,151.62755 164.47917,152.16667C165.24336,152.74382 165.68651,153.39445 166.02083,154.1875C166.39301,155.07034 167.1097,155.61897 167.57466,156.24133C168.10771,156.95483 168,157.96217 168,158.88817C168,159.76649 168,160.64133 168,161.54533C168,162.38266 168.3365,163.35397 167.97917,164.14583C167.64853,164.87856 166.68967,165.28477 165.8,165.58133C164.94235,165.86722 163.95903,165.8481 163.2,165.58133C162.34406,165.2805 161.66927,164.73343 161.02533,164.24133C160.37105,163.74133 159.55389,163.79399 158.7,163.66217C157.76863,163.51839 157.16545,163.03152 156.3,162.614C155.48129,162.21901 155.16434,161.27509 154.57466,160.70267C154.07419,160.21684 153.57497,159.58784 152.97467,159.092C152.34984,158.57588 151.36305,158.48289 150.70534,157.96217C149.96829,157.37865 149.41971,156.84352 148.716,156.38266C147.93388,155.87044 147.93156,154.89307 147.05267,154.66667C146.17963,154.44179 145.9454,153.55656 145.38933,153.10266C144.63649,152.48816 143.94193,152.13112 143.2955,151.55684C142.66591,150.9975 142.25739,150.15199 141.5,149.6875C140.74736,149.22592 139.89658,148.81161 139.02533,148.66667C138.16251,148.52313 137.72156,148.08061 137.12151,147.44533C136.53763,146.82716 136.32893,146.20216 135.52083,145.6875C134.93552,145.31473 134.52061,144.55479 133.94733,144.01933C133.2621,143.37933 133.32207,142.52858 132.83333,141.83333C132.33006,141.11742 131.90883,140.41016 131.19867,139.952C130.48897,139.49413 129.45833,139.66667 128.4575,139.66667C127.76,139.66667 126.85326,139.67911 125.83334,139.66667C124.97897,139.65625 124.26643,139.35017 123.48267,138.86534C122.73713,138.40416 122.39809,137.37129 121.7785,136.78799C121.17413,136.21902 120.35717,136.01933 119.64733,135.314L119.02084,134.6875L118.83334,133.83333L118.084,133.38266" id="svg_6" stroke-width="3" stroke="#000" fill="none"/>
  <path t="46243,46538,46600,46620,46621,46635,46670,46706,46740,46810,46829,46848,46848,46901,46938,46938,46963,46977,46994,47014,47050,47140,47141,47227,47361,47371,47371,47445,47522,47558,47582,47597,47665,47685,47772,47790,47813,47897,47916,48008,48082,48099,48209,48420,48451,48621,48646,48667,48766,48787,48942,49109" d="M123,146.66667C123.716,147.38266 124.36718,148.01398 125,148.66667C125.5732,149.25787 125.70879,150.11594 126.0045,150.96217C126.28304,151.75925 127.38707,151.88348 127.83334,152.66667C128.27768,153.44649 128.9514,153.90633 129.64284,154.314C130.3822,154.74992 131.13391,155.01463 131.80133,155.38266C132.62547,155.8371 133.60001,155.66667 134.5,155.66667C135.39999,155.66667 136.37158,155.44022 137.16667,155.83333C137.81328,156.15303 138.66637,156.58264 139.39999,157.10266C140.18695,157.66048 140.64284,158.30949 141.284,158.95067C141.94733,159.614 142.49278,160.22275 143.39999,160.64133C144.17769,161.00015 144.81963,161.61287 145.436,162.092C146.22995,162.70915 146.7424,163.2937 147.5,163.64583C148.34901,164.04045 149.2955,163.66658 150.2215,163.66667C151.09984,163.66676 151.60614,164.17596 152.35266,164.6095C153.15962,165.07813 153.57938,165.47246 154.284,165.66533C155.06567,165.87929 155.57466,164.67734 156.02083,164.16667L156.61067,163.64133L157.38933,163.24133L157.99867,162.58267" id="svg_7" stroke-width="3" stroke="#000" fill="none"/>
  <path t="54397,54617,54635,54654,54655,54715,54754,54757,54761,54780,54953,55051,55071,55181,55267,55288,55289,55341,55431,55446,55466,55521,55575,55616,55632,55633,55659,55674,55725,55792,55811,55829,55871,55885,55939,55960,56000,56049,56124,56140,56161,56215,56215,56256,56304,56327,56328,56390,56482,56537,56570,56643,56716,56824,56825,56951,56969,57010,57078,57134,57156,57206,57224,57312,57335,57368,57440,57550,57570,57586,57657,57697,57715,57735,57786,57860,57878,57948,58038,58058,58149,58167,58182,58273,58382,58400,58437,58508,58528,58580,58601,58621,58725,58726,58762,58840,58855,58927,59000,59019,59041,59106,59161,59197,59233,59270,59291,59309,59325,59360,59432,59451,59471,59472,59660,59832,59979,59998,60169,60171,60216,60302,60322,60323,60347,60396,60648,60651,60665,60707,60742,60746,60766,60767,60777,60844,60865,60883,60939,60939,60955,61048,61064,61064,61192,61207,61259,61301,61342,61343,62028,62047,62075,62099,62138,62193,62210,62237,62248,62265,62266,62282,62298,62345,62355,62386,62407,62408,62423,62442,62509,62547,62565,62585,62805,62865,62912,62913,62950,63018,63039,63058,63077,63144,63333,63393,63410,63426,63427,63440,63456,63477,63492,63514,63516,63530,63543,63598,63618,63619,63654,63672,63692,63713,63796,63907,64145,64303,64305,64338,64340,64370,64385,64386,64400,64417,64451,64576,64616,64631,64688,64706,64723,64741,64810,64867,64889,65578,65608,65609,65684,65705,65724,65760,65761,65774,65796,65797,65798,65831,65856,65871,65889,65911,65988,65989,66026,66046,66064,66065,66081,66082,66102,66487,66505,66522,66570,66587,66640,66678,66787,66859,67004" d="M109,110.66666C109,109.66666 108.9924,108.88691 108.64733,108.0185C108.32874,107.21674 107.91579,106.4134 107.64733,105.60867C107.35245,104.72475 107.41546,103.69174 106.91467,102.95067C106.42571,102.22711 106.175,101.60133 105.91467,100.86533C105.61248,100.01105 105.11983,99.2575 104.716,98.46667C104.37977,97.8082 104.00067,96.952 104,96.056C103.99934,95.16666 104,94.27734 104,93.314C104,92.44517 104,91.56667 104,90.66666C104,89.86667 104,88.96667 104,88.06667C104,87.10267 104,86.23067 104,85.36667C104,84.46667 103.99408,83.56682 104,82.64584C104.00533,81.81595 104.49056,81.14319 104.91467,80.38267C105.34657,79.60817 105.56688,78.98901 105.964,78.23067C106.36525,77.46442 106.38653,76.52854 106.716,75.86667C107.14262,75.00964 107.436,74.23067 108.09983,73.56683C108.64283,73.02383 109.39284,72.6193 110.02533,72.092C110.68448,71.54247 111.25288,71.05695 112.02533,70.63067C112.78891,70.20928 113.44283,69.66666 114.18533,69.66666C115.11467,69.66666 116.09983,69.66666 116.97467,69.66666C117.76167,69.66666 118.64817,69.66666 119.66666,69.66666C120.52084,69.66666 121.43484,69.42379 122.2955,69.67117C123.06339,69.89188 123.57463,70.65926 124.42533,70.66666C125.35265,70.67473 125.86783,71.3913 126.57467,71.656C127.4608,71.98784 128.4684,71.52722 129.19867,71.95067C130.02496,72.42979 130.72397,72.65347 131.436,73.092C132.20757,73.5672 132.96794,73.83984 133.7045,74.314C134.41312,74.77018 135.38228,74.72697 136.02533,75.24133C136.6118,75.71043 137.46317,76.07962 137.916,76.86533C138.31859,77.56384 138.8791,78.15909 139.35266,78.67117C139.89499,79.25761 140.284,79.95067 140.916,80.58266C141.5,81.16666 142.16873,81.83129 142.716,82.38267C143.42802,83.10001 143.84576,83.87505 144,84.71933C144.15367,85.56055 144.9267,85.95096 145,86.86533C145.06839,87.71851 145.80083,88.32217 145.97917,89.14584C146.18172,90.08122 146.1949,90.98835 145.99867,91.86533C145.8181,92.67238 145.01801,93.10216 145,94.056C144.98312,94.95051 145,95.83334 145,96.76667C145,97.66666 145,98.46667 145,99.3095C145,100.24133 144.91591,101.14648 145.35266,101.96667C145.75177,102.71616 145.60638,103.59728 146.08533,104.38133C146.57608,105.18472 147.03627,105.80357 147.7045,106.3095C148.3997,106.83588 149.23709,107.16794 150.16667,107.5C150.94405,107.77769 152.02788,107.95287 152.716,107.58134C153.5694,107.12057 154.08482,106.85445 154.97833,106.44517C155.72189,106.10456 155.99083,105.04846 156.42534,104.26667C156.88071,103.44736 157.36165,102.90539 158.09984,102.44517C158.817,101.99806 158.92293,100.98247 159.35716,100.305C159.91309,99.43769 160.51393,98.9061 160.83333,98C161.11586,97.1985 161.67958,96.82701 161.98933,96.092C162.32651,95.29192 162,94.48133 162,93.43283C162,93.384 162.23839,94.12087 162.716,94.75066C163.27477,95.48745 163.03926,96.4731 163.5,97.1875C163.98575,97.94067 163.83629,98.92397 164.22133,99.76667C164.52713,100.43597 164.99466,101.26662 165,102.16666C165.00533,103.06665 165.08585,103.96641 165,104.83334C164.91626,105.67903 164.3535,106.36703 164,107.16666C163.64816,107.96253 163,108.66666 162.38933,109.27734C161.80133,109.86533 160.62955,111.35422 160.40984,110.66666C160.20995,110.04111 161.08476,109.40005 161.80133,108.952C162.59966,108.45284 163.6192,108.50145 164.5,108.6875C165.3474,108.86649 166.09801,109.55867 166.94733,109.66666C167.71455,109.76422 167.73711,110.48673 167.04817,111.01933C166.38766,111.52995 165.76901,111.81039 164.95183,112.314C164.24432,112.75002 163.42149,112.7755 162.89017,113.37117C162.21338,114.12992 161.46393,114.32445 160.52083,114.66666C159.68491,114.96999 159.04668,115.59183 158.13867,115.67733C157.48134,115.73923 156.65862,116.40322 155.83067,116.66534C155.01888,116.92234 153.88074,116.3345 153.16667,116.83334C152.45021,117.33385 151.73174,117.47015 151,117.83334C150.25174,118.20473 151.12589,118.85768 151.7,119.37117C152.33009,119.93473 152.92842,120.75414 153.60001,121.23067C154.32565,121.74555 154.92984,122.44035 155.64734,122.66217C156.53329,122.93607 157.25377,123.21014 158.09984,123.54517C158.92102,123.87035 159.80133,123.66666 160.7,123.66666C161.60001,123.66666 162.52834,123.38221 163.35266,123.67117C164.10646,123.9354 164.45325,124.6054 164,124.83334C163.35178,125.15932 162.58444,125.73467 161.97467,126.24133C161.29945,126.80238 160.34315,127.0011 159.70984,127.314C158.82463,127.75137 158.15294,128.24451 157.47917,128.66667C156.77309,129.10909 155.78603,129.42505 154.89017,129.72383C154.10539,129.98557 153.24985,130.60574 152.45833,130.66667C151.52011,130.73889 150.70984,130.66667 149.71466,130.66667C148.89999,130.66667 148,130.66667 147.11467,130.66667C146.17467,130.66667 145.48399,130.66667 144.41066,130.66667C143.60001,130.66667 142.7,130.66667 141.7045,130.66667C140.83333,130.66667 139.94695,130.69044 139.19867,130.66667C138.29865,130.63808 137.5,130.16667 136.7,129.72383L135.80133,129.66667" id="svg_8" stroke-width="3" stroke="#000" fill="none"/>
  <path t="69277,69582,69618,69635,69671,69791" d="M122,101.66666C122.716,102.38267 123.52084,102.66666 124.38934,102.67733L124.98933,103.24133L125.5,103.66666" id="svg_9" stroke-width="3" stroke="#000" fill="none"/>
  <path t="70943,71297,71299,71317,71489" d="M134,100.66666C135,100.66666 135.8,100.66666 136.7,100.66666L137.64284,100.66666" id="svg_10" stroke-width="3" stroke="#000" fill="none"/>
  <path t="72680,72881,72960,72983,73194" d="M132,106.66666C132.91467,106.95067 133,107.83334 133,108.692L133.22133,109.54517" id="svg_11" stroke-width="3" stroke="#000" fill="none"/>
  <path t="76671,76915,76932,76948,76988,77005,77041,77056,77056,77096,77112,77128,77149,77166,77216,77251,77288,77325,77583,77690,77708,77745,77833" d="M111,91.66666C111,93.27734 111,94.16666 111,95.056C111,96.02383 111,96.86533 111,97.83334C111,98.66666 111,99.46667 111,100.5C111,101.27734 111,102.16666 111,103.06667C111,103.96217 111,104.88817 111,105.7665C111,106.692 110.97878,107.58291 111,108.5C111.01801,109.27796 111.42533,110.056 112.084,110.75066L112.64733,111.314" id="svg_12" stroke-width="3" stroke="#000" fill="none"/>
  <path t="79227,79423,79485,79509,79510,79523,79537,79607,79650,79701,79717,79771,79790,79831,79852,79865,79886,79886,79949,79973,80007,80025,80063,80081,80099,80117,80117,80137,80138,80226,80449,80487,80549,80573,80573,80588,80603,80622,80675,80697,80749,80783,80928,80940,80941,80960,80985,80985,81003,81004,81023,81127,81147,81183,81213,81244,81310,81349,81366,81386,81424,81441,81456,81562,81580,81618,81636,81636,81657,81673,81673,81743,81851" d="M113,111.66666C113,110.01933 113,109.125 113,108.18267C113,107.492 113,106.42384 113,105.56683C113,104.64133 113,103.74934 113,102.96133C113,102 112.70947,101.09201 113.01067,100.27734C113.28661,99.53098 114.50336,99.30116 114.87867,98.56667C115.30865,97.7252 115.64511,97.02162 116.284,96.38267C116.94505,95.72153 117.4457,95.29127 118.02084,94.6875C118.63555,94.04218 118.78489,93.46994 119.22134,92.78783C119.68822,92.05817 119.89763,91.37913 120.44267,90.68833C121.00698,89.97311 121.58881,89.41 122.22134,88.78817C122.79494,88.22427 123.34632,87.55078 124.1,87.88817C124.80302,88.20288 125.4333,89.03935 125.916,89.86533C126.32218,90.56039 126.84545,90.98625 127.35267,91.614C127.84039,92.21761 127.71999,93.27889 128.0045,93.305C128.82224,93.38005 128.4955,91.6853 128.916,90.83466C129.28145,90.0954 129.67757,89.29669 130.19867,88.552C130.6899,87.85001 130.60289,86.85137 131.036,86.10267C131.44011,85.40408 132.5307,86.04456 132.91467,86.86533C133.27063,87.62621 133.79749,87.96999 134,88.83334C134.18283,89.61275 135.20001,89.66118 136.09984,89.66666C136.97472,89.672 137.49399,90.44724 138.35716,90.66666C139.17273,90.87399 140.22307,90.48895 141,90.83334C141.68239,91.13581 142.3,91.96217 143.10001,92.54533L143.8,92.75066L144.564,93.24133L145,94.01933" id="svg_13" stroke-width="3" stroke="#000" fill="none"/>
  <path t="84229,84371,84415,84443,84444,84472,84490,84507,84552,84573,84647,84681,84700,84750,84788,84825,84947,85543,85594,85623,85639,85640,85683,85703,85730,85759,85816,85890,85987,86077,86199,86270,86271,86343,86343,86360,86416,86434,86452,86471,86644,86798" d="M139,94.66666C139,96.314 139,97.20834 139,98.14933C139,98.95683 139,99.88817 139,100.76667C139,101.66666 139.02399,102.58303 139,103.37117C138.97141,104.31081 138.16351,104.80707 138.02083,105.66666C137.86708,106.59289 137.98746,107.49077 137.5,108.16666C136.9866,108.87853 137.09026,109.75512 137,110.66666C136.91626,111.51237 135.85573,111.69742 135.35716,112.37117C134.84343,113.06544 135.13979,114.13527 134.716,114.86533C134.237,115.69054 133.88896,116.22601 133.35266,116.72383C132.79288,117.24344 132.5878,118.31187 131.716,118.66666C130.88399,119.00527 130.26772,119.42488 129.34734,119.6095C128.66428,119.74651 127.54166,119.66666 126.64283,119.66666C125.8,119.66666 124.90017,119.66666 124,119.66666L123.084,119.66666L122.284,119.66666" id="svg_14" stroke-width="3" stroke="#000" fill="none"/>
  <path t="96101,96469,96488,96511,96647,96779,96780,96795,96884,96956,97427,97431,97515,97516,97538,97710,97740,97861,97861,97862,97887,97914,97936,97960,97984,98028,98096,98115,98171,98173,98279,98299,98300,98932,98986,99090,99149,99188,99205,99220,99220,99408" d="M92,209.66667C92.80133,211.74933 93.5429,212.15451 93.97467,213.06667C94.34131,213.84125 95.16863,214.22586 95.71467,214.75067C96.2709,215.28529 96,216.36667 96,217.26666C96,218.16667 95.98014,219.07755 96.00017,219.98784C96.01817,220.80591 96.51098,221.61327 97.01067,222.092C97.57521,222.63286 98.54325,222.64345 99.24,222.67734C100.14866,222.72154 100.96873,223.18584 101,224.06667C101.03193,224.96609 101.14979,225.87926 100.99983,226.76649C100.85583,227.61853 100.14384,228.06625 99.716,228.86667C99.25854,229.72253 99.11684,230.37834 98.964,231.30267C98.81985,232.17435 98.3002,232.8051 98.08533,233.78133C97.87277,234.74706 98.30801,235.43365 98.94733,236.01933C99.53058,236.55365 100.3,237.02383 101,237.66667L101.5,238.14583L102.38934,238.64133" id="svg_15" stroke-width="3" stroke="#000" fill="none"/>
  <path t="105631,105990,106029,106171,106217,106409,106524,106613,106630,106737,106776,106934,106988,107043,107150,107346,107363,107461,107533,107661,107680,107732,107821,107844,107900,107966,107986,108003,108111,108167,108239,108253,108350,108366,108418,108424,108441,108478,108493,108505,108550,108558,108593,108606,108624,108660,108672,108946,108967,109000,109145,109165,109584,109634,109654,109690,109708,109760,109784,109888,109945,109979,109993,110030,110086,110106,110140,110161,110177,110212,110232,110302,110321,110355,110448" d="M133,156.66667C133,157.6875 133.24747,158.19107 133.83333,158.83333C134.3923,159.44611 134.40051,160.07195 135,160.67734C135.59062,161.27376 135.9247,161.95111 136,162.86534C136.06595,163.666 136.9391,163.88162 137,164.75067C137.06226,165.63914 137,166.54517 137,167.37117C137,168.23067 137,169.16667 137,170.092C137,170.952 137.12024,171.87354 137,172.752C136.88831,173.56802 136.16756,174.03275 136,174.95067C135.86543,175.68791 135.02284,175.81963 134.38933,176.24133C133.57605,176.78271 132.61067,176.66667 131.71466,176.66667C130.80133,176.66667 130.03746,176.49648 129.35266,176.01933C128.64021,175.52293 127.48286,175.48839 127.05717,174.71933C126.67857,174.03535 126.1441,173.65857 125.436,173.092C124.64681,172.46054 123.90833,172.10986 123.284,171.58133C122.69649,171.08397 123.01351,169.94385 122.57467,169.23067C122.09979,168.45892 122.16666,167.66667 123.02533,167.66667C123.91467,167.66667 124.85867,167.86818 125.64733,167.66667C126.50641,167.44717 126.99775,166.61401 127,165.692C127.0022,164.78799 126.9868,163.9427 127.42533,163.23067C127.90052,162.45911 128.00009,161.6095 128,160.692C127.99992,159.78816 127.14395,159.61671 127,158.752C126.84914,157.84579 126.22424,157.65341 126,156.78799C125.78889,155.97324 125.00684,156.26596 124.16666,155.66667C123.60904,155.26892 123.1215,154.6665 122.91467,153.95067L122.1215,153.44533L121.94283,152.66667" id="svg_16" stroke-width="3" stroke="#000" fill="none"/>
  <path t="116566,116724,116740,116741,116741,116760,116773,116774,116774,116781,116782,116782,116782,116964,116965,117096,117124,117124,117124,117133,117133,117134,117194,117194" d="M301,165.66667C305.39984,165.22366 306.20438,164.97285 306.97916,164.625C307.75223,164.27789 308.83395,163.66771 309.51468,163.26933C310.16458,162.88899 311.06885,162.31026 312,162C312.87564,161.70824 313.48523,161.72839 314.31467,161.584C315.54584,161.36967 316.09439,161.02887 316.89917,160.37117C317.64395,159.76251 318.30008,159.66203 319.05634,159.72833C320.08698,159.81868 320.97916,160.1875 321.59866,160.468L322.59549,160.96217L323.34283,161.30949" id="svg_17" stroke-width="3" stroke="#000" fill="none"/>
  <path t="117856,117908,117908,117926,117926,117926,117942,118040,118056,118057,118108,118109" d="M339,178.66667C340.65717,177.01401 341.17477,176.44643 342,175.83333C342.75876,175.26964 343.52231,174.97697 344.36401,174.692C345.20834,174.40614 346,173.83333 346.75717,173.67117L347.66165,173.66667L348.46167,173.66667" id="svg_18" stroke-width="3" stroke="#000" fill="none"/>
  <path t="118755,118812,118812,118812,118812,118812,118812,118833,118833,118834,118834,118834,118851,118851,118852,118868,118869,118958,119017,119123,119123,119141,119179,119179,119197,119229,119230,119237,119251,119251,119297,119362,119377" d="M334,204.66667C337.30701,204.0025 337.82443,203.81792 338.948,203.38C339.5426,203.14825 340.14395,202.90318 340.75101,202.6675C342.49612,201.98996 343.03183,201.79951 344.0195,201.481C344.89297,201.19933 345.30801,201.12531 346.66666,200.66667C347.48907,200.38905 348.18161,200.12663 348.97849,199.56667C349.62436,199.11282 350.39487,198.45676 350.94733,197.71483C351.45963,197.02687 351.65649,195.82399 352.52084,195.75C353.39493,195.67517 353.98431,196.66141 354.66666,197.33333C355.29007,197.94722 355.71014,198.58023 356.52084,199.14583C357.25449,199.65767 358.17465,199.65601 359.11465,199.66667L360,199.66667L360.91733,199.664" id="svg_19" stroke-width="3" stroke="#000" fill="none"/>
  <path t="119977,120025,120025,120025,120048,120049,120049,120064,120065,120084,120084,120103,120103,120103,120122,120123,120244,120264,120283,120284,120300,120301,120319,120335,120355,120355,120355,120373,120389" d="M327,230.66667C331.51334,229.46666 332.15955,229.28445 333.03833,228.96666C334.08618,228.58772 334.77817,228.31067 335.51334,227.86667C336.27576,227.40622 336.89139,226.78864 337.48401,226.18134C338.1835,225.46451 338.85889,224.68332 339.24283,224.06667C339.72867,223.28636 340.09937,222.46677 340.47916,221.70833C340.91547,220.83707 341.66785,220.64029 342.48401,220.952C343.1972,221.22437 344.24933,221.75626 344.71335,222.46666C345.18295,223.18556 345.4375,224.08617 346.16666,224.83333C346.64224,225.32066 347.29016,225.95683 347.93866,226.60533L348.5,227.1875" id="svg_20" stroke-width="3" stroke="#000" fill="none"/>
  <path t="120992,121040,121040,121040,121058,121059,121059,121059,121080,121080,121080,121080,121097,121098,121098,121115,121116,121135,121135,121150,121150,121202,121203,121203,121296,121313,121330,121368,121385,121405,121420" d="M198,249.66667C200.60899,248.01401 201.0101,247.6189 201.77066,247.15067C202.6114,246.63307 203.66212,246.29431 204.38533,246.04134C205.11816,245.785 206.18602,245.36023 206.83833,245.01401C207.46605,244.68083 208.30507,244.13669 209.07851,243.68817C209.96992,243.17123 210.61385,242.89685 211.5955,242.36217C212.17343,242.04739 212.97096,241.33971 213.47917,240.6875C214.09119,239.90207 214.81349,239.55894 215.48267,238.81467C216.02847,238.20761 216.08018,236.79834 217.08267,236.756C217.82402,236.72469 218.2955,237.96666 218.87849,238.76649L219.0045,239.614L219.52083,240.16667L220.38933,240.63066" id="svg_21" stroke-width="3" stroke="#000" fill="none"/>
  <path t="122435,122490,122510,122530,122545,122561,122562,122617,122617,122634,122634" d="M207,195.66667C208.8,195.66667 209.72064,195.82759 210.5,195.64583C211.46523,195.42072 212,194.66667 212.64284,194.02383C213.28667,193.38 213.76167,192.905 214.48267,192.18266L215.13867,191.492" id="svg_22" stroke-width="3" stroke="#000" fill="none"/>
  <path t="125501,125661,125680,125680,125721,125769,125805,125995,126015,126030,126156,126157,126172,126172,126172,126173,126299,126299,126300,126305,126305,126305,126305,126305,126305,126320,126320,126348,126349,126473,126491,126530,126548,126549,126569,126583,126584,126612,126613,126626,126626,126639,126639,126640,126676,126676,126693,126714,126727,126747,126801,126821,126822,126854,126854,126927,126928,126945,126999,127000,127024,127040,127073,127090,127108,127109,127142,127178,127198,127326,127345,127359,127377,127397,127416,127471,127541,127561,127578,127578,127631,127729,127872" d="M89,219.66667C87.35333,219.70267 86.52322,219.96848 85.82533,220.24133C84.89436,220.60532 83.77336,220.40805 83.12133,220.888C82.42307,221.40198 82.02258,222.18671 82.61066,222.728C83.18602,223.25757 83.65079,223.95082 84.5,224.66667C85.02001,225.10503 85.65993,225.4772 86.642,225.95233C87.48708,226.36119 88.35632,226.627 89.0295,226.60049C90.00443,226.56212 90.90483,226.38699 91.952,226.23067C92.50045,226.14879 93.05309,226.08215 94.096,225.86534C95.37807,225.59882 96.12769,225.15279 97,224.83333C97.76708,224.5524 98.7,224.66667 99.64283,224.66667C100.54166,224.66667 101.484,224.66667 102.17467,224.66667C103.24733,224.66667 104.16666,224.66675 105,224.66667C105.97867,224.66658 106.77039,224.65842 107.65717,224.30949C108.22368,224.08659 109.18743,223.53912 110,223.1875C110.59155,222.93152 111.59425,222.69656 112.51466,222.668C113.4787,222.63808 114.40816,222.78319 115.3,222.66217C116.12118,222.55074 116.81935,221.75052 117.568,221.66667C118.42663,221.57051 119.44646,221.74701 120.29467,221.66667C121.1785,221.58296 121.76795,220.81551 122.64283,220.67117C123.55568,220.52058 124.26304,220.56671 125.04816,220.01933C125.68096,219.57816 126.46861,219.10522 127.3,218.71933C128.17201,218.31459 128.7458,217.80438 129.39999,217.27733C130.14528,216.6769 131.37915,217.05846 131.91467,216.38133C132.42268,215.739 131.71764,214.70947 130.8,214.66667C129.90114,214.62476 129.51472,214.14105 128.83333,213.66667C128.14941,213.19054 127.24973,213.38472 126.83334,212.66667C126.41287,211.9416 125.436,211.67734 124.57467,211.65601L124.0045,211.07651" id="svg_23" stroke-width="3" stroke="#000" fill="none"/>
  <path t="129120,129193,129193,129215,129227,129227,129255,129255,129263,129295,129296,129296,129319,129335,129335,129359,129360,129374,129375,129391,129392,129392,129409,129427,129446,129446,129462,129463,129500,129516,129535,129535,129587,129613,129614,129627,129645,129645,129662,129680,129699,129700,129718,129735,129735,129753,129771,129771,129788,129788,129807,129826,129827,129843,129843,129865,129865,129879,129897,129916,129916,129932,129933,129952,129953,129969,129989,129989,130006,130025,130025,130042,130043,130061,130115,130131,130151" d="M150,222.66667C147.4045,223.96217 146.6552,224.30376 145.75717,224.614C144.79652,224.94588 144.27658,225.4258 143.34734,225.96217C142.67468,226.35043 141.69547,226.50256 140.83333,227C140.30322,227.30586 139.71672,228.07124 138.75717,228.55684C138.03795,228.92081 137.38756,229.31276 136.51601,229.86667C135.84239,230.29477 134.99782,230.73965 134.37466,231.30267C133.64998,231.95743 133.2296,232.5491 132.48399,233.09734C131.68759,233.68292 130.89142,234.11642 130,234.5C129.28871,234.80608 128.33893,234.52516 127.56934,234.66667C126.59433,234.84596 125.90289,235.56892 125,235.66667C124.30175,235.74226 123.52831,236.29585 122.67867,236.54517C121.85297,236.78745 120.88533,236.66667 119.89983,236.66667C119.11467,236.66667 118.18533,236.66667 117.24267,236.66667C116.43066,236.66667 115.64817,236.66667 114.62534,236.66667C113.67867,236.66667 113,236.66667 112.0215,236.66667C111,236.66667 110.24284,236.66667 109.34734,236.66667C108.484,236.66667 107.5,236.66667 106.67867,236.66667C105.82533,236.66667 104.86863,236.75578 104.116,236.58133C103.141,236.35533 102.5089,235.83131 101.52084,235.6875C100.59882,235.5533 99.6785,235.66667 98.97916,235.66667C97.80016,235.66667 97.02084,235.66667 96.16666,235.66667C95.3045,235.66667 94.364,235.66667 93.516,235.66667C92.65266,235.66667 91.75267,235.66667 90.83334,235.66667C90,235.66667 89.0215,235.66667 88.20133,235.66667C87.3,235.66667 86.35717,235.72383 85.83067,236.38266L84.97916,236.66667" id="svg_24" stroke-width="3" stroke="#000" fill="none"/>
  <path t="131145,131314,131314,131335,131335,131351,131367,131384,131385,131403,131420,131421,131438,131438,131455,131456,131456,131579,131598,131653" d="M156,205.66667C157.71434,205.66667 158.409,205.66667 159.39734,205.66667C160.28566,205.66667 161.168,205.66667 162.02083,205.66667C162.9785,205.66667 163.79866,205.66908 164.75717,205.66667C165.65268,205.66441 166.56825,205.68762 167.38533,205.22C168.01996,204.85681 168.75949,204.17122 169.5,203.6875C169.98918,203.36795 171.02667,202.83734 171.41467,202.70267L171.00133,203.38266" id="svg_25" stroke-width="3" stroke="#000" fill="none"/>
  <path t="132533,132685,132707,132707,132707,132722,132723,132723,132748,132748,132748,132828,132865,132939" d="M273,147.66667C273.81885,147.6095 274.77286,147.38844 275.54166,147.14583C276.40524,146.87331 277.30588,146.58327 278.18933,146.256C278.76816,146.04158 279.85745,145.53333 280.53384,145.01849C281.14038,144.55681 281.89017,143.78101 282.7045,143.72383L283.47916,144.1875" id="svg_26" stroke-width="3" stroke="#000" fill="none"/>
  <path t="133988,134106,134125,134247,134349,134464,134464,134465,134465,134469,134469,134470,134531,134531,134535" d="M378,74.66666C379.60001,74.056 380.19623,73.19833 381,72.83334C381.7738,72.48195 382.6629,72.16157 383.13867,71.816C383.71817,71.39508 384.6514,70.64597 385.66666,70.33334C386.45972,70.08913 387.17868,70.34534 388,70.83334L388.60001,71.31483L389.39999,71.95683" id="svg_27" stroke-width="3" stroke="#000" fill="none"/>
  <path t="135329,135386,135403,135403,135523,135525,135525,135590,135590,135591,135591,135591,135591,135601,135601" d="M405,144.66667C406.63599,144.092 407.48807,143.76762 408.21066,143.64133C409.20483,143.46756 409.86932,143.22844 410.5715,142.67633C411.55734,141.90118 411.87,141.46709 412.6355,140.62584C413.02618,140.1965 413.74399,139.37334 414.05615,139.01584L414.54401,138.59467L414.22266,139.06534" id="svg_28" stroke-width="3" stroke="#000" fill="none"/>
  <path t="136186,136216,136216,136234,136234,136347,136348,136367,136368,136368,136368,136368" d="M432,191.66667C434.59549,190.95683 435.17734,190.49481 435.97849,189.688C436.48779,189.17509 436.90219,188.08334 437.5625,187.79167C438.4209,187.41251 439.052,188.25999 439.67599,188.88667L440.32401,189.63333L440.642,190.02667" id="svg_29" stroke-width="3" stroke="#000" fill="none"/>
  <path t="138211,138262,138290,138290,138435,138497,138497,138534,138556,138557,138575,138575,138575,138593,138593,138611,138628,138643,138643,138663,138663,138750" d="M234,287.66666C234.86133,286.27734 235.85901,285.91525 236.58934,285.64133C237.4402,285.3222 238.01065,284.44766 238.7,284.02383C239.4491,283.56326 240.31105,283.91553 241.21066,284.24133C241.99167,284.52417 242.80861,284.59048 243.60001,284.75067C244.61063,284.95523 245.31061,285.44788 246.364,285.63068C247.18977,285.77399 248.16667,285.66666 249,285.66666L249.9785,285.66666L250.6955,285.66666L251.60001,285.66666" id="svg_30" stroke-width="3" stroke="#000" fill="none"/>
  <path t="139656,139802,139893,139981,139982,139991,139992,139992,139992,139992,139992,140003,140004" d="M123,295.66666C124,295.66666 124.91853,295.63074 125.73233,295.67566C126.36749,295.71072 127.66898,295.99161 128.53467,296.23468C129.00748,296.36743 129.97917,296.66666 130.46266,296.81601L131.37866,297.09866L132.49249,297.42368L133.39583,297.625" id="svg_31" stroke-width="3" stroke="#000" fill="none"/>
  <path t="141148,141290,141290,141331,141502,141502,141502,141522,141522,141522,141522,141523,141666" d="M27,222.66667C28,222.66667 28.81389,222.78175 29.75717,222.6095C30.51284,222.47151 31.34939,222.03888 31.94267,221.86534C33.07587,221.53386 34.00167,221.37117 34.48,221.27733L35.42667,221.10266L36.29333,220.952L37.488,220.752" id="svg_32" stroke-width="3" stroke="#000" fill="none"/>
  <path t="142303,142391,142391,142391,142409,142409,142409,142410,142410,142410,142410,142410,142429,142429,142429,142645,142663,142664,142685,142685,142686,142686,142704,142704" d="M27,266.66666C28.67517,265.93433 29.35589,265.30258 29.63317,265.02899C30.67129,264.00467 31.0835,263.57965 32.01067,262.66049C32.50037,262.17502 32.99841,261.68585 33.49866,261.20401C33.98779,260.73288 34.43618,260.25598 35.71367,259.17416C36.34891,258.63623 36.95838,257.95322 37.89017,257.37567C38.40592,257.056 38.97583,257.6362 39.768,258.436C40.25302,258.92569 40.74933,259.452 41.232,259.98401L42.02934,260.97867L42.57867,261.784" id="svg_33" stroke-width="3" stroke="#000" fill="none"/>
  <path t="143723,143787,143806,143904,143904,143910,143912,143913,143924,143925,143939,143951,143951,144019,144019,144117,144134,144149,144149,144201,144220,144221" d="M27,139.66667C27.88667,139.66667 28.82637,139.71236 29.83333,139.66667C30.62778,139.63063 31.477,139.08813 32.02083,138.66667C32.59279,138.22342 33.5905,137.73564 34.34283,137.67567C35.37159,137.59367 36.31461,137.42738 37.02083,137.16667C37.99117,136.80844 38.81273,136.40843 39.75717,136.66684C40.53526,136.87973 41.1,137.76666 41.7,138.36667L42.3,138.96217L43.1,139.54533L43.8,139.75067" id="svg_34" stroke-width="3" stroke="#000" fill="none"/>
  <path t="145083,145144,145144,145216,145217,145217,145254,145255,145277" d="M34,189.66667C36.00983,189.65767 36.82534,189.72133 37.83333,189.33333C38.57922,189.04622 39.15333,188.48134 39.9785,187.68834L40.47917,187.20833L41.2955,186.71483" id="svg_35" stroke-width="3" stroke="#000" fill="none"/>
 </g>
</svg>