<svg width="500" height="333.3333333333333" xmlns="http://www.w3.org/2000/svg" xmlns:svg="http://www.w3.org/2000/svg" xmlns:xlink="http://www.w3.org/1999/xlink">
 <!-- Created with SVG-edit - http://svg-edit.googlecode.com/ -->
 <g display="inline" class="layer">
  <title>Layer 1</title>
  <path t="0,207,222,263,310,351,369,391,399,431,439,464,489,529,544,576,584,596,624,646,656,671,671,686,696,696,704,711,719,744,766,769,776,791,846,849,895,913,935,960,975,983,1008,1015,1018,1033,1055,1063,1073,1080,1088,1095,1113,1128,1143,1143,1175,1193,1208,1215,1223,1255,1273,1288,1288,1295,1303,1313,1343,1360,1360,1368,1383,1393,1415,1433,1433,1455,1463,1480,1480,1488,1488,1495,1513,1520,1535,1543,1545,1560,1568,1575,1585,1600,1623,1633,1640,1648,1648,1655,1665,1680,1695,1695,1703,1720,1743,1753,1753,1760,1768,1775,1775,1783,1793,1793,1810,1815,1833,1855,1873,1873,1880,1888,1895,1905,1913,1913,1930,1930,1938,1938,1953,1993,2063,2094,2097,2097,2104,2112,2129,2137,2144,2167,2248,2264,2264,2264,2279,2304,2304,2327,2359,2367,2367,2399,2407,2424,2439,2449,2472,2479,2497,2512,2519,2544,2552,2552,2559,2567,2584,2599,2632,2639,2664,2672,2697,2697,2704,2712,2719,2719,2759,2767,2767,2792,2799,2807,2824,2824,2832,2839,2849,2854,2864,2872,2879,2879,2889,2904,2919,2927,2937,2952,2952,2967,2974,2994,2999,3032,3047,3057,3067,3072,3079,3087,3094,3119,3127,3142,3152,3159,3174,3184,3192,3199,3209,3224,3232,3239,3254,3254,3262,3272,3279,3279,3287,3287,3294,3294,3312,3319,3319,3327,3334,3344,3352,3359,3359,3367,3377,3384,3392,3399,3399,3407,3424,3432,3432,3439,3447,3447,3457,3462,3479,3479,3487,3487,3502,3504,3512,3512,3529,3534,3537,3544,3544,3552,3567,3567,3582,3592,3599,3607,3607,3614,3632,3639,3639,3654,3657,3672,3679,3697,3712,3712,3727,3734,3744,3759,3767,3777,3784,3784,3792,3814,3822,3824,3832,3854,3854,3879,3879,3887,3894,3897,3902,3912,3919,3927,3934,3944,3952,3959,3967,3984,3992,3999,4007,4014,4022,4032,4039,4054,4054,4064,4064,4072,4072,4079,4087,4087,4094,4104,4104,4112,4122,4122,4129,4366,4382,4382,4382,4382,4382,4382,4382,4382,4382,4382,4382,4382,4382,4382,4382,4400,4400,4400,4402,4402,4402,4402,4402,4405,4410,4410,4412,4412,4412,4412,4412,4412,4412,4417,4417,4417,4417,4417,4420,4420,4420,4420,4425,4425,4425,4425,4425,4425,4425,4425,4425,4432,4432,4435,4435,4435,4435,4435,4435,4435,4442,4442,4442,4442,4442,4445,4445,4445,4445,4447,4447,4447,4447,4447,4450,4450,4450,4450,4457,4457,4457,4457,4457,4457,4457,4457,4457,4462,4462,4465,4465,4465,4465,4465,4465,4465,4472,4472,4472,4472,4472,4472,4472,4472,4472,4480,4480,4480,4480,4480,4480,4480,4480,4480,4487,4487,4487,4487,4487,4490,4502,4520,4527,4527,4527,4535,4535,4542,4542,4552,4552,4560,4560,4560,4567,4567,4575,4585,4585,4585,4585,4592,4592,4592,4600,4607,4607,4615,4615,4625,4655,4687,4747,4845,6437,6437,6452" d="M222.07143,105.52381C221.2701,105.52381 220.48253,105.60805 220.01427,106.17114C219.47681,106.81744 219.08185,107.52364 219.07143,108.46248C219.06151,109.35709 219.45821,110.27233 219.03543,111.09848C218.68192,111.7893 218.10005,112.32559 218.07143,113.23848C218.04214,114.17243 217.21504,114.57561 217.07143,115.52381C216.94662,116.34774 216.52184,116.73924 215.90475,117.35714C215.28719,117.97552 215.2449,118.78109 214.90475,119.52381C214.53719,120.3264 213.76051,120.81307 213.07143,121.52381C212.49823,122.11502 212.33485,122.96387 212.06693,123.81931C211.83083,124.57314 211.19125,124.93298 210.78743,125.72381C210.4512,126.38227 210.08513,127.2239 210.07143,128.16664C210.05896,129.02397 209.25182,129.51971 209.07143,130.35715C208.88799,131.20879 209.42981,132.16782 209.0506,133.0238C208.74141,133.72174 207.78445,134.01256 207.19276,134.74532C206.6713,135.39111 206.25357,136.11499 206.07143,137.0238C205.90298,137.86427 205.61562,138.62981 205.2381,139.5238C204.9075,140.30672 204.67528,141.02199 203.77592,141.46664C203.09669,141.80246 202.49773,142.33098 202.15677,143.09314C201.83553,143.81122 202.29161,144.78716 202.07126,145.74515C201.89035,146.53166 201.08943,146.9593 201.07143,147.91315C201.05452,148.80899 201.22495,149.77228 200.90475,150.5238C200.57193,151.30501 200.18636,152.08545 199.71877,152.81931C199.19832,153.63611 199.07524,154.44345 198.71877,155.23364C198.42828,155.87755 198.12158,156.87779 198.07143,157.80782C198.02684,158.63441 197.55505,159.35178 197.2381,160.35715C197.01659,161.05977 196.73013,161.89963 195.97159,162.40265C195.25246,162.87955 195.21614,163.5901 194.8501,164.5023C194.53951,165.27632 194.15445,166.12514 193.71877,166.88098C193.26428,167.66943 192.78755,168.27281 191.97159,168.74515C191.28865,169.14049 190.92526,169.90805 190.4241,170.57648C189.92799,171.23816 190.11331,172.26529 189.64609,172.94914C189.11694,173.72363 189.05586,174.52895 188.46075,175.13448C187.87656,175.7289 187.18173,176.24677 186.59225,177.0238C186.03575,177.75735 186.27376,178.82314 185.84993,179.62364C185.50989,180.26591 184.46585,180.52109 184.01877,181.22832C183.59442,181.89958 182.8644,182.54196 182.42859,183.22382C181.90195,184.04779 181.64462,184.9326 181.07143,185.5238C180.48077,186.13301 179.64525,186.74055 179.2381,187.5238C178.85143,188.26765 178.58888,189.17772 178.09676,189.91315C177.64877,190.58261 177.08282,191.21043 176.36609,191.82381C175.82494,192.28691 175.23865,193.03554 174.5506,193.5238C173.8531,194.01877 172.91833,194.27132 172.07143,194.69048C171.37625,195.03453 170.74658,195.6179 170.07143,196.0238C169.08791,196.6151 168.48294,197.0293 167.71877,197.52831C167.03619,197.97403 166.48152,198.4467 165.57143,198.69048C164.77798,198.903 164.04562,199.11818 163.23843,199.81931C162.55275,200.4149 162.02969,201.05382 161.15543,201.43848C160.42949,201.75787 159.59114,201.7258 158.98743,202.23981C158.31511,202.81223 157.4375,202.92467 156.55544,203.23981C155.73305,203.53363 154.85431,203.74973 154.2701,204.32515C153.57658,205.00824 152.80444,205.28764 151.97159,205.74515C151.27997,206.12508 150.47495,206.41129 149.6821,206.94914C148.95853,207.44 148.40036,207.98831 147.59225,208.50298C147.00694,208.87575 146.53439,209.26381 145.64609,209.5238C144.9953,209.71428 144.47382,210.18562 143.6821,210.54515C142.99094,210.85902 143.13556,212.18816 142.36693,212.51482C141.50119,212.88274 140.9021,213.23979 140.07143,213.5238C139.24077,213.8078 138.67038,214.2381 137.77592,214.52831C137.02455,214.77209 136.92679,215.85295 136.2701,216.23981C135.44325,216.72691 134.56628,217.03937 133.97159,217.62364C133.35135,218.23302 132.71426,218.88098 132.07143,219.5238C131.42859,220.16664 130.78743,220.80782 130.15543,221.4398C129.57143,222.0238 128.90475,222.69048 128.36693,223.22832C127.68211,223.91315 127.01876,224.57648 126.46076,225.13448C125.77592,225.81931 125.12381,226.47087 124.5506,227.04465C123.87244,227.72348 123.46407,228.36432 123.07276,229.23848C122.7341,229.99504 121.91446,230.49478 121.4241,231.22832C120.9357,231.95891 120.47103,232.67337 119.77676,233.16664C119.03301,233.69507 118.46129,234.26173 118.10743,234.95981C117.71848,235.72711 117.90774,236.69347 117.2381,237.35715C116.63808,237.95183 115.60757,238.14143 115.15676,238.80914C114.64346,239.5694 114.90353,240.48409 114.4241,241.17114C113.93272,241.87531 113.33852,242.51765 113.12859,243.22914C112.8305,244.23949 112.65847,244.98695 111.87276,245.4398C111.17425,245.84239 110.40021,246.33037 110.09226,247.04465C109.71277,247.92488 109.78743,248.80782 109.19276,249.40248C108.5506,250.04465 107.86441,250.54196 107.4286,251.22382C106.90195,252.04779 106.61954,252.90909 105.9716,253.62398C105.49551,254.14925 105.28904,255.04945 104.96159,255.87114C104.63117,256.70029 103.56005,256.97141 103.07126,257.7453C102.58749,258.51123 102.27288,259.18011 102.08209,260.12381C101.90776,260.98611 101.38996,261.48422 101.0461,262.17047C100.65388,262.95319 100.36018,263.80692 99.6821,264.46246C99.08627,265.03851 99.03401,265.89331 98.57143,266.54465C98.09576,267.21439 98.07858,268.08698 97.57143,268.98215C97.14404,269.73654 97.27319,270.70712 96.90076,271.32382C96.43198,272.1001 95.27277,272.47668 95.08043,273.22382C94.84479,274.13913 94.21505,274.57562 94.07143,275.5238C93.95803,276.27243 94.32699,277.24551 93.98609,277.95447C93.53134,278.90021 93.02348,279.42416 92.71877,280.17197C92.39321,280.97092 92.12711,281.9892 91.8501,282.84515C91.62421,283.54315 91.13366,284.49579 91.07276,285.32248C91.01074,286.16437 90.75833,287.07797 90.4241,287.81848C90.03713,288.67581 90.07425,289.5238 90.07143,290.47565C90.06918,291.23364 90.0622,292.07849 89.57143,292.98215C89.13599,293.78391 89.16567,294.64005 88.98609,295.40915C88.76109,296.3728 88.21478,296.92502 88.07143,297.95981C87.95286,298.81564 88.07143,299.72513 88.07143,300.69049C88.07143,301.50299 88.13683,302.42151 88.06693,303.22916C87.98286,304.20044 87.16064,304.67896 87.07143,305.54465C86.98525,306.38077 86.91065,307.36023 86.57143,308.00299C86.13612,308.82782 86.23418,309.78067 85.8501,310.62381C85.49475,311.40384 85.07368,312.16666 85.07143,313.0918C85.06966,313.81848 84.7067,314.63684 84.07143,315.04465C83.26934,315.55954 83.07143,316.5238 83.07143,317.32382C83.07143,318.22382 83.23753,319.14319 83.0506,320.0238C82.87162,320.86694 82.07676,321.54907 82.07143,322.32513C82.06525,323.22379 81.83194,323.97409 81.35543,324.60782C80.79362,325.35501 81.09013,326.32532 81.07143,327.22382C81.05342,328.08835 80.38273,328.6225 79.98743,329.32513C79.52782,330.14209 79.08943,330.93396 79.07143,331.84515C79.05457,332.69833 79.16055,333.65518 78.98609,334.40781C78.76009,335.38281 78.4113,336.05807 78.07143,337.00299C77.76766,337.84753 77.24966,338.38745 77.10743,339.34915C76.95986,340.34692 77.04328,341.11691 76.6461,341.93448C76.20168,342.84927 75.79832,343.53943 76.07143,344.53848C76.23387,345.13275 77.57179,345.2019 78.06409,345.18048C79.26496,345.12827 79.9432,345.03882 80.65476,344.94049C81.38866,344.83905 82.13029,344.71957 82.85677,344.55048C84.24706,344.22684 85.45998,343.76053 86.02609,343.50949C86.59073,343.25912 87.14764,342.96671 88.36343,342.41479C89.02897,342.11267 90.56771,341.51251 91.46543,341.22363C92.43955,340.91019 93.49777,340.61316 94.62743,340.31314C95.81972,339.99649 97.0749,339.68561 98.38343,339.36664C99.73888,339.03622 102.57162,338.35794 104.03576,338.00247C105.52629,337.64059 107.03827,337.27048 108.56876,336.89847C110.11294,336.52313 111.66692,336.14703 113.22776,335.77649C114.7896,335.4057 117.90408,334.68744 119.44943,334.34531C120.98143,334.00613 122.50054,333.67993 124.00343,333.3598C125.48788,333.04361 126.95297,332.7355 128.39543,332.42831C129.81432,332.12616 132.57219,331.52722 133.90627,331.22382C135.21086,330.92712 136.48291,330.62781 137.72076,330.32382C138.92656,330.02771 140.09668,329.72852 141.22926,329.4238C142.32733,329.12836 144.40637,328.52902 145.38542,328.22382C146.33168,327.92883 147.24405,327.62756 148.12743,327.32382C148.98936,327.02747 149.82947,326.72574 150.65343,326.4238C151.4668,326.12573 153.07138,325.52368 153.87109,325.22397C154.66872,324.92502 155.46227,324.62784 156.25009,324.33447C157.02959,324.04419 157.79912,323.75897 158.5571,323.48099C159.30048,323.20834 160.73795,322.69006 161.4281,322.44513C162.09795,322.2074 162.74896,321.97885 163.3781,321.74915C163.98895,321.52612 164.58025,321.30377 165.1481,321.07114C165.70023,320.84494 166.74144,320.36346 167.22859,320.10263C167.70544,319.84732 168.1622,319.57669 168.61009,319.30914C169.05121,319.04565 169.48358,318.78076 169.9196,318.53363C170.35164,318.28876 171.23476,317.84897 171.69226,317.66666C172.14824,317.48492 172.60988,317.33145 173.06476,317.18515C173.50824,317.04251 173.93954,316.91351 174.34726,316.77563C174.73285,316.64526 175.41118,316.36829 175.68542,316.20264C175.93637,316.05109 176.14813,315.88141 176.32742,315.70914C176.49323,315.54984 176.62973,315.38593 176.75343,315.23364C176.86697,315.09387 177.06715,314.8522 177.17126,314.76663C177.26642,314.68845 177.36566,314.6311 177.46075,314.58514C177.54948,314.54227 177.63622,314.51096 177.71426,314.47565C177.78688,314.44278 177.90948,314.36075 177.94994,314.30249C177.99121,314.24304 178.0173,314.17197 178.03543,314.09848C178.05368,314.02451 178.27426,313.81924 178.95026,313.30231C179.66635,312.75473 180.12582,312.04477 180.58876,311.63849C181.38232,310.94202 181.72762,310.05334 182.72859,309.63364C183.43303,309.33829 184.50125,309.29874 185.0506,308.98215C185.96762,308.45367 186.34894,307.61374 186.95543,307.09314C187.63495,306.50986 188.61649,306.50555 189.45676,306.0878C190.4445,305.59674 191.08707,305.23257 191.85677,304.88782C192.39296,304.64764 193.40436,304.06339 194.02975,303.5238C194.60353,303.02878 195.43542,302.15982 196.07143,301.5238C196.57143,301.0238 197.40228,300.41589 197.7861,299.72382C198.24336,298.89932 198.07631,297.88098 198.07143,297.0238C198.06609,296.08777 197.7861,295.32513 197.07143,294.69049L196.27142,294.52515L195.35677,294.60913" id="svg_1" stroke-width="3" stroke="#000" fill="none"/>
  <path t="9709,9838,9896,9921,9943,9961,10028,10079,10127,10145,10183,10233,10281,10296,10296,10319,10352,10359,10359,10377,10384,10399,10402,10424,10439,10447,10457,10464,10479,10497,10497,10504,10522,10527,10529,10537,10559,10584,10599,10624,10639,10642,10649,10672,10679,10727,10759,10759,10759,10769,10784,10784,10792,10799,10817,10824,10857,10879,10889,10904,10912,10912,10919,10929,10929,10937,10937,10944,10952,10959,10962,10992,11017,11039,11049,11057,11064,11064,11074,11074,11082,11089,11099,11104,11104,11122,11122,11144,11152,11177,11184,11192,11202,11207,11217,11224,11239,11239,11249,11249,11264,11272,11282,11304,11362,11377,11393,11393,11400,11408,11408,11425,11433,11433,11448,11470,11510,11543,11550,11553,11600,11640,11663,11673,11673,11673" d="M193.07143,293.5238C193.9861,293.8078 193.96887,294.69684 194.07143,295.5238C194.18294,296.42303 195.02872,296.8049 195.07143,297.74515C195.11057,298.60693 195.07143,299.5238 195.07143,300.40247C195.07143,301.23981 195.07724,302.09851 195.07143,303.04465C195.06609,303.91321 194.67494,304.61819 194.07593,305.17114C193.59821,305.61212 192.54309,305.3075 191.78127,305.58096C190.94327,305.88177 190.28528,306.56247 189.77592,307.22916C189.26665,307.89575 188.64185,308.36649 187.87276,308.8078C187.0443,309.28317 186.35011,309.55276 185.59225,310.0238C184.83203,310.49634 184.01453,310.81351 183.37143,311.17114C182.51831,311.64554 181.67143,311.95981 181.07143,312.5238C180.47144,313.0878 179.51024,313.3407 178.78743,313.8078C178.03833,314.2919 177.8037,315.02512 177.2381,315.69049C176.6568,316.37433 176.31049,317.05872 175.59225,317.50299C175.00211,317.86804 174.47911,318.34357 173.57143,318.5238C172.69109,318.69861 172.26219,319.43921 171.55409,319.95581C170.76881,320.52875 169.93752,320.8718 169.2701,321.23981C168.44595,321.69424 167.46875,321.44724 166.71426,321.87646C165.92331,322.32645 165.1241,322.5238 164.2701,322.5238C163.35677,322.5238 163.10182,323.2467 162.3616,323.81931C161.78424,324.26593 160.78471,324.35992 159.97127,324.74515C159.26358,325.08029 158.39789,325.37479 157.55544,325.60782C156.67439,325.8515 155.81525,326.30374 155.07143,326.69049C154.2717,327.10632 153.54228,327.49106 153.06076,327.94916C152.5152,328.46817 151.67143,328.52371 150.76692,328.5238C149.75009,328.5239 149.02449,328.3848 148.09293,328.74515C147.31509,329.04605 146.49724,329.16846 145.59225,329.54465C144.91158,329.82761 144.50514,330.72528 143.77676,331.16666C142.90678,331.69385 142.38661,332.36926 141.46075,332.5238C140.58333,332.67026 139.86584,333.06091 138.97159,333.40231C138.2007,333.69659 137.34055,333.34106 136.47144,333.55981C135.60863,333.77698 134.86476,334.38519 133.97127,334.52414C133.17737,334.64758 132.43565,335.24982 131.89676,335.67316C130.98529,336.38919 130.09419,336.36264 129.36693,336.58096C128.49492,336.84274 127.77279,337.49521 126.87143,337.5238C125.97171,337.55234 125.18296,337.45706 124.24609,337.53448C123.22956,337.6185 122.56786,338.19846 121.78609,338.52515C121.00746,338.85052 120.43404,339.2988 119.67142,339.91315C118.92699,340.51285 118.01876,340.5238 117.1196,340.5238C116.2101,340.5238 115.42135,340.05118 114.5181,340.55981C113.80983,340.95865 113.38876,341.5238 112.52843,341.5238L111.79943,341.5238L110.96243,341.5238" id="svg_2" stroke-width="20" stroke="#fff" fill="none"/>
  <path t="14787,14994,15025,15033,15040,15063,15088,15113,15138,15168,15193,15223,15240,15255,15280,15295,15328,15345,15353,15393,15400,15430,15458,15473,15495,15520,15520,15528,15543,15560,15600,15615,15633,15640,15640,15655,15655,15663,15688,15695,15703,15713,15720,15750,15768,15768,15775,15800,15808,15833,15833,15848,15848,15865,15865,15873,15888,15905,15913,15928,15928,15953,15968,15968,15983,15985,16008,16015,16025,16063,16065,16080,16088,16103,16120" d="M188.07143,272.5238C188.07143,273.40247 188.07143,274.2283 188.07143,275.12381C188.07143,276.00299 188.07143,276.94916 188.07143,277.8078C188.07143,278.7453 188.07143,279.62366 188.07143,280.49847C188.07143,281.32513 188.07143,282.22382 188.07143,283.12381C188.07143,284.00299 188.07143,284.94916 188.07143,285.8078C188.07143,286.69315 188.07143,287.5238 188.07143,288.50299C188.07143,289.40247 188.25629,290.26675 188.03543,291.13449C187.81834,291.9874 187.11415,292.72079 187.07143,293.62381C187.0289,294.5228 187.07143,295.32382 187.07143,296.23846C187.07143,297.09848 187.07143,298.0238 187.07143,298.88098C187.07143,299.82382 187.07143,300.72382 187.07143,301.62396C187.07143,302.40915 187.07143,303.34915 187.07143,304.03979C187.07143,305.07715 186.91861,305.97372 187.08209,306.9238C187.22523,307.75574 187.82608,308.43936 188.1286,309.2283C188.44809,310.06146 189.33928,310.6149 189.71877,311.2283C190.20544,312.01495 189.99564,313.04797 190.07143,313.91315C190.15508,314.8681 190.65572,315.51498 190.90475,316.35715C191.15866,317.21579 190.96371,318.10867 191.1286,318.87564C191.35286,319.91882 192.19064,320.47345 192.64609,321.13449C193.15086,321.86713 193.07082,322.84515 193.07143,323.69849C193.0721,324.63849 193.31392,325.47354 193.71877,326.16666C194.15965,326.92145 193.80321,327.85593 194.07277,328.8078C194.29359,329.58755 195.061,330.02362 195.07143,330.96649C195.08084,331.81842 195.07159,332.74515 195.4241,333.46664L196.29276,333.52399L197.01427,333.87646" id="svg_3" stroke-width="3" stroke="#000" fill="none"/>
  <path t="17851,17954,17954,17970,17970,18000,18008,18015,18030,18048,18055,18063,18095,18110,18120,18135,18150,18160,18168,18175,18193,18200,18200,18215,18230,18233,18240,18248,18255,18263,18280,18280,18295,18295,18303,18310,18328,18360,18375,18375,18415,18430,18448,18480,18495,18510,18520,18528,18535,18545,18560,18568,18583,18600,18600,18608,18615,18648,18663,18670,18688,18703,18728,18743,18760,18775,18785,18800,18823,18833,18855,18865,18873,18910,18920,18935,18950,18968,18993,19008,19023,19023,19030,19055,19070,19088,19103,19110,19120,19135,19135,19143,19168,19168,19175,19175,19183,19193,19193,19200,19200,19208,19208,19215,19218,19223,19233,19240,19240,19248,19248,19255,19273,19273,19280,19295,19303,19313" d="M258.07144,256.5238C257.49677,257.13449 257.28128,258.16785 256.5506,258.50299C255.76065,258.8653 255.43991,259.12631 255.0506,260.00299C254.73491,260.71387 254.08282,261.23987 254.07143,262.13449C254.06036,263.00317 253.40965,263.56772 253.01877,264.2283C252.55402,265.01376 252.18874,265.86975 251.64609,266.49847C251.12808,267.09866 250.60555,267.89914 250.19276,268.62366C249.74165,269.41544 249.25751,269.94769 248.7861,270.72382C248.37527,271.40021 247.55634,272.00909 246.97159,272.62381C246.41385,273.21014 245.87891,273.91977 245.35542,274.60782C244.88858,275.22141 245.00868,276.27939 244.3616,276.82831C243.76256,277.33649 242.88748,277.96762 242.5181,278.69849C242.06419,279.59659 241.7092,280.23761 241.1286,280.87646C240.63524,281.41931 239.82065,281.60144 239.35677,282.23981C238.85057,282.93643 238.60555,283.89914 238.19276,284.62366C237.74165,285.41544 237.35899,285.92548 237.06693,286.81931C236.817,287.58417 235.63866,287.61526 235.15677,288.43982C234.74402,289.14606 234.27605,289.5603 234.01427,290.2283C233.67441,291.09552 232.75923,291.63965 232.09225,292.00299C231.2529,292.46024 230.70197,292.83813 230.15677,293.52515C229.63686,294.18027 229.21719,294.56903 229.07277,295.32513C228.90141,296.22226 228.72249,297.06433 227.90475,297.5238C227.20682,297.91595 227.07143,298.72382 227.07143,299.62366C227.07143,300.5238 227.07143,301.40247 227.07143,302.23981C227.07143,303.13449 226.94774,303.89893 226.4241,304.51932C225.96674,305.06119 226.07143,306.00299 226.07143,306.88098C226.07143,307.81931 226.07143,308.69049 226.07143,309.57648C226.07143,310.41046 226.07143,311.34915 226.07143,312.03979C226.07143,313.07715 226.07143,314.0238 226.07143,314.88098C226.07143,315.81931 226.11658,316.69165 226.07143,317.57648C226.0287,318.41373 225.66368,319.1553 225.35542,320.03979C225.03343,320.96371 225.07143,321.85715 225.07143,322.56549C225.07143,323.72348 225.25806,324.50186 225.06693,325.41849C224.8848,326.29199 224.36273,326.93073 223.97159,327.72363C223.58813,328.50098 223.13655,329.49603 223.07593,330.27649C223.00624,331.1738 223.07143,332.03979 223.07143,333.00299C223.07143,333.82831 223.12936,334.84943 223.0506,335.5238C222.93472,336.5159 222.26172,337.17184 222.08209,338.0878C221.91296,338.95029 222.07143,339.70914 222.07143,340.76215L222.07143,341.69049L222.07143,342.54465L222.07143,343.37448" id="svg_4" stroke-width="3" stroke="#000" fill="none"/>
  <path t="22326,22548,22600,22615,22625,22662,22695,22727,22767,22785,22792,22832,22865,22872,22887,22920,22945,22970,22992,23017,23032,23045,23047,23057,23080,23112,23120,23145,23152,23160,23167,23192,23200,23215,23247,23262,23287,23295,23295,23350,23367,23385,23392,23422,23440,23455,23455,23462,23487,23512,23527,23535,23542,23560,23567,23575,23582,23607,23630,23655,23665,23672,23695,23727,23735,23752,23775,23785,23800,23807,23815,23832,23872,23905,23920,23935,23967,23975,23975,23985,24000,24007,24017,24025,24025,24032,24040,24040,24050,24072,24072,24092,24097,24112,24112,24135,24167,24175,24177,24200,24222,24240,24247,24257,24272,24290,24295,24320,24327,24337,24352,24367,24377,24392,24400,24400,24417,24440,24440,24455,24487,24495,24527,24535,24545,24560,24575,24600,24607,24632,24655,24672,24695,24697,24705,24720,24737,24752,24785,24785,24792,24807,24817,24817,24825,24832,24855,24872,24880,24880,24912,24920,24930,24937,24945,24985,25015,25025,25042,25057,25072,25080,25097,25097,25120,25167,25192,25225,25240,25347,25398,25448,25456,25488,25528,25528" d="M276.07144,187.5238C276.07144,189.13448 276.07144,190.0238 276.07144,190.92381C276.07144,191.81931 276.07144,192.74515 276.07144,193.69048C276.07144,194.54465 276.07144,195.37448 276.07144,196.35448C276.07144,197.17114 276.06918,198.09848 276.07144,198.95981C276.0737,199.81932 276.79596,200.39168 277.06076,201.09848C277.38541,201.96506 277.07144,202.88098 277.07144,203.82381C277.07144,204.72382 277.07144,205.62364 277.07144,206.49847C277.07144,207.32515 277.07144,208.23848 277.07144,209.09848C277.07144,210.04465 277.07144,210.92381 277.07144,211.82381C277.07144,212.72247 277.24759,213.4859 277.71875,214.22832C278.1806,214.95607 278.07144,215.91315 278.07144,216.80782C278.07144,217.74515 278.01318,218.58804 278.08209,219.38515C278.16687,220.36594 278.85217,220.99797 279.07144,221.87648C279.2818,222.71928 279.69769,223.26659 280.0506,224.0238C280.41281,224.80098 279.845,225.89537 280.2381,226.69048C280.55777,227.33708 281.0661,228.08777 281.07144,229.0238C281.07632,229.88097 281.07144,230.82381 281.07144,231.72247C281.07144,232.6078 281.07144,233.5238 281.07144,234.40248C281.07144,235.22832 281.07144,236.08781 281.07144,237.0238C281.07144,237.94914 281.07144,238.80914 281.07144,239.72247C281.07144,240.6078 281.07144,241.49847 281.07144,242.40248C281.07144,243.22832 281.07144,244.08781 281.07144,245.04465C281.07144,245.92381 281.07144,246.82381 281.07144,247.72382C281.07144,248.62364 281.07144,249.49847 281.07144,250.40248C281.07144,251.22832 281.21964,252.13638 281.07144,253.00298C280.92737,253.84549 280.19415,254.51596 280.07275,255.32381C279.93625,256.23236 279.19803,256.68369 279.07144,257.54913C278.94617,258.40558 278.67413,259.15903 278.35544,260.03979C278.05377,260.87347 277.67838,261.66739 277.35544,262.40915C276.96738,263.30051 277.22287,264.37985 277.03543,265.11313C276.81509,265.97513 276.27744,266.67035 275.90475,267.5238C275.58356,268.2594 275.07144,268.94916 275.07144,269.81049C275.07144,270.69049 275.07144,271.50299 275.07144,272.53448C275.07144,273.43982 275.08206,274.22836 275.07144,275.12381C275.061,276.00317 274.25336,276.5181 274.07275,277.32513C273.88898,278.14633 274.39545,279.20563 274.0506,280.00299C273.74185,280.71692 273.11282,281.2655 272.64609,281.94916C272.11649,282.72488 272.22183,283.59726 271.8501,284.50214C271.55161,285.22876 271.19742,285.9816 270.90475,286.85715C270.66846,287.56403 270.28137,288.44589 270.01425,289.2283C269.72592,290.07275 269.0816,290.74536 269.07144,291.62366C269.061,292.52399 268.46228,293.0806 268.07144,293.87646C267.75928,294.51208 267.08945,294.95926 267.07144,295.81931C267.05206,296.74493 267.07144,297.69049 267.07144,298.5238C267.07144,299.32382 266.93002,300.05145 266.4241,300.58096C265.85559,301.17596 266.07144,302.23846 266.07144,303.09314C266.07144,303.87564 266.177,304.93524 265.78741,305.72382C265.35757,306.59387 265.07211,307.32382 265.07144,308.22382C265.0708,309.0878 265.15552,310.00363 264.71875,310.82382C264.31964,311.5733 264.38464,312.37244 264.07144,313.35715C263.84787,314.06009 263.11417,314.72079 263.07144,315.62366C263.02771,316.5481 263.07144,317.47113 263.07144,318.2283C263.07144,319.12381 263.38303,320.1503 263.06076,320.94916C262.75269,321.7128 262.07211,322.23981 262.07144,323.0918C262.07077,323.95581 262.07144,324.94916 262.07144,325.80914C262.07144,326.72382 262.15518,327.62769 262.07144,328.49847C261.9877,329.36917 261.11417,329.80472 261.07144,330.69049C261.03131,331.52283 261.0701,332.44113 260.71875,333.22916L260.35544,333.95581" id="svg_5" stroke-width="3" stroke="#000" fill="none"/>
  <path t="28900,29192,29239,29279,29304,29311,29399,29399,29406,29446,29486,29564,29615,29631,29631,29679,29697,29712,29734,29759,29784,29807,29832,29832,29872,29887,29904,29919,29944,29952,29999,30039,30064,30087,30104,30127,30203,30264,30264,30304,30327,30384,30414,30447,30562,30562,30628,30628,30643,30671,30679,30711,30719,30759,30776,30799,30809,30824,30871,30965,31082,31098,31098,31408,31817,31909,31993,32111,32195,32211,32395" d="M251.07143,163.5238C252.90475,163.69048 252.77798,164.54749 253.07159,165.40248C253.33589,166.17212 253.81447,166.89702 254.2381,167.69048C254.57784,168.32678 254.94505,169.24248 255.4241,169.87648C255.99702,170.63474 256.9032,170.66884 257.47144,171.37448C258.10669,172.16335 258.84329,172.43806 259.49677,172.94914C260.19559,173.4957 260.86493,174.0195 261.5506,174.5238C262.2106,175.00923 262.37045,176.11191 263.2381,176.5238C264.00583,176.88826 264.71234,177.17308 265.4241,177.87648C266.0444,178.4895 266.923,178.53738 267.57144,179.04465C268.33813,179.64441 268.92932,180.27936 269.6821,180.55981C270.50684,180.86708 271.28293,181.35707 272.17126,181.52397C272.96698,181.67346 273.43283,182.38838 274.29294,182.52397C275.18784,182.66504 275.75729,183.24284 276.46075,183.91315C277.1113,184.533 277.72034,184.83008 278.1286,185.58098C278.52725,186.31421 279.52448,186.72636 280.09225,187.04465C281.06839,187.59183 281.52719,188.18423 282.04608,188.91315C282.51227,189.56802 283.48779,189.61455 284.09677,190.09848C284.73123,190.60266 285.6821,190.5238 286.5506,190.5238C287.50742,190.5238 288.46777,190.39983 289.03543,190.94914C289.53397,191.43159 290.36157,191.43144 291.27142,191.52515C292.08405,191.60884 292.74887,192.37964 293.57144,192.5238C294.41132,192.67099 295.35675,192.5238 296.27008,192.5238C297.12408,192.5238 297.94992,192.30247 298.07144,191.4398L298.35544,190.60915" id="svg_6" stroke-width="3" stroke="#000" fill="none"/>
  <path t="34788,34923,34959,34969,34984,35079,35095,35136,35143,35158,35168,35183,35216,35248,35263,35288,35328,35336,35361,35416,35439,35439,35464,35519,35544,35567,35599,35614,35647,35687,35694,35697,35712,35719,35727,35752,35807,35807,35848,35856,35878,35903,35928,35968,35983,35991,36008,36023,36048,36081,36103,36121,36176,36198,36273,36328,36401,36439,36447,36504,36527,36559,36612,36732,36800,36838,36937,37000,37071,37123,37191,37250,37337,37406,37411,37464,37504,37593,37647,37703,37713,37780,37780,37832,37847,37872,37912,37944,37974,38017,38064,38087,38127,38160,38182,38200,38240,38255,38262,38305,38310,38352,38375,38407,38422,38440,38455,38480,38527,38577,38577,38607,38632,38650,38695,38727,38742,38836,38851,38872,38887,38920,38960,39028,39079,39119,39214" d="M277.07144,83.52381C278.57144,84.02381 279.30133,84.40275 280.17126,84.52398C280.97296,84.6357 281.34891,85.3236 281.98743,85.80781C282.6712,86.32635 282.95398,87.10976 283.4241,87.81931C283.95255,88.61687 284.85132,89.01755 285.07144,89.87648C285.30264,90.77866 285.69403,91.2683 286.0506,92.02381C286.44577,92.86111 286.61926,93.48986 287.06693,94.17114C287.56299,94.92609 288.27637,95.53582 288.71426,96.16664C289.20477,96.87325 289.13739,97.95116 289.94992,98.40231C290.63998,98.78548 291.07077,99.32514 291.07144,100.23848C291.07208,101.09848 291.05237,101.97069 291.07159,102.84498C291.08957,103.66306 291.48904,104.58736 292.09677,105.09848C292.71698,105.6201 293.07144,106.17114 293.07144,107.09181C293.07144,107.95581 293.53198,108.70313 293.90475,109.52381C294.25623,110.29756 294.10037,111.24515 294.57144,112.00298C295.04391,112.76306 295.45651,113.43171 296.04608,113.94914C296.68384,114.50885 296.70816,115.32559 297.10742,116.08781C297.50464,116.84611 297.73294,117.55595 298.15677,118.23981C298.65222,119.03927 298.75626,119.68623 299.07593,120.47115C299.40497,121.27905 300.53729,121.36446 301.27008,121.80781C302.04288,122.27536 302.07144,123.22831 302.07144,124.08781C302.07144,125.02381 302.74008,125.35865 303.0506,126.04464C303.41324,126.8458 303.07144,127.91315 303.07144,128.80782C303.07144,129.69048 303.07144,130.54465 303.07144,131.37448C303.07144,132.35448 303.26633,133.19185 303.07144,134.09848C302.89108,134.93762 302.44894,135.70102 302.07144,136.48781C301.70871,137.24385 301.07144,137.80782 301.07144,138.74532C301.07144,139.62364 301.07144,140.5238 301.07144,141.40248C301.07144,142.23981 301.07144,143.13448 301.07144,144.00298C301.07144,144.94914 301.06036,145.80789 301.07144,146.69315C301.08185,147.524 301.66595,148.16493 302.07144,148.80782C302.50064,149.4883 302.88129,150.18217 303.06076,151.12381C303.22928,152.00795 302.90686,153.02119 303.35544,153.52515C303.89426,154.13048 304.84613,154.46045 305.06693,155.22832C305.30444,156.05435 305.13016,156.98398 305.64609,157.51314C306.13052,158.01001 306.61472,158.72707 306.94992,159.62364C307.26846,160.47569 307.4281,161.13612 307.98743,161.80914C308.54355,162.47829 308.84644,163.16121 309.46075,163.92381C310.06046,164.66826 310.07144,165.54915 310.07144,166.4398C310.07144,167.22832 310.07144,168.16664 310.07144,169.04465C310.07144,170.00298 310.07144,170.88098 310.07144,171.72247C310.07144,172.69048 310.07144,173.54915 310.07144,174.41048L310.08209,175.33847L310.2381,176.19048L311.01425,176.52831" id="svg_7" stroke-width="3" stroke="#000" fill="none"/>
  <path t="49323,49642,49696,49703,49809,49846,49903,49943,49968,50001,50056,50071,50118,50212,50313,50329,50329,50415,50464,50467,50535,50568,50575,50615,50640,50753" d="M311.07144,176.5238C311.07144,178.17114 310.84793,179.0739 311.07144,179.91315C311.25391,180.59834 312.31137,181.05521 312.07144,181.94914C311.89566,182.60406 311.08945,182.9593 311.07144,183.91315C311.05457,184.80766 311.10855,185.76025 310.35544,186.23981C309.65207,186.68767 308.7861,186.80914 308.07144,187.5238C307.50742,188.08781 306.99628,188.93973 306.2381,189.35715C305.57248,189.7236 305.12531,190.29832 304.36694,190.5193C303.54172,190.75977 302.57144,190.54465 302.08209,191.09848L301.71426,191.87648" id="svg_11" stroke-width="3" stroke="#000" fill="none"/>
  <path t="51584,51830,51918,51951,51984,52039,52080,52135,52175,52183,52190,52258,52402,52402,52456,52496,52575,52644,52660,52680,52703,52728,52790,52840,52840,52960" d="M297.07144,173.5238C295.2381,173.69048 295.10995,174.49937 295.07144,175.32515C295.02872,176.24147 294.15515,176.67847 294.07144,177.54915C293.98608,178.43706 294.07144,179.22914 294.07144,180.19048C294.07144,181.09848 294.07144,181.94914 294.07144,182.85715C294.07144,183.70914 294.07077,184.63715 294.07144,185.54915C294.07211,186.43848 294.62585,186.94144 295.29294,187.40231C296.02246,187.90634 296.73978,188.07112 297.4241,188.46664C298.23318,188.93425 299.17142,188.74515 299.87143,189.23981L300.67142,189.51314" id="svg_12" stroke-width="3" stroke="#000" fill="none"/>
  <path t="53981,54154,54170,54170,54191,54216,54238,54256,54263,54271,54281,54303,54313,54336,54351,54351,54383,54398,54431,54463,54488,54511,54528,54543,54568,54583,54591,54608,54638,54663,54678,54703,54721,54751,54798,54823,54856,54906,54906,54906,54974,54999,55054,55057,55095,55135,55168,55215,55270,55296,55361,55400,55422,55462,55462,55495,55542,55542,55575,55622,55647,55680,55695,55750,55766,55846,55872,55879,55927,55934,56002,56048,56071,56152,56183,56201,56208,56256,56273,56296,56318,56328,56343,56358,56383,56423,56448,56456,56488,56503,56526,56551,56566,56583,56623,56638,56638,56663,56678,56703,56718,56728,56736,56736,56776,56783,56801" d="M274.07144,101.52381C274.94992,102.74531 274.86694,103.70876 275.2421,104.32381C275.71066,105.09202 276.92133,105.30717 277.49677,105.95981C278.0968,106.64032 277.81375,107.74976 278.29276,108.40247C278.8035,109.09843 278.86526,109.89 279.4241,110.46664C279.9346,110.99339 280.17447,111.76247 280.87277,112.23848C281.62207,112.74925 281.73517,113.51115 282.15677,114.23981C282.54575,114.91207 283.06094,115.54447 283.07144,116.50214C283.0813,117.40226 283.63379,117.73126 284.29276,118.40247C284.89926,119.02026 285.07144,119.72247 285.07144,120.60915C285.07144,121.52381 285.07144,122.40247 285.07144,123.22831C285.07144,124.12381 285.07144,125.00298 285.07144,125.94914C285.07144,126.88097 285.07144,127.72247 285.07144,128.6078C285.07144,129.5238 285.05347,130.32399 285.07144,131.22382C285.08945,132.12434 285.76892,132.77234 286.07144,133.69048C286.33224,134.48195 286.07144,135.32515 286.07144,136.22382C286.07144,137.16664 286.07144,138.0238 286.07144,138.95981C286.07144,139.81931 286.08139,140.74538 286.07144,141.62364C286.061,142.54483 285.65002,143.19867 285.35544,143.95581C284.98083,144.91864 284.84552,145.74095 284.27008,146.32515C283.58698,147.01866 283.3056,147.97804 282.71426,148.47115C282.01819,149.05159 281.50998,149.5569 281.01425,150.17114C280.49741,150.81154 279.59482,150.82085 278.90475,151.35715C278.21835,151.89061 277.85648,152.46291 276.98743,152.5238C276.07367,152.58783 275.48587,152.70122 274.98608,153.23981C274.35104,153.92412 273.19275,153.5238 272.36694,153.5238C271.50742,153.5238 270.48404,153.62811 269.77594,153.17114C269.00214,152.67177 268.5856,151.86067 268.09677,151.13448C267.64694,150.46623 266.97995,149.95216 266.2381,149.5238C265.60681,149.15929 265.06509,148.38809 264.63544,147.67314C264.12448,146.82294 263.4754,146.38292 263.01425,145.87648C262.44028,145.24612 261.75974,145.15936 261.15677,144.52248C260.65424,143.99165 260.14948,143.2377 259.63943,142.80914C258.93777,142.21957 258.52896,141.50446 258.0506,141.0238C257.46127,140.43167 257.03278,139.73767 256.36609,139.22832C255.69948,138.71902 254.78743,138.23981 254.1286,137.57648L253.9861,136.80782" id="svg_13" stroke-width="3" stroke="#000" fill="none"/>
  <path t="58263,58441,58456,58487,58520,58532,58532,58600,58646,58651,58694,58734,58805,58821,58841,58856,58896,58904,58926,58944,58966,59016,59089,59089,59089" d="M281.07144,137.5238C280.07144,137.5238 279.26993,137.49107 279.01425,136.81931C278.68674,135.95876 277.75146,135.42294 277.35675,134.80914C276.86017,134.03696 276.26965,133.88708 275.50742,133.48781C274.74911,133.09061 274.15543,132.5238 273.2381,132.5238C272.46075,132.5238 271.68042,132.33891 271.07275,131.80782C270.56476,131.36382 269.59225,131.5238 268.63544,131.5238C267.77594,131.5238 266.8501,131.5238 265.98743,131.5238L265.07144,131.5238L264.27142,131.5238L263.35675,131.5238" id="svg_14" stroke-width="3" stroke="#000" fill="none"/>
  <path t="59578,59692,59736,59761,59798,59863,59916,59931,59952,59984,60034,60078,60103,60136,60158,60208,60268,60355,60355,60391,60431,60489" d="M262.07144,131.5238C263.6821,131.5238 264.63754,131.41724 265.36694,131.87648C266.18964,132.39445 266.59439,132.77287 267.2381,133.35715C267.86737,133.92831 268.9325,133.54628 269.57144,134.0238C270.27448,134.54921 270.78833,134.8743 271.35675,135.4398C271.97342,136.05331 272.89209,136.44005 273.71875,136.5238C274.56711,136.60976 275.50742,136.5238 276.36694,136.52831L277.04608,136.94914L277.64609,137.51314L278.49677,137.5238" id="svg_15" stroke-width="3" stroke="#000" fill="none"/>
  <path t="62774,62938,62938,62953,62977,62992,63007,63007,63032,63054,63072,63094,63127,63137,63159,63184,63199,63214,63224,63232,63247,63264,63287,63304,63312,63319,63327,63337,63352,63367,63367,63384,63392,63399,63407,63424,63432,63447,63464,63479,63479,63487,63512,63544,63544,63574,63592,63632,63672,63672" d="M251.07143,92.52381C251.07143,93.32514 251.08183,94.22387 251.07143,95.12381C251.061,96.02399 250.53616,96.73013 250.19293,97.62398C249.9082,98.36549 250.07143,99.33848 250.07143,100.28098C250.07143,101.09848 250.34267,102.06961 250.06693,102.87648C249.8033,103.64788 249.08266,104.13448 249.07143,105.08781C249.06128,105.94915 248.46588,106.52842 248.01877,107.22831C247.53719,107.98217 247.18707,108.69806 247.07143,109.57648C246.95981,110.42429 246.25885,110.94838 245.78743,111.72247C245.35083,112.43938 245.44832,113.22777 245.03543,114.08781C244.70651,114.77294 243.71712,115.20515 243.42859,115.87564C243.00755,116.85407 242.60472,117.59857 242.19293,118.40247C241.83315,119.10484 241.19728,119.68312 241.07143,120.49847C240.94466,121.31981 240.4731,122.06534 239.8501,122.74531C239.33522,123.30727 239.11047,124.28508 238.5506,125.02381C238.04695,125.68834 237.45621,126.23605 237.0461,127.12381C236.67099,127.93579 236.15543,128.72382 235.90475,129.5238L235.4241,130.16664" id="svg_16" stroke-width="3" stroke="#000" fill="none"/>
  <path t="64769,64825,64871,64871,64919,64944,64966,64991,64999,65024,65054,65071,65126,65126,65134,65174,65199,65224,65239,65286,65319,65344,65359,65384,65399,65424,65464,65466,65502,65535,65552,65575,65582,65600,65617,65640,65647,65672,65687,65695,65720,65727,65742,65752,65767,65767,65785,65792,65825,65840,65855,65855,65865,65920,65927,65937,65952,65967,65985,65992,66015,66022,66022,66040,66047,66072,66080,66080,66087,66095,66112,66127,66127,66135,66145,66175,66215,66222,66262,66295,66295,66302,66414" d="M220.07143,64.52381C220.07143,66.17114 220.07143,67.09181 220.07143,67.81847C220.07143,68.87648 220.07143,69.74514 220.07143,70.69048C220.07143,71.52381 220.40997,72.55599 219.9861,73.23981C219.49062,74.03916 219.07143,74.57648 219.07143,75.52381C219.07143,76.32381 219.25214,77.25768 219.07143,78.09848C218.89107,78.93761 218.13232,79.61735 218.07143,80.49847C218.00909,81.40032 218.07143,82.22831 218.07143,83.12381C218.07143,84.00298 217.51668,84.61958 217.1286,85.46664C216.80569,86.17147 217.07143,87.13448 217.07143,88.08781C217.07143,88.94914 217.07143,89.87648 217.07143,90.69315C217.07143,91.52381 217.07143,92.53848 217.07143,93.43981C217.07143,94.23981 217.07143,95.13448 217.07143,96.08781C217.07143,96.95981 217.07143,97.81931 217.07143,98.69315C217.07143,99.54464 216.73834,100.65942 217.29276,101.40247C217.77412,102.04763 218.39755,102.56046 218.78743,103.32381C219.17197,104.0767 218.98889,105.18702 219.50743,105.53448C220.2773,106.05033 220.80042,106.56434 221.15543,107.32381C221.53993,108.14636 222.52814,108.57419 222.94994,109.40247C223.30309,110.09594 223.24582,110.96122 223.71877,111.57648C224.26613,112.28854 224.40237,112.9762 224.90475,113.69048C225.39366,114.3856 224.74466,115.37683 225.07143,116.35714C225.33495,117.14771 225.9756,117.76752 226.2381,118.69048C226.42897,119.36158 226.97794,120.17913 227.07143,121.02381C227.17325,121.94377 227.88441,122.25478 228.50343,122.69315C229.19119,123.18018 229.10928,124.30711 229.77592,124.58098C230.61102,124.92406 230.92897,125.82857 231.07159,126.74531C231.21085,127.64034 231.77592,128.16664 232.63542,128.54915L233.0701,129.23981" id="svg_17" stroke-width="3" stroke="#000" fill="none"/>
  <path t="67237,67462,67478,67496,67536,67576,67591,67631,67638,67671,67678,67696,67711,67743,67758,67776,67783,67808,67823,67848,67898,67914,67935,67952,67952,67967,68007,68022,68040,68062,68080,68080,68095,68120,68135,68142,68167,68175,68207,68215,68225,68280,68282" d="M221.07143,64.52381C222.90475,64.52381 223.68211,64.51798 224.63542,64.52381C225.50748,64.52914 226.56413,64.71613 227.01427,65.47115C227.48224,66.25607 228.30383,66.08955 228.90475,66.69048C229.50569,67.2914 229.49747,68.04423 230.0701,68.60915C230.65668,69.18782 230.99333,69.878 231.07143,70.80781C231.13876,71.60953 231.89343,71.97375 232.63542,72.54914C233.26051,73.03387 233.75131,73.80762 234.35542,74.43981C234.90581,75.01578 235.24815,75.86115 235.87276,76.23848C236.69144,76.73306 237.44266,76.78143 238.07143,77.35714C238.63127,77.86973 239.30096,78.2301 240.07143,78.69048C240.79092,79.1204 241.20572,79.88025 241.71877,80.57648C242.22693,81.26609 242.3644,81.86442 242.90475,82.52381C243.37071,83.09241 243.1286,84.17114 243.77592,84.51931L244.71426,84.58098L245.07143,85.35714L245.07143,86.17114" id="svg_18" stroke-width="3" stroke="#000" fill="none"/>
  <path t="68814,68938,68938,68953,68976,68984,68999,69009,69016,69031,69054,69094,69111,69119,69144,69166,69176,69184,69216,69231,69264,69286,69296,69311,69329" d="M237.07143,84.52381C237.07143,85.52381 237.07143,86.43981 237.07143,87.22831C237.07143,88.12381 237.17389,89.08733 236.71877,89.81931C236.20738,90.6418 236.07143,91.32514 236.07143,92.23848C236.07143,93.17114 236.07143,94.04464 236.07143,94.92381C236.07143,95.81931 236.09123,96.74535 236.07143,97.69048C236.05342,98.54971 235.31055,99.07009 235.09225,100.00298C234.89317,100.85374 235.0701,101.80781 234.71877,102.47115L234.09225,103.04464L234.07143,103.91315L233.8501,104.74514" id="svg_19" stroke-width="3" stroke="#000" fill="none"/>
  <path t="70149,70319,70358,70383,70390,70408,70448,70470,70470,70495,70528,70550,70568,70575,70590,70615,70623,70630,70648,70655,70678,70720,70743,70775,70830,70830,70871,70886,70904,70926,70976,71049,71079,71104,71112,71134,71187,71240,71258,71280,71288,71335,71353,71360,71408,71567,71567" d="M249.07143,84.52381C250.07143,84.52381 250.98877,84.52381 251.77676,84.52381C252.7381,84.52381 253.62436,84.40658 254.35677,84.80781C255.14731,85.24088 255.87143,85.52314 256.90475,85.52381C257.6821,85.52431 258.57144,85.52381 259.47144,85.52381C260.36694,85.52381 261.29276,85.52381 262.2381,85.52381C263.09225,85.52381 263.92209,85.52381 264.9021,85.52381C265.71875,85.52381 266.64609,85.52381 267.50742,85.52381C268.36694,85.52381 269.29276,85.52381 270.2381,85.52381C270.9581,85.52381 271.88611,85.52381 272.9021,85.52381C273.71875,85.52381 274.64609,85.52381 275.50742,85.52381C276.37143,85.52381 277.27008,85.52381 278.2381,85.52381C279.09677,85.52381 279.87277,85.52381 280.90475,85.52381C281.6821,85.52381 282.57144,85.52381 283.47144,85.52381C284.36694,85.52381 285.30826,85.6944 286.2381,85.52381C287.02505,85.37944 287.07144,84.35714 287.2381,83.52381L287.71875,82.88097" id="svg_20" stroke-width="3" stroke="#000" fill="none"/>
  <path t="72299,72415,72415,72431,72479,72504,72536,72559,72591,72606,72639,72671,72671,72679,72711,72736,72744,72751,72776,72791,72824,72864,72879,72904,72926,72966,72984,73006,73016,73031,73079,73096,73159,73190,73223,73248" d="M309.07144,68.52381C308.07144,68.52381 307.27142,68.52381 306.35675,68.52381C305.4241,68.52381 304.51779,68.47629 303.77142,68.87648C302.92776,69.32883 302.38013,69.91184 301.71875,70.46664C301.17868,70.91967 300.96603,71.75531 300.36694,72.16664C299.54053,72.73405 298.49179,72.3615 297.78741,72.80781C296.99768,73.30819 296.23425,73.32334 295.37143,73.58098C294.51266,73.8374 293.98608,74.60915 293.36694,75.22831C292.6821,75.91315 292.07144,76.52381 291.49677,77.09848C290.78741,77.80781 290.03821,78.08537 289.4241,78.58098C288.78372,79.09782 288.96765,80.20473 288.27008,80.60781C287.48486,81.06153 286.8501,81.74514 286.19293,82.40247L286.01425,83.22831L285.57144,84.00298" id="svg_21" stroke-width="3" stroke="#000" fill="none"/>
  <path t="73834,73995,74010,74031,74038,74071,74096,74118,74118,74128,74151,74166,74183,74223,74263,74271,74311,74318,74358,74383,74416,74423,74438,74463,74486,74496,74511,74551,74558,74583,74598,74616,74638,74671,74688,74688,74696,74718,74736,74743,74776,74783,74816,74831,74878,74912,74912,74967,75008,75048,75103,75128" d="M309.07144,68.52381C309.07144,69.40247 309.07144,70.23981 309.07144,71.13448C309.07144,72.00298 309.15146,72.95288 309.07144,73.80781C308.98773,74.70217 308.69339,75.37897 308.07593,76.16664C307.64407,76.71755 307.07742,77.23983 307.07144,78.09848C307.06543,78.95985 306.45172,79.65205 306.10742,80.49847C305.76654,81.33651 305.70108,81.83823 305.15677,82.52647C304.62808,83.19497 305.12,84.31461 304.64609,84.94914C304.12357,85.6488 303.50024,86.09501 303.07144,86.74531C302.58792,87.47858 303.42667,88.6422 302.90475,89.35714C302.42676,90.01192 301.86691,90.51784 301.4241,91.22831C300.93481,92.01337 301.21771,92.96141 301.06693,93.88097C300.92325,94.75724 300.62656,95.48776 299.98743,96.23848C299.42017,96.90481 299.23877,97.58649 298.98608,98.32514C298.68292,99.21136 298.08945,99.92327 298.07144,100.81931C298.05286,101.74496 297.65582,102.26763 297.19293,102.96648C296.79794,103.56283 297.07144,104.69048 296.78741,105.43981L296.10742,105.94914L296.07144,106.88097L296.07144,107.72247" id="svg_22" stroke-width="3" stroke="#000" fill="none"/>
  <path t="77009,77073,77105,77128,77135,77150,77175,77183,77190,77215,77233,77233,77255,77273,77280,77303,77313,77320,77328,77343,77360,77383,77400,77400,77415,77423,77440,77440,77448,77448,77455,77470,77488,77495,77503,77510,77520" d="M220.07143,147.5238C220.07143,149.13448 220.07143,150.0238 220.07143,150.92381C220.07143,151.81931 220.07143,152.74515 220.07143,153.69048C220.07143,154.54915 220.07143,155.32515 220.07143,156.35715C220.07143,157.22914 220.07143,157.95581 220.07143,158.95981C220.07143,159.82381 220.07143,160.72247 220.07143,161.69048C220.07143,162.54915 219.87096,163.36098 220.1286,164.22382C220.38503,165.08255 220.98445,165.81212 221.07143,166.69048C221.15517,167.53618 221.71959,168.22345 222.07143,169.0238C222.42493,169.82794 222.95786,170.68213 223.03543,171.34914C223.15195,172.35104 223.24168,173.23833 224.07143,173.5238C224.90034,173.80901 225.2381,174.5238 225.98743,174.80914L226.29276,175.62364L226.90475,176.35715L227.14343,177.13448" id="svg_23" stroke-width="3" stroke="#000" fill="none"/>
  <path t="162213,162402,162438,162455,162478,162503,162525,162560,162615,162640,162655,162670,162695,162703,162718,162743,162758,162790,162790,162805,162815,162830,162900,162942,162967" d="M294.29999,170.86667C293.29999,171.86667 293.29999,172.74533 293.29999,173.57117C293.29999,174.46666 293.29999,175.36667 293.29999,176.256C293.29999,177.15199 293.29999,178.06667 293.29999,178.96666C293.29999,179.86667 293.29999,180.74533 293.29999,181.57117C293.29999,182.46666 293.06876,183.39725 293.29999,184.256C293.48492,184.94289 294.6369,185.04364 295.01468,185.668C295.50211,186.47354 295.29999,187.46666 295.29999,188.34584L295.29999,189.30267L295.29999,190.16667L295.30133,191.06534" id="svg_37" stroke-width="20" stroke="#fff" fill="none"/>
  <path t="163863,163946,163961,163992,164007,164062,164255,164271,164337,164337,164390,164390,164430,164478,164518,164550,164605,164605,164654,164654,164694,164726,164726,164751,164774,164814,164891,164891" d="M298.29999,192.86667C296.60001,192.92383 295.87759,193.55281 295,193.80949C294.13571,194.06229 293.12698,193.96931 292.29999,193.86667C291.40091,193.75507 291.09314,192.68025 291.47067,192.06667C291.94644,191.29338 292.79221,191.02217 293.88934,190.87733C294.79221,190.75813 295.70001,190.86667 296.59549,190.86667C297.46667,190.86667 298.39999,190.86667 299.29999,190.86667C300.10001,190.86667 300.936,190.86667 301.784,190.86667C302.64734,190.86667 303.664,190.86667 304.59549,190.86667L305.46667,190.86667L306.39999,190.86684L307.10001,190.952" id="svg_38" stroke-width="20" stroke="#fff" fill="none"/>
  <path t="166280,166482,166498,166631,166687,166702,166727,166727,166797,166839,166899,166967,166983,167006,167063" d="M296.29999,195.86667C296.29999,194.052 296.48318,193.32205 297.01599,192.78133C297.65201,192.13586 298.16162,191.84355 299.13333,191.86667C299.88998,191.88467 300.8981,192.19521 301.21466,193.06667C301.52332,193.91637 301.29999,194.86667 301.29999,195.7L300.58401,195.952L300.07849,196.74516" id="svg_39" stroke-width="20" stroke="#fff" fill="none"/>
  <path t="175475,175724,175773,175878,175958,176025,176041,176158,176264,176309,176351,176474,176474,176533,176631,176647,176710,176733,176801,176816,176816,176855,176880,177002,177002,177038,177071,177123,177139,177139,177182,177222,177237,177284,177347,177504,177688,177688,177871,177902" d="M278.29999,187.86667C280,186.87117 281.02283,186.52531 281.79999,186.8875C282.55722,187.2404 283.23779,187.46394 284.01468,187.952C284.75473,188.41692 285.0387,189.31186 285.65717,189.814C286.36176,190.38606 287.28629,190.77885 288,190.86217C288.93649,190.9715 289.82083,190.86667 290.70001,190.86667C291.60001,190.86667 292.49866,190.86667 293.46667,190.86667C294.29999,190.86667 295.10001,190.86667 296,190.86667C296.94284,190.86667 297.86932,190.86667 298.65182,190.86667C299.664,190.86667 300.49866,190.86667 301.46667,190.86667C302.29999,190.86667 303.13443,191.06261 304,190.80949C304.87762,190.55286 305.63089,189.96605 306.27466,189.44133C306.91296,188.92107 307.65717,188.50951 308.29999,187.86667L308.86401,187.26666L309.26401,186.46666L309.3045,185.57117" id="svg_41" stroke-width="3" stroke="#000" fill="none"/>
  <path t="181049,181386,181442,181478,181510,181612,181816,181880,181880,181949,181956,182110,183635" d="M302.29999,187.86667C301.58401,188.58267 300.77917,188.86667 299.89999,188.86667C299,188.86667 298.10001,188.86667 297.20001,188.86667C296.29999,188.86667 295.5,188.86667 294.60001,188.86667L293.65717,188.86667L292.77917,188.86667L291.91068,188.856" id="svg_42" stroke-width="3" stroke="#000" fill="none"/>
  <path t="186665,186934,186973,187005,187030,187070,187070,187118,187133,187227,187242,187278,187278" d="M296.29999,172.86667C296.29999,173.668 296.29999,174.56667 296.29999,175.46666C296.29999,176.34584 296.45615,177.33501 296.26401,178.01601C296.00089,178.94858 295.35266,179.57201 295.13333,180.53334L294.46667,181.03334L294.29999,181.86667L294.21466,182.66667" id="svg_43" stroke-width="3" stroke="#000" fill="none"/>
  <path t="188263,188672,188709,188741,188749,188799,188890,188949,188959,189006,189006,189036,189181,189181,189411" d="M296.29999,175.86667C297.73599,176.29201 298.49698,176.82394 299.39999,176.86667C300.29898,176.90919 301.35556,176.54103 302.01599,176.952C302.81458,177.44893 303.46613,177.65604 304.29999,178.03334C304.95398,178.32925 305.27917,179.34584 305.58667,180.15067L306.18668,180.58267L307.12534,180.83067" id="svg_44" stroke-width="3" stroke="#000" fill="none"/>
  <path t="195616,195776,195850,195850,195909,195919,195974,196042,196057,196057" d="M292.29999,166.86667C293.29868,168.58133 293.29999,169.57651 293.29999,170.384C293.29999,171.23067 293.3045,172.16217 293.79999,172.84584L294.31067,173.30267L294.58533,174.06667L295.10132,174.66667" id="svg_45" stroke-width="3" stroke="#000" fill="none"/>
  <path t="199626,199680,199719,199719,199749,199749,199781,199863,199901,199901,199919,199959,199974,200006,200006,200051,200165,200188,200238,200269,200309" d="M274.29999,120.86667C273.31467,120.84534 272.75967,120.26628 272.11465,119.71733C271.35373,119.06976 270.50134,118.868 269.58533,118.86667C268.75833,118.86546 267.81601,118.86667 266.95267,118.86667C266.06168,118.86667 265.07849,118.86667 264.20001,118.86667C263.29999,118.86667 262.35693,118.37552 261.58533,118.86667C261.01669,119.22861 261.29999,120.43066 261.29999,121.30267L261.29999,122.16666L261.29868,123.06667" id="svg_46" stroke-width="3" stroke="#000" fill="none"/>
 </g>
</svg>