<svg width="500" height="333.3333333333333" xmlns="http://www.w3.org/2000/svg" xmlns:svg="http://www.w3.org/2000/svg" xmlns:xlink="http://www.w3.org/1999/xlink">
 <!-- Created with SVG-edit - http://svg-edit.googlecode.com/ -->
 <g display="inline" class="layer">
  <title>Layer 1</title>
  <path t="0,163,202,219,219,220,235,318,334,360,370,402,419,533,560,584,601,656,718,768,790,790,834,851,889,911,951,970,1113,1151,1184" d="M282.29999,47.46667C282.29999,48.46667 282.28195,49.29578 282.01468,50.23333C281.80893,50.95499 281.75198,51.96137 280.73599,52.43467C279.95428,52.79883 279.36337,53.24137 278.59549,53.46217C277.76944,53.69968 276.77917,53.46667 275.91068,53.46667C275.01468,53.46667 273.99933,53.62948 273.35266,53.114C272.74585,52.63029 271.94733,52.46667 271.01599,52.46667C270.13333,52.46667 269.33966,52.23636 268.60001,51.81933C267.85498,51.39929 267.30411,50.64705 266.46667,50.46667C265.67093,50.29527 264.72534,50.43067 264.24734,49.81933L263.42151,49.46667L262.79999,48.96667L262.01599,48.46667" id="svg_1" stroke-width="3" stroke="#000" fill="none"/>
  <path t="1265,1318,1334,1368,1471,1484,1501,1518,1534,1552,1575,1618,1634,1651,1671,1751,1801,1801,1818,1834,1868,1884,1901,1934,1951,1969,1984,2018,2034,2055,2103,2151,2184,2184,2218,2218,2233,2268,2284,2301,2318,2318,2334,2368,2391,2418,2439,2468,2501,2517,2534,2551,2584,2601,2617,2663,2663,2703,2783,2818,2834,2851,2884,3018,3052,3085,3152,3201,3348,3380,3407,3485" d="M260.29999,50.46667C260.29999,52.16667 260.32568,53.1021 259.79999,53.94584C259.35043,54.66734 259.61365,55.22622 260.49866,55.468C261.29645,55.68595 261.80844,56.3073 262.59549,56.81933C263.32974,57.29703 264.11783,57.48954 264.73599,57.892C265.58002,58.4415 266.69067,57.88452 267.29868,58.552C267.91461,59.2282 267.40436,60.25575 267.79999,60.96667C268.28778,61.84318 268.215,62.81177 268.72534,63.44133C269.20605,64.03432 269.3092,64.89325 269.79999,65.46667C270.32379,66.07867 270.83701,66.78474 271.29999,67.63333C271.68378,68.3368 272.08475,68.97439 272.52133,69.688C273.00635,70.48079 273.55756,71.04852 273.94733,71.76134C274.43427,72.65183 275.14133,73.2363 275.2955,74.1095C275.44824,74.97449 276.03488,75.72915 275.93066,76.66666C275.82849,77.58582 275.28403,78.16679 275.29999,79.1095C275.31577,80.0419 276.12,80.46542 276.29999,81.34534C276.46777,82.16569 277.11957,82.46678 277.29999,83.3C277.48434,84.15144 277.5112,84.85932 278.01599,85.55067C278.51367,86.23226 278.90738,86.93532 279.24283,87.76217C279.58096,88.59565 280.15616,89.14844 280.29999,90.04134C280.44714,90.95489 280.83011,91.5769 281.21466,92.38267C281.56119,93.10876 281.24609,94.14342 281.65268,94.82384C282.11945,95.60497 282.29999,96.4875 282.29999,97.38267C282.29999,98.18267 282.29999,99.07733 282.336,100.03067L282.94733,100.46217L283.29999,101.04134" id="svg_2" stroke-width="3" stroke="#000" fill="none"/>
  <path t="5444,5583,5601,5634,5650,5651,5733,5799,5817,5851,5867,5887,5903,5959,5975,5991,6033,6079,6111,6134,6175,6217,6233,6295,6335,6383,6435,6502,6526,6558,6607,6650,6727,6820,6884,6935,6951,6952,7119,7183,7247,7284,7319,7431,7484,7501,7552,7829,7855,8135" d="M282.29999,48.46667C281.46667,48.3 281.66983,47.24188 281.07849,46.588C280.52173,45.97235 279.74594,45.77645 279.29999,44.96667C279.00305,44.42748 278.6239,43.90464 278.28934,43.04133C278.0166,42.33754 277.659,41.78589 277.29999,40.90267C277.06775,40.33129 276.66412,39.76667 276.27917,38.9875C275.91959,38.25964 275.17999,37.98333 274.65268,37.414C274.01553,36.7261 273.25458,36.64751 272.49866,36.38133C271.64395,36.08037 271.60779,34.85328 271.01599,34.46667C270.27704,33.98392 269.71841,34.1506 269.07867,33.58817C268.42441,33.01294 267.75278,32.90534 267.13333,32.46667C266.43259,31.97042 265.60468,32.5211 265.29999,33.3C264.99643,34.07607 264.48248,34.75574 264.07867,35.5665C263.72687,36.27286 263.29999,36.96667 263.29999,37.892C263.29999,38.81933 263.29999,39.688 263.29999,40.552C263.29999,41.46667 263.29999,42.38267 263.29999,43.18267C263.29999,44.114 263.29999,44.96667 263.29999,45.892L263.3045,46.81933" id="svg_3" stroke-width="3" stroke="#000" fill="none"/>
  <path t="10063,10452,10518,10618,10880,10896,10985,11034" d="M267.29999,31.46667C268.28934,31.43067 268.74954,30.9885 269.29999,30.4095C269.95969,29.71558 269.94733,28.82383 270.72534,28.456L271.27917,27.96667" id="svg_4" stroke-width="3" stroke="#000" fill="none"/>
  <path t="11104,11367,11417,11485,11517,11600,11752,11818,11852,11911,12171,12518" d="M271.29999,26.46667C271.13333,25.63333 270.12469,25.15655 269.42133,25.688C268.78003,26.17256 268.02567,26.15303 267.26401,26.50267C266.54816,26.83126 266.32083,27.94583 266.29999,28.892L266.29999,29.75067L266.52133,30.46683" id="svg_5" stroke-width="3" stroke="#000" fill="none"/>
  <path t="14168,14607,14634,14650,14684,14701,14734,14775,14816,14879,14903,14927,14967,15001,15039,15063,15095,15103,15183,15207,15234,15441,15473,15473,15500,15516,15517,15534,15534,15583,15631,15666,15666,15683,15683,15684,15703,15734,15734,15801,15884,15917,15934,16000,16023,16047,16084,16118,16135,16168,16184,16200,16235,16250,16285,16334,16367,16407,16423,16451,16467,16484,16518,16534,16551,16567,16601,16623,16655,16671,16703,16751,16767,16791,16807,16835,16850,16887,16951,16968,17036,17068,17083,17119,17167,17200,17267,17311,17350,17367,17399,17416,17433,17575,17600,17616,17687,17703,17734,17749,17766,17783,17799,17851,17867,17911,17933,17967,17983,18070,18095,18117,18326,18384,18423,18484,18567,18583,18639,18655,18688,18711,18749,18783,18833,18871,18935,18967,19051,19067,19116,19166,19216,19250,19266,19267,19316,19359,19383,19417,19417,19433,19449,19450,19534,19618,19703,19785,19834,19868,19884,20051,20127" d="M271.29999,26.46667C272.72534,27.892 273.35718,28.52384 273.94733,29.114C274.58401,29.75068 275.24283,30.4095 275.79999,30.96667C276.52133,31.68801 277.12115,32.37339 277.91068,32.46667C278.77344,32.56859 278.90887,33.2005 279.29999,34.04133C279.57684,34.63653 280.76056,34.64597 281.13333,35.46667C281.48477,36.24043 281.84366,36.69303 282.52133,37.34533C283.09995,37.90229 283.52481,38.38914 284.384,38.46667C285.31125,38.55034 285.91226,39.19112 286.74667,39.47733C287.59769,39.76924 288.27841,40.02798 289.2785,40.34533C290.08438,40.60106 290.6734,41.20539 291.58533,41.46667C292.46716,41.71933 293.29169,41.59785 294.06668,42.036C294.80096,42.45113 295.60693,42.86077 296.12851,43.705C296.6478,44.54553 297.15582,45.14537 297.29999,45.96667C297.46182,46.88857 297.11252,47.93222 297.72534,48.43067C298.43625,49.00889 298.78745,49.50947 299.29999,50.18267C299.72821,50.74511 300.47049,50.8783 301.01599,51.46533C301.51489,52.00224 302.16809,51.99085 302.94284,52.52383C303.64676,53.00808 304.0426,53.42514 304.72534,53.892C305.4996,54.42146 306.38208,54.15518 307.216,54.468C308.0336,54.7747 308.63074,55.39992 309.27466,55.892C309.92896,56.39201 310.9722,56.31739 311.28934,57.07734C311.62405,57.87936 311.86099,58.53057 312.336,59.04133C312.86447,59.6096 313.07657,60.37569 313.29999,61.18267C313.52066,61.97978 314.73032,62.11457 315.21466,62.752C315.76962,63.48239 315.25055,64.5207 315.29999,65.414C315.34274,66.18621 315.86884,66.68993 316.46667,67.3C317.05969,67.90514 317.54675,68.00645 318.13333,68.63333C318.71399,69.25387 318.29999,70.34517 318.29999,71.18267C318.29999,72.114 318.5499,73.00105 318.29999,73.892C318.11685,74.54489 317.47601,75.04642 317.01599,75.75066C316.52771,76.49815 315.4754,76.90315 314.65268,76.46667C314.09702,76.17187 314.37695,74.92667 313.94733,74.46217C313.40497,73.87578 313.29077,73.0401 312.79999,72.46667C312.27618,71.85468 311.68192,71.15632 311.38535,70.26667C311.09952,69.40919 311.48334,68.42983 311.21466,67.66534C310.91422,66.81045 309.85907,66.56784 309.336,66.04134C308.84262,65.54475 308.2395,64.9709 307.42151,64.58817C306.71649,64.25829 306.42773,65.11304 305.94733,65.81934C305.44067,66.5642 305.29999,67.38267 305.29999,68.18267C305.29999,69.07733 305.29456,70.0359 305.72534,70.47733C306.28241,71.04818 306.27722,71.98652 306.72534,72.47733C307.26312,73.06638 307.29999,73.892 307.29999,74.81934C307.29999,75.75066 307.03018,76.80389 307.58401,77.38133C308.12329,77.94357 308.83261,78.18767 309.29999,78.75066C309.77881,79.32746 310.32684,79.79588 311.01468,80.18267C311.74258,80.59198 312.78259,80.60023 313.24283,81.414C313.69272,82.20943 314.13147,82.61063 314.70001,83.31734C315.33487,84.10649 316.10535,84.34079 316.72534,84.892C317.42633,85.51522 317.29999,86.50267 317.29999,87.414C317.29999,88.3 317.29999,89.07733 317.29999,90.03067L317.29999,90.892L317.29999,91.81934" id="svg_6" stroke-width="3" stroke="#000" fill="none"/>
  <path t="23213,23432,23451,23485,23583,23615,23647,23695,23717,23738,23767,23818,23851,23966,23966,24001,24023,24051,24180,24218,24251,24271,24271,24320,24368,24368,24401,24401,24434,24468,24501,24534,24568,24635,24635,24684,24718,24718,24751,24785,24785,24818,24851,24851,24884,24884,24918,24968,24969,24991,24992,25018,25018,25051,25069,25101,25101,25119,25120,25151,25169,25218,25218,25251,25287,25334,25368,25368,25401,25401,25434,25434,25468,25468,25518,25518,25551,25584,25618,25651,25651,25684,25718,25751,25784,25818,25818,26103,27534,27549,27583,27602,27603,27621,27650,27651,27717,27784,27818,27836,27887,27887,27917,27936,27937,27968,28000,28001,28019,28050,28070,28100,28120,28120,28151,28170,28170,28200,28201,28220,28220,28250,28251,28271,28300,28334,28384,28433,28471,28500,28521,28550,28600,28620,28667,28700,28767,28800,28833,28867,28868,28900,28901,28901,28933,28971,29000,29033,29069,29100,29101,29133,29167,29168,29200,29201,29233,29234,29267,29268,29300,29301,29301,29333,29334,29367,29368,29368,29400,29401,29401,29401,29433,29467,29500,29501,29533,29567,29600,29633,29667,29700,29733,29768,29793,29794,29850,29883,29884,29917,29918,29951,29951,29983,29984,30017,30056,30084,30151,30207,30233,30267,30317,30318,30350,30383,30417,30450,30483,30484,30534,30602,30649,30682,30716,30832,30912,30950,30975,30976,31033,31050,31067,31083,31167,31182,31217,31233,31234,31234,31250,31251,31267,31317,31351,31367,31383,31400,31434,31434,31468,31483,31519,31533,31551,31584,31584,31600,31617,31633,31668,31683,31752,31771,31771,31801,31839,31871,31884,31917,31933,31950,31967,31983,32000,32016,32033,32067,32084,32277,32309,32333,32334,32351,32351,32351,32367,32367,32383,32384,32545,32564,32583,32600,32616,32651,32700,32716,32733,32751,32783,32784,32784,32800,32816,32868,32917,32951,32989,32989,33003,33033,33050,33084,33101,33116,33133,33167,33183,33200,33216,33267,33283,33300,33316,33333,33383,33400,33447,33500,33534,33567,33583,33617,33633,33650,33703,33703,33733,33767,33790,33833,33834,33852,33883,33916,33935,33954,34000,34019,34051,34084,34102,34151,34169,34199,34218,34271,34316,34365,34400,34418,34449,34469,34499,34518,34519,34519,34549,34569,34569,34599,34633,34666,34666,34686,34816,34841,34866,34867,34900,34951,34983,35019,35019,35050,35084,35084,35116,35167,35296,35332,35365,35366,35399,35432,35433,35465,35466,35466,35499,35500,35532,35533,35565,35599,35600,35632,35633,35665,35666,35699,35700,35732,35765,35799,35800,35832,35865,35866,35899,35900,35932,35933,35966,35966,35999,36000,36032,36033,36033,36065,36066,36066,36099,36100,36132,36167,36199,36232,36266,36299,36300,36332,36333,36366,36366,36399,36432,36433,36503,36532,36566,36599,36600,36632,36633,36665,36699,36732,36765,36766,36799,36800,36832,36833,36871,36999,36999,37047,37069,37101,37101,37133,37166,37167,37200,37201,37233,37266,37300,37301,37333,37366,37400,37433,37467,37500,37501,37533,37583,37584,37631,37671,37700,37733,37766,37800,37833,37866,37903,37933,37967,38000,38001,38033,38034,38034,38066,38067,38100" d="M316.29999,89.46667C316.35718,91.114 317.06851,91.53559 317.29999,92.44133C317.51657,93.2888 318.06689,93.87883 318.65268,94.4095C319.19543,94.90118 319.13794,95.76671 319.65268,96.414C320.14499,97.03309 320.73657,97.69465 321.24283,98.4095C321.74313,99.11594 322.00748,99.90136 322.3045,100.82384C322.57626,101.66787 323.20694,102.2878 323.29999,103.07733C323.40411,103.9608 323.64243,104.78051 324.29999,105.46667C324.85187,106.04255 325.09973,106.89692 325.52151,107.68833C325.86224,108.32767 326.64508,109.09667 326.94284,109.814C327.3049,110.68625 327.24933,111.56789 327.29999,112.492C327.34274,113.27151 327.99707,114.06328 328.21466,114.94933C328.4082,115.73746 328.14203,116.74398 328.52133,117.56667C328.82944,118.23491 329.29465,119.10262 329.29999,119.95067C329.30542,120.81399 329.21091,121.73553 329.46667,122.63333C329.71259,123.49651 330.05719,124.32355 330.32535,125.056C330.63943,125.91386 331.22122,126.78334 331.27917,127.4875C331.3595,128.46358 331.27515,129.25629 331.29999,130.3C331.31799,131.05664 331.91803,131.77704 332.21466,132.66667C332.50067,133.52446 332.36136,134.36102 332.72534,135.29201C332.9982,135.98988 333.17166,136.95468 333.29999,137.856C333.42136,138.70851 334.155,139.23611 334.29868,140.18134C334.42792,141.03157 334.83759,141.72284 335.1785,142.56683C335.47598,143.30334 335.29825,144.30267 335.29999,145.06799C335.30225,146.06218 335.2301,146.86209 335.65717,147.714C336.00504,148.40796 336.74994,149.26659 337.01468,149.98267C337.36102,150.91951 337.20456,151.91121 337.58401,152.66667C338.01959,153.53386 338.35342,154.16624 338.79999,154.96666C339.24359,155.76173 339.2999,156.636 339.29999,157.4875C339.30008,158.44516 339.41745,159.2466 339.87466,160.06667C340.30557,160.83955 341.02637,161.34621 341.28934,162.11333C341.56088,162.90549 341.17548,163.82333 341.3045,164.7095C341.44818,165.69624 342.155,166.23482 342.29868,167.18134C342.42773,168.0316 342.29999,168.9875 342.29999,169.856C342.29999,170.8 342.29999,171.4875 342.29999,172.58133C342.29999,173.46666 342.29999,174.26666 342.29999,175.10266C342.29999,176.11934 342.29999,176.814 342.29999,177.83067C342.29999,178.76666 342.29999,179.66667 342.29999,180.56667C342.29999,181.46666 342.29999,182.26666 342.29999,183.10266C342.29999,184.12384 342.29999,184.87117 342.29999,185.86667C342.29999,186.66667 342.29999,187.6665 342.29999,188.44583C342.29999,189.44533 342.29999,190.21933 342.29999,191.11484C342.29999,192.13333 342.29999,192.96666 342.29999,193.892C342.29999,194.75067 342.03098,195.75255 342.35718,196.51933C342.70139,197.32846 342.9339,198.02351 343.31067,198.892C343.62811,199.62372 344.35355,199.93196 344.87466,200.45599C345.35284,200.93683 346.05893,201.2917 346.68933,201.91333C347.40308,202.61714 347.22217,203.50398 347.46667,204.46666C347.67197,205.27501 348.10941,205.97578 348.68933,206.83067C349.1853,207.56181 348.79221,208.07532 348.35718,208.82384C347.93268,209.55421 348.29999,210.56683 348.29999,211.35201C348.29999,212.29201 348.29999,213.3 348.29999,214.092C348.29999,214.952 348.29999,215.87117 348.29999,216.86667C348.29999,217.66667 348.29999,218.66667 348.29999,219.46666C348.29999,220.46666 348.25095,221.27451 348.38535,222.06667C348.52344,222.88063 348.93463,223.68805 349.13333,224.63333C349.29761,225.41493 349.28046,226.28352 349.46667,227.46666C349.56134,228.06801 349.81976,228.91974 350.01599,229.696C350.29202,230.78796 350.29999,231.668 350.29999,232.63333C350.29999,233.44583 350.29999,234.35683 350.29999,235.17117C350.29999,236.06667 350.29999,236.96666 350.29999,237.86667C350.29999,238.76666 350.38211,239.67044 350.29984,240.56667C350.21616,241.4781 349.65372,242.16713 349.29999,242.96666C348.94388,243.77162 348.46652,244.33217 348,245.12384C347.56964,245.85411 347.0809,246.85591 346.82083,247.44583C346.38669,248.43062 346.18585,249.24683 345.72534,250.03067C345.26944,250.80669 345.29999,251.66533 345.29999,252.552C345.29999,253.46666 345.29999,254.38266 345.29999,255.18266C345.29999,256.13068 345.29736,256.96667 345.29999,257.96667C345.30225,258.82382 345.63757,259.62268 346.13333,260.29999C346.6424,260.99548 347.1207,261.71283 347.29999,262.68817C347.45877,263.55203 347.12582,264.50507 347.38535,265.26801C347.68701,266.15475 348.53848,266.89969 348.2955,267.76218C348.07816,268.53363 346.97867,268.46667 346.12534,268.46667C345.18668,268.46667 344.36841,268.35941 343.68933,267.892C342.96042,267.39029 341.79944,267.27814 341.38535,266.55066C340.99817,265.87048 340.86273,264.92087 340.44934,264.216C340.01105,263.46866 339.44827,262.63062 339.30899,261.77567C339.16266,260.87741 338.60251,260.21814 338.29999,259.29999C338.03918,258.50854 338.44608,257.65359 338.29999,256.75201C338.15613,255.86423 337.47928,255.2205 337.29999,254.24533C337.14398,253.39688 337.19092,252.53635 336.72534,251.856C336.23367,251.13756 336.46698,250.10851 336.26401,249.31734C336.04529,248.46481 335.31042,247.946 335.29999,246.9875C335.29044,246.10954 335.38583,245.16693 335.29999,244.3C335.21625,243.4543 334.47974,242.87596 334.29999,241.96666C334.13461,241.13019 333.73837,240.73434 333.336,240.04134C332.87003,239.23877 333.29999,238.29733 333.29999,237.46666C333.29999,236.452 333.29999,235.66533 333.29999,234.76666C333.29999,233.86667 333.29999,232.90266 333.29999,232.03067C333.29999,231.17117 333.52423,230.21597 333.29965,229.36684C333.07056,228.50063 332.03918,228.4993 331.29999,228.13333C330.44098,227.70804 329.92361,227.08348 329.10034,226.48817C328.53665,226.08058 327.85629,225.27692 327.21735,224.752C326.53738,224.19337 326.29999,223.66533 326.29999,222.76666C326.29999,221.86667 326.42352,220.93265 326.01599,220.18134C325.58621,219.38899 325.30765,218.52763 324.59549,218.46666C323.66058,218.38661 322.79999,218.46666 322.01334,218.46666C321.06668,218.46666 320.11432,218.46666 319.20016,218.46666C318.29999,218.46666 317.36526,218.44408 316.79999,218.96666C316.1077,219.60666 315.36182,219.9493 314.65717,220.51933C313.92627,221.11063 313.73157,221.71912 313.13333,222.3C312.52362,222.89203 311.3389,222.45638 310.72534,223.04134C310.06345,223.67241 309.47992,224.38286 308.68933,224.46666C307.7413,224.56714 307.12393,224.93439 306.29999,225.3C305.44897,225.67763 304.5787,225.4957 303.82083,225.96666C303.06064,226.43907 302.20016,226.46666 301.27917,226.46666C300.38535,226.46666 299.79999,226.96666 299.07867,227.688C298.46667,228.3 297.69235,228.48027 297.24734,229.17117C296.76294,229.92322 295.99893,230.53835 295.58401,231.26801C295.14569,232.03879 295.29999,232.9875 295.29999,233.856C295.29999,234.8 295.29999,235.65199 295.29999,236.58C295.29999,237.46666 295.29999,238.34534 295.29999,239.17117C295.29999,240.1095 295.29999,240.9875 295.29999,241.856C295.29999,242.81934 295.29999,243.688 295.29999,244.55067C295.29999,245.46666 295.29999,246.34534 295.29999,247.17117C295.29999,248.1095 295.46228,249.0463 295.01599,249.75067C294.51563,250.54041 293.9144,251.04436 293.42151,251.688C292.88214,252.39232 292.73642,253.21722 292.25833,253.9875C291.72369,254.84889 291.03098,255.29128 290.358,255.75684C289.56143,256.30789 288.67944,256.24683 288.00534,256.52383C287.16104,256.87076 287.39142,258.06992 287.07867,258.90933C286.80283,259.64969 286.24661,260.42877 285.32535,260.46667C284.53693,260.49911 283.66071,260.85309 282.95267,261.11401C281.96304,261.4787 281.07849,261.46667 280.20001,261.46667C279.29999,261.46667 278.5,261.46426 277.54285,261.46667C276.65182,261.46893 275.99792,261.72058 275.21735,262.18268C274.39099,262.67188 273.384,262.48251 273.29999,261.82001C273.19464,260.98932 273.2999,260.11932 273.29999,259.09201C273.30008,258.14517 273.2193,257.42523 273.46667,256.46667C273.67435,255.6619 274.22568,254.92789 275.06799,254.636C275.77371,254.39145 276.98669,254.34402 277.75833,253.96666C278.52225,253.59308 279.39139,253.23297 280.05716,252.76216C280.77478,252.2547 281.452,251.83478 282.41599,251.55067C283.17007,251.32843 284.2001,251.14641 284.73065,250.66533C285.50388,249.96422 286.07544,249.41975 286.60001,248.75684C287.0694,248.16368 287.60092,247.22467 288.29999,246.46666C288.77979,245.94641 289.22833,245.15034 289.28934,244.29201C289.35608,243.35295 289.37589,242.57924 289.72534,241.63066C290.00836,240.86249 290.26321,239.86334 290.28934,239.23067C290.33823,238.0463 290.29999,237.24133 290.29999,236.41933C290.29999,235.38817 290.29999,234.70267 290.29999,233.868C290.29999,232.87117 290.47357,231.93243 290.27917,230.9875C290.10077,230.12029 289.69998,229.39104 289.29868,228.55067C288.95508,227.83118 287.99841,227.33382 287.65717,226.7095C287.20148,225.87578 287.33984,225.03583 287.01468,224.06934C286.75961,223.31126 285.76428,222.7312 285.38535,221.89867C285.08246,221.2332 285.29999,220.18134 285.29999,219.26801C285.29999,218.40533 285.29999,217.59467 285.29999,216.864C285.29999,215.87117 285.29999,214.952 285.29999,213.9875C285.29999,213.06667 285.41666,212.1235 285.07867,211.3665C284.75943,210.65152 284.27902,209.80492 284.36166,209.06216C284.47418,208.05069 284.73782,207.1355 285.59549,206.58099C286.3642,206.084 287.07126,205.80118 287.65268,205.1095C288.23837,204.41277 288.42563,203.43398 288.91068,202.86667C289.5491,202.11996 290.30023,201.4669 290.79999,200.96666C291.49899,200.267 291.78903,199.53581 292.35266,198.82384C292.92075,198.10623 293.68323,197.59479 294.10001,196.94934C294.5766,196.21129 294.94824,195.29858 295.3045,194.51933C295.66818,193.72383 296.14383,193.00261 296.58533,192.26666C296.99243,191.58806 297.81509,190.98138 298.39984,190.36667C298.95758,189.78035 299.29242,188.82382 299.29999,187.94583C299.30759,187.06664 299.75583,186.36067 300.13333,185.46666C300.46393,184.68376 300.98642,184.02542 301.24283,183.16667C301.50046,182.30383 301.35785,181.41467 301.91068,180.856C302.60086,180.15851 303.13409,179.51218 303.5,178.69733C303.83145,177.95917 304.10001,177.14934 304.49866,176.15466L304.77917,175.52916L305.26401,174.528" id="svg_7" stroke-width="3" stroke="#000" fill="none"/>
  <path t="66619,66735,66765,66798,66815,66832,66855,66882,66915,66933,66966,66982,66998,66999,67015,67032,67048,67082,67098,67132,67148,67165,67182,67203,67204,67215,67231,67248,67264,67298,67314,67351,67365,67398,67499,67532,67599,67632,67647,67732,67765,67782,67782,67797,67847,67902,67932,67947,67997,68032,68065,68081,68115,68131,68147,68182,68198,68232,68247,68282,68315,68348,68364,68383,68399,68416,68432,68484,68548,68565,68582,68598,68615,68649,68671,68687,68703,68733,68748,68765,68783,68799,68815,68832,68832,68833,68848,68866,68899,68915,68948,68966,68983,68999,69015,69032,69065,69082,69098,69099,69133,69199,69223,69233,69248,69265,69282,69349,69383,69416,69449,69483,69535,69565,69583,69599,69632,69633,69648,69683,69698,69767,69807,69839,70498,70574,70602,70667,70748,70783,70839,70865,70866,70933,70976,70998,71015,71082,71098,71115,71149,71167,71199,71217,71233,71255,71304,71367,71382,71415,71431,71432,71447,71487,71511,71535,71551,71565,71598,71615,71633,71648,71665,71732,71747,71766,71799,71816,71833,71849,71866,71899,71916,71934,71953,71953,71966,71983,72016,72033,72049,72066,72099,72133,72184,72200,72233,72266,72283,72316,72333,72366,72399,72480,72504,72516,72566,72616,72648,72649,72683,72749,73024,73067,73082,73167,73216,73242,73266,73283,73299,73299,73316,73539,73556,73582,73582,73599,73775,73775,73824,73849,73900,74032,74081,74098,74131,74215,74249,74316,74350,74382,74399,74432,74449,74449,74466,74466,74482,74482,74499,74516,74568,74608,74632,74656,74704,74720,74752,74792,74816,74832,74866,74916,74932,74982,75016,75049,75066,75116,75132,75149,75166,75199,75216,75250,75316,75332,75498,75531,75548,75581,75631,75715,75925,75965,76000,76829,76871,76898,77015,77015,77035,77071,77098,77148,77181,77198,77265,77281,77298,77335,77352,77383,77415,77448,77465,77498,77515,77531,77709,77726,77766,77849,77866,77900,77932,77982,78016,78034,78057,78082,78116,78133,78166,78183,78216,78248,78282,78335,78416,78448,78481,78504,78551,78552,78598,78697,78893,78943,79048" d="M281.29999,99.46667C281.29999,100.34517 280.96704,100.91764 280.46667,101.63333C279.96548,102.3502 280.18539,103.25 279.72534,104.03067C279.27042,104.80265 279.07593,105.68528 278.46667,106.3C277.87198,106.90002 277.53625,107.73373 277.07849,108.56667C276.70752,109.24169 275.79224,109.64881 275.42151,110.5665C275.09067,111.38543 274.82809,111.84347 274.3045,112.52383C273.72949,113.27103 273.88239,114.02111 273.42151,114.68816C272.91739,115.41783 273.08832,116.43841 272.72534,117.06667C272.23676,117.91233 271.52515,118.40325 271.3045,119.17117C271.04538,120.07302 270.6539,120.63551 270.3045,121.51933C269.97559,122.35139 269.5195,122.96025 269.29999,123.81934C269.08493,124.66096 269.29999,125.55067 269.29999,126.46667C269.29999,127.38267 269.29999,128.18266 269.29999,129.114C269.29999,130.00833 269.29999,130.95067 269.29999,131.64133C269.29999,132.705 269.29999,133.55067 269.29999,134.47734C269.29999,135.38266 269.29999,136.18266 269.29999,137.114C269.29999,137.96666 269.29999,138.90266 269.29999,139.76216C269.29999,140.68817 269.29999,141.5665 269.29999,142.46666C269.29999,143.38266 269.29999,144.18266 269.29999,145.07733C269.29999,145.94583 269.29999,146.892 269.29999,147.81934C269.29999,148.68817 269.29999,149.5665 269.29999,150.46666C269.29999,151.26801 269.48605,152.19376 269.26401,153.06667C269.04703,153.91963 268.58899,154.69278 268.27917,155.46666C267.97278,156.23201 267.31799,156.86612 267.29999,157.76216C267.28009,158.7518 267.63135,159.64175 267.26401,160.492C266.91812,161.2926 266.53302,161.93613 266.2955,162.76216C266.07471,163.53003 265.31042,163.98732 265.29999,164.86667C265.28922,165.7756 265.29999,166.8 265.29999,167.472C265.29999,168.216 265.59534,169.36925 265.29999,170.3C265.07687,171.00308 264.51691,171.6861 264.29999,172.63333C264.12112,173.41446 263.31799,173.9021 263.29999,174.76666C263.28128,175.66513 263.30008,176.55067 263.29999,177.46666C263.2999,178.3455 262.91147,179.1554 262.65268,179.76134C262.23999,180.72766 261.63379,181.27541 261.32083,181.9875C260.96686,182.79288 261.0195,183.87007 260.29999,184.3C259.52954,184.76036 259.26575,185.49371 258.68933,186.07733C258.00653,186.76869 257.3837,187.45491 257.29999,188.3455C257.22266,189.16837 257.29999,190.13333 257.29999,190.9875C257.29999,191.856 257.29999,192.8 257.29999,193.616C257.29999,194.51483 257.29999,195.46666 257.29999,196.34517C257.29999,197.18266 257.47958,198.06256 257.27917,198.9875C257.10074,199.81114 256.25452,200.56862 256.91068,201.04134C257.62479,201.55579 258.59549,201.46666 259.52133,201.46666C260.46667,201.46666 261.2514,201.22702 261.94284,200.81934C262.68219,200.38341 263.04218,200.0721 263.3045,199.17117C263.52533,198.41273 264.28781,198.10088 264.79999,197.46666C265.2742,196.87946 265.83585,196.24889 266.28934,195.44133C266.72232,194.67029 267.25726,194.18431 267.29999,193.26801C267.34122,192.38362 267.39468,191.55759 267.87466,190.856C268.36896,190.1335 268.98508,189.53426 269.24283,188.75684C269.49756,187.98854 269.19885,186.86554 269.58401,186.18134C270.02618,185.39584 270.75027,184.92171 271.21466,184.18134C271.70206,183.40424 271.14124,182.37349 271.38535,181.66533C271.69058,180.77982 272.07651,179.95288 272.65717,179.17117C273.15695,178.49834 274.29956,178.90005 275.01599,178.46666C275.60587,178.1098 275.73291,177.08443 276.384,176.38266C276.95401,175.7683 277.09958,174.7821 277.65717,174.114C278.2403,173.41528 279.06528,173.19322 279.46667,172.46666C279.89352,171.69398 280.91425,171.38478 281.2955,170.47116C281.62485,169.68195 281.29999,168.7095 281.29999,167.856C281.29999,166.9875 281.29999,166.04134 281.29999,165.18266C281.29999,164.24533 281.29999,163.38266 281.29999,162.47734C281.29999,161.66533 281.29999,160.752 281.29999,159.856C281.29999,158.9875 281.2999,158.04134 281.29999,157.18266C281.30008,156.24533 281.91055,155.73219 282.26401,155.04134C282.68875,154.21115 282.11121,153.19743 282.52133,152.36684C282.8707,151.65927 282.97592,150.8334 283.29999,149.96666C283.52704,149.35936 284.43613,149.83876 284.94733,150.51933C285.46179,151.20427 285.36646,152.09856 286.10132,152.55067C286.78815,152.97325 287.17545,153.91251 287.58401,154.66667C287.93619,155.31673 288.66971,155.89493 289.1785,156.68817C289.65723,157.43456 289.52847,158.32448 290.18668,158.55067C291.12527,158.87323 291.9306,159.48448 292.29733,160.18134C292.68796,160.92358 293.24695,161.66281 293.29999,162.55067C293.35339,163.44447 294.23907,163.68138 294.29999,164.51933C294.36484,165.41165 294.29999,166.3 294.29999,167.114C294.29999,168.04134 294.57764,169.01468 294.2955,169.81934C294.03122,170.57312 292.90097,170.6768 292.46667,171.46666C292.07828,172.173 291.71378,172.93573 291.15067,173.64133C290.52206,174.42902 290.25031,175.16132 289.79999,175.96666C289.35565,176.76132 289.45117,177.78354 288.94733,178.414C288.45874,179.02538 288.46283,179.96249 288.01599,180.468C287.48526,181.06842 287.3428,181.82039 287.29999,182.688C287.25726,183.55383 286.63165,184.10464 286.28934,184.90266C285.92468,185.75279 285.34848,186.43127 285.29999,187.3C285.25452,188.11473 284.46664,188.63333 284.29999,189.46666C284.1333,190.3 283.34271,190.74901 283.29999,191.66533C283.26022,192.5184 283.29999,193.46666 283.29999,194.3C283.29999,195.114 283.03287,196.15665 282.216,196.46533C281.3591,196.78915 280.85104,197.01195 280.38535,197.75067C279.91245,198.50084 280.29999,199.51933 280.29999,200.4095C280.29999,201.3 280.76773,202.2619 280.26401,203.04134C279.85168,203.67935 279.52319,202.6002 280.35266,202.46666C281.30231,202.31377 281.94156,201.97226 282.77917,201.4875C283.33707,201.16464 283.94589,200.61026 284.29999,200.04134C284.73657,199.33989 285.1785,198.58815 285.79999,197.96666C286.384,197.38266 287.11023,196.92729 287.79999,196.44583C288.48505,195.96767 289.13348,195.48245 289.94733,195.46666C290.87518,195.44865 291.2547,194.6245 291.91068,194.46666C292.83823,194.24348 293.55417,194.09784 294.13333,193.46666C294.64651,192.90739 295.25726,192.46992 295.29999,191.63333C295.34149,190.82039 295.29999,189.892 295.29999,189.04134C295.29999,188.114 295.03403,187.17516 295.38535,186.38266C295.72464,185.61734 296.15936,184.82858 296.65268,184.114C297.14816,183.3963 297.45044,182.44566 298.29999,182.46666C299.20569,182.48904 299.5726,183.80243 300.1785,183.24533C300.7897,182.68336 301.2142,182.37718 301.29999,181.492C301.38437,180.62138 302.09058,180.12254 302.52133,179.36684C302.91211,178.68127 303.29999,177.892 303.29999,177.04134L303.3045,176.114L303.79999,175.4875L304.65268,175.46666" id="svg_8" stroke-width="3" stroke="#000" fill="none"/>
  <path t="86499,86664,86700,86715,86715,86733,86779,86832,86866,86882,86882,86899,86915,86932,86949,86949,86998,87032,87065,87104,87114,87149,87164,87200,87214,87231,87288,87328,87348,87399,87417,87449,87464,87482,87498,87532,87548,87548,87582,87598,87614,87631,87648,87648,87664,87681,87698,87714,87714,87731,87748,87764,87781,87814,87831,87831,87848,87848,87881,87898,87914,87935,87951,87998,88031,88048,88064,88081,88081,88119,88275,88275,88275" d="M330.29999,132.46666C329.72534,133.07733 329.43753,133.96457 328.85733,134.56667C328.25665,135.19002 327.85764,135.9857 327.13333,136.46666C326.418,136.94165 325.54974,136.74861 325.13333,137.46666C324.71286,138.19173 323.76791,138.4014 323,138.81934C322.15906,139.27702 321.3486,139.70633 320.65717,140.114C319.91782,140.54993 319.40625,140.82542 319.29999,141.75067C319.21613,142.481 318.5238,142.84674 318.29984,143.688C318.09326,144.46397 317.47003,144.76822 317.29868,145.66533C317.15427,146.42145 316.47055,146.70352 316.29999,147.63333C316.15561,148.4203 315.41678,148.69595 315.29999,149.55067C315.18829,150.36798 314.48938,150.89244 314.01599,151.66533C313.54431,152.43546 312.86401,152.90266 312.20016,153.5665C311.58533,154.18134 311.45886,155.09363 310.94284,155.76216C310.36584,156.50966 309.36087,156.68251 309.29999,157.63333C309.24808,158.44417 309.29999,159.35683 309.29999,160.17117C309.29999,161.10266 309.40826,161.96483 309.24283,162.814C309.06332,163.7354 308.27682,164.34955 307.79999,164.9875C307.26346,165.70535 307.44589,166.71605 307.07867,167.56683C306.76837,168.28574 306.59793,169.17108 306.30133,169.89734C306.00854,170.61423 305.64374,171.15692 305.27917,171.94583C304.92288,172.71684 303.93207,172.89685 303.42151,173.688C302.95557,174.41 303.6691,175.51787 303.01468,176.29733C302.43381,176.98918 301.58533,177.18266 300.94733,177.81934L300.32083,178.44583L300.84167,177.8625L301.18668,177.32401" id="svg_9" stroke-width="3" stroke="#000" fill="none"/>
  <path t="89336,89531,89548,89581,89598,89631,89631,89648,89664,89664,89857,89873,89889,89899,89914,89914,89931,89931,89948,89964" d="M331.29999,136.46666C331.29999,137.34534 331.24112,138.27692 330.384,138.46666C329.59848,138.64055 329.62515,139.63908 329.12933,140.18134C328.5242,140.84314 327.27454,140.62263 326.66165,141.114C325.95416,141.68118 325.31772,142.26933 324.59549,142.52383C323.72705,142.82985 323.16766,143.76918 322.54285,144.1095C321.71347,144.56123 320.784,144.46533 319.82083,144.4875L319.00449,144.81934" id="svg_10" stroke-width="3" stroke="#000" fill="none"/>
  <path t="92711,92829,92852,92866,92883,92899,92921,92949,92966,92966,92982,92982,92983,93015,93065,93098,93132,93165,93182,93198,93215,93240,93264,93298,93336,93349,93382,93382,93398,93432,93432,93465,93498,93532,93548,93565,93592,93727,93768,93798,93832,94023,94083" d="M282.29999,99.46667C283.216,99.75066 283.668,100.31595 284.60001,100.47117C285.41745,100.60731 286.11896,101.38744 286.87466,101.46667C287.74197,101.55759 288.64539,101.29279 289.32083,100.925C290.34103,100.3695 290.88046,99.80051 291.46399,99.328C292.25861,98.68454 293.1785,98.46667 294.01599,98.46667C294.87466,98.46667 295.85361,98.51413 296.60001,98.114C297.44363,97.66174 298.19601,97.39562 298.82083,96.96667C299.63263,96.40936 300.58401,96.46667 301.46667,96.46667C302.35266,96.46667 303.29999,96.46667 304.10001,96.46667C304.94284,96.46667 305.86801,96.46667 306.73199,96.46667C307.65268,96.46667 308.58401,96.46667 309.46667,96.46667C310.39999,96.46667 311.29999,96.46667 312.13333,96.46667C312.94733,96.46667 313.87466,96.46667 314.79999,96.46667L315.65717,96.46667L316.59549,96.46667L317.46667,96.46667" id="svg_11" stroke-width="3" stroke="#000" fill="none"/>
  <path t="100968,101116,101166,101182,101199,101199,101216,101232,101249,101299,101316,101332,101352,101367,101383,101397,101430,101448,101464,101480,101515,101530,101547,101564,101580,101598,101614,101615,101632,101680,101728,101747,101764,101816" d="M291.29999,105.46667C292.00449,104.76217 292.60446,103.89861 293.39999,103.58817C294.246,103.25802 295.10019,103.48466 296,103.46667C296.90054,103.44866 297.61035,102.84856 298.5,102.552C299.35748,102.26617 300.24734,102.46667 301.10132,102.46667C302,102.46667 302.89999,102.46667 303.79999,102.46667C304.70001,102.46667 305.60001,102.46667 306.49866,102.46667C307.35266,102.46667 308.29999,102.46667 309.13333,102.46667C310.00449,102.46667 310.91919,102.63188 311.79999,102.44583C312.6474,102.26684 313.43634,101.68552 314.10001,101.38267C314.92606,101.00571 315.65268,100.46667 316.52133,100.46667L317.384,100.38133L317.94733,99.81934L318.79999,99.46667" id="svg_12" stroke-width="3" stroke="#000" fill="none"/>
  <path t="106193,106367,106380,106414,106447,106480,106497,106547,106564,106614,106630,106697,106730,106764,106780,106814,106830,106847,106863,106880,106880,106978,107011,107047,107065,107080,107097,107113,107163,107230,107263,107311,107335,107352,107367,107399,107413,107448,107463,107463,107480,107497,107497,107513,107513,107530,107548,107563,107580,107597,107597,107630,107760,107807,107848,107897,108012,108048,108048,108065,108350" d="M280.29999,104.46667C281.1785,104.46684 281.45087,104.98627 281.94733,105.52383C282.55377,106.18049 282.29999,107.17117 282.29999,108.03067C282.29999,108.9875 282.29999,109.856 282.29999,110.752C282.29999,111.66534 282.29999,112.552 282.29999,113.44133C282.29999,114.34534 282.31046,115.18273 282.29999,116.07733C282.28958,116.96685 281.75681,117.66998 281.42151,118.56667C281.10342,119.4173 281.29999,120.26667 281.29999,121.16666C281.29999,122.03067 281.16122,122.97846 281.65268,123.76217C282.14194,124.54239 283.00568,124.90581 283.26401,125.856C283.4989,126.72002 283.29999,127.63333 283.29999,128.52383C283.29999,129.46666 283.1055,130.33519 283.35718,131.17117C283.61441,132.02557 284.29791,132.688 284.29999,133.51933C284.30225,134.41852 284.71054,135.15288 285.01599,135.98399C285.32385,136.82172 285.2084,137.79683 285.336,138.64133C285.48123,139.60258 285.91449,140.17661 286.32535,141.06667C286.6962,141.8701 287.29773,142.57649 287.29999,143.328C287.30289,144.3 287.44528,144.98978 287.94733,145.52383C288.53125,146.14499 288.29999,147.18266 288.29999,148.04134C288.29999,148.96666 288.29999,149.81934 288.29999,150.8L288.29999,151.616L288.29999,152.51483L288.28934,153.43066" id="svg_14" stroke-width="3" stroke="#000" fill="none"/>
  <path t="109287,109397,109431,109448,109471,109480,109514,109549,109563,109598,109613,109631,109648,109664,109664,109680,109697,109713,109730,109747,109763,109847,109881,109936,109997,110032,110064,110097,110128,110160,110198,110298,110348,110382,110431,110456,110519,110580,110624,110681,110698,110748,110764,110781,110831,110831,110888,110905,110920,110944,110976,111013,111047,111063,111113,111175,111215,111263,111345,111414,111447,111464,111497,111513,111642,111675,111780,111830,111847,111895" d="M291.29999,102.46667C291.29999,103.46667 291.29999,104.384 291.29999,105.172C291.29999,106.13333 291.29999,106.96667 291.29999,107.892C291.29999,108.82384 291.29999,109.66534 291.29999,110.63333C291.29999,111.46667 291.29999,112.268 291.29999,113.22383C291.29999,114.11933 291.29999,114.814 291.29999,115.83067C291.29999,116.76667 291.29999,117.66666 291.29999,118.56667C291.29999,119.46667 291.29999,120.38133 291.29999,121.18267C291.29999,122.114 291.29999,122.96667 291.29999,123.892C291.29999,124.81934 291.29999,125.688 291.29999,126.63333C291.29999,127.46667 291.29999,128.38133 291.29999,129.18266C291.29999,130.114 291.29999,130.96666 291.29999,131.892C291.29999,132.82384 291.29999,133.66533 291.29999,134.63333C291.29999,135.46666 291.29999,136.38133 291.29999,137.17117C291.29999,138.1095 291.25253,139.02028 291.65268,139.76666C292.10507,140.61047 292.5076,141.44078 292.87466,142.06667C293.32715,142.8382 293.58051,143.87009 294.29999,144.3C295.07047,144.76039 295.29999,145.492 295.29999,146.4095C295.29999,147.17117 295.29999,148.1095 295.29999,149.04134C295.29999,149.892 295.31216,150.83244 294.79999,151.46666C294.32578,152.05386 293.75418,152.49397 293.27917,152.96666C292.75531,153.48795 292.39572,154.0486 291.94733,154.76216C291.43204,155.58221 291.29999,156.38133 290.79999,156.9875L290.34668,157.856L290.79999,158.44583L291.65717,158.46666" id="svg_15" stroke-width="3" stroke="#000" fill="none"/>
  <path t="116475,116808,116865,117047,117165,117199,117213,117255,117475,118093" d="M286.29999,44.46667C286.31067,45.47733 287.08124,45.96049 287.29999,46.82383C287.50668,47.63956 286.87466,48.42 286.32083,47.96667L286.29999,47.04133L286.3045,46.114L286.72534,45.50267" id="svg_16" stroke-width="3" stroke="#000" fill="none"/>
  <path t="129972,130157,130157,130183,130184,130200,130201,130213,130213,130229,130271,130287,130313,130346,130363,130379,130396,130429,130429,130463,130479,130479,130519,130583,130596,130629,130663,130679,130696,130728,130767,130807,130830,130863,130888,130912,130963,130979,131078,131111,131247,131263,131279,131296,131296,131335,131661,131695,131713,131827,131871,131887,131903,132056,132080,132130,132180,132198,132213,132247,132263,132296,132363,132413,132432,132448,132488,132504,132529,132580,132608,132630,132663,132680,132697,132697,132713,132730,132747,132785,132830,132863,132904,132963,132997,133047,133072,133104,133120,133131,133147,133197,133232,133374,133413" d="M325.29999,224.46666C324.29999,224.46666 323.52441,224.47334 322.64282,224.82384C321.87704,225.1283 321.11343,225.59506 320.32083,225.94583C319.33667,226.38138 318.54193,226.42422 317.82083,226.96666C316.99374,227.58882 316.39233,228.28712 316.29999,229.04134C316.1875,229.96004 315.52515,230.40326 315.3045,231.17117C315.04538,232.07303 315.40167,233.04181 315.29999,233.76134C315.15591,234.78085 314.11597,235.01031 313.58533,235.55067C312.94824,236.19942 313.71539,237.44876 313.24283,238.114C312.72519,238.84268 312.24185,239.17064 311.79999,239.96666C311.3562,240.76613 311.30215,241.66533 311.29999,242.52383C311.29773,243.41402 310.75995,244.06148 310.2955,244.81934C309.90311,245.45966 309.67401,246.12921 309.27917,246.96666C308.96399,247.63512 308.28503,248.07365 307.65268,248.46217C306.88739,248.93237 306.03906,249.28053 305.38266,249.75067C304.64597,250.27831 304.00534,250.46368 303.01468,250.46666C302.10132,250.46941 301.56549,251.07715 300.87466,251.43066C300.04852,251.85344 299.29257,251.84529 298.46667,252.3C297.80106,252.66647 296.5751,252.57532 296.31067,251.856C296.00378,251.02121 296.05408,250.03094 296.3045,249.17117C296.52542,248.41275 297.72903,248.623 298.49866,248.18266C299.28262,247.73412 299.37775,246.91479 299.87466,246.43066C300.46329,245.85718 300.75757,244.92305 301.52133,244.46651C302.21408,244.05243 302.87927,243.64197 303.58401,243.18266C304.332,242.69518 304.84973,242.25139 305.46667,241.63333C306.08539,241.0135 306.44104,240.28902 306.79999,239.4875C307.15359,238.69788 307.4386,238.00592 308.01599,237.38266C308.65588,236.69193 309.29932,236.38133 309.29999,235.492C309.30066,234.58817 309.29999,233.75067 309.29999,232.892C309.29999,231.94583 309.33792,231.09755 309.79999,230.44583C310.27151,229.78076 310.36475,228.8925 310.87466,228.46666C311.37851,228.0459 311.31067,227.04134 311.79999,226.46666L312.2955,225.81934" id="svg_17" stroke-width="3" stroke="#000" fill="none"/>
  <path t="135182,135552,135788,135846,136046,136465" d="M312.29999,222.46666C311.38535,222.75067 311.29999,223.63333 311.29999,224.492L311.29999,225.414L311.29999,226.3" id="svg_18" stroke-width="3" stroke="#000" fill="none"/>
  <path t="190891,191085,191085,191085,191169,191169,191169,191169,191170,191170,191170,191170,191170,191193,191193,191193,191193,191193,191193,191193,191193,191194,191227,191227,191227,191227,191227,191227,191228,191228,191228,191243,191243,191243,191243,191243,191243,191243,191243,191244,191260,191260,191260,191260,191260,191260,191260,191261,191277,191277,191277,191294,191327,191343,191343,191360,191360,191360,191360,191360,191360,191361,191377,191377,191377,191377,191377,191378,191378,191378,191378,191393,191393,191393,191393,191394,191394,191394,191394,191394,191410,191410,191410,191410,191411,191411,191411,191411,191411,191427,191427,191427,191428,191428,191428,191428,191428,191428,191443,191443,191443,191444,191444,191444,191444,191444,191444,191460,191460,191460,191461,191461,191461,191461,191461,191462,191477,191477,191478,191478,191478,191478,191493,191493,191493,191494,191510,191511,191511,191528,191528,191528,191544,191544,191544,191544,191560,191560,191561,191577,191577,191593,191596,191596,191627,191627,191627,191627,191643,191643,191644,191644,191644,191660,191660,191660,191660,191677,191677,191693,191693,191693,191693,191710,191727,191727,191743,191743,191744,191760,191760,191760,191760,191761,191777,191777,191777,191778,191778,191793,191793,191793,191793,191810,191810,191810,191827,191827,191827,191828,191828,191843,191843,191843,191843,191844,191844,191860,191860,191860,191861,191877,191877,191877,191878,191893,191893,191893,191894,191910,191910,191929,191929,191943,191944,191944,191944,191965,191965,191982,191983,191995,191995,191995,192024,192024,192024,192025,192025,192025,192043,192043,192043,192044,192044,192044,192063,192064,192064,192064,192080,192096,192112,192129,192129,192143,192144,192144,192144,192145,192145,192160,192160,192161,192161,192161,192162,192162,192177,192177,192178,192178,192178,192178,192179,192179,192179,192210,192210,192211,192211,192211,192211,192212,192227,192228,192228,192228,192228,192228,192242,192243,192243,192260,192277,192293,192293,192310,192310,192328,192328,192343,192343,192410,192428,192428,192443,192461,192461,192478,192478,192493,192510,192510,192577,192612,192627,192660,192660,192660,192678,192678,192679,192679,192693,192693,192693,192694,192710,192710,192979,192979,192995,193012,193028,193028,193044,193045,193061,193078,193078" d="M0.23296,148.85417C2.63829,151.25816 3.31093,151.92247 3.86162,152.42567C4.88973,153.36511 5.31743,153.7224 5.78496,154.11284C6.29453,154.53839 6.85765,154.98962 7.48296,155.45833C8.15868,155.96483 8.89974,156.49492 9.72096,157.02884C11.54773,158.21654 12.5998,158.80272 13.70229,159.41949C14.84171,160.05695 16.01332,160.68533 17.19129,161.3125C18.35733,161.93332 19.49977,162.52986 20.59029,163.11549C22.57083,164.17909 23.42175,164.66246 24.18229,165.11417C24.87347,165.52469 25.49696,165.91675 26.06629,166.29167C26.60083,166.64369 27.10287,166.99249 27.59029,167.33417C28.56746,168.01915 29.0742,168.37726 29.60096,168.7355C30.13685,169.09996 30.68134,169.46173 31.23296,169.8125C31.78004,170.16039 32.32232,170.49646 32.86496,170.7995C33.88992,171.3719 34.3867,171.59637 34.85962,171.79817C35.30695,171.98906 35.73832,172.14989 36.14962,172.29167C36.53842,172.42569 37.26992,172.6203 38.18962,172.95416C38.94891,173.2298 39.69073,173.63416 40.22396,174.49699C40.69719,175.26276 41.45064,175.73941 42.16162,176.02116C42.91433,176.31944 43.58835,176.71091 44.46229,177.2155C44.98501,177.5173 45.56425,177.86513 46.20829,178.25349C46.92165,178.68367 48.56645,179.68723 49.50446,180.26134C50.5118,180.87788 51.57678,181.53102 52.68896,182.21283C53.83711,182.91669 55.0101,183.6358 56.19746,184.36234C57.38744,185.09047 59.73264,186.52135 60.86812,187.211C61.97399,187.88268 63.05239,188.53545 64.10362,189.17151C65.12873,189.79178 66.12916,190.39648 67.10513,190.98801C68.05849,191.56583 69.89982,192.68718 70.78946,193.23216C71.65848,193.76451 72.50436,194.28476 73.32896,194.78616C74.12805,195.27205 74.9018,195.7386 75.65246,196.17816C76.37255,196.59982 77.73021,197.35944 78.36845,197.68967C78.97439,198.00319 79.55956,198.28677 80.12495,198.54617C80.66866,198.79562 81.20001,199.02443 81.71946,199.24066C82.22804,199.45238 83.23293,199.85425 83.73262,200.054C84.23026,200.25291 84.72381,200.45003 85.21162,200.64351C85.69115,200.83369 86.16069,201.01886 86.61862,201.19701C87.06203,201.36951 87.89916,201.68874 88.29012,201.83267C88.66319,201.97002 89.02261,202.09848 89.37162,202.21817C89.71163,202.33478 90.04714,202.44501 90.38112,202.54967C90.71515,202.65434 91.39918,202.85576 91.75446,202.95399C92.11784,203.05447 92.86614,203.25648 93.64362,203.41817C94.43166,203.58205 95.63165,203.74605 96.42396,203.797C97.19057,203.8463 97.91866,203.84346 99.19012,203.85434C99.97166,203.86102 100.68952,203.8676 101.65446,204.07567C102.4778,204.2532 103.33791,204.55731 104.23296,204.85417C105.13341,205.15282 105.73297,205.35413 106.63296,205.65417C107.53264,205.95412 108.42332,206.2244 109.21862,206.55417C110.10454,206.92151 110.85517,207.50873 111.77596,207.95416C112.4856,208.29745 113.05295,208.45815 114.23296,208.85417C114.83495,209.0562 115.77197,209.3633 116.44729,209.55417C117.56213,209.86928 118.39951,210.05965 119.28362,210.2435C119.73225,210.33679 120.62389,210.5239 121.89962,210.6875C122.65907,210.7849 123.67031,210.84132 124.54495,210.85283C125.54888,210.86603 126.26445,210.79056 127.39962,211.1875C127.93356,211.37421 128.68446,211.8652 129.3783,212.28616C130.32472,212.86037 131.11562,212.85417 131.92096,212.85417C132.92096,212.85417 133.79546,212.85417 134.45178,212.85417C135.56628,212.85417 136.40228,212.85417 137.2943,212.85417C138.21829,212.85417 138.68478,212.85313 140.06628,212.85417C140.94762,212.85484 141.79742,212.85239 142.62228,212.89017C143.43228,212.92728 144.63553,213.05974 145.42395,213.21133C146.19443,213.35948 146.9279,213.52946 147.89963,213.85417C148.73634,214.13376 149.48552,214.48633 150.56628,215.02083C151.20609,215.33723 151.91359,215.69438 152.69029,216.06483C153.51881,216.46001 154.39755,216.85898 155.31563,217.25284C155.78009,217.4521 156.71069,217.83693 157.62312,218.19701C158.06294,218.37057 159.28751,218.84 160.02312,219.097C161.04411,219.4537 161.71411,219.65807 162.75429,219.95433C163.48459,220.16234 164.23965,220.3548 164.98029,220.61133C166.077,220.9912 166.7484,221.33286 167.69128,221.83333C168.2726,222.14188 169.29692,222.68988 170.19128,222.8125C171.05916,222.93149 171.93478,222.86592 172.99695,223.0755C173.5938,223.19327 174.55492,223.4382 175.18095,223.57018C176.36235,223.81923 177.12566,223.90842 178.07962,224.29016C178.70265,224.53947 179.65451,224.95462 180.47963,225.26483C181.07954,225.49039 182.40308,226.01318 183.12096,226.34216C183.50099,226.51631 184.30003,226.90819 185.15179,227.373C185.60744,227.62166 187.0764,228.49489 187.59828,228.82083C188.13043,229.15318 188.66277,229.49342 189.7103,230.1675C190.21352,230.49132 191.56352,231.3587 191.94679,231.58951C192.87175,232.14651 193.52234,232.62561 194.59695,232.81816C195.42061,232.96574 196.33321,232.83342 197.23296,232.85417C198.01358,232.87218 199.06728,233.01443 199.85962,233.14084C200.81422,233.29314 201.338,233.39137 201.88629,233.50084C203.04153,233.73148 204.23416,234.01622 204.83328,234.17551C206.04448,234.49753 206.65392,234.68079 207.27463,234.85417C207.90459,235.03014 208.53925,235.23625 210.56628,235.6875C211.27303,235.84483 212.00027,235.97287 212.7383,236.097C213.48296,236.22224 214.23271,236.33501 214.98228,236.4435C215.72737,236.55133 216.46542,236.64949 217.89963,236.85417C218.59018,236.95273 219.91913,237.1557 220.56096,237.26483C221.19179,237.37209 221.81522,237.47314 223.03029,237.7395C224.23677,238.00397 224.83443,238.16716 226.01045,238.50233C226.58076,238.66487 227.1281,238.83557 228.14713,239.14433C229.39879,239.52359 230.28548,239.62802 231.02629,239.93683C231.89842,240.30037 232.64308,240.83617 233.55446,240.85417C234.25365,240.86798 235.23717,240.78192 236.21213,240.875C237.07472,240.95735 237.81947,241.5508 238.71562,241.76883C239.50415,241.96068 240.51027,241.6962 241.33296,242.0755C242.00119,242.38359 242.80891,242.78389 243.55412,243.297C244.27548,243.79369 244.72723,244.80029 245.24762,245.4075C245.74727,245.99049 246.94553,245.61826 247.66362,245.9395C248.4258,246.28046 249.05244,246.90956 249.75378,247.375C250.57747,247.92163 251.29356,248.37869 252.00496,248.7395C252.87352,249.18002 253.54091,249.5107 254.25378,249.85417C254.98289,250.20547 256.06293,250.69574 256.74628,250.96884C257.6868,251.34473 258.27878,251.53091 259.31128,251.95399C260.198,252.31734 261.09052,252.60945 261.8223,252.8795C262.67038,253.19247 263.43353,253.76283 264.33313,253.85434C265.11884,253.93427 266.05829,254.29016 266.74896,254.6555L267.4758,255.14967L268.33295,255.73267L269.03296,255.85283" id="svg_19" stroke-width="3" stroke="#000" fill="none"/>
  <path t="193988,194062,194080,194080,194095,194095,194111,194111,194111,194127,194128,194128,194128,194128,194143,194144,194144,194144,194144,194144,194144,194144,194177,194177,194178,194178,194178,194178,194178,194210,194211,194211,194211,194211,194211,194211,194243,194244,194244,194244,194244,194277,194278,194278,194311,194311,194311,194311,194311,194344,194344,194344,194344,194344,194344,194377,194378,194378,194378,194378,194410,194411,194411,194411,194411,194411,194443,194444,194444,194444,194444,194477,194478,194478,194478,194478,194478,194478,194478,194500,194500,194501,194501,194501,194501,194544,194544,194544,194544,194544,194544,194544,194544,194577,194578,194578,194578,194578,194578,194578,194578,194578,194611,194611,194611,194611,194611,194611,194611,194611,194611,194643,194644,194644,194644,194644,194644,194644,194644,194644,194669,194669,194669,194669,194669,194670,194670,194670,194670,194711,194711,194711,194711,194711,194711,194711,194711,194711,194737,194738,194738,194738,194738,194738,194738,194738,194739,194777,194778,194778,194778,194778,194778,194778,194778,194778,194810,194811,194811,194811,194811,194811,194811,194811,194811,194846,194846,194846,194846,194847,194847,194847,194847,194847,194881,194881,194882,194882,194882,194916,194916,194916,194916,194917,194960,194961,194961,194961,194961,194996,194996,194996,194996,194996,194997,194997,194997,195025,195025,195025,195025,195026,195026,195026,195055,195056,195056,195056,195056,195100,195100,195100,195143,195144,195144,195144,195173,195173,195174,195174,195174,195175,195175,195205,195206,195206,195450,195450,195450,195493,195523,195523,195567,195567,195568,195568" d="M299.23294,255.85417C300.3428,257.55417 300.97757,258.11298 301.58478,258.61133C302.40002,259.2804 302.78983,260.09167 303.39963,260.6875C304.02728,261.30078 304.75467,261.6012 305.87628,262.17633C306.55804,262.52591 306.93903,262.71207 307.72629,263.20883C308.62137,263.77362 309.57095,264.51523 310.07562,264.93967C310.60593,265.38565 311.14032,265.86707 311.68362,266.36618C312.23505,266.87274 312.77728,267.3942 313.86496,268.4035C314.89493,269.35925 315.38431,269.79694 315.8663,270.19818C316.78152,270.96011 317.24713,271.30124 317.71964,271.62216C318.67325,272.26981 319.72949,272.86072 320.29663,273.15399C321.47498,273.76337 322.08759,274.04358 322.69128,274.33334C323.28491,274.61826 323.88699,274.84763 325.39963,275.6875C326.2215,276.14383 326.87396,276.60541 327.37961,277.0795C327.84665,277.51743 328.6279,278.54425 329.05429,279.0795C329.49701,279.63525 330.55008,280.70984 331.20496,281.16751C331.54382,281.40433 332.28125,281.84412 333.09912,282.1925C334.37933,282.73782 334.85162,282.84225 335.78561,283.1015C336.73035,283.36371 337.21332,283.45956 338.14896,283.73816C339.52063,284.14661 339.9538,284.32788 340.80762,284.69016C341.6633,285.05322 342.5144,285.46124 343.39963,285.85416C344.31433,286.26013 344.78546,286.4545 345.73294,286.85416C346.20755,287.05435 347.15329,287.4444 348.51196,288.05432C348.95306,288.25235 349.82877,288.66519 350.73029,289.09018C351.19986,289.31152 352.73199,290.02295 353.29712,290.27518C353.88531,290.53769 354.49265,290.80466 355.11963,291.05817C356.38742,291.57074 357.02771,291.8009 357.66629,291.99951C358.89169,292.38065 360.06259,292.60745 360.62311,292.69168C361.17068,292.77396 362.24857,292.88638 362.78113,292.95499C364.40283,293.16388 364.96335,293.27182 366.14413,293.59549C366.80115,293.7756 367.50626,294.01385 368.27563,294.2915C369.12625,294.59848 370.06335,294.95648 372.23294,295.85416C373.49179,296.375 374.84045,296.95627 376.26047,297.57016C377.72714,298.20422 379.21234,298.8537 380.69296,299.50217C382.14401,300.1377 383.53787,300.75418 386.06628,301.85416C387.15289,302.32687 388.12402,302.74435 388.99429,303.11118C389.77481,303.44016 390.48193,303.73169 391.13028,303.99017C391.73068,304.22952 392.29919,304.45096 393.39963,304.85416C393.95392,305.05725 394.52213,305.25641 395.09912,305.47217C395.69147,305.69366 396.29846,305.93042 396.91562,306.19818C397.55499,306.47556 398.22116,306.7659 399.56628,307.52084C400.28445,307.92389 401.0025,308.38574 401.7338,308.86484C402.47592,309.35101 403.21185,309.85458 403.94629,310.35284C404.67017,310.84393 405.36612,311.33954 406.73294,312.1875C407.36337,312.57861 407.98132,312.92374 408.58847,313.23901C409.18546,313.54901 409.79379,313.83698 410.41696,314.11951C411.06079,314.41141 411.74213,314.70215 413.23294,315.35416C414.06143,315.71649 414.93555,316.10495 415.84445,316.50766C416.77423,316.91962 417.71136,317.33508 418.64496,317.74216C419.55905,318.14072 420.4375,318.53189 422.06628,319.1875C422.78,319.47479 423.43497,319.71851 424.03729,319.92551C424.58984,320.11539 425.1066,320.27551 425.5943,320.4115C426.0574,320.54062 426.50787,320.6535 427.39963,320.85416C427.85394,320.95639 428.31787,321.05493 428.79013,321.14966C429.26852,321.24564 429.75323,321.33658 430.24362,321.41818C430.73694,321.50027 431.23273,321.58292 432.23294,321.6875C432.73212,321.73969 433.23145,321.77225 433.72845,321.797C434.22214,321.82156 434.7121,321.8353 435.19696,321.84351C435.67575,321.85159 436.14761,321.85349 437.51163,321.85416C437.94894,321.85437 438.80762,321.85416 439.65829,321.85416C440.51697,321.85416 441.85428,321.85416 442.31696,321.85416C443.2583,321.85416 444.20761,321.85416 445.14896,321.85416C446.06628,321.85416 446.95294,321.85416 447.83963,321.85416C448.7663,321.85416 449.25711,321.85391 450.89963,321.85416C451.51846,321.85425 452.17029,321.8541 452.84811,321.85867C453.54495,321.86337 454.96774,321.88651 455.67944,321.91135C456.38242,321.93588 457.73361,322.01337 458.36862,322.0755C459.56741,322.19278 460.13556,322.28003 461.23697,322.42883C461.77658,322.50174 462.31177,322.59811 463.95361,322.73267C464.51093,322.77832 465.61554,322.82141 466.14963,322.83334C467.15149,322.85574 468.40015,322.82886 469.26062,322.85867C470.08316,322.88718 471.00162,323.06116 471.61346,323.22482C472.3421,323.41974 473.18051,323.68756 474.56628,324.35416C475.08295,324.60269 475.60703,324.89102 476.65161,325.54083C477.17563,325.86682 477.69177,326.19052 478.60895,326.88751C479.41553,327.50046 480.25626,328.33133 480.64963,328.79166C481.40866,329.67987 482.02631,330.27698 482.74896,330.5675C483.57892,330.90118 484.56213,330.78415 485.27463,330.89584C486.42279,331.07587 487.19012,331.55951 487.75378,331.85416L488.63428,332.28616" id="svg_20" stroke-width="3" stroke="#000" fill="none"/>
  <path t="198911,198976,199027,199027,199027,199027,199041,199041,199041,199041,199041,199041,199041,199041,199042,199047,199047,199047,199047,199048,199048,199048,199048,199048,199062,199062,199062,199062,199062,199078,199078,199078,199078,199079,199079,199079,199095,199095,199095,199095,199095,199112,199112,199112,199128,199128,199128,199145,199145,199145,199162,199162,199162,199162,199162,199194,199194,199194,199211,199211,199211,199211,199211,199212,199212,199212,199229,199229,199229,199229,199245,199245,199245,199245,199261,199261,199261,199261,199261,199277,199277,199277,199277,199277,199294,199294,199294,199294,199311,199311,199311,199327,199327,199327,199327,199344,199344,199361,199361,199361,199361,199377,199377,199394,199394,199394,199411,199411,199411,199411,199411,199430,199430,199431,199448,199448,199464,199464,199477,199494,199494,199494,199511,199511,199511,199511,199527,199527,199527,199544,199544,199544,199544,199561,199561,199561,199577,199577,199577,199593,199594,199611,199611,199626,199627,199643,199644,199660,199676,199677,199693,199694,199711,199711,199711,199711,199727,199728,199728,199744,199744,199744,199760,199761,199761,199794,199810,199811,199811,199826,199827,199843,199844,199860,199876,199877,199877,199894,199894,199911,199911,199911,199911,199927,199927,199927,199927,199927,199943,199944,199944,199944,199968,199968,199968,199968,199969,199993,199994,199994,200020,200020,200020,200020,200043,200044,200044,200044,200044,200044,200044,200060,200061,200061,200061,200061,200076,200077,200077,200077,200077,200093,200094,200094,200111,200111,200127,200127,200144,200144,200144,200160,200161,200161,200161,200176,200177,200177,200177,200193,200194,200194,200210,200211,200211,200211,200226,200227,200227,200243,200244,200260,200261,200261,200276,200277,200277,200293,200294,200294,200311,200311,200311,200327,200327,200344,200345,200360,200361,200361,200361,200376,200377,200394,200394,200394,200411,200411,200426,200443,200460,200461,200461,200476,200477,200477,200493,200494,200494,200494,200511,200511,200511,200526,200527,200527,200543,200544,200544,200544,200567,200568,200568,200593,200594,200612,200612,200612,200626,200644,200645,200660,200661,200676,200677,200677,200693,200694,200694,200711,200711,200711,200726,200727,200727,200743,200744,200760,200761,200776,200777,200777,200810,200811,200811,200811,200831,200832,200832,200832,200832,200860,200861,200861,200877,200877,200893,200911,200912,200928,200928,200945,200945,200962,200962,200994,200994,201010,201011,201027,201028,201045,201045,201205,201237,201259,201260,201738,201738,202091,202127,202319,202334,202394,202431" d="M-9.76704,212.85417C-8.88038,213.02484 -8.06491,213.59915 -7.68371,214.14583C-7.14469,214.91884 -6.88506,215.46956 -6.26704,216.85417C-5.88779,217.70386 -5.51122,218.66335 -5.10904,219.69518C-4.68702,220.77794 -4.26639,221.89558 -3.84304,223.02217C-3.4244,224.13626 -3.0298,225.22096 -2.26704,227.1875C-1.9362,228.04048 -1.62896,228.79936 -1.33854,229.46899C-1.08029,230.06447 -0.83727,230.58731 -0.59904,231.03951C-0.38735,231.44133 -0.19526,231.80283 0.23296,232.35417C0.42306,232.59894 0.6284,232.81451 1.29546,233.39583C1.79812,233.83389 2.7381,234.68256 3.09712,235.06117C3.90722,235.9155 4.32068,236.40123 4.75379,236.89583C5.19403,237.39856 6.0615,238.40906 6.89962,239.35417C7.28742,239.79147 8.01149,240.57645 8.64962,241.27083C9.21127,241.88199 9.90961,242.68008 10.26362,243.1675C10.86484,243.99527 11.37522,244.71915 12.06896,245.22884C12.80982,245.77315 13.62721,246.35173 14.29546,246.875C14.7973,247.26797 15.72493,247.86966 16.48362,248.25284C17.2901,248.66014 17.71616,248.82451 18.51779,249.19701C19.85502,249.81837 20.55513,250.25479 21.04229,250.5155C22.37767,251.23013 22.88105,251.40024 23.42229,251.62216C24.61789,252.11238 25.25364,252.35455 25.89162,252.6035C26.52131,252.84921 27.13476,253.07501 28.70429,253.71117C29.50127,254.03419 30.14139,254.33382 30.99562,254.6515C31.86809,254.97597 32.90173,255.25797 33.65429,255.41817C34.43258,255.58385 35.6329,255.73549 36.43745,255.806C37.25357,255.87752 37.67364,255.88353 38.51829,256.0235C39.86349,256.2464 40.78291,256.55859 41.24762,256.71552C42.17532,257.02875 43.06141,257.37741 43.89962,257.6875C45.01573,258.1004 45.68451,258.33829 46.32396,258.49249C47.52223,258.78146 48.43262,258.82819 49.03296,258.84351C50.23261,258.87415 51.12846,258.85416 51.71212,258.85416C52.54762,258.85416 53.78479,258.85416 54.49429,258.85416C55.56629,258.85416 56.19962,258.85416 57.21212,258.85416C57.87046,258.85416 58.96879,258.85406 59.87296,258.85416C60.77629,258.85425 61.52769,258.84238 62.45629,258.91135C63.56861,258.99399 64.40018,259.1347 65.27296,259.27951C65.71241,259.35242 66.56726,259.52274 67.73296,259.6875C68.65922,259.81842 69.63579,259.84155 70.43279,260.07565C71.2338,260.31094 72.02642,260.91196 72.82229,261.41818C73.50695,261.85367 74.38992,262.04816 75.29546,262.35416C75.99808,262.59158 76.87579,262.73145 77.88362,262.83951C78.58241,262.91443 79.31823,262.88995 80.46496,263.42484C81.28143,263.80566 81.72121,264.28784 82.56629,264.85416C83.18892,265.27139 83.8781,265.65402 84.92762,266.19699C85.89463,266.69727 86.46229,266.96884 87.19129,267.33334C88.23296,267.85416 88.84813,268.11942 89.57579,268.55417C90.50755,269.1109 91.10368,269.6752 91.88562,270.15417C92.56918,270.57288 93.4577,271.18436 94.11696,271.65417C94.86172,272.18491 95.54888,272.61603 96.47579,272.797C97.41836,272.98102 98.13918,272.99594 98.89462,273.564C99.49715,274.01709 100.38735,274.71182 101.19012,275.1015C101.74582,275.37125 102.64635,275.7142 103.53279,276.17532C104.43521,276.64478 104.96091,277.07318 106.06629,277.52084C106.75703,277.80057 107.67384,277.86703 108.43262,278.29684C109.25172,278.7608 109.62366,279.31171 110.24645,280.21133C110.70531,280.87418 111.52538,281.24084 112.23212,281.55417C113.09749,281.93781 113.80608,282.54749 114.71696,282.76883C115.55955,282.97357 116.4973,282.79016 117.56629,283.02084C118.24905,283.16818 119.00922,283.40668 119.89962,283.85416C120.6066,284.20947 121.55661,284.8775 122.25629,285.15417C122.80927,285.37283 123.80367,285.66458 124.97562,285.95435C125.40004,286.0593 126.28706,286.25156 127.18229,286.49017C128.06856,286.72641 128.91011,286.9967 129.66362,287.33817C130.72801,287.82053 131.36456,288.23785 132.39963,288.6875C133.10521,288.99402 133.84673,289.22107 134.57162,289.44351C135.26279,289.65561 136.47606,290.0278 137.21213,290.375C137.92873,290.71301 138.91545,291.35266 139.51163,291.6795C140.17886,292.04529 140.96454,292.40451 141.89963,292.6875C142.95918,293.00818 143.54706,293.10239 144.14496,293.21817C145.36555,293.45453 145.97986,293.54742 146.58229,293.65283C148.26958,293.94803 148.78072,294.03922 149.72496,294.26483C150.60471,294.47504 151.43787,294.71567 152.63278,295.17551C153.03477,295.3302 153.82285,295.67828 154.59695,296.02884C155.34816,296.36902 156.40987,296.83582 157.37563,297.21817C157.94955,297.44537 159.0789,297.97211 159.69128,298.33334C160.52762,298.82669 161.2047,298.93405 162.25179,299.20685C163.09116,299.42554 163.71638,299.60254 164.75429,299.73285C165.48312,299.82434 166.60931,299.86108 167.34895,299.93817C168.41454,300.04922 169.08125,300.19174 170.02229,300.46484C170.63545,300.64279 171.83296,301.05417 172.43295,301.25418C173.33296,301.5542 174.229,301.86646 175.13295,302.14966C176.02921,302.43045 176.62576,302.61813 177.83162,302.76883C178.41977,302.84235 179.27579,302.8519 180.54762,302.85416C181.21213,302.85532 182.23296,302.85416 183.04362,302.85416C183.91829,302.85416 184.91829,302.85416 185.75378,302.85416C186.33746,302.85416 187.53279,302.85416 188.42229,302.85416C189.27579,302.85416 190.31146,302.85416 190.99695,302.85416C191.83162,302.85416 192.83296,302.85416 193.63295,302.85416C194.63562,302.85416 195.50496,302.85416 196.56628,302.85416C197.19962,302.85416 198.21213,302.8541 198.87045,302.85416C199.9688,302.85425 200.88239,302.84906 201.77562,303.07565C202.49269,303.25754 203.26631,303.48468 204.26228,304.05283C204.95451,304.44769 205.8392,304.76224 206.64362,304.86484C207.57118,304.98315 208.2706,305.38446 208.91962,305.65549C209.91234,306.07007 210.76065,306.3587 211.33746,306.61133C212.54834,307.14169 213.13223,307.50809 213.73296,307.85416C214.63188,308.37204 215.52614,308.84842 216.42229,309.21817C216.99289,309.45361 218.06914,309.84747 218.78029,310.15417C219.46107,310.44778 220.65254,310.95935 221.19012,311.15417C222.04068,311.4624 222.63173,311.66196 223.83162,312.05283C224.71028,312.33905 225.26524,312.55185 226.54762,312.77017C227.20792,312.8826 228.2417,312.99554 229.02229,313.27951C229.75661,313.54663 230.73276,313.84375 231.55446,313.85416C232.44354,313.86542 233.43295,313.85416 234.23296,313.85416C235.23296,313.85416 236.04362,313.85379 236.69012,313.85416C237.91829,313.85483 238.47162,313.82886 239.33746,313.91135C240.53857,314.02579 241.12703,314.21246 241.99695,314.42883C243.06459,314.6944 244.00183,314.7963 244.62845,314.90683C245.64357,315.08591 246.4136,315.50189 247.43295,315.73285C248.22209,315.91165 249.24123,315.99637 249.83746,316.21133C250.70357,316.52362 251.65712,316.94849 252.4903,317.27551C253.1174,317.52164 253.81512,317.8045 254.9753,318.39682C255.40215,318.61475 256.26611,319.09839 257.11029,319.60352C257.51514,319.84576 258.57687,320.50601 259.30878,321.03983C260.12509,321.63519 260.8634,322.19818 261.58029,322.49701C262.45724,322.86258 263.39963,323.02084 264.23294,323.35416C265.06628,323.6875 265.90875,323.8385 266.71695,324.42349C267.27237,324.8255 268.02756,325.73022 268.59695,326.20749C269.29016,326.78851 270.14462,326.98764 270.88562,327.55951C271.42813,327.97821 272.189,328.72375 273.11694,328.8515C274.04959,328.97992 274.77432,328.88498 275.71213,329.35416C276.45688,329.72675 277.39963,329.85416 278.23294,329.85416C279.21146,329.85416 279.92862,329.83728 280.83295,329.85416C281.79749,329.87216 282.28561,330.5015 283.0343,330.85284L283.93295,330.85416L284.83295,330.85416" id="svg_21" stroke-width="3" stroke="#000" fill="none"/>
  <path t="256072,256297,256324,256342,256378,256378,256457,256457,256488,256509,256537,256561,256585,256610,256626,256626,256676,256726,257022,257057,257113,257126,257176,257287,257287,257303,257322,257346,257346,257360,257360,257375,257392,257474,257650,257666,257682,257682,257692,257719,257991,258025,258025,258043,258043,258043" d="M290.23294,130.85417C290.23294,131.85417 290.23294,132.85417 290.23294,133.7155C290.23294,134.6875 290.21912,135.4955 290.51697,136.33817C290.76669,137.04466 291.04868,138.18614 291.58563,138.8015C292.10138,139.39256 292.78183,139.80052 293.63297,140.2795C294.35968,140.68843 295.23334,140.82881 296.03296,140.85417C296.93433,140.88277 297.75836,141.31171 298.52844,141.8015C299.22189,142.24255 299.23294,143.21133 299.23294,144.05417C299.23294,144.95416 299.23294,145.85417 299.23294,146.65417C299.23294,147.55417 299.26157,148.5119 298.94763,149.33817C298.67648,150.05185 298.04599,150.77434 297.59012,151.54967C297.10913,152.36774 296.4025,152.70659 295.80762,153.29016C295.16022,153.92523 294.87134,154.61545 294.13312,155.07567C293.41595,155.52277 293.24112,156.5542 293.23294,157.45416C293.22559,158.26486 293.01144,159.17567 292.71213,159.875L292.23294,160.85417L291.84363,161.63283L291.51828,162.28351" id="svg_22" stroke-width="3" stroke="#000" fill="none"/>
  <path t="261926,262058,262058,262058,262092,262092,262205,262221,262237,262237,262257,262308,262308,262308,262324,262324" d="M284.23294,150.85417C285.29996,150.14883 286.01089,149.66855 286.55164,149.42216C287.73724,148.88194 288.64178,148.96481 289.47128,148.5015C290.24155,148.07126 290.92773,147.46623 291.58478,147.20683C292.46719,146.85844 293.56628,146.6875 294.23828,146.5015L294.9823,146.2795L296.08997,145.97566L296.81161,145.86484" id="svg_23" stroke-width="3" stroke="#000" fill="none"/>
  <path t="273214,273360,273361,273391,273392,273392,273408,273408,273409,273409,273425,273425,273425,273425,273441,273441,273458,273475,273475,273491,273491,273508,273508,273524,273541,273541" d="M308.23294,192.85417C308.23294,193.7075 308.2193,194.37508 308.23294,195.52083C308.24338,196.39601 308.30347,196.99539 308.51828,198.19284C308.65924,198.97864 308.84009,199.82561 308.93747,200.25783C309.2226,201.52321 309.40314,202.29036 309.73294,203.27083C310.00833,204.08954 310.52597,204.82791 310.94763,205.6515C311.35522,206.44759 311.5473,207.32808 311.80762,208.06483C312.15237,209.04054 312.06274,209.88699 312.45447,210.83267C312.73163,211.5018 313.53296,212.14967 314.23294,212.6875L315.03296,213.0235" id="svg_24" stroke-width="3" stroke="#000" fill="none"/>
  <path t="274596,274740,274740,274773,274773,274792,274792,274807,274823,274823,274840,274864,274864,274873,274873,274897,274912,274912,274936,275007,275042,275042,275074,275074,275075,275374,275374,275390,275409,275425" d="M333.23294,193.85417C331.84363,194.72617 331.46899,195.44661 331.28561,196.45416C331.14111,197.24803 330.94147,198.25005 330.65829,199.01817C330.30905,199.96548 330.40442,200.89171 330.14761,201.65417C329.87881,202.45229 329.09601,203.15605 328.75378,203.85417C328.35522,204.66721 328.27347,205.61166 327.71213,206.35417C327.20929,207.0193 326.39709,207.62238 326.24362,208.45416C326.07645,209.36024 326.09686,210.22379 325.5863,211.02884C325.13684,211.73753 324.43011,212.2887 323.63162,212.5675C322.67151,212.90274 321.80362,212.93817 321.24194,213.55867L321.23294,214.45416L321.23294,215.35417" id="svg_25" stroke-width="3" stroke="#000" fill="none"/>
 </g>
</svg>