<svg width="500.00000000000006" height="332.409972299169" xmlns="http://www.w3.org/2000/svg" xmlns:svg="http://www.w3.org/2000/svg" xmlns:xlink="http://www.w3.org/1999/xlink">
 <!-- Created with SVG-edit - http://svg-edit.googlecode.com/ -->
 <g display="inline" class="layer">
  <title>Layer 1</title>
  <path t="0,410,488,488,497,520,590,598,684,706,721,753,761,767,775,832,841,918,926,964,1002,1026,1043,1087,1089,1112,1119,1128,1230,1252,1260,1291,1315,1377,1395,1395,1415,1431,1447,1463,1463,1493,1509,1542,1542,1612,1626,1658,1681,1689,1697,1711,1735,1735,1743,1759,1775,1789,1797,1805,1813,1830,1837,1847,1867,1932,1994,2002,2016,2024,2088,2102,2158,2172,2189,2235,2257,2314,2328,2337,2337,2397,2470,2484,2586,3116,3133,3133,3140,3140,3148,3179" d="M173.5,184.70499C174.7215,183.82632 175.71394,183.58717 176.14284,183.00049C176.69804,182.24103 177.04837,181.48996 177.66667,180.87166C178.28497,180.25336 178.85588,179.73428 179.8,179.70499C180.69824,179.67712 181.36569,179.38089 181.92534,178.73032C182.4787,178.08707 183.28073,177.70142 183.49867,176.90366C183.74045,176.01866 184.31282,175.53395 184.5,174.70499C184.69958,173.82114 185.35126,173.36819 185.92534,172.73032C186.4462,172.1516 187.21419,172.10353 188.064,171.66899C188.76083,171.31267 189.43781,171.1077 190.21466,170.61966C190.95471,170.15474 191.65379,170.02736 192.37866,169.48366C193.02168,169.00134 193.7,168.70499 194.60001,168.70499C195.5,168.70499 196.3,168.70499 197.2,168.70499C198.10001,168.70499 199.02083,168.70499 199.98399,168.70499C200.67467,168.70499 201.61467,168.70499 202.60001,168.70499C203.5,168.70499 204.3,168.70499 205.2,168.70499C206.10001,168.70499 207,168.70499 207.89999,168.70499C208.8,168.70499 209.7,168.70499 210.60001,168.70499C211.5,168.70499 212.3,168.70499 213.2,168.70499C214.10001,168.70499 215,168.70499 215.89999,168.70499C216.8,168.70499 217.79788,168.86433 218.44733,168.35233C219.06195,167.86777 219.82169,167.89989 220.69867,167.70366C221.50571,167.52309 222.02065,166.71541 222.89999,166.70499C223.79994,166.69432 224.71259,166.55519 225.59984,166.70515C226.45186,166.84915 226.85571,167.67632 227.7,167.70499C228.59932,167.73553 229.17662,168.27385 229.936,168.66899C230.70311,169.06816 231.7,168.70499 232.60001,168.70499C233.5,168.70499 234.3,168.70499 235.2,168.70499C236.10001,168.70499 237,168.70499 237.89999,168.70499C238.8045,168.70499 239.66667,168.70499 240.5,168.70499C241.4785,168.70499 242.29866,168.70499 243.2,168.76215L244,169.20499" id="svg_1" stroke-width="3" stroke="#000" fill="none"/>
  <path t="5396,5504,5529,5535,5550,5558,5566,5574,5582,5598,5598,5612,5997,6129,6137,6145,6166,6166,6231,6371,6449,6479,6511,6917,6917,7478,7548,7837,7954,7977" d="M242.5,148.70499C242.5,150.50499 242.5,151.40498 242.5,152.30499C242.5,153.20499 242.50067,154.10498 242.5,155.00499C242.49933,155.90366 242.15579,156.49547 241.39999,156.92648C240.7309,157.30806 239.90244,158.00197 239.58533,158.90498C239.28586,159.7578 239.89722,160.38879 240.44733,161.06215C241.02107,161.76443 241.32921,162.35323 242.2,162.75766C243.03128,163.14375 243.95439,163.47066 244.44733,164.06215C245.02837,164.75935 245.11354,165.82616 245.584,166.41965C246.16945,167.1582 246.85716,167.64783 247.69867,167.70631L248.44733,168.05765L248.92534,168.67966" id="svg_2" stroke-width="3" stroke="#000" fill="none"/>
  <path t="9093,9232,9264,9310,9380,9444,9450,9514,9654,9663,9740,9762,9778,10168,10169" d="M254.5,153.70499C254.5,155.50499 254.5,156.40498 254.5,157.30499C254.5,158.20499 254.51067,159.09431 255,159.70499C255.48933,160.31566 255.5,161.20499 255.5,162.10498C255.5,163.00499 255.5,163.90498 255.5,164.80499L255.5,165.70499L255.5,166.50499" id="svg_3" stroke-width="3" stroke="#000" fill="none"/>
  <path t="14383,14536,14630,14646,14646,14834,14856,14888,14912,14942,14982,14996,15068,15092,15138,15161,15176,15192,15215,15229,15253,15332,15385,15395,15434,15496,15536,15582,15582,15754,16088,16104,16111,16174,16206,16222,16322,16332,16355,16378,16386,16431,16472,16472,16494,16518,16550,16612,16634,16667,16667,16690,16759,16775,16854,16900,16916,16954,17032,17080,17110,17119,17142,17142,17212,17572,17758,17790,17906,17922,18078,18094,18210,18312,18508,18508,18522,18546,18578,18592,18640,18670,18710,18734,18740,18804,18834,18858,18960,19076,19116,19146,19194,19210,19248,19280,19318,19444,19786" d="M253.5,174.70499C255.3,174.70499 256.13599,174.70499 256.98401,174.70499C257.84732,174.70499 258.89337,174.9326 259.7955,174.70049C260.50943,174.5168 260.41522,173.34526 260.92532,172.73032C261.42242,172.13106 262.29077,171.7041 262.49866,170.90366C262.71069,170.0872 263.30133,169.70566 264.20001,169.70499C265.10001,169.70432 265.86844,169.5609 266.55267,169.05765C267.21887,168.56766 268.20001,168.70499 269.10001,168.70499C270,168.70499 270.89999,168.70499 271.79999,168.70499C272.70001,168.70499 273.60001,168.70499 274.5,168.70499C275.29999,168.70499 276.20001,168.70499 277.10001,168.70499C278,168.70499 278.90558,168.69606 279.5,169.20499C280.09146,169.71136 280.54398,170.55923 281.30133,170.70366C282.18411,170.87199 283.1196,170.70305 283.89999,171.13033C284.72256,171.5807 285.60001,171.70499 286.5,171.70499C287.29999,171.70499 288.20001,171.76215 289,172.20499C289.79999,172.64783 290.70001,172.70499 291.60001,172.70499C292.5,172.70499 293.29999,172.70499 294.20001,172.70499C295.10001,172.70499 296,172.70273 296.89999,172.70499C297.7955,172.70724 298.30685,173.37552 299.02084,173.68416C299.82803,174.0331 300.79999,173.70499 301.70001,173.70499C302.60001,173.70499 303.50085,173.74217 304.29999,173.70499C305.21765,173.66228 306.00781,173.09634 306.44284,172.34782C306.86731,171.61745 306.25574,170.47282 306.784,169.78899C307.26871,169.1615 307.5,168.40498 307.5,167.50499C307.5,166.60498 307.52536,165.70459 307.5,164.90498C307.47141,164.00363 306.88196,163.39464 306.58533,162.50499C306.29941,161.64751 305.93323,161.02728 305.53601,160.26898C305.13675,159.50676 305.11243,158.69003 304.47467,158.13033C303.88507,157.61287 303.90271,156.76718 303.41467,155.99033C302.94974,155.25027 302.82236,154.55119 302.27866,153.82632C301.79636,153.1833 301.66553,152.40218 301.14734,151.75766C300.65579,151.14629 299.92532,150.67966 299.50449,150.00049L299.46399,149.14099L298.7955,148.70949" id="svg_4" stroke-width="3" stroke="#000" fill="none"/>
  <path t="21433,21666,21723,21745,21839,21862,21908,21917,21948,21979,21996,22018,22027,22064,22088,22110,22134,22158,22188,22220,22236,22244,22290,22298,22322,22338,22422,22767,22767,23127,23297,23352,23493,23616,23719,23743,23850,23851,24092,24515" d="M280.5,151.70499C281.72134,150.82632 282.40042,150.31329 282.92532,149.73032C283.45581,149.14114 284.08914,148.38707 284.37851,147.60498C284.69363,146.75325 284.67615,145.91798 285.59982,145.70482C286.38873,145.52277 286.88687,144.79915 287.47467,144.27965C288.0575,143.76454 289.20392,143.82007 289.48932,143.09431C289.80737,142.28554 289.95663,141.57451 290.58401,140.98898C291.27249,140.34647 291.81366,139.94543 292.69867,139.70366C293.49643,139.48572 293.88757,138.69003 294.52533,138.13033C295.11493,137.61287 295.70758,136.95979 296.5,136.53831C297.14059,136.19759 298.21191,135.60356 298.48932,136.31566C298.81216,137.14439 298.5,138.10498 298.5,139.00499C298.5,139.90498 298.5,140.80499 298.5,141.70499L298.5,142.50499L298.5,143.40498L298.5,144.30499" id="svg_5" stroke-width="3" stroke="#000" fill="none"/>
  <path t="26881,27368,27416,27438,27438,27532,27548,27564,27574,27595,27625,27642,27657,27720,27728,27749,27766,27774,27790,27814,27820,27843,27860,27897,27898,27954,27970,28024,28048,28070,28164,28180,28188,28189,28218,28242,28414,28430,28439,28476,28492,28492,28508,28524,28648,28679,28687,28733,28733,28812,28890,28914,28952,28968,28984,28990,29014,29038,29054,29054,29100,29132,29148,29154,29170,29201,29201,29231,29247,29255,29263,29280,29296,29310,29327,29328,29343,29358,29374,29411,29443,29458,29505,29529,29567,29614,29638,29669,29699,29747,29777,29786,29794,29842,29920,29927,29927,29935,29952,29967,30076,30154,30177,30209,30209,30254,30310,30332,30402,30402,30418,30442,30480,30504,30513,30528,30543,30557,30557,30581,30589,30613,30613,30635,30659,30683,30697,30713,30730,30761,30783,30784,30807,30848,30870,30910,30934,30964,30980,31017,31074,31090,31112,31128,31147,31147,31242,31245,31300,31316,31362,31378,31402,31408,31440,31464,31502,31542,31572,31612,31642,31690,31712,31720,31728,31744,31775,31797,31798,31805,31876,31954,31995,32019,32040" d="M143.5,158.70499C144.7215,159.58348 145.60127,159.75278 146.5,159.70499C147.30341,159.66226 148.03717,158.95804 148.89999,158.74098C149.7735,158.52122 150.80281,158.87051 151.44733,158.35233C152.0587,157.86078 152.44142,156.94629 153.2045,156.70949C154.02629,156.45447 154.71437,156.15596 155.33333,155.53831C155.95197,154.92097 156.80472,154.89088 157.416,154.42099C158.09637,153.89798 158.58408,153.29047 159.14734,152.65231C159.67287,152.05692 160.53644,151.87315 161.3,151.61966C162.07217,151.36331 162.89732,150.73947 163.5,150.20499C164.08252,149.68839 164.71461,149.1562 165.33333,148.53831C165.95253,147.91994 166.54681,147.39812 167.3,146.98898C168.09752,146.55577 168.70641,146.14314 169.37866,145.48366C169.99669,144.87738 170.7,144.70499 171.60001,144.70499C172.5,144.70499 173.27744,144.5807 174.10001,144.13033C174.88039,143.70303 175.8,143.70499 176.7,143.70499C177.60001,143.70499 178.5,143.70499 179.3,143.70499C180.2,143.70499 181.17857,143.36192 181.97917,143.72581C182.75241,144.07727 183.20448,144.70273 184.10001,144.70499C185,144.70724 185.91051,144.57227 186.8,144.70949C187.73138,144.85316 188.26862,145.55681 189.2,145.70049C190.08949,145.83771 191.03474,145.65208 191.8,146.05765C192.64589,146.50595 193.5,146.70499 194.3,146.70499C195.2,146.70499 196.10001,146.70499 197,146.70499C197.89999,146.70499 198.8,146.70499 199.7,146.70499C200.60001,146.70499 201.5,146.70499 202.3,146.70499C203.2,146.70499 204.10001,146.70499 205,146.70499C205.89999,146.70499 206.8,146.70499 207.7,146.70499C208.60001,146.70499 209.63789,147.02676 210.33333,146.53831C211.04851,146.036 211.60684,145.81575 212.5,145.70499C213.39922,145.59348 213.78236,144.74779 214.7,144.70499C215.59886,144.66307 216.10898,144.19775 216.85716,143.76215C217.5873,143.33705 218.55083,143.40414 219.2,143.05765C220.04938,142.60429 221,142.70499 221.89999,142.70499C222.8,142.70499 223.7,142.70499 224.60001,142.70499C225.5,142.70499 226.43036,142.31204 227.21466,142.79031C228.0183,143.28038 228.60001,143.70499 229.5,143.70499C230.3,143.70499 231.27841,143.7114 231.49867,144.50632C231.74365,145.39044 232.30133,145.70432 233.2,145.70499C234.10001,145.70566 235.02083,145.70499 235.98399,145.70499C236.67467,145.70499 237.74283,145.70499 238.60001,145.70499C239.5,145.70499 240.3,145.70499 241.2,145.70499C242.10001,145.70499 243,145.70499 243.89999,145.70499C244.8,145.70499 245.7,145.70499 246.60001,145.70499C247.5,145.70499 248.3,145.70499 249.2,145.70499C250.10001,145.70499 251,145.70499 251.89999,145.70499C252.8,145.70499 253.71259,145.55519 254.59984,145.70515C255.45186,145.84915 255.85587,146.67639 256.79999,146.70499C257.69958,146.73224 258.60001,146.70499 259.5,146.70499C260.29999,146.70499 261.31339,146.3116 262.064,146.74098C262.75464,147.13608 262.4906,148.51672 263.2045,148.70049C264.07175,148.92371 264.93805,148.86777 265.55267,149.35233C266.20212,149.86433 267.20001,149.70499 268.10001,149.70499C269,149.70499 269.88934,149.71565 270.5,150.20499C271.11066,150.69432 272,150.70499 272.89999,150.70499C273.79999,150.70499 274.87958,150.45821 275.44733,151.06215C276.06848,151.72289 276.48633,152.61708 277.20001,152.70049C278.09393,152.80495 279,152.70499 279.89999,152.70499L280.79999,152.70499L281.70001,152.70499L282.60001,152.70499" id="svg_6" stroke-width="3" stroke="#000" fill="none"/>
  <path t="35092,35722,36058,36159,36206,36230,36354,36377,36464,36712,37009,37039,37470,38258,38281,38287,38366,38374,38382,38773,38820,39014,39110,39117,39835,40262,40279,40349,40685,40747,40779,40841,40873,40965,40988,41074,41091,41112,41169,41179,41183,41206,41246,41276,41293,41316,41379,41379,42573,42681,42713,42723,42747,42749,42773,42805,42829,42829,42876,42930,42939,42955,42962,42970,42984,42992,43008,43027,43041,43042,43062,43062,43078,43140,43212,43369" d="M145.5,159.70499C145.5,160.50632 145.13683,161.50188 145.536,162.26898C145.93114,163.02837 146.41747,163.65375 147.11067,164.26898C147.76907,164.85333 148.61188,165.18437 149.14734,165.75766C149.78734,166.44287 150.10863,167.2128 150.85716,167.64783C151.58754,168.0723 152.71591,167.92749 153.416,167.42099C154.10956,166.9192 154.84845,166.77585 155.47467,166.27965C156.13972,165.75269 156.48714,165.00041 156.5,164.10498C156.51262,163.22566 156.94936,162.56664 157.584,161.98898C158.23065,161.40039 158.82605,160.84157 159.47467,160.27965C160.06256,159.77034 160.88933,159.69432 161.5,159.20499C162.11067,158.71565 162.93805,158.54221 163.55267,158.05765C164.20212,157.54564 165.2,157.70499 166.10001,157.70499C167,157.70499 167.93483,157.94786 168.7955,157.70049C169.5634,157.47977 170.02066,156.71541 171,156.70499C171.89995,156.69542 172.8,156.70506 173.7,156.70499C174.60001,156.7049 175.27744,156.5807 176.10001,156.13033C176.88039,155.70303 177.82169,155.51009 178.69867,155.70631C179.50571,155.88689 180.03488,156.55597 180.89999,156.71565C181.73135,156.86909 182.4874,157.61995 183.3,157.70366C184.19527,157.79587 184.93805,157.86777 185.55267,158.35233C186.20212,158.86433 187.2,158.70499 188.10001,158.70499C189,158.70499 189.89999,158.70499 190.8,158.70499C191.70134,158.70499 192.66667,158.70499 193.32533,158.70499C194.33333,158.70499 195.1955,158.70499 196.10001,158.70499L197,158.70499L197.89999,158.70499L198.8,158.70499" id="svg_7" stroke-width="3" stroke="#000" fill="none"/>
  <path t="45258,46558,46604,46628,46638,46690,46723,46768,46792,46932,46956,47088,47203,47384,47782,47836,48204,48952,49014,49124,49248,49280,49280,49289,49307,49319,49326,49373,49428,49498,49616,49638,49703,49710,49763,49788,49880,49998,50028,50528,50630" d="M165.5,158.70499C165.784,159.62099 166.43643,160.06711 167,160.70499C167.51552,161.28847 168.203,161.76033 169,162.20499C169.79852,162.6505 170.79788,162.54564 171.44733,163.05765C172.06195,163.54221 172.8,163.70499 173.7,163.70499C174.60001,163.70499 175.65442,163.38179 176.37866,163.92632C177.02151,164.40964 177.48199,165.14043 177.5,166.00499C177.51874,166.90479 177.5,167.80499 177.5,168.70499C177.5,169.50499 177.38956,170.37456 176.69867,170.78899C175.90385,171.26575 175.71194,172.35361 174.97917,172.68416C174.17755,173.04576 173.17831,172.51009 172.30133,172.70631C171.49429,172.88689 171.05339,173.75879 170.47467,174.27965C169.83679,174.85373 169.50067,175.50632 169.5,176.40498C169.49933,177.30499 169.5,178.20499 169.52083,179.18416L170.11067,179.69432" id="svg_8" stroke-width="3" stroke="#000" fill="none"/>
  <path t="54632,54826,54827,54844,54880,54928,54937,54991,54999,55020,55044,55084,55107,55107,55138,55278,55326" d="M243.5,163.70499C243.5,164.70499 243.5,165.50499 243.5,166.40498C243.5,167.30499 243.66278,168.14304 244.14734,168.75766C244.65935,169.4071 244.54552,170.41154 245,171.20499C245.40439,171.91096 245.31673,172.85927 245.66667,173.70499C245.99133,174.48961 246.47917,175.20499 246.5,176.10498L246.5,177.00499" id="svg_9" stroke-width="3" stroke="#000" fill="none"/>
  <path t="56672,57525,57542,57659,57730,57823,57846,57909,57916,58018,58026,58042,58050,58189,58198,58235,58259,58291,58313,58369,58407,58461,58470" d="M254.5,163.70499C254.5,165.50499 254.5,166.40498 254.5,167.30499C254.5,168.20499 254.50067,169.10498 254.5,170.00499C254.49933,170.90366 253.93114,171.38161 253.536,172.14099C253.13683,172.9081 253.65935,174.00287 253.14734,174.65231C252.66278,175.26694 252.48933,176.09431 252,176.70499C251.51067,177.31566 251.40364,178.11125 250.85266,178.75766C250.33751,179.36206 249.62151,179.92648 249.49983,180.80482L249.216,181.62099" id="svg_10" stroke-width="3" stroke="#000" fill="none"/>
  <path t="60726,60965,60996,61028,61036,61083,61099,61128,61144,61144,61184,61214,61222,61246,61333,61357,61357,61364,61465,61497,61589,61637,61667,61753,61770,61778,61778,61802" d="M252.5,182.70499C253.37866,181.48366 253.88222,180.9157 254.69867,180.70366C255.49911,180.49579 256.03488,179.85399 256.89999,179.69432C257.73138,179.54088 258.62109,179.09138 259.21466,178.62099C259.95325,178.03566 260.6044,177.79367 261.5,177.70499C262.3457,177.62125 262.85501,176.93291 263.59982,176.48349C264.22205,176.10803 264.6925,175.30902 265.216,174.62099C265.68286,174.00739 265.5,173.00499 265.5,172.10498C265.5,171.20499 265.5,170.30499 265.50449,169.40498L265.784,168.50499L266.216,167.90498L266.58401,166.99033" id="svg_11" stroke-width="3" stroke="#000" fill="none"/>
  <path t="64267,64757,64765,64835,65061,65085,65163,65201,65615,65639,65653,65693,65709,65724,65738,65770,65879,65965,65981,66067,66092,66145,66169,66301,66347,66363,66425" d="M289.5,157.70499C290.30133,157.70499 291.20007,157.69432 292.10001,157.70499C292.97934,157.71541 293.4939,158.49762 294.2045,158.70049C295.1087,158.95863 296.07913,159.17299 296.37833,159.92632C296.65848,160.63168 295.18411,160.53798 294.30133,160.70631C293.54398,160.85074 293.06454,161.68698 292.20001,161.70499C291.30017,161.72372 290.3956,161.79367 289.5,161.70499C288.6543,161.62125 287.9516,161.03566 287.55716,160.34782C287.08728,159.52841 287.5,158.50499 287.5,157.60498L287.5,156.70499L287.66666,155.87166" id="svg_12" stroke-width="3" stroke="#000" fill="none"/>
  <path t="68402,68694,68711,68728,68728,68813,68891,68923,68937,68961,68961,68969,69101,69140,69265,69289,69297,69327" d="M286.5,151.70499C288.29999,151.70499 289.13644,151.7317 289.98401,151.70366C290.84866,151.67505 291.70914,151.29298 292.59982,150.82632C293.35345,150.43147 293.28934,149.53886 293.66666,148.70499C293.96255,148.05103 295.20444,147.83731 295.48932,147.09431C295.80045,146.28284 296.07468,145.67966 296.55267,145.00049L297.02084,144.22581L297.79999,143.76215" id="svg_13" stroke-width="3" stroke="#000" fill="none"/>
  <path t="71574,71862,71978,71988,72143,72151,72167,72182,72290,72291,72384,72384,72495,72503,72541,72618,72672,72704,72745,72791,72822,72860,72861,72900,72992,73016,73110,73164,73180,73189,73197,73204,73218,73241,73320,73344,73368,73376,74437" d="M292.5,168.70499C293.30133,168.70499 294.20001,168.70499 295.10001,168.70499C296,168.70499 296.89999,168.70499 297.79999,168.70499C298.70132,168.70499 299.66895,168.65981 300.32535,168.71565C301.34167,168.80211 302.02786,169.44957 302.89999,169.66899C303.76932,169.8877 304.48199,170.14043 304.5,171.00499C304.51874,171.90479 304.89478,173.08792 304.21466,173.61966C303.49097,174.18549 302.39999,173.70499 301.5,173.70499C300.70001,173.70499 299.79993,173.71565 298.89999,173.70499C298.02066,173.69456 297.15506,173.0136 297.52084,172.22581C297.84924,171.51851 298.93805,171.54221 299.55267,171.05765C300.20212,170.54564 301.20001,170.70499 302.10001,170.70499C303,170.70499 303.88934,170.69432 304.5,170.20499L305.14734,169.65231L305.33334,168.87166" id="svg_14" stroke-width="3" stroke="#000" fill="none"/>
  <path t="76084,76995,77051,77299,77339,77347,77376,77400,77463,77605,77605,77839,77869,77884,77930,77938,77962,77970,77994,77994,78079,78205,78235,78235,78603" d="M304.5,154.70499C306.29999,154.70499 307.20001,154.70499 308.10001,154.70499C309,154.70499 309.89999,154.70499 310.79999,154.70499C311.70001,154.70499 312.60001,154.70499 313.5,154.70499C314.29999,154.70499 315.35327,154.69437 315.49866,155.50632C315.66031,156.40915 314.56824,156.31204 313.78534,156.79031C312.98209,157.28102 312.39871,157.6572 311.5,157.70499C310.69662,157.74771 310.02084,158.22581 309.51468,159.09431L308.93201,159.62099L308.20532,159.75766L307.45184,160.35233" id="svg_15" stroke-width="3" stroke="#000" fill="none"/>
  <path t="81202,82229,82229,82268,82369,82377,82416,82463,82503,82557,82566,82573,82627,82643,82643,82667,82675,82689,82791,82845,82860,82861,82900,82930,82946,82947,82954,83017,83143,83165,83165,83283,83361,83931,84022,84141,84179,84265,84297,84306,84359,84375,84399,84461,84469,84477,84491,84507,84530,84546,84592,84631,84671,84703,84703,84787,84803,84818,84889,84983,84999" d="M166.5,143.70499C165.5,143.70499 164.56964,143.31204 163.78534,143.79031C162.9817,144.28038 162.27509,144.44872 161.62134,144.92632C160.92226,145.43703 160.21031,145.55621 159.55267,146.05765C158.87581,146.57375 158.50182,147.4532 157.63867,147.66899C156.69505,147.90489 156.10696,147.90466 155.416,148.42099C154.79839,148.88252 154.07106,149.07568 153.2785,149.58348C152.53175,150.06192 151.5,149.70499 150.7,149.70499C149.8,149.70499 148.864,149.70499 148.01601,149.70499C147.15266,149.70499 146.25717,149.70499 145.3,149.70499C144.39999,149.70499 143.5,149.70499 142.7,149.70499C141.8,149.70499 139.972,148.77699 139.972,149.70499C139.972,150.33299 141.64896,149.36781 142.33333,149.87166C142.9863,150.35239 143.28635,151.08798 143.50133,151.90366C143.71156,152.70128 144.85017,152.63194 145.47467,153.13033C146.08263,153.61551 146.84355,153.77193 147.52533,154.27965C148.16614,154.75687 149.10001,154.70499 150,154.70499C150.89999,154.70499 151.8,154.70499 152.7,154.70499C153.60001,154.70499 154.5,154.70499 155.3,154.70499C156.2,154.70499 157.10001,154.70499 158,154.70499L158.89999,154.70499L159.7955,154.70049L160.464,154.26898" id="svg_16" stroke-width="3" stroke="#000" fill="none"/>
  <path t="85492,85598,85607,85616,85625,85647,85708,85758,86403,86411,86419,86419,86427,86427,86434,86440,86457,86457,86480,86480,86675" d="M166.5,140.70499C168.10001,141.27965 168.94717,141.41978 169.7955,141.70949C170.61058,141.98784 171.11063,142.69965 172,142.70499C172.89998,142.71039 173.791,142.70499 173.73384,142.70499C172.84283,142.70499 172.0955,142.70499 171.10133,142.70499C170.15717,142.70499 169.25717,142.70499 168.3,142.70499C167.39983,142.70499 166.61467,142.70499 165.67467,142.70499L164.98399,142.70499L163.91066,142.70499" id="svg_17" stroke-width="3" stroke="#000" fill="none"/>
  <path t="92824,93086,93119,93211,93313,93367,93375,93415,93447,93469,93531,93563,93571,93588,93588,93600,93624,93632,93664,93694,93710,93742,93751,93773,93773,93796,93843,93851,93890,93898,93908,93914,93920,93928,93936,93960,93976,93984,94022,94054,94133,94163,94186,94203,94273,94310,94327,94343,94437,94446,94461,94468,94498,94514,94522,94544,94951,95083,95169,95193,95263,95279,95467,95467,95481,95490,95496,95505,95528,95536,95536,95552,95558,95566,95574,95590,95598,95606,95622,95622,95636,95668,95714,95714,95746,96581,96581,96598,96613,96949,96963,97369,97385,97385,97417,97447,97470,97494,97510,97510,97524,97540,97549,97556,97572,97572,97594,97618,97634,97697,97745,97782,97806,97822,97828,97963,97985" d="M369.5,142.70499C367.89999,143.27965 367.06384,143.74916 366.47467,144.27965C365.89169,144.80455 365.33334,145.53831 364.5,145.70499C363.66666,145.87166 363.82318,146.85941 363.27866,147.58365C362.79535,148.22649 362.026,148.59874 361.29999,148.98898C360.44522,149.44844 359.54648,149.27571 358.78534,149.79031C358.11792,150.24156 357.95642,151.4462 357.10001,151.66899C356.2283,151.89577 355.19995,151.54291 354.55267,152.05765C353.93356,152.54999 353.19037,153.05151 352.70001,153.50632C351.9856,154.16896 351.17664,154.61499 350.52533,155.13033C349.85873,155.65778 349.08264,155.79446 348.47467,156.27965C347.85016,156.77803 346.77725,156.55899 346.11066,157.14099C345.41248,157.75056 345.11777,158.49429 344.30133,158.70631C343.50089,158.91418 342.94659,159.48393 342.2045,160.06215C341.45966,160.64253 341.18237,161.45158 340.58401,161.98898C339.94556,162.56242 339.36874,163.0808 338.85266,163.75766C338.35123,164.4153 338.31128,165.19246 337.66666,165.87166C337.0647,166.50589 336.78253,167.105 336.49551,168.00049C336.25165,168.76135 335.38611,169.09441 334.85266,169.75766C334.3895,170.3335 334.5,171.30499 334.5,172.20499C334.5,173.10498 334.5,174.00499 334.5,174.90498C334.5,175.80499 334.30618,176.75043 334.58533,177.50499C334.90701,178.37457 335.85986,178.71254 336.52533,179.27965C337.12241,179.78847 337.72275,180.42281 338.5,180.87166C339.12158,181.23062 339.57446,182.11525 340.07468,182.73032C340.5788,183.35019 340.5,184.30499 340.5,185.20499C340.5,186.10498 340.36343,187.06163 340.784,187.90498C341.11392,188.56664 341.8114,189.08972 342.33334,189.87166C342.80515,190.57848 342.0072,191.70576 342.58533,192.41965C343.18832,193.16425 344.29999,192.70499 345.20001,192.70499C346.10001,192.70499 346.92563,192.78427 347.52533,193.27965C348.10126,193.75539 349.15268,193.70499 349.84732,193.70499C350.86401,193.70499 351.79999,193.70499 352.70001,193.70499C353.60001,193.70499 354.5,193.70499 355.29999,193.70499C356.20001,193.70499 357.17188,194.03293 357.97916,193.68416C358.73996,193.35547 359.18179,192.35173 359.85184,192.06215C360.82031,191.6436 361.30978,191.04117 362.02084,190.72581C362.91672,190.32849 363.89069,190.41673 364.33334,189.70499C364.84055,188.88942 365.59982,188.70482 366.37866,188.48366L366.85718,187.76215L367.69867,187.70366" id="svg_18" stroke-width="3" stroke="#000" fill="none"/>
  <path t="99843,99928,99959,99966,99990,99998,100012,100021,100036,100052,100061,100090,100098,100113,100154,100163,100192,100224,100225,100241,100286,100295,100311,100348,100372,100394,100418,100434,100458,100480,100504,100504,100536,100574,100582,100598,100622,100636,100684,100693,100708,100738,100756,100784,100800,100801,100808,100825,100840,100862,100870,100894,100894,100918,100948,100956,100980,100996,101004,101026,101034,101050,101058,101082,101104,101152,101166,101174,101190,101198,101207,101222,101238,101238,101260,101284,101292,101308,101316,101330,101330,101338,101354,101370,101386,101386,101400,101408,101408,101424,101432,101441,101456,101464,101486,101510,101526,101526,101542,101572,101588,101588,101596,101604,101619,101627,101642,101650,101665,101666,101690,101719,101728,101744,101768,101768,101776,101784,101797,101815,101821,101822,101829,101837,101853,101875,101875,101899,101931,101939,101953,101977,101985,101986,102001,102017,102024,102031,102047,102055,102056,102096,102126,102150,102159,102174,102212,102212,102258,102298,102376,102454,102634,102860,103032,103047,103055,103055,103063,103063,103071,103072,103080,103080,103086,103086,103095,103095,103111,103226,103250,103287,103288,103343,103358,103358,103366,103389,103419,103436,103452,103452,103460,103460,103469,103476,103514,103545,103554,103569,103591,103600,103608,103615,103623,103624,103639,103653,103685,103693,103748,103788,103798,103807,103833,103865,103873,103874,103920,103930,103952,103973,104029,104051,104052,104060,104248,104294,104302,104319,104388,104458,104490,104507" d="M351.5,60.70499C351.5,62.50499 351.51068,63.40505 351.5,64.30499C351.48956,65.18433 350.72519,65.64159 350.50449,66.40948C350.25711,67.27015 350.50226,68.20499 350.5,69.10499C350.49774,70.0005 349.82864,70.51147 349.52084,71.22582C349.1333,72.12527 349.5,73.10499 349.5,74.00499C349.5,74.90498 349.35349,75.83903 349.58533,76.50499C349.89368,77.39064 350.21478,78.15218 350.50449,79.00049C350.78284,79.81557 351.48932,80.31565 351.5,81.20499C351.51068,82.09432 351.91452,82.78905 352.55267,83.35232C353.14807,83.87785 353.49933,84.59165 353.5,85.53032C353.50049,86.22099 353.49454,87.29433 353.5,88.20499C353.50534,89.09437 354.22559,89.57891 354.48932,90.31565C354.78909,91.15302 354.25711,92.13982 354.50449,93.00049C354.72519,93.76839 355.3316,94.33545 355.52084,95.20499C355.70502,96.05126 356.28806,96.83822 356.58401,97.50499C356.96478,98.36276 357.48199,99.10445 357.5,100.00499C357.51801,100.9048 357.45221,101.80625 357.5,102.70499C357.54272,103.50839 358.24469,104.24274 358.46399,105.10499C358.68494,105.97375 358.9165,106.68948 359.5,107.20499C360.13788,107.76855 360.48062,108.50652 360.5,109.40498C360.51865,110.26954 361.18869,110.80366 361.58401,111.50632C362.04361,112.32325 362.23962,113.1441 362.50449,114.00049C362.74057,114.76379 363.48956,115.22564 363.5,116.10499C363.51068,117.00493 363.3363,117.96228 363.72134,118.80499C364.02713,119.47428 364.49466,120.30494 364.5,121.20499C364.50534,122.10497 364.39304,123.01153 364.50134,123.90498C364.61282,124.82475 365.30984,125.35908 365.48932,126.30499C365.6571,127.18928 365.5,128.11565 365.5,129.02632C365.5,129.70499 365.5,130.81966 365.5,131.70499C365.5,132.50499 365.3819,133.54085 366.02084,134.18416C366.65869,134.82635 367.47141,135.06085 367.5,136.00499C367.52725,136.90457 367.5,137.80499 367.5,138.70499C367.5,139.50499 367.83102,140.15646 368.33334,140.87166C368.82178,141.56709 368.5,142.50499 368.5,143.40498C368.5,144.30499 368.5,145.20499 368.5,146.10498C368.5,147.00499 368.3363,147.96228 368.72134,148.80499C369.02713,149.47429 369.48932,150.30499 369.5,151.20499C369.51068,152.10498 369.95297,152.81218 370.33334,153.70499C370.65353,154.45653 370.31625,155.43147 370.53601,156.30499C370.75305,157.1678 371.45728,157.90158 371.5,158.70499C371.54248,159.50386 371.08878,160.52756 371.55716,161.34782C372.02148,162.161 372.5,162.70499 372.5,163.50499C372.5,164.40498 372.49805,165.3246 372.92532,166.10498C373.3757,166.92755 373.5,167.80499 373.5,168.70499C373.5,169.50499 373.5,170.40498 373.5,171.30499C373.5,172.20499 373.5,173.10498 373.5,174.00949C373.5,174.87166 373.30872,175.79256 373.85266,176.59515C374.31244,177.27357 374.5,178.00499 374.5,178.90498C374.5,179.80499 374.5,180.70499 374.5,181.50499C374.5,182.40498 374.5,183.30499 374.5,184.20499C374.5,185.10498 374.30194,186.02739 374.50134,186.90366C374.68439,187.70796 375.70132,187.70499 376.66666,187.70499C377.5,187.70499 378.47867,187.70499 379.25266,187.70499C380.15717,187.70499 380.90451,187.70499 381.89999,187.70499C382.70001,187.70499 383.69983,187.70499 384.47916,187.70499C385.47849,187.70499 386.4292,188.09857 387.21466,187.61966C388.01834,187.12964 388.60001,186.70499 389.5,186.70499C390.29999,186.70499 391.13599,186.70499 392.15268,186.70499C392.84732,186.70499 393.86401,186.70499 394.79999,186.70499C395.70001,186.70499 396.60001,186.70499 397.5,186.70499C398.25717,186.70499 399.15268,186.70499 400.01599,186.70499C400.97916,186.70499 401.88934,186.69432 402.5,186.20499C403.11066,185.71565 404,185.70499 404.89999,185.70499C405.79999,185.70499 406.87958,185.95177 407.44733,185.34782C408.06848,184.68709 408.48633,183.79289 409.20001,183.70949C410.09393,183.60503 411.07971,184.07169 411.97916,183.68416C412.69351,183.37637 413.20459,182.71785 414.10001,182.70499C414.97931,182.69237 415.65884,182.1869 416.216,181.62099C416.87674,180.94984 417.45377,180.46286 418.20001,180.05765C418.96112,179.64436 419.91736,179.61551 420.52533,179.13033C421.14984,178.63194 422.18051,178.71191 422.79999,177.99965C423.26743,177.46222 424.15048,176.94493 424.47916,176.18416C424.82794,175.37686 424.2468,174.13858 424.936,173.74098C425.76279,173.26404 426.5,173.20499 427.14734,172.65231L427.49551,172.00049" id="svg_19" stroke-width="3" stroke="#000" fill="none"/>
  <path t="105680,105878,105896,105910,105924,105940,105956,105956,105964,105979,105994,106009,106018,106026,106035,106042,106051,106066,106071,106088,106088,106158,106174,106191,106207,106223,106244,106260,106270,106306,106338,106346,106362,106371,106385,106392,106407,106431,106439,106461,106470,106470,106493,106532,106555,106587,106611,106612,106618,106634,106650,106657,106658,106673,106681,106688,106696,106704,106712,106727,106751,106766,106789,106805,106813,106822,106838,106853,106860,106876,106892,106908,106915,106922,106930,106938,106946,106953,106954,106970,106978,106993,107048,107073,107073,107094,107096,107103,107111,107119,107126,107134,107147,107179,107195,107211,107225,107241,107249,107265,107266,107281,107297,107320,107352,107389,107397,107398,107413,107445,107453" d="M395.5,87.70499C395.5,89.50499 395.5,90.40498 395.5,91.30499C395.5,92.20499 395.36343,93.06162 395.784,93.90498C396.11392,94.56664 396.49774,95.40498 396.5,96.30499C396.50223,97.20499 396.5,98.10499 396.5,99.00499C396.5,99.90498 396.25574,100.93713 396.784,101.62099C397.26871,102.24848 397.40915,103.00973 397.50134,103.90498C397.58502,104.71759 398.29196,105.35938 398.47916,106.20499C398.69098,107.16187 399.27481,107.64159 399.49551,108.40948C399.74289,109.27015 399.21091,110.25696 399.51068,111.09432C399.77441,111.83106 400.4852,112.31571 400.5,113.20499C400.5163,114.18423 401.23093,114.55661 401.88934,115.14098C402.58252,115.75622 403.06885,116.38161 403.46399,117.14098C403.86316,117.9081 403.41788,118.90875 403.50015,119.80499C403.58383,120.71642 404.21747,121.10149 404.97916,121.70499C405.60284,122.19914 405.38858,123.27456 405.85718,124.00499C406.37036,124.8049 407.24112,125.23877 407.46399,126.10499C407.68842,126.9773 407.31113,127.97429 407.7215,128.80499C408.06265,129.49557 408.96005,130.06053 409.37866,130.80482C409.79578,131.54645 410.28931,132.0872 410.50134,132.90366C410.70923,133.7041 411.57758,134.13106 412.07468,134.73032C412.58478,135.34526 412.4946,136.30501 412.5,137.20499C412.50534,138.09436 413.27481,138.64159 413.49551,139.40948C413.74289,140.27016 413.5719,141.13681 414.07468,141.73032C414.61151,142.36401 414.96042,143.22859 415.44733,144.00049C415.89041,144.70293 416.4874,145.22566 416.5,146.10498C416.51291,147.00491 416.88608,147.84334 417.216,148.50499C417.63657,149.34834 417.66199,150.22174 418.216,150.78899C418.87418,151.46286 419.57016,151.9944 419.97916,152.72581C420.41174,153.49942 420.31305,154.42746 420.53601,155.30499C420.7551,156.16728 421.18253,156.9364 421.784,157.62099C422.30734,158.21664 422.42694,159.05516 422.92532,159.67966C423.41052,160.28761 423.5,161.10498 423.5,162.00499C423.5,162.90498 423.5,163.80499 423.5,164.70499C423.5,165.50499 423.48959,166.40504 423.5,167.30499C423.51044,168.20517 424.04321,168.90828 424.37851,169.80499C424.69659,170.65562 424.5,171.50499 424.5,172.40498L424.5,173.30499L424.52084,174.18416" id="svg_20" stroke-width="3" stroke="#000" fill="none"/>
  <path t="108648,108881,108921,108967,109021,109037,109061,109092,109106,109139,109139,109155,109171,109193,109208,109232,109248,109270,109278,109286,109302,109318,109318,109334,109334,109348,109372,109381,109388,109404,109426,109450,109450,109458,109482,109488,109488,109504,109504,109512,109536,109552,109568,109568,109598,109622,109622,109638,109652,109668,109684,109700,109722,109722,109738,109746,109746,109771,109785,109798,109808,109809,109824,109825,109856,109864,109894,109918,109926,109934,109943,109956,109972,109980,110004,110013,110066,110105,110145,110169,110185,110192,110215,110254,110276,110292,110316,110379,110395,110527,110539,110546,110546" d="M422.5,150.70499C424.20001,150.70499 425.20001,150.70499 426.10001,150.70499C427,150.70499 427.89999,150.70499 428.79999,150.70499C429.70001,150.70499 430.60001,150.70499 431.5,150.70499C432.29999,150.70499 433.20001,150.70499 434.10001,150.70499C435,150.70499 435.89999,150.70499 436.79999,150.70499C437.70001,150.70499 438.6044,150.6163 439.5,150.70499C440.3457,150.78873 440.71585,151.6441 441.66666,151.70499C442.32401,151.74707 443.33334,151.70499 444.1955,151.70499C445.10001,151.70499 446,151.70499 446.89999,151.70499C447.79999,151.70499 448.70001,151.70499 449.60001,151.70499C450.5,151.70499 451.43036,151.31203 452.21466,151.79031C453.01831,152.28038 453.60016,152.70499 454.38535,152.70499C455.32535,152.70499 456.01599,152.70499 457.08932,152.70499C458,152.70499 458.8045,152.70499 459.82132,152.70499C460.5,152.70499 461.47849,152.70499 462.5,152.70499C463.29999,152.70499 464.20001,152.70499 465.10001,152.70499C466,152.70499 466.89999,152.70499 467.79999,152.70499C468.70132,152.70499 469.38535,152.70499 470.32535,152.70499C471.33334,152.70499 472.1955,152.70499 473.10001,152.70499C474,152.70499 474.9375,152.78622 475.70132,152.42099C476.43121,152.07201 477.3251,151.73567 478.01599,151.70631C479.08902,151.66074 479.81793,151.11584 480.60001,150.82649C481.45175,150.51137 482.24658,150.38736 482.784,149.78899C483.35742,149.15053 484.08255,149.01736 484.88934,148.69432C485.67847,148.37834 486.20459,147.71759 487.10001,147.70499C488.00015,147.69231 488.75885,147.28368 489.59982,146.82632C490.34732,146.4198 490.81366,145.94543 491.69867,145.70366C492.49643,145.48572 492.87598,144.67653 493.52533,144.13033C494.16089,143.59572 494.91882,143.28851 495.41599,142.50632C495.88089,141.77486 496.47916,141.18416 496.48932,140.30499L496.216,139.50365L495.784,138.81966" id="svg_21" stroke-width="3" stroke="#000" fill="none"/>
  <path t="111838,112086,112181,112198,112235,112288,112305,112305,112336,112344,112352,112374,112398,112398,112453,112462,112485,112492,112518,112522,112596,112625,113031,113077,113088,113146,113289,113381,113392,113452,113460,113460,113467,113474,113531,113545,113552,113561,113592,113614,113630,113646,113662,113678,113700,113701,113723,113739,113777,113809,113833,113841,113871,113895,113895,113903,113920,113950,113958,113981,114003,114027,114067,114113,114145,114168,114364,114418,114450,114543,114558,114558,114574,114598,114613,114635,114635,114659,114691,114699,114699,114713,114721,114753,114807,114807,114832,114839,114847,114854,114877,114909,114933,114971,114987,115017,115025,115033,115041,115057,115073,115081,115111,115127,115135,115143,115173,115173,115205,115213,115222,115238,115243,115259,115267,115291,115299,115322,115337,115345,115369,115377,115377,115393,115407,115415,115439,115455,115455,115463,115485,115493,115517,115541,115549,115549,115556,115563,115579,115603,115611,115649,115649,115657,115689,115705,115759,115760,115783,115861,115907,115908,115945,115985,116015,116125,116173,116179,116227,116281,116306,116306,116328,116375,116384,116429,116446,116491,116640,116656,116663,116664,116695,116703,116757,116819,116851,116867,116983,117015,117045,117069,117078,117087,117087,117087,117087" d="M351.5,60.70499C351.5,59.00499 351.10181,58.00241 351.53601,57.14099C351.88828,56.44212 352.70758,55.9598 353.5,55.53832C354.14059,55.19759 355.05508,55.00404 355.88934,54.69432C356.62296,54.42197 357.14661,53.71032 357.98401,53.70499C358.84729,53.69949 359.88416,53.88595 360.69867,53.70365C361.50571,53.52303 362.07474,52.99714 362.88934,52.69432C363.62283,52.42166 364.13046,51.87341 365,51.68415C365.84628,51.49997 366.73138,51.02244 367.41599,50.42099C368.01166,49.89765 368.79999,49.7049 369.70001,49.70499C370.59982,49.70507 371.19687,50.14344 371.94266,50.58365C372.56418,50.95052 373.18259,51.28847 373.51068,52.09432C373.80475,52.8166 374.94238,52.43716 375.7955,52.70949C376.616,52.97141 377.1106,53.69965 378,53.70499C378.89996,53.71038 379.79999,53.70499 380.70001,53.70499C381.60001,53.70499 382.5,53.70499 383.29999,53.70499C384.20001,53.70499 385.10001,53.70499 386,53.70499C386.89999,53.70499 387.79999,53.70499 388.70001,53.70499C389.60001,53.70499 390.5,53.70499 391.29999,53.70499C392.20001,53.70499 393.10004,53.71038 394,53.70499C394.8894,53.69965 395.3739,52.97939 396.11066,52.71565C396.94803,52.41589 397.89999,52.70565 398.79999,52.70499C399.69867,52.70432 400.18008,51.74665 401,51.74665C401.81992,51.74665 401.98874,52.99197 402.7215,53.58365C403.36731,54.10513 403.9472,54.52682 404.52533,55.26899C405.01144,55.893 405.6543,56.62125 406.5,56.70499C407.29608,56.78381 407.98846,56.99294 408.7215,57.58365C409.36783,58.1045 410.0524,58.36796 410.79999,59.00049C411.55566,59.63985 412.18488,60.16461 412.94284,60.58349C413.59991,60.9466 414.72559,60.51173 415.44733,61.05765C416.07153,61.52979 416.84845,61.63413 417.47467,62.13032C418.13974,62.65729 418.71439,63.254 419.33334,63.87165C419.95197,64.48899 420.72034,64.47639 421.41599,64.98898C422.10687,65.49805 422.37891,66.41702 423.11066,66.69432C424.0032,67.03255 424.50357,67.4857 425.30133,67.70365C426.18634,67.94543 426.00735,68.70715 426.58533,69.41965C427.18893,70.16377 428.20001,69.76215 429,70.20499C429.79999,70.64782 430.7897,70.55621 431.44733,71.05766C432.12418,71.57375 432.15625,72.39525 432.52084,73.18415C432.87717,73.95515 433.57059,74.46864 434.5,74.70499C435.32364,74.91444 435.89722,75.38881 436.44733,76.06216C437.02106,76.76443 437.27438,77.52813 438.20001,77.70049C439.12888,77.87344 439.56903,78.45561 440.38666,78.78899C441.1358,79.09444 441.80411,79.6226 442.51468,80.26899C443.11658,80.81651 444.12515,80.6931 444.89999,81.13032C445.62625,81.54012 446.50085,81.66779 447.29999,81.70499C448.21765,81.7477 448.41248,82.65942 449.11066,83.26899C449.77725,83.85098 450.85663,83.56842 451.70001,83.98898C452.36163,84.31891 453.17667,84.80986 453.58401,85.50632C454.06702,86.33212 454.62411,87.00803 455.29999,87.41965C456.14246,87.93275 456.76297,88.48981 457.5,88.87165C458.25397,89.26228 459.06104,89.39032 459.88934,89.71565C460.6152,90.00076 460.5,91.20499 460.5,92.10499C460.5,93.00499 460.5,93.90498 460.5,94.80499C460.5,95.70499 460.51874,96.50519 460.5,97.40498C460.48199,98.26955 459.68192,98.69927 459.50134,99.50632C459.30511,100.3833 459.33267,101.32463 459.52084,102.20499C459.70224,103.05365 460.42462,103.79788 461.10001,104.26899C461.83359,104.78069 462.84845,104.63412 463.47467,105.13032C464.13974,105.65728 464.49429,106.52307 465.30133,106.70365C466.17831,106.89989 467.31174,106.69558 467.49551,107.40948C467.71875,108.27673 467.41666,109.20499 466.61417,109.80482L466.07584,110.00049L465.09332,110.26899L464.38,110.41965" id="svg_22" stroke-width="3" stroke="#000" fill="none"/>
  <path t="118477,118699,118716,118716,118724,118785,118794,118801,118811,118811,118818,118823,118831,118839,118855,118871,118880,118909,118925,118941,118965,119019,119081,119113,119128,119128,119159,119183,119199,119221,119245,119277,119323,119340,119348,119355,119385,119409,119447,119447,119461,119488,119505,119505,119519,119541,119705,119730,119737,119758,119759,119767,119782,119791" d="M469.5,109.70499C470.7215,110.58366 471.55957,110.98994 472.20001,111.35232C473.02078,111.81673 473.58737,112.40883 474.35068,112.67966C475.23608,112.9938 475.53625,113.84188 476.2045,114.34782C476.89972,114.87418 477.94897,115.10092 478.37866,115.80482C478.85349,116.58262 479.24982,117.32785 480.02084,117.68415C480.80975,118.04872 481.58408,118.11951 482.14734,118.75765C482.67288,119.35306 483.10864,120.21281 483.85718,120.64782C484.58755,121.07229 485.60001,120.70499 486.5,120.70499C487.29999,120.70499 488.20001,120.70499 489.10001,120.70499C490,120.70499 490.93481,120.46211 491.7955,120.70949C492.56339,120.93019 492.94131,121.86079 493.55267,122.35232C494.1972,122.87051 495.31848,122.75742 495.49866,123.50632C495.71326,124.3983 496.5004,124.67962 497.29999,124.70499C498.20139,124.73358 498.8923,125.14919 499.60001,125.80482C500.19363,126.35477 500.92261,126.86421 501.58401,127.42099C502.20078,127.94019 503.08224,128.31737 503.89999,128.67966C504.68466,129.02728 505.29999,129.50632 505.97916,130.20499L506.44284,131.00499L506.50134,131.90366" id="svg_23" stroke-width="3" stroke="#000" fill="none"/>
  <path t="123779,123971,123988,123988,123995,124011,124012,124027,124034,124034,124048,124096,124175,124261,124283,124314,124324,124331" d="M495.5,138.70499C495.66666,136.87166 496.3992,136.38239 496.47916,135.68416C496.60364,134.59723 496.33673,133.67015 496.58533,132.90498C496.84229,132.11409 497.42892,131.38869 497.48932,130.53032C497.5553,129.59258 497.41132,128.6006 497.5,127.70499C497.58374,126.85928 498.41467,126.41965 498.5,125.60499L498.5,124.70499L498.72134,123.82632" id="svg_24" stroke-width="3" stroke="#000" fill="none"/>
  <path t="125923,126468,126554,126570,126588,126601,126617,126647,126710,126772,126798,126849,126865,126905,126927,126935,126975,127005,127014,127053,127062,127124,127161,127209,127239,127251,127264,127287,127311,127333,127382,127397,127427,127482,127505,127529,127545,127554,127583,127615,127629,127708,127739,127739,127817,127841,127880,127942,127982,127998,128052,128092,128092,128106,128170,128193,128247,128269,128285,128309,128331,128347,128356,128458,128481,128482,128496,128506,128551,128558,128581,128621,128621,128635,128667,128675,128675,128691,128699,128707,128752,128769,128777,128807,128847,128886,128913,128913,128919,128920,128941,128979,129003,129011,129041,129049,129065,129102,129111,129159,129159,129222" d="M351.5,52.70499C351.5,51.00499 351.50958,50.10494 351.5,49.20499C351.48956,48.22565 350.72519,47.76838 350.50449,47.00049C350.25711,46.13982 350.5,45.20499 350.5,44.30499C350.5,43.40499 350.17465,42.22535 350.85718,41.76215C351.55618,41.28778 352.71588,41.92749 353.41599,41.42099C354.10956,40.91921 354.82169,40.89988 355.69867,40.70365C356.50571,40.52307 357.16345,39.89505 357.47916,39.18415C357.86847,38.30747 358.27481,37.76838 358.49551,37.00049C358.74289,36.13982 358.19009,35.14527 358.51068,34.31565C358.81708,33.52274 359.48715,33.00041 359.5,32.10499C359.51263,31.22566 360.10959,30.70292 360.55267,30.00049C361.03958,29.22859 361.37662,28.35374 361.92532,27.73032C362.43976,27.14586 363.13046,26.8734 364,26.68415C364.84628,26.49997 365.59387,25.76587 366.5,25.70499C367.29819,25.65135 368.20001,25.70499 369.10001,25.70499C370,25.70499 370.89999,25.70499 371.79999,25.70499C372.70001,25.70499 373.60001,25.70499 374.5,25.70499C375.29999,25.70499 376.32343,26.11767 377.14282,25.64782C377.83069,25.2534 378.10751,24.22236 378.78534,23.79032C379.55899,23.2972 380.40787,23.31991 380.92532,22.73032C381.48505,22.09256 381.93884,21.46279 382.66666,20.87165C383.36334,20.30579 384.14798,20.13957 384.7955,19.40499C385.37924,18.74277 385.67105,17.89225 386.5,17.70499C387.38388,17.50532 387.73395,16.74671 388.14734,16.00499C388.57297,15.24131 388.83191,14.3809 389.5,13.70499C390.07889,13.11933 390.85983,12.69743 391.52533,12.13032C392.12241,11.62151 392.78522,11.02657 393.41599,10.42099C393.98886,9.87098 394.32953,9.25297 394.51068,8.30499C394.66934,7.47461 395.31549,6.69958 395.55267,5.94782C395.836,5.04986 396.21124,4.42188 396.88934,3.76632C397.48517,3.1903 397.58948,2.28762 398.07468,1.67965C398.57306,1.05516 398.63742,0.25188 399.216,-0.37901C399.85251,-1.07307 400.41599,-1.58035 400.72134,-2.39501L401.216,-3.09501L401.55267,-3.93785" id="svg_25" stroke-width="3" stroke="#000" fill="none"/>
  <path t="130341,130470,130486,130494,130507,130515,130515,130531,130547,130555,130571,130579,130585,130679,130680,130696,130711,130757,130789,130797,130813,130813,130819,130842,130859,130896,130913,130937,130945,130969,130991,130999,131015,131031,131053,131077,131101,131122,131146,131179,131273,131280,131311,131343,131397,131414,131424,131975" d="M403.5,51.70499C404.11066,50.14099 404.92886,49.65259 405.52533,49.13032C406.10281,48.62468 407.06354,48.54799 407.79016,48.00049C408.54343,47.43292 408.92606,46.62741 409.52533,46.13032C410.14029,45.62022 410.98737,45.51121 411.58401,44.98899C412.35217,44.31664 413.06042,44.05136 413.79999,43.40948C414.46667,42.83087 415.05444,42.28736 415.7215,41.82648C416.45117,41.32235 417.63354,41.66616 418.14282,41.00049C418.66116,40.32297 418.95663,39.5745 419.58401,38.98899C420.27249,38.34646 421.06677,38.02729 421.46399,37.26899C421.86325,36.50677 421.88757,35.69003 422.52533,35.13032C423.11493,34.61288 423.48062,33.90344 423.5,33.00499C423.51865,32.14044 424.32742,32.11618 425.14282,31.64782C425.9548,31.18143 426.10901,30.1978 426.85718,29.76215C427.58612,29.3377 428.31046,29.21445 428.936,28.73032C429.68179,28.15313 430.5,27.87165 431.37851,27.48349L431.50015,26.60515L431.7215,25.82649" id="svg_26" stroke-width="3" stroke="#000" fill="none"/>
  <path t="134962,135806,135844,135900,135929,135952,136086,136110,136134,136147,136147,136303,136327,136337,136368,136491" d="M415.5,58.70499C415.5,57.00499 415.5,56.10499 415.5,55.20499C415.5,54.20499 415.5,53.30499 415.5,52.40499C415.5,51.50499 415.5,50.60499 415.5,49.70499C415.5,48.90499 415.5,48.00499 415.5,47.10499L415.5,46.20499L415.5,45.30499L415.5,44.40499" id="svg_27" stroke-width="3" stroke="#000" fill="none"/>
  <path t="139026,139205,139205,139221,139221,139237,139245,139261,139278,139278,139294,139295,139300,139308,139330,139330,139360,139376,139376,139384,139393,139409,139414,139414,139422,139422,139462,139470,139479,139486,139500,139509,139516,139532,139540,139541,139556,139570,139570,139578,139586,139602,139656" d="M446.5,18.70499C449.10001,18.70499 450.10001,18.70499 451.09549,18.70499C451.84283,18.70499 452.74283,18.70507 453.70001,18.70499C454.60001,18.7049 455.46432,18.47646 456.13599,18.13032C456.94812,17.71178 457.89325,17.99523 458.85333,17.69432C459.58026,17.46649 460.03986,16.45125 460.68533,16.14099C461.58057,15.71068 462.5004,15.73035 463.29999,15.70499C464.20139,15.67639 464.92313,15.02008 465.8045,14.76215C466.63376,14.51947 467.50131,14.7555 468.47849,14.70482C469.30197,14.66211 470.05753,14.29982 470.88934,13.73032C471.55402,13.27525 472.11066,12.71565 473,12.70499C473.88934,12.69432 474.41229,12.07314 475.14667,11.67965C475.91837,11.26617 476.91165,11.10186 477.39017,10.40499C477.94589,9.5957 478.30133,8.99032 479.20001,8.70949L480.14282,8.64782L480.58401,7.98899L481.37851,7.48349" id="svg_28" stroke-width="3" stroke="#000" fill="none"/>
  <path t="140744,140961,140983,141007,141015,141069,141101,141101,141123,141131,141139,141155,141155,141171,141195,141216,141232,141240,141256,141256,141278,141278,141302,141310,141326,141334,141342,141356,141364,141388,141404,141420,141426,141442" d="M458.5,26.70499C460.20001,26.64782 460.92236,26.0188 461.79999,25.76215C462.66559,25.50903 463.65427,25.88826 464.5,25.53832C465.28464,25.21366 466.03204,24.7702 466.79999,24.35232C467.6409,23.89473 468.5,23.70499 469.29999,23.70499C470.20001,23.70499 471.10001,23.70499 472,23.70499C472.89999,23.70499 473.84317,23.82165 474.60016,23.48365C475.31516,23.16441 476.15134,22.73485 477.01599,22.70632C477.97864,22.67456 478.89999,22.70565 479.79999,22.70499C480.69867,22.70432 481.17661,22.13613 481.936,21.74099C482.70309,21.34183 483.69867,21.70365 484.44733,21.35232L484.936,20.74099L485.89999,20.70499L486.79999,20.70049" id="svg_29" stroke-width="3" stroke="#000" fill="none"/>
  <path t="142387,142620,142630,142652,142668,142676,142690,142698,142698,142706,142754,142768,142784,142792,142808,142832,142838,142838,142854,142862,142870,142878,142886,142886,142894,142902,142902,142917,142934,142934,142956,142964,142988,143026,143121,143175" d="M468.5,37.70499C471.08932,37.70499 472,37.70499 472.89999,37.70499C473.79999,37.70499 474.70001,37.70499 475.60001,37.70499C476.5,37.70499 477.29999,37.70499 478.20001,37.70499C479.10001,37.70499 480,37.70499 480.89999,37.70499C481.79999,37.70499 482.70001,37.70499 483.60001,37.70499C484.5,37.70499 485.29999,37.70499 486.20001,37.70499C487.10001,37.70499 488,37.70499 488.91068,37.70499C489.82132,37.70499 490.67465,37.70499 491.61465,37.70499C492.5,37.70499 493.29999,37.70499 494.13599,37.70499C495.15268,37.70499 495.84732,37.70499 496.86401,37.70499C497.79999,37.70499 498.70001,37.70499 499.60001,37.70499L500.5,37.70499L501.33334,37.53832" id="svg_30" stroke-width="3" stroke="#000" fill="none"/>
  <path t="143862,143963,143980,143996,144018,144026,144042,144050,144050,144058,144065,144065,144073,144073,144073,144079,144087,144104,144127,144127,144143,144165,144205,144238,144244,144346" d="M469.5,46.70499C471.20001,46.70499 472.20001,46.70499 473.10001,46.70499C474,46.70499 474.89999,46.70499 475.79999,46.70499C476.60016,46.70499 477.38535,46.70499 478.32535,46.70499C479.33334,46.70499 480.16135,46.70499 481.04266,46.70499C481.75067,46.70499 482.73199,46.70499 483.68567,46.70499C484.70001,46.70499 485.60001,46.70499 486.5,46.70499C487.29999,46.70499 488.20001,46.70499 489.10001,46.70499C490,46.70499 490.89999,46.70499 491.79999,46.70499L492.70001,46.70499" id="svg_31" stroke-width="3" stroke="#000" fill="none"/>
  <path t="145328,145491,145500,145516,145531,145540,145547,145553,145553,145561,145569,145569,145569,145577,145577,145585,145585,145594,145594,145610,145610,145625,145625,145639,145639,145647,145663,145679,145695,145695,145717,145741,145773" d="M466.5,57.70499C469.08932,57.70499 470,57.70499 470.89999,57.70499C471.79999,57.70499 472.70001,57.70499 473.60001,57.70499C474.5,57.70499 475.29999,57.70499 476.172,57.70499C477.04285,57.70499 478.02084,57.70499 478.81732,57.70499C479.81332,57.70499 480.66043,57.81913 481.61465,57.70232C482.31378,57.61674 482.85062,56.79568 483.38535,56.18765C484.0849,55.39223 484.70474,55.10402 485.69983,54.60515C486.47464,54.21671 487.32187,53.79855 488.08932,53.71565C488.99478,53.61784 489.89999,53.70499 490.8045,53.70499C491.82132,53.70499 492.5,53.70499 493.47833,53.70482L494.37866,53.48365L494.78534,52.79032" id="svg_32" stroke-width="3" stroke="#000" fill="none"/>
  <path t="146687,146747,146764,146780,146780,146788,146796,146805,146813,146819,146819,146833,146833,146849,146873,146894,146903,146911,146919,146919,146927,146935,146935,146943,146944,146944,146951,146951,146957,146989,147005,147005,147021,147021,147035,147059,147059,147067" d="M470.5,68.70499C472.20001,68.70499 473.13599,68.70499 473.98401,68.70499C474.84732,68.70499 475.86401,68.70499 476.79999,68.70499C477.70001,68.70499 478.60001,68.70499 479.5,68.70499C480.25717,68.70499 481.15268,68.70499 482.01599,68.70499C482.97916,68.70499 483.89999,68.70499 484.79999,68.70499C485.70001,68.70499 486.60074,68.74165 487.5,68.70499C488.20175,68.67638 488.97607,68.09027 489.8215,67.82632C490.68173,67.55775 491.70966,67.5088 492.29999,67.26899C493.11481,66.93799 494.08237,66.37971 494.664,66.14098C495.72177,65.70684 496.60001,65.70499 497.5,65.70499C498.25717,65.70499 499.15268,65.70499 500.01599,65.70499C501,65.70499 501.98267,65.70365 502.79016,65.64782L503.47916,65.20499" id="svg_33" stroke-width="3" stroke="#000" fill="none"/>
  <path t="148495,148737,148737,148745,148767,148783,148799,148799,148815,148823,148844,148860,148868,148877,148877,148892,148900,148908,148979,149009,149009,149018,149040,149111,149112,149135,149149,149165,149173,149189,149205,149205,149213,149235,149258,149283" d="M473.5,83.70499C474.5,84.70499 475.29999,84.70499 476.20001,84.70499C477.10001,84.70499 478.02084,84.70499 478.82132,84.70499C479.67465,84.70499 480.61465,84.70499 481.60001,84.70499C482.5,84.70499 483.11227,84.34825 483.78534,83.78899C484.4545,83.23297 485.21298,83.08716 486.10001,82.67966C486.91275,82.30628 487.69699,81.7477 488.60001,81.70499C489.49899,81.66246 490.41074,82.06934 491.14282,81.64782C491.95432,81.18058 492.5,80.70499 493.29999,80.70499C494.20001,80.70499 495.17859,81.04803 495.97916,80.68415C496.75241,80.3327 497.26303,79.75059 498.14816,79.70049C498.93356,79.65603 499.58267,78.90366 500,78.20499L500.44733,77.40948L501,76.70499" id="svg_34" stroke-width="3" stroke="#000" fill="none"/>
  <path t="151065,151217,151217,151225,151225,151234,151235,151242,151242,151247,151247,151247,151255,151255,151319,151333,151342,151349,151349,151357,151365,151443,151591,151731,151763" d="M476.5,94.70499C477.5,95.70499 478.25717,95.70499 479.15717,95.70499C479.90451,95.70499 480.89999,95.70512 481.70001,95.70499C482.70001,95.70482 483.55048,95.80001 484.5,95.37165C485.14221,95.08193 485.83224,94.34222 486.47849,93.72665C487.18414,93.05451 488.01434,92.85741 488.89999,92.69432C489.73145,92.54121 490.4874,91.79002 491.29999,91.70632C492.19528,91.61411 493.10001,91.70499 493.97916,91.68415L494.52533,91.13032L495.2045,90.70949L496.13599,90.66898" id="svg_35" stroke-width="3" stroke="#000" fill="none"/>
  <path t="161502,161715,161724,161749,161770,161770,161793,161801,161818,161825,161833,161839,161862,161871,161887,161910,161932,161981,161982,162011,162030,162044,162044,162052,162121,162151,162176,162176,162229,162245,162261,162262,162331,162348,162363,162393,162393,162441,162457,162463,162471,162479,162496,162496,162541,162541,162557,162565,162582,162589,162605,162619,162627,162635,162635,162643,162651,162651,162659,162667,162675,162675,162683,162683,162697,162697,162713,162729,162737,162737,162746,162746,162753,162767,162767,162823,162839,162839,162847,162853,162869,162939,162948,163080,163096,163106,163189,163307,163322,163330,163330,163340,163341,163346,163346,163347,163347,163353,163354,163361,163361,163361,163369,163369,163377,163377,163391,163391,163422,163423,163447,163463,163470,163471,163477,163477,163485,163485,163493,163493,163501,163501,163509,163532,163563,163579,163587,163619,163633,163641,163649,163649,163665,163665,163768,163875,163891,163915,163915,164039,164048,164071,164079,164080,164087,164101,164187,164335,164383,164421,164437,164446,164446,164453,164515,164548,164562" d="M343.5,193.70499C343.5,194.70499 343.85672,195.31726 344.41599,195.99033C344.97202,196.65948 344.97162,197.65062 345.55267,198.34782C346.04559,198.93932 347.02802,199.15848 347.7955,199.65231C348.49185,200.10037 348.24451,201.27539 348.936,201.66899C349.77438,202.14618 350.79999,201.70499 351.70001,201.70499C352.60001,201.70499 353.5,201.70499 354.29999,201.70499C355.20001,201.70499 356.02084,201.70499 356.98401,201.70499C357.84732,201.70499 358.74283,201.70499 359.70001,201.70499C360.60001,201.70499 361.5,201.70499 362.29999,201.70499C363.20001,201.70499 364.02084,201.70499 364.98401,201.70499C365.84732,201.70499 366.74283,201.70499 367.70001,201.70499C368.60001,201.70499 369.5,201.70499 370.29999,201.70499C371.20001,201.70499 372.10001,201.70499 373,201.70499C373.89999,201.70499 374.8045,201.70499 375.66666,201.70499C376.5,201.70499 377.47849,201.70499 378.29868,201.70499C379.20001,201.70499 380.10001,201.70499 381,201.70499C381.89999,201.70499 382.79999,201.70499 383.70001,201.70499C384.60001,201.70499 385.5,201.70499 386.29999,201.70499C387.13599,201.70499 388.15268,201.70499 388.84732,201.70499C389.86401,201.70499 390.8045,201.70499 391.66666,201.70499C392.5,201.70499 393.47867,201.70499 394.25266,201.70499C395.15268,201.70499 396.01602,201.71057 396.97916,201.70499C397.90005,201.69965 398.64359,201.31194 399.38535,200.98898C400.2767,200.60091 401.02563,200.82338 402,200.68416C403.00836,200.54008 403.6395,200.00999 404.61465,199.79031C405.48236,199.59485 406.29999,199.70499 407.20001,199.70499C408.10001,199.70499 409.05972,200.01489 409.88934,199.69432C410.68225,199.38794 411.20459,198.71785 412.10001,198.70499C412.97931,198.69237 413.6304,198.24831 414.216,197.62099C414.85858,196.93263 415.60016,196.70499 416.38535,196.70499C417.16617,196.70499 418.01883,196.70499 419.14267,196.70499C419.80533,196.70499 420.5,196.70499 421.53201,196.70499C422.72934,196.70499 423.45834,196.70499 424.5,196.70499C425.29999,196.70499 426.10001,196.70499 427.10001,196.70499C427.89999,196.70499 428.89999,196.70499 429.70001,196.70499C430.69983,196.70499 431.4805,196.75658 432.47849,196.70482C433.30197,196.66211 433.96826,196.14279 434.79999,195.75766C435.6731,195.35336 436.37039,194.9315 437.15717,194.75766C438.08868,194.55182 438.89252,194.39951 439.70001,194.13033C440.69135,193.79987 441.48087,193.76698 442.47849,193.70482C443.30148,193.65353 444.03717,192.95804 444.89999,192.74098C445.7735,192.52124 446.79788,192.86433 447.44733,192.35233C448.06195,191.86777 448.79999,191.70506 449.70001,191.70499C450.60016,191.7049 451.39438,191.64365 452.32535,191.27965C453.02322,191.00679 454.03287,191.00397 454.88934,190.69432C455.64066,190.4227 456.2084,189.7348 457.01733,189.70631C457.97855,189.67245 458.91049,189.57228 459.79999,189.70949C460.73138,189.85316 461.26862,190.55681 462.20001,190.70049C463.08951,190.83769 464,190.70499 464.89999,190.70499C465.79999,190.70499 466.70001,190.70499 467.60001,190.70499C468.5,190.70499 469.29999,190.70499 470.20001,190.70499L471.10001,190.70499L471.97916,190.68416L472.52533,190.13033" id="svg_36" stroke-width="3" stroke="#000" fill="none"/>
  <polyline timestamps="166950,167081" startTime="1502027723205" id="svg_37" points="461.5,160.70498657226562 461.5,159.0049865722656 " stroke-linecap="round" stroke-width="3" stroke="#000" fill="none"/>
  <path t="167145,167457,167463,167472,167488,167502,167503,167518,167532,167548,167572,167596,167605,167612,167634,167666,167674,167696,167720,167744,167761,167768,167790,167806,167830,167839,167846,167868,167900,167900,167947,167956,167956,168025,168041,168050,168072,168073,168119,168143,168165,168190,168235,168244,168267,168313,168377,168391,168415,168415,168440,168465,168501,168510,168555,168673,168703,168899,168961,169547,169655,169781,169999,170015,170023,170024,170037,170155,170193,170218,170271,170335,170357,170365,170381,170467,170483,170492,170506,170536,170568,170591,170614,170615,170644,170676,170692,170731,170787,170817,170834,170864,170864,170911,170935,170957,170973,171005,171005,171021,171051,171066,171090,171136,171152,171160,171176,171190,171206,171206,171222,171232,171254,171255,171270,171308,171355,171356,171403,171457,171481,171511,171567,171589,171659,171831" d="M461.5,156.70499C461.5,158.50499 461.74109,159.17738 462.216,159.87431C462.7179,160.61081 462.5,161.68349 462.5,162.50365C462.5,163.40498 462.70023,164.10577 463.216,164.78899C463.68054,165.40434 463.48318,166.40514 463.5,167.30499C463.51801,168.26949 463.97522,168.90506 464.66666,169.53831C465.26459,170.08594 465.41132,170.80937 465.5,171.70499C465.58374,172.55067 466.35745,173.03625 466.92532,173.67966C467.44995,174.27405 467.9213,174.96385 468.37866,175.80482C468.78519,176.55231 469.37125,177.07019 469.50134,177.90498C469.64401,178.82048 470.20337,179.40611 470.89999,180.10498C471.49902,180.70595 472.24112,181.23877 472.46399,182.10498C472.68842,182.97729 472.33725,183.96185 472.72134,184.80499C473.07669,185.58501 473.65851,186.21994 474.216,186.78899C474.87506,187.46167 475.45721,187.98735 475.5,188.90498C475.5419,189.80385 476.00781,190.31363 476.44284,191.06215C476.86731,191.79253 476.5,192.80499 476.5,193.70499C476.5,194.50499 476.5,195.40498 476.5,196.30499C476.5,197.20499 476.1778,198.16261 476.51068,199.09431C476.77399,199.83122 477.1452,200.40047 477.52084,201.18416C477.85791,201.88737 479,201.70499 479.89999,201.70499C480.79999,201.70499 481.88016,201.95232 482.44733,201.34782C483.06833,200.68596 483.35184,199.93637 483.49551,199.00499C483.63272,198.11549 483.19012,197.14526 483.51068,196.31566C483.81708,195.52275 484.13675,194.90321 484.53601,194.14099C484.93323,193.38269 485.94974,193.1597 486.41467,192.41965C486.90271,191.64279 487.06885,191.02837 487.46399,190.26898C487.86316,189.50188 487.5,188.50499 487.5,187.60498C487.5,186.70499 487.5,185.90498 487.5,185.00499C487.5,184.10498 487.5,183.20499 487.5,182.30499C487.5,181.40498 487.5,180.50499 487.5,179.60498C487.5,178.70499 487.51801,177.9048 487.5,177.00499C487.48199,176.10445 486.9726,175.35925 486.58401,174.50499C486.23688,173.74187 485.69983,173.05238 485.52084,172.20499C485.33481,171.32419 485.48932,170.31566 485,169.70499C484.51068,169.09431 484.3559,168.33653 483.85266,167.65231C483.36267,166.98611 483.5267,166.06853 483.49866,165.22099C483.47006,164.35632 482.95895,163.55229 482.62149,162.60498C482.31674,161.74948 482.86435,160.79424 482.44284,160.06215C481.97559,159.25064 481.5,158.70499 481.5,157.90498C481.5,157.00499 481.5,156.10498 481.5,155.20499C481.5,154.30499 481.5,153.40498 481.50134,152.50632L481.85266,151.75766L482.46399,151.26898" id="svg_38" stroke-width="3" stroke="#000" fill="none"/>
  <path t="173083,173547,173586,173610,173610,173632,173656,173664,173710,173735,173767,173781,173832,173832,173852,173868,173883,173891,173899,173915,173978,173994,173994,174007,174039,174063,174079,174134,174180,174220,174228,174250,174290,174306,174320,174320,174343,174406,174430,174462,174516,174525,174633,174634,174648,174665,174682,174688,174695,174696,174709,174757,174795,174819,174836,174843,174897,174952,175038,175047,175077,175087,175087,175094,175102,175102,175109,175124,175131,175155,175258,175452,175468" d="M487.5,148.70499C488.5,148.70499 489.41626,148.8593 489.5,149.70499C489.57883,150.5011 489.5,151.40498 489.5,152.30499C489.5,153.20499 489.5,154.10498 489.5,155.00499C489.5,155.90498 489.5,156.80499 489.5,157.70499C489.5,158.50499 489.5,159.40498 489.5,160.30499C489.5,161.20499 489.5,162.10498 489.5,163.00499C489.5,163.90498 489.5,164.80499 489.5,165.70499C489.5,166.50499 489.5,167.40498 489.5,168.30499C489.5,169.20499 489.5,170.10498 489.5,171.00499C489.5,171.90498 489.38922,172.81183 489.5,173.70499C489.61151,174.60422 490.34851,174.99902 490.50134,175.90498C490.65546,176.81859 491.29852,177.3613 491.48932,178.30499C491.66364,179.16728 492.25165,179.64862 492.49551,180.40948C492.78253,181.30498 493.35638,181.75679 493.5,182.70499C493.61981,183.49597 493.48959,184.40504 493.5,185.30499C493.51044,186.20517 494.02719,186.91443 494.37851,187.80499C494.63913,188.46568 494.5,189.40498 494.5,190.30499C494.5,191.20499 494.43463,192.14243 493.92532,192.73032C493.3634,193.37894 492.68719,193.87602 492.5,194.70499C492.30042,195.58885 491.74921,196.15245 491.064,196.67966C490.41034,197.1826 489.70001,197.50632 489,198.20499C488.29999,198.90366 487.68185,199.3764 486.89999,199.73032C486.08939,200.09724 485.58401,200.90366 485.14282,201.64783L484.30133,201.70631L483.55716,202.06215L483.49551,203.00049" id="svg_39" stroke-width="3" stroke="#000" fill="none"/>
  <path t="179065,179250,179290,179298,179319,179344,179384,179422,179462,179471,179554,179610,179656,179734,179735,179758,179812,179845,179938,179952,179969,179984,180000,180029,180069,180085,180124,180148,180149,180178,180202,180234,180234,180248,180256,180280,180304,180366,180398,180428,180469,180469,180485,180506,180517,180554,180600,180624,180654,180702,180724,180734,180748,180756,180764,180788,180794,180802,180810,180826,180858,180896,180904,180904,180967,180983,181023,181037,181060,181084,181084,181106,181114,181122,181154,181178,181184,181192,181200,181223,181599,181623,181631" d="M346.5,71.70499C346.5,73.50499 346.5,74.40498 346.5,75.30499C346.5,76.20499 346.5,77.10499 346.5,78.00499C346.5,78.90498 346.77411,79.94331 346.27866,80.58366C345.78677,81.21937 345.5,81.90498 345.5,82.80499C345.5,83.70499 345.89297,84.63535 345.41467,85.41965C344.92459,86.2233 344.58868,86.80936 344.5,87.70499C344.41626,88.55069 343.56088,88.92021 343.5,89.80499C343.4382,90.70287 343.04968,91.2499 342.58533,91.99032C342.09726,92.76857 342.5,93.80499 342.5,94.70499C342.5,95.50499 342.18549,96.09212 341.66666,96.87165C341.19577,97.57911 341.5,98.50499 341.5,99.40498C341.5,100.30499 341.5,101.20499 341.5,102.10499C341.5,103.00499 341.5,103.90498 341.5,104.80499C341.5,105.70499 341.5,106.50499 341.5,107.40498C341.5,108.30499 341.6441,109.07343 342.14734,109.75765C342.63733,110.42387 342.13684,111.50188 342.53601,112.26899C342.93115,113.02836 343.94614,113.25255 344.41467,113.99032C344.85379,114.68179 344.17682,115.85941 344.72134,116.58366C345.20465,117.22649 345.88757,117.71996 346.52533,118.27966C347.11493,118.7971 347.09726,119.6428 347.58533,120.41965C348.05026,121.1597 348.53073,121.84927 349.2045,122.34782C349.89877,122.86155 350.89703,122.70621 351.5,123.20499C352.15585,123.74751 352.65994,124.57645 353.5,124.70499C354.29526,124.82667 355.05753,125.11016 355.88934,125.67966C356.55402,126.13472 357.1106,126.69965 358,126.70499C358.89996,126.71038 359.82169,126.89989 360.69867,126.70365C361.50571,126.52307 361.92532,125.73032 362.52533,125.13032L363.216,124.62099" id="svg_40" stroke-width="3" stroke="#000" fill="none"/>
  <path t="183302,183518,183596,183650,183674,183688,183704,183752,183774,183798,183844,183883,183930,183954,183978,184024,184056,184070,184081,184110,184181,184212,184231,184237,184258,184273,184282,184319,184390,184500,184554,184579,184640,184758,184759,184804" d="M349.5,45.70499C349.5,47.50499 349.5,48.40499 349.5,49.30499C349.5,50.20499 349.48932,51.09432 349,51.70499C348.51068,52.31565 348.78906,53.25696 348.48932,54.09432C348.22559,54.83106 347.89856,55.41917 347.46399,56.26899C347.10767,56.9658 346.50067,57.50632 346.5,58.40499C346.49933,59.30499 346.80991,60.26471 346.48932,61.09432C346.18292,61.88723 345.85504,62.50252 345.46399,63.26899C345.10831,63.96613 344.50067,64.50632 344.5,65.40498C344.49933,66.30499 344.80991,67.26471 344.48932,68.09432C344.18292,68.88723 343.49188,69.40951 343.5,70.30499C343.50818,71.20519 343.85718,72.00049 344.60001,72.58349L345.29999,72.70365L346.21466,72.79032" id="svg_41" stroke-width="3" stroke="#000" fill="none"/>
  <path t="189218,189265,189266,189274,189274,189282,189292,189297,189297,189303,189303,189319,189373,189374,189382,189392,189393,189399,189414,189415,189421,189429,189437,189437,189444,189451,189467,189483,189483,189499,189499,189507,189515,189529,189545,189545,189561,189623,189639,189647,189663,189663,189671,189685,189725,189741,189763,189771,189779,189795,189795,189811,189812,189841,189858,189875,189897,189898,189911,189951,189951,189959,189975,189989,190005,190005,190013,190013,190029,190029,190037,190045,190067,190067,190083,190131,190161,190177,190185,190185,190201,190209,190223,190239,190271,190293,190301,190333,190349,190365,190365,190379,190379,190403,190419,190443,190449,190457,190465,190473,190489,190505,190521,190527,190543,190560,190567,190576,190576,190591,190599,190608,190629,190661,190669,190683,190691,190691,190699,190707,190715,190739,190769,190785,190793,190810,190810,190817,190825,190833,190839,190839,190855,190863,190879,190879,190879,190887,190887,190895,190911,190925,190933,190949,190957,190957,190965,190965,190981,190987,191019,191035,191059,191122,191151,191238,191550,191558" d="M202.5,198.70499C203.5,198.70499 204.25717,198.70499 205.15266,198.70499C206.01601,198.70499 206.98575,198.80527 207.91066,198.69432C208.83873,198.58299 209.46388,198.09346 210.4785,197.82649C211.28014,197.61557 211.89458,197.40149 212.66667,196.87166C213.27579,196.45366 214.32533,196.70499 215.33333,196.70499C216.08934,196.70499 217.02083,196.70499 217.98399,196.70499C218.67467,196.70499 219.74283,196.70499 220.60001,196.70499C221.5,196.70499 222.30019,196.72298 223.2,196.70499C224.10054,196.68698 224.85094,196.13147 225.82133,195.82649C226.47586,195.62079 227.4785,195.70499 228.29866,195.70499C229.2,195.70499 229.94835,195.46295 230.584,194.98898C231.35281,194.41573 232.29402,194.60938 233,194.20499C233.79344,193.7505 234.7,193.70499 235.60001,193.70499C236.5,193.70499 237.3,193.70499 238.2,193.70499C239.10001,193.70499 240,193.70499 240.89999,193.70499C241.8,193.70499 242.7,193.70499 243.60001,193.70499C244.5,193.70499 245.39415,193.76624 246.15266,194.05765C247.02704,194.39357 247.86348,194.68698 248.8,194.70499C249.69983,194.72227 250.60017,194.70499 251.38533,194.70499C252.32533,194.70499 253.33333,194.70499 254.08934,194.70499C255,194.70499 255.89999,194.70499 256.8045,194.70499C257.66666,194.70499 258.5,194.70499 259.47867,194.70499C260.25266,194.70499 261.15268,194.70499 262.01599,194.70499C262.97916,194.70499 263.96619,194.8403 264.70001,194.41965C265.38657,194.02611 265.9151,193.03041 266.79999,192.76215C267.66302,192.5005 268.60001,192.70499 269.5,192.70499C270.29999,192.70499 271.29691,193.06815 272.064,192.66899C272.82339,192.27385 273.30133,191.70566 274.20001,191.70499C275.10001,191.70432 276,191.70499 276.89999,191.70499C277.8045,191.70499 278.82132,191.70499 279.5,191.70499C280.47849,191.70499 281.33316,191.5087 282.20001,191.76215C283.07764,192.01875 283.82651,192.48186 284.69867,192.70631C285.49957,192.91243 286.07474,193.41284 286.88934,193.71565C287.62283,193.98831 288.1106,194.69965 289,194.70499C289.89996,194.71039 290.79999,194.70499 291.70001,194.70499C292.60001,194.70499 293.5,194.70499 294.29999,194.70499C295.20001,194.70499 296.10001,194.70499 297,194.70499C297.89999,194.70499 298.79999,194.70499 299.70001,194.70499C300.60001,194.70499 301.5,194.70499 302.29999,194.70499C303.20001,194.70499 304.10001,194.70499 305,194.70499C305.89999,194.70499 306.82144,194.89888 307.69867,194.70366C308.50992,194.52313 309.06631,193.75169 309.85184,193.70949C310.86258,193.65517 311.70001,193.70499 312.60001,193.70499C313.5,193.70499 314.47885,194.14282 315.33334,193.53831C315.99542,193.06993 316.66589,192.53638 317.336,192.27965C318.10046,191.98677 319.16452,191.99048 319.92932,191.62099C320.68283,191.25696 321.29486,190.60994 322,190.20499C322.79291,189.74962 323.72589,189.81064 324.66666,189.53831C325.34073,189.34319 326.00967,188.58653 326.58267,187.99033C327.23651,187.31003 327.82605,186.84157 328.47467,186.27965C329.06259,185.77034 329.89999,185.70499 330.79999,185.70499C331.70001,185.70499 332.60001,185.70499 333.5,185.70499L334.37851,185.92648" id="svg_42" stroke-width="3" stroke="#000" fill="none"/>
  <path t="192962,193133,193149,193158,193158,193171,193171,193181,193181,193187,193187,193203,193219,193227,193235,193243,193250,193257,193273,193289,193297,193305,193320,193321,193326,193334,193335,193342,193445,193446,193462,193462,193470,193478,193484,193523,193547,193557,193562,193570,193578,193586,193601,193601,193617,193617,193625,193639,193663,193679,193695,193703,193725,193757,193765,193765,193781,193789,193835,193844,193860,193860,193873,193873,193881,193889,193897,193943,193959,193967,193975,193991,194015,194028,194029,194086,194108,194124,194131,194139,194163,194185,194248,194265,194273,194279,194295,194295,194306,194311,194321,194333,194341,194341,194356,194372,194388,194418,194467,194484,194489,194505,194506,194522,194530,194553,194561,194570,194583,194591,194599,194615,194623,194623,194639,194645,194661,194661,194677,194677,194677,194685,194685,194693,194702,194702,194709,194717,194723,194731,194747,194747,194763,194771,194779,194787,194802,194817,194825,194849,194849,194865,194879,194887,194903,194927,194936,194936,194951,194951,194957,194965,194981,194989,194997,195013,195021,195036,195036,195051,195067,195083,195099,195107,195170,195170,195199,195264,195536" d="M205.5,199.70499C207.10001,200.31566 207.71239,201.13966 208.5,201.53831C209.20334,201.8943 210.16179,202.05237 210.9045,202.40948C211.70494,202.79436 212.44714,203.27435 213.33333,203.53831C214.17412,203.78874 215.10001,203.70499 216,203.70499C216.89999,203.70499 217.82169,203.51009 218.69867,203.70631C219.50571,203.88689 219.9355,204.68698 220.89999,204.70499C221.79985,204.72179 222.7,204.70499 223.60001,204.70499C224.5,204.70499 225.3,204.70499 226.136,204.70499C226.98399,204.70499 227.84734,204.70508 228.87466,204.70499C229.82133,204.7049 230.54694,204.84402 231.4785,204.48366C232.25633,204.18275 232.93356,203.54999 233.55267,203.05765C234.19995,202.54291 235.2,202.70499 236.10001,202.70499C237,202.70499 237.89999,202.70499 238.8,202.70499C239.7,202.70499 240.60001,202.70499 241.5,202.70499C242.25717,202.70499 243.15266,202.70499 244.01601,202.70499C244.97917,202.70499 245.88933,202.69432 246.5,202.20499C247.11067,201.71565 248,201.70499 248.89999,201.70499C249.8,201.70499 250.75687,201.54222 251.60001,201.92632C252.38002,202.28166 253.11778,202.69658 253.89999,203.13033C254.72014,203.58511 255.60001,203.70499 256.5,203.70499C257.25717,203.70499 258.15268,203.70499 259.01599,203.70499C259.97916,203.70499 260.89999,203.70499 261.79999,203.70499C262.70001,203.70499 263.72491,203.44872 264.37866,203.92632C265.07776,204.43703 265.70001,204.70499 266.60001,204.70499C267.5,204.70499 268.30042,204.67773 269.20001,204.70499C270.14413,204.73358 270.37863,205.5463 271.02084,206.18416C271.66412,206.82309 272.71274,206.55432 273.59982,206.70515C274.45093,206.84987 274.31714,208.00739 274.784,208.62099C275.3075,209.30902 275.75906,209.9286 276.30133,210.50499C276.96899,211.21466 277.79861,211.67639 278.70001,211.70499C279.59955,211.73352 280.5,211.70499 281.29999,211.70499C282.20001,211.70499 283.10001,211.70499 284,211.70499C284.89999,211.70499 285.79999,211.70499 286.70001,211.70499C287.60001,211.70499 288.5,211.70499 289.29999,211.70499C290.20001,211.70499 291.10004,211.71039 292,211.70499C292.8894,211.69965 293.48578,211.07368 294.11066,210.67966C294.85919,210.20766 295.70465,209.82993 296.60001,209.70482C297.50647,209.57817 298.15366,208.90965 299,208.72581C299.89044,208.53241 300.82932,208.50111 301.52084,208.18416C302.51184,207.72995 303.07712,207.35109 303.89999,207.06215C304.87656,206.71924 305.66397,206.71033 306.61465,206.70499C307.5,206.70003 308.27744,206.5807 309.10001,206.13033C309.8804,205.70305 310.8121,205.72656 311.48532,205.27965C312.22928,204.78577 313.04492,204.68274 313.86401,204.27965C314.7327,203.85214 315.16931,203.15657 315.85718,202.76215C316.67657,202.2923 317.70001,202.70499 318.60001,202.70499C319.5,202.70499 320.29999,202.70499 321.20001,202.70499C322.10001,202.70499 323,202.70499 323.89999,202.70499C324.8045,202.70499 325.66666,202.70499 326.5,202.70499C327.47849,202.70499 328.29868,202.70499 329.20001,202.70499C330.10001,202.70499 331,202.70499 331.89999,202.70499C332.79999,202.70499 333.70001,202.70499 334.60001,202.70499C335.5,202.70499 336.29999,202.70499 337.20001,202.70499C338.10001,202.70499 339.03473,202.75789 339.79999,202.35233C340.6459,201.90402 341.5,201.70499 342.29999,201.70499L343.14282,201.64783L343.49866,200.90366L343.58533,199.99033" id="svg_43" stroke-width="3" stroke="#000" fill="none"/>
  <path t="199004,199272,199272,199288,199319,199366,199390,199398,199420,199460,199476,199476,199490,199522,199538,199568,199592,199616,199625,199646,199646,199748,199780,199958" d="M20.5,23.70499C20.5,22.70499 20.5,21.90499 20.5,21.00499C20.5,20.10499 20.5,19.20499 20.5,18.30499C20.5,17.40499 20.5,16.50499 20.5,15.60499C20.5,14.70499 20.5,13.90499 20.5,13.00499C20.5,12.10499 20.5,11.20499 20.5,10.30499C20.5,9.40499 20.5,8.50499 20.5,7.60499C20.5,6.70499 20.5,5.90499 20.5,5.00499L20.5,4.10499L20.5,3.20499" id="svg_44" stroke-width="3" stroke="#000" fill="none"/>
  <path t="200545,200660,200669,200676,200692,200716,200724,200746,200786,200832,200832,200857,200886,200902,200925,200988,201020,201066,201083,201083,201136,201160,201176,201206,201340" d="M30.5,0.70499C30.5,2.50499 30.5,3.40499 30.5,4.30499C30.5,5.20499 30.5,6.10499 30.5,7.00499C30.5,7.90499 30.5,8.80499 30.5,9.70499C30.5,10.50499 30.5,11.40499 30.5,12.30499C30.5,13.20499 30.5,14.10499 30.5,15.00499C30.5,15.90499 30.5,16.80499 30.5,17.70499C30.5,18.50499 30.5,19.40499 30.5,20.30499L30.5,21.20499L30.5,22.10499L30.5,23.00499" id="svg_45" stroke-width="3" stroke="#000" fill="none"/>
  <path t="202549,202749,202774,202836,202954,203000,203040,203218" d="M22.5,23.70499C24.2,23.70499 25.2,23.70499 26.1,23.70499C27,23.70499 27.9,23.70499 28.8,23.70499L29.7,23.70499" id="svg_46" stroke-width="3" stroke="#000" fill="none"/>
  <path t="203984,204177,204204,204288,204296,204388,204404,204522,204616,204640,204640,204649,204658,204661" d="M4.5,14.70499C6.3,14.70499 7.2,14.70499 8.1,14.70499C9,14.70499 9.9,14.70499 10.8,14.70499C11.7,14.70499 12.6,14.70499 13.5,14.70499C14.3,14.70499 15.2,14.70499 16.1,14.70499L17,14.70499" id="svg_47" stroke-width="3" stroke="#000" fill="none"/>
  <path t="205521,205753,205770,205794,205801,205817,205817,205824,205839,205863,205901,205917,205925,205955,206012,206012,206058,206090,206119,206129,206144,206153,206161,206161,206161,206168,206169,206176,206197,206221,206245,206259,206259,206275,206275,206291,206346,206354,206377,206385,206401,206401,206415,206439,206439,206447,206463,206493,206517,206533,206533,206557,206603,206619,206627,206641,206649,206665,206697,206697,206705,206721,206735,206751,206767,206767,206784,206791,206791,206797,206807,206814,206829,206845,206845,206877,206891,206891,206899,206907,206923,206939,206939,206953,206961,206969,206969,206977,206985,206993,207001,207001,207009,207017,207017,207025,207031,207032,207039,207055,207055,207071,207087,207087,207103,207103,207117,207125,207133,207157,207173,207187,207203,207203,207219,207235,207235,207251,207273,207289,207298,207305,207305,207321,207321,207329,207351,207359,207382,207391,207400,207400,207407,207415,207421,207429,207437,207453,207469,207477,207477,207491,207507,207515,207523,207531,207548,207548,207571,207571,207585,207585,207601,207609,207617,207634,207641,207655,207655,207671,207679,207695,207703,207711,207719,207719,207725,207725,207734,207741,207749,207757,207773,207789,207789,207803,207803,207811,207819,207835,207859,207859,207867,207867,207882,207889,207905,207913,207929,207945,207953,207968,207968,207983,207991,207999,208007,208016,208031,208045,208053,208053,208069,208085,208101,208101,208116,208155,208171,208179,208179,208193,208225,208233,208257,208271,208279,208287,208287,208303,208303,208319,208335,208341,208357,208373,208381,208389,208389,208405,208413,208418,208435,208451,208451,208459,208467,208467,208484,208500,208505,208513,208521,208529,208537,208553,208553,208561,208575,208584,208591,208600,208615,208623,208631,208631,208639,208647,208653,208669,208677,208685,208700,208709,208709,208717,208725,208739,208747,208755,208771,208779,208779,208787,208794,208803,208803,208809,208809,208825,208841,208849,208857,208872,208873,208881,208894,208910,208919,208935,208950,208951,208959,208965,208965,208973,208981,208981,208989,208989,208996,208997,209005,209012,209021,209036,209043,209051,209067,209068,209083,209083,209091,209107,209112,209128,209144,209145,209161,209184,209185,209199,209222,209239,209255,209255,209263,209263,209292,209317,209333,209333,209347,209363,209371,209395,209395,209411,209425,209441,209448,209464,209480,209496,209510,209511,209526,209543,209551,209559,209575,209588,209597,209605,209605,209628,209645,209659,209667,209675,209683,209691,209699,209699,209707,209715,209723,209737,209753,209753,209770,209770,209786,209801,209802,209831,209839,209879,209893,209901,209901,209909,209909,209933,209980,210004,210028,210043,210064,210065,210097,210126,210127,210152,210162,210183,210212,210213,210245,210394,210752" d="M33.5,12.70499C34.5,13.70499 35.04757,14.15113 35.78533,14.61965C36.4768,15.05878 37.5,14.70499 38.3,14.70499C39.2,14.70499 40.1,14.70499 41,14.70499C41.9,14.70499 42.8,14.70499 43.7,14.70499C44.6,14.70499 45.5,14.70499 46.3,14.70499C47.2,14.70499 48.1,14.70499 49,14.70499C49.9,14.70499 50.8033,14.6293 51.70133,14.70632C52.67714,14.79001 53.3177,15.18403 54.10133,15.42099C55.0774,15.71614 55.84283,15.70274 56.864,15.70499C57.8,15.70705 58.7,15.70499 59.6,15.70499C60.5,15.70499 61.25717,15.70499 62.15267,15.70499C63.016,15.70499 63.97917,15.70499 64.9,15.70499C65.8,15.70499 66.7,15.70499 67.6,15.70499C68.5,15.70499 69.3,15.70499 70.136,15.70499C71.15266,15.70499 71.84734,15.70499 72.864,15.70499C73.8,15.70499 74.7,15.70499 75.6,15.70499C76.5,15.70499 77.3,15.70499 78.2,15.70499C79.1,15.70499 80,15.70499 80.9,15.70499C81.8,15.70499 82.7,15.70499 83.6,15.70499C84.5,15.70499 85.3,15.70499 86.2,15.70499C87.1,15.70499 88,15.70499 88.91067,15.70499C89.82133,15.70499 90.67467,15.70499 91.61467,15.70499C92.5,15.70499 93.3,15.70499 94.2,15.70499C95.1,15.70499 96,15.70499 96.91067,15.70499C97.82133,15.70499 98.67467,15.70499 99.61467,15.70499C100.5,15.70499 101.3,15.70499 102.2,15.70499C103.1,15.70499 104.02084,15.70499 104.984,15.70499C105.67467,15.70499 106.74284,15.70499 107.6,15.70499C108.5,15.70499 109.3,15.70499 110.2,15.70499C111.1,15.70499 112.02084,15.70499 112.984,15.70499C113.67467,15.70499 114.74284,15.70499 115.60017,15.70499C116.38533,15.70499 117.32533,15.70499 118.33334,15.70499C119.08933,15.70499 120.02084,15.70499 120.984,15.70499C121.67467,15.70499 122.616,15.70499 123.66666,15.70499C124.32533,15.70499 125.33334,15.70499 126.1955,15.70499C127.1,15.70499 128,15.70499 128.89999,15.70499C129.8,15.70499 130.7,15.70499 131.60001,15.70499C132.5,15.70499 133.3,15.70499 134.136,15.70499C135.15266,15.70499 135.84734,15.70499 136.864,15.70499C137.8,15.70499 138.7,15.70499 139.60001,15.70499C140.5,15.70499 141.25717,15.70499 142.15266,15.70499C143.01601,15.70499 143.97917,15.70499 144.89999,15.70499C145.8,15.70499 146.7,15.70499 147.60001,15.70499C148.5,15.70499 149.3,15.70499 150.2,15.70499C151.10001,15.70499 152,15.70499 152.89999,15.70499C153.8,15.70499 154.7,15.70499 155.60001,15.70499C156.5,15.70499 157.3,15.70499 158.2,15.70499C159.10001,15.70499 160,15.70499 160.89999,15.70499C161.8045,15.70499 162.66667,15.70499 163.52083,15.70499C164.5,15.70499 165.28934,15.70499 166.33333,15.70499C167.08934,15.70499 168,15.70499 168.89999,15.70499C169.8,15.70499 170.7,15.70499 171.60001,15.70499C172.5,15.70499 173.27744,15.82928 174.10001,16.27965C174.88039,16.70693 175.8,16.70499 176.7,16.70499C177.60001,16.70499 178.5,16.70499 179.25717,16.70499C180.15266,16.70499 181.01601,16.70499 181.97917,16.70499C182.89999,16.70499 183.8,16.70499 184.7,16.70499C185.60001,16.70499 186.5,16.70499 187.25717,16.70499C188.15266,16.70499 189.01601,16.70499 189.97917,16.70499C190.89999,16.70499 191.8045,16.70499 192.66667,16.70499C193.5,16.70499 194.4785,16.70499 195.29866,16.70499C196.2,16.70499 197.10001,16.70499 198,16.70499C198.89999,16.70499 199.8,16.70499 200.7,16.70499C201.60001,16.70499 202.5,16.70499 203.3,16.70499C204.2,16.70499 205.10001,16.70499 206,16.70499C206.89999,16.70499 207.8,16.70499 208.7,16.70499C209.60001,16.70499 210.5,16.70499 211.3,16.70499C212.2,16.70499 213.02083,16.70499 213.98399,16.70499C214.84734,16.70499 215.74283,16.70499 216.7,16.70499C217.60001,16.70499 218.5,16.70499 219.3,16.70499C220.2,16.70499 221.10001,16.70499 222,16.70499C222.89999,16.70499 223.8,16.70499 224.7,16.70499C225.60017,16.70499 226.38533,16.70499 227.32533,16.70499C228.01601,16.70499 229.08934,16.70499 230,16.70499C230.89999,16.70499 231.8,16.70499 232.7,16.70499C233.60001,16.70499 234.5,16.70499 235.3,16.70499C236.2,16.70499 237.10001,16.70499 238,16.70499C238.91066,16.70499 239.82133,16.70499 240.5,16.70499C241.61467,16.70499 242.5,16.70499 243.3,16.70499C244.2,16.70499 245.10001,16.70499 246,16.70499C246.89999,16.70499 247.8,16.70499 248.7,16.70499C249.60001,16.70499 250.5,16.70499 251.3,16.70499C252.2,16.70499 253.10001,16.70499 254,16.70499C254.89999,16.70499 255.8,16.70499 256.70001,16.70499C257.60001,16.70499 258.5,16.70499 259.29999,16.70499C260.20001,16.70499 261.10001,16.70499 262,16.70499C262.89999,16.70499 263.79999,16.70499 264.70001,16.70499C265.60001,16.70499 266.5,16.70499 267.29999,16.70499C268.20001,16.70499 268.90079,16.50477 269.58401,15.98899C270.19934,15.52444 271.20001,15.70499 272.13599,15.70499C272.98401,15.70499 273.84732,15.7058 274.86401,15.70499C275.70132,15.70432 276.668,15.54175 277.32535,15.27965C278.33545,14.87691 279.08926,14.71032 280,14.70499C280.89996,14.69972 281.80472,14.79587 282.70001,14.70365C283.5126,14.61995 284.15262,13.90481 285,13.72582C285.8808,13.53977 286.79999,13.70499 287.70001,13.70499C288.60001,13.70499 289.5,13.70499 290.29999,13.70499C291.25717,13.70499 292.15268,13.70499 293.01599,13.70499C293.87466,13.70499 294.8215,13.70499 295.71066,13.70499C296.69983,13.70499 297.47916,13.70499 298.47849,13.70499C299.1955,13.70499 300.10001,13.70499 301,13.70499C301.89999,13.70499 302.79999,13.70499 303.70001,13.70499C304.60001,13.70499 305.5,13.70499 306.38535,13.70499C307.32535,13.70499 308.01599,13.70499 309.08932,13.70499C309.89999,13.70499 310.79999,13.70499 311.70001,13.70499C312.60016,13.70499 313.38535,13.70499 314.32535,13.70499C315.33334,13.70499 316.08932,13.70499 317,13.70499C317.89999,13.70499 318.8045,13.70499 319.82132,13.70499C320.5,13.70499 321.47849,13.70499 322.29868,13.70499C323.20001,13.70499 324.13599,13.70499 324.98401,13.70499C325.84732,13.70499 326.86401,13.70499 327.70001,13.70499C328.60001,13.70499 329.5,13.70499 330.29999,13.70499C331.20001,13.70499 332.10001,13.70499 333,13.70499C333.89999,13.70499 334.79999,13.70499 335.70001,13.70499C336.60001,13.70499 337.5,13.70499 338.29999,13.70499C339.20001,13.70499 340.10001,13.70499 341,13.70499C341.89999,13.70499 342.79999,13.70499 343.70001,13.70499C344.60001,13.70499 345.5,13.70499 346.29999,13.70499C347.20001,13.70499 348.10001,13.70499 349,13.70499C349.89999,13.70499 350.79999,13.70499 351.70001,13.70499C352.60001,13.70499 353.5,13.70499 354.29999,13.70499C355.20001,13.70499 356.10001,13.70499 357,13.70499C357.91068,13.70499 358.82132,13.70499 359.67465,13.70499C360.616,13.70499 361.384,13.70499 362.32535,13.70499C363.33334,13.70499 364.08932,13.70499 365,13.70499C365.89999,13.70499 366.79999,13.70499 367.70132,13.70499C368.66666,13.70499 369.5,13.70499 370.47849,13.70499C371.1955,13.70499 372.10001,13.70499 373,13.70499C373.89999,13.70499 374.79999,13.70499 375.70001,13.70499C376.60016,13.70499 377.38535,13.70499 378.32535,13.70499C379.33334,13.70499 380.11157,13.88528 381,13.68415C381.96237,13.46629 382.59387,12.76587 383.5,12.70499C384.29819,12.65135 385.20001,12.70499 386.10001,12.70499L387,12.70499" id="svg_48" stroke-width="3" stroke="#000" fill="none"/>
  <path t="212744,212865,212885,212903,212903,212910,212910,212910,212913,212913,212913,212926,212942,212990,213005,213021,213359,213359" d="M2.5,8.70499C4.3,8.70499 5.09966,8.74172 5.932,9.13032C6.55574,9.42153 7.55218,9.64022 8.52083,9.68415C9.19867,9.71489 10.45683,9.70499 11.21733,9.70499C12.012,9.70499 12.97917,9.70499 13.9,9.70499C14.8,9.70499 15.7,9.70499 16.6,9.70499L17.5,9.70499L18.3,9.70499" id="svg_49" stroke-width="3" stroke="#000" fill="none"/>
  <path t="214537,214668,214676,214701,214722,214731,214738,214747,214754,214763,214763,214785,214832,214856,214870,214886,214886,214894,214918,214934,214942,214956,214965,214965,214980,214996,215003,215019,215033,215049,215057,215057,215081,215106,215112,215113,215128,215136,215152,215152,215176,215185,215201,215215,215223,215246,215262,215276,215276,215292,215292,215324,215338,215362,215378,215386,215402,215402,215425,215448,215463,215479,215487,215493,215509,215533,215534,215549,215557,215571,215579,215595,215595,215619,215627,215636,215642,215650,215658,215673,215689,215713,215721,215727,215751,215759,215760,215783,215799,215821,215829,215853,215878,215891,215892,215901,215901,215908,215908,215916,215916,215931,215961,215977,215978,215986,216002,216018,216026,216039,216055,216063,216072,216072,216079,216095,216095,216104,216111,216118,216135,216135,216173,216195,216195,216203,216220,216228,216235,216252,216266,216266,216273,216305,216337,216351,216359,216375,216391,216400,216400,216415,216422,216429,216430,216438,216445,216446,216461,216470,216477,216493,216499,216507,216507,216515,216515,216523,216523,216531,216539,216540,216540,216547,216547,216548,216555,216556,216563,216579,216593,216593,216609,216609,216619,216619,216626,216634,216649,216650,216672,216711,216727,216741,216749,216757,216758,216765,216773,216781,216790,216803,216820,216836,216844,216844,216868,216876,216883,216897,216906,216914,216929,216937,216938,216946,216961,216975,216991,216999,217007,217015,217031,217032,217045,217054,217054,217062,217077,217087,217094,217109,217110,217117,217124,217140,217147,217155,217163,217164,217171,217179,217193,217202,217209,217217,217233,217257,217279,217287,217287,217303,217327,217343,217343,217350,217365,217381,217397,217398,217405,217421,217436,217443,217451,217467,217468,217475,217499,217513,217529,217545,217569,217591,217592,217607,217607,217623,217639,217639,217647,217661,217677,217685,217686,217709,217733,217747,217771,217771,217787,217787,217803,217804,217833,217841,217857,217882,217889,217911,217927,217943,217944,217951,217973,217997,218013,218021,218037,218044,218051,218052,218075,218099,218115,218129,218145,218161,218161,218177,218177,218185,218193,218199,218207,218223,218247,218247,218256,218269,218301,218317,218325,218341,218349,218363,218387,218419,218441,218449,218450,218465,218489,218503,218527,218527,218543,218559,218581,218613,218629,218645,218667,218699,218699,218731,218777,219668" d="M33.5,8.70499C35.3,8.70499 36.2,8.70499 37.1,8.70499C38,8.70499 38.9,8.70499 39.8,8.70499C40.7,8.70499 41.6,8.70499 42.5,8.70499C43.3,8.70499 44.2,8.70499 45.1,8.70499C46,8.70499 46.8045,8.70499 47.82133,8.70499C48.5,8.70499 49.62039,9.01707 50.37867,8.48365C51.08677,7.98554 51.7,7.70499 52.6,7.70499C53.5,7.70499 54.3,7.70499 55.2,7.70499C56.1,7.70499 57,7.70499 57.9,7.70499C58.8,7.70499 59.75729,7.86868 60.6,7.48365C61.2693,7.17785 62.09995,6.71032 63.02083,6.70499C63.82132,6.70035 64.67467,6.70499 65.61467,6.70499C66.6,6.70499 67.5,6.70499 68.3,6.70499C69.2,6.70499 70.1,6.70499 71,6.70499C71.9,6.70499 72.8,6.70499 73.7,6.70499C74.6,6.70499 75.5,6.70499 76.25716,6.70499C77.15266,6.70499 78.016,6.70499 78.97916,6.70499C79.9,6.70499 80.8,6.70499 81.7,6.70499C82.6,6.70499 83.5,6.70499 84.3,6.70499C85.2,6.70499 86.1,6.70499 87,6.70499C87.9,6.70499 88.8,6.7049 89.7,6.70499C90.6,6.70507 91.47216,6.91595 92.1,7.27965C92.86987,7.72563 93.8,7.70499 94.7,7.70499C95.6,7.70499 96.5,7.70499 97.3,7.70499C98.2,7.70499 99.20258,7.30677 100.064,7.74099C100.76288,8.09326 101.30133,8.70432 102.2,8.70499C103.1,8.70565 104,8.70499 104.9,8.70499C105.8,8.70499 106.7,8.70499 107.6,8.70499C108.5,8.70499 109.3,8.70499 110.2,8.70499C111.1,8.70499 112,8.70499 112.9,8.70499C113.8,8.70499 114.70133,8.70499 115.66666,8.70499C116.32533,8.70499 117.33334,8.70499 118.12534,8.70499C119.15717,8.70499 119.9045,8.70499 120.89867,8.70499C121.664,8.70499 122.74284,8.70499 123.6,8.70499C124.5,8.70499 125.3,8.70499 126.2,8.70499C127.1,8.70499 128,8.70499 128.89999,8.70499C129.8,8.70499 130.7,8.70499 131.60001,8.70499C132.5,8.70499 133.3,8.70499 134.136,8.70499C135.15266,8.70499 135.84734,8.70499 136.864,8.70499C137.8,8.70499 138.7,8.70499 139.60017,8.70499C140.38533,8.70499 141.32533,8.70499 142.33333,8.70499C143.08934,8.70499 144,8.70499 144.89999,8.70499C145.8,8.70499 146.7,8.70499 147.60001,8.70499C148.5,8.70499 149.3,8.70499 150.2,8.70499C151.10001,8.70499 152,8.70499 152.89999,8.70499C153.8,8.70499 154.7,8.70499 155.60001,8.70499C156.5,8.70499 157.33308,8.51373 158.2,8.76215C159.09657,9.01908 159.81628,9.63392 160.67467,9.69432C161.61241,9.76031 162.5,9.70499 163.3,9.70499C164.2,9.70499 165.10001,9.70499 166,9.70499C166.89999,9.70499 167.84317,9.58832 168.60017,9.92632C169.31516,10.24556 170.15584,10.67244 170.9045,10.70049C171.89798,10.7377 172.84283,10.70499 173.74733,10.70499C174.66667,10.70499 175.54167,10.70499 176.18666,10.70499C177.18401,10.70499 178,10.70499 178.81599,10.70499C180.03833,10.70499 180.83833,10.70499 181.74283,10.70499C182.7,10.70499 183.60017,10.70499 184.38533,10.70499C185.336,10.70499 186.10257,10.65969 187.091,10.70949C187.93216,10.75186 188.5417,11.55621 189.26167,11.70049C190.1353,11.87556 191.01601,11.70499 191.97917,11.70499C192.89999,11.70499 193.8,11.70499 194.7,11.70499C195.60001,11.70499 196.5,11.70499 197.3,11.70499C198.2,11.70499 199.10001,11.70499 200,11.70499C200.89999,11.70499 201.8,11.70499 202.7,11.70499C203.60001,11.70499 204.5,11.70499 205.3,11.70499C206.2,11.70499 207.10001,11.70499 208,11.70499C208.89999,11.70499 209.8,11.70499 210.7,11.70499C211.60001,11.70499 212.5,11.70499 213.3,11.70499C214.2,11.70499 215.10001,11.70499 216,11.70499C216.89999,11.70499 217.8,11.70499 218.7,11.70499C219.60001,11.70499 220.5,11.70499 221.3,11.70499C222.25717,11.70499 223.15266,11.70499 224.01601,11.70499C224.864,11.70499 225.8,11.70499 226.7,11.70499C227.60001,11.70499 228.5,11.70499 229.3,11.70499C230.2,11.70499 231.10002,11.71032 232,11.70499C232.90004,11.69965 233.71881,11.20448 234.5,10.87165C235.25154,10.55146 236.2,10.70499 237.10001,10.70499C238,10.70499 238.88933,10.69432 239.5,10.20499C240.11067,9.71565 241.03334,9.75138 241.89999,9.27965C242.63242,8.88099 243.5,8.70499 244.3,8.70499C245.2,8.70499 246.136,8.70499 246.98399,8.70499C247.84734,8.70499 248.864,8.70499 249.7,8.70499C250.60001,8.70499 251.53825,8.87854 252.3,8.61965C253.18791,8.31789 253.89946,7.72299 254.8,7.70499C255.69981,7.687 256.60001,7.70499 257.5,7.70499C258.29999,7.70499 259.20001,7.70499 260.10001,7.70499C261,7.70499 261.89999,7.70499 262.79999,7.70499C263.70132,7.70499 264.66666,7.70499 265.32535,7.70499C266.33334,7.70499 267.1955,7.70499 268.13599,7.70499C268.98401,7.70499 269.84732,7.70499 270.74283,7.70499C271.70001,7.70499 272.60001,7.70499 273.5,7.70499C274.29999,7.70499 275.20001,7.70499 276.10001,7.70499C277.02084,7.70499 277.98532,7.70499 278.71066,7.70499C279.69983,7.70499 280.47916,7.70499 281.47849,7.70499C282.29868,7.70499 283.20001,7.70499 284.10001,7.70499C285,7.70499 285.89999,7.70499 286.79999,7.70499C287.70001,7.70499 288.60001,7.70499 289.5,7.70499C290.29999,7.70499 291.20001,7.70499 292.10001,7.70499C293,7.70499 293.89999,7.70499 294.79999,7.70499C295.70001,7.70499 296.60001,7.70499 297.5,7.70499C298.29999,7.70499 299.20001,7.70499 300.10001,7.70499C301,7.70499 301.89999,7.70499 302.8045,7.70499C303.66666,7.70499 304.5,7.70499 305.47849,7.70499C306.29868,7.70499 307.20001,7.70499 308.10001,7.70499C309,7.70499 309.94455,7.80045 310.70001,7.42099C311.5672,6.98541 312.29999,6.70565 313.20001,6.70499C314.10001,6.70432 315,6.70499 315.89999,6.70499C316.79999,6.70499 317.70001,6.70499 318.60001,6.70499C319.5,6.70499 320.05438,6.2873 320.7215,5.82649C321.4512,5.32243 322.50085,5.74218 323.29999,5.70499C324.21765,5.66227 324.71524,4.76588 325.60001,4.70499C326.49786,4.64319 327.29999,4.70499 328.20001,4.70499C329.10001,4.70499 330,4.70499 330.89999,4.70499C331.79999,4.70499 332.70001,4.70499 333.60001,4.70499C334.5,4.70499 335.29999,4.70499 336.20001,4.70499L337.10001,4.70499L338,4.70499" id="svg_50" stroke-width="3" stroke="#000" fill="none"/>
  <path t="235776,236085,236179,236203,236343,236437,236447,236452,236467,236679,236688,236889,236906,236983,237169,237193,237209" d="M422.5,176.70499C422.66666,178.53831 423.29269,178.94272 423.50015,179.80482C423.70233,180.64496 424.43643,181.06711 425,181.70499C425.5155,182.28847 426.31915,182.7565 426.49866,183.50632C426.71225,184.39854 427.25183,185.01796 427.784,185.62099C428.35043,186.26282 428.5,187.00499 428.5,187.90498L428.5,188.80499" id="svg_51" stroke-width="3" stroke="#000" fill="none"/>
  <path t="237927,238253,238269,238269,238277,238285,238316,238354,238370,238378,238408,238481,238502,238526,238534,238542,238558,238580,238604,238620,238683,238815,239783,239807,239821,239821,239828,239837,239860,239977,239985,239993,240000,240000" d="M425.5,176.70499C427.10001,177.31566 427.80377,178.00124 428.29999,178.50499C428.98444,179.19984 429.47134,180.00363 429.5,180.90498C429.52859,181.80437 430.04666,182.37531 430.44284,183.06215C430.91269,183.87672 431.1705,184.51184 431.47916,185.22581C431.82813,186.03304 431.30511,187.02667 431.50134,187.90366C431.68192,188.71069 432.5477,189.06526 433.07468,189.73032C433.57089,190.35654 433.84305,191.38356 433.47916,192.18416C433.12769,192.95738 432.50226,193.46664 432.5,194.35765C432.49783,195.22099 432.41391,196.1062 431.92532,196.73032C431.4328,197.35945 431.46399,198.26898 430.7955,198.75766L430,199.22581L429.29999,199.90498L428.79999,200.40498" id="svg_52" stroke-width="3" stroke="#000" fill="none"/>
  <path t="241147,241342,241343,241389,241405,241422,241429,241437,241458,241498,241529,241545,241607,241608,241623,241632,241639,241648,241654,241662,241670,241692,241700,241716,241740,241754,241778,241786,241809,241824,241951,242037,242123,242137,242137,242153,242153,242184,242325,242333,242341,242349,242357" d="M379.5,185.70499C378.5,185.70499 377.70001,185.70499 376.79999,185.70499C375.89999,185.70499 375.06195,185.86777 374.44733,186.35233C373.79788,186.86433 372.7735,186.52124 371.89999,186.74098C371.03717,186.95804 370.34851,187.45578 369.5,187.87166C368.73752,188.24538 368.00015,188.69231 367.10001,188.70499C366.20459,188.71759 365.69351,189.37637 364.97916,189.68416C364.07971,190.07169 363.09442,189.69606 362.5,190.20499C361.90854,190.71136 361.40131,191.39369 360.69867,191.78899C359.88171,192.24858 359.06088,192.44461 358.2045,192.70949C357.44119,192.94557 356.97931,193.69456 356,193.70499C355.10007,193.71455 354.1955,193.70499 353.33334,193.70499C352.5,193.70499 351.52151,193.70499 350.70132,193.70499C349.79999,193.70499 348.89999,193.70499 348,193.70499L347.11066,193.71565L346.5,194.22581L346.13834,195.00049" id="svg_53" stroke-width="3" stroke="#000" fill="none"/>
 </g>
</svg>