<svg width="500.00000000000006" height="332.409972299169" xmlns="http://www.w3.org/2000/svg" xmlns:svg="http://www.w3.org/2000/svg" xmlns:xlink="http://www.w3.org/1999/xlink">
 <!-- Created with SVG-edit - http://svg-edit.googlecode.com/ -->
 <g display="inline" class="layer">
  <title>Layer 1</title>
  <path t="0,266,293,333,357,389,397,406,438,485,485,533,549,589,637,654,677,693,725,725,749,781,821,838,854,869,877,887,893,909,925,933,933,965,981,997,1037,1069,1101,1101,1109,1125,1133,1149,1165,1165,1181,1181,1197,1205,1229,1239,1285,1341,1381,1390,1413,1413,1437,1453,1477,1487,1502,1517,1541,1541,1565,1581,1591,1613,1621,1621,1638,1654,1670,1685,1693,1693,1709,1717,1725,1733,1741,1758,1765,1781,1797,1813,1845,1845,1877,1877,1925,1925,1949,1965,1982,1991,1991,1998,2021,2037,2045,2077,2117,2117,2141,2451,3144,3189,3229,3253,3293,3341,3349,3389,3405,3429,3429,3439,3454,3462,3469,3479,3495,3501,3525,3525,3541,3550,3557,3565,3573,3589,3598,3606,3606,3614,3622,3630,3639,3639,3646,3653,3654,3663,3663,3679,3679,3679,3686,3709,3725,3781,3781,3797,3821,3830,3839,3854,3879,3893,3902,3902,3917,3933,3941,3950,3965,3973,3990,4007,4007,4022,4022,4077,4093,4125,4133,4165,4181,4189,4206,4230,4231,4239,4254,4293,4317,4333,4341,4365,4373,4382,4390,4406,4422,4423,4439,4461,4485,4533,4586,4586,4602,4623,4624,4661" d="M67.5,1.70499C67.5,3.50499 67.5,4.40499 67.5,5.30499C67.5,6.20499 67.5,7.10499 67.5,8.00499C67.5,8.90499 67.5,9.80499 67.5,10.70499C67.5,11.50499 67.5,12.40499 67.5,13.30499C67.5,14.20499 67.5,15.10499 67.5,16.00499C67.5,16.90499 67.5,17.80499 67.5,18.70499C67.5,19.50499 67.5,20.40499 67.5,21.30499C67.5,22.20499 67.5,23.10499 67.5,24.00499C67.5,24.90499 67.41132,25.80937 67.5,26.70499C67.58374,27.55069 68.43911,27.92022 68.5,28.80499C68.5618,29.70286 68.6243,30.48242 69.07467,31.30499C69.50195,32.08538 69.5,33.00499 69.5,33.90499C69.5,34.80499 69.5,35.70499 69.5,36.50499C69.5,37.40499 69.33566,38.32399 69.52084,39.20499C69.69984,40.05663 70.38644,40.86332 70.464,41.53032C70.58051,42.53221 70.5,43.40049 70.5,44.30499C70.5,45.20499 70.25713,46.13982 70.5045,47.00049C70.72521,47.76838 71.48738,48.22566 71.5,49.10499C71.51292,50.00491 71.88607,50.84334 72.216,51.50499C72.63655,52.34835 72.5,53.30499 72.5,54.20499C72.5,55.10499 72.39304,56.01152 72.50134,56.90499C72.61282,57.82475 73.30987,58.35907 73.48933,59.30499C73.65711,60.18927 73.40453,61.14953 73.784,61.90499C74.21958,62.77219 74.55439,63.40403 75,64.20499C75.44455,65.00404 75.5,65.90498 75.5,66.80499C75.5,67.70499 75.5,68.50499 75.5,69.40498C75.5,70.30499 75.19009,71.2647 75.51067,72.09432C75.81705,72.88724 76.49775,73.40948 76.5,74.30499C76.50226,75.20499 76.5,76.10499 76.5,77.00948C76.5,77.87165 76.46412,78.70565 76.50017,79.68365C76.52876,80.45923 76.88155,81.3461 77.14733,82.05232C77.47948,82.93488 77.5,83.90498 77.5,84.80499C77.5,85.70499 77.30405,86.53943 77.55717,87.40498C77.81381,88.28262 78.47141,89.00363 78.5,89.90498C78.52854,90.80453 78.5,91.70499 78.5,92.50499C78.5,93.40498 78.70023,94.10578 79.216,94.78899C79.68056,95.40434 79.5,96.40498 79.5,97.30499C79.5,98.20499 79.5,99.10499 79.5,100.00499C79.5,100.90498 79.5,101.80499 79.5,102.70499C79.5,103.50499 79.5,104.40498 79.5,105.30499C79.5,106.20499 79.5,107.10499 79.5,108.00499C79.5,108.90498 79.5,109.80499 79.5,110.70499C79.5,111.50499 79.5,112.40498 79.5,113.30499C79.5,114.20499 79.5,115.10499 79.5,116.00499C79.5,116.90498 79.5,117.80499 79.5,118.70499C79.5,119.50499 79.5,120.40498 79.5,121.30499C79.5,122.22582 79.5,123.18899 79.5,123.87965C79.5,124.95232 79.5,125.87165 79.5,126.70499C79.5,127.68382 79.5,128.36632 79.5,129.47299C79.5,130.20499 79.5,130.93698 79.5,132.03299C79.5,132.90498 79.5,133.80499 79.5,134.70499C79.5,135.50499 79.5,136.40498 79.5,137.30499C79.5,138.20499 79.5,139.10498 79.5,140.00499C79.5,140.90498 79.5,141.80499 79.5,142.70499C79.5,143.50499 79.5,144.40498 79.5,145.30499C79.5,146.20499 79.5,147.10498 79.5,148.00499C79.5,148.90498 79.5,149.80499 79.5,150.70499C79.5,151.46216 79.40868,152.54913 79.58533,153.22099C79.852,154.23515 80.30759,154.92169 80.50017,155.80482C80.68427,156.64909 81.47141,157.06085 81.5,158.00499C81.52724,158.90457 81.5,159.80499 81.5,160.70499C81.5,161.50499 81.5,162.40498 81.5,163.30499C81.5,164.20499 81.51067,165.09431 82,165.70499C82.48933,166.31566 82.5,167.20499 82.5,168.10498C82.5,169.00499 82.5,169.90498 82.5,170.80499C82.5,171.70499 82.5,172.50499 82.5,173.40498C82.5,174.30499 82.5,175.20499 82.5,176.10498C82.5,177.00499 82.5,177.90498 82.5,178.80499L82.5,179.70499L82.5,180.50499L82.5,181.40498" id="svg_1" stroke-width="3" stroke="#000" fill="none"/>
  <path t="9803,9993,10038,10046,10054,10070,10094,10133,10133,10165,10165,10189,10213,10245,10285,10285,10353,10413,10446,10446,10504,10541,10549,10557,10581,10582,10589,10606,10701,10701,10733,10773,10773,10819,10875,10921,10936,10973,10989,10989,10997,10998,11013,11014,11030,11053,11077,11087,11093,11117,11117,11125,11149,11173,11181,11197,11213,11230,11230,11247,11263,11263,11277,11286,11309,11317,11334,11357,11357,11389,11397,11405,11421,11438,11454,11462,11477,11477,11486,11487,11504,11509,11510,11518,11533,11549,11549,11565,11573,11589,11605,11614,11631,11631,11647,11655,11670,11677,11693,11693,11709,11749,11757,11773,11798,11805,11805,11837,11863,11878,11887,11894,11909,11918,11941,11941,11958,11966,11973,11989,11999,11999,12005,12015,12015,12022,12022,12037,12037,12045,12046,12069,12069,12085,12101,12117,12118,12133,12149,12150,12157,12197,12221,12237,12261,12261,12269,12277,12287,12303,12309,12310,12325,12325,12334,12341,12341,12357,12373,12373,12383,12389,12413,12413,12445,12461,12461,12470,12493,12517,12541,12549,12549,12557,12573,12589,12589,12613,12637,12638,12653,12653,12677,12677,12687,12703,12718,12734,12757,12789,12789,12805,12805,12821,12845,12869,12909,12925,12941,12941,12957,12981,13005,13085,13199" d="M6.5,0.70499C6.5,2.50499 6.5,3.40499 6.5,4.30499C6.5,5.20499 6.5,6.10499 6.5,6.90632C6.5,7.87165 6.5,8.70499 6.5,9.68349C6.5,10.50365 6.5,11.40499 6.5,12.30499C6.5,13.11565 6.5,14.02632 6.5,14.87965C6.5,15.81965 6.5,16.80499 6.5,17.70499C6.5,18.50499 6.5,19.40499 6.5,20.30499C6.5,21.20499 6.36345,22.06162 6.784,22.90499C7.11393,23.56663 7.31403,24.43185 7.536,25.30499C7.75521,26.16727 8.45729,26.90196 8.5,27.80499C8.54252,28.70398 8.5,29.50499 8.5,30.40499C8.5,31.30499 8.5,32.20499 8.5,33.10499C8.5,34.00949 8.5,34.87165 8.5,35.72582C8.5,36.70499 8.5,37.49432 8.5,38.53832C8.5,39.29432 8.5,40.20499 8.5,41.10499C8.5,42.00499 8.5,42.90499 8.5,43.80499C8.5,44.70499 8.5,45.50499 8.5,46.40499C8.5,47.30499 8.5,48.20499 8.5,49.10499C8.5,50.00499 8.5,50.90499 8.5,51.80515C8.5,52.59032 8.5,53.53032 8.5,54.53832C8.5,55.29432 8.5,56.20499 8.5,57.10499C8.5,58.00499 8.5,58.90499 8.5,59.80499C8.5,60.70499 8.5,61.50499 8.5,62.40499C8.5,63.30499 8.5,64.20499 8.5,65.10499C8.5,66.00499 8.5,66.90498 8.5,67.80499C8.5,68.70499 8.5,69.46215 8.5,70.35765C8.5,71.22099 8.5,72.20499 8.5,73.18899C8.5,73.87965 8.42179,74.95142 8.50017,75.80499C8.58385,76.71642 9.26117,77.24265 9.47917,78.20499C9.67806,79.08298 9.5,80.00499 9.5,80.90498C9.5,81.80499 9.47463,82.70539 9.5,83.50499C9.5286,84.40634 10.16286,85.13133 10.41467,85.90498C10.69447,86.76463 10.47463,87.70539 10.5,88.50499C10.5286,89.40634 11.18619,90.12736 11.44283,91.00499C11.69595,91.87054 11.5,92.80499 11.5,93.70499C11.5,94.50499 11.5,95.40498 11.5,96.30499C11.5,97.20499 11.5,98.10499 11.5,99.00499C11.5,99.90498 11.5,100.80499 11.5,101.70499C11.5,102.50499 11.5,103.40498 11.5,104.30499C11.5,105.20499 11.5,106.11565 11.5,107.02632C11.5,107.87965 11.46665,108.82028 11.5,109.70499C11.5286,110.46377 11.89542,111.34668 12.14733,112.10949C12.47056,113.08826 12.4815,113.9051 12.50017,114.90482C12.51472,115.68429 12.75432,116.66556 13.07467,117.29432C13.52703,118.18218 13.5,119.11565 13.5,120.02632C13.5,120.70499 13.5,121.81966 13.5,122.70499C13.5,123.50499 13.48959,124.40504 13.5,125.30499C13.51042,126.20517 14.02719,126.91444 14.3785,127.80499C14.63914,128.46568 14.5,129.40498 14.5,130.30499C14.5,131.20499 14.5,132.11565 14.5,133.02632C14.5,133.87965 14.5,134.82098 14.5,135.58899C14.5,136.53032 14.5,137.53831 14.5,138.40048C14.5,139.22581 14.5,140.18898 14.5,140.87965C14.5,141.94781 14.5,142.80499 14.5,143.70499C14.5,144.50499 14.5,145.46216 14.5,146.35765C14.5,147.22099 14.5,148.18416 14.5,149.00499C14.5,149.90498 14.5,150.80499 14.5,151.70499C14.5,152.50499 14.5,153.40498 14.5,154.34099C14.5,155.18898 14.5,156.05232 14.5,157.07965C14.5,158.02632 14.5,158.70499 14.5,159.68365C14.5,160.58899 14.5,161.53032 14.5,162.22099C14.5,163.29433 14.5,164.10498 14.5,165.00499C14.5,165.90498 14.5,166.80499 14.5,167.70499C14.5,168.59032 14.5,169.53032 14.5,170.22099C14.5,171.29433 14.5,172.10498 14.5,173.00499C14.5,173.90498 14.5,174.80499 14.5,175.70499C14.5,176.50499 14.5,177.40498 14.5,178.30499L14.5,179.20499L14.5,180.10498L14.5,181.00499" id="svg_2" stroke-width="3" stroke="#000" fill="none"/>
  <path t="15211,15502,15533,15533,15550,15564,15566,15575,15581,15581,15593,15593,15597,15597,15597,15611,15611,15611,15613,15613,15628,15703,15742,15803,15837,15869,15885,15909,15910,15941,15973,16021,16053,16101,16126,16134,16134,16160,16182,16206,16270,16320" d="M81.5,118.70499C83.3,118.70499 84.2,118.70499 85.1,118.70499C86,118.70499 86.9,118.70499 87.8,118.70499C88.7,118.70499 89.5,118.70499 90.38533,118.70499C91.16167,118.70499 91.96167,118.70499 93.18533,118.70499C93.736,118.70499 94.6045,118.70499 95.79967,118.70499C96.67867,118.70499 97.48566,118.70499 98.357,118.70499C99.29733,118.70499 100.2,118.70499 101.1,118.70499C102,118.70499 102.9,118.70499 103.8,118.70499C104.7,118.70499 105.6,118.70499 106.5,118.70499C107.3,118.70499 108.2,118.70499 109.1,118.70499C110,118.70499 110.9,118.70499 111.8,118.70499C112.7,118.70499 113.53825,118.53143 114.3,118.79032C115.18791,119.09209 115.9,119.66898 116.8,119.70499L117.7,119.70499L118.6,119.70499" id="svg_3" stroke-width="3" stroke="#000" fill="none"/>
  <path t="17432,17690,17705,17705,17705,17705,17705,17705,17705,17705,17733,17733,17733,17733,17733,17734,17734,17734,17746,17746,17746,17750,17750,17834,17834,17869,17909,17920,17920,17943,17965,17981,18005,18052,18085,18101,18149,18149,18165,18176,18205,18245,18277,18288,18309,18369,18369,18385,18415,18470,18517,18541" d="M158.5,113.70499C160.3,113.70499 161.125,113.70499 161.812,113.70499C162.9285,113.70499 163.9295,113.70499 164.48399,113.70499C165.0625,113.70499 166.25549,113.70499 166.85201,113.70499C168,113.70499 169.04266,113.70499 169.98134,113.70499C170.832,113.70499 171.61067,113.70499 172.67833,113.70499C173.65334,113.70499 174.25333,113.70499 175.33333,113.70499C176.26401,113.70499 177.09866,113.70499 178.10001,113.70499C178.89999,113.70499 179.89867,113.70499 180.664,113.70499C181.61467,113.70499 182.60001,113.70499 183.5,113.70499C184.3,113.70499 185.2,113.70499 186.10001,113.70499C187,113.70499 187.89999,113.70499 188.8,113.70499C189.7,113.70499 190.60001,113.70499 191.5,113.70499C192.3,113.70499 193.2,113.70499 194.10001,113.70499C195,113.70499 195.89999,113.70499 196.8,113.70499C197.7,113.70499 198.60001,113.70499 199.5,113.70499C200.3,113.70499 201.2,113.70499 202.10001,113.70499L202.89999,113.70499L203.8,113.70499L204.7,113.70499" id="svg_4" stroke-width="3" stroke="#000" fill="none"/>
  <path t="20126,20279,20318,20329,20329,20329,20329,20345,20345,20352,20363,20363,20366,20379,20389,20390,20390,20398,20398,20412,20412,20437,20470,20478,20478,20488,20488,20496,20496,20506,20506,20513,20522,20523,20526,20539,20539,20551,20566,20566,20574,20582,20583,20591,20591,20611,20611,20611,20614,20614,20614,20614,20614,20614,20622,20622,20622,20630,20630,20638,20638,20647,20647,20703,20718,20736,20745,20749,20758,20758,20775,20798,20821,20838,20845,20855,20863,20863,20872,20872,20891,20891,20893,20915,20915,20949,20949,20973,20989,20989,20997,20997,21015,21038,21038,21038,21065,21065,21094,21094,21106,21113,21121,21131,21141,21141,21150,21159,21220,21269,21279,21288,21288,21308,21357,21367,21381,21391,21413,21413,21429,21461,21461,21472,21480,21496,21496,21508,21511,21511,21526,21601,21617,21677,21696,21705,21705,21714,21714,21721,21721,21731,21731,21740,21740,21750,21750,21819,21835,21871,21888,21904,21905,21914,21941,21981,21997,21997,21998,22012,22013,22013,22022,22022,22040,22041,22061,22061,22061,22062,22062,22072,22082,22100,22100,22133,22157,22165,22181,22190,22205,22229,22229,22238,22238,22301,22301,22302,22302,22335,22348,22348,22348,22366,22366,22382,22382,22398,22414,22425,22440,22448,22448,22454,22462,22482,22510,22528,22528,22534,22549,22550,22560,22560,22566,22566,22576,22576,22594,22614,22654,22673,22673,22678,22710,22786,22947,22963,23039,23040" d="M297.5,123.70499C299.20001,122.70949 300.0625,122.70499 301,122.70499C301.858,122.70499 302.5,122.70499 303.448,122.70499C304.633,122.70499 305.38135,122.70499 306.32535,122.70499C307.33334,122.70499 308.08932,122.70499 309,122.70499C309.92133,122.70499 310.83334,122.70499 311.75067,122.70499C312.49466,122.70499 313.53067,122.70499 314.24817,122.70499C315.15268,122.70499 316.01599,122.70499 316.97916,122.70499C317.91068,122.70499 318.82132,122.70499 319.67465,122.70499C320.616,122.70499 321.384,122.70499 322.336,122.70499C323.10132,122.70499 324.09549,122.70499 325.01468,122.70499C325.87466,122.70499 326.82132,122.70499 327.67465,122.70499C328.61465,122.70499 329.5,122.70499 330.29999,122.70499C331.25717,122.70499 332.15271,122.69955 333.01599,122.70499C333.86407,122.71032 334.75586,123.15058 335.38535,123.42099C336.29755,123.81284 337.18668,123.70432 338.18933,123.70499C338.76801,123.70537 339.776,123.70499 341,123.70499C341.46384,123.70499 342.45349,123.70499 343.47916,123.70499C343.98801,123.70499 344.96268,123.70094 346.21399,123.70515C346.87134,123.70737 347.89517,123.7065 348.70001,123.92632C349.51721,124.14952 350.49319,124.5897 351.28934,124.66898C352.32883,124.7725 353.08932,124.70499 354,124.70499C354.89999,124.70499 355.79999,124.70499 356.70001,124.70499C357.60001,124.70499 358.5,124.70499 359.29999,124.70499C360.20001,124.70499 361.10001,124.70499 362,124.70499C362.89999,124.70499 363.79999,124.70499 364.70132,124.70499C365.66666,124.70499 366.5,124.70499 367.33334,124.70499C368.25266,124.70499 369.15268,124.70499 369.84732,124.70499C370.87466,124.70499 371.82132,124.70499 372.67465,124.70499C373.616,124.70499 374.384,124.70499 375.32535,124.70499C376.33334,124.70499 377.12534,124.70499 377.98401,124.70499C378.84732,124.70499 379.75183,124.70499 380.83334,124.70499C381.50534,124.70499 382.24933,124.70499 383.35718,124.70499C384.24817,124.70499 385.15268,124.70499 385.84732,124.70499C386.86401,124.70499 387.79999,124.70499 388.70001,124.70499C389.60001,124.70499 390.53824,124.87853 391.29999,124.61965C392.18793,124.31789 392.89944,123.72299 393.79999,123.70499C394.69983,123.687 395.60001,123.70499 396.5,123.70499C397.29999,123.70499 398.29691,124.06814 399.064,123.66898C399.82339,123.27383 400.40396,123.04913 401.21466,122.61965C402.07245,122.16523 402.52066,121.71541 403.47849,121.70499C404.49994,121.69388 405.29999,121.70499 406.20001,121.70499C407.02084,121.70499 407.98401,121.70499 408.84732,121.70499C409.74734,121.70499 410.67712,121.8158 411.47916,121.68415C412.35864,121.53979 412.93546,120.72299 413.79999,120.70499C414.69983,120.68625 415.60001,120.70499 416.5,120.70499C417.25717,120.70499 418.15717,120.70499 418.90451,120.70499C419.89999,120.70499 420.70001,120.70499 421.70001,120.70499C422.5,120.70499 423.5,120.70499 424.28934,120.70499C425.33334,120.70499 426.22211,120.52023 427.10001,120.74099C427.96283,120.95796 428.69699,121.66227 429.60001,121.70499C430.49899,121.74751 431.33176,121.51829 432.20001,121.76215C432.96146,121.97602 433.75363,122.49402 434.60001,122.92632C435.25531,123.26105 436.11761,123.69686 436.89999,124.13032C437.72128,124.58534 438.38672,124.66344 439.336,124.71565C440.10379,124.75788 441.10574,125.05906 441.73599,125.31565C442.92355,125.79916 443.45715,125.98235 444.23868,126.30499C445.37091,126.77241 445.87762,127.37836 446.79999,127.64782C447.66574,127.90073 448.55084,128.00583 449.20001,128.35233C450.04938,128.80566 451,128.70499 451.89999,128.70499C452.79999,128.70499 453.7677,128.57144 454.41733,128.98898C455.18124,129.47997 455.72156,129.68156 456.69983,129.70515C457.6644,129.72841 458.45316,129.97215 459.1955,130.35233C460.03857,130.78407 460.56528,131.49464 461.37201,131.66899C462.4751,131.90738 463.30502,131.67163 463.89999,131.76215C464.91275,131.91623 465.69424,132.26938 466.61465,132.90366C467.21674,133.31857 468.10001,133.69432 469,133.70499C469.89999,133.71565 470.61182,134.14732 471.5,134.53831C472.15765,134.82782 473.10004,134.69966 474,134.70499C474.90005,134.71033 475.71881,135.20547 476.5,135.53831C477.25153,135.85851 478.19949,135.76309 479,136.20499C479.80399,136.64879 480.66666,136.70491 481.5,136.70499C482.47867,136.70508 483.26584,136.72462 484.15268,137.05765C484.85907,137.32291 485.86343,137.68698 486.70001,137.70499C487.59979,137.72435 488.5004,137.67963 489.29999,137.70499C490.20139,137.73358 490.92236,138.39119 491.79999,138.64783C492.66559,138.90096 493.60001,138.70499 494.5,138.70499L495.29999,138.70499" id="svg_5" stroke-width="3" stroke="#000" fill="none"/>
  <path t="26417,26594,26594,26610,26662,26702,26753,26803,26855,26855,26901,26952,26997,27005,27021,27263,27333,27386,27386,27401,27468,27468,27519,27565,27650,27702,27773,27773,27834,27885,27983,28021,28045,28069,28109,28109,28187,28235,28251,28277,28317,28415,28415,28431,28501,28533,28549,28565,28581,28581,28589,28597,28613,28668,28668,28749,28765,28765,28850,28918,28934,28965,29005,29005,29037,29045,29055,29071,29071,29117,29117,29157,29233,29249,29278,29286,29326,29386,29429,29485,29502,29525,29541,29597,29597,29645,29685,29766,29837,29994,30054,30110,30142,30174,30174,30361,30361,30429,30477,30477,30582,30637,30685,30717,30757,30757,30944,31050,31065,31094,31110,31184,31251,31267,31350,31350,31365,31397,31422,31430,31430,31501,31615,31677,31735,31802,31853,31901,31902,31968,31968,32014,32014,32101,32157,32297,32603,32603,32645,32669,34073,34185,34185,34185,34315,34432,34549,34805,34853,34868,34909,34965,34966,35081,35141,35141,35149,35421,35500,35500,35709,35741,35817,35868,35868,36158,36219,36219,36234,36269,36600,36600,36646,36678,36678,37546,37697,37749,37759,37782,37805,37845,37917,37917,37984,38029,38045,38101,38117,38117,38143,38150,38182,38221,38238,38270,38365,38575,38575,38591,38698,38862,38910,38910,38941" d="M220.5,51.70499C222.3,51.70499 223.2,51.70499 224.10001,51.70499C224.89999,51.70499 225.8,51.70499 226.7,51.70499C227.60001,51.70499 228.5,51.70499 229.3,51.70499C230.2,51.70499 231.10001,51.70499 232,51.70499C232.89999,51.70499 234.01697,51.59347 234.5,52.22582C235.02031,52.90696 235.42712,53.7943 236.10001,54.26899C236.83481,54.78735 237.71548,54.97283 238.3,55.50632C239.0197,56.1632 239.79865,56.67639 240.7,56.70499C241.59955,56.73353 242.5,56.70499 243.3,56.70499C244.2,56.70499 245.10001,56.70499 246,56.70499C246.89999,56.70499 247.80473,56.79586 248.7,56.70365C249.5126,56.61995 250.1526,55.90481 251,55.72582C251.8808,55.53977 252.8,55.70499 253.7,55.70499C254.60001,55.70499 255.5,55.70499 256.29999,55.70499C257.20001,55.70499 258.10001,55.70499 259,55.70499C259.89999,55.70499 260.85663,55.84155 261.70001,55.42099C262.36163,55.09106 263.20007,54.71741 264.10001,54.70499C265.021,54.69227 265.81351,54.46415 266.67465,54.13032C267.60669,53.76902 268.53644,53.87313 269.29999,53.61965C270.07217,53.36331 270.79861,52.73359 271.70001,52.70499C272.59955,52.67645 273.53824,52.87853 274.29999,52.61965C275.18793,52.31789 275.89944,51.72299 276.8045,51.70499C277.66647,51.68784 278.5,51.70499 279.47849,51.70499C280.29868,51.70499 281.20001,51.70499 282.10001,51.70499C283,51.70499 283.89999,51.70499 284.79999,51.70499C285.70001,51.70499 286.6044,51.6163 287.5,51.70499C288.3457,51.78873 288.78235,52.66227 289.70001,52.70499C290.59903,52.74683 291.5,52.70499 292.29999,52.70499C293.20001,52.70499 294.10001,52.70499 295,52.70499C295.89999,52.70499 296.79999,52.70499 297.70001,52.70499C298.60001,52.70499 299.65201,53.04628 300.33334,52.53832C300.90906,52.10909 301.37552,51.32736 302.01733,50.90499C302.88419,50.33453 303.5386,49.52864 304.10001,49.14099C304.90753,48.5834 305.6304,48.24831 306.216,47.62099C306.85858,46.93262 307.63403,46.85149 308.29999,46.61965C309.18567,46.31133 309.89944,45.72232 310.79999,45.70499C311.69852,45.68769 312.47141,46.06086 312.5,47.00499C312.52725,47.90458 312.69818,48.86557 312.33334,49.70499C312.03583,50.38954 311.26703,51.10136 310.5,51.53832C309.72012,51.98258 309.4454,52.81509 308.88934,53.26899C308.13651,53.8835 307.3399,54.13523 306.784,54.78899C306.26172,55.40318 305.84506,56.27011 305.52533,57.11565C305.19162,57.99819 305.03506,58.73973 304.5,59.53832C304.04538,60.21686 303.17889,60.81842 302.78534,61.50499C302.36472,62.23881 302.61142,63.27456 302.14282,64.00499C301.62964,64.8049 300.75888,65.23877 300.53601,66.10499C300.31158,66.9773 300.5,67.90498 300.5,68.80499C300.5,69.70499 300.47275,70.5054 300.5,71.40498C300.52859,72.34911 301.48093,72.23957 302.21466,72.79032C302.83069,73.25272 302.5,74.40498 302.5,75.34099C302.5,76.18899 302.62451,77.06165 302.49551,77.94782C302.35187,78.93456 301.84744,79.53135 301.44733,80.40498C301.11499,81.13059 300.47858,81.90693 299.79999,82.34782C299.00766,82.86259 298.4682,83.47134 299.02084,84.20499C299.52261,84.87107 300.20001,85.40499 300.89999,86.10499C301.5,86.70499 302.25543,87.23943 302.47916,88.20499C302.68234,89.08199 302.5,90.00499 302.5,90.90498C302.5,91.80499 302.5,92.70499 302.5,93.50499C302.5,94.40498 302.5,95.30499 302.5,96.20499C302.5,97.10499 302.5,98.00499 302.5,98.90498C302.5,99.80499 302.5,100.70499 302.5,101.50499C302.5,102.40498 302.33481,103.32418 302.52084,104.20499C302.69983,105.05238 303.43784,105.79736 303.49866,106.50499C303.57571,107.40168 303.5,108.30499 303.5,109.20499C303.5,110.10499 303.5,111.00499 303.5,111.90498C303.5,112.80499 303.5,113.70499 303.5,114.50499C303.5,115.40498 303.44284,116.34782 302.66666,116.87165L302.33334,117.70499L301.92532,118.30499L301.5,119.18415" id="svg_6" stroke-width="3" stroke="#000" fill="none"/>
  <path t="41423,41860,41941,42017,42033,42454,42454,42548,42548,42837,43043,43101,43134,43134,43149,43189,43423,43593,43652,43702,43749,43765,43766,43813,46190,46190,46238,46261,46262,46334,46334,46511,46573,46597,46629,46629,46781,46781,46883,46925,46973,47065,47065,47150,47245,47293,47309,47385,47429,47429,47461,47550,47601,47645,47685,47725,47784,47784,47852,47901,47917,47999,47999,48045,48093,48168,48250,48318,48366,48366,48406,48438,48455,48455,48471,48506,48537,48681,48681,48751,48781,48782,48806,48885,48900,48941,48957,49050,49050,49102,49102,49141,49173,49197,49213,49254,49309,49357,49374,49396,49406,49445,49463,49463,49482,49533,49533,49557,49557,49580,49598,49668,49668,49703,49741,49781,49794,49794,49797,49824,49854,49874,49887,49909,49984,49984,50038,50078,50095,50096,50134,50158,50182,50199,50230,50244,50267,50278,50318,50338,50398,50422,50517,50584,50600,50677,51048,51048,51212,51212,51347,51465,51465,51534,51573,51629,51793,51793,51852,51964,52097,52097,52253,52253,52364,52429,52485,52510,52599,52668,52668,52765,52765,52780,52780,52805,52806,52868,52933,52948,52989,53021,53061,53109,53167,53269,53285,53285,53325,53416,53431,53533,53549,53567,53681,53741,53848,53848,53901,53925,54015,54070,54164,54164,54246,54302,54302,54334,54365,54397,54452,54532,54532,54616,54653,54685,54710,54718,54741,54781,54782,54813,54829,54932,54966,55018,55053,55069,55093,55117,55214,56675,56675,56764,56764,56779,56813,56883,56970,57013,57062,57165,57165,57250,57286,57286,57312,57570,57633,57649,57709,57733,57784,57960,57960,58022,58039,58078,58118,58277,58351,58351,58402,58453,58461,58493,58549,58557" d="M298.5,125.70499C297.50449,127.40498 297.49466,128.30501 297.5,129.20499C297.50534,130.10503 297.81885,131.0542 298.38666,131.50499C299.10013,132.07141 300.01379,132.44717 300.47916,133.20499C300.94119,133.95735 301.43912,134.79887 301.5,135.70499C301.55362,136.50319 301.5,137.40498 301.5,138.30499C301.5,139.20499 301.5,140.10498 301.5,141.00499C301.5,141.90498 301.5,142.80499 301.5,143.70499C301.5,144.50499 301.48959,145.40504 301.5,146.30499C301.51044,147.20517 302.02719,147.91443 302.37851,148.80499C302.63913,149.46568 302.31625,150.43147 302.53601,151.30499C302.75305,152.1678 303.45728,152.90196 303.5,153.80499C303.54251,154.70398 303.51801,155.50517 303.5,156.40498C303.48199,157.30553 302.88187,158.0153 302.58533,158.90498C302.29944,159.76263 302.52536,160.70538 302.5,161.50499C302.47141,162.40634 301.81381,163.12735 301.55716,164.00499C301.30405,164.87054 301.5,165.80499 301.5,166.70499C301.5,167.50499 301.5,168.40498 301.5,169.30499C301.5,170.20499 301.49933,171.10498 301.5,172.00499C301.50067,172.90498 301.73395,173.66325 302.14734,174.40498C302.57297,175.16867 303.04321,175.90828 303.37851,176.80499C303.69659,177.65562 303.30405,178.53943 303.55716,179.40498C303.81381,180.28262 304.47134,181.00363 304.5,181.90498C304.52863,182.80453 304.70761,183.67909 305.07468,184.30499C305.52716,185.07651 306.00052,185.92378 306.33334,186.70499C306.65353,187.45653 306.48981,188.40504 306.5,189.30499C306.51044,190.226 306.73468,191.02092 307.07468,191.87965C307.39102,192.67865 307.47293,193.70544 307.5,194.50499C307.52859,195.34927 308.17337,195.98599 308.72134,196.58365C309.30643,197.22176 309.32938,197.9655 309.7215,198.80516C310.06653,199.54401 310.63678,200.23067 311.10001,200.84366C311.71735,201.66057 312.48135,202.14044 312.5,203.00499C312.51938,203.90344 312.86212,204.64142 313.5,205.20499C314.0835,205.7205 314.55267,206.40948 315,207.20499C315.44733,208.00049 316.0874,208.58575 316.41599,209.27298C316.79565,210.06708 317.27469,210.74843 317.79999,211.41483C318.26828,212.00888 318.78168,212.96486 319.29999,213.50365C319.97684,214.20721 320.87601,214.48947 321.59982,214.92648C322.3233,215.36328 322.55853,216.33803 323.30133,216.78899C324.00568,217.2166 324.80383,217.82861 325.21466,218.50499C325.68607,219.28113 326.29178,219.80544 327,220.20499C327.87799,220.70033 328.44012,221.25578 328.85266,222.00499C329.31448,222.84369 329.50934,223.55949 330.11066,224.30499C330.63809,224.95888 331.26245,225.73128 331.55267,226.40498C331.91528,227.24678 332.39072,228.0441 332.92532,228.67966C333.47153,229.32901 334.31808,229.69928 334.49866,230.50632C334.69489,231.3833 334.70023,232.10577 335.216,232.78899C335.68054,233.40434 335.60605,234.38197 336.30133,234.78899C337.12695,235.27231 337.73297,236.10136 338.5,236.53831C339.27988,236.98257 339.71097,237.67714 340.07468,238.30499C340.52063,239.07484 340.60703,240.01154 340.49866,240.90498C340.38708,241.82462 339.73218,242.55014 338.89999,242.69432C338.01315,242.84796 337.06189,242.62814 336.1955,243.05765C335.58167,243.36195 334.54968,243.38036 333.74268,243.92648C332.94064,244.46925 332.68237,245.20622 331.66666,245.53831C330.93295,245.7782 330,245.70499 329.10001,245.70499C328.20001,245.70499 327.29999,245.70499 326.39999,245.70499C325.5,245.70499 324.66302,245.90947 323.79999,245.64783C322.9151,245.37956 322.48706,244.47766 321.74283,244.06215C320.91696,243.60106 319.86057,243.8306 319.14667,243.26898C318.40179,242.683 318.16321,241.85373 317.52533,241.27965C316.94659,240.75879 316.50589,240.0777 316.07468,239.30499C315.61768,238.48608 315.5,237.60498 315.5,236.70499C315.5,235.90498 315.16898,235.25351 314.66666,234.53831C314.17822,233.84288 314.01736,233.09746 313.58533,232.41965C313.09222,231.64601 312.88898,230.96434 312.53601,230.25832C312.14462,229.47546 312.55286,228.51073 312,227.72581C311.54272,227.0766 310.74106,226.73772 310.10001,226.26898C309.32117,225.69948 308.79999,225.00499 308.10001,224.30499C307.5,223.70499 306.94275,223.05913 306.20001,222.40948C305.53555,221.82829 304.88715,221.36217 304.2785,220.82632C303.57068,220.20317 302.73816,220.05675 302.11066,219.30499C301.56345,218.64943 301.19199,217.938 300.55267,217.35233C299.96942,216.81799 299.06863,216.44048 298.66666,215.70499C298.26459,214.96933 298.02451,214.0463 297.52533,213.31566C297.06314,212.63919 296.1069,212.41501 295.62134,211.60515C295.18381,210.87538 294.59958,210.31329 294.07468,209.73032C293.54419,209.14114 293.07321,208.2962 292.5,207.70499C291.90933,207.09578 291.20377,206.40118 290.70001,205.90498C290.00516,205.22055 289.15903,204.81648 288.52533,204.27965C287.93182,203.77687 287.05292,203.799 286.20001,203.35233C285.44778,202.95837 284.64551,202.69565 283.89999,202.09431C283.24609,201.56689 282.67203,201.05707 281.79999,200.65231C280.96863,200.26643 280.15405,199.8223 279.52533,199.27965C278.92514,198.76164 278.06381,198.43932 277.62134,197.60498C277.17859,196.77017 276.73883,196.16731 276.52084,195.20499C276.32196,194.327 276.5,193.40498 276.5,192.50499C276.5,191.60498 276.5,190.70499 276.5,189.90498C276.5,189.00499 276.5,188.10498 276.5,187.20499L276.5,186.30499L276.5,185.40498L276.50134,184.50499" id="svg_7" stroke-width="3" stroke="#000" fill="none"/>
  <path t="61288,61788,62523,62600,62713,62713,62729,62800,63162,63198,63198,63365,63397,63413,63483,63483,63535,63601,63762" d="M273.5,197.70499C273.87866,197.70499 272.93042,197.59354 272.20001,198.06215C271.40009,198.57535 270.84265,199.17378 270.11066,199.67966C269.43668,200.14543 269.16809,201.02907 268.5,201.70499C267.92111,202.29063 267.10052,202.68633 266.20001,202.70499C265.30017,202.72363 264.39999,202.92632 263.79999,203.35233L262.89999,203.69432L262,203.70499L261.10001,203.70499" id="svg_8" stroke-width="3" stroke="#000" fill="none"/>
  <path t="72088,72243,72258,72277,72294,72310,72318,72326,72351,72366,72366,72382,72398,72445,72485,72549,72605,72606,72638,72684,72699,72749,72797,72821,72893,72933,72949,72997,73021,73045,73100,73100,73116,73199,73268,73268,73283,73325,73357,73413,73429,73429,73453,73477,73525,73533,73573,73573,73597,73637,73637,73653,73693,73717,73757,73757,73864,73880,73949,73966,73997,74050,74101,74101,74917,74983,75065,75065,75166,75233,75249,75249,75309,75435,75493,75493,75520,75581,75581,75744,75797,75868,75901,75917,75989,76008,76030,76037,76085,76109,76109,76141,76150,76205,76205,76229,76253,76278,76278,76301,76325,76341,76374,76433,76449,76500,76516,76516,76542,76582,76614,76638,76808,76913,76973,77033,77033,77367,78320,78320,78365,78389,78422,78466,78482,78517,78582,78614,78629,78677,78677,78725,78757,78832,78932,78984,78999,79037,79101,79101,79101,79244,79244,79316,79512,79528,79601,79651,79651,79701,79709,79828,79916,79966,80045,80109,80149,80232,80232,80316,80367,80367,80413,80466,80532,80565,82636,82652,82652,82685,82701,82797,82853,82853,82978,83238,83283,83283,83299,83318,83511,83574,83574,83727,83774,85840,85840,85856,85885,85909,85920,85983,86127,86127,86262,86365,86390,86450,86493,87160,87198,87222,87222,87284,87498,87550,87600,87645,87677,87677,87750,87750,87817,88040,88083,88099,88099,88141,88199,88238,88294,88350,88390,88390,88421,88469,88493,88494,88510,88549,88573,88598,88681,89529" d="M257.5,193.70499C258.07468,195.30499 258.48199,196.10445 258.5,197.00499C258.51801,197.9048 258.38922,198.81183 258.5,199.70499C258.61151,200.60422 259.31427,201.03609 259.72134,201.80499C260.12238,202.56252 260.49466,203.30495 260.5,204.20499C260.50534,205.10497 260.39304,206.01152 260.50134,206.90498C260.61282,207.82475 261.34586,208.47185 261.48932,209.30499C261.64206,210.19199 261.56696,211.04854 262.07468,211.73032C262.55188,212.37112 262.5,213.30499 262.5,214.20499C262.5,215.10498 262.49991,216.00499 262.5,216.90498C262.50009,217.80482 262.79581,218.43401 263.59982,218.92648C264.21954,219.30606 264.41763,220.37018 264.936,221.10498C265.41068,221.77786 266.20853,222.09743 266.97916,222.70499C267.60403,223.19763 267.47421,224.22585 267.85266,225.00949C268.28192,225.89838 268.27032,226.79956 268.784,227.53566C269.26663,228.22728 269.41788,228.90875 269.50015,229.80499C269.58383,230.71643 270.15363,231.26541 270.7955,232.00499C271.37411,232.67168 271.10641,233.63559 271.58533,234.41965C272.07599,235.22293 272.45221,235.80626 272.5,236.70499C272.54272,237.50839 272.90518,238.26251 273.47467,239.09431C273.92975,239.759 274.3316,240.33545 274.52084,241.20499C274.70502,242.05127 275.2774,242.84305 275.58401,243.50499C275.98657,244.37407 276.85532,244.8026 277.33334,245.70499C277.67673,246.35321 277.96042,247.22859 278.44733,248.00049C278.89041,248.70293 279.3067,249.24861 279.52084,250.20499C279.71045,251.05185 280.58932,251.63211 281.064,252.30499C281.58237,253.03979 281.88608,253.84334 282.216,254.50499C282.63657,255.34834 282.5,256.30499 282.5,257.20499C282.5,258.10498 282.50009,259.00497 282.5,259.905C282.49991,260.80481 282.05542,261.44418 281.55267,262.06216C280.98041,262.76563 280.37891,263.3186 279.78534,263.789C279.04675,264.37433 278.39999,264.70499 277.5,264.70499C276.70001,264.70499 276.04852,265.03601 275.33334,265.53833C274.63791,266.02679 273.70001,265.70499 272.79999,265.70499C271.89999,265.70499 271,265.70499 270.10001,265.70499C269.20001,265.70499 268.29999,265.70499 267.39999,265.70499C266.5,265.70499 265.70001,265.70499 264.79999,265.70499C263.89999,265.70499 263,265.70499 262.10001,265.70499C261.20001,265.70499 260.28726,265.85565 259.40018,265.70483C258.54907,265.56012 258.5,264.50497 258.5,263.60498C258.5,262.70499 258.51874,261.90482 258.5,261.00497C258.48199,260.14044 257.64575,259.66101 257.50134,258.90366C257.33301,258.02087 257.5,257.10498 257.5,256.20499C257.5,255.30499 257.63657,254.34834 257.216,253.50499C256.88608,252.84334 256.50226,252.005 256.5,251.10498C256.49777,250.20499 256.5,249.30499 256.5,248.40498C256.5,247.50499 256.5,246.60498 256.5,245.70499C256.5,244.90498 256.51068,244.00493 256.5,243.10498C256.48956,242.22563 255.7001,241.7131 255.5045,241.00049C255.26723,240.13603 255.0558,239.31268 254.40016,238.60498C253.8502,238.01135 253.87651,237.12172 253.47917,236.22581C253.16382,235.51479 252.68497,234.97374 252.464,234.10498C252.24469,233.24274 251.62494,232.50035 251.49983,231.60498C251.37318,230.69852 250.84637,230.14456 250.2045,229.40498C249.62589,228.7383 249.69661,227.87044 249.44284,227.00499C249.18555,226.12755 248.69305,225.48814 248.49983,224.60515C248.31502,223.76059 247.37596,223.51192 246.8,223.00049C246.06773,222.35028 245.29536,221.82993 244.39999,221.70482C243.49353,221.57817 242.96283,220.95804 242.10001,220.74098C241.2265,220.52122 240.28741,220.85478 239.40016,220.70482C238.54814,220.56082 237.97362,219.89526 237.30133,219.41965C236.52107,218.86763 236.44733,218.00499 236,217.20499C235.55267,216.40498 235.323,215.36809 234.69867,214.99033C233.89313,214.50291 232.89999,214.70499 232,214.70499C231.10001,214.70499 230.14993,214.83665 229.39999,214.48366C228.62447,214.11862 227.80002,213.70724 226.89999,213.70499C226,213.70274 225.10001,213.70499 224.2,213.70499C223.3,213.70499 222.33942,213.50682 221.5,213.87166C220.81544,214.16919 220.26703,215.10136 219.5,215.53831C218.72014,215.98257 218.28477,216.64409 217.39999,216.70499C216.50212,216.76678 215.72256,216.82927 214.89999,217.27965C214.11961,217.70694 213.2,217.70499 212.3,217.70499C211.39999,217.70499 210.5,217.70499 209.7,217.70499C208.8,217.70499 207.8808,217.87021 207,217.68416C206.1526,217.50517 205.40288,216.80273 204.5,216.70499C203.80176,216.62939 203.03163,216.14301 202.2,215.75766C201.32814,215.35368 200.73138,214.85316 199.8,214.70949C198.91051,214.57227 198.02083,214.68416 197.44733,214.05765L196.7955,213.65231L196,213.20499" id="svg_9" stroke-width="3" stroke="#000" fill="none"/>
  <path t="91497,91939,91955,92000,92015,92046,92054,92086,92118,92134,92166,92248,92921,92936,92936,92966,93006,93067,93116,93169,93250,93331,93347,93347,93405,93437,93446,93477,93489,93501,93518,93541,93541,93565,93605,93637,93637,93653,93699,93741,93741,93789,93813,93813,93845,93899,93899,93950,93997,94050,94065,94065,94101,94141,94181,94181,94213,94229,94261,94332,94332,94366,94417,94417,94459,94479,94480,94485,94494,94509,94597,94712,94829,94829,95071,95071,95891,95949,96078,96213,96229,96277,96295,96525,96526,96598,96622,96654,96694,96782,96830,96900,96933,96934,96953,96966,97006,97026" d="M227.5,218.70499C227.5,220.50499 227.5,221.40498 227.5,222.30499C227.5,223.10498 227.5,224.00499 227.5,224.90498C227.5,225.80499 227.22589,226.94331 227.72133,227.58365C228.21321,228.21939 228.5,228.90498 228.5,229.80499C228.5,230.70499 228.5,231.50499 228.5,232.40498C228.5,233.30499 228.5,234.20499 228.5,235.10498C228.5,236.00499 228.5,236.90498 228.5,237.80499C228.5,238.70499 228.5,239.50499 228.5,240.40498C228.5,241.30499 228.5,242.20499 228.5,243.10498C228.5,244.00499 228.5,244.90498 228.5,245.80499C228.5,246.70499 228.70447,247.54196 228.44284,248.40498C228.17458,249.28987 227.29297,249.72314 226.85716,250.40498C226.33051,251.22897 226.07318,252.1138 225.39999,252.80499C224.90663,253.31155 224.28325,254.13116 223.5,254.53831C222.75615,254.92499 221.91879,255.33548 221.3,255.90366C220.71709,256.43887 219.95761,256.93002 219.27867,257.58365C218.69878,258.14194 218.39958,258.94748 217.69867,259.41965C216.98793,259.89844 216.07423,260.11484 215.40016,260.80499C214.83473,261.38391 214.50275,262.31058 213.7955,262.75766C213.12424,263.18201 212.40001,263.80499 211.8,264.405C211.20001,265.00497 210.50034,265.70532 209.89999,266.30499C209.30034,266.90399 208.47371,267.46744 207.8,267.75766C206.95821,268.12027 206.15405,268.58768 205.52533,269.13031C204.92516,269.64832 204.24594,270.13522 203.39999,270.58383C202.73042,270.9389 202.11966,271.5787 201.7,272.22232C201.13655,273.08643 200.54271,273.90198 200.5,274.80499C200.45747,275.70398 200.08231,276.2594 199.62151,276.92648C199.11745,277.65619 199.5,278.70499 199.5,279.50497C199.5,280.405 199.5,281.30499 199.5,282.20499C199.5,283.10498 199.5,284.00497 199.5,284.905C199.5,285.80499 199.5,286.70499 199.5,287.50497C199.5,288.405 199.5,289.30499 199.5,290.20499L199.5,291.10498" id="svg_10" stroke-width="3" stroke="#000" fill="none"/>
  <path t="98245,98409,98446,98446,98462,98487,98519,98519,98550,98581,98598,98621,98683,98698,98741,98765,98797,98821,98861,98979,99050,99050,99050,99109" d="M180.5,269.70499C180.5,271.46216 180.49066,272.35773 180.5,273.22098C180.51042,274.18433 181.00049,274.9238 181.33333,275.70499C181.65352,276.45651 181.4832,277.40515 181.5,278.30499C181.51801,279.2695 182.3181,279.69928 182.49867,280.50632C182.6949,281.3833 182.5,282.30499 182.5,283.20499C182.5,284.10498 182.5,285.00497 182.5,285.905C182.5,286.80499 182.5,287.70499 182.5,288.50497L182.5,289.405L182.5,290.30499" id="svg_11" stroke-width="3" stroke="#000" fill="none"/>
  <path t="103942,104109,104149,104173,104205,104213,104213,104230,104261,104315,104331,104382,104382,104477,104501,104541,104541,104566,104646,104678,104732,104732" d="M171.5,257.70499C173.3,257.70499 174.1203,257.70181 174.89999,258.13031C175.72208,258.58209 176.22194,259.1954 176.55267,259.99966C176.86366,260.75589 177.49365,261.33252 177.92534,262.10498C178.38316,262.92422 178.69307,263.82904 179.2045,264.405C179.85471,265.13727 180.43912,265.79886 180.5,266.70499C180.55363,267.50317 180.58533,268.41965 181.37849,268.92648L181.5,269.80499L181.5,270.70499L181.5,271.50497" id="svg_12" stroke-width="3" stroke="#000" fill="none"/>
  <path t="105615,105806,105806,105837,105869,105877,105893,105909,105949,105973,106029,106061,106101,106101,106163,106163,106238,106270,106278,106294,106318,106342,106400,106400,106453,106469,106525,106525,106535,106573,106605,106606,106613,106630,106661,106732,106732,106747,106747,106767,106774,106774,106790,106798,107818,107854,107910,107910,107966,108001,108128,108199" d="M171.5,255.70499C171.5,256.70499 171.5,257.50497 171.5,258.405C171.5,259.30499 171.33722,260.14304 170.85266,260.75766C170.34065,261.4071 170.68375,262.43149 170.464,263.30499C170.24695,264.16782 169.60892,264.80338 169.5,265.70499C169.4035,266.50369 168.75305,267.24216 168.536,268.10498C168.31625,268.97849 168.65935,270.00287 168.14734,270.65231C167.66278,271.26694 167.68311,272.20087 167.21466,272.90366C166.68454,273.69897 165.73708,273.77533 165.5,274.70499C165.28999,275.52847 164.38193,275.75317 163.936,276.31564C163.32626,277.08475 163.63531,278.17117 163.21466,278.905C162.82112,279.59155 162.05682,280.22729 161.55267,281.00049C161.09567,281.70135 160.27638,281.96405 159.7,282.50632C158.99033,283.17398 158.72156,284.16226 158.064,284.67966C157.41583,285.18964 156.61174,285.43024 156.02083,286.20499C155.46106,286.9389 155.026,287.59872 154.3,287.98898C153.44521,288.44846 152.7,288.789 152,289.20499L151.11067,289.67966L150.52533,290.14099L150.14284,291.00497" id="svg_13" stroke-width="3" stroke="#000" fill="none"/>
  <path t="109379,109511,109526,109526,109558,109558,109567,109605,109666,109666,109763,109778,109778,109850,109915,109915,109930,109999,110030,110046,110054,110085,110133,110165,110165,110189,110189,110281,110317,110341,110357,110365,110389,110389,110421,110445,110453,110485,110525,110549,110599,110638,110638,110670,110694,110734,110758,110782,110798,111051,111051,111099,111215,111215,111312,111365,111415,111462,111462,111470,111502,111567,111592,111630,111630,111714,111757,111765,111798,111798,111821,111829,111837,111861,111861,111893,111909,111925,111965,111997,112021,112053,112093,112093,112101,112118,112133,112149,112157,112182,112213,112221,112221,112245,112298,112341,112350,112405,112445,112469,112477,112477,112563,112579,112630,112630,112698,112698,112698,112714,112757,113174,113545" d="M130.5,286.70499C132.33333,286.53833 132.89722,286.02118 133.44733,285.34781C134.02106,284.64554 134.49126,284.28976 135.21466,283.62097C135.77071,283.1069 135.88748,282.06607 136.14734,281.35767C136.51405,280.35794 136.33228,279.38895 136.50133,278.50632C136.64645,277.7486 137.76662,277.62024 138.21466,276.90366C138.71382,276.10532 138.17189,275.03302 138.52083,274.22583C138.82947,273.51184 139.48763,273.00043 139.5,272.10498C139.51273,271.18399 139.7346,270.38904 140.07466,269.53033C140.39108,268.73132 140.62321,267.92905 141.07466,267.10498C141.50212,266.32471 141.5,265.405 141.5,264.50497C141.5,263.60498 141.5,262.70499 141.5,261.905C141.5,261.00497 141.5,260.10498 141.5,259.20499C141.5,258.30499 141.5,257.405 141.5,256.50497C141.5,255.60498 141.5,254.70499 141.5,253.90498C141.5,253.00499 141.5,252.10498 141.5,251.20499C141.5,250.30499 141.5,249.40498 141.5,248.50499C141.5,247.60481 141.5,246.81966 141.5,245.87965C141.5,244.87166 141.5,244.11565 141.5,243.20499C141.5,242.30499 141.63655,241.34834 141.216,240.50499C140.88608,239.84334 140.68597,238.97812 140.464,238.10498C140.2448,237.24271 139.70001,236.45889 139.33333,235.70499C138.96193,234.94138 138.51266,234.20514 138.5,233.30499C138.48734,232.40506 138.11392,231.56664 137.784,230.90498C137.36345,230.06163 137.25797,229.25664 136.784,228.62099C136.21074,227.85217 136.5,226.90498 136.5,226.00499C136.5,225.10498 136.5,224.20499 136.5,223.30499C136.5,222.40498 136.5,221.50499 136.5,220.60498C136.5,219.70499 136.5,218.90498 136.5,218.00499C136.5,217.10498 136.5,216.20499 136.5,215.30499C136.5,214.40498 136.5,213.50499 136.5,212.60498C136.5,211.70499 136.5,210.90498 136.5,210.00499C136.5,209.10498 136.5,208.20499 136.5,207.30499C136.5,206.40498 136.5,205.50499 136.5,204.60498C136.5,203.70499 136.55545,203.00404 137,202.20499C137.44562,201.40402 137.76349,200.48549 138.30133,199.90498C138.87738,199.28325 139.52142,198.50302 140.2,198.06215C140.99232,197.54736 141.55267,197.00049 141.92534,196.30499L142.41467,195.50499" id="svg_14" stroke-width="3" stroke="#000" fill="none"/>
  <path t="114812,115193,115229,115245,115261,115277,115293,115309,115317,115341,115373,115432,115561,115592,115592,115630,115662,115702,115702,115749,115804,115851,115893,115925,115957,115957,115989,116021,116124,116158,116189,116213,116237,116269,116301,116447,116447,117569,117585,117743,117781,117789,117865,117909,117910,117982,117982,118014,118014,118038,118063,118116,118275,118291,118291,118325,118357,118365,118389,118414,118445,118453,118546,118546,118562,118606,118666,118709,118726,118773,118774,118798,118849,118893,118893,118909,118996,119064,119147,119147,119183,119183,119205,119253,119314,119314,119329,119413,119445,119514,119621,119621,119622,119654,119730,119765,119789,119789,119805,119861,119885,120009,120061,120101,120141,120165" d="M140.5,192.70499C138.8,192.70499 137.79742,193.1032 136.936,192.66899C136.23712,192.31671 135.69824,191.73285 134.8,191.70499C133.85588,191.67569 133.62138,190.86366 132.97917,190.22581C132.33586,189.58687 131.3,189.70499 130.39999,189.70499C129.5,189.70499 128.66302,189.90945 127.8,189.64783C126.91512,189.37956 126.48185,188.49796 125.8,188.06215C124.97603,187.53549 124.05987,187.30167 123.584,186.50632C123.17006,185.81448 122.64451,185.20886 122.21467,184.50499C121.80222,183.82961 121.05279,183.1853 120.55267,182.40948C120.10268,181.71144 119.51042,181.18433 119.5,180.20499C119.49043,179.30504 119.5,178.40498 119.5,177.50499C119.5,176.60498 119.5,175.70499 119.5,174.90498C119.5,174.00499 119.5,173.10498 119.5,172.20499C119.5,171.30499 119.40913,170.40025 119.50134,169.50499C119.58504,168.69238 120.17104,168.10776 120.69867,167.21965C121.11348,166.52144 121.31986,165.49355 121.5,164.74666C121.71509,163.85481 122.31198,163.21642 122.936,162.73032C123.67816,162.15218 124.41496,161.71759 124.49866,160.90498C124.59087,160.00972 124.5,159.10498 124.5,158.20499C124.5,157.30499 124.50008,156.40498 124.5,155.50499C124.49992,154.60498 124.25787,153.75121 123.85267,153.00499C123.43938,152.24387 123.75081,151.26784 123.4955,150.40948C123.26866,149.64684 122.10687,149.90706 121.30133,149.41965C120.67699,149.04189 120.16992,148.25424 119.66666,147.53831C119.17794,146.84308 119.69595,145.87054 119.44283,145.00499C119.18619,144.12735 118.52868,143.40634 118.5,142.50499C118.47137,141.60544 118.25787,140.75121 117.85267,140.00499C117.43938,139.24387 117.5,138.29433 117.5,137.38365C117.5,136.53032 117.74946,135.46858 117.27866,134.82632C116.76683,134.12808 116.60295,133.47986 116.33334,132.53831C116.13744,131.85422 115.67933,131.20207 115.11066,130.34099C114.56655,129.51709 114.5,128.60498 114.5,127.70499C114.5,126.90498 114.5,126.00499 114.5,125.10499C114.5,124.20499 114.5,123.30499 114.5045,122.40948L114.92533,121.73032L115.5,121.20499L116.11066,120.67966" id="svg_15" stroke-width="3" stroke="#000" fill="none"/>
  <path t="122255,122470,122470,122742,122757,122757,122863,122947,122998,124133,124133,124214,124265,124597,124597,124637,124699,124699,124734,124759,124790,124822,124830,124846,124854,124863,124931,124973,124997,124997,125029,125046,125062,125062,125101,125148,125198,125221,125221,125269,125317,127321,127506,127541,127614,127682,127717,127717,127749,127781,127972,128013,128064,128110,128166,128166,128214,128215,128261,128314,128314,128314,128330,128382,128390,128512,128528,128550,128557,128573,128573,128589,128590,128613,128613,128630,128655,128655,128661,128661,128685,128725,128765,128765,128805,128864,128880,128901,128917,128949,128965,128965,129005,129015,129023,129077,129163,129178,129178,129229,129239,129269,129293,129310,129396,129479,129518,129518,129550,129598,129629,129669,129917,130042,131118,131213,131312,131460,131460,131495,131548,131581,131714,131758,131758,131790,131838,131870,131910,131965,131998,131998,132049,132093,132093,132103,132133,132149,132173,132189,132189,132199,132214,132231,132261,132261,132285,132333,132434,132497,132533,132549,132557,132761,132831,132914,132914,132914,132966,133469,133530,133546,133678,133709,133796,133849,133915,134018,134018,134080,134210,134312,134341,134365,134381,134421,134453,134485,134517,134517,134535,134557,134597,134637,134661,134715,134715,134749,134813,134880,134948,134981,135013,135013,135096,135158,135190,135221,135246,135254,135262,135262,135278,135290,135380,135380,135445,135471,135477,135509,135533,135557,135557,135589,135606,135622,135681,135681,135697,135764,135780,135780,135798,135823,135823,135846,135944,135944,135982,136032,136032,136077,136147,136190,136246,136246,136270,136302,136310,136366,136398,136448,136493,136494,136510,136526,136549,136550,136565,136566,136581,136597,136598,136629,136744,136760,136791,136821,136881,136881,136897,136934,136959,136982,137014,137014,137054,137070,137078,137163,137276,137276,137312,137320,137338,137429,137544,137544,137544,137605,137681,137717" d="M117.5,117.70499C118.5,116.53832 119.14797,116.13957 119.7955,115.40498C120.37923,114.74277 120.51733,113.90482 120.5,113.00499C120.48267,112.10444 120.07318,111.29617 119.4,110.60499C118.90664,110.09843 118.10361,109.47202 117.66666,108.70499C117.2224,107.92513 116.29554,108.08893 115.62133,107.48349C115.00373,106.92889 114.67816,106.25779 113.936,105.67966C113.31199,105.19357 112.69846,104.72437 111.8,104.70499C110.93545,104.68634 110.44849,103.88583 109.69867,103.70632C108.80644,103.49271 108.28477,102.76588 107.4,102.70499C106.50212,102.64319 105.7,102.70499 104.8,102.70499C103.97916,102.70499 103.016,102.70499 102.15266,102.70499C101.25716,102.70499 100.3,102.70499 99.4,102.70499C98.5,102.70499 97.7,102.70499 96.8,102.70499C95.9,102.70499 95,102.70499 94.1,102.70499C93.2,102.70499 92.3,102.70499 91.4,102.70499C90.5,102.70499 89.69981,102.72298 88.8,102.70499C87.89946,102.68698 87.18791,102.09209 86.3,101.79032C85.53825,101.53143 84.74974,101.42305 84.33334,100.70499C83.91287,99.97993 83.00015,99.71766 82.1,99.70499C81.20007,99.69232 80.28451,99.43714 79.7,98.90366C78.98029,98.24678 78.20153,97.73359 77.4,97.70499C76.50057,97.67289 75.56089,97.48976 75.5,96.60499C75.4382,95.70711 75.7102,94.96466 76.5,94.53832C77.18256,94.16988 77.99036,93.51577 78.67467,93.10499C79.48624,92.61782 80.0526,92.05738 80.91067,91.73032C81.79232,91.39426 82.53,91.23291 83.33334,90.70499C84.12157,90.18699 84.90987,89.83942 85.8,89.70049C86.61895,89.57266 87.26686,88.85913 88.1,88.71565C88.98701,88.5629 89.9,88.70499 90.8,88.70499C91.7,88.70499 92.6,88.70499 93.5,88.70499C94.3,88.70499 95.20006,88.69457 96.1,88.70499C97.00018,88.71541 97.73608,89.17095 98.6,89.58366C99.45266,89.99099 100.03902,90.46026 101,90.68415C101.86668,90.88607 102.37392,91.43058 103.11066,91.69432C103.94803,91.99408 104.91051,91.57227 105.8,91.70949C106.73138,91.85316 107.26862,92.55681 108.2,92.70049C109.08949,92.8377 110,92.70499 110.9,92.70499C111.8,92.70499 112.80135,92.45676 113.59967,92.92632C114.31878,93.3493 113.34573,93.88827 112.5,93.53832C111.71538,93.21366 111.10821,92.6155 110.44733,92.05766C109.86078,91.56255 109.01971,91.16319 108.3,90.50632C107.71549,89.97283 107.0102,89.51962 106.416,88.98898C105.81467,88.45197 104.93959,88.05137 104.2,87.40948C103.53331,86.83087 102.73825,86.74467 102,86.18415C101.22394,85.59492 100.73167,84.85385 99.8,84.70949C98.91061,84.57167 97.96112,84.76561 97.2,84.35232C96.45377,83.94711 95.7,83.70566 94.8,83.70499C93.9,83.70432 92.95977,83.74693 92.016,83.42099C91.30771,83.17638 90.2608,83.00331 89.62133,82.48365C88.94946,81.93766 88.2103,81.85376 87.55267,81.35232C86.87582,80.83623 86.50533,80.09437 86.5,79.20499C86.49454,78.29433 86.49939,77.38365 86.5,76.53032C86.50067,75.59165 86.85193,74.87785 87.44733,74.35232C88.08547,73.78906 88.15627,73.01472 88.52084,72.22582C88.87714,71.45482 89.55363,71.00102 90,70.20499C90.4483,69.40553 90.80687,68.65818 91.216,67.90498C91.64921,67.10747 92.05439,66.2873 92.7215,65.82648C93.45119,65.32243 94.6538,66.02736 95.37867,65.48365C96.02168,65.00134 96.7,64.70499 97.6,64.70499C98.5,64.70499 99.3,64.70499 100.2,64.70499C101.1,64.70499 102,64.70724 102.9,64.70499C103.80001,64.70274 104.53666,64.37886 105.3,63.98899C106.05289,63.60445 107,63.70499 107.9,63.70499C108.8,63.70499 109.75687,63.86774 110.6,63.48365C111.38002,63.12831 112.09995,62.71032 113,62.70499C113.89999,62.69965 114.8,62.70499 115.7,62.70499C116.6,62.70499 117.53825,62.53144 118.3,62.79032C119.18791,63.09208 119.89948,63.68631 120.8,63.70499C121.69848,63.72362 122.47132,64.06071 122.5,64.90498C122.53055,65.8043 122.79144,66.56981 123.7,66.70632C124.50784,66.8277 125.2,67.35232 126,67.70499C126.8,68.05766 127.65054,68.4577 128.5,68.87165C129.15227,69.1895 129.99982,69.69456 130.89999,69.70499C131.79994,69.7154 132.76813,69.57078 133.41733,69.98898C134.18069,70.48073 134.89433,70.65279 135.74283,71.05766C136.55226,71.44388 137.34999,71.71758 138,72.22582C138.76761,72.82602 139.43707,73.18624 140.14284,73.75765C140.8735,74.34924 141.29048,75.04919 141.7215,75.80499C142.10307,76.47408 142.86589,77.14714 143.59984,77.58366C144.38254,78.04917 144.27486,78.92279 144.784,79.62099C145.29338,80.31953 145.76785,80.92048 146.30133,81.50499C146.95821,82.22469 147.35147,83.04453 147.72133,83.80515C148.06375,84.50935 148.34645,85.3798 148.584,86.22099C148.83353,87.10458 149.69754,87.72929 150.14284,88.40498C150.61449,89.12067 151.2999,89.70356 151.49867,90.50632C151.69084,91.28242 151.94421,92.0973 152.59984,92.80499C153.1498,93.39861 153.48933,94.30499 153.5,95.20499C153.51067,96.10499 153.94234,96.81679 154.33333,97.70499C154.62283,98.36263 154.49467,99.305 154.5,100.20499C154.50534,101.10503 155.00049,101.9238 155.33333,102.70499C155.65353,103.45653 155.07683,104.5345 155.55716,105.34782C155.94678,106.00752 157.06384,106.18085 157.44733,107.00499C157.80406,107.77168 158.216,108.50499 158.4955,109.40498L158.5,110.30499L158.5,111.20499" id="svg_16" stroke-width="3" stroke="#000" fill="none"/>
  <path t="139276,139487,139487,139503,139541,139565,139581,139613,139630,139646,139728,139785,139832,139832,139847,139847,139869,139877,139901,139925,139965,140015,140084,140099,140099,140141,140165,140189,140190,140198,140206,140229,140255,140255,140277,140277,140396,140412,140462,140515,140555,140555,140568,140810,140810,141164,141637,141637,142167,142231,142231,142247,142293,142347,142347,142382,142382,142406,142406,142422,142482,142497,142497,142580,142614,142646,142694,143247,143247,143301,143349,143349,143389,143389,143445,143477,143494,143548,143548,143548,143605,143677,143701,143701,143725,143725,143765,143797,143797,143813,143837,143897,143933,143933,143957,144005,144053,144093,144093,144117,144141,144141,144157,144157,144189,144205,144221,144261,144293,144293,144325,144325,144373,144397,144397,144437,144513,144675,144675" d="M159.5,115.70499C158.5,116.70499 158.5,117.50499 158.5,118.40498C158.5,119.30499 158.5,120.20499 158.5,121.10499C158.5,122.00499 158.34065,123.00288 158.85266,123.65232C159.3372,124.26693 159.36345,125.06162 159.784,125.90498C160.11392,126.56664 160.48709,127.40507 160.5,128.30499C160.51262,129.18431 161.1618,129.74889 161.55267,130.40948C162.01743,131.19493 162.47141,132.00363 162.5,132.90498C162.52853,133.80453 162.5,134.70499 162.5,135.50499C162.5,136.40498 162.5,137.34099 162.5,138.18898C162.5,139.05232 162.5,140.06898 162.5,140.90498C162.5,141.80499 162.5,142.70499 162.5,143.46216C162.5,144.35765 162.5,145.22099 162.5,146.18416C162.5,147.10498 162.5,148.00499 162.5,148.90498C162.5,149.80516 162.5,150.59032 162.5,151.53032C162.5,152.53831 162.41911,153.36337 162.936,154.10498C163.4877,154.89653 164.10001,155.30499 164.8,156.00499C165.5,156.70499 166.03323,157.4483 166.89999,157.66899C167.77271,157.8912 168.66669,157.54927 169.2,156.94331C169.7804,156.28386 170.06026,155.50378 170.69867,154.59032C171.11752,153.99098 171.49466,153.10503 171.5,152.20499C171.50533,151.30501 171.42122,150.35019 171.92534,149.73032C172.42555,149.11525 172.96588,148.32965 173.37866,147.60515C173.82977,146.81337 174.32545,146.21919 175.02083,145.70499C175.7133,145.19293 176.38275,144.89969 177.14816,144.40498C177.92805,143.90092 178.42767,142.95157 179.2045,142.70949C180.06033,142.44279 180.85927,142.1651 181.66667,141.87166C182.4462,141.58835 183.15419,141.22823 183.86166,140.75766C184.69266,140.20494 185.48282,140.15718 186.47833,139.82632C187.20253,139.58565 187.76299,138.92018 188.5,138.53831C189.25395,138.14769 190.03207,137.77026 190.8,137.35233C191.64096,136.89464 192.61011,136.65038 193.064,136.09431C193.6785,135.34148 194.17551,134.78551 194.89999,134.26898C195.68561,133.70886 196.10001,133.10498 196.8,132.40498C197.5,131.70499 198.02644,131.23042 198.69867,130.50499C199.23656,129.92453 199.40593,128.89973 199.936,128.31566C200.55888,127.62932 201.39427,127.32656 201.72133,126.38365C201.96175,125.69051 202.02872,124.7189 202.584,123.99165C203.11548,123.29558 203.47464,122.70458 203.5,121.90498C203.52859,121.00363 204.02083,120.18415 204.59984,119.38365L204.97917,118.70499" id="svg_17" stroke-width="3" stroke="#000" fill="none"/>
  <path t="146355,146600,146616,146678,146702,146726,146796,146837,146877,146893,147025,147098,147133,147165,147190,147190,147221,147261,147261,147330,147366,147415,147430,147529,147701,147725,147726,147750,147928,147989,148029,148097,148097,148226,148245,148314,148358,148382,148406,148422,148481,148481,148496,148557,148630,148630,148662,148678,148726,148766,148815,148846,148886,148925,148957,148958,149014,149014,149082,149317,149317,149381,149397,149445,149445,149686,149717,149741,149757,149813,149853,149853,149930,149996,149996,150045,150069,150077,150094,150133,150157,150181,150189,150198,150198,150237,150298,150378,150422,150422,150494,150502,150580,150764,150797,150797,150829,150861,150885,151010" d="M203.5,118.70499C205.064,118.09432 205.16052,117.24213 205.51067,116.31565C205.78731,115.58365 206.69299,115.30135 207.216,114.62099C207.6859,114.00971 207.5,113.00499 207.5,112.10499C207.5,111.20499 207.49933,110.30499 207.5,109.40498C207.50067,108.50499 207.79416,107.65054 208.14734,107.00499C208.63184,106.11942 208.80121,105.22797 209.07466,104.53032C209.43916,103.6004 210.06679,103.0273 210.464,102.26899C210.86327,101.50677 211.0407,100.83035 211.5,100.18415C211.99548,99.48704 212.18253,98.47358 212.784,97.78899C213.30734,97.19332 213.5,96.50499 213.5,95.60499C213.5,94.70499 213.5,93.90498 213.5,93.00499C213.5,92.10499 213.5,91.20499 213.5,90.30499C213.5,89.40498 213.41788,88.50122 213.50017,87.60499C213.58385,86.69355 214.30019,86.05238 214.47917,85.20499C214.66522,84.32418 214.3051,83.3833 214.50133,82.50632C214.6819,81.69927 215.20786,81.13026 215.51067,80.31565C215.78333,79.58215 216.4894,79.09432 216.5,78.20499C216.51073,77.30499 216.9977,76.48498 217.33333,75.70499C217.6394,74.99371 217.37691,74.03068 217.58533,73.18899C217.80589,72.29824 218.5173,71.49664 219.2,71.06216C219.93213,70.59621 220.97627,70.84937 221.8,70.34782C222.37123,70.00001 223.17519,69.29006 223.44284,68.40498C223.70346,67.54313 223.04292,66.9416 222.30133,66.41965C221.51971,65.86954 221.21304,65.21715 220.62134,64.48349C220.10023,63.83737 219.64838,63.29412 218.936,62.67965C218.32671,62.15409 218.33284,61.27794 217.784,60.62099C217.26711,60.00227 216.7552,59.16727 216.536,58.30499C216.31403,57.43185 216.30693,56.58095 215.7955,56.00499C215.14529,55.27272 214.54271,54.50801 214.5,53.60499C214.45747,52.70599 214.5,51.90499 214.5,51.00499C214.5,50.10499 214.16245,49.12963 214.52133,48.31565C214.82683,47.62277 215.93201,47.79165 216.58267,48.42099L217.30133,48.78899L218.10001,49.27965L218.89999,49.66899" id="svg_18" stroke-width="3" stroke="#000" fill="none"/>
  <polyline timestamps="153076,153239,153435" startTime="1502000363679" id="svg_19" points="217.5,47.704986572265625 219.21466666666666,48.78898657226563 219.7215,49.583653238932285 " stroke-linecap="round" stroke-width="3" stroke="#000" fill="none"/>
  <path t="163767,164049,164049,164093,164146,164182,164190,164292,164307,164307,164342,164412,164412,164510,164573,164573,164589,164589,164613,164645,164645,164677,164693,164864,164880,164917,164917,164957,164989,165006,165023,165046,165061,165129,165213,165254,165278,165278,165326,165374,165390,165494,165494,165541,165581,165629,165629,165714,165864,165879,165978,166046,166174,166174,166285,166317,166326,166342,166349,166357,166373,166389,166421,166453,166453,166485,166562,166645,166661,166762,166797,166815,166841,166841,166897,166941,166941,166965,167005,167053,167093,167125,167181,167181,167230,167344,167344,167359,167421,167421,167437,167477,167477,167530,167546,167589,167589,167605,167694,167694,167694,167710,167734,167782,167798,167815,167878,167886,167894,167894,167910,167934,167974,168014,168022,168054,168086,168110,168110,168118,168142,168166,168182,168190,168198,168231,168231,168238,168294,168310,168342,168342,168397,168412,168412,168461,168501,168518,168534,168573,168582,168599,168618,168618,168622,168637,168666,168677,168685,168701,168710,168725,168726,168750,168789,168800,168800,168806,168806,168838,168894,168910,168941,168982,168982,169022,169046,169046,169078,169130,169145,169227,169227,169243,169329,169365,169397,169421,169421,169453,169485,169485,169501,169541,169541,169597,169597,169621,169645,169645,169653,169693,169725,169725,169734,169750,169767,169829,169869,169917,169995,169995,170077,170161,170277,170326,170380,170460,170518,170518,170534,171736,171812,171869" d="M241.5,102.70499C240.5,102.70499 239.7,102.70499 238.8,102.70499C237.89999,102.70499 236.96526,102.65208 236.2,103.05766C235.35411,103.50595 234.46075,103.52855 233.7,103.79032C232.92044,104.05856 232.38158,105.01752 231.7,105.41965C230.93187,105.87285 229.98927,105.93924 229.15266,106.40948C228.35704,106.85669 227.71016,107.44457 226.864,107.73032C226.02403,108.01397 225.36153,108.40462 224.38533,108.61965C223.41962,108.83237 222.81619,109.10221 222.14284,109.65232C221.44055,110.22606 221.08015,110.69199 220.416,111.41965C219.87209,112.01558 218.8461,112.18754 218.11067,112.67966C217.44119,113.12765 216.98196,113.86388 216.416,114.42099C215.74487,115.08162 215.13835,115.46626 214.40016,115.92648C213.683,116.37359 213.5089,117.32303 213.07466,118.10499C212.61905,118.92545 212.30693,119.82902 211.7955,120.40498C211.14529,121.13725 210.56088,121.79887 210.5,122.70499C210.44637,123.50319 210.51041,124.40504 210.5,125.30499C210.48958,126.20517 209.95682,126.90829 209.62151,127.80499C209.30342,128.65562 209.5,129.50499 209.5,130.40498C209.5,131.30499 209.37346,132.0867 208.85266,132.75766C208.39955,133.34142 208.67807,134.327 208.47917,135.20499C208.26117,136.16733 207.56088,136.79887 207.5,137.70499C207.44637,138.50319 207.5,139.40498 207.5,140.30499C207.5,141.20499 207.5,142.10498 207.5,143.00499C207.5,143.90498 207.45221,144.80626 207.5,145.70499C207.54272,146.50839 208.13049,147.28619 208.69867,147.90498C209.2339,148.4879 209.55171,149.40552 210,150.20499C210.44637,151.00102 211.02638,151.51471 211.69867,151.99033C212.47893,152.54234 212.51227,153.55524 213.02083,154.20499C213.62198,154.97302 214.3,155.50499 214.89999,156.10498C215.60001,156.80499 216.04913,157.36026 216.8,158.00049C217.55333,158.64281 218.35449,158.71432 219.10001,159.31566C219.75388,159.84308 220.48915,160.59561 221.2,160.70049C222.13474,160.83839 222.6543,161.62125 223.5,161.70499C224.29611,161.78381 225.16957,161.81543 225.584,162.50632C226.06076,163.30113 226.89946,163.68698 227.8,163.70499C228.69981,163.72298 229.60001,163.70499 230.5,163.70499C231.3,163.70499 232.2,163.70499 233.10001,163.70499C234,163.70499 234.89999,163.70499 235.8,163.70499C236.7,163.70499 237.60001,163.70499 238.5,163.70499C239.3,163.70499 240.2,163.70499 241.10001,163.70499C242,163.70499 242.89999,163.70566 243.8,163.70499C244.7,163.70432 245.55083,163.40414 246.2,163.05765C247.04938,162.60429 248,162.70499 248.91066,162.70499C249.82133,162.70499 250.5,162.70499 251.61467,162.70499C252.5,162.70499 253.3,162.70499 254.2,162.70499C255.10001,162.70499 256,162.70499 256.89999,162.70499C257.79999,162.70499 258.70001,162.70499 259.60001,162.70499C260.5,162.70499 261.29999,162.70499 262.20001,162.70499C263.10001,162.70499 264,162.70499 264.89999,162.70499C265.79999,162.70499 266.70001,162.70499 267.60001,162.70499C268.5,162.70499 269.33102,162.88899 270.20001,162.64783C270.97122,162.43379 271.82425,161.84175 272.5,161.70499C273.48328,161.506 274.14981,160.89511 275.10001,160.71565C275.98444,160.54861 276.94455,160.80046 277.70001,160.42099C278.5672,159.98541 279.11209,159.54456 279.66934,158.90366C280.26517,158.2184 281.03574,158.04626 281.97916,157.70499C282.81927,157.40109 283.6655,156.98163 284.5,156.53831C285.13391,156.20157 285.43799,155.14731 286.11066,154.67966C286.8335,154.17714 287.27997,153.44884 287.66666,152.70499C288.07382,151.92174 288.94125,151.4931 289.37866,150.60498C289.70096,149.95055 290.1503,149.14133 290.69867,148.50365C291.25732,147.85403 291.38312,146.85878 291.58401,146.18898C291.88785,145.17596 292.7312,144.70142 293.21466,143.90498C293.65997,143.17136 293.94421,142.31267 294.59982,141.60498C295.14978,141.01135 295.18024,140.14192 295.51068,139.31566C295.82632,138.52638 296.49365,138.07744 296.92532,137.30499C297.38315,136.48575 297.80087,135.65416 298.14734,135.00499C298.60068,134.15561 298.5,133.20499 298.5,132.30499C298.5,131.40498 298.5,130.50499 298.5,129.60498C298.5,128.70499 298.5,127.90498 298.44284,127.00499L298,126.24665L297.50449,126.41399L297.5,127.30499" id="svg_20" stroke-width="3" stroke="#000" fill="none"/>
  <path t="176365,176554,176554,176570,176597,176621,176726,176766,176927,176997,177109,177109,177125,177165,177309,177325,177427,177479" d="M254.5,259.70499C255.5,259.87164 256.28207,260.2095 256.97916,260.70499C257.62537,261.16431 258.33435,261.28192 259.14282,261.76215C259.80154,262.15341 259.98157,263.25681 260.79999,263.65231C261.66562,264.07062 262.36093,264.4519 262.88934,265.10498C263.49109,265.84872 263.85266,266.65231 264.5,267.20499L265.11066,267.69431L266,267.72583" id="svg_21" stroke-width="20" stroke="#fff" fill="none"/>
  <path t="179992,180125,180141,180161,180176,180198,180247,180247,180293,180317,180363,180420,180465,180509,180541,180612,180612,180628,180679,180717,180778" d="M292.5,124.70499C293.41599,124.98898 294.12769,125.4526 294.47916,126.22582C294.84305,127.02641 294.36835,128.05505 294.72134,128.80499C295.0864,129.58051 295.49774,130.40497 295.5,131.30499C295.50223,132.20499 295.5,133.10498 295.5,134.00499C295.5,134.90498 295.5,135.80499 295.5,136.70499C295.5,137.50499 295.5,138.40498 295.5,139.30499L295.5,140.20499L295.5,141.10498" id="svg_22" stroke-width="20" stroke="#fff" fill="none"/>
  <path t="184540,184893,184909,184941,184973,184973,185021,185158,185173,185261,185313,185313,185363,185431,185431,185493,185533,185657,185709,185763,185779" d="M256.5,251.70499C256.5,252.70499 256.51062,253.56081 257.11066,254.30499C257.63797,254.95898 258.14792,255.53296 258.55267,256.405C258.93857,257.23636 259.27844,258.16226 259.936,258.67966C260.58417,259.18964 261.29999,259.50632 262,260.20499C262.70001,260.90366 263.43823,261.18481 264.14282,261.75766C264.76096,262.26022 265.37866,262.92633 265.85718,263.64783L266.70001,263.70499L267.60001,263.70499" id="svg_23" stroke-width="3" stroke="#000" fill="none"/>
  <path t="188276,189136,189136,189211,189559,189559,189661,189728,189812,189894,189894,190012,190027,190112,190397,190397,190468,190622,190695,190823,190823,190870,190966,191092,191092,191193,191261,191312,191328,191458,191517,191625,191625" d="M291.5,140.70499C290.66666,140.53831 290.43405,139.81523 290.51068,138.87965C290.59396,137.86307 291.18591,137.30156 291.44284,136.40498C291.69125,135.53807 291.5,134.60498 291.5,133.70499C291.5,132.90498 291.08728,131.88156 291.55716,131.06215C291.9516,130.37431 292.52536,129.70459 292.5,128.90498C292.47141,128.00363 291.92636,127.24193 291.55267,126.40498C291.20792,125.63283 290.82568,124.8876 290.47467,124.10499C290.10666,123.28448 289.3992,122.6058 288.89999,122.10499C288.20337,121.40611 287.84445,120.46185 287.27866,119.82632C286.74417,119.22597 286.49866,118.50632 286.14282,117.75315L285.39999,117.26215L285,116.68415" id="svg_24" stroke-width="3" stroke="#000" fill="none"/>
  <path t="194558,194893,194909,194909,194928,194943,194949,194997,195037,195037,195053,195069,195128,195165,195165,195181,195277,195277,195333,195411,195411,195411" d="M260.5,105.70499C258.79999,104.70949 257.79742,105.10319 256.936,104.66898C256.23712,104.31671 255.56219,104.1077 254.78534,103.61965C254.04529,103.15473 253.5,102.70499 252.7,102.70499C251.8,102.70499 251.05165,102.46294 250.416,101.98898C249.64719,101.41573 248.66556,101.90093 247.8,101.64782C246.92236,101.39117 246.2,100.76215 245.3,100.70499L244.39999,100.70499L243.5,100.70499L242.7,100.70499" id="svg_25" stroke-width="3" stroke="#000" fill="none"/>
  <path t="202219,202637,202672,202672,202701,202709,202794,202845,202885,202977,204110,204240,204240,204278,204547,204909" d="M283.5,113.70499C284.30133,114.53299 284.88031,113.83125 285.29999,113.18765C285.86343,112.32354 286.26709,111.4077 286.784,110.78899C287.33282,110.13205 287.5,109.40498 287.5,108.50499C287.5,107.60499 287.5,106.70499 287.5,105.90498L287.55716,105.00499L288,104.20499L288.44284,103.40498" id="svg_26" stroke-width="3" stroke="#000" fill="none"/>
  <path t="210018,210110,210126,210142,210142,210150,210150,210158,210158,210166,210198,210198,210206,210254,210279,210294,210326,210350,210366,210382,210390,210399,210462,210536,210536,210579,210579,210700,210716,210808,210808,210808,210861" d="M232.5,87.70499C234.2,87.76215 234.97604,88.3197 235.8215,88.58366C236.68173,88.85223 237.70396,88.91474 238.28934,89.13032C239.34117,89.51767 240.14348,89.43296 241,89.74665C241.82239,90.04784 242.03438,91.25642 242.89999,91.63299C243.72415,91.99152 244.48448,92.1215 245,92.70499C245.56357,93.34286 246.2045,93.75765 247,94.20499C247.7955,94.65232 248.37573,95.24413 249.02083,95.70499C249.71828,96.20324 250.5,96.70499 251.10001,97.30499C251.8,98.00498 252.2235,98.59399 253,99.18415C253.73798,99.74503 254.59984,99.92648 255.21466,100.50632L255.55267,101.34782L256.33334,101.87165" id="svg_27" stroke-width="3" stroke="#000" fill="none"/>
  <path t="213285,213407,213407,213422,213447,213455,213455,213478,213510,213542,213657,213673,213709,213709,213741,213757,213781,213789,213798,213798,213805,213815,213837,213926,213941,213941,213998,214077,214144,214144,214181,214228,214228,214228,214244,214244,214244,214269,214325" d="M229.5,85.70499C231.3,85.70499 232.2,85.70499 233.10001,85.70499C233.91066,85.70499 234.82133,85.70499 235.67467,85.70499C236.61467,85.70499 237.73833,85.43089 238.37866,85.92632C239.01439,86.4182 239.75729,86.54129 240.60001,86.92632C241.2693,87.23212 241.92261,87.86422 242.584,88.42099C243.20078,88.9402 243.9803,89.24678 244.7,89.90366C245.28452,90.43714 246.32431,90.29018 247.14284,90.76215C247.82973,91.15822 248.25026,91.98692 248.66667,92.70499C249.08714,93.43004 250.06783,93.58102 250.8,94.06216C251.59424,94.58408 252.14584,95.26225 252.7955,96.00499C253.37668,96.66943 253.29959,97.54065 253.55716,98.40498C253.78328,99.16379 254.82117,99.58366 255.63867,99.73032L256.43866,100.13032L257,100.70499" id="svg_28" stroke-width="20" stroke="#fff" fill="none"/>
  <path t="217848,218186,218244,218467,218501,218549,218610,218626,218741,218825,218894,218894,218910,218942,218982,219059,219074,219207,219277,219326,219326,219342,219374,219390" d="M239.5,102.70499C239.536,101.71565 240.30133,101.70499 241.2,101.70499C242.10001,101.70499 243,101.70499 243.89999,101.70499C244.8,101.70499 245.7,101.70499 246.60001,101.70499C247.5,101.70499 248.3,101.70499 249.2,101.70499C250.10001,101.70499 251,101.70499 251.89999,101.70499C252.8,101.70499 253.70377,101.62286 254.60001,101.70515C255.51144,101.78883 256.20001,102.35232 256.97916,102.70499L257.55267,103.35232L258.26166,103.75765" id="svg_29" stroke-width="3" stroke="#000" fill="none"/>
  <path t="225430,225820,225870,225894,226210" d="M291.5,140.70499C292.07468,141.31566 292.46399,142.10498 292.5,143.00499L292.50134,143.90498" id="svg_30" stroke-width="3" stroke="#000" fill="none"/>
  <path t="229660,230450,230651,230651,230819,230909,230949,230950,230966,230998" d="M291.5,142.70499C292.33334,142.53831 292.74271,141.75153 293.14734,141.00499C293.57425,140.21741 293.5,140.80499 293.5,141.70499L293.5,142.50499L293.5,143.40498L293.5,144.30499" id="svg_31" stroke-width="20" stroke="#fff" fill="none"/>
  <path t="233342,233534,233550,233582,233582,233723,233738,233759,233759,233767,233822,233822,233877,233877,234083,234285,234309" d="M293.5,140.70499C292.69867,140.70499 291.86322,140.74118 290.84732,140.70049C290.15125,140.67259 289.25626,139.94351 288.40018,139.82681C287.64377,139.72371 287.38281,140.9575 287.936,141.65433C288.54779,142.42493 289.03253,142.93712 289.60001,143.68332C290.13995,144.3933 291,144.68416 291.88934,144.69432L292.47916,144.18416" id="svg_32" stroke-width="20" stroke="#fff" fill="none"/>
  <path t="237248,237530,237530,237581,237658,237701,237726,237793,237793,237843,238005,238218,238234,238317,238317,238341,238357,238381,238421,238477,238477,238477,238493,238590,238669,238836,238902,238961,239028,239421,239525,239541" d="M284.5,152.70499C285.41467,152.42099 285.58383,151.61948 286.2045,151.00049C286.79855,150.40804 287.78989,150.09789 288.37866,149.48349C289.03113,148.80261 289.14825,147.94318 289.89999,147.31566C290.55554,146.76843 291.43912,146.48976 291.5,145.60498C291.5618,144.70711 291.6243,143.92755 292.07468,143.10498C292.50195,142.3246 292.42432,141.40169 292.50134,140.50365C292.58502,139.52785 292.96323,138.89441 293.216,138.18898C293.58115,137.16997 294.31808,136.71069 294.49866,135.90366C294.69489,135.02667 294.5,134.10498 294.5,133.20499C294.5,132.30499 294.49551,131.40948 294.064,130.74098L293.2045,130.70049" id="svg_33" stroke-width="3" stroke="#000" fill="none"/>
  <path t="254489,254825,254841,254885,254885,254943,254990,255169,255169,255230,255254,255286,255302,255310,255358,255410,255445,255509,255509,255550,255582,255606,255739,255825,255825,255825,255910,255925,255950,255966,255982,256184,256184,256221,256245,256261,256277,256358,256358,256520" d="M257.5,80.70499C258.5,80.70499 259.16232,81.02078 258.5,81.70499C257.92725,82.29665 257.09012,82.57046 256.20001,82.70949C255.38118,82.83739 254.64888,83.47459 254.5045,84.40498C254.3665,85.29435 254.5,86.20499 254.5,87.10499C254.5,88.00499 254.37592,88.9136 254.50017,89.80482C254.61197,90.60674 255.45378,90.94711 256.20001,91.35232C256.96112,91.7656 257.89999,91.70499 258.79999,91.70499C259.70001,91.70499 260.60129,91.75278 261.5,91.70499C262.30341,91.66226 263.24121,91.16138 263.46399,90.30499C263.69077,89.43328 263.5,88.50499 263.5,87.60499C263.5,86.70499 263.89307,85.77457 263.41467,84.99032C262.92447,84.1867 262.216,83.78899 261.52533,83.26899L261.21466,82.50499L260.69867,81.90498L260,81.22582" id="svg_34" stroke-width="3" stroke="#000" fill="none"/>
  <path t="259131,259286,259302,259327,259423,259423,259540,259589,259629,259653,259653,259670,259694,259759,259856,259894,259989,260005,260045,260093,260142,260142,260194,260209,260286,260391,260406,260492,260533,260533,260549" d="M287.5,79.70499C285.04166,80.22582 284.72156,81.16228 284.064,81.67966C283.41583,82.18964 282.60919,82.42828 282.02084,83.20499C281.46252,83.94207 281.29086,84.98462 281.7215,85.80482C282.05933,86.44826 283.09158,86.7113 283.55267,87.40948C284.05148,88.16479 284.79861,88.67639 285.70001,88.70499C286.59955,88.73353 287.63809,89.02706 288.33334,88.53832C289.04926,88.03506 289.7565,87.61382 290.21466,86.90366C290.67252,86.19396 290.5,85.20499 290.5,84.30499C290.5,83.40498 290.5,82.50499 290.49985,81.60499L290.33334,80.70499L289.88934,80.10499L289.20001,79.40498" id="svg_35" stroke-width="3" stroke="#000" fill="none"/>
  <path t="261555,262108,262142,262158,262174,262214,262431,262447,262527,262566,262606,262606,262707,262707,262750,262798,262838,262838,262846,262957,263021,263053,263125,263256,263256,263342,263342,263374,263406,263414,263470,263543,263543,263593,263645,263695,263759,263759,263775,263843,263893" d="M276.5,97.70499C275.27866,98.58366 274.76114,99.3133 274.064,99.66898C273.29755,100.06002 272.42242,100.13105 271.92532,100.73032C271.41522,101.34527 271.5,102.30499 271.5,103.22582C271.5,104.18899 271.26163,104.90774 271.50449,105.94332C271.68484,106.71233 272.29053,107.2495 272.85718,108.00049C273.362,108.66954 274.29999,108.70432 275.20001,108.70499C276.10001,108.70565 277,108.70499 277.89999,108.70499C278.79999,108.70499 279.7897,108.85376 280.44733,108.35232C281.12418,107.83623 281.69299,107.30136 282.216,106.62099C282.68588,106.00971 282.38541,104.9935 282.53601,104.06898C282.67807,103.19696 283.1998,102.56655 283.41467,101.59032C283.62723,100.6246 283.22995,99.9313 282.39999,99.48365C281.75235,99.13432 280.936,98.67966 280.41599,97.98898L279.69867,97.70632" id="svg_36" stroke-width="3" stroke="#000" fill="none"/>
  <path t="265759,266185,266292,266421,266538" d="M281.5,97.70499C280.69867,97.61965 279.89999,97.13032 279.10001,96.74099L278.20001,96.70499" id="svg_37" stroke-width="3" stroke="#000" fill="none"/>
  <polyline timestamps="267808,268856,268856" startTime="1502000363679" id="svg_38" points="288.5,78.70498657226562 287.5,77.70498657226562 286.7,77.70498657226562 " stroke-linecap="round" stroke-width="3" stroke="#000" fill="none"/>
 </g>
</svg>