<svg width="500" height="333.3333333333333" xmlns="http://www.w3.org/2000/svg" xmlns:svg="http://www.w3.org/2000/svg" xmlns:xlink="http://www.w3.org/1999/xlink">
 <!-- Created with SVG-edit - http://svg-edit.googlecode.com/ -->
 <g display="inline" class="layer">
  <title>Layer 1</title>
  <path t="77762,78291,78309,78309,78347,78443,78443,78493,78493,78543,78619,78649,78649,78675,78680,78751,78897,78923,78957,78957,79039,79039,79069,79083,79169,79225,79315,79342,79391,79411,79417,79417,79660,79660,79663,79693,79693,79733,79749,79749,79765,79805,79805,80239,80269,80369,80405,80415,80419,80419,80471,80471" d="M187.5,258.66666C187.5,261.29199 187.25552,262.22485 187.61433,262.95685C187.98643,263.71594 189.29364,263.95908 189.45833,264.6875C189.66972,265.62247 189.5,266.46533 189.5,267.36667C189.5,268.23065 189.5,269.23599 189.5,270.01849C189.5,270.90952 189.5,271.86533 189.5,272.75067C189.5,273.64584 189.54613,274.52911 189.5,275.5C189.46396,276.25858 188.8175,277.01831 188.14816,277.30951C187.28607,277.68457 186.02168,277.34006 185.55716,278.01935C185.09506,278.6951 185.85461,279.92438 185.14734,280.55234C184.51865,281.1105 183.50208,281.2291 182.66667,281.5C181.89146,281.75137 180.93419,281.82065 180.20984,282.37115C179.46474,282.93744 179.16667,283.66666 178.31467,283.66666C177.38533,283.66666 176.5,283.66666 175.7,283.66666C174.78534,283.66666 173.93066,283.66666 173.14816,283.66666C172.136,283.66666 171.1998,283.68539 170.30133,283.66666C169.4381,283.64865 168.64934,283.23065 167.83333,282.66666L167.45183,282.02383L166.66667,281.5L166.416,280.78" id="svg_7" stroke-width="3" stroke="#000" fill="none"/>
  <path t="81788,82321,82331,82332,82337,82361,82377,82393,82477,82563,82563,82580,82593,82639,82649,82665,82705,82719,82735,82751,82755,82791,82825,82841,82983,82997,82997,83175,83219,83234,83259,83259,83285,83299,83315,83331,83331,83331,83335,83335,83345,83355,83391,83401,83401,83405,83415,83431,83507,83709,83805,83826,83827,83849,83869,83869,83895,83925,83925,84173,84173,84299,84299,84313,84338,84345,84388,84405,84429,84476,84476,84506,84516,84522,84522,84552,84552,84562,84578,84584,84595,84595,84598,84610,84610,84624,84630,84640,84654,84664,84670,84682,84682,84696,84700,84726,84742,84762,84772,84772,84788,84802,84802,84824,84834,84848,84874,84890,84890,84904,84904,84920,84920,84924,84940,84964,84964,84990,84990,84994,85010,85040,85050,85080,85080,85106,85120,85120,85136,85156,85176,85182,85182,85196,85196,85196,85226,85252,85252,85257,85540,85554,85564,85660,85670,85678,85686,85686,85696,85700,85826,85832,85842,85842,85842,85858,85912,86048,86048,86064,86064,86090,86090,86090,86104,86104,86110,86110,86120,86220,86220,86236,86236,86250,86282,86366,86366,86412,86452,86492,87934,87990,88062,88062,88086,88248,88277,88288,88308,88308,88695,88727,88732,88934,89004,89075,89130,89130,89150,89179,89180,89205,89352,89362,89382,89418,89434,89438,89438,89467,89478,89484,89498,89508,89508,89524,89547,89548,89554,89640,89640,89650,89656,89656,89670,89686,89686,89696,89696,89801,89815,89825,89826,89978,89978,90013,90130,90130,90133,90134,90150,90416,90423,90423" d="M165.5,278.66666C163.67467,278.66666 162.66594,278.63101 161.8045,278.66666C160.93376,278.7027 160.9287,279.74561 160.27867,280.42368C159.72386,281.00241 158.63806,280.6322 157.66667,280.66666C156.86014,280.69528 156.42943,281.4303 155.5,281.66666C154.67638,281.8761 155.0658,282.87338 154.49966,283.54517C154.03865,284.09219 152.72662,283.29822 152,283.70834C151.30301,284.10175 151.21579,285.20886 150.62134,285.888C150.09238,286.49231 149.33067,286.66666 148.47917,286.66666C147.5215,286.66666 146.70114,286.68542 145.8,286.66666C144.93544,286.64865 144.45889,285.90384 144.5045,285.01849C144.54497,284.23288 145.17105,283.55917 145.584,282.86533C146.01711,282.13763 146.84082,281.6828 147.74001,281.25601C148.44359,280.92206 149.10429,280.33063 149.504,279.52802C149.90512,278.72253 150.7955,278.66666 151.72166,278.66666C152.66667,278.66666 153.69786,279.26205 154.42799,278.65601C155.04832,278.14111 154.93361,276.97488 155.89999,276.70267C156.76283,276.45959 157.47141,276.30627 157.5,275.34549C157.52432,274.52838 157.5,273.58401 157.5,272.66666C157.5,271.86667 157.5,271.03067 157.5,270.01849C157.5,269.23599 157.57826,268.21588 157.464,267.48132C157.31596,266.52963 156.69383,265.8038 156.55716,265.01849C156.38225,264.01349 155.72542,263.72058 155.5045,262.96216C155.25407,262.10239 155.5,261.14584 155.5,260.34549C155.5,259.52802 155.5,258.44516 155.5,257.56668C155.5,256.66666 155.41391,255.90445 155.509,255.01849C155.59427,254.22404 156.75928,254.05702 157.32933,253.38133C157.92932,252.67017 157.491,251.56645 157.5,250.78133C157.51067,249.85182 157.82706,248.98625 158.5,248.6875C159.38231,248.29581 160.1635,247.85674 160.47917,247.14583C160.86847,246.26915 161.17117,245.64723 161.47467,244.81599C161.76218,244.02856 162.39294,243.76448 163.31467,243.65601C164.27365,243.54314 164.56197,242.76183 165.5,242.66667C166.34549,242.58092 166.49809,241.66667 166.5,240.9095C166.50226,240.01848 166.60587,238.84636 167.26167,238.67567C168.11963,238.45239 169.18582,238.82687 170.02083,238.64583C170.8485,238.46638 171.60892,237.81892 172.38533,237.58267C173.16719,237.34476 173.8858,236.93628 174.89867,236.752C175.65521,236.61435 176.79539,236.76054 177.45183,236.314C178.14368,235.84335 178.96951,235.71095 179.61333,235.09734C180.29544,234.4472 180.16437,233.15315 180.85716,232.72383C181.65649,232.2285 182.38077,232.07924 183.06799,231.75067C183.86209,231.37102 184.48933,231.02017 184.5,230.01849C184.50833,229.23605 185.04596,228.85446 185.7955,228.30949C186.4734,227.81662 186.72633,226.92178 187.38667,226.412C188.05534,225.89578 188.44652,225.12021 189.01601,224.51866C189.79642,223.69431 190.54681,223.3598 191.3,222.95067C192.09752,222.51746 192.67635,221.97043 193.5,221.66667C194.39835,221.33536 194.93544,220.68468 195.8,220.66667C196.70114,220.6479 197.66667,220.66667 198.47917,220.66667C199.39017,220.66667 200.33968,221.06296 201.064,220.59467C201.8118,220.11119 201.9751,218.90901 202.776,218.73866C203.43034,218.59949 204.53999,218.66667 205.36133,218.66667C206.33333,218.66667 207.12534,218.66667 208.14816,218.66667C208.93066,218.66667 209.65469,219.17087 209.936,219.95334C210.1936,220.66985 210.54251,221.56711 211.10001,222.24533C211.64847,222.91257 212.40071,223.33322 213.31467,223.65199C214.18367,223.95508 214.47916,224.68681 214.5,225.64517C214.51784,226.46513 214.5,227.36667 214.5,228.30949C214.5,229.23601 214.5,230.01849 214.5,231.03067C214.5,231.86667 214.5,232.76649 214.5,233.6875C214.5,234.528 214.5,235.5 214.5,236.256C214.5,237.16667 214.38837,238.36194 215.11067,238.65601C215.91652,238.98409 216.46143,239.37543 216.49867,240.18401C216.54294,241.14507 217.03984,241.8712 217.37849,242.76649C217.68297,243.57146 217.94536,244.57446 217.33333,245.33333C216.76988,246.03195 215.71541,245.77693 214.936,246.24133C214.18082,246.6913 213.31467,246.66667 212.38533,246.66667C211.5,246.66667 210.9532,247.1132 210.216,247.58133C209.51514,248.02638 208.47841,247.62878 207.5215,247.66684C206.80281,247.69542 206.0778,248.35208 205.2045,248.6095C204.36453,248.85709 203.25545,248.44548 202.66933,249.23601C202.18562,249.8884 202.25787,251.06081 201.5,251.5C200.77464,251.92035 200.01283,252.42833 199.16667,252.66667C198.38046,252.88812 197.62366,253.26132 196.836,253.54517C196.04384,253.83064 194.80446,253.51488 194.49966,254.10933C194.1756,254.74138 193.79518,255.59811 192.98267,255.664C192.0237,255.74178 191.18616,256.00909 190.5,256.66666C189.92413,257.21854 189.14128,257.49753 188.35066,257.70267C187.508,257.92133 187.3073,258.98798 187,259.6875C186.58583,260.63031 186.50133,261.46533 186.5,262.36667L186.608,263.19467L187.35201,263.29599L188.224,263.04532" id="svg_8" stroke-width="3" stroke="#000" fill="none"/>
  <path t="92964,93387,93388,93398,93473,93488,93503,93624,93624,93716,93729,93740,93740,93756,93819,93819,93855,93947,93971,93992,94001,94008,94031,94031,94047,94093,94263,94949,94981,94995,95097,95097,95183,95207,95223,95227,95627,95657,95658,95969,95975,95999,96004,96013,96013,96085,96101,96115,96131,96145,96171,96171,97259,97295,97375,97397,97397,97547,97719,97745,97745,97765,97789,98037,98199,98213,98299,98299,98411,98411,98515,99035,101163,101265,101265,101712,101719,101719,101728,101815,101845,101845,101865,101891,101915,101922,101946,101946,101966,102094,102154,102218,102218,102250,102250,102370,102370,102386,102396,102400,102400,102456,102744,102744,102744,102783,102819,102860,102860,102966,102966,103222,103252,103278,103304,103354,103434,103440,103540,103540,103556,103586,103586,103599,103608,103608,103618,103628,103869,103906,103936,103936,103950,103996,103996,104052,104157,104208,104278,104278,104314,104480,104616,104642,104647,104742,104742,104763,104874,104909,104909,104959,104979,105212,105212,105228,105238,105252,105252,105263,105263,105263,105284,105698,105838,105838,105854,105900,105924,105969,106029,106075,106086,106086,106261,106271,106309,106448,106711,106712,106722,106871,106872,107154,107209,107290,107290,107331,107376,107441,107488,107527,107594,107594,107663,107680,107680,107709,107837,107861,107991,108021,108021,108067,108153,108153,108171,108183,108213,108369,108389,108511,108512,108531,108561,108561,108587,108611,108733,108793,108794,108833,108979,108995,109009,109051,109052,109096,109424,110351,110368,112807,113513,113514" d="M214.5,243.66667C215.5,243.66667 216.47954,244.13222 217.21466,243.58133C217.83105,243.11942 217.5,241.96666 217.5,241.03067C217.5,240.18401 217.49556,239.23599 217.5,238.30949C217.5045,237.37114 218.00304,236.97386 218.79466,236.614C219.57796,236.25792 219.3073,235.05664 219.55716,234.37199C219.86115,233.53905 220.05066,232.81615 220.55716,232.02383C220.95421,231.40273 222.30847,231.67032 222.4955,230.905C222.70596,230.04373 222.56262,229.00423 223.5,228.70833C224.38585,228.4287 224.70744,228.10428 225.37866,227.44533C225.99646,226.83882 226.70134,226.66667 227.66667,226.66667C228.47917,226.66667 229.39017,226.66667 230.2045,226.66667C231.10001,226.66667 232.21373,226.77893 232.48933,226.02C232.77472,225.23415 232.73096,223.99199 232.14284,223.66667C231.31781,223.2103 230.2758,223.84204 229.43866,223.63066C228.57603,223.41286 228.00758,222.83144 227.02083,222.6875C226.10942,222.55455 225.17519,222.82144 224.33067,222.58133C223.58905,222.37047 222.67813,221.76024 221.91066,221.67734C221.0052,221.57954 219.7977,221.79179 219.52083,221.125C219.15988,220.25574 219.5,219.3765 219.5,218.38133C219.5,217.46666 219.5,216.5665 219.5,215.78133C219.5,214.85201 219.5,213.9095 219.5,213.092C219.5,212.23067 219.59702,211.11684 218.93066,210.74933C218.22504,210.36017 217.30304,209.93103 216.86166,209.37199C216.26851,208.62071 215.65065,208.29868 215.4955,207.36667C215.35936,206.54889 214.66127,205.95052 214.56166,205.01849C214.45285,204.0004 215.30133,203.668 216.2,203.66667C217.136,203.66528 218.0038,203.85022 218.79016,203.66667C219.56596,203.4856 220.02065,202.67709 220.89999,202.66667C221.80444,202.65596 222.66672,202.67532 223.47917,202.66667C224.4585,202.65625 224.65561,201.75032 225.60001,201.66667C226.49649,201.58727 227.25717,201.66667 228.14816,201.66667C228.93066,201.66667 229.99109,201.89828 230.79466,201.6095C231.6291,201.30962 232.14662,200.67201 233.14816,200.66667C233.93065,200.66251 234.91713,200.77086 235.66667,200.33333C236.38277,199.91531 237.20256,199.36308 237.5,198.38133C237.73622,197.60167 237.5,196.66667 237.5,195.78133C237.5,194.84134 237.51256,194.15059 237.5,193.07733C237.48958,192.18732 237.0442,191.53529 236.416,190.95067C235.79482,190.37257 235.32278,189.65765 234.66667,189C234.17596,188.50813 233.1053,188.71632 232.25717,188.314C231.44687,187.92961 230.7,187.66795 229.85716,187.66667C228.93201,187.66527 228.14575,187.4819 227.45183,187.01933C226.76031,186.55836 225.79344,186.56036 224.936,186.66667C224.03661,186.77818 223.35031,187.36208 222.38533,187.58133C221.51801,187.7784 220.50464,187.18062 219.78534,187.752C219.0777,188.31412 218.59009,188.32423 217.83333,189C217.28415,189.49042 216.88641,190.3618 216.536,191.10266C216.16626,191.88438 216.6989,192.99878 216.14734,193.6095C215.64063,194.17055 215.57205,194.87921 215.07466,195.60533C214.61197,196.28079 214.5,197.14934 214.5,197.95683C214.5,198.83734 214.5,199.6875 214.5,200.64534C214.5,201.41933 214.92284,202.59367 214.5,203.33333C214.17134,203.90825 213.04233,203.68228 212.30034,204.1095C211.47379,204.58539 210.83929,205.08925 210.54167,206.14583C210.29753,207.01257 210.50191,206.66667 210.5,205.9095C210.49774,205.01848 210.09831,204.29146 209.62151,203.6665C209.18797,203.09827 209.5,202.06667 209.5,201.14583C209.5,200.18401 209.49991,199.3765 209.5,198.44516C209.50009,197.56683 210.04915,196.99615 210.44284,196.30499C210.91858,195.46979 210.5,194.528 210.5,193.584C210.5,192.66667 210.98277,191.67392 210.41467,190.952C209.87074,190.26079 208.79004,190.65265 207.98267,190.66667C206.9462,190.68468 206.45386,191.32469 205.7955,191.71933C205.02823,192.17926 204.68504,193.1937 203.93201,193.58133C203.28192,193.91597 201.96997,193.48041 201.58533,194.23601C201.22845,194.93706 201.78781,196.19608 201.064,196.63066C200.32629,197.07358 199.64095,197.21837 198.93201,197.86534C198.42485,198.32817 197.19063,198.36678 196.66667,199C196.13226,199.64584 196.12337,200.65509 195.47467,201.24133C194.89267,201.7673 194.97855,202.60341 194.5,203.38133C194.16632,203.92375 192.86227,203.72878 192.57201,204.528C192.23929,205.44412 192.85686,206.45526 192.464,207.23067C192.11029,207.92882 191.5,208.5455 191.5,209.3765C191.5,210.18401 191.50232,211.14583 191.5,212.06667C191.49774,212.96219 190.85797,213.53851 190.55716,214.3765C190.28369,215.13834 190.5,216.03067 190.5,216.96666C190.5,217.86534 190.5,218.7765 190.5,219.528L190.5,220.5L190.5,221.36217" id="svg_9" stroke-width="3" stroke="#000" fill="none"/>
  <path t="118286,118563,119021,119173,119203,119293,119293,119327,119339,119365,119379,119482,119506,119506,119552,119552,119558,119568,119644,119698,119728,119728,119754,119754,119758,119800,119814,119890,119916,119940,119940,119976,120055,120076,120234,120304,120334,120334,120348,120362,120362,120364,120390,120390,120394,120470,120602,120612,120622,120656,120682,120682,120698,120728,120738,120738,120752,120788,120868,120868,120914" d="M194.5,208.66667C195.30133,208.58133 195.93623,208.30307 196.50133,208.58133C197.18774,208.91933 198.27298,208.38358 198.93066,208.83734C199.73975,209.39555 199.49838,210.60936 200.30133,210.66667C201.19772,210.73065 202.02083,210.66667 202.98267,210.66667C203.79016,210.66667 204.61305,210.30196 205.02083,209.66667C205.53564,208.86462 206.63696,209.02957 207.216,208.496C207.87048,207.89293 207.49611,206.68799 207.5,205.914C207.5045,205.01846 207.56433,204.00958 208.5,203.70833C209.38474,203.42346 209.5,202.86534 209.5,201.96666C209.5,201.14583 209.31645,200.16287 209.5,199.3765C209.68108,198.60071 210.48442,198.23122 210.5,197.26666C210.51447,196.37128 210.0752,195.68468 209.16667,195.66667C208.47931,195.65305 207.38533,195.66667 206.5,195.66667C205.7,195.66667 204.864,195.66667 203.84734,195.66667C203.15266,195.66667 202.08856,195.5611 201.3,195.95067C200.42993,196.38051 199.58377,196.82059 199.5,197.64133C199.40819,198.54083 199.5,199.3765 199.5,200.18401C199.5,201.14583 199.6235,202.17766 199.05733,202.76649C198.47133,203.37595 197.52133,203.728 197.5,204.528L197.5,205.5L197.5,206.36217L197.5,207.26666" id="svg_10" stroke-width="3" stroke="#000" fill="none"/>
  <path t="131181,132967,132967,133111,133407" d="M164.5,278.66666C163.79466,278.30951 163.06799,277.86533 162.48534,277.10266L161.87199,276.66666" id="svg_11" stroke-width="3" stroke="#000" fill="none"/>
  <path t="136191,136579,137174,137315,137664,137684,137700,137770,138356,138356,139026,139026,139142,139576,139576" d="M162.5,276.66666C163.5,276.66666 164.49858,276.75201 164.5,277.66666C164.50137,278.54517 165.2045,278.66666 166.10001,278.66666C167.02083,278.66666 168.06023,278.41809 168.79016,278.78101C169.54425,279.15594 169.49733,280.18399 169.45833,281.125L168.79016,281.6095L167.98267,281.66534" id="svg_12" stroke-width="3" stroke="#000" fill="none"/>
 </g>
</svg>