<svg width="280" height="420" xmlns="http://www.w3.org/2000/svg" xmlns:svg="http://www.w3.org/2000/svg" xmlns:xlink="http://www.w3.org/1999/xlink">
 <!-- Created with SVG-edit - http://svg-edit.googlecode.com/ -->
 <g display="inline" class="layer">
  <title>Layer 1</title>
  <path t="0,202,217,243,260,276,292,309,326,342,359,359,376,392,409,425,452,452,459,514,538,575,592,608,639,659,676,693,710,740,780,810,850,859,880,950,990,1058,1077,1093,1122,1170,1200,1224,1224,1261,1326,1364,1410,1458,1458,1503,1527,1551,1574,1592,1613,1658,1683,1683,1714,1745,1769,1800,1841,1878,1918,1947,1947,1988,2010,2025,2058,2076,2092,2108,2135,2174,2236,2236,2252,2370,2416,2447,2447,2494,2518,2539,2559,2587,2609,2633,2675,2675,2692,2709,2728,2775,2775,2792,2808,2808,2835,2876,2925,2942,2942,2961,2986,2999,3016,3040,3074,3093,3109,3131,3131,3163,3195,3209,3226,3242,3273,3292,3328,3366,3460,3538,3584,3624,3764" d="M75.5,310.5C75.5,312.29999 75.51067,313.20007 75.5,314.10001C75.48958,314.97934 74.74059,315.44119 74.5045,316.2045C74.23962,317.06088 73.97259,317.84573 73.584,318.70001C73.23689,319.4631 72.74957,320.15799 72.2045,320.79999C71.56384,321.55457 71.10213,322.18329 70.55267,322.85718C69.97914,323.56058 70.01795,324.43704 69.44733,325.14282C68.85625,325.8739 67.95334,326.17032 67.55717,326.85718C67.08733,327.67175 66.83396,328.30881 66.52084,329.02084C66.17098,329.81638 65.77396,330.37375 65.51067,331.11066C65.17776,332.04239 65.5,333 65.5,333.89999C65.5,334.79999 65.624,335.70862 65.49983,336.59982C65.38811,337.4017 64.5286,337.85571 64.5,338.70001C64.46953,339.59949 64.8218,340.63791 64.33334,341.33334C63.83102,342.04852 63.5,342.70001 63.5,343.60001C63.5,344.5 63.44283,345.20001 63,346C62.55717,346.79999 62.5,347.70001 62.5,348.60001C62.5,349.5 62.5,350.29999 62.5,351.20001C62.5,352.10001 62.5,353 62.5,353.89999C62.5,354.79999 62.5,355.70001 62.5,356.60001C62.5,357.5 62.5,358.29999 62.5,359.20001C62.5,360.10001 62.5,361 62.5,361.89999C62.5,362.79999 62.5,363.70001 62.5,364.60001C62.5,365.5 62.5,366.29999 62.5,367.20001C62.5,368.10001 62.44701,369.03479 62.85266,369.79999C63.30105,370.64578 64.00781,371.10864 64.44283,371.85718C64.8673,372.58755 64.5,373.60001 64.5,374.5C64.5,375.29999 64.87071,375.92896 65.3785,376.7215C65.85694,377.46823 65.5,378.5 65.5,379.29999C65.5,380.20001 65.5,381.10001 65.5,382C65.5,382.89999 65.5,383.79999 65.5,384.70001C65.5,385.60001 65.67355,386.53824 65.41467,387.29999C65.1129,388.18793 64.61614,388.94131 64.216,389.70001C63.76329,390.55838 63.53967,391.26175 62.97917,392C62.38994,392.77606 61.82228,393.31534 61.47467,394.10001C61.11239,394.91776 60.71098,395.75363 60.27867,396.60001C59.94394,397.25531 59.51073,398.10001 59.5,399C59.4894,399.88934 58.78301,400.37704 58.51067,401.11066C58.20095,401.94492 57.95681,402.70328 57.6215,403.60001C57.30342,404.45065 57.5,405.29999 57.5,406.20001C57.5,407.10001 57.41052,407.91736 56.92533,408.52533C56.42696,409.14981 56.8982,410.20258 56.464,411.064C56.11172,411.76288 55.50067,412.30133 55.5,413.20001C55.49933,414.10001 55.47917,414.97916 54.92533,415.52533L54.5045,416.2045" id="svg_1" stroke-width="3" stroke="#000" fill="none"/>
  <path t="7560,7831,7855,7879,7902,7925,7976,7993,7993,8008,8027,8058,8075,8097,8097,8138,8176,8191,8208,8238,8278,8324,8342,8359,8377,8410,8432,8432,8463,8479,8503,8518,8526,8549,8574,8596,8619,8643,8668,8668,8690,8709,8730,8774,8792,8821,8846,8877,8899,8931,8964,8986,8986,9040,9075,9092,9158,9158,9195,9260,9290,9313,9368,9407,9429,9474,9474,9499,9540,9571,9594,9618,9657,9674,9712,9712,9758,9804,9811,9828,9875,9892,9930,9942,9958,9976,10025,10042,10078,10099,10099,10140,10194,10250,10291,10327,10374,10374,10411,10436,10474,10545,10632,10686,10788,10834,10834,10950,11278" d="M170.5,325.5C170.5,327.29999 170.5,328.20001 170.5,329.10001C170.5,330 170.595,330.90582 170.49867,331.70001C170.38712,332.61975 169.66377,333.26855 169.51067,334.10001C169.34758,334.98566 168.95682,335.70328 168.62151,336.60001C168.30342,337.45065 168.51874,338.30017 168.5,339.20001C168.48199,340.06454 167.64575,340.54398 167.50133,341.30133C167.33299,342.18411 167.5,343.10001 167.5,344C167.5,344.89999 167.5,345.79999 167.5,346.70001C167.5,347.60001 167.47464,348.5004 167.5,349.29999C167.52859,350.20139 168.1862,350.92236 168.44284,351.79999C168.69597,352.66559 168.25577,353.73215 168.784,354.41599C169.26871,355.04349 169.5,355.79999 169.5,356.70001C169.5,357.60001 169.5,358.5 169.5,359.29999C169.5,360.20001 169.70021,360.90079 170.216,361.58401C170.68054,362.19934 170.5,363.20001 170.5,364.10001C170.5,365 170.5,365.89999 170.5,366.79999C170.5,367.70001 170.5,368.60001 170.5,369.5C170.5,370.29999 170.91269,371.32343 170.44284,372.14282C170.04842,372.83069 169.5,373.5 169.5,374.29999C169.5,375.20001 169.5,376.10001 169.5,377C169.5,377.89999 169.5,378.79999 169.5,379.70001C169.5,380.60001 169.5,381.5 169.5,382.29999C169.5,383.20001 169.5,384.10001 169.5,385C169.5,385.89999 169.5,386.79999 169.5,387.70001C169.5,388.60001 169.5,389.5 169.5,390.29999C169.5,391.20001 169.17189,392.17197 169.52083,392.97916C169.82947,393.69315 170.49774,394.2045 170.5,395.10001C170.50226,396 170.56696,396.84357 171.07466,397.52533C171.55188,398.16614 171.33478,399.1192 171.52083,400C171.69981,400.84738 172.43785,401.59238 172.49867,402.29999C172.57576,403.19672 172.49806,404.1196 172.92534,404.89999C173.37572,405.72256 173.5,406.60001 173.5,407.5C173.5,408.29999 173.5,409.20001 173.5,410.10001C173.5,411 173.5,411.89999 173.5,412.79999C173.5,413.70001 173.5,414.60001 173.5,415.5L173.5,416.29999L173.5,417.20001L173.55716,418.14282" id="svg_2" stroke-width="3" stroke="#000" fill="none"/>
  <path t="13775,13850,13874,13891,13909,13926,13943,13968,13990,14013,14038,14083,14124,14145,14145,14191,14208,14225,14248,14270,14301,14325,14342,14380,14424,14458,14482,14482,14524,14576,14630,14716,14816,14926,14926,14950,15049,15075,15092,15108" d="M173.5,296.5C173.5,298.29999 173.85489,299.29266 173.464,300.064C173.11021,300.76212 172.50067,301.30133 172.5,302.20001C172.49933,303.10001 172.5,304 172.5,304.89999C172.5,305.79999 172.5,306.70001 172.5,307.60001C172.5,308.5 172.5,309.29999 172.5,310.20001C172.5,311.10001 172.5,312 172.5,312.89999C172.5,313.79999 172.35022,314.71259 172.50017,315.59982C172.64417,316.45184 173.47072,316.8559 173.5,317.79999C173.52791,318.69958 173.74213,319.45377 174.14734,320.20001C174.56062,320.96112 174.5,321.89999 174.5,322.79999C174.5,323.70001 174.5,324.60001 174.5,325.5C174.5,326.29999 174.41467,327.21466 173.5,327.5L172.66667,327.66666L172.27867,328.37866L171.55267,328.85266" id="svg_3" stroke-width="3" stroke="#000" fill="none"/>
  <path t="16978,17075,17093,17109,17109,17132,17155,17155,17202,17218,17253,17288,17308,17334,17374,17391,17419,17466,17482,17536,17551,17600,17614,17676,17691,17740,17758,17775,17791,17808,17824,17873,17896,17982,17992,18027,18058,18075,18091,18113,18200,18207,18258,18308,18332,18332,18361,18385,18510,18542,18620,18682,18713,18729,18846,18948,18986,19010,19026,19041,19058,19290" d="M167.5,342.5C168.5,342.5 169.12286,342.07523 169.94284,341.62149C170.5997,341.25803 171.61467,341.5 172.5,341.5C173.3,341.5 174.20053,341.44379 175,341C175.79604,340.55811 176.81686,340.65118 177.44733,340.14734C178.05872,339.65875 178.89796,339.49991 179.5,339C180.11975,338.48541 180.89444,338.06552 181.69867,337.58401C182.44229,337.13879 183.1635,336.69006 183.47917,335.97916C183.86847,335.10248 183.93024,334.33994 184.584,333.784C185.19818,333.26172 185.96591,332.8291 186.47467,332.11066C186.93921,331.45462 187.89796,331.49991 188.5,331C189.11975,330.48541 189.89444,330.06552 190.69867,329.58401C191.44229,329.13879 191.9968,328.82755 192.88933,328.48932C193.62108,328.21204 194.12729,327.50589 194.89999,327.07468C195.7189,326.61768 196.7256,326.7572 197.37866,326.27866C198.08002,325.76474 198.64799,325.1326 199.3,324.784C200.14738,324.33093 200.92636,323.83722 201.7,323.58533C202.55948,323.30548 203.17662,322.93115 203.936,322.53601C204.70311,322.13684 205.79788,322.65933 206.44733,322.14734C207.06195,321.66281 207.90556,321.50891 208.5,321C209.09145,320.49365 209.584,319.784 210.30133,319.50134L211.2,319.5" id="svg_4" stroke-width="3" stroke="#000" fill="none"/>
  <path t="21852,22007,22007,22024,22024,22024,22041,22058,22058,22075,22092,22108,22128,22128,22150,22165,22165,22175,22227,22241,22259,22290,22322,22341,22362,22392,22407,22425,22446,22469,22494,22509,22525,22541,22558,22574,22591,22608,22634,22634,22674,22691,22711,22741,22759,22811,22844,22844,22876,22892,22938,22961,22962,22984,23016,23038,23070,23124,23141,23163,23202,23234,23272,23319,23358,23358,23398,23427,23443,23468,23506,23546,23583,23616,23631,23662,23675,23693,23708,23725,23748,23802,23904,23966,24022" d="M182.5,255.5C183.83333,256.33334 184.55765,256.42551 185.5,256.66666C186.308,256.87341 187.05937,257.24246 187.864,257.89999C188.54105,258.45328 189.05727,259.14584 189.8,259.7955C190.46445,260.37668 191.22946,260.71616 191.66667,261.5C192.03027,262.15189 192.96576,262.69739 193.33333,263.5C193.67348,264.24271 193.83101,264.95148 194.33333,265.66666C194.82179,266.36209 194.98317,267.10718 195.41467,267.78534C195.90782,268.56039 195.25577,269.73215 195.784,270.41599C196.26871,271.04349 196.42696,271.85016 196.92534,272.47467C197.41052,273.08264 197.40453,273.94455 197.784,274.70001C198.21957,275.5672 198.91769,276.05441 199.37849,276.7215C199.88255,277.4512 199.17793,278.63809 199.66667,279.33334C200.16994,280.04926 200.82613,280.53665 201.216,281.29999C201.60056,282.05289 201.66278,282.93805 202.14734,283.55267C202.65935,284.20212 202.83101,284.95148 203.33333,285.66666C203.82179,286.36209 203.47275,287.30042 203.5,288.20001C203.52859,289.14413 204.41626,289.6543 204.5,290.5C204.57883,291.29608 204.5,292.20001 204.5,293.10001C204.5,294 204.49933,294.89999 204.5,295.79999C204.50067,296.69867 205.11021,297.23788 205.464,297.936C205.85489,298.70734 205.5,299.70001 205.5,300.60001C205.5,301.5 205.5,302.29999 205.5,303.20001C205.5,304.10001 205.66278,304.93805 206.14734,305.55267C206.65935,306.20212 206.5,307.20001 206.5,308.10001C206.5,309 206.51067,309.88934 207,310.5C207.48933,311.11066 207.66278,311.93805 208.14734,312.55267C208.65935,313.20212 208.5,314.20001 208.5,315.10001L208.5,316L208.51067,316.88934L209,317.5" id="svg_5" stroke-width="3" stroke="#000" fill="none"/>
  <path t="26119,26242,26266,26274,26291,26307,26328,26374,26413,26413,26436,26443,26468,26507,26538,26561,26574,26591,26608,26624,26647,26669,26669,26708,26725,26741,26741,26764,26789,26810,26842,26842,26858,26903,26924,26941,26958,26974,26974,26991,27014,27029,27041,27059,27075,27091,27109,27176,27208,27256,27294,27294,27318,27325,27348,27363,27375,27418,27433,27449,27481,27524,27544,27544,27565,27582,27598,27621,27643,27657,27673,27699,27709,27740,27758,27774,27792,27808,27840,27840,27858,27875,27894,27932,27956,27974,28023,28066,28078,28111,28124,28152,28175,28191,28223,28243,28268,28268,28292,28308,28325,28341,28362,28377,28391,28415,28424,28463,28523,28541,28557,28575,28612,28625,28752,28946,28961,29078,29092,29124,29430,29452,29468,29508,29545,29686,29709,29740,29740,29796,29818,29850,29882,29920,29943,29943,29973,30022,30041,30067,30110,30125,30125,30171,30224,30248,30248,30286,30318,30357,30410,30434,30450,30490,30507,30528,30574,30630,30659,30716,30737,30758,30800,30864,31416,31556,31573,31592,31608,31624,31624,31641,31658,31675,31675,31696,31696,31696,31711,31727,31774,32016,32025,32048" d="M70.5,309.5C71.7215,310.37851 72.60438,310.41132 73.5,310.5C74.3457,310.58374 74.78236,311.45728 75.7,311.5C76.59902,311.54184 77.5,311.5 78.3,311.5C79.2,311.5 79.96029,311.36414 80.55267,310.85266C81.20868,310.28622 82.03775,309.75531 82.9,309.53601C83.76876,309.31506 84.37463,308.95932 85.02084,308.5C85.71794,308.00452 86.65054,307.74731 87.5,307.33334C88.15226,307.01547 88.9432,306.61505 89.8,306.14734C90.54533,305.74048 91.27953,305.38092 92.1,304.92532C92.88195,304.49112 93.6118,304.05768 94.5,303.66666C95.15763,303.37714 95.88714,303.18549 96.66666,302.66666C97.37412,302.19577 98.11227,302.14328 98.78533,301.58401C99.45448,301.02798 100.15409,300.69016 101.1,300.51068C101.98429,300.3429 102.88934,300.48932 103.5,300C104.11066,299.51068 104.93806,299.33719 105.55267,298.85266C106.20211,298.34067 107.20095,298.44455 108,298C108.80096,297.55438 109.53665,297.17386 110.3,296.784C111.05289,296.39948 111.93806,296.33719 112.55267,295.85266C113.20211,295.34067 113.95148,295.16898 114.66666,294.66666C115.3621,294.17819 116.1075,294.01733 116.78533,293.58533C117.56012,293.09155 118.55083,293.19913 119.2,292.85266C120.04937,292.39932 120.91737,292.41052 121.52533,291.92532C122.14983,291.42694 123.17857,291.84305 123.97916,291.47916C124.75239,291.12769 125.41217,290.86435 126.14283,290.44284C126.95394,289.97491 127.63789,289.82178 128.33333,289.33334C129.04852,288.83102 129.74846,288.65353 130.5,288.33334C131.2812,288.00052 131.95613,287.37213 132.55267,286.85266C133.20628,286.28348 134.05753,286.09482 134.88933,285.52533C135.55402,285.07025 136.23093,284.64835 136.88933,284.064C137.58253,283.44876 137.83681,282.64877 138.47467,282.07468C139.05339,281.5538 139.65889,280.98196 140.216,280.41599C140.87662,279.74487 141.31392,279.07611 141.78534,278.29999C142.19615,277.62363 142.88763,277.09143 143.69867,276.58401C144.43208,276.12515 144.35123,275.2103 144.85266,274.55267C145.36876,273.87582 146.25163,273.55637 146.4955,272.7955C146.78252,271.90002 147.06186,271.29358 147.72133,270.62134C148.32762,270.0033 148.33447,269.19717 148.85266,268.55267C149.34419,267.94131 149.94936,267.36163 150.584,266.784C151.23065,266.19543 151.85193,265.67288 152.44733,265.14734C153.08546,264.58408 153.4366,263.72519 154.2045,263.50449C155.06517,263.25711 156,263.5 156.89999,263.5C157.8,263.5 158.70377,263.41788 159.60001,263.50015C160.51144,263.58383 161.1526,264.30017 162,264.47916C162.8808,264.66519 163.8,264.5 164.7,264.5C165.60001,264.5 166.5,264.5 167.3,264.5C168.2,264.5 169.10002,264.50534 170,264.5C170.90004,264.49466 171.60719,264.04703 172.5,263.66666C173.25154,263.34647 174.25566,263.53128 174.89999,263.064C175.68094,262.49762 176.32404,262.06226 177.064,261.47467C177.74104,260.93704 178.45442,260.58752 179.064,259.88934C179.646,259.22275 179.42914,258.15155 179.92534,257.52533C180.4523,256.86026 181.23093,256.64835 181.88933,256.064C182.58253,255.44876 182.86212,254.56357 183.5,254C184.08348,253.48448 184.6051,252.82253 185.30133,252.416C186.1275,251.93361 187.49741,251.28864 187.08566,250.55716C186.65031,249.78377 185.3,250.5 184.39999,250.5C183.5,250.5 182.7056,250.59494 182,251C181.20169,251.45828 180.34045,251.68552 179.47917,252C178.50757,252.35477 177.71103,252.47281 176.98534,252.49867C176.04201,252.53229 175.44733,253.14734 174.69867,253.49867L173.8,253.5L172.89999,253.536L172.10001,253.92534" id="svg_6" stroke-width="3" stroke="#000" fill="none"/>
  <path t="34144,34354,34407,34431,34431,34486,34493,34542,34579,34596,34627,34674,34674,34728,34776,35088,35107,35124,35141,35250,35250,35265,35306,35376,35414,35492,35515,35594,35615,35624,35648,35663,35686,35694,35718,35757,35780,35780,35791,35808,35857,35890,35907,35907,35957,35974,35990,36008,36054,36074,36091,36108,36157,36178,36178,36224,36264,36293,36308,36350,36387,36408,36435,36474,36503,36525,36551,36581,36630,36654,36675,36723,36778,36801,36886,37128" d="M70.5,307.5C68.66666,307.33334 68.21606,306.7511 67.4,306.2785C66.73346,305.89249 66.03995,305.14447 65.62133,304.40018C65.20421,303.65854 64.5286,303.14429 64.5,302.29999C64.46953,301.40051 64.52537,300.4996 64.5,299.70001C64.47141,298.79861 63.8145,298.07742 63.55717,297.20001C63.30371,296.33582 63.1348,295.62869 62.3,295.49866C61.38454,295.35605 60.53502,295.05084 59.85717,294.44733C59.30365,293.95453 59.5,292.89999 59.5,292C59.5,291.10001 59.5,290.20001 59.5,289.29999C59.5,288.39999 59.17681,287.34558 59.72133,286.62134C60.20466,285.97849 60.91651,285.5155 61.5,285C62.13787,284.43643 62.7076,283.75482 63.5,283.33334C64.1406,282.99261 64.93615,282.45581 65.52533,281.92532C66.1083,281.40042 66.7076,280.75482 67.5,280.33334C68.1406,279.99261 69.05508,279.79904 69.88934,279.48932C70.62293,279.21698 71.11073,278.5148 72,278.5C72.97925,278.4837 73.61188,278.0206 74.14733,277.44733C74.78735,276.76208 75.53825,276.67355 76.3,276.41467C77.18792,276.11292 77.93911,275.76038 78.7955,275.49551C79.55881,275.25943 80.10249,274.86847 80.97916,274.47916C81.69006,274.16345 82.20458,273.51285 83.1,273.5C83.97932,273.48737 84.49858,272.70013 85.30133,272.50134C86.07743,272.30917 86.89444,272.06552 87.69867,271.58401C88.44229,271.13879 88.936,270.52533 89.8,270.14734L90.5,269.66666L91.33334,269.33334L91.78533,268.58533" id="svg_7" stroke-width="3" stroke="#000" fill="none"/>
  <path t="37726,37830,37830,37841,37857,37874,37890,37890,37890,37907,37907,37923,37940,37958,37978,37978,38001,38009,38025,38048,38079,38090,38107,38157,38173,38191,38208,38224,38241,38257,38274,38297,38307,38344,38376,38376,38406,38429,38473,38490,38490,38523,38540,38556,38574,38591,38609,38632,38664,38688,38688,38718,38734,38757,38773,38790,38812,38824,38842,38858,38874,38890,38907,38924,38941,38959,38984,39000,39046,39089,39115,39157,39173,39190,39210,39288,39340,39340,39358,39450,39490,39490,39507,39527,39551,39645,39794,39918" d="M91.5,268.5C92.5,267.5 93.41727,267.87079 94.21467,267.41467C94.88953,267.02863 95.54159,266.51682 96.5,266.5C97.29995,266.48596 98.11672,266.47058 99.0955,266.14734C99.85831,265.89542 100.74156,265.52869 101.7,265.5C102.59959,265.47308 103.47215,265.28903 104.1,264.92532C104.86986,264.47934 105.88934,264.48932 106.5,264C107.11066,263.51068 108.05197,263.78909 108.88934,263.48932C109.62608,263.22559 110.11073,262.5148 111,262.5C111.97925,262.4837 112.44364,261.74835 113.2045,261.50449C114.09998,261.21747 114.54397,260.64575 115.30133,260.50134C116.18409,260.33301 116.88714,260.18549 117.66666,259.66666C118.37412,259.19577 119.27986,259.3801 120.1,258.92532C120.88221,258.49158 121.63457,258.10577 122.5,257.66666C123.17539,257.32397 123.81298,256.7482 124.416,256.216C125.05784,255.64957 125.8548,255.57878 126.47467,255.07466C127.08974,254.57445 127.84625,253.97823 128.60001,253.62134C129.45407,253.21696 130.2,252.85266 131,252.5C131.8,252.14734 132.60429,251.64989 133.5,251.5C134.33818,251.35974 134.73772,250.70731 135.59984,250.49983C136.43996,250.29765 136.90001,249.78252 137.7955,249.4955C138.55635,249.25163 139.08253,248.81238 139.88933,248.48933C140.67847,248.17336 141.30179,247.86327 142.064,247.464C142.82231,247.06679 143.33583,246.69627 144.2,246.44284C145.07744,246.18552 145.82652,245.72311 146.69867,245.49867C147.49957,245.29256 147.94812,244.64522 148.8,244.4955C149.72816,244.33237 150.46394,244.0551 151.21466,243.416C151.881,242.84872 152.46031,242.26968 153.2,241.85266C153.94502,241.43262 154.55267,240.85266 155.216,240.416L155.7215,239.62151L156.59984,239.49983L157.416,239.216" id="svg_8" stroke-width="3" stroke="#000" fill="none"/>
  <path t="42644,42802,42823,42840,42857,42874,42874,42891,42907,42925,42925,42957,42974,42995,43020,43043,43074,43152,43152,43191,43229,43261,43308,43348,43389,43456,43479,43518,43574,43604,43658,43658,43706,43743,43870,43891,43891,43939,44203,44227,44256,44273,44290,44306,44324,44346,44384,44423,44423,44440,44457,44474,44490,44507,44524,44548,44562,44593,44617,44625,44641,44664,44695,44717,44725,44742,44765,44782,44790,44812,45094,45115,45131,45172" d="M154.5,237.5C156.3,237.5 156.97771,237.26662 157.66933,236.784C158.40543,236.27032 159.46364,236.25163 160.08934,235.92534C160.98053,235.4606 161.80374,235.1469 162.5,234.5C163.10327,233.9395 163.88026,233.5146 164.5,233C165.10205,232.50009 166.013,232.64209 166.89999,232.48933C167.73314,232.34586 168.4874,231.58504 169.3,231.50133C170.19527,231.40912 170.90079,231.29979 171.584,230.784C172.19934,230.31944 173.2,230.5 174.10001,230.5C175,230.5 175.89999,230.5 176.8,230.5C177.7,230.5 178.60001,230.5 179.5,230.5C180.3,230.5 181.32257,230.08878 182.14284,230.55716C182.95601,231.02148 183.5,231.5 184.3,231.5C185.2,231.5 186.61293,231.47803 186.41333,232.216C186.16805,233.12289 185.17395,233.36342 184.52533,233.92534C183.93744,234.43465 183.10001,234.49933 182.2,234.5C181.3,234.50067 180.44917,234.80084 179.8,235.14734C178.95062,235.60069 178.1008,235.60477 177.44733,236.14734C176.85678,236.63766 176.07744,237.18552 175.2,237.44284C174.33583,237.69627 173.76083,238.10768 173.064,238.464C172.21419,238.89854 171.62294,239.217 170.88933,239.48933C170.05507,239.79904 169.29669,240.04318 168.39999,240.37849C167.54936,240.69658 166.95238,240.94608 166.21466,241.41467C165.52336,241.85379 164.82338,242.06886 164.064,242.464C163.29689,242.86317 162.30133,242.50133 161.55267,242.85266L161.064,243.47467" id="svg_9" stroke-width="3" stroke="#000" fill="none"/>
  <path t="50065,50272,50292,50314,50314,50324,50357,50373,50373,50390,50424,50445,50462,50485,50501,50509,50509,50523,50540,50540,50556,50556,50556,50642,50680,50704,50782,50823,50823" d="M163.5,243.5C164.37866,242.27867 164.9044,241.65274 165.7,241.216C166.34811,240.86023 166.88475,240.18861 167.66667,239.66667C168.37349,239.19485 169.43036,239.89294 170.21466,239.41467C171.0183,238.92461 171.72491,238.75627 172.37866,238.27867C173.07774,237.76796 173.7693,237.68889 174.60001,237.2785C175.29057,236.93735 175.84669,235.97707 176.66667,235.66667C177.48058,235.35858 178.50874,235.35863 179.28934,235.07466C180.02365,234.80753 180.86348,234.51801 181.8,234.5C182.69983,234.48271 183.60001,234.5 184.5,234.5L185.3,234.5" id="svg_10" stroke-width="3" stroke="#000" fill="none"/>
  <path t="57288,57438,57456,57456,57473,57473,57490,57490,57506,57529,57529,57554,57577,57600,57624,57640,57656,57656,57678,57701,57717,57756,57818,57842,58076,58154,58208,58224,58240,58263,58273,58289,58310,58355,58372,58389,58406,58474,58474,58511,58536,58572,58598,58639,58657,58738,58777,58910,58940,58940,58963,58979,58989,59009,59034,59041,59056,59073,59096,59119,59143,59166,59205,59223,59223,59239,59267,59291,59315,59353,59373,59389,59407,59464,59489,59510,59533,59571,59604,59640,59657,59720,59744" d="M185.5,233.5C185.78534,232.58533 186.60019,232.50441 187.38533,232.5C188.33604,232.49466 189.118,232.47034 190.0955,232.14734C190.85828,231.89529 191.80054,231.68556 192.7,231.216C193.35541,230.87386 194.22687,230.68597 195.10001,230.464C195.96228,230.2448 196.69698,229.54271 197.60001,229.5C198.49899,229.45747 199.3,229.5 200.2,229.5C201.10001,229.5 202,229.5 202.89999,229.5C203.8,229.5 204.70862,229.37589 205.59984,229.50017C206.40158,229.61197 206.75862,230.72664 206.27867,231.37866C205.76469,232.07692 205.0032,232.17245 204.11067,232.51067C203.37891,232.78796 202.88937,233.49466 202,233.5C201.10002,233.5054 200.19347,233.39304 199.3,233.50133C198.38022,233.61281 197.8437,234.29855 196.89999,234.48933C196.0377,234.66365 195.55635,235.25163 194.7955,235.4955C193.90001,235.78252 193.42943,236.26364 192.5,236.5C191.67638,236.70944 191.16844,237.31342 190.39999,237.72133C189.75005,238.06635 188.81949,238.15196 188.02083,238.52083C187.24974,238.87697 186.79532,239.48103 185.89999,239.5C184.93555,239.52043 184.50571,240.3181 183.69867,240.49867C182.82169,240.6949 181.8808,240.33478 181,240.52083C180.1526,240.69981 179.4016,241.39108 178.5,241.5C177.70126,241.5965 177.07744,242.18552 176.2,242.44284C175.33583,242.69627 174.75018,243.12286 173.97917,243.47917C173.19026,243.84375 172.41592,243.91452 171.85266,244.55267C171.32713,245.14807 170.73642,245.81114 170.14734,246.44733C169.61435,247.02292 169.02061,247.61188 168.44733,248.14734C167.76212,248.78734 167.21466,249.41467 166.40016,249.50017L165.584,249.784" id="svg_12" stroke-width="3" stroke="#000" fill="none"/>
  <path t="62350,62407,62432,62432,62456,62485,62509,62541,62556,62580,62596,62619,62641,62665,62689,62706,62706,62728,62814,62846,63257,63273,63290,63307,63338,63356,63372,63389,63406,63422,63439,63439,63456,63456,63475,63500,63523,63540,63556,63573,63594,63606,63655,63673,63788" d="M172.5,244.5C172.78534,243.584 173.53667,243.17387 174.3,242.784C175.05289,242.39946 176,242.50226 176.89999,242.5C177.79552,242.49774 178.31775,241.81705 179.11067,241.51067C179.94028,241.19011 180.89999,241.5 181.8,241.5C182.7,241.5 183.60001,241.5 184.5,241.5C185.3,241.5 186.2,241.5 187.10001,241.5C188,241.5 189.4473,241.2496 189.45833,242C189.47038,242.81984 188.29123,243.05943 187.62134,243.72133C187.00458,244.33072 186.69125,245.1662 185.97917,245.47917C185.1738,245.83315 184.10272,245.78421 183.66667,246.5C183.21524,247.24101 182.66418,247.94687 181.98267,248.21466C181.04889,248.58156 180.29669,249.04318 179.39999,249.37849C178.54936,249.69658 177.95238,249.94608 177.21466,250.41467C176.52336,250.85379 175.584,250.784 175.14284,251.44284L174.2,251.5L173.30133,251.50133" id="svg_13" stroke-width="3" stroke="#000" fill="none"/>
  <path t="65784,65977,65989,66006,66024,66047,66047,66088,66107,66123,66139,66155,66155,66174,66189,66227,66239,66257,66274,66297,66306,66323,66340,66356,66373,66389,66406,66423,66445,66469,66469,66492,66539,66561,66561,66585,66606,66639,66688,66710,66749,66749,66787,66836,66898,66938,68138,68230,68230" d="M203.5,225.5C205.10001,224.92534 205.89948,224.51866 206.8,224.5C207.6998,224.48135 208.53667,224.17387 209.3,223.784C210.05289,223.39946 211.013,223.64209 211.89999,223.48933C212.73314,223.34586 213.4874,222.58504 214.3,222.50133C215.19527,222.40912 216.12003,222.5027 216.89999,222.07466C217.72174,221.62369 218.17662,220.93114 218.936,220.536C219.70311,220.13683 220.79788,220.65935 221.44733,220.14734C222.06195,219.66278 222.82811,219.72168 223.69867,219.49867C224.5553,219.27924 225.03488,218.64902 225.89999,218.48933C226.73135,218.33589 227.49069,217.61253 228.3,217.50133C229.13699,217.38632 229.6543,216.58374 230.5,216.5C231.29611,216.42117 232.2,216.44284 233,216C233.8,215.55716 234.7,215.5 235.60001,215.5C236.5,215.5 237.3,215.5 238.2,215.5C239.10001,215.5 239.97917,215.47917 240.55267,214.85266L241.33333,214.66667L241.5,215.5L241.5,216.3" id="svg_14" stroke-width="3" stroke="#000" fill="none"/>
  <path t="69738,69904,69922,69939,69962,69962,69975,69989,70005,70023,70023,70039,70056,70056,70094,70106,70122,70140,70250,70263,70289,70306,70323,70339,70357,70389,70405,70423,70439,70456,70483,70506,70538,70570,70570,70632,70669,70709,70802,70958,70982,71005,71232" d="M207.5,229.5C209.33333,229.33333 209.71523,228.5609 210.60001,228.5C211.49788,228.4382 212.27986,228.38013 213.10001,227.92534C213.88222,227.49159 214.6118,227.05766 215.5,226.66667C216.15764,226.37717 217.13646,226.52672 217.98399,226.49867C218.84866,226.47006 219.70908,226.08789 220.59984,225.62134C221.35358,225.22655 221.81367,224.74045 222.69867,224.49867C223.49643,224.28073 223.98149,223.77434 224.7955,223.4955C225.61032,223.21638 226.11063,222.50534 227,222.5C227.89998,222.4946 228.85017,222.57304 229.47467,222.07466C230.08263,221.58948 230.89999,221.5 231.8,221.5C232.7,221.5 233.60001,221.5 234.5,221.5C235.3,221.5 236.2,221.44284 237,221C237.8,220.55716 238.7,220.5 239.60001,220.5L240.5,220.5L241.33333,220.33333L241.78534,219.58533" id="svg_15" stroke-width="3" stroke="#000" fill="none"/>
  <path t="72079,72292,72354,72383,72391,72462,72477,72532,72547,72633,72649,72674,72703,72736,72756,72814,72900,72900,72954,72972,72991,73016,73047,73077,73101,73125,73125,73147,73188,73205,73225,73241,73255,73274,73289" d="M241.5,214.5C241.5,216.3 241.1451,217.29263 241.536,218.064C241.88979,218.76212 242.03459,219.48093 242.58533,220.21466C243.04773,220.8307 243.83641,221.05821 244.72133,221.37833C245.43774,221.6375 246.18295,220.68225 246.48933,219.88933C246.80989,219.05972 246.38351,218.09184 246.5045,217.2C246.61592,216.37865 247.36176,215.73572 247.48933,214.89999C247.63486,213.94672 246.79552,213.50226 245.89999,213.5C245,213.49774 244.05547,213.59546 243.3,213.216C242.4328,212.78043 241.80002,212.50226 240.89999,212.5C240,212.49776 239.10001,212.49933 238.2,212.5C237.30133,212.50067 236.55267,212.85266 235.97917,213.47917L235.08934,213.51067" id="svg_16" stroke-width="3" stroke="#000" fill="none"/>
  <path t="74470,74675,74700,74738,74738,74755" d="M199.5,226.5C201.33333,226.33333 201.7215,225.62134 202.60001,225.27867L203.2,224.85266L204.10001,224.47467" id="svg_17" stroke-width="3" stroke="#000" fill="none"/>
  <path t="78833,78985,78986,79005,79023,79056,79087,79087,79117,79141,79166,79228,79266,79304,79323,79352,79352,79383,79414,79454,79483,79507,79556,79602,79622,79639,79688,79705,79725,79749,79766,79772,79796,79819,79890,79944,79944,79983,80014,80054,80071,80115,80146,80178,80201,80201,80232,80264,80325,80396,80436,80455,80506,80551,80575,80638,80655,80675,80689,80707,80739,80769,80769,80793,80805,80805,80838,80855,80872,80896,80918,80942,80958,80972,80995,81020,81043,81066,81066,81104,81122,81168,81199,81206,81222,81238,81262,81272,81292,81362,81418,81418,81439,81471,81542,81542,81566,81596,81620,81654,81682,81730,81752,81775" d="M57.5,285.5C57.5,284.5 57.61988,283.72015 58.07467,282.89999C58.50841,282.1178 58.95296,281.39279 59.33333,280.5C59.65352,279.74847 59.5,278.79999 59.5,277.89999C59.5,277 59.5,276.10001 59.5,275.20001C59.5,274.29999 59.5,273.39999 59.5,272.5C59.5,271.70001 59.5,270.79999 59.5,269.89999C59.5,269 59.48933,268.11066 59,267.5C58.51067,266.88934 58.80991,265.94028 58.48933,265.11066C58.18295,264.31775 57.68497,263.76877 57.464,262.89999C57.24469,262.03775 56.67194,261.39172 56.5,260.5C56.32845,259.61029 55.54271,259.21765 55.5,258.29999C55.45815,257.40097 55.5,256.5 55.5,255.7C55.5,254.8 55.5,253.89999 55.5,253C55.5,252.10001 55.5,251.2 55.5,250.3C55.5,249.39999 55.5,248.5 55.5,247.7C55.5,246.8 55.5,245.89999 55.5,245C55.5,244.10001 55.42696,243.14983 55.92533,242.52533C56.41052,241.91737 56.49933,241.10001 56.5,240.2C56.50067,239.30133 57.12286,238.75018 57.47917,237.97917C57.84374,237.19026 58.08603,236.6171 58.8,236.14284C59.59165,235.61697 60.06697,234.86496 60.7,234.30133C61.46267,233.62227 61.9282,233.1302 62.7215,232.62151C63.46806,232.14278 64.6379,232.82179 65.33334,232.33333C66.04851,231.83101 66.60684,231.61076 67.5,231.5C68.39923,231.38849 68.78236,230.54271 69.7,230.5C70.59902,230.45816 71.5004,230.52536 72.3,230.5C73.20135,230.47141 73.92339,229.81728 74.8,229.55716C75.5689,229.32901 76.6538,229.82237 77.37867,229.27867C78.02169,228.79636 78.71258,228.6498 79.59983,228.49983C80.45186,228.35583 80.9044,227.65274 81.7,227.216C82.34811,226.86023 82.98784,226.21304 83.7215,225.62134C84.36761,225.10023 85.29082,225.00761 85.97916,224.5C86.67521,223.98671 86.92911,223.13029 87.7215,222.62151C88.46777,222.14233 89.5,222.5 90.33334,222.33333L90.78533,221.58533" id="svg_18" stroke-width="3" stroke="#000" fill="none"/>
  <path t="83254,83454,83471,83489,83489,83505,83522,83538,83559,83572,83592,83624,83639,83670,83732,83748,83788,83838,83871,83928,83939,83966,83981,84028,84082,84130,84138,84168,84188,84229,84254,84340,84402,84421,84480,84574,84636,84636,84654,84730,84792,84846,84846,84870,84901,84923,85010,85064,85104,85122,85141,85141,85165,85189,85228,85267,85305,85355,85372,85399,85399,85486,85516,85594,85656,85672,85741,85812,85944,85944,85983,85991,86062,86172,86264,86350,86412,86546,86678,86688,86772,86817,87052,87302,87302" d="M92.5,222.5C94.33334,222.66667 94.79579,223.22902 95.59983,223.7215C96.21955,224.10107 96.65923,224.92261 97.216,225.584C97.73521,226.20078 98.16171,226.97914 98.88934,227.47467C99.55514,227.9281 99.9929,228.68564 100.584,229.216C101.18407,229.75443 102.16537,229.96581 102.88934,230.47467C103.60465,230.97746 103.97512,231.70016 104.66666,232.33333C105.26472,232.88089 105.86213,233.43643 106.5,234C107.08349,234.51552 107.71503,235.04837 108.33334,235.66667C108.95164,236.28497 109.43644,236.86212 110,237.5C110.51551,238.08348 111.32741,238.08881 112.14283,238.55716C112.95482,239.02354 113.6379,239.17821 114.33334,239.66667C115.04851,240.16899 115.6,240.5 116.5,240.5C117.3,240.5 117.92895,240.8707 118.7215,241.37849C119.46824,241.85693 120.5,241.5 121.3,241.5C122.2,241.5 123.1,241.5 124,241.5C124.9,241.5 125.8,241.5 126.7,241.5C127.6,241.5 128.5,241.5 129.3,241.5C130.2,241.5 131.10001,241.5 132,241.5C132.89999,241.5 133.8,241.5 134.7,241.5C135.60001,241.5 136.5,241.5 137.3,241.5C138.2,241.5 139.17857,241.84306 139.97917,241.47917C140.75241,241.12772 141.0433,240.27489 141.72133,239.62134C142.30089,239.06271 142.8369,238.46875 143.216,237.7C143.63281,236.8548 143.70021,236.09921 144.216,235.416C144.68056,234.80066 144.31624,233.7735 144.536,232.89999C144.75305,232.03717 145.45729,231.30302 145.5,230.39999C145.54253,229.50101 145.66667,228.66667 146.41467,228.21466L146.5,227.39999L146.5,226.5L146.5,225.7" id="svg_19" stroke-width="3" stroke="#000" fill="none"/>
  <path t="89164,89382,89420,89438,89460,89491,89514,89522,89538,89561,89584,89607,89639,89678,89678,89718,89739,89764,89772,89809,89854,89871,89920,89938,89965,89998,90035,90059,90059,90099,90138,90184,90232,90302,90339,90356,90379,90426,90488,90505,90536,90630,90652,90778,90934,90963,91002" d="M143.5,186.5C143.5,188.3 143.5,189.2 143.5,190.10001C143.5,190.89999 143.5006,191.8 143.5,192.7C143.49933,193.69867 142.93114,194.17662 142.536,194.936C142.13683,195.70311 142.5,196.7 142.5,197.60001C142.5,198.5 142.5,199.3 142.5,200.2C142.5,201.10001 142.35591,201.86845 141.85266,202.55267C141.36267,203.21887 141.5,204.2 141.5,205.10001C141.5,206 141.5,206.89999 141.5,207.8C141.5,208.7 141.5,209.60001 141.5,210.5C141.5,211.3 141.5,212.2 141.5,213.10001C141.5,214 141.5,214.89999 141.5,215.8C141.5,216.7 141.24373,217.72491 141.72133,218.37866C142.23204,219.07774 142.3502,219.71259 142.50017,220.59984C142.64417,221.45186 143.44612,221.8537 144,222.5C144.52419,223.11165 144.936,223.88933 145.69867,224.416L146.41467,224.78534" id="svg_20" stroke-width="3" stroke="#000" fill="none"/>
  <path t="92868,93370,93420,93420,93437,93560,93575,93589,93614,93655,93671,93730,93886,93886,93942,93970,93987,94004,94021,94050,94073,94120,94144,94175,94175,94197,94221,94260,94291,94315,94330,94362,94371,94393,94432,94455,94479,94526,94538,94587,94628,94671,94704,94752,94805,94838,94892,94923,95048,95087,95150,95212,95234,95314,95337,95354,95371,95389" d="M142.5,168.5C143.7215,167.62134 144.5569,167.2103 145.2,166.85266C146.05312,166.37823 146.87534,166.03412 147.59984,165.62134C148.39162,165.17023 148.85587,164.52859 149.8,164.5C150.69958,164.47276 151.60001,164.5 152.5,164.5C153.3,164.5 153.98816,164.68799 154.66667,165.33333C155.29994,165.93564 155.2775,166.71591 155.784,167.416C156.28578,168.10956 156.5,168.8 156.5,169.7C156.5,170.60001 156.5,171.5 156.5,172.3C156.5,173.2 156.5,174.10001 156.5,175C156.5,175.89999 156.57304,176.85017 156.07466,177.47467C155.58948,178.08263 155.41052,178.91737 154.92534,179.52533C154.42696,180.14983 154.29979,180.90079 153.784,181.584C153.31944,182.19934 153.29028,183.05907 152.62134,183.72133C152.00517,184.33133 151.61945,185.03247 150.97917,185.5C150.19043,186.07596 149.26622,186.17984 148.584,186.784C147.98946,187.3105 147.4462,187.94661 146.92534,188.52533C146.35126,189.16321 145.8046,189.76935 145.216,190.416C144.63835,191.05064 144,191.5 143.44733,192.14734L142.784,192.584L142.416,193.30133L141.88933,194.10001" id="svg_21" stroke-width="3" stroke="#000" fill="none"/>
  <path t="97604,98088,98104,98104,98121,98121,98137,98274,98298,98305,98359,98414,98454,98471,98532,98578,98588,98609,98633,98670,98718,98765,98774,98844,98866,98922,98968,98987,99046,99115,99170,99387,99444,99918,99949" d="M76.5,185.5C76.33334,183.66667 75.5,183.5 74.74284,183.5C73.84734,183.5 72.98399,183.49435 72.02084,183.5C71.11062,183.50534 70.36876,183.87582 69.85267,184.55267C69.35123,185.21031 69.5,186.2 69.5,187.10001C69.5,188 69.25713,188.93483 69.5045,189.7955C69.7252,190.56339 70.58407,190.91454 71.14733,191.55267C71.67287,192.14807 72.28192,192.6171 73.1,193.07466C73.87231,193.50664 74.13152,194.10248 74.52084,194.97917C74.83652,195.69006 75.13674,196.30179 75.536,197.064C75.93321,197.8223 76.81298,198.25182 77.416,198.784C78.05784,199.35043 78.8,199.5 79.7,199.5L80.6,199.5" id="svg_22" stroke-width="3" stroke="#000" fill="none"/>
  <path t="101292,101553,101572,101588,101605,101621,101621,101638,101654,101672,101688,101704,101721,101738,101836,101836,101860,101875,101914,101967,101999,101999,102007,102031,102054,102110,102172,102193,102204,102249,102277,102398,102443,102538,102538" d="M79.5,200.5C79.50134,200.69867 80.10841,201.23882 80.464,201.936C80.85699,202.70651 80.69288,203.81181 81.30133,204.21466C82.12279,204.75854 82.61709,205.28192 83.07467,206.10001C83.50663,206.8723 83.91453,207.58408 84.55267,208.14734C85.14806,208.67287 85.71169,209.47174 86.07467,210.10001C86.56323,210.94566 86.97938,211.61188 87.55267,212.14734C88.23789,212.78735 88.71169,213.47174 89.07467,214.10001C89.56323,214.94566 90.25941,215.44119 90.4955,216.2045C90.76038,217.0609 90.9345,217.89444 91.416,218.69867C91.86121,219.44228 92.22565,219.98149 92.5045,220.7955C92.78362,221.61032 93.52533,222.07466 93.844,222.5L93.0865,222.5" id="svg_23" stroke-width="3" stroke="#000" fill="none"/>
  <path t="103613,103803,103803,103840,103918,103988,104018,104050,104088,104137,104158,104158,104214,104260,104303,104329,104370,104400,104448,104510,104510,104556,104604,104621,104649,104688,104705,104749,104773,104822,104870,104887,104904,104954,105016,105062,105101,105131,105172,105187,105217,105296,105336,105381,105389,105405,105422,105438,105475,105522,105538,105686,105710,105763,105795,105817,105850,105871,105887,106122,106208,106232,106239,106256,106271,106288,106318,106339,106339,106369,106528,106528,106560,106581,106605,106629,106670,106688,106688,106704,106737,106754,106799,106856,106872,106894,106909,106921,106939,106955,106971,107066,107089,107105,107121,107138,107154,107181,107308,107330,107370,107415,107423,107455,107572,107626,107712,107736,107814,107946,107946,107977,107987,108007,108039,108064,108064,108071,108102,108121,108180,108351,108351,108468,108499,108520,108538,108554,108577,108594,108594,108616,108664,108734,108734,108754,108803,108820,108865,108882,108904,108943,108959,108990,109108,109130,109216,109286,109334,109371,109388,109412,109442,109442,109466,109497,109527,109570,109605,109637,109637,109661,109700,109754,109754,109786,109818,109840,109855,109877,109902,109941,109980,109980,109987,110086,110138,110154,110154,110222" d="M77.5,198.5C77.5,197.5 77.5,196.7 77.5,195.8C77.5,194.89999 77.5,194 77.5,193.10001C77.5,192.2 77.5,191.3 77.5,190.39999C77.5,189.5 77.5,188.7 77.5,187.8C77.5,186.89999 77.5,186 77.5,185.10001C77.5,184.2 77.5,183.3 77.5,182.39999C77.5,181.5 77.3757,180.72256 76.92533,179.89999C76.49805,179.11961 76.57304,178.14983 76.07467,177.52533C75.58949,176.91737 75.41051,176.08263 74.92533,175.47467C74.42696,174.85017 74.50539,173.89998 74.5,173C74.49467,172.11063 73.77441,171.62608 73.51067,170.88933C73.21091,170.05197 73.5,169.10001 73.5,168.2C73.5,167.3 73.61076,166.39316 73.5,165.5C73.38848,164.60078 72.54272,164.21764 72.5,163.3C72.45815,162.40097 72.17748,161.36159 72.66666,160.66667C73.17,159.95164 73.86213,159.56357 74.5,159C75.08349,158.48448 75.55151,157.68085 76.30133,157.50133C77.19356,157.28772 77.73207,156.68222 78.59983,156.49983C79.39215,156.3333 79.88223,155.71069 80.69867,155.49867C81.49912,155.2908 82.02068,154.51262 82.9,154.5C83.79542,154.48714 84.51497,154.11241 85.07467,153.47467C85.59211,152.88507 86.35135,152.48732 87,151.97917C87.76778,151.3777 88.29997,150.69997 88.9,150.10001C89.59996,149.40013 90.15134,148.70221 91,148.52083C91.88036,148.33267 92.8,148.5 93.7,148.5C94.6,148.5 95.5,148.5 96.3,148.5C97.2,148.5 98.20213,148.89732 99.064,148.464C99.72241,148.13298 99.93165,147.10385 100.416,146.30133C100.86302,145.56067 101.85017,145.57304 102.47467,145.07466C103.08263,144.58948 103.88934,144.48933 104.5,144C105.11066,143.51067 106.17754,143.15923 106.97916,143.52083C107.71194,143.85136 107.9564,144.88171 108.416,145.69867C108.8113,146.40132 109.30685,147.17053 110.02084,147.47917C110.82806,147.82813 111.82169,147.6949 112.69867,147.49867C113.50571,147.3181 113.93549,146.51801 114.9,146.5C115.79984,146.4832 116.7,146.5 117.6,146.5C118.5,146.5 119.3002,146.48126 120.2,146.5C121.06457,146.51801 121.4624,147.26505 122.02084,148C122.52528,148.66391 122.90886,149.34792 123.52533,150.064C124.05031,150.6738 124.94834,150.74203 125.584,151.216C126.35282,151.78926 127.33405,151.30536 128.2,151.55716C128.95529,151.77678 129.28349,152.79372 129.85266,153.44733C130.37213,154.04387 131.02718,154.70946 131.37849,155.60001C131.63913,156.2607 131.46252,157.26292 132.02083,158C132.60916,158.77672 133.43707,158.98125 134.14284,159.55267C134.87349,160.14426 135.26358,160.81114 135.85266,161.44733C136.38565,162.02292 137.14632,162.30965 137.88933,162.936C138.51987,163.46756 138.85193,164.32713 139.44733,164.85266C140.08548,165.41592 140.49466,166.11063 140.5,167C140.5054,167.89998 140.49992,168.8 140.5,169.7C140.50009,170.60001 140.7206,171.46669 141.07466,172.10001C141.55617,172.96127 141.5,173.89999 141.5,174.8C141.5,175.7 141.5,176.60001 141.5,177.5C141.5,178.3 141.83101,178.95149 142.33333,179.66667C142.82178,180.36211 142.5,181.3 142.5,182.2C142.5,183.10001 142.5,184 142.5,184.89999C142.5,185.8 142.5,186.7 142.5,187.60001C142.5,188.5 142.10706,189.43036 142.58533,190.21466C143.07539,191.0183 143.5,191.60001 143.5,192.5L143.5,193.3L143.5,194.2" id="svg_24" stroke-width="3" stroke="#000" fill="none"/>
  <path t="115935,116769,116799,117128,117189,117276,117287" d="M104.5,193.5C105.33334,193.33333 105.784,192.584 106.464,192.08533L106.27866,192.37866L105.584,192.784L105.07467,193.47467" id="svg_25" stroke-width="3" stroke="#000" fill="none"/>
  <polyline timestamps="118354,118974,118989" startTime="1503443342115" id="svg_26" points="110.5,190.5 112.29999999999998,190.5 113.14283333333333,190.4428333333333 " stroke-linecap="round" stroke-width="3" stroke="#000" fill="none"/>
  <path t="122681,122816,122816,122838,122854,122870,122887,122902,122980,123003,123050,123070,123087,123104,123120,123137,123154,123190,123228,123237,123260,123270,123292,123303,123337,123580,123620,123657,123670,123696,123736,123773,123786,123805,123820,123838,123859,123891,123904,123922,123945,123970,124000,124023,124055,124126,124147,124171,124250,124250,124303,124414,124788,124811" d="M101.5,204.5C102.5,203.5 103.3,203.5 104.2,203.5C105.1,203.5 106,203.5 106.9,203.5C107.8,203.5 108.7086,203.62401 109.59983,203.49983C110.40172,203.38811 110.86983,202.57422 111.47467,202.07466C112.13007,201.53334 112.93182,201.42812 113.52533,200.92534C114.15903,200.3885 115.02361,200.0396 115.7955,199.55267C116.49794,199.10956 116.87581,198.36876 117.55267,197.85266C118.2103,197.35121 119.12115,197.42955 119.584,196.69867C120.05311,195.9579 120.5265,196.30307 120.5,197.2C120.47211,198.14415 119.8113,198.59868 119.416,199.30133C118.9564,200.11829 118.64297,201.19522 117.97916,201.47917C117.09724,201.85643 116.64901,202.23151 116.064,202.88933C115.44785,203.58217 114.27509,203.24373 113.62133,203.72133C112.92225,204.23204 112.28742,204.3502 111.40017,204.50017C110.54814,204.64417 110.14413,205.47141 109.2,205.5C108.30042,205.52724 107.4,205.5 106.5,205.5C105.7,205.5 104.8,205.5 103.9,205.5L103,205.5L102.11066,205.48933" id="svg_27" stroke-width="3" stroke="#000" fill="none"/>
  <path t="127858,128177,128215,128280,128465,128592,128662,128716" d="M115.5,172.5C116.30133,172.5 117.29689,172.86317 118.064,172.464C118.82339,172.06886 119.30133,171.50133 120.2,171.5L121.14283,171.44284" id="svg_28" stroke-width="3" stroke="#000" fill="none"/>
  <path t="129691,129830,129876,129887,129940,129978,130010,130032,130055,130070,130086,130103,130134,130134,130165,130188,130212,130252,130422,130477,130750,130750" d="M110.5,166.5C110.55717,164.8 111.03761,164.04753 111.7955,163.55267C112.49091,163.09862 112.90363,162.30701 113.584,161.784C114.19527,161.3141 115.30438,161.87782 116.14283,161.44284C116.89146,161.05446 117.52067,160.51042 118.4785,160.5C119.19546,160.4922 120.1,160.5 121,160.5C121.9,160.5 122.8,160.5 123.7,160.5L124.6,160.50017L125.5,160.66667L126.2,161.14734" id="svg_29" stroke-width="3" stroke="#000" fill="none"/>
  <path t="145610,145968,145992,146040,146148,146234,146336,146492,146529,146570,146686,146748" d="M93.07143,178.35715C92.2701,178.35715 91.35677,178.35715 90.49677,178.35715C89.57143,178.35715 88.60197,178.12413 87.77592,178.36165C87.00806,178.58243 86.49677,179.38248 86.07593,180.00447L85.49677,180.39314L85.07276,181.07314" id="svg_30" stroke-width="3" stroke="#000" fill="none"/>
  <path t="148181,148431,148509,148540,148553,148612,148642,148695,148757,148789,148868,148900,148921,149048,149110,149139,149155,149202,149219,149235,149268,149285,149327,149434,149538" d="M95.07143,171.35715C94.07143,171.35715 93.15506,171.38113 92.36693,171.35715C91.42729,171.32855 91.08576,170.44102 90.35543,170.35715C89.50237,170.25917 88.5506,170.3578 87.6821,170.35715C86.78743,170.35648 86.26043,169.67587 85.49677,169.36781C84.69791,169.04556 83.65304,169.15224 83.0701,169.64114C82.4561,170.1561 82.13818,170.68788 81.6461,171.3318C81.14608,171.98608 80.5506,172.35715 79.6821,172.36781L79.09226,172.85715L79.07143,173.78247L79.07143,174.64247" id="svg_31" stroke-width="3" stroke="#000" fill="none"/>
  <path t="153300,153498,153535,153552,153568,153585,153605,153636,153667,153685,153754,153974,153986" d="M74.07143,178.35715C74.07143,177.35715 73.62168,176.81184 73.15676,176.07181C72.66872,175.29495 72.72343,174.57329 71.9716,174.1358C71.14593,173.65535 71.03543,172.78247 70.35543,172.35847L70.07143,171.74648L70.03543,170.79314L69.35543,170.35847" id="svg_32" stroke-width="3" stroke="#000" fill="none"/>
  <path t="154793,154867,154886,154940,155111,155134,155166,155203,155260,155297,155321,155385,155402,155445,155478,155508,155531,155579,155635,155651,155696,155734,155752,155789,155820,155884,155922,155946,156001,156024,156046,156086,156116,156156,156184,156202,156202,156219,156235,156267,156374,156428,156459,156468,156501,156534,156584,156636,156668,156693,156755,156755,156912,156974,156989,157052,157075,157085,157114,157184,157245,157278,157334,157334,157355,157387,157558,157636,157653,157689,157733,157783,157817,157840,157885,157916,157980,158002,158080,158144,158184,158228,158284,158384,158618,158652,158711,158798,158860,158954,158985,159017,159117,159170,159187,159209,159233,159349,159405,159451,159500,159569,159615,159651,159669,159693,159746,159817,159834,159887,159951,160000,160035,160133,160177,160293,160334,160371,160433,160450,160573,160583,160667,160667,160690,160753,160855,160909,160939,160963,161041,161083,161166,161275,161299,161400,161455,161485,161520,161552,161583,161616,161667,161684,161734,161751,161828,161843,161977,162047,162117,162140,162227,162288,162305,162327,162383,162451,162650,162701,162717,162786,162835,162880,162951,162983,163004,163044,163137,163150,163239,163293,163395,163484,163518,163583,163723" d="M70.07143,170.35715C69.90476,169.5238 69.15548,169.29599 69.07143,168.41431C68.98544,167.51244 68.13233,167.14218 68.07143,166.27315C68.00739,165.35939 68.07143,164.47847 68.07143,163.65265C68.07143,162.71431 68.07143,161.8363 68.07143,160.9678C68.07143,159.99997 67.77779,159.0778 68.15676,158.27315C68.4958,157.55325 69.07143,156.85715 69.07143,155.99997C69.07143,155.06165 68.76538,154.12022 69.10743,153.3318C69.45453,152.53172 70.07135,151.92114 70.07143,151.06165C70.07151,150.1358 70.69769,149.61438 71.0506,148.85715C71.4128,148.07997 70.94641,146.95981 71.49677,146.39314C71.98271,145.89279 72.75225,145.59602 73.07143,144.93181C73.44449,144.15546 73.21248,143.17949 73.57143,142.37798C73.92505,141.58835 74.16364,140.81969 74.6461,140.32114C75.19541,139.75349 75.09672,138.81937 75.57143,138.3363C76.15698,137.74043 76.66222,137.21146 77.12859,136.70981C77.73725,136.05511 78.39449,135.89473 78.94993,135.1358C79.42499,134.48669 80.02513,134.12137 80.71426,133.70981C81.45496,133.26746 82.16055,132.95575 82.71877,132.36165C83.19638,131.85333 83.89066,131.75209 84.63543,131.32114C85.33396,130.91693 85.42001,129.81599 86.2381,129.35715C86.93593,128.96576 87.16936,128.10016 87.77592,127.70981C88.5655,127.20168 89.21568,126.83296 89.71877,126.29997C90.30395,125.68 90.79539,125.37034 91.50743,124.93181C92.27898,124.45662 93.21997,124.67953 94.0461,124.34647C94.80983,124.03857 95.4286,123.35714 96.2701,123.35714C97.2381,123.35714 98.09676,123.35714 98.98743,123.35714C99.77592,123.35714 100.40929,123.06378 101.07143,122.52381C101.64115,122.05921 102.71877,122.35714 103.59226,122.35714C104.46076,122.35714 105.36063,122.45578 106.29276,122.35714C107.08464,122.27335 107.35378,121.39986 108.2701,121.35714C109.12766,121.31716 110.18171,121.86919 110.90476,121.35714C111.52421,120.91846 111.87276,120.35781 112.78609,120.35714C113.71877,120.35646 114.6461,120.35714 115.50743,120.35714C116.36693,120.35714 117.29276,120.35714 118.2381,120.35714C119.09676,120.35714 119.85476,120.47175 120.63543,120.93181C121.4074,121.38674 122.48758,121.18056 123.01426,121.70981C123.53042,122.22848 124.46723,122.00512 125.07143,122.52381C125.6785,123.04498 126.40858,123.08739 126.98609,123.64114C127.54836,124.18027 128.35518,124.05254 128.9861,124.64114C129.55576,125.17258 129.80652,125.84702 130.29276,126.35731C130.84671,126.93867 131.20888,127.69875 131.87276,128.07314C132.64511,128.50871 132.94762,129.00085 133.4241,129.70981C133.94075,130.4785 133.58748,131.35252 134.15677,132.07181C134.73218,132.79883 134.63304,133.41405 135.15677,134.07314C135.70291,134.76044 136.92781,134.41023 137.07143,135.35715C137.1964,136.18105 137.8472,136.37038 138.07143,137.23564C138.28261,138.05055 138.72981,138.47357 139.15677,139.07314C139.70238,139.83932 140.56131,140.09224 141.07159,140.57848C141.65294,141.13242 141.86551,141.7231 142.4241,142.29997C142.93355,142.82608 142.8878,143.66013 143.35542,144.27315C143.8707,144.94865 143.87685,145.73192 144.07159,146.57848C144.25252,147.36499 145.061,147.85695 145.07143,148.70981C145.08279,149.64107 144.94281,150.53273 145.07159,151.45697C145.18332,152.2587 146.07079,152.5238 146.07143,153.37798C146.0721,154.2718 146.98769,154.51143 147.07143,155.35715C147.158,156.23154 146.67474,157.18924 147.10742,157.93181C147.51086,158.62421 148.07143,158.9678 148.07143,159.92114C148.07143,160.85715 148.07143,161.70981 147.78743,162.35847L147.10742,162.79314L147.07143,163.65265" id="svg_33" stroke-width="3" stroke="#000" fill="none"/>
  <path t="182848,183049,183067,183088,183134,183150,183196,183220,183266,183291,183307,183331,183377,183415,183462,183486,183524,183555,183603,183616,183648,183666,183698,183750,183774,183797,183844,183875,183915,183938,183961,183985,184048,184070,184098,184117,184140,184187,184226,184281,184299,184318,184367,184412,184436,184461,184515,184560,184593,184601,184631,184684,184733,184802,184842,184889,184915,184996,185016,185048,185075,185107,185176,185209,185239,185279,185332,185403,185465,185488,185527,185565,185612,185645,185715,185747,185766,185855,185932,185965,185983,186026,186050,186082,186119,186143,186166,186245,186291,186369,186401,186533" d="M170.07143,343.35715C170.09225,344.35715 170.81969,344.90305 171.03543,345.74649C171.27542,346.68475 171.07143,347.55582 171.07143,348.5238C171.07143,349.38248 171.55455,349.96436 171.9861,350.64249C172.47859,351.41638 171.7375,352.47656 172.08209,353.33182C172.38985,354.09561 173.07143,354.71429 173.07143,355.55582C173.07143,356.5238 173.02388,357.37924 173.07143,358.27313C173.11415,359.07657 174.01051,359.57187 174.07143,360.40982C174.1386,361.33386 174.11844,362.20197 174.57143,362.87799C175.06813,363.61926 175.07143,364.57849 175.07143,365.44247C175.07143,366.33182 174.60022,367.2894 175.07143,368.07181C175.44926,368.69919 175.68973,369.28552 176.07143,370.00449C176.39674,370.61725 177.06917,371.06165 177.07143,371.99997C177.07349,372.85715 177.07143,373.78247 177.07143,374.71429C177.07143,375.55582 177.07143,376.44113 177.07143,377.35715C177.07143,378.27313 177.07143,379.06165 177.07143,379.99997C177.07143,380.85715 176.80202,381.82382 177.07593,382.70981C177.29774,383.42731 178.06609,383.93176 178.07143,384.85715C178.07634,385.70981 178.07143,386.64249 178.07143,387.55582C178.07143,388.40982 178.59703,388.84241 179.07143,389.5238C179.56206,390.22852 178.65813,391.38815 179.07143,392.07315C179.44945,392.69968 180.47914,392.93008 180.9861,393.64114C181.46097,394.30719 181.88103,395.01373 182.06076,395.92114C182.22812,396.76611 182.69461,397.14209 183.0506,397.85715C183.46785,398.69525 183.07143,399.65265 183.07143,400.57849C183.07143,401.44113 183.07143,402.35715 183.07143,403.15848C183.07143,404.07181 183.07143,405.00449 183.07143,405.85715C183.07143,406.79315 183.07143,407.65265 183.07143,408.57849C183.07143,409.44113 183.63274,409.90436 184.07143,410.5238C184.61073,411.28534 184.07143,412.30447 184.07143,413.19049C184.07143,414.07315 184.07143,414.9678 184.07143,415.8363L184.07143,416.70981" id="svg_35" stroke-width="3" stroke="#000" fill="none"/>
  <path t="191974,192065,192082,192099,192099,192099,192116,192150,192175,192175,192232,192249,192281,192315,192333,192349,192381,192399,192416,192465,192465,192482,192499,192533,192580,192599,192616,192651,192688,192715,192749,192766,192798,192844,192893,192922,192982,193024,193064,193102,193125,193141,193194,193243,193267,193329,193375,193416,193448,193469,193485,193531,193576,193600,193641,193686,193715,193756,193781,193802,193851,193896,193921,193958,193998,194015,194037,194061,194107,194146,194192,194231,194249,194282,194299,194332,194357,194381,194427,194464,194499,194521,194566,194607,194645,194665,194700,194738,194785,194809,194841,194878,194924,194965,195010,195035,195066,195082,195175,195229,195487,195549,195643,195753,195791,195845,195901,195939,196040" d="M193.07143,330.35715C193.07143,332.19049 193.07143,333.03979 193.07143,333.89981C193.07143,334.60782 193.07143,335.58914 193.07143,336.5383C193.07143,337.5238 193.07143,338.35715 193.07143,339.15714C193.07143,340.19049 193.78104,340.75024 194.07143,341.57849C194.3486,342.36908 194.73537,343.05475 195.0506,343.8363C195.37253,344.63446 196.09044,345.24109 196.57143,345.85715C197.16949,346.62317 196.98648,347.5787 197.49677,348.29581C197.95395,348.93832 198.0708,349.78247 198.07143,350.64249C198.0721,351.55582 198.69342,352.01462 199.07143,352.64114C199.52742,353.39691 199.07143,354.40982 199.07143,355.35715C199.07143,356.19049 199.07143,357.00449 199.07143,357.93182C199.07143,358.79315 199.07143,359.74649 199.07143,360.64114C199.07143,361.5238 199.07143,362.40982 199.07143,363.35715C199.07143,364.19049 199.07143,365.00449 199.07143,365.93182C199.07143,366.79315 199.07143,367.74649 199.07143,368.64114C199.07143,369.5238 199.07143,370.40982 199.07143,371.35715C199.07143,372.19049 199.07143,373.00449 199.07143,373.93182C199.07143,374.79315 199.07143,375.74649 199.07143,376.64114C199.07143,377.5238 199.07143,378.40982 199.07143,379.35715C199.07143,380.19049 199.07143,381.00449 199.07143,381.93182C199.07143,382.79315 199.07143,383.74649 199.07143,384.64114C199.07143,385.5238 198.93927,386.30676 198.49677,386.9678C197.96381,387.76398 198.07143,388.70981 198.07143,389.64114C198.07143,390.5238 198.07143,391.45697 198.07143,392.30447C198.07143,393.19049 197.33336,393.74081 197.07143,394.57864C196.80934,395.41696 197.07143,396.35715 197.07143,397.27313C197.07143,398.07315 197.07143,398.9678 197.07143,399.92114C197.07143,400.78247 197.07143,401.70981 197.07143,402.57864C197.07143,403.45697 196.53961,404.55441 197.07277,405.27182C197.59129,405.96954 198.02554,406.33298 198.07143,407.23581C198.11415,408.07642 198.49776,408.7438 199.09225,409.35715C199.70885,409.99329 200.6402,410.03378 201.03543,410.79315C201.4326,411.55624 201.07143,412.57849 201.07143,413.44113C201.07143,414.35715 201.07143,415.15848 201.07143,416.07181C201.07143,417.00449 201.09225,417.85715 201.71877,418.35263L202.07143,418.9678L202.07143,419.8363L202.07143,420.70981" id="svg_37" stroke-width="3" stroke="#000" fill="none"/>
  <path t="252558,253031,253047,253064,253080,253096,253113,253147,253209,253241,253295,253341,253363,253380,253396,253413,253429,253451,253451,253481,253521,253529,253575,253615,253630,253646,253669,253679,253696,253715,253739,253755,253755,253780,253797,253813,253830,253847,253863,253880,253897,253914,253914,253930,253930,253947,253980,253997,254014,254030,254047,254047,254063,254080,254097,254097,254113,254145,254145,254163,254163,254179,254179,254196,254196,254213,254213,254229,254229,254229,254246,254246,254246,254246,254262,254262,254262,254262,254279,254280,254280,254297,254297,254314,254331,254346,254364,254364,254385,254416,254440,254440,254464,254495,254527,254527,254547,254564,254581,254597,254614,254630,254647,254667,254682,254697,254720,254745,254763,254779,254779,254799,254815,254885,254923,254923,254947,254964" d="M126.5,120.5C127.33334,120.33334 127.85193,119.67287 128.44733,119.14733C129.08546,118.58407 129.63049,118.04339 130.216,117.416C130.85854,116.72752 131.35747,116.16874 131.92534,115.52533C132.44995,114.93093 132.92131,114.24113 133.37866,113.40017C133.78519,112.65267 134.31198,112.01143 134.936,111.52533C135.67818,110.9472 136.23688,110.46311 136.584,109.7C136.97258,108.84575 137.23962,108.06089 137.5045,107.2045C137.74059,106.44119 138.19955,105.92214 138.51067,105.11066C138.79552,104.36768 139.94896,104.10406 140.37866,103.40017C140.85349,102.62237 141.35617,102.10042 141.784,101.3C142.24147,100.44415 142.86971,100.07175 143.37849,99.2785C143.85722,98.53212 143.81114,97.73642 144.44733,97.14733C145.02292,96.61435 145.30672,95.95638 145.52083,95C145.71042,94.15314 146.50024,93.50024 147,93C147.69901,92.30033 147.94409,91.53603 148.584,90.78533C149.15169,90.11936 149.94519,89.76129 150.44733,89.14283C151.01939,88.43824 151.26245,87.47371 151.55267,86.8C151.9153,85.95821 152.33641,85.15293 152.72133,84.4C153.1115,83.6368 153.75885,83.07751 154.33333,82.33334C154.79919,81.72984 154.80482,80.81833 155.30133,79.984C155.754,79.22334 156.32104,78.62928 156.8,77.84734C157.2187,77.16377 157.8403,76.27496 158.2,75.69017C158.76779,74.76704 159.00734,73.95253 159.25717,73.391C159.79289,72.18686 160.14882,71.59486 160.52083,71C161.0887,70.09197 161.70126,69.20112 162.0955,68.6045C162.48058,68.02176 163.04521,67.203 163.61333,66.18533C163.97829,65.53159 164.25487,64.91018 164.44733,63.9045C164.62199,62.99179 164.90802,62.10661 165.69867,61.584C166.4236,61.10483 166.76611,60.28291 167.30133,59.7C167.86951,59.0812 168.28902,58.24636 168.72133,57.4C169.05606,56.74468 169.41763,55.83481 169.936,55.1C170.41069,54.42712 170.91742,53.81054 171.5,53.02083C171.97066,52.38285 172.08731,51.67173 172.55716,50.85717C172.95334,50.17033 173.6237,49.72173 174.07466,48.9C174.50272,48.12002 174.42122,47.1452 174.92534,46.52533C175.42555,45.91026 176.02179,45.15375 176.37866,44.4C176.78304,43.54593 177.06541,42.85202 177.8,42.2045C178.4622,41.62077 179.33333,41.33333 179.66667,40.5L180.14734,39.8L180.5,39.02083L181.14734,38.44733" id="svg_39" stroke-width="3" stroke="#000" fill="none"/>
  <path t="256674,256779,256796,256813,256830,256830,256847,256862,256862,256862,256879,256879,256896,256896,256912,256929,256929,256946,256946,256963,256995,256995,257013,257013,257030,257047,257063,257080,257096,257096,257113,257129,257146,257146,257163,257179,257196,257213,257229,257247,257263,257280,257296,257316,257317,257331,257346,257363,257379,257396,257396,257417,257433,257433,257449,257463,257479,257496,257513,257530,257546,257563,257580,257580,257597,257612,257629,257646,257646,257662,257682,257696,257713,257729,257729,257746,257746,257780,257796,257812,257830,257830,257847,257863,257880,257880,257901,257922,257923,257931,257963,257980,257980,257996,258012,258012,258031,258031,258031,258047,258063,258080,258103,258103,258143,258163,258181,258197,258213,258230,258247,258274,258321,258330,258360,258398,258431,258461,258485,258495,258515,258571,258612,258695,258712" d="M134.5,126.5C135.07466,124.9 135.38495,124.05681 135.85266,123.2C136.25952,122.45467 136.57956,121.69736 137.02083,120.95834C137.49524,120.1638 137.78491,119.4884 138.10001,118.75066C138.57735,117.63305 138.98936,117.03147 139.7,116.3C140.19272,115.79283 141.03879,115.15501 141.37866,114.17867C141.60532,113.52757 141.66164,112.47895 142.11067,111.91067C142.72449,111.13384 143.50024,110.50024 144,110C144.69901,109.30033 145.13437,108.6656 145.55267,107.8C145.94818,106.98156 146.95729,106.72156 147.47467,106.064C147.98466,105.41584 148.38995,104.77607 148.97917,104C149.53967,103.26176 149.60301,102.26134 150.30133,101.78533C151.05064,101.27455 151.43544,100.57545 152.02083,100.02084C152.7467,99.33314 153.3947,99.02441 153.85266,98.2C154.26501,97.4577 154.89746,96.83034 155.416,96.21467C155.97649,95.54919 156.27454,94.86226 156.88933,94.1C157.48993,93.35533 157.94746,92.74918 158.47467,92.064C158.97762,91.41035 159.30133,90.7 160,90C160.69867,89.3 160.97981,88.56175 161.55267,87.85717C162.05524,87.23905 162.51007,86.64467 163.11067,85.9C163.72546,85.13774 164.07076,84.33782 164.66667,83.66666C165.20509,83.06027 165.7897,82.44311 166.14734,81.8C166.62177,80.94689 167.02179,80.15375 167.37866,79.4C167.78304,78.54594 168.14734,77.8 168.5,77C168.85266,76.2 169.15489,75.25626 169.7215,74.62117C170.32162,73.9485 171.03897,73.50269 171.33333,72.66666C171.61043,71.87967 172.33333,71.33334 172.5,70.5C172.66667,69.66666 173.40544,69.17676 173.48933,68.31467C173.57922,67.39095 173.98363,66.74545 174.37866,66.05717C174.75542,65.40076 174.98685,64.32722 175.33333,63.5C175.61092,62.83725 175.81448,62.11285 176.33333,61.33333C176.80421,60.62587 176.55592,59.6814 177.02083,58.97917C177.56627,58.15527 178.07011,57.50743 178.33333,56.5C178.53558,55.72591 178.27911,54.95485 178.536,53.91067C178.75084,53.03739 179.39108,52.40161 179.5,51.5C179.5965,50.70127 180.24695,49.96283 180.464,49.1C180.68375,48.2265 180.3502,47.28741 180.50017,46.40017C180.64417,45.54814 181.4707,45.14411 181.5,44.2C181.52786,43.30177 182.06886,42.82339 182.464,42.064C182.86317,41.29689 182.5,40.3 182.5,39.4C182.5,38.5 182.95035,37.95508 183.41467,37.21467C183.90274,36.43641 183.5,35.4 183.5,34.5L183.66667,33.66667" id="svg_40" stroke-width="3" stroke="#000" fill="none"/>
  <path t="261074,261245,261245,261262,261262,261262,261262,261279,261279,261279,261279,261296,261296,261296,261296,261313,261313,261313,261313,261329,261329,261329,261329,261346,261346,261346,261362,261362,261362,261362,261379,261379,261379,261396,261396,261396,261413,261413,261429,261429,261446,261446,261463,261463,261464,261464,261479,261480,261496,261496,261496,261513,261529,261546,261546,261563,261563,261579,261595,261612,261612,261630,261630,261646,261646,261662,261679,261679,261696,261696,261713,261713,261713,261713,261729,261729,261746,261746,261763,261781,261781,261797,261813,261813,261829,261846,261846,261863,261863,261883,261907,261907,261921,261930,261945,261945,261962,261980,261997,262015,262015,262030,262046,262063,262063,262079,262079,262100,262100,262125,262125,262146,262163,262180,262180,262196,262213,262230,262246,262246,262262,262281,262281,262311,262358" d="M148.5,147.5C149.0625,144.97917 149.47476,144.53342 150.26933,143.72934C150.76306,143.22969 151.29631,142.68852 151.81734,142.09734C152.59534,141.21457 153.03365,140.59366 153.72533,139.73599C154.17522,139.17813 154.91364,138.41248 155.45267,137.95267C156.26334,137.26115 156.84914,136.84879 157.57851,136.07851C158.06592,135.56375 158.6942,134.69267 159.09866,134.09866C159.70718,133.20497 160.1111,132.60966 160.664,131.7C161.02495,131.10614 161.48203,130.20164 161.87466,129.31067C162.1275,128.73694 162.63757,127.64577 163.15717,126.95267C163.68216,126.25236 164.13098,125.8389 164.89734,124.816C165.29437,124.28607 165.85255,123.48171 166.16667,122.66666C166.51535,121.76193 166.46396,121.08078 166.78534,120.10133C167.0446,119.31117 167.71475,118.39526 168.10001,117.87466C168.72443,117.03088 169.12105,116.2622 169.5,115.33334C169.81781,114.55436 169.98834,113.99562 170.3,113.184C170.68565,112.1797 171.10007,111.3107 171.5,110.5C171.88939,109.71069 172.15602,108.96601 172.5,108.02084C172.80614,107.17963 173.5,106.5 174,106C174.7,105.3 175.36095,104.7543 175.88933,104.1C176.49107,103.35484 176.73326,102.40833 177.2045,101.74284C177.71284,101.02493 178.06363,100.30154 178.59984,99.5215C179.10934,98.78032 179.40814,97.95258 179.85716,97.1955C180.23016,96.5666 180.78084,95.81983 181.31433,95.03833C181.80789,94.31531 182.50027,93.54707 183,93.02084C183.48975,92.50512 184.35699,91.643 184.95833,91.04166C185.60001,90.39999 186.2,89.8 186.8,89.2C187.5,88.5 188.13504,87.93303 188.69867,87.3C189.37773,86.53733 189.41521,85.69761 190.04167,85C190.69891,84.26812 191.64355,84.1673 192.25717,83.4C192.73932,82.7971 193.01556,81.99485 193.7,81.3C194.29546,80.69548 195.06261,80.04561 195.416,79.3C195.823,78.44129 196.44675,78.02857 197.14284,77.44733C197.73386,76.95383 198.01556,75.99485 198.7,75.3C199.19621,74.79624 200.00549,74.16537 200.416,73.3C200.77531,72.54255 201.14609,71.88754 201.7,71.016C202.12811,70.34239 202.57248,69.49789 203.10001,68.91067C203.76663,68.1686 204.38901,67.77651 204.97917,67C205.54004,66.26203 205.76089,65.27808 206.30133,64.7C206.87503,64.08633 207.81818,63.74314 208.45183,63.14283C209.09818,62.53049 209.8008,62.0372 210.33067,61.3C210.8371,60.59542 211.11067,59.9 211.7955,59.2L212.37866,58.40017" id="svg_41" stroke-width="3" stroke="#000" fill="none"/>
  <path t="264338,264478,264478,264495,264495,264513,264513,264513,264513,264530,264530,264530,264545,264545,264545,264562,264562,264562,264562,264578,264578,264578,264578,264595,264595,264595,264612,264612,264613,264629,264629,264649,264663,264663,264680,264696,264713,264730,264746,264746,264763,264779,264796,264829,264845,264845,264862,264879,264896,264913,264930,264930,264946,264969,264979,264997,265012,265029,265046,265063,265079,265096,265118,265118,265141,265163,265163,265179,265195,265219,265219,265233,265246,265272,265281,265297,265328,265346,265363,265379,265396,265413,265429,265446,265462,265479,265499,265499,265512,265530,265553,265577,265601,265601,265615,265630,265647,265677,265695,265712,265733,265755,265763,265812,265833,265833,265846,265846,265881,265902,265903,265927,265958,265979,265996,266012,266030,266051,266075,266075,266107,266130,266146,266177,266195,266223,266247,266263,266279,266295,266296,266313,266387,266403,266519,266567" d="M148.5,154.5C148.66667,152.66667 149.34627,152.36737 149.92133,151.61734C150.3494,151.05904 151.03778,150.07437 151.50534,149.54733C151.99493,148.99547 152.53883,148.48807 153.35716,147.42149C153.8671,146.75687 154.21599,146.08058 154.8215,145.29984C155.31079,144.66895 155.92206,144.05721 156.5,143.33333C157.1192,142.55777 157.50323,141.98138 157.89999,141.39549C158.70644,140.20462 159.09799,139.60614 159.47917,139.02083C159.84523,138.45872 160.49638,137.43095 160.864,136.72533C161.21269,136.05602 161.59697,135.07767 161.89999,134.28534C162.19702,133.50868 162.65781,132.43657 163.2,131.80901C163.75891,131.16208 164.58931,130.57288 165.064,129.89999C165.58235,129.16519 165.68684,128.16896 166.5,127.66666C167.26358,127.19498 167.7117,126.52826 168.07466,125.9C168.56323,125.05434 168.94936,124.36165 169.584,123.784C170.23065,123.19542 170.73032,122.53968 171.14734,121.8C171.56737,121.05499 172.15532,120.45223 172.55267,119.7955C173.0305,119.00577 173.80757,118.37862 174.21466,117.7C174.65614,116.96406 174.93451,116.10556 175.416,115.30133C175.86121,114.55771 176.52846,114.12402 177.07466,113.47467C177.60928,112.8391 178.02499,112.02766 178.7955,111.55267C179.45093,111.14861 179.76344,110.28046 180.30133,109.7C180.97356,108.97457 181.60231,108.4023 182.2,107.8C182.89201,107.10265 183.25272,106.34947 183.66667,105.5C183.98451,104.84775 184.57445,104.08974 185.07466,103.47467C185.57878,102.8548 185.74203,102.05166 186.216,101.416C186.78926,100.64718 186.78525,99.82159 187.416,99.216C187.98888,98.66599 188.3947,98.02441 188.85266,97.2C189.26501,96.4577 189.94981,95.95474 190.41467,95.21467C190.90337,94.43666 190.53545,93.362 191.2045,92.85717C191.95547,92.29053 192.53258,91.78435 192.92534,91.1C193.39249,90.28605 193.78496,89.44044 194.14734,88.8C194.61176,87.97921 195.17006,87.39051 195.584,86.69867C196.05988,85.90331 197.0153,85.63968 197.5,84.97916C198.00598,84.28963 198.17375,83.27261 198.72133,82.62133C199.28249,81.9539 199.66667,81.33334 200,80.5C200.33333,79.66666 200.81154,79.11838 201.33333,78.33334C201.80376,77.62557 201.62428,76.72256 202.07466,75.9C202.50195,75.11961 202.42122,74.1452 202.92534,73.52533C203.42555,72.91026 203.96594,72.26391 204.37866,71.4C204.786,70.54734 204.92406,69.80959 205.5,69.02084C205.96753,68.38056 206.48714,67.79542 206.5,66.9C206.51262,66.02068 207.1618,65.45611 207.55267,64.7955C208.01743,64.01005 208.29538,63.12716 208.78534,62.3C209.18864,61.61913 209.88933,61.1 210.416,60.30133L210.85266,59.55267L211.464,59.064L211.51067,58.11067" id="svg_42" stroke-width="3" stroke="#000" fill="none"/>
  <path t="273894,274015,274015,274039,274078,274096,274112,274128,274128,274145,274145,274145,274162,274178,274178,274195,274212,274212,274229,274246,274262,274262,274279,274279,274296,274319,274343,274367,274388,274396,274413,274413,274437,274453,274462,274478,274498,274511,274531,274545,274562,274585,274585,274601,274612,274629,274645,274645,274663,274663,274679,274679,274695,274695,274717,274741,274757,274779,274779,274795,274812,274828,274828,274845,274862,274862,274878,274878,274895,274895,274912,274912,274928,274929,274945,274962,274962,274978,274978,274996,275013,275013,275029,275029,275045,275062,275062,275062,275078,275078,275096,275096,275096,275112,275112,275112,275129,275129,275146,275146,275146,275146,275163,275163,275163,275178,275178,275178,275195,275195,275212,275229,275246,275262,275279,275295,275295,275312,275312,275328,275345,275345,275362,275378,275396,275419,275419,275433,275446,275463,275479,275495,275496,275512,275512,275528,275528,275528,275546,275546,275561,275562,275579,275579,275596,275596,275611,275612,275629,275645,275663,275663,275679,275695,275712,275712,275729,275745,275746,275761,275761,275761,275761,275778,275779,275779,275795,275796,275812,275828,275829,275846,275846,275863,275863,275880,275880,275908,275933,275933,275955,275995,276012,276012,276012,276030,276030,276045,276045,276045,276063,276063,276063,276079,276079,276079,276096,276096,276112,276112,276113,276130,276130,276130,276146,276146,276161,276161,276180,276180,276197,276197,276220,276229,276229,276246,276263,276263,276278,276279,276279,276296,276296,276297,276313,276313,276329,276346,276346,276362,276385,276385,276407,276430,276462,276485,276509,276509,276529,276545,276562,276579,276595,276612,276612,276629,276629,276645,276678,276695,276695,276713,276713,276729,276746,276746,276762,276781,276797,276813,276813,276829,276845,276861,276861,276862,276879,276879,276879,276895,276895,276896,276912,276912,276929,276946,276962,276962,276979,276979,276996,277012,277029,277049,277049,277062,277078,277096,277112,277112,277133,277149,277171,277210,277210,277229,277246,277262,277281,277303,277303,277311,277329,277351,277367,277367,277389,277428,277445,277467,277467,277499,277545,277562,277580,277596,277631,277655,277679,277679,277701,277725,277745,277762,277787,277828,277848,277865,277865,277881,277897,277927,277951,277994,278027,278051,278082,278082,278114,278193,278215,278255,278271,278285,278296" d="M41.5,-1.5C41.5,-0.5 41.30405,0.33444 41.55717,1.2C41.81381,2.07763 42.36452,2.80854 42.50134,3.7C42.64193,4.6161 43.17702,5.14279 43.3785,6.04267C43.58882,6.98202 43.49933,7.732 43.5,8.83867C43.5005,9.66667 43.36785,10.55015 43.85266,11.39467C44.28983,12.15618 44.49775,12.85182 44.5,13.74283C44.50242,14.70133 44.5,15.66667 44.5,16.32533C44.5,17.33333 44.5,18.1955 44.5,19.1C44.5,20 44.5,20.9 44.5,21.8C44.5,22.7 44.5,23.6 44.5,24.5C44.5,25.3 44.51066,26.20006 44.5,27.1C44.48958,27.97935 43.68191,28.49429 43.50134,29.30133C43.30511,30.17832 43.66522,31.11919 43.47917,32C43.30017,32.84739 42.58504,33.48739 42.50134,34.3C42.40912,35.19527 42.46967,36.10275 42.07467,36.91067C41.62789,37.82449 41.51042,38.49983 41.5,39.47867C41.49176,40.25262 41.5,41.15717 41.5,42.10133C41.5,43.0955 41.5,43.84283 41.5,44.864C41.5,45.7 41.5,46.6 41.5,47.5C41.5,48.3 41.5,49.2 41.5,50.136C41.5,50.984 41.5,51.84733 41.5,52.87467C41.5,53.66667 41.5,54.5 41.5,55.47867C41.5,56.25267 41.5,57.15717 41.5,58.10133C41.5,59.1 41.5,59.9 41.5,60.89867C41.5,61.664 41.5,62.61467 41.5,63.5C41.5,64.25716 41.5,65.15266 41.5,66.016C41.5,67 41.42989,67.99132 41.536,68.67467C41.68517,69.63532 42.34554,70.26826 42.48933,71.172C42.62618,72.03208 42.49947,73.02084 42.5,73.81734C42.50067,74.816 42.45807,75.50957 42.66667,76.66666C42.80997,77.46156 43.12069,78.26447 43.33333,79.33334C43.47341,80.03743 43.48259,80.89566 43.50134,81.90134C43.51288,82.52103 43.65744,83.66889 43.85266,84.45717C44.06467,85.31321 44.26542,85.89419 44.41467,87.1C44.48861,87.69746 44.49775,88.59999 44.5,89.79967C44.50165,90.67867 44.5,91.228 44.5,92.357C44.5,93.191 44.5,94.1 44.5,95C44.5,95.9 44.5,96.8 44.5,97.70133C44.5,98.66666 44.5,99.5 44.5,100.4785C44.5,101.1955 44.5,102.136 44.5,102.984C44.5,103.84734 44.5,104.864 44.5,105.7C44.5,106.6 44.5,107.5 44.5,108.3C44.5,109.2 44.5,110.1 44.5,111C44.5,111.91067 44.5006,112.82133 44.5,113.67467C44.49933,114.61733 44.42922,115.47308 44.216,116.26933C44.01374,117.02465 43.72814,117.80782 43.58533,118.81467C43.46206,119.68382 43.56649,120.70447 43.47917,121.47916C43.36499,122.49216 42.73973,123.2233 42.55717,124.15717C42.41343,124.89244 42.5,125.89867 42.5,126.664C42.5,127.61467 42.5,128.60001 42.5,129.5C42.5,130.3 42.5,131.2 42.5,132.02083C42.5,132.98399 42.60832,133.85446 42.4955,134.74283C42.38404,135.62042 41.78962,136.35751 41.62133,137.26433C41.51066,137.86072 41.49195,138.89761 41.416,139.61867C41.30408,140.68115 41.07652,141.64316 40.92533,142.21733C40.62501,143.35797 40.42537,144.17952 40,145.02083C39.60043,145.81111 39.57879,146.70746 39.27867,147.47867C38.95825,148.30202 38.58566,149.16257 38.44733,149.9045C38.26025,150.90793 37.80545,151.62932 37.58533,152.61467C37.39143,153.48271 37.51114,154.30008 37.5,155.2C37.48958,156.04187 37.28201,157.04364 37.07467,157.75067C36.85618,158.4957 36.60787,159.53659 36.44733,160.30533C36.24461,161.27608 35.99552,162.02678 35.69867,162.81734C35.32066,163.82399 34.98834,164.49501 34.7,165.18401C34.28441,166.17709 33.98717,166.99103 33.78533,167.81599C33.54322,168.80557 33.53428,169.70201 33.33333,170.5C33.12473,171.32838 32.77444,171.94879 32.40017,172.92133C32.09325,173.71884 31.81166,174.53796 31.62133,175.57834C31.46147,176.45215 31.29356,177.31407 30.92533,178.12534C30.54311,178.96742 30.50533,179.71062 30.5,180.69983C30.4958,181.47916 30.54161,182.47935 30.5,183.5C30.47139,184.20175 29.88529,184.97604 29.62133,185.8215C29.35276,186.68173 29.27816,187.7 29.07467,188.31067C28.78328,189.18509 28.56288,190.18254 28.52083,191C28.47891,191.81516 28.5,192.81334 28.5,193.65334C28.5,194.61467 28.5,195.5 28.5,196.3C28.5,197.25717 28.5,198.15266 28.5,199.01601C28.5,199.97917 28.5,200.8 28.5,201.7C28.5,202.60001 28.5,203.5 28.5,204.3C28.5,205.2 28.5,206.10001 28.5,207C28.5,207.89999 28.5,208.8045 28.5,209.82133C28.5,210.5 28.53808,211.47939 28.5,212.29866C28.45729,213.21764 27.56087,213.71584 27.5,214.66667C27.45792,215.32399 27.5,216.33333 27.5,217.1955C27.5,218.136 27.5,218.98399 27.5,219.84734C27.5,220.74283 27.5,221.7 27.5,222.60001C27.5,223.5 27.5,224.3 27.5,225.2C27.5,226.04167 27.5,227.04283 27.5,227.76134C27.5,228.55183 27.5,229.57867 27.5,230.5C27.5,231.18401 27.5,232.18401 27.5,233C27.5,233.81599 27.5,235.03833 27.5,235.83833C27.5,236.74283 27.49219,237.70137 27.5,238.66667C27.50533,239.32539 27.6846,240.32393 28.07467,241.08934C28.483,241.89059 28.39305,242.80653 28.50133,243.7C28.61281,244.61977 29.29894,245.15622 29.48933,246.10001C29.66742,246.98277 29.96194,247.73639 30.33333,248.5C30.70001,249.25391 31.24479,250.03772 31.464,250.89999C31.68597,251.77315 31.8674,252.64799 32.216,253.3C32.66906,254.14738 33.11804,254.81036 33.41467,255.7C33.70063,256.55765 33.7303,257.46033 34.14734,258.20001C34.56736,258.94501 35.24822,259.4982 35.464,260.36133C35.69991,261.30496 35.4946,262.08936 35.5,263C35.50533,263.90005 36.0005,264.71878 36.33333,265.5C36.65352,266.25153 36.5,267.20001 36.5,268.10001C36.5,269 36.5,269.89999 36.5,270.79999C36.5,271.70001 36.5,272.60001 36.5,273.5C36.5,274.29999 36.5,275.20001 36.5,276.10001C36.5,277 36.5,277.89999 36.5,278.79999C36.5,279.70001 36.5,280.60001 36.5,281.5C36.5,282.29999 36.5,283.20001 36.5,284.10001C36.5,285 36.5,285.89999 36.5,286.79999C36.5,287.70001 36.5,288.60001 36.5,289.5C36.5,290.29999 36.5,291.20001 36.5,292.10001C36.5,293 36.5,293.89999 36.5,294.79999L36.50134,295.69867L36.85266,296.44733" id="svg_44" stroke-width="3" stroke="#000" fill="none"/>
  <path t="279741,279861,279861,279879,279879,279879,279896,279896,279896,279912,279912,279912,279928,279945,279961,279961,279979,279995,279995,280012,280028,280028,280045,280061,280078,280078,280094,280111,280111,280129,280145,280161,280161,280178,280195,280212,280228,280258,280281,280303,280327,280327,280351,280389,280413" d="M49.5,1.5C48.55267,3.50983 48.54072,4.29638 48.33333,5.33333C48.18841,6.05796 47.77866,6.94596 47.40017,7.92133C47.19532,8.4492 46.87845,9.26167 46.66667,10.33333C46.48652,11.24494 46.50626,12.01335 46.5,12.97917C46.49403,13.90004 46.10695,14.64359 45.784,15.38533C45.39592,16.27668 45.5,17.33333 45.5,18.08933C45.5,19.02083 45.5,19.984 45.5,20.67467C45.5,21.74283 45.68135,22.65347 45.33333,23.5C45.05744,24.17108 44.51042,25.02063 44.5,25.82133C44.4889,26.67459 44.5,27.61467 44.5,28.6C44.5,29.5 44.5,30.3 44.5,31.2C44.5,32.1 44.5,33 44.5,33.9C44.5,34.8 44.5,35.7 44.5,36.6C44.5,37.5 44.5,38.3 44.5,39.2L44.5,40.1L44.5,41" id="svg_45" stroke-width="3" stroke="#000" fill="none"/>
  <path t="281141,281228,281245,281245,281245,281262,281262,281262,281278,281278,281295,281295,281295,281312,281312,281312,281328,281345,281345,281345,281362,281362,281378,281378,281394,281394,281412,281429,281429,281445,281462,281478,281478,281495,281511,281528,281551,281573,281597,281621,281662,281678,281695,281695,281712,281712,281728,281744,281761,281784,281785,281807,281807,281831,281846,281861,281878,281895,281911,281912,281928,281928,281945,281945,281962,281978,281978,281995,281995,282012,282028,282029,282045,282063,282063,282078,282094,282112,282112,282128,282128,282145,282145,282161,282161,282179,282179,282179,282195,282195,282212,282212,282229,282246,282246,282262,282278,282295,282328,282328,282353,282377,282399,282423,282439,282439,282455,282469,282479,282496,282512,282529,282547,282563,282580,282596,282612,282633,282648,282648,282663,282695,282712,282712,282728,282751,282766,282781,282796,282812,282829,282851,282851,282875,282899,282937,282977,282995,283012,283012,283029,283060,283078,283096,283096,283111,283133,283145,283162,283179,283195,283211,283228,283246,283246,283262,283279,283296,283312,283335,283345,283362,283378,283396,283413,283413,283436,283451,283475,283499,283499,283515,283529,283545,283561,283562,283562,283578,283578,283578,283595,283596,283596,283596,283612,283613,283613,283628,283628,283629,283644,283645,283662,283678,283701,283701,283771,283802,283825,283849,283873,283888,283903,283919,283919,283943,283967,283979,283995,284012,284029,284045,284061,284079,284095,284113,284129,284153,284169,284179,284227,284244,284263,284279,284295,284311,284328,284347,284371,284371,284411,284428,284444,284465,284489,284505,284513,284535,284535,284559,284579,284595,284611,284611,284629,284645,284661,284678,284695,284714,284714,284729,284744,284762,284763,284779,284779,284795,284796,284796,284812,284828,284828,284844,284845,284863,284863,284879,284879,284901,284901,284917,284929,284945,284961,284978,284979,284995,284996,284996,285012,285012,285029,285029,285029,285029,285045,285046,285046,285062,285062,285078,285095,285111,285129,285145,285161,285181,285205,285244,285245,285262,285278,285279,285295,285314,285338,285378,285378,285395,285413,285413,285429,285429,285444,285462,285479,285479,285501,285517,285529,285548,285587,285627,285645,285645,285661,285661,285680,285711,285743,285761,285780,285827,285846,285846,285862,285879,285895,285913,285929,285946,285962,285978,285979" d="M48.5,3.5C48.5,4.54167 48.5,5.5 48.5,6.31067C48.5,7.18533 48.5,8.184 48.5,9C48.5,9.816 48.5,10.816 48.5,11.72533C48.5,12.66667 48.5,13.45267 48.5,14.27467C48.5,15.33333 48.5,16.03833 48.5,17.01333C48.5,17.88533 48.5,18.83333 48.5,19.76133C48.5,20.55183 48.5,21.57833 48.5,22.25333C48.5,23.33333 48.47295,24.1258 48.50134,24.984C48.52994,25.84867 49.02413,26.65891 49.3785,27.6C49.62879,28.26468 49.49926,29.2 49.5,30.136C49.50067,30.98267 49.64603,31.72869 50.14734,32.54817C50.58102,33.25711 50.5,34.2 50.5,35.1C50.5,36 50.5,36.9 50.5,37.8C50.5,38.7 50.5,39.6 50.5,40.5C50.5,41.25717 50.5,42.15267 50.5,43.016C50.5,43.97917 50.5,44.9 50.5,45.8045C50.5,46.66667 50.5,47.5 50.5,48.4785C50.5,49.29867 50.5,50.2 50.5,51.1C50.5,52 50.5,52.9 50.5,53.8045C50.5,54.66667 50.5,55.5 50.5,56.47867C50.5,57.25267 50.5,58.15267 50.5,59.016C50.5,60 50.5,60.82133 50.5,61.67467C50.5,62.616 50.5,63.384 50.5,64.32533C50.5,65.33334 50.5,66.1955 50.5,67.02084C50.5,67.984 50.5,68.84734 50.5,69.74284C50.5,70.7 50.5,71.60017 50.5,72.38533C50.5,73.336 50.46943,74.10194 50.5045,75.1C50.53265,75.90124 50.79116,76.89748 51,77.5C51.34521,78.49596 51.42426,79.30853 51.584,80.1C51.78885,81.115 52.23018,81.88143 52.41467,82.89867C52.55188,83.6553 52.5,84.61467 52.5,85.5C52.5,86.3 52.0873,87.32343 52.55717,88.14283C52.9516,88.83067 53.47463,89.5004 53.5,90.3C53.5286,91.20135 54.16286,91.92635 54.41467,92.7C54.69447,93.55965 54.5,94.5 54.5,95.3C54.5,96.2 54.10178,97.20258 54.536,98.064C54.88828,98.76288 55.49933,99.30133 55.5,100.2C55.50067,101.1 55.5,102 55.5,102.9C55.5,103.8 55.5,104.7 55.5,105.6C55.5,106.5 55.09726,107.43642 55.58533,108.21467C56.04967,108.95507 56.5,109.5 56.5,110.3C56.5,111.2 56.5,112.1 56.5,113C56.5,113.9 56.5,114.8 56.5,115.7C56.5,116.6 56.5,117.5 56.5,118.3C56.5,119.2 56.67806,120.122 56.47917,121C56.26117,121.96234 55.56089,122.59388 55.5,123.5C55.44637,124.2982 55.12936,124.92899 54.6215,125.7215C54.14297,126.46821 54.2924,127.47412 53.92533,128.10001C53.47286,128.87154 53.06713,129.75122 52.66667,130.5C52.24339,131.29144 51.66739,131.84714 51.14734,132.44733C50.58099,133.10094 50.02349,133.73112 49.62133,134.60001C49.31493,135.26202 49.01746,136.1539 48.52533,136.88933C48.07734,137.55881 47.50663,138.1277 47.07467,138.89999C46.61709,139.71808 46.00946,140.31046 45.52533,140.936C44.94814,141.68181 44.76313,142.5369 44.416,143.3C44.02742,144.15427 43.63443,144.90987 43.4955,145.8C43.36768,146.61896 42.64818,147.26862 42.5045,148.2C42.36728,149.08949 42.56439,149.93135 42.2785,150.82167C42.0401,151.56407 41.67763,152.17853 41.3,153.18666C40.98215,154.0352 40.79019,154.65878 40.5,155.66667C40.18947,156.74519 40.00846,157.48161 39.8,158.19017C39.51167,159.17018 39.2161,159.99287 38.9,160.67867C38.42399,161.7114 37.99946,162.49973 37.7,163.10001C37.2036,164.09506 36.74022,164.81198 36.55717,165.74283C36.3914,166.58577 36.5,167.5 36.5,168.3C36.5,169.2 36.5,170.10001 36.5,171C36.5,171.89999 36.5,172.8 36.5,173.7C36.5,174.60001 36.5,175.5 36.5,176.3C36.5,177.2 36.1018,178.20258 36.536,179.064C36.88828,179.76288 37.30372,180.33583 37.55717,181.2C37.8145,182.07742 38.30464,182.81984 38.50134,183.69867C38.66973,184.45107 39.48199,184.93544 39.5,185.8C39.51874,186.6998 39.25576,187.73216 39.784,188.416C40.26871,189.04349 40.49992,189.8 40.5,190.7C40.50008,191.59984 41.00781,192.10864 41.44283,192.85716C41.86731,193.58754 41.5,194.60001 41.5,195.5C41.5,196.3 41.5,197.2 41.5,198.10001C41.5,199 41.5,199.89999 41.5,200.8C41.5,201.7 41.5478,202.60127 41.5,203.5C41.45727,204.30341 40.75521,205.03772 40.536,205.89999C40.31402,206.77313 40.16311,207.53125 39.784,208.3C39.36719,209.14522 39.50533,210.10002 39.5,211C39.49467,211.90004 39.05766,212.6118 38.66667,213.5C38.37717,214.15764 38.5,215.10001 38.5,216.02083C38.5,216.98534 38.51269,217.71074 38.49983,218.7C38.48943,219.5002 38.35863,220.50874 38.07467,221.28934C37.80753,222.02365 37.51042,222.99983 37.5,223.98534C37.49233,224.71062 37.5,225.7 37.5,226.5C37.5,227.5 37.34869,228.32678 37.66667,229.33333C37.8912,230.04407 38.42831,230.81633 38.48933,231.67467C38.5559,232.61104 39.0485,233.16928 39.44283,233.85716C39.91483,234.68054 39.5,235.66667 39.5,236.52083C39.5,237.5 39.5,238.3 39.5,239.10001C39.5,240.10899 39.5,240.772 39.5,241.83333C39.5,242.80533 39.5,243.5 39.5,244.19467C39.5,245.457 39.5,246.228 39.5,247.09734C39.5,248.0955 39.5,248.84283 39.5,249.864C39.5,250.8 39.34066,251.79788 39.85266,252.44733C40.33721,253.06195 40.5,253.8 40.5,254.7C40.5,255.60001 40.47614,256.50037 40.5,257.29999C40.52859,258.25845 40.88155,259.14111 41.14734,259.84732C41.4795,260.72989 41.5,261.70001 41.5,262.60001C41.5,263.5 41.5,264.29999 41.5,265.13599C41.5,266.15717 41.5,266.90451 41.5,267.89868C41.5,268.664 41.5,269.61465 41.5,270.60001C41.5,271.5 41.5,272.29999 41.5,273.20001C41.5,274.10001 41.5,275 41.5,275.89999C41.5,276.79999 41.5,277.70132 41.5,278.66666C41.5,279.32535 41.5,280.33334 41.5,281.1955C41.5,282.10001 41.5,283 41.5,283.89999C41.5,284.79999 41.5,285.70001 41.5,286.60001C41.5,287.5 41.5,288.29999 41.5,289.20001C41.5,290.10001 41.5,291 41.5,291.89999C41.5,292.79999 41.5,293.70001 41.5,294.60001L41.5,295.5L41.5,296.29999" id="svg_46" stroke-width="3" stroke="#000" fill="none"/>
  <path t="291169,291509,291509,291533,291563,291587,291628,291681,291721,291759,291789,291789,291821,291844,291862,291883,291898,291915,291953,292001,292047,292079,292117,292149,292149,292163,292187,292203,292219,292241,292261,292278,292297,292297,292319,292343,292367,292383,292405,292444,292444,292461,292478,292494,292512,292528,292545,292562,292562,292578,292578,292578,292594,292594,292594,292611,292611,292628,292628,292645,292663,292687,292717,292741,292762,292778,292794,292794,292812,292828,292849,292873,292897,292918,292943,292943,292967,292983,292997,293021,293043,293061,293078,293095,293111,293131,293145,293161,293178,293195,293211,293228,293228,293245,293262,293278,293295,293317,293317,293341,293363,293387,293427,293443,293444,293461,293478,293497,293519,293543,293561,293578,293578,293597,293613,293629,293653,293674,293695,293711,293727,293727,293744,293761,293761,293777,293777,293795,293815,293827,293827,293844,293862,293878,293878,293895,293895,293912,293912,293912,293928,293928,293944,293944,293962,293962,293978,293978,293994,294011,294028,294028,294048,294062,294078,294097,294119,294143,294161,294161,294183,294195,294213,294243,294261,294278,294294,294311,294328,294345,294345,294361,294377,294394,294411,294431,294454,294471,294471,294486,294501,294517,294528,294545,294561,294561,294578,294578,294595,294595,294612,294612,294612,294628,294628,294628,294628,294644,294644,294645,294661,294661,294678,294678,294694,294695,294711,294711,294727,294744,294744,294760,294760,294778,294795,294811,294828,294845,294845,294861,294878,294878,294895,294895,294911,294927,294927,294945,294961,294984,295009,295027,295045,295062,295063,295077,295095,295111,295133,295146,295161,295177,295194,295211,295228,295244,295261,295305,295319,295335,295351,295361,295394,295412,295428,295445,295461,295478,295499,295511,295530,295552,295594,295611,295631,295647,295647,295662,295687,295701,295725,295749,295749,295771,295803" d="M45.5,293.5C46.5,292.5 46.5,291.70001 46.5,290.79999C46.5,289.89999 46.5,289 46.5,288.10001C46.5,287.20001 46.5,286.29999 46.5,285.39999C46.5,284.5 46.5,283.70001 46.5,282.79999C46.5,281.89999 46.49774,281 46.5,280.10001C46.50225,279.2045 47.17052,278.69315 47.47917,277.97916C47.82811,277.17197 47.5,276.20001 47.5,275.29999C47.5,274.39999 47.5,273.5 47.5,272.70001C47.5,271.79999 47.5,270.89999 47.5,270C47.5,269.10001 47.49992,268.20001 47.5,267.29999C47.50008,266.39999 47.74213,265.54623 48.14734,264.79999C48.56062,264.03888 48.5,263.10001 48.5,262.20001C48.5,261.29999 48.5,260.39999 48.5,259.5C48.5,258.70001 48.5,257.79999 48.5,256.89999C48.5,256 48.5,255.10001 48.5,254.2C48.5,253.3 48.5,252.39967 48.5,251.68567C48.5,250.72934 48.5,249.95833 48.5,249.09734C48.5,247.90134 48.5,247.31067 48.5,246.45717C48.5,245.42166 48.5,244.54167 48.5,243.5215C48.5,242.70134 48.5,241.8 48.5,240.89999C48.5,240 48.5,239.10001 48.5,238.2C48.5,237.3 48.5,236.39999 48.5,235.5C48.5,234.7 48.5,233.8 48.5,232.89999C48.5,232 48.50067,231.10001 48.5,230.2C48.49933,229.3 48.19915,228.44917 47.85266,227.8C47.39931,226.95062 47.5,226 47.5,225.10001C47.5,224.2 47.65934,223.20212 47.14734,222.55267C46.66279,221.93805 46.5,221.2 46.5,220.3C46.5,219.39999 46.17764,218.34621 46.72133,217.62134C47.20364,216.97832 47.5,216.3 47.5,215.39999C47.5,214.5 47.60608,213.71188 48,213C48.49025,212.11403 48.49992,211.2 48.5,210.3C48.50008,209.39999 48.62429,208.72256 49.07467,207.89999C49.50194,207.11961 49.39305,206.19347 49.50134,205.3C49.61281,204.38023 50.30987,203.84592 50.48933,202.89999C50.6571,202.01572 50.5,201.10001 50.5,200.2C50.5,199.3 50.31865,198.34653 50.66667,197.5C50.94256,196.82892 51.48958,196.00018 51.5,195.10001C51.51041,194.20006 51.5,193.3 51.5,192.39999C51.5,191.5 51.89479,190.87527 52.33333,190.16667C52.78916,189.43015 52.46665,188.3847 52.5,187.5C52.5286,186.74121 52.88748,185.8611 53.14734,185.15266C53.51403,184.15295 53.33723,183.24313 53.72133,182.39999C54.07667,181.61998 54.49467,180.90004 54.5,179.97917C54.50558,179.01468 54.48731,178.28926 54.50017,177.3C54.51057,176.4998 54.6524,175.49524 54.92533,174.7C55.20164,173.89493 55.44761,173.1024 55.48933,172.3C55.54126,171.30147 55.42434,170.30225 55.72133,169.52133C56.03539,168.69554 56.46121,167.84848 56.4955,167.15266C56.55019,166.04272 57.22767,165.50417 57.44283,164.79016C57.67638,164.01517 57.16776,162.83788 57.52083,162.02083C57.82938,161.30681 58.55362,160.79604 59,160C59.4483,159.20053 59.82612,158.46333 60.216,157.7C60.60054,156.9471 60.6186,156.02437 61.14734,155.44733C61.78076,154.75603 62.43911,154.28477 62.5,153.39999C62.56179,152.50212 62.85674,151.88774 63.416,151.21466C63.972,150.5455 63.9806,149.56175 64.55267,148.85716C65.0548,148.23869 65.6193,147.71931 66.07467,146.89999C66.50918,146.11821 67.00051,145.28119 67.33334,144.5C67.65353,143.74846 67.55449,142.79851 68,142C68.44466,141.203 69.08884,140.65309 69.5,139.95833C69.91277,139.26085 70.13102,138.34444 70.37867,137.52133C70.64614,136.63237 70.86475,135.84158 71.2045,135.03833C71.60888,134.08229 71.91024,133.26994 72.064,132.68933C72.37618,131.51053 72.45448,130.6006 72.47916,130C72.51613,129.10056 72.5,127.90134 72.5,127.31067C72.5,126.45717 72.5,125.42167 72.5,124.54166C72.5,123.52133 72.5,122.74733 72.5,121.84283C72.5,121.0955 72.5,120.10133 72.5,119.15717C72.5,118.25267 72.5,117.33334 72.5,116.5C72.5,115.5215 72.5,114.70133 72.5,113.8C72.5,112.9 72.56062,111.96112 72.14733,111.2C71.74213,110.45377 71.50306,109.69999 71.5,108.74284C71.49712,107.84283 71.51115,107.0774 71.216,106.10133C70.97904,105.3177 70.54272,104.3884 70.5,103.5C70.46158,102.70092 70.5,101.8 70.5,100.9C70.5,100 70.49933,99.1 70.5,98.2C70.50067,97.3 70.78497,96.44044 71.14733,95.8C71.61175,94.97921 72.1887,94.40132 72.584,93.69867C73.0436,92.88173 73.46552,92.10268 74,91.5C74.51661,90.91747 75.1887,90.40132 75.584,89.69867C76.0436,88.88173 76.5417,88.1678 77.07467,87.47467C77.56169,86.84129 77.6628,86.06194 78.14733,85.44733C78.65934,84.79789 78.72655,83.95751 79.37867,83.27866C79.93584,82.69865 80.24947,82.02629 80.5045,81.2045C80.74131,80.44142 81.4401,79.94917 81.85267,79.2C82.31445,78.36145 83.0484,77.83067 83.44283,77.14283C83.9127,76.32343 83.5,75.3 83.5,74.4C83.5,73.5 83.55717,72.8 84,72C84.44283,71.2 84.5,70.3 84.5,69.4C84.5,68.5 84.5,67.7 84.5,66.8L84.5,65.9" id="svg_49" stroke-width="3" stroke="#000" fill="none"/>
  <path t="297628,297681,297697,297710,297728,297745,297745,297762,297762,297779,297779,297795,297795,297810,297810,297829,297846,297846,297862,297877,297895,297915,297915,297931,297931,297947,297962,297978,298001,298017,298045,298061,298078,298078,298094,298126,298126,298144,298144,298161,298178,298194,298195,298211,298227,298227,298244,298261,298281,298305,298305,298313,298351,298375,298397,298397" d="M83.5,66.5C83.5,64.8 83.49467,63.89999 83.5,63C83.50533,62.09995 83.9508,61.23608 84.216,60.52934C84.58815,59.53762 84.49467,58.75071 84.5,57.83333C84.50551,56.88535 84.39301,56.00208 84.55717,55.15267C84.73692,54.22261 85.32175,53.63767 85.464,52.67467C85.61138,51.67685 85.5,50.91067 85.5,50C85.5,49.1 85.5,48.1955 85.5,47.33333C85.5,46.5 85.5,45.5215 85.5,44.70133C85.5,43.8 85.5,42.9 85.5,42C85.5,41.1 85.5,40.2 85.5,39.3C85.5,38.4 85.4628,37.49913 85.5,36.7C85.54272,35.78235 86.32839,35.33159 86.584,34.61333C86.91887,33.67234 87.15919,32.9654 87.5,32.02083C87.80321,31.18047 88.29453,30.3696 88.584,29.7C88.96865,28.81023 89.24718,27.96971 89.55267,27.20983C89.86338,26.43694 91.06911,26.16449 91.3785,25.4C91.7192,24.55816 91.10705,23.56964 91.58533,22.78533C92.07541,21.9817 92.50017,21.4 92.66666,20.5L93.07467,19.9" id="svg_50" stroke-width="3" stroke="#000" fill="none"/>
  <path t="299001,299123,299144,299161,299177,299177,299194,299194,299195,299211,299227,299246,299271,299294,299310,299310,299327,299344,299364,299387,299411,299434,299435,299444,299476,299494,299494,299513,299534,299558,299578,299594,299610,299628,299645,299661,299678,299694,299711,299728,299728,299745,299761,299777,299794,299811,299811,299828,299847,299870,299894,299911,299927,299927,299944,299964,299986,300027,300045,300061,300061,300081,300121,300143,300143,300167,300183,300205,300213,300229,300253,300262,300278,300298,300315,300329,300345,300361,300378,300395,300417,300439,300439,300476,300495,300511,300541,300565,300595,300595,300627,300649,300665,300689,300713,300727,300727,300744,300761,300761,300782,300807,300837,300869,300890,300891,300911,300929,300944,300961,300977,301009,301044,301063,301087,301109,301127,301145,301145,301162,301177,301195,301212,301212,301235,301259,301281,301281,301305" d="M96.5,22.5C96.5,24.2 96.59904,25.20853 96.47916,26.02083C96.33316,27.01023 95.88934,27.71067 95.5,28.5C95.11066,29.28933 94.66548,29.98957 94.52084,30.97917C94.38763,31.89055 94.5,32.8 94.5,33.7C94.5,34.6 94.66815,35.53644 94.41467,36.3C94.15833,37.07216 93.51801,37.89946 93.5,38.8C93.48201,39.69982 93.5,40.6 93.5,41.5C93.5,42.3 93.1855,42.88715 92.66666,43.66667C92.19579,44.37413 92.5,45.3 92.5,46.2C92.5,47.1 92.8099,48.05972 92.48933,48.88933C92.18295,49.68225 91.50225,50.20449 91.5,51.1C91.49774,52 91.5,52.9 91.5,53.8C91.5,54.7 91.5,55.6 91.5,56.5C91.5,57.3 91.68374,58.2265 91.464,59.1C91.24694,59.96283 90.56088,60.59388 90.5,61.5C90.44637,62.2982 90.68374,63.2265 90.464,64.1C90.24694,64.96282 89.54272,65.69697 89.5,66.6C89.45747,67.49899 89.5,68.3 89.5,69.2C89.5,70.1 89.64209,71.01299 89.48933,71.9C89.34586,72.73314 88.62271,73.49216 88.50134,74.3C88.36482,75.20856 87.58374,75.6543 87.5,76.5C87.42117,77.29611 87.44283,78.2 87,79C86.55717,79.8 86.65934,80.79789 86.14733,81.44733C85.6628,82.06194 85.48933,82.88934 85,83.5C84.51067,84.11066 84.3559,84.86845 83.85267,85.55267C83.36267,86.21888 83.51041,87.20006 83.5,88.1C83.48958,89.00018 82.99949,89.7188 82.66666,90.5C82.34647,91.25154 82.51041,92.20006 82.5,93.1C82.48958,94.00018 81.9568,94.7033 81.6215,95.6C81.30341,96.45064 81.5,97.3 81.5,98.2C81.5,99.1 81.50225,100 81.5,100.9C81.49775,101.80001 81.11884,102.64082 80.784,103.3C80.38565,104.08418 80.5,105.15266 80.5,105.84734C80.5,106.864 80.5,107.8 80.5,108.7C80.5,109.6 80.5,110.5 80.5,111.3C80.5,112.2 80.29977,112.90079 79.784,113.584C79.31944,114.19935 79.5,115.2 79.5,116.1C79.5,117 79.5,117.9 79.5,118.8C79.5,119.7 79.5,120.6 79.5,121.5C79.5,122.3 79.5,123.2 79.5,124.1C79.5,125.02084 79.5,125.984 79.5,126.67467C79.5,127.74284 79.5,128.60001 79.5,129.5L79.5,130.3L79.5,131.2" id="svg_51" stroke-width="3" stroke="#000" fill="none"/>
  <path t="302070,302139,302169,302209,302209,302228,302228,302247,302271,302287,302294,302317,302340,302362,302378,302378,302393,302410,302428,302444,302481,302497,302511,302529,302551,302575,302594,302611,302847,302847,302863,302879,302895,302895,302917,302940,302965,302981,302981,303003,303011,303060,303077,303077,303094,303094,303111,303111,303128,303144,303160,303160,303178,303178,303194,303211,303228,303245,303261,303261,303261,303277,303294,303311,303327,303327,303344,303363,303378,303401,303424,303447,303471,303479,303495,303525,303548,303573,303573,303595,303610,303627,303651,303673,303673,303697,303721,303743,303767,303767,303790,303811,303828,303844,303861,303885,303885,303907,303928,303947,303961,303985,304009,304009,304033,304063,304087,304117,304141,304165,304187,304211,304211,304227,304243,304265,304281,304293,304310,304328,304328,304345,304345,304361,304378,304395,304411,304427,304444,304462,304462,304478,304499,304499,304515,304528,304545,304545,304561,304578,304578,304594,304594,304594,304610,304610,304610,304633,304633,304647,304661,304678,304694,304710,304727,304727,304745,304760,304760,304777,304794,304811,304828,304844,304860,304878,304895,304911,304928,304944,304991,305015,305060" d="M71.5,146.5C70.6215,147.7215 70.53391,148.60065 70.5,149.5C70.4714,150.25879 70.11252,151.1389 69.85267,151.84734C69.48598,152.84705 69.66699,153.8159 69.49866,154.69867C69.35425,155.45604 68.51865,155.93546 68.5,156.8C68.48059,157.69978 68.19916,158.55084 67.85267,159.2C67.39931,160.04938 67.41051,160.91737 66.92533,161.52533C66.42696,162.14983 66.8982,163.20258 66.464,164.064C66.11172,164.76288 65.51863,165.30153 65.5,166.2C65.48132,167.10052 64.8871,167.81209 64.58533,168.7C64.32645,169.46175 64.5,170.3 64.5,171.2C64.5,172.136 64.5,172.98399 64.5,173.84734C64.5,174.864 64.5,175.7 64.5,176.60001C64.5,177.5 64.52724,178.30042 64.5,179.2C64.47141,180.14413 63.58374,180.6543 63.5,181.5C63.42539,182.25348 63.55282,183.16344 63.44283,183.9045C63.29313,184.91316 62.96494,185.67918 62.584,186.61333C62.25012,187.43208 61.64471,188.0824 61.44733,188.85184C61.21337,189.7639 60.60863,190.22165 60.02083,191C59.46359,191.73788 59.57425,192.73854 59.14734,193.45633C58.69658,194.2142 58.51152,195.02063 58.50134,195.73334C58.48569,196.8279 58.5,197.7 58.5,198.60001C58.5,199.5 58.5,200.3 58.5,201.2C58.5,202.10001 58.5,203 58.5,203.89999C58.5,204.8 58.5,205.7 58.5,206.60001C58.5,207.5 58.05386,208.04758 57.58533,208.78534C57.14621,209.47681 57.5,210.5 57.5,211.3C57.5,212.2 57.50242,213.11987 57.07467,213.89999C56.62346,214.7229 56.19915,215.55083 55.85266,216.2C55.39931,217.04938 55.55291,218.03474 55.14734,218.8C54.69904,219.64589 54.50067,220.3 54.5,221.2C54.49933,222.10001 54.54639,223.03334 54.07467,223.89999C53.676,224.63242 53.5,225.5 53.5,226.3C53.5,227.2 53.5,228.10001 53.5,229C53.5,229.89999 53.63654,230.85664 53.216,231.7C52.88607,232.36165 52.50225,233.19998 52.5,234.10001C52.49775,235 52.5,235.89999 52.5,236.8C52.5,237.7 52.5,238.60001 52.5,239.5C52.5,240.3 52.5,241.2 52.5,242.10001C52.5,243 52.5,243.89999 52.5,244.8C52.5,245.70134 52.5,246.66667 52.5,247.32533C52.5,248.33333 52.5,249.1955 52.5,250.10001C52.5,251 52.5,251.89999 52.5,252.8C52.5,253.7 52.5,254.60001 52.5,255.5C52.5,256.29999 52.53621,257.13678 52.4955,258.15268C52.46761,258.84875 51.91222,259.78604 51.6215,260.60001C51.31604,261.45526 51.60008,262.31036 51.464,263.13599C51.3199,264.01028 50.86238,264.73126 50.66667,265.66666C50.50414,266.44345 50.50533,267.27463 50.5,268.33334C50.49531,269.26401 50.5,270.09866 50.5,271.09549C50.5,271.84283 50.75273,272.90024 50.4955,273.7955C50.27486,274.56342 49.51042,275.02066 49.5,275.91068C49.48934,276.82126 49.5,277.67465 49.5,278.61465C49.5,279.5 49.5,280.29999 49.5,281.20001C49.5,282.10001 49.5,283 49.5,283.89999C49.5,284.79999 49.5,285.70001 49.5,286.60001C49.5,287.5 49.95033,288.04492 50.41467,288.78534C50.90274,289.5636 50.5,290.60001 50.5,291.5L50.66667,292.33334" id="svg_52" stroke-width="3" stroke="#000" fill="none"/>
 </g>
</svg>