<svg width="500" height="333.3333333333333" xmlns="http://www.w3.org/2000/svg" xmlns:svg="http://www.w3.org/2000/svg" xmlns:xlink="http://www.w3.org/1999/xlink">
 <!-- Created with SVG-edit - http://svg-edit.googlecode.com/ -->
 <g display="inline" class="layer">
  <title>Layer 1</title>
  <path t="0,173,182,237,253,301,333,357,357,373,413,453,485,493,495,502,597,621,677,685,685,701,733,765,773,789,789,805,821,821,837,917,933,933,949,988,1005,1021,1021,1085,1085,1109,1125,1125,1125,1222,1237,1237,1245,1253,1261,1261,1269,1285,1325,1325,1365,1388,1396,1405,1405,1413,1429,1453,1517,1517,1541,1541,1557,1585,1585,1597,1597,1613,1613,1636,1645,1645,1661,1677,1677,1685,1693,1709,1709,1717,1725,1741,1750,1765,1812,1829,1845,1845,1893,1909,1925,1957,1973,1973,1982,1989,2301,2541,2541,2676,2749,2757,2765,2812,2821,2836,2837,2845,2861,2862,2877,2917,2941,2964,2964,2988,3004,3005,3028,3029,3086,3133,3157,3157,3165,3181,3212,3229,3229,3237,3245,3261,3261,3261,3277,3277,3300,3333,3349,3356,3365,3381,3381,3389,3389,3405,3493,3493,3500,3501,3540,3589,3636,3637,3652,3661,3669,3678,3678,3693,3693,3701,3710,3717,3732,3733,3748,3757,3768,3828,3852,3892,3917,3980,3981,4148,4149,4172,4260,4269,4285,4364,4365,4372,4397,4541,4541,4572,4573,4588,4612,4620,4621,4628,4637,4637,4653,4661,4676,4708,4756,4772,4780,4781,4796,4812,4836,4860,4892,4956,5004,5140,5156,5165,5180,5204,5372,5373,5420,5484,5500,5501,5508,5517,5518,5525,5543,5612,5613,5628,5684,5700,5708,5724,5733,5733,5749,5757,5765,5765,5765,5783,5790,5790,5820,5820,5844,5844,5868,5884,5892,5901,5909,5917,5917,5941,5954,5957,5961,5988,6012,6020,6036,6045,6053,6053,6061,6068,6077,6077,6092,6100,6117,6125,6125,6132,6141,6149,6157,6180,6228,6229,6244,6292,6324,6356,6388,6388,6404,6429,6429,6460,6461,6492,6542,6604,6605,6620,6621,6644,6652,6660,6668,6677,6685,6685,6700,6709,6724,6725,6725,6733,6741,6764,6765,6804,6828,6845,6845,6852,6853,6861,6884,6885,6924,6940,6941,6991,7014,7029,7030,7047,7077,7077,7085,7094,7102,7149,7150,7165,7181,7237,7237,7261,7277,7294,7333,7350,7358,7358,7366,7373,7390,7477,7669,8139,8813,8813,8829,8829,8846,8870,8885,8917,8917,8917,8933,8933,8949,8949,8989,9029,9029,9029,9053,9053,9062,9078,9086,9095,9117,9133,9157,9165,9166,9173,9173,9181,9190,9190,9205,9221,9229,9229,9231,9245,9245,9261,9269,9269,9270,9277,9285,9301,9301,9302,9310,9310,9318,9318,9333,9349,9349,9365,9389,9397,9413,9422,9422,9429,9453,9453,9461,9461,9477,9494,9517,9517,9526,9526,9533,9542,9549,9550,9558,9558,9565,9566,9566,9575,9581,9582,9613,9622,9622,9638,9638,9645,9645,9654,9661,9662,9678,9685,9685,9701,9709,9717,9718,9726,9727,9733,9749,9749,9758,9765,9781,9797,9806,9814,9853,9893,9893,9909,9919,9919,9933,9949,9965,9981,9997,9997,10021,10037,10085,10086,10109,10117,10141,10322,10429,10461,10517,10517,10645,10765,10765,10837,10837,10877,10893,10893,10917,10949,10965,11109,11269,11325,11333,11334,11341,11342,11350,11359,11359,11366,11381,11381,11382,11412,11412,11477,11501,11549,11557,11558,11589,11589,11613,11613,11621,11621,11630,11638,11654,11661,11709,11733,11749,11773,11813,11813,11877,11887,11887,11903,11909,11917,11926,11936,11945,11951,11952,11973,11989,11989,11998,12013,12022,12022,12045,12045,12093,12104,12110,12118,12133,12134,12181,12182,12198,12277,12277,12301,12317,12453,12453,12469,12503,13594,14261,14389,14405,14445,14501,14501,14509,14509,14525,14613,14637,14677,14687,14701,14709,14725,14725,14741,14789,14813,14813,14821,14837,14861,14861,14909,14933,14933,14942,15013,15021,15061,15109,15109,15117,15125,15126,15141,15142,15149,15149,15158,15158,15174,15181,15269,15269,15269,15309,15309,15381,15405,15405,15413,15421,15422,15438,15446,15453,15462,15478,15479,15486,15517,15541,15565,15605,15653,15661,15685,15701,15717,15725,15778,15837,15957,15973,16021,16061,16061,16085,16105,16157,16157,16213,16213,16229,16253,16317,16357,16405,16429,16429,16525,16614,16614,16677,16709,16718,16718,16749,16758,16797,16797,16869,16872,16872,17093,17133,17181,17181,17205,17357,17461,17509,17541,17541,17597,17620,17637,17701,17701,17710,17725,17821,17829,17869,17917,17933,17962,17965,18005,18021,18037,18037,18053,18062,18062,18085,18117,18197,18269,18388,18397,18398,18416,18437,18477,18509,18517,18517,18525,18536,18536,18550,18550,18551,18557,18557,18580,18581,18596,18613,18653,18669,18678,18679,18685,18685,18694,18694,18702,18717,18717,18717,18749,18749,18750,18781,18789,18797,18798,18820,18830,18831,18853,18863,18863,18885,18885,18909,18909,18918,18918,18926,18941,18942,18949,18950,18957,18966,18981,18981,18999,18999,19006,19022,19037,19037,19038,19048,19054,19054,19056,19066,19077,19085,19094,19095,19101,19102,19112,19117,19125,19126,19126,19133,19134,19141,19141,19149,19157,19158,19158,19165,19165,19173,19174,19181,19189,19197,19197,19205,19206,19221,19221,19236,19253,19284,19301,19301,19309,19310,19317,19325,19326,19334,19341,19341,19342,19350,19351,19351,19351,19365,19365,19373,19374,19396,19412,19413,19421,19437,19446,19446,19453,19453,19462,19462,19469,19480,19480,19485,19500,19501,19532,19533,19557,19557,19580,19581,19589,19589,19596,19597,19645,19653,19654,19662,19662,19678,19685,19686,19693,19693,19694,19701,19716,19733,19757,19757,19789,19797,19797,19805,19821,19828,19845,19846,19847,19917,19917,19927,19927,19933,19934,19941,19941,19951,19951,19957,19996,20036,20037,20061,20061,20070,20092,20101,20101,20112,20133,20149,20154,20165,20196,20205,20205,20213,20230,20242,20245,20261,20269,20309,20317,20389,20405,20429,20460,20524,20556,20557,20580,20620,20621,20660,20661,20700,20724,20725,20740,20741,20772,20773,20844,20876,20877,20948,20958,21172,21173,21196,21206,21213,21221,21239,21244,21254,21267,21268,21271,21286,21302,21325,21372,21428,21460,21461,21476,21477,21620,21644,21652,21661,21669,21685,21685,21702,21836,21900,21933,22044,22045,22053" d="M269.5,65.66666C269.5,63.96667 269.81451,63.27953 270.33334,62.5C270.80423,61.79255 270.85663,61.05433 271.41599,60.38133C271.97202,59.71232 272.43936,59.18626 273.14282,58.614C273.76083,58.11127 274.26697,57.35865 274.85266,56.71933C275.38699,56.13608 275.58362,55.22078 276.41467,54.752C277.11371,54.35769 277.9631,54.09311 278.79999,53.71933C279.57202,53.37453 279.96149,52.71148 280.55267,52.02383C281.11917,51.36491 282.0083,51.18106 282.79999,50.71483C283.60876,50.23855 283.9628,49.36587 284.70001,48.836C285.40457,48.32958 286.20084,48.02121 287,47.66667C287.80081,47.31138 288.42841,46.57919 289.10001,46.10267C289.82568,45.58778 290.50327,45.17019 291.11066,44.60534C291.80371,43.96083 292.14795,43.27804 292.70001,42.552C293.25073,41.82775 293.87463,41.21823 294.66666,40.66667C295.29904,40.22627 296.06149,39.9263 296.86401,39.26667C297.64859,38.62177 298.15244,37.87391 299,37.6875C299.87952,37.49406 300.71548,37.39881 301.29999,36.86533C302.01968,36.20845 302.8526,35.83575 303.70001,35.38267C304.35199,35.03408 305.22809,34.85732 306.10001,34.63067C306.96567,34.40565 307.52213,33.46578 308.20001,33.02383C308.93393,32.54537 309.70328,32.12347 310.60001,31.78817C311.45065,31.47009 312.25885,31.60665 312.79999,30.96133C313.36676,30.28545 314.13577,29.67733 314.98267,29.66667C315.7901,29.6565 316.82333,29.47848 317.52084,29.16667C318.3226,28.80825 318.98694,28.37971 319.7215,27.788C320.36792,27.26729 321.17798,26.96283 322.02084,26.66667C322.80429,26.39138 323.71857,26.13877 324.33066,25.468C324.9476,24.79191 325.63837,24.28059 326.29999,23.95067C327.14337,23.53011 328.10001,23.66667 329,23.66667C329.89999,23.66667 330.79999,23.66667 331.70001,23.66667C332.60001,23.66667 333.5,23.66667 334.29999,23.66667C335.20001,23.66667 336.11966,23.49934 337,23.6875C337.84863,23.86889 338.42841,24.75415 339.10001,25.23067C339.82568,25.74556 340.3829,26.2527 340.85718,26.96667C341.38303,27.75831 342.12122,28.19129 342.88934,28.63067C343.51437,28.9882 343.06454,29.64866 342.20001,29.66667C341.30017,29.68541 340.39999,29.66667 339.5,29.66667C338.70001,29.66667 337.74283,29.66667 336.84732,29.66667C335.98401,29.66667 335.02084,29.66667 334.20001,29.66667C333.29999,29.66667 332.39984,29.66667 331.61465,29.66667C330.67465,29.66667 329.66666,29.66667 328.87466,29.66667C328.01599,29.66667 327.15268,29.66586 326.13599,29.66667C325.29999,29.66734 324.45544,29.97771 323.70001,30.38267C322.94403,30.78791 322.15427,31.19408 321.29999,31.58267C320.5369,31.92978 320.04944,32.48589 319.47467,33.23067C318.98843,33.86073 317.99493,34.21526 317.5,34.70833C316.96002,35.24628 316.32532,36.03321 315.94666,36.83067C315.51074,37.74866 315.05276,38.41764 314.52533,39.10267C314.02295,39.75518 313.28671,40.18441 312.66666,40.83333C312.13995,41.38454 312.19635,42.34905 311.69867,43.18267C311.24683,43.93949 310.56192,44.74426 309.97916,45.14583C309.24261,45.65338 308.18225,45.47023 307.52084,46.1875C306.93378,46.82416 306.57538,47.75956 305.89999,48.23067C305.16641,48.74236 304.18253,48.49277 303.29999,48.66933C302.45117,48.83915 302.1886,49.86584 301.39999,50.42367C300.79578,50.85107 299.79904,50.72212 299,51.16667C298.19907,51.61228 297.46875,52.00357 296.70001,52.38267C295.85477,52.79949 295.10901,52.85157 294.50134,53.38267C293.99335,53.82666 292.89066,53.4993 292.2045,54.02383C291.45428,54.59732 291.5,55.66667 291.5,56.42383C291.5,57.31933 291.15564,58.25607 291.52084,59.125C291.82794,59.85569 292.38382,60.38279 292.53601,61.30267C292.68024,62.17433 293.19965,62.80513 293.41467,63.78133C293.62741,64.74722 293.54913,65.79308 294.14667,66.23067C294.87848,66.76661 295.78888,66.7211 296.51468,67.24133C297.14557,67.69354 297.97098,67.98334 298.84732,68.314C299.73093,68.64741 300.53665,68.9928 301.29999,69.38267C302.05289,69.76721 303,69.66666 303.89999,69.66666C304.79999,69.66666 305.70001,69.66666 306.60001,69.66666C307.5,69.66666 308.29999,69.66666 309.20001,69.66666C310.10001,69.66666 311.06772,69.55753 311.7955,70.01933C312.61002,70.53616 313.30133,70.66666 314.20001,70.66666C315.10001,70.66666 316,70.66666 316.89999,70.66666C317.79999,70.66666 318.75729,70.50298 319.60001,70.888C320.26932,71.1938 321.09995,71.66133 322.02084,71.66666C322.82132,71.6713 323.67465,71.66666 324.61465,71.66666C325.60016,71.66666 326.39151,71.76335 327.31467,71.656C328.27399,71.54443 328.54819,70.54859 329.11066,70.10267C329.87976,69.49294 330.89999,69.66666 331.79999,69.66666C332.70001,69.66666 333.60001,69.66666 334.5,69.66666C335.29999,69.66666 336.23065,69.67123 336.91068,70.10267C337.70709,70.60796 338.34421,71.03574 339.01599,71.46667C339.89038,72.02757 340.56763,72.80397 341.13599,73.26667C341.94159,73.92252 342.69888,74.22965 343.47849,74.7665C344.11035,75.20161 345.10855,75.48674 345.7955,76.02383C346.5394,76.60544 346.83496,77.39468 347.41733,77.952C348.11765,78.62222 348.72589,78.95984 349.25699,79.76667C349.76953,80.54534 349.53458,81.51913 350,82.16666C350.54312,82.92233 350.87152,83.59263 351.5,84.16666C352.09314,84.70844 352.45886,85.52821 352.5,86.5C352.53201,87.25618 353.0274,88.01241 353.41599,88.86667C353.76312,89.62978 354.29514,90.32036 354.47916,91.16666C354.6705,92.04665 355.00052,92.88546 355.33334,93.66666C355.65353,94.41821 355.31628,95.39317 355.53601,96.26667C355.75305,97.12949 356.45728,97.86364 356.5,98.76667C356.54251,99.66566 356.51801,100.46685 356.5,101.36667C356.48199,102.26721 355.9726,103.01241 355.58401,103.86667C355.23688,104.62978 354.79663,105.3678 354.20001,105.96667C353.50131,106.66798 352.86337,107.13084 352.58533,108.15067C352.40262,108.82089 352.5,109.9095 352.5,110.76667C352.5,111.66666 352.46045,112.4249 352.50449,113.31934C352.54712,114.1854 353.11719,114.94479 353.41467,115.86667C353.69226,116.72688 353.94476,117.40572 354.44733,118.02383C355.0202,118.72842 355.3909,119.38988 355.97916,120.16666C356.54111,120.9087 356.63461,121.84737 356.936,122.492C357.26694,123.19979 357.99091,123.97473 358.41599,124.86667C358.8248,125.72452 359.32977,126.10381 360.064,126.692C360.66797,127.17584 360.7449,128.1712 361.11066,128.84134C361.64182,129.81458 362.23959,130.4565 362.52533,131.30267C362.80899,132.14264 363.10892,132.82961 363.41599,133.78133C363.69852,134.65703 364.14545,135.36751 364.5,136.16667C364.85529,136.9675 365.59106,137.59254 366.064,138.26666C366.5722,138.99107 366.82913,139.81131 367.216,140.468C367.70309,141.29485 368.07364,142.12973 368.44733,142.96666C368.79208,143.73882 369.17432,144.48405 369.52533,145.26666C369.89334,146.08717 370.70834,146.68398 371.14282,147.36667C371.60876,148.0988 371.5,149.06667 371.5,149.96666C371.5,150.86667 371.5,151.76666 371.5,152.66667C371.5,153.46666 371.5,154.36667 371.5,155.26666C371.5,156.16667 371.5,157.06667 371.5,157.96666C371.5,158.86534 371.31766,159.57993 370.61334,159.752C369.64963,159.98744 369.0116,160.42882 368.48532,161.26666C368.0094,162.02434 367.17917,162.40692 366.5,163C365.84692,163.57028 365.71234,164.27563 365.20001,165.26216C364.80933,166.01443 364.3183,166.79761 363.79999,167.36217C363.12323,168.09933 362.45746,168.81033 362.11066,169.50267C361.73819,170.2462 361.78549,171.33116 361.41599,172.09599C361.05194,172.8495 360.92859,173.62135 360.41467,174.38133C359.96338,175.04872 358.75873,175.21025 358.53601,176.06667C358.3082,176.94273 358.5,177.83333 358.5,178.66667C358.5,179.64517 358.50186,180.46533 358.5,181.30267C358.49774,182.31483 358.30704,183.00819 357.784,183.74933C357.34702,184.36855 357.28708,185.41663 356.69867,186.09734C356.13693,186.74721 355.50156,187.1095 355.5,187.85201C355.49774,188.914 355.34128,189.8365 355.07468,190.492C354.79236,191.18613 354.57037,192.25967 354.48932,193.088C354.39923,194.00885 354.06418,194.91428 353.85266,195.66133C353.60938,196.52049 353.5463,197.41623 353.49551,198.31483C353.45111,199.10025 352.64362,199.71718 352.5,200.66667C352.38037,201.45766 352.51041,202.36673 352.5,203.26666C352.48956,204.16685 351.97281,204.8761 351.62149,205.76666C351.36087,206.42735 351.43597,207.45775 350.93201,208.15067C350.401,208.88074 349.64597,209.62048 349.509,210.36217C349.34454,211.25273 348.94833,212.02174 348.66666,212.83333C348.38925,213.63257 348.5,214.64517 348.5,215.46533C348.5,216.36667 348.50177,217.34125 347.79016,217.97116C347.20197,218.49182 346.47412,218.95657 346.02084,219.6875C345.43634,220.63005 345.23434,221.28159 344.79999,222.00951C344.24701,222.93623 343.88632,223.78773 343.41599,224.38133C342.83066,225.12003 342.5,225.83333 342.5,226.492C342.5,227.5 342.51385,228.308 342.216,229.15067C341.90384,230.0338 341.70496,230.97418 341.2785,231.76666C340.91351,232.44495 340.09067,233.05746 339.5,233.66667C338.92679,234.25787 338.51059,235.16649 338.5,236.07733C338.48941,236.98795 338.66653,237.78079 338.05734,238.64517C337.62573,239.25755 336.62256,239.74252 336.5,240.66667C336.39481,241.45972 336.51068,242.36673 336.5,243.26666C336.48956,244.14601 335.72519,244.60327 335.50449,245.37117C335.25711,246.23183 335.54193,247.20689 335.216,248.15067C334.97137,248.85896 334.75122,249.84689 334.33334,250.66667C334.00735,251.30617 332.93683,251.60086 332.47467,252.27733C331.97546,253.00798 331.86716,253.99611 331.16666,254.5C330.48618,254.9895 329.62695,255.13728 329.14734,255.96666C328.72226,256.70175 328.92929,257.62024 328.41467,258.38135C327.96341,259.04877 326.75882,259.20944 326.53601,260.056C326.30777,260.92319 326.5,261.86667 326.5,262.76685C326.5,263.552 326.5,264.492 326.5,265.5C326.5,266.29199 326.60764,267.1647 326.44284,268.01401C326.26321,268.93976 325.78336,269.71307 325.41599,270.46667C325.00937,271.30075 324.09375,271.62228 323.5,272.16666C322.90787,272.70956 322.86646,273.69107 322.2785,274.42383C321.728,275.10992 320.90402,275.36652 320.01599,275.58133C319.17322,275.78519 318.25259,275.65488 317.33334,275.66666C316.52063,275.67709 315.70325,276.13782 315,276.66666C314.29468,277.19708 313.46643,277.29993 312.64316,277.76651C311.9227,278.17484 311.14282,278.66666 310.20001,278.66666C309.29999,278.66666 308.38483,278.57709 307.61465,278.75201C306.81668,278.93326 306.09824,279.37671 305.10132,279.86533C304.5224,280.14908 303.52805,280.60449 302.70132,280.66534C301.80243,280.73151 300.89996,280.66125 300,280.66666C299.1106,280.672 298.6261,281.39227 297.88934,281.65601C297.05197,281.95578 296.08932,281.66666 295.17868,281.66666C294.32535,281.66666 293.33194,281.84506 292.5,281.5C291.71564,281.17468 290.94171,280.97421 290.11066,280.65601C289.36755,280.37146 289.03387,279.29147 288.62134,278.56683C288.16989,277.77386 287.77255,277.17847 287.44733,276.37201C287.13495,275.59738 286.54385,274.95767 286.50134,274.14932C286.44693,273.11411 285.79993,272.68884 285.20001,271.95685C284.72052,271.3718 284.10315,270.48737 283.78534,269.86801C283.35434,269.02805 283.5,268.06668 283.5,267.16666C283.5,266.25601 283.5,265.34534 283.5,264.492C283.5,263.55066 283.5,262.78265 283.5,261.84134C283.5,260.83334 283.50497,260.05634 283.07468,259.26666C282.62561,258.4426 282.47687,257.51193 281.7955,257.02383C281.01492,256.46463 280.02084,256.66666 279.14734,256.66666C278.21466,256.66666 277.04724,256.3356 276.58533,256.952C276.03442,257.68713 276.50446,258.76685 276.5,259.552C276.49466,260.49203 276.45981,261.2034 276,262.14584C275.59183,262.98242 274.96002,263.54178 274.5,264.1875C274.00613,264.88074 273.5,265.6875 273.5,266.42834C273.5,267.31934 273.67551,268.20267 273.47916,269.14584C273.29834,270.01428 272.41068,270.59378 271.936,271.26666C271.41763,272.0015 271.09113,272.79398 270.66666,273.66666C270.29996,274.42059 269.95819,275.14694 269.30133,275.86667C268.76785,276.45117 268.44562,277.36572 268,278.16666C267.55545,278.96573 267.69818,279.82724 267.33334,280.66666C267.0358,281.35123 266.27634,282.08472 265.39984,282.5455C264.78339,282.86957 263.86349,283.39905 263.28934,283.81601C262.5257,284.37057 261.71136,284.60577 260.66666,284.66666C259.9111,284.71069 259.16348,285.21527 258.29868,285.58267C257.38074,285.97266 256.68228,286.14572 255.89867,286.38266C254.92259,286.6778 254.15717,286.6644 253.12534,286.66666C252.17867,286.6687 251.49519,286.76877 250.38533,286.66534C249.48857,286.58179 248.75879,286.12308 248.536,285.26666C248.30922,284.39496 248.5,283.46667 248.5,282.56668C248.5,281.66666 248.5,280.86667 248.5,279.96667C248.5,279.06668 248.5,278.16666 248.5,277.26666C248.5,276.36667 248.57304,275.31647 248.07466,274.69199C247.58948,274.08405 247.5,273.26666 247.5,272.36667C247.5,271.46667 247.54787,270.56555 247.5,269.66534C247.45728,268.86194 247.05949,267.9808 246.51466,267.27734C246.03368,266.65631 245.14816,266.66891 244.136,266.66666C243.2,266.66458 242.28491,266.74155 241.61467,266.58133C240.64246,266.34894 240.00887,265.83145 239.02083,265.6875C238.10939,265.55472 237.2,265.66672 236.3,265.66666C235.39999,265.66656 234.46811,265.54013 233.89999,265.056C233.15463,264.42081 232.46312,263.92981 231.7,263.58267C230.84573,263.19409 230.03593,262.82281 229.3,262.38135C228.62137,261.97424 228.04265,261.1055 227.2,260.71933C226.43126,260.36703 225.7086,259.92633 224.864,259.64133C224.02518,259.35828 223.03333,259.1994 222.5,258.5C222.01379,257.8624 221.23338,257.58191 220.78534,256.86533C220.28618,256.06702 220.48743,255.06889 219.7955,254.614C219.02422,254.10693 218.29297,253.64851 217.85716,252.96666C217.33052,252.14268 216.88708,251.35457 216.58533,250.46666C216.32645,249.70493 216.5,248.86667 216.5,247.96666C216.5,247.06667 216.5,246.16667 216.5,245.26666C216.5,244.36667 216.5,243.46666 216.5,242.56667C216.5,241.66667 216.5,240.71933 216.5,239.83333C216.5,239.02 216.39236,238.16862 216.55716,237.31934C216.73679,236.3936 217.43785,235.5743 217.49867,234.86667C217.57576,233.96997 217.49805,233.04706 217.92534,232.26666C218.37572,231.44409 218.5,230.56667 218.5,229.66667C218.5,228.86667 218.68375,227.94017 218.464,227.06667C218.24695,226.20383 217.54271,225.46968 217.5,224.5665C217.46291,223.7822 217.5,222.84134 217.5,221.83333C217.5,221.14583 217.5,220.12384 217.5,219.40533C217.5,218.61484 217.5,217.58833 217.5,216.70833C217.5,215.68817 217.5,214.868 217.5,213.96666C217.5,213.06667 217.5,212.16667 217.5,211.256C217.5,210.34534 217.55058,209.49057 217.49867,208.55067C217.45607,207.77927 217.03256,206.85757 216.784,206.15067C216.48412,205.29784 216.52193,204.33282 216.48933,203.40533C216.46153,202.61395 216.30276,201.58058 216.07466,200.91333C215.81146,200.1434 215.63089,199.1171 215.14284,198.36667C214.62468,197.56996 213.8931,197.08728 213.52533,196.26666C213.17404,195.48282 212.67822,194.80302 212.536,193.84134C212.38843,192.84354 212.49503,192.00125 212.05733,191.34534C211.56987,190.61487 210.70619,189.87549 210.54167,189.16667C210.31929,188.20854 210.54129,187.30138 209.97917,186.66667C209.39169,186.00334 208.85957,185.46669 208.62134,184.467C208.40347,183.55275 207.9162,182.858 207.52533,182.22C207.05058,181.44508 206.83698,180.52007 206.62151,179.68817C206.41367,178.88571 206.58371,177.95993 206.464,176.99466C206.35446,176.11125 206.06081,175.42 205.85266,174.672C205.56616,173.64247 205.5,172.66667 205.5,171.9095C205.5,170.85201 205.54869,169.97289 205.14734,169.30949C204.67622,168.53081 204.5,167.66667 204.5,166.9095C204.5,166.01401 204.67241,165.13132 204.47917,164.1875C204.30075,163.31604 203.61583,162.50783 203.536,161.82001C203.43906,160.98489 203.5,159.98399 203.5,159.1875C203.5,158 203.5,157.20833 203.5,156.35767C203.5,155.33333 203.5,154.66133 203.5,153.91733C203.5,152.80949 203.5,151.9185 203.5,151.01401C203.5,150.15067 203.5,149.30267 203.5,148.36217C203.5,147.5 203.5,146.64583 203.5,145.66667C203.5,144.87733 203.5,143.83333 203.5,143.07733C203.5,142.16667 203.5,141.26666 203.5,140.36217C203.5,139.5 203.5,138.66667 203.5,137.68817C203.5,136.868 203.5,135.9095 203.5,135.01401C203.5,134.15067 203.5,133.28133 203.5,132.33333C203.5,131.65233 203.5,130.84534 203.5,129.66667C203.5,128.77116 203.5,128.1875 203.5,127.352C203.5,126.12383 203.5,125.27116 203.5,124.268C203.5,123.50267 203.32161,122.49859 203.66667,121.66666C203.992,120.88232 204.4895,120.16684 204.5,119.256C204.5105,118.3454 204.42693,117.45877 204.72133,116.688C205.03658,115.86266 205.46396,115.01528 205.4955,114.31934C205.54153,113.3036 205.88913,112.52136 206.216,111.78133C206.60992,110.88951 206.62549,109.80977 207.02083,109.16666C207.54709,108.31059 208.03044,107.68664 208.33333,106.83334C208.60902,106.05665 209.07376,105.18745 209.5,104.66666C210.17592,103.84081 210.46228,103.04075 210.50133,102.18267C210.54066,101.31843 210.91788,100.46149 211.33333,99.66666C211.73526,98.89768 212.42638,98.35892 212.93201,97.86667C213.64114,97.17629 213.9554,96.25221 214.38667,95.696C214.99649,94.90953 215.45055,94.14615 216.01601,93.52C216.68381,92.78052 217.35616,92.26709 217.784,91.46667C218.24147,90.61081 218.46033,89.90491 219.02083,89.16666C219.61005,88.39059 220.00989,87.75185 220.55267,87.02383C221.05887,86.34489 221.3969,85.77864 221.66667,84.66666C221.81509,84.0549 222.21536,83.27197 222.69867,82.26667C222.98566,81.66974 223.33148,80.66633 223.47467,79.87733C223.66423,78.83289 224.02887,78.19498 224.7,77.46533C225.20613,76.91507 225.59898,76.11192 226.2,75.3765C226.7989,74.64366 227.31511,74.13966 227.86166,73.36667C228.28023,72.77469 229.12886,72.3188 229.84734,72.02383C230.83665,71.61767 231.60721,71.21371 232.5,70.83334C233.25154,70.51314 234.21228,70.63197 234.89999,70.24133C235.71542,69.77815 236.59984,69.66666 237.52133,69.66666C238.36133,69.66666 239.33333,69.66666 240.08934,69.66666C241,69.66666 241.89999,69.66666 242.8,69.66666C243.7,69.66666 244.73216,69.91091 245.416,69.38267C246.04349,68.89796 246.8548,68.74545 247.47467,68.24133C248.08974,67.74111 248.75893,67.24548 249.59984,66.788C250.3472,66.38143 250.5,65.5665 250.5,64.78133C250.5,63.84134 250.5,62.83333 250.5,62.04133C250.5,61.18267 250.5,60.31933 250.5,59.41933C250.5,58.5 250.5,57.66667 250.5,56.688C250.5,55.914 250.5,55.014 250.5,54.15067C250.5,53.16667 250.5,52.18267 250.5,51.492C250.5,50.42383 250.45221,49.5654 250.5,48.66667C250.54272,47.86327 251.02296,46.78711 251.89999,46.71333C252.73064,46.64346 253.07072,47.82887 253.66667,48.5C254.20496,49.1062 254.57201,49.73867 255.20534,50.372C255.79466,50.96133 256.30441,51.68495 256.58533,52.468C256.85968,53.23274 257.48065,54.06615 257.5,54.96667C257.51932,55.86647 257.83334,56.66667 258.5,57.16667C259.16666,57.66667 259.28925,58.50539 259.55716,59.36667C259.82648,60.23244 260.79861,60.63807 261.70001,60.66667C262.59955,60.69521 263.5,60.66667 264.29999,60.66667C265.20001,60.66667 266.10004,60.672 267,60.66667C267.90005,60.66133 268.70001,60.38133 269.29999,59.86533L270,59.16667" id="svg_1" stroke-width="3" stroke="#000" fill="none"/>
  <path t="24719,24813,24822,24822,24846,24846,24854,24863,24863,24878,24878,24878,24886,24886,24902,24902,24902,24910,24927,24982,25001,25001,25014,25030,25038,25046,25046,25062,25086,25125,25126,25150,25150,25238,25246,25246,25253,25254,25266,25266,25270,25270,25286,25286,25350,25350,25366,25382,25382,25413,25414,25421,25430,25430,25437,25448,25470,25480,25502,25511,25511,25526,25566,25606,25607,25616,25758,25758,25766,25782,25814,25814" d="M249.5,158.66667C249.78534,157.752 250.61682,157.56999 251.38533,157.752C252.3616,157.98322 253.06047,158.40953 253.864,159.06667C254.54083,159.62019 255.01262,160.1958 255.8215,160.98784C256.33087,161.48662 256.84857,162.07552 257.89999,162.49867C258.66937,162.80832 259.5257,162.96275 260.28934,163.51733C260.86349,163.9343 261.75882,164.46617 262.59982,164.66684C263.44199,164.86778 263.80081,165.71552 264.5,166.14583C265.35477,166.67191 266.21609,166.55185 267.13599,166.70267C268.00699,166.84547 268.6875,167.22731 269.39017,167.96217C269.99127,168.59084 270.82132,168.66667 271.67465,168.66667C272.616,168.66667 273.384,168.66667 274.32535,168.66667C275.33334,168.66667 276.12534,168.66667 276.98532,168.66667C277.90451,168.66667 278.89999,168.66667 279.70001,168.66667C280.69983,168.66667 281.47916,168.66667 282.33334,168.66667C283.25266,168.66667 284.15268,168.66667 284.84732,168.66667C285.87466,168.66667 286.82132,168.66667 287.67465,168.66667C288.616,168.66667 289.384,168.66667 290.32535,168.66667C291.33334,168.66667 292.19296,169.06949 293.064,168.63066C293.76294,168.27853 294.05444,167.24904 294.7215,166.78816C295.45117,166.28403 296.61011,166.61206 297.064,166.056C297.6785,165.30316 298.23126,164.81541 298.88934,164.23067C299.5816,163.61554 299.30612,162.55363 299.66666,161.66667C299.93988,160.99449 300.47467,160.26666 300.85718,159.36667L301.5,158.66667L301.97916,158.16667" id="svg_2" stroke-width="3" stroke="#000" fill="none"/>
  <path t="26678,26766,26797,26814,26830,26830,26846,26854,26854,26870,26886,26886,26886,26894,26958,26958,26997,27045,27061,27070,27414,27494,27509,27517,27533,27549,27550,27589,27613,27645,27653,27709,27733,27791,27829,27837,27877,27893,27893,27909,27966,27989,28029,28029,28029,28069,28093,28093,28133,28133,28157,28173,28301,28429,28429,28446,28509,28525" d="M267.5,155.66667C268.30133,155.66667 269.20001,155.66594 270.13599,155.66667C270.98401,155.66734 271.89053,155.61581 272.74283,156.01933C273.55344,156.40311 274.27097,156.80728 275.04166,157.16667C276.01157,157.61894 276.75021,157.64479 277.49466,157.66217C278.52905,157.68631 279.5,157.66667 280.29999,157.66667C281.20001,157.66667 282.10001,157.66667 283,157.66667C283.89999,157.66667 284.79999,157.66658 285.70001,157.66667C286.59982,157.66676 287.45728,157.94865 287.5,158.76666C287.54694,159.66545 287.5,160.46666 287.5,161.36667C287.5,162.26666 287.89584,163.25952 287.47916,164.14583C287.14737,164.85156 286,164.66667 285.11066,164.66667C284.21466,164.66667 283.29999,164.66667 282.39999,164.66667C281.5,164.66667 280.69983,164.68466 279.79999,164.66667C278.89944,164.64867 278.11844,164.18939 277.33334,163.66667C276.69644,163.24263 275.98666,162.94264 275,162.66667C274.18082,162.43755 273.35483,161.998 272.52133,161.78816C271.63568,161.5652 270.57404,161.94901 269.83334,161.5C269.06143,161.03207 268.5,160.5 267.85718,159.96217L267.5,159.16667L267.07468,158.26666L266.62149,157.56667" id="svg_3" stroke-width="3" stroke="#000" fill="none"/>
  <path t="29222,29302,29325,29325,29325,29333,29334,29357,29357,29357,29381,29382,29382,29485,29573,29573,29605,29685,29685" d="M310.5,150.66667C308.86401,151.31334 308.17868,151.98799 307.67465,152.492C307.15265,153.01399 306.36066,153.76305 305.87466,154.328C305.14221,155.17944 304.6676,155.92336 304.32535,156.452C303.65265,157.49107 303.22653,158.18825 302.94666,158.82001C302.53049,159.75938 302.33334,160.66667 301.88934,161.26666L301.20001,161.96666L300.5,162.66667L299.89999,163.23067" id="svg_4" stroke-width="3" stroke="#000" fill="none"/>
  <path t="30981,31301,31310,31317,31614,31629,31653,31669,31670,31677,31725,31765,31821,31901,31925,31925,31941,31941,31957,32013,32061,32101,32161" d="M271.5,140.66667C272.30133,140.66667 273.20001,140.6095 274,140.16667C274.79999,139.72383 275.70001,139.66667 276.60001,139.66667C277.5,139.66667 278.29999,139.66667 279.20001,139.66667C280.10001,139.66667 281,139.66443 281.89999,139.66667C282.8045,139.66893 283.6843,139.79367 284.32535,140.10266C285.36584,140.60417 285.85495,141.07063 286.69867,141.58267C287.43961,142.03232 287.92532,142.64133 288.48932,143.27733L288.5,144.14583" id="svg_5" stroke-width="3" stroke="#000" fill="none"/>
  <path t="32854,33181,33213,33251,33257" d="M281.5,147.66667C283.95834,147.14583 284.44733,146.36667 284.784,145.468L285.33334,144.83333" id="svg_6" stroke-width="3" stroke="#000" fill="none"/>
  <path t="34077,34645,34645,34654,34654" d="M273.5,147.66667C271.94284,147.88817 272.68533,148.27733 273.47849,148.76649L274.08932,149.23067" id="svg_7" stroke-width="3" stroke="#000" fill="none"/>
  <path t="35686,35805,35821,35821,35837,35845,35853,35949,36021,36029,36101,36101,36189,36381,36453,36501,36529,36537,36544,36557,36589,36605" d="M258.5,120.66666C258.51068,118.84133 258.49582,117.69431 259.11066,117.11333C259.75418,116.50526 260.44119,116.08932 261.11066,115.64133C261.8461,115.14921 262.69699,114.70938 263.60001,114.66666C264.49899,114.62414 265.47952,114.2011 266.21466,114.752C266.83105,115.21392 266.42838,116.42972 265.5,116.66666C264.67654,116.87683 264.47916,117.64584 263.69867,117.66666L262.79999,117.72383L262,118.16666L261.1955,118.614" id="svg_8" stroke-width="3" stroke="#000" fill="none"/>
  <path t="37261,37597,37597,37605,37619,37619,37631,37653,37653,37685,37693,37693,37909,37917,37933,37933,37941,37965,37989,38029,38110,38197,38253,38253,38397,38429,38437,38453,38525,38581" d="M295.5,117.66666C296.5,116.66666 297.29999,116.66666 298.13599,116.66666C299.14816,116.66666 299.93066,116.66666 300.86166,116.66666C301.82132,116.66666 302.67465,116.66666 303.61465,116.66666C304.5,116.66666 305.54465,116.12353 306.21466,116.752C306.74338,117.24794 305.66379,118.11254 304.98267,118.38133C303.97659,118.77836 303.49911,119.45746 302.69867,119.66534C301.88223,119.87737 301.58127,120.61588 300.95834,121.14584C300.16766,121.81851 299.32538,121.66133 298.25717,121.66666C297.39999,121.67094 296.5,121.66666 295.66666,121.5L295.216,120.75066L294.55267,120.305" id="svg_9" stroke-width="3" stroke="#000" fill="none"/>
  <path t="40357,40437,40445,40462,40477,40485,40485,40493,40501,40501,40517,40517,40525,40533,40533,40549,40549,40557,40557,40565,40565,40572,40573,40581,40581,40581,40589,40589,40598,40598,40598,40605,40605,40605,40629,40637,40645,40645,40661,40669,40677,40678,40678,40685,40685,40685,40685,40694,40694,40694,40694,40701,40701,40701,40717,40717,40733,40741,40757,40765,40765,40773,40773,40773,40773,40781,40781,40781,40781,40789,40789,40789,40797,40797,40797,40805,40805,40813,40813,40813,40821,40821,40821,40829,40829,40829,40837,40837,40846,40861,40861,40878,40878,40897,40907,40925,40941,40957,40965,40965,40973,40973,40973,40983,40983,40989,40989,40999" d="M339.5,120.66666C339.78265,121.468 339.44147,122.29971 338.69867,122.75066C337.99432,123.17828 337.29733,123.86404 336.70001,124.46667C336.09732,125.07469 335.46014,125.81136 335.11066,126.492C334.60751,127.47182 334.67682,128.27715 334.47916,129.16667C334.29053,130.01553 333.62698,130.48824 332.84732,130.96666C332.16412,131.38589 331.20123,131.92238 330.70132,132.552C330.13138,133.26984 329.81628,134.02504 329.20001,134.9185C328.81018,135.48367 328.2926,136.43311 328,137.1875C327.69223,137.98102 327.27945,138.97252 327.02084,139.64583C326.63345,140.65454 326.53284,141.27 326.50449,142.12384C326.4725,143.08731 326.5,143.88133 326.5,144.89734C326.5,145.85234 326.5,146.76666 326.5,147.66667C326.5,148.46666 326.49994,149.36667 326.5,150.20833C326.50009,151.20984 326.48578,151.951 326.55716,152.83284C326.63837,153.83601 326.7814,154.55118 326.92532,155.29201C327.14343,156.41476 327.3511,157.49811 327.41467,158.18134C327.50424,159.14383 327.49063,159.76219 327.50015,160.96634C327.50711,161.84537 327.37341,162.43375 327.72134,163.52367C327.9657,164.28912 328.48734,165.16652 328.5,166.06667C328.51266,166.96658 328.71609,167.77118 329.14667,168.33867C329.81262,169.2164 330.33783,169.93687 330.63867,170.524C330.9556,171.14252 331.29138,172.18292 331.43866,173.29201C331.53781,174.03864 331.54218,174.78874 331.72134,175.845C331.88791,176.82709 332.12659,177.40887 332.33334,178.5C332.5083,179.42336 332.49774,180.06216 332.5,181.06799C332.50186,181.90266 332.5,182.83333 332.5,183.61934C332.5,184.44133 332.5,185.5 332.5,186.44133C332.5,187.11934 332.5,188.35066 332.5,189.16667C332.5,189.714 332.5,190.98 332.5,191.82001C332.5,192.78133 332.50189,193.66667 332.5,194.42383C332.49774,195.31935 332.50827,196.22708 332.07468,197.02C331.59686,197.89375 331.67215,198.70438 331.41467,199.468C331.14597,200.26497 330.43466,201.01088 329.97916,201.66667C329.37772,202.53256 328.64841,203.00752 328.15268,203.41933C327.33725,204.09671 326.87466,204.80533 326.17883,205.42383L325.36133,205.68134L324.56134,206.10266" id="svg_10" stroke-width="3" stroke="#000" fill="none"/>
  <path t="43470,43549,43550,43558,43566,43573,43590,43590,43614,43614,43654,43694,43719,43749,43750,43765,43773,43773,43781,43781,43781,43789,43789,43790,43797,43797,43797,43805,43806,43821,43821,43853,43854,43861,43862,43885,43893,44094,44103,44165,44174,44175,44182,44189,44198" d="M275.5,227.66667C276.5,227.83333 277.06039,228.3203 277.79999,228.96217C278.46667,229.54079 279.25583,229.86868 279.66666,230.66667C280.01254,231.3385 280.34222,232.16563 280.55267,233.01401C280.77939,233.92789 281.79538,234.26857 282.37866,234.88817C282.94763,235.49255 283.29956,236.32054 283.47916,237.1875C283.67487,238.13222 283.45511,238.92941 283.94284,239.86684C284.28445,240.52345 284.91135,241.08769 285.47833,242.088C285.77002,242.60263 286.10953,243.42804 286.33334,244.5C286.48007,245.20274 286.49774,246.06216 286.5,247.06667C286.5018,247.86667 286.5,248.8665 286.5,249.64583C286.5,250.78267 286.5,251.55067 286.5,252.492C286.5,253.18266 286.5,254.256 286.5,255.16667C286.5,256.06668 286.5,256.96667 286.5,257.86667C286.5,258.76666 286.5,259.66666 286.5,260.5L286.5,261.37115L286.53601,262.26666" id="svg_11" stroke-width="3" stroke="#000" fill="none"/>
  <path t="49566,49661,49670,49670,49677,49677,49677,49677,49685,49685,49685,49693,49693,49701,49701,49701,49709,49725,49725,49741,49813,49813,49833,49837,49869,49869,49941,49965,49965,50021,50021,50045,50061,50061,50077,50077,50085,50102,50133,50149,50157,50166,50173" d="M273.5,231.66667C274.216,231.92267 274.46259,232.73723 274.48932,233.49867C274.5303,234.666 274.5,235.56667 274.5,236.16667C274.5,237.06667 274.5,238.26534 274.5,238.856C274.5,239.7095 274.5,240.74516 274.5,241.64583C274.5,242.66667 274.5,243.45599 274.5,244.18134C274.5,245.16667 274.5,246.15067 274.5,247.01401C274.5,247.914 274.5,248.83333 274.5,249.66667C274.5,250.645 274.5,251.5 274.5,252.3765C274.5,253.18401 274.5,254.16667 274.5,254.98801C274.5,255.84134 274.5,256.78265 274.5,257.55066C274.5,258.492 274.5,259.5 274.5,260.29199C274.5,261.31934 274.81454,262.06796 274.48932,263.01999C274.22717,263.78738 273.44733,264.314 272.7955,264.71933L272,265.16666L271.2045,265.61401L270.52533,266.09201" id="svg_13" stroke-width="3" stroke="#000" fill="none"/>
  <path t="51469,51501,51517,51517,51527,51534,51549,51557,51565,51565,51580,51581,51581,51597,51597,51597,51605,51605,51628,51644,51652,51692,51709,51709,51725,51733,51741,51749,51765,51765,51773,51781,51813,51817,51844,51860,51861,51925,51973,52005,52110,52127,52166,52190,52190,52278,52278,52294,52294,52302,52302,52318,52350" d="M277.5,225.66667C278.55267,227.42383 278.87943,228.30858 279.14734,229.01401C279.48114,229.89288 280.16617,230.4754 280.47916,231.1875C280.83313,231.99287 280.82364,232.84479 281.2045,233.481C281.75772,234.40515 282.00424,235.20685 282.20001,235.77567C282.60873,236.9633 282.89929,237.84227 283.064,238.39467C283.39886,239.51779 283.48724,240.35774 283.5,241.26666C283.51263,242.16682 284.04321,242.86995 284.37851,243.76666C284.69659,244.61731 284.5,245.46666 284.5,246.36667C284.5,247.26666 284.5,248.16667 284.5,248.97116C284.5,249.98801 284.38251,250.67377 284.50015,251.645C284.61163,252.56538 285.47141,253.02238 285.5,253.86534C285.53006,254.7515 285.5,255.66667 285.5,256.46667C285.5,257.36667 285.5,258.26666 285.5,259.16666C285.5,260.06668 285.49985,260.96667 285.5,261.86667C285.50018,262.76685 285.64389,263.57126 286.20532,264.32382C286.62961,264.89258 287.28119,265.86005 287.47916,266.64584C287.69278,267.49384 288.07468,268.25601 288.46399,269.06668L288.5,269.96667" id="svg_14" stroke-width="3" stroke="#000" fill="none"/>
  <path t="56495,56597,56598,56598,56607,56607,56607,56614,56614,56615,56615,56615,56622,56622,56622,56630,56630,56630,56630,56638,56638,56638,56708,56708,56806,56862,56910,56910,56950,56950,56966,56998,56998" d="M258.5,237.66667C257.66666,238.16667 257.57208,238.97568 257.39017,239.72301C257.1358,240.7679 256.62683,241.45114 256.27866,241.92799C255.49736,242.99808 255.0838,243.62595 254.72133,244.328C254.35254,245.04228 254.01941,245.76949 253.74266,246.84517C253.57364,247.50215 253.53697,248.47986 253.16667,249.66667C252.97501,250.28098 252.64825,250.86159 252.14816,251.7095C251.53322,252.75217 251.13033,253.42772 250.8045,254.06216C250.29236,255.05943 249.79063,255.73795 249.536,256.60535C249.3027,257.40005 249.17999,258.3392 248.7955,259.01401C248.34367,259.80701 247.78534,260.46533 247.47467,261.30267L247.21466,262.15067L246.88933,262.84134" id="svg_15" stroke-width="3" stroke="#000" fill="none"/>
  <path t="64320,64422,64431,64439,64439,64446,64446,64446,64446,64455,64455,64462,64462,64462,64471,64471,64471,64494,64502,64502,64518,64534,64534,64534,64543,64543,64550,64558,64558,64574,64575,64575,64582,64582,64596,64596,64614,64614,64622,64622,64630,64638,64646,64646,64662,64662,64671,64678,64694,64694,64694,64702,64702,64702,64710,64710,64718,64718,64726,64726,64734,64734,64734,64743,64743,64750,64750,64750,64759,64759,64766,64775,64775,64791,64791,64814,64814,64814,64870,64870,64878,64887,64910,64910,64921,64944,64966,64975,64990,64990,65007,65007,65007,65054,65063,65071,65094,65190,65190,65214,65214,65262,65278,65318,65327,65327" d="M224.5,125.66666C225.14734,126.37117 225.49539,127.28127 225.85716,127.98466C226.17848,128.60942 226.6125,129.6487 226.7955,130.37733C226.9929,131.16335 227.17453,131.95074 227.37849,133.28101C227.47981,133.94177 227.5,135 227.5,135.6765C227.5,136.452 227.5,137.5 227.5,138.42C227.5,139.18001 227.5,140.16667 227.5,141.15067C227.5,142.01401 227.40996,142.93579 227.66667,143.83333C227.86508,144.52701 228.31134,145.26309 228.7955,146.26216C229.06969,146.82794 229.34488,147.94928 229.72133,148.767C230.00237,149.37746 230.38432,150.20863 230.5,151.16667C230.58832,151.89816 230.85614,152.85748 231.30133,153.54933C231.79437,154.31557 232.2095,155.09993 232.66667,156C233.01689,156.68951 233.57126,157.45174 234.064,158.256C234.53624,159.02682 234.42418,159.99022 234.66667,160.83333C234.86227,161.5134 235.05756,162.63344 235.55267,163.30499C236.011,163.92667 237.02599,164.20305 237.66667,164.83333C238.16118,165.31979 238.71365,165.87436 239.5,166.66667C240.09326,167.26443 240.75877,167.79544 241.25734,168.86633C241.59352,169.58844 241.95563,170.39349 242.68533,170.71733C243.49423,171.07631 243.9238,171.75653 244.66667,172.5C245.26929,173.1031 245.90195,173.36583 246.61734,174.15067C247.20961,174.80042 247.81157,175.53806 248.50534,175.9095C249.22888,176.29689 250.2883,176.51651 250.9375,177.16667C251.60684,177.83701 251.97258,178.45126 252.68533,178.728C253.67374,179.11174 254.05515,179.91957 254.82133,180.64534C255.28667,181.08612 256.10977,181.47226 256.73834,182.31934C257.21603,182.96306 257.37473,183.91611 257.50134,184.86667C257.60919,185.67642 258.30966,186.31898 258.48932,187.23067C258.65793,188.08627 258.5,188.96666 258.5,189.868C258.5,190.83333 258.5,191.6875 258.5,192.66667C258.5,193.45599 258.5,194.18134 258.5,195.256C258.5,196.06667 258.5,196.96666 258.5,197.868C258.5,198.83333 258.5,199.66667 258.5,200.64517C258.5,201.36217 258.5,202.26666 258.5,203.16667L258.51068,204.07733L258.7215,204.98784L259.02084,205.64583" id="svg_16" stroke-width="3" stroke="#000" fill="none"/>
  <path t="68926,69286,69289,69295,69318,69326,69334,69334,69350,69406,69422,69422,69431,69431,69438,69446,69446,69454,69470,69470,69479,69502,69502,69518,69526,69527,69550,69582,69590,69614,69614,69622,69638,69694,69694,69702,69702,69718,69742,69750,69766,69774,69782,69782,69791,69806,69806,69886,69886,69886,69894,69894,69894,69918,69918,69918,69958,69958,69990,69990,69998,69998,70014,70014,70046,70046,70046,70086,70102,70126,70126,70134,70142,70150,70158,70166,70175,70182,70191,70198,70334,70381,70384" d="M259.5,186.66667C259.67065,187.468 260.29807,188.17064 261.16666,188.5C261.90488,188.77992 262.71878,189.16718 263.5,189.5C264.25153,189.82019 265.20001,189.66667 266.13599,189.66667C266.98532,189.66667 267.90451,189.66667 268.89868,189.66667C269.664,189.66667 270.61465,189.66667 271.5,189.66667C272.29999,189.66667 273.25717,189.66667 274.15268,189.66667C275.01599,189.66667 275.87466,189.66667 276.82132,189.66667C277.67465,189.66667 278.61465,189.66667 279.5,189.66667C280.29999,189.66667 281.20001,189.66667 282.10001,189.66667C283.02084,189.66667 283.98401,189.66667 284.67465,189.66667C285.74283,189.66667 286.60001,189.66667 287.5,189.66667C288.31433,189.66667 289.26895,189.70607 289.97916,189.64583C291.00668,189.55867 291.78101,188.99332 292.37866,188.44533C293.01678,187.86024 293.76932,187.85553 294.60001,187.44516C295.29059,187.104 295.81885,186.13318 296.60049,185.78799C297.32352,185.4687 298.26758,185.45985 299.17599,185.23067C299.82675,185.06648 301.01627,184.69904 301.63751,184.36667C302.49127,183.90993 303.26645,183.45929 304.02084,183.16667C304.81436,182.85889 305.80826,182.45607 306.45834,182.1875C307.47113,181.76909 308.2865,181.60687 308.98401,181.09866C309.71362,180.56706 310.4635,179.86447 311.16135,179.65199C312.02731,179.38834 312.74313,179.21451 313.73199,178.95067C314.67914,178.69795 315.60129,178.71448 316.5,178.66667C317.30341,178.62395 317.88336,178.08368 318.47467,177.27733C318.95004,176.62907 319.88934,176.65601 320.5,176.16667C321.11066,175.67734 322.05508,175.96431 322.88934,175.65601C323.63574,175.38017 323.936,174.27733 324.59982,173.78816L325.52533,173.66667" id="svg_17" stroke-width="3" stroke="#000" fill="none"/>
 </g>
</svg>