<svg width="280" height="420" xmlns="http://www.w3.org/2000/svg" xmlns:svg="http://www.w3.org/2000/svg" xmlns:xlink="http://www.w3.org/1999/xlink">
 <!-- Created with SVG-edit - http://svg-edit.googlecode.com/ -->
 <g display="inline" class="layer">
  <title>Layer 1</title>
  <path t="0,707,724,725,756,756,773,773,805,823,823,937,956,956,972,972,972,1171,1188,1188,1204,1221,1239,1239,1270,1271,1289,1321,1355,1355,1496,1497,1506,1506,1523,1523,1556,1631,1655,1672,1737,1755,1816,1888,1888,1903,1904,1922,1988,1988,1988,2004,2005,2039,2039,2055,2055,2087,2170,2170,2186,2204,2222,2222,2238,2238,2309,2433,2472,2488,2488,2488,2505,2522,2538,2720,2791,2824,2824,2839,2917,2917,2918,2938,2938,2955,3042,3042,3071,3071,3092,3103,3104,3138,3138,3154,3154,3154,3172,3188,3205,3221,3221,3353,3446,3446,3488,3488,3489,3521,3521,3538,3538,3553,3641,3681,3705,3737,3738,3753,3829,3856,4031,4054,4087,4146,4194,4274,4274,4305,4305,4343,4343,4372,4372,4389,4443,4444,4521,4561,4607,4607,4636,4709,4771,4771,4805,4820,4873,4904,4921,4922,4954,4954,5006,5054,5071,5089,5089,5103,5104,5104,5121,5121,5136,5136,5153,5153,5171,5187,5205,5206,5299,5299,5341,5342,5370,5387,5403,5403,5421,5453,5454,5471,5488,5551,5603,5604,5645,5645,5686,5687,5687,5730,5754,5815,5879,5904,5936,5982,6004,6004,6083,6083,6206,6254,6408,6408,6436,6487,6525,6525,6570,6571,6603,6686,6687,6721,6754,6754,6770,6822,6907,6993,7019,7071,7104,7118,7194,7195,7220,7221,7273,7287,7303,7304,7337,7369,7387,7404,7419,7419,7435,7436,7452,7452,7507,7508,7508,7537,7537,7552,7593,7619,7619,7662,7741,7769,7836,7854,7854,7869,7869" d="M181,81.11111C181,82.93645 180.8315,83.97842 181.07201,84.73644C181.3719,85.68163 182.12434,86.02533 182.66667,86.94444C183.08229,87.64882 183,88.63194 183,89.59378C183,90.40128 182.98293,91.28286 183.0045,92.17811C183.02208,92.90758 183.11082,93.96221 183.42534,94.85378C183.67299,95.5558 184.61784,96.0084 184.91467,96.68044C185.23251,97.40004 184.67133,98.53843 185.009,99.40661C185.3121,100.18589 186.54276,100.06831 186.92799,100.97244C187.18657,101.5793 186.96457,102.77528 187.64667,103.13644C188.57782,103.62948 189.58713,103.54778 190,104.44444C190.28807,105.07007 190.45145,106.08056 191,106.61111C191.67769,107.26657 191.43764,108.28104 192.01067,109.03911C192.46046,109.63415 192.98958,110.11095 193,111.09028C193.00957,111.98972 193.09335,112.81363 193.76167,113.22095C194.49173,113.66589 195.29831,114.1946 195.757,115.08961C196.1468,115.85019 195.9919,116.7937 196.22166,117.65361C196.41086,118.36166 196.75854,119.42191 197.48267,119.85511C198.20619,120.28796 199.36476,120.22408 200,120.63194C200.80214,121.14697 200.99866,121.99644 201,122.93645C201.00143,123.94444 200.9946,124.70046 201,125.61111C201.00534,126.51115 201.38976,127.26323 201.716,128.08177C202.01988,128.84419 201.65038,129.9964 202.22133,130.74661C202.72818,131.4126 202.80704,132.06972 203.33333,132.94444C203.71539,133.57948 204.66522,133.79311 204.97867,134.71111C205.29073,135.625 205.48959,136.29582 206.16667,136.94444C206.7991,137.55029 207.14461,138.28702 207.42534,138.92578C207.84624,139.88344 208.44284,140.55394 209.02083,141.13194C209.51733,141.62845 210.23463,142.36226 210.79866,142.90977C211.51065,143.60092 212.31586,144.04063 213.13867,144.10045C214.16402,144.17499 214.88667,144.11111 215.82533,144.11111C216.83333,144.11111 217.63834,144.11111 218.57201,144.11111C219.25734,144.11111 220.42117,144.11111 221.21466,144.11111C221.99017,144.11111 223.03406,144.20677 224,144.11111C224.8457,144.02737 225.32271,143.20485 226.14934,143.12178C227.07805,143.02846 228.0074,143.17751 228.81433,143.05394C229.78203,142.90575 230.47211,142.58794 231.14667,142.39511C232.27751,142.07187 232.972,142.11111 234.00084,142.11111C234.71333,142.11111 235.99071,142.49182 236.64734,141.99678C237.29079,141.51169 237.2693,140.43417 238,139.94444C238.69624,139.4778 238.99426,138.36986 239.85066,138.14711C240.72852,137.91878 241,137.50044 241,136.63194C241,135.67511 241,134.81111 241,133.90977C241,132.94444 241.18864,131.96027 240.55733,131.35361C239.99522,130.81346 239.21165,130.45477 239.02083,129.61111C238.79636,128.61876 238.23523,128.15593 237.5,127.59028C236.72774,126.99613 236.15472,126.34459 236.01067,125.51111C235.85382,124.60368 236,123.62844 236,122.82095C236,121.94311 236,121.06944 236,120.11111C236,119.33244 236,118.28044 236,117.50044C236,116.61111 236.03963,115.69957 235.99966,114.78995C235.96364,113.9701 235.24541,113.39948 234.56799,113.11378C233.91269,112.8374 233.33015,112.27159 233.02083,111.56944C232.64029,110.70563 233.0638,109.87639 232.77834,108.91128C232.53938,108.1034 232.16075,107.54341 231.34734,106.86378C230.68813,106.31299 229.8728,105.63556 229.41066,104.93645C228.88559,104.14211 228.3347,103.66212 227.61067,103.13644C226.94859,102.65575 227.14592,101.61515 227,100.82095C226.83055,99.89864 225.83195,99.71024 225.33333,98.94444C224.85158,98.20457 225.15654,97.11832 225,96.27778C224.85556,95.50222 224.23564,94.78973 224.05716,93.86378C223.88283,92.95931 224.32257,92.07228 223.98933,91.17245C223.68466,90.34974 223.04659,89.72131 223,88.77778C222.96603,88.08985 222.60371,87.07078 221.95833,86.63194C221.05637,86.01865 220.38457,85.84629 219.65717,85.41111C218.7343,84.85899 218.06091,84.23894 218,83.40578C217.9299,82.447 218.19931,81.55665 217.64284,80.81561C217.07576,80.06045 216.10175,79.78841 216.02083,79.09028C215.91054,78.13876 216.02728,77.31203 216,76.41111C215.97141,75.46698 215.08505,75.26379 215.00133,75.99778C214.89615,76.91979 215,77.86845 215,78.81644C215,79.54311 214.75856,80.60579 215.05716,81.40578C215.3571,82.20933 215.90459,82.69344 216.05716,83.46294C216.23973,84.38374 216.91496,85.0985 216.99867,85.91111C217.0909,86.80637 217.00533,87.71113 217,88.61111C216.99466,89.51115 216.85568,90.51859 216,90.94444C215.23918,91.32309 214.28873,91.01194 213.55716,91.55378C212.91194,92.03167 212.17032,92.78543 211.52083,93.09028C210.70447,93.47345 209.90611,94.05022 209,94.11111C208.2018,94.16475 207.29947,94.16732 206.5,94.61111C205.70396,95.053 204.87616,95.142 204.12801,95.55778C203.38248,95.9721 202.56999,96.5617 202.04167,97.11111C201.2836,97.89947 201.01816,98.72121 200.1145,98.98978C199.31693,99.22682 198.64552,99.02138 197.5,99.27778C196.69684,99.45755 195.92703,99.99282 195.13867,100.13245C194.13347,100.31048 193.91347,101.18259 193.12134,101.86811C192.55434,102.3588 191.92105,102.84127 191.13867,103.08578C190.19299,103.38132 189.5,103.61111 188.51733,104.02578L187.70984,104.10661" id="svg_1" stroke-width="3" stroke="#000" fill="none"/>
  <path t="9480,9728,9754,9754,9770,9815,9837,9837,9853,9908,9957,9957,9987,10003,10019,10019,10036,10036,10036,10052,10052,10070,10119,10152,10152,10170,10171,10186,10186,10186,10203,10243,10270,10286,10302,10319,10319,10335,10402,10556,10556,10588,10588" d="M201,117.11111C202.04167,117.09028 203.0154,116.98685 203.77867,116.68578C204.68776,116.32719 205.25616,115.57352 206.10017,115.23261C206.83667,114.93513 207.89311,115.48724 208.75717,115.11078C209.468,114.80107 209.53694,113.55724 210.39999,113.18311C211.23251,112.82223 212.16959,113.16377 213.02083,113.09028C214.00713,113.00513 214.79034,112.6577 215.39999,112.46378C216.38519,112.15039 217.34282,112.11337 218.24283,112.11111C219.2,112.10873 220.10028,112.12433 220.88533,112.11111C221.8364,112.09511 222.66335,111.93 223.39734,111.25911C223.81825,110.87438 223.93117,109.77268 225,109.17361C225.74405,108.75658 226.75932,109.11437 227.436,108.68578C228.20247,108.20031 229.11626,108.20536 229.88533,108.02578C230.84898,107.80077 231.66667,107.27778 232.28534,106.82445L232.80133,106.22444L233.291,105.46294L233.62933,104.68044" id="svg_2" stroke-width="3" stroke="#000" fill="none"/>
  <path t="11260,11825,11825,11853,11886,11903,11904,11919,11935,11989,12020,12036,12036,12053,12069" d="M208,106.11111C209.28534,105.54311 209.53694,104.55724 210.39999,104.18311C211.23251,103.82223 212.16667,104.11118 213,104.11111C213.97833,104.11103 214.68138,103.82872 215.284,103.19511C215.83473,102.61605 216.2215,101.78995 216.52083,101.13194L217.09984,100.35411L217.97467,100.11111" id="svg_3" stroke-width="3" stroke="#000" fill="none"/>
  <path t="12940,13101,13119,13134,13134,13134,13169,13201,13202,13221,13221,13234,13234,13250,13345,13368,13385,13386,13444,13486,13486,13486,13519,13535,13552,13552,13568,13569,13640,13640,13703,13736,13751,13785,13786,13786,13827,13827,13929,13968,13968,13986,13986,13986,14001,14017,14036,14036,14052,14131,14152,14152,14169,14169,14186,14186,14203,14203,14219,14219,14236,14252,14286,14287,14335,14335,14369,14402,14419,14434,14435,14452,14452,14452,14452,14468,14469,14469,14484,14484,14552,14569,14569,14818,14818,14835,14852,14868,14903,14919,14919,14919,14935,14936,14937,14937,14951,14951,14951,14951,14969,14984,14984,15021,15021,15034,15083,15119,15134,15151,15151,15151,15152,15169,15202,15235,15252,15253,15318,15372,15418,15418,15418,15761,15786,15824,15824,15852,15868,15885,15901,15963,15985,16049,16069,16069,16118,16151,16152,16167,16184,16200,16236,16237,16267,16283,16302,16317,16333,16334" d="M185,78.11111C184.35266,77.40661 184.03139,76.56198 183.77867,75.56844C183.59705,74.85438 183.2664,74.13497 183.08533,73.08178C182.92023,72.12146 182.95372,71.30652 182.43066,70.62844C181.88103,69.91592 180.8439,69.60781 180.28667,69.02844C179.75066,68.47114 180,67.41111 180,66.47511C180,65.62844 180,64.82095 180,63.74495C180,62.77778 179.99477,62.11026 180,61.17361C180.00534,60.21907 180.80173,60.1521 181.64816,59.74944C182.33122,59.4245 182.74318,58.4289 182.99733,57.68044C183.28911,56.82117 184.0865,56.36414 184.94934,56.14711C185.82413,55.92707 186.757,56.11111 187.66434,56.11111C188.29733,56.11111 189.31866,56.11111 190.312,56.11111C191.11734,56.11111 192.08267,56.11111 193,56.11111C193.81433,56.11111 194.76801,56.11111 195.5,56.11111C196.23199,56.11111 197.33241,56.02272 198.3045,56.11561C199.17781,56.19906 200.02881,56.52271 200.75717,56.98978C201.49654,57.46389 202.06725,58.24891 202.636,58.71111C203.44241,59.36644 204.19316,59.73657 205.19966,59.98994C205.94815,60.17836 206.8008,60.54101 207.01466,61.33244C207.27551,62.29778 207.32935,63.24716 208,63.77778C208.73686,64.36078 208.95003,64.77785 209.02083,65.61111C209.10638,66.61806 209.5417,67.33464 210.22133,67.98978C210.80037,68.54796 211.536,69.01857 211.92,69.68178C212.36687,70.45355 212.87172,71.33043 213.41966,71.71111C214.02699,72.13306 214.7274,72.4746 215.66667,73.11111C216.49892,73.67509 217.26224,74.17225 217.757,75.08961C218.11504,75.75343 217.92741,76.77599 218.44667,77.52177C218.8165,78.05294 219.88608,78.60182 220.233,79.40128C220.5128,80.04606 219.39999,80.11111 218.52083,80.11111C217.63383,80.11111 216.66667,80.11111 215.98567,80.11111C215.17867,80.11111 214,80.11111 213.0955,80.11111C212.47917,80.11111 211.51466,80.11111 210.479,80.11111C209.75633,80.11111 209.04167,80.11111 208.05467,80.11111C207.056,80.11111 206,80.11111 205.24283,80.11111C204.34734,80.11111 203.37393,79.70888 202.54167,80.15278C201.8143,80.54073 201.83952,81.79134 201.12083,82.11144C200.33978,82.45931 199.58737,82.82171 198.97917,83.11111C198.05444,83.55115 196.89441,83.57001 196.16667,84.11111C195.5806,84.54689 194.9431,85.07397 194.276,85.10044C193.16783,85.14442 192.35266,85.11111 191.33583,85.11111C190.71333,85.11111 189.7435,85.31496 188.81883,85.10661C187.99815,84.9217 188,83.78995 188,82.97244C188,82.06045 188.3662,81.07566 187.77867,80.35411C187.2403,79.69292 187.06203,79.10895 187,78.22095C186.94269,77.40062 186.20038,76.92603 185.56799,76.31111C184.9281,75.6889 185.21631,74.58277 184.94284,73.82095C184.64203,72.98296 183.73218,72.55553 183.284,71.85645C182.83348,71.15371 183.00226,70.16912 183,69.15278C182.99814,68.30978 183,67.41111 183,66.59028L183,65.62844L183,64.82095" id="svg_4" stroke-width="3" stroke="#000" fill="none"/>
  <path t="21615,21909,21933,21950,21951,21951,21951,21966,21967,21983,21983,22001,22067,22082,22082,22118,22181,22182,22199,22200,22215,22250,22281,22299,22299,22316,22332,22332,22349,22367,22383,22383,22417,22417,22502,22515,22635,22737,22768,22768,22785,22785,22785,22800,22801,22801,22868,22900,22915,22915,22933,22933,22965,23000,23140,23183,23183,23215,23216,23289,23290,23315,23349,23365,23366,23400,23417,23417,23432,23450,23450,23500,23500,23548,23565,23642,23642,23665,23666,23684,23684,23716,23717,23789,23789,23836,23836,23866,23882,23937,23966,23966,23983,24017,24050,24065,24065,24187,24216,24232,24232,24248,24266,24266,24283,24298,24316,24333,24333,24350,24350,24435,24435,24435,24466,24466,24467,24599,24616,24616,24632,24632,24632,24649,24649,24649,24666,24666,24666,24747,24747,25133,25165,25166,25215,25216,25216,25355,25355,25382,25398,25398,25399,25416,25417,25417,25448,25566,25566,25667,25681,25714,25715,25749,25781,25781,25798,25798,25798,25799,25931,25966,25981,25982,25982,25999,25999,26081,26165,26166,26198,26199,26199,26321,26365,26383,26383,26400,26400,26401,26415,26415,26433,26465,26482,26482,26498,26499,26516,26516,26516,26533,26533,26549,26611,26632,26649,26649,26666,26683,26700,26700,26716,26750,26765,26783,26816,26816,26875,26899,26915,26915,27179,27216,27216,27247,27281,27299,27316,27333,27348,27349,27366" d="M178,77.11111C176.3,77.11111 175.4375,77.11111 174.5,77.11111C173.6375,77.11111 172.97917,77.11168 171.96666,77.11111C170.772,77.11044 170.00096,77.29528 169.02167,76.88961C168.38022,76.62389 168.01476,75.61606 167.38933,75.04977C166.81322,74.52814 166.46935,73.55591 165.61067,73.18311C164.74225,72.80608 163.76752,73.21042 162.88533,72.82711C162.25697,72.55409 161.42897,72.04938 160.95833,71.61111C160.37076,71.06397 159.3204,70.78368 159.02083,70.11111C158.62564,69.22391 157.9131,68.65879 157.5,68.11111C156.9183,67.33992 156.08522,66.8934 156,65.94444C155.92723,65.13413 155.58157,64.25191 154.85066,64.13245C153.7925,63.9595 153.228,63.7299 152.99983,62.88978C152.78833,62.11099 151.67833,62.11111 150.95833,62.11111C149.83333,62.11111 149.04733,62.11111 148.22533,62.11111C147.16667,62.11111 146.46617,62.11111 145.57201,62.11111C144.64284,62.11111 143.79866,62.11111 142.83333,62.11111C142,62.11111 141.0215,62.11111 140.3045,62.11111C139.39999,62.11111 138.41939,61.95201 137.564,62.12178C136.64682,62.30381 136.14612,62.9654 135.34283,63.40661C134.62051,63.80335 133.6053,64.06388 132.71434,64.10661C131.83301,64.14888 130.76321,63.89532 130.16933,64.67911C129.71123,65.28368 129.36769,66.00011 128.80133,66.68044C128.22566,67.37196 128.12531,68.37887 127.83334,69.27778C127.61655,69.94519 126.87438,70.61341 126.28533,71.19378C125.66116,71.80876 125.28742,72.4095 124.66666,72.94444C124.02485,73.49753 123.16151,73.67979 122.95184,74.52011C122.70546,75.50753 122.55429,76.13776 121.90017,77.08945C121.48159,77.69844 121.14842,78.47031 120.928,79.29645C120.7023,80.14236 119.72613,80.36271 119.17067,81.30978C118.74586,82.03409 119.02312,82.97272 119,83.94444C118.98199,84.70109 118.37892,85.42033 118.08533,86.30978C117.78075,87.23257 118,88.11111 118,88.86828C118,89.75928 117.96853,90.77837 118.00134,91.68044C118.02985,92.46442 118.49675,93.27982 118.83334,94.11111C119.13992,94.8683 119.17088,95.82519 120,96.11111C120.82954,96.39719 120.92635,97.28289 121.02084,98.11111C121.13409,99.10386 121.65247,99.75049 122.10017,100.65378C122.44348,101.34646 122.65367,102.18318 123.32133,102.96794C123.76372,103.48792 124.60114,103.62697 125.58933,104.17245C126.2864,104.55723 126.58492,105.3703 127.3215,106.31094C127.80391,106.92698 128.37407,107.494 129.20016,108.08978C129.79037,108.51543 130.46841,108.84514 131.42101,109.43244C132.21365,109.92113 132.86684,110.12756 133.6355,111.08945C134.10216,111.67342 133.90865,112.69209 134.28799,113.59511C134.59608,114.3285 135.31415,114.9775 136.00084,115.35394C136.69557,115.73479 137.76385,116.15874 137.996,116.91111C138.28036,117.83269 138.55069,118.61678 139.0625,119.13194C139.66394,119.73734 140.41267,120.32221 141.20399,120.88978C141.92555,121.40731 142.79013,121.90876 143.28534,122.67911C143.64557,123.23949 144.38426,123.90484 144.98534,124.54711C145.53625,125.13579 146.17241,125.68719 146.89467,126.40661C147.46205,126.97176 148.30818,127.12096 149.33333,127.44444C149.97624,127.64732 150.63309,127.95377 151.27733,128.26044C152.52161,128.85274 153.31224,129.01001 154.16667,129.27777C154.84438,129.49016 155.56093,130.03433 155.89017,131.11194C156.1015,131.80368 156.26877,132.91541 157.10033,133.11145C157.80408,133.27736 158.78069,133.65904 159.47917,134.13194C159.94733,134.4489 160.30684,135.56241 161.07201,136.10045C161.7352,136.56677 162.688,136.11111 163.68401,136.11111C164.5,136.11111 165.31599,136.11111 166.31334,136.11111C167.15334,136.11111 168.50591,136.40953 168.94284,135.75394C169.41286,135.04871 169.02484,134.12228 169.36166,133.11028C169.604,132.38216 170.1122,131.50215 170.836,131.20845C171.56424,130.91295 172.67511,130.88661 173.28566,130.40662C174.10464,129.76276 173.88351,128.70294 174.0045,127.81111C174.11592,126.98977 174.85159,126.34246 174.9955,125.41111C175.12083,124.59989 175,123.62711 175,122.76378C175,121.86828 175,120.91245 175,120.04977C175,119.24978 175,118.27778 175,117.41561C175,116.51111 175,115.70045 175,114.78995C175,113.97244 175,112.94444 175,112.01094C175,111.22578 175,110.29645 175,109.35394C175,108.50044 175,107.61111 175.01067,106.70045L175.22133,105.78995L175.5,105.13194L175.94284,104.22544" id="svg_5" stroke-width="3" stroke="#000" fill="none"/>
  <path t="28083,28199,28232,28232,28232,28264,28264,28282,28299,28314,28314,28332,28365,28365,28382,28382,28399,28414,28434,28434,28449,28449,28481,28499,28532,28532,28532,28675" d="M153,124.11111C153.54167,121.63194 154.33429,121.03115 155,120.59028C155.52673,120.24145 156.17055,119.40533 156.6955,118.82095C157.39282,118.04466 158.05479,117.41983 158.85201,117.19511C159.69786,116.95669 160.81329,116.9502 161,116.11111C161.16446,115.37202 161,114.45844 161,113.59511C161,112.63194 160.93755,111.68037 161.22133,110.78978C161.44408,110.09076 161.90987,109.1366 161.99867,108.31245C162.08932,107.47112 162.76167,106.94411 163.48267,106.25911L163.97917,105.61111L164.43066,104.96311L165,104.10978" id="svg_6" stroke-width="3" stroke="#000" fill="none"/>
  <path t="29299,29407,29407,29448,29448,29482,29482,29515,29515,29548,29587,29640,29641,29664,29806,29807" d="M150,96.11111C150,97.11111 149.94156,97.87077 150.009,98.76828C150.06557,99.52087 150.56136,100.51478 151,101.09028C151.65683,101.95204 151.62181,102.79381 152.02083,103.59028C152.38446,104.31615 153,104.68044 153,105.46294L153,106.48578L153.00017,107.43227L153.036,108.24978" id="svg_7" stroke-width="3" stroke="#000" fill="none"/>
  <path t="30545,30913,30931,30964,30981,31038,31185,31215,31215" d="M156,91.11111C156,90.11111 156.44975,89.56582 156.91467,88.82578C157.40271,88.04892 157.35266,87.16827 158.16701,87.05395L159.058,86.75394L159.724,86.50044" id="svg_8" stroke-width="3" stroke="#000" fill="none"/>
  <path t="32044,32237,32247,32247,32264,32281,32315,32331,32331,32364,32364" d="M138,107.11111C138.08533,106.22444 138.3119,105.20331 138.80133,104.68044C139.46324,103.9733 140.48634,104.09727 141.06134,103.50044C141.71356,102.82345 142.43201,102.39645 143.16667,101.77778L143.52083,101.11111" id="svg_9" stroke-width="3" stroke="#000" fill="none"/>
  <path t="33254,33515,33530,33586,33586,33613,33613,33663,33681,33714,33773,33814,33814,33864,33864,33880,33898,33913,33913,33913,33931,33931,33946,33992,33992,33993,34013,34115,34115,34192,34232,34232,34264,34281,34281,34281,34282,34325,34364,34403,34403,34529,34669,34680,34696,34696,34714,34714,34714,34731,34731,34763,34763,34801,34801,34801,34813,34880,34880,34896,34941,34980,34980,34997,35014,35014,35099,35099,35100,35113,35130,35131,35147,35147,35163,35163,35197,35197,35213,35230,35247,35247,35247,35263,35263,35279,35279,35297,35297,35314,35401,35402,35402,35429,35429,35435" d="M127,89.11111C127,87.31111 127,86.47511 127,85.62578C127,84.70661 127,83.71378 127,82.98311C127,81.94444 127.3801,81.30295 127.964,80.68578C128.44592,80.17638 128.95598,79.54613 128.99867,78.67911C129.04837,77.66966 128.9411,76.90107 129.5,76.13194C129.95064,75.51179 130.39388,74.74165 131.04167,74.13194C131.56604,73.63839 132.65527,73.40352 133.42934,73.02844C134.18808,72.66079 134.84282,71.886 135.52083,71.63194C136.22353,71.36863 137.5537,71.29544 137.91467,70.54311C138.29021,69.76047 138.49857,69.23458 139.2,68.82578C139.88371,68.42728 140.54283,67.5869 141.16667,66.77778C141.67082,66.12389 141.93851,65.57951 142.51601,64.96445C143.2888,64.1414 144.30458,64.12217 145.16667,64.11111C145.97937,64.10069 146.65944,63.64035 147.16667,62.94444C147.65752,62.27102 147.80841,63.2372 147.23833,63.86828C146.55078,64.62937 145.97559,65.11113 145.48399,65.71244C144.85291,66.48438 144.46188,67.30956 143.90016,68.08945C143.40065,68.78294 142.67946,69.45782 142.13867,69.96178C141.49742,70.55936 140.59035,70.95522 139.8,71.39511C139.15398,71.75467 138.31247,72.18745 137.47917,72.61111C136.68999,73.01235 135.70346,72.69833 134.95183,73.22544C134.25093,73.71697 134.28506,74.55597 133.51601,75.50978C133.0285,76.11441 132.52512,76.66958 131.75717,77.34944C131.03615,77.98776 130.22052,78.15408 129.60001,78.97244C129.13579,79.58468 128.75113,80.43463 128.02933,80.90977C127.28522,81.3996 126.50471,81.54684 125.5,81.94444C124.73024,82.24906 123.92471,82.8083 123.24,83.33244C122.75735,83.70191 121.89278,84.4621 121.45734,85.27511C121.04131,86.05186 120.87864,86.96989 120.13866,87.51111C119.5185,87.96469 118.6603,88.5603 117.83334,89.11111C117.18887,89.54037 116.39867,89.82578 115.60133,90.02578L114.65717,90.10661L113.76167,90.10661" id="svg_10" stroke-width="3" stroke="#000" fill="none"/>
  <path t="38885,38978,38978,38978,38978,39013,39013,39079,39080,39096,39111,39112,39165,39165,39196,39243,39243,39289,39312,39312,39329,39329,39329,39362,39378,39430,39430,39444,39463,39463,39480,39480,39480,39511,39512,39528,39546,39546,39563,39563,39563,39578,39578,39596,39596,39596,39633,39662,39678,39678,39678,39695,39711,39712,39712,39727,39728,39728,39728,39746,39746,39763,39763,39778,39796,39796,39813,39813,39828,39828,39828,39846,39846,39846,39862,39862,39862,39946,39961,39979,39996,39996,39996,39996,40011,40011,40063,40063,40077,40078,40128,40146,40146,40162,40178,40178,40194,40195,40195,40212,40212,40212,40228,40229,40246,40262,40277,40294,40294,40294,40312,40329,40344,40361,40361,40378,40378,40396,40396,40411,40411,40411,40429,40429,40445,40461,40478,40496,40496,40511,40512,40528,40528,40544,40544,40562,40577,40578,40578,40595,40595,40595,40612,40612,40613,40627,40628,40628,40644,40644,40644,40645,40662,40662,40662,40677,40678,40678,40694,40695,40695,40710,40728,40746,40747,40761,40762,40778,40794,40795,40829,40829,40829,40844,40862,40862,40878,40878,40879,40894,40912,40912,40912,40927,40946,40946,40961,40977,40978,40994,40994,41010,41011,41011,41027,41028,41062,41078,41078,41094,41111,41152,41152,41153,41179,41194,41227,41228,41228,41244,41245,41245,41245,41261,41262,41262,41347,41347,41396,41444,41445,41461,41462,41462,41478,41494,41495,41495,41511,41544,41545,41561,41561,41578,41578,41594,41594,41610,41611,41629,41681,41729,41746,41747,41762,41778,41778,41779,41815,41816,41846,41877,41878,41894,41894,41911,41928,42127,42127,42143,42161,42161,42179,42179,42179,42193,42227,42228,42244,42244,42262,42263,42278,42312,42313,42328,42343,42362,42362,42395,42429,42444,42445,42479,42479,42495,42495,42510,42511,42529,42544,42560,42561,42578,42578,42595,42595,42596,42611,42612,42612,42627,42662,42663,42677,42677,42678,42678,42694,42694,42695,42710,42711,42728,42762,42762,42763,42778,42778,42793,42794,42795,42795,42810,42811,42811,42827,42828,42828,42844,42862,42862,42876,42895,42895,42927,42944,42960,42961,42961,42962,42977,42977,42995,42995,43011,43027,43028,43045,43045,43046,43147,43148,43163,43224,43225,43244,43260,43318,43319,43345,43345,43360,43435,43460,43461,43477,43477,43494,43494,43528,43544,43545,43560,43577,43578,43578,43609,43715,43745,43760,43778,43779,43795,43795,43796,43965,43966,44012,44013,44013,44028,44029,44030,44044,44062,44062,44077,44309,44310,44345,44361,44362,44362,44378,44379,44379,44380,44394,44394,44411,44412,44413,44426,44427,44428,44428,44429,44443,44444,44445,44445,44461,44461,44462,44477,44478,44480,44494,44495,44495,44510,44511,44512,44512,44514,44527,44528,44545,44546,44560,44561,44562,44578,44578,44594,44595,44596,44650,44651,44677,44695,44712,44713,44728,44744,44745,44745,44760,44761,44761,44762,44822,44823,44844,44845,44860,44895,44910,44928,44929,44930,44945,44946,44946,44961,44978,44995,45010,45011,45028,45029,45045,45060,45060,45061,45078,45079,45128,45128,45129,45147,45147,45148,45149,45160,45160,45176,45177,45195,45210,45211,45212,45228,45229,45245,45246,45247,45260,45261,45295,45311,45312,45327,45328,45345,45346,45347,45359,45378,45379,45395,45396,45410,45411,45427,45428,45428,45444,45478,45479,45495,45496,45510,45528,45529,45530,45545,45546,45560,45562,45578,45594,45594,45611,45612,45613,45628,45629,45630,45643,45644,45661,45678,45679,45695,45696,45710,45711,45712,45761,45762,45778,45794,45795,45811,45812,45813,45828,45829,45843,45844,45845,45861,45862,45863,45876,45877,45893,45894,45943,45982,46010,46026,46027,46076,46077,46094,46095,46111" d="M188,133.11111C186.5,133.61111 185.9375,134.17361 185.47917,134.63194C184.76666,135.34444 184.04346,136.23808 183.38533,136.65378C182.58588,137.15874 181.59796,136.81244 180.76167,137.12012C179.93547,137.42409 180.01437,138.55298 179.43201,139.22578C178.94083,139.79323 178.2489,140.48415 177.7785,141.21094C177.31931,141.92043 176.36212,142.05582 175.51466,142.11378C174.59091,142.17697 173.78368,142.5314 173.02083,143.11111C172.47304,143.52739 171.50891,143.96881 170.7,144.11562C169.77361,144.28374 169.28094,144.9109 168.94733,145.86827C168.6342,146.76685 168.40611,147.35991 167.67867,148.31094C167.20746,148.92697 166.63446,149.43629 165.88667,150.22578C165.34827,150.7942 165.09377,151.7188 164.42934,152.31111C163.85921,152.81937 162.76636,153.15662 162.22133,153.53244C161.52029,154.01584 161.07585,155.11729 161.02133,155.89644C160.94817,156.94211 161,157.64944 161,158.44945C161,159.46445 160.88235,160.27592 160.43201,160.96445C159.99678,161.62985 159.36897,162.27585 159.07201,163.46045C158.83209,164.41747 159.02429,165.12708 158.964,165.93245C158.87549,167.11502 158.72147,167.71114 158.5,168.59027C158.28918,169.42711 158.0527,170.42218 158.01067,171.26445C157.96268,172.22597 158,172.99512 158,173.93645C158,174.94444 157.94838,175.74976 158.44667,176.53244C158.82465,177.12616 159.49246,177.87471 160,178.63194C160.35327,179.15901 160.95961,180.20139 161.38533,180.87511C161.79179,181.51836 162.52628,182.33089 163.24001,182.88977C163.70319,183.25246 164.86995,183.90741 165,184.63194C165.16096,185.52878 165,186.61111 165,187.16312C165,188.11111 164.92986,188.75508 165.00133,190.05377C165.04378,190.8252 165.89825,191.43382 165.97917,192.13194C166.08946,193.08347 166,193.90977 166,194.94444C166,195.82094 166.00008,196.62845 166,197.48578C165.99991,198.43277 166.04391,199.16307 165.83333,200.27777C165.68381,201.06924 165.45761,201.91646 164.83333,202.77777C164.41591,203.35367 163.53323,203.75804 163.17067,204.59511C162.82156,205.40111 163.17911,206.49484 162.99867,207.30978C162.81813,208.1252 162.11133,208.77393 162,209.63194C161.90768,210.34341 161.49655,211.22491 161.16667,212.11111C160.84096,212.98611 161.06941,213.97151 160.95833,214.61111C160.78009,215.63742 159.90614,215.88133 159.02167,216.33295C158.36539,216.66805 158.10893,217.6524 158.02533,218.37244C157.93372,219.16148 157.82959,220.20749 157.5,221.04861C157.11523,222.03056 157.0007,222.81644 157,223.77777C156.99933,224.68178 157.03979,225.34988 156.77867,226.31094C156.56166,227.10963 156.06905,228.08365 156.0045,228.86378C155.93065,229.75633 155.86629,230.59386 155.13867,231.07111C154.20889,231.68095 153.74463,232.16753 153.41066,232.87111C152.98384,233.77028 152.58537,234.45743 152.11467,235.07912C151.51088,235.8766 150.99251,236.62712 150.65266,237.16295C150.00697,238.18098 149.61974,238.89354 149.24733,239.62094C148.66978,240.74902 148.35939,241.41681 147.97917,242.06944C147.6113,242.7009 146.79915,243.62399 146.22133,244.00978C145.56932,244.4451 145.15617,245.24765 145,246.15277C144.88602,246.81334 144.60651,248.09645 144.14934,248.82845C143.74689,249.47284 143.08565,250.21478 143,251.21111C142.92291,252.1078 143,252.86827 143,253.76378C143,254.62711 143.04855,255.66544 142.43201,256.31378C141.91714,256.85519 141.18857,257.64282 141.07201,258.36179C140.95251,259.09882 141.02853,260.29727 141,261.11111C140.97141,261.92694 140.716,262.87912 140.5,263.61111C140.284,264.34311 140.02132,265.46002 140,266.44446C139.98555,267.11179 140.08986,268.11105 139.64734,268.94861C139.21628,269.76447 139.00226,270.46295 139,271.35843C138.9977,272.27777 139,273.11111 139,274.08994C139,274.92093 139,275.88043 139,276.63196C139,277.42844 139,278.42444 139,279.26443C139,280.22577 139,281.21127 139,281.99643C139,282.92578 138.96524,283.87787 139.22133,284.77527C139.40109,285.40518 139.5425,286.14197 139.94733,287.29227C140.21646,288.05701 140.82523,288.61282 140.996,289.40845C141.15929,290.16916 141.64235,291.20926 142.0625,291.65845C142.72697,292.36884 143.31079,292.73782 144.03067,293.79245C144.53647,294.53345 144.76813,295.3988 145.48267,295.85645C146.20758,296.32074 146.97279,296.75885 147.00133,297.68311C147.02249,298.36899 147.18823,299.54199 147.436,300.31512C147.6731,301.0549 148.42062,301.7178 148.83333,302.61111C149.16777,303.33502 148.86844,304.1189 149.00133,305.1391C149.11485,306.01062 149.946,306.2059 150.64816,306.82544C151.35744,307.45126 151.83987,308.29471 151.95833,309.11111C152.10205,310.10162 152,310.90045 152,311.94446C152,312.70044 152.14905,313.47592 152.64734,314.16379C153.14989,314.85751 153.32634,315.66214 153.64734,316.46295C153.99925,317.34088 154.33163,318.27908 154.85066,318.94711C155.29323,319.51675 155.84024,320.29407 155.95833,321.09027C156.10507,322.07965 156,323.11111 156,323.86829C156,324.76376 156,325.62711 156,326.59027C156,327.50046 155.84959,328.46521 156.036,329.26044C156.21974,330.04431 157.33089,330.19092 158.02083,330.06946C159.02705,329.8923 159.7794,329.26126 160.28566,328.81644C161.08383,328.11508 162,328.11111 162.75717,328.11111C163.65717,328.11111 164.4053,328.15073 165.5955,328.1066C166.34418,328.07883 167.18652,327.65543 168,327.27777C168.76041,326.92474 169.68521,326.66974 170.38933,326.12576C171.01086,325.6456 171.1886,324.77774 171.716,324.11377C172.17659,323.53394 172.57378,322.6319 173,322.11111C173.67592,321.28525 173.96765,320.44022 174.56934,319.9111C175.12088,319.42609 176.13289,318.93152 176.6955,318.4111C177.41348,317.74698 177.98352,317.02631 178.44667,316.24979C178.85129,315.57138 179.48253,314.99109 180.21066,314.48578C180.99699,313.94009 181.59296,313.45023 182.2,312.93643C182.99097,312.26694 183.85684,311.84589 184.42934,311.31244C185.17119,310.62119 185.57872,309.91812 186.25734,309.43912C187.17595,308.79071 187.68051,308.34042 188.22533,307.87112C189.04213,307.16754 189.81311,306.56516 190.53833,306.27362C191.31978,305.95947 192.19318,305.36407 192.6955,304.81644C193.35086,304.10193 194.16798,303.77945 194.836,303.26044C195.40561,302.81787 196.40572,302.2952 197.23599,302.06046C198.17197,301.79581 198.97083,301.42984 199.45833,301.04861C200.19023,300.47629 200.71252,299.41592 201.02083,298.65277C201.30415,297.95145 202.12796,297.33331 202.70134,297.20844C203.57986,297.01709 204.53813,296.61432 205.44284,296.2326C206.13452,295.94077 207.17522,296.30621 208,295.94446C208.73509,295.62204 209.53459,295.24808 210.42134,295.08978C211.37022,294.92038 212.00603,294.39911 212.52083,294.11111C213.31163,293.66873 214.30602,293.21671 215.18933,293.13245C216.19531,293.0365 216.98099,293.31137 217.94934,293.10043C218.77209,292.9212 219.45305,292.40051 220.42134,292.2326C221.21797,292.09448 222.04742,292.12564 223.07817,292.11093C223.93767,292.09866 224.67906,291.61102 225.44284,291.2326C226.11552,290.89932 227.24283,291.11111 228.10001,291.11111C229,291.11111 229.75717,291.11111 230.82533,291.11111C231.51601,291.11111 232.47917,291.11111 233.41066,291.11111C234.3215,291.11111 235.21066,291.11111 236.19983,291.11111C236.97917,291.11111 238.08626,290.80368 238.71333,291.19644C239.43275,291.64703 239.83685,292.55536 240.51733,292.82578C241.49234,293.21323 242.34262,293.42825 243.00084,293.81644C243.72397,294.24289 244.72371,294.66928 245.5,295.13196C246.17738,295.53568 246.86121,296.07837 247.83333,296.11111C248.52075,296.13428 249.54254,296.33347 250.26134,296.53644C251.05151,296.75955 252.12341,296.83316 252.9375,297.15277C253.73918,297.46753 253.88689,298.43182 254.16251,299.16745C254.56187,300.23334 255.02763,300.68155 255.724,301.22845C256.60001,301.91644 257.16931,302.58511 257.52084,303.11111C258.11703,304.0032 258.89981,304.99097 259.71466,304.74179C260.41312,304.5282 260,303.25378 260,302.52777C260,301.62177 260,300.58994 260,299.86295C260,298.77243 260,298.08044 260,296.88177C260,296.15277 260.02075,295.1106 259.98932,294.27911C259.9613,293.5387 259.83783,292.61041 259.716,291.85645C259.57971,291.01294 259.41406,290.11676 259.284,289.19244C259.15552,288.27927 259.08185,287.39926 259.02533,286.56845C258.97266,285.79388 258.85898,284.43851 258.716,283.88177C258.46906,282.92014 258.11166,281.91238 258.02533,281.30045C257.90216,280.42761 257.70667,279.42535 257.5,278.54861C257.34567,277.89389 257.14981,276.77924 257.08533,275.94577C257.01855,275.08295 257.0069,274.2338 257.00134,273.44977C256.99286,272.25113 257.00592,271.50507 256.716,270.62445C256.46155,269.85156 256.13513,268.94824 256.05716,268.16293C255.97893,267.37494 256,266.25378 256,265.46045C256,264.5686 256.06766,263.62851 256,262.96445C255.88876,261.87271 255.34625,261.28394 254.94733,260.4111C254.55873,259.56088 254.0723,258.79471 254.01067,257.93643C253.94334,256.99875 253.67938,256.09399 253.11734,255.68977C252.5462,255.27901 251.56653,254.58186 251.05634,254.10127C250.52841,253.60399 249.75652,252.84868 249.3645,252.03261C248.95317,251.17633 249.06227,250.10776 248.98933,249.33244C248.90489,248.4348 247.88611,248.36838 247.2955,247.88245C246.49585,247.22452 246.59167,246.39326 246.436,245.74045C246.12895,244.45285 246.03296,243.63109 246.0045,242.77728C245.97423,241.86876 246,240.91112 246,240.01111C246,239.11111 246,238.29678 246,237.34444C246,236.63194 246,235.61111 246,234.61111C246,233.82445 246,233.11194 246,232.07912C246,231.30577 245.98358,230.33847 246.02083,229.54861C246.06453,228.62189 246.214,227.58859 246.35266,226.86295C246.49261,226.13049 246.69087,225.42812 246.87849,224.15428C246.99001,223.39716 247,222.27777 247,221.52177C247,220.56944 247,219.56845 247,218.86044C247,218.11644 246.99922,217.07912 247,216.14311C247.00067,215.34178 246.96735,214.58412 247.08533,213.79378C247.26985,212.55756 247.70157,211.99358 247.91467,210.99512C248.1347,209.9642 247.86281,209.25146 248.16667,208.27777C248.39429,207.54842 248.90613,206.57124 248.964,205.86044C249.02444,205.11823 249,204.08177 249,203.11111C249,202.22578 249,201.45395 249,200.50978C249,199.50661 249,198.87511 249,197.69011C249,196.9071 249.00626,196.1781 249,195.13194C248.99466,194.23906 248.97009,193.49182 248.64734,192.51561C248.39517,191.75288 248.12021,190.845 247.83333,189.94444C247.61433,189.25699 247.21181,188.50308 246.7,187.51561C246.30994,186.76305 245.68224,186.07178 245.28534,185.31244C244.87714,184.53146 245.12033,183.60231 244.88567,182.7066C244.66751,181.8739 244.11487,181.31783 243.64816,180.65395C242.98691,179.71333 242.64856,178.89095 242.3045,178.12094C241.91431,177.24765 241.25887,176.5963 241.036,175.70044C240.81593,174.81586 241.01984,174.09007 241,173.11111C240.98399,172.32129 240.52422,171.24297 239.942,170.86378C239.30029,170.44586 238.33449,169.80376 238.04167,169.13194C237.67673,168.29465 236.91147,167.83018 236.52083,167.06944C236.05414,166.16058 236.10767,165.28386 235.83067,164.51111C235.52907,163.66969 234.87526,163.18385 234.33333,162.11111C234.04341,161.53723 234.0045,160.65398 234,159.68977C233.99625,158.88579 234,158.06378 234,157.03261C234,156.13194 234.07704,155.10623 233.98933,154.33244C233.87659,153.33789 233.0609,152.89589 233,152.01111C232.9382,151.11324 233,150.35394 233,149.45395C233,148.50978 233,147.51561 233,146.76828L233,145.74712" id="svg_11" stroke-width="3" stroke="#000" fill="none"/>
  <path t="47290,47361,47361,47361,47377,47377,47377,47394,47394,47410,47410,47410,47410,47426,47426,47445,47445,47445,47445,47445,47461,47518,47519,47545,47545,47595,47629,47644,47644,47660,47661,47678,47678,47710,47710,47786,47786,47812,47845,47877,47877,47911,47927,47945,47961,47961,47976,47977,47994,47995,47995,48012,48027,48027,48027,48043,48113,48113,48127,48127,48144,48161,48162,48176,48177,48252,48253,48260,48260,48277,48294,48295,48310,48311,48344,48361,48361,48362,48393,48393,48428,48428,48428,48620,48645,48661,48661,48661,48876,48876,48876,48895,48927,48928,48943,48943,48960,48960,48961,48977,48978,48978,49010,49011,49026,49026,49045,49045,49045,49059,49059,49077,49078,49078,49078,49093,49094,49094,49110,49110,49110,49110,49111,49126,49126,49143,49177,49194,49195,49210,49210,49226,49264,49294,49309,49310,49310,49325,49342,49360,49360,49376,49376,49394,49427,49442,49442,49443,49460,49460,49475,49841,49842,49877,49910,49910,49925,49925,49925,49925,49941,49960,49960,49961,49976,49992,49992,50009,50009,50010,50042,50093,50093,50094,50126,50160,50160,50178,50178,50178,50210,50210,50242,50242,50242,50243,50260,50260,50277,50291,50376,50376,50394,50426,50426,50427,50443,50460,50493,50509,50526,50560,50560,50577,50593,50593,50608,50609,50658,50659,50676,50676,50691,50710,50726,50726,50743,50743,50759,50759,50760,50776,50776,50793,50794,50825,50843,50916,50916,51057,51078,51079,51080,51166,51167,51192,51276,51346,51377,51448,51448,51477,51477,51527,51527,51576,51592,51867,51867,51874,51910,51910,51911,51925,51926,51926,51943,51943,51960,51961,51961,51975,51992,51992,52008,52008,52025,52025,52027,52060,52061,52076,52093,52110,52110,52126,52126,52143,52160,52160,52161,52193,52248,52249,52276,52293,52293,52326,52342,52342,52343,52358,52358,52359,52374,52375,52410,52425,52426,52426,52442,52442,52460,52476,52493,52493,52510,52510,52511,52526,52527,52527,52560,52560,52592,52608,52626,52626,52627,52628,52643,52644,52644,52660,52660,52676,52692,52692,52708,52708,52709,52786,52787,52794,52794,52810,52826,52827,52827,52842,52842,52858,52875,52876,52893,52926,52926,52927,52957,52958,52958,52959,53013,53013,53014,53058,53238,53259,53275,53276,53277,53277,53293,53293,53294,53294,53308,53309,53310,53343,53343,53358,53359,53359,53360,53375,53376,53377,53392,53393,53393,53394,53408,53409,53409,53410,53425,53426,53442,53458,53459,53459,53474,53475,53491,53492,53508,53509,53509,53525,53526,53541,53542,53543,53543,53558,53559,53559,53560,53575,53576,53592,53592,53593,53609,53609,53610,53625,53625,53661,53661,53691,53692,53709,53725,53726,53726,53741,53742,53757,53758,53777,53778,53808,53809,53809,53810,53826,53827,53827,53828,53842,53843,53844,53876,53876,53891,53892,53893,53893,53926,53927,53965,53965,53993,54008,54009,54010,54275,54275,54291,54308,54309,54310,54376,54408,54409,54409,54426,54426,54427,54428,54428,54429,54441,54442,54443,54459,54459,54491,54492,54540,54548,54549,54550,54558,54559,54575,54593,54594,54609,54610,54626,54658,54659,54659,54674,54675,54676,54726,54726,54742,54743,54759,54760,54761,54775,54776,54777,54778,54829,54829,54842,54859,54859,54876,54878,54892,54893,54894,54895,54908,54908,54909,54959,54975,54976,54993,54994,54994,55009,55010,55011,55026,55027,55042,55043,55060,55060,55076,55077,55077,55093,55108,55109,55125,55126,55126,55141,55142,55143,55158,55160,55175,55176,55209,55210,55211,55227" d="M157,154.11111C155.23199,155.59645 154.47218,156.09851 153.76801,156.71245C153.11566,157.2812 152.56343,158.1252 152.11734,158.62578C151.40596,159.42404 150.74026,159.71873 150,160.44444C149.35883,161.07301 148.84222,161.86502 148.48534,162.34311C147.75626,163.31979 147.30536,163.80043 146.5,164.61111C145.95116,165.16359 145.33467,165.77644 144.71201,166.39911C144.13733,166.97377 143.38467,167.89488 142.55733,168.11145C141.87019,168.29132 141.14659,168.83112 140.95183,169.46295C140.63365,170.49518 140.06088,171.20499 140,172.11111C139.94923,172.86656 140,173.76828 140,174.71245C140,175.70212 140.02211,176.397 140,177.44444C139.98199,178.29701 139.63298,179.17993 139.284,179.90977C138.91876,180.67361 139,181.63194 139,182.59511C139,183.28578 138.85756,184.36589 139.00017,185.21094C139.14417,186.06424 139.87408,186.55498 140.02533,187.33244C140.21591,188.31209 140.44611,189.16919 141.16667,189.94444C141.59698,190.40742 142.58853,190.81593 142.97917,191.65277C143.41475,192.58588 143.36317,193.3837 143.7045,194.04861C144.1962,195.00648 144.78479,195.5836 145.06134,196.29645C145.44418,197.28326 146.24165,197.61079 146.832,198.31111C147.44049,199.03296 148.04463,199.57434 148.83333,200.11111C149.52225,200.57999 150.18655,201.08015 150.97917,201.61111C151.68544,202.08423 151.99866,202.91112 152,203.74712C152.00163,204.76828 152,205.51561 152,206.50844C152,207.23911 152.03459,208.23412 152.22133,208.99661C152.42383,209.82347 152.68146,210.75093 152.87849,211.84645C153.00041,212.52429 153,213.61111 153,214.38712C153,215.05312 152.86755,216.23645 153.17149,216.92995C153.52296,217.7319 154.28165,218.36658 154.75999,218.86044C155.65735,219.7869 156.31746,220.20116 156.71201,220.90845C157.18021,221.74777 157.06671,222.6891 156.94284,223.52011C156.7932,224.52394 156.40778,225.37244 155.66667,225.77777C154.8217,226.23993 153.8862,226.10976 153.14317,226.77528C152.56639,227.2919 152.43886,228.13319 152.08133,229.14044C151.80092,229.93044 150.93631,230.41928 150.20399,230.71111C149.1712,231.12268 148.39857,231.31792 147.88266,231.74712C147.02791,232.45821 146.99301,233.3979 146.5,234.27777C146.19377,234.82431 145.47528,235.60774 145.00084,236.15845C144.32777,236.9397 143.84514,237.68988 143.31334,238.30045C142.55911,239.16638 141.95139,239.51643 141.32401,239.91112C140.67943,240.31662 139.95012,240.59863 139.05733,241.50978C138.38129,242.19972 138.36201,243.21338 137.83333,243.94444C137.345,244.61971 137.01042,245.15263 137,246.31078C136.99318,247.06941 136.81381,247.72794 136.284,248.28178C135.64612,248.94859 135.69731,250.13138 135.29466,250.7066C134.881,251.29756 134.09575,252.21262 134,253.06294C133.89821,253.96698 133.97424,254.77327 133.13867,255.46445C132.56209,255.94141 131.37048,255.98619 131,256.67361C130.52328,257.55817 130.56126,258.35791 130.35266,259.10577C130.06546,260.13544 130.1015,261.06573 129.42534,261.67511C128.70377,262.32541 127.82166,262.29456 126.89467,262.05396C126.04836,261.83432 125.4849,261.38251 124.35767,261.01111C123.70811,260.79709 123.00714,260.69992 122.13866,260.3111C121.05821,259.82739 120.33932,259.20142 119.71333,259.14713C118.76958,259.06525 117.69191,259.29855 116.89967,258.66846C116.34327,258.22595 115.68205,257.39175 114.99917,257.22095C114.07766,256.99045 113.25126,256.59341 112.5,256.27777C111.76481,255.96889 111.00084,256.11346 109.81433,256.11111C108.89967,256.10928 108.18011,256.07617 107.23067,255.82712C106.47433,255.62871 105.68666,255.37415 104.684,255.19377C103.77788,255.03076 102.82343,254.798 102.04733,254.40578C101.49255,254.1254 100.71812,253.57964 99.688,253.28178C98.90117,253.05428 97.89467,253.11111 97.13866,253.11111C96.16666,253.11111 95.3045,253.11119 94.45834,253.11111C93.45734,253.11102 92.73721,253.19676 91.768,253.02577C90.79263,252.8537 90.01237,252.19485 89.16666,252.11111C88.39312,252.03453 87.45673,252.16162 86.51733,251.82712C85.84139,251.58643 84.96038,251.06236 84.28567,250.75844C83.41058,250.36426 82.55966,250.40038 81.71433,250.11562C80.91541,249.84648 81.14047,248.70084 80.29017,248.22545C79.72231,247.90797 78.62514,248.24884 77.7,248.10661C76.76602,247.96303 76.20412,247.38654 75.232,247.19511C74.50908,247.05276 73.2867,247.03714 72.66133,246.66444C72.0603,246.30626 71.37087,245.43663 70.82533,244.97244C70.05295,244.31525 69.20133,244.11246 68.3,244.11111C67.35717,244.10971 66.432,244.11111 65.568,244.11111C64.63383,244.11111 63.66667,244.11111 62.99467,244.11111C62.25067,244.11111 61.143,244.11111 60.309,244.11111C59.4,244.11111 58.5,244.11111 57.6,244.11111C56.7,244.11111 55.79733,244.11111 55.02934,244.11111C53.99467,244.11111 53.25067,244.11111 52.143,244.11111C51.42133,244.11111 50.34958,243.64839 49.52083,244.17361C48.76024,244.65564 48.10893,246.29916 49,246.50444C49.77907,246.68393 49.84132,245.20007 50.46617,244.81644C51.3705,244.26122 52.22366,244.155 53.04733,244.12012C54.31358,244.0665 54.99579,244.17882 56,243.94444C56.8089,243.75566 57.49056,243.27747 58.5,243.13194C59.31335,243.01469 60.21075,243.12381 61.2,243.11095C62.0002,243.10054 63.01381,242.9828 63.77867,242.68578C64.44297,242.4278 65.44283,242.11111 66.18533,242.11111C67.24284,242.11111 68.1,242.11111 69,242.11111C69.75716,242.11111 70.65266,242.11111 71.516,242.11111C72.52084,242.11111 73.54266,242.11111 74.25066,242.11111C74.99467,242.11111 76.02934,242.11111 77,242.11111C77.8,242.11111 78.75716,242.11111 79.64817,242.11111C80.43066,242.11111 81.33872,242.10313 82.13866,242.11244C83.04182,242.12294 83.71678,242.0882 84.957,242.33244C85.73949,242.48654 86.58323,242.90158 87.591,243.05394C88.27983,243.15808 89.37872,243.04655 90.16666,243.27777C91.04648,243.53593 91.58612,243.90913 92.5955,244.05394C93.50703,244.18471 94.47916,244.11111 95.41067,244.11111C96.3215,244.11111 97.02084,244.11111 98,244.11111C98.81067,244.11111 99.68533,244.11111 100.684,244.11111C101.5,244.11111 102.316,244.11111 103.312,244.11111C104.11733,244.11111 105.19296,243.95705 106.04166,244.17361C107.06243,244.43408 107.40421,244.96179 108.02084,245.63194C108.45922,246.1084 109.39503,247.01625 110.21467,247.42845C110.72425,247.68472 111.85102,248.04597 112.691,248.10661C113.63356,248.17467 114.48666,248.11111 115.24667,248.11111C116.42133,248.11111 117.22533,248.11111 118.04733,248.11111C119.07833,248.11111 119.75333,248.11111 120.83334,248.11111C121.58933,248.11111 122.57484,248.05949 123.32133,248.55394C124.06454,249.0462 124.51633,249.62811 125.24284,250.35394C125.79893,250.90952 126.47215,251.70818 127.32117,251.98978C128.1095,252.25124 128.86809,252.58386 129.222,253.43262C129.52495,254.15915 130.02245,254.75624 130.76401,255.31111C131.63808,255.96513 132.34068,256.28619 132.948,256.71112C133.75911,257.27863 134.43221,258.09384 134.79601,258.62576C135.38089,259.48093 136.03426,260.38873 135.92799,260.41779C135.03377,260.66217 135.12637,258.83282 134.67067,258.36179C134.17258,257.84692 133.14799,257.22412 132.3465,256.92545C131.53169,256.62183 130.69981,256.46808 129.66667,256.11111C128.91133,255.85013 128.13182,255.35295 127.33383,255.15927C126.49111,254.95474 125.34926,254.6873 124.69917,254.39677C124.01153,254.08948 123.29849,253.78416 122.26417,252.91127C121.83329,252.54764 121.26356,251.6843 120.45683,251.13245C119.76447,250.65883 119.1405,250.491 118.512,250.22711C117.11375,249.64003 116.39725,249.29373 115.69733,248.97244C115.0558,248.67796 114.06816,248.19951 113.204,248.11378C112.33228,248.02731 111.45717,248.11111 110.47916,248.11111C109.68266,248.11111 108.68533,248.11111 107.81067,248.11111C106.8,248.11111 105.99998,248.11778 105,248.11111C104.19994,248.10577 103.39001,248.06245 102.59866,247.82712C101.7515,247.57518 100.83804,247.23216 100.03833,247.17278C99.15564,247.10722 98.50793,247.16273 97.11733,247.39511C96.38201,247.51799 95.66386,247.69875 94.96933,247.82712C93.77326,248.04819 93.02097,248.10069 91.83334,248.11111C91.04736,248.11801 90.22533,248.11111 89.16666,248.11111C88.45717,248.11111 87.6045,248.11111 86.6,248.11111C85.8,248.11111 84.80016,248.11111 84.02084,248.11111C83.0215,248.11111 82.3045,248.11111 81.328,248.11111C80.45717,248.11111 79.73867,248.11111 78.94817,248.11111C77.68533,248.11111 77.02084,248.11111 76,248.11111C75.21067,248.11111 74.16666,248.11111 73.45834,248.11111C72.5,248.11111 71.6285,248.11111 70.9375,248.11111C70.1865,248.11111 68.99993,248.10283 68.204,248.11378C67.43185,248.1244 66.29576,248.03447 65.2645,248.55394C64.64264,248.86719 64.29381,249.70189 63.682,250.35844C63.14163,250.93834 62.01893,251.44191 61.28933,251.75928C60.50445,252.10069 60.11753,252.29607 58.66667,252.77777C57.93607,253.02034 57,253.11111 56.2,253.11111C55.328,253.11111 54.44685,253.0193 53.5,253.17361C52.75272,253.29539 51.928,253.93521 51.5625,254.59027C51.05903,255.49258 51.48185,254.92258 52.058,254.46295C52.70459,253.94713 53.60875,253.23392 54.44383,253.11111C55.13836,253.00897 56.02934,253.11111 57.30667,253.11111C57.82,253.11111 58.92667,253.11111 59.5,253.11111C60.07333,253.11111 61.18,253.11111 62.5925,253.11111C63.31417,253.11111 64.14667,253.11111 65.19984,253.11111C65.97916,253.11111 66.9785,253.11111 67.79867,253.11111C68.672,253.11111 69.54744,253.04872 70.5,253.15277C71.23889,253.23347 72.05723,253.6557 72.63383,254.40578C73.1964,255.13759 74.05923,255.47435 74.76,255.68578C75.66265,255.95811 76.57862,256.10577 77.47916,256.11111C78.49998,256.11716 79.29733,256.11111 80.05634,256.11111C81.0785,256.11111 81.764,256.11111 82.59866,256.11111C83.6,256.11111 84.4,256.11111 85.4,256.11111C86.2,256.11111 87.2005,256.11111 88.0625,256.11111C88.856,256.11111 89.86383,256.11111 90.6535,256.11111C91.47916,256.11111 92.28484,256.11111 93.33334,256.11111C94.256,256.11111 95.3,256.11111 96.20133,256.11111C96.88533,256.11111 97.86975,256.1221 98.576,256.05396C99.86826,255.92928 100.65369,255.75946 101.06533,255.68578C101.88837,255.53847 103.32967,255.24907 104.07584,255.16827C104.87725,255.0815 105.81467,255.11111 106.75784,255.11111C107.424,255.11111 108.42133,255.11111 109.13734,255.11111C109.90933,255.11111 111.33334,255.11111 112.08033,255.11111C112.79633,255.11111 113.78248,255.22482 114.71333,255.03911C115.52625,254.87692 115.7206,253.84247 116.572,253.28178C117.15779,252.89601 118.42151,253.13063 119.204,253.10045C119.93394,253.0723 120.7111,252.53485 121.57066,252.19644C122.35434,251.88791 123.4035,252.1282 124.04166,252.09027C124.77222,252.04684 125.97005,251.84015 126.64,251.67511C127.64301,251.42802 128.50455,251.12035 129.30267,250.72177C130.17174,250.28777 130.836,250.14711 132,250.11111L132.78934,250.11111L133.51466,250.11111L134.55333,250.03911" id="svg_12" stroke-width="3" stroke="#000" fill="none"/>
  <path t="56124,56242,56242,56258,56258,56277,56277,56307,56324,56342,56342,56358,56376,56410,56410,56427,56442,56443,56443,56461,56461,56461,56473,56473,56492,56508,56508,56524,56524,56524,56540,56542,56558,56558,56558,56574,56574,56591,56591,56607,56607,56607,56624,56624,56642,56642,56659,56659,56674,56709,56709,56709,56724,56725,56725,56725,56742,56742,56742,56742,56759,56759,56759,56759,56759,56759,56774,56774,56774,56792,56808,56808,56824,56825,56825,56825,56840,56841,56841,56859,56859,56874,56874,56891,56891,56891,56892,56909,56910,56940,56940,56941,56959,56959,56959,56960,56960,56974,56975,56975,56992,56992,57024,57024,57040,57041,57058,57058,57059,57075,57075,57075,57094,57094,57094,57109,57109,57176,57192,57192,57193,57193,57209,57228,57244,57245,57245,57260,57260,57260" d="M50,244.11111C50,246.91112 50,247.71111 50,248.71111C50,249.51111 50,250.50978 50,251.27512C50,252.22444 49.99274,253.1053 50.35717,253.82094C50.68841,254.47141 51.18784,255.46704 51.95183,256.05844C52.62841,256.58218 53.5637,256.68857 54.10534,257.33527C54.76302,258.12051 54.85275,258.82767 55.18533,259.44577C55.81714,260.61996 56.26547,261.22781 56.79867,261.99243C57.32272,262.74393 57.61344,263.51694 58.5,264.09027C59.24982,264.5752 59.95102,264.95468 60.76933,265.30978C61.50517,265.62912 62.31373,265.84442 63.31467,266.02844C64.18649,266.18875 65.02795,266.40436 65.8,266.97244C66.42422,267.43173 67.16852,268.14447 67.97916,268.56946C68.80537,269.00259 69.52885,269.0769 70.54266,269.33246C71.25712,269.51254 71.97715,269.83908 73.03067,270.02579C73.87366,270.17517 74.836,270.11111 75.60133,270.11111C76.5955,270.11111 77.34283,270.11111 78.37466,270.11111C79.32183,270.11111 80.0625,270.11111 80.772,270.11111C81.97066,270.11111 82.672,270.11111 83.42133,270.11111C84.20267,270.11111 85.40033,270.11111 86.209,270.11111C87.04166,270.11111 87.91434,270.11111 89.33334,270.11111C89.84233,270.11111 90.89633,270.11111 91.42934,270.11111C92.47733,270.11111 92.98033,270.11111 94.33334,270.11111C95.36684,270.11111 96.1311,270.24872 97.11333,270.10977C97.90244,269.99814 98.41462,269.33054 99.42267,269.19644C100.14333,269.10056 100.9453,269.11761 101.75066,269.11246C102.83548,269.10553 103.692,269.11111 104.596,269.11111C105.6,269.11111 106.4,269.11111 107.40266,269.11111C108.272,269.11111 109.33334,269.11111 109.96667,269.11111C110.97916,269.11111 111.63773,269.13367 112.73566,269.11093C113.60455,269.09296 114.48191,268.80042 115.10416,268.61111C115.93256,268.3591 117.08481,268.22763 118.00616,268.15927C118.49049,268.12332 119.47106,268.10599 120.37867,267.94177C121.50739,267.73758 122.17495,267.19159 122.87867,266.67911C123.60704,266.14868 124.40447,266.11563 125.4,266.11111C126.19999,266.10748 127.20264,266.15845 128,266.09027C129.0069,266.00418 129.81006,265.67365 130.45717,265.40662C131.42044,265.00912 132.21646,264.69101 133.04733,264.46829C134.06903,264.1944 134.76347,264.13037 135.59866,264.11246C136.59528,264.09109 137.52428,264.22137 138.396,264.08978C139.5304,263.91855 140.05334,263.54889 140.66533,263.26044C141.58897,262.8251 142.56136,262.48306 143.436,262.08978C144.15361,261.76712 144.52083,261.04861 144.88533,260.4231L145.48534,259.42978L146.02083,258.65277L146.4045,258.1781" id="svg_13" stroke-width="3" stroke="#000" fill="none"/>
  <path t="62505,62655,62656,62672,62672,62690,62690,62690,62706,62706,62706,62723,62723,62723,62739,62740,62755,62755,62772,62772,62790,62823,62823,62856,62856,62873,62873,62888,62889,62906,62906,62922,62922,62939,62957,62957,62957,62973,62973,62973,62990,62990,63004,63006,63006,63023,63024,63039,63040,63054,63072,63072,63107,63107,63123,63123,63123,63139,63139,63139,63156,63173,63190,63223,63239,63239,63258,63259,63272,63273,63289,63307,63323,63338,63339,63357,63374,63374,63388,63389,63407,63408,63422,63422,63440,63440,63456,63456,63456,63474,63489,63506,63506,63506,63522,63523,63539,63539,63555,63574,63588,63589,63589,63605,63606,63624,63625,63640,63640,63657,63657,63673,63673,63674,63688,63689,63689,63706,63706,63722,63723,63892,63900,63901,63901" d="M158,332.11111C159.65266,333.75928 160.09325,334.37692 161.11734,334.94312C161.76888,335.30331 162.77657,335.67026 163.26134,335.98312C164.06427,336.50134 164.85411,337.08752 165.53833,337.71112C166.17336,338.28986 166.85616,339.09616 167.24283,339.71112C167.61163,340.29767 168.07858,341.32233 168.5,342.09027C168.97615,342.95798 169.46611,343.69638 170.32117,343.98978C171.10677,344.25934 171.83636,344.73096 172.56799,345.02579C173.37317,345.35025 174.28633,345.3981 174.88667,345.99777C175.48367,346.59412 176.14331,347.2915 176.83333,347.77777C177.60616,348.32242 177.90031,348.96649 178.02533,349.87112C178.15094,350.78009 178.60445,351.44156 179.2955,352.06744C179.97536,352.6832 179.92819,353.41449 180.084,354.42978C180.2383,355.43521 180.53687,356.10056 180.716,356.7951C180.97043,357.78159 180.813,358.66553 181.33333,359.77777C181.60547,360.35947 182.50549,360.7529 182.88567,361.76828C183.15031,362.4751 183,363.50977 183,364.27512C183,365.35843 183,366.27777 183,367.11111C183,367.94446 183.02051,368.7959 183.44267,369.65393C183.80745,370.39532 184.36134,371.13455 184.66667,371.94446C185.00404,372.83936 184.99866,373.62445 185,374.59027C185.00127,375.51111 185,376.4111 185,377.3111C185,378.21127 185,378.99643 185,379.94711C185,380.71243 185,381.7066 185,382.62576C185,383.4751 185,384.4111 185,385.31244C185,386.27777 185,387.09027 185,388.01028C185,388.96445 185,389.63196 185,390.77777C185,391.44977 185,392.43262 185,393.32178C185,394.31094 185,395.09027 185,395.94446C185,396.77243 185,397.87912 185,398.61111C185,399.34311 185,400.42844 185,401.33527C185,402.24844 185,402.82312 185,403.7576C185,404.84677 185,405.71512 185,406.59512C185,407.45844 185,408.4751 185,409.31244C185,410.27777 185,410.95776 185,411.79779C185,412.79376 185,413.59027 185,414.77777C185,415.44977 185.0006,416.43243 185,417.28577C184.99933,418.22845 184.92673,419.08353 184.716,419.88177C184.51164,420.65594 184.25168,421.50851 184.12134,422.41095C183.99345,423.29642 184.022,424.16888 183.77867,425.18945C183.56458,426.08734 183.81143,427.90167 183.0045,427.74945C182.90904,427.73145 183.33333,426.77777 183.70534,426.11029L184.14934,425.39777" id="svg_14" stroke-width="3" stroke="#000" fill="none"/>
  <path t="64817,64873,64873,64873,64873,64891,64891,64892,64892,64892,64892,64892,64905,64906,64906,64906,64906,64906,64906,64906,64906,64923,64923,64924,64940,64940,64940,64955,64955,64955,64973,64973,64973,64990,64990,65005,65006,65021,65022,65022,65040,65040,65055,65055,65055,65072,65073,65090,65090,65105,65105,65105,65140,65140,65156,65156,65173,65173,65173,65190,65190,65190,65205,65205,65205,65205,65223,65223,65239,65240,65256,65256,65256,65256,65272,65272,65288,65289,65289,65305,65305,65321,65322,65340,65356,65371,65372,65372,65390,65390,65406,65406,65423,65423,65423,65440,65440,65440,65455,65456,65472,65473,65473,65489,65489,65505,65505,65539,65541,65541,65555,65573,65590,65590,65606,65607,65607,65622,65622,65622,65640,65654,65654,65673,65673,65673,65690,65690,65690,65706,65706,65723,65723,65887" d="M256,303.11111C254.17067,306.99911 254.05835,307.7677 254.02133,308.59378C254.0018,309.02966 254,310.44446 254,311.48712C254,312.04346 254,312.62576 254,313.87643C254,314.54877 254,315.2551 254,316.77777C254,317.59546 254,318.43912 254,319.29477C254,320.14844 254,320.98611 254,321.79376C254,322.55743 254,323.26312 254,324.44446C254,325.55743 254,326.43912 254,327.24979C254,328.15277 254,328.81479 254,330.06827C254,330.84979 254,331.55927 254,332.79376C254,333.59027 254,334.34177 254,335.30579C254,336.0791 254,337.12094 254,337.89645C254,338.94446 253.99944,339.65393 254,340.50662C254.00067,341.51111 253.93858,342.3342 254.22166,343.3111C254.46147,344.1387 254.85349,344.73706 255.48399,345.50977C255.97502,346.11154 256.91757,346.87579 257.35333,347.49643C257.96393,348.36612 257.96243,349.11548 257.98932,349.86044C258.0293,350.96762 258.03448,351.86694 258.35266,352.77277C258.56003,353.36313 258.90259,354.53024 258.96399,355.33646C259.00574,355.88477 259,357.18994 259,357.89645C259,358.62094 259,359.75378 259,360.41644C259,361.46045 259,362.1431 259,363.33911C259,364.04861 259,365.09012 259,365.80844C259,366.87527 259,367.79779 259,368.4711C259,369.14444 259,370.34177 259,371.09027C259,372.27777 259,373.05927 259,373.84979C259,374.77777 259,375.72577 259,376.59512C259,377.45844 259.09003,378.35764 258.96399,379.24445C258.81848,380.26834 258.56339,380.82053 258.35266,381.7576C258.10837,382.8439 258.05801,383.57098 257.99734,384.59644C257.95432,385.32382 257.57974,386.32748 257.13867,386.9111C256.67142,387.52939 255.99324,388.2941 255.52083,389.11111C255.18056,389.69958 254.71948,390.72501 254.364,391.3111C253.86612,392.13193 253.15752,392.87772 252.70984,393.45395C252.1306,394.19949 251.8694,395.02274 251.29016,395.76828C250.84248,396.34451 250.11766,397.08093 249.64667,397.90045C249.24318,398.60251 249.01042,399.59009 249,400.52179C248.98982,401.43256 249.00644,402.13199 249,403.11111C248.99466,403.92184 248.94855,404.8038 248.716,405.79376C248.52728,406.59717 248.30939,407.34827 248.05267,408.29678C247.80318,409.2186 247.34096,409.7984 247.12117,410.87512C247.00148,411.46149 247.1136,412.48987 246.66667,413.61111C246.39481,414.29315 245.53833,414.75931 245.17067,415.59644C244.87288,416.27448 245,417.31079 245,418.23911L245,419.16177" id="svg_15" stroke-width="3" stroke="#000" fill="none"/>
  <path t="71510,71739,71753,71753,71772,71787,71787,71804,71805,71854,71854,71870,71926,71936,71954,71991" d="M149,81.11111C149.88667,80.02711 150.67581,79.79683 151.34734,79.40661C152.27393,78.86816 152.81718,78.10625 153.05267,77.35394C153.33353,76.45673 153.57787,75.43419 154.44267,75.11095C155.10545,74.86321 155.95833,74.61111 156.01067,73.68578L156.52083,73.11111L157.3,72.75845L158.09984,72.23244" id="svg_16" stroke-width="3" stroke="#000" fill="none"/>
  <path t="73074,73287,73287,73321,73354,73354,73416,73436,73471,73505,73580,73580,73587,73587,73621,73621,73697,73697,73721" d="M127,100.11111C128.38933,98.28577 128.67767,97.58393 128.97917,96.65278C129.25107,95.81306 129.72328,95.22644 129.97467,94.29645C130.22887,93.35607 131.13866,93.43399 131.83333,92.94444C132.62772,92.38463 132.89433,91.76156 133.83333,91.11111C134.38493,90.72902 135,89.94444 135.39999,89.29645L136,88.44444L136.7,88.12011L137.636,88.11111" id="svg_17" stroke-width="3" stroke="#000" fill="none"/>
  <path t="75246,75511,75536,75536,75569,75587,76010,76010,76035,76053,76053,76053,76070,76070,76086,76086,76103,76103,76119,76190,76235,76235,76253,76253,76253,76271,76273,76273,76285,76303,76320,76320,76320,76336,76336,76354,76354,76386,76386,76403,76403,76418,76419,76419,76419,76462,76462,76485,76501,76518,76518,76536,76553,76553,76553,76568,76585,76586,76603,76619,76619,76619,76637,76637,76669,76669,76758,76758,76818,77196,77196,77218,77236,77236,77360,77403,77419,77419,77435,77452,77468,77468,77484,77503,77518,77518,77534,77710,77710,77736,77769,77786,77819,77819,77853,77853,77853,77905,77905,77951,77969,77969,77986,78037,78037,78099,78118,78151,78167,78186,78186,78187,78201,78201,78256,78284,78285,78318,78319,78334,78335,78335,78544,78544,78647,78667,78686,78686,78686,78702,78702,78718,78736,78736,78753,78753,78767,78768,78784,78785,78885,78901,78972,79042,79069,79069,79069,79070,79086,79086,79087,79087,79087,79101,79101,79101,79117,79118,79135,79135,79136,79151,79152,79152,79152" d="M64,328.11111C64,326.35394 63.85848,325.45004 64,324.68045C64.17929,323.70544 64.93912,323.01724 65,322.11111C65.05363,321.3129 65,320.43912 65,319.56827C65,318.84979 65,318.05927 65,316.79645C65,316.13196 65,315.11111 65,314.32178C65,313.27777 65,312.41562 65,311.54712C65,310.61111 65.44317,310.11111 66.25733,310.11111C67.16666,310.11111 67.95267,310.11111 68.77467,310.11111C69.83334,310.11111 70.75338,310.10291 71.51334,310.11111C72.47933,310.12155 73.24226,310.59827 74.16666,310.94446C74.8073,311.18439 75.62756,311.11319 76.5955,311.46829C77.36918,311.75214 78.22635,312.43906 78.884,312.9111C79.62588,313.4436 80.35233,313.75714 80.97066,314.53244C81.38296,315.04938 82.13697,315.8793 82.70133,316.37244C83.2997,316.89526 84.03204,317.31485 84.65867,318.4231C85.08144,319.17081 85,320.16177 85,320.97244C85,321.94446 85.40057,322.9834 84.856,323.67511C84.35786,324.30786 83.29905,324.08899 82.41067,324.1066C81.33887,324.12787 80.55717,324.11111 79.64817,324.11111C78.75267,324.11111 77.83334,324.11111 76.95834,324.11111C76.31333,324.11111 75.31734,324.11111 74.52084,324.11111C73.33334,324.11111 72.52084,324.11111 71.67867,324.11111C70.82533,324.11111 69.83192,324.28952 69,323.94446C68.21564,323.61914 67.47933,323.12155 66.51733,323.11111C65.70988,323.10236 65.18995,322.66003 64.564,322.13644C63.93083,321.60681 63.11662,321.388 62.18533,321.13644C61.24492,320.88242 61.02537,320.11072 61,319.3111C60.9714,318.40973 60.37081,317.63943 60.1215,316.78976C59.87922,315.96408 60.23617,314.91663 59.83333,314.11111C59.47767,313.39993 58.43444,313.69547 57.99866,314.39511C57.56244,315.09546 56.85303,315.52637 56.5,316.17361C55.9196,317.2377 55.71014,318.0632 55.5,318.59027C55.02284,319.78714 54.43444,320.35245 54.1215,321.21112C53.81053,322.06439 54,322.9111 54,323.82578C54,324.68045 54,325.46295 54,326.4751C54,327.40662 54,328.28046 54,329.15277C54,330.11111 54.15243,330.9859 53.744,331.62576C53.16278,332.53632 52.09594,332.35608 51.3645,332.98993C50.77441,333.50128 51.05356,334.46487 50.98933,335.50711C50.94856,336.16873 50.71674,337.1633 50.5,338.11111C50.35317,338.75323 50.07111,339.84146 50.01067,340.67911C49.94509,341.58798 50.33991,342.28329 51.13733,342.67911C51.71099,342.96384 52.62745,343.453 53.5,343.77777C54.42015,344.12027 55.3045,344.11111 56.16667,344.11111C57,344.11111 57.97867,344.11111 58.75267,344.11111C59.65717,344.11111 60.60133,344.11111 61.591,344.11111C62.28567,344.11111 63.35717,344.11111 64.19867,344.11111C65.10983,344.11111 66.19227,344.02966 66.66666,344.77777C67.09358,345.45099 66.97198,346.21481 66.991,346.98627C67.02283,348.2774 67,349.19244 67,349.65479C67,350.56946 67,351.44412 67,352.61111C67,353.53961 67,354.27911 67,355.3111C67,356.11111 67.04407,357.11343 66.97867,357.93243C66.92301,358.62946 66.55733,359.7536 66.29467,360.41196L66,361.09027L65.568,362.05777" id="svg_18" stroke-width="3" stroke="#000" fill="none"/>
  <path t="84561,84693,84693,84693,84717,84734,84750,84750,84750,84767,84784,84857,84857,84902,84933,84948,85052,85084,85084,85153,85153,85166,85181,85183,85253,85284,85285,85285,85401,85433,85435,85465,85482,85483,85535,85536,85705,85733,85750,85750,85807,85848,85883,85883,85917,85932,85932,85970,85998,85999,86015,86015,86033,86066,86083,86100,86134,86165,86166,86212,86213,86248,86298,86298,86298,86333,86333,86390,86416,86416,86641,86641,86752,86752,86813,86999,87031,87049,87065,87065,87083,87083,87098,87114,87133,87165,87165,87181,87215,87215,87248,87248,87326,87326,87366,87366,87399,87399,87416,87416,87431,87431,87490,87491,87536,87622,87649,87649,87664,87681,87739,87766,87911,87981,87999,88015,88015,88031,88114,88182,88198,88198,88198,88214,88214,88214,88231,88249,88283,88315,88315,88331,88332,88365,88402,88415,88416,88432,88432,88449,88449,88486,88514,88564,88582,88599,88616,88616,88632,88632,88649,88790,88816,88816,88862,88863,88881,88881,88916,88916,88916,88947,88966,88982,88982,88999,89016,89016,89032,89033,89033,89048,89048,89064,89065,89082,89082,89172,89172,89197,89198,89216,89216,89217,89232,89232,89232,89266,89266,89297,89331,89365,89365,89382,89383,89398,89399,89399,89414,89414,89449" d="M65,377.11111C67.16666,377.61111 67.37008,378.41766 67.7045,379.0531C68.20245,379.99927 68.91091,380.69897 69.66417,380.98978C70.47133,381.30139 71.31351,381.0036 72.31734,381.53644C73.08266,381.94266 73.852,382.11111 74.724,382.11111C75.63567,382.11111 76.52084,382.11111 77.4,382.11111C78.3045,382.11111 79.32133,382.11111 80,382.11111C80.9785,382.11111 81.79867,382.11353 82.75716,382.11111C83.65267,382.10886 84.61649,382.2038 85.364,381.66446C86.14305,381.10236 86.30275,380.22101 86.8,379.68045C87.48523,378.93558 88.18517,378.3298 88.71467,377.67911C89.25784,377.01163 90.1604,376.74399 90.81433,376.46378C91.72353,376.07419 92.54982,376.48486 93.5,376.11111C94.12392,375.86569 94,374.78976 94,373.93643C94,372.99643 94.28905,371.78922 93.66666,371.27777C93.019,370.74557 92.03603,370.66669 92,369.78976C91.96497,368.93716 92,367.99643 92,367.11111C92,366.35394 92,365.45844 92,364.59512C92,363.63196 92,362.71112 92,361.8111C92,360.91245 92,360.00128 92,359.22845C92,358.4231 92,357.42978 92,356.65277C92,355.61111 92.33825,354.61435 92.70533,354.04861C93.1554,353.35501 93.79177,352.48077 93.95834,351.67361C94.14439,350.772 93.94438,349.90005 94.08533,349.14044C94.27971,348.0929 94.39149,347.24234 95.1,346.47543C95.6631,345.86591 96.50515,345.59555 97.19867,344.91245C97.83813,344.28259 98.4681,344.51651 99.09983,345.21127C99.67325,345.84192 99.9639,346.76248 99.9955,347.45844C100.04113,348.46353 100.57265,349.0892 100.95184,349.81644C101.43001,350.73352 102.25706,350.72336 102.82933,351.39777C103.40931,352.08127 102.87778,353.15173 103.22134,354.08978C103.47476,354.78174 103.94909,355.59372 103.98933,356.32178C104.0549,357.508 104.16003,358.34998 103.71333,359.22577C103.37241,359.8942 102.4829,360.26382 101.82533,360.7471C100.97424,361.37262 100.68249,362.25308 99.9,362.86829C99.29312,363.34543 98.3913,363.61826 97.716,364.11377C97.03235,364.61542 96.91829,365.38559 96.42533,366.12576C95.97739,366.79834 95.75892,367.5835 95.284,368.28046C94.78213,369.01697 94.55228,370.32697 95.16666,370.94446C95.76607,371.54691 96.8,371.11111 97.71467,371.11111C98.61066,371.11111 99.43305,371.15793 100.33334,370.94446C101.26657,370.72318 102.06903,370.45004 102.857,369.78976C103.38573,369.34671 103.75674,368.56488 104.38934,367.75778C104.96025,367.02939 105.13473,366.19806 105.70533,365.45844C106.12392,364.91583 106.68759,364.10144 107.08266,363.31244C107.50367,362.47165 107.86723,361.66068 108.28533,360.90979C108.70216,360.16119 109.2531,359.42209 109.75716,358.76376C110.27167,358.0918 111.4329,357.87714 111.928,357.12576C112.4063,356.3999 112.2098,355.31287 113,355.11111C113.82343,354.90088 114.32854,354.10483 114.85067,353.71112C115.65936,353.10132 115.63441,352.19986 116.05717,351.46829C116.52569,350.65753 117.00057,350.11111 117,349.29678C116.99933,348.34445 117.33575,347.51166 116.83334,346.61111C116.41967,345.86963 115.23129,345.83374 114.52084,345.61111C113.85135,345.40134 113.02518,344.81039 112.57467,344.12576C112.08525,343.38202 112.25138,342.7222 111.97867,341.7471C111.75014,340.93002 110.73526,340.50851 110.16666,339.77777C109.6834,339.15671 109.47488,338.33026 109,337.44446C108.55758,336.6192 107.98766,335.88272 107.24284,335.46829C106.42129,335.0112 105.568,335.16272 104.55733,335.11078C103.84798,335.07431 103.20763,334.34622 102.8375,333.75928C102.28754,332.88718 101.44573,332.63562 100.68134,332.22711C99.90831,331.814 99.18137,331.33847 98.71883,330.7066C98.04856,329.79095 98.11636,328.67816 97.47916,328.13196C96.82005,327.56699 95.82172,327.32678 95.02084,327.11111C94.15083,326.87683 93.79105,326.17606 93.14533,325.62845C92.49888,325.0802 91.68134,324.68045 90.688,324.28177L89.88267,324.13245L88.91734,324.11111" id="svg_19" stroke-width="3" stroke="#000" fill="none"/>
  <path t="95596,95713,95713,95729,95747,95780,95796,95796,95814,95814,95814,95831,95831,95847,95847,95847,95864,95879,95880,95896,95897,95913,95947,95947,96009,96046,96046,96079,96079,96097,96114,96170,96197,96198,96236,96236,96266,96266,96281,96281,96297,96314,96484,96484" d="M64,380.11111C64.94283,382.11194 64.99467,382.8244 65,383.94412C65.00415,384.81561 65,385.63196 65,386.59778C65,387.35779 64.96352,388.53412 65.02133,389.32578C65.07822,390.10477 65.45552,390.95752 66,391.61111C66.68306,392.43106 66.92527,393.10788 66.97867,393.82443C67.06223,394.94571 67,395.82544 67,396.52011C67,397.50977 67,398.45395 67,399.34946C67,400.27777 67,400.99777 67,401.93643C67,402.94446 67,403.73645 67,404.76376C67,405.45844 66.96754,406.47568 67,407.40662C67.0286,408.22693 67.48079,408.96344 67.716,409.71378C68.02094,410.68652 67.94991,411.49512 68.35717,412.36295C68.71566,413.12686 69.21753,413.87073 69.564,414.82443C69.89674,415.74036 70,416.53644 70,417.44446L70,418.29144" id="svg_20" stroke-width="3" stroke="#000" fill="none"/>
  <path t="96941,97013,97013,97013,97031,97031,97047,97047,97047,97064,97064,97079,97079,97115,97130,97164,97164,97181,97246,97264,97264,97264,97279,97314,97346,97346,97364,97364,97364,97397,97397,97397,97428,97429,97464,97497,97497,97605,97724,97746,97763,97763,97763,97763,97763,97780,97780,97780,97795,97795,97812,97813,97813,97813,97828,97829,97845,97845,97845,97861,97862,97878,97878,97878,97895,97896,97913,97913,97930,97945,97945,97963,97963,98049,98049,98097,98112,98112,98145,98221,98290,98290,98517,98547,98562,98562,98578,98578,98595,98596,98596,98612,98612,98647,98647,98680,98680,98697,98697,98712,98712,98766,98797,98813,98813,98829,98846,98862,98863,98863,98863,98880,98897,98912,98912,98929,98945,99150" d="M76,384.11111C76,388.62445 76,389.26443 76,390.14944C76,391.18961 76,392.09027 76,393.11111C76,393.9111 76,394.71112 76,395.71112C76,396.51111 76,397.50977 76,398.27512C76,399.34946 76,400.1951 76,401.11111C76,401.9111 76,402.8111 76,403.65277C76,404.65378 76,405.36179 76,406.34311C76,407.29227 76,408.17361 76,408.96579C76,409.9071 76,410.94446 76,411.64496C76,412.53912 76,413.61111 76,414.39777C76,415.11029 76,416.14178 76,416.99377C76,417.93643 76,418.94446 76,419.70044C76,420.61111 75.98666,421.4957 75.928,421.34576C75.58611,420.47183 75.42909,419.77347 75.14933,418.98843C74.84753,418.14154 74.51695,417.28891 74.243,416.05444C74.08453,415.34042 74.01067,414.40463 74,413.44446C73.99051,412.59033 73.9827,411.61075 74.009,410.75311C74.02871,410.1106 74.02454,409.09174 74.568,408.16446C74.91471,407.57288 75.73163,406.79556 75.88567,406.10577C76.04907,405.37402 76,404.25378 76,403.46045C76,402.34177 76,401.59027 76,400.79376C76,399.79779 76,398.95776 76,397.99512C76,397.22711 76,396.28577 76,395.27777C76,394.48578 76,393.62576 76,392.7066C76,391.71243 75.91304,390.94299 76.00134,389.99643C76.08498,389.0997 76.65556,388.31323 77.5,388.13196C78.39062,387.9408 79.32117,388.11111 80.13866,388.11111C81.08266,388.11111 81.87678,388.32547 82.2955,389.17361C82.62637,389.84378 82.92901,390.96301 82.98933,391.76178C83.05653,392.65146 83,393.37244 83,394.16293C83,395.42444 82.8959,396.07483 83.00034,397.0896C83.08609,397.92288 83.95807,398.41452 84.432,398.99643C85.10915,399.82785 84.99866,400.71243 85,401.7066C85.00101,402.45395 85,403.46445 85,404.27811C85,405.17361 85,405.87112 85,406.96796C85,407.94446 85,408.77777 85,409.52628C85,410.44577 85,411.06046 85,412.39246C85,413.20844 85,414.1691 85,414.83511L85,415.94412L85,416.75845L85.02084,416.54861" id="svg_21" stroke-width="3" stroke="#000" fill="none"/>
  <path t="99760,99796,99796,99811,99811,99830,99861,99861,99879,99879,99897,99897,99913,99913,99929,99929,99946,99962,99978,99978,99994,99994,100012,100012,100012,100029,100029,100045,100063,100063,100078,100078,100078,100096,100096,100127,100128,100146,100146,100161,100162,100162,100179,100179,100196,100211,100228,100228,100246,100261,100296,100332,100361,100404" d="M92,377.11111C92,378.40845 92,379.16745 92,380.18927C92,381.04861 92,381.94312 92,382.82544C92,383.52011 92,384.51111 92,385.3111C92,386.3111 92,387.11111 92,388.11111C92,388.90045 92,389.94446 92,390.80661C92,391.71112 92,392.52179 92,393.43262C92,394.32178 92,395.3111 92,396.11111C92,397.11111 92,397.9111 92,398.71112C92,399.7066 92,400.45395 92,401.48578C92,402.43262 92,403.13196 92,404.11111C92,404.9111 92,405.71112 92,406.70212C92,407.54044 92,408.55411 92,409.33246C92,410.31128 92,411.13196 92,412.27777C92,413.05927 92,413.84979 92,414.77777C92,415.68979 92,416.59027 92,417.36578C92,418.39777 92,419.11029 92,420.14044C92,421.11111 91.83334,421.94446 91.02084,422.15277L91,422.96179L91,423.93777" id="svg_22" stroke-width="3" stroke="#000" fill="none"/>
  <path t="101664,101744,101744,101778,101779,101796,101796,101797,101811,101811,101812,101812,101812,101812,101812,101812,101828,101828,101828,101828,101828,101828,101828,101828,101828,101844,101845,101845,101845,101845,101845,101915,101915,101945,101945,101945,101945,101961,101961,101961,101961,101961,101978,101979,101994,102028,102029,102045,102045,102045,102045,102062,102062,102062,102078,102078,102078,102096,102096,102096,102096,102111,102111,102111,102111,102129,102129,102146,102146,102146,102162,102163,102163,102177,102178,102178,102178,102194,102194,102211,102211,102211,102211,102229,102229,102230,102230,102244,102244,102244,102245,102261,102261,102261,102279,102279,102279,102296,102296,102297,102297,102297,102311,102311,102311,102330,102331,102331,102331,102331,102331,102332,102344,102345,102345,102345,102345,102345,102346,102362,102362,102362,102363,102363,102363,102379,102379,102379,102396,102396,102412,102412,102413,102428,102428,102428,102444,102444,102462,102462,102479,102479,102496,102496,102510,102511,102511,102528,102529,102544,102544,102544,102562,102562,102595,102595,102595,102612,102612,102612,102627,102628,102628,102662,102694,102695,102712,102712,102729,102729,102745,102745,102745,102762,102762,102762,102762,102763,102778,102778,102778,102794,102794,102795,102795,102811,102811,102812,102830,102830,102832,102845,102845,102845,102862,102863,102863,102878,102879,102879,102896,102896,102897,102911,102911,102912,102912,102928,102928,102929,102944,102945,102945,102946,102961,102962,102978,102979,102994,102995,103013,103014,103029,103029,103029,103030,103045,103045,103045,103046,103063,103063,103079,103079,103080,103095,103095,103113,103129,103129,103130,103145,103145,103146,103146,104106,104107,104107,104206,104229,104245,104245,104263,104263,104279,104294,104295,104295,104313,104329,104329,104347,104347,104410,104410,104429,104429,104445,104445,104480,104480,104513,104574,104575,104628,104644,104645,104678,104695,104696,104711,104711,104712,104727,104728,104728,104746,104746,104838,104863,104896,104911,104945,104961,104962,104978,104979,104979,104980,104995,104995,104996,104996,104997,105012,105013,105013,105028,105174,105211,105229,105230,105230,105246,105247,105262,105263,105263,105264,105264,105264,105265,105336,105336,105337,105337,105338,105367,105367,105379,105380,105479,105497,105509,105510" d="M6,31.11111C6,32.11111 6.11248,32.98671 6.872,33.51111C7.55748,33.98439 8.39318,34.35109 9.125,34.59028C9.73267,34.78889 10.99895,34.96033 12.11333,35.02578C12.74703,35.06299 13.42661,35.07785 14.14583,35.09028C14.89996,35.10331 15.68416,35.10787 16.49333,35.10978C18.16666,35.11372 19.02083,35.11111 19.88,35.11111C20.73917,35.11111 21.59333,35.11111 22.4375,35.11111C23.26667,35.11111 24.07583,35.11111 24.86,35.11111C26.33333,35.11111 27.01333,35.11111 27.65333,35.11111C28.81333,35.11111 29.33333,35.11111 30.25333,35.11111C31.33333,35.11111 32.27748,35.09367 33.33333,35.11111C34.01461,35.12236 34.85619,35.2213 35.40267,35.53778C36.37685,36.10194 36.90174,36.86954 37.47917,37.61111C38.04904,38.34299 38.15723,38.87952 39.312,39.68444C40.04021,40.19204 40.86503,40.20646 41,41.11111C41.11671,41.89339 41.88163,42.43887 42.712,42.94711C43.33182,43.32647 44.02061,43.6308 44.94667,44.51111C45.5281,45.06382 45.93448,45.74464 46.768,46.51244C47.23348,46.94122 47.82744,47.27611 48.66667,48.27778C49.07389,48.76383 49.47812,49.64022 49.8625,50.15844C50.6784,51.25845 51.35203,51.65606 51.97917,52.09028C52.58342,52.50866 53.5565,53.28698 53.87733,53.90044C54.4053,54.90996 54.85799,55.49958 55.60266,55.90978C56.38612,56.34133 57.23269,56.78477 57.6,57.16711C58.48446,58.08777 58.79331,58.78483 59.164,59.43511C59.51848,60.05695 60.21006,61.29216 60.69733,61.71511C61.43761,62.35765 62.36433,62.76497 63.02083,63.13194C63.70108,63.5122 64.68984,64.08063 65.228,64.51378C65.97182,65.11247 66.40952,65.58543 66.97867,66.75361C67.2901,67.39282 67.43862,68.11696 67.884,69.05778C68.27006,69.87328 69.03329,70.5825 69.68667,70.99245C70.41216,71.44763 71.25161,71.92659 71.73867,72.39378C72.75033,73.36415 73.047,74.07198 73.33867,74.76178C73.63122,75.45367 73.80375,76.18616 74.48666,77.34444C74.81067,77.89399 75.27071,78.37991 76.16666,79.61111C76.42846,79.97086 76.96004,80.78722 77.22533,81.24044C77.79052,82.206 78.0609,82.73249 78.316,83.28577C79.12218,85.03427 79.31858,85.67732 79.55183,86.31194C79.78658,86.95065 80.00073,87.59828 80.50983,88.84861C80.75954,89.46186 81.31668,90.62108 81.64233,91.14628C82.26511,92.15066 82.62421,92.58583 83.27734,93.40711C83.57798,93.78516 84.5748,95.04263 84.77133,95.59678C85.08202,96.47284 84.96051,97.51514 85.036,98.34711C85.12093,99.28306 85.36261,100.06116 85.57467,100.88578C85.84609,101.94125 85.96724,102.65279 85.9955,103.50661C86.02872,104.51057 86,105.31111 86,106.31111C86,107.11111 86,108.11111 86,108.90044C86,109.94444 86.0233,110.6416 85.77866,111.65378C85.60557,112.36996 85.27521,113.08884 85.08533,114.14311C84.94752,114.90835 85,115.88045 85,116.63194C85,117.42844 85,118.64494 85,119.39228C85,120.44444 84.99961,121.19444 85,121.88445C85.00067,123.07911 84.98881,123.76292 85.036,124.46044C85.12537,125.78122 85.25535,126.63906 85.61066,127.21778C86.15846,128.11 87.16492,128.51752 87.47916,129.15277C87.93219,130.06854 87.83611,130.93573 88.16666,131.94444C88.40459,132.6705 88.84753,133.44214 88.95184,134.12994C89.07864,134.966 89.31155,136.28532 89.56934,136.99377C89.83881,137.73438 90.18027,138.45224 90.51733,139.14178C90.97186,140.07164 91.36086,140.8573 91.75267,141.55928C92.30202,142.54353 92.67506,143.05338 93.13866,143.92178C93.44897,144.50304 93.84782,145.70827 93.93867,146.31111C94.07378,147.20761 94.19353,148.41815 94.36166,149.00211C94.6063,149.85179 95.1508,150.79318 95.81467,151.46045C96.27933,151.92749 96.85799,152.87701 96.97916,153.65277C97.11301,154.50958 97.20845,155.414 97.42533,156.30045C97.63492,157.15707 97.90575,158.18718 97.964,158.89644C98.02335,159.61919 98,160.75394 98,161.42094C98,162.13194 98,163.22844 98,164.28961C98,164.95395 97.99865,165.90045 98,167.11111C98.00067,167.70978 97.97113,168.5956 98.08533,169.42578C98.2241,170.43451 98.68398,171.23262 98.91467,172.22844C99.07201,172.90765 99,173.8791 99,174.61111C99,175.77777 99.03184,176.47774 98.83334,177.61111C98.73548,178.16982 98.48496,179.15428 98.2955,179.86745C98.00876,180.94681 97.8227,181.63078 97.5,182.54861C97.21956,183.34625 96.70289,184.09438 96.35717,184.91644C95.96889,185.83972 96.01162,186.63177 96.00134,187.42845C95.98848,188.42436 96,189.26445 96,190.35844C96,191.27777 96.02296,191.97182 95.91467,192.88312C95.81065,193.75836 95.65536,194.42398 95.38934,195.49644C95.20722,196.23062 94.90455,197.29044 94.7045,197.94044C94.44173,198.79424 94.01762,199.89532 94.436,200.55777C94.92439,201.33105 95.493,201.8969 95.83334,202.94444C96.06097,203.6451 96,204.45111 96,205.52177C96,206.11111 95.83572,206.99138 96.036,208.17644C96.17368,208.991 96.54354,209.62016 96.83334,210.77777C97.0298,211.56258 97.44475,212.36731 97.716,212.99644C98.105,213.89864 97.99933,214.71245 98,215.71111C98.00053,216.51111 98,217.50978 98,218.27512C98,219.35844 98,220.27777 98,221.09027C98,222.00578 97.98644,222.82104 98,223.62845C98.01801,224.7009 98.30819,225.53253 99.05733,225.82578C100.00333,226.19608 100.68634,226.0885 101.69917,226.10661C102.66652,226.12392 103.48566,226.11111 104.391,226.11111C105.39733,226.11111 106.31027,226.32411 107.22134,226.11095C108.00516,225.92755 107.97869,224.9122 108,224.00128C108.02084,223.11038 108.42234,222.25406 109.25733,222.13245C110.15742,222.00134 110.96899,222.15089 111.84666,222.00311C112.49443,221.89404 113.5281,221.45918 114.25716,221.05312C115.02802,220.62376 115.79541,220.15057 116.20133,219.9631C117.37554,219.42082 118.17639,219.22905 119.256,219.14311C120.33041,219.0576 121.11433,219.11111 121.872,219.11111C123,219.11111 123.83495,219.23439 124.51466,218.94044C125.36731,218.57172 125.79875,217.83556 127.16666,217.44444C127.63927,217.30931 128.19048,217.26079 129.40933,217.18311C130.06187,217.14151 130.73061,217.12785 131.40283,217.12012C133.33322,217.09792 133.9135,217.11111 134.95784,217.11111C135.424,217.11111 136.24936,217.11943 137.5,217.11111C138.30272,217.10577 139.33031,216.91045 139.97917,216.61111C140.94254,216.1667 141.11433,215.34944 141.56799,214.62711L142.14934,213.93645" id="svg_23" stroke-width="3" stroke="#000" fill="none"/>
  <path t="106622,106795,106795,106811,106812,106845,106845,106860,106860,106860,106860,106860,106860,106877,106877,106877,106877,106878,106878,106878,106878,106894,106894,106894,106894,107057,107111,107230,107230" d="M252,208.11111C254.94817,208.10661 255.76447,208.19803 256.66666,207.94444C257.47516,207.71719 258.22232,207.11111 258.99033,207.11111C259.83334,207.11111 260.62939,207.10805 261.60132,207.12178C262.14587,207.12947 263.33707,207.16316 263.97733,207.19644C265.33395,207.26695 266.04242,207.32974 266.76401,207.39511C267.49207,207.46106 268.21875,207.53557 268.9375,207.61111C270.32336,207.75677 270.97504,207.83742 272.16666,207.94444C273.16861,208.03444 273.98764,208.08878 274.90601,208.10661C275.9025,208.12596 276.76166,208.11111 277.64816,208.11111L278.43066,208.11111" id="svg_24" stroke-width="3" stroke="#000" fill="none"/>
  <path t="110021,110077,110093,110093,110109,110109,110126,110126,110143,110143,110143,110159,110160,110160,110177,110177,110194,110194,110194,110195,110210,110211,110211,110211,110211,110227,110228,110244,110244,110298,110299,110299,110327,110327,110342,110343,110361,110361,110377,110377,110377,110392,110392,110444,110444,110460,110460,110477,110477,110510,110510,110542,110577,110592,110660,110660,110692,110710,110710,110725,110726,110726,110726,110726,110742,110743,110743,110743,110743,110743,110743,110813,110813,110813,110944,110959,111026,111097" d="M-4,371.11111C-3.11333,371.19644 -2.17534,371.56802 -1.5955,371.75845C-0.6162,372.08008 0.19996,372.10577 1.20017,372.11111C2.02082,372.11551 3.16667,372.11111 3.95267,372.11111C4.77467,372.11111 5.83333,372.11111 6.53833,372.11111C7.33833,372.11111 8.40667,372.11121 9.14,372.11111C9.98583,372.11102 10.72438,372.11536 11.5625,372.09027C12.46116,372.06335 13.83568,371.96088 14.71067,371.82712C15.5345,371.7012 16.28005,371.53027 16.94267,371.39511C18.1308,371.15274 18.88425,371.03543 19.66167,370.75845C20.46477,370.47235 21.4226,370.24246 22.21467,370.12576C22.9917,370.01126 24.00987,369.52145 24.61467,368.96179C25.29872,368.32877 26.17554,368.15625 27.11867,368.10977C27.86817,368.07285 28.76829,367.90753 29.66533,367.67511C30.29136,367.51291 31.51214,367.25137 31.982,366.46829C32.41158,365.75235 32.44053,364.75226 33.309,364.22095C33.89682,363.86133 35.00367,363.75281 35.74933,363.53644C36.66468,363.27081 37.64845,363.43927 38.47917,363.09027C39.21997,362.77905 39.86083,362.12912 40.83333,362.11111C41.5892,362.09711 42.52083,362.11111 43.488,362.11111C44.28267,362.11111 45.33335,362.10773 45.976,362.11246C46.71471,362.11789 47.56593,362.13638 48.544,362.19644C49.66749,362.26544 50.28511,362.32962 50.932,362.39511C52.26994,362.53058 52.93756,362.61063 53.59067,362.68579C54.21789,362.758 55.8325,362.95276 56.60133,363.02579C57.48848,363.11005 58.436,363.11111 59.4,363.11111L60.2955,363.1066L60.94283,362.74945" id="svg_25" stroke-width="3" stroke="#000" fill="none"/>
  <path t="111686,111841,111841,111842,111842,111842,111860,111860,111860,111860,111860,111861,111861,111861,111877,111877,111877,111877,111877,111877,111877,111877,111877,111892,111893,111893,111893,111893,111893,111893,111893,111893,111908,111909,111909,111909,111909,111909,111909,111942,111942,111942,111960,111960,111977,111993,111994,111994,112010,112010,112109,112109,112143,112178,112192,112193,112210,112210,112227,112227,112227,112227,112242,112242,112260,112260,112275,112275,112276,112276,112293,112293,112293,112293,112293,112310,112310,112310,112376,112376,112376,112409,112409,112409,112425,112442,112443" d="M112,376.11111C114.344,373.3671 115.16434,373.20761 115.625,373.17361C116.63079,373.09943 117.176,373.11313 118.94366,373.11111C119.576,373.11041 120.23233,373.11111 120.91467,373.11111C121.625,373.11111 122.36533,373.11111 123.13766,373.11111C123.944,373.11111 125.66666,373.11157 126.58533,373.11093C127.536,373.11026 128.51068,373.10855 129.50133,373.10043C130.50002,373.09225 131.49876,373.07883 132.48933,373.05396C133.46411,373.02948 135.33368,372.94983 136.21367,372.88977C137.05637,372.83224 137.86258,372.76105 138.63467,372.68579C139.37524,372.61362 140.08527,372.5358 140.76767,372.46378C141.42393,372.3945 142.6664,372.27396 143.2565,372.2326C143.82509,372.19275 144.37202,372.16452 144.896,372.14713C145.87045,372.11478 146.74136,372.11841 147.83549,372.11093C148.69205,372.10507 149.61691,372.09412 150.591,371.75845C151.30441,371.51263 152.0945,370.93665 152.57066,370.25912C153.03131,369.6037 153.4921,368.76459 154.591,368.28262C155.24342,367.99649 156.33333,368.11111 157.14934,368.11111C158.08267,368.11111 158.88667,368.11111 159.836,368.11111C160.60133,368.11111 161.60899,368.11111 162.272,368.11111C163.33333,368.11111 164.30533,368.11111 165,368.11111C165.69467,368.11111 166.95683,368.11111 167.71733,368.11111C168.83333,368.11111 169.55881,368.1015 170.5,368.44446C171.3903,368.76889 172.05263,369.1376 172.81351,369.40579C173.98624,369.81912 174.39539,369.90024 175.58934,370.04977C176.36168,370.14651 177.11989,370.15836 178.17833,370.33246C178.84235,370.44168 179.74385,370.72919 180.83333,370.94446C181.52888,371.08188 182.57225,371.31042 183.33333,370.61111C183.82716,370.15735 184.14934,369.38712 184.75734,368.47562L185.44299,368.11093L186.22133,368.0751" id="svg_26" stroke-width="3" stroke="#000" fill="none"/>
  <path t="113604,113720,113758,113758,113758,113775,113775,113775,113775,113793,113793,113793,113793,113793,113810,113810,113810,113874,113891,114017,114017,114017,114149,114166" d="M255,370.11111C257.55334,370.11111 258.5,370.27777 259.30801,370.54712C260.11349,370.81561 260.99542,371.12561 261.909,371.40662C262.53867,371.60031 263.20834,371.79318 264.33334,371.94446C265.16461,372.05624 266.05093,372.08127 266.94934,372.13644C267.83228,372.19067 269.06003,372.31442 269.77216,372.46378C270.39935,372.59531 271.4881,373.0274 272.36618,373.11111C273.32898,373.20288 274.00082,373.11111 274.9375,373.11111L275.90268,373.11111L276.71866,373.11111" id="svg_27" stroke-width="3" stroke="#000" fill="none"/>
 </g>
</svg>