<svg width="500" height="333.3333333333333" xmlns="http://www.w3.org/2000/svg" xmlns:svg="http://www.w3.org/2000/svg" xmlns:xlink="http://www.w3.org/1999/xlink">
 <!-- Created with SVG-edit - http://svg-edit.googlecode.com/ -->
 <g display="inline" class="layer">
  <title>Layer 1</title>
  <path t="0,276,276,317,500,541,564,564,700,834,860,983,1046,1163,1229,1276,1300,1341,1391,1391,1428,1468,1492,1507,1613,1645,1645,1713,1713,1724,1741,1757,1774,1791,1841,1860,1876,1941,1980,1980,1996,2024,2041,2041,2057,2159,2159,2229,2268,2324,2324,2341,2341,2357,2374,2407,2424,2424,2441,2484,2543,2543,2714,2724,2741,2764,2764,2807,2844,2884,3009,3057,3149,3180,3196,3359,3379,3428,3460,3474,3491,3508,3508,3524,3618,3780,3807,3824,3841,3876,3891,4061,4061,4092,4108,4156,4190,4235,4256,4318,4318,4398,4423,4440,4468,4468,4490,4506,5149" d="M367.01135,116.25758C368.01135,116.25758 368.94174,115.86462 369.72604,116.34291C370.52966,116.83298 371.11136,117.25758 372.01135,117.25758C372.81137,117.25758 373.71136,117.25758 374.61136,117.25758C375.51135,117.25758 376.41138,117.25758 377.31137,117.25758C378.21136,117.25758 379.35797,116.86875 379.88986,117.47891C380.46231,118.1356 380.3429,119.07101 381.11136,119.47891C381.76132,119.82392 382.75696,120.19723 383.00687,120.96207C383.29892,121.85593 383.50012,122.54456 384.23288,123.13625C384.87866,123.6577 385.7251,123.99798 385.95871,124.90575C386.15668,125.67502 386.85019,126.13535 387.49054,126.77841C388.12921,127.4198 388.55206,128.13222 389.01135,128.77841C389.50684,129.47552 389.6507,130.42981 390.01587,131.20491C390.34476,131.903 391.12878,132.59221 391.8967,132.97224C392.7616,133.40027 393.80585,133.3839 394.01135,134.25758C394.17215,134.94125 394.52692,135.76273 395.21136,136.45758C395.70758,136.96133 396.60876,137.55463 396.92603,138.45758C397.22577,139.31067 397.03146,140.1694 397.36853,140.90575C397.74304,141.72388 398.44894,142.38672 399.09537,142.97357C399.74277,143.56133 399.98596,144.25798 400.01135,145.05757C400.03995,145.95894 400.55313,146.7379 401.21002,147.45758C401.74353,148.04208 401.85901,148.97943 402.44736,149.64691C403.06073,150.34277 403.78104,150.73198 404.03671,151.40691C404.37537,152.3009 405.1001,152.79323 405.58603,153.29358C406.13638,153.86024 406.01675,154.85759 406.01135,155.75758C406.00601,156.64696 405.63553,157.38882 404.95871,157.90491C404.30106,158.40636 403.23297,158.26399 403.0127,159.05891C402.7677,159.94304 402.12146,160.36052 401.62204,161.11891C401.2193,161.73047 400.90234,162.61565 400.36404,163.31024C399.91135,163.89436 400.01135,164.85757 400.01135,165.75758C400.01135,166.65758 400.11832,167.5641 400.01004,168.45758C399.89856,169.37735 399.16553,170.02443 399.02203,170.85757C398.86926,171.74458 399.01135,172.64691 399.01135,173.61475C399.01135,174.45758 399.05914,175.35884 399.01135,176.25758C398.96863,177.06097 398.39841,177.83955 398.03671,178.65758C397.68985,179.44205 397.17804,180.25758 396.95871,180.95758L396.51135,181.75758L396.06403,182.55307L395.57538,183.23224" id="svg_1" stroke-width="3" stroke="#000" fill="none"/>
  <path t="5758,6075,6149,6173,6223,6240,6256,6273,6365,6365,6448,6484,6506,6523,6556,6573,6590,6590,6612,6612,6644,6656,6673,6692,6812,6812,6840,6860,6873,6890,6890,6906,6940,6940,6956,6996,6996,7012,7023,7040,7092,7124,7140,7180,7212,7240,7268,7292,7340,7356,7396,7428,7475,7524,7548,7592,7623,7623,7660,7673,7673,7716,7732,7732,7764,7848,7848,7860,7948,7980,7980,7980,8006,8023,8040,8060,8076,8076,8124,8140,8164,8173,8196,8262,8292,8292,8306,8306,8323,8375,8375,8396,8512,8532,8573,8590,8642,8862,8873,8873,8924,8941,8956,8980,9162,9162,9262,9273,9335,9335,9495,9516,9598,9598" d="M398.01135,191.25758C398.01135,193.09091 398.8656,193.3028 399.01004,194.05891C399.17865,194.94162 399.24142,195.71504 399.72736,196.34158C400.2489,197.01402 400.01135,198.08292 400.01135,198.77357C400.01135,199.84691 400.01135,200.75758 400.01135,201.65758C400.01135,202.55307 400.01135,203.42424 400.01135,204.35757C400.01135,205.25758 399.99084,206.02768 399.65869,206.91025C399.39291,207.61646 399.02942,208.621 399.01135,209.45758C398.99191,210.35719 398.64975,211.01886 397.91153,211.47908C397.19437,211.92618 397.02023,212.87563 396.58603,213.65758C396.13043,214.47806 395.96713,215.38414 395.30685,215.90041C394.55377,216.48924 394.16702,216.99178 393.92737,217.77492C393.61823,218.78505 392.79257,219.26834 392.36853,219.95758C391.86319,220.77898 391.86234,221.62241 391.36404,222.31024C390.86148,223.00398 391.40497,223.96976 390.97537,224.82158C390.62296,225.52037 390.01202,226.05891 390.01135,226.95758C390.01068,227.85757 390.01135,228.75758 390.01135,229.65758C390.01135,230.55757 390.01135,231.45758 390.01135,232.35741C390.01135,233.23224 389.99994,234.05899 390.01135,234.95758C390.02179,235.77861 390.31274,236.73453 390.58603,237.43225C390.95074,238.36342 391.13791,239.28947 391.62204,239.85757C392.2572,240.60292 392.74036,241.29811 393.09537,242.05757C393.47989,242.88014 394.12445,243.62227 394.5322,244.25758C395.04703,245.05975 395.85324,245.49126 396.17804,246.42424C396.41071,247.09254 396.62506,247.8085 397.03671,248.84691C397.3681,249.68286 398.31686,249.86559 398.92737,250.54291C399.50986,251.18915 399.80991,251.91388 400.0007,252.85757C400.17502,253.71986 400.66821,254.28238 400.98602,255.10825C401.32343,255.98502 401.96863,256.54117 402.01135,257.42426C402.05161,258.25659 401.85526,259.26617 402.06854,259.95306C402.3439,260.83984 403.3356,261.36923 403.72604,262.05759C404.16434,262.83032 404.39859,263.86938 403.99054,264.73676C403.65857,265.44244 402.44873,265.21091 401.98602,265.86826C401.47388,266.59583 400.80997,267.27206 400.36853,267.90042C399.87149,268.60794 399.38043,269.0871 398.51135,269.27841C397.66382,269.465 396.92203,270.18469 396.44736,270.85757C395.92902,271.59238 395.84323,272.62021 395.01135,273.09091C394.37292,273.45215 393.51135,273.75757 392.71136,274.2049L391.81137,274.54291L391.21136,275.0589" id="svg_2" stroke-width="3" stroke="#000" fill="none"/>
  <path t="11331,11595,11628,11639,11668,11689,11716,11716,11768,11796,11839,11891,11916,11940,11989,12012,12023,12109,12109,12132,12132,12156,12180,12196,12241,12284,12316,12316,12324,12324,12340,12411,12439,12476,12492,12551,12573,12589,12628,12660,12676,12689,12706,12706,12732,12789,12841,12841,12868,12906,12924,12956,12996,12996,13012,13012,13023,13044,13068,13092,13124,13139,13156,13196,13212,13256,13273,13316,13340,13340,13364,13389,13389,13451,13508,13528,13565,13609,13629,13661,13677,13690,13782,13813,13859,13859,13929,13976,13997,14042,14062,14125,14200,14200,14242,14277,14357,14440,14490,14525,14557,14624,14753,14825,14840,14892,14924,14940,14992,15058,15073" d="M382.01135,193.25758C382.01135,194.95758 382.01135,195.85757 382.01135,196.75758C382.01135,197.65758 382.14789,198.6142 381.72736,199.45758C381.39743,200.1192 381.01361,200.95757 381.01135,201.85757C381.00894,202.82158 380.28647,203.14893 380.02203,203.86824C379.71515,204.70303 380.01199,205.65758 380.01135,206.55757C380.01068,207.45758 379.70465,208.30968 379.36404,209.01474C378.95508,209.8613 378.8241,210.60204 378.29538,211.34024C377.82523,211.99666 377.34012,212.72302 376.62204,213.23224C375.94229,213.71428 375.7767,214.5735 375.43671,215.43225C375.12039,216.23125 375.20831,217.09084 374.95419,217.95758C374.69693,218.83504 374.03995,219.55621 374.01135,220.45758C373.98279,221.35712 374.01135,222.25758 374.01135,223.17358C374.01135,223.96208 374.01135,224.85757 374.01135,225.75758C374.01135,226.65758 373.87485,227.6142 374.29538,228.45758C374.62531,229.1192 375.34143,229.70833 375.8447,230.42424C376.33344,231.11949 375.92725,232.19775 376.58603,232.82158C377.2352,233.43633 377.90607,233.73315 378.36404,234.55757C378.7764,235.29987 379.02939,236.0271 379.36404,236.91025C379.63141,237.61584 379.74115,238.66209 380.01587,239.55307C380.25128,240.31659 380.95148,240.8084 381.36404,241.55757C381.82584,242.39612 382.33173,242.89142 383.09537,243.34291C383.81592,243.76894 383.84393,244.77481 384.02203,245.65758C384.21243,246.60135 384.7453,247.29582 385.09537,248.05757C385.43991,248.80731 386.34222,249.36551 386.72604,250.05757C387.18332,250.88206 386.64761,251.94588 387.0322,252.73674C387.38721,253.46686 388.42325,253.57617 388.89005,254.35741C389.35748,255.13968 389.98276,255.61345 390.01135,256.55759C390.0386,257.45715 390.01135,258.35757 390.01135,259.25757C390.01135,260.05759 390.01135,260.95758 390.01135,261.85757C390.01135,262.73676 390.01205,263.61475 390.01135,264.55759C390.01068,265.45758 389.9751,266.39447 389.30685,266.90042C388.61163,267.42679 387.56241,267.6535 387.13269,268.35742C386.65787,269.13522 386.03995,269.61343 386.01135,270.55759C385.9841,271.45715 386.30353,272.41104 386.00687,273.2049C385.70065,274.02426 384.85364,274.90167 385.5322,275.23676C386.32071,275.62613 387.31137,275.25757 388.21136,275.25757L389.11121,275.25757L390.03671,275.25757" id="svg_3" stroke-width="3" stroke="#000" fill="none"/>
  <path t="17204,17491,17507,17549,17564,17608,17624,17645,17677,17677,17717,17740,17757,17773,17773,17790,17813,17829,17857,17873,17890,17890,17909,17941,17992,18040,18057,18073,18090,18107,18107,18123,18123,18140,18173,18173,18190,18190,18229,18240,18257,18277,18277,18293,18309,18323,18357,18380,18390,18390,18407,18423,18444,18445,18492,18507,18523,18540,18564,18573,18596,18623,18644,18657,18674,18691,18691,18740,18790,18807,18807,18823,18840,18860,18860,18908,18925,18949,18949,19007,19023,19091,19107,19123,19140,19157,19190,19207,19223,19223,19261,19277,19301,19325,19341,19357,19357,19424,19440,19461,19461,19473,19473,19490,19507,19523,19540,19557,19597,19629,19757,19825,19873,19890,20085,20550,20565,20609,20657,20684,20707,20748,21024,21040,21077,21093,21107,21123,21140,21140,21157" d="M356.01135,183.25758C356.01135,184.95758 356.01135,185.85757 356.01135,186.75758C356.01135,187.65758 356.01144,188.55757 356.01135,189.45758C356.01126,190.35757 355.88574,191.29025 355.4007,191.85757C354.76639,192.59946 354.02936,193.23163 354.01135,194.01924C353.991,194.91002 354.01135,195.77357 354.01135,196.73674C354.01135,197.65758 354.01135,198.55757 354.01135,199.45758C354.01135,200.35757 354.01135,201.25758 354.01135,202.05757C354.01135,202.97224 354.01135,203.86824 354.01135,204.75758C354.01135,205.65758 354.01135,206.55757 354.01135,207.45758C354.01135,208.35757 354.01135,209.25758 354.01135,210.01474C354.01135,210.91025 353.90738,211.77933 354.01135,212.71591C354.12271,213.71883 354.57498,214.25565 354.89005,215.23608C355.14871,216.04102 355.75616,216.79529 355.97537,217.65758C356.19736,218.53072 356.20444,219.38162 356.71585,219.95758C357.36606,220.68987 357.96863,221.45456 358.01135,222.35741C358.0527,223.23126 357.99454,224.04784 358.36853,224.90575C358.66022,225.57486 359.71533,226.09877 359.99054,226.79924C360.33521,227.67653 360.01135,228.6049 360.01135,229.50041C360.01135,230.45758 360.01135,231.35757 360.01135,232.25758C360.01135,233.13625 360.01135,233.96208 360.01135,234.85757C360.01135,235.75758 360.01068,236.65758 360.01135,237.55757C360.01202,238.45758 360.30106,239.31448 360.65869,239.95758C361.13312,240.8107 361.44736,241.65759 362.01135,242.25758C362.57538,242.85759 362.77133,243.79533 363.03268,244.65758C363.26968,245.43947 364.392,245.66951 364.8407,246.45758C365.29395,247.25362 364.83783,248.29584 365.09671,249.05757C365.39847,249.94548 365.99268,250.65706 366.01135,251.55757C366.02997,252.45604 366.3259,253.01392 367.21002,253.25891C368.00494,253.47919 367.92923,254.46135 368.01154,255.35757C368.09521,256.26901 368.81155,256.91019 368.99054,257.75757C369.17657,258.63837 369.01126,259.55759 369.01135,260.45758C369.01144,261.35757 369.2489,262.21024 369.65869,262.90042C370.10406,263.65057 370.42975,264.38034 370.8447,265.25757C371.18176,265.97015 371.26263,266.97556 371.71585,267.54773C372.35959,268.36044 373.0007,268.86826 373.01135,269.75757C373.02203,270.64691 373.73724,271.13138 374.0007,271.86826C374.32166,272.76596 374.01071,273.69357 374.01135,274.55759C374.01202,275.45624 374.46844,276.02097 375.21002,276.54291C375.99164,277.09302 376.06573,277.95663 376.51135,278.75757C376.9559,279.55664 377.01135,280.45758 377.01135,281.35757C377.01135,282.25757 377.03647,283.13663 377.01135,283.96207C376.98276,284.90173 376.3074,285.31119 375.51135,285.75757C374.71191,286.20584 373.91153,286.47906 373.29669,287.0589L373.01587,287.95758" id="svg_4" stroke-width="3" stroke="#000" fill="none"/>
  <path t="26135,26332,26332,26355,26372,26396,26396,26412,26412,26428,26537,26580,26596,26639,26655,26672,26756,26756,26787,26806,26823,26823,26840,26892,26925,26949,26973,26973,26990,27006,27092,27108,27132,27140,27164,27196,27196,27222,27239,27255,27300,27340,27364,27364,27396,27458" d="M356.01135,180.25758C357.01135,179.25758 357.81207,179.22168 358.71136,179.25758C359.61353,179.29361 360.20651,179.83002 360.71136,180.60941C361.20663,181.37399 361.78247,182.08943 362.71136,182.25308C363.5986,182.40939 364.2446,182.94708 365.06403,183.25308C365.95151,183.58449 366.55759,183.70667 367.29803,184.17224C368.04651,184.64285 368.99054,184.25758 369.90152,184.25758C370.77304,184.25758 371.66403,184.25758 372.52737,184.25758C373.37537,184.25758 374.31137,184.25758 375.21136,184.25758C376.11136,184.25758 377.01135,184.25758 377.81137,184.25758C378.71136,184.25758 379.65421,184.25758 380.5322,184.25758C381.41138,184.25758 382.31137,184.25766 383.21136,184.25758C384.11136,184.25749 384.96512,184.01546 385.71136,183.61024C386.47247,183.19696 387.4559,183.35304 388.21136,182.97357C389.07855,182.53798 389.8447,182.09091 390.01135,181.25758L390.01135,180.45758L390.09671,179.54291L390.81268,179.08824" id="svg_5" stroke-width="3" stroke="#000" fill="none"/>
  <path t="28921,29164,29190,29304,29358,29455,29487,29487,29541,29606,29606,29623,29640,29685,29741,29741,29781,29813,29840,29861,29885,29908,30022,30200,30240,30240,30285,30306,30467,30507,30580,30580,30605,30628,30737,30752,30772,30789,31057,31073,31116,31346" d="M355.01135,181.25758C356.71136,181.25758 357.7114,181.25159 358.61136,181.25758C359.41144,181.26292 360.24774,181.71951 361.01135,182.09091C361.76529,182.4576 362.57803,182.82956 363.23288,183.47908C363.81506,184.05653 364.47894,184.76453 364.95871,185.55307C365.35892,186.21085 366.23499,186.51665 366.81137,187.05891C367.52103,187.72658 367.77719,188.71181 368.36853,189.20491C369.06461,189.78535 369.92526,190.01669 370.71585,190.31474C371.56778,190.63591 372.35843,191.09401 373.11136,191.47891C373.87457,191.86908 374.46271,192.48943 375.09537,192.97357C375.81827,193.52676 376.50754,193.80405 377.21136,194.45624C377.79184,194.99413 378.71136,195.25533 379.65421,195.25758C380.5322,195.25967 381.41138,195.25758 382.31137,195.25758C383.21136,195.25758 384.11121,195.25742 384.92603,194.97224L385.01154,194.15775L385.29538,193.34158" id="svg_6" stroke-width="3" stroke="#000" fill="none"/>
  <path t="32784,33954,34054,34234,34372,34372,34424,34475,34620,34753,34753,35199,35199,35223,35275,35308,35340,35594,35628,35674,35740,35788,36016,36047,36056,36100" d="M390.01135,180.25758C389.92603,181.05891 389.26355,181.79375 389.04736,182.64691C388.81531,183.56265 389.09641,184.47919 388.58603,185.19624C388.11166,185.8627 387.66193,186.56473 387.01135,187.25758C386.51715,187.78392 385.9472,188.6019 385.51135,189.23674C384.95535,190.0466 383.87296,189.93507 383.17804,190.42424C382.46298,190.92758 382.29388,191.65759 382.00687,192.55307C381.763,193.31392 381.02399,193.77826 381.01135,194.65758C380.9985,195.55299 380.58603,196.23224 380.02203,196.83224L379.65421,197.61024" id="svg_7" stroke-width="3" stroke="#000" fill="none"/>
  <path t="39090,39373,39389,39412,39455,39455,39472,39472,39488,39540,39606,39644,39676,39676,39716,39732,39740,39755,39772,39788,39788,39788,39805,39805,39822,39844,39984,39984,40087,40108,40122,40148,40172,40188,40256,40370,40385,40385,40405,40428,40474,40524,40540,40564,40580,40605,40622,40644,40660,40692,40803,40822,40906,40941,40941,41157,41157,41189,41206,41650,41692,41991,41991,42108,42148,42188,42490,42490,42505,42776,42824,42856,43001,43170,43289,43324,43364,43517,43540,44013,44056,44056,44089,44089,44281,44281,44433,44489,44506,44574,44719" d="M377.01135,132.25758C378.01135,132.25758 379.03098,132.28851 379.65869,132.90491C380.30316,133.53773 380.89246,134.06754 381.65955,134.55757C382.297,134.9648 383.05267,135.67592 383.58603,136.28291C384.13422,136.9068 384.54642,137.74417 385.11121,138.35757C385.74228,139.04297 385.84085,139.87758 386.0322,140.75758C386.21622,141.6039 386.59656,142.57133 387.23303,143.13625C387.97189,143.79202 388.8963,143.62234 389.52737,144.14424C390.33871,144.81523 390.76889,145.57288 390.95419,146.50041C391.1225,147.34283 391.01135,148.25758 391.01135,149.05757C391.01135,149.95758 391.01135,150.85757 391.01135,151.75758C391.01135,152.73674 391.50284,153.12492 392.01135,153.77841C392.53659,154.4534 392.95047,155.35146 393.01135,156.25758C393.06497,157.05577 393.01135,157.95758 393.01135,158.85757C393.01135,159.75758 393.25424,160.69241 393.00687,161.55307C392.78616,162.32097 392.02179,162.75742 392.01135,163.69357C392.00174,164.55751 392.01135,165.45758 392.01135,166.35757C392.01135,167.25758 391.56158,167.80284 391.09671,168.54291C390.608,169.32092 390.74841,170.20445 390.36404,171.01474C389.96173,171.86288 390.01202,172.68825 390.01135,173.61475C390.01068,174.55307 390.23288,175.25758 391.11136,175.25758C392.01135,175.25758 393.13049,175.069 393.53937,175.86824C393.89401,176.56146 392.72577,176.98912 391.91153,177.47908C391.18741,177.91483 391.01257,179.07317 391.81268,179.25624C392.68872,179.4567 393.61136,179.25758 394.51135,179.25758C395.41138,179.25758 396.32745,179.0896 397.21002,179.25891C397.96649,179.40404 398.01135,180.45758 398.01135,181.35757C398.01135,182.25758 398.28336,182.59476 398.71585,181.90125C399.1954,181.13226 399.77206,180.53595 399.95419,179.6049C400.12027,178.75586 400.01135,177.79924 399.57538,177.25758L398.71136,177.25758L397.81137,177.25758L396.91138,177.25742" id="svg_8" stroke-width="3" stroke="#000" fill="none"/>
  <path t="86598,87086,87109,87141,87157,87171,87197,87229,87366,87387,87412,87437,87454,87471,87492,87536,87651,87686,87724,87724,87740,87772,87887,87887,87937,88051,88051,88582,88582" d="M358.01135,162.25758C358.01135,163.86824 358.00909,164.75758 358.01135,165.65758C358.01361,166.55309 358.73697,167.13148 359.0007,167.86824C359.30048,168.70561 359.01135,169.65758 359.01135,170.55757C359.01135,171.45758 359.01135,172.35741 359.01135,173.23224C359.01135,174.05891 359.02176,174.95764 359.01135,175.85757C359.00095,176.75777 358.65826,177.56133 358.01135,178.25758C357.45087,178.86084 357.14578,179.66745 357.00687,180.55757C356.87906,181.37653 356.52933,182.19464 355.95871,182.90041C355.36761,183.63148 354.92737,184.14424 354.65869,184.91475L354.36404,185.66208" id="svg_9" stroke-width="3" stroke="#000" fill="none"/>
  <path t="92389,92603,92637,92687,92704,92756,92868,92883,92903,92955,92971,92986" d="M395.01135,181.25758C396.01135,182.25758 396.47351,182.63031 397.0007,183.29358C397.47696,183.89278 397.01135,184.95758 397.01135,185.85757C397.01135,186.75758 397.01135,187.65758 397.01135,188.55757L397.01135,189.45758L397.01169,190.35757" id="svg_10" stroke-width="3" stroke="#000" fill="none"/>
  <path t="100616,100787,100818,100836,101047,101167,101284,101284" d="M344.01135,115.25758C345.71136,116.31024 346.46384,116.79518 346.95871,117.55308C347.41278,118.24848 347.99054,118.79924 348.01135,119.74158L348.01135,120.43224" id="svg_11" stroke-width="3" stroke="#000" fill="none"/>
  <path t="107617,107804,108027,108027,108134,108172,108299,108370,108421,108437,108453,108503,108664,108814,108995,108995,109289,109370,109665,109737,109772,109772,109886,109925,110003,110101,110155,110244,110244,110288,110335,110387,110556,110745" d="M362.01135,149.25758C363.8447,149.09091 364.22232,148.28542 364.58603,147.65758C365.03201,146.88771 364.89871,145.73909 365.5322,145.25758C366.2131,144.74004 367.25452,144.60204 367.89005,144.03624C368.49039,143.50177 369.3114,143.41966 369.95871,142.90491C370.57779,142.41258 371.32104,141.91104 371.81137,141.45624C372.52576,140.79361 373.31,140.28618 374.21136,140.25758C375.1109,140.22905 376.04959,140.08401 376.81137,140.34291C377.69928,140.64467 378.39969,141.2334 379.01135,141.75758C379.65765,142.31146 380.06317,143.11395 381.01135,143.25758C381.80234,143.3774 382.71136,143.25758 383.57538,143.29358L384.09537,143.97357L384.81268,144.25624L385.71136,144.25758" id="svg_12" stroke-width="3" stroke="#000" fill="none"/>
  <path t="112088,112372,112387,112438,112453,112476,112503,112520,112603,112603,112634,112660,112660,112704,112999,113103" d="M350.01135,144.25758C351.71136,144.25758 352.71143,144.24692 353.61136,144.25758C354.49072,144.26801 354.86276,144.98874 355.44736,145.64691C356.0636,146.3407 357.04483,146.38226 357.61136,146.86824C358.35461,147.5058 358.89005,148.35757 359.09537,149.05757L359.58603,149.82158L360.36853,150.25758L361.21136,150.25758" id="svg_13" stroke-width="3" stroke="#000" fill="none"/>
  <polyline timestamps="124668,125715" startTime="1502534679585" id="svg_15" points="360.01136471971495,150.25757681030376 360.09669805304827,149.3709101436371 " stroke-linecap="round" stroke-width="3" stroke="#000" fill="none"/>
  <path t="126941,127279,127295,127295,127400,127562,127562,127619,127653,127669,127669,127721,127888,127924,127986,128036,128088,128154,128204,128204,128252,128268,128308,128387,128437,128453,128469,128469,128493,128509,128519,128536,128536,128552,128573,128645,128645,128703,128880,128880,128921,129348,129403,129419,129502,129533,129533,129552,129552,129569,129795" d="M350.01135,153.25758C351.8367,153.25758 352.8764,153.07613 353.70688,153.31474C354.47568,153.53563 355.10907,154.35988 355.71136,154.95758C356.40872,155.6496 357.10522,156.1967 358.01135,156.25758C358.80957,156.31122 359.72604,156.25758 360.62204,156.25758C361.51135,156.25758 362.41138,156.25758 363.31137,156.25758C364.21136,156.25758 365.11136,156.25758 366.01135,156.25758C366.81137,156.25758 367.71136,156.25758 368.61136,156.25758C369.49054,156.25758 370.44736,156.25822 371.31137,156.25758C372.21136,156.25691 373.06827,155.96788 373.71136,155.61024C374.56448,155.13583 375.32928,154.66843 376.11136,154.37907C376.9631,154.06395 377.79001,154.13545 378.61136,153.68291C379.38223,153.25818 380.23288,153.03606 380.81268,152.45624C381.51135,151.75757 382.23016,151.24681 382.65421,150.55757C383.15955,149.73618 383.01135,148.75758 383.01135,147.85757C383.01135,146.95758 382.83063,145.99693 383.17804,145.25758C383.50479,144.56216 384.49402,144.05891 385.15002,143.69357L386.06204,143.23224L386.85138,142.83224" id="svg_16" stroke-width="3" stroke="#000" fill="none"/>
  <path t="139522,140195,140195,140244,140244,140303,140303,140354,140444,140476,140502,140535,140585,140660,140660,140685,140725,140740,140803,141045,141102,141156,141196,141364,141437,141437,141533,141569,141735,141865,141936,142083,142230,142321,142321,142356,142369,142436,142549,142549,142666,142684,142701,142701,142928,142968,143012,143036,143036,143068,143102,143216,143216,143270,143319,143335,143352,143476,143502,143616,143632,143652,143704,143754,143754,143853,144076,144278,144352,144396,144517,144681" d="M344.01135,88.25758C343.8447,89.25758 343.42783,89.88555 342.70688,90.55758C342.14627,91.08015 341.2547,91.4188 340.58069,92.05758C339.89825,92.70435 339.56366,93.3332 338.98602,93.83224C338.35757,94.3752 337.44751,94.73343 337.06403,95.55758C336.70728,96.32426 336.57974,97.23856 335.95871,97.90041C335.39151,98.50491 334.36926,98.31517 333.92737,99.05891C333.51202,99.75798 333.02936,100.65704 333.01135,101.55758C332.99338,102.45606 333.09671,103.2569 334.01135,103.25758C334.81137,103.25816 335.71136,103.25758 336.61136,103.25758C337.51135,103.25758 338.42172,103.39331 339.30685,103.25758C340.03696,103.14561 340.41577,102.41031 341.21136,101.97358C341.8595,101.61781 342.83566,101.67237 343.65421,101.20041C344.34109,100.80435 345.01135,100.25758 345.81137,100.25758C346.71136,100.25758 347.5322,100.25758 348.49402,100.25758C349.30154,100.25758 350.29669,100.25749 351.21136,100.25758C352.11136,100.25766 352.98547,100.46518 353.61136,100.83224C354.3829,101.28473 355.23016,101.75809 356.01135,102.09091C356.76291,102.41111 357.71143,102.24691 358.61136,102.25758C359.49072,102.268 359.93683,103.0751 360.62204,103.25758C361.48141,103.48643 362.41138,103.25758 363.31137,103.25758C364.21136,103.25758 365.11136,103.25758 366.01135,103.25758C366.81137,103.25758 367.79254,103.62319 368.57538,103.25758C369.1908,102.97015 369.01135,101.85757 369.01135,100.95758L369.01135,100.05758L369.01135,99.15758" id="svg_17" stroke-width="3" stroke="#000" fill="none"/>
  <path t="146047,146268,146268,146293,146309,146335,146356,146420,146516,146570,146619,146619,146652,146702,146702,146740,146772,146796,146853,146853,146885,146902,146935,146952,147004,147054,147092,147108,147135,147156,147188,147189,147204,147381,147420,147595,147652,147652,147718,147718,147770,147835,147968" d="M344.01135,88.25758C345.01135,88.25758 345.81137,88.25758 346.71136,88.25758C347.61136,88.25758 348.51135,88.25758 349.4007,88.25758C350.36853,88.25758 351.21515,88.17546 352.11136,88.25774C353.0228,88.34142 353.61401,88.86555 354.31137,89.55758C355.01404,90.25488 355.42142,90.79978 355.98602,91.64691C356.39935,92.26707 357.23016,92.75809 358.01135,93.09091C358.76291,93.41111 359.61111,93.3951 360.06854,93.90491C360.6181,94.5174 361.71136,94.25758 362.61136,94.25758C363.51135,94.25758 364.41138,94.25758 365.31137,94.25758C366.21136,94.25758 367.11136,94.25758 368.01135,94.25758C368.81137,94.25758 369.75485,94.06534 370.62204,94.29358C371.4686,94.51639 372.0174,95.45358 372.0112,96.35774C372.0058,97.1475 371.65421,97.90575 371.21002,98.68824L370.44736,99.30824L370.04736,100.10825L370.01135,101.01491" id="svg_18" stroke-width="3" stroke="#000" fill="none"/>
  <path t="151089,151270,151285,151373,151389,151421,151445,151445,151477,151493,151551,151568,151601,151629,151739,151896,151896,151951,152003,152163,152213,152245,152365,152413,152445,152518" d="M358.01135,102.25758C359.01135,102.27841 359.9541,102.60501 360.01135,103.54291C360.06711,104.45588 360.01135,105.35757 360.01135,106.25758C360.01135,107.05758 360.01135,107.95758 360.01135,108.82158C360.01135,109.69358 359.76364,110.69382 360.01587,111.55308C360.24249,112.32515 361.13867,112.66647 362.01135,113.09091C362.67102,113.41176 363.43372,113.94376 364.31137,114.20041C365.17694,114.45352 366.11575,114.16889 367.01135,114.25758C367.85706,114.34132 368.29538,115.17358 368.98602,115.68291L369.51135,116.23674" id="svg_19" stroke-width="3" stroke="#000" fill="none"/>
  <path t="156504,156852,156970,157036,157415,157415,157452,157485,157524,157524,157786,157802,158182,158316,158419,158641,158881,159094,159199,159287,159287,159302,159588,159628,159660,159702,159836,160104,160215,160231,160268,160555,160802,160837,160869,160909,160953,161018,161163,161179,161201,161362,161362,161378,161405,161468,161484,161555,161633,161732,161751,161751,161819,161936,161988,162020,162100,162310,162310,162368,162413,162469,162469,162484,162484,162882,162917,162917,162969,163051,163103,163341,163479,163479,163898,163898,163953,163953,164003,164018,164086,164134,164134,164157,164531,164531,164568,164588,164652,164703,164718,164718,164784,164834,164933,165063" d="M339.01135,102.25758C339.01135,103.27841 339.39523,103.84815 339.92603,104.54158C340.48398,105.27048 340.82239,106.13512 340.42603,106.82158C339.92389,107.6912 338.8902,107.87111 338.29669,108.34158C337.55814,108.92702 336.85352,109.62805 337.0127,110.45625C337.1684,111.26628 338.32745,111.08959 339.21002,111.25891C339.96649,111.40404 340.01135,112.45625 340.01135,113.34158C340.01135,114.25758 339.94714,115.18119 340.5322,115.73674C341.25726,116.42527 341.86731,116.66295 341.36404,117.31024C340.91046,117.89365 341.01135,118.85757 341.01135,119.75758C341.01135,120.65758 341.18677,121.63486 340.72736,122.45625C340.28644,123.24454 340.00983,124.07561 340.81268,124.25624C341.68945,124.4535 342.61136,124.25758 343.51135,124.25758C344.41138,124.25758 345.33282,124.0637 346.21002,124.25891C347.02127,124.43945 347.59348,125.11401 348.36319,125.31024C349.27008,125.54144 349.8212,126.23737 350.06854,126.96207C350.36264,127.82372 350.98276,128.55621 351.01135,129.45758C351.03989,130.35712 351.01135,131.25758 351.01135,132.05757C351.01135,132.97224 351.01135,133.86824 351.01135,134.75758C351.01135,135.65758 350.87485,136.6142 351.29538,137.45758C351.62531,138.1192 352.12439,138.96898 351.97537,139.89357C351.83472,140.7662 351.45636,141.46889 350.91153,142.23592C350.4166,142.93268 349.73068,143.73973 348.91138,144.13625C348.25473,144.45404 347.27014,144.80118 347.04736,145.65758C346.82059,146.52928 346.79987,147.53848 347.23303,148.35757C347.61041,149.07115 348.56665,149.36542 349.15002,149.89357C349.96143,150.62817 349.85696,151.49832 350.29538,152.37091C350.70197,153.18013 351.44736,153.69357 352.11136,154.35757C352.71136,154.95758 353.32227,155.54686 354.01135,156.25758C354.58456,156.8488 354.99335,157.65704 355.01135,158.55757C355.02933,159.4574 354.96353,160.35884 355.01135,161.25758C355.05408,162.06097 355.58603,162.82158 356.01135,163.61475L356.01135,164.45758L356.01154,165.35741" id="svg_20" stroke-width="3" stroke="#000" fill="none"/>
  <path t="169027,169286,169286,169317,169334,169386,169402,169436,169484,169501,169517,169557,169603,169603,169659,169692,169692,169700,169768,169783,169801,169801,169801,169817,169939,170048,170064,170064,170085,170101,170117,170151,170406" d="M365.01135,103.25758C366.01135,103.25758 366.81155,103.23959 367.71136,103.25758C368.61191,103.27558 369.57886,103.5977 369.92603,104.45625C370.25061,105.25891 370.8064,105.91553 370.99054,106.75758C371.18066,107.62692 371.61838,108.18604 372.21136,108.82558C372.8111,109.47239 373.50525,110.09526 374.11136,110.70024C374.72403,111.3118 375.31668,111.95238 375.92737,112.54158C376.50162,113.09561 377.3447,113.25758 378.01221,113.25758C378.94885,113.25758 379.9093,113.35866 380.62204,113.83224C381.35907,114.32198 382.23499,114.51665 382.81137,115.05891C383.52106,115.72657 383.95871,116.55308 384.43671,117.23225L385.01135,117.77841L385.36853,118.55758" id="svg_21" stroke-width="3" stroke="#000" fill="none"/>
  <path t="171469,171633,171650,171650,171666,171781,171781,171884,171917,171917,171967,171967,171989,172029,172029,172061,172109,172117,172117,172134,172184,172184,172251,172319,172319,172463,172479,172479,172479,172501,172501,172501,172517,172517,172517,172678,172678,172716,172815,172860,172860,172950,173018,173034,173152,173265,173292,173333,173333,173372,173513,173838,173860,174014,174228,174228,174244,174266,174268" d="M372.01135,99.25758C372.62204,100.85757 373.31137,101.55758 373.81137,102.05758C374.51135,102.75758 375.12979,103.57011 375.81137,103.97224C376.5795,104.42544 377.5162,104.50193 378.18604,104.86824C379.15845,105.40002 379.41971,106.11516 380.07269,106.82158C380.58405,107.37477 381.69141,107.0924 382.4697,107.77841C383.15979,108.3867 383.12103,109.48665 383.81268,109.97224C384.52527,110.47253 385.36786,110.93798 385.65421,111.60941C386.0668,112.57684 386.17599,113.4263 386.71585,113.96207C387.41937,114.66027 388.1669,115.27684 388.84735,115.65758C389.60098,116.07925 390.42538,116.43799 391.0322,116.79924C391.71182,117.20385 392.69983,118.01926 393.22604,118.50824C393.75595,119.00063 394.7399,119.86955 395.18802,120.43874C395.72119,121.11597 394.66132,121.12592 393.91138,121.47891C393.13583,121.84396 392.41144,122.25224 391.51135,122.25758C390.62207,122.26285 390.01205,121.90041 390.01135,120.95758C390.01068,120.05758 389.7764,119.29987 389.36404,118.55758C388.90607,117.73317 388.38409,117.26346 387.61136,116.83224C386.79245,116.37526 385.9101,116.30537 385.01135,116.25758C384.20795,116.21485 383.44736,115.64691 383.04736,114.85757L383.01135,113.96207" id="svg_22" stroke-width="3" stroke="#000" fill="none"/>
  <path t="187045,187352,187419,187563,187589,187697,187725,187725,187750,187800,187800,187837,187837,187869,187869,187885,188062,188150,188202,188252,188300,188351,188351,188367,188434,188450,188533,188556,188806,188884,188884,189139,189154,189183,189183,189217,189497,189524,189524,189631,189652,189767,189819,189834,189868,189940,189940,190079,190116,190199,190252,190317,190317,190431,190431,190500,190549,190549,190572,190599,190651,190693" d="M375.01135,240.25758C375.01135,241.95758 374.98099,242.91745 375.43671,243.69357C375.89609,244.47594 375.96353,245.35884 376.01135,246.25758C376.05408,247.06097 376.5452,247.74521 377.21136,248.45891C377.7215,249.00545 378.1969,249.75017 378.61136,250.43225C379.19006,251.38464 379.8624,252.02257 380.00687,252.90041C380.14948,253.76677 380.01135,254.65758 380.01135,255.55757C380.01135,256.45758 380.01135,257.35757 380.01135,258.25757C380.01135,259.05759 380.06586,259.95908 380.51135,260.75757C380.95602,261.55457 381.53943,262.15012 382.0007,262.83224C382.48398,263.54694 382.97168,264.34836 383.01004,265.05759C383.05875,265.95801 382.46957,266.73785 381.81268,267.45758C381.27921,268.04208 380.70001,268.64233 380.17804,269.42426C379.70621,270.13107 380.01135,271.05759 380.01135,271.95758C380.01135,272.82156 380.11914,273.67242 380.65869,274.31024C381.15442,274.89627 381.55313,275.73788 382.21002,276.45758C382.74353,277.04211 383.00601,277.85751 383.01135,278.75757C383.01666,279.65753 383.17621,280.68015 382.56854,281.35757C382.09918,281.88083 381.07196,282.41031 380.45804,282.82156C379.6965,283.33173 378.87302,283.64365 378.21136,283.97357C377.36801,284.39413 376.41138,284.29358 375.61136,284.68292L374.81137,285.17358" id="svg_23" stroke-width="3" stroke="#000" fill="none"/>
  <path t="194914,195351,195417,195433,195633,195665,195683,195750,195913,195930,195930,195985,196724,196740" d="M373.01135,230.25758C373.01135,231.05891 373.01135,231.95758 373.01135,232.90041C373.01135,233.77841 373.01135,234.65758 373.01135,235.55757C373.01135,236.45758 373.01135,237.35757 373.01135,238.25758C373.01135,239.05757 373.06854,239.95758 373.5322,240.73674L374.31137,241.20491" id="svg_24" stroke-width="3" stroke="#000" fill="none"/>
  <path t="201819,202036,202036,202068,202149,202149,202201,202236,202276,202284,202308,202332,202332,202348,202447,202463,202463,202483,202566,202616,203063" d="M362.01135,114.25758C362.01135,115.25758 362.01376,116.05758 362.01135,117.01474C362.00909,117.91025 362.20932,118.74278 361.57538,119.61091C361.07611,120.29459 360.09381,120.54264 360.01135,121.45625C359.93674,122.28268 359.16751,122.72613 358.49402,122.97358C357.55267,123.31944 356.70761,123.61067 356.01135,124.25758C355.40811,124.81807 354.61136,125.22158 353.71136,125.25758L352.81137,125.25758L351.91138,125.25774" id="svg_25" stroke-width="3" stroke="#000" fill="none"/>
  <path t="208013,208218,208360,208637,209053" d="M346.01135,104.25758C347.71136,104.20041 348.51135,103.75758 349.30685,103.31474L350.01135,103.54291" id="svg_26" stroke-width="3" stroke="#000" fill="none"/>
  <path t="214950,215382,215486,215599,215682,215724,215767,215849,215900,215933,215933,215973,216016,216032,216099,216369,216385,216416,216416,216432,216449,216449,216449,216466" d="M370.01135,120.25758C370.01135,122.05758 370.01135,122.90041 370.01135,123.77841C370.01135,124.65758 370.01135,125.65758 370.01135,126.55758C370.01135,127.45758 370.01135,128.25758 370.01135,129.25758C370.01135,130.05757 370.01135,130.85757 370.01135,131.75758C370.01135,132.73674 370.01135,133.61475 370.01135,134.55757C370.01135,135.35757 370.02783,136.25775 370.01135,137.05757C369.99335,137.93013 369.79004,138.80025 369.51135,139.75758L369.29538,140.48958L369.06403,141.44324" id="svg_27" stroke-width="3" stroke="#000" fill="none"/>
  <path t="218194,218349,218382,218716,218783" d="M370.01135,113.25758C370.01135,115.05758 370.01135,115.95758 370.01135,116.85757L370.0007,117.65758" id="svg_28" stroke-width="3" stroke="#000" fill="none"/>
  <path t="223258,223550,223566,223581,223581,223599,223621,223621,223922,223922,223999,224015,224049" d="M350.01135,114.25758C349.72604,113.34291 348.91138,113.25758 348.01135,113.25758C347.21136,113.25758 346.22028,113.32161 345.52737,113.82558C344.7973,114.35658 344.03287,115.01458 343.31586,115.24857L342.41138,115.25758L341.5322,115.27841L340.95871,115.90491" id="svg_29" stroke-width="20" stroke="#fff" fill="none"/>
  <path t="225389,225543,225565,225589,225615,225637,225669,225857,225857,225995,225995,226112,226113" d="M347.01135,112.25758C346.29538,112.97358 345.58948,113.35715 344.95871,113.90491C344.35907,114.42561 343.8674,115.08907 343.16071,115.65758C342.37152,116.29245 341.9967,116.89358 341.72604,117.74158L341.4007,118.43224L340.81268,119.37225L340.29669,120.05624" id="svg_30" stroke-width="20" stroke="#fff" fill="none"/>
  <path t="229916,230773,230789,230883,230933,230973,230982,231198,231562,231589,231807,231889,231904,232230,232645,232779,232779,233199,233360,233902,234155,234309,234412,234428,234592,234962,234962,235014,235047,235064,235292,235490" d="M340.01135,104.25758C339.30603,104.61475 338.32974,104.93644 338.03268,105.85757C337.75635,106.71437 338.00244,107.66315 338.51135,108.25758C339.01773,108.84903 339.92746,109.24301 340.01135,109.96207C340.11511,110.85154 340.01135,111.75758 340.01135,112.64691C340.01135,113.54291 340.16489,114.50603 339.8447,115.25758C339.51187,116.03876 338.96262,117.02602 339.71585,117.25307C340.57327,117.51154 341.56866,116.95399 342.4007,117.26824C343.10275,117.53341 342.57251,118.49978 341.8447,119.09091C341.14801,119.65676 340.25592,119.80195 340.0322,120.75758C339.827,121.63412 340.01135,122.55308 340.09671,123.34158L340.71585,123.90491" id="svg_31" stroke-width="3" stroke="#000" fill="none"/>
  <path t="237064,237630,237647,238466,238564,238804,238819,238853,238932,239158,239200" d="M345.01135,105.25758C345.81268,105.25758 346.71143,105.24691 347.61136,105.25758C348.49072,105.268 349.00214,106.04855 348.21002,106.25624C347.39407,106.47018 346.8447,107.09091 346.09537,107.54158L345.65421,108.20041" id="svg_32" stroke-width="3" stroke="#000" fill="none"/>
  <path t="242682,242813,242831,242848,242848,242864,242864,242892,242981,242981" d="M335.01135,131.25758C335.89804,131.25758 336.83698,131.28049 337.8447,131.25758C338.6373,131.23958 339.49536,130.97357 340.18604,130.68291L341.12604,130.34158L342.01135,130.09091L342.71136,129.55307" id="svg_33" stroke-width="20" stroke="#fff" fill="none"/>
  <path t="246621,246909,246966,247015,247031,247125,247173,247248,247440,247686,247686,247701,247828,247869,248089" d="M341.01135,120.25758C341.0322,121.25758 341.47031,121.93955 341.98602,122.64691C342.4859,123.33257 343.55731,123.06979 344.30685,123.61475C344.98477,124.10763 345.21991,125.00097 346.01135,125.42424C346.76013,125.82471 347.51135,126.23674 348.41138,126.25758L349.30685,126.25758L350.23288,126.25758" id="svg_34" stroke-width="3" stroke="#000" fill="none"/>
  <path t="255610,255764,255781,255781,255781,255797,255797,255797,255797,255814,255814,255831,255831,255864,255909,255997,256046,256115,256115,256181,256231,256231,256247,256268,256268,256297,256446" d="M320.01135,130.25758C321.05304,130.25758 322.01135,130.25758 322.8327,130.25758C323.5257,130.25758 324.65402,130.25758 325.31671,130.25758C326.36069,130.25758 327.04337,130.25758 328.23938,130.25758C328.94885,130.25758 329.98987,130.25758 330.81003,130.25758C331.71136,130.25758 332.63101,130.4249 333.51135,130.23674C334.36002,130.05534 335.01233,129.25854 335.61136,128.65758C336.30798,127.9587 336.7453,127.21934 337.09537,126.45758C337.43991,125.70784 338.21136,125.05891 338.81137,124.54291L339.65421,124.20491L340.01169,123.37907" id="svg_35" stroke-width="20" stroke="#fff" fill="none"/>
  <path t="257886,258021,258037,258069,258101,258125,258214,258214,258297,258297,258314" d="M339.01135,123.25758C340.01135,123.25758 340.81268,123.25758 341.71136,123.25758C342.61136,123.25758 343.5322,123.25758 344.49402,123.25758C345.30154,123.25758 346.17804,123.09091 346.81268,122.54158L347.61136,122.23225" id="svg_36" stroke-width="20" stroke="#fff" fill="none"/>
  <path t="261672,262213,262228,262297,262349,262380,262413,262684,262779,262794,262813,262863,262978,263117,263451,263639,263791,263927,263973,263996,263996,264190,264237,264329,264491,264532,264608,264608,264647,264705,264780,264894,264894,264940,264964,264964,264996,265079,265767" d="M341.01135,111.25758C341.01135,112.25758 341.01135,113.17358 341.01135,113.96207C341.01135,114.85757 341.01135,115.75758 341.01135,116.65758C341.01135,117.55758 340.86157,118.47017 341.01154,119.35741C341.15555,120.20944 341.75897,120.88528 342.5322,121.23674C343.33279,121.60065 344.582,121.00194 344.97537,121.69358C345.40057,122.44119 344.46686,123.04809 343.71585,123.61475C343.04681,124.11958 342.99402,125.05775 343.01135,125.95758C343.02869,126.85813 343.3399,127.85566 344.21136,128.17224C345.06107,128.48091 346.01135,128.25758 346.81137,128.25758C347.71136,128.25758 348.61136,128.25758 349.49054,128.25758C350.45419,128.25758 351.20505,128.386 352.25421,128.25308C353.13135,128.14195 353.71136,127.61024 354.57538,127.23225L355.06403,126.55308L355.49054,125.79924" id="svg_37" stroke-width="3" stroke="#000" fill="none"/>
  <polyline timestamps="267107,267716,267764" startTime="1502534679585" id="svg_38" points="353.01136471971495,129.25757681030376 353.01136471971495,129.45757681030378 353.01119805304825,130.35757681030378 " stroke-linecap="round" stroke-width="3" stroke="#000" fill="none"/>
  <path t="277363,277580,277613,277680,277680,277732,277798,277830,277944,277944,277964,278031,278113,278196,278196,278227,278227,278230,278246,278263,278280,278313,278313,278330,278346,278363,278363,278380,278396,278396,278430,278430,278446,278480,278516,278516,278540,278563,278596,278646,278663,278696,278716,278740,278740,278764,278764,278780,278813,278830,278846,278863,278880,278948,278963,278963,278980,279013,279013,279036,279037,279053,279069,279085,279085,279096,279113,279130,279130,279146,279180,279197,279213,279230,279246,279280,279313,279330,279330,279346,279363,279405,279413,279453,279498,279498,279532,279663,279717,279907,279995,279995,280036" d="M95.01137,157.25758C95.01137,158.25758 95.24091,158.96387 96.01137,159.42424C96.73086,159.85416 96.83141,160.86615 97.36853,161.55307C97.95026,162.29704 99.1241,162.31004 99.57536,162.86824C100.19805,163.63849 100.32851,164.60489 101.01137,165.09091C101.80312,165.65443 102.00095,166.27824 102.01137,167.23608C102.02029,168.0562 101.82762,168.98407 102.04736,169.85757C102.26442,170.7204 102.77512,171.52464 103.23286,172.35757C103.60384,173.03261 104.57941,173.56203 104.88986,174.35757C105.22002,175.20361 105.06721,176.07623 105.5322,176.77841C106.07771,177.6022 106.47119,178.28305 107.01137,179.09091C107.45836,179.75941 107.87575,180.56613 108.0127,181.45758C108.15336,182.37321 108.863,182.66844 109.57536,183.28291C110.18466,183.80849 110.01137,184.85757 110.01137,185.75758C110.01137,186.65758 110.01129,187.55757 110.01137,188.45758C110.01145,189.35774 110.07271,190.15195 110.4367,191.08292C110.70956,191.78081 110.82308,192.84848 111.36853,193.55307C111.94656,194.29974 112.76318,194.57056 113.29536,195.17358C113.86179,195.81541 113.92004,196.58574 114.17803,197.42424C114.43868,198.27138 115.30459,198.78082 115.8447,199.42424C116.33486,200.00816 116.47568,201.06778 116.72736,201.77357C117.06465,202.71941 117.36112,203.56445 118.01137,204.25758C118.48518,204.76265 118.87694,205.66745 119.01586,206.55757C119.14368,207.37653 119.86306,208.02415 120.00687,208.90041C120.14906,209.76683 119.74355,210.69998 120.01586,211.55307C120.27779,212.3736 120.82749,212.85411 121.0322,213.77841C121.21532,214.60526 121.9492,215.34995 122.01003,216.05757C122.08711,216.95427 122.00941,217.87718 122.4367,218.65758C122.88707,219.48015 122.96357,220.35884 123.01137,221.25758C123.05409,222.06097 123.79209,222.74185 124.01137,223.61475C124.21671,224.43219 124.01137,225.35757 124.01137,226.25758L124.01137,227.05757L123.92603,227.97224" id="svg_39" stroke-width="3" stroke="#000" fill="none"/>
  <path t="281846,282027,282045,282045,282062,282079,282095,282145,282162,282162,282179,282195,282220,282245,282268,282295,282329,282329,282345,282362,282395,282412,282452,282452,282468,282484,282495,282547,282598,282613,282613,282630,282663,282680,282680,282680,282701,282701,282717,282717,282749,282765,282789,282821,282846,282863,282885,282885,282901,282948,282963,282981,283004,283030,283030,283046,283063,283080,283096,283096,283116,283149,283163,283215,283215,283231,283279,283312,283312,283329,283345,283364" d="M94.01137,177.25758C94.06853,179.01474 94.26265,179.97556 94.71587,180.54774C95.35958,181.36043 96.00381,181.86821 96.01137,182.73674C96.01901,183.61473 96.27922,184.47307 96.8127,185.05757C97.46958,185.77728 97.89988,186.59854 98.4367,187.23224C98.93948,187.82574 98.87865,188.66809 99.01586,189.55757C99.15954,190.48897 99.86309,191.0262 100.00687,191.95758C100.13868,192.81148 100.55643,193.51074 100.88986,194.35757C101.22258,195.20261 101.01137,196.05757 101.01137,196.95758C101.01137,197.85757 100.95847,198.79231 101.36403,199.55757C101.81233,200.40346 101.83813,201.29573 102.09669,202.05757C102.35245,202.81111 103.50906,203.11905 103.89003,203.92174C104.1601,204.49077 103.95898,205.54086 104.36853,206.44774C104.70715,207.19753 105.22293,207.97017 105.71136,208.54774C106.38298,209.34193 106.99564,209.89043 107.4367,210.65758C107.85233,211.38049 107.56963,212.3726 108.01403,213.17358C108.41655,213.89908 109.67308,213.93468 109.9697,214.75758C110.2752,215.60516 110.01137,216.55757 110.01137,217.45758C110.01137,218.35757 110.01137,219.25758 110.01137,220.05757C110.01137,220.95758 109.93404,221.92511 110.44736,222.65758C111.00102,223.4476 111.80914,223.90892 111.99053,224.75758C112.17869,225.63794 111.87482,226.61421 112.29536,227.45758C112.62529,228.11922 113.07523,229.04286 113.8727,229.22157C114.82182,229.43427 115.70686,229.25758 116.61137,229.25758L117.51137,229.25758L118.41136,229.25758" id="svg_40" stroke-width="3" stroke="#000" fill="none"/>
  <path t="284600,284813,284829,284846,284915,284930,284948,285014,285052,285052,285068,285068,285084,285096,285116,285148,285164,285179,285213,285230,285246,285263,285279,285296,285296,285313,285329,285329,285381,285412,285496,285529,285546,285563,285579,285579,285628,285662,285745,285805,285815,285846,285896,286057,286057,286098,286098,286114,286172,286228,286280,286332,286332,286372,286498,286541,286723,286723,286827,286959" d="M79.01137,226.25758C79.01137,227.95758 79.01137,228.85757 79.01137,229.75758C79.01137,230.65758 79.01137,231.55757 79.01137,232.55307C79.01137,233.42424 79.01137,234.25758 79.01137,235.14291C79.01137,236.08292 79.01137,236.77357 79.01137,237.84691C79.01137,238.65758 79.01137,239.55757 79.01137,240.45758C79.01137,241.35757 79.01137,242.35741 79.01137,243.20491C79.01137,243.96208 79.01137,244.85757 79.01137,245.75758C79.01137,246.66824 79.01137,247.5789 79.01137,248.43225C79.01137,249.37224 79.01137,250.25758 79.01137,251.05757C79.01137,251.95758 79.04253,252.91792 78.58603,253.69357C78.12605,254.47513 77.71732,255.10609 76.81136,255.25891C75.89777,255.41302 75.19316,255.7057 74.44736,256.2829C73.82182,256.76703 73.21003,257.2569 72.31136,257.25757C71.41136,257.25824 70.52486,257.36627 69.5647,257.24692C68.67189,257.13593 68.04528,256.6543 67.03287,256.37909C66.33182,256.18854 65.38936,256.43564 64.51137,256.23676C63.54902,256.01877 62.91748,255.31847 62.01136,255.25758C61.21317,255.20395 60.2967,255.25758 59.4007,255.25758C58.49053,255.25758 57.52737,255.25758 56.8367,255.25758L55.76853,255.25758L54.91137,255.25758" id="svg_41" stroke-width="3" stroke="#000" fill="none"/>
  <path t="295989,296146,296197,296279,296279,296346,296380,296412,296436,296468,296500,296548,296580,296580,296628,296668,296695,296728,296756,296812,296812,296829,296881,296940,296964,297029,297062,297062,297079,297129,297181,297245,297313,297313,297380,297446,297560,297630,297698,297713,297748,297798,297798,297836,297868,297991,298046,298079,298096,298112,298129,298129,298146,298146,298162,298179,298196,298248,298284,298388,298388,298421,298437,298453,298479,298501,298548,298548,298563,298563,298597,298612,298759,298788" d="M57.01136,194.25758C57.92603,194.54291 58.01136,195.35757 58.01136,196.25758C58.01136,197.05757 58.01136,197.95758 58.01136,198.85757C58.01136,199.75758 58.01136,200.65758 58.01136,201.55757C58.01136,202.55307 58.01136,203.42424 58.01136,204.25758C58.01136,205.05757 58.19511,205.98407 57.97536,206.85757C57.75831,207.7204 57.1363,208.46222 57.0112,209.35757C56.88454,210.26405 56.36487,210.95795 56.01136,211.75758C55.65953,212.55344 55.03905,213.2578 55.01136,214.05891C54.98251,214.89384 54.85437,215.82112 54.30687,216.54774C53.7393,217.30101 53.07117,217.80835 52.6587,218.55757C52.19699,219.39622 52.01136,220.25758 52.01136,221.05757C52.01136,221.95758 52.01136,222.82158 52.01136,223.69357C52.01136,224.65758 52.01136,225.55757 52.01136,226.45758C52.01136,227.35757 52.01136,228.25758 52.01136,229.05757C52.01136,229.95758 52.01136,230.85757 52.01136,231.75758C52.01136,232.64691 52.01136,233.54291 52.01136,234.45758C52.01136,235.35757 52.01136,236.25758 52.01136,237.01474C52.01136,237.91025 52.01136,238.77357 52.01136,239.73674C52.01136,240.65758 52.01136,241.55757 52.01136,242.45624C52.01136,243.31024 52.01136,244.25758 52.01136,245.05757C52.01136,245.95758 52.01136,246.85757 52.01136,247.75758C52.01136,248.65758 51.93554,249.58113 52.17803,250.42424C52.37363,251.10431 52.91338,252.08008 53.00687,252.8959C53.10501,253.75235 53.6587,254.31024 54.01003,255.05891L54.01136,255.95758" id="svg_43" stroke-width="3" stroke="#000" fill="none"/>
  <path t="305067,305236,305236,305262,305279,305300,305301,305301,305312,305329,305345,305365,305365,305388,305453,305453,305462,305479,305512,305529,305556,305580,305595,305629,305645,305645,305668,305701,305745,305773,305773,305813,305813,305845,305862,305885,305885,305912,305933,305933,305965,306045,306094,306147,306221,306573" d="M44.01136,175.25758C44.4367,177.08292 44.83567,177.75035 44.99053,178.73674C45.1368,179.66844 45.32851,180.60019 45.7167,181.25841C46.14317,181.98155 46.84179,182.71082 47.01136,183.61475C47.1852,184.54141 47.01136,185.45891 47.01136,186.14291C47.01136,187.08292 47.01136,188.09091 47.01136,188.95308C47.01136,189.85757 47.07198,190.79646 46.6587,191.55757C46.25349,192.3038 45.52821,192.86476 45.0967,193.54291C44.60354,194.31796 45.05916,195.35884 45.01136,196.25758C44.96864,197.06097 44.32578,197.68013 44.06853,198.55757C43.81442,199.42432 43.84812,200.4256 43.58603,201.08292C43.18328,202.09302 43.01361,202.89589 43.01136,203.77841C43.00909,204.66824 43.01136,205.5789 43.01136,206.43225C43.01136,207.37224 43.01136,208.25758 43.01136,209.05757C43.01136,209.95758 43.01136,210.85757 43.01136,211.75758L43.01136,212.64691L43.01136,213.54291L43.01136,214.45758" id="svg_45" stroke-width="3" stroke="#000" fill="none"/>
  <path t="308401,308790,308845,309006,309125,309292,309311,309363,309363,309581,309612,309662,309662,309701,309717,309826,309880,309880,309932,309972,310020,310020,310044,310061,310077,310129,310179,310231,310285,310328,310328,310357,310405,310445,310462,310495,310578,310609,310627,310644,310694,310711,310732,310756,310777,310796,310828,310844,310844,310861,310894,310911,310911,310927,310948,310988,311140,311140,311161,311177,311194,311211,311211,311227,311227,311421,311480,311529,311545,311565,311565,311581,311581,311595,311595,311595,311820,311863,311879,311917,311933,311949,311978,311978,311997,312028,312069,312193,312212,312237,312245,312245,312493" d="M42.01136,211.25758C42.62203,212.82158 43.72487,213.12186 44.0007,213.86824C44.309,214.7025 44.10682,215.70212 43.72736,216.45758C43.29178,217.32478 42.64157,217.68578 42.13287,218.47908C41.65414,219.22563 42.01136,220.25758 42.01136,221.05757C42.01136,221.95758 42.01136,222.82158 42.01136,223.70424C42.01136,224.5789 42.01136,225.43225 42.01136,226.37224C42.01136,227.35757 42.01136,228.25758 42.01136,229.05757C42.01136,229.95758 41.84315,230.87741 42.0322,231.75758C42.21357,232.60199 43.37718,232.80009 43.88987,233.47908C44.42427,234.18684 44.01136,235.25758 44.01136,236.05757C44.01136,236.95758 44.01136,237.85757 44.01136,238.75758C44.01136,239.65758 44.01136,240.55757 44.01136,241.45758C44.01136,242.35741 44.01136,243.23224 44.01136,244.05891C44.01136,244.95758 44.01136,245.85757 44.01136,246.75758C44.01136,247.65758 44.01136,248.55757 44.01136,249.45758C44.01136,250.35757 44.01136,251.25758 44.01136,252.05757C44.01136,252.97224 44.01136,253.79924 44.01136,254.74158C44.01136,255.6049 44.01136,256.5004 44.01136,257.45758C44.01136,258.35757 44.01136,259.25757 44.01136,260.05759C44.01136,260.95758 43.86484,261.9808 44.44736,262.64691C45.05895,263.34625 45.93063,263.26251 46.82603,263.69357C47.47133,264.00424 47.84423,264.9794 48.0322,265.75757C48.26265,266.71161 49.16446,267.0051 50.01136,267.42426C50.70653,267.76831 51.49102,268.46796 52.0322,268.75757C53.00155,269.27634 53.82144,269.62207 54.52603,270.05759C55.2689,270.51678 55.46989,271.24716 54.61137,271.25757C53.71143,271.26846 52.68902,271.44598 52.05953,270.90042C51.3868,270.31738 50.90697,269.58783 50.0322,269.27841C49.20775,268.98679 48.50355,268.64893 48.06853,267.90042C47.64405,267.17004 48.0117,266.15756 48.3447,265.25757L49.01136,264.75757L49.67803,264.25757" id="svg_46" stroke-width="3" stroke="#000" fill="none"/>
  <path t="314389,314544,314561,314577,314577,314577,314594,314594,314611,314611,314611,314627,314644,314661,314727" d="M54.01136,268.25757C52.41137,268.83224 51.57735,269.15833 50.68987,269.47925C49.96663,269.74078 49.39699,270.12744 48.41137,270.90573C47.80314,271.38602 47.03566,272.01428 46.22203,272.18558C45.50902,272.33569 44.42203,272.25757 43.51136,272.25757L42.61137,272.25757L41.71136,272.25757" id="svg_47" stroke-width="20" stroke="#fff" fill="none"/>
  <path t="316126,316195,316213,316228,316228,316228,316245,316245,316262,316262,316262,316278,316278,316278" d="M48.01136,273.25757C49.01136,272.27841 50.03229,272.26874 50.86603,272.25626C51.55323,272.24597 52.34529,272.23462 53.5587,271.90491C54.24715,271.71783 55.17545,271.40479 55.96403,271.31024C56.78385,271.21194 57.8447,271.09091 58.7647,270.83224L59.3497,270.61023" id="svg_48" stroke-width="20" stroke="#fff" fill="none"/>
  <path t="318835,319011,319053,319097,319162,319178,319514,319514,319532,319544,319560,319577,319577,319817,319941,319956,320092,320719,320836,321044,321269,321375,321572,321629,321742,322194,322261,322261,322500,322578,322609,322627,322627,322644,322684,322727,322842,322884,322910,322960,323012,323044,323068,323175,323254,323270,323270,323311,323311,323328,323345,323490,323763,323763,323779" d="M43.01136,257.25757C43.01136,258.95758 43.01136,259.95758 43.01136,260.85757C43.01136,261.75757 42.77381,262.75052 43.23286,263.47891C43.63923,264.12372 44.6444,264.3161 45.09536,265.0589C45.52298,265.76324 46.11932,266.58841 46.81136,266.97223C47.63586,267.4295 48.78003,267.31573 49.00687,266.55307C49.26217,265.6947 48.89531,264.53836 49.6587,264.26208C50.48008,263.96484 51.47186,264.58771 52.4007,264.24692C53.12019,263.98294 53.22054,262.63367 52.49053,262.27841C51.71895,261.90295 52.0478,262.42572 52.81136,262.17224C53.58353,261.91589 54.64384,261.47656 54.97536,260.81091C55.36555,260.02747 55.03897,259.08051 54.51136,258.27841C54.07233,257.61096 54.0605,256.69144 53.4007,256.23224C52.67439,255.72676 51.79447,255.45087 50.91153,255.25742C50.06824,255.07265 50.52063,253.95824 49.9542,253.26207C49.41656,252.6013 48.97746,252.15694 49.01136,251.25758C49.03997,250.49879 49.39885,249.61867 49.6587,248.91025C50.0254,247.91052 50.01136,247.05757 50.01153,246.15758L50.17803,245.25758L50.6587,244.55757L51.0007,243.69357" id="svg_49" stroke-width="3" stroke="#000" fill="none"/>
  <path t="326644,326844,326844,326861,326878,326894,326911,327026,327026,327068,327100,327132,327143,327160,327177,327193,327228,327228,327244,327260,327260,327277,327293,327310,327378,327428,327452,327496,327512,327512,327704,327746,327789,327846,328099,328114,328114,328130,328172,328448,328511,328832,328868,328877,329163,329163,329862" d="M80.01137,224.25758C80.2327,224.35757 80.47301,225.21162 81.06403,225.90041C81.62991,226.55989 82.56372,226.73888 82.95869,227.55757C83.37623,228.42303 83.86319,229.02618 84.00687,229.95758C84.14408,230.84706 83.71375,231.81267 84.02203,232.64691C84.29786,233.39331 85.5223,233.48776 85.88986,234.35757C86.24336,235.19412 86.00896,236.05757 86.01137,237.01474C86.01362,237.90576 86.19955,238.60251 86.72736,239.34024C87.19717,239.9969 87.75831,240.79475 87.97536,241.65758C88.19511,242.53108 88.01137,243.45758 88.01137,244.35757C88.01137,245.25758 88.01137,246.05757 88.01137,246.95758C88.01137,247.85757 88.15345,248.77058 88.00069,249.65758C87.85722,250.49072 87.06887,251.24261 87.0127,252.05757C86.95461,252.90025 87.89003,253.25758 88.71587,253.25758C89.6542,253.25758 90.56495,253.21014 91.31136,253.61024C92.15514,254.06253 93.01137,254.25758 93.81136,254.25758L94.71136,254.25758" id="svg_50" stroke-width="3" stroke="#000" fill="none"/>
  <path t="330931,331079,331094,331128,331161,331161,331178,331336,331372,331396,331412,331463,331510,331532,331532,331548,331560,331596,331644,331685,331694,331694,331711,331732,331733,331761,331761,331778,331794,331813,331844,331943,331995,332155,332155,332416" d="M66.01137,258.25757C67.57536,258.86826 67.8963,259.70074 68.36403,260.55759C68.77088,261.30289 69.0107,262.05759 69.01137,262.97223C69.01202,263.86826 69.01137,264.75757 69.01137,265.65756C69.01137,266.55759 69.01137,267.45758 69.01137,268.35757C69.01137,269.25757 69.01137,270.05759 69.01137,270.95758C69.01137,271.85757 69.01137,272.73676 69.01137,273.69357C69.01137,274.56207 69.14312,275.43845 68.99053,276.23676C68.80743,277.19473 67.8563,277.66772 67.5322,278.27841C67.04578,279.19492 67.01203,280.05624 67.01137,280.95758C67.0107,281.85757 67.01137,282.73676 67.01137,283.69357C67.01137,284.55759 67.01003,285.45758 66.79003,286.35757L66.36403,286.95758L65.98603,287.82156" id="svg_51" stroke-width="3" stroke="#000" fill="none"/>
  <path t="333346,333478,333494,333511,333594,333613,333613,333637,333637,333661,333685,333711,333733,333749,333778,333794,333829,333829,333861,333885,333894,333911,333963,333978,334005,334053,334158,334174,334309,334328" d="M57.01136,258.25757C58.0007,260.84692 58.01136,261.75757 58.01136,262.64691C58.01136,263.54425 58.01136,264.42426 58.01136,265.25757C58.01136,266.23608 58.01136,267.05624 58.01136,267.95758C58.01136,268.85757 58.01136,269.75757 58.01136,270.65756C58.01136,271.55759 58.01136,272.45624 58.01136,273.31024C58.01136,274.25757 58.01136,275.05759 58.01136,275.95758C58.01136,276.85757 58.01136,277.75757 58.01136,278.65756C58.01136,279.55759 58.01136,280.45758 58.01136,281.35757C58.01136,282.25757 57.8447,283.09091 57.0322,283.27841L56.92603,284.0589L56.4007,284.85757" id="svg_52" stroke-width="3" stroke="#000" fill="none"/>
  <path t="336105,336277,336277,336294,336311,336311,336327,336327,336327,336361,336361,336396,336436,336436,336461,336527,336544,336611,336627,336644,336668,336669,336694,336711,336748,336777,336904,337040,337126,337126,337158" d="M107.01137,260.25757C108.41136,262.08292 108.81186,262.77325 109.30686,263.5004C109.89045,264.35767 110.00912,265.12909 110.01137,266.02158C110.01366,266.93356 110.01137,267.58157 110.01137,268.75757C110.01137,269.54959 109.84861,270.51443 110.2327,271.35757C110.58804,272.1376 111.00912,272.90042 111.01137,273.77841C111.01362,274.65756 111.01137,275.55759 111.01137,276.45758C111.01137,277.35757 111.01137,278.25757 111.01137,279.05759C111.01137,279.95758 111.01137,280.85757 111.01137,281.75757C111.01137,282.64691 111.01137,283.61475 111.0127,284.45758L111.2327,285.35757L111.6587,285.95758L112.0367,286.82156" id="svg_53" stroke-width="3" stroke="#000" fill="none"/>
  <path t="338275,338476,338493,338516,338516,338526,338526,338548,338548,338564,338576,338636,338636,338694,338725,338744,338764,338812,338812,338861,338861,338877,338901,338917,338933,338981,339005,339045,339096,339225,339405,339405,339446,339484,339532,339544,339788,339829" d="M118.01137,255.25758C119.2327,256.13623 119.91299,256.63312 120.17803,257.42426C120.46313,258.27527 120.82309,259.09647 121.0367,259.8829C121.27176,260.74832 121.73056,261.39294 121.9542,262.5004C122.12425,263.34247 121.83781,264.29581 122.09669,265.05759C122.39845,265.9455 122.99336,266.65701 123.01137,267.55759C123.02936,268.4574 122.92308,269.37247 123.09669,270.14291C123.27533,270.93561 123.50331,271.87299 124.01137,272.71591C124.4281,273.40732 125.00912,273.96207 125.01137,274.85757C125.01363,275.75757 125.01137,276.65756 125.01137,277.55759C125.01137,278.45758 125.01137,279.35757 125.01137,280.25757C125.01137,281.05759 125.01137,281.95758 125.01137,282.82156C125.01137,283.77841 125.01137,284.65756 125.01137,285.55759L125.01003,286.45624" id="svg_54" stroke-width="3" stroke="#000" fill="none"/>
  <path t="340932,341072,341094,341094,341161,341177,341213,341227,341244,341244,341261,341277,341344,341375,341396,341445,341461,341606,341733,341821,341821,341879,341911,341933,341961,342005,342005,342061,342061,342077,342111,342256,342256,342284,342285,342360,342444,342475,342494,342517,342561,342561,342597,342627,342661,342712,342727,342748,342780,342851,342989,342989,343077,343109,343109,343143,343164,343258,343258,343277,343310,343424,343510,343510,343560,343740,343781,343781,343860,343876,344006,344006,344028,344044,344096,344143,344159,344176,344176,344193,344193,344209,344226,344276,344406,344406,344477,344509,344509,344533,344533,344627,344653,344823,344823,344838,344859,344876,344893,345008,345053,345077,345094,345110,345110,345127,345127,345144,345144,345160" d="M120.01137,229.25758C121.61137,229.86824 122.31516,230.5538 122.81136,231.05757C123.4958,231.75243 123.98277,232.55174 124.01137,233.47908C124.03844,234.35716 123.83781,235.29584 124.09669,236.05757C124.39845,236.94548 124.99336,237.65704 125.01137,238.55757C125.02936,239.4574 125.01137,240.35757 125.01137,241.25758C125.01137,242.05757 124.76597,242.69542 124.17803,243.42424C123.61449,244.12282 123.25589,244.79654 123.0322,245.75758C122.82804,246.63469 122.82453,247.58861 122.01137,248.09091C121.24778,248.56259 120.95061,249.15279 120.6587,249.91025C120.32187,250.78426 120.24896,251.74052 119.6542,252.55307C119.15914,253.2294 118.22577,253.23715 117.3632,253.61475C116.69453,253.90746 116.20412,254.86513 115.6542,255.55307C115.0646,256.29065 114.34169,256.65503 113.72603,257.17358C113.06069,257.73398 112.57984,258.23969 111.95869,258.90042C111.39093,259.50436 110.34178,259.36801 109.92737,260.0589C109.45061,260.85373 108.61191,261.23956 107.71136,261.25757C106.81155,261.27554 105.9112,261.25757 105.12603,261.25757C104.18604,261.25757 103.17803,261.25757 102.42204,261.25757C101.51137,261.25757 100.51842,261.49512 99.79003,261.03607C99.14523,260.6297 98.79683,259.70969 98.17803,259.09091C97.55924,258.47214 96.75485,258.16638 96.2967,257.45624C95.83884,256.74652 96.01137,255.73674 96.01137,254.77492C96.01137,253.96741 96.01137,253.03607 96.01137,252.15758C96.01137,251.25758 96.01137,250.45758 96.01137,249.55757C96.01137,248.65758 95.9584,247.72282 96.36403,246.95758C96.81243,246.11163 97.13697,245.2249 97.62203,244.65758C98.26047,243.91087 98.902,243.53534 99.49053,242.75758C100.04849,242.02023 99.82249,240.98827 100.23286,240.15758C100.57403,239.467 101.41137,238.85757 102.01137,238.25758C102.61137,237.65758 103.3076,236.9538 103.81136,236.45758C104.50622,235.77315 105.33643,235.37927 106.17803,235.09091C107.01652,234.80362 107.49899,233.91882 108.17803,233.42424C108.86497,232.9239 109.89003,233.25758 110.71587,233.25758C111.61137,233.25758 112.58094,233.36902 113.31136,232.90041C114.11128,232.38722 114.57184,231.61505 115.2127,231.05891C115.85981,230.49734 116.8367,230.29358 117.52737,230.25891L118.6007,230.25758" id="svg_55" stroke-width="3" stroke="#000" fill="none"/>
  <path t="347757,347960,348105,348132,348132,348257" d="M123.01137,225.25758C122.09669,225.54291 122.01137,226.35757 122.01137,227.25758L122.01137,228.05757L122.01137,228.95758" id="svg_56" stroke-width="3" stroke="#000" fill="none"/>
  <path t="351107,351605,351662,351677,351710,351778,351793,351793,351892,351909,351961,352027,352043,352203,352203,352237,352343" d="M93.01137,179.25758C93.01137,180.05891 93.01137,180.95758 93.01137,181.85757C93.01137,182.73674 92.59387,183.45782 92.17803,184.25758C91.79129,185.00139 91.26442,185.79475 91.04736,186.65758C90.82762,187.53108 91.01137,188.45758 91.01137,189.35757C91.01137,190.25758 91.01137,191.05757 91.01137,191.95758L91.01137,192.82158" id="svg_57" stroke-width="3" stroke="#000" fill="none"/>
  <path t="376427,376709,376741,376741,376810,376826,376909,377102,377102,377159,377190,377208,377208,377244,377268,377284,377292,377308,377376,377392,377420,377453,377453,377476,377500,377532,377559,377576,377576,377620,377642,377694,377694,377760,377776,377828,377860,377892,377892,377960,378011,378059,378219,378354,378568" d="M60.01136,199.25758C60.2967,198.34424 61.05817,198.56444 61.81136,198.97357C62.60889,199.40678 63.29184,199.75162 63.89003,200.47908C64.48888,201.20735 64.66866,202.06447 65.61137,202.24692C66.40733,202.40097 67.34155,202.16583 68.18604,202.29358C69.14598,202.4388 69.83146,203.17378 70.62203,203.25758C71.50642,203.35133 72.41136,203.25758 73.31136,203.25758C74.21136,203.25758 75.11137,203.25758 76.01137,203.25758C76.81136,203.25758 77.71136,203.25758 78.61137,203.25758C79.49053,203.25758 80.28914,202.9646 81.01137,202.25758C81.50625,201.77312 82.31991,201.3931 83.21136,201.25624C84.12714,201.11566 84.8269,200.57909 85.61137,200.23224C86.42939,199.87054 87.39108,199.57504 87.92737,198.97224C88.50558,198.32233 89.00462,197.83769 89.6542,197.20491C90.29881,196.57697 90.06853,195.55307 90.51137,194.75758L90.9542,193.96208L91.01137,193.09091" id="svg_60" stroke-width="3" stroke="#000" fill="none"/>
  <path t="380999,381244,381337,381337,381376,381376,381421,381421,381421,381442,381459,381476,381492,381492,381533,381533,381565,381609,381661,381661,381676,381692,381741,381764,381764,381827,381843,381858,381875,381891,381891,381908,381932,381941,381993,382044,382059,382076,382093,382109,382159,382159,382273,382301,382720,382823,382909,383023,383023,383135" d="M92.01137,194.25758C91.05303,195.27841 91.21395,196.248 91.62203,196.8829C92.18573,197.75992 92.61564,198.46609 93.01137,199.25758C93.40495,200.04478 93.66644,200.79192 94.01137,201.73674C94.31693,202.57375 95.32396,202.8438 95.89003,203.47925C96.35297,203.99893 96.4067,205.106 96.8127,205.77357C97.34891,206.65524 97.95048,207.35146 98.01137,208.25758C98.065,209.05577 97.82294,209.98526 98.04736,210.85757C98.27022,211.7238 99.2179,212.26846 99.6542,212.90041C100.14841,213.61626 100.01128,214.55757 100.01137,215.45758C100.01145,216.35757 100.05019,217.39113 100.71587,217.90041C101.39338,218.41873 102.00076,218.86824 102.01137,219.75758C102.0221,220.65758 102.52064,221.4727 102.8447,222.25758C103.2001,223.11838 103.57637,223.74454 103.95869,224.55757C104.36761,225.42714 104.86319,226.02618 105.00687,226.95758C105.14408,227.84706 104.86928,228.77058 105.02203,229.65758C105.16551,230.49072 105.8447,231.25758 106.06403,231.95758L106.51137,232.73674" id="svg_61" stroke-width="3" stroke="#000" fill="none"/>
  <path t="385533,385780,385797,385825,385842,386054,386054,386075,386092,386125,386125,386177,386192,386260,386301,386333,386349,386349,386365,386392,386437,386493,386533,386565,386597,386613,386613,386629,386653,386711,386748,386794,386828,386844,386896,386912,386960,387294,387294,387332,387359,387599,387643,387685" d="M70.01137,152.25758C70.01137,153.86824 70.01137,154.75758 70.01137,155.65758C70.01137,156.55307 69.84677,157.42633 69.30686,157.96208C68.61402,158.6496 67.76527,159.05757 67.01137,159.42424C66.24775,159.79564 65.51152,160.2449 64.61137,160.25758C63.71594,160.27019 63.22084,160.80209 62.6542,161.55307C62.14936,162.22214 61.23427,162.38104 60.41137,162.83224C59.63123,163.25999 58.66119,163.18452 58.0367,163.68291C57.42873,164.16809 56.56427,164.16357 55.71136,164.61024C54.95914,165.0042 54.23061,165.37444 53.41137,165.83224C52.6389,166.26392 52.13245,166.96962 51.4007,167.24692C50.50816,167.58514 50.0078,168.03828 49.21003,168.25624C48.32503,168.49802 48.0374,169.14496 47.4697,169.75758C46.80109,170.4791 45.79988,170.5406 45.25436,171.35757C44.73668,172.13286 44.8447,173.09091 44.02203,173.29358L44.01136,174.05891" id="svg_62" stroke-width="3" stroke="#000" fill="none"/>
  <path t="422439,422643,422692,422745,422791,422807,422874,422905,422923,422940,422956,422973,423006,423024,423074,423235,423235,423250,423284,423332,423332,423356,423373,423373,423535,423550,423593,423609,423609,423628,423675,423700,423724,423741,423764,423774,423791,423824,423892,424068,424091,424107,424107,424124,424124,424174,424288,424309,424359,424397,424424,424445,424571,424612,424656,424684,424708,424740,424740,424964,424964,425102,425237,425308,425359" d="M68.01137,153.25758C67.9542,151.55757 67.55096,150.73398 67.06403,149.96208C66.62093,149.25964 65.85556,148.81627 65.36403,148.20491C64.84583,147.56038 65.01137,146.55757 65.01137,145.65758C65.01137,144.75758 65.01137,143.86824 65.01137,142.97224C65.01137,142.05757 65.01137,141.15758 65.01137,140.25758C65.01137,139.45758 64.97514,138.49559 65.5322,137.75758C66.03453,137.09207 66.69511,136.57225 67.64736,136.23224C68.48148,135.93442 69.20524,135.70297 69.90154,134.96208C70.49825,134.32715 71.11857,133.80461 72.01137,133.42424C72.7629,133.10405 73.71136,133.25758 74.61137,133.25758C75.51137,133.25758 76.41136,133.25758 77.31136,133.25758C78.21136,133.25758 79.16482,133.54979 79.95869,133.25308C80.77805,132.94685 81.41082,132.27559 82.31136,132.25758C83.21252,132.23956 84.17803,132.25758 84.8367,132.25758C85.8447,132.25758 86.70692,132.24712 87.61137,132.25758C88.51155,132.26801 89.31149,132.60524 89.98603,133.23224C90.62646,133.82753 91.52666,134.11789 92.01137,134.77841C92.51735,135.46794 92.68465,136.48537 93.2327,137.13625C93.79033,137.79851 93.86546,138.50696 94.2327,139.35774C94.54301,140.07666 94.98563,140.90858 95.00687,141.6049C95.04073,142.71552 94.49053,143.25758 93.71136,143.61024L92.91136,144.13608" id="svg_63" stroke-width="3" stroke="#000" fill="none"/>
  <path t="439239,439392,439407,439457,439493,439493,439698,439698" d="M111.01137,153.25758C110.36403,153.96208 110.17738,154.99484 109.5647,155.64691C108.98547,156.26338 108.01137,156.25758 107.03287,156.47908L106.42204,156.86824" id="svg_65" stroke-width="3" stroke="#000" fill="none"/>
  <path t="442014,442173,442190,442190,442207,442223,442401,442401,442441,442441,442500,442522,442574,442574,442687,442703,442723,442723,442740,442740,442756,442773,443106,443138,443138,443141,443141,443141,443141,443141,443141,443156,443156,443156,443156,443156,443156,443156,443173,443173,443173,443173,443173,443173,443173,443173,443190,443190,443190,443190,443190,443190,443190,443190,443190,443414,443414,443414,443414,443414,443445" d="M112.01137,148.25758C111.4367,149.89357 111.2746,150.79214 110.95869,151.54774C110.61424,152.3716 110.08072,152.99953 109.72603,153.8269C109.45154,154.46719 108.83393,155.39246 108.31136,155.95308C107.63934,156.67404 106.85989,157.00836 106.01137,157.42424C105.24888,157.79794 104.47359,158.01747 103.61137,158.27892C102.82941,158.51602 102.47057,159.48351 101.91136,160.23592C101.45683,160.84749 100.4969,161.10448 99.61137,161.26825C98.78378,161.42131 98.67571,162.24069 99.38737,162.17491C100.69656,162.05389 101.09882,161.82036 102.03553,161.54774C102.5456,161.39929 103.61708,161.06905 104.1722,160.90575C105.84188,160.41458 106.38897,160.27414 106.9287,160.14291C107.99437,159.8838 108.53073,159.77092 109.6212,159.56207C110.17997,159.45506 111.34453,159.25656 112.5887,159.05492C113.24812,158.94804 113.93703,158.83817 114.6572,158.71591C115.41304,158.5876 116.20725,158.44875 117.0407,158.28691C118.84705,157.93616 119.81754,157.71808 120.82203,157.49091C121.84389,157.2598 122.86375,157.01921 123.86553,156.77841C124.83308,156.54584 125.74807,156.32092 126.59403,156.11092C128.01172,155.75899 128.55336,155.62192 128.98737,155.51224L129.32536,155.42458L129.88336,155.25357L130.09669,154.45624" id="svg_66" stroke-width="20" stroke="#fff" fill="none"/>
  <path t="446519,447054,447108,447180,447205,447335,447373,447550,447550,447608,447623,447645,447661,447708,447708,447749,448137" d="M96.01137,158.25758C96.0322,159.25758 96.75616,159.80518 96.97536,160.65758C97.19862,161.52574 97.52091,162.09708 98.31136,162.61475C99.10643,163.13544 99.70559,163.67154 99.97536,164.65758C100.21306,165.52637 100.01137,166.45758 100.01137,167.35757C100.01137,168.25758 100.01137,169.05757 100.04736,169.85757L100.44736,170.65758" id="svg_67" stroke-width="3" stroke="#000" fill="none"/>
  <path t="450036,450189,450241,450292,450333,450333,450349,450407,450458,450493,450493,450506,450540,450557,450573,450606,450720,450720,450736,450886,450908,450932,450932,450948,450980,451167,451167,451199,451223,451223,451256,451273,451437,451553,451608,451608,451753,451780,451855,452085,452222,452244,452244,452290,452356,452563,452579,452594,452605,452638,452638,453206,453258,453370,453396,453396,453646,453689,453772,453990,454006,454256,454256,454301,454323,454339,454356,454373,454677,454677,454677" d="M70.01137,154.25758C70.04736,156.84691 70.53878,157.60332 70.92737,158.45758C71.27449,159.22069 71.5687,159.91483 72.31136,160.55307C73.06209,161.19824 73.76162,161.53952 74.17803,162.25758C74.5985,162.98264 75.63967,162.94098 76.4367,163.26825C77.19845,163.58102 77.7765,164.21986 78.51137,164.77841C79.17519,165.28296 79.42023,166.1055 80.0367,166.82158C80.56168,167.43138 81.66284,167.24574 82.49536,167.54158C83.20145,167.79248 84.12326,168.21487 85.11137,168.25758C86.01053,168.29645 86.81136,168.25758 87.64736,168.25758C88.65953,168.25758 89.44203,168.25981 90.36853,168.25758C91.30687,168.25533 92.03119,167.86922 92.51137,167.23674C93.00809,166.58246 92.88631,165.617 93.44736,164.90424C94.03356,164.15952 94.98285,163.90633 95.01137,163.03607C95.04014,162.15805 94.78106,161.29726 94.36403,160.55757C93.944,159.81256 93.08184,159.57257 92.6327,158.83224C92.34016,158.35005 93.61137,158.25758 94.42204,158.25758C95.3327,158.25758 96.18815,158.32045 97.12337,158.25758C97.39185,158.23953 96.5856,157.84772 95.91153,157.15758C95.3461,156.57866 95.02178,155.75777 95.01137,154.85757C95.00101,153.96214 95.01137,153.03607 95.01137,152.15758C95.01137,151.25758 95.01137,150.45758 95.01137,149.55757C95.01137,148.65758 95.01137,147.75758 95.01137,146.85757C95.01137,145.94858 95.01137,144.92424 95.01137,144.25224L95.01137,143.50824" id="svg_68" stroke-width="3" stroke="#000" fill="none"/>
  <path t="466045,466189,466220,466323,466376,466422,466439,466460,466586,466586,466602,466645,466661,466672,466689,466706,466722,466961,466961,467039,467106,467149,467181,467367,467367,467423,467461,467601,468050,468088,468124" d="M122.01137,170.25758C121.30686,170.90491 120.35933,170.88086 119.51137,171.27841C118.7962,171.61369 118.68282,172.85567 117.81136,173.17224C116.96165,173.48091 116.01137,173.25758 115.21136,173.25758C114.31136,173.25758 113.41136,173.25758 112.51137,173.25758C111.61137,173.25758 110.71136,173.25758 109.81136,173.25758C108.91136,173.25758 108.01137,173.25758 107.21136,173.25758C106.2967,173.25758 105.39249,172.91528 105.09669,172.05757C104.80196,171.20294 105.01137,170.25758 105.01137,169.45758C105.01137,168.55757 105.01137,167.65758 105.01137,166.75758L105.01137,165.85757L105.01137,164.95758L105.01137,164.05891" id="svg_69" stroke-width="20" stroke="#fff" fill="none"/>
  <path t="469339,469456,469523,469572,469703,469703,469888,469888" d="M111.01137,163.25758C110.17803,163.42424 109.72937,164.21486 108.91136,164.25758C108.0126,164.30453 107.12603,164.25758 106.18604,164.25758L105.49536,164.25758" id="svg_70" stroke-width="20" stroke="#fff" fill="none"/>
  <path t="470705,470871,470908,470924,470924,470964" d="M107.01137,163.25758C105.31136,163.31474 104.51137,163.77841 103.81136,164.45624L103.21136,164.97224L102.36853,165.31024" id="svg_71" stroke-width="20" stroke="#fff" fill="none"/>
  <path t="471874,471972,471989,472005,472005,472022,472039,472200,472255,472272,472273,472305,472305,472322,472373,472689" d="M111.01137,151.25758C110.01137,152.25758 110.01137,153.13641 110.01137,153.96741C110.01137,154.77492 110.01137,155.73674 110.01137,156.65758C110.01137,157.55757 110.05989,158.45889 110.0112,159.35774C109.96848,160.14636 109.6542,160.91025 109.21003,161.77357L108.71587,162.49591L108.06853,163.20491L108.01137,164.05891" id="svg_72" stroke-width="20" stroke="#fff" fill="none"/>
  <path t="477540,477748,477821,477854,477938,477989,478038,478072,478109,478188,478188,478244,478244,478287,478304,478321,478321,478337,478372,478642,478687,478708,478756,479032,479072,479072,479093,479171,479372,479387" d="M99.01137,165.25758C99.29536,164.34291 99.74233,164.54346 100.06853,165.31024C100.41275,166.11938 101.00095,166.7574 101.01137,167.65758C101.02178,168.55751 100.90571,169.48347 101.17803,170.42424C101.37316,171.09831 102.12714,171.77567 102.6542,172.30574C103.26964,172.92471 103.5017,173.78857 104.21136,174.45624C104.78774,174.9985 105.69924,175.35602 106.09537,176.05891C106.55556,176.8755 106.99336,177.65704 107.01137,178.55757C107.02936,179.4574 107.01137,180.35757 107.01137,181.25758C107.01137,182.05757 107.01137,182.97224 107.01137,183.86824L107.0322,184.73674L107.62203,185.24692" id="svg_73" stroke-width="3" stroke="#000" fill="none"/>
  <path t="483709,484622,484781,485028,485028,485061,485339,485421,485535,485565,485639,485639,485654,485688,485755,485771,485823,485982,485998,486045,486088,486109,486133,486497,486497,486555,487085,487218,487271,487288,487357,487372" d="M70.01137,150.25758C70.8447,150.09091 71.35556,149.4671 72.11137,149.03607C72.78046,148.6545 73.45351,147.89168 73.89003,147.15775C74.35555,146.37505 75.21136,146.25758 76.11137,146.25758C77.01137,146.25758 77.81136,146.25758 78.71136,146.25758C79.57536,146.25758 80.44736,146.25758 81.41136,146.25758C82.31136,146.25758 83.21136,146.25758 84.11137,146.25758C85.01137,146.25758 85.56575,145.83989 86.23286,145.37907C86.96257,144.87503 88.01137,145.25758 88.81136,145.25758C89.72603,145.25758 90.62205,145.26285 91.51137,145.25758C92.41141,145.25224 93.21003,144.97224 93.8447,144.25758L94.17803,143.42424" id="svg_74" stroke-width="3" stroke="#000" fill="none"/>
  <path t="496122,497171,497332,498611,498718,498718,498913,499018,499354" d="M80.01137,153.25758C80.8127,153.25758 82.50417,152.33833 82.6407,153.25758C82.75266,154.01138 81.2967,154.05891 80.98603,154.85757L80.58603,155.65758L80.09669,156.45624" id="svg_75" stroke-width="3" stroke="#000" fill="none"/>
  <path t="505969,506092,506109,506109,506121,506121,506137,506137,506154,506154,506181,506181,506204,506204,506221,506484,506500,506525,506537,506537,506554,506573,506597,506621,506621,506637,506654,506671,506693,506709,506709,506721,506737,506737,506754,506754,506771,506787,506787,506804,506804,506837,506837,506904,506971,507334,507334" d="M108.01137,149.25758C106.84203,150.05891 106.16677,150.71719 105.4087,150.97224C104.4422,151.29741 103.61625,151.18512 102.76403,151.61475C102.07084,151.9642 101.35944,152.56752 100.60686,152.95758C99.61941,153.46939 98.8773,153.91417 98.03287,154.13608C97.23116,154.34676 96.1254,153.74963 95.36853,154.31474C94.73406,154.78847 95.55315,155.73788 96.21003,156.45758C96.74352,157.04208 97.0433,157.96902 97.4367,158.65758C97.90192,159.47183 97.91711,160.37383 98.09669,161.14291C98.32171,162.10657 98.78741,162.93973 99.02203,163.69357C99.29817,164.58081 99.90217,165.24783 100.01003,166.05757C100.13665,167.00813 100.39898,167.9019 100.6587,168.66208C100.92648,169.44585 100.91908,170.42612 101.0127,171.37224C101.10138,172.26851 101.65247,172.87283 102.11137,173.5789C102.54066,174.23944 103.01158,175.34093 103.61137,175.81091C104.31919,176.36555 105.31136,176.26207 106.21136,176.54158L106.81136,176.97357" id="svg_76" stroke-width="20" stroke="#fff" fill="none"/>
  <path t="507965,508004,508004,508021,508021,508037,508037,508054,508054,508077,508077,508104,508137,508154,508189,508205,508221,508237,508237,508287,508287,508325,508325,508349,508371,508387,508404,508422,508422,508437,508437,508661,508677,508693,508741,508741,508757,508757,508773,508787,508804,508821" d="M135.01137,158.25758C133.18604,159.66824 132.58348,159.93819 131.8967,160.74158C131.35214,161.3786 130.83238,162.1862 130.44736,162.8829C129.99814,163.69577 130.01363,164.66206 130.01137,165.65625C130.00963,166.42157 130.22754,167.48509 129.72737,168.17358C129.22424,168.86615 129.01137,169.55757 129.01137,170.45758C129.01137,171.35757 129.10452,172.27046 128.95419,173.01474C128.76721,173.94046 128.37048,174.65063 127.71136,175.50041C127.25316,176.09117 126.48906,176.70074 125.71587,177.20491C125.015,177.66191 124.593,178.38033 124.17803,179.25758C123.84096,179.97017 123.76814,180.98203 123.30686,181.54774C122.65036,182.35289 121.71136,182.25758 120.71587,182.25758C119.8447,182.25758 119.10014,182.23203 118.18604,181.82158C117.47324,181.50153 116.64736,180.86824 115.91136,180.37907L115.01137,180.25758L114.17803,180.09091" id="svg_77" stroke-width="20" stroke="#fff" fill="none"/>
  <path t="509653,509837,509854,509887,509920,509920" d="M113.01137,179.25758C111.21136,179.25758 110.36853,179.25758 109.57536,179.69357L108.91136,180.35741L108.31136,180.90041" id="svg_78" stroke-width="20" stroke="#fff" fill="none"/>
  <path t="513952,514355,514413,514437,514631,514647,514721,514737,514765,514853,514999,515166,515221,515519,515519,515548,515793,515809,515918,516347,516613,516800,516800,516853,516853,516892,517158,517455,517584,517832,517877,518000,518020,518036,518433,518870,518903" d="M93.01137,144.25758C93.01137,145.05891 93.01137,145.95758 93.01137,146.85757C93.01137,147.75758 93.01137,148.65758 93.01137,149.55757C93.01137,150.45758 92.92268,151.36195 93.01137,152.25758C93.09511,153.10327 93.89418,153.54688 94.01153,154.35757C94.14265,155.26341 95.25732,155.95296 94.9647,156.82158C94.71354,157.56714 93.41135,157.26299 92.51137,157.25758C91.62199,157.25224 90.98228,156.71948 91.01153,157.35774C91.04769,158.1467 91.22158,159.00989 91.8127,159.68825C92.44376,160.41245 93.00912,160.96207 93.01137,161.85757C93.01358,162.73674 93.27428,163.65364 93.00687,164.55307C92.78011,165.31575 91.71587,165.26207 91.0367,165.68291L90.4367,166.24692L89.57536,166.25758L88.61137,166.25758" id="svg_79" stroke-width="3" stroke="#000" fill="none"/>
  <path t="520231,520305,520320,520357,520389,520445,520491,520491,520547,520547,520547,520563,520563,520684,520703,520741,520773,520789,520813,520813,520950,520965,521133,521133" d="M98.01137,161.25758C98.86203,162.64691 99.88829,163.10684 100.01137,163.86824C100.15329,164.74619 99.94238,165.69043 100.23286,166.57907C100.46923,167.30212 101.00401,168.26135 101.31136,168.85307C101.70208,169.6053 102.40821,170.43686 102.72603,171.05624C103.15703,171.89619 103.00603,172.85759 103.01137,173.75758C103.0167,174.65762 103.42024,175.38489 103.8447,176.25758C104.21137,177.01149 104.51137,177.75758 104.98603,178.65758L105.29536,179.45758L105.72736,180.05757" id="svg_80" stroke-width="3" stroke="#000" fill="none"/>
  <polyline timestamps="526385,526733,527259" startTime="1502534679585" id="svg_81" points="46.011364719714976,172.25757681030376 45.72736471971497,173.17224347697044 45.01119805304831,173.47907681030375 " stroke-linecap="round" stroke-width="3" stroke="#000" fill="none"/>
  <polyline timestamps="529487,529720,529765" startTime="1502534679585" id="svg_82" points="43.011364719714976,173.25757681030376 42.011364719714976,173.96207681030378 42.011364719714976,174.85757681030375 " stroke-linecap="round" stroke-width="3" stroke="#000" fill="none"/>
  <path t="545106,545221,545240,545269,545286,545286,545286,545286,545302,545302,545341,545386,545402,545419,545437,545452,545469,545552,545583,545602,545602,545619,545619,545636,545636,545636,545652,545669,545669,545686,545686,545686,545702,545702,545702,545719,545719,545736,545736,545736,545736,545752,545752,545752,545752,545769,545769,545769,545786,545786,545786,545804,545805,545821" d="M169.01137,296.25757C170.01137,296.25757 170.82779,296.36536 171.71936,296.18558C172.53691,296.02072 173.37331,295.55573 174.01137,295.23676C174.65746,294.91379 175.72646,294.24792 176.44887,293.79926C177.28925,293.27731 178.21136,293.25757 179.11119,293.25757C179.95869,293.25757 180.8127,293.25757 181.71136,293.25757C182.61136,293.25757 183.51137,293.25757 184.41136,293.25757C185.21404,293.25757 185.98203,293.25757 187.02119,293.25757C187.79669,293.25757 188.8447,293.25757 189.5497,293.25757C190.5247,293.25757 191.52737,293.22153 192.33287,293.47891C193.04996,293.70804 194.00819,294.1105 194.82204,294.23224C195.69382,294.36264 196.69568,294.53558 197.49052,294.75757C198.24364,294.9679 199.20918,295.22775 200.0647,295.25626C201.06682,295.28964 201.71936,295.25757 202.44336,295.25757C203.21536,295.25757 204.41119,295.25757 205.20686,295.25757C205.99052,295.25757 206.7542,295.25757 208.1897,295.25757C208.8497,295.25757 209.76469,295.25757 210.8447,295.25757C211.5542,295.25757 212.40686,295.25757 213.41003,295.25757L214.17537,295.25757L215.2587,295.25757" id="svg_83" stroke-width="3" stroke="#000" fill="none"/>
  <path t="547304,547403,547419,547436,547436,547452,547452,547452,547469,547469,547469,547469,547486,547486,547486,547486,547486,547486,547486,547502,547502,547502,547502,547601,547616,547660,547668,547668,547685,547701,547800,547837,547853,547869,547886,547886,547886,547902,547902,547902,547902,547919,547919,547936,547936,548019,548019,548050,548069,548069,548069,548086,548086,548200,548200,548216,548216,548271,548287,548318,548335,548335,548335,548351,548368,548412,548451,548468,548468,548485,548501,548501,548518,548518,548535,548535,548551,548551,548572,548572,548586,548612,548635,548651,548676,548720,548720,548757,548770,548805,548819,548836,548852,548869,548886,548886,548902,548902,548919,548936,548952,548969,548986,549002,549002,549019,549019,549071,549071,549086,549086,549102,549119,549119,549119,549119,549136,549136,549136,549136,549136,549136,549152,549152,549152,549189,549189,549189,549238,549320,549320,549351,549351,549369,549369,549386,549386,549402,549419,549436,549452,549452,549469,549469,549469,549487,549487,549644,549689,549705,549736,549752,549769,549786,549786,549802,549802,549802,549819,549819,549836,549836,550044,550044,550068,550069,550085" d="M212.01137,294.25757C213.81137,294.25757 214.64737,294.25757 215.49803,294.25757C216.25803,294.25757 217.43286,294.25757 218.24736,294.25757C218.82204,294.25757 220.01146,294.2666 220.92937,294.25308C221.59482,294.24329 222.3414,294.216 223.67802,294.09091C224.1973,294.0423 225.3221,293.9054 225.9127,293.83224C226.51143,293.75809 227.70021,293.60608 228.27536,293.54156C229.82381,293.36789 230.67325,293.30478 231.38637,293.27841C232.23502,293.24704 233.33937,293.25757 234.21136,293.25757C235.11136,293.25757 236.01137,293.25757 236.81137,293.25757C237.71136,293.25757 238.61136,293.25757 239.51137,293.25757C240.41136,293.25757 241.31137,293.25757 242.21269,293.25757C243.17802,293.25757 243.8687,293.25757 244.78337,293.25757C245.65404,293.25757 246.66203,293.25757 247.3607,293.25757C248.04337,293.25757 249.23936,293.25818 250.15404,293.25757C251.12737,293.2569 251.92012,293.2326 252.8367,292.82156C253.54962,292.50186 254.18452,291.80814 255.17802,291.42426C255.81615,291.17767 256.6347,291.24405 257.61136,290.90042C258.43408,290.61096 259.19791,290.12912 259.99054,289.77841C260.97467,289.34296 261.73312,289.07504 262.61136,289.29358C263.47476,289.50842 264.22949,290.11609 265.17804,290.42426C265.85104,290.64291 266.5025,291.0928 267.49054,291.23676C268.40198,291.36954 269.30685,291.25757 270.29669,291.25757C271.11154,291.25757 271.8967,291.25757 272.8367,291.25757C273.8447,291.25757 274.63669,291.25757 275.4967,291.25757C276.41586,291.25757 277.41003,291.25809 278.17535,291.25757C279.12735,291.2569 279.90448,291.19647 280.8367,290.83224C281.53467,290.55954 282.49036,290.26801 283.41138,290.25757C284.31131,290.24738 285.21136,290.25757 286.11136,290.25757C287.01135,290.25757 287.81137,290.25757 288.71136,290.25757C289.57538,290.25757 290.26453,290.80264 291.11136,291.13608C291.95636,291.46878 292.60196,291.64209 293.29803,292.17358C294.0253,292.72888 294.80392,292.77576 295.8447,293.09091C296.5835,293.31464 297.51135,293.25757 298.41138,293.25757C299.30685,293.25757 300.17093,293.36356 300.87271,293.68292C301.83218,294.11954 302.63721,294.22684 303.4967,294.25891C304.41693,294.29327 305.21384,294.47165 305.99054,294.75757C306.99335,295.12674 307.81003,295.2569 308.71936,295.25757C309.77618,295.25833 310.39188,295.25757 311.11554,295.25757C311.93921,295.25757 313.3447,295.25854 313.8537,295.25742C314.90768,295.2551 315.44098,295.25632 316.48871,295.22159C316.99188,295.20493 318.35931,295.15817 319.38269,294.90042C320.18356,294.6987 321.00436,294.24307 321.80069,293.86826C322.51996,293.52969 323.51117,293.26801 324.3327,293.25757C325.18597,293.24673 326.17545,293.40283 326.89536,293.08691C327.75513,292.70963 328.17679,292.06274 328.98987,291.27924C329.59393,290.69714 330.41086,290.27625 331.31137,290.25757C332.21118,290.23892 333.06186,289.93866 333.82568,289.61023C334.73709,289.21832 335.53696,289.29456 336.3287,289.17358C337.33295,289.02014 338.13593,288.58881 338.98969,288.37909C339.9079,288.15353 340.71585,288.25757 341.61136,288.25757C342.51135,288.25757 343.44064,288.31543 344.33286,288.03625C345.05133,287.81143 346.00873,287.4086 346.81137,287.2829C347.60907,287.15796 348.60504,286.88699 349.21136,286.68292C350.2019,286.34955 351.0112,286.26801 352.01135,286.25757C352.80066,286.24933 353.8447,286.25757 354.64969,286.20041L354.92471,285.45624" id="svg_84" stroke-width="3" stroke="#000" fill="none"/>
  <path t="551185,551652,551652,551669,551685,551685,551735,551769,551769,551788,551802,551802,551819,551819,551819,551835,551835,551835,551835,551835,551852,551852,551852,551852,551852,551852,551852,551869,551869,551869,551869,551999,552021,552035,552035,552052,552052,552069,552069,552069,552085,552085,552085,552102,552102,552102,552102,552135,552135,552135,552157,552157,552169,552197,552237,552253,552253,552269,552269,552285,552285,552285,552302,552302,552302,552302,552302,552302,552319,552319,552319,552319,552319,552335,552335,552335,552335,552352,552352,552397,552453,552453,552469,552485,552502,552502,552519,552519,552535,552535,552552,552552,552569,552619,552635,552652,552652,552669,552669,552669,552685,552685,552685,552702,552702,552719,552719,552735,552752,552819,552819,552835,552835,552852,552868,552884,552901,552940,552940,552951,552951,552968,552984,552984,552984,552984,553001,553001,553001,553001,553001,553018,553018,553018,553018,553034,553035,553035,553102,553151,553168,553184,553201,553201,553218,553234,553234,553251,553251,553268,553284,553284,553301,553301,553353,553513,553528,553551,553568,553584,553584,553601,553602,553620,553621,553644,553703,553703,553735,553752,553769,553769,553785,553785,553802,553819,553819,553835,553835,553852,553852,553869,553869,553885,553885,553902,553925,553957,553969,553969,553985,553985,554002,554002,554019,554019,554037,554037,554052,554069,554102,554119,554135,554135,554152,554169,554185,554202,554219,554235,554252,554269,554285,554335,554388,554429,554453,554453,554469,554469,554485,554485,554502,554519,554519,554519" d="M167.01137,293.25757C168.17802,292.25757 168.66499,291.69717 169.30687,290.95758C169.88548,290.29089 170.02362,289.40732 170.5322,288.75757C171.13333,287.98953 171.81129,287.45752 172.41136,286.85757C173.1116,286.15747 173.65147,285.59735 174.55453,285.15756C175.272,284.80814 175.86385,284.6413 177.17802,284.25757C177.89815,284.0473 178.67938,283.84695 179.53003,283.62158C179.98737,283.50043 181.51173,283.09222 182.07503,282.93607C182.66109,282.77359 183.86719,282.42532 184.4697,282.23676C185.06454,282.0506 186.20441,281.69318 187.17802,281.25757C187.99774,280.89081 188.61002,280.46359 189.3317,279.97192C190.24115,279.35233 191.21136,279.25757 192.11153,279.25757C192.8967,279.25757 193.67303,279.25714 194.47304,279.25757C195.6967,279.25824 196.25003,279.23227 197.11586,279.31476C198.31715,279.4292 198.90819,279.62354 199.81137,279.83224C201.00742,280.10861 201.61317,280.16019 202.51137,280.27841C203.11273,280.35757 204.32054,280.67981 204.90236,280.96292C205.75433,281.3775 206.64259,282.04947 207.4697,282.21591C208.39375,282.40189 209.30687,282.25757 210.23286,282.25757C211.11153,282.25757 211.8967,282.25757 212.85803,282.25757C213.69803,282.25757 214.7007,282.25757 215.27936,282.25757C216.28737,282.25757 217.51137,282.25757 217.97552,282.25757C218.97386,282.25757 219.49803,282.25757 220.57137,282.25757C221.11053,282.25757 222.67802,282.26028 223.63936,282.25626C224.09253,282.25436 224.95055,282.26361 225.74519,282.20041C227.19441,282.08511 227.85074,281.90915 228.76469,281.68292C229.32533,281.54416 230.54854,281.29242 231.3497,281.26208C232.25359,281.22784 233.15936,280.89017 233.81137,280.54156C234.65875,280.0885 235.39291,279.78027 236.17802,279.25757C236.81491,278.83356 237.8504,278.44641 238.6367,278.23224C239.50232,277.99646 240.21188,277.68707 240.98987,277.15775C241.73349,276.65182 242.44992,276.09421 243.1212,275.61023C243.78268,275.13333 244.86588,275.38507 245.6727,275.18558C246.60101,274.95605 247.26405,274.3912 247.79669,274.10825C248.82884,273.55997 249.77888,273.33755 250.40686,273.20941C251.41658,273.00339 252.14217,272.5694 253.12737,272.3429C253.88031,272.1698 254.95909,272.56296 255.76869,272.03607C256.58038,271.50784 256.82901,270.75635 257.8447,270.42426C258.57843,270.18436 259.51135,270.25757 260.41138,270.25757C261.31137,270.25757 262.23465,270.35397 263.17804,270.09091C263.85968,269.90085 264.83328,269.35159 265.60071,269.26825C266.42792,269.17844 267.3447,269.25757 268.30469,269.25757C268.90469,269.25757 269.58469,269.25757 270.75421,269.25757C271.62119,269.25757 272.5322,269.25757 273.4632,269.25757C273.92871,269.25757 275.28952,269.25757 276.1452,269.25757C276.94885,269.25757 277.69254,269.25757 278.9682,269.25757C279.7287,269.25757 280.52338,269.25757 281.60071,269.25757C282.51135,269.25757 283.41138,269.25757 284.31137,269.25757C285.21271,269.25757 285.89984,269.19083 286.8367,269.26825C287.85324,269.35226 288.47568,269.79459 289.21136,270.45624C289.79977,270.98541 290.69012,271.25339 291.49536,271.82556C292.04391,272.21536 292.79855,273.07904 293.64969,273.24857C294.51523,273.42096 295.44763,273.00986 296.30685,273.26208C297.07892,273.48871 297.35379,274.57141 298.01135,275.25757C298.50061,275.7681 299.17776,276.49939 299.76852,276.95758C300.61829,277.6167 301.35596,277.90863 302.25421,278.2049C303.10883,278.48676 303.77994,279.09381 304.61136,279.24692C305.49701,279.41 306.29565,279.64249 306.8967,280.0589C307.80807,280.69034 308.52472,280.9816 309.51135,281.25757C310.33057,281.48669 310.98602,281.83099 311.99002,282.13623C312.74905,282.367 313.65308,282.65286 314.41586,282.90491C315.39337,283.22791 316.17532,283.25223 317.12735,283.25757C317.89536,283.26187 318.87335,282.95236 319.84204,283.25891C320.67001,283.5209 321.32767,284.18652 322.18604,284.24692C323.12643,284.31308 323.8212,284.25757 324.77936,284.25757C325.51135,284.25757 326.6846,284.17328 327.49054,284.27841C328.34879,284.39038 329.21851,284.71863 330.02603,285.2829C330.69046,285.74719 331.41083,286.2395 332.31586,286.25757C333.33231,286.27786 334.09894,286.06628 334.90152,286.61023C335.57996,287.07004 336.41138,287.25757 337.31137,287.25757C338.21136,287.25757 339.11121,287.25757 339.95871,287.25757C340.81268,287.25757 341.71136,287.25757 342.61136,287.25757C343.51135,287.25757 344.42203,287.25757 345.33286,287.25757C346.0322,287.25757 347.01385,287.31073 347.80069,287.24692C348.85284,287.16159 349.60071,286.68292 350.32037,286.31476L351.3447,286.25757L352.01221,286.25308L352.94885,286.20041" id="svg_85" stroke-width="3" stroke="#000" fill="none"/>
 </g>
</svg>