<svg width="500" height="333.3333333333333" xmlns="http://www.w3.org/2000/svg" xmlns:svg="http://www.w3.org/2000/svg" xmlns:xlink="http://www.w3.org/1999/xlink">
 <!-- Created with SVG-edit - http://svg-edit.googlecode.com/ -->
 <g display="inline" class="layer">
  <title>Layer 1</title>
  <path t="0,672,688,932,948,965,1058,1085,1085,1125,1149,1173,1213,1213,1463,1479,1479,1525,1565,1565,1621,1645,1725,1775,1809,1876,2096,2096,2117,2173,2205,2230,2253,2277,2301,2317,2317,2341,2349,2365,2373,2381,2389,2397,2413,2414,2422,2438,2602,2677,2692,2710,2734,2766,2766,2806,2946,3009,3009,3009,3091,3133,3133,3181,3259,3259,3326,3326,3365,3397,3437,3477,3517,3517,3592,3637,3669,3726,3776,3844,3844,3981,3989,4045,4077,4109,4117,4207,4253,4527,4608,4608,4659,4659,4788,4837,4869,4925,5070,5070,5118,5207,5275,5357,5409,5491,5543,5559,5597,5753,5768,5790,5875,5988,6134,6166,6257,6257,6606,6645,6693,6915,6949,8020,8020,8582,8597,8643,8818,8818,8893,9068,9157,9205,9259,9467,9467,9590,9786,9954,9954,9970,10107,10209,10209,10245,10262,10311,10392,10490,10575,10613,10802,10854,10854,11003,11108,11333,11333,11441,11587,11587,11603,11676,11676,11773,11773,11813,11859,11989,11989,11989,12046,12123,12123,12139,12157,12226,12242,12242,12308,12308,12357,12519,12535,12625,12723,12808,12861,12861,13174,13257,13273,13293,13349,13349,13721,14320,14381,14489,14541,14541,14639,14685,14758,15170,15242,15464,15509,15581,15581,15642,15677,15701,17085,17125,17133,17165,17189,17189,17197,17206,17253,17261,17278,17294,17317,17317,17333,17349,17373,17421,17476,17509,17533,17533,17581,17597,17629,17669,17701,17749,17757,17789,17789,17805,17837,17845,17893,17917,17933,17933,17965,17981,18058,18074,18117,18149,18189,18189,18221,18221,18229,18261,18285,18301,18333,18333,18357,18365,18381,18413,18413,18445,18445,18453,18501,18501,18541,18541,18557,18589,18613,18637,18685,18717,18717,18733,18749,18781,18805,18805,18829,18854,18869,18901,18901,18933,18933,18989,18989,18989,19029,19029,19092,19108,19126,19174,19174,19214,19246,19246,19278,19302,19375,19375,19391,19437,19437,19540,19556,19658,19717,19749,19758,19774,19826,19876,19926,19958,19990,20043,20043,20058,20078,20173,20205,20245,20269,20309,20317,20318,20333,20381,20405,20445,20453,20517,20518,20557,20581,20581,20642,20642,20693,20733,20757,20757,20809,20854,20862,20894,20943,20996,21045,21077,21117,21165,21165,21189,21213,21275,21275,21325,21341,21341,21393,21430,21454,21454,21494,21562,21656,21710,21791,21791,21889,21889,21942,22023,22107,22142,22174,22230,22254,22263,22302,22358,22359,22359,22413,22445,22509,22525,22794" d="M337.5,66.66666C338.48932,64.07733 338.49774,63.16666 338.5,62.26667C338.50226,61.37116 339.0264,60.85695 339.69867,60.38133C340.47894,59.82932 340.48132,58.86648 340.5,57.96667C340.51868,57.06614 341.08224,56.34614 341.37851,55.5665C341.66064,54.82399 341.33176,53.79678 341.66666,52.83333C341.90253,52.15478 342.96405,51.82283 343.70001,51.38133C344.3786,50.97424 345.00577,50.19717 345.7955,49.71933C346.45221,49.32198 347.03488,48.81568 347.89999,48.656C348.73138,48.50255 349.4874,47.7517 350.29999,47.668C351.19528,47.57578 352.10001,47.66667 353,47.66667C353.89999,47.66667 354.79999,47.66667 355.70001,47.66667C356.60001,47.66667 357.5,47.66667 358.29999,47.66667C359.20001,47.66667 360.10001,47.66667 361,47.66667C361.89999,47.66667 362.79999,47.66667 363.70001,47.66667C364.60001,47.66667 365.5,47.66667 366.29999,47.66667C367.20001,47.66667 368.10001,47.66667 369,47.66667C369.89999,47.66667 370.79999,47.66667 371.70001,47.66667C372.60001,47.66667 373.5004,47.6413 374.29999,47.66667C375.20139,47.69527 375.95523,48.07067 376.5,48.83333C376.94791,49.4604 377.24036,50.22817 377.89999,51.03067C378.54489,51.81524 379.14471,52.36583 379.5,53.16667C379.85455,53.96583 380.43912,54.76055 380.5,55.66667C380.55362,56.46487 380.55716,57.36667 381,58.16667C381.44284,58.96667 381.44562,59.86832 381.50015,60.76667C381.54288,61.47054 382.24695,62.20385 382.46399,63.06667C382.68372,63.94017 382.5,64.86667 382.5,65.76667C382.5,66.66666 382.5,67.46667 382.5,68.36667C382.5,69.26667 382.80991,70.22638 382.48932,71.056C382.18292,71.84892 381.86325,72.46845 381.46399,73.23067C381.06677,73.98897 380.05573,74.27909 379.62167,75.1095C379.27597,75.77088 379.65564,76.92246 380.30133,77.38C381.00095,77.87575 382.09811,77.9952 382.41467,78.86667C382.72333,79.71638 382.5,80.66666 382.5,81.46667C382.5,82.36667 382.5,83.26667 382.5,84.16666C382.5,85.06667 382.67496,86.11768 382.064,86.64133C381.34796,87.25504 380.35028,87.25175 379.66666,87.83334C379.00067,88.39993 378.62375,89.2051 377.97916,89.66666C377.28558,90.16329 376.82764,90.89524 376.27866,91.54533C375.71768,92.20964 375.29587,92.96197 374.69867,93.38133C373.93787,93.9156 373.80042,94.65203 373.216,95.49734C372.73599,96.19164 372.00388,96.52215 371.29999,96.952C370.62463,97.36445 369.82477,98.08157 369.55716,98.96667C369.29617,99.82981 369.60739,100.89527 370.2045,101.3095C370.99344,101.85681 372,101.66666 372.89999,101.66666C373.79999,101.66666 374.75729,101.50298 375.60001,101.888C376.26932,102.1938 377.16519,102.58431 377.89999,103.10267C378.57288,103.57735 379.07809,104.25997 379.5,105.16666C379.86963,105.961 380.5929,106.59127 381.064,107.26667C381.57568,108.00026 381.42694,109.01684 381.92532,109.64133C382.41052,110.2493 382.5,111.06667 382.5,111.96667C382.5,112.86667 382.5,113.76667 382.5,114.66666C382.5,115.46667 382.5,116.36667 382.5,117.26667C382.5,118.16666 382.41827,119.07077 382.50449,119.97117C382.58807,120.84446 382.87079,121.7843 383.59982,122.42384C384.23135,122.97784 384.52481,123.57772 384.936,124.492C385.2565,125.20458 386.00778,125.79858 386.37851,126.76667C386.70331,127.61476 386.55545,128.36761 387,129.16667C387.44562,129.96762 387.76611,130.88376 388.30133,131.46666C388.86954,132.08546 389.45728,132.86365 389.5,133.76666C389.54251,134.66566 389.47336,135.45659 389.85718,136.31483C390.22449,137.13622 391.21417,137.51355 391.48932,138.27733C391.79074,139.11411 391.49933,140.06667 391.5,140.96666C391.50067,141.86667 391.80084,142.7175 392.14734,143.36667C392.60068,144.21603 392.6673,145.27599 392.14282,145.96217C391.56934,146.71249 390.52588,146.87427 389.89999,147.24133C389.12848,147.6938 388.24878,148.09953 387.5,148.5C386.70856,148.92328 386.5,149.66667 386.5,150.46666C386.5,151.36667 386.5,152.26666 386.5,153.16667C386.5,154.06667 386.5,154.96666 386.5,155.86667C386.5,156.76666 386.5,157.66667 386.5,158.46666C386.5,159.36667 386.5,160.26666 386.5,161.16667C386.5,162.06667 386.5,162.96666 386.5,163.86667C386.5,164.76666 386.5,165.66667 386.5,166.46666C386.5,167.36667 386.5,168.26666 386.5,169.16667C386.5,170.06667 386.39304,170.97319 386.50134,171.86667C386.61282,172.78642 387.30984,173.32076 387.48932,174.26666C387.6571,175.15096 387.5,176.06667 387.5,176.96666C387.5,177.86667 387.5,178.76666 387.5,179.66667C387.5,180.46666 387.5,181.36667 387.5,182.26666C387.5,183.16667 387.5,184.06667 387.5,184.96666C387.5,185.86667 387.6814,186.82014 387.33334,187.66667C387.05743,188.33775 386.51044,189.16649 386.5,190.06667C386.48959,190.9666 386.5,191.86667 386.5,192.76666C386.5,193.66667 386.5,194.46666 386.5,195.36667C386.5,196.26666 386.5,197.16667 386.5,198.06667C386.5,198.96666 386.5,199.868 386.5,200.83333C386.5,201.492 386.5,202.5 386.5,203.36217C386.5,204.26666 386.49777,205.16667 386.5,206.06667C386.50226,206.96667 386.82614,207.70332 387.216,208.46666C387.60052,209.21956 387.38184,210.24493 387.936,211.06667C388.39642,211.74939 389.19409,212.25993 389.41467,213.15067C389.62311,213.99236 389.34406,214.96704 389.7215,215.76683C390.06952,216.50427 390.76276,217.12061 391.14282,218.01401C391.51141,218.88045 392.11172,219.40379 392.46399,220.10266C392.89819,220.96408 392.36835,222.01672 392.72134,222.76666C393.0864,223.54218 393.49112,224.28471 393.92532,225.06667C394.38092,225.88715 394.80084,226.7175 395.14734,227.36667C395.60068,228.21603 395.35748,229.17975 395.51068,230.06667C395.65485,230.9014 396.33344,231.53218 396.79999,232.32384C397.23035,233.05411 397.60001,233.86667 398,234.66667C398.29999,235.26666 398.83835,236.2437 399.14282,237.00951C399.49332,237.89107 399.41788,238.87044 399.50015,239.76666C399.58383,240.67812 400.15363,241.22707 400.7955,241.96666C401.37411,242.63336 401.48792,243.46674 401.5,244.36667C401.51105,245.18768 401.80182,246.14343 402.07468,246.84134C402.43866,247.77229 402.5,248.66667 402.5,249.46666C402.5,250.36667 402.5,251.26666 402.5,252.16667C402.5,253.06667 402.30511,253.98834 402.50134,254.86534C402.68192,255.67238 403.48956,256.18732 403.5,257.06668C403.51068,257.96661 403.5,258.86667 403.5,259.76666C403.5,260.66666 403.5,261.46667 403.5,262.36667C403.5,263.26666 403.5,264.16666 403.5,265.06668C403.5,265.96667 403.5,266.86667 403.5,267.76666C403.5,268.66666 403.70944,269.50516 403.44284,270.36667C403.1748,271.23285 401.94833,271.36505 401.55716,272.02383C401.07474,272.83624 401.30914,273.79266 400.7955,274.36667C400.13748,275.10202 399.29166,275.68396 398.85718,276.36667C398.39124,277.09879 398.46356,278.03683 398,278.6875C397.52554,279.35349 397.328,280.32532 396.69867,280.74933C395.92935,281.26764 395.76038,282.1058 395.49551,282.96216C395.25943,283.72546 394.82904,284.35031 394.47916,285.14584C394.16602,285.85785 393.53766,286.43173 392.97916,287.16666C392.47458,287.83063 391.73895,288.31143 391.11066,289.06668C390.56445,289.72324 390.37347,290.69855 389.88934,291.26666C389.25415,292.01202 388.78336,292.71307 388.41599,293.46667C388.00937,294.30075 387.03595,294.5105 386.29999,294.952C385.6214,295.35907 384.97769,296.10986 384.2045,296.61401C383.50363,297.07101 383.12247,297.80994 382.66666,298.66666C382.31314,299.33112 381.57901,299.98004 381.06799,300.46667C380.37219,301.12927 379.64575,301.71063 379.50134,302.46799C379.33301,303.35077 379.5,304.26666 379.5,305.16666C379.5,306.06668 379.5,306.96667 379.5,307.86667C379.5,308.76666 379.5,309.66666 379.5,310.46667C379.5,311.36667 379.5,312.26666 379.5,313.16666L379.51068,314.06668L379.85718,314.96216" id="svg_1" stroke-width="3" stroke="#000" fill="none"/>
  <path t="29149,29305,29320,29320,29350,29358,29366,29581,29581,29672,29836,29836,30370,30458,30501,30636,30636,30652,30756,30870,30926,30934,31024,31187,31187,31187,31254,31464,31464,31518,31518,31591,31673,31689,31765,32269,32270,32293,32625,32661,32661,32757,32806,32859,32874,32902,32957,32958,32974,33021,33021,33053,33062,33077,33086,33101,33117,33173,33181,33182,33197,33237,33269,33285,33301,33325,33349,33366,33366,33382,33397,33405,33421,33453,33462,33477,33493,33493,33509,33518,33541,33557,33573,33573,33581,33597,33598,33637,33645,33653,33669,33685,33701,33701,33718,33757,33765,33789,33805,33805,33813,33845,33853,33869,33885,33893,33893,33909,33909,33918,33918,33925,33934,33934,33941,33973,33973,33989,33997,34013,34013,34030,34030,34038,34045,34053,34069,34069,34085,34109,34117,34142,34189,34253,34253,34261,34277,34373,34373,34459,34618,34618,34634,34654,34678,34718,34774,34966" d="M337.5,64.66666C337.5,66.46667 337.5,67.36667 337.5,68.26667C337.5,69.16666 337.5,70.06667 337.5,70.868C337.5,71.83334 337.88052,72.90491 337.21466,73.496C336.51804,74.1144 335.62836,73.53973 334.68533,73.252C333.7547,72.96805 333.5,73.76667 333.5,74.66666C333.5,75.46667 333.5,76.36667 333.5,77.26667C333.5,78.16666 333.5,79.06667 333.5,79.96667C333.5,80.86667 333.5,81.76667 333.5,82.66666C333.5,83.46667 333.44455,84.36761 333,85.16666C332.55438,85.96762 332.17386,86.70332 331.784,87.46667C331.39948,88.21956 331.65903,89.18275 331.48932,90.06667C331.3075,91.01376 330.42834,91.60673 330.02084,92.16666C329.41928,92.99323 329.66019,94.17372 328.93201,94.58266C328.28729,94.94473 327.57288,95.44165 326.7955,95.66217C325.93396,95.90656 325,95.66666 324.10001,95.66666C323.20001,95.66666 322.29999,95.66666 321.39999,95.66666C320.5,95.66666 319.70001,95.66666 318.79999,95.66666C317.89999,95.66666 317,95.66666 316.10001,95.66666C315.20001,95.66666 314.29999,95.66666 313.39999,95.66666C312.5,95.66666 311.70001,95.66666 310.79999,95.66666C309.89999,95.66666 309,95.66666 308.10001,95.66666C307.20001,95.66666 306.29999,95.66666 305.39999,95.66666C304.5,95.66666 303.70001,95.66666 302.79999,95.66666C301.89999,95.66666 301,95.66666 300.10001,95.66666C299.20001,95.66666 298.29999,95.66666 297.39999,95.66666C296.5,95.66666 295.70001,95.66666 294.79999,95.66666C293.89999,95.66666 293,95.66666 292.08932,95.66666C291.17868,95.66666 290.32535,95.66666 289.38535,95.66666C288.5,95.66666 287.70001,95.66666 286.79999,95.66666C285.89999,95.66666 284.987,95.80875 284.10001,95.656C283.26685,95.51252 282.5126,94.7517 281.70001,94.668C280.80472,94.57578 279.8808,94.83189 279,94.64584C278.15262,94.46684 277.40762,93.72883 276.70001,93.668C275.80328,93.59091 274.89999,93.66666 274,93.66666C273.10001,93.66666 272.173,93.75413 271.33334,93.5C270.46667,93.2377 269.70508,92.60811 269,92.1875C268.2157,91.71963 267.32538,91.672 266.38535,91.66666C265.5,91.66164 264.68839,91.77428 263.86401,91.63067C262.81494,91.44791 262.18323,90.90182 261.25717,90.72383C260.31543,90.54283 259.54144,90.42672 258.86401,90.092C257.89459,89.61301 257.15268,89.66891 256.13599,89.66666C255.2,89.66459 254.25154,89.8202 253.5,89.5C252.71881,89.16717 252.00018,88.67709 251.10001,88.66666C250.20006,88.65625 249.29623,88.74879 248.39999,88.6665C247.48856,88.58282 246.8474,87.86649 246,87.6875C245.1192,87.50145 244.2,87.66666 243.3,87.66666C242.39999,87.66666 241.5,87.66666 240.7,87.66666C239.8,87.66666 238.89999,87.66666 238,87.66666L237.10001,87.66666L236.2,87.66666L235.3,87.66666" id="svg_3" stroke-width="3" stroke="#000" fill="none"/>
  <path t="35876,36159,36175,36175,36206,36206,36214,36222,36230,36238,36246,36246,36262,36278,36310,36326,36334,36350,36366,36366,36406,36406,36422,36422,36430,36438,36438,36446,36454,36462,36462,36470,36478,36486,36502,36502,36510,36518,36518,36534,36534,36542,36558,36558,36558,36574,36574,36574,36582,36582,36622,36638,36646,36670,36670,36686,36710,36750,36798,36806,36806" d="M241.5,106.66666C243.32533,106.66666 244.33333,106.66666 245.12534,106.66666C246.15266,106.66666 246.84734,106.66666 247.864,106.66666C248.8,106.66666 249.7,106.66666 250.60001,106.66666C251.5,106.66666 252.3,106.66666 253.2,106.66666C254.10001,106.66666 255,106.66666 255.89999,106.66666C256.79999,106.66666 257.70132,106.61814 258.60016,106.66683C259.38879,106.70955 260.14188,107.06149 260.90451,107.314C261.88214,107.63771 262.7113,107.5575 263.61465,107.95067C264.57001,108.36646 265.20001,108.66441 266.10001,108.66666C267.02084,108.66896 268.02832,108.45036 268.79016,108.72383C269.62817,109.02464 270.21313,109.56636 271.02084,109.6875C272.00827,109.83559 272.6395,110.36166 273.61465,110.58134C274.48236,110.7768 275.25717,110.66666 276.15268,110.66666C277.01599,110.66666 278.02863,110.64939 278.83334,110.83334C279.77249,111.048 280.54315,111.35653 281.57849,111.54533C282.25946,111.66952 283.11533,111.69514 284.09549,112.01933C284.85818,112.2716 285.74155,112.63798 286.70001,112.66666C287.59961,112.69359 288.47217,112.87763 289.10001,113.24133C289.86987,113.6873 290.79999,113.66666 291.70001,113.66666L292.60001,113.66666L293.5,113.66666L294.29999,113.66666" id="svg_4" stroke-width="3" stroke="#000" fill="none"/>
  <path t="38916,39146,39146,39182,39214,39238,39254,39278,39278,39302,39500,39565,39573,39625,39692,39692,39692,39750,40013,40073,40089,40126,40174,40338,40381,40429,40461,40672,40688,40743,40996,41088,41356,41356,41390,41405,41429,41453,41508,41590,41590,41605,41706,41852,41956,42040,42077,42078,42187,42293,42293,42436,42789,42789" d="M236.5,85.66666C235.5,84.66666 234.54672,84.23801 233.78534,84.752C233.1176,85.20277 232.91022,86.2736 232.10001,86.64133C231.31921,86.99572 230.77734,87.55113 230.52533,88.48133C230.27057,89.42168 229.5609,89.8819 229.5,90.76667C229.4382,91.66454 229.65431,92.58292 230.5,92.66666C231.29611,92.74549 232.35936,92.19622 233.14284,92.72383C233.82703,93.18458 233.5,94.36667 233.5,95.26667C233.5,96.16666 233.68242,97.30875 232.97917,97.64584C232.19548,98.02148 231.55881,98.42609 230.7955,98.66217C229.9391,98.92705 229.12466,99.13255 228.40016,99.54533C227.60838,99.99644 227.08788,100.62621 227.30267,100.752C228.10994,101.22476 228.89946,101.64867 229.8,101.66666C230.69981,101.68465 231.60001,101.66666 232.5,101.66666C233.3,101.66666 234.2,101.66666 235.10001,101.66666C236,101.66666 236.9959,101.48356 237.69867,101.952C238.49397,102.48212 238.50119,103.46667 238.5,104.30267C238.49855,105.31484 238.41467,106.09734 237.7955,106.65767L237.06433,106.66666L237.85634,106.66666" id="svg_5" stroke-width="3" stroke="#000" fill="none"/>
  <path t="46497,46713,46713,46741,46749,46773,46813,46874,46910" d="M235.5,107.66666C236.5,106.66666 237.3,106.66666 238.2,106.66666C239.10001,106.66666 240,106.66666 240.89999,106.66666L241.8,106.66666L242.7,106.66666" id="svg_7" stroke-width="3" stroke="#000" fill="none"/>
  <path t="51809,52217,52217,52232,52254,52372,52387,52430,52486,52510,52534,52534,52717,52790,52813,52813,52829,52845,52869,52902,52925,52925,52949,53005,53037,53045,53045,53069,53085,53085,53109,53133,53181,53181,53241,53257,53286,53388,53388,53388,53430,53454,53538,53538,53581,53641,53677,53709,53709,53749,53823,53861,53861,53925" d="M193.5,85.66666C193.5,84.66666 193.5,83.86667 193.5,82.96667C193.5,82.06667 193.5,81.16666 193.5,80.26667C193.5,79.36667 193.5,78.46667 193.5,77.56667C193.5,76.66666 193.02094,75.67681 193.58533,74.952C194.10767,74.2812 195.32533,74.66666 196.01601,74.66666C197.08934,74.66666 197.89999,74.66599 198.8,74.66666C199.7,74.66734 200.54456,74.97771 201.3,75.38267C202.05597,75.7879 202.84573,76.19408 203.7,76.58266C204.46312,76.92979 205.13972,77.43989 205.8045,77.96217C206.60356,78.58994 207.59541,78.43578 208.33067,78.95067C209.02437,79.43645 209.71548,79.93452 210.3,80.468C211.0197,81.12488 211.70464,81.54173 212.60001,81.66683C213.50647,81.79349 214.14798,82.23209 214.7955,82.96667C215.37923,83.62888 215.78194,84.41692 216.5,84.83334C217.22507,85.2538 217.32004,86.27523 217.85716,86.96217C218.43889,87.70614 219.61273,87.71913 220.064,88.27734C220.68668,89.04758 220.85716,89.96217 221.5,90.5L222.3,90.66534L223.21466,90.752" id="svg_8" stroke-width="3" stroke="#000" fill="none"/>
  <path t="55295,55700,55749,55823,55823,55890,55957,55957,55997,55998,56014,56030,56030,56054,56101,56118,56126,56158,56197,56237,56261,56262,56326,56357,56358,56389,56429,56430,56522,56522,56623,56691,56691,56757,56823,56823,57109,57204,57270,57270,57342,57392,57437,57438,57522,57522,57557,57573,57735,57838,57885,57925,58037,58037,58052,58188,58245,58333,58333,58381,58519,58535,58535,58558,58566,58574,58614,58622,58622,59066,59203,59386,59430,59430,59648,59648" d="M193.5,84.66666C193.67067,85.38267 194.5721,85.50786 195.4785,85.88817C196.14636,86.1684 196.8,86.96667 197.5,87.66666C198,88.16666 198.7,88.86666 199.3,89.46667C199.89999,90.06667 200.52142,90.86862 201.2,91.3095C201.99232,91.8243 202.56256,92.29748 203.30133,92.75066C203.98871,93.17233 204.36032,94.18197 205.02083,94.66666C205.71036,95.17266 206.63759,95.44511 207.3,95.75066C208.05943,96.10098 208.55438,97.01783 209,97.64584C209.63789,98.54481 210.53189,98.7932 211.10001,99.27734C211.84535,99.91251 212.62096,100.28738 213.33333,100.83334C213.99475,101.34024 214.81859,101.46456 215.43866,102.10267C216.1077,102.79117 216.22649,103.55331 217,104.14584C217.73457,104.70854 218.21237,105.32327 218.60983,105.96133C219.12883,106.79453 220.14323,106.84785 220.66667,107.66666C221.05748,108.278 221.35703,109.36188 222.02083,109.64584C222.90277,110.02311 223.49336,110.29436 223.92534,111.06667C224.3829,111.88474 224.79144,112.53149 225.7,112.668C226.50784,112.78938 227.1526,113.46684 228,113.64584C228.8808,113.83188 229.80475,113.68885 230.82117,113.6665C231.63925,113.64851 232.41655,113.33788 233,112.66666C233.51337,112.07607 233.5,111.16666 233.5,110.26667C233.5,109.36667 233.5,108.46667 233.5,107.56667C233.5,106.66666 233.5374,105.86589 233.5,104.96667C233.46396,104.10043 232.63867,103.692 231.66667,103.5L231.02083,103.14584L230.30133,102.46667L229.78534,101.86667" id="svg_9" stroke-width="3" stroke="#000" fill="none"/>
  <path t="61219,61469,61501,61501,61533,61533,61700,61806,61806,61873,62844,62844,62901" d="M221.5,90.66666C222.52083,91.1875 223.36166,91.63206 223.97917,92.16666C224.63193,92.73178 225.2,93.36667 225.89999,94.06667C226.5,94.66666 227.10001,95.26667 227.7955,95.96667L228.33333,96.66666L228.584,97.46667L229,98.16666" id="svg_10" stroke-width="3" stroke="#000" fill="none"/>
  <path t="67780,68027,68027,68027,68106,68562,68578,68613,68768,68871,68871,68909,68933,69037,69123,69123,69205,69221,69306,69306,69322,69357,69389,69440,69478,69525,69525,69595,69656,69656,69701,69701,69725,69749,69797,69805,69829,69869,69877,69909,69909,69949,69957,69957,70005,70029,70053,70070,70125,70140,70174,70222,70222,70238,70254,70270,70294,70350,70350,70382,70406,70406,70438,70438,70470,70486,70534,70558,70574,70574,70590,70622,70630,70670,70694,70694,70718,70742,70750,70766,70798,70838,70838,70921,70921,70937,70965,70981,70981,71037,71090,71090,71140,71140,71174,71174,71190,71241,71241,71256,71256,71338,71338,71354,71382,71430,71430,71462,71462,71486,71502,71542,71550,71574,71574,71606,71646,71646,71686,71734,71734,71734,71774,71806,71830,71937,71937,72148,72148,72148" d="M293.5,112.66666C293.5,113.66666 293.5,114.46667 293.5,115.36667C293.5,116.26667 293.5,117.16666 293.5,118.06667C293.5,118.96667 293.29086,119.9463 293.7215,120.7665C294.05933,121.40994 295.12048,121.49406 296,121.6875C296.84756,121.87391 297.42462,122.75956 298.10001,123.23067C298.83359,123.74236 299.85663,123.53011 300.70001,123.95067C301.36163,124.28059 302.30215,124.29317 303.064,124.70267C303.79337,125.09472 303.97589,126.23045 304.79999,126.614C305.56671,126.97085 306.20114,127.37005 306.89999,128.06667C307.60114,128.76553 308.15622,129.21529 308.7955,129.97116C309.25806,130.51807 309.18103,131.61316 309.72134,132.42383C310.20474,133.14909 310.37598,133.87527 310.50015,134.76649C310.61188,135.56839 311.34726,136.07108 311.784,136.86667C312.13977,137.51477 312.44482,138.30432 312.50449,139.31483C312.55084,140.10013 313.35425,140.70937 313.49866,141.468C313.66672,142.35081 313.49805,143.28627 313.92532,144.06667C314.3757,144.88924 314.3186,145.82014 314.66666,146.66667C314.94257,147.33775 315.48956,148.16649 315.5,149.06667C315.51041,149.9666 315.32651,150.92395 315.66666,151.66667C316.03421,152.46927 316.95947,152.88844 317.33334,153.83333C317.58041,154.45773 317.5,155.5 317.5,156.36217C317.5,157.26666 317.44711,158.20142 317.85266,158.96666C318.30096,159.81256 318.47464,160.66707 318.5,161.46666C318.52859,162.36803 319.16281,163.09303 319.41467,163.86667C319.69455,164.7263 319.74213,165.62044 320.14734,166.36667C320.56064,167.12779 320.5,168.06667 320.5,168.96666C320.5,169.86667 320.46609,170.7673 320.5,171.66667C320.52859,172.42545 320.88748,173.30557 321.14734,174.01401C321.51404,175.01372 321.36835,176.01672 321.72134,176.76666C322.0864,177.54218 322.48926,178.31451 322.784,179.15199C323.0434,179.8891 323.42056,180.86221 323.47916,181.64583C323.55371,182.64261 323.39938,183.47577 323.53601,184.30267C323.68002,185.17436 324.26221,185.98398 324.44284,186.9095C324.60739,187.75267 324.74213,188.62044 325.14734,189.36667C325.56064,190.12779 325.388,191.11987 325.78534,191.868C326.18726,192.62468 326.85129,193.29414 327.14282,194.01401C327.54306,195.00223 327.5,195.96666 327.5,196.86667C327.5,197.76666 327.48279,198.66685 327.5,199.46666C327.51801,200.30325 327.80624,201.14172 328.07468,201.84134C328.48145,202.90154 328.65872,203.8365 328.92532,204.492C329.20764,205.18613 329.48926,206.256 329.5,207.16667C329.51062,208.06667 329.784,208.86667 330.216,209.46666L330.49551,210.25233L330.21466,209.46666L329.69867,208.86667" id="svg_11" stroke-width="3" stroke="#000" fill="none"/>
  <path t="89804,90042,90042,90078,90085,90110,90141,90158,90166,90198,90222,90222,90238,90270,90294,90318,90326,90334,90358,90358,90374,90374,90438,90438,90470,90502,90502,90542,90558,90574,90590,90606,90657,90672,90693,90694,90739,90754,90797,90837,90869,90893,90925,91004,91004,91004,91020,91054,91086,91102,91142,91174,91182,91214,91238,91238,91246,91262,91278,91294,91302,91310,91310,91411,91453,91454,91478,91539,91581,91581,91589,91629,91653,91661,91661,91693,91717,91757,91765,91797,91821,91821,91853,91877,91877,91901,91901,91925,91941,91957,91957,91973,91981,92005,92029,92061,92069,92093,92117,92117,92125,92149,92197,92205,92230,92261,92261,92277,92285,92317,92333,92341,92389,92413,92445,92445,92462,92477,92494,92501,92549,92581,92605,92613,92613,92637,92669,92677,92701,92717,92749,92773,92805,92805,92837,92905,92920,93022,93037,93054,93358" d="M329.5,207.66667C329.5,208.66667 329.5,209.46666 329.5,210.36667C329.5,211.26666 329.5,212.16667 329.5,213.06667C329.5,213.96666 329.5,214.86667 329.5,215.76666C329.5,216.66667 329.5,217.46666 329.5,218.36667C329.5,219.26666 329.5,220.16667 329.5,221.06667C329.5,221.96666 329.64587,222.91605 329.27866,223.76683C328.96835,224.48573 328.58566,225.32924 328.44733,226.07117C328.26025,227.0746 327.80542,227.79599 327.58533,228.78133C327.39142,229.64938 327.5,230.46666 327.5,231.36667C327.5,232.26666 327.5,233.16667 327.5,234.06667C327.5,234.96666 327.5,235.86667 327.5,236.76666C327.5,237.66667 327.5,238.46666 327.5,239.36667C327.5,240.26666 327.5,241.16667 327.5,242.06667C327.5,242.96666 327.41788,243.87044 327.50015,244.76666C327.58383,245.67812 328.24384,246.20464 328.46399,247.06667C328.70905,248.02631 329.22559,248.54059 329.48932,249.27733C329.78909,250.1147 329.5,251.06667 329.5,251.96666C329.5,252.86667 329.5,253.76666 329.5,254.66667C329.5,255.46666 329.55716,256.36667 330,257.16666C330.44284,257.96667 330.5,258.86667 330.5,259.76666C330.5,260.66666 330.39957,261.47711 330.53601,262.30267C330.68005,263.17435 331.26221,263.98398 331.44284,264.90952C331.60739,265.75266 331.73395,266.62494 332.14734,267.36667C332.57297,268.13034 333.04321,268.86996 333.37851,269.76666C333.69659,270.61728 333.5,271.46667 333.5,272.36667C333.5,273.26666 333.5,274.16666 333.5,275.06668C333.5,275.96667 333.5,276.86801 333.5,277.552C333.5,278.492 333.40714,279.50974 333.53601,280.29199C333.6813,281.17386 334.2623,281.98395 334.44284,282.90952C334.60733,283.75269 334.5,284.66666 334.5,285.46667C334.5,286.36667 334.5,287.26666 334.5,288.16666C334.5,289.06668 334.49994,289.96667 334.5,290.86667C334.50009,291.76666 334.72058,292.63333 335.07468,293.26666C335.55618,294.1279 335.5,295.06668 335.5,295.96667C335.5,296.86667 335.5,297.76666 335.5,298.66666C335.5,299.46667 335.5,300.36667 335.5,301.26666C335.5,302.16666 335.5,303.06668 335.5,303.96667C335.5,304.86667 335.5,305.76666 335.5,306.66666C335.5,307.46667 335.5,308.36667 335.5,309.26666C335.5,310.16666 335.5,311.06668 335.5,311.96667C335.5,312.86667 335.5,313.76666 335.5,314.66666C335.5,315.46667 335.5,316.36667 335.5,317.26666C335.5,318.16666 335.5,319.06668 335.5,319.96667C335.5,320.86667 335.5,321.76666 335.5,322.66666C335.5,323.46667 335.5,324.36667 335.5,325.26666C335.5,326.16666 335.5,327.06668 335.5,327.96667L335.5,328.86667L335.49985,329.76651" id="svg_15" stroke-width="3" stroke="#000" fill="none"/>
  <path t="94571,94715,94715,94731,94765,94781,94789,94805,94822,94829,94889,94889,94925,94933,94973,94989,95005,95021,95029,95037,95152,95173,95173,95205,95288,95303,95619,95619,95662,95678,95686,95694,95710,95734,95758,95766,95774,95782,95782,95790,95806,95830,95854,95921" d="M362.5,241.66667C361.5,242.66667 361.5,243.46666 361.5,244.36667C361.5,245.26666 361.5,246.16667 361.5,247.06667C361.5,247.96666 361.5,248.86667 361.5,249.76666C361.5,250.66667 361.51874,251.46686 361.5,252.36667C361.48199,253.23123 360.64575,253.71063 360.50134,254.468C360.33301,255.35077 360.50534,256.26669 360.5,257.16666C360.49466,258.06674 359.99948,258.88547 359.66666,259.66666C359.34647,260.41821 359.5,261.36667 359.5,262.26666C359.5,263.1875 359.28888,264.19315 359.55716,264.95685C359.82672,265.72415 361.01492,265.86871 361.7955,265.30951C362.47687,264.82138 362.67102,263.85385 363.5,263.66666C364.38385,263.46707 364.79144,262.80188 365.70001,262.66534C366.50784,262.54398 366.93164,261.83246 367.52533,261.10266C368.05331,260.45361 369,260.16666 369.69867,259.75067L370.44733,259.30951" id="svg_16" stroke-width="3" stroke="#000" fill="none"/>
  <path t="96977,97100,97116,97142,97142,97158,97182,97182,97222,97222,97254,97254,97270,97278,97294,97310,97373,97453,97485,97486,97775,97775,97814,97838,97983" d="M362.5,240.66667C363.11066,242.26666 363.92618,242.88341 364.33334,243.66667C364.72003,244.41051 365.03384,245.1543 365.70001,245.868C366.21014,246.41454 366.68555,247.15926 367.10001,247.84134C367.67871,248.79373 368.17743,249.48077 368.52533,250.26666C368.88739,251.08453 369.26477,251.9659 369.784,252.58267C370.34076,253.24405 370.95297,253.77386 371.33334,254.66667C371.65353,255.4182 371.5,256.36667 371.5,257.26666L371.5,258.16666L371.48932,259.056L370.97916,259.66666" id="svg_17" stroke-width="3" stroke="#000" fill="none"/>
  <path t="100947,101036,101184,101199,101253,101269,101301,101326,101342,101366,101382,101382,101390,101406,101430,101438,101446,101486,101486,101518,101518,101542,101589,101589,101589,101637,101645,101669,101685,101709,101733,101741,101742,101765,101789,101789,101797,101813,101829,101861,101861,101877,101885,101917,101941,101941,101949,101965,101973,101990,102005,102014,102014,102037,102053,102101,102172,102172,102206,102214,102246,102285,102294,102294,102301,102310,102334,102350,102350,102366,102382,102382,102422,102446,102462,102462,102478,102494,102494" d="M328.5,197.66667C329.5,197.66667 330.30133,197.66667 331.20001,197.66667C332.10001,197.66667 333,197.66667 333.89999,197.66667C334.79999,197.66667 335.70001,197.66667 336.60001,197.66667C337.5,197.66667 338.33441,197.86263 339.20001,197.6095C340.07764,197.35286 340.79865,196.69534 341.70001,196.66667C342.59955,196.63805 343.46466,196.43878 344.13599,196.092C344.94705,195.67303 345.8544,195.69235 346.55066,195.056C347.12943,194.52704 347.89566,194.12985 348.73834,193.71933C349.52756,193.33485 350.03506,192.81654 350.89999,192.65601C351.73041,192.50188 351.97665,191.4073 352.66666,190.83333C353.32001,190.28986 354.35019,190.6532 355,190.14583C355.76804,189.54616 356.32797,189.01875 357.20001,188.614C358.03137,188.22812 358.84705,187.83025 359.60001,187.44533C360.36319,187.05518 361.12048,186.83926 362,186.64583C362.84756,186.45941 363.42459,185.57378 364.10001,185.10266C364.83359,184.59097 365.82169,184.86157 366.69867,184.66533C367.50571,184.48474 368.04208,183.70125 368.98267,183.66533C369.6391,183.64026 370.56845,183.2596 371.14734,182.614C371.67752,182.02272 372.5,181.66667 373.29999,181.66667C374.20001,181.66667 374.94595,181.81198 375.58401,182.38266C376.23578,182.96558 376.73029,183.62698 377.14734,184.36667C377.56738,185.11166 378.25888,185.49173 378.88934,186.11333C379.60294,186.81688 379.18802,187.84288 379.85718,188.55684C380.49374,189.23602 381.36118,189.41338 381.88934,190.06667C382.49149,190.81149 382.7215,191.76649 383.2045,192.30949L384.10001,192.728L384.70001,193.23466L385.20001,193.96133" id="svg_18" stroke-width="3" stroke="#000" fill="none"/>
  <path t="114606,114766,114782,114805,114806,114855,114871,114886,114938,114990,114990,115030,115104,115141,115157,115181,115301,115301,115301,115451,115467,115538,115581,115605,115672,115738,115781,115781,115870,115902,115902,115934,116003,116046,116094,116218,116253,116254,116269,116317,116341,116349,116373,116405,116486,116534,116534,116574,116671,116671,116733,116733,116788,117213,117254,117254,117277" d="M339.5,73.66666C339.5,72.66666 339.65994,71.7952 340.5,71.66666C341.29526,71.54498 342.17288,71.21136 342.88934,70.692C343.57635,70.19401 343.7807,69.18452 344.60001,68.788C345.25662,68.47021 345.97217,68.00014 346.47467,67.27734C346.94235,66.60465 347.93619,66.40099 348.37866,65.56667C348.82141,64.73185 349.19855,64.24549 349.97916,63.66667C350.616,63.19445 351.2045,62.66892 352.10001,62.66667C353,62.66441 353.89999,62.66667 354.79999,62.66667C355.70001,62.66667 356.60016,62.66667 357.38535,62.66667C358.32535,62.66667 359.33334,62.66667 360.08932,62.66667C361,62.66667 361.89999,62.66667 362.79999,62.66667C363.70001,62.66667 364.60001,62.66667 365.5,62.66667C366.29999,62.66667 367.20001,62.66667 368.10001,62.66667C369,62.66667 369.89999,62.66667 370.79999,62.66667C371.70001,62.66667 372.60001,62.66667 373.5,62.66667C374.29999,62.66667 374.97263,62.97494 375.72168,63.54533C376.27539,63.96696 377.34845,64.06201 378.01599,64.468C378.89767,65.00422 379.60001,65.54533 380.5,65.83334L381.10001,66.24133L382,66.66666" id="svg_20" stroke-width="3" stroke="#000" fill="none"/>
  <path t="122906,123204,123291,123306,123334,123404,123595,123653,123784,123784,123949,123949,124037,124037,124085,124085,124155,124252" d="M344.5,74.66666C345.5,74.66666 346.04529,74.21692 346.78534,73.752C347.56219,73.26395 348.17657,73.09773 348.936,72.70267C349.70715,72.30151 350.66666,72.66666 351.52084,72.66666C352.5,72.66666 353.33301,72.4963 354.33334,72.83334C355.03134,73.0685 355.69867,73.86667 356.21466,74.46667L356.55267,75.3095L357.30133,75.75066" id="svg_22" stroke-width="3" stroke="#000" fill="none"/>
  <path t="125195,125316,125435,125435,125752" d="M346.5,77.66666C348.20001,77.66666 349.20001,77.66666 350.10001,77.66666L351,77.66666" id="svg_23" stroke-width="3" stroke="#000" fill="none"/>
  <path t="127142,127360,127405,127455,127455,127502,127534,127574,127630,127662,127768,127768,127839,127903" d="M364.5,76.66666C364.5,75.66666 364.70853,74.92329 365.5,74.5C366.24878,74.09953 366.99982,73.67709 367.89999,73.66666C368.79993,73.65625 369.70001,73.66666 370.60001,73.66666C371.5,73.66666 372.29999,73.66666 373.20001,73.66666L374.10001,73.66666" id="svg_24" stroke-width="3" stroke="#000" fill="none"/>
  <path t="132456,132777,132867,132867,133127,133182,133206" d="M366.5,78.66666C366.66666,76.83334 367.5,76.66666 368.29999,76.66666L369.20001,76.66666L370.10001,76.66666L371,76.66666" id="svg_26" stroke-width="3" stroke="#000" fill="none"/>
  <path t="134753,135584,135701,135771,135868,135918,135987,136038,136445,136461,136533,136802,136802,136871,136933,136933" d="M355.5,76.66666C355.5,78.46667 355.5,79.36667 355.5,80.26667C355.5,81.16666 355.5,82.06667 355.5,82.96667C355.5,83.86667 355.11053,85.0141 355.7215,85.54517C356.39084,86.12697 357.5,85.5 358.10001,85.092L358.91068,84.70267L359.82132,84.66683L360.67465,84.70267" id="svg_27" stroke-width="3" stroke="#000" fill="none"/>
  <path t="154356,154795,154903,154903,154966,155051,155067,155201,155201,155458,155458,155599,155637,155750,155750,155885,155984,156006,156006,156119" d="M349.5,90.66666C350.5,90.66666 351.45441,90.23871 352.21466,90.752C352.88239,91.20281 353.08939,92.27441 353.89999,92.64133C354.68185,92.99525 355.22269,93.55824 356,94.14584C356.73761,94.70341 357.7038,94.74879 358.60001,94.6665C359.51144,94.58282 360.09448,94.08014 361,93.66666C361.79529,93.30352 362.60001,92.78817 363.29999,92.668L364.20001,92.6095" id="svg_30" stroke-width="3" stroke="#000" fill="none"/>
  <path t="162591,163156,163156,163206,163352,163467,163510,163510,163558,163712,163773,163836,163836,164109,164263,164278,164278,164401,164469,164632,164632,164767,164853,164868,164868,164927,164987,165053,165104,165104,165158,165363,165406,165430,165430,165503,165555,165555,165621,165765,165837,165837,165894,165971,166021,166151,166199,166231,166365,166437,166437,166478,166502,166554,166598,166614" d="M337.5,74.66666C336.5,75.66666 336.30405,76.50111 336.55716,77.36667C336.81381,78.2443 337.33643,79.01373 337.72134,79.76667C338.11151,80.52986 338.32739,81.28714 338.52084,82.16666C338.70728,83.01424 339.59113,83.59251 340.064,84.26667C340.58585,85.01064 340.72824,85.98521 341,86.66666C341.38858,87.6411 341.8428,88.2795 342.37866,88.88817C343.0018,89.59598 343.26428,90.31281 343.88934,91.06667C344.43448,91.72414 344.62653,92.69855 345.11066,93.26667C345.74585,94.01202 346.03201,94.86535 346.66666,95.5C347.3013,96.13466 348.0791,96.2701 348.5,97.16666C348.87057,97.95602 349.59387,98.60578 350.5,98.66666C351.29819,98.7203 352.15146,98.65482 352.98401,98.95067C353.69006,99.20157 354.74139,99.63806 355.60001,99.66666C356.49951,99.69662 357.29999,99.66666 358.20001,99.66666C359.10001,99.66666 360,99.66666 360.89999,99.66666C361.79999,99.66666 362.70001,99.66666 363.60001,99.66666C364.5,99.66666 365.29999,99.66666 366.20001,99.66666C367.10001,99.66666 367.97916,99.64584 368.55267,99.01933L369.30133,98.668" id="svg_31" stroke-width="3" stroke="#000" fill="none"/>
  <path t="170753,171051,171104,171119,171185,171185,171269,171310,171311,171342,171342,171404,171404,171454,171772,171835,171879,171911,172083,172098,172098,172127,172127,172151,172235,172568,172568,172614,172646,172646,172923" d="M317.5,89.66666C318.5,89.66666 319.01086,89.99963 319.57199,90.692C320.13223,91.38326 321.06155,91.40991 321.86401,92.06667C322.54065,92.62043 323.13406,93.27906 323.60001,93.988C324.03268,94.64632 324.56488,95.45567 325.064,96.256C325.53986,97.01904 326.07364,97.9544 326.88934,97.656C327.6217,97.38808 327.5,96.26667 327.5,95.36667C327.5,94.46667 327.5,93.56667 327.5,92.66666C327.5,91.86667 327.50073,90.96667 327.5,90.03067C327.49933,89.18267 327.44284,88.31934 327.14734,87.42384L326.66666,86.66666L326.41599,85.86667L325.97916,85.16666" id="svg_32" stroke-width="20" stroke="#fff" fill="none"/>
  <path t="175348,175480,175480,175527,175712,175712,175767" d="M321.5,76.66666C322.5,76.83334 323.14282,77.314 323.51068,78.092L324.07468,78.692L324.49551,79.37117L324.5,80.26667" id="svg_33" stroke-width="20" stroke="#fff" fill="none"/>
  <path t="180068,180462,180503,180519,180519,180559,180599,180654,180669,180711,180767,180807,180831,180831,180902,180935,180951,180967,181053,181069,181137,181188,181188,181239,181337,181434,181470,181603,181603,181685,181735,181865,181865,181937,181953" d="M314.5,96.66666C314.78534,95.752 315.60001,95.66666 316.5,95.66666C317.29999,95.66666 318.20001,95.66666 319.10001,95.66666C320,95.66666 320.89999,95.66666 321.79999,95.66666C322.70001,95.66666 323.60001,95.66666 324.5,95.66666C325.29999,95.66666 326.20001,95.66666 327.10001,95.66666C328,95.66666 328.93741,95.60132 329.52533,95.092C330.17395,94.53009 330.6543,93.7504 331.5,93.66666C332.29608,93.58784 333.06149,93.45934 333.72134,92.788C334.32822,92.17058 334.31113,91.39737 334.7215,90.56667C335.06265,89.87608 336.06805,89.36222 336.37851,88.56667C336.70865,87.72063 336.5,86.86667 336.5,85.96667L336.53601,85.06667" id="svg_34" stroke-width="3" stroke="#000" fill="none"/>
  <path t="189164,189266,189281,189303,189303,189311,189327,189351,189359,189367,189375,189375,189383,189399,189407,189415,189423,189431,189439,189455,189455,189462,189471,189487,189511,189519,189535,189559,189566,189567,189591,189607,189623,189631,189639,189655,189662,189662,189671,189671,189687,189694,189705,189719,189727,189735,189735,189743,189743,189751,189767,189767,189775,189791,189853" d="M334.5,193.66667C334.78534,192.752 335.60129,192.71448 336.5,192.66667C337.30341,192.62395 338.03717,191.91972 338.89999,191.70267C339.7735,191.48293 340.70001,191.66667 341.60001,191.66667C342.5,191.66667 343.29999,191.66667 344.20001,191.66667C345.10001,191.66667 346,191.66667 346.89999,191.66667C347.79999,191.66667 348.70001,191.66667 349.60001,191.66667C350.5,191.66667 351.29999,191.66667 352.20001,191.66667C353.10001,191.66667 354,191.66667 354.89999,191.66667C355.79999,191.66667 356.70001,191.66667 357.60001,191.66667C358.5,191.66667 359.29999,191.66667 360.20001,191.66667C361.10001,191.66667 362,191.66667 362.89999,191.66667C363.79999,191.66667 364.70132,191.66667 365.66666,191.66667C366.5,191.66667 367.33334,191.66667 368.1955,191.66667C369.10001,191.66667 370,191.66667 370.89999,191.66667C371.79999,191.66667 372.70132,191.66667 373.66666,191.66667C374.5,191.66667 375.33334,191.66667 376.1955,191.66667C377.13599,191.66667 377.98401,191.66667 378.84732,191.66667L379.86401,191.66667L380.70001,191.66667L381.60001,191.66667" id="svg_35" stroke-width="3" stroke="#000" fill="none"/>
  <path t="195973,196035,196050,196050,196050,196050,196050,196050,196050,196071,196071,196071,196071,196071,196071,196071,196071,196079,196079,196079,196079,196079,196079,196080,196080,196080,196087,196087,196087,196087,196087,196087,196087,196087,196087,196095,196095,196095,196095,196095,196095,196095,196095,196095,196103,196103,196103,196103,196103,196103,196103,196104,196104,196111,196111,196111,196111,196111,196111,196111,196111,196111,196119,196119,196119,196119,196119,196119,196119,196119,196120,196127,196127,196127,196127,196127,196127,196127,196127,196127,196135,196135,196135,196135,196135,196135,196135,196135,196135,196143,196143,196143,196143,196143,196143,196143,196143,196143,196151,196151,196151,196151,196151,196151,196151,196151,196151,196159,196159,196159,196159,196159,196159,196159,196159,196159,196167,196167,196167,196167,196167,196167,196167,196167,196167,196175,196175,196175,196175,196175,196175,196175,196175,196175,196191,196191,196191,196191,196191,196191,196191,196191,196199,196207,196207,196215,196215,196223,196231,196231,196239,196239,196239,196239,196247,196247,196247,196247,196255,196255,196255,196255,196263,196263,196263,196263,196263,196263,196271,196271,196271,196271,196271,196271,196272,196279,196279,196279,196279,196279,196279,196279,196279,196287,196287,196287,196287,196287,196287,196287,196287,196295,196295,196295,196295,196295,196295,196295,196295,196303,196303,196303,196304,196304,196304,196311,196311,196311,196311,196311,196311,196311,196319,196319,196320,196320,196320,196320,196327,196327,196327,196327,196327,196335,196335,196335,196335,196335,196343,196343,196343,196351,196351,196359,196359,196367,196375,196375,196383,196383,196391,196391,196391,196399,196399,196399,196407,196407,196407,196407,196415,196415,196415,196423,196423,196423,196423,196431,196431,196431,196431,196439,196439,196439,196439,196439,196447,196447,196447,196447,196455,196455,196455,196456,196456,196463,196463,196463,196471,196471,196480,196480,196481,196487,196495,196511,196519,196527,196527,196535,196535,196543,196543,196551,196551,196551,196551,196559,196559,196559,196567,196567,196567,196567,196575,196575,196575,196575,196583,196583,196583,196583,196591,196591,196591,196599,196599,196607,196607,196607,196615,196615,196615,196623,196623,196631,196631,196639,196639,196647,196647,196647,196655,196655,196655,196663,196663,196663,196671,196671,196679,196679,196695,196695,196695,196703,196703,196703,196711,196711,196719,196719,196719,196727,196727,196727,196737,196737,196737,196743,196743,196743,196751,196752,196752,196759,196775,196775,196791,196791,196807" d="M5.5,285.66666C7.25717,285.66666 8.16617,285.66666 9.01883,285.66666C9.83333,285.66666 10.83247,285.66568 11.625,285.6875C12.06543,285.69962 13.04489,285.74051 14.16667,285.83334C15.44248,285.93893 16.12885,286.02222 16.844,286.10266C17.58352,286.18585 18.34276,286.27658 19.118,286.37115C19.90543,286.46722 21.49998,286.66678 22.30033,286.76666C23.10265,286.86679 23.90894,286.96716 24.72133,287.06668C25.5416,287.16714 26.3719,287.26746 27.21433,287.36667C28.07057,287.4675 29.83327,287.66721 30.74317,287.76685C31.67194,287.86856 32.61895,287.97006 33.58267,288.07733C34.56262,288.1864 35.55766,288.30002 36.56617,288.42383C37.58833,288.54932 39.66722,288.82962 40.7215,288.98816C41.7859,289.14822 42.85757,289.32141 43.936,289.50266C45.02124,289.68506 46.11088,289.87613 47.2045,290.07117C48.30155,290.26682 50.5,290.66666 51.6,290.86667C52.7,291.06668 53.8,291.26666 54.9,291.46667C56,291.66666 57.09999,291.86667 58.2,292.06668C59.3,292.26666 61.50009,292.66617 62.6,292.86682C63.70009,293.0675 64.80037,293.26923 65.9,293.47733C67.00037,293.68555 68.10068,293.89932 69.2,294.12384C70.30069,294.34863 72.50078,294.83002 73.6,295.08783C74.70078,295.34601 75.79977,295.61578 76.9,295.88135C77.99977,296.14679 79.09882,296.41058 80.2,296.65683C81.29884,296.90256 83.49861,297.34155 84.59983,297.52383C85.69735,297.70551 86.79501,297.8605 87.88934,298.00534C88.97868,298.14951 90.06412,298.2804 91.14283,298.41483C92.21478,298.5484 94.33413,298.82809 95.37817,298.98816C96.41281,299.14679 97.43458,299.31964 98.44267,299.50266C99.43826,299.68338 100.41797,299.87418 101.38116,300.07117C102.32864,300.26492 104.16705,300.66495 105.05666,300.86649C105.92705,301.06366 106.77674,301.26184 107.60667,301.45599C108.41674,301.64551 109.2064,301.83179 109.97667,302.00949C110.72641,302.18243 112.16613,302.50256 112.857,302.64517C113.52882,302.78384 114.18533,302.91135 114.828,303.03067C115.45801,303.14764 116.07851,303.25696 116.691,303.36215C117.29717,303.46628 118.50004,303.66641 119.0995,303.76666C119.69604,303.86642 120.28667,303.96567 120.868,304.06668C121.43768,304.16568 121.99237,304.26471 122.5285,304.36667C123.04436,304.46478 124.00066,304.66382 124.43517,304.76651C124.84197,304.86267 125.21989,304.96066 125.57066,305.056C125.89621,305.14447 126.19593,305.23087 126.47217,305.30951C126.72527,305.38156 127.16607,305.50259 127.35717,305.54517C127.53016,305.58368 127.68983,305.61203 127.83867,305.63068C127.97888,305.64822 128.11461,305.6575 128.24817,305.66217C128.38261,305.66687 128.66667,305.66666 128.82133,305.66666C128.98399,305.66666 129.15266,305.66666 129.32533,305.66666C129.5,305.66666 129.67467,305.66666 129.84734,305.66666C130.74733,305.66666 131.66667,305.66666 132.5,305.66666C133.4785,305.66666 134.29866,305.66666 135.25717,305.66666C136.16617,305.66666 136.78267,305.66666 137.83333,305.66666C138.80983,305.66666 139.52083,305.66666 140.25183,305.66666C141.33333,305.66666 142.34734,305.66666 143,305.66666C143.98399,305.66666 145.02167,305.66666 145.76167,305.66666C146.54167,305.66666 147.36166,305.66666 148.66667,305.66666C149.588,305.66666 150.06616,305.66666 151.0625,305.66666C151.58267,305.66666 152.672,305.66666 153.83333,305.66666C154.44299,305.66666 155.71434,305.66666 156.37199,305.66666C157.04167,305.66666 157.72133,305.66666 158.409,305.66666C160.5,305.66666 161.2,305.66666 161.89999,305.66666C162.60001,305.66666 163.3,305.66666 164,305.66666C164.7,305.66666 166.10001,305.66666 167.5,305.66666C168.2,305.66666 168.89999,305.66666 169.60001,305.66666C170.3,305.66666 171,305.66666 172.39999,305.66666C173.10001,305.66666 174.5,305.66666 175.19966,305.66666C175.89734,305.66666 176.591,305.66666 177.27867,305.66666C178.62801,305.66666 179.28566,305.66666 179.92934,305.66666C181.16667,305.66666 182.332,305.66666 182.89467,305.66666C184,305.66666 184.55066,305.66666 185.668,305.66666C186.83333,305.66666 187.44275,305.67404 188.70534,305.65765C189.35072,305.64926 190.00032,305.6311 190.64934,305.59467C191.29503,305.55841 193.16957,305.34796 193.75684,305.22385C194.88745,304.98486 195.41922,304.81137 195.9375,304.64584C196.93762,304.32645 198.33231,303.83017 198.7785,303.68799C199.6409,303.41318 200.48317,303.17923 201.2955,302.914C202.50626,302.51868 203.29851,302.18674 204.07866,301.85199C204.45891,301.68884 205.51317,301.18585 206.457,300.90952C207.21716,300.68695 208.11047,300.62875 209.10001,300.314C209.91241,300.05557 210.69539,299.73828 211.664,299.67734C212.61285,299.61761 213.5,299.66666 214.25717,299.66666C215.16167,299.66666 215.96167,299.66666 216.92149,299.66666C217.73599,299.66666 218.60451,299.66666 219.8,299.66666C220.39999,299.66666 221.3,299.66666 222.5,299.66666C223.10001,299.66666 224,299.66666 224.89999,299.66666C225.8,299.66666 226.7,299.66666 227.60001,299.66666C228.5,299.66666 229.4045,299.66666 230.02083,299.66666C230.98534,299.66666 232.0215,299.66666 232.75717,299.66666C233.52083,299.66666 234.3045,299.66666 235.5,299.66666C236.3,299.66666 237.10001,299.66666 237.89999,299.66666C238.7,299.66666 239.90016,299.66666 240.7045,299.66666C241.52083,299.66666 242.35716,299.66666 243.66667,299.66666C244.58133,299.66666 245.504,299.66666 245.95833,299.66666C246.83299,299.66666 248,299.66666 248.9285,299.66666C249.668,299.66666 250.70264,299.71405 251.5,299.64584C252.5069,299.55972 253.27173,299.19281 254.01466,298.95065C255.06895,298.60699 256,298.66666 256.89999,298.66666C257.79999,298.66666 258.6156,298.75812 259.38535,298.58133C260.36935,298.35532 261.08707,297.87381 262.10901,297.72385C262.7666,297.62735 263.83337,297.672 264.46799,297.66534C265.50012,297.65454 266.20905,297.69641 267.45715,297.44516C268.25165,297.28522 268.94312,296.94943 269.92166,296.5665C270.74255,296.24527 271.35016,296.0394 271.98666,295.78134C273.02719,295.3595 273.75266,295.01401 274.5,294.66666C275.24734,294.31934 276.32999,293.8251 277.01334,293.552C277.95386,293.17612 278.82217,292.8894 279.81467,292.46667C280.48544,292.18097 281.09424,291.85767 282.10449,291.36667C282.73328,291.06107 283.66449,290.66089 284.45267,290.36667C285.27243,290.06067 286.34286,289.68814 287.03833,289.36667C287.85022,288.99139 288.59933,288.4447 289.25266,287.96667C289.96793,287.44333 290.689,287.0239 291.70001,286.78799C292.48798,286.60413 293.51035,286.52936 294.31067,286.23065C294.96649,285.98587 295.92026,285.56378 296.72534,285.26666C297.54623,284.96371 298.33057,284.65991 299.26401,284.27734C299.89365,284.01929 300.89624,283.72006 301.664,283.67734C302.75476,283.61667 303.55704,283.5929 304.55334,283.38266C305.18826,283.24869 305.85254,283.05106 307.16666,282.83334C307.98184,282.6983 308.67865,282.672 309.70001,282.66666C310.5,282.66248 311.5,282.66666 312.31067,282.66666C313.18533,282.66666 314.18533,282.66666 315.02084,282.66666C315.60449,282.66666 316.79984,282.66666 317.68933,282.66666C318.54285,282.66666 319.57867,282.66666 320.27466,282.66666C321.18399,282.66666 322.18268,282.66666 322.97916,282.66666C323.73065,282.66666 324.83865,282.66666 325.82132,282.66666C326.5,282.66666 327.47849,282.6665 328.29868,282.58133L329.10001,282.09201" id="svg_36" stroke-width="3" stroke="#000" fill="none"/>
  <polyline timestamps="197324,197416,197416,197416,197416,197431,197431,197431,197431,197431,197455,197455,197455,197455,197464,197464,197464,197471,197471,197471,197471,197478,197478,197479,197486,197486,197487,197494,197494,197494,197504,197504,197504,197510,197510,197519,197526,197535,197535,197543,197543,197551,197558,197558,197566,197566,197566,197566,197575,197575,197575,197575,197575,197583,197583,197583,197583,197583,197583,197590,197590,197590,197590,197591,197591,197591,197598,197598,197599,197599,197599,197599,197599,197607,197607,197607,197607,197607,197607,197607,197615,197615,197615,197615,197615,197615,197615,197623,197623,197623,197623,197623,197623,197623,197631,197631,197631,197631,197631,197631,197797,197797,197797,197797,197797,197797,197812,197812,197812,197812,197812,197831,197831,197839,197839,197847,197847,197855,197855,197863,197863,197863,197863,197863,197871,197871,197871,197871,197871,197871,197879,197879,197879,197879,197879,197879,197879,197879,197887,197887,197887,197887,197887,197887,197887,197887,197887,197895,197895,197895,197895,197895,197895,197895,197895,197895,197903,197903,197903,197903,197903,197903,197903,197903,197903,197911,197911,197911,197911,197911,197911,197911,197911,197911,197919,197919,197919,197919,197919,197919,197919,197919,197919" startTime="1502019632109" id="svg_37" points="419.5,272.6666669845581 421.172,272.6666669845581 422.26800000000003,272.6666669845581 423,272.6666669845581 423.73199999999997,272.6666669845581 424.85999999999996,272.6773336512248 425.55333333333334,272.75200031789143 426.55466666666666,272.9506669845581 427.19733333333335,273.0920003178914 428.2563333333333,273.31400031789144 429.3333333333333,273.5000003178914 430.0146666666667,273.5826669845581 430.97916666666663,273.6666669845581 431.59549999999996,273.71933365122476 432.8,273.8881669845581 433.4,274.0238336512248 434.3,274.27733365122475 435.5,274.6666669845581 436.09999999999997,274.8666669845581 437,275.1666669845581 437.59999999999997,275.3666669845581 438.7998333333333,275.7665003178914 439.39549999999997,275.96216698455805 440.26399999999995,276.23066698455807 441.3333333333333,276.5000003178914 442.0473333333333,276.6140003178914 442.95266666666663,276.71933365122476 443.9213333333333,276.8880003178914 444.7253333333333,277.0920003178914 445.5473333333333,277.31400031789144 446.57849999999996,277.5451669845581 447.26399999999995,277.6306669845581 448.09866666666665,277.6653336512247 449.09549999999996,277.6711669845581 449.84283333333326,277.72383365122477 450.86400000000003,278.0920003178914 451.59999999999997,278.5451669845581 452.5,278.6666669845581 453.25716666666665,278.6666669845581 454.1526666666667,278.6666669845581 455.01599999999996,278.6666669845581 456,278.6666669845581 456.9866666666667,278.6666669845581 457.74666666666667,278.6666669845581 458.66666666666663,278.6666669845581 459.46616666666665,278.6621669845581 460.38266666666664,278.6306669845581 461.07199999999995,278.5813336512248 462.243,278.4451669845581 463.1143333333333,278.30950031789143 463.57199999999995,278.23066698455807 464.52133333333336,278.0560003178914 465.50266666666664,277.8653336512248 466.5,277.6666669845581 467.50133333333326,277.46800031789144 468.0045,277.3711669845581 469.0208333333333,277.1875003178914 469.53599999999994,277.1026669845581 470.5853333333333,276.9520003178914 471.66666666666663,276.83333365122473 472.78666666666663,276.75066698455805 473.3616666666667,276.71933365122476 473.9466666666666,276.6920003178914 475.14666666666665,276.6413336512247 475.76166666666666,276.6140003178914 476.38666666666666,276.5826669845581 478.3213333333333,276.4451669845581 478.984,276.38133365122474 479.6526666666667,276.30950031789143 480.32533333333333,276.23066698455807 481,276.14583365122473 481.6746666666666,276.0560003178914 483.01599999999996,275.8653336512248 484.3333333333333,275.6666669845581 484.9785,275.5665003178914 485.61466666666666,275.46533365122474 486.86400000000003,275.25600031789145 487.47916666666663,275.14583365122473 488.08933333333334,275.0306669845581 489.29866666666663,274.78133365122477 490.5,274.5000003178914 491.09999999999997,274.34533365122473 491.69999999999993,274.18266698455807 492.9,273.8413336512248 493.5,273.6666669845581 494.09999999999997,273.49200031789144 494.69999999999993,273.3193336512247 496.5,272.83333365122473 497.0998333333333,272.68816698455805 497.69866666666667,272.5520003178914 498.8893333333333,272.3026669845581 499.47916666666663,272.1875003178914 500.06399999999996,272.07733365122476 501.21466666666663,271.8680003178914 502.3333333333333,271.6666669845581 503.4133333333333,271.46666698455806 503.93833333333333,271.3666669845581 504.9583333333333,271.1666669845581 505.45333333333326,271.0666669845581 506.4133333333333,270.8666669845581 507.7778333333333,270.56733365122477 508.6248333333333,270.38466698455807 509.3958333333333,270.2500003178914 510.0668333333333,270.19533365122476 511.1546666666666,270.6053336512248 511.35416666666663,271.20833365122473 511,272.33333365122473 510.4375,272.84783365122473 509.74,273.20933365122477 508.8333333333333,273.5000003178914 508.04166666666663,273.6875003178914 507.30133333333333,274.2360003178914 506.936,274.85200031789145 506.5481666666667,275.9140003178914 506.3306666666666,276.5506669845581 505.79016666666666,277.3193336512247 505.14816666666667,278.01400031789143 504.52116666666666,278.6456669845581 503.97916666666663,279.20833365122473 503.16666666666663,280.1666669845581 502.72933333333333,280.72133365122477 502.22799999999995,281.3640003178914 501.6786666666667,282.06266698455806 501.39099999999996,282.4230003178914 500.5,283.5000003178914 499.89466666666664,284.18400031789145 499.582,284.51850031789144 498.91666666666663,285.1875003178914 498.1713333333333,285.87650031789144 497.75866666666667,286.2360003178914 496.8333333333333,287.0000003178914 496.3136666666667,287.40983365122474 495.1623333333333,288.28550031789143 494.5346666666667,288.7493336512248 493.875,289.2291669845581 493.18533333333335,289.7240003178914 492.4676666666667,290.2328336512247 491.724,290.75466698455807 490.16666666666663,291.83333365122473 489.3568333333333,292.38833365122474 488.528,292.95333365122474 487.6811666666666,293.5283336512248 486.8173333333333,294.11333365122476 485.9375,294.70833365122473 485.0426666666666,295.31333365122475 484.1338333333333,295.92833365122476 483.212,296.55333365122476 481.3333333333333,297.83333365122473 480.378,298.4881669845581 479.41066666666666,299.1520003178914 478.4293333333333,299.82383365122473 477.432,300.5026669845581 476.41666666666663,301.1875003178914 475.3813333333333,301.8773336512247 474.32399999999996,302.5711669845581 473.24266666666665,303.2680003178914 471,304.6666669845581 469.8353333333333,305.36700031789144 468.6426666666667,306.0693336512247 467.424,306.7756669845581 466.1813333333333,307.4880003178914 464.91666666666663,308.20833365122473 463.63199999999995,308.9386669845581 462.32933333333335,309.6810003178914 461.0106666666666,310.4373336512248 458.3333333333333,312.0000003178914 456.97866666666664,312.80950031789143 455.616,313.63600031789144 454.2473333333333,314.4765003178914 452.87466666666666,315.32800031789145 451.5,316.1875003178914 450.1253333333333,317.0520003178914 448.75266666666664,317.9185003178914 447.384,318.7840003178914 444.66666666666663,320.5000003178914 443.3208333333333,321.34550031789144 441.98,322.18400031789145 440.63916666666665,323.01850031789144 439.29333333333335,323.85200031789145 437.9375,324.6875003178914 436.56666666666666,325.5280003178914 435.1758333333333,326.37650031789144 433.76,327.2360003178914 " opacity="0.5" stroke-linecap="round" stroke-width="3" stroke="#000" fill="none"/>
 </g>
</svg>