<svg width="500" height="333.3333333333333" xmlns="http://www.w3.org/2000/svg" xmlns:svg="http://www.w3.org/2000/svg" xmlns:xlink="http://www.w3.org/1999/xlink">
 <!-- Created with SVG-edit - http://svg-edit.googlecode.com/ -->
 <g display="inline" class="layer">
  <title>Layer 1</title>
  <path t="0,74,86,114,141,141,154,167,194,221,221,234,316,330,330,357,357,424,452,465,465,505,506,561,587,589,616,669,681,682,697,710,819,830,844,844,860,939,966,993,993,1020,1060,1076,1101,1115,1115,1128,1196,1209,1236,1250,1371,1451,1493,1493,1510,1589,1616,1642,1655,1697,1724,1750,1764,1819,1832,1858,1872,1927,1967,1994,1995,2035,2089,2144,2198,2198,2753,2766,2766,2779,2780,2793,2811,2811,2821,2821,2900,2914,3009,3010,3023,3131,3131,3144,3212,3239,3265,3334,3334,3347,3468,3508,3522,3522,3604,3712,4349,4362,4362,4376,4377,4392,4416,4443,4456,4470,4483,4484,4498,4498,4498,4511,4511,4526,4565,4578,4607,4647,4648,4687,4700,4727,5188,5214,5215,5228,5255,5255,5310,5310,5337,5363,5363,5431,5444,5471,5472,5512,5580,5592,5605,5606,5619,5632,5702,5716,5797,5837,5850,5863,5864,5891,5959,5986,5999,6013,6026,6040,6175,6175,6176,6202,6202,6203,6216,6311,6311,6311,6323,6324,6324,6351,6364,6377,6446,6460,6473,6473,6499,6513,6621,6635,6676,6676,6770,6770,6783,6797,6797" d="M227,126.66666C227,128.46666 227,129.36667 227,130.1875C227,131.15067 227,131.84134 227,132.9095C227,133.86667 227,134.76666 227,135.66667C227,136.46666 227.24539,137.10451 227.83333,137.83333C228.39687,138.53191 228.69986,139.26266 228.91467,140.15067C229.11855,140.99347 228.91946,141.91299 229.00133,142.868C229.08498,143.84381 229.25998,144.62881 230,145.33333C230.5414,145.84875 230.95844,146.42947 231.0045,147.31934C231.04933,148.18527 231.51286,148.98512 231.916,149.86667C232.31123,150.73096 232.44814,151.48486 233.02533,152.23067C233.50946,152.85622 234.35674,153.27893 234.916,153.952C235.472,154.62115 235.38547,155.52972 236.05267,156.30949C236.55325,156.89453 237.48029,157.20847 238.2,157.86534C238.7845,158.39882 239.60001,158.65601 240.5,158.66667C241.39999,158.67734 242.21881,159.16718 243,159.5C243.75154,159.82019 244.7,159.66667 245.60001,159.66667C246.5,159.66667 247.39999,159.66667 248.3,159.66667C249.2,159.66667 250.10001,159.66667 251,159.66667C251.8,159.66667 252.7,159.66667 253.60001,159.66667C254.5,159.66667 255.39999,159.66667 256.29999,159.66667C257.20001,159.66667 258.1044,159.75536 259,159.66667C259.8457,159.58293 260.35193,158.83954 260.94733,158.314C261.58545,157.75073 262.13138,157.21088 262.716,156.58267C263.2941,155.96149 263.94489,155.3772 264.43201,154.86667C265.16339,154.10016 264.92432,153.00026 265.436,152.26666C265.9071,151.59128 266.57904,151.07381 267,150.16667C267.37051,149.36823 267.84369,148.80701 268.2955,148.01401C268.67999,147.3392 268.84134,146.19054 269.44284,145.56667C270.06415,144.92226 271.08743,144.66963 271.55334,144.06667C272.16766,143.27162 272.50052,142.44788 272.83334,141.66667C273.15353,140.91513 273,139.9095 273,139.01401C273,138.15067 273,137.30267 273,136.36667C273,135.46666 273,134.56667 273,133.66667C273,132.86667 272.81158,131.93898 273.03601,131.06667C273.25888,130.20045 274.20834,129.64935 274.64282,128.96666C275.10876,128.23454 275,127.26667 275,126.36217C275,125.34534 275,124.66666 275,123.68816C275,122.868 274.94284,121.96667 274.5,121.16666C274.05716,120.36667 274.1882,119.34446 273.64282,118.71484C273.05978,118.04177 272.42514,117.6304 272.16666,116.5C271.99075,115.73072 272.02441,114.92774 272,114C271.97696,113.12357 271.20746,112.66624 271.00134,111.86533C270.77689,110.99318 270.46948,110.17585 269.90018,109.56667C269.34766,108.97543 269.34802,107.98616 268.97916,107.1875C268.62302,106.41642 267.93921,105.86044 267,105.66666C266.21207,105.5041 265.53113,105.11207 264.79868,104.468C264.26434,103.99816 263.34866,103.69652 262.48401,103.668C261.50052,103.63557 260.51599,103.66812 259.82535,103.66666C258.76166,103.66441 258.19281,103.09296 257.43066,102.752C256.71259,102.43076 255.636,102.66666 254.8,102.66666C253.89999,102.66666 253,102.66666 252.2,102.66666C251.3,102.66666 250.39999,102.66666 249.5,102.66666C248.60001,102.66666 247.7,102.66666 246.8,102.66666C245.89999,102.66666 245,102.66666 244.2,102.66666C243.3,102.66666 242.39999,102.66666 241.5,102.66666C240.60001,102.66666 239.7,102.6665 238.8,102.66666C237.89999,102.66683 236.95239,102.96832 236.60001,103.54933C236.1337,104.31818 235.81674,105.35467 235.5,106.125C235.21492,106.81832 234.44405,107.50429 234.12117,108.331C233.79785,109.15886 233.93224,110.03233 233.43201,110.98C233.06963,111.66653 232.52477,112.15676 232.02083,113.14584C231.61142,113.94936 231.41446,114.816 230.83333,115.5C230.26672,116.1669 229.7103,116.72356 229.35266,117.36667C228.87823,118.21978 228.54329,119.04822 228.084,119.86533C227.68839,120.56918 227.05162,121.23434 227.01067,121.888C226.94948,122.86465 227,123.83067 227,124.78133L227,125.66666L227,126.46667" id="svg_1" stroke-width="3" stroke="#000" fill="none"/>
  <path t="8111,8299,8311,8312,8338,8379,8380,8393,8420,8447,8447,8460,8475,8513,8541,8569,8582,8582,8596,8611,8625,8637,8650,8663,8676,8693,8704,8704,8718,8731,8744,8771,8785,8785,8798,8799,8812,8826,8839,8866,8879,8893,8894,8910,8910,8921,8934,8947,8961,8977,8988,9015,9015,9042,9057,9069,9083,9097,9123,9150,9164,9165,9177,9192,9218,9231,9258,9285,9286,9312,9326,9353,9367,9379,9406,9420,9446,9461,9488,9501,9515,9570,9583,9610,9639,9705,9718,9757,9757,9784,9826,9854,9868,9895,9989,10003,10015,10016,10030,10030,10030,10043,10151,10178,10191,10301,10327,10327,10340,10340,10463,10503,10503,10503,10517,10517,10665,10705,10720,10720,10746,10976,11003,11017,11059,11071" d="M216,104.66666C216,102.04134 215.8898,101.16813 216.05716,100.31934C216.23903,99.39695 217.03448,98.92446 217.8,98.58266C218.54353,98.25069 219.44583,97.79124 220.2,97.38267C220.85007,97.03049 221.83041,97.09191 222.64284,96.6095C223.30161,96.21832 223.43466,94.99313 224.3045,94.72383C225.12991,94.46829 226.08992,94.86139 226.89017,94.314C227.5732,93.84679 228.25122,93.2338 229,92.83334C229.79144,92.41006 230.28236,91.70938 231.2,91.66666C232.09903,91.62482 233,91.66666 233.8,91.66666C234.7,91.66666 235.60001,91.66917 236.5,91.66666C237.30452,91.66441 238.32007,91.44224 239,91.16666C239.8318,90.82954 240.69548,90.66891 241.60001,90.66666C242.5,90.66442 243.39999,90.66666 244.3,90.66666C245.20134,90.66666 246.16667,90.66666 247,90.66666C247.83333,90.66666 248.6955,90.66666 249.60001,90.66666C250.5,90.66666 251.39999,90.66666 252.3,90.66666C253.2,90.66666 254.10001,90.66666 255,90.66666C255.8,90.66666 256.70001,90.66666 257.60001,90.66666C258.5,90.66666 259.39999,90.66666 260.29999,90.66666C261.20001,90.66666 262.10001,90.66666 263,90.66666C263.79999,90.66666 264.7265,90.48292 265.60001,90.70267C266.46283,90.91972 267.19699,91.62395 268.10001,91.66666C268.99899,91.70918 269.78812,91.77274 270.5,92.16666C271.38599,92.65691 272.29999,92.66658 273.20001,92.66666C274.09982,92.66675 274.60901,93.17385 275.35718,93.6095C276.08612,94.03396 276.93643,94.02879 277.5,94.66666C278.0155,95.25015 278.45163,95.99667 279.16666,96.5C279.86157,96.98919 280.75183,96.97964 281.284,97.58266C281.85043,98.2245 281.86343,99.02331 282.284,99.86667C282.61392,100.52831 283.04184,101.37282 283.5,102.16666C283.90646,102.87092 284.62769,103.41428 284.97916,104.1875C285.34305,104.98809 285,105.97117 285,106.83334C285,107.6875 285,108.66666 285,109.456C285,110.18134 285,111.256 285,112.16666C285,113.06667 285,113.96667 285,114.868C285,115.83334 285.03336,116.49255 285,117.5C284.97141,118.36359 284.56253,119.08617 283.83334,119.83334C283.3533,120.32523 282.66211,121.02356 282.02151,121.645C281.4194,122.22912 280.58746,122.51605 279.70001,122.67117C278.77167,122.83343 278.04401,123.12101 277.28534,123.75066C276.56015,124.35252 275.90018,124.66683 275.12134,124.888L274.64734,125.614L274.03601,126.10267" id="svg_2" stroke-width="3" stroke="#000" fill="none"/>
  <path t="12171,12265,12278,12288,12288,12302,12316,12342,12355,12368,12395,12423,12450,12464,12464,12504,12531,12545,12585,12599,12681,12681,12694,12762,12815,12856,12938" d="M215,101.66666C215,102.66666 215,103.584 215,104.3765C215,105.184 215,106.14584 215,107.06667C215,107.96667 214.8502,108.87925 215.00017,109.7665C215.14417,110.61852 215.84932,111.03465 216.0045,111.96667C216.14064,112.78428 216.83067,113.43629 216.98933,114.26667C217.17047,115.21465 217.48917,115.85182 218.16667,116.5C218.799,117.10495 219.11781,117.88062 219.7045,118.3095C220.46396,118.86471 221.084,119.38267 221.87866,119.888L222.28534,120.58134L223.19867,120.66933" id="svg_3" stroke-width="3" stroke="#000" fill="none"/>
  <path t="17293,17505,17505,17519,17654,17709,17776,17789,17802,17898,17911,17938,17952,17979,17992,18021,18035,18058,18085,18112,18126,18154,18154,18168,18195,18208,18235,18262,18262,18276,18277,18290,18303,18317,18330,18344,18371,18384,18398,18412,18438,18479,18493,18519,18560,18574,18574,18641,18668,18695,18709,18804,18859,18899,18912,18966" d="M232,88.66666C232,87.66666 231.53444,86.68713 232.08533,85.952C232.54724,85.3356 233.67119,85.38368 234.22133,84.788C234.80959,84.15105 235.48149,83.94102 236.2955,83.66217C237.11032,83.38305 237.40363,82.47368 238.084,81.95067C238.69528,81.48077 239.83586,81.78477 240.47917,81.14584C241.12138,80.50799 241.43544,79.68467 242.3,79.66666C243.1998,79.64793 244.10001,79.66666 245,79.66666C245.8,79.66666 246.7,79.66666 247.60001,79.66666C248.5,79.66666 249.41086,79.64764 250.32133,79.66683C251.17523,79.68483 252.06882,80.03369 252.79866,80.38267C253.56252,80.7479 254.55972,80.35677 255.38933,80.67733C256.18225,80.98372 256.80179,81.30341 257.564,81.70267C258.32233,82.09988 258.93176,82.27372 259.71466,82.752C260.51791,83.24271 261.1044,83.57798 262,83.66666C262.8457,83.7504 263.33154,84.48009 264.10001,84.888C264.74997,85.23302 265.68579,85.30743 266.47916,85.6875C267.18246,86.02443 267.16281,87.10472 267.64734,87.71933C268.15933,88.36878 268.05716,89.36667 268.5,90.16666L268.94284,90.96667" id="svg_4" stroke-width="3" stroke="#000" fill="none"/>
  <path t="21254,21334,21348,21348,21361,21389,21402,21402,21415,21415,21429,21429,21443,21443,21460,21460,21470,21470,21470,21484,21497,21497,21511,21526,21526,21551,21564,21578,21593,21606,21606,21632,21646,21646,21659,21659,21676,21676,21687,21700,21701,21713,21740,21741,21753,21780,21780,21809,21875,21889,21889,21903,21903,21915,21928,21928,21955,21956,22010,22010,22037,22038,22106,22132,22132,22389,22389,22607,22619" d="M287,121.66666C288.82535,121.66666 289.86624,121.48115 290.6955,121.72383C291.57687,121.98176 292.22119,122.51583 293.16666,122.83334C293.83191,123.05674 294.50812,123.81049 295.10535,124.3095C295.74969,124.8479 296.66095,124.74052 297.59549,125.3765C298.20822,125.79348 298.97867,126.64533 299.5,127.16666C300.16666,127.83334 300.79074,128.52234 301.34732,128.95683C302.19504,129.61861 303.18329,129.46495 303.79999,129.83734C304.57629,130.30612 305.11844,131.17633 305.71466,131.74933C306.39499,132.40317 306.75043,133.11464 307.436,133.64133C308.08963,134.14348 309.03204,134.41609 309.70001,134.71933C310.55377,135.1069 311.06418,136.011 311.5,136.64583C312.05612,137.45589 312.78903,137.63495 313.64816,138.02383C314.46786,138.39487 314.90588,139.25491 315.56799,139.86667C316.21585,140.46527 316.76453,141.0735 317.44266,141.76666C317.92239,142.25705 318.71521,142.92566 319.16666,143.66667C319.60272,144.38245 320.61917,144.57071 321.02533,145.31334C321.44586,146.08223 321.68869,146.80766 321.91467,147.78267C322.08911,148.53529 321.84488,149.53209 322.16666,150.5C322.40479,151.21637 323.142,151.96609 323.47916,152.66667C323.93756,153.61911 323.95801,154.42049 324.00449,155.31934C324.04926,156.18529 324.53912,156.99239 324.83334,157.83333C325.11398,158.6355 325.2215,159.645 325.61066,160.22L326.47916,160.66667L326.98932,161.27733" id="svg_5" stroke-width="3" stroke="#000" fill="none"/>
  <path t="23300,23364,23431,23445,23472,23486,23486,23567,23580,23593,23594,23609,23648,23716,23729,23771,23810,23810,23826,23839,23879,23918,23931,23973,23973,23987,24000,24026,24053,24053,24122,24135,24148,24148,24487,24488,24500,24514,24527,24527,24528,24543,24543,24555,24568,24581,24609,24650,24663,24663,24676,24703,24758,24758,24785,24798,24839,24893,24948,25002,25029,25042,25082,25124,25137,25137,25163,25217,25272,25299,25299,25312,25381,25407,25421,25472,25499,25500,25513,25594,25621,25621,25635,25662,25675,25743,25878,25892,25892,25947,26001,26193,26206" d="M327,162.66667C325.29999,162.66667 324.38013,162.66425 323.60001,163.092C322.7771,163.54321 321.87595,163.85974 321.29999,164.37117C320.56772,165.02138 319.84946,165.41939 319,165.83333C318.34775,166.15118 317.50018,166.65625 316.60001,166.66667C315.70007,166.67709 314.62042,166.41989 314.05267,167.02383C313.43152,167.68457 313.23041,168.51779 312.29999,168.66217C311.41061,168.80017 310.487,168.52458 309.60001,168.67734C308.76685,168.82082 308.0126,169.58163 307.20001,169.66533C306.30472,169.75755 305.39999,169.66667 304.58932,169.66667C303.67868,169.66667 302.81174,169.50874 301.88666,169.668C301.04636,169.81267 300.53043,170.73338 300,171.1875C299.29492,171.79114 299.42163,172.9539 298.64282,173.55234C297.96735,174.07137 296.83334,173.66667 296.164,173.66667C295.39868,173.66667 294.40451,173.66667 293.48532,173.66667C292.52084,173.66667 291.60001,173.66667 290.70001,173.66667C289.79999,173.66667 288.89999,173.66667 288,173.66667C287.20001,173.66667 286.2381,173.63055 285.5,174.1875C284.83441,174.68974 284.34711,175.47417 283.39999,175.65601C282.51608,175.82571 281.60001,175.66667 280.70001,175.66667C279.79999,175.66667 278.8956,175.75536 278,175.66667C277.1543,175.58293 276.71069,174.78384 275.89999,174.6665C274.99417,174.53539 274.1767,174.20836 273.52084,173.64583C272.89139,173.10593 272.62091,172.19865 272.16666,171.5C271.76398,170.88066 272.30054,169.72211 271.77866,168.9095C271.30753,168.17593 270.4736,167.85695 269.80133,167.38133C269.02106,166.82932 269.36499,165.75568 268.94284,165.02383C268.47495,164.21269 267.78543,163.69659 267.42532,163.06667C266.93127,162.20248 266.70996,161.27364 265.90018,160.78799C265.17053,160.3504 265,159.56667 265,158.66667C265,157.86667 265,156.96666 265,156.06667L265,155.16667L265,154.256" id="svg_6" stroke-width="3" stroke="#000" fill="none"/>
  <path t="27345,27409,27410,27423,27463,27491,27504,27517,27531,27573,27573,27573,27599,27630,27639,27666,27679,27680,27774,27774,27774,27788,27815,27815,27911,27924,27924,28005,28032,28060,28077,28099,28492,28505,28505,28517,28517,28517,28531,28531,28544,28544,28544,28558,28558,28558,28572,28572,28572,28585,28585,28585,28598,28598,28598,28598,28613,28653,28653,28680,28721,28748,28748,28761,28965,29089,29113,29168,29168,29222,29236,29237,29249,29249,29263,29304,29304,29331,29345,29357,29371,29439,29440,29452,29479,29480,29492,29493,29493,29589,29589,29602,29603,29615,29630,29751,29777,29777,29790,29886,29913,29913,29926,29993,30020,30035,30035,30048,30048,30061,30278,30642,30668,30682,30724,30724,30779,30779,30791,30819,30900,30900,30941,30967,30995,31022,31035,31103,31104,31144,31158,31212,31238,31252,31402" d="M237,157.66667C237,158.66667 237,159.46666 237,160.36667C237,161.26666 237,162.16667 237,163.06667C237,163.96666 237.10295,164.89178 236.83333,165.83333C236.63742,166.51744 236.17966,167.16978 235.61067,168.03067C235.06688,168.85344 234.9648,169.69278 234.38933,170.27733C233.70094,170.97659 233.26974,171.46568 232.79866,172.43333C232.45688,173.13541 232.23997,173.98569 231.35184,174.49966C230.42421,175.0365 229.98851,175.51805 229.47917,176.16667C228.8774,176.93301 228.23167,177.51781 227.3,177.66217C226.4106,177.79999 225.5,177.66667 224.60001,177.66667C223.7,177.66667 222.8,177.66667 221.89967,177.66667C221.18567,177.66667 220.23067,177.66667 219.47917,177.66667C218.68266,177.66667 217.45267,177.66676 216.77467,177.66667C215.57867,177.6665 215.03931,177.7254 214.22533,177.59467C213.1487,177.42174 212.46931,176.93481 211.77467,176.51733C210.85402,175.96402 210.04106,175.80205 209.22533,175.616C208.15701,175.37234 207.45474,174.95387 206.77467,174.48134C205.83617,173.82922 205.32222,173.54115 204.52083,173.1875C203.77374,172.85782 202.90123,172.20773 202,171.83333C201.24561,171.51993 200.61285,171.35216 199.83333,170.83333C199.12587,170.36246 198.06958,171.05971 197.28534,170.58133C196.48172,170.09113 196.04271,169.38431 196,168.46666C195.95815,167.56747 196,166.78133 196,165.84134C196,164.83333 195.98943,163.99406 196.70534,163.36667C197.241,162.89723 197.82251,162.20557 198.28534,161.46666C198.70543,160.79602 199.52422,160.22639 200.2955,159.71933C200.98743,159.26443 200.86345,158.31003 201.284,157.46666C201.61392,156.80502 201.9321,156.02797 202.009,155.005C202.0695,154.20036 202.42027,153.23351 202.70984,152.72301C203.15173,151.94397 203.87257,151.21777 204.58934,150.62666C205.34024,150.0074 205.53682,149.271 205.94733,148.42833C206.3318,147.63911 206.98958,147.12517 207,146.18266C207.00763,145.49205 207,144.42383 207,143.56667C207,142.66667 206.98201,141.86649 207,140.96666C207.01801,140.06613 207.57352,139.31572 207.87849,138.34534C208.0842,137.69081 208,136.68817 208,135.868C208,134.96666 207.99702,133.85103 208.80133,133.668C209.6776,133.4686 210.52135,133.6971 211.48399,133.66533C212.34866,133.6368 213.26436,133.33517 213.79866,132.86534C214.53113,132.22127 215.34706,131.83025 216.10001,131.44533C216.8632,131.05518 217.71144,130.63474 218.39999,130.24133C219.21425,129.77611 220.29779,129.9857 220.916,129.38133C221.53815,128.7731 221.63979,127.89456 222.39999,127.27734C223.14272,126.67432 223.91467,126.38133 224.00133,125.468L224.35266,124.71933L224.98534,124.24133" id="svg_7" stroke-width="3" stroke="#000" fill="none"/>
  <path t="33487,33579,33592,33608,33620,33633,33660,33660,33674,33674,33714,33755,33768,33809,33823,33849,33864,33877,33945,33958,33958,33972,33972,33984,34011,34038,34052,34052,34119,34324,34364,34526,34527,34567,34890,34905,34918,34918,34932,34933,34945,34945,34959,34959,34959,34974,34974,34986,34986,34999,34999,35026,35026,35026,35039,35040,35040,35053,35054,35067,35067,35080,35080,35094,35094,35109,35109,35122,35122,35148,35161,35175,35190,35202,35203,35229,35242,35243,35257,35283,35283,35297,35297,35311,35325,35325,35325,35339,35339,35351,35365,35365,35392,35419,35432,35432,35446,35459,35459,35474,35474,35487,35487,35555,35555,35581,35594,35595,35608,35624,35636,35662,35717,35730,35743,35838,35839,35933,35933,36015,36056,36056,36096,36163,36218,36218,36299,36339,36339,36393,36434,36461,36461,36490,36490,36502,36502,36515,36542,36569,36570,36583,36597,36609,36610,36626,36651,36677,36691,36704,36718,36731,36745,36745,36759,36775,36786,36813,36827,36827,36842,36854,36854,36868,36868,36881,36906,36919,36946,36947,37165,37205,37232,37233,37247,37259,37355,37356,37368,37381,37395,37410,37410,37425,37475,37503,37503,37571,37597,37624,37625,37652,37652,37868,37882,37950,37964,37965,37976,37977" d="M283,92.66666C285.58932,92.66666 286.5,92.66666 287.39999,92.66666C288.29999,92.66666 289.20132,92.66666 290.16666,92.66666C290.82535,92.66666 291.83334,92.66666 292.6955,92.66666C293.60001,92.66666 294.38171,92.79321 295.05267,93.314C295.63644,93.76712 296.47391,93.86996 297.16666,94.5C297.76654,95.04558 298.53442,95.4482 298.97467,96.11333C299.47629,96.87118 299.47208,97.69666 300,98.5C300.51801,99.28823 300.98132,100.06614 301,100.96667C301.01868,101.86648 301.24213,102.62043 301.64734,103.36667C302.06064,104.12778 301.90601,105.11377 302.35266,105.96667C302.74661,106.7189 302.94507,107.46835 303,108.36667C303.05798,109.31464 303.86148,109.62658 304.83334,109.66666C305.62549,109.69933 306.47699,109.96792 307.17465,110.24133C308.10852,110.60732 308.9838,110.80822 309.76801,111.23466C310.51471,111.64072 311.19565,112.1841 312.19016,112.55683C312.86319,112.80908 313.83893,113.09652 314.40451,113.37117C315.40533,113.85718 316.22742,114.2635 317,114.83334C317.62369,115.29336 318.19968,115.87768 319,116.66666C319.59976,117.25793 320.14032,117.8962 321,118.33334C321.7384,118.7088 322.68817,118.98997 323,119.6875C323.35843,120.48925 323.87985,121.00323 324.83334,121.66666C325.38583,122.05108 326.14468,122.7065 326.82535,123.056C327.80518,123.55912 328.6087,123.65494 329.39999,124.092C330.22052,124.5452 330.75082,125.11413 331.436,125.64133C332.08966,126.14428 332.80032,126.46767 333.5,127.16666C334.10028,127.76638 334.70001,128.36667 335.39999,129.06667C336,129.66667 336.60001,130.26666 337.29999,130.96666C337.79999,131.46666 338.52084,132.1875 339.16666,132.83333C339.82535,133.49202 340.34732,134.01401 341.11465,134.78133C341.58932,135.256 342.42618,135.88341 342.83334,136.66667C343.22003,137.41051 343.6124,138.24889 343.97467,139.06667C344.32227,139.85132 344.75797,140.51419 345.52084,141.16667C346.28107,141.81688 347.13083,142.05702 347.66666,142.83333C348.07147,143.41982 348.08771,144.55006 348.52084,145.14583C349.10324,145.94688 349.79996,146.46671 350.39999,147.06667C351.09998,147.76654 351.84793,148.07555 352.564,148.692C353.1738,149.21698 353.01526,150.26041 353.7045,150.71933C354.45792,151.22098 354.83435,152.05814 355.436,152.65199C356.00989,153.21844 356.5658,153.87463 357.09982,154.64517C357.53683,155.27571 357.98199,156.0768 358,156.98801C358.01688,157.84117 358,158.78133 358,159.76666C358,160.66667 358,161.46666 358,162.30267C358,163.15067 358.15552,164.02763 357.98932,165.03067C357.84567,165.89755 356.99478,166.48271 356.24283,166.71933C355.34058,167.00323 354.59619,167.29318 353.88666,167.86667C353.22675,168.40007 352.84866,169.18623 352.16666,169.83333C351.56213,170.40692 350.80035,170.50528 349.88666,170.668C349.04718,170.81749 348.65997,171.6579 348,172.16667C347.23495,172.75642 346.68503,173.41624 346.08401,173.95067C345.43796,174.52515 344.85574,175.04234 344,175.5C343.20856,175.92328 342.63809,176.40451 341.85068,176.692C341.01944,176.99548 340.46512,177.51765 339.60001,177.67734C338.76862,177.8308 337.81912,178.25401 337.28534,178.836C336.68692,179.48843 336.47086,180.26112 335.70532,180.772C335.00217,181.24124 334.96759,182.15892 334.19867,182.74933C333.5585,183.24088 333.16907,184.01927 332.716,184.86667C332.3674,185.51866 331.83441,186.26775 331.16666,186.83333C330.45157,187.439 329.80032,187.50504 328.88666,187.668C328.04849,187.81749 327.8996,188.90915 327.19867,189.38133C326.48792,189.86014 325.50037,190.03738 325.08401,190.86667C324.65756,191.71602 324.54773,192.48169 323.97467,193.23067C323.44519,193.92267 322.8045,194.45628 322.20001,195.09866C321.59113,195.74571 320.75983,196.15948 319.83334,196.5C319.20303,196.73166 318.16666,196.66667 317.3045,196.66667C316.39999,196.66667 315.39059,196.49922 314.7045,197.02383C313.95416,197.59756 314.00449,198.481 314,199.43466L314,200.16667" id="svg_8" stroke-width="3" stroke="#000" fill="none"/>
  <path t="40536,40655,40655,40777,40804,40804,40818,40818,40818,40831,40845,40845,40939,40939,40953,40953,40979,41074,41101,41101,41101,41156,41156,41169,41170,41250,41251,41292,41292,41711,41740,41740,41740,41752,41752,41765,41765,41778,41792,41792,41832,41873,41873,41873,41887,41887,41914,41955,41956,41995,42022,42023,42037,42063,42063,42076,42116,42143,42144,42157,42172,42184,42197,42198,42225,42225,42252,42252,42266,42279,42279,42279,42293,42359,42359,42372,42372,42399,42400,42413,42454,42481,42508,42508,42508,42535,42535,42549,42549,42562,42562,42603,42603,42629,42630,42658,42699,42727,42727,42753,42753,42766,42766,42793,42820,42847,42860,42874,42875,42888,42888,42901,42915,42928,42929,42943,42958,42970,42983,42997,42997,43010,43010,43037,43064,43078,43092,43118,43132,43145,43145,43157,43173,43173,43185,43211,43238,43238,43307,43646,43659,43660,43674,43687,43687,43687,43699,43700,43700,43713,43713,43727,43727,43727,43741,43741,43754,43754,43768,43794,43836,43863,43957,43957,43971,44011,44093,44200,44295" d="M211,100.66666C208.21066,100.66666 207.43172,100.38848 206.52083,100.70834C205.67619,101.00493 205.39536,101.91032 204.83333,102.66666C204.37656,103.28134 203.5374,103.91418 203.17067,104.78133C202.81947,105.61176 202.85831,106.5011 202.13867,107.07733C201.50661,107.58345 200.69447,108.28475 200.36166,109.014C199.97012,109.87193 199.46054,110.51682 199.12134,111.331C198.87512,111.922 198.9776,112.99973 198.716,113.98C198.54062,114.63721 198.06511,115.63889 198.0045,116.41933C197.93446,117.32114 198,118.07117 198,119.06533C198,120.0095 198.09874,120.93833 197.83333,121.83334C197.62985,122.51951 197.16035,123.23533 196.34734,123.914C195.68788,124.46449 195.02905,124.99365 194.52083,125.64584C193.90901,126.43095 193.02492,126.87263 192.39999,127.24133C191.61732,127.70311 190.66443,128.09293 190.17467,128.528C189.46251,129.16061 188.82051,129.99113 188.20134,130.38C187.36746,130.90372 186.81491,131.46626 186.2,132.09866C185.57779,132.73856 184.50859,132.59598 183.82533,132.70267C182.86575,132.85249 182.4133,133.81012 181.916,134.38133C181.38622,134.98985 180.39734,135.27464 179.7,135.96666C179.19807,136.46474 178.32602,137.08197 178.05716,137.96666C177.79453,138.83086 177.89384,139.86194 177.564,140.48134C177.08374,141.38319 176.28751,141.61603 175.7045,142.3765C175.26039,142.95578 175.11798,144.09531 174.66667,144.83333C174.23059,145.54645 173.72736,146.09651 172.75267,146.55684C171.8846,146.96683 170.91122,147.0598 170.33333,147.66667C169.76366,148.26491 169.20676,148.85837 168.56799,149.46666C167.87219,150.12927 167.18953,150.57634 166.60001,151.12399C165.8221,151.84666 165.71034,152.67625 165.39999,153.416C165.01283,154.33882 164.49625,155.12152 163.89999,155.76683C163.29619,156.42032 162.75616,157.1286 162.436,157.84134C162.0242,158.75809 161.93965,159.55959 161.57466,160.492C161.30151,161.18977 161.01042,162.14566 161,163.07733C160.98982,163.98811 161,164.6875 161,165.66667C161,166.45599 161,167.5 161,168.36217C161,169.26666 161,170.16667 161,171.06667C161,171.97116 160.99992,172.83333 161,173.66667C161.00009,174.64517 161.10249,175.45546 161.5,176.16667C161.99641,177.05486 162.35942,177.819 162.716,178.46666C163.19151,179.33034 163.85626,179.67558 164.60001,180.27733C165.25308,180.80573 165.69806,181.73668 166.10983,182.36667C166.57234,183.07426 167.30455,183.58342 168.01466,184.23067C168.61603,184.77879 169.59375,184.6819 170.05267,185.37117C170.55431,186.12457 171.35947,186.47978 172.10001,186.88817C172.77449,187.26013 173.38283,188.08427 174.10001,188.76649C174.68633,189.32423 175.56783,189.54269 176.3,190.02383C177.09425,190.54576 177.53435,191.40564 178.39999,191.63066C179.27194,191.85732 180.2397,191.76898 180.71466,192.468C181.24135,193.24315 181.43341,194.21509 181.86133,194.92799C182.17839,195.45622 182.83797,196.49733 183.24283,197.205C183.59337,197.81772 184.20491,198.78116 184.636,199.328C185.32709,200.20467 185.62305,200.69017 186.17467,201.38C186.93883,202.33563 187.66742,202.63203 188.3,203.37199C188.76283,203.91339 189.43854,204.53017 190.3,205.01933C191.03841,205.43861 191.71782,205.88943 192.16667,206.66667C192.52563,207.28825 193.5,207.64583 194.39999,207.66667L195.3,207.66667L196.2,207.66667L197.09984,207.66684" id="svg_9" stroke-width="3" stroke="#000" fill="none"/>
  <path t="45637,45703,45703,45716,45839,45839,45839,45851,45851,45893,45893,45973,45973,46013,46013,46027,46027,46054,46054,46067,46121,46135,46148,46148,46162,46162,46175,46190,46190,46203,46203,46216,46229,46242,46243,46256,46270,46297,46310,46310,46323,46663,46677,46677,46692,46692,46692,46692,46704,46704,46718,46718,46718,46718,46730,46730,46731,46731,46731,46745,46745,46745,46745,46745,46759,46759,46760,46760,46760,46772,46772,46772,46772,46784,46784,46784,46797,46798,46811,46811,46811,46811,46824,46825,46840,46840,46851,46865,46865,46878,46891,46892,46906,46907,46919,46974,46988,47002,47002,47028,47029,47055,47056,47083,47096,47136,47149,47651,47651,47665,47665,47677,47678,47690,47690,47717,47745,47759,47759,47788,47800,47840,47854,47880,47908,48043,48056,48219,48220,48232,48258,48258,48272,48272,48341,48342,48369,48370,48381,48381,48381,48407,48407,48407,48420,48421,48448,48461,48488,48488,48502,48502,48515,48515,48529,48570,48570,48596,48597,48597,48637,48638,48666,48666,48666,48678,48691,48691,48707,48787,48800,48801,48815,48815" d="M207,193.66667C205.60001,194.528 205.21606,195.19548 204.60001,196.04134C204.01505,196.8445 203.59286,197.49898 203.2,198.26801C202.79391,199.06291 202.35997,199.84584 202.12134,200.8665C201.94177,201.63451 201.87296,202.52356 201.38933,203.29201C200.93613,204.0121 200.42989,204.65924 200.16667,205.66667C199.96443,206.44075 200,207.5 200,208.256C200,209.16667 200,210.06667 200,210.97116C200,211.98801 200,212.66667 200,213.64517C200,214.46533 200,215.42383 200,216.32384C200,217.07117 200,218.06534 200,218.83067C200,219.9095 199.95221,220.76793 200,221.66667C200.04272,222.47006 200.61298,223.24863 200.97467,224.06667C201.32152,224.85114 201.91496,225.65407 201.99867,226.46666C202.0909,227.36194 201.95741,228.18855 202.00267,229.15334C202.03842,229.91565 202.29758,230.85159 202.70984,231.61484C203.14825,232.42648 203.4967,232.91331 204.24733,233.86133C204.73938,234.48276 205.3251,235.20741 205.84666,235.94934C206.24933,236.52214 206.68472,237.15604 207.42117,238.18817C207.94679,238.92482 208.22951,239.29283 208.73866,240.07733C209.24564,240.85847 209.86615,242.06306 210.03067,242.468C210.35663,243.27026 210.60973,244.10423 210.88266,244.952C211.31354,246.29036 211.47998,246.75081 211.82533,247.68134C211.998,248.14658 212.35361,249.05447 212.83333,250.33333C213.11839,251.09328 213.35629,251.78682 213.6955,252.7005C213.99326,253.50253 214.39471,254.4332 214.7,255.06216C215.19022,256.07214 215.56938,256.66342 215.83333,257.83334C216.00812,258.60806 215.95232,259.17297 216.084,259.98267C216.28505,261.2189 216.56154,261.85184 217.19867,262.78134C217.61208,263.38443 217.99466,264.30261 218,265.15067C218.00543,266.01398 217.86761,266.95633 218.22133,267.76685C218.53452,268.4845 218.85098,269.34021 219.084,270.18268C219.32768,271.06372 219.87506,271.87131 220.00017,272.76666C220.12682,273.67313 220.65326,274.2742 221.09984,274.98801C221.61504,275.81152 221.93782,276.63864 221.99867,277.46533C222.06485,278.36423 222,279.26666 222,280.16666C222,281.07733 222,281.98816 222,282.87732C222,283.86649 222,284.64584 222,285.5C222,286.41934 221.99046,287.3194 222,288.18268C222.01042,289.12518 222.72768,289.66248 222.94284,290.3765C223.17639,291.15149 222.99454,292.25604 223,293.16666C223.00534,294.05606 223.717,294.5437 223.98933,295.27734C224.29903,296.11157 224.46594,296.90277 224.87866,297.76666C225.286,298.61932 225.74707,299.20456 225.964,300.07733C226.18385,300.96179 226,301.84134 226,302.78265C226,303.55066 226.05305,304.51157 225.91467,305.26801C225.72765,306.29041 225.37459,306.89664 225,307.83334C224.68762,308.6145 224.42044,309.44931 224,310.5C223.71381,311.21518 223.41292,311.86249 222.89999,312.86633C222.50977,313.63007 221.72649,314.03897 221.16667,314.83334C220.67714,315.52798 220.96896,316.43283 220.64734,317.32382C220.37459,318.07944 220.05289,319.06287 220.01067,319.83066C219.95847,320.77997 219.76067,321.62759 219.42534,322.33865C219.03192,323.17288 219.01268,324.18735 219.00133,324.98401C218.98712,325.98123 219.10851,326.70129 218.66667,327.66666C218.27391,328.52481 217.59602,328.94604 217.10983,329.90952C216.7467,330.62912 216.2495,331.32458 215.7045,331.96667C215.06393,332.72134 215,333.66666 215,334.42383L215,335.33282L215,336.18549" id="svg_10" stroke-width="3" stroke="#000" fill="none"/>
  <path t="50590,50736,50749,50764,50777,50830,50845,50859,50860,50871,50871,50898,50898,50952,50965,50965,50979,50979,50979,50979,50992,50993,50993,51007,51060,51074,51074,51087,51087,51087,51101,51115,51128,51128,51128,51399,51399,51399,51399,51412,51412,51412,51426,51426,51427,51427,51442,51442,51442,51442,51442,51442,51453,51453,51453,51453,51453,51454,51454,51454,51466,51466,51466,51466,51466,51467,51467,51467,51467,51479,51479,51479,51480,51480,51493,51494,51494,51494,51508,51509,51509,51521,51521,51521,51533,51533,51533,51546,51546,51546,51546,51614,51628,51629,51669,51669,51696,51696,51696,51710,51710,51737,51777,51778,51778,51804,51805,51805,51818,51819,51819,51846,51846,51886,51886,51886,51912,51912,51913,51926,51926,51926,51953,51954,51980,51994,51994,51994,52009,52009,52021,52035,52048,52049,52062,52075,52075,52089,52102,52102,52117,52130,52131,52142,52548,52562,52576,52576,52592,52592,52604,52616,52616,52630,52630,52630,52643,52644,52659,52659,52671,52683,52697,52711,52725,52726,52743,52753,52765,52780,52807,52819,52846,52859,52982" d="M308,183.66667C308.05716,185.36667 308.46042,186.19028 308.94733,186.96217C309.39041,187.6646 309.94641,188.21552 310.42532,189.06667C310.83432,189.79353 310.99933,190.552 311,191.50267C311.00055,192.26801 311,193.26216 311,194.18134C311,195.04134 311,195.98833 311,196.70833C311,197.83333 311,198.62384 311,199.47734C311,200.06799 311,201.26401 311,202.125C311,202.896 311,203.99466 311,204.868C311,205.83333 311,206.6875 311,207.66667C311,208.45599 311,209.18134 311,210.14583C311,211.07733 310.95447,211.99248 311.04166,212.72917C311.1264,213.4453 311.5668,214.63649 311.85068,215.328C312.14807,216.05251 312.49911,216.76573 312.75699,217.84517C312.98941,218.81802 312.98932,219.45586 313,220.66667C313.00531,221.2693 313,222.20833 313,222.881C313,224 312.99658,224.8414 313.01068,225.77066C313.01828,226.27087 313.05231,227.34743 313.08533,227.92534C313.15625,229.16731 313.28305,230.52277 313.35266,231.23817C313.42435,231.97476 313.50156,232.72902 313.57468,233.49867C313.64893,234.28001 313.72955,235.06973 313.83334,236.66667C313.88528,237.46576 313.91806,238.26256 313.94284,239.05316C313.96735,239.83458 313.98108,240.60414 313.98932,241.35867C313.99738,242.09515 313.99933,242.81067 314,244.80167C314.00021,245.40666 314,245.98167 314,247.04167C314,247.98167 314,249.16667 314,249.812C314,250.625 314,251.34801 314,252.35201C314,253.1875 314,254.06799 314,255.26666C314,255.86667 314,256.76666 314,257.96667C314,258.56668 314,259.46667 314,260.66666C314,261.26401 314,262.125 314,262.896C314,264.00534 314,264.98816 314,265.6875C314,266.86667 314,267.66666 314,268.66666C314,269.46667 314,270.26666 314,271.26218C314,272.00949 314,272.914 314,273.83334C314,274.72916 314.00751,275.43869 313.99866,276.63467C313.99359,277.31735 314.03439,278.02487 313.83334,279.33334C313.74625,279.90015 313.31656,280.77795 313.08533,281.784C312.92914,282.4635 313.01773,283.43808 312.97916,284.20834C312.93597,285.07068 312.7218,286.26672 312.57468,286.85599C312.36105,287.71164 312.08548,288.74188 312.02084,289.64584C311.97665,290.26404 312.00751,291.45602 312,292.18134C311.98956,293.18765 311.84027,294.00198 311.57468,294.91733C311.35831,295.66299 311.04398,296.69263 311.00134,297.46399C310.95154,298.3653 311.01184,299.31815 310.716,300.15067C310.46509,300.85675 310.22427,301.83371 309.83334,302.66666C309.47256,303.43536 309.04871,304.20261 308.77866,304.98801C308.47836,305.86142 308.10263,306.6431 308,307.66666C307.92993,308.36551 307.3125,309.08865 307.05716,309.96667C306.80536,310.83246 307.34006,311.65784 308,312.16666C308.76508,312.75653 309.00842,313.52097 309.61066,314.26666C310.14084,314.92316 310.77563,315.46707 311.32117,316.20932C311.83228,316.90472 312.33435,317.63882 312.75732,318.52368C313.14706,319.33902 313.78961,319.86218 314.43201,320.46667C315.07904,321.07553 315.42123,321.92557 315.87866,322.76651C316.28528,323.51401 317.22858,323.77405 317.64282,324.37115C318.19012,325.1601 318.06537,326.1041 318.57468,326.69199C319.1366,327.34061 319.80133,327.75067 320.564,328.27734L320.97467,329.056L321.5,329.66666L322.02533,330.31332" id="svg_11" stroke-width="3" stroke="#000" fill="none"/>
  <path t="54242,54348,54348,54363,54375,54392,54392,54403,54403,54416,54456,54470,54483,54497,54497,54511,54564,54578,54592,54608,54619,54632,54633,54645,54659,54675,54687,54687,54700,54700,54713,54714,54728,54728,54741,54754,54767,54768,54781,54794,54808,54808,54825,54843,54843,54849,54861,54861,54874,54889,54889,54902,54902,54902,54928,54955,54956,54970,54997,54997,55023,55037,55037,55050,55064,55091,55091,55105,55119,55119,55133,55133,55145,55145,55158,55159,55172,55200,55200,55226,55240,55253,55254,55281,55295,55295,55309,55337,55337,55337,55513,55513,55525" d="M228,304.66666C230.78934,304.66666 231.51468,304.66113 232.47917,304.66666C233.41071,304.672 234.33821,304.85248 235,305.1875C235.85764,305.62167 236.39632,306.341 237.3,306.6095C238.16446,306.86633 239.18073,306.49649 239.91733,306.95065C240.68945,307.42673 241.27448,307.74835 242.01466,308.24133C242.68723,308.68927 243.60002,308.66132 244.5,308.66666C245.40004,308.672 246.10719,309.1196 247,309.5C247.75154,309.82019 248.70001,309.66074 249.60001,309.66666C250.41071,309.672 251.31462,309.90594 252.02083,310.16666C252.99117,310.52487 253.82663,310.49664 254.83333,310.83334C255.54019,311.06976 256.31628,311.59561 257.17465,311.65601C258.1124,311.72198 259.10001,311.66666 260,311.66666C260.79999,311.66666 261.70001,311.66608 262.52084,311.66666C263.48401,311.66733 264.2287,311.55801 265.24283,312.01935C266.05917,312.39069 266.79999,312.66599 267.63599,312.66666C268.48401,312.66733 269.34732,312.66656 270.37466,312.66666C271.3215,312.66675 272.03662,312.60547 273,312.83334C273.80832,313.02454 274.49026,313.50244 275.5,313.64584C276.47446,313.78424 277.17465,313.66666 278.24283,313.66666C279.10016,313.66666 279.88535,313.66666 280.82535,313.66666C281.83334,313.66666 282.58932,313.66666 283.5,313.66666C284.41068,313.66666 285.32132,313.66727 286.17465,313.66666C287.11465,313.66599 288.03036,313.53833 288.60001,313.056C289.35229,312.41904 289.95615,311.87143 291.00534,311.72385C291.74353,311.62003 292.75479,312.01529 293.54266,311.63068C294.33051,311.24606 294.68137,310.31235 295.35184,310.02383C296.33029,309.60281 297.11182,309.22433 298,308.83334C298.65765,308.54385 299.68051,308.67358 300.29999,307.96133C300.76743,307.42389 301.46344,306.80423 302.32132,306.22385C302.86395,305.85675 303.51599,305.14932 304.23834,304.42383L304.71335,303.86801L305.08401,302.952" id="svg_12" stroke-width="3" stroke="#000" fill="none"/>
  <path t="57625,57824,57921,57921,57934,57947,57961,57974,57974,58015,58042,58042,58055,58069,58082,58205,58205,58218,58231,58326,58339,58367,58367,58461,58462,58502,58516,58557,58557,58786,58799,58881,58894,58894" d="M281,276.66666C279.36401,276.09201 278.51883,275.71164 277.65268,275.67117C276.76263,275.62958 276.22543,276.13385 275.991,276.96667C275.74442,277.84259 274.72861,277.93579 274.17065,278.86667C273.75012,279.56827 274,280.46667 274,281.36667C274,282.26666 273.9675,283.18808 274.00134,284.14932C274.02985,284.95828 274.52008,285.6517 275.5,285.66666C276.38931,285.68024 276.92096,285.05124 277.56934,284.46667C278.11484,283.97485 279.1329,283.70163 279.63834,282.96667C280.1857,282.17072 280,281.25601 280,280.34534C280,279.492 280,278.552 280,277.56668L280,276.66666L280,276.099L280,276.81067" id="svg_13" stroke-width="3" stroke="#000" fill="none"/>
  <path t="60142,60572,60599,60613,60816,60829" d="M294,202.66667C294.03601,205.22 294.7045,205.66217 295.60001,205.66667L296.564,205.63066L296.98932,205.056" id="svg_14" stroke-width="3" stroke="#000" fill="none"/>
  <path t="62482,62602,62805,62805,62954,62967" d="M227,210.66667C228.82533,210.66667 229.83333,210.66667 230.6955,210.66667L231.60001,210.66667L232.5,210.66667" id="svg_15" stroke-width="3" stroke="#000" fill="none"/>
  <path t="78193,78839,78946,79123,79285,79516" d="M242,127.66666C242,126.86533 242,125.96667 242,125.03733L242.00133,125.86533L242.35266,126.614" id="svg_18" stroke-width="3" stroke="#000" fill="none"/>
  <path t="80750,81179,81327,81368,81382" d="M263,124.66666C262,125.66666 262.16666,126.5 262.91467,126.38133L263.00134,125.468" id="svg_19" stroke-width="3" stroke="#000" fill="none"/>
  <path t="83252,83384,83466,83466,83479,83494,83587,83601,83615,83615,83736,83777,84074,84169,84224" d="M245,145.66667C246.75717,145.66667 247.65266,145.66667 248.51601,145.66667C249.47917,145.66667 250.39999,145.66667 251.3,145.66667C252.2,145.66667 253.03825,145.84023 253.8,145.58133C254.68791,145.27956 255.39999,144.70267 256.2955,144.66217L256.97467,144.24133L257.61066,143.67734" id="svg_20" stroke-width="3" stroke="#000" fill="none"/>
  <path t="87378,87565,87592,87592,87674,87755,87863,87999,88540,88661,88688,88959,88972,88972" d="M252,128.66667C252,130.42383 252,131.31934 252,132.18266C252,133.14583 252,134.06667 252,134.96666C252,135.86667 251.74138,136.8933 252.22133,137.54533C252.73531,138.24359 253.436,138.64133 254.19867,138.95334L254.71466,139.55333" id="svg_21" stroke-width="3" stroke="#000" fill="none"/>
  <path t="96390,96535,96535,96589,96710,96737,96968,97021,97034,97062,97102,97183,97183,97360,97373,97428,97792,97792,97806,97819,97819,97833,97846,97887,97887,97900,97915,97927,97995,98036,98063,98292,98306" d="M287,109.66666C287.70984,110.01933 288.49326,110.48864 289.36401,110.63067C290.28845,110.78146 291.21274,110.81733 292.09982,110.6665C292.95093,110.5218 292.78091,109.45324 293.284,108.75066C293.78616,108.04936 294,107.34534 294,106.492C294,105.552 294.3768,104.48668 293.83334,103.83334C293.25937,103.14331 292.39734,103.05868 291.70001,102.36667C290.99731,101.66935 290.58536,100.9749 289.60001,100.70267C288.73163,100.46276 287.76135,100.56364 287.28534,99.86533C286.77457,99.11602 286.32251,98.56156 285.91599,97.86533C285.43359,97.03918 284.70001,96.37117 284,95.83334L283.16666,95.5L282.64734,95.081" id="svg_22" stroke-width="3" stroke="#000" fill="none"/>
  <path t="100908,101066,101066,101120,101161,101202,101242,101270,101392,101418,101446,101486,101512,101554,101580,101607,101621,101702,101728,101742,101838,101865,101945,101946,101959,102189,102284" d="M217,119.66666C216,119.66666 215.2,119.66666 214.3,119.66666C213.39999,119.66666 212.44028,119.97656 211.61067,119.656C210.81775,119.34962 210.1819,118.67238 210.00133,117.86533C209.8051,116.98835 209.79979,116.26588 209.284,115.58266C208.81944,114.96732 209,113.96667 209,113.06667C209,112.16666 208.99933,111.26667 209,110.36667C209.00067,109.468 209.36798,108.81736 210.3,108.66217C211.11761,108.52603 211.8,107.95067 212.60001,107.64133L213.39999,107.24133L214.2,106.75333" id="svg_23" stroke-width="3" stroke="#000" fill="none"/>
  <path t="103866,103935,103976,104043,104056,104274" d="M209,97.66666C210.60001,98.24133 211.39999,98.63067 212.3,98.66666L213.2,98.66666L214.09984,98.66683" id="svg_24" stroke-width="3" stroke="#000" fill="none"/>
  <path t="105562,105839,105883,105963,105963,106031,106168,106168,106181,106465,106709" d="M235,83.66666C234,84.16666 233.11136,84.5473 232.716,85.236C232.28648,85.98422 232.23561,86.99146 231.7785,87.7665C231.34918,88.49445 230.35716,88.7765 230.02533,89.51733L229.77867,90.424" id="svg_25" stroke-width="3" stroke="#000" fill="none"/>
 </g>
</svg>