<svg width="500" height="333.3333333333333" xmlns="http://www.w3.org/2000/svg" xmlns:svg="http://www.w3.org/2000/svg" xmlns:xlink="http://www.w3.org/1999/xlink">
 <!-- Created with SVG-edit - http://svg-edit.googlecode.com/ -->
 <g display="inline" class="layer">
  <title>Layer 1</title>
  <path t="0,387,421,447,499,687,718,771,802,803,830,882,906,1002,1018,1074,1146,1146,1189,1199,1207,1230,1257,1258,1291,1346,1361,1377,1409,1513,1566,1579,1580,1618,1642,1673,1721,1751,1809,1818,1839,1867,1890,2030,2032,2061,2093,2139,2162,2177,2185,2381,2382,2402,2402,2402,2435,2489,2506,2555,2588,2706,2714,2714,2715,2715,2922,2946,2969,2980,2986,3017,3089,3121,3169,3186,3270,3297,3339,3346,3449,3451,3560,3581,3589,3809,3811,3843,3891,3891,3923,3934,4285,4285,4346,4346,4346,4346,4347,4409,4410,4583,4590,4770,4802,4825,4866,4882,4890,4953,4962,5010,5061,5074,5089,5130,5153,5179,5217,5258,5273,5289,5321,5337,5369,5385,5401,5425,5433,5457,5465,5505,5529,5596,5634,5658,5706,5706,5714,5761,5786,5826,5842,5862,5890,5906,5916,5930,5946,5963,6001,6010,6027,6050,6075,6082,6138,6186,6211,6258,6266,6280,6323,6338,6346,6386,6450,6482,6482,6570,6570,6610,6650,6722,6753,6818,6943,6986,7034,7050,7058,7058,7092,7170,7178,7226,7266,7314,7314,7365,7378,7472,7495,7571,7610,7649,7692,7698,7721,7777,7810,7823,7839,7897,7932,7946,8002,8016,8094,8115,8134,8161,8172,8218,8315,8331" d="M222.99432,91.82765C223.99432,91.82765 224.91069,91.85164 225.69882,91.82765C226.63846,91.79906 226.8743,90.9877 227.51515,90.34849C228.15874,89.70655 229.30612,89.63477 229.70898,89.02632C230.25287,88.20487 230.97302,87.92762 231.49432,87.30682C232.06958,86.62177 232.54117,86.08747 233.27832,85.54232C234.00305,85.00634 234.04411,83.97214 234.94615,83.82765C235.83368,83.68549 236.80208,83.89769 237.43031,83.39165C238.16144,82.80275 238.58087,82.01506 239.43031,81.82765C240.36133,81.62225 240.86827,81.10217 241.60498,80.83832C242.42268,80.54546 243.43031,80.82765 244.29881,80.82765C245.16098,80.82765 245.97348,80.82765 246.97348,80.82765C247.79565,80.82765 248.70898,80.82765 249.60498,80.82765C250.47348,80.82765 251.46461,80.5917 252.28983,80.83215C253.0482,81.05314 253.35567,81.7391 254.28983,81.82765C255.17282,81.91135 255.40639,82.68063 256.01965,83.39165C256.55264,84.00961 257.65231,83.86219 257.96899,84.67832C258.30878,85.554 258.77484,85.95065 259.16098,86.82765C259.42459,87.42638 260.32239,88.00168 260.99515,88.47581C261.70221,88.97412 262.48538,89.51791 263.35147,89.83215C264.18503,90.13459 264.86618,90.75861 265.60498,90.82765C266.55292,90.91624 267.49591,90.98721 268.34781,91.18032C268.9747,91.32243 269.95282,91.30093 270.93182,91.82765C271.62048,92.19816 272.3815,92.88218 272.82764,93.66099C273.22693,94.35803 273.33072,95.34482 274.16098,95.82765C274.85306,96.23012 274.99432,97.02632 274.99432,97.88032C274.99432,98.82765 274.99432,99.66099 274.99432,100.53215C274.99432,101.39165 274.99362,102.26365 274.99432,103.21699C274.995,104.11298 275.1864,104.95291 275.82764,105.66099C276.39471,106.28716 276.86938,107.0323 276.99448,107.92765C277.12112,108.83412 277.7428,109.36443 277.95831,110.22765C278.19812,111.18816 278.01196,112.12143 277.93716,112.81799C277.80612,114.03833 277.71112,114.44778 277.56897,115.35432C277.4205,116.30112 277.32455,116.76115 277.11581,118.31998C277.01999,119.03568 276.77283,119.82765 275.89432,119.82765C274.99432,119.82765 274.07806,119.98195 273.99432,120.82765C273.90097,121.77038 274.22552,122.56108 273.99432,123.47048C273.77487,124.33366 273.52255,125.09948 272.97348,125.80682C272.42697,126.51083 271.99432,126.92748 271.99432,127.77499C271.99432,128.62898 272.00366,129.47054 271.99432,130.34848C271.98389,131.32782 271.4845,132.04254 271.16098,132.82765C270.80627,133.68848 271.22293,134.56042 270.99432,135.47049C270.77502,136.34338 270.03705,137.02303 269.99432,137.85298C269.95444,138.62796 269.62363,139.25659 269.11581,140.04915C268.63745,140.79575 269.02057,141.80273 268.99432,142.62898C268.96573,143.52901 268.38898,144.27756 268.05148,145.12315C267.71808,145.95854 267.18414,146.48412 267.00497,147.39165C266.81964,148.33041 266.99432,149.21698 266.99432,150.11299C266.99432,151.02632 266.99432,151.88033 266.99432,152.82765C266.99432,153.70631 266.99432,154.53215 266.99432,155.39165C266.99432,156.34848 266.99432,157.21698 266.99432,158.11299C266.99432,159.02632 266.99432,159.88899 266.99432,160.67831C266.99432,161.65833 267.01093,162.55679 267.49432,163.30682C267.9556,164.02251 267.81107,164.93341 268.34698,165.71782C268.80933,166.3945 268.79269,167.2433 269.27832,167.82898C269.79346,168.45024 269.79605,169.30676 270.41965,169.79166C271.08008,170.30519 271.64508,170.92111 272.07831,171.54231C272.63416,172.33934 272.69257,173.02083 273.35147,173.71782C273.98975,174.39299 274.81393,174.77386 275.43033,175.25299C276.22427,175.87013 276.70901,176.22359 276.99567,177.11165C277.24634,177.88826 278.39905,177.97336 278.82764,178.82765C279.19394,179.55783 278.5986,180.65765 279.0303,181.40231C279.42651,182.08572 280.73679,181.83228 280.95831,182.68898C281.20181,183.63068 280.64694,184.49648 281.01514,185.30682C281.36649,186.08012 282.40991,186.38342 282.8728,187.04898C283.35742,187.74577 282.99432,188.67831 282.99432,189.72232C282.99432,190.53299 282.66275,191.5722 283.01514,192.32765C283.36832,193.08479 283.97968,193.66112 283.99432,194.43832C284.01233,195.39215 284.81241,195.82195 284.99298,196.62898C285.19241,197.52028 284.99432,198.43832 284.99432,199.30682C284.99432,200.26366 284.99432,201.12315 284.99432,202.04915C284.99432,202.92749 284.99432,203.82765 284.99432,204.62898L284.99432,205.54231L284.99432,206.47499" id="svg_1" stroke-width="3" stroke="#000" fill="none"/>
  <path t="10006,10281,10290,10418,10562,10632,10699,10742,10779,10882,10884,10908,11002,11026,11245,11270,11298,11362,11566,11586,11586,11724,11802,11802,12028,12041,12050,12066,12092,12092,12210,12219,12234,12371,12395,12460,12468,12491,12506,12562,12571,12578,12698,12707,12754,12826,12850,12890,12898,12899,12922,12994,13011,13051,13130,13130,13154,13194,13218,13226,13226,13346,13363,13371,13460,13480,13497,13610,13611,13645,13651,13651,13659,13666,13676,13738,13786,13850,13874,13882,13898,13946,13956,13972,13989,13995,14002,14045,14060,14060,14076,14098,14115,14115,14130,14156,14173,14173,14204,14226,14234,14258,14298,14314,14315,14338,14375,14375,14405,14418,14435,14450,14469,14538,14580,14589,14626,14675,14730,14870,14890,14916,14917,14930,14954,15018,15082,15082,15138,15276,15429,15448,15457,15522,15547,15628,15637,15637,15637,15644,15650,15666,15690,15716,15746,15763,15794,15834,15858,15975,16007,16008,16025,16074,16114,16122,16138,16148,16166,16226,16226,16257,16273,16282,16350,16392,16415,16445,16466,16466,16498,16546,16546,16570,16618,16618,16650,16676,16694,16695,16722,16770,16890,16890,16892,16892,16892,16893,16893,16982,16983,17001,17002,17010,17010,17026,17066,17077,17090,17125,17138,17157,17166,17193,17235,17252,17253,17277,17299,17326,17346,17346,17387,17394,17426,17452,17479,17491,17507,17523,17551,17555,17572,17587,17618,17662,17693,17696,17737,17783,17783,17813,17813,17815,17866,17881,17892,17917,17963,17963,17977,18002,18007,18025,18049,18055,18061,18078,18106,18109,18114,18135,18171,18189,18212,18212,18228,18241,18242,18259,18295,18362,18362,18363,18365,18365,18366,18366,18366,18451,18451,18456,18457,18457,18457,18458,18459,18477,18477,18483,18483,18514,18530,18542,18542,18556,18589,18591,18604,18604,18622,18653,18658,18658,18670,18698,18706,18754,18762,18762,18794,18794,18796,18834" d="M220.99432,90.82765C220.19298,90.82765 219.27965,90.82765 218.38365,90.82765C217.51515,90.82765 216.55832,90.82765 215.69882,90.82765C214.77281,90.82765 213.89449,90.82765 213.01965,90.82765C212.19298,90.82765 211.27965,90.82765 210.38365,90.82765C209.51515,90.82765 208.87511,90.31874 208.04698,89.88482C207.35452,89.52198 207.16553,88.81078 206.99416,87.94882C206.84871,87.2173 206.22966,86.59062 205.60498,85.87832C204.9872,85.17387 205.17853,84.37663 204.98366,83.39165C204.80412,82.48419 204.0332,81.95845 203.23265,81.77048C202.32294,81.55688 201.74951,81.00658 200.70898,80.82765C199.80887,80.67287 198.94165,80.82765 197.99432,80.82765C197.16098,80.82765 196.28983,80.82765 195.39432,80.82765C194.49432,80.82765 193.60498,80.82765 192.70898,80.82765C191.79565,80.82765 190.94165,80.82765 189.99432,80.82765C189.16098,80.82765 188.27806,80.8634 187.59431,81.25298C186.77951,81.71724 185.89305,81.77985 184.99432,81.82765C184.19092,81.87038 183.49629,82.44357 182.98982,83.18032C182.52991,83.84934 181.50137,83.5901 180.77298,84.04915C180.12819,84.45551 180.00883,85.55028 179.56898,86.26365C179.09244,87.03654 178.80345,87.95366 178.28983,88.52765C177.64186,89.25177 176.96904,89.82232 176.19298,89.82765C175.16101,89.83475 174.38365,89.82765 173.43031,89.82765C172.55165,89.82765 171.69965,89.82765 170.77281,89.82765C169.89415,89.82765 169.10898,89.82765 168.17966,89.82765C167.16365,89.82765 166.38365,89.82765 165.43031,89.82765C164.55832,89.82765 163.42792,89.57445 163.03032,90.26365C162.55336,91.09042 162.38345,91.60772 161.71031,92.11298C160.9894,92.6541 160.80907,93.4361 160.27832,93.99832C159.67656,94.63577 159.49364,95.40324 158.99416,96.04915C158.44008,96.76566 158.22327,97.49208 157.64165,98.18482C157.05644,98.88184 157.17575,99.86862 156.90898,100.62766C156.60815,101.4836 156.11414,102.23682 155.71031,103.02765C155.37408,103.68611 155.11542,104.66323 154.47348,105.30682C153.83427,105.94767 153.09149,106.25782 152.99298,107.11432C152.89067,108.00385 152.4985,108.80886 152.11565,109.58498C151.71468,110.39782 151.17532,111.07161 150.99565,111.99565C150.83685,112.81236 150.99432,113.80682 150.99432,114.62898C150.99432,115.54232 150.64447,116.52113 151.01515,117.30682C151.34792,118.01212 152.55832,117.82765 153.43031,117.82765C154.28983,117.82765 155.21582,117.82765 156.09431,117.82765C156.99432,117.82765 157.94591,117.91314 158.55832,117.21699C159.13652,116.55972 158.78508,115.44766 159.27965,114.62898C159.65698,114.00437 160.57352,113.72432 161.10416,113.12315C161.77179,112.36679 162.73296,112.18507 163.41965,111.81699C164.14543,111.42796 164.75478,110.9004 164.99565,111.74765C165.2664,112.7 165.34698,113.23832 165.56898,114.12632C165.82765,115.16099 165.99432,116.04915 165.99432,116.92748C165.99432,117.85298 165.97044,118.62926 165.99432,119.66099C166.01233,120.43894 166.69179,121.07619 166.99432,121.99432C167.25513,122.78579 166.99432,123.74499 166.99432,124.53748C166.99432,125.34499 167.1443,126.42972 166.99432,127.30682C166.85025,128.14932 166.33548,128.88263 165.99432,129.66098C165.65306,130.43956 165.27336,131.21306 164.82765,131.99432C164.45074,132.65497 163.59564,133.20778 162.99432,133.82765C162.41045,134.42953 162.12411,135.32976 161.47348,135.82765C160.70172,136.41823 160.24159,136.9782 159.82765,137.82765C159.5098,138.47992 159.17737,139.38893 158.70898,140.11299C158.31264,140.72571 157.48526,141.27809 156.77298,142.04915C156.25581,142.60899 155.75224,143.2634 155.16098,143.99432C154.59653,144.69212 154.30544,145.43182 153.71031,146.11299C153.11725,146.79179 152.76697,147.58347 152.17549,148.10898C151.35474,148.8382 150.98665,149.59395 150.74365,149.96498C150.24013,150.73383 149.77737,151.50307 149.13748,152.44182C148.57002,153.27431 148.17142,153.99648 147.99432,154.82765C147.78526,155.80885 147.2334,156.35405 147.01515,157.30682C146.81905,158.16289 147.17592,159.28653 146.55832,159.80232C145.92624,160.3302 145.59618,161.04497 144.99416,161.70615C144.49251,162.2571 143.59686,162.49731 143.07832,163.11299C142.51784,163.77847 142.31306,164.55154 141.60498,165.21698C140.93163,165.84979 140.20375,166.1718 139.77298,166.92749C139.38219,167.61304 138.36731,167.66873 137.69882,168.18481C136.95145,168.7618 136.91377,169.63838 136.19298,169.91298C135.32756,170.24266 134.97269,171.17574 134.41965,171.85298C133.89435,172.49626 133.4996,173.31197 132.91032,173.91165C132.29529,174.53757 131.34737,175.05078 131.01515,175.84848C130.69589,176.61508 130.52388,177.25494 129.99565,177.91298C129.4135,178.6382 129.29445,179.42365 129.07965,180.31165C128.87578,181.15445 129.02626,182.07101 128.99432,183.02632C128.96571,183.88176 128.19344,184.48314 128.01515,185.30682C127.81121,186.24905 127.99432,187.04898 127.99432,188.02731C127.99432,188.78598 127.99432,189.80682 127.99432,190.62898C127.99432,191.52765 128.33737,192.50623 127.97349,193.30682C127.62203,194.08006 126.99657,194.53214 126.99432,195.42766C126.99206,196.32765 126.99432,197.30682 126.99432,198.18481C126.99432,199.02765 126.99432,199.92783 126.99432,200.71298C126.99432,201.65298 126.99432,202.66098 126.99432,203.46599C126.99432,204.34848 126.99432,205.23831 126.99432,206.14981C126.99432,206.93182 126.99432,207.77032 126.99432,208.91266C126.99432,209.82932 126.99432,210.30765 126.99432,211.25432C126.99432,212.12099 126.99432,213.32498 126.99432,214.01566C126.99432,214.99432 126.99432,215.81699 126.99432,216.81566C126.99432,217.34848 126.99432,218.41615 126.99432,218.92499C126.99432,220.51698 126.99432,221.22348 126.99432,222.14882C126.99432,222.96632 126.99432,223.93298 126.99432,224.84848C126.99432,225.80615 126.99432,226.52315 126.99432,227.42766C126.99432,228.32765 126.99432,229.23831 126.99432,230.14882C126.99432,230.96632 126.99432,231.93298 126.99432,232.84848C126.99432,233.80615 126.99432,234.52315 126.99432,235.47049C126.99432,236.34848 126.99432,237.30682 126.99432,238.18932C126.99432,239.14899 126.99432,239.82765 126.99432,240.80615L126.99432,241.62631L126.99432,242.52765L126.99432,243.47049" id="svg_2" stroke-width="3" stroke="#000" fill="none"/>
  <path t="21132,21244,21266,21281,21281,21284,21284,21298,21314,21330,21330,21354,21366,21378,21393,21417,21461,21466,21467,21490,21490,21498,21508,21537,21593,21602,21620,21626,21651,21686,21732,21732,21756,21763,21801,21802,21825,21841,21852,21869,21874,21890,21890,21922,21938,21965,21965,21973,21986,21996,22013,22026,22041,22063,22079,22114,22177,22177,22177,22186,22186,22186,22187,22193,22218,22240,22240,22250,22259,22283,22289,22298,22314,22347,22353,22371,22381,22393,22443,22459,22463,22476,22516,22523,22532,22554,22570,22602,22602,22610,22646,22677,22698,22718,22718,22795,22839,22839,22839,22842,22865,22894,22899,22899,22982,23009,23010,23010,23026,23081,23138,23273" d="M127.99432,243.82765C129.21565,244.70631 129.89594,245.20319 130.16098,245.99432C130.44609,246.84537 130.54208,247.80174 131.04698,248.46599C131.57422,249.15964 132.62901,249.31195 132.90898,250.31032C133.08725,250.94604 133.39186,251.59131 133.94165,252.18481C134.55759,252.84972 134.7596,253.73923 135.05148,254.53215C135.32832,255.28418 136.03416,255.97235 136.38365,256.65298C136.88678,257.63281 136.63065,258.50375 137.01515,259.30682C137.35193,260.01019 138.75517,259.69531 138.99432,260.26364C139.36409,261.14243 139.62047,261.65598 140.28983,262.18481C141.03067,262.77014 140.94815,263.78119 141.00499,264.689C141.04625,265.34793 141.59763,266.25873 141.93715,267.12314C142.26599,267.96036 142.80418,268.48602 142.98366,269.42764C143.15218,270.3118 142.99367,271.22766 142.99432,272.12766C142.995,273.02765 143.1852,273.95364 143.69882,274.52765C144.34677,275.25174 145.0123,275.83011 145.34698,276.53748C145.72569,277.33786 146.06682,278.22089 146.56898,278.853C147.07309,279.48755 146.92052,280.50372 147.41965,281.21698C147.9431,281.965 148.42276,282.52676 148.99432,283.30682C149.49298,283.98737 150.2271,284.38507 150.63033,285.15698C150.90123,285.6756 151.31798,286.69028 151.64249,287.47665C151.97604,288.28494 152.34079,289.0343 152.75131,290.22031C153.03391,291.03671 153.1395,292.00333 153.41965,292.6423C153.79898,293.50748 154.54094,294.08017 154.87282,294.92749C155.21326,295.79663 154.99432,296.629 154.99432,297.52765C154.99432,298.42764 155.15712,299.26572 155.64165,299.88031C156.15367,300.52979 155.99432,301.54233 155.99432,302.43832C155.99432,303.32764 155.99432,304.22766 155.99432,305.12314C155.99432,306.04916 155.99432,306.92749 155.99432,307.80231C155.99432,308.629 155.99432,309.54233 155.99432,310.39697C155.99432,311.17947 155.99432,312.19165 155.99432,313.12766C155.99432,314.02765 155.99432,314.92764 155.99432,315.82764C155.99432,316.62766 155.99432,317.49966 155.99432,318.37033C155.99432,319.32764 155.99432,320.05966 155.99432,321.01331C155.99432,322.02765 155.99432,322.92764 155.99432,323.82764C155.99432,324.62766 155.99432,325.49966 155.99432,326.37033C155.99432,327.32764 155.99432,328.05966 155.99432,329.01331L155.99432,330.02765L155.99432,330.92749L155.99432,331.80231" id="svg_3" stroke-width="3" stroke="#000" fill="none"/>
  <path t="24957,26043,26197,26204,26205,26205,26205,26205,26212,26212,26212,26248,26253,26336,26366,26427,26610,26618,26658,26746,26802,26812,26845,26860,26878,26916,27040,27045,27045,27068,27089,27115,27134,27182,27216,27274,27285,27302,27370,27386,27418,27466,27499,27541,27570,27676,27685,27685,27685,27699,27746,27756,27779,27820,27844,27866,27886,27914,27931,27987,28002,28018,28037,28098,28106,28114,28123,28162,28171,28186,28202,28210,28227,28245,28274,28290,28306,28314,28331,28362,28394,28419,28437,28468,28499,28539,28550,28587,28613,28633,28668,28698,28709,28791,28791,28814,28859,28878,28916,28933,28979,29006,29006,29011,29037,29062,29115,29139,29170,29224,29230,29252,29255,29296,29299,29333,29344,29362,29374,29385,29392,29428,29467,29506,29531,29547,29554,29572,29582,29598,29615,29637,29652,29698,29698,29724,29725,29731,29825,29849,29859,29978,29994,30018,30059,30099,30108,30147,30165,30197,30210,30266,30298,30315,30333,30394,30466,30491,30829,30875,31002,31050" d="M285.99432,208.82765C284.99432,207.21698 285.13083,206.57732 285.43698,207.49866C285.72034,208.35138 285.84894,208.85052 286.14365,209.89699C286.29095,210.4201 286.66254,211.82729 286.82498,212.51431C287.04459,213.44299 287.83078,213.96805 287.97348,214.82765C288.12723,215.75388 287.99432,216.53215 287.99432,217.47049C287.99432,218.34848 287.99432,219.30682 287.99432,220.18481C287.99432,221.02765 288.1051,221.93449 287.99432,222.82765C287.88281,223.72688 287.03705,224.11002 286.99432,225.02632C286.95309,225.91069 286.97418,226.8141 286.42633,227.39699C285.84622,228.01418 285.14575,228.78513 284.99432,229.66098C284.84558,230.52126 284.48495,231.29791 283.91031,231.91165C283.33752,232.52342 282.99966,233.42761 282.99432,234.32765C282.98907,235.21696 282.99432,236.11299 282.99432,237.02632C282.99432,237.88033 283.25201,238.8685 282.99432,239.66098C282.73145,240.46941 282.04599,241.12247 281.56897,241.82365C281.11487,242.49117 281.00583,243.34828 280.99567,244.06099C280.98019,245.14488 280.99432,246.11299 280.99432,246.92749C280.99432,247.85298 280.99432,248.62898 280.99432,249.52765C280.99432,250.42766 280.99432,251.39165 280.99432,252.26366C280.99432,253.12315 280.99432,254.11299 280.99432,254.92749C280.99432,255.85298 280.99432,256.629 280.99432,257.66098C280.99432,258.43832 280.96182,259.39722 280.27832,259.82632C279.57254,260.26941 279.03705,261.02316 278.99432,261.88898C278.95544,262.67737 278.95715,263.63379 278.49432,264.34848C278.00809,265.09933 277.32809,265.63638 277.01514,266.34848C276.66116,267.15387 276.71381,268.23105 275.99432,268.66098C275.22385,269.12137 275.18134,269.89737 274.909,270.629C274.58591,271.49692 273.34213,271.54724 272.99432,272.18481C272.54498,273.00854 272.99173,274.01883 272.28983,274.47498C271.5025,274.98663 271.18219,275.57129 270.95831,276.43832C270.74066,277.28125 270.18109,277.96603 269.82764,278.82764C269.55225,279.49893 269.11737,280.39453 268.64166,281.12314C268.15927,281.86197 267.28931,282.26697 267.0303,283.21698C266.79443,284.08218 266.68744,284.87445 266.27832,285.62766C265.84512,286.42517 265.13812,286.87759 264.99432,287.77499C264.85919,288.61823 265.17947,289.56931 264.95831,290.43832C264.74124,291.29126 264.26053,291.98767 263.82764,292.82764C263.45993,293.54114 262.99432,294.26364 262.99432,295.21698C262.99432,296.11298 263.21945,297.04547 262.71033,297.74365C262.20096,298.4422 261.46432,298.86938 261.07965,299.74365C260.76025,300.4696 260.99973,301.42767 260.99432,302.32764C260.98898,303.21704 260.28229,303.70654 260.00497,304.43832C259.66675,305.33087 259.17624,305.82193 258.99567,306.629C258.79626,307.52029 258.99442,308.43832 258.99432,309.30682C258.99423,310.27048 259.13116,311.07767 258.70898,311.94232C258.33307,312.71225 257.26904,313.17676 256.99432,313.99432C256.69711,314.87888 256.99432,315.77499 256.99432,316.629C256.99432,317.54233 256.99432,318.43832 256.99432,319.30682C256.99432,320.18481 256.99432,321.12314 256.99432,321.99432C256.99432,322.92749 256.99432,323.77499 256.99432,324.629C256.99432,325.54233 256.9921,326.43832 256.99432,327.30682C256.99658,328.18481 257.13864,329.23514 257.99432,329.66098C258.75513,330.03961 258.99432,330.54364 258.99432,331.40231L258.99432,332.34848L258.99432,333.21698" id="svg_4" stroke-width="3" stroke="#000" fill="none"/>
  <path t="37947,38266,38290,38321,38522,38538,38578,38594,38602,38658,38835,38851,38890,38911,39010,39083,39083,39099,39162,39178,39346,39379,39442,39506,39687,39699,39728,39787,39842,39863,39906,40021,40146,40146,40146,40147,40155,40253,40267,40282,40466,40498,40498,40507,40522,40578,40594,40690,40699,40796,40814,40898,40945,40994,41115,41115,41280,41280,41363,41403,41409,41713,41769,41769,41789,42057,42089,42130,42202,42234,42474,42508,42533,42555,42618,42626,42732,42794,42794,42819,42864,42893,42914,42923,42933,43085,43182,43182,43204,43331,43363,43444,43444,43475,43506,43507,43517,43554,43580,43731,43754,43755" d="M202.99432,159.82765C203.98366,159.86365 203.67519,160.67957 203.99432,161.66098C204.2572,162.46941 204.95618,163.12204 204.99432,163.93748C205.03593,164.82692 205.3112,165.52821 206.21565,165.82782C206.9798,166.08095 206.66898,167.30727 207.35149,167.77049C208.04936,168.24414 209.228,167.62692 209.99432,167.99432C210.75009,168.35666 210.85849,169.54146 211.60498,169.81699C212.4994,170.14711 213.48866,169.50974 214.38365,169.83832C215.10309,170.10245 215.46378,170.59462 216.28983,170.83215C217.05768,171.05295 217.51498,171.81723 218.47348,171.82765C219.35144,171.83719 220.35127,171.74625 220.96898,172.25299C221.52765,172.7113 222.49547,172.66618 223.35233,172.47499C223.99521,172.33154 224.62387,172.11024 225.93698,171.91298C226.82181,171.78006 227.74245,172.25403 228.55832,171.75565C229.19208,171.36852 229.28717,170.04092 229.99432,169.86932C230.9478,169.63794 231.67628,169.3687 232.38365,168.85298C233.06931,168.3531 233.52921,167.91853 233.99432,167.30682C234.57965,166.53702 234.89874,165.77016 234.99432,164.82765C235.08006,163.98216 236.18683,164.21916 236.82765,163.66098C237.40253,163.16023 237.38766,161.97801 237.79565,161.31165C238.32991,160.43904 239.03664,160.02032 239.79565,159.74232C240.64653,159.43069 241.12796,158.47922 241.79565,158.11165C242.63321,157.65057 242.99278,157.0096 243.79565,156.82898C244.68672,156.62852 245.62396,156.66451 246.49432,156.84848C247.34167,157.02759 248.0918,157.72311 248.91032,157.82765C249.70837,157.92957 250.35655,158.54146 250.93715,159.18031C251.4305,159.72316 252.23297,159.93066 252.70898,160.62898C253.21977,161.3783 253.86241,161.35187 254.63715,161.88481C255.34108,162.36905 255.43492,163.51485 256.28983,163.77049C257.17871,164.0363 258.24231,163.90732 258.70898,164.54366C259.20673,165.22235 259.60495,165.82224 260.55832,165.82765C261.43698,165.83266 262.28357,165.89203 262.97299,166.40231C263.5578,166.83516 264.25598,166.92609 264.98532,167.47499C265.49384,167.85771 266.47348,167.82765 267.27966,168.11165L267.99432,168.66098L268.70898,168.91165" id="svg_5" stroke-width="3" stroke="#000" fill="none"/>
  <path t="45314,45671,45684,45695,45772,45811,45812,45856,45891,45956,45973,46018,46047,46082,46123,46206,46207,46221,46240,46358,46365,46397,46398,46427,46437,46467,46467,46499,46536,46570,46580,46586,46586,46682,46730,46746,46791,46817,46850,46859,46882,46919,46919,46958,46992,47007,47036,47095,47105,47109,47139,47181,47198,47234,47235,47270,47275,47293,47308,47338,47350,47378,47411,47437,47475,47484,47490,47538,47570,47610,47684,47685,47714,47738,47778,47778,47794,47827,47843,47890,47938,47986,48042,48050,48074,48090,48162,48178,48204,48228,48237,48253,48267,48307,48323,48339,48371,48395,48419,48451,48511,48517,48549,48581,48588,48603,48627,48651,48669,48684,48791,48812,48819,48837,48861,48879,48924,48932,48943,48955,49002,49042,49058,49066,49082,49114,49138,49176,49178,49210,49227,49266,49298,49298,49314,49402,49402,49435,49516,49524,49605,49605,49616,49616,49682,49682,49698,49715,49730,49739,49765,49834,49870,50056,50202,50202,50203,50203,50212,50212,50212,50224,50227,50227,50239,50239,50242,50242,50250,50251,50267,50267,50299,50620,50690,50690,50690,50690,50690,50698,50698,50708,50723,50736,50736,50746,50754,50770,50890,50907,50919,50964,51058,51058,51082,51091,51122,51132,51203,51221,51221,51230,51235,51306,51306,51340,51348,51379,51386,51396,51491,51502,51525,51619,51634,51666,51808,51808,51830,51830,51842,51842,51865,51922,52086,52086,52087,52089,52100,52128,52128,52162,52190,52234,52258,52267,52322,52322,52430,52588,52606,52711,52714,52730,52730,52739,52748,52762,52917,52959,52972,53072,53114,53114,53126,53191,53210,53246,53274,53474,53483,53484,53495,53499,53514,53618,53642,53665,53938,53977,53978,54082,54242,54260,54266,54274" d="M201.99432,159.82765C200.99432,159.82765 200.07195,159.37329 199.27965,159.82765C198.66588,160.17963 198.31854,161.17905 197.69965,161.47049C196.74763,161.91879 196.1431,162.32629 195.71031,163.02632C195.20857,163.83789 195.11188,164.66843 194.47348,165.30682C193.8351,165.94522 192.69499,165.62532 191.89449,166.04915C191.25221,166.38919 190.97781,167.49269 190.14365,167.80232C189.35776,168.09402 188.72084,168.59285 187.99432,168.99432C187.20537,169.4303 186.46616,169.71509 185.60498,169.82765C184.75114,169.93925 184.16495,170.47665 183.29431,170.88033C182.46278,171.26587 181.6881,171.70818 180.79431,171.82898C179.98477,171.9384 179.51151,172.6156 179.00499,173.39165C178.66382,173.91435 178.05786,174.49083 177.56898,175.21698C177.07695,175.94781 177.41913,177.05075 176.82765,177.66098C176.25027,178.25667 175.57185,178.50211 175.27832,179.25966C174.90135,180.23257 175.15695,181.15474 174.90898,181.99698C174.69255,182.73206 173.71352,183.10274 173.11581,183.82782C172.66119,184.37933 172.99432,185.47049 172.99432,186.34848C172.99432,187.21698 172.88126,188.19235 172.47348,188.82765C171.95868,189.62968 171.01233,189.83771 170.99432,190.62898C170.97356,191.54208 170.99432,192.43832 170.99432,193.30682C170.99432,194.26366 170.99432,195.12315 170.99432,196.04915C170.99432,196.92749 170.99432,197.82765 170.99432,198.62898C170.99432,199.54231 170.99432,200.43832 170.99432,201.30682C170.99432,202.27032 170.99432,203.12231 170.99432,204.04915C170.99432,204.92766 170.99432,205.82765 170.99432,206.62766C170.99432,207.54231 170.99432,208.43832 170.99432,209.30682C170.99432,210.26366 170.99432,211.12315 170.99432,212.04915C170.99432,212.92749 170.99432,213.82765 170.99432,214.62898C170.99432,215.54231 170.98949,216.43834 170.99432,217.30682C170.99966,218.2637 171.52431,218.8694 171.90898,219.74365C172.22839,220.46959 171.93922,221.50044 172.34698,222.18481C172.81276,222.96655 172.99432,223.85298 172.99432,224.62898C172.99432,225.66098 172.99432,226.43832 172.99432,227.39165C172.99432,228.26366 172.97704,229.13899 173.49432,229.82765C173.96431,230.45334 173.85643,231.31844 173.99883,232.18481C174.14264,233.05978 174.95158,233.7402 174.99432,234.53215C175.04488,235.46913 174.94688,236.38123 175.34698,237.12766C175.79927,237.97142 175.65724,238.97655 176.16098,239.66098C176.64159,240.31398 176.99432,240.92749 176.99432,241.82765C176.99432,242.62898 176.80826,243.55473 177.03032,244.42766C177.2473,245.28061 178.19795,245.82117 178.64165,246.53215C179.13139,247.31691 178.75371,248.29935 178.99883,249.12315C179.22574,249.88577 180.64072,249.64319 180.97348,250.34848C181.34418,251.13417 180.80388,252.19115 181.21582,252.92749C181.62843,253.66504 182.73647,253.72818 183.27965,254.39565C183.80916,255.04633 184.41739,255.5748 185.27832,255.82898C186.00026,256.04211 186.26021,257.04745 186.75598,257.58481C187.45021,258.33728 187.91591,258.91483 188.82765,259.49432C189.57947,259.97217 189.88231,260.65442 190.49432,261.30682C191.13879,261.9938 191.80487,262.25345 192.27832,263.02631C192.75014,263.79651 193.72444,263.77701 194.41965,263.99832C195.4431,264.32413 196.1429,264.68759 196.93965,265.01297C197.34561,265.17877 198.49545,265.65842 199.41832,266.06598C200.12718,266.37903 201.15533,266.61649 201.99432,266.99432C202.68329,267.3046 203.47711,267.78 204.39882,267.82315C205.39325,267.86972 206.21234,267.78427 207.19415,268.04898C207.99327,268.26443 208.81619,268.73398 209.58365,268.81699C210.46838,268.91266 211.33278,268.94211 212.32248,269.27032C213.11479,269.53308 213.55576,269.68216 214.47832,269.97699C215.37447,270.26337 216.47279,270.66345 217.39015,270.78598C218.28287,270.90521 219.16098,270.82764 219.99432,270.82764C220.79431,270.82764 221.69432,270.82764 222.59431,270.82764C223.49432,270.82764 224.39432,270.82764 225.29431,270.82764C226.19432,270.82764 227.09431,270.82764 227.99432,270.82764C228.79431,270.82764 229.69432,270.82764 230.63715,270.82764C231.51515,270.82764 232.48506,270.96533 233.35149,270.82315C234.22774,270.67935 234.76291,269.97574 235.69432,269.83215C236.62614,269.68851 237.56232,269.82916 238.28899,269.82764C239.35149,269.82538 240.0764,269.36871 240.82765,268.99432C241.53918,268.63971 242.43239,268.66486 243.04698,268.18033C243.69644,267.6683 244.70898,267.82764 245.60498,267.82764C246.47348,267.82764 247.40808,267.95609 248.19565,267.54233C248.95416,267.14383 249.65942,266.56235 250.42499,266.11298C251.23497,265.63754 251.94495,265.36484 252.70898,264.74365C253.34117,264.22968 253.83235,263.3237 254.51515,262.84848C254.98344,262.52255 256.23068,262.2872 256.87299,261.60614C257.5199,260.9202 257.80518,260.3783 258.55832,259.83832C259.1279,259.42996 259.2843,258.4346 260.09415,257.94897C260.82394,257.51135 261.10172,256.59906 261.69882,256.18481C262.48776,255.6375 263.60361,255.99493 264.28983,255.47049C265.04007,254.89709 265.21484,253.94188 266.09433,253.82748C266.79358,253.73653 267.40234,253.11916 267.99432,252.34848C268.46243,251.73909 269.4921,252.15474 270.38364,251.81699C271.11292,251.5407 270.81561,250.3687 271.21564,249.60616C271.5697,248.9312 272.04852,248.00359 272.91031,247.82765C273.68491,247.66953 274.66785,247.39343 274.93716,246.52765C275.20508,245.66638 275.33435,244.83647 275.99432,244.32765C276.75922,243.73793 276.56879,242.73317 277.07965,242.11165C277.68781,241.37177 278.82764,241.66098 278.99432,240.82765C279.16098,239.99432 280.13538,239.79449 280.63715,239.12315C281.14276,238.44669 280.99432,237.39165 280.99881,236.53215L281.41965,235.85298L281.99432,235.30682" id="svg_6" stroke-width="3" stroke="#000" fill="none"/>
  <path t="60844,60970,60995,61011,61035,61059,61155,61211,61235,61235,61291,61315,61329,61332,61363,61363,61387,61387,61453,61667,61678,61715,61763,61780,61811,61835,61867,61899,61908,62027,62027,62155,62251,62267,62291,62325,62355,62387,62579,62627,62661,62867,62886" d="M208.99432,121.82765C207.99432,121.82765 207.07832,121.82765 206.28983,121.82765C205.35149,121.82765 204.46616,121.71508 203.60498,121.82765C202.75114,121.93926 201.87315,122.44118 201.27965,122.91165C200.54109,123.49709 200.1185,124.14317 199.56898,124.80231C199.04169,125.43481 199.07466,126.27412 198.99432,127.12232C198.91061,128.00615 198.56682,128.81424 197.94165,129.47049C197.3495,130.09207 196.60307,130.64499 197.03032,131.39165C197.42549,132.08224 198.63716,131.83304 199.51515,131.82765C200.3837,131.82231 200.93095,131.05295 201.69882,130.83215C202.52486,130.59464 203.4893,130.68884 204.14365,130.21698C204.96196,129.62688 205.42012,129.01711 206.19298,128.54366C206.96318,128.07184 207.06061,127.1955 207.79565,126.74365C208.56822,126.26874 208.99432,125.54232 208.99432,124.62898L208.99432,123.74365L208.99432,122.82765L208.99432,121.94898" id="svg_7" stroke-width="3" stroke="#000" fill="none"/>
  <path t="63867,64027,64083,64131,64259,64283,64283,64283,64293,64456,64515,64515,64528,64549,64603,64643,64930,64938,65066,65092,65093,65122,65125,65125,65226,65357,65379,65427,65442,65451,65466,65732,65776,65776,65819" d="M230.99432,125.82765C231.56898,125.21699 231.77718,124.17953 232.49432,123.84849C233.36372,123.44717 234.32765,123.82765 235.23431,123.82765C235.93182,123.82765 236.99832,123.82765 237.75598,123.82765C238.64699,123.82765 239.61772,123.40258 240.54765,123.86366C241.25484,124.21429 241.90143,124.77515 242.47348,125.32765C243.14996,125.98103 242.60596,126.84747 241.97348,127.32765C241.3192,127.82438 240.40526,127.77354 239.63033,128.26366C238.79265,128.79346 238.34323,129.63495 237.43031,129.81699C236.57509,129.98752 235.69882,129.82765 234.77281,129.82765C233.89432,129.82765 232.9938,129.85855 232.07832,129.82765C231.2312,129.79906 230.34615,129.47049 229.70415,129.12315L229.03598,128.34848" id="svg_8" stroke-width="3" stroke="#000" fill="none"/>
  <path t="68028,68154,68165,68181,68266,68309,68490,68674,68938,69130,69306,69466,69490" d="M199.99432,123.82765C200.99432,123.82765 201.93849,123.33722 202.70898,123.82765C203.2776,124.18959 202.99641,125.39165 202.99432,126.25298C202.99207,127.18033 202.47348,127.80682 201.60498,127.82765L200.99432,127.47048L200.99565,126.62898L201.35149,125.88482" id="svg_9" stroke-width="3" stroke="#000" fill="none"/>
  <path t="70447,70693,70724,70902,71023,71234,71266,71330,71784,71931,71986" d="M234.99432,125.82765C234.99432,126.67832 234.98409,127.58488 234.99432,128.43832C235.00475,129.30701 235.81232,129.82501 235.99298,129.02632C236.19449,128.1355 236.41965,127.39165 236.90898,126.62898L236.99432,125.74365" id="svg_10" stroke-width="3" stroke="#000" fill="none"/>
  <path t="75461,75626,75706,75754,75778,75802,75850,75890,75994,76026,76122,76132,76166,76173,76236,76282,76362,76474,76503,76612,76686,76707,76715,76738,76818,76828,76906,76922,76940,76940,77035,77066,77306,77346,77355,77474,77548,77555,77666,77746,77818,77890,78029,78131,78163,78203,78323,78371,78459,78756,78862,78923,79107,79139,79243,79261" d="M225.99432,147.82765C226.99432,147.82765 227.79607,147.80045 228.69432,147.82765C229.63844,147.85625 229.76353,148.56096 229.99432,149.47049C230.21568,150.34285 230.9516,151.02313 230.99432,151.88033C231.04149,152.82648 230.99432,153.66098 230.99432,154.53215C230.99432,155.39165 231.71953,155.71889 231.98366,156.43832C232.31224,157.3333 231.45644,158.08366 231.11581,158.92749C230.8073,159.69182 230.14365,159.82765 229.23715,159.82765C228.38365,159.82765 227.51515,159.82765 226.63715,159.82765C225.69882,159.82765 224.77281,159.82765 223.89432,159.82765C222.99432,159.82765 222.19432,159.82765 221.27965,159.82765C220.38365,159.82765 219.51515,159.82765 218.63715,159.82765C217.69882,159.82765 216.69263,160.13161 215.94165,159.77049C215.14946,159.38956 215.00475,158.34865 214.99432,157.39165C214.98497,156.5322 214.99432,155.60616 214.99432,154.72781C214.99432,153.85298 214.75391,152.99411 214.99432,152.11299C215.21477,151.30513 215.7236,150.48135 216.34698,149.88481C216.87611,149.37846 216.66328,148.37494 217.27965,147.91298C218.01367,147.36284 219.07832,147.82765 219.99432,147.82765L220.87299,147.82765" id="svg_11" stroke-width="3" stroke="#000" fill="none"/>
  <path t="81579,81732,81810,81852,81854,82330,82580,82602,82602,82962,83317" d="M216.99432,153.82765C217.03032,154.81699 217.79565,154.82765 218.82765,154.82765C219.64165,154.82765 220.01169,153.61597 220.71031,153.91432C221.58992,154.28996 220.99432,155.62766 220.99432,156.47049L220.55832,157.25299" id="svg_12" stroke-width="3" stroke="#000" fill="none"/>
  <path t="84130,84530,84923,84962,85114,85253,85253,85399,85530,85571" d="M227.99432,153.82765C227.01965,154.82765 226.13834,154.83679 225.43031,155.40231C224.70982,155.97778 224.32765,156.82765 224.64615,157.47049L225.35149,158.18031L226.09415,158.70615L226.94165,158.82765" id="svg_13" stroke-width="3" stroke="#000" fill="none"/>
  <path t="94014,94138,94159,94166,94192,94216,94233,94241,94311,94338,94339,94358,94395,94404,94448,94485,94524,94570,94593" d="M175.99432,159.82765C175.57965,159.86365 175.89479,160.6429 176.49432,161.30682C177.09067,161.96722 177.80496,162.25339 178.27832,163.02632C178.75003,163.79659 178.96393,164.55054 179.70415,165.12315C180.28149,165.56978 181.37971,165.58394 182.27832,165.82898C183.00455,166.02702 183.27965,167.02632 183.99432,167.66098L184.82765,167.82765L185.60498,167.82765L186.55832,167.86365" id="svg_14" stroke-width="3" stroke="#000" fill="none"/>
  <path t="100572,100755,100771,100787,100819,100941,100971,100987,101156,101156,101175,101175,101175,101276,101562" d="M248.99432,147.82765C249.99432,147.82765 250.95157,147.8251 250.99432,148.53215C251.04837,149.42603 250.8632,150.46455 251.34698,151.18031C251.83965,151.90921 251.99432,152.71031 251.99432,153.51566C251.99432,154.51031 251.99432,155.30682 251.99432,156.05832L251.99432,157.14499L251.99432,158.04915" id="svg_15" stroke-width="3" stroke="#000" fill="none"/>
  <path t="113086,113443,113451,113499,113515,113659,113675,113675,113691,113707,113771,113851,113883,113899,113917,113923,114027,114059,114155,114187,114209,114219,114275,114286,114339,114453,114539,114555,114565,114579,114588,114651,114828,114839,115003,115011,115020" d="M202.99432,112.82765C203.99432,112.82765 204.87013,112.88219 205.51515,113.32765C206.24939,113.83472 207.29364,113.62533 208.09415,114.04915C208.73642,114.38919 209.05765,115.38558 209.56898,115.86366C210.13583,116.39364 210.91058,116.98195 210.99432,117.82765C211.07329,118.62508 210.80826,119.55473 211.03032,120.42765C211.2473,121.28062 211.99432,121.99432 211.99432,122.82765C211.99432,123.74365 211.99432,124.53215 211.99432,125.47048C211.99432,126.34849 211.99432,127.21699 211.99432,128.18481C211.99432,129.02632 211.99432,129.99432 211.99432,130.82765C211.99432,131.74365 211.99432,132.53215 211.99432,133.47049C211.99432,134.34848 211.99432,135.22765 211.99432,136.12766L211.99432,137.02498L211.99432,137.11865L211.95831,136.19165" id="svg_16" stroke-width="3" stroke="#000" fill="none"/>
  <path t="117253,117531,117558,117587,117620,117674,117683,117758,117786,117858,117858,117874,117963,117974,118042,118098,118098,118180,118288,118376,118402,118483,118522,118538,118691,118770,118787,118850,118997,119010,119035,119234,119338,119466" d="M238.99432,115.82765C238.14365,115.82765 237.23715,115.82765 236.41965,115.82765C235.49432,115.82765 234.55832,115.82765 233.69882,115.82765C232.77281,115.82765 231.89432,115.82765 230.99432,115.82765C230.19432,115.82765 229.44604,116.04341 228.82765,116.66099C228.20975,117.27808 228.17397,118.05157 227.82765,118.82765C227.50056,119.56065 227.13301,120.3612 226.98366,121.22765C226.84006,122.06078 226.07806,122.81528 225.99432,123.66099C225.91774,124.43453 225.99432,125.39165 225.99432,126.26365C225.99432,127.12766 225.99432,128.02765 225.99432,128.92749C225.99432,129.85298 225.99432,130.62898 226.07965,131.54231L226.87282,132.04898L227.05148,132.88033L227.69882,133.47499" id="svg_17" stroke-width="3" stroke="#000" fill="none"/>
  <path t="125637,125850,125858,125889,126002,126012,126186,126218,126218,126386,126419,126466,126538,126570,126595,126595,126674,126706" d="M203.99432,111.82765C202.99432,111.82765 202.19298,111.82765 201.27965,111.82765C200.38365,111.82765 199.35739,111.6872 198.70898,112.11298C197.86415,112.66775 197.42526,113.38344 196.71031,113.82899C196.02539,114.25583 196.11781,115.22352 195.56898,115.79165C195.08263,116.2951 194.70898,117.02765 194.19298,117.62766L193.51515,118.32765L193.05148,119.12315" id="svg_18" stroke-width="3" stroke="#000" fill="none"/>
  <path t="128923,129425,129471,129730,129730,130017,130018,130154,130210,130281" d="M236.99432,115.82765C237.79565,115.82765 238.70898,115.82765 239.56232,115.82765C240.42632,115.82765 241.43698,116.04899 242.14365,116.40232L242.97348,116.80682L243.82765,116.99432L244.27832,117.74232" id="svg_19" stroke-width="3" stroke="#000" fill="none"/>
  <path t="144285,144623,144625,144628,144628,144628,144628,144628,144667,144667,144667,144669,144675,144688,144720,144720,144740,144740,144750,144751,144837,144837,144843,144843,144843,144843,144843,144852,144852,144870,144906,144908,144918,144918,144918,144938,144955,144963,145019,145031,145031,145035,145047,145050,145089,145162" d="M158.99432,177.82765C158.99432,178.82765 158.99432,179.60765 158.99432,180.66098C158.99432,181.44899 158.99432,182.36499 158.99432,182.84848C158.99432,183.82149 158.99432,185.16098 158.99432,185.88365C158.99432,186.70265 158.99432,187.71782 158.99432,188.53215C158.99432,189.47049 158.99432,190.39832 158.99432,191.23665C158.99432,192.22765 158.98116,193.02774 158.99449,194.02748C159.00488,194.80702 159.21115,195.64008 159.49432,196.39015C159.90169,197.46921 159.92146,198.16295 159.95831,198.92899C159.99664,199.7258 159.94087,200.4929 159.99565,201.68633C160.03874,202.62509 160.7733,203.30528 160.99432,204.11299C161.2361,204.99651 161.12892,206.00836 161.43031,206.65298C161.76125,207.36079 162.5627,208.1001 162.87282,208.92749C163.20044,209.80154 162.99432,210.64648 162.99432,211.59431C162.99432,212.30682 162.99432,213.46332 162.99432,214.26366L162.99432,215.12315L162.99432,216.04915L162.99432,216.92749" id="svg_20" stroke-width="3" stroke="#000" fill="none"/>
  <path t="152036,152203,152223,152255,152284" d="M222.99432,90.82765C221.99432,90.82765 221.07965,90.82632 220.82765,89.99432L219.99432,89.82765" id="svg_21" stroke-width="3" stroke="#000" fill="none"/>
  <path t="158526,158554,158570,158586,158618,158645,158659,158675,158693,158693,158698,158707,158715,158730,158753,158764,158779,158788,158797,158805,158826,158839,158856,158874,158890,158907,158923,158938,158957,158957,158970,158994,159074,159090,159107,159122,159122,159274" d="M224.99432,303.82764C224.99432,305.52765 224.99432,306.52765 224.99432,307.39166C224.99432,308.26364 224.99423,309.21698 224.99432,310.11298C224.99442,310.92764 225.23643,311.7814 225.64165,312.52765C226.05493,313.28876 225.75146,314.26248 225.99883,315.12314C226.21953,315.89102 226.6653,316.51129 227.01515,317.30682C227.32828,318.01886 227.80707,318.55951 228.03032,319.42764C228.24953,320.28003 228.99432,320.99432 228.99432,321.853C228.99432,322.629 228.99432,323.66098 228.99432,324.43832C228.99432,325.32764 228.86162,326.23816 228.99883,327.12766C229.1425,328.05902 229.64299,328.65579 230.04698,329.52765C230.43233,330.35928 230.96573,331.12628 230.99432,332.02765C231.02287,332.92719 230.99432,333.82764 230.99432,334.62766L230.99432,335.54233" id="svg_22" stroke-width="3" stroke="#000" fill="none"/>
  <path t="161884,162015,162033,162042,162067,162082,162105,162116,162137,162162,162170,162180,162205,162210,162220,162257,162266,162283,162283,162315,162337,162391,162401,162409,162426,162445,162461,162473,162618,162627,162852" d="M196.99432,305.82764C198.79431,305.82764 199.69434,305.82236 200.55832,305.82764C201.43036,305.83298 202.39774,306.10815 202.82765,306.82764C203.28802,307.59811 204.09415,307.82764 204.94165,307.82764C205.69882,307.82764 206.69432,307.82764 207.59431,307.82764C208.47348,307.82764 209.35149,307.82834 210.29431,307.82764C211.19432,307.82697 211.9447,307.58624 212.63715,307.18033C213.386,306.74133 214.38365,306.82764 215.27965,306.82764C216.19298,306.82764 217.04698,306.82764 217.99432,306.82764C218.82765,306.82764 219.69882,306.82764 220.55832,306.82764L221.49432,306.80682L222.01965,306.25299L222.71031,305.74365" id="svg_23" stroke-width="3" stroke="#000" fill="none"/>
  <path t="163906,164338,164363,164388,164395,164410,164451,164452,164505,164506,164538,164556,164570,164588,164588,164657,164673,164690,164722,164753,164801,164811,164834,164857,164868,164913,164946,164982,165090,165090,165129,165147,165217" d="M194.99432,305.82764C193.16098,305.99432 192.99432,306.82764 192.99432,307.70633C192.99432,308.53217 192.99432,309.39166 192.99432,310.39566C192.99432,311.12231 192.99432,312.16098 192.99432,312.97699C192.99432,313.91031 192.81847,314.84546 192.99449,315.70648C193.17447,316.58682 193.53876,317.19458 194.21565,318.04898C194.75311,318.72739 194.99432,319.47498 194.99432,320.34848C194.99432,321.21698 194.99432,322.18481 194.99432,323.02631C194.99432,323.91165 195.31612,324.96555 194.82765,325.66098C194.32533,326.37616 193.99432,327.02631 193.99432,327.88031C193.99432,328.82764 193.90898,329.62766 193.49432,330.32764L193.05148,331.12766L192.99432,332.02765" id="svg_24" stroke-width="3" stroke="#000" fill="none"/>
  <path t="180634,180799,180803,180811,180811,180836,180859,180859,180879,180879,180890,180890,180992,180992,180992,180995,180995,180997,180997,180997,181000,181004,181004,181035,181052,181070,181076,181077,181093,181220,181220,181220,181221,181226,181226,181226,181226,181226,181226,181226,181226,181226,181305,181306,181306,181306,181306,181306,181306,181306,181306,181353,181354,181354,181354,181361,181362,181392,181450,181453,181453,181453,181458,181459,181467,181468,181468,181475,181475,181475,181495,181496,181496,181496,181524,181524,181524,181524,181524,181529,181529,181529,181529,181536,181536,181536,181537,181542,181542,181555,181555,181575,181576,181588,181596,181596,181600,181706,181706,181721,181731,181731,181745,181754,181754,181754,181773,181773,181774,181778,181778,181778,181789,181789,181798,181801,181825,181825,181851,181851,181857,181891,181908,181908,181923,181927,181942,181942,182025,182036,182037,182042,182051,182057,182058,182058,182068,182069,182069,182074,182074,182074,182090,182090,182108,182108,182109,182111,182111,182112,182128,182137,182145,182169,182177,182178,182188,182188,182188,182207,182207,182207,182210,182210,182210,182210,182219,182220,182220,182220,182234,182234,182239,182239,182242,182261,182262,182284,182285,182285,182302,182323,182324,182340,182346,182354,182354,182354,182372,182373,182373,182374,182374,182378,182379,182379,182380,182380,182380,182390,182390,182390,182390,182390,182395,182395,182395,182404,182430,182430,182430,182433,182468,182469,182473,182474,182483,182491,182499,182507,182515,182523,182535,182535,182545,182545,182554,182579,182586,182603,182610,182610,182641,182657,182657,182665,182666,182674,182691,182702,182719,182720,182754,182755,182769,182770,182801,182801,182801,182809,182836,182853,182858,182859,182915,182946,182947,182978,183002,183026,183027,183043,183062,183063,183068,183069,183100,183118,183118,183118,183136,183136,183138,183139,183159,183166,183167,183173,183205,183234,183237,183237,183250,183250,183274,183284,183285,183290,183291,183301,183307,183307,183322,183322,183339,183340,183340,183343,183344,183360,183360,183360,183365,183365,183365,183365,183370,183371,183388,183388,183405,183406,183410,183427,183427,183437,183437,183438,183445,183453,183454,183474,183475,183475,183488,183501,183506,183521,183522,183539,183602,183602,183611,183612,183618,183651,183651,183654,183655,183655,183655,183744,183748,183766,183779,183779,183787,183788,183824,183825,183827,183827,183827,183827,183835,183835,183851,183858,183859,183874,183903,184000,184000,184001,184001,184098,184098,184099,184099,184099,184099,184099,184100,184100,184115,184115,184117,184118,184118,184118,184151,184151,184152,184157,184157,184157,184170,184171,184171,184171,184199,184202,184202,184224,184224,184230,184231,184238,184238,184244,184266,184276,184286,184286,184292,184300,184306,184307,184319,184329,184382,184388,184388,184404,184404,184411,184421,184427,184428,184455,184455,184455,184458,184459,184459,184466,184474,184475,184484,184484,184484,184510,184510,184515,184516,184516,184516,184522,184534,184584,184586,184586,184587,184605,184606,184606,184606,184606,184621,184621,184642,184646,184647,184662,184687,184687,184699,184706,184708,184715,184732,184744,184744,184745,184745,184749,184750,184750,184756,184765,184770,184791,184840,184841,184844,184846,184851,184851,184867,184875,184883,184899,184906,184916,184916,184923,184923,184941,184950,184950,184964,184964,184973,184973,185011,185012,185020,185021,185021,185021,185022,185026,185027,185040,185043,185051,185052,185059,185059,185067,185067,185079,185081,185084,185107,185109,185122,185151,185152,185168,185169,185172,185186,185203,185210,185226,185239,185239,185258,185279,185286,185286,185309,185357,185358,185369,185373,185392,185403,185418,185426,185427,185481,185482,185520,185546,185588,185614,185615,185619,185698,185738,185754,185777,185778,185841,185870,185870,185904,185919,185943,185988,186022,186083,186141,186141,186211,186212" d="M0.71307,76.04987C2.51307,76.04987 3.34907,76.04987 4.19707,76.04987C5.0604,76.04987 6.07707,76.04987 6.91573,76.04987C7.68373,76.04987 8.7184,76.04987 9.4624,76.04987C10.57023,76.04987 11.32773,76.04987 12.20507,76.04987C13.10373,76.04987 13.74107,76.04987 15.01957,76.04987C15.53173,76.04987 16.62907,76.04987 17.19223,76.04987C18.29257,76.04987 18.80773,76.04987 20.40107,76.04987C21.08807,76.04987 22.01307,76.04987 22.91307,76.04987C23.81307,76.04987 24.71307,76.04987 25.51307,76.04987C26.41307,76.04987 27.31573,76.04987 27.99707,76.04987C28.49923,76.04987 29.1344,76.04987 30.87973,76.04987C32.0184,76.04987 33.30907,76.04987 34.71373,76.04987C36.1944,76.04987 37.71307,76.04987 39.23173,76.04987C40.7124,76.04987 42.11707,76.04987 44.5464,76.04987C45.50473,76.04987 46.29307,76.04987 46.9314,76.04987C47.43973,76.04987 47.83807,76.04987 48.1464,76.04987C48.38473,76.04987 48.57307,76.04987 48.87973,76.04987C49.0344,76.04987 49.19707,76.04987 49.5384,76.04987C50.5464,76.04987 51.40857,76.04987 52.21307,76.04987C53.1344,76.04987 54.0464,76.04987 54.96373,76.04987C55.70773,76.04987 56.74507,76.04987 57.5184,76.04987C58.48373,76.04987 59.25473,76.04987 60.11573,76.04987C61.01307,76.04987 61.91307,76.04987 62.81307,76.04987C63.71307,76.04987 64.62656,76.04987 65.27557,76.04987C66.36906,76.04987 67.21307,76.04987 68.16373,76.04987C69.1784,76.04987 69.69223,76.04987 70.6979,76.04987C72.0464,76.04987 72.7744,76.04987 73.3904,76.04987C74.2094,76.04987 75.35574,76.04987 76.0184,76.04987C77.0624,76.04987 77.74506,76.04987 78.9424,76.04987C79.6714,76.04987 80.71307,76.04987 81.5024,76.04987C82.5464,76.04987 83.40857,76.04987 84.2339,76.04987C85.19707,76.04987 85.88773,76.04987 86.9559,76.04987C87.81323,76.04987 88.5984,76.04987 89.5384,76.04987C90.5464,76.04987 91.41355,76.12305 92.25473,76.02904C93.26936,75.91563 93.99406,75.66694 94.70773,75.28821C95.6161,74.80615 95.97723,74.10643 96.7664,73.61921C97.68137,73.05432 98.38766,73.09438 99.35506,73.05888C100.44786,73.01878 101.15057,73.04987 102.11307,73.04987C103.01756,73.04987 103.87973,73.04987 104.71307,73.04987C105.69157,73.04987 106.51173,73.04987 107.41306,73.04987C108.34907,73.04987 109.19707,73.04987 110.0604,73.04987C110.9559,73.04987 111.91306,73.04987 112.81323,73.04987C113.5984,73.04987 114.5384,73.04987 115.5464,73.04987C116.3024,73.04987 117.21307,73.04987 118.1344,73.04987C119.0464,73.04987 119.7229,73.04987 120.4984,73.04987C121.79173,73.04987 122.48773,73.04987 123.39706,73.04987C124.39706,73.04987 125.21307,73.04987 126.02907,73.04987C127.02907,73.04987 127.71307,73.04987 128.87973,73.04987C129.66573,73.04987 130.48773,73.04987 131.5464,73.04987C132.2514,73.04987 133.05141,73.04987 134.07707,73.04987C135.01306,73.04987 135.91307,73.04987 136.81306,73.04987C137.71307,73.04987 138.42107,73.04987 139.47707,73.04987C140.38907,73.04987 141.03706,73.04987 142.21307,73.04987C143.03706,73.04987 143.76506,73.04987 144.76907,73.04987C145.42107,73.04987 146.14507,73.04987 146.91707,73.04987C148.11273,73.04987 149.29173,73.04987 150.04106,73.04987C150.7424,73.04987 151.94107,73.04987 152.65057,73.04987C153.69157,73.04987 154.51173,73.04987 155.34906,73.04987C156.37474,73.04987 157.17473,73.04987 158.13423,73.04987C158.92773,73.04987 159.70323,73.04987 160.7424,73.04987C161.71307,73.04987 162.51306,73.04987 163.41307,73.04987C164.25473,73.04987 165.25623,73.04987 165.99573,73.04987C166.87923,73.04987 167.87973,73.04987 168.60106,73.04987C169.37041,73.04987 170.19574,73.04987 171.08507,73.04987C172.55574,73.04987 173.08107,73.04987 174.16373,73.04987C174.71307,73.04987 175.26241,73.04987 176.34506,73.04987C177.8699,73.04987 178.34106,73.04987 179.23039,73.04987C180.05574,73.04987 180.82524,73.03104 182.22774,73.05254C182.87726,73.06248 183.82866,73.09353 184.71307,73.38321C185.63063,73.68375 186.15685,74.07696 186.9424,74.48187C187.88686,74.9687 188.87973,75.04987 189.71307,75.04987C190.69157,75.04987 191.40857,75.04987 192.31306,75.04987C193.21307,75.04987 194.11307,75.04987 195.01306,75.04987C195.91307,75.04987 196.81306,75.04987 197.71307,75.04987C198.5984,75.04987 199.53841,75.04987 200.22906,75.04987C201.19223,75.04987 202.11307,75.04987 203.01306,75.04987C203.91307,75.04987 204.81323,75.04987 205.5984,75.04987C206.53841,75.04987 207.5464,75.04987 208.33839,75.04987C209.19707,75.04987 210.06039,75.04987 211.07707,75.04987C211.91307,75.04987 212.8156,75.11726 213.71307,75.04987C214.47667,74.99255 215.35316,74.32932 215.88773,73.90054C216.67406,73.26981 217.52853,73.02348 218.48106,72.76587C219.2178,72.56661 219.92874,72.24859 220.89873,72.10704C221.90404,71.96033 222.87366,72.24805 223.71307,71.88321C224.39761,71.58569 224.91046,70.58411 225.71307,70.21654C226.45578,69.8764 227.41307,70.04987 228.2339,70.04987C229.19707,70.04987 230.06401,70.12608 230.9604,70.04537C231.89017,69.96165 232.50565,69.53172 233.5464,69.21654C234.28519,68.99281 235.26343,69.06841 236.25591,68.82854C236.98189,68.65307 237.75502,68.35327 238.7914,68.17137C239.46155,68.05375 240.5464,68.04987 241.3024,68.04987C242.2339,68.04987 243.24141,68.26617 244.00323,67.99271C244.84122,67.69189 245.32368,67.05521 246.2339,67.04987C247.19838,67.04422 247.92374,67.04987 248.9129,67.04987C249.69223,67.04987 250.69157,67.04987 251.71307,67.04987C252.47023,67.04987 253.36574,67.04987 254.22906,67.04987C255.21307,67.04987 256.03439,67.04987 256.88773,67.04987C257.83173,67.04987 258.58008,67.04987 259.47708,67.04987C260.38907,67.04987 261.03708,67.04987 262.21307,67.04987C263.19223,67.04987 264.04639,67.04987 264.99573,67.04987C265.5704,67.04987 266.87973,67.04987 267.59439,67.04987C268.31708,67.04987 269.34607,67.04987 270.21307,67.04987C271.17139,67.04987 272.03439,67.04987 272.88773,67.04987C273.82907,67.04987 274.59708,67.04987 275.53839,67.04987C276.54639,67.04987 277.37439,67.04987 278.25574,67.04987C278.96375,67.04987 279.94507,67.04987 280.89874,67.04987C281.9144,67.04987 282.59839,67.04987 283.53839,67.04987C284.54639,67.04987 285.40857,67.04987 286.31308,67.04987C287.21307,67.04987 288.01758,67.04987 289.03439,67.04987C289.71307,67.04987 290.69156,67.04987 291.71307,67.04987C292.47025,67.04987 293.36572,67.04987 294.22906,67.04987C295.19223,67.04987 296.03107,67.04987 296.8544,67.04987C297.69839,67.04987 298.42374,67.04987 299.21307,67.04987C300.37708,67.04987 301.32706,67.04987 302.27039,67.04987C303.12372,67.04987 304.03439,67.04987 304.88773,67.04987C305.82907,67.04987 306.59708,67.04987 307.5704,67.04987C308.2319,67.04987 309.35574,67.04987 310.0184,67.04987C311.06241,67.04987 311.74506,67.04987 312.94107,67.04987C313.85574,67.04987 314.69156,67.04987 315.71307,67.04987C316.51306,67.04987 317.41306,67.04987 318.25473,67.04987C319.25739,67.04987 320.0704,67.04987 320.82239,67.04987C321.27939,67.04987 323.04639,67.04987 323.78391,67.04987C324.5864,67.04987 325.4389,67.04987 326.32639,67.04987C327.23389,67.04987 328.14639,67.04987 329.04889,67.04987C329.92639,67.04987 331.54639,67.04987 332.26205,67.04987C332.91174,67.04987 333.49939,67.04987 334.02905,67.04987C334.93039,67.04987 336.21307,67.04987 336.85507,67.04987C337.76508,67.04987 338.76773,67.04987 339.4104,67.04987C340.10907,67.04987 341.54639,67.04987 342.22507,67.04987C343.15057,67.04987 343.94107,67.04987 344.90323,67.04987C345.87973,67.04987 346.71307,67.04987 347.69174,67.04987C348.46573,67.04987 349.37024,67.04987 350.11755,67.04987C351.11172,67.04987 352.05591,67.04987 352.9559,67.04987C353.91306,67.04987 354.81308,67.04987 355.71307,67.04987C356.51306,67.04987 357.41306,67.04987 358.23389,67.04987C359.19705,67.04987 359.88773,67.04987 360.9559,67.04987C361.91306,67.04987 362.81308,67.04987 363.71307,67.04987C364.47025,67.04987 365.36572,67.04987 366.22906,67.04987C367.19223,67.04987 368.01758,67.04987 369.03458,67.04987C369.73389,67.04987 370.71307,67.04987 371.52374,67.04987C372.39841,67.04987 373.39572,67.04987 374.19223,67.04987C374.94373,67.04987 376.05173,67.04987 377.03458,67.04987C377.73389,67.04987 378.71307,67.04987 379.51306,67.04987C380.31308,67.04987 381.32205,67.04987 382.22739,67.04987C383.04639,67.04987 384.01389,67.04987 384.69223,67.04987C385.65973,67.04987 386.65707,67.04987 387.71307,67.04987C388.38507,67.04987 389.48639,67.04987 390.29639,67.04987C390.9364,67.04987 392.04639,67.04987 392.87839,67.04987C393.7424,67.04987 394.59039,67.04987 395.37439,67.04987C396.57175,67.04987 397.39508,67.04987 398.23389,67.04987C399.19705,67.04987 399.88773,67.04987 400.9559,67.04987C401.9144,67.04987 402.59839,67.04987 403.53839,67.04987C404.54639,67.04987 405.40857,67.04987 406.31308,67.04987C407.14508,67.04987 408.21307,67.04987 408.76639,67.04987C409.73389,67.04987 410.41223,67.04987 411.66989,67.04987C412.43039,67.04987 413.22507,67.04987 414.3024,67.04987C415.21307,67.04987 416.11307,67.04987 417.01306,67.04987C417.9144,67.04987 418.59839,67.04987 419.54907,67.04987C420.31439,67.04987 421.30856,67.04987 422.22772,67.04987C423.19223,67.04987 424.11307,67.04987 425.01306,67.04987C425.91306,67.04987 426.81308,67.04987 427.71307,67.04987C428.47025,67.04987 429.36572,67.04987 430.22906,67.04987C431.21307,67.04987 432.03458,67.04987 432.92374,67.04987C433.9129,67.04987 434.6929,67.01323 435.69174,67.05004C436.46729,67.07863 437.3721,67.43998 438.03174,67.62454C439.19635,67.95038 439.9631,67.97664 440.77841,68.01387C441.60062,68.05141 442.37573,68.0492 443.57175,68.04987C444.39508,68.05033 445.21307,68.04987 446.12372,68.04987C447.03458,68.04987 447.92374,68.04987 448.9129,68.04987C449.69223,68.04987 450.69174,68.04987 451.46573,68.04987C452.36572,68.04987 453.22906,68.04987 454.19223,68.04987C455.01306,68.04987 455.91306,68.04987 456.81308,68.04987C457.71307,68.04987 458.59839,68.04987 459.53839,68.04987C460.22906,68.04987 461.3024,68.04987 462.11307,68.04987C463.01306,68.04987 463.91306,68.04987 464.81308,68.04987C465.71307,68.04987 466.48935,67.92345 467.31308,67.4752C468.103,67.04537 469.03439,67.04987 469.88773,67.04987C470.82773,67.04987 471.71307,67.04987 472.51306,67.04987C473.41306,67.04987 474.3327,67.05182 475.11307,66.62454C475.93561,66.17417 476.86197,66.21986 477.71307,65.88321C478.41571,65.60528 479.19434,65.09702 480.06039,65.05437C480.95483,65.01034 481.91306,65.04987 482.81308,65.04987C483.71307,65.04987 484.51306,65.04987 485.41306,65.04987C486.31308,65.04987 487.21307,65.04987 488.12372,65.04987C489.03439,65.04987 489.88773,65.04987 490.82773,65.04987C491.71307,65.04987 492.51306,65.04987 493.41306,65.04987C494.31308,65.04987 495.21307,65.04987 496.11307,65.04987C497.01306,65.04987 497.9144,65.04987 498.87973,65.04987L499.53839,65.06054L500.54639,65.21654L501.3024,65.62454" id="svg_25" stroke-width="3" stroke="#000" fill="none"/>
  <polyline timestamps="195548,196842,196882" startTime="1501917811498" id="svg_26" points="221.713066464497,169.04987279279734 222.5143997978303,169.04987279279734 223.42773313116362,169.13520612613067 " stroke-linecap="round" stroke-width="3" stroke="#000" fill="none"/>
  <path t="201116,201514,201571,201653,201884,202219,202242,202283,202315,202338,202359,202836,203039,203039,203146,203146" d="M222.71307,170.04987C222.74907,169.06055 223.5488,168.85426 224.41307,169.10704C225.2907,169.36372 226.01604,170.02017 225.9104,170.04987C225.04652,170.29265 224.11307,170.04987 223.21307,170.04987C222.31306,170.04987 221.40857,170.04987 220.5464,170.04987L219.71307,170.04987L218.73457,170.04987L217.9144,170.04987" id="svg_27" stroke-width="3" stroke="#000" fill="none"/>
 </g>
</svg>