<svg width="500.00000000000006" height="332.409972299169" xmlns="http://www.w3.org/2000/svg" xmlns:svg="http://www.w3.org/2000/svg" xmlns:xlink="http://www.w3.org/1999/xlink">
 <!-- Created with SVG-edit - http://svg-edit.googlecode.com/ -->
 <g display="inline" class="layer">
  <title>Layer 1</title>
  <path t="0,43,51,115,139,148,172,175,175,191,203,208,223,235,235,247,251,267,279,287,295,303,319,343,363,371,379,403,423,440,467,507,551,551,588,620,635,643,656,663,687,687,695,699,712,715,731,747,747,759,767,775,791,807,807,815,835,851,867,891,891,911,947,963,995,1031,1040,1047,1056,1063,1075,1108,1135,1159,1167,1176,1179,1187,1195,1204,1211,1212,1220" d="M258.37109,100.70499C258.37109,99.85432 258.3038,99.0681 257.79642,98.70499C257.25146,98.315 256.72375,97.70724 255.82942,97.70499C254.88843,97.70262 254.0798,97.75088 253.14977,97.70499C252.28394,97.66227 251.77612,96.88477 250.87109,96.70499C249.94633,96.52129 249.18576,96.70499 248.25777,96.70499C247.31842,96.70499 246.39642,96.70499 245.53777,96.70499C244.66576,96.70499 243.70442,96.70499 242.87109,96.70499C242.01843,96.70499 241.0871,96.70499 240.20042,96.70499C239.37109,96.70499 238.41277,96.70499 237.53777,96.70499C236.65509,96.70499 236.35461,97.33004 235.87109,97.70499C235.35236,98.10725 235.37109,99.03832 235.37109,99.85432C235.37109,100.79032 235.59224,101.29739 236.20442,101.87165C236.83058,102.45902 237.25795,102.78411 237.94576,103.27966C238.65144,103.78808 239.67763,103.2988 240.41927,103.81932C241.09644,104.29459 241.21893,105.58176 241.94576,105.70499C242.85808,105.85966 243.81377,105.70499 244.52043,105.70499C245.53777,105.70499 246.29921,105.85903 247.01843,106.35232C247.72287,106.83546 248.70442,106.70499 249.52043,106.70499C250.45377,106.70499 251.38176,106.70499 252.24959,106.70499C253.0871,106.70499 253.9391,106.70499 254.8031,106.70499C255.79643,106.70499 256.91949,106.96481 257.37109,106.42099C257.84076,105.85543 258.37,105.66332 258.37109,104.85432C258.37244,103.87566 259.19016,104.15859 260.03775,103.70499C260.56757,103.42144 260.37109,102.27966 260.37109,101.35232C260.37109,100.53432 261.00412,99.4089 260.2991,98.72632C259.73917,98.18423 258.84796,98.21308 258.08575,97.79032C257.28241,97.34474 256.27094,97.70499 255.48576,97.70499L254.54576,97.69432" id="svg_1" stroke-width="3" stroke="#000" fill="none"/>
  <path t="3038,3071,3079,3123,3123,3139,3156,3163,3180,3183,3191,3199,3207,3216,3223,3228,3243,3251,3279,3279,3287,3295,3304,3311,3327,3339,3363,3372,3387,3387,3399,3416,3440,3448,3456,3460,3491,3492,3519,3559,3595,3611,3663,3671,3703,3755,3772,3772,3791,3819,3867,3895,3903,3911,3951,3951,3979,4015,4063,4072,4072,4099,4107,4115,4131,4151,4187,4195,4227,4227,4247,4263,4279,4307,4307,4347,4375,4392,4399,4407,4443,4495,4503,4571,4819,4827,4879,4907,4907,4923,4931,4947,4963,4973,4976,4983,4984,5008,5031,5036,5095" d="M158.37109,126.70499C158.37093,125.82648 157.51573,125.74613 157.37109,124.99966C157.23286,124.28625 156.85124,123.72775 156.36043,123.27966C155.77138,122.74187 155.40019,122.07572 154.66576,121.75765C153.76093,121.36578 152.91891,121.31588 152.39192,120.66332C151.88326,120.03346 151.84727,119.31721 151.37242,118.61965C150.85756,117.86333 150.85149,117.05204 150.03777,116.53832C149.4075,116.14042 148.40721,115.72189 148.37109,114.85432C148.3334,113.94878 147.80574,113.60506 147.37109,112.87165C146.94623,112.15475 146.58521,111.39901 146.01843,110.76215C145.51584,110.19741 145.37109,109.70499 145.37109,108.66898C145.37109,107.76215 145.38565,106.78888 144.66576,106.70499C143.71089,106.5937 143.37109,106.13032 143.37109,105.26232C143.37109,104.41032 143.37109,103.42099 143.37109,102.53832C143.37109,101.66898 143.37109,100.79032 143.37109,99.99966C143.37109,99.03832 143.00395,98.03674 143.39243,97.27966C143.784,96.51654 144.86533,96.76904 145.37109,96.20499C145.77957,95.74944 146.79533,96.04921 147.42827,95.59065C148.09492,95.10766 148.21849,93.82825 148.9391,93.70499C149.79073,93.55931 150.72375,93.70499 151.65509,93.70499C152.53777,93.70499 153.25301,94.14713 153.36043,94.85432C153.48955,95.70437 154.61989,95.08322 155.29909,95.71565C155.9364,96.30908 155.92725,97.16913 156.37126,97.92632C156.77745,98.61901 157.34372,99.03878 157.37109,99.85432C157.3997,100.70643 157.93428,100.82432 158.37109,101.58349C158.79495,102.32015 159.85982,102.18809 160.37109,102.98899C160.77435,103.62067 161.37109,103.77699 161.37109,104.55566C161.37109,105.53432 161.4693,106.28754 161.94576,106.74099C162.52625,107.29346 162.46373,108.77848 161.87109,108.68415C161.08226,108.55859 160.79643,107.70499 159.92842,107.70499C159.07643,107.70499 158.63878,108.26662 157.94576,108.66898C157.14319,109.13494 155.90219,108.24043 155.3756,108.81932C154.77882,109.47536 154.95146,110.57368 154.07643,110.69598C153.15865,110.82426 152.28577,110.79032 151.72375,111.35232L151.37109,112.13032" id="svg_2" stroke-width="3" stroke="#000" fill="none"/>
  <path t="5679,5735,5778,5787,5798,5814,5855,5875,5883,5891,5899,5927,5967,5995,6011,6011,6027,6035,6040,6055,6095,6099,6107,6132,6140,6155,6167,6175,6183,6183,6191,6215,6251,6259,6275,6276,6291,6311,6319,6363,6379,6379,6395,6404,6431,6447,6559,6686,6687,6747,6763,6763,6775,6812,6815,6827,6827,6843,6851,6867,6876,6879,6895,6895,6903,6911,6920,6935,6963,6979,6995,7039,7039,7071,7091,7111,7151,7159,7167,7315,7383,7383,7399,7427,7451,7451,7467,7479,7495,7511,7527,7540,7540,7562,7607,7607,7615,7647,7691,7759,7967,7987,8023,8032,8059,8067,8072,8095,8131,8179,8179,8232,8240,8267,8384,8395,8411,8471,8507,8507,8531,8547,8567,8567,8599,8599,8627,8650,8691,8712,8719,8726,8740,8740,8810,8839,8863,8901,8916,8927,8951,8960,8979,9011,9027,9035,9040,9060,9063,9073,9079,9093,9107,9123,9140,9162,9163,9167,9182,9207,9207,9215,9251,9267,9279,9279,9294,9304,9319,9331,9339,9362,9371,9394,9407,9415,9415,9431,9463,9463,9475,9483,9499,9515,9551,9679,9679,9732,9775,9799,9807,9812,9819" d="M161.37109,107.70499C161.37109,108.58349 160.91748,109.52407 161.37109,110.37165C161.65465,110.90147 162.19733,111.28369 162.72375,111.70499C163.2579,112.13245 163.54176,112.70432 164.37109,112.70499C165.32942,112.70576 166.24959,112.70499 167.0871,112.70499C167.94576,112.70499 168.95833,112.87104 169.66576,112.70499C170.43741,112.52386 170.80659,111.72299 171.76042,111.70499C172.65494,111.6881 173.48543,111.70499 174.37109,111.70499C175.29909,111.70499 176.08383,111.66192 176.85027,111.20499C177.66411,110.7198 178.51587,110.89728 179.37109,110.66332C180.19753,110.43724 180.17616,109.11718 180.94576,108.72632C181.70445,108.34099 182.76375,108.74724 183.35027,108.20499C183.85088,107.74215 184.66629,107.73662 185.59242,107.70499C186.42973,107.67638 186.9615,106.88539 187.79643,106.70499C188.68394,106.51322 189.79628,107.14864 190.37109,106.48365C190.88248,105.89204 191.38176,105.70499 192.28577,105.70499C193.0871,105.70499 193.37109,104.99966 193.37109,104.27299C193.37109,103.27966 193.81949,102.79469 194.52043,102.70499C195.3923,102.59341 195.54622,101.74584 196.01843,101.05766C196.51067,100.34028 196.1658,99.28728 196.65509,98.70365C197.16992,98.08955 197.32735,97.31679 197.79643,96.73032C198.31079,96.08726 199.02139,95.94463 199.66576,95.59065C200.52313,95.11967 200.71674,94.21194 201.24959,93.48365C201.73985,92.81358 201.77763,92.45871 202.37109,91.79032C202.84985,91.25112 204.07643,91.70499 204.8031,91.70499C205.79643,91.70499 206.72375,91.70499 207.59242,91.70499C208.48543,91.70499 209.61086,91.08249 210.29909,91.70499C210.83278,92.18771 209.61894,92.44839 208.9391,92.70499C208.23112,92.9722 207.7502,93.41669 207.37109,94.03832C206.94623,94.73499 207.05782,95.08396 206.40709,95.71565C205.78386,96.32065 205.83417,96.81822 205.37109,97.35232C204.93312,97.85747 203.68867,97.49575 203.37109,98.13032C202.96471,98.94231 203.53271,99.99004 202.94576,100.63299C202.48997,101.13223 202.36897,101.92632 202.37109,102.79032C202.37335,103.70499 203.24959,103.70499 204.07643,103.70499C205.03777,103.70499 206.06,103.65396 206.31393,104.41032C206.62044,105.32327 206.87109,105.70499 207.79643,105.70499C208.70442,105.70499 209.7085,105.31275 210.37109,105.87165C210.98268,106.38752 211.79565,106.13716 212.37109,106.74099C212.9967,107.39747 211.4926,107.70499 210.65509,107.70499C209.8031,107.70499 208.9391,107.70499 207.94576,107.70499C207.0871,107.70499 206.31593,108.01256 205.65509,108.42099C204.89114,108.89314 204.07643,108.70499 203.01843,108.70499C202.14977,108.70499 201.01471,108.06401 200.37109,108.71399C199.77888,109.31206 200.40831,110.58096 199.8031,110.70499C198.9567,110.87843 197.79237,110.53123 197.37109,111.05766C196.94363,111.5918 196.01247,111.09235 195.38176,111.74099C194.74954,112.39119 194.63455,112.46204 193.70442,112.70499C192.8629,112.92479 192.0589,113.09547 191.40709,113.72632C190.81021,114.304 191.17679,115.58215 190.34976,115.70499C189.52943,115.82682 188.82259,115.88424 188.28577,116.42099C187.69,117.01667 186.83556,116.81944 186.37109,117.35232C185.92809,117.8606 184.75797,117.50392 184.07643,117.76215C183.27437,118.06606 182.61917,118.58606 182.37093,119.14765C182.0257,119.92866 181.75047,120.42834 180.94576,120.70499C180.26965,120.93742 180.03693,121.6679 179.22176,121.70499C178.28285,121.7477 177.73141,122.37144 176.87109,122.70499C176.09363,123.00642 175.45987,123.66225 174.66576,123.70499C173.70581,123.75664 172.76968,123.3046 171.94576,123.72632C171.18225,124.11712 171.56166,125.39342 170.87109,125.70499C170.01183,126.09267 169.22043,125.65302 168.20442,125.70499C167.36916,125.74771 167.35045,126.69456 166.45642,126.70499C165.65515,126.71432 164.66576,126.70499 163.9391,126.70499C162.94576,126.70499 162.01843,126.70499 161.14977,126.70499L160.26126,126.70499L159.37109,126.70499L158.4431,126.70499" id="svg_3" stroke-width="3" stroke="#000" fill="none"/>
  <path t="10581,10615,10639,10659,10659,10676,10683,10700,10716,10724,10724,10728,10735,10751,10759,10772,10772,10787,10795,10811,10836,10839,10840,10862,10862,10878,10890,10907,10930,10940,10947,10967,10999,11019,11027,11058,11059,11124,11223,11323,11335,11439,11455,11495,11515,11515,11547,11566,11583,11598,11627,11635,11643,11695,11719,11823,11823,11875,11891,11907,11943,11951,11958" d="M165.37109,126.70499C165.37109,127.58349 165.3114,128.44327 165.65509,129.27298C165.966,130.02357 166.37109,130.92632 166.37109,131.78899C166.37109,132.67966 166.37109,133.58382 166.37109,134.41483C166.37109,135.22232 166.51805,136.05382 167.01843,136.75766C167.51477,137.45583 167.29645,138.37875 167.65509,139.27298C167.95752,140.02704 168.37109,140.87166 168.37109,141.73032C168.37109,142.61966 168.37109,143.53831 168.37109,144.41032C168.37109,145.13699 168.81723,145.91948 169.52043,146.27965C170.37538,146.71754 169.98019,147.72147 170.37109,148.42099C170.74187,149.08449 171.35309,149.55515 171.37109,150.53432C171.38612,151.35219 171.36841,152.28229 171.79643,152.71565C172.35692,153.28313 172.37109,154.14766 172.37109,154.99965C172.37109,155.98898 171.59492,157.64783 172.37109,157.64783C173.27794,157.64783 171.45497,156.69064 171.37109,157.42099C171.27312,158.27403 171.37109,159.14766 171.37109,159.99965C171.37109,160.98898 171.37109,161.87166 171.37109,162.76216C171.37109,163.66899 172.2872,163.69043 172.37109,164.41032C172.48238,165.36519 172.95033,165.62646 173.37109,166.13033C173.79692,166.64024 174.52061,166.72362 175.45642,166.70499C176.36096,166.68698 176.37109,165.76216 177.0871,165.53432L177.35027,164.70499L177.37109,163.74666" id="svg_4" stroke-width="3" stroke="#000" fill="none"/>
  <path t="12501,12595,12603,12635,12663,12699,12751,12751,12791,12807,12927,13015,13023" d="M176.37109,153.70499C176.37109,154.55565 176.37109,155.46199 176.37109,156.27965C176.37109,157.20499 176.37109,158.13033 176.37109,159.03831C176.37109,159.85432 176.45642,160.70499 177.36977,160.70499L178.24959,160.70499L178.37109,159.99965L178.37109,159.03831" id="svg_5" stroke-width="3" stroke="#000" fill="none"/>
  <path t="13925,14111,14111,14135,14147,14156,14171,14180,14180,14187,14196,14208,14223,14232,14239,14248,14251,14266,14276,14292,14299,14299,14327,14343,14343,14352,14375,14395,14395,14411,14427,14462,14490,14515,14523,14531,14547,14563,14599,14675,14731,14731,14787,14799,14839,14856,14891,14899,14930,14931" d="M173.37109,130.70499C173.37109,129.14766 173.37109,129.99965 173.37109,130.98898C173.37109,131.87166 173.05208,132.81958 173.3801,133.65681C173.68358,134.43144 174.74298,134.68869 175.20042,135.53566C175.59691,136.26974 175.24361,137.35117 175.72375,138.05765C176.21828,138.78529 176.11774,139.59183 176.37126,140.46216C176.59274,141.22253 177.36888,141.87166 177.37109,142.75766C177.37335,143.65683 177.78467,144.38293 178.0871,145.13699C178.44574,146.03122 178.70442,146.87166 179.37109,147.20499C180.20042,147.61966 180.37109,148.35233 180.37109,149.27298C180.37109,150.13699 181.04184,150.46927 181.37109,151.05765C181.8259,151.87038 181.37109,152.87166 181.37109,153.72632C181.37109,154.55565 181.48109,155.30568 182.01843,155.70499C182.55962,156.10715 182.37109,157.20499 182.37109,158.05765C182.37109,159.03831 182.37109,159.85432 182.37109,160.76216C182.37109,161.66899 181.47026,161.69257 181.37109,162.42099C181.25517,163.27255 180.65509,163.70366 180.37109,164.27298L180.37109,165.13699" id="svg_6" stroke-width="3" stroke="#000" fill="none"/>
  <path t="17565,17675,17679,17695,17711,17731,17740,17755,17772,17772,17779,17787,17794,17803,17815,17823,17831,17831,17914,17919,17959,17987,17995,18003,18011,18131,18156,18156,18159,18175,18198,18199" d="M165.37109,85.70499C164.52043,85.70499 163.757,85.78938 163.37109,86.27966C162.92889,86.84145 161.97081,86.74187 161.38176,87.27966C160.89095,87.72775 159.93019,87.92989 159.22176,88.27966C158.39398,88.68833 157.67532,88.88287 157.37109,89.70499C157.04024,90.59903 156.0912,90.60335 155.41927,91.05766C154.72839,91.52477 153.85109,91.51608 153.0871,91.98899C152.37222,92.4315 151.57147,92.36964 150.79643,92.74099C150.06371,93.09206 149.5209,93.68698 148.48543,93.70499C147.65521,93.71942 147.6777,94.36243 147.28577,95.13699C146.90337,95.89272 145.72375,95.70499 144.92842,95.92632L144.22176,96.27966" id="svg_7" stroke-width="3" stroke="#000" fill="none"/>
  <path t="18442,18575,18579,18595,18603,18603,18611,18627,18647,18655,18687,18695,18707,18715,18715,18731,18739,18751,18759,18771,18782,18791,18791,18799,18814,18819,18827,18843,18852,18860,18860,18868,18868,18876,18879,18895,18904,18912,18920,18920,18927,18936,18955,18971,18979,18999,18999,19007,19047,19059,19059,19075,19127,19159,19159,19175,19187,19239,19271,19287,19287,19307,19307,19323,19339,19347,19363,19367,19367,19382,19391,19398,19415,19420,19420,19427,19427,19436,19451,19467,19477,19489,19489,19496,19512,19520,19539,19547,19557,19564,19587,19591,19607,19615,19623,19631,19632,19647,19663,19675,19683,19692,19699,19708,19727,19743,19759,19767,19771,19787,19811,19827,19847,19956,19983,19991,20000,20019,20019,20035,20043,20079,20095,20103,20127,20127,20135,20139,20148,20162,20171,20198,20223,20231,20239,20256,20260" d="M142.37109,97.70499C141.53777,97.87165 141.25154,98.38548 140.41927,98.71399C139.64542,99.01944 139.22176,99.85432 138.54176,100.53432C137.94576,101.13032 137.03384,101.43515 136.45642,101.98899C135.89418,102.52826 135.63342,103.13545 135.25676,103.81932C134.85353,104.55142 134.07643,104.99966 133.3351,105.74099C132.72375,106.35233 131.97299,106.74612 131.34576,107.27966C130.74823,107.78793 130.40331,108.61197 129.8031,109.27299C129.39241,109.7253 128.61409,110.46199 127.94576,111.13032C127.31843,111.75765 126.72377,112.35233 126.0871,112.98899C125.45376,113.62232 124.80176,114.27432 124.35026,114.72582C123.53776,115.53832 122.91276,116.16332 122.31843,116.75765C121.72376,117.35232 121.19006,118.3125 120.38577,118.66898C119.59292,119.02039 118.58884,118.99893 118.41276,119.70499C118.16651,120.69238 117.77029,121.37514 117.37109,122.13032C117.0542,122.7298 116.51611,123.16174 116.20443,124.03832C115.95472,124.7406 115.9473,125.8391 115.37109,126.53832C114.91018,127.09763 113.68275,126.51543 113.37109,127.20499C112.98998,128.0482 113.37109,129.03831 113.37109,129.85432C113.37109,130.76216 113.37109,131.68416 113.37109,132.58348C113.37109,133.42099 114.10003,133.5213 114.80309,133.70499C115.6787,133.93375 115.61994,135.12761 116.38176,135.70499C117.05073,136.21199 117.5302,136.47009 118.24993,136.92632C118.98127,137.38989 119.52121,137.66286 120.59243,137.70499C121.42508,137.73773 121.96291,138.52461 122.81776,138.70499C123.67342,138.88553 124.73528,138.58014 125.26126,139.41032C125.66359,140.04533 126.25042,140.23195 127.01842,140.76216C127.71999,141.24651 128.08813,141.66438 128.9391,141.70631C129.80612,141.74904 130.36562,142.52504 131.24976,142.70499C132.07028,142.87198 132.84848,142.94376 133.54042,143.42099C134.25772,143.91573 135.29909,143.70499 136.20442,143.70499C137.01843,143.70499 138.06,143.65396 138.31393,144.41032C138.62044,145.32327 139.07643,145.70499 139.8031,145.70499C140.79643,145.70499 141.72375,145.70499 142.59242,145.70499C143.48093,145.70499 144.48447,145.49425 145.20177,145.98898C145.89371,146.46623 146.65509,146.70499 147.53777,146.70499C148.41277,146.70499 149.22176,146.70499 150.20042,146.70499C151.01843,146.70499 151.96883,146.68623 152.37109,147.20499C152.74603,147.68851 153.02689,147.28075 153.48543,146.64783C153.96843,145.98116 155.1955,145.87312 155.65509,145.13699C156.08536,144.44785 156.60844,143.74158 157.0871,142.98898C157.53459,142.28539 158.05054,141.86526 158.36043,141.13033C158.69771,140.33044 158.32452,139.18428 159.07643,138.81932C159.94737,138.39658 160.23758,138.05467 160.72375,137.35233C161.23622,136.612 161.37109,135.82649 161.37109,134.99965C161.37109,134.03831 161.94576,133.66899 162.39642,133.09431L162.79643,132.31566" id="svg_8" stroke-width="3" stroke="#000" fill="none"/>
  <path t="20877,20995,21004,21020,21035,21040,21040,21056,21071,21088,21095,21095,21099,21108,21116,21131,21132,21139,21140,21151,21163,21174,21190" d="M177.37109,95.70499C177.53777,96.53832 178.36884,96.76215 178.37109,97.65232C178.37334,98.53832 178.37109,99.41032 178.37109,100.13699C178.37109,101.20499 178.37109,102.05766 178.37109,102.99165C178.37109,103.87165 178.56923,104.78608 178.0871,105.53565C177.59459,106.30134 177.57761,107.06702 177.20442,107.87165C176.8826,108.56554 176.40509,109.35184 176.37242,110.13565C176.33099,111.12952 175.79643,111.69432 175.37109,112.20499L175.37109,113.13032" id="svg_9" stroke-width="3" stroke="#000" fill="none"/>
  <path t="21633,21691,21723,21747,21763,21763,21767,21776,21799,21811,21819,21827,21827,21843,21844,21852,21874,21879,21888,21903,21919,21946,21955" d="M165.37109,85.70499C165.37109,86.58349 165.37051,87.42099 165.37109,88.27966C165.37177,89.27299 165.45726,89.97968 165.94576,90.71965C166.39728,91.4036 166.91273,92.05328 167.37109,92.87165C167.76329,93.5719 168.12424,94.30984 168.36659,94.99966C168.64346,95.78772 169.71317,95.505 170.32942,96.20499C170.89041,96.84219 171.42126,97.25336 172.0871,97.70499C172.69267,98.11574 173.20442,98.70499 174.07643,98.70499L175.03777,98.70499" id="svg_10" stroke-width="3" stroke="#000" fill="none"/>
  <path t="22720,22787,22796,22831,22855,22863,22871,22879,22888,22895,22899,22919,22931,22939,22955,22975,22976,22999,23008,23019,23035,23059,23067,23076,23087,23087,23104,23119,23128,23147,23156,23186,23191,23214,23238,23255,23267,23275,23292,23308,23319,23336,23351,23379,23379,23413,23428,23435,23439,23471,23487,23506,23514,23523,23538,23566,23590,23610,23619,23651,23666,23702,23729,23738,23771,23779,23815,23867,23927,23943,23951,23960,23995,24003,24031,24055,24070,24122,24138,24167,24176,24184,24207,24235,24235,24251,24283,24355,24431,24595,24671,24671,24692,24703,24708,24739,24807,24852,24867,24919,24920,24979,24992,25007,25047" d="M167.37109,85.70499C167.37109,84.85432 167.34061,83.92757 167.79643,83.27966C168.33615,82.5125 168.44917,81.79366 169.22176,81.69432C170.14465,81.57565 170.37109,80.64365 170.37109,79.85432C170.37109,78.81932 169.97441,77.87289 170.40709,77.13032C170.81053,76.43792 171.29643,76.03122 171.65509,75.13699C171.95752,74.38293 171.90221,73.35253 172.42827,72.70949C172.96762,72.05019 172.72606,71.35081 173.37376,70.70499C173.97426,70.10624 175.24707,70.7422 175.37109,70.13699C175.54454,69.29057 175.84636,68.76634 176.38176,68.27966C176.92862,67.78255 177.46706,67.15067 178.31393,66.76215C179.00893,66.44332 180.03777,66.70499 180.94576,66.70499C181.79643,66.70499 182.72375,66.70499 183.54176,66.70499C184.37109,66.70499 185.63397,66.11705 186.28577,66.70632C186.90617,67.26721 187.13374,67.68647 187.37109,68.35232C187.64828,69.12994 188.13014,69.79085 188.37109,70.79032C188.5808,71.6602 189.45244,71.28654 190.1281,71.92632C190.76015,72.5248 190.37103,73.64782 190.37109,74.41032C190.37119,75.46199 191.18787,75.63078 191.37109,76.27966C191.60226,77.0983 191.37109,78.05766 191.37109,78.87566C191.37109,79.70499 191.37109,80.74099 191.37109,81.61965C191.37109,82.53832 190.55151,82.7051 190.37109,83.53832C190.18655,84.39057 190.37109,85.37165 190.37109,86.20499C190.37109,87.05766 190.80841,88.23444 190.25676,88.70499C189.58293,89.27975 188.39194,88.70422 188.37109,89.55566C188.34891,90.46172 188.37109,91.27966 187.87109,91.70499C187.37109,92.13032 187.71889,93.2174 187.14977,93.70499C186.55209,94.21703 186.99841,94.94913 186.37109,95.63299C185.80568,96.24937 184.57503,95.42954 183.9391,95.79032C183.12219,96.25378 182.72375,96.70499 181.79643,96.70499C180.94576,96.70499 180.37109,96.35232 180.37109,95.37165C180.37109,94.70499 180.32942,93.70499 179.52043,93.70499C178.54176,93.70499 178.72597,92.98707 178.37109,92.13032C178.1409,91.57459 177.37109,91.27966 177.37109,90.37165C177.37109,89.55566 177.37109,88.61965 177.35027,87.72582L176.45642,87.70499L176.37109,86.98899" id="svg_11" stroke-width="3" stroke="#000" fill="none"/>
  <path t="26697,26779,26787,26807,26823,26843,26859,26859,26868,26883,26899,26907,26927,26927,26943,26951,26963,26972,26980,26987,26987,27011,27019,27027,27040,27056,27056,27063,27079,27095,27103,27109,27131,27131,27139,27147,27159,27175,27183,27192,27199,27208,27223,27235,27251,27260,27272,27272,27279,27279,27289,27296,27312,27320,27320,27331,27340,27347,27363,27372,27379,27388,27400,27407,27423,27439,27439,27455,27467,27483,27499,27507,27512,27520,27535,27551,27567,27567,27575,27586,27595,27611,27619,27628,27635,27639,27648,27663,27663,27679,27679,27689,27699,27715,27739,27751,27775,27783,27807,27843,27903,27939,27947,27955,27979,27999,28007,28023,28043,28063,28063,28067,28076,28100,28127,28159,28183,28188,28212,28212,28238,28299,28351,28367,28459,28470,28511,28555,28586,28615,28667,28676,28677,28699,28707,28715,28787,28863,28871,28879,28895,28915,28915,28939,28963,28999,29035,29043,29051,29075,29086,29118,29191,29231,29231,29319,29328,29371,29395,29405,29429,29439,29463,29472,29492,29492,29524,29551,29579,29599,29614,29615,29635,29659,29680,29694,29702,29703,29727,29734,29738,29747,29755,29755,29771,29771,29779,29806,29831,29839,29851,29851,29863,29864,29876,29903,29919,29920,29935,29951,29960,29975,29987,29995,30004,30026,30040,30063,30082,30083,30107,30139,30163,30175,30199,30204,30212,30235,30259,30279,30279,30295,30311,30323,30339,30355,30355,30379,30379,30387,30407,30423,30447,30447,30459,30475,30499,30511,30521,30527,30535,30559,30583,30602,30603,30627,30639,30655,30679" d="M112.37109,133.70499C112.37109,134.55565 112.37109,135.46199 112.37109,136.27965C112.37109,137.20499 112.37109,138.13033 112.37109,139.03831C112.37109,139.85432 112.37109,140.78766 112.37109,141.67966C112.37109,142.58365 112.31142,143.44327 112.6551,144.27298C112.966,145.02357 113.37109,145.92632 113.37109,146.78899C113.37109,147.67966 113.58241,148.32745 114.37109,148.72581C115.25795,149.17377 115.09853,150.03827 115.37243,150.98898C115.59679,151.76775 116.36067,152.2048 116.37109,153.13033C116.38132,154.03825 116.23624,154.96658 116.79642,155.63298C117.25622,156.17995 117.7943,156.77615 118.20443,157.53831C118.59816,158.27 118.81376,159.14766 119.37109,159.70499C120.03777,160.37166 120.23203,161.06808 120.37109,161.98898C120.48302,162.73018 121.34249,163.05615 121.37109,163.87431C121.40012,164.70448 121.68806,165.28419 122.2496,165.92632C122.82395,166.5831 122.91992,167.37245 123.31393,168.05765C123.80361,168.90923 123.1553,169.94177 123.93909,170.53566C124.54366,170.99376 125.36043,171.31548 125.37109,172.26898C125.38097,173.1516 125.37109,174.02615 125.37109,174.84366C125.37109,175.87166 125.93908,176.37866 126.3351,177.13033C126.73569,177.89066 126.37109,178.87431 126.37109,179.70499C126.37109,180.68416 126.37109,181.58365 126.37109,182.42099C126.37109,183.27965 126.37109,184.27298 126.37109,184.99965C126.37109,185.98898 126.37109,186.92632 126.37109,187.76216C126.37109,188.65681 126.37109,189.55565 126.37109,190.46216C126.37109,191.27965 126.37109,192.20499 126.37109,193.13033C126.37109,194.03831 126.37627,194.85434 126.37109,195.75316C126.36576,196.6797 125.59059,197.19858 125.37109,198.05765C125.16893,198.84889 125.37109,199.70499 125.37109,200.71965C125.37109,201.50632 125.45523,202.51836 124.80309,202.98898C124.14429,203.46442 123.37109,204.03831 123.37109,204.85432C123.37109,205.75316 123.40462,206.68028 123.37109,207.58348C123.34249,208.35391 122.43207,208.6972 122.37109,209.41032C122.2892,210.36816 122.37109,211.20499 122.37109,212.13033C122.37109,213.05765 122.5084,213.89061 122.35026,214.70499C122.16997,215.63344 121.40364,215.92688 121.37109,216.87166C121.34249,217.70197 120.90766,217.89816 120.37109,218.53831C119.90417,219.09538 118.7089,218.76845 118.41276,219.70499C118.14544,220.55037 118.27121,221.25778 117.72376,221.70499C117.24991,222.09207 117.35137,223.12141 116.79642,223.69432C116.36392,224.14082 116.37109,224.99965 116.37109,225.98898C116.37109,226.87166 116.37109,227.74098 116.37109,228.64783C116.37109,229.41032 116.37109,230.37166 116.37109,231.27965C116.37109,232.13033 116.91948,232.44516 117.37109,232.98898C117.84076,233.55453 118.25301,234.14713 118.36043,234.85432C118.48954,235.70438 119.37109,235.70499 120.32943,235.70499C121.20443,235.70499 122.15903,235.63629 122.3351,234.85432C122.55021,233.89891 123.0871,233.70499 123.93909,233.70499C124.80309,233.70499 125.79642,233.70499 126.6551,233.70499C127.59243,233.70499 128.4431,233.70499 129.22176,233.70499C130.20042,233.70499 130.41953,232.84911 131.24959,232.70499C132.07475,232.56171 133.01843,232.70499 133.9391,232.70499C134.66576,232.70499 135.9771,232.92978 136.3351,232.27965C136.78275,231.46674 136.37109,230.53432 136.37109,229.70499C136.37109,228.66899 136.37109,227.79031 136.37109,226.87166C136.37109,226.05765 136.37109,225.13699 136.37109,224.27298C136.37109,223.35233 136.37109,222.42099 136.37109,221.53831C136.37109,220.66331 136.37109,219.85432 136.37109,218.87566C136.37109,218.05765 136.14275,217.09911 136.37109,216.27965C136.55414,215.62274 137.32709,215.14001 137.36977,214.27298C137.41524,213.34894 137.30392,212.35945 137.79643,211.73032C138.28502,211.1062 138.19527,210.20294 138.37109,209.41483C138.54185,208.64944 139.81306,209.00192 140.29909,208.27965C140.81836,207.50798 140.86899,207.0208 141.31393,206.35233C141.85825,205.53459 141.21201,204.62793 141.59242,203.72665C141.93695,202.91043 142.37109,202.20499 142.37109,201.27965C142.37109,200.37166 142.21762,199.54298 142.37109,198.61966C142.51505,197.75366 143.3425,197.35364 143.37109,196.42099C143.39655,195.59105 143.37109,194.70499 143.37109,193.77699C143.37109,192.87166 143.37109,192.05765 143.37109,191.13033C143.37109,190.26231 143.37109,189.41032 143.37109,188.42099C143.37109,187.53831 143.37109,186.66899 143.37109,185.76216C143.37109,184.99965 143.37109,184.03831 143.37109,183.13033C143.37109,182.27965 143.37109,181.35233 143.37109,180.37166C143.37109,179.70499 143.37109,178.66899 143.37109,177.75766C143.37109,176.87166 143.37109,176.05765 143.37109,175.13699C143.37109,174.27298 143.70442,173.53831 144.37109,173.20499C145.29909,172.74098 145.37109,171.87166 145.37109,171.05765C145.37109,170.13699 145.37109,169.41032 145.37109,168.35233C145.37109,167.48366 145.37109,166.53831 145.37109,165.68365C145.37109,164.85432 145.37109,163.87431 145.37109,163.05765C145.37109,162.13033 145.37109,161.27965 145.37109,160.37166C145.37109,159.55565 145.37109,158.53831 145.37109,157.68416L145.37109,156.79031L145.37109,155.87166" id="svg_12" stroke-width="3" stroke="#000" fill="none"/>
  <path t="31334,31399,31411,31419,31427,31436,31444,31452,31459,31471,31480,31489,31489,31496,31505,31520,31520,31528,31541,31548,31556,31564,31578,31585,31598,31622,31622,31630,31646,31667,31683,31700,31719,31728,31751,31767,31786,31794,31803,31811,31819,31819,31827,31851,31854,31855,31879,31888,31895,31907,31915,31915,31923,31939,31951,31968,31975,31983,31999,32011,32028,32043,32059,32067,32079,32095,32127,32180,32180,32223,32239,32259,32395,32427,32427,32439,32463,32483,32491,32500,32508,32524,32551,32575,32623,32623,32719,32771,32787,32823,32831,32839,32863,32891,32915,32927,32935,32943,32959,32963,32972,32989,32989,33004,33019,33027,33035,33039,33047,33056,33072,33088,33091,33091,33100,33108,33123,33139,33151,33151,33159,33168,33183,33191,33199,33207,33215,33219,33228,33243,33258,33258,33271,33287,33296,33304,33311,33319,33328,33339,33348,33356,33363,33378,33378,33392,33408,33420,33432,33448,33452,33459,33475,33499,33511,33519,33527,33535,33543,33559,33567,33572,33580,33580,33588,33596,33604,33612,33620,33631,33639,33648,33655,33671,33683,33696,33703,33707,33708,33716,33731,33739,33751,33759,33767,33776,33776,33792,33799,33815,33859" d="M143.37109,171.70499C143.37109,172.58348 144.26759,172.27391 145.03777,172.87166C145.68661,173.37524 145.14499,174.43729 145.37109,175.37166C145.55252,176.12135 146.09218,176.88866 146.59242,177.58365C147.09966,178.28835 147.24045,178.88564 147.39192,179.68416C147.57262,180.63672 148.11919,181.28558 148.70442,181.87166C149.23109,182.39908 150.3326,182.67761 150.37109,183.58382C150.40617,184.40959 150.7567,185.16882 151.20442,185.87166C151.66777,186.59903 152.1516,187.19856 152.37109,188.05765C152.61386,189.0078 151.84138,189.91258 152.45642,190.70232C152.99559,191.39462 153.37109,191.87166 153.37109,192.72581C153.37109,193.61966 153.37109,194.41032 153.37109,195.37166C153.37109,196.27965 153.37109,197.13033 153.37109,198.05765C153.37109,198.87431 152.9008,199.84845 153.41277,200.68416C153.89809,201.47638 155.06529,201.38216 155.36209,202.34782C155.62616,203.20703 155.37109,204.18765 155.37109,204.99515C155.37109,205.92648 155.37109,206.80482 155.37109,207.73032C155.37109,208.62231 155.37109,209.41483 155.37109,210.22232C155.37109,211.25832 155.37109,212.13033 155.37109,213.05765C155.37109,213.87566 155.12257,214.86052 155.72375,215.59065C156.20688,216.17743 156.37109,216.92632 156.37109,217.76216C156.37109,218.68416 156.37109,219.55565 156.37109,220.46199C156.37109,221.27965 156.37109,222.20499 156.37109,223.05765C156.37109,224.03831 156.37109,224.85432 156.37109,225.76216C156.37109,226.68416 157.24959,226.70499 158.0871,226.70499C158.9391,226.70499 159.8031,226.70499 160.72375,226.70499C161.65509,226.70499 162.59242,226.70499 163.43243,226.70499C164.22176,226.70499 165.20042,226.70499 166.0871,226.70499C166.94576,226.70499 167.87109,226.70499 168.81377,226.70499C169.52043,226.70499 170.8396,227.21976 171.37109,226.64783C171.99873,225.97243 172.31012,225.71245 172.37109,224.99965C172.45303,224.04181 172.37109,223.20499 172.37109,222.27965C172.37109,221.35233 172.37109,220.53432 172.37109,219.70499C172.37109,218.69032 172.37109,217.78899 172.37109,217.00049C172.37109,216.06215 172.37109,215.13699 172.37109,214.41032C172.37109,213.35233 172.37109,212.48349 172.37109,211.60515C172.37109,210.68416 172.37109,209.85432 172.37109,208.94781C172.37109,208.05765 172.37119,207.20499 172.37109,206.25832C172.371,205.38382 172.44016,204.50601 171.94576,203.76633C171.47339,203.0596 171.37109,202.27965 171.37109,201.35233C171.37109,200.37166 171.37109,199.68416 171.37109,198.72665C171.37109,197.75766 171.69469,196.77939 171.31393,196.05765C170.92172,195.31419 170.38152,194.70515 170.37109,193.76633C170.36153,192.9037 170.37109,191.99033 170.37109,191.13033C170.37109,190.13699 170.37109,189.41032 170.37109,188.42099C170.37109,187.48366 170.37109,186.65231 170.37109,185.81831C170.37109,184.89032 170.38948,183.9476 170.37109,183.13033C170.35025,182.20428 169.52428,182.21024 168.70442,181.70499C168.13885,181.35645 168.37109,180.26231 168.37109,179.41032C168.37109,178.42099 168.37109,177.53831 168.37109,176.67966C168.37109,175.79031 168.85092,174.87134 168.37109,174.03831C168.03951,173.46265 167.37109,173.20499 167.37109,172.27965C167.37109,171.35233 167.50797,170.52081 167.35027,169.70499C167.16997,168.77225 166.68355,168.22475 166.36659,167.35233C166.08823,166.58612 165.44476,166.16051 165.36842,165.22232C165.30231,164.40982 164.34148,164.09689 163.70442,163.53831C163.06618,162.9787 163.33649,161.86989 162.87109,161.22581C162.34048,160.4915 161.71617,159.76566 161.45642,158.87431C161.2267,158.086 161.028,157.17867 160.29909,156.66899C159.58563,156.17012 158.57111,155.91878 158.36977,155.13699C158.188,154.43121 157.81702,153.63971 157.3351,153.13033C156.75121,152.51315 155.97293,152.12514 155.45642,151.42099C154.95389,150.73592 154.66576,149.99965 154.07643,149.41032C153.36043,148.69432 152.79643,148.13033 152.37109,147.35233L152.0871,146.70499" id="svg_13" stroke-width="3" stroke="#000" fill="none"/>
  <path t="34822,34923,34939,34959,34959,34983,35007,35103,35139,35147,35155,35195,35195,35223,35243,35251,35267,35267,35282,35299,35319,35327,35344,35352,35360,35379,35403,35431,35439,35472,35472,35507,35531,35567,35599,35603,35611,35635,35719,35842,35867,35883,35899,35907,35911,35927,35927,35943,35951,35971,35995,36011" d="M158.37109,226.70499C158.37109,227.58348 158.37109,228.42099 158.37109,229.27298C158.37109,230.13699 158.37109,231.13033 158.37109,231.98898C158.37109,232.92632 158.4431,233.70499 159.22176,233.70499C160.25676,233.70499 160.64696,234.45546 161.01843,234.99965C161.55414,235.78442 162.7216,235.51546 163.31393,236.05765C163.87158,236.56808 164.52043,236.70499 165.42827,236.70499C166.31393,236.70499 167.3531,236.28969 168.01843,236.76216C168.74731,237.27977 169.07643,237.70499 170.03777,237.70499C170.94576,237.70499 171.88521,237.5144 172.65509,237.98898C173.37079,238.43016 174.07643,238.70499 174.8031,238.70499C175.87109,238.70499 176.72375,238.70499 177.65509,238.70499C178.48543,238.70499 179.37109,238.70499 180.32942,238.70499C181.20442,238.70499 182.10916,238.32133 182.37109,237.48366C182.62895,236.65903 181.99133,236.15306 181.3351,235.63298C180.65282,235.09225 180.59161,233.8755 179.8031,233.70499C179.09285,233.55139 178.36659,233.35233 177.87109,232.72581L176.94576,232.70499L176.0871,232.70499L175.37109,232.48366" id="svg_14" stroke-width="3" stroke="#000" fill="none"/>
  <path t="36710,36800,36828,36837,36844,36860,36860,36864,36872,36881,36897,36913,36929,36940,36956,36956,36980,37008,37044,37176,37182,37189,37316,37364,37369,37524,37524,37564,37588,37592,37615,37624,37632,37640,37640" d="M120.37109,236.70499C120.94576,237.27965 121.42149,238.16168 122.24976,238.58348C122.94322,238.93663 123.0695,239.39421 123.54176,240.13699C123.99335,240.84726 125.35093,240.28818 126.01842,240.76216C126.74727,241.27971 127.30809,241.30748 128.01843,241.70499C128.60681,242.03424 128.9391,242.70499 129.66576,242.70499C130.72375,242.70499 131.59242,242.70499 132.45642,242.70499C133.3801,242.70499 134.38307,243.22112 135.1281,242.70499C135.69647,242.31123 136.10245,241.81148 136.36659,241.05765C136.67104,240.18878 136.55971,239.25345 136.37109,238.35233C136.22601,237.65924 135.50856,237.3439 135.37109,236.42099C135.26285,235.69423 134.37109,235.66331 133.54176,235.13699L133.3801,234.41032" id="svg_15" stroke-width="3" stroke="#000" fill="none"/>
  <path t="38954,39012,39040,39064,39064,39080,39085,39092,39100,39108,39116,39124,39132,39140,39144,39152,39160,39160,39168,39176,39192,39192,39200,39200,39205,39220,39228,39229,39236,39244,39252,39264,39273,39273,39281,39288,39297,39297,39312,39312,39320,39324,39337,39340,39349,39349,39356,39364,39372,39381,39389,39389,39393,39401,39408,39408,39417,39417,39424,39424,39433,39441,39445,39446,39461,39468,39477,39477,39485,39485,39492,39500,39509,39509,39513,39520,39521,39529,39536,39544,39545,39552,39561,39565,39576,39581,39581,39596,39604,39612,39620,39624,39624,39632,39641,39649,39656,39656,39664,39672,39681,39684,39692,39692,39700,39708,39716,39716,39724,39724,39733,39748,39756,39760,39760,39768,39768,39777,39785,39800,39800,39804,39813,39813,39821,39821,39829,39837,39837,39844,39852,39852,39853,39861,39869,39869,39873,39881,39881,39888,39888,39897,39897,39905,39905,39913,39920,39920,39924,39924,39933,39933,39940,39940,39948,39949,39956,39956,39964,39965,39972,39972,39972,39981,39982,39989,39993,39993,39993,40005,40005,40008,40016,40016,40024,40032,40040,40040,40045,40052,40060,40068,40076,40085,40085,40092,40100" d="M358.37109,178.70499C358.37109,177.05765 358.37109,176.13033 358.37109,175.26231C358.37109,174.41032 358.37109,173.48349 358.37109,172.60515C358.37109,171.67966 358.37109,170.94331 358.37109,169.89032C358.37109,169.03831 358.37109,168.18416 358.37109,167.30499C358.37109,166.40948 358.37109,165.53566 358.37109,164.68416C358.37109,163.72649 358.37109,162.90633 358.37109,162.00499C358.37109,161.06215 358.22247,160.09856 358.48544,159.35315C358.7807,158.51617 359.92468,158.17725 360.2991,157.31566C360.6579,156.49002 360.37109,155.53831 360.37109,154.72581C360.37109,153.76633 360.37109,153.00049 360.37109,152.06215C360.37109,151.16331 360.37109,150.22099 360.37109,149.53032C360.37109,148.46216 360.17081,147.54349 360.53775,146.70499C360.85956,145.96964 361.37109,145.26216 361.37109,144.51965C361.37109,143.46216 361.2471,142.49638 361.37125,141.60515C361.48297,140.8031 362.30057,140.26801 362.36044,139.51965C362.43454,138.59322 362.371,137.60498 362.37109,136.70499C362.37119,135.82616 362.70044,135.15515 363.01843,134.35315C363.36441,133.48051 363.37109,132.50499 363.37109,131.60483C363.37109,130.81966 363.23795,129.82697 363.54175,129.18898C364.00906,128.2076 365.05301,128.02852 365.34976,127.10499C365.63156,126.22807 365.37109,125.22232 365.37109,124.41482C365.37109,123.48349 365.37109,122.60499 365.37109,121.70499C365.37109,120.94782 365.37109,120.05232 365.37109,119.18899C365.37109,118.22582 365.28986,117.26749 365.65509,116.50365C366.00406,115.7738 366.35309,114.88013 366.37109,113.87165C366.38458,113.11578 366.27316,112.19855 366.38177,111.29432C366.49323,110.36627 366.98483,109.74169 367.2496,108.72665C367.46756,107.89102 367.37109,107.00049 367.37109,106.18415C367.37109,105.22232 367.37109,104.41482 367.37109,103.41965C367.37109,102.50499 367.37109,101.60516 367.37109,100.75315C367.37109,99.84365 367.37109,99.18765 367.37109,98.11565C367.37109,97.20499 367.37109,96.29432 367.37109,95.38365C367.37109,94.70499 367.37109,93.59032 367.37109,92.70499C367.37109,91.87165 367.36127,91.04336 367.65509,90.22099C367.97025,89.33891 368.3425,88.46358 368.37109,87.60499C368.40106,86.70548 368.37109,85.94782 368.37109,85.05232C368.37109,84.18899 368.37109,83.15166 368.37109,82.26899C368.37109,81.40049 368.37109,80.53832 368.37109,79.70499C368.37109,78.72649 368.37109,77.90632 368.37109,77.00499C368.37109,76.06216 368.36285,75.1356 368.37109,74.35316C368.38177,73.34082 368.84186,72.6425 369.52042,72.10499C370.23199,71.54134 370.36975,70.81966 370.37109,69.87965C370.37253,68.87165 370.37109,68.00949 370.37109,67.16332C370.37109,66.16232 370.37109,65.45432 370.37109,64.71032C370.37109,63.51932 370.23105,62.57316 370.45642,61.90499C370.76602,60.98711 371.31912,60.22232 371.36044,59.49432C371.41647,58.50668 371.37109,57.72582 371.37109,56.72632C371.37109,55.82099 371.36377,54.87962 371.37109,54.18899C371.38153,53.20482 371.68549,52.23111 371.94577,51.49432C372.29044,50.51863 372.36066,49.72601 372.37109,48.87165C372.38229,47.95239 372.37057,47.04782 372.37109,46.30049C372.37177,45.30499 372.32776,44.48696 372.59244,43.50515C372.80789,42.70603 373.27689,41.88207 373.36044,41.04366C373.44788,40.1666 373.29199,39.17304 373.54175,38.47299C373.90915,37.44324 374.89478,37.1707 375.25677,36.39599C375.69308,35.4622 375.37109,34.69965 375.37109,33.71032C375.37109,32.84799 375.37109,31.90765 375.37109,31.06899C375.37109,30.05232 375.37109,29.35765 375.37109,28.34099C375.37109,27.40499 375.37109,26.50365 375.37109,25.81965C375.37109,24.89032 375.35355,23.87414 375.37109,23.00049C375.3891,22.10444 375.79642,21.29432 376.20444,20.53832L376.35025,19.70499L376.37109,18.72665L376.37109,17.87165" id="svg_16" stroke-width="3" stroke="#000" fill="none"/>
  <path t="40386,40416,40420,40428,40436,40436,40453,40460,40464,40464,40480,40481,40490,40502,40504,40504,40504,40513,40520,40527,40532,40532,40540,40540,40548,40556,40564,40564,40564,40573,40581,40581,40584,40584,40592,40600,40609,40617,40617,40625,40625,40633,40641,40641,40641,40649,40653,40665,40665,40668,40677,40677,40684,40692,40701,40701,40704,40712,40712,40720,40729,40729,40737,40744,40752,40760,40760,40769,40773,40780,40789,40796,40796,40804,40812,40828,40828,40832,40832,40840,40849,40856,40856,40864,40873,40873,40881,40884,40896,40901,40901,40909,40917,40925,40932,40932,40940,40941,40944,40952,40960,40961,40968,40976,40976,40985,40993,40993,41000,41004,41016,41024,41025,41028,41028,41036,41036,41044,41044,41052,41060,41060,41068,41068,41068,41076,41076,41082,41082,41089,41089,41089,41096,41096,41104,41104,41112,41112,41120,41120,41124,41124,41133,41133,41140,41140,41148,41149,41149,41156,41165,41165,41165,41173,41173,41181,41181,41189,41189,41189,41193,41193" d="M382.37109,31.70499C381.49258,32.92632 381.37109,33.76632 381.37109,34.56632C381.37109,35.53832 381.37109,36.41832 381.37109,37.31565C381.37109,38.22582 381.44684,39.19121 381.37109,39.99516C381.28738,40.88342 380.52502,41.47309 380.38177,42.30499C380.22195,43.23306 380.37109,44.24765 380.37109,44.95565C380.37109,45.69965 380.3725,46.73432 380.37109,47.70499C380.36975,48.62233 379.77713,49.25081 379.22177,49.89032C378.6781,50.51638 378.37561,51.40045 378.37109,52.30499C378.367,53.12631 378.37109,54.03832 378.37109,54.95565C378.37109,55.69965 378.37109,56.73432 378.37109,57.70499C378.37109,58.46215 378.37109,59.35765 378.37109,60.22099C378.37109,61.18415 378.37109,62.10499 378.37109,63.00949C378.37109,63.87165 378.37109,64.70499 378.37109,65.68349C378.37109,66.50365 378.37109,67.37698 378.37109,68.24765C378.37109,69.20499 378.37109,69.93699 378.37109,71.03299C378.37109,71.90498 378.37109,72.80515 378.37109,73.59032C378.37109,74.53032 378.37109,75.53832 378.37109,76.29432C378.37109,77.20499 378.37109,78.11565 378.37109,79.02632C378.37109,79.87965 378.37109,80.81966 378.37109,81.70499C378.37109,82.50499 378.37109,83.34099 378.37109,84.35765C378.37109,85.05232 378.37109,86.06898 378.37109,87.00499C378.37109,87.90632 378.37109,88.87165 378.37109,89.68415C378.37109,90.53565 378.37109,91.40948 378.37109,92.30499C378.37109,93.22582 378.37109,94.02632 378.37109,94.87965C378.37109,95.81832 378.37109,96.78899 378.37109,97.70499C378.37109,98.46215 378.37109,99.35765 378.37109,100.22099C378.37109,101.18415 378.45233,102.14248 378.0871,102.90632C377.7381,103.63617 377.3891,104.52984 377.37109,105.53832C377.3576,106.2942 377.65335,107.25454 377.36044,108.09432C377.09732,108.84866 376.40094,109.41339 376.37244,110.22232C376.33859,111.18356 376.37109,112.10499 376.37109,113.00949C376.37109,113.87165 376.37109,114.70499 376.37109,115.68349C376.37109,116.50365 376.29199,117.39352 375.87109,118.22582C375.4715,119.016 375.37643,119.87961 375.37109,120.81966C375.36606,121.70497 375.37109,122.50499 375.37109,123.46215C375.37109,124.35765 375.37109,125.05232 375.37109,126.06898C375.37109,127.00499 375.37109,127.90632 375.37109,128.87166C375.37109,129.70499 375.37109,130.53831 375.37109,131.45766C375.37109,132.36215 375.37109,133.10948 375.37109,134.10365C375.37109,134.86899 375.37109,135.95232 375.37109,136.87166C375.37109,137.54099 375.37109,138.70499 375.37109,139.50499C375.37109,140.30499 375.37479,141.30051 375.37109,142.04782C375.36658,142.95685 375.23169,143.69106 374.66577,144.71033C374.38626,145.21371 373.79169,145.88046 373.48544,146.89966C373.26059,147.64796 373.37109,148.71033 373.37109,149.45432C373.37109,150.56215 373.37109,151.31966 373.37109,152.36215C373.37109,153.10948 373.37109,154.10498 373.37109,154.90498C373.37109,155.90482 373.37109,156.68416 373.37109,157.68382C373.37109,158.51482 373.37109,159.47299 373.37109,160.20499C373.37109,160.93698 373.37109,162.05432 373.37109,163.03831C373.37109,163.71033 373.37109,164.69966 373.37109,165.73566C373.37109,166.45316 373.37109,167.36665 373.37109,168.16666C373.37109,169.12616 373.37109,169.91965 373.37109,170.93565L373.37109,171.89966L373.37109,172.67299" id="svg_17" stroke-width="3" stroke="#000" fill="none"/>
  <path t="42392,42408,42408,42408,42416,42424,42432,42432,42440,42448,42448,42459,42468,42475,42476,42484,42493,42493,42500,42505,42505,42516,42520,42520,42528,42528,42528,42536,42544,42552,42552,42560,42560,42564,42572,42580,42596,42605,42612,42620,42624" d="M212.37109,163.70499C212.37109,156.23416 212.37109,155.13165 212.37109,154.38916C212.37109,153.46216 212.37109,152.50499 212.37109,151.60483C212.37109,150.81966 212.37109,149.87965 212.37109,148.87166C212.37109,148.06665 212.37109,147.18416 212.37109,146.29433C212.37109,145.38365 212.37109,144.53032 212.37109,143.59032C212.37109,142.70499 212.26347,141.89334 212.40709,141.06898C212.58986,140.01994 213.13535,139.38794 213.31393,138.45766C213.48759,137.55305 213.37109,136.68416 213.37109,135.70499C213.37109,134.91565 213.34653,134.19005 213.37109,133.11565C213.39194,132.20427 213.98622,131.56041 214.52043,131.06898C215.19452,130.44887 215.36043,129.5305 215.37109,128.59032C215.38226,127.60522 215.37109,126.75765 215.37109,125.87165C215.37109,124.99966 215.37109,124.03832 215.37109,123.26899L215.37109,122.31565" id="svg_18" stroke-width="3" stroke="#000" fill="none"/>
  <path t="43163,43196,43225,43236,43236,43236,43245,43256,43265,43265,43272,43281,43281,43285,43293,43301,43301,43309,43309,43317,43317,43325,43325,43333,43340,43349,43353,43353,43353,43365,43365,43369,43377,43377,43384,43393,43401,43405,43412,43412,43421,43436,43444" d="M198.37109,158.70499C198.37109,157.82649 198.37109,157.02232 198.37109,156.16232C198.37109,155.20499 198.37109,154.47299 198.37109,153.38765C198.37109,152.48349 198.37109,151.60483 198.37109,150.81966C198.37109,149.87965 198.37109,148.87166 198.37109,148.11565C198.37109,147.20499 198.37109,146.29433 198.37109,145.38365C198.37109,144.53032 198.37109,143.58899 198.37109,142.82098C198.37109,141.86899 198.37109,141.10365 198.37109,140.10948C198.37109,139.36215 198.37109,138.34099 198.37109,137.40498C198.37109,136.50365 198.37109,135.53831 198.37109,134.86899C198.37109,134.10365 198.37109,132.91565 198.37109,132.19032C198.37109,131.20499 198.37109,130.22099 198.37109,129.53032C198.37109,128.46216 198.61372,127.47408 198.0871,126.78899C197.60234,126.15837 197.37109,125.38382 197.37109,124.56632L197.37109,123.65682L197.36659,122.75765L196.79643,122.13032" id="svg_19" stroke-width="3" stroke="#000" fill="none"/>
  <path t="44062,44096,44106,44106,44113,44120,44125,44125,44133,44141,44141,44149,44156,44157,44157,44165,44174,44174,44174,44182,44182,44199,44199,44200,44200,44200,44208,44209,44209,44216,44216,44224,44232,44240,44244,44244,44256,44256,44261,44268,44276,44276,44285,44292,44292,44300,44301,44304,44312,44312" d="M200.37109,43.70499C200.37109,44.56632 200.37109,45.53832 200.37109,46.29432C200.37109,47.20499 200.37109,48.11565 200.37109,49.02632C200.37109,49.87965 200.37109,50.81965 200.37109,51.70499C200.37109,52.50499 200.37109,53.37699 200.37109,54.24765C200.37109,55.20499 200.37109,55.93699 200.37109,56.89965C200.37109,58.03832 200.37109,58.71032 200.37109,59.45432C200.37109,60.56215 200.37109,61.31965 200.37109,62.36665C200.37109,63.16665 200.37109,64.12632 200.37109,64.93032C200.37109,65.75232 200.37109,66.78349 200.37109,67.68415C200.37109,68.30366 200.37109,69.49432 200.37109,70.21965C200.37109,71.18415 200.37109,72.10499 200.37109,73.00949C200.37109,73.87165 200.37109,74.70499 200.37109,75.68349C200.37109,76.50365 200.37109,77.40498 200.37109,78.34099C200.37109,79.18899 200.57428,80.07778 200.36209,80.94782C200.13448,81.88109 199.11394,81.98313 198.54176,82.90632C198.17072,83.50499 198.37109,84.53032 198.37109,85.53832L198.37109,86.29432" id="svg_20" stroke-width="3" stroke="#000" fill="none"/>
  <path t="45058,45140,45160,45160,45168,45177,45184,45192,45200,45204,45204,45216,45224,45224,45228,45236,45236,45243,45252,45259,45260,45264,45277,45279,45279,45296,45304,45311,45320,45323,45324,45332,45332,45340,45348,45356,45364,45364,45372,45373,45380,45384,45392,45392,45392,45400,45400,45408,45416,45424,45424,45432,45432,45440,45450,45455,45456,45456,45464,45468,45468,45468,45475,45475,45485,45485,45492,45493,45500,45501,45501,45505,45505,45513,45513,45513,45521,45521,45528,45536,45544,45552,45560" d="M217.37109,98.70499C217.94576,98.13032 218.70476,97.53899 219.37109,97.20499C220.26172,96.75855 220.95296,96.2684 221.45509,95.53565C221.98563,94.76147 222.61707,94.13892 223.20442,93.53832C223.70651,93.02491 224.19862,92.23259 225.20442,91.87165C225.90579,91.61996 226.3244,91.03163 226.72826,90.05232C227.02435,89.33431 227.47029,88.48991 228.20442,87.87165C228.86421,87.316 229.69009,87.02258 230.30977,86.31565C230.81697,85.73703 231.20996,84.98406 231.36977,84.27299C231.58696,83.30652 232.02522,82.53956 232.3756,81.75765C232.69202,81.05152 233.19034,80.193 233.43243,79.53032C233.79846,78.5284 234.60312,78.27887 235.38576,77.67966C236.02896,77.1872 236.28931,76.27711 236.59242,75.38365C236.82813,74.68889 237.13338,73.6882 237.45509,72.90632C237.76537,72.15223 238.21472,71.34397 238.70442,70.53832C239.1429,69.81696 239.74101,69.37519 240.48442,68.59032C241.02283,68.02188 241.3817,67.09756 241.79643,66.29432C242.19055,65.53101 242.22098,64.65841 242.59242,63.72649C242.90121,62.95175 243.19452,62.18422 243.39243,61.29432C243.56998,60.49597 244.28123,59.92562 244.8031,59.18899C245.37946,58.37545 245.54454,57.54093 245.87109,56.68415C246.09169,56.10538 246.27988,55.09896 246.42377,54.30499C246.60655,53.29631 247.01773,52.56377 247.28709,51.58765C247.5181,50.75054 247.61961,49.92257 247.91277,49.20499C248.2188,48.45586 249.07115,47.56044 249.50977,47.05432C250.22064,46.23403 250.28085,45.44949 250.41927,44.71032C250.61458,43.66725 251.01422,42.87701 251.42377,42.00499C251.80569,41.19176 252.36977,40.53565 252.37109,39.70499L252.37109,38.72632" id="svg_21" stroke-width="3" stroke="#000" fill="none"/>
  <path t="45862,45896,45921,45924,45933,45941,45949,45957,45965,45965,45980,45984,45984,45992,45992,46001,46001,46009,46016,46025,46032,46040,46040,46044,46053,46060,46068,46076,46076,46084,46093,46093,46105,46120,46128,46136,46136,46160,46166,46173,46188,46196,46196,46204,46212,46221,46236,46241,46249,46257,46265,46273,46284,46284,46293,46316,46324,46340,46340,46344,46352,46360,46360,46369,46369,46376,46376,46384,46385,46400,46404,46404,46412,46421,46421,46428,46436,46444,46452,46460,46468,46468,46476,46480,46489,46504,46512,46532,46540,46549,46588,46640,46652,46684,46693,46700,46700,46708,46721,46736,46760,46772,46772,46788,46804,46804,46812,46820,46820,46828,46833,46840,46841,46849,46849,46849,46856,46865,46865,46865" d="M257.37109,47.70499C257.37109,48.58349 257.7117,49.5391 257.20444,50.37165C256.77084,51.08332 256.39426,51.73067 256.37109,52.50632C256.3425,53.46344 255.99011,54.3409 255.72375,54.99516C255.3253,55.97386 255.03102,56.69612 254.37109,57.20499C253.60597,57.79498 253.31133,58.59877 253.01843,59.35765C252.68117,60.2315 252.64133,61.1095 252.36659,62.00049C252.13116,62.764 251.38152,63.24648 251.37109,64.18899C251.36156,65.05227 251.46292,66.00748 250.94576,66.67966C250.47144,67.29614 250.44734,68.24041 249.66576,68.65682C248.99634,69.01348 248.56822,69.60858 248.20442,70.53832C247.90286,71.30898 247.59814,72.13998 247.20442,72.87165C246.75766,73.70188 246.50949,74.28414 246.37109,75.13699C246.22723,76.02348 245.44479,76.61983 245.37109,77.42099C245.28558,78.35051 244.81676,79.19987 244.37109,79.68415C243.63603,80.48292 243.25729,81.12179 242.79643,81.73032C242.24516,82.45824 241.64565,83.08563 241.37242,83.87432C241.10042,84.6595 240.97447,85.54875 240.40709,86.13032C239.88472,86.66575 238.90187,86.41093 238.41277,87.20499C237.96492,87.93204 237.65878,88.52953 237.37093,89.14782C237.05717,89.82172 237.11154,91.07034 236.37109,91.53832C235.61241,92.01784 235.23009,92.54008 234.50977,93.11565C233.87718,93.62112 233.12955,94.35848 232.6756,95.05232C232.17383,95.81924 231.69057,96.45455 231.00943,97.06216C230.24066,97.74792 229.46555,97.95203 228.70442,98.53832C228.05167,99.04115 227.90862,99.92366 227.31842,100.75315C226.87354,101.37841 226.32962,102.14359 225.79643,102.73032C225.26564,103.31441 224.81979,104.20284 224.22176,104.84365C223.55981,105.55293 223.22464,106.15855 222.65509,106.78899C222.06891,107.43784 221.42497,107.98653 221.37109,108.87566C221.32091,109.70373 220.74988,110.30323 220.37109,110.92632C219.92229,111.6646 220.93953,112.90003 220.37076,113.58349C219.91212,114.13459 218.57686,113.99606 218.41277,114.70499C218.19176,115.65979 218.37109,116.58349 218.37109,117.42099C218.37109,118.27966 218.1366,119.14122 217.79643,119.85432C217.35379,120.78226 217.37109,121.70499 217.37109,122.50499C217.37109,123.34099 217.37474,124.35766 217.37109,125.05232C217.36575,126.06902 216.92897,126.81688 216.53777,127.70499C216.25967,128.33632 216.37109,129.47299 216.37109,130.20499C216.37109,130.93698 216.36043,132.05432 216.20442,133.03831L216.01843,133.71033L215.79643,134.45432" id="svg_22" stroke-width="3" stroke="#000" fill="none"/>
  <path t="47366,47424,47433,47433,47441,47450,47456,47465,47465,47473,47473,47481,47481,47489,47489,47489,47496,47496,47497,47501,47501,47501,47508,47508,47517,47517,47517,47524,47524,47524,47532,47532,47532,47532,47540,47540,47540,47540,47548,47548,47548,47557,47557,47557,47560,47560,47568,47568,47568,47576,47576,47584,47592,47601,47601,47620,47628" d="M231.37109,112.70499C231.37109,113.46665 231.37109,114.35765 231.37109,115.22099C231.37109,116.18415 231.37109,117.10499 231.37109,118.00949C231.37109,118.87165 231.37772,119.72585 231.37109,120.70499C231.36575,121.49438 231.18291,122.5283 230.87109,123.22582C230.5127,124.02757 230.39308,124.96589 230.3756,125.75682C230.35291,126.78341 230.37109,127.47965 230.37109,128.38899C230.37109,129.38899 230.37109,130.20499 230.37109,131.02098C230.37109,132.02098 230.37648,132.93033 230.37109,133.87166C230.36659,134.6577 230.42308,135.51823 230.03777,136.53831C229.75327,137.29147 229.10847,137.87642 228.70442,138.87166C228.39423,139.6357 228.39449,140.24608 228.37376,141.19165C228.35109,142.22591 228.37109,142.95316 228.37109,143.68416C228.37109,144.73566 228.37109,145.93565 228.37109,146.68416C228.37109,147.38765 228.3922,148.38983 228.35027,149.20499C228.30823,150.02245 228.0683,151.01518 227.79643,151.93031C227.51842,152.86613 227.4088,153.65225 227.38176,154.44365C227.34357,155.56139 227.37109,156.28366 227.37109,157.20499C227.37109,158.11565 227.37109,159.02615 227.37109,159.84366L227.37109,160.87166L227.65509,161.61966" id="svg_23" stroke-width="3" stroke="#000" fill="none"/>
  <path t="47863,47884,47893,47893,47901,47906,47913,47913,47923,47929,47929,47937,47937,47937,47937,47945,47945,47953,47953,47953,47956,47957,47957,47965,47965,47965,47973,47973,47981,47981,47990,47990,47990,47997,47997,47997,48006,48012,48026" d="M238.37109,118.70499C238.37109,119.72582 238.37109,120.68349 238.37109,121.50365C238.37109,122.40498 238.37109,123.34099 238.37109,124.18899C238.37109,125.05232 238.37109,126.07965 238.37109,127.02666C238.37109,127.74665 238.37109,128.87166 238.37109,129.65765C238.37109,130.47966 238.37109,131.02098 238.37109,132.25232C238.37109,132.93031 238.37109,134.12633 238.37109,134.93031C238.37109,135.75232 238.37109,136.78366 238.37109,137.47966C238.37109,138.38899 238.37109,139.38899 238.37109,140.20499C238.37109,141.02098 238.37109,142.01965 238.37109,142.89432C238.37109,143.90498 238.37109,144.70499 238.37109,145.70499C238.37109,146.51566 238.37109,147.16216 238.37109,148.12616C238.37109,148.91965 238.37109,149.93565 238.37109,150.89066L238.37109,151.80482L238.37109,152.73032" id="svg_24" stroke-width="3" stroke="#000" fill="none"/>
  <path t="49447,49512,49516,49536,49540,49548,49548,49557,49564,49572,49572,49573,49576,49576,49576,49589,49589,49596,49597,49597,49601,49601,49601,49608,49608,49608,49616,49616,49616,49624,49624,49624,49624,49632,49632,49632,49632,49640,49640,49640,49640,49648,49648,49648,49648,49652,49652,49652,49652,49659,49659,49660,49660,49668,49668,49668,49675,49676,49676,49684,49684,49684,49692,49692,49701,49701,49709,49709,49717,49723,49728,49737,49745,49753,49753" d="M141.37109,6.70499C140.38176,6.71565 140.89488,7.31002 141.3756,8.05765C141.82549,8.75735 142.23235,9.43421 142.45509,10.22232C142.70337,11.10079 143.13158,12.00864 143.70442,12.70499C144.13358,13.22665 144.96292,13.62494 145.48576,14.47299C145.91492,15.16906 146.12238,15.96318 146.6711,16.89965C147.04015,17.5295 147.56224,18.47873 147.89192,19.22582C148.24556,20.0272 148.68225,20.79113 149.19643,21.47965C149.7084,22.16525 150.36638,23.1183 150.61392,23.65765C150.98602,24.46839 151.3644,25.54117 151.6711,26.25232C151.96471,26.93311 152.37,27.87208 152.6756,28.66215C153.00591,29.51611 153.22787,30.12099 153.85509,31.30632C154.18175,31.92365 154.56677,32.53037 154.8871,33.19032C155.3826,34.21112 155.62572,34.95861 155.85027,35.72582C156.07863,36.50606 156.36917,37.70547 156.57109,38.50232C156.7692,39.28413 156.93936,40.04288 157.37109,41.37165C157.55626,41.94156 157.9008,42.69128 158.08575,43.47299C158.36626,44.65857 158.34129,45.36807 158.43243,46.09032C158.52507,46.82442 158.92445,48.22499 159.22176,48.85832C159.50656,49.46503 160.08482,50.52526 160.26126,51.25232C160.478,52.14542 160.58629,53.1279 160.79643,53.93032C161.01215,54.75399 161.28096,55.78008 161.3351,56.45832C161.4211,57.53549 161.37109,58.33032 161.37109,59.18899C161.37109,60.05232 161.37109,60.94782 161.37109,61.90499C161.37109,62.80482 161.37109,63.69032 161.37109,64.56632L161.37109,65.53832L161.37109,66.34332" id="svg_25" stroke-width="3" stroke="#000" fill="none"/>
  <path t="50029,50055,50064,50072,50072,50080,50080,50089,50097,50105,50105,50112,50112,50117,50117,50117,50124,50124,50125,50133,50133,50133,50140,50140,50140,50149,50149,50149,50149,50156,50156,50156,50164,50164,50164,50164,50172,50173,50173,50173,50176,50176,50176,50176,50184,50184,50184,50184,50192,50192,50192,50192,50201,50201,50201,50208,50208,50208,50216,50216,50216,50224,50224,50232,50233,50240,50240,50244,50244" d="M153.37109,0.70499C153.37109,1.70499 153.52795,2.5221 154.22176,3.11565C154.79205,3.60354 155.19092,4.37641 155.45377,5.22099C155.72554,6.09429 156.15315,6.96223 156.59259,7.80515C156.96954,8.52823 157.62834,9.16367 157.93509,9.91565C158.32729,10.87712 158.33893,11.73993 158.54042,12.39032C158.85876,13.41794 159.39139,14.20531 159.72293,14.75232C160.3484,15.78427 160.77769,16.45965 161.00943,17.15765C161.32394,18.10501 161.3297,18.94258 161.42377,19.80949C161.52116,20.70695 161.71339,21.60931 161.98177,22.50499C162.16246,23.10806 162.58246,24.30249 162.76042,24.91565C163.03354,25.85668 163.22112,26.86996 163.28577,27.58899C163.35231,28.32897 163.3629,29.07964 163.37109,30.53832C163.37492,31.21965 163.31525,31.87996 163.48543,32.80049C163.7124,34.02829 164.08411,34.60587 164.37109,35.22582C164.81505,36.18488 165.15642,37.2219 165.25676,37.95765C165.35822,38.70163 165.36417,39.4523 165.37109,40.53832C165.37753,41.54781 165.34877,42.1882 165.45642,43.10365C165.59846,44.31166 165.81136,44.89058 166.01843,45.74782C166.26762,46.77946 166.35956,47.70478 166.36977,48.38899C166.38467,49.38888 166.37109,50.20499 166.37109,51.02099C166.37109,52.01965 166.37109,52.89432 166.37109,53.90499C166.37109,54.70499 166.37109,55.70499 166.37109,56.49432L166.37109,57.53832L166.37109,58.34332" id="svg_26" stroke-width="3" stroke="#000" fill="none"/>
  <path t="51290,51340,51340,51347,51355,51356,51364,51364,51364,51372,51372,51376,51376,51376,51384,51384,51384,51384,51392,51392,51393,51393,51393,51400,51400,51400,51400,51408,51409,51409,51409,51409,51409,51417,51417,51417,51417,51417,51425,51425,51425,51425,51425,51425,51432,51433,51433,51433,51433,51433,51440,51441,51441,51441,51441,51441,51445,51445,51445,51445,51445,51445,51453,51453,51453,51453,51453,51453,51453,51460,51460,51460,51460,51461,51468,51469,51469,51469,51469,51476,51476,51476,51476,51477,51485,51485,51485,51485,51492,51492,51497,51497,51506,51506,51560,51560" d="M121.37109,10.70499C122.37109,9.14782 122.37109,9.89032 122.37109,10.94782C122.37109,11.80532 122.3614,12.67573 122.37243,13.47432C122.3828,14.226 122.39382,15.03762 122.72376,16.25232C122.91077,16.9408 123.21281,17.87044 123.32293,18.66215C123.44147,19.51444 123.68582,20.71259 123.93909,21.30632C124.20265,21.92416 124.73145,22.84032 125.03776,23.87165C125.24763,24.57829 125.31441,25.34054 125.38577,26.11565C125.4585,26.9059 125.58572,28.10628 125.72376,28.90949C125.86427,29.72702 126.04604,30.55853 126.20443,31.87165C126.25916,32.32544 126.32208,33.26188 126.35026,34.22582C126.36457,34.71555 126.36876,35.70632 126.37126,37.20499C126.37209,37.70499 126.37776,38.70508 126.39193,39.20499C126.42027,40.20525 126.53234,41.70561 126.59243,42.20499C126.71292,43.20635 126.80035,43.70441 126.94576,44.70499C127.09102,45.70443 127.21701,46.70404 127.28576,47.70632C127.32024,48.2091 127.35305,49.22577 127.36043,49.74099C127.37545,50.79026 127.37109,51.87165 127.37109,52.98899C127.37109,53.55766 127.37109,54.70499 127.37109,55.27966C127.37109,55.85232 127.37109,57.53832 127.37109,58.08365C127.37109,59.15232 127.37109,59.67965 127.37109,60.73032C127.37109,61.25765 127.37109,62.87165 127.37109,63.42632C127.37109,64.55766 127.37109,65.13032 127.37109,65.70499C127.37109,66.85232 127.37109,67.42099 127.37109,69.08332C127.37109,69.61832 127.37109,70.65832 127.37109,71.16332C127.37109,72.14332 127.37109,73.53832 127.37109,74.41965C127.37109,75.26899 127.37109,75.68415 127.37109,76.50049C127.37109,77.70499 127.37109,78.50499 127.37109,79.30499C127.37109,80.10499 127.36584,80.905 127.37126,82.10465C127.37659,83.28369 127.37419,84.03608 127.45643,84.73432C127.59855,85.94099 127.94454,86.61849 128.20442,87.53832C128.42389,88.31513 128.37109,89.35316 128.37109,90.13565L128.37109,90.26215L128.37109,89.51965" id="svg_27" stroke-width="3" stroke="#000" fill="none"/>
  <path t="51807,51828,51836,51844,51852,51861,51868,51868,51876,51880,51880,51888,51888,51888,51897,51897,51906,51906,51906,51912,51912,51912,51912,51922,51922,51922,51922,51929,51929,51929,51929,51929,51929,51932,51932,51932,51932,51941,51941,51941,51941,51941,51948,51948,51948,51957,51957,51957,51957,51957,51964,51964,51964,51972,51972,51972,51976,51977,51977,51984,51984,51996,52000,52001,52008,52008" d="M140.37109,23.70499C140.37109,24.72582 140.37109,25.68332 140.37109,26.62099C140.37109,27.40949 140.34438,28.34145 140.37242,29.18899C140.40103,30.05365 140.89877,30.86259 141.24959,31.80532C141.50192,32.48341 141.37109,33.47432 141.37109,34.22582C141.37109,35.02232 141.37109,36.02099 141.37109,36.93032C141.37109,37.87165 141.37109,38.66216 141.37109,39.51566C141.37109,40.70499 141.37109,41.30632 141.37109,42.22582C141.37109,42.86215 141.37109,44.22665 141.37109,44.96665C141.37109,45.74665 141.37109,46.56665 141.37109,47.87165C141.37109,48.32632 141.37109,49.25765 141.37109,50.20499C141.37109,51.15232 141.37109,51.62099 141.37109,52.98349C141.37109,53.84782 141.37109,54.68415 141.37109,55.50049C141.37109,56.70499 141.37109,57.50365 141.37109,58.29432C141.37109,59.06899 141.37109,59.81965 141.37109,60.88366C141.37109,61.87965 141.37109,62.53032 141.37109,63.87165C141.37109,64.58899 141.37109,65.33032 141.37109,66.07965C141.37109,66.82098 141.37109,68.21832 141.37109,68.85832C141.37109,69.74332 141.37109,70.78365 141.37109,71.70499C141.37109,72.38898 141.37109,73.38898 141.37109,74.20499C141.37109,75.02099 141.37282,76.01832 141.37109,76.85832C141.36884,77.95233 141.20442,78.87165 140.94576,79.53032L140.53777,80.53832L140.38176,81.29432" id="svg_28" stroke-width="3" stroke="#000" fill="none"/>
  <path t="52626,52660,52692,52708,52708,52716,52721,52729,52738,52744,52752,52752,52760,52764,52772,52798,52805,52833,52840,52840,52849,52857,52857,52858,52865,52873,52873,52880,52889,52901,52901,52915,52933,52936,52948,52957,52957,52968,52976,52984,52992,53001,53001,53013,53022,53029,53029,53037,53044,53053,53056,53056,53056,53065,53072,53089,53096,53156,53192,53201,53216,53216,53224,53224,53232,53240,53240,53244,53244,53252,53260,53268,53268,53275,53276,53284,53284,53292,53292,53301,53301,53312,53340,53360,53368,53432,53440,53457,53464,53473,53473,53480,53484,53492,53501,53501,53501,53508,53509,53516,53524,53524,53532,53536,53536,53544,53552,53560,53560,53568,53576,53576,53584,53584,53592,53592,53601,53601,53605,53605,53612,53612,53620,53628,53636,53656,53664,53680,53688,53696,53704,53704,53712,53713,53715,53715,53724,53732,53763,53772,53780,53789,53792,53792,53801,53801,53808,53816,53832,53832,53856,53868,53868,53876,53876,53884,53884,53892,53892,53892,53900,53908,53908,53916,53916,53916,53921,53928,53936,53952,53952,53960,53968,53968,53972,53972,53980,53980,53988,53988,54002,54002,54002,54006,54013,54013,54016,54016,54025,54041,54072,54092,54116,54140,54152,54160,54169,54177,54177,54185,54193,54193,54196,54197,54197,54205,54216,54216,54221,54221,54228,54236,54236,54244,54257,54280,54289,54297,54297,54305,54315,54324,54324,54340,54340,54348,54356,54364,54372,54376,54396,54396,54401,54401,54409,54418,54424,54433,54433,54433,54436,54444,54452,54452,54460,54468,54476,54484,54520,54520,54528,54544,54555,54604,54612,54617,54624,54632,54633,54640,54649,54656,54657,54664,54665,54672,54672,54680,54681,54689,54693,54693,54701,54708,54716,54716,54724,54736,54748,54756" d="M72.37109,101.70499C71.49259,101.70499 70.6551,101.70499 69.80176,101.70499C69.01926,101.70499 68.0109,101.70325 67.37109,101.20499C66.75369,100.72417 65.7705,100.6517 65.38577,99.85432C65.00026,99.05535 64.34451,98.81764 63.39276,98.70482C62.52776,98.60228 62.06793,97.90682 61.20443,97.70499C60.42533,97.52288 60.64841,96.86296 61.4711,96.48365C62.13934,96.17555 62.94318,95.7696 63.69243,95.26215C64.43053,94.76227 64.88743,94.18799 65.61393,93.46215C66.37144,92.70534 66.79276,92.16822 67.31843,91.40948C67.81908,90.68686 68.53316,90.24677 68.37109,89.41032C68.22646,88.66384 67.37543,88.50307 66.6666,88.05766C65.92047,87.58881 64.88843,87.70499 64.08092,87.70499C63.08576,87.70499 62.17109,87.70737 61.27126,87.70499C60.41925,87.70274 59.64178,87.39677 58.93909,86.98899C58.05344,86.47503 57.45124,85.78822 57.3666,84.99516C57.28048,84.1882 56.67887,83.4926 56.3756,82.59515C56.13159,81.87309 56.37109,80.70499 56.37109,79.91566C56.37109,79.19032 56.22089,78.10288 56.37109,77.22582C56.51516,76.3846 57.32125,75.82914 56.87109,76.20499C56.19744,76.76743 55.39969,76.35357 55.37109,75.37165C55.35108,74.68444 55.4228,73.72485 55.37109,72.90632C55.31381,71.99957 54.54914,71.52197 53.93909,70.81966C53.35453,70.14668 53.37243,69.18899 53.37109,68.22582C53.36982,67.30499 53.37109,66.50232 53.37109,65.73432C53.37109,64.69965 53.31646,63.95429 53.37143,62.84799C53.40742,62.12366 54.15882,61.49117 54.66576,60.94782C55.39514,60.16605 55.18055,59.25442 55.37109,58.35232C55.51718,57.66069 56.77686,57.37159 57.28576,57.98899C57.60505,58.37633 57.37109,57.62099 57.37109,56.70499C57.37109,55.94332 57.37109,55.05232 57.37109,54.18899C57.37109,53.22582 57.37109,52.30499 57.37109,51.39599C57.37109,50.37165 57.37109,49.69965 57.37109,48.95565C57.37109,47.84799 57.25522,47.0024 57.40709,46.06899C57.54898,45.19693 57.90396,44.51401 58.28843,43.59032C58.66432,42.68723 59.35586,42.4539 60.03776,41.70499C60.69204,40.9864 61.37183,40.67063 62.17109,40.70499C63.00941,40.74102 63.88427,41.24289 64.35026,41.72582C65.0893,42.49173 65.33607,43.34757 65.65643,44.19032C65.9389,44.9334 66.48706,45.89717 66.76043,46.49432C67.23265,47.52586 67.32957,48.20567 67.37243,49.18899C67.4101,50.05331 67.87051,50.87262 68.20443,51.70499C68.52084,52.49372 69.10399,52.93351 70.03776,52.70499C70.789,52.52113 71.08553,51.50976 71.59243,50.82615C72.10831,50.13042 72.21214,49.44669 72.65776,48.59032C73.00412,47.92472 74.07623,47.48446 74.66126,47.00499C75.39326,46.40507 75.93256,45.38387 76.79642,45.71565C77.49936,45.98563 77.37109,47.10499 77.37109,48.00949C77.37109,49.02632 77.37109,49.70499 77.37109,50.68349C77.37109,51.50365 77.37109,52.40499 77.37109,53.34782C77.37109,54.27299 77.13947,55.38002 77.72376,55.70499C78.5808,56.18165 79.49724,55.85516 80.34976,55.26232C80.97632,54.82662 81.51471,53.97271 82.20709,53.76632C83.34379,53.42748 83.95695,53.3266 84.71393,53.05766C85.73396,52.69524 86.68571,52.46571 87.39193,52.20499C88.36227,51.84676 89.15982,51.72411 89.88576,51.70632C90.96011,51.68 91.7711,51.70499 92.76043,51.70499C93.70443,51.70499 94.67313,51.31589 95.25676,52.06215C95.84734,52.81732 95.41028,53.67674 95.36209,54.71032C95.32732,55.45617 94.96651,56.59789 94.52043,57.03299C93.76369,57.77109 93.37822,58.38245 93.14977,59.24765C92.89522,60.21168 92.68034,60.94347 92.42376,61.89066C92.17415,62.81211 91.6553,63.44196 91.42376,64.35316C91.22813,65.12303 89.90291,65.87555 90.37109,66.61965C90.7551,67.22997 91.64042,65.97811 92.53776,65.70499C93.33685,65.46176 93.3895,66.65252 93.37109,67.50632C93.35309,68.34157 93.06532,69.18022 92.79642,69.87965C92.39047,70.93562 92.12472,71.78915 91.76043,72.37698C91.23437,73.22587 90.95605,73.94738 90.72826,74.69965C90.41842,75.72295 90.03257,76.5166 89.18576,76.73032C88.25009,76.96648 87.58389,77.32983 86.98176,78.11565C86.44851,78.81158 86.38152,79.68399 86.37109,80.68415C86.36172,81.58344 87.07559,81.70499 87.89193,81.70499C88.85509,81.70499 89.71843,81.70491 90.60943,81.70499C91.5926,81.70507 92.45382,81.94837 93.08576,82.42099C93.79544,82.95174 94.87756,82.94302 95.36209,83.81482C95.79456,84.59293 95.37109,85.59515 95.37109,86.40948C95.37109,87.34782 94.76775,87.93893 94.18576,88.35165C93.33657,88.95387 92.98828,89.72997 92.49243,90.46215C92.00454,91.18259 91.15079,91.55687 90.20443,91.87165C89.5292,92.09624 88.80111,92.43611 88.01776,93.09432C87.29017,93.70569 87.03773,94.63457 86.56976,95.13699C85.85889,95.90017 85.23067,96.54135 84.37109,96.68415C83.45541,96.83627 84.08092,96.70499 84.88843,96.70499C85.92443,96.70499 86.80931,96.55095 87.72376,96.70499C88.22543,96.78949 87.55099,97.62119 86.76043,97.70499C85.85533,97.80093 85.04976,97.70499 84.19643,97.70499C83.25643,97.70499 82.2711,97.70499 81.37109,97.70499C80.61393,97.70499 79.71393,97.70448 78.96659,97.70499C77.97243,97.70566 76.9937,97.67211 76.12376,98.05766C75.45358,98.35468 74.54624,98.68698 73.53776,98.70499C72.78188,98.71848 71.87109,98.70499 70.96043,98.70499C70.04993,98.70499 69.23243,98.70499 68.28843,98.70499L67.39193,98.74665L67.37109,99.55566L67.37109,100.53432" id="svg_29" stroke-width="3" stroke="#000" fill="none"/>
  <path t="56355,56396,56404,56404,56412,56421,56428,56432,56439,56448,56455,56455,56464,56471,56480,56488,56492,56492,56500,56508,56516,56516,56524,56532,56532,56536,56536,56544,56552,56560,56568,56628,56636,56644,56652,56656,56656,56668,56676,56688,56688,56696,56697,56705,56713,56713,56713,56720,56728,56728,56732,56732,56748,56748,56816,56825,56825,56838,56841,56842,56851,56851,56854,56860,56869,56869,56876,56876,56884,56892,56896,56897,56905,56912,56912,56922,56928,56929,56936,56936,56944,56952,56960,56976,57016,57032,57032,57041,57048,57057,57057,57064,57064,57064,57072,57077,57077,57084,57092,57101,57101,57101,57109,57109,57116,57124,57124,57133,57133,57140,57140,57144,57144,57144,57152,57153,57160,57160,57169,57176,57176,57188,57189,57192,57200,57212,57221,57228,57236,57236,57255,57256,57264,57276,57280,57288,57312,57316,57316,57324,57324,57332,57340,57348,57348,57356,57356,57364,57365,57372,57372,57380,57388,57392,57401,57436,57444,57452,57452,57460,57468,57476,57476,57484,57492,57492,57504,57512,57522,57544,57545,57556,57596,57616,57624,57636,57636,57639,57648,57656,57664,57664,57672,57672,57676,57684,57685,57692,57701,57701,57701,57708,57709,57717,57717,57725,57725,57733,57733,57737,57737,57737,57745,57745,57745,57753,57753,57753,57760,57760,57769,57769,57776,57827,57836,57844,57844,57852,57852,57860,57868,57872,57872,57880,57880,57889,57889,57896,57896,57896,57905,57905,57905,57912,57912,57921,57921,57925,57925,57925,57932,57932,57940,57941,57948,57948,57948,57964,57972,57977,57977,57996,58009,58009,58036,58044,58052,58068,58076,58084,58092,58096,58112,58121,58128,58129,58129,58136,58144,58152,58156,58164,58165,58172,58180,58189,58205,58212,58222,58292,58301,58308,58316,58324,58324,58332,58332,58336,58348,58353,58360,58360,58369,58369,58369,58376,58376,58384,58385,58385,58392,58392,58400,58401,58404,58404,58413,58420,58428,58488,58496,58512,58521,58529,58532,58541,58548,58556,58564,58572,58573,58580,58581,58585,58585,58593,58605,58606,58606,58609,58609,58617,58676,58684,58700,58709,58709,58713,58721,58729,58744,58744,58752,58756,58756,58764,58772,58780,58781,58788,58788,58796,58805,58805,58805,58813,58813,58817,58817,58817,58823,58839,58855,58932,58937" d="M176.37109,42.70499C176.37109,43.46666 176.36156,44.35771 176.37109,45.22099C176.38152,46.16349 177.16371,46.69889 177.36659,47.40949C177.62476,48.31371 178.07715,48.87794 178.39192,49.72582C178.6949,50.54192 179.30739,51.3078 180.12827,51.58349C180.94551,51.85796 181.87109,51.70499 182.78177,51.70499C183.69226,51.70499 184.60155,52.03455 185.45377,51.61966C186.14665,51.28233 186.51752,50.18649 186.9711,49.56632C187.51231,48.82635 188.56638,48.59883 189.18576,48.26899C190.08762,47.78872 189.98903,46.89904 190.42827,46.06215C190.82021,45.3154 190.66457,44.37901 191.37109,43.77699C191.92123,43.30822 192.16051,44.81036 192.65509,45.53565C193.17313,46.29535 193.93739,46.65827 194.72293,46.70049C195.73364,46.7548 196.66847,46.76384 197.59276,46.70482C198.26184,46.66209 199.18303,46.2455 199.8871,45.98899C200.855,45.63636 201.72566,45.2981 202.35027,44.68415C202.82886,44.21372 203.26155,43.12375 203.94043,42.50499C204.48326,42.01023 205.48982,41.74072 206.00943,41.06215C206.54311,40.36522 205.9169,38.8793 206.65509,38.70765C207.48102,38.51561 207.23418,40.18698 207.91277,40.68415C208.71202,41.26974 209.57161,41.27551 210.34959,41.80482C211.09322,42.31075 211.87836,42.59666 212.78177,42.71565C213.70848,42.83771 214.33498,43.31652 215.34959,43.58349C216.15123,43.79441 217.07109,43.70499 217.89192,43.70499C218.85509,43.70499 219.72556,43.81337 220.61392,43.70049C221.49104,43.58903 222.16264,42.96508 223.0071,42.67965C223.84735,42.39564 224.57439,42.13778 225.48576,41.50632C226.08679,41.08989 227.11243,40.71075 227.3351,39.85432C227.56334,38.97646 227.37109,38.13032 227.37109,38.20499C227.37109,39.14782 227.37102,39.89032 227.37109,40.81965C227.37119,41.80499 227.49719,42.73775 228.01776,43.34099C228.64598,44.06898 229.25352,44.47539 229.80176,45.22099C230.38736,46.01739 230.55908,47.02429 231.17242,47.41965C231.97942,47.93985 232.74454,48.26118 233.70442,48.53832C234.59467,48.79535 235.36577,48.70274 236.40042,48.70499C237.16843,48.70666 238.14572,48.69584 239.02826,48.34782C239.5946,48.12449 240.58231,47.62642 241.35027,47.20499C242.21794,46.72884 242.75461,46.30348 243.53777,45.53832C244.02937,45.05801 244.54576,44.53032 245.34959,43.72649C245.96043,43.11565 246.58008,42.51385 247.1711,41.90499C247.86092,41.19434 248.15228,40.35676 248.43243,39.53032C248.71806,38.68772 249.59668,38.42727 250.1281,37.60515C250.63426,36.82212 250.37109,35.82615 250.37109,34.99965C250.37109,34.03832 249.7562,33.42419 248.9391,33.70499C248.25806,33.93903 247.97307,35.02816 248.54176,35.78765C249.09824,36.53082 250.12114,36.59248 250.79643,37.13032C251.53015,37.71468 252.37109,37.70499 253.12827,37.70499C254.19643,37.70499 254.9071,37.88051 255.85027,37.68415C256.71869,37.50336 257.48346,36.78914 257.93509,36.06899C258.42319,35.2907 258.24814,34.40419 258.94043,33.59032C259.44431,32.99797 260.3732,32.63249 260.96042,32.10499C261.69775,31.44263 262.35309,30.72021 262.37109,29.85432C262.38995,28.94818 263.11935,28.71305 263.33508,29.56632C263.57349,30.50932 263.36017,31.29439 263.37109,32.20499C263.38177,33.09451 264.18347,33.43679 264.8031,33.87432C265.50369,34.36902 265.37473,35.65933 265.94577,36.25832C266.52466,36.86554 267.18207,37.3863 267.94577,37.69432C268.75079,38.01902 269.66577,37.70499 270.65509,37.70499C271.53775,37.70499 272.36624,37.741 272.37109,38.59165C272.37643,39.53036 272.41437,40.2402 272.87109,41.18415C273.27731,42.02371 273.10254,43.03915 273.81375,43.58382C274.39319,44.02758 275.22159,44.42591 275.41925,45.05682C275.74332,46.09118 276.29324,46.80141 276.9711,47.26899C277.72308,47.78771 278.70444,47.70499 279.62177,47.70499C280.36575,47.70499 281.40311,47.70499 282.17642,47.70499C283.1391,47.70499 283.87109,47.70499 285.03775,47.70499C285.85025,47.70499 286.6947,47.74086 287.41275,47.68415C288.54364,47.59485 289.33102,47.38193 290.10977,47.09432C291.0538,46.74567 291.71759,46.29059 292.33908,45.81965C293.1355,45.21618 293.87564,44.71137 294.36575,44.35765C295.41028,43.60381 295.95242,43.11833 296.67108,42.40499C297.17294,41.90685 297.89081,40.68038 298.37109,40.99032C299.0556,41.43205 298.37109,42.70499 298.37109,43.59032C298.37109,44.53032 298.34598,45.22128 298.37109,46.29432C298.39194,47.18489 299.09012,47.62492 299.78009,47.75765C300.77814,47.94965 301.52307,48.31512 302.48843,48.62232C303.17334,48.84028 304.13721,49.27868 304.89194,49.70499C305.42072,50.00365 306.43674,50.53541 307.37109,50.66332C308.04987,50.75624 309.05377,50.70499 309.85025,50.70499C311.03775,50.70499 311.7562,50.77964 312.70444,50.37165C313.41,50.06808 314.08902,49.4955 315.03775,49.03832C315.69083,48.72361 316.70041,48.50111 317.39194,48.18415C318.38293,47.72995 318.98535,47.45309 319.80042,46.99032C320.61804,46.5261 321.31018,45.83281 321.37109,44.99965C321.42407,44.27492 320.87109,43.70499 319.92844,43.70499C319.22177,43.70499 318.37109,43.87565 318.37109,44.70499C318.37109,45.68415 318.36365,46.64402 319.07642,46.70499C320.03424,46.78692 320.89194,46.70745 321.85025,46.70499C322.72375,46.70274 323.27188,46.20863 323.81375,45.38366C324.16974,44.84166 324.73355,44.14274 325.30975,43.35165C325.8139,42.65948 326.36575,42.09437 326.37109,41.18415C326.37674,40.221 326.37109,39.53032 326.37109,38.46215C326.37109,37.60515 326.37109,36.67965 326.37109,35.78765C326.37109,34.99965 326.465,34.15429 326.94577,33.66899C327.50171,33.10781 327.38809,32.09558 327.79642,31.29432C328.18649,30.5289 328.41122,29.70438 328.37094,28.72649C328.33701,27.90261 327.94421,27.1619 327.39642,26.31565C326.98685,25.68296 326.21167,25.10016 325.6991,24.51965C325.08627,23.8256 324.38263,23.42336 323.62177,23.15165C322.5343,22.76332 321.7204,22.71685 320.82843,22.70482C320.12042,22.69527 319.10559,22.71911 318.18094,22.35232C317.45401,22.06396 316.53568,21.72417 315.76978,21.70632C314.77588,21.68315 314.02826,21.70252 313.00708,21.70499C312.07559,21.70724 311.08881,22.5515 311.72375,22.70049C312.44632,22.87003 312.90057,21.59418 313.28577,20.78765C313.62735,20.07244 313.48608,18.96572 313.01843,18.35232C312.4422,17.59653 311.60358,17.55678 310.73511,17.13032C309.91455,16.72739 309.11472,16.88231 308.25644,16.41832C307.45602,15.98561 307.15955,14.9924 306.67108,14.41482C306.04932,13.67961 305.03717,13.72828 304.12042,13.69432C303.37549,13.66673 302.36377,13.37766 301.68008,13.05765C300.8309,12.66019 300.34769,12.14322 301.01843,11.70949C301.68576,11.27796 302.15616,10.52691 302.37109,9.72582C302.6037,8.85887 303.34259,8.34913 303.37109,7.40949C303.3992,6.48375 303.38705,5.77344 302.93509,4.89032C302.4696,3.98075 301.64783,3.69473 300.89194,3.20499C300.18048,2.74404 299.30536,2.74303 298.61108,2.66899C297.50482,2.551 296.85226,1.95815 295.94977,1.74099C295.06238,1.52746 294.36575,1.70499 293.37643,1.70499C292.33908,1.70499 291.56577,1.70499 290.60309,1.70499C289.87109,1.70499 289.1391,1.70499 287.93359,1.70499C287.0871,1.70499 286.37109,1.48365 286.20444,0.70499L285.35025,0.70499" id="svg_30" stroke-width="3" stroke="#000" fill="none"/>
  <path t="60136,60160,60169,60176,60185,60192,60201,60209,60212,60222,60228,60237,60244,60260,60260,60280,60288,60340,60349,60357,60357,60365,60373,60377,60385,60393,60401,60417,60425,60425,60433,60437,60449,60449,60452,60453,60453,60461,60461,60469,60469,60469,60477,60477,60485,60497,60505,60521,60536,60544,60544,60544,60553,60553,60557,60564,60564,60572,60580,60580,60588,60605,60605,60612,60616,60616,60616,60633,60633,60636,60647,60648,60650,60656,60664,60664,60671,60671,60681,60692,60732,60752,60752,60768,60784,60797,60797,60806,60813,60813,60821,60828,60828,60837,60844,60852,60852,60856,60856,60872,60880,60889,60904,60905,60924,60939,60999,61008,61024,61033,61040,61041,61041,61044,61044,61055,61055,61060,61060,61068,61076,61084,61092,61092,61105,61113,61121,61136,61136,61144,61212,61212,61224,61232,61232,61240,61249,61256,61257,61265,61272,61277,61277,61285,61300,61317,61324,61332" d="M363.37109,15.70499C363.41275,16.70499 364.2684,16.78777 365.03775,17.53832C365.57809,18.06549 366.0423,18.72442 366.34576,19.55565C366.63324,20.3431 367.34576,20.70499 368.13275,20.70499C369.01926,20.70499 370.06912,20.93144 370.87109,20.70499C371.68558,20.475 371.81512,19.47634 372.37558,18.70049C372.84775,18.04683 372.90958,17.75298 372.49258,18.58382C372.11588,19.33442 372.37109,20.22232 372.37109,21.18415C372.37109,22.10499 372.37109,23.00049 372.37109,23.87432C372.37109,24.70499 372.28061,25.77231 372.91275,26.20499C373.76132,26.78582 374.66129,26.71346 375.53909,26.70499C376.39215,26.69676 377.32605,26.43316 378.03244,26.13032C378.88934,25.76295 379.65656,25.85335 380.60309,25.53565C381.45047,25.25123 381.93018,24.39244 382.91376,23.94782C383.57977,23.64675 384.41037,23.803 385.40042,23.42099C386.2225,23.10379 387.12976,23.1208 387.94577,22.66899C388.59506,22.30948 388.35168,22.34242 387.94577,23.16232C387.517,24.02836 387.45001,24.71354 387.34576,25.45432C387.18903,26.56822 386.62421,27.22309 386.4071,28.11565C386.19171,29.00121 386.37109,29.87965 386.37109,30.81965C386.37109,31.70499 386.02701,32.60755 386.45642,33.41965C386.91016,34.27779 386.9733,35.01202 387.73727,35.59065C388.51364,36.17865 389.37643,35.70499 390.36575,35.70499C391.22809,35.70499 392.16843,35.70499 393.00708,35.70499C394.02377,35.70499 394.71841,35.70987 395.73511,35.70499C396.67111,35.70049 397.43781,35.23543 397.89194,34.70499C398.49557,33.9999 399.34961,33.72583 400.35025,33.70499C401.24942,33.68626 400.517,33.65493 400.37109,34.27299C400.17258,35.11387 400.17157,36.31808 400.72375,36.70499C401.40424,37.18177 402.14066,37.55047 403.00708,37.69432C403.84372,37.83323 404.73187,37.85956 405.73511,37.69432C406.60297,37.55138 407.33978,37.26566 408.08575,36.62099C408.67929,36.10804 408.89166,35.17285 409.55643,34.56632C410.29935,33.88849 411.2261,33.65507 411.37109,32.70499C411.50363,31.83638 411.37109,30.98899 411.37109,30.13699C411.37109,29.27299 411.60681,28.03425 411.01843,27.70499C410.6467,27.49696 411.45566,27.7369 412.37109,27.70499C413.19144,27.67639 414.14581,27.43958 414.87109,27.18415C415.61047,26.92377 416.62656,26.46608 417.16843,25.81965C417.75931,25.11476 418.07062,24.30097 418.69226,23.72649C419.29947,23.16533 420.01779,22.43903 420.39194,21.70499C420.77859,20.94643 421.32486,20.22528 421.36661,19.41482C421.41772,18.4223 420.92856,17.74789 420.39194,17.20499C419.91257,16.72001 418.45346,16.98585 418.39243,16.13032C418.34982,15.53315 419.73138,16.05659 420.65509,15.70232C421.44684,15.39867 421.28397,14.27583 421.98175,13.69032C422.67441,13.10913 423.52625,12.68517 424.18576,12.31565C425.0239,11.84604 425.87595,11.41649 426.20444,10.53832C426.49365,9.76516 426.37109,8.81932 426.37109,7.98899L425.72375,7.64782L425.20175,6.98899L424.35025,6.72582" id="svg_31" stroke-width="3" stroke="#000" fill="none"/>
  <polyline timestamps="61834,61916,62056" startTime="1502000707291" id="svg_32" points="396.3710946199135,47.70498718693852 396.3710946199135,48.58348718693851 397.08709461991344,48.70498718693851 " stroke-linecap="round" stroke-width="3" stroke="#000" fill="none"/>
  <path t="63308,63356,63364,63372,63380,63380,63392,63400,63400,63408,63409,63416,63424,63433,63433,63436,63436,63444,63444,63444,63453,63453,63459,63460,63468,63468,63468,63475,63476,63476,63485,63485,63492,63492,63500,63500,63500,63505,63505,63505,63513,63521,63521,63521,63528,63528,63528,63537,63538,63545,63545,63553,63553,63553,63560,63560,63569,63569,63577,63577,63577,63581,63581,63581,63590,63590,63590,63597,63597,63606,63606,63612,63613,63613,63616,63624,63624,63624,63632,63632,63640,63648,63648,63648,63656,63664,63672,63672,63676,63676,63684,63692,63700,63700,63708,63717,63724,63724,63732,63732,63736,63744,63752,63752,63753,63760,63760,63768,63776,63784,63784,63792,63792,63800,63800,63804,63805,63812,63822,63822,63828,63828,63838,63838,63844,63852,63856,63856,63869,63880,63889,63896,63932,63940,63948" d="M253.37109,73.70499C254.22176,73.70499 255.19803,73.43144 255.98177,73.77699C256.8353,74.1533 256.784,75.31953 257.65778,75.70499C258.46289,76.06016 259.37109,75.70499 260.34961,75.70499C261.16977,75.70499 262.07111,75.70499 262.89194,75.70499C263.85641,75.70499 264.58176,75.70499 265.57126,75.70499C266.39194,75.70499 267.53775,75.70499 268.31927,75.70499C269.10977,75.70499 270.03775,75.70499 270.98575,75.70499C271.85776,75.70499 272.61777,75.70499 273.53775,75.70499C274.32376,75.70499 275.14575,75.70499 276.20444,75.70499C277.1351,75.70499 277.96976,75.70499 278.9711,75.70499C279.77109,75.70499 280.77243,75.70499 281.60709,75.70499C282.53775,75.70499 283.32376,75.70499 284.14575,75.70499C285.20444,75.70499 286.12442,75.70499 286.88443,75.70499C287.89194,75.70499 288.70496,75.68306 289.63242,75.71565C290.42383,75.74346 291.45444,75.91065 292.1351,76.13032C292.9762,76.40176 293.96985,76.67234 294.77109,76.70049C295.77182,76.73564 296.60709,76.70499 297.53775,76.70499C298.31927,76.70499 299.10977,76.70499 300.22827,76.70499C300.98575,76.70499 302.03278,76.70499 302.83276,76.70499C303.79242,76.70499 304.59644,76.70499 305.41843,76.70499C306.44977,76.70499 307.14575,76.70499 308.05508,76.70499C309.05508,76.70499 309.87109,76.70499 310.6871,76.70499C311.68576,76.70499 312.56042,76.70499 313.57111,76.70499C314.37109,76.70499 315.37109,76.70499 316.16043,76.70499C316.88577,76.70499 317.89197,76.71248 318.91376,76.70482C319.62183,76.69951 320.41061,76.79819 321.40042,76.42099C322.22382,76.1072 323.04303,75.71032 323.91376,75.70499C324.87106,75.69912 325.60309,75.70499 326.6991,75.70499C327.57242,75.70499 328.53775,75.70499 329.19644,75.70499C330.20444,75.70499 331.06659,75.70499 331.9711,75.70499C332.89194,75.70499 333.69241,75.70499 334.54578,75.70499C335.48575,75.70499 336.4711,75.70499 337.37109,75.70499C338.12827,75.70499 339.02377,75.70499 339.88708,75.70499C340.85025,75.70499 341.79242,75.70499 342.70444,75.70499C343.37643,75.70499 344.36575,75.70499 345.40042,75.70499C346.16843,75.70499 347.07956,75.60647 347.89194,75.72582C348.88104,75.87115 349.55957,76.36451 350.57092,76.58349C351.33893,76.74978 352.34976,76.70499 353.12375,76.70499C354.02377,76.70499 354.88708,76.70499 355.87109,76.70499C356.6926,76.70499 357.58176,76.70499 358.57092,76.70499C359.35025,76.70499 360.34961,76.70499 361.16977,76.70499C362.07111,76.70499 362.89194,76.70499 363.8551,76.70499C364.71841,76.70499 365.60944,76.70499 366.53775,76.70499C367.47092,76.70499 368.31393,76.70499 369.07642,76.70499L370.03775,76.70499L370.89194,76.70499" id="svg_33" stroke-width="3" stroke="#000" fill="none"/>
  <path t="64114,64172,64181,64188,64204,64212,64221,64221,64224,64224,64232,64232,64240,64240,64248,64256,64265,64265,64265,64272,64272,64276,64284,64292,64292,64292,64300,64308,64308,64316,64316,64324,64324,64332,64338,64338,64338,64344,64344,64344,64352,64353,64353,64360,64360,64360,64369,64369,64369,64369,64376,64376,64376,64384,64384,64384,64384,64391,64391,64391,64400,64400,64404,64404,64404,64413,64413,64413,64421,64421,64421,64428,64428,64438,64438,64438,64444,64444,64453,64453,64453,64457,64457,64457,64464,64464,64464,64472,64481,64481,64481,64489,64489,64497,64497,64505,64513,64513,64522,64522,64524,64524,64532,64533,64540,64540,64548,64548,64556,64556,64556,64564,64573,64573,64573,64581,64581,64588,64589,64592,64592,64600,64600,64608,64608,64617,64617,64624,64638" d="M388.37109,80.70499C389.22177,80.70499 390.12827,80.70499 390.94577,80.70499C391.89194,80.70499 392.78177,80.70499 393.69241,80.70499C394.54578,80.70499 395.48709,80.70499 396.2551,80.70499C397.20709,80.70499 397.97244,80.70499 398.96658,80.70499C399.71393,80.70499 400.73511,80.70499 401.68008,80.70499C402.70444,80.70499 403.37643,80.70499 404.12042,80.70499C405.22809,80.70499 406.0621,80.70499 406.9711,80.70499C407.91275,80.70499 408.70444,80.70499 409.62177,80.70499C410.36575,80.70499 411.40042,80.70499 412.37109,80.70499C413.12827,80.70499 414.02826,80.70499 414.7756,80.70499C415.76978,80.70499 416.71393,80.70499 417.62292,80.70499C418.70444,80.70499 419.38092,80.70499 420.15643,80.70499C421.20444,80.70499 422.14575,80.70499 422.82376,80.70499C423.79242,80.70499 424.59644,80.70499 425.41843,80.70499C426.44992,80.70499 427.39194,80.70499 428.14044,80.70499C429.34042,80.70499 430.03244,80.70499 430.75644,80.70499C431.48843,80.70499 432.88577,80.70499 433.5351,80.70499C434.46658,80.70499 435.37109,80.70499 436.27109,80.70499C437.17108,80.70499 437.77109,80.70499 438.96976,80.70499C439.85025,80.70499 440.68576,80.70499 441.6871,80.70499C442.37109,80.70499 443.53775,80.70499 444.32376,80.70499C445.14575,80.70499 446.20444,80.70499 446.91843,80.70499C447.82376,80.70499 448.79227,80.70499 449.58575,80.70499C450.36127,80.70499 451.40311,80.70499 452.17642,80.70499C453.14044,80.70499 453.89194,80.70353 454.68842,80.70499C455.91843,80.70724 456.6058,80.68822 457.79242,80.92632C458.32904,81.034 459.13397,81.3338 460.20444,81.53832C461.13788,81.71667 461.82376,81.70274 462.79227,81.70499C463.58575,81.70683 464.60178,81.70499 465.56125,81.70499C466.53775,81.70499 467.20709,81.70499 467.97244,81.70499C468.9711,81.70499 469.77109,81.70499 470.96658,81.70499C471.71393,81.70499 472.61844,81.70499 473.53775,81.70499C474.37109,81.70499 475.36234,81.61205 476.12375,81.76215C477.05734,81.9462 477.75656,82.43744 478.77109,82.61965C479.56192,82.76169 480.57092,82.70499 481.35025,82.70499C482.34991,82.70499 483.18094,82.70499 484.1391,82.70499C484.87109,82.70499 485.60309,82.70499 486.72043,82.70499C487.70444,82.70499 488.37643,82.70499 489.36575,82.70499C490.22827,82.70499 491.11926,82.70499 492.02826,82.70499C492.7756,82.70499 493.7847,82.82404 494.71393,82.64782C495.64883,82.47053 496.23438,81.88805 497.20709,81.74099C497.96463,81.62646 498.96658,81.70499 499.71393,81.70499L500.72443,81.70499L501.65509,81.70499" id="svg_34" stroke-width="3" stroke="#000" fill="none"/>
  <path t="65458,65500,65501,65512,65532,65551,65568,65584,65584,65592,65600,65605,65612,65622,65622,65628,65644,65652,65660,65660,65664,65664,65672,65688,65705,65705,65705,65721" d="M126.37109,70.70499C125.34976,70.70499 124.52043,70.70499 123.6141,70.70499C122.72376,70.70499 121.87109,70.70499 120.94576,70.70499C120.03776,70.70499 119.18576,70.70499 118.25776,70.70499C117.37109,70.70499 116.56976,70.70499 115.61393,70.70499C114.71843,70.70499 114.02376,70.70499 112.91276,70.70499C112.01393,70.70499 111.16976,70.70499 110.20443,70.70499C109.37109,70.70499 108.53776,70.70499 107.6756,70.70499C106.72826,70.70499 105.87109,70.70499 105.03776,70.37165L104.52043,69.85432L103.93909,69.27299L103.08576,68.70499" id="svg_35" stroke-width="3" stroke="#000" fill="none"/>
  <path t="66246,66332,66340,66349,66364,66364,66364,66372,66377,66384,66384,66384,66392,66392,66401,66408,66408,66408,66417,66425,66432,66433,66441,66441,66449,66449,66452,66461,66461,66468,66476,66476,66484,66493,66493,66500,66512,66528,66528,66544,66544,66552,66564,66573,66580,66589,66596,66596,66612,66621,66632,66632,66700,66708" d="M5.37109,68.70499C6.24976,68.70499 7.10539,68.47038 8.01393,68.70499C8.89919,68.93358 9.34838,69.76084 9.88843,70.13699C10.78813,70.76363 11.68009,70.70499 12.70443,70.70499C13.37643,70.70499 14.36576,70.70499 15.2281,70.70499C16.16843,70.70499 17.04309,70.70499 17.91376,70.70499C18.87109,70.70499 19.60309,70.70499 20.55676,70.70499C21.57109,70.70499 22.47126,70.70499 23.25643,70.70499C24.20709,70.70499 24.97243,70.70499 25.96659,70.70499C26.71393,70.70499 27.74576,70.70499 28.69243,70.70499C29.37109,70.70499 30.34959,70.70499 31.37109,70.70499C32.17109,70.70499 33.0071,70.70499 34.02376,70.70499C34.71843,70.70499 35.72847,70.61827 36.65509,70.70499C37.54945,70.78868 38.05265,71.56113 38.94043,71.70499C39.71285,71.83015 40.72443,71.70499 41.59259,71.70499C42.47093,71.70499 43.39193,71.70499 44.23243,71.70499C45.20443,71.70499 46.00943,71.70499 46.89193,71.70499C47.76043,71.70499 48.70443,71.70499 49.52043,71.70499L50.37109,71.87165L50.65509,72.61965" id="svg_36" stroke-width="3" stroke="#000" fill="none"/>
  <path t="76624,76741,76814,76814,76814,76837,76869,76893,76893,76917,76942,76942,76982,77118,77118,77118,77141,77149,77149,77189" d="M355.37109,177.70499C357.04309,177.70499 358.1391,177.70499 358.87109,177.70499C359.60309,177.70499 360.6991,177.70499 361.57111,177.70499C362.47125,177.70499 363.25644,177.70499 364.19644,177.70499C365.20444,177.70499 366.06659,177.70499 366.91275,177.70499C367.91376,177.70499 368.62177,177.70499 369.36575,177.70499C370.55676,177.70499 371.37109,177.70499 372.17108,177.70499L373.12827,177.70499" id="svg_37" stroke-width="3" stroke="#000" fill="none"/>
  <path t="78974,79221,79230,79334,79334,79341,79373,79613,79614,79936,79966,79997,79998,80013,80046,80077,80078,80118,80149,80229,80230,80334,80358,80358,80597" d="M208.37109,161.70499C206.6711,161.70499 205.73509,161.70499 204.8871,161.70499C204.02376,161.70499 203.0071,161.70499 202.1711,161.70499C201.27094,161.70499 200.48576,161.70499 199.43359,161.70499C199.43359,161.70499 200.34959,161.70499 201.16975,161.70499C202.07109,161.70499 203.0071,161.70499 203.85509,161.70499C204.71843,161.70499 205.61392,161.70499 206.57109,161.70499C207.47127,161.70499 208.25642,161.70499 209.19643,161.70499L210.20442,161.70499L210.96043,161.70499L211.85027,161.68416" id="svg_38" stroke-width="3" stroke="#000" fill="none"/>
  <path t="81543,81799,81831,81831,81853,81935,82053,82053,82117,82118,82349,82453,82621,82630,82781,82990,82990,83070,83077,83102,83102,83118,83135,83254,83294,83294,83309,83335,83413,83413,83446,83446,83478,83495,83575,83582,83582,83599,83742" d="M227.37109,157.70499C229.19643,157.71565 230.19502,157.88959 230.96043,158.27965C231.76169,158.68797 232.6756,158.70499 233.53777,158.70499C234.37109,158.70499 235.34959,158.70499 236.16975,158.70499C237.07109,158.70499 238.13976,158.76314 238.36659,158.00049C238.6219,157.14214 238.37109,156.18416 238.37109,155.22099C238.37109,154.53032 238.47993,153.36232 238.37109,153.36232C237.37576,153.36232 238.37109,155.05232 238.37109,156.06898C238.37109,157.00499 238.37904,157.90636 238.37109,158.87166C238.36575,159.51971 238.099,160.6192 237.27109,160.70499C236.37589,160.79774 235.61392,160.70499 234.71843,160.70499C233.85509,160.70499 232.89192,160.70499 231.9711,160.70499C231.06659,160.70499 230.20442,160.70499 229.37109,160.70499L228.39276,160.70515L227.53777,160.87166" id="svg_39" stroke-width="3" stroke="#000" fill="none"/>
 </g>
</svg>