<svg width="280" height="420" xmlns="http://www.w3.org/2000/svg" xmlns:svg="http://www.w3.org/2000/svg" xmlns:xlink="http://www.w3.org/1999/xlink">
 <!-- Created with SVG-edit - http://svg-edit.googlecode.com/ -->
 <g display="inline" class="layer">
  <title>Layer 1</title>
  <path t="0,284,303,325,333,344,364,379,398,405,422,438,469,478,502,510,534,551,583,599,623,631,680,696,720,732,753,779,784,810,842,861,882,915,931,947,955,1011,1052,1084,1111,1132,1148,1165,1181,1197,1213,1230,1246,1262,1285,1311,1329,1345,1366,1382,1399,1415,1431,1439,1464,1488,1496,1504,1512,1529,1536,1569,1577,1595,1612,1628,1652,1659,1676,1698,1714,1722,1738,1754,1770,1787,1795,1813,1830,1834,1851,1875,1896,1911,1927,1940,1964,1981,1989,2005,2021,2029,2045,2063,2080,2096,2113,2117,2134,2150,2160,2165,2182,2198,2215,2231,2239,2255,2271,2280,2296,2303,2319,2330,2346,2362,2368,2384,2401,2412,2428,2432,2443,2457,2465,2473,2497,2500,2505,2514,2530,2545,2548,2565,2570,2578,2598,2602,2618,2630,2634,2646,2650,2667,2678,2682,2694,2710,2715,2724,2740,2756,2764,2780,2787,2813,2821,2845,2853,2868,2880,2901,2917,2928,2945,2961,2974,2982,3002,3031,3046,3063,3071,3087,3103,3112,3135,3147,3168,3192,3208,3225,3265,3281,3305,3326,3354,3386,3402,3410,3426,3459,3477,3498,3523,3532,3572,3612,3645,3661,3693,3701,3725,3741,3761,3782,3791,3808,3839,3846,3862,3895,3918,3935,3943,3976,3992,4024,4043,4048,4064,4097,4121,4153,4170,4186,4202,4226,4243,4266,4291,4339,4380,4444,4533,4606,4719,4937,4978,5058,5139,5171,5220,5236,5293,5301,5357,5365,5438,5494,5527,5607,5656,5704,5762,5801,5834,5931,6044,6124,6181,6245,6351,6408,6504,6553,6609,6690,6787,6884,6916,6981,7029,7150" d="M112.5,95.5C111.6215,95.5 111.03639,96.05707 110.27866,96.50017C109.58199,96.90756 108.94638,97.41594 108.4955,97.85267C107.92176,98.4084 107.46312,98.90028 106.92533,99.48933C106.47723,99.98014 105.97479,100.35302 105.49866,100.784C104.90455,101.32177 104.07657,101.42626 103.52084,102C103.08411,102.45088 102.58879,103.07018 102.07467,103.5C101.55738,103.93247 101.0826,104.24543 100.55717,104.85267C99.96027,105.5425 99.923,106.45826 99.464,107.07467C98.98539,107.71741 98.15144,108.04116 97.33334,108.5C96.6355,108.89139 96.61687,109.67436 96.5,110.55717C96.38837,111.40044 95.50008,111.58533 95.5,112.50134C95.49992,113.3785 94.584,113.48418 94.5,114.14733C94.38347,115.06731 94.5,116 94.5,116.85267C94.5,117.784 94.5,118.66666 94.5,119.55717C94.5,120.464 93.72066,120.9869 93.5,121.784C93.24992,122.68736 93.5,123.58533 93.5,124.5C93.5,125.3785 93.5,126.216 93.5,127.14733C93.5,128 93.5,128.92534 93.5,129.784C93.5,130.72133 93.5,131.58533 93.5,132.5C93.5,133.37866 93.45847,134.24261 93.92533,134.92534C94.45479,135.69962 94.08499,136.73366 94.72134,137.37849C95.28634,137.95103 95.50146,138.48346 96.07467,139.07466C96.71127,139.73125 97.54199,140.05061 98.14733,140.55716C98.83284,141.13078 99.33211,141.10333 100.07467,141.536C100.76707,141.93944 101.14735,142.49419 102.07467,142.5C102.92538,142.50534 103.37507,143.27383 104,143.5C104.8701,143.8149 105.87502,143.3044 106.72134,143.50017C107.50368,143.68114 107.784,144.5 108.72134,144.5C109.55267,144.5 110.47916,144.5 111.3785,144.5C112.216,144.5 113.07467,144.5 114,144.5C114.92533,144.5 115.784,144.5 116.72134,144.5C117.55267,144.5 118.47467,144.5 119.37867,144.5C120.216,144.5 121.07467,144.5 122,144.5C122.92533,144.5 123.784,144.5 124.72134,144.5C125.55267,144.5 126.47467,144.5 127.37867,144.5C128.2045,144.5 129.064,144.5 130,144.5C130.92534,144.5 131.784,144.5 132.72133,144.5C133.55267,144.5 134.47467,144.5 135.37866,144.5C136.216,144.5 136.89671,144.28346 137.584,143.784C138.29518,143.26717 139.245,143.73056 140.14734,143.5C141.00642,143.2805 141.55266,142.50226 142.47467,142.5C143.37866,142.49779 144.22397,142.5132 144.936,142.07466C145.70757,141.59947 146.58846,141.59027 147.5,141.5C148.3457,141.41626 148.782,140.56126 149.66667,140.5C150.52403,140.44063 151.09633,139.89301 151.97917,139.52083C152.7722,139.18651 153.41362,138.55887 154.216,138.5C155.10899,138.43448 155.79799,137.94118 156.584,137.50133C157.35156,137.07181 157.89436,136.78036 158.784,136.49867C159.55663,136.25403 160.08215,135.61169 160.7955,135.14734C161.58563,134.63301 162.1954,134.23065 162.784,133.584C163.36165,132.94936 164.08029,132.67685 164.784,132.216C165.56613,131.7038 165.90726,131.23022 166.464,130.48933C166.9859,129.79482 166.99716,128.99553 167.784,128.49867C168.46158,128.0708 168.88794,127.63174 169.464,127.07467C169.96539,126.5898 170.18063,126.01722 170.5045,125.14733C170.78319,124.39877 171.38678,123.9882 171.85266,123.4955C172.36258,122.95622 173.12347,122.78109 173.5,122.14733C173.94368,121.40052 174.12198,120.84254 174.5,120.216C174.95599,119.46024 175.11247,118.86726 175.5,118.27866C175.97438,117.55814 175.5,116.5 175.5,115.62133C175.5,114.784 175.5,113.88934 175.5,113.02084C175.5,112.07467 175.5,111.216 175.5,110.27866C175.5,109.41467 175.5,108.4955 175.5,107.6215C175.5,106.784 175.60335,105.7907 175.14734,105.14733C174.60936,104.38833 173.99203,104.05204 173.50133,103.41467C172.94986,102.69836 173.12314,102.0282 172.44284,101.5045C171.74101,100.96423 171.46548,100.7757 170.784,100.5C170.01727,100.18983 169.20474,100.0725 168.5,99.48933C167.85332,98.95421 167.55223,98.39487 166.92534,97.92533C166.21565,97.39379 165.75983,96.95161 165.216,96.5C164.65045,96.03033 164.44286,95.50225 163.536,95.5C162.66667,95.49784 162.54451,94.64509 161.85266,94.5C160.94508,94.30967 160.00337,94.59663 159.4955,94.14733C158.89725,93.61807 158.07466,93.5 157.216,93.5C156.27867,93.5 156.04877,93.07291 155.44284,92.5045C154.78145,91.88406 153.66667,92.5 152.784,92.5C151.92534,92.5 150.92697,92.57327 150.5,92.07467C150.06143,91.56254 149.27867,91.5 148.33333,91.5C147.464,91.5 146.58533,91.5 145.66667,91.5C144.85266,91.5 143.92534,91.5 143.07466,91.5C142.14734,91.5 141.0007,91.04746 140.5,91.66666C139.95338,92.34265 140.07545,93.003 139.5,93.55717C138.88728,94.14722 138.20782,94.16677 137.58533,94.784C137.04633,95.31844 136.86346,95.95675 136.33333,96.5C135.77454,97.07263 135.27867,97.5 134.41467,97.5C133.52083,97.5 132.62151,97.5 131.784,97.5C130.92534,97.5 130.34355,98.15025 129.48933,98.5C128.65274,98.84253 127.784,98.5 126.85267,98.5C126,98.5 125.07467,98.5 124.14733,98.5C123.27866,98.5 122.41467,98.5 121.48933,98.5C120.58533,98.5 119.75739,98.54153 119.07467,98.07467C118.3004,97.54521 117.464,97.5 116.58533,97.5L115.784,97.41467L115.5,96.536L114.66666,96.5" id="svg_1" stroke-width="3" stroke="#000" fill="none"/>
  <path t="11739,12082,12098,12114,12146,12163,12195,12227,12250,12263,12303,12324,12364,12396,12432,12447,12463,12485,12510,12533,12558,12574,12614,12630,12647,12687,12696,12731,12760,12783,12795,12836,12876,12917,12937,12965,12994,13261,13280,13284,13296,13300,13317,13333,13341,13349,13366,13398,13430,13471,13511,13535,13567,13583,13608,13640,13664,13705,13737,13770,13785,13810,13831,13867,13972,14165,14311,14513,14553,14568,14580,14596,14613,14617,14634,14653,14658,14731,14739,14820,14830,14892,14941,14981,15030,15048,15073,15111,15159,15191,15224,15267,15312,15368,15393,15442,15469,15506,15539,15579,15611,15635,15647,15662,15692,15733,15773,15821,15862,15894,15934,15967,15999,16091,16156,16476,16484,16492,16500,16508,16516,16516,16523,16532,16540,16540,16549,16556,16566,16572,16583,16588,16604,16616,16632,16636,16653,16669,16686,16696,16734,16750,16790,16815,16985,17049,17073,17114,17445,17478,17510,17534,17550,17566,17574,17590,17607,17631,17650,17654,17679,17715,17744,17768,17792,17849,17897,17962,18011,18051,18059,18091,18123,18156,18165,18212,19254,19295,19319,19342,19359,19375,19408,19432,19440,19448,19473,19480,19505,19529,19545,19554,19577,19593,19609,19634,19654,19658,19674,19699,19723,19739,19755,19779,19804,19836,19860,19904,19925,19932,19965,19989,19997,20063,20120,20176,20225,20265,20281,20337,20410,20434,20483,20547,20566,20589,20619,20627,20643,20659,20670,20675,20688,20693,20699,20708,20716,20724,20732,20740,20748,20757,20765,20780,20790,20796,20813,20821,20839,20845,20886,21282,21282,21298,21306,21325,21330,21346,21362,21378,21411,21422,21451,21471,21548,21574,21645,21645,21710,21720,21754,21758,21782,21799,21815,21831,21839,21863,21874,21879,21904,21912,21922,21938,21956,21960,21976,21987,21992,22009,22017,22025,22041,22049,22057,22081,22098,22114,22146,22162,22203,22226,22238,22259,22278,22283,22300,22323,22363,23228,23244,23264,23277,23288,23293,23308,23316,23333,23349,23358,23383,23397,23414,23430,23447,23463,23487,23519,23538,23555,23584,23600,23624,23649,23673,23689,23696,23713,23741,23756,23771,23777,23793,23804,23809,23826,23842,23858,23866,23874,23891,23915,23931,23939,23947,23964,23996,24359,24367,24376,24383,24399,24408,24415,24424,24431,24440,24451,24457,24464,24477,24481,24496,24505,24512,24522,24528,24538,24555,24564,24577,24593,24610,24610,24617,24642,24649,24666,24682,24698,24722,24731,24747,24771,24789,24806,24836,24844,24860,24877,24892,24908,24925,24949,24956,24973,24980,24997,25014,25022,25045,25056,25062,25077,25088,25110,25127,25134,25143,25159,25167,25191,25215,25240,25574,25578,25590,25594,25605,25605,25610,25622,25626,25627,25635,25643,25651,25651,25668,25676,25676,25683,25683,25692,25699,25716,25724,25732,25749,25757,25764,25780,25792,25807,25812,25824,25841,25856,25877,25888,25904,25918,25935,25943,25966,25983,25991,26015,26031,26047,26057,26080,26104,26124,26139,26144,26161,26177,26193,26217,26249,26266,26282,26314,26330,26346,26362,26394,26427,26451,26467,26492,26499,26516,26524,26540,26548,26564,26574,26590,26613,26623,26645,27001,27017,27025,27025,27032,27032,27042,27048,27058,27064,27077,27077,27081,27081,27092,27096,27109,27113,27127,27131,27142,27146,27158,27165,27178,27194,27202,27218,27227,27234,27251,27259,27275,27291,27315,27332,27356,27363,27388,27410,27432,27461,27485,27517,27558,27599,27630,27674,27691,27719,27736,27752,27792,27841,27857,27905,27938,28010,28027,28092,28140,28151,28205,28253,28288,28309,28366,28406,28498,28586,28705,28813,28842" d="M108.5,95.5C107.66666,95.33334 107.54715,94.47342 107.5,93.58533C107.45728,92.7806 106.5286,92.50147 106.5,91.66666C106.47213,90.85315 105.72244,90.55424 105.50134,89.784C105.26441,88.95866 105.5,88 105.5,87.07467C105.5,86.216 105.5,85.27866 105.5,84.41467C105.5,83.51067 106.41627,83.34555 106.5,82.48933C106.58798,81.58963 107.35616,81.44894 107.5,80.55717C107.64179,79.67802 108.30948,79.57211 108.5,78.92533C108.76154,78.03748 109.31513,77.58713 109.5,77C109.77791,76.11739 110.106,75.72478 110.464,75.07467C110.91165,74.26174 110.5,73.216 110.5,72.33334C110.5,71.464 110.09708,70.38954 110.58533,69.784C111.16705,69.06255 111.5,68.62133 111.5,67.7955C111.5,66.9 111.50073,66.02084 111.5,65.07467C111.49933,64.21467 111.03758,63.41966 110.66666,62.66667C110.2995,61.9213 110.5,61 110.5,60.07467C110.5,59.14734 110.5,58.27867 110.5,57.41467C110.5,56.4955 110.5,55.6215 110.5,54.784C110.5,53.85266 110.5,53 110.5,52.07467C110.5,51.14734 110.5,50.27867 110.5,49.41467C110.5,48.4955 110.5,47.6215 110.5,46.784C110.5,45.85266 110.5,45 110.5,44.07467C110.5,43.85266 110.06507,44.97829 110.66666,45.5C111.29433,46.04432 111.72761,46.07425 112.33334,46.66667C112.94711,47.26695 113.1489,47.80626 113.55717,48.55717C113.95583,49.29042 114.34306,50.17161 115.07467,50.48933C115.9239,50.85815 116.49155,51.07201 117,51.5C117.5022,51.92273 117.78539,52.44887 118.72134,52.5C119.50349,52.54273 119.71497,53.4391 120.58533,53.5C121.50841,53.56459 122.38131,53.54192 123,54C123.74732,54.55332 124.66666,54.5 125.536,54.5C126.44283,54.5 127.33334,54.5 128.14734,54.5C129.07466,54.5 129.92534,54.5 130.85266,54.5C131.784,54.5 132.66667,54.5 133.52533,54.5C134.44284,54.5 135.33333,54.5 136.14734,54.5C137.07466,54.5 137.92534,54.5 138.85266,54.5C139.784,54.5 140.66667,54.5 141.536,54.5C142.44284,54.5 143.47719,54.90844 144.14734,54.44283C144.84747,53.95639 145.20546,53.44455 146,53C146.79646,52.55438 147.3555,52.00388 147.78534,51.3C148.19778,50.62462 148.9574,49.93892 149.8,49.55267C150.56876,49.20027 151.20111,48.79663 151.88933,48.11067C152.55376,47.44842 152.99408,46.70532 153.5,46.02083C154.01405,45.32535 154.70784,44.93961 155.37866,44.27867C155.99361,43.67279 156.36929,43.11307 156.92534,42.536C157.40671,42.03642 158.02286,41.85659 158.5,41.27867C158.99786,40.67563 159.72844,40.91527 160.33333,40.33333C160.95137,39.73874 161.41467,39.5 162.33333,39.5C163.14734,39.5 163.34424,38.52972 164,38.5C164.61124,38.47229 164.5,39.784 164.5,40.66667C164.5,41.55717 164.5,42.44733 164.5,43.33333C164.5,44.216 164.5,45.07467 164.5,46C164.5,46.85266 163.93837,47.23231 163.536,47.92533C163.07002,48.7279 163.5,49.72133 163.5,50.66667C163.5,51.536 163.5,52.41467 163.5,53.33333C163.5,54.14734 163.38499,55.08247 163.5,55.92533C163.61169,56.74395 164.43906,57.37135 164.5,58.14734C164.5726,59.07182 165.13979,59.65956 165.48933,60.48933C165.83455,61.30882 165.43922,62.25618 165.92534,62.92533C166.43968,63.63335 166.18707,64.56655 166.5,65.41467C166.76648,66.13689 167.34099,66.79844 167.5,67.66666C167.64436,68.4549 168.24693,68.96304 168.50133,69.784C168.73853,70.54945 169.45726,70.85372 169.5,71.72134C169.54271,72.58849 170.3196,73.0904 170.5,73.92533C170.69585,74.83175 170.48174,75.78419 170.5,76.66666C170.51801,77.53656 171.3196,78.0904 171.5,78.92533C171.68135,79.76463 171.5,80.72134 171.5,81.58533C171.5,82.48933 171.06177,83.55679 171.58533,84.216C172.13052,84.90247 172.0827,85.31473 172.5,86.14733C172.77965,86.70528 173.14835,87.21658 173.5,88.07467C173.73097,88.63828 174.49466,89.07462 174.5,90C174.50533,90.92532 174.468,91.78455 174.5,92.72134C174.52859,93.55863 175.31758,94.09084 175.5,94.92533C175.69804,95.83128 176.17462,96.23994 176.5,96.85267C176.90741,97.61987 177.12198,98.15746 177.5,98.784C177.95599,99.53976 178.07114,100.07111 178.5,100.72134C179.02048,101.51048 178.61092,102.42906 179.07466,103.11066C179.56976,103.83835 179.4827,104.81135 180,105.5C180.46999,106.12567 180.21091,107.05197 180.51067,107.88934C180.77441,108.62608 181.41907,109.17518 181.92534,109.88934C182.47896,110.6703 183.16837,111.13798 183.51067,111.936C183.87532,112.78613 184.04587,113.70644 184.66667,114.33334C185.26285,114.93536 185.56914,115.39417 186.07466,116.07467C186.56787,116.73859 186.79149,117.56537 187.216,118.216C187.67566,118.92049 187.86882,119.75417 188.5,120.33334C189.05928,120.84653 189.67548,121.08572 190.216,121.58533C190.89412,122.21213 190.87781,123.08372 191.37849,123.72134C191.87607,124.35499 192.29817,124.80315 192.5,125.66666C192.6821,126.44576 193.56537,126.79148 194.216,127.216C194.92049,127.67566 195.08629,128.26266 195.536,129.07466C195.89558,129.72392 196.5,130.07466 197,130.5C197.5,130.92534 198.00456,131.35751 198.47917,132C198.97897,132.67659 199.45728,133.4126 199.5,134.216C199.54752,135.10941 199.63643,135.94878 200.14734,136.4955C200.61032,136.99092 200.65102,137.88065 201.14734,138.55267C201.65623,139.24174 202.14278,139.83817 202.44284,140.7955C202.70396,141.62859 202.97014,142.23401 203.464,142.92534C203.95027,143.60605 204.2489,144.41074 204.5,145.14734C204.7861,145.98659 205.5,146.55716 205.5,147.47917C205.5,148.37849 206.20963,148.89308 206.5,149.72133C206.77718,150.51193 207.10081,151.17015 207.5,151.92534C207.81689,152.52483 208.48958,152.99982 208.5,153.92534C208.50966,154.78394 208.99931,155.04747 209.5,155.66667C210.05991,156.35912 209.5,157.44733 209.5,158.33333C209.5,159.2045 209.53844,160.02519 210,160.52083C210.54437,161.10538 210.34023,162.08531 210.85266,162.85266C211.33281,163.57166 211.14774,164.44147 211.55716,165.14734C212.02573,165.95517 212.5,166.51067 212.5,167.41467C212.5,168.216 212.40027,169.20676 212.85266,169.85266C213.39265,170.62363 213.5,171.44284 213.5,172.33333C213.5,173.14734 213.5,174.07466 213.5,174.92534C213.5,175.85266 213.91591,176.57515 214.33333,177.33333C214.6998,177.99895 214.25009,179.03439 214.5,179.92534C214.68314,180.57823 215.18755,180.98024 215.5045,181.85266C215.78287,182.61887 216.49466,183.07462 216.5,184C216.50533,184.92532 216.9567,185.55038 217.37849,186.37866C217.73164,187.07214 217.36472,188.08549 217.5,188.92534C217.64383,189.81824 218.43909,190.37209 218.5,191.216C218.56181,192.07243 219.15025,192.65645 219.5,193.51067C219.79959,194.24237 219.5,195.2 219.5,196.14284C219.5,197.02083 219.40454,197.94453 219.784,198.7C220.21957,199.5672 220.54785,200.34424 221,201.02083C221.49796,201.76598 221.22281,202.76477 221.55716,203.55267C221.90065,204.36212 222.36444,205.03249 222.784,205.78534C223.22279,206.57272 223.55534,207.37526 224,208.02083C224.50838,208.75891 224.20538,209.77966 224.58533,210.58533C224.92435,211.3042 225.39394,212.00662 225.5,212.85266C225.61153,213.74228 226.33527,214.27266 226.49867,215.21466C226.6458,216.06281 227.35606,216.54872 227.5,217.416C227.65019,218.32095 227.08835,219.26175 227.536,220.07466C227.894,220.72479 228.5,221.07466 228.5,222C228.5,222.92534 228.5,223.784 228.5,224.72133C228.5,225.584 228.5,226.47467 228.5,227.37849C228.5,228.216 228.5,229.07466 228.5,230C228.5,230.936 228.5,231.7955 228.5,232.72133C228.5,233.584 228.1655,234.61646 228.66667,235.33333C229.16704,236.04904 229.5,236.66667 229.5,237.5C229.5,238.44284 230.20569,238.93913 230.464,239.88933C230.6989,240.75336 230.5,241.66667 230.5,242.5C230.5,243.44284 230.26881,244.23343 230.5,245.14284C230.71944,246.00601 231.5,246.55716 231.5,247.464C231.5,248.30133 231.5,249.2 231.5,250.10001C231.5,250.91066 231.5,251.82133 231.5,252.67467C231.5,253.61467 231.5,254.60001 231.5,255.5C231.5,256.29999 231.5,257.20001 231.5,258.02084C231.5,258.98267 231.5,259.79016 231.5,260.78665C231.5,261.66666 231.5,262.5 231.5,263.47849C231.5,264.29868 231.50528,265.20004 231.5,266.064C231.49466,266.93607 230.88031,267.62823 230.536,268.47467C230.1951,269.31268 230.5,270.2045 230.5,271.064C230.5,272.02084 230.74251,272.92322 230.49867,273.784C230.27779,274.56375 229.50534,275.07462 229.5,275.92532C229.49419,276.85263 229.70641,277.86642 229.14734,278.44284C228.63789,278.96811 228.78967,279.79456 228.44284,280.55716C228.09731,281.31693 227.80214,281.97748 227.4955,282.85266C227.23137,283.60648 226.63905,283.8631 226.5,284.784C226.38808,285.52518 225.52859,285.85126 225.5,286.72134C225.47162,287.58487 224.92886,288.07114 224.5,288.72134C224.04228,289.41531 224.24428,289.88135 223.58533,290.50134C222.9762,291.07446 223.58925,292.20328 223.07466,292.92532C222.57898,293.62085 222.53047,294.46451 222.5,295.33334C222.47141,296.14883 221.56097,296.49234 221.5,297.216C221.42181,298.14404 220.8492,298.65854 220.5,299.52084C220.16451,300.3493 220.5,301.33334 220.5,302.14734C220.5,303.02084 220.5,303.88934 220.5,304.85718C220.5,305.69867 220.5,306.66666 220.5,307.52533C220.5,308.41467 220.5,309.33334 220.5,310.14734C220.5,311.07468 220.5,311.92532 220.5,312.86166C220.5,313.82132 220.5,314.5 220.5,315.47849C220.5,316.29868 220.44284,317.20001 220,318C219.55716,318.79999 219.5,319.70132 219.5,320.66666C219.5,321.32535 219.5,322.33334 219.5,323.1955C219.5,324.10001 219.5,325 219.5,325.89999C219.5,326.79999 219.5,327.70001 219.5,328.60001C219.5,329.5 219.5,330.37866 219.5,331.2045C219.5,332.14282 219.5,333 219.5,333.936C219.5,334.7955 219.5,335.7215 219.5,336.59982C219.5,337.5 219.5,338.37866 219.5,339.216C219.5,340.14734 219.5,341 219.5,341.92532C219.5,342.784 219.5,343.72134 219.5,344.58401C219.5,345.50449 219.5,346.37851 219.5,347.216C219.5,348.14734 219.5,349 219.5,349.92532C219.5,350.784 219.5,351.72134 219.5,352.58533C219.5,353.50449 219.95804,354.51486 219.5,355.216C219.11339,355.8078 218.5,356.07468 218.5,357C218.5,357.85266 217.97708,358.14337 217.5,358.72134C217.00136,359.32544 216.57431,359.58862 215.92534,360.07468C215.21565,360.6062 214.13359,360.29358 213.55716,360.85266C213.03191,361.36212 212.33333,361.5 211.44284,361.5C210.55716,361.5 209.66667,361.5 208.85266,361.5C207.92534,361.5 207,361.5 206.5,361.14734L206.216,360.49866L205.536,360.07468" id="svg_2" stroke-width="3" stroke="#000" fill="none"/>
  <path t="29506,29786,29808,29832,29849,29865,29882,29913,29939,29956,29977,29998,30019,30035,30058,30074,30090,30123,30156,30167,30195,30253,30297,30318,30333,30354,30376,30391,30463,30499,30511,30555,30591,30632,30667,30693,30716,30728,30745,30778,30802,30826,30850,30866,30891,30914,30943,30972,31019,31068,31094,31145,31173,31206,31229,31248,31278,31298,31319,31331,31343,31378,31403,31441,31484,31529,31891,31910,31916,31928,31943,31959,31965,31993,32021,32029,32070,32095,32112,32150,32182,32216,32247,32280,32304,32311,32337,32361,32368,32380,32394,32442,32449,32486,32526,32546,32571,32595,32636,32660,32693,32716,32749,32764,32783,32809,32815,32857,32881,32894,32938,32961,32999,33083,33105,33766,33774,33786,33790,33806,33822,33830,33864,33870,33881,33903,33915,33921,33935,33946,33960,33985,33999,34008,34033,34040,34066,34082,34099,34115,34134,34148,34166,34181,34196,34215,34221,34243,34258,34275,34300,34300,34324,34340,34349,34371,34387,34404,34416,34431,34448,34478,34494,34518,34534,34550,34574,34590,34615,34639,34655,34670,34686,34713,34731,34747,34759,34776,34807,34815,34840,34866,34883,34904,34914,34932,34938,34969,34985,35018,35042,35059,35075,35091,35115,35148,35180,35213,35245,35269,35294,35309,35325,35341,35374,35402,35415,35434,35463,35495,35502,35528,35544,35552,35559,35575,35584,35600,35607,35632,35640,35668,35683,35690,35704,35715,35731,35750,35764,35786,35793,35818,35825,35851,35857,35883,35915,35947,35980,36012,36045,36077,36101,36141,36148,36201,36230,36290,36296,36368,36424,36455,36497,36553,36610,36650,36675,36715,36756,36852,37038,37111,37191,37539,37693,37749,37854,37919,37943,37983,38056,38088" d="M205.5,359.5C205.5,358.47916 205.91397,357.47012 205.5,356.784C205.12198,356.15747 204.5,355.62149 204.5,354.784C204.5,353.92532 204.5,353 204.5,352.07468C204.5,351.216 204.5,350.27866 204.5,349.44284C204.5,348.52084 204.5,347.62149 204.5,346.784C204.5,345.92532 204.17812,344.93823 204.51067,344.07468C204.77625,343.38501 205.5,343.07468 205.5,342.14734C205.5,341.27866 205.18773,340.22794 205.784,339.58533C206.31381,339.01434 206.5,338.44284 206.5,337.53601C206.5,336.66666 206.82578,336.20245 207.37849,335.5C207.82758,334.92926 207.5,333.85266 207.5,333C207.5,332.07468 207.45262,331.14606 207.5,330.27866C207.54272,329.49649 208.45729,329.21909 208.5,328.33334C208.54187,327.465 208.5,326.58533 208.5,325.66666C208.5,324.85266 208.5,323.92532 208.5,323.07468C208.5,322.14734 208.5,321.27866 208.5,320.33334C208.5,319.46399 208.21843,318.54111 208.5,317.66666C208.72342,316.97281 209.5,316.33334 209.5,315.44284C209.5,314.53601 209.48421,313.6665 209.5,312.85266C209.51801,311.9248 210.35492,311.54578 210.5,310.85266C210.67468,310.0181 210.5,309.07468 210.5,308.14734C210.5,307.27866 210.5,306.33334 210.5,305.47916C210.5,304.58401 210.5,303.7955 210.5,302.85718C210.5,302 210.5,301.064 210.5,300.2045C210.5,299.27866 210.21135,298.14413 210.784,297.58533C211.32726,297.05521 211.5,296.44284 211.5,295.55716C211.5,294.66666 211.5,293.85266 211.5,292.92532C211.5,292 211.7556,291.11121 211.49867,290.216C211.2776,289.44574 210.59865,289.21078 210.5,288.27866C210.4162,287.48679 209.58908,287.45966 209.5,286.55716C209.411,285.65558 208.94083,285.26712 208.33333,284.66666C207.72739,284.06772 207.30067,284.0455 206.66667,283.5C206.15996,283.06403 206.32178,282.09546 205.784,281.50134C205.35301,281.02521 204.92697,280.57327 204.5,280.07468C204.06143,279.56253 203.85658,278.97714 203.27867,278.5C202.67563,278.00214 202.27789,278.06757 201.62151,277.49985C200.98465,276.94904 200.9176,276.45468 200.5,275.92532C200.12746,275.45306 199.71559,274.87573 199,274.52084C198.23598,274.14194 197.41592,274.91452 196.85266,275.55267C196.32713,276.14807 195.8511,276.80627 195.44284,277.55716C195.04416,278.29044 194.216,278.784 193.55267,279.44733C193,280 192.27869,280.72134 191.66667,281.33334C191.07466,281.92532 191.04732,282.92554 190.44284,283.49551C189.79842,284.10315 189.35637,284.05325 188.784,284.5C188.22675,284.93494 188.09544,285.67822 187.50133,286.216C187.02521,286.64697 186.51971,287.02054 186,287.5C185.51753,287.9451 184.97066,288.25656 184.5,288.784C184.00102,289.34317 183.8786,289.81442 183.27867,290.37851C182.65599,290.96399 181.81108,291.06717 181.07466,291.5C180.4583,291.86227 180.06502,292.27292 179.33333,292.66666C178.64922,293.03479 177.96687,293.54044 177.47917,294C176.89783,294.54779 176.29062,295.04498 175.47917,295.5C174.70659,295.93323 174.34718,296.15726 173.51067,296.5C172.75162,296.811 171.95161,297.24017 171.5,297.784C171.03033,298.34955 170.90421,298.77231 170.27867,299.37851C169.70497,299.93448 169.08937,300.03601 168.5,300.58533C167.85873,301.18301 167.94006,301.89804 167.44284,302.5C166.90111,303.15582 167.11203,303.858 166.464,304.48932C165.83456,305.10254 165.51849,305.33353 165.5,306.216C165.48199,307.07526 164.64508,307.45422 164.5,308.14734C164.32532,308.9819 164.5,309.92532 164.5,310.78534C164.5,311.69867 164.32771,312.46109 163.85266,313.14734C163.36649,313.84967 163.5,314.85266 163.5,315.72134C163.5,316.66666 163.5,317.52084 163.5,318.41467C163.5,319.216 163.5,320.14734 163.5,321.07468C163.5,321.92532 163.5,322.85266 163.5,323.72134C163.5,324.66666 164.05394,325.7132 163.5,326.41467C163.04384,326.99234 162.5,327.44284 162.5,328.33334C162.5,329.14734 161.72659,329.38391 161.5,330C161.18059,330.86844 161.57254,331.92218 161,332.47916C160.55264,332.91434 160.07681,333.5712 159.66667,334.33334C159.27293,335.065 158.8539,335.66882 158.5045,336.55267C158.17558,337.3847 157.92534,338.07468 157.27867,338.72134C156.66667,339.33334 156.07466,339.92532 155.41467,340.58533C154.85266,341.14734 154.38193,341.89725 153.85266,342.49551C153.40337,343.00339 152.9261,343.42599 152.5,343.92532C152.05983,344.44113 151.6209,344.9924 151.14734,345.50449C150.60501,346.09094 150.01106,346.63092 149.58533,347.41467C149.19424,348.13461 148.92946,348.63678 148.5,349.216C148.07898,349.78384 147.46693,350.03329 146.92534,350.5C146.46968,350.89267 146.03432,351.32083 145.49867,351.784C144.8925,352.30814 144.88179,353.05515 144.27867,353.5C143.51788,354.06113 142.95279,354.06131 142.33333,354.5C141.60661,355.01465 140.61086,354.56525 139.92534,355.07468C139.26151,355.56799 138.27867,355.5 137.41467,355.5C136.52083,355.5 135.62151,355.5 134.784,355.5C133.92534,355.5 133.59225,354.90375 133.07466,354.5C132.56923,354.10574 132.5,353.27866 132.5,352.41467C132.5,351.52084 132.06177,350.44321 132.58533,349.784C133.13052,349.09753 133.5,348.784 134.14734,348.5L134.5,347.92532" id="svg_3" stroke-width="3" stroke="#000" fill="none"/>
  <path t="38601,38948,38988,39004,39046,39078,39099,39150,39168,39203,39222,39239,39263,39279,39303,39311,39336,39355,39360,39377,39397,39403,39417,39458,39468,39497,39504,39542,39554,39590,39611,39630,39642,39670,39703,39727,39784,39790,39812,39839,39855,39910,39920,39935,39953,39959,39985,40026,40032,40075,40103,40111,40127,40427,40435,40445,40445,40456,40461,40473,40478,40493,40501,40519,40555,40588,40636,40676,40708,40725,40734,40753,40781,40815,40837,40844,40855,40871,40899,40922,40935,40935,40955,40978,41016,41049,41059,41065,41087,41096,41105,41170,41545,41551,41557,41573,41578,41597,41623,41638,41679,41703,41730,41736,41754,41774,41810,41848,41874,41900,41948,41972,41992,42025,42053,42076,42104,42113,42124,42146,42162,42171,42194,42221,42228,42243,42267,42287,42310,42337,42373,42704,42721,42727,42736,42756,42762,42780,42817,42849,42860,42887,42921,42945,42953,42977,43004,43036,43054,43083,43119,43135,43147,43147,43173,43179,43191,43216,43244,43252,43294,43402,43447,43463,43470,43491,43515,43529,43538,43563,43592,43612,43624,43648,43656,43672,43697,43704,43741,43786,43821,43834,43850,43875,43915,44376,44395,44402,44414,44414,44422,44435,44441,44456,44472,44484,44504,44512,44545,44565,44580,44610,44621,44646,44653,44683,44707,44722,44748,44756,44781,44790,44819,44830,44852,44877,44888,44925,44936,44956,44973,44989,44998,45030,45049,45078,45102,45168,45175,45257,45264,45365,45381,45401,45425,45451,45482,45502,45556,45583,45619,45677,45741,45830,45849,45910,46073,46083,46569,46986,47005,47013,47020,47040,47046,47057,47069,47076,47084,47090,47114,47134,47140,47165,47183,47198,47214,47234,47254,47260,47292,47302,47336,47342,47372,47384,47404,47424,47437,47461,47469,47494,47504,47511,47518,47535,47548,47555,47567,47581,47587,47606,47614,47632,47639,47648,47665,47674,47687,47707,47720,47730,47750,47768,47776,47794,47808,47833,47840,47857,47873,47889,47905,47915,47937,47948,47970,47996,48036,48052,48100,48157,48206,48233,48248,48294,48310,48354,48390,48422,48429,48487,48568,48697,48794,48883,48956,48996,49117,49214,49230,49319,49423,49513,49577,49658,49707,49739,49798,49847,49900,49940,49948,49989,50009,50041,50047,50086,50118,50134,50159,50191,50243,50301,50307,50349,50356,50387,50410,50441,50466,50474,50502,50539,50575,50596,50612,50619,50661,50692,50716,50757,50765,50792,50833,50840,50866,50915,50943,51250,51261,51261,51268,51268,51280,51286,51295,51295,51301,51301,51313,51313,51319,51329,51342,51358,51376,51398,51431,51438,51452,51484,51516,51548,51589,51616,51646,51687,51702,51734,51760,51782,51794,51811,51818,51831,51864,51908,51940,51968,51995,52009,52058,52077,52093,52126,52155,52162,52215,52276,52334,52373" d="M134.5,347.5C135.47917,346.5 135.63347,345.93369 136.216,345.5C136.73018,345.11722 137.22314,344.66986 137.5,344.07468C137.89113,343.23386 138.05585,342.6803 138.5,342.14734C138.95256,341.60431 139.35812,341.26694 139.5,340.41467C139.64395,339.54996 139.95456,339.07645 140.55716,338.50449C141.21498,337.8801 141.67947,337.9317 142.216,337.41467C142.86952,336.78491 142.65045,335.96967 143.216,335.5C143.75983,335.0484 144.25974,334.5564 144.4955,333.85266C144.79036,332.97253 145.0883,332.41824 145.5,331.92532C145.9583,331.37662 146.34438,330.94302 146.85266,330.5C147.38554,330.03552 147.9866,329.94205 148.5,329.33334C149.06097,328.66824 149.03992,327.79276 149.51067,327.07468C149.91585,326.4566 150.34438,325.94302 150.85266,325.5C151.38554,325.03552 151.29359,324.13358 151.85266,323.55716C152.36211,323.03189 152.23018,322.16281 152.784,321.58533C153.32314,321.02316 153.67229,320.53891 154.14734,319.85266C154.63351,319.15033 154.40858,318.14252 154.5,317.27866C154.5838,316.48679 155.5,316.46399 155.5,315.61334C155.5,314.67465 155.5,313.98401 155.5,313.02084C155.5,312.10001 155.5,311.20001 155.5,310.30133C155.5,309.33334 155.5,308.47467 155.5,307.55716C155.5,306.66666 155.5,305.85266 155.5,304.92532C155.5,304.07468 155.27791,303.05774 155.72133,302.27866C156.14944,301.52646 156.5,300.92532 156.5,300C156.5,299.07468 156.92319,298.4288 157.33333,297.66666C157.72707,296.935 157.5,296 157.5,295.07468C157.5,294.14734 157.80835,293.44534 158.216,292.784C158.69058,292.0141 158.39392,290.99338 158.5,290.14734C158.61153,289.25787 159.41624,288.67932 159.5,287.85266C159.58595,287.00433 160.05887,286.4061 160.44284,285.55716C160.81056,284.74411 160.5,283.88934 160.5,283C160.5,282.10001 160.5,281.20001 160.5,280.30133C160.5,279.33334 160.5,278.46399 160.5,277.55716C160.5,276.66666 160.07002,275.72791 160.536,274.92532C160.93837,274.2323 161.5,273.85266 161.5,273C161.5,272.07468 161.5,271.216 161.5,270.27866C161.5,269.41467 161.5,268.49551 161.5,267.62149C161.5,266.784 161.5,265.85266 161.5,265C161.5,264.07468 161.5,263.216 161.5,262.27866C161.5,261.41599 161.5,260.49551 161.5,259.62134C161.5,258.784 162.1963,258.22079 162.5,257.33334C162.77802,256.52094 162.5,255.58533 162.5,254.66667C162.5,253.85266 162.45308,252.87254 162.92534,252.5C163.4547,252.08241 163.5,251.216 163.5,250.33333C163.5,249.40016 163.5,248.55267 163.5,247.66667C163.5,246.85266 163.34001,245.91141 163.5,245C163.64417,244.17871 164.45728,243.58873 164.5,242.784C164.54552,241.92654 165.23122,241.60645 165.4955,240.85266C165.77762,240.04802 165.30487,238.99222 165.72133,238.27867C166.18979,237.476 166.41074,236.79672 166.92534,236.07466C167.42102,235.37915 167.72498,234.53973 168.14734,233.85716C168.56546,233.18144 169.23187,232.62407 169.4955,231.85266C169.77122,231.04581 170.07768,230.41667 170.464,229.536C170.81352,228.73921 170.12093,227.77164 170.5,226.92534C170.77393,226.31377 171.49774,225.85268 171.5,225C171.50244,224.07466 172.12308,223.71501 172.47917,223C172.8918,222.17149 172.16837,221.00584 172.72133,220.5C173.30888,219.96251 172.95137,219.27579 173.5045,218.55716C174.02815,217.87683 174.5,217.48933 174.5,216.62151C174.5,215.784 174.40027,214.79324 174.85266,214.14734C175.39265,213.37637 175.5,212.584 175.5,211.66667C175.5,210.85266 175.65594,209.90913 175.48933,209.064C175.3096,208.15231 174.77101,207.45947 174.416,206.7C174.03149,205.87744 173.07266,205.43404 172.62151,204.62151C172.23834,203.93141 171.94238,203.37114 171.5,202.784C171.10419,202.25867 170.97246,201.62099 170.44284,200.85266C169.959,200.15074 169.40671,199.96358 168.92534,199.464C168.36929,198.88693 167.7459,198.54713 167.50133,197.784C167.21654,196.89534 166.89716,196.39034 166.5,195.85266C166.09941,195.31032 165.52277,194.98015 165.07466,194.48933C164.53688,193.9003 164.46312,193.0997 163.92534,192.51067C163.47723,192.01985 162.88103,191.71294 162.52083,191C162.1033,190.17361 161.92799,189.50845 161.5,189C161.07727,188.4978 160.57375,188.07657 160,187.52083C159.54912,187.08411 158.90588,186.60788 158.5,186.07466C158.11176,185.56461 157.81409,185.00467 157.14734,184.55716C156.4245,184.07201 155.77905,183.96735 155.216,183.5C154.63934,183.02135 154.2408,183.07597 153.52083,182.5C152.85384,181.96642 152.57071,181.40872 151.92534,180.92534C151.21565,180.39378 150.89308,179.97656 150.33333,179.5C149.69733,178.95853 149.19374,178.8511 148.44284,178.44284C147.70958,178.04416 147.00336,177.59665 146.4955,177.14734C145.89725,176.61807 145.09102,175.83049 144.5,176.21733C144.40294,176.28085 144.67938,177.22342 144.5,178.064C144.3197,178.90889 143.8326,179.64027 143.33333,180.33333C142.82249,181.04245 142.79515,181.77263 142.44284,182.55267C142.09799,183.31622 141.69513,184.00778 141.27867,184.72133C140.81021,185.524 140.43747,186.06145 139.92534,186.5C139.42674,186.92697 138.94283,187.34422 138.5,187.85266C138.03493,188.38664 137.6376,189.00839 137.14734,189.5045C136.62566,190.03241 135.99544,190.35751 135.52083,191C135.02103,191.67659 134.39705,192.04181 133.784,192.58533C133.12805,193.16689 133.00284,194.00447 132.216,194.50133C131.53842,194.9292 131.27867,195.72133 130.66667,196.33333C130.07466,196.92534 129.416,197.584 128.85266,198.14734C128.14734,198.85266 127.93415,199.7262 127.33334,200.33333C126.71276,200.96043 125.88741,201.01222 125.14733,201.5045C124.48226,201.94688 124.3808,203.00893 123.55267,203.44284C122.8602,203.80568 122.57671,204.57088 121.92533,205.07466C121.22395,205.61711 120.76616,205.93076 120.27866,206.50017C119.75643,207.11015 118.98593,207.11502 118.5,207.66667C117.94717,208.29427 117.58304,208.58449 116.92533,209.07466C116.21265,209.60582 115.62753,210.01276 115.07467,210.5C114.56882,210.9458 114.20152,211.34073 113.33334,211.5C112.54637,211.64436 112.02706,212.00642 111.50134,212.58533C110.88636,213.26251 110.92867,213.67633 110.41467,214.216C109.81009,214.85077 109.07311,215.13942 108.216,215.5C107.53838,215.78506 107.19092,215.87277 106.536,216.5C105.93361,217.07693 105.784,217.5 104.92533,217.5C104,217.5 103.6603,218.17949 102.92533,218.48933C102.14142,218.81981 101.14733,218.5 100.27866,218.5C99.33334,218.5 98.25372,219.09346 97.58533,218.5C97.04613,218.02124 97.86013,216.76311 97.47916,216C97.12239,215.28535 96.5,214.92534 96.5,214C96.5,213.14734 96.5,212.216 96.5,211.33333C96.5,210.44284 96.5,209.55716 96.5,208.66667C96.5,207.85266 96.52732,206.95418 97,206.47917C97.52129,205.95531 97.5916,205.07823 98.14733,204.5045C98.58406,204.05362 99.20264,203.59212 99.92533,203.07466C100.61975,202.57744 100.91847,202.26654 101.50017,201.62151C102.06405,200.99623 102.94977,200.92487 103.66666,200.5C104.40008,200.06535 104.99532,199.81409 105.44283,199.14734C105.92799,198.4245 106.05296,197.7953 106.5,197.216C106.94912,196.634 107.41012,196.41023 107.5,195.5045C107.58436,194.65443 107.9019,194.24838 108.50134,193.58533C109.06222,192.9649 109.13975,192.70477 109.5,191.92534C109.77541,191.32947 110.19787,191.02251 110.5045,190.14734C110.76862,189.39349 111.27791,189.05774 111.72134,188.27867C112.14947,187.52647 112.54044,186.96689 113,186.47917C113.54779,185.89783 113.47704,184.95802 113.50134,184.01601C113.51917,183.32469 113.74458,182.35258 114.30133,181.70134C114.93513,180.95996 115.28206,180.24277 115.7215,179.39983C116.09845,178.67674 116.68553,178.00742 117.1,177.32533C117.67873,176.37292 117.94359,175.68579 118.52533,174.936C119.01022,174.31105 119.70693,174.06262 120.33334,173.5C120.83064,173.05333 120.14583,171.84621 120.52084,171C120.83012,170.30211 121.49933,169.784 121.5,168.85266C121.50061,168 121.5,167.07466 121.5,166.14734C121.5,165.27867 121.5,164.41467 121.5,163.48933C121.5,162.58533 121.48862,161.78392 121.5,160.85266C121.51042,159.9998 122.31962,159.50409 122.5,158.66667C122.67141,157.87091 122.5,156.92534 122.5,156C122.5,155.14734 122.5,154.216 122.5,153.33333C122.5,152.44284 122.5,151.536 122.5,150.66667C122.5,149.85266 122.77791,148.88261 122.5,148C122.31513,147.41287 121.52084,147 121.5,146.07466L121.5,145.216L121.27866,144.5L120.5,144.33333" id="svg_4" stroke-width="3" stroke="#000" fill="none"/>
  <path t="54801,55042,55066,55070,55091,55107,55115,55135,55149,55158,55184,55199,55204,55220,55228,55244,55267,55276,55300,55317,55325,55341,55349,55361,55373,55385,55398,55405,55417,55421,55441,55450,55454,55470,55486,55511,55527,55551,55559,55567,55584,55591,55603,55607,55628,55632,55641,55651,55666,55672,55688,55708,55713,55732,55749,55756,55769,55786,55811,55826,55842,55863,55875,55890,55924,55947,55971,55995,56020,56039,56052,56076,56093,56118,56149,56185,56205,56216,56250,56282,56303,56322,56326,56363,56376,56395,56408,56428,56439,56455,56467,56491,56498,56537,56545,56577,56630,56691,56780,56803,56901,56957,56982,57014,57021,57071,57085,57110,57127,57142,57163,57175,57191,57224,57264,57272,57288,57316,57340,57369,57385,57410,57435,57444,57457,57478,57501,57518,57533,57550,57566,57570,57585,57595,57612,57623,57635,57652,57659,57675,57691,57700,57708,57719,57733,57750,57768,57789,57816,57846,57870,57890,57894,57918,57934,57950,58250,58273,58285,58298,58306,58314,58330,58346,58374,58412,58443,58468,58479,58508,58528,58556,58584,58613,58637,58670,58688,58704,58751,58782,58815,58822,58872,58904,58922,58931,58943,59058,59147,59195" d="M182.5,146.5C182.5,147.5 182.5,148.416 182.5,149.216C182.5,150.14734 183.14833,150.66795 183.4955,151.55267C183.82231,152.38551 183.5,153.33333 183.5,154.14734C183.5,155.07466 184.13177,155.66881 184.47917,156.5C184.8325,157.34537 184.5,158.216 184.5,159.14734C184.5,160 184.5,160.92534 184.5,161.85266C184.5,162.72133 184.5,163.584 184.5,164.5C184.5,165.30133 184.5,166.21466 184.5,167.11067C184.5,167.97917 184.5,168.936 184.5,169.8C184.5,170.69867 184.5,171.584 184.5,172.5C184.5,173.416 184.5,174.216 184.5,175.14734C184.5,176 184.5,176.92534 184.5,177.85266C184.5,178.7215 184.5887,179.60422 184.5,180.5C184.41626,181.3457 183.54271,181.78236 183.5,182.69867C183.46024,183.55174 183.75771,184.54085 183.5,185.33333C183.23712,186.14175 182.52859,186.79417 182.5,187.72133C182.47438,188.55228 182.5,189.47467 182.5,190.37866C182.5,191.216 181.8037,191.77921 181.5,192.66667C181.222,193.47908 181.71379,194.44373 181.5,195.216C181.27933,196.01311 180.5,196.66667 180.5,197.55716C180.5,198.44733 180.5,199.33333 180.5,200.14734C180.5,201.07466 180.5,202 180.5,202.85266C180.5,203.784 180.5,204.66667 180.5,205.55716C180.5,206.464 180.5,207.33333 180.5,208.14734C180.5,209.07466 180.3253,210.01808 180.5,210.85266C180.64508,211.54575 181.48199,211.92477 181.5,212.784C181.51964,213.72113 181.1781,214.64978 181.51067,215.47467C181.81857,216.23839 182.25656,217.02934 182.784,217.5C183.34315,217.99898 183.16676,218.79218 183.784,219.41467C184.31845,219.95367 184.43927,220.65125 185.14734,221.14734C185.85057,221.64005 186.32434,222.07951 186.784,222.784C187.29314,223.56433 187.56952,224.27063 188.464,224.5C189.32143,224.71986 189.5045,225.5 190.37849,225.5C191.216,225.5 192.08569,225.45728 192.5,224.92534C192.87428,224.44479 193.35995,223.85057 193.85266,223.14734C194.37689,222.39911 194.96591,222.14577 195.5,221.47917C196.0589,220.78162 196.10284,220.39034 196.5,219.85266C196.90059,219.31032 197.3365,218.9196 197.784,218.216C198.28403,217.42979 198.5,216.784 198.5,215.85266C198.5,215 198.5,214.07466 198.5,213.14734C198.5,212.27867 198.5,211.33333 198.5,210.5C198.5,209.58533 198.5,208.784 198.5,207.85266C198.5,207 198.5,206.07466 198.5,205.14734C198.5,204.2785 198.5,203.40016 198.5,202.5C198.5,201.58533 198.5,200.7955 198.5,199.85716C198.5,199 198.5,198.064 198.5,197.2045C198.5,196.27867 198.5,195.33333 198.5,194.5C198.5,193.584 198.5,192.784 198.5,191.85266C198.5,191 198.5,190.07466 198.5,189.14734C198.5,188.27867 198.5,187.33333 198.5,186.47917C198.5,185.584 198.97186,184.62129 198.44284,183.85266C197.95949,183.15039 197.5,182.784 197.5,181.92534C197.5,180.97917 197.5,180.11067 197.5,179.21466C197.5,178.30133 197.5,177.416 197.5,176.52533C197.5,175.62151 197.5,174.784 197.5,173.92534C197.5,173 198.16785,172.67027 198.47917,172C198.86908,171.16055 198.5,170.14734 198.5,169.27867C198.5,168.41467 198.5,167.48933 198.5,166.58533C198.5,165.784 199.31677,165.5742 199.5,164.92534C199.75146,164.03482 199.35303,162.97479 199.784,162.49867C200.32178,161.90454 200.40858,161.14252 200.5,160.27867C200.5838,159.48679 201.4955,159.44284 201.5,158.536L201.5,157.62151L201.55716,156.85266L202.37849,156.5" id="svg_5" stroke-width="3" stroke="#000" fill="none"/>
  <path t="61562,61791,61810,61815,61826,61842,61847,61860,61860,61867,61876,61890,61906,61911,61928,61939,61944,61961,61968,61987,62008,62012,62017,62033,62042,62055,62060,62076,62093,62098,62114,62123,62140,62140,62146,62158,62162,62172,62190,62195,62195,62208,62212,62222,62230,62235,62236,62244,62257,62263,62268,62277,62292,62297,62303,62317,62340,62345,62349,62358,62374,62381,62397,62397,62407,62423,62429,62445,62459,62762,62776,62784,62793,62800,62817,62827,62844,62858,62868,62885,62891,62910,62926,62962,62980,62993,63018,63034,63059,63083,63115,63115,63147,63160,63171,63191,63199,63212,63224,63229,63247,63256,63271,63285,63300,63317,63325,63345,63351,63377,63410,63410,63438,63470,63507,63546,63560,63567,63583,63583,63611,63619,63641,63648,63668,63681,63713,63745,63753,63770,63793,63817,63845,63867,63883,63894,63910,63932,63951,63984,64016,64044,64077,64109,64134,64150,64174,64201,64227,64239,64279,64307,64336,64369,64389,64394,64425,64444,64466,64509,64546,64603,64647,64683,64701,64716,64733,64751,64764,64788,64804,64830,64853,64872,64896,64913,64933,64957,64969,64997,65023,65034,65046,65064,65082,65095,65102,65119,65138,65146,65163,65183,65194,65224,65248,65266,65296,65304,65369,65379,65435,65461,65478,65490,65507,65540,65556,65581,65597,65615,65644,65668,65684,65717,65727,65781,65847,65854,65928,65984,66097" d="M164.5,239.5C162.85266,239.5 161.97917,239.5 161.10001,239.5C160.2,239.5 159.30133,239.5 158.33333,239.5C157.5,239.5 156.72136,239.6221 155.89999,240.07466C155.12914,240.49939 154.216,240.5 153.2785,240.5C152.40016,240.5 151.4955,240.5 150.69867,240.5C149.78534,240.5 148.88933,240.5 148.02083,240.5C147.07466,240.5 146.21466,240.5 145.30133,240.5C144.416,240.5 143.5,240.5 142.69867,240.5C141.8,240.5 140.85716,240.5 140,240.5C139.064,240.5 138.2045,240.5 137.27867,240.5C136.416,240.5 135.5,240.5 134.7,240.5C133.8,240.5 132.89999,240.5 132,240.5C131.11067,240.5 130.15703,240.64262 129.3,240.216C128.63812,239.88652 127.79993,239.51266 126.9,239.5C125.99985,239.48734 125.29054,238.97282 124.4,238.62151C123.73931,238.36087 122.77351,238.68375 121.9,238.464C121.03717,238.24695 120.30247,237.55315 119.40017,237.5C118.50132,237.44705 117.95408,236.7518 117.11066,236.536C116.17675,236.29703 115.20849,236.76599 114.416,236.41467C113.65065,236.07538 112.93604,235.50534 112.064,235.5C111.20451,235.49475 110.36255,235.1584 109.69867,234.784C108.92632,234.34843 108.06255,234.32567 107.44733,233.85266C106.73526,233.30519 105.97917,232.97917 105.30133,232.30133C104.66666,231.66667 103.88934,231.5 103,231.5C102.11066,231.5 101.11308,231.36931 100.536,231.92534C100.03642,232.40671 99.48196,232.85986 98.66666,233.33333C98.00207,233.71927 97.48827,234.18787 96.85267,234.5C96.05679,234.89085 95.88123,235.77809 95.27866,236.37849C94.70795,236.94716 94.24155,236.89404 93.58533,237.50133C92.97149,238.0694 93.00001,239 92.33334,239.66667C91.784,240.216 91.38193,240.89725 90.85267,241.4955C90.40337,242.00337 90.09094,242.60501 89.5045,243.14734C88.99242,243.6209 88.93978,244.31393 88.5,245.14284C88.17367,245.75792 87.35575,246.02419 86.85267,246.55716C86.26748,247.17712 86.18758,247.89156 85.66666,248.66667C85.20403,249.35507 85.40052,250.29243 84.92533,251.064C84.4868,251.77603 84.20091,252.56047 83.784,253.216C83.3365,253.9196 83.5,254.92534 83.5,255.85266C83.5,256.72134 83.87339,257.19479 84.41467,257.784C85.03565,258.45999 85.02104,259.32339 85.52084,260C85.99543,260.64249 86.69186,260.89249 87.216,261.49866C87.67918,262.0343 88.07467,262.49796 88.92533,262.5C89.85268,262.50226 90.31375,263.22607 90.92533,263.5C91.77165,263.87909 92.72134,263.5 93.58533,263.5C94.5045,263.5 94.87682,263.97183 95.55717,264.49551C96.27579,265.04865 97.33334,264.5 98.216,264.5C99.07467,264.5 100,264.5 100.85267,264.5C101.784,264.5 102.66666,264.5 103.55717,264.5C104.464,264.5 105.45504,264.94727 106.216,264.5C106.78307,264.16672 107.216,263.50067 108.07467,263.5C109,263.49927 109.92533,263.5 110.784,263.5C111.72134,263.5 112.584,263.5 113.50017,263.5C114.3785,263.5 115.216,263.5 116.07467,263.5C117,263.5 117.92533,263.5 118.784,263.5C119.72134,263.5 120.58533,263.5 121.5,263.5C122.3785,263.5 123.216,263.5 124.07467,263.5C125,263.5 125.92533,263.5 126.784,263.5C127.72134,263.5 128.58533,263.5 129.50017,263.5C130.37849,263.5 131.08253,263.59821 131.536,264.07468C132.08846,264.65515 133.22694,264.16049 134,264.52084C134.75722,264.87381 135.49892,265.06732 136.216,265.5C136.84253,265.87802 137.437,266.10248 138.14734,266.5C138.73573,266.82928 138.89725,267.61807 139.4955,268.14734C140.00337,268.59665 140.39354,269.23123 141.14734,269.49551C141.952,269.77762 142.51067,269.92532 143.07466,270.48932C143.51067,270.92532 144.14943,271.35995 144.85266,271.85266C145.59006,272.36932 145.85384,272.9664 146.52083,273.5C147.2188,274.05838 147.56029,274.3074 148.44284,274.5C149.2028,274.66586 149.71393,274.92508 150.37849,275.5C150.92772,275.97516 151.20676,276.40027 151.85266,276.85266C152.62363,277.39267 153.61386,276.92877 154.33333,277.5C154.90907,277.95712 155.17149,278.10822 156,278.52084C156.715,278.87692 157,279.5 157.92534,279.5L158.50133,279.784" id="svg_6" stroke-width="3" stroke="#000" fill="none"/>
  <path t="68581,69001,69059,69198,69344,69359,69389,69413,69437,69509,69529,69615,69761,69938,70022,70084,70103,70139,70184,70286,70455" d="M139.5,71.5C138.62151,71.5 137.69331,71.3764 137.07466,71.92533C136.37306,72.54787 136.79951,72.8957 137.44284,73.5045C138.07901,74.10652 138.33211,74.10334 139.07466,74.536C139.76706,74.93944 140.19975,75.79433 141,75.5C141.61609,75.27341 141.6956,74.12498 141.49983,73.27866C141.31886,72.49632 140.5,72.216 140.33333,71.5L139.464,71.5L138.55716,71.5" id="svg_7" stroke-width="3" stroke="#000" fill="none"/>
  <path t="71578,71930,71956,72021,72070,72361,72409,72480,72551,72567,72656,72705,72826,72958,73012,73117,73165,73327" d="M118.5,72.5C118.5,73.52084 118.02996,73.86171 117.5,74.536C116.93964,75.24898 117.48418,76.416 118.14733,76.5C119.06731,76.61653 119.90028,76.46312 120.48933,75.92533C120.98014,75.47723 121.65207,75.06212 121.5,74.14733C121.38781,73.47247 120.41467,73.5 119.48933,73.5L118.58533,73.5L117.784,73.5" id="svg_8" stroke-width="3" stroke="#000" fill="none"/>
  <path t="75799,76174,76218,76254,76274,76327,76344,76376,76400,76472,76490,76529,76602,76658,76690,76715,76759,76775,76787,76811,76863,76876,76912,76974,77038,77106,77155,77170,77187,77202,77240,77288,77313,77361,77410,77449,77502,77578,77596,77651,77675,77716,77736" d="M125.5,84.5C124.47916,84.5 123.41136,84.07953 122.784,84.58533C122.08078,85.1523 121.96967,85.65044 121.5,86.216C121.04839,86.75982 120.81982,87.14142 120.48933,87.92533C120.17948,88.66031 119.5,89 119.5,89.92533C119.5,90.784 119.98606,91.05842 120.5,91.66666C121.03835,92.30379 120.9133,92.72817 121.5,93.3785C121.98647,93.91773 122.8925,93.69185 123.49866,94.216C124.03429,94.67917 125,94.5 125.92533,94.5C126.85267,94.5 127.06507,94.02171 127.66666,93.5C128.29433,92.95569 127.99563,92.37473 128.5,91.66666C128.89738,91.10879 129.5,90.6215 129.5,89.784C129.5,88.85267 129.50072,88 129.5,87.07467C129.49933,86.216 129.07466,85.536 128.5,85.14733L128.27867,84.5L127.5,84.33334L127.216,83.58533" id="svg_9" stroke-width="3" stroke="#000" fill="none"/>
  <path t="81141,81347,81366,81370,81379,81386,81395,81402,81414,81418,81427,81428,81435,81446,81451,81461,81470,81483,81495,81499,81499,81510,81515,81532,81543,81559,81564,81584,81591,81591,81596,81613,81620,81637,81645,81653,81664,81669,81692,81696,81713,81717,81726,81737,81737,81742,81749,81762,81766,81777,81782,81802,81808,81808,81814,81826,81841,81850,81855,81863,81878,81881,81887,81896,81896,81911,81914,81919,81929,81945,81952,81952,81964,81968,81976,81988,82001,82009,82020,82025,82032,82046,82049,82062,82068,82076,82084,82084,82093,82093,82097,82112,82115,82127,82127,82132,82143,82143,82147,82161,82165,82179,82194,82209,82219,82558,82578,82582,82594,82598,82609,82618,82625,82625,82630,82646,82651,82655,82667,82672,82683,82688,82688,82697,82704,82715,82729,82744,82750,82754,82764,82778,82788,82788,82801,82813,82818,82833,82845,82860,82869,82876,82882,82899,82906,82917,82932,82947,82964,82979,82986,82998,83003,83028,83038,83051,83067,83087,83099,83115,83127,83143,83165,83188,83214,83236,83273,83297,83311,83351,83431,83559,83600,83632,83667,83697" d="M1.5,321.5C2.5,321.5 3.416,321.5 4.2045,321.5C5.1,321.5 6,321.5 6.9,321.5C7.8,321.5 8.7,321.5 9.6,321.5C10.5,321.5 11.3,321.5 12.2,321.5C13.1,321.5 14,321.5 14.9,321.5C15.7955,321.5 16.7215,321.5 17.6,321.5C18.5,321.5 19.3,321.5 20.2,321.5C21.14283,321.5 22.02083,321.5 22.88933,321.5C23.85717,321.5 24.69867,321.5 25.66667,321.5C26.5,321.5 27.3,321.5 28.21467,321.5C29.11067,321.5 30.08054,321.34131 30.936,321.51068C31.84342,321.69034 32.41255,322.45728 33.2045,322.5C34.14147,322.55054 35.02083,322.5 35.88933,322.5C36.85717,322.5 37.7,322.5 38.6,322.5C39.5,322.5 40.3,322.5 41.2,322.5C42.1,322.5 43,322.5 43.9,322.5C44.8,322.5 45.69867,322.5 46.66667,322.5C47.5,322.5 48.3,322.5 49.2,322.5C50.14283,322.5 51.02083,322.5 51.9,322.5C52.8,322.5 53.7,322.5 54.6,322.5C55.5,322.5 56.41733,322.5 57.20984,322.5C58.01733,322.5 58.97917,322.5 59.9,322.5C60.8,322.5 61.69867,322.5 62.66667,322.5C63.5,322.5 64.3,322.5 65.2,322.5C66.1,322.5 67,322.5 67.88934,322.5C68.85717,322.5 69.7,322.5 70.6,322.5C71.5,322.5 72.416,322.5 73.2045,322.5C74.1,322.5 75,322.5 75.9,322.5C76.8045,322.5 77.82133,322.5 78.5,322.5C79.4785,322.5 80.29867,322.5 81.2,322.5C82.1,322.5 83.02143,322.4675 83.98267,322.50134C84.7916,322.52985 85.41394,323.18491 86.20983,323.44284C86.97984,323.69238 87.97916,323.5 88.9,323.5C89.7955,323.5 90.7215,323.5 91.59983,323.5C92.52084,323.5 93.416,323.5 94.216,323.5C95.11066,323.5 96,323.5 96.9,323.5C97.8,323.5 98.7,323.5 99.6,323.5C100.5,323.5 101.3,323.5 102.2,323.5C103.1,323.5 104,323.5 104.9,323.5C105.8,323.5 106.7,323.5 107.6,323.5C108.5,323.5 109.27743,323.3757 110.1,322.92532C110.88039,322.49805 111.7955,322.5 112.7215,322.5C113.6,322.5 114.50113,322.54459 115.37867,322.5C116.21925,322.45728 116.6543,321.58374 117.5,321.5C118.29611,321.42117 119.30701,321.46164 120.02084,321C120.77011,320.51544 121.66666,320.5 122.55267,320.5C123.5,320.5 124.05489,320.08316 124.72134,319.62149C125.43747,319.1254 126.5,319.5 127.37867,319.5C128.216,319.5 129.14734,319.5 130,319.5C130.92534,319.5 131.92787,319.65436 132.69867,319.216C133.42833,318.80106 134.14734,318.5 135.02083,318.5C135.88933,318.5 136.85266,318.5 137.72133,318.5C138.66667,318.5 139.52083,318.5 140.416,318.5C141.216,318.5 142.14734,318.5 143,318.5C143.92534,318.5 144.85266,318.5 145.72133,318.5C146.66667,318.5 147.52083,318.5 148.41467,318.5C149.216,318.5 150.14734,318.5 151,318.5C151.92534,318.5 152.85266,318.5 153.72133,318.5L154.66667,318.5" id="svg_10" stroke-width="3" stroke="#000" fill="none"/>
  <path t="84647,84808,84816,84824,84841,84841,84860,84865,84872,84873,84889,84899,84908,84915,84933,84938,84951,84957,84962,84971,84977,84988,85002,85017,85025,85034,85045,85051,85070,85074,85091,85100,85118,85123,85138,85150,85168,85179,85212,85236,85277,85293,85324,85374,85421,85490" d="M163.5,319.5C165.33333,319.5 166.11067,319.5 167.064,319.5C167.94267,319.5 168.79466,319.5 169.78534,319.5C170.60001,319.5 171.5,319.5 172.3,319.5C173.33333,319.5 174.11067,319.5 175,319.5C175.97917,319.5 176.85716,319.5 177.7,319.5C178.69867,319.5 179.55267,319.5 180.30133,319.5C181.2,319.5 182.10001,319.5 183.064,319.5C183.936,319.5 184.88933,319.5 185.78534,319.5C186.60001,319.5 187.59984,319.5 188.44733,319.5C189.33333,319.5 190.24854,319.11325 191.07466,319.53601C191.76549,319.88953 192.37866,320.5 193.216,320.5C194.11067,320.5 194.97917,320.5 195.92534,320.5C196.784,320.5 197.72133,320.5 198.58533,320.5C199.50133,320.5 200.37849,320.5 201.216,320.5L202.14734,320.5L203,320.5L203.92534,320.5" id="svg_11" stroke-width="3" stroke="#000" fill="none"/>
  <path t="86922,87119,87119,87130,87137,87142,87154,87154,87162,87170,87174,87187,87190,87190,87204,87217,87223,87233,87241,87242,87246,87246,87255,87272,87279,87291,87295,87304,87318,87324,87327,87338,87352,87363,87375,87388,87392,87408,87408,87417,87436,87442,87452,87457,87476,87481,87489,87507,87512,87521,87525,87538,87545,87554,87571,87594,87618,87626,87642,87651,87671,87686,87710,87735,87767,87783,87812,87820,87844,87942" d="M220.5,317.5C221.5,317.5 222.3,317.5 223.2,317.5C224.10001,317.5 225.02083,317.5 225.98399,317.5C226.67467,317.5 227.74283,317.5 228.60001,317.5C229.5,317.5 230.41733,317.5 231.20984,317.5C232.01733,317.5 233.05333,317.5 233.936,317.5C234.8,317.5 235.70134,317.5 236.66667,317.5C237.5,317.5 238.33333,317.5 239.1955,317.5C240.14284,317.5 241.02083,317.5 241.89999,317.5C242.8,317.5 243.7,317.5 244.60001,317.5C245.5,317.5 246.416,317.5 247.2045,317.5C248.14284,317.5 249.02083,317.5 249.88933,317.5C250.85716,317.5 251.69867,317.5 252.584,317.5C253.5,317.5 254.3,317.5 255.21466,317.5C256.11066,317.5 257,317.5 257.89999,317.5C258.7955,317.5 259.7215,317.5 260.60001,317.5C261.5,317.5 262.41635,317.47601 263.2045,317.5C264.14413,317.52859 264.55182,318.35638 265.5,318.5C266.32394,318.62479 267.216,318.5 268.07468,318.5C269,318.5 269.85266,318.5 270.784,318.5C271.66666,318.5 272.55267,318.5 273.44733,318.5C274.33334,318.5 275.216,318.5 276.07468,318.5C277,318.5 277.85266,318.5 278.72134,318.27866L279.33334,317.66666L280.07468,317.5L281,317.5" id="svg_12" stroke-width="3" stroke="#000" fill="none"/>
  <path t="90002,90394,90462,90556" d="M204.5,319.5" id="svg_13" stroke-width="3" stroke="#000" fill="none"/>
  <path t="92474,92736,92752,92760,92784,92816,92848,92884,92922,92958,93006,93019,93068" d="M196.5,321.5C197.52083,321.5 198.30133,321.5 199.21466,321.5C200.14734,321.5 201,321.5 201.92534,321.5C202.85266,321.5 203.72133,321.5 204.58533,321.5L205.52083,321.5L206.41467,321.5L207.216,321.5" id="svg_14" stroke-width="3" stroke="#000" fill="none"/>
 </g>
</svg>