<svg width="280" height="420" xmlns="http://www.w3.org/2000/svg" xmlns:svg="http://www.w3.org/2000/svg" xmlns:xlink="http://www.w3.org/1999/xlink">
 <!-- Created with SVG-edit - http://svg-edit.googlecode.com/ -->
 <g display="inline" class="layer">
  <title>Layer 1</title>
  <path t="0,133,163,424,451,551,581,597,597,643,673,789,819,843,843,865,1008,1051,1093,1093,1137,1153,1370,1395,1400,1429,1429,1444,1573,1657,1667,1677,1677,1818,1870,1893,1943,1965,2010,2010,2068,2137,2137,2191,2207,2207,2241,2277,2327,2353,2367,2367,2410,2439,2478,2495,2499,2499,2570,2647,2647,2671,2691,2691,2805,2870,2870,2923,2933,2973,3107,3155,3155,3179,3211,3235,3265,3281,3281,3291,3305,3305,3321,3321,3357,3397,3427,3487,3507,3539,3539,3644,3773,3805,3805,3815,3845,3845,3861,3891,3905,3905,3946,3993,3993,4140,4168,4169,4250,4260,4285,4325,4377,4377,4387,4387,4425,4496,4548,4548,4675,4712,4780,4780,4819,4819,4860,4950,4991,5103,5131,5131,5177,5207,5237,5237,5267,5497,5497,5507,5550,5581,5601,5651,5651,5667,5696,5754,5786,5846,5883,5889,5889,5919,5990,6015,6035,6086,6086,6121,6231,6251,6251,6392,6402,6423,6452,6493,6573,6609,6609,6772" d="M112.5,116.5C114.45834,115.5 114.74056,114.955 115.33334,114.33334C115.9198,113.71828 115.9491,112.95378 116.41467,112.21333C116.88528,111.46487 116.53574,110.52017 116.5,109.56133C116.4714,108.79391 115.81509,108.07686 115.55717,107.1955C115.31448,106.36623 115.75754,105.36234 115.14733,104.61433C114.66643,104.02484 114.5,103.3 114.5,102.39983C114.5,101.61467 114.54137,100.68443 114.5,99.743C114.46397,98.92296 113.41927,98.93044 112.743,98.2785C112.15585,97.71249 112.5,96.74284 112.5,95.85184C112.5,94.83334 112.54739,93.94643 112.14733,93.2C111.69502,92.35609 111.50067,91.61467 111.5,90.68533C111.49932,89.74284 111.5,88.88934 111.5,88C111.5,87.08933 111.5,86.17883 111.5,85.36134C111.5,84.45184 111.5,83.5 111.5,82.7C111.5,81.864 111.26409,80.78742 111.58533,80.06934C111.92629,79.30717 112.46484,78.69798 112.5,77.8C112.53672,76.86195 112.92031,76.15923 113.5,75.52084C114.22974,74.7172 114.36482,73.98856 114.5045,73.14283C114.64906,72.26756 115.69617,71.92633 116.21467,71.33067C116.80008,70.65813 116.33328,69.48803 116.55717,68.8045C116.84395,67.92893 117.85882,67.76041 118.63866,67.47467C119.52804,67.1488 119.33009,66.02762 119.536,65.35067C119.81047,64.44833 120.93398,64.73988 121.7955,64.4955C122.5729,64.27499 123.25819,63.77909 123.932,63.50134C124.64698,63.20661 125.11062,62.50533 126,62.5C126.91065,62.49454 127.82133,62.5 128.67467,62.5C129.61467,62.5 130.5,62.5 131.31433,62.5C132.26666,62.5 132.97917,62.5 134,62.5C134.936,62.5 135.82146,62.69389 136.69867,62.49866C137.50989,62.31813 138.06471,61.54653 138.79466,61.5045C139.85542,61.44343 140.7,61.5 141.60017,61.5C142.38533,61.5 143.32533,61.5 144.33333,61.5C145.08934,61.5 146,61.5 146.91066,61.5C147.82117,61.5 148.63867,61.5 149.66667,61.5C150.5,61.5 151.3,61.5 152.25717,61.5C153.14816,61.5 154.18893,61.31468 154.5,62.02083C154.85442,62.8254 154.33965,63.93394 154.92534,64.464C155.53943,65.01976 156.10475,65.48581 156.37849,66.4785C156.57162,67.17885 156.5,68.1 156.5,69.064C156.5,69.94283 156.5,70.68533 156.5,71.74284C156.5,72.6 156.5,73.5 156.5,74.38533C156.5,75.32533 156.5,76.016 156.5,77.08933C156.5,77.9 156.3824,78.95901 156.784,79.50267C157.28777,80.18464 157.49651,80.85183 157.5,81.74284C157.50375,82.69867 158.00304,83.19281 158.79466,83.55267C159.57796,83.90874 159.5,84.94283 159.5,85.68533C159.5,86.74284 159.5,87.6 159.5,88.5C159.5,89.41734 159.5,90.20983 159.5,91.01733C159.5,91.97916 159.5,92.9 159.5,93.7955C159.5,94.66933 159.67661,95.53733 159.49966,96.47833C159.33009,97.38009 158.19557,97.09946 157.61433,97.85717C157.039,98.60719 157.5,99.60983 157.5,100.52084C157.5,101.4785 157.5,102.29867 157.5,103.2C157.5,104.064 157.5,104.94283 157.5,105.85184C157.5,106.74284 157.50555,107.70001 157.5,108.59983C157.49466,109.46404 156.784,109.67067 156.52083,110.52084L156.5,111.4785L156.5,112.29867L156.41467,113.21467" id="svg_1" stroke-width="3" stroke="#000" fill="none"/>
  <path t="9910,10240,10240,10250,10410,10410,10470,10470,10470,10513,10528,10562,10663,10750,10803,10803,10850,11003,11056,11098,11770,11798,11843,11843,11923,12136,12162,12163,12192,12192,12202,12202,12218,12257,12360,12360,12423,12443,12443,12463,12478,12478,12488,12502,12508,12528,12596,12596,12618,12629,12674,13026,13120,14919,14929,14929,14939,14939,14939,14984,15000,15034,15086,15086,15116,15236,15246,15262,15326,15336,15336,15464,15464,15484,15556,15566,15581,15614,15614,15667,16183,16214,16215,16438,16448,16472,16476,16799,16859,17061,17061,17082,17092,17092,17093,17112,17138,17138,17142,17194,17198,17331,17354,17400,17400,17493,17583,17710,17710,17809,17844,18380,18390,18404,18414,18454,18500,18553,18600,18600,18630,18676,18746,18766,19304,19380,19380,19418,19621,19836,20123,20189,20210,20276,20416,20416,20476,20476,20546,20568,20569,20598,20598,20628,20654,21039,21039,21072,21560,21586,21618,21674,21674,21766,21776,21776,21927,21927,21996,22053,22110,23029,23156,23330,23393,23573,23596,23596,23630,23752,23798,23798,23998,23998,23998,24580,24580,24590,24669,24679,24694,24709,24719,24719,24786,25174,25256,25256,25268,25294,25294,25653,25663,25663,25686,25712,25742,26630,26660,26682,26693,26748,26768,26768,27013,27023,27096,27096,27116,27132,27132,27186,27212,27272,27272,27288,27343,27343,27353,27449,27449,27459,27482,27498,27512,27554,27568,27568,27574,27588,27620,27620,27674,27704,27720,27798,27836,27836,27850,27860,27877,27877,27902,27916,27922,27932,27946,27966,27982,27998,28016,28048,28048,28093,28152,28370,28396,28396,28509,28509" d="M159.5,114.5C160.5,114.5 161.3,114.5 162.25717,114.5C163.14816,114.5 164.16406,114.33688 164.50133,115.068C164.80661,115.72979 165.25153,116.43414 165.4955,117.2045C165.7794,118.10098 165.77065,118.904 166.51067,119.464C167.11021,119.91769 168.27298,119.21691 168.93066,119.67067C169.73975,120.22889 169.13197,121.59692 169.66667,122.33334C170.14307,122.98947 170.85571,123.4714 171.70134,123.5C172.66612,123.53263 173.65753,123.20029 174.32933,123.784C174.9268,124.30312 175.5,124.83334 176,125.5C176.5,126.16666 177.28511,126.47705 178.14816,126.85717C178.81618,127.15138 179.47916,127.99927 179.5,128.88933C179.52209,129.83307 179.5,130.52083 179.5,131.4785C179.5,132.5 179.5,133.3 179.5,134.136C179.5,135.15266 179.18544,135.90131 179.51067,136.85333C179.77283,137.62073 180.49466,138.11063 180.5,139.064C180.50491,139.94283 180.49989,140.68533 180.5,141.74283C180.50009,142.59984 180.8477,143.33197 181.44733,143.85266C182.07814,144.40042 182.23038,145.02559 182.61433,145.79466C182.98483,146.53679 184.29422,146.20894 184.45833,145.5C184.67923,144.54568 184.31631,143.66768 184.55716,142.8C184.77122,142.02879 185.42897,141.1841 185.48933,140.36133C185.55589,139.45421 185.73793,138.70816 186.59984,138.49983C187.43896,138.29701 187.23146,137.16583 187.94267,136.62117C188.52213,136.17741 189.43524,135.79636 189.491,135.14816C189.57683,134.15031 189.30293,133.19286 189.50133,132.30133C189.68185,131.4901 190.45348,130.93527 190.4955,130.20534C190.55656,129.14458 190.5,128.3 190.5,127.39983C190.5,126.61467 190.19943,125.55542 190.72133,124.74284C191.19249,124.00926 192.17062,123.69318 192.47917,122.97916C192.83224,122.16211 191.6481,120.39692 192.5,120.32417C192.92311,120.28803 192.92223,121.71453 193.35066,122.28934C193.90617,123.03463 194.46397,123.85135 194.5,124.83334C194.52444,125.49955 194.46494,126.54898 194.5,127.30133C194.54271,128.21764 195.23061,128.84425 195.85266,129.44284C196.39742,129.96703 196.38486,130.5278 196.50017,131.47833C196.6118,132.39861 197.66667,132.5 198.47917,132.5C199.39017,132.5 200.30092,132.13882 201.064,132.536C201.82335,132.93123 202.39096,133.42078 203.31467,133.51067C204.17676,133.59456 204.71523,134.4391 205.60001,134.5C206.49788,134.5618 207.25717,134.5 208.14816,134.5C209.16667,134.5 210.02084,134.49557 210.89999,134.5C211.79553,134.5045 212.45305,135.06631 212.4955,135.85184C212.54358,136.74155 212.65067,137.71272 212.49983,138.59984C212.35512,139.45091 211.39999,139.5 210.5,139.5C209.58267,139.5 208.78566,139.5 207.89734,139.5C206.9045,139.5 206.15717,139.5 205.12534,139.5C204.17867,139.5 203.5,139.5 202.5215,139.5C201.70134,139.5 200.8,139.5 199.85716,139.5C198.93201,139.5 198.20534,139.5 197.14284,139.5C196.30267,139.5 196.209,139.5 197.136,139.5C197.98267,139.5 198.82083,139.25748 199.78534,139.50267C200.68269,139.73079 200.77815,140.75716 201.70134,141.32933C202.3,141.70036 203.50003,140.91667 204.32933,141.50133C204.94978,141.93875 205.33989,142.29025 206.2,142.55716C207.06596,142.82588 207.74355,143.94579 207.2785,144.50034C206.73442,145.14912 206.20311,145.72023 205.40016,146.257C204.66362,146.74939 203.79016,146.5 202.98267,146.5C202,146.5 201.01733,146.5 200.20984,146.5C199.16667,146.5 198.42267,146.5 198.80367,146.5C199.7215,146.5 200.60439,146.41132 201.5,146.5C202.3457,146.58374 202.87111,147.21373 203.64934,147.52533C204.5201,147.87398 204.7883,149.12088 204.16667,149.5C203.43927,149.94362 202.38533,149.5 201.5,149.5C200.7,149.5 199.86255,149.54982 198.85184,149.4955C198.0663,149.45329 197.45729,148.64574 196.69867,148.50133C195.81586,148.33327 194.23784,148.65892 194.66667,149.33333C195.12267,150.05046 196.33653,149.64238 196.47917,150.52083C196.63271,151.46634 196.5,152.29866 196.5,153.2C196.5,154.14284 196.75525,154.92763 197.07466,155.68533C197.45892,156.59689 197.97014,157.28125 198.64934,157.52533C199.47778,157.82304 199.5,158.88933 199.5,159.83333C199.5,160.52083 199.5,161.4785 199.5,162.5C199.5,163.3 199.57655,164.31418 198.93066,164.5C198.17867,164.71635 197.136,164.5 196.2,164.5C195.30133,164.5 194.43866,164.5 193.63867,164.5C192.66667,164.5 191.8045,164.5 190.89999,164.5C190.02083,164.5 189.05716,164.5 188.31467,164.5C187.25717,164.5 186.39999,164.5 185.5,164.5C184.62151,164.5 183.72676,164.2383 183.20534,163.7955C182.41566,163.12491 182.56731,162.0677 182.27867,161.17883C182.05797,160.49919 181.54567,159.61057 181.5,158.7955C181.45187,157.9366 180.64531,157.45204 180.50133,156.61333C180.34431,155.69872 180.67213,154.81151 180.47917,153.97917C180.26062,153.03641 179.56215,152.40663 179.50133,151.61467C179.43016,150.68806 179.5,149.74283 179.5,148.85333C179.5,148.01466 179.5,147.0955 179.5,146.10266L179.5,145.37199" id="svg_2" stroke-width="3" stroke="#000" fill="none"/>
  <path t="31242,31450,31509,31509,31519,31532,31576,31576,31600,31714,31714,31756,31792,31792,31802,31818,31822,31832,31838,31848,31848,31852,31955" d="M181.5,159.5C181.5,160.52083 181.52597,161.47891 181.5,162.29866C181.47141,163.20135 180.75903,163.87808 180.5,164.83333C180.32007,165.49687 180.5,166.4785 180.5,167.5C180.5,168.3 180.5,169.14284 180.5,170.06934C180.5,170.85184 180.5,171.864 180.5,172.8C180.5,173.69867 180.5,174.52083 180.5,175.36133C180.5,176.33333 180.5,177.1955 180.5,178.10001L180.5,178.97917" id="svg_3" stroke-width="3" stroke="#000" fill="none"/>
  <path t="33002,33162,33162,33194,33274,33274,33290,33363,33363,33391,33391,33441,33453,33453,33467,33486,33487,33527,33553,33573,33583,33599,33653,33760,33760,33791,33864,33890,33900,33930,33931,33987,34167,34167,34177,34237,34237,34247,34247,34305,34370,34395,34421,34421,34435,34471,34471,34487,34511,34527,34527,34551,34551,34557,34571,34581,34644,34654,34654,34713,34729,34743,34759,34769,34783,34799,34799,34805,34835,34875,34889,34899,34905,34935,34935,34977,35000,35043,35081,35091,35107,35121,35167,35167,35207,35233,35247,35254,35254,35279,35279,35319,35650,35660" d="M180.5,181.5C180.5,182.5 180.35391,183.31174 180.5,184.21466C180.64384,185.10373 181.06329,185.88487 181.44733,186.73833C181.78244,187.48309 182.44667,188.14223 183.20534,188.44733C183.89134,188.72322 184.6543,189.41626 185.5,189.5C186.29611,189.57883 187.27794,189.47681 187.509,190.20534C187.73405,190.91493 188.55559,191.19142 189.39017,191.5045C190.1411,191.78619 190.82626,192.27788 191.69867,192.50133C192.50375,192.70753 193.15565,193.16925 193.93201,193.584C194.63199,193.95796 195.11067,194.5 196,194.5C196.88933,194.5 197.83333,194.5 198.64934,194.5C199.58267,194.5 200.50073,194.46564 201.3,194.5C202.13832,194.53604 203.01318,195.0379 203.47917,195.52083C204.21822,196.28674 204.41806,197.31267 205.11067,197.5C205.96915,197.73219 206.91087,197.48015 207.82117,197.50017C208.63925,197.51816 209.23627,198.02541 209.7215,198.72133C210.15742,199.34654 211.21466,199.49933 212.14667,199.5C212.98267,199.5006 214.07576,199.2216 214.50017,199.94267C214.85907,200.55246 215.02014,201.47694 215.89999,201.5C216.79521,201.52345 217.38853,202.09561 218.20534,202.44733C218.88446,202.73976 219.09155,203.47719 219.55716,204.14734C220.04359,204.84747 221.34859,204.09024 222.064,204.57201C222.79797,205.06628 222.17108,206.45096 222.57201,207.05333C223.06255,207.79036 224.14731,207.8204 224.784,208.416C225.36395,208.95853 226.09738,209.16231 226.88933,209.52133C227.58153,209.83514 227.55939,211.13799 228.35066,211.42799C229.2733,211.76614 229.97705,211.7036 230.66667,212.33333C231.26544,212.8801 231.84702,213.4549 232.48534,213.92534C233.19911,214.45139 233.93201,214.49933 234.92534,214.5C235.85716,214.50063 236.70166,214.47527 237.66667,214.5C238.47997,214.52084 239.257,214.94267 239.491,215.79466L239.78534,216.5L240.59984,216.50017L241.416,216.784" id="svg_4" stroke-width="3" stroke="#000" fill="none"/>
  <path t="38196,38371,38447,38447,38491,38511,38570,38570,38580,38607,38621,38627,38637,38653,38653,38677,38707,38727,38743,38753,38753,38769,38773,38783,38783,38809,38823,38829,38829,38885,38885,38899,38955,39005,39041,39041" d="M184.5,181.5C183.47917,181.5 182.5215,181.5 181.70134,181.5C180.8,181.5 179.85716,181.5 178.93066,181.5C178.14816,181.5 177.136,181.5 176.3,181.5C175.40016,181.5 174.66254,181.40665 174.47867,180.64934C174.24283,179.67799 173.31485,179.51067 172.38667,179.5C171.47923,179.48958 170.63263,179.67902 169.668,179.49867C168.89255,179.3537 168.07941,178.89377 167.56134,178.10001C167.08546,177.37088 166.50511,176.6396 165.7,176.50133C164.86154,176.35732 164.51801,175.63918 164.5,174.66667C164.48372,173.78682 163.79012,173.50894 162.98267,173.5C162.0415,173.48958 161.51067,172.88933 161.5,171.97917L161.49983,171.17883L161.464,170.36133" id="svg_5" stroke-width="3" stroke="#000" fill="none"/>
  <path t="45818,46017,46051,46051,46077,46077,46126,46200,46200,46281,46337,46337,46384,46406,46437,46486,46523,46523,46553,46633,46655" d="M159.5,171.5C160.52083,171.5 161.49146,171.40593 162.25267,171.55716C163.17758,171.74092 163.89915,172.35413 164.85716,172.5C165.78482,172.64127 166.3112,173.17154 167.04167,173.47917C167.90913,173.8445 168.81816,173.52187 169.47867,174.07466C169.95761,174.47551 170.88933,174.5 171.78667,174.5C172.66667,174.5 173.47917,174.5 174.45833,174.54167L174.51067,175.35066L174.7215,176.25717" id="svg_6" stroke-width="3" stroke="#000" fill="none"/>
  <path t="49000,49173,49183,49183,49201,49201,49221,49246,49307,49307,49348,49349,49353,49353,49363,49516,49526,49585,49657,49657,49695" d="M159.5,169.5C160.89999,171.864 161.56758,172.63739 162.136,173.10001C162.94025,173.75456 163.61633,174.11464 164.54817,174.4955C165.28587,174.797 165.79677,175.5639 166.10001,176.25999C166.49579,177.16852 166.85164,177.90096 167.66667,178.5C168.2758,178.94771 169.2498,179.43906 170.02083,179.5C170.99695,179.57715 171.8045,179.5 172.82117,179.5L173.63867,179.5L174.54817,179.5" id="svg_7" stroke-width="20" stroke="#fff" fill="none"/>
  <path t="51606,51814,51824,51824,51845,51845,51845,51855,51869,51869,51976" d="M171.5,174.5C172.38667,174.5 173.35316,174.23367 174.25734,174.50034C175.03993,174.73114 175.51772,175.52397 176.01733,176.01733C176.86938,176.85872 177.66667,177.33333 178.47917,177.47917L179.39017,177.5" id="svg_8" stroke-width="20" stroke="#fff" fill="none"/>
  <path t="56830,57047,57057,57057,57236,57276,57400,57400,57410,57426,57427,57449,57575,57575,57601,57616,57820" d="M179.5,164.5C179.5,165.36133 179.5,166.33333 179.5,167.08934C179.5,168 179.5,168.88933 179.5,169.83333C179.5,170.68533 179.5,171.61467 179.5,172.5C179.5,173.3 179.5,174.21466 179.5,175.06934C179.5,175.85184 179.5,176.864 179.5,177.7955L179.5,178.72133" id="svg_9" stroke-width="20" stroke="#fff" fill="none"/>
  <path t="60589,60693,60728,60748,60748,60784,60818,60910,60910,60934,60976,60976,61006,61080,61080,61090,61213,61223,61306,61346,61362,61362" d="M180.5,158.5C180.5,159.52083 180.5,160.36133 180.5,161.33333C180.5,162.08934 180.5,163 180.5,163.88933C180.5,164.83333 180.5,165.68533 180.5,166.61467C180.5,167.5 180.5,168.3 180.5,169.21466C180.5,170.20984 180.5,170.85184 180.5,171.864C180.5,172.8 180.5,173.69867 180.5,174.60983L180.5,175.36133L180.5,176.33333L180.5,177.1955" id="svg_10" stroke-width="20" stroke="#fff" fill="none"/>
  <path t="63110,63319,63319,63344,63344,63464,63484,63484,63526,63554,63570,63586,63616,63630,63630,63670,63806,63880,63880,63924,63924,63958,64049,64119,64119,64176" d="M180.5,154.5C181.44284,155.567 181.49774,156.55634 181.5,157.57817C181.50189,158.4375 181.5,159.332 181.5,160.20984C181.5,161.01733 181.5,161.97917 181.5,162.8C181.5,163.7955 181.57036,164.61417 181.47917,165.52083C181.39658,166.34216 180.75156,167.0269 180.536,167.89999C180.29869,168.86111 180.5,169.83333 180.5,170.52083C180.5,171.4785 180.5,172.29866 180.5,173.2C180.5,174.14284 180.5,175.06934 180.5,175.85184L180.5,176.87466" id="svg_11" stroke-width="3" stroke="#000" fill="none"/>
  <path t="65689,66018,66028,66052,66194,66204,66238,66238,66254,66268,66314,66340,66403,66519,66529,66623,66623,66716,66742" d="M191.5,163.5C191.21466,162.58533 190.11833,162.89455 189.58533,162.216C189.0359,161.51656 189.72568,160.27888 189.05733,159.743C188.36801,159.19029 187.13841,159.61676 186.55267,159.14734C185.88847,158.61504 185.3571,158.07436 184.784,157.50133C184.24571,156.9631 183.64934,156.51466 182.74283,156.05733L182.48534,155.35066L182.07466,154.57201L181.14284,154.5" id="svg_12" stroke-width="3" stroke="#000" fill="none"/>
  <path t="70890,71122,71122,71156,71196,71226,71226,71298,71312,71369,71456,71549,71559,71559,71649,71659,71680,71710,71726,71816,71826,71836,71868,71868,71878,71908,71962,71962,71984,72046,72100,72100,72216,72230,72261,72386,72386,72418,72551,72574,73107,73117,73117,73154,73158,73369,73436,73436,73456,73486,73526,73558,74091,74091,74579,74589,74753,74753,74763,74782,74788,74802,74832,74832,74848,74864,74888,74898,74904,74920,74920,74950,75155,75165,75165,75194,75208,75228,75284,75298,75298,75312,75312,75324,75376,75426,75432,75533,75543,75556,75572,75592,75592,75742,75778,75778,75808,75854,75904,76042,76065,76065,76095,76120,76152,76166,76186,76186,76222,76309,76379,76426,76426,76470,76519,76556,76570,76686,76686,76716,76752,76752,76772,76807,76808,76859,76859,76869,76918,76918,76934,77001,77001,77024,77034,77054,77054,77080,77120,77149,77179,77179,77179,77186,77236,77236,77250,77286,77286,77312,77336,77358,77409,77409,77751,78052,78062,78072,78079,78079,78079,78088,78114,78114,78128,78158,78158,78164,78226,78249,78260,78279,78279,78289,78346,78366,78380,78380,78396,78396,78412,78422,78436,78446,78462,78476,78476,78506,78535,78536,78536,78542,78542,78568,78568,78582,78607,78609,78622,78622,78686,78686,78728,78774,78774,78794,78810,78840,78860,78886,78894,78894,78910,78910,78976,78986,79012,79046,79072,79092,79102,79132,79142,79142,79158,79158,79219,79219,79350,79429,79466,79476,79476,79490,79510,79550,79550,79566,79576,79592,79597,79612,79642,79656,79678,79678,79698,79728,79757,79771,79772,79784,79798,79798,79808,79828,79828,79838,79854,79859,79868,79868,79884,79884,79888,79940,79944,79945,79974,79984,79990,80014,80024,80030,80056,80076,80076,80120,80140,80140,80162,80176,80192,80202,80218,80222,80222,80262,80272,80288,80302,80318,80318,80338,80422,80463,80463,80504,80504,80524,80550,80555,80570,80721,80756,80756,80786,80828,80828,80903,80959,80988,81004,81079,81079" d="M119.5,111.5C119.58533,112.30133 120.06575,113.10446 120.464,113.88934C120.77702,114.50626 121.45329,115.06631 121.4955,115.85184C121.54982,116.86255 121.5,117.7 121.5,118.59983C121.5,119.48534 121.65269,120.40214 121.33334,121.33334C121.0944,122.03007 120.1346,122.56741 119.66666,123.33334C119.26064,123.99792 118.64986,124.48199 117.74284,124.5C116.8895,124.51694 115.90825,124.12733 115.11066,124.52133C114.31863,124.91258 114.50782,125.85185 114.5,126.95834C114.49368,127.85269 113.93346,128.44908 113.14817,128.4955C112.1483,128.5546 111.6301,129.03238 111.33334,129.83333C111.07106,130.54121 110.02927,131.06215 109.58533,131.784C109.12078,132.53937 109.06296,133.42892 108.31467,133.48933C107.3896,133.56401 106.55358,133.78151 106.5,134.66933C106.44869,135.51953 106.22565,136.44955 105.85267,137.1955C105.46348,137.97388 105.52676,138.9225 105,139.47917C104.53131,139.97447 104.5,140.85184 104.5,141.74283C104.5,142.7 104.5,143.59984 104.5,144.45183C104.5,145.36133 104.52508,146.01762 104.5,147.08934C104.47916,147.9799 103.79123,148.46123 102.98267,148.49867C102.04241,148.54222 101.51193,149.31433 100.7955,149.4955C99.8858,149.72554 98.93066,149.5 98.14817,149.5C97.136,149.5 96.3,149.5 95.40017,149.5C94.47916,149.5 93.46267,149.22742 92.83334,149.83333C92.19427,150.44861 92.02312,151.23163 91.2045,151.5045C90.44652,151.75717 90.04922,152.65851 89.39017,153.14734C88.73965,153.62984 87.98693,153.91096 87.33334,154.5C86.66662,155.10086 86.03032,155.32851 85.66666,156.33333C85.38273,157.11787 84.74079,157.57097 84.5,158.44733C84.29138,159.20659 83.22057,158.86241 82.54166,159.54167C81.96857,160.11507 82.1049,161.08521 81.584,161.78534C81.06467,162.48335 80.64883,163.26668 80.5045,164.14284C80.35413,165.05571 80.35331,165.73244 79.85267,166.54817C79.41796,167.25648 79.5,168.2 79.5,169.064C79.5,169.94284 79.5,170.85184 79.5,171.74283C79.5,172.7 79.28488,173.69673 79.72134,174.37883C80.1881,175.10831 80.44357,175.70178 81,176.47917C81.46219,177.12489 82.26166,177.49774 83.14817,177.5C83.93066,177.50198 84.97981,177.41591 85.8,177.85266C86.5495,178.25177 87.12646,178.89203 87.83334,179.33333C88.53805,179.77328 89.58266,179.5 90.5,179.5C91.3,179.5 92.21467,179.5 93.20533,179.5C93.932,179.5 94.936,179.49872 95.8,179.5C96.69867,179.50134 97.16588,180.03168 97.60983,180.79466C98.03178,181.51982 99.16666,181.5 100.02084,181.5C100.9,181.5 101.82542,181.41782 102.66666,181.66667C103.5088,181.91579 104.25071,182.4391 105.11066,182.5C106.03934,182.56577 107.0425,182.5 107.74,182.5C108.64667,182.5 109.58134,182.5 110.5,182.5C111.3,182.5 112.136,182.5 113.14817,182.5C113.93066,182.5 114.936,182.5 115.8,182.5C116.70133,182.5 117.66666,182.50201 118.47916,182.5C119.39017,182.49774 119.9416,181.81477 120.8,181.55716C121.66519,181.29752 122.68288,181.18675 123.14817,180.79466C123.81458,180.23309 124.58266,179.50134 125.5,179.5C126.3,179.49884 127.13745,179.54982 128.14816,179.4955C128.9337,179.45329 129.45059,178.6454 130.11067,178.5C130.97917,178.30869 131.91087,178.51985 132.82117,178.49983C133.63925,178.48184 134.35155,177.87323 134.936,177.48933C135.6142,177.04387 136.53371,176.74564 137.25717,176.39017C138.02728,176.01178 138.47742,175.13242 139.33067,174.67067C140.0329,174.29065 140.95807,174.36157 141.55267,173.85266C142.17313,173.32162 143.12889,173.10258 143.93066,172.784C144.7692,172.45081 145.66592,172.33138 146.336,172.07466C147.10048,171.78177 148.16382,171.84758 148.92934,171.50133C149.66464,171.16873 149.32115,169.90977 150.11067,169.52133C150.90887,169.12862 151.91154,169.53963 152.82117,169.49966C153.64102,169.46364 154.40617,168.94267 154.491,168.14816C154.59732,167.15228 154.33299,166.14183 154.536,165.35066C154.75473,164.49815 155.44009,163.94917 155.85266,163.2C156.31444,162.36145 156.7177,161.58522 157.66667,161.5C158.47697,161.42723 159.35927,161.08159 159.47867,160.35066C159.65154,159.29248 159.66435,158.53029 160.14734,157.7955C160.61487,157.08423 161.24706,156.5023 161.464,155.64934C161.68762,154.7701 161.91637,154.02301 162.66667,153.5C163.29138,153.06453 164.32701,152.55415 164.49733,151.78534C164.71161,150.81812 164.5,150.06799 164.5,149.064C164.5,148.2 164.5,147.29866 164.5,146.33333C164.5,145.52083 164.73952,144.49609 164.38567,143.7955C164.00743,143.0466 162.88341,143.0083 162.04167,142.5C161.3506,142.08269 160.7961,141.41266 160.52533,140.64934C160.2113,139.76408 159.42799,139.5 158.63867,139.5C157.66667,139.5 156.80249,139.44649 156,139C155.20248,138.55629 154.82498,137.8717 154.16667,137.5C153.42476,137.0811 152.38533,137.5 151.5,137.5C150.7,137.5 149.74283,137.5 148.84734,137.5C148.15266,137.5 147.136,137.5 146.2,137.5C145.29866,137.5 144.33333,137.5 143.5,137.5C142.66667,137.5 141.8045,137.5 140.89999,137.5C139.97917,137.5 139.01601,137.5 138.32533,137.5C137.25717,137.5 136.39999,137.5 135.5,137.5C134.62117,137.5 133.66589,137.15942 132.83333,137.66667C132.12169,138.10025 131.5,138.5 130.7,138.5C129.66667,138.5 128.79016,138.5 127.98267,138.5C127.02084,138.5 126.2,138.5 125.30133,138.5C124.39017,138.5 123.47916,138.5 122.5215,138.5C121.8045,138.5 120.80894,138.12541 119.936,138.536C119.19437,138.88481 118.63916,139.48199 117.66666,139.5C116.80464,139.51596 115.84608,139.19682 115.02084,139.5C114.37898,139.73579 114.54213,141.01357 113.79017,141.38567C113.05954,141.74721 112.09877,141.58609 111.47467,142.07466C110.84554,142.56717 110.02806,142.66164 109.5,143.33333C109.05123,143.90416 108.06833,143.97444 107.26167,144.45183C106.47344,144.9183 106.67504,146.07631 105.88934,146.47867C105.03926,146.914 104.5045,147.2045 104.5,148.064L103.932,148.50133L103.20533,148.55716" id="svg_13" stroke-width="3" stroke="#000" fill="none"/>
  <path t="82418,82608,82618,82618,82637,82653,82657,82668,82682,82714,82724,82724,82738,82768,82839,82860,82860" d="M110.5,127.5C112.25716,127.61433 112.99815,128.05098 113.63866,128.64934C114.34693,129.31097 115.15794,129.53458 115.47467,130.35066C115.81454,131.22636 116.60824,131.24434 117.37883,131.72133C118.1152,132.17714 118.97499,132.2045 119.45834,133.02083C119.90134,133.76901 119.85267,134.509 120.416,135.06934L120.55267,135.85184" id="svg_14" stroke-width="3" stroke="#000" fill="none"/>
  <path t="83749,83915,83925,83938,83948,83970,83970,83980,83984,83984,84000,84010,84024,84036,84040,84040,84050,84066,84070,84070,84135" d="M120.5,121.5C120.5,123.3 120.49703,124.31564 121.30133,124.49866C122.1919,124.70132 122.48214,125.21003 122.5,126.01733C122.52084,126.95903 123.2636,127.20814 123.932,127.49866C124.63959,127.80623 124.53644,128.87018 125,129.52083C125.47448,130.18681 125.62522,131.26277 126.30133,131.49733C127.17962,131.80203 127.52084,132.5 127.94267,133.25717L128.64934,133.51466L129.45833,134" id="svg_15" stroke-width="3" stroke="#000" fill="none"/>
  <path t="85564,85971,85997,86022,86062,86110,86110,86139,86155,86310,86310,86310,86331,86417,86427,86457,86457,86503,86583,86593,86593,86633,86673,86713,86759,86805,86831,86831,86886,86896,86896,86944,86960,86960,87060,87085,87085,87105,87105,87170,87201,87207,87207,87247,87252,87252,87309,87363,87377,87393,87403,87403,87409,87423,87449,87463,87510,87510,87535,87540" d="M125.5,124.5C125.5,127.08933 125.27248,128.02959 125.5,128.88933C125.6824,129.5786 126.35703,130.08195 126.55267,130.85184C126.78421,131.76302 127.04401,132.7664 127.83334,133.33333C128.3876,133.73145 129.51466,133.5 130.30133,133.5C131.2,133.5 132.136,133.5 132.98267,133.5C133.79016,133.5 134.85716,133.5 135.7,133.5C136.60017,133.5 137.38533,133.5 138.31467,133.5C139.33067,133.5 140.11067,133.5 141,133.5C141.91066,133.5 142.82117,133.5 143.63867,133.5C144.66667,133.5 145.5,133.5 146.3,133.5C147.25717,133.5 148.19875,133.77678 148.93066,133.5C149.6669,133.22159 149.87892,132.2115 150.30133,131.61467C150.82784,130.87077 151.36964,130.15062 152.064,129.48534C152.6245,128.94829 153.27042,128.28215 153.79466,127.8C154.57161,127.08545 154.49994,126.17883 154.5,125.36134C154.50009,124.27866 155.11029,123.76216 155.464,123.064C155.85686,122.2886 155.5,121.17883 155.5,120.52084C155.5,119.48534 155.62666,118.72256 156.07466,117.9C156.50481,117.11022 156.50017,116.17883 156.536,115.36134L156.92534,114.56133L157.47917,113.97916" id="svg_16" stroke-width="3" stroke="#000" fill="none"/>
  <path t="89490,89693,89719,89719,89733,89753,89792,89793,89819,89824,89839,89855,89869,89895,89895,89998,90035,90148,90148,90172,90216,90216,90319,90329,90329,90369" d="M161.5,114.5C161.5,115.52084 161.5,116.4785 161.5,117.29867C161.5,118.2 161.5,119.14283 161.5,120.06934C161.5,120.85184 161.5,121.864 161.5,122.7C161.5,123.59983 161.5,124.52084 161.5,125.36134C161.5,126.33334 161.5,127.08933 161.5,128C161.5,128.97917 161.5,129.83333 161.5,130.68533C161.5,131.61467 161.5,132.5 161.5,133.3C161.5,134.33333 161.4955,135.20534 161.41467,135.93201L160.784,136.58267" id="svg_17" stroke-width="3" stroke="#000" fill="none"/>
  <path t="106779,106967,106988,107018,107034,107034,107060,107074,107074,107120,107169,107169,107200,107216,107221,107236,107246,107254,107254,107274,107290,107342,107342,107393,107415,107459,107469,107485,107506,107522,107522,107535,107545,107572,107618,107618,107623,107638,107672,107688,107724,107724,107776,107776,107786,107834,108062,108062,108109,108119,108137,108172,108188,108188,108349,108402,108412,108412,108434,108450,108503,108519,108550,108550,108713,108748,108748,108778,108818,108832,108832,108838,108848,108878,108898,108953,108953,108986,109012,109056,109072,109118,109118,109132,109142,109159,109226,109304,109304,109314,109318,109360,109390,109420,109420,109432,109448,109459,109474,109498,109514,109530,109535,109536,109612,109719,109776,109806,109806,109836,109862,109878,109936,109998,109998,110082,110092,110108,110159,110184,110184,110196,110222,110386,110433,110510,110534,110554,110554,110574,110574,111067,111215,111225,111349,111349,111376,111408,111531,111762,111762,111762,111795,111805,111825,111825,111852,111852,111858,111858,111882,111962,111986,112028,112196,112206,112206,112220,112230,112244,112270,112284,112284,112336,112390,112416,112469,112469,112492,112712,112712,112759,112819,112819,112819,112847,112847,113012,113022,113040,113050,113050,113302,113326,113336,113358,113372,113372,113436,113436,113474,113474,113514,113528,113697,113707,113707,113735,113735,113740,113740,113756,113785,113826,113826,113836,113855,113856,113862,113862,113862,113875,113875,114004,114004,114004,114032,114038,114038,114048,114150,114150,114180,114204,114204,114220,114220,114250,114264,114305,114320,114340,114340,114482,114508,114511,114552,114609,114609,114637,114654,114658,114818,114828,114828,114846,114846,114860,115205,115248,115248,115264,115298,115402,115402,115723,115752,115788,115794,115808,115824,115824,115834,115854,115868,115868,115884,115893,115934,116005,116055,116119,116142,116156,116156,116172,116182,116225,116439,116484,116490,116520,116530,116534,116559,116560,116589,116606,116749,116782,116782,116816,116816,116852,116868,116868,116891,116902,116937,116948,116948,116953,116963,116968,116983,117072,117082,117094,117100,117109,117114,117124,117124,117205,117205,117239,117249,117272,117311,117379,117417,117432,117504,117528,117528,117547,117557,117700,117733,117734,117759,118190,118200,118229,118455,118482,118501,119423,119423,119449,119480,119505,119529,119565,119566,120009,120034,120049,120050,120090,120379,120423,120427,120453,120487,120488,120504,120504,120699,120699,120742,120745,120806,120816,120816,120835,120877,120877,120887,120937,120987,120991,121079,121079,121089,121109,121119,121149,121169,121235,121235,121235,121245,121379,121389,121425,121441,121481,121481,121497,121497,121527,121543,121664,121699,121742,121769,121770,121845,121889,121890,122002,122249,122249,122274,122274,122607,122607,122708,122759,122759,122769,122839,122942,122952,122952,122975,122999,123047,123085,123142,123152,123239,123287,123288,123342,123422,123422,123432,123824,123857,123981" d="M106.5,179.5C106.5,182.08934 106.5,183 106.5,183.88933C106.5,184.83333 106.5,185.52083 106.5,186.61467C106.5,187.5 106.5,188.3 106.5,189.21466C106.5,190.06934 106.5,190.85184 106.5,191.864C106.5,192.8 106.5,193.69867 106.5,194.56134C106.5,195.36133 106.5,196.33333 106.5,197.1955C106.5,198.10001 106.5,198.97917 106.5,199.94284C106.5,200.68533 106.63577,201.6241 106.49983,202.59984C106.38811,203.40172 105.5286,203.85117 105.5,204.66933C105.47025,205.52031 105.5,206.4785 105.5,207.29866C105.5,208.2 105.79075,208.84 106.33334,209.5C106.79704,210.06404 106.52379,211.04472 106.92533,211.864C107.35165,212.73383 107.18602,213.6655 107.52133,214.48534C107.82416,215.22574 108.80502,215.58739 109.257,216.4785C109.6436,217.24071 109.5,218.2 109.5,219.064C109.5,220.06934 109.5,220.85184 109.5,221.74283C109.5,222.7 109.5,223.59984 109.5,224.45183C109.5,225.36133 109.99731,226.1848 109.428,227.05333C108.94022,227.79749 107.54164,227.12251 106.86166,227.55716C106.23872,227.95535 106.57216,229.31497 105.88934,229.5C105.05106,229.72714 104.50316,229.94284 104.5,230.68533C104.4955,231.74286 104.15996,232.49118 103.5,233C102.73509,233.58972 102.5,234.45183 102.5,235.20984C102.5,236.01733 102.33808,236.93022 101.85267,237.55267C101.3441,238.2048 101.54066,239.2157 101.49866,240.06799C101.45594,240.93503 100.64574,241.54271 100.50134,242.30133C100.33328,243.18414 100.5348,244.14354 100.49866,245.06799C100.4702,245.79625 99.68187,246.4901 99.50134,247.30133C99.30611,248.17854 99.5,249.064 99.5,249.94284C99.5,250.85184 99.5,251.74283 99.5,252.7C99.5,253.59984 99.5,254.45183 99.5,255.20984C99.5,256.01733 99.47682,257.15988 98.64933,257.47467C97.86584,257.77274 97.90821,258.70743 97.33334,259.33334C96.75391,259.9642 96.53445,260.36194 96.5,261.33334C96.4714,262.13986 95.58374,262.6543 95.5,263.5C95.40961,264.41287 95.5,265.20984 95.5,266.01733C95.5,266.97916 95.66995,267.91626 95.5,268.7955C95.35537,269.5437 94.54696,270.06631 94.5045,270.85184C94.45641,271.74155 94.5,272.69867 94.5,273.55267C94.5,274.45184 94.5,275.36133 94.5,276.01733C94.5,277.08932 94.5,278 94.5,278.88934C94.5,279.14282 94.24529,277.93094 94.936,277.53601C95.6945,277.10229 96.47066,277.5 97.50083,277.5C98.21333,277.5 99.44584,277.50443 99.5,278.2045C99.57238,279.14001 99.19477,280.15674 99.58533,280.93201C99.96064,281.67697 101.08706,281.51974 101.55267,282.2045C102.06777,282.96204 102.85043,283.26361 103.63866,283.52533C104.48753,283.80719 105.11544,284.42096 105.7,285.06934C106.1918,285.61484 106.60349,286.74176 107.25716,287.13834C108.06344,287.6275 109.16354,287.43524 109.491,288.2045C109.85943,289.07001 110.30133,289.49933 111.2,289.5C112.02084,289.50061 112.984,289.50217 113.84734,289.5C114.73834,289.49774 115.30868,288.83368 116.02084,288.52084C116.83604,288.16275 117.82832,288.29495 118.47916,288C119.44993,287.56006 120.32655,287.90912 121.14283,287.44284C121.95594,286.97839 122.4027,286.65192 123.31467,286.47867C124.20605,286.30933 123.94518,285.06897 124.58533,284.50266C125.27039,283.89661 126.3,284.5 127.136,284.5C128.14816,284.5 128.93066,284.5 129.936,284.5C130.8,284.5 131.70134,284.5 132.66667,284.5C133.47917,284.5 134.39017,284.5 135.2045,284.5C136.10001,284.5 137.02083,284.5 137.98267,284.5C138.79016,284.5 139.7215,284.5 140.60001,284.5C141.5,284.5 142.25717,284.5 143.14816,284.5C144.16667,284.5 145.04167,284.5 145.98534,284.5C146.71066,284.5 147.69983,284.5 148.47917,284.5C149.4785,284.5 150.29866,284.5 151.21466,284.5C152.14667,284.5 152.98267,284.5 153.79016,284.5C154.78667,284.5 155.66667,284.5 156.52083,284.5C157.5,284.5 158.30902,284.55582 159.10001,284.41467C160.12331,284.23209 160.71739,283.84033 161.92101,283.62149C162.69594,283.48059 163.45912,283.71289 164.47917,283.47916C165.26138,283.29993 165.99356,282.67801 166.87466,282.53601C167.80978,282.38528 168.63867,282.5 169.60533,282.5C170.38266,282.5 171.188,282.5 172.18134,282.5C172.95833,282.5 174,282.5 174.936,282.5C175.8,282.5 176.70134,282.5 177.66667,282.5C178.47917,282.5 179.39017,282.5 180.2045,282.5C181.10001,282.5 182.02083,282.5 182.98267,282.5C183.79016,282.5 184.81686,282.65118 185.44733,282.14734C186.05872,281.65875 186.91153,281.53961 187.82117,281.49966C188.64102,281.46365 189.4062,280.94269 189.491,280.14816C189.5984,279.14166 189.5,278.29999 189.5,277.39984C189.5,276.61465 190.12508,275.46994 189.5,274.67065C189.05229,274.09818 187.74443,274.57834 187.50267,273.69867C187.27773,272.88016 188.41234,272.84286 189.33067,272.49866C190.13614,272.19675 190.26147,271.14886 190.52533,270.36133C190.80644,269.52225 191.86179,269.51501 192.82117,269.49985C193.47942,269.48944 194.18054,269.09311 194.5045,268.2045C194.77702,267.45697 195.86426,267.59021 196.47467,267.07468C197.08136,266.56229 197.12447,265.58649 197.83333,264.83334C198.33795,264.29718 199.4427,264.14862 199.5,263.30133C199.55974,262.418 199.5,261.61334 199.5,260.68533C199.5,259.74283 199.5,258.88934 199.5,258C199.5,257.08932 199.5,256.17883 199.5,255.36133C199.5,254.41467 199.35497,253.66823 198.64934,253.10001C197.86046,252.46474 197.59058,251.73743 197.491,250.85184C197.40172,250.05782 196.63779,249.58304 195.66667,249.5C194.78575,249.42467 194.94748,248.47935 194.32933,247.78534C193.73714,247.12047 192.36569,247.87534 191.78667,247.41467C191.121,246.88509 191.87819,245.50667 191.33333,244.83333C190.78351,244.15385 189.58498,244.34557 189.5,243.5C189.40854,242.5899 188.54204,242.76686 187.83333,242.33333C187.06331,241.86229 186.6275,241.05637 186.51067,240.35066C186.34198,239.33186 185.7014,238.83942 185.51067,237.89999C185.33563,237.03786 184.71207,236.43553 184.536,235.64934C184.32167,234.69237 184.5118,233.88925 184.5,232.936C184.48933,232.07446 183.68922,231.7659 183.06799,231.33067C182.37259,230.84351 182.0584,229.82213 181.55267,229.14284C181.0107,228.41484 181.07988,227.50801 180.44733,226.85716C179.82014,226.21184 179.5,225.79466 179.5,224.83333C179.5,223.97917 179.5,223.10001 179.5,222.1955C179.5,221.17883 179.5,220.36133 179.5,219.45183C179.5,218.69867 179.5,217.8 179.5,216.864C179.5,216.01733 179.5,215.06934 179.5,214.14284C179.5,213.3 179.5,212.39983 179.5,211.61467C179.5,210.68533 179.48604,209.58594 180.2045,209.5C181.09367,209.39363 182.02223,209.45071 182.98267,209.50267C183.64136,209.5383 184.1785,210.26955 184.49733,210.93201C184.83232,211.62804 186.14209,211.31758 186.47917,212.02083C186.85483,212.80452 187.04242,213.45778 187.98267,213.50133C188.79123,213.53877 189.45192,214.07564 189.50133,215.06799C189.53757,215.7959 190.2303,216.3448 190.88933,216.936C191.57924,217.55493 191.80205,218.36722 192.66667,218.66667C193.49652,218.95409 194.4131,219.05399 195.07466,219.57201C195.7639,220.11169 195.75137,221.2196 196.41867,221.784C197.02934,222.30051 197.81715,222.29759 198.64799,222.584C199.55142,222.89543 199.34694,224.18143 200.11067,224.48933C200.93555,224.8219 201.89024,224.45847 202.83333,224.5C203.65172,224.53604 204.40495,225.05522 204.491,225.79466C204.6133,226.84566 204.9756,227.3947 205.8,227.85266C206.5423,228.26501 207.12453,228.92172 207.94267,229.37849C208.56723,229.72719 209.66667,229.5 210.5,229.5C211.3,229.5 212.29816,229.55463 212.98399,230.06934C213.72418,230.62485 214.3333,231.33336 214.864,231.864C215.59996,232.59988 216.15251,233.29776 217.02083,233.47917C217.96259,233.67592 218.8006,233.54356 219.47867,234.07466C220.00836,234.48955 221.08873,234.41035 221.416,235.06799C221.80815,235.856 222.04437,236.75119 222.66933,237.216C223.37373,237.73991 224.24731,237.88243 224.50017,238.72133C224.7319,239.49017 225.99948,239.32939 226.416,240.06799C226.77921,240.71205 227.04224,241.44734 227.98267,241.50133C228.79076,241.54771 229.491,242.14734 230.02083,242.5L230.97917,242.52083L231.52533,243.07466" id="svg_19" stroke-width="3" stroke="#000" fill="none"/>
  <path t="127219,127419,127474,127556,127556,127566,127626,127636,127713,127713,127753,127753,127843,127869,127930,127930,127940,128029,128039,128051,128051,128065,128065,128081,128154,128200,128217,128349,128369,128389,128432,128458,128504,128671,128766,128766,128809,128836,128876,128892,128912,128913,128969,128969,129012,129025,129068,129084,129094,129094,129163,129185,129266,129310,129330,129426,129426,129456,129476,129860,129910,129989,129989,131069,131100,131153,131182,131236,131339,131349,131433,131465,131480,131489,131501,131579,131621,131621,131654,131654,131739,131766,131776,131792,131808,131808,131848,131878,131975,131975,131985,131998,132215,132296,132332,132499,132629,132639,132660,132664,132664,132828,132850,132867,132892,132906,132922,132923,132926,132943,132952,132992,132998,133009,133012,133013,133038,133058,133078,133084,133138,133192,133224,133270,133276,133293,133293,133322,133376,133402,133408,133424,133434,133448,133801,133822,133823,133862,133876,133893,133932,133953,133978,133978,134201,134314" d="M180.5,209.5C180.33333,207.66667 179.51466,207.5 178.63867,207.5C177.98267,207.5 176.91066,207.5 176,207.5C175.11067,207.5 174.1767,207.31181 173.47917,207C172.67741,206.6416 171.80452,206.50226 170.89999,206.5C170.02083,206.49782 169.05716,206.5 168.31467,206.5C167.25717,206.5 166.38376,206.6702 165.5,206.5C164.61867,206.33028 164.75404,205.22807 163.93066,204.67067C163.269,204.22275 162.25717,204.5 161.3,204.5C160.40016,204.5 159.54817,204.5 158.64934,204.5C157.74283,204.5 157.04643,204.35355 156.416,203.784C155.76715,203.19783 154.9288,202.92874 154.5,202.27834C153.97984,201.48936 154.5,200.52083 154.5,199.60983C154.5,198.7955 154.5,197.89999 154.5,196.97917C154.5,196.01733 154.21835,195.27332 154.66667,194.33333C154.97719,193.68227 155.14075,192.81421 155.52083,192.02083C155.85776,191.3175 157.02319,191.5647 157.98267,191.49733C158.79584,191.44023 158.98581,190.65359 159.5,189.83333C159.82843,189.3094 160.89999,189.5 161.8045,189.5C162.82117,189.5 163.47917,189.5 164.51466,189.5C165.30133,189.5 166.2,189.5 167.136,189.5C167.98267,189.5 169.0831,189.81932 169.5,189.14284C169.99467,188.34018 169.51166,187.30125 169.5,186.43866C169.48933,185.64912 169.06017,184.73375 168.35066,184.52133C167.50308,184.26758 167.117,183.71365 166.30133,183.49867C165.50371,183.28844 165.54626,182.17084 165.07466,181.51466C164.6306,180.8968 164.69452,179.83736 164.05733,179.49983C163.30275,179.10013 162.56642,178.9545 162.07466,178.10001C161.65875,177.3773 161.01859,176.7442 160.62134,176.05733C160.18599,175.30458 159.93571,174.5127 159.5,174C159.06746,173.49104 158.19911,173.45139 157.48534,172.92534C156.84702,172.4549 156.50226,171.73834 156.5,170.85184C156.49742,169.83333 156.49779,168.97917 156.5,168.10001C156.50226,167.20448 157.05675,166.60396 157.41733,165.93201C157.84288,165.13896 158.34868,164.53603 159.33067,164.5C160.11015,164.47141 161,164.5 161.91066,164.5C162.82117,164.5 163.93237,164.00191 164.49733,164.67067C165.03275,165.30444 164.85138,166.44263 165.7,166.5C166.59779,166.5607 167.24333,167.00388 167.94267,167.37849C168.70074,167.78458 169.31456,167.87814 169.50133,168.69867C169.6844,169.50296 170.98363,169.03517 171.49867,169.67067C172.03397,170.33115 171.16727,171.61964 171.66667,172.33333C172.16905,173.05125 172.80125,173.54813 173.5,173.97917C174.35083,174.50404 174.15942,175.33411 174.66667,176.16667C175.10025,176.87831 176.04666,177.17032 176.44284,177.85716C176.91269,178.67174 177.0737,179.30716 177.41467,180.06934C177.73592,180.78741 177.5,181.864 177.5,182.8C177.5,183.69867 177.64519,184.30537 178.5,184.54167C179.32576,184.76994 179.47867,185.68533 179.5,186.61333L179.58533,187.49867" id="svg_20" stroke-width="3" stroke="#000" fill="none"/>
  <path t="138076,138184,138184,138204,138214,138220,138230,138284,138284,138316,138330,138366,138429,138466,138466,138492,138502,138502,138578,138624,138625,138668,138668,138698,138742,138742,138769,138769,138799,138823,138824,138836,138850,138855,138899,138942,138942,138966,138982,138995,138996,139056,139069,139086,139086,139096,139202,139228,139234,139264,139288,139288,139334,139344,139344,139365,139365,139404,139414,139414,139436,139436,139446,139466,139480,139480,139506,139512,139591,139638,139808,139869,139869,139883,140308,140645,140702,140824,140834,140834,140868,140898,140977,140977,141008,141060,141060,141074,141146,141170,141176,141177,141216,141230,141329,141422,141422,141462,141594,141640,141660,141704,141704,141726,141776,141781,141900,141988,142007,142027,142097,142098,142248,142270,142285,142299,142303,142313,142313,142319,142319,142370,142402,142406,142555,142622,142648,142648,142687,142694,142694,142718,142724,142724,142769,142794,142804,142834,142834,142854,142854,142870,142870,142895,142910,142936,142966,142966,142982,143101,143125,143141,143142,143167,143167,143171,143187,143197,143197,143201,143211,143211,143239,143239,143255,143266,143266,143275,143282,143292,143295,143311,143311,143341,143351,143361,143371,143383,143383,143399,143443,143476,143476,143490,143516,143516,143530,143546,143546,143549,143576,143576,143602,143606,143621,143645,143666,143687,143688,143692,143779,143779,143885,143908,143924,143950,143964,143964,143996,143999,144000,144026,144034,144034,144050,144066,144066,144086" d="M122.5,284.5C122.48933,285.776 122.61895,286.5296 122.07467,287.40268C121.62816,288.11893 121.27132,288.94232 120.47467,289.48932C119.75071,289.98642 119.51042,290.52066 119.5,291.47849C119.48889,292.49994 119.89445,293.4353 119.5,294.14734C119.17533,294.7334 117.91971,294.58331 117.56133,295.36133C117.14363,296.26816 116.94126,296.94977 116.55267,297.79999C116.15373,298.67282 115.59766,299.36545 115.216,300.06799C114.82816,300.78189 114.67259,301.89658 114.16666,302.5C113.62826,303.14215 112.33872,303.0571 111.78667,303.58401C111.12553,304.21506 111.61812,305.23172 111.41467,306.01733C111.15208,307.03128 110.61762,307.84622 110.07467,308.47467C109.57562,309.05231 109.5,309.94284 109.5,310.68533C109.5,311.74283 109.78905,312.8219 109.16666,313.33334C108.519,313.86554 107.50405,313.87613 107,314.52084C106.49554,315.16608 106.92513,316.12488 106.464,317.05334C106.11289,317.76028 105.98223,318.49387 105.41467,319.21466C104.87209,319.90372 104.51748,320.21002 104.5,321.01733C104.47916,321.97983 103.93126,322.70093 103.31467,323.10001C102.38756,323.70004 101.62812,323.97488 101,324.5625C100.34792,325.17255 100.51042,326.02069 100.5,327.16666C100.49281,327.95831 100.58004,328.94232 100.14733,329.509C99.6657,330.13974 99.50225,330.85184 99.5,331.86401C99.49793,332.7955 99.5,333.66666 99.5,334.52084C99.5,335.36133 99.53564,336.33408 99.5,337.1955C99.46397,338.06622 98.47036,338.12177 97.83334,338.66666C97.16162,339.24121 97.5,340.36133 97.5,341.33334C97.5,342.08932 97.5,343 97.5,343.88934C97.5,344.83334 97.5,345.52084 97.5,346.61465C97.5,347.5 97.94433,348.41516 97.5,349.21466C97.17127,349.80615 96.51801,350.36084 96.5,351.33334C96.48601,352.0892 96.7834,353.0419 96.5,353.97916C96.31578,354.58841 95.54671,355.06631 95.5045,355.85184C95.45018,356.86258 95.54773,357.80127 95.5,358.69867C95.45728,359.50208 94.67553,359.83508 94.51067,360.64932C94.33857,361.49927 93.39424,361.31674 92.60983,361.85266C91.93314,362.31497 91.19527,362.40802 90.30133,362.5C89.48715,362.58377 89.063,363.42947 88.31467,363.48932C87.38823,363.56342 86.27337,363.75861 85.62133,363.27866C84.92308,362.76468 84.55607,362.05228 84.49966,361.17883C84.44678,360.35989 83.80067,359.56357 83.068,359.50266C82.078,359.42035 81.3442,359.05869 80.85267,358.44733C80.33448,357.8028 80.5,356.86401 80.5,355.85184C80.5,355.06934 80.04208,354.31949 79.66666,353.5C79.32645,352.75732 79.5,351.86401 79.5,350.85184C79.5,350.06934 79.40373,348.95795 80.02084,348.5C80.70587,347.99167 81.34227,347.3894 81.584,346.61465C81.82578,345.83972 82.32626,344.94968 83.14817,344.60983C83.89285,344.30191 84.32173,343.6362 84.55717,342.7955C84.77193,342.02863 85.26148,341.14886 85.52533,340.36133C85.80644,339.52225 86.49992,339.14282 86.5,338.29999C86.50008,337.39984 86.56133,336.60562 86.92533,335.67465C87.19819,334.97678 87.14549,333.9407 87.52133,333.11066C87.83443,332.41916 89.17596,332.57706 89.47867,331.85333C89.8652,330.9292 89.5,330.06934 89.5,329.05716C89.5,328.31467 89.5,327.25266 89.5,326.33334C89.5,325.52084 89.5,324.60983 89.5,323.7955C89.5,322.89999 89.5,321.97916 89.5,321.01733C89.5,320.20984 89.34884,319.18311 89.85267,318.55267C90.34127,317.94128 90.47781,317.19525 90.50017,316.17883C90.51816,315.36075 91.08701,314.75113 91.50134,314.21466C92.08651,313.45697 92.34637,312.73187 92.48933,311.86401C92.65386,310.86523 92.2627,310.03604 92.509,309.14282C92.73766,308.31363 93.88551,308.09052 94.32933,307.29868C94.80862,306.44354 94.45312,305.51962 94.5,304.60983C94.54272,303.7807 95.31781,303.26794 95.50017,302.40018C95.66671,301.60767 96.26595,301.02417 96.52533,300.35068C96.86243,299.47534 97.98618,299.71762 98.79467,299.44284C99.55008,299.1861 99.26986,298.03137 99.5045,297.2045C99.7251,296.42715 100.33886,295.77908 100.49866,295.06799C100.71587,294.1015 101.29453,293.3696 101.584,292.70001C101.96865,291.81024 102.45211,291.0202 102.4955,290.20984C102.54864,289.21741 103.068,288.58401 103.79467,288.44733L104.47867,287.88934" id="svg_21" stroke-width="3" stroke="#000" fill="none"/>
  <path t="145942,146102,146124,146144,146158,146158,146164,146174,146174,146178,146203,146204,146207,146224,146249,146274,146289,146309,146309,146319,146339,146365,146365,146449,146449,146481,146496,146496,146506,146535,146536,146541,146558,146597,146628,146628,146638,146642,146652,146681,146697,146724,146773,146774,146788,146824,146840,146869,146890,146890,146924,146939,146940,146956,146970,146985,146986,146986,146999,147005,147041,147071,147085,147131,147132,147148,147152,147221,147231,147231,147258,147264,147278,147324,147333,147337,147338,147353,147393,147393,147423,147433,147433,147453,147495,147510,147525,147565,147579,147580,147605,147619,147641,147655,147656,147671,147672,147685,147695,147696,147701,147721,147728,147737,147738,147751,147757,147771,147781,147827,147875,147938,147954,147954,147999,148006,148006,148020,148020,148029,148029,148069,148090,148337,148338,148352,148352,148377,148401,148417,148469,148469,148663,148695,148725,148726,148739,148755,148765,148781,148782,148785,148795,148815,148835,148842,148842,148871,148885,148897,148898,148901,148919,148919,148955,148989,149041,149075,149135,149145,149145,149158,149167,149181,149182,149192,149223,149224,149237,149238,149257,149274,149287,149307,149353,149354,149399,149439,149445,149459,149489,149505,149506,149529,149621,149631,149646,149656,149656,149662,149672,149678,149686,149692,149692,149721,149737,149802,149802,149824,149824,149887,149903,149919,149920,149924,149933,149939,149949,149953,149953,149973,149974,149995,149996,150009,150009,150010,150019,150039,150049,150065,150069,150069,150079,150105,150109,150126,150151,150152,150211,150247,150248,150264,150264,150304,150369,150379,150404,150420,150420,150449,150507,151266" d="M164.5,279.5C164.5,282.08932 164.5,283 164.5,283.88934C164.5,284.83334 164.5,285.52084 164.5,286.61465C164.5,287.5 164.5,288.29999 164.5,289.21466C164.5,290.06934 164.5,290.85184 164.5,291.86401C164.5,292.79999 164.5,293.69867 164.5,294.56134C164.5,295.36133 164.5,296.33334 164.5,297.1955C164.5,298.10001 164.5,298.97916 164.5,299.94284C164.5,300.68533 164.5,301.61334 164.5,302.58401C164.5,303.5 164.74146,304.21967 165.30133,304.66934C166.00931,305.23798 166.11191,306.43338 166.52533,307.05334C167.00858,307.77798 166.864,308.5206 167.5,309.33334C167.94795,309.90579 169.16388,309.56528 169.45833,310.52084C169.74055,311.43674 169.48534,312.3335 169.5,313.11066C169.51801,314.06451 170.35541,314.45782 170.5,315.20984C170.62123,315.8403 170.36169,316.87497 170.5045,317.79999C170.64809,318.7301 171.36969,319.327 171.5045,320.20532C171.61543,320.92801 172.35638,321.55051 172.5,322.5C172.61964,323.29099 172.63409,324.10428 173.35066,324.496C174.19223,324.95605 174.45634,325.7847 174.491,326.49918C174.54091,327.52817 174.08072,328.73792 174.72133,329.37851C175.28136,329.93854 175.5,330.36133 175.5,331.33334C175.5,332.1955 175.73709,332.95206 176.216,333.58401C176.76752,334.31177 176.48645,335.20996 176.5,336.01733C176.51801,337.08978 177.05811,337.83011 177.37849,338.59982C177.7283,339.44022 178.60333,339.18665 179.257,339.94284C179.76373,340.52905 179.5,341.61465 179.5,342.5C179.5,343.29999 179.5,344.33334 179.5,345.20984C179.5,346.01733 179.5,346.97916 179.5,347.79999C179.5,348.69867 179.42964,349.61417 179.52083,350.52084C179.60342,351.34219 179.97209,352.14944 180.47467,352.88934C180.93501,353.56705 181.74554,353.97852 182.66667,354.33334C183.44479,354.63309 184.24304,354.9472 184.47867,355.64932C184.76701,356.50854 185.20255,356.99866 185.55267,357.79468C185.91074,358.60873 186.49367,359.31094 187.26167,359.49551C188.12372,359.7027 189.16312,359.56476 189.45833,360.52084C189.74107,361.43658 189.62744,362.10599 190.216,362.58533C190.89314,363.13681 191.1705,364.04913 191.86166,364.44284C192.69687,364.91858 193.78438,364.07657 194.536,364.57199C195.27103,365.05649 195.32101,366.06702 196.15717,366.39017C197.05597,366.73755 197.89598,366.78732 198.78566,367.14734C199.66534,367.5033 200.60001,367.5 201.5,367.5C202.25717,367.5 203.14816,367.5 203.93066,367.5C204.936,367.5 205.89999,367.5 206.8045,367.5C207.66667,367.5 208.72934,368.13141 209.42799,367.48932C209.98346,366.97882 209.5,365.84732 209.5,364.98401C209.5,364.02084 209.5,363.10001 209.5,362.1955C209.5,361.33334 209.5,360.52084 209.5,359.52084C209.5,358.69867 209.5,357.79999 209.5,356.86401C209.5,356.01733 209.50145,355.20984 209.5,354.21466C209.49866,353.30133 208.99997,352.80051 208.20534,352.44733C207.45204,352.11252 207.71631,350.97168 207.44284,350.20984C207.14203,349.37183 206.31465,349.01102 205.66667,348.33334C205.06314,347.70218 204.75786,347.08179 204.05716,346.62149C203.42972,346.20932 202.36301,346.70816 201.40016,346.49966C200.61287,346.32916 200.80321,345.05734 200.07466,344.57199C199.31664,344.06699 198.25439,344.62766 197.38533,344.21466C196.73839,343.90723 196.05737,343.1344 195.62134,342.40018C195.15663,341.61768 194.38904,341.38681 193.79466,340.79468C193.20421,340.20645 192.55759,339.39676 191.88933,338.92532C191.17403,338.42068 190.60597,337.97205 190.48933,337.08932C190.36691,336.16284 189.73949,335.42917 189.52083,334.54166C189.31911,333.7229 189.66772,332.77393 189.45833,331.97916C189.23027,331.11353 188.36568,330.62939 187.83333,329.83334C187.36723,329.13638 187.5,328.20001 187.5,327.29868C187.5,326.33334 187.5,325.52084 187.5,324.56134C187.5,323.7955 187.5,322.89999 187.5,321.97916C187.5,321.01733 187.5,320.20984 187.5,319.21466C187.5,318.39999 187.5,317.5 187.5,316.61465C187.5,315.68533 187.85574,314.7453 187.464,313.92532C187.11375,313.1922 186.5208,312.62854 186.50133,311.89734C186.47478,310.90033 186.51607,310.08044 186.21466,309.09866C185.95177,308.24228 185.49089,307.33676 185.2045,306.55634C184.92714,305.80054 184.56093,304.87119 184.5,304.064C184.42744,303.10275 184.5,302.1955 184.5,301.33334C184.5,300.52084 184.5,299.56134 184.5,298.69867C184.5,297.79999 184.5,296.97916 184.5,296.01733C184.5,295.20984 184.66907,294.09503 184.05733,293.39999C183.60408,292.88504 182.62999,292.42587 182.50267,291.61465C182.35855,290.69647 182.03972,289.96594 181.62151,289.2785C181.16055,288.52084 181.5,287.5 181.5,286.74283L181.48933,285.68533L181.33333,284.83334L180.62151,284.2785" id="svg_22" stroke-width="3" stroke="#000" fill="none"/>
  <path t="155664,155859,155887,155887,155901,155901,155909,155917,155947,155963,155963,155987,155987,156007,156049,156059,156073,156073,156089,156089,156119,156135,156135,156139,156175,156189,156189,156209,156209,156219,156239,156261,156281,156305,156325,156325,156335,156357,156381,156407,156421,156421,156427,156442,156491,156507,156513,156513,156527,156544,156544,156607,156629,156643,156659,156689,156689,156709,156709,156714,156729,156739,156745,156755,156755,156769,156775,156789,156799,156805,156815,156839,156839,156845,156855,156891,156891,156921,156947,156961,156987,156992,156992,157001,157021,157031,157057,157062,157077,157078,157093,157109,157147,157147,157163,157179,157189,157193,157209,157209,157219,157223,157233,157239,157249,157263,157263,157279,157309,157335,157335,157349,157365,157370,157385,157395,157405,157405,157441,157481,157525,157525,157535,157567,157567,157618,157641,157641,157651,157667,157673,157683,157687,157703,157703,157727,157757,157818,157818,157843,157859,157869,157875,157875,157889,157903,157903,157915,157915,157919,157935,157959,157969,157969,157989,158015,158031,158051,158051,158071,158101,158101,158117,158117,158131,158137,158137,158147,158177,158188,158201,158221,158246,158247,158253,158263,158277,158283,158302,158308,158319,158319,158338,158352,158363,158393,158393,158442,158442,158463,158503,158517,158543,158543,158547,158547,158573,158593,158603,158603,158633,158633" d="M276.5,206.5C274.66666,206.5 273.77979,206.45271 273.091,206.55716C272.08713,206.70938 271.32059,207.03447 270.38666,207.416C269.57037,207.74948 269.32849,208.49774 268.4375,208.5C267.73999,208.50175 266.61002,208.31805 265.80899,208.55716C264.94272,208.81573 264.29266,209.28961 263.5,209.54167C262.5618,209.84001 262.53238,210.97891 261.79016,211.39017C261.06406,211.7925 259.95953,211.85873 259.62149,212.82117C259.34811,213.59953 259.37479,214.39073 258.63867,214.52133C257.63351,214.69966 257.04819,215.31862 256.66666,216.33333C256.40442,217.03081 255.95689,217.72533 255.27867,218.37866C254.70026,218.93585 254.62477,219.68608 254.45833,220.52083C254.28952,221.36743 253.39371,221.86621 252.83333,222.5C252.18961,223.22804 251.85831,223.85675 251.33333,224.5C250.80322,225.14952 250.54272,225.69217 250,226.47917C249.56244,227.11368 249.82936,228.0945 249.47867,228.88933C249.17223,229.58386 248.05275,229.09393 247.14667,229.52133C246.32733,229.90782 246.27562,230.82037 245.784,231.58267C245.36545,232.23166 245.44781,233.20284 245,233.97917C244.50546,234.8365 244.5,235.52083 244.5,236.4785C244.5,237.29866 244.95291,238.3811 244.38567,239.14284C243.90587,239.78714 242.61967,239.49196 242.4955,240.20984C242.35716,241.00949 241.83774,241.90764 241.58533,242.7C241.31097,243.56125 240.93883,244.05028 240.50133,244.67067C240.01138,245.36545 240.5,246.4785 240.5,247.29866C240.5,248.2 240.5,249.14284 240.5,250.06934C240.5,250.85184 240.5,251.74283 240.5,252.7C240.5,253.59984 240.48273,254.48225 240.14734,255.20984C239.77666,256.01401 239.51042,256.97897 239.5,257.79999C239.4886,258.69861 239.5,259.60983 239.5,260.52084C239.5,261.47849 239.5,262.1955 239.5,263.10001C239.5,264.064 239.5,264.94284 239.5,265.68533C239.5,266.74283 239.5,267.60001 239.5,268.5C239.5,269.41733 239.5,270.20984 239.5,271.01733C239.5,271.97916 239.5,272.89999 239.5,273.7955C239.5,274.66934 239.5,275.52084 239.5,276.47849C239.5,277.29868 239.5,278.20001 239.5,279.14282C239.5,280.06934 239.5,280.85184 239.5,281.85333C239.5,282.66934 239.5,283.5 239.5,284.5C239.5,285.36133 239.5,286.33334 239.5,287.08932C239.5,288 239.5,288.91068 239.5,289.82132C239.5,290.67465 239.5,291.61465 239.5,292.5C239.5,293.29999 239.5,294.33334 239.5,295.20984C239.5,296.01733 239.5,296.97916 239.5,297.79999C239.5,298.69867 239.5,299.60983 239.5,300.52084C239.5,301.47849 239.5,302.1955 239.5,303.10001C239.5,304.064 239.5,304.94284 239.5,305.68533C239.5,306.74283 239.18094,307.79782 239.78534,308.41599C240.39345,309.03796 241.38843,308.94318 242.07466,309.57199C242.73068,310.17313 242.56863,311.10934 243.35066,311.86401C243.87299,312.36807 244.70068,312.87921 245.216,313.58401C245.73587,314.29504 245.76913,315.267 246.2045,315.79468C246.8624,316.59204 247.23434,317.16382 247.54167,318C247.84343,318.82104 248.82764,319.07104 249.66667,319.5C250.41324,319.88165 250.35732,320.74976 250.78534,321.61465C251.16537,322.38257 251.8459,323.03616 252.82117,323.37866C253.45247,323.60037 254.12094,324.12936 254.78534,324.5C255.58296,324.94495 256.63501,324.34146 257.38666,324.67065C258.24133,325.04498 258.85172,325.55972 259.32935,326.61334C259.66776,327.3598 260.41193,327.13626 261.14282,327.55716C261.95432,328.02444 262.24332,329.00388 262.94266,329.37851C263.70074,329.78461 264.784,329.5 265.66666,329.5C266.5,329.5 267.28278,329.84918 267.52084,330.52084C267.87036,331.50702 268.43292,332.10999 269.39017,332.44284C270.1817,332.71808 270.70203,333.25583 271.5,333.66666C272.17181,334.01254 272.97974,334.45334 273.79016,334.49551C274.85574,334.55096 275.70001,334.50266 276.5,334.83334L277.02084,335.5L277.66666,336.16666L278.47916,336.45834" id="svg_23" stroke-width="3" stroke="#000" fill="none"/>
  <path t="159506,159690,159690,159703,159723,159723,159737,159749,159749,159763,159773,159773,159779,159789,159793,159803,159819,159823,159823,159833,159840,159866,159866,159866,159876,159881,159890,159896,159906,159906,159911,159920,159920,159926,159936,159943,159943,159956,159956,159966,159966,159966,159972,159984,159984,159988,159988,159998,159998,160004,160014,160014,160018,160018,160028,160034,160058,160058,160058,160064,160074,160081,160100,160100,160103,160114,160120,160134,160134,160150,160161,160161,160174,160200,160200,160200,160216,160220,160220,160236,160236,160247,160261,160266,160282,160282,160293,160293,160296,160306,160321,160321,160336,160336,160346,160346,160362,160366,160366,160382,160463,160492,160508,160628,160676,160676,160700,160700,160712,160712" d="M247.5,319.5C247.5,322.28934 247.5,323.01468 247.5,324.05334C247.5,324.94284 247.5,325.68533 247.5,326.74734C247.5,327.66666 247.5,328.47916 247.5,329.39465C247.5,330.20984 247.5,331.01733 247.5,331.97916C247.5,332.89999 247.5,333.7955 247.5,334.66934C247.5,335.52084 247.5,336.47849 247.5,337.29868C247.5,338.20001 247.5,339.14282 247.5,340C247.5,340.78665 247.5,341.73334 247.5,342.68567C247.5,343.59982 247.5,344.48532 247.5,345.36133C247.5,346.33334 247.23279,347.1423 247.54167,348C247.83806,348.823 249.10329,348.88467 249.49733,349.66934C249.88881,350.44888 249.5,351.5 249.5,352.28934C249.5,353.33334 249.5,354.02084 249.5,355.04266C249.5,355.75067 249.5,356.73199 249.5,357.68567C249.5,358.60016 249.5,359.38535 249.5,360.336C249.5,361.10132 249.49614,362.09549 249.5,362.84283C249.50534,363.87469 249.7283,364.81848 250,365.5C250.38852,366.47455 250.49933,367.29868 250.5,368.20001C250.50064,369.064 250.5,370 250.5,370.78665C250.5,371.49918 250.5,372.68567 250.5,373.59982C250.5,374.45184 250.5,375.20984 250.5,376.01733C250.5,377.08932 250.5,378 250.5,378.88934C250.5,379.83334 250.5,380.52084 250.5,381.47849C250.5,382.5 250.41023,383.30478 250.5,384.14282C250.6113,385.18192 250.94255,385.78152 251.14734,386.49918C251.43938,387.52258 251.5,388.5 251.5,389.25717C251.5,390.32535 251.5,391.01599 251.5,391.97916C251.5,392.89999 251.5,393.8045 251.5,394.82132C251.5,395.5 251.5,396.47849 251.5,397.29868C251.5,398.20001 251.46767,399.14343 251.50133,400.06934C251.52982,400.8533 251.80093,401.80725 252.38667,402.29868C253.08511,402.88464 254.16246,403.17792 254.45833,404.02084C254.77762,404.93051 254.5,405.67465 254.5,406.74283C254.5,407.70001 254.11115,408.84659 254.72133,409.37851C255.37802,409.95099 256.32437,409.83542 256.52533,410.68533C256.71332,411.48035 257.26166,412.13834 258.14816,412.44733L258.93066,412.58401" id="svg_24" stroke-width="3" stroke="#000" fill="none"/>
  <path t="162544,162577,162593,162733,162733,162743,162756,162766,162766,162786,162796,162846,162846,162872,162896,162896,162902,162932,162972,162998,163014,163034,163034,163104,163114,163150,163150,163166,163192,163236,163256,163256,163282,163282,163296,163312,163329,163338,163431,163468,163468,163539,163657,163657,163700,163716,163741,163756,163785,163786,163816,163822,163876,163876,163922,163922,163972,163978,164008,164038,164038,164054,164094,164104,164110,164120,164164,164194,164262,164272,164296,164310,164310,164336,164392,164402,164428,164428,164442,164488,164488,164522,164542,164558,164558,164568,164568,164604,164614,164614,164618,164638,164654,164659,164674,164674,164688,164688,164698,164698,164719,164729,164729,164759,164922,164922,164934,164975,164986,164986,165006,165006,165022,165072,165072,165102,165102,165102,165239,165284,165324,165334,165356,165366,165380,165386,165396,165411,165420,165420,165439,165456,165456,165470,165470,165470,165512,165516,165516,165542,165552,165552,165566,165612,165652,165682,165682,165682,165688,165702,165713,165713,165718,165718,165738,165745,165754,165758,165758,165768,165774,165784,165797,165797,165797,165803,165803,165817,165829,165844,165844,165853,165859,165869,165870,165873,165883,165883,165889,165899,165903,165903,165913,165919,165919,165935,165935,165944,165949,165969,165976,165985,165999,165999,166036,166052,166052,166060,166076,166076,166101,166115,166121,166131,166132,166147,166151,166162,166166,166176,166176,166201,166208,166217,166218,166231,166237,166252,166252,166252,166263,166282,166283,166293,166293,166294,166298,166298,166298,166308,166333,166333,166333,166338,166347,166347,166353,166353,166364,166367,166378,166379,166399,166399,166400,166423,166433,166433,166463,166480,166494,166503,166523,166533,166549,166549,166555,166569,166580,166581,166585,166597,166600,166600,166612,166626,166636,166642,166642,166656,166666,166671,166671,166682,166685,166697,166701,166702,166716,166751,166751,166767,166797,166811,166811,166827,166827,166896,166896" d="M260.5,207.5C259.47916,207.5 258.63867,207.5 257.66666,207.5C256.91068,207.5 255.82368,207.53445 255.47467,206.85333C255.07561,206.07452 254.67961,205.26089 254.5,204.33333C254.33157,203.46349 254.83113,202.32205 254.32933,201.78534C253.72127,201.13496 252.51964,201.55516 251.70134,201.5C250.85138,201.4427 250.97794,200.35837 250.216,199.67067C249.59,199.10565 248.63867,199.5 247.66667,199.5C246.8045,199.5 245.89999,199.5 244.97917,199.5C244.01601,199.5 243.32533,199.5 242.25717,199.5C241.39999,199.5 240.26669,199.16585 239.66667,199.83333C239.20369,200.34836 238.88464,201.21068 238.20534,201.54817C237.40652,201.94504 236.7955,202.55267 236,203C235.2045,203.44733 234.76622,204.17262 234.16667,204.5C233.41888,204.90831 232.38533,204.5 231.5,204.5C230.7,204.5 229.58391,204.51457 229.5,203.7955C229.39621,202.90602 229.5,202.02083 229.5,201.05733C229.5,200.35066 229.5,199.33333 229.5,198.39999C229.5,197.5 229.5,196.74283 229.5,195.85184C229.5,195.06934 229.5,194.064 229.5,193.10001C229.5,192.1955 229.5,191.33333 229.5,190.52083C229.5,189.56134 229.48177,188.66647 229.5,187.7955C229.51801,186.93544 230.28876,186.43571 230.464,185.64934C230.69026,184.63411 230.55905,183.79655 231,183C231.44476,182.19655 231.38918,181.32286 231.52083,180.52083C231.66519,179.64136 232.17955,178.99962 232.509,178.2045C232.82869,177.43295 234.0923,177.67273 234.47867,176.85333C234.83533,176.09694 234.50169,175.20984 234.5,174.14284C234.49866,173.3 234.13805,172.5347 233.5,171.97917C232.79994,171.36967 232.82098,170.34102 232.21466,169.66933C231.60931,168.99872 231.01961,168.56064 230.44733,167.85716C229.9446,167.23918 229.61749,166.53754 229.491,165.79466C229.32069,164.79449 228.4203,164.68831 227.5215,164.27834C226.84445,163.96951 226.3526,162.98221 225.89999,162.36133C225.36038,161.62111 224.56538,161.06317 224.5045,160.20534C224.4389,159.28099 223.1792,159.32697 223.23866,158.50133C223.28867,157.80713 224.85905,158.55556 225.80901,158.4955C226.47426,158.45345 227.50262,158.15297 228.21333,157.92534C229.24933,157.59352 230.07201,157.5 230.75734,157.5C231.92101,157.5 232.70399,157.5 233.433,157.5C234.54367,157.5 235.49094,157.9783 236.21466,157.41467C236.88542,156.89229 236.5,155.68533 236.5,154.74283C236.5,153.88933 236.60034,153.09116 237.07466,152.47467C237.59184,151.80249 237.5,150.85184 237.5,150.06934C237.5,149.05333 237.39473,148.16359 237.57201,147.28934C237.73724,146.47446 238.36197,145.731 238.79466,145.21434C239.51927,144.34911 239.5,143.5 239.5,142.7C239.5,141.74283 239.23062,140.80402 239.5,140.06934C239.76628,139.34312 240.49466,138.88937 240.5,137.95833C240.50574,136.95752 240.5,136.25999 240.5,135.35333C240.5,134.39917 240.5,133.63867 240.5,132.66667C240.5,131.74733 240.5,130.85184 240.5,130.06934C240.5,129.064 240.5,128.2 240.5,127.29867C240.5,126.33334 240.53191,125.52028 240.5,124.60983C240.47141,123.794 239.8958,122.99452 239.66667,122.16666C239.41951,121.27364 239.50226,120.50534 239.5,119.47066C239.49834,118.70267 239.5,117.8 239.5,116.864C239.5,116.016 239.5,115.15266 239.5,114.136C239.5,113.3 239.5,112.39983 239.5,111.61467C239.5,110.67467 239.5,109.66666 239.5,108.91067C239.5,108 239.5,107.08933 239.5,106.17883C239.5,105.36134 239.37608,104.40389 238.79466,103.79017C238.19531,103.15752 237.58829,102.39748 237.50267,101.616C237.40132,100.69086 237.5,99.74284 237.5,98.88934C237.5,98 237.5,97.08933 237.5,96.17883C237.5,95.36134 237.5,94.33334 237.5,93.5C237.5,92.7 237.5,91.74284 237.5,90.85184C237.5,90.06934 237.5,89.064 237.5,88.2C237.5,87.29867 237.5,86.33334 237.5,85.52084C237.5,84.60983 237.5,83.7955 237.5,82.9C237.5,81.97916 237.5,81.01733 237.5,80.20983C237.5,79.2785 237.5,78.4 237.5,77.5C237.5,76.74284 237.239,75.81783 237.5,74.83334C237.72899,73.96964 238.55829,73.5244 238.93201,72.98267C239.565,72.06509 239.45157,71.01057 239.536,70.28934C239.65306,69.28943 240.02705,68.48176 240.30133,67.81467C240.70929,66.82243 240.90166,65.98972 241.3,65.35467C241.85448,64.47073 242.84386,64.17678 243.35066,63.63867C243.80426,63.15704 244.33603,62.23462 244.66667,61.33333C244.97192,60.50122 245.52029,59.87024 246.3,59.41733C246.9989,59.01136 247.35017,57.90187 248.06799,57.58533C248.86229,57.23508 249.64769,56.99315 249.936,56.224C250.18805,55.5516 250.78639,54.58623 251.60017,54.5C252.38097,54.41727 253.31516,54.53022 254.25717,54.5C255.14871,54.4714 255.70497,53.9367 256.37866,53.27867C256.99979,52.67199 257.66699,52.52293 258.47916,52.5C259.49222,52.47141 259.8331,51.77319 260.5,51.16667C261.10739,50.61428 261.41733,49.67532 262.14667,49.464C262.98422,49.22133 264.09021,49.10966 264.49734,48.33067C264.88226,47.59419 264.95157,46.71432 265.60001,46.05733C266.08191,45.56908 266.7702,44.76663 267.41733,44.216C268.02164,43.70181 268.79987,43.45441 269.51468,42.92533C270.15204,42.4536 270.48065,41.71022 270.85718,40.85183C271.15039,40.18339 272.00784,39.63601 272.83334,39.33333C273.53314,39.07675 274.63559,38.92888 275.33334,38.33333C276.01602,37.75066 276.11066,36.864 276.60016,36.17883L277.13599,35.36133L277.82117,34.743L278.63867,34.52133" id="svg_25" stroke-width="3" stroke="#000" fill="none"/>
  <path t="172799,173104,173136,173266,173397,173428,173442,173529,173539,173574,173599,173666,173735,173776,173790,173790" d="M227.5,241.5C228.35066,241.5 229.25717,241.5 230.11067,241.5C231,241.5 231.87018,241.53644 232.52083,242C233.18681,242.47447 234.28726,242.62395 234.5,243.416C234.70869,244.19301 235.44733,244.5 236.30133,244.5L237.136,244.5L238.14816,244.509L238.93066,244.67067" id="svg_27" stroke-width="3" stroke="#000" fill="none"/>
  <path t="175403,175689,175742,175768,175768,175809,175819,175819,175819,175924,175964,176272,176308,176322,176354,176364,176364" d="M239.5,216.5C239.66667,217.33333 240.29056,217.84415 240.72133,218.59984C241.11212,219.2854 242.09665,219.44926 242.82117,219.94284C243.54498,220.43593 244.15753,220.92227 244.45833,221.95833C244.72835,222.88835 245.10248,223.13152 245.97917,223.52083C246.69006,223.83652 247.14667,224.48933 248.14816,224.5L248.93066,224.5" id="svg_28" stroke-width="3" stroke="#000" fill="none"/>
  <path t="177388,177571,177604,177604,177630,177659,177659,177839,177876,177892,177892,177896,177896,177906,177935,177936,177952,178022,178022,178022,178052,178058,178083,178093,178093,178107,178153,178154,178221,178221,178309,178440,178440,178463,178463,178478,178504,178504,178520,178520,178549,178833,178833,178902,178912" d="M252.5,202.5C252.5,204.33333 252.61247,205.23029 252.41467,206.01733C252.1913,206.90611 251.39999,207.60001 250.89999,208.10001C250.2045,208.7955 249.52859,209.45497 249.5,210.35333C249.47876,211.02049 249.5,212.16667 249.5,212.95833C249.5,213.88933 249.5,214.83333 249.5,215.52083C249.5,216.4785 249.82309,217.67055 249.32933,218.21466C248.73994,218.86415 247.80684,219.11179 247.07466,219.464C246.30009,219.83661 245.76653,220.1277 245.44733,220.79466C245.05203,221.62065 244.07285,221.75638 243.31467,222.07466C242.40222,222.4577 241.2261,222.04677 240.62151,222.7215C240.02977,223.38187 240.5,224.45183 240.5,225.36133C240.5,226.01733 240.5,227.12534 240.5,227.98534C240.5,228.71066 240.5,229.69983 240.5,230.664C240.5,231.61467 240.5,232.5 240.5,233.3L240.5,234.21466L241.11067,234.5" id="svg_29" stroke-width="3" stroke="#000" fill="none"/>
  <path t="195344,195470,195480,195588,195598,195621,195705,195737,195737,195822,195843,195843,195869,195889,195889,195981,196009,196015,196015,196039,196055,196055,196100,196114,196114,196124,196124,196171,196191,196227,196232,196232,196312,196337,196385,196385,196439,196463,196463,196518,196565,196651,196651,196760,196770,196845,196903,196913,196945,196945,197031,197051,197073,197073,197237,197262,197262,197291,197307,197321,197321,197357,197377,197377,197406,197508,197508,197518,197547,197547,197589,197609,197668,197668,197765,197765,197920,197930,197942,197942,197957" d="M7.5,151.5C8.5,149.54167 9.40544,149.43324 10.02083,149C10.83014,148.43024 11.412,147.86761 12.14667,147.47467C12.91832,147.06194 13.57548,146.71683 14.66667,146.5C15.48402,146.33759 16.3,146.5 17.25717,146.5C18.14817,146.5 18.93067,146.49738 19.936,146.5C20.80001,146.50226 21.80273,146.69899 22.21467,147.30133C22.76885,148.11166 23.24343,148.73549 23.932,149.21466C24.62605,149.69765 24.87209,150.55661 25.14733,151.49916C25.39634,152.35187 25.86749,152.92792 26.3785,153.72133C26.83808,154.43489 26.5,155.36133 26.5,156.33333C26.5,157.1955 26.5,158.10001 26.5,158.97917C26.5,159.94284 26.60129,160.69101 26.49867,161.61467C26.3872,162.61797 25.64705,162.90933 24.936,163.52533C24.3192,164.05968 23.79017,164.5 22.98267,164.5C22.02083,164.5 21.2,164.5 20.30133,164.5C19.39017,164.5 18.47917,164.5 17.5215,164.5C16.8045,164.5 15.9,164.5 14.936,164.5C14.05717,164.5 13.30629,164.6284 12.25717,164.4955C11.38001,164.38438 10.65673,164.0907 9.85717,163.44733C9.23244,162.94464 8.82208,162.13625 7.98267,161.78534C7.17193,161.44643 6.7792,160.71205 6.416,160.06799C5.99949,159.32939 5.5,158.79016 5.5,157.98267C5.5,157 5.5,156.17883 5.5,155.36133C5.5,154.332 5.5,153.47917 5.5,152.52133C5.5,151.74733 5.19062,150.7498 5.58533,150.06934C6.07529,149.22467 7.14667,149.5 8.14817,149.5L8.93067,149.5L9.936,149.5" id="svg_32" stroke-width="3" stroke="#000" fill="none"/>
  <path t="212155,212508,212605,212605,212629,213126,213126,213126,213149,213150,213218,213259,213276,213276,213361,213405,213411,213425,213450,213464,213464,213559,213559,213607,213653,213663,213663,213693,213713,213739,213818,213828,213839,213859,213971,214045,214065,214085,214085,214099,214155,214155,214348,214387,214387,214441,214451,214548,214572,214572,214579,214635,214645,214659,214679,214705,214705,214719,214785,214807,214891,214891,214971,215044,215153,215163,215185,215309,215309,215332,215356,215356,215372,215395,215396,215441,215472,215536,215536,215558,215564,215646,215646,215656,215673,215679,215679,215689,215703,215750,215766,215806,215806,216039,216039,216182,216182,216409" d="M0.5,161.5C2.25717,161.5 3.21755,161.25322 3.93067,161.58533C4.75298,161.96829 5.50019,162.48279 6.3,162.5C7.13658,162.51801 7.97199,162.80873 8.79017,163.14734C9.71034,163.52817 10.6,163.5 11.5,163.5C12.25717,163.5 13.14817,163.5 14.16667,163.5C15.02083,163.5 15.9,163.5 16.8045,163.5C17.66667,163.5 18.47917,163.5 19.47917,163.5C20.30133,163.5 21.2,163.5 22.136,163.5C22.98267,163.5 23.83747,163.80902 24.85267,163.4955C25.57022,163.2739 26.09638,162.85445 26.97917,162.47917C27.71865,162.16483 28.35013,161.51801 29.25717,161.5C30.1105,161.48306 31,161.5 31.91067,161.5C32.82117,161.5 33.63867,161.5 34.58267,161.5C35.5,161.5 36.33637,161.68231 37.136,161.42799C38.07109,161.1306 38.32605,160.30099 39.25717,159.743C39.94457,159.33104 40.93813,159.57684 41.8045,159.14734C42.41833,158.84303 43.31487,158.54143 44.33067,158.5C45.11085,158.46819 45.80954,157.87906 46.70133,157.58533C47.62179,157.28215 48.63616,158.0054 49.38567,157.4955C50.01938,157.06438 50.52066,156.51042 51.47867,156.5C52.25262,156.49159 53.14817,156.5 54.16667,156.5C55.02083,156.5 55.9,156.5 56.8045,156.5C57.66667,156.5 58.47917,156.5 59.44933,156.5C60.36133,156.5 61.01733,156.5 62.12533,156.5C62.98267,156.5 63.79016,156.5 64.78533,156.5C65.7,156.5 66.60017,156.5 67.38533,156.5C68.31467,156.5 69.32459,156.55563 69.78533,155.93201C70.28382,155.25728 70.89786,154.53603 71.8045,154.5C72.66599,154.46576 73.47916,154.5 74.47916,154.5C75.30133,154.5 76.2,154.5 77.02084,154.5C77.98267,154.5 78.79017,154.5 79.83334,154.5C80.52084,154.5 81.616,154.5 82.384,154.5L83.31467,154.5" id="svg_33" stroke-width="3" stroke="#000" fill="none"/>
  <path t="220799,222019,222019,222029,222046,222046,222095,222239,222264,222281,222295,222295,222314,222338,222338,222392,222414,222414,222443,222453,222469,222470,222486,222486,222632,222652,222652,222681,222681,222688,222696,222779,222814,222889,222889,222920,222985,223232,223329,223412,223412,223759" d="M199.5,154.5C200.5,154.5 201.3,154.5 202.25717,154.5C203.14816,154.5 203.92809,154.49693 204.52083,154C205.10814,153.50761 206,153.5 206.91066,153.5C207.82117,153.5 208.63867,153.5 209.58267,153.5C210.5,153.5 211.3,153.5 212.136,153.5C213.14816,153.5 213.94633,153.66646 214.936,153.48933C215.73473,153.34639 216.48755,152.58994 217.25717,152.5045C218.14278,152.4062 218.74347,152.16557 219.66667,151.66667C220.41432,151.26265 221.31433,151.5 222.26666,151.5C222.97917,151.5 224,151.5 224.936,151.5C225.8,151.5 226.70134,151.5 227.66667,151.5C228.47917,151.5 229.39017,151.5 230.2045,151.5C231.10001,151.5 232.02083,151.5 232.98267,151.5L233.63867,151.5L234.7215,151.5" id="svg_34" stroke-width="3" stroke="#000" fill="none"/>
  <path t="231264,231505,231505,231515,231528,231528,231533,231544,231548,231619,231644,231686,231686,231776,231815,231831,231835,231861,231865,231865,231921,231975,231985,231985,232022,232048,232077,232084,232094,232108,232108,232133,232150,232154,232169,232184,232184,232184,232213,232230,232230,232243,232244,232254,232286,232295,232299,232300,232368,232396,232412,232426,232432,232455,232456,232462,232482,232502,232502,232512,232512,232528,232542,232548,232571,232571,232578,232587,232598,232603,232612,232617,232643,232644,232664,232687,232694,232694,232714,232719,232730,232730,232763,232803,232814,232909,232919,232945,232965" d="M109.5,224.5C110.5,224.5 111.33637,224.31769 112.136,224.57201C113.0711,224.8694 113.83755,225.49437 114.32933,226.33067C114.72073,226.99628 115.20449,227.49774 116.1,227.5C117.02084,227.50232 118.03172,227.27444 118.79017,227.55716C119.59723,227.85799 119.93334,228.59273 120.52533,229.07466C121.14495,229.57909 122.136,229.5 122.98267,229.5C123.79017,229.5 124.85267,229.5 125.7215,229.5C126.60017,229.5 127.38533,229.5 128.31467,229.5C129.25717,229.5 130.21703,229.12314 130.97917,229.54167C131.69106,229.93262 131.6129,231.32698 132.38667,231.49733C133.29297,231.69685 134.25717,231.5 135.02083,231.5C135.92133,231.5 136.83333,231.5 137.75067,231.5C138.49466,231.5 139.52933,231.5 140.5,231.5C141.172,231.5 142.26666,231.5 142.97917,231.5C144,231.5 144.85716,231.5 145.8,231.5C146.70134,231.5 147.38533,231.5 148.31467,231.5C149.33067,231.5 150.2045,231.5 151.10001,231.5C151.91066,231.5 152.82443,231.57301 153.63867,231.5C154.59415,231.41432 154.74153,230.47263 155.5,229.83333C156.0665,229.35583 157.26666,229.5 157.97917,229.5C159,229.5 159.85716,229.5 160.8,229.5C161.70134,229.5 162.39148,229.59662 163.31467,229.48933C164.27397,229.37785 164.82605,228.63658 165.47467,228.07466C166.06256,227.56535 166.91066,227.5 167.82117,227.5C168.63867,227.5 169.71646,227.50687 170.14734,226.73833C170.60501,225.922 170.42564,224.81296 171.2045,224.509C172.0723,224.17033 173.00403,224.68452 173.79016,224.5C174.56181,224.31888 174.84018,223.57887 175.47467,223.07466C176.08363,222.59074 176.88933,222.48933 177.56134,221.92534L178.20534,221.54817" id="svg_35" stroke-width="3" stroke="#000" fill="none"/>
  <path t="235713,235888,235962,235982,236052,236103,236189,236189,236189,236233,236239,236279,236325,236405,236405,236425,236435,236502,236502,236557,236597,236611,236627,236651,236651,236687,236687,236723,236753,236789,236803,236839,236839,236899,236939,236991,236991,237015,237045,237055,237085,237117,237147,237147,237187,237217,237264,237264,237285,237285,237353,237419,237429,237429,237612,237673,237693,237694,237802,237959,238078,238107,238385,238395,238395" d="M114.5,99.5C115.5,99.47916 116.1722,99.02737 116.88934,98.52533C117.54787,98.06432 117.40794,97.02772 117.94267,96.17883C118.28394,95.63704 119.20491,95.18876 119.5,94.14283C119.72849,93.33295 119.26587,92.1951 119.78533,91.58266C120.32023,90.95203 120.6617,90.23591 121.44733,89.61433C122.07016,89.12157 122.84599,88.71091 123.5,88.5C124.40729,88.20741 124.80836,87.70245 125.69867,87.49866C126.50859,87.31328 126.54744,86.26684 127.04166,85.52084C127.55482,84.74627 128.47845,84.52084 129.38567,84.5C130.20428,84.4812 131.10001,84.5 132.02083,84.5C132.98267,84.5 133.63867,84.5 134.7215,84.5C135.60001,84.5 136.5,84.5 137.25717,84.5C138.14816,84.5 139.16667,84.5 140.02083,84.5C140.89999,84.5 141.8045,84.5 142.66667,84.5C143.47917,84.5 144.47917,84.5 145.26167,84.5C146.15717,84.5 146.9045,84.5 147.89734,84.5C148.78566,84.5 149.78534,84.5 150.7,84.5C151.60017,84.5 152.38533,84.49983 153.31467,84.5C154.257,84.50017 154.49292,85.20537 154.5,85.932C154.51042,87.00015 155.19548,87.14519 155.97917,87.52084C156.6824,87.85792 156.5,89.064 156.72166,89.94267L157.14667,90.64933" id="svg_36" stroke-width="3" stroke="#000" fill="none"/>
  <path t="239556,239729,239761,239803,239868,239904,239920,239920,239973,239974,240055,240076,240121,240227,240237,240268,240268,240278,240281,240311,240333,240351,240351,240377,240393,240407,240478,240478,240529,240529,240575,240625,240625,240625,240635,240659,240772,240795,240802,240802,240812,240905,240957,240973,241065,241109,241135,241175,241175,241195,241195,241311,241325,241345" d="M121.5,114.5C123.31467,114.5 124.33067,114.5 125.2045,114.5C126.064,114.5 127.11643,114.47627 127.45184,115.20983C127.79958,115.97038 128.16766,116.81574 128.85184,117.13834C129.8074,117.5889 130.19261,118.08055 130.51067,118.88934C130.79607,119.61508 131.91066,119.5 132.82117,119.5C133.63867,119.5 134.35956,119.68616 134.52083,120.5C134.70499,121.42931 135.7,121.5 136.60017,121.5C137.38533,121.5 138.31467,121.5 139.25717,121.5C140.11067,121.5 141,121.5 141.91066,121.5C142.82117,121.5 143.63867,121.5 144.58267,121.5C145.5,121.5 146.3365,121.35872 146.47917,120.5C146.64551,119.49885 146.61356,118.71529 147.07466,117.9C147.5127,117.12551 148.19569,116.84822 148.93201,116.33067C149.62148,115.84604 149.39792,114.58042 149.936,114.07467C150.59709,113.4533 151.8819,113.89395 152.41467,113.21467C152.98094,112.49268 153.00389,111.77937 153.64934,111.43867C154.51443,110.98203 154.49733,110.068 154.936,109.48933L155.7955,109.14283L156.33333,108.5" id="svg_37" stroke-width="3" stroke="#000" fill="none"/>
  <path t="244561,244759,244769,244807,244850,244877" d="M126.5,98.5C127.38667,98.5 128.31467,98.5 129.25717,98.5L130.11067,98.5L131,98.5" id="svg_38" stroke-width="3" stroke="#000" fill="none"/>
  <path t="246358,246688,246688,246795,246825,246825" d="M144.5,97.5C145.5,97.5 146.3,97.5 147.25717,97.5L148.14816,97.5L148.93066,97.5" id="svg_39" stroke-width="3" stroke="#000" fill="none"/>
 </g>
</svg>