<svg width="500" height="233.91812865497076" xmlns="http://www.w3.org/2000/svg" xmlns:svg="http://www.w3.org/2000/svg" xmlns:xlink="http://www.w3.org/1999/xlink">
 <!-- Created with SVG-edit - http://svg-edit.googlecode.com/ -->
 <g display="inline" class="layer">
  <title>Layer 1</title>
  <path t="27083,27284,27319,27319,27373,27403,27423,27484,27484,27963,27963,27999,28020,28021,28041,28042,28063,28083,28103,28103,28122,28168,28184,28204,28235,28236,28256,28256,28284,28305,28320,28362,28388,28389,28408,28408,28466,28466,28492,28517,28518,28547,28731,28732,28762,28763,28786,28833,28923,28923,30620,30695,30900,31000,31660,31660,31661,31734,32028,32052,32083,32083,32133,32244,32348,32435,32484,32542,32542,32571,32572,32616,32666,32667,32734,32734,32800,32822,32822,32863,32924,32925,32951,32975,32976,33005,33006,33006,33037,33037,33060,33060,33084,33109,33133,33158,33159,34541,34617,34618,34640,34772,34772,34883,34884,34955,34984,35034,35034,35059,35059,35084,35133,35284,35284,35315,35379,35467,35468,35517,35587,35620,35643,35669,35669,35716,35783,35808,35809,35833,35859,35916,35948,35972,35972,36089,36151,36151,36152,36201,36201,37091,37092,37130,37132,37184,37234,37284,37284,37333,37383,37383,37492,37557,37583,37667,37763,37820,37820,37971,38003,38034,38034,38132,38164,38216,38267,38268,38332,41379,41380,41434,41434,41499,41527,41529,41529,41567,41568,41617,41618,41868,41916,41918,41947,41947,41977,41978,41978,42012,42012,42013,42041,42069,42069,42103,42104,42104,42135,42136,42137,42167,42229,42230,42260,42324,42324,42356,42357,42384,42415,42450,42451,42484,42549,42549,42583,42584,42620,42649,42683,42684,42718,42719,42742,42743,42827,42857,42857,42858,42890,42891,42918,42953,42984,43011,43050,43084,43117,43148,43149,43179,43208,43243,43243" d="M32.3,125.15907C33.216,125.4444 33.39118,126.41557 34.10133,126.87373C34.81103,127.3316 35.80643,127.06113 36.71067,127.16973C37.63871,127.28119 38.26388,127.77061 39.2785,128.03757C40.08014,128.24849 40.936,128.15906 41.95717,128.15906C42.7045,128.15906 43.69733,128.15906 44.428,128.15906C45.468,128.15906 46.32084,128.15906 47.2785,128.15906C48.09867,128.15906 49,128.15906 49.9,128.15906C50.8,128.15906 51.75322,128.27109 52.50134,127.87373C53.25802,127.47182 54.01258,126.94749 54.59017,126.45906C55.38436,125.78745 55.84291,125.34911 56.8,125.13823C57.64986,124.95097 58.46508,124.31809 59.12533,124.18439C60.13105,123.98074 60.82962,123.65504 61.4,122.8379C61.84075,122.20647 62.38368,121.33054 63.3,121.15907C64.09081,121.01109 64.80762,120.50282 65.63333,119.9924C66.28323,119.59066 67.17397,119.44776 67.9955,119.1064C68.83849,118.75613 69.0845,117.78306 69.5215,117.05923C69.95831,116.33575 70.89996,116.1644 71.8,116.15907C72.77915,116.15327 73.4679,116.41692 74.00983,117.22157C74.31925,117.68097 74.77428,118.42675 75.53833,119.34023C76.14574,120.06643 77.11667,120.23386 77.3,119.58973C77.51421,118.83712 77.17213,117.66664 77.82083,117.15907C78.49441,116.63203 79.61376,116.57388 80.17867,115.9374C80.83444,115.19853 80.52512,114.15839 81.3,113.4924C81.88509,112.98954 82.936,113.15907 83.78533,113.15907C84.51067,113.15907 85.49983,113.15907 86.464,113.15907C87.41467,113.15907 88.3,113.15907 89.1,113.15907C89.972,113.15907 90.8425,113.15907 91.77917,113.15907C92.8,113.15907 93.63333,113.15907 94.34167,113.15907C95.3,113.15907 96.10909,113.21532 96.9,113.07373C97.91892,112.89132 98.68625,112.45418 99.69733,112.24306C100.42054,112.09206 101.22664,111.58856 101.91067,111.13373C102.65159,110.64106 103.3095,109.93821 104,109.51623C104.7108,109.08183 105.39553,109.88932 105.21333,110.6764C104.97534,111.70449 104.07101,112.17109 103.65717,112.91623C103.19862,113.74185 103.30225,114.50639 103.3,115.52306C103.29793,116.46356 103.3737,117.33085 103.27917,118.15907C103.16591,119.15132 102.49104,119.62828 101.82083,120.15907C101.17513,120.67044 101.3,121.64307 101.3,122.5064C101.3,123.52306 101.3,124.3604 101.3,125.32573C101.3,126.15907 101.28022,127.13763 101.3,127.9924C101.31801,128.77036 101.74421,129.55138 102.39983,130.25906C102.94979,130.85269 103.19599,131.73029 103.31067,132.60573C103.42753,133.49779 103.8218,134.15089 104.17867,135.13741C104.48557,135.98579 105.29467,136.19502 105.3,137.04573C105.30589,137.98438 105.3,138.67506 105.3,139.6799C105.3,140.70174 105.2972,141.40973 105.3,142.15373C105.3045,143.34926 105.467,144.04425 105.99633,144.81174C106.47701,145.5087 106.42919,146.35008 105.86533,146.95773C105.2614,147.60858 104.95758,148.4729 104.3,149.15906C103.7129,149.7717 103.07629,150.5721 102.3,150.9924C101.634,151.35298 101.20532,152.06815 100.72533,152.76973C100.23104,153.49223 99.80247,154.16133 99.23867,154.76973C98.59746,155.46165 97.71961,155.69077 97.34167,156.65906C97.04875,157.4095 97.3,158.48022 97.3,159.29773C97.3,160.20723 97.30241,160.9604 97.3,161.91623C97.29775,162.80725 97.04609,163.46115 96.584,164.24173C96.09482,165.06807 96.26047,165.9173 96.3045,166.81174C96.34713,167.6778 96.72623,168.55281 97.46667,169.32573C97.93993,169.81976 98.35194,170.50787 99.416,170.9884C100.13248,171.31197 101.12534,171.15906 101.816,171.15906C102.8,171.15906 103.78533,171.15906 104.51067,171.15906C105.5,171.15906 106.3,171.15906 107.3,171.15906C108.12133,171.15906 108.81433,171.15906 109.94234,171.15906C110.92934,171.15906 111.57733,171.15906 112.63333,171.15906C113.63333,171.15906 114.34167,171.15906 115.3,171.15906C116.11066,171.15906 116.98534,171.15906 117.98267,171.15906C118.77917,171.15906 119.53067,171.15906 120.63866,171.15906C121.62133,171.15906 122.3,171.15906 123.41467,171.15906C124.3,171.15906 125.05717,171.15906 125.95267,171.15906C126.816,171.15906 127.77917,171.15906 128.71066,171.15906C129.62134,171.15906 130.3,171.15906 131.41467,171.15906C132.3,171.15906 133.05716,171.15906 133.95267,171.15906C134.81599,171.15906 135.77916,171.15906 136.71066,171.15906C137.62134,171.15906 138.3,171.15906 139.416,171.15906C140.18401,171.15906 141.12534,171.15906 141.81599,171.15906C142.82083,171.15906 143.84312,171.17574 144.55066,171.14839C145.29556,171.1196 146.28792,170.79134 147.09734,170.44307C147.96535,170.06958 148.97752,170.49983 149.77916,170.13823C150.51193,169.80769 150.62852,168.56097 151.5,168.2444C152.3497,167.93573 153.3,168.15906 154.10001,168.15906C155,168.15906 155.82083,168.15906 156.784,168.15773L157.64734,168.1019" id="svg_3" stroke-width="3" stroke="#000" fill="none"/>
  <path t="46566,46634,46696,46696,46729,46729,46729,46729,46785,46822,46822,46844,46844,46901,46901,46901,46939,46939,46968,46968,47020,47020,47068,47068,47069,47069,47088,47088,47132,47158,47159,47184,47234,47234,47254,47276,47276,47300,47322,47350,47372,47372,47401,47401,47421,47442,47534,47534,47561,47582,47582,47636,47637,47684,47708,47741,47769,47802,47835" d="M160.3,113.15907C158.73599,113.80573 158.38281,114.6469 158.27467,115.44173C158.13176,116.49219 158.0415,117.13115 157.77916,118.1174C157.61244,118.74415 156.8959,119.67377 156.46666,120.4924C156.1403,121.11482 156.42493,122.16497 156.18567,122.96889C155.88326,123.98499 155.42661,124.39662 155.00534,125.15373C154.4382,126.17302 154.27551,126.91551 153.94733,127.81623C153.67232,128.57101 153.35242,129.55954 153.31067,130.43106C153.25989,131.49124 153.3,132.12573 153.3,132.79906C153.3,133.79657 153.3,134.89456 153.3,135.72707C153.3,136.6799 153.3,137.48039 153.3,138.33372C153.3,139.27373 153.3,140.25923 153.3,141.0444C153.3,141.98439 153.3,142.9924 153.3,143.7484C153.3,144.65906 153.3,145.55907 153.3,146.46356C153.3,147.32573 153.3,148.15906 153.3,149.13756C153.3,149.95773 153.3,150.85907 153.3,151.72307C153.3,152.72839 153.3,153.51089 153.3,154.4064C153.3,155.32573 153.3,156.15906 153.3,157.13756C153.3,157.95773 153.3,158.85907 153.3,159.75906C153.3,160.65906 153.3,161.55907 153.3,162.45906L153.30133,163.35907" id="svg_4" stroke-width="3" stroke="#000" fill="none"/>
  <path t="59502,59732,59785,59806,59806,59835,59883,60004,60005,60260,60292" d="M153.3,162.15906C153.3,163.85907 153.3,164.79506 153.3,165.64307C153.3,166.50639 153.3,167.52307 153.3,168.3604C153.3,169.32573 153.3,170.15906 153.3,171.13741L153.3,171.9924" id="svg_8" stroke-width="3" stroke="#000" fill="none"/>
  <path t="63780,64051,64164,64196,64248,64283,64349,64349,64429,64429,64508,64508,64539,64635,64636,64665,64699,64732,64733,64948,66565,66565,66624,66624,66654,67012,67089,67119,67183,67215,67215,67588,67700,67733,67766,67767,67798,67832,68068,68069,68149,68149,68468,68500,68531,68567,68568,68883,68983,68984,69076,69468,69501,69566,69567,69604,69636,69668,69701,69748,69883,69981,70021,71676,71676,71996,72060,72086,72140,72165,72185,72186,72308,72516,72517,72542,72565,72617,72617,72636,72724,72836,72882,72981,74604,74665,74686,74687,74706,74707,74915,74965,74965,74988,74988,75009,75066,75066,75067,75252,75314,75349,75382,75382,75416,75417,75565,75599,75599,75708,75900,75963,75964,75964,76000,76001,76001,76081,76081,76081,76173,76174,76174,76218,76218,76218,76263,76305,76306,76350,76397,76398,76442,76443,76494,76494,76588,76588,76589,76649,76650,76696,76698,76698,76748,76748,76748,76818,76862,76863,76908,76909,76909,76960,76960,77031" d="M163.3,111.15907C165.13333,111.32573 165.298,112.13373 165.3,112.92073C165.30226,113.80724 165.64159,114.65294 166.13333,115.32573C166.58321,115.94124 166.69337,117.02054 167.06166,117.5064C167.69771,118.3455 168.63724,118.58513 169.18567,119.45457C169.67403,120.22877 169.90704,120.88166 170.32533,121.75906C170.71039,122.56673 171.4839,122.9235 172.27916,123.15907C173.21739,123.43698 173.41232,124.39594 174.06166,124.8019C174.86006,125.30106 175.93944,125.03346 176.65334,125.59506C177.39824,126.18105 177.69147,127.05976 178.27467,127.5844C178.88599,128.13431 179.64027,128.57993 180.27916,129.15906C180.98869,129.80223 181.13931,130.82939 181.84166,131.13823C182.7045,131.51764 183.64734,131.15906 184.53833,131.15906C185.39734,131.15906 186.36574,131.12102 187.06,131.19507C188.16611,131.31305 188.76477,131.94009 189.65717,132.15906C190.47572,132.35991 191.39999,132.15906 192.3,132.15906C193.10001,132.15906 194.05716,132.15906 194.95267,132.15906C195.64734,132.15906 196.75833,132.15976 197.65717,132.15906C198.5,132.15839 199.42799,131.97041 200,131.45456C200.7272,130.79877 201.23912,130.06519 201.3,129.15906C201.36142,128.24512 201.35812,127.4551 201.8,126.65907C202.24379,125.8596 202.16425,124.91402 202.52116,124.05907C202.79253,123.40904 202.68097,122.5746 202.32533,121.75906C201.98297,120.97398 201.58749,120.16177 201.18567,119.45457C200.76962,118.72234 199.85889,118.57343 199.06166,117.85906C198.37746,117.24596 198.76028,116.1836 198.21466,115.4444C197.77977,114.8552 196.64734,115.15907 195.784,115.15907C194.82083,115.15907 193.94128,115.20628 193.27467,115.73373C192.62338,116.24906 192.00401,116.82579 191.35716,117.45007C191.28052,117.52404 190.98068,116.48615 190.5955,115.81173C190.14307,115.01953 189.47278,114.50502 188.664,114.09773C187.78172,113.65343 187.37476,113.053 186.46666,112.4924C185.75848,112.05522 184.84476,111.75504 184.3,110.9924C183.85208,110.36533 183.62027,109.54216 182.89999,108.80573C182.28813,108.18015 181.35376,107.87489 181.3,106.9924C181.24933,106.16035 181.09885,105.34534 180.65266,104.52073C180.26971,103.81297 180.30061,102.83773 180.3,101.9844C180.29933,101.04573 179.86172,100.43631 179.46666,99.65907C179.10056,98.9388 179.31364,98.10265 179.29984,97.0804C179.2874,96.15892 179.25336,95.46655 179.01466,94.47373C178.81175,93.62972 178.50064,92.75707 178.2,91.85923C177.90193,90.96908 177.72075,90.38707 177.3,89.32573C177.0183,88.6151 176.67909,87.81338 176.32533,86.79507C176.03267,85.9526 175.43759,85.41335 174.91066,84.75906C174.3085,84.01137 174.25218,83.17816 173.94284,82.15373C173.71562,81.40128 173.32988,80.47369 172.89999,79.8204C172.33792,78.96621 171.92693,78.31741 171.5,77.64307C171.02475,76.8924 170.42233,76.2673 169.63834,75.5019C169.26198,75.13446 168.63083,74.53535 167.61867,73.76173C167.10463,73.36884 166.47729,72.65853 165.46249,72.2734C164.63464,71.95922 163.84221,72.13892 162.89999,71.59106C162.26085,71.21944 161.7,70.72707 160.7045,70.2734L159.95717,70.16807L158.94667,70.1484" id="svg_9" stroke-width="3" stroke="#000" fill="none"/>
  <path t="84480,84748,84852,84901,84901,84901,84954,84954,85037,85900,85982" d="M31.3,124.15907C30.3,124.15907 29.36633,124.18087 28.636,123.71623C28.01046,123.31826 27.21084,122.93697 26.55467,122.0444C26.10328,121.43039 25.72533,120.59506 25.65717,120.15907L26.50133,120.15907" id="svg_10" stroke-width="3" stroke="#000" fill="none"/>
  <path t="89372,89708,89772,89831,89932,89984,89984,90015,90066,90066,90245,90302,90349,90398,90421,90421,90853,90853,92126,92222,92249,92303,92303,92415,92479,92479,92559,92599,92599,92650,92650,92750,92783,92783,92838,92867,92885,92925,92976,92976,93039,93066,93119,93198,93278,93278,93278,93332,93382,93382,93382,93401,93534,93726,93757,93798,93798,94270,94366,94366,94385,94386,94415,94853,94965,95021,95079,95080,95081,95110,95111,95165,95215,95430,95455,95483,95552,95553,95615,95665,95665,95727,95753,95790,95790,95884,95885,95918,95919,95998,95999,96036,96098,96149,96188,96188,96207,96208,96311,96311,96605,96606,96606,96606,96639,96639,96837,96838,96876,96876,96913,96955,96955,97021,97022,97065,97341,97342,97399,97437,97437,97438,97479,97853,98022,98064,98113,98162,98163" d="M25.3,118.15907C26.0045,117.15907 26.9,117.15907 27.8,117.15907C28.71067,117.15907 29.62133,117.15907 30.3,117.15907C31.2785,117.15907 32.33644,117.32722 33.1,117.07373C33.87216,116.81739 34.59864,116.18766 35.5,116.15907C36.39955,116.13052 37.30001,116.16284 38.05717,116.15907C39.12537,116.15373 39.9781,116.32298 40.75834,115.63823C41.44687,115.03395 41.72387,114.34515 42.5,113.87373C43.17637,113.46291 43.8,112.65907 44.4,112.05907C45,111.45906 45.64744,110.63804 46.46667,110.32573C47.26076,110.02301 48.29454,110.19334 48.93833,109.51173C49.48819,108.92957 49.70061,107.98361 50.48533,107.59506C51.37548,107.15431 52.43809,107.48113 53.13334,106.9924C53.84925,106.48914 54.35083,105.85822 55,105.51173C55.84938,105.05839 56.85915,105.20328 57.32533,104.5484C57.84422,103.81948 58.44917,103.12782 59.12533,102.76973C59.80002,102.41243 60.84951,102.22318 61.62133,101.7164C62.35542,101.2344 62.79299,100.68441 63.77917,100.1799C64.57838,99.77104 65.29979,99.16949 66.06167,99.15907C66.95258,99.14688 67.82175,99.26303 68.75833,99.15907C69.76141,99.04771 70.31871,98.58378 71.3,98.32573C72.06537,98.12447 73.175,97.96194 73.3,97.05923C73.41626,96.21973 73.84167,95.6174 74.46667,94.9924C75.12534,94.33373 75.64733,93.81173 76.41333,93.04573C77.01334,92.44573 77.83369,92.29861 78.7,92.1484C79.53216,92.00411 79.83202,90.96038 80.46667,90.32573C81.10132,89.69109 81.86041,89.50545 82.6,88.86356C83.26669,88.28495 84.09458,88.06581 84.8,87.65907C85.59404,87.20123 86.44996,86.78026 87.18533,86.44306C87.91895,86.10667 88.93599,86.05267 89.7,85.59106C90.3328,85.20872 91.27738,84.41732 91.891,84.2734C92.94415,84.02638 93.15939,83.62518 93.31067,82.75906C93.45634,81.92499 94.09801,81.41743 95.06667,80.95907C95.76546,80.6284 96.76205,80.11626 97.32083,79.65907C98.1353,78.99266 98.70951,78.8434 99.63467,78.59506C100.2459,78.43099 101.47795,78.32524 102.18134,77.98973C103.02911,77.58534 103.55785,76.7043 104.416,76.32973C105.13651,76.01524 106.1256,76.18196 107.13333,76.15907C107.92594,76.14106 108.77072,75.84174 109.64733,75.51173C110.53519,75.17749 111.47592,75.01447 112.11467,74.73373C113.07233,74.31283 113.72877,73.70143 114.32083,73.15907C114.80612,72.71451 115.84721,72.30234 116.5955,71.8064C117.36315,71.29762 117.91067,70.5844 118.7,70.17373L119.4,69.7164L119.9,69.00973" id="svg_11" stroke-width="3" stroke="#000" fill="none"/>
  <path t="124352,124598,124688,124717,124717,124717,124735,124758,124758,124790,124790,124847,124848,124865,124918,124919,124964,124983,124983,125004,125093,125094,125123,125165,125165,125214,125241,125241,125265,125285,125285,125304,125333,125381,125381,125381,125431,125431,125461,125463,125515,125551,125597,125597,125694,125714,125734,125783,125942,125942,126046" d="M117.3,24.15907C117.3,25.85906 117.3,26.83106 117.3,27.70173C117.3,28.40973 117.3,29.39106 117.3,30.34923C117.3,31.32573 117.3,32.15907 117.3,33.13773C117.3,33.91173 117.29067,34.81178 117.3,35.67506C117.31042,36.6384 117.74387,37.41565 118.016,38.0444C118.40215,38.93658 118.3,39.9924 118.3,40.85456C118.3,41.6799 118.3,42.64307 118.3,43.33373C118.3,44.4019 118.3,45.25923 118.3,46.0444C118.3,46.9844 118.28912,47.99247 118.3,48.85456C118.31042,49.6801 118.49739,50.69326 118.91067,51.29773C119.4845,52.13705 120.27141,52.52396 120.3,53.4924C120.31984,54.1641 120.27254,55.15417 120.30016,56.01623C120.32877,56.90859 120.68642,57.79836 120.94733,58.5064C121.31202,59.496 121.3,60.38057 121.3,61.25923C121.3,62.0444 121.3,62.97373 121.3,63.91623C121.3,64.76973 121.3,65.6799 121.3,66.64173L121.3,67.44923L121.3,67.98756" id="svg_14" stroke-width="3" stroke="#000" fill="none"/>
  <path t="127206,127566,127659,127659,127731,127731,127731,127965,127966,127966,128015,128081,128131,128131,128185,128264,128295,128295,128315,128316,128405,128460,128460,128460,128501,128615,128685,128685,128685,128685,128744,128744,128745,128745,128796,128796,129151,129248,129248,129308,129382,129382,129434,129463,129463,129484,129622,129641,129642,129742,129767,129786,129786,129815,129816,129816,130838,130898,131014,131134,131134,131253,131326,131380,131470,131501,131566,131566,131599,131622,131680,131702,131702,131731,131752,131863,131863,131915,131915,131965,131992,131992,132016,132016,132447,132498,132518,132614,132634,132680,132731,132918,132943" d="M116.3,24.15907C115.38533,23.87373 115.29855,23.05873 115.3,22.1884C115.30134,21.38839 115.26789,20.60307 115.47066,19.7564C115.7636,18.53325 116.12952,17.97831 116.59467,17.23056C117.1647,16.31422 117.94667,16.15907 118.784,16.15907C119.64733,16.15907 120.65334,16.15907 121.58667,16.15907C122.46667,16.15907 123.30164,16.21538 124.27834,16.1589C125.01702,16.11618 125.6273,15.38316 126.436,15.24306C127.29134,15.09488 128.26009,15.28141 129.16667,14.73373C129.86334,14.31286 130.64217,13.8411 131.31433,13.44473C131.84895,13.12946 132.70337,12.55745 133.59967,11.95923C134.19145,11.56426 135.03519,11.00512 135.52933,10.6444C136.50018,9.93569 137.00601,9.24788 137.82083,8.6799C138.55472,8.16833 139.47462,8.1644 140.41467,8.15906C141.29999,8.15404 142.15021,8.17253 142.8,8.6799C143.56802,9.27957 144.06787,10.01334 145.01466,10.15773C145.83221,10.28241 146.79854,10.04887 147.64734,10.21623C148.56972,10.39811 148.83855,11.35128 149.46666,11.9924C149.96239,12.4984 151.08401,12.70211 151.77916,13.1799C152.46475,13.65112 152.88657,14.65687 153.58533,15.07373C154.37436,15.54444 155.35083,15.45991 156,15.8064C156.84937,16.25974 157.90929,15.99178 158.5955,16.51623C159.34575,17.08961 159.57083,17.9291 160.3,18.32573C161.00511,18.70927 161.41917,19.57669 161.87466,20.2204C162.38858,20.94668 162.15047,22.01463 162.336,22.7484C162.55644,23.62027 163.25728,24.35604 163.3,25.25923C163.3371,26.04352 163.2854,26.98455 163.3,27.67506C163.32083,28.65973 163.74702,29.47684 164.3,30.15907C164.97198,30.98811 165.27916,31.63752 165.3,32.55906C165.32036,33.45884 165.3,34.35907 165.3,35.2589C165.3,36.1844 165.3,36.9604 165.3,37.85907L165.3,38.75906L165.228,39.72306" id="svg_15" stroke-width="3" stroke="#000" fill="none"/>
  <path t="133943,134125,134165,134165,134190,134190,134221,134248,134274,134309,134331,134359,134390,134391,134412,134447,134466,134487,134514,134582,134582,134663,134726,134750,134798,134798,134821,134821,134849,134871,134871,134903,134903,134931,134931,134952,134953,134981,135040,135080,135111,135111,135132,135154,135176,135176,135311,135364,135385,135495,135548,135581,135602,135630,135631,135718,135783,135808,135886,136094,136208,136237,136238,136271,136271,136297,136406,136406,136543,136574,138262,138314,138510,138510,138564,138585,138621,138622,138647,138678,138679,138743,139094,139247,139247,139390,139534,139630,139655,139675,139676,139894,139894,139951,140102,140134,140134,140183,140238,140238,140268,140268,140518,140546,140597,140597,140864,140898,140898,140947,141713" d="M118.3,48.15907C117.38533,47.8724 117.3,46.9924 117.3,46.15907C117.3,45.18056 117.3,44.46357 117.3,43.55906C117.3,42.65907 117.15138,41.68063 117.65266,40.86356C118.1125,40.11407 118.34968,39.38197 119.00983,38.85907C119.75434,38.26934 120.54548,37.87123 121.27467,37.1844C121.8263,36.66481 122.70988,36.29358 123.6,36.15456C124.41898,36.02666 124.93715,35.38378 125.7,34.76973C126.44554,34.16961 127.44889,34.32905 128.3,33.9924C129.00266,33.71447 129.83101,33.41367 130.59016,33.1064C131.44519,32.76032 132.01303,32.18892 132.90266,32.1604C133.89948,32.12843 134.70027,32.181 135.69867,32.15773C136.46458,32.13988 137.364,31.78178 138.09866,31.44306C138.95564,31.04795 139.89999,31.15907 140.71066,31.15907C141.62134,31.15907 142.47467,31.15907 143.41467,31.15907C144.39999,31.15907 145.3,31.15907 146.10001,31.15907C147,31.15907 147.97194,30.83095 148.77916,31.1799C149.49315,31.48854 150.01627,32.13746 150.91066,32.15907C151.80072,32.18057 152.42435,32.7854 153,33.45373C153.61565,34.1685 154.17392,34.88466 154.91066,35.1484C155.74803,35.44817 156.7959,34.97596 157.49867,35.4444C158.29398,35.97452 158.35657,36.91711 159.00534,37.45906C159.68228,38.02454 160.25671,38.85563 160.86934,39.35773C161.56525,39.92809 162.5414,40.13047 163.39999,40.15907C164.2995,40.18903 165.23911,40.3743 165.3,41.25923C165.35391,42.04255 165.67613,43.05218 165.29967,43.91623C164.98996,44.62707 163.87915,44.76513 163.36133,45.55906C162.88501,46.28934 162.40843,46.88176 161.82083,47.65907C161.26323,48.39668 161.3,49.3604 161.3,50.0444C161.3,50.97373 161.3,51.98973 161.3,52.86356C161.3,53.6799 161.12418,54.66111 161.3,55.44923C161.47076,56.21461 162.74135,55.86742 163.228,56.59507C163.71248,57.31947 163.3,58.48023 163.3,59.29773C163.3,60.20723 163.3,61.15907 163.3,61.91623C163.3,62.80723 163.3,63.58973 163.3,64.59506C163.3,65.46356 163.44278,66.49921 163.26401,67.29773C163.08495,68.09758 162.384,68.72707 162.216,69.59106L161.65266,70.20723L161.13333,70.9924" id="svg_16" stroke-width="3" stroke="#000" fill="none"/>
  <path t="172655,172748,172748,172748,172748,172800,172800,172800,172800,172801,172801,172801,172829,172829,172830,172830,172830,172830,172830,172830,172830,172851,172851,172851,172851,172852,172852,172852,172852,172852,172873,172873,172873,172873,172873,172873,172873,172873,172873,172903,172903,172903,172903,172929,172930,172953,172953,172953,172953,172982,172982,172982,173000,173001,173001" d="M130.3,56.15907C134.18666,56.15907 134.94667,56.15907 135.74667,56.15907C136.58667,56.15907 137.46666,56.15907 138.408,56.15907C138.93367,56.15907 140.175,56.15907 140.92267,56.15907C141.77634,56.15907 142.752,56.15907 145.13333,56.15907C146.56267,56.15907 148.12801,56.15907 149.79533,56.15907C151.53067,56.15907 153.3,56.15907 155.06934,56.15907C156.80467,56.15907 158.472,56.15907 161.46666,56.15907C162.73367,56.15907 163.84267,56.15907 164.80566,56.15907C165.63467,56.15907 166.34166,56.15907 166.93866,56.15907C167.43767,56.15907 167.85066,56.15907 168.46666,56.15907C168.69284,56.15907 168.87601,56.15907 169.02316,56.15907C169.14133,56.15907 169.2375,56.15907 169.31866,56.15907C169.39183,56.15907 169.464,56.15907 169.63333,56.15907C169.74283,56.15907 169.86934,56.15907 170.48534,56.15907C171.41867,56.15907 172.16701,56.15907 173.35466,56.15907C173.99733,56.15907 174.696,56.15907 175.41867,56.15907C176.81467,56.15907 177.464,56.15907 178.39549,56.15907L179.59984,56.15907L180.1955,56.15907L181.064,56.15907" id="svg_21" stroke-width="3" stroke="#000" fill="none"/>
  <path t="175632,175872,175924,175924,175924,175950,175950,175950,175950,175950,175950,175950,175950,175981,175982,175982,175982,176015,176015,176015,176015,176045,176045,176045,176045,176045,176046,176046,176046,176079,176079,176080,176080,176080,176080,176080,176114,176116,176117,176118,176118,176118,176118,176118,176118,176146,176149,176149,176150,176150,176150,176150,176150,176150,176176,176176,176176,176176,176176,176176,176178,176181,176207,176207,176208,176208,176208,176208,176208,176238,176238,176238,176238,176239,176262,176263,176263,176288,176288,176314" d="M125.3,60.15907C126.32083,60.15907 127.28,60.15907 127.96667,60.15907C128.86667,60.15907 129.8,60.15907 131.05733,60.15907C131.7785,60.15907 132.53867,60.15907 133.32083,60.15907C134.108,60.15907 134.88316,60.15907 135.62933,60.15907C136.96666,60.15907 138.01866,60.15907 138.82266,60.15907C139.72116,60.15907 140.72234,60.15907 141.27966,60.15907C142.29066,60.15907 143.12801,60.15907 144.13333,60.15907C144.70717,60.15907 145.97684,60.15907 146.65866,60.15907C147.3625,60.15907 148.08133,60.15907 148.80817,60.15907C149.536,60.15907 150.96666,60.15647 152.332,60.1604C152.99466,60.1623 153.64941,60.16576 154.3,60.1799C155.60553,60.20827 156.26877,60.23253 157.63333,60.32573C158.34344,60.37423 159.07079,60.44175 159.81433,60.51173C160.57213,60.58305 161.34154,60.66042 162.12134,60.73373C162.90887,60.80777 163.70177,60.88808 165.3,60.9924C166.09944,61.04458 166.89871,61.07666 167.6955,61.1154C168.48938,61.154 169.27971,61.19351 170.064,61.2564C170.84344,61.3189 171.62221,61.37092 173.13333,61.65907C173.88266,61.80195 174.61792,61.99576 176.05333,62.43507C176.76068,62.65155 177.45206,62.88715 178.13834,63.10106C178.8121,63.31108 180.12985,63.67687 180.77834,63.79456C182.03253,64.02218 182.65266,64.06123 183.25833,64.09657C184.43735,64.16536 185.01334,64.15707 186.67799,64.15907C187.21066,64.15971 188.23199,64.15907 188.71666,64.15907C189.62399,64.15907 190.8,64.15907 191.7285,64.15907C192.468,64.15907 193.49983,64.15907 194.464,64.15907L195.41467,64.15907" id="svg_22" stroke-width="20" stroke="#fff" fill="none"/>
  <path t="180864,181246,181289,181289,181379,181471,181471,181511,181511,181681,181681,181768,181789,181879,181904,181904,181934,181996,182039,182039,182096,182175,182175,182200,182201,182240,182295,182320,182380,182425,182425,182480,182502,182581,182703,182703,182729,182754,182754,182823,182823,182878,182904,182929,183023,183048,183048,183095,183146,183247,183295,183320,183378,183487,183488,183512,183512,183687,183712,183712,183790,183903,183942,183964,183964,183987,184261,184283,184284,184284,184448,184489,184647,184648,184648,184879,184943,185646,187343" d="M165.3,45.15907C164.38533,45.44573 164.3,46.32573 164.3,47.13823C164.3,48.1084 164.3,48.8734 164.3,49.76173C164.3,50.75006 164.3,51.5884 164.3,52.6019C164.3,53.3444 164.3,54.27373 164.3,55.15907C164.3,56.1109 164.3,56.8689 164.3,57.6764C164.3,58.7484 164.3,59.63823 164.3,60.6019C164.3,61.3444 164.3,62.27373 164.3,63.15907C164.3,64.0444 164.3,64.9844 164.3,65.67506C164.3,66.7484 164.30067,67.55907 164.3,68.45906C164.29933,69.35906 164.11136,70.28706 163.5955,70.85906C162.9397,71.58627 161.93732,71.72996 161.30133,72.2444C160.66422,72.75976 160.11472,73.15373 159.18533,73.15907C158.30002,73.16415 157.45802,73.29489 156.89999,74.00973C156.46577,74.56596 155.7001,75.14307 154.8,75.15907C153.90007,75.17506 153.08119,75.65958 152.3,75.9924C151.54846,76.31259 150.60001,76.15907 149.65717,76.15907C148.77916,76.15907 147.89999,76.15907 147,76.15907C146.09866,76.15907 145.13333,76.15907 144.3,76.15907C143.46666,76.15907 142.60451,76.15907 141.664,76.15907C140.81599,76.15907 139.95267,76.15907 139.05716,76.15907C138.10001,76.15907 137.2,76.15907 136.3,76.15907C135.5,76.15907 134.47003,76.30356 133.864,75.70173C133.12473,74.9676 132.99318,74.1624 132.73599,73.44573C132.36769,72.41944 131.89,71.83689 131.3,70.9924C130.85866,70.36069 130.5,69.64307 129.91066,68.80573L129.27467,68.16973L128.42149,67.93756L128.29984,67.05907" id="svg_23" stroke-width="3" stroke="#000" fill="none"/>
  <path t="189067,189199,189243,189263,189263,189383" d="M121.3,60.15907C122.18667,60.15907 123.12534,60.15907 124.13333,60.15907L124.93833,60.21623L125.384,60.87506" id="svg_24" stroke-width="3" stroke="#000" fill="none"/>
  <path t="192425,192743,192788,192912,192944,192975,192975,193030,193049,193080,193104,193207,193207,193329,193382,193406,193406" d="M136.3,50.15907C137.28934,50.19506 137.93214,51.17667 137.3,51.9924C136.89095,52.52025 135.64732,52.15538 134.95267,52.15907C133.94662,52.1644 133.6154,52.74281 133.28934,53.5484C132.99156,54.28406 131.81599,54.15907 131.12534,54.15907C130.06166,54.15907 129.13333,54.15907 128.3,53.9924L127.65717,53.45456" id="svg_25" stroke-width="3" stroke="#000" fill="none"/>
  <path t="194215,194581,194623,194680,194681,194704" d="M151.3,52.15907C153.10001,52.15907 153.936,52.15907 154.784,52.15907L155.64734,52.15907L156.65334,52.15907" id="svg_26" stroke-width="3" stroke="#000" fill="none"/>
  <path t="197160,197631,197784,197815,197841,197896,198040,198063,198183,198280,198280,198591,198591,198636,198744,198745,198794,198992,199016,199047,199074,199099,199151,199152,199211,199328,199560,199561,199626,200207,200231,200231,200263" d="M145.3,49.15907C145.3,51.7124 145.3,52.6799 145.3,53.55906C145.3,54.45906 145.13792,55.45911 145.65266,56.1064C146.145,56.72551 146.72647,57.41374 147.13333,58.15907C147.54907,58.92067 148.23894,59.45425 148.73199,59.95906C149.42993,60.67365 149.3,61.64307 149.3,62.5064C149.3,63.52306 149.62701,64.64115 148.94284,65.1019C148.15936,65.62952 147.10001,65.15907 146.2,65.15907C145.3,65.15907 144.38925,65.52342 143.65717,65.1019C142.84567,64.63466 142.3,64.15907 141.5,64.15907C140.60001,64.15907 139.7,64.08707 139,63.45373L138.60001,62.8644L137.88933,62.2204" id="svg_27" stroke-width="3" stroke="#000" fill="none"/>
  <path t="212817,212977,213010,213060,213060,213060,213081,213142,213142,213164,213164,213206,213231,213279,213279,213318,213318,213318,213346,213346,213383,213461,213502,213502,213530,213530,213614,213643,213643,213668,213695,213727,213727,213753,213754,213781,213782,213842,213869" d="M128.3,78.15907C128.10266,77.44306 128.97195,77.1644 129.84267,77.15907C130.79999,77.1532 131.532,77.15907 132.49017,77.15907C133.46666,77.15907 134.30132,77.10855 135.2785,77.15923C136.10196,77.20194 136.72188,77.84834 137.60451,78.1019C138.58353,78.38316 139.33617,78.09976 140.3,78.32573C141.11859,78.51764 141.88551,78.95215 142.89549,79.1019C143.6366,79.21178 144.65334,79.15907 145.52167,79.15907C146.46666,79.15907 147.3,79.15907 148.13333,79.15907C149.01334,79.15907 149.94667,79.15907 150.784,79.15907C151.64734,79.15907 152.664,79.15907 153.50133,79.15907C154.46666,79.15907 155.33148,79.26211 156.13333,78.9924C156.97777,78.70837 157.784,78.2444 158.47467,78.16973L159.54283,78.15907L160.39983,78.1589" id="svg_29" stroke-width="20" stroke="#fff" fill="none"/>
  <path t="219785,220381,220447,220467,220510,220576,221014,221042,221092,221092,221092,221113,221143,221143,221164,221310,221470,221509,221555,221555,221967,222247" d="M134.3,74.15907C134.3,73.35773 134.34486,72.30553 135.10133,72.1604C135.9839,71.99108 136.93713,72.09825 137.35266,71.45457C137.85564,70.67542 138.62798,70.28009 139.55066,70.19506C140.29219,70.12672 141.32933,70.15907 142.3,70.15907C143.05716,70.15907 143.94817,70.15907 144.96666,70.15907C145.82083,70.15907 146.71066,70.15907 147.62117,70.15907L148.43866,70.15907L149.38266,70.15907L150.18666,70.15907" id="svg_30" stroke-width="3" stroke="#000" fill="none"/>
  <path t="224177,224393,224703,225031,225031,225062,225062,225088,225088,225148,225262,225263,225289,225342,225374,225374,225398,225462,225559,225625,225625,225646,225727,225823,226693,226694,226736,226736,226736,226791,226903,227014,227015" d="M133.3,72.15907C135.10001,72.15907 135.96101,72.16915 136.60451,72.8644C137.10927,73.40975 137.95187,74.09386 138.7045,74.15006C139.69461,74.22401 140.42799,74.15907 141.46666,74.15907C142.40016,74.15907 143.18533,74.15907 144.11467,74.15907C145.05733,74.15907 145.86934,74.15907 146.65184,74.15907C147.664,74.15907 148.5955,74.15914 149.46666,74.15907C150.39999,74.15898 151.15543,74.14971 151.89999,73.5484C152.65936,72.93513 153.65633,72.59317 153.644,72.15639C153.62239,71.39102 151.89279,71.60232 151.32083,71.15907C150.77701,70.73761 149.82083,70.20073 148.88933,70.1484L147.97867,69.93773L147.3,69.65907" id="svg_31" stroke-width="3" stroke="#000" fill="none"/>
  <path t="237122,237375,237376,237415,237443,237493,237514,237599,237599,237659,237711,237911,237935,237960,238008,238009,238059,238175,238208,238233,238233,238258,238258,238334,238362,238388,238388,238414,238414,238558,238630,238703,238727,238830,238967,238994,239026,239027,239079,239109,239160,239208,239262,239263,239327,239327,239351,239351,239409,239462,239463,239542,239572,239601,239639,239639,239666,239666,239856,239883,239913,239914,240135,240162,240178" d="M163.3,65.15907C163.13333,66.15907 162.7955,66.94112 162.3,67.63823C161.84068,68.28443 161.33859,68.92487 160.77916,69.65907C160.18805,70.43484 159.66371,70.93038 158.89999,71.5484C158.15631,72.15022 157.54903,72.60631 156.864,73.13373C156.21149,73.63612 155.54802,74.18996 155.24733,74.85906C154.87473,75.68819 154.00136,76.13047 153.09866,76.15907C152.13382,76.18963 151.29922,76.12035 150.3215,76.15923C149.60281,76.18782 148.87686,76.84397 147.9955,77.1019C147.16621,77.34458 146.3,77.15907 145.3215,77.15907C144.50133,77.15907 143.60001,77.15907 142.7,77.15907C141.8,77.15907 140.89999,77.15907 140,77.15907C139.10001,77.15907 138.2,77.15907 137.3,77.15907C136.5,77.15907 135.60001,77.15907 134.7,77.15907C133.8,77.15907 132.86554,77.23289 131.97867,76.93756C131.27492,76.70321 130.43768,76.1944 129.82083,75.65907C129.06198,75.00048 128.49997,74.3591 127.9,73.75906C127.20013,73.0591 126.65801,72.45869 126.3,71.65907C125.94367,70.86319 125.15493,70.39493 124.3,69.9924C123.61636,69.67052 122.7603,69.43433 122.00983,69.1064C121.17187,68.74023 120.89014,67.73331 120.2,67.05923C119.62109,66.4938 118.82083,66.15907 118.27467,65.5844L117.584,65.07507" id="svg_33" stroke-width="3" stroke="#000" fill="none"/>
  <path t="243630,243927,243928,243970,243996,244048,244076,244167,244248,244414,244442,244443,244541,244609,244610,244630,244703,244725,244815,244815,244842,244864,244895,244918,244945,244945,245008,245008,245059,245060,245087,245142,245192,245231,245231,245291,245315,245341,245367,245367,245439,245502,245551,245551,245639,245727,245728,245815,245879,245879,245942,246031,246031,246103,246135,246135,246241,246343,246448,246448,246688,246809,246836,246837" d="M120.3,72.15907C120.3,73.15907 120.3,73.95907 120.3,74.85906C120.3,75.75906 120.3,76.65907 120.3,77.55907C120.3,78.45906 120.20462,79.36244 120.3,80.32573C120.38374,81.17143 120.85847,81.90692 121.32083,82.65907C121.786,83.41577 122.44613,83.85339 123.41467,84.07373C124.3789,84.29309 125.02902,84.45486 125.5215,85.2589C125.90108,85.87862 126.97379,85.82594 127.77917,86.1799C128.49126,86.49287 129.06165,87.15681 129.95717,87.15907C130.7045,87.16094 131.7012,87.07614 132.58566,87.15907C133.47836,87.24276 134.06813,88.00492 134.89999,88.1484C135.78697,88.30138 136.77916,88.15907 137.63333,88.15907C138.48534,88.15907 139.41467,88.15907 140.3,88.15907C141.21733,88.15907 142.00983,88.15907 142.81734,88.15907C143.77916,88.15907 144.71066,88.15907 145.62134,88.15907C146.47467,88.15907 147.41592,88.20609 148.3,88.15907C149.10341,88.11634 149.98817,87.55415 150.21466,86.67506C150.38797,86.00234 150.3,84.92073 150.3,83.9924C150.3,83.2724 150.3,82.33373 150.3,81.32573C150.3,80.52073 150.18875,79.56269 150.73599,78.75906C151.19949,78.07841 151.864,77.55907 152.27916,76.6799L152.3,75.7974L152.30017,74.83773L152.32083,74.15907" id="svg_34" stroke-width="3" stroke="#000" fill="none"/>
  <path t="260436,260625,260625,260704,260705,260724,260725,260776,260864,260865,260886,260886,260914,260953,260975,261072,261072,261072,261120,261120,261257,261512" d="M61.3,99.15907C62.00533,99.51173 62.97876,99.73714 63.30017,100.6019C63.55915,101.29869 63.67778,102.22282 64.016,102.95773C64.41676,103.82856 64.29944,104.72973 64.3,105.56806C64.30067,106.5564 64.3261,107.46558 64.8,108.13823C65.26012,108.79132 65.1619,109.79905 65.63333,110.4924C66.0447,111.09741 66.732,111.59106 67.52133,112.38056L68.016,112.9604L68.384,113.87373L69.1785,114.38056" id="svg_35" stroke-width="3" stroke="#000" fill="none"/>
  <path t="264241,264425,264425,264492,264492,264492,264512,264513,264513,264539,264920,264920,264972,265000,265000" d="M174.3,122.15907C174.3,121.15907 174.33745,120.34738 174.87199,119.67506C175.47752,118.91347 175.95589,118.58614 176.98267,118.0444C177.75739,117.63565 178.55779,117.40936 179.48567,116.86356C180.32686,116.36877 181,116.16357 181.936,116.15907L182.784,116.15773L183.64734,116.1019" id="svg_36" stroke-width="3" stroke="#000" fill="none"/>
  <path t="267471,267578,267631,267664,267664,267664,267699,267726,267757,267757,267757,267793,267793,267793,267831,267831,267831,267831,267831,267832,267866,267866,267866,267867,267867,267867,267867,267869,267908,267908,267909,267909,267958,267959,267959,268025,268025,268028,268028,268061,268061,268090,268126,268127,268127,268160,268160,268160,268191,268191,268222,268224,268257,268257,268257,268289,268289,268321,268321,268321,268360,268360,268360,268393,268393,268424,268425,268458,268494,268494,268494,268530,268530,268562,268565,268566,268594,268598,268635,268635,268727,268728,268771,268808,268808,268809,268809,268845,268846,268846,268846,268846,268847,268886,268886,268886,268887,268887,268922,268925,268925,268927,268927,268927,268961,268961,268962,268962,268962,268965,269002,269005,269006,269006,269006,269007,269007,269047,269048,269048,269048,269049,269049,269049,269085,269085,269085,269086,269086,269126,269127,269127,269164,269165,269165,269166,269166,269167,269212,269220,269221,269221,269221,269222,269265,269266,269266,269266,269267,269303,269303,269304,269333,269344,269381,269382,269382,269425,269425,269428,269429,269429,269430,269479,269480,269480,269480,269481,269481,269481,269528,269528,269529,269529,269529,269530,269530,269531,269533,269570,269571,269574,269574,269575,269575,269575,269576,269576,269605,269605,269607,269607,269608,269608,269655,269655,269657,269943,270080,270351,270409,270409" d="M117.3,50.15907C117.3,51.15907 117.3,52.07773 117.3,53.0124C117.3,53.6799 117.2935,54.39242 117.3,55.6174C117.3045,56.4636 117.59666,57.3575 118.172,57.9844C118.67838,58.53616 119.49038,59.15408 120.132,59.5444C120.86047,59.98755 121.8002,60.49206 122.55867,60.92973C122.98061,61.17321 123.9024,61.70391 124.404,61.9804C125.47095,62.56852 126.63181,63.16219 127.24233,63.4589C127.86379,63.76092 128.4959,64.05553 129.12933,64.3484C130.37645,64.92498 130.98212,65.19812 131.56134,65.47373C132.63669,65.98541 133.5629,66.46255 134.34534,66.9124C135.02629,67.3039 136.12691,68.00373 136.616,68.27373C137.51402,68.76947 138.46149,69.1732 139.25267,69.45457C139.79662,69.64801 140.60461,69.9467 141.83833,70.1019C142.6338,70.20197 143.56844,70.07146 144.46666,70.32573C145.17041,70.52494 145.97882,70.98066 146.98399,71.35773C147.52136,71.55932 148.33586,71.85936 149.37833,72.03757C150.2514,72.18681 151.29666,72.25781 151.96133,72.08707C152.88744,71.84917 153.562,71.31451 154.29466,70.80723C155.17119,70.20033 155.75571,69.64676 156.62151,69.05873C157.12317,68.71802 157.9348,68.22148 158.49983,67.61639C159.12862,66.94304 159.61765,66.14525 160.2785,65.30206C160.76118,64.68621 161.40227,64.06133 162,63.45906C162.70268,62.75105 163.3179,62.00278 163.7,61.32306C164.01498,60.76273 164.44128,59.7199 164.84166,59.1799C165.53529,58.24437 166.28993,57.88154 167.04933,57.60573C167.95082,57.27832 168.79562,57.21199 169.78534,56.87506C170.52505,56.62325 171.49475,56.23151 172.25833,56.1799C173.18356,56.11736 173.32816,57.04689 173.26801,57.9244C173.21649,58.67581 173.08333,59.54596 172.8,60.4924C172.48692,61.53822 172.24071,62.06098 171.992,62.5884C171.49226,63.64818 171.24545,64.17992 170.3,65.4924C170.01662,65.88581 169.42186,66.57249 168.7375,67.0549C168.06018,67.53235 166.8031,68.00271 166.33583,68.13757C165.34358,68.42393 164.81473,68.52979 163.74001,68.7484C163.20151,68.85793 161.63312,69.15803 161.1425,69.2589C160.20042,69.45258 159.28021,69.64419 158.81334,69.72307C157.84866,69.88606 156.80092,70.00657 155.644,70.07373C155.0289,70.10944 154.39211,70.12974 153.06799,70.1484C152.38655,70.158 151.696,70.15839 150.3,70.15907C149.60049,70.1594 148.90401,70.15907 148.2135,70.15907C146.8625,70.15907 146.20799,70.15907 145.5715,70.15907C143.8,70.15907 143.26483,70.15907 142.2805,70.15907C141.40416,70.15907 140.62778,70.16987 139.63333,70.15907C138.80518,70.15006 137.99432,70.1163 136.96666,69.4924C136.2867,69.07959 135.97437,68.73796 135.25833,68.0549C134.87245,67.68679 134.08858,66.87629 133.3,65.9924C132.49228,65.08705 132.10704,64.61768 131.71066,64.16573C130.9409,63.28807 130.60161,62.83538 129.46666,61.82573C129.13423,61.53 128.14468,60.88966 127.58266,60.49373C127.05967,60.12531 126.23827,59.12318 125.98267,58.49373C125.6168,57.59274 125.35951,56.6511 125.30133,55.82306C125.24498,55.02103 125.32029,54.08041 125.52866,53.39823C125.8671,52.29027 126.41092,51.61066 127.076,51.0164C127.42869,50.70126 128.27684,50.15202 128.76134,49.93106C130.32831,49.21644 130.95483,49.12056 131.576,48.9779C132.21628,48.83086 133.56709,48.60913 134.27066,48.52523C134.98849,48.43964 136.46638,48.32101 137.22166,48.28056C137.98642,48.23961 138.7616,48.21314 139.54666,48.19506C140.3416,48.17677 141.14665,48.16821 141.96167,48.16356C142.78667,48.15886 144.46666,48.15907 145.32066,48.15907C146.17867,48.15907 147.03467,48.15907 147.88266,48.15907C148.71666,48.15907 149.53067,48.15907 150.31866,48.15907C151.07466,48.15907 152.46666,48.15907 153.09233,48.15907C154.20967,48.15907 154.70934,48.15907 155.61067,48.15907C156.408,48.15907 157.812,48.15907 158.44267,48.15907C159.28117,48.15907 160.48117,48.15907 161.32533,48.15907L162.06166,48.15907L163.12534,48.15907L163.81599,48.15907" id="svg_37" stroke-width="20" stroke="#fff" fill="none"/>
  <path t="274914,275208,275252,275441,275760,275824,275873,275925,275945,275976,276048,276048,276159,276208,276208,276280,276280,276281,276383,276383,276410,276410,276433,276504,276530,276567,276568,276624,276650,276686,276743,276809,276810,276875,276876,276912,277064,277143,277143,277177,277177,277177,277242,277272,277273,277520,277521,277590,277591,277641,277693,277694,277952,277952,278057,278057,278090,278141,278296,278392,278392,278432,278461,278496,278528,278591,278784,279040,279040,279113,279142,279173,279174,279448,279512,279512,279575,279603,279641,279675,279675,279712,279791,279920,279920,279957,279957,279992,279992,280058,280090,280091,280135,280191,280224,280224,280306,280416,280417,280449,280539,280571,280608,280609,280642,280642" d="M117.3,47.15907C117.3,48.03773 117.28964,48.86362 117.3,49.75906C117.31042,50.65924 117.9326,51.2823 118.27917,52.15907C118.57384,52.90454 118.26382,53.92101 118.82083,54.65907C119.32304,55.32452 120.01466,55.87373 120.65717,56.51623C121.3,57.15907 121.936,57.79506 122.62117,58.48023C123.11467,58.97373 123.98819,59.47175 124.3,60.4924C124.50096,61.1502 124.56717,62.11224 124.94733,62.85456C125.3791,63.69763 126.05898,64.12628 126.7,64.59506C127.4787,65.16454 128.1075,65.81196 128.28934,66.75906C128.45905,67.64298 128.18964,68.67453 128.82083,69.15907C129.50223,69.68214 130.09908,70.04633 130.7,70.97373C131.0994,71.59013 131.87128,72.04064 132.8,72.15907C133.76093,72.28159 134.37604,72.65096 135.3,73.32573C135.91563,73.77532 136.23338,74.57384 137.19467,75.04473C137.93788,75.4088 138.709,75.15907 139.69733,75.15907C140.58566,75.15907 141.43668,75.50207 142.10133,75.87506C142.86726,76.30488 143.94817,76.15907 144.73067,76.15907C145.743,76.15907 146.52133,76.15907 147.49966,76.15907C148.25833,76.15907 149.31946,76.3419 150.10133,76.07373C150.88008,75.80663 151.5,74.95907 152.10001,74.35906C152.77916,73.6799 153.49001,73.15685 153.94733,72.45457C154.42218,71.72537 154.7168,70.74257 155.39983,70.28023C156.11441,69.79652 156.28793,69.00971 156.3,68.05373C156.30956,67.29771 156.37871,66.26822 156.87466,65.60573C157.48552,64.78975 157.8492,63.98066 158.384,63.4444C158.98523,62.84153 160.29025,63.52459 161.05716,62.93756C161.75565,62.4029 161.8844,61.5636 162.3,60.65907C162.66579,59.86297 163.37761,59.221 163.77916,58.63823C164.28677,57.90152 164.19009,56.93622 164.584,56.0444C164.91087,55.30437 165.27242,54.50505 165.584,53.6764C165.89565,52.84758 166.29933,51.99107 166.3,51.1174C166.30074,50.15907 166.3,49.3804 166.3,48.40173C166.3,47.58973 166.3,46.80723 166.3,45.79506C166.3,44.86356 166.3,43.99207 166.3,43.09657L166.3,42.39906L166.3,41.3019L166.3,40.5444" id="svg_38" stroke-width="3" stroke="#000" fill="none"/>
  <path t="284260,285032,285107,285255,285256,285538,285617,285768" d="M153.3,49.15907C153.34166,50.13823 154.16133,50.15907 155.13333,50.15907C155.9955,50.15907 156.89999,50.15907 157.77916,50.1174L158.24283,49.45373" id="svg_39" stroke-width="3" stroke="#000" fill="none"/>
  <path t="286969,287255,287256,287308,287308,287334,287334,287415,287415,287584,287584,287857,287930,287958" d="M133.3,49.15907C134.3,49.15907 135.05716,49.15907 135.95717,49.15907C136.90134,49.15907 137.90546,49.10905 138.7,49.21623C139.50917,49.32539 140.24411,49.76928 141.2785,50.03756C142.08087,50.24566 143,50.15907 143.864,50.08706L144.24266,49.3084" id="svg_40" stroke-width="3" stroke="#000" fill="none"/>
  <path t="297474,297928,298096,298097,298208,298344,298456,298482,298539,298568,298569,298592,298773,299032,299059,299061" d="M141.3,66.15907C141.46666,66.9924 142.33826,66.98551 143.10001,67.2444C143.9879,67.54617 144.69946,68.14106 145.60001,68.15907C146.49982,68.17706 147.39999,68.15907 148.3,68.15907C149.10001,68.15907 150,68.1019 150.77916,67.63823L151.24283,66.85456L151.3,65.9924L151.3,65.1799" id="svg_42" stroke-width="3" stroke="#000" fill="none"/>
  <path t="301033,301358,301359,301434,301434,301435,301463,301463,301463,301463,301503,301505,301558,301558,301601,301712,301745,301777,301817,301817,301881,301961,302000,302345" d="M157.3,66.15907C158.3,66.15907 159.08798,66.2274 159.78799,66.72973C160.39157,67.16286 161.05446,67.78815 161.9425,68.35889C162.58864,68.77416 163.28285,69.13164 163.9375,69.5019C165.04184,70.1265 165.72112,70.65601 166.5,71.35773C167.08795,71.88744 167.95894,72.20189 168.35266,72.86356C168.81935,73.64787 169.06512,74.55074 169.58533,75.35773C169.9807,75.97108 171.01466,76.24306 171.29866,76.9604L171.38533,77.87373L172.1785,78.38056" id="svg_43" stroke-width="3" stroke="#000" fill="none"/>
  <path t="303810,303984,304018,304046,304046,304096,304157,304157,304157,304241,304329,304416,304416,304440,304568,304594" d="M152.3,76.15907C152.3,76.9604 152.3,77.79507 152.3,78.80723C152.3,79.58973 152.3,80.52523 152.3,81.4924C152.3,82.1599 152.3063,83.09658 152.3,84.13823C152.29466,85.02045 152.13333,85.9924 151.77916,86.6174L151,87.1064L150.10133,87.44306L149.46666,87.9924" id="svg_44" stroke-width="3" stroke="#000" fill="none"/>
  <path t="309861,309959,310024,310025,310045,310045,310045,310089,310122,310122,310122,310145,310145,310177,310223,310223,310272,310449,310506,310506,310569,310657,310657,310689,310746,310808,310905,310968,311033,311089,311140,311141,311209,311242,311266,311306,311424,311481,311509,311592,311592,311729,311858,311858,311907,311984,312012,312075,312075,312113,312113,312173,312226,312226,312306,312370,312390,312433,312745,312776" d="M115.3,21.15907C115.3,21.92073 115.3,22.82073 115.3,23.62073C115.3,24.58023 115.3,25.37373 115.3,26.38973C115.3,27.34923 115.3537,28.32961 115.27866,28.99506C115.19129,29.76992 114.61431,30.76693 114.15067,31.28706C113.44334,32.08056 113.3,32.8689 113.3,33.6764C113.3,34.63823 113.3,35.56973 113.3,36.4804C113.3,37.33373 113.3,38.27373 113.3,39.15907C113.3,39.95906 113.3,40.85907 113.3,41.75906C113.3,42.65907 113.3,43.55906 113.3,44.45906C113.3,45.35907 113.3,46.25906 113.3,47.15907C113.3,47.95906 113.3,48.85907 113.3,49.75906C113.3,50.65907 113.3,51.55906 113.3,52.45906C113.3,53.35907 113.3,54.25906 113.3,55.15907C113.3,55.95906 113.25642,56.91751 113.3045,57.80723C113.34695,58.59275 114.06432,59.11753 114.77917,59.65907C115.47846,60.18881 116.00983,60.8689 116.65183,61.5109C117.2785,62.13757 117.84592,62.79495 118.6,63.45456C119.26443,64.03577 120.27983,63.69291 121.01466,64.2444C121.63073,64.70676 121.3,65.85906 121.336,66.75906L121.72533,67.5484L122.23833,68.2689" id="svg_45" stroke-width="3" stroke="#000" fill="none"/>
  <path t="315265,315474,315563,315563,315565,315683,315683,315683,315683,315749,315750,315750,315750,315750,315817,315817,315817,315817,315893,315893,315893,315893,315966,315966,315966,315966,315966,316035,316035,316035" d="M94.3,168.15906C95.2955,168.97791 95.31641,169.9317 95.27917,170.72156C95.23547,171.64828 95.08907,172.68259 94.94283,173.41623C94.79016,174.18217 94.59709,174.96396 94.3,176.15906C94.10107,176.95932 93.9,177.75906 93.7,178.55907C93.5,179.35907 93.19582,180.55785 93.0045,181.35457C92.81656,182.13722 92.62956,182.89745 92.46667,183.9924C92.36546,184.67273 92.30566,185.66322 92.19017,186.31174C92.00813,187.33398 91.73755,188.0452 91.44933,188.78439C91.15629,189.53595 90.868,190.27507 90.46933,191.67239L90.36134,192.31239L90.25183,193.1974" id="svg_46" stroke-width="3" stroke="#000" fill="none"/>
  <path t="317688,318231,318289,318310,318310,318330,318330,318356,318408,318408,318455,318474,318474,318503,318539,318539,318560,318588,318588,318617,318672,318672,318722,318722" d="M120.3,174.15906C120.3,175.9924 120.29422,176.84868 119.732,177.64307C119.34324,178.19237 118.64745,178.99905 118.28533,179.7484C117.88993,180.56662 117.34779,181.35683 117.30133,182.0444C117.23795,182.98233 117.11345,183.98201 116.72533,184.7484C116.31468,185.55928 116.44564,186.49985 116.264,187.29773C116.08259,188.09459 115.07238,188.41393 114.5,188.9604C113.78437,189.64365 113.4215,190.48056 113.32083,191.1799L113.3,192.15906L113.3,193.13823" id="svg_47" stroke-width="3" stroke="#000" fill="none"/>
  <path t="319977,320156,320229,320391,320413,320413,320434,320434,320457,320481,320481,320505,320505,320505,320527,320556,320556,320557,320584,320609,320632,320632,320689,320689,320739,320761,320761,320856,320856,320925,320925,320925,321121,321121,321121,321136" d="M130.3,176.15906C132,175.16356 132.97278,175.10397 133.65717,175.51173C134.43922,175.97768 135.21927,176.16397 136.11467,176.59506C136.75996,176.90575 137.26709,177.81172 137.58533,178.64439C137.86914,179.38696 138.41016,180.35394 138.68933,180.94839C139.02727,181.66795 139.23587,182.70857 139.74266,183.48039C140.22467,184.21448 140.95699,184.58281 141.25833,185.63823C141.51448,186.53535 141.52826,187.47758 141.8,188.15906C142.18863,189.13365 142.37538,189.84265 142.8,190.6799C143.20058,191.46974 143.22476,192.41409 143.74266,193.13789C144.19505,193.77014 145.02141,194.47672 145.19017,195.1689C145.37621,195.93198 145.46666,196.9924 145.73599,197.90173L146.10133,198.58707L146.89999,199.17374" id="svg_48" stroke-width="3" stroke="#000" fill="none"/>
  <path t="321857,322071,322135,322136,322136,322164,322164,322164,322164,322165,322166,322166,322166,322166,322191,322191,322191,322191,322192,322192,322192,322192,322221,322221,322221,322222,322222,322246,322246,322246,322246,322269,322269,322271,322291,322291,322338,322339,322400" d="M152.3,170.15906C152.8,172.63823 153.19434,173.38504 153.54134,174.08307C153.86861,174.74141 154.4637,175.66098 154.84967,176.25157C155.28732,176.92126 155.77707,177.64696 156.29866,178.41907C156.84105,179.22197 157.39603,180.03815 157.94566,180.85657C158.48399,181.65816 159.47046,183.15666 159.89267,183.83006C160.27815,184.4449 160.62054,185.01497 160.93066,185.54306C161.2184,186.03304 161.47151,186.50163 161.97867,187.35106C162.70546,188.56834 162.97362,188.96368 163.52533,189.73773C164.06461,190.49432 164.60274,191.19946 165.37849,192.11623C165.83513,192.65585 166.50005,193.36458 166.89867,193.84174C167.71982,194.82469 168.12094,195.35977 168.58566,196.20639C169.00598,196.97209 169.23866,197.90173 169.46666,198.82573L170.10133,199.24173L170.864,199.73373" id="svg_49" stroke-width="3" stroke="#000" fill="none"/>
  <path t="324032,324272,324383,324383,324384,324414,324414,324414,324414,324435,324435,324435,324435,324458,324521,324546,324569,324569,324596,324622,324647,324672,324672,324697,324757,324777,324777,324801,324825,324825,324914,324914,325084,325084,325084,325085,325085,325240,325240,325241,325241,325241,325241,325241,325241,325241,325324,325324,325325,325325,325325,325325,325325,325411,325412,325412,325498,325499,325499,325591,325591,325591,325686,325686,325686,325687,325777,325777,325777,325778,325870,325871,325871,325942,325942,325943,325943,326133,326133,326133,326229,326229,326229,326230,326230,326464,326464,326559,326560,326645,326646,326733,326823,326823,326823,326913,326914,327010,327010,327111,327112,327112,327112,327112,327155,327156,327156,327157,327157,327157,327158,327158,327189,327189,327189,327190,327239,327240,327240,327240,327289,327289,327322,327322,327322,327349,327377,327408,327441,327442,327442,327472,327500,327529,327530,327530,327563,327564,327594,327625,327625,327659,327659,327677,327677,327719,327721,327745,327777,327778,327808,327832,327868,327896,327897,327897,327927,327959,328002,328003,328003,328004,328031,328031,328113,328114,328171,328172,328208,328209,328275,328275,328306,328307,328335,328336,328337,328361,328362,328433,328539,328539,328539,328569,328570,328617,328670,328670,328792,328936" d="M313.29999,104.15907C312.3045,103.34023 312.29999,102.38706 312.29999,101.59657C312.29999,100.67107 312.29999,99.63757 312.29999,98.9019C312.29999,98.13823 312.29898,97.35456 312.29999,96.15907C312.30066,95.3644 312.22998,94.5948 312.35718,93.58773C312.49652,92.48444 313.23911,91.94383 313.29999,91.05907C313.36179,90.16119 313.29999,89.35906 313.29999,88.45906C313.29999,87.55907 313.29999,86.63823 313.29999,85.6764C313.29999,85.0204 313.29999,83.99107 313.29999,83.1174C313.29999,82.15907 313.29999,81.3804 313.29999,80.40173C313.29999,79.58839 313.28085,78.74985 313.30133,77.7564C313.31924,76.88656 313.45105,75.82255 313.58932,75.18307C313.74994,74.44026 314.00824,73.59013 314.17599,73.1214C314.76376,71.47898 315.05957,70.87134 315.35599,70.22173C315.66635,69.54153 316.00308,68.84457 316.36249,68.13823C316.72702,67.42184 317.10461,66.70755 317.504,66.00973C318.28278,64.64906 318.69403,64.02061 319.09601,63.4204C319.48132,62.84505 320.23303,61.8015 320.59201,61.33506C321.23605,60.49823 322.02417,59.53472 322.60266,58.8924C323.03522,58.41214 323.80493,57.69116 324.29999,57.1174C324.8396,56.49199 325.41275,55.47277 325.68533,54.93373C326.10284,54.10815 326.60278,53.29549 327.30984,52.61173C327.80057,52.13718 328.39963,51.75467 329.37851,50.73773C329.86786,50.22935 330.2717,49.65333 330.89868,48.84306C331.4931,48.07489 332.10547,47.37944 332.53601,46.93373C333.45569,45.98167 333.98267,45.47641 334.51468,44.9444C335.03867,44.4204 335.95905,43.48459 336.49918,42.9644C336.97998,42.50135 337.7998,41.82549 338.35199,41.38973C338.9758,40.89746 339.64542,40.39788 340.24799,39.84173C341.28238,38.88704 341.57202,38.05645 342.29999,37.4924C342.95111,36.98788 343.95285,37.14118 344.81601,37.15907C345.82147,37.1799 346.64792,37.46766 347.30084,37.8689C348.03064,38.31738 348.98566,38.90247 349.23749,39.65907C349.55011,40.5983 349.29697,41.44636 349.13333,42.4924C349.03226,43.13856 348.8548,43.87703 348.61734,44.7244C348.34198,45.70709 347.96915,46.82657 347.75732,47.44407C347.53461,48.0933 347.29727,48.76167 347.04935,49.43906C346.55579,50.78762 346.30774,51.43499 346.06799,52.0524C345.63763,53.16074 345.26871,54.04892 344.97198,54.7644C344.6066,55.6454 344.1973,56.80075 344,57.4599C343.79721,58.1374 343.57031,59.13681 343.10001,60.10573C342.75049,60.82583 342.20001,61.70156 341.89999,62.39906C341.60001,63.09656 340.90894,63.78888 340.216,64.2444C339.55054,64.68185 339.20001,65.70155 338.89999,66.39906C338.60001,67.09656 337.71756,67.78509 337.336,68.61639C336.97025,69.41322 337.40845,70.42908 337.18567,71.09657C336.89236,71.97542 335.62549,72.08051 335.32132,72.80573C334.9321,73.73373 335.34641,74.54762 334.94284,75.4109C334.58548,76.17535 334.07507,76.91754 333.82083,77.65907C333.42538,78.81239 333.43488,79.62863 333.2955,80.45906C333.13947,81.38885 332.42081,81.8913 331.82083,82.65907C331.3139,83.30775 331.22565,84.25486 330.73199,85.0124C330.29791,85.67855 329.72955,86.33781 329.41434,87.34023C329.16339,88.13828 328.85992,89.04595 328.59018,89.57423C328.11942,90.49619 327.82407,91.13444 327.18533,92.1044C326.73883,92.78246 326.146,93.45309 325.73599,94.33373C325.37161,95.11635 325.17865,96.01785 324.43866,96.55907C323.81848,97.01265 322.89429,97.53465 322.50134,98.0444C321.8111,98.93986 321.57819,99.58987 320.97867,100.35889C320.5018,100.97056 319.81097,101.70189 319.05716,102.3974C318.51981,102.89319 317.5368,103.08649 316.85699,103.60173C316.20514,104.09579 315.75372,104.74277 314.70901,105.04473C313.89651,105.27958 312.94284,105.51173 312.20001,106.03757L311.5,106.15773L310.60001,106.15907L309.65717,106.15907" id="svg_50" stroke-width="3" stroke="#000" fill="none"/>
 </g>
</svg>