<svg width="499.99999999999994" height="339.94334277620396" xmlns="http://www.w3.org/2000/svg" xmlns:svg="http://www.w3.org/2000/svg" xmlns:xlink="http://www.w3.org/1999/xlink">
 <!-- Created with SVG-edit - http://svg-edit.googlecode.com/ -->
 <g display="inline" class="layer">
  <title>Layer 1</title>
  <path t="0,435,459,473,525,525,541,541,670,670,851,1001,1058,1091,1236,1275,1354,1354,1369,1471,1487,1522,1554,1592,1592,1651,1683,1683,1699,1699,1784,1784,1799,1815,1875,1924,1971,1987,1995,2011,2027,2041,2171,2186,2203,2211,2211,2223,2243,2385,2419,2475,2491,2491,2507,2507,2523,2523,2540,2557,2573,2611,2635,2651,2651,2692,2724,2740,2757,2773,2790,2811,2840,2867,2883,2915,3053,3053,3217,3353,3486,3588,3656,3771,3771,3922,4022,4059,4107,4159,4159,4175,4241,4272,4298,4672,4688,4741,4741,4891,4922,4947,4971,4990,5007,5007,5023,5023,5040,5040,5139,5139,5253,5341,5372,5472,5472,5509,5509,5554,5555,5594,5642,5642,5755,5808,5875,5875,6159,6209,6209,6417,6474,6508,6524,6541,6558,6558,6595,6619,6619,6635,6659,6675,6715,6724,6755,6755,6796,6843,6844,6858,6883,6883,6926,7085,7085,7139,7163,7174,7382,7457,7457,7510,7541,7557,7573,7590,7590,7607,7607,7627,7675,7675,7760,7795,7818,7840,7840,7857,7873,7873,7890,7907,7907,7923,7923,7923,7962,7973,8072,8088,8114,8146,8147,8147,8163,8163,8173,8173,8190,8207,8207,8207,8223,8223,8223,8223,8240,8240,8257,8257,8257,8273,8273,8290,8291,8314,8315,8346,8392,8408,8427,8441,8457,8457,8474,8474,8491,8507,8507,8507,8559,8559,8610,8610,8692,8708,8708,8723,8723,8740,8756,8756,8756,8773,8773,8773,8774,8790,8790,8790,8790,9000,9000,9074,9074,9125,9125,9187,9258,9273,9273,9273,9387,9418,9419,9450,9451,9466,9490,9506,9506,9523,9540,9540,9578,9705,9758,9802,9842,9842,9883,9898,9958,9974,10006,10089,10126,10141,10141,10203,10258,10274,10299,10342,10358,10379,10395,10474,10474,10524,10555,10555,10595,10607,10624,10651,10683,10683,10724,10724,10791,10791,10843,10908,10924,10963,10987,11027,11040,11056,11091,11158,11158,11190,11206,11206,11235,11235,11355,11393,11408,11408,11427,11427,11459,11508,11555,11603,11603,11674,11705,11705,11723,11740,11792,11840,11840,11925,11957,11979,12089,12089,12089,12203,12242,14563,14563,14795,14835,14955,14955,15117,17829,17845,19641,19657,19683,19707,19758,19924,19924,19991,20006,20006,20152,20152,20167,20240,20240,20283,20283,20450,20492,21191,21191,21191" d="M50.5,115.47167C52.2,115.41451 53.0513,114.98986 53.44733,114.17167C53.8664,113.30592 54.24116,112.74003 55.15267,112.17167C55.83287,111.74754 56.54198,111.15892 57.29867,110.757C58.04678,110.35964 59,110.47167 59.9,110.47167C60.8,110.47167 61.7,110.47167 62.6,110.47167C63.5,110.47167 64.3,110.47167 65.2,110.47167C66.1,110.47167 67.03339,110.42521 67.9,110.897C68.63246,111.29576 69.46851,111.689 70.1,112.04634C70.98278,112.54588 71.81595,112.70631 72.67467,113.04634C73.47385,113.36279 74.26529,113.48885 75.15266,113.82434C75.85848,114.09119 76.90451,114.20145 77.7955,114.47617C78.55901,114.71159 78.87582,115.60291 79.55267,116.119C80.2103,116.62045 81.2,116.47167 82.1,116.47167C83,116.47167 83.9,116.47167 84.8,116.47167C85.7,116.47167 86.6,116.47167 87.5,116.47167C88.3,116.47167 89.2,116.47167 90.1,116.47167C91,116.47167 91.9,116.47167 92.8,116.47167C93.70133,116.47167 94.38533,116.47167 95.336,116.47167C96.10133,116.47167 97.0955,116.47167 98.01466,116.47167C98.97916,116.47167 99.9,116.47167 100.8,116.47167C101.7,116.47167 102.6,116.47167 103.5,116.47167C104.3,116.47167 105.2,116.47167 106.1,116.47167C107,116.47167 107.9,116.47167 108.8,116.47167C109.7,116.47167 110.72491,116.72794 111.37867,116.25034C112.07774,115.73962 112.70377,115.55379 113.6,115.4715C114.51144,115.38783 115.1526,114.6715 116,114.49251C116.88081,114.30646 117.8,114.47167 118.7,114.47167C119.6,114.47167 120.5,114.47167 121.3,114.47167C122.2,114.47167 123.10001,114.46634 124,114.47167C124.90005,114.47701 125.72363,114.73074 126.3,115.273C127.00967,115.94067 127.38269,116.81762 127.92533,117.44633C128.44334,118.04652 128.73018,118.98262 129.60001,119.35017C130.43654,119.70366 131.3,119.47167 132.2,119.47167C133.10001,119.47167 134,119.47167 134.89999,119.47167C135.8,119.47167 136.70267,119.47167 137.47067,119.47167C138.50534,119.47167 139.24933,119.47167 140.16667,119.47167C141.11467,119.47167 141.98399,119.47167 142.84734,119.47167C143.74283,119.47167 144.7,119.47167 145.60001,119.47167C146.5,119.47167 147.28041,119.46677 148.15266,119.82883C148.86998,120.12659 149.7484,120.76554 150.29866,121.27167C151.02831,121.94279 151.85184,122.23109 152.63867,122.497C153.49059,122.7849 153.85063,123.62978 154.33333,124.47167C154.72614,125.15676 155.52066,125.46125 156.4785,125.47167C157.29861,125.48059 158.2,125.47167 159.10001,125.47167C160,125.47167 160.89999,125.47167 161.8,125.47167C162.70134,125.47167 163.38533,125.47167 164.32533,125.47167C165.33333,125.47167 166.1955,125.47167 167.10001,125.47167C168,125.47167 168.89999,125.47234 169.8,125.47167C170.7,125.471 171.5354,125.34818 172.2,124.76717C172.83644,124.21078 173.42712,123.38235 174.10001,122.90767C174.83481,122.38931 175.71954,122.20824 176.3,121.67034C177.02542,120.99811 177.62138,120.1641 178.3,119.757C179.03595,119.31552 179.81033,118.85355 180.7,118.55701C181.55765,118.27113 182.5,118.47167 183.3,118.47167C184.2,118.47167 185.10001,118.47167 186,118.47167C186.91066,118.47167 187.82133,118.47167 188.67467,118.47167C189.616,118.47167 190.384,118.47167 191.32533,118.47167C192.33333,118.47167 193.08936,118.46628 194,118.47167C194.90004,118.47701 195.60719,118.92463 196.5,119.30501C197.25154,119.6252 198.15147,119.45983 198.98399,119.75567C199.86661,120.06931 200.746,120.44308 201.66667,120.47167C202.33568,120.49245 203.5,120.47167 204.28934,120.47167C205.01466,120.47167 205.95981,120.59786 206.55267,121.119C207.12918,121.62577 207.94908,122.07903 208.8045,122.41901C209.63124,122.74757 210.50815,123.00941 211.10133,123.18767C212.08308,123.48269 212.92651,123.43092 213.89734,123.757C214.65553,124.01167 215.27832,124.89705 216,125.47167C216.50494,125.87373 217.33051,126.07607 218.5,126.47167C219.0979,126.67392 219.98466,126.95677 220.81467,127.27167C221.82166,127.65372 222.47972,127.97056 223.5,128.47166C224.10033,128.76651 224.88428,129.18045 225.89999,129.38766C226.69113,129.54907 227.70396,129.68143 228.28934,129.897C229.34117,130.28435 229.98669,130.65677 230.584,131.18767C231.1866,131.72327 232.08197,132.08464 232.89999,132.44633C233.68446,132.79318 234.48755,133.38177 235.25717,133.46718C236.14725,133.56595 237.06216,133.46036 237.87466,133.90767C238.72641,134.37659 239.33244,134.87856 240.10133,135.27167C240.89505,135.67747 241.6284,136.15413 242.616,136.38634C243.36807,136.56317 244.36757,136.31015 245.33333,136.63834C246.03075,136.87534 246.623,137.77654 247.3,138.18634C248.10275,138.67227 249.04051,138.91881 249.772,139.32234C250.31949,139.62436 251.49356,140.16377 252.10001,140.30367C252.99211,140.50945 253.62807,140.4897 254.79984,140.91451C255.41351,141.13698 256.26328,141.65823 256.81467,141.989C257.81198,142.58725 258.62958,143.09566 259.616,143.38766C260.36981,143.61082 261.24875,143.68599 261.93066,144.27301C262.60382,144.85249 262.80743,145.8394 263.66666,146.47166C264.28003,146.923 264.89297,147.30237 265.55066,148.07167C266.17548,148.80251 266.88864,149.1196 267.61465,149.67168C268.33893,150.22241 268.9953,150.81123 269.41599,151.67168C269.83337,152.52538 270.38092,152.86421 271.064,153.533C271.70654,154.16212 271.54279,155.00789 272,155.95084C272.40692,156.79005 272.5,157.67168 272.5,158.57167C272.5,159.47166 272.5,160.27167 272.5,161.17168C272.5,162.07167 272.5,162.97166 272.5,163.87167C272.5,164.77167 272.5,165.67168 272.5,166.57167C272.5,167.47166 272.5,168.27167 272.5,169.17168C272.5,170.07167 272.5,170.97166 272.5,171.87167C272.5,172.77167 272.66208,173.77171 272.14734,174.41901C271.655,175.03812 271.23654,175.69122 270.69867,176.27167C270.02643,176.99709 269.19244,177.59306 268.78534,178.27167C268.34384,179.00761 268.08243,179.88873 267.30133,180.38766C266.569,180.85544 266.198,181.66083 265.7955,182.22884C265.17374,183.10629 264.8765,183.87479 264.29999,184.58501C263.76523,185.2438 262.87204,185.53329 262.41599,186.27301C261.9928,186.95943 261.10266,187.43719 260.5,187.97166C259.91748,188.48828 259.62,189.31163 258.97916,189.95084C258.3356,190.59276 257.45837,190.78822 256.70001,191.18767C255.91132,191.60309 254.99548,191.71658 254.32533,192.08234C253.3521,192.61351 252.79189,193.08595 251.89999,193.49701C251.08769,193.87138 250.38782,194.30893 249.61467,194.55566C248.66795,194.8578 248.21698,195.4046 247.45183,196.1145C246.8846,196.64078 245.99486,196.98724 245.3,197.67168C244.79625,198.16789 244.11717,198.88928 243.39999,199.5715C242.81367,200.12924 241.94044,200.40836 241.47467,201.08234C240.96881,201.81433 240.47569,202.6692 239.8,203.1145C239.0843,203.58617 238.61816,204.17773 238.05333,204.87167C237.46169,205.59856 236.69826,205.9167 235.98399,206.18634C234.93861,206.58099 234.08228,206.88939 233.5,207.47166C232.91772,208.05394 232.40091,209.04271 232.85716,209.77167C233.36139,210.57727 234.15251,210.94757 234.88933,211.44633C235.5564,211.89789 236.11063,212.46632 237,212.47166C237.89998,212.47707 238.82217,212.27461 239.69867,212.47301C240.50714,212.65601 240.76349,213.69118 241.30133,214.27167C241.87738,214.89342 242.6376,215.53908 243.10001,216.10767C243.75494,216.91299 244.1893,217.60869 244.41467,218.58633C244.61447,219.45303 244.5,220.22884 244.5,221.12434C244.5,221.98767 244.464,223.02501 243.88933,223.49701L243.08934,223.897L242.17867,224.35017L241.5,224.45084" id="svg_1" stroke-width="3" stroke="#000" fill="none"/>
  <path t="22275,22459,22473,22489,22506,22573,22589,22642,22642,22657,22675,22699,22731,22755,22755,22787,22787,22856,22856,22889,22889,22931,22947,22963,23003,23003,23035,23200,23257,23291,23291,23341,23379,23390,23411,23435,23491,23507,23523,23555,23555,23587,23606,23627,23643,23667,23683,23691,23723,23791,23791,23920,24317,24421,24436,24522,24590,24590,24674,24707,24739,24779,24789,24806,24823,24867,24867,24883,24907,24931,24975,25087,25123,25140,25192" d="M183.5,232.47166C183.5,230.77167 183.50323,229.68149 184.30133,229.47301C185.17265,229.24539 185.9631,228.89812 186.8,228.52434C187.57202,228.17953 187.97144,227.52492 188.55267,226.82884C189.04617,226.23782 189.96852,225.91002 190.8,225.52434C191.67326,225.11928 192.23846,224.73804 193.15266,224.17168C193.83411,223.74951 194.56001,223.17935 195.25267,222.82884C196.09662,222.40178 197.00771,222.45581 197.54817,221.76717C198.10843,221.0533 198.87285,220.67628 199.7,220.18634C200.38089,219.78302 200.79701,218.87418 201.7,218.55701C202.55295,218.2574 203.5,218.47166 204.3,218.47166C205.2,218.47166 206.20258,218.07347 207.064,218.50768C207.76288,218.85995 208.33583,219.27539 209.2,219.52884C210.07742,219.78616 210.7856,220.2032 211.59984,220.69318C212.32396,221.12892 212.48651,222.28348 213.2045,222.46718C214.07207,222.68915 215.03474,222.41878 215.8,222.82434C216.64589,223.27264 217.67998,223.09488 218.33333,223.63834C219.02335,224.2123 219.15558,225.26947 220,225.45084C220.88016,225.63988 221.8,225.47166 222.7,225.47166C223.60001,225.47166 224.5,225.47166 225.3,225.47166C226.2,225.47166 227.10001,225.47166 228,225.47166C228.89999,225.47166 229.8,225.47166 230.7,225.47166C231.60001,225.47166 232.5,225.47166 233.3,225.47166C234.2,225.47166 235.10001,225.47166 236,225.47166C236.89999,225.47166 237.8,225.47166 238.69867,225.47034L239.44733,225.119L239.936,224.49701" id="svg_2" stroke-width="3" stroke="#000" fill="none"/>
  <polyline timestamps="33413,34085,34085" startTime="1502532810664" id="svg_5" points="241.5,224.47167110443115 240.5,224.47167110443115 239.7,224.47167110443115 " stroke-linecap="round" stroke-width="3" stroke="#000" fill="none"/>
  <path t="39584,39789,39789,39805,39827,39839,39839,39859,39872,39923,40004,40004,40023,40023,40068,40108,40266,40370,40386,40386,40471,40507,40539,40587,40611,40627,40651,40659,40659,40672,40691,40866,40923,40940,41008,41008,41152,41223,41352,41518,41534,41590,41657,41722,41775,41790,41819,41888,41923,41972,42019,42043,42067,42248,42248,42263,42322,42322,42375,42422,42474,42602,42671,42687,42715,42748,42780,42820,42827,42875,42923,43054,43054,43106,43220,43304,43304,43355,43423" d="M77.5,185.47166C78.5,184.47166 79.33103,184.28767 80.2,184.52884C80.97122,184.74287 81.85043,185.23529 82.63866,185.49701C83.48753,185.77885 84.02795,186.36571 84.91067,186.48233C85.83733,186.60477 86.47729,187.03661 87.4785,187.35034C88.18256,187.57095 89.02615,187.92805 89.7955,188.41901C90.50082,188.86909 91.00051,189.69048 91.33334,190.47166C91.65353,191.22321 91.5,192.17168 91.5,193.07167C91.5,193.97166 91.5,194.87167 91.5,195.77167C91.5,196.67168 91.5478,197.57294 91.5,198.47166C91.45728,199.27507 90.83347,199.94382 90.11066,200.44633C89.43798,200.914 88.9568,201.67497 88.6215,202.57167C88.30342,203.4223 88.5,204.27167 88.5,205.17168C88.5,206.07167 88.5,206.97166 88.5,207.87167C88.5,208.77167 88.3141,209.77638 88.784,210.38766C89.30701,211.06804 90.10249,211.1032 90.97916,211.49251C91.69006,211.8082 92.2045,212.52434 93,212.97166C93.7955,213.41901 94.24756,214.0995 95.02084,214.45084C95.83119,214.81902 96.82133,214.47105 97.67467,214.47166C98.61467,214.47234 99.61011,214.52626 100.064,215.08234C100.67851,215.83517 101.11062,216.46632 102,216.47166C102.89999,216.47707 103.8,216.47174 104.7,216.47166C105.59983,216.47159 106.32713,216.11974 106.85267,215.52434C107.41593,214.8862 108.23116,214.6203 108.88934,214.03568C109.58311,213.41943 109.53628,212.33478 110.2045,211.82884C110.89972,211.30246 111.8,211.1145 112.5,210.47166L113.1,209.90767L113.9,209.50768L114.8,209.46718" id="svg_6" stroke-width="3" stroke="#000" fill="none"/>
  <path t="46873,47011,47011,47073,47088,47171,47203,47240,47337,47375,47470,47470,47486,47670,47818,47818,47858,47907,47923,47947,48135,48167,48203,48224,48267,48887" d="M100.5,201.47166C101.5,201.47166 102.3,201.47166 103.2,201.47166C104.1,201.47166 105.064,201.47166 105.936,201.47166C106.8,201.47166 107.7,201.47166 108.6,201.47166C109.5,201.47166 110.43039,201.07867 111.21467,201.55701C112.01839,202.0472 112.66241,202.48936 113.14283,203.17618C113.66663,203.92503 112.79041,204.5154 112,204.97166C111.29537,205.37842 110.03039,205.23428 109.90984,205.82884C109.7147,206.79126 110.78533,207.38634 111.7,207.47166L112.59967,207.47166" id="svg_7" stroke-width="3" stroke="#000" fill="none"/>
  <path t="52257,52487,52554,52621,52654,52672,52715,52716,52747,52772,52839,52968,52968,52985,53103,53141,53179,53348,53348,53406,53406,53451" d="M100.5,200.47166C101.2045,199.76717 102.06805,199.16722 102.3785,198.37167C102.70865,197.52563 102.72954,196.76538 103.5,196.30501C104.21949,195.87509 104.43479,194.93962 104.85267,194.17168C105.31026,193.33076 105.5,192.47166 105.5,191.67168C105.5,190.77167 105.5,189.87167 105.5,188.97166C105.5,188.061 105.49983,187.15034 105.47916,186.47166L105.2785,185.49316L104.7955,184.77617L104.11066,184.07167" id="svg_8" stroke-width="3" stroke="#000" fill="none"/>
  <path t="57278,57499,57499,57516,57516,57564,57608,57672,57739,57790,57827,57828,57889,57931,57955,58027,58059,58107,58131,58173,58173,58235,58291,58356,58999,59446,59850,59883,59923,59971,60011,60038,60106,60265,60265,60281,60354,60404,60457,60615,60615,60781,60781,60871,60970,61653,61722,61820,61835,61889,61971,61995,62022,62022,62105,62139,62163,62223,62223,62238,62290,62371,62439,62584,62717,62959,62959" d="M114.5,202.47166C115.5,202.47166 116.25716,202.47166 117.15266,202.47166C118.016,202.47166 118.97916,202.47166 119.9,202.47166C120.8,202.47166 121.7,202.47166 122.6,202.47166C123.5,202.47166 124.3,202.47166 125.2,202.47166C126.1,202.47166 127,202.47166 127.9,202.47166C128.8,202.47166 129.7,202.47166 130.60001,202.47166C131.5,202.47166 132.3,202.47166 133.2,202.47166C134.10001,202.47166 135,202.47166 135.89999,202.47166C136.8,202.47166 137.97964,202.1463 138.44284,202.82884C138.91721,203.52785 138.7225,204.68758 138.216,205.38766C137.71422,206.08122 137.63655,206.82831 137.216,207.67168C136.88608,208.33331 136.50226,209.17166 136.5,210.07167C136.49776,210.97166 136.56245,211.9024 136.27867,212.793C136.05592,213.49202 135.565,214.44321 135.5045,215.16718C135.42918,216.06854 135.19524,217.02942 135.51067,217.86101C135.78725,218.59016 137,218.47166 137.89999,218.47166C138.8,218.47166 139.7,218.47166 140.60001,218.47166C141.5,218.47166 142.2,218.52884 143,218.97166C143.8,219.41451 144.75729,219.30797 145.60001,219.69301C146.2693,219.99881 147.09996,220.46632 148,220.47166C148.89998,220.47699 149.8,220.47166 150.7,220.47166L151.60001,220.47166L152.5,220.47166L153.3,220.47166" id="svg_9" stroke-width="3" stroke="#000" fill="none"/>
  <path t="64547,64739,64755,64787,64805,64822,64843,64891,64906,64906,64922,64955,64971,64988,65021,65043,65043,65054,65075,65100,65115,65187,65255,65307,65322,65404,65404,65443,65459,65678,65739,65787,65787,65811,65827,65851,66464,66506,66506,66816,66887,67073,67088,67218,67397,67397,67454,67487,67515,67516,67524,67540,67540,67572,67795,67843,67859,68152,68167,68195,68219,68237,68237,68254,68299,68355,68453,68520,68520,68603,68603,68640,68704,68803,68803,69543,69559" d="M161.5,186.47166C161.5,188.27167 161.5,189.17168 161.5,190.07167C161.5,190.87167 161.5,191.77167 161.5,192.67168C161.5,193.57167 161.5,194.47166 161.5,195.27167C161.5,196.17168 161.5,197.07167 161.5,197.97166C161.5,198.87167 161.63655,199.82831 161.216,200.67168C160.88608,201.33331 160.50226,202.17166 160.5,203.07167C160.49776,203.97166 160.59401,204.91876 160.14734,205.77167C159.75339,206.5239 159.14326,207.08394 158.584,207.757C158.028,208.42616 158.05951,209.29585 157.47467,210.03568C156.93854,210.71388 156.00856,211.47321 156.58533,212.18634C157.18785,212.93132 158.3,212.47166 159.2,212.47166C160.10001,212.47166 161.03474,212.41878 161.8,212.82434C162.64589,213.27264 163.3,213.47099 164.2,213.47166C165.10001,213.47234 166,213.46942 166.89999,213.47166C167.80002,213.47392 168.86494,213.63254 169.21466,214.27301C169.6626,215.09337 168.60478,215.53244 167.84734,215.82434C166.97331,216.16118 166.06813,216.3038 165.3,216.757C164.61842,217.15913 163.45071,217.53006 163.209,218.41451C163.14149,218.66148 163.83536,219.17812 164.59967,219.47183C165.16595,219.68945 164.88109,220.93451 164.21333,221.38634C163.48108,221.88181 162.49547,221.37781 161.52167,221.47183C160.65465,221.55554 160.28477,222.41078 159.39999,222.47166C158.50212,222.53345 157.74283,222.47166 156.84734,222.47166C155.98399,222.47166 155.00439,222.63451 154.10001,222.461C153.15288,222.2793 152.7,221.67033 152,220.99251L151.2,220.52884" id="svg_10" stroke-width="3" stroke="#000" fill="none"/>
  <path t="73442,73664,73664,73688,73717,73747,73763,73763,73796,73811,73857,73891,73904,73904,73921,73937,73954,73971,73971,73988,73988,73988,74004,74027,74037,74037,74083,74104,74147,74179,74179,74223,74271,74287,74323,74323,74420,74456,74584,74584,74600,74640,74675,74739,74739,74755,74804,74857,74906,74921,74989,75056,75107,75123,75163,75179,75179,75187,75255,75306,75355,75422,75504,75504,75520,75572,75588,75671,75703,75772,75787,75839,75839,75951,75990,76022,76051,76091,76139,76139,76154,76203,76227,76243,76275,76275,76355,76355,76370,76395,76439,76522,76589,76635,76635,76667,76667,76699,76747,76779,76819,76919,76971,77011,77027,77027,77059,77154,77185,77491,77554,78512,78512,78527,78547,78716,78755,78806,78822,78843,78867,78887,78887,78904,79185,79200,79216,79221,79287,79320,79419,79457,79522,79537,79579,79684,79754,79787,79804,79851,79851,79922,80003,80035,80035,80127,80143,80178,80222,80267,80323,80387,80440,80440,80455,80599,80655,80738,80738,80787,80787,80856,80899,81002,81202,81202,81395,81502,81618" d="M191.5,164.47166C191.5,165.47166 191.5,166.27167 191.5,167.17168C191.5,168.1145 191.4469,169.03621 191.7215,169.79283C192.03038,170.64394 192.99672,171.03387 193.44284,171.82884C193.85626,172.56554 193.5,173.57167 193.5,174.47166C193.5,175.27167 193.44626,176.17358 193,176.97166C192.55159,177.77359 192.0481,178.55966 191.47917,178.99251C190.65315,179.62094 190.07909,180.26579 189.78667,180.98767C189.40936,181.91907 189.25462,182.94025 188.5,183.30501C187.76451,183.66052 186.77231,183.28325 185.89999,183.50768C185.03378,183.73053 184.2991,184.49379 183.85716,185.17168C183.37871,185.90558 183.03406,186.70776 182.62134,187.57167C182.214,188.42432 181.80188,188.89345 181.02083,189.47166C180.34273,189.97368 179.86905,190.59071 179.20534,191.17168C178.49503,191.79343 178.60696,192.7782 178.49867,193.67168C178.38719,194.59145 177.69012,195.12576 177.51067,196.07167C177.3429,196.95595 177.48933,197.86101 177,198.47166C176.51067,199.08234 176.5,199.97166 176.5,200.87167C176.5,201.77167 176.5,202.67168 176.5,203.57167C176.5,204.47166 176.5,205.27167 176.5,206.17168C176.5,207.07167 176.6571,207.98738 176.48933,208.87167C176.30988,209.81758 175.61075,210.46211 175.50133,211.27167C175.38052,212.16545 175.0396,212.99527 174.55267,213.76717C174.10956,214.4696 173.55981,215.02245 173.14734,215.77167C172.68564,216.61032 172.5,217.47166 172.5,218.27167C172.5,219.17168 172.8152,220.13815 172.47917,220.95084C172.17213,221.69339 171.78281,222.50011 171.16667,223.13834C170.65529,223.66805 169.81625,223.8774 169.4955,224.76717C169.22263,225.52414 168.36543,225.86592 167.5,226.30501C166.82462,226.64767 166.2924,227.44579 165.92534,228.07167C165.47285,228.84322 165.06714,229.72289 164.66667,230.47166C164.24338,231.26312 163.63477,231.7744 163.33333,232.63834C163.10214,233.3009 162.4971,234.13306 161.8,234.51984C160.99661,234.96561 160.04291,235.25027 159.52533,235.90767C159.0159,236.5547 158.33781,237.04243 157.66667,237.63834C157.06027,238.17676 156.28606,238.58949 155.85716,239.17618C155.30196,239.93564 154.76875,240.28671 153.89999,240.50768C153.03775,240.72697 152.22145,241.21512 151.40016,241.69318C150.77208,242.05878 150.50534,243.07162 150.5,243.97166C150.49467,244.87166 150.24536,246.04057 150.936,246.43567C151.68661,246.86507 152.7,246.47166 153.60001,246.47166C154.5,246.47166 155.3,246.47166 156.2,246.47166C157.10001,246.47166 158,246.46941 158.89999,246.47166C159.79552,246.47392 160.51495,246.85925 161.07466,247.49701C161.5921,248.08661 162.30133,248.47099 163.2,248.47166C164.10001,248.47234 165,248.47166 165.89999,248.47166C166.8,248.47166 167.87956,248.71844 168.44733,248.1145C169.06847,247.45378 169.32742,246.81958 170.2,246.41901C170.92531,246.08603 171.60231,245.37396 172.2,244.77167C172.892,244.07431 173.18253,243.24026 173.784,242.55566C174.30734,241.96001 174.34956,241.25897 174.50017,240.37184C174.64487,239.51947 175.74249,239.37125 176.21466,238.67033C176.69345,237.95961 177.12093,237.16214 177.41467,236.27034C177.71785,235.34988 177.5,234.47166 177.5,233.63834C177.5,232.77617 177.49757,231.85181 177.92534,231.07167C178.37654,230.24876 178.66667,229.47166 179.2045,228.82884L180.10001,228.48233L181,228.47166L181.89999,228.47166" id="svg_11" stroke-width="3" stroke="#000" fill="none"/>
  <path t="84666,84771,84771,84787,84803,84820,84820,84838,84853,84853,84870,84870,84870,84887" d="M182.5,244.47166C183.5,243.47166 183.5,242.67168 183.5,241.77167C183.5,240.95084 183.5,239.98767 183.5,239.12434C183.5,238.22433 183.5,237.30501 183.5,236.45084C183.5,235.47166 183.5,234.68234 183.5,233.957L183.5,232.88234" id="svg_12" stroke-width="20" stroke="#fff" fill="none"/>
  <path t="85849,85906,85930,85946,85954,85970,85970,85987,86003,86003,86003,86003,86020,86020,86072,86072,86088,86121,86188" d="M182.5,247.47166C183,244.99251 183.47141,244.17303 183.5,243.27167C183.52853,242.37213 183.5,241.47166 183.5,240.67168C183.5,239.76367 183.5,238.7075 183.5,238.10918C183.5,237.11166 183.5,236.43834 183.5,235.24367C183.5,234.53416 183.5,233.49316 183.5,232.673L183.5,231.77167L183.5,230.87167L183.5,229.97166" id="svg_13" stroke-width="20" stroke="#fff" fill="none"/>
  <path t="86781,86843,86867,86867,86900" d="M183.5,231.47166C183.5,229.71451 183.5,228.819 183.5,227.95567L183.5,226.99251" id="svg_14" stroke-width="20" stroke="#fff" fill="none"/>
  <path t="90188,90770,90838,90905,90971,91002,91020,91072,91123,91153,91170,91187,91187,91219,91259,91259,91305,91321,91382,91398,91398,91440,91455,91520,91552,91571,91669,91685,91685,91754,91915" d="M190.5,224.47166C190.5,225.27301 190.44284,226.17168 190,226.97166C189.55716,227.77167 189.6859,228.77638 189.216,229.38766C188.69299,230.06804 187.87387,230.30003 187.2045,230.82884C186.46346,231.41428 186.37531,232.50513 185.88933,233.07167C185.25177,233.81491 184.4631,234.20854 183.7,234.55566C182.84573,234.94424 182.05867,235.35553 181.3,235.75568C180.44162,236.2084 179.79945,236.52338 179,236.97166C178.20396,237.41805 177.51552,237.88818 177,238.47166C176.43643,239.10954 175.66667,239.63834 175.33333,240.47166L174.88933,241.03568L174,241.47166L173.2,241.82884" id="svg_15" stroke-width="3" stroke="#000" fill="none"/>
  <path t="95934,96242,96253,96283,96299,96299,96385,96473,96488,96488,96507,96520,96536,96553,96554,96636,96636,96667,96675,96686,96738,96771,96822,96822,96859,96883,96939,96939,96971,97003,97188,97333,97591,97591,97607,97671,97671,97722,97788,97788,97854,97905,97921,98035,98235,98319,98433,98433,98566,98566,98653,98706,98721,98755,98867,98936,98936,98968,99054,99187,99235,99283,99322,99322,99379,99469,99485,99538,99588,99643,99688,99731,99755,99855,99899,99985,100001,100035,100075,100121,100237,100288,100336,100419,100767" d="M157.5,225.47166C156.88933,227.03568 156.05682,227.35661 155.2,227.82434C154.45468,228.2312 153.56938,228.07805 152.78534,228.55701C151.98196,229.04778 151.54622,229.71381 150.8,230.119C150.03888,230.5323 149.0959,230.38995 148.1955,230.47617C147.3222,230.55977 146.52844,231.0542 145.66667,231.30501C144.82434,231.55017 143.89998,231.46626 143,231.47166C142.11063,231.47701 141.58809,232.10422 140.85333,232.49701C140.08047,232.91017 139.36154,233.1714 138.38533,233.38634C137.41945,233.599 136.5,233.47166 135.7,233.47166C134.8,233.47166 133.89998,233.4664 133,233.47166C132.08929,233.47701 131.14325,233.62486 130.52083,233.99251C129.68596,234.48564 129.62469,235.50513 130.11067,236.07167C130.74823,236.81491 131.4874,237.38664 132.3,237.47034C133.19527,237.56255 134.10001,237.47166 135,237.47166C135.89999,237.47166 136.95926,237.28975 137.47467,237.90767C138.00375,238.54196 138.30968,239.35162 138.8,240.11984C139.20697,240.75745 139.99928,241.45084 140.89999,241.47166C141.79976,241.49248 142.7,241.47166 143.60001,241.47166C144.5,241.47166 145.45328,241.90031 146.21466,241.38634C146.8824,240.93558 147.08916,239.86334 147.89999,239.49701C148.68164,239.14386 149.64345,238.88496 150.21466,238.38766C150.82318,237.85788 151.04442,236.73354 151.89999,236.50768C152.85762,236.25488 153.5538,236.02505 154.07466,235.44633C154.64874,234.80847 155.43176,234.86462 156.21466,234.38634C157.0179,233.89563 157.72491,233.72794 158.37866,233.25034C159.07773,232.73962 159.78969,232.62044 160.44733,232.119C161.12419,231.60291 161.52533,230.897 162.2045,230.47617L163.10001,230.43567L163.89999,230.04634L164.69867,229.55566" id="svg_16" stroke-width="3" stroke="#000" fill="none"/>
  <path t="106960,107099,107120,107120,107136,107136,107237,107237,107269,107323,107347,107379,107472,107521,107521,107590,107606,107627,107651,107651,107675,107675,107686,107707,107739,107787,107819,107819,107851,107899,107915,107915,107939,108019,108043,108043,108043,108168,108203,108219,108219,108271,108287,108307,108354,108370,108395,108412,108412,108428,108444,108467,108487,108508,108531,108531,108548,108548,108571,108637,108751,108751,108767,108851,108935,108971,109100,109100,109100,109138,109138,109153,109169,109170,109347,109371,109386,109386,109402,109403,109419,109419,109419,109419,109436,109436,109436,109437,109437,109437,109437,109452,109452,109452,110597,110597,110638,110638,110676,110722,110737,110779,110780,110868,110899,110931,110963,111011,111011,111035,111035,111120,111152,111152,111171,111203,111270,111400,111400,111563" d="M107.5,147.47166C107.58533,146.58501 107.89795,145.62482 108.30133,144.95567C108.75832,144.19759 109.34722,143.61613 109.7955,142.819C110.26592,141.9825 110.27151,140.77713 110.85717,140.47166C111.69313,140.03564 112.7,140.47166 113.6,140.47166C114.5,140.47166 115.4234,140.08607 116.14283,140.52884C116.87959,140.98227 117.06843,141.96016 117.59983,142.793C118.01804,143.44843 118.4119,144.29388 118.4955,145.16718C118.5817,146.06757 118.35791,146.98466 118.51067,147.87167C118.65414,148.70482 119.38924,149.46213 119.49866,150.27167C119.61948,151.16545 120.03052,151.96248 120.59983,152.57167C121.15237,153.1629 121.45719,154.10995 121.936,154.88234C122.43295,155.68401 122.86705,156.31715 123.3,156.98767C123.85878,157.85304 124.59388,158.41078 125.5,158.47166C126.2982,158.5253 127.2,158.47166 128.10001,158.47166C129,158.47166 129.89999,158.47234 130.8,158.47166C131.7,158.47099 132.71837,158.35706 133.14284,157.76717C133.71159,156.97676 133.82857,155.87367 134.7,155.55701C135.54955,155.24831 136.22867,155.14027 136.83333,154.47166C137.40352,153.84116 138.30486,153.43069 138.97917,152.99251C139.76967,152.47882 140.60001,152.47166 141.5,152.47166C142.3,152.47166 143.20006,152.46124 144.10001,152.47166C145.00018,152.48209 145.86581,152.78053 146.5,153.63834C146.96144,154.26248 147.33936,155.03737 147.98267,155.58633C148.5986,156.11195 149.2511,156.8447 149.7215,157.5715C150.18069,158.28099 151.20868,158.37077 152.02083,158.49251C153.00827,158.64052 153.64958,159.12593 154.61867,159.38766C155.35307,159.58601 156.26483,159.69394 157.24001,159.90767C158.03986,160.08296 158.48254,160.18909 160,160.47166C160.56279,160.57646 161.14931,160.67184 162.35466,160.87167C162.95831,160.97176 163.55545,161.05319 164.67734,161.27167C166.09724,161.54819 166.81332,161.76978 167.64667,162.03568C168.49915,162.30768 169.29016,162.41666 170.33333,162.47166C171.13925,162.51416 171.55363,163.17564 172,163.97166C172.44829,164.77113 172.88608,165.61003 173.216,166.27167C173.63655,167.11504 173.49805,168.09128 173.92534,168.87167C174.37572,169.69424 174.4097,170.58701 174.58533,171.35701C174.76636,172.15068 175.18924,172.82925 175.7955,173.71451C176.32028,174.48077 176.42973,175.23193 176.5045,176.11984C176.59103,177.14754 177.33333,177.63834 177.66667,178.47166L178.11067,179.07167L178.8,179.76717" id="svg_17" stroke-width="3" stroke="#000" fill="none"/>
  <path t="112539,112675,112687,112703,112723,112723,112771,112787,112787" d="M181.5,185.47166C180.02083,183.97166 179.65056,183.09512 179.064,182.48634C178.39749,181.79462 177.936,181.28633 177.58533,180.35701L177.5,179.47166L177.41467,178.67168" id="svg_18" stroke-width="3" stroke="#000" fill="none"/>
  <path t="115927,116353,116466,116536,116571,116668,116735,116779,116821,116919,116919,116951,116979,117037,117052,117091,117251,117299,117331,117331,117559,117574,117636,117720,117771,117803,117803,117854,117870,117870,117891,117891,117907,117919,118018,118133,118179,118179,118203,118251,118269,118307,118347,118347,118371,118468,118551,118551,118567,118667,118667,118766,118782,118884,118900,118919,118971,119037,119198,119198,120725,120897,120931,121051,121150,121166,121166,121187,121351,121383,121411,121468,121484,121499,121554,121762,121795,121837,121936,121936,122097,122113,122217,122398,122398,122413,122454,122520,122563,122603,122686,122893,123414,123414" d="M52.5,114.47167C52.5,115.273 52.5,116.17167 52.5,117.07167C52.5,117.97167 52.5,118.87167 52.5,119.77167C52.5,120.67167 52.5,121.57167 52.5,122.47167C52.5,123.27167 52.5,124.17167 52.5,125.07167C52.5,125.97167 52.5,126.87167 52.5,127.77167C52.5,128.67168 52.5,129.57167 52.5,130.47166C52.5,131.27167 52.5,132.17168 52.5,133.07167C52.5,133.97166 52.5,134.87167 52.5,135.77617C52.5,136.63834 52.27197,137.58607 52.85717,138.36633C53.41101,139.10478 54.10147,139.45026 54.3785,140.45016C54.59982,141.24901 54.31626,142.19817 54.536,143.07167C54.75306,143.93449 55.40281,144.67288 55.50017,145.57167C55.5761,146.27274 55.96581,147.13705 56.47467,147.86101C56.97746,148.57634 57.4454,149.11996 57.5045,150.11984C57.55092,150.90514 58.21754,151.4843 58.55267,152.23334C58.93662,153.09152 59.1256,153.82626 59.47467,154.83568C59.76599,155.67812 60.14868,156.2998 60.55267,157.17168C60.93801,158.0033 61.30464,158.7915 61.50134,159.67033C61.66973,160.42273 62.39375,160.94566 62.784,161.67168C63.24347,162.52644 63.30338,163.30621 63.55717,164.17168C63.81446,165.0491 64.47141,165.77031 64.5,166.67168C64.52854,167.57121 64.35396,168.49937 64.55717,169.17168C64.82172,170.04695 65.47141,170.77031 65.5,171.67168C65.52854,172.57121 65.5,173.47166 65.5,174.27167C65.5,175.17168 65.5,176.07167 65.5,176.97166C65.5,177.87167 65.36345,178.82831 65.784,179.67168C66.11393,180.33331 66.60001,181.15678 67.30133,181.55566C68.01759,181.96303 68.60794,182.80252 69.3,183.18634C70.12449,183.6436 71.1,183.47166 72,183.47166C72.9,183.47166 73.8,183.47166 74.7,183.47166L75.6,183.47166L76.5,183.47166L77.3,183.47166" id="svg_19" stroke-width="3" stroke="#000" fill="none"/>
  <path t="125800,125979,125995,126027,126027,126040,126053,126068,126107,126123,126217,126254,126270,126316,126316,126337,126353,126388,126388,126436,126521,126570,126619,126659,126675,126707,126707,126747,126779,126787,126835,126918,126956,127004,127004,127036,127067,127152,127251,127251,127266,127302,127335,127335,127355,127355,127420,127938,128205,128205,128243,128283,128355,128404" d="M69.5,121.47167C70.41467,121.757 70.30183,122.63226 70.66666,123.47167C70.9642,124.15623 72.03955,124.59311 72.464,125.44633C72.83614,126.19441 73.20564,126.89262 73.464,127.87167C73.69381,128.74257 73.5,129.67168 73.5,130.57167C73.5,131.47166 73.30817,132.30492 73.55717,133.17168C73.77693,133.93666 74.7188,134.48244 75.14283,135.17168C75.64817,135.99307 75.5,136.97166 75.5,137.87167C75.5,138.77167 75.5,139.67168 75.5,140.57167C75.5,141.47166 75.5,142.27167 75.5,143.17168C75.5,144.07167 75.5,144.97166 75.5,145.87167C75.5,146.77167 75.65352,147.72014 75.33334,148.47166C75.00051,149.25287 74.51534,150.09258 73.88934,150.49701C73.14197,150.97986 72.47858,151.67361 71.8,152.1145C71.00766,152.6293 70.29566,152.94298 69.66666,153.63834C69.18492,154.1709 68.62626,154.85201 67.98267,155.27167C67.11855,155.83511 66.24385,156.25165 65.5,156.63834C64.71675,157.0455 64.2045,157.77167 63.62133,158.5715L63.2785,159.35017L62.4,159.47183" id="svg_20" stroke-width="3" stroke="#000" fill="none"/>
  <path t="131085,131503,131518,131555,131587,131587,131637,131720,131785,131818,131868,131868,131899,131938,131971,132067,132135,132234,132384,132453,132453,132468,132904,133079,133151,133400,133437,133612,133612,133748,133850,133866,133866,133883,133937" d="M68.5,158.47166C70.3,158.47166 71.2,158.47223 72.02084,158.47166C72.98267,158.47099 73.7719,158.38792 74.51466,157.897C75.1888,157.45145 76.16759,157.39427 76.9,157.90767C77.68996,158.46141 78.25545,159.0061 78.47916,159.97166C78.68237,160.84868 78.50008,161.77167 78.5,162.67168C78.49992,163.5715 78.28477,164.41078 77.4,164.47166C76.50212,164.53346 75.7,164.47166 74.8,164.47166C73.9,164.47166 73,164.47166 72.1,164.47166C71.2,164.47166 70.29859,164.48404 69.33334,164.47166C68.52064,164.46124 67.58579,164.19958 67.5,163.37167C67.40723,162.47646 67.5,161.67168 67.5,160.77167L67.536,159.87167" id="svg_21" stroke-width="3" stroke="#000" fill="none"/>
  <path t="137697,137883,137953,137987,138001,138115,138147,138187,138237,138331,138371,138403,138403,138469,138507,138600,138628,138671,138671,138782,138836,138852,139028,139211,139976,140318,140917,140933,141033,141101,141153,141400,141499,141531,141602,141778,141820,141835,141835,141867,141907,142031,142133,142185,142220,142271,142271,142318,142497,142629" d="M65.5,168.47166C67.31467,168.48233 68.02347,168.96298 68.78533,169.38634C69.58727,169.83197 70.23713,170.0834 70.936,170.43567C71.79742,170.86987 72.8,170.47166 73.7,170.47166C74.6,170.47166 75.5,170.47166 76.3,170.47166C77.2,170.47166 78.10001,170.47699 79,170.47166C79.90005,170.46632 80.648,170.10428 81.3,169.75568C82.14739,169.30261 83.0236,169.01126 83.7955,168.52434C84.49794,168.08124 85.02065,167.48209 85.9,167.47166C86.79994,167.461 87.98363,167.14362 88.44283,167.82884C88.96603,168.60954 87.95931,169.3463 87.5,169.99251C87.00451,170.68961 86.64987,171.57596 86.5,172.47166C86.35975,173.30986 85.61718,173.76097 85.49983,174.57167C85.36871,175.47749 84.69816,175.95309 84.02084,176.47166C83.38902,176.9554 83.36414,177.93196 82.85267,178.52434C82.28625,179.18036 81.95821,179.95197 81.30133,180.67168C80.76785,181.25618 80.44733,182.1145 79.66666,182.63834L79.21467,183.38634" id="svg_22" stroke-width="3" stroke="#000" fill="none"/>
  <path t="147480,147833,147833,147867,147952,147995" d="M77.5,176.47166C78.5,176.47166 79.3,176.55701 80.064,177.08234L80.47467,177.86101L81.02084,178.47166" id="svg_23" stroke-width="3" stroke="#000" fill="none"/>
  <path t="149072,149267,149315,149355,149403,149403" d="M73.5,179.47166C75.2,179.52884 75.97916,179.99251 76.44733,180.77167L76.78533,181.67168L77.30133,182.27167" id="svg_24" stroke-width="3" stroke="#000" fill="none"/>
  <path t="154606,154825,154851,154867,154922,154922,154964,155035,155035,155067,155166,155166,155266,155282,155285,155318,155385" d="M83.5,139.47166C85.3,139.47166 86.20847,139.57033 87.02084,139.45084C88.00867,139.30553 88.6395,138.77669 89.61467,138.55701C90.48236,138.36154 91.3,138.47166 92.136,138.47166C93.15266,138.47166 93.90733,138.13994 94.85333,138.48233C95.61256,138.75713 95.5,139.87167 95.5,140.77167L95.5,141.67168" id="svg_25" stroke-width="3" stroke="#000" fill="none"/>
  <path t="156208,156443,156451,156491,156568,156651" d="M87.5,144.47166C89.3,144.47166 90.2,144.47166 91.1,144.47166L92,144.47166L92.9,144.47166" id="svg_26" stroke-width="3" stroke="#000" fill="none"/>
  <path t="158025,158167,158201,158217,158316,158396,158419,158419,158434,158459,158533,158533,158586,158636,158636,158683,158701,158723,158723" d="M57.5,138.47166C58.2045,137.76717 58.96002,137.11612 59.37867,136.37184C59.79574,135.63036 60.66667,135.47166 61.5,135.47166C62.3,135.47166 63.21164,135.3562 64.136,135.50768C65.007,135.65041 65.79671,135.94237 66.39017,136.77167C66.96219,137.57101 67.30133,138.27167 67.9,138.86101L68.69867,139.38901L69.37867,139.91434L69.52533,140.621" id="svg_27" stroke-width="3" stroke="#000" fill="none"/>
  <path t="159395,159579,159635,159702,159783,159799" d="M62.5,140.47166C64.2,140.52884 65,140.97166 65.7955,141.41901L66.47467,141.897L67.11066,142.461" id="svg_28" stroke-width="3" stroke="#000" fill="none"/>
  <path t="162608,162769,162769,162804,162868,162900,162923,162970,163196,163212,163227,163235,163235,163251,163267,163267,163284,163336,163336" d="M109.5,124.47167C110.5,124.47167 111.3,124.47167 112.2,124.47167C113.1,124.47167 114,124.47167 114.9,124.47167C115.8,124.47167 116.97964,124.14631 117.44283,124.82883C117.91721,125.52784 117.5,126.57184 117.5,127.357C117.5,128.297 117.5,129.30501 117.464,130.061L117.064,130.88234L116.5,131.63834L116.1,132.28633" id="svg_29" stroke-width="3" stroke="#000" fill="none"/>
  <path t="165163,165275,165284,165284,165300,165317,165355,165367,165385,165400,165417,165417,165434,165434,165451,165467,165484,165500,165500,165517,165517,165534,165534,165571,165584,165603,165617,165617,165635,165651,165699,165699,165731,165731" d="M187.5,129.47166C189.97917,129.99251 190.80385,130.59531 191.21466,131.27167C191.68608,132.04781 192.06184,132.67807 192.72133,133.35034C193.32761,133.96838 193.31166,134.79398 193.85716,135.42351C194.44019,136.09636 195.052,136.46529 195.37866,137.45016C195.64484,138.25267 196.16653,138.94383 196.88933,139.44633C197.56201,139.914 197.84743,140.78935 198.38667,141.35701C199.13341,142.1431 199.68008,142.64096 200.33333,143.30501C200.96359,143.94569 201.19838,145.02333 201.85716,145.41451C202.66959,145.89691 203.62404,145.66475 204.2,146.17618C204.93227,146.82639 205.7,147.38634 206.60017,147.47183L207.38533,147.55701L208.15266,147.82434L209.01601,148.18767" id="svg_30" stroke-width="3" stroke="#000" fill="none"/>
  <path t="168241,168507,168533,168550,168550,168571,168571,168619,168619,168643,168684,168701,168718,168734,168751,168751,168795,168827,168851,168851,168868,168884,168901,168901,168918,168918,168934,168934,168934,168951,168951,168968,169020,169067,169099,169117,169133,169133,169155,169171,169195,169217,169217,169235,169251,169275,169275,169351,169382,169401,169433,169450,169467,169499,169517,169517,169540,169579,169627,169651,169717,169717,169751,169787,169836,169875,169875,169900,169939,169979,170000,170000,170017,170059,170083,170123,170216,170252,170319,170335,170363,170403,170453,170505,170520,170569,170603,170619,170643,170667,170691,170700,170717,170769,170769,170785,170803,170826,170834,170885,170953,170953,170968,170984,171000,171017,171033,171033,171050,171050,171050,171067,171067,171083,171123,171139,171163,171187,171203,171203,171219,171233,171259,171283,171323,171363,171379,171400,171400,171417,171433,171450,171533,171632,171648,171663,171663,171667,171683,171683,171700,171700,171717,171717,171785,171785,171851,171851,171891,171923,171939,171939,171955,171955,171967,171967,171983,172000,172000,172035,172085,172152,172202,172218,172234,172332,172332,172355,172355,172411,172451,172482,172506,172584,172584" d="M411.5,171.47166C413.20001,171.41451 413.97168,170.84248 414.82132,170.59317C415.647,170.35088 416.6326,170.56596 417.384,170.38634C418.35129,170.15512 418.74286,169.49286 419.54816,168.82884C420.19086,168.29889 421.20001,168.47166 422.10001,168.47166C422.91068,168.47166 423.82132,168.47166 424.67465,168.47166C425.61465,168.47166 426.60001,168.47166 427.5,168.47166C428.29999,168.47166 429.20001,168.47166 430.02084,168.47166C430.98532,168.47166 431.71066,168.47166 432.70016,168.47166C433.52084,168.47166 434.66666,168.47166 435.44818,168.47166C436.23868,168.47166 437.16666,168.47166 438.07867,168.47166C439,168.47166 439.89999,168.47166 440.79999,168.47166C441.70001,168.47166 442.60001,168.47166 443.5,168.47166C444.29999,168.47166 445.20001,168.47166 446.10001,168.47166C446.91068,168.47166 447.82132,168.47166 448.67465,168.47166C449.61465,168.47166 450.60001,168.47166 451.5,168.47166C452.29999,168.47166 453.20001,168.47166 454.10001,168.47166C455,168.47166 455.89999,168.47166 456.79999,168.47166C457.70001,168.47166 458.60001,168.47166 459.5,168.47166C460.29999,168.47166 461.20007,168.46124 462.10001,168.47166C463.00018,168.48209 463.71878,168.97218 464.5,169.30501C465.25153,169.6252 466.20096,169.52711 467,169.97166C467.80096,170.41728 468.54233,170.78688 469.29999,171.18767C470.14938,171.63699 470.85034,171.98909 471.70001,172.38766C472.56042,172.79128 473.15631,173.2702 474.10001,173.461C474.96228,173.63533 475.55011,174.12315 476.2045,174.52434C476.97617,174.99742 477.47141,175.77031 477.5,176.67168C477.52853,177.57121 477.82254,178.61008 477.33334,179.30501C476.83002,180.02003 475.96158,180.34792 475.5,180.99251C475.00336,181.68607 474.27222,182.14496 473.62134,182.69301C472.95908,183.25063 472.29999,183.47166 471.39999,183.47166C470.5,183.47166 469.7937,183.70122 469.33334,184.47166C468.90341,185.19116 468.00018,185.46124 467.10001,185.47166C466.20007,185.48207 465.29999,185.47166 464.39999,185.47166C463.5,185.47166 462.70001,185.47166 461.79999,185.47166C460.89999,185.47166 460,185.47166 459.08932,185.47166C458.17834,185.47166 457.45834,185.47166 456.33334,185.47166C455.55182,185.47166 454.76132,185.47166 453.64301,185.47166C452.92133,185.47166 452,185.47166 451.10001,185.47166C450.20001,185.47166 449.29999,185.47166 448.39999,185.47166C447.5,185.47166 446.70001,185.47166 445.79999,185.47166C444.89999,185.47166 444,185.47166 443.10001,185.47166C442.20001,185.47166 441.29999,185.47166 440.39999,185.47166C439.5,185.47166 438.70001,185.47166 437.79999,185.47166C436.89999,185.47166 436,185.47166 435.10001,185.47166C434.20001,185.47166 433.29999,185.47166 432.39984,185.47166C431.61465,185.47166 430.67465,185.47166 429.66666,185.47166C428.87466,185.47166 428.01468,185.47166 427.09549,185.47166C426.10001,185.47166 425.29999,185.47166 424.30017,185.47166C423.52084,185.47166 422.66666,185.47166 421.8045,185.47166C420.89999,185.47166 419.97885,185.49403 419.01468,185.47034C418.28873,185.4525 417.27652,185.30565 416.52084,184.95084C415.63431,184.53458 415.06125,183.91324 414.20001,183.52434C413.42932,183.17632 412.55438,183.00005 411.85718,182.41901C411.26569,181.92606 410.81381,181.0493 410.55716,180.17168C410.30405,179.30611 410.5,178.37167 410.5,177.47166C410.5,176.71451 410.48502,175.81886 410.5,174.95567C410.51801,173.91786 411.11066,173.44633 411.88934,173.03568L412.41599,172.27167L412.7215,171.37184L413.2045,170.82884" id="svg_31" stroke-width="3" stroke="#000" fill="none"/>
  <path t="181002,181209,181209,181227,181227,181235,181235,181235,181251,181251,181251,181267,181267,181267,181267,181267,181284,181284,181284,181302,181302,181302,181302,181317,181317,181334,181334,181334,181352,181352,181352,181367,181367,181384,181384,181402,181402,181402,181402,181417,181417,181417,181417,181434,181435,181452,181452,181452,181467,181467,181467,181484,181484,181484,181501,181501,181501,181501,181517,181517,181517,181517,181534,181534,181534,181534,181534,181551,181551,181551,181551,181567,181567,181567,181567,181567,181584,181584,181584,181584,181584,181584,181601,181601,181601,181601,181601,181617,181617,181617,181617,181617,181617,181634,181634,181634,181634,181652,181652,181652,181652,181652,181652,181667,181668,181668,181669,181669,181669,181669,181686,181687,181687,181687,181701,181701,181701,181701,181701,181727,181727,181727,181728,181728,181741,181741,181741,181741,181741,181755,181755,181767,181768,181785,181785,181801,181801,181817,181835,181835,181835,181852,181853,181853,181867,181867,181867,181868,181868,181885,181885,181902,181902,181902,181902,181903,181917,181917,181917,181918,181935,181935,181935,181935,181935,181952,181952,181953,181953,181967,181967,181967,181968,181968,181985,181985,181986,181986,181986,182002,182002,182002,182017,182017,182018,182035,182035,182035,182036,182052,182052,182053,182053,182053,182053,182053,182067,182067,182068,182068,182068,182068,182068,182069,182069,182085,182086,182086,182086,182086,182086,182086,182086,182086,182102,182102,182102,182103,182103,182103,182103,182103,182103,182134,182134,182134,182134,182135,182135,182135,182151,182151,182151,182152,182152,182152,182152,182152,182152,182167,182167,182167,182167,182168,182168,182168,182184,182184,182184,182184,182185,182185,182185,182201,182201,182201,182202,182202,182202,182202,182202,182217,182217,182217,182217,182218,182218,182218,182218,182218,182234,182234,182234,182235,182235,182235,182235,182251,182252,182252,182252,182252,182267,182267,182267,182285,182285,182285,182285,182301,182301,182302,182302,182317,182317,182317,182317,182318,182318,182334,182334,182334,182335,182335,182335,182351,182351,182351,182352,182352,182367,182367,182367,182367,182368,182384,182384,182401,182401,182417,182417,182417,182434,182435,182435,182451,182452,182452,182452,182452,182452,182467,182467,182467,182468,182468,182468,182468,182484,182484,182484,182485,182485,182485,182501,182501,182501,182517,182517,182534,182534,182534,182551,182551,182552,182552,182552,182567,182567,182567,182568,182568,182584,182584,182584,182585,182585,182585,182601,182601,182602,182602,182602,182617,182617,182617,182634,182651,182651,182652,182652,182652,182667,182667,182667,182668,182668,182668,182668,182684,182685,182685,182685,182685,182685,182686,182686,182702,182702,182702,182702,182702,182702,182703,182703,182703,182719,182720,182720,182720,182720,182721,182721,182751,182751,182752,182752,182768,182768,182769,182784,182785,182785,182785,182801,182801,182802,182802,182802,182802,182817,182817,182818,182818,182818,182834,182834,182835,182835,182851,182852,182852,182852,182852,182867,182867,182868,182868,182868,182868,182884,182884,182885,182885,182885,182885,182901,182902,182902,182902,182902,182902,182917,182917,182918,182918,182918,182934,182934,182935,182935,182935,183001,183001,183034,183034,183051,183052,183068,183068,183069,183069,183085,183085,183086,183086,183086,183086,183086,183104,183104,183105,183105,183105,183120,183121,183121,183136,183249,183249,183265,183265,183281,183286,183286,183286,183302,183303,183318,183319,183319,183336,183336,183350,183352,183352,183369,183369,183443,183459,183467,183468,183491,183492,183505,183520,183537,183537,183537,183552,183552,183552,183553,183570,183570,183571,183571,183585" d="M17.5,77.47167C18.5,77.47167 19.25717,77.47167 20.16167,77.47167C20.96167,77.47167 21.92133,77.47167 22.72533,77.47167C23.54733,77.47167 24.579,77.47167 25.54167,77.47167C26.35467,77.47167 27.36417,77.47167 28.1625,77.47167C29.02083,77.47167 29.89917,77.47167 30.33333,77.47167C31.92933,77.47167 32.628,77.47167 33.27867,77.47167C34.5,77.47167 35.3955,77.47167 35.97917,77.47167C36.81467,77.47167 38.04733,77.47167 38.72533,77.47167C39.92133,77.47167 40.72533,77.4716 41.54733,77.47167C42.5785,77.47176 43.27348,77.41106 44.09867,77.55701C45.11923,77.73751 45.88416,78.18336 46.70016,78.35017C47.51023,78.51577 48.66667,78.47167 49.46167,78.47167C50.04167,78.47167 50.98667,78.47167 52.02117,78.47167C52.74817,78.47167 53.83867,78.47167 54.53067,78.47167C55.72933,78.47167 56.45835,78.46482 57.5,78.47167C58.31072,78.47701 59.19163,78.52763 60.184,78.75567C60.72927,78.88097 61.53584,79.17815 62.57883,79.35017C63.51357,79.50434 64.26933,79.471 65.46933,79.47167C66.16133,79.47205 66.88533,79.47167 67.61733,79.47167C69.01733,79.47167 69.68533,79.47167 70.36134,79.47167C71.06934,79.47167 72.24284,79.47167 73.10983,79.47167C74.02084,79.47167 74.95184,79.47167 75.41734,79.47167C76.7785,79.47167 77.64283,79.47167 78.47916,79.47167C79.2955,79.47167 80.5,79.47167 81.30267,79.47167C82.12133,79.47167 82.972,79.47167 83.87067,79.47167C84.83334,79.47167 85.86802,79.47276 86.40533,79.46717C87.50006,79.45578 88.05029,79.45348 89.132,79.38634C90.16786,79.32204 91.13165,79.19379 92.03867,79.04634C92.47966,78.97465 93.3438,78.79018 94.66666,78.63834C95.58159,78.53331 96.05234,78.51884 97,78.49251C97.94711,78.46619 98.41601,78.47565 99.77866,78.4715C100.64734,78.46886 101.50092,78.46812 102.35267,78.41451C103.66862,78.33167 104.12416,78.26489 105.06617,78.11001C106.06522,77.94575 106.58508,77.83574 107.672,77.58501C108.83604,77.31648 109.44254,77.15193 110.064,76.98901C111.31942,76.65988 111.937,76.49059 112.54134,76.33301C113.67506,76.0374 114.66286,75.78494 115.47733,75.64101C116.45437,75.46834 117.05187,75.44405 118.36433,75.25034C119.16895,75.13157 120.04127,74.9692 120.496,74.897C121.41788,74.75065 122.77795,74.58256 123.64733,74.52884C124.07438,74.50245 124.92529,74.4781 125.784,74.47301C127.12098,74.46507 128.04367,74.47167 128.504,74.47167C129.40266,74.47167 130.24533,74.47167 131.64267,74.47167C132.41667,74.47167 133.33333,74.47167 134.12534,74.47167C135.15717,74.47167 135.9045,74.47167 136.89867,74.47167C137.664,74.47167 138.616,74.47167 139.66667,74.47167C140.34666,74.47167 141.18666,74.47167 142.188,74.47167C143.0625,74.47167 143.71883,74.47167 144.83333,74.47167C145.66533,74.47167 146.52933,74.47167 147.37733,74.47167C148.16133,74.47167 149.364,74.47167 150.20134,74.47167C151.16667,74.47167 151.83867,74.47167 152.62267,74.47167C153.47067,74.47167 154.33467,74.47167 155.55733,74.47167C156.29466,74.47167 157,74.4716 158.06799,74.47167C159.24266,74.47176 160.10539,74.47298 160.55066,74.48234C161.44949,74.50123 162.33763,74.51343 163.55733,74.69317C164.29903,74.80247 165.00014,74.99199 165.70534,75.17617C166.83354,75.47083 167.67024,75.66913 168.56134,75.88234C169.48631,76.10365 169.96407,76.18959 171.33333,76.63834C172.22066,76.92915 173.04277,77.28607 173.4375,77.45084C174.18138,77.76134 175.45091,78.25829 176.23866,78.41034C176.94356,78.54639 178.18526,78.75594 178.73599,78.897C179.6044,79.11943 180.7989,79.36793 181.4135,79.41451C182.40625,79.48975 183.15601,79.471 184,79.47167C184.96266,79.47243 185.494,79.47167 186.66667,79.47167C187.312,79.47167 187.99933,79.47167 188.73067,79.47167C190.33333,79.47167 191.2065,79.47167 192.11867,79.47167C193.05884,79.47167 194.01601,79.47167 194.97917,79.47167C195.93733,79.47167 196.8795,79.47167 197.79466,79.47167C199.5,79.47167 200.272,79.47259 200.996,79.47034C201.68401,79.4682 202.34805,79.4635 203,79.45084C203.65204,79.43816 204.31619,79.41911 205.004,79.38634C206.5005,79.31503 207.32779,79.25211 208.20134,79.18767C209.10713,79.12084 210.0307,79.04675 210.95833,78.97167C211.87604,78.8974 212.76953,78.82259 213.62534,78.75567C215.16643,78.63517 215.82901,78.59047 216.42667,78.55701C216.97403,78.52636 217.97913,78.48965 218.46666,78.48234C219.48659,78.46703 220.66667,78.47167 221.34967,78.47167C222.09067,78.47167 222.87767,78.47167 223.69867,78.47167C224.54167,78.47167 225.39467,78.47167 226.24567,78.47167C227.08267,78.47167 228.66667,78.47167 229.39267,78.47167C230.07466,78.47167 231.33067,78.47167 231.91667,78.47167C232.48267,78.47167 233.57867,78.47167 234.66667,78.47167C235.78799,78.47167 236.36617,78.47167 236.95734,78.47167C238.18266,78.47167 238.81883,78.47167 239.472,78.47167C240.83333,78.47167 241.54317,78.47167 242.272,78.47167C243.78267,78.47167 244.5625,78.47167 245.35733,78.47167C246.16617,78.47167 246.98801,78.47167 248.66667,78.47167C249.52083,78.47167 250.38,78.47167 251.23917,78.47167C252.09334,78.47167 252.9375,78.47167 253.76666,78.47167C254.57584,78.47167 255.36,78.47167 256.83334,78.47167C257.51382,78.47167 258.15732,78.47167 258.76685,78.47167C259.34534,78.47167 260.42133,78.47167 260.92484,78.47167C262.33334,78.47167 263.21335,78.47167 264.05334,78.47167C264.85333,78.47167 265.61337,78.47726 266.6785,78.4715C267.66403,78.46618 268.29694,78.49319 269.5,78.30501C270.41235,78.1623 271.01434,77.94032 271.98532,77.75567C273.01587,77.55969 273.76123,77.51845 274.54166,77.49251C275.36136,77.46526 276.66666,77.47167 277.58667,77.47167C278.06168,77.47167 279.04166,77.47167 279.54666,77.47167C280.58667,77.47167 281.66666,77.47167 282.78265,77.47167C283.34818,77.47167 284.47916,77.47167 285.03867,77.47167C286.13068,77.47167 287.16666,77.47167 288.13068,77.47167C289.03867,77.47167 289.47916,77.47167 290.34818,77.47167C291.66666,77.47167 292.57999,77.47167 293.49335,77.47167C293.9375,77.47167 294.77585,77.47167 296.11417,77.47167C296.9375,77.47167 297.8215,77.47167 298.71066,77.47167C299.70016,77.47167 300.52084,77.47167 301.18533,77.47167C302.18799,77.47167 303.0625,77.47167 303.71884,77.47167C304.83334,77.47167 305.67334,77.47167 306.59332,77.47167C307.59332,77.47167 308.12332,77.47169 308.67334,77.47167C310.44284,77.47159 311.06934,77.47179 311.70984,77.46717C312.36133,77.46248 313.68546,77.43919 314.35184,77.41451C315.01749,77.38985 316.33481,77.31997 317.60934,77.18634C318.22562,77.12173 318.82349,77.04907 319.94534,76.86101C320.4679,76.77341 321.83908,76.49151 322.55734,76.273C323.40323,76.01567 324.32245,75.56566 325.12534,75.48234C325.98611,75.39301 326.85468,75.47167 327.44266,75.47167C328.58566,75.47167 329.51965,75.47167 330.54166,75.47167C331.07068,75.47167 332.13467,75.47167 333.16666,75.47167C334.13199,75.47167 335.04935,75.47167 335.5,75.47167C336.40533,75.47167 337.83334,75.47167 338.34268,75.47167C339.40533,75.47167 339.95065,75.47167 341.04935,75.47167C341.59467,75.47167 343.16666,75.47167 343.65668,75.47167C344.57666,75.47167 345.41666,75.47167 346.17667,75.47167C347.45685,75.47167 348.21735,75.47167 349.01199,75.47167C350.04166,75.47167 351.00006,75.47919 351.88501,75.46717C352.62512,75.45712 353.48538,75.42055 353.95999,75.38634C355.56595,75.27058 356.15506,75.18968 356.767,75.1145C358.04254,74.95779 358.6962,74.86233 359.35632,74.76717C360.01886,74.67167 361.33334,74.47167 362.62134,74.27167C363.26532,74.17167 363.91711,74.07024 364.58334,73.97167C365.26913,73.87021 365.98083,73.768 366.72534,73.67167C368.33234,73.46375 369.20618,73.3703 370.11734,73.27167C371.05417,73.17026 372.0054,73.0722 372.95834,72.97167C373.9014,72.87219 374.82285,72.77622 375.70932,72.67167C377.33435,72.48001 378.05002,72.37529 378.70267,72.273C379.30032,72.17933 379.8476,72.08015 380.82535,71.90767C381.69034,71.75507 382.89868,71.57979 383.69101,71.52884C384.45761,71.47955 385.18567,71.47392 386.16666,71.47167C386.99017,71.46978 387.94818,71.47167 388.922,71.47167C389.76801,71.47167 390.41867,71.47158 391.15732,71.47167C392.46432,71.47184 393.46719,71.47462 393.99734,71.493C395.09653,71.53112 395.65839,71.56843 396.21866,71.64233C397.88586,71.86225 398.41565,72.02659 399.44266,72.32233C399.93936,72.46537 400.86862,72.81278 402.16666,73.13834C402.92432,73.32836 403.63736,73.42669 404.64816,73.46267C405.66605,73.4989 406.388,73.47167 407.15732,73.47167C407.98267,73.47167 408.87201,73.47167 409.83334,73.47167C410.86932,73.47167 411.40982,73.47167 412.52084,73.47167C413.08533,73.47167 414.21735,73.47236 415.33334,73.47167C416.41599,73.471 416.94745,73.4742 418,73.45084C418.52542,73.43918 419.58539,73.40308 420.66666,73.30501C421.78436,73.20363 422.34882,73.119 422.91467,73.03567C424.04001,72.86994 424.59253,72.77942 426.16666,72.47167C426.65778,72.37566 427.58447,72.17035 428.45834,71.99251C429.28989,71.82329 430.49857,71.62294 431.29733,71.55701C432.07758,71.4926 432.82797,71.47807 433.52933,71.47301C434.72797,71.46436 435.64267,71.47167 436.616,71.47167C437.384,71.47167 438.35013,71.49442 438.96167,71.41451C440.20267,71.25233 440.78946,71.02547 441.49066,70.825C442.32816,70.58556 443.33203,70.29999 444.51999,69.98901C445.16263,69.82078 445.82608,69.65464 446.5,69.49251C447.17279,69.33065 447.83075,69.15147 449.66666,68.80501C450.19095,68.70606 451.11249,68.56503 451.89584,68.51334C452.89194,68.44761 454.09732,68.47167 454.67868,68.47167C455.48566,68.47167 456.68567,68.47167 457.60016,68.47167C458.38535,68.47167 459.32535,68.47167 460.01599,68.47167C461.02084,68.47167 462.04285,68.47167 462.76132,68.47167C463.55182,68.47167 464.57849,68.47167 465.47916,68.47167C466.5,68.47167 467.29999,68.47167 468.10001,68.47167C469.10449,68.47167 469.95718,68.46538 470.92117,68.47184C471.71472,68.47716 472.54547,68.35212 473.52933,68.757C474.25366,69.05509 474.80444,70.03973 475.60001,70.35017C476.44604,70.68031 477.25717,70.47167 478.32535,70.47167C479.01599,70.47167 479.97916,70.47167 480.92133,70.47167C481.83334,70.47167 482.772,70.47167 483.32132,70.47167C484.5,70.47167 485.40451,70.47167 486.02084,70.47167C486.98532,70.47167 488.021,70.47167 488.74365,70.47167L489.80267,70.47167L490.44534,70.47167L491.62851,70.47167" id="svg_33" stroke-width="3" stroke="#000" fill="none"/>
  <path t="187867,187917,187936,187936,187950,187951,187967,188000,188017,188017,188034,188034,188034,188050,188050,188067,188067,188067,188067,188107,188107,188107,188107,188139,188139,188150,188167,188167,188184,188184,188184,188200,188200,188200,188200,188217,188234,188234,188259,188275,188291,188300,188317,188334,188334,188350,188350,188367,188367,188367,188517,188548,188566,188566,188583,188583,188729,188729,188729,188744,188744,188771,189040,189040" d="M449.5,11.47167C449,13.97167 448.66309,14.80124 448.47467,15.64634C448.26251,16.59791 447.65414,17.23726 447.51068,18.07167C447.35815,18.95872 447.5,19.90367 447.5,20.52767C447.5,21.52367 447.49936,22.47167 447.5,23.11367C447.50134,24.41834 447.50699,25.14121 447.94318,26.01484C448.32745,26.78448 448.75162,27.33295 449.18799,27.95967C449.91174,28.99913 450.43948,29.71753 450.97916,30.40917C451.48215,31.05384 452.17615,31.79361 452.81732,32.33834C453.47394,32.89618 453.5,33.78517 453.5,34.52767C453.5,35.52634 453.5,36.169 453.5,37.228C453.5,38.305 453.5,38.98367 453.5,39.90917C453.5,40.69967 453.62488,41.85441 453.216,42.67167C452.88519,43.33288 452.50226,44.17167 452.5,45.07167C452.49777,45.97167 452.5,46.87167 452.5,47.77167C452.5,48.67434 452.5,49.44234 452.5,50.4815C452.5,51.257 452.5,52.305 452.5,53.01001C452.5,53.81001 452.5,54.83567 452.5,55.77617C452.5,56.63834 452.46655,57.47225 452.50015,58.4505C452.52875,59.28297 452.78967,60.2394 453,60.9925C453.22198,61.78736 453.41467,62.785 453.48932,63.625L453.50134,64.58633L453.66666,65.47167L454.07468,66.07167" id="svg_35" stroke-width="3" stroke="#000" fill="none"/>
  <path t="189491,189533,189533,189549,189586,189586,189602,189603,189616,189633,189649,189649,189649,189666,189666,189666,189666,189666,189666,189683,189683,189683,189683,189683,189735,189735,189735,189735,189735,189735,189771,189771,189803,189817,189835,189851,189867,189884,189884,189900,189900,189917,189917,189917,189917,189934,189934,189934,189950,189950,189950,189995,189995,190011,190019,190036,190132,190132,190295,190331,190349,190349,190371,190383,190383,190399" d="M419.5,18.47167C421.32535,18.90767 421.99054,19.312 422.87466,19.861C423.646,20.33998 424.54254,20.32707 425.33334,20.63834C426.12045,20.94816 426.48962,21.97147 426.5,22.77617C426.51309,23.79375 426.4968,24.57738 426.41467,25.41434C426.30228,26.55996 426.2265,27.01294 426.04266,27.99434C425.94516,28.51483 425.70172,29.58171 425.52802,30.10634C425.01691,31.64993 424.74686,32.11131 424.23868,33.01034C423.98709,33.45542 423.4212,34.30422 422.66666,35.63834C422.41266,36.08743 421.9603,37.00819 421.75732,37.465C421.37146,38.33345 420.95389,39.09853 420.672,40.33034C420.48682,41.13953 420.93448,41.86611 421.41599,42.67034C421.86121,43.41396 422.48199,43.90717 422.5,44.87167C422.51697,45.78051 422.5,46.44234 422.5,47.486C422.5,48.293 422.5,49.47167 422.5,50.07167C422.5,50.97167 422.5,51.87167 422.5,52.7715C422.5,53.661 422.5,54.5145 422.5,55.55017C422.5,56.23567 422.45853,57.07139 422.50449,58.06717C422.54703,58.98891 423.11719,59.74979 423.41467,60.67167C423.69229,61.53204 423.70761,62.44578 424.07468,63.07167C424.52716,63.8432 424.96194,64.70805 425.33334,65.47167C425.70001,66.22558 426,66.99251 426.41467,67.95567L426.48932,68.64634L426.5,69.58633" id="svg_36" stroke-width="3" stroke="#000" fill="none"/>
  <path t="191144,191201,191217,191217,191217,191233,191233,191233,191249,191249,191249,191266,191266,191283,191299,191299,191316,191316,191316,191333,191333,191333,191333,191333,191349,191349,191349,191349,191349,191366,191366,191366,191366,191383,191383,191383,191399,191399,191399,191416,191416,191416,191416,191485,191485,191516,191533,191549,191549,191566,191566,191566,191583,191583,191583,191599,191599,191599,191651,191651,191667,191683" d="M378.5,31.47167C380.172,30.48234 381.043,30.47167 382.04166,30.47167C382.60901,30.47167 383.80026,30.4581 384.70001,30.48234C385.30029,30.49851 386.50476,30.61689 387.39099,30.82434C387.96173,30.95794 389.15811,31.36343 389.95834,31.45084C390.79553,31.54228 391.66489,31.87809 391.97916,32.51334C392.43219,33.4291 392.47852,34.3032 392.49551,35.04317C392.52521,36.33567 392.49847,37.13873 392.48932,37.569C392.47018,38.46782 392.44559,39.39379 392.2785,40.75017C392.22461,41.18768 392.07339,42.03772 391.88934,42.861C391.70792,43.67246 391.40295,44.87209 391.20001,45.66267C391.00287,46.43074 390.83905,47.17029 390.39999,48.42884C390.12427,49.21922 389.78738,49.91475 389.39984,50.89317C389.07883,51.70359 388.9035,52.30076 388.33334,53.47167C388.03751,54.07924 387.66885,54.64085 387.20984,55.45734C386.72543,56.31902 386.33524,57.2938 386.53601,58.07167C386.75952,58.93771 387.70178,59.50254 388.064,60.14367C388.5195,60.94994 388.48627,62.01318 388.49551,62.58067C388.51492,63.77135 388.5,64.661 388.5,65.5145C388.5,66.55017 388.49811,67.23567 388.5,68.07034C388.50226,69.06718 388.55716,69.81451 388.92532,70.83567L389.37851,71.57167" id="svg_37" stroke-width="3" stroke="#000" fill="none"/>
  <path t="192395,192482,192482,192499,192499,192499,192499,192516,192516,192532,192550,192550,192550,192550,192550,192550,192567,192567,192567,192567,192567,192567,192567,192567,192583,192583,192583,192583,192583,192583,192583,192583,192583,192600,192600,192600,192600,192600,192600,192747,192747,192747,192763,192763,192771,192771,192783,192800,192817,192817,192817,192817,192833,192833,192833,192850,192850,192867,192950,192950,192987,193027,193027,193043,193051,193051,193051,193067,193083,193243,193259" d="M351.5,24.47167C354.10901,24.47167 355.01434,24.46804 356.14249,24.47184C356.80084,24.47405 357.4855,24.42903 358.44666,24.557C359.45364,24.69108 360.33521,25.24082 360.47916,26.055C360.66779,27.12199 360.51431,27.81783 360.46799,28.64767C360.41351,29.62378 360.34695,30.16421 360.24399,30.733C359.89731,32.64823 359.65091,33.32846 359.4285,34.03867C359.19907,34.77126 358.9418,35.51489 358.668,36.26767C358.39087,37.0296 358.10193,37.79268 357.5,39.305C357.20309,40.05101 356.90234,40.78409 356.60449,41.5055C356.31168,42.21475 356.02115,42.9093 355.73599,43.589C355.45746,44.25296 355.18356,44.89894 354.66666,46.13834C354.18369,47.29632 353.9642,47.84687 353.52084,48.8675C353.31396,49.34378 352.94424,50.23769 352.30051,51.307C351.93716,51.91055 351.00916,52.50565 350.95468,53.58767C350.91385,54.39874 351.48083,55.29636 351.49866,55.98767C351.52347,56.95052 351.5,57.90367 351.5,58.97167C351.5,59.52634 351.5,60.51334 351.5,61.228C351.5,62.305 351.5,63.3055 351.5,63.90917C351.5,65.13834 351.49994,65.93001 351.5,66.77617C351.50009,67.79284 351.2002,68.64669 351.85718,69.36184C352.48694,70.04736 353.33337,70.24184 353.89999,70.88234C354.53949,71.60522 354.87189,72.31407 355.29999,72.98767C355.85391,73.85923 356.41467,74.67167 356.5,75.57167L356.5,76.47167" id="svg_38" stroke-width="3" stroke="#000" fill="none"/>
  <path t="193781,193928,193932,193949,193966,193982,193982,193999,193999,194016,194016,194016,194016,194032,194032,194032,194032,194032,194032,194032,194049,194049,194049,194049,194049,194049,194049,194049,194066,194066,194066,194066,194066,194066,194082,194082,194082,194181,194181,194181,194218,194233,194249,194266,194266,194266,194282,194282,194282,194299,194299,194299,194316,194316,194316,194332,194332,194431,194431,194463,194463,194467,194507" d="M322.5,24.47167C324.064,25.08234 324.42261,26.04197 325.02084,26.47167C325.81787,27.04416 326.50385,27.46785 327.10001,28.07167C327.80005,28.78071 328.229,29.32481 328.37817,30.2365C328.53427,31.19047 328.44534,31.97901 328.328,32.84634C328.19766,33.80971 327.93359,34.8452 327.78116,35.3905C327.62311,35.95598 327.2464,37.13029 327.03384,37.73784C326.81583,38.36102 326.33737,39.63992 326.07849,40.29284C325.55103,41.62312 325.26703,42.28764 324.97916,42.95084C324.69232,43.61164 324.40097,44.26439 324.09866,44.90234C323.51056,46.1434 322.90524,47.29839 322.60901,47.84384C322.32379,48.36902 321.77249,49.34261 321.51434,49.79117C320.83459,50.97239 320.42377,51.59258 320.0625,52.40917C319.60376,53.44608 319.51913,54.2604 319.50134,54.98634C319.47501,56.06068 319.5,56.97167 319.5,57.88234C319.5,58.7935 319.5,59.53417 319.5,60.24367C319.5,61.43967 319.5,62.12234 319.5,62.821C319.5,64.13834 319.5,64.96184 319.5,65.68634C319.5,66.63834 319.5,67.41984 319.5,68.46184C319.5,69.32883 319.5,70.21984 319.5,71.12884C319.5,71.87617 319.50134,72.87034 319.55716,73.81451L319.85266,74.71451L320.33334,75.47167" id="svg_39" stroke-width="3" stroke="#000" fill="none"/>
  <path t="196468,196632,196632,196649,196649,196649,196649,196666,196666,196666,196666,196666,196666,196666,196666,196682,196682,196682,196682,196682,196682,196682,196682,196699,196699,196699,196699,196699,196751,196751,196751,196751,196766,196766,196787,196799,196819,196849,196866,196882,196899,196899,196916,196916,196916,196916,196916,196932,196932,196932,196932,196949,196949,196949,196966,196966,196982,196982,196982,196999,196999,196999,197016,197016,197016,197067,197067,197083,197099,197116,197116,197373,197373" d="M297.5,21.47167C298.33334,21.805 298.49878,22.53398 298.5,23.63834C298.50089,24.44695 298.47131,25.0817 298.32849,25.80484C298.06241,27.15218 297.85654,27.66554 297.41949,28.79584C297.18219,29.40958 296.90356,30.03782 296.59601,30.67834C296.28006,31.33635 295.95267,32.00785 295.16666,33.305C294.7709,33.9581 294.34134,34.58905 293.89465,35.201C293.01813,36.40179 292.55426,36.95599 292.10535,37.49567C291.67148,38.01725 290.83713,38.97509 290.07199,39.81567C289.72058,40.20175 289.0546,40.902 288.46616,41.55817C287.65567,42.46193 287.17355,43.05859 286.75732,43.65034C286.19916,44.44385 285.63135,45.30515 285.509,46.16267C285.38058,47.0626 285.61862,47.9473 286.14734,48.52434C286.78076,49.21565 287.73242,49.0374 288.33334,49.63834C288.93427,50.23927 288.5206,51.21799 288.66666,52.13834C288.83496,53.1988 288.93225,53.60385 289.07468,54.47834C289.22324,55.39052 289.3913,56.74897 289.44284,57.6055C289.49115,58.40854 289.49774,59.15283 289.5,60.13834C289.50186,60.95733 289.5,61.86267 289.5,62.873C289.5,63.70767 289.47446,64.63905 289.509,65.42434C289.54523,66.24795 289.7825,67.33442 290.20984,68.0145C290.63681,68.69402 291.35071,69.46009 291.74283,70.06717C292.21689,70.80112 292.89685,71.65096 293.21466,72.27034C293.64566,73.11029 293.5,74.10767 293.5,74.957L293.5,75.87617L293.49866,76.87034L293.46399,77.63567" id="svg_40" stroke-width="3" stroke="#000" fill="none"/>
  <path t="197931,198018,198018,198032,198032,198049,198049,198066,198066,198066,198066,198066,198066,198082,198082,198082,198082,198082,198082,198099,198099,198099,198099,198099,198131,198131,198131,198150,198167,198183,198183,198200,198217,198217,198233,198233,198233,198250,198250,198250,198267,198267,198283,198300,198317,198317,198317,198317,198333,198333,198333,198333,198350,198350,198350,198350,198367,198367,198367,198434,198434,198450,198483,198499,198499,198516,198516,198532,198532,198549,198549,198566,198582,198603,198603,198626" d="M262.5,25.47167C264.33334,25.63834 264.46463,26.37844 264.14282,27.12434C263.75821,28.01579 263.19904,28.73971 262.62851,29.33867C262.01328,29.98457 261.44495,30.53001 260.78134,31.17967C260.41791,31.53546 259.63303,32.28915 259.21066,32.67567C257.89023,33.88407 257.41827,34.27147 256.95184,34.66717C256.48627,35.06213 255.55965,35.83367 255.10983,36.2145C253.82851,37.29933 253.44055,37.64697 252.71883,38.3055C252.0601,38.90656 251.48903,39.48043 250.66667,40.13834C249.98872,40.68071 248.96289,41.13311 249.04167,41.97167C249.12558,42.86471 249.69086,43.59769 250.2045,44.17167C250.86253,44.907 251.55388,45.63037 252.172,46.07167C252.9892,46.65511 253.77745,46.82985 254.49466,47.22884C255.39526,47.72984 255.85904,48.28948 256.29733,49.07301C256.83923,50.04174 257.17361,50.78453 257.7955,51.36184C258.43799,51.95829 258.5,52.805 258.5,53.495C258.5,54.36501 258.5,55.04501 258.5,56.21434C258.5,57.077 258.5,57.97167 258.5,58.86634C258.5,60.13834 258.50757,60.90118 258.48932,61.59967C258.47229,62.25061 258.3548,63.47642 258.14734,64.36267C258.01373,64.9334 257.60397,66.12933 257.52084,66.93001C257.4339,67.76743 257.5,68.67167 257.5,69.57184C257.5,70.357 257.5,71.30767 257.5,72.07301C257.5,73.07167 257.5,73.87167 257.5,74.87034C257.5,75.63567 257.5,76.71451 257.5,77.57167L257.5,78.47167L257.5,79.27167L257.44284,80.17167" id="svg_41" stroke-width="3" stroke="#000" fill="none"/>
  <path t="199356,199399,199399,199416,199416,199432,199449,199482,199499,199499,199499,199499,199499,199499,199516,199516,199516,199516,199516,199516,199516,199516,199516,199532,199532,199532,199532,199532,199579,199579,199587,199599,199599,199616,199632,199651,199651,199651,199666,199682,199699,199699,199716,199716,199716,199716,199716,199732,199732,199732,199732,199755,199756,199756,199848,199875,199907,199916,199916,199932,199963,200017,200017" d="M228.5,31.47167C230.336,31.47167 231.10133,31.47167 232.0955,31.47167C233.01466,31.47167 233.97925,31.46011 234.89999,31.47167C235.79572,31.48292 236.36668,32.30171 236.40933,32.90367C236.46523,33.69245 236.35657,34.67072 236.26683,35.22284C236.16948,35.82177 235.84398,37.14167 235.61433,37.85684C235.37248,38.61001 235.08655,39.38026 234.77733,40.16234C234.46458,40.95334 234.13277,41.73583 233.79633,42.50384C233.46866,43.25181 232.83469,44.63897 232.54333,45.26367C232.02574,46.37347 231.78407,46.85538 231.39333,47.71034C230.81966,48.96552 230.55727,49.59514 230.5,50.57167C230.44731,51.47013 230.30586,52.30558 230.55716,53.17167C230.78299,53.94998 231.67519,54.63005 232.14816,55.12434C232.80212,55.80775 233.41435,56.57534 233.5,57.57167C233.57709,58.46836 233.5,59.21567 233.5,60.13834C233.5,60.81167 233.5,61.605 233.5,62.47834C233.5,63.39167 233.5,64.74984 233.5,65.60551C233.5,66.40917 233.5,67.15284 233.5,68.13834C233.5,68.95284 233.5,69.8055 233.5,70.83567C233.5,71.77167 233.32652,72.72895 233.66667,73.47167C234.03424,74.27426 234.7955,74.77167 235.37849,75.57167L235.5,76.47167L235.5,77.27167" id="svg_42" stroke-width="3" stroke="#000" fill="none"/>
  <path t="200579,200667,200683,200699,200699,200715,200715,200715,200715,200715,200715,200732,200732,200732,200732,200732,200732,200749,200749,200749,200749,200749,200765,200765,200765,200765,200765,200782,200782,200850,200865,200865,200891,200899,200899,200915,200932,200932,200949,200949,200949,200965,200965,200965,200965,200982,200982,200982,200982,200999,200999,201015,201098,201098,201114,201131,201149,201201,201217,201217,201299,201331" d="M204.5,27.47167C206.2,27.52884 207.16757,27.90993 207.44284,28.79417C207.64063,29.42952 207.50314,30.67919 207.4955,31.5575C207.4912,32.05169 207.46713,33.12513 207.44284,33.69417C207.41789,34.27848 207.28351,36.07193 207.21333,36.66901C207.14348,37.2633 206.96751,38.43177 206.85333,38.99967C206.63115,40.10474 206.35043,41.14414 206.01601,42.10101C205.8555,42.56027 205.49458,43.42777 205.15266,44.26267C204.65883,45.46849 204.38272,46.26682 204.25717,46.65817C203.90327,47.76133 203.80441,48.46349 203.3,49.41567C202.88097,50.2067 201.96057,50.81233 201.66667,51.63834C201.3911,52.41283 201.83568,53.21126 202.60001,53.69317C203.25156,54.10398 203.92671,54.8461 204.5,55.47167C205.09274,56.11846 205.40741,57.01186 205.464,57.74367C205.52859,58.57877 205.5,59.77184 205.5,60.37617C205.5,61.30767 205.5,61.957 205.5,63.35434C205.5,64.08633 205.5,64.81034 205.5,65.50233C205.5,66.69967 205.5,67.61433 205.5,68.58633C205.5,69.47167 205.48201,70.27185 205.5,71.17167C205.51801,72.07221 206.01744,72.82203 206.416,73.67167C206.81961,74.53209 207.14734,75.17167 207.48933,76.07167L207.5,76.97167" id="svg_43" stroke-width="3" stroke="#000" fill="none"/>
  <path t="202014,202115,202115,202132,202132,202149,202149,202149,202165,202165,202165,202165,202165,202182,202182,202182,202199,202199,202215,202215,202215,202232,202232,202232,202232,202232,202249,202249,202249,202249,202249,202265,202265,202265,202265,202265,202282,202282,202282,202282,202299,202339,202355,202365,202365,202382,202382,202399,202399,202415,202415,202432,202432,202449,202449,202465,202465,202483,202483,202499,202515,202515,202532,202532,202549,202565,202582,202582,202696" d="M169.5,24.47167C172.28934,24.48234 173.06705,24.45033 173.88533,24.91834C174.52005,25.28136 175.26425,25.96862 176.0625,26.4925C176.66049,26.88496 177.66315,27.47807 178.38266,27.87034C179.11116,28.26751 179.83786,28.63726 180.53067,28.98634C181.45576,29.45246 182.27669,29.76386 183.01199,30.35567C183.67448,30.88888 184.15434,31.65469 184.37849,32.67217C184.5652,33.51971 184.50195,34.32767 184.49983,35.33617C184.49812,36.14318 184.48349,37.03433 184.464,37.50367C184.42363,38.47608 184.28595,39.97256 184.21333,40.47034C184.06848,41.46333 183.98665,41.95774 183.73833,42.91451C183.3745,44.31634 183.19278,44.75557 182.84734,45.61C182.51355,46.43561 182.13948,47.20424 181.66667,48.305C181.37721,48.97891 181.10753,49.93304 180.70134,50.61434C180.20844,51.44109 179.51801,51.90717 179.5,52.88234C179.4832,53.79285 179.45421,54.47275 179.50017,55.45034C179.54288,56.35867 179.89542,57.11336 180.14734,57.87617C180.47058,58.85495 180.49466,59.67163 180.5,60.67167C180.50427,61.47166 180.5,62.47167 180.5,63.26101C180.5,64.30501 180.5,65.09701 180.5,65.95567C180.5,66.81901 180.5,67.84634 180.5,68.79301C180.5,69.47167 180.5,70.45017 180.5,71.27034C180.5,72.17167 180.5,73.10767 180.5,73.95567L180.5,74.81901L180.5,75.83567" id="svg_44" stroke-width="3" stroke="#000" fill="none"/>
  <path t="203345,203435,203449,203465,203482,203482,203499,203499,203499,203499,203499,203515,203515,203515,203515,203515,203515,203515,203515,203515,203532,203532,203532,203532,203532,203532,203571,203571,203571,203603,203619,203619,203632,203649,203665,203682,203682,203699,203715,203715,203732,203732,203732,203749,203749,203749,203765,203765,203787,203819,203835,203859,203859,204043,204059,204353,204368,204368,204580,204580" d="M155.5,25.47167C157.3,25.47167 158.21768,25.49033 158.55267,26.23334C158.94435,27.10208 159.14986,27.73863 159.33333,28.805C159.5051,29.80333 159.46727,30.2087 159.41733,31.109C159.35745,32.18837 159.17114,33.47236 159.05716,34.19967C158.93542,34.97643 158.79294,35.78818 158.63867,36.62367C158.48199,37.4722 158.31653,38.32005 158.14816,39.15567C157.98448,39.96804 157.66829,41.47203 157.5215,42.14234C157.38683,42.75733 157.26747,43.3222 157.02083,44.305C156.81316,45.13255 156.41017,46.43239 156.11067,47.189C155.86533,47.8088 155.50322,48.84566 155.50017,49.79284C155.49805,50.45116 155.98615,51.23971 156.47467,51.90767C157.03139,52.66888 157.41501,53.45906 157.49867,54.27167C157.59671,55.2238 157.4631,56.13714 157.55716,56.93334C157.67137,57.90022 157.94316,58.6924 158.14734,59.519C158.40074,60.54493 158.48077,61.23515 158.49867,62.07034C158.52002,63.06694 158.5,63.98634 158.5,64.83567C158.5,65.77167 158.66371,66.72897 158.27867,67.57167C157.97287,68.24097 157.50006,69.07161 157.5,69.97167C157.49994,70.8824 157.72133,71.79317 158,72.49251L158.33333,73.47167L158.464,74.23967" id="svg_45" stroke-width="3" stroke="#000" fill="none"/>
  <path t="205480,205532,205549,205565,205582,205599,205615,205615,205632,205632,205632,205649,205649,205649,205649,205665,205665,205682,205682,205682,205699,205699,205699,205715,205715,205739,205755,205765,205765,205782,205782,205782,205850,205850,205865,205891,205907,205907,205923,205923,205939,205939,205955,205955,205971,205982,205999,206015,206032,206059,206059,206075,206075,206099,206099,206167,206182,206203,206228,206298,206314" d="M21.5,26.47167C23.2,26.47167 24.12003,26.46896 24.9,26.89701C25.72174,27.34797 26.4714,27.83206 26.5,28.79317C26.5208,29.4922 26.5,30.47167 26.5,31.293C26.5,31.986 26.5,33.11434 26.5,33.777C26.5,34.821 26.5,35.50367 26.5,36.70234C26.5,37.45084 26.5,38.63834 26.5,39.42434C26.5,40.24634 26.51963,41.3054 26.4955,42.0145C26.46645,42.8683 26.31273,43.9211 25.88933,44.59967C25.40432,45.377 24.52065,45.75445 24.5,46.63834C24.48051,47.47248 24.79735,48.3426 25.36133,48.84634C25.98075,49.39958 26.67056,50.17745 27.1955,50.76184C27.89281,51.53812 28.48958,52.01316 28.5,52.957C28.50801,53.68229 28.5,54.6715 28.5,55.63567C28.5,56.58767 28.5,57.35567 28.5,58.297C28.5,58.98767 28.5,60.061 28.5,60.97167C28.5,61.87167 28.5,62.77167 28.5,63.673C28.5,64.63834 28.33848,65.33924 28.66667,66.30501C28.90366,67.0024 29.83085,67.57961 30.21467,68.27167C30.67193,69.09615 30.5,70.07167 30.5,70.97167L30.5,71.87167L30.5,72.77167L30.5,73.67167" id="svg_46" stroke-width="3" stroke="#000" fill="none"/>
  <path t="207245,207315,207315,207332,207332,207332,207349,207349,207365,207365,207382,207399,207399,207399,207415,207415,207415,207415,207415,207432,207432,207432,207432,207449,207449,207449,207465,207465,207465,207465,207465,207482,207482,207482,207482,207482,207482,207499,207499,207499,207499,207582,207582,207613,207632,207632,207649,207665,207665,207682,207682,207699,207699,207715,207715,207732,207755,207755,207771,207771,207782,207799" d="M42.5,29.47167C44.34667,29.48234 45.19583,29.51577 46.184,29.757C47.00908,29.95842 47.56165,30.1407 48.57817,30.57167C49.45084,30.94166 50.21887,31.59079 50.58267,32.27167C50.9802,33.01568 51.66461,33.76471 51.97917,34.555C52.27836,35.30669 52.39395,36.33492 52.44283,37.13867C52.49598,38.01247 52.4936,38.46764 52.49866,39.39034C52.50612,40.74982 52.50695,41.60582 52.47917,42.40917C52.45343,43.15328 52.29888,44.43456 52.14283,44.96634C51.91832,45.73145 51.49812,46.80441 51.29733,47.44367C50.95513,48.53317 50.85286,48.93837 50.52934,49.75967C49.99756,51.10962 49.73944,51.56031 49.23867,52.49701C48.98362,52.97408 48.44676,53.91821 48.18267,54.38767C47.41776,55.74739 47.18005,56.17822 46.75733,57.00367C46.37545,57.74936 45.73681,58.94612 45.572,59.76367C45.392,60.65656 45.34947,61.60712 45.58533,62.27167C45.91558,63.20216 46.64201,63.7711 46.97917,64.47167C47.43755,65.42412 47.49775,66.22433 47.5,67.12884C47.50186,67.87617 47.5,68.87034 47.5,69.81451C47.5,70.719 47.5,71.63834 47.5,72.47167C47.5,73.45017 47.5,74.27034 47.5,75.17167L47.5,76.07167" id="svg_47" stroke-width="3" stroke="#000" fill="none"/>
  <path t="208446,208532,208532,208532,208555,208555,208555,208555,208565,208565,208582,208582,208598,208598,208615,208615,208615,208632,208632,208632,208632,208648,208648,208665,208665,208707,208707,208723,208732,208748,208748,208765,208765,208782,208782,208782,208782,208798,208798,208798,208835,208835,208835,208848,208865,208865,208882,208898,208898,208950,208966,208983,209065,209108,209108" d="M65.5,28.47167C66.70133,29.61167 67.00747,30.53884 67.25716,31.2325C67.64599,32.31267 67.97012,32.99051 68.47916,33.90917C68.78274,34.45702 69.40604,35.48927 69.491,36.21984C69.59599,37.1228 69.5,37.87617 69.5,38.873C69.5,39.70767 69.50727,40.89345 69.4955,41.43334C69.4762,42.31869 69.34418,43.6402 69.216,44.353C69.08567,45.07774 68.89448,45.76809 68.66666,46.97167C68.51542,47.77071 68.5,48.63834 68.5,49.47167C68.5,50.45017 68.5,51.27034 68.5,52.17167C68.5,53.10767 68.49938,53.957 68.5,54.87617C68.50067,55.873 68.46119,56.50169 68.66666,57.63834C68.81113,58.43747 69.03271,58.98512 69.216,59.873C69.46147,61.06208 69.41494,61.67428 69.60983,62.5145C69.85559,63.57405 70.40146,64.18872 70.932,64.98501C71.48311,65.81216 71.5,66.79301 71.5,67.47167C71.5,68.45017 71.5,69.47167 71.5,70.27167C71.5,71.17167 71.5,72.07167 71.5,72.97167L71.5,73.77617L71.50017,74.79301L71.52084,75.47167" id="svg_48" stroke-width="3" stroke="#000" fill="none"/>
  <path t="210328,210415,210432,210432,210432,210448,210448,210448,210448,210465,210465,210465,210465,210482,210482,210482,210482,210498,210499,210499,210499,210515,210515,210515,210515,210532,210532,210532,210532,210532,210532,210532,210548,210548,210548,210548,210548,210565,210565,210582,210598,210598,210615,210632,210648,210665,210665,210682,210682,210698,210698,210698,210715,210732,210748,210765,210765,210782,210782,210834,210834,210850" d="M79.5,28.47167C81.136,29.08234 81.80365,29.60735 82.5625,29.97167C83.25694,30.30507 84.14864,30.55383 85.15067,30.89301C85.85375,31.13099 86.58524,31.36411 87.457,32.01467C88.02463,32.43827 88.68833,33.28616 89.09734,33.87434C89.71442,34.76176 90.13271,35.35334 90.628,36.30767C90.95775,36.94305 91.28532,37.98858 91.38567,38.72434C91.48713,39.46831 91.49866,40.58767 91.5,41.65084C91.50085,42.3325 91.5,43.03417 91.5,43.79584C91.5,45.13834 91.5,46.209 91.5,46.78684C91.5,47.38367 91.5,48.60634 91.5,49.21817C91.5,49.821 91.5,51.50684 91.5,52.013C91.5,52.94234 91.5,53.76767 91.5,54.49701C91.5,55.69967 91.5,56.61434 91.5,57.58634C91.5,58.47167 91.5,59.27167 91.5,60.17167C91.5,61.07167 91.45318,61.99377 91.50267,62.95567C91.53834,63.64889 92.0565,64.60631 92.72134,65.09701C93.48435,65.66017 94.13358,66.08384 94.628,66.64634C95.40209,67.52703 95.98205,68.08009 96.41467,68.75834C96.89011,69.50374 96.5,70.49251 96.5,71.47167C96.5,72.261 96.5,73.30501 96.5,74.061L96.5,74.97167" id="svg_49" stroke-width="3" stroke="#000" fill="none"/>
  <path t="211550,211633,211649,211649,211649,211649,211666,211666,211666,211666,211683,211683,211683,211699,211699,211699,211716,211716,211733,211733,211733,211733,211749,211749,211749,211766,211766,211766,211783,211783,211783,211799,211799,211816,211816,211833,211833,211849,211867,211883,211883,211899,211899,211916,211916,211933,211933,211933,211933,211949,211949,211949,211995,212035,212162,212262,212291,212307,212307,212566" d="M108.5,26.47167C110.02084,27.03417 110.67365,27.80002 111.15717,28.486C111.52621,29.00959 112.10223,29.87374 112.69984,30.77151C113.09609,31.36678 113.49223,31.94261 114.01466,32.78634C114.62885,33.77823 115.01317,34.45366 115.21333,35.15567C115.49303,36.13664 115.48837,36.9715 115.49866,37.78767C115.51129,38.78893 115.5,39.73301 115.5,40.805C115.5,41.43967 115.5,42.47167 115.5,43.16634C115.5,44.13834 115.54921,44.9663 115.44283,45.91984C115.3334,46.9007 115.08468,47.70405 114.7955,48.519C114.42618,49.55983 114.10545,50.23829 113.8,50.86717C113.31004,51.87595 112.9314,52.44437 112.66666,53.47167C112.467,54.24643 112.5,55.305 112.5,56.16717C112.5,56.97167 112.5,57.88234 112.5,58.793C112.5,59.64634 112.5,60.58767 112.5,61.35567C112.5,62.32901 112.5,62.99051 112.5,64.1145C112.5,64.7815 112.5,65.857 112.5,66.589C112.5,67.64984 112.49992,68.61433 112.5,69.45284C112.50008,70.32851 112.91762,71.02611 113.3785,71.69317C113.88255,72.4227 113.78533,73.38767 114.6,73.69317L115.2,74.17617L115.88934,74.85033" id="svg_50" stroke-width="3" stroke="#000" fill="none"/>
  <path t="212978,213018,213032,213032,213048,213065,213065,213082,213082,213098,213098,213115,213115,213115,213115,213132,213132,213132,213132,213132,213132,213148,213148,213148,213148,213148,213165,213165,213165,213165,213182,213234,213234,213250,213274,213290,213306,213307,213315,213332,213332,213348,213348,213348,213365,213365,213365,213365,213365,213365,213382,213382,213398,213398,213419,213483,213483,213499,213661,213965" d="M129.5,20.47167C131,21.97167 131.79457,22.60102 132.21466,23.27167C132.67749,24.01057 133.28899,24.68432 133.79466,25.22884C134.52734,26.0178 134.4955,26.87614 134.5,27.873C134.50377,28.70766 134.5,29.63834 134.5,30.44234C134.5,31.055 134.5,32.12901 134.5,32.97167C134.5,33.925 134.5,34.95834 134.5,35.4925C134.5,36.57084 134.5,37.105 134.5,38.62867C134.5,39.10101 134.5,39.99967 134.5,40.85034C134.5,41.66901 134.5,42.87117 134.5,43.65817C134.5,44.40917 134.5,45.41567 134.5,46.41567C134.5,47.47167 134.5,48.27167 134.5,49.17167C134.5,50.07167 134.5,50.88234 134.5,51.793C134.5,52.64634 134.5,53.58634 134.5,54.57201C134.5,55.286 134.5,56.24634 134.5,57.07584C134.5,57.75217 134.50235,58.97168 134.49867,59.92101C134.49673,60.42068 134.49133,61.43054 134.44284,62.39934C134.42032,62.84932 134.22221,64.2486 133.92534,65.05434C133.59229,65.95827 133.63503,66.65538 133.4955,67.71451C133.38002,68.59109 132.85266,69.17167 132.51067,70.07167L132.5,70.97167L132.51067,71.86101" id="svg_51" stroke-width="3" stroke="#000" fill="none"/>
 </g>
</svg>