<svg width="500" height="327.8688524590164" xmlns="http://www.w3.org/2000/svg" xmlns:svg="http://www.w3.org/2000/svg" xmlns:xlink="http://www.w3.org/1999/xlink">
 <!-- Created with SVG-edit - http://svg-edit.googlecode.com/ -->
 <g display="inline" class="layer">
  <title>Layer 1</title>
  <path t="0,425,469,469,504,522,1231,1289,1432,1432,1534,1562,1720,1773,1817,1872,1923,1923,2051,2176,2176,2218,2265,2266,2339,2389,2389,2426,2450,2475,2513,2514,2584,2584,2616,2738,2823,2849,3003,3003,3169,3241,3241,3282,3314,3314,3368,3415,3574,3660,3688,3774,3774,4000,4018,4018,4235,4372,4646,4838,4927,5214,5463,5514,5783,6052,6052,6106,6212,6407,6434,6681,6796,6818,6900,7031,7086,7138,7139,7186,7226,7226,7394,7500,7500,7528,7617,7674,7674,7721,7840,7984,8037,8104,8161,8247,8306,8306,8392,8392,8422,8449,8473,8505,8506,8626,8626,8657,8713,8970,9071,9071,9104,9104" d="M135.5,170.43443C134.47917,170.41359 133.36072,170.37787 132.86166,169.72992C132.27477,168.96791 132.50226,167.93443 132.5,167.03442C132.49774,166.13441 132.17387,165.39777 131.784,164.63443C131.39946,163.88155 131.5,162.93443 131.5,162.03442C131.5,161.13443 131.5,160.23442 131.5,159.33443C131.5,158.43443 131.5,157.63443 131.5,156.67726C131.5,155.78175 131.35587,154.90425 131.51067,154.07042C131.69284,153.08913 132.30133,152.63443 133,151.93443C133.69867,151.23442 134.17142,150.61626 134.52533,149.83443C134.89226,149.02383 135.79216,148.71356 136.59984,148.21275C137.25067,147.80919 137.22328,146.71147 137.584,146.00375C137.99635,145.19475 138.50975,144.57884 139.11067,143.83443C139.63835,143.18074 140.41217,142.44812 140.4955,141.73442C140.60405,140.80473 140.3898,139.93588 140.55716,139.0871C140.73903,138.1647 141.64139,137.66408 142.3,137.35043C143.1378,136.95146 143.2765,135.92062 143.85716,135.13893C144.35696,134.46609 145.22946,134.21828 145.66667,133.43443C146.03027,132.78256 146.71675,132.00826 147.5,131.60109C148.24385,131.21442 149.1539,130.95187 149.88933,130.45976C150.55881,130.01178 151.11063,129.43977 152,129.43443C152.89998,129.42903 153.8,129.43443 154.7,129.43443C155.60001,129.43443 156.5,129.43443 157.3,129.43443C158.2,129.43443 159.10001,129.43443 160,129.43443C160.89999,129.43443 161.82169,129.23953 162.69867,129.43576C163.50571,129.61633 164.07378,130.37804 164.52533,131.04509C165.02412,131.78192 165.5992,132.53523 166.10001,133.03442C166.79887,133.73105 167.53824,134.16835 168.3,134.51843C169.04973,134.86299 169.80304,135.55855 170.21466,136.23442C170.72775,137.0769 171.41626,137.58871 171.5,138.43443C171.57883,139.23053 171.5,140.13443 171.5,141.03442C171.5,141.93443 171.5,142.83443 171.5,143.73442C171.5,144.63443 171.5,145.53442 171.5,146.43443C171.5,147.31976 171.5,148.25977 171.5,148.95042C171.5,150.02376 171.5817,150.83853 171.4955,151.73892C171.4119,152.61221 171.02687,153.46375 170.5,154.26776C170.05923,154.94038 169.52859,155.73306 169.5,156.63443C169.47147,157.53397 169.5,158.43443 169.44284,159.19159L169.14734,160.0871L168.85266,160.78175" id="svg_1" stroke-width="3" stroke="#000" fill="none"/>
  <path t="10532,10726,10726,10762,10809,10830,10845,10912,10930,10930,10945,10978,11002,11012,11034,11095,11162,11162,11354,11385,11410,11432,11457,11490,11490,11529,11546,11594,11642,11642,11681,11730,11730,11752,11753,11769,11830,11881,11882,11906,11961,11961,12047,12047,12073,12113,12463,12593,12737,12785,12877,12979,12979,13033,13099,13183,13183,13241,13480,13551,13551,13577,13601,13627,13701,13736,13751,13964,14034,14074,14089,14089,14112,14152,14342" d="M133.5,152.43443C133.5,151.43443 133.89296,150.50407 133.41467,149.71976C132.92461,148.91612 132.57867,148.33093 132.5,147.48709C132.41631,146.58945 131.38989,146.37982 130.936,145.82376C130.3215,145.07092 129.74837,144.49077 129.5045,143.72992C129.21748,142.83444 129.01126,142.14745 128.2785,141.55576C127.6327,141.03427 126.70221,140.77884 126.52084,139.93443C126.33178,139.05426 126.5,138.13443 126.5,137.23442C126.5,136.33443 126.32645,135.39618 126.58533,134.63443C126.8871,133.74652 127.34879,133.02177 127.5045,132.13443C127.66746,131.20581 128.30092,130.63402 128.89999,130.03442C129.5997,129.33412 130.2361,128.72105 131.14816,128.48709C131.9176,128.28972 132.73886,127.99769 133.33333,127.26776C133.90012,126.57182 134.25105,125.87703 135,125.41359C135.75623,124.94565 136.01596,124.189 136.7,123.32109C137.14877,122.75169 137.93356,122.27943 138.55267,121.78709C139.19995,121.27236 140.2,121.43443 141.10001,121.43443C142,121.43443 142.96617,121.29911 143.7,121.71976C144.38657,122.11331 145.04866,122.89763 145.44733,123.73443C145.86029,124.60122 146.43819,124.91626 147.14284,125.48709C147.87335,126.07887 148.5,126.43443 149.3,126.43443C150.2,126.43443 151.20258,126.03622 152.064,126.47043C152.76288,126.8227 153.33583,127.23814 154.2,127.49159C155.07742,127.74892 155.69698,128.39171 156.60001,128.43443C157.49899,128.47696 158.3,128.51976 159.10001,129.00909L159.89999,129.39842L160.8,129.43443" id="svg_2" stroke-width="3" stroke="#000" fill="none"/>
  <path t="21915,22168,22562,22578,22803,22841,22906,22993,22994,23064,23096,23195,23241,23307,23307,23307,23352,23517,23517,23543,23569,23616,23726,23726,23742,23792,23890,24005,24183,24330,24409,24444,24444,24510,24528,24562,24761,24843,24926,24945,24961,24961,25263,25344,25344,25411,25411,25494,25624,25647,25664,25737,25922,25922,25969,25981,25999,26048,26089,26090,26115,26212" d="M134.5,154.43443C134.5,155.43443 134.5,155.89276 134.5,155.03442C134.5,154.14343 134.5,154.23709 134.5,155.07042C134.5,156.0871 134.49754,156.78175 134.5,157.79843C134.50226,158.72993 135.02124,159.32301 135.52083,159.97609C136.05948,160.68024 136.51692,161.43822 137.01733,161.95042C137.73277,162.68272 138.38747,163.42513 138.49867,164.23442C138.61368,165.07141 139.35159,165.44681 140,165.95526C140.76675,166.55652 140.96086,167.3885 141.55267,168.07726C142.119,168.73634 143.15869,168.9099 143.88933,169.40909C144.5658,169.87126 144.73018,170.94536 145.60001,171.31293C146.43654,171.66643 147.3002,171.4157 148.2,171.43443C149.06456,171.45244 149.54396,172.28867 150.30133,172.43309C151.1841,172.60143 152.10001,172.43507 153.02083,172.43443C153.98267,172.43376 154.93318,172.53938 155.47917,171.91359C156.0498,171.25955 156.38727,170.63535 157.31467,170.03442C157.93106,169.63504 158.48508,168.81854 158.92534,168.03442C159.38446,167.21671 159.17685,166.15488 159.7215,165.55576C160.35583,164.85796 161.24802,164.77435 161.7955,164.13443C162.439,163.38228 162.76289,162.61436 163.45183,162.08176C164.11234,161.57114 164.79466,161.38176 165.47867,160.82376L165.57201,159.87042" id="svg_3" stroke-width="3" stroke="#000" fill="none"/>
  <path t="27265,27514,27723,27723,27877,27877,27904,28210,28554,28803,28864,28972,29372,29418,29418,29630" d="M145.5,148.43443C147.136,147.82376 147.79944,147.29245 148.5,146.95526C149.45229,146.49692 150.33708,146.2253 151.2,146.49159C152.06638,146.75896 152.67049,147.74924 152.49867,148.63309C152.34128,149.44279 151.3,149.43443 150.39999,149.43443L149.5,149.43443L148.7,149.43443L147.8,149.43443" id="svg_4" stroke-width="3" stroke="#000" fill="none"/>
  <path t="30917,31098,31442,31509,31577,31795,31925,31994,32061,32226,32226,32295,32346,32377,32401,32658,32782,32831" d="M161.5,146.43443C161.5,144.73442 161.49702,143.61879 162.30133,143.43576C163.1776,143.23636 164.11984,143.26622 165,143.45526C165.84442,143.63663 166.43912,144.52831 166.5,145.43443C166.55363,146.23262 166.50298,147.25006 165.69867,147.43309C164.8224,147.63251 163.89999,147.43443 163,147.43443L162.11067,147.42377L161.5,146.91359" id="svg_5" stroke-width="3" stroke="#000" fill="none"/>
  <path t="34722,34857,34888,34901,34901,34928,34984,34984,35002,35002,35150,35202,35318,35318,35928,36004,36020,36103,36217,36475,36503,36809,36815" d="M156.5,146.43443C155.58533,146.71976 155.54779,147.53569 155.5,148.43443C155.45728,149.23782 154.8725,150.01837 154.3,150.63576C153.68134,151.30293 153.13673,152.04991 152.78534,152.8651C152.42867,153.69254 152.6637,154.69173 152.27867,155.53442C151.97287,156.20374 151.45125,157.20287 152.2045,157.42993C153.0619,157.6884 154,157.43443 154.89999,157.43443C155.8,157.43443 156.69867,157.43309 157.44284,157.08626L157.5,157.23709" id="svg_6" stroke-width="3" stroke="#000" fill="none"/>
  <path t="37997,38327,38327,38360,38377,38583,38583,38720,38953,38994,39025,39300,39377,39400" d="M148.5,163.43443C149.5,162.43443 150.33698,162.6389 151.2,162.37726C152.08488,162.10899 152.51077,161.21562 153.2,160.7916C154.02139,160.28625 155.21275,160.31593 155.48933,161.04509C155.80476,161.87668 155.51067,162.83443 155.784,163.63443L156.33333,164.43443" id="svg_7" stroke-width="3" stroke="#000" fill="none"/>
  <path t="47301,47365,47365,47397,47424,47449,47466,47483,47483,47641,47641,47728,47781,47781,47927,48015,48056,48087,48087,48133,48183,48208,48233,48314,48314,48336,48399,48446,48468,48511,48537,48552,48601,48601,48624,48656,48656,48680,48688,48718,48719,48735,48751,48752,48816,48847,48871,48895,48918,48919,48936,48952,48952,48968,48985,49003,49004,49018,49036,49037,49085,49102,49118,49168,49185,49185,49202,49218,49218,49235,49252,49270,49304,49326,49326,49359,49384,49402,49453,49504,49529,49601,49648,49648,49670,49688,49688,49713,49713,49735,49758,49759,49782,49782,49836,49853,49853,49869,49894,49920,49989,49989,50023,50038,50110,50137,50154,50154,50169,50170,50221,50222,50239,50256,50256,50271,50288,50288,50304,50326,50337,50377,50377,50416,50416,50438,50456,50480,50481,50506,50522,50522,50540,50559,50652,50690,50707,50708,50722,50740,50768,50792,50823,50839,50840,50863,50886,50886,50905,50956,50998,51006,51023,51040,51040,51063,51072,51091,51106,51124,51173,51189,51190,51208,51209,51232,51271,51291,51318,51343,51359,51374,51374,51389,51407,51448,51457,51480,51519,51520,51551,51583,51615,51631,51664,51691,51691,51712,51735,51759,51775,51808,51808,51839,52206,52240,52293,52375" d="M141.5,163.43443C141.5,164.43443 141.5,165.23442 141.5,166.13443C141.5,167.03442 141.55287,167.96915 141.14734,168.73442C140.69901,169.58046 140.54591,170.3214 140.48933,171.25977C140.44753,171.95319 139.98982,172.92377 139.3,173.63443C138.8075,174.14182 137.90251,174.73145 137.58533,175.63443C137.28572,176.48737 137.64604,177.46214 137.44284,178.13443C137.17828,179.00972 136.52859,179.73306 136.5,180.63443C136.47147,181.53397 136.5,182.43443 136.5,183.23442C136.5,184.13443 136.5,185.03442 136.5,185.93443C136.5,186.83443 136.5,187.73442 136.5,188.63443C136.5,189.53442 136.5,190.43443 136.5,191.23442C136.5,192.19159 136.5,193.0871 136.5,193.95042C136.5,194.79843 136.36345,195.79106 136.784,196.63443C137.11392,197.29607 137.49466,198.07037 137.5,199.0871C137.50365,199.78174 137.5,200.79843 137.5,201.73442C137.5,202.63443 137.5,203.53442 137.5,204.43443C137.5,205.23442 137.48816,206.08591 137.784,206.91843C138.09764,207.80103 138.47141,208.67583 138.5,209.53442C138.52995,210.43393 138.5,211.23442 138.5,212.19159C138.5,213.0871 138.5,213.95042 138.5,214.91359C138.5,215.73442 138.5,216.63443 138.5,217.53442C138.5,218.43443 138.5,219.23442 138.5,220.19159C138.5,221.0871 138.5,221.95042 138.5,222.91359C138.5,223.73442 138.5,224.63443 138.5,225.53442C138.5,226.43443 138.5,227.23442 138.5,228.13443C138.5,229.03442 138.5,229.93443 138.5,230.83443C138.5,231.73442 138.5,232.63443 138.5,233.53442C138.5,234.43443 138.50938,235.28981 139.11067,236.03442C139.63963,236.68947 140.35931,237.27724 141.15266,237.72992C141.82724,238.11482 142.76582,238.31514 143.66667,238.60109C144.52214,238.87263 145.45972,239.00168 146.13834,239.48709C146.90503,240.03551 147.46667,240.65501 148.10001,241.00909C148.96126,241.4906 149.94453,241.33897 150.7,241.71843C151.5672,242.15401 152.33559,242.31332 152.97917,242.95526C153.62001,243.59447 153.93544,244.41643 154.8045,244.43443C155.82129,244.45551 156.52083,244.43443 157.5,244.43443C158.28934,244.43443 159.33333,244.43443 160.08934,244.43443C161.02083,244.43443 161.98399,244.43588 162.67467,244.43443C163.74283,244.43217 164.55084,244.13358 165.2,243.78709C166.04938,243.33374 167.06956,243.54587 167.8,243.07726C168.59991,242.56407 169.09486,241.74669 169.98399,241.51976C170.65712,241.34796 171.74283,241.43443 172.60001,241.43443C173.5,241.43443 174.26607,241.28584 175.136,240.85976C175.95648,240.4579 176.67462,240.43987 177.74283,240.43443C178.59982,240.43007 179.36481,240.14299 179.50133,239.23442C179.62271,238.42659 180.35162,238.02356 181.064,237.40909C181.67329,236.88351 181.5,235.83443 181.5,234.93443C181.5,234.02376 181.5,233.1131 181.5,232.43443C181.5,231.31976 181.5,230.43443 181.5,229.63443C181.5,228.73442 181.5,227.83443 181.5,226.93443C181.5,226.03442 181.65488,225.07295 181.2785,224.33443C180.92876,223.64815 179.9026,223.13737 179.58533,222.23442C179.28569,221.38165 178.99272,220.82547 178.55716,220.07726C178.13144,219.34596 178.39383,218.23915 178.064,217.61977C177.58374,216.71791 176.81244,216.33717 176.416,215.63309C175.95612,214.81631 175.51801,214.03496 175.5,213.13443C175.48201,212.2346 175.5,211.33443 175.5,210.43443C175.5,209.63443 175.44284,208.73442 175,207.93443C174.55716,207.13443 174.5,206.23442 174.5,205.33443C174.5,204.43443 174.5,203.63443 174.5,202.73442C174.5,201.83443 174.50226,200.93443 174.5,200.03442C174.49774,199.13441 174.18896,198.38988 173.784,197.63443C173.37877,196.87848 172.88187,196.12408 172.58533,195.23442C172.29945,194.37679 172.5,193.43443 172.5,192.63443C172.5,191.73442 172.5,190.83443 172.5,189.93443L172.5,189.03442L172.5,188.13443" id="svg_8" stroke-width="3" stroke="#000" fill="none"/>
  <path t="54182,54397,54510,54510,54564,54564,54617,54633,54633,54650,54714,54753,54801,54802" d="M160.5,167.43443C160.04167,168.45526 160.46466,169.29674 161,169.91359C161.65858,170.67245 162.20004,171.13438 162.89999,171.83443C163.59988,172.53439 164.14471,173.13359 164.5,173.93443C164.85454,174.7336 165.37866,175.53442 165.66667,176.43443L166.07466,177.03442" id="svg_9" stroke-width="3" stroke="#000" fill="none"/>
  <path t="57278,57783,57871,57905,57905,57924,57940,57957,57974,57990,57990,58007,58032,58056,58076,58076,58092,58092,58108,58127,58140,58159,58175,58206,58207,58231,58248,58281,58291,58329,58343,58357,58376,58441,58441,58507,58528,58544,58569,58592,58592,58610,58625,58659,58660,58674,58675,58675,58675,58692,58693,58693,58709,59489,59526,59527,59676,59775,59892,60278,60329,60347,60396,60428,60429,60496,60653,60713,60713,60778,60916,60947,61048,61098,61151,61182,61206,61214,61230,61246,61246,61263,61279,61297,61297,61336,61347,61348,61365,61383,61431,61465,61481,61505,61528,61528,61552,61598,61654,61654,61683,61699,61716,61716,61733,61752,61752,61784,61825,61850,61850,61889,61948,61985,62000,62000,62000,62016,62017,62017,62033,62034,62066,62168,62495,62495,62518,62536,62536,62631,62631,62631,62668,62668,62686,62803,62803,62865,62886,62902,62920,62969,62993,63017,63039,63793,63809,63830" d="M147.5,176.43443C148.30133,176.51976 149.03101,176.92476 149.69867,177.63443C150.24092,178.2108 150.54359,179.28796 151.30133,179.43309C152.18396,179.60214 153.136,179.43443 153.98399,179.43443C154.84734,179.43443 155.864,179.43443 156.7,179.43443C157.60001,179.43443 158.5,179.43443 159.25717,179.43443C160.15266,179.43443 161.01601,179.43443 161.97917,179.43443C162.89999,179.43443 163.8,179.43443 164.7,179.43443C165.60001,179.43443 166.53825,179.60799 167.3,179.34909C168.18791,179.04732 168.89946,178.45244 169.8,178.43443C170.69981,178.41644 171.60439,178.52312 172.5,178.43443C173.3457,178.35069 173.83156,177.621 174.60001,177.21309C175.24995,176.86807 176.10001,176.4451 177,176.43443C177.89999,176.42377 178.60721,175.98146 179.5,175.60109C180.25154,175.2809 181.20001,175.44012 182.10001,175.43443C182.94272,175.42909 183.64407,175.36487 184.83733,175.14909C185.61392,175.00867 186.43639,174.83105 186.8465,174.72992C188.3421,174.36108 188.91576,174.11664 189.82933,173.7916C190.7352,173.4693 191.60001,173.43443 192.5,173.43443C193.3,173.43443 194.35936,172.96399 195.14284,173.49159C195.82703,173.95235 195.48959,175.13449 195.5,176.03442C195.51042,176.93462 195.83188,177.7585 196.5,178.43443C197.07889,179.02008 197.99518,179.23038 198.69867,179.71976C199.48329,180.26558 199.63432,181.39212 200.5,181.39276C201.3653,181.3934 202.1665,180.29662 202.47917,180.95526C202.85631,181.74971 202.5,182.73442 202.5,183.63443C202.5,184.53442 202.88394,185.63889 202.2785,186.3131C201.72391,186.93069 200.84741,187.23471 200,187.41359C199.10875,187.60173 198.17867,187.43443 197.32533,187.43443C196.38533,187.43443 195.5,187.43443 194.7,187.43443C193.8,187.43443 192.89999,187.43443 192,187.43443C191.10001,187.43443 190.19347,187.32747 189.3,187.43576C188.38022,187.54724 187.78487,188.04756 186.89999,188.45976C186.08487,188.83948 185.4632,189.61337 184.89999,189.99843C184.07445,190.56285 183.29054,190.96161 182.39999,191.31293C181.7393,191.57356 180.74283,191.43443 179.84734,191.43443C178.98399,191.43443 178.01122,191.31358 177.2,191.43892C176.26865,191.58282 175.73138,192.28625 174.8,192.42993C173.91051,192.56715 172.95003,192.41576 172.16667,192.60109C171.22633,192.82356 170.44292,193.12541 169.66667,193.43443C168.72939,193.80756 168.12372,194.16205 167.10133,194.34909C166.34492,194.48747 165.25717,194.43443 164.39999,194.43443C163.5,194.43443 162.7,194.43443 161.74283,194.43443C160.83833,194.43443 160.03833,194.43443 159.07883,194.43443C158.28534,194.43443 157.50983,194.43443 156.46933,194.43443C155.61734,194.43443 154.67467,194.43443 153.66667,194.43443C152.91066,194.43443 152,194.43443 151.10001,194.43443C150.2,194.43443 149.21031,194.58319 148.55267,194.08176C147.87582,193.56567 147.47467,192.82376 147.064,192.03442L146.39999,191.33459L145.8,190.7916L145,190.45526" id="svg_10" stroke-width="3" stroke="#000" fill="none"/>
  <path t="64830,65041,65074,65074,65123,65191,65257,65257,65484,65508,65509,65528,65590,65641,65641,65876,65876,65910,65929" d="M132.5,186.43443C134.25717,187.42993 135.15266,187.43443 136.01601,187.43443C136.864,187.43443 137.85663,187.29788 138.7,187.71843C139.36163,188.04836 140.16295,188.38435 140.98267,188.71976C141.82472,189.06429 142.3334,189.94527 143.02083,190.43443C143.72253,190.93376 144.38533,191.23576 145.31467,191.83443L145.93066,192.23442L146.47867,193.03442L146.52083,193.93443" id="svg_11" stroke-width="3" stroke="#000" fill="none"/>
  <path t="68597,68850,68899,68937,68937,68950,68968,68999,69031,69049,69049,69066,69066,69083,69100,69119,69135,69151,69166,69183,69183,69249,69279,69724,69759,69759,69774,69798,69818,69834,69851,69879,69879,69896,69896,69918,70016,70016,70046,70070,70070,70086,70102,70126,70152,70168,70186,70186,70205,70219,70219,70252,70350,70418,71029,71054,71134,71134,71219,71219,71540" d="M141.5,239.43443C142.37849,240.65593 142.5,241.53442 142.5,242.43443C142.5,243.23442 142.48959,244.13449 142.5,245.03442C142.51042,245.93462 142.9928,246.67459 143.33333,247.60109C143.56499,248.23138 143.5,249.26776 143.5,250.12993C143.5,251.03442 143.5,251.93443 143.5,252.83443C143.5,253.73442 143.5,254.63443 143.5,255.53442C143.5,256.43442 143.5,257.23444 143.5,258.13443C143.5,259.03442 143.44254,260.1077 144.20984,260.37726C144.97351,260.64554 145.97917,260.43442 146.89999,260.43442C147.8,260.43442 148.7,260.43442 149.60001,260.43442C150.5,260.43442 151.25717,260.43442 152.15266,260.43442C153.01601,260.43442 154.01775,260.39304 154.82133,260.65576C155.69919,260.94278 156.61159,261.39169 157.5,261.43442C158.29909,261.47284 159.2,261.43442 160.10001,261.43442C161,261.43442 161.89999,261.43442 162.8,261.43442C163.70134,261.43442 164.38533,261.43442 165.32533,261.43442C166.33333,261.43442 167.1955,261.43442 168.10001,261.43442C169,261.43442 170.13779,261.61478 170.47917,260.9136C170.85982,260.13184 171.21434,259.48709 171.909,259.38177L172.89734,259.14908L173.62801,258.82376L174.32933,258.23444" id="svg_12" stroke-width="3" stroke="#000" fill="none"/>
  <path t="72160,72215,72247,72288,72288,72309,72309,72328,72328,72374,72408,72425,72425,72448,72474,72525,72526,72622,72642,72659,72675,72675,72691,72692,72710,72710,72726,72726,72743,72743,72759,72759,72776,72776,72792,72824,72843,72859,72875,72894,72894,72908,72935" d="M166.5,246.43443C167.97917,247.93443 168.37831,248.75949 168.66667,249.60109C168.95396,250.43958 169.67847,251.08057 170.3,251.60243C170.99689,252.18755 171.15656,252.97095 171.5,253.91359C171.80646,254.75467 172.58931,255.36156 173.064,256.03442C173.58237,256.76923 173.90887,257.56174 174.33333,258.43442C174.65419,259.09409 174.93384,260.10922 175.8,260.37726C176.6615,260.64386 177.60017,260.43442 178.38533,260.43442C179.336,260.43442 180.10133,260.43442 181.10001,260.43442C181.89999,260.43442 182.89999,260.43442 183.7,260.43442C184.7,260.43442 185.5,260.43442 186.5,260.43442C187.28934,260.43442 188.33333,260.43442 189.08934,260.43442C190,260.43442 190.89999,260.43442 191.8,260.43442C192.7,260.43442 193.60001,260.43442 194.5,260.43442L195.3,260.43442L196.2,260.43442L197.10001,260.43442" id="svg_13" stroke-width="3" stroke="#000" fill="none"/>
  <path t="74062,74112,74112,74145,74146,74163,74164,74164,74192,74192,74212,74231,74231,74246,74262,74279,74302,74302,74377,74377,74410,74429,74479,74513,74529,74529,74545,74561,74561,74584,74675,74913,74950" d="M184.5,236.43443C186.15266,238.68176 186.9124,239.1243 187.616,239.91843C188.04254,240.39986 188.65268,241.28525 189.32533,241.8091C190.0024,242.33638 190.68954,242.87541 191.05333,243.6091C191.55907,244.6291 191.80084,245.48524 192.14734,246.13443C192.60069,246.9838 192.47421,247.95528 192.85266,248.73892C193.28194,249.62779 193.32297,250.30092 193.66667,251.26776C193.95441,252.07719 194.48199,252.83389 194.5,253.73442C194.51799,254.63425 194.5,255.53442 194.5,256.43442C194.5,257.23444 194.5,258.07043 194.5,258.91843C194.5,259.78177 194.5,260.79843 194.5,261.73444L194.5,262.63443L194.49966,263.53427" id="svg_14" stroke-width="3" stroke="#000" fill="none"/>
  <path t="76778,76855,76885,76885,76902,76918,76918,76934,76950,76951,76968,76968,76968,76985,76985,77099,77136,77136,77152,77171,77186,77208,77208,77208,77223,77247,77270" d="M152.5,262.43442C154.33333,262.6011 154.33672,263.46927 154.58533,264.23444C154.8423,265.02533 155.24071,265.79282 155.52533,266.57309C155.86586,267.50659 156.76956,267.97311 157.064,268.69177C157.42355,269.56937 157.41769,270.38608 157.52533,271.1731C157.67918,272.29797 158.10901,272.99722 158.47467,273.83441C158.81819,274.62088 159.39159,275.15714 159.97917,275.93442C160.53677,276.67206 160.40363,277.65771 160.66667,278.6011C160.85674,279.28275 161.216,279.95044 161.52533,280.98776L162.14734,281.48709L162.584,282.23575" id="svg_15" stroke-width="3" stroke="#000" fill="none"/>
  <path t="78040,78088,78105,78121,78144,78144,78155,78175,78176,78191,78192,78205,78223,78256,78272,78319,78320,78338,78355,78371,78390,78406,78406" d="M172.5,261.43442C173.07466,263.03442 173.46727,263.94711 174.02083,264.45526C174.66318,265.04492 175.25996,265.75507 175.44284,266.67725C175.60999,267.52011 175.56134,268.3288 175.92534,269.25977C176.1982,269.95767 176.48958,270.91342 176.5,271.83441C176.51018,272.73438 176.3363,273.69171 176.72133,274.53442C177.02713,275.20374 177.16685,276.10822 177.52083,276.9136C177.8338,277.62567 178.48933,278.08109 178.5,279.0871L178.5,279.78177" id="svg_16" stroke-width="3" stroke="#000" fill="none"/>
  <path t="79991,80045,80059,80077,80093,80110,80125,80125,80142,80142,80142,80174,80192,80222,80239,80254,80276,80294,80309,80309,80361,80394,80410,80427" d="M178.5,260.43442C179.4955,262.13443 179.35402,263.15717 179.936,263.82376C180.54558,264.52194 181.45731,264.79532 181.50017,265.75592C181.53136,266.45486 181.64137,267.44318 181.92534,268.22375C182.19247,268.9581 182.19406,269.96988 182.51067,270.82376C182.78271,271.55746 183.49413,272.06171 183.92534,272.83441C184.38234,273.65332 184.5,274.53442 184.5,275.43442C184.5,276.23444 184.5,277.13443 184.536,278.03442L184.92534,278.83441L185.41467,279.63443" id="svg_17" stroke-width="3" stroke="#000" fill="none"/>
  <path t="81314,81363,81379,81380,81396,81396,81413,81432,81432,81448,81449,81496,81496,81512,81512,81530,81550,81550,81574,81596,81614,81629,81630,81761,81761,81798" d="M196.5,261.43442C197.38667,262.60376 198.18228,263.11142 198.63867,263.61975C199.31064,264.36819 199.55385,265.2514 200.02083,265.95526C200.56702,266.7785 201.06189,267.4046 201.37866,268.41309C201.61639,269.16995 201.82001,270.10696 202.2045,270.78177C202.65633,271.57477 203.34569,272.20099 203.48933,273.07043C203.65506,274.07355 203.5,274.78177 203.5,275.79843C203.5,276.73444 203.45148,277.63574 203.50017,278.53461C203.54288,279.32321 203.85266,280.0871 204.216,280.95044L204.45833,281.89276" id="svg_18" stroke-width="3" stroke="#000" fill="none"/>
  <path t="83399,83449,83450,83450,83450,83450,83484,83484,83484,83484,83484,83484,83484,83501,83501,83501,83502,83502,83502,83502,83502,83502,83518,83518,83518,83518,83518,83518,83518,83519,83519,83536,83536,83536,83536,83536,83552,83552,83552,83552,83567,83567,83567,83567,83567,83584,83584,83584,83584,83584,83584,83601,83601,83601,83601,83601,83601,83617,83617,83617,83617,83634,83634,83634,83634,83650,83650,83667,83667,83667,83686,83701,83701,83702,83702,83718,83718,83719,83719,83719,83735,83735,83735,83735,83735,83735,83735,83751,83751,83751,83751,83752,83776,83776,83791,83792,83801,83802,83819,83819,83819,83835,83835,83835,83836,83836,83836,83836,83836,83836,83851,83851,83851,83852,83852,83852,83852,83852,83852,83868,83869,83869,83869,83869,83869,83870,83870,83870,83887,83887,83887,83887,83887,83888,83911,83912,83912,83935,83935,83952,83952,83953,83968,83968,83968,83968,83968,83985,83985,83985,83985,83985,83985,84002,84002,84002,84002,84002,84019,84019,84038,84039,84052,84068,84068,84086,84086,84086,84102,84102,84103,84103,84103,84103,84103,84103,84118,84119,84119,84119,84119,84119,84119,84135,84135,84135,84135,84152,84152,84169,84169,84169,84186,84186,84186,84202,84202,84202,84202,84219,84219,84219,84219,84219,84220,84220,84236,84236,84236,84236,84236,84237,84237,84237,84252,84253,84253,84253,84253,84253,84254,84254,84269,84269,84269,84269,84269,84270,84270,84270,84270,84286,84286,84287,84287,84287,84287,84287,84287,84288,84303,84303,84303,84303,84304,84304,84304,84304,84304,84319,84319,84319,84319,84320,84320,84320,84320,84320,84370,84370,84370,84370,84370,84370,84370,84370,84370,84408,84408,84408,84409,84409,84410,84410,84410,84411,84438,84438" d="M105.5,284.43442C107.84267,285.63309 108.65335,285.83057 109.10416,285.9136C110.07258,286.09195 110.58817,286.17609 112.22266,286.31326C112.79395,286.36121 114.01074,286.41843 114.66666,286.45526C115.36275,286.49435 116.10522,286.53723 116.89867,286.60376C118.66805,286.75211 119.64958,286.87372 120.68667,287.00244C121.76461,287.13623 122.86671,287.28476 123.97916,287.43442C125.08672,287.58344 126.17353,287.73401 127.22667,287.86642C129.16556,288.11017 130.02719,288.19672 130.81467,288.26376C131.53326,288.32492 132.19048,288.36652 132.79167,288.39276C133.34251,288.41681 133.84964,288.42786 134.31866,288.43176C135.16664,288.43884 135.55701,288.43442 135.92934,288.43442C136.95833,288.43442 137.591,288.43442 138.80034,288.43442C139.409,288.43442 140.37199,288.43442 141.07066,288.43442C142.24316,288.43442 143.11884,288.43442 144.0625,288.43442C144.55733,288.43442 145.588,288.43442 146.66667,288.43442C147.784,288.43442 148.35266,288.43442 148.92534,288.43442C150.07466,288.43442 150.64734,288.43494 152.33333,288.43442C152.87817,288.43423 153.93405,288.43246 154.44267,288.41309C155.41794,288.37595 156.34886,288.34503 157.55701,287.99161C158.30183,287.77371 158.95917,287.41519 159.591,287.08258C160.50122,286.60339 161.39322,286.18588 161.97917,285.95526C162.81151,285.62766 163.82065,285.24725 164.68933,284.83441C165.5058,284.44638 166.26755,283.99136 167.01466,283.71976C167.87547,283.40683 169.00003,283.42972 169.556,283.43576C170.56262,283.44672 171.31706,283.45822 172.5,283.6011C173.30574,283.69843 174.12375,283.87112 174.972,284.08109C175.41566,284.19089 176.83382,284.59949 177.34283,284.75577C178.41089,285.08371 178.96094,285.26105 179.52083,285.43442C180.65103,285.78436 181.21217,285.96939 182.87784,286.41275C183.40776,286.5538 184.42062,286.79108 184.89583,286.89276C185.76555,287.07886 187.11021,287.35342 187.9375,287.4136C188.81924,287.47775 189.67467,287.43442 190.61734,287.43442C191.30983,287.43442 192.27765,287.4444 193.14583,287.4136C193.89525,287.38702 195.33359,287.27032 195.90767,287.21277C196.52829,287.15054 197.19067,287.0755 197.89067,286.98776C198.62537,286.89566 199.3898,286.79099 200.17967,286.67276C200.99251,286.55109 202.66727,286.271 203.52116,286.1131C204.38327,285.9537 205.2484,285.78293 206.11467,285.6091C206.9794,285.43558 207.8385,285.25891 208.69017,285.0871C209.5305,284.91757 211.16617,284.59836 211.95683,284.45593C212.72752,284.31711 213.4809,284.18991 214.21733,284.07043C214.93724,283.95364 215.64259,283.84457 216.33383,283.73892C217.01192,283.63528 218.33389,283.43799 219.60933,283.23444C220.22511,283.13617 220.82269,283.0419 221.94533,282.83441C222.46748,282.73792 223.84322,282.46701 224.86684,282.13892C225.62947,281.89447 226.47282,281.49954 227.30983,281.43893C228.2695,281.36945 229.0625,281.43442 229.66617,281.43442C231.02184,281.43442 231.76617,281.43442 232.5625,281.43442C233.41884,281.43442 233.87199,281.43442 235.34283,281.43442C235.86934,281.43442 236.96133,281.43442 237.52083,281.43442C238.65184,281.43442 239.21733,281.43442 240.87784,281.43442C241.40933,281.43442 242.42134,281.43442 242.89583,281.43442C243.76683,281.43442 245.11417,281.43442 245.9375,281.43442C246.82133,281.43442 247.67467,281.43448 248.61467,281.43442C249.60033,281.43433 250.31879,281.39529 251.276,281.14908C252.12927,280.9296 252.83362,280.71112 254.16667,280.43442C254.68454,280.32693 255.24115,280.23209 256.444,280.02377C257.08325,279.91306 257.7431,279.80072 258.418,279.67725C259.10577,279.55142 260.50275,279.27954 261.89465,278.95044C262.5834,278.7876 263.258,278.61163 263.91666,278.43442C264.55667,278.26221 265.75986,277.92245 266.83334,277.6011C267.75705,277.32458 268.53198,277.07214 269.18533,276.8811C270.35275,276.53973 271.15698,276.43594 272.04285,276.2131C272.76715,276.03088 273.54279,275.74246 274.57883,275.55576C275.28052,275.42929 276.27188,275.36569 277.14334,275.2131C277.82553,275.09366 278.58041,274.91653 279.42334,274.78708C280.82907,274.5712 281.34268,274.54752 282.41882,274.48709C282.98245,274.45544 284.15741,274.41077 284.76617,274.38177C285.38809,274.35214 286.66742,274.27615 287.98666,274.15042C288.66208,274.08606 289.34662,274.00854 290.04166,273.93442C290.74661,273.85922 291.46115,273.78152 292.18668,273.71841C293.66571,273.58975 294.42123,273.54456 295.96167,273.49161C296.74649,273.46463 297.54163,273.45322 298.34668,273.4451C299.16162,273.43686 299.98666,273.43509 301.66666,273.43442C302.52182,273.43408 303.388,273.43442 304.26617,273.43442C305.15732,273.43442 306.0625,273.43442 306.98267,273.43442C307.91882,273.43442 308.87201,273.43442 310.83334,273.43442C311.84299,273.43442 312.87067,273.43442 313.91434,273.43442C314.97198,273.43442 316.04166,273.43442 317.12134,273.43442C318.20901,273.43442 319.30267,273.43475 321.5,273.43442C322.60034,273.43423 323.7027,273.43472 324.80899,273.42542C325.92136,273.41605 327.04184,273.39853 328.172,273.36243C329.31454,273.32593 330.47256,273.28934 332.83334,273.1011C334.04245,273.0047 335.25809,272.87149 336.46933,272.72458C337.66614,272.57941 338.83408,272.41852 339.96133,272.24908C341.03802,272.08725 342.05182,271.93079 343.83334,271.6011C344.58575,271.46185 345.24478,271.32468 345.81934,271.19611C346.31937,271.0842 346.75046,270.97791 347.12134,270.8811C347.44107,270.79764 347.71442,270.71494 348.16666,270.6011C348.35635,270.55334 348.52893,270.51736 348.68567,270.49161C348.82767,270.46826 348.95822,270.45349 349.07867,270.4451C349.19092,270.43729 349.29733,270.43576 349.5,270.43442L349.79999,270.43442" id="svg_19" stroke-width="3" stroke="#000" fill="none"/>
  <path t="87020,87074,87107,87107,87107,87107,87107,87125,87125,87125,87125,87125,87125,87126,87126,87126,87142,87142,87142,87142,87142,87142,87158,87158,87158,87158,87158,87158,87158,87176,87176,87176,87176,87176,87176,87192,87192,87192,87192,87192,87193,87193,87193,87209,87209,87209,87209,87209,87209,87209,87209,87209,87225,87225,87225,87225,87225,87225,87225,87226,87226,87242,87242,87242,87242,87242,87242,87242,87243,87243,87258,87258,87258,87258,87258,87259,87275,87276,87276,87276,87276,87293,87293,87293,87293,87293,87293,87309,87309,87309,87309,87309,87310,87325,87325,87326,87326,87326,87326,87342,87342,87342,87342,87359,87359,87359,87360,87360,87360,87377,87377,87377,87377,87377,87377,87377,87393,87393,87393,87393,87393,87394,87394,87394,87394,87410,87410,87410,87410,87411,87411,87411,87411,87411,87427,87427,87427,87427,87428,87428,87428,87428,87428,87444,87444,87444,87444,87445,87445,87445,87445,87445,87460,87460,87460,87460,87461,87461,87461,87461,87486,87494,87510,87511,87527,87527,87527,87544,87544,87545,87545,87560,87560,87561,87561,87561,87577,87577,87578,87578,87594,87594,87595,87611,87627,87627,87628,87628,87628,87644,87644,87645,87645,87645,87645,87646,87677,87677,87678,87678,87678,87678,87679,87679,87679,87711,87711,87712,87712,87712,87712,87713,87713,87713,87744,87744,87745,87745,87745,87745,87746,87746,87746,87761,87761,87761,87762,87762,87762,87762,87779,87779,87779,87780,87794,87794,87794,87795,87812,87812,87812,87812,87813,87828,87828,87828,87828,87828,87844,87844,87844,87861,87861,87878,87878,87894,87894,87894,87894,87895,87895,87912,87912,87913,87913,87913,87913,87913,87913,87913,87927,87927,87927,87927,87927,87928,87928,87946,87946,87946,87947,87947,87947,87947,87947,87961,87962,87962,87962,87962,87963,87994,87995,88011,88011,88028,88029,88029,88029,88043,88044,88044,88044,88044,88045,88060,88061,88061,88061,88061,88061,88062,88078,88079,88079,88079,88079,88079,88079,88079,88080" d="M-4.5,96.43443C-2.9375,96.95526 -2.00417,97.4464 -1.43733,97.63709C-0.74346,97.87052 0.11316,98.10252 1.13067,98.40509C2.33472,98.76314 3.00674,98.97668 3.72,99.2011C4.46341,99.435 5.22596,99.67671 6,99.91359C6.77264,100.15004 7.53413,100.38116 8.28,100.58109C9.66218,100.95159 10.87581,101.18994 11.42767,101.26743C12.45584,101.41179 12.9548,101.43671 13.94933,101.51576C15.00014,101.59928 16.15346,101.71732 16.7625,101.78709C17.3868,101.85862 18.02033,101.93882 19.29917,102.08176C19.93309,102.15261 21.16592,102.27922 22.332,102.34909C22.89436,102.38279 23.99997,102.41561 24.55067,102.42376C25.10531,102.43196 26.83333,102.43443 27.4435,102.43443C28.07467,102.43443 29.404,102.43443 30.10417,102.43443C30.82933,102.43443 31.5805,102.43443 32.35867,102.43443C34,102.43443 34.86401,102.43684 35.752,102.43043C36.65803,102.42389 37.57628,102.40991 38.5,102.37193C39.42434,102.33392 40.34415,102.28346 41.248,102.17843C43.00508,101.97424 43.83894,101.78452 44.64267,101.57843C45.42778,101.37711 46.18485,101.13637 46.91667,100.87193C47.63559,100.61214 48.33232,100.32784 49.01067,100.03043C50.33932,99.4479 50.97845,99.13465 51.61467,98.83709C52.24278,98.54332 52.86253,98.25251 53.47917,97.97609C54.0879,97.70321 54.69135,97.43822 55.29867,97.20509C56.49221,96.74693 57.69422,96.39939 58.2865,96.25326C58.86634,96.11019 59.99055,95.88274 60.5285,95.80059C61.99644,95.57642 62.84735,95.50819 63.624,95.47043C64.37554,95.43389 65.152,95.4351 66.4645,95.43443C66.956,95.43417 68.008,95.43443 68.5625,95.43443C69.7135,95.43443 70.304,95.43443 71.5,95.43443C72.69867,95.43443 73.2955,95.43443 73.88934,95.43443C75.064,95.43443 75.64283,95.43443 77.33334,95.43443C77.87817,95.43443 78.93383,95.43443 79.44267,95.43443C80.41734,95.43443 81.328,95.43443 82.5575,95.43443C83.29916,95.43443 84.02084,95.43443 84.7625,95.43443C86,95.43443 86.956,95.43443 87.4715,95.43443C88.5625,95.43443 89.132,95.43443 89.7135,95.43443C91.5,95.43443 92.10017,95.43443 92.70133,95.43443C93.91067,95.43443 94.52084,95.43443 95.136,95.43443C96.38533,95.43443 97.66666,95.43443 98.32233,95.43443C98.992,95.43443 99.67966,95.43443 100.38934,95.43443C101.125,95.43443 101.89066,95.43443 102.69033,95.43443C103.528,95.43443 105.33334,95.43443 106.30733,95.43443C107.32533,95.43443 108.38133,95.43443 109.46933,95.43443C110.58334,95.43443 111.71733,95.43443 112.86533,95.43443C114.02133,95.43443 116.33334,95.43443 117.47767,95.43443C118.608,95.43443 119.72034,95.43443 120.81067,95.43443C121.875,95.43443 122.90933,95.43443 123.90967,95.43443C124.872,95.43443 126.66666,95.43443 127.492,95.43443C128.26933,95.43443 129.00067,95.43443 129.688,95.43443C130.33333,95.43443 130.93866,95.43443 131.506,95.43443C132.03734,95.43443 133,95.43443 133.43517,95.43443C133.84134,95.43443 134.2195,95.43443 134.57066,95.43443C134.89583,95.43443 135.196,95.43443 135.47217,95.43443C136.68567,95.43443 137.60001,95.43443 138.5,95.43443C139.172,95.43443 140.272,95.43443 141.0625,95.43443C141.66617,95.43443 143.0215,95.43443 143.75717,95.43443C144.52083,95.43443 145.3045,95.43443 146.5,95.43443C147.3,95.43443 148.10001,95.43443 148.89999,95.43443C149.7,95.43443 150.89967,95.43443 151.69099,95.43443C152.45833,95.43443 153.18567,95.43443 154.45683,95.43443C155.21733,95.43443 156.01199,95.43443 157.04167,95.43443C158,95.43443 158.88049,95.43443 159.60417,95.43443C160.42783,95.43443 160.87466,95.43595 162.34383,95.43426C162.87733,95.43365 164.02536,95.42585 164.64583,95.41359C165.30138,95.40063 165.99501,95.38179 166.72934,95.34909C168.3338,95.27765 169.20799,95.21686 170.12801,95.14642C171.09068,95.07272 172.09126,94.98283 173.125,94.87193C174.18999,94.75767 175.28131,94.6271 176.392,94.46243C178.67029,94.12465 179.82152,93.89713 180.97734,93.66776C182.13121,93.43878 183.27203,93.19459 184.39583,92.95526C185.49469,92.72124 186.55966,92.48772 187.58934,92.28776C189.49677,91.91734 190.36906,91.79031 191.18134,91.69043C191.93355,91.59794 192.63026,91.53638 193.27083,91.49693C193.85568,91.4609 194.3871,91.44437 194.86533,91.43842C195.66663,91.42846 195.99303,91.43652 196.27733,91.43176C196.52771,91.42757 196.75354,91.42509 196.95833,91.39276C197.55585,91.29844 198.5558,90.86758 199.19733,90.57309C199.89725,90.2518 200.61172,89.9008 201.67883,89.45576C202.34764,89.17682 203.02147,88.93615 204.06934,88.55042C204.83379,88.26902 205.67072,87.95261 206.56134,87.59843C207.02156,87.41541 207.95631,87.04021 209.33333,86.43443C209.77965,86.23808 210.63127,85.83776 211.4375,85.47609C212.17885,85.14352 213.15292,84.70766 213.98567,84.54876C214.88097,84.37791 215.89867,84.43443 216.664,84.43443C217.62134,84.43443 218.48134,84.43371 219.33333,84.43443C220.12933,84.4351 221.10138,84.44305 221.64583,84.45526C222.22537,84.46825 223.47812,84.50775 224.83333,84.60109C225.54312,84.64997 226.26866,84.71649 227.00534,84.80059C227.75139,84.88576 228.50134,84.98881 229.24933,85.1171C229.99609,85.24517 230.75119,85.33926 232.85716,85.97742C233.53755,86.1836 234.19281,86.4422 234.83867,86.70643C235.48187,86.96958 236.11591,87.25306 236.74817,87.54343C238.67046,88.42623 239.32045,88.73547 239.98134,89.0331C240.64311,89.33113 241.30389,89.624 241.95833,89.91359C242.60255,90.19866 243.23643,90.46963 245,91.26776C245.53622,91.51044 246.52022,91.97128 246.97067,92.18776C247.79732,92.58504 248.52229,92.95388 249.728,93.54776C250.43573,93.89636 251.32303,94.33248 252.04167,94.41359C252.99419,94.5211 253.87376,94.44623 254.5625,94.37193C255.317,94.29053 256.51474,93.96609 257.30267,93.57976C258.13831,93.17003 258.53882,92.8879 259.41434,92.37809C259.8692,92.11323 261.34064,91.34968 261.87332,91.11842C262.42065,90.88081 263.58249,90.43212 264.19333,90.20909C264.82248,89.97938 265.47424,89.75304 266.83334,89.26776C267.54416,89.01396 268.27655,88.74789 269.03232,88.46826C269.81522,88.1786 270.625,87.87193 271.46533,87.55176L272.33768,87.21559L273.24399,86.86243" id="svg_20" stroke-width="3" stroke="#000" fill="none"/>
  <path t="89457,89531,89581,89581,89581,89581,89581,89581,89599,89599,89599,89599,89599,89599,89599,89599,89599,89614,89615,89615,89615,89615,89632,89633,89648,89665,89665,89666,89666,89682,89682,89682,89682,89682,89682,89682,89699,89699,89699,89699,89699,89699,89699,89699,89716,89716,89716,89716,89716,89716,89733,89733,89733,89733,89733,89733,89749,89749,89749,89749,89766,89766,89766,89782,89782,89782,89782,89798,89798,89798,89798,89799,89799,89817,89817,89817,89817,89833,89833,89833,89849,89867,89867,89882,89882,89916,89916,89916,89916,89916,89933,89933,89933,89933,89933,89934,89934,89949,89950,89950,89950,89966,89966,89966,89982,89982,89982,89982,89999,89999,89999,89999,90000,90016,90016,90017,90017,90017,90033,90033,90033,90033,90033,90050,90050,90050,90050,90050,90050,90050,90067,90067,90067,90067,90067,90067,90067,90083,90083,90083,90083,90083,90083,90083,90100,90100,90100,90100,90100,90116,90116,90117,90117,90134,90134,90134,90134,90150,90151,90151,90151,90167,90167,90167,90167,90167,90167,90183,90183,90183,90200,90200,90200,90200,90200,90216,90216,90216,90216,90216,90233,90233,90233,90233,90254,90254,90266,90284,90284,90284,90300,90300,90317,90317,90317,90317,90317,90334,90334,90334,90334,90350,90350,90350,90351,90351,90367,90367,90417,90417,90455,90466,90467,90484,90484,90501,90501,90501,90518,90518,90534,90535,90558,90558,90574,90574,90584,90601,90618,90635,90635,90635,90635,90651,90651,90651,90651,90667,90667,90668,90668,90684,90684,90684,90685,90685,90701,90701,90702,90718,90718,90719,90719,90719,90734,90734,90734,90751,90751" d="M273.5,83.43443C275.24399,83.43443 276.16687,83.42239 276.85068,83.43976C277.71918,83.46181 278.23242,83.49313 279.41815,83.66309C280.10486,83.76153 281.66879,84.09264 282.54868,84.31976C283.48502,84.56146 284.45184,84.84114 285.43466,85.13576C286.41785,85.43048 287.37891,85.73231 288.30267,86.02376C289.1709,86.29768 290.66565,86.77109 291.26349,86.94843C291.7605,87.09586 292.16718,87.22343 292.504,87.29043C293.49103,87.48676 294.30609,87.36121 295.172,87.47043C296.05618,87.58195 296.81277,87.87763 297.46533,88.04509C298.24182,88.24435 299.68539,88.5378 300.24133,88.63309C300.82803,88.73367 302.08286,88.91747 302.74268,88.99843C303.41751,89.08123 304.10422,89.16335 305.5,89.26776C306.19934,89.32008 307.5954,89.38022 308.28934,89.39843C308.9791,89.41653 309.664,89.42524 310.34283,89.42992C311.01468,89.43456 312.97833,89.43443 313.61334,89.43443C314.23834,89.43443 315.45834,89.43443 316.05334,89.43443C316.63834,89.43443 318.33334,89.43443 318.87817,89.43443C319.93384,89.43443 320.44266,89.43443 321.41733,89.43443C322.328,89.43443 323.55701,89.43443 324.28568,89.43443C324.95834,89.43443 325.89734,89.43443 327.10001,89.43443C327.70001,89.43443 328.60001,89.43443 329.80051,89.43443C330.41351,89.43443 331.40799,89.43443 332.15601,89.43443C333.46417,89.43443 333.95334,89.43443 334.98666,89.43443C335.52084,89.43443 336.59915,89.43443 337.13333,89.43443C338.65668,89.43443 339.57666,89.43443 340.00665,89.43443C341.17667,89.43443 342.16666,89.43443 342.98117,89.43443C343.83383,89.43443 344.76889,89.34531 345.66666,89.60109C346.52985,89.84702 347.32761,90.29518 348.0625,90.43443C349.15964,90.64231 349.84293,90.7184 350.65466,90.87043C351.57898,91.04354 352.07437,91.14323 353.66666,91.43443C354.22073,91.53575 354.78064,91.63735 355.90399,91.82376C356.45801,91.91569 357.53223,92.0829 358.04532,92.14909C359.43359,92.3282 360.22791,92.39278 361.26801,92.42376C361.89578,92.44246 363.10132,92.43443 364.02084,92.43443C364.65717,92.43443 365.66666,92.43443 366.75717,92.43443C367.52084,92.43443 368.3045,92.43443 369.5,92.43443C370.29999,92.43443 371.10001,92.43443 371.89999,92.43443C372.70001,92.43443 373.90018,92.43443 374.7045,92.43443C375.52084,92.43443 376.35718,92.43443 376.78534,92.43443C378.12167,92.43443 379.06168,92.43443 380.04166,92.43443C380.54666,92.43443 381.58667,92.43443 382.66666,92.43443C383.78665,92.43443 384.36166,92.43443 384.94666,92.43443C386.14667,92.43443 386.76166,92.43443 387.38666,92.43443C388.66666,92.43443 389.98401,92.43443 390.65268,92.43443C391.32535,92.43443 392,92.43443 392.67465,92.43443C394.01599,92.43443 395.33334,92.43443 395.97818,92.43443C396.612,92.43443 397.84268,92.43443 398.4375,92.43443C399.01733,92.43443 400.12799,92.43443 401.16666,92.43443C402.12933,92.43443 403.02802,92.43443 403.87866,92.43443C404.69733,92.43443 405.89984,92.43443 406.6955,92.43443C407.47916,92.43443 408.24283,92.43443 409.33334,92.43443C410.34732,92.43443 411,92.43443 411.65268,92.43443C413.02167,92.43443 413.76166,92.43443 414.54166,92.43443C415.36166,92.43443 416.66666,92.43443 417.12115,92.43443C418.04816,92.43443 418.97916,92.43443 419.89017,92.43443C420.33066,92.43443 421.93066,92.43443 422.63867,92.43443C423.31467,92.43443 424.66666,92.43443 425.38666,92.43443C426.14667,92.43443 426.94666,92.43443 427.78665,92.43443C429.12115,92.43443 429.58267,92.43443 430.51468,92.43443C431.43866,92.43443 432.33066,92.43443 433.16666,92.43443C434.28116,92.43443 434.9375,92.43443 435.81201,92.43443C436.81332,92.43443 437.65768,92.52756 438.74734,92.42992C439.67712,92.34662 440.33899,92.00464 441.10132,91.63309C441.90588,91.24096 442.76117,90.80437 443.83334,90.43443C444.46478,90.21655 445.17099,90.03059 445.92133,89.83443C446.70163,89.63043 447.89999,89.33443 448.70001,89.13443C449.5,88.93443 450.29987,88.73396 451.5,88.43443C452.29724,88.23544 453.07718,88.03857 453.828,87.87043C454.52798,87.71367 455.72617,87.49472 456.4375,87.45526C457.47711,87.39759 458.26489,87.28603 459.13599,86.85976C459.95663,86.45817 460.6767,86.49789 461.75183,86.42992C462.47244,86.38437 463.50775,86.07433 464.28534,85.85976C464.81595,85.71334 466.048,85.52269 466.89551,85.38176C467.70636,85.24692 468.47684,84.85461 469.5,84.60109C470.27658,84.40865 471.33334,84.43443 472.08932,84.43443C473,84.43443 473.89999,84.43443 474.80899,84.43443C475.83334,84.43443 476.51883,84.43443 477.35733,84.43443C477.98801,84.43443 479.02151,84.43443 480.13599,84.43443C480.91068,84.43443 481.70132,84.43443 482.89999,84.43443C483.70001,84.43443 484.5,84.43443 485.29999,84.43443C486.5,84.43443 487.29868,84.43443 488.08932,84.43443C488.86401,84.43443 489.61465,84.4289 490.67868,84.43459C491.67468,84.43992 492.33029,84.42689 493.66666,84.60109C494.38745,84.69505 495.12473,84.86288 495.87466,85.00909C496.61542,85.15352 497.67816,85.31293 498.64267,85.39843L499.48117,85.42992L500.52933,85.43443L501.29733,85.43443" id="svg_21" stroke-width="3" stroke="#000" fill="none"/>
  <path t="93052,93106,93107,93141,93141,93158,93158,93159,93159,93174,93175,93175,93191,93191,93192,93208,93231,93231,93240,93241,93264,93280,93280,93291,93308,93324,93325,93325,93342,93343,93358,93359,93375,93375,93399,93426,93426,93441,93442,93458,93458,93459,93476,93476,93491,93491,93508,93524,93524,93542,93558,93559,93576,93576,93591,93591,93591,93591,93608,93608,93624,93625,93641,93641,93657,93686,93710,93752,93775,93857,93857,93886,93902,93925,93942,93942,93942,93959,93959,93959,93974,93975,93975,93975,93991,93992,93992,94010,94010,94011,94026,94046,94046,94046,94046,94070,94070,94088,94088,94088,94111,94111,94126,94127,94143,94143,94144,94159,94159,94176,94176,94194,94195,94215,94216,94216,94216,94227,94227,94243,94243,94260,94260,94278,94278,94279,94293,94294,94311,94311,94311,94327,94327,94327,94327,94344,94344,94344,94344,94360,94360,94376,94376,94376,94376,94394,94394,94410,94410,94411,94431,94431,94431,94454,94479,94626,94626,94726,94761,94792,94883,94929,94962,94963,95001,95001,95032,95048,95048,95062,95081,95097,95098,95263" d="M328.5,124.43443C328.48932,127.22376 328.52737,128.00569 328.04266,128.83043C327.61914,129.55107 326.95895,130.19983 326.49017,130.79242C325.98108,131.43597 325.49023,132.11671 324.66666,132.93443C323.99432,133.60199 323.27005,133.9588 322.52151,134.75575C322.0871,135.21828 321.66141,135.92429 321.11066,136.8091C320.63086,137.57993 320.56094,138.43611 320.49985,139.41293C320.44836,140.2359 319.86954,141.01563 319.30133,141.63443C318.76611,142.21733 318.49091,143.16087 317.97916,143.95526C317.444,144.78598 317.09402,145.26733 316.70001,146.03577C316.19226,147.02599 315.8349,147.80098 315.29999,148.55043C314.82968,149.20934 314.25589,149.89624 313.936,150.6091C313.52527,151.52443 313.5889,152.54944 313.41467,153.31976C313.23322,154.12206 312.77576,154.8882 312.40018,155.85559C312.09445,156.64301 311.78195,157.40779 311.58533,158.46509C311.45331,159.17496 311.51865,160.0873 311.5,160.95042C311.47916,161.91426 310.89804,162.58908 310.35068,163.03442C309.56018,163.67758 309.5,164.60109 309.5,165.43443C309.5,166.41342 309.50504,167.30144 309.49985,168.19859C309.49451,169.12114 309.49472,169.79739 309.41467,170.46776C309.2709,171.67159 308.92331,172.37126 308.66666,173.43443C308.47891,174.21216 308.5,175.26776 308.5,176.02376C308.5,176.93443 308.5,177.83443 308.5,178.73442C308.5,179.63443 308.5,180.53442 308.5,181.43443C308.5,182.23442 308.54486,183.28793 309.30133,183.43309C310.1564,183.59715 311.27017,183.45369 312.02084,183.41359C312.81879,183.37096 313.83643,183.19107 314.52084,182.87193C315.29413,182.51138 316.14484,181.89482 316.80533,181.42909C317.50229,180.93765 318.18481,180.42529 319.16666,179.76776C319.72253,179.39549 320.52939,179.06076 321.33334,178.26776C321.93079,177.67845 322.19229,176.91156 322.48532,176.04909C322.81018,175.09291 323.21762,174.4315 323.64932,173.64909C323.94037,173.12163 324.33307,172.12027 324.51468,171.24509C324.72427,170.235 325.01434,169.43135 325.30133,168.83443C325.78464,167.82913 326.19778,167.04861 326.37866,166.23442C326.55414,165.44453 326.62558,164.41942 326.936,163.63443C327.2594,162.81659 327.67389,162.02155 328.10001,161.27043C328.57166,160.43903 329.14957,159.84158 329.70001,158.94775C330.03082,158.41057 330.51413,157.27293 330.7955,156.48177C330.98895,155.93782 331.25201,155.12523 331.41599,154.11977C331.55786,153.24977 331.66602,152.21095 332.02084,151.45526C332.4371,150.56873 333.05695,149.94598 333.5,149.10109C333.84091,148.45096 334.09222,147.69272 334.37885,146.57709C334.58142,145.78864 334.94714,144.89394 335.35068,144.16243C335.65271,143.61494 336.19211,142.44087 336.332,141.83443C336.53781,140.94232 336.51804,140.30637 336.94284,139.1346C337.16531,138.5209 337.68661,137.6712 338.01733,137.11977C338.617,136.11983 339.00906,135.44733 339.5,134.26776C339.71313,133.75569 339.9888,132.93022 340.29999,132.11842C340.68488,131.11436 341.06259,130.48048 341.33334,129.43443C341.53955,128.63779 341.55075,127.74184 341.784,126.75176C341.97324,125.94848 342.29828,125.21963 342.44284,124.24876C342.57776,123.34264 342.5372,122.43356 342.5,121.63443C342.45728,120.71678 341.72107,120.55979 340.89999,121.00909C340.11951,121.43619 339.17566,121.35594 338.33334,121.60109C337.47156,121.8519 336.54025,122.00169 335.86166,122.48709C335.09497,123.03551 334.53333,123.65501 333.89999,124.00909C333.03873,124.4906 332.10001,124.44509 331.29999,124.71976L330.70001,125.23576L330,125.93443" id="svg_22" stroke-width="3" stroke="#000" fill="none"/>
 </g>
</svg>