<svg width="500" height="333.3333333333333" xmlns="http://www.w3.org/2000/svg" xmlns:svg="http://www.w3.org/2000/svg" xmlns:xlink="http://www.w3.org/1999/xlink">
 <!-- Created with SVG-edit - http://svg-edit.googlecode.com/ -->
 <g display="inline" class="layer">
  <title>Layer 1</title>
  <path t="0,149,159,197,204,252,283,331,379,403,429,507,563,611,659,756,772,811,851,892,972,1012,1012,1032,1131,1142,1203,1220,1252,1268,1299,1324,1356,1468,1578,1612,1644,1653,1685,1717,1724,1779,1895,1959,1967,1980,1995,2029,2043,2058,2115,2167,2173,2235,2251,2283,2309,2344,2358,2387,2481,2498,2508,2517,2603,2627,2651,2676,2683,2707,2747,2773,2805,2812,2835,2867,2931,2957,2979,2987,3027,3036,3060,3091,3099,3163,3174,3196,3220,3236,3259,3275,3323,3348,3411,3422,3444,3483,3515,3547,3564,3595,3643,3678,3723,3747,3771,3795,3844,3883,3907,3947,3995,4011,4028,4043,4076,4115,4142,4168,4204,4419,4476,4540,4619,4707,4756,4907,4971,5027,5132,5211,5480,5611,5907,5927,5942,6127,6224,6224,6224,6235,6235,6252,6271,6373,6392,6392,6409,6413,6457,6475,6507,6531,6546,6595,6611,6637,6676,6704,6740,6757,6789,6819,6844,6868,6899,6981,6987,7028,7063,7099,7227,7317,7355,7444,7483,7579,7659,7739,7808,7866,8030,8053,8115,8180,8251,8267,8379,8387,8435,8459,8475,8486,8525,8573,8744,8811,8812,8829,8916,8947,8971,9115,9219,9233,9271,9292,9379,9395,9460,9493,9506,9535,9554,9558,9634,9666,9712,9717,9754,9826,9890,10059,10091,10123,10579,10587,10620,10675,10717,10732,10987,10997,11013,11019,11032,11139,11219,11275,11303,11316,11360,11402,11423,11441,11480,11510,11510,11539,11644,11669,11680,11747,11780,11861,11901,11947,11979,12019,12059,12091,12123,12147,12187,12210,12241,12283,12315,12353,12359,12380,12426,12486,12524,12734,12876,12877,12877,12883,12883,12883,12883,12883,12907,12940,12971,13007,13019,13043,13075,13102,13127,13186,13235,13285,13315,13354,13480,13600,14062,14063,14092,14123,14363,14548,14602,14619,14651,14684,14718,14735,14819,14867,14885,14907,14926,14941,15044,15068,15107,15181,15204,15355,15372,15451,15564,15588,15691,15924,16028,16044,16065,16236,16260,16268,16316,16404,16412,16476,16501,16540,16556,16596,16652,16749,16765,16786,16860,16900,16949,16979,16982,17012,17060,17092,17100,17157,17176,17204,17216,17244,17316,17341,17371,17380,17404,17436,17438,17508,17525,17569,17590,17621,17684,17803,17835,17843,18036,18079,18140,18163,18221,18275,18316,18347,18380,18432,18478,18520,18558,18582,18588,18619,18732,18772,18803,18820,18851,18886,18909,19028" d="M172.39432,226.76099C174.00499,226.72499 174.91212,226.42497 175.39432,225.59431C175.79601,224.90236 176.18767,224.39435 176.74698,223.81815C177.25746,223.29225 177.81084,222.7765 178.39432,222.26099C179.0322,221.69742 179.04205,220.81952 179.45148,220.11365C179.92004,219.30582 180.62936,219.19913 181.22765,218.59431C181.84277,217.97247 181.05513,216.72997 181.47964,216.04498C181.97507,215.24559 182.18065,214.63965 182.56099,213.76099C182.87984,213.02437 183.19919,212.2532 183.61565,211.53966C184.05191,210.79216 184.5567,210.24112 185.11032,209.67699C185.76984,209.00496 186.70622,209.17992 187.27281,208.53966C187.85016,207.88725 187.48819,207.07376 188.31032,206.75966C189.12605,206.44801 189.39432,205.47699 189.39432,204.53966C189.39432,203.67699 189.39432,202.77165 189.39432,201.88232C189.39432,201.04498 189.76172,200.1012 189.37349,199.26099C189.04218,198.54396 187.82681,198.42087 187.47964,197.56232C187.15508,196.75964 186.58633,196.28444 185.91515,195.76099C185.26221,195.25177 185.55409,194.17567 185.04166,193.40833C184.56151,192.68933 184.38177,191.93689 183.89432,191.26099C183.38092,190.54913 183.33829,189.7072 182.74698,189.11365C182.043,188.407 181.85475,187.54823 181.22765,186.92766C180.62051,186.32684 179.64809,186.21455 179.43031,185.37166C179.18912,184.43813 178.86339,183.8793 178.39432,183.24016C177.82214,182.46053 177.44283,181.70703 177.39432,180.79698C177.34952,179.95651 176.82527,179.19363 176.39299,178.47699C175.9744,177.78302 175.39966,177.18637 175.39432,176.33565C175.3885,175.40834 175.5649,174.52414 175.39432,173.59431C175.24995,172.80734 174.39432,172.59431 174.39432,171.70831C174.39432,170.81364 174.59358,169.90289 174.39432,169.11365C174.17497,168.24486 173.43703,167.56549 173.39432,166.70381C173.35025,165.81474 173.38177,164.93689 172.89432,164.26099C172.38092,163.54913 172.48445,162.6712 172.39432,161.76099C172.31058,160.91528 171.43703,160.48007 171.39432,159.59431C171.35143,158.70485 171.39432,157.81364 171.39432,156.92766C171.39432,156.11365 171.39432,155.18633 171.39432,154.26099C171.39432,153.40833 171.39432,152.47699 171.39432,151.59431C171.39432,150.70381 171.39432,149.81364 171.39432,148.92766C171.39432,148.11365 171.39188,147.18633 171.39432,146.26099C171.39658,145.40831 171.96982,144.81856 172.41965,144.15031C172.90849,143.42413 173.14183,142.53987 173.67831,141.84499C174.16135,141.21935 174.94948,141.14278 175.39432,140.53966C175.90639,139.8454 175.81505,138.53999 176.39449,138.98232C177.03276,139.46956 177.39432,139.98232 177.39432,140.84631C177.39432,141.76099 177.00514,142.78162 177.47964,143.47699C177.9334,144.14197 178.87819,144.54164 179.74698,144.76099C180.58922,144.97363 181.39432,144.92766 181.39432,145.86082C181.39432,146.70831 181.41563,147.60028 181.17299,148.42532C180.98534,149.06335 180.6729,149.8038 180.47964,151.07298C180.35789,151.87254 180.39432,152.80916 180.39432,153.70831C180.39432,154.59431 180.39432,155.42499 180.39432,156.26099C180.39432,157.26099 180.39432,158.11365 180.39432,159.04498C180.39432,159.92766 180.08885,160.94569 180.61565,161.63965C181.10126,162.27934 181.38391,162.98254 181.39432,163.86082C181.40474,164.74034 182.3334,164.97569 182.39432,165.81364C182.45918,166.70596 182.8468,167.13535 183.37349,167.78181C183.93822,168.47498 183.74391,169.20467 184.27281,169.98232C184.73944,170.66843 185.1552,171.30728 185.37349,172.24016C185.57257,173.09091 185.4655,174.18417 186.22765,174.59431C186.95934,174.98805 187.89432,174.76099 188.81966,174.76099C189.74698,174.76099 190.61565,174.76099 191.47964,174.76099C192.39432,174.76099 192.93958,175.20998 193.67831,175.67566C194.4285,176.14856 195.39432,175.70381 195.39432,174.81815C195.39432,173.92766 195.39432,173.11365 195.39432,172.24016C195.39432,171.28181 195.88309,170.6297 196.30899,169.84499C196.69919,169.12605 197.32439,168.76115 197.39432,167.95966C197.46764,167.1194 197.96576,166.58476 198.47964,166.04498C199.08612,165.40794 200.08713,165.36797 200.74615,165.11365C201.72609,164.7355 202.67831,164.76099 203.56099,164.76099C204.39432,164.76099 205.33716,164.76099 206.22765,164.76099C207.04166,164.76099 207.94638,164.71988 208.79431,165.18633C209.52483,165.58818 210.62114,165.33238 211.22765,165.92766C211.85176,166.54022 212.05267,167.29872 212.39432,168.18633C212.6911,168.95737 212.95621,169.72464 213.45148,170.40833C213.91518,171.04843 214.50635,171.545 214.96898,172.32498C215.42719,173.0975 215.95609,173.71808 216.38982,174.40833C216.81046,175.07773 216.78514,176.05472 217.39432,176.70381C217.96593,177.31288 219.04166,176.76099 219.91515,176.76099C220.87349,176.76099 221.74698,176.76099 222.67831,176.76099C223.56099,176.76099 224.44699,176.76099 225.34164,176.76099C226.09882,176.76099 227.03716,176.76099 227.96898,176.76099C228.81966,176.76099 229.75742,176.90007 230.67831,176.76099C231.41934,176.64906 231.61421,176.01259 232.31032,175.47699C232.93874,174.99347 233.69905,174.85187 234.59431,174.75966C235.40692,174.67595 236.10361,174.13626 236.95831,173.77165C237.76077,173.42932 238.71907,173.34698 239.33716,172.76099C239.86694,172.2587 240.38712,172.04117 241.22765,171.76099C242.01822,171.49747 242.78278,171.16516 243.39432,170.67566C244.0787,170.12785 244.73154,170.03081 245.30899,169.47699C245.87115,168.93785 246.76462,169.16571 247.30899,168.47699C247.85889,167.78128 247.67632,166.82225 248.56099,166.76099C249.41835,166.70161 250.10368,166.34631 250.87349,165.76099C251.48518,165.29588 252.04675,164.89754 252.74698,164.40833C253.46193,163.90883 253.3884,162.82188 254.25299,162.76099C254.99664,162.7086 255.62215,162.76099 256.72766,162.76099C257.55832,162.76099 258.41299,162.76099 259.23566,162.76099C259.97031,162.76099 261.29016,162.76099 262.22766,162.76099C263.04166,162.76099 263.85056,162.62357 264.38983,162.11365C264.88254,161.64777 265.28784,161.02962 266.04166,160.76549C266.91684,160.45885 267.60165,160.2099 268.39432,159.78181C269.1459,159.37592 269.67523,158.8037 270.56097,158.76099C271.42932,158.71912 272.21317,158.76099 273.16098,158.76099C273.87347,158.76099 275.20001,158.66095 275.39432,159.18633C275.716,160.05606 275.55426,161.0596 275.39432,161.92766C275.24924,162.71498 274.19565,162.756 273.33716,162.76099C272.41959,162.76633 271.7995,163.30106 271.04166,163.76549C270.40134,164.1579 269.73862,164.40182 268.89432,164.78181C268.19821,165.09511 267.65195,165.71861 266.96899,166.18633C266.1951,166.71632 265.28067,166.44083 264.44699,166.76549C263.65704,167.0731 263.32312,168.18417 262.56097,168.59431C261.82932,168.98805 261.3782,169.36613 260.74698,169.75648C259.99103,170.22397 259.30899,170.76091 258.41965,170.76099C257.51581,170.76108 257.00323,171.04846 256.45148,171.76549C255.91733,172.45963 255.54784,172.71831 255.39432,173.40833C255.20908,174.24088 254.83858,174.82983 254.35832,175.33565C253.77333,175.95178 253.81303,176.84991 253.30899,177.47699C252.73952,178.18549 251.81966,178.33565 251.17299,178.98232C250.51566,179.63965 250.09843,180.41237 249.22765,180.76099C248.45119,181.07184 248.08426,181.41248 247.30899,181.84631C246.6154,182.23445 245.88298,182.62642 245.03716,182.76549C244.1622,182.90935 243.48683,183.53928 242.78365,183.79698C241.8591,184.13582 241.22765,184.76099 240.34164,184.76099C239.44699,184.76099 238.84775,184.94229 238.30899,185.47699C237.68559,186.0957 236.97482,186.41852 236.11032,186.76099C235.27519,187.09181 234.54225,187.23347 233.81966,187.79698C233.23439,188.25339 233,188.98082 232.31032,189.47699C231.57602,190.00526 231.21706,190.27982 230.41965,190.77165C229.69745,191.2171 229.41232,192.14977 229.39432,193.04633C229.37598,193.95947 229.39432,194.84631 229.39432,195.73566C229.39432,196.63948 229.07799,197.22386 228.56099,197.92766C228.05327,198.61884 227.45522,198.97621 227.39432,199.86082C227.33612,200.70631 226.97664,201.31538 226.51582,201.98248C226.01186,202.71205 226.29219,203.69247 225.81966,204.33565C225.29468,205.0502 225.65642,206.11919 225.30899,206.84631C224.92447,207.65108 224.37349,208.26099 223.74698,208.75648L223.39432,209.33565L223.39432,210.18633" id="svg_1" stroke-width="3" stroke="#000" fill="none"/>
  <path t="21009,21150,21163,21183,21204,21259,21308,21316,21356,21387,21396,21467,21492,21499,21581,21612,21628,21660,21676,21699,21723,21741,21779,21827,21843,21895,21917,21949,21965,22051,22075,22091,22147,22173,22193,22243,22307,22330,22379,22394,22411,22432,22443,22467,22630,22630,22632,22637,22664,22748,22859,22885,22931,22958,23011,23046,23099,23125,23173,23195,23212,23252,23291,23364,23389,23435,23483,23507,23558,23581,23582,23604,23651,23707,23755,23780,23805,23828,23835,23875,23907,23947,23972,23989,24012,24075,24107,24140,24291,24317,24326,24435,24462,24500,24533,24579,24643,24670,24715,24779,24796,24851,24891,24907,24979,25011,25091,25117,25131,25168,25206,25259,25292,25315,25347,25379,25411,25499,25515,25533,25548,25571,25651,25747,25781,25820,25875,25916,25923,25939,25995,26040,26141,26169,26194,26208,26227,26275,26347,26363,26428,26467,26491,26531,26547,26595,26643,26692,26711,26783,26788,26886,26895,26896,26924,26989,27003,27027,27056,27059,27111,27113,27187,27245,27307,27323,27331,27367,27381,27450,27474,27477,27509,27637,27659,27795,27843,27915,27963,28232,28240,28290,28307,28371,28382,28419,28442,28501,28516,28539,28611,28644,28723,28803,28860,28962,29028,29045,29075,29133,29155,29186,29260,29260,29348,29374,29395,29437,29445,29487,29503,29519,29553,29604,29643,29692,29707,29716,29781,29799,29856,29893,29927,29930,29954,29980,29980,29988,30000,30020,30060,30094,30108,30121,30164,30174,30206,30236,30259,30474,30494,30580,30580,30598,30627,30669,30687,30756,30766,30767,30772,30789,30805,30827,30844,30956,30958,30959,30996,31010,31010,31212,31403,31427,31467,31796,31804,31829,31844,31877,31900,31954,31965,31989,32052,32140,32164,32212,32253,32253,32286,32301,32310,32325,32349,32373,32406,32429,32469,32509,32541,32661,32686,32846,32861,32873,32895,33069,33095,33158" d="M225.39432,208.76099C224.47964,209.04633 224.61682,209.9769 224.11032,210.67699C223.60854,211.37054 223.39432,212.05649 223.39432,212.98232C223.39432,213.84499 223.71655,214.8992 223.22765,215.59431C222.72525,216.30861 222.59215,217.03668 222.11032,217.67699C221.59947,218.35587 221.57439,219.12376 221.11032,219.95966C220.7029,220.69353 220.20247,221.15347 219.67831,221.75966C219.21515,222.29529 219.20247,223.15347 218.67831,223.75966C218.21515,224.29529 217.61676,224.70673 217.39565,225.47699C217.15872,226.30232 217.04166,227.11365 216.39432,227.76099C215.81966,228.33565 215.64992,229.14978 215.39299,230.04498C215.17192,230.81526 214.46107,231.09172 213.96898,231.73566C213.46898,232.38994 213.69646,233.23848 213.38982,234.11365C213.12569,234.86749 212.38982,235.11365 211.89432,235.76099C211.39882,236.40833 210.86121,236.80142 210.37349,237.26099C209.79214,237.80878 208.95164,238.20366 208.39432,238.76099C207.72765,239.42766 207.54993,240.31798 207.04166,240.76099C206.50877,241.22545 206.66414,242.09821 206.11032,242.67566C205.57118,243.23782 205.71671,243.90953 205.38365,244.73566C205.07574,245.49937 204.46687,246.18318 203.89432,246.74016C203.44698,247.17532 203.6006,248.23178 202.96898,248.72499C202.30963,249.23985 201.55777,249.68492 200.96898,250.18633C200.22145,250.82291 199.62781,251.24332 199.11032,251.76231C198.58032,252.29385 197.92932,252.67807 197.07315,252.98232C196.23396,253.28052 195.46863,253.84958 194.81966,254.33565C194.10997,254.8672 193.09584,254.60172 192.22765,254.76099C191.44067,254.90535 191.10077,255.47446 190.34164,255.81815C189.5784,256.1637 188.91924,256.46579 188.04166,256.76547C187.27019,257.02893 186.75148,257.63049 186.04166,258.11365C185.26353,258.64328 184.4581,258.7399 183.81966,259.33566C183.15102,259.95959 182.38922,260.2702 181.74698,260.81815C181.0984,261.37149 180.65895,261.57965 179.81966,261.76099C178.98473,261.94138 178.36903,262.75565 177.47964,262.76099C176.67833,262.76581 175.73064,262.59485 174.89432,262.76099C173.98929,262.94077 173.43089,263.74298 172.59299,263.76099C171.75168,263.77908 170.81966,263.76343 169.89432,263.76099C169.03714,263.75873 168.33382,263.26523 167.51582,262.88248C166.81079,262.55261 165.86119,262.72055 165.37349,262.26099C164.79214,261.7132 163.87663,261.93173 162.95831,261.75031C162.05083,261.57101 161.44838,260.78958 160.56099,260.76099C159.74741,260.73477 158.81966,260.76099 157.96898,260.76099C157.04166,260.76099 156.17299,260.76099 155.22765,260.76099C154.36899,260.76099 153.3633,260.42178 152.67831,260.84631C151.87892,261.34174 152.00746,262.12006 151.35832,262.75031C150.70442,263.38516 149.57022,262.77353 148.89432,263.26099C148.18246,263.77438 147.43324,263.93329 146.74698,264.40833C146.04463,264.8945 145.0193,264.56537 144.17299,264.76114C143.39063,264.94211 143.06358,265.69421 142.41965,266.18631C141.76537,266.68631 141.41991,267.32614 140.74698,267.75647C140.08092,268.1824 139.78798,269.02258 139.17299,269.6395C138.60509,270.20917 137.847,270.42929 137.45148,271.11365C136.98386,271.92273 137.06474,272.7959 136.67831,273.56097C136.27798,274.35358 135.63284,274.71155 135.39565,275.47699C135.14124,276.29797 134.58038,276.3212 133.75148,276.76099C133.1364,277.08734 132.57507,277.36606 131.83032,277.797C131.13179,278.2012 131.75351,279.45892 131.37349,280.24014C131.01836,280.97021 129.81793,280.79593 129.39565,281.47699C128.95653,282.18521 128.11221,282.42337 127.34165,282.81815C126.596,283.20016 126.31097,284.33865 125.43032,284.72498C124.63353,285.07449 123.69106,284.67172 122.96899,285.18631C122.27345,285.68201 121.50342,285.83954 120.57965,285.75031C119.71751,285.66702 118.86871,285.27573 118.39432,284.59433C117.90369,283.88962 117.88635,283.31302 117.39565,282.67566C116.83767,281.9509 117.39432,280.88248 117.39432,280.04498C117.39432,279.11365 117.39432,278.26099 117.39432,277.33566C117.39432,276.47699 117.25266,275.52795 117.39432,274.67566C117.53826,273.80966 118.20927,273.26001 118.89432,272.78183C119.58408,272.30038 120.31032,271.84497 120.89432,271.26099C121.56098,270.59433 122.07681,270.03375 122.78365,269.37164C123.45804,268.73996 123.98072,268.50784 124.61565,267.88248C125.18873,267.31802 125.61095,266.83975 126.49415,266.76099C127.38086,266.68192 127.45955,265.87183 127.96899,265.18631C128.46231,264.52249 128.27751,263.53171 128.39432,262.67697C128.50601,261.85968 129.33934,261.40396 129.39432,260.56232C129.45383,259.65131 129.94734,258.96359 130.27281,258.00381C130.54019,257.21539 131.1671,256.87961 131.67831,256.19165C132.08458,255.64494 132.23114,254.44679 132.74698,253.81364C133.27466,253.16595 134.05867,252.92418 134.37349,252.24016C134.73683,251.45068 135.04781,250.90677 135.74698,250.40833C136.48053,249.88539 136.8644,249.38278 137.38982,248.70381C137.93187,248.00334 138.00662,247.40431 138.67966,246.84499C139.34882,246.28889 140.08029,246.04207 140.78365,245.37166C141.43869,244.7473 142.10741,244.39796 142.74698,243.81815C143.29085,243.32509 143.89735,243.06818 144.68898,242.70831C145.47227,242.35223 145.9073,241.77611 146.40498,241.33565C147.02164,240.7899 147.88066,240.74715 148.45566,240.15031C149.10788,239.47331 149.6749,239.07651 150.67966,238.75966C151.48444,238.50587 152.18871,237.50354 153.03716,237.76549C153.63263,237.94934 154.20384,238.68486 154.39432,239.33565C154.65431,240.22395 155.1485,240.91731 155.74698,240.40382C156.43768,239.81122 156.86015,239.03857 157.33716,238.40833C157.88766,237.68095 158.39941,237.25175 159.04166,236.70381C159.6902,236.15048 159.77797,235.02292 160.61565,234.76099C161.44028,234.50313 162.4292,234.63773 163.03716,234.11365C163.72226,233.52307 164.38257,232.8447 165.27298,232.76099C166.10664,232.68262 166.92743,232.72055 167.41515,232.26099C167.99649,231.7132 168.80528,231.58977 169.39299,231.04498C169.89948,230.5755 170.79247,230.34483 171.47964,229.67566C172.04907,229.12115 173.11913,228.86961 173.38365,228.15031C173.68344,227.33513 173.81966,226.75032 174.38365,226.18633L174.74698,225.40833L175.38982,224.76549" id="svg_2" stroke-width="3" stroke="#000" fill="none"/>
  <path t="38730,39037,39047,39096,39134,39143,39197,39213,39239,39248,39284,39310,39327,39341,39350,39368,39381,39398,39413,39469,39492,39588,39605,39621,39632,39639,39662,39692,39702,39717" d="M196.39432,175.76099C197.22765,175.92766 197.45146,176.75873 198.34164,176.76099C199.22765,176.76323 200.12268,176.38191 200.96898,176.76099C201.58055,177.03491 202.00494,177.75565 202.95831,177.76099C203.81964,177.76581 204.8293,177.53392 205.56099,177.92766C206.3912,178.37442 206.96898,178.76099 207.89432,178.76099C208.74698,178.76099 209.67831,178.76099 210.56099,178.76099C211.45148,178.76099 212.36899,178.76099 213.22765,178.76099C214.09882,178.76099 214.95831,178.76099 215.91515,178.76099C216.79431,178.76099 217.68982,178.76099 218.56099,178.76099L219.49416,178.76099L220.36899,178.76099" id="svg_3" stroke-width="3" stroke="#000" fill="none"/>
  <path t="44580,44678,44686,44747,44764,44830,44880,44902,44906,44926,44933,44948,44958,45085,45176,45176,45197,45201,45225,45320,45322,45324,45324,45373,45382,45383,45388,45393,45416,45425,45434,45452,45492,45508,45548,45596,45637,45677,45764,45827,45836,46125,46236,46260" d="M184.39432,211.76099C185.22765,211.92766 185.67523,212.71828 186.56099,212.76099C187.42931,212.80286 188.38507,212.487 189.22765,212.76099C190.03607,213.02386 190.75941,213.49246 191.47832,213.84631C192.22945,214.21602 192.99428,214.75565 193.87349,214.76099C194.74696,214.76628 195.72754,214.92787 196.39432,215.26099C197.22485,215.67592 198.06258,215.56514 198.96898,215.76099C199.80391,215.94139 200.36899,216.75684 201.10416,217.11365C201.90077,217.50027 202.78944,217.66743 203.71548,217.98232C204.39203,218.21236 205.45187,218.4157 206.11032,218.84631C206.8974,219.36107 207.35188,219.93277 208.04166,220.40833C208.74492,220.89317 209.61565,220.98232 210.27281,221.63948C210.89432,222.26099 211.89363,222.30846 212.39432,222.92766C212.93422,223.59535 212.43623,224.6423 212.89432,225.26099C213.44763,226.0083 213.39432,226.92766 213.45148,227.81364L214.04166,228.40833" id="svg_4" stroke-width="3" stroke="#000" fill="none"/>
  <path t="58662,58829,58829,58862,58873,58891,58896,58914,58917,58926,59039,59116,59116,59116,59148,59181,59204,59228,59245" d="M128.99432,266.36099C129.99432,266.19431 130.55473,265.70737 131.29431,265.06549C131.96101,264.48688 132.91032,264.36099 133.69882,264.36099C134.59431,264.36099 135.49432,264.36099 136.39432,264.36099C137.30331,264.36099 138.32765,264.36099 138.99515,264.36099C139.93182,264.36099 140.89699,264.36099 141.69882,264.36099L142.59431,264.36099L143.49432,264.36099L144.38365,264.36099" id="svg_6" stroke-width="3" stroke="#000" fill="none"/>
  <path t="63736,63892,63908,63921,63921,63951,63974,63974,63996,64340,64500,64620,64633,64639,64646,64769,64769,64939,64940" d="M208.99432,220.36099C209.27965,219.44632 210.09431,219.36099 210.99432,219.36099C211.79431,219.36099 212.82765,219.36099 213.70415,219.36099C214.51166,219.36099 215.52927,219.05772 216.38365,219.37166C217.10301,219.63599 216.99432,220.71815 216.99432,221.66098C216.99432,222.56099 216.99432,223.46098 216.99432,224.36099L216.99432,225.11815L216.99432,226.01366L216.99432,226.87698" id="svg_7" stroke-width="3" stroke="#000" fill="none"/>
  <path t="69478,69681,69712,69712,69734,69749,69774,69865,69902,69919" d="M249.99432,165.36099C250.01515,166.38182 250.27119,167.30663 250.64165,167.99931C251.08455,168.82747 251.56898,169.38632 251.99432,170.19432L251.99432,170.97165L252.03032,171.92499L252.64165,172.35649" id="svg_8" stroke-width="3" stroke="#000" fill="none"/>
  <path t="72265,72382,72383,72409,72500,72536,72542,72573,72597,72676,72692,72812,72844,72844" d="M169.99432,152.36099C170.99432,152.36099 171.92473,151.96794 172.70898,152.44632C173.5126,152.93651 173.75169,153.67525 173.99565,154.55965C174.21608,155.35873 175.07466,155.82339 175.82765,156.19432C176.57301,156.56148 177.35149,156.71815 177.99432,157.36099L178.59431,157.92499" id="svg_9" stroke-width="3" stroke="#000" fill="none"/>
  <path t="75857,76084,76092,76103,76165,76476,76508,76765" d="M260.99432,164.36099C260.11581,164.36115 260.40491,165.18839 259.93716,166.00381C259.54263,166.6916 258.99432,167.36099 259.16098,168.19432L259.99432,168.36099" id="svg_10" stroke-width="3" stroke="#000" fill="none"/>
  <path t="80717,81393,81460,81460,81580,81603,81603,81620" d="M209.99432,172.36099C209.49432,172.90265 208.97498,173.84698 209.04099,174.53564C209.13341,175.49977 209.99432,176.19432 210.69432,176.35649L211.63715,176.41815" id="svg_11" stroke-width="3" stroke="#000" fill="none"/>
  <path t="82828,83404,83404,83748,84028,84044" d="M209.99432,172.36099C210.99432,173.36099 211.79431,173.36099 212.70898,173.27565L213.16098,172.52765L213.99432,172.36099" id="svg_12" stroke-width="3" stroke="#000" fill="none"/>
  <path t="89599,90172,90341,90404,90452,90524,90548,90565,90652,90708,90708,90732,90748,90812,90828,90844,91108,91132,91156,91172,91181,91181,91204,91229,91244,91253,91300,91300,91324,91332,91372,91380,91396,91428,91438,91468,91477,91484,91580,91636,91764,91804,91908,91924,91940,91965,92108,92276,92428" d="M157.99432,244.36099C158.79565,244.36099 159.69432,244.36099 160.59431,244.36099C161.49432,244.36099 162.39432,244.36099 163.29431,244.36099C164.19298,244.36099 165.07832,244.36099 165.99432,244.36099C166.79431,244.36099 167.69432,244.36099 168.63715,244.36099C169.51515,244.36099 170.39432,244.36099 171.29431,244.36099C172.19298,244.36099 173.07832,244.36099 173.88098,244.36099C174.81966,244.36099 175.91446,244.72461 176.63264,244.36099C177.20917,244.06909 177.41556,243.10208 177.87299,242.26115C178.2796,241.51364 179.2229,241.25359 179.63715,240.65648C180.18446,239.86754 179.94138,238.82623 180.34698,238.06099C180.79526,237.21524 180.96536,236.41316 180.99432,235.55965C181.02292,234.71671 181.91058,234.2067 181.99432,233.36099C182.08459,232.44945 181.98396,231.65642 181.99432,230.76099C182.00475,229.86081 182.63747,229.24017 182.98366,228.33565C183.26106,227.61084 183.05148,226.66098 183.51515,225.88182L184.28983,225.41365L184.95831,224.93565L184.99432,224.00381" id="svg_13" stroke-width="3" stroke="#000" fill="none"/>
  <path t="96438,96499,96513,96524,96550,96560,96581,96581,96581,96593,96593,96593,96593,96596,96596,96596,96614,96620,96620,96620,96638,96638,96638,96644,96644,96651,96651,96668,96668,96676,96676,96693,96694,96699,96700,96700,96707,96707,96716,96731,96731,96733,96747,96765,96765,96773,96783,96798,96843,96867,96878,96894,96895,96905,96905,96910,96923,96933,96933,96933,96939,96939,96939,96955,96955,96955,96957,96957,96980,96987,96999,97000,97017,97043,97045,97045,97045,97051,97061,97083,97087,97087,97092,97092,97100,97107,97115,97123,97123,97132,97145,97155,97166,97167,97171,97189,97197,97208,97219,97220,97227,97238,97246,97246,97246,97251,97266,97269,97270,97270,97300,97303,97304,97304,97307,97307,97317,97317,97323,97339,97355,97355,97366,97385,97390,97390,97390,97403,97405,97450,97450,97452,97453,97464,97465,97465,97465,97470,97470,97475,97491,97499,97523,97531,97539,97604,97612,97621,97629,97629,97638,97644,97644,97660,97661,97661,97672,97672,97673,97680,97680,97685,97685,97692,97692,97706,97715,97715,97731,97749,97764,97772,97790,97796,97803,97811,97819,97827,97850,97851,97859,97946,97962,97978,97994,97995,98019,98051,98125,98147,98155,98165,98195,98243,98275,98300,98379,98420,98437,98515,98539,98579,98731,98819,98875,98940" d="M0.99432,181.36099C2.59432,181.93565 3.39378,182.34299 4.28982,182.36099C5.16348,182.37856 6.03607,182.34856 6.99432,182.36099C7.81586,182.37166 8.52536,182.42255 9.63698,182.80365C10.31128,183.03482 10.98716,183.37846 11.68898,183.65565C12.93919,184.14943 13.70943,184.32257 14.50632,184.35832C15.51414,184.40355 16.53756,184.34531 17.25565,184.37166C18.04699,184.40071 19.07768,184.56665 19.75832,184.78632C20.59943,185.05777 21.60044,185.26927 22.39432,185.41365C23.40318,185.59714 24.179,185.93874 24.97298,186.46082C25.63809,186.89815 26.47699,187.30894 27.20498,187.35031C28.19295,187.40645 29.0246,187.32071 30.16098,187.52765C30.95132,187.67157 31.72232,187.97751 32.66098,188.19432C33.44532,188.37549 34.40498,188.36099 35.31548,188.36099C36.13298,188.36099 37.09965,188.36099 37.85565,188.36099C38.82765,188.36099 39.68982,188.36099 40.59432,188.36099C41.49432,188.36099 42.39432,188.36099 43.29432,188.36099C44.19299,188.36099 45.07832,188.36099 45.99432,188.36099C46.75148,188.36099 47.64698,188.36099 48.51032,188.36099C49.47348,188.36099 50.40498,188.36099 51.31615,188.36099C52.05682,188.36099 52.76632,188.36099 53.96232,188.36099C54.64499,188.36099 55.34365,188.36099 56.66098,188.36099C57.47998,188.36099 58.38532,188.36099 59.19398,188.36099C60.12232,188.36099 61.09965,188.36099 61.85565,188.36099C62.82765,188.36099 63.68982,188.36099 64.63715,188.36099C65.45165,188.36099 66.32765,188.36099 67.23432,188.36099C67.93182,188.36099 69.07565,188.36099 69.88098,188.36099C70.81965,188.36099 71.82765,188.36099 72.61965,188.36099C73.47832,188.36099 74.34165,188.36099 75.23715,188.36099C76.19432,188.36099 77.09431,188.36099 77.99432,188.36099C78.79432,188.36099 79.69432,188.36099 80.59431,188.36099C81.51515,188.36099 82.47832,188.35954 83.16898,188.36099C84.23266,188.36324 84.73309,188.96948 85.43032,189.32498C86.20489,189.71992 87.32293,189.56535 87.97349,189.86099C88.89565,190.28006 89.68424,190.36606 90.53682,190.58232C91.24123,190.761 92.11131,191.21295 93.09515,191.35649C94.02615,191.49232 94.99432,191.36099 95.78365,191.36099C96.50899,191.36099 97.52434,191.33963 98.53716,191.58232C99.26349,191.75636 100.03629,192.05759 101.07265,192.23949C101.7428,192.3571 102.82765,192.36099 103.68982,192.36099C104.55832,192.36099 105.25049,192.89859 106.09448,193.23949C106.83099,193.53697 107.81573,193.24854 108.75182,193.36115C109.67839,193.47261 110.27494,193.80673 110.99348,194.00832C112.16657,194.33742 113.00784,194.39755 113.70865,194.71365C114.3965,195.02391 115.39479,195.30856 116.26632,195.35031C117.32649,195.40109 117.96098,195.36099 118.97349,195.36099C119.63182,195.36099 120.72982,195.36099 121.68082,195.36099C122.59431,195.36099 123.49432,195.36099 124.38365,195.36099C125.27965,195.36099 126.19432,195.36099 127.09431,195.36099C127.99432,195.36099 128.87299,195.36099 129.64099,195.36099C130.64699,195.36099 131.34164,195.36099 132.36899,195.36099C133.31581,195.36099 134.01515,195.36099 134.99432,195.36099C135.81566,195.36099 136.76498,195.36099 137.63683,195.36099C138.63432,195.36099 139.30765,195.36099 140.49432,195.36099C141.29698,195.36099 142.16098,195.36099 142.99432,195.36099C143.97282,195.36099 144.79298,195.36099 145.63033,195.36099C146.64699,195.36099 147.34164,195.36099 148.35832,195.36099C149.29431,195.36099 150.19432,195.36099 151.09431,195.36099C151.99432,195.36099 152.87299,195.36099 153.69882,195.36099C154.59431,195.36099 155.49432,195.36099 156.38365,195.36099C157.32765,195.36099 158.01515,195.36099 159.10898,195.36099C159.99432,195.36099 160.87299,195.36099 161.64099,195.36099C162.64699,195.36099 163.34164,195.36099 164.34766,195.36099C165.27965,195.36099 166.19432,195.36099 167.09431,195.36099C167.99432,195.36099 168.87299,195.36099 169.69882,195.36099C170.59431,195.36099 171.49432,195.36099 172.39432,195.36099C173.29431,195.36099 174.19432,195.36099 175.09431,195.36099C175.99432,195.36099 176.87299,195.36099 177.69882,195.36099C178.59431,195.36099 179.49432,195.36099 180.38365,195.36099L181.27832,195.36232" id="svg_14" stroke-width="3" stroke="#000" fill="none"/>
  <path t="100640,100757,100778,100780,100796,100824,100835,100854,100855,100872,100872,100884,100891,100891,100916,100924,100931,101007,101007,101012,101049,101050,101051,101052,101059,101059,101084,101084,101100,101115,101131,101193,101195,101206,101206,101219,101236,101251,101251,101266,101270,101270,101306,101307,101411,101411,101411,101420,101420,101420,101420,101420,101420,101420,101452,101452,101452,101462,101462,101462,101473,101473,101490,101494,101500,101518,101526,101533,101533,101549,101555,101571,101578,101579,101623,101626,101627,101627,101655,101674,101691,101698,101699,101707,101722,101722,101737,101758,101763,101763,101772,101773,101782,101798,101830,101835,101835,101850,101851,101858,101859,101875,101887,101894,101901,101911,101941,101954,101969,101969,101979,102021,102021,102053,102070,102070,102072,102072,102076,102076,102082,102112,102113,102116,102116,102116,102125,102125,102125,102125,102149,102149,102149,102156,102156,102156,102163,102163,102173,102199,102201,102217,102217,102233,102233,102257,102257,102261,102261,102304,102307,102311,102311,102316,102316,102326,102332,102340,102350,102350,102363,102363,102407,102407,102419,102420,102420,102432,102432,102453,102465,102465,102465,102487,102488,102490,102492,102492,102499,102500,102507,102515,102516,102532,102532,102540,102540,102547,102556,102734,102734,102738,102738,102739,102739,102766,102766,102766,102766,102766,102767,102767,102767,102767,102807,102807,102807,102807,102807,102808,102808,102808,102808,102828,102828,102828,102828,102828,102829,102829,102829,102829,102863,102863,102864,102864,102864,102864,102864,102875,102875,102893,102894,102897,102899,102904,102904,102904,102904,102920,102920,102922,102949,102949,102949,102963,102963,102963,102963,102975,102986,103020,103048,103048,103068,103068,103069,103069,103069,103074,103075,103075,103078,103084,103102,103102,103128,103129,103132,103140,103140,103148,103163,103179,103187,103203,103212,103227,103236,103283,103291,103299,103308,103315,103316,103330,103360,103360,103364,103364,103365,103365,103451,103452,103452,103475,103497,103548,103556,103581,103612,103622,103699,103972,104028,104028,104071,104071" d="M228.99432,194.36099C229.79565,194.36099 230.69432,194.36099 231.59431,194.36099C232.47348,194.36099 233.43031,194.36099 234.29881,194.36099C235.16098,194.36099 235.99432,194.36099 236.97282,194.36099C237.79298,194.36099 238.63033,194.36099 239.64249,194.36099C240.42499,194.36099 241.43031,194.36099 242.29431,194.36099C243.19432,194.36099 244.0945,194.35654 244.87965,194.36099C245.8197,194.36633 246.82242,194.53833 247.49432,194.86099C248.30966,195.25255 249.20509,195.34261 250.19415,195.36115C250.97362,195.37575 251.82184,195.53809 252.54765,195.93565C253.34526,196.37254 254.29431,196.36099 255.19432,196.36099C256.09415,196.36099 256.94614,196.36099 257.70416,196.36099C258.51166,196.36099 259.60992,196.34645 260.39432,196.78632C261.12177,197.19424 261.88281,197.29358 262.81964,197.37166C263.83612,197.45638 264.49301,198.01555 265.32764,198.52765C265.97888,198.92723 266.82312,199.21506 267.64014,199.38182C268.47159,199.55153 269.32834,199.69093 270.465,199.92899C271.11154,200.06439 271.78644,200.21114 272.47348,200.36099C273.15576,200.5098 274.43707,200.79259 275.49432,201.02765C276.49792,201.25078 277.18207,201.41093 278.13165,201.64499C279.01474,201.86266 279.63272,202.05031 280.72983,202.23949C281.55743,202.3822 282.52908,202.30804 283.29431,202.71365C284.14005,203.16193 284.96899,203.35901 285.75598,203.36099C286.64697,203.36324 287.53781,203.38446 288.35831,203.78632C289.22824,204.2124 290.09433,204.36099 290.99432,204.36099C291.79431,204.36099 292.69431,204.36099 293.51514,204.36099C294.47833,204.36099 295.34164,204.36099 296.23267,204.36099C297.21582,204.36099 298.09433,204.36099 298.99432,204.36099C299.79431,204.36099 300.70898,204.36099 301.56366,204.36099C302.34616,204.36099 303.35831,204.36099 304.29883,204.36099C305.16098,204.36099 305.99432,204.36099 306.97281,204.36099C307.793,204.36099 308.69431,204.36099 309.59433,204.36099C310.51514,204.36099 311.31583,204.36099 312.20499,204.36099C313.19415,204.36099 313.97348,204.36099 314.97281,204.36099C315.793,204.36099 316.69431,204.36099 317.59433,204.36099C318.49432,204.36099 319.39432,204.36099 320.28983,204.36099C321.21582,204.36099 322.09433,204.36099 322.99432,204.36099C323.79431,204.36099 324.70898,204.36099 325.56366,204.36099C326.34616,204.36099 327.36899,204.36099 328.31583,204.36099C329.01514,204.36099 329.99432,204.36099 330.78366,204.36099C331.82764,204.36099 332.68982,204.36099 333.51514,204.36099C334.47964,204.36099 335.20499,204.36099 336.19482,204.36099C337.05682,204.36099 337.85031,204.36099 338.85831,204.36099C339.65231,204.36099 340.49432,204.36099 341.3363,204.36099C342.49432,204.36099 343.42731,204.36099 344.1983,204.36099C345.16098,204.36099 345.94247,204.36099 346.73297,204.36099C347.85132,204.36099 348.6853,204.36099 349.59433,204.36099C350.49432,204.36099 351.39432,204.36099 352.30331,204.36099C352.965,204.36099 353.99966,204.36099 354.74365,204.36099C355.85147,204.36099 356.60898,204.36099 357.64697,204.36099C358.34164,204.36099 359.35831,204.36099 360.29883,204.36099C361.16098,204.36099 361.99432,204.36099 362.97281,204.36099C363.793,204.36099 364.69431,204.36099 365.59433,204.36099C366.51514,204.36099 367.31549,204.36099 368.133,204.36099C369.16098,204.36099 369.88098,204.36099 370.84097,204.36099C371.681,204.36099 372.67831,204.36099 373.49432,204.36099C374.3103,204.36099 375.3063,204.36099 376.11166,204.36099C377.11697,204.36099 378.13165,204.36099 378.70633,204.36099C379.64081,204.36099 380.72983,204.36099 381.56232,204.36099C382.51514,204.36099 383.31564,204.36099 384.16898,204.36099C385.11032,204.36099 385.87833,204.36099 386.81964,204.36099C387.82764,204.36099 388.70764,204.36099 389.56497,204.36099C390.40332,204.36099 391.39166,204.36099 392.12231,204.36099C393.16232,204.36099 394.03598,204.36099 394.99432,204.36099C395.70233,204.36099 396.49432,204.36099 397.05832,204.36099C397.76633,204.36099 398.6423,204.36099 400.99432,204.36099C402.50632,204.36099 404.21033,204.36099 406.05832,204.36099C408.00232,204.36099 409.99432,204.36099 411.98633,204.36099C413.93033,204.36099 415.77832,204.36099 418.99432,204.36099C420.27866,204.36099 421.349,204.36099 422.23132,204.36099C422.95166,204.36099 423.53598,204.36099 424.01031,204.36099C424.40067,204.36099 424.73297,204.36099 425.32764,204.36099C425.63681,204.36099 425.961,204.36099 426.29517,204.36099C426.63431,204.36099 426.97348,204.36099 427.30765,204.36099C427.63181,204.36099 427.94098,204.36099 428.49432,204.36099C428.72998,204.36099 428.93964,204.36099 429.12732,204.36099C429.297,204.36099 429.45264,204.36099 429.59833,204.36099C430.47964,204.36099 431.20499,204.36099 432.19415,204.36099C433.15833,204.36099 434.11652,204.33461 434.72766,204.39699C435.98676,204.5255 436.70499,204.71365 437.49432,204.86099C438.28366,205.00832 439.32773,205.19365 440.07465,205.30832C440.95978,205.4442 441.76242,205.65984 442.55682,205.86099C443.47812,206.09428 444.51422,206.25322 445.23798,206.30382C445.95181,206.35371 446.93964,206.36032 448.11832,206.36099C448.99432,206.3615 449.75598,206.36099 450.66498,206.36099C451.57031,206.36099 452.49432,206.35739 453.24631,206.36232C454.07034,206.36772 454.92032,206.37039 455.74231,206.44632C456.83347,206.54712 457.66577,206.81627 458.50497,207.07698C459.46341,207.37474 460.405,207.36099 461.31564,207.36099C462.16898,207.36099 463.11032,207.36099 463.87833,207.36099C464.81964,207.36099 465.82764,207.36099 466.58365,207.36099C467.49432,207.36099 468.39432,207.36099 469.29431,207.36099C470.19431,207.36099 471.09433,207.36099 471.99432,207.36099C472.87299,207.36099 473.69882,207.36099 474.59433,207.36099C475.49432,207.36099 476.43884,207.26553 477.19431,207.64499C478.06152,208.08058 478.79431,208.36032 479.63031,208.36099C480.48233,208.36168 481.27698,208.36099 482.32764,208.36099C483.29965,208.36099 483.99432,208.36099 484.689,208.36099C485.95114,208.36099 486.71164,208.36099 487.50632,208.36099C488.54764,208.36099 489.43033,208.36099 490.39432,208.36099C491.29431,208.36099 492.19302,208.35516 493.05566,208.36099C493.84503,208.36633 494.51862,208.85158 495.28098,209.27565C496.05362,209.70544 496.99432,209.36099 497.97281,209.36099L498.793,209.36099" id="svg_15" stroke-width="3" stroke="#000" fill="none"/>
 </g>
</svg>