<svg width="500" height="333.3333333333333" xmlns="http://www.w3.org/2000/svg" xmlns:svg="http://www.w3.org/2000/svg" xmlns:xlink="http://www.w3.org/1999/xlink">
 <!-- Created with SVG-edit - http://svg-edit.googlecode.com/ -->
 <g display="inline" class="layer">
  <title>Layer 1</title>
  <path t="0,423,423,454,487,505,505,522,572,572,591,591,605,605,622,689,742,742,757,783,840,889,911,911,975,1022,1022,1048,1048,1091,1139,1255,1256,1287,1345,1345,1407,1407,1455,1505,1556,1575,1599,1599,1607,1622,1622,1639,1671,1671,1689,1689,1711,1727,1743,1743,1759,1775,1799,1815,1857,1857,1873,1939,1939,1955,1955,1972,1991,2039,2063,2063,2105,2105,2135,2135,2143,2143,2159,2172,2172,2189,2222,2222,2247,2263,2305,2305,2322,2322,2322,2350,2351,2389,2406,2439,2439,2455,2472,2489,2489,2505,2505,2522,2539,2599,2599,2599,2615,2615,2623,2623,2647,2663,2687,2711,2722,2722,2772,2789,2789,2839,2855,2872,2872,2889,2905,2922,2922,2942,2943,2955,2955,2972,2972,3039,3055,3078,3078,3094,3105,3122,3139,3155,3155,3155,3172,3172,3172,3189,3189,3205,3223,3223,3272,3272,3272,3294,3294,3305,3322,3338,3339,3388,3388,3405,3405,3423,3423,3438,3439,3455,3456,3478,3522,3538,3539,3588,3588,3607,3607,3623,3623,3655,3655,3672,3694,3695,3719,3738,3755,3772,3772,3788,3807,3807,3822,3838,3855,3872,3872,3888,3905,3905,3922,3922,3938,3938,3955,3955,3972,3991,4006,4007,4030,4031,4038,4055,4055,4072,4072,4088,4105,4105,4126,4126,4142,4142,4158,4158,4205,4205,4238,4238,4238,4255,4272,4272,4272,4272,4288,4288,4305,4322,4322,4338,4355,4372,4372,4388,4388,4438,4462,4462,4462,4463,4507,4507,4507,4523,4523,4523,4539,4539,4560,4583,4583,4605,4623,4639,4639,4663,4687,4705,4722,4738,4738,4755,4755,4783,4783,4806,4806,4855,4855,4872,4939,4972,4998,5040,5056,5072,5122,5189,5189" d="M181.5,152.66667C181.33333,153.66667 180.85266,154.36667 180.5,155.16667C180.14734,155.96666 179.72261,156.80473 179.416,157.46666C179.01344,158.33575 178.24976,158.827 177.7,159.552C177.14662,160.28177 176.8765,161.06979 176.3,161.78C175.76523,162.43881 175.00024,162.9334 174.33333,163.5C173.64934,164.08112 172.7988,164.31128 172,164.66667C171.20329,165.02113 170.8929,165.95657 170.2785,166.54533C169.59763,167.19781 168.79887,167.37004 168.2,167.96666C167.49867,168.66534 166.87071,169.28224 166.39999,169.98784C165.97266,170.6284 165.11955,171.29286 164.584,171.952C164.03534,172.62726 163.70714,173.29103 163.11067,174.07733C162.58081,174.77583 162.51042,175.6665 162.5,176.64517C162.49127,177.46529 162.5,178.36667 162.5,179.26666C162.5,180.16667 162.5,180.97116 162.5,181.98801C162.5,182.66667 162.5,183.64517 162.5,184.66667C162.5,185.46666 162.5,186.30267 162.5,187.15199C162.5,188.07117 162.5,189.06534 162.5,189.83067C162.5,190.78133 162.5,191.76666 162.5,192.66667C162.5,193.46666 162.5,194.36667 162.5,195.26666C162.5,196.16667 162.6133,197.16798 162.05733,197.76666C161.46826,198.40099 160.58566,198.85678 160.5,199.83333C160.44244,200.48949 160.5,201.5 160.5,202.36217C160.5,203.26666 160.49777,204.16667 160.5,205.06667C160.50226,205.97568 160.56616,206.64247 160.85266,207.672C161.06081,208.42 161.4052,209.32426 161.48933,210.28133C161.56548,211.14738 161.39154,212.02115 161.5045,212.9095C161.61604,213.78664 162.20341,214.36775 162.89999,215.06667C163.59874,215.76775 164.29294,216.31906 164.47917,217.16667C164.67471,218.05664 164.70387,218.99599 165.02083,219.6875C165.47504,220.6785 165.76649,221.28108 166.2,222.00951C166.75383,222.94011 167.23837,223.54437 167.47467,224.48134C167.68823,225.32819 168.60609,225.72456 169.064,226.27733C169.63162,226.96254 169.84242,227.9805 170.5,228.66667C170.98924,229.1772 171.81136,229.7858 172.21466,230.46666C172.70462,231.29382 172.90723,232.11745 173.66667,232.66667C174.29562,233.12152 175.08824,233.48953 175.74283,234.31934C176.25635,234.97031 176.57422,235.9404 177.3,236.38C178.10674,236.86865 179.11987,236.66425 179.89999,237.092C180.7229,237.54321 181.53189,237.79318 182.10001,238.27733C182.84537,238.91251 183.59238,239.60451 184.3,239.66533C185.19669,239.7424 186.13686,239.62993 186.98267,239.668C187.93341,239.71078 188.51237,240.38477 189.26167,240.71933C190.12402,241.10437 190.88545,241.39911 191.89999,241.58133C192.69083,241.72337 193.69983,241.66667 194.47917,241.66667C195.33333,241.66667 195.92804,242.03746 196.7215,242.54517C197.46852,243.02316 198.5,242.66667 199.3,242.66667C200.2,242.66667 201.10001,242.66667 202,242.66667C202.92133,242.66667 203.83333,242.66667 204.50983,242.66667C205.28534,242.66667 206.33333,242.66667 207.26401,242.66667C208.09866,242.66667 209.0955,242.66667 209.84283,242.66667C210.87466,242.66667 211.8215,242.66667 212.52083,242.66667C213.5,242.66667 214.3,242.66667 215.10001,242.66667C216.0955,242.66667 217.01466,242.66667 217.97917,242.66667C218.91066,242.66667 219.82133,242.66667 220.67467,242.66667C221.616,242.66667 222.384,242.66667 223.336,242.66667C224.10133,242.66667 225.10001,242.66721 225.89999,242.66667C226.89867,242.666 227.71332,242.77361 228.61467,242.38266C229.35686,242.06075 230.20876,241.7681 231.02083,241.64583C232.00851,241.49712 232.71359,241.11484 233.4785,240.56667C234.23843,240.02206 234.77251,239.32689 235.38533,238.86667C236.11768,238.3167 236.89224,238.02878 237.74283,237.36667C238.33279,236.90744 238.97458,236.14023 239.7,235.468C240.28046,234.9301 241.13304,234.60814 241.584,233.86534C242.01161,233.161 242.7,232.46667 243.3,231.86667C243.90001,231.26666 244.60114,230.56778 245.2,229.96666C245.79662,229.36778 246.21439,228.47141 246.72133,227.78783C247.2372,227.09222 247.30998,226.34236 248.02083,225.6875C248.65923,225.09938 249.32159,224.79367 249.8,224.01401C250.21924,223.33078 250.83018,222.44191 251.3,221.78267C251.83075,221.03792 252.2814,220.3531 252.464,219.30267C252.6252,218.37538 252.5,217.5 252.5,216.66667C252.5,215.68817 252.25061,214.80424 252.57201,214.06667C252.95042,213.19821 253.96619,213.00232 254.39017,212.01401C254.67104,211.3593 254.98854,210.47842 255.33333,209.5C255.5565,208.86667 255.5,207.83333 255.5,207.04134C255.5,206.00951 255.5,205.26216 255.5,204.26666C255.5,203.46666 255.54736,202.46402 255.47917,201.66667C255.39305,200.65977 255.04501,199.88852 254.784,199.15199C254.47958,198.29297 254.17249,197.33011 253.79466,196.65683C253.35735,195.87753 252.92816,195.39252 252.61433,194.12833C252.41992,193.3452 252.64844,192.3698 252.27867,191.56667C251.9202,190.78809 251.50597,190.06671 251.5,189.14583C251.49376,188.18268 251.60408,187.44334 251.216,186.552C250.89305,185.81024 250.50905,184.95868 250.49983,183.90233C250.49457,183.29967 250.48558,182.26886 250.41467,181.548C250.31007,180.48473 250.20465,179.80498 249.85333,178.91333C249.41391,177.79811 249.04333,177.33049 248.5,176.70833C247.70517,175.7982 247.02054,175.37492 246.584,174.46666C246.22084,173.71106 245.70483,173.01299 245.52083,172.16667C245.3295,171.28667 245.23215,170.45117 244.69867,169.86667C244.04179,169.14697 243.6114,168.32578 243.07466,167.692C242.55292,167.07596 242.19891,166.18961 241.92534,165.492C241.5596,164.5594 241.35735,163.76347 240.79466,163.00951C240.37025,162.44083 239.66257,161.48328 239.54167,160.6875C239.41322,159.84201 239.68475,158.94455 239.464,158.06667C239.24702,157.20381 238.73521,156.36745 238.216,155.75067C237.65923,155.08928 237.21333,154.468 236.61333,153.952L235.67467,153.70267L234.66667,153.66667L233.87466,153.63066" id="svg_1" stroke-width="3" stroke="#000" fill="none"/>
  <path t="6604,6719,6735,6735,6755,6772,6772,6788,6788,6805,6805,6822,6822,6838,6855,6872,6919,6919,6972,7023,7075,7075,7141,7141,7156,7156,7207,7207,7247,7272,7272,7322,7374,7374,7389,7389,7407,7422,7438,7455,7472,7488,7505,7505,7505,7555,7555,7575,7622,7639,7639,7639,7655,7655,7672,7688,7705,7727,7727,7727,7743,7788,7788,7805,7855,7887,7887,7919,7919,7919,7943,7990,7990,8005,8023,8038,8038,8055,8105,8105,8122,8138,8138,8159,8183,8183,8215,8215,8238,8255,8272,8272,8288,8288,8311,8311,8335,8359,8372,8372,8388,8405,8422,8422,8438,8455,8479,8488,8505,8505,8522,8522,8522,8522,8538,8538,8538,8559,8559,8605,8623,8623,8638,8663,8688,8706,8722,8722,8739,8739,8755,8756,8773,8773,8773,8788,8789,8789,8806,8806,8806,8806,8806,8822,8822,8823,8838,8839,8855,8856,8856,8872,8872,8895,8895,8905,8906,8923,8938,8955,8972,8973,8988,8988,9015,9023,9038,9055,9072,9073,9095,9095,9119,9119,9138,9138,9155,9155,9175,9175,9272,9373,9373,9405,9473,9488,9488,9555,9572,9572,9588,9588,9605,9623,9638,9638,9655,9655,9656,9672,9672,9673,9673,9690,9690,9690,9705,9722,9900,9900,9956,9956,9987,9988,10005,10005,10005,10006,10006,10006,10071,10071,10072,10072,10072,10088,10088,10088,10187,10187,10218,10219,10239,10239,10263,10263,10264,10369,10369,10369,10422,10439,10455,10455,10472,10472,10488,10505,10522,10522,10538,10555,10555,10577,10591,10591,10614,10615,10622,10638,10638,10655,10672,10672,10688,10688,10688,10688,10705,10705,10722,10722,10722,10738,10738,10755,10772,10788,10788,10805,10805,10822,10838,10862,10905,10905,10955,10955,10956,10982,10990,10990,11006,11022,11022,11038,11038,11038,11055,11078,11079,11094,11095,11110,11110,11111,11111,11122,11122,11122,11138,11138,11138,11155,11155,11155,11156,11172,11172,11246,11247,11247,11286,11287,11389,11422,11422,11438,11439,11455,11455,11455,11505,11522,11538,11538,11606,11606,11606,11647,11647,11671,11671,11688,11738,11738,11739,11755,11771,11788,11789,11789,11805,11805,11821,11821,11855,11855,11855,11907,11938,11939,11955,11955,11971,11988,11988,12006,12021,12038,12039,12055,12055,12105,12105,12121,12171,12188,12189,12189,12238,12338,12338,12369,12388,12388,12438,12438,12495,12521,12551,12551,12574,12575,12598,12599,12630,12655,12655,12671,12694,12710,12711,12755,12805,12821,12822,12854,12871,12894,12905,12905,12921,12921,12938,12958,13005,13005,13030,13031,13055,13055,13078,13078,13121,13121,13121,13138,13138,13158,13171,13171,13188,13205,13205,13221,13221,13239,13255,13278,13278,13294,13295,13310,13311,13355,13355,13374,13375,13390,13406,13407,13422,13423,13438,13455,13455,13471,13488,13488,13505,13505,13506,13521,13521,13538,13555,13555,13571,13598,13598,13621,13621,13638,13655,13655,13671,13671,13688,13688,13705,13705,13721,13738,13738,13755,13755,13771,13771,13772,13772,13788,13788,13789,13805,13805,13822,13822,13823,13839,13839,13840,13856,13856,13872,13872,13895,13895,13906,13907,13922,13939,13939,13956,13972,13973,13989,13990,14006,14006,14007,14022,14023,14023,14039,14040,14056,14056,14072,14073,14089,14090,14090,14106,14106,14107,14122,14123,14123,14139,14140,14159,14160,14160,14173,14174,14190,14206,14224,14224,14224,14240,14240,14256,14257,14273,14273,14289,14290,14306,14307,14322,14323,14340,14340,14340,14356,14357,14357,14375,14376,14389,14407,14408,14431,14447,14489,14539,14540,14567,14568,14589,14606,14622,14639,14656,14657,14657,14672,14673,14673,14689,14706,14727,14771,14854,14854,14854,14887,14887,14905,14906,14921,14922,14938,14959,14959,15005,15005,15021,15038,15055,15055,15079,15079,15095,15095,15111,15121,15138,15138,15155,15155,15156,15171,15171,15172,15188,15205,15205,15221,15221,15222,15255,15271,15271,15288,15288,15289,15311,15327,15327,15338,15338,15355,15375,15391,15391,15405,15421,15438,15438,15455,15455,15471,15471,15488,15488,15511,15511,15555,15583,15583" d="M182.5,154.66667C182.5,153.64583 182.5,152.68817 182.5,151.868C182.5,150.9095 182.5005,150.00951 182.5,149.26216C182.49933,148.26666 182.54338,147.44864 182.27867,146.46683C182.06322,145.66771 181.5881,144.84445 181.5045,143.97116C181.4183,143.07077 181.61537,142.15915 181.5,141.27733C181.38831,140.42363 180.53018,140.22672 179.78534,139.58267C179.19193,139.06958 178.97949,138.13446 178.31467,137.528C177.57149,136.85007 176.72482,136.67758 175.84734,136.30949C175.13113,136.00906 174.36571,135.48831 173.70134,134.86667C173.08105,134.28629 172.39886,133.56778 171.8,132.96666C171.20338,132.36778 170.6557,131.5567 170.416,130.78133C170.17668,130.0072 169.5824,129.36256 168.936,128.65199C168.38849,128.05009 168.84077,126.98913 168.47917,126.1875C168.14864,125.45473 167.04204,125.26459 166.5,124.5C166.04904,123.86389 165.71396,123.05816 165.3,122.26933C164.91293,121.53173 164.06581,120.91412 163.51466,120.22C163.01738,119.59373 162.64574,118.83459 162.14816,118.31934C161.3972,117.54169 160.66518,116.9 160.51067,116.06667C160.34648,115.18121 160.10121,114.3917 159.5,113.5C159.0692,112.86105 158.69965,112.1509 158.2045,111.42384C157.62093,110.56694 157.58156,109.72064 156.88933,109.10267C156.22186,108.50681 155.27477,108.11086 154.89999,107.44534C154.47044,106.68256 154.13965,105.85402 153.7,105.152C153.14806,104.27068 152.41069,103.73955 151.936,103.06667C151.41763,102.33186 151.04706,101.55946 150.66667,100.66666C150.34648,99.91513 150.51184,99.01519 150.216,98.18267C149.90236,97.30006 149.52859,96.42526 149.5,95.5665C149.47388,94.78177 149.5,93.84133 149.5,92.83334C149.5,92.04134 149.5,91.18267 149.5,90.31934C149.5,89.30267 149.5,88.46533 149.5,87.5C149.5,86.66666 149.5,85.688 149.5,84.914C149.5,84.014 149.32669,83.13113 149.52083,82.1875C149.69923,81.3203 150.38925,80.67621 150.49867,79.86667C150.61948,78.97289 151.01555,78.16153 151.60001,77.56667C152.19467,76.9614 152.94287,76.30121 153.37866,75.56683C153.84372,74.78316 154.30997,74.19299 154.94316,73.56667C155.46733,73.04818 156.66617,72.66536 157.18533,72.46533C158.02002,72.14374 158.91527,71.80894 159.7995,71.34534C160.39648,71.03234 161.29034,70.59694 162,69.83334C162.5983,69.18955 163.14731,68.70019 163.98267,68.66534C164.79138,68.6316 165.16386,67.87873 165.536,67.10267C165.89035,66.36368 166.43794,65.80402 166.5,64.83334C166.55074,64.03969 167.07378,63.18745 167.5,62.66667C168.17592,61.84081 168.48846,60.99877 168.7215,60.12383C168.91447,59.39926 169.18355,58.60651 169.60017,57.58767C169.8959,56.86446 170.26456,56.10287 170.66667,55.16667C170.98859,54.41718 171.32201,53.59343 171.63867,52.74267C171.79376,52.32599 172.22374,51.1783 172.38567,50.23817C172.54926,49.28838 172.45859,48.4644 172.52083,47.64583C172.6084,46.49408 172.82306,45.70675 173.11067,44.928C173.45932,43.98397 174.02644,43.388 174.33333,42.5C174.60965,41.7004 174.35062,40.66014 174.55716,39.97117C174.82086,39.09151 175.3645,38.35813 175.50133,37.46667C175.64191,36.55073 176.21579,35.92969 176.44733,35.0185C176.64296,34.24862 177.35426,33.62397 177.49867,32.86533C177.66672,31.98252 177.44684,31.02883 177.50267,30.18267C177.55998,29.31403 178.05193,28.52851 178.68533,28.07733C179.59106,27.43217 180.19661,26.96779 180.91066,26.256C181.38608,25.78208 182.17445,25.03751 182.63867,24.492C183.29599,23.71959 183.51067,22.81749 184.02083,22.16667C184.62195,21.39981 185.26831,20.81544 186.2,20.67117C187.12498,20.52793 187.98399,20.66667 188.84734,20.66667C189.74733,20.66667 190.66667,20.66667 191.5,20.66667C192.4785,20.66667 193.29883,20.68399 194.2,20.66667C195.13652,20.64866 196.02711,20.45279 196.67467,20.02C197.54761,19.43657 197.84492,18.77186 198.42416,18.31933C199.39719,17.55915 200.21066,17.41933 201,17.16667C201.78934,16.914 202.8884,16.57536 203.57133,16.0185C204.10648,15.58215 204.79459,14.72395 205.70134,14.66667C206.66475,14.60581 207.32533,14.66667 208.33333,14.66667C209.12534,14.66667 210.17566,14.69667 210.81866,14.59467C212.01363,14.40512 212.75813,14.10056 213.17149,13.94783C214.06729,13.61687 215.017,13.20809 215.504,12.97867C217.01053,12.26896 217.49591,11.98765 217.98199,11.723C218.91911,11.21279 219.75246,10.6968 220.83333,10.16667C221.56395,9.80832 222.24733,9.64625 223.15717,9.314C223.91174,9.03844 224.89758,8.71885 225.7,8.67733C226.69872,8.62566 227.55354,8.56492 228.5,9C229.14113,9.29472 229.74786,9.86295 230.16667,10.83333C230.48705,11.57565 230.04385,12.63102 230.78534,13.41067C231.37384,14.02945 232.5,13.66667 233.38533,13.66667C234.32533,13.66667 235.01601,13.66667 235.97917,13.66667C236.91066,13.66667 237.82133,13.66667 238.67467,13.66667C239.61467,13.66667 240.5,13.66667 241.3,13.66667C242.25717,13.66667 243.15717,13.66667 243.9045,13.66667C244.89867,13.66667 245.664,13.66667 246.74283,13.66667C247.60017,13.66667 248.38533,13.66667 249.32533,13.66667C250.33333,13.66667 251.04167,13.66918 252,13.66667C252.85802,13.66442 253.50766,13.71778 254.448,13.58133C255.65887,13.40563 256.34271,12.94788 257.26401,12.78817C258.16653,12.63171 258.82397,12.672 260,12.66667C260.79199,12.66308 261.71414,12.82514 262.60001,12.66633C263.54459,12.49701 263.70258,11.62448 264.5,11C265.18152,10.46629 265.97238,10.42559 266.66934,9.95067C267.40585,9.44879 268.47882,9.66667 269.30984,9.66667C270.26801,9.66667 271,9.66667 271.73199,9.66667C272.83865,9.66667 273.82132,9.66667 274.5,9.66667C275.61465,9.66667 276.5,9.66667 277.31433,9.66667C278.26801,9.66667 279,9.66667 279.73199,9.66667C280.83865,9.66667 281.82132,9.66667 282.5,9.66667C283.61865,9.66667 284.367,9.66667 285.26434,9.66667C286.19733,9.66667 286.896,9.66667 287.61865,9.66667C289.01334,9.66667 289.65332,9.66667 290.53833,9.66667C291.57883,9.66667 292.28534,9.66667 293.26935,9.66667C294.14267,9.66667 295.15067,9.66667 295.84933,9.66667C296.53201,9.66667 297.7316,9.6271 298.45834,9.6875C299.50653,9.77462 300.28345,10.14231 301.10001,10.38267C302.07947,10.67097 302.84283,10.66442 303.86401,10.66667C304.70267,10.66852 305.47092,10.64783 306.50983,10.67117C307.2858,10.6886 308.34296,10.80009 309.03833,11.01933C309.85144,11.2757 310.88312,11.48744 311.70001,11.66933C312.54495,11.85747 312.94162,12.75733 313.66666,13.5C314.11301,13.95722 314.89993,14.37133 315.89868,14.86533C316.47656,15.15116 317.52161,15.41746 318.29868,15.75067C319.08447,16.08761 319.65436,16.84609 320.32535,17.48133C320.8381,17.96676 321.76074,18.45834 322.60001,18.667C323.53128,18.89853 323.8515,19.57519 324.38535,20.184C325.08157,20.97799 325.88339,21.31121 326.616,21.868C327.28888,22.37939 327.98401,23.15067 328.5,23.66667C329.01599,24.18267 329.86401,25.03067 330.5,25.66667C331.10001,26.26667 331.70001,26.86668 332.29999,27.46667C333,28.16668 333.60233,28.76437 334.20001,29.36667C334.89203,30.06401 335.34442,30.77193 335.5,31.66667C335.64014,32.47257 336.4017,33.02604 337.01733,33.552C337.65961,34.10072 337.96375,34.87896 338.44733,35.905C338.79907,36.65134 339.6987,36.96294 340.31467,37.528C340.81808,37.9898 341.28729,38.95671 341.72134,39.76667C342.12619,40.52217 342.46555,41.32336 342.78534,42.15067C343.06061,42.86277 343.69431,43.58257 344.14282,44.36217C344.57767,45.11798 344.38794,46.17653 345.06934,46.868C345.59851,47.40499 346.54587,47.94496 346.95834,48.66667C347.41177,49.46005 347.49466,50.25595 347.5,51.1875C347.50552,52.15065 347.5,52.84134 347.5,53.9095C347.5,54.76667 347.5,55.66667 347.5,56.46667C347.5,57.36667 347.5,58.30267 347.5,59.15067C347.5,60.014 347.5,61.03067 347.5,61.86667C347.5,62.76667 347.40851,63.67921 347.55716,64.42384C347.74176,65.34859 348.28363,65.98122 348.46399,67.03067C348.62265,67.95383 348.44962,68.87676 348.58533,69.63734C348.72964,70.44627 349.05917,71.15136 349.33334,72.33334C349.51987,73.13747 349.45291,73.99138 349.53601,74.91333C349.61945,75.83881 349.85342,76.61461 350.07468,77.40533C350.33426,78.33308 350.49466,79.24528 350.5,80.07733C350.50586,80.98798 350.5,81.84133 350.5,82.78133C350.5,83.76683 350.5,84.552 350.5,85.492C350.5,86.18267 350.5,87.256 350.5,88.07733C350.5,88.988 350.5,89.84133 350.5,90.78267C350.5,91.55067 350.5,92.50267 350.5,93.268C350.5,94.26667 350.5,95.06667 350.5,96.06533C350.5,97.0095 350.5,97.914 350.5,98.83334C350.5,99.66666 350.5,100.64516 350.5,101.46533C350.5,102.30267 350.5,103.31934 350.5,104.014C350.5,105.04134 350.5,105.98817 350.5,106.6875C350.5,107.66666 350.5,108.46667 350.5,109.26667C350.5,110.26217 350.5,111.18134 350.5,112.16666C350.5,112.988 350.5,113.84133 350.5,114.78133C350.5,115.76683 350.5,116.552 350.5,117.492C350.5,118.18267 350.5,119.16666 350.5,120.152C350.5,120.87733 350.5,121.8665 350.5,122.64584C350.5,123.64533 350.5,124.55067 350.5,125.492C350.5,126.18267 350.5,127.16666 350.5,128.15199C350.5,128.87733 350.5,129.86684 350.5,130.6875C350.5,131.83333 350.5,132.62384 350.5,133.1875C350.5,134.06799 350.5,135.26534 350.5,136.14583C350.5,136.7095 350.5,137.98134 350.5,138.64583C350.5,139.66667 350.5,140.47734 350.5,141.35201C350.5,142.35066 350.50055,143.16667 350.5,143.98267C350.49933,144.98 350.58966,145.86148 350.216,146.78267C349.94046,147.46194 349.58566,148.32924 349.44733,149.07117C349.26025,150.0746 348.89243,150.8195 348.58401,151.78133C348.30304,152.65753 347.89203,153.26932 347.20001,153.96666C346.50269,154.66936 345.94943,155.15199 345.39999,155.98817C344.95758,156.66147 344.49481,157.66412 344.20001,158.27116C343.89459,158.90007 343.40286,160.08878 343.20001,160.61034C342.90417,161.37097 342.24353,162.34244 341.70001,162.83333C341.0188,163.44858 340.69815,164.18272 340.10001,165.052C339.69876,165.63515 339.30161,166.43855 338.97916,167.20833C338.61792,168.07071 338.18188,168.9682 337.68533,169.856C337.36331,170.43178 336.78967,171.4877 336.60983,172.2095C336.40018,173.05095 336.34821,173.8983 335.95834,174.66667C335.42477,175.71829 334.83383,176.2471 334.36133,176.83067C333.71783,177.62544 333.89847,178.4763 333.44284,179.30949C333.02151,180.07993 332.00302,180.5094 331.68533,180.95334C331.18683,181.64993 330.68182,182.70123 330.45184,183.41484C330.15866,184.32458 329.83154,185.03893 329.20001,185.914C328.72626,186.57045 328.19046,187.3188 327.79999,188.07117C327.38989,188.86134 327.04175,189.67168 326.5,190.5C326.0347,191.21144 325.49786,191.99904 325.1955,192.672C324.86166,193.41495 324.37567,194.37759 323.67465,195.00534C323.18042,195.44792 322.31586,196.11037 321.94666,196.84134C321.49243,197.74065 321.4454,198.77678 320.88934,199.23067C320.13651,199.84517 319.57889,200.341 319.064,201.06667C318.58746,201.73825 317.87045,202.28249 317.29999,203.14934C316.87762,203.79115 316.02853,204.22884 315.58533,204.952C315.10593,205.73422 314.96701,206.51952 314.62115,207.33099C314.36948,207.92149 314.5047,208.7677 314.05734,209.745C313.72906,210.46217 313.13834,211.22667 312.56134,212.02C312.05768,212.71254 311.53986,213.3143 311.064,214.07733C310.56488,214.87766 310.04163,215.47687 309.78534,216.26801C309.46964,217.24254 309.50226,218.06667 309.5,219.06534C309.49829,219.83067 309.5,220.78267 309.5,221.55067C309.5,222.492 309.5,223.5 309.5,224.29201C309.5,225.31934 309.5,226.01401 309.5,227.03067C309.5,227.97116 309.5,228.83333 309.5,229.66667C309.5,230.64534 309.5,231.41933 309.5,232.31934C309.5,233.18266 309.5,234.14583 309.5,235.07733C309.5,235.98833 309.5,236.70833 309.5,237.83333C309.5,238.61934 309.5,239.44133 309.5,240.5C309.5,241.205 309.50009,242.005 309.5,243.04134C309.49991,243.98817 309.56122,244.70328 309.33334,245.66667C309.14215,246.47499 308.7854,247.18175 308.5,248.16667C308.21475,249.15108 307.9238,249.90369 307.33334,250.5C306.73819,251.10106 305.94003,251.4077 305.13599,252.06667C304.45975,252.6209 303.83817,253.26834 303.58401,254.14934C303.35703,254.93623 302.82584,255.57944 302.10001,256.10266C301.31741,256.66681 300.80118,257.31219 300,257.66666C299.19669,258.02206 298.33493,258.50763 297.67465,258.64133C296.66895,258.84497 296.02295,259.2215 295.17868,259.76666C294.51688,260.194 293.6377,260.63132 293.02084,261.16666C292.26196,261.82526 291.70001,262.46667 291.10001,263.06668L290.40018,263.76685L289.936,264.30267" id="svg_2" stroke-width="3" stroke="#000" fill="none"/>
  <path t="17515,17685,17685,17701,17701,17722,17751,17751,17775,17789,17807,17823,17839,17856,17856,17879,17879,17879,17879,17895,17895,17895,17940,17956,17956,17989,17989,18006,18006,18024,18048,18048,18048,18056,18072,18072,18089,18089,18089,18106,18106,18106,18203,18203,18203,18219,18256,18256,18307,18307,18322,18322,18339,18339,18356,18356,18372,18372,18389,18406,18422,18439,18456,18456,18472,18489,18489,18489,18506,18506,18522,18539,18539,18556,18572,18589,18589,18589,18606,18606,18624,18624,18640,18640,18672,18696,18706,18722,18739,18739,18756,18756,18772,18789,18789,18806,18822,18839,18839,18856,18856,18879,18880,18889,18906,18922,18939,18956,18956,18972,18972,18989,18989,19006,19022,19022,19040,19056,19072,19072,19089,19089,19106,19106,19128,19128,19128,19139,19139,19167,19167,19189,19189,19205,19206,19206,19206,19206,19222,19222,19239,19239,19239,19256,19256,19256,19272,19272,19272,19289,19289,19289,19306,19306,19321,19322,19339,19339,19339,19355,19356,19372,19372,19389,19389,19415,19415,19415,19415,19423,19423,19439,19456,19471,19472,19472,19489,19489,19506,19506,19522,19522,19539,19539,19556,19556,19572,19572,19572,19572,19589,19589,19589,19589,19606,19606,19606,19606,19606,19622,19622,19622,19639,19656,19656,19672,19689,19689,19706,19706,19722,19722,19722,19739,19756,19772,19772,19789,19789,19806,19806,19822,19839,19856,19856,19872,19872,19889,19889,19905,19905,19922,19939,19959,19975,19975,20023,20023,20041" d="M236.5,154.66667C237.37199,155.51733 237.83971,156.11662 238.89867,156.496C239.63275,156.759 240.61467,156.66667 241.5,156.66667C242.3,156.66667 243.2,156.66667 244.10001,156.66667C245,156.66667 245.94708,156.76068 246.8,156.314C247.55223,155.92004 248.23705,155.62042 249.26401,155.0025C249.87682,154.63377 250.50502,154.15248 251.142,153.6675C252.0069,153.00897 252.64166,152.49506 253.29601,151.86934C253.91267,151.27965 254.6373,150.59901 255.10001,150.03067C255.75586,149.22508 256.06363,148.4682 256.59982,147.68817C257.10931,146.94698 257.44009,146.09775 257.94284,145.34534C258.30679,144.80064 259.06042,144.19101 259.73834,143.42383C260.37598,142.70222 260.48993,141.98592 260.72168,141.12384C260.91714,140.39674 261.18893,139.5717 261.8215,138.58817C262.28513,137.86728 262.90338,137.27007 263.5,136.66667C264.0899,136.07007 264.85516,135.63405 265.32935,134.552C265.69122,133.7262 265.5546,132.8685 266.06934,132.18266C266.62485,131.44249 267.43256,130.91406 267.95834,130.16667C268.48923,129.41206 268.29965,128.59839 268.72168,127.68816C269.09924,126.87385 270.02713,126.5318 270.63867,126.06667C271.45349,125.44692 271.37601,124.45806 271.50015,123.56683C271.61188,122.76479 272.27054,122.19259 272.52533,121.51733C272.87927,120.57937 273.61581,120.00988 273.89999,119.38C274.21793,118.67531 274.80884,117.70084 275.21466,116.86933C275.60172,116.07625 275.49542,115.18266 275.5,114.31934C275.50534,113.31329 276.0791,112.75235 276.37885,112.0025C276.70117,111.19619 276.5148,110.32772 277.20984,109.4765C277.74783,108.81764 278.55209,108.39191 278.95834,107.66666C279.47876,106.73759 279.49933,105.868 279.5,104.96667C279.50067,104.06667 279.49991,103.16666 279.5,102.256C279.50009,101.34534 279.41434,100.45383 279.72134,99.68816C280.03174,98.91408 280.48956,98.146 280.5,97.18267C280.50934,96.31939 280.5,95.42384 280.5,94.46667C280.5,93.5665 280.5,92.78133 280.5,91.83067C280.5,91.06533 280.5,90.07117 280.5,89.32384C280.5,88.30267 280.5,87.36667 280.5,86.46667C280.5,85.56667 280.5,84.66666 280.5,83.9095C280.5,83.0095 280.52869,82.26172 280.49866,81.268C280.47009,80.32262 280.00323,79.49797 279.66666,78.66666C279.36008,77.90948 279.59866,76.95819 279.47916,76.14584C279.33386,75.158 278.86227,74.51252 278.58401,73.55067C278.36554,72.79547 278.08328,71.81301 277.73834,71.26217C277.22217,70.43789 276.46484,69.70497 276.06934,69.06667C275.59888,68.30737 275.57501,67.27188 275.14282,66.41933C274.79184,65.72694 274.22015,64.98083 273.79199,64.42C273.05536,63.4551 272.45486,62.97584 271.82401,62.452C271.18286,61.91962 270.53973,61.45114 269.76434,60.8095C269.02975,60.20161 268.33334,59.5 267.84283,59.0095C267.28934,58.45601 266.4855,57.68062 265.909,57.06667C265.35782,56.47967 264.79636,55.67863 264.55066,54.856C264.29263,53.99213 263.94702,52.97469 263.63867,52.452C263.17245,51.66166 262.47464,50.84437 262.04166,50.20833C261.4895,49.39724 261.46301,48.68228 261.13834,47.65683C260.88895,46.86916 260.67044,46.31285 260.01733,45.35333C259.55933,44.68046 258.79001,43.85099 258.48532,43.04133C258.16718,42.19596 257.87024,41.41024 257.33334,40.5C257.02557,39.97823 256.5097,39.18076 256.15268,38.6765C255.40669,37.62287 255.08646,37.00389 254.5,36.1875C254.05309,35.56535 253.16083,35.24415 252.5,34.64583C251.96918,34.16521 251.29062,33.37711 250.616,32.868C249.88048,32.31292 249.09917,31.9593 248.10133,31.468C247.52292,31.18321 246.5116,30.8267 245.74733,30.614C244.81967,30.35583 244.22701,30.02881 243.16667,29.66667C242.53732,29.45172 241.50298,29.17433 240.80533,29.02383C239.83711,28.81498 238.99008,28.7428 238.17734,28.56933C237.55557,28.43663 236.41115,28.01121 235.49384,27.60867C235.00734,27.39518 234.03844,26.94027 233.56784,26.72467C232.33618,26.16039 231.49327,25.75665 230.62134,25.67067C229.67923,25.57777 228.64444,25.8162 227.91066,25.63067C227.0388,25.41021 226.30223,24.71437 225.61467,24.668C224.65544,24.60331 223.80602,24.61505 222.81734,24.38267C222.01395,24.19384 221.22455,24.089 220.31883,23.71933C219.4527,23.36581 218.91776,22.81079 218.14816,22.614C217.2318,22.37968 216.64906,21.80874 215.67467,21.27733C215.00441,20.91179 214.02103,20.67708 213.1955,20.66667C212.17874,20.65384 211.5,20.66667 210.52116,20.66667C209.69017,20.66667 208.73199,20.66667 208,20.66667C206.83333,20.66667 206.04167,20.66667 205.2,20.66667C204.3,20.66667 203.39999,20.66667 202.5,20.66667C201.61467,20.66667 200.67467,20.66667 199.98399,20.66667L198.91066,20.66667" id="svg_3" stroke-width="3" stroke="#000" fill="none"/>
  <path t="20851,20989,20989,20989,21004,21005,21005,21021,21022,21022,21022,21022,21038,21039,21039,21039,21055,21055,21055,21055,21072,21072,21072,21089,21089,21089,21089,21089,21104,21105,21122,21122,21139,21139,21139,21139,21155,21155,21155,21172,21172,21172,21189,21189,21239,21255,21272,21289,21289,21289,21305,21305,21305,21305,21322,21322,21339,21339,21360,21360,21360,21372,21389,21405,21405,21422,21422,21439,21439,21455,21455,21472,21472,21489,21489,21489,21489,21519,21519,21539,21539,21555,21555,21572,21572,21589,21589,21589,21605,21605,21622,21622,21639,21639,21639,21655,21655,21655,21672,21672,21672,21689,21689,21689,21689,21703,21703,21703,21703" d="M301.5,40.66667C301.85718,42.681 302.10956,43.48837 302.30133,44.06933C302.69772,45.27009 302.91013,45.88497 303.10001,46.53867C303.52264,47.99361 303.6087,48.40736 303.7955,49.272C303.98837,50.16473 304.16888,51.0577 304.33334,52.33333C304.43161,53.09548 304.46475,53.80615 304.52533,54.48133C304.64679,55.83526 304.77112,56.55111 304.936,57.27067C305.09686,57.97264 305.47058,59.18136 305.8045,59.81317C306.22134,60.60184 306.823,61.65131 307.15717,62.37733C307.33679,62.76763 307.67657,63.58371 308.10132,64.33067C308.65628,65.30666 309.47089,65.7404 310.16666,66.66666C310.63135,67.28528 310.48581,68.43122 310.509,69.02917C310.54776,70.0279 310.58209,70.73083 310.94266,71.62383C311.27274,72.44131 311.90372,73.07014 312.25717,74.08784C312.52423,74.85677 312.40085,75.70167 312.784,76.696C313.10083,77.51823 313.49988,78.26661 313.5,79.16666C313.50012,80.08806 313.33398,81.00017 313.14734,81.681C312.92606,82.4882 312.65405,83.66506 312.58401,84.26534C312.48151,85.14388 312.47729,85.99557 312.216,86.98133C311.97983,87.87227 311.57965,88.86251 311.52084,89.66666C311.44791,90.66422 311.5,91.456 311.5,92.18134C311.5,93.14584 311.5,94.07733 311.5,94.988C311.5,95.84133 311.5,96.784 311.5,97.4765C311.5,98.43467 311.5,99.416 311.5,100.33334C311.5,101.14584 311.53046,102.1567 311.46399,102.94933C311.37552,104.00439 311.22903,104.63671 311.064,105.30666C310.81689,106.30968 310.40091,107.40271 310.11066,107.96933C309.66779,108.83391 309.51044,109.6665 309.5,110.64533C309.49176,111.41929 309.5,112.32833 309.5,113.12833C309.5,114.088 309.5,114.892 309.5,115.714C309.5,116.745 309.5,117.625 309.5,118.6455C309.5,119.4765 309.5,120.43733 309.5,121.20834C309.5,122.06934 309.5,122.9665 309.5,123.856C309.5,124.7095 309.5,125.74567 309.5,126.46267C309.5,127.23367 309.5,128.53067 309.5,129.32466C309.5,130.16667 309.5,130.59067 309.5,132.16667L309.5,132.812L309.5,133.625L309.5,134.34801" id="svg_4" stroke-width="3" stroke="#000" fill="none"/>
  <path t="22072,22154,22154,22155,22172,22172,22172,22172,22189,22189,22189,22189,22204,22205,22205,22205,22221,22221,22222,22239,22239,22239,22255,22255,22272,22272,22272,22272,22272,22289,22289,22289,22289,22289,22289,22305,22305,22305,22327,22327,22327,22339,22355,22355,22372,22372,22389,22389,22405,22405,22422,22422,22422,22439,22455,22472,22489,22489,22505,22527,22527,22543,22543,22555,22572,22589,22589,22605,22605,22605,22605,22622,22622,22622,22639,22655,22655,22655,22671,22672,22672" d="M302.5,118.66666C302.14734,120.6855 301.90497,121.51978 301.784,122.15467C301.58817,123.1824 301.552,123.92379 301.5,124.6875C301.44662,125.47112 301.3457,126.66858 301.216,127.46533C301.08694,128.25809 300.82526,129.40518 300.66666,130.5C300.56827,131.17908 300.51382,132.14568 300.50449,132.76216C300.48627,133.96638 300.5,134.56216 300.5,135.43066C300.5,136.5 300.5,137.43066 300.5,138.26534C300.5,139.27567 300.50482,139.93867 300.5,141C300.49548,141.99004 300.4744,142.75154 300.38568,143.59C300.33795,144.04099 300.06372,145.51057 299.93201,146.032C299.66235,147.09937 299.49866,147.62462 299.20532,148.647C299.06735,149.12782 298.72015,150.37679 298.56134,151.33333C298.43353,152.10301 298.28943,153.09068 298.07468,153.88133C297.86322,154.65977 297.73441,155.74786 297.33334,156.66667C297.03107,157.35921 296.54703,158.14943 296.50449,159.07117C296.45859,160.06561 296.5,160.86667 296.5,161.86667C296.5,162.66667 296.5,163.66667 296.5,164.45599C296.5,165.18134 296.7977,166.1996 296.48932,167.056C296.21429,167.81981 295.22388,168.19685 294.85718,169.01849C294.47229,169.88094 294.5,170.83333 294.5,171.66667C294.5,172.64517 294.5,173.36217 294.5,174.26666C294.5,175.1875 294.5,176.15466 294.5,176.94934C294.5,178 294.5,178.63467 294.5,179.66667C294.5,180.36133 294.5,181.33333 294.5,182.384C294.5,183.17867 294.5,184.052 294.5,185C294.5,185.92799 294.5,186.71851 294.5,187.74533L294.5,188.44133L294.5,189.35066" id="svg_5" stroke-width="3" stroke="#000" fill="none"/>
  <path t="23306,23424,23424,23440,23440,23440,23456,23456,23456,23456,23473,23473,23473,23490,23490,23490,23506,23506,23506,23523,23523,23523,23540,23540,23556,23573,23573,23573,23573,23590,23606,23606,23623,23640,23640,23640,23640,23656,23656,23656,23673,23673,23673,23691,23691,23691,23706,23706,23706,23722,23722,23722,23739,23739,23739,23739,23755,23755,23755,23772,23772,23772,23772,23789,23789,23789,23805,23805,23822,23822,23822,23848,23848,23848,23856,23872,23889,23889,23889,23905,23905,23905,23922,23922,23922,23939,23939,23939,23939,23954,23955,23972,23972,23989,23989,24005,24005,24022,24022,24022,24039,24039,24055,24072,24072,24088,24089,24089,24104,24105,24105,24105,24122,24139,24139,24155,24155,24172,24172,24172,24172,24189,24205,24205,24205,24222,24222,24222,24222,24239,24239,24239,24255,24255,24255,24255,24272,24272,24272,24289,24289,24289,24289,24289,24305,24305,24305,24322,24322,24322,24322,24336,24336,24336,24336,24336" d="M320.5,40.66667C322.87466,43.052 323.40216,43.62272 323.98401,44.43733C324.33652,44.93087 324.87714,45.76004 325.33334,46.66667C325.77679,47.54795 325.95505,48.168 326.384,48.98133C326.92856,50.01387 327.35236,50.42138 327.84732,51.11934C328.51617,52.06249 328.86249,52.89772 329.12534,53.44133C329.64294,54.5118 330.15167,55.21031 330.67465,55.856C331.33209,56.66769 331.72977,57.27023 332.1955,58.0095C332.6864,58.78874 333.39044,59.23481 334.13599,59.8C334.94678,60.41465 335.15097,61.07835 335.5,61.66667C336.01349,62.53217 336.79034,63.36167 337.5,63.83333C338.19803,64.29728 338.47638,65.09832 338.5,66.16666C338.51895,67.02451 338.42645,67.68962 338.67065,68.61467C338.94525,69.65483 339.56033,70.12514 340.10266,70.63333C340.92688,71.40564 341.33511,71.89451 341.78568,72.7185C342.32776,73.70988 342.41919,74.44463 342.58267,75.35067C342.76385,76.35479 343.00934,77.17066 343.2045,77.714C343.57794,78.75362 344.02423,79.67478 344.21466,80.436C344.43033,81.29817 344.47205,82.32777 344.48932,83.052C344.50677,83.78384 344.5,84.84517 344.5,85.83067C344.5,86.456 344.5,87.66666 344.5,88.56667C344.5,89.16666 344.5,90.06667 344.5,91.264C344.5,91.84534 344.5,92.896 344.5,93.86134C344.5,94.63467 344.5,95.681 344.5,96.488C344.5,97.06934 344.5,98.264 344.5,99.125C344.5,99.896 344.5733,100.99786 344.49866,101.868C344.41495,102.8438 344.0979,103.53008 343.61334,104.268C343.06577,105.1019 342.4469,105.64286 342.06934,106.352C341.56296,107.30312 341.59277,107.91129 341.39465,108.77116C341.11578,109.98152 340.80814,110.57225 340.31467,111.43066C339.9942,111.98812 339.39258,112.98415 339.02084,113.625C338.50989,114.50581 337.90125,115.1186 337.62134,115.988C337.35599,116.81219 337.25562,117.81651 336.73834,118.41933C336.06894,119.19942 335.45068,119.63918 335.06934,120.268C334.50238,121.20287 334.65997,122.02367 334.48932,123.03067C334.34186,123.90076 333.75381,124.46047 333.29868,125.43733C332.9462,126.19384 332.77991,126.79395 332.17883,127.96633C331.87054,128.56763 331.33737,129.38147 331.06934,129.896C330.51013,130.9695 330.19769,131.85559 329.7955,132.42383C329.16846,133.3098 328.87729,133.92111 328.33334,134.83333C327.86322,135.62173 327.48489,136.12537 327.06934,136.89734C326.56509,137.83408 326.3537,138.84193 326.05334,139.524C325.75809,140.19455 325.17429,141.3071 324.85184,141.972C324.51608,142.66438 324.15787,143.34277 323.83334,144.33333C323.56631,145.14835 323.51456,145.92183 323.33334,147C323.16919,147.97679 322.99478,148.67099 322.7955,149.36133C322.42847,150.63277 322.20096,151.16815 321.86401,151.95334C321.34177,153.17032 321.01633,153.91747 320.84732,154.32016C320.50067,155.14612 320.18402,155.96661 319.66666,157C319.28448,157.76335 318.7897,158.50417 318.62134,159.43117C318.45187,160.36427 318.48962,161.09995 318.41599,161.87067C318.30139,163.06995 318.13382,163.88916 318.04266,164.32001L317.81732,165.24667L317.52802,166.29333" id="svg_6" stroke-width="3" stroke="#000" fill="none"/>
  <path t="25123,25205,25205,25205,25222,25222,25222,25222,25222,25222,25239,25239,25239,25239,25239,25255,25255,25255,25255,25255,25272,25272,25272,25272,25289,25289,25289,25289,25305,25322,25322,25339,25339,25339,25355,25355,25355,25371,25372,25372,25372,25372,25440,25440,25506,25539,25539,25539,25555,25555,25555,25555,25555,25555,25555,25555,25622,25622,25622,25622,25622,25622,25622,25622,25622,25654,25654,25654,25654,25654,25654,25654,25654,25654,25671,25672,25672,25672,25688,25688,25688,25688,25688,25688,25688,25688,25707,25707,25707,25707,25707,25707,25721,25721,25721,25721,25721,25804,25804,25839,25839,25855,25855,25855,25855,25855,25855,25855,25855,25904,25905,25905,25905,25905,25921,25921,25921,25938,25938,25938,25938,25938,25938,25954,25954,25954,25954,25954,25954,26004,26004,26021,26022,26038,26039,26039,26039,26039,26039,26039,26039,26039,26055,26055,26055,26055,26055,26055,26055,26055,26072,26072,26072,26072,26103,26103,26121,26122,26138,26139,26155,26155,26155,26155,26171,26172,26172,26338,26338,26372,26373,26389,26389,26389,26389,26404,26405,26405,26405,26405,26422,26422" d="M240.5,227.66667C239.55716,228.75166 239.50636,229.60663 239.50133,230.32666C239.4922,231.63097 239.5,232.12134 239.5,233.164C239.5,233.70833 239.5,234.823 239.5,235.38533C239.5,237.045 239.5,237.58 239.5,238.62C239.5,239.125 239.5,240.105 239.5,241.5C239.5,242.38 239.5,242.80499 239.5,243.625C239.5,244.78 239.5,245.84534 239.5,246.51401C239.5,247.492 239.5,248.15067 239.5,249.18767C239.5,250.27066 239.49745,250.96933 239.5,251.612C239.50534,252.95869 239.81953,253.71692 240.14734,254.481C240.53883,255.39355 240.48804,256.20819 240.49867,257.06934C240.50975,257.96677 240.48056,258.88574 240.608,259.50266C240.88864,260.86121 241.33762,261.55768 241.78667,262.27066C242.01302,262.63004 242.48264,263.31271 243.35683,264.40216C243.8089,264.96555 244.00227,265.90704 244.5,266.66666C244.75378,267.05399 245.45857,266.6409 246.93617,265.552C247.64581,265.02905 248.42123,264.40576 249.27467,263.728C250.189,263.00189 251.14551,262.23221 252.13516,261.436C253.14418,260.62421 255.16562,258.99869 256.15567,258.21085C257.11765,257.44537 258.04825,256.71069 258.94266,256.01334C259.79031,255.35245 260.58856,254.73724 261.33368,254.17583C262.01279,253.66414 263.16248,252.82713 263.62784,252.5175C264.0126,252.26149 264.33231,252.0638 264.60132,251.94C264.80841,251.84471 264.98041,251.79135 265.10684,251.8125C265.20844,251.8295 265.37415,251.99127 265.44284,252.41251C265.56015,253.13199 265.49933,253.86667 265.5,255.4165C265.50027,256.05865 265.5,256.74884 265.5,257.47601C265.5,258.22916 265.5,258.99734 265.5,259.7695C265.5,260.53467 265.5,262 265.5,263.32401C265.5,263.9335 265.5,264.51199 265.5,265.58801C265.5,266.09149 265.5,267.5 265.5,268.37866C265.5,269.20932 265.5,269.98401 265.5,270.69467C265.5,271.892 265.53613,272.91568 265.64401,272.74667C265.96692,272.24091 266.38358,270.79462 266.63867,270.19067C266.91739,269.53085 267.22125,268.83139 267.54166,268.10416C267.86923,267.36069 268.20184,266.61566 268.53467,265.88266C269.16321,264.49841 269.44772,263.87061 269.98117,262.77499C270.21338,262.29803 270.30566,261.14877 271.33334,260.5C271.88651,260.15079 272.33698,260.97562 272.60001,262.09534C272.83441,263.0932 272.90207,263.66101 273,264.25C273.20432,265.47864 273.29608,266.10464 273.5,267.33334C273.59793,267.92346 273.7955,269.03885 273.88934,269.56265C274.06396,270.53732 274.24329,271.40408 274.37851,272.50168C274.50629,273.53867 274.51428,274.06155 274.61432,273.43866C274.81897,272.16428 274.94135,271.57352 275.07068,270.90399C275.21252,270.1698 275.36975,269.38489 275.54166,268.5625C275.71899,267.71417 275.9035,266.85358 276.10266,265.996C276.48935,264.33084 276.69498,263.55179 276.89999,262.81201C277.09525,262.10748 277.28363,261.43719 277.70001,260.21735C277.89246,259.65353 278.05734,259.10889 278.69983,257.73151C279.0712,256.93536 279.45059,256.25168 280.01468,255.44133C280.58768,254.61821 281.06528,253.92683 281.98401,253.75467C282.8331,253.59557 283.67874,254.19846 284.08932,254.924C284.58075,255.79236 284.81909,256.61679 285.064,257.47733C285.23087,258.06363 285.41113,259.2645 285.5,260.125C285.57968,260.89645 285.7363,262.01199 286.38666,262.37866C287.24673,262.86356 288.22104,262.57114 289.18533,262.09201C289.75995,261.80652 290.34088,261.36923 290.90134,260.80801C291.85394,259.8541 292.39532,259.01614 292.67868,258.60132C293.2366,257.78448 293.48566,257.38184 294.35699,256.05283L294.828,255.42134" id="svg_7" stroke-width="3" stroke="#000" fill="none"/>
  <path t="28481,28691,28708,28708,28722,28722,28738,28738,28755,28777,28777,28777,28792,28837,28837,28855,28872,28872,28890,28890,28920,28920,28944,28944,28944,28955,28972,28972,28988,29008,29008,29022,29038,29056,29072,29088,29105,29105,29122,29122,29138,29138,29155,29172,29172,29172,29188,29205,29205,29221,29238,29264,29264,29264,29288,29305,29305,29402,29402,29402,29436,29436,29464,29464,29472,29472,29504,29536,29536,29555,29555,29555,29572,29572,29588,29588,29609,29610,29632,29632,29672,29672,29688,29705,29705,29705,29736,29755,29755,29772,29772,29788,29808,29808,29822,29848,29848,29864,29880,29880,29896,29909,29909,29938,29938,29955,29955,29955,29955,29972,29972,29987,30004,30004,30004,30021,30037,30038,30054,30071,30071,30096,30096,30105,30105,30135,30135,30157,30157,30175,30176,30176,30188,30188,30188,30204,30221,30221,30237,30237,30237,30255,30255,30271,30271,30271,30271,30288,30288,30288,30304,30305,30321,30321" d="M186.5,95.66666C186.5,96.6875 186.40706,97.65789 186.55716,98.41933C186.7412,99.35292 187.23039,100.05247 187.41467,101.06533C187.55232,101.82188 187.41371,102.93474 187.66667,103.83334C187.85843,104.5145 188.216,105.18267 188.5,106.16666C188.784,107.15067 189.19499,107.80617 189.41467,108.78133C189.61014,109.64902 189.50668,110.44227 189.85716,111.32384C190.16162,112.08964 190.64128,112.8483 190.97917,113.66666C191.38403,114.64723 191.47318,115.45562 191.49867,116.18134C191.53328,117.16631 191.8018,118.14344 192.07466,118.84133C192.43866,119.77231 192.5,120.66666 192.5,121.46667C192.5,122.36667 192.5,123.26667 192.5,124.16666C192.5,125.06667 192.5,125.97117 192.5,126.83334C192.5,127.66666 192.5,128.64534 192.5,129.41933C192.5,130.31934 192.5,131.18266 192.5,132.1875C192.5,133.20934 192.5,133.91733 192.5,134.66133C192.5,135.696 192.5,136.66667 192.5,137.46666C192.5,138.36667 192.5,139.20833 192.5,140.20934C192.5,140.91733 192.49974,141.89867 192.5,142.85234C192.50026,143.76683 192.71059,144.60127 193.35466,145.14934C194.00021,145.69865 194.78627,146.19031 195.81334,146.496C196.44377,146.68364 197.49133,146.57317 198.25267,146.72383C199.18192,146.90773 199.81487,147.45036 200.87466,147.63066C201.80876,147.78957 202.52083,147.66667 203.5,147.66667C204.3,147.66667 205.10001,147.66667 206.10001,147.66667C206.89999,147.66667 207.89999,147.66667 208.7,147.66667C209.7,147.66667 210.5,147.66667 211.5,147.66667C212.28934,147.66667 213.3336,147.68842 214.1955,147.66667C215.02162,147.64583 215.83917,147.24414 216.5,146.64583C217.03082,146.16521 217.65179,145.24472 218.66667,144.83333C219.28899,144.58107 220.45245,145.03477 221.13834,144.6095C221.83296,144.1788 221.88411,143.02652 222.14734,142.31934C222.51993,141.31837 222.88115,140.52583 223.216,139.86667C223.61435,139.0825 223.41087,138.00047 223.55716,137.31934C223.78421,136.26216 224.34714,135.55757 224.584,134.78133C224.82542,133.99011 225.22562,133.15518 225.5,132.33333C225.82036,131.37378 225.99156,130.69046 226.14284,130.02916C226.44048,128.72803 226.45674,127.91595 227.04167,127.14584C227.58527,126.43013 228.35567,125.87592 228.79016,125.31934C229.45192,124.47163 229.5,123.5665 229.5,122.78133C229.5,121.84133 229.4071,120.82361 229.536,120.04134C229.68129,119.15946 230.18866,118.52567 230.41467,117.55067C230.58913,116.79804 230.44695,115.82175 230.58533,115.06533C230.77235,114.04295 231.12776,113.43763 231.5,112.5C231.80983,111.71954 232.11458,110.90359 232.33333,109.83334C232.4762,109.13433 232.39198,108.14514 232.52083,107.16666C232.63123,106.32829 233.07593,105.66848 233.33333,104.66666C233.53549,103.87984 233.52612,103.0491 233.85716,102.06216C234.07356,101.41701 234.5098,100.50365 234.8,99.7095C235.11053,98.85977 235.3078,98.26791 235.69867,97.068C235.98489,96.18935 236.14284,95.62383 236.37849,94.58833L236.47917,93.70834L236.50017,92.688L236.55716,91.914" id="svg_8" stroke-width="3" stroke="#000" fill="none"/>
  <path t="30856,30955,30955,30971,30972,30972,30987,30987,30987,30987,30987,30988,30988,31004,31004,31004,31005,31005,31005,31021,31021,31022,31022,31039,31039,31039,31054,31071,31071,31087,31087,31087,31088,31104,31104,31104,31172,31172,31172,31187,31187,31215,31215,31223,31224,31224,31239,31240,31263,31263,31264,31271,31337,31337,31354,31371,31387,31404,31421,31421,31422,31438,31438,31438,31455,31455,31471,31472,31472,31487,31487,31488,31488,31504,31505,31505,31505,31521,31522,31522,31538,31538,31538,31554,31555,31555,31576,31576,31576,31591,31591,31604,31621,31637,31638,31638,31655,31655,31672,31672,31672,31687,31688,31704,31705,31721,31738,31738,31738,31754,31754,31754,31771,31771,31787,31804,31821,31821,31837,31837,31854,31855,31871,31871,31895,31895,31895,31954,31954,31954,31987,32004,32005,32021,32037,32038,32054,32054,32055,32071,32087,32139,32139,32172,32191" d="M244.5,80.66666C243.55716,81.73367 243.48787,82.72307 243.50034,83.746C243.50934,84.48425 243.59134,85.35261 243.83333,86.5C243.93367,86.97576 244.21397,88.04041 244.38266,88.61467C244.55748,89.20983 244.95413,90.42226 245.188,91.01733C245.6434,92.17608 246.1777,93.21342 246.44817,93.69517C246.7099,94.16138 247.26224,95.02111 247.73067,95.86266C248.39056,97.04817 248.55797,97.45354 248.81734,98.24533C249.17577,99.33948 249.3627,100.32993 249.44284,101.14783C249.52614,101.99805 249.46361,102.91024 249.50133,103.872C249.52977,104.59693 249.70952,105.65445 249.86166,106.37733C250.02841,107.16957 250.15823,108.00228 250.66667,109C251.07019,109.79184 251.80428,110.20354 252.25717,111.20934C252.55727,111.87578 252.34926,112.72848 252.78667,113.696C253.12221,114.43819 253.97232,114.8952 254.74667,115.26667C255.65117,115.70058 256.44235,115.98 257.23868,116.23067C258.16037,116.52079 259.00854,116.62961 260.04266,116.888C260.75751,117.06661 261.47614,117.40026 262.52933,117.58134C263.48965,117.74644 264.29999,117.66666 265.20001,117.66666C266.10001,117.66666 267.20346,117.78783 267.47916,117.10416C267.84595,116.19462 267.5,115.39467 267.5,114.55767C267.5,113.367 267.5,112.77567 267.5,111.93867C267.5,110.80933 267.5,110.016 267.5,109.1235C267.5,108.384 267.5,107.5005 267.5,106.5C267.5,105.414 267.5,104.66666 267.5,103.91933C267.5,102.83334 267.5,102.152 267.5,101.1875C267.5,100.268 267.5,99.36667 267.5,98.46667C267.5,97.56667 267.52789,96.66595 267.491,95.77116C267.45511,94.90112 267.2175,93.80392 266.79016,93.12383C266.36319,92.44431 265.64929,91.67825 265.25717,91.07117C264.78311,90.33722 264.19803,89.61887 263.78534,88.868C263.32169,88.02439 262.99902,87.28244 262.5,86.33334C262.15836,85.68357 261.89529,84.92832 261.66666,84C261.46341,83.17482 261.29688,82.11816 261.064,81.416C260.815,80.66525 260.33563,79.84544 259.936,79.052C259.51431,78.21481 259.50226,77.31934 259.5,76.41933C259.49771,75.5 259.51035,74.62112 259.41467,73.98C259.26459,72.97421 258.97455,72.17298 258.784,71.35067C258.55444,70.35999 258.50534,69.51337 258.5,68.42384C258.49579,67.56667 258.5,66.66666 258.5,65.9095C258.5,65.0095 258.5,64.06533 258.5,63.06667C258.5,62.26667 258.5,61.26534 258.5,60.64583C258.5,59.5 258.5,58.714 258.5,57.892C258.5,56.83333 258.6062,56.11325 258.44284,55.32833C258.22079,54.26145 257.56216,53.57331 257.50134,52.78133C257.42938,51.84409 257.5,50.83333 257.5,50.14583C257.5,49.124 257.5,48.416 257.5,47.43467C257.5,46.481 257.5,45.56667 257.5,44.66667L257.5,43.86667L257.5,42.96667L257.5,42.03067" id="svg_9" stroke-width="3" stroke="#000" fill="none"/>
  <path t="33686,34103,34121,34204,34318,34371,34371,34421,34421,34439,34487,34560,34599,34599,34607,34607,34623,34623,34637,34687,34687,34740,34756,34771,34788,34804,34821,34837,34854,34854,34854,34871,34871,34887,34887,34887,34904,34904,34988,34988,35054,35087,35087,35105,35121,35121,35151,35151,35175,35175,35199,35207,35207,35254,35321,35321,35338,35354,35383,35383,35405,35472,35472,35488,35488,35519,35574,35623,35623,35672,35672,35687,35704,35704,35772,35772,35787,35805,35821,35837,35837,35837,35838,35854,35854,35855,35871,35871,35872,35888,35888,35951,35975,35975,35999,36007,36031,36031,36039,36055,36071,36071,36087,36087,36104,36104,36187,36187,36218,36237,36263,36263,36305,36322,36351,36406,36406,36422,36439,36471,36495,36495,36495,36511,36511,36521,36537,36621,36653,36653,36671,36671,36671,36704,36704,36721,36721,36752,36771,36821,36871,36871,36904,36928,36952,36971,36971,37023,37074,37106,37121,37121,37171,37171,37188,37188,37205,37205,37221,37238,37255,37255,37328,37328,37345,37345,37390,37390,37405,37424,37448,37464,37464,37507,37588,37588,37720,37736,37736,37771,37771,37772,37788,37788,37805" d="M205.5,123.66666C204.69867,123.66666 203.66331,123.54773 203.02083,124.1875C202.37671,124.82889 202.26703,125.75854 201.7955,126.42384C201.28749,127.14062 200.81331,127.97128 200.11067,128.60533C199.54645,129.11449 199.5,129.97116 199.5,130.98817C199.5,131.6875 199.5,132.66667 199.5,133.45599C199.5,134.5 199.46724,135.4185 199.936,136.06667C200.50134,136.84837 200.90887,137.51459 201.52533,138.23067C202.05031,138.84047 203.10001,138.66667 204,138.66667C204.89999,138.66667 205.8,138.66667 206.70134,138.66667C207.66667,138.66667 208.336,138.66667 209.10133,138.66667C210.10451,138.66667 210.95718,138.67288 211.92133,138.6665C212.72537,138.66118 213.56238,138.68565 214.57834,138.44533C215.47661,138.23283 216.37025,137.94627 217.1955,137.614C217.93565,137.31598 218.42142,136.35033 218.47917,135.66667C218.56155,134.69142 218.59319,133.65379 218.44284,132.9095C218.25586,131.98378 217.8504,131.28096 217.3,130.552C216.75174,129.82587 216.10001,129.26666 215.39999,128.56667C214.8,127.96667 214.21074,127.35576 213.5,126.66666C212.90878,126.09346 212.08746,125.81729 211.2,125.66217C210.27167,125.49991 209.73186,124.82026 208.864,124.67733C207.85635,124.51138 207.0955,124.66666 206.10133,124.66666C205.336,124.66666 204.07965,124.29014 203.55716,125.02834C203.09091,125.68706 203.5,126.66666 203.5,127.64516C203.5,128.46533 203.49509,129.44707 203.85716,130.31934C204.15492,131.03665 204.79372,131.71906 205.21466,132.46533C205.66141,133.25734 206.30133,133.666 207.20799,133.66667C208.26416,133.66745 208.8625,133.66667 209.86,133.66667C210.53334,133.66667 211.73199,133.66667 212.5,133.66667C213.26801,133.66667 214.1425,133.66667 215.14,133.66667C215.81334,133.66667 217.00002,133.67023 217.79201,133.66667C218.79553,133.66217 219.65913,133.06476 219.43834,132.37199C219.16339,131.50931 218.1077,131.22247 217.39999,130.56683C216.80637,130.01688 216.00018,129.67709 215.08934,129.66667C214.17873,129.65627 213.32533,129.66667 212.38266,129.66667C211.69017,129.66667 210.73199,129.66667 209.75067,129.66667C208.83333,129.66667 208.04167,129.66432 207.10001,129.66667C206.19998,129.66893 205.34811,130.02689 204.7,130.38266C203.90439,130.81938 203.51071,131.52336 204.11067,132.26666C204.63831,132.92036 205.26833,133.51781 206.2,133.66217C207.0894,133.79999 208.0417,133.67401 209.04266,133.6665C209.75073,133.66119 210.56689,133.82422 211.528,133.38133C212.30615,133.02275 212.49774,131.96667 212.5,131.06667C212.50203,130.256 212.56435,129.34021 212.464,128.45599C212.35052,127.45612 212.18404,126.74514 211.528,126.23734C210.63472,125.54589 209.75082,125.67734 208.64301,125.66666C207.92136,125.65971 207,125.66441 206.10001,125.66666C205.19998,125.66891 204.27808,125.92756 203.7,126.468C203.08635,127.0417 202.54271,127.86364 202.5,128.76666C202.45747,129.66566 202.5,130.46666 202.5,131.36667C202.5,132.26666 202.39177,133.23457 202.86166,133.97116C203.28275,134.63124 204.12521,135.35345 204.71066,135.80533C205.46243,136.38557 206.28864,136.60577 207.33333,136.66667C208.08891,136.71071 208.80954,137.28758 209.70134,137.58133C210.6218,137.88451 211.7588,138.0627 212.328,137.37866C212.7688,136.84895 212.19414,135.64545 211.88933,134.95334C211.46857,133.99794 210.7,133.66867 209.8,133.66667C208.89999,133.66467 208.08934,133.66667 207.17867,133.66667C206.32533,133.66667 205.38533,133.66667 204.39983,133.66667C203.61467,133.66667 202.51678,134.0321 201.83333,133.5C201.2179,133.02086 201.48709,131.90259 201.51067,131.00133C201.52696,130.37836 201.7215,129.1525 202.30133,128.58667L203,128.14583" id="svg_10" stroke-width="3" stroke="#000" fill="none"/>
  <path t="38685,38939,38956,38984,38984,39006,39056,39056,39072,39072,39089,39106,39106,39173,39340,39373,39389,39406,39456,39456,39472,39489,39506,39557,39557,39608,39608,39656,39656,39800,39800,39918,39934,39973,39989,39989,40040,40057,40072,40139,40190,40190,40288,40322,40322,40405,40438,40456,40472,40489,40489,40618,40720,40720,40824,40824,40824,40824,40904,40904,40904,40904" d="M185.5,80.66666C183.89999,81.27734 183.03424,81.86407 182.66667,82.66666C182.32652,83.40939 182.49731,84.34721 181.93201,85.15067C181.54475,85.70105 180.68954,86.45564 180.52133,87.256C180.3297,88.16782 180.50146,89.15067 180.5,89.84133C180.49774,90.90501 179.86426,91.53699 180.12134,91.092C180.55682,90.33819 181.87677,90.85013 182.59984,90.44517C183.33719,90.03222 183.38766,88.83971 184.02083,88.1875C184.58409,87.60728 185.69528,87.56051 186.31467,87.23067C187.21652,86.7504 187.52606,85.90171 187.85266,85.0095C188.12881,84.25513 188.42839,83.47127 188.48933,82.50267C188.54904,81.55382 188.93425,80.43426 188.33333,79.83334C187.73241,79.23241 186.7,79.66666 185.8,79.66666C184.89999,79.66666 183.89063,79.49926 183.2045,80.02383C182.45424,80.59744 182.50067,81.552 182.5,82.492C182.49928,83.5 182.5,84.256 182.5,85.16666C182.5,86.06667 182.67389,86.98415 182.49733,87.86667C182.32751,88.71548 181.55501,89.24358 180.743,89.76617C180.52187,89.90848 180.55917,89.12106 180.94299,88.02383C181.18076,87.34414 181.52913,86.6394 181.909,85.91483C182.48126,84.8233 182.89734,84.15467 183.27867,83.524L183.62801,82.94933" id="svg_11" stroke-width="3" stroke="#000" fill="none"/>
  <path t="42163,42344,42371,42371,42388,42388,42389,42405,42405,42406,42613,42632,42632,42640,42640,42655,42655,42671,42672,42672,42832,42849,42890,42906,42921,42938,42955,42955,42971,42971,43023,43023,43199,43199,43232,43232,43248,43288,43288,43336,43336,43609,43609,43624,43624,43648,43648,43770,43770,43807,43823,43823,43871,44222,44271,44361,44361,44400,44400,44536,44536,44573,44573,44844,44904,44921,44938,44954,44971,44992,44992,45092,45154,45155,45439,45455,45472,45488,45489,45512" d="M223.5,78.66666C222.50133,79.55334 222.41983,80.52969 222.67067,81.268C222.95821,82.11432 223.55518,82.66318 224.01733,83.352C224.66441,84.31642 224.90059,85.16734 225.29866,85.812C225.80675,86.6348 226.7888,87.04517 227.38533,87.468C228.13394,87.99863 228.91324,88.35994 229.616,89.15067C230.04329,89.63143 230.6369,90.53924 231.32533,91.03067C231.98953,91.5048 233.45027,92.42918 232.91467,92.62C232.1844,92.88018 232.50195,91.04706 232.07466,90.26667C231.62428,89.44411 231.58958,88.55149 231.41467,87.78133C231.23343,86.98335 230.78757,86.26608 230.30133,85.268C229.92992,84.50561 229.56512,83.69445 229.5045,82.914C229.4348,82.01669 229.67462,81.13086 229.47917,80.1875C229.29836,79.3148 228.72762,78.76158 228.07866,77.84133C227.7021,77.30736 227.00053,76.59061 226.04167,76.22916C225.1953,75.91012 225.38945,76.47119 226.15266,76.97117C226.84624,77.42552 227.68457,78.11015 228.05333,78.84133C228.50682,79.74051 228.5,80.66666 228.5,81.46667C228.5,82.36667 228.38063,83.36201 227.7955,82.95766C226.97653,82.39172 226.60379,81.79199 225.85184,81.014C225.35403,80.49895 224.63327,79.713 224.509,78.914C224.37068,78.02459 223.17538,76.76722 224.02083,76.22916C224.18663,76.12364 224.48933,77.26667 224.5,78.16666C224.51067,79.06667 224.90887,79.79397 225.33333,80.66666C225.65417,81.32634 226.04179,82.14696 226.69867,82.86667C227.23215,83.45117 227.5,84.32367 227.5,83.46667C227.5,82.56667 227.5,81.66666 227.5,80.86667L227.5,79.96667" id="svg_12" stroke-width="3" stroke="#000" fill="none"/>
  <path t="46653,46704,46704,46704,46704,46704,46704,46738,46739,46739,46739,46739,46739,46739,46739,46739,46754,46755,46755,46755,46755,46755,46755,46755,46755,46771,46771,46771,46788,46788,46788,46788,46804,46804,46804,46804,46821,46821,46821,46821,46821,46838,46838,46838,46838,46838,46854,46854,46854,46871,46871,46889,46889,46905,46905,46905,46905,46921,46921,46921,46921,46921,46921,46921,46938,46938,46938,46938,46938,46938,46938,46955,46955,46955,46955,46955,46955,46955,46955,46971,46971,46972,46972,46972,46972,46989,46989,46989,46989,46989,47005,47005,47005,47005,47005,47023,47023,47023,47023,47023,47039,47039,47039,47039,47039,47039,47039,47039,47056,47056,47056,47056,47056,47056,47056,47056,47056,47071,47071,47072,47072,47072,47072,47072,47072,47072,47089,47089,47089,47089,47090,47090,47090,47090,47090,47138,47138,47138,47138,47138,47138,47154,47171,47171,47188,47188,47188,47204,47204,47232,47232,47254,47254,47272,47272,47272,47272,47288,47288,47288,47288,47289,47289,47304,47304,47304,47304,47304,47305,47305,47352,47352,47352,47352,47371,47372,47392,47392,47471,47471,47502,47521,47521,47521,47522,47554,47554,47554,47555,47555,47588,47588,47588,47589,47590,47590,47590,47590,47605,47606,47606,47606,47606,47606,47607,47607,47607,47623,47623,47623,47623,47624,47638,47640,47640,47640,47640,47657,47657,47657,47657,47672,47672,47673,47673,47673,47688,47689,47690,47690,47690,47690,47690,47706,47707,47707,47707,47707,47707,47707,47707,47723,47723,47723,47723,47723,47740,47740,47740,47740,47740,47771,47771,47771,47771,47772,47788,47788,47788,47789,47789,47789,47790,47790,47806,47807,47807,47807,47807,47807,47807,47808,47808,47838,47838,47838,47838,47839,47839,47839,47839,47840,47871,47871,47871,47872,47872,47872,47872,47872,47872,47904,47904,47904,47904,47905,47905,47905,47905,47905,47938,47938,47938,47938,47939,47939,47939,47939,47939,47971,47971,47971,47972,47972,47972,47972,47972,47972,48016,48016,48016,48016,48016,48016,48016,48017,48017" d="M407.5,229.66667C403.7565,231.21001 402.87085,231.68771 402.396,231.96001C401.89447,232.24759 400.8186,232.88855 400.24133,233.24001C398.99811,233.99689 398.33514,234.40884 397.64532,234.83734C396.9325,235.28015 396.20184,235.73737 395.45834,236.20833C394.70319,236.68669 393.94177,237.17276 393.18134,237.66933C391.66287,238.66087 390.92099,239.16356 390.19467,239.66133C389.48703,240.14629 388.80853,240.621 388.16666,241.08333C387.56061,241.51985 386.99918,241.93095 386.49866,242.32533C385.65729,242.98827 385.07913,243.51445 384.58334,244.10417C383.98245,244.81892 383.4285,245.32834 382.668,245.91333C382.09601,246.35333 381.19318,247.0806 380.60001,247.62384C379.99289,248.17984 379.39938,248.77054 378.5,249.66667C377.89825,250.26625 377.60025,250.57159 376.97916,251.16667C376.34766,251.77171 375.33884,252.67331 374.61734,253.26401C374.25455,253.56102 373.52847,254.13542 372.80984,254.65233C371.84338,255.3475 371.30353,255.75522 370.35733,256.20932C369.54514,256.59912 368.64938,256.79395 368.08932,257.53867C367.70523,258.04944 367.19211,258.87964 366.63199,259.49866C366.1922,259.98471 365.64511,260.52512 364.63535,261.53082C364.24362,261.92096 363.38464,262.75687 362.91666,263.1875C362.43536,263.63037 361.94077,264.07986 361.41068,264.5C359.81183,265.76724 359.21744,266.10309 358.64282,266.46133C358.06674,266.82047 357.47812,267.16495 356.88934,267.51733C355.69659,268.2312 354.49597,268.99417 353.90033,269.40933C353.29855,269.8288 352.70657,270.2688 352.12134,270.71735C351.53922,271.16348 350.97119,271.61499 350.41434,272.06134C348.83105,273.33047 348.34607,273.72729 347.87067,274.09332C346.97772,274.78085 346.56165,275.11429 345.70901,275.64334C344.52615,276.37729 344.10971,276.54834 343.29999,276.85233C342.50873,277.14938 341.70108,277.36188 340.5,277.66666C339.70071,277.86948 338.89999,278.06668 338.10001,278.26666C337.29999,278.46667 336.09915,278.7655 335.2865,278.97116C334.43713,279.1861 333.99124,279.2998 333.04401,279.552C331.99915,279.83017 330.8389,280.15289 330.21051,280.32382C329.54959,280.5036 328.85477,280.68988 328.12399,280.87732C327.35846,281.07367 326.55728,281.27945 324.83334,281.66666C323.91568,281.87277 322.96176,282.06879 321.98035,282.26666C320.97775,282.46881 319.9584,282.66702 318.92932,282.86667C317.89639,283.06705 316.86438,283.2619 314.83334,283.66666C313.84305,283.86401 312.87479,284.06464 311.92783,284.25766C311.00412,284.44595 310.10483,284.62848 309.22934,284.79468C308.38113,284.95569 307.56189,285.11832 306,285.33334C305.26639,285.43433 304.56036,285.50168 303.88501,285.55682C303.24033,285.60947 302.625,285.64594 302.04001,285.68134C301.48499,285.71494 300.95825,285.73126 300,285.83334C299.56387,285.87979 299.15741,285.94409 298.78049,286.01935C298.10168,286.15488 297.29263,286.48511 296.16135,286.63068C295.18588,286.7562 294.46384,286.60736 293.5,286.83334C292.68143,287.02527 291.91473,287.46194 290.89999,287.6095C290.10663,287.72485 289.10132,287.66666 288.336,287.66666C287.38135,287.66666 286.633,287.66666 285.44135,287.66666C284.77066,287.66666 283.996,287.66666 283.12534,287.66666C282.16666,287.66666 281.12799,287.66666 280.58118,287.66666C279.4375,287.66666 278.84268,287.66666 278.23383,287.66666C276.33334,287.66666 275.67932,287.66666 275.02133,287.66666C274.36533,287.66666 273.71735,287.66666 272.46933,287.66666C271.88135,287.66666 270.33331,287.67181 269.52667,287.66534C268.87994,287.66016 267.87491,287.67789 266.90451,287.30499C266.31088,287.07687 265.49503,286.36411 265.02084,285.66666C264.46832,284.854 263.82474,283.98227 263.43866,284.35999C262.77277,285.01147 262.6232,285.95108 262.20667,286.48801C261.74457,287.08368 260.8681,287.97964 260.18115,288.57117C259.44925,289.20139 259.04395,289.5043 258.21201,290.15201C257.33469,290.83508 256.88235,291.19406 255.92484,291.92383C255.42369,292.30579 254.8994,292.6926 254.34534,293.07733C253.77049,293.4765 253.17119,293.89145 251.83333,294.66666C251.12215,295.07874 250.36948,295.46826 249.59833,295.85318C248.82278,296.2403 248.0434,296.60791 247.27333,296.95868C246.52664,297.2988 245.8103,297.61926 244.5,298.16666C243.41362,298.62051 242.93433,298.79413 242.10417,299.14584C241.366,299.45862 240.32788,299.99112 239.616,300.43332C238.86884,300.89743 238.1456,301.41672 237.384,301.81332C236.34647,302.35364 235.65709,302.52722 234.67467,302.67065C234.01843,302.76648 232.97557,302.87595 232.22934,303.02832C231.4138,303.19485 230.52336,303.42593 230.04266,303.55334C228.43333,303.97992 227.84421,304.15146 227.2285,304.31934C226.59222,304.49283 225.26874,304.84427 224.5865,305.01401C223.89673,305.18564 222.50082,305.50406 221.80051,305.64517C221.1048,305.78537 220.41425,305.91385 219.0625,306.14584C218.40836,306.25812 217.77097,306.35901 217.15601,306.46533C215.46298,306.75803 214.95432,306.85886 214.008,307.06668C213.13039,307.25943 212.30406,307.46695 211.09984,307.76666C210.29555,307.96686 209.47943,308.16772 209.064,308.26666C208.21518,308.46884 206.87895,308.77039 205.93384,308.96667C205.44307,309.0686 204.41788,309.26965 203.88116,309.36667C202.16838,309.67624 201.55675,309.76559 200.92934,309.87067C200.28539,309.97852 199.62346,310.07733 198.27867,310.37466C197.5885,310.52725 196.88504,310.68567 195.5,311.16666C194.79306,311.41214 194.09615,311.71436 193.39549,312.02917C192.68674,312.34763 191.97972,312.68866 191.26401,313.02667C190.54338,313.367 189.82634,313.72803 188.33333,314.33334C187.58177,314.63806 186.79958,314.90884 185.97983,315.15683C185.11826,315.41748 184.18979,315.65579 183.18533,315.88135C182.09753,316.12564 180.90733,316.36853 178.16667,316.83334C176.60248,317.09863 174.91949,317.35367 173.14467,317.61032C171.30351,317.87656 169.41751,318.13165 167.51067,318.36932C165.60948,318.60629 163.73759,318.84277 160.16667,319.16666C158.5159,319.31638 156.95116,319.41974 155.46266,319.49518C154.03908,319.56732 152.66679,319.60995 151.33467,319.63467C150.03076,319.65884 148.74266,319.66464 146.16667,319.66666C144.8575,319.66766 143.53334,319.66666 142.19917,319.66666C140.86,319.66666 139.52083,319.66666 138.18666,319.66666C136.8625,319.66666 135.55333,319.66666 133,319.66666C131.76584,319.66666 130.56667,319.66666 129.4075,319.66666C128.29333,319.66666 127.22916,319.66666 126.22,319.66666C125.27084,319.66666 124.38667,319.66666 122.83334,319.66666C122.17233,319.66666 121.58533,319.66666 121.06633,319.66666C120.60934,319.66666 120.20834,319.66666 119.85733,319.66666L119.55033,319.66666L119.28133,319.66666" id="svg_13" stroke-width="3" stroke="#000" fill="none"/>
  <path t="48400,48454,48454,48454,48454,48454,48454,48454,48454,48454,48471,48471,48471,48471,48471,48472,48472,48472,48472,48497,48497,48497,48497,48497,48497,48497,48497,48497,48521,48521,48521,48521,48521,48521,48521,48521,48521,48539,48539,48539,48539,48539,48540,48540,48540,48540,48556,48556,48556,48556,48556,48556,48556,48556,48556,48578,48578,48578,48578,48578,48578,48578,48578,48578,48601,48601,48601,48601,48601,48601,48601,48601,48601,48619,48620,48620,48620,48620,48620,48620,48620,48620,48638,48638,48638,48638,48638,48638,48638,48638,48638,48657,48657,48658,48658,48658,48658,48658,48658,48658,48679,48679,48679,48680,48680,48680,48680,48680,48680,48700,48700,48700,48700,48700,48700,48700,48700,48700" d="M142.5,258.66666C137.5,259.66666 136.7645,259.98727 135.97333,260.38666C135.10223,260.82639 134.1642,261.34229 133.14583,261.91666C132.03729,262.5419 130.84389,263.23621 129.55333,263.98666C126.66606,265.66562 125.06557,266.60025 123.35467,267.57468C121.55172,268.60153 119.65641,269.66132 117.66666,270.72916C115.60855,271.83371 113.47754,272.94846 111.25867,274.01868C106.6925,276.22104 104.29916,277.21967 101.86933,278.21201C99.40778,279.21729 96.89202,280.18015 94.33334,281.125C91.74269,282.08163 89.10793,283.01584 86.43733,283.948C81.00389,285.84451 78.23983,286.78714 75.47733,287.73999C72.74115,288.68378 70.05903,289.6077 67.45834,290.5C64.96835,291.35434 62.61678,292.15994 60.42933,292.89999C56.66857,294.1723 55.13871,294.67639 53.83467,295.09866C52.73454,295.4549 51.81151,295.74542 51.04167,295.97916C50.40336,296.17294 49.86985,296.32681 49.41867,296.45468C48.66697,296.66772 48.32056,296.76593 47.98,296.86801C47.63889,296.97025 47.29329,297.07718 46.9375,297.1875C46.56662,297.30252 46.17611,297.42471 45.76,297.552C44.83393,297.8353 44.31409,297.98904 43.75733,298.15201C43.16711,298.32477 42.5456,298.5036 41.89583,298.6875C41.22161,298.8783 40.52529,299.07285 39.80933,299.26801C38.33427,299.6701 37.57882,299.86612 36.81867,300.06799C36.05615,300.27048 35.29498,300.47366 34.54167,300.6875C33.7963,300.89908 33.06332,301.11267 32.35467,301.35199C30.9926,301.81198 30.36174,302.08041 29.76,302.34933C29.18178,302.60776 28.63776,302.87701 28.125,303.14584C27.63783,303.40125 27.18429,303.65558 26.76,303.89734C25.99872,304.33112 25.66549,304.52496 25.35733,304.69467C25.07674,304.84918 24.81972,304.98611 24.58333,305.10416C24.36894,305.21121 24.17246,305.30481 23.98933,305.37866C23.66962,305.5076 23.52087,305.54825 23.37467,305.58401C23.22185,305.6214 23.05076,305.65256 22.85417,305.6875C22.62278,305.72864 22.34684,305.77469 22.01867,305.836C21.16578,305.99533 20.62845,306.10849 20.02267,306.23599C19.36043,306.3754 18.6546,306.52771 17.91667,306.6875C17.1586,306.85165 16.39277,307.01898 15.63067,307.18399C14.16687,307.50095 13.48649,307.64514 12.84533,307.78134C12.24216,307.90948 11.676,308.03067 11.14583,308.14584L10.65067,308.25601L10.1895,308.36215L9.76133,308.46533" id="svg_14" stroke-width="3" stroke="#000" fill="none"/>
  <path t="49206,49256,49272,49272,49289,49290,49290,49290,49304,49304,49305,49305,49305,49305,49305,49305,49305,49322,49322,49322,49322,49322,49322,49322,49322,49322,49339,49339,49339,49339,49339,49339,49339,49339,49339,49355,49355,49355,49355,49355,49355,49355,49355,49355,49372,49372,49372,49372,49372,49372,49372,49372,49372,49388,49388,49389,49389,49389,49389,49389,49389,49389,49405,49405,49405,49405,49405,49405,49405,49405,49405,49421,49421,49421,49422,49422,49422,49422,49422,49422,49456,49456,49457,49457,49457,49485,49485,49485,49504,49504,49504,49504,49504,49504,49523,49523,49523,49523,49523,49523,49524,49524,49524,49542,49542,49542,49542,49542,49542,49543,49543,49543,49563,49563,49563,49563,49563,49563,49563,49563,49563,49582,49583,49583,49583,49583,49583,49583,49583,49583,49606,49606,49606,49606,49606,49606,49606,49606,49606,49629,49629,49629,49630,49630,49630,49630,49630,49630,49651,49651,49651,49652,49652,49652,49652,49652,49652" d="M188.5,289.66666C186.74283,289.78101 186.04158,290.26996 185.28934,290.81601C184.52559,291.37042 183.8546,291.56445 182.976,291.86133C182.58319,291.99405 180.9973,292.66101 180.30716,292.99533C179.53426,293.36972 178.70189,293.79758 177.81866,294.26132C176.89412,294.74677 175.94705,295.25693 174.98816,295.77933C174.02837,296.30225 172.16641,297.33289 171.28633,297.82333C170.44376,298.29288 169.63814,298.7442 168.86533,299.17334C168.12546,299.58417 167.41595,299.97571 166.73233,300.34332C166.07722,300.69562 164.83508,301.33694 164.24283,301.62384C163.67101,301.90082 163.11067,302.15869 162.56134,302.40533C162.02164,302.64767 161.48523,302.8811 160.95183,303.11484C160.41722,303.34909 159.33247,303.83151 158.77766,304.0885C158.20711,304.35278 157.62004,304.63223 157.01067,304.92401C156.37469,305.22852 155.70956,305.54984 155.00967,305.8855C154.27225,306.23917 152.66707,307.00085 151.79283,307.40967C150.87642,307.83823 149.92285,308.2803 148.94133,308.73868C147.93716,309.20764 146.9176,309.68573 145.89183,310.17566C144.86292,310.66708 142.83177,311.66357 141.84317,312.16632C140.87045,312.66098 139.91876,313.15753 138.98267,313.64532C138.06242,314.12488 137.15884,314.59763 136.26616,315.05234C135.38948,315.4989 133.66948,316.33948 132.82233,316.72318C131.99471,317.09802 131.18208,317.44479 130.38933,317.76266C129.62727,318.06824 128.89291,318.34372 128.19034,318.58618C127.53005,318.81403 126.33524,319.17422 125.80733,319.30234C125.32696,319.41891 124.88215,319.50467 124.46933,319.56934C124.08404,319.6297 123.71739,319.6712 123.36533,319.71033C123.02139,319.74854 122.33272,319.82947 121.979,319.88815C121.61799,319.94806 120.88953,320.07855 120.19733,320.27734C118.98722,320.62491 118.36092,320.98401 117.58483,321.42383C116.84025,321.84579 116.15434,322.16562 115.28133,322.51334C114.77364,322.71555 114.21109,322.93085 112.89733,323.35333C111.33989,323.85419 110.45,324.09467 109.492,324.34933C108.46575,324.62216 107.36484,324.89117 106.1875,325.14584C104.93954,325.41577 103.61433,325.67606 102.208,325.89734C99.17291,326.37491 97.52927,326.53183 95.82133,326.70001C94.05693,326.87375 92.24388,327.0253 90.39584,327.1875C88.52254,327.35193 86.6337,327.51208 84.74533,327.72C80.99612,328.13278 79.16371,328.4187 77.36533,328.71866C75.601,329.01294 73.88173,329.33786 72.20834,329.66666C70.58308,329.98599 69.01477,330.31418 67.50134,330.61465C64.6687,331.17703 63.35302,331.40924 62.108,331.60934C60.93724,331.79749 59.83803,331.95337 58.8125,332.08334C57.86329,332.20364 56.9893,332.30063 56.192,332.37732C54.83407,332.50793 54.27181,332.54721 53.78,332.58133C53.34845,332.61127 52.96675,332.63269 52.625,332.64584C52.3134,332.65784 52.02168,332.66342 51.74,332.66534C51.16668,332.66922 50.85667,332.66666 50.52666,332.66666C50.17667,332.66666 49.80667,332.66666 49.41667,332.66666C49.00667,332.66666 48.57667,332.66666 48.12667,332.66666C47.16667,332.66666 46.65767,332.66666 46.13467,332.66666C45.60367,332.66666 45.07067,332.66666 44.54167,332.66666L44.02267,332.66666L43.51967,332.66666L43.03867,332.66666" id="svg_15" stroke-width="3" stroke="#000" fill="none"/>
 </g>
</svg>