<svg width="309.75" height="420" xmlns="http://www.w3.org/2000/svg" xmlns:svg="http://www.w3.org/2000/svg" xmlns:xlink="http://www.w3.org/1999/xlink">
 <!-- Created with SVG-edit - http://svg-edit.googlecode.com/ -->
 <g display="inline" class="layer">
  <title>Layer 1</title>
  <path t="0,85,108,132,132,148,148,163,232,247,315,315,332,459,546,546,895,925,950,968,998,1022,1066,1179,1179,1179,1206,1221,1233,1250,1316,1341,1347,1415,1415,1499,1550,1567,1585,1600,1600,1617,1667,1667,1685,1710,1725,1726,1767,1768,1797,1797,1817,1835,1853,1869,1870,1870,1949,1949,1973,1989,2035,2069,2086,2103,2119,2148,2173,2319,2319,2493,2772,2805,2846,3118,3141,3155,3156,3156,3172,3188,3188,3214,3239,3240,3255,3272,3403,3403,3421,3454,3472,3489,3508,3532,3557,3573,3574,3622,3692,3989,3989,4013,4023,4024,4041,4057,4184,4206,4223,4241,4241,4255,4256,4273,4273,4274,4290,4307,4308,4322,4323,4339,4372,4424,4470,4510,4534,4534,4558,4559,4574,4591,4591,4607,4608,4629,4675,4981,5008,5025,5042,5078,5093,5093,5117,5207,5238,5260,5293,5294,5317,5350,5382,5413,5414,5442,5485,5509,5540,5541,5593,5593,5613,5660,5678,5717,5729,5750,5766,5777,5778,5795,5811,5828,5917,5917,5994,5994,6011,6030,6045,6062,6062,6078,6095,6341,6341,6474,6474,7040,7078,7097,7115,7552,7581,7600,7630,7662,7796,7820,7845,7845,7869,7885,7918,7958,7984,8033,8033,8104,8150,8200,8228,8283,8283,8326,8326,8374,8401,8401,8417,8417,8434,8434,8453,8476,8477,8532,8556,8567,8567,8584,8601,8650,8650,8667,8667,8684,8733,9129,9169,9186,9186,9203,9203,9221,9236,9253,9268,9284,9285,9318,9335,9381,9381,9405,9430,9453,9470,9470,9488,9503,9533,9557,9581,9582,9613,9638,9670,9671,9694,9694,9721,9750,9782,9805,9806,9830,9853,9853,9871,9871,9887,9903,9920,9937,9955,9955,9971,9987,9987,10004,10020,10039,10060,10075,10076,10092,10104,10124,10148,10170,10187,10204,10221,10222,10239,10254,10272,10287,10305,10305,10321,10338,10338,10355,10371,10371,10387,10388,10405,10405,10421,10421,10421,10438,10438,10455,10472,10472,10488,10488,10516,10537,10589,10589,10613,10639,10657,10673,10673,10689,10689,10705,10705,10756,10788,10807,10822,10840,10861,10876,10876,10900,10941,10966,10990,11007,11007,11072,11357,11357,11710,11710,11841,11938,11938,11938,11992,12026,12076,12076,12109,12126,12142,12303,12304,12334,12359,12360,12377,12426,12461,12477,12590,12620,12621,12645,12660,12677,12728,12764,12798,12828,12861,12927,12944,12945,12994,13029,13045,13063,13078,13078,13079,13150,13150,13211,13261,13345,13345,13397,13421,13445,13446,13574,13645,13645,13744,13797,13814,13829,13897,13964,13965,13997,13998,14014,14015,14030,14060,14080,14098,14098,14116,14195,14264,14297,14316,14332,14333,14348,14365,14366,14388,14429,14545,14545,14598,14687,15211,15211,15294,15370,15405,15555,15714,15893,15893,15918,15935,15972,16020,16045,16103,16118,16169,16169,16240,16278,16416,16445,16447,16588,16602,16752,16787,17061,17061,17092,17108,17154,17204,17338,17419,17456,17457,17506,17618,17672,17694,17822,17856,17874,17892,17971,18006,18023,18024,18073,18107,18123,18189,18212,18289,18325,18341,18358,18374,18391,18736" d="M45.875,207.5C46.44967,205.89999 46.72508,204.98099 47.44433,204.3C47.97768,203.79503 48.7909,203.30568 49.5705,202.85716C50.32632,202.42232 51.28551,202.63271 52.175,202.4955C53.10638,202.35182 53.70136,201.84746 54.575,201.44733C55.30061,201.11501 56.0938,200.48923 56.51783,199.8C57.02318,198.97861 56.875,198 56.875,197.10001C56.875,196.2 56.75082,195.29137 56.87517,194.40016C56.98706,193.59822 58.04484,193.34126 58.70033,193.07466C59.39445,192.79236 60.46428,192.50534 61.275,192.5C62.17498,192.49408 63.075,192.5 63.975,192.5C64.875,192.5 65.76915,192.43875 66.52766,192.14734C67.40203,191.81142 68.23848,191.51801 69.175,191.5C70.07483,191.48271 70.975,191.5 71.875,191.5C72.675,191.5 73.51181,191.46381 74.52766,191.5045C75.22377,191.53239 76.1896,192.01762 76.975,192.37866C77.83359,192.77335 78.48251,193.15326 79.19633,193.59984C80.01985,194.11504 80.84698,194.43782 81.67367,194.49867C82.57256,194.56485 83.51484,194.46376 84.28567,194.936C85.08993,195.42874 85.686,195.95589 86.47633,196.21466C87.44251,196.53101 88.22663,196.6835 88.92316,197.14734C89.61491,197.60799 90.575,197.5 91.475,197.5C92.375,197.5 93.275,197.5 94.175,197.5C95.075,197.5 95.975,197.5 96.875,197.5C97.675,197.5 98.7207,197.94957 99.51783,197.44284C100.13994,197.04736 99.04589,195.20543 99.96033,194.95599C100.68069,194.75951 100.8895,196.49301 101.26434,197.28934C101.60288,198.00859 101.72353,198.96924 102.31767,199.60001C102.91121,200.23015 103.58888,200.76031 104.0965,201.60001C104.49497,202.25917 105.44305,202.80444 105.7535,203.60001C106.08364,204.44603 105.875,205.3 105.875,206.2C105.875,207.10001 105.875,208 105.875,208.89999C105.875,209.8 105.875,210.7 105.875,211.60001C105.875,212.5 106.08777,213.33954 105.81783,214.2C105.53788,215.09239 104.36978,215.39839 103.9375,215.97917C103.63792,216.38167 104.70834,216.5 105.5705,216.5C106.475,216.5 107.375,216.5 108.275,216.5C109.175,216.5 110.075,216.5 110.97517,216.5C111.76033,216.5 112.72166,216.5 113.56167,216.5C114.55766,216.5 115.35417,216.49638 116.10567,216.5C117.21371,216.50534 118.04166,216.66667 118.875,217C119.70834,217.33333 120.5705,217.49774 121.475,217.5C122.375,217.50224 123.275,217.5 124.175,217.5C125.075,217.5 125.98988,217.58829 126.76033,217.41467C127.55302,217.23604 128.38628,216.76776 129.24966,216.52533C130.19151,216.26086 130.85344,215.93869 131.8535,215.62134C132.65938,215.36562 133.34322,214.93768 134.175,214.55267C135.04547,214.14977 135.83229,213.86774 135.875,214.8C135.91618,215.69905 135.875,216.60001 135.875,217.5C135.875,218.3 135.8723,219.12003 136.30034,219.89999C136.75131,220.72174 137.31696,221.28558 138.07367,221.78534C138.68259,222.18748 138.92767,223.2 139.375,224C139.82233,224.8 140.20113,225.53667 140.591,226.3C140.97554,227.05289 140.77707,228.00644 140.88567,228.91066C140.99712,229.83871 141.48653,230.46388 141.75349,231.4785C141.96442,232.28014 141.875,233.2 141.875,234.10001C141.875,235 141.875,235.89999 141.875,236.8C141.875,237.7 141.875,238.60001 141.875,239.5C141.875,240.3 141.88518,241.20006 141.875,242.10001C141.86458,243.02101 141.64032,243.81593 141.30034,244.67467C140.98401,245.47366 140.87567,246.29866 140.875,247.2C140.87434,248.10001 140.93916,249.09387 140.30701,249.7C139.67032,250.31047 138.91103,250.89784 138.875,251.8045C138.84076,252.66599 138.875,253.5 138.875,254.4785C138.875,255.29866 138.48161,256.31339 138.911,257.064C139.30609,257.75464 140.55878,257.14572 141.35417,257.52084C142.05949,257.85349 141.875,259 141.875,259.89999C141.875,260.79999 141.875,261.70001 141.875,262.60001C141.875,263.5 141.875,264.29999 141.875,265.20001C141.875,266.10001 141.87724,267 141.875,267.89999C141.87274,268.79999 141.48892,269.63837 141.159,270.29999C140.73843,271.14337 140.86967,272.10004 140.875,273C140.88034,273.90005 141.10287,274.76523 141.76167,275.29999C142.47189,275.87646 143.23161,276.18631 144.11783,276.7955C144.88319,277.32162 145.64058,277.52856 146.53217,277.85266C147.28716,278.12711 148.27116,278.44763 149.039,278.48932C149.98833,278.54086 150.87587,278.4628 151.675,278.5C152.59264,278.54272 152.97792,279.38989 153.73633,279.88934C154.34787,280.29205 155.36157,280.38931 156.28566,280.51068C157.21243,280.63239 157.83887,281.11154 158.8535,281.37851C159.65514,281.58942 160.63068,281.46872 161.27499,281.936C162.05576,282.50226 162.79126,283.17902 162.875,282.33334C162.95712,281.50406 162.89215,280.66647 162.875,279.8045C162.85699,278.89944 162.25687,278.18967 161.96033,277.29999C161.67445,276.44235 161.875,275.5 161.875,274.70001C161.875,273.79999 161.875,272.86401 161.875,272.01599C161.875,271.15268 161.875,270.25717 161.875,269.29999C161.875,268.39999 161.875,267.5 161.875,266.70001C161.875,265.79999 161.86967,264.89996 161.875,264C161.88034,263.09995 162.13408,262.27637 162.67633,261.70001C163.34399,260.99036 164.22571,260.67062 164.97517,260.2785C165.69769,259.90048 166.50502,259.15494 167.22234,258.85718C168.09459,258.49512 168.98187,258.61096 169.875,258.5C170.77412,258.38831 170.87433,257.61334 170.875,256.67465C170.87572,255.66667 170.875,254.87466 170.875,253.84734C170.875,253.15266 170.875,252.136 170.875,251.2C170.875,250.3 170.875,249.39999 170.875,248.5C170.875,247.7 170.875,246.864 170.875,245.84734C170.875,245.15266 170.875,244.136 170.875,243.2C170.875,242.3 170.875,241.39999 170.875,240.5C170.875,239.7 170.875,238.8 170.875,237.89999C170.875,237 170.875,236.10001 170.875,235.2C170.875,234.3 170.875,233.39999 170.875,232.5C170.875,231.7 170.875,230.8 170.875,229.89999C170.875,229 170.875,228.08934 170.875,227.17867C170.875,226.5 170.65839,225.4614 171.04167,224.5C171.31038,223.82602 171.78181,223.06818 172.0965,222.17867C172.34389,221.47939 172.94604,220.71239 173.35417,220C173.88995,219.06477 173.82079,218.27019 174.0965,217.3C174.33,216.47836 174.68916,215.90627 175.1705,214.9045C175.5274,214.1617 175.68747,213.20164 176.0965,212.39983C176.46706,211.67345 177.11911,211.03819 177.439,210.32533C177.84975,209.40999 177.875,208.39999 177.875,207.5C177.875,206.7 177.875,205.8 177.875,204.89999C177.875,203.97917 177.875,203.1785 177.875,202.28934C177.875,201.30017 177.875,200.52083 177.875,199.5215C177.875,198.70134 178.05876,197.7735 177.839,196.89999C177.62195,196.03717 177.11551,195.19627 176.591,194.584C176.0271,193.92574 175.21942,193.83061 174.44299,193.416C173.67163,193.00409 173.3912,191.99066 172.92767,191.2045C172.53587,190.54001 172.0197,189.9176 171.82233,189.14816C171.58836,188.23611 170.875,187.5 170.27499,186.89999C169.675,186.3 169.10585,185.66689 168.46434,185.10001C167.74109,184.46089 167.03261,184.12811 166.35899,183.7C165.48746,183.14609 164.59645,182.75656 163.77516,182.2785C163.14708,181.91292 163.02803,180.77754 162.439,180.11067C161.82469,179.41519 160.84311,179.37346 160.27499,178.88933C159.52965,178.25417 158.74176,177.71196 158.075,177.416C157.21722,177.03525 156.3597,176.63968 155.875,175.97917C155.369,175.28964 155.12227,174.34946 154.70833,173.5C154.39049,172.84775 153.88542,172.00018 153.875,171.10001C153.86459,170.20006 154.05556,169.19934 153.591,168.584C153.07521,167.90079 152.875,167.2 152.875,166.3C152.875,165.39999 152.875,164.5 152.875,163.7C152.875,162.8 152.8802,161.89998 152.875,161C152.86966,160.07861 152.71503,159.16478 152.52234,158.49466C152.30779,157.74849 151.94023,156.64899 151.8795,155.80901C151.81395,154.90234 151.875,153.97917 151.875,153.01601C151.875,152.32533 151.78508,151.38121 151.87517,150.39999C151.95885,149.48856 152.52863,148.93958 153.1705,148.2C153.74911,147.53331 153.78691,146.54659 154.48567,145.936C155.15202,145.35376 156.175,145.5 157.075,145.5C157.97501,145.5 158.875,145.5 159.63217,145.5C160.53217,145.5 161.2795,145.5 162.27367,145.5C163.21783,145.5 164.11783,145.5 165.075,145.5C165.97501,145.5 166.91144,145.33183 167.675,145.58533C168.44717,145.84167 169.17365,146.47133 170.075,146.5C170.97438,146.52861 171.6284,146.98566 172.31784,147.37866C173.12189,147.83701 174.26913,147.74213 174.70833,148.5C175.12868,149.22536 175.39708,149.97711 176.175,150.45183C176.97614,150.94072 177.38809,151.50737 177.75366,152.47833C178.07156,153.32268 178.82878,153.74214 179.575,154.14734C180.33612,154.56064 181.27499,154.5 182.175,154.5C183.075,154.5 183.97501,154.5 184.875,154.5C185.675,154.5 186.60329,154.30922 187.47501,154.536C188.33139,154.75879 188.83229,155.69698 188.875,156.60001C188.91753,157.49899 188.91454,158.25824 188.8705,159.15266C188.82787,160.01874 188.4501,160.86426 187.959,161.69867C187.51823,162.44756 186.5381,162.677 186.16034,163.30133C185.67293,164.10687 186.24086,165.18935 185.85417,165.97917C185.49913,166.70435 184.33858,166.26213 183.58484,166.55716C182.76219,166.87915 182.875,168 182.875,168.89999C182.875,169.8 182.875,170.7 182.875,171.60001C182.875,172.5 182.875,173.3 182.875,174.2C182.875,175.10001 182.875,176 182.875,176.89999C182.875,177.8 183.20203,178.98209 182.51784,179.44284C181.73436,179.97044 180.675,179.5 179.77499,179.5C178.875,179.5 178.0365,179.29056 177.175,179.55716C176.30882,179.8252 176.17656,181.05156 175.51784,181.44284C174.70935,181.92308 174.06815,182.17053 173.35417,182.47917C172.54695,182.82813 171.575,182.5 170.675,182.5L169.77499,182.5L168.875,182.5" id="svg_1" stroke-width="3" stroke="#000" fill="none"/>
  <path t="20818,20967,20998,21027,21047,21063,21187,21187,21348" d="M163.875,158.5C164.78967,158.78534 164.48029,159.88289 165.16034,160.41467C165.88295,160.97974 166.959,160.5 167.875,160.5L168.675,160.5L169.575,160.5" id="svg_2" stroke-width="3" stroke="#000" fill="none"/>
  <path t="29895,30068,30102,30183,30236" d="M155.875,160.5C155.58966,161.41467 154.77499,161.5 153.875,161.5L152.92767,161.5" id="svg_4" stroke-width="3" stroke="#000" fill="none"/>
  <path t="31578,31819,31869,31923,32052,32391,32413,32734,32764,32764,32808,32840,32859" d="M161.875,166.5C161.875,167.5 161.875,168.416 161.875,169.2045C161.875,170.10001 161.87276,171 161.875,171.89999C161.87726,172.80002 162.16034,173.69867 162.67633,174.21466L163.575,174.4955L164.47501,174.5L165.375,174.5" id="svg_5" stroke-width="3" stroke="#000" fill="none"/>
  <path t="42660,42878,42884,42907,42955,43120,43182,43250,43251,43277,43277,43334,43404,43427,43468,43518,43518,43683,43683,43683,43798,43821,43883,43935,43964,44019,44019,44101,44108,44169,44189,44202,44220,44301,44385,44385,44420,44445,44485,44525,44635,44654,44709,44778,44778,44805,44886,44953,45139,45139,45180,45269,45318,45375,45375,45400,45430,45488,45587,45624,45726,46099" d="M152.875,147.5C152.875,145.8 152.875,144.89999 152.875,144C152.875,143.10001 152.875,142.2 152.875,141.29866C152.875,140.33333 152.83629,139.49922 152.87517,138.5215C152.90375,137.80281 153.41261,137.04753 154.1705,136.55267C154.86591,136.09862 155.43686,135.55977 156.36034,135.21466C157.10498,134.93639 157.86801,134.48549 158.66434,134.11067C159.38359,133.77213 160.35399,133.51042 161.27499,133.5C162.17494,133.48982 163.075,133.5 163.97501,133.5C164.875,133.5 165.675,133.5 166.575,133.5C167.47501,133.5 168.375,133.5 169.27499,133.5C170.175,133.5 171.075,133.5 171.97501,133.5C172.875,133.5 173.67519,133.48201 174.575,133.5C175.47554,133.51801 176.25673,133.95641 177.07367,134.416C177.77632,134.81129 178.32324,135.35402 179.175,135.5045C180.10217,135.6683 180.70757,136.27267 180.8705,137.2C181.0264,138.08733 181.3192,138.8923 181.97484,139.60001C182.5248,140.19363 182.80978,141.03204 183.22766,141.8C183.68524,142.64091 183.875,143.5 183.875,144.3C183.875,145.2 183.875,146.10001 183.875,147C183.875,147.89999 183.875,148.8 183.875,149.7L183.87534,150.59967" id="svg_7" stroke-width="3" stroke="#000" fill="none"/>
  <path t="48437,48591,48591,48630,48653,48676,48701,48702,48886,48919,48919,48931,48966,48982,49005,49005,49154,49215,49231,49248,49266,49282,49334,49366,49366,49382,49383,49398,49415,49451,49466,49481,49507,49507,49516,49540,49549,49549,49587,49587,49622,49647,49647,49699,49699,49736,49736,49736,49751" d="M151.875,188.5C151.875,187.5 151.89299,186.69981 151.875,185.8C151.85699,184.89946 151.44818,184.09119 150.77499,183.39999C150.28163,182.89343 149.68678,182.00688 148.77499,181.62151C148.12079,181.345 147.44606,181.1293 146.6535,180.62151C145.90675,180.14307 144.8746,180.52536 144.075,180.5C143.17365,180.47141 142.42253,179.96239 141.92767,179.2045C141.47362,178.50909 140.88542,177.97935 140.875,177.10001C140.86429,176.19556 140.875,175.33333 140.875,174.5C140.875,173.5215 140.875,172.70134 140.875,171.8C140.875,170.89999 140.82204,169.96524 141.22766,169.2C141.67607,168.35405 141.92747,167.38727 142.48567,166.936C143.25592,166.31332 144.18883,166.15758 144.875,165.5C145.38553,165.01074 146.075,164.3 146.675,163.7C147.27499,163.10001 147.94249,162.36249 148.511,161.89999C149.31767,161.24376 150.08566,160.89999 150.875,160.5L151.65367,160.10001L152.30434,159.7L152.92317,158.85716" id="svg_8" stroke-width="3" stroke="#000" fill="none"/>
  <path t="50670,50767,50802,50818,50835,50836,50852,50852,50852,50869,50869,50869,50885,50885,50886,50886,50902,50903,50903,50918,50918,50935,50952,50953,50970,50985,50985,51004,51005,51020,51036,51036,51052,51052,51069,51070,51093,51093,51108,51133,51153,51153,51171,51171,51188,51188,51211,51260,51326,51501,51537,51554,51554,51570,51570,51570,51587,51779,51779,51885,52174,52190,52191,52191,52195,52195,52195,52195,52196" d="M143.875,174.5C146.42833,172.55733 146.90205,173.26013 146.439,173.89999C145.87314,174.6819 145.21834,175.15593 144.33234,175.82133C143.8773,176.16307 143.11224,176.65636 142.20833,177.33333C141.50426,177.86063 141.02687,178.27611 140.11084,178.8215C139.52135,179.17249 138.84453,179.50426 138.17583,179.9045C136.89914,180.66864 136.3501,181.04623 135.76833,181.664C135.0537,182.42282 134.71991,183.25508 133.85417,183.5C132.90837,183.76756 132.31639,184.14969 131.35417,184.5C130.5737,184.78413 129.83997,184.96533 128.8965,185.59984C128.25989,186.02797 127.42455,186.36722 126.67367,186.78534C125.9251,187.20216 125.20885,187.77745 124.52766,188.2C123.60848,188.77017 123.15666,189.25545 122.22234,189.7955C121.54991,190.18417 120.62312,190.35759 119.675,190.50133C118.75877,190.64023 118.26254,191.14609 117.391,191.7C116.71739,192.12811 115.95909,192.69432 115.1795,193.14284C114.42368,193.57767 113.475,193.5 112.575,193.5C111.675,193.5 110.775,193.5 109.875,193.5C109.06067,193.5 108.107,193.5 107.375,193.5C106.643,193.5 105.47392,193.34087 104.675,193.78534C103.98346,194.17007 102.86356,194.88252 102.94117,195.7955C103.00911,196.59468 104.24028,196.49367 104.819,196.49867C105.96079,196.50854 106.89917,196.5 107.40833,196.5L108.48167,196.5L109.03584,196.5" id="svg_9" stroke-width="3" stroke="#000" fill="none"/>
  <path t="53101,53223,53261,53287,53311,53340,53340,53376,53376,53405,53442,53458,53493,53516,53516,53541,53541,53558,53559,53575,53611,53612,53651,53740,53764,53791,53808,53808,53874,53874,53874,53909,53932,53959,53960,53976,53992,53992,54011,54026,54043,54076,54108,54125,54147,54147,54159,54273,54341,54397,54397,54429,54492,54492,54510,54539,54561,54561,54577,54644,54695,54695,54731,54761,54794,54794,54811,54827,54844,55096,55113,55129,55164,55165,55306,55306,55453,55500,55557,55581,55597,55647,55664,55692,55693,55724,55746,55771,55797,55797,55836,55845,55891,55891,55915,55948,55964,55988,56129,56129,56156,56171,56215,56216,56263,56324,56373,56399,56399,56432,56513,56533,56566,56582,56599,56619,56620,56643,56747,56772,56812,56836,56851,56851,56865,56916,57076,57117,57117,57134,57134,57150,57171,57172,57188,57217,57244,57245,57316,57334,57352,57367,57384,57401,57522,57522,57551,57568,57585,57585,57601,57617,57618,57635,57635,57651,57651,57668,57668,57685,57703,57703,57719,57740,57756,57756,57779,57801,57852,57886,57886,57909,57941,57941,59568,59568,59605,59606,59630,59630,59640,59659,59673,59690,59690,59706,59724,59763,59772,59805,59828,59841,59860,59875,60004,60052,60090,60091,60108,60132,60133,60133,60157,60174,60190,60211,60235,60267,60267,60291,60316,60331,60331,60355,60373,60390,60424,60459,60475,60476,60493,60510,60510,60525,60548,60575,60593,60608,60608,60626,60642,60659,60676,60691,60692,60708,60708,60725,60725,60742,60772,60772,60841,60877,60877,60900,60901,60941,60959,60960,60975,60992,61009,61026,61042,61043,61059,61078,61189,61213,61309,61327,61345,61360,61360,61377,61556,61556,61587,62984,63159,63181,63198,63199,63215,63215,63215,63215,63231,63231,63231,63231,63248,63248,63248,63248,63267,63410,63410,63449,63466,63483,63484,63499,63516,63532,63533,63557,63557,63558,63565,63582,63599,63599,63616,63632,63713,63713,63749,63765,63783,63842,63875,63892,63950,63950,63972,63972,63983,64000,64000,64016,64016,64033,64084,64117,64118,64135,64150,64151,64167,64217,64252,64268,64285,64285,64302,64302,64302,64318,64318,64365,64390,64404,64451,64479,64479,64502,64503,64517,64518,64518,64534,64535,64551,64552,64602,64602,64636,64636,64652,64653,64670,64670,65068" d="M182.875,167.5C182.93216,165.8 183.30882,164.82516 184.175,164.55716C185.0378,164.29021 186.04167,164.49992 186.875,164.5C187.8535,164.50009 188.57101,164.5562 189.375,165C190.17552,165.44189 191.075,165.5 191.97501,165.5C192.875,165.5 193.63217,165.5 194.53217,165.5C195.2795,165.5 196.48268,165.41287 197.21783,165.55716C198.14737,165.73959 198.8624,166.41496 199.675,166.49867C200.57027,166.59088 201.47501,166.5 202.375,166.5C203.28566,166.5 204.19894,166.45885 204.89583,166.52083C205.88191,166.60852 206.69145,166.88654 207.38966,167.30133C208.27777,167.82895 209.12769,168.28673 209.875,168.66667C210.54036,169.00496 211.31627,169.71188 211.75366,170.60001C212.07596,171.25444 212.48715,172.08234 212.84967,172.89999C213.19701,173.68343 214.02434,174.08554 214.70833,174.66667C215.37523,175.23328 215.9319,175.7897 216.575,176.14734C217.42812,176.62177 218.22073,177.02742 219.075,177.416C219.83812,177.76312 220.47766,178.10799 221.175,178.8C221.87769,179.49731 222.48167,180.0795 222.84967,180.89999C223.20068,181.6826 223.76563,182.48915 223.8705,183.2C224.00841,184.13474 224.62019,184.7076 225.04167,185.5C225.3824,186.14059 225.86458,186.9998 225.875,187.8045C225.88815,188.82124 225.875,189.5 225.875,190.4785C225.875,191.5 225.70386,192.32524 224.99651,192.72116C224.87421,192.78961 224.81398,191.95287 225.16034,191.01601C225.42508,190.29991 226.05704,189.5769 226.51784,188.8045C226.95908,188.0649 227.5851,187.11133 228.439,187.536C229.13977,187.88451 229.80109,188.43398 230.35417,189.02083C231.04633,189.75525 231.26108,190.63835 231.591,191.3C232.01155,192.14336 232.11703,192.94835 232.591,193.584C233.16426,194.35281 232.9691,195.29488 233.375,196C233.83228,196.79436 234.26108,197.63835 234.591,198.3C235.01155,199.14336 234.86967,200.10002 234.875,201C234.88034,201.90004 235.26305,202.64578 235.591,203.38533C235.98206,204.26718 236.13708,205.18787 236.875,205.66667C237.47714,206.05737 237.80978,207.03204 238.22766,207.8C238.68524,208.64091 238.72896,209.52771 238.93216,210.2C239.19672,211.07529 239.65189,211.82652 239.87633,212.69867C240.08244,213.49957 240.77806,213.97101 241.22766,214.8C241.68407,215.64156 241.67839,216.33455 241.93216,217.2C242.18945,218.07744 242.84641,218.79865 242.875,219.7C242.90353,220.59955 242.84964,221.5004 242.875,222.3C242.90359,223.20135 243.56253,223.92198 243.81784,224.8C244.06996,225.66707 243.7672,226.4339 243.16516,227.14816C242.58003,227.84238 241.76672,228.36673 240.875,228.5C240.0793,228.61891 239.29277,229.11238 238.47501,229.47467C237.69035,229.8223 237.15034,230.38899 236.375,230.97917C235.64053,231.53824 234.86032,231.88783 234.30034,232.52533C233.81281,233.08034 233.46513,233.92575 232.77499,234.59984C232.19609,235.16527 231.20744,235.56908 230.47501,235.064C229.7971,234.59651 229.22615,233.93767 228.90033,233.08934C228.56204,232.20859 228.26579,231.53551 227.99651,230.52133C227.79562,229.76476 227.875,228.84283 227.875,227.89867C227.875,226.9045 227.9516,226.15353 227.8705,225.25267C227.78679,224.32289 227.50421,223.38237 226.77516,222.74283C226.14365,222.18884 226.04855,221.46175 225.78967,220.7C225.48792,219.81209 225.00951,219.09013 224.8705,218.2C224.7426,217.38101 224.07404,216.69963 223.47501,216.10001C222.77525,215.39957 222.26537,214.86089 221.39101,214.3C220.71921,213.86905 219.87289,213.42752 219.28566,212.89999C218.54359,212.23338 217.98436,211.77776 217.39583,211C216.83788,210.26265 217.03871,209.24271 216.65367,208.39999C216.34787,207.7307 215.88034,206.90004 215.875,206C215.86967,205.10002 215.87509,204.2 215.875,203.3C215.87491,202.40016 215.32834,201.82968 214.93216,201.14284C214.46231,200.32826 214.5648,198.54308 213.88567,198.96133C213.31303,199.314 214.59906,200.17181 214.875,201.04167C215.185,202.01884 215.31363,202.74684 215.52234,203.49466C215.80936,204.52306 216.35817,205.10718 216.78967,205.78534C217.28282,206.56038 216.69366,207.65347 217.04167,208.5C217.31757,209.17108 217.75995,209.94319 218.22766,210.8C218.63451,211.54533 218.87433,212.3 218.875,213.2C218.87567,214.10001 218.8221,215.03474 219.22766,215.8C219.67596,216.64589 219.875,217.5 219.875,218.3C219.875,219.136 219.875,220.15266 219.875,220.84734C219.875,221.864 219.875,222.8 219.875,223.7C219.875,224.60001 219.875,225.5 219.875,226.3C219.875,227.2 219.875,228.10001 219.875,229C219.875,229.91066 219.875,230.82133 219.875,231.67467C219.875,232.616 219.92032,233.3856 219.86433,234.32533C219.82301,235.0188 219.24686,235.95233 218.99651,236.82133C218.75829,237.64821 218.875,238.61467 218.875,239.5C218.875,240.25717 218.88414,241.15271 218.875,242.01601C218.86458,243.00017 218.7562,243.87852 218.26433,244.63867C217.77101,245.40106 216.90359,245.85571 216.875,246.7C216.84453,247.59949 216.875,248.5 216.875,249.3C216.875,250.2 216.875,251.10001 216.875,252C216.875,252.89999 216.875,253.8 216.875,254.7C216.875,255.60001 216.875,256.5 216.875,257.29999C216.875,258.25717 216.875,259.15268 216.875,260.01599C216.875,260.86401 217.07516,261.82288 216.87367,262.69867C216.69055,263.49463 215.72803,263.08475 215.375,262.4375C214.7946,261.37341 214.66411,260.81708 214.375,259.95834C214.16714,259.34094 213.77299,257.97922 213.575,257.24734C213.37296,256.50055 213.18327,255.75035 212.875,254.66667C212.68152,253.98651 212.37552,253.06827 212.16034,252.272C211.90324,251.3206 211.79973,250.21783 211.07367,249.78534C210.32561,249.33974 209.87726,250.26166 209.875,251.15266C209.87282,252.01601 209.97527,252.98573 209.86433,253.91066C209.75301,254.8389 209.29366,255.49681 209.04167,256.5C208.84676,257.27597 208.87567,258.01468 208.875,259.08932C208.8745,259.91068 209.0444,260.84659 208.839,261.63867C208.61449,262.50446 207.44363,262.76453 207.04167,263.5C206.63962,264.23566 206.39952,265.15869 205.90033,265.88934C205.43816,266.5658 204.61615,266.92133 203.77516,267.37866C203.02753,267.78522 202.42589,268.34991 201.68967,268.52533C200.75093,268.74902 200.1505,269.38986 199.46434,269.88934C198.62852,270.49777 197.81752,270.3237 196.8965,270.7215C196.10286,271.06427 195.69356,272.00952 194.77499,272.37851C193.93228,272.71704 193.02431,272.51285 192.375,273.02084C191.60759,273.62125 191.44414,274.48102 190.82233,275.14282C190.25473,275.74692 189.175,275.5 188.239,275.5C187.38834,275.5 186.62833,275.5 185.45383,275.5C184.66034,275.5 183.88483,275.5 182.84567,275.5C182.07767,275.5 181.175,275.5 180.27499,275.5C179.375,275.5 178.46434,275.5 177.55367,275.5C176.70033,275.5 175.75766,275.5 175.06517,275.5C174.10567,275.5 173.35417,275.5 172.55766,275.5C171.33217,275.5 170.47951,275.5 169.675,275.5C168.875,275.5 167.875,275.5 166.89583,275.5C166.04167,275.5 165.1217,275.47043 164.21783,275.50449C163.46918,275.53268 162.47633,275.784 161.711,276.07468L160.763,276.41467" id="svg_10" stroke-width="3" stroke="#000" fill="none"/>
  <path t="66122,66532,66532,66578,66610,66621,66644,66704,66740,66740,66780,66780,66828,66855,66855,66889,66890,66907,66923,66923,66956,66973,66973,66989,67034,67059,67089,67089,67122,67154,67191,67223,67242,67266,67282,67323,67340,67371,67435,67435,67466,67515,67743,67999,68169,68257,68309,68355,68355,68604,68636,68644,68774,68811,68811,68929,68956,68978,68978,69215,69215,69268,69291,69322,69361,69377,69524,69579,69580,69595,69612,69628,69743,69763,69763,69804,69872,69872,69899,69912,69948,69980,70158,70158,70195,70215,70230,70247,70248,70470,70530,70530,70546,70546,70564,70646,70646,70713,70751,70766,70766,70784,70785,70800,70800,70815,70843,70851,70868,70883,70884,70899,70967,70967,71005,71049,71116,71117,71135,71150,71172,71172,71188,71199,71227,71251,71251,71298,71331,71356,71371,71395,71427,71427,71450,71475,71475,71491,71492,71517,71538,71539,71539,71554,71567,71584,71601,71633,71651,71667,71668,71699,71717,71734,71752,71752,71833,72032,72050" d="M246.875,225.5C245.875,226.5 245.875,227.3 245.875,228.2C245.875,229.10001 245.875,230 245.875,230.89999C245.875,231.8 245.75545,232.74358 246.04567,233.38533C246.43105,234.23749 247.26828,234.78714 247.70567,235.61467C248.14818,236.45186 248.48543,237.16718 249.35899,237.416C250.19965,237.65544 251.15514,237.81564 251.875,238.5C252.47182,239.06737 252.75043,239.94583 253.159,240.7C253.51118,241.35008 253.46019,242.32431 253.93216,243.14284C254.32823,243.82974 254.875,244.5 254.875,245.3C254.875,246.2 254.875,247.10001 254.875,248C254.875,248.89999 254.6801,249.82169 254.87633,250.69867C255.0569,251.50571 255.85635,251.93546 255.875,252.8C255.89439,253.69978 256.17587,254.55083 256.52234,255.2C256.97568,256.04938 256.875,257 256.875,257.89999C256.875,258.79999 256.55002,259.9791 257.23218,260.44284C257.93088,260.91782 259.11749,260.6004 259.58966,261.30133C260.06845,262.01208 260.20358,263.09802 261.07501,263.41467C261.92471,263.72342 262.90848,263.62466 263.47501,264.11066C264.21826,264.7482 265.1911,265.65408 264.70834,266.33334C264.26669,266.95477 262.96719,266.81192 262.44434,267.30133C261.73718,267.96326 261.875,269 261.875,269.89999C261.875,270.79999 261.875,271.70001 261.875,272.60001C261.875,273.5 261.875,274.29999 261.875,275.20001C261.875,276.10001 262.01773,277.01312 261.86432,277.89999C261.72015,278.73346 261.07434,279.30066 260.375,280C259.67566,280.69934 259.10846,281.34515 258.27499,281.48932C257.38812,281.64273 256.46451,281.63272 255.575,281.49551C254.64362,281.35184 254.10638,280.64816 253.175,280.50449C252.28551,280.36728 251.35417,280.5 250.39101,280.5C249.70033,280.5 248.62767,280.5 247.70833,280.5C246.875,280.5 246.04167,280.5 245.1795,280.5C244.239,280.5 243.39099,280.50458 242.52766,280.5C241.52162,280.49466 240.89301,280.05389 240.875,279.1785C240.85672,278.28952 240.875,277.30017 240.875,276.52084C240.875,275.52151 240.53989,274.60684 240.93216,273.85718C241.32318,273.10992 241.56697,272.30084 242.23216,271.60983C242.79616,271.02396 243.61494,270.70764 243.90033,269.86401C244.18443,269.02417 244.59419,268.36465 244.81784,267.25717C244.98788,266.4151 244.875,265.5 244.875,264.70001C244.875,263.79999 244.875,262.86401 244.875,262.01599C244.875,261.15268 244.875,260.25717 244.875,259.29999C244.875,258.39999 244.875,257.5 244.875,256.70001C244.875,255.8 245.04321,254.88016 244.85417,254C244.67281,253.15558 243.72446,252.74727 242.875,252.33333C242.22275,252.01549 241.35599,251.64992 240.675,250.93066C240.17003,250.39731 239.89334,249.39041 239.175,248.86166C238.44569,248.32484 237.55101,248.06053 236.875,247.5C236.35695,247.07045 235.47238,246.4623 234.84967,245.92534C234.2207,245.38298 233.2002,245.06618 232.93216,244.2C232.66556,243.3385 233.02151,242.36595 232.78967,241.7C232.48135,240.81435 231.89308,240.10054 231.875,239.1955C231.85471,238.17903 231.85417,237.52083 231.52234,236.60983L230.91667,236L231.52167,235.54666" id="svg_11" stroke-width="3" stroke="#000" fill="none"/>
  <path t="77099,77348,77348,77348,77397,77397,77397,77642,77642,77642,77642,77642,77665,77665,77684,77732,77732,77772,77789,77789,77834,77850,77866,77914,77933,77933,77934,77950,77950,77979,77979,78011,78043,78043,78077,78077,78100,78101,78165,78184,78202,78218,78234,78251,78251,78266,78266,78282,78282,78282,78299,78299,78299,78357,78385,78405,78420,78436,78436,78452,78452,78467,78467,78483,78568,78633,78670,78796,78796,78819,78899,79215,79253,79253" d="M43.875,208.5C45.88483,209.8 46.66264,210.09396 47.19233,210.3C48.19818,210.69125 48.92319,211.02954 49.72967,211.47067C50.74729,212.02731 51.52802,212.50166 51.94033,212.74001C52.76205,213.215 53.5067,213.71233 54.489,214.1355C55.4076,214.53123 56.28567,214.5 57.19633,214.5C58.04967,214.5 58.98967,214.5 59.875,214.5C60.675,214.5 61.57506,214.51041 62.475,214.5C63.37518,214.48958 64.14996,214.10121 65.04166,213.5C65.68061,213.0692 66.40791,212.72386 67.12233,212.2C67.77516,211.72128 68.4953,211.12997 69.391,210.78534C70.22549,210.46426 71.19633,210.5006 72.04967,210.5C72.991,210.49933 73.7932,210.49464 74.68967,210.064C75.33523,209.75388 75.85386,208.6736 76.5795,208.5045C77.45217,208.30113 78.22538,209.0174 79.075,209.416C79.93559,209.81975 80.4819,210.15501 81.36034,210.7C82.0642,211.13667 82.87028,211.50972 83.68567,211.89999C84.32854,212.2077 85.29974,212.59042 86.079,212.89999C86.81162,213.19104 87.49619,214.08115 88.311,214.464C89.09366,214.83176 90.075,214.5 90.97517,214.5C91.76033,214.5 92.711,214.5 93.47633,214.5C94.4705,214.5 95.21783,214.5 96.239,214.5C97.175,214.5 98.075,214.5 98.975,214.5C99.875,214.5 100.67519,214.48201 101.575,214.5C102.47554,214.51801 103.275,214.92534 104.07633,215.416L104.76033,215.584" id="svg_12" stroke-width="3" stroke="#000" fill="none"/>
  <path t="83928,84075,84113,84131,84146,84146,84163,84163,84180,84180,84180,84230,84230,84268,84283,84299,84403,84448,84570,84582,84582,84599,84599,84599,84602,84602" d="M243.875,286.5C243.875,284.79999 243.875,283.89999 243.875,282.97916C243.875,282.01468 243.875,281.28934 243.875,280.29984C243.875,279.47916 243.875,278.33334 243.875,277.55182C243.875,276.76132 243.875,275.83334 243.875,274.92133C243.875,274.10001 243.875,273.20001 243.875,272.29999C243.875,271.39999 244.20779,270.1051 243.85417,270.04166C243.02954,269.89368 243.03146,271.45102 242.67633,272.26935C242.35699,273.00519 242.16034,273.81732 241.96033,274.81601L241.88567,275.72534" id="svg_13" stroke-width="20" stroke="#fff" fill="none"/>
  <path t="85288,85334,85350,85350,85350,85509,85535,85551,85584,85584,85618,85642,85642,85667,85685,85701,85717,85799,85818,85818,85851" d="M243.875,283.5C243.875,285.172 243.89607,286.26895 243.85417,287C243.81212,287.73361 243.35649,289.30115 242.89583,288.95834C242.19847,288.43939 242.875,287.17868 242.875,286.32535C242.875,285.38535 242.70145,284.46176 242.96033,283.70001C243.26208,282.81207 243.85699,282.10056 243.875,281.20001C243.89299,280.30017 243.875,279.39999 243.875,278.5L243.875,277.70001L243.875,276.79999" id="svg_14" stroke-width="20" stroke="#fff" fill="none"/>
  <path t="88836,88916,88925,88941,88959,88959,88992,88992,89121,89142,89171,89180,89180,89212,89252,89252,89276,89294,89310,89310,89326,89343,89344,89361,89378,89489,89508,89706,89791,89791,89991,90061" d="M244.875,256.5C244.875,258.29999 244.90527,259.10278 245.30034,259.91068C245.74721,260.82449 245.7249,261.54657 246.09633,262.47849C246.40512,263.25323 246.86234,263.99985 246.875,264.89999C246.88766,265.7999 247.26671,266.63559 247.591,267.29999C248.02838,268.19611 247.78589,269.16623 247.93216,269.84732C248.15921,270.90451 248.61086,271.65897 249.04167,272.5C249.38197,273.16434 250.34076,273.69739 250.70833,274.5C251.04848,275.24271 250.92949,276.20151 251.375,277C251.81967,277.797 252.349,278.39374 253.075,278.784C253.92979,279.24347 254.675,279.49866 255.575,279.5L256.47501,279.5" id="svg_15" stroke-width="3" stroke="#000" fill="none"/>
  <path t="93766,93837,93837,93875,93888,93916,93946,93962,93978,94037,94054,94054,94071,94088,94153,94197,94223,94239,94256,94271,94299,94306,94306,94322,94338,94379,94422,94422,94470,94539,94639,94672,94691,94691,94707,94731,94888,94924,95396,95396,95425,95440,95457,95457,95458,95474,95475,95490,95491,95608" d="M216.875,252.5C217.875,253.5 217.875,254.3 217.875,255.2C217.875,256.10001 217.875,257 217.875,257.89999C217.875,258.79999 217.79288,259.7038 217.87517,260.60001C217.95885,261.51144 218.59248,261.89648 219.35417,262.5C219.97786,262.99414 219.58591,264.05197 219.88567,264.88934C220.14941,265.6261 220.8644,266.11066 220.875,267C220.88573,267.89999 221.33693,268.73639 221.70833,269.5C222.075,270.25391 222.48798,271.08197 222.84967,271.89999C223.19652,272.68448 223.78709,273.48633 223.8705,274.20001C223.97496,275.09393 223.87276,276 223.875,276.89999C223.87726,277.79999 224.26108,278.63837 224.591,279.29999C225.01157,280.14337 224.86967,281.10004 224.875,282C224.88034,282.90005 225.14285,283.71548 225.67633,284.29999C226.33322,285.01968 226.84641,285.8078 226.875,286.83334C226.89372,287.50507 226.875,288.24933 226.875,289.35718C226.875,290.24817 226.8795,291.14816 226.96033,291.93066L227.5795,292.54816" id="svg_16" stroke-width="3" stroke="#000" fill="none"/>
  <path t="105071,105131,105150,105150,105167,105182,105199,105199,105200,105215,105215,105231,105231,105231,105249,105249,105249,105249,105266,105266,105266,105282,105282,105299,105299,105315,105315,105333,105333,105348,105348,105348,105366,105366,105382,105382,105402,105402,105463,105482,105482,105498,105498,105515,105515,105515,105531,105531,105547,105547,105745,105745,105782,105799,105799,105816,105816,105816,105832,105832,105832,105832,105848,105848,105849,105849,105993,106050,106067,106067,106082,106083,106106,106106,106115,106115,106132,106132,106216,106243,106243,106251,106267,106283,106300,106300,106316,106316,106333,106350,106366,106367,106384,106384,106400,106778,106778,106929,106929,107001,107036,107052,107054,107069,107069,107069,107086,107087,107087,107136,107137,107163,107163,107170,107186,107202,107203,107218,107219,107219" d="M185.875,273.5C186.875,274.52084 187.14935,275.44952 187.52234,276.1955C187.91153,276.97388 187.84001,277.93033 188.04167,278.83334C188.19363,279.51385 188.52161,280.23206 188.75349,281.35733C188.91518,282.14188 188.86098,283.04349 188.88567,283.78265C188.91519,284.6669 189.02623,285.66943 189.22766,286.74817C189.36453,287.4812 189.54411,288.18625 189.70833,289.16666C189.84503,289.98282 189.88028,290.94543 190.44299,291.89868C190.81082,292.52179 191.66931,293.29108 191.83333,294C192.05533,294.95953 191.81686,295.67645 191.8795,296.75183C191.92148,297.47266 192.23508,298.50775 192.44966,299.28534C192.59608,299.81595 192.78664,301.048 192.92767,301.89551C193.06259,302.70621 193.34146,303.51202 193.875,304.33334C194.38881,305.1243 194.77316,305.9339 195.159,306.70132C195.5224,307.42413 195.77432,308.36194 196.04433,309.10132C196.35072,309.94037 196.91518,310.4845 197.39233,311.10001C198.14928,312.07642 198.47215,312.69604 198.97484,313.69983C199.26892,314.28705 199.45215,315.45804 199.90033,316.05334C200.41692,316.73953 201.53667,316.5 202.33667,316.5C203.29649,316.5 204.11099,316.5 204.97951,316.5C205.875,316.5 206.7795,316.5 207.711,316.5C208.36034,316.5 209.396,316.5 210.11867,316.5C211.17767,316.5 211.82033,316.5 213.00349,316.5C213.97501,316.5 214.875,316.5 215.63217,316.5C216.53217,316.5 217.47633,316.5 218.47501,316.5C219.27499,316.5 220.28159,316.57913 221.039,316.46399C222.01065,316.31625 222.49582,315.70786 223.28566,315.11066C223.98502,314.58188 224.96718,314.71082 225.76517,314.14734C226.43546,313.67404 226.7892,312.93405 227.23216,312.1955C227.60825,311.56842 228.32492,310.70007 228.58966,309.98401C228.93602,309.04715 228.72935,308.13864 229.16034,307.29868C229.47816,306.67929 230.22063,305.87021 230.51784,305.15268C230.88091,304.27618 230.87492,303.33334 230.875,302.5C230.87509,301.52151 230.78236,300.54184 231.48567,299.936C232.15976,299.35535 233.2043,299.70389 233.89583,300.02084C234.88681,300.47507 235.47499,300.79999 236.27499,301.20001C237.07498,301.60001 237.87527,301.99945 238.47501,302.29999C239.47096,302.79907 240.27441,303.1221 240.98833,303.70001C241.64784,304.23389 241.89168,305.21262 242.63667,305.55267C243.49844,305.94601 244.2795,306.26166 245.07483,306.8215L245.66434,307.336L246.21783,307.90451" id="svg_18" stroke-width="3" stroke="#000" fill="none"/>
  <path t="108351,108506,108556,108572,108621,108735,108735,108774,108790,108807,108827,108840,108867,108867,108891,108944,108944,108974,108991,109007,109025,109025,109040,109041,109057,109057,109074,109090,109091,109107,109107,109124,109142,109156,109174,109210,109242,109243,109276,109291,109315,109341,109357,109375,109403,109426,109426,109440,109457,109505,109708,109708,109853,109875,110004,110058,110092" d="M225.875,288.5C225.875,286.79999 225.69263,285.87701 225.89583,285C226.11955,284.03442 226.79228,283.39642 227.47501,282.936C228.29674,282.38184 229.27499,282.5 230.175,282.5C231.075,282.5 231.97501,282.5 232.875,282.5C233.675,282.5 234.511,282.5 235.35899,282.5C236.22234,282.5 237.239,282.49863 238.175,282.5C239.075,282.50134 239.94516,282.78943 240.35417,283.52084C240.78676,284.29443 240.82253,285.15289 241.16034,285.98267C241.5034,286.82532 242.28465,287.20163 243.07367,287.78665C243.70935,288.258 243.76418,289.34442 243.959,290.01599C244.25131,291.02362 244.65849,291.7937 245.22766,292.44733C245.74713,293.04385 246.40218,293.70944 246.75349,294.60001C247.01413,295.26068 246.68422,296.2283 246.911,297.10001C247.13379,297.95642 248.36441,298.12039 248.81784,298.85718C249.2606,299.57663 248.875,300.60001 248.875,301.5C248.875,302.29999 248.46379,303.32257 248.93216,304.14282C249.39648,304.95599 250.0688,305.54544 249.78967,306.29999C249.46799,307.16959 248.47501,307.46399 247.575,307.5L246.675,307.5L245.77499,307.5" id="svg_19" stroke-width="3" stroke="#000" fill="none"/>
  <path t="113037,113083,113100,113100,113100,113100,113115,113116,113116,113132,113133,113133,113133,113150,113150,113150,113150,113166,113167,113167,113167,113167,113183,113183,113183,113183,113183,113200,113200,113200,113200,113216,113216,113234,113251,113251,113267,113267,113284,113300,113300,113318,113318,113334,113334,113351,113366,113366,113400,113400,113417,113417,113417,113417,113417,113434,113434,113434,113450,113659,113702,113702,113722,113722,113735,113751,113910,113962,113987,114067,114089,114089,114113,114130,114138,114138,114152,114168,114186,114186,114186,114202,114202,114202,114250,114269,114270,114285,114302,114319,114320,114335,114335,114352,114353,114353,114370,114371,114386,114386,114418,114418,114436,114453,114469,114503,114503,114522,114537,114554,114571,114571,114586,114586,114610,114610,114940,115237,115237" d="M145.875,277.5C145.875,278.43317 145.875,279.48532 145.875,280.21066C145.875,281 145.86923,281.78937 145.875,282.83334C145.88034,283.79871 145.95212,284.63733 146.09633,285.4855C146.2206,286.2164 146.38191,287.01965 146.52234,287.8465C146.71797,288.99841 146.81888,289.94232 146.90033,290.776C146.95662,291.35223 147.15692,292.75555 147.23666,293.16699C147.40659,294.04367 147.62625,294.95926 147.76167,295.41867C148.16531,296.78796 148.52856,297.64072 148.85417,298.47916C149.17041,299.29349 149.36809,299.68341 149.632,300.89951C149.80112,301.6788 149.86226,302.79181 149.87233,303.444C149.89067,304.63284 149.80794,305.38449 149.88567,306.32535C149.96965,307.34189 150.52213,307.95026 150.78967,308.98401C150.96373,309.65652 150.875,310.616 150.875,311.66666C150.875,312.32535 150.60872,313.41351 150.98933,314.1955C151.35931,314.95563 152.53824,315.1785 152.83333,316.02084C153.15205,316.93069 152.79408,317.67834 152.884,318.76083C152.93961,319.43018 153.31143,320.48788 153.58484,321.21518C153.88873,322.02356 154.22394,322.84769 154.39233,323.24933C154.97829,324.64691 155.38008,325.39871 155.58833,326.01068C155.94701,327.06473 155.75987,327.95883 156.23216,328.8045C156.5887,329.4429 157.15285,330.16592 157.575,330.84732C158.14137,331.76154 158.44569,332.66223 159.04167,333.33334C159.58009,333.93964 160.23351,334.57196 161.075,334.49866C161.99788,334.41824 162.26393,333.61554 162.93634,332.936C163.56544,332.30023 164.70837,332.50864 165.46434,332.5C166.37518,332.48956 167.11671,332.01138 168.04167,331.66666C168.69246,331.4241 169.56888,331.44907 170.55766,331.216C171.36093,331.02667 172.11658,330.82657 173.203,330.52533C173.98404,330.30878 174.62111,329.63809 175.27499,329.11066C176.02049,328.50934 176.97087,328.27252 177.511,327.88934C178.35506,327.29056 179.11354,326.88074 180.04167,326.5C180.81224,326.1839 181.67207,326.04919 182.375,325.5C183.10194,324.93204 183.59084,324.20947 184.22684,323.79999C185.13104,323.21783 185.7527,322.76163 186.68967,322.52533C187.53651,322.31177 188.15894,321.7511 188.97501,321.2785C189.64154,320.89249 190.11696,320.11514 190.97484,319.62134C191.71246,319.19675 192.21501,318.50879 192.875,318C193.64023,317.4101 193.97639,316.61121 194.73633,316.11066C195.34784,315.70789 196.35417,315.47916 197.07367,314.93066L197.439,314.31467" id="svg_20" stroke-width="3" stroke="#000" fill="none"/>
  <path t="117303,117528,117561,117562,117612,117613,117644,117663,117663,117712,117728,117744,117761,117761,117778,117794,117811,117828,117844,117844,117844,117860,117878,117878,117930,117944,117944,117960,117985,117985,118075,118076,118112,118130,118146,118146,118210,118258,118278,118329,118362,118393,118412,118441,118441,118458,118465,118478,118478,118497,118546,118546,118562,118628,118628,118681,118697,118714,118715,118730,118731,118731,118746,118746,118746,118763,118780,118780,118797,118797,118797,118814,118831,118832,118848,118897,118916,118916,118932,118932,118948,118948,118965,118966,118966,119029,119029,119048,119048,119064,119081,119081,119098,119098,119098,119113,119113,119113,119113,119162,119186,119212,119212,119232,119233,119251,119265,119281,119325,119332,119366,119366,119396,119448,119474,119482,119498,119498,119498,119514,119514,119515,119532,119548,119548,119565,119566,119583,119599,119600,119615,119615,119633,119633,119633,119649,119665,119666,119683,119700,119701,119733,119733,119755,119771,119783,119799,119816,119883,119883,119996" d="M55.875,184.5C54.11783,184.5 53.21157,184.44717 52.4705,184.55716C51.46183,184.70686 50.74569,185.19455 49.76033,185.41467C48.89229,185.60858 48.075,185.5 47.175,185.5C46.275,185.5 45.35417,185.5 44.391,185.5C43.70033,185.5 42.63217,185.5 41.775,185.5C40.875,185.5 40.21343,185.09785 39.375,184.66667C38.66584,184.30197 37.87584,184.50226 36.84566,184.5C35.875,184.49788 35.06458,184.60043 34.239,184.464C33.3673,184.31995 32.53993,183.813 31.62767,183.55267C30.71881,183.29332 30.07504,183.00529 29.04167,182.66667C28.30045,182.42378 27.56291,181.88708 26.675,181.58533C25.91325,181.32645 25.09391,181.38232 24.275,180.92534C23.50227,180.49413 22.88542,179.97935 22.875,179.10001C22.86434,178.20006 22.875,177.3 22.875,176.39999C22.875,175.5 22.99489,174.72014 23.44967,173.89999C23.88341,173.11778 24.13844,172.28046 24.67633,171.7C25.34856,170.97458 26.075,170.3 26.575,169.8C27.275,169.10001 27.89231,168.29166 28.575,167.85716C29.30713,167.39122 30.30354,167.562 31.07767,167.216C31.88214,166.85646 32.64406,166.56186 33.41667,166.52083C34.27668,166.47516 35.47233,166.5 36.05367,166.5C37.10433,166.5 38.06517,166.5 39.04167,166.5C39.711,166.5 40.875,166.5 41.66433,166.5C42.38967,166.5 43.375,166.5 44.359,166.5C45.04967,166.5 46.11783,166.5 46.975,166.5C47.875,166.5 48.63217,166.5 49.53217,166.5C50.47633,166.5 51.4795,166.5 52.111,166.5C53.29617,166.5 54.08967,166.5 54.86517,166.5C55.90567,166.5 56.62317,166.5 57.52767,166.5C58.391,166.5 59.375,166.5 60.36167,166.5C61.12167,166.5 62.04167,166.5 62.83217,166.5C63.68567,166.5 64.875,166.5 65.47234,166.5C66.33334,166.5 67.10433,166.5 68.33334,166.5C69.1795,166.5 70.04678,166.4263 70.875,166.52083C71.86726,166.63408 72.66522,167.15544 72.85416,168C73.04845,168.86842 73.52136,169.3096 74.26434,169.936C74.89494,170.46768 75.11713,171.45378 75.52233,172.2C75.93562,172.96112 75.87566,173.89999 75.875,174.8C75.87433,175.70134 75.74464,176.68304 75.42834,177.336C75.145,177.92091 74.41499,178.92039 73.875,179.45833C73.38004,179.9514 72.34856,180.38954 71.5705,180.85716C70.94379,181.23383 70.2547,181.87003 69.359,182.21466C68.52451,182.53574 67.5535,182.5 66.66434,182.5C65.675,182.5 64.875,182.5 63.875,182.5C63.08567,182.5 62.36033,182.5 61.375,182.5C60.391,182.5 59.70033,182.49989 58.63217,182.5C57.77483,182.50009 56.98064,182.56134 56.04967,182.92534C55.35178,183.1982 54.39601,183.48958 53.475,183.5C52.57506,183.51018 51.675,183.5 50.775,183.5L49.875,183.5L49.075,183.5L48.175,183.5" id="svg_21" stroke-width="3" stroke="#000" fill="none"/>
  <path t="123195,123240,123241,123241,123290,123290,123290,123290,123290,123290,123290,123307,123308,123308,123308,123308,123308,123308,123308,123308,123330,123330,123330,123330,123330,123330,123330,123330,123330,123346,123346,123346,123347,123347,123347,123347,123358,123374,123391,123391,123392,123407,123407,123408,123425,123425,123474,123474,123491,123491,123508,123509,123509,123509,123524,123524,123524,123524,123524,123541,123541,123542,123542,123542,123542,123557,123558,123558,123558,123558,123558,123558,123574,123575,123575,123575,123575,123575,123575,123592,123592,123593,123593,123593,123593,123593,123593,123608,123608,123609,123609,123609,123609,123626,123627,123627,123641,123642,123642,123642,123659,123659,123675,123675,123675,123706,123725,123726,123742,123758,123758,123758,123758,123775,123775,123775,123775,123775,123775,123792,123792,123792,123792,123792,123808,123809,123809,123809,123809,123825,123825,123825,123842,123842,123842,123842,123858,123859,123859,123876,123876,123876,123876,123876,123892,123892,123893,123893,123893,123893,123894,123908,123908,123908,123909,123909,123909,123909,123909,123909,123924,123924,123924,123925,123925,123925,123925,123925,123925,123941,123941,123942,123942,123942,123942,123958,123959,123959,123959,123977,123977,123977,123992,124008,124025,124051,124051,124076,124076,124077,124093,124093,124123,124148,124148,124163,124273,124299,124311,124314,124315" d="M15.875,337.5C17.54117,336.77216 18.16629,336.1785 18.647,335.64133C19.53585,334.64807 19.8583,334.23007 20.23433,333.78351C21.12335,332.72775 21.65437,332.10629 22.25567,331.41483C22.9288,330.64075 24.53955,328.83142 25.48783,327.78732C26.50873,326.66327 27.58701,325.49026 28.69633,324.28934C29.81133,323.08228 30.91301,321.89673 31.97683,320.75534C32.97839,319.68076 34.70762,317.83267 35.3955,317.10117C35.96508,316.49545 36.42964,316.00269 36.807,315.61465C37.10246,315.31082 37.33199,315.08047 37.5165,314.92017C37.65451,314.80026 37.87333,314.66275 37.975,314.62149C38.07353,314.58148 38.17443,314.55426 38.275,314.53601C38.37452,314.51794 38.48472,314.39346 39.07367,314.50134C39.83424,314.64066 40.17165,315.69846 40.747,316.32535C41.25336,316.87708 42.06126,317.50076 42.675,317.86401C43.45851,318.32773 44.28786,318.67395 45.039,319.10001C45.87035,319.57153 46.59262,320.28873 47.53667,320.43832C48.32681,320.56354 49.29914,320.28729 50.13233,320.064C50.75947,319.89594 51.44414,319.68723 52.618,319.39984C53.4873,319.18701 54.41744,318.98233 54.89633,318.86401C55.8793,318.62115 56.8784,318.34384 57.87634,318.01468C58.38128,317.84811 59.39615,317.48001 59.911,317.28934C60.96099,316.90045 62.04063,316.4971 62.5965,316.30017C63.73008,315.89859 64.30952,315.70605 64.89584,315.52084C66.0766,315.14786 66.67289,314.97211 67.875,314.66666C68.47353,314.51459 69.67961,314.24869 70.28567,314.11465C70.89595,313.97968 72.13447,313.69897 72.76033,313.53067C74.04666,313.18472 74.69778,312.96204 75.35767,312.73199C76.02484,312.49939 76.68965,312.2493 78.01366,311.75067C78.66516,311.50531 79.29807,311.24579 80.54166,310.83334C81.69367,310.45126 82.24375,310.30478 83.27084,310.0625C83.74418,309.95084 84.61147,309.75204 85.71083,309.62167C86.5854,309.51794 87.38155,309.52515 88.5175,309.7215C89.17985,309.836 90.19739,310.08282 90.82166,310.30133C91.83706,310.65674 92.62202,311.25375 93.19633,311.82132C93.87901,312.49597 94.35026,313.05945 95.11784,313.73834C95.83915,314.37634 96.84226,314.58441 97.35416,313.91666C97.95203,313.13675 97.82142,312.12344 97.89584,311.41666C97.9788,310.62866 98.19772,309.33066 98.318,308.87866C98.56746,307.94122 98.91121,306.99789 99.09634,306.52533C99.4668,305.57968 99.86379,304.66147 100.27634,303.78665C100.6749,302.9415 101.10078,302.14063 101.33217,301.76166C102.01212,300.64807 102.53933,299.96902 103.111,299.35733C103.66592,298.76355 104.23522,298.20871 105.175,297.64316C106.0412,297.12189 106.6601,296.88693 107.875,296.66666C108.76709,296.50491 109.37484,296.51111 110.275,296.50134C111.47626,296.48834 112.08746,296.48279 113.03217,296.55716C114.04446,296.63684 114.76664,296.76703 115.52167,296.95734C116.32759,297.16046 117.172,297.44778 118.04166,297.83334C118.97615,298.24765 119.45125,298.51337 120.45834,299.08334C120.9967,299.38803 121.55222,299.72131 122.13233,300.07333C123.37763,300.82901 124.03891,301.24362 124.731,301.668C125.44589,302.10635 126.18107,302.55392 126.9375,303C127.70506,303.45264 128.48341,303.90396 129.27901,304.332C130.8651,305.18533 131.67119,305.56351 132.46967,305.92667C133.25398,306.28339 134.03021,306.61191 134.79167,306.91666C135.52899,307.21176 136.24431,307.48233 136.93367,307.72665C138.20467,308.17712 138.78714,308.36288 139.33366,308.52802C140.32773,308.82837 141.22746,309.06879 142.06967,309.21201C143.26891,309.41592 144.0656,309.45236 144.83333,309.47916C145.56041,309.50455 146.54167,309.5 147.59233,309.5C148.38699,309.5 149.57561,309.6286 149.86433,308.88934C150.19548,308.04147 149.81073,307.17355 149.911,306.28934C150.02438,305.28931 150.35616,304.47662 150.76167,303.98532C151.43236,303.17276 152.18108,302.81827 152.875,302C153.45793,301.31262 154.02109,300.80551 154.98967,300.58533C155.95392,300.36612 156.75349,300.7215 156.875,301.60001L156.875,302.5L156.70433,303.21466" id="svg_22" stroke-width="3" stroke="#000" fill="none"/>
  <path t="125308,125363,125380,125380,125396,125396,125396,125412,125412,125412,125412,125429,125429,125429,125429,125429,125447,125447,125447,125462,125462,125462,125482,125533,125533,125563,125563,125612,125612,125612,125612,125612,125630,125630,125630,125630,125630,125630,125630,125630,125630,125646,125646,125646,125646,125646,125646,125646,125662,125663,125679,125679,125679,125679,125695,125696,125696,125696,125696,125714,125714,125714,125714,125714,125714,125731,125731,125731,125731,125779,125779,125779,125830,125830,125846,125846,125846,125846,125846" d="M246.875,303.5C248.70033,303.51068 249.75819,303.58932 250.375,304.04166C251.11191,304.58206 251.70911,305.34988 252.33667,305.90451C253.02817,306.51563 253.83058,307.10898 254.41667,307.5C255.03044,307.90948 256.03979,308.50336 256.75766,308.89999C257.48776,309.30341 258.22397,309.68265 258.90567,310.10001C259.84686,310.67624 260.60117,311.29153 261.05368,311.664C261.87173,312.33734 262.73419,312.76273 263.30432,313.29868C263.96567,313.92035 264.06583,315.03876 264.48566,315.63867C265.06635,316.46841 265.86832,316.2706 266.65634,315.63733C267.25018,315.1601 267.98248,314.48581 268.44135,314.10068C268.95825,313.66684 270.20566,312.66318 270.9455,312.09384C271.7428,311.48026 272.58926,310.84668 273.46701,310.20532C274.35159,309.55899 275.23294,308.92975 276.0965,308.33484C276.91446,307.77133 278.36893,306.82297 278.98151,306.47198C279.50198,306.17377 279.95535,305.94495 280.35101,305.78799C280.6835,305.6561 280.9758,305.51523 282.07516,305.50034C282.89682,305.48923 284.05756,305.8017 284.55899,306.07333C285.40509,306.53171 285.97369,306.9765 286.70834,307.83334C287.2294,308.44107 287.65723,309.17831 288.10034,309.95734C288.33163,310.36395 289.03903,311.66815 289.29633,312.121C289.8223,313.04675 290.0903,313.51019 290.64966,314.40268C291.18155,315.25134 291.68256,316.02029 292.41785,316.9285C292.83969,317.44955 293.46851,318.1012 294.27368,318.89734C294.66187,319.28116 295.28873,320.41861 296.26035,320.36401C296.95526,320.32498 297.41785,319.17166 297.88483,318.375L298.13632,317.92667L298.66034,316.98001L298.92682,316.50168" id="svg_23" stroke-width="3" stroke="#000" fill="none"/>
 </g>
</svg>