<svg width="500" height="334.26183844011143" xmlns="http://www.w3.org/2000/svg" xmlns:svg="http://www.w3.org/2000/svg" xmlns:xlink="http://www.w3.org/1999/xlink">
 <!-- Created with SVG-edit - http://svg-edit.googlecode.com/ -->
 <g display="inline" class="layer">
  <title>Layer 1</title>
  <path t="0,188,204,204,221,221,237,253,269,293,293,301,317,333,373,453,485,501,557,557,607,674,674,710,710,718,726,734,750,933,949,966,966,974,982,982,990,998,1006,1014,1030,1038,1053,1107,1173,1188,1229,1245,1277,1293,1301,1317,1317,1325,1325,1333,1333,1349,1365,1413,1413,1437,1469,1517,1517,1533,1581,1621,1653,1707,1707,1723,1723,1757,1773,1789,1829,1977,1977,2021,2022,2053,2053,2069,2069,2085,2085,2085,2093,2093,2303,2356,2371,2397,2413,2429,2429,2437,2445,2453,2453,2461,2477,2477,2485,2493,2666,2722,2722,2738,2738,2765,2781,2797,2937,2937,2972,2988,3006,3014,3014,3022,3030,3038,3038,3046,3046,3054,3054,3070,3219,3254,3302,3310,3326,3342,3342,3358,3358,3365,3382,3382,3502,3502,3540,3556,3581,3581,3589,3589,3597,3597,3605,3605,3613,3613,3621,3621,3621,3629,3629,3637,3653,3893,3893,4113,4172,4172,4172,4188,4206,4222,4238,4261,4262,4403,4419,4419,4437,4445,4445,4461,4461,4461,4469,4469,4477" d="M140.01137,126.31274C140.17802,128.14607 141.01137,128.31274 141.76852,128.31274C142.66403,128.31274 143.52737,128.30716 144.49052,128.31274C145.41141,128.31808 146.11858,128.7657 147.01137,129.14607C147.76291,129.46626 148.81691,129.22159 149.4007,129.74873C150.08859,130.3699 150.36723,131.28415 151.31137,131.31274C152.21095,131.34 153.11136,131.31274 154.01137,131.31274C154.81137,131.31274 155.43604,131.57486 156.17802,132.14607C156.78214,132.61115 157.82233,132.77493 158.52736,133.02873C159.45338,133.36209 159.66989,134.00195 160.0322,134.7919C160.36732,135.52258 161.3571,135.84016 162.21136,136.22874C162.97447,136.57587 163.66933,137.0632 164.31137,137.60825C165.06607,138.24893 165.96106,138.22792 166.57536,138.9234C167.1644,139.59029 167.29187,140.71616 168.01137,141.14607C168.78183,141.60645 169.44774,141.9964 170.01154,142.53407C170.59557,143.09105 171.05907,143.67302 171.58603,144.33807C172.08223,144.96431 172.02661,145.90648 172.71587,146.3654C173.46928,146.86705 173.93425,147.61424 174.0127,148.51541C174.0797,149.28506 174.23656,150.10226 174.62202,151.02608C174.96002,151.83614 175.85022,151.90178 176.58603,152.34874C177.30298,152.78424 177.00594,153.96542 177.01137,154.82874C177.01671,155.67679 177.51187,156.53154 177.8447,157.31274C178.16489,158.06427 178.01137,159.01274 178.01137,159.91273C178.01137,160.81274 178.01071,161.70207 178.01137,162.59807C178.01204,163.51274 178.31219,164.36357 178.65869,165.01274C179.11205,165.86212 178.86928,166.82574 179.02203,167.71274C179.16551,168.54588 179.92346,169.29906 180.00687,170.01274C180.11133,170.90666 179.9095,171.90891 180.23286,172.75557C180.53197,173.53871 181.15189,174.26364 181.61136,174.97408C182.16159,175.82484 182.42744,176.55481 182.65421,177.3074C182.96283,178.3317 182.5437,179.29037 183.09669,180.0274C183.55898,180.64352 184.71136,180.31274 185.61136,180.31274C186.5322,180.31274 187.49536,180.31274 188.18604,180.31274C189.2542,180.31274 190.11136,180.31274 191.01137,180.31274C191.81137,180.31274 192.76852,180.31274 193.66403,180.31274C194.52736,180.31274 195.37537,180.31206 196.31137,180.31274C197.21136,180.31342 198.13736,180.50362 198.71136,181.01724C199.43547,181.66519 200.19611,182.03232 200.89003,182.53407C201.5916,183.04135 202.291,183.10361 203.11119,183.53424C203.75464,183.87207 204.015,184.9084 204.71587,185.3654C205.48906,185.86957 206.01494,186.54395 206.81137,187.0274C207.54498,187.47272 208.42018,187.73956 209.11136,188.41273C209.6179,188.9061 210.2845,189.65169 210.8967,190.11273C211.62529,190.66142 212.33498,191.20799 213.02603,191.87674C213.5522,192.38593 214.52759,192.15297 215.41136,192.32341C216.35419,192.50525 216.5618,193.57031 217.3447,194.14607C217.9146,194.56519 219.03552,194.47256 219.70686,195.01724C220.36588,195.55191 221.17644,196.1537 221.8367,196.2874C222.84241,196.49104 223.65193,196.79816 224.4007,197.2874C225.08836,197.73672 225.73048,198.23222 226.42036,198.3654C227.41859,198.55809 228.19325,198.89479 228.99004,199.41257C229.78282,199.92775 230.674,200.22672 231.41586,200.3654C232.42078,200.55327 233.01283,200.83054 234.01137,201.31274C234.81255,201.69965 235.39624,202.01854 236.41003,202.22874C237.16704,202.38571 238.04239,202.76312 239.01137,203.14607C239.80171,203.45844 240.64145,203.14752 241.51137,203.33357C242.36,203.51508 242.93521,204.40674 243.61136,204.87674C244.41716,205.43686 244.82089,205.95915 245.44736,206.70207C245.97902,207.33257 247.05388,207.127 247.81137,207.39807C248.71246,207.72054 249.20251,208.52173 249.81137,209.11273C250.52202,209.80254 251.32829,210.23473 252.05302,210.2919C253.17473,210.38039 253.95953,210.31274 254.75003,210.31274L255.67802,210.31274L256.59003,210.31274L257.51135,210.31274" id="svg_1" stroke-width="3" stroke="#000" fill="none"/>
  <path t="6971,7055,7070,7154,7223,7262,7294,7325,7325,7358,7382,7406,7406,7413,7446,7462,7515,7530,7557,7573,7589,7597,7606,7613,7613,7622,7629,7768,7823,7823,7839,7861,7869,7877,7893,7901,7901,7909,7917,7925,7933,7941,7941,7949,7957,7965,7973,7973,8013,8089,8133,8150,8150,8157,8165,8165,8173,8197,8197,8205,8205,8213,8213,8221,8229,8245,8269,8269,8277,8294,8325,8389,8421,8422,8437,8437,8469,8485,8486,8494,8501,8509,8534,8589,8622,8678,8694,8702,8710,8718,8734,8734,8742,8758,8766,8766,8782,8790,8790,8798,8951,8989,9005,9005,9022,9030,9046,9054,9070,9070,9086,9110,9158,9238,9238,9254,9301,9341,9389,9429,9488,9587,9587,9701,9803,9837,9885,9885,9933,9933,9941,9941,9949,10005,10038,10070,10086,10110,10166,10166,10285,10285,10370,10370,10439,10454,10470,11346,11389,11557,11589,11589,11597,11705,11720,11757,11757,11823,12077,12109,12109,12393,12456,12471,12533,12533,12699,12755,12853,12885,12893,12987,13040,13055,13106,13173,13173,13223,13269,13323,13497,13541,13621,13653,13669,13755,13821,13821,13837,13937,14160,14160,14176,14197,14213,14229,14229,14237,14237,14385,14385,14385,14401,14421,14445,14461,14469,14477,14477,14509,14525,14573,14623,14639,14662,14662,14670,14723,14766,14782,14789,14830,14846,14854,14854,14862,14878,14886,14909,14934,14942,14958,14974,14974,14982,14990,14998,15005,15023,15054,15070,15138,15138,15154,15154,15154,15182,15190,15206,15230,15238,15254,15270,15286,15302,15302,15334,15342,15358,15366,15366,15382,15390,15398,15406,15504,15541,15557,15565,15565,15605,15621,15629,15661,15705,15721,15742,15798,15798,15814,15830,15846,15862,15862,15878,15894,15910,15910,15927,15927,15934,15942,15958,15974,15974,15982,16044,16059,16059,16086,16109,16110,16126,16126,16134,16150,16157,16166,16173,16182,16190,16206,16214,16214,16246,16262,16278,16286,16286,16294,16302,16325,16326,16326,16342,16350,16366,16366,16397,16440,16485,16493,16525,16525,16549,16565,16573,16582,16613,16613,16621,16622,16629,16638,16661,16662,16669,16677,16687,16694,16694,16701,16711,16711,16725,16750,16757,16766,16773,16782,16782,16813,16821,16822,16837,16845,16853,16893,16956,16956,16972,16972,16990,17013,17029,17037,17045,17045,17077,17093,17109,17109,17125,17125,17165,17165,17181,17197,17197,17205,17213,17229,17237,17237,17253,17261,17262,17269,17269,17278,17295,17295,17309,17309,17318,17333,17334,17349,17365,17366,17405,17413,17413,17429,17461,17485,17501,17502,17517,17534,17534,17549,17565,17573,17573,17597,17597,17613,17613,17637,17637,17646,17653,17669,17685,17685,17693,17693,17717,17733,17734,17741,17750,17773,17821,17873,17927,17951,17951,17957,17998,18038,18038,18070,18086,18086,18102,18213,18273,18273,18370,18422,18445,18455,18477,18477,18493,18517,18518,18533,18534,18549,18653,18752,18797,18805,18822,18822,18845,18920,19005,19020,19037,19102,19118,19125,19158,19181,19182,19189,19190,19206,19223,19320,19358,19406,19454,19462,19463,19470,19494,19502,19518,19550,19684,19717,19789,19980,19980,20029,20082,20082,20082,20098,20126,20126,20379,20430,20430,20485,20533,20604,20638,20670,20694,20702,20718,20726,20742,20758,20766,20782,20782,20798,20814,20838,20838,20854,20870,20902,20971,21021,21022,21061,21085,21086,21095,21118,21134,21150,21189,21205,21214,21253,21254,21269,21309,21310,21325,21350,21373,21421,21430,21430,21445,21485,21517,21534,21581,21589,21589,21613,21630,21689,21689,21733,21733,21805,21805,21837,21847,21877,21886,21893,21918,21925,21941,21957,21966,21966,21981,22005,22037,22045,22122,22122,22137,22173,22198,22222,22253,22254,22270,22277,22302,22318,22325,22350,22374,22421,22422,22445,22477,22485,22517,22557,22613,22614,22630,22630,22677,22702,22702,22772,22787,22814,22814,22862,22886,22893,22910,22934,22966,22974,22990,23046,23046,23121,23121,23158,23191,23214,23214,23246,23304,23320,23389,23501,23539,23603,23603,23672,23739,23754,23805,23806,23821,23847,23922,24147,24147,24254,24306,24683,24683,24723,24758,24814,24838,24854,25124,25181,25504,25504,25566,25766,25900,25971,26039,26105,26105,26187,26187,26245,26245,26253,26353,26402,26549,26620,26661,26661,26701,26749,26773,26821,26954,27085,27085,27676,27676,27692" d="M252.01137,207.31274C252.01137,208.11407 252.01137,209.01274 252.01137,209.91273C252.01137,210.81274 252.02225,211.70187 252.58603,212.30208C253.0117,212.75525 253.06989,213.60643 253.58603,214.32741C254.03789,214.95857 254.32736,215.78397 254.65869,216.66006C254.99126,217.53943 255.63422,218.06258 255.99052,218.83357C256.3551,219.62248 256.41867,220.40511 257.06403,220.96007C257.64603,221.46053 258.59,221.7348 259.09537,222.48207C259.62625,223.26709 259.90509,224.13687 260.00687,225.00824C260.10773,225.87181 260.77649,226.27504 261.51135,226.83357C262.1752,227.33812 262.44913,228.13676 263.03671,228.87674C263.57431,229.55377 264.02029,230.16901 264.62204,230.91273C265.15042,231.56581 265.99948,232.2106 266.71136,232.30824C267.60391,232.43066 268.43121,232.72855 268.92737,233.5114C269.39343,234.24675 269.76077,234.93304 270.06403,235.60741C270.43762,236.43819 271.36176,236.83011 272.21136,237.22874C273.07178,237.63246 273.75937,237.97282 274.30685,238.61273C274.95038,239.3649 275.29532,240.06165 276.11136,240.53424C276.77792,240.92026 277.35574,241.84189 278.17804,242.14607C278.95224,242.43246 279.93579,242.32079 280.72571,242.66541C281.41733,242.96715 282.41827,243.18163 283.17535,243.33807C284.14023,243.53746 284.96432,243.77376 285.65421,244.3654C286.31384,244.93111 286.50174,245.92622 287.49536,246.22874C288.16431,246.43242 289.16565,246.54686 289.8447,247.14607C290.47812,247.70503 290.72333,248.73932 291.45419,249.19141C292.09784,249.58954 293.16302,249.5524 293.81003,250.11407C294.55759,250.76303 295.02951,251.51974 295.71136,251.95557C296.53534,252.48222 297.38672,252.77863 298.11121,253.19141C298.90298,253.64253 299.67743,254.12154 299.99054,254.83357C300.34039,255.62912 300.56219,256.25284 301.31137,256.66541C302.14993,257.1272 302.76028,257.59668 303.23288,258.41275C303.61887,259.07925 304.34604,259.81232 305.11136,260.19141C305.95813,260.61084 306.57178,260.96637 307.31137,261.60825C307.97803,262.18683 308.96481,262.22464 309.57538,262.9234C310.15762,263.58975 309.8797,264.66278 310.2327,265.41275C310.59772,266.18826 310.85861,267.03494 311.44736,267.70206C312.06064,268.39697 312.85864,268.71713 313.29538,269.51273C313.65115,270.16083 313.88889,271.14969 314.5322,271.7919C315.17114,272.42975 316.28348,272.40118 316.65869,273.01724C317.15735,273.83594 317.01135,274.81274 317.01135,275.71274C317.01135,276.61273 317.01135,277.51273 317.01135,278.41275C317.01135,279.31274 317.04874,280.11349 317.01135,281.01273C316.97531,281.879 316.02414,281.99579 315.25403,282.53424C314.67172,282.94138 314.14618,283.7254 313.40869,284.11273C312.62106,284.5264 311.82391,284.85275 311.12119,285.60825C310.53229,286.24136 310.08069,286.96851 309.49054,287.33356C308.77231,287.77786 308.42514,288.62534 307.7897,289.19141C307.27002,289.65436 306.19366,289.79178 305.41003,290.02875C304.43396,290.32391 303.65457,290.15448 302.64737,290.32339C301.77951,290.46893 301.22681,291.12991 300.5322,291.7919C299.91052,292.3844 299.18497,292.83408 298.17804,293.14606C297.44067,293.37451 296.51135,293.31052 295.61136,293.31274C294.71136,293.315 293.96683,293.62378 293.21136,294.02875C292.45541,294.43399 291.5856,294.72263 290.91153,295.41275C290.3461,295.99164 290.07657,296.84479 289.65869,297.61273C289.20111,298.45364 288.83783,299.35098 289.09671,300.11273C289.39847,301.00064 289.99335,301.70151 290.01135,302.59808C290.02969,303.51254 289.7551,304.53766 290.2327,305.19141C290.74341,305.89047 291.01135,306.51273 291.01135,307.41275C291.01135,308.31274 291.01135,309.11273 291.01135,310.01273C291.01135,310.91275 291.33527,311.94431 291.0007,312.73807C290.69092,313.47305 289.57538,313.31274 288.61136,313.31274C287.71136,313.31274 286.76291,313.46625 286.01135,313.14606C285.23019,312.81323 284.4101,312.39566 283.65421,311.96008C282.86566,311.50568 282.21136,311.31342 281.31137,311.31274C280.36853,311.31204 279.4697,311.31274 278.52603,311.31274C277.80069,311.31274 276.80872,311.26535 276.01135,311.33356C275.00446,311.41968 274.23752,311.78015 273.4967,312.02875C272.54889,312.3468 271.61136,312.31274 270.71136,312.31274C269.81137,312.31274 268.9101,312.26495 268.01135,312.31274C267.20798,312.35547 266.47421,313.05966 265.61136,313.27673C264.73785,313.49649 263.81137,313.31274 262.91138,313.31274C262.01135,313.31274 261.21136,313.31274 260.29669,313.31274C259.4007,313.31274 258.51135,313.31274 257.61136,313.31274C256.71136,313.31274 255.81137,313.31274 254.91136,313.31274C254.01137,313.31274 253.21136,313.31274 252.31137,313.31274C251.41136,313.31274 250.5322,313.31274 249.65421,313.31274C248.71136,313.31274 247.81137,313.31274 246.91136,313.31274C246.01137,313.31274 245.21136,313.31274 244.31137,313.31274C243.41136,313.31274 242.51137,313.31274 241.61136,313.31274C240.71587,313.31274 239.78987,313.31274 238.91136,313.31274C238.01137,313.31274 237.21136,313.31274 236.37537,313.31274C235.3587,313.31274 234.66403,313.31274 233.64737,313.31274C232.71136,313.31274 231.81137,313.31274 230.91153,313.31274C230.0367,313.31274 229.21004,313.31274 228.31137,313.31274C227.49052,313.31274 226.52736,313.31274 225.66403,313.31274C224.76852,313.31274 223.81137,313.31274 222.91136,313.31274C222.01137,313.31274 221.21136,313.31274 220.31137,313.31274C219.41136,313.31274 218.51137,313.31274 217.61136,313.31274C216.71136,313.31274 215.81137,313.31274 214.91136,313.31274C214.01137,313.31274 213.21136,313.31274 212.31137,313.31274C211.41136,313.31274 210.5322,313.31274 209.65421,313.31274C208.71136,313.31274 207.81137,313.31274 206.91136,313.31274C206.01137,313.31274 205.21136,313.31274 204.31137,313.31274C203.41136,313.31274 202.49052,313.31274 201.6902,313.31274C200.8727,313.31274 199.84337,313.31274 198.99052,313.31274C198.0327,313.31274 197.2587,313.31274 196.3587,313.31274C195.49536,313.31274 194.49551,313.37115 193.71136,312.96008C192.86345,312.51559 192.01137,312.31274 191.21136,312.31274C190.36853,312.31274 189.49052,312.31274 188.51137,312.31274C187.61136,312.31274 186.68781,312.38855 185.8447,312.14606C185.16464,311.95044 184.18849,311.41507 183.42203,311.32339C182.51727,311.21518 181.80745,310.77124 180.91153,310.43423C180.08485,310.12326 179.24677,310.3804 178.3632,310.30823C177.3353,310.22427 176.85706,309.39648 176.01137,309.31274C175.21526,309.23392 174.31131,309.32294 173.41136,309.31274C172.49034,309.30231 171.68405,309.10532 170.8727,308.73807C169.98975,308.33841 169.18628,308.28036 168.24336,308.02875C167.50597,307.83197 166.7972,307.49734 165.68336,307.34872C164.81824,307.23328 163.96053,307.0119 163.31137,306.66541C162.46199,306.21204 161.47662,306.36566 160.71136,305.96008C159.86546,305.51178 159.01137,305.31274 158.21136,305.31274C157.31137,305.31274 156.41135,305.31802 155.51137,305.31274C154.60065,305.3074 153.6913,305.08832 153.01137,304.81274C152.17955,304.47562 151.19102,304.72968 150.36853,304.25558C149.68156,303.85962 149.01097,303.3381 148.21136,303.31274C147.31001,303.28415 146.58502,302.64987 145.81137,302.39807C144.95155,302.11823 144.12604,302.31274 143.18604,302.31274C142.17802,302.31274 141.42203,302.31274 140.51137,302.31274C139.61136,302.31274 138.71136,302.31284 137.81137,302.31274C136.91136,302.31265 135.97948,302.18619 135.41136,301.70206C134.66602,301.06689 133.91899,300.37491 133.21136,300.31409C132.31468,300.23703 131.41135,300.31857 130.44736,300.31274C129.56465,300.3074 128.69286,300.08441 128.01137,299.81274C127.0368,299.42422 126.2127,299.31342 125.31136,299.31274C124.41136,299.31207 123.49826,299.45547 122.61137,299.30206C121.77791,299.1579 121.26727,298.45035 120.5322,297.83356C119.83752,297.25067 118.91119,297.31717 118.12603,297.31274C117.17532,297.3074 116.39336,297.28308 115.41586,296.96008C114.6531,296.70804 113.7168,296.49277 112.91136,296.0914C112.1442,295.70911 111.26322,295.33505 110.5322,294.81274C109.84989,294.32526 109.13233,293.90686 108.49403,293.51141C107.61028,292.9639 106.85313,292.41592 105.99053,292.33356C105.01558,292.24048 104.05141,292.6965 103.2542,292.09125C102.5536,291.55933 102.40094,290.64554 101.52737,290.39673C100.68671,290.15729 99.74883,289.97809 99.01137,289.31274C98.49716,288.84885 97.65875,288.48181 96.81136,288.02875C96.15936,287.68015 95.34843,287.36279 94.5287,287.0274C93.68665,286.68286 93.17741,285.80264 92.49053,285.31274C91.79271,284.81503 91.0117,284.31241 90.41136,283.71274C89.8117,283.11374 89.02324,282.41489 88.31136,282.31723C87.41881,282.19479 86.65584,281.75348 85.69003,281.43408C85.03548,281.21762 84.02079,281.11038 83.38603,280.70206C82.51015,280.13864 81.7944,279.77505 81.03303,279.21274C80.42009,278.76004 80.07716,277.74957 79.4007,277.28741C78.67004,276.78821 77.79899,276.43658 77.12603,276.22873C76.167,275.93253 75.4509,275.56989 74.64736,274.91275C73.97053,274.35922 73.47703,273.57376 72.61137,273.34872C71.73943,273.12207 70.93996,272.83942 70.1327,272.43423C69.46351,272.09836 68.5856,271.90289 67.91153,271.21274C67.3461,270.63382 67.13535,269.7449 66.6542,269.01273C66.13227,268.21851 65.36553,267.75546 64.71587,267.01273C64.13469,266.3483 64.37634,265.40173 63.9542,264.66989C63.48632,263.85876 62.76996,263.36237 62.36403,262.66989C61.92506,261.92105 62.01136,261.01273 62.01136,260.11273C62.01136,259.21274 61.84808,258.27789 62.0967,257.51273C62.35366,256.72183 62.88847,255.82144 63.0367,255.13808C63.24318,254.18619 64.05029,253.94633 64.72603,253.22874C65.34743,252.56885 65.5658,251.89511 66.23286,251.43423C66.96254,250.93011 68.14493,251.27393 68.6542,250.60825C69.17252,249.93073 69.547,249.22401 70.04736,248.73807C70.61403,248.18771 71.61138,248.31815 72.51137,248.31274C73.40074,248.3074 73.81622,247.66599 74.37303,247.01724C75.00358,246.28259 76.01117,246.32317 76.8447,246.31274C77.70679,246.30197 78.61137,246.31274 79.57536,246.31274C80.44736,246.31274 81.31136,246.31274 82.21136,246.31274C83.11137,246.31274 84.01177,246.33812 84.81136,246.31274C85.71272,246.28415 86.43373,245.62654 87.31136,245.3699C88.17693,245.11679 89.11236,245.35773 89.98603,245.31274C90.81599,245.27002 91.49167,244.77095 92.21136,244.11407C92.79588,243.58058 93.66169,243.33041 94.49536,243.02873C95.37614,242.71001 96.25897,242.41956 97.11137,242.31258C98.01952,242.19859 98.66871,241.75548 99.30686,241.01274C99.95197,240.26192 100.0107,239.51274 100.01137,238.61273C100.01203,237.71274 100.01137,236.81274 100.01137,235.91273C100.01137,235.01274 100.01137,234.11273 100.01137,233.21291C100.01137,232.2874 99.88683,231.53413 99.4367,230.71274C99.00912,229.93251 99.14791,228.9561 98.72736,228.11273C98.39744,227.4511 98.01362,226.61275 98.01137,225.67674C98.00933,224.82874 98.01144,223.96541 98.01137,223.0744C98.01128,222.0914 97.40115,221.57484 97.04736,220.87674C96.65646,220.10539 97.01137,219.11273 97.01137,218.21274C97.01137,217.31274 97.01137,216.51274 97.01137,215.61273C97.01137,214.71274 97.01137,213.81274 97.01137,212.83357C97.01137,211.95557 97.01137,211.11273 97.01137,210.21274C97.01137,209.31274 97.01137,208.51274 97.01137,207.55557C97.01137,206.66006 97.01137,205.79674 97.01137,204.83357C97.01137,204.01274 97.01137,203.11407 97.01137,202.14607C97.01137,201.31274 97.01137,200.51274 97.01137,199.61273C97.01137,198.71274 96.95846,197.778 97.36403,197.01274C97.81232,196.16685 97.83781,195.27449 98.09669,194.51274C98.39845,193.62483 98.99336,192.92392 99.01137,191.9794C99.02447,191.29202 98.92673,190.18239 99.09669,189.42874C99.27574,188.63484 99.84522,187.82141 99.99053,186.83357C100.11003,186.02122 100.01137,185.11273 100.01137,184.21274C100.01137,183.31274 100.49452,182.70555 100.92603,182.0274C101.4192,181.25235 101.01137,180.21274 101.01137,179.31274C101.01137,178.51274 101.00095,177.61267 101.01137,176.71274C101.02178,175.81256 101.36448,175.009 102.01137,174.31274C102.57187,173.70947 102.99336,172.92395 103.01137,172.0274C103.02973,171.11292 103.01137,170.21274 103.01137,169.31274C103.01137,168.51274 103.01137,167.61273 103.01137,166.71274C103.01137,165.81274 103.01137,164.91273 103.01137,164.01274C103.01137,163.11407 103.01137,162.22874 103.01137,161.31274C103.01137,160.51274 103.01137,159.61273 103.01137,158.71274C103.01137,157.81274 102.92966,156.90863 103.01586,156.00824C103.09946,155.13495 103.58835,154.33955 103.8447,153.4794C104.07923,152.69244 104.45977,151.88892 105.1112,151.21274C105.58454,150.72142 105.94615,149.7807 106.36403,149.01274C106.82161,148.17183 106.80127,147.47414 107.06853,146.61273C107.33721,145.74678 108.46008,145.52747 108.98603,144.87674C109.57884,144.1433 109.88258,143.31909 110.01137,142.43407C110.13257,141.60118 110.87041,141.08469 111.09537,140.42607C111.4194,139.47739 111.69208,138.69571 112.41136,137.95941C113.02293,137.33337 113.7492,136.95084 114.0367,136.16341C114.34019,135.33217 115.10374,134.90544 115.6587,134.26007C116.15916,133.67809 116.4452,132.63794 117.31136,132.3699C118.17287,132.1033 119.18253,132.65559 120.02203,132.30208C120.80406,131.97278 121.08625,130.9118 122.01137,130.4794C122.75142,130.1335 123.73112,130.46983 124.51137,130.2919C125.47338,130.07251 126.10509,129.37944 126.8967,129.31407C127.82296,129.23759 128.88847,129.11896 129.01137,128.31274C129.13193,127.52188 129.01137,126.61274 129.01137,125.71274C129.01137,124.81274 129.01137,123.91273 129.01137,122.92341C129.01137,122.0274 129.01137,121.21274 129.01137,120.31274C129.01137,119.51274 128.52695,118.44379 129.06853,117.66991C129.58214,116.93599 130.7243,117.4108 131.5322,117.29191C132.52003,117.14654 133.1655,116.675 134.12737,116.39674C134.88257,116.17826 135.82156,115.84843 136.52736,115.59674C137.47319,115.25945 138.21695,114.77562 139.11119,114.43423C139.8821,114.13993 140.86775,114.36583 141.01137,115.31274C141.13133,116.10369 141.01137,117.01274 141.01137,117.91273C141.01137,118.81274 141.01137,119.71274 141.01137,120.61274C141.01137,121.51141 141.01137,122.3654 141.01137,123.31274L141.01137,124.11274L141.01137,125.01274" id="svg_2" stroke-width="3" stroke="#000" fill="none"/>
  <path t="28927,29128,29220,29220,29278,29318,29403,29439,29439,29568" d="M128.01137,128.31274C128.29669,127.39674 129.03659,126.98067 129.72603,126.59674C130.47278,126.18089 131.41136,126.30207 132.31137,125.96008L133.01137,125.47941L133.81137,125.31407L134.71136,125.31274" id="svg_3" stroke-width="3" stroke="#000" fill="none"/>
  <path t="31208,31430,31446,31501,31518,31518,31525,31525,31541,31542,31542,31549,31549,31573,31638,31720,31736,31757,31757,31781,31789,31789,31821,31853,31955,31971,31971,31997,31997,32013,32029,32045,32061,32061,32085,32085,32125,32141,32237,32278,32310,32326,32350,32350,32389,32389,32404,32404,32404,32404,32446,32489,32505,32505,32541,32542,32589,32590,32630,32630,32662,32678,32678,32722,32737,32737,32737,32798,32838,32838,32886,32886,32886,32926,32933,32933,32958,32974,33006,33038,33054,33086,33086,33188,33203,33230,33230,33270,33278,33294,33442" d="M99.01137,170.31274C100.6587,170.3699 101.17829,170.91737 101.8902,171.53407C102.54484,172.10117 103.23265,172.3074 104.21136,172.31274C105.01135,172.31711 106.01243,172.28087 106.81136,172.32341C107.61371,172.36613 108.67242,172.55565 109.29704,173.01724C110.05804,173.57962 110.56217,174.25288 111.31136,174.66541C112.15006,175.12721 113.04326,175.43927 113.61137,175.9234C114.35672,176.55858 114.99876,177.22771 115.81136,177.3114C116.70663,177.40363 117.63139,177.31003 118.41136,177.73807C119.2331,178.18904 119.77265,178.67436 120.23286,179.41257C120.67997,180.12973 121.61137,180.30214 122.51137,180.31274C123.42204,180.32347 124.32987,180.54106 125.01137,180.81274C125.98593,181.20126 126.81003,181.31207 127.71136,181.31274C128.61136,181.31342 129.51137,181.31274 130.41136,181.31274C131.31137,181.31274 132.21268,181.36127 133.11153,181.31258C133.90015,181.26985 134.67316,180.96535 135.41586,180.60825C136.41643,180.12717 137.15752,179.69792 137.98987,179.43407C138.79581,179.17857 139.47713,178.67296 140.02037,177.96007C140.50195,177.32809 141.41475,177.38263 142.2587,176.95557C142.95135,176.60506 143.67677,176.0341 144.3587,175.61273C145.27675,175.04546 145.87346,174.49167 146.8367,174.34874C147.83441,174.2007 148.66971,174.39359 149.41136,173.87674C150.20285,173.32518 150.66354,172.51088 151.57536,172.32341C152.4402,172.1456 153.32599,172.07346 154.0322,171.81274C155.00253,171.45451 155.82178,171.4339 156.52603,171.22874C157.56085,170.92731 158.34961,170.23956 158.99052,169.81274C159.69807,169.34155 160.04488,168.53444 160.71587,168.25557C161.54955,167.90909 161.7765,166.92107 162.29669,166.11407C162.69206,165.50072 163.76646,165.34689 164.41136,164.87674C165.1909,164.30843 165.71136,163.66991 166.61136,163.32341L167.51137,163.31274L168.41136,163.30208L169.21004,163.02873" id="svg_4" stroke-width="3" stroke="#000" fill="none"/>
  <path t="35727,35991,35991,36023,36072,36109,36133,36165,36260,36318,36334,36334,36389,36422,36454,36520,36618,36654,36677,36693,36755,36899,36899,37034,37134,37134,37318,37326,37703,37912,37912,37972,37972,38085,38100,38100,38217,38254,38310,38448,38504,38504,38520,38520,38520,38542,38550,38550,38558,38558,38582,38582,38590,38598,38795,38795,38839,38855,38909,38987,38987,39021,39198,39198,39339,39339,39373" d="M180.01137,179.31274C180.01137,180.31274 180.01137,181.11273 180.01137,182.0274C180.01137,182.9234 180.01137,183.81274 180.01137,184.71274C180.01137,185.61273 180.01137,186.51274 180.01137,187.41273C180.01137,188.31274 180.01137,189.11273 180.01137,190.01274C180.01137,190.91273 180.01137,191.87674 180.01137,192.74873C180.01137,193.61273 179.86159,194.52533 180.01154,195.41257C180.15553,196.2646 180.96182,196.67398 181.01154,197.63391C181.05386,198.4511 181.50418,199.14665 182.21136,199.59807C182.87842,200.02386 183.55179,200.78008 183.95419,201.60825C184.28532,202.28973 185.17802,202.31274 186.01137,202.31274C186.8447,202.31274 187.49893,202.0248 188.23286,201.43407C188.8795,200.9136 189.80399,200.65604 189.99052,199.81274C190.18272,198.94385 190.56024,198.36639 191.41136,197.88741C192.13828,197.47832 192.90553,197.25215 193.8367,196.88741C194.53441,196.61411 195.49792,196.42343 196.42203,196.30208C197.3488,196.18037 197.97748,195.70959 198.9897,195.43423C199.70834,195.23874 200.5612,194.98338 201.3632,194.66541C202.23584,194.31943 203.11136,194.31274 204.01137,194.31274C204.81137,194.31274 205.83395,194.72397 206.65421,194.25557C207.46736,193.79123 207.97961,193.09494 208.61136,192.73807C209.45396,192.26208 210.29669,192.02608 210.8127,191.42607L211.31137,190.66457L211.71136,190.02257L212.49052,189.33357" id="svg_5" stroke-width="3" stroke="#000" fill="none"/>
  <path t="41057,41261,41261,41276,41318,41350,41366,41374,41421,41438,41505,41588,41630,41662,41686,41686,41702,41718,41750,41750,41766,41782,41798,41798,41830,41846,41878,41902,41902,41955,41955,41955,41970,41997,42014,42046,42069,42070,42117,42118,42141,42150,42173,42190,42206,42206,42229,42319,42372,42405,42421,42445,42453,42469,42469,42493,42501,42517,42572,42588,42638,42653,42702,42702,42718,42734,42774,42774,42798,42855,42855,42902,42902,42950,42950,42974,42990,43014,43046,43086,43086,43110,43134,43174,43254,43269,43318,43318,43342,43342,43358,43414,43414,43438,43446,43502,43586,43586,43602,43602,43621,43672,43717,43725,43725,43749,43867,43885,43886,43917,43987,44021,44022,44029,44120,44265" d="M183.01137,202.31274C183.01137,203.31274 183.01137,204.11273 183.01137,205.01274C183.01137,205.91273 183.01137,206.81274 183.01137,207.71274C183.01137,208.61273 183.01137,209.51274 183.01137,210.41273C183.01137,211.31274 183.06531,212.18896 183.51137,212.83357C184.02261,213.57237 184.39745,214.4511 184.72737,215.11273C185.14792,215.9561 185.01137,216.94875 185.01137,217.79674C185.01137,218.66006 184.89755,219.56252 185.0127,220.51274C185.12413,221.43234 185.86731,221.99107 186.01137,222.83357C186.15955,223.70016 185.93288,224.63707 186.17802,225.4794C186.42883,226.34119 186.92326,227.13495 187.00687,228.00824C187.09306,228.90863 187.01137,229.81274 187.01137,230.71274C187.01137,231.60825 186.96104,232.48077 187.01154,233.4129C187.05424,234.20152 187.41373,234.94614 187.72737,235.82874C188.02321,236.66125 188.01137,237.61273 188.01137,238.51274C188.01137,239.41273 188.01137,240.31274 188.01137,241.11273C188.01137,242.0274 188.01137,242.9234 188.01137,243.81274C188.01137,244.71274 188.01137,245.61273 188.01137,246.51274C188.01137,247.41273 188.01137,248.31274 188.01137,249.11273C188.01137,250.01274 188.01137,250.91273 188.01137,251.7919C188.01137,252.74873 188.01137,253.61273 188.01137,254.51274C188.01137,255.41273 188.01137,256.31274 188.01137,257.11273C188.01137,258.01273 188.03807,258.94919 188.01003,259.79675C187.98141,260.66141 187.67703,261.57556 187.01137,262.31274C186.52751,262.84857 185.87442,263.61462 185.5322,264.31274C185.13365,265.12576 185.01363,266.00824 185.01137,266.91275C185.00912,267.81274 185.10683,268.75726 184.72737,269.51273C184.29178,270.37994 184.44064,271.26627 183.92603,272.0274C183.47478,272.69479 182.27219,272.85687 182.04736,273.71274C181.81732,274.58844 181.88434,275.49704 181.57536,276.13806C181.07385,277.17856 180.45128,277.74869 180.09537,278.51273C179.69403,279.37424 179.40067,280.02899 178.98604,280.91275C178.60812,281.71826 177.76527,282.1127 177.01137,282.4794C176.24776,282.8508 175.45308,283.00519 174.62202,283.32339C173.87892,283.60794 173.78117,284.82367 172.91136,285.19122C172.07481,285.54471 171.22926,285.42722 170.44736,285.88739C169.66647,286.34698 168.79897,286.38898 168.0322,286.83356C167.19321,287.32001 166.85707,288.229 166.01137,288.31274C165.21526,288.39157 164.31137,288.31274 163.41136,288.31274L162.51137,288.31274" id="svg_6" stroke-width="3" stroke="#000" fill="none"/>
  <path t="47043,47181,47214,47222,47254,47305,47305,47342,47342,47366,47366,47374,47422,47454,47494,47555,47652,47668,47721,47819,47933,47933,48035,48087,48142,48182,48182,48198,48206,48206,48214,48214,48222,48222,48238,48481,48481,48517,48533,48541,48557,48573,48589,48589,48613,48621,48677,48733,48733,48850,48865,48893,48893,48901,48901,48901,48909,48917,48917,48925,48926,48933,48933,48941,48942,48957,48965,48965,48974,48981,49013,49071,49071,49086,49086,49110,49126,49142,49142,49166,49166,49214,49214,49238,49246,49262,49270,49286,49294,49294,49302,49318,49326,49326,49334,49405,49405,49405,49405,49420,49437,49445,49454,49461,49462,49462,49477,49478,49493,49494,49517,49542,49558,49574,49581,49589,49597,49605,49606,49606,49613,49621,49622,49629,49637,49638,49645,49661,49662,49669,49669,49677,49678,49685,49693,49725,49725,49734,49741,49742,49757,49765,49765,49773,49774,49781,49781,49789,49797,49797,49805,49813,49813,49814,49821,49822,49829,49837,49861,49862,49869,49869,49877,49893,49909,49917,49917,49934,49941,49957,49965,49965,49973,49981,49990,49990,49997,49997,50005,50013,50021,50029,50037,50038,50045,50053,50053,50061,50069,50077,50085,50085,50093,50094,50101,50102,50109,50110,50117,50117,50125,50126,50133,50133,50165,50189,50190,50205,50221,50270,50293,50301,50301,50309,50310,50317,50325,50342,50342,50342,50349,50349,50381,50382,50413,50453,50469,50477,50493,50517,50518,50565,50581,50590,50597,50613,50621,50799,50855,50870,50894,50894,50918,51222,51286,51333,51498,51498,51498,51514,51549,51549,51683,51683" d="M83.01137,242.31274C83.01137,244.01274 83.01137,244.91273 83.01137,245.81274C83.01137,246.7234 83.01197,247.63408 83.01137,248.48741C83.0107,249.42874 83.00601,250.23093 82.57536,251.12741C82.26525,251.77298 81.24229,251.87825 80.4367,252.34874C79.75458,252.74713 80.01137,253.91273 80.01137,254.81274C80.01137,255.71274 80.01137,256.61273 80.01137,257.51273C80.01137,258.41275 79.986,259.31314 80.01137,260.11273C80.03996,261.0141 80.44518,261.98758 81.31136,262.25558C82.17416,262.52255 82.89983,262.24597 83.8367,262.32339C84.85323,262.40738 85.46897,262.92319 86.3327,263.19141C87.15959,263.44818 88.16299,263.55243 88.81003,264.11407C89.53537,264.74368 90.28886,265.11252 90.92737,265.59674C91.61115,266.1153 91.95623,266.88464 92.62203,267.33807C93.34965,267.83359 93.80037,268.56638 94.2327,269.41275C94.56741,270.06805 95.14861,270.75452 95.72736,271.39673C96.31274,272.0463 97.01137,272.31274 97.81136,272.31274C98.71136,272.31274 99.43304,272.5788 100.17803,273.14606C100.72546,273.5629 101.77937,273.59674 102.51137,273.81274C103.24336,274.02875 104.34178,274.23737 105.32037,274.31723C105.98474,274.37143 107.01505,274.67102 107.7607,274.88739C108.67605,275.15298 109.50986,275.25159 110.49536,275.59674C111.20258,275.84442 112.12296,276.27002 113.01137,276.31274C113.81044,276.35117 114.83479,275.90002 115.6542,276.3699C116.34204,276.76434 117.01137,277.31085 117.76853,277.31274C118.65954,277.315 119.34485,277.5173 120.09403,278.02875C120.8243,278.52728 121.67315,278.66013 122.41586,279.01724C123.41643,279.49835 124.15752,279.92755 124.98987,280.19141C125.79581,280.4469 126.59332,280.92572 127.41136,281.28741C128.19582,281.63428 128.99922,282.22681 129.8447,282.31274C130.71225,282.40091 131.33582,282.55139 132.17937,283.02875C132.96167,283.47144 133.83636,283.49524 134.60069,283.88739C135.41351,284.30444 136.32986,284.54105 137.01137,284.81274C137.98592,285.20126 138.81003,285.31207 139.71136,285.31274C140.61136,285.31342 141.51508,285.24014 142.43269,285.32339C143.35416,285.40701 144.02847,285.63763 144.7607,285.9234C145.88884,286.36371 146.43851,286.92831 147.3327,287.19122C148.15826,287.43396 149.12469,287.31274 150.01137,287.31274C150.8127,287.31274 151.71136,287.3699 152.51137,287.81274C153.31137,288.25558 154.23462,288.21637 155.17802,288.4794C155.85966,288.66946 156.50302,289.14783 157.51137,289.2919C158.48572,289.43112 159.23314,289.21222 160.12604,289.59674C161.08298,290.00885 161.72301,290.19608 162.64737,290.34872C163.52036,290.49289 164.20276,290.9592 165.2112,291.19141C165.9798,291.36838 166.96091,291.5871 167.70686,291.96008C168.48523,292.34927 169.4007,292.31274 170.3447,292.31274C171.1967,292.31274 172.12729,292.26572 173.01137,292.31274C173.81477,292.35547 174.48059,292.96332 175.4967,293.22742C176.20241,293.41086 177.2112,293.31274 177.99052,293.31274C178.98987,293.31274 179.82047,293.2121 180.64737,293.34872C181.51907,293.49274 182.34644,293.99976 183.2587,294.26007C184.16754,294.51941 184.82907,294.79178 185.6127,295.02875C186.58876,295.32391 187.3542,295.30804 188.37537,295.31274C189.31587,295.31708 190.17802,295.4794 191.01137,295.81274C191.8447,296.14606 192.73384,296.12573 193.61136,296.34872C194.47366,296.56784 195.10524,297.25186 196.01137,297.31274C196.80957,297.36639 197.71136,297.31274 198.61136,297.31274C199.5322,297.31274 200.49536,297.31274 201.18604,297.31274C202.2542,297.31274 203.11136,297.31274 204.01137,297.31274C204.76852,297.31274 205.8367,297.31274 206.52736,297.31274C207.49052,297.31274 208.41136,297.31274 209.31137,297.31274C210.21136,297.31274 211.11153,297.31274 211.8967,297.31274C212.8367,297.31274 213.8447,297.31274 214.60069,297.31274C215.51137,297.31274 216.41547,297.23102 217.31587,297.31723C218.18915,297.40082 218.98401,297.89157 219.8447,298.14606C220.61879,298.37494 221.66853,298.31274 222.41586,298.31274C223.41003,298.31274 224.17654,298.2666 225.12869,298.31409C225.98376,298.35672 226.80089,298.53793 227.7247,298.9234C228.53476,299.26141 229.05727,300.16812 229.9287,300.31274C230.71049,300.4425 231.5287,300.31274 232.49052,300.31274C233.41136,300.31274 234.31137,300.31274 235.21269,300.31274C236.17802,300.31274 237.01137,300.31274 237.8447,300.31274C238.70686,300.31274 239.61604,300.23752 240.55302,300.33356C241.35382,300.41565 242.26717,300.75882 243.0632,300.96008C244.0833,301.21799 244.76425,301.29474 245.8447,301.31274C246.60059,301.32535 247.51137,301.31274 248.41136,301.31274C249.31137,301.31274 250.21136,301.31274 251.11136,301.31274C252.01137,301.31274 252.81137,301.31274 253.71136,301.31274C254.61136,301.31274 255.51137,301.31274 256.41138,301.31274C257.31137,301.31274 258.21136,301.31274 259.11121,301.31274C260.01135,301.31274 260.77304,301.31274 261.66403,301.31274C262.52737,301.31274 263.49054,301.31274 264.41138,301.31274C265.31137,301.31274 266.21136,301.31274 267.11136,301.31274C268.01135,301.31274 268.81137,301.31274 269.72604,301.31274C270.58203,301.31274 271.42038,301.31274 272.41003,301.31274L273.17535,301.31274" id="svg_7" stroke-width="3" stroke="#000" fill="none"/>
  <path t="54686,54815,54854,54870,54886,54894,54902,54918,54926,54934,54952,54958,54990,55014,55030,55133,55133,55149,55166,55166,55181,55197,55221,55237,55261,55277,55301,55301,55333,55333,55350,55374,55390,55390,55397,55445,55521,55565,55582,55590,55590,55597,55717" d="M269.01135,290.31274C270.01135,290.31274 270.81268,290.31274 271.71136,290.31274C272.61136,290.31274 273.51135,290.31274 274.41138,290.31274C275.31137,290.31274 276.21136,290.31274 277.11136,290.31274C278.01135,290.31274 278.92737,290.31274 279.72736,290.31274C280.62204,290.31274 281.51135,290.31274 282.41138,290.31274C283.31137,290.31274 284.29099,290.52188 285.11121,290.09125C285.75464,289.75342 285.94379,288.54385 286.71585,288.31723C287.5751,288.065 288.51135,288.315 289.41138,288.31274C290.31586,288.31049 291.17804,288.14606 292.01135,287.81274C292.8447,287.4794 293.73386,287.49969 294.61136,287.27673C295.47369,287.05762 296.1051,286.37946 296.8967,286.31409C297.82294,286.23761 298.53485,285.82217 299.29538,285.39807C300.06989,284.96619 301.11136,285.31274 302.01135,285.31274L302.81137,285.31274L303.71136,285.31274L304.61136,285.31274" id="svg_8" stroke-width="3" stroke="#000" fill="none"/>
  <path t="59171,59252,59286,59302,59326,59334,59388,59388,59388,59403,59403,59430,59470,59478,59534,59542,59566,59574,59574,59598,59646,59646,59678,59702,59718,59734,59819,59835,59861,59901,59949,59965,59965,59989,60013,60021,60037,60045,60061,60069,60085,60117,60157,60189,60254,60270,60301,60341,60342,60404" d="M222.01137,201.31274C223.58603,202.34874 224.0667,203.01575 224.51137,203.81274C224.95688,204.61124 224.83788,205.57002 225.17802,206.31274C225.54559,207.11534 226.45264,207.52461 226.89003,208.41273C227.21233,209.06717 227.66499,209.87314 228.30687,210.61273C228.88548,211.27942 228.6591,212.25421 229.06853,212.96007C229.53709,213.7679 229.98752,214.3131 230.01137,215.11273C230.03996,216.07118 230.39291,216.95386 230.65869,217.66006C230.99084,218.54263 230.88737,219.52135 231.01154,220.41257C231.12326,221.21445 231.9118,221.70444 232.43669,222.2874C232.96718,222.87659 233.60051,223.63066 233.88986,224.41273C234.205,225.26448 234.13565,226.09016 234.58603,226.91273C235.01332,227.69313 234.94051,228.66119 235.43669,229.2874C235.96367,229.95247 236.82945,230.30702 237.01003,231.11407C237.20944,232.00537 237.01137,232.9234 237.01137,233.81274C237.01137,234.71274 237.01137,235.61273 237.01137,236.51274C237.01137,237.41273 237.01137,238.31274 237.01137,239.11273L237.01137,240.01274" id="svg_9" stroke-width="3" stroke="#000" fill="none"/>
  <path t="61038,61197,61213,61245,61277,61368,61435,61470,61485,61494,61502,61502,61510,61518,61549,61558" d="M238.01137,231.31274C239.8447,231.31274 240.55301,230.84698 241.30687,230.3654C242.00676,229.9183 242.53201,229.32317 243.41136,229.31274C244.31131,229.30208 245.21136,229.31274 246.11136,229.31274C247.01137,229.31274 247.81137,229.31274 248.71136,229.31274L249.65421,229.31274L250.5322,229.31274L251.41136,229.31274" id="svg_10" stroke-width="3" stroke="#000" fill="none"/>
  <path t="63251,63520,63535,63566,63574,63574,63582,63590,63606,63606,63671,63737,63788,63870,63886,63909,63953" d="M230.01137,212.31274C231.81137,212.31274 232.61136,212.31274 233.5322,212.31274C234.49536,212.31274 235.18604,212.31274 236.2542,212.31274C237.11136,212.31274 238.01137,212.31274 238.81137,212.31274C239.8447,212.31274 239.89299,213.15433 240.5322,213.7919C241.17415,214.43221 242.21004,214.31407 242.92737,214.59674L243.44736,215.27673" id="svg_11" stroke-width="3" stroke="#000" fill="none"/>
  <path t="67707,68097,68113,68113,68113,68134,68157,68165,68165,68173,68409,68453,68478,68485,68494,68518,68541,68542,68712,68771,68787,68787,68805,68829,69106,69169,69169,69252,69397,69483,69502,69534,69558,69558,69598,69606,69733,69895,70046" d="M272.01135,290.31274C271.95871,291.66541 272.45749,292.29474 273.33252,292.31274C274.14984,292.32956 275.10672,292.39111 275.87271,292.73807C276.83295,293.173 277.62112,293.13925 278.51135,293.33356C279.35349,293.51736 279.95483,294.28857 280.01135,295.11407C280.07401,296.02924 280.86295,296.3251 281.51135,296.83356C282.27811,297.43481 282.65076,298.14471 283.06403,299.01273C283.46249,299.84964 284.03131,300.51697 284.71136,300.95557C285.57535,301.51279 286.15091,302.13748 286.87271,302.27673C287.82776,302.46097 288.71652,302.35327 289.49054,302.81274C290.30591,303.29678 290.83615,303.79944 291.5322,304.31274C292.22052,304.82037 293.14459,305.10077 293.81137,305.39673C294.66913,305.77747 295.4007,306.28741 296.01135,306.83356L296.36404,307.61273L296.88986,308.41275" id="svg_13" stroke-width="3" stroke="#000" fill="none"/>
  <path t="72441,72502,72510,72526,72542,72550,72590,72638,72654,72721,72771,72786,72786,72805,72829,72845,72853,72870,72870,72921,72937,72987,73288,73303,73334,73341,73342,73358,73366,73382,73390,73631,73631,73646,73670,73678,73678,73687,73693,73702,73702,73709,73718,73718,73725,73725,73734,73750,73899,73954,74005,74045,74104,74104,74154,74238,74238,74238,74270,74294,74310,74310" d="M314.01135,283.31274C314.01135,285.01273 314.01135,285.91275 314.01135,286.81274C314.01135,287.71274 314.01074,288.61273 314.01135,289.51273C314.01202,290.51141 314.45932,291.06317 314.98602,291.74875C315.48816,292.40237 315.9006,293.30319 316.01004,294.11273C316.13086,295.0065 316.62949,295.62308 316.92603,296.51273C317.21191,297.37039 316.98596,298.31314 317.01135,299.11273C317.03995,300.0141 317.46487,300.84073 317.95871,301.60825C318.40677,302.3046 319.50763,302.02838 320.0127,302.59808C320.57239,303.22943 320.82794,303.99075 321.61136,304.33807C322.42905,304.70059 323.216,305.18781 324.11136,305.3129C325.01782,305.43954 325.55026,306.06839 326.51135,306.2919C327.3989,306.49829 328.33997,306.51709 328.99054,306.81274C329.91269,307.23181 330.65802,307.31274 331.66403,307.31274C332.3587,307.31274 333.41122,307.23166 334.3327,307.53424C335.03741,307.76563 335.81622,308.3537 336.49054,308.7919C337.28104,309.3056 338.21136,309.31274 339.11121,309.31274C340.03671,309.31274 341.01321,309.80481 341.72604,309.22742C342.47058,308.62436 341.94568,307.38757 342.5322,306.83356C343.26584,306.14056 344.22687,306.04489 344.81137,305.51141C345.53107,304.85452 346.21271,304.39807 347.17804,304.31274L348.01135,304.31274" id="svg_14" stroke-width="3" stroke="#000" fill="none"/>
  <path t="77053,77182,77222,77299,77368,77383,77406,77406,77414,77454,77462,77582,77730,77746,77746,77766,77774,77782,77790,77798,77798,77814,77830,77830,77846,77919,77973,77973,77981,77989,78005,78021,78021,78045,78045,78069,78109,78109,78125,78133,78141,78141,78149,78157,78157,78189,78197,78197,78197,78205,78205,78213,78237,78261,78285,78317,78325,78349,78357,78397,78429,78437,78469,78517,78525,78619,78701,78785,78884,78936,78936,79034,79133,79341" d="M247.01137,208.31274C247.92737,208.02873 248.36723,207.34134 249.30687,207.31274C250.17763,207.28625 251.11136,207.31274 252.01137,207.31274C252.81137,207.31274 253.71136,207.31274 254.61136,207.31274C255.51137,207.31274 256.41138,207.31274 257.31137,207.31274C258.21136,207.31274 259.32303,206.75652 259.97537,207.32341C260.57916,207.84811 260.62375,208.89496 260.98602,209.71274C261.33362,210.49739 261.81235,211.11307 262.51135,211.81274C263.11105,212.41302 263.77246,212.95744 264.4007,213.71274C264.94681,214.36928 264.98596,215.31314 265.01135,216.11273C265.03995,217.0141 265.58496,217.77582 265.95871,218.61273C266.30359,219.38506 266.75089,220.04724 267.21002,220.79541C267.69208,221.58089 268.3107,222.11041 269.11121,222.53424C269.75348,222.87428 269.85767,224.03578 270.44736,224.70207C271.06259,225.39722 271.8967,225.31207 272.8367,225.31274C273.8447,225.31346 274.70688,225.31267 275.55304,225.31274C276.55402,225.31284 277.26785,225.26598 278.00604,225.3699C279.05392,225.51743 279.42963,226.29984 280.09537,227.0274C280.64001,227.62263 281.75259,227.85634 281.97537,228.71274C282.20212,229.58444 281.84854,230.61337 282.36404,231.26007C282.84775,231.86688 283.0087,232.67096 283.51135,233.31274C283.99387,233.92882 284.00909,234.81274 284.01135,235.71274C284.01361,236.60826 284.55206,237.18738 285.01135,237.83357C285.50684,238.53069 285.95047,239.40662 286.01135,240.31274C286.06497,241.11093 286.09671,242.0274 286.92737,242.31407L287.51135,242.83357" id="svg_15" stroke-width="3" stroke="#000" fill="none"/>
  <path t="82978,83223,83223,83254,83285,83293,83309,83317,83325,83341,83373,83374,83413,83534,83582,83582,83598,83646,83678,84267,84267,84303,84303,84542,84590,84622,84936,85018,85018,85069" d="M153.01137,208.31274C152.01137,208.31274 151.21136,208.31274 150.29669,208.31274C149.4007,208.31274 148.51137,208.31274 147.61136,208.31274C146.71136,208.31274 145.81137,208.31274 144.91136,208.31274C144.01137,208.31274 143.17439,208.10828 142.31137,208.3699C141.42648,208.63817 140.89,209.6203 140.21136,210.0274C139.47542,210.46889 138.70181,210.93365 137.81003,211.2274C136.88957,211.53059 136.18604,211.31274 135.17802,211.31274C134.31587,211.31274 133.41136,211.31274 132.51137,211.31274C131.61136,211.31274 130.71587,211.31274 129.8447,211.4794L129.30687,211.96007L128.36853,212.30824" id="svg_16" stroke-width="3" stroke="#000" fill="none"/>
  <path t="86182,86378,86378,86394,86413,86421,86421,86429,86437,86445,86445,86453,86461,86477,86485,86501,86525,86979,86995,87085,87085,87215,87230,87569,87606" d="M150.01137,197.31274C149.01137,197.31274 148.21136,197.31274 147.31137,197.31274C146.37537,197.31274 145.52736,197.31274 144.66403,197.31274C143.64737,197.31274 142.81003,197.31274 141.8447,197.31274C141.0322,197.31274 140.1212,197.31274 139.30687,197.31274C138.41136,197.31274 137.51137,197.31274 136.61136,197.31274C135.71136,197.31274 134.81137,197.31274 133.91136,197.31274C133.01137,197.31274 132.21136,197.31274 131.31137,197.31274L130.36853,197.31274L129.49052,197.31274L128.60069,197.31274" id="svg_17" stroke-width="3" stroke="#000" fill="none"/>
  <path t="92216,92472,92487,92526,92542,92550,92582,92614,92614,92654,92678,92686,92815,92854,92903" d="M151.01137,182.31274C149.4007,182.31274 148.51137,182.31274 147.61136,182.31274C146.71136,182.31274 145.81137,182.31274 144.91136,182.31274C144.01137,182.31274 143.21136,182.31274 142.31137,182.31274C141.41136,182.31274 140.44736,182.31274 139.57536,182.31274L138.71136,182.31274L137.81137,182.31274" id="svg_18" stroke-width="3" stroke="#000" fill="none"/>
  <path t="94372,94483,94498,94498,94518,94534,94550,94590,94734,94750,94803,94819,94819,94869,94869,94869,94885,94885,94902,94910,94918,94934,94966,95006,95070,95070,95135,95151,95174,95174,95214,95222,95254,95278,95278,95294,95353,95353,95398,95398,95438,95446,95446,95454,95478,95510,95510,95518,95542,95574,95574,95590,95590,95606,96435,96470,96486,96486,96717,96784,96829,96869,96951,97034,97078,97136,97250,97266,97318,97318,97589,97604,97622,97622,97646,97678,97702,97718,97734,97742,97758,97766,97766,97774,97822,97862,97886,97918,97942,97950,97974,97974,97990,98022,98078,98094,98110,98150,98203,98219,98219,98245,98317,98380,98380,98498,98536,98536,98551,98606,98646,98686,98686,98702,98718,98770,98770,98822,98878,98894,98894,98903,98903,98919,98934,98941,98950,98950,98957,98966,98966,98973,99052,99052,99118,99181,99205,99221,99229,99253,99285,99384,99384,99498,99617,99717,100051,100051,100260,100318,100350,100389,100467,100565,100565,100565,100619,100654,100719,100719,100802,100802,100802,100869,100902,100902,100941,100941,100973,100981,100981,101014,101021,101047,101069,101077,101093,101109,101125,101150,101197,101197,101221,101269,101285,101302,101326,101349,101365,101389,101389,101405,101421,101437,101453,101503,101503" d="M130.01137,185.31274C129.95419,187.0699 129.62981,187.95386 129.36403,188.66006C129.03188,189.54263 129.01137,190.51274 129.01137,191.41257C129.01137,192.31274 129.40367,193.24426 128.92603,194.0274C128.4359,194.83101 128.16853,195.45058 127.92603,196.11273C127.5969,197.01143 126.80681,197.50822 126.21136,198.11273C125.52692,198.80759 125.13474,199.66397 124.58603,200.2874C124.07161,200.87186 123.34676,201.24707 122.62203,201.73807C121.83112,202.27391 120.98369,202.55403 120.3447,203.31274C119.84772,203.90283 120.08868,204.98027 119.57536,205.71274C119.02171,206.50276 118.21861,206.96518 118.0322,207.81274C117.83876,208.69228 117.60249,209.44005 117.17803,210.31274C116.81136,211.06665 116.3999,211.84248 115.79003,212.53441C115.33524,213.05038 115.16491,213.98755 114.92737,214.82874C114.67784,215.71234 113.81047,216.33484 113.36853,217.01274C112.89006,217.74666 112.65826,218.61649 112.01137,219.31274C111.45087,219.91602 111.1618,220.72525 111.00687,221.61273C110.84458,222.54236 110.24277,223.18414 110.06403,223.96541C109.8691,224.81747 109.39408,225.59084 109.09669,226.51274C108.81915,227.37311 109.01137,228.31274 109.01137,229.11273C109.01137,230.01274 109.40868,231.01486 108.97536,231.87674C108.64435,232.53514 107.41336,232.6413 107.09669,233.51274C106.78799,234.36227 106.56676,235.05193 106.06403,235.66991C105.49176,236.37337 104.89026,236.92635 104.2967,237.39674C103.55812,237.98207 102.91136,238.31274 102.01137,238.31274C101.21136,238.31274 100.2967,238.31274 99.4007,238.31274C98.51137,238.31274 97.61137,238.31274 96.71136,238.31274C95.81136,238.31274 94.91136,238.31274 94.01137,238.31274C93.21136,238.31274 92.31136,238.31274 91.41136,238.31274C90.5322,238.31274 89.6542,238.31274 88.71136,238.31274C87.81136,238.31274 86.91136,238.31274 86.01137,238.31274C85.21136,238.31274 84.31136,238.31274 83.41136,238.31274C82.51137,238.31274 81.61137,238.31274 80.71587,238.31274C79.78986,238.31274 78.91136,238.31274 78.01137,238.31274C77.21136,238.31274 76.30289,238.21408 75.49053,238.33357C74.50269,238.47888 73.84844,238.92166 72.8967,239.22874C72.02102,239.51129 71.22173,239.80675 70.5322,240.31274C69.87169,240.79744 69.63857,241.86783 68.69003,242.19124C68.04065,242.41264 67.03303,242.31274 66.09537,242.31274C65.30686,242.31274 64.36423,242.3672 63.9587,243.01724C63.46444,243.80949 62.68846,244.41008 62.01136,244.81274C61.17608,245.30948 60.34774,245.71965 60.06853,246.60825C59.79047,247.49319 59.56941,248.09831 58.8127,248.59807C58.20377,249.00021 58.06143,249.97569 57.72603,250.79541C57.3815,251.63747 56.51728,252.03476 55.79003,252.53424C55.16177,252.96573 55.38488,254.11488 54.97536,254.87674C54.58332,255.60611 53.55889,255.85034 53.06403,256.60825C52.60997,257.30365 52.04908,257.91733 51.30603,258.26456C50.61883,258.58569 50.10169,259.31616 50.01136,260.2514C49.93693,261.02216 49.33772,261.68689 48.49403,262.0274C47.56368,262.40289 46.62059,262.60095 46.17803,263.31274C45.67087,264.12845 45.19709,264.64386 44.79003,265.41275C44.389,266.17026 44.02026,266.93079 43.58603,267.71274C43.13042,268.5332 42.78447,269.40903 42.4007,269.94873C41.80289,270.78946 41.62314,271.7309 40.71587,272.19839C39.93482,272.60086 39.01207,272.48041 38.37537,272.9234C37.5283,273.51276 36.87434,274.00204 35.8967,274.22742C35.02999,274.42722 34.23149,274.43262 33.41137,274.88739C32.62914,275.32114 31.90536,275.76855 31.01136,276.14606C30.22847,276.47665 29.67306,276.95648 28.71136,277.25558C27.85024,277.52341 26.91137,277.31274 26.01136,277.31274C25.21136,277.31274 24.31137,277.31274 23.41137,277.31274C22.51136,277.31274 21.61136,277.31274 20.71586,277.31274C19.8447,277.31274 18.91137,277.31274 18.01136,277.31274C17.21136,277.31274 16.28487,277.129 15.41136,277.34872C14.54853,277.56577 13.91136,278.19122 13.01136,278.31274L12.21136,278.31274" id="svg_19" stroke-width="3" stroke="#000" fill="none"/>
  <path t="105438,105658,105694,105710,105718,105734,105786,105786,105786,105801,105801,105822,105886,105886,105987,106036,106036,106085,106109,106133,106173,106205,106205,106268,106319,106350,106374,106434,106450,106470,106470,106494,106503,106534,106550,106574,106598,106598,106622,106669,106753,106806,106846,106902,106942,106942,106950,107003,107046,107070,107070,107086,107094,107134,107134,107219,107269,107284,107352,107398,107398,107438,107454,107510,107566,107635,107650,107670,107694,107742,107766,107866,107893,107933,107933,107965,107981,107997,108013,108030,108037,108061,108101,108101,108125,108133,108157,108189,108197,108197,108205,108253,108277,108301,108333,108365,108450,108502,108502,108518,108518,108549,108573,108598,108614,108614,108646,108702,108734,108758,108758,108818,108854,108854,108902,108969,108984,109006,109014,109133,109133,109252,109294,109302,109366,109382,109390,109397,109429,109502,109502,109517,109549,109558,109590,109606,109614,109614,109630,109646,109662,109678,109678,109718,109742,109758,109758,109774,109774,109782,109798,109798,109852,109918,109918,109933,109982,109998,110014,110014,110030,110062,110070,110086,110134,110134,110150,110150,110158,110206,110230,110246,110253,110254,110270,110286,110302,110319,110334,110358,110358,110374,110374,110398,110414,110422" d="M138.01137,182.31274C137.92603,183.11407 137.34047,183.77866 136.62202,184.2874C135.96599,184.75195 136.12466,185.81406 135.5687,186.41273C134.97963,187.04706 134.29747,187.57304 133.78987,188.41273C133.39139,189.07191 132.61137,189.71274 132.01137,190.31274C131.41136,190.91275 130.54559,191.51013 130.17802,192.31274C129.83789,193.05545 130.02179,194.0128 130.01137,194.91273C130.00095,195.81293 129.48418,196.52219 129.13286,197.41273C128.87222,198.07343 129.01137,199.01274 129.01137,199.91273C129.01137,200.81274 129.01207,201.7919 129.01137,202.66991C129.0107,203.51274 128.68523,204.3494 128.29536,205.11273C127.91083,205.86563 128.01137,206.81274 128.01137,207.71274C128.01137,208.61273 128.17505,209.57004 127.79003,210.41273C127.48423,211.08205 127.00505,211.90431 126.30686,212.3654C125.55156,212.86421 125.03996,213.61137 125.01137,214.51274C124.98283,215.41228 125.17951,216.34918 124.92603,217.11273C124.66969,217.8849 124.10969,218.76653 123.57536,219.29807C122.89436,219.97552 122.47903,220.51071 122.09537,221.42607C121.75381,222.24095 120.75486,222.40392 120.2967,223.11407C119.83884,223.82376 120.00513,224.92032 119.30686,225.3654C118.6372,225.79225 118.0006,226.53152 117.31136,226.95557C116.48997,227.46092 115.59399,227.40222 114.98603,227.88741C114.36153,228.38579 113.41135,228.30734 112.51137,228.31274C111.62199,228.31808 111.07051,229.07489 110.29536,229.3114C109.4389,229.57272 108.66563,229.84016 107.81136,230.22874C107.04826,230.57587 106.35876,231.1129 105.51137,231.2919C104.63056,231.47795 103.66119,231.2397 103.0367,231.73807C102.42873,232.22325 101.50387,232.19748 100.62203,232.31274C99.7682,232.42435 99.2384,233.146 98.31136,233.30824C97.42393,233.46355 96.69927,233.92563 95.81136,234.2274C95.04962,234.48628 94.23151,234.43263 93.41136,234.88741C92.62915,235.32115 91.90723,235.77301 91.01137,236.14607C90.18575,236.48988 89.31027,236.37653 88.6007,236.73807C87.69431,237.19991 86.96479,237.16264 86.03287,237.53407C85.25813,237.84286 84.38793,238.2943 83.61137,238.73807C82.88728,239.15186 82.05567,239.55135 81.31136,239.96007C80.56903,240.36769 79.48394,240.14362 78.8127,240.59807C78.02122,241.13393 77.87057,242.14856 76.99053,242.2919C76.0451,242.44589 75.2127,242.31274 74.31136,242.31274C73.41136,242.31274 72.45629,242.01511 71.62203,242.32341C70.87564,242.59924 70.87129,243.90855 70.01137,244.2919C69.27921,244.61829 68.31136,244.31274 67.41136,244.31274C66.51137,244.31274 65.61137,244.31274 64.71136,244.31274C63.81136,244.31274 62.91137,244.31274 62.01136,244.31274C61.21136,244.31274 60.29664,244.30226 59.4007,244.31274C58.51118,244.32317 57.80806,244.85593 56.91137,245.19124C56.06073,245.50932 55.21136,245.31274 54.31136,245.31274C53.41137,245.31274 52.49053,245.31274 51.6902,245.31274C50.8727,245.31274 49.78986,245.31274 48.91137,245.31274C48.01136,245.31274 47.2542,245.31274 46.3587,245.31274C45.49537,245.31274 44.51136,245.31274 43.69003,245.31274C42.8367,245.31274 41.88726,245.17685 40.91153,245.31291C40.10978,245.42471 40.40304,246.69174 39.72603,247.2274C39.08365,247.73567 38.05308,247.54668 37.31136,247.96007C36.54768,248.38571 35.75252,248.73409 34.91153,249.19141C34.16389,249.59796 33.56239,250.16315 32.82603,250.33807C31.88749,250.56104 31.17328,250.92337 30.2967,251.3114C29.53035,251.65063 28.81439,252.27002 27.91137,252.31274C27.01237,252.35527 26.21136,252.31274 25.31137,252.31274C24.41137,252.31274 23.4766,252.25978 22.71136,252.66541C21.86543,253.11382 21.04671,253.54062 20.37536,253.88741C19.5643,254.30637 18.7212,254.3654 17.9967,254.88741L17.30686,255.30824L16.41137,255.31274" id="svg_20" stroke-width="3" stroke="#000" fill="none"/>
  <path t="115143,115249,115249,115264,115264,115302,115309,115309,115326,115333,115357,115374,115381,115381,115398,115421,115485,115500,115518,115534,115558,115566,115574,115574,115614,115630,115646,115662,115662,115678,115678,115686,115702,115726,115726,115786,115801,115801,115822,115838,115854,115877,115877,115901,115902,115934,115957,116002,116002,116037,116045,116118,116181,116181,116197,116213,116221,116237,116253,116261,116277,116317,116317,116341,116341,116357,116381" d="M107.01137,170.31274C107.01137,169.31274 107.00645,168.53232 107.36853,167.66006C107.66628,166.94275 108.43185,166.14468 108.8447,165.31274C109.17078,164.65564 109.69839,163.89102 109.9542,163.01724C110.21487,162.12685 109.78834,161.1409 110.17803,160.31274C110.5349,159.55435 111.73133,159.44626 112.00687,158.66541C112.29753,157.84167 111.91736,156.86565 112.36403,156.01274C112.75797,155.26051 113.36808,154.70045 113.92737,154.0274C114.4833,153.3584 114.78233,152.64822 115.36403,151.95557C115.9493,151.25865 116.4033,150.53981 117.01137,149.9794C117.62759,149.41148 117.78469,148.30013 118.06403,147.61723C118.40965,146.77234 119.54974,146.53276 119.92603,145.74341C120.26455,145.03331 119.78828,143.97081 120.2967,143.11407C120.66911,142.48653 121.71265,142.22641 121.98603,141.46207C122.30242,140.57745 123.17439,140.28391 123.6542,139.55107C124.16846,138.76564 124.10491,137.76015 124.86203,137.37407C125.70799,136.94269 126.24166,136.35242 126.6587,135.61273C127.07874,134.86772 127.68684,134.39322 128.41136,133.87674C129.19691,133.31676 129.71053,132.66803 130.51137,132.31274C131.31055,131.95819 132.23915,131.63945 132.89003,131.0914C133.55228,130.53378 134.21513,130.39487 135.11136,130.31258C136.02281,130.2289 136.64737,129.70207 137.49536,129.11407L138.18604,128.74873L139.12469,128.39807L139.95869,128.30824" id="svg_21" stroke-width="3" stroke="#000" fill="none"/>
  <path t="118782,118929,118929,118929,118929,118944,118944,118944,118944,118944,118965,118965,118965,118973,118973,118981,118997,118997,118997,118997,119005,119013,119013,119045,119053,119061,119078,119102,119102,119110,119126,119134,119135,119174,119182,119214,119268,119302,119326,119374,119382,119406,119608,119623,119816,119816,119852,119867,119886" d="M119.01137,172.31274C120.23303,171.43407 121.18682,171.16696 121.84737,170.87674C122.62379,170.53561 123.39059,170.05872 124.24737,169.74873C125.15842,169.41911 125.96567,169.38104 126.78603,169.2874C127.8472,169.16626 128.58191,169.02191 129.3497,168.60825C130.30089,168.09578 130.78983,167.53107 131.71936,167.2874C132.7583,167.01506 133.36902,166.95854 134.33536,166.73807C134.95914,166.59575 136.13846,166.34134 137.01137,166.31274C137.81094,166.28654 138.83479,166.72545 139.65421,166.25557C140.34203,165.86115 140.90657,165.25198 141.66403,164.96007C142.53804,164.62325 143.41991,164.43883 144.21136,164.02873C145.07301,163.58228 145.81137,163.31342 146.71136,163.31274C147.61136,163.31209 148.56334,163.60184 149.4007,163.30208C150.13745,163.03833 150.62198,162.31808 151.51137,162.31274C152.41135,162.30734 153.31137,162.31274 154.21136,162.31274C155.11136,162.31274 156.01137,162.31274 156.81137,162.31274L157.71136,162.31274L158.61136,162.31274L159.57536,162.31274" id="svg_22" stroke-width="3" stroke="#000" fill="none"/>
  <path t="121551,121849,121865,121909,121957,121965,121981,121981,121989,122029,122045,122045,122179,122194,122282,122282,122317,122317,122334,122365" d="M186.01137,181.31274C187.8447,181.4794 188.24802,182.11037 189.09537,182.31274C189.95045,182.51697 190.41576,183.16002 191.21136,183.59674C191.85948,183.95251 192.49919,184.59972 193.23286,185.19141C193.87898,185.71249 194.66862,185.87007 195.30687,186.61273C195.95204,187.36345 196.40887,187.98235 196.92737,188.59807C197.48776,189.26355 197.72737,190.11273 198.0367,190.91273L198.43669,191.70207" id="svg_23" stroke-width="3" stroke="#000" fill="none"/>
  <path t="124052,124133,124148,124197,124229,124269,124285,124333,124341,124357,124357,124373,124389,124397,124421,124445,124485,124501,124501,124525,124533,124549,124565,124573,124589,124589,124597,124613,124637,124669,124677,124677,124693,124717,124717,124733,124741,124781,124821,124821,124829,124869,124893,124909,124909,124925,124933,124941,124981,124989,124989,124997,125005,125029,125053,125069,125101,125101,125157,125165,125165,125213,125213,125262,125278,125278,125286,125286,125310" d="M135.01137,278.31274C136.61136,277.73807 137.41084,277.33142 138.31137,277.31274C139.20984,277.29413 139.75894,276.68503 140.5322,276.33356C141.33279,275.96967 142.36143,276.4444 143.11136,276.0914C143.88689,275.72638 144.71135,275.315 145.61136,275.31274C146.51137,275.31049 147.41136,275.31274 148.31137,275.31274C149.21004,275.31274 149.959,275.17758 150.62202,274.73807C151.43637,274.19824 152.41136,274.31274 153.31137,274.31274C154.21136,274.31274 155.11136,274.31274 156.01137,274.31274C156.81137,274.31274 157.7119,274.25653 158.51137,273.81274C159.3074,273.37085 160.17802,273.31274 161.01137,273.31274C161.81137,273.31274 162.78146,273.29224 163.66403,272.96008C164.37025,272.69427 165.25291,272.34134 166.21136,272.31274C167.11096,272.28592 168.01224,272.34995 168.81137,272.31274C169.729,272.27002 169.98988,271.37634 170.5322,270.7919C171.18486,270.08853 171.78291,269.48108 172.71136,269.31723C173.56316,269.16693 174.27811,268.81207 174.8447,268.14606C175.42625,267.46246 175.80576,266.82141 176.49052,266.31274C177.18478,265.79703 177.72678,265.14319 178.01137,264.31274C178.2961,263.48187 179.13849,263.12354 179.72603,262.59674C180.40186,261.99078 181.01137,261.31274 181.61136,260.71274C182.31137,260.01273 182.76826,259.46542 183.5322,258.81274C184.29271,258.16299 184.99052,257.81274 185.76852,257.21274L186.09402,256.51273L186.58603,255.71274" id="svg_24" stroke-width="3" stroke="#000" fill="none"/>
  <path t="130195,130407,130454,130470,130478,130724,130724,130774,130781,130781,130798,130822,130862,130878,130909,130917,130926,130985,131029,131061,131069,131109,131109,131118,131185,131201,131222,131362,131449,131449,131485,131501,131518,131534,131558,131582,131697,131735,131735,131797,131797,131829,131829,131884,131884,131884,131934,131934,131973,131997,131997,132068,132083,132126,132166,132166,132190,132222,132222,132246,132285,132301,132334,132334,132365,132389,132436,132469,132485,132533,132557,132597,132637,132661,132685,132734,132774,132798,132846,132862,133027,133027,133146" d="M235.01137,243.31274C233.21136,243.31274 232.41136,243.31274 231.51137,243.31274C230.5322,243.31274 229.65421,243.31274 228.81137,243.31274C227.91136,243.31274 227.01137,243.31274 226.21136,243.31274C225.31137,243.31274 224.39175,243.31079 223.61136,243.73807C222.7888,244.18843 221.91136,244.31209 221.01137,244.31274C220.09537,244.31342 219.57011,244.99919 218.71136,245.25557C217.84724,245.51355 216.85709,245.12946 216.01137,245.4794C215.22675,245.80406 214.47926,246.24744 213.71136,246.66541C212.87056,247.12306 212.32756,247.70996 211.65421,248.26007C210.95192,248.83382 210.37666,249.14836 209.95869,250.01274C209.56299,250.83109 208.65059,251.17029 208.06403,251.66541C207.40315,252.22325 206.71843,252.67632 205.91153,253.19157C205.18427,253.65599 205.15865,254.38008 204.78987,255.29141C204.50677,255.99103 203.79863,256.7912 203.41136,257.52341C202.99763,258.30563 202.55708,259.08929 202.29669,259.91275C201.9901,260.88235 202.21007,261.66803 201.79002,262.53424C201.35794,263.42526 200.95699,264.01178 200.51137,264.81274C200.06682,265.61179 200.01137,266.51273 200.01137,267.4129C200.01137,268.19806 200.01137,269.13806 200.01137,270.14606C200.01137,270.90207 200.01385,271.7919 200.01137,272.74875C200.00911,273.61273 199.62529,274.45108 199.29536,275.11273C198.87482,275.95609 199.01137,276.91275 199.01137,277.81274C199.01137,278.71274 199.01137,279.61273 199.01137,280.51273C199.01137,281.41257 199.01137,282.28741 199.01137,283.11407C199.01137,284.01273 199.01137,284.91275 199.01137,285.81274C199.01137,286.71274 199.01137,287.61273 199.01137,288.51273C199.01137,289.41275 199.01137,290.31274 199.01137,291.11273L199.01137,292.0274" id="svg_25" stroke-width="3" stroke="#000" fill="none"/>
  <path t="134710,134900,134967,135175,135191,135222,135230,135238,135246,135246,135262,135262,135270,135270,135294,135294,135570,135570,135586,135586,135613,135621,135637,135637,135653,135654,135669,135669,135829,135862,135948,135965,135989,135989,136013,136013,136013,136119,136119,136184,136250,136293,136309,136325,136341,136357,136357,136373,136389,136413,136499,136499,136550,136551,136589,136605,136613,136638,136638,136654,136670,136686,136726,136742,136790,136790,136822,136822,136838,136886,136951,136982,136997,137021,137029,137053,137053,137133,137182,137198,137246,137301,137316,137358,137374,137374,137390,137413,137453,137518,137518" d="M231.01137,243.31274C232.81137,243.31274 233.61136,243.31274 234.51137,243.31274C235.41136,243.31274 236.31137,243.31267 237.21136,243.31274C238.11136,243.31284 239.01067,243.48041 239.64737,243.9234C240.49443,244.51274 241.14993,244.99568 242.12737,245.2274C242.87912,245.40561 243.84737,245.31102 244.6127,245.31274C245.61136,245.315 246.43814,245.27438 247.40869,245.59807C248.16743,245.8511 248.65076,246.69215 249.36853,247.26007C250.08162,247.8243 250.74982,248.04637 251.66403,248.61273C252.34547,249.0349 253.06377,249.60646 253.81003,250.0274C254.60205,250.47415 254.8927,251.15134 255.5322,251.7919C256.17606,252.43684 257.1763,252.71915 257.49054,253.3544C257.94354,254.27017 257.93304,255.12178 258.09537,255.91273C258.302,256.91971 258.7215,257.59253 259.4007,258.2514C259.99554,258.82846 260.01135,259.71274 260.01135,260.61273C260.01135,261.51141 260.29581,262.13049 261.01135,262.4794C261.76474,262.84677 261.86703,263.92761 262.02203,264.71274C262.2085,265.65729 262.92633,266.30014 263.01004,267.11273C263.10226,268.008 263.01135,268.91275 263.01135,269.81274C263.01135,270.71274 262.73486,271.71109 263.17804,272.4794C263.59744,273.20648 264.82706,273.3056 265.01004,274.11407C265.2084,274.99057 264.92477,275.91855 265.02203,276.72342C265.13416,277.65137 265.62289,278.27661 265.88986,279.29123C266.1008,280.0929 266.01135,281.01273 266.01135,281.95557C266.01135,282.83356 266.01135,283.71274 266.01135,284.61273C266.01135,285.51273 266.01135,286.41275 266.01135,287.31274C266.01135,288.11273 266.01135,289.01273 266.01135,289.91275C266.01135,290.81274 266.01135,291.70206 266.01135,292.66989C266.01135,293.51273 266.01135,294.41275 266.01135,295.31274C266.01135,296.11273 265.95419,297.01273 265.49054,297.7919L264.71136,298.26007L263.91138,298.53424L263.31137,299.01724" id="svg_26" stroke-width="3" stroke="#000" fill="none"/>
  <path t="141166,141593,141667,141667,141718,141718,141785,141785,141800,141800,141829,141845,141932,141932,141999,142015,142084,142117,142125,142141,142197,142198,142229,142277,142293,142317,142317,142349,142373,142389,142413,142421,142437,142445,142461,142485,142485,142493,142501,142509,142509,142525,142549,142616,142632,142653,142677,142678,142686,142814,142980,143013,143013,143037,143115,143182,143182,143214,143221,143238,143254,143254,143277,143293,143309,143317,143333,143417,143468,143517,143517,143518,143541,143550,143557,143565,143581,143597" d="M256.01135,253.31274C256.01135,255.0699 256.06467,255.97624 255.95419,256.71722C255.8038,257.7261 255.4476,258.50684 254.91136,259.29141C254.45012,259.96628 253.86491,260.83121 253.41136,261.45142C252.87132,262.18988 251.84987,262.11246 251.01137,262.4794C250.27602,262.80121 250.17357,263.97495 249.49052,264.2919C248.60153,264.70441 247.62064,264.60098 247.17802,265.31274C246.67076,266.12848 245.87447,266.349 245.36853,267.01724C244.84216,267.71246 244.54539,268.54883 244.13269,269.41275C243.72537,270.26541 243.31281,270.73392 242.5322,271.31274C241.89539,271.78494 241.19678,271.94751 240.43669,272.34872C239.68533,272.74533 239.20985,273.2948 238.31137,273.31274C237.37486,273.33145 236.53662,273.61981 235.8367,273.88739C234.78133,274.29083 233.9101,274.26495 233.01137,274.31274C232.20796,274.35547 231.47498,275.05966 230.62202,275.27673C229.75301,275.49789 228.81137,275.31274 227.91136,275.31274C227.01137,275.31274 226.21136,275.31274 225.31137,275.31274C224.41136,275.31274 223.49052,275.31274 222.69003,275.31274C221.8367,275.31274 220.73232,275.56909 220.06853,274.96008C219.52888,274.46497 218.79356,274.53787 218.09537,274.02875C217.39682,273.51938 216.90417,272.85977 216.01137,272.4794C215.25983,272.15921 214.31137,272.31274 213.41136,272.31274C212.51137,272.31274 211.61136,272.31274 210.71587,272.31274C209.8447,272.31274 208.91136,272.31274 208.01137,272.31274C207.21136,272.31274 206.31137,272.31274 205.41136,272.31274C204.51137,272.31274 203.61136,272.31274 202.71136,272.31274L201.81137,272.31274L200.91136,272.31274" id="svg_27" stroke-width="3" stroke="#000" fill="none"/>
  <path t="153715,154263,154263,154410,154410,155062,155078,155117" d="M152.01137,207.31274C151.23286,206.43423 152.11136,206.31274 153.01137,206.31274C153.81137,206.31274 154.59703,206.31274 153.71587,206.31725L153.0367,206.73807" id="svg_28" stroke-width="3" stroke="#000" fill="none"/>
  <path t="156484,156924,156924,157172,157264,157301,157301,157367,157405" d="M151.01137,195.31274C151.01137,197.01274 151.1492,198.0294 150.51137,198.7919C149.96855,199.44081 149.09669,199.0274 149.01003,198.11407L148.65869,197.3654L148.04736,196.87674" id="svg_29" stroke-width="3" stroke="#000" fill="none"/>
  <path t="158625,159173,159206,159423,159500,159675" d="M152.01137,181.31274C152.01137,181.5114 151.95419,182.3654 151.30687,182.96007L150.5322,183.2919L149.57536,183.30208" id="svg_30" stroke-width="3" stroke="#000" fill="none"/>
  <path t="163330,163569,163663,163702,163726,163799,163799,163985,163985,164053,164069,164085,164093,164117" d="M222.01137,203.31274C220.17802,203.31274 219.00896,203.32883 219.09804,204.11407C219.2001,205.01373 220.3551,205.4599 221.0322,205.83357C221.85805,206.28934 222.37025,207.25017 223.30687,207.25107C224.07304,207.2518 224.01137,206.01274 224.01137,205.11273L224.01137,204.21274" id="svg_31" stroke-width="3" stroke="#000" fill="none"/>
  <path t="167285,167785,167845,167885,167925,168045,168101,168126,168142,168158,168167,168205,168222,168254,168553,168553" d="M230.01137,212.31274C230.01137,213.11407 230.01137,214.01274 230.01137,214.91273C230.01137,215.81274 229.84605,216.82831 230.02203,216.88741C230.73755,217.12766 230.84296,215.68228 231.0322,214.81274C231.21638,213.96646 231.88986,213.21291 232.01137,212.31274L232.09669,211.5114L232.55003,210.74873L232.20869,210.31407" id="svg_32" stroke-width="3" stroke="#000" fill="none"/>
  <path t="169864,170012,170045,170045,170101,170244,170298,170298,170341,170389,170405,170482,170705" d="M234.01137,228.31274C234.17802,230.14607 235.12148,230.36734 235.57536,230.9234C236.18987,231.67624 236.5531,232.33414 237.49403,232.3114C238.30322,232.29185 238.99004,231.70207 239.01137,230.81274L239.01137,229.91273L239.01137,229.01274L239.01003,228.11407" id="svg_33" stroke-width="3" stroke="#000" fill="none"/>
  <path t="179477,179657,179731,179747,179805,179976,180095,180142,180182,180250,180265,180302,180349,180400,180454,180478,180526,180628,180643,180643,180661,180685,180685,180701,180709,180725,180765,180829,180829,180945,180945,181015,181031,181053,181053,181069,181259,181363,181761,181776,181776,181831,181883,181964,181964,182094,182094,182126,182149,182262,182300,182316,182333,182333,182349,182357,182357,182365,182389,182653" d="M250.01137,209.31274C250.29669,208.39807 251.11136,208.31274 252.01137,208.31274C252.95869,208.31274 253.87453,207.84468 254.65421,208.3699C255.33832,208.83075 255.06758,210.01328 255.51137,210.81274C255.95325,211.60876 256.01398,212.50395 256.71585,212.96007C257.50317,213.47173 257.89215,214.15187 258.5322,214.7919C259.17224,215.43193 259.82529,215.7366 260.29669,216.51274C260.70749,217.1891 261.51135,217.81274 262.11136,218.41273C262.71136,219.01274 263.31583,219.88078 264.11136,220.19124C264.95737,220.52139 265.76163,220.59468 266.17804,221.31274C266.59848,222.03778 267.63562,222.29526 268.03671,222.9234C268.51294,223.66924 268.80038,224.56638 269.2327,225.41273C269.56741,226.06805 269.88492,227.08122 270.5322,227.31274C271.36002,227.60884 272.36801,227.17621 273.21136,227.59674C273.87302,227.92667 274.77542,228.04263 275.61136,228.38474C276.33261,228.6799 276.66266,229.69881 277.21136,230.4274C277.67242,231.03961 278.328,231.85881 279.21002,232.2274C279.96597,232.5433 280.40878,232.99638 280.95871,233.66991C281.53302,234.37331 281.81232,235.1131 282.41138,235.71274C283.11093,236.41299 283.71136,236.95557 284.57538,237.33807L285.06403,237.96007L285.8447,238.4794" id="svg_34" stroke-width="3" stroke="#000" fill="none"/>
  <path t="183992,184079,184095,184134,184174,184214,184246,184299,184342,184342,184414,184454,184494,184548,184630,184759,184790,184806,184806,184822,184838,184845,184845,184861,184861,184861,184869,184901,184949,185004,185045,185069,185133,185260,185302,185349,185364,185364,185447,185485,185485,185541,185708,185749,185805,185829,185829,185837,185845,185861,185869,185917,185957,185957,185999,186122,186245" d="M311.01135,282.31274C311.01135,284.01273 311.01135,284.91275 311.01135,285.81274C311.01135,286.71274 311.01135,287.61273 311.01135,288.51273C311.01135,289.41275 311.01135,290.31274 311.01135,291.11273C311.01135,292.14606 311.01135,292.9234 311.01135,293.81274C311.01135,294.71274 311.01135,295.61273 311.01135,296.51273C311.01135,297.41275 310.81757,298.35818 311.09671,299.11273C311.4184,299.98233 312.42203,300.27646 313.33286,300.3129C314.22205,300.34845 315.22482,300.49997 315.80069,300.74875C316.54623,301.07083 317.27658,301.90952 318.21136,302.22742C319.06711,302.51843 319.99054,302.31274 320.81268,302.31274C321.71136,302.31274 322.61139,302.30743 323.51135,302.31274C324.41144,302.31808 325.37399,302.4809 325.8447,303.31274C326.20593,303.95117 326.50168,304.84375 327.21136,305.51141C327.78775,306.05368 328.39703,306.62277 329.17804,307.14606C329.8721,307.61108 330.87271,307.31274 331.8447,307.31274C332.60071,307.31274 333.51135,307.31274 334.41138,307.31274C335.31137,307.31274 336.21515,307.39487 337.11136,307.31256C338.0228,307.22888 338.61136,306.73807 339.49054,306.31274L340.03671,305.70206L340.44736,304.9234" id="svg_35" stroke-width="3" stroke="#000" fill="none"/>
  <path t="186910,187136,187309,187325,187397,187511,187511,187878,187995,188029" d="M343.01135,302.31274C344.8447,302.14606 345.24921,301.52045 346.11121,301.31256C346.95288,301.10959 347.3447,300.31274 348.0322,299.83356L348.8447,299.4794L349.60153,299.31723L349.01135,299.81274" id="svg_36" stroke-width="3" stroke="#000" fill="none"/>
  <path t="193249,193424,193424,193424,193424,193440,193440,193461,193462,193462,193470,193470,193477,193477,193486,193493,193493,193509,193510,193510,193526,193549,193558,193566,193574,193581,193581,193590,193597,193606,193638,193698,193713,193741,193765,193773,193782,193799,193799,193806,193813,193830,193845,193846,193878,193894,193894,193965,193980" d="M270.01135,282.31274C270.72571,282.66541 271.40121,283.04541 272.41138,283.22742C273.20212,283.3699 274.21136,283.31274 275.01135,283.31274C276.01135,283.31274 276.81137,283.31274 277.61136,283.31274C278.61136,283.31274 279.41138,283.31274 280.41003,283.31274C281.17535,283.31274 282.2587,283.31274 283.17804,283.31274C284.0322,283.31274 285.01135,283.31274 285.80069,283.31274C286.52603,283.31274 287.5647,283.31274 288.44736,283.31274C289.30685,283.31274 290.18069,283.31274 291.0322,283.31274C291.98987,283.31274 292.81003,283.31274 293.71136,283.31274C294.61136,283.31274 295.51135,283.31274 296.41138,283.31274C297.31137,283.31274 298.21136,283.31274 299.11121,283.31274C300.03671,283.31274 300.82806,283.4357 301.76852,283.25558C302.6947,283.07822 303.32803,282.54724 304.25421,282.3699C305.19595,282.18958 306.11136,282.31274 307.01135,282.31274C307.76852,282.31274 308.65955,282.30823 309.67804,282.14606L310.0087,281.51141L310.09671,280.59808L310.81268,280.31409" id="svg_37" stroke-width="3" stroke="#000" fill="none"/>
  <path t="197859,197993,197993,198008,198008,198008,198030,198030,198035,198035,198046,198046,198054,198054,198061,198077,198086,198086,198102" d="M189.01137,255.31274C189.71587,255.96007 190.67654,256.23038 191.41136,256.74875C192.08424,257.22342 192.62376,257.94681 193.3327,258.41275C193.99103,258.84543 194.94157,259.47952 195.5647,259.87674C196.40007,260.40927 197.25697,260.18509 198.12604,260.59808C198.77298,260.90552 199.4007,261.70206 200.17802,262.31274L201.01137,262.31274L201.81137,262.39807L202.61136,262.88739" id="svg_38" stroke-width="3" stroke="#000" fill="none"/>
  <path t="199298,199411,199427,199427,199445,199453,199453,199453,199461,199469,199469,199477,199485,199509,199509,199581,199581,199757,199797,199813,199837,199837" d="M186.01137,261.31274C186.71587,261.96008 187.61923,262.30856 188.06403,263.01724C188.49118,263.69781 189.01823,264.47528 189.41136,265.13806C189.81853,265.82452 190.42047,266.66818 191.11119,267.41275C191.66154,268.00601 191.96803,268.98767 192.65804,269.33807C193.43977,269.73505 194.23294,269.85443 195.12469,270.51141C195.76183,270.9808 196.5322,271.31274 197.41136,271.31274L198.31137,271.31723L199.21136,271.59674L199.81137,272.02875" id="svg_39" stroke-width="3" stroke="#000" fill="none"/>
  <path t="207862,207962,207962,207977,207977,207977,207977,207977,207998,207998,207998,207998,208005,208005,208006,208006,208014,208014,208014,208022,208029,208029,208037,208037,208038,208045,208045,208045,208053,208061,208077,208093,208101,208102,208109,208125,208133,208141,208141,208150,208157,208157,208165,208173,208183,208198,208198,208205,208206,208214,208222,208229,208229,208237,208237,208245,208245,208253,208270,208270,208277,208286,208295,208302,208309,208320,208325,208325,208325,208342,208353,208353,208357,208357,208365,208374,208382,208382,208390,208398,208406,208415,208415,208422,208422,208430,208430,208437,208438,208446,208446,208453,208454,208462,208462,208462,208470,208478,208478,208486,208495,208511,208526,208526,208542,208542,208551,208565,208566,208574,208582,208590,208590,208590,208598,208598,208606,208615,208615,208622,208630,208630,208637,208646,208662,208662,208662,208670,208670,208679,208679,208686,208686,208696,208702,208709,208710,208719,208719,208719,208725,208725,208735,208736,208741,208741,208752,208752,208757,208757,208765,208766,208766,208774,208774,208774,208782,208790,208798,208798,208798,208806,208806,208814,208814,208821,208822,208830,208837,208838,208838,208838,208848,208848,208848,208854,208854,208854,208863,208870,208870,208878,208878,208886,208886,208893,208902,208918,208918,208925,208941,208942,208952,208965,208982,208998,208998,209006,209006,209015,209015,209030,209037,209054,209054,209054,209063,209063,209069,209070,209078,209078,209086,209093,209093,209102,209102,209118,209118,209125,209135" d="M303.01135,221.31274C304.84735,221.32341 305.62595,221.35275 306.61136,221.66541C307.42398,221.92323 308.41339,222.23386 309.05304,222.31274C309.78134,222.40257 310.98187,222.59749 311.68335,222.73807C312.43256,222.88821 313.21042,223.05782 314.41104,223.19141C315.20047,223.27925 315.97321,223.276 317.04071,223.39674C317.97238,223.50212 318.7164,223.77425 319.52338,224.02873C320.49847,224.33624 321.50055,224.27783 322.25803,224.34874C323.18323,224.43533 323.9614,224.67534 324.78604,224.88741C325.84149,225.15883 326.76413,225.29353 327.52469,225.3114C328.49026,225.33409 329.41138,225.31274 330.31137,225.31274C331.21136,225.31274 332.14539,225.16623 332.81137,225.39807C333.69702,225.70639 334.45456,226.19768 335.31137,226.66541C336.05667,227.07227 336.82184,227.21164 337.64737,227.34874C338.51895,227.49348 339.32803,228.07822 340.25421,228.25557C341.19595,228.4359 342.11136,228.31274 343.01135,228.31274C343.76852,228.31274 344.66403,228.31274 345.52737,228.31274C346.49054,228.31274 347.31586,228.31274 348.3327,228.31274C349.01135,228.31274 349.99002,228.31274 350.89536,228.31274C351.8367,228.31274 352.52737,228.31274 353.51135,228.31274C354.49536,228.31274 355.18604,228.31274 356.25421,228.31274C357.21136,228.31274 358.11136,228.31274 359.01135,228.31274C359.8447,228.31274 360.69403,228.31274 361.55402,228.31274C362.26202,228.31274 363.24338,228.31274 364.20154,228.31274C365.17804,228.31274 366.01135,228.31274 366.98987,228.31274C367.81003,228.31274 368.71136,228.31274 369.5322,228.31274C370.49536,228.31274 371.18604,228.31274 372.25421,228.31274C373.21136,228.31274 374.11136,228.31274 375.01135,228.31274C375.76852,228.31274 376.66852,228.31274 377.41586,228.31274C378.41003,228.31274 379.35419,228.31274 380.26318,228.31274C380.98071,228.31274 382.01669,228.31274 382.76071,228.31274C383.86868,228.31274 384.66202,228.31274 385.55402,228.31274C386.26202,228.31274 387.25009,228.42126 388.19702,228.30824C389.1301,228.19688 389.77823,227.46689 390.61136,227.32341C391.49835,227.17065 392.44211,227.3752 393.3327,227.0914C394.03171,226.86867 394.98334,226.37497 395.81003,226.31407C396.64511,226.25256 397.66403,226.31274 398.3587,226.31274C399.37537,226.31274 400.33594,226.39211 401.17804,226.14607C401.87054,225.94374 402.60632,225.49832 403.60687,225.01724C404.34958,224.66014 405.25278,224.34134 406.11154,224.31274C406.89627,224.28662 407.8367,224.31274 408.8447,224.31274C409.60071,224.31274 410.51135,224.31274 411.43271,224.31274C412.3447,224.31274 413.26202,224.31323 414.00604,224.31274C415.04202,224.31207 415.76898,224.28326 416.66852,223.96007C417.42453,223.68843 418.40604,223.36455 419.13937,223.32341C420.17776,223.26515 421.0322,223.31274 421.9902,223.31274C422.8212,223.31274 423.7807,223.31274 424.5322,223.31274C425.3287,223.31274 426.32602,223.31274 427.20068,223.31274C428.21121,223.31274 428.99054,223.31274 429.99002,223.31274C430.76404,223.31274 431.66852,223.31274 432.41586,223.31274C433.41269,223.31274 434.24738,223.31274 435.17804,223.31274C435.96402,223.31274 436.78604,223.31274 437.8447,223.31274C438.76471,223.31274 439.52469,223.31274 440.60071,223.31274C441.43271,223.31274 442.3447,223.31274 443.26202,223.31274C444.00604,223.31274 445.04202,223.31274 445.89404,223.31274C446.84735,223.31274 447.6127,223.31274 448.60687,223.31274C449.35419,223.31274 450.3967,223.31274 451.3447,223.31274C452.03021,223.31274 452.86868,223.31274 453.49936,223.31274C454.89404,223.31274 455.62604,223.31274 456.35004,223.31274C457.67804,223.31274 458.23938,223.31274 459.15402,223.31274C460.12735,223.31274 461.17804,223.31274 461.8367,223.31274C462.8447,223.31274 463.63669,223.31274 464.66403,223.31274C465.3587,223.31274 466.37537,223.31274 467.31586,223.31274C468.17804,223.31274 468.99054,223.31274 469.96069,223.31274C470.87271,223.31274 471.52869,223.31274 472.60071,223.31274C473.51135,223.31274 474.42203,223.31274 475.3327,223.31274C476.18604,223.31274 477.12735,223.31709 477.89536,223.31274C478.83673,223.3074 479.54608,223.26839 480.49054,222.81274C481.33411,222.40576 482.17804,222.31274 483.05304,222.31274C483.69803,222.31274 484.69403,222.31274 485.49054,222.31274C486.67804,222.31274 487.49054,222.31274 488.3327,222.31274C489.18604,222.31274 490.12604,222.31274 491.11154,222.31274C491.8967,222.31274 492.84735,222.31274 493.6127,222.31274C494.60687,222.31274 495.35419,222.31274 496.37537,222.31274L497.31137,222.31274" id="svg_40" stroke-width="3" stroke="#000" fill="none"/>
  <path t="212034,212160,212160,212160,212160,212175,212221,212238,212277,212277,212333,212350,212350,212365,212373,212373,212381,212397,212406,212406,212414,212422,212438,212445,212454,212461,212461,212470,212477,212477,212486,212486,212493,212493,212502,212502,212509,212509,212518,212518,212525,212534,212541,212549,212550,212557,212558,212565,212581,212581,212597,212606,212614,212622,212638,212654,212654,212661,212661,212670,212670,212677,212694,212694,212702,212709,212709,212718,212725,212725,212726,212734,212734,212742,212742,212750,212750,212758,212758,212774,212798,212798,212806,212830,212854,212870,212886,212894,212910,212910,212926,212935,212935,212942,212950,212958,212974,212990,212998,212998,213006,213006,213046,213086,213102,213118,213134,213134,213182,213182,213222,213238,213238,213262,213302,213326,213335,213435,213435,213481,213583,213599,213599,213630,213646,213646,213854,213869,213930,213930,213998" d="M10.01136,95.31274C10.36403,96.02707 10.71482,96.70817 10.92736,97.71008C11.11388,98.58929 11.63753,99.29176 12.0367,99.92341C12.51203,100.67558 13.11228,101.41149 13.72603,102.0274C14.36516,102.66879 14.73967,103.49638 15.1807,104.11274C15.70899,104.85106 16.66194,105.32175 17.05953,106.01274C17.51404,106.80264 18.50056,107.10019 18.89003,107.7554C19.33436,108.5029 19.58912,109.32555 20.01003,110.02874C20.43987,110.74686 20.70944,111.69374 21.36853,112.26007C22.05728,112.85188 22.87242,113.05956 23.4007,113.71274C24.00417,114.45889 24.13114,115.2355 24.7212,115.96541C25.31585,116.701 25.95345,117.33245 26.6367,117.90207C27.29974,118.45485 28.05436,118.74769 28.98986,119.41273C29.63324,119.87011 30.20685,120.51729 30.81137,121.11274C31.50622,121.79717 32.31759,122.19326 33.21136,122.31407C34.02091,122.4235 34.61798,122.97982 35.65953,123.26007C36.42659,123.46647 36.96462,124.03284 37.7212,124.60824C38.3022,125.0501 39.50219,125.14477 39.98603,125.74874C40.57422,126.48296 41.11505,126.95675 41.8447,127.47941C42.60672,128.02525 43.25399,128.25194 44.21103,128.53424C44.99329,128.76498 45.45712,129.50002 46.09403,130.0274C46.75079,130.57121 47.85714,130.21535 48.52737,130.39807C49.54719,130.6761 50.02483,131.52718 50.71136,131.95557C51.48032,132.43538 52.5542,132.31274 53.2727,132.31274C54.0632,132.31274 55.09467,132.23796 55.9697,132.33357C57.00343,132.44652 57.61477,132.9567 58.49537,133.51274C59.17022,133.93887 60.01262,134.38615 60.6007,134.91273C61.34149,135.57607 62.00182,136.20198 62.81136,136.3114C63.70514,136.43221 64.48249,136.83849 64.95869,137.60825C65.36177,138.2598 66.31791,138.2057 67.21136,138.31407C68.13116,138.42563 68.71249,139.01611 69.31136,139.61273C70.01269,140.31142 70.66388,140.78862 71.4007,141.2874C72.06777,141.73897 72.65109,142.10617 73.61137,142.34874C74.48329,142.56898 75.16937,143.20967 76.01137,143.2919C76.98546,143.38704 77.84367,143.19272 78.49053,143.83357C79.13355,144.47061 79.48695,145.20743 80.31136,145.66541C81.05367,146.07776 81.70686,146.48891 82.01137,147.31274C82.34332,148.21085 82.92041,148.78064 83.23286,149.63391C83.48143,150.31271 84.31945,151.00468 84.92737,151.59674C85.49539,152.14993 86.36142,152.18108 87.11137,152.53407C87.88689,152.89911 88.73357,153.15997 89.4007,153.74873C90.09562,154.36203 90.35865,155.26727 90.9967,155.73807C91.71523,156.26825 92.5605,156.32657 93.37537,156.73807C94.14697,157.12773 95.01137,157.4794 95.61137,157.9234L96.31136,158.60825" id="svg_41" stroke-width="3" stroke="#000" fill="none"/>
  <path t="215958,215998,216014,216014,216029,216029,216029,216029,216045,216062,216062,216070,216118,216149,216197,216222,216238,216246,216262,216262,216270,216278,216286,216286,216294,216302,216310,216318,216326,216326,216326,216334,216334,216342,216342,216342,216350,216350,216358,216358,216367,216367,216374,216374,216382,216414,216446,216446,216470,216486,216502,216502,216518,216518,216526,216526,216534,216534,216534,216534,216542,216542,216550,216566,216566,216574,216582,216582,216582,216590,216614,216614,216638,216646,216678,216678,216686,216694,216694,216703,216710,216719,216742,216742,216752,216752,216766,216790,216798,216798,216806,216806,216822,216830,216830,216838,216870,216910,216926,216942,216958,216958,217046,217098,217163,217163" d="M230.01137,194.31274C230.17802,196.14607 231.04327,196.43925 231.61136,196.9234C232.36154,197.56273 232.87067,198.15556 233.66403,198.60825C234.33861,198.99315 235.38551,199.29474 236.3327,199.31274C237.01125,199.32564 238.14714,198.97943 238.89003,199.53407C239.53357,200.01454 239.69783,200.81042 240.36853,201.25557C241.15553,201.77791 242.25983,201.15921 243.01137,201.4794C243.79256,201.81223 244.51118,202.30232 245.42203,202.31274C246.33264,202.32317 247.18604,202.31274 248.12604,202.31274C249.01137,202.31274 249.92737,202.31267 250.69403,202.31274C251.5542,202.31284 252.53734,202.28708 253.3287,202.39807C254.33603,202.53937 254.99507,202.82402 256.01135,203.31274C256.61411,203.6026 257.39206,204.04056 258.41003,204.2274C259.16635,204.36621 260.27063,204.26712 260.98071,204.39807C262.0329,204.5921 262.74973,204.93018 263.67804,205.14607C264.4621,205.32841 265.42188,205.18004 266.31137,205.31725C267.24274,205.46092 267.83774,205.96529 268.71136,206.3654C269.43698,206.69774 270.02402,207.54062 270.76852,207.95557C271.59845,208.41812 272.43369,208.29919 273.41269,208.59807C274.04657,208.79158 275.17639,209.31703 275.69537,209.51274C276.50885,209.81949 277.33661,210.09035 278.32336,210.5114C279.13675,210.85846 279.96017,211.29474 280.87271,211.31274C281.52856,211.32568 282.54184,211.28944 283.55402,211.53407C284.2702,211.70717 284.98752,212.04633 286.04071,212.2274C287.00101,212.39252 287.80045,212.4171 288.51135,212.81274C289.38785,213.30055 290.15533,213.64304 290.81268,214.02873C291.58044,214.47922 292.48679,214.61806 293.18604,214.88741C294.23776,215.29251 294.79288,215.8472 295.45804,216.2874C296.21588,216.78894 296.97522,216.92429 297.98987,217.19124C298.7915,217.40216 299.742,217.31731 300.42203,217.74873C301.21848,218.25403 302.10825,218.68187 302.67804,219.31274C303.2323,219.92641 303.92429,220.3324 304.65955,220.66991C305.47726,221.04527 305.93433,222.08182 306.71585,222.30824C307.57599,222.55745 308.51886,222.1974 309.4007,222.31274C310.25458,222.42444 310.81268,223.11407 311.41138,223.70207L312.21136,224.2274L313.11154,224.31274L313.8967,224.31274" id="svg_42" stroke-width="3" stroke="#000" fill="none"/>
  <path t="223208,223263,223263,223279,223279,223302,223310,223310,223318,223318,223326,223342,223350,223374,223374,223382,223390,223390,223398,223406,223414,223414,223422,223422,223430,223430,223438,223446,223446,223446,223454,223454,223462,223462,223470,223478,223478,223486,223486,223494,223494,223502,223510,223518,223518,223526,223534,223542,223558,223566,223566,223574,223574,223582,223582,223598,223598,223606,223614,223614,223614,223622,223622,223630,223630,223638,223646,223654,223654,223662,223662,223662,223678,223678,223686,223686,223694,223710,223718,223726,223726,223735,223742,223742,223750,223750,223751,223758,223758,223766,223774,223774,223785,223785,223785,223790,223790,223800,223800,223800,223814,223832,223832,223832,223846,223846,223854,223886,223894,223894,223910" d="M90.01137,143.31274C90.01137,141.5984 90.01137,140.90373 90.01137,139.91408C90.01137,139.14874 89.87899,138.02307 90.2327,137.21257C90.54588,136.4949 90.72829,135.58652 91.09537,134.88206C91.49989,134.10574 92.56319,133.83118 92.95869,133.01274C93.377,132.14713 93.81239,131.51244 94.41136,130.91273C95.11085,130.21239 95.65421,129.61273 96.01137,128.81274C96.36854,128.01274 97.05259,127.34924 97.61137,126.67673C98.15352,126.02424 98.47013,125.28656 99.01137,124.47941C99.53667,123.69602 99.90717,122.85403 100.3447,122.14607C100.7885,121.42797 101.37951,120.98126 102.12603,120.19674C102.72011,119.57242 103.25504,118.85072 103.57536,118.13807C103.98687,117.22256 104.1787,116.31321 104.62203,115.67673C105.21227,114.82936 105.57498,114.11427 106.1112,113.33424C106.6207,112.59306 106.94609,111.78065 107.36403,111.01274C107.82172,110.17178 108.02071,109.45824 108.62203,108.71274C109.14945,108.05885 109.7738,107.29536 110.01137,106.47941C110.23238,105.72031 110.61158,105.08611 111.11137,104.11308C111.50322,103.35017 112.18982,102.66659 112.81136,102.14474C113.50826,101.55962 113.84399,100.81927 113.99053,99.79191C114.1053,98.98728 114.01089,98.06207 114.01137,97.31807C114.01203,96.28207 114.07213,95.4211 114.36403,94.66007C114.69948,93.78552 114.92661,92.82912 115.01586,92.00824C115.11069,91.13609 115.58085,90.31287 115.8447,89.31274C116.00049,88.72221 116.00391,87.8969 116.29536,86.91273C116.53706,86.09661 116.93192,85.1172 116.99053,84.33357C117.06507,83.33697 117.01137,82.47941 117.01137,81.66607C117.01137,80.66007 117.01137,79.96541 117.01137,78.93807C117.01137,77.99124 117.01137,77.29191 117.01137,76.31274C117.01137,75.51274 117.01137,74.71274 117.01137,73.71724C117.01137,72.79807 117.01137,71.81274 117.01137,70.99107C117.01137,70.06607 117.01137,69.14607 117.01137,68.36457C117.01137,67.57407 117.01137,66.45541 117.01137,65.66207C117.01137,64.77007 117.01308,63.81273 117.01137,63.08074C117.00912,62.12256 116.84275,61.14682 116.58603,60.47674C116.29314,59.71225 116.04126,58.71849 116.0127,57.79807C115.98277,56.83403 116.00687,56.01274 115.72736,55.11274L115.29536,54.51274L115.01586,53.61274" id="svg_43" stroke-width="3" stroke="#000" fill="none"/>
  <path t="225772,225805,225821,225837,225845,225853,225861,225861,225869,225877,225893,225901,225917,225933,225933,225941,225965,225973,225982,225989,225997,226013,226021,226021,226037,226037,226045,226053,226061,226061,226069,226069,226085,226085,226093,226093,226101,226101,226101,226109,226117,226117,226117,226125,226125,226133,226133,226133,226141,226149,226157,226157,226165,226165,226165,226165,226173,226173,226181,226189,226189,226189,226197,226197,226205,226205,226213,226213,226213,226221,226221,226221,226229,226229,226229,226229,226237,226237,226245,226245,226245,226253,226253,226261,226261,226269,226269,226277,226285,226285,226293,226301,226301,226309,226309,226325,226325,226333,226333,226341,226341,226357,226358,226365,226374,226374,226389,226389,226397,226405,226405,226413,226421,226429,226429,226445,226445,226453,226453,226461,226461,226469,226469,226469,226477,226477,226485,226493,226493,226493,226501,226501,226501,226509,226509,226509,226517,226525,226525,226533,226533,226533,226541,226541,226550,226550,226557,226557,226565,226566,226573,226573,226581,226581,226581,226589,226589,226597,226597,226605,226613,226613,226621,226621,226629,226629,226637,226637,226645,226645,226653,226661,226669,226685,226685,226693,226693,226701,226717,226733,226741,226757,226789,226821,226845,226853,226869,226893,226893,226941,226998,226998,226998" d="M446.01135,216.31274C446.58603,214.71274 446.99335,213.91327 447.01135,213.01274C447.02933,212.11292 447.01135,211.21274 447.01135,210.31274C447.01135,209.51274 447.06854,208.61273 447.51135,207.81274C447.95419,207.01274 448.01135,206.11273 448.01135,205.21274C448.01135,204.31274 448.01135,203.51274 448.01135,202.59807C448.01135,201.70207 448.01135,200.81274 448.01135,199.91273C448.01135,199.01274 448.01135,198.11273 448.01135,197.21274C448.01135,196.31274 447.99084,195.54263 447.65869,194.66006C447.39291,193.95386 447.11441,192.94345 447.00687,192.00824C446.90665,191.13669 446.51105,190.5146 446.17804,189.4794C445.9285,188.70361 445.69702,187.83884 445.43671,187.10207C445.09192,186.12619 445.08658,185.29726 444.8447,184.31274C444.64651,183.50609 444.25641,182.8087 444.03671,181.9274C443.80273,180.98888 443.65042,180.30981 443.43671,179.5634C443.12042,178.45883 443.01459,177.65532 442.79004,176.77007C442.60889,176.05588 442.21307,175.09662 442.06854,174.12708C441.93347,173.22096 442.05484,172.30919 441.97537,171.60474C441.85516,170.53932 441.67343,169.94949 441.4007,168.98874C441.2225,168.36105 440.62689,167.23242 440.29669,166.51674C439.91208,165.68314 440.07959,164.76468 439.9697,163.83357C439.89001,163.15842 439.09888,162.50476 438.49402,162.14607C437.54028,161.58051 437.29504,160.85513 436.91138,159.8914C436.59396,159.0941 436.33676,158.2552 435.91119,157.23407C435.61801,156.53061 435.27325,155.84874 434.68985,154.89157C434.36465,154.35805 433.82758,153.55147 433.41003,153.08208C432.65872,152.23744 431.91913,151.91472 431.17804,150.9794C430.69077,150.36444 430.41467,149.57553 430.17804,148.64607C429.97339,147.84229 429.76236,146.81042 429.4007,146.13808C428.9549,145.30933 428.36771,144.76367 427.71585,144.01274C427.13721,143.34612 427.0379,142.42644 426.4697,141.81274C425.80139,141.09093 424.85147,140.9928 424.25421,140.21257C423.73755,139.53766 423.66397,138.65096 423.30685,137.90823C422.82578,136.90768 422.35672,136.17816 422.13287,135.33408C421.93222,134.57744 422.1326,133.63889 421.92603,132.79674C421.70508,131.89594 420.97153,131.16805 420.62204,130.48741C420.11893,129.50757 420.01669,128.72345 420.01135,127.79191C420.00677,126.99142 420.01135,126.13807 420.01135,125.19807C420.01135,124.21274 420.10229,123.30031 419.95419,122.55557C419.76944,121.6265 419.27893,120.92728 419.09671,119.91273C418.95468,119.12192 419.01135,118.11274 419.01135,117.31274C419.01135,116.31274 419.01135,115.51274 419.01135,114.71274C419.01135,113.71724 419.01135,112.9699 419.01135,111.93807C419.01135,110.99091 419.01135,110.25024 419.01135,109.54074C419.01135,108.34474 419.01135,107.66207 419.01135,106.9634C419.01135,105.64607 419.01135,104.83157 419.01135,103.9789C419.01135,103.06541 419.01135,102.14607 419.01135,101.29191C419.01135,100.31274 419.01135,99.51274 419.01135,98.71274C419.01135,97.71274 419.01135,96.91273 419.01135,95.91273C419.01135,95.11274 419.01135,94.11291 419.01135,93.33357C419.01135,92.33407 419.01135,91.56007 419.01135,90.65107C419.01135,89.85107 419.01135,88.8914 419.01135,88.0874C419.01135,87.2654 419.01135,86.23441 419.01135,85.35441C419.01135,84.33424 419.01135,83.51407 419.01135,82.67673C419.01135,81.82741 419.01135,80.90824 419.01135,79.91407C419.01135,79.14874 419.01135,78.19674 419.01135,77.42874C419.01135,76.47674 419.01135,75.7114 419.01135,74.71724C419.01135,73.79807 419.01135,72.83357 419.01135,71.91273C419.01135,71.1114 419.01135,70.14607 419.01135,69.31274C419.01135,68.33424 419.01135,67.51407 419.01135,66.61274C419.01135,65.71274 419.01135,64.81274 419.01135,63.91274C419.01135,63.01724 419.22083,62.32177 419.65869,61.60824C420.16006,60.79121 419.84406,59.70343 420.36853,59.01724C420.94202,58.26692 421.81137,58.22874 422.57538,57.66607L422.92737,56.83007L423.06403,56.02257L423.5322,55.33357" id="svg_44" stroke-width="3" stroke="#000" fill="none"/>
 </g>
</svg>