<svg width="500" height="334.26183844011143" xmlns="http://www.w3.org/2000/svg" xmlns:svg="http://www.w3.org/2000/svg" xmlns:xlink="http://www.w3.org/1999/xlink">
 <!-- Created with SVG-edit - http://svg-edit.googlecode.com/ -->
 <g display="inline" class="layer">
  <title>Layer 1</title>
  <path t="0,106,161,229,309,422,422,525,622,662,665,674,739,785,818,818,861,914,922,986,993,1073,1098,1098" d="M284.72568,101.51981C283.8472,101.51981 283.0097,101.51981 282.15103,101.51981C281.22568,101.51981 280.27731,101.43011 279.57635,101.51981C278.70447,101.63138 278.37244,101.87303 277.72568,102.51981C277.12418,103.12132 277.7973,104.15071 278.30035,104.51981C278.82962,104.90812 279.16837,105.51981 279.87503,105.51981C280.94702,105.51981 281.81104,105.51989 282.72437,105.51981C283.60419,105.51972 283.72568,104.8038 284.37302,104.51981L284.72568,103.95181L284.72568,103.22514" id="svg_1" stroke-width="3" stroke="#000" fill="none"/>
  <path t="2003,2109,2149,2157,2189,2209,2237,2242,2310,2357,2393,2417,2435,2461,2489,2533,2549,2589" d="M265.72568,96.51981C264.8472,96.51981 264.19016,96.63425 263.72568,97.16714C263.28265,97.6754 262.82233,98.01643 262.37302,98.52431C261.84375,99.12256 261.41788,100.1332 262.0097,100.51981C262.74866,101.00253 263.78287,100.51981 264.66852,100.51981C265.55902,100.51981 265.72568,99.87247 266.30035,99.51981L266.72568,99.01981L266.72568,98.16714" id="svg_2" stroke-width="3" stroke="#000" fill="none"/>
  <path t="3378,3497,3529,3534,3545,3573,3605,3625" d="M278.72568,95.51981C278.72568,96.39831 279.5448,96.06618 280.39236,96.51981C280.92218,96.80336 281.15103,97.51981 282.0097,97.51981L282.72568,97.29847" id="svg_3" stroke-width="3" stroke="#000" fill="none"/>
  <path t="4450,4581,4621,4661,4686,4686,4701,4753,4813,4825,4861,4873,4928,5005,5005,5081,5085,5165,5257,5361,5469,5481,5529,5541,5685,5689,5918,5921,6081,6161,6281,6293,6337,6361,6385,6398,6405,6421,6421,6458,6497,6501,6525,6561,6605,6625,6657,6701,6757,6765" d="M270.72568,114.51981C271.60419,114.51981 272.53247,114.90411 273.30035,114.51981C273.93491,114.20222 273.37958,112.94537 274.0097,112.51981C274.78647,111.99522 276.07806,113.16515 276.72437,112.51981C277.34604,111.89908 277.44168,111.51981 278.30035,111.51981C279.2937,111.51981 280.14337,111.7251 280.72702,111.23581C281.34113,110.72098 282.07837,110.51981 282.94702,110.51981C283.89236,110.51981 285.2796,110.73298 284.72568,111.43447C284.26953,112.01212 283.72568,112.46264 283.72568,113.22514C283.72568,114.27681 283.9039,114.92436 284.44168,115.51847C284.87265,115.9946 284.97714,117.05463 284.72568,117.94514C284.54245,118.59402 283.50436,118.51981 282.55902,118.51981C281.70486,118.51981 281.16397,118.37638 280.72568,117.8038C280.26352,117.20004 279.28458,117.6541 278.30035,117.51981C277.48175,117.40811 276.85434,116.58074 276.07837,116.51981C275.15387,116.4472 274.1687,116.67542 273.72568,116.16714C273.2612,115.63425 272.55902,115.51981 271.6897,115.51981L270.78287,115.51981" id="svg_4" stroke-width="3" stroke="#000" fill="none"/>
  <path t="7678,7701,7769,7809,7849,7877,7893,7917,7933,7941,7953,7957,7973,7973,7989,8009,8033,8033,8061,8089,8101,8133,8161,8177,8189,8230,8281,8293,8341,8409,8449,8466,8493,8493,8509,8517,8537,8549,8566,8589,8593,8613,8653,8666,8677,8693,8737,8745,8785,8825,8845,8845,8877,8885,8889,8937,8953,8953,8973,8977,8997,9013,9037,9053" d="M256.72568,90.51981C255.8472,90.51981 255.00969,90.51981 254.15103,90.51981C253.22569,90.51981 252.14148,90.31593 251.72569,90.8038C251.23958,91.37419 251.371,91.87214 250.72569,92.51847C250.12465,93.12045 248.84972,92.48259 248.72569,93.08781C248.55225,93.93422 248.11322,94.29321 247.72569,94.8038C247.18263,95.51933 247.1445,96.29877 246.72569,97.01981C246.39598,97.58744 245.81711,97.8773 245.72569,98.74114C245.64189,99.53302 244.72569,99.54064 244.72569,100.43447C244.72569,101.23581 245.07263,101.80513 245.72569,102.35314C246.23775,102.78282 247.34366,102.79958 248.22569,102.51981C248.80891,102.33482 249.0593,101.53884 249.72569,101.51981C250.72691,101.49121 250.91675,101.05384 251.55902,100.51981C252.073,100.09244 252.27151,99.49249 252.74652,99.01981C253.27039,98.49851 253.88214,97.86955 254.73636,97.51981C255.53947,97.19099 255.68301,96.67333 256.37302,96.51981C257.20557,96.33456 257.76724,95.93886 258.30035,95.51981C258.77325,95.14809 259.06085,94.57428 259.87503,94.51981C260.73141,94.46251 260.72568,93.51981 260.72568,92.5918C260.72568,91.68647 259.98416,91.74626 259.2937,91.51981C258.6113,91.296 258.15103,90.53047 257.22568,90.51981L256.37302,90.51981L255.4417,90.51981L254.72569,90.68647" id="svg_5" stroke-width="3" stroke="#000" fill="none"/>
  <path t="9850,9941,9965,9969,9985,10001,10013,10041,10053,10065,10081,10093,10121,10149,10149,10161,10181,10233,10241,10289,10309,10321,10393,10401,10454,10481,10525,10549,10569,10573,10581,10609,10637,10677,10737,10765,10849,10889,10957,10965,11070" d="M277.72568,89.51981C278.60419,89.51981 279.43103,89.51981 280.39236,89.51981C281.22568,89.51981 282.15103,89.51981 283.0097,89.51981C283.94702,89.51981 284.81104,89.51981 285.72437,89.51981C286.60419,89.51981 287.44168,89.51981 288.30035,89.51981C289.2937,89.51981 290.18222,89.30105 290.72568,89.87247C291.21283,90.38471 292.08157,90.23119 292.64035,90.8038C293.1705,91.34705 293.72568,91.57697 293.72568,92.4838C293.72568,93.37048 294.06873,94.35226 293.72568,95.09447C293.45026,95.69034 292.37302,95.51981 291.44168,95.51981C290.55502,95.51981 289.72568,95.51981 288.76736,95.51981C287.89236,95.51981 287.0097,95.51981 286.15103,95.51981C285.22568,95.51981 285.07373,94.83637 284.44168,94.51981C283.78436,94.19059 283.66852,95.51981 282.8472,95.74114L282.72568,96.43447" id="svg_6" stroke-width="3" stroke="#000" fill="none"/>
  <path t="11906,11961,11997,12021,12041,12057,12065,12081,12113,12145,12153,12157,12205,12234,12253,12301,12345,12385,12425,12437,12444,12477,12525,12565" d="M261.72568,91.51981C262.60419,91.51981 263.10934,90.78175 263.94702,90.51981C264.84927,90.23768 265.74652,90.51981 266.64035,90.51981C267.44168,90.51981 267.99649,89.82542 268.84003,89.51981C269.6727,89.21812 270.84348,88.96516 271.55902,89.51981C272.08731,89.92933 272.30035,90.51981 273.15103,90.51981C274.07837,90.51981 275.00992,90.50076 275.89236,90.51981C276.72626,90.53781 276.72568,91.46264 277.55902,91.51981L278.37302,91.51981L278.72568,92.09447" id="svg_7" stroke-width="3" stroke="#000" fill="none"/>
  <path t="13018,13049,13057,13081,13093,13113,13121,13137,13154,13161,13173,13189,13201,13209,13213,13237,13257,13277,13281,13333,13369,13398,13433,13441,13473,13501,13501,13533,13549,13589,13649,13753,13761,13833" d="M280.72568,95.51981C280.74652,96.51981 281.81433,96.09934 282.44168,96.60514C283.1449,97.1721 283.14221,97.76947 283.70486,98.51981C284.23206,99.22285 284.05148,99.81734 284.60419,100.51981C285.05325,101.09055 284.79361,102.09368 285.22568,102.56147C285.767,103.14758 285.72568,104.18647 285.72568,105.01981C285.72568,105.94514 286.34811,106.30515 286.70486,107.01981C287.08582,107.78292 286.72568,108.8038 286.72568,109.68647C286.72568,110.55581 286.72568,111.46264 286.72568,112.35314C286.72568,113.22514 287.04858,114.00179 286.72568,115.01981C286.54068,115.60303 285.72568,115.8038 285.72568,116.68647L285.72568,117.55581L285.72568,118.46264L284.89236,118.51981" id="svg_8" stroke-width="3" stroke="#000" fill="none"/>
  <path t="14694,14777,14805,14817,14845,14853,14893,14905,14933,14937,14945,14977,14985,14989,15033,15045,15073,15125,15173,15185,15221,15261,15273,15313,15345,15345,15381,15409,15422,15429,15489" d="M254.72569,109.51981C255.60419,109.51981 255.79494,110.12555 256.30035,110.51981C256.81793,110.92355 257.17078,111.32947 258.07837,111.51981C258.77017,111.66489 258.84003,112.51981 259.72568,112.51981C260.68402,112.51981 260.36664,113.54321 260.89236,114.18647C261.44812,114.86647 262.29199,114.65327 262.72568,115.23581C263.10846,115.74999 263.88214,116.17006 264.73636,116.51981C265.53949,116.84863 266.27847,116.61969 266.72568,117.16714C267.11276,117.64099 268.15103,117.51981 269.05902,117.51981C269.87503,117.51981 270.81104,117.51981 271.72568,117.53047L271.72586,118.39831L272.55902,118.51981L273.37302,118.51981" id="svg_9" stroke-width="3" stroke="#000" fill="none"/>
  <path t="16833,16891,16913,16925,16941,16945,16949,16961,16969,16981,16990,16993,17001,17009,17021,17033,17045,17053,17074,17085,17106,17113,17145,17169,17189,17190,17225,17233,17244,17274,17289,17321,17341,17361,17389,17393,17401,17405,17429,17453,17465,17501,17553,17553,17601,17625,17633,17665,17669,17673,17701,17709,17741,17773,17805,17845,17873,17909,17921,17949,17973,18009,18069,18101,18101,18104,18105,18129,18161,18189,18190,18225,18241,18257,18277,18280,18305,18317,18324,18365,18368,18377,18381,18421,18461,18469,18504,18517,18545,18565,18577,18621,18621,18665,18668,18697,18708" d="M254.72569,150.51981C254.89236,151.35313 255.30646,151.78653 255.94702,152.3983C256.52237,152.94777 256.33652,153.57457 256.94702,154.27681C257.49454,154.9066 258.21979,154.9781 258.72568,155.60513C259.28757,156.30154 259.75635,155.95421 260.55502,156.51981C261.11508,156.91641 261.30078,157.69258 261.81104,158.23581C262.38782,158.84987 262.87097,159.04463 263.37302,159.57697C263.95795,160.19719 263.78821,161.08124 264.30035,161.51981C264.79895,161.94678 265.34659,162.23152 265.72568,162.85313C266.15054,163.5498 266.03897,163.89879 266.6897,164.53047C267.31293,165.13547 266.82556,166.07259 267.37302,166.51981C267.84686,166.90689 268.39642,167.28409 268.72568,167.87247C269.14987,168.63051 268.84003,169.51755 269.72568,169.51981C270.65369,169.52217 270.32816,170.4568 270.72568,171.16714C271.05496,171.75554 271.72568,172.01981 271.72568,172.96248C271.72568,173.66914 272.14734,174.92265 271.64035,175.51981C271.10742,176.14754 270.61136,176.51981 269.72568,176.51981C268.84003,176.51981 268.77017,177.37473 268.07837,177.51981C267.17078,177.71014 266.30035,177.51981 265.37302,177.51981C264.44168,177.51981 263.55902,177.51981 262.6897,177.51981C261.78287,177.51981 261.61603,176.91693 261.07837,176.51981C260.53601,176.11922 260.91708,174.87238 260.28302,174.51947C259.66238,174.17403 258.78534,173.82079 258.72836,173.0878C258.65137,172.09746 258.95276,171.08482 258.55902,170.35313C258.19089,169.66902 257.77261,168.89235 257.30035,168.51981C256.771,168.1022 256.18646,167.79532 255.78285,167.16714C255.27847,166.38213 255.24855,166.01776 254.72569,165.43448C254.11337,164.7514 255.24168,163.50781 254.72552,162.7628C254.33183,162.19456 253.99214,161.90234 253.72569,161.09447C253.50175,160.4155 253.08232,159.99689 252.50436,159.51981C251.90025,159.02115 251.69521,158.70805 250.81102,158.51981C249.96425,158.33952 249.29369,157.8038 248.50436,157.29848L247.8472,156.64131L247.07835,156.51981L246.72569,155.94514" id="svg_10" stroke-width="3" stroke="#000" fill="none"/>
  <path t="19337,19405,19425,19437,19453,19465,19473,19476,19493,19497,19505,19517,19525,19537,19541,19544,19558,19573,19581,19601,19613,19613,19633,19641,19673,19677,19761,19841" d="M278.72568,144.51981C278.72568,145.3983 278.16006,145.67305 277.72568,146.43448C277.34421,147.10313 276.98688,147.87772 276.64035,148.60381C276.2558,149.40958 275.18988,149.73758 274.73636,150.54514C274.30344,151.31602 274.11172,151.80275 273.50436,152.3983C272.93146,152.96007 273.13425,153.60558 272.44168,154.34914C271.92343,154.90556 271.48279,155.08986 270.89236,155.68648C270.26974,156.31564 270.40182,157.4064 269.72568,157.49898C268.73331,157.63484 268.72568,158.46265 267.89236,158.68648L267.72568,159.49898L267.72568,160.3983L267.72568,161.23581" id="svg_11" stroke-width="3" stroke="#000" fill="none"/>
  <path t="20369,20421,20449,20469,20481,20490,20501,20510,20521,20533,20536,20557,20557,20560,20569,20589,20617,20633,20641,20657,20676,20709,20717,20728,20741,20761,20773,20792,20792,20813,20829,20841,20853,20869,20897,20909,20917,20921,20941,20960,20981,21001,21001,21021,21033,21057,21073,21094,21096,21109,21129,21149,21152,21173,21188,21189,21200,21210,21229,21237,21249,21256,21272,21293,21310,21317,21336,21340,21368,21368,21396,21404,21424,21452,21452,21490,21496" d="M272.72568,168.51981C273.60419,168.51981 274.51669,168.87082 275.30035,168.51981C275.91193,168.24588 276.30978,167.47069 276.74652,167.01981C277.30225,166.44608 277.76611,165.98668 278.22568,165.49898C278.77347,164.91763 278.4834,163.86804 278.84003,163.22514C279.31116,162.37584 280.47537,162.51665 280.72568,161.94514C281.06839,161.16269 281.43729,160.45982 281.72568,159.64131C281.99075,158.88898 282.70526,158.29826 282.72568,157.35313C282.74368,156.51923 283.68295,156.52307 283.72568,155.68648C283.76718,154.87352 284.49643,154.64661 284.72568,154.07713C285.04382,153.28677 285.24911,152.91286 285.72568,152.35313C286.26715,151.71713 286.66479,151.30486 286.72568,150.43448C286.78961,149.52071 286.93262,149.08243 287.55902,148.51981C288.0563,148.07314 287.72568,146.94514 287.72568,146.01981C287.72568,145.16714 287.72568,144.18648 287.72568,143.37047C287.72568,142.46265 287.72568,141.5558 287.72568,140.68648C287.72568,139.87247 287.53387,139.12729 287.0097,138.52113C286.54654,137.98549 286.8624,136.87363 286.44168,136.23581C285.91217,135.43306 285.72568,134.68648 285.72568,133.81447C285.72568,133.0878 285.08591,132.36023 284.73636,131.53047C284.39114,130.711 284.36206,130.20155 283.81104,129.51981C283.35776,128.95901 283.02939,128.2406 282.72568,127.35314C282.44421,126.53063 282.521,126.07345 281.89236,125.51981C281.34067,125.03392 281.86407,123.94065 281.72568,123.08781C281.58182,122.20132 281.07312,121.53093 280.72568,120.8038C280.37936,120.07903 279.43103,119.87247 278.72568,119.74114L278.64035,120.51981" id="svg_12" stroke-width="3" stroke="#000" fill="none"/>
  <path t="22265,22305,22313,22325,22333,22344,22357,22365,22373,22377,22389,22396,22396,22405,22412,22417,22425,22428,22437,22444,22444,22453,22465,22468,22468,22473,22485,22501,22505,22509,22525,22533,22540,22553,22561,22562,22569,22585,22589,22594,22601,22609,22613,22628,22641,22649,22661,22669,22673,22685,22689,22701,22705,22713,22721,22729,22744,22749,22761,22773,22789,22801,22809,22828,22841,22852,22864,22864,22889,22925,22944,22944,22948,22968,23001,23033,23045,23061,23073,23085,23105,23109,23145,23153,23185,23193,23205,23221,23229,23244,23265,23273,23301,23309,23325,23328,23345,23345,23368,23401,23409,23433,23449,23462,23468,23493,23512,23541,23541,23549,23589,23604,23609,23613,23636,23645,23717" d="M248.72569,104.51981C248.72569,105.39831 247.86964,105.56976 247.72569,106.43447C247.5941,107.22493 248.06522,108.24674 247.70486,109.01981C247.35191,109.77702 246.72569,110.39848 246.72569,111.23581C246.72569,112.09447 246.49524,112.95798 246.15103,113.66914C245.71866,114.56248 245.9834,115.56065 245.72569,116.35314C245.46281,117.16157 244.86807,117.82455 244.72552,118.7413C244.58636,119.6363 243.86986,120.19724 243.72569,121.01981C243.57695,121.86853 243.89294,122.86583 243.6897,123.65847C243.47108,124.51102 242.77515,124.87379 242.72569,125.8038C242.68297,126.60721 242.14075,127.29659 241.72569,128.01981C241.39488,128.59622 241.09773,129.1902 240.70436,129.94514C240.30803,130.7058 239.04123,130.33105 238.72569,131.01981C238.34026,131.86111 238.03683,132.45045 237.78285,133.22514C237.48283,134.14024 237.07732,134.68774 236.73019,135.57248C236.39734,136.42085 237.14105,137.50186 236.66853,138.16714C236.15091,138.89594 236.13414,139.49699 235.66853,140.16714C235.1821,140.86728 235.12236,141.35191 234.6897,142.09447C234.28625,142.78688 233.72569,143.22514 233.72569,144.18648C233.72569,145.01981 233.19554,145.62971 232.81102,146.43448C232.46359,147.16161 232.02939,147.79901 231.72569,148.68648C231.44914,149.49463 232.14616,150.60844 231.64037,151.23581C231.07339,151.93904 230.72569,152.35313 230.72569,153.22514C230.72569,153.95181 230.92651,155.04379 230.72569,155.87247C230.5542,156.58011 229.28595,156.22438 228.7977,156.94514C228.31444,157.65854 228.72569,158.74113 228.72569,159.57697C228.72569,160.49898 227.80943,160.67418 227.72569,161.52431C227.64001,162.39409 228.17931,163.3389 227.72569,164.18648C227.44214,164.71629 226.91602,164.96489 226.72569,165.87247C226.58061,166.56432 225.86757,166.75287 225.72569,167.60513C225.58174,168.46985 224.72569,168.68648 224.72569,169.5558C224.72569,170.43448 223.86945,170.57164 223.72569,171.48381C223.59036,172.34253 222.8716,172.46976 222.72569,173.0878C222.52718,173.9287 222.92957,175.10402 222.4417,175.51981C221.87131,176.00592 222.29166,176.94241 221.6897,177.51981C221.05557,178.12805 220.72569,178.35313 220.72569,179.16714C220.72569,180.09447 220.26022,180.32407 219.43103,180.51981C218.66354,180.70099 218.72569,181.74113 218.72569,182.63414C218.72569,183.51981 218.72569,184.40547 218.00969,184.51981L217.72569,185.16714L217.72569,186.09447" id="svg_13" stroke-width="3" stroke="#000" fill="none"/>
  <path t="40469,40540,40580,40608,40628,40660,40700,40700,40725,40736,40744,40768,40800,40808,40828,40868,40900,40925,40944,40944,40964,40976,40996,41004,41020,41040,41072,41096,41116,41132,41136,41140,41160,41192,41215,41252,41260,41276,41300,41312,41340,41360,41373,41395,41400,41404,41404,41456,41493,41496,41532,41544,41564,41600,41636,41660,41692,41700,41716,41720,41724,41740,41761,41784,41816,41820,41856,41872,41884,41915,41932,41960,41968,42000,42000,42012,42020,42036,42056,42072,42072,42088,42100,42108,42128,42132" d="M194.72569,156.51981C194.72569,155.64131 194.00969,155.51981 193.15103,155.51981C192.22569,155.51981 191.30035,155.51981 190.39236,155.51981C189.57635,155.51981 189.33708,155.86676 188.70486,156.49898C188.07265,157.1312 187.5804,157.04463 187.07835,157.57697C186.49342,158.19719 186.72569,159.16714 186.72569,160.09447C186.72569,161.01981 186.72569,161.87247 186.72569,162.85313C186.72569,163.66914 186.72569,164.57697 186.72569,165.46265C186.72569,166.35313 186.72569,167.16714 186.72569,168.09447C186.72569,169.01981 186.72569,169.87247 186.72569,170.8038C186.72569,171.68648 186.72569,172.56148 186.72569,173.37047C186.72569,174.34914 186.72569,175.16714 186.72569,176.09447C186.72569,177.01981 186.48225,178.04915 187.00969,178.51981C187.56885,179.01878 187.15048,179.80994 187.72569,180.5153C188.26334,181.17461 188.72569,181.54063 188.72569,182.43448C188.72569,183.22514 188.65816,184.34709 189.29369,184.51981C190.12746,184.74638 191.23347,184.32468 191.94702,184.74113C192.69452,185.1774 193.35075,185.53629 193.72569,186.01981C194.12796,186.53856 195.07835,186.51981 195.94702,186.51981C196.81102,186.51981 197.73636,186.51723 198.64037,186.51981C199.43105,186.52206 200.06245,186.95413 200.72569,187.43448C201.40413,187.92584 202.39395,187.32396 203.30035,187.51981C204.13528,187.70021 204.88252,187.97266 205.55902,188.51981C206.07875,188.94017 206.32343,189.50105 206.72569,190.01981C207.10063,190.50333 207.45816,191.08116 208.15103,191.48381C208.93671,191.9404 210.15213,190.97116 210.72569,191.60513C211.33218,192.2755 211.72926,192.0795 212.4417,192.51981C212.98189,192.85367 212.60513,194.06645 213.15103,194.51981C213.64507,194.9301 214.15103,195.48381 214.73019,195.87247L215.22569,196.49898" id="svg_14" stroke-width="3" stroke="#000" fill="none"/>
  <path t="42661,42713,42736,42752,42760,42768,42780,42793,42793,42796,42808,42816,42820,42828,42835,42839,42848,42852,42856,42861,42872,42877,42888,42892,42896,42900,42912,42916,42928,42932,42940,42948,42961,42977,42980,42980,43008,43028,43036,43048,43072,43079,43112,43120,43131,43155,43155,43177,43184,43192,43207,43224,43232,43244,43256,43268,43284,43296,43296,43304,43312,43328,43348" d="M195.72569,157.51981C195.15103,158.09447 194.68295,158.87352 194.72569,159.74113C194.7684,160.60829 195.54523,161.11023 195.72569,161.94514C195.94063,162.93951 195.64647,163.74721 196.22569,164.47813C196.65062,165.01436 197.15302,165.58582 197.60419,166.39847C197.98724,167.08842 198.33414,167.70506 198.89636,168.23581C199.53381,168.83755 200.37411,168.88641 200.81102,169.60381C201.27544,170.36636 202.27678,170.72714 202.70486,171.51981C203.11075,172.27136 203.62006,172.60025 203.73636,173.37047C203.88808,174.3752 204.45586,174.85706 205.00969,175.43448C205.54897,175.99672 206.19012,176.30492 206.72702,176.8038C207.31407,177.34929 208.12421,177.29398 208.72603,177.74113C209.36189,178.21358 210.02185,178.46701 210.94702,178.51981C211.72908,178.56444 211.97086,178.94038 212.66853,179.51981C213.23015,179.98622 213.15077,180.73373 213.72569,181.3983C214.20084,181.94754 214.72569,182.16714 214.72569,183.0878C214.72569,183.81447 214.62407,184.96117 215.15103,185.48381C215.6436,185.97235 215.72569,186.8038 215.72569,187.74113C215.72569,188.57697 215.72569,189.48381 215.72569,190.3983C215.72569,191.23581 215.68828,192.09521 215.72702,193.0878C215.75545,193.81606 216.30035,194.49847 216.72569,195.09447L216.72569,195.94514L216.72569,196.87247" id="svg_15" stroke-width="3" stroke="#000" fill="none"/>
  <path t="44416,44500,44503,44520,44520,44545,44548,44548,44564,44580,44584,44604,44608,44623,44636,44648,44660,44684,44696,44708,44736,44768,44768,44796,44804,44816,44836,44856,44869,44900,44900,44904,44948,44964,45020,45023,45092,45140,45156,45163,45264,45316,45360,45412,45452,45504,45504,45572,45580,45616,45680,45692,45764,45836,45876,45916,45924,45960,45972,45983,45999,45999,46036,46060,46072,46100,46103,46113,46120,46140,46155,46187,46215,46231,46251,46271,46280,46299,46315,46339,46355,46355,46375,46391,46391,46407,46428,46447,46459,46475,46492,46499,46507,46511,46515,46527,46535,46552,46559,46575,46580,46596,46613,46619,46628,46648,46648,46667,46679,46688,46707,46716,46732,46732,46759,46771,46780,46793" d="M230.72569,192.51981C229.87503,192.51981 228.84972,192.48259 228.72569,193.0878C228.55225,193.93422 228.62897,195.15874 229.43103,195.46265C230.11256,195.72089 230.61247,196.0316 231.07835,196.52431C231.58827,197.06358 231.65314,197.942 232.22569,198.49898C232.67303,198.93414 233.29805,199.20714 233.72569,199.74113C234.21535,200.35257 234.16174,200.73059 234.72569,201.3983C235.19431,201.95313 235.65039,202.19206 235.94702,202.96248C236.23091,203.69978 236.1143,204.86676 236.74652,205.49898C237.37874,206.1312 237.82558,206.07259 238.37303,206.51981C238.84688,206.90689 239.22037,207.27837 240.02036,207.57697C240.82391,207.87691 241.28287,208.36403 241.72569,208.87247C242.19077,209.40645 242.55814,209.88588 242.72569,210.8038C242.86026,211.54105 243.09845,211.82889 243.72569,212.48381C244.30263,213.0862 245.4417,212.51981 246.30035,212.51981C247.22569,212.51981 248.07835,212.51981 249.05902,212.51981C249.87503,212.51981 251.03477,213.14705 251.6897,212.51981C252.29208,211.94287 252.58061,211.56432 252.72569,210.87247C252.9007,210.03796 252.87775,209.08191 252.72569,208.16714C252.61351,207.49228 252.36955,207.16499 251.72119,206.51981C251.10167,205.90332 250.77574,205.66571 250.1577,205.51981C249.3168,205.32129 248.1687,205.67542 247.72569,205.16714C247.26123,204.63426 246.73079,204.40546 246.72569,203.51981C246.72035,202.59177 246.15938,202.38634 245.72569,201.8038C245.34291,201.28963 244.9362,200.99554 244.72569,200.09447C244.57986,199.47026 243.72569,199.29848 243.72569,198.43448C243.72569,197.54063 243.72569,196.64131 243.72569,195.8038C243.72569,194.94514 243.72569,193.95181 243.72569,193.22514C243.72569,192.23581 244.02478,191.45934 244.4417,190.8038C244.88919,190.1002 244.72569,189.09447 244.72569,188.16714C244.72569,187.29848 244.81802,186.42986 244.72569,185.50914C244.64194,184.67395 243.73103,184.44786 243.72569,183.66914C243.7186,182.63417 243.72569,181.8038 243.72569,180.94514C243.72569,180.01981 243.92082,179.01202 243.50436,178.29848C243.0681,177.55098 243.01585,176.82158 242.72569,176.01981C242.49953,175.39487 241.73103,174.94519 241.72569,173.95181C241.72179,173.22516 242.08228,171.99695 241.50436,171.51981C240.90132,171.02193 241.16507,170.39517 240.72569,169.60513C240.32216,168.87953 239.29369,168.8038 238.72569,168.23581L238.50436,167.51981L237.72569,167.68648L237.72569,168.57697" id="svg_16" stroke-width="3" stroke="#000" fill="none"/>
  <path t="47484,47504,47516,47524,47536,47544,47552,47556,47564,47568,47571,47576,47584,47592,47595,47603,47608,47611,47624,47629,47635,47644,47652,47664,47668,47675,47688,47692,47692,47712,47736,47747,47764,47784,47792,47803,47812,47837,47844,47856,47872,47872,47883,47903,47908,47912,47931,47944,47972,48004,48024,48032,48052,48072,48104,48108,48131,48131,48147,48172,48172,48192,48204,48216,48236,48264,48264,48296,48324,48328" d="M220.72569,198.51981C221.00969,199.43448 221.81102,199.60513 222.4417,200.23581C223.07835,200.87247 223.86629,201.18675 224.55902,201.68648C225.26726,202.19737 225.58839,202.70538 225.74652,203.51981C225.92758,204.45239 226.72878,204.91637 227.30035,205.50914C227.77106,205.99728 228.20097,206.75542 228.89502,207.23581C229.6115,207.73174 230.27443,207.75993 230.89236,208.35313C231.50357,208.93988 232.13567,209.05698 232.72437,209.60513C233.36624,210.2028 233.45587,210.85703 234.00969,211.43448C234.54883,211.99664 235.1413,212.26363 235.60419,212.96248C235.99919,213.55884 235.61601,214.74837 235.72569,215.57697C235.83733,216.42024 236.7256,216.60513 236.72569,217.53047C236.72578,218.3983 237.62885,218.50575 237.72569,219.16714C237.86015,220.08537 238.34645,220.5762 238.72569,221.09447C239.08823,221.58989 240.27682,221.22409 240.72569,221.87247C241.19383,222.54868 241.3504,223.46841 241.64037,224.34914C241.90002,225.13782 242.56686,225.50909 243.15103,225.94514C243.90269,226.50621 244.78285,226.51981 245.6897,226.51981C246.55902,226.51981 247.49779,226.94977 248.30035,226.48381C248.99339,226.08144 249.33792,225.79272 250.1577,225.51981C250.83096,225.29565 250.72569,224.18648 250.72569,223.37047C250.72569,222.43448 250.72569,221.52431 250.72569,220.64131C250.72569,219.8038 250.1577,219.51981 249.29369,219.51981L248.30035,219.51981L247.50436,219.29848L246.89236,218.68648" id="svg_17" stroke-width="3" stroke="#000" fill="none"/>
  <path t="49956,50056,50084,50108,50128,50144,50149,50164,50188,50188,50196,50224,50244,50256,50259,50275,50287,50299,50304,50324,50356,50380,50380,50399,50408,50444,50476,50496,50516,50548,50580,50631,50664,50676,50712,50715,50792" d="M257.72568,176.51981C257.72568,177.3983 257.72568,178.23581 257.72568,179.09447C257.72568,180.01981 257.71152,180.94167 257.15103,181.50914C256.72299,181.9425 256.55902,182.85313 256.22568,183.51981C255.78285,184.40547 256.19757,185.39851 255.66853,186.16714C255.18518,186.86942 254.72569,187.23581 254.72569,188.09447C254.72569,189.01981 254.0462,189.3595 253.73636,190.09447C253.40587,190.8784 253.72569,191.87247 253.72569,192.85313C253.72569,193.51981 253.72569,194.5558 253.72569,195.46265C253.72569,196.35313 253.68039,197.10222 253.15103,197.51981C252.67877,197.89235 252.72569,198.87247 252.72569,199.8038C252.72569,200.68648 252.72569,201.5558 252.72569,202.46265L252.72569,203.22514L252.72569,204.18648L252.72569,205.09447" id="svg_18" stroke-width="3" stroke="#000" fill="none"/>
  <path t="52060,52148,52175,52192,52212,52215,52231,52248,52267,52267,52296,52320,52331,52351,52359,52380,52416" d="M273.72568,118.51981C274.60419,118.51981 274.79028,119.13156 275.30035,119.51981C275.83359,119.92568 276.37302,120.51756 277.30035,120.51981C278.15103,120.52187 279.05902,120.51981 279.87503,120.51981C280.89236,120.51981 281.74777,120.5672 282.64035,120.51981C283.44507,120.47708 283.72568,119.57697 284.55902,119.51981L285.37302,119.51981" id="svg_19" stroke-width="3" stroke="#000" fill="none"/>
  <path t="53348,53388,53411,53443,53455,53455,53468,53476,53484,53503,53511,53516,53528,53535,53544,53548,53552,53552,53556,53563,53569,53571,53575,53584,53587,53592,53596,53603,53608,53608,53612,53616,53624,53628,53635,53644,53652,53656,53671,53687,53687,53703,53704,53716,53723,53731,53748,53748,53764,53771,53783,53787,53796,53804,53812,53816,53816,53823,53827,53832,53847,53852,53856,53869,53876,53884,53887,53896,53907,53912,53912,53931,53936,53952,53956,53964,53971,53976,53991,54007,54012,54032,54036,54052,54064,54076,54087,54091,54103,54111,54116,54128,54144,54156,54168,54175,54192,54203,54211,54232,54236,54252,54255,54276,54276,54287,54299,54307,54319,54328,54332,54347,54348,54359,54364,54371,54383,54399,54407,54419,54428,54433,54448,54452,54460,54464,54471,54484,54487,54491,54503,54507,54525,54527,54531,54544,54544,54552,54560,54560,54567,54571,54580,54587,54592,54600,54603,54611,54623,54623,54628,54632,54643,54652,54660,54664,54668,54671,54680,54687,54691,54703,54707,54711,54720,54724,54731,54740,54748,54748,54753,54760,54764,54771,54771,54783,54787,54792,54800,54800,54807,54812,54820,54824,54827,54831,54843,54847,54853,54859,54864,54871,54880,54887,54891,54900,54907,54919,54924,54927,54939,54953,54959,54967,54979,54983,54992,55000,55011,55027,55039,55047,55052,55063,55079,55087,55091,55103,55111,55120,55124,55128,55128,55139,55148,55159,55168,55171,55183,55191,55203,55211,55220,55239,55251,55252,55268,55287,55311,55324,55331,55343,55352,55363" d="M422.72568,45.51981C422.72568,44.6413 422.0097,44.51981 421.15103,44.51981C420.15768,44.51981 419.41995,44.37209 418.44168,44.51981C417.7005,44.63173 417.37433,45.49121 416.44168,45.51981C415.55945,45.54686 414.67303,45.51981 413.77835,45.51981C412.89236,45.51981 412.01276,45.42175 411.20486,45.54064C410.21704,45.68602 409.58627,46.21492 408.61237,46.43447C407.74338,46.63037 406.88995,46.3242 406.0257,46.57697C405.14807,46.83366 404.42706,47.49121 403.5257,47.51981C402.62616,47.54835 401.61133,47.23338 400.89236,47.68647C400.18735,48.13078 399.54041,48.51447 398.61102,48.51981C397.72568,48.52489 396.7261,48.16339 396.0097,48.60514C395.2092,49.09875 394.61206,49.19963 393.77835,49.52431C392.98843,49.83193 392.35327,50.26689 391.55902,50.68647C390.87213,51.04935 390.15271,51.43482 389.43103,51.51981C388.48483,51.63124 387.78174,52.18644 387.07837,52.51981C386.30734,52.88523 386.34073,54.12464 385.55902,54.51981C384.7832,54.912 383.69351,54.18127 383.0097,54.60514C382.21036,55.10063 381.54303,55.29829 380.84686,55.74114C380.11618,56.20596 379.51141,56.27866 378.48737,56.52431C377.71927,56.70856 377.14639,57.34452 376.44168,57.80381C375.6937,58.2913 374.98309,58.47828 374.30035,58.94514C373.52609,59.47459 373.052,60.08778 372.30035,60.48381C371.54001,60.88441 370.95529,60.97926 370.28302,61.3983C369.55322,61.85323 368.63092,61.90191 367.89236,62.35314C367.22778,62.75917 367.2222,63.51772 366.72568,64.27681C366.37601,64.81139 365.85016,65.32635 365.30035,65.94514C364.67734,66.64632 363.97903,66.83469 363.72552,67.74114C363.50925,68.51447 362.72568,68.74114 362.72568,69.60514C362.72568,70.52431 362.25385,70.89665 361.73019,71.57697C361.17706,72.29559 361.72568,73.37048 361.72568,74.27681C361.72568,75.09447 361.07602,75.67406 360.72568,76.51997C360.38962,77.33147 360.33923,78.32768 360.72568,79.09447C361.04745,79.73293 361.44806,80.06782 361.73019,80.87247C361.99448,81.62624 362.66483,82.01772 363.22568,82.49897C363.8764,83.05731 363.92072,84.02132 364.73636,84.51981C365.50769,84.99122 366.0141,84.90968 366.73019,85.46264C367.38776,85.97041 368.44168,85.51981 369.2937,85.51981C370.15768,85.51981 370.82147,86.07456 371.66852,86.46264C372.37335,86.78555 373.37302,86.51981 374.22568,86.51981C375.15103,86.51981 376.07837,86.51981 376.94702,86.51981C377.80969,86.51981 378.73468,86.51981 379.57635,86.51981C380.48285,86.51981 381.37302,86.52472 382.22568,86.51981C383.15109,86.51447 383.65555,85.74606 384.37302,85.52431C385.29343,85.23984 386.28741,85.69045 387.0097,85.23581C387.76532,84.7602 388.44168,84.51981 389.2937,84.51981C390.15768,84.51981 391.32306,84.60052 391.67303,83.81448C391.97379,83.13899 392.58334,82.68007 393.33636,82.4838C394.17877,82.26424 394.89365,81.5668 395.75104,81.51981C396.53055,81.47707 397.20959,80.73914 398.07837,80.51981C399.02917,80.27975 399.80594,80.88093 400.74036,80.4838C401.55002,80.1397 402.19241,79.78922 403.07837,79.5153C403.79584,79.29349 404.32816,78.88828 405.20486,78.49897C405.91577,78.18328 406.56509,77.92963 407.37302,77.46264C408.05734,77.06709 408.67752,76.51987 409.43103,76.51981C410.48285,76.51972 411.05331,75.95754 411.80969,75.52114C412.57153,75.08157 413.24878,74.81963 413.89236,74.18647C414.42368,73.66375 414.7067,72.74413 415.43021,72.46264C416.26178,72.13911 416.78809,71.22372 417.44168,70.8038C418.21265,70.30848 418.80466,69.78965 419.58704,69.54514C420.53268,69.2496 421.2843,68.95053 421.94702,68.29847C422.56396,67.69145 423.15115,67.0777 423.92435,66.60381C424.66333,66.15089 425.30496,65.69511 426.0097,65.23581C426.75772,64.74832 427.52295,64.44794 427.70486,63.51981C427.87527,62.65032 428.54489,62.35017 428.72568,61.52431C428.88403,60.80099 430.03638,61.18747 430.71671,60.46264C431.32291,59.8168 431.34143,59.2718 431.74652,58.51981C432.12503,57.81717 432.47009,57.131 432.72702,56.23581C432.94809,55.46554 433.72568,55.16714 433.72568,54.34914C433.72568,53.51981 433.83081,52.57204 434.30035,51.94514C434.83188,51.23546 434.74393,50.23562 434.72568,49.35314C434.70767,48.48325 433.9061,47.92941 433.72568,47.09447C433.54431,46.25518 433.35928,45.72619 432.78287,45.16714C432.2576,44.6577 431.50427,44.53115 430.66437,44.51981C429.87482,44.50914 428.95947,44.07997 428.74704,43.37047C428.49332,42.52304 427.45313,43.04676 426.74652,42.49897C426.04218,41.95295 425.67303,41.51981 424.77835,41.51981C423.89236,41.51981 423.4281,41.19402 422.72552,40.6413C422.15488,40.19238 421.07837,40.51981 420.15768,40.51981C419.43103,40.51981 418.37302,40.51981 417.50436,40.51981C416.55902,40.51981 415.72568,40.54064 415.72437,41.43447L414.89236,41.51981L414.07837,41.51981L413.15103,41.51981" id="svg_20" stroke-width="3" stroke="#000" fill="none"/>
  <path t="56020,56107,56123,56143,56163,56179,56187,56199,56204,56215,56227,56235,56247,56255,56263,56275,56283,56283,56295,56315,56321,56335,56339,56347,56363,56367,56367,56379,56395,56399,56415,56423,56427,56439,56439,56447,56455,56467,56475,56495,56507,56515,56523,56528,56539,56543,56543,56547,56555,56559,56571,56575,56580,56591,56599,56611,56612,56616,56620,56631,56636,56636,56643,56658,56663,56663,56692,56715,56739,56760,56775,56792,56795,56799,56811,56839,56884,56891,56915,56944,56952,56991,56991,57019,57035,57060,57071" d="M421.72568,47.51981C421.72568,48.3983 421.68417,49.26241 422.15103,49.94514C422.68048,50.7194 422.72568,51.54064 422.72568,52.43447C422.72568,53.22514 422.86975,54.19902 422.72568,55.01981C422.58151,55.8411 422.2431,56.65364 421.72568,57.35314C421.27429,57.96336 421.17416,58.57174 420.72568,59.23581C420.30011,59.86591 419.25342,59.47745 418.72568,60.01981C418.26221,60.49612 417.73636,61.09447 417.30035,61.53047C416.73636,62.09447 416.12427,62.11942 415.30035,62.54114C414.53687,62.93193 414.91544,64.20641 414.22568,64.51981C413.44937,64.87252 412.86929,65.16571 412.30035,65.51981C411.59894,65.95637 410.85385,66.45889 410.02036,66.51981C409.29562,66.57277 408.82693,67.23661 408.07837,67.5153C407.2085,67.83917 406.75052,68.20291 406.15103,68.51981C405.39584,68.91901 404.67242,69.21804 403.84702,69.51997C403.09811,69.79391 402.43863,70.46455 401.52435,70.52114C400.83655,70.56372 399.95511,71.05419 399.05902,71.35314C398.25287,71.62209 397.61545,72.0499 396.80969,72.43447C396.08362,72.78101 395.0463,72.28813 394.22568,72.51981C393.41104,72.74979 393.30533,73.89924 392.52704,74.34914C391.74643,74.80038 390.73688,74.52322 390.02036,74.87247C389.29007,75.22845 388.29562,75.42632 387.37302,75.51981C386.54636,75.60356 386.04395,76.37598 385.15103,76.51981C384.31119,76.65509 383.37302,76.51981 382.44168,76.51981C381.55902,76.51981 380.68402,76.51981 379.87503,76.51981C378.89636,76.51981 378.07834,76.52562 377.15103,76.51981C376.30029,76.51447 375.73636,75.94514 375.22568,75.51981C374.71503,75.09448 373.99847,74.70198 373.72568,74.07714C373.3848,73.2963 373.72568,72.29847 373.72568,71.43447L373.73636,70.51981L374.60419,70.51981" id="svg_21" stroke-width="3" stroke="#000" fill="none"/>
  <path t="58888,58911,58918,58923,58932,58943,58951,58951,58963,58967,58975,58987,58995,59007,59015,59015,59027,59031,59031,59035,59046,59047,59051,59056,59067,59075,59083,59091,59095,59103,59111,59111,59115,59123,59127,59131,59131,59135,59147,59151,59156,59156,59164,59164,59168,59172,59175,59183,59188,59191,59195,59203,59207,59211,59211,59223,59227,59231,59235,59235,59243,59247,59251,59256,59263,59263,59268,59271,59275,59283,59288,59291,59295,59307,59312,59315,59316,59323,59323,59327,59331,59332,59335,59343,59348,59348,59351,59352,59352,59356,59356,59363,59368,59368,59372,59372,59375,59375,59383,59383,59387,59391,59391,59395,59396,59403,59407,59411,59411,59415,59415,59416,59423,59423,59427,59431,59435,59435,59444,59444,59447,59451,59452,59452,59456,59456,59463,59467,59467,59472,59475,59475,59483,59484,59487,59488,59491,59491,59496,59503,59507,59511,59511,59515,59515,59524,59524,59527,59531,59535,59543,59547,59551,59556,59563,59568,59568,59572,59575,59587,59587,59591,59595,59603,59611,59615,59623,59631,59635,59647,59667,59684,59695,59708,59711,59723,59727,59744,59747,59751,59756,59767,59775,59795,59824,59843,59859,59867,59879,59887,59899,59903,59924,59947,59967,59987" d="M13.72569,194.51981C14.74653,194.51981 15.52703,194.51981 16.44036,194.51981C17.37303,194.51981 18.22569,194.51981 19.16836,194.51981C20.02036,194.51981 20.94703,194.51981 21.80969,194.51981C22.72569,194.51981 23.64036,194.51981 24.44169,194.51981C25.37303,194.51981 25.94896,193.91812 26.37303,193.22514C26.83022,192.47803 27.82586,192.51981 28.61103,192.51981C29.54036,192.51981 30.48286,192.51981 31.24653,192.51981C32.22569,192.51981 33.11502,192.51981 34.00969,192.51981C34.89236,192.51981 35.77836,192.51981 36.67303,192.51981C37.52703,192.51981 38.36853,192.51981 39.29502,192.51981C40.07753,192.51981 41.08969,192.52049 42.02569,192.51981C42.92569,192.51913 43.67619,192.27158 44.42569,191.87247C45.24588,191.43571 46.17177,191.64694 47.02569,191.5153C47.95835,191.37154 48.59056,190.71707 49.37836,190.57697C50.23013,190.42548 51.20486,190.51981 52.12569,190.51981C53.02569,190.51981 53.92569,190.51981 54.82569,190.51981C55.72569,190.51981 56.64169,190.51981 57.43019,190.51981C58.36169,190.51981 59.20836,190.51981 60.01586,190.51981C61.08286,190.51981 61.92569,190.51981 62.82569,190.51981C63.72569,190.51981 64.5257,190.51981 65.42569,190.51981C66.32569,190.51981 67.22569,190.51981 68.13636,190.51981C69.04703,190.51981 69.90036,190.51981 70.84036,190.51981C71.72569,190.51981 72.64169,190.51981 73.43019,190.51981C74.32569,190.51981 75.22569,190.51981 76.11503,190.51981C77.08286,190.51981 77.92702,190.51981 78.89236,190.51981C79.72569,190.51981 80.55903,190.51981 81.4212,190.51981C82.36169,190.51981 83.20969,190.51981 84.07303,190.51981C85.08969,190.51981 85.92702,190.51981 86.89236,190.51981C87.56169,190.51981 88.72569,190.51981 89.5257,190.51981C90.32569,190.51981 91.32119,190.51981 92.06853,190.51981C93.10036,190.51981 93.89746,190.59341 94.72569,190.49898C95.71825,190.3858 96.31105,189.81786 97.21103,189.60513C98.109,189.39288 99.12436,189.51981 99.88969,189.51981C100.84036,189.51981 101.84058,189.43152 102.61102,189.60513C103.40372,189.78377 104.21765,190.34184 105.08969,190.48381C106.01865,190.63504 106.89236,190.51981 107.74653,190.51981C108.72569,190.51981 109.5257,190.51981 110.32569,190.51981C111.32119,190.51981 112.06853,190.52225 113.08969,190.51981C114.0302,190.51755 114.89236,190.35313 115.72569,190.01981C116.55903,189.68648 117.42119,189.52206 118.26736,189.51981C119.26836,189.51715 119.97636,189.51981 120.72036,189.51981C121.91586,189.51981 122.60836,189.51981 123.55103,189.51981C124.55903,189.51981 125.4297,189.61893 126.24653,189.49898C127.23568,189.35373 127.91418,188.86031 128.92552,188.64131C129.69354,188.47501 130.55902,188.51981 131.47836,188.51981C132.37836,188.51981 133.07303,188.51981 134.08969,188.51981C135.0257,188.51981 135.92641,188.55557 136.82602,188.51964C137.54172,188.49106 138.49277,188.23264 139.22569,188.01981C140.39091,187.68143 141.05319,187.53781 142.0257,187.51981C142.92554,187.50314 143.82553,187.51981 144.72569,187.51981C145.52702,187.51981 146.42569,187.51981 147.3257,187.51981C148.24652,187.51981 149.20969,187.51981 149.90036,187.51981C150.96402,187.51981 151.81099,187.56845 152.72569,187.51981C153.5291,187.47708 154.26289,186.77295 155.12569,186.5558C155.99481,186.33707 156.94719,186.51981 157.82553,186.51981C158.70486,186.51981 159.57635,186.51981 160.4827,186.51981C161.30035,186.51981 162.22569,186.51981 163.15103,186.51981C164.00969,186.51981 164.95497,186.63661 165.80969,186.51981C166.627,186.40811 167.07695,185.5484 167.94702,185.51981C168.83505,185.49062 169.72569,185.51981 170.61586,185.51981C171.55902,185.51981 172.37303,185.51981 173.30035,185.51981C174.15103,185.51981 175.07835,185.51981 175.94702,185.51981C176.89236,185.51981 177.74652,185.51981 178.64037,185.51981C179.43103,185.51981 180.39236,185.51981 181.30035,185.51981L182.15103,185.51981L183.07835,185.51981L183.94702,185.51981" id="svg_22" stroke-width="3" stroke="#000" fill="none"/>
  <path t="60976,60995,61015,61024,61035,61043,61043,61047,61059,61059,61063,61067,61075,61079,61083,61087,61087,61099,61103,61103,61108,61108,61115,61119,61119,61124,61127,61135,61135,61139,61139,61143,61148,61148,61157,61157,61159,61159,61165,61165,61165,61167,61167,61175,61179,61179,61183,61187,61187,61195,61199,61199,61203,61203,61215,61223,61227,61239,61255,61255,61263,61275,61279,61283,61287,61295,61299,61308,61315,61315,61319,61319,61327,61339,61343,61343,61355,61359,61367,61375,61379,61387,61387,61395,61403,61403,61408,61415,61416,61419,61423,61423,61435,61439,61443,61443,61447,61459,61463,61463,61475,61475,61479,61483,61487,61496,61503,61515,61539,61544,61547,61555,61559,61563,61567,61575,61583,61595,61603,61608,61608,61615,61619,61619,61623,61627,61635,61635,61639,61639,61643,61647,61655,61659,61659,61664,61664,61667,61676,61679,61683,61687,61695,61699,61703,61707,61707,61715,61720,61724,61727,61735,61743,61748,61755,61759,61764,61767,61775,61779,61783,61784,61787,61796,61799,61803,61807,61815,61819,61823,61827,61839,61843,61843,61847,61859,61863,61875,61883,61897,61900,61904,61908,61915,61923,61927,61939,61947,61947,61956,61967,61979,61983,61995,61995,62003,62015,62015,62022,62023,62031,62038,62051,62059,62063,62076,62079,62083,62095,62103,62103,62115,62119,62123,62131,62135,62139,62143,62151,62155,62155,62159,62163,62171,62171,62176,62176,62179,62179,62183,62192,62192,62195,62195,62199,62199,62199,62203,62203,62211,62211,62215,62219,62219,62219,62223,62224,62224,62231,62235,62235,62239,62243,62251,62255,62259,62263,62263,62276,62279,62283,62292,62295,62299,62303,62311,62315,62315,62320,62323,62323,62331,62335,62339,62351,62359,62376,62383,62393,62393,62399,62403,62419,62419,62431,62439,62455,62463,62476,62476,62492,62499,62511,62519,62531,62539,62543,62555,62559,62571,62571,62576,62583,62593,62596,62599,62611,62611,62615,62619,62623,62639,62643,62660,62663,62679,62693,62703,62735,62739,62759,62776,62779,62783,62799,62823,62836,62843,62871,62919,62939,62955,62971,62991,63011,63019,63023,63032,63035,63051,63063,63079,63095,63111,63119,63131,63138,63151,63151,63160,63163,63176,63179,63191,63199,63211,63227,63231" d="M48.72569,8.51981C47.72569,9.49897 47.72569,10.39831 47.72569,11.23581C47.72569,12.09447 47.95616,12.95798 48.30036,13.66914C48.73273,14.56248 49.08758,15.25764 49.87503,15.54514C50.70626,15.84862 51.30304,16.461 51.75103,17.13047C52.24315,17.8659 52.48953,18.7868 52.94703,19.61964C53.32696,20.31128 54.21998,20.79476 54.60436,21.61997C54.94703,22.35565 55.12708,23.15355 55.44169,24.03581C55.77897,24.98163 56.06486,25.8364 56.52703,26.31981C57.20037,27.02409 58.04645,27.41101 58.89236,27.68647C59.74578,27.96438 60.59009,28.25513 61.42119,28.57247C62.17458,28.86014 63.04237,29.44102 63.74652,29.49897C64.72261,29.57931 65.55054,29.37463 66.55903,29.68647C67.28898,29.91218 68.26556,30.42593 68.97636,30.48381C69.71857,30.54424 70.75636,30.51981 71.60836,30.51981C72.55103,30.51981 73.55903,30.51981 74.31503,30.51981C75.24653,30.51981 76.20969,30.51981 76.90036,30.51981C77.97302,30.51981 78.89236,30.51981 79.72569,30.51981C80.55903,30.51981 81.43909,30.5084 82.37302,30.51981C83.22588,30.53022 83.72344,31.16713 83.72569,32.09447C83.7278,32.96247 83.72569,33.81447 83.72569,34.80381C83.72569,35.68647 84.03455,36.57393 83.72436,37.43581C83.4589,38.17339 82.7437,38.91927 82.72569,39.81531C82.70819,40.6863 82.48623,41.4786 82.15102,42.15581C81.67323,43.12107 81.7257,43.95047 81.72569,44.87247C81.72569,45.80514 82.05174,46.54843 82.4417,47.23447C82.89513,48.03221 83.27406,48.73483 83.89236,49.35314C84.51067,49.97145 85.15015,50.29713 85.94719,50.74114C86.61302,51.11205 87.1179,51.82017 87.89236,52.35314C88.50092,52.77194 89.55103,52.51981 90.55903,52.51981C91.31503,52.51981 92.33654,52.44001 92.92436,53.08781C93.49667,53.71851 93.94719,54.51981 94.82569,54.51981C95.72569,54.51981 96.5257,54.51981 97.44036,54.51981C98.37236,54.51981 99.22165,54.66573 100.01586,54.51981C100.93816,54.35035 101.034,53.29364 101.82552,52.76281C102.59989,52.24347 103.50902,52.4052 104.2897,51.94514C105.06167,51.49021 106.22501,51.06728 106.72569,51.68647C107.26276,52.35067 107.00976,53.4955 106.50436,54.27697C106.03104,55.00884 105.90931,55.82278 105.4417,56.43581C104.92642,57.11132 104.3439,58.07496 104.94703,58.51981C105.70781,59.08093 106.72569,58.51981 107.5257,58.51981C108.48286,58.51981 109.37836,58.51981 110.24169,58.51981C111.20486,58.51981 112.05002,58.59829 112.89236,58.35314C113.75413,58.10233 114.5479,57.60791 115.4212,57.52431C116.32159,57.43811 117.24654,57.54559 118.03019,57.16714C118.91907,56.73787 119.55054,56.53781 120.55903,56.51981C121.42106,56.50442 122.32569,56.51981 123.22569,56.51981C124.12569,56.51981 125.0257,56.51981 125.92569,56.51981C126.82569,56.51981 127.72569,56.51743 128.60452,56.51981C129.43555,56.52206 130.27055,56.54332 131.08969,56.94514C131.95834,57.37125 132.69002,57.69246 133.43019,58.16714C134.13959,58.6221 134.94252,58.90688 135.72569,59.35314C136.50551,59.79748 137.07762,60.34694 137.67302,60.87247C138.31116,61.43573 138.77188,62.12501 139.57635,62.50514C140.37843,62.88414 140.4115,63.71388 141.08286,64.40997C141.72784,65.07872 142.55109,65.45869 143.1617,65.94514C143.87131,66.51045 144.82692,66.46915 145.75102,66.51981C146.53053,66.56254 147.21037,67.30052 148.08736,67.51981C149.0182,67.75256 149.97949,67.37939 150.65369,67.94514C151.20383,68.40679 151.70769,68.94461 151.72569,69.87247C151.74376,70.80363 151.54517,71.71028 151.74652,72.54064C151.92578,73.27991 152.43642,74.22425 152.72569,74.94514C152.97821,75.57446 153.59029,76.02953 153.72569,76.94514C153.84659,77.7626 154.33415,78.36165 154.72437,79.23447C155.06268,79.9912 155.42047,80.8932 156.00969,81.43447C156.68568,82.05547 157.50882,82.09389 158.22569,82.51981C158.7998,82.86091 158.40936,84.08791 159.05902,84.51981C159.73923,84.97201 160.70485,85.01904 160.72569,85.87247C160.74843,86.80353 160.72569,87.68647 160.72569,88.57247C160.72569,89.46714 160.72569,90.32114 160.72569,91.16264C160.72569,92.09447 160.72513,92.96247 160.72569,93.81448C160.72636,94.8038 161.26569,95.39494 161.72569,96.04064C162.21956,96.73387 162.61833,97.59556 163.33636,98.09447C164.05913,98.59668 165.07576,98.38815 165.8257,98.74114C166.60123,99.10619 167.42177,99.58006 168.13635,99.94514C169.04231,100.40798 169.74635,100.50938 170.72569,100.51981C171.51498,100.52821 172.55902,100.51981 173.42119,100.51981C174.24652,100.51981 175.21103,100.51981 175.93636,100.51981C176.92569,100.51981 177.72569,100.51981 178.72569,100.51981C179.5257,100.51981 180.3257,100.51981 181.3257,100.51981C182.12569,100.51981 183.12436,100.51981 184.06853,100.51981C184.97302,100.51981 185.89378,100.48664 186.76736,100.54064C187.41434,100.58064 188.41,100.79781 189.20486,101.01981C189.95796,101.23014 191.06387,101.5018 192.04703,101.51981C192.72559,101.53223 193.70419,101.51981 194.72569,101.51981C195.55902,101.51981 196.31024,101.92499 197.02119,102.47164C197.71367,103.0041 197.45529,103.85251 197.72702,104.8038C197.94962,105.58308 198.80902,106.10345 198.37303,106.81531C197.86719,107.64121 197.71506,108.37561 197.11502,109.1198C196.58772,109.77379 195.95956,110.54453 195.67302,111.2198C195.30786,112.08035 194.88895,112.84941 194.70036,113.69447C194.48831,114.64475 193.80954,115.33928 193.72569,116.09447C193.62358,117.01415 193.41792,118.13314 194.00969,118.51981C194.79451,119.03262 195.64803,118.80602 196.44035,119.23581C197.19167,119.64336 198.11502,119.51981 199.05902,119.51981C199.87503,119.51981 200.72569,119.60514 200.72569,120.49897C200.72569,121.39831 200.72569,122.23581 200.72569,123.08781C200.72569,123.95181 200.72569,124.94514 200.72569,125.8038C200.72569,126.74114 200.72562,127.60514 200.72569,128.49448C200.72578,129.3983 201.15746,129.88737 201.94702,130.3983C202.65239,130.85475 203.69394,130.73761 204.3257,131.09447C205.16832,131.57045 206.15466,131.36357 206.92436,131.8038C207.7084,132.25224 208.44191,132.41406 209.16837,132.96248C209.79742,133.43736 210.46614,134.05632 211.15103,134.53047C211.80682,134.98448 212.36548,135.67937 212.71503,136.50914C213.0603,137.32878 212.72569,138.23581 212.72569,139.09447C212.72569,140.01981 212.4901,140.97847 212.72702,141.8038C212.94814,142.57407 214.31046,142.16534 214.72569,142.69048C215.24025,143.34122 215.0731,144.46254 216.00969,144.51981C216.89072,144.57368 217.72569,144.5558 217.72569,145.43448C217.72569,146.35313 217.72569,147.16714 217.72569,148.09447C217.72569,148.94514 217.72569,149.87247 217.72569,150.8038C217.72569,151.68648 217.72569,152.54114 217.72569,153.37047C217.72569,154.35048 217.72569,155.16714 217.72569,156.09447C217.72569,156.94514 217.72569,157.87247 217.72569,158.8038C217.72569,159.68648 217.72569,160.5558 217.72569,161.43581C217.72569,162.35313 217.59352,163.23726 217.72569,163.95181C217.90501,164.92125 218.70769,165.49394 218.72569,166.39847C218.74236,167.23564 218.72569,168.09447 218.72569,169.01981L218.72569,169.94514L218.72437,170.8038L218.30035,171.48381" id="svg_23" stroke-width="3" stroke="#000" fill="none"/>
  <path t="63828,63851,63867,63875,63887,63891,63895,63899,63899,63907,63911,63915,63915,63919,63927,63927,63931,63931,63935,63935,63935,63939,63939,63947,63947,63951,63951,63955,63955,63960,63960,63968,63971,63971,63971,63975,63979,63979,63987,63987,63991,63995,63999,64007,64019,64027,64035,64055,64067,64075,64087,64091,64095,64099,64107,64111,64111,64119,64128,64131,64131,64135,64135,64135,64139,64139,64147,64147,64151,64151,64155,64160,64160,64160,64167,64167,64171,64175,64175,64179,64187,64191,64195,64199,64199,64211,64215,64219,64227,64231,64235,64239,64251,64255,64267,64267,64275,64287,64295,64307,64317,64323,64323,64328,64328,64331,64344,64347,64355,64375,64403,64411,64423,64429,64447,64455,64455,64475,64487,64495,64507,64515,64528,64531,64544,64547,64555,64563,64567,64571,64571,64575,64583,64590,64607,64615,64628,64651,64663,64663,64667,64671,64675,64683,64691,64695,64707,64711,64715,64731,64749,64751,64751,64763,64767,64771,64783,64787,64795,64807,64811,64828,64828,64831,64847,64854,64863,64875,64891,64907,64907,64915,64923,64928,64931,64944,64951,64955,64967,64975,64987,64995,65007,65012,65035" d="M184.72569,99.51981C184.72569,98.6413 184.71603,97.80375 184.72569,96.94514C184.73611,96.01963 185.54053,95.52708 185.72119,94.75814C185.92499,93.89075 185.55238,92.98427 185.74652,92.04064C185.92493,91.17343 186.4646,90.48384 186.80969,89.7198C187.15663,88.95165 187.86763,88.22034 188.20486,87.51981C188.66347,86.56716 188.73259,85.83286 189.16853,84.97714C189.54187,84.24432 190.05641,83.50939 190.70419,82.66264C191.18935,82.02847 191.72861,81.3549 192.12569,80.69447C192.73015,79.68913 193.17198,79.17818 193.72569,78.35314C194.15207,77.71783 194.47903,76.66151 194.75102,75.93047C195.07123,75.06982 195.73256,74.35726 196.12569,73.69447C196.53285,73.008 197.10742,72.13807 197.72569,71.51981C198.34396,70.90154 199.07664,70.46514 199.70486,70.01981C200.60344,69.38281 201.07338,68.68784 201.67302,68.16714C202.30382,67.61938 202.8356,66.98966 203.64037,66.60514C204.36749,66.25771 205.54247,66.44559 205.72569,67.09447C205.95686,67.91312 205.72569,68.87698 205.72569,69.7198C205.72569,70.6198 205.53542,71.54004 205.72702,72.43714C205.90723,73.28088 206.28195,74.21607 207.08286,74.51981C207.96864,74.85573 208.89236,74.51981 209.74652,74.51981C210.72569,74.51981 211.5638,74.65024 212.24036,74.34914C213.07143,73.97926 213.40436,73.08939 214.20969,72.40514C214.84834,71.8625 215.64906,71.33823 216.42119,70.87698C217.10634,70.46768 218.06763,70.38089 218.97636,70.08381C219.72816,69.83804 220.62581,69.47693 221.30435,68.91981C221.97118,68.37231 222.31239,67.37635 222.80969,66.80514C223.33948,66.19662 224.20387,65.85744 224.70036,65.13047C225.17123,64.44101 225.87526,63.91941 226.36853,63.22514C226.89694,62.48139 227.65166,62.14827 228.22569,61.51981C228.76747,60.92666 229.72807,61.02294 230.4827,60.51964C231.07619,60.1238 231.59615,59.56581 232.22569,59.01981C232.93794,58.40208 233.40746,57.66364 234.30035,57.51981C235.1402,57.38452 236.07835,57.51981 236.94702,57.51981C237.82303,57.51981 238.78819,57.51981 239.48569,57.51981C240.58269,57.51981 241.30435,57.51981 242.28969,57.51981C243.1617,57.51981 244.02119,57.51981 244.94702,57.51981C245.89236,57.51981 246.92293,58.05162 247.64037,57.51847C248.33812,56.99995 248.48502,56.27312 248.72569,55.43447C248.95158,54.64734 249.87498,54.52514 250.89236,54.51981C251.74651,54.51533 252.64037,54.51981 253.4417,54.51981C254.37303,54.51981 254.89621,54.93142 255.4417,55.51847C255.9406,56.05537 256.28513,56.72858 256.94702,57.39847C257.55643,58.01523 258.17239,58.48273 259.04684,58.51997C259.86438,58.5548 260.58987,59.04245 261.30035,59.50914C262.01804,59.98057 262.93405,59.95381 263.60419,60.51981C264.159,60.98841 263.76044,62.09512 263.72437,63.08914C263.69589,63.87311 263.12912,64.61211 262.78287,65.46714C262.49786,66.17094 262.72568,67.16264 262.72568,68.04064C262.72568,68.99897 262.7135,69.8856 263.22568,70.51981C263.69989,71.10703 264.19061,71.77747 264.73019,72.52881C265.18433,73.16116 265.22025,74.04671 265.73636,74.94514C266.14655,75.65916 266.29367,76.29287 266.76169,77.09447C267.16571,77.78651 267.81897,78.05622 268.30035,78.55581C268.85638,79.13287 269.38315,79.21321 270.15768,79.60514C270.91342,79.98754 271.27313,80.6019 271.76169,81.09447C272.28433,81.62142 273.49908,81.40372 273.72568,82.01981C274.05106,82.90453 273.72568,83.66914 273.72568,84.68647C273.72568,85.61964 273.64291,86.40405 273.15103,87.09447C272.63657,87.81664 272.70853,88.74131 272.72568,89.60381C272.74368,90.50967 273.66476,90.73456 273.72568,91.57697C273.79218,92.49657 273.72568,93.37048 273.72568,94.27681L274.30035,94.51981" id="svg_24" stroke-width="3" stroke="#000" fill="none"/>
  <path t="65960,66039,66063,66075,66083,66091,66099,66103,66112,66112,66119,66131,66135,66139,66151,66155,66159,66171,66179,66191,66191,66199,66203,66215,66219,66223,66231,66243,66259,66271,66283,66295,66311,66311,66323,66343,66355,66371,66379,66383,66391,66403,66415,66435,66451,66471,66471,66495,66523,66562,66595,66603" d="M127.72569,16.51981C127.72569,17.39831 127.71603,18.23586 127.72569,19.09447C127.73611,20.01998 128.54532,20.51572 128.72569,21.35314C128.89696,22.14824 128.72569,23.00247 128.72569,23.95047C128.72569,24.87247 128.72569,25.80514 128.72569,26.61964C128.72569,27.54514 128.72569,28.46714 128.72569,29.22431C128.72569,30.16264 128.72569,31.09447 128.72569,31.94514C128.72569,32.85314 128.72569,33.66914 128.72569,34.68647C128.72569,35.54514 128.37148,36.6489 128.89636,37.23581C129.48074,37.88922 130.64001,37.79226 130.72569,38.74114C130.80086,39.57359 130.72569,40.48381 130.72569,41.35314C130.72569,42.23581 130.72569,43.08781 130.72569,43.95181C130.72569,44.87247 130.72569,45.80381 130.72569,46.74114C130.72569,47.57697 130.69728,48.41267 129.87503,48.53047C128.95393,48.66243 128.72569,49.55581 128.72569,50.43447C128.72569,51.35314 128.72569,52.16714 128.72569,53.08781C128.72569,53.81447 128.72569,54.87247 128.72569,55.80381L128.72569,56.68647L128.72569,57.48381L128.72569,56.60514" id="svg_25" stroke-width="3" stroke="#000" fill="none"/>
  <path t="67112,67155,67179,67187,67187,67207,67219,67227,67235,67235,67247,67255,67259,67280,67287,67307,67311,67331,67351,67367,67374,67396,67407,67427,67427,67447,67455,67471,67487" d="M127.72569,17.51981C127.89236,16.68647 128.74702,16.50914 129.43103,16.16714C130.1577,15.80381 131.23347,15.71493 131.94702,15.29847C132.74968,14.83 132.91499,13.89615 133.37303,13.22514C133.90872,12.44037 134.41161,12.02448 135.07835,11.57697C135.80119,11.09181 136.5108,11.05537 137.00969,10.51847C137.55518,9.93142 137.72569,9.23581 137.72569,8.29847C137.72569,7.46264 137.72569,6.54064 137.72569,5.64131C137.72569,4.80381 137.72569,3.95181 137.72569,3.08781C137.72569,2.09447 137.37303,1.51981 136.72569,1.29847L136.64037,0.51981" id="svg_26" stroke-width="3" stroke="#000" fill="none"/>
  <path t="68052,68111,68135,68151,68167,68167,68183,68195,68211,68231,68235,68267,68287,68311,68316,68332,68335,68351,68367,68371,68407,68407,68427,68431,68451,68464,68487,68507,68523,68543,68555,68567,68571,68583,68587,68587,68595,68607,68611,68623,68631,68635,68647,68655,68664,68667,68671,68675,68687,68695,68703,68715,68727,68735,68747,68764,68767,68771,68775,68783,68791,68807,68823,68836,68851,68855,68870,68887,68895,68915,68923" d="M126.72569,-0.48019C126.72569,0.39831 126.72569,1.23581 126.72569,2.09447C126.72569,3.08781 126.72569,3.81447 126.72569,4.80381C126.72569,5.74114 127.07572,6.67476 126.72569,7.51981C126.41468,8.27065 126.01592,9.06557 125.50436,9.51981C124.90891,10.04852 124.42254,10.31797 123.55903,10.51981C122.77993,10.70192 122.43114,11.23013 121.66853,11.57697C120.90879,11.92251 120.82659,12.96847 120.72569,13.81447C120.63976,14.53505 119.42906,13.81956 118.72569,14.53047C118.11533,15.14739 118.72569,16.23581 118.72569,17.16714C118.72569,18.01981 118.72569,18.94514 118.72569,19.87247C118.72569,20.74114 118.92989,21.70449 118.4417,22.43714C118.00178,23.09735 117.72794,23.81446 117.72569,24.80381C117.72369,25.68647 117.72569,26.54514 117.72569,27.43581C117.72569,28.35314 117.72569,29.16714 117.72569,30.09447C117.72569,30.95581 117.72569,31.81531 117.72569,32.68914C117.72569,33.51981 117.72569,34.53447 117.72569,35.43581C117.72569,36.35314 117.72569,37.16714 117.72569,38.09447C117.72569,38.94514 117.72569,39.87247 117.72569,40.80381C117.72569,41.68647 117.72569,42.54064 117.72569,43.37047C117.72569,44.35047 117.72569,45.16714 117.72569,46.09447C117.72569,46.94514 117.72569,47.87247 117.72569,48.80381C117.72569,49.68647 118.28701,50.06702 118.72569,50.68647C119.24034,51.4132 118.72569,52.48381 118.72569,53.37047L118.72569,54.27681" id="svg_27" stroke-width="3" stroke="#000" fill="none"/>
  <path t="69427,69479,69523,69579,69603,69611,69622,69632,69639,69643,69648,69651,69651,69659,69667,69671,69679,69683,69691,69699,69703,69711,69723,69727,69731,69743,69751,69767,69803,69831,69863,69943,69979,69987,70051,70059,70187,70199,70199,70207,70207,70215,70215,70223,70227,70235,70239,70243,70243,70247,70247,70255,70255,70259,70263,70267,70267,70275,70279,70283,70283,70287,70287,70295,70299,70303,70307,70307,70315,70319,70323,70327,70336,70339,70339,70348,70355,70359,70367,70375,70384,70407" d="M72.72569,11.51981C72.72569,10.64131 72.00969,10.51981 72.30036,10.51981C73.22569,10.51981 74.15102,10.51981 75.00969,10.51981C75.94719,10.51981 76.82552,10.51981 77.70036,10.51981C78.48736,10.51981 79.37836,10.51981 80.24169,10.51981C81.18403,10.51981 82.16169,10.51981 83.0257,10.51981C83.92436,10.51981 84.80969,10.51981 85.72569,10.51981C86.60436,10.51981 87.47676,10.46616 88.15102,10.94514C88.88245,11.46473 89.72569,11.51981 90.61586,11.51981C91.55903,11.51981 92.37302,11.51981 93.30036,11.51981C94.15102,11.51981 95.07836,11.51981 95.94703,11.51981C96.89236,11.51981 97.7617,11.51981 98.64036,11.51981C99.43102,11.51981 100.5531,11.45294 100.72569,12.09447C100.95119,12.93267 101.01057,13.98697 100.39236,14.68647C99.89244,15.25212 98.85113,15.58995 98.72836,16.31981C98.55695,17.33883 98.72569,18.13047 98.72569,19.01981C98.72569,19.93047 98.72569,20.84131 98.72569,21.73047C98.72569,22.71964 98.72569,23.49897 98.72569,24.49831C98.72569,25.21531 98.72569,26.11981 98.72569,27.04064C98.72569,28.00381 98.72569,28.69447 98.72569,29.76264C98.72569,30.61981 98.72569,31.51981 98.72569,32.27697C98.72569,33.34514 98.72569,34.0358 98.72569,34.99897C98.72569,35.91981 98.5527,36.94974 99.16836,37.61964C99.74046,38.24215 100.71503,38.54492 100.72569,39.32114C100.73804,40.21972 100.72569,41.1198 100.72569,42.04064C100.72569,43.00247 100.72569,43.80997 100.72569,44.74131C100.72569,45.61964 100.72569,46.54514 100.72569,47.43581L100.72569,48.23581L100.72569,49.16714L100.72569,50.01981" id="svg_28" stroke-width="3" stroke="#000" fill="none"/>
  <path t="71363,71424,71435,71451,71459,71463,71475,71479,71485,71485,71491,71495,71500,71511,71516,71519,71531,71535,71539,71543,71551,71555,71559,71563,71575,71583,71591,71595,71603,71616,71622,71642,71642,71663,71695,71819,71831,71871,71895,71919,71935,71951,71963,71979,71979,71995,71995,72015,72031,72053,72079,72091,72119,72154,72259,72263,72311,72322,72339,72359,72371,72375,72379,72391,72394,72407,72411,72415,72419,72431,72435,72447,72455,72455,72458,72468,72471,72475,72488,72491,72500,72511,72518,72531,72536,72539,72550,72567,72587,72594,72607,72631,72647,72675,72707,72735,72735,72879,72911,72918,72934,72947,72955,72955,72967,72979,72987,72991,72995,73007,73011,73011,73027,73035,73055,73068,73071,73075" d="M151.72569,25.51981C151.72569,26.39831 151.72569,27.23581 151.72569,28.09447C151.72569,29.04064 151.72569,29.90914 151.72569,30.80514C151.72569,31.72114 151.72569,32.68647 151.72569,33.49897C151.72569,34.40997 151.72569,35.2243 151.72569,36.16264C151.72569,37.04064 151.72569,37.91981 151.72569,38.81531C151.72569,39.74131 151.72569,40.61964 151.72569,41.49447C151.72569,42.28147 151.72569,43.16797 151.72569,44.18647C151.72569,45.04064 151.72569,45.90914 151.72569,46.80381C151.72569,47.74131 151.72569,48.61964 151.72569,49.49447C151.72569,50.3983 151.72569,51.23581 151.72569,52.09447C151.72569,53.08781 151.72569,53.81447 151.72569,54.80381C151.72569,55.74114 151.08037,56.87216 151.72569,57.51847C152.34641,58.14013 153.4417,57.51981 154.30035,57.51981C155.22569,57.51981 156.15477,57.4398 157.00969,57.51981C157.90405,57.6035 158.40721,58.37595 159.29369,58.51981C160.01097,58.63621 161.07835,58.51981 161.94702,58.51981C162.89236,58.51981 163.97197,57.92633 164.64037,58.51981C165.17957,58.99856 165.31136,59.46716 165.74652,59.01981C166.3035,58.44725 166.72569,57.94514 166.72569,57.01981C166.72569,56.16714 166.72569,55.23581 166.72569,54.40547C166.72569,53.51981 166.72569,52.58114 166.72569,51.68647C166.72569,50.87247 166.88931,50.07397 167.37303,49.46714C167.88852,48.82045 167.72569,47.80514 167.72569,46.90914C167.72569,46.04064 167.72569,45.09447 167.72569,44.18647C167.72569,43.33447 167.72569,42.40647 167.72569,41.51981C167.72569,40.71847 167.72569,39.80514 167.72569,38.90914C167.72569,38.04064 167.72569,37.09447 167.72569,36.16714C167.72569,35.29847 167.72569,34.44781 167.72569,33.66914C167.72569,32.63414 167.76721,31.77719 167.30035,31.09447C166.7709,30.32021 166.72569,29.49897 166.72569,28.60514C166.72569,27.68647 166.72569,26.87247 166.72569,25.94514C166.72569,25.09447 166.8045,24.18266 166.72569,23.37047C166.64197,22.50768 165.70486,22.51981 164.81102,22.51981C163.89236,22.51981 162.90906,22.44487 162.72569,23.08781C162.48874,23.91868 162.30035,24.51981 161.37303,24.51981C160.55637,24.51981 159.72569,24.52131 158.71103,24.51981C157.80969,24.51847 157.5033,23.7331 157.00969,23.08781C156.49132,22.41013 155.4417,22.51981 154.55902,22.51981L153.72569,22.54114L153.72569,23.37047L153.72569,24.34914" id="svg_29" stroke-width="3" stroke="#000" fill="none"/>
  <path t="73651,73683,73695,73707,73715,73726,73726,73731,73735,73743,73743,73747,73751,73755,73763,73768,73768,73771,73771,73775,73783,73787,73791,73803,73807,73811,73811,73815,73827,73827,73830,73835,73843,73851,73855,73868,73875,73883,73887,73891,73895,73895,73907,73911,73923,73931,73935,73946,73955,73963,73971,73974,73983,73987,73995,74003,74015,74030,74051,74207,74223,74243,74251,74275,74283,74290,74295,74307,74315,74315,74327,74331,74343,74348,74355,74366,74367,74371,74375,74383,74387,74391,74391,74403,74407,74414,74423,74431,74435,74443,74447,74452,74455,74463,74467,74471,74483,74487,74491,74496,74503,74511,74516,74516,74527,74531,74535,74547,74553,74555,74563,74570,74583,74590,74591,74595,74607,74615,74623,74631,74643,74652,74663,74670,74679,74683,74687,74691,74702,74711,74722,74731,74743,74746,74759,74771,74779,74783,74790,74802,74819,74827,74831,74842,74852,74859,74879,74886,74906,74926,74926,74943,74963,74970,74970,74999,75006" d="M134.72569,15.51981C135.60419,15.51981 136.4417,15.51981 137.30035,15.51981C138.22569,15.51981 139.16853,15.51981 139.91103,15.51981C140.96852,15.51981 141.8257,15.51981 142.72569,15.51981C143.5257,15.51981 144.42569,15.46264 145.22569,15.01981C146.0257,14.57697 146.92569,14.51981 147.82587,14.51981C148.61102,14.51981 149.55103,14.51981 150.2417,14.51981C151.31503,14.51981 152.22569,14.51981 153.12569,14.51981C154.02119,14.51981 154.89627,14.43464 155.8257,14.51997C156.73714,14.60365 157.26212,15.28042 158.20486,15.49897C159.0372,15.69193 159.94995,15.22894 160.80836,15.60514C161.57603,15.94157 162.28964,16.51447 163.1617,16.51981C164.11501,16.52564 165.00969,16.51981 165.89236,16.51981C166.82553,16.51981 167.60971,16.61205 168.26736,17.01981C169.14133,17.56167 170.01584,17.51756 170.94702,17.51981C171.80969,17.52189 172.72569,17.51981 173.60435,17.51981C174.4417,17.51981 175.30035,17.51981 176.24652,17.51981C177.11502,17.51981 178.00969,17.51981 178.89502,17.51981C179.72569,17.51981 180.70486,17.51981 181.60435,17.51981C182.4417,17.51981 183.30035,17.51981 184.22569,17.51981C185.15103,17.51981 185.20277,17.16317 184.72569,17.74114C184.22704,18.34524 183.92752,18.82297 183.72569,19.68647C183.54359,20.46557 182.72569,20.74114 182.72569,21.60381C182.72569,22.50914 182.3116,23.19755 182.00969,23.95181C181.65005,24.85028 181.72569,25.81531 181.72569,26.74114C181.72569,27.60381 182.01091,28.56744 181.72552,29.39847C181.46121,30.16812 180.75429,30.81844 180.72569,31.71847C180.6983,32.5807 180.72569,33.38114 180.72569,34.35314C180.72569,35.23314 180.72569,36.13047 180.72569,36.99897C180.72569,37.95581 180.72569,38.81531 180.72569,39.74131C180.72569,40.61964 180.72569,41.49447 180.72569,42.28147C180.72569,43.16797 180.72569,44.18647 180.72569,45.04064C180.72569,45.91981 180.72569,46.81531 180.72569,47.74131C180.72569,48.6198 180.72569,49.51981 180.72569,50.39847C180.72569,51.23581 180.72569,52.06147 180.72569,53.00247C180.72569,53.80997 180.72569,54.80514 180.72569,55.71847C180.72569,56.60381 180.72569,57.51981 180.72569,58.39847C180.72569,59.2243 180.72569,60.16264 180.72569,61.01981C180.72569,61.94514 180.72569,62.85314 180.72569,63.66914C180.72569,64.60247 180.72569,65.49448 180.72569,66.39848C180.72569,67.23581 180.72569,68.09447 180.72569,69.01981C180.72569,69.94514 180.72569,70.8038 180.72569,71.74114C180.72569,72.58114 180.72569,73.37048 180.72569,74.40997C180.72569,75.23581 180.72569,76.09447 180.72569,77.01981C180.72569,77.94514 180.72569,78.8038 180.72569,79.74114C180.72569,80.60381 180.72569,81.5153 180.72569,82.39864C180.72569,83.22514 180.72569,84.18647 180.72569,85.01981C180.72569,85.94514 180.72569,86.8038 180.72569,87.74114C180.72569,88.60381 180.71939,89.42599 179.87503,89.53047C178.95157,89.64474 178.72569,90.53047 178.72569,91.43447C178.72569,92.23581 178.72569,93.22514 178.72569,93.95181C178.72569,94.94514 178.72569,95.87247 179.05902,96.51981L179.87503,96.51981L180.72569,96.57697L180.72569,97.46264" id="svg_30" stroke-width="3" stroke="#000" fill="none"/>
  <path t="75992,76019,76038,76038,76054,76059,76067,76074,76078,76087,76091,76095,76099,76107,76111,76111,76115,76115,76120,76127,76131,76131,76139,76147,76147,76155,76156,76159,76159,76167,76174,76179,76187,76195,76198,76206,76210,76215,76226,76230,76243,76243,76247,76250,76254,76266,76271,76282,76291,76295,76303,76310,76314,76320,76330,76330,76334,76343,76346,76347,76355,76363,76367,76371,76375,76383,76388,76391,76391,76404,76407,76410,76414,76423,76427,76430,76435,76442,76450,76463,76463,76471,76475,76487,76491,76496,76506,76514,76526,76534,76543,76543,76547,76554,76563,76574,76587,76604,76606,76615" d="M247.72569,7.51981C248.30035,6.94514 249.05902,6.51981 249.87503,6.51981C250.89236,6.51981 251.39375,5.972 252.07835,5.57697C252.88771,5.10996 253.99248,5.23792 254.77837,5.57697C255.47714,5.87844 256.22552,6.50715 257.1257,6.51981C258.03009,6.53252 258.89236,6.68648 259.72568,7.01981C260.55902,7.35314 261.33423,7.50836 262.1257,7.94514C262.94736,8.39858 263.85281,8.70901 264.44037,9.23581C265.11618,9.84174 265.7262,10.51928 266.2897,11.08381C267.01038,11.8058 267.54056,12.38578 267.6897,13.34514C267.79593,14.02847 267.72568,15.07314 267.72568,16.04064C267.72568,16.91981 267.93307,17.83887 267.72552,18.74114C267.54462,19.52765 266.67664,19.87899 266.15103,20.54514C265.64905,21.18138 265.37775,22.04861 264.64169,22.51847C263.94995,22.96005 263.8092,23.73452 263.30035,24.45847C262.79755,25.17381 262.18777,25.62834 261.72552,26.39847C261.31512,27.0822 260.72568,27.80381 260.72568,28.68647C260.72568,29.51981 260.96497,30.06666 261.55902,30.68647C262.15005,31.30314 262.36865,32.04582 262.89236,32.85314C263.30319,33.48645 264.01843,34.04929 264.60437,34.74131C265.21359,35.46084 265.42517,36.24091 265.74652,37.04064C266.06229,37.82646 266.66479,38.61335 266.72568,39.49447C266.78265,40.31917 266.72568,41.21981 266.72568,42.15581C266.72568,43.00247 266.72568,43.80997 266.72568,44.80514C266.72568,45.71981 266.98196,46.74472 266.50436,47.39847C265.99365,48.09754 265.99979,48.79023 265.64035,49.60381C265.30203,50.36956 264.73102,51.08376 264.72568,52.01981C264.72031,52.96246 264.72568,53.66914 264.72568,54.68647C264.72568,55.57247 264.72568,56.51981 264.72568,57.35314C264.72568,58.16714 264.72568,59.09447 264.72568,60.01981C264.72568,60.87247 264.72568,61.80647 264.72568,62.68647C264.72568,63.49897 264.72568,64.45847 264.72568,65.35314C264.72568,66.16714 264.72568,67.09447 264.72568,68.01981L264.72119,68.87247L264.22568,69.49897L263.72568,69.94514" id="svg_31" stroke-width="3" stroke="#000" fill="none"/>
  <path t="77531,77559,77572,77582,77595,77599,77603,77610,77614,77618,77618,77622,77631,77635,77635,77638,77643,77651,77651,77654,77654,77658,77658,77663,77671,77671,77674,77678,77683,77683,77691,77694,77699,77699,77702,77710,77714,77719,77719,77722,77731,77735,77738,77743,77751,77751,77755,77759,77771,77774,77779,77791,77795,77799,77811,77815,77815,77819,77822,77831,77835,77846,77858,77874,77879,77891,77895,77907,77907,77910,77915,77919,77927,77935,77947,77959,77991,77994,78018,78034,78038,78051,78055,78067,78067,78071,78075,78079,78088,78091,78091,78099,78106,78110,78115,78115,78119,78127,78134,78147,78155,78158,78167,78171,78179,78188,78191,78191,78195,78199,78199,78206,78211,78215,78227,78231,78235,78238,78251,78251,78258,78267,78271,78274,78279,78290,78306,78315,78331,78335,78339,78355,78395,78451,78479,78487,78494,78506,78515,78519,78530,78539,78551,78551,78555,78559,78572,78579,78595,78606,78614,78619,78631,78646,78651,78655,78658,78667,78674,78679,78687,78690,78695,78699,78709,78710,78710,78714,78719,78719,78726,78730,78735,78735,78746,78754,78759,78767,78771,78774,78779,78779,78790,78790,78795,78799,78806,78811,78815,78819,78831,78835,78839,78846,78851,78855,78855,78867,78867,78872,78875,78875,78879,78889,78890,78890,78894,78895,78899,78906,78906,78910,78910,78915,78919,78919,78926,78926,78926,78931,78935,78935,78939,78939,78947,78947,78951,78951,78955,78955,78956,78958,78967,78967,78971,78972,78974,78983,78983,78990,78991,78991,78994,78995,79003,79010,79014,79022,79030,79034,79046,79055,79074,79083,79094,79123,79126,79130,79130" d="M322.72568,116.51981C322.74652,117.51981 323.75665,117.18068 324.44168,117.60514C325.24121,118.10055 325.82657,118.47762 326.67303,118.51981C327.53021,118.56252 328.19736,119.14899 329.04703,119.39831C329.87271,119.64059 330.84036,119.51981 331.82568,119.51981C332.72568,119.51981 333.51923,119.61626 334.22568,120.01981C335.02307,120.4753 336.04703,120.51981 336.72568,120.51981C337.70435,120.51981 338.60968,120.51981 339.55103,120.51981C340.2417,120.51981 341.22568,120.51981 342.20969,120.51981C342.90036,120.51981 343.96854,120.51981 344.82568,120.51981C345.72568,120.51981 346.5257,120.51981 347.42569,120.51981C348.36169,120.51981 349.20969,120.51981 350.07303,120.51981C351.08969,120.51981 351.92569,120.51981 352.82568,120.51981C353.72568,120.51981 354.56012,120.71575 355.42569,120.46264C356.30331,120.20599 357.05194,119.74191 357.92435,119.51847C358.72943,119.31226 359.29199,118.56652 360.07751,118.52431C361.08826,118.46999 361.92435,118.51981 362.89236,118.51981C363.75104,118.51981 364.52704,118.51981 365.55902,118.51981C366.33636,118.51981 367.2897,118.51981 368.17236,118.51981C369.04703,118.51981 369.90054,118.53832 370.83902,118.51981C371.75156,118.5018 372.27197,117.75893 373.20486,117.54064C374.05563,117.34157 375.0097,117.51981 375.89236,117.51981C376.77835,117.51981 377.76138,117.80231 378.44168,117.43447C379.2948,116.97318 379.74637,116.53023 380.83902,116.51981C381.70032,116.5116 382.67923,116.94867 383.36853,116.46264C384.10056,115.9465 384.34055,115.62081 384.72568,116.16714C385.12543,116.73417 385.54367,117.25532 385.72568,118.09447C385.90674,118.92928 386.72437,119.51913 387.52704,119.51981C388.44037,119.52057 389.29501,119.51981 390.07751,119.51981C391.08969,119.51981 392.0257,119.51989 392.92569,119.51981C393.82568,119.51972 394.67606,119.2784 395.36853,118.87247C396.11737,118.4335 397.0257,118.51981 397.92703,118.51981C398.89236,118.51981 399.70486,118.51981 400.61584,118.51981C401.44168,118.51981 402.37302,118.51489 403.22568,118.51981C404.15109,118.52514 404.66235,119.29452 405.43021,119.5153C406.25626,119.75282 407.16168,119.51981 408.03018,119.51981C409.04703,119.51981 409.72568,119.51981 410.70419,119.51981C411.72568,119.51981 412.5257,119.51981 413.42569,119.51981C414.32568,119.51981 415.25177,119.24187 416.07837,119.52431C416.84976,119.78788 417.3363,120.51447 418.20486,120.51981C419.16833,120.52572 420.02036,120.51981 420.9472,120.51981C421.82553,120.51981 422.65601,120.62888 423.33636,121.09447C424.05481,121.58613 425.08319,121.42839 425.94702,121.51981C426.73889,121.6036 426.72568,122.56147 426.72568,123.37048C426.72568,124.34914 426.78821,125.08124 427.30035,125.51981C427.79895,125.94678 427.19556,126.62974 426.81104,127.43447C426.46359,128.16161 425.9061,128.5199 425.72568,129.35313C425.55341,130.14871 425.72568,131.09447 425.72568,131.94514C425.72568,132.85313 425.41418,133.75342 425.81104,134.60248C426.18948,135.41217 426.72568,136.01981 426.72568,136.94514C426.72568,137.8038 426.29074,138.99809 426.89236,139.51981C427.52002,140.0641 427.94882,140.08383 428.55902,140.68648C429.15582,141.27588 429.75516,140.95721 430.55502,141.52113C431.17548,141.95856 431.64169,142.51981 432.43021,142.51981C433.32568,142.51981 434.22568,142.51981 435.1257,142.51981C436.0257,142.51981 436.92569,142.51981 437.82587,142.51981C438.61102,142.51981 439.55103,142.51981 440.55902,142.51981C441.31503,142.51981 442.3168,142.14841 443.11502,142.54114C443.90454,142.92958 443.72742,143.95181 443.72568,144.94514C443.72406,145.87698 443.46088,146.73575 442.84702,147.39847C442.3165,147.97121 441.96185,148.78679 441.50436,149.61964C441.12445,150.31128 440.22998,150.65761 439.57635,151.13048C438.76163,151.71988 438.7345,152.68918 438.72568,153.51981C438.71527,154.49915 437.97806,155.06587 437.76169,155.90913C437.53882,156.77768 438.14746,157.62158 438.55902,158.35313C438.94089,159.03189 439.63013,159.34184 440.55902,159.68648C441.3349,159.97435 441.86237,160.86281 442.52704,161.23581C443.29294,161.66562 444.37836,161.51981 445.07303,161.51981C446.08969,161.51981 447.06888,161.40312 447.82587,161.74113C448.54083,162.06038 449.37701,162.48996 450.2417,162.51848C451.22516,162.5509 452.04703,162.51981 452.90036,162.51981C453.84171,162.51981 454.60968,162.51981 455.55103,162.51981C456.55902,162.51981 457.38702,162.51981 458.26837,162.51981C459.22568,162.51981 459.9577,162.51981 460.91586,162.51981C461.89236,162.51981 462.72568,162.51981 463.70435,162.51981C464.47836,162.51981 465.435,162.34299 466.2417,162.69048C467.07706,163.05032 467.4653,163.95134 468.26837,164.27681C469.17499,164.64424 469.9577,164.51846 471.06436,164.51981C471.89236,164.5208 472.72568,164.51981 473.70419,164.51981C474.52435,164.51981 475.36249,164.48361 476.37836,164.52431C477.07446,164.5522 478.04794,165.06911 478.89236,165.35313C479.69421,165.62285 480.55902,165.51981 481.4212,165.51981C482.36853,165.51981 483.24652,165.51981 484.1257,165.51981C485.02118,165.51981 485.9472,165.51981 486.82553,165.51981C487.74652,165.51981 488.64035,165.51981 489.43103,165.51981C490.39236,165.51981 491.22568,165.51981 491.73636,165.09447L492.30035,164.45847L492.66852,163.80997L492.72437,163.00247" id="svg_32" stroke-width="3" stroke="#000" fill="none"/>
  <path t="79692,79715,79723,79726,79731,79735,79735,79743,79747,79751,79751,79756,79763,79763,79767,79771,79771,79774,79774,79774,79783,79783,79787,79787,79787,79790,79790,79795,79795,79803,79806,79806,79810,79810,79814,79814,79814,79823,79826,79826,79831,79834,79842,79847,79847,79851,79856,79863,79867,79867,79871,79871,79874,79883,79887,79895,79907,79911,79923,79926,79935,79943,79946,79946,79951,79956,79963,79967,79971,79974,79983,79987,79990,79990,79994,80003,80003,80006,80006,80011,80015,80023,80027,80031,80032,80034,80042,80047,80051,80051,80056,80056,80063,80067,80071,80074,80083,80087,80087,80090,80103,80103,80107,80110,80110,80119,80123,80130,80139,80142,80147,80151,80151,80158,80158,80163,80167,80167,80171,80171,80178,80182,80187,80187,80187,80190,80190,80199,80199,80203,80207,80207,80207,80211,80219,80219,80223,80223,80227,80227,80231,80231,80240,80242,80242,80247,80247,80251,80251,80258,80259,80262,80266,80266,80271,80271,80279,80279,80283,80286,80290,80298,80307,80310,80327,80327" d="M427.72568,117.51981C428.37302,116.46264 428.89542,115.80499 429.72568,115.51981C430.55676,115.23433 430.8703,114.3439 431.15103,113.70514C431.57181,112.74767 432.16168,112.08381 432.82568,111.41981C433.32568,110.91981 433.94244,110.09363 434.72568,109.68647C435.46954,109.29978 436.2168,108.95546 437.04718,108.41981C437.72421,107.98309 438.72943,107.52716 439.3212,107.2198C440.07343,106.8291 441.00491,106.24079 441.47836,105.70547C442.09055,105.01331 442.54361,104.26388 443.07303,103.52514C443.69553,102.65652 444.19958,102.05632 444.82568,101.41981C445.42072,100.81487 446.03595,100.22991 446.72568,99.51981C447.33487,98.8926 447.79102,98.17559 448.24652,97.51981C448.84799,96.65389 449.63266,96.2635 450.15637,95.72114C450.85147,95.00127 450.72568,94.0358 450.72568,93.17247C450.72568,92.27697 450.72568,91.31981 450.72568,90.41981C450.72568,89.51981 450.72568,88.7198 450.72568,87.81981C450.72568,86.91981 450.77826,85.93797 450.15768,85.31847C449.64395,84.80566 449.01987,83.99263 448.67752,83.22964C448.34021,82.47791 447.48947,82.06867 447.0097,81.43581C446.44495,80.69082 446.72568,79.64114 446.72568,78.8038C446.72568,77.90914 446.72568,77.04064 446.72568,76.16264C446.72568,75.21531 446.85635,74.33916 446.70486,73.54064C446.52417,72.58807 445.74304,72.08438 445.72568,71.2198C445.70764,70.32132 446.33359,69.78072 446.6897,69.08381C447.12888,68.22438 447.13458,67.3925 447.55902,66.51981C447.87985,65.86014 448.31686,65.03608 448.60452,64.19864C448.87665,63.40645 449.39572,62.91609 450.15768,62.43714C450.8656,61.99215 450.72375,60.9002 451.15103,60.1198C451.60141,59.29725 451.57919,58.38577 451.81104,57.71981C452.11935,56.83416 452.70767,56.12034 452.72568,55.21531C452.74283,54.35331 452.72568,53.51981 452.72568,52.54131C452.72568,51.72114 452.90942,50.79331 452.6897,49.91981C452.47266,49.05697 451.7684,48.32283 451.72568,47.41981C451.68314,46.52081 451.61542,45.73521 451.15103,44.95581C450.70105,44.20061 450.72568,43.33447 450.72568,42.40514C450.72568,41.51981 450.72568,40.71981 450.72568,39.81981C450.72568,38.87697 451.27078,38.26664 451.60419,37.41981C451.93689,36.57478 452.0094,35.77254 452.72568,35.35314C453.36481,34.97891 453.61194,33.85508 453.77835,33.17247C454.00238,32.25353 454.72534,31.51947 455.32568,30.91981C455.92535,30.3208 456.54941,29.86253 457.42569,29.46714C458.17029,29.13117 459.05365,28.50746 459.73102,28.21981C460.46942,27.90624 461.44293,27.5921 462.18402,27.01981C462.8793,26.48287 463.45657,25.84896 464.0257,25.21531C464.76779,24.3891 465.09921,23.67843 465.5257,23.00381C465.9971,22.25812 466.72534,21.51947 467.32568,20.91981C467.9267,20.31947 468.46301,19.78908 469.37836,19.21981C470.05905,18.79647 470.85858,18.34023 471.4212,17.81981C472.15027,17.14542 472.82648,16.4206 473.32568,15.91981C474.02682,15.21642 474.547,14.64795 475.0257,13.86714C475.44467,13.18375 476.01144,12.26382 476.5257,11.72114C477.20724,11.00189 477.89572,10.28264 478.48285,9.81981C479.17566,9.27365 479.92688,8.95954 480.84036,8.32114C481.4397,7.90228 482.14832,7.36057 482.80969,6.80381C483.42648,6.28459 484.2897,5.94514 484.94702,5.29847L485.60419,4.64131L485.72568,3.81447L485.72568,3.08781" id="svg_33" stroke-width="3" stroke="#000" fill="none"/>
  <path t="81407,81438,81446,81459,81462,81475,81486,81502,81518,81524,81534,81539,81547,81555,81559,81559,81563,81567,81575,81582,81587,81594,81599,81614,81619,81626,81635,81642,81642,81647,81658,81682,81686,81714,81726,81735,81742,81758,81766,81774,81775,81779,81786,81786,81803,81818,81835,81847,81858,81867,81867,81878,81886,81898,81902,81907,81915,81923,81938,81955,81966,81983,81994,81999,82018,82039,82042,82047,82047,82058,82067,82075,82083,82094,82099,82108,82119,82123,82134,82134,82139,82142,82154,82162,82178" d="M276.72568,42.51981C277.74652,42.51981 278.64035,42.51981 279.43103,42.51981C280.39236,42.51981 281.22568,42.51981 282.15103,42.51981C283.07837,42.51981 283.94708,42.52961 284.80969,42.51981C285.72586,42.50939 286.22021,41.74129 287.08286,41.51981C288.00043,41.28422 288.90335,41.37876 289.70486,41.01981C290.49448,40.66619 291.34882,40.66641 292.20486,40.51981C293.04608,40.37574 293.67142,39.54841 294.43021,39.51981C295.36786,39.48446 295.9902,38.83644 296.77835,38.52431C297.63568,38.18478 298.22253,37.7581 299.05902,37.51981C299.84457,37.29602 300.5661,36.8747 301.15103,36.51981C301.85739,36.09124 302.67151,35.96508 303.37302,35.51981C303.89993,35.18534 304.37302,34.52206 305.30035,34.51981C306.15103,34.51774 307.26773,34.65179 307.64169,33.95181C308.05643,33.17546 308.37299,32.52431 309.2937,32.51981C310.15768,32.51558 311.07837,32.51981 312.0097,32.51981C312.89236,32.51981 313.90894,32.05858 314.6897,32.51981C315.38309,32.92941 315.29358,34.21881 316.15103,34.51981C316.96124,34.80421 317.94702,34.51981 318.78702,34.51981C319.57635,34.51981 320.55502,34.51981 321.44168,34.51981C322.30035,34.51981 323.22568,34.51981 324.15103,34.51981C325.0097,34.51981 325.41058,35.01667 326.07837,35.46264C326.85431,35.98085 327.9826,35.34772 328.64304,35.80381C329.29584,36.25463 330.02036,36.51756 331.0097,36.51981C331.89236,36.52181 332.77835,36.51981 333.67303,36.51981C334.55902,36.51981 335.37302,36.51981 336.30035,36.51981C337.16168,36.51981 338.14883,36.65396 339.05902,36.35314C339.76672,36.11924 340.55637,35.60514 341.37302,35.51981L342.30035,35.51981L343.22568,35.51981L343.72568,35.16714" id="svg_34" stroke-width="3" stroke="#000" fill="none"/>
  <path t="82571,82594,82610,82614,82618,82618,82630,82630,82635,82642,82651,82658,82658,82663,82675,82682,82694,82694,82699,82703,82710,82715,82723,82731,82735,82735,82739,82750,82755,82759,82762,82771,82775,82775,82778,82783,82792,82795,82795,82799,82802,82803,82810,82815,82819,82823,82831,82835,82842,82851,82855,82862,82871,82875,82878,82883,82892,82898,82910,82918,82934,82942,82951,82959,82982,82992,82998,83010,83022,83038,83042,83042,83051,83055,83062,83071,83075,83082,83094,83102,83110,83118,83123,83134,83138,83150,83155,83159,83162,83162,83175,83178,83182,83191,83194,83198,83202,83210,83214,83219,83219,83223,83230,83234,83234,83239,83239,83242,83251,83254,83259,83259,83262,83263,83271,83278,83283,83291,83294,83299,83310,83315,83318,83330,83331,83339,83342,83359,83362,83371,83390,83398,83402,83414,83419,83423,83430,83434,83434,83439,83442,83451,83455,83459,83462,83462,83475,83478,83478,83490,83494,83506,83510,83515,83515,83526,83534,83546,83551,83555,83559,83567,83576,83579,83579,83587,83594,83606,83614,83626,83638,83659" d="M335.72568,0.51981C335.15103,1.09447 334.41592,1.66328 333.84702,2.39864C333.35779,3.03101 333.15311,3.86357 332.55902,4.68647C332.06769,5.36703 331.81128,6.213 331.30035,6.94514C330.80063,7.66125 330.36301,8.25547 329.57635,8.54514C328.75488,8.84763 328.72568,9.87247 328.72568,10.74114C328.72568,11.68647 328.72568,12.40647 328.72568,13.33447C328.72568,14.27697 328.72568,15.13047 328.72568,16.08381C328.72568,16.95581 328.5527,17.94974 329.16837,18.61964C329.74048,19.24215 330.38208,19.66216 330.89236,20.35314C331.41156,21.05616 331.39532,21.97162 332.01102,22.43447C332.74445,22.98583 333.43921,23.01376 333.77835,23.81447C334.10181,24.57809 334.92899,25.063 335.82568,25.39831C336.6763,25.71639 337.53613,25.41937 338.36169,25.55581C339.2334,25.69986 340.043,26.28198 340.96854,26.46264C341.81152,26.62718 342.57697,26.8566 343.15103,27.49447C343.67188,28.07319 344.30045,28.60951 344.72568,29.35314C345.09186,29.99349 345.68643,30.81431 345.72568,31.68647C345.76407,32.54003 345.92194,33.53345 346.55902,34.18647C347.08618,34.72681 347.76953,35.02811 348.30035,35.51981C348.78192,35.96589 348.72568,36.87247 348.72568,37.80381C348.72568,38.68647 348.09503,39.82591 348.72568,40.48381C349.31488,41.09846 350.4827,40.51981 351.30035,40.51981C352.22568,40.51981 352.81161,40.87656 352.72437,41.80647C352.64072,42.69796 352.40878,43.39478 351.84702,44.27697C351.38333,45.00517 350.72568,45.68647 350.72568,46.51981C350.72568,47.43447 350.82925,48.08733 351.37302,48.57697C352.06702,49.20189 352.86389,49.19756 353.55902,49.68647C354.27332,50.18886 355.15656,50.16656 355.64035,50.80381C356.20947,51.55346 355.72568,52.58114 355.72568,53.38114C355.72568,54.35314 355.73618,55.2332 355.72568,56.13047C355.71527,57.01999 355.37802,57.81993 354.75104,58.49447C354.15576,59.1349 353.86014,59.92968 353.72119,60.81981C353.59338,61.6386 352.80954,62.33917 352.72568,63.08914C352.63873,63.86679 352.83127,64.93124 352.44168,65.7198C352.01184,66.58986 351.72794,67.27696 351.72568,68.17247C351.72351,69.0358 351.72568,69.99897 351.72568,70.91981C351.72568,71.8243 351.72568,72.68647 351.72568,73.51981C351.72568,74.49831 351.48453,75.35078 351.72568,76.23447C351.94614,77.04234 352.55896,77.73129 352.72586,78.61964C352.87537,79.41534 353.64758,79.87399 353.72568,80.8038C353.79303,81.60552 354.58182,82.20132 354.72568,83.08781C354.84207,83.80509 354.22113,84.37733 353.74652,85.01981C353.24673,85.6964 352.7684,86.4324 352.72568,87.23581C352.67621,88.16582 353.26151,88.74066 353.72119,89.57247C354.13538,90.32196 354.63162,90.90662 355.15103,91.49448C355.68555,92.09944 355.99078,93.01119 356.30035,93.65847C356.7254,94.54719 357.1535,95.21934 357.72568,95.99897C358.19476,96.63813 358.76437,97.30595 359.43103,97.81531C360.09763,98.3246 361.12979,98.72718 361.55902,99.51981C361.91968,100.18578 362.66479,100.73476 362.72568,101.60381C362.78867,102.50294 362.72568,103.38114 362.72568,104.35314C362.72568,105.07314 362.72638,106.01981 362.72568,106.94514C362.72501,107.80514 362.3107,108.49432 361.89236,109.35314C361.54422,110.06786 361.72568,110.99897 361.72568,111.88147C361.72568,112.84114 361.72568,113.69447 361.72568,114.63314C361.72568,115.51997 361.72568,116.39831 362.44168,116.60514L362.72568,117.43447L363.44168,117.51981L363.72568,118.16714" id="svg_35" stroke-width="3" stroke="#000" fill="none"/>
  <path t="84395,84419,84427,84434,84450,84459,84470,84470,84475,84478,84487,84494,84494,84499,84510,84514,84514,84518,84518,84518,84527,84531,84531,84534,84534,84538,84546,84546,84550,84550,84556,84556,84560,84560,84567,84571,84571,84575,84586,84591,84602,84607,84610,84614,84614,84627,84630,84634,84643,84647,84647,84651,84651,84655,84662,84670,84682,84682,84691,84694,84710,84715,84730,84743,84743,84750,84754,84762,84770,84775,84775,84783,84783,84786,84791,84794,84802,84803,84806,84811,84814,84823,84823,84823,84827,84827,84830,84834,84843,84846,84850,84851,84855,84862,84867,84867,84882,84894,84915,84923,84934,84943,84950,84954,84954,84962,84967,84971,84974,84983,84987,84987,84994,84994,85002,85007,85014,85034" d="M354.72568,7.51981C355.60419,7.51964 355.68118,6.66489 356.37302,6.51981C357.28061,6.32947 358.25519,6.41066 359.05902,6.68647C359.76404,6.92837 360.69794,7.33415 361.43021,7.57697C362.27716,7.85782 363.04758,8.66877 363.44168,9.32114C363.91034,10.09692 364.64194,10.67411 364.72568,11.51981C364.80591,12.33018 364.74677,13.28875 364.70486,14.01981C364.66281,14.75344 364.19019,15.79294 363.84702,16.61997C363.53598,17.36957 363.26138,18.33001 363.0097,19.03581C362.67242,19.98164 362.27637,20.78429 362.0097,21.49047C361.63516,22.48233 361.80756,23.29221 361.55902,24.18647C361.32385,25.03262 360.79678,25.83609 360.73636,26.69447C360.67035,27.63221 360.72568,28.51981 360.72568,29.31981C360.72568,30.23447 360.88806,31.03968 361.44168,31.60381C362.1012,32.27585 362.70529,32.61771 363.16168,33.37047C363.67596,34.21869 364.44037,34.51847 365.33636,34.51981C366.22568,34.52113 367.1257,34.51981 368.03018,34.51981C368.89236,34.51981 369.77054,34.38623 370.70419,34.74114C371.3638,34.99188 372.22549,35.50939 373.11502,35.51981C374.00964,35.53028 374.79108,35.81129 375.44168,36.23581C376.14615,36.69547 376.2937,37.29287 376.76169,38.09447C377.16571,38.78651 378.30035,38.51981 379.2937,38.51981C380.02036,38.51981 380.94702,38.29847 381.55902,37.68647C382.15103,37.09447 382.57407,36.30779 382.89236,35.51981C383.17535,34.81919 383.6933,33.86857 383.72119,33.17247C383.7619,32.15661 383.72559,31.21981 383.72568,30.31981C383.72577,29.41981 383.84998,28.74236 384.30035,27.91981C384.72763,27.13941 384.72223,26.2108 384.72568,25.18647C384.72794,24.51446 384.60385,23.73215 384.94702,22.66281C385.19257,21.89772 385.70767,21.12035 385.72568,20.21981C385.74365,19.31998 385.72568,18.41981 385.72568,17.51981C385.72568,16.71981 385.72568,15.81981 385.72568,14.88381C385.72568,14.03714 385.72568,13.08914 385.72568,12.16714C385.72568,11.23581 385.81104,10.43446 386.44168,9.80381C387.07837,9.16713 387.8273,8.79381 388.55902,8.35314C389.36191,7.86961 389.97653,7.66504 390.83902,7.23581C391.64978,6.8323 392.06802,5.90101 392.92569,5.60514C393.7803,5.31032 394.7865,5.42616 395.2897,4.94514C395.99008,4.27563 396.24652,3.51981 396.92435,2.69047L397.75104,2.51981L398.64035,2.51981L398.02118,2.63414" id="svg_36" stroke-width="3" stroke="#000" fill="none"/>
  <path t="85631,85662,85695,85710,85728,85742,85750,85759,85762,85766,85770,85771,85778,85783,85786,85791,85791,85798,85803,85807,85811,85811,85819,85819,85822,85827,85830,85839,85839,85843,85846,85850,85859,85866,85866,85870,85870,85882,85890,85902,85906,85911,85922,85958,85966,85966,85986,86002,86002,86011,86022,86030,86043,86050,86070,86082,86102,86127,86162,86182,86242,86250,86262" d="M326.72568,118.51981C326.72568,117.6413 326.77521,116.66563 326.15103,116.51981C325.24994,116.3093 324.29279,116.40737 323.44037,116.52114C322.6041,116.63275 321.90503,117.43604 321.07904,117.51981C320.24597,117.60429 319.37836,117.51981 318.48285,117.51981C317.5257,117.51981 316.57224,117.33843 315.72568,117.68647C315.05463,117.96236 314.22586,118.50938 313.32568,118.51981C312.42575,118.53022 311.51062,118.44493 310.84036,118.60514C309.86816,118.83752 309.23456,119.35503 308.24652,119.49897C307.33508,119.63176 306.36905,119.38326 305.5257,119.8038C304.86404,120.13374 304.0257,120.51756 303.1257,120.51981C302.22568,120.52206 301.30435,120.39121 300.39236,120.68647C299.66547,120.92181 298.75461,121.45766 298.01236,121.51847C297.08148,121.59473 296.13467,121.36311 295.2897,121.53047C294.38229,121.71021 293.78445,122.4912 293.0097,122.51981C292.07901,122.55417 291.96265,123.12093 291.72568,123.95181C291.54233,124.59475 290.39236,124.51981 289.57635,124.51981C288.66852,124.51981 288.24042,125.04541 287.55902,125.51981C286.84558,126.01651 285.81104,125.51981 284.89236,125.51981C284.07837,125.51981 283.11902,125.28864 282.30035,125.51981C281.65146,125.70303 281.44168,126.51981 280.89236,126.51981L281.76169,126.51981L282.60419,126.29847" id="svg_37" stroke-width="3" stroke="#000" fill="none"/>
 </g>
</svg>