<svg width="500" height="334.26183844011143" xmlns="http://www.w3.org/2000/svg" xmlns:svg="http://www.w3.org/2000/svg" xmlns:xlink="http://www.w3.org/1999/xlink">
 <!-- Created with SVG-edit - http://svg-edit.googlecode.com/ -->
 <g display="inline" class="layer">
  <title>Layer 1</title>
  <path t="2604,2721,2902,2939,2956,2956,2972,2973,2975,2989,3134,3192,3207,3225,3225,3240,3240,3290,3290,3290,3367,3396,3503,3540,3720,3720,3762,3773,3791" d="M176.5,160.63092C175.5,161.15175 175.01236,161.96967 174.33333,162.46425C173.64639,162.96458 172.67625,162.61002 171.73199,162.34558C170.99153,162.13823 170.2406,161.87923 169.31433,161.33542C168.47275,160.84132 167.66667,160.62943 168.26167,160.63092C169.15718,160.63318 169.92606,160.60881 170.89999,160.91626C171.72356,161.17624 172.50711,161.61719 173.28934,162.03091C174.02155,162.41818 174.93678,162.97545 175.37866,163.73076C175.80827,164.46512 176.66612,164.84157 177.5,164.46425C178.15396,164.16833 178.45833,163.15175 177.88933,162.67758L177.10001,163.05626" id="svg_2" stroke-width="3" stroke="#000" fill="none"/>
  <path t="4313,4461,4477,4494,4494,4510,4541,4560,4589,4589,4610,4628,4643,4660,4661,4726,4748,4761,4805,4805,4828,4845,4861,4878,4896,4897,4911,4912,4929,4929,4995,5062,5078,5129,5195,5229,5229,5246,5246,5310,5355,5395,5459,5480,5640,5677,5677,5700,5749,6147,6181,6198,6198,6213,6213,6231,6231,6247,6247,6314,6444,6470,6484,6484,6500,6516,6517,6531,6532,6548,6548,6571,6581,6603,6603,6619,6635,6667,6667,6691,6707,6748,6765,6766,6766,6788,6788,6827,6915,6915,7061,7061,7093,7117,7133,7134,7134,7150,7151,7270,7271,7282,7316,7340,7341,7351,7351,7372,7372,7383,7400,7417,7417,7467,7468,7485,7486,7501,7501,7501,7517,7518,7518,7533,7534,7551,7552,7600,7600,7824" d="M172.5,162.63092C171.58533,162.91626 171.5,163.73093 171.5,164.63092C171.5,165.43092 171.31157,166.35861 171.536,167.23093C171.75885,168.09714 172.7009,168.65303 173.14284,169.33092C173.62131,170.06483 173.83551,171.20001 174.60001,171.50941C175.44183,171.85011 176.27744,171.7552 177.10001,172.20558C177.88039,172.63287 178.85007,172.49925 179.60001,172.85225C180.37553,173.21729 181.19998,173.62866 182.10001,173.63092C183,173.63316 183.91066,173.63092 184.82133,173.63092C185.5,173.63092 186.47867,173.63092 187.384,173.63092C188.32533,173.63092 189.01601,173.63092 190.08934,173.63092C191,173.63092 191.89999,173.63092 192.8,173.63092C193.7,173.63092 194.60017,173.63092 195.38533,173.63092C196.32533,173.63092 197.01601,173.63092 198.08934,173.63092C199,173.63092 199.89999,173.63092 200.8,173.63092C201.7,173.63092 202.60001,173.63092 203.5,173.63092C204.3,173.63092 205.20006,173.62025 206.10001,173.63092C206.97935,173.64134 207.52052,174.29973 207.21466,175.11491C206.94647,175.82971 206.43117,176.6367 205.8,177.32642C205.22287,177.95711 204.6274,178.45134 203.67467,179.03091C202.99278,179.44572 202.23277,179.9147 202,180.63092C201.81584,181.19756 201.01851,181.57957 200.15266,181.62642C199.12672,181.68193 198.33333,181.79759 197.5,182.13092C196.66667,182.46425 195.87373,182.58899 194.84734,182.63542C194.15138,182.6669 193.34729,183.17195 192.39999,183.50941C191.54449,183.81418 190.70512,183.72502 190,184.13092C189.20564,184.5882 188.36165,185.017 187.7,185.34692C186.85664,185.76747 185.86015,185.59468 185.08934,186.06693C184.28506,186.55966 183.68968,187.08891 182.89867,187.34558C181.92845,187.6604 181.15024,187.52121 180.12534,187.64159C179.16209,187.75471 178.46097,188.08951 177.66667,188.63092C177.00531,189.08173 176.29054,190.19638 176.95734,190.59492C177.7099,191.04472 178.75067,190.63092 179.49466,190.63092C180.53067,190.63092 181.38266,190.63092 182.32533,190.63092C183.01601,190.63092 184.05333,190.63092 184.94667,190.63092C185.82133,190.63092 186.6761,190.6815 187.616,190.62959C188.38741,190.58699 189.30771,190.15953 190.01601,189.91492C190.95978,189.58897 191.95322,189.74295 192.70134,189.34558C193.45801,188.94366 194.16566,188.35269 194.84734,187.93092C195.77036,187.35983 196.28592,186.88206 197.26933,186.43092C198.00481,186.09354 198.56544,185.96422 199.57851,185.53075C200.49242,185.13971 201.11887,184.77174 201.89867,184.14825C202.49529,183.67123 203.33333,182.96425 204.08934,182.58025L204.8,181.92558L205.2,181.33626L205.97917,180.69342" id="svg_3" stroke-width="3" stroke="#000" fill="none"/>
  <path t="8335,8421,8421,8436,8453,8454,8470,8471,8486,8486,8503,8503,8521,8521,8521,8536,8536,8536,8555,8555,8570,8571,8587,8587,8629,8668,8720,8736,8753,8772,8772,8787,8787,8803,8820,8837,8869,8869,8886,8902,8903,8920,8936,8937,8955,8987,8987,9004,9021,9037,9068,9088,9104,9122,9122,9137,9137,9154,9171,9331" d="M175.5,189.63092C175.66667,190.63092 176.06541,191.2789 176.8,191.92642C177.4622,192.51015 178.25716,192.62866 179.15717,192.63092C180.10133,192.63329 181.10001,192.63092 181.89999,192.63092C182.90134,192.63092 183.52083,192.63092 184.66667,192.63092C185.45267,192.63092 186.27467,192.63092 187.33333,192.63092C188.04283,192.63092 188.89549,192.63092 189.89999,192.63092C190.7,192.63092 191.69983,192.63092 192.47917,192.63092C193.4785,192.63092 194.29866,192.63092 195.2,192.63092C196.10001,192.63092 197,192.63092 197.89999,192.63092C198.8045,192.63092 199.66667,192.63092 200.5,192.63092C201.4785,192.63092 202.29866,192.63092 203.2,192.63092C204.10001,192.63092 205.02083,192.63092 205.98399,192.63092C206.67467,192.63092 207.79727,192.78026 208.60001,192.40959C209.26807,192.1011 210.15033,191.64859 210.98399,191.34692C211.68863,191.09195 212.61159,190.67363 213.5,190.63092C214.29909,190.5925 215.2,190.63092 216.10001,190.63092C217,190.63092 217.89999,190.63092 218.8,190.63092C219.70134,190.63092 220.66667,190.63092 221.5,190.63092C222.4785,190.63092 223.1955,190.63092 224.10001,190.63092L225,190.63092L225.97917,190.63092" id="svg_4" stroke-width="3" stroke="#000" fill="none"/>
  <path t="10649,10725,10759,10759,10789,10841,10842,10908,10908,10947,10992,11021,11053,11053,11084,11143,11165,11176,11194,11210,11210,11226,11245,11261,11262,11277,11294,11294,11310,11311,11327,11327,11327,11345,11345,11345,11345,11360,11360,11376,11393,11393,11410,11427,11443,11460,11460,11477,11493,11493,11510,11510,11527,11527,11527,11564,11577,11594,11610,11610,11627,11645,11659,11660,11660,11677,11677,11693,11694,11710,11711,11727,11727,11742,11742,11759,11759,11777,11777,11777,11793,11793,11810,11810,11810,11827,11827,11843,11843,11861,11861,11928,11961,12073,12127,12396,12396,12412,12412,12412,12428,12429,12429,12429,12445,12446,12446,12446,12446,12462,12463,12463,12463,12478,12479,12495,12513,12514,12514,12539,12539,12555,12556,12579,12580,12645,12680,12697,12713,12729,12730,12748,12748,12750,12849,12897,12897,12936,12964,12964,12981,12981,12982,12982,12995,12996,12996,13012,13013,13030,13031,13031,13046,13047,13047,13063,13063,13063,13080,13080,13081,13100,13113,13114,13130,13146,13163,13164,13187,13203,13226,13226,13227,13259,13259,13275,13275,13291,13363,13381" d="M204.5,197.63092C203.58533,197.91626 203.5,198.73108 203.5,199.51625C203.5,200.45625 203.5,201.46425 203.5,202.25626C203.5,203.11491 203.5,203.97826 203.5,204.99492C203.5,205.83092 203.5,206.73093 203.5,207.63092C203.5,208.43092 203.31624,209.35742 203.536,210.23093C203.75305,211.09375 204.45729,211.8279 204.5,212.73093C204.54253,213.62991 204.5,214.43092 204.5,215.33092C204.5,216.26692 204.5,217.11491 204.5,217.97826C204.5,218.87825 204.5,219.79759 204.5,220.63092C204.5,221.60976 204.53438,222.44151 204.496,223.40158C204.46512,224.17419 204.31686,225.07045 203.83583,225.93059C203.48782,226.55287 202.99297,227.10222 202.26666,227.86026C201.48656,228.67445 200.86584,229.16814 200.52533,230.04158C200.18268,230.92047 200.12691,231.68413 199.52533,232.56958C199.08466,233.2182 198.70462,234.00377 198.21466,234.83092C197.81136,235.5118 196.96121,235.97591 196.62134,236.95226C196.39468,237.60336 196.33723,238.6524 195.85333,239.25626C195.24724,240.01257 194.46211,240.58495 194.06934,241.14693C193.44019,242.04709 193.60696,242.93745 193.49867,243.83092C193.38719,244.7507 192.66313,245.39938 192.51067,246.23093C192.34076,247.15767 192.28201,248.17456 192.07466,248.88159C191.85617,249.62662 191.63051,250.67203 191.44733,251.37909C191.20726,252.30571 190.76961,253.01672 190.58533,254.02959C190.44768,254.78613 190.59151,255.76285 190.41467,256.51492C190.18245,257.50253 189.69894,258.23236 189.3,259.03091C188.90027,259.83105 188.5,260.63092 188.10001,261.43091C187.8,262.03091 187.25133,263.00992 186.936,263.83093C186.56013,264.80963 186.61913,265.46237 186.33067,266.23093C185.93199,267.29318 185.24503,267.77179 184.83333,268.63092C184.47401,269.38074 184.64954,270.48651 184.464,271.22025C184.24355,272.09213 183.54271,272.82791 183.5,273.73074C183.45746,274.62991 183.73959,274.94199 184.26167,274.2746C184.77759,273.61511 185.55431,273.12772 186.18666,272.66159C186.93706,272.10843 187.46223,271.62195 188.02083,271.08926C188.60991,270.52753 189.50201,269.63293 190.09866,269.03091C190.69135,268.43289 191.27573,267.84149 191.81467,267.23093C192.59561,266.34619 193.04291,265.74329 193.65334,264.90292C194.01607,264.40356 194.82396,263.50302 195.21333,262.83359C195.66986,262.04871 196.06744,261.14398 196.52083,260.61008C197.01527,260.0278 197.75838,259.03964 198.08934,258.43091C198.62555,257.4447 198.70697,256.68515 199.5,255.96425C200.0899,255.42801 200.92236,254.94472 201.8,254.68808C202.66556,254.43497 203.60001,254.63092 204.5,254.63092C205.31433,254.63092 206.26801,254.63092 207,254.63092C207.73199,254.63092 208.90109,254.79005 209.7,254.34558C210.39154,253.96085 211.02962,253.15912 211.60001,252.53043C212.12869,251.94769 212.61304,250.87091 212.7955,250.26842C212.99361,249.61429 213.24956,248.60309 213.37849,247.67392C213.51682,246.67709 213.49933,246.03358 213.5,245.02641C213.50056,244.17375 213.5,243.20958 213.5,242.40558C213.5,241.58359 213.5,240.55225 213.5,239.63092C213.5,238.94691 213.5,237.94559 213.5,237.11009C213.5,236.22958 213.5,235.03358 213.5,234.45226C213.5,233.40158 213.40056,232.41768 213.66667,231.46425C213.85425,230.79222 214.36548,230.01797 215.02083,229.58925C215.73987,229.11885 216.03421,228.07913 216.89999,227.70293C217.73253,227.34117 218.67546,227.48512 219.336,227.19492C220.11243,226.85379 221.10738,226.35242 221.664,226.03091C222.63684,225.46901 223.1955,224.98808 224.10001,224.64159L225,224.63092L225.89999,224.63092" id="svg_5" stroke-width="3" stroke="#000" fill="none"/>
  <path t="14243,14299,14299,14316,14316,14316,14332,14333,14355,14355,14356,14371,14400,14400,14576,14576,14634,14652,14669,14685,14685,14702,14702,14719,14734,14751,14752,14768,14784,14784,14785,14801,14801,14821,14835,14853,14867,14868,14885,14901,14901,14924,14935,14956,14973,14985,15002,15020,15046,15046,15069,15070,15087,15087,15103,15103,15119,15135,15135,15135,15151,15151,15152,15167,15168,15185,15186,15186,15204,15204,15368,15368,15404,15421,15452,15452,15469,15499,15519,15520,15554,15554,15588,15604,15604,15636,15668,15669,15669,15693,15717,15757,15773,15821,15821,15839,15860,15860,15870,15870,15870,15888,15904,15921,15921,15938,15954,15972,15972,15987,15988,16003,16021,16038,16038,16054,16054,16084,16104,16104,16122,16139,16139,16154,16154,16171,16188,16205,16205,16274,16291,16315,16348,16371,16389,16389,16453,16453,16898,16905,16923,16939,16939,16955,16972,16972,16989,16989,16989,16990,17006,17006,17022,17022,17039,17039,17055,17055,17072,17072,17090,17090,17090,17106,17106,17107,17123,17123,17124,17139,17139,17140,17140,17157,17158,17174,17174,17175,17190,17208,17208,17225,17225,17241,17258,17259,17259,17275,17276,17276,17276,17292,17292,17325,17326,17326,17326,17349,17349,17350,17375,17375,17391,17391,17408,17408,17408,17424,17424,17445,17445,17469,17470,17493,17494,17508,17509,17525,17525,17542,17558,17559,17559,17575,17575,17592,17592,17607,17607,17624,17625,17642,17642,17658,17675,17675,17675,17692,17692,17708,17755,17755,17779,17795,17796,17811,17812,17827,17859,17883,17883,17908,17909,17909,17925,17925,17943,17972,17996,17996,18011,18027,18028,18058,18093,18116,18142,18142,18160,18160,18179,18179,18193,18258,18258,18348,18376,18435,18436,18484,18574,18597,18627,18627,18643,18644,18644,18661,18661,18661,18661,18662,18677,18677,18677,18677,18677,18678,18694,18694,18694,18711,18727,18728,18728,18743,18760,18761,18777,18795,18795,18795,18811,18811,18827,18844,18859,18860,18860,18877,18877,18877,18894,18894,18894,18911,18911,18927,18928,18950,18951,18977,18978,18997,18997,18997,19011,19012,19012,19012,19027,19028,19051,19051,19078,19078,19094,19094,19111,19111,19128,19128,19129,19145,19162,19162,19179,19179,19196,19196,19213,19213,19229,19245,19245,19262,19262,19278,19278,19278,19294,19345,19379,19379,19461,19639,19639,19713,19747,19748,19780,19827,19828,19867,19884,19899,19899,19916,19939,19939,19964,19987,19987,20004,20004,20027,20027,20047,20063,20064,20084,20107,20131,20131,20185,20231,20232,20266,20282,20298,20314,20314,20331,20331,20331,20347,20348,20364,20364,20380,20398,20398,20415,20443,20444,20469,20470,20533,20533,20579,20598,20598,20615,20635,20651,20667,20684,20684,20700,20716,20732,20732,20771,20771,20788,20799,20800,20815,20851,20875,20888,20889,20995,20995,21035,21314,21314,21334,21352,21367,21368,21369,21382,21400,21400,21416,21450,21450,21548,21548,21579,21602,21617,21667,21735,21807,21807,21837,21853,21869,21869,21885,21901,21901,21917,21934,21968,21985,22001,22002,22017,22018,22035,22036,22036,22051,22052,22052,22053,22067,22068,22085,22101,22118,22135,22136,22185,22219,22237,22255,22270,22271,22287,22302,22319,22320,22336,22337,22368,22369,22386,22517,22552,22553,22570,22570,22570,22586,22587,22602,22603,22651,22683,22683,22704,22721,22753,22781,22885,22903,22920,22937,22938,22971,22971,22987,22987,23004,23005,23020,23020,23037,23038,23073,23125,23141,23142,23155,23187,23204,23221,23222,23237,23253,23271,23287,23288,23304,23323,23339,23363,23388,23405,23405,23420,23438,23459,23459,23483,23505,23505,23522,23538,23554,23573,23573,23588,23611,23627,23627,23651,23675,23699,23699,23723,23724,23748,23795,23822,23839,23839,23917,23925,23956,23989,23990,24087,24087,24103,24110,24156,24172,24189,24206,24207,24223,24223,24239,24259,24273,24289,24434,24434,24473,24523,24558,24579,24595,24607,24624,24641,24642,24659,24659,24683,24707,24707,24724,24725,24741,24757,24758,24775,24775,24791,24827,24875,24875,24891,24909,24910,24927,24928,24942,24943,24975,24991,24992,25019,25019,25027,25027,25042,25076,25092,25093,25093,25108,25109,25125,25126,25141,25142,25159,25175,25176,25192,25208,25209,25225,25226,25243,25259,25260,25276,25291,25292,25308,25325,25341,25342,25359,25376,25377,25377,25394,25394,25395,25410,25411,25411,25411,25426,25427,25476,25492,25493,25493,25493,25509,25510,25526,25527,25527,25543,25560,25576,25577,25593,25594,25609,25610,25610,25610,25626,25627,25627,25643,25644,25675,25676,25694,25695,25775,25775,25828,25844,25845,25861,25876,25911,25928,25944,25945,25961,25961,25977,26027,26062,26095,26128,26146,26147,26179,26195,26211,26228,26228,26245,26245,26262,26312,26331,26344,26361,26378,26379,26395,26413,26414,26428,26445,26446,26463,26463,26478,26479,26479,26495,26496,26512,26528,26529,26547,26595,26619,26619,26679,26716,26717,26747,26820,26861,26862,26914,26929,26930,26947,26948,26971,26979,27003,27012,27043,27067,27068,27080,27098,27099,27114,27131,27147,27164,27195,27195,27198,27231,27247,27247,27263,27264,27281,27282,27297,27323,27323,27356,27388,27389,27448,27449,27464,27465,27481,27481,27498,27514,27548,27549,27564,27586,27597,27598,27627,27647,27648,27665,27681,27681,27698,27715,27716,27731,27748,27765,27766,27782,27799,27800,27850,27850,27875,27899,27915,27964,28004,28066,28083,28099,28099,28116,28117,28165,28166,28187,28187,28187,28199,28229,28251,28299,28317,28318,28350,28351,28366,28367,28387,28419,28420,28433,28434,28450,28450,28506,28506,28533,28555,28555,28601,28918,28952,28953,28968,28969,28969,28970,28986,28987,28988,29146,29270,29323,29347,29369,29370,29385,29386,29386,29403,29403,29419,29419,29420,29451,29451,29474,29498,29498,29519,29547,29570,29588,29626,29651,29670,29691,29692,29723,29739,29763,29786,29803,29853,29853,29875,29945,30270,30290,30308,30310,30323,30324,30324,30325,30339,30340,30341,30355,30420,30421,30451,30553,30553,30595,30595,30627,30627,30659,30683,30731,30731,30763,30764,30795,30839,30855,30856,30875,30922,30923,30940,31053,31068,31070,31091,31092,31107,31123,31123,31124,31140,31140,31334,31334,31334,31455,31491,31508,31524,31524,31540,31541,31622,31642,31659,31675,31708,31709,31756,31758,31772,31792,31825,31842,31867,31867,31930,31931,32023,32039,32157,32157,32192,32209,32227,32243,32259,32259,32309,32309,32357,32357,32387,32411,32411,32443,32459,32460,32476,32527,32543,32594,32594,32627,32643,32675,32693,32710,32760,32761,32787,32828,32859,32883,32960,32995,33018,33019,33019,33090,33090,33117,33119,33132,33133,33162,33163,33187,33244,33245,33267,33312,33313,33372,33372,33383,33428,33592,33592,33694,33694,33747,33817,33817,33817,33850,33880,33881,33897,33897,33915,33915,33947,33948,33997,34051,34071,34072,34193,34193,34218,34265,34379,34413,34769,34769,34802,34803,34806,34807,34807" d="M226.5,225.63092C226.66667,226.63092 227.14052,227.27303 227.8215,227.95226C228.33144,228.46088 228.86514,229.03133 229.7,229.60925C230.46709,230.14026 231.49374,230.51035 232.28934,230.59492C233.01143,230.67169 234.02733,230.56552 234.98399,230.91626C235.70081,231.17906 236.59309,231.62363 237.05333,232.23093C237.65469,233.02446 237.40454,234.07545 237.784,234.83092C238.21957,235.69812 238.49774,236.38808 238.5,237.28358C238.50217,238.14693 238.64618,239.12349 238.48933,240.03091C238.34528,240.8644 237.69901,241.43126 237.08934,242.04158C236.33374,242.798 235.84729,243.28354 235.15266,243.97826C234.52162,244.60938 234.11832,245.32968 233.5,246.11009C233.00584,246.7338 231.90613,246.56676 231.3,247.19891C230.81161,247.70827 230.15823,248.43423 229.39999,248.85225C228.64935,249.26607 227.77132,249.43791 226.89999,249.66692C226.04416,249.89185 225.82016,250.8647 225.216,251.54692C224.6895,252.14146 224.03731,252.55457 223.17867,252.85225C222.30603,253.15479 221.52705,253.56593 220.616,253.62959C219.8447,253.68349 218.88547,253.66928 218.10133,253.91492C217.3201,254.15965 216.23466,254.51317 215.33333,254.79759C214.63585,255.01768 214.04623,255.35516 213.07883,255.73076C212.29144,256.03647 211.52008,256.31641 210.468,256.54691C209.70088,256.71497 208.73227,256.92059 207.97917,257.13092C207.18431,257.35291 206.17751,257.49115 205.34666,257.65625C204.37022,257.85028 203.67488,258.28317 202.8,258.68359C202.07433,259.01575 201.48184,259.83792 200.8,260.27374C199.97601,260.80042 199.09122,261.05771 198.5,261.63092C197.89079,262.22159 197.2,262.93091 196.7,263.43091C196,264.13092 195.29811,264.82904 194.8,265.33093C194.09732,266.03894 193.46875,266.78009 193.11067,267.45624C192.75337,268.13092 192.70731,269.24265 192.064,270.02026C191.53831,270.6557 190.70952,270.97513 190.2785,271.73093C189.89693,272.40002 189.15331,273.15387 188.33333,273.46426C187.51942,273.77234 186.47289,273.72922 185.72133,274.06693C185.04068,274.37277 184.58026,275.39243 183.85333,275.62024C182.89326,275.92114 182.10974,275.58618 181.136,276.05624C180.35754,276.43204 179.49767,276.79425 178.864,277.24158C178.17612,277.72714 177.51205,278.14099 176.52167,278.50958C175.67613,278.82428 175.20406,279.68753 174.63867,280.02026C173.71771,280.56226 172.84279,280.5434 172.10001,281.06693C171.31137,281.62277 170.89999,282.23093 170.2,282.93091C169.49998,283.63092 169.00002,284.13092 168.3,284.83093C167.70001,285.43091 167.00464,285.97043 166.584,286.83093C166.1667,287.6846 165.64406,288.30923 165.5,289.15176C165.35182,290.01834 165.5,290.93091 165.5,291.83093C165.5,292.73093 165.49809,293.63092 165.5,294.38809C165.50226,295.2836 165.34726,296.29932 166.02083,297.08926C166.55173,297.71188 167.60127,297.67871 168.5,297.63092C169.30341,297.5882 170.1066,296.97153 170.98666,296.71359C171.72897,296.49603 172.68033,296.32486 173.45267,295.92108C174.01054,295.62943 174.80853,295.10095 175.81334,294.51627C176.45367,294.14365 177.33022,293.62674 178,293.13092C178.81741,292.52579 179.58665,292.25241 180.16667,291.63092C180.73032,291.02698 181.20073,290.2951 181.96617,289.93091C182.90131,289.48599 183.73421,289.24081 184.27467,288.99493C185.35258,288.50458 186.07466,288.01163 186.65334,287.42026C187.382,286.67563 187.73615,286.01596 188.16133,285.39493C188.80981,284.44772 189.25775,283.93869 190,283.15176C190.48801,282.6344 191.33588,281.75113 191.83867,281.30292C192.63467,280.59332 193.34239,280.25903 194.01601,279.83093C194.88756,279.27701 195.60913,278.78387 196.38533,278.54691C197.1629,278.30954 197.99258,277.80911 198.88533,277.66693C199.8222,277.51773 200.7731,277.63788 201.32133,277.59491C202.50359,277.50223 203.39592,277.27994 203.97917,277.13092C204.81528,276.9173 205.81824,276.72235 206.76134,276.60559C207.83441,276.47275 208.4707,276.35733 209.15067,276.19492C210.19914,275.94446 211.17815,275.6604 211.98117,275.33093C212.65317,275.05521 213.59993,274.40973 214.25267,273.93091C214.96849,273.40582 215.73479,273.02917 216.5,272.46426C217.11612,272.00943 217.5945,271.38504 218.616,270.79892C219.34309,270.38171 220.14012,269.91043 220.67467,269.4816C221.46088,268.85089 222.27028,268.63016 223.15717,268.27374C223.92181,267.96643 224.71121,267.55234 225.47917,267.13092C226.34685,266.65479 226.92422,266.03778 227.8045,265.68359C228.62982,265.3515 229.50815,265.09317 230.10133,264.91492C231.08308,264.6199 231.91792,264.64526 232.89867,264.34692C233.68192,264.10867 234.61284,263.6792 235.384,263.63226C236.33432,263.57443 237.118,263.60126 238.0955,263.27826C238.85828,263.02621 239.76462,262.7464 240.66667,262.46426C241.54176,262.19055 242.09279,261.87448 243.0955,261.68359C244.00838,261.5098 244.8813,261.21359 245.60001,260.53091C246.11269,260.04391 246.93468,259.41855 247.33333,258.63092C247.68932,257.92758 247.71936,256.88647 248.30133,256.20026C248.86531,255.53523 249.45195,254.95772 249.78667,254.14693C250.08386,253.427 250.81738,252.64706 251.5,252.13092C252.01306,251.743 252.66678,250.92172 253.1955,250.34076C253.90843,249.55737 254.94638,249.37057 255.37866,248.53091C255.71257,247.88232 256.0686,246.98628 256.70132,246.43225C257.34595,245.8678 258.4292,245.93213 259.16666,245.46425C259.92889,244.98067 260.35004,244.18185 260.52533,243.44559C260.74915,242.50555 261.25833,241.91138 261.7955,240.97826C262.18298,240.30516 262.29514,239.32349 262.72134,238.53108C263.09515,237.83612 264.06299,237.38243 264.89999,237.65225C265.8222,237.94954 265.89352,239.05782 266.79999,239.51659C267.60947,239.92628 268.60001,239.63092 269.5,239.63092C270.31433,239.63092 271.27335,239.63092 272.08334,239.63092C272.72333,239.63092 273.83334,239.6346 274.67065,239.62959C275.57202,239.62421 276.04245,239.62738 277.009,239.57375C278.50171,239.49092 279.00195,239.4261 279.98651,239.27376C280.94012,239.12621 281.39783,239.04466 282.24399,238.82959C283.65356,238.4713 284.43896,238.17154 285.01068,237.83092C285.91434,237.29253 286.64917,236.59969 287.32535,236.24159C288.00003,235.88431 288.99985,235.64134 289.98401,235.63092C290.67462,235.62361 291.76913,235.72096 292.66666,235.46425C293.36035,235.26584 294.10873,234.84409 294.89734,234.43092C295.63519,234.04434 296.20087,233.11526 296.95734,232.65625C297.72403,232.19102 298.51501,232.28912 299.28534,232.02025C300.34088,231.65182 301.07245,231.37822 301.89551,230.87375C302.73315,230.36035 303.29602,229.81261 303.84283,229.28358C304.6257,228.52617 305.0874,227.98425 305.98401,227.43225C306.64935,227.02263 307.62949,226.76778 308.384,226.54692C309.35812,226.26178 309.90497,225.92732 310.90268,225.42958C311.54193,225.11067 312.27011,224.74446 313.14249,224.30975C313.80042,223.9819 314.80609,223.476 315.44666,223.20026C316.43481,222.7749 317.26181,222.632 318.15717,222.27376C318.9223,221.96761 319.90677,221.44608 320.47916,221.13092C321.34619,220.65353 321.97772,220.0992 322.82132,219.53075C323.48349,219.08455 324.36389,218.48843 324.74283,217.97826C325.23721,217.31264 325.6908,216.23257 326.5,215.79759C327.19434,215.42435 328.17493,215.31508 328.84732,214.92642C329.78168,214.38635 330.21832,213.87549 331.15268,213.33542C331.82507,212.94676 332.76694,212.75363 333.66666,212.46425C334.34412,212.24635 335.33575,211.63416 335.87466,211.23093C336.67023,210.63567 337.34241,210.25902 338.01599,209.83092C338.88754,209.27699 339.74609,208.83092 340.5,208.46425C341.26361,208.09285 342.09113,207.70998 342.70001,207.06291C343.30447,206.42053 344.07291,205.57878 344.41599,206.20026C344.7999,206.89568 344.92685,208.00316 345.5,208.63092C346.05524,209.23904 346.27652,210.14471 346.85718,210.92642C347.35696,211.59924 348.31046,211.52983 349.13599,211.66692C350.0076,211.81166 350.83505,212.31792 351.74734,212.57825C352.65619,212.8376 353.29816,213.13126 354.33334,213.46425C355.10913,213.71379 355.97678,213.93272 356.67465,214.20558C357.60562,214.56958 358.5,214.63092 359.29999,214.63092C360.20001,214.63092 361.13644,214.6042 361.98401,214.63225C362.84866,214.66086 363.65891,215.15503 364.60001,215.50941C365.26468,215.7597 366.19949,215.68904 367,216.13092C367.80399,216.57471 368.66666,216.63092 369.52084,216.63092C370.5,216.63092 371.29999,216.63092 372.10001,216.63092C373.10001,216.63092 373.89999,216.63092 374.89868,216.63092C375.664,216.63092 376.74283,216.63092 377.60016,216.63092C378.38535,216.63092 379.32562,216.65381 380.33334,216.63092C381.12595,216.61292 382.00473,216.38634 382.67465,216.02025C383.64825,215.48824 384.19662,214.93204 384.79999,214.33092C385.50131,213.63222 386.16415,213.1718 386.88934,212.65625C387.60196,212.14964 388.17551,211.71146 388.89999,211.19492C389.68561,210.63481 390.24719,209.97433 390.7955,209.33092C391.43762,208.57741 391.62558,207.59824 392.11066,207.03091C392.74908,206.28421 393.29965,205.83058 394,205.13092C394.69968,204.43192 395.41479,204.12102 396.14282,203.57825C396.82178,203.07205 397.55905,202.76161 398.33334,202.46425C399.15179,202.14992 399.79999,201.33092 400.29999,200.83092C401,200.13092 401.61343,199.3098 402.29999,198.91626C403.03381,198.49561 404.04169,198.62347 405.04251,198.63109C405.74005,198.6364 406.7417,198.56964 407.47916,199.15175C408.18463,199.7086 408.64609,200.32535 409.61465,200.54559C410.57922,200.76494 411.38535,200.63092 412.32535,200.63092C413.01599,200.63092 414.08932,200.63092 415,200.63092C415.89999,200.63092 416.80472,200.72182 417.70001,200.62959C418.5126,200.54588 419.29788,199.97537 419.47916,199.13092C419.67032,198.2403 419.5,197.30959 419.5,196.45625C419.5,195.51625 419.5,194.63092 419.5,193.83092C419.5,192.93092 419.5029,192.01079 419.07468,191.23093C418.62265,190.40768 418.18542,189.60403 417.47916,189.13092C416.68655,188.59996 416.04535,188.04045 415.17816,187.75209C414.46252,187.51413 413.70969,187.51262 412.53333,187.06158C411.84805,186.79883 411.17715,186.46313 410.55334,186.11359C409.53976,185.54565 408.86111,184.82578 407.89999,184.64159C407.01602,184.47218 406.1955,184.63092 405.17868,184.63092C404.5,184.63092 403.51654,184.73158 402.5,184.63092C401.6543,184.54718 401.20419,183.9019 400.40018,183.40942C399.78046,183.02985 399.5184,182.00751 399.07468,181.23093C398.66086,180.50668 398.45682,179.72946 398.064,178.79492C397.82037,178.21533 397.26593,177.24817 396.936,176.46692C396.54227,175.53462 396.5,174.67758 396.5,175.63092C396.5,176.30292 396.51926,177.40108 396.47916,178.15175C396.43652,178.94972 396.22421,179.94714 395.92532,180.78426C395.62958,181.61252 395.5929,182.38855 395.48932,183.44559C395.40485,184.30762 394.69867,184.62958 393.79999,184.63092C392.89999,184.63226 391.98428,184.78802 391.10001,184.62025C390.15408,184.4408 389.3013,184.09891 388.66666,183.46425C388.03201,182.82961 387.82895,182.03369 387.30133,181.14558C386.88654,180.44737 386.66852,179.63058 386.52533,178.84158C386.33578,177.79715 385.87769,177.17407 385.58401,176.14693C385.39178,175.47459 385.26031,174.47929 384.69867,173.83226C384.06906,173.10692 383.66394,172.4138 383.33334,171.63092C383.00302,170.84866 382.51202,170.01509 381.88934,169.60559C381.1496,169.11911 380.73639,168.28049 380.47467,167.49225C380.19281,166.64339 379.64966,166.09592 379.48932,165.23093C379.33517,164.39926 378.60843,163.9082 378.02084,163.13092C377.46323,162.3933 377.65866,161.33357 377.14734,160.68359C376.65417,160.05669 376.27176,159.31238 376,158.63092C375.61142,157.65648 375.28384,156.90146 374.5,156.46425C373.84811,156.10065 373.28326,155.20476 372.5,154.79759C371.75616,154.41092 370.96228,153.88612 370.10001,153.66692C369.22687,153.44495 368.37201,153.44228 367.79999,152.92642C367.07278,152.27063 366.78592,151.20784 366.05734,150.75226C365.4454,150.3696 364.62988,150.04701 364.14282,149.33092C363.60834,148.54507 362.97357,148.15636 362.30133,147.43092C361.76343,146.85046 361.44733,145.93092 361,145.13092C360.55267,144.33092 360.38312,143.412 359.69867,142.91626C358.94577,142.37091 358.86649,141.60652 358.2785,140.87375C357.728,140.18767 356.85782,139.99048 356.17883,139.30959C355.68076,138.81012 354.86588,138.20609 354.57199,137.27759C354.28992,136.38638 354.5,135.43092 354.5,134.53091C354.5,133.63092 354.5,132.87375 354.5,131.97826C354.5,131.11491 354.5,130.15175 354.5,129.23093C354.5,128.33092 354.33633,127.37363 354.72134,126.53092C355.02713,125.86162 355.48151,125.00746 355.92532,124.23092C356.33908,123.50698 356.84714,122.79831 357.44733,122.27825C358.10095,121.71191 358.90173,121.34606 359.37885,120.53092C359.76169,119.87683 360.3385,119.19077 361.01733,118.91625C361.95309,118.53784 362.70081,118.06211 363.10001,117.44559C363.70123,116.51704 364.26025,115.98969 364.88934,115.23092C365.43454,114.57333 365.50494,113.71165 365.936,112.81625C366.24667,112.17096 367.17853,111.62873 367.47467,110.76958C367.79755,109.83289 368.1846,109.22675 368.44284,108.32642C368.68106,107.49586 368.5,106.63092 368.5,105.65225C368.5,104.87825 368.37875,103.95707 368.58533,103.11492C368.8063,102.21411 369.53983,101.48624 369.88934,100.80559C370.39249,99.82576 370.45636,99.13014 370.50134,98.14825C370.53839,97.33968 371.20505,96.68766 371.52533,95.94825C371.87601,95.13873 371.94608,94.37512 372.14734,93.57909C372.4053,92.55882 372.48956,91.65192 372.5,90.63092C372.50806,89.84162 372.5,88.79758 372.5,88.04159C372.5,87.11008 372.5,86.14692 372.5,85.45625C372.5,84.51492 372.54517,83.46198 372.48932,82.80559C372.40286,81.78926 371.88931,81.05839 371.52533,80.23092C371.17978,79.44535 370.69894,78.83064 370,78.13092C369.40042,77.53068 369.04202,76.67435 368.44733,75.98808C367.91104,75.36921 366.85907,75.24884 366.15268,74.98359C365.26584,74.65058 364.33191,74.66409 363.45834,74.61008C362.81134,74.57009 361.81482,74.34086 360.95834,74.13092C360.33942,73.97921 358.9801,73.73868 358.25635,73.68809C357.54248,73.63818 356.55466,73.63159 355.556,73.63092C354.70401,73.63035 353.79199,73.63092 352.73584,73.63092C352.13751,73.63092 351.14001,73.63055 350.46667,73.63092C349.27066,73.63159 348.52463,73.55996 347.5,73.79758C346.69083,73.98524 346.00842,74.45469 345.02084,74.61008C344.11023,74.75336 343.38879,75.06635 342.89999,75.81625C342.38782,76.602 341.98438,77.16313 341.16666,77.79758C340.50565,78.31044 339.97437,78.65865 339.09732,79.14692C338.21558,79.6378 337.31369,79.97691 336.51434,80.32642C335.63416,80.71128 335.01273,81.10155 334.29999,81.83225C333.77795,82.36744 332.66425,83.3587 333.04132,83.97625C333.45358,84.65147 334.92828,83.79692 335.392,84.52825C335.97385,85.44588 335.5,86.32642 335.5,87.23092C335.5,88.13092 335.5,89.03092 335.5,89.93542C335.5,90.95226 335.5,91.63092 335.5,92.60942C335.5,93.42959 335.5,94.33092 335.5,95.23092C335.5,96.13092 335.40601,97.07802 335.85266,97.93092C336.24661,98.68316 336.62347,99.40801 337.07468,100.23092C337.50241,101.01105 337.42416,101.95448 337.66666,102.79758C337.86227,103.47765 338.40643,104.4528 338.48932,105.22025C338.58713,106.12572 338.5,107.03092 338.5,107.93092C338.5,108.83092 338.5,109.73092 338.5,110.63092C338.5,111.43092 338.5,112.38808 338.5,113.28358C338.5,113.97826 338.51981,115.0058 338.49985,115.95226C338.48184,116.80615 338.23181,117.76094 337.85333,118.29225C337.20935,119.19624 336.67755,119.88364 336.32535,120.38025C335.67203,121.30142 335.03052,121.89156 334.62134,122.73092C334.20724,123.58031 334.12943,124.36905 333.47916,125.11008C332.93219,125.73339 331.82697,125.79344 331.41733,126.43225C330.97217,127.12649 330.38086,127.94228 329.70001,128.34558C328.87283,128.83556 328.1077,129.07513 327.39999,129.73076C326.80637,130.28072 325.95468,130.55852 325.01599,130.91626C324.30261,131.18814 323.58411,131.82524 322.8045,132.27376C322.04868,132.70859 321.15643,132.69788 320.47467,133.20558C319.83386,133.6828 318.95975,133.58897 318.01599,133.91492C317.30774,134.15953 316.38843,134.58821 315.5,134.63092C314.70093,134.66934 313.79999,134.68808 313,135.13092C312.20001,135.57375 311.24271,135.46722 310.39999,135.85225C309.73068,136.15805 308.85956,136.48735 308.14282,136.98808C307.39758,137.50874 307.01736,138.18561 306.17868,138.73076C305.52679,139.1545 304.48898,139.40817 303.8045,139.68359C302.94098,140.03105 302.29999,140.83092 301.79999,141.33092C301.10001,142.03091 300.40079,142.73174 299.89999,143.23093C299.19662,143.93205 298.62811,144.45222 297.84732,144.93092C297.16394,145.34988 296.24786,145.92078 295.70132,146.43092C294.98761,147.09708 294.12717,147.42628 293.29999,147.91626C292.61914,148.31956 292.16046,149.12624 291.29999,149.54692C290.44614,149.96436 289.79886,150.33429 289.10001,151.03091C288.49902,151.62996 287.96545,152.37221 287.08932,152.59492C286.20605,152.81946 285.32535,152.63092 284.38535,152.63092C283.5,152.63092 282.70001,152.63092 281.79999,152.63092C280.86401,152.63092 280.01599,152.63092 279.15268,152.63092C278.12534,152.63092 277.17868,152.63092 276.5,152.63092C275.52151,152.63092 274.70132,152.63092 273.79999,152.63092C272.89999,152.63092 272,152.63318 271.10001,152.63092C270.2045,152.62866 269.59814,151.99702 268.95834,151.63092C268.10376,151.14192 267.29684,151.06427 266.52133,150.53091C265.84781,150.0677 265.02155,149.41818 264.28934,149.03091C263.50711,148.61719 262.63205,148.34883 262.07068,147.83092C261.3421,147.15874 261.23273,146.00388 260.41599,145.63225C259.68118,145.2979 258.65314,145.23296 257.98401,144.82959C257.22592,144.37259 256.61868,143.82678 255.85184,143.33092C255.07205,142.82669 254.60217,142.08023 254.21333,141.14693C253.91379,140.42796 253.21281,139.60167 252.67467,139.27759C251.71826,138.70161 250.85979,138.6506 250.01601,138.34692C249.31094,138.09317 248.38841,137.67363 247.5,137.63092C246.70091,137.5925 245.86346,137.42105 245,137.15175C244.21783,136.90779 243.63445,137.4617 242.73599,138.17358C242.14586,138.64117 241.49803,139.12837 240.858,139.62558C239.99734,140.29417 239.19618,140.94655 238.70399,141.42825C238.00359,142.11374 237.96048,143.39169 237.216,143.62959C236.5007,143.85817 236.45885,142.30698 236.52083,141.61009C236.60852,140.62401 236.92249,139.8246 237.30133,139.03091C237.68636,138.22427 238.10001,137.43092 238.5,136.63092C238.89999,135.83092 239.30705,135.03439 239.69867,134.23225C240.07072,133.47017 240.45729,132.51933 240.5,131.63092C240.53842,130.83183 240.5,129.93092 240.5,129.03091C240.5,128.13092 240.5,127.23092 240.5,126.33092C240.5,125.43092 240.5,124.53092 240.5,123.63092C240.5,122.83092 240.5,121.93092 240.5,121.03092C240.5,120.13092 240.59546,119.18638 240.216,118.43092C239.78043,117.56372 239.57027,116.87066 239.4955,115.98275C239.40897,114.95506 239.00766,114.08225 238.21466,113.71758C237.46423,113.37249 236.84164,114.29624 236.1785,115.17375C235.64569,115.87878 235.30034,116.42451 234.89867,116.94825C234.12225,117.96064 233.52466,118.59299 232.98534,119.14426C232.26675,119.87876 231.76608,120.66916 231.416,121.43092C231.07144,122.18066 230.25925,122.79813 229.8,123.38808C229.13788,124.23869 228.82655,124.99618 228.30133,125.74558C227.80959,126.44723 227.2612,127.07702 226.784,127.71492C226.20953,128.48285 226.47949,129.40103 226.14734,130.28358C225.88155,130.98981 225.52859,131.87247 225.5,132.83226C225.47125,133.79716 225.79741,134.78674 225.21466,135.46159C224.62421,136.14536 223.89558,136.35283 223.47467,137.23093C223.08791,138.03775 222.342,138.528 221.5,138.61009C220.52589,138.70506 219.72987,138.4897 218.95833,138.13092C217.98796,137.67969 217.24977,137.65375 216.50534,137.63542C215.46829,137.60989 214.66977,137.56599 213.73334,137.06291C212.99931,136.66858 212.42424,136.06445 211.45633,135.63992C210.66321,135.29205 210.5,134.53091 210.5,133.63092C210.5,132.87375 210.5,131.97826 210.5,131.11491C210.5,130.15175 210.5,129.23093 210.5,128.33092C210.5,127.43092 210.5,126.53075 210.5,125.74558C210.5,124.80559 210.5,124.11492 210.5,123.04159C210.5,122.13092 210.5,121.23092 210.5,120.32642C210.5,119.46426 210.35837,118.58295 210.7215,117.65225C210.99583,116.94913 211.68924,116.14058 212.10001,115.45625C212.58704,114.64487 213.05988,114.01221 212.62134,113.40958C212.11192,112.70957 211.3,112.63092 210.39999,112.63092C209.5,112.63092 208.74283,112.63092 207.84283,112.63092C206.89867,112.63092 205.89061,112.47218 205.21434,112.63092C204.43289,112.81435 204.23656,113.85046 203.69867,114.43092C203.02644,115.15635 202.29297,115.64907 201.85716,116.33092C201.33051,117.15489 200.97258,117.97667 200.584,118.83092C200.23688,119.59403 199.69981,120.28352 199.52083,121.13092C199.33478,122.01173 199.5,122.93092 199.5,123.83092C199.5,124.73092 199.5,125.63092 199.5,126.43092C199.5,127.33092 199.5,128.23093 199.5,129.13092C199.5,130.03091 199.5757,130.93422 199.49867,131.83226C199.41498,132.80807 199.07149,133.47054 198.69867,134.23225C198.3065,135.03348 197.94963,135.87544 197.17883,136.60942C196.58005,137.1796 195.91176,137.68668 195.39467,138.33092C194.86351,138.99268 193.91626,139.18584 193.02083,139.65175C192.21823,140.06935 191.89566,140.80196 191.584,141.74559C191.29544,142.61931 190.86345,143.24948 190.3,144.11359C189.88034,144.75719 188.98096,145.07329 188.5,145.79759C188.03903,146.49181 188.52664,147.42085 188.14284,148.27908C187.77551,149.10046 186.91176,149.53682 186.3,150.19891C185.7014,150.84677 185.19211,151.46637 184.3,151.63225C183.38892,151.80167 182.7652,152.37 182.01466,152.83092C181.30882,153.26439 180.30782,153.74689 179.71066,154.02025C178.67912,154.49246 177.88997,154.45621 177,154.65175C176.15239,154.83798 175.50003,155.63095 174.936,156.19492C174.27855,156.85229 173.66423,157.2664 172.8,157.68359C171.9814,158.07877 171.61948,158.93715 171.49867,159.83092C171.38925,160.64047 170.82916,161.48575 171.60033,161.63092C172.302,161.76302 173.26933,161.63092 174.02083,161.63092L174.81734,161.63092" id="svg_6" stroke-width="3" stroke="#000" fill="none"/>
  <path t="37559,37857,37857,37881,37949,37990,38023,38033,38059,38075,38091,38108,38109,38126,38190,38190,38226,38552,38552,38552,38557,38557,38557,38558,38558,38558" d="M193.5,142.63092C193.5,143.63092 193.51836,144.43111 193.5,145.34558C193.48199,146.24214 193.06549,147.02536 192.584,147.82959C192.13881,148.5732 191.69125,149.29712 190.97917,149.61009C190.1738,149.96407 189.24341,150.07478 188.61467,150.34692C187.72249,150.73308 186.66667,150.63092 185.8045,150.63092C184.936,150.63092 185.07733,150.63092 185.90134,150.63092C186.52933,150.63092 187.80687,150.62813 188.32133,150.63359C189.43742,150.64545 190.02083,150.67259 190.60933,150.70293L191.76534,150.80159" id="svg_7" stroke-width="3" stroke="#000" fill="none"/>
  <path t="38991,39179,39222,39232,39232,39246,39260,39260,39346,39346,39407,39431,39561,39582,39687,39748,39777,39797,39861,39884,40066,40218,40263,40377,40478,40593,40593,40663,40663,40737,40801,40982,41019,41031" d="M208.5,154.63092C208.5,153.63092 208.3457,152.71466 207.5,152.63092C206.70389,152.55209 205.74283,152.63092 204.84283,152.63092C204.0955,152.63092 203.04471,152.36757 202.21434,152.68808C201.38692,153.00745 201.56535,154.06836 202.07466,154.65625C202.63658,155.30487 203.30133,155.63025 204.2,155.63092C205.10001,155.63159 206.26866,155.68907 206.4955,154.92642C206.75081,154.06807 206.5,153.13092 206.5,152.23093C206.5,151.33542 206.26472,150.47624 205.39999,150.63126C204.45543,150.80058 203.99875,151.44855 203.66667,152.46425C203.42679,153.19795 203.5,154.13092 203.51067,155.02025L204.02083,155.61009L204.89999,155.63092L205.7955,155.62642" id="svg_8" stroke-width="3" stroke="#000" fill="none"/>
  <path t="44175,44328,44404,44428,44428,44446,44458,44566,44616,44663,44692,44721,44721,44743,44759,44792,44815,44815,44844,44860,44860,44875,44942,44942,44976,44976,45055,45091,45116,45116,45158,45174,45192,45192,45211,45408,45507,45525,45702,45728,45745,45745,45762,46070,46106,46144,46160,46273,46273,46296" d="M172.5,169.63092C172.5,171.43092 172.49306,172.31143 173.20534,172.93092C173.74277,173.39833 174.53165,174.05457 175.07466,174.62025C175.59076,175.15791 176.20479,175.60796 177.10001,175.63092C178.00067,175.65402 178.65552,176.23216 179.10001,176.78026C179.73993,177.56935 180.7,177.63092 181.60001,177.63092C182.5,177.63092 183.3,177.63092 184.136,177.63092C185.15266,177.63092 185.85403,177.52403 186.87466,177.64159C187.83812,177.75255 188.46609,178.23421 189.4785,178.50941C190.17953,178.69998 191.10001,178.63092 192.02083,178.63092C192.98399,178.63092 193.67467,178.63092 194.74283,178.63092C195.60001,178.63092 196.5,178.63092 197.3,178.63092C198.2,178.63092 199.10001,178.63092 200,178.63092C200.89999,178.63092 201.8,178.63092 202.7,178.63092C203.60017,178.63092 204.38533,178.63092 205.32533,178.63092C206.33333,178.63092 207.13066,178.63092 206.2785,178.63092C205.39999,178.63092 204.5,178.63092 203.7,178.63092L202.8,178.63092" id="svg_9" stroke-width="3" stroke="#000" fill="none"/>
  <path t="48425,48498,48498,48498,48536,48557,48588,48599,48615,48632,48649,48844,48867,48884,48943,48943,48973,49003,49003,49018,49018,49019,49035,49035,49177,49177,49177,49209,49209,49219,49317,49341,49352,49368,49423,49423,49462,49486,49502,49519,49536,49536,49695,49782,49823,49840,49852,49878,50048,50087,50095,50096,50110,50111,50124,50125,50153,50153,50234,50443,50495,50711,50711,50740,50758,50887,51004,51043,51060,51128,51165,51165,51236,51273,51273,51336,51392,51392,51409,51426,51452,51452,51474,51492,51571,51643,51721,51793,51815,51815,51861,51895,51895,51911,51983,52012,52013,52039,52091,52140,52195,52273,52299,52312,52313,52376,52399,52428,52455,52477,52478,52525,52576,52577,52593,52609,52627,52679,52721,52728,52764,52806,52806,52831,52853,52878,52893,53012,53058,53058,53127,53167,53177,53273,53328,53416,53416" d="M173.5,160.63092C173.14734,162.04608 172.9855,162.6485 172.784,163.58025C172.56987,164.57037 172.5,165.50958 172.5,166.33542C172.5,167.23093 172.5,168.13092 172.5,169.03091C172.5,169.93092 172.3943,171.24336 172.92534,171.15892C173.79236,171.02104 173.78708,169.57256 174.14734,168.93092C174.58472,168.15193 174.81894,167.15672 175.07466,166.38425C175.375,165.47699 175.46225,164.68365 175.48933,163.89226C175.5276,162.77435 175.46266,161.99182 175.784,161.14958C176.0816,160.36955 176.56133,160.52882 176.92534,161.45625C177.19911,162.15379 177.3116,163.22191 177.85716,163.92642C178.43518,164.67285 179.4391,164.4157 179.5,163.53091C179.5618,162.63304 179.68858,161.51178 178.88933,161.10292C178.19611,160.74831 177.52859,161.9294 177.5,162.73093C177.46791,163.63034 178.0683,164.70009 177.41467,165.34558C176.84837,165.90485 175.88022,164.46313 175.52083,165.15175C175.11395,165.93137 175.30089,166.95357 175.50133,167.82959C175.6844,168.62973 176.68871,168.32826 177.25717,167.92642C178.1384,167.3035 178.7122,167.03397 179.69983,166.53091C180.48041,166.13333 181.31152,165.60004 181.97917,165.15175C182.67741,164.68292 183.57646,164.80695 183.47917,165.65175C183.36723,166.62376 182.73885,167.15858 182.52083,168.13092C182.32387,169.00934 182.75464,170.19983 182.064,170.59492C181.31339,171.02432 180.3,170.63092 179.39999,170.63092C178.5,170.63092 177.7,170.63092 176.74283,170.63092C175.85184,170.63092 174.94879,170.86771 174.216,170.34558C173.4819,169.82253 173.5798,168.68686 172.88933,168.06693C172.23055,167.47545 171.54671,167.06462 171.5045,166.27908C171.45018,165.26837 171.5,164.33092 171.5,163.43092C171.5,162.53091 171.06575,161.39851 171.66667,160.79759C172.26759,160.19667 173.35506,160.64073 174.10001,161.24159C174.75461,161.76959 175.22348,162.51993 176,163.11009C176.73798,163.67096 177.74249,163.73134 178.21466,164.43225C178.69345,165.14299 179.11813,165.94125 179.41467,166.83092C179.70055,167.68857 179.93425,168.86333 179.33333,169.46425C178.73241,170.06517 177.7,169.63092 176.8,169.63092C175.89999,169.63092 174.89063,169.79834 174.2045,169.27376C173.45422,168.70013 173.50067,167.74559 173.5,166.80559C173.49928,165.79759 173.5,165.04158 173.5,164.13092C173.5,163.23093 173.49991,162.33092 173.5,161.43092C173.50009,160.53108 173.782,159.67365 174.60001,159.63092C175.49878,159.58398 176.33444,159.43497 177.2,159.68808C178.07764,159.94472 178.94872,160.4162 179.47467,161.06693C180.06747,161.80038 180.41496,162.61832 180.49867,163.43092C180.59088,164.32619 180.5,165.23093 180.5,166.13092C180.5,167.03091 180.5,167.92642 180.5,168.80025L180.52083,169.67259" id="svg_10" stroke-width="3" stroke="#000" fill="none"/>
  <path t="56621,56822,56822,56855,56877,56877,56877,56920,57183,57219,57219,57236,57236,57254,57269,57269,57286,57286,57303,57321,57366,57467,57488,57508,57508,57525,57541,57541,57554,57554,57570,57587,57587,57787,57787,57796,57796" d="M218.5,202.63092C219.5,202.79759 220.27982,203.14644 221,203.67259C221.69803,204.18256 221.93454,204.90324 222.21466,205.86426C222.48749,206.80022 222.5,207.71625 222.5,208.63092C222.5,209.38809 222.5,210.28358 222.5,211.14693C222.5,212.13092 222.57011,213.12224 222.464,213.80559C222.31483,214.76624 221.64818,215.39824 221.5045,216.33092C221.36748,217.22044 221.50224,218.13092 221.5,219.03091C221.49774,219.93094 221.16882,220.66502 220.784,221.43092C220.38911,222.21684 220.55341,223.29443 220.44284,224.03542C220.2925,225.04298 219.93814,225.80275 219.30133,226.46292C218.66673,227.12079 218.47467,227.81625 218.216,228.74692L217.85266,229.38359L217.56616,230.28358L217.672,231.14693" id="svg_11" stroke-width="3" stroke="#000" fill="none"/>
  <path t="59256,59311,59326,59326,59343,59343,59343,59361,59361,59361,59361,59361,59376,59377,59377,59377,59393,59393,59411,59427,59443,59443,59443,59460,59460,59460,59477,59477,59477,59477,59477,59540,59540,59540,59540,59562,59577,59593,59593,59609,59609,59609,59627,59627,59627,59627,59659,59659,59659,59659,59676,59676,59676,59676,59694,59694,59710,59725,59725,59743,59743,59759,59776,59776,59776" d="M227.5,202.63092C229.10001,203.24159 229.84901,203.90474 230.2,204.44525C230.7887,205.35185 231.0162,206.19525 231.25717,206.79709C231.659,207.8007 231.97255,208.52194 232.34666,209.25626C232.73227,210.01311 233.14891,210.77405 233.92117,211.80908C234.42422,212.48329 234.9726,213.07468 235.49017,213.61209C236.15828,214.30579 236.88268,214.91541 237.37866,215.73076C237.85226,216.50931 238.66998,216.67998 239.34666,216.60959C240.19525,216.52132 241.19958,216.08461 241.72533,215.74825C242.57446,215.20499 243.34966,214.47894 243.81599,213.94426C244.29179,213.39871 244.95258,212.46919 245.18401,212.14426C245.92072,211.10989 246.44217,210.39066 246.95833,209.69342C247.43164,209.05408 248.01883,208.00078 248.7215,207.40976C249.40793,206.83238 250.13794,207.28625 250.82167,207.95242C251.34816,208.46539 251.93648,209.06686 252.92166,209.83058C253.44875,210.23917 254.008,210.66396 254.98666,211.06026C255.99277,211.46767 256.7543,211.52039 257.5,211.65175C258.24911,211.78371 259.36255,212.0798 260.01068,212.48425C260.96536,213.08 261.50269,213.57048 262.13568,214.48758C262.60577,215.16866 263.23334,214.88382 263.70001,214.14693C264.12704,213.47264 264.7012,212.71895 265.14282,211.93542C265.58994,211.14218 265.5,210.08826 265.5,209.38025L265.5,208.63625" id="svg_12" stroke-width="3" stroke="#000" fill="none"/>
  <path t="61663,61699,61699,61699,61730,61730,61730,61748,61748,61748,61748,61748,61764,61764,61764,61764,61782,61782,61798,61815,61832,61852,61852,61984,61984,62017,62036,62036,62036,62129,62129,62129,62259,62291,62303,62340,62355,62355,62371,62387,62387,62399,62399,62415,62415,62432,62432,62432,62448,62448,62448,62466,62466,62483,62483,62499,62499,62499,62515,62515,62515,62515,62597,62597,62635,62635,62713,62713,62758" d="M244.5,178.63092C244.14284,180.05058 243.99074,180.6759 243.7955,181.33458C243.42184,182.59517 243.09145,183.39182 242.864,183.91759C242.3382,185.13304 242.01616,185.88356 241.84283,186.28893C241.48227,187.13225 241.14148,187.99774 240.5,189.13092C240.12744,189.78906 239.73294,190.33197 239.15717,190.96025C238.41321,191.77205 237.6405,192.37534 237.11067,193.03091C236.50932,193.77499 236.12447,194.53255 235.33333,194.79759C234.4823,195.0827 233.64171,195.38426 232.91066,195.65625C232.05003,195.97646 231.36067,196.68314 230.65334,197.02025C229.84016,197.40781 228.8188,197.56746 228.02083,197.61009C227.27016,197.65019 225.91612,197.86916 225.536,197.19492C225.06747,196.36389 225.3623,195.29457 225.72133,194.53091C226.08601,193.75522 226.47412,192.9386 227.20984,192.33092C227.79303,191.84921 228.59651,191.40506 229.25267,190.93092C230.13245,190.29521 230.71304,190.03558 231.7,189.53075C232.30147,189.22308 233.12077,188.77237 233.89999,188.14693C234.51715,187.65157 235.07442,187.07916 235.89867,186.51625C236.64236,186.00835 237.50226,185.55801 238.12534,184.99492C238.8503,184.33977 239.35284,183.79941 239.9045,183.16925C240.72549,182.23143 241.10393,181.68407 241.47917,181.13092C242.0271,180.32323 242.60744,179.31343 242.97917,178.67259C243.49011,177.79178 244,177.15175 244.59984,176.53091L245.14284,175.93092L245.52533,175.03091" id="svg_13" stroke-width="3" stroke="#000" fill="none"/>
  <path t="65292,65653,65653,65678,65691,65691,65707,65707,65724,65724,65741,65741,65741,65741,65813,65813,65813,65813,65838,65838,65858,65876,65892,65908,65924,65924,65941,65941,65958,65958,65975,65975,65992,65992,66008,66052,66074,66092,66092,66108,66125,66141,66141,66157,66157,66174,66192,66192,66207,66207,66224,66224,66240,66375,66375,66394,66410,66426,66426,66444,66444,66444,66445,66460,66460,66460,66460,66475,66476,66476,66499,66499,66545,66561,66561,66561,66590,66614" d="M330.5,211.63092C330.85718,212.33626 331.21835,213.194 332.02084,213.61009C332.91769,214.07512 333.64099,214.31958 334.616,214.54559C335.36862,214.72005 336.35733,214.63097 337.01883,214.63092C338.14301,214.63083 338.81461,214.63547 339.54166,214.61009C340.30939,214.5833 341.50256,214.48041 342.29599,214.34692C343.44165,214.15417 344.12076,213.94276 345.2355,213.75243C346.06335,213.61108 346.89999,213.63092 347.79999,213.63092C348.70001,213.63092 349.60254,213.56354 350.5,213.63092C351.26361,213.68825 351.99927,214.18356 352.67465,214.81625C353.34897,215.44795 353.96487,216.15848 354.66666,216.63092C355.46408,217.16776 356.32187,217.53735 357.08932,217.62025C357.99478,217.71806 358.94708,217.53691 359.79999,217.98358C360.55222,218.37753 361.27832,218.75214 362.10001,219.20558C362.89148,219.64235 363.81848,219.85922 364.5,220.13092C365.47455,220.51944 366.1955,220.62866 367.13599,220.63092C367.98532,220.63295 368.90475,220.65181 369.89999,220.62959C370.70056,220.61172 371.69547,220.39874 372.41666,220.15175C372.56592,220.10063 371.13733,220.35713 371.08334,221.11009C371.03696,221.75728 372.17569,221.12376 372.94333,220.75243C373.715,220.37915 374.83365,220.64688 375.46799,220.62692C376.50116,220.59441 377.24994,220.59167 378.16666,220.13092C379.05667,219.68358 379.466,219.09558 379.89099,218.57458C380.71484,217.56464 381.28235,216.8709 381.84283,216.29259C382.47061,215.64484 383.06097,215.04555 383.48532,214.22025C383.95126,213.31404 384.36133,212.81625 385.01733,212.20026L385.85333,211.69225L386.5,211.13092" id="svg_14" stroke-width="3" stroke="#000" fill="none"/>
  <path t="69411,69501,69533,69533,69551,69551,69551,69551,69551,69551,69567,69567,69567,69567,69583,69583,69583,69600,69600,69616,69616,69634,69634,69650" d="M343.5,138.63092C343.5,137.82959 343.60098,137.02325 344.09732,136.57492C344.978,135.77942 345.48773,135.57289 346.49866,134.94426C347.0401,134.60757 347.60068,134.28053 348.68268,133.59758C349.67224,132.97299 350.48114,132.41307 351.12,131.91359C351.65332,131.49661 352.49734,130.79373 353.09549,130.38359C353.83954,129.87341 354.62933,129.157 354.97916,128.63092C355.52328,127.8126 356.10001,127.04159 356.69867,126.43092L357.21466,125.83092L357.55267,124.93092" id="svg_15" stroke-width="3" stroke="#000" fill="none"/>
  <path t="70347,70403,70403,70436,70436,70436,70436,70451,70451,70451,70451,70451,70451,70451,70451,70451,70470,70470,70470,70470,70470,70470,70486,70486,70503,70520,70536,70585,70654,70654,70782,70819" d="M314.5,136.63092C315.5,136.63092 316.25729,136.64258 317.21118,136.62642C317.771,136.61693 318.59061,136.57549 319.12534,136.54559C320.50024,136.46872 321.35587,136.41023 322.30667,136.34692C323.32758,136.27895 324.39334,136.20575 325.47916,136.13092C326.56,136.05643 327.61081,135.98308 328.60666,135.91492C330.33328,135.79672 331.0206,135.75148 331.59201,135.71625C332.06128,135.6873 332.4422,135.65295 333.19867,135.63542C334.15244,135.61331 334.84732,135.63092 335.86401,135.63092C336.79999,135.63092 337.7204,135.44081 338.59982,135.63126C339.38715,135.80176 339.48932,136.81625 339.50134,137.74425L339.78534,138.54559" id="svg_16" stroke-width="3" stroke="#000" fill="none"/>
 </g>
</svg>