<svg width="500" height="281.69014084507046" xmlns="http://www.w3.org/2000/svg" xmlns:svg="http://www.w3.org/2000/svg" xmlns:xlink="http://www.w3.org/1999/xlink">
 <!-- Created with SVG-edit - http://svg-edit.googlecode.com/ -->
 <g display="inline" class="layer">
  <title>Layer 1</title>
  <path t="0,212,229,236,252,260,284,308,365,379,411,435,443,443,467,475,491,499,515,542,558,558,563,643,661,661,668,683,699,711,729,744,760,771,771,980,996,1020,1029,1048,1052,1065,1068,1092,1100,1115,1130,1132,1140,1163,1172,1182,1188,1212,1212,1220,1252,1300,1357,1420,1452" d="M226.5,89.84507C225.62134,88.62373 224.89168,88.10622 224.536,87.40907C224.14494,86.64261 223.77441,85.97115 223.51067,85.23441C223.21091,84.39704 223.5,83.44507 223.5,82.54507C223.5,81.64507 223.5,80.74507 223.5,79.84507C223.5,79.04507 223.13683,78.04818 223.536,77.28107C223.93114,76.52168 224.29521,76.00671 224.55716,75.14507C224.82611,74.26039 225.62363,73.54122 226.3,73.1304C227.07614,72.659 227.65431,71.92881 228.5,71.84507C229.29611,71.76624 230.2,71.84507 231.10001,71.84507C232,71.84507 232.89999,71.84507 233.8,71.84507C234.7,71.84507 235.60001,71.84507 236.5,71.84507C237.3,71.84507 238.35353,71.88993 238.49867,72.6464C238.668,73.52897 238.4946,74.44508 238.5,75.34507C238.50534,76.23445 239.27478,76.78168 239.4955,77.54957C239.74287,78.41023 239.56535,79.2825 240.07466,79.8704C240.63658,80.51902 241.50217,80.35246 242.21466,80.9304C242.95877,81.534 242.7818,82.51756 243.37866,83.06641C244.01871,83.65495 244.81181,84.03795 245.21466,84.6464C245.75854,85.46786 246.30133,85.92907 247.10001,86.41974L247.88933,86.81974L248.47917,87.36591L248.5,88.24507" id="svg_1" stroke-width="3" stroke="#000" fill="none"/>
  <path t="2102,2403,2411,2443,2453,2473,2492,2508,2528,2550,2564,2573,2573,2587,2604,2627,2637,2643,2659,2685,2708,2723,2731,2747,2763,2811,2932,2964,2980,2996,3012,3044,3044,3059,3082,3108,3145,3149,3172,3195,3196,3196,3228,3243,3267,3283,3299,3331" d="M237.5,80.84507C235.8,80.84507 234.77437,80.40388 233.936,80.88107C233.24451,81.27467 233.5,82.44507 233.5,83.34507C233.5,84.24507 233.5,85.14507 233.5,86.04507C233.5,86.94507 233.5,87.84507 233.5,88.64507C233.5,89.54507 233.4946,90.44508 233.5,91.34507C233.50534,92.23445 234.217,92.72212 234.48933,93.45573C234.79904,94.28999 234.90189,95.11478 235.37866,95.9449C235.83252,96.73512 236.23712,97.45679 236.936,97.80907C237.79742,98.24327 238.8,97.84515 239.7,97.84507C240.59984,97.84499 241.4391,97.62984 241.5,96.74507C241.5618,95.84719 241.5,95.04507 241.5,94.14507C241.5,93.24507 241.5,92.34507 241.5,91.44507C241.5,90.54507 241.5,89.64507 241.5,88.74507C241.5,87.84507 241.5,87.04507 241.5,86.14507C241.5,85.24507 241.5,84.34507 241.5,83.44507L241.5,82.54507L241.5,81.64507" id="svg_2" stroke-width="3" stroke="#000" fill="none"/>
  <path t="5076,5155,5175,5188,5196,5196,5206,5212,5223,5228,5240,5244,5259,5260,5272,5275,5291,5427,5517,5532,5547,5563,5574,5579,5591,5597,5611,5627,5637,5667,5675,5691,5707,5715,5715,5739,5759,5765,5779,5795,5808,5811,5883,5900,5979,6139,6148,6171,6196,6204,6213,6220,6243,6262,6278,6284,6362,6364,6395,6411,6435,6459,6483,6495,6515,6516,6548,6571,6571,6603,6619,6635,6651,6803,6819,6835,6851,6865,6868,6868,6886,6899,6899,6908,6908,6917,6924,6933,6933,6940,6949,6949,6956,6966,6972,6988,6999,7004,7013,7035,7051,7075,7083,7107,7123,7131,7147,7179,7187,7219,7275,7323,7339,7355,7355,7371,7387,7399,7416,7433,7435,7451,7467,7467,7484,7491,7500,7507,7523,7550,7567,7603,7619,7632,7787,7891,7892,7923,7939,7979,8555,8563,8611,8611,8635,8659,8660,8699,8731,8763,8947,9011,9026,9036,9051,9062,9068,9099,9347,9362,9372,9387,9396,9414,9428,9447,9467,9596,9659,9747,9756,9827,9828,9835,9924,9932,9955,9995,10035,10067,10076,10117,10259,10315,10366,10395,10419,10483,10492,10668,10747,10748,10764,10787,10827,10843,10855,10872,10891,10907,10908,11003,11003,11128,11143,11158,11179,11203,11220,11235,11259,11270,11287,11363,11411,11427,11439,11491,11507,11539,11559,11587,11611,11626,11683,11694,11804,11811,11859,12051,12083,12097,12139,12160,12177,12211" d="M226.5,88.84507C227.72133,89.72374 228.37131,90.21028 228.50133,91.04507C228.64392,91.96053 229.30988,92.49915 229.48933,93.44507C229.6571,94.32936 229.5,95.24507 229.5,96.14507C229.5,97.04507 229.5,97.94507 229.5,98.84507C229.5,99.64507 229.5,100.54507 229.5,101.44507C229.5,102.34507 229.5,103.24507 229.5,104.14507C229.5,105.04507 229.75862,106.07171 229.27867,106.72374C228.76469,107.422 227.78333,107.72224 227.51067,108.45573C227.20786,109.27035 226.74837,109.78871 226.5045,110.54957C226.21748,111.44505 225.82668,112.12608 225.27867,112.72374C224.69357,113.36186 224.68889,114.11436 224.2785,114.94507C223.93735,115.63565 223.05713,116.21053 222.62134,116.9449C222.15628,117.72858 221.5293,118.20097 221.5,119.14507C221.47214,120.0433 221.1759,120.71075 220.52533,121.2704C219.88206,121.82376 219.18878,122.23293 218.66667,123.01173C218.19344,123.71762 218.21475,124.52348 217.584,125.12907C217.01112,125.67908 216.79214,126.41979 216.48933,127.23441C216.21667,127.9679 215.89856,128.55925 215.464,129.40907C215.10768,130.1059 214.50067,130.64641 214.5,131.54507C214.49933,132.44507 214.5,133.34506 214.5,134.24507C214.5,135.14507 214.5,136.04507 214.5,136.94507C214.5,137.84506 214.5,138.64507 214.5,139.48106C214.5,140.49774 214.5,141.1924 214.5,142.20908C214.5,143.14507 214.37595,144.0537 214.50017,144.9449C214.61189,145.74646 215.47141,145.4892 215.5,144.54507C215.52724,143.64548 215.45221,142.7438 215.5,141.84506C215.54272,141.04167 216.12918,140.37338 216.37849,139.52374C216.62077,138.69806 216.49561,137.72905 216.5,136.96107C216.50534,136.03036 216.96011,135.25473 217.37849,134.40224C217.70924,133.72829 217.32161,132.67699 217.66667,131.84506C217.992,131.06071 218.62788,130.38893 219.14734,129.7924C219.71652,129.13878 219.9604,128.32146 220.44733,127.54957C220.89044,126.84713 221.43661,126.07027 222.2045,125.84957C223.06517,125.6022 224,125.84507 224.89999,125.84507C225.8,125.84507 226.79788,125.68574 227.44733,126.19774C228.06194,126.68228 228.8224,126.647 229.69867,126.84641C230.50298,127.02943 230.5,128.14507 230.5,129.04507C230.5,129.94507 230.5,130.84506 230.5,131.64507C230.5,132.54507 230.5,133.44507 230.5,134.34506C230.5,135.24507 230.49991,136.14507 230.5,137.04507C230.50009,137.94507 230.71097,138.81723 231.07466,139.44507C231.52063,140.21494 231.3176,141.48715 232.02083,141.82423C232.80452,142.19989 233.18762,142.42761 233.51067,143.23441C233.82664,144.02354 234.50357,144.62578 235.30133,144.84373C236.18633,145.08551 236.72954,145.55136 237.5,146.01173C238.2195,146.44167 238.48958,147.34488 238.5,148.24507C238.51041,149.145 238.5,150.04507 238.5,150.94507C238.5,151.84506 238.5,152.64507 238.5,153.54507C238.5,154.44507 238.5,155.34506 238.5,156.24507C238.5,157.14507 238.34933,158.0578 238.50017,158.9449C238.64488,159.79597 239.8824,160.23941 240.41467,159.55974C240.98033,158.83743 241.06886,158.16846 241.464,157.40907C241.86317,156.64197 241.59366,155.55408 241.5,155.55408C240.60901,155.55408 241.5,157.34506 241.5,158.24507C241.5,159.14507 241.33446,160.14787 241.85266,160.7924C242.34419,161.40378 243.11063,161.83972 244,161.84506C244.89998,161.85046 245.85007,161.71341 246.60001,162.06641C247.37552,162.43144 248.28835,162.8446 248.49867,163.64641C248.71271,164.46233 249.30133,164.84439 250.2,164.84506C251.10001,164.84573 252.05197,164.55598 252.88933,164.85574C253.62607,165.11948 254.3181,165.83936 254.49867,166.64641C254.6949,167.52339 254.5,168.44507 254.5,169.34506C254.5,170.24507 253.73227,171.10872 254.08533,171.80907C254.27269,172.18074 255.42339,172.23065 256.14282,171.7879C256.87961,171.33447 257.16171,170.36594 257.88934,169.87041C258.55515,169.41698 259.25165,168.90143 259.49551,168.14056C259.78253,167.24509 260.35638,166.79326 260.5,165.84506C260.61981,165.05409 260.86316,164.04817 260.46399,163.28107C260.06885,162.52168 259.34442,161.92873 258.39999,161.84506C257.50351,161.76564 256.94556,161.42744 256.2785,160.96657C255.54897,160.46252 254.82967,160.2984 254.14284,159.90224C253.32826,159.43239 252.69315,159.17456 251.97917,158.86591C251.17195,158.51695 250.17831,159.03996 249.30133,158.84373C248.49429,158.66316 248.0032,158.17262 247.11067,157.8344C246.37891,157.5571 246.09637,156.65208 245.416,156.12907C244.80472,155.65918 243.67743,156.25629 242.85716,155.7879C242.04399,155.32358 241.89099,154.33789 241.14284,153.90224C240.41388,153.47777 239.55716,153.4879 239.4955,152.54958L239.07466,151.87041" id="svg_3" stroke-width="3" stroke="#000" fill="none"/>
  <path t="13172,13259,13267,13283,13299,13307,13315,13315,13332,13348,13348,13379,13387,13467,13499,13507,13519,13533,13539,13550,13566,13571,13587,13603,13619,13627,13651,13659,13683,13691,13700,13717,13723,13734,13739,13739,13755,13763,13771,13787,13795,13803,13827,13835,13899,14019,14163,14251,14369,14388,14388,14411,14421,14451,14475,14475,14483,14491,14507,14524,14531,14547,14547,14563,14579,14590,14627,14627,14683,14715,14731,14771,14781,14796,14810,14811,14843,14862,14883,14897,14912,14915,14947,15011,15029,15044,15051,15067,15147,15163,15187,15275,15307,15315,15331,15427,15485,15502,15507,15508,15531,15550,15555,15603,15619,15643,15651,15667,15691,15731,15739,15891,15899,15947,15955,16003,16035,16083,16092,16102,16131,16140,16164,16211,16228,16259,16270,16288,16307,16308,16375,16385,16385,16385,16400,16427,16435,16451,16459,16483,16501,16507,16517,16534,16551,16551,16571,16579,16603,16611,16619,16659,16668,16699,16718,16734" d="M256.5,166.84506C259.08932,166.84506 260,166.84506 260.89999,166.84506C261.79999,166.84506 262.70001,166.84506 263.60016,166.84506C264.38535,166.84506 265.32535,166.84506 266.33334,166.84506C267.08932,166.84506 268,166.84506 268.89999,166.84506C269.79999,166.84506 270.79788,167.00439 271.44733,166.4924C272.06195,166.00786 272.82852,165.88448 273.5,165.34506C274.10699,164.85744 274.08734,164.0168 274.55716,163.20224C274.95334,162.5154 275.81763,162.09846 276.41599,161.56107C277.05444,160.98764 277.13153,160.24258 277.52084,159.36591C277.83655,158.65501 278.3808,158.00594 279.02084,157.36591C279.66089,156.72588 280.35617,156.44548 280.784,155.64507C281.24149,154.7892 281.72552,154.30313 282.37866,153.62373C282.93604,153.04393 283.39374,152.37108 283.784,151.64507C284.24347,150.79027 284.91769,150.2907 285.37851,149.62357C285.88254,148.89388 285.04681,147.57123 285.7215,146.96657C286.38184,146.37477 287.228,146.51012 287.78534,145.92773C288.45557,145.2274 288.76917,144.57368 289.70001,144.01573C290.40161,143.5952 291.28479,143.58208 291.66666,142.84506C292.05728,142.09109 292.3201,141.23654 292.85718,140.54958C293.43878,139.80569 294.43912,139.62984 294.5,138.74507C294.5618,137.84718 294.47275,137.04466 294.5,136.14507C294.52859,135.20094 295.35638,134.79326 295.5,133.84506C295.61981,133.05409 295.5,132.14507 295.5,131.24507C295.5,130.34506 295.50891,129.4395 295,128.84506C294.49365,128.25362 293.64575,127.8011 293.50134,127.04374C293.33301,126.16098 293.43448,125.21606 292.69867,124.76107C292.01282,124.33697 291.51459,123.46481 291,122.84507C290.50009,122.24303 290.78909,121.2931 290.48932,120.45573C290.22559,119.71899 289.34116,119.32697 288.784,118.76107C288.12332,118.09005 287.26785,118.0893 286.58401,117.56107C285.95651,117.07636 285.18411,117.01207 284.30133,116.84373C283.54398,116.69932 283.06454,115.86372 282.20001,115.84507C281.3002,115.82566 280.44916,115.54423 279.79999,115.19774C278.95062,114.74439 277.94803,115.13417 277.11066,114.8344C276.3739,114.57066 275.88934,113.85567 275,113.84507C274.10001,113.83434 273.09659,113.56457 272.66666,112.84507C272.2063,112.07461 271.34619,112.16743 270.62134,111.62373C269.97833,111.14143 269.02094,111.17004 268.55716,110.4879C268.08289,109.79032 268.15585,108.8876 267.5,108.34507C266.89703,107.84629 265.79608,107.96015 265.51068,107.23441C265.19263,106.42563 264.70923,105.84418 264.50134,105.04374C264.28931,104.22729 263.8201,103.56126 263.216,102.92907C262.66565,102.3531 262.13882,101.69371 261.784,101.04507C261.33389,100.22224 261.08215,99.28694 260.63867,98.60507C260.17377,97.89025 259.24011,97.50554 258.66666,96.67841C258.18246,95.98 258.21478,95.16666 257.58401,94.56107C257.01114,94.01106 256.43976,93.40419 255.92534,92.81974C255.37662,92.19631 254.95821,91.36478 254.30133,90.64507C253.76785,90.06056 253.34151,89.33013 252.784,88.76107C252.12495,88.08837 251.63431,87.52097 251.07466,86.8704C250.5213,86.22714 249.85266,85.7924 249.33333,85.01173L248.62134,84.62373L248.14734,83.89774" id="svg_4" stroke-width="3" stroke="#000" fill="none"/>
  <path t="18900,19211,19243,19254,19283,19303,19323,19379,19388,19435,19435,19468,19499,19507,19507,19520,19553,19555,19571,19603,19622,19667,19707,19707,19795,19939,19987,19995,20027,20042,20091,20115,20259,20291,20291,20317,20459,20547,20562" d="M279.5,126.84507C277.66666,127.01173 276.9928,127.45409 276.55716,128.20224C276.13269,128.93118 276.10803,129.58899 275.2045,129.84956C274.4924,130.05493 274.05765,130.95688 273.66666,131.84506C273.37714,132.50272 273.18552,133.23221 272.66666,134.01173C272.19577,134.71919 272.90274,135.78148 272.41467,136.55974C271.95032,137.30016 271.82236,137.99887 271.27866,138.72374C270.79636,139.36674 270.5,140.04507 270.5,140.94507C270.5,141.84506 270.5,142.64507 270.5,143.54507C270.5,144.44507 270.6441,145.21352 271.14734,145.89774C271.63733,146.56395 271.50641,147.62346 272.30133,147.84373C273.18546,148.08873 273.6543,148.76132 274.5,148.84506C275.29608,148.92389 276.21466,148.9304 276.7215,149.72357L277.59982,149.84523L278.37866,150.06641" id="svg_5" stroke-width="3" stroke="#000" fill="none"/>
  <path t="21436,21811,21851,21947,21955,21979,21987,22027,22051,22059,22069,22107,22147,22179,22211,22242,22258,22274,22290,22300,22317,22317,22355,22370,22371,22371,22386,22395,22435" d="M277.5,124.84507C279.29999,124.84507 279.88715,125.15957 280.66666,125.67841C281.37411,126.14928 282.31281,126.01611 282.5,126.84507C282.69958,127.72894 283.1777,128.41187 283.936,128.80907C284.69821,129.20831 285.22565,129.32655 285.50449,130.14056C285.7836,130.95538 286.49466,131.45569 286.5,132.34506C286.5054,133.24506 286.5,134.14507 286.5,135.04507C286.5,135.94507 286.5,136.84506 286.5,137.64507C286.5,138.51707 286.5,139.38774 286.5,140.34506C286.5,141.07707 286.5,142.17307 286.5,143.04507L286.5,143.94507" id="svg_6" stroke-width="3" stroke="#000" fill="none"/>
  <path t="23340,23571,23579,23611,23683,23707,24370,24411,24459,24467,24499,24723,24735,24835,24939,24939,24951,25083,25243" d="M277.5,137.84506C279.29999,137.84506 279.88715,138.15958 280.66666,138.67841C281.37411,139.14928 282.50888,138.93121 282.78265,139.75974C282.80954,139.84114 281.98325,140.00706 281.41599,140.56107C280.74225,141.21904 280.14429,141.81647 279.29999,141.84506C278.40051,141.87553 277.5,141.84506 276.70001,141.75974L275.89999,141.2704L275.11066,140.87041L274.52084,140.32423" id="svg_7" stroke-width="3" stroke="#000" fill="none"/>
  <path t="26157,26367,26395,26443,26523,26523,26651,26755,26835,26851,26867,26915,26915,26955,26979,27003,27003,27019,27171,27171,27243,27291,27307,27347,27395,27404,27428,27483,27492,27739,27795,27796,27827,27867,27899,27923,27979,28005,28019,28043,28307,28361" d="M250.5,117.84507C248.8,117.84507 248.11284,117.53057 247.33333,117.01173C246.62587,116.54086 245.7,116.84507 244.8,116.84507C243.89999,116.84507 243.09373,116.94144 242.44733,117.4924C241.84293,118.00756 241.47292,118.84553 241.5,119.64507C241.52859,120.48935 242.41626,120.99937 242.5,121.84507C242.57883,122.64118 242.55278,123.70076 243.5,123.84507C244.29088,123.96556 245.29263,123.49018 246.064,123.88107C246.76212,124.23486 247.17841,125.1303 247.784,125.76107C248.334,126.33394 249.02068,126.83244 249.89999,126.84507C250.79543,126.85793 251.48198,127.2609 251.5,126.84507C251.53462,126.04581 251.5,125.14507 251.5,124.24507C251.5,123.34507 251.5,122.44507 251.5,121.54507C251.5,120.64507 251.49983,119.74524 251.27867,118.9664L250.55267,118.4924L250.064,117.88107" id="svg_8" stroke-width="3" stroke="#000" fill="none"/>
  <path t="29812,29915,29933,29933,29947,29955,29964,29971,29987,29999,30035" d="M231.5,116.84507C229.66667,117.01173 229.66817,117.88151 229.41467,118.64507C229.15833,119.41724 228.76038,120.28418 228.4955,121.14057C228.25941,121.90388 227.52083,122.36591 227.5,123.24507L227.5,124.14507" id="svg_9" stroke-width="3" stroke="#000" fill="none"/>
  <path t="32372,32603,32627,32627,32649,32707,32747,32803,32915,32955,32971,32982,33099,33131,33299,33323,33355,33443,33443,33483,33523,33779,33787,33795,33827,33851,33871,33886,33900,33933,33933,33940,33940,33955,33970,34243,34259,34283,34307,34321,34370,34371,34371,34371,34378,34394,34418,34427,34497,34595,34643,34675,34698,34731,34748,34764,34786,34959,34988,34988,35035,35051,35308,35395,35483" d="M253.5,144.84506C251.66667,145.01173 251.5,145.84506 251.5,146.64507C251.5,147.54507 251.5,148.44507 251.5,149.34506C251.5,150.24507 251.3051,151.16675 251.50133,152.04373C251.6819,152.85078 252.5477,153.20535 253.07466,153.87041C253.57086,154.49664 253.64531,155.29102 254.216,155.92908C254.79893,156.58084 255.5,156.84506 256.29999,156.84506C257.20001,156.84506 258.22562,157.28625 259.064,156.80907C259.75549,156.41547 259.64532,155.39912 260.216,154.76106C260.79892,154.1093 261.45728,153.56271 261.5,152.64507C261.54184,151.74605 261.40625,150.83208 261.55716,150.08791C261.74402,149.1665 262.25119,148.60405 262.97916,147.86591C263.56543,147.27144 264.31372,146.27049 263.87866,145.85574C263.24265,145.24942 262.10001,145.84572 261.20001,145.84506C260.29868,145.84439 259.33017,145.68634 258.67465,145.41974C257.98056,145.13744 256.91068,144.85477 256.10001,144.84506C255.11069,144.83321 254.62607,144.11948 253.88933,143.85574C253.05197,143.55598 252.10001,143.84506 251.2,143.84506C250.3,143.84506 249.26784,143.60083 248.584,144.12907C247.95651,144.61378 247.17763,144.65666 246.54817,145.20224C245.87537,145.78539 245.27374,146.36749 244.66933,147.04373C244.06111,147.72421 243.536,148.28107 243.5,149.14507L243.50133,150.04373" id="svg_10" stroke-width="3" stroke="#000" fill="none"/>
  <path t="37836,38283,38374,38374,38378,38379,38405,38451,38483,38507,38547,38563,38564,38586,38588,38618,38642,38650,38660,38678,38698,38722,38739,38746,38754,38770,38786,38795,38802,38818,38834,38850,38850,38862,38878,38893,38900,38930,38954,38970,38986,38986,39026,39050,39066,39074,39100,39114,39138,39170,39182,39196,39218,39231,39243,39266,39274,39282,39290,39306,39315,39331,39338,39348,39364,39364,39370,39381,39402,39414,39415,39418,39450,39458,39458,39474,39482,39522,39535,39555,39570,39579,39589,39612,39622,39622,39626,39634,39651,39658,39667,39685,39690,39700,39707,39707,39720,39722,39738,39751,39752,39752,39754,39768,39770,39786,39794,39802,39818,39826,39835,39842,39858,39869,39886,39886,39890,39906,39919,39938,39946,39954,39978,39994,40010,40026,40036,40042,40054,40074,40090,40103,40120,40122,40154,40162,40210,40219,40258,40317,40376,40387,40387,40387,40434,40434,40458,40474,40506,40538,40538,40560,40604,40747,40759" d="M227.5,135.84506C227.33333,137.67841 226.5,137.84506 225.74283,137.84506C224.84734,137.84506 223.98399,137.84506 223.02083,137.84506C222.10001,137.84506 221.2,137.84506 220.3,137.84506C219.39999,137.84506 218.45895,137.66344 217.7,137.9304C216.9389,138.19812 216.53447,139.24239 216,139.84506C215.48338,140.4276 214.82994,140.95457 214.416,141.64641C213.94012,142.44176 212.8586,142.63643 212.52083,143.36591C212.11778,144.23636 211.72522,144.78168 211.5045,145.54958C211.25713,146.41023 211.66728,147.45435 211.14284,148.14056C210.56944,148.89082 209.5609,149.0603 209.5,149.94507C209.4382,150.84294 209.5,151.64507 209.5,152.54507C209.5,153.44507 209.5,154.34506 209.5,155.24507C209.5,156.14507 209.41788,157.04884 209.50017,157.94507C209.58385,158.85651 210.08653,159.43956 210.5,160.34506C210.86314,161.14037 211.08508,161.99478 211.66667,162.67841C212.23326,163.34441 213.16605,163.65387 213.47917,164.36591C213.82903,165.16145 214.22604,165.71883 214.48933,166.45573C214.82224,167.38744 214.58948,168.26244 215.07466,168.87041C215.57304,169.4949 215.15694,170.52364 215.52083,171.32423C215.87228,172.09747 216.55534,172.54808 217,173.34506C217.44551,174.14359 217.39206,175.10513 217.85266,175.79691C218.31541,176.4919 218.20729,177.24384 218.51067,178.19841C218.73872,178.916 219.99542,179.08199 220.37849,179.94507C220.66663,180.59424 220.78152,181.33878 221.37866,182.06657C221.97678,182.79556 221.94814,183.66327 222.52533,184.40907C223.00946,185.03462 223.78525,185.52348 224.416,186.12907C224.98886,186.67908 225.44119,187.42241 226.11067,187.87041C226.84608,188.36253 227.75269,188.63179 228.5,189.01173C229.16536,189.35002 229.74193,190.22997 230.59984,190.72374C231.3373,191.14818 231.82605,191.70848 232.47467,192.2704C233.06256,192.77971 233.96111,192.52881 234.7955,192.85406C235.57364,193.15738 235.4326,194.5172 236.2045,194.83607C237.0332,195.17842 237.88661,195.31483 238.66667,195.84506C239.29646,196.27316 239.74229,196.82288 240.54817,197.4879C241.19064,198.01808 242.21266,197.8791 242.89999,198.2704C243.71458,198.73416 244.31046,199.3356 244.936,199.81973C245.68181,200.39693 246.66168,200.42725 247.37866,201.06641C247.97867,201.60129 248.74846,201.69154 249.5,202.01173C250.28119,202.34456 250.95615,202.97295 251.55267,203.4924C252.2063,204.06157 253.05753,204.25024 253.88933,204.81973C254.55402,205.2748 255.12727,205.8392 255.89999,206.2704C256.71893,206.72739 257.72662,206.58644 258.37866,207.06641C259.07693,207.5804 259.30994,208.50854 260.02084,208.82423C260.89752,209.21353 261.43661,209.61987 262.2045,209.84058C263.06519,210.08795 264.05197,209.55598 264.88934,209.85574C265.62607,210.11948 266.1106,210.83972 267,210.84506C267.89996,210.85046 268.81979,210.79196 269.83334,211.01173C270.51477,211.15948 271.23364,211.48409 272.35699,211.72357C273.07108,211.87581 274,211.84282 274.89999,211.84506C275.79999,211.84732 276.63837,212.23114 277.29999,212.56107C278.14337,212.98163 279.10001,212.84506 280,212.84506L280.89999,212.84506" id="svg_11" stroke-width="3" stroke="#000" fill="none"/>
  <path t="41494,41539,41539,41560,41581,41597,41597,41602,41622,41627,41658,41666,41706,41716,41738,41760,41770,41771,41794,41802,41819,41828,41834,41882,41895,41939,41954,41978,41986,41999,42026,42034,42050,42062,42074,42090,42106,42106,42114,42138,42147,42154,42170,42181,42198,42202,42218,42231,42242,42258,42270,42290,42298,42306,42350,42386,42418,42442,42482,42547,42547,42683,42731,42763,42797,42803,42842,42866,42946,43003,43024" d="M263.5,167.84506C264.5,168.84506 265.29279,168.94279 266,169.34506C266.88065,169.84599 267.15067,170.51096 267.58401,171.27707C267.99521,172.004 268.94595,171.99039 269.58401,172.56107C270.23578,173.14398 270.85193,173.6722 271.44733,174.19774C272.08545,174.761 272.68564,175.33798 273.216,175.92908C273.75443,176.52914 274.24469,177.38281 274.46399,178.24507C274.68494,179.11383 275.00333,179.50081 275.88934,179.85574C276.61325,180.14574 276.24918,181.28223 276.50449,182.14056C276.73132,182.90321 277.84845,182.7742 278.47467,183.2704C279.13974,183.79738 279.68561,184.3338 280.33334,185.01173C280.93741,185.64395 281.44611,186.19878 282,186.84506C282.5242,187.45671 282.90985,188.27084 283.60001,188.9449C284.17892,189.51033 284.87381,189.95656 285.55267,190.4924C286.13272,190.95026 287.28842,190.84879 287.49866,191.64641C287.71365,192.46207 288.18091,193.12793 288.784,193.76106C289.33087,194.33519 289.41522,195.20479 289.92532,195.81973C290.42242,196.41899 291.31427,196.83315 291.49551,197.54958C291.71515,198.41772 291.63586,199.30536 292.14734,199.89774C292.71378,200.55376 293.20322,201.26666 293.46399,202.24507C293.69601,203.11559 293.82614,203.88173 294.216,204.64507C294.60052,205.39796 294.33719,206.28313 293.85266,206.89774C293.34067,207.5472 293.45514,208.69861 292.69867,208.84373C291.81607,209.01306 290.89999,208.84506 290,208.84506L289.10001,208.84506" id="svg_12" stroke-width="3" stroke="#000" fill="none"/>
  <path t="44285,44499,44523,44532,44548,44565,44584,44675,44715,44738,44739,44770,44786,44802,44814,44834,44834,44850,44866,44874,44882,44890,44906,44906,44914,44932,44948,44948,44954,44964,44970,44981,44986,44999,45002,45015,45032,45034,45042,45042,45066,45074,45082,45099,45115,45115,45122,45138,45149,45166,45182,45201,45218,45250,45268,45306,45370,45419,45458,45471,45474,45514,45538,45570,45594,45610,45619,45650,45674,45706,45722,45762,45762,45794,45802,45810,45834,45866,45874,45899,45906,45930,45946,45957,46051,46072,46098" d="M230.5,154.84506C230.5,156.64507 230.8549,157.63773 230.464,158.40907C230.11021,159.10719 229.89294,159.77684 229.41467,160.55974C228.92397,161.36299 228.5,161.94507 228.5,162.84506C228.5,163.64507 228.48959,164.54514 228.5,165.44507C228.51042,166.34525 229.00049,167.06387 229.33333,167.84506C229.65353,168.5966 229.55716,169.54507 230,170.34506C230.44284,171.14507 230.25305,172.22479 230.85716,172.7924C231.51895,173.4142 232.36119,173.5918 232.88933,174.24507C233.4915,174.98991 233.68864,175.97307 234.2045,176.54507C234.86029,177.27228 235.73378,177.52492 236.416,178.12907C237.01054,178.65558 237.5538,179.29167 238.07466,179.87041C238.64874,180.50827 239.35559,180.85483 240.10001,181.45573C240.75368,181.9834 241.62117,182.45862 242.21466,182.92908C242.95322,183.51453 243.17766,184.41196 243.936,184.80907C244.70226,185.21031 245.8118,185.03795 246.21466,185.64641C246.75854,186.46785 247.27826,186.96878 248.10001,187.41974C248.87997,187.84778 250.06703,187.59149 250.464,188.28107C250.8933,189.02678 250.86028,189.89276 251.52533,190.41974C252.15155,190.91594 252.94594,190.99039 253.584,191.56107C254.23576,192.144 254.80646,192.6328 255.69867,192.84641C256.44849,193.02592 256.97372,193.59454 257.7955,193.84956C258.55859,194.08636 258.94131,195.00087 259.55267,195.4924C260.1972,196.01059 260.92892,196.21579 261.7215,196.72357C262.46826,197.20201 263.5,196.84506 264.29999,196.84506C265.20001,196.84506 266.17197,196.51695 266.97916,196.86591C267.69315,197.17456 268.2045,197.84282 269.10001,197.84506C270,197.84732 270.84357,197.91203 271.52533,198.41974C272.16614,198.89696 273.10001,198.84506 274,198.84506L274.88934,198.85574L275.5,199.34506" id="svg_13" stroke-width="3" stroke="#000" fill="none"/>
  <path t="56876,57011,57022,57026,57042,57066,57114,57135,57138,57170,57179,57194,57210,57226,57258,57269,57298,57320,57354,57370,57394,57475,57493,57522,57540,57557,57603,57642,57658,57672,57738,57760,57794,57835,57858,57874,57922,57923,57946,57958" d="M255.5,174.84506C258.05334,174.88107 258.54398,175.69931 259.30133,175.84373C260.18411,176.01207 261.29016,175.84831 261.49866,176.64641C261.72626,177.51773 262.02576,178.31621 262.7955,178.7924C263.44705,179.1955 263.30511,180.16675 263.50134,181.04373C263.68192,181.85078 264.48135,182.28052 264.5,183.14507C264.51938,184.04352 264.86212,184.78151 265.5,185.34506C266.0835,185.86058 266.71506,186.39343 267.33334,187.01173C267.95163,187.63004 268.4845,188.26158 269,188.84506C269.56357,189.48294 270.04358,190.06992 270.72134,190.72374C271.29984,191.2818 271.34067,192.14294 271.85266,192.7924C272.33719,193.40701 272.5,194.24507 272.5,195.14507C272.5,196.04507 272.5,196.94507 272.5,197.84506L272.5,198.64507L272.5,199.54507L272.5,200.44507" id="svg_16" stroke-width="3" stroke="#000" fill="none"/>
  <path t="58731,58850,58868,58879,58894,58911,58922,58930,58945,58961,58962,58970,58994,59202" d="M279.5,211.84506C281.29999,211.84506 282.20001,211.84506 283.10001,211.84506C284,211.84506 284.89999,211.84506 285.79999,211.84506C286.70001,211.84506 287.60001,211.84506 288.5,211.84506C289.29999,211.84506 290.20001,211.84506 291.10001,211.84506L291.97916,211.82423" id="svg_17" stroke-width="3" stroke="#000" fill="none"/>
  <path t="60366,60506,60523,60531,60554,60574,60575,60578,60578,60594,60594,60618,60638,60638,60642,60658,60658,60674,60674,60682,60698,60698,60706,60714,60722,60739,60746,60746,60754,60772,60778,60789,60789,60797,60819,60819,60826,60841,60857,60857,60865,60874,60889,60906,60914,60914,60929,60945,60956,60962,60977,61018,61098,61108,61114,61145,61177,61274,61295,61298,61362,61379,61410,61450,61730,61746" d="M224.5,95.84507C222.8,95.84507 221.87372,95.9123 221.416,96.6464C220.97409,97.35515 220.17709,97.94241 219.5,98.34507C218.66472,98.8418 218.01569,99.33981 217.3,100.04507C216.79636,100.54139 216.10001,101.24506 215.39999,101.94507C214.89999,102.44507 214.2,103.14507 213.5,103.84507C213,104.34507 212.3,105.04507 211.7,105.64507C211.10001,106.24507 210.2991,106.86718 209.85716,107.54507C209.37869,108.27898 209.07877,109.10397 208.62134,109.9449C208.21472,110.69242 207.27139,110.95245 206.85716,111.54957C206.30986,112.33852 206.5529,113.37981 206.14734,114.14507C205.69904,114.99096 205.93582,115.80309 205.41467,116.55974C204.83595,117.39998 203.76093,117.38923 203.536,118.24507C203.30699,119.11639 203.11195,119.99085 202.784,120.7304C202.39294,121.61224 202.07236,122.28473 201.62151,123.06657C201.17848,123.83485 201.5,124.84507 201.5,125.64507C201.5,126.54507 201.29979,127.24586 200.784,127.92907C200.31943,128.54442 200.5,129.54507 200.5,130.44507C200.5,131.34506 200.25713,132.27991 200.5045,133.14056C200.72522,133.90846 201.63835,134.29443 202.216,134.92908C202.8046,135.57573 203.17033,136.39174 203.85716,136.7879C204.67174,137.25775 205.47467,137.2704 206.02083,137.82423L206.88933,137.85574L207.52533,138.41974" id="svg_18" stroke-width="3" stroke="#000" fill="none"/>
  <path t="62524,62554,62575,62594,62594,62615,62626,62642,62649,62674,62682,62690,62698,62706,62715,62722,62737,62749,62765,62770,62783,62786,62794,62802,62817,62826,62833,62858,62874,62897,62906,62921,62946,62954,62978,62985,62993,63009,63025,63041,63091,63091,63154" d="M225.5,100.84507C224.416,102.55974 223.73473,103.11851 223.33333,103.84507C222.90645,104.61774 222.25807,105.22997 221.40016,105.72374C220.6627,106.14818 219.89168,106.58392 219.536,107.28107C219.14494,108.04753 219.13972,108.89278 218.47467,109.41974C217.84845,109.91593 216.73134,109.78693 216.5045,110.54957C216.24919,111.40791 216.36415,112.30535 215.85266,112.89774C215.28624,113.55374 214.92769,114.24329 214.11067,114.81974C213.45247,115.28413 212.72522,115.78168 212.5045,116.54957C212.25713,117.41023 212.40363,118.25132 211.85266,118.89774C211.33749,119.50214 210.73033,120.15063 210.14734,120.7924C209.62109,121.37171 209.6949,122.16676 209.49867,123.04374C209.3181,123.85078 208.42242,124.27114 207.92534,124.8704C207.41524,125.48535 207.44284,126.4879 206.784,126.92907L206.5,127.84507L206.5,128.64507L206.5,129.54507" id="svg_19" stroke-width="3" stroke="#000" fill="none"/>
  <path t="64460,64562,64595,64603,64615,64635,64646,64660,64660,64677,64681,64693,64693,64697,64730,64761,64769,64801,64817,64827,64865,64914" d="M258.5,92.84507C260.29999,92.84507 261.29266,92.49019 262.064,92.88107C262.76212,93.23486 263.35135,93.85776 264,94.36591C264.76779,94.96738 265.24567,95.70602 265.89999,96.23441C266.64517,96.83616 267.71393,96.96289 268.14282,97.54957C268.69803,98.30904 268.92917,99.2147 269.7215,99.72357C270.46759,100.20274 271.37851,100.06657 271.50015,100.9449L271.72134,101.72374L272.44284,102.20224L272.5,103.04507" id="svg_20" stroke-width="3" stroke="#000" fill="none"/>
  <path t="65555,65602,65619,65627,65638,65643,65655,65655,65658,65668,65674,65683,65690,65700,65706,65706,65717,65722,65722,65734,65734,65738,65738,65750,65750,65750,65754,65767,65767,65770,65778,65793,65809" d="M257.5,85.84507C258.07468,87.44507 258.54419,88.28122 259.07468,88.8704C259.59958,89.45337 260.28265,89.88948 260.89999,90.70641C261.36322,91.31939 262.00778,91.97699 262.37851,92.94507C262.70331,93.79317 262.91763,94.39949 263.37851,95.06657C263.88263,95.79624 263.7233,96.81024 264.07468,97.44507C264.56174,98.32502 264.43588,99.1715 264.53601,100.05574C264.64926,101.05573 265.08072,101.79698 265.33334,102.67841C265.56549,103.48835 265.47855,104.38838 265.51068,105.09573C265.55533,106.0789 265.99271,106.96294 266.33334,107.84507C266.62762,108.60713 266.5,109.54507 266.5,110.44507L266.5,111.34507L266.51068,112.23441" id="svg_21" stroke-width="3" stroke="#000" fill="none"/>
  <path t="68627,68842,68882,68954,68978,68994,69010,69010,69026,69038,69055,69058,69071,69072,69074,69074,69092,69106,69122,69122,69139,69146,69162,69162,69178,69189,69195,69206,69223,69226,69240,69256,69258,69306,69324,69324,69340,69346,69362,69378,69410,69424,69441,69450,69459" d="M168.5,100.84507C168.5,99.04507 168.35335,98.12175 168.936,97.45573C169.54649,96.75791 170.60001,96.84507 171.5,96.84507C172.3,96.84507 173.22649,97.02882 174.10001,96.80907C174.96281,96.59201 175.69852,95.88778 176.66667,95.84507C177.32469,95.81604 178.33333,95.84507 179.1955,95.84507C180.10001,95.84507 181.02083,95.84507 181.98399,95.84507C182.67467,95.84507 183.74283,95.84507 184.60001,95.84507C185.5,95.84507 186.30042,95.81783 187.2,95.84507C188.14413,95.87366 188.59868,96.53377 189.30133,96.92907C190.11829,97.38867 190.94133,97.72894 191.7,98.12907C192.55838,98.58179 193.11284,99.18787 193.7215,99.72374C194.42917,100.3468 195.29622,100.50449 195.48933,101.44507C195.66626,102.30682 196.31424,102.83315 196.4955,103.54957C196.71515,104.41772 196.536,105.40907 197.14734,105.89774L197.49867,106.6464L197.5,107.54507" id="svg_22" stroke-width="3" stroke="#000" fill="none"/>
  <path t="70116,70242,70250,70250,70261,70266,70266,70279,70279,70282,70282,70296,70298,70298,70314,70365,70450,70450,70450,70460,70460,70489,70498,70521,70529,70545,70553,70561,70578,70601,70617,70628,70633,70645,70662,70681,70697,70697,70705,70721,70721,70737,70737,70753,70753,70769,70769,70781,70782,70785,70785,70801,70817,70817,70841,70842,70850,70850,70863,70865,70874,70874,70883,70897,70914,70914,70921,70937,70953,70964,70981,70981,70998,71015,71017,71031,71042,71049,71057,71065,71065,71073,71082,71089,71098,71098,71115,71115,71132,71132,71137,71138,71149,71153,71169,71182,71182,71185,71199,71199,71202,71202,71216,71216,71217,71218,71225,71226,71241,71241,71250,71250,71257,71257,71267,71273,71281,71298,71298,71305,71321,71345,71401,71458,71474,71484,71602,71620,71626,71641,71669,71674,71689,71714,71722,71738,71752,71761,71762,71770,71778,71788,71788,71794,71805,71805,71821,71826,71826,71838,71851,71857,71868,71885,71901,71905,71929,71937,71961,71977,72001,72009,72009,72025,72049,72057,72073,72085,72085,72098,72121,72129,72145,72153,72170,72177,72187,72193,72225,72237,72253,72273,72281,72282,72297,72305,72313,72352,72354,72385,72385,72404,72409,72425,72441,72457,72465,72465,72473,72490,72497,72497,72505,72513,72513,72529,72539,72545,72556,72561,72561,72573,72577,72593,72606,72609,72625,72625,72641,72649,72665,72681,72681,72697,72707,72737,72761,72777,72791,72801,72817,72817,72825,72849,72865,72897,72908,72924,72942,72945,72959,72975,72985,73001,73001,73009,73026,73042,73049,73065,73081,73081,73097,73110,73113,73145,73153,73161,73169,73193,73217,73226,73273,73282,73298,73313,73328,73328,73329,73353,73369,73369,73380,73395,73412,73429,73433,73449,73465,73479,73480,73481,73497,73513,73513,73529,73529,73553,73563,73585,73609,73649,73664,73682,73699,73705,73721,73764,73775,73775,73783,73798,73814,73831,73831,73848,73849,73849,73857,73866,73874,73889,73898,73945,73977,73985,74058,74090,74104,74104,74106,74106,74123,74123,74140,74140,74140,74152,74153,74166,74166,74169,74183,74183,74185,74201,74209,74210,74586,74594,74634,74689,74706,74707,74730,74730,74746,74759,74778,74794,74826,74843,74843,74859,74875,74898,74922,74946,74962,74976,74977,74992,75005,75022,75025,75038,75041,75097,75146,75178,75196,75217,75217,75225,75241,75257,75265,75297,75329,75361,75385,75386,75425,75449,75490,76018,76042,76068,76084,76102,76102,76122,76138,76161,76201,76212,76231,76233,76248,76262,76385,76395,76412,76433,76449,76463,76480,76482,76505,76529,76537,76547,76562,76569,76580,76597,76601,76625,76647,76649,76665,76673,76682,76698,76705,76721,76731,76731,76737,76748,76753,76765,76765,76769,76770,76781,76785,76786,76798,76798,76801,76815,76817,76832,76833,76849,76857,76889,76929,76956,77067,77074,77092,77105,77121,77146,77154,77154,77171" d="M182.5,86.84507C183.37866,85.62357 183.62181,84.63653 184.2045,84.20224C184.99706,83.61154 185.67169,83.25371 186.136,82.65974C186.78151,81.83397 187.60547,81.49742 188.25734,80.74507C188.78879,80.13171 189.48657,79.59563 190.16667,78.84507C190.66861,78.29114 191.2,77.58747 191.7215,76.96607C192.36166,76.20325 192.82646,75.79372 193.064,75.08507C193.42664,74.00315 193.72533,73.30495 194.37866,72.62373C194.93536,72.04327 195.24947,71.37136 195.5045,70.54957C195.7413,69.78648 196.62901,69.38123 197.14734,68.7924C197.72,68.14184 198.20309,67.42345 198.464,66.44507C198.69498,65.57892 198.91748,64.86167 199.5,64.34507C200.10268,63.81059 200.90881,63.41825 201.60001,62.74507C202.10657,62.25171 202.8,61.54507 203.5,60.84507C204,60.34507 204.66721,59.60431 205.25717,59.14507C206.10776,58.48295 206.87035,58.17878 207.616,57.64507C208.27429,57.17389 208.99258,56.65954 209.67467,56.24507C210.62708,55.66635 211.17946,55.16013 212.136,54.81974C212.97162,54.52237 213.69383,54.26458 214.47867,53.74524C215.1425,53.30597 216.21756,53.11103 216.93066,52.76107C217.68103,52.39282 218.26166,51.84732 219.15266,51.84507C220.01601,51.84289 221.05121,51.9635 221.8,51.4879C222.60225,50.97836 223.03378,50.10392 223.89999,49.88107C224.77231,49.65664 225.7,49.84507 226.60001,49.84507C227.5,49.84507 228.3,49.84507 229.2,49.84507C230.10001,49.84507 231,49.84507 231.89999,49.84507C232.8,49.84507 233.7,49.84507 234.60001,49.84507C235.5,49.84507 236.28812,49.95115 237,50.34507C237.88597,50.83532 238.8,50.84507 239.70134,50.84507C240.38533,50.84507 241.34508,50.79116 242.10133,50.9304C243.11496,51.11703 243.86238,51.52029 244.61467,52.04374C245.31798,52.53309 246.19998,52.84282 247.10001,52.84507C248.02083,52.84737 248.98399,52.84362 249.67467,52.84507C250.74283,52.84732 251.55159,53.15287 252.25717,53.4924C253.11201,53.90377 253.92226,53.83153 254.89867,54.12907C255.68178,54.36771 256.61285,54.79681 257.384,54.84373C258.33432,54.90156 259.11481,54.88436 260.10001,55.19773C260.70966,55.39166 261.70407,55.69905 262.47916,55.84507C263.48502,56.03456 264.14944,56.64019 265,56.82424C265.88019,57.01469 266.71878,57.34557 267.5,57.6784C268.25153,57.99859 269.20001,57.84507 270.10001,57.84507C271,57.84507 271.89999,57.8444 272.79999,57.84507C273.69867,57.84574 274.23917,58.45275 274.936,58.80907C275.78583,59.24362 276.37891,59.55711 277.11066,59.8344C278.0032,60.17263 278.70007,60.32027 279.33334,61.01174C279.88095,61.60966 280.879,61.45338 281.41467,62.1304C281.92294,62.77279 281.73395,63.80334 282.14734,64.54507C282.57297,65.30875 282.85312,66.14883 283.5,66.84507C284.06049,67.44834 284.34387,68.30913 284.78534,69.04507C285.19244,69.72369 286.09708,70.31721 286.37866,71.16624C286.64014,71.95456 287.173,72.62299 287.47916,73.36591C287.85229,74.27142 287.49109,75.25064 288,75.84507C288.50638,76.43652 289.04358,77.06991 289.72134,77.72374C290.29984,78.2818 290.37589,79.05369 290.50015,79.9449C290.61197,80.74683 291.71835,80.95969 292.14282,81.54957C292.71158,82.33997 292.90369,83.28461 293.69867,83.76107C294.39072,84.17583 294.80685,84.89188 295.216,85.64507C295.6492,86.44259 296.17334,87.12608 296.72134,87.72374C297.30643,88.36185 297.35123,89.13477 297.85266,89.7924C298.36874,90.46926 298.94937,90.98342 299.58401,91.56107C300.23068,92.14965 301.06686,92.52272 301.46399,93.28107C301.86523,94.04732 301.83688,94.87633 302.216,95.64507C302.63281,96.49028 302.45203,97.582 303.2045,97.84057C304.02057,98.12099 304.48199,98.7059 304.5,99.67841C304.51401,100.43427 304.5,101.34507 304.5,102.24507C304.5,103.14507 304.5,104.04507 304.5,104.94507C304.5,105.84507 304.30875,106.67815 304.55716,107.54507C304.81409,108.44166 305.42892,109.16136 305.48932,110.01974C305.5553,110.95748 305.5,111.84507 305.5,112.64507C305.5,113.54507 305.49759,114.46494 305.92532,115.24507C306.37653,116.06797 306.74213,116.79884 307.14734,117.54507C307.56064,118.30618 307.5,119.24507 307.5,120.14507C307.5,121.04507 307.5,121.94507 307.5,122.84507C307.5,123.64507 307.08878,124.66765 307.55716,125.4879C308.02148,126.30107 308.5,126.84507 308.5,127.64507C308.5,128.54507 308.5,129.44507 308.5,130.34506C308.5,131.24507 308.5,132.14507 308.5,133.04507C308.5,133.94507 308.5,134.84506 308.5,135.64507C308.5,136.54507 308.5,137.44507 308.5,138.34506C308.5,139.24507 308.49991,140.14507 308.5,141.04507C308.50009,141.9449 309.04596,142.51581 309.44284,143.20224C309.86569,143.93356 309.5,144.94507 309.5,145.84506C309.5,146.64507 309.5,147.54507 309.5,148.44507C309.5,149.34506 309.40601,150.29218 309.85266,151.14507C310.24661,151.89729 310.47208,152.64549 310.5,153.54507C310.5293,154.48918 311.26364,154.91563 311.5,155.84506C311.70944,156.6687 312.26968,157.15062 312.85266,157.7924C313.37891,158.3717 313.51068,159.23441 314,159.84506C314.48932,160.45573 314.49774,161.34506 314.5,162.24507C314.50226,163.14508 314.86023,163.99696 315.216,164.64507C315.65274,165.44066 316.41626,165.99937 316.5,166.84506C316.57883,167.64117 316.5,168.54507 316.5,169.44507C316.5,170.34506 316.5,171.24507 316.5,172.14507C316.5,173.04507 316.5,173.94507 316.5,174.84506C316.5,175.64507 316.61438,176.55653 316.46399,177.48106C316.32193,178.35439 315.84045,179.03357 315.62149,180.04491C315.4552,180.81291 315.83218,181.96434 315.33334,182.67841C314.83282,183.39487 314.61078,183.9519 314.5,184.84506C314.38849,185.74431 313.74042,186.15872 313.49866,187.04373C313.28073,187.84151 312.64523,188.29318 312.49551,189.14507C312.33237,190.07326 311.64816,190.61368 311.50449,191.54507C311.36728,192.43456 311.5,193.36591 311.5,194.32907C311.5,195.01973 311.64932,196.14235 311.27866,196.94507C310.97015,197.61313 310.50534,198.44502 310.5,199.34506C310.49466,200.24506 310.69489,201.16675 310.49866,202.04373C310.31808,202.85078 309.48505,203.23265 308.92532,203.87041C308.4079,204.45999 307.70438,204.86986 306.84732,204.4834C306.11661,204.1539 305.3728,203.36952 304.91068,202.67041C304.38541,201.87576 303.86316,201.22058 303.17868,200.52357C302.67401,200.00967 302.11224,199.47105 301.52151,198.64523C300.9826,197.89185 300.4693,197.03342 300.02084,196.36591C299.55081,195.66626 299.19916,194.79424 298.85266,194.14507C298.39932,193.2957 298.55753,192.3004 298.2785,191.52391C297.97232,190.67184 297.00327,190.28287 296.55716,189.4879C296.14374,188.75121 296.5,187.74507 296.5,186.84506C296.5,186.08791 296.5,185.1924 296.5,184.32907C296.5,183.36591 296.5,182.44507 296.5,181.54507C296.5,180.64507 296.5,179.74507 296.5,178.84506C296.5,178.04507 296.5,177.14507 296.5,176.24507C296.5,175.34506 296.49933,174.44507 296.5,173.54507C296.50067,172.64507 296.80084,171.79424 297.14734,171.14507C297.60068,170.2957 297.5,169.34506 297.5,168.44507C297.5,167.54507 297.34067,166.5472 297.85266,165.89774C298.33719,165.28313 298.5,164.54507 298.5,163.64507C298.5,162.74507 298.5,161.84506 298.5,161.04507C298.5,160.14507 298.5,159.24507 298.5,158.34506C298.5,157.44507 298.5,156.54507 298.5,155.64507C298.5,154.74507 298.5,153.84506 298.5,153.04507C298.5,152.14507 298.5,151.24507 298.5,150.34506C298.5,149.44507 298.5,148.54507 298.5,147.64507C298.5,146.74507 298.5,145.84506 298.5,145.04507C298.5,144.14507 298.5,143.24507 298.5,142.34506C298.5,141.44507 298.73904,140.26161 297.97916,139.86591C297.20834,139.46451 296.80737,139.26451 296.48932,138.45573C296.20392,137.73 295.06284,137.59425 294.2045,137.84956C293.44186,138.0764 293.74289,139.27991 293.49551,140.14056C293.27481,140.90846 292.51263,141.36575 292.5,142.24507C292.48715,143.14049 291.81708,143.66283 291.51068,144.45573C291.19012,145.28534 291.48932,146.23441 291,146.84506C290.51068,147.45573 290.5,148.34506 290.5,149.24507C290.5,150.14507 290.5,151.04507 290.5,151.94507C290.5,152.84506 290.01682,153.45226 289.58533,154.1304C289.09216,154.90546 289.5,155.94507 289.5,156.84506C289.5,157.64507 289.45505,158.55194 289,159.34506C288.59479,160.05136 288.19272,160.89691 287.85266,161.60223C287.4425,162.45294 287.45737,163.37869 287.07468,164.21974C286.70569,165.03065 286.51044,165.84489 286.5,166.82356C286.49127,167.64369 286.51041,168.54514 286.5,169.44507C286.48956,170.34525 286.21173,171.23576 285.5,171.67841C284.68442,172.18564 284.58868,172.94945 284.5,173.84506C284.41626,174.69077 283.56088,175.0603 283.5,175.94507C283.4382,176.84294 283.32895,177.65779 282.5,177.84506C281.61627,178.04471 281.5,178.94507 281.5,179.84506L281.5,180.64507L281.5,181.54507" id="svg_23" stroke-width="3" stroke="#000" fill="none"/>
  <path t="78378,78507,78554,78562,78577,78593,78610,78619,78634,78642" d="M271.5,163.84506C271.5,165.64507 271.5,166.54507 271.5,167.44507C271.5,168.34506 271.5,169.24507 271.5,170.14507L271.5,171.04507L271.5,171.94507L271.5,172.84506" id="svg_24" stroke-width="3" stroke="#000" fill="none"/>
  <path t="79484,79603,79620,79634,79646,79658,79665,79674,79697,79786,79946,79955,79969,79988,79995,80003,80041,80098,80121,80125,80136,80186,80258,80366,80426,80426,80438,80455,80482,80514,80522,80538,80555,80562,80586,80610,80622,80639,80657,80658,80658,80674,80971,80995,81050,81062,81082,81105,81122,81129,81145,81242,81322,81354,81380,81458,81458,81506,81538,81563,81610,81682,81699,81699,81714,81746,81770,81778,81810,81986,82000,82016,82018,82034,82046,82046,82050,82050,82063,82078,82082,82178" d="M229.5,163.84506C229.5,165.64507 229.48933,166.54514 229.5,167.44507C229.51042,168.32442 230.19548,168.49025 230.97917,168.86591C231.6824,169.20299 231.49774,170.34506 231.5,171.24507C231.50226,172.14058 232.18295,172.66281 232.48933,173.45573C232.80989,174.28534 232.31549,175.49158 233.02083,175.82423C233.81622,176.19936 234.82169,175.65018 235.69867,175.84641C236.50571,176.02699 236.9968,176.51753 237.88933,176.85574C238.62108,177.13304 239.14697,177.86792 239.98267,177.84373C240.79175,177.82033 241.48979,177.05252 242.2045,176.84956C243.1091,176.5927 243.78299,176.17387 244.37866,175.62373C245.01561,175.03548 245.22566,174.36359 245.5045,173.54958C245.78362,172.73474 246.4894,172.23441 246.5,171.34506C246.51073,170.44507 246.95294,169.73785 247.33333,168.84506C247.65352,168.09354 248.34811,166.51457 247.5,166.2594C246.88799,166.07526 246.4462,167.29167 245.92534,167.87041C245.35126,168.50827 244.75342,169.1627 244.216,169.76106C243.64258,170.39952 242.97935,170.83464 242.10001,170.84506C241.20006,170.85573 240.3,170.84506 239.39999,170.84506C238.5,170.84506 237.69958,170.8723 236.8,170.84506C235.85587,170.81647 235.42944,170.08142 234.5,169.84506C233.67639,169.63562 233.5,168.84506 233.5,168.04507C233.5,167.14507 233.5,166.24507 233.5,165.34506C233.5,164.44507 233.74278,163.51161 233.5,162.64774C233.47031,162.5421 233.01814,163.35555 232.55267,164.14056C232.15802,164.80614 231.33116,165.24899 230.936,166.03041C230.55095,166.79189 230.416,167.64374 229.92534,168.44507L229.536,169.24507L229.4955,170.14056L229.07466,170.81973" id="svg_25" stroke-width="3" stroke="#000" fill="none"/>
  <path t="114522,114616,114624,114648,114648,114664,114672,114696,114704,114730,114736,114760,114768,114784,114797,114824,114832,114849,114856,114865,114882,114888,114904,114915,114932,114949,114952,114976,114984,115008,115016,115016,115048,115056,115105,115119,115131,115145,115152,115168,115177,115192,115233,115256,115267,115267,115285,115305,115320,115329,115336,115345,115360,115369,115386,115402,115419,115441,115464,115473,115504,115528,115560,115576,115624,115635,115696,115729,115745,115769,115809,115850,115863,115876" d="M169.5,115.84507C170.37849,117.06657 170.31865,117.99854 170.66667,118.84507C170.94257,119.51614 171.57445,120.25533 172.07466,120.8704C172.57878,121.49027 172.4946,122.44508 172.5,123.34507C172.50534,124.23445 173.12611,124.67347 173.7955,125.20224C174.53647,125.78755 174.85193,126.6722 175.44733,127.19774C176.08546,127.761 176.48933,128.45573 176.5,129.34506C176.51067,130.23441 177.08055,130.53769 177.88933,130.85574C178.61508,131.14114 178.43936,132.38394 178.85266,133.14507C179.25786,133.89128 179.81497,134.59464 180.416,135.12907C181.06206,135.70355 181.63457,136.2393 182.5,136.67841C183.17538,137.02109 183.06573,138.07748 183.66667,138.67841C184.26759,139.27933 185.17841,139.13029 185.784,139.76106C186.334,140.33394 186.88942,140.95894 187.55267,141.4924C188.12851,141.95555 188.974,142.04829 189.66667,142.67841C190.26654,143.22409 190.60738,144.07367 191.2045,144.4879C191.99345,145.03522 193.05197,144.55598 193.88933,144.85574C194.62607,145.11948 195.23724,145.40411 196.064,145.88107C196.7532,146.27867 196.44185,147.61374 197.2045,147.84058C198.06285,148.09589 198.88173,147.9716 199.55267,148.4924C200.13644,148.94553 201.29019,148.84831 201.49867,149.64641C201.72627,150.51775 201.98259,151.3551 202.44733,152.14056C202.8382,152.80118 203.5538,153.29167 204.07466,153.87041C204.64874,154.50827 205.43176,154.45212 206.21466,154.9304C207.0179,155.42111 207.59984,155.84523 208.416,156.12907L208.85716,156.7879" id="svg_26" stroke-width="3" stroke="#000" fill="none"/>
  <path t="117514,117569,117585,117609,117619,117619,117625,117625,117625,117635,117635,117641,117641,117651,117668,117669,117681,117681,117689,117689,117689,117703,117707,117721,117737,117748,117748,117766,117777,117784,117809,117832,117880,117903,117920,117920,117936,117950,117960,117984,118000,118008,118017,118034,118034,118040,118051,118068,118072,118085,118085,118088,118104,118118,118121,118129,118136,118152,118169,118176,118192,118208,118208,118224,118240,118252,118269,118286,118288,118304,118348,118354,118354,118354,118368,118368,118384,118384,118401,118408,118418,118424,118435,118435,118452,118469,118472,118488,118504,118513,118536,118544,118568,118600,118608,118619,118673,118680,118697,118709,118728,118744,118792,118806,118832,118842,118896,118906,118924,118928,118976,119016,119192,119209,119273,119312,119353,119384,119416,119432,119464,119488,119488,119512,119525,119536,119560,119568,119592,119648,119680,119680,119693,119760,119832,119846,120121,120137,120153,120168,120168,120184,120216,120232,120363,120368,120379,120400,120497,120665,120673,120697,120705,120723,120744,120766,120766,120784,120792,120808,120808,120824,120833,120833,120840,120850,120856,120856,120866,120866,120872,120883,120884,120888,120900,120904,120917,120920,120921,120936,120945,120960,120968,120976,120985,121001,121001,121018,121018,121035,121040,121096,121136,121144,121152,121192,121208,121232,121256,121271,121288,121297,121336,121345,121369,121409,121545,121593,121681,121930,121954,121955,122105,122137" d="M167.5,94.84507C167.5,96.64507 167.5,97.54507 167.5,98.36591C167.5,99.33173 167.5,100.09174 167.5,101.01173C167.5,101.79324 167.5276,102.83568 167.49983,103.70224C167.47124,104.5946 167.11845,105.48618 166.85266,106.19241C166.52051,107.07497 166.5,108.04774 166.5,108.81573C166.5,109.8549 166.5,110.6304 166.5,111.67841C166.5,112.3834 166.5,113.1834 166.5,114.20907C166.5,115.14507 166.5,116.04507 166.5,116.94507C166.5,117.84507 166.5,118.64507 166.5,119.54507C166.5,120.44507 166.5,121.34507 166.5,122.24507C166.5,123.14507 166.5,124.04507 166.5,124.94507C166.5,125.84507 166.5,126.64507 166.5,127.54507C166.5,128.44507 166.5,129.34506 166.5,130.24507C166.5,131.14507 166.5,132.04507 166.5,132.94507C166.5,133.84506 166.30405,134.6795 166.55716,135.54507C166.8138,136.4227 167.38052,137.15129 167.50133,138.04507C167.61075,138.85461 168.30019,139.49768 168.47917,140.34506C168.66522,141.22588 168.22974,142.18372 168.5045,143.14056C168.72502,143.90851 169.48958,144.36572 169.5,145.24507C169.51067,146.145 169.5,147.04507 169.5,147.94507C169.5,148.84506 169.48126,149.64526 169.5,150.54507C169.51801,151.40964 170.35425,151.88904 170.49867,152.64641C170.66701,153.52917 170.4948,154.44508 170.5,155.34506C170.50534,156.26645 170.66014,157.18025 170.85266,157.8504C171.1377,158.84256 171.43465,159.69666 171.4955,160.59323C171.55676,161.49568 171.5,162.36107 171.5,163.32423C171.5,164.14507 171.5,165.04507 171.5,165.94507C171.5,166.84506 171.5,167.64507 171.5,168.54507C171.5,169.44507 171.5,170.34506 171.5,171.24507C171.5,172.14507 171.6498,173.05766 171.49983,173.9449C171.35583,174.79692 170.51865,175.28052 170.5,176.14507C170.48062,177.04352 169.89232,177.58424 169.536,178.28107C169.10144,179.13089 168.91945,179.53769 168.11067,179.85574C167.38492,180.14114 167.68118,181.48462 166.97917,181.82423C166.11566,182.24197 165.36165,182.29443 164.784,182.92908C164.1954,183.57573 163.67827,184.1456 163.49983,184.9449C163.31157,185.78825 162.51865,186.28052 162.5,187.14507C162.48062,188.04352 161.88979,188.58295 161.536,189.28107C161.1451,190.05241 161.31323,191.06294 161.50133,192.04373C161.64641,192.80022 162.7,192.84506 163.60001,192.84506C164.5,192.84506 165.3,192.84506 166.2,192.84506C167.10001,192.84506 168,192.84506 168.89999,192.84506C169.8,192.84506 170.7,192.84506 171.60001,192.84506C172.5,192.84506 173.3,192.84506 174.2,192.84506C175.10001,192.84506 176,192.84506 176.89999,192.84506C177.8,192.84506 178.88014,193.09239 179.44733,192.4879C180.06834,191.82603 179.98206,190.908 180.55267,190.20224C181.14375,189.47118 181.84293,189.00757 182.44733,188.4924C183.09373,187.94144 183.89999,187.84506 184.8,187.84506C185.7,187.84506 186.99799,188.33809 187.37833,187.62373C187.735,186.95381 186.04549,187.04143 185.55267,186.4879C184.94917,185.81004 184.8864,184.72395 184.416,184.1304C183.83067,183.39182 183.5,182.74507 183.5,181.84506C183.5,181.04507 183.5,180.20908 183.5,179.1924C183.5,178.49774 183.5,177.48106 183.5,176.54057C183.5,175.67841 183.5,174.84506 183.5,173.86658C183.5,173.0464 183.5,172.20908 183.5,171.1924C183.5,170.49774 183.5,169.48106 183.5,168.54507C183.5,167.64507 183.5,166.74507 183.5,165.84506C183.5,165.04507 183.5,164.14507 183.5,163.24507C183.5,162.34506 183.5,161.44507 183.5,160.54507C183.5,159.64507 183.5,158.7449 183.5,157.95973C183.5,157.01973 183.5,156.32907 183.5,155.25574C183.5,154.34506 183.74287,153.41023 183.4955,152.54958C183.27478,151.78168 182.36876,151.46925 181.85266,150.7924C181.35121,150.13477 181.5,149.14507 181.5,148.24507C181.5,147.34506 181.5,146.44507 181.5,145.54507C181.5,144.64507 181.41132,143.74069 181.5,142.84506C181.58374,141.99936 182.10864,141.33725 182.85716,140.90224C183.58754,140.47775 184.60001,140.84506 185.5,140.84506L186.3,140.84506L187.2,140.84506L188.10001,140.84506" id="svg_27" stroke-width="3" stroke="#000" fill="none"/>
  <path t="123379,123505,123529,123537,123555,123573,123588,123588,123593,123610,123633,123633,123633,123642,123654,123673,123689,123705,123716,123736,123750,123761,123768,123784,123800,123808,123832,123840,123850,123856,123881,123913,123929,123944,123979,123987,124041,124065,124073,124113,124129,124153,124193,124205,124205,124226,124257,124372,124408,124408" d="M185.5,142.84506C186.584,144.55974 187.31778,145.07715 187.50017,145.9449C187.6667,146.73721 188.31392,147.26894 188.78534,148.04507C189.19615,148.72144 190.02696,149.16995 190.416,150.0464C190.82063,150.95798 190.96324,151.65565 191.216,152.36107C191.58115,153.3801 191.98941,154.02997 192.66667,154.67841C193.29794,155.28282 193.2775,156.06097 193.784,156.76106C194.28578,157.45462 194.24643,158.41209 194.936,158.80907C195.68172,159.23836 196.17244,159.34186 196.51067,160.23441C196.78796,160.96616 197.69299,161.2487 198.216,161.92908C198.6859,162.54036 198.70972,163.40414 199.37866,164.06641C199.99483,164.67641 200.51495,165.23265 201.07466,165.87041C201.5921,166.46001 202.28897,166.95058 203,167.34506C203.88542,167.8363 204.85017,167.77202 205.47467,168.2704C206.08263,168.75558 206.91051,168.71234 207.8,168.84956C208.73138,168.99324 209.26862,169.6969 210.2,169.84058C211.08949,169.9778 212.02083,169.84506 212.82117,169.84523L213.63867,169.88107" id="svg_28" stroke-width="3" stroke="#000" fill="none"/>
  <path t="126858,126993,127007,127010,127021,127025,127040,127040,127059,127071,127073,127088,127112,127120" d="M180.5,84.84507C180.5,86.64507 180.5,87.54507 180.5,88.44507C180.5,89.34507 180.63655,90.20171 180.216,91.04507C179.88608,91.70672 179.50226,92.54506 179.5,93.44507C179.49776,94.34507 179.5,95.24507 179.5,96.14507L179.5,97.04507" id="svg_29" stroke-width="3" stroke="#000" fill="none"/>
  <path t="130185,130273,130290,130296,130296,130296,130296,130307,130307,130307,130307,130307,130312,130312,130312,130312,130312,130312,130362,130362,130362,130362,130362,130362,130362,130362,130362,130370,130370,130370,130370,130370,130370,130370,130370,130370,130376,130376,130376,130376,130376,130376,130376,130376,130376,130385,130385,130385,130385,130385,130385,130385,130385,130385,130391,130391,130392,130392,130392,130392,130392,130392,130392,130403,130403,130403,130403,130403,130403,130403,130403,130403,130408,130409,130409,130409,130409,130409,130409,130409,130409,130420,130420,130420,130420,130420,130420,130420,130424,130432,130432,130432,130440,130440,130448,130455,130456,130464,130464,130471,130488" d="M329.5,148.84506C331.29999,148.84506 332.06696,148.83974 333,149.01173C333.87634,149.17328 334.55981,149.35944 335.31351,149.4924C336.49622,149.70105 337.30234,149.76599 338.12134,149.81973C338.97165,149.87553 339.87192,149.91548 340.83334,150.01173C341.87225,150.11574 342.41513,150.19685 343.54166,150.36591C344.12177,150.45296 344.70923,150.54832 346.5,150.84506C347.10605,150.94548 347.7478,151.05281 348.46201,151.16757C349.28381,151.29962 350.24979,151.45053 351.396,151.62508C352.75775,151.83244 354.37155,152.07487 358.5,152.67841C361.06723,153.0537 363.92004,153.46486 366.98251,153.9084C370.18002,154.37151 373.43774,154.84349 376.67999,155.31841C379.8327,155.78021 382.82239,156.20961 388,157.01173C390.06247,157.33125 391.77286,157.61201 393.1705,157.85474C394.29669,158.05032 395.18802,158.21735 395.884,158.35574C396.42493,158.4633 396.84558,158.56627 397.5,158.67841C397.79886,158.72961 398.09836,158.76311 398.39551,158.7879C398.68909,158.81239 398.9791,158.82616 399.26401,158.8344C399.54279,158.84245 399.81467,158.84439 400.33334,158.84506C400.57849,158.84538 400.81467,158.84506 401.04285,158.84506C401.26401,158.84506 401.47916,158.84506 401.68933,158.84506C401.89551,158.84506 402.09866,158.84506 402.5,158.84506C402.70001,158.84506 402.89999,158.84506 403.10001,158.84506C403.29999,158.84506 403.5,158.84506 403.70001,158.84506C403.89999,158.84506 404.10001,158.84506 404.5,158.84506C404.69983,158.84506 404.89868,158.84506 405.09549,158.84506C405.28934,158.84506 405.47916,158.84506 405.664,158.84506C405.84283,158.84506 406.01468,158.84506 406.33334,158.84506C406.47849,158.84506 406.61465,158.84506 406.74283,158.84506C406.86401,158.84506 406.97916,158.84506 407.08932,158.84506C407.80899,158.84506 408.83334,158.84506 409.50534,158.84506C410.49466,158.84506 411.39682,158.64653 412.29733,158.9304C413.09265,159.18112 413.82956,159.68199 414.67465,159.87041C415.62622,160.08257 416.29868,160.56107 417.20001,160.84058L418.10001,160.84506" id="svg_30" stroke-width="3" stroke="#000" fill="none"/>
  <path t="131633,131680,131698,131707,131716,131720,131731,131731,131731,131736,131736,131749,131752,131752,131762,131768,131778,131778,131784,131784,131795" d="M129.5,147.84506C131.3,147.84506 132.2,147.84506 133.10001,147.84506C134,147.84506 134.80901,147.84506 135.83333,147.84506C136.50534,147.84506 137.24933,147.84506 138.35699,147.84506C139.29733,147.84506 140.136,147.84506 140.98399,147.84506C141.84734,147.84506 142.864,147.84506 143.70134,147.84506C144.66667,147.84506 145.52083,147.84506 146.5,147.84506L147.27867,147.8344L148.16667,147.67841" id="svg_31" stroke-width="3" stroke="#000" fill="none"/>
  <path t="135145,135184,135201,135208,135208,135208,135208,135218,135218,135218,135218,135224,135224,135224,135235,135235,135235,135235,135240,135240,135240,135252,135252,135252,135256,135256,135256,135269,135269,135269,135272,135272,135286,135286,135286,135288,135288,135302,135302,135304,135319,135319,135320,135337,135354,135360" d="M345.5,176.84506C347.20001,176.84506 348.0625,176.84264 349,176.84506C349.867,176.84732 350.54446,176.82935 351.61865,176.9304C352.68253,177.03049 353.3483,177.18262 354.28934,177.45573C354.90253,177.6337 356.10001,178.04507 356.70001,178.24507C357.60001,178.54507 358.5,178.84506 359.39999,179.14507C360,179.34506 360.90051,179.64349 361.79984,179.94507C362.68985,180.24352 363.55188,180.52242 364.57849,180.94507C365.27045,181.22993 365.89291,181.55029 366.90134,182.04507C367.51929,182.34827 368.17969,182.65942 369.18399,183.04507C369.99561,183.35674 370.82486,183.62364 371.81467,184.04507C372.48547,184.33067 373.49307,184.85954 374.10001,185.14056C374.89142,185.507 375.90701,185.71346 376.664,185.87041C377.62903,186.0705 378.22455,186.73489 378.91068,187.23441C379.74634,187.84277 380.47916,187.84506 381.39017,188.19774L381.936,188.81973L382.79999,189.19774L383.5,189.67841" id="svg_32" stroke-width="3" stroke="#000" fill="none"/>
 </g>
</svg>