<svg width="500" height="353.98230088495575" xmlns="http://www.w3.org/2000/svg" xmlns:svg="http://www.w3.org/2000/svg" xmlns:xlink="http://www.w3.org/1999/xlink">
 <!-- Created with SVG-edit - http://svg-edit.googlecode.com/ -->
 <g display="inline" class="layer">
  <title>Layer 1</title>
  <path t="8653,8955,8988,9100,9179,9180,9198,9215,9245,9260,9260,9307,9317,9811,10107,10120,10151,10156,10164,10187,10195,10243,10251,10251,10571,10591,10596,10648,10667,10702,10711,10724,10788,10797,10811,10875,10995,10995,11009,11011,11051,11083,11095,11124,11163" d="M159.5,117.99115C160.30133,115.99382 160.95148,116.32217 161.66667,116.82449C162.36211,117.31293 163.3,116.99115 164.2,116.99115C165.10001,116.99115 166.02083,116.99115 166.98399,116.99115C167.67467,116.99115 168.75496,116.84766 169.59984,116.99132C170.45091,117.13602 170.66553,118.29396 170.14734,118.93848C169.65581,119.54985 169.0587,120.14695 168.44733,120.63848C167.80281,121.15667 167.04852,121.32217 166.33333,121.82449C165.63789,122.31293 164.72256,122.11545 163.89999,122.56582C163.11961,122.9931 162.2,122.99115 161.3,122.99115C160.39999,122.99115 159.36211,123.31293 158.66667,122.82449C157.95148,122.32217 157.29138,122.11526 156.40016,121.99098C155.59842,121.87917 155.5,120.89115 155.5,119.99115C155.5,119.19115 155.54486,118.13761 156.30133,117.99249C157.1839,117.82317 158.14284,117.93398 158.49867,117.18982L158.55716,116.34832L159.30133,115.99249" id="svg_2" stroke-width="3" stroke="#000" fill="none"/>
  <path t="13572,13900,13921,13947,13979,14028,14036,14187,14196,14251,14265,14265,14278,14299,14307,14316,14339,14379,14451,14463,14533,14611,14619,14619,14675,14707,14725,14747,14755,14787,14803,14812,14819,14836,14851,14867,14875,14916,14971,15003,15019,15115,15147,15179,15283,15301,15579,15587,15607,15611,15640,15643,15656,15670,15691,15700,15731,15750,15803,15947,15971,15995,16006,16011,16025,16052,16061,16061,16079,16091,16091,16107,16115,16131,16147,16156,16179,16211,16347,16347,16403,16451,16467,16491,16510,16526,16563,16579,16691,16699,16715,16748,16762,16762,16776,16787,16803,16812,16813,16829,16856,16864,16878,16896,16923,16932,17003,17003,17195,17283,17296,17299,17339,17371,17419,17440,17451,17619,17675,17691,17763,17763,17782,17803,17843,17891,17939,17950,17987,18011,18019,18195,18251,18315,18323,18363,18475,18489,18490,18755,18787,18811,18827,18852,18875,18883,18894,18931,19051,19059,19059,19086,19104,19114,19130,19155,19179,19179,19187,19251,19259,19283,19347,19359,19395,19452,19475,19547,19571,19581,19603,19628,19652,19667,19678,19695,19747,19747,19760,19787,19819,19830" d="M159.5,119.99115C159.5,121.79115 159.5,122.69115 159.5,123.59115C159.5,124.49115 159.49107,125.39671 160,125.99115C160.50636,126.5826 160.98874,127.27813 161.7215,127.86982C162.36731,128.3913 163.15372,128.78613 164,128.97032C164.86954,129.15956 165.4366,129.76593 166.2045,129.98665C167.06517,130.23402 168,129.99115 168.89999,129.99115C169.8,129.99115 170.7,129.99115 171.60001,129.99115C172.5,129.99115 173.3,129.99115 174.2,129.99115C175.10001,129.99115 175.91737,129.90167 176.52533,129.41649C177.14983,128.91811 178.22563,129.43236 179.064,128.95515C179.75549,128.56155 179.44185,127.22249 180.2045,126.99565C181.06285,126.74034 181.88173,126.86461 182.55267,126.34382C183.13644,125.8907 184.20258,126.38935 185.064,125.95515C185.76288,125.60287 186.30133,124.99182 187.2,124.99115C188.10001,124.99048 189,124.99341 189.89999,124.99115C190.79552,124.9889 191.43312,124.58302 190.92534,123.96582C190.42694,123.36003 189.69824,123.01903 188.8,122.99115C187.85588,122.96185 187.42943,122.2275 186.5,121.99115C185.67638,121.78171 185.26228,121.19845 184.40016,120.99098C183.56004,120.7888 182.87714,120.24133 182.52083,119.47031C182.15625,118.68141 181.91945,118.29854 181.11067,117.98048C180.3849,117.69508 180.5,116.58048 180.5,115.66982C180.5,114.81648 180.5,113.87648 180.5,112.99115C180.5,112.19115 180.5,111.29115 180.5,110.39115C180.5,109.49115 180.5,108.59115 180.5,107.69115C180.5,106.79115 180.5,105.89115 180.5,104.99115C180.5,104.19115 180.4832,103.29099 180.5,102.39115C180.51801,101.42664 181.28073,100.98759 181.49867,100.18982C181.74045,99.30481 182.1954,98.72181 182.784,98.07515C183.36165,97.44051 184.02068,97.00377 184.89999,96.99115C185.79993,96.97823 186.71709,96.72505 187.3,96.18982C187.91879,95.62164 188.69698,95.03387 189.60001,94.99115C190.49899,94.94862 191.3,94.99115 192.2,94.99115C193.10001,94.99115 194,94.99115 194.89999,94.99115C195.8,94.99115 196.7,94.99115 197.60001,94.99115C198.5,94.99115 199.47954,95.4567 200.21466,94.90582C200.83105,94.4439 200.6203,93.15311 199.97917,92.51199C199.33804,91.87086 198.28741,92.14095 197.40016,91.99098C196.54814,91.84698 196.14413,91.01974 195.2,90.99115C194.30042,90.96391 193.39999,90.99115 192.5,90.99115C191.7,90.99115 190.70311,90.62798 189.936,91.02715C189.17662,91.4223 188.82159,92.27638 188.216,92.90715C187.666,93.48002 186.92528,93.69901 186.11067,94.00182C185.37717,94.27448 184.88937,94.98582 184,94.99115C183.10002,94.99654 182.2,94.99115 181.3,94.99115C180.39999,94.99115 179.49913,94.95395 178.7,94.99115C177.78236,95.03387 177.06573,96.22356 177.66667,96.82449C178.26759,97.42541 179.04529,97.4409 179.78534,97.90582C180.56219,98.39386 181.45729,98.27351 181.5,99.19115C181.54184,100.09017 181.5,100.99115 181.5,101.79115C181.5,102.69115 181.5,103.59115 181.5,104.49115C181.5,105.39115 181.63167,106.34122 181.27867,107.09115C180.91364,107.86668 180.30025,108.46326 179.66667,109.15781C179.12025,109.75683 178.26576,109.74422 177.584,110.27515C176.95743,110.76309 176.62608,111.71674 175.88933,111.98048C175.05197,112.28024 174.06517,111.74828 173.2045,111.99565C172.43661,112.21635 171.81638,112.66213 171.02083,113.01199C170.30881,113.32511 169.67174,113.57847 168.85716,114.04832C168.17033,114.44449 167.49954,114.96407 166.7,114.99115C165.85571,115.01975 165.33333,115.82449 164.5,115.99115L163.62134,116.21249" id="svg_3" stroke-width="3" stroke="#000" fill="none"/>
  <path t="26820,27227,27283,27323,27371,27419,27451,27491,27524,27524,27531,27563,27587,27595,27611,27651,27899,28003,28026,28052,28347" d="M172.5,107.99115C172.5,106.19115 172.5,105.39115 172.5,104.49115C172.5,103.59115 172.5,102.69115 172.5,101.79115C172.5,100.89115 172.32645,99.9529 172.58533,99.19115C172.88708,98.30324 173.23962,97.55204 173.5045,96.69565C173.74059,95.93234 174.14519,95.29568 174.52083,94.51199C174.85791,93.80874 176,93.99115 176.89999,93.99115L177.8,93.99115L178.7,93.99115" id="svg_6" stroke-width="3" stroke="#000" fill="none"/>
  <path t="31012,31123,31155,31164,31179,31203,31235,31299,31310,31310,31349,31467,31478,31483,31596,31652,31749,31755,31779,31800,31835,31867" d="M181.5,104.99115C183.3,104.99115 184.2,104.99115 185.10001,104.99115C185.89999,104.99115 186.8,104.99115 187.7,104.99115C188.60001,104.99115 189.50255,104.92725 190.3,104.99115C191.34334,105.07475 191.71523,105.93026 192.60001,105.99115C193.49788,106.05294 194.04492,106.44148 194.78534,106.90582C195.56358,107.39388 196.59984,106.99132 197.37866,107.21249L197.85266,107.93848L198.47467,108.41648L199.07466,109.01648" id="svg_7" stroke-width="3" stroke="#000" fill="none"/>
  <path t="32725,33259,33531,33552,33607,33611,33627,33659,33963,33975,34035,34083" d="M186.5,104.99115C187.5,105.99115 188.33333,106.15781 188.5,106.99115C188.66667,107.82449 189.16933,108.53955 189.85716,108.93398C190.67657,109.40386 191.69867,108.98981 192.43834,108.63848L192,107.99115L191.47467,107.41648" id="svg_8" stroke-width="3" stroke="#000" fill="none"/>
  <path t="37180,37275,37295,37315,37323,37351,37355,37371,37379,37419,37483,37495,37571,37579,37597,37619,37675,37683,37683,37715,37744,37762,37779,37818,37850,37862,37866,37882,37915,37935,37962,38010,38018,38051,38051,38066,38077,38082,38098,38133,38148,38163,38194,38194,38347,38387,38419,39027,39091,39105,39171,39227,39227,39258,39274,39283,39451,39555,39611,39744,39811,39945,40019,40019,40027,40059,40067,40091,40098,40108,40128,40154,40170,40179,40187,40220,40258,40290,40298,40298,40362,40418,40441,40619,40640,40650,40666,40675,40675,40691,40715,40744,40752,40755,40770" d="M198.5,90.99115C200.3,90.99115 201.2,90.99115 202.10001,90.99115C202.89999,90.99115 203.83865,90.72089 204.7955,90.99565C205.56345,91.21616 206.02068,91.97852 206.89999,91.99115C207.79543,92.00401 208.30994,92.65462 209.02083,92.97031C209.89752,93.35963 210.63835,93.44051 211.216,94.07515C211.8046,94.72181 212.54544,94.79735 213.3,95.07648C214.16959,95.39816 214.50755,96.351 215.07466,97.01648C215.58347,97.61355 216.33333,98.15781 216.5,98.99115C216.66667,99.82449 217.7739,99.5379 218.37849,100.21265C218.97034,100.87315 218.16292,102.14005 218.66667,102.82449C219.14726,103.47747 219.5,104.09115 219.5,104.99115C219.5,105.79115 219.61044,106.66074 220.30133,107.07515C221.09615,107.5519 221.48199,108.39061 221.5,109.29115C221.51799,110.19096 221.5,111.09115 221.5,111.99115C221.5,112.79115 221.5,113.69115 221.5,114.59115C221.5,115.49115 221.5,116.39115 221.5,117.29115C221.5,118.19115 221.5,119.09115 221.5,119.99115C221.5,120.79115 221.5168,121.69131 221.5,122.59115C221.48199,123.55566 220.78581,123.59261 219.936,124.02715C219.23918,124.38347 218.95242,125.43729 218.21466,125.90582C217.52319,126.34494 216.5,125.99115 215.7,125.99115C214.8,125.99115 213.77437,126.43234 212.936,125.95515C212.24451,125.56155 212.64598,124.26841 212.064,123.60181C211.45442,122.90363 210.5428,122.70879 210.5,121.79115C210.45808,120.8923 209.99219,120.38251 209.55716,119.63398C209.13269,118.9036 209.5,117.89115 209.5,116.99115C209.5,116.19115 209.5,115.29115 209.5,114.39115C209.5,113.49115 209.74773,112.55491 209.4955,111.69565C209.26888,110.92357 208.03143,110.74577 207.66667,109.99115C207.31116,109.25565 207.1293,108.5622 206.62151,107.76965C206.14307,107.02291 206.5,105.99115 206.33333,105.15781L205.58533,104.70582" id="svg_9" stroke-width="3" stroke="#000" fill="none"/>
  <path t="42157,42267,42293,42307,42343,42371,42403,42411,42501,42523,42563,42575,42595,42613,42613,42619,42659,42676,42683,42707,42715,42729,42754,42756,42771,42772,42787,42827,42835,42854,42863,42867,42878,42896,42896,42899,42971,42979,42993,43012,43019,43035,43067,43091,43114,43115,43194,43234,43267,43291,43332,43362,43402,43433,43458,43459,43467,43490,43507,43538,43553,43570,43583,43602,43603,43954,43971,43971,43994,44003,44019,44044,44058,44059,44071,44093,44103,44123,44145,44154,44165,44170,44194,44218,44244,44252,44269,44290,44306,44321,44322,44344,44352,44354,44354,44370,44386,44403,44403,44410,44420,44420,44445,44458,44595,44642,44683,44706,44707,44722,44750,44760,44763,44786,44805,44810,44882,44940,44946,44970,45018,45049,45057,45063,45087,45114,45115,45146,45160,45194,45246,45347" d="M193.5,119.99115C195.3,119.99115 196.2,119.99115 197.10001,119.99115C197.89999,119.99115 198.8,119.99055 199.7,119.99115C200.69867,119.99182 201.17662,120.56 201.936,120.95515C202.70311,121.35432 203.87956,120.74438 204.44733,121.34832C205.06847,122.00904 205.46507,122.43586 206.21466,123.07515C206.88051,123.64301 207.65442,123.66796 208.37866,124.21249C209.02151,124.69581 209.30875,125.65734 210.02083,125.97031C210.8262,126.32429 211.71881,126.49166 212.5,126.82449C213.25154,127.14468 214.04248,127.2177 214.72133,127.86982C215.30135,128.42699 215.93546,128.9725 216.8,128.99115C217.69846,129.01053 218.28558,129.43311 218.78534,130.18982C219.18748,130.79874 219.95076,131.32121 220.66667,131.82448C221.36191,132.3132 222.4391,132.20638 222.5,133.09116C222.5618,133.98903 222.78377,134.6615 223.37866,135.21248C224.01755,135.8042 224.24644,136.61279 224.55267,137.28581C224.95023,138.15952 225.48062,138.79269 225.5,139.69115C225.51865,140.55569 226.04903,141.20552 226.66667,141.82448C227.28401,142.44312 227.5,143.09116 227.5,143.99115C227.5,144.79115 227.8707,145.42009 228.37849,146.21265C228.85693,146.9594 228.17822,148.12904 228.66667,148.82448C229.16899,149.53966 229.5,150.09116 229.5,150.99115C229.5,151.79115 229.6543,152.90741 230.5,152.99115C231.29611,153.06998 232.30124,153.36258 233.064,152.95515C233.7944,152.565 234.00096,151.47131 234.60001,150.89131C235.18138,150.32841 236.29742,150.00081 236.4955,149.28665C236.73509,148.42284 236.93166,147.595 237.416,146.79248C237.86302,146.05182 238.98209,146.31818 239.44284,145.63399C239.97044,144.85051 239.31944,143.69049 239.784,143.07515C240.29979,142.39194 240.49991,141.69115 240.5,140.79115C240.50009,139.89131 241.04842,139.32182 241.44284,138.63399C241.91272,137.81458 241.34647,136.74269 241.66667,135.99115C241.99951,135.20996 242.48958,134.49133 242.5,133.58049C242.51041,132.66988 242.5,131.81648 242.5,130.87648C242.5,129.99115 242.5,129.19115 242.5,128.29115C242.5,127.39115 242.50224,126.49115 242.5,125.59115C242.49774,124.69114 242.30711,123.67934 241.69867,123.27648C240.87723,122.7326 240.23065,122.29573 239.584,121.70715C238.94936,121.1295 238.41592,120.57662 237.85266,119.93848C237.32713,119.34309 236.89099,118.48396 236.14284,118.04832C235.41388,117.62385 234.58347,117.61355 234.07466,117.01648C233.50755,116.351 233.03459,115.61553 232.62134,114.89132C232.1694,114.09931 231.26135,113.88812 230.78534,113.18982C230.27455,112.44051 229.784,111.90715 229.27867,111.11248L228.55267,110.63848L228.064,110.02715" id="svg_10" stroke-width="3" stroke="#000" fill="none"/>
  <path t="46454,46554,46579,46587,46600,46615,46619,46648,46657,46666,46677,46684,46706,46714,46722,46737,46754,46770,46770,46782,46802,46866,46890,46890,46906,46939,46954,46978,46986,47010,47047,47047,47058,47058,47082,47090,47099,47122,47154,47178,47242,47242,47274,47288,47306,47323,47349,47363,47370,47378,47394,47410,47410,47439,47442,47458,47470,47474,47546,47554,47610,47620,47649,47658,47660,47691,47714,47723,47794,47805,47810,47851,47858,47882,47924,47930,47970,47970,48010,48025,48027,48051,48060,48106,48114,48114,48130,48148,48162,48176,48192,48209,48226,48235,48235,48253,48266,48275,48298,48311,48327,48353,48353,48362,48376,48376,48395,48410,48411,48434,48454,48458,48482,48498,48511,48528,48555,48555,48564,48578,48595,48613,48618,48630,48634,48655,48663,48678,48678,48682,48695,48698,48730,48755,48794,48795,48818,48850,48866,48866,48880,48898,48899,48925,48945,48950,48954,48962,48986,48994,49026,49059,49077,49082,49122,49154,49166,49181,49202,49218,49246,49255,49266,49274,49290,49299,49316,49342,49343,49354,49364,49410,49442,49442,49466,49523,49545,49594,49642,49652,49735,49787,49801,49818,49923,49943" d="M167.5,130.99115C165.8,131.04831 165.04753,131.52876 164.55267,132.28665C164.09862,132.98206 163.63812,133.71313 163.064,134.38048C162.52614,135.00565 161.63658,135.3172 161.07466,135.96582C160.56535,136.55371 160.61267,137.50963 159.97917,137.99115C159.29826,138.5087 158.13419,138.53368 157.62151,139.21265C157.08708,139.92041 157.5372,140.99202 157.5,141.79115C157.45729,142.70879 156.5609,143.20638 156.5,144.09116C156.4382,144.98903 156.5,145.79115 156.5,146.69115C156.5,147.59116 156.5,148.49115 156.5,149.39114C156.5,150.29115 156.5,151.19115 156.5,152.09132C156.5,152.87648 156.5,153.81648 156.5,154.50716C156.5,155.58049 156.5,156.49115 156.5,157.39114C156.5,158.29115 156.5,159.19115 156.5,160.09116C156.5,160.99115 156.48126,161.79135 156.5,162.69115C156.51801,163.55571 157.34132,163.86977 157.97917,164.51198C158.61812,165.15529 158.34065,166.28903 158.85266,166.93848C159.33722,167.5531 159.36345,168.34779 159.784,169.19115C160.11392,169.8528 160.48709,170.69122 160.5,171.59116C160.51262,172.47047 160.94922,173.22995 161.584,173.70715C162.35056,174.28343 163.33333,174.15782 163.5,174.99115C163.66667,175.82448 164.17032,176.53781 164.85716,176.93399C165.67174,177.40384 166.48135,177.42661 166.5,178.29115C166.51938,179.18961 166.85571,179.96248 167.7,179.99115C168.59932,180.0217 169.35126,180.32794 169.92534,180.96582C170.4462,181.54454 170.94922,182.22995 171.584,182.70715C172.35056,183.28343 173.3002,182.97241 174.2,182.99115C175.06456,183.00916 175.5515,183.8103 176.30133,183.98982C177.19354,184.20343 177.76299,184.77596 178.5,185.15782C179.25395,185.54845 179.86017,186.12042 180.55267,186.63849C181.21487,187.13388 182.2265,186.80739 183.10001,187.02715C183.96283,187.2442 184.59389,187.93027 185.5,187.99115C186.2982,188.04478 187.20006,187.98074 188.10001,187.99115C189.00018,188.00157 189.87366,188.29311 190.37866,189.09099C190.86571,189.86049 191.60017,189.99115 192.38533,189.99115C193.32533,189.99115 194.43878,189.6459 195.13834,190.04831C195.95221,190.51648 196.5,190.99115 197.3,190.99115C198.2,190.99115 199.10001,190.99115 200,190.99115C200.89999,190.99115 201.8,190.99115 202.7,190.99115C203.60001,190.99115 204.5,190.99115 205.3,190.99115C206.2,190.99115 207.10001,190.99115 208,190.99115C208.89999,190.99115 209.8224,191.18922 210.69867,190.98982C211.50298,190.80679 211.25267,189.61101 211.85716,189.04382C212.51903,188.42281 213.27338,188.16734 214.2,187.99565C215.12904,187.82352 215.70735,187.43025 216.37866,186.76982C216.99849,186.16003 217.54681,185.68428 218.3,185.27515C219.09752,184.84193 219.6543,184.07489 220.5,183.99115C221.29611,183.91232 222.31848,183.93872 222.49867,183.18982C222.71329,182.29784 223.27774,181.8665 224.10001,181.41649C224.95674,180.94762 225.10309,180.37549 225.52083,179.51198C225.86044,178.80995 227.20424,179.10635 227.48933,178.38048C227.81465,177.55219 227.9213,176.73228 228.37866,175.89131C228.78517,175.14383 229.28929,174.60893 229.50133,173.79248C229.7092,172.99203 230.48958,172.4705 230.5,171.59116C230.51067,170.69121 230.37599,169.78255 230.50017,168.89131C230.61189,168.08945 231.47141,167.63544 231.5,166.79115C231.53047,165.89166 231.5,164.99115 231.5,164.19115C231.5,163.29115 231.81448,162.60399 232.33333,161.82448C232.8042,161.11702 232.5,160.19115 232.5,159.29115C232.5,158.39114 232.5,157.49115 232.5,156.59116C232.5,155.69115 232.82498,154.51207 232.14284,154.04831C231.44525,153.57405 230.55267,153.63849 229.97917,153.01198L229.10001,152.99115L228.2045,152.98665" id="svg_11" stroke-width="3" stroke="#000" fill="none"/>
  <path t="51299,51394,51410,51411,51426,51427,51435,51459,51476,51483,51499,51513,51634,51666,51677,51683,51707,51747,51754,51770,51786,51794" d="M225.5,185.99115C227.33333,186.15782 227.71523,186.93025 228.60001,186.99115C229.49788,187.05295 230.18089,187.27402 230.784,187.90715C231.33089,188.48126 231.24536,189.56006 231.936,189.95515C232.68661,190.38455 233.97964,189.66577 234.44284,190.34831C234.91721,191.04732 234.38924,192.09799 234.5,192.99115C234.61151,193.89037 235.41467,194.27649 235.5,195.19115L235.5,196.09116L235.5,196.99115L235.66667,197.82448" id="svg_12" stroke-width="3" stroke="#000" fill="none"/>
  <path t="54131,54245,54251,54266,54282,54298,54311,54328,54354,54354,54363,54363,54370,54379,54392,54394,54411,54428,54434,54455,54474,54494,54514,54530,54555,54555,54563,54570,54586,54602,54614,54629,54634,54656,54674,54682,54696,54698,54714,54714,54730,54759,54766,54766,54770,54778,54778,54794,54802,54802,54810,54827,54834,54858,54866,54882,54898,55018,55034,55057" d="M221.5,180.99115C221.5,182.79115 221.5,183.69115 221.5,184.59116C221.5,185.39114 221.5,186.29115 221.5,187.19115C221.5,188.09116 221.5,188.99115 221.5,189.87648C221.5,190.81648 221.50706,191.50719 221.5,192.58049C221.49466,193.39119 221.2195,194.39456 220.5,194.82448C219.72954,195.28485 219.75627,196.21606 219.27867,196.86981C218.76796,197.56889 218.65067,198.20387 218.49983,199.09099C218.35512,199.94206 217.39873,199.94336 216.5,199.99115C215.69659,200.03387 215.03406,200.66205 214.52533,201.38048C214.06078,202.03653 213.0576,201.72333 212.2045,201.99565C211.38399,202.25757 210.86954,202.82274 210,203.01198C209.15372,203.19617 208.25662,203.64644 207.62134,204.21248C207.02034,204.74797 206.45319,205.29802 205.7,205.70715C204.90248,206.14037 204.2924,206.73634 203.5,207.15782C202.85941,207.49855 201.87016,207.93039 201.55267,208.69649C201.26959,209.37956 200.78218,210.21393 200.33333,210.99115C199.97437,211.61273 198.79552,211.85883 198.51067,212.60182C198.19955,213.4133 198.0434,214.12163 197.416,214.70715C196.72752,215.34969 196.216,215.90715 195.536,216.42715L195.5,217.29115L195.5,218.19115" id="svg_13" stroke-width="3" stroke="#000" fill="none"/>
  <path t="55987,56210,56226,56266,56290,56290,56304,56418,56426,56446,56458,56473,56477,56477,56482,56498,56499,56499,56507,56514,56515,56524,56524,56530,56551,56551,56560,56560,56562,56562,56562,56570,56578,56578,56578,56587,56594,56594,56605,56605,56610,56610,56621,56621,56626,56626,56644,56656,56656,56658,56658,56666,56682,56682,56690,56698,56698,56706,56714,56722,56730,56746,56762,56772,56778,56794,56794,56818,56826,56846,56854,56866,56874,56890,56906,56914,56930,56946,56962,56962,56973,57026" d="M186.5,237.99115C186.5,236.29115 186.74539,235.55328 187.33333,234.82448C187.89687,234.12592 187.89911,233.28189 188.5,232.51198C188.98958,231.88469 189.8992,231.88638 190.55267,231.34381C191.14322,230.85349 192.00514,230.47559 192.7,229.79115C193.20375,229.29494 193.87463,228.54272 194.66667,227.99115C195.29904,227.55077 196.00995,227.18234 196.864,226.60182C197.59506,226.10489 198.41927,225.98622 199.31467,225.55515C199.95996,225.24448 200.50818,224.33128 201.37199,224.00581C202.07709,223.74014 202.89232,223.41228 203.5,222.99115C204.48784,222.30658 205.30782,222.12573 206.01466,221.90848C206.90732,221.63411 207.65839,220.81596 208.15266,220.34299C208.83607,219.68903 209.66275,219.26686 210.5,218.82448C211.18581,218.46211 211.79402,217.83713 212.67467,217.42715C213.45744,217.06274 214.29362,216.94083 214.98399,216.42181C215.72372,215.86569 216.26476,215.07811 216.97917,214.53282C217.74174,213.95078 218.66803,213.8279 219.32533,213.56581C220.33543,213.16306 221.15721,213.07867 221.89999,212.55515C222.68863,211.9993 223.05727,211.34531 223.8,210.69565C224.46445,210.11447 225.44775,210.07425 226.064,209.38048C226.64862,208.72232 227.0377,208.1548 227.89999,207.98048C228.8437,207.7897 229.64934,207.40561 230.33333,206.82448C231.00023,206.25787 231.62404,205.79808 232.2,205.28665C232.93227,204.63644 233.73378,204.31131 234.416,203.70715C235.01054,203.18065 235.20786,202.41643 235.51067,201.60182C235.78333,200.86832 236.49413,200.36388 236.92534,199.59116C237.38232,198.77225 237.5,197.89114 237.5,196.99115L237.5,196.19115L237.5,195.29115L237.5,194.39114" id="svg_14" stroke-width="3" stroke="#000" fill="none"/>
  <path t="58763,58837,58837,58850,58873,58882,58905,58922,58922,58978,59058,59069,59121,59193,59210,59226,59226,59258,59274,59282,59291,59314,59342,59346,59358,59362,59378,59394,59407,59410,59426,59450,59466,59466,59474,59482,59546,59553,59577,59587,59618,59626,59644,59657,59674,59690,59706,59740,59746,59758,59771,59788,59806,59822,59826,59845,59845,59849,59865,59874,59890,59898,59912,59914,59922,59930,59945,59957,59974,59978,59989,60006,60018,60025,60046,60050,60066,60084,60170,60210,60218,60228,60253,60262,60282,60282,60306,60314,60386,60482,60506,60514,60522,60531,60554,60570,60581,60586,60626,60656,60666,60681,60693,60698,60730,60730,60755,60818,60840,60851,60874,60874,60882,60889,60897,60917,60922,60935,60935,60938,60948,60954,60954,60962,60962,60970,60970,60979,60986,60996,61013,61013,61018,61018,61035,61046,61046,61050,61050,61058,61065,61066,61082,61089,61090,61090,61097,61105,61114" d="M185.5,240.99115C187.32533,241.41649 188.03461,241.65036 188.97917,241.99115C189.81953,242.29436 190.78989,242.59828 191.37866,243.21265C192.03105,243.89339 192.15718,244.79865 193.10001,244.98048C193.98378,245.15092 194.89999,244.99115 195.8,244.99115C196.7,244.99115 197.60001,244.99115 198.5,244.99115C199.3,244.99115 200.29689,245.35432 201.064,244.95515C201.82338,244.56001 202.33583,244.18742 203.2,243.93399C204.07744,243.67667 204.84595,243.10846 205.47467,242.56581C206.07483,242.04781 206.81793,241.40201 207.60001,241.11266C208.45174,240.79753 209.04526,240.54134 209.78534,240.07648C210.56334,239.5878 211.5343,239.86639 212.2,239.28665C212.83511,238.73355 213.72977,238.32021 214.37866,237.76982C215.03989,237.20898 215.30649,236.31976 216.02083,236.01198C216.92029,235.62444 217.90556,236.00008 218.5,235.49115C219.09145,234.98479 219.72484,234.44757 220.37866,233.76982C220.93674,233.19131 221.79788,233.1505 222.44733,232.63849C223.06195,232.15393 223.82047,232.02037 224.5,231.49115C225.13553,230.99619 225.84573,230.46373 226.7,230.07515C227.46312,229.72803 228.29083,229.49876 228.97917,228.99115C229.67522,228.47786 230.2045,227.93848 231,227.49115C231.7955,227.04382 232.51497,226.60356 233.07466,225.96582C233.59212,225.37622 234.33989,225.2009 235.2,224.93399C236.06596,224.66527 236.37662,223.63991 236.92534,223.01648C237.43976,222.43202 238.1277,221.99777 238.89999,221.56581C239.71808,221.10823 240.28635,220.60815 240.50133,219.79248C240.71156,218.99486 241.85017,219.06419 242.47467,218.56581C243.08263,218.08063 243.93623,218.23888 244.7955,217.98665C245.56758,217.76003 245.74538,216.52258 246.5,216.15782C247.23549,215.80231 248.32343,216.40387 249.14284,215.93399C249.83067,215.53957 250.73241,215.4254 251.33333,214.82448C251.93425,214.22356 251.78525,213.31274 252.416,212.70715C252.98886,212.15715 253.57758,211.56508 254.07466,210.96582C254.58476,210.35086 254.33179,209.37131 254.52083,208.49115C254.70219,207.64673 255.60429,207.14104 256.5,206.99115C257.3382,206.85089 257.4628,205.99028 257.5,205.19115C257.54272,204.27351 258.31769,203.75906 258.50015,202.89131C258.66678,202.09897 259.71393,201.87334 260.14282,201.28665C260.69803,200.52719 261.35425,199.94719 261.49866,199.18982C261.66699,198.30705 261.5,197.35515 261.5,196.50716C261.5,195.64381 261.5,194.62715 261.5,193.78981C261.5,192.82448 261.5,191.99115 261.5,191.15782C261.5,190.23848 261.5,189.33849 261.5,188.64381C261.5,187.62715 261.5,186.69115 261.5,185.78981C261.5,184.82448 261.5,183.99115 261.5,183.15782C261.5,182.29565 261.5267,181.35469 261.49866,180.50716C261.47006,179.64249 261.0614,178.78569 260.784,178.10715C260.41562,177.20609 260.51691,176.15764 260.5,175.40181C260.47916,174.46962 260.06055,173.66718 259.5,172.99115C259.07043,172.4731 258.52084,171.53282 257.92532,170.96582L257.50449,170.28665" id="svg_15" stroke-width="3" stroke="#000" fill="none"/>
  <path t="62571,62682,62682,62693,62693,62693,62698,62698,62698,62708,62708,62714,62722,62722,62730,62730,62745,62756,62762,62762,62772,62789,62794,62810,62858,62882,62882,62890,62914,62945,62961,63082,63098,63110,63282,63298,63322,63330,63358,63450,63466,63482,63482,63498,63506,63506,63516,63602,63612,63629,63659,63668,63683,63706,63706,63770,63786,63797,63874,63901,63906,63926,63945,63945,63978,64083,64092,64162,64194,64214,64236,64242,64266,64346,64354,64370,64370,64436,64465,64473,64570,64570,64586,64602,64620,64646,64746,64746,64778,64794,64805,64828,64847,64856,64856,64858,64871,64914,64947,64947,64954,64962,64973,64986,65010,65022,65026,65210,65210,65242,65442,65456,65474,65482,65506,65514" d="M241.5,229.99115C243.50983,230.34381 244.27544,230.60986 245.33333,230.82448C246.04195,230.96823 246.96011,231.00558 247.92117,231.21248C248.72212,231.3849 249.48531,231.6581 250.52933,231.90715C251.29404,232.08957 251.98848,232.55957 252.82133,233.09099C253.47676,233.50919 254.47154,233.92615 255.1955,233.98665C256.09686,234.06197 257.02145,233.95862 257.98267,233.99248C258.7916,234.02097 259.4317,234.75056 260.2045,234.98665C261.0618,235.24855 261.81793,235.58029 262.60001,235.86964C263.45175,236.18477 264.29999,235.99115 265.20001,235.99115C266.10001,235.99115 267,235.99341 267.89999,235.99115C268.7955,235.98889 269.47958,235.5556 269.5,234.59116C269.51895,233.69583 269.93546,233.00916 270.79999,232.99115C271.69983,232.97241 272.6044,233.07983 273.5,232.99115C274.3457,232.90741 274.5,231.99115 274.5,231.19115C274.5,230.23398 274.5,229.33849 274.5,228.47514C274.5,227.62715 274.24451,226.42075 274.936,226.02715C275.77438,225.54996 276.79999,225.99115 277.70001,225.99115C278.60001,225.99115 279.50046,226.01823 280.29999,225.99115C281.14429,225.96255 281.94608,225.44354 282.41467,224.70581C282.85379,224.01451 282.78235,223.03386 283.70001,222.99115C284.59903,222.94931 285.5,222.99115 286.29999,222.99115C287.20001,222.99115 288.17197,223.31926 288.97916,222.97032C289.69315,222.66168 290.2045,221.99341 291.10001,221.99115C292,221.98889 292.89999,221.99115 293.79999,221.99115C294.70001,221.99115 295.60001,221.99115 296.5,221.99115C297.29999,221.99115 298.32343,222.40384 299.14282,221.93399C299.83069,221.53957 300.5,220.99115 301.29999,220.99115C302.20001,220.99115 303.1192,220.82593 304,221.01198C304.84738,221.19096 305.4874,221.90611 306.29999,221.98982C307.19528,222.08205 308.15985,221.94446 308.55267,221.28665C309.0206,220.50308 309.26514,219.59947 309.78534,218.79248C310.18069,218.17914 311.31842,217.93997 311.49866,217.18982C311.71298,216.29778 312.5,215.99115 313.29999,215.99115C314.20001,215.99115 314.93805,216.15393 315.55267,216.63849C316.20212,217.1505 317.32343,216.57846 318.14282,217.04831C318.83069,217.44273 319.5,217.99115 320.29999,217.99115C321.20001,217.99115 322.21393,218.12688 322.88934,217.55515C323.51883,217.02229 323.5,215.99115 323.72134,215.11249L324.41467,214.70581" id="svg_16" stroke-width="3" stroke="#000" fill="none"/>
  <path t="65890,65930,65956,65956,65964,65964,65964,65964,65976,65976,65976,65980,65985,65993,65993,66002,66009,66018,66026,66026,66034,66051,66060,66087,66098,66098,66114,66114,66146,66178,66186,66210,66246,66266,66266,66278,66299,66313,66314,66322,66330,66338,66356,66370,66379,66396,66413,66413,66418,66430,66434,66458,66466,66480,66482,66494,66515,66522,66538,66538,66557,66562,66570,66581,66586,66586,66595,66602,66614,66614,66640,66649,66649,66650,66664,66666,66666,66674,66684,66690,66721,66721,66735,66738,66746,66754,66764,66770,66781,66786,66798,66816,66840,66848,66850,66874,66874,66890,66899,66935,66949,66949,66954,66970,66970,66994,67002,67002,67034,67042,67066,67080,67090,67140,67149,67162,67180,67185,67201,67217,67237,67242,67242,67249,67273,67281,67281,67281,67289,67289,67298,67305,67315,67321,67345,67353,67353,67394,67410" d="M333.5,196.99115C333.5,200.44948 333.50006,201.30914 333.5,202.13248C333.49991,202.97665 333.50504,203.70656 333.47916,204.51198C333.45261,205.33801 333.3866,206.50349 333.14734,207.41515C332.90564,208.33604 332.52859,209.23254 332.5,210.09116C332.47003,210.99065 332.3801,211.77101 331.92532,212.59116C331.49158,213.37335 331.05768,214.10295 330.66666,214.99115C330.37714,215.64879 330.5,216.59116 330.5,217.49115C330.5,218.39114 330.5,219.29565 330.5,220.31248C330.5,220.99115 330.5,221.96965 330.5,222.78981C330.5,223.69115 330.35336,224.71448 330.936,225.38048C331.54651,226.07832 332.60129,225.94336 333.5,225.99115C334.30338,226.03387 335.03775,226.73584 335.89999,226.95515C336.76877,227.17612 337.30994,227.65465 338.02084,227.97032C338.89752,228.35962 339.43661,228.76593 340.2045,228.98665C341.06519,229.23402 342.03476,228.93819 342.79999,229.34381C343.64594,229.79222 344.28076,230.10799 345.10001,230.56581C345.87247,230.9975 346.44141,231.74985 347.2045,231.98665C348.02628,232.24167 348.55151,232.8103 349.30133,232.98982C350.19354,233.20343 350.72449,233.84978 351.60001,233.99132C352.50354,234.13739 352.90942,234.69856 353.5,235.47032C353.99786,236.12094 354.81793,236.58029 355.60001,236.86964C356.45175,237.18477 357.35471,237.00137 358.10001,237.60182C358.75421,238.12886 359.52472,238.75726 360.20001,239.04382C361.06055,239.40898 361.85184,239.75056 362.63867,240.01648C363.49057,240.30438 363.74539,241.45972 364.5,241.82448C365.23547,242.17999 366.32343,241.57846 367.14282,242.04831C367.83069,242.44273 368.5,242.99115 369.29999,242.99115C370.20001,242.99115 371.17197,242.66304 371.97916,243.01198C372.69315,243.32062 373.20459,243.97829 374.10001,243.99115C374.97931,244.00377 375.49429,244.80925 376.30133,244.98982C377.17831,245.18605 378.12512,244.97926 378.89999,245.41649C379.62625,245.82628 380.5,245.99115 381.29999,245.99115C382.20001,245.99115 383.10941,245.8792 384.02084,246.01198C385.00888,246.15593 385.6629,246.60005 386.61465,246.90715C387.49036,247.1897 388.06042,247.64479 388.79999,248.28665C389.46667,248.86526 390.3002,248.97176 391.20001,248.99115C392.06454,249.0098 392.08731,249.81941 392.55716,250.63399C392.95334,251.32083 393.81116,251.75473 394.44733,252.34381C395.02292,252.8768 395.48956,253.5118 395.5,254.39114C395.51068,255.29109 395.5,256.19116 395.5,257.09116C395.5,257.99115 395.10712,258.92145 395.58533,259.70581C396.07538,260.50958 396.5,261.15781 396.5,261.82715C396.5,262.59247 396.5,263.78049 396.5,264.50583C396.5,265.47031 396.5,266.39114 396.5,267.29114C396.5,268.19116 396.5,269.09116 396.5,269.99115L396.5,270.79114L396.5,271.69116L396.46399,272.55515" id="svg_17" stroke-width="3" stroke="#000" fill="none"/>
  <path t="68388,68410,68425,68426,68426,68434,68452,68460,68460,68460,68466,68466,68476,68492,68492,68498,68508,68508,68514,68530,68553,68553,68562,68575,68592,68594,68594,68602,68610,68626,68658,68676,68706,68726,68750,68770,68778,68874,68882,68882,68893,68922,68922,68930,68978,68988,69010,69029,69053,69053,69066,69092,69092,69110,69110,69110,69114,69114,69129,69131,69131,69138,69158,69165,69165,69169,69185,69193,69201,69201,69217,69226,69248,69259" d="M392.5,221.99115C393.07468,223.59116 393.4621,224.40189 393.50015,225.31232C393.53433,226.1299 394.01642,226.85178 394.52084,227.53282C395.04852,228.24529 395.56204,228.9706 395.93201,229.59248C396.48959,230.52974 396.48508,231.32747 397.11066,232.04181C397.73691,232.7569 398.12387,233.3494 398.47467,234.35515C398.76825,235.19681 399.14017,235.8233 399.55267,236.69115C399.95059,237.52831 400.707,238.00931 401.14282,238.69115C401.66949,239.51514 402.0274,240.33688 402.41599,241.19115C402.76312,241.95427 402.9924,242.78198 403.5,243.47032C404.01331,244.16637 404.7088,244.5506 405.37866,245.21248C405.99542,245.82187 406.30994,246.65465 407.02084,246.97032C407.89752,247.35962 408.63837,247.44051 409.216,248.07515C409.80457,248.7218 410.50085,248.95396 411.29999,248.99115C412.21765,249.03386 412.47293,249.99161 412.5,250.79115C412.52859,251.63544 413.18091,252.27402 413.784,252.90715C414.33087,253.48128 414.5,254.29115 414.5,255.19249C414.5,255.87648 414.5,256.8165 414.5,257.82449C414.5,258.6525 414.5,259.534 414.5,260.25247C414.5,261.04297 414.5,262.30447 414.5,262.94949C414.5,263.96964 414.5,264.99115 414.5,265.79114C414.5,266.69116 414.5,267.51199 414.5,268.47516C414.5,269.33847 414.5,270.23398 414.5,271.19116C414.5,272.09116 414.5,272.99115 414.5,273.79114C414.5,274.69116 414.5,275.59116 414.5,276.49115L414.5,277.39114" id="svg_18" stroke-width="3" stroke="#000" fill="none"/>
  <path t="70619,70658,70674,70690,70706,70714,70723,70723,70730,70751,70761,70761,70769,70777,70785,70793,70793,70809,70825,70825,70842,70842,70857,70857,70869,70873,70886,70889,70898,70914,70926,70931,70945,70946,70977,70993,71009,71040,71041,71057,71069,71081,71105,71114,71143,71146,71158,71172,71178,71194,71208,71224,71226,71252,71261,71266,71275,71282,71291,71298,71314,71325,71330,71352,71450,71481,71489,71509,71510,71514,71530,71530,71550,71550,71559,71562,71634,71634,71650,71714,71744,71762" d="M403.5,220.99115C403.5,222.79115 403.5,223.69115 403.5,224.59116C403.5,225.39114 403.47778,226.2959 403.50015,227.31232C403.51816,228.13042 404.03281,228.72975 404.47467,229.43782C404.95578,230.2088 405.08948,231.16037 405.37866,231.96948C405.68231,232.81905 406.31427,233.32225 406.72134,234.09116C407.12238,234.84868 407.46555,235.64784 407.78534,236.47514C408.06061,237.18724 408.71466,238.09598 409.10001,238.61649C409.72284,239.45778 410.03085,240.17892 410.41599,241.10448C410.75522,241.91972 411.21243,242.39279 411.50449,243.28665C411.75439,244.05151 412.83105,244.17798 413.33334,244.99115C413.80502,245.75473 414.29269,246.22888 414.50015,247.09099C414.70233,247.93112 415.24982,248.61401 416.02084,248.97032C416.80975,249.33488 417.58408,249.40569 418.14734,250.04382C418.67288,250.63922 419.10901,251.49834 419.85718,251.93399C420.58612,252.35844 421.45749,252.33528 422,252.99115C422.49878,253.59413 422.21094,254.54312 422.51068,255.38048C422.77441,256.11722 423.68564,256.48407 424.216,257.07516C424.75443,257.67523 425.24695,258.52835 425.46399,259.39114C425.68372,260.26465 425.35123,261.28085 425.85266,261.93848C426.36874,262.61533 427.25943,262.93234 427.49551,263.69565C427.76041,264.55203 428.1181,265.30148 428.41467,266.19116C428.70053,267.0488 428.93427,268.22357 428.33334,268.82449C427.73242,269.42542 426.70001,268.99115 425.74283,268.99115C424.84283,268.99115 424.09549,268.99115 423.10132,268.99115C422.336,268.99115 421.25717,268.99115 420.39999,268.99115C419.5,268.99115 418.70001,268.99115 417.79999,268.99115L416.85718,268.93399L416.41599,268.27515L415.62149,267.76965" id="svg_19" stroke-width="3" stroke="#000" fill="none"/>
  <path t="73082,73201,73218,73243,73258,73258,73274,73287,73290,73306,73340,73340,73538,73538,73554,73570,73590,73607,73610,73622,73626,73649,73649,73658,73658,73659,73671,73671,73674,73674,73689,73690,73707,73723,73730,73750,73759,73762,73786,73986,74146,74170,74170,74192,74226,74234,74253,74273,74281,74305,74313,74329,74345,74355,74355,74402,74434,74452,74466,74466,74481,74554,74574,74591,74674,74682,74697,74722,74722,74756,74770,74770,74785,74793,74801,74812,74818,74834,74834,74856,74866,74878,74878,74896,74924,74946,74954,74954,74978,74986,75001,75049,75050,75083,75097,75097,75349,75362,75370,75386,75402,75402,75418,75418,75443,75450,75451,75451,75465,75473,75497,75505,75513,75534,75537,75659,75690,75705,75714,75721,75740,75740,75749,75749,75749,75754,75754,75754,75766,75767,75769,75782,75782,75785,75786,75799,75810,75817,75826,75826,75841,75873,75905,75927,75978,76002,76037,76041,76080,76138,76210,76282,76290,76314,76354,76442,76466,76475,76490,76506,76506,76514,76541,76553,76561,76569,76577,76593,76617,76617,76625,76648,76657,76667,76673,76685,76689,76705,76713,76737,76753,76761,76769,76818,76848,76857,76873,76881,76897,76913,76927,76929,76945,76961,76971,76989,76993,77009,77021,77025,77046,77049,77057,77079,77081,77105,77121,77129,77153,77161,77177,77193,77246,77274,77394,77434,77454,77473,77490,77505,77529,77553,77554,77604,77613,77633,77648,77649,77657,77674,77681,77697,77708,77713,77725,77729,77748,77761,77761,77761,77769,77785,77801,77801,77813,77830,77834,77858,77867,77879,77898,77994,78002,78034,78059,78082,78083,78098,78121,78129,78150,78153,78161,78332,78347,78363,78383,78399,78402,78418,78444,78452,78452,78473,78481,78489,78546,78553,78569,78593,78593,78614,78636,78641,78654,78665,78673,78689,78689,78705,78717,78717,78721,78739,78739,78748,78749,78765,78766,78782,78786,78799,78801,78817" d="M365.5,165.99115C365.5,167.79115 365.42261,168.65875 365.936,169.39114C366.48975,170.18111 367.15515,170.78732 368.10001,170.98048C368.96188,171.15669 369.46036,171.67276 370.14667,172.01648C370.93063,172.4091 371.86615,172.66756 372.61465,173.18982C373.31732,173.68011 374.31558,173.98994 374.49866,173.18982C374.6991,172.3138 374.81519,171.32466 374.47916,170.51198C374.17212,169.76942 373.66531,169.09132 373.33334,168.15782C373.08038,167.44655 372.38501,166.67801 372,165.97032C371.68771,165.39633 371.23035,164.37859 370.79999,163.64832C370.33344,162.85666 369.82257,162.17705 369.47467,161.39114C369.11261,160.57329 368.69241,159.77444 368.49985,158.89131C368.31573,158.04704 367.56357,157.62903 367,156.99115C366.4845,156.40767 365.61032,155.95309 365.50134,155.18982C365.3717,154.28185 366.5,153.99115 367.29999,153.99115C368.20001,153.99115 369.10001,153.99115 370,153.99115C370.89999,153.99115 371.79999,153.99115 372.70001,153.99115C373.60001,153.99115 374.64893,153.65402 375.33334,154.15782C375.98642,154.63853 376.55692,155.28085 377.20001,155.63849C378.05313,156.1129 378.81793,156.58029 379.60001,156.86964C380.45175,157.18477 381.29999,156.99115 382.20001,156.99115C383.10001,156.99115 384,156.99115 384.89999,156.99115C385.79999,156.99115 386.70001,156.99115 387.60001,156.99115C388.5,156.99115 389.29999,156.99115 390.25717,156.99115C391.15268,156.99115 392.01599,156.99115 392.97916,156.99115C393.79999,156.99115 394.71255,157.14072 395.59982,156.99098C396.45313,156.84698 396.93738,156.05658 397.85184,155.99565C398.74088,155.93642 399.74847,156.14467 400.5,155.82448C401.28119,155.49164 402.01724,155.15857 402.89999,154.98048C403.84375,154.7901 404.4874,154.07619 405.29999,153.99248C406.19528,153.90025 406.94833,153.74911 407.58401,153.27515C408.35284,152.7019 409.11279,152.64828 409.7215,152.11249C410.42932,151.48944 411.18723,150.77068 412.064,151.03781C412.8479,151.27666 413.07361,152.45422 413.44733,153.29115C413.79221,154.06349 414.24542,154.72212 414.69867,155.47514C415.10159,156.14458 415.38354,157.25607 415.66666,158.15782C415.8786,158.83296 416.34515,159.48233 416.48932,160.58049C416.60785,161.48346 416.25711,162.42598 416.50449,163.28665C416.72519,164.05455 417.48956,164.5118 417.5,165.39114C417.51068,166.29109 417.82535,167.47079 417.14282,167.93399C416.44382,168.40836 415.39999,167.99115 414.5,167.99115C413.68567,167.99115 412.72934,167.99115 411.95834,167.99115C411.09732,167.99115 410.20035,167.99115 409.32132,167.99115C408.51434,167.99115 407.46933,167.99115 406.61734,167.99115C405.67465,167.99115 404.66666,167.99115 403.87466,167.99115C403.01599,167.99115 402.15268,167.99115 401.13599,167.99115C400.29999,167.99115 399.39999,167.99115 398.5,167.99115C397.70001,167.99115 396.79999,167.99115 395.89999,167.99115C395,167.99115 394.05762,167.72333 393.2045,167.99565C392.384,168.25757 391.8894,168.98581 391,168.99115C390.10004,168.99655 389.20001,168.99106 388.29999,168.99115C387.40018,168.99124 386.89099,169.49834 386.14282,169.93399C385.41388,170.35844 384.52859,170.34702 384.5,171.29115C384.47275,172.19073 384.5,173.09116 384.5,173.99115C384.5,174.79115 384.48959,175.69121 384.5,176.59116C384.51044,177.49133 384.79004,178.38417 385.59982,178.86981C386.3295,179.3074 386.31863,180.14464 386.66666,180.99115C386.94257,181.66225 387.59674,182.38861 388.07468,183.05249C388.59167,183.77063 388.76761,184.54823 389.37866,185.21248C389.96567,185.85059 390.24945,186.46486 390.50449,187.28665C390.7413,188.04973 391.48416,188.62407 391.92532,189.39114C392.34103,190.11397 393.0484,190.66048 393.44284,191.34831C393.91272,192.16772 393.37598,193.19975 393.50015,194.09099C393.61188,194.89287 394.47141,195.34686 394.5,196.19115C394.53046,197.09064 394.17764,198.14494 394.72134,198.86981C395.20364,199.51283 395.5,200.19115 395.5,201.09116C395.5,201.99115 395.78522,202.66956 396.41599,203.27515C396.98886,203.82515 397.17245,204.48795 397.51068,205.38048C397.78796,206.11223 398.49466,206.60178 398.5,207.49115C398.5054,208.39113 398.44812,209.32501 398.92532,209.96582C399.43304,210.6476 399.58948,211.40852 400.07468,212.01648C400.57306,212.64098 400.5,213.59116 400.5,214.49115C400.5,215.39114 400.75549,216.56155 400.064,216.95515C399.22562,217.43234 398.20001,216.99115 397.29999,216.99115C396.39999,216.99115 395.5,216.99115 394.70001,216.99115C393.79999,216.99115 392.89999,216.99115 392,216.99115C391.10001,216.99115 389.93109,217.24577 389.53601,216.55515C389.10663,215.80453 389.65933,214.69327 389.14734,214.04382C388.66281,213.4292 388.52924,212.67068 388,211.99115C387.50504,211.35562 387.02737,210.60646 386.5,209.82448C386.06912,209.18559 385.69116,208.48122 385.11066,207.62715C384.61386,206.89627 384.52536,205.99075 384.5,205.19115C384.47141,204.28979 384.03958,203.46754 383.55267,202.69565C383.10959,201.99321 382.64902,201.45627 382.48932,200.59116C382.33588,199.7598 381.91489,198.84143 381.33334,198.15782C380.76675,197.49181 380.05804,197.20557 379.30133,196.70581C378.69241,196.30367 378.27524,195.44849 377.62134,194.76982C377.0636,194.19098 376.02094,194.31613 375.55716,193.63399C375.08289,192.9364 375.1463,192.04504 374.5,191.49115C373.88837,190.96696 372.90701,190.66074 372.58533,189.79115C372.30618,189.03659 372.10248,188.32152 371.58401,187.70581C371.02362,187.04031 370.66763,186.21933 370.50449,185.29115C370.35477,184.43927 369.95099,183.77676 369.33334,183.15782C368.716,182.53917 368.5,181.89114 368.5,180.99115C368.5,180.19115 368.08237,179.43674 367.62149,178.76965C367.11746,178.04012 366.95322,177.32089 366.55716,176.63399C366.08521,175.81544 366.18344,174.94952 365.784,174.19115C365.36859,173.40247 365.19818,172.51439 364.92532,171.81648C364.56134,170.88551 364.50049,169.89082 364.5,169.17682C364.49933,168.22314 364.62262,167.46408 364.33334,166.32448C364.15863,165.63618 363.58533,164.79115 363.49985,163.89131L363.27866,163.11249L362.55716,162.63399L362.5,161.79115" id="svg_20" stroke-width="3" stroke="#000" fill="none"/>
  <path t="80059,80169,80193,80208,80218,80229,80255,80264,80266,80282,80282,80298,80331,80352,80361,80385,80401,80417,80457,80474,80505,80527,80569,80569,80609,80626,80657,80674,80745,80761,80777,80881,80882,80913,80994,81057,81066,81106,81155,81177,81185,81332,81353,81366,81384,81384,81386,81386,81400,81417,81418,81443,81443,81451,81458,81481,81490,81490,81505,81515,81542,81550,81586,81609,81626,81643,81665,81665,81689,81705,81721,81746,81766,81802,81819,81850" d="M410.5,148.99115C412.20001,148.99115 413.20001,148.99115 414.10001,148.99115C415,148.99115 415.89999,148.99115 416.79999,148.99115C417.70001,148.99115 418.60001,148.99115 419.5,148.99115C420.29999,148.99115 421.20001,148.99115 422.10001,148.99115C423,148.99115 423.89999,148.99115 424.79999,148.99115C425.70001,148.99115 426.6044,149.07983 427.5,148.99115C428.3457,148.90741 428.71524,148.05205 429.60001,147.99115C430.49786,147.92935 431.29999,147.99115 432.20001,147.99115C433.10001,147.99115 434,147.99115 434.89999,147.99115C435.79999,147.99115 436.70001,147.99115 437.60001,147.99115C438.5,147.99115 439.29999,147.99115 440.20001,147.99115C441.10001,147.99115 441.90625,148.08751 442.55267,148.63849C443.15707,149.15364 443.73209,149.80882 444.59982,149.99132C445.39203,150.15793 445.61084,151.09801 445.5,151.99115C445.3884,152.8904 444.53534,153.21904 443.86401,153.56581C443.05295,153.98477 442.07813,153.90549 441.48532,154.60182C440.91144,155.27596 440.23294,155.7549 439.39999,156.21265C438.72495,156.58362 438.05762,157.3569 437.62134,158.09099C437.15546,158.87488 436.44916,159.29199 435.79999,159.63849C434.95062,160.09184 434.13156,160.13524 433.44733,160.63849C432.78113,161.12848 431.79999,160.99115 430.89999,160.99115C430,160.99115 429.05118,160.88727 428.29999,161.27515C427.64307,161.61435 426.7998,161.97211 425.89999,161.99115C424.93555,162.01157 424.44733,162.63849 423.69867,162.98982L422.79999,162.99115L421.89999,162.99115L421,162.99115" id="svg_21" stroke-width="3" stroke="#000" fill="none"/>
  <path t="83554,83650,83662,83682,83697,83706,83716,83722,83737,83737,83756,83756,83765,83778,83801,83817,83857,83866,83878,83897,83926,83934,83934,83953,83961,83985,83997,84033,84081,84081,84089,84131,84148,84177,84199,84217,84246,84255,84265,84284,84284,84300,84317,84322,84345,84521,84542,84561,84569,84580,84585,84586,84599,84600,84601,84609,84619,84619,84626,84626,84645,84653,84653,84657,84666,84667,84673,84689,84701,84721,84836,84865,84873,84873,84889,84918,84921,84940,84969,84985,84993,85009,85009,85025,85041,85051,85070,85089,85090,85105,85121,85121,85129,85145,85161,85169,85193,85201,85218,85240,85251,85257,85273,85289,85289,85302,85313,85345,85540,85562,85562,85577,85593,85593,85604,85604,85609,85621,85644,85654,85654,85657,85665,85673,85681,85689,85705,85705,85713,85723,85723,85729,85745,85745,85745,85755,85755,85761,85761,85772,85772,85777,85789,85793,85793,85805,85809,85822,85825,85846,85857,85873,85897,85897,86097,86121,86155,86164,86165,86177,86193,86201,86209,86225,86225,86247,86249,86265,86281,86291,86309,86313,86329,86349,86359,86369,86377,86401,86425,86433,86457,86481,86490,86521,86521,86549,86569,86577,86593,86617,86627,86633,86649,86660,86665,86677,86694,86694,86697,86710,86713,86721,86729,86750,86761,86769,86785,86794,87017,87052,87177,87209,87217,87218,87245,87265,87273,87315,87316,87343,87361,87657,87668,87674,87689,87702,87702,87705,87705,87716,87716,87721,87721,87739,87753,87753,87766,87778,87939,87969,87978,87990,88003,88018,88042,88051,88052,88057,88057,88057,88069,88069,88077,88077,88085,88085,88085,88089,88089,88102,88103,88103,88105,88113,88121,88129,88145,88153,88169,88177,88186,88193,88209,88220,88242,88273,88273,88287,88302,88321,88353,88361,88372,88393,88404,88409,88425,88457,88465,88481,88497,88507,88538,88545,88577,88609,88627,88673,88681,88690,88713,88723,88729,88753,88773,88788,88793,88806,88873,89025,89053,89059,89065,89080,89081,89091,89097,89113,89113,89124,89129,89148,89148,89159,89161,89177,89193,89217,89257,89276,89313,89313,89346,89361,89378,89385,89433,89449,89460,89481" d="M243.5,119.99115C244.11067,121.55515 244.92516,122.04781 245.52533,122.56582C246.15405,123.10847 247.01048,123.473 247.7955,123.93848C248.46106,124.33314 248.90392,125.16 249.68533,125.55515C250.44681,125.94023 251.27837,126.10995 252.10001,126.56582C252.88211,126.99975 253.83102,127.17799 254.33333,127.99115C254.80501,128.75475 255.63789,128.66936 256.33334,129.15782C257.04852,129.66014 257.74847,129.83763 258.5,130.15782C259.28119,130.49066 260.06308,130.67137 260.88934,131.00182C261.67862,131.31746 261.88788,132.30237 262.66666,132.82448C263.37256,133.29771 264.33441,132.79518 265.20001,133.04831C266.07764,133.30495 267.07187,133.69783 267.46399,134.42715C267.87146,135.18501 268.03247,135.8717 268.5,136.51198C269.07596,137.30072 269.43912,138.08504 269.5,138.99115C269.55362,139.78935 269.5,140.69115 269.5,141.59116C269.5,142.49115 269.5,143.39114 269.5,144.29115C269.5,145.19115 269.61081,146.09801 269.5,146.99115C269.3884,147.89056 268.44339,148.28709 268.11066,148.85248C267.56866,149.77344 267.51096,150.59944 267.07468,151.39114C266.62207,152.21248 266.59814,153.10832 266.41467,153.87648C266.18393,154.84261 265.54141,155.2744 264.936,156.07782C264.42905,156.7506 264.69769,157.79376 264.27866,158.62698C263.86176,159.45598 263.58505,160.20692 263.07468,160.92981C262.61124,161.58623 262.5,162.39114 262.5,163.29115C262.5,164.19115 262.5,165.09116 262.5,165.99115C262.5,166.79115 262.5,167.69115 262.5,168.59116C262.5,169.49115 262.5,170.39114 262.5,171.29115C262.5,172.19115 262.5,173.09116 262.5,173.99115C262.5,174.79115 262.5,175.69115 262.5,176.59116C262.5,177.49115 262.5,178.39114 262.5,179.29115C262.5,180.19115 262.5,181.09116 262.5,181.99115C262.5,182.79115 262.5,183.69115 262.5,184.59116C262.5,185.49115 262.48932,186.38048 262,186.99115C261.51068,187.60182 261.5,188.49115 261.5,189.39114C261.5,190.29115 261.5,191.19115 261.5,192.09116C261.5,192.99115 261.5,193.79115 261.5,194.69115C261.5,195.59116 260.55621,197.28322 261.5,197.44948C261.98029,197.53409 262.10797,196.38849 262.79999,195.69115C263.49731,194.98846 264.02643,194.51659 264.69867,193.79115C265.23657,193.21069 265.55853,192.35811 266.30133,191.90715C267.00568,191.47954 267.60794,190.66029 268.29999,190.27649C269.12448,189.81921 270.09375,189.97592 270.55267,189.28665C271.05432,188.53323 271.85947,188.17804 272.60001,187.76965C273.27451,187.39769 273.88281,186.57355 274.60001,185.89131C275.18634,185.33357 276.06641,185.0473 276.8215,184.54831C277.37479,184.18266 278.07742,183.44054 278.89868,182.87648C279.46368,182.48842 280.28784,181.92046 281,181.51198C281.93283,180.97693 282.93219,181.09859 283.47916,180.47032C284.04645,179.8187 284.67807,179.20609 285.47916,178.99115C286.3461,178.75854 286.88223,178.20184 287.69867,177.98982C288.49911,177.78195 289.05078,177.05095 289.79999,176.63849C290.63864,176.17677 291.50046,175.96407 292.29999,175.99115C293.14429,176.01974 293.49933,176.79248 293.5,177.62715C293.50082,178.64381 293.5,179.33849 293.5,180.35515C293.5,181.29115 293.5,182.19115 293.5,183.09116C293.5,183.99115 293.5,184.79115 293.5,185.69115C293.5,186.59116 293.5,187.49115 293.5,188.39114C293.5,189.29115 293.37598,190.19975 293.50015,191.09099C293.61188,191.89287 294.28931,192.37337 294.50134,193.18982C294.70923,193.99026 295.3739,194.71674 296.11066,194.98048C296.94803,195.28024 297.89999,194.99115 298.79999,194.99115C299.70001,194.99115 300.60001,194.99115 301.5,194.99115C302.29999,194.99115 303.20001,194.99115 304.10001,194.99115C305,194.99115 305.93481,195.23402 306.7955,194.98665C307.56339,194.76593 308.02069,194.00157 309,193.99115C309.89993,193.98158 310.80472,194.08205 311.70001,193.98982C312.5126,193.90611 313.15372,193.19617 314,193.01198C314.86954,192.82272 315.43661,192.21637 316.2045,191.99565C317.06519,191.74828 318.03479,192.04414 318.79999,191.63849C319.64578,191.19011 320.1069,190.50754 320.78534,190.07648C321.55948,189.58461 322.47141,190.34686 322.5,191.19115C322.53046,192.09064 322.5372,192.99202 322.5,193.79115C322.45728,194.70879 321.56088,195.20638 321.5,196.09116C321.4382,196.98903 321.5,197.79115 321.5,198.69115C321.5,199.59116 321.38245,201.06467 322.14734,200.92949C322.922,200.79259 323.2287,199.65976 323.83334,198.99115C324.40353,198.36064 325.33334,197.99115 326,197.49115C326.66666,196.99115 327.47321,196.76898 328.16666,195.99115C328.69717,195.39609 328.99036,194.46014 329.70001,193.79248C330.27637,193.25023 331.20459,193.39432 332.064,192.95515C332.76093,192.59901 333.30154,192.01053 334.20001,191.99115C335.06454,191.9725 335.59766,191.3006 336.30133,190.90715C337.03601,190.49637 337.81223,189.87445 338.52084,189.49115C339.48788,188.96808 340.11591,188.72717 340.84283,188.29115C341.77579,187.73155 342.24084,187.22183 342.98532,186.50848C343.5126,186.00325 344.4917,185.3015 345.09549,185.09648C346.00354,184.78815 346.68283,184.21178 347.30984,183.69649C347.97925,183.14638 349.01282,183.14195 349.64667,182.90848C350.59149,182.56047 350.82858,181.39314 351.70001,181.07648C352.54953,180.76778 353.33749,180.64822 353.85266,180.04382C354.40363,179.39742 354.3176,178.34906 355.02084,178.01198C355.80453,177.63632 356.65039,177.54547 357.14734,176.93848C357.64771,176.32729 357.49045,175.33844 357.5,174.47514C357.51044,173.53265 358.31427,173.00307 358.49551,172.28665C358.71515,171.41849 358.36414,170.53085 357.85266,169.93848C357.28625,169.28247 356.8291,168.52524 356.11066,168.01648C355.45462,167.55194 355.48932,166.60182 355,165.99115C354.51068,165.38048 354.38138,164.51552 353.85266,163.93848C353.21924,163.24718 352.68243,162.63065 352.14734,162.04382C351.62,161.4655 351.68451,160.34465 350.97916,160.01198C350.18378,159.63686 348.93298,160.24471 348.53601,159.55515C348.10672,158.80943 347.77441,158.11722 347.51068,157.38048C347.21094,156.54312 347.6824,155.34906 346.97916,155.01198C346.19547,154.63632 345.50568,154.47055 345.5,153.59116C345.49362,152.60179 345.94089,151.93091 346.52533,151.41649C347.14877,150.86777 348.02182,150.52792 348.7955,150.04382C349.50696,149.59865 350.06653,149.04201 350.85184,148.99565C351.86237,148.936 352.60721,148.53821 353.5,148.15782C354.25153,147.83763 355.20001,147.99115 356.10001,147.99115C357,147.99115 357.89999,147.99115 358.79999,147.99115C359.70001,147.99115 360.60001,147.99115 361.5,147.99115C362.29999,147.99115 363.20007,147.98048 364.10001,147.99115C364.97934,148.00157 365.52533,148.56581 366.2045,148.98665L367.10001,148.99115L368.064,149.02715L368.55267,149.63849" id="svg_22" stroke-width="3" stroke="#000" fill="none"/>
  <path t="90554,90657,90673,90684,90689,90707,90721,90730,90749,90769,90769,90788,90793,90801,90840,90842,90865,90873,90940,90961,90977,90993,91025,91025,91057,91077,91089,91089,91105,91129,91144,91145,91177,91209,91223,91247,91247,91281,91290,91409,91441,91464,91473,91481,91492,91585,91657,91697,91713,91724,91730,91755,91769,91778,91793,91808,91809,91825,91833,91849,91977,92044,92058,92097,92113,92126,92153,92153,92161,92178,92185,92201,92249,92273,92297,92313,92313,92337,92355,92361,92369,92393,92401,92417,92425,92449,92465,92476,92493,92493,92505,92523,92529,92551,92561,92585,92594,92611,92617,92633,92651,92661,92678,92689,92697,92705,92721,92721,92729,92754,92774,92776,92785,92801,92817,92837,92837,92847,92858,92865,92881,92898,92923,92937,92937,92961,92961,92969,93018,93044,93067,93081,93087,93098,93133,93148,93163,93169,93181,93201,93217,93225,93240,93249,93273,93281,93298,93305,93305,93321,93345,93353,93365" d="M268.5,134.99115C270.29999,134.99115 271.29266,134.63626 272.064,135.02715C272.76212,135.38094 273.33582,135.79486 274.20001,136.04831C275.07742,136.30563 275.84705,136.82755 276.60001,137.21248C277.36319,137.60265 278.20459,137.58798 279.064,138.02715C279.76093,138.38329 280.17841,139.2764 280.784,139.90715C281.33398,140.48001 281.93549,140.97314 282.89999,140.99115C283.79984,141.00795 284.7038,140.90903 285.60001,140.99132C286.51144,141.075 287.03772,141.73595 287.89999,141.95515C288.77313,142.17712 289.63837,142.37723 290.29999,142.70715C291.14337,143.12772 292.10004,142.98575 293,142.99115C293.8894,142.99649 294.32837,143.61728 294.85718,144.28665C295.44263,145.02769 296.47174,145.20285 297.10001,145.56581C297.94565,146.05437 298.66006,146.42139 299.216,147.07515C299.73828,147.68933 299.98254,148.64505 300.47467,149.38048C300.92267,150.04996 301.05905,150.72839 301.53601,151.55515C301.93362,152.24434 303.17197,152.31926 303.97916,151.97032C304.69315,151.66168 305.18872,150.89247 305.58401,150.18982C306.04361,149.37288 306.23959,148.55205 306.50449,147.69565C306.74057,146.93234 307.629,146.52731 308.14734,145.93848C308.72,145.28792 308.89008,144.42308 309.47467,143.60182C309.94086,142.94691 310.89999,142.99115 311.79999,142.99115C312.70001,142.99115 313.60001,142.99115 314.5,142.99115C315.29999,142.99115 316.20001,142.99115 317.10001,142.99115C318,142.99115 318.89999,142.99115 319.79999,142.99115C320.70001,142.99115 321.60001,142.99115 322.5,142.99115C323.29999,142.99115 324.2265,142.8074 325.10001,143.02715C325.96283,143.2442 326.79727,143.75827 327.41599,144.27515C328.07294,144.82399 328.85016,144.91811 329.47467,145.41649C330.08264,145.90167 330.91049,145.85844 331.79999,145.99565C332.73138,146.13933 333.26862,146.84297 334.20001,146.98665C335.08951,147.12386 335.86844,147.13524 336.55267,147.63849C337.21887,148.12848 338.20007,147.98048 339.10001,147.99115C339.97934,148.00157 340.43661,148.76593 341.2045,148.98665C342.06519,149.23402 343,148.99115 343.89999,148.99115C344.79999,148.99115 345.70001,148.99115 346.60001,148.99115C347.5,148.99115 348.29999,148.99115 349.20001,148.99115C350.10001,148.99115 351,148.99115 351.89999,148.99115C352.79999,148.99115 353.70001,148.99115 354.60001,148.99115C355.5,148.99115 356.29999,148.99115 357.20001,148.99115C358.10001,148.99115 359,148.99115 359.89999,148.99115C360.79999,148.99115 361.70132,148.99115 362.66666,148.99115C363.5,148.99115 364.33334,148.99115 365.1955,148.99115C366.10001,148.99115 367,148.98889 367.89999,148.99115C368.7955,148.99341 369.31775,149.6741 370.11066,149.98048C370.94028,150.30106 371.93716,149.74034 372.7955,149.99565C373.55814,150.22249 373.24536,151.56006 373.936,151.95515C374.68661,152.38454 375.71259,151.84137 376.59982,151.99132C377.45184,152.13531 377.8559,152.96185 378.79999,152.99115C379.69824,153.01901 380.28558,153.43311 380.78534,154.18982C381.18747,154.79874 382.20001,154.98665 383.10001,154.99115L383.97916,155.01198L384.55267,155.63849" id="svg_23" stroke-width="3" stroke="#000" fill="none"/>
  <path t="96619,96753,96778,96787,96801,96802,96809,96837,96841,96939,96961,96986,97006,97011,97025,97047,97056,97065,97089,97089,97113,97122,97148,97193,97205,97244" d="M215.5,209.99115C215.5,208.29115 215.42268,207.32361 215.936,206.59116C216.48967,205.80113 216.90887,205.14323 217.52533,204.42715C218.05031,203.81735 218.90079,203.79094 219.584,203.27515C220.19934,202.81059 221.2,202.99115 222.10001,202.99115C223,202.99115 223.89999,202.99115 224.8,202.99115C225.7,202.99115 226.60001,202.99115 227.5,202.99115C228.3,202.99115 229.2,202.99115 230.10001,202.99115C231,202.99115 231.89999,202.99115 232.8,202.99115L233.7,202.99115" id="svg_24" stroke-width="3" stroke="#000" fill="none"/>
  <path t="103418,103473,103493,103498,103513,103528,103529,103555,103564,103564,103574,103577,103584,103601" d="M194.5,217.99115C194.66667,219.82448 195.26968,220.29669 195.85266,220.93848C196.37891,221.51779 196.48964,222.39795 197,222.99115C197.48077,223.54996 197.8018,224.46793 198.07466,225.16582C198.43866,226.0968 198.5,226.99115 198.72133,227.86981L199.41467,228.27649" id="svg_25" stroke-width="3" stroke="#000" fill="none"/>
  <path t="107890,108083,108105,108121,108150,108168,108321,108344,108355,108361,108377,108393,108393,108404,108421,108425,108447,108447,108455,108458,108473,108473,108489,108497,108513,108522,108529,108547,108639,108673,108673,108713,108729,108748,108758,108784" d="M394.5,271.99115C394.5,273.79114 394.5,274.69116 394.5,275.59116C394.5,276.49115 394.5,277.39114 394.5,278.29114C394.5,279.19116 394.11057,280.33853 394.7215,280.86966C395.39081,281.45154 396.5,280.99115 397.29999,280.99115C398.20001,280.99115 399.10001,280.99115 400.02084,280.99115C400.82132,280.99115 401.67465,280.99115 402.61465,280.99115C403.60001,280.99115 404.5,280.99115 405.29999,280.99115C406.20001,280.99115 407.10001,280.99115 408,280.99115C408.89999,280.99115 409.79999,280.99115 410.70001,280.99115C411.60001,280.99115 412.50085,281.02835 413.29999,280.99115C414.21765,280.94843 414.49866,280.18982 414.5,279.29114L414.55716,278.34833L415.216,277.90714" id="svg_26" stroke-width="3" stroke="#000" fill="none"/>
 </g>
</svg>