<svg width="500" height="333.3333333333333" xmlns="http://www.w3.org/2000/svg" xmlns:svg="http://www.w3.org/2000/svg" xmlns:xlink="http://www.w3.org/1999/xlink">
 <!-- Created with SVG-edit - http://svg-edit.googlecode.com/ -->
 <g display="inline" class="layer">
  <title>Layer 1</title>
  <path t="8728,8816,8848,8872,8888,8928,8944,8968,8968,8976,9016,9050,9050,9065,9065,9096,9105,9128,9188,9256,9280,9321,9360,9384,9416,9416,9432,9440,9456,9504,9520,9536,9536,9576,9616,9624,9656,9656,9664,9712,9753,9753,9777,9785,9816,9816,9832,9872,9896,9928,9944,9961,9992,10016,10032,10048,10064,10073,10096,10144,10160,10192,10192,10216,10248,10280,10312,10344,10400,10400,10452,10502,10536,10576,10601,10624,10624,10667,10712,10766,10808,10808,10825,10832,10856,10910,10952,10968,11047,11088,11116,11129,11144,11278,11349,11408,11440,11545,11599,11624,11632,11633,11672,11688,11712,11760,11784,11801,11816,11840,11856,11864,11915,11928,11968,11968,11976,12024,12137,12169,12176,12216,12248,12256,12256,12264,12288,12320,12336,12352,12352,12384,12392,12400,12409,12432,12464,12504,12504,12528,12528,12544,12552,12568,12585,12601,12624,12624,12640,12680,12688,12704,12720,12720,12736,12768,12800,12800,12816,12824,12840,12864,12888,12904,12936,12952,12968,12976,13008,13008,13032,13040,13049,13057,13072,13089,13113,13113,13136,13136,13152,13160,13176,13192,13192,13200,13216,13225,13248,13264,13272,13296,13297,13304,13312,13328,13337,13345,13377,13377,13392,13408,13408,13416,13425,13433,13448,13456,13456,13488,13520,13536,13576,13608,13632,13640,13656,13664,13665,13673,13688,13705,13713,13736,13753,13753,13761,13761,13768,13784,13816,13832,13849,13864,13872,13894,13894,13897,13912,13920,13936,13952,13968,13968,13976,13992,14007,14008,14040,14063,14088,14128,14193,14193,14224,14224,14248,14249,14256,14273,14281,14320,14328,14352,14353,14384,14416,14440,14449,14457,14480,14526,14544,14544,14560,14576,14608,14616,14656,14681,14704,14768,14808,14808,14840,14840,14848,14857,14872,14896,14913,14913,14944,14961,14984,15000,15008,15048,15088,15088,15104,15128,15160,15192,15200,15216,15225,15225,15232,15232,15248,15264,15297,15297,15305,15321,15337,15360,15376,15408,15424,15432,15432,15440,15448,15472,15512,15512,15520,15528,15537,15544,15568,15600,15624,15640,15656,15672,15680,15680,15688,15712,15744,15745,15760,15760,15800,15825,15825,15856,15880,15880,15920,15972,15972,16000,16016,16048,16089,16137,16153,16153,16161,16169,16222,16222,16264,16280,16304,16312,16328,16360,16376,16408,16416,16448,16456,16480,16504,16504,16520,16970,17016,17016,17101,17222,17269,17320,17368,17400,17484,17520,17536,17589,17819,17819,17978,18038,18048,18072,18104,18128,18128,18129,18160,18168,18169,18192,18232,18256,18389,18466,18466,18504,18747,18801,18816,18848,18872,18880,18920,18920,18981,19008,19048,19144,19168,19256,19288,19305,19305,19313,19336,19376,19400,19432,19481,19512,19512,19600,19685,19720,19721,19752,19768,19768,19784,19784,19784,19800,19832,19832,19832,19840,19848,19856,19856,19871,19880,19896,19912,19928,19968,19992,20007,20016,20056,20056,20072,20088,20144,20144,20244,20490,20504,20504" d="M290.01135,63.25758C288.41138,63.83224 287.58621,64.31424 286.98602,64.83224C286.3573,65.37489 285.44611,65.73021 285.09537,66.45758C284.68256,67.31362 284.33493,68.07402 283.98602,68.85757C283.61636,69.68774 283.03079,70.43665 282.61136,71.07224C282.03741,71.94201 281.52731,72.43905 280.8447,73.09091C280.21313,73.69401 280.01309,74.45551 279.30685,74.90491C278.57965,75.36764 277.61136,75.25758 276.71136,75.25758C275.81137,75.25758 274.91138,75.25758 274.01135,75.25758C273.21136,75.25758 272.31137,75.25758 271.41138,75.25758C270.44736,75.25758 269.53156,75.17348 268.71136,75.61024C267.96185,76.00936 267.23428,76.38104 266.41138,76.83224C265.63123,77.26001 264.66132,77.12592 263.91138,77.47891C263.13583,77.84396 262.57562,78.49966 261.8447,79.09091C261.14688,79.65538 260.41687,79.8441 259.51135,80.25758C258.71606,80.62072 258.02396,81.17254 257.21136,81.25624C256.3161,81.34846 255.41136,81.25758 254.51137,81.25758C253.61136,81.25758 252.71136,81.25758 251.81137,81.25758C250.91153,81.25758 250.01137,81.25758 249.21004,81.25758C248.31137,81.25758 247.41136,81.25758 246.51137,81.25758C245.61136,81.25758 244.70483,81.15062 243.81137,81.25891C242.89159,81.37039 242.35507,82.05612 241.41136,82.24691C240.54907,82.42124 239.91916,82.828 239.17802,83.25758C238.53447,83.63059 237.98228,84.44796 237.31137,84.90041C236.51543,85.43719 235.73219,86.23903 236.2327,87.01474C236.66896,87.69087 236.96358,88.35884 237.01137,89.25758C237.05409,90.06098 237.76047,90.7942 237.97537,91.65758C238.1929,92.53146 237.67447,93.28883 237.29536,94.05758C236.87856,94.90279 236.81116,95.65837 236.29536,96.34158C235.83081,96.95692 236.01137,97.95758 236.01137,98.85757C236.01137,99.75758 235.76849,100.69241 236.01587,101.55308C236.23657,102.32097 237.00122,102.83224 237.01137,103.69358C237.0226,104.6469 237.58871,105.19877 238.0367,105.86824C238.52882,106.60368 238.96864,107.45455 239.01137,108.35757C239.05389,109.25657 239.03011,110.05778 239.01137,110.95758C238.99336,111.82214 238.55972,112.58758 237.8447,113.09091C237.14978,113.58009 236.26477,113.57522 235.72737,114.17358C235.15395,114.81204 234.53198,115.36946 233.95869,115.90491C233.27347,116.54491 232.7413,117.03126 231.91136,117.47891C231.26372,117.82824 230.23947,118.18967 230.0127,118.97358C229.76408,119.833 230.01137,120.75758 230.01137,121.65758C230.01137,122.55308 229.57347,123.04187 229.13269,123.70024C228.64891,124.42284 228.38182,125.23447 227.98604,125.86824C227.51732,126.61881 227.24762,127.52464 226.78987,128.35757C226.4189,129.03261 225.56848,129.62303 225.13269,130.35741C224.66763,131.14108 224.20071,131.68333 223.72737,132.45624C223.25551,133.22672 222.75816,133.84499 222.30687,134.60941C221.8448,135.39211 221.16023,136.02461 221.01587,136.95758C220.87825,137.847 221.15346,138.77058 221.0007,139.65758C220.85722,140.49072 220.09918,141.2439 220.01587,141.95758C219.90656,142.89406 220.01355,143.77841 220.01137,144.65758C220.00911,145.56209 219.93509,146.46996 219.49052,147.23674C219.00409,148.07573 218.28191,148.47374 217.8447,149.25758C217.48111,149.90945 216.62646,150.4995 216.13269,151.35741C215.70825,152.09488 215.14793,152.58363 214.58603,153.23224C214.07671,153.82014 213.96416,154.61629 213.43669,155.28291C212.92136,155.9342 212.58453,156.6664 211.91136,157.35757C211.31934,157.96544 210.50359,158.4397 210.13286,159.35741C209.80203,160.17633 210.09468,161.20839 209.4007,161.82158C208.73392,162.41074 207.86777,162.65063 207.12604,162.97357C206.2347,163.36165 205.39973,162.85696 204.45804,163.29358C203.70804,163.64131 203.11044,164.0892 202.17802,164.42424C201.36957,164.71474 200.6311,165.24298 200.01137,165.75758C199.40933,166.25751 198.47662,166.20468 197.71136,166.61024C196.86548,167.05855 196.01097,167.23222 195.21136,167.25758C194.31001,167.28618 193.58899,167.94377 192.71136,168.20041C191.84581,168.45352 190.85078,168.0594 190.01137,168.42424C189.32681,168.72177 188.79462,169.68375 188.01137,170.09091C187.26752,170.4776 186.48776,170.71799 185.71587,171.20491C185.01343,171.64801 184.46895,172.21535 183.5287,172.25891C182.72012,172.29637 182.08429,173.03265 181.30687,173.25308C180.40411,173.50905 179.49052,173.25758 178.61136,173.25758C177.71136,173.25758 176.81137,173.25758 175.91136,173.25758C175.01137,173.25758 174.21136,173.25758 173.31137,173.25758C172.41136,173.25758 171.51137,173.25758 170.62202,173.25758C169.7247,173.25758 168.8447,173.25758 168.01137,173.25758C167.03287,173.25758 166.21269,173.25758 165.31137,173.25758C164.41136,173.25758 163.51137,173.25758 162.61136,173.25758C161.71136,173.25758 160.8127,173.25758 159.92737,173.25758C159.01137,173.25758 158.21136,173.25758 157.31137,173.25758C156.41136,173.25758 155.47662,173.20468 154.71136,173.61024C153.86548,174.05855 152.97493,174.08942 152.21136,174.34291C151.43919,174.59926 150.63852,175.05296 149.81137,175.54291C149.13048,175.94623 148.5056,176.72708 147.71587,177.20491C147.05913,177.60226 146.54868,178.18123 145.69003,178.47891C144.8174,178.78145 144.02296,179.09753 143.2587,179.31024C142.34476,179.56461 141.58725,179.72652 140.65804,180.23224C139.92622,180.63052 139.38382,181.25122 138.61136,181.68291C137.79213,182.14073 137.05367,182.49255 136.31137,182.90491C135.48695,183.36288 135.02399,183.96216 135.01137,184.85757C134.99869,185.75774 134.72136,186.65062 133.91153,187.13625C133.18173,187.57388 132.78917,188.22253 132.36403,188.95758C131.93143,189.70555 131.16245,189.84006 130.57137,190.29358C129.98874,190.74062 130.05211,191.83623 129.4007,192.28291C128.67873,192.77798 128.17833,193.47597 127.8447,194.25758C127.5402,194.97095 126.76786,195.71967 126.44736,196.43225C126.03616,197.34653 125.50355,197.86623 125.06853,198.61475C124.64406,199.34512 125.10561,200.37383 124.92603,201.14291C124.70102,202.10657 124.09518,202.91087 124.01137,203.69357C123.91938,204.55266 124.01137,205.45758 124.01137,206.35757C124.01137,207.25758 124.01137,208.05757 124.01137,208.95758C124.01137,209.85757 123.58305,210.87674 124.05303,211.73674C124.43951,212.44392 125.47829,212.21947 124.68987,212.47891C123.97478,212.71422 123.00615,213.06468 122.2327,213.23224C121.24658,213.44588 121.01137,214.35757 121.01137,215.25758C121.01137,216.05757 120.97692,216.97002 120.58603,217.65758C120.12311,218.47183 119.82046,219.26027 119.36403,219.96208C118.88961,220.69154 118.67948,221.58167 118.01137,222.25758C117.43249,222.84325 116.59257,223.32172 115.98603,223.83224C115.41454,224.31328 114.2908,224.00439 113.5807,224.34291C112.79134,224.71921 112.47376,225.71005 111.71587,226.20491C111.02046,226.65897 110.38365,227.21025 110.06403,227.96291C109.67861,228.8705 109.19853,229.4286 109.01137,230.25758C108.81178,231.1416 108.2282,231.72702 107.98603,232.40691C107.68747,233.2451 106.572,233.51779 106.17803,234.25758C105.80751,234.95337 105.69512,235.93227 105.30686,236.6049C104.77048,237.53415 104.2555,238.28676 103.95869,238.95758C103.58365,239.80524 102.81136,240.45758 102.31136,240.95758C101.61137,241.65758 100.99406,242.46591 100.31136,242.90041C99.57924,243.36635 98.61137,243.25758 97.71136,243.25758C96.81136,243.25758 95.91136,243.25758 95.01137,243.25758C94.21136,243.25758 93.31136,243.25685 92.37537,243.25758C91.5287,243.25826 90.76956,243.38277 89.9632,243.90491C89.33956,244.30873 88.30879,243.85938 87.44736,244.29358C86.74849,244.64584 86.05668,244.82899 85.2967,245.34291C84.62932,245.7942 84.46717,246.99655 83.61137,247.22157C82.74442,247.44952 82.13519,247.78387 81.5687,248.35757C80.96046,248.97354 80.06865,249.54747 80.01137,250.42424C79.95704,251.25581 80.01137,252.05757 80.01137,253.09091C80.01137,253.90491 80.78596,254.20366 81.00687,254.96208C81.2573,255.82185 81.01137,256.75757 81.01137,257.65756C81.01137,258.55759 81.01137,259.45758 81.01137,260.35757C81.01137,261.25757 80.54583,262.23712 81.09669,262.97223C81.55861,263.58865 82.73964,263.4483 83.61137,263.22159C84.49087,262.99286 85.17171,262.08444 85.66403,261.60941C86.1795,261.11203 87.1714,260.52814 88.01137,260.09091C88.65497,259.75589 89.71615,259.39001 90.00069,258.64691C90.31892,257.81586 90.48787,257.02646 90.89003,256.15756C91.19643,255.49556 91.61938,254.65497 92.21003,254.05891C92.88684,253.3759 92.96484,252.54706 92.51137,251.75758C92.10612,251.05206 92.19463,250.10332 91.8447,249.25758C91.52003,248.47295 91.33114,247.69452 91.00069,246.86824C90.68505,246.07896 89.64038,245.4689 90.01137,244.69357C90.29885,244.09276 91.33544,244.58948 92.01137,245.25758C92.59702,245.83646 92.75098,246.69669 93.01586,247.55307C93.25195,248.31638 94.12325,248.73695 94.6587,249.31024C95.29871,249.99547 96.1241,250.31004 96.57536,250.86824C97.19805,251.63849 97.24826,252.75301 98.11137,253.13608C98.76054,253.42421 99.86449,253.28401 100.4687,252.81091C101.00182,252.39346 101.76878,251.75896 102.51137,251.27841C103.23341,250.81116 104.21857,250.42175 105.17803,250.09091C105.85077,249.85895 106.52167,249.44792 107.37537,248.86824C108.10655,248.37175 109.14492,248.21877 109.6542,247.55307C110.17252,246.87556 110.74229,246.40593 111.4007,245.82158C112.0939,245.20634 112.39359,244.46828 113.21003,244.25624C114.01048,244.04836 114.53623,243.34377 115.4007,243.25758C116.35457,243.16249 117.13447,242.86943 117.76853,242.15775C118.37172,241.48073 118.96514,241.01544 119.71136,240.61024C120.47249,240.19695 121.44887,240.21591 121.24436,239.55225L120.65503,238.96291" id="svg_2" stroke-width="3" stroke="#000" fill="none"/>
  <polyline timestamps="28013,28880,29592" startTime="1502005839186" id="svg_4" points="120.01136471971498,239.25757681030376 120.92736471971496,238.97357681030377 121.36853138638163,238.31474347697045 " stroke-linecap="round" stroke-width="3" stroke="#000" fill="none"/>
  <path t="31667,31823,31849,31856,31919,31986,31986,32048,32117,32153,32192,32216,32217,32270,32351,32400,32610,32648,32656,32664,32688,32688,32696,32745,32785,32785,32824,32931,32952,32952,32976,33016,33032,33040,33049,33072,33120,33136,33136,33144,33160,33200,33216,33233,33249,33257,33281,33289,33313,33321,33345,33360,33360,33376,33384,33408,33440,33448,33457,33464,33472,33480,33488,33488,33504,33504,33512,33520,33545,33561,33577,33585,33593,33608,33633,33640,33656,33735,33753,33784,33793,33808,33816,33824,33832,33864,33865,33873,33873,33880,33880,33880,33896,33903,33912,33912,33920,33928,33928,33928,33944,33944,33960,33960,34015,34040,34080,34113,34129,34137,34145,34153,34208,34209,34217,34224,34248,34256,34272,34288,34297,34297,34312,34320,34328,34352,34376,34393,34424,34456,34533,34592,34608,34625,34641,34665,34673,34689,34705,34712,34728,34752,34752,34760,34801,34801,34808,34817,34856,34888,34889,34920,34944,34961,34968,34976,35000,35008,35016,35016,35024,35032,35032,35032,35040,35048,35056,35072,35072,35105,35120,35137,35145,35152,35152,35161,35169,35176,35192,35208,35224,35240,35248,35257,35288,35297,35312,35336,35344,35344,35368,35376,35429,35440,35450,35465,35481,35488,35512,35528,35544,35544,35552,35560,35560,35577,35630,35688,35746,35912,35952,35960,35976,35976,35984,36009,36009,36016,36033,36057,36066,36088,36088,36105,36120,36128,36128,36160,36201,36224,36256,36280,36281,36312,36320,36352,36352,36360,36442,36442,36472,36473,36496,36550,36660,36886,36912,36929,36944,36968,36985,36993,37004,37009,37017,37041,37064,37072,37112,37128,37145,37152,37176,37185,37201,37201,37225,37248,37272,37289,37305,37321,37329,37345,37361,37408,37432,37433,37449,37581,37600,37617,37625,37640,37640,37648,37648,37648,37656,37656,37665,37672,37696,37720,37752,37753,37769,37784,37857,37904,37921,37936,37944,37984,38040,38064,38064,38096,38112,38144,38208,38208,38293,38293,38373,38384,38385,38416,38424,38432,38448,38456,38472,38488,38512,38512,38520,38536,38560,38606,38624,38647,38688,38688,38802,38802,38871,38896,38920,38968,39008,39032,39048,39072,39072,39088,39104,39120,39129,39144,39168,39169,39200,39208,39240,39280,39320,39352,39376,39384,39384,39400,39424,39439,39447,39472,39487,39496,39513,39513,39528,39544,39544,39560,39576,39608,39608,39632,39672,39680,39704,39720,39728,39744,39759,39768,39768,39792,39808,39809,39824,39832,39840,39848,39864,39880,39888,39889,39896,39896,39920,39928,39944,39952,39968,39976,39992,40048,40080,40242,40296,40335,40376,40392,40440,40541,40541,40680,40696,40697,40712,40736,40768,40784,40808,40851,40888,40888,40904,40904,40921,40953,40968,41008,41016,41048,41065,41089,41097,41097,41104,41120,41138,41168,41169,41201,41233,41233,41264,41281,41320,41337,41352,41368,41376,41392,41392,41400,41416,41424,41441,41464,41496,41505,41505,41513,41536,41536,41544,41544,41552,41553,41560,41585,41616,41616,41665,41681,41681,41697,41705,41705,41729,41729,41745,41752,41854,41854,41871,41917,41944,41968,41969,42030,42128,42128,42136,42208,42224,42256,42288,42288,42456" d="M124.01137,239.25758C123.17803,238.59091 122.52219,239.06909 122.0367,239.69357C121.45676,240.43954 120.94111,241.19865 120.5322,241.75758C119.93412,242.57506 120.01137,243.54291 120.01137,244.45758C120.01137,245.35757 120.01137,246.25758 120.01137,247.05757C120.01137,247.95758 120.00597,248.85759 120.01137,249.75758C120.0167,250.64696 120.54321,251.38599 121.41136,251.24692C122.24613,251.1132 123.04227,250.5056 123.71136,250.20491C124.54049,249.83231 124.7765,248.86592 125.2967,248.05891C125.69207,247.44556 126.51112,246.99086 127.17803,246.42424C127.86203,245.84311 128.6113,245.64685 129.30687,244.96208C129.98598,244.29352 130.80655,244.1617 131.51137,243.75758C132.30463,243.30276 133.21136,243.25758 134.11136,243.25758C135.01137,243.25758 135.81178,243.28484 136.71136,243.25758C137.6555,243.22899 138.16566,242.34132 139.01137,242.25758C139.88576,242.17101 140.81229,242.61874 141.57536,242.22157C142.3347,241.82634 142.8127,241.25826 143.71136,241.25758C144.61136,241.25691 145.5322,241.25758 146.49536,241.25758C147.18604,241.25758 148.2542,241.25758 149.11119,241.25758C150.0367,241.25758 150.8127,241.25758 151.71136,241.25758C152.61136,241.25758 153.51137,241.25983 154.41136,241.25758C155.31589,241.25533 156.17802,241.09093 157.01137,240.75758C157.8447,240.42426 158.80508,240.62482 159.57536,240.22157C160.33376,239.82455 160.8127,239.25826 161.71136,239.25758C162.61136,239.25691 163.44942,239.09479 164.06403,238.61024C164.71349,238.09824 165.71143,238.26801 166.61136,238.25758C167.51155,238.24716 168.27023,237.83626 169.11119,237.37891C169.85869,236.97238 170.39824,236.35175 170.98604,235.83224C171.56886,235.31714 172.41136,235.25766 173.31587,235.25758C174.3327,235.25749 175.0482,235.36932 175.9902,235.03624C176.71477,234.78003 177.55365,234.37721 178.49052,234.25758C179.15788,234.17238 179.98978,233.50949 180.8727,233.29358C181.81752,233.06253 182.60069,233.25758 183.55302,233.25758C184.5542,233.25758 185.27271,233.25758 186.0632,233.25758C187.08969,233.25758 187.9697,233.25758 188.8447,233.25758C189.7247,233.25758 190.62202,233.25758 191.51137,233.25758C192.41136,233.25758 193.31137,233.25758 194.21136,233.25758C195.11136,233.25758 196.21582,233.64151 196.89003,233.03607C197.50761,232.48148 197.66808,231.46495 198.51137,231.27841C199.38025,231.08621 200.10083,230.75639 200.65869,230.20491C201.25897,229.61148 202.03384,229.31744 202.98987,229.25742C203.81282,229.20575 204.43298,228.55449 205.41136,228.29358C206.27751,228.06261 206.886,227.71689 207.5322,227.25758C208.22931,226.76208 209.37718,226.71506 209.88986,226.03607C210.42427,225.32832 209.68884,224.11917 210.17802,223.42424C210.68135,222.70921 211.36725,222.28688 212.31137,222.25758C213.20961,222.22971 213.74925,221.64735 214.44736,221.29358C215.21872,220.90268 216.21136,221.25758 217.11153,221.25758C217.8967,221.25758 218.87489,221.40694 219.8447,221.09091C220.53571,220.86574 221.31001,220.28618 222.21136,220.25758C223.1109,220.22905 224.01137,220.25758 224.81137,220.25758C225.71136,220.25758 226.61136,220.25758 227.51137,220.25758C228.41136,220.25758 229.30687,220.25758 230.23286,220.25758C231.11136,220.25758 232.01137,220.25758 232.81137,220.25758C233.68336,220.25758 234.55524,220.28912 235.51137,220.23674C236.2451,220.19653 237.1701,219.85506 238.11119,219.37891C238.8705,218.99474 239.25534,218.30872 239.65869,217.61475C240.12854,216.80637 240.6389,216.26392 241.41136,215.83224C242.23061,215.37444 243.04326,215.13104 243.61136,214.64691C244.35672,214.01173 245.10759,213.35062 245.95869,213.25758C246.71353,213.17508 247.46384,212.71997 247.95869,211.96208C248.41275,211.26668 249.17804,210.82484 249.65869,210.20491C250.20911,209.495 249.67078,208.42348 250.17802,207.59091C250.6116,206.87926 251.01137,206.25758 251.01137,205.45758C251.01137,204.55757 251.11507,203.70216 251.8447,203.25758C252.56715,202.81738 252.88797,201.90634 253.43669,201.28291C253.95111,200.69846 254.52943,200.09872 255.09537,199.54158C255.76653,198.88084 256.20236,198.13168 256.71585,197.55757C257.27942,196.92746 258.09885,196.32918 258.57538,195.65758C259.09027,194.93192 259.78494,194.3277 260.00687,193.61024C260.26501,192.77574 259.79883,191.4408 260.44736,191.26825C261.23151,191.05963 262.04053,192.01343 262.71136,192.31024C263.55902,192.68529 264.21329,193.45566 264.71136,193.95758C265.40338,194.65492 265.79486,195.55128 266.36404,196.20491C266.88348,196.80142 267.27921,197.47307 267.81268,198.05757C268.46957,198.77728 268.84232,199.61017 269.29538,200.45758C269.64395,201.10956 269.65274,202.03549 270.01135,202.82158C270.29889,203.45189 271.31512,203.6107 272.01135,204.25758C272.61462,204.81808 273.4527,205.14143 274.21136,205.54158C275.06973,205.99431 275.94803,205.8542 276.72604,206.34291C277.46613,206.80779 277.93188,207.26283 278.82602,207.69357C279.47125,208.00439 279.66766,208.98122 280.0322,209.75758C280.36792,210.47255 281.69061,210.99802 282.00687,210.54858C282.51962,209.8199 282.01135,208.75758 282.01135,207.85757C282.01135,206.95758 282.17072,205.9597 281.65869,205.31024C281.17416,204.69565 281.06323,203.92372 280.58603,203.28291C280.07831,202.60114 279.92191,201.84021 279.43671,201.23224C278.93832,200.60774 279.17657,199.63838 278.99054,198.75758C278.81155,197.91019 278.25864,197.10704 277.8447,196.25758C277.52686,195.60533 277.18057,194.65729 276.65421,193.96208C276.14825,193.29384 274.99796,193.34845 274.51135,192.73674C273.8952,191.96217 273.5705,191.19733 272.98602,190.68291C272.36261,190.13419 271.49152,189.75661 270.91153,189.15758C270.34863,188.5762 269.66577,187.86372 269.47269,187.22157C269.26346,186.52576 270.53848,186.35313 271.42203,186.24692C272.35022,186.13533 273.0079,185.67514 274.01135,185.42424C274.79776,185.22762 275.61136,185.25826 276.60687,185.25758C277.35419,185.25708 278.37537,185.25758 279.31137,185.25758C280.21136,185.25758 281.11136,185.25758 282.01135,185.25758C282.81137,185.25758 283.71136,185.25758 284.61136,185.25758C285.51135,185.25758 286.41138,185.25758 287.31137,185.25758C288.21136,185.25758 289.29568,184.9292 289.88986,185.47891C290.49933,186.04277 290.96512,186.49969 291.71136,186.90491C292.47247,187.31819 293.52682,187.14722 294.01135,187.77841C294.53442,188.45981 294.88513,189.07828 295.8367,189.65758C296.51843,190.0726 297.46979,190.42303 297.88986,191.35757C298.18106,192.00537 298.01135,193.09091 298.01135,193.86824C298.01135,194.75758 298.01135,195.65758 298.01135,196.55757C298.01135,197.45758 298.01135,198.35757 298.01135,199.25758C298.01135,200.05757 298.01135,200.95758 298.01135,201.85757C298.01135,202.82158 298.01135,203.69357 298.01135,204.55757C298.01135,205.45758 298.10419,206.37349 297.92603,207.14291C297.70053,208.11674 296.7803,208.78192 297.05304,209.71591C297.27118,210.463 298.51135,210.25758 299.49054,210.25758C300.36853,210.25758 301.21136,210.25758 302.11136,210.25758C303.01135,210.25758 303.8118,210.28484 304.71136,210.25758C305.65552,210.22899 305.95309,209.33958 306.5322,208.77841C307.18497,208.14583 308.34827,208.0806 308.72604,207.45624C309.21347,206.6507 309.01135,205.65758 309.01135,204.75758C309.01135,203.86824 309.01135,202.90041 309.01135,202.05757C309.01135,201.15758 309.01135,200.25758 309.01135,199.45758C309.01135,198.55757 309.01135,197.65758 309.01135,196.75758C309.01135,195.85757 309.01135,194.95758 309.01135,194.05891C309.01135,193.17358 309.01135,192.25758 309.01135,191.45758C309.01135,190.50041 309.01135,189.6049 309.01135,188.91025C309.01135,187.89357 309.01135,186.95308 309.01135,186.09091C309.01135,185.25758 309.30362,184.23042 309.0112,183.37891C308.74689,182.60925 308.2345,181.93106 308.01004,181.05891C307.80392,180.258 307.16101,179.72258 307.0007,178.85757C306.84656,178.02589 306.21036,177.45726 305.51135,176.75758C304.91165,176.1573 304.36667,175.49649 303.61136,174.86824C302.95483,174.32214 301.85754,174.57996 301.13269,174.03624C300.48969,173.55392 299.81137,173.25758 298.91119,173.25758C298.12604,173.25758 297.18604,173.25758 296.49536,173.25758C295.42203,173.25758 294.51135,173.25758 293.61136,173.25758C292.71136,173.25758 291.81137,173.25758 290.91153,173.25758C290.03671,173.25758 289.21002,173.25758 288.31137,173.25758C287.41138,173.25758 286.4982,173.40056 285.61136,173.24692C284.77917,173.10274 284.47937,172.0589 283.8447,171.42424C283.21005,170.7896 282.36337,170.69217 281.71585,169.95758C281.13214,169.29538 281.01202,168.45758 281.01135,167.55757C281.01068,166.65758 281.01135,165.75758 281.01135,164.85757C281.01135,163.96208 281.01135,163.0359 281.01135,162.09091C281.01135,161.43225 281.01135,160.42424 281.01135,159.56207C281.01135,158.65758 281.01135,157.75758 281.01135,156.85757C281.01135,155.95758 281.13535,155.04897 281.0112,154.15775C280.89948,153.35587 280.05496,152.89662 280.0112,151.93642C279.98123,151.27876 279.52524,150.48952 279.03671,149.82158C278.47998,149.06036 278.27744,148.21935 277.92737,147.45758C277.58282,146.70786 276.68048,146.14963 276.29669,145.45758C275.83945,144.63309 276.01135,143.61475 276.01135,142.73674C276.01135,141.85757 276.01126,140.95758 276.01135,140.05757C276.01144,139.15758 276.23196,138.29089 276.58603,137.65758C277.06754,136.79631 276.76849,135.82274 277.01587,134.96208C277.23657,134.19418 277.9313,133.64677 278.36404,132.90041C278.82059,132.11298 279.142,131.4856 279.58603,130.69357C280.06354,129.84181 279.9263,128.97762 280.45419,128.27908C280.91522,127.66901 282.09155,127.25489 282.5647,126.65758C283.1261,125.94881 283.42026,125.13027 283.8447,124.25758C284.21136,123.50367 284.55313,122.77727 285.21002,122.05758C285.74353,121.47307 285.9769,120.60088 286.29669,119.77357C286.57196,119.06146 287.19312,118.12668 287.71136,117.56208C288.3779,116.83596 288.76218,116.1061 289.17804,115.25758C289.55173,114.49509 289.87021,113.64451 290.44736,113.24691C291.1149,112.78703 291.7453,112.21934 292.09537,111.45758C292.43991,110.70784 293.13049,109.94621 293.81137,109.54291C294.63852,109.05296 295.43771,108.59472 296.21136,108.34291C297.07101,108.06312 298.01135,108.25758 298.81137,108.25758L299.8447,108.25758" id="svg_5" stroke-width="3" stroke="#000" fill="none"/>
  <path t="44388,44461,44473,44473,44473,44481,44481,44488,44496,44497,44504,44504,44512,44529,44569,44569,44601,44649,44673,44689,44697,44705,44705,44722,44730,44747,44761,44761,44768,44776,44808,44808,44817,44817,44832,44840,44840,44848,44848,44856,44873,44873,44881,44921,44936,44936,44952,44968,44968,44984,45001,45001,45016,45016,45024,45032,45040,45040,45048,45064,45080,45088,45097,45097,45113,45121,45128,45137,45152,45161,45176,45192,45200,45216,45232,45249,45249,45272,45272,45296,45320,45344,45352,45376,45400,45441,45441,45472,45480,45504,45520,45528,45552,45552,45568,45592,45600,45616,45672,45672,45680,45704,45736,45760,45768,45784,45793,45800,45800,45833,45856,45880,45896,45920,45921,45928,45945,45961,46039,46064" d="M230.01137,127.25758C231.5322,128.75758 232.32451,129.37256 233.0322,129.75758C233.60619,130.06987 234.58885,130.5948 235.3542,130.90041C236.24054,131.25432 237.19566,131.3846 237.8367,131.69357C238.8772,132.1951 239.41167,132.90811 240.21136,133.17224C241.06978,133.45576 242.01137,133.25758 242.81137,133.25758C243.71136,133.25758 244.73468,133.11093 245.4007,133.69357C246.09853,134.30406 246.01137,135.35757 246.01137,136.25758C246.01137,137.05757 246.01137,137.95758 246.01137,138.85757C246.01137,139.77841 246.01137,140.74158 246.01137,141.43225C246.01137,142.49591 246.21457,143.40317 245.8447,144.25758C245.54817,144.94257 244.70769,145.55392 244.21136,146.05757C243.5061,146.77325 242.87442,147.55945 242.5322,148.25758C242.13365,149.07062 242.30112,150.02505 241.93936,150.85757C241.56316,151.72336 240.58112,151.85411 240.08336,152.64691C239.57071,153.46344 239.11288,154.24562 239.01587,154.95758C238.88937,155.88586 238.70999,156.73451 238.43669,157.43225C238.07196,158.3634 237.78447,159.35385 237.4007,159.89357C236.80289,160.73428 236.48637,161.47337 235.71587,162.14775C235.11168,162.67656 234.35477,162.96997 233.71671,163.36742C232.8835,163.88641 232.52376,164.78311 232.09669,165.54291C231.69533,166.25696 232.18491,167.29584 231.92603,168.05757C231.62425,168.94548 231.02937,169.65704 231.01137,170.55757C230.99338,171.4574 231.01137,172.35741 231.01137,173.25758C231.01137,174.05891 231.01137,174.95758 231.01137,175.85757C231.01137,176.75758 231.01137,177.66824 231.01137,178.5789C231.01137,179.43225 231.01137,180.37358 231.01137,181.14157C231.01137,182.07225 231.01137,183.01474 231.01137,183.86824C231.01137,184.75758 231.10683,185.70212 230.72737,186.45758C230.29178,187.32478 229.9933,188.05775 230.01137,188.95758C230.02873,189.82216 230.71533,190.3112 231.51137,190.75758C232.31082,191.20587 233.05592,191.5686 233.81137,191.97357C234.56732,192.3788 235.3217,192.87569 236.21136,193.17224C237.069,193.45811 238.01137,193.25758 238.81137,193.25758C239.72603,193.25758 240.62202,193.25758 241.51137,193.25758C242.41136,193.25758 243.31137,193.25758 244.21136,193.25758C245.11136,193.25758 246.01137,193.25758 246.81137,193.25758C247.71136,193.25758 248.66167,193.31023 249.4007,192.83224C250.157,192.34308 251.04962,192.43114 251.81137,192.17224C252.69926,191.87047 253.41136,191.29358 254.31137,191.25758L255.21136,191.25758L256.11136,191.25742" id="svg_6" stroke-width="3" stroke="#000" fill="none"/>
  <path t="54088,54176,54176,54192,54200,54216,54249,54249,54320,54352,54390,54392,54439,54472,54488,54496,54536,54583,54608,54632,54717,54801,54801,54848,54888,54952,54991,55017,55085,55167" d="M245.01137,180.25758C246.01137,180.25758 246.81137,180.25758 247.71136,180.25758C248.61136,180.25758 249.57536,180.25758 250.45419,180.25758C251.1967,180.25758 252.2542,180.25758 253.11136,180.25758C254.01137,180.25758 254.88815,180.31071 255.5322,180.75758C256.26715,181.26753 256.83273,181.93126 257.62204,182.24692C258.44827,182.57735 259.159,182.83293 259.98602,183.22157C260.74222,183.57693 261.49167,183.79936 262.21136,184.45624C262.79587,184.98973 263.71136,185.25533 264.61136,185.25758C265.51135,185.25983 266.41138,185.25758 267.31137,185.25758L268.21136,185.25758L269.11121,185.25774" id="svg_8" stroke-width="3" stroke="#000" fill="none"/>
  <path t="60689,60729,60736,60744,60744,60752,60752,60752,60760,60760,60760,60768,60769,60769,60778,60786,60786,60793,60800,60801,60811,60811,60825,60841,60848,60857,60864,60864,60872,60872,60880,60880,60888,60888,60896,60896,60896,60904,60904,60904,60920,60920,60960,61054,61104,61104,61120,61152,61192,61216,61216,61264,61320,61389,61408,61432,61448,61457" d="M237.01137,120.25758C237.89803,120.25758 238.8367,120.25758 239.8447,120.25758C240.6727,120.25758 241.55437,120.25758 242.28337,120.25758C243.12036,120.25758 244.3112,120.25758 244.90686,120.25758C245.77536,120.25758 246.8447,120.25758 247.76469,120.25758C248.5247,120.25758 249.51137,120.25758 250.49536,120.25758C251.18604,120.25758 252.2587,120.25758 253.17802,120.25758C254.01137,120.25758 254.8447,120.25758 255.70686,120.25758C256.61136,120.25758 257.51135,120.25758 258.41138,120.25758C259.31586,120.25758 260.17804,120.25758 261.01135,120.25758C261.99002,120.25758 262.76404,120.25758 263.66852,120.25758C264.6127,120.25758 265.61588,120.25758 266.24738,120.25758C267.43271,120.25758 268.23669,120.25758 269.05869,120.25758C270.08987,120.25758 270.77536,120.25946 271.61005,120.25758C272.60687,120.25533 273.39746,120.30347 274.37537,119.83224C275.15408,119.45701 276.12146,119.203 276.57538,118.64691C277.18988,117.89408 277.54691,117.19949 278.12119,116.55308C278.68054,115.92348 279.6864,115.5826 279.99002,114.69358C280.26859,113.87791 280.62204,113.26824 281.51135,113.25758L282.41138,113.25758L283.31137,113.25758L284.21002,113.25758" id="svg_9" stroke-width="3" stroke="#000" fill="none"/>
  <path t="63719,63907,63920,63944,64696,64696,65047,65192,65279,65409,65464,65464,65604,65881" d="M290.01135,62.25758C290.44736,63.68291 291.39236,63.95564 291.95871,64.61475C292.55051,65.30349 292.73465,66.14842 293.51135,66.73674C294.24844,67.29505 295.21136,67.25758 296.11136,67.25758C297.01135,67.25758 297.81137,67.25758 298.71136,67.25758L299.57538,67.29358" id="svg_10" stroke-width="3" stroke="#000" fill="none"/>
  <path t="66353,66383,66392,66399,66408,66415,66432,66440,66440,66455,66455,66464,66472,66481,66488,66504,66504,66528,66528,66536,66560,66576,66600,66631,66631,66656,66664,66672,66679,66696,66712,66720,66743,66744,66760,66767,66784,66792,66808,66815,66824,66832,66856,66880,66887,66911,66935,66967,67007,67023,67047,67047,67063,67079,67087,67096,67103,67112,67143,67239,67239,67336,67359,67392,67408,67424,67440,67440,67456,67471,67472,67496,67511,67512,67551,67560,67568,67584,67592,67608,67608,67616,67623,67632,67648,67648,67655,67663,67672,67680,67688,67696,67712,67719,67720,67727,67728,67735,67751,67751,67760,67767,67768,67778,67778,67783,67792,67800,67808,67815,67823,67839,67856,67871,67871,67887,67904,67912,67927,67928,67936,67960,67968,67999,68007,68007,68031,68032,68056,68072,68072,68096,68103,68119,68151,68160,68160,68200,68216,68247,68279,68303,68357,68391,68391,68416,68457,68480,68519,68536,68552,68592,68592,68671,68687,68703,68711,68735,68759,68775,68776,68800,68807,68815,68856,68879,68938,68999,69039,69039,69080,69216" d="M299.01135,73.25758C300.81137,73.25758 301.71136,73.25758 302.61136,73.25758C303.51135,73.25758 304.41138,73.25767 305.31137,73.25758C306.11154,73.25749 306.90573,73.19623 307.8367,72.83224C308.53461,72.55939 309.49036,72.268 310.41138,72.25758C311.31131,72.2474 312.21271,72.25758 313.17804,72.25758C313.8367,72.25758 314.84488,72.27472 315.70688,72.25758C316.61191,72.23958 317.32175,71.63954 318.21136,71.34291C319.069,71.05695 319.98352,71.04661 320.61136,70.68291C321.38123,70.23693 322.33307,70.45246 323.21002,70.25624C324.01709,70.07566 324.54623,69.40659 325.41138,69.24691C326.24274,69.09346 326.99875,68.34261 327.81137,68.25891C328.70663,68.1667 329.41217,68.05737 330.09537,67.54158C330.71069,67.07703 331.71152,67.27437 332.61136,67.25758C333.5759,67.23958 334.00565,66.43949 334.81268,66.25891C335.68967,66.06268 336.61136,66.25758 337.51135,66.25758C338.41138,66.25758 339.30685,66.25758 340.23288,66.25758C341.11136,66.25758 342.01135,66.25758 342.81137,66.25758C343.71136,66.25758 344.61136,66.25758 345.51135,66.25758C346.41138,66.25758 347.31137,66.25758 348.21136,66.25758C349.11136,66.25758 350.01135,66.25758 350.81137,66.25758C351.71136,66.25758 352.61139,66.25224 353.51135,66.25758C354.41144,66.26291 355.37399,66.4257 355.8447,67.25758C356.20593,67.89602 356.55313,68.73788 357.21002,69.45758C357.74353,70.04209 358.00601,70.89352 358.01135,71.74024C358.0173,72.68822 358.01135,73.61475 358.01135,74.45758C358.01135,75.35757 358.39529,76.46204 357.78986,77.13625C357.23526,77.75385 356.35699,78.04954 355.51135,78.23674C354.55447,78.44856 354.10703,78.89226 353.44202,79.45625C352.7558,80.03819 351.76981,80.22898 350.81268,80.25758C349.95908,80.28308 349.23276,80.38212 348.41138,80.83224C347.63113,81.25983 346.70688,81.25758 345.8447,81.25758C345.01135,81.25758 344.03287,81.25758 343.21271,81.25758C342.25421,81.25758 341.3587,81.25397 340.66403,81.25758C339.63666,81.26291 338.69284,81.48589 338.01135,81.75758C337.0368,82.1461 336.21271,82.2569 335.31137,82.25758C334.41138,82.25824 333.51135,82.25758 332.61136,82.25758C331.71136,82.25758 330.81268,82.25758 329.95871,82.25758C329.12469,82.25758 328.18604,82.25758 327.49536,82.25758C326.42203,82.25758 325.47662,82.20467 324.71136,82.61024C323.86548,83.05854 323.21136,83.2569 322.31137,83.25758C321.41138,83.25824 320.44736,83.25758 319.5647,83.25758C318.69019,83.25758 317.87271,83.25758 316.8447,83.25758C316.12469,83.25758 315.18604,83.25758 314.17804,83.25758C313.42203,83.25758 312.51135,83.25758 311.61136,83.25758C310.62204,83.25758 309.67505,83.11989 308.91138,83.47891C308.13568,83.8436 307.41144,84.25224 306.51135,84.25758C305.61139,84.26291 304.71136,84.25758 303.81137,84.25758C302.91138,84.25758 302.01135,84.25758 301.21136,84.25758C300.29669,84.25758 299.6702,83.63585 298.81268,83.34291C297.89313,83.02878 296.80688,83.64152 296.13269,83.03608C295.51511,82.48148 295.34839,81.70518 294.71585,80.95758C294.07648,80.20192 293.52823,79.65039 293.09671,78.97224C292.60355,78.1972 292.96353,77.1563 293.01135,76.25758C293.05408,75.45418 293.48758,74.59941 293.98602,73.86824C294.43091,73.2156 295.53879,73.4267 296.21002,72.97224C297.0015,72.43639 297.17804,71.42424 298.01135,71.25758L298.81137,71.25758L299.72604,71.25758L300.62204,71.29358" id="svg_11" stroke-width="3" stroke="#000" fill="none"/>
  <path t="69947,70066,70088,70096,70104,70111,70136,70144,70168,70168,70216,70232,70256,70280,70343,70417,70456,70464,70472,70489,70489,70496,70504,70528,70543,70551,70584,70615,70647,70671,70695,70735,70752,70759,70775,70823,70855,70864,70896,70904,70904,70920,70956,70983,71023,71031,71084,71135,71184,71200,71200,71216,71224,71240,71256,71264,71295,71312,71328,71336,71344,71360,71360,71432,71448,71480,71512,71520,71536,71568,71576,71608,71631,71631,71683,71727,71786,71786,71832" d="M289.01135,83.25758C288.43671,84.85757 287.96716,85.69374 287.43671,86.28291C286.91183,86.86588 286.06064,87.17332 285.44736,87.86824C284.85861,88.53536 284.74353,89.47307 284.21002,90.05758C283.55313,90.77727 283.24554,91.71181 282.65421,92.20491C281.9581,92.78537 281.04636,93.06272 280.51135,93.77841C279.97842,94.49132 280.45947,95.11235 281.31137,95.26208C282.23953,95.42521 282.78,96.1094 283.71136,96.25307C284.60086,96.39029 285.51135,96.25758 286.41138,96.25758C287.31137,96.25758 288.21136,96.25758 289.11121,96.25758C289.98602,96.25758 290.81268,96.25758 291.71136,96.25758C292.61136,96.25758 293.3931,96.38412 294.06403,96.90491C294.6478,97.35803 295.61139,97.25224 296.51135,97.25758C297.41144,97.26291 298.33221,97.59275 299.01135,98.25758C299.50623,98.74204 299.77643,99.67787 300.0127,100.54158C300.21133,101.26765 301.41885,101.40189 301.8447,102.25758C302.22333,103.0184 302.01196,103.86824 302.01135,104.77841C302.01068,105.74024 301.96384,106.55474 301.43671,107.27224C300.96722,107.91125 300.13269,108.25758 299.30685,108.25758C298.41138,108.25758 297.51135,108.25758 296.61136,108.25758C295.71136,108.25758 294.81137,108.25758 293.91138,108.25758C293.01135,108.25758 292.21136,108.25758 291.31137,108.25758C290.44736,108.25758 289.49054,108.25758 288.61136,108.25758C287.71136,108.25758 286.81137,108.25758 285.91138,108.25758C285.01135,108.25758 284.30508,108.48711 283.8447,109.25758C283.41476,109.97707 282.51135,110.25758 281.71136,110.61475L281.01135,111.25758L280.44736,111.85757L280.03671,112.64691" id="svg_12" stroke-width="3" stroke="#000" fill="none"/>
  <path t="72695,72720,72728,72744,72744,72760,72760,72776,72784,72784,72792,72801,72818,72880,72920,72944" d="M290.01135,73.25758C289.30685,73.96207 288.71136,74.55757 288.01135,75.25758C287.41138,75.85757 286.81137,76.45758 286.21136,77.05758C285.51135,77.75758 284.80942,78.279 284.36853,78.95758C283.85373,79.74992 283.29538,80.34158 282.92737,81.05891L282.4007,81.82158L281.62204,82.23225L281.02203,82.83224" id="svg_13" stroke-width="3" stroke="#000" fill="none"/>
  <path t="75392,75479,75496,75496,75504,75536,75581,75669,75695,75735,75760,75791,75807,75832,75856,75887,75903,75927,75935,75952,75976,76008,76032,76048,76079,76119,76144,76144,76168,76192,76223,76223,76256,76279,76280,76327,76344,76352,76392,76408" d="M243.01137,80.25758C242.72603,79.34158 241.96681,78.94654 241.21136,78.54158C240.4554,78.13634 239.70102,77.63947 238.81137,77.34291C237.95387,77.05708 237.0367,77.25758 236.21004,77.25758C235.31137,77.25758 234.24271,77.19944 234.01587,77.96207C233.76056,78.82042 234.06425,79.79231 233.65869,80.55758C233.21039,81.40347 233.01137,82.25758 233.01137,83.13625C233.01137,83.96207 233.01137,84.85757 233.01137,85.75758C233.01137,86.65758 233.01137,87.55758 233.01137,88.45758C233.01137,89.35757 233.01137,90.25758 233.01137,91.01474C233.01137,91.90575 232.94765,92.94531 233.2327,93.70041C233.52312,94.4697 233.78899,95.42374 234.17802,96.25758C234.4848,96.91511 234.99052,97.75758 235.02203,98.64691L235.51137,99.25758L236.0367,99.86824L236.43669,100.65758" id="svg_14" stroke-width="3" stroke="#000" fill="none"/>
  <path t="79469,79512,79520,79528,79536,79544,79552,79568,79576,79576,79608,79616,79663,79703,79748,79767,79799,79848,79848,79864,79864,79872,79888,79888,79896,79920,79952,79959,80063,80112,80165,80176,80200,80224,80240,80240,80247,80272,80312,80466,80466,80488,80496,80496,80496,80504,80511,80512,80520,80521,80674,80695" d="M270.01135,77.25758C269.30685,77.90491 268.41144,78.25224 267.51135,78.25758C266.61139,78.26291 265.71136,78.25749 264.81137,78.25758C263.91138,78.25766 263.03922,78.46854 262.41138,78.83224C261.64151,79.27823 260.36487,79.07306 260.0322,79.77841C259.65707,80.5738 260.01135,81.55758 260.01135,82.45625C260.01135,83.31024 260.33395,84.15678 261.0322,84.23674C262.12042,84.36136 262.89536,84.25758 263.8367,84.25758C264.8447,84.25758 265.60071,84.25758 266.51135,84.25758C267.41138,84.25758 268.58026,84.51629 268.97537,83.83224C269.44177,83.02474 269.16202,82.04485 269.0112,81.15775C268.86652,80.30667 267.81137,80.25758 266.91138,80.25758C266.01135,80.25758 265.21136,80.25758 264.31137,80.25758C263.41138,80.25758 262.57556,80.17969 261.69037,80.47891C260.87772,80.75362 260.71533,81.25224 261.77936,81.25758C262.51135,81.26125 263.24338,81.25758 264.35004,81.25758C265.33286,81.25758 266.0322,81.25758 267.01135,81.25758L267.80069,81.25758L268.8447,81.25758L269.63937,81.25758" id="svg_15" stroke-width="3" stroke="#000" fill="none"/>
  <path t="84124,84151,84160,84160,84176,84176,84183,84184,84184,84192,84208,84208,84208,84216,84232,84248,84272,84288,84456" d="M281.01135,92.25758C280.09402,92.54158 279.57391,93.18702 278.79004,93.24691C277.81415,93.32147 276.99515,93.19312 276.01135,93.42424C275.20276,93.6142 274.50638,94.01038 273.49054,94.25758C272.68463,94.45369 271.76859,94.67438 271.07385,94.90491C270.0488,95.24504 269.4007,95.83224 268.61136,96.22158L267.71136,96.25758L266.81268,96.25891L266.06403,96.61024" id="svg_16" stroke-width="3" stroke="#000" fill="none"/>
  <path t="90615,90735,90760,90807,90807,90824,90839,90855,90864,90880,90888,90896,90912,90920,90944,90984,91008,91048,91071,91103,91128,91136,91136,91144,91160,91177,91184,91200,91224,91438,91472,91488,91488,91495,91512,91536,91552,91592,91616,91632,91632,91640,91647,91655,91672,91688,91705,91728,91728,91851,91880,91888,91904,91912,91912" d="M139.01137,179.25758C138.12469,179.25758 137.18604,179.25758 136.17802,179.25758C135.42203,179.25758 134.51137,179.25758 133.61136,179.25758C132.71136,179.25758 131.72166,179.1088 131.06403,179.61024C130.38718,180.12634 130.07477,181.03236 129.30687,181.25308C128.4462,181.50046 127.51137,181.25533 126.61137,181.25758C125.71586,181.25983 125.02937,181.69301 125.01137,182.55307C124.99065,183.54269 125.01137,184.35757 125.01137,185.25758C125.01137,186.05757 125.01137,186.95758 125.01137,187.85757C125.01137,188.75758 124.93948,189.68941 124.4367,190.28291C123.89988,190.91661 123.21116,191.65588 123.07303,192.55757C122.94952,193.36382 123.95811,193.729 124.6542,194.31024C125.24522,194.80376 125.69756,195.67995 125.9542,196.55757C126.20732,197.42314 126.01137,198.35757 126.01137,199.25758C126.01137,200.05757 126.43453,201.0871 125.9542,201.90041C125.56458,202.5601 124.58881,202.94312 123.71136,203.20041C122.8459,203.45418 121.78276,203.36496 121.36853,203.96208C120.82123,204.75102 121.0322,205.73674 121.62203,206.28291L122.4007,206.69357L122.9287,207.45891L123.18069,208.14291" id="svg_17" stroke-width="3" stroke="#000" fill="none"/>
  <path t="94352,94391,94400,94408,94424,94447,94487,94487,94496,94535,94598,94598,94624,94640,94648,94663,94680,94696,94704,94728,94744,94760,94784,94792,94808,94840,94880,94896,94928,94959,94959,94998,94998,95024,95065,95095,95135,95175" d="M120.01137,244.25758C120.29536,245.17358 120.98277,245.61345 121.01137,246.55757C121.03861,247.45717 121.01137,248.35757 121.01137,249.25758C121.01137,250.05757 120.98,251.01332 121.44736,251.65758C122.01384,252.43845 122.66426,253.06508 123.61137,253.24692C124.49529,253.41663 125.41136,253.25758 126.31136,253.25758C127.21136,253.25758 128.11136,253.25758 129.01137,253.25758C129.8447,253.25758 130.8287,253.64882 131.57536,253.22157C132.26596,252.8264 132.01137,251.65758 132.01137,250.75758C132.01137,249.85757 132.01128,248.95758 132.01137,248.05757C132.01146,247.15758 132.13696,246.2249 132.62202,245.65758C133.26047,244.91087 133.72556,244.36081 134.57536,243.69357C135.23795,243.17334 135.98604,242.83224 136.5322,242.27841L137.41136,242.25758" id="svg_18" stroke-width="3" stroke="#000" fill="none"/>
 </g>
</svg>