<svg width="500" height="334.26183844011143" xmlns="http://www.w3.org/2000/svg" xmlns:svg="http://www.w3.org/2000/svg" xmlns:xlink="http://www.w3.org/1999/xlink">
 <!-- Created with SVG-edit - http://svg-edit.googlecode.com/ -->
 <g display="inline" class="layer">
  <title>Layer 1</title>
  <path t="0,112,125,141,149,170,185,189,205,205,237,294,309,324,340,356,372,383,388,420,436,485,509,533,541,605,629,637,877,893,909,921,940,949,949,956,1012,1117,1117,1173,1197,1229,1253,1261,1357,1381,1397,1410,1426,1443,1461,1473,1500,1516,1516,1529,1597,1630,1646,1661,1677,1845,1880,1886,1907,1909,1916,1916,1934,1951,1968,1984,2012,2012,2061,2088,2108,2126,2132,2143,2159,2164,2180,2192,2196,2220,2229,2260,2285,2301,2314,2333,2437,2461,2482,2509,2517,2538,2548,2557,2566,2662,2701,2725,2733,2741,2741,2754,2765,2765,2765,2783,2783,2789,2789,2789,2800,2800,2823,2823,2830,2831,2831,2933,2981,2989,3060,3076,3076,3084,3100,3229,3251,3268,3269,3290,3295,3295,3305,3309,3325,3325,3341,3341,3341,3353,3354,3354,3357,3357,3370,3371,3373,3387,3387,3391,3404,3405,3405,3413,3420,3429,3436,3444,3444,3460,3476,3541,3588,3604,3605,3637,3637,3656,3661,3693,3709,3709,3721,3739,3756,3756,3759,3765,3780,3780,3788,3788,3796,3805,3812,3822,3829,3829,3839,3845,3855,3861,3861,3872,3877,3889,3889,3894,3895,3907,3923,3924,3936,3936,3954,3964,3964,3980,3996,4004,4020,4037,4037,4044,4060,4071,4076,4087,4105,4105,4108,4108,4124,4124,4132,4132,4140,4148,4164,4164,4172,4172,4188,4206,4206,4206,4212,4212,4222,4228,4244,4244,4260,4260,4272,4276,4289,4293,4300,4317,4324,4340,4348,4356,4364,4388,4437,4437,4445,4461,4477,4494,4540,4548,4564,4576,4594,4611,4637,4645,4661,4677,4696,4711,4716,4733,4748,4758,4758,4764,4780,4792,4798,4812,4825,4836,4852,4852,4868,4876,4892,4909,4926,4926,4932,4943,4943,4948,4964,4964,4976,4980,4980,4993,4993,4996,5004,5048,5052,5052,5060,5061,5076,5084,5094,5111,5116,5116,5128,5144,5152,5160,5161,5164,5177,5180,5196,5196,5196,5204,5212,5220,5228,5236,5244,5253,5253,5261,5261,5261,5268,5278,5284,5296,5300,5316,5328,5329,5346,5356,5372,5380,5388,5412,5412,5420,5429,5452,5468,5484,5484,5496,5524,5532,5550,5557,5613,5621,5636,5652,5677,5701,5740,5740,5756,5772,5813,5837,5850,5876,5900,5908,5909,5984,5989,6036,6276,6294,6306,6309,6324,6325,6325,6325,6334,6335,6335,6340,6340,6351,6351,6351,6356,6356,6368,6368,6372,6540,6556,6557,6572,6590,6591,6604,6612,6620,6628,6644,6653,6670,6676,6687,6708,6844,6860,6875,6893,6904,6908,6924,6924,7149,7197,7210,7233,7260,7308,7364,7374,7380,7396,7409,7412,7428,7444,7661,7661,7679,7680,7698,7716,7740,7748,7760,7764,7788,7796,7811,7829,7840,7849,7852,7860,8061,8084,8100,8119,8134,8134,8151,8164,8172,8180,8196,8204,8236,8252,8266,8300,8314,8372,8388,8404,8413,8468,8480,8549,8580,8708,8709,8725,8749,8757,8788,8804,8819,8868,8893,8908,8924,8940,8956,8980,8988,9045,9108,9120,9120,9125,9148,9168,9183,9202,9204,9268,9289,9294,9333,9341,9356,9373,9396,9420,9420,9460,9500,9509,9525,9541,9573,9593,9596,9636,9656,9673,9692,9692,9709,9721,9738,9740,9756,9772,9796,9805,9836,9860,9870,9888,9905,9906,9917,9924,9940,9956,9964,9972,9980,9989,9989,9996,10006,10012,10024,10040,10057,10060,10073,10092,10108,10116,10140,10157,10164,10180,10190,10207,10212,10224,10228,10244,10257,10260,10274,10275,10276,10284,10293,10293,10309,10316,10324,10342,10360,10360,10364,10375,10391,10408,10412,10428,10442,10444,10492,10516,10557,10580,10597,10597,10614,10626,10638,10652,10660,10677,10684,10693,10700,10710,10711,10727,10745,10761,10761,10777,10778,10780,10794,10796,10804,10812,10828,10836,10836,10844,10861,10868,10878,10884,10900,10916,10916,10929,10932,10945,10948,10962,10962,10964,10980,10980,10996,11012,11051,11059,11060,11060,11061,11061,11078,11096,11100,11116,11132,11164,11180,11196,11243,11260,11260,11279,11308,11404,11420,11434,11437,11453,11453,11464,11464,11468,11469,11480,11497,11500,11500,11516,11524,11540,11577,11612,11613,11668,11695,11712,11712,11725,11742,11760,11764,11772,11794,11794,11826,11845,11845,11852,11860,11877,11878,11895,11908,11908,11926,11927,11956,11980,11988,12135,12160,12160,12180,12188,12204,12309,12335,12357,12377,12378,12405,12501,12509,12526,12537,12554,12565,12580,12591,12628,12644,12644,12653,12676,12692,12704,12721,12724,12740,12780,12788,12884,12909,12926,12927,12933,12964,12988,13068,13100,13108,13125,13244,13261,13278,13389,13412,13436,13460,13468,13492,13524,13532,13548,13564,13605,13613,13757,13854,13854,13876,13932,13957,13973,13989,14020,14036,14061,14069,14089,14100,14119,14148,14156,14172,14180,14197,14214,14220,14220,14236,14284,14309,14338,14356,14388,14388,14397,14404,14444,14484,14580,14581,14589,14612,14700,14709,14724,14743,14759,14797,14798,14828,14924,14938,14941,15004,15067,15067,15076,15077,15077,15077,15078,15078,15092,15093,15093,15093,15102,15102,15102,15108,15124,15135,15140,15140,15156,15172,15188,15196,15212,15212,15220,15228,15236,15254,15260,15276,15294,15303,15303,15319,15337,15353,15356,15372,15388,15404,15404,15420,15444,15476,15508,15676,15693,15732,15748,15762,15778,15795,15820,15828,15860,15860,15872,15892,15908,15924,15956,15980,16004,16024,16025,16052,16074,16092,16124,16180,16190,16284,16318,16318,16331,16404" d="M298.5,74.13092C296.79999,74.13092 295.89999,74.13092 295,74.13092C294.10001,74.13092 293.20001,74.13092 292.29999,74.13092C291.39999,74.13092 290.49744,74.19482 289.70001,74.13092C288.65665,74.04732 288.28476,73.19181 287.39999,73.13092C286.50214,73.06913 285.82159,72.84569 285.216,72.21492C284.66602,71.64204 284.07394,71.05334 283.47467,70.55625C282.85971,70.04615 282.02609,69.92763 281.33334,69.29758C280.73346,68.75201 280.11313,68.22508 279.52533,67.70559C278.9425,67.19048 278,67.12866 277.10001,67.13092C276.2045,67.13317 275.51801,67.56635 275.5,68.43092C275.48126,69.33072 275.5,70.23092 275.5,71.13092C275.5,71.93092 275.83102,72.5824 276.33334,73.29758C276.82181,73.99302 276.5,74.93092 276.5,75.83092C276.5,76.73092 276.8667,77.71063 276.47916,78.61008C276.17136,79.32443 275.45602,79.98517 274.69867,80.12959C273.81589,80.29792 272.89999,80.13092 272,80.13092C271.10001,80.13092 270.20001,80.13092 269.29999,80.13092C268.39999,80.13092 267.5,80.13092 266.70001,80.13092C265.79999,80.13092 264.89999,80.13092 264,80.13092C263.10001,80.13092 262.16092,80.18973 261.52533,79.70559C260.85788,79.1972 261.60684,79.02016 262.5,79.13092C263.39923,79.24244 263.86163,79.8922 264.59982,80.35242C265.31699,80.79952 265.56165,81.75887 266.30133,82.21492C266.98776,82.63812 267.33093,83.48353 267.784,84.33092C268.1326,84.98293 268.49774,85.83091 268.5,86.73092C268.50223,87.63092 268.74289,88.56576 268.49551,89.42642C268.27481,90.19432 267.82901,90.81454 267.47916,91.61008C267.16602,92.32211 266.40131,92.81963 265.69867,93.21492C264.88171,93.67452 263.987,93.99294 263.5,94.65176C262.99292,95.33773 262.27222,95.80421 261.62134,96.35226C260.95908,96.90988 260.01791,96.80389 259.55716,97.48809C259.02954,98.27157 259.16931,99.58318 259.78534,100.04559C260.51907,100.59634 261.23917,100.7386 261.936,101.09492C262.78583,101.52946 263.48956,101.65157 263.5,102.53092C263.51068,103.43086 263.68884,104.39542 263.33334,105.13092C262.9686,105.88554 261.93161,106.07181 261.1785,106.57375C260.42352,107.07693 259.91537,107.67114 259.10132,108.24692C258.35077,108.77779 257.66501,109.29623 257.12534,109.94559C256.61444,110.5603 255.78969,110.88548 254.98399,111.29892C254.17183,111.71568 253.78337,112.56713 253.17867,113.33059C252.70206,113.93233 251.94717,114.50415 251.14667,115.06959C250.50339,115.52396 250.5,116.53092 250.5,117.33225C250.5,118.29758 250.28212,119.22509 250.784,119.96159C251.25893,120.65852 251.5,121.43092 251.5,122.33092C251.5,123.23092 251.8768,124.31091 251.33333,124.96426C250.75937,125.65427 249.75583,125.67799 249.52083,126.63092C249.3051,127.5057 249.06108,128.23694 248.45833,128.65175C247.50633,129.3069 246.87744,129.7616 246.336,130.34158C245.62978,131.09808 245.27582,131.73804 244.8045,132.47375C244.21832,133.38878 243.64104,133.9729 242.84734,134.42642C242.17299,134.81174 241.06813,134.96307 240.3,135.41626C239.61842,135.81839 239.16046,136.62622 238.3,137.04692C237.44629,137.46432 237.06833,137.96512 236.47467,138.69492C235.94667,139.34399 235.0369,139.70447 234.2,140.07825C233.42798,140.42305 233.06847,141.11302 232.44733,141.77376C231.87956,142.3777 231.11284,142.4454 230.33333,142.96425C229.62587,143.43512 228.74974,143.41286 228.33333,144.13092C227.91286,144.85597 226.96793,145.06564 226.2,145.48358C225.35904,145.94127 224.52588,146.33852 223.89999,146.70558C223.12846,147.15807 222.19312,147.48067 221.5,148.13092C220.99493,148.60475 220.19145,148.99542 219.3,149.13225C218.38406,149.27283 217.76302,149.84671 216.85184,150.07825C216.08195,150.27388 215.62439,150.97195 214.97917,151.61009C214.3345,152.24768 213.24271,151.96721 212.39999,152.35225C211.7307,152.65805 210.87999,152.96042 210,153.15175C209.15367,153.33575 208.36676,153.91896 207.7,154.21492C206.84222,154.59567 206.08929,155.09389 205.17867,155.13109C204.32529,155.16594 203.35318,155.37498 202.8045,155.83542C202.0519,156.467 201.30302,157.08821 200.39999,157.13092C199.50101,157.17345 198.7,157.13092 197.864,157.13092C196.84734,157.13092 196.15266,157.13092 195.136,157.13092C194.2,157.13092 193.3,157.13092 192.39999,157.13092C191.5,157.13092 190.7,157.13092 189.8,157.13092C188.89999,157.13092 188,157.13092 187.10001,157.13092C186.1955,157.13092 185.33333,157.13092 184.5,157.13092C183.52133,157.13092 182.74733,157.13092 181.84283,157.13092C181.0955,157.13092 180.10133,157.1333 179.15717,157.13092C178.26166,157.12866 177.63316,156.51068 176.92934,156.21625C176.15236,155.8912 175.10133,156.13145 174.336,156.13092C173.384,156.13025 172.33408,155.9623 171.664,155.70558C170.89952,155.41269 169.89186,155.25096 169.15717,155.07825C168.23367,154.86115 167.40318,154.22589 166.5,154.13092C165.74484,154.05151 164.85889,153.74937 164.15266,153.48358C163.27011,153.15143 162.28741,153.28072 161.40016,153.13075C160.54814,152.98676 160.15587,152.17345 159.5,151.63092C158.89702,151.13214 158.11829,151.00438 157.44733,150.48358C156.86357,150.03047 155.83246,150.20824 155.10001,149.69492C154.30998,149.14125 153.68198,148.68552 152.936,148.10559C152.31151,147.6201 151.56219,147.53363 150.78534,147.04559C150.04529,146.58067 149.64874,145.79413 149.07466,145.15625C148.5538,144.57753 147.88937,144.13626 147,144.13092C146.10002,144.12552 145.16614,144.1828 144.52533,143.70558C143.84355,143.19786 143,143.13092 142.10001,143.13092C141.2,143.13092 140.3,143.13092 139.39999,143.13092C138.5,143.13092 137.7,143.13092 136.8,143.13092C135.89999,143.13092 135,143.13092 134.10001,143.13092C133.2,143.13092 132.3,143.13092 131.39999,143.13092C130.5,143.13092 129.7,143.13092 128.8,143.13092C127.9,143.13092 127,143.13092 126.08933,143.13092C125.17867,143.13092 124.5,143.13092 123.38533,143.13092C122.5,143.13092 121.7,143.13092 120.864,143.13092C119.84734,143.13092 119.14597,143.02403 118.12534,143.14159C117.16188,143.25255 116.53391,143.73421 115.5215,144.00941C114.82045,144.19998 113.89999,144.12566 113,144.13092C112.08929,144.13626 111.18149,144.35924 110.5,144.63092C109.52544,145.01944 108.70133,145.13025 107.8,145.13092C106.9,145.13158 105.96523,145.07796 105.2,145.48358C104.35406,145.93199 103.72047,146.24997 102.9,146.70558C102.11804,147.13982 101.39279,147.58386 100.5,147.96425C99.74846,148.28445 98.7729,147.94479 97.9,148.16692C97.02393,148.38985 96.35083,149.16217 95.67467,149.52025C94.99998,149.87755 93.98668,150.06017 93.2,150.48358C92.35705,150.93727 91.89102,151.63815 91.14283,152.07376C90.41271,152.49886 89.41579,152.37723 88.828,152.74159C87.97923,153.26773 87.20391,153.42242 86.35333,153.93092C85.53059,154.42278 85.06451,155.11292 84.1,155.13092C83.20016,155.14772 82.12457,154.86578 81.584,155.41626C80.97449,156.03694 80.67493,156.78816 79.8,157.18359C79.07736,157.51021 78.28316,157.93787 77.40017,158.13109C76.5556,158.3159 76.39697,159.36957 75.69867,159.84558C74.94936,160.35637 74.42944,160.89456 73.5,161.13092C72.67638,161.34036 72.4454,162.24103 71.88934,162.69492C71.1365,163.30942 70.30701,163.53455 69.784,164.21492C69.3141,164.8262 69.12937,165.55992 68.6215,166.35242C68.14305,167.099 67.99218,167.73956 67.55717,168.48808C67.13269,169.21846 67.5,170.23093 67.5,171.13092C67.5,171.93092 67.5,172.83092 67.5,173.73093C67.5,174.63092 67.5,175.53091 67.5,176.43092C67.5,177.33092 67.5,178.23093 67.5,179.13092C67.5,179.93092 67.91122,180.95349 67.44283,181.77376C66.9785,182.58693 66.13881,183.00963 66.209,183.13092C66.65526,183.90211 68,183.13092 68.92133,183.13092C69.83334,183.13092 70.51183,183.15874 71.28533,183.09492C72.33788,183.00809 73.25595,182.6812 73.8955,182.48358C74.88896,182.17661 75.71534,182.17203 76.70016,181.90959C77.53764,181.68642 78.17712,181.36842 79.18266,181.21492C79.97441,181.09406 81.18616,181.0094 81.828,180.70558C82.73177,180.27777 83.84743,179.74146 84.3785,180.35242C84.96021,181.02162 84.1558,181.9214 83.4,182.35242C82.7309,182.73399 82.1341,183.57306 81.40017,184.00958C80.61746,184.47511 80.89434,185.51332 80.21467,186.04559C79.49236,186.61125 78.59416,186.51779 78.07467,187.10559C77.55956,187.68842 77.49796,188.53091 77.5,189.43092C77.50225,190.42644 77.85587,191.10233 78.8,191.13092C79.69958,191.15816 80.6,191.13092 81.5,191.13092C82.3,191.13092 83.31339,190.73752 84.064,191.16692C84.75465,191.56201 84.5,192.73093 84.5,193.63092C84.5,194.53091 84.2468,195.69733 84.936,196.09492C85.76276,196.57188 86.37392,196.85651 87.11066,197.12025C87.94803,197.42001 88.9,197.13092 89.8045,197.13092C90.66666,197.13092 91.5,197.13092 92.4785,197.13092C93.29867,197.13092 94.2,197.13092 95.1,197.13092C96,197.13092 96.89703,197.1297 97.5,196.63092C98.15585,196.08839 98.66666,195.29759 99.5,195.13092C100.33334,194.96425 100.78199,194.17365 101.6,194.13092C102.49877,194.08398 103.31773,193.89883 103.50017,193.03108C103.66668,192.23911 104.4714,192.48663 104.5,193.33092C104.53047,194.23041 104.67355,195.16917 104.41467,195.93092C104.1129,196.81883 103.51868,197.5304 103.5,198.43092C103.48137,199.32939 103.09998,199.8484 102.2045,200.13542C101.44364,200.37929 100.77441,201.00484 100.51067,201.74159C100.21091,202.57895 100.6812,203.77048 99.97916,204.11009C99.11566,204.52782 98.30701,204.53455 97.784,205.21492C97.3141,205.8262 97.42838,206.89397 96.5,207.13092C95.67656,207.34109 95.4628,208.13179 95.5,208.93092C95.54272,209.84856 96.43176,209.73798 97.21467,210.21625C98.01791,210.70695 98.72491,210.87465 99.37867,211.35225C100.07775,211.86296 100.7,212.13092 101.6,212.13092C102.5,212.13092 103.24658,212.44855 103.784,213.04692C104.35742,213.68539 105.05078,214.07111 105.8,214.48358C106.63865,214.94528 107.50046,215.10384 108.3,215.13092C109.14428,215.15952 109.03459,216.11185 109.58533,216.84558C110.04774,217.46161 111.32257,216.7197 112.14283,217.18808C112.95599,217.6524 113.6379,217.80913 114.33334,218.29759C115.04851,218.79991 115.7178,218.90578 116.416,219.41492C117.11454,219.9243 117.60721,220.58386 118.5,220.96425C119.25154,221.28445 120.20006,221.12025 121.1,221.13092C121.97935,221.14134 122.43661,221.9057 123.2045,222.12642C124.06516,222.37379 125,222.13092 125.9,222.13092C126.8,222.13092 127.7,222.13092 128.60001,222.13092C129.5,222.13092 130.3,222.13092 131.2,222.13092C132.10001,222.13092 132.86845,222.27501 133.55267,222.77826C134.21887,223.26825 135.2,223.13092 136.10001,223.13092C137,223.13092 137.89999,223.13092 138.8,223.13092C139.7,223.13092 140.60001,223.13092 141.5,223.13092C142.3,223.13092 143.2,223.13092 144.10001,223.13092C145,223.13092 145.89999,223.13092 146.8,223.13092C147.7,223.13092 148.60001,223.13092 149.5,223.13092C150.3,223.13092 151.29263,223.48582 152.064,223.09492C152.76212,222.74113 153.33583,222.32719 154.2,222.07376C155.07744,221.81644 155.84097,221.24242 156.47467,220.70558C157.06816,220.2028 157.86992,220.09758 158.52533,219.55626C159.13017,219.0567 159.78525,218.45251 160.416,217.84692C160.98886,217.29692 161.5538,216.68431 162.07466,216.10559C162.64874,215.46771 163.50215,215.62354 164.21466,215.04559C164.95879,214.442 164.84282,213.51808 165.37866,212.90942C166.0018,212.2016 166.26427,211.48477 166.88933,210.73093C167.43448,210.07344 167.7117,209.15918 168.07466,208.53091C168.56323,207.68524 169.23117,207.27954 169.88933,206.69492C170.5831,206.07867 170.73032,205.17061 171.14734,204.43092C171.56738,203.6859 171.88788,202.8197 172.66667,202.29759C173.37256,201.82436 174.17841,201.84567 174.784,201.21492C175.334,200.64206 176.02065,200.14134 176.89999,200.13092C177.79994,200.12025 178.7,200.13092 179.60001,200.13092C180.5,200.13092 181.3,200.13092 182.2,200.13092C183.10001,200.13092 184,200.12866 184.89999,200.13092C185.79552,200.13318 186.30685,200.80145 187.02083,201.11009C187.82805,201.45905 188.87552,200.959 189.7,201.41626C190.39206,201.80006 190.79616,202.73126 191.70134,203.04559C192.61681,203.36349 193.5341,203.0202 194.33333,203.29759C195.14491,203.57927 195.94717,203.84572 196.7955,204.13542C197.61058,204.41377 197.94659,205.29514 198.60983,205.77826C199.26898,206.25841 200.36621,205.94539 201.1955,206.18808C202.07686,206.44601 202.81984,206.93556 203.69867,207.13225C204.45107,207.30064 204.974,208.02467 205.7,208.41492C206.55478,208.87439 207.3002,209.11227 208.2,209.13092C209.10052,209.14958 209.84573,209.65834 210.7,210.04692C211.46312,210.39404 212.05234,210.79398 212.8,211.42642C213.55577,212.06572 214.3002,212.11227 215.2,212.13092C216.10052,212.14958 216.88423,212.6319 217.83333,213.13092C218.48309,213.47256 219.24049,213.7271 220.16667,213.96425C221.03543,214.18671 221.49429,214.94902 222.30133,215.12959C223.17831,215.32582 224.10001,215.13092 225,215.13092C225.89999,215.13092 226.8,215.13092 227.7,215.13092C228.60001,215.13092 229.5,215.13092 230.3,215.13092C231.2,215.13092 232.5182,215.87119 233.028,215.09492C233.38792,214.54688 231.96791,214.19621 231.2,213.77826C230.35886,213.32043 229.58833,212.99745 228.84734,212.42558C228.30482,212.0069 227.54054,211.29533 226.70134,211.13359C225.79776,210.95943 225.22656,210.36565 224.5,209.96425C223.72733,209.53737 223.25801,208.74614 222.40016,208.25226C221.66284,207.82777 221.5,207.03091 221.5,206.13092C221.5,205.33092 221.54378,204.28012 222.26167,204.13542C223.30437,203.92525 224.01601,204.13092 224.97917,204.13092C225.89999,204.13092 226.8,204.13092 227.7,204.13092C228.60001,204.13092 229.54251,204.31667 230.3,204.04559C231.20111,203.72313 231.83464,203.01349 232.21466,202.24559C232.6427,201.38069 232.69994,200.51591 233.5,199.96425C234.09093,199.55678 234.41821,198.70306 234.72133,197.80959C234.95703,197.11482 235.43782,196.15894 235.49867,195.33226C235.56485,194.43335 235.48921,193.53085 235.5,192.63092C235.51067,191.74139 236.0663,191.17763 236.85184,191.13542C237.86255,191.0811 238.8,191.13101 239.7,191.13092C240.59984,191.13083 241.45728,190.84892 241.5,190.03091C241.54694,189.13214 241.5,188.33092 241.5,187.43092C241.5,186.53091 241.44185,185.36226 242.2045,185.13542C243.06285,184.88011 244,185.13092 244.89999,185.13092C245.8,185.13092 246.7,185.13092 247.60001,185.13092C248.5,185.13092 249.3,185.13092 250.2,185.13092C251.10001,185.13092 252.05197,185.42001 252.88933,185.12025C253.62608,184.85651 254.11063,184.13626 255,184.13092C255.89998,184.12552 256.79999,184.13092 257.70001,184.13092C258.60001,184.13092 259.5,184.13092 260.29999,184.13092C261.20001,184.13092 262.10001,184.13092 263,184.13092C263.89999,184.13092 264.82169,183.93602 265.69867,184.13225C266.50571,184.31282 267.07474,184.83878 267.88934,185.14159C268.62283,185.41425 269.13046,185.96249 270,186.15175C270.84628,186.33594 271.60431,186.98103 272.5,187.13092C273.3382,187.27118 273.78235,188.08821 274.70001,188.13092C275.59903,188.17276 276.6489,187.79384 277.33334,188.29759C277.98633,188.77818 278.60001,189.13092 279.5,189.13092C280.29999,189.13092 281.20007,189.14159 282.10001,189.13092C282.97934,189.1205 283.68564,188.638 284.216,188.04692C284.75443,187.44685 285.19855,186.70975 285.97916,186.13092C286.616,185.65871 287.28073,185.12735 287.49866,184.32959C287.74045,183.4446 288.43912,182.9157 288.5,182.03091C288.5618,181.13304 288.91763,180.57651 289.37851,179.90942C289.88263,179.17975 289.72058,178.16425 290.07468,177.53091C290.55618,176.66966 290.5,175.73093 290.5,174.83092C290.5,173.93092 290.5,173.03091 290.5,172.13092C290.5,171.33092 290.86316,170.33403 290.46399,169.56693C290.06885,168.80754 289.3457,168.21466 288.5,168.13092C287.70392,168.05209 286.79999,168.13092 285.89999,168.13092C285,168.13092 284.10001,168.13092 283.20001,168.13092C282.29999,168.13092 281.39999,168.13092 280.5,168.13092C279.70001,168.13092 278.64063,168.60135 277.85718,168.07376C277.17297,167.61301 277.16898,166.67944 276.66666,165.96425C276.17822,165.26881 276.47659,164.34929 276.33334,163.29759C276.22546,162.50558 276.07288,161.57251 276,161.06842C275.84891,160.02328 275.76141,159.49716 275.62149,157.97426C275.57837,157.50485 275.52649,156.6245 275.51068,155.82425C275.48383,154.46448 275.5,153.64975 275.5,152.79709C275.5,151.88809 275.41788,150.92715 275.50015,150.03091C275.58383,149.11948 276.24695,148.59373 276.46399,147.73093C276.68375,146.85741 276.5,145.93092 276.5,145.03091C276.5,144.13092 276.5,143.33092 276.5,142.43092C276.5,141.53091 276.5,140.63092 276.5,139.73093C276.5,138.83092 276.5,137.93092 276.5,137.03091C276.5,136.13092 276.5,135.33092 276.5,134.43092C276.5,133.53091 276.5,132.63092 276.5,131.73093C276.5,130.83092 276.33725,129.87405 276.72134,129.03091C277.07669,128.2509 277.49466,127.53097 277.5,126.63092C277.50534,125.73093 277.69489,124.80923 277.49866,123.93225C277.31808,123.12521 276.4462,122.68432 275.92532,122.10559C275.35123,121.46772 274.56824,121.52386 273.78534,121.04559C272.98209,120.55488 272.39999,120.13092 271.5,120.13092C270.70001,120.13092 270.04852,119.7999 269.33334,119.29758C268.63791,118.80912 267.89282,118.64776 267.21466,118.21626C266.43961,117.7231 265.39999,118.13092 264.5,118.13092C263.70001,118.13092 262.79999,118.13092 261.89999,118.13092C261,118.13092 260.10001,118.13092 259.20001,118.13092C258.29999,118.13092 257.39999,118.13092 256.5,118.13092L255.7,118.13092L254.8,118.13092L253.89999,118.13092" id="svg_1" stroke-width="3" stroke="#000" fill="none"/>
  <path t="20415,20550,20574,20597,20693,20726,20738,20741,20789,20802,20820,20839,20855,20872,20892,20924,20940,20956,20972,20990,21008,21013,21057,21084,21092,21102,21140,21156,21188,21188,21220,21240,21257,21263,21276,21308,21321,21340,21372,21413,21437,21445,21469,21469,21517,21549,21561,21561,21579,21612,21628,21636,21655,21660,21684,21692,21708,21731,21782,21795,21796,21820,21892,21964,21980,21980,22004,22036,22062,22062,22116,22143,22164,22188,22213,22252,22278,22284,22311,22316,22325,22341,22363,22375,22392,22396,22413,22428,22444,22460,22460,22468,22483,22556,22644,22652,22740,22764,22764,22772,22820,22876,22898,22916,22980,23004,23068,23069,23100,23132,23164,23181,23252,23284,23303,23308,23308,23348,23380,23388,23676,23716,23724,23748,23756,23780,23844,23868,23932,24012,24036,24076,24076,24092,24108,24141,24164,24174,24220,24244,24260,24260,24276,24348,24476,24524,24580,24604,24612,24629,24652,24732,24948,24960,24988,25012,25064,25067,25068,25075,25076,25084,25091,25100,25108,25116,25156,25156,25173,25356,25436,25468,25484,25484,25497,25532,25564,25764,25788,25798,25836,25860,25884,25899,25921,25921,25940,25990,26020,26060,26108,26132,26204,26245,26245,26252,26300,26348,26368,26372,26385,26406,26428,26436,26444,26476,26492,26508,26540,26556,26556,26572,26587,26603,26692,26732,26754,26756,26836,26860,26900,26908,26921,26996,27058,27065,27065,27065,27084,27102,27120,27139,27140,27148,27172,27188,27204,27212,27244,27276,27288,27288,27293,27380,27493,27589,27597,27668,27876" d="M274.5,75.13092C275.07468,76.73092 275.48199,77.53038 275.5,78.43092C275.51801,79.33073 275.27747,80.34682 275.784,81.04692C276.28577,81.74047 276.42694,82.48109 276.92532,83.10559C277.41052,83.71355 277.58948,84.54829 278.07468,85.15625C278.57306,85.78075 278.15695,86.80949 278.52084,87.61008C278.87231,88.38331 279.6095,88.80099 280.30133,89.21492C281.09668,89.6908 281.48938,90.50668 282.07468,91.15625C282.62393,91.76583 283.5914,91.68961 284.25699,92.35242C284.90277,92.99551 284.71524,94.07003 285.60001,94.13092C286.49786,94.19271 287.29999,94.13092 288.20001,94.13092C289.10001,94.13092 290,94.13092 290.89999,94.13092C291.79999,94.13092 292.79788,93.97159 293.44733,94.48359C294.06195,94.96813 294.89999,95.13025 295.79999,95.13092C296.69867,95.13159 297.26126,95.49255 297.7215,96.23075C298.16861,96.94791 298.88474,97.44231 299.66666,97.96426C300.3735,98.43608 301.43039,97.73788 302.21466,98.21626C303.01828,98.70645 303.35123,99.46772 303.92532,100.10559C304.4462,100.68432 305.23093,100.98254 305.88934,101.56692C306.58252,102.18215 306.86984,103.0567 307.47467,103.55625C308.13007,104.09756 308.93741,104.19627 309.52533,104.70559C310.17395,105.26749 310.71524,106.07003 311.60001,106.13092C312.49786,106.19271 313.41074,105.76656 314.14282,106.18809C314.95432,106.65533 315.5,107.13092 316.29999,107.13092C317.20001,107.13092 318.10001,107.13092 319,107.13092C319.89999,107.13092 320.79999,107.131 321.70001,107.13092C322.59982,107.13084 323.16931,106.58251 323.85718,106.18809C324.67657,105.71824 325.80066,106.31146 326.41599,105.84692C327.09921,105.33114 328.06702,105.38448 328.46399,104.69492C328.89328,103.9492 329.03488,103.27993 329.89999,103.12025C330.73138,102.9668 331.53091,102.37894 332.20001,102.07825C333.02911,101.70566 333.2056,100.55708 333.936,100.16692C334.69873,99.7595 335.70001,100.13092 336.60001,100.13092C337.5,100.13092 338.29999,100.13092 339.20001,100.13092C340.10001,100.13092 341,100.13092 341.89999,100.13092C342.79999,100.13092 343.70001,100.13092 344.60001,100.13092C345.5,100.13092 346.29999,100.13092 347.20001,100.13092C348.10001,100.13092 349,100.13092 349.89999,100.13092C350.79999,100.13092 351.70001,100.13092 352.60001,100.13092C353.5,100.13092 354.29999,100.13092 355.20001,100.13092C356.10001,100.13092 357.35693,100.52013 357.87866,99.70559C358.18286,99.23066 357.08264,99.04144 356.47467,98.55625C355.85019,98.05788 355.05167,97.88888 354.41599,97.41492C353.64716,96.84167 352.95242,96.68478 352.21466,96.21626C351.52319,95.77713 350.5,96.13092 349.70001,96.13092C348.79999,96.13092 347.89999,96.13092 347,96.13092C346.10001,96.13092 345.20001,96.13092 344.29999,96.13092C343.39999,96.13092 342.5,96.13092 341.70001,96.13092C340.79999,96.13092 339.89999,96.13092 339,96.13092C338.10001,96.13092 337.17148,96.17033 336.5,95.63092C335.89301,95.1433 335.50226,94.42643 335.5,93.53092C335.49774,92.63092 335.31549,91.48441 336.02084,91.15176C336.81622,90.77663 337.80328,91.2066 338.70132,91.12959C339.67712,91.0459 340.302,90.64234 341.33334,90.29758C342.04007,90.06134 342.54398,89.27667 343.30133,89.13226C344.18411,88.96392 344.94833,88.88888 345.58401,88.41492C346.35284,87.84167 347.4364,88.53366 348.21466,88.04559C348.95508,87.58125 349.45728,86.84893 349.5,86.03092C349.54694,85.13215 349.5,84.33092 349.5,83.43092C349.5,82.53092 349.89584,81.53807 349.47916,80.65176C349.14737,79.94602 348,80.13092 347.10001,80.13092C346.20001,80.13092 345.29999,80.13092 344.39999,80.13092C343.5,80.13092 342.70001,80.13092 341.79999,80.13092C340.89999,80.13092 340,80.13092 339.10001,80.13092C338.20001,80.13092 337.29999,80.13092 336.39999,80.13092C335.5,80.13092 334.70001,80.13092 333.79999,80.13092C332.89999,80.13092 331.94803,80.42002 331.11066,80.12025C330.3739,79.85651 329.8894,79.13625 329,79.13092C328.10004,79.12553 327.17761,79.32899 326.30133,79.12959C325.49704,78.94656 325.75363,77.5638 325.064,77.16692C324.31433,76.7355 323.46875,76.79401 322.70001,76.41492C321.85477,75.99809 320.74731,76.18414 320.50449,75.42642C320.24188,74.60702 319.79532,74.14989 318.89999,74.13092C317.93555,74.11049 317.89328,73.31264 317.46399,72.56692C317.06702,71.87737 316.09921,71.9307 315.41599,71.41492C314.80066,70.95038 313.828,71.13092 312.73199,71.13092C312,71.13092 311.26801,71.13092 310.172,71.13092C309.29999,71.13092 308.39999,71.13092 307.5,71.13092C306.70001,71.13092 305.79999,71.13092 304.89999,71.13092C304,71.13092 303.10001,71.13092 302.20001,71.13092C301.29999,71.13092 300.39999,71.13092 299.5,71.13092C298.70001,71.13092 297.94092,71.34063 297.27866,72.00959C296.66867,72.62574 296.064,73.09492 295.2045,73.13542L294.5,73.63092L293.88934,74.12025" id="svg_2" stroke-width="3" stroke="#000" fill="none"/>
  <path t="28470,28684,28702,28708,28740,28796,29056,29067,29091,29099,29107,29131,29148,29163,29188,29198,29476,29508,29564,29572,29588,29684,29740" d="M315.5,79.13092C313.79999,79.13092 312.89999,79.13092 312,79.13092C311.10001,79.13092 310.15936,78.85379 309.2045,79.13542C308.45547,79.35635 309.08255,79.81853 309.88934,80.14159C310.67847,80.45757 311.30179,80.76767 312.064,81.16692C312.82233,81.56413 313.43176,81.73796 314.21466,82.21626C315.0177,82.70686 315.47134,82.7752 315.5,81.93092C315.53055,81.03161 315.784,80.21492 316.44284,79.77375L316.49551,78.83542" id="svg_3" stroke-width="3" stroke="#000" fill="none"/>
  <path t="31765,31996,32017,32034,32052,32052,32060,32084,32100,32108,32140,32220,32234,32412,32452,32484,32504,32532,32554,32554,32932,32940,32955,33012,33067,33132,33132,33164,33236,33268,33276,33373,33476,33485,33524" d="M334.5,79.13092C336.29999,79.13092 336.88715,78.81642 337.66666,78.29758C338.37411,77.82671 339.43036,78.52387 340.21466,78.04559C341.01828,77.55551 341.72491,77.38718 342.37866,76.90958C343.07773,76.39887 343.79788,76.29025 344.44733,75.77825C345.06195,75.29371 345.89999,75.13092 346.79999,75.13092C347.70001,75.13092 348.60001,75.13092 349.5,75.13092C350.29999,75.13092 351.20007,75.12025 352.10001,75.13092C352.97934,75.14134 353.49466,75.74154 353.5,76.65176C353.5047,77.45224 353.6882,78.32492 353.49866,79.24426C353.31641,80.12826 352.01962,79.80506 351.55716,80.48809C351.02994,81.26675 351.064,82.09492 350.20001,82.13092L349.29999,82.13092" id="svg_4" stroke-width="3" stroke="#000" fill="none"/>
  <path t="35253,35388,35436,35444,35460,35492,35524,35539,35577,35624,35644,35660,35684,35703,35718,35736,35740,35763,35779,35788,35804,35827,35837,35859,35883,35883,35892,35892,35907,35923,35931,35939,35955,35979,35995,36004,36021,36038,36055,36075,36088,36088,36105,36147,36187,36197,36219,36244,36257,36257,36315,36339,36360,36364,36375,36403,36427,36443,36457,36476,36499,36531,36531,36541,36571,36591,36595,36611,36624,36636,36643,36659,36667,36683,36699,36723,36723,36763,36777,36796,36820,36830,36851,36867,36979,37276,37296,37315,37316,37348,37412,37420,37435,37436,37460,37484,37497,37540,37732,37804,37820,37833,37853,37869,37888,37888,37892,37904,37920,37940,37980,37988,38000,38036,38044,38052,38068,38093,38107,38120,38136,38156,38172,38187,38187,38197,38212,38222,38244,38244,38260,38283,38293,38302,38316,38334,38351,38371,38371,38395,38427,38435,38492,38540,38588,38611,38643,38643,38675,38691,38703,38722,38740,38756,38764,38772,38789,38807,38860,38972,38996,39060,39070,39099,39107" d="M348.5,84.13092C349.5,83.13092 350.17841,82.84569 350.784,82.21492C351.33398,81.64204 352.07474,81.42307 352.88934,81.12025C353.62283,80.8476 354.21417,80.52946 355.064,80.09492C355.76083,79.7386 356.30154,79.1503 357.20001,79.13092C358.06454,79.11227 358.08731,78.30266 358.55716,77.48809C358.95334,76.80125 359.73206,76.31314 360.59982,76.13075C361.39215,75.96422 361.89169,75.23048 362.47467,74.70559C363.06384,74.17511 363.90878,73.70413 364.5,73.13092C365.10922,72.54027 365.80377,71.83468 366.29999,71.33092C366.98444,70.63607 367.38849,69.78995 367.92532,69.15625C368.4281,68.56274 368.58948,67.71355 369.07468,67.10559C369.57306,66.48109 369.66199,65.61418 370.216,65.04692C370.87399,64.37319 371.34851,63.83689 371.50134,62.93092C371.65546,62.01733 372.30984,61.47683 372.48932,60.53092C372.6571,59.64663 372.5,58.73092 372.5,57.83092C372.5,56.93092 372.5,56.03092 372.5,55.13092C372.5,54.33092 372.51041,53.43086 372.5,52.53092C372.48956,51.63074 372.20996,50.7379 371.40018,50.25225C370.6705,49.81467 370.58868,49.02654 370.5,48.13092C370.41626,47.28522 369.56088,46.91569 369.5,46.03092C369.4382,45.13305 369.89297,44.20056 369.41467,43.41625C368.92459,42.61261 368.58868,42.02654 368.5,41.13092C368.41626,40.28522 367.70731,39.89319 367.49985,39.03109C367.29767,38.19096 366.52859,37.77505 366.5,36.83092C366.47275,35.93133 366.5,35.03092 366.5,34.13092C366.5,33.33092 366.86316,32.33403 366.46399,31.56692C366.06885,30.80755 365.52786,30.32916 365.5,29.43092C365.4707,28.48681 364.94055,27.92215 364.27866,27.25225C363.66928,26.63551 363.06454,26.14892 362.20001,26.13092C361.30017,26.11218 360.39313,26.24176 359.5,26.13092C358.60074,26.01932 358.46927,24.98664 357.7955,24.48809C357.10123,23.97435 356.08264,24.04144 355.47467,23.55625C354.85019,23.05788 353.89999,23.13092 353,23.13092C352.10001,23.13092 351.20001,23.13084 350.29999,23.13092C349.39999,23.131 348.52826,23.34261 347.89999,23.70559C347.05435,24.19415 346.49792,24.74049 345.7955,25.18359C345.02359,25.67051 344.15903,26.01943 343.52533,26.55625C342.93182,27.05903 341.86044,26.94975 341.52084,27.65175C341.10312,28.51526 341.0206,29.2428 340.44733,29.77825C339.76208,30.41827 338.9516,30.80025 338.55716,31.48809C338.08728,32.30749 338.65353,33.37938 338.33334,34.13092C338.00052,34.91212 337.66742,35.64816 337.48932,36.53092C337.29892,37.47469 336.62271,38.12309 336.50134,38.93092C336.36484,39.83949 335.56088,40.34615 335.5,41.23092C335.4382,42.1288 335.08231,42.6853 334.62149,43.35242C334.11743,44.08212 334.5,45.13092 334.5,45.93092C334.5,46.83092 334.5,47.73092 334.5,48.63092C334.5,49.53092 334.5,50.43092 334.5,51.33092C334.5,52.23092 334.5,53.13092 334.5,53.93092C334.5,54.83092 334.15695,55.80949 334.52084,56.61009C334.87231,57.38331 335.48062,57.93246 335.5,58.83092C335.51865,59.69547 336.31915,60.18243 336.49866,60.93225C336.71225,61.82448 337.43912,62.34615 337.5,63.23092C337.5618,64.1288 337.66666,64.96426 338.5,65.13092L339.33334,65.29758L339.5,66.13092" id="svg_5" stroke-width="3" stroke="#000" fill="none"/>
  <path t="39846,40076,40076,40148,40164,40166,40196,40216,40236,40252,40266,40293,40314,40330,40348,40372,40388,40420,40431,40451,40451,40483,40500,40509,40532,40551,40572,40588,40601,40601,40621,40652,40676,40716,40804,40876,40885,40908,40908,40932,40940,40956,40972,40987,41003,41003,41016,41016,41051,41059,41059,41059,41059,41060,41067,41075,41075,41083,41091,41099,41107,41116,41123,41134,41155,41171,41196,41196,41276,41397,41444,41476,41490,41505,41508,41539,41547,41571,41579,41587,41603,41635,41643,41675,41687,41702,41720,41720,41723,41755,41763,41779,41787,41805,41821,41843,41843,41859,41877,41891,41899,41899,41915,41940,41956,41971,41980,41995,42011,42027,42043,42043,42056,42056,42060,42075,42083,42099,42107,42115,42123,42140,42147,42157,42157,42163,42179,42190,42227,42239,42255,42299,42380,42395,42451,42451,42467,42483,42499,42512,42516,42529,42546,42563,42579,42595,42627,42651,42651,42675,42715,42739,42759,42760,42775,42787,42803,42811,42827,42835,42851,42875,42883,42907,42932,42947,42948,42956,42972,42987,42999,43058,43076,43076,43099,43099,43139,43164,43172,43188,43228,43248,43252,43276,43276,43299,43331,43332,43355,43371,43379,43403,43427,43427,43435,43457,43467,43495,43501,43502,43515,43531,43539,43547,43571,43580,43597,43613,43619,43631,43700,43764,43773,43804,43852,43916,43924,43924,43948,43956,44004,44019,44035,44075,44132,44142,44155,44169,44195,44211,44236,44291,44308,44388,44436,44724" d="M335.5,78.13092C334.5,77.13092 334.96558,76.15138 334.41467,75.41625C333.95276,74.79985 332.64648,75.08605 332.50134,74.32959C332.33203,73.44702 332.5,72.53092 332.5,71.63092C332.5,70.73092 332.50009,69.83092 332.5,68.93092C332.49991,68.03109 331.93115,67.45429 331.53601,66.69492C331.13684,65.92781 331.5,64.93092 331.5,64.03092C331.5,63.13092 331.5,62.33092 331.5,61.43092C331.5,60.53092 331.5,59.63092 331.5,58.73092C331.5,57.83092 331.58212,56.92715 331.49985,56.03092C331.41617,55.11948 330.78253,54.73442 330.02084,54.13092C329.39716,53.63676 329.5,52.63092 329.5,51.73092C329.5,50.83092 329.5,49.93092 329.5,49.03092C329.5,48.13092 329.5,47.33092 329.5,46.43092C329.5,45.53092 329.5,44.63092 329.5,43.73092C329.5,42.82642 329.5,41.96425 329.5,41.13092C329.5,40.15242 329.5,39.33225 329.5,38.42292C329.5,37.36692 329.5,36.77292 329.5,35.80692C329.5,35.18292 329.41135,33.99835 329.50015,33.03092C329.58383,32.11948 330.26117,31.59325 330.47916,30.63092C330.67804,29.75292 330.49991,28.83092 330.5,27.93092C330.50009,27.03109 331.00781,26.52228 331.44284,25.77375C331.86731,25.04337 331.45221,24.02965 331.5,23.13092C331.54272,22.32752 331.96918,21.4679 332.47467,20.74159C332.93387,20.08178 333.89999,20.13092 334.79999,20.13092C335.70001,20.13092 336.73422,20.37784 337.41599,19.84692C338.04257,19.35897 338.5538,18.68431 339.07468,18.10559C339.64877,17.46773 340.30176,17.15879 341.20001,17.13092C342.1441,17.10162 342.66666,16.29759 343.5,16.13092C344.33334,15.96425 344.53073,14.98664 345.2045,14.48809C345.89877,13.97435 346.93481,14.3738 347.7955,14.12642C348.56339,13.90571 349.05078,13.19072 349.79999,12.77825C350.63864,12.31654 351.53824,12.30447 352.29999,12.04559C353.18793,11.74382 353.94131,11.24706 354.70001,10.84692C355.55838,10.3942 356.20001,10.13317 357.10001,10.13092C358,10.12867 358.89999,10.13025 359.79999,10.13092C360.69867,10.13159 361.24966,10.75412 362.02084,11.11009C362.82925,11.48325 363.81851,11.35923 364.5,11.63092C365.47455,12.01944 366.31949,11.71551 367.14282,12.18809C367.95496,12.65422 368.10864,13.63874 368.85718,14.07375C369.58755,14.49822 370.7178,13.9058 371.41599,14.41492C372.11453,14.9243 372.60721,15.58388 373.5,15.96425C374.25153,16.28444 375.12903,16.19645 375.58401,16.93225C376.00812,17.61812 376.89734,18.09644 377.5,18.63092C378.08252,19.14753 378.08731,19.95919 378.55716,20.77375C378.95334,21.4606 379.5,22.13092 379.5,22.93092C379.5,23.83092 379.4946,24.73094 379.5,25.63092C379.50534,26.5203 380.08057,26.82352 380.88934,27.14159C381.61508,27.42699 381.5,28.53092 381.5,29.43092C381.5,30.33092 381.5,31.23092 381.5,32.13092C381.5,32.93092 381.8707,33.55986 382.37851,34.35242C382.85693,35.09916 382.5,36.13092 382.5,36.93092C382.5,37.83092 382.4946,38.73093 382.5,39.63092C382.50534,40.5203 383.22559,41.00484 383.48932,41.74159C383.78906,42.57895 383.5,43.53092 383.5,44.43092C383.5,45.33092 383.5,46.23092 383.5,47.13092C383.5,47.93092 383.5,48.83092 383.5,49.73092C383.5,50.63092 383.5,51.53092 383.5,52.43542C383.5,53.45226 383.5,54.13092 383.5,55.10942C383.5,55.92959 383.5,56.83092 383.5,57.73092C383.5,58.63092 383.5,59.53092 383.5,60.43092C383.5,61.33092 383.5,62.23092 383.5,63.13092C383.5,63.93092 383.5,64.88808 383.5,65.78358C383.5,66.64692 383.5,67.61008 383.5,68.43092C383.5,69.33092 383.5,70.23092 383.5,71.13092C383.5,71.93092 383.51041,72.83098 383.5,73.73092C383.48956,74.6311 383.01019,75.37218 382.66666,76.29758C382.37799,77.07515 382.16135,77.89877 381.55267,78.48359C380.9389,79.07331 380.51068,79.74158 380.5,80.63092C380.48932,81.52026 379.78796,82.00984 379.51068,82.74158C379.17245,83.63412 378.71927,84.13449 378.50134,84.93225C378.25958,85.81726 377.49783,85.63831 376.78534,86.21626C376.04123,86.81985 376.34006,88.00238 375.5,88.13092C374.70474,88.2526 373.94247,88.53609 373.11066,89.10559C372.44598,89.56065 372.04337,90.2614 371.41599,90.84692C370.72751,91.48945 370.17395,91.99435 369.52533,92.55625C368.93741,93.06557 368.10001,93.13025 367.20001,93.13092C366.30133,93.13159 365.56357,93.49305 365,94.13092C364.4845,94.71441 363.7955,95.12642 362.89999,95.13092L362,95.13092" id="svg_6" stroke-width="3" stroke="#000" fill="none"/>
  <path t="45988,46067,46083,46099,46110,46123,46131,46131,46139,46139,46148,46148,46148,46155,46155,46155,46163,46163,46163,46163,46172,46172,46172,46179,46179,46179,46179,46187,46187,46187,46187,46187,46196,46196,46196,46196,46203,46203,46203,46203,46211,46211,46211,46211,46211,46219,46219,46219,46219,46228,46228,46228,46235,46235,46235,46235,46245,46245,46245,46245,46251,46251,46251,46261,46262,46262,46262,46268,46268,46268,46280,46280,46284,46284,46284,46292,46292,46292,46299,46300,46308,46308,46315,46316,46324,46324,46331,46332,46332,46340,46340,46340,46347,46347,46356,46356,46364,46364,46372,46372,46372,46381,46381,46388,46397,46397,46404,46414,46420,46420,46431,46436,46451,46467,46468,46492,46492,46500,46515,46524,46531,46540,46556,46571,46582,46582,46588,46598,46604,46604,46615,46620,46620,46635,46636,46644,46651,46652,46660,46667,46676,46676,46683,46700,46700,46708,46716,46716,46724,46724,46733,46740,46749,46766,46766,46772,46772,46783,46803,46819,46828,46828,46835,46852,46860,46868,46876,46883,46884,46892,46900,46908,46917,46924,46939,46952,46952,46956,46969,46972,46972,46972,46984,46990,46990,46990,46996,46996,46996,47003,47003,47012,47012,47048,47048,47048,47048,47055,47055,47055,47055,47055,47055,47059,47060,47060,47067,47067,47067,47075,47075,47085,47091,47101,47101,47107,47118,47123,47123,47135,47135,47139,47152,47168,47180,47195,47195,47204,47227,47294,47308,47324,47356,47376,47381,47381,47395,47411,47420,47420,47428,47437,47454,47454,47460,47470,47470,47476,47487,47487,47492,47492,47504,47504,47508,47508,47521,47532,47532,47547,47548,47563,47564,47571,47580,47588,47596,47611,47627,47643,47691,47692,47724,47765,47788,47813,47826,47868,47877,47900,47901,47925,47933,47981" d="M-3.5,95.13092C-1.8,95.13092 -0.8,95.13092 0,95.13092C0.9,95.13092 1.9,95.13092 2.70267,95.13092C3.47067,95.13092 4.50983,95.13092 5.28533,95.13092C6.33333,95.13092 7.04733,95.13092 7.95267,95.13092C8.9215,95.13092 9.736,95.13092 10.6045,95.13092C11.5,95.13092 12.4,95.13092 13.3,95.13092C13.9,95.13092 15.10133,95.13092 16.02083,95.13092C16.65717,95.13092 18.0215,95.13092 18.75717,95.13092C19.52083,95.13092 20.3045,95.13092 21.5,95.13092C22.3,95.13092 23.1,95.13092 23.9,95.13092C24.7,95.13092 25.89983,95.13092 26.6955,95.13092C27.47917,95.13092 28.24283,95.13092 29.33333,95.13092C30.35183,95.13092 31.02083,95.13092 31.70983,95.13092C32.83333,95.13092 33.668,95.13092 34.55067,95.13092C35.44933,95.13092 36.332,95.13092 37.557,95.13092C38.28567,95.13092 38.95833,95.13092 39.89734,95.13092C40.8,95.13092 41.7,95.13092 42.6,95.13092C43.5,95.13092 44.4045,95.13092 45.336,95.13092C45.98533,95.13092 47.02133,95.13092 48.12533,95.13092C48.87467,95.13092 49.616,95.13092 50.6785,95.13092C51.664,95.13092 52.28933,95.13092 53.5,95.13092C54.1,95.13092 55,95.13092 55.9,95.13092C56.79984,95.13092 57.68933,95.13092 58.54284,95.13092C59.5785,95.13092 60.47917,95.13092 61.5,95.13092C62.31067,95.13092 62.95716,95.13092 64.184,95.13092C64.72533,95.13092 65.54733,95.13092 66.81333,95.13092C67.45834,95.13092 68.47867,95.13092 69.384,95.13092C70.336,95.13092 71.10133,95.13092 72.1045,95.13092C72.736,95.13092 73.92133,95.13092 74.72533,95.13092C75.54733,95.13092 76.5785,95.13092 77.264,95.13092C78.09866,95.13092 79.1,95.13092 79.9,95.13092C80.9,95.13092 81.7,95.13092 82.7,95.13092C83.5,95.13092 84.5,95.13092 85.3,95.13092C86.1,95.13092 87.0955,95.13092 88.01466,95.13092C88.87466,95.13092 89.82133,95.13092 90.67467,95.13092C91.61467,95.13092 92.60075,95.09426 93.5,95.13092C94.20174,95.15953 94.92236,95.81715 95.8,96.07375C96.66685,96.3272 97.66666,96.13092 98.5,96.13092C99.33334,96.13092 100.1955,96.13092 101.1,96.13092C102,96.13092 102.84356,96.19788 103.52533,96.70559C104.16614,97.1828 105.1,97.13082 106.02084,97.13092C106.82117,97.131 107.6701,97.11405 108.47916,97.63092C109.17664,98.0765 109.99804,98.02329 110.84734,98.18809C111.77306,98.36771 112.48734,99.04295 113.25716,99.12642C114.14746,99.22295 115.016,99.13092 116,99.13092C116.984,99.13092 117.67467,99.13092 118.74284,99.13092C119.6,99.13092 120.5,99.13092 121.3,99.13092C122.136,99.13092 123.15267,99.12731 123.84734,99.13092C124.8747,99.13625 125.81851,99.35924 126.5,99.63092C127.47456,100.01945 128.29866,100.13025 129.2,100.13092C130.10001,100.13158 130.93073,100.06847 131.82133,100.35226C132.52036,100.575 133.47569,101.03043 134.29866,101.12959C135.21214,101.23965 135.71523,102.07003 136.60001,102.13092C137.49788,102.19271 138.3,102.13092 139.2,102.13092C140.10001,102.13092 141,102.12867 141.89999,102.13092C142.80002,102.13317 143.53667,102.45705 144.3,102.84692C145.0529,103.23146 146,103.13092 146.89999,103.13092C147.8,103.13092 148.7,103.13092 149.60001,103.13092C150.5,103.13092 151.3,103.13092 152.2,103.13092C153.172,103.13092 154.04266,103.13092 154.75067,103.13092C155.73199,103.13092 156.6902,103.13858 157.66667,103.13092C158.34673,103.12559 159.19331,103.07648 160.18401,102.84692C161.00632,102.65638 161.8065,102.35912 162.81467,102.21626C163.68382,102.09309 164.70264,102.17828 165.5,102.11008C166.5069,102.02397 167.11934,101.74894 167.916,101.55625C168.60631,101.38929 170.02756,101.24765 170.60266,101.21626C171.21124,101.18304 172.47914,101.14984 173.112,101.14159C173.72682,101.13356 175.33333,101.13092 176.10533,101.13092C176.89583,101.13092 177.83333,101.13092 178.75067,101.13092C179.49466,101.13092 180.52933,101.13092 181.29733,101.13092C182.2,101.13092 183.136,101.13092 183.98399,101.13092C184.84734,101.13092 185.864,101.13092 186.70134,101.13092C187.66667,101.13092 188.54485,101.2645 189.4785,100.90958C190.13812,100.65884 190.89946,100.14893 191.8,100.13092C192.69981,100.11293 193.60001,100.13092 194.5,100.13092C195.3,100.13092 196.2,100.13092 197.10001,100.13092C198,100.13092 198.89999,100.13092 199.8,100.13092C200.7,100.13092 201.60001,100.13092 202.5,100.13092C203.3,100.13092 204.2,100.13092 205.136,100.13092C205.98399,100.13092 206.84734,100.13092 207.864,100.13092C208.7,100.13092 209.60017,100.13092 210.38533,100.13092C211.32533,100.13092 212.33333,100.13092 213.1955,100.13092C214.02083,100.13092 214.98534,100.13092 215.71066,100.13092C216.7,100.13092 217.5,100.13092 218.5,100.13092C219.28934,100.13092 220.33333,100.13092 221.1955,100.13092C222.02083,100.13092 222.98534,100.13092 223.71066,100.13092C224.69983,100.13092 225.47917,100.13092 226.4785,100.13092C227.29866,100.13092 228.2,100.13092 229.10001,100.13092C230,100.13092 230.89999,100.13092 231.8,100.13092C232.7,100.13092 233.60001,100.13092 234.5,100.13092C235.3,100.13092 236.2,100.13092 237.10001,100.13092C238,100.13092 238.89999,100.13092 239.8,100.13092C240.7,100.13092 241.60001,100.13092 242.5,100.13092C243.3,100.13092 244.2,100.13092 245.10001,100.13092L246,100.13092" id="svg_7" stroke-width="3" stroke="#000" fill="none"/>
  <path t="49057,49107,49116,49134,49139,49139,49139,49140,49140,49147,49147,49147,49147,49155,49155,49155,49167,49167,49167,49167,49167,49171,49171,49171,49172,49182,49182,49183,49183,49183,49183,49183,49187,49187,49187,49187,49188,49188,49198,49199,49199,49199,49199,49199,49203,49203,49203,49203,49204,49204,49215,49215,49215,49215,49215,49215,49219,49219,49219,49220,49220,49220,49232,49232,49232,49232,49232,49232,49235,49235,49235,49236,49236,49249,49249,49250,49250,49250,49251,49251,49251,49251,49252,49265,49265,49265,49265,49266,49267,49267,49267,49268,49275,49275,49275,49283,49284,49284,49291,49291,49307,49307,49324,49324,49363,49371,49387,49403,49418,49418,49436,49444,49444,49453,49469,49476,49476,49491,49491,49499,49499,49507,49515,49534,49555,49555,49571,49571,49582,49599,49616,49627,49635,49651,49667,49675,49675,49691,49707,49723,49733,49750,49767,49771,49787,49787,49800,49811,49811,49827,49835,49843,49867,49931,49932" d="M355.5,102.13092C357.20001,102.13092 358.20001,102.13092 359.08334,102.13092C360.16666,102.13092 360.83865,102.13092 361.62268,102.13092C362.47067,102.13092 363.33466,102.13092 364.55701,102.13092C365.28568,102.13092 365.95834,102.13092 366.89734,102.13092C367.80017,102.13092 368.71066,102.13092 369.65717,102.13092C370.66666,102.13092 371.38535,102.13092 372.13599,102.13092C372.91068,102.13092 373.70132,102.13092 374.90033,102.13092C375.70901,102.13092 376.54166,102.13092 377.41434,102.13092C378.83334,102.13092 379.34283,102.13092 380.40982,102.13092C380.96133,102.13092 382.08533,102.13092 382.65182,102.13092C383.21735,102.13092 384.87866,102.13092 385.41599,102.13092C386.47467,102.13092 387,102.13092 388.05267,102.13092C388.58401,102.13092 390.22134,102.13092 390.784,102.13092C391.92532,102.13092 392.5,102.13092 393.07468,102.13092C394.216,102.13092 395.33334,102.13092 396.41599,102.13092C396.94733,102.13092 398,102.13092 398.52533,102.13092C399.58401,102.13092 400.66666,102.13092 401.784,102.13092C402.35266,102.13092 403.5,102.13092 404.07468,102.13092C404.64734,102.13092 406.33334,102.13092 406.87851,102.13092C407.94284,102.13092 408.46399,102.13092 409.48932,102.13092C409.99551,102.13092 411.5,102.13092 412.5,102.13092C413,102.13092 414,102.13092 414.5,102.13092C415.5,102.13092 416.99985,102.13092 417.49866,102.13092C418.48932,102.13092 419.46399,102.13092 419.94284,102.13092C421.33334,102.13092 422.216,102.13092 423.07468,102.13092C423.92532,102.13092 424.35266,102.13092 425.66666,102.13092C426.58401,102.13092 427.52533,102.13092 428,102.13092C428.94733,102.13092 430.33334,102.13092 431.21335,102.13092C431.63834,102.13092 432.45834,102.13092 433.61334,102.13092C434.6785,102.13092 435.34283,102.13092 436.28934,102.13092C436.89868,102.13092 438.10001,102.13092 439,102.13092C439.60001,102.13092 440.79984,102.13092 441.68933,102.13092C442.54285,102.13092 443.57834,102.13092 444.25333,102.13092C445.33334,102.13092 446.12534,102.13092 446.98401,102.13092C447.84732,102.13092 448.86401,102.13092 449.79999,102.13092C450.70001,102.13092 451.60001,102.13092 452.5,102.13092C453.29999,102.13092 454.13599,102.13092 454.98401,102.13092C455.84732,102.13092 456.86401,102.13092 457.70132,102.13092C458.66666,102.13092 459.5,102.13092 460.47867,102.13092C461.25266,102.13092 462.15268,102.13092 463.01599,102.13092C463.97916,102.13092 464.89999,102.13092 465.70132,102.13092C466.66666,102.13092 467.5,102.13092 468.47849,102.13092C469.29868,102.13092 470.20001,102.13092 471.10001,102.13092C472,102.13092 472.89999,102.13092 473.79999,102.13092C474.70001,102.13092 475.60001,102.13092 476.5,102.13092C477.29999,102.13092 478.20001,102.13092 479.10001,102.13092C480,102.13092 480.89999,102.13092 481.79999,102.13092C482.70001,102.13092 483.60001,102.13092 484.5,102.13092C485.29999,102.13092 486.13599,102.13092 486.98401,102.13092C487.84732,102.13092 488.86401,102.13092 489.79999,102.13092C490.70001,102.13092 491.60001,102.13092 492.5,102.13092L493.29999,102.13092" id="svg_8" stroke-width="3" stroke="#000" fill="none"/>
  <path t="50988,51075,51075,51083,51083,51091,51091,51091,51091,51099,51099,51099,51099,51099,51107,51107,51107,51107,51107,51115,51115,51115,51115,51115,51125,51125,51126,51126,51126,51126,51131,51131,51131,51131,51131,51131,51131,51142,51142,51142,51142,51142,51147,51147,51147,51147,51147,51159,51159,51159,51159,51159,51159,51163,51163,51163,51177,51177,51177,51177,51179,51179,51179,51192,51192,51193,51193,51195,51195,51195,51203,51203,51211,51211,51211,51219,51219,51219,51227,51227,51244,51244,51244,51251,51251,51261,51277,51299,51331,51347,51379,51459,51460,51468,51563,51579,51594" d="M390.5,85.13092C392.336,85.13092 393.10132,85.13092 394.10901,85.13092C395.01434,85.13092 396.14301,85.13092 396.81433,85.13092C397.54166,85.13092 398.30899,85.13092 399.5,85.13092C400.30133,85.13092 401.11066,85.13092 401.936,85.13092C402.78534,85.13092 404.12134,85.13092 404.58401,85.13092C405.52533,85.13092 406.47467,85.13092 406.94733,85.13092C408.33334,85.13092 409.21735,85.13092 410.08533,85.13092C410.96133,85.13092 411.40982,85.13092 412.83334,85.13092C413.87067,85.13092 414.41434,85.13092 415.54166,85.13092C416.12134,85.13092 416.70901,85.13092 418.5,85.13092C419.09967,85.13092 419.69733,85.13092 420.87866,85.13092C421.45834,85.13092 422.02802,85.13092 423.12933,85.13092C424.16666,85.13092 425.13068,85.13092 426.03867,85.13092C426.91467,85.13092 427.78265,85.13092 428.66666,85.13092C429.58533,85.13092 430.53601,85.13092 431.02084,85.13092C432.00449,85.13092 433.5,85.13092 433.99966,85.13092C434.991,85.13092 435.95834,85.13092 436.42801,85.13092C437.32935,85.13092 438.55701,85.13092 439.28568,85.13092C440.27866,85.13092 441.5,85.13092 442.10001,85.13092C443,85.13092 443.89999,85.13092 444.79999,85.13092C445.70001,85.13092 446.60001,85.13092 447.5,85.13092C448.39999,85.13092 449.29999,85.13092 449.89999,85.13092C451.09866,85.13092 451.97916,85.13092 452.54285,85.13092C453.81601,85.13092 454.5,85.13092 455.66666,85.13092C456.45267,85.13092 457.27466,85.13092 458.33334,85.13092C459.04285,85.13092 459.89551,85.13092 460.90134,85.13092C461.73599,85.13092 462.66666,85.13092 463.44818,85.13092C464.23868,85.13092 465.35699,85.13092 466.19101,85.13092C467.10001,85.13092 468,85.13092 468.89999,85.13092C469.79999,85.13092 470.70001,85.13092 471.60001,85.13092C472.5,85.13092 473.29999,85.13092 474.20001,85.13092L475.10001,85.13092L476,85.13092L476.89999,85.13092" id="svg_9" stroke-width="3" stroke="#000" fill="none"/>
  <path t="52603,52787,52804,52820,52827,52827,52835,52843,52843,52851,52851,52859,52867,52867,52875,52875,52884,52884,52891,52891,52891,52900,52907,52907,52918,52923,52933,52939,52939,52950,52955,52955,52967,52971,52979,52979,52987,52987,52995,53003,53003,53011,53011,53048,53048,53051,53051,53051,53051,53051,53051,53059,53059,53059,53067,53067,53067,53075,53083,53091,53091,53101,53101,53107,53107,53119,53123,53123,53137,53140,53147,53147,53156,53156,53163,53172,53179,53179,53187,53187,53195,53195,53203,53203,53211,53211,53220,53220,53227,53227,53237,53243,53243,53253,53259,53259,53270,53270,53270,53275,53275,53275,53287,53287,53291,53291,53304,53304,53304,53320,53332,53332,53347,53347,53363,53363,53371,53379,53395,53411,53422,53438,53459,53475,53475,53507,53523,53547,53555,53572,53589,53595,53611,53612,53627,53643,53656,53656,53660,53668,53676,53676,53676,53684,53684,53691,53700,53700,53707,53707,53715,53723,53731,53740,53747,53747,53756,53763,53763,53779,53779,53790,53790,53795,53807,53807,53812,53812,53823,53827,53840,53840,53843,53851,53852,53852,53859,53859,53859,53859,53867,53868,53876,53876,53876,53883,53883,53883,53884,53891,53891,53891,53899,53900,53900,53909,53909,53909,53915,53915,53924,53924,53924,53931,53931,53931,53942,53942,53947,53947,53958,53958,53963,53963,53964,53974,53979,53979,53991,53991,53995,53995,54008,54008,54011,54025,54025,54027,54043,54059,54059,54075,54092,54092,54099,54108,54115,54131,54142,54142,54179,54211,54227,54251,54251,54275,54293,54299,54315,54339,54347,54360,54375,54387,54403,54404,54411,54427,54451,54461,54483,54507,54508,54528,54531,54547,54563,54571,54587,54596,54596,54612,54612,54619,54628,54635,54645,54651,54662,54667,54668,54678,54683,54697,54699,54715,54715,54729,54729,54740,54740,54748,54748,54756,54763,54771,54772,54779,54779,54787,54796,54804,54819" d="M0.5,85.13092C2.3,85.13092 3.2,85.13092 4.02083,85.13092C4.984,85.13092 5.67467,85.13092 6.74733,85.13092C7.66667,85.13092 8.5,85.13092 9.4785,85.13092C10.29867,85.13092 11.136,85.13092 11.98533,85.13092C12.9045,85.13092 13.9,85.13092 14.7,85.13092C15.7,85.13092 16.5,85.13092 17.5,85.13092C18.28933,85.13092 19.01467,85.13092 20,85.13092C20.984,85.13092 21.67467,85.13092 22.74283,85.13092C23.7,85.13092 24.6,85.13092 25.5,85.13092C26.3,85.13092 27.136,85.13092 27.984,85.13092C28.84733,85.13092 29.864,85.13092 30.70133,85.13092C31.66667,85.13092 32.5,85.13092 33.4785,85.13092C34.29867,85.13092 35.136,85.13092 35.98533,85.13092C36.9045,85.13092 37.89867,85.13092 38.664,85.13092C39.62267,85.13092 40.30533,85.13092 41.5,85.13092C42.40533,85.13092 42.9205,85.13092 44.02083,85.13092C44.584,85.13092 45.14117,85.13092 46.66667,85.13092C47.47333,85.13092 48.39583,85.13092 49.5,85.13092C50.28933,85.13092 51.01467,85.13092 52.08933,85.13092C52.91067,85.13092 53.8215,85.13092 54.71067,85.13092C55.69983,85.13092 56.47917,85.13092 57.4785,85.13092C58.29867,85.13092 59.136,85.13092 59.984,85.13092C60.84733,85.13092 61.864,85.13092 62.70133,85.13092C63.66667,85.13092 64.5,85.13092 65.4785,85.13092C66.29867,85.13092 67.2,85.13092 68.02084,85.13092C68.98534,85.13092 69.71067,85.13092 70.69984,85.13092C71.47916,85.13092 72.47867,85.13092 73.384,85.13092C74.336,85.13092 75.10133,85.13092 76.1,85.13092C76.9,85.13092 77.89867,85.13092 78.664,85.13092C79.616,85.13092 80.384,85.13092 81.32533,85.13092C82.33334,85.13092 83.20398,85.22989 84.02084,85.11008C85.01128,84.96482 85.73125,84.4933 86.66666,84.29758C87.44344,84.13506 88.27463,84.13625 89.33334,84.13092C90.04282,84.12735 90.8955,84.13092 91.9,84.13092C92.7,84.13092 93.70264,84.17828 94.5,84.11008C95.5069,84.02397 96.27319,83.66151 97.01466,83.41492C97.98242,83.09307 98.8215,83.13092 99.71067,83.13092C100.69984,83.13092 101.47916,83.13092 102.4785,83.13092C103.29867,83.13092 104.2,83.13092 105.1,83.13092C106,83.13092 106.9,83.13092 107.8,83.13092C108.7,83.13092 109.6,83.13092 110.5,83.13092C111.3,83.13092 112.2,83.13092 113.1,83.13092C114,83.13092 114.9,83.13092 115.8,83.13092C116.7,83.13092 117.6,83.13092 118.5,83.13092C119.3,83.13092 120.2,83.13092 121.136,83.13092C121.984,83.13092 122.84734,83.13092 123.74284,83.13092C124.70133,83.13092 125.66666,83.13092 126.336,83.13092C127.10133,83.13092 128.09555,83.1212 129.01466,83.13092C130.00017,83.14134 130.81593,83.36561 131.67467,83.70559C132.47366,84.02192 133.29866,84.13025 134.2,84.13092C135.10001,84.13158 136,84.13092 136.91066,84.13092C137.82133,84.13092 138.67467,84.13092 139.61467,84.13092C140.5,84.13092 141.38533,84.13092 142.336,84.13092C143.10133,84.13092 144.0955,84.13092 144.84283,84.13092C145.87466,84.13092 146.82133,84.13092 147.5,84.13092C148.4785,84.13092 149.29866,84.13092 150.2,84.13092C151.136,84.13092 151.98399,84.13092 152.84734,84.13092C153.88533,84.13092 154.83333,84.13092 155.51433,84.13092C156.32133,84.13092 157.5,84.13092 158.09866,84.13092C158.97917,84.13092 159.81467,84.13092 160.81599,84.13092C161.72533,84.13092 162.66667,84.13092 163.45717,84.13092C164.31067,84.13092 165.5,84.13092 166.10001,84.13092C167,84.13092 167.89999,84.13092 168.8,84.13092C169.7,84.13092 170.60001,84.13092 171.5,84.13092C172.39549,84.13092 173.26401,84.13092 174.33333,84.13092C175.04283,84.13092 175.89549,84.13092 176.90134,84.13092C177.73599,84.13092 178.66667,84.13092 179.45267,84.13092C180.27467,84.13092 181.33333,84.13092 182.26401,84.13092C183.09866,84.13092 184.10001,84.13092 184.89999,84.13092C185.89999,84.13092 186.7,84.13092 187.7,84.13092C188.5,84.13092 189.5,84.13092 190.28934,84.13092C191.01466,84.13092 192,84.13092 192.98534,84.13092C193.71066,84.13092 194.7,84.13092 195.5,84.13092C196.5,84.13092 197.28934,84.13092 198.33333,84.13092C199.08934,84.13092 200.02083,84.13092 200.98399,84.13092C201.67467,84.13092 202.74283,84.13092 203.60001,84.13092C204.5,84.13092 205.3,84.13092 206.25717,84.13092C207.15266,84.13092 208.01601,84.13092 208.97917,84.13092C209.8,84.13092 210.7,84.13092 211.60001,84.13092C212.5,84.13092 213.30042,84.10368 214.2,84.13092C215.14413,84.15952 215.65431,85.04718 216.5,85.13092C217.29611,85.20975 218.2,85.13092 219.10001,85.13092C220,85.13092 220.94453,85.03545 221.7,85.41492C222.5672,85.8505 223.05438,86.54861 223.7215,87.00942C224.4512,87.51347 225.5004,87.10555 226.3,87.13092C227.20135,87.15952 227.92236,87.81711 228.8,88.07375C229.66556,88.32687 230.60001,88.13092 231.5,88.13092C232.3,88.13092 233.2,88.13092 234.10001,88.13092C235,88.13092 235.89999,88.13092 236.8,88.13092C237.7,88.13092 238.60017,88.13092 239.38533,88.13092C240.32533,88.13092 241.01601,88.13092 242.08934,88.13092C243,88.13092 243.89999,88.13092 244.8,88.13092C245.7,88.13092 246.60001,88.13092 247.5,88.13092C248.3,88.13092 249.2,88.13092 250.10001,88.13092C251,88.13092 251.91066,88.13092 252.8215,88.13092C253.52083,88.13092 254.5,88.13092 255.28934,88.13092C256.33334,88.13092 257.12534,88.13092 258.15268,88.13092C258.84732,88.13092 259.86401,88.13092 260.8045,88.13092C261.66666,88.13092 262.5,88.13092 263.47849,88.13092C264.29868,88.13092 265.20001,88.13092 266.10001,88.13092L267,88.13092L267.89999,88.13092" id="svg_10" stroke-width="3" stroke="#000" fill="none"/>
  <path t="57692,57803,57816,57831,57835,57851,57867,57867,57879,57883,57899,57899,57907,57923,57939,57955,57963,57963,57971,57995,58015,58015,58019,58035,58059,58075,58091,58115,58139,58147,58147,58165,58183,58188,58211,58235,58267,58275,58291,58291,58307,58316,58333,58349,58371,58383,58419,58451,58451,58459,58491,58539,58597,58619,58636,58643,58659,58673,58707,58722,58737,58771,58827,58837,58859,58883,58883,58907,58911,58923,58941,58947,58963,58979,59003,59003,59012,59059,59068,59068,59068,59106,59122,59135,59135,59179,59219,59227,59251,59275,59288,59299,59339,59371,59379,59395,59407,59459,59483,59515,59531,59547,59579,59592,59595,59611,59635,59643,59661,59661,59675,59693,59709,59710,59715,59726,59733,59744,59744,59747,59757,59763,59763,59773,59779,59779,59795,59795,59811,59811,59824,59835,59835,59851,59851,59859,59877,59896,59899,59915,59931,59947,59960,59960,59979,60011,60019,60155,60283,60296,60315,60332,60332,60339,60340,60352,60353,60355,60366,60371,60371,60382,60387,60399,60403,60414,60419,60428,60435,60445,60445,60451,60507,60515,60587,60643,60643,60675,60691,60702,60716,60734,60739,60755,60770,60779,60779,60780,60796,60796,60813,60819,60830,60830,60846,60851,60851,60863,60875,60883,60891,60899,60915,60931,60939,60955,60971,60981,61003,61045,61063,61063,61067,61115,61130,61139,61163,61182,61197,61203,61203,61215,61234,61243,61243,61259,61267,61275,61294,61294,61307,61316,61333,61349,61355,61371,61388,61403,61403,61411,61483,61503,61539,61539,61563,61571,61587,61603,61611,61635,61654,61670,61670,61677,61699,61723,61739,61771,61811,61835,61843,61843,61859,61883,61891,61939,61958,61973,62027,62052,62052,62078,62109,62109,62124,62172" d="M313.5,115.13092C313.5,116.93092 313.43448,117.75993 312.69867,118.21492C312.01282,118.63902 311.62457,119.57676 311.216,120.33092C310.86383,120.981 310.53903,121.89218 309.97916,122.63092C309.47552,123.29543 308.66449,123.89919 308.51068,124.73092C308.34692,125.61646 307.95679,126.33421 307.62149,127.23092C307.30341,128.08156 307.90274,129.06734 307.41467,129.84558C306.95032,130.58601 306.5,131.13092 306.5,131.93092C306.5,132.83092 306.5,133.73093 306.5,134.63092C306.5,135.53091 306.5,136.43092 306.5,137.33092C306.5,138.23093 306.5,139.13092 306.5,139.93092C306.5,140.83092 306.5,141.73093 306.5,142.63092C306.5,143.53091 306.5,144.43092 306.5,145.33092C306.5,146.23093 306.5,147.13092 306.5,147.93092C306.5,148.83092 306.5,149.73093 306.5,150.63092C306.5,151.53091 306.5,152.43092 306.5,153.33092C306.5,154.23093 306.5,155.13092 306.5,155.93092C306.5,156.83092 306.5,157.73093 306.5,158.63092C306.5,159.53091 306.30511,160.45261 306.50134,161.32959C306.68192,162.13663 307.48737,162.6516 307.5,163.53091C307.51285,164.42635 307.97372,164.8804 308.7955,165.13542C309.55859,165.37222 310.04886,166.0773 310.89999,166.55626C311.62671,166.96521 312.5,167.13092 313.29999,167.13092C314.20001,167.13092 315.10001,167.13092 316,167.13092C316.89999,167.13092 317.79999,167.13092 318.70001,167.13092C319.60001,167.13092 320.5,167.13092 321.29999,167.13092C322.20001,167.13092 323.172,167.13092 324.04266,167.13092C324.75067,167.13092 325.73199,167.13092 326.68567,167.13092C327.60001,167.13092 328.50085,167.09373 329.29999,167.13092C330.21765,167.17363 330.71524,168.07002 331.60001,168.13092C332.49786,168.19272 333.17841,168.41617 333.784,169.04692C334.33398,169.61978 335.07474,169.83878 335.88934,170.14159C336.62283,170.41425 336.99292,171.31654 337.58401,171.84692C338.18408,172.38535 339.03775,172.87561 339.89999,173.09492C340.76877,173.31589 341.32153,173.80428 342.11066,174.12025C342.91745,174.4433 343.6304,174.5876 344.216,175.21492C344.85858,175.90327 345.60001,176.13092 346.5,176.13092C347.29999,176.13092 348.20001,176.13092 349.02084,176.13092C349.98401,176.13092 350.84732,176.13092 351.74283,176.13092C352.70001,176.13092 353.60001,176.13092 354.5,176.13092C355.29999,176.13092 356.20001,176.13092 357.02084,176.13092C357.98401,176.13092 358.85446,176.02255 359.74283,176.13542C360.62009,176.24687 361.22763,176.89133 362.15717,177.07376C362.89233,177.21805 363.89868,177.13092 364.84283,177.13092C365.74734,177.13092 366.66666,177.13092 367.5,177.13092C368.47849,177.13092 369.29868,177.13092 370.20001,177.13092C371.10001,177.13092 372,177.13092 372.89999,177.13092C373.79999,177.13092 374.70001,177.13092 375.60001,177.13092C376.5,177.13092 377.29999,177.13092 378.20001,177.13092C379.10001,177.13092 380,177.12866 380.89999,177.13092C381.7955,177.13318 382.59402,177.57198 382.49551,178.43092C382.40106,179.25461 381.78165,179.87881 381.29868,180.61491C380.85101,181.29723 380.17307,182.10191 379.52084,182.61009C378.73578,183.2218 378.23703,183.91574 377.5,184.29759C376.74603,184.68823 375.88086,185.11671 375.47467,185.74159C374.99487,186.47968 374.28329,186.93851 373.40018,187.13109C372.55591,187.3152 372.13199,187.98012 371.20001,188.13542C370.38254,188.27164 370.01816,189.06911 369.44733,189.77376C368.85553,190.50426 368.28476,191.07002 367.39999,191.13092C366.50214,191.19272 365.70001,191.13092 364.79999,191.13092C363.89999,191.13092 363.13156,190.98683 362.44733,190.48358C361.78113,189.99359 360.78763,190.09637 360.10001,189.70558C359.28311,189.2413 358.32455,188.98514 357.664,188.69492C356.8876,188.35381 356.11731,187.89668 355.336,187.56693C354.40247,187.17291 353.39999,187.13092 352.5,187.13092C351.70001,187.13092 350.86258,187.18074 349.85184,187.12642C349.06631,187.08421 348.50992,186.31277 347.69867,186.13225C346.82144,185.93703 346.09921,185.93071 345.41599,185.41492C344.80066,184.95038 343.79999,185.13092 342.89999,185.13092C342,185.13092 341.10001,185.13092 340.20001,185.13092C339.29999,185.13092 338.39999,185.13092 337.5,185.13092C336.70001,185.13092 335.79999,185.13092 334.89999,185.13092C334,185.13092 333.10001,185.13092 332.20001,185.13092C331.29999,185.13092 330.39999,185.13092 329.5,185.13092C328.70001,185.13092 328.00632,185.41245 327.2785,186.00958C326.5495,186.60771 325.84375,186.92987 324.89999,187.12025C324.01724,187.29834 323.28119,187.63141 322.5,187.96425C321.74847,188.28444 320.79999,188.13092 319.89999,188.13092C319,188.13092 318.0575,188.19048 317.47467,188.70558C316.88687,189.22508 316.3457,190.04718 315.5,190.13092C314.70392,190.20975 314.07104,190.50162 313.2785,191.00941C312.53177,191.48785 311.5,191.13092 310.70001,191.13092C309.79999,191.13092 308.89999,191.13092 308,191.13092C307.10001,191.13092 306.20001,191.13092 305.29999,191.13092C304.39999,191.13092 303.5,191.13092 302.70001,191.13092C301.79999,191.13092 300.89999,191.13092 300,191.13092C299.10001,191.13092 298.20001,191.13092 297.29999,191.13092C296.39999,191.13092 295.5,191.13092 294.70001,191.13092C293.79999,191.13092 292.89999,191.13092 292,191.13092C291.10001,191.13092 290.20001,191.13092 289.29999,191.13092C288.39999,191.13092 287.5,191.13092 286.70001,191.13092C285.86401,191.13092 284.84732,191.13092 284.15268,191.13092L283.13599,191.13092L282.20001,191.13092" id="svg_11" stroke-width="3" stroke="#000" fill="none"/>
  <path t="63367,63411,63435,63467,63492,63499,63517,63517,63533,63539,63547,63564,63571,63580,63580,63597,63603,63613,63630,63647,63651,63667,63683,63683,63699,63723,63739,63795,63816,63819,63843,63851,63851,63867,63891,63902,63907,63939,63950,64003,64016,64099,64171,64211,64227,64267,64299,64299,64307,64339,64363,64411,64427,64452,64452,64468,64486,64499,64507,64524,64547,64555,64571,64585,64620,64627,64667,64675,64691,64707,64721,64731,64747,64763,64771,64788,64805,64805,64827,64875,64963,64963,65291,65403,65403,65811,65827,65923" d="M302.5,158.13092C304.29999,158.13092 305.20004,158.13692 306.10001,158.13092C306.90005,158.12558 307.71881,157.63043 308.5,157.29759C309.25153,156.9774 310.20007,157.14133 311.10001,157.13092C312.00018,157.1205 312.70328,156.58774 313.60001,156.25243C314.45065,155.93434 315.29999,156.13092 316.20001,156.13092C317.10001,156.13092 318,156.13092 318.89999,156.13092C319.79999,156.13092 320.70001,156.13092 321.60001,156.13092C322.5,156.13092 323.29999,156.13092 324.20001,156.13092C325.10001,156.13092 326,156.13092 326.89999,156.13092C327.79999,156.13092 328.88016,155.88359 329.44733,156.48808C330.06833,157.14995 330.35184,157.89954 330.49551,158.83092C330.63272,159.72041 330.62656,160.51265 331.14734,161.18359C331.60046,161.76736 331.70328,162.60484 332.33334,163.29759C332.87891,163.89745 333.28635,164.51392 333.50134,165.32959C333.71158,166.12721 334.79999,166.13083 335.70001,166.13092C336.60001,166.13101 337.27744,166.2552 338.10001,166.70558C338.8804,167.13286 339.79999,167.13092 340.70001,167.13092C341.60001,167.13092 342.5,167.13092 343.29999,167.13092C344.20001,167.13092 345.20258,166.73271 346.064,167.16692C346.76288,167.5192 347.30133,168.13025 348.20001,168.13092C349.10001,168.13159 349.88171,168.25746 350.55267,168.77826C351.13644,169.23137 352.10007,169.12135 353,169.13092C353.97931,169.14134 354.43661,169.9057 355.2045,170.12642C356.06519,170.37379 357,170.13092 357.89999,170.13092C358.79999,170.13092 359.70001,170.13092 360.60001,170.13092C361.5,170.13092 362.4364,169.72818 363.21466,170.21625C363.95508,170.68057 364.50085,171.09373 365.29999,171.13092C366.21765,171.17363 366.5,172.13092 366.5,172.93092L366.5,173.83092L366.5,174.73093L366.5,175.63092" id="svg_12" stroke-width="3" stroke="#000" fill="none"/>
  <path t="67719,67819,67844,67855,67871,67887,67905,67915,67923,67939,67955,67963,67979,68076,68124,68132,68156,68164,68188,68188,68196,68212,68237,68244,68262,68275,68283,68291,68299,68315,68325,68346,68362,68387,68408,68411,68423,68435,68442,68451,68474,68483,68483,68492,68499,68499,68507,68515,68525,68543,68559,68559,68563,68578,68763,68851,68939,68947,68962,68979,68987,69062,69066,69066,69156,69171,69181,69181,69211,69232,69235,69251,69275,69303,69314,69316,69316,69333,69349,69355,69367,69367,69384,69387,69387,69400,69403,69417,69419,69434,69435,69450,69451,69451,69468,69485,69485,69492,69492,69502,69515,69515,69531,69539,69539,69548,69555,69571,69587,69651,69932,69932,69953,70268,70348,70404,70422,70452,70475,70489,70503,70507,70531,70547,70556,70556,70573,70580,70590,70595,70596,70610,70627,70643,70643,70653,70670,70687,70687,70691,70703,70704,70723,70731,70739,70755,70772,70779,70779,70795,70811,70827,70843,70859,70875,70888,70899,70899,70915,70931,70931,70939,70947,70947,70955,70963,70963,70972,70972,70979,70989,70995,71005,71012,71050,71050,71059,71059,71059,71083,71083,71091,71107,71115,71123,71140,71147,71163,71163,71173,71195,71227,71240,71255,71259,71275,71283,71291,71299,71315,71331,71341,71347,71363,71363,71374,71391,71408,71408,71411,71419,71427,71443,71459,71459,71467,71475,71499,71539,71548,71620,71634,71636,71724,71756,71783,72316" d="M93.5,207.13092C93.5,208.93092 93.85489,209.92355 93.464,210.69492C93.11021,211.39304 92.05394,211.67854 91.58533,212.41626C91.14622,213.10756 90.93321,213.80862 90.536,214.56693C90.13674,215.32913 90.11242,216.14587 89.47467,216.70558C88.88507,217.22304 88.08238,217.68535 87.6215,218.35242C87.11745,219.08195 87.13837,219.8922 86.40017,220.35242C85.683,220.79951 85.91906,221.84381 85.464,222.69492C85.12689,223.32539 83.90626,223.14616 83.44733,223.83542C82.94569,224.58885 82.13466,224.98311 81.55267,225.48358C80.9073,226.03854 80.34111,226.64896 79.784,227.21492C79.12337,227.88605 78.82339,228.69978 78.064,229.09492C77.29689,229.49409 76.2103,228.98213 75.55267,229.48358C74.87581,229.99968 74.36165,230.58028 73.784,231.21492C73.19542,231.86157 72.46732,232.25653 71.9,232.74159C71.15329,233.38004 70.57158,234.2184 69.9,234.69492C69.17434,235.20981 68.5564,235.7047 67.88934,236.15625C67.1525,236.65504 66.30247,237.15523 65.85717,237.83092C65.38551,238.54662 64.88934,239.12025 64,239.13092C63.11067,239.14159 62.12233,239.73853 62.52083,240.61009C62.84512,241.31932 64.05257,240.84016 64.88934,241.14159C65.65311,241.41672 66.03985,242.38466 66.68533,242.69492C67.58058,243.12523 68.6,243.13092 69.5,243.13092C70.3,243.13092 71.2,243.13092 72.1,243.13092C73,243.13092 73.9,243.13159 74.8,243.13092C75.69867,243.13025 76.28558,242.68896 76.78533,241.93225C77.18748,241.32333 78.04788,240.91638 78.66666,240.29759C79.28546,239.67879 79.69085,239.0049 80.2045,238.43092C80.86253,237.6956 81.59713,237.20924 82.064,236.53091C82.63098,235.70712 82.79003,234.7379 83.59983,234.25226C84.32948,233.81468 84.24281,232.90532 84.72134,232.25226C85.23527,231.55089 85.76348,230.91142 86.30133,230.33092C86.87739,229.70918 87.72674,229.11763 88.14283,228.37375C88.60249,227.55199 88.63356,226.74207 89.14733,226.08275C89.72596,225.34021 90.40205,225.03586 90.88934,224.26959C91.46275,223.36786 91.14767,222.46016 91.52084,221.65175C91.8768,220.88058 92.57056,220.36728 93.5,220.13092C94.32362,219.92148 94.4628,219.13005 94.5,218.33092C94.54272,217.41328 95.30133,217.13159 96.2,217.13092C97.1,217.13025 98.05972,216.82101 98.88934,217.14159C99.68224,217.44797 100.30179,217.76765 101.064,218.16692C101.82231,218.56413 102.11226,219.48766 102.78533,220.04692C103.45448,220.60292 104.31554,220.8094 105.1,221.15625C105.91804,221.51794 106.75615,221.91092 107.5,222.29759C108.28325,222.70474 108.68146,223.64043 109.6,224.00941C110.44271,224.34795 111.43641,223.72818 112.21467,224.21625C112.95508,224.68057 113.53188,225.25746 114.1,225.74159C114.84535,226.37677 115.48739,227.04588 116.3,227.12959C117.19526,227.2218 118.11919,226.9657 119,227.15175C119.8474,227.33073 120.59388,228.07004 121.5,228.13092C122.2982,228.18456 123.2,228.13092 124.1,228.13092C125,228.13092 125.9,228.13092 126.8,228.13092C127.7,228.13092 128.60001,228.13092 129.5,228.13092C130.3,228.13092 131.136,228.13092 132.15266,228.13092C132.84734,228.13092 133.87466,228.13092 134.82133,228.13092C135.67467,228.13092 136.61467,228.13092 137.5,228.13092C138.25717,228.13092 139.15266,228.13092 140.01601,228.13092C140.97917,228.13092 141.89999,228.13092 142.8,228.13092C143.7,228.13092 144.60001,228.13092 145.5,228.13092C146.20799,228.13092 147.26401,228.13092 148.17599,228.13092C148.82401,228.13092 150,228.13092 150.79201,228.13092C151.7,228.13092 152.60439,228.2196 153.5,228.13092C154.3457,228.04718 154.782,227.17365 155.60001,227.13092C156.49878,227.08398 157.43036,227.52386 158.21466,227.04559C159.0183,226.55553 159.73216,226.37517 160.416,225.84692C161.0435,225.36221 162.04579,225.39487 162.44284,224.77376C162.94934,223.98145 162.91652,223.14644 163.5,222.63092C164.13788,222.06735 164.7818,221.45844 165.37866,220.90959C166.01871,220.32104 166.81181,219.93803 167.21466,219.32959C167.75854,218.50815 168.2063,217.90138 168.66667,217.13092C169.09659,216.41142 170.06316,216.19672 170.52533,215.52025C171.02452,214.7896 171.26373,213.86386 171.7215,213.03091C172.09247,212.3559 172.74199,211.74614 173.59984,211.25226C174.33716,210.82777 174.25575,209.89876 174.784,209.21492C175.26871,208.58742 175.332,207.81482 175.50133,206.93225C175.64647,206.17577 176.7,206.13092 177.59984,206.13075L178.416,205.84692" id="svg_13" stroke-width="3" stroke="#000" fill="none"/>
  <path t="73269,73404,73412,73426,73429,73429,73436,73443,73443,73453,73453,73459,73459,73469,73469,73475,73475,73491,73491,73502,73503,73507,73520,73523,73523,73531,73539,73547,73555,73571,73571,73579,73595,73603,73611,73620,73627,73627,73637,73643,73654,73659,73684,73691,73748,73836,73836,73844,73876,73895,73908,73915,73923,73931,73947,73971,73979,74003,74003,74023,74027,74043,74051,74059,74067,74083,74091,74099,74115,74125,74131,74155,74163,74174,74190,74380,74396,74460,74468,74484,74500,74523,74523,74547,74563" d="M227.5,209.13092C229.3,209.13092 230.2,209.13092 231.02083,209.13092C231.98399,209.13092 232.67467,209.13092 233.74283,209.13092C234.60033,209.13092 235.47081,209.14433 236.26801,209.12959C237.24977,209.11143 238.17229,208.97763 238.97917,208.63092C239.82748,208.2664 240.67462,208.13626 241.616,208.13092C242.38399,208.12657 243.336,208.13092 244.10133,208.13092C245.0955,208.13092 245.85635,208.28619 246.864,208.12025C247.73186,207.97733 248.52629,207.36847 249.2,207.07825C250.04179,206.71562 250.79865,206.15952 251.7,206.13092C252.59955,206.10239 253.5004,206.15628 254.3,206.13092C255.20135,206.10233 255.92236,205.44472 256.79999,205.18808C257.66559,204.93495 258.60001,205.13092 259.5,205.13092C260.29999,205.13092 261.20001,205.13092 262.10001,205.13092C263,205.13092 263.89999,205.13092 264.79999,205.13092C265.70001,205.13092 266.60001,205.13092 267.5,205.13092C268.29999,205.13092 269.20001,205.13092 270.10001,205.13092C271,205.13092 271.89999,205.13159 272.79999,205.13092C273.69867,205.13025 274.28635,204.74792 274.50134,203.93225C274.71158,203.13463 275.85007,203.2626 276.60001,202.90959C277.37552,202.54456 278.22223,202.28369 278.88934,201.69492C279.58423,201.08162 279.88223,200.34161 280.69867,200.12959C281.49911,199.92172 282.07474,199.42307 282.88934,199.12025C283.62283,198.8476 284.23093,198.27928 284.88934,197.69492C285.58252,197.07968 285.88223,196.34161 286.69867,196.12959C287.49911,195.92172 287.94089,195.07068 288.52533,194.55626C289.14877,194.00754 289.94568,193.58884 290.44733,192.83542C290.90625,192.14615 291.79999,192.12642 292.70001,191.84692L293.29999,191.41492L294.20001,191.07825L295,190.63092" id="svg_14" stroke-width="3" stroke="#000" fill="none"/>
 </g>
</svg>