<svg width="500" height="333.3333333333333" xmlns="http://www.w3.org/2000/svg" xmlns:svg="http://www.w3.org/2000/svg" xmlns:xlink="http://www.w3.org/1999/xlink">
 <!-- Created with SVG-edit - http://svg-edit.googlecode.com/ -->
 <g display="inline" class="layer">
  <title>Layer 1</title>
  <path t="0,366,377,400,418,418,435,452,468,501,518,535,551,568,585,585,602,622,635,678,702,702,718,735,736,752,768,785,803,818,818,836,852,886,902,919,990,1062,1103,1121,1136,2902,2918,2943,2966,2976,2993,2993,3009,3010,3010,3026,3026,3026,3026,3043,3043,3060,3060,3077,3077,3094,3094,3110,3111,3127,3127,3143,3160,3177,3177,3193,3193,3210,3211,3228,3229,3244,3244,3261,3278,3295,3295,3311,3329,3346,3362,3363,3378,3378,3396,3396,3413,3413,3428,3462,3462,3479,3480,3495,3495,3512,3512,3513,3530,3530,3546,3547,3579,3579,3597,3597,3612,3612,3630,3630,3647,3647,3664,3712,3712,3729,3729,3746,3763,3780,3781,3796,3813,3831,3847,3887,3903,4095,4159,4247,4655,4714,4714,4734,4751,4766,4784,4800,4831,4850,4867,4868,4884,4903,4919,4935,4951,4967,4985,5001,5018,5034,5051,5051,5067,5068,5084,5111,5127,5135,5151,5168,5185,5202,5219,5236,5252,5252,5268,5269,5287,5303,5319,5335,5359,5359,5402,5420,5436,5436,5453,5470,5486,5502,5519,5519,5537,5552,5553,5586,5604,5637,5670,5670,5687,5687,5703,5703,5721,5737,5753,5771,5771,5788,5804,5821,5837,5853,5871,5887,5904,5920,5971,5987,6159,6159,6175,6263,6288,6305,6323,6479,6490,6511,6543,6559,6573,6589,6607,6623,6624,6640,6656,6673,6691,6706,6723,6741,6758,6773,6791,6807,6807,6823,6840,6857,6858,6874,6891,6891,6908,6924,6941,6958,6974,6975,6991,7008,7024,7041,7058,7075,7091,7108,7125,7126,7151,7159,7175,7191,7208,7243,7279,7325" d="M38.01136,330.25757C39.8447,330.09091 39.91222,329.26935 40.06853,328.49591C40.25393,327.57855 40.75187,327.00586 41.49053,326.27841C42.06624,325.71143 42.55973,325.04257 43.17803,324.42426C43.79634,323.80594 44.48894,323.52026 45.30687,323.25308C46.06875,323.00421 45.84196,321.91098 46.04736,321.1189C46.27188,320.25311 47.26259,319.82471 48.01136,319.42426C48.80282,319.00098 48.98751,318.2572 49.01136,317.45758C49.03996,316.49911 49.3311,315.5849 49.71587,314.91025C50.16745,314.11841 50.90965,313.48181 51.4367,312.82156C52.00315,312.11197 52.24635,311.29987 52.6587,310.55759C53.11668,309.73318 53.50012,309.07196 54.17803,308.42426C54.81026,307.82019 55.3555,307.30008 56.01136,306.75757C56.61433,306.25879 57.62072,306.42496 58.30687,305.90042C59.05708,305.3269 59.01136,304.25757 59.01136,303.42426C59.01136,302.55307 59.00887,301.65756 59.01136,300.75757C59.01361,299.94409 59.0727,299.19641 59.29803,298.20425C59.4427,297.56726 59.70677,296.52792 60.17803,295.59091C60.60593,294.74011 61.02914,294.3132 61.52737,293.66025C62.277,292.6778 62.63262,292.07721 62.8902,291.05774C63.08425,290.2897 63.31133,289.38791 64.01137,288.77841C64.64941,288.22287 65.01302,287.48306 65.36853,286.6004C65.67642,285.836 66.05244,285.0238 66.51137,284.29926C67.04593,283.45532 67.79333,282.9931 68.17803,282.25757C68.53751,281.57025 69.26863,280.79892 69.57536,280.04691C69.96739,279.08578 69.87814,278.24121 70.17803,277.42426C70.49093,276.5719 71.06604,275.90662 71.51137,275.27841C72.14835,274.37985 72.82478,273.92599 73.2327,273.15756C73.57771,272.50763 74.00247,271.63953 74.4367,270.85757C74.89231,270.03711 75.17871,269.25803 75.62203,268.62158C76.21227,267.77423 76.5604,267.04889 77.11137,266.27908C77.57079,265.63718 78.31136,264.95758 78.81136,264.45758C79.49053,263.77841 80.01053,262.92426 80.01137,262.23676C80.0127,261.14157 80.14377,260.34543 80.7212,259.6004C81.16821,259.02365 81.86208,258.26917 82.2542,257.66208C82.72827,256.92813 83.34067,256.03223 83.81136,255.37358C84.34091,254.6326 84.72087,253.8243 85.17803,252.92424C85.52825,252.23473 85.97631,251.39551 86.51137,250.77841C87.17023,250.01852 87.73994,249.51926 88.21136,248.77357C88.63786,248.09895 89.28678,247.19426 89.6542,246.56207C90.14765,245.713 90.45001,244.83934 90.89803,244.37224C91.64635,243.59204 92.23734,243.14311 92.76853,242.27924C93.26508,241.47168 94.14492,241.21877 94.6542,240.55307C95.17252,239.87556 95.80399,239.26367 96.00687,238.55307C96.26502,237.64885 96.94918,237.66029 97.72603,237.17224C98.46607,236.70732 99.01266,236.20894 99.92737,236.25758C100.73077,236.30031 101.01137,237.25758 101.01137,238.05757C101.01137,238.95758 101.01137,239.85757 101.01137,240.75758C101.01137,241.65758 101.01137,242.55757 101.01137,243.45758C101.01137,244.35757 101.01137,245.25758 101.01137,246.05757C101.01137,246.95758 101.01137,247.85757 101.01137,248.75758C101.01137,249.65758 100.93258,250.61237 101.4367,251.23224C101.93692,251.84732 102.35609,252.56046 103.01137,253.25758C103.52602,253.80511 104.1087,254.58047 104.51137,255.25758C105.00809,256.09286 105.75244,256.78152 105.97536,257.65756C106.1975,258.53049 105.8308,259.55823 106.29536,260.17358C106.81114,260.85678 106.81647,261.57928 107.0127,262.45624C107.19328,263.26328 107.90605,263.73318 108.36403,264.55759C108.77638,265.29987 109.00912,266.01474 109.01137,266.91025C109.01353,267.77359 109.00906,268.73676 109.01137,269.65756C109.01362,270.55307 109.65021,271.12997 109.9542,271.96292C110.20406,272.64755 109.88405,273.70367 110.01586,274.55759C110.15964,275.48895 110.66005,276.08572 111.06403,276.95758C111.44938,277.78922 111.9272,278.57599 112.4367,279.24292C112.89974,279.84903 112.88741,280.69534 113.44736,281.62158C113.88714,282.34903 114.51979,282.85529 115.01586,283.61023C115.46353,284.29153 115.96333,284.93076 116.29803,285.74158C116.59523,286.46152 117.332,287.23679 117.99053,287.73676C118.67747,288.2583 118.81409,289.09222 119.06853,289.95758C119.32648,290.83481 119.84779,291.60464 120.2327,292.35757C120.62286,293.12079 121.00219,293.87579 121.4367,294.65756C121.89207,295.47687 122.39824,296.16342 122.98603,296.68292C123.56886,297.19803 124.45376,296.98975 125.30686,297.26208C126.12737,297.52402 126.67503,297.99231 127.51137,298.29926C128.33353,298.60098 128.56061,299.45807 129.30687,300.14774C129.93578,300.72894 130.40742,300.99466 131.30687,301.26208C132.06953,301.48883 131.75674,302.82642 132.44736,303.22159C133.19403,303.64883 134.24515,303.11139 135.11119,303.25775C135.96323,303.40176 136.45689,304.12784 137.31137,304.26208C138.13022,304.39075 138.78392,304.89697 139.4007,305.65756C140.00282,306.40005 139.98308,307.41943 140.71587,307.90491C141.42543,308.375 142.05525,308.91937 142.71587,309.31024C143.50133,309.77499 144.46866,310.03601 144.98604,310.69357C145.49602,311.34174 145.73785,312.14423 146.51137,312.73676C147.24594,313.29947 147.86839,313.83954 148.06403,314.60941C148.29556,315.5206 148.74823,316.29446 149.09537,317.05759C149.48395,317.91183 149.99271,318.65704 150.01137,319.55759C150.03001,320.4574 150.29631,321.31714 150.65869,321.95758C151.12311,322.77835 151.64218,323.32013 152.09537,324.0589C152.51704,324.74628 153.65555,325.04767 153.99052,325.77841C154.3571,326.57809 154.42024,327.38489 154.8447,328.25757C155.16554,328.91724 155.47177,329.78116 155.95869,330.55307C156.40179,331.25549 157.0367,331.83224 157.65869,332.31024L158.17802,333.09091L159.0007,333.29358L159.01137,334.0589" id="svg_1" stroke-width="3" stroke="#000" fill="none"/>
  <path t="8462,9105,9132,9149,9165,9165,9166,9183,9183,9215,9215,9232,9233,9233,9249,9265,9282,9303,9335,9349,9367,9383,9399,9417,9417,9455,9471,9484,9500,9533,9551,9567,9584,9584,9601,9601,9616,9616,9634,9650,9667,9668,9700,9717,9735,9751,9768,9768,9784,9801,9818,9818,9835,9851,9867,9868,9884,9902,9919,9935,9951" d="M125.01137,298.25757C124.01137,298.25757 123.10246,298.21472 122.51137,298.82007C121.86945,299.47745 121.63023,300.51611 121.31136,301.25226C120.93362,302.12433 120.38562,302.75677 119.8447,303.59091C119.4186,304.24796 118.86207,305.11227 118.3632,305.5004C117.60564,306.08978 117.39783,306.84412 116.99053,307.73676C116.66765,308.4444 115.70015,308.64545 115.17803,309.42426C114.70482,310.13013 114.77927,311.07529 113.91153,311.25775C113.11919,311.42435 112.93898,312.51566 112.29536,312.97223C111.59888,313.46628 110.36496,313.07312 110.0322,313.77841C109.6615,314.56412 110.15896,315.75006 109.57536,316.23224C108.84695,316.83408 108.0116,317.25781 107.51137,317.75757C106.81036,318.45792 106.26469,318.97348 105.3632,319.55759C104.72839,319.9689 104.23691,320.75122 103.72603,321.45624C103.1652,322.23019 102.58317,322.62738 101.78986,323.13608C101.04345,323.61472 100.0279,323.25906 99.4007,323.86826C98.80285,324.44894 98.28789,325.14661 97.51137,325.73676C96.7734,326.29761 95.88732,326.45065 95.31136,326.96207C94.57909,327.6123 93.76527,328.05759 93.01137,328.42426C92.24776,328.79565 91.51137,329.25757 90.71587,329.61023L90.01137,330.25757L89.4007,330.86826L88.81136,331.45624" id="svg_2" stroke-width="3" stroke="#000" fill="none"/>
  <path t="11659,11830,11830,11842,11859,11859,11875,11908,11909,11925,11942,11959,11975,11992,12008,12008,12025,12042,12042,12059,12075,12108,12108,12135,12175,12176,12193,12215,12226,12243,12260,12277,12293,12310,12327,12343,12366,12399,12410,12427,12444,12462,12486,12487,12535,12535,12551,12646,12677" d="M128.01137,299.25757C127.01137,299.42426 126.36339,299.823 125.71587,300.55759C125.13214,301.21979 124.90194,302.04184 124.4367,302.82156C123.98626,303.57648 124.08976,304.47452 123.58603,305.19626C123.12615,305.85516 123.15434,306.77072 123.00069,307.65756C122.85652,308.48975 121.83296,308.80679 121.2967,309.34158C120.69382,309.94281 121.02335,311.08301 121.01137,311.77359C120.99336,312.81137 120.19511,313.22321 120.00687,313.96292C119.82655,314.67148 119.2052,315.31705 119.01137,316.25757C118.84897,317.04556 118.57084,317.79407 118.06403,318.55307C117.5668,319.29773 117.0167,319.86819 117.01137,320.75757C117.00597,321.65753 117.19296,322.71646 116.57536,323.23224C115.94329,323.7601 115.44058,324.41974 114.8447,325.09091C114.3064,325.69724 114.25668,326.49057 113.72736,327.17358C113.23938,327.80325 112.83518,328.60626 112.01137,329.09091C111.3586,329.47495 111.01137,330.25757 111.01137,331.05759L110.9542,331.90042L110.17803,332.42426L110.00069,333.25757" id="svg_3" stroke-width="3" stroke="#000" fill="none"/>
  <path t="13384,13614,13631,13631,13681,13698,13715,13927,13942,13967,13967,13983" d="M90.01137,325.25757C89.21003,325.42825 88.56654,326.09418 88.2967,326.7749C87.93435,327.68903 87.56215,328.49637 86.92737,328.97357C86.1608,329.54984 85.17803,329.42426 85.01137,330.25757L85.01137,331.05759L84.92603,331.97223" id="svg_4" stroke-width="3" stroke="#000" fill="none"/>
  <path t="16021,16374,16391,16407,16407,16424,16424,16424,16440,16441,16457,16458,16486,16502,16510,16542,16558,16574,16591,16607,16624,16642,16662,16674,16674,16691,16709,16724,16742,16759,16776,16791,16791,16809,16826,16841,16859,16859,16876,16892,16892,16909,16926,16926,16943,16959,16975,16993,16993,16993,17010,17025,17025,17043,17060,17060,17076,17076,17093,17093,17110,17127,17143,17143,17143,17159,17159,17176,17193,17193,17209,17226,17243,17260,17260,17276,17276,17293,17294,17310,17310,17326,17326,17326,17343,17360,17360,17377,17377,17393,17394,17411,17411,17428,17428,17428,17445,17445,17460,17460,17460,17478,17478,17478,17494,17495,17495,17510,17510,17510,17527,17528,17528,17544,17544,17561,17561,17561,17577,17578,17595,17611,17629,17645,17645,17662,17662,17679,17679,17694,17694,17695,17712,17712,17729,17729,17746,17746,17761,17762,17779,17796,17796,17812,17829,17846,17846,17862,17862,17878,17895,17912,17913,17929,17945,17962,17963,17979,17995,18013,18030,18030,18046,18062,18079,18080,18097,18097,18113,18113,18129,18129,18146,18166,18166,18182,18213,18232,18232,18247,18318,18959,18998,19017,19038,19078,19086,19100,19117,19134,19134,19150,19167,19183,19184,19200,19216,19234,19251,19267,19284,19284,19300,19317,19334,19334,19351,19367,19368,19384,19401,19401,19435,19452,19467,19486,19486,19501,19518,19535,19551,19552,19568,19569,19584,19584,19602,19618,19619,19634,19651,19669,19686,19735,19735,19758,19758,19774,19785,19802,19818,19852,19869,19870,19870,19886,19902,19919,19920,19936,19937,19952,19953,19970,19970,19986,20003,20020,20036,20037,20054,20069,20094,20103,20246,20278,20320,20370,20387,20531,20558,20582,20598,20622,20638,20656,20671,20672,20688,20689,20705,20722,20739,20755,20782,20790,20822,20855,20872,20890,20906,20906,20922,20950,20958,20974,20990,21006,21023,21039,21056,21073,21089,21107,21124,21140,21156,21157,21174,21190,21207,21223,21241,21258,21273,21274,21302,21326,21340,21357,21374,21391,21645,21714,21770,21827,21837,21870,21909,21926,21942,21943,21959,21959,21976,21976,21977,21993,22009,22026,22043,22043,22060,22076,22076,22093,22110,22110,22126,22126,22126,22143,22143,22160,22177,22177,22193,22194,22210,22211,22227,22227,22243,22243,22260,22260,22277,22294,22294,22310,22310,22327,22328,22344,22344,22361,22379,22379,22379,22396,22411,22427,22445,22462,22462,22478,22494,22494,22495,22511,22512,22528,22545,22546,22561,22579,22579,22596,22596,22596,22611,22628,22646,22646,22662,22662,22663,22679,22679,22679,22679,22696,22696,22712,22728,22746,22746,22762,22763,22780,22795,22812,22813,22830,22830,22846,22862,22880,22897,22897,22912,22930,22930,22947,22947,22964,22964,22980,22980,22997,23014,23030,23031,23031,23046,23047,23047,23064,23081,23097,23097,23114,23115,23131,23147,23164,23181,23181,23198,23213,23231,23231,23248,23264,23281,23298,23315,23331,23348,23365,23381,23398,23415,23454,23672,23705,23716,23733,23784,23816,23832,23884,24030,24150,24234,24302,24318,24334,24351,24367,24384,24384,24401,24422,24435,24470,24470,24510,25724,25791,25875,25891,25911,25911,25924,25940,25957,25974,25991,25991,26007,26007,26046,26074,26091,26108,26124,26125,26141,26159,26175,26258,26258,26289,26494,26560,27623,27993,28302,28326,28398,28466,28483,28500,28516,28516,28533,28533,28534,28550,28550,28566,28567,28583,28583,28584,28600,28601,28617,28700,28742,28751,28886,28901,28942,28984,29001,29191,29222,29235,29235,29235,29251,29382,29402,29402,29454,29470,29486,29542,30473,30489,30523,30524,30540,30541,30541,30541,30558,30559,30574,30623,30662,30674,30690,30726,30742,30807,30824,30841,30858,30874,30891,30911,30934,30959,30975,30992,31030,31042,31078,31092,31110,31206,31270" d="M99.01137,233.25758C99.01137,232.45624 98.9902,231.60266 99.2967,230.77225C99.57197,230.02646 100.11137,229.05757 100.51137,228.25758C100.81137,227.65758 101.2684,226.63161 101.64736,226.09358C102.26028,225.2234 103.21196,224.98277 103.76836,224.15775C104.24451,223.45174 104.21882,222.69519 104.89003,222.03624C105.50782,221.42973 106.49043,221.58255 106.9542,220.90041C107.42846,220.20284 107.49807,219.43279 108.01137,218.73674C108.51897,218.04842 108.79941,217.12434 109.09537,216.45758C109.47611,215.59981 109.75098,214.81847 110.01586,213.96208C110.25195,213.19878 111.03081,212.5864 111.86203,212.28291C112.64948,211.99542 113.12983,211.47722 113.58603,210.65758C114.02102,209.87605 114.4733,209.02119 114.8447,208.25758C115.21138,207.50368 115.52692,206.75243 116.21136,206.05757C116.80681,205.45306 117.39419,204.83997 118.11137,204.15775C118.69769,203.60001 119.61283,203.25769 120.06403,202.55307C120.49509,201.87991 121.1739,201.2507 121.8367,200.85757C122.52316,200.45041 123.38419,199.86674 124.11137,199.15758C124.61759,198.66388 125.29694,197.94286 126.01137,197.25758C126.52211,196.76767 127.50266,196.38048 128.18604,196.23224C129.13789,196.02576 129.45927,195.26833 130.1212,194.61475C130.70888,194.0345 131.88229,193.96022 132.38603,193.39624C132.93929,192.77684 133.6292,191.95148 134.3587,191.61925C135.22081,191.22662 136.05592,190.94655 136.81137,190.54158C137.56732,190.13635 138.3571,189.73016 139.21136,189.34158C139.97449,188.99446 140.61371,188.59512 141.49536,188.05891C142.16293,187.65291 143.17239,187.44968 143.89537,187.08824C144.73917,186.66641 145.18915,186.03 146.01137,185.42424C146.77237,184.86359 147.53352,184.56744 148.37537,184.28291C149.2222,183.99669 149.96815,183.47388 150.77936,183.34291C151.75095,183.18605 152.68459,183.3419 153.49052,183.23674C154.34917,183.12469 155.03426,182.74094 156.01137,182.25758C156.81308,181.86101 157.40514,181.54491 158.41136,181.05891C159.00778,180.77086 160.01442,180.43954 160.81137,180.27225C161.61473,180.10361 162.41287,179.68848 163.24736,179.07225C163.69679,178.74037 164.68675,178.1192 165.5322,177.77841C166.10953,177.5457 167.30951,177.15251 167.90686,176.96208C168.77298,176.68597 169.84274,176.4113 170.5542,176.31024C171.4048,176.18941 172.42265,175.99873 173.21136,175.64691C174.0239,175.28447 174.78836,174.80464 175.61136,174.54291C176.5856,174.23306 177.39737,174.31215 178.2542,173.90491C179.06421,173.51991 179.90712,173.29449 180.72119,172.90041C181.3782,172.58235 182.06007,171.94087 182.89537,171.54291C183.62546,171.19507 184.65207,171.15871 185.41136,170.68825C186.04968,170.29274 186.58231,169.69862 187.60686,169.01474C188.16061,168.64511 189.14316,168.0768 189.70686,167.55757C190.33568,166.97838 190.88397,166.43715 191.8367,165.85757C192.51857,165.44276 193.25711,164.96072 194.01137,164.25758C194.61369,163.69608 195.41083,163.27559 196.31587,163.25758C197.17786,163.24043 198.06931,163.42374 198.9897,163.03607C199.62956,162.76656 199.66502,161.67912 200.0327,160.86824C200.34618,160.17691 201.52406,160.24443 202.05952,159.55307C202.62613,158.82152 203.10905,158.15527 203.71136,157.55757C204.40871,156.86555 205.31685,156.64958 205.92737,155.97224C206.50986,155.32602 206.49643,154.30257 207.07269,153.69357C207.68425,153.04729 208.80516,153.05261 209.09402,152.37091C209.48781,151.4416 209.71889,150.86742 209.92737,149.85892C210.1205,148.92467 210.44638,148.05063 210.72737,147.37358C211.10158,146.47192 211.1714,145.42078 211.51137,144.77841C211.94579,143.95758 211.85339,142.98026 212.2327,142.15758C212.5408,141.48933 213.01143,140.65764 213.01137,139.75758C213.01131,138.86818 212.49071,138.26801 211.61136,138.25758C210.71593,138.24698 209.69449,138.40875 209.06403,137.90491C208.45265,137.41631 207.54518,137.39288 206.81137,136.97224C206.1248,136.57867 205.55397,135.6965 204.71136,135.31024C203.94261,134.95784 203.37422,134.48228 202.61136,133.86824C201.86583,133.26813 200.69351,133.62012 200.13286,133.03624C199.56009,132.43974 199.16313,131.80066 198.49403,131.54158C197.47568,131.14726 197.4075,130.40056 196.8447,129.59091C196.41156,128.96782 195.4084,128.58527 194.52736,128.34158C193.85341,128.15518 192.71967,128.11536 192.17802,127.25758C191.77367,126.6172 190.86244,126.5947 190.17802,126.09091C189.52495,125.61019 188.9518,124.97262 188.31137,124.61024C187.49057,124.14582 186.94894,123.49412 186.24969,123.20491C185.37698,122.84396 184.6214,122.54911 183.6127,122.34158C182.85545,122.18578 181.8598,122.01781 181.21269,121.45625C180.57182,120.9001 179.98926,120.05669 179.31137,119.61475C178.57745,119.13627 177.61833,118.96756 177.13269,118.15775C176.69511,117.4281 175.89545,117.35041 175.12604,117.17224C174.15221,116.94674 173.51936,116.42828 172.5322,116.27841C171.63179,116.14172 171.05429,115.69579 170.36403,115.26208C169.68608,114.83611 168.8622,114.22632 168.18604,113.86824C167.51135,113.51094 166.53236,113.268 165.60069,113.25758C164.68993,113.24739 163.9903,113.2784 163.01137,113.25758C162.03152,113.23674 161.14163,112.95911 160.64737,112.40691C159.95737,111.63603 159.31329,111.20598 158.51137,110.75758C157.71327,110.31132 156.75409,110.43106 156.01137,110.09091C155.20877,109.72335 154.82991,108.74806 153.91136,108.37907C153.06865,108.04056 152.00246,108.17143 151.7287,107.34291C151.7018,107.2615 152.61137,107.26297 153.51137,107.25758C154.40074,107.25224 155.00095,106.73692 155.01137,105.85757C155.02203,104.95764 154.83699,104.04307 155.01137,103.09091C155.15573,102.30267 155.88263,101.86594 156.29536,101.05624C156.66277,100.33548 156.98026,99.43247 157.01003,98.74158C157.0547,97.70454 157.8656,97.21361 158.01003,96.45625C158.17836,95.57349 158.25085,94.80733 158.72737,94.17358C159.28918,93.42638 159.42905,92.70319 159.88986,92.03608C160.39392,91.30638 160.01137,90.25758 160.01137,89.45758C160.01137,88.55758 160.01137,87.65758 160.01137,86.75758C160.01137,85.85757 159.81647,84.9359 160.0127,84.05891C160.19327,83.25186 161.00095,82.73692 161.01137,81.85757C161.02203,80.95764 160.84929,79.95753 161.36403,79.31024C161.85637,78.69113 162.46432,78.15038 162.8447,77.25758C163.16489,76.50604 162.8253,75.53049 163.04736,74.65758C163.26434,73.80461 164.06494,73.20582 164.62202,72.64691C165.308,71.9587 165.92633,71.27018 166.01003,70.45758C166.10225,69.56232 165.6683,68.579 166.0322,67.77841C166.38365,67.00518 166.80162,66.41769 167.06853,65.55758C167.33725,64.69163 168.30984,64.28618 169.11119,64.25758C170.0361,64.22456 170.81288,64.23961 171.71136,64.25758C172.61189,64.27558 173.37163,64.80276 174.3327,65.13641C174.98772,65.36381 176.00369,65.68838 176.51137,66.27841C177.19684,67.0751 177.66748,67.49517 178.3587,67.95308C179.25421,68.54632 179.92737,69.17358 180.5322,69.77841C181.21136,70.45758 181.71132,70.95763 182.41136,71.65758C183.11131,72.35745 183.60477,72.83545 184.51137,73.25758C185.31471,73.63162 185.80978,74.04079 186.77936,74.74024C187.25446,75.08298 187.96515,75.63449 189.0407,76.08824C189.78543,76.40243 190.49899,76.79143 191.21269,77.45758C191.75923,77.96772 192.66429,78.56554 193.22203,78.85757C194.20393,79.3717 195.01842,79.71271 195.8447,80.25758C196.4066,80.62812 197.15605,81.29741 197.8367,81.64691C198.81653,82.15003 199.61974,82.24643 200.41136,82.68291C201.23419,83.1366 201.89986,83.33291 202.84737,83.68291C203.61533,83.96658 204.61937,84.13808 205.3542,84.31024C206.28203,84.52763 206.90295,84.94838 207.8367,85.24291C208.85368,85.5637 209.28577,86.18756 209.81003,86.68958C210.51065,87.36047 211.52708,87.10047 212.41136,87.26824C213.35728,87.44771 213.99876,88.17255 214.81137,88.25624C215.71458,88.34927 216.77519,88.25758 217.36487,88.25758C218.29936,88.25758 219.3447,88.25758 220.1767,88.25758C221.0322,88.25758 222.02812,88.08113 222.81003,88.34291C223.60973,88.61064 224.30643,89.41085 225.0322,89.73674C225.98209,90.16326 226.80009,90.23846 227.52603,90.25624C228.60037,90.28256 229.44423,90.18858 230.33287,90.47908C231.05591,90.71545 232.00525,91.27033 232.62036,91.55758C233.51717,91.97636 234.34009,92.2731 235.31219,92.55308C235.9875,92.74757 236.63947,92.9495 237.74687,93.13608C238.69171,93.29527 239.63145,93.08815 240.51137,93.27841C241.36131,93.46219 241.81044,94.14484 242.41136,95.07224C242.81076,95.68864 243.61118,96.24681 244.5322,96.25758C245.33264,96.26693 246.25153,96.11746 247.12604,96.54291C247.8965,96.91773 248.30841,97.85499 249.21136,98.17224C250.0643,98.47192 251.04326,98.38411 251.61136,98.86824C252.35672,99.50343 253.0164,100.0742 253.76852,100.31024C254.67505,100.59474 255.4184,100.95702 256.21121,101.35757C256.99307,101.7526 257.81622,102.29855 258.49054,102.73674C259.28104,103.25042 260.27884,103.10858 261.17804,103.59091C261.72293,103.88319 262.38538,104.6502 263.21121,105.23591C263.7811,105.64008 264.50244,106.07996 265.49054,106.23674C266.40094,106.38119 267.15601,106.87263 267.64737,107.40691C268.26736,108.08107 269.22162,108.15559 269.95004,108.68291C270.61267,109.16257 271.41138,109.69359 272.01135,110.25758C272.61136,110.82159 273.45456,111.14252 274.31137,111.61024C275.05667,112.0171 275.84592,112.06097 276.71136,112.31474C277.58881,112.57204 278.33789,113.03447 279.21002,113.25891C280.01096,113.46503 280.44681,114.23893 281.31137,114.25758C282.20981,114.27695 282.76114,114.88061 283.5322,115.23674C284.33087,115.60562 285.1391,115.66554 286.01135,116.09091C286.50903,116.33361 285.68967,116.06268 284.81268,116.25891C284.00565,116.43949 283.56476,117.31138 282.98602,117.83224C282.34818,118.40632 281.52823,118.86477 281.09671,119.54291C280.60355,120.31796 281.01135,121.35757 281.01135,122.25758C281.01135,123.13625 281.01135,123.96207 281.01135,124.77841C281.01135,125.74158 281.01135,126.60491 281.01135,127.50041C281.01135,128.45758 281.01135,129.35757 281.01135,130.25758C281.01135,131.05757 281.36627,131.69287 281.8447,132.42424C282.30237,133.12389 280.77896,132.82333 280.17804,133.42424C279.57709,134.02516 280.01135,135.05757 280.01135,135.95758C280.01135,136.85757 280.10928,137.76402 280.0007,138.66824C279.88925,139.59628 279.46353,140.2404 279.13269,141.23592C278.89203,141.96011 278.42886,142.66757 277.8447,143.25758C277.28143,143.82648 277.18484,144.51486 276.8447,145.25758C276.47711,146.06018 275.6264,146.49947 275.13269,147.35741C274.70822,148.09503 274.25177,148.73589 273.98602,149.40691C273.63672,150.28894 272.61136,150.25758 271.71136,150.25758C270.81268,150.25758 269.92291,150.34785 269.01135,150.25758C268.16568,150.17384 267.72937,149.30031 266.91138,149.25758C266.01257,149.21065 265.32013,148.80923 264.56821,148.37891C263.85019,147.96799 262.83743,148.11861 262.0632,147.90041C261.26419,147.67522 260.35101,147.24648 259.6727,146.86824C258.85211,146.41068 257.94287,146.35866 257.01135,145.92424C256.37283,145.62648 255.85402,145.06535 255.03287,144.27924C254.4269,143.69911 253.61189,143.27559 252.71136,143.25758C251.81288,143.23962 250.63269,142.96291 250.63269,143.25758C250.63269,144.13626 252.41136,143.25758 253.31137,143.25758C254.21136,143.25758 255.31213,143.60307 255.89003,143.0359C256.59509,142.34392 256.47784,141.44815 256.72736,140.74158C257.0993,139.68829 257.44736,138.85757 258.01135,138.25758C258.57538,137.65758 259.08707,136.84836 259.58603,136.23224C260.09607,135.60243 260.4379,134.8172 261.21002,134.34158C261.94992,133.88582 262.34564,133.08192 262.71585,132.38608C263.17435,131.52425 263.30698,130.89821 263.61136,129.93358C263.80853,129.30867 264.3689,128.16423 264.72604,127.46158C265.13919,126.64876 265.72736,126.08823 266.01135,125.25758C266.29538,124.4269 266.75903,123.62998 267.5322,123.27841C268.32303,122.91882 269.57117,123.52011 269.97537,122.82158C270.40631,122.07681 270.72803,121.38042 271.0007,120.64691C271.30353,119.83231 271.44162,119.0975 272.09537,118.54158C272.70953,118.01932 273.47729,117.58668 273.98602,116.86824C274.45056,116.2122 275.7153,116.37266 276.0007,115.64691C276.31876,114.83813 276.62204,114.26824 277.51135,114.25758L278.41138,114.25758" id="svg_5" stroke-width="3" stroke="#000" fill="none"/>
  <path t="34599,34790,34830,34839,34855,34872,34895,34905,34926,34967,35007,35030,35207,35224,35240,35240,35257,35287,35307,35341,35399,35407,35446,35457,35494,35508,35534,35566,35575,35638,35782,35838,36512,36593,36638,36670,36723" d="M280.01135,138.25758C280.88986,139.47908 280.92267,140.36195 281.01135,141.25758C281.09509,142.10329 281.8385,142.60951 282.36404,143.20491C282.92728,143.84303 283.78616,144.19418 284.00687,144.96208C284.25424,145.82274 283.95847,146.79231 284.36404,147.55757C284.81235,148.40346 285.01135,149.25758 285.01135,150.05757C285.01135,150.95758 285.01135,151.85757 285.01135,152.73674C285.01135,153.69357 284.75671,154.82648 285.44736,155.22157C286.19797,155.65099 287.39093,155.01077 287.95871,155.61475C288.57983,156.27547 289.20444,156.69872 289.8447,157.25758C290.36069,157.70799 290.81268,158.25691 291.71136,158.25758C292.61136,158.25826 293.51135,158.25758 294.41138,158.26825L295.21002,158.54291L295.8447,159.25758L296.17804,160.09091" id="svg_6" stroke-width="3" stroke="#000" fill="none"/>
  <path t="37669,38068,38068,38102,38116,38134,38158,38232,38270,38310,38334,38395,38417,38601,38621,38635,38652,38669,38685,38685,38701,38702,38718,38735,38735,38735,38751,38768,38768,38785,38802,38802,38819,38835,38885,38902,38919,38935,38935,38952,38969,38990,39208,39218,39237,39254,39270,39270,39288,39288,39288,39303,39303,39320,39338,39338,39354,39355,39371,39388,39405,39421,39438,39455,39472,39488,39505,39534,39555,39572,39589,39605,39654,39888,39918" d="M294.01135,159.25758C295.01135,159.25758 295.81137,159.25758 296.71136,159.25758C297.61136,159.25758 298.54132,159.48645 299.4007,159.25758C300.08591,159.0751 300.63745,158.42917 301.30685,157.90041C302.04785,157.31509 302.24344,156.43974 303.11121,156.25742C303.90332,156.09099 304.01135,155.96658 304.01135,156.85757C304.01135,157.75758 304.01135,158.66824 304.01135,159.57907C304.01135,160.27841 304.01135,161.25758 304.01135,162.21591C304.01135,163.09091 304.01135,163.92174 304.01135,164.77841C304.01135,165.49091 304.01135,166.59624 304.01135,167.5789C304.01135,168.25758 304.01135,169.37224 304.01135,170.25758C304.01135,171.05757 304.01135,171.95758 304.01135,172.85757C304.01135,173.75758 304.10681,174.70212 303.72736,175.45758C303.29178,176.32477 303.01361,176.95757 303.01135,177.85757C303.00909,178.75758 302.67169,179.72162 303.02203,180.64691C303.29819,181.37624 304.41138,181.25758 305.31586,181.25758C306.17804,181.25758 307.03223,181.26411 308.01135,181.25758C308.81143,181.25224 309.62808,181.22815 310.60687,180.90491C311.36966,180.653 312.25735,180.28618 313.17804,180.25758C314.01096,180.23172 314.98987,180.25758 315.70688,180.25758C316.61136,180.25758 317.59106,180.62428 318.49054,180.23674C319.2049,179.92896 319.83051,179.20609 320.01004,178.45624C320.22366,177.56403 320.96579,177.34512 321.57538,176.64691C322.15735,175.98032 321.94052,174.90913 322.43671,174.28291C322.96368,173.61784 323.72736,173.17358 324.17804,172.42424L324.92471,171.97357L324.57538,171.29358" id="svg_7" stroke-width="3" stroke="#000" fill="none"/>
  <path t="40510,40918,40918,40972,40998,41009,41030,41054,41110,41126,41144,41160,41176,41193,41222,41238,41254,41262,41277,41294,41310,41344,41397,41422,41454,41454,41470,41580,41614,41614,41646,41751,41780,41780,42014,42047,42063,42080,42081,42096,42097,42113,42113,42130,42130,42147,42163,42198,42198,42214,42262,42377,42398,42422,42446,42498,42498,42518,42534,42548,42582,42598,42615,42632,42654,42670,42686,42686,42698,42718,42734,42798,42832,42854,42854,42886,42899,42917,42934,42950,42967,42984,42999,42999,43016,43034,43066,43066,43084,43101,43118,43167,43167,43183,43183,43200,43230,43250,43267,43285,43446,43501,43502,43519,43535,43551,43568,43585,43602,43618,43635,43654,43654,43669,43670,43766,43789,43802,43819,43836,43852,43869,43886,43886,43903,43926,44173,44193,44204" d="M303.01135,159.25758C304.01135,159.25758 304.81137,159.25758 305.71136,159.25758C306.61136,159.25758 307.51135,159.25758 308.41138,159.25758C309.30685,159.25758 310.24518,159.40379 311.11121,159.25742C311.96323,159.1134 312.36722,158.28618 313.31137,158.25758C314.21094,158.23035 315.11575,158.34627 316.01135,158.25758C316.85706,158.17384 317.24911,157.46489 318.11121,157.25742C318.95132,157.05524 319.36273,156.28618 320.29669,156.25758C321.21094,156.2296 322.11136,156.25758 323.01135,156.25758C323.81137,156.25758 324.39853,155.94307 325.17804,155.42424C325.88547,154.95338 326.84836,155.46205 327.71136,155.20041C328.59625,154.93214 329.104,153.92447 329.72604,153.54291C330.51096,153.06145 330.03995,153.61345 330.01135,154.56207C329.98535,155.42384 330.08267,156.26021 330.01102,157.23624C329.95374,158.01648 329.42514,158.72664 328.86203,159.43225C328.23343,160.21994 327.96167,160.95222 327.51135,161.75758C327.06702,162.55223 326.73926,163.34604 326.36404,163.96208C325.86542,164.78076 326.01135,165.75758 326.01135,166.65758C326.01135,167.55757 326.01135,168.45758 326.01135,169.35757C326.01135,170.25758 325.99261,171.05777 326.01135,171.95758C326.02936,172.82214 326.86594,173.20941 327.01135,173.86824C327.22458,174.83432 326.8548,175.85881 327.36853,176.55307C327.86707,177.22682 328.89713,177.4781 329.01154,178.35757C329.10251,179.05684 329.75824,179.79477 329.97537,180.65758C330.19409,181.52669 329.61118,182.69832 330.17804,183.25758C330.78299,183.85443 331.80917,183.91316 331.99054,184.75758C332.17957,185.63774 331.97192,186.58612 332.51135,187.25758C332.99899,187.86459 333.74152,188.33655 333.98602,189.11891C334.28159,190.06459 334.75815,190.78488 334.97537,191.65758C335.19183,192.52725 335.29474,193.33961 335.72736,194.05891C336.16879,194.79286 336.53879,195.60332 336.92737,196.45758C337.27451,197.2207 337.73709,197.99219 337.95871,198.91025C338.12357,199.59323 338.55243,200.41029 338.88986,201.35757C339.19461,202.21309 339.42822,202.81248 339.88986,203.47891C340.38596,204.19505 340.01135,205.25758 340.01135,206.05757C340.01135,206.95758 340.01135,207.85757 340.01135,208.75758C340.01135,209.65758 340.01144,210.55757 340.01135,211.45758C340.01126,212.35741 339.61945,213.03049 339.01135,213.59091C338.39514,214.15883 338.09805,215.23126 338.01587,215.95308C337.90845,216.89632 337.08652,216.87202 336.36853,217.31474C335.63214,217.7688 335.57846,218.95186 334.61136,219.22157C333.74374,219.46353 332.81003,219.25758 332.12604,219.25758C331.19669,219.25758 330.18204,219.25891 330.01135,219.96208L330.01135,220.85757L330.01135,221.75758" id="svg_8" stroke-width="3" stroke="#000" fill="none"/>
  <path t="49136,49191,49206,49223,49240,49240,49240,49240,49256,49256,49256,49256,49256,49256,49256,49256,49273,49273,49273,49273,49273,49273,49273,49273,49290,49290,49290,49290,49290,49290,49290,49290,49308,49308,49308,49308,49308,49308,49323,49324,49324,49324,49340,49341,49341,49341,49341,49358,49358,49358,49375,49375,49375,49375,49390,49390,49390,49390,49408,49408,49408,49425,49425,49425,49441,49441" d="M305.01135,222.25758C306.81137,222.25758 307.71136,222.25758 308.55304,222.25758C309.55536,222.25758 310.34735,222.25758 311.04871,222.25758C311.92603,222.25758 313.01135,222.25758 313.63986,222.25758C314.31937,222.25758 315.04086,222.25758 315.79538,222.25758C317.36737,222.25758 318.16687,222.25758 318.96338,222.25758C320.51135,222.25758 321.24704,222.25845 321.9567,222.25624C322.64438,222.25409 323.31412,222.2511 323.9697,222.23674C325.25525,222.2086 325.89359,222.18533 327.17804,222.09091C327.83322,222.04274 329.16437,221.90324 329.8367,221.82158C330.51172,221.73959 331.18628,221.64867 331.8587,221.55307C332.52762,221.45798 334.48938,221.15784 335.12204,221.05891C335.74069,220.96217 336.92783,220.77704 337.49271,220.69357C338.03519,220.61342 339.51056,220.41571 340.35669,220.34158C341.1134,220.27528 342.15829,220.23105 343.17804,220.09091C343.89813,219.99196 344.63608,219.82912 345.38602,219.68291C346.12674,219.53848 347.52515,219.32925 348.17535,219.29358C349.10602,219.24251 350.31165,219.26547 350.91586,219.25308C351.84769,219.23398 352.50064,219.19951 353.53268,219.03607C354.26736,218.91972 355.38818,218.65512 356.12735,218.45624C357.19293,218.16954 357.84439,217.94325 358.76471,217.69357C359.83893,217.40215 360.5542,217.31474 361.40686,217.26207L362.41003,217.25624L363.17535,217.22157" id="svg_9" stroke-width="20" stroke="#fff" fill="none"/>
  <path t="52933,53151,53235,53398,53437,53454,53471,53487,53487,53487,53504,53571,53583" d="M340.01135,205.25758C340.01135,206.05891 340.01135,206.95758 340.01135,207.85757C340.01135,208.75758 340.01135,209.65758 340.01135,210.56657C340.01135,211.59091 340.01135,212.25841 340.01135,212.97092L340.00687,214.09058L339.49054,214.75758L338.70688,215.20041" id="svg_10" stroke-width="3" stroke="#000" fill="none"/>
  <path t="55595,55703,55719,55729,55746,55762,55763,55763,55763,55779,55779,55779,55796,55796,55813,55813,55829,55928,55951,55963,55979,55979,55996,55996,56013,56013,56013,56029,56046,56063,56063,56080,56096,56096,56114,56130,56130,56147,56163,56180,56197,56213,56230,56247,56264,56264,56280,56280,56297,56314,56331,56347,56347,56364,56364,56381,56397,56414,56431,56448,56448,56464,56464,56481,56498,56498,56514,56514,56532,56548,56548,56565,56565,56581,56598,56598,56615,56615,56632,56632,56648,56665,56682,56698,56715,56732,56732,56751,56751,56765,56782,56799,56816,56839,56933,56951,56968,56984,57007,57067,57119,57119,57362,57401,57418,57435,57436,57451,57451,57468,57486,57486,57502,57503,57518,57552,57575,57585,57607,57619,57635,57663,57671,57703,57719,57769,57786,57803,57847,57855,57879,57920,57937,57953,57954,57970,57987,58007,58023,58070,58120,58143,58143,58154,58172,58187,58205,58221,58238,58271,58288,58405,58421,58471,58685,58716,58854,58908,58990,59015,59097,59097,59113,59302,59358,59376,59376,59392,59409,59442,59460,59476,59476,59492,59492,59511,59526,59543,59560,59560,59583,59615,59647,59660,59743,59759,59776,59793,59793,59809,59838,59854,59878,59893,59910,59943,59967,60028,60077,60119,60128,60151,60161,60183,60194,60211,60231,60244,60263,60294" d="M339.01135,211.25758C339.01135,212.05891 339.02289,212.95766 339.01135,213.85757C339.00067,214.68977 338.6832,215.7598 338.44336,216.31091C338.16663,216.94685 337.66757,217.93925 337.3447,218.92424C337.08026,219.73096 337.08109,220.45703 336.78986,221.45741C336.55652,222.25897 335.97256,223.06387 335.5322,223.73674C335.01688,224.52414 334.33768,225.07896 334.02203,225.86824C333.69159,226.69452 333.63208,227.54579 333.21002,228.14291C332.67822,228.89529 332.28561,229.68532 331.69019,230.45741C331.2207,231.06621 330.38232,231.68385 330.08337,232.62158C329.82849,233.42114 329.8161,234.37968 329.30685,234.95758C328.65436,235.69803 328.24692,236.44147 328.01135,237.23674C327.73343,238.17496 326.76886,238.358 326.29669,239.05891C325.8179,239.76964 325.57864,240.65309 325.09537,241.45624C324.64734,242.20082 323.60901,242.36874 323.13287,243.13625C322.73373,243.77963 322.29315,244.54442 321.65955,244.95758C320.76077,245.54366 320.19199,246.12062 320.04736,247.07225C319.90564,248.00471 320.06802,248.82451 319.72604,249.74158C319.45929,250.45692 318.82935,251.18069 318.36853,251.95308C317.92728,252.69267 317.21085,253.24927 317.01587,253.96208C316.76987,254.8614 316.76678,255.76228 316.4007,256.43225C315.86868,257.40582 315.22238,257.87689 314.62204,258.66824C314.09213,259.36673 314.133,260.29147 313.8447,261.09091C313.55325,261.89905 313.14767,262.71298 312.65421,263.56207C312.28677,264.19427 311.66238,264.88599 311.36853,265.60492C310.96005,266.60425 310.78693,267.57764 310.51135,268.25757C310.17422,269.08939 310.01361,270.01025 310.01135,270.91025C310.00961,271.60492 310.2641,272.65778 310.00687,273.55307C309.78622,274.32098 309.01675,274.86819 309.01135,275.66824C309.00519,276.57889 309.11545,277.4809 308.72736,278.37225C308.40442,279.11398 308.20438,279.98627 307.97537,280.85757C307.75046,281.71341 306.61267,281.7919 306.09671,282.54156C305.59393,283.27206 305.56339,284.00803 305.03671,284.69357C304.53455,285.3472 304.53473,286.51694 303.8447,287.09091C303.19135,287.63437 302.07495,287.66031 301.29669,287.17224C300.5563,286.70792 300.24146,285.90121 299.7897,285.15756C299.37061,284.46768 298.55075,284.0108 297.8367,283.69357C296.80206,283.23392 296.16159,282.80847 295.98602,282.07224C295.76248,281.1348 295.05414,280.80432 294.29669,280.17358C293.57245,279.5705 293.14795,278.93152 292.58603,278.2829C292.07672,277.69501 292.19257,276.61804 291.49054,276.27841C290.62701,275.86069 290.38373,275.59583 289.99054,274.75757C289.65509,274.04248 288.70041,273.64166 287.81268,273.3429C286.9993,273.06915 286.24777,272.94644 285.65869,272.31024C285.12573,271.73465 284.42532,271.37466 283.71136,270.90042C282.91968,270.37454 282.45413,269.61172 281.71136,268.96207C281.04691,268.38089 280.19324,268.08774 280.01135,267.25757C279.85382,266.53857 278.92654,266.44537 278.03302,266.03607C277.28946,265.69547 277.14185,264.5578 276.4007,264.26825C275.51166,263.92093 275.01709,263.43948 274.21002,263.25891C273.31873,263.05951 272.5506,263.11902 271.92737,262.54156C271.23663,261.90155 271.33975,260.97327 270.79004,260.37909C270.22617,259.76962 270.24582,259.16208 269.79019,258.37909C269.70178,258.22717 270.35541,257.64371 271.21136,257.3429C271.97037,257.07614 272.81137,257.25757 273.71136,257.25757C274.61136,257.25757 275.73318,257.25589 275.95419,256.54773C276.19531,255.77507 276.01135,254.66824 276.01135,253.77841C276.01135,252.90041 275.93555,251.93402 276.17804,251.09091C276.37366,250.41086 276.91782,249.4357 277.0007,248.66824C277.09851,247.76279 276.87805,246.84697 277.01587,245.95758C277.16025,245.02589 277.81235,244.45726 278.49054,243.77841C279.09506,243.17329 279.47089,242.45187 280.0007,241.69357C280.39313,241.13191 280.93088,240.58209 281.44736,239.85757C282.00735,239.07202 282.80917,238.60623 282.99054,237.75758C283.17868,236.87721 283.01126,235.95758 283.01135,235.05757C283.01144,234.15775 283.31448,233.45917 284.17804,233.25758C284.9584,233.07541 285.68192,232.45073 285.99054,231.73674C286.33948,230.92952 285.75781,229.69055 286.44736,229.29358C287.19305,228.86429 288.08893,228.83151 288.58603,228.23224C289.09613,227.61728 289.01135,226.65758 289.0322,225.77841L289.65869,225.20491L290.01135,224.42424" id="svg_11" stroke-width="3" stroke="#000" fill="none"/>
  <path t="77165,77421,77438,77454,77454,77454,77455,77471,77471,77471,77488,77488,77488,77505,77505,77521,77556,77572,77588,77588,77605,77623,77655,77655,77672,77688,77688,77705,77722,77743,77743,77758,77772,77790,77822,77856,77856,77872,77889,77889,77906,77906,77923,77939,77939,77956,77956,77973,77973,77990,78006,78006,78023,78040,78040,78056,78056,78073,78073,78090,78107,78123,78124,78140,78157,78190,78190,78207,78224,78240,78257,78257,78275,78292,78308,78325,78342,78358,78391,78409,78425,78446,78462,78475,78494,78509,78525,78526" d="M280.01135,233.25758C279.92603,234.05891 279.47,234.80453 278.67804,235.42424C278.02283,235.93694 277.47656,236.23705 276.77936,236.85892C275.93579,237.61137 275.53134,238.27789 275.12869,238.94292C274.52609,239.93814 274.23419,240.4986 273.66403,241.19058C272.95346,242.05299 272.2309,242.36832 271.44736,242.83224C270.67108,243.29187 269.61679,243.40845 269.17804,244.25758C268.84821,244.89595 268.8176,245.74495 268.29538,246.34158C267.62302,247.10976 267.44595,247.90555 266.71136,248.55307C266.04913,249.13681 265.21542,249.34848 264.51135,249.75758C263.72034,250.21721 263.27039,250.88173 262.95871,251.55225C262.58664,252.35274 261.58173,252.43124 260.95871,252.90491C260.24387,253.44838 259.62363,253.95244 259.36404,254.60941C258.97189,255.60187 258.57751,256.37085 257.99054,256.75757C257.04694,257.37924 256.41199,257.83496 256.03671,258.65756C255.67976,259.43994 255.25082,260.01587 254.52736,260.74158C254.01218,261.25836 253.22328,262.14151 252.64737,262.6109C251.86623,263.24756 250.87126,263.29144 250.36853,263.96207C249.83406,264.67505 249.8399,265.60355 249.4007,266.43225C248.96001,267.26373 248.41405,267.84958 247.71136,268.55759C247.21326,269.05948 246.4503,269.71497 246.06403,270.55759C245.71169,271.3262 245.17987,271.90088 244.31137,272.31024C243.49867,272.6933 242.91632,273.5191 242.30687,273.90491C241.48558,274.4248 240.44226,274.59308 240.13286,275.35757C239.79216,276.1994 240.20731,277.09201 239.95419,277.95758C239.69756,278.83521 239.12064,279.59668 238.58603,280.23224C238.03983,280.88159 237.6235,281.56879 236.8447,282.09091C236.13881,282.56415 235.46605,282.70734 234.72603,283.17224C233.94917,283.66028 233.09537,283.54156 232.57536,284.22159L231.71136,284.26208L230.8127,284.54291L230.29669,285.0589" id="svg_14" stroke-width="3" stroke="#000" fill="none"/>
  <path t="79625,79830,79848,79864,79865,79865,79880,79880,79880,79897,79898,79914,79914,79932,79948,79967,79967,79983,79998,80014,80032,80065,80082,80127,80127,80143,80160,80182,80199,80199,80216,80233,80255,80255,80283,80299,80316,80333,80333,80350,80365,80383,80400,80400,80416,80433,80433,80450,80482,80483,80500,80517,80517,80534,80550,80567,80567,80584,80584,80600,80617,80634,80651,80668,80684,80701,80719,80734,80734,80759,80839,80879,80917,80935,80952,80952,80967,80967,80985,81002,81002,81019,81034,81034,81068,81086,81086,81101,81102,81119,81136,81151,81152,81169,81186,81203,81219,81235,81236,81271,81462,81521,81543,81567,81622,81663,81688,81703,81720,81721,81738,81754,81755,81770,81771,81787,81788,81823,81839,81863,81872,81904,81922,82465,82519,82541,82557,82574,82767,82767,82800,82808,82825,82841,82857,82875,82892,82911,82924,83036,83071,83140,83191,83223,83368,83393,83410,83426,83447,83447,83471,83479,83493,83511,83528,83561,83561,83577,83822,83847,83916,83959,83979,83995,83996,84077,84087,84343,84364,84380,84396,84397,84414,84446,84463,84464,84799,84815,84832,84871,84881,84899,84950,85367,85391,85407" d="M273.01135,263.25757C272.29538,265.42557 272.10538,266.34467 271.67804,267.25757C271.37775,267.89911 270.79364,268.4324 270.17804,269.25757C269.60568,270.02472 269.33563,270.6814 268.52737,271.37225C267.89032,271.91678 267.07681,272.42178 266.42203,272.82156C265.56027,273.34772 264.70761,273.61069 264.01135,274.25757C263.40811,274.81805 262.61404,275.22308 262.01135,275.75757C261.42883,276.27417 260.68927,276.7193 260.13287,277.47891C259.65756,278.12784 259.04468,278.47818 258.41138,278.83224C257.55011,279.31378 256.64188,279.29498 255.99052,279.75757C255.32077,280.23322 254.46658,280.28012 253.64737,280.68292C252.77748,281.11066 251.97598,281.3811 251.31137,281.96207C250.6797,282.51425 249.99072,283.24716 249.15002,283.25757C248.1781,283.26959 247.42201,283.25217 246.51137,283.25757C245.61131,283.26291 244.77498,283.71951 244.01137,284.09091C243.25746,284.45761 242.53107,284.79938 241.81137,285.45624C241.22685,285.98972 240.29611,286.22714 239.44203,286.25891C238.65808,286.28806 237.75203,286.59583 237.01137,287.25757C236.39729,287.80621 235.59885,288.10718 234.71136,288.26208C233.78175,288.42435 233.13997,289.02615 232.3587,289.2049C231.50662,289.39984 230.64821,289.68436 229.8127,290.17358C229.06477,290.61151 228.57587,291.23956 227.61136,291.25757C226.71152,291.27435 225.81137,291.25757 224.91136,291.25757C224.01137,291.25757 223.21136,291.25757 222.31137,291.25757C221.41136,291.25757 220.52061,291.39526 219.65421,291.25308C218.77795,291.10928 218.02382,290.3475 217.2542,290.26208C216.36412,290.1633 215.46333,290.24319 214.64737,289.83224C213.87529,289.44339 213.12604,289.25824 212.18604,289.25757C211.17802,289.25684 210.35747,289.28784 209.6497,288.90491C208.82509,288.45874 208.01154,288.26801 207.03287,288.25757C206.21274,288.24884 205.31137,288.25757 204.49052,288.25757C203.52736,288.25757 202.66403,288.25757 201.76852,288.25757C200.8127,288.25757 200.03581,288.09549 199.3647,287.68292C198.5948,287.20963 197.66405,287.25983 196.76852,287.25757C195.81403,287.25516 195.72037,287.25757 196.61136,287.25757C197.51137,287.25757 198.41136,287.25748 199.30687,287.25757C200.2327,287.25766 200.82529,287.68146 201.29669,288.45758C201.70752,289.13397 202.38272,289.71072 203.17802,290.25757C203.8085,290.6911 204.905,290.94537 205.60069,291.31891C206.29979,291.69424 206.54472,292.81134 207.41136,293.18558C208.24026,293.54352 209.35989,293.04102 209.95419,293.61023C210.48351,294.11719 211.12112,294.70059 211.00687,295.55759C210.88249,296.49045 210.19125,297.17377 209.4007,297.25757C208.49559,297.35352 206.77858,296.50592 206.77837,297.25757C206.77827,297.59039 207.75021,297.70258 208.36853,298.2049C209.07201,298.77637 209.81702,299.22189 210.5322,299.75757C211.24951,300.29486 212.21999,300.13348 213.11119,300.25775C213.91295,300.36957 214.10005,301.36197 214.01137,302.25757C213.92763,303.10327 212.92072,303.31912 213.01137,304.25757C213.09308,305.10349 213.61963,305.76886 214.37303,306.20041C215.20724,306.67825 216.01846,306.14011 216.9897,306.25775C217.91006,306.36923 218.29372,307.21484 219.21004,307.25757C220.09441,307.2988 221.01137,307.25757 221.81137,307.25757C222.71136,307.25757 223.78003,307.19943 224.00687,307.96207C224.26218,308.8204 223.96581,309.81073 223.4007,310.31891C222.69925,310.94971 222.48061,311.84036 221.51137,312.21591C220.6812,312.5376 220.29669,312.25748 221.21136,312.25757C222.11136,312.25766 222.97961,312.47537 223.61136,312.83224C224.45398,313.30823 225.41544,313.46494 225.8447,314.25757C226.20535,314.92352 226.80406,315.4953 227.01154,316.35742C227.21371,317.19754 227.75052,317.86526 228.44736,318.22159C229.29718,318.65616 229.99052,318.77841 230.01137,319.65756L230.01137,320.55759L230.01137,321.45758" id="svg_15" stroke-width="3" stroke="#000" fill="none"/>
  <path t="86903,87567,87583,87599,87615,87631,87631,87674,87692,87709,87727,87751,87759,87775,87792,87792,87809,87841,87858,87875,87892,87911,87911,87925,87942,87959,87976,87992,87993,88042,88076,88093,88110,88127,88143,88160,88160,88177,88194,88194,88210,88226,88244,88276,88294,88294,88326,88327,88344,88344,88361,88377,88378,88393,88411,88428,88444,88461,88461,88478,88495,88495,88510,88527,88528,88545,88545,88561,88562,88577,88594,88595,88611,88627,88627,88644,88661,88662,88679,88694,88711,88728,88729,88744,88763,88763,88779,88831,88846,88871,88934,88956,88983,88996,89012,89030,89101,89111,89129,89151" d="M230.01137,323.25757C230.01137,321.42426 230.85159,321.3746 231.49052,320.73676C232.13383,320.09454 232.20003,319.12958 232.71587,318.55759C233.37167,317.83038 234.31059,317.4928 234.92737,316.97357C235.58875,316.41681 236.34239,316.07074 236.8447,315.25757C237.31636,314.49399 238.01224,314.29477 238.81137,314.25757C239.729,314.21484 240.00929,313.30029 240.8127,313.25757C241.7101,313.20984 242.55159,313.2995 243.49536,312.97357C244.20364,312.72897 245.25504,312.54602 245.92737,311.97357C246.53107,311.45956 247.26823,311.42035 248.11136,311.03625C248.89139,310.68091 249.68346,310.3154 250.36853,309.90491C251.14922,309.43713 252.16539,309.58026 252.89003,309.03625C253.53377,308.55298 254.04544,307.92639 254.81137,307.54156C255.59729,307.1467 256.56937,307.552 257.44202,307.17224C258.16229,306.8588 258.33865,305.65659 259.21002,305.3429C260.12436,305.01373 260.87408,304.61221 261.72604,304.62692C262.6145,304.64227 263.24417,305.15051 264.12604,305.54156C264.86557,305.86951 265.64731,306.25223 266.49536,306.25757C267.35867,306.263 268.37634,306.29764 269.21002,306.25757C270.09845,306.21484 270.75031,305.53156 271.66403,305.31024C272.34689,305.14484 273.1922,304.78702 274.11136,304.37891C274.77811,304.08289 275.61349,303.58209 276.4967,303.34158C277.20447,303.14883 278.25458,303.12888 278.9697,302.73676C279.83487,302.26236 280.01889,301.40259 280.62204,300.65756C281.2402,299.89401 281.81137,299.45758 282.51135,298.75757C283.11136,298.15756 283.71136,297.55759 284.41138,296.85757C285.01135,296.25757 285.6572,295.70032 286.30685,294.95758C286.88806,294.29312 286.97635,293.3212 287.72119,292.90491C288.33783,292.56027 289.58521,292.4231 289.92603,291.68823C290.25702,290.97458 289.70483,289.64395 290.29669,289.25757C291.06149,288.7583 291.74927,288.64737 292.44736,288.29358C293.21872,287.90265 294.4917,288.58344 294.95419,287.90042C295.48145,287.12177 295.43671,286.2829 295.99054,285.73676L296.02203,284.85757L296.29669,284.0589L297.01135,283.42426" id="svg_16" stroke-width="3" stroke="#000" fill="none"/>
  <path t="94302,94471,94495,94511,94519,94535,94551,94551,94567,94582,94599,94639,94648,94671,94682,94699,94716,94735,94756,94769,94815,94815,94833,94849,94866,94911,94927,94935,94959,94975,94983,95015,95034,95066,95087,95087,95103,95127,95143,95151,95168,95184,95239,95251,95268,95303,95319,95351,95368,95430,95487,95630,95687,95703,95720,95791,95836,95855" d="M181.01137,332.25757C182.81137,332.25757 183.61137,332.26288 184.51137,332.25757C185.41141,332.25223 186.24776,331.79565 187.01137,331.42426C187.76529,331.05759 188.61397,330.64957 189.21004,330.0589C189.89304,329.38211 190.72354,329.65118 191.57536,329.22159C192.27419,328.86917 192.96605,328.68616 193.72603,328.17224C194.39342,327.72095 194.55553,326.51849 195.41136,326.29358C196.2827,326.06458 197.16325,325.89734 197.81137,325.54156C198.60696,325.10483 199.10945,324.46512 199.58603,323.69357C200.02585,322.98154 200.67484,322.44763 200.99052,321.73676C201.37985,320.86008 201.70163,320.60135 202.49052,320.23676C203.26155,319.88043 203.61595,319.09061 204.2327,318.37875C204.79976,317.72424 204.84952,317.05786 205.0127,316.14426C205.16219,315.30731 206.49043,315.58255 206.95419,314.90042C207.42847,314.20282 207.40573,313.53796 208.29536,313.25626C209.06799,313.0116 209.53389,312.30295 210.02203,311.83224C210.61481,311.26065 211.06288,310.43842 211.8127,310.25891C212.70493,310.04532 213.22659,309.31848 214.11136,309.25757C215.00925,309.19577 215.8447,309.09091 216.01137,308.25757L216.17802,307.42426L216.92737,306.97357L217.36403,306.31024" id="svg_17" stroke-width="3" stroke="#000" fill="none"/>
  <path t="97745,98142,98161,98177,98207,98215,98228,98245,98263,98279,98580,98631,98647,98663" d="M225.01137,289.25757C225.92603,288.97223 225.78278,288.03723 226.29536,287.34158C226.80443,286.6507 227.59192,286.56497 228.4007,286.24692C229.12645,285.96152 228.71518,284.70303 229.02203,283.86826C229.28645,283.14893 230.02203,282.83224 230.51137,282.25757L231.06403,281.61023" id="svg_18" stroke-width="3" stroke="#000" fill="none"/>
  <path t="105249,105436,105436,105505,105543,105554,105607,105607,105621,105647,105671,105687,105705,105743,105775,105807,105822,105838,105855,105871,105887,105905,105922,105975,106021,106039,106039,106056,106072,106089,106135,106135,106158,106183,106215,106240,106256,106273,106290,106335,106359,106374,106406,106422,106440,106457,106474,106489,106510,106524,106558,106558,106574,106606,106623,106641,106662,106674,106691,106708,106724,106724,106757,106775,106775,106814,106825,106841,106857,106875,106934,106959,106990,106990,107009,107026,107041,107062,107078,107091,107109,107126,107143,107166,107166,107176,107193,107210,107226,107243,107260,107276,107293,107310,107327,107343,107366,107382,107398,107452,107652,107937,107979,107995,108014,108039,108046,108063,108086,108087,108103,108135,108182,108198,108247,108263,108279,108296,108313,108329,108358,108367,108406,108439,108532,108599,108650,108665,108799,108815,108832,108855,108879,108898,108899,108927,108951,109049,109083,109117,109133,109167,109279,109382,109398,109417,109434,109450,109494,109494,109502,109553,109585,109637,110014,110054,110070,110086,110103,110120,110120,110150,110202,110220,110237,110255,110295,110356,110407,110421,110437,110454,110471,110471,110488,110521,110543,110555,110591,110605,110621,110638,110638,110655,110672,110695,110705,110743,110783,110806,110839,110855,110872,110873,110940,110955,110955,110972,110989,111006,111047,111063,111087,111158,111199,111207,111223,111247,111257,111274,111291,111311,111311,111327,111359,111374,111391,111407,111424,111441,111458,111458,111475,111491,111508,111525,111559,111583,111607,111647,111663,111675,111695,111743,111760,111811,111826,112064" d="M163.01137,72.25758C162.01137,72.25758 161.21094,72.28557 160.29669,72.25758C159.36272,72.22898 158.95956,71.4012 158.01137,71.25758C157.22038,71.13777 156.31131,71.26824 155.41136,71.25758C154.53201,71.24715 154.16039,70.52607 153.57536,69.86824C152.95921,69.17541 151.91136,69.25758 151.01137,69.25758C150.17802,69.25758 149.96117,68.42728 149.21004,68.25891C148.33127,68.06194 147.56567,67.71549 147.06403,66.96207C146.6051,66.27282 145.70483,66.36452 144.81137,66.25624C143.8916,66.14477 143.35728,65.44771 142.41136,65.26824C141.52708,65.10047 140.5524,65.43626 139.78987,65.03625C139.11493,64.68218 138.31119,64.27662 137.41136,64.25758C136.4469,64.23716 136.01707,63.43949 135.21004,63.25891C134.33305,63.06268 133.44736,63.25758 132.57536,63.25758C131.61136,63.25758 130.70161,63.41452 129.8447,63.25758C129.05646,63.11321 128.53737,62.36383 127.81136,61.97358C126.95658,61.51411 126.45697,60.83989 125.78986,60.37908C125.06017,59.87503 124.01051,60.29477 123.21136,60.25758C122.29372,60.21486 121.77929,59.4398 120.91153,59.25741C120.11922,59.09088 119.65565,58.28625 118.81136,58.25758C117.91205,58.22703 117.25008,57.89594 116.78986,57.15775C116.34276,56.44058 115.36104,56.27525 114.52737,55.97358C113.82275,55.7186 112.78533,55.52461 112.09537,54.97358C111.42647,54.43937 110.61649,54.38005 110.04736,53.83224C109.5457,53.34938 108.72537,53.47861 107.91153,53.03608C107.16908,52.63236 106.96854,51.59864 106.30686,51.20491C105.52257,50.73822 104.68484,50.48069 103.8127,50.25624C103.0118,50.05013 102.55916,49.429 101.61137,49.24691C100.78196,49.08757 100.25938,48.22668 99.95869,47.55758C99.5861,46.72845 98.67226,46.36685 98.0367,45.83224C97.38734,45.28604 97.10419,44.44814 96.57536,43.86824C95.95061,43.18315 94.91153,43.25758 93.98603,43.25758C93.21003,43.25758 92.17551,43.37568 91.5322,42.73674C90.88998,42.0989 90.61481,41.2545 90.02203,40.68291C89.53389,40.21221 88.95056,39.64603 89.4367,40.23224C89.93323,40.83099 89.80933,41.77251 90.36853,42.55308C90.85665,43.23443 91.92763,43.41188 92.01137,44.25758C92.0902,45.05368 91.60015,46.08015 92.06853,46.90041C92.53286,47.71357 93.24909,48.05028 94.1112,48.25774C94.95132,48.45992 95.49564,49.08416 96.01137,49.77841C96.52005,50.46318 97.11565,51.1077 98.01137,51.25758C98.84955,51.39783 99.37383,51.97116 99.9542,52.61024C100.44613,53.15194 101.44122,52.90582 101.92603,53.54291C102.48161,54.27299 102.62158,54.99546 102.97536,55.69358C103.36626,56.46493 103.09349,57.46135 103.0112,58.35758C102.92751,59.26902 102.21638,59.9113 102.0322,60.75758C101.84295,61.62711 101.5479,62.37489 101.01586,62.90491C100.52173,63.39717 100.01203,63.97358 100.01137,64.86824C100.01071,65.75758 100.27919,66.69997 100.00687,67.55308C99.74494,68.37359 99.09026,68.93192 98.57536,69.65758C98.09885,70.32915 97.30285,70.65002 96.5322,71.25758C95.90731,71.75021 95.79466,72.57815 95.36403,73.31024C94.95714,74.00197 96.24377,73.82332 96.8447,74.42424C97.44563,75.02517 97.21992,76.00096 98.01137,76.42424C98.76015,76.8247 99.50327,77.22199 100.02203,77.68291C100.63763,78.22984 101.57214,78.2122 102.0367,78.86824C102.54544,79.58669 103.22285,80.09084 104.1112,80.25774C104.90691,80.40724 105.35934,81.21117 105.9967,81.68291C106.71152,82.21198 107.31395,82.51069 108.09403,82.97358C108.91988,83.46362 109.95284,82.90532 110.6587,83.31474C111.46653,83.78332 112.19135,83.88078 112.8447,84.42424C113.53471,84.99821 113.80576,85.74889 114.49053,86.25758C115.18478,86.77329 115.8127,87.2569 116.71136,87.25758C117.61137,87.25825 118.53227,87.0659 119.4007,87.25758C120.05952,87.403 120.45747,88.23958 121.3327,88.25758C122.18585,88.27512 123.12603,88.25758 124.01137,88.25758C124.81136,88.25758 125.83479,87.84487 126.6542,88.31474C127.34203,88.70918 128.14958,88.93533 128.8447,89.42424C129.55899,89.92664 130.18436,90.15501 131.01137,90.25758C131.91058,90.36909 132.32503,91.01713 133.21004,91.25891C134.0078,91.47686 134.39861,92.27886 135.0322,92.75758C135.68567,93.25132 136.5287,93.2569 137.5647,93.25758C138.44736,93.25815 139.4007,93.26824 140.01137,93.75758C140.62202,94.24691 141.58095,94.14613 142.31137,94.61475C143.11128,95.12794 143.54514,95.99873 144.41136,96.22158C145.28369,96.44601 146.30925,96.09824 146.95869,96.61024C147.5733,97.09479 148.32288,97.10667 149.30687,97.25758C150.03694,97.36954 150.39824,98.16341 150.98604,98.68291C151.56886,99.19801 152.49052,99.27841 153.0367,99.83224L153.71587,100.25307L154.61136,100.25758L155.53937,100.25758" id="svg_19" stroke-width="3" stroke="#000" fill="none"/>
  <path t="113497,113816,113866,113883,113899,113916,113933,113950,113950,113966,113966,114016,114016,114033,114050,114067,114083,114119,114150,114167,114184,114200,114200,114217,114239,114251,114267,114284,114301,114317,114351,114368,114420,114435,114435,114471,114503,114518,114535,114551,114568,114585,114631,114631,114639,114663,114679,114719,114735,114752,114770,114786,114802,114820,114852,114869,114886,114903,114919,114919,114936,114936,114953,114969,114986,115007,115039,115053,115070,115103,115120,115137,115153,115170,115187,115204,115204,115220,115220,115254,115271,115294,115319,115337,115337,115355,115388,115405,115423,115439,115454,115488,115521,115521,115539,115556,115573,115589,115606,115623,115639,115656,115656,115678,115758,115790,115790,115805,115823,115840,115857,115878,115910,115924,115974,115974,115999,116040,116063,116095,116108,116125,116158,116158,116175,116192,116208,116225,116242,116263,116292,116325,116343,116359,116537,116560,116560" d="M96.01137,77.25758C96.01137,78.95758 96.01137,79.85757 96.01137,80.75758C96.01137,81.65758 96.11839,82.56413 96.01003,83.45758C95.89847,84.37753 95.27986,84.99705 94.81136,85.74158C94.38629,86.4171 93.91347,87.49206 93.31136,87.89591C92.50909,88.43403 91.57393,88.32293 90.98603,88.83224C90.33742,89.39415 89.86382,89.90775 89.17803,90.42424C88.47991,90.95001 87.85709,91.0743 87.01137,91.42424C86.22674,91.7489 85.51152,92.2449 84.61137,92.25758C83.71594,92.27019 83.20488,92.92896 82.49053,93.23674C81.59108,93.62428 80.62203,93.25758 79.72603,93.25758C78.81136,93.25758 77.91136,93.25758 77.01137,93.25758C76.21136,93.25758 75.31136,93.25758 74.41136,93.25758C73.51137,93.25758 72.61137,93.25758 71.71136,93.25758C70.8127,93.25758 69.95869,93.25758 69.01137,93.25758C68.21136,93.25758 67.31136,93.25758 66.41136,93.25758C65.51137,93.25758 64.61137,93.25758 63.71136,93.25758C62.81136,93.25758 61.91137,93.25758 61.01136,93.25758C60.17803,93.25758 59.36403,93.25758 58.49053,93.25758C57.51136,93.25758 56.60843,93.32478 55.81003,93.25624C54.83423,93.17246 54.2188,92.73941 53.17803,92.42424C52.43924,92.20051 51.45058,92.30295 50.98603,91.64691C50.47729,90.92847 49.79466,90.44999 48.91153,90.25741C48.06726,90.0733 47.65548,89.28687 46.71136,89.25758C45.81313,89.2297 45.33474,88.68873 44.57536,88.29358C43.80825,87.89441 42.78547,88.36324 41.8447,88.09091C41.17063,87.89579 40.57027,87.1003 40.01403,86.54291C39.53621,86.06409 38.47663,86.31048 37.71136,85.90491C36.86547,85.45661 36.0105,85.29478 35.21136,85.25758C34.29372,85.21486 33.69839,84.50576 33.09536,83.97358C32.45353,83.40715 31.71136,83.25758 30.8127,83.25758C29.92603,83.25758 29.01096,83.28294 28.21136,83.25758C27.31001,83.22898 26.58879,82.57207 25.71136,82.31474C24.84719,82.06129 24.20755,81.75832 23.57537,81.28291C22.9166,80.78751 22.0192,80.38029 21.21136,80.25891C20.3028,80.1224 19.85707,79.34132 19.01136,79.25758C18.21526,79.17875 17.34178,79.14713 16.92736,78.45625C16.45061,77.66143 15.6119,77.27558 14.71136,77.25758C13.81155,77.23959 12.91136,77.25758 12.01136,77.25758C11.21136,77.25758 10.74123,76.8515 10.0007,76.29358C9.36855,75.81731 8.18794,76.67028 7.36853,76.20041C6.6807,75.80598 6.01136,75.25758 5.21136,75.25758C4.31136,75.25758 3.41762,75.24234 2.9587,74.55308C2.45706,73.79966 1.71273,73.28617 0.8127,73.25758C-0.04087,73.23045 -0.93646,73.28654 -1.78997,73.25758C-2.63292,73.22897 -2.82197,72.42424 -1.98864,72.09091L-1.28864,71.61024" id="svg_20" stroke-width="3" stroke="#000" fill="none"/>
  <path t="117386,118015,118048,118115,118213,118213,118228,118248,118295,118331,118351,118351,118367,118386,118405,118433,118433,118455,118467,118467,118532,118551,118591,118615,118716,118742,118742,118783,118783,118800,118817,118817,118834,118866,118886,118900,118917,118935,118951,118967,118984,118984,119001,119034,119102,119150,119182,119202,119222,119254,119303,119326,119335,119358,119420,119436,119486,119503,119519,119542,119604,119620,119654,119671,119695,119871,119920,120019,120034,120106,120204,120319,120350,120359,120374,120406,120423,120423,120423,120423,120439,120439,120875,120941,121074,121118,121126,121142,121158,121174,121191,121208,121225,121242,121242,121259,121275,121292,121309,121326,121342,121342,121359,121376,121393,121409,121410,121426,121426,121443,121459,121476,121495,121510,121543,121559,121577,121593,121610,121610,121631,121643,121662,121686,121694,121734,121750,121759,121759,121776,121794,121810,121826,121844,121860,121877,121894,121911,121934,121934,121974,122006,122014,122038,122054,122062,122062,122086,122118,122128,122144,122166,122178" d="M108.01137,49.25758C108.01137,47.55758 107.76597,46.81973 107.17803,46.09091C106.6145,45.39235 106.60062,44.55727 106.01137,43.77841C105.54773,43.16559 104.53917,42.97198 104.1327,42.15758C103.71071,41.31207 103.25019,40.71992 103.0322,39.75758C102.83331,38.87958 103.01137,37.95758 103.01137,37.05624C103.01137,36.37224 103.01137,35.43224 103.01137,34.42424C103.01137,33.61924 102.81065,32.84908 102.29536,32.17358C101.82774,31.56055 101.72341,30.76909 101.1327,30.03608C100.61185,29.38976 100.21819,28.66424 100.0112,27.81474C99.79559,26.92985 99.51462,26.08887 99.17803,25.25758C98.87145,24.50038 99.01294,23.5399 98.4007,23.22158C97.62401,22.81775 97.22512,21.96626 96.6587,21.31024C96.14722,20.71786 96.03396,19.9448 95.58603,19.27224C95.09306,18.53206 94.8574,17.88689 94.29536,17.17491C93.71116,16.43485 93.19938,15.769 92.57536,15.28291C91.8332,14.70478 91.53606,13.99659 90.8447,13.42424C90.17433,12.86928 89.20962,13.28478 88.31136,13.25758C87.36723,13.22898 86.80259,12.69814 86.1327,12.03624C85.51595,11.42685 85.20142,10.5941 84.49053,10.27841C83.61385,9.8891 83.07475,9.48278 82.30686,9.26208C81.4462,9.0147 80.29832,9.37618 80.02203,8.64691C79.68427,7.75535 79.57536,7.25758 78.61137,7.25758C77.71136,7.25758 76.71072,7.43813 76.09537,6.97358C75.41216,6.45779 74.68968,6.45247 73.8127,6.25624C73.00565,6.07566 72.50158,5.26756 71.94887,4.71591C71.3336,4.10183 70.6039,3.59492 69.99053,3.27841C69.07303,2.80496 68.07999,2.3516 67.32487,2.26658C66.41705,2.16436 65.51137,2.25758 64.61137,2.25758C63.71136,2.25758 62.81136,2.25758 61.91137,2.25758C61.01136,2.25758 60.16713,2.20972 59.49053,1.75758C58.74538,1.25962 57.75407,1.42127 56.91137,1.03624C56.24207,0.73044 55.41141,0.26291 54.51136,0.25758C53.61138,0.25224 52.70483,0.36453 51.81136,0.25624C50.8916,0.14477 50.35728,-0.55229 49.41137,-0.73176C48.52708,-0.89953 47.70686,-0.74242 46.69003,-0.74242C46.01136,-0.74242 44.99389,-0.56381 44.2127,-0.82776C43.32318,-1.12831 42.59879,-1.59162 41.71136,-1.74692C40.78432,-1.90916 40.13944,-2.67281 39.4007,-2.74242C38.51505,-2.82588 37.80806,-3.28562 36.91137,-3.62092C36.06073,-3.93901 35.21136,-3.74242 34.31136,-3.74242C33.41137,-3.74242 32.51136,-3.74242 31.61136,-3.74242C30.71586,-3.74242 29.78987,-3.74242 28.91137,-3.74242C28.01136,-3.74242 27.21136,-3.74242 26.31137,-3.74242C25.41137,-3.74242 24.51136,-3.74242 23.61136,-3.74242C22.71136,-3.74242 21.81137,-3.74242 20.91153,-3.74242C20.01136,-3.74242 19.2497,-3.74242 18.3587,-3.74242C17.49537,-3.74242 16.5322,-3.74242 15.61136,-3.74242C14.71136,-3.74242 13.81137,-3.74242 12.91136,-3.74242C12.01136,-3.74242 11.21136,-3.74242 10.2967,-3.74242C9.4007,-3.74242 8.51136,-3.74242 7.61136,-3.74242L6.71136,-3.74242L5.81136,-3.74242" id="svg_21" stroke-width="3" stroke="#000" fill="none"/>
  <path t="128213,128653,128653,128685,128703,128735,128869,129119,129137,129137,129154,129175,129187,129204,129231,129239,129271,129287" d="M100.01137,237.25758C100.01137,236.25758 100.03861,235.45717 100.01137,234.55757C99.98277,233.61345 99.40537,233.13014 98.92603,232.54158C98.37457,231.86446 98.01137,231.25758 98.01137,230.45758C98.01137,229.55757 97.61315,228.55501 98.04736,227.69357C98.39964,226.99471 99.01003,226.45624 99.09669,225.54291L99.8447,225.09091L100.01137,224.25758" id="svg_22" stroke-width="3" stroke="#000" fill="none"/>
  <path t="131809,131974,131997,132013,132030,132047,132047" d="M38.01136,327.25757C37.30687,327.96207 36.62203,328.65756 36.1327,329.35742L35.78986,330.13623L34.91153,330.47906L34.36853,330.96207" id="svg_23" stroke-width="3" stroke="#000" fill="none"/>
  <path t="133308,133494,133494,133518,133518,133535,133551,133551,133583,133583" d="M86.01137,327.25757C86.01137,328.25757 85.87553,329.09955 85.1607,329.65756C84.60445,330.0918 83.9607,330.89359 83.44203,331.74023L82.99053,332.23676L82.17803,332.92426L81.45803,333.23624" id="svg_24" stroke-width="3" stroke="#000" fill="none"/>
  <path t="144207,144367,144407,144424,144441,144441,144457,144457,144474,144495,144540,144557,144557,144573,144590,144607,144640,144640,144657,144674,144691,144707,144724,144724,144774,144791,144791,144808,144824,144841,144858,144858,144874,144892,144909,144925,144941,144958,144975,144992,144992,145008,145025,145047,145058,145079,145092,145111,145125,145142,145159,145176,145192,145209,145209,145226,145259,145276,145276,145293,145309,145326,145360,145376,145399,145423,145439,145455,145487,145511,145527,145567,145583,145607,145615,145627,145655,145663,145703,145711,145751,145761,145778,145807,145815,145845,145871,145887,145895,145927,145959,145999,146012,146039,146081,146112,146129,146145,146196,146214,146230,146302,146326,146412,146428,146479,146502,146518,146534,146550,146566,146613,146630,146647,146663,146694,146714,146730,146747,146747,146764,146780,146797,146814,146831,146847,146870,146898,146915,146964,146981,146998,147022,147031,147066,147066,147083,147083,147098,147118,147133,147149,147149,147174,147215,147215,147238,147265,147282,147282,147300,147333,147350,147350,147350,147366,147384,147517,147585,147600,147600,147617,147634,147651,147667,147667,147684,147684,147701,147726,147735,147783,147822,147835,147851,147868,147885,147903,147918,147919,147958,147968,147985,148002,148022,148035,148069,148069,148086,148102,148119,148136,148136,148152,148169,148186,148203,148223,148236,148253,148271,148287,148303,148335,148353,148370,148387,148439,148454,148529,148545,148599,148615,148639,148654,148671,148695,148695,148705,148721,148743,148759,148771,148788,148805,148805,148822,148855,148879,148879,148889,148906,148922,148939,148959,148972,148989,149006,149006,149022,149039,149063,149072,149095,149111,149123,149139,149156,149173,149190,149207,149223,149240,149256,149273,149290,149307,149324,149340,149367,149383,149391,149415,149431,149455,149455" d="M284.01135,114.25758C284.01135,113.25758 283.82968,112.42001 284.08337,111.62157C284.38089,110.6853 285.24658,110.1421 285.67804,109.42424C286.16373,108.61617 286.62939,107.9472 286.92603,107.05758C287.21198,106.19994 287.05017,105.12402 287.71585,104.61475C288.39337,104.09641 289.25015,103.80836 289.72736,103.17358C290.30362,102.40701 290.01135,101.45758 290.01135,100.55758C290.01135,99.65758 290.12436,98.8539 290.58603,98.19624C291.09991,97.46418 290.9436,96.65562 291.5322,95.77841C292.08401,94.95599 292.78268,94.62128 293.4007,93.85757C294.0025,93.11389 294.4928,92.50179 294.89005,91.81491C295.32538,91.06215 295.61887,90.26454 296.06403,89.55308C296.54813,88.7794 296.81598,87.93774 297.0127,87.05891C297.18109,86.3065 297.86685,85.76146 298.29669,85.05758C298.70914,84.3822 299.72525,83.90379 300.01004,83.08824C300.28397,82.30373 300.35947,81.36253 301.01135,80.75758C301.58206,80.22794 301.9985,79.55299 302.01135,78.65758C302.02399,77.77825 302.66666,77.2098 303.06403,76.55308C303.54187,75.76334 304.31522,75.13396 304.72604,74.45758C305.19745,73.68145 305.86862,73.31281 306.57938,72.97224C307.33591,72.60976 308.04007,71.82791 308.58603,71.23225C309.11609,70.65396 309.68979,69.97234 310.29538,69.34158C310.8454,68.76871 311.50815,68.58514 312.4007,68.24691C313.13245,67.96961 313.70163,67.60132 314.49054,67.23674C315.26154,66.88044 315.81268,66.25825 316.71136,66.25758C317.61136,66.2569 318.7153,66.37266 319.0007,65.64691C319.31876,64.83813 319.76074,64.64644 320.58603,64.22158C321.276,63.86639 321.81268,63.25824 322.71136,63.25758C323.61136,63.25691 324.51135,63.25758 325.4007,63.25758C326.29669,63.25758 327.21136,63.25758 328.11136,63.25758C329.01135,63.25758 329.89005,63.25758 330.71585,63.25758C331.61136,63.25758 332.51135,63.25758 333.41138,63.25758C334.31137,63.25758 335.21136,63.25758 336.11121,63.25758C336.98602,63.25758 337.81268,63.25758 338.71136,63.25758C339.57538,63.25758 340.5322,63.25758 341.41138,63.25758C342.31137,63.25758 343.21997,63.13357 344.11121,63.25774C344.91309,63.36947 345.3812,64.18337 345.98602,64.68291C346.64145,65.22424 347.42874,65.34705 348.03671,65.83224C348.66119,66.3306 349.50314,66.44637 350.09537,66.97358C350.69754,67.50964 351.57178,67.91119 352.31137,68.55308C352.97806,69.13168 353.71191,69.30928 354.51135,69.75758C355.3074,70.20396 355.66711,70.76088 356.02203,71.64691C356.31201,72.37084 357.4007,72.26825 358.01135,72.75758C358.62204,73.24692 359.77393,73.12455 360.01135,73.69358C360.34235,74.4868 360.48697,75.15227 361.31137,75.61024C362.05365,76.0226 362.83481,76.42776 363.09537,77.14424C363.43457,78.077 363.77353,78.74597 364.61136,79.27224C365.36905,79.74815 365.80038,80.51122 366.2327,81.35757C366.56741,82.01289 366.86172,82.94336 367.45404,83.47908C368.05237,84.02023 368.86292,84.56262 369.0127,85.45758C369.14752,86.26328 369.81012,86.91211 370.0007,87.82158C370.18185,88.68605 370.44925,89.58284 370.86203,90.08291C371.43674,90.77911 371.97534,91.61949 372.01135,92.55308C372.04706,93.47839 372.01135,94.35757 372.01135,95.25758C372.01135,96.05758 372.01135,96.95758 372.01135,97.85757C372.01135,98.77841 372.01135,99.57908 372.01135,100.46825C372.01135,101.45724 372.01135,102.21591 372.01135,103.23674C372.01135,104.05891 372.01135,104.95758 372.01135,105.85757C372.01135,106.75758 372.0007,107.6469 371.51135,108.25758C371.02203,108.86823 371.01135,109.75758 371.01135,110.66824C371.01135,111.57874 371.01135,112.39624 371.01135,113.42424C371.01135,114.25758 370.52826,114.86479 370.09671,115.54291C369.60419,116.3168 370.06,117.34286 370.01135,118.25758C369.96863,119.06098 369.31061,119.67982 369.04736,120.65758C368.81311,121.52772 368.58893,122.389 368.01135,122.73674C367.15311,123.25346 367.12756,124.09699 366.49054,124.73674C365.85187,125.37815 365.33893,125.75438 365.0007,126.64691C364.72339,127.37868 364.3551,127.94784 363.99054,128.73674C363.63425,129.50775 363.45935,130.13991 362.89703,130.90041C362.41687,131.5498 361.14465,131.45589 361.01135,132.35741C360.88269,133.22752 360.41364,133.51721 359.97537,134.28291C359.58044,134.97289 358.29785,135.12186 358.02203,135.86824C357.71371,136.7025 358.13089,137.85329 357.44202,138.17224C356.72818,138.50275 355.64236,138.24823 355.01135,138.75758C354.38455,139.26353 353.61584,139.69028 352.81268,140.17358C352.06812,140.62163 351.65195,141.40991 351.29538,142.05757C350.81989,142.92126 350.07358,143.21674 349.30603,143.61475C348.69876,143.92964 348.16122,144.96286 347.4007,145.24692C346.56705,145.55829 345.80807,145.80077 344.91138,146.13608C344.06073,146.45418 343.29355,146.48035 342.8447,147.25758C342.48572,147.87917 341.44211,148.13095 340.71585,148.61024C339.95374,149.11319 340.07901,150.18648 339.49054,150.73674C338.75717,151.42247 337.66119,151.18454 337.03671,151.68291C336.42874,152.16811 335.64227,152.29553 334.99054,152.75758C334.32547,153.2291 333.32556,153.09738 332.49054,153.27841C331.66287,153.45786 330.91766,154.1967 330.01135,154.25758C329.21182,154.31129 328.31137,154.25758 327.41138,154.25758C326.51135,154.25758 325.61136,154.25758 324.71136,154.25758C323.81137,154.25758 322.91138,154.25758 322.01135,154.25758L321.21136,154.25758" id="svg_26" stroke-width="3" stroke="#000" fill="none"/>
  <path t="157167,157428,157486,157537,157569,157591,157623,157766,157982,157990,158020,158021,158038,158038,158038,158054,158054,158071,158071,158088,158088,158119,158159,158172,158205,158222,158246,158290,158290,158356,158423,158440,158491,158523,158567,158567,158639,158663,158687,158706" d="M296.01135,82.25758C295.21002,82.25758 294.31137,82.25758 293.41138,82.25758C292.51135,82.25758 291.62744,82.2401 291.01135,81.75758C290.36957,81.25493 290.09491,81.87227 290.01135,82.73674C289.92764,83.60298 289.49054,84.29923 289.01135,85.25758C288.71136,85.85757 288.31778,86.6608 287.81137,87.65624C287.51508,88.23866 287.00711,89.08775 286.51135,89.75758C285.90631,90.57507 285.40897,91.21593 285.13287,92.23591C284.90723,93.0695 284.52011,93.44595 283.8447,94.09091C283.21265,94.69447 283.01135,95.35757 283.01135,96.25758C283.01135,97.05758 283.38199,97.68659 283.88986,98.47908C284.36829,99.22565 284.23587,100.11621 285.11136,100.25774C286.01489,100.40381 286.71136,100.90491 287.51135,101.23674L288.4007,101.26824L288.99054,101.77841L289.02203,102.64691" id="svg_29" stroke-width="3" stroke="#000" fill="none"/>
  <path t="159593,159790,159790,159877,159909,159967,160186" d="M292.01135,82.25758C293.01135,82.25758 293.81137,82.25758 294.71136,82.25758L295.65421,82.25758L296.36404,82.61024L297.06403,83.25307" id="svg_30" stroke-width="3" stroke="#000" fill="none"/>
  <path t="161478,162017,162035,162052,162068,162084,162101,162325,162340,162387,162453,162502,162588,162606,162655,162670,162686,162910,163020,163063,163089,163106,163106,163127,163189,163288,163372,163422,163439,163439,163456,163456,163473,163489,163506,163638,163690,163707,163740,163757,163774,163774,163791,163791,163840,163857,163878,163878,163982,164089" d="M361.01135,127.25758C362.71136,127.25758 363.71136,127.25758 364.61136,127.25758C365.51135,127.25758 366.4007,127.2469 367.01135,126.75758C367.62204,126.26823 368.56909,125.95281 369.4007,126.26824C370.12988,126.54482 370.01135,127.73674 370.01135,128.61475C370.01135,129.45758 369.61703,130.63995 370.29669,131.17224C371.01898,131.73792 371.96863,131.53993 372.01135,132.45624C372.05258,133.34062 372.00537,134.17824 371.57538,135.07225C371.26495,135.71768 370.63016,136.42628 370.0127,136.97357C369.50778,137.4211 368.51135,137.25751 367.60071,137.25758C366.69003,137.25766 365.75726,137.09016 364.89804,137.54291C364.19791,137.91182 363.92505,138.95892 363.16071,139.23224C362.27609,139.54855 361.72903,140.21486 360.81268,140.25758C359.95963,140.29735 359.40305,140.7688 358.64969,141.20041C357.81552,141.67831 356.95383,141.09238 356.03287,141.47908C355.23578,141.81378 354.82993,142.76709 353.91138,143.13608C353.06863,143.47461 352.21136,143.25758 351.31137,143.25758L350.44736,143.25758" id="svg_31" stroke-width="3" stroke="#000" fill="none"/>
  <path t="165161,165431,165622,165663,165747,165747,165791,165823,165831,165855,165865,165881,165898,165915,165932,165932,165948,165966,165983,165999,166016,166016,166032,166048,166065,166082,166099,166099,166132,166149,166166,166182,166182,166199,166216,166232,166233,166249,166266,166283,166299,166300,166316,166333,166333,166350,166367,166383,166400,166401,166416,166433,166450,166450,166468,166483,166517,166533,166533,166550,166567,166567,166584,166584,166584,166600,166600,166617,166651,166667,166667,166684,166701,166701,166717,166734,166734,166751,166751,166768,166768,166784,166784,166801,166818,166835,166851,166851,166868,166885,166885,166901,166918,166919,166935,166935,166952,166952,166968,166986,166986,167002,167018,167035,167035,167052,167069,167103,167137,167137,167137,167153,167153,167154,167171,167203,167223,167223,167237,167270,167287,167287,167305,167322,167339,167355,167387,167387,167406,167407,167423,167424,167439,167471,167488,167510,167522,167538,167570,167587,167605,167605,167622,167639,167655,167672,167694,167706,167722,167739,167740,167755,167789,167814,167814,167830,167838,167838,167855,167888,167906,167923,167950,167966,167975,167990,168022,168039,168055,168055,168078,168106,168122,168139,168156,168172,168189,168189,168206,168223,168239,168256,168256,168273,168290,168306,168323,168340,168356,168373,168373,168390,168407,168423,168424,168440,168462,168478,168490,168510,168540,168590,168614,168614,168624,168624,168674,168691,168710,168724,168724,168758,168775,168808,168825,168825,168877,168893,168942,169015,169038,169062,169076,169102,169110,169143,169195,169434" d="M301.01135,76.25758C300.72736,77.17224 300.01135,77.03608 300.01135,76.15758C300.01135,75.25758 300.01135,74.45758 300.01135,73.54291C300.01135,72.64691 300.10083,71.84021 300.58603,71.23225C301.08441,70.60775 300.86511,69.53459 301.44736,68.86824C302.05792,68.16947 303.23996,68.15019 303.65421,67.55308C304.20151,66.76413 303.95831,65.72276 304.36404,64.95758C304.81253,64.11175 305.35718,63.46792 306.01135,63.25758C306.92288,62.96449 307.58514,62.31399 308.03671,61.64691C308.53549,60.9101 309.21277,60.24311 309.65421,59.61474C310.15125,58.90724 310.59741,58.37468 311.31137,57.90041C312.103,57.37455 312.60385,56.67156 312.98602,55.85758C313.39987,54.97612 314.04825,54.52071 314.81137,54.17358C315.66562,53.785 316.42126,53.39209 317.31137,53.25308C318.13034,53.12518 318.71246,52.55417 319.41138,51.85758C320.11246,51.15884 320.71051,50.61285 321.51135,50.25758C322.31055,49.90303 323.1619,49.50486 324.01135,49.09091C324.6636,48.77306 325.42392,48.4082 326.31137,48.25308C327.23969,48.09082 327.8418,47.61382 328.71136,47.20491C329.52441,46.82258 330.30051,46.44012 331.11136,46.03608C331.80075,45.69254 332.35806,44.73463 333.17804,44.42424C333.99194,44.11615 335.01642,44.10654 335.61136,43.90491C336.41882,43.63126 337.4075,43.30943 338.17535,43.26824C339.2482,43.21069 340.17804,43.25758 341.01135,43.25758C341.81137,43.25758 342.76852,43.25758 343.66403,43.25758C344.52737,43.25758 345.38602,43.25758 346.3327,43.25758C347.18604,43.25758 348.12735,43.25758 348.89536,43.25758C349.84735,43.25758 350.6127,43.25758 351.60687,43.25758C352.52603,43.25758 353.37537,43.25688 354.31137,43.25758C355.21136,43.25824 356.0658,43.55173 356.71136,43.90491C357.59695,44.38941 358.49307,44.54371 359.15002,44.83224C360.11533,45.25621 360.9129,45.17406 361.61404,45.42824C362.67416,45.81257 363.08066,46.56069 363.98987,47.01458C364.75455,47.3963 365.76852,47.25758 366.66403,47.25758C367.3587,47.25758 368.42279,47.152 369.21136,47.54158C370.08142,47.97141 370.92886,47.88614 371.72604,48.34291C372.4006,48.72943 373.06998,49.17942 374.01135,49.42424C374.83167,49.63758 375.43759,49.98353 376.21121,50.57874C377.01959,51.2007 377.49097,51.75212 378.37537,52.19624C379.18369,52.60216 380.00351,53.13487 380.81137,53.25624C381.71994,53.39275 382.14651,54.10021 382.86203,54.65758C383.4187,55.09122 383.83258,55.87898 384.0322,56.75758C384.22354,57.59979 385.17859,57.97767 386.01135,58.42424C386.68851,58.78737 387.24976,59.72197 387.57538,60.43224C387.93512,61.21694 387.92578,62.19663 388.58603,62.82158C389.23535,63.43618 389.99872,63.77826 390.01135,64.65758C390.0242,65.55299 390.55051,66.13332 391.01135,66.77841C391.50958,67.47586 392.10425,68.18217 392.57538,68.85757C393.0871,69.59116 392.81647,70.57927 393.0127,71.45625C393.1933,72.2633 393.72589,72.82986 394.02203,73.64691C394.29428,74.39799 394.98154,74.96598 395.01004,75.77491C395.04388,76.73615 395.01135,77.66824 395.01135,78.57891C395.01135,79.43224 395.01135,80.37225 395.01135,81.25758C395.01135,82.05758 395.15277,82.78523 395.65869,83.31474C396.2272,83.90974 396.01135,84.95758 396.01135,85.85757C396.01135,86.75758 396.01135,87.65758 396.01135,88.55758C396.01135,89.45758 396.01135,90.35757 396.01135,91.25758C396.01135,92.05758 396.02209,92.97231 396.01135,93.86824C396.00095,94.73693 395.23651,95.19417 395.01587,95.96207C394.75864,96.85736 395.24335,97.79172 394.95419,98.54774C394.61102,99.445 394.04962,100.02311 393.49054,100.75758C392.90033,101.53292 392.17584,102.02584 392.02203,102.85757C391.85828,103.74312 391.61502,104.70584 390.91153,105.13625C390.13474,105.6115 390.05914,106.35884 390.01135,107.25758C389.96863,108.06098 389.39899,108.83981 389.03671,109.65758C388.68912,110.44224 388.21036,111.05791 387.51135,111.75758C386.81302,112.45657 386.40765,113.19682 385.97537,113.83224C385.4975,114.53469 384.62686,114.84817 384.09537,115.54424C383.54007,116.27149 383.52557,117.0605 383.17804,118.09091C382.91138,118.8815 382.12411,118.80301 381.36853,119.37191C380.71893,119.86099 381.41882,121.23605 380.95419,121.89591C380.43744,122.62982 379.68982,122.61901 379.0087,123.17224C378.45538,123.62167 377.47491,123.30115 376.5322,123.75758C375.69275,124.164 374.81137,124.25758 373.91138,124.25758C373.01135,124.25758 372.45694,124.67519 371.78986,125.13608C371.06033,125.64011 370.09671,125.54158 370.01135,126.42424L369.72604,127.17224L368.81403,127.25758" id="svg_32" stroke-width="3" stroke="#000" fill="none"/>
  <path t="171405,171515,171535,171535,171551,171551,171551,171568,171585,171601,171618,171635,171663,171670,171687,171702,171718,171735,171735,171752,171752,171775,171791,171835,171853,171853,171887,171887,171903,171919,171936,171959,171959,171975,172003,172020,172039,172053,172070,172086,172103,172120,172142,172142,172142,172158,172182,172190,172190,172220,172237,172254,172270,172287,172287,172304,172304,172320,172321,172337,172354,172354,172371,172387,172404,172421,172438,172438,172454,172471,172471,172488,172488,172504,172504,172521,172521,172555,172571,172588,172606,172606,172622,172638,172638,172655,172672,172689,172705,172722,172750,172750,172766,172789,172823,172856,172872,172895,172927,172942,172966" d="M374.01135,124.25758C373.92603,125.14424 373.55188,126.09297 373.36404,126.71925C373.08051,127.66459 373.03308,128.4718 373.01587,129.24774C372.98935,130.44295 373.10004,131.36195 373.01135,132.25758C372.92761,133.10327 372.18964,133.55811 372.0112,134.35741C371.82291,135.20078 371.03,135.69302 371.01135,136.55757C370.99194,137.45737 370.70251,138.30865 370.36404,139.01474C369.95642,139.8651 370.01361,140.6049 370.01135,141.62158C370.00928,142.55307 370.15198,143.5271 369.79004,144.35774C369.47726,145.07558 369.04376,145.90881 369.01587,146.6049C368.97516,147.62077 369.03159,148.56877 368.58603,149.2429C368.09512,149.98567 368.01605,150.60941 368.01135,151.62158C368.00702,152.55307 367.62378,153.27252 366.98602,153.83224C366.39645,154.34969 366.02997,155.05911 366.01135,155.95758C365.99268,156.85809 365.53876,157.64226 365.01135,158.42424C364.58047,159.06313 364.20261,159.76756 363.62204,160.62158C363.12515,161.35251 362.7756,162.2113 362.36404,162.90041C361.92169,163.64111 361.36496,164.06711 360.62204,164.69357C359.99155,165.22523 360.17151,166.29988 359.89703,167.01474C359.51245,168.01639 358.74847,168.35785 358.25421,169.23608C357.82144,170.00505 357.40256,170.73549 357.13269,171.57875C356.87955,172.36978 356.43066,172.94708 355.62204,173.26825C354.88251,173.56198 354.65826,174.56133 354.01135,175.25758C353.45087,175.86084 353.10455,176.68941 352.78986,177.5789C352.54245,178.27818 352.00711,179.08775 351.51135,179.75758C350.90631,180.57507 350.44025,181.22424 350.17804,182.09091C349.91873,182.94795 349.30704,183.34914 349.03671,184.10825C348.72156,184.99332 347.97595,185.38109 347.31137,185.96208C346.67493,186.51846 345.92386,187.18599 345.44736,187.85757C344.93246,188.58324 344.43942,189.20244 343.98602,189.86824C343.49051,190.59586 342.73282,191.00102 341.91153,191.47908C341.28345,191.84467 340.98096,192.77943 340.51135,193.27841C339.96393,193.86008 339.84775,194.70343 339.36404,195.31024C338.84854,195.95694 339.01135,196.95758 338.97537,197.82158L338.29538,198.34158" id="svg_33" stroke-width="3" stroke="#000" fill="none"/>
  <path t="185602,185817,185884,185936,185983,186069,186168,186235,186252,186269,186285,186302,186319,186637,186637" d="M300.01135,78.25758C299.21002,78.25758 298.31137,78.25758 297.41138,78.25758C296.51135,78.25758 295.61136,78.2569 294.71136,78.25758C293.81268,78.25825 293.2009,78.74812 292.57538,79.23225C291.82956,79.80946 291.01135,80.09091 290.17804,80.42424L290.01135,81.25758L290.01135,82.05758" id="svg_34" stroke-width="3" stroke="#000" fill="none"/>
  <path t="187549,187891,187891,187907,187958,187975,187991,188009,188026,188042,188058,188076,188092,188109,188109,188125,188143,188143,188160,188160,188160,188176,188176,188193,188210,188210,188239,188259,188260,188276,188293,188326,188326,188343,188360,188360,188377,188394,188411,188427,188428,188444,188444,188461,188477,188494,188494,188510,188510,188528,188528,188544,188544,188561,188578,188594,188611,188628,188645,188661,188678,188762,188861,188877,188919,188929,188946,188963,189015,189047,189047,189063,189097,189149,189246,189246,189296,189413,189428" d="M299.01135,66.25758C298.01135,67.25758 297.21136,67.25758 296.31137,67.25758C295.41138,67.25758 294.59399,67.34706 293.98602,67.83224C293.36154,68.33061 292.28864,68.1116 291.62204,68.69358C290.92386,69.30315 290.47699,70.03915 290.03671,70.70425C289.53516,71.46195 289.62183,72.36034 288.81268,73.08824C288.17938,73.65795 287.87628,74.24772 287.44202,75.02557C287.0228,75.77651 286.52444,76.51331 285.8967,77.28691C285.34192,77.97058 284.72208,78.56847 284.01135,79.25758C283.42017,79.83078 282.5473,80.10143 281.81137,80.54291C281.13275,80.95 280.41827,81.70132 280.06854,82.55308C279.7269,83.38513 279.38348,84.05116 278.60071,84.64691C277.90305,85.17789 276.92432,85.05409 276.12119,85.61024C275.44742,86.07681 274.70688,86.25758 273.8447,86.25758C273.01135,86.25758 271.98657,86.05823 271.21271,86.34291C270.34149,86.6634 270.14899,87.82913 269.44202,88.17358C268.72794,88.52148 267.7984,88.70026 267.04202,88.97358C266.04691,89.33318 265.11194,89.02641 264.3757,89.70024C263.78784,90.23827 263.38635,91.07304 262.71585,91.61475C261.98135,92.20815 261.79611,93.19669 260.91153,93.25758C260.06604,93.31578 258.67032,92.97637 258.48337,93.83224C258.33536,94.50982 258.72903,95.21495 257.81137,95.25758C256.91251,95.29933 256.40271,94.74976 255.65421,94.31474C254.92383,93.89026 253.91136,94.25758 253.01137,94.25758C252.21136,94.25758 251.58051,94.62523 250.79002,95.13608C250.08438,95.59209 249.01137,95.25758 248.21136,95.25758L247.31137,95.25758L246.44736,95.22158L246.01587,94.55308" id="svg_35" stroke-width="3" stroke="#000" fill="none"/>
  <path t="190985,191414,191488,191557,191655,191655" d="M296.01135,64.25758C297.81137,64.25758 298.71136,64.25758 299.57538,64.25758L300.45419,64.25758L301.19669,64.25758" id="svg_36" stroke-width="3" stroke="#000" fill="none"/>
  <path t="197832,198015,198015,198047,198142,198180,198195,198324,198342,198366" d="M97.01137,83.25758C98.01137,83.25758 98.81136,83.25758 99.72603,83.25758C100.62203,83.25758 101.57536,83.22158 102.06403,82.61024L102.8447,82.09091L103.23286,81.37907L104.11137,81.25758" id="svg_37" stroke-width="3" stroke="#000" fill="none"/>
  <path t="199226,199470,199494,199510,199526,199550,199757,199806" d="M96.01137,75.25758C96.01137,74.25758 96.01137,73.34158 96.01137,72.55308C96.01137,71.65758 96.01137,70.75758 96.02203,69.86824L96.5322,69.27841" id="svg_38" stroke-width="3" stroke="#000" fill="none"/>
  <path t="203502,203806,203849,203894,203926" d="M299.01135,63.25758C300.01135,63.25758 300.81268,63.25758 301.71136,63.25758L302.61136,63.25758" id="svg_39" stroke-width="3" stroke="#000" fill="none"/>
  <path t="210920,211145,211145,211206,211238,211273,211294,211294,211342,211358,211374,211422,211440,211470,211507,211524,211541,211558,211598,211740,211772,211872,212037,212070,212102,212126,212144,212160,212176,212194,212210,212226,212262,212278,212294,212326,212344,212360,212377,212395,212422,212438,212446,212494,212686,212686,212809,212895,212994,213031,213031,213047,213047,213047" d="M310.01135,84.25758C311.01135,84.25758 311.99091,83.79202 312.72604,84.34291C313.34244,84.80482 313.21896,86.00277 314.01135,86.42424C314.65195,86.76498 315.44754,87.30176 316.03671,87.83224C316.61966,88.35713 317.2966,88.936 317.92737,89.54158C318.50024,90.09159 319.08893,90.68365 319.58603,91.28291C320.09613,91.89786 320.06815,92.82212 320.58603,93.25758C321.09894,93.68885 321.84756,94.24046 322.00687,94.96207C322.20944,95.8798 321.08484,96.7191 320.29669,96.25758C319.72855,95.92487 319.30685,95.20491 318.51135,94.75758C317.71585,94.31024 317.20264,93.59138 316.49054,93.27841C315.68515,92.92444 314.60794,92.97706 314.17804,92.25758C313.71768,91.48711 313.17386,90.91465 312.65869,90.31024C312.10773,89.66384 312.12234,88.74129 311.49054,88.25758C310.8132,87.73901 310.15631,87.15417 310.01135,86.28291C309.8678,85.42007 308.86261,85.23012 308.36853,84.55308C307.87546,83.87741 308.62201,83.26273 309.57538,83.25758C310.45419,83.25283 311.19669,83.32957 312.12735,83.83091L312.51135,84.34091L312.89536,85.03091" id="svg_40" stroke-width="3" stroke="#000" fill="none"/>
  <path t="214134,214270,214294,214326,214350,214367,214401,214422,214454,214469,214485,214502,214518,214536,214551,214568,214586,214622,214654,214669,214686,214703,214941,215004,215055,215079,215104,215121,215159,215208,215392,215392,215408,215408,215438,215454,215472,215472,215554,215672,215705,215722,215739,215766,215871,215886,216509,216815,216972,217006,217076,217111" d="M335.01135,107.25758C336.81137,107.25758 337.73154,107.09874 338.51135,107.27841C339.46341,107.49777 339.91577,108.31506 340.01135,109.25758C340.09711,110.10308 341.14975,109.93506 341.8447,110.42424C342.55972,110.92757 342.93735,111.62912 343.51135,112.25758C344.05313,112.85073 345.01373,112.75446 345.76837,113.25774C346.36188,113.65357 346.5658,114.67519 347.23288,115.13608C347.9624,115.64011 348.84839,115.60092 349.36404,116.20491C349.89639,116.82848 349.4007,117.24691 348.51135,117.25758C347.62204,117.26824 347.07474,118.03236 346.30685,118.25307C345.4462,118.50044 344.49835,118.39967 343.61136,118.24691C342.77823,118.10343 341.98047,117.50559 341.31137,117.20491C340.48224,116.83231 340.18042,115.90498 339.72736,115.05758C339.37878,114.40559 339.00711,113.47028 338.13269,113.25758C337.32834,113.06191 336.5589,112.71996 336.06403,111.96207C335.60999,111.26668 334.8082,110.93098 334.36404,110.20491C333.94525,109.52032 335.01135,109.25758 335.8447,109.09091L336.29669,108.34291L337.21136,108.25758L338.11136,108.25758" id="svg_41" stroke-width="3" stroke="#000" fill="none"/>
  <path t="218347,218694,218717,218742,218750,218784,218800,218800,218816,218834,218834,219230,219230,219270,219286,219302,219342,219366,219478,219494,219502,219536,219553,219553,219569,219586,219842,220155,220171,220190,220205,220222,220238,220254,220286,220340,220437,220694,220773,221090,221122,221174,221226,221242,221262,221263,221276,221359,221391,221576,221593,221610,221662" d="M320.01135,105.25758C318.31137,105.25758 317.23297,105.264 317.0127,106.05891C316.7677,106.94303 316.28192,107.47373 315.8447,108.25758C315.48111,108.90945 314.70419,109.55047 314.01135,110.25758C313.50607,110.77328 312.9472,111.6019 312.51135,112.23674C311.95535,113.0466 310.85678,112.77412 310.17804,113.25758C309.62015,113.65496 308.42703,113.47324 308.42569,114.25758C308.42419,115.13875 309.68933,114.74573 310.01404,115.54158C310.33438,116.3267 311.25552,116.38052 312.05954,116.90491C312.68182,117.31077 313.737,116.81636 314.57538,117.29358C315.26685,117.68718 314.65707,118.94135 315.0322,119.73674C315.36487,120.44209 316.71072,120.14431 317.0007,120.86824C317.35562,121.75428 317.71588,122.26594 318.61136,122.25758C319.49075,122.24937 320.00601,121.64696 320.01135,120.75758C320.01675,119.85759 320.01135,118.95758 320.01135,118.05758C320.01135,117.15758 319.97415,116.25671 320.01135,115.45758C320.05408,114.53992 320.81122,114.08395 321.01135,113.20491C321.2012,112.37111 321.92603,111.97224 322.01135,111.05758L322.01154,110.15775" id="svg_42" stroke-width="3" stroke="#000" fill="none"/>
  <path t="230617,230798,230814,230826,230846,230927,230977,231009,231059,231078,231118,231126,231182,231182,231193,231222,231302,231318,231318,231327,231366,231414,231427,231444,231461,231478,231495,231511,231528,231528,231545,231561,231578,231598,231622,231630,231694,231856,231910,231929,231963,231979,231996,232046,232070,232115,232214,232214,232390,232406,232431,232454,232470,232498,232531,232549,232566,232582,232606,232615,232632,232649,232671,232702,232715,232734,232774,232783,232799,232838,232854,232886,232916,232933,232950,232974,232983,233014,233067,233111,233126,233158" d="M295.01135,121.25758C296.81137,121.25758 297.71136,121.25758 298.61136,121.25758C299.49054,121.25758 299.84811,121.92207 300.5322,122.23674C301.33145,122.60437 302.15561,122.63325 303.01135,123.09091C303.8028,123.5142 304.36636,124.02966 305.11121,124.47908C305.73343,124.85453 306.14059,125.70667 306.72736,126.34158C307.36658,127.03326 307.97168,127.48787 308.71136,127.90491C309.45639,128.32495 309.82663,128.92906 310.0322,129.77841C310.25864,130.71404 311.24277,130.94012 311.92737,131.54158C312.52301,132.06491 313.34024,132.21167 313.9967,132.68291C314.61563,133.12721 315.4176,132.94231 316.36469,133.26825C317.1315,133.53215 317.6221,134.2428 318.51135,134.25758C319.49063,134.27386 319.94153,134.91417 320.5322,135.27841C321.246,135.7186 321.42615,135.97446 320.5322,136.25758C319.92902,136.44862 319.49072,137.24716 318.61136,137.25758C317.71143,137.26825 316.81137,137.25758 315.91138,137.25758C315.01135,137.25758 314.21136,137.25758 313.31137,137.25758C312.41138,137.25758 311.6051,137.16121 310.95871,136.61024C310.35431,136.09509 310.36127,135.1301 309.8447,134.42424C309.36581,133.7699 308.62915,133.46828 307.81268,133.25624C307.01224,133.04836 306.56476,132.20378 305.98602,131.68291C305.34818,131.10884 305.57062,130.17677 304.8447,129.42424C304.25467,128.81259 303.33295,128.97235 302.72736,128.34158C302.17734,127.76871 301.56476,127.20377 300.98602,126.68291C300.34818,126.10883 299.76233,125.7346 299.17804,125.09091C298.60684,124.46165 298.85672,123.34129 297.98602,123.25758C297.21359,123.1833 296.29669,123.17224 295.79004,122.37891L295.09671,121.97224L295.01004,121.05891L294.65421,120.31474" id="svg_43" stroke-width="3" stroke="#000" fill="none"/>
 </g>
</svg>