<svg width="500" height="333.3333333333333" xmlns="http://www.w3.org/2000/svg" xmlns:svg="http://www.w3.org/2000/svg" xmlns:xlink="http://www.w3.org/1999/xlink">
 <!-- Created with SVG-edit - http://svg-edit.googlecode.com/ -->
 <g display="inline" class="layer">
  <title>Layer 1</title>
  <path t="0,316,426,513,582,633,648,697,737,783,817,916,953,993,1031,1073,1132,1170,1199,1215,1281,1323,1331,1416,1450,1483,1522,1537,1616,1631,1673,1697,1737,1783,1856,1856,1913,1948,1969,2031,2048,2081,2113,2145,2185,2249,2316,2337,2431,2482,2506,2545,2545,2594,2665,2681,2699,2716,2732,2749,2781,2802,2865,2882,2906,2929,2954,2981,3010,3099,3148,3169,3170,3201,3215,3265,3265,3281,3306,3306,3322,3361,3394,3416,3449,3474,3498,3516,3546,3566,3581,3618,3631,3649,3666,3681,3698,3715,3716,3732,3765,3785,3785,3817,3834,3865,3882,3883,3945,3965,3982,4064,4241,4273,4305,4366,4382,4425,4473,4528,4569,4616,4632,4666,4705,4729,4762,4801,4802,4833,4913,5029,5065,5081,5105,5131,5149,5149,5164,5182,5199,5214,5215,5231,5281,5281,5297,5345,5366,5382,5398,5430,5447,5448,5464,5482,5506,5522,5569,5594,5715,5731,5764,5782,5801,5848,5849,5865,5916,5954,6161,6231,6273,6305,6321,6337,6353,6369,6385,6414,6432,6473,6489,6489,6529,6553,6565,6600,6617,6641,6650,6665,6681,6705,6731,6777,6801,6850,6929,6969,6999,7031,7048,7080,7105,7105,7121,7131,7161,7180,7201,7215,7248,7249,7265,7304,7314,7337,7377,7414,7431,7447,7504,7521,7533,7561,7580,7631,7632,7648,7648,7665,7689,7689,7705,7721,7753,7777,7817,7830,7847,7880,7897,7915,7930,7982,8019,8057,8105,8132,8177,8198,8214,8215,8232,8264,8282,8282,8299,8337,8361,8383,8400,8441,8450,8481,8505,8506,8515,8531,8564,8582,8601,8614,8615,8631,8649,8649,8681,8699,8721,8737,8761,8797,8814,8831,8849,8864,8881,8899,8899,8937,8969,8985,8999,9032,9064,9064,9081,9081,9099,9099,9114,9131,9149,9164,9182,9201,9217,9281,9320,9345,9365,9410,9458,9505,9612,9628,9648,9681,9714,9777,9787,9817,9831,9864,9865,9881,9914,9931,9964,9982,9998,10015,10031,10049,10132,10132,10185,10218,10232,10282,10282,10299,10353,10382,10399,10425,10457,10579,10641,10665,10697,10747,10765,10782,10798,10814,10815,10831,10847,10872,10882,10999,11064,11115,11185,11214,11232,11264,11281,11329,11681,11698,11799,11833,11881,11921,12060,12097,12232,12274,12274,12285,12353,12353,12369,12465,12481,12522,12532,12532,12609,12624,12640,12698,12715,12769,12818,12898,12932,12954,12985,13014,13031,13032,13049,13049,13065,13081,13082,13098,13098,13099,13115,13115,13131,13132,13148,13149,13164,13185,13201,13225,13286,13318,13393,13425,13436,13450,13498,13514,13537,13598,13642,13791,14147,14180,14197,14214,14249,14249,14265,14297,14321,14353,14446,14613,14644,14689,14713,14783,14841,14873,14881,15011,15130,15310,15446,15462,15497" d="M99.07143,265.5238C98.49677,263.95981 98.1693,262.97958 97.5506,262.5238C96.86201,262.01654 95.77614,261.92184 95.19293,261.30249C94.62373,260.698 94.11414,260.24146 94.07143,259.32513C94.03166,258.47205 94.2326,257.54657 94.01426,256.81931C93.75247,255.9473 93.10002,255.22517 93.07143,254.32381C93.04289,253.42444 92.95286,252.59988 92.49677,251.91315C91.96671,251.11505 91.4474,250.73303 91.09226,250.00298C90.71224,249.22176 91.07143,248.23848 91.07143,247.32381C91.07143,246.42398 90.96852,245.5929 90.49677,244.94914C89.97032,244.23076 90.07143,243.22382 90.07143,242.32381C90.07143,241.42398 90.07143,240.57198 90.07143,239.81848C90.07143,238.85715 90.07143,237.94914 90.07143,237.0238C90.07143,236.16664 90.07143,235.22832 90.07143,234.35715C90.07143,233.47115 90.07143,232.57648 90.07143,231.81931C90.07143,230.88098 90.07143,229.94914 90.07143,229.0238C90.07143,228.16664 89.91448,227.21407 90.07143,226.35715C90.21579,225.56889 90.8562,225.01607 91.29293,224.30231C91.72091,223.60284 92.6116,223.08392 93.07159,222.30247C93.481,221.60698 93.79709,221.04233 94.07593,220.22832C94.35504,219.41348 94.9411,218.88107 95.4241,218.17114C95.94508,217.40538 96.46892,216.85417 96.98743,216.23848C97.54774,215.57314 97.6862,214.60408 98.07143,213.94914C98.41117,213.37152 99.04926,212.847 99.6821,212.48781C100.45167,212.05099 101.08591,211.32242 101.71426,210.88098C102.42178,210.38394 102.92625,209.8299 103.51409,209.30231C104.11448,208.76346 104.76488,208.25078 105.29293,207.42398C105.6841,206.81151 106.65283,206.68777 107.50743,206.51314C108.41374,206.32793 109.10297,205.84126 109.9501,205.52364C110.69676,205.24368 111.37575,204.65886 112.01876,204.17114C112.70782,203.64851 113.33029,203.10249 114.17126,202.64514C114.91875,202.23862 115.38509,201.76425 116.2701,201.52248C117.06786,201.30452 117.51954,200.66902 118.37143,200.5193C119.29961,200.35617 120.03538,200.07892 120.78609,199.4398C121.45242,198.87253 122.10667,198.40099 122.71426,197.87648C123.47175,197.22258 124.23629,196.93292 124.90476,196.35715C125.58482,195.77139 125.76031,194.91965 126.35543,194.23848C126.9485,193.55966 127.3259,192.91986 128.07143,192.50298C128.79018,192.10106 129.061,191.04483 129.07143,190.17114C129.08179,189.30254 128.87276,188.52611 128.4241,187.81931C127.96218,187.09158 128.22005,186.04538 127.71877,185.22832C127.25893,184.47882 127.08141,183.72241 127.07143,182.88098C127.06101,182.00279 126.48228,181.20589 126.19293,180.42381C125.8778,179.57207 126.07143,178.72382 126.07143,177.80914C126.07143,176.91315 126.07143,176.0238 126.07143,175.12381C126.07143,174.22382 125.97604,173.32043 126.07143,172.35715C126.15517,171.51143 126.71604,170.8226 127.07143,170.0238C127.42588,169.2271 128.41577,168.90143 128.90475,168.19048C129.37555,167.50598 128.87495,166.4193 129.2381,165.5238C129.51076,164.85143 129.95639,164.08063 130.4241,163.22382C130.83096,162.47849 131.52042,161.97855 131.9861,161.23981C132.45898,160.48964 132.30174,159.56349 132.71877,158.82381C133.13879,158.0788 133.86221,157.52293 134.0701,156.72247C134.28214,155.90604 134.98769,155.36952 135.07143,154.5238C135.158,153.64941 135.07143,152.80782 135.07143,151.91315C135.07143,151.0238 134.82446,149.97246 135.40475,149.35715C135.91615,148.8149 137.03539,148.5518 137.07143,147.81931C137.11754,146.88211 136.75162,145.8824 137.08209,145.09848C137.39194,144.36349 138.60542,144.26622 138.94994,143.42398C139.28719,142.59952 139.87317,142.55101 140.77142,142.5238C141.71556,142.49521 142.19887,141.91782 142.78743,141.43848C143.46455,140.88701 144.10658,140.40088 144.71426,139.87648C145.39833,139.28616 146.09972,138.64812 146.64609,137.94914C147.15587,137.29697 147.51366,136.63319 148.36693,136.5238C149.16713,136.42122 149.3902,135.31291 150.17126,134.76682C150.83978,134.29941 151.12163,133.69351 151.87276,133.52515C152.75153,133.32817 153.55576,133.02908 154.2381,132.35715C154.90987,131.69563 155.41432,130.90709 156.2701,130.60915C157.08064,130.32695 157.80045,130.22801 158.29292,129.42398C158.6725,128.80426 159.75089,128.86957 160.5506,128.50298C161.28134,128.168 161.4006,126.9279 162.2701,126.60915C163.07591,126.31374 164.03967,126.30601 164.67143,125.94914C165.51405,125.47317 166.18195,124.99434 166.98743,124.60915C167.70293,124.26698 168.72241,124.89759 169.57143,124.50298C170.32903,124.15085 170.50053,123.15411 171.29292,122.64531C172.03906,122.16621 173.08836,122.71301 173.87276,122.43848C174.72804,122.13914 175.40926,121.58418 176.09225,121.50298C177.06384,121.38746 177.74776,120.82774 178.59225,120.52381C179.53589,120.1842 180.27745,120.05976 181.1196,119.47115C181.84552,118.96377 182.58582,118.67647 183.47144,118.51315C184.30157,118.36005 184.98402,117.56654 185.78743,117.52381C186.68083,117.4763 187.43988,117.37971 188.1241,116.87648C188.79031,116.38649 189.77142,116.52381 190.67143,116.52381C191.5506,116.52381 192.4241,116.52381 193.35542,116.52381C194.2381,116.52381 195.17143,116.52381 196.07143,116.52381C196.87143,116.52381 197.71426,116.52381 198.6131,116.52381C199.55544,116.52381 200.41876,116.52381 201.30977,116.52381C202.2381,116.52381 203.02106,116.39164 203.6821,115.94914C204.47827,115.4162 205.24889,115.05916 206.07143,114.69048C206.88768,114.32461 207.78127,114.52381 208.58876,114.52381C209.5506,114.52381 210.46075,114.52381 211.35677,114.52381C212.27142,114.52381 213.17143,114.52381 214.07143,114.52381C214.87143,114.52381 215.70743,114.52381 216.71959,114.52381C217.50209,114.52381 218.42859,114.52381 219.37143,114.52381C220.27142,114.52381 221.17126,114.52381 222.0461,114.52381C222.95026,114.52381 223.77676,114.52381 224.7381,114.52381C225.59225,114.52381 226.47144,114.52381 227.37593,114.52381C228.2381,114.52381 229.0506,114.52381 230.0506,114.52381C230.95009,114.52381 231.77592,114.52381 232.63542,114.52381C233.57143,114.52381 234.51443,114.52381 235.29276,114.52381C236.27126,114.52381 237.0506,114.52381 238.05009,114.52381C238.8241,114.52381 239.71959,114.52381 240.7381,114.52381C241.59225,114.52381 242.47144,114.52381 243.37143,114.52381C244.2701,114.52381 245.15543,114.52381 246.0461,114.52381C246.95009,114.52381 247.77597,114.51425 248.63542,114.52381C249.57159,114.53423 250.30984,114.8311 250.90475,115.52381C251.35101,116.04343 251.87276,116.52314 252.7861,116.52381C253.64609,116.52444 254.57143,116.52381 255.50743,116.52381C256.36694,116.52381 257.29276,116.52381 258.15543,116.52381C259.07144,116.52381 259.87143,116.52381 260.7861,116.52381C261.6821,116.52381 262.5506,116.52631 263.50742,116.52381C264.36694,116.52156 264.88135,115.86033 265.59225,115.54464C266.46896,115.15533 266.98459,114.89965 267.63943,114.32514C268.27963,113.76348 269.37625,113.65955 270.01877,113.17114C270.68387,112.66557 271.35675,112.23849 271.87277,111.72247C272.5506,111.04465 273.43304,110.64056 274.01877,110.17114C274.68295,109.63885 275.00803,108.74893 275.77594,108.52831C276.6778,108.26921 276.97739,107.93956 277.49677,107.13448C277.97095,106.39946 278.54031,105.89268 279.01425,105.17114C279.46936,104.47823 279.45364,103.62922 280.07144,102.69048C280.51352,102.01871 280.87994,101.25107 281.4241,100.57648C281.95737,99.91539 281.86298,99.04845 282.29276,98.30247C282.72482,97.55254 282.90646,96.85674 283.09225,96.00298C283.27145,95.1795 283.66586,94.26879 284.29276,93.64531C284.8631,93.07807 285.07144,92.52381 285.07144,91.72247C285.07144,90.80914 285.07144,89.91315 285.07144,89.04464C285.07144,88.08781 285.07144,87.22831 285.07144,86.30247C285.07144,85.43981 285.0437,84.50865 285.42859,83.81847C285.84338,83.07465 286.66309,82.62918 287.5141,82.30247C288.25168,82.01931 289.34314,81.9126 289.94992,81.30247C290.51715,80.73213 290.81476,80.01992 291.5141,79.64531C292.27219,79.23923 293.14658,79.10789 293.90475,78.69048C294.57037,78.32401 295.64304,78.80599 296.46075,78.51315C297.19748,78.2493 297.71875,77.52606 298.59225,77.52381C299.47144,77.52155 300.46075,77.52381 301.35544,77.52381C302.2381,77.52381 303.08398,77.6153 303.82858,77.46664C304.75333,77.28203 305.56369,76.70184 306.44611,76.55981C307.38156,76.40924 308.09225,76.52381 309.07144,76.52381C309.87143,76.52381 310.67142,76.52381 311.67142,76.52381C312.47144,76.52381 313.47144,76.52381 314.27142,76.52381C315.27127,76.52381 316.23544,76.52381 317.1861,76.52381C318.07144,76.52381 318.9501,76.52381 319.77594,76.52381C320.63544,76.52381 321.57144,76.52381 322.50742,76.52381C323.37143,76.52381 324.27008,76.52381 325.15543,76.52381C326.07144,76.52381 326.95331,76.45709 327.77676,76.52831C328.74805,76.61232 329.22607,77.44009 330.09677,77.52381C330.98334,77.60906 331.89883,77.11323 332.71426,77.58098C333.40204,77.9755 334.07184,78.49844 334.87143,78.52381C335.7728,78.55241 336.50964,79.16013 337.36694,79.46664C338.12143,79.7364 338.75192,80.37458 339.59225,80.52381C340.44745,80.67568 340.9473,81.25585 341.71875,81.51931C342.59634,81.81902 343.32608,82.06511 344.17126,82.40231C344.96234,82.71793 344.62607,83.43161 345.2381,84.19048C345.80157,84.88911 346.90475,84.69048 347.10742,85.51315L347.87277,85.60915" id="svg_1" stroke-width="3" stroke="#000" fill="none"/>
  <path t="17889,18365,18605,19013,19112,19231,19273,19281,19298,19315,19345,19410,19410,19431,19448,19465,19481,19514,19565,19601,19602,19633,19650,19682,19698,19731,19748,19765,19801,19815,19832,19882,19898,19915,19948,19970,20018,20033,20048,20065,20081,20098,20115,20131,20161,20161,20181,20202,20226,20226,20249,20281,20281,20298,20315,20332,20365,20381,20381,20398,20417,20442,20474,20497,20529,20548,20585,20602,20602,20633,20657,20674,20698,20731,20748,20770,20793,20817,20849,20873,20905,20929,20961,21018,21018,21034,21461,21476,21499,21515,21516,21548,21570,21594,21594,21649,21665,21682,21715,21731,21748,21765,21765,21801,21818,21873,21890,21913,21953,22010,22113,22162,22187,22249,22265,22313,22313,22346,22365,22398,22433,22448,22530,22747,22778,22809,22831,22848,22873,23011,23144,23215,23298,23366,23409,23449,23516,23584,23631,23648,23681,23715,23738,23777,23798,23841,23873,23889,23905,23937,24014,24065,24089,24089,24098,24130,24148,24148,24165,24181,24198,24215,24231,24231,24281,24281,24315,24345,24365,24409,24448,24464,24489,24514,24530,24547,24617,24648,24665,24729,24729,24780,24798,24825,24834,24847,25042,25042,25066,25100,25145,25199,25639,25683,25700,25715,25748,25769,25831,25850,25961,25981,26048,26131,26229,26289,26305,26382,26425,26514,26514,26569,26601,26630,26664,26715,26731,26765,26781,26802,26833,26850,26914,26948,26985,26985,26998,27017,27065,27082,27098,27114,27148,27164,27181,27181,27198,27249,27282,27321,27321,27331,27369,27386,27433,27433,27465,27489,27506,27506,27521,27545,27630,27674,27698,27731,27762,27816,27832,27857,27866,27882,27898,27915,27948,27965,27965,27998,28014,28033,28048,28106,28145,28169,28201,28202,28225,28289,28289,28305,28314,28463,28463,28548,28563,28563,28602,28665,28681,28715,28731,28769,28815,28865,28913,28931,28948,28977,29014,29031,29048,29073,29097,29114,29212,29228,29248,29280,29329,29330,29338,29364,29364,29409,29417,29481,29514,29531,29565,29582,29602,29632,29648,29648,29674,29699,29732,29732,29749,29782,29798,29815,29832,29832,29848,29848,29881,29906,29907,29915,29916,29932,29948,29965,29982,29982,29999,30015,30049,30065,30065,30133,30165,30500,30532,30548,30564,30582,30602,30648,30665,30665,30698,30716,30716,30754,30770,30798,30815,30832,30832,30848,30889,30913,30932,30932,30964,30986,31001,31025,31048,31074,31082,31162,31210,31211,31231,31248,31265,31298,31315,31338,31354,31365,31382,31398,31415,31449,31466,31497,31515,31532,31554,31554,31569,31570,31609,31649,31673,31690,31698,31732,31764,31810,31857,31858,31914,31925,31937,31985,31985,32032,32049,32122,32178,32198,32280,32567,32601,32625,32648,32664,32681,32714,32731,32769,32809,32847,32864,32921,32953,33018,33329,33386,33398,33426,33465,33498,33570,33570,33599,33648,33665,33682,33715,33778,33778,33826,33848,33865,33897,33922,33945,33998,34034,34082,34098,34121,34131,34185,34214,34234,34248,34273,34583,34731,34749,34765,34781,34781,34798,34830,34848,34865,34865,35766,35799,35816,35833,35848,35865,35915,35931,35994,36015,36031,36064,36081,36098,36098,36115,36131,36164,36198,36215,36248,36265,36297,36297,36321,36337,36385,36417,36433,36457,36481,36521,36581,36614,36666,36983,37018,37048,37065,37081,37098,37098,37098,37114,37131,37131,37148,37148,37169,37181,37198,37331,37350,37401,37414,37449,37464,37464,37481,37497,37497,37514,37514,37531,37531,37548,37646,37682,37731,37754,37770,37781,37814,37831,37863,37889,37898,37937,37948,37969,38018,38048,38089,38098,38137,38164,38181,38198,38214,38231,38231,38249,38280,38297,38313,38330,38331,38363,38385,38398,38430,38447,38464,38488,38499,38530,38563,38585,38613,38630,38631,38647,38680,38697,38730,38747,38780,38797,38832,38832,38863,38880,38913,38944,38976,39000,39017,39032,39057,39088,39113,39161,39232,39549,39581,39681,39730,39798,39833,39849,40009,40176,40329,40329,40472,40549,40694,40746,40809,40881,40936,41031,41081,41114,41131,41161,41197,41198,41230,41249,41264,41297,41349,41383,41398,41431,41449,41481,41598,41689,41747,41777,41848" d="M98.07143,265.5238C99.77143,265.58096 100.4938,266.20996 101.37143,266.46664C102.2357,266.71942 103.2381,266.5238 104.07143,266.5238C104.98743,266.5238 105.75317,266.4198 106.15543,265.72247C106.60857,264.93692 106.90529,264.05258 107.10743,263.37448C107.38199,262.45346 108.61088,262.35754 109.03543,261.54913C109.4239,260.80942 109.74721,260.01074 110.07276,259.23846C110.40055,258.46088 110.74361,257.70547 111.09676,256.9238C111.4631,256.11298 112.47495,255.84464 113.01426,255.17114C113.58445,254.45908 113.94321,253.72656 114.49677,253.09848C115.11695,252.39479 115.17168,251.70369 115.87276,251.43848C116.73895,251.11081 116.93246,249.81952 117.6461,249.53447C118.50591,249.19102 119.00211,248.86804 119.59226,248.50298C120.31049,248.0587 120.61401,247.15807 121.29293,246.64531C122.00052,246.1109 122.74171,245.97704 123.4286,245.58098C124.24712,245.10901 125.11823,245.21695 125.87143,244.80782C126.66895,244.3746 127.11008,243.73767 127.77676,243.22832C128.44337,242.71902 129.56331,242.69044 130.29292,242.30247C130.96587,241.94464 131.79887,241.7121 132.67143,241.48781C133.52383,241.26871 134.23927,240.56805 135.07143,240.5238C135.87483,240.48108 136.67404,239.9158 137.2701,239.32515C137.95309,238.64833 138.63078,238.41277 139.1286,237.87648C139.64821,237.31671 140.48615,236.90096 141.35677,236.52248C142.13051,236.18611 142.78644,235.80815 143.49677,235.09848C144.12439,234.47144 144.82991,233.97696 145.0506,233.04465C145.25189,232.19427 145.79732,231.64999 146.06076,230.91315C146.38173,230.0154 146.14473,229.15172 146.64609,228.49847C147.13254,227.86465 147.07143,226.92381 147.07143,226.0238C147.07143,225.13448 147.07143,224.19048 147.07143,223.37448C147.07143,222.47565 146.55237,221.34241 147.07143,220.69048C147.52222,220.12427 148.87553,220.63608 149.06876,221.32515C149.31194,222.19235 149.56175,223.05481 150.27142,223.72247C150.84781,224.26474 151.68938,224.51511 152.47144,224.94914C153.29041,225.40367 153.71965,225.9537 154.35677,226.43848C155.08794,226.9948 156.10681,226.64732 156.77142,227.22832C157.40308,227.7805 158.07124,228.51338 158.95009,228.5238C159.77586,228.53358 160.71426,228.5238 161.57143,228.5238C162.49677,228.5238 163.42859,228.5238 164.2701,228.5238C165.15543,228.5238 165.73891,229.07265 166.4241,229.46664C167.27568,229.95631 168.29298,229.43887 169.0101,229.94914C169.6526,230.40633 170.48953,230.54309 171.07143,231.0238C171.67473,231.52219 172.60622,231.47083 173.37143,231.87648C174.21722,232.32486 175.01282,232.80679 175.07143,233.62364C175.13771,234.54747 175.49927,235.22334 176.07143,236.00298C176.5405,236.64214 177.06917,237.2283 177.07143,238.12381C177.07368,239.0238 177.07143,239.92381 177.07143,240.81931C177.07143,241.74515 177.03757,242.5862 176.64609,243.37448C176.24031,244.19157 176.38541,245.08257 176.06076,245.94914C175.79597,246.65594 175.07677,247.13443 175.07143,248.0238C175.06555,249.00296 175.21582,249.90483 174.9861,250.69315C174.72635,251.58449 174.11417,252.34967 174.07143,253.13448C174.02194,254.0433 174.07143,255.00781 174.07143,255.69847C174.07143,256.76215 174.3051,257.32309 175.07143,257.69049C175.82719,258.05283 176.00612,259.05591 176.4241,259.82382C176.88176,260.66461 177.38121,261.23074 178.17126,261.74548C178.81288,262.16351 178.79474,263.21988 179.0701,263.95447C179.32507,264.63467 180.57651,264.70905 181.03543,265.49847C181.47885,266.2612 181.88655,266.88657 182.4241,267.47113C182.95952,268.05338 183.40933,268.8331 184.01877,269.47113C184.63156,270.11267 184.87231,270.83142 185.07277,271.72247C185.25339,272.52536 186.23605,272.69254 186.78743,273.23981C187.50479,273.95184 188.53481,274.14175 188.9861,274.80914C189.50002,275.56912 189.52411,276.24002 190.2381,276.69049C190.94798,277.13837 191.29904,278.00128 191.78743,278.69315C192.29369,279.41034 192.41963,280.28186 193.01877,280.87646C193.5743,281.42776 194.46938,281.52371 195.07143,281.0238C195.69116,280.50919 196.38962,279.98703 197.2381,279.5238C197.94035,279.14041 198.30283,278.81686 199.09676,278.48782C199.83162,278.18326 200.78386,277.66595 201.06076,276.94916C201.40173,276.0665 201.0715,275.13449 201.07143,274.23981C201.07133,273.30231 200.88055,272.3978 200.36693,271.82382C199.71896,271.09973 199.07677,270.49854 199.07143,269.60913C199.06662,268.8078 198.44971,268.18262 198.15677,267.32513C197.84262,266.40558 198.07143,265.49847 198.07143,264.72247C198.07143,263.82382 198.07143,262.88098 198.07143,261.94916C198.07143,261.09848 198.23843,260.16565 198.03543,259.37448C197.8167,258.52197 197.4306,257.86813 197.0506,257.0238C196.7373,256.3277 196.2869,255.79425 196.07143,254.88098C195.8885,254.10562 195.13231,253.42993 195.07143,252.5238C195.01779,251.72562 194.70378,251.09296 194.19293,250.30247C193.73691,249.59685 194.07143,248.5238 194.07143,247.72382C194.07143,246.80914 194.07143,245.91315 194.07143,245.04465C194.07143,244.08115 194.07143,243.37448 194.07143,242.30231C194.07143,241.42381 194.07143,240.5238 194.07143,239.72382C194.07143,238.82381 194.07143,237.95981 194.07143,237.0238C194.07143,236.16664 194.07133,235.22832 194.07143,234.30231C194.07152,233.42398 194.57921,232.91515 195.01427,232.16664C195.43811,231.43744 195.07405,230.33261 195.77592,229.87648C196.56323,229.36484 197.31363,229.08495 197.90475,228.35715C198.47061,227.66046 198.6777,226.83733 199.35677,226.23981C200.03348,225.64435 201.12796,225.96147 201.78743,225.43848C202.47461,224.89351 202.83759,224.55913 203.57143,224.00298C204.34801,223.41444 204.8687,222.8008 205.71426,222.52831C206.63786,222.23067 207.22014,221.8243 208.18477,221.60915C209.1358,221.39703 210.17461,221.46349 210.63542,220.91315C211.20985,220.22713 211.67198,219.3674 212.22076,218.92381C213.00848,218.28711 212.92026,217.20694 213.4241,216.57648C213.9127,215.9651 213.8665,215.10542 214.35542,214.52248C214.87039,213.90848 214.99257,213.18364 215.49677,212.54915C215.98068,211.94017 216.12068,211.07388 216.64609,210.53447C217.11925,210.04871 217.72946,209.47768 218.1241,208.81931C218.58401,208.05205 218.8089,206.96402 219.50743,206.55981C220.25218,206.12886 220.8824,205.84248 221.64609,205.53447C222.45486,205.20828 223.39276,205.5238 224.24609,205.5238C225.1861,205.5238 226.07143,205.5238 226.87143,205.5238C227.77142,205.5238 228.71428,205.51796 229.64609,205.5238C230.49681,205.52914 231.00121,206.18103 231.59225,206.54465C232.31004,206.98624 233.25465,207.13643 233.90475,207.69048C234.58786,208.27264 234.72704,209.32149 235.57143,209.50298C236.44113,209.6899 237.20508,209.87225 237.87276,210.23981C238.71033,210.70088 239.41376,211.14261 240.27142,211.43848C241.12605,211.73331 242.03584,211.75215 242.70743,212.09848C243.51833,212.51666 244.50696,212.43301 245.43309,212.52831C246.24995,212.61235 247.04298,213.10634 247.90475,213.35715C248.74709,213.60229 249.67143,213.5238 250.57143,213.5238C251.4821,213.5238 252.39276,213.5238 253.24609,213.5238C254.18477,213.5238 255.05676,213.5238 255.93275,213.5238C256.90475,213.5238 257.71243,213.46794 258.46075,213.94914C259.21835,214.43629 260.27817,213.95804 260.94992,214.52414C261.49698,214.98514 260.67587,216.29877 261.10742,217.09848C261.49771,217.82173 262.63245,217.89458 262.94992,218.84497C263.2113,219.62746 263.29535,220.34415 264.07144,220.69048C264.80444,221.01756 265.61258,221.62411 266.03543,222.48781C266.36362,223.15813 266.56177,224.05481 267.27142,224.72247C267.84781,225.26474 268.8436,225.34358 269.49677,225.95981C270.15723,226.58292 270.30896,227.47646 270.71875,228.16664C271.16415,228.91681 271.41583,229.82698 272.04608,230.49847C272.5647,231.05104 273.06375,231.89838 273.57144,232.5238C274.08524,233.15672 274.57629,233.81233 274.90475,234.69048C275.19397,235.46364 275.12512,236.30754 275.87277,236.60915C276.71313,236.94815 276.91141,237.83823 277.15677,238.69315C277.36682,239.42506 277.6658,240.39272 278.10742,241.09848C278.55807,241.8187 278.67841,242.45564 279.15677,243.23848C279.64761,244.0417 280.5376,244.30705 281.07275,244.80782C281.66452,245.36154 281.93246,246.12576 282.43311,246.82381C282.85565,247.41295 283.90378,247.88171 284.50211,248.23848C285.38382,248.76422 285.65723,249.67291 286.2381,250.35715C286.80368,251.02339 286.67554,251.90721 287.35544,252.43848C288.09708,253.01797 288.8136,252.96075 289.2381,253.69048C289.62872,254.36198 290.65527,254.87888 290.98608,255.72247C291.28162,256.4761 292.20633,256.54965 292.71426,257.17114C293.25885,257.83749 293.68231,258.30389 294.35544,258.80914C295.07632,259.35025 295.28668,260.46292 296.17126,260.5238C297.01675,260.582 297.87277,260.5238 298.77142,260.5238C299.67142,260.5238 300.57144,260.5238 301.47144,260.5238C302.36694,260.5238 303.18127,260.5238 304.07144,260.5238C305.0101,260.5238 305.90475,260.5238 306.71875,260.5238C307.59225,260.5238 308.5506,260.5238 309.4241,260.5238C310.35544,260.5238 311.07144,260.30231 311.07144,259.42398C311.07144,258.54913 311.10406,257.61725 310.57144,257.0238C309.94171,256.32214 309.23041,255.75412 309.07593,254.88098C308.92651,254.03654 308.2522,253.91876 307.50742,253.48781C306.80887,253.08362 307.35062,251.87964 306.98608,251.09181C306.60559,250.26944 306.07211,249.72247 306.07144,248.80914C306.0708,247.91315 306.12436,246.98906 305.71875,246.22382C305.27048,245.37808 305.40594,244.40735 304.90475,243.69048C304.40439,242.97478 303.83102,242.56342 303.35544,241.80782C302.90079,241.08551 303.16687,240.07927 302.78741,239.32381C302.35184,238.45662 301.87219,237.66571 302.07144,236.87648C302.29077,236.00769 302.75388,235.14403 303.35675,234.6078C304.00681,234.0296 304.89932,233.88097 305.71426,233.52831C306.54221,233.17001 307.37949,232.76866 308.07144,232.19048C308.57324,231.77116 309.31885,231.20367 309.90475,230.5238C310.37735,229.9754 309.90619,228.90462 310.09225,228.0238C310.27124,227.17642 311.01053,226.43028 311.07144,225.54915C311.13379,224.64729 310.89294,223.80057 311.07144,222.95981C311.25171,222.1107 312.01056,221.42993 312.07144,220.5238C312.12509,219.72562 312.07144,218.82381 312.07144,217.95981C312.07144,217.0238 312.07144,216.08781 312.07144,215.22832C312.07144,214.30247 312.12012,213.43851 312.07144,212.5238C312.02872,211.72041 311.36584,211.10373 311.10742,210.13448C310.87677,209.2693 311.20004,208.34822 311.07126,207.42398C310.95953,206.6221 310.3028,206.04358 309.78741,205.52248C309.26086,204.99011 309.26517,204.20239 309.0701,203.32515C308.89188,202.5237 308.91568,202.47594 309.59225,202.0238C310.3374,201.52585 311.29471,201.62019 312.2381,201.35715C312.91974,201.1671 313.56308,200.68872 314.57144,200.54465C315.54712,200.40526 316.30096,200.56953 317.27109,200.30247C318.05032,200.08797 318.99783,199.73265 319.77594,199.46664C320.62027,199.17801 321.29276,198.5238 322.15543,198.5238C323.04608,198.5238 323.92276,198.50993 324.57144,198.00298C325.33917,197.40298 325.86267,196.78445 326.70743,196.49847C327.54877,196.21365 328.28058,195.91005 329.27127,195.42398C330.04941,195.04221 330.89325,194.61708 331.66077,194.53447C332.62988,194.43016 333.60309,194.60237 334.06076,193.94914C334.55347,193.24591 334.87878,192.48151 335.15677,191.72247C335.46841,190.87161 335.97122,190.08386 336.49677,189.55981C336.98984,189.06816 336.91006,188.15903 337.29276,187.42398C337.73392,186.57666 338.21005,186.06308 338.78741,185.4398C339.42737,184.74893 339.92267,184.18701 340.49677,183.54915C341.01764,182.97041 341.4314,182.25986 342.07144,181.69048C342.62372,181.19916 343.53455,180.95026 344.37143,180.57648C345.14346,180.23167 345.49817,179.53716 346.12408,178.88098C346.71664,178.25978 347.55313,177.94742 348.37143,177.57648C349.14148,177.22742 349.86438,176.87744 350.49677,176.08781C351.06366,175.37997 351.61105,174.93077 352.07144,174.30247C352.5838,173.60321 352.86646,172.86584 353.0506,172.0238C353.24072,171.15446 353.84604,170.64532 354.07144,170.00298C354.35901,169.18346 353.93372,168.18748 354.29276,167.42381C354.65744,166.64812 355.03827,165.86476 355.49677,165.08781C355.95789,164.30646 356.07144,163.42398 356.07144,162.54915C356.07144,161.69048 356.01178,160.78554 356.35544,159.95581C356.66632,159.20522 357.07144,158.35715 357.07144,157.47115C357.07144,156.57198 357.07144,155.67314 357.07144,154.76665C357.07144,153.91315 357.07144,153.0238 357.07144,152.12381C357.07144,151.22382 357.07144,150.32515 357.07144,149.47115C357.07144,148.63715 357.07144,147.70914 357.07144,146.76665C357.07144,145.94914 357.18777,144.89499 356.63544,144.51314C355.96866,144.05217 355.15515,143.53555 355.07144,142.64531C354.99304,141.81149 355.16287,140.92055 354.8501,140.08115C354.57425,139.34079 353.7562,138.93988 353.19293,138.30247C352.61603,137.64967 352.71948,136.69669 352.12408,136.17114C351.48596,135.60788 351.07678,134.94919 351.07144,134.0238C351.06613,133.0985 351.07144,132.23848 351.07144,131.32515C351.07144,130.4398 350.83002,129.57343 350.4241,128.88098C349.98514,128.13213 350.19492,127.12794 349.64609,126.55981C349.15973,126.05635 348.92712,125.11633 348.07144,124.69048C347.31061,124.31183 347.49475,123.63326 346.90475,122.85714C346.42908,122.23141 345.57144,122.02381 344.7861,121.52381L343.97144,121.52381L343.07144,121.52381L342.19275,121.30247" id="svg_2" stroke-width="3" stroke="#000" fill="none"/>
  <path t="44405,44611,44642,44658,44762,44781,44832,44881,44922,44962,44980,44998,45049,45097,45169,45348,45431" d="M343.07144,121.52381C343.07144,120.52381 343.04349,119.72205 343.07144,118.80914C343.10004,117.87517 343.78323,117.48357 344.5506,117.02381C345.36337,116.53683 346.34653,116.72085 346.98743,116.23981C347.67886,115.72083 348.11285,114.99314 348.98743,114.60915C349.72406,114.28571 350.71875,114.52381 351.10742,113.94914L351.71875,113.52831" id="svg_3" stroke-width="3" stroke="#000" fill="none"/>
  <path t="47138,48432,48498,49735,51082,51113,51166,51181,51296,51337,52362,52410,52458,52498,52564,52647,52764,52810,52831,52915,53045,53082,53129,53177,53197,53296,53364,53364,53441,53522,53599,53633,53698,53745,53780,53848,53932,54294,54348,54528,54598,54598,54697,54729,54747,54831,54831,54882,54961,55030,55030,55097,55148,55164,55197,55214,55233,55265,55296,55329,55360,55393,55417,55481,55765,55829,55932,55969,56014,56033,56057,56098,56130,56198,56249,56313,56345,56431" d="M349.07144,86.52381C349.07144,88.32381 349.27469,88.99777 349.90475,89.69048C350.45026,90.29021 351.07144,90.69048 351.07144,91.62364C351.07144,92.47115 351.08115,93.3572 351.07144,94.17114C351.061,95.04482 350.48639,95.80408 350.07593,96.57648C349.67416,97.33251 349.01425,97.58099 348.4241,98.17114C347.78741,98.80782 347.19611,99.5526 346.49677,100.09848C345.84479,100.60739 344.84991,100.52381 343.97159,100.52381C343.09677,100.52381 342.52615,100.97279 341.78741,101.43848C341.03726,101.91136 340.11575,101.76243 339.37143,102.17114C338.62909,102.57877 337.64609,102.52381 336.7861,102.52381C335.87277,102.52381 335.42334,102.9529 334.78741,103.43848C334.08261,103.97665 333.4386,104.13632 332.84991,104.52381C332.11624,105.00672 330.72723,104.76849 331.29294,105.40247C331.92065,106.10594 332.79254,106.2233 333.59225,106.54464C334.37808,106.8604 335.16528,107.46293 336.07144,107.52381C336.86963,107.57745 337.71426,107.52444 338.6131,107.52381C339.55542,107.52314 340.4888,107.62637 341.30975,107.17114C342.07968,106.74421 342.77594,106.52381 343.67142,106.52381C344.57144,106.52381 345.47144,106.52381 346.36694,106.52381C347.24075,106.52381 348.07144,106.52381 349.07144,106.52381C349.92209,106.52381 350.82858,106.52381 351.6821,106.52381C352.5506,106.52381 353.07217,106.94914 353.07144,107.88097C353.07077,108.72247 352.70929,109.46026 352.07144,110.02381C351.48795,110.53933 351.17096,111.33906 350.57144,112.00298C349.9751,112.66338 349.1286,112.87648 348.7861,113.52381L347.87277,113.52515L347.12408,113.87648" id="svg_4" stroke-width="3" stroke="#000" fill="none"/>
  <path t="58819,59106,59155,59167,59167,59183,59183,59213,59230,59247,59265,59297,59346,59385,59425,59481,59497,59553,59579,59617,59630,59663,59696,59714,59714,59730,59747,59785,59865,59882,59921,59930,59977,59997,60014,60047,60063,60081,60097,60113,60131,60177,60521,60538,60561,60597,60625,60665,60713,60731,60748,60763,60797,60814,60847,60863,60863,60897,60937,60938,60967,60982,60998,61017,61048,61081,61145,61145,61185,61200,61200,61338,61431,61446,61462,61465,61465" d="M363.07144,81.52381C362.07144,81.52381 361.13388,81.50404 360.50211,82.09314C360.0351,82.52859 359.27811,83.3999 358.6131,83.98214C357.94217,84.56953 357.40109,85.07047 356.71426,85.46664C355.89972,85.93649 355.21722,85.961 355.0701,86.80914C354.90668,87.75115 354.17297,88.29945 353.64609,88.95981C353.08093,89.66811 352.7027,90.12275 352.15677,90.80914C351.647,91.45009 352.60056,92.72467 352.0701,93.43848C351.55157,94.13622 351.07144,94.52381 351.07144,95.32381C351.07144,96.22381 351.07144,97.16664 351.07144,98.02381C351.07144,98.95981 351.07144,99.81931 351.07144,100.74514C351.07144,101.60781 351.07144,102.52381 351.07144,103.32514C351.07144,104.23848 351.07144,105.13448 351.07144,106.02381C351.07144,106.92381 351.00058,107.87225 351.49677,108.49847C352.02374,109.16354 352.86115,109.5293 353.07144,110.40247C353.26526,111.20728 353.62399,111.97014 354.07159,112.74514C354.47321,113.44051 354.8067,113.95334 355.29276,114.52398C355.81473,115.1368 355.80539,115.92403 356.4241,116.46664C357.10992,117.06812 357.99945,117.27813 358.49677,117.97047C359.07138,118.77043 358.53448,119.6661 359.09277,120.53448C359.50742,121.17943 360.40256,121.41404 361.08609,122.08781C361.70789,122.70071 361.67844,123.45561 362.15677,124.23848C362.64749,125.0416 363.21832,125.32032 364.07144,125.69048C364.75616,125.98756 365.37143,126.8238 366.07144,127.52381C366.63544,128.08781 367.28479,128.83246 367.07126,129.74515C366.88788,130.52896 365.87143,130.52515 364.97144,130.74515L364.37143,131.17114" id="svg_5" stroke-width="3" stroke="#000" fill="none"/>
  <path t="62379,62793,62801,62829,62845,62880,62897,62914,62945,62965,62986,63032,63048,63064,63080,63113,63130,63130,63147,63185,63217,63241,63281,63377" d="M351.07144,118.52381C351.2381,120.35714 351.83768,120.8325 352.4241,121.47115C352.94897,122.04275 353.57254,122.64852 353.98608,123.43981C354.35721,124.14996 354.60904,124.97627 355.36694,125.47115C356.06232,125.92519 356.65396,126.21143 357.46075,126.53448C358.24991,126.85046 358.45929,127.83503 359.2381,128.35715C359.944,128.83037 361.00784,128.12106 361.7861,128.60915C362.52652,129.07349 363.10742,129.55981 363.6821,130.09848L364.5506,130.50298L365.4241,130.5238" id="svg_6" stroke-width="3" stroke="#000" fill="none"/>
  <path t="64377,64649,64665,64681,64705,64736,64763,64780,64797,64814,64830,64848,64865,64880,64904,64946,64993,65057,65096,65137,65161,65185,65201,65225,65233,65265,65281,65305,65353,65398,65398,65414,65481,65497,65530,65569,65594,65618,65618,65682,65697,65714,65738,65748,65780,65814,65831,65848,65865,65914,65962,65981,66041,66082,66082,66146,66201,66233,66265,66296,66337,66347,66364,66409,66433,66481" d="M364.07144,81.52381C365.6821,81.52381 366.57144,81.52381 367.47144,81.52381C368.36694,81.52381 369.0766,81.90654 369.90475,82.35714C370.60309,82.73711 371.57144,82.52381 372.47144,82.52381C373.37143,82.52381 374.28003,82.39981 375.17126,82.52398C375.97314,82.6357 376.50839,83.26598 377.2381,83.69048C378.05304,84.16455 378.07144,85.09848 378.07144,86.02381C378.07144,86.88097 378.23279,87.8886 377.8501,88.62364C377.40894,89.47095 376.92499,89.97739 376.35544,90.60781C375.76926,91.25665 375.39746,92.09122 374.64609,92.48781C373.88483,92.88962 373.03653,92.85338 372.27142,93.23981C371.47882,93.64013 370.72855,94.14054 369.87277,94.43848C369.06223,94.72066 367.89145,94.147 367.2381,94.69048C366.54807,95.26444 366.48123,96.33891 365.63544,96.52381C364.79135,96.70834 363.686,96.64724 363.2381,97.35714C362.78763,98.07113 362.09763,98.1203 361.4241,98.58098C360.74484,99.04558 361.065,100.30221 360.27008,100.52248C359.38596,100.76746 359.06302,101.37946 358.49677,102.08781C357.9209,102.80814 357.15646,103.50973 357.07275,104.23848C356.96631,105.16505 357.07144,106.09848 357.07144,106.95981C357.07144,107.81931 356.90115,108.7606 357.07144,109.69048C357.21579,110.47871 358.01425,110.88097 358.07144,111.82381L358.07144,112.72247L358.07144,113.57648" id="svg_7" stroke-width="3" stroke="#000" fill="none"/>
  <path t="77010,77185,77185,77200,77216,77230,77230,77247,77247,77280,77280,77297,77297,77329,77348,77371,77430,77497,77530,77547,77547,77707,77747,77747,77965,77965,78126,78881,78881,79167,79310,79310,79397,79430,79473,79605,79678,79785,79785,79809,79831,79846,79865,79888,79889,79905,79905,79930,79977,80026,80026,80065" d="M284.29999,94.86667C284.46667,95.86667 284.9566,96.65964 285.79999,96.84583C286.68979,97.04227 287.63821,97.05249 288.29999,97.3875C289.15765,97.82166 289.7652,98.41747 290.62134,98.9665C291.27579,99.3862 292.12186,99.78165 293.01334,99.86533C293.90674,99.9492 294.79999,99.86667 295.70001,99.86667C296.59549,99.86667 297.52151,99.86667 298.39999,99.86667C299.29999,99.86667 300.11053,99.9677 300.936,99.83067C301.80795,99.68592 302.70383,99.24015 303.41333,98.66666C304.07324,98.13326 304.23187,97.20156 304.58401,96.29733C304.83118,95.66264 305.05902,94.69157 305.46667,93.86667C305.82227,93.14708 306.29999,92.34583 306.29999,91.46667C306.29999,90.56667 306.22571,89.66476 306.29999,88.814C306.38364,87.85576 307.01749,87.47018 307.77917,86.86667C308.40286,86.37251 308.27423,85.34583 308.65268,84.56216C309.08194,83.67329 309.28198,83.04182 309.29999,82.03333C309.31567,81.15347 309.29999,80.256 309.29999,79.34583L309.29999,78.5455L309.29999,77.728L309.52133,76.86633" id="svg_8" stroke-width="3" stroke="#000" fill="none"/>
  <path t="83492,83882,83947,83964,83986,84034" d="M324.29999,88.86667C325.32083,88.86667 326.10132,88.86667 327,88.86667L327.89999,88.86667L328.86401,88.86667" id="svg_9" stroke-width="3" stroke="#000" fill="none"/>
  <path t="88026,88385,88425,88466,88490,88530,88530,88563,88580,88580,88602,88634,88647,88714,88730,88747,88786,88786,88810,88834,88898,88898,88913,88930,88963,88963,88980,89010,89030,89065,89080,89097,89097,89121,89161,89193,89193,89213,89234,89289,89297,89321,89354,89378,89499,89499,89523,89554,89602,89626,89648,89664,89682,89722,89722,89754,89779,89798,89826,89866,89891,89891,89922,89954,89954,89970,89981,90019,90091,90115,90130,90170,90259,90987,91026,91026" d="M322.29999,83.86667C321.29999,84.84133 321.01382,85.54411 320.384,86.15067C319.80927,86.70417 319.60858,87.48679 319.30133,88.29867C319.04382,88.97914 318.35092,89.4332 318.3045,90.2185C318.24539,91.21837 317.54019,91.80095 317.3045,92.514C317.01318,93.39532 316.73889,93.98752 316.13068,94.668C315.52625,95.34424 315.00742,95.78897 314.25183,96.5095C313.67261,97.06186 313.44601,97.89438 313.24283,98.56667C312.97827,99.44195 312.46906,100.21927 312.01599,101.06667C311.66742,101.71866 311.30225,102.56666 311.29999,103.46667C311.29779,104.34583 311.41174,105.31051 311.2955,106.16666C311.18399,106.988 310.81796,107.80373 310.24734,108.5095C309.65625,109.24057 309.29999,109.86667 309.29999,110.66666C309.29999,111.56667 309.29999,112.5095 309.29999,113.3875C309.29999,114.26667 309.29999,115.16666 309.29999,116.06533C309.29999,116.95067 309.29999,117.86667 309.29999,118.66666C309.29999,119.56667 309.29999,120.5095 309.29999,121.3875C309.29999,122.26667 309.29999,123.16666 309.29999,124.06533C309.29999,124.95067 309.29999,125.86667 309.29999,126.62383C309.29999,127.51483 309.13687,128.55313 309.32083,129.3875C309.50266,130.21222 310.64435,130.48903 311.13333,131.2C311.60413,131.88451 311.31595,132.92754 311.73599,133.728C312.0849,134.39288 312.8653,135.14029 313.1785,135.96651C313.49158,136.79239 313.40128,137.65878 313.79999,138.36667C314.29468,139.24501 314.79999,139.86667 315.2955,140.51401L315.65268,141.22383L316.1785,141.96683L316.29868,142.752" id="svg_10" stroke-width="3" stroke="#000" fill="none"/>
  <path t="93434,93634,93634,93668,93668,93681,93681,93681,93697,93697,93714,93714,93731,93731,93731,93747,93747,93763,93763,93780,93796,93796,93813,93814,93831,93831,93846,93846,93846,93863,93880,93881,93897,93913,93913,93913,93930,93930,93946,93946,93963,93963,93980,93980,93980,93996,93996,94013,94013,94013,94033,94033,94049,94049,94050,94063,94080,94098,94113,94131,94131,94146,94146,94185,94185,94196,94196,94213,94246,94263,94263,94280,94281,94296,94313,94313,94313,94330,94330,94330,94346,94346,94363,94363,94380,94396,94417,94417,94430,94430,94446,94480,94497,94546,94564,94564,94586,94586,94596,94630,94650,94663,94689,94721,94746,94801,94801,94813,94829,94857,94896,94938,94997,95066,95122,95274,96258,96279,96297,96338,96434,96434,96458,96458,96479,96513,96529,96529,96553,96577,96596,96596,96613,96646,96663,96663,96679,96713,96770,96796,96796,96813,96865,96882,96938,96993,97018,97046,97046,97065,97081,97096,97113,97153,97153,97163,97179,97202,97217,97338,97338,97363,97363,97393,97738,97763,97781,97782" d="M267.29999,119.86667C268.29999,120.03333 268.94617,120.48328 269.21735,121.352C269.49719,122.24844 269.70248,123.09823 270.172,123.656C270.66864,124.246 271.7287,124.94042 272.25833,125.36667C273.01611,125.97655 273.18719,126.93347 273.63333,127.86667C273.93723,128.5023 274.48813,129.02795 275.2785,129.84534C275.78094,130.36494 276.36426,131.21094 276.79999,131.84584C277.35596,132.65594 278.1369,133.19914 278.29999,133.8875C278.52661,134.84401 279.06369,135.5593 279.78265,136.06934C280.44052,136.53604 281.11145,137.39836 281.228,138.11734C281.34747,138.85437 281.24841,139.89737 281.29999,140.86667C281.34271,141.67007 281.83902,142.39008 282.46667,143.03334C283.11194,143.69466 283.79578,144.1082 284.18567,145.1185C284.44711,145.79594 284.25861,146.87537 284.336,147.616C284.45273,148.73317 284.84677,149.32858 285.40018,150.18817C285.84195,150.87436 286.15817,151.48911 286.784,152.26666C287.44669,153.09 288.1507,153.85509 288.54285,154.46217C289.01691,155.19611 289.48108,156.00096 290.05716,156.61934C290.75998,157.37376 291.30081,157.86586 291.81601,158.38266C292.53946,159.10835 292.90704,159.93898 293.30133,160.78267C293.64563,161.51942 294.39734,162.18958 294.79999,162.86667C295.29672,163.70195 295.8121,164.29446 296.46667,165.03334C296.97388,165.60585 297.27014,166.51801 297.29868,167.38266C297.32977,168.32448 297.28549,169.22844 297.30017,170.188C297.31058,170.8669 297.58087,171.81299 297.94733,172.56216C298.34671,173.37865 298.29999,174.40967 298.29999,175.13867C298.29999,175.97566 298.29999,176.86667 298.29999,177.75766C298.29999,178.59467 298.29999,179.72383 298.29999,180.48134C298.29999,181.35066 298.29916,182.214 298.29999,183.23067C298.30066,184.06799 298.46326,185.0347 298.72534,185.692C299.12808,186.7021 299.29465,187.45595 299.29999,188.34584C299.30573,189.30266 299.19296,190.17322 299.30133,191.06667C299.4129,191.98662 299.95322,192.47466 300.49866,193.34933C300.89597,193.9865 301.29922,194.94934 301.29999,195.86667C301.30072,196.74533 301.98645,197.30791 302.24283,198.16667C302.50079,199.03079 302.29999,199.96666 302.29999,200.86667C302.29999,201.66667 302.29999,202.56667 302.29999,203.46666C302.29999,204.34584 302.29999,205.30267 302.29999,206.16667C302.29999,207.06667 302.34772,207.96777 302.29999,208.86667C302.25726,209.6714 301.55316,210.40385 301.336,211.26666C301.11725,212.13579 301.29999,213.08833 301.29999,214.03334C301.29999,214.692 301.29999,215.7 301.29999,216.56216C301.29999,217.46666 301.29999,218.3875 301.29999,219.18784C301.29999,220.00534 301.29999,221.03467 301.29999,221.8875C301.29999,222.84517 301.29999,223.66533 301.29999,224.58133C301.29999,225.40834 301.29999,226.35066 301.29999,227.214C301.29999,228.105 301.29999,229.08817 301.29999,229.96666C301.29999,230.86667 301.29999,231.66667 301.29999,232.58133C301.29999,233.47734 301.29999,234.36667 301.29999,235.26666C301.29999,236.16667 301.48889,237.13597 301.07849,237.96666C300.73734,238.65724 300.05807,239.25157 299.20016,239.74533C298.46271,240.16977 297.87784,240.63536 297.13333,241.03334C296.39307,241.42905 295.67563,241.67703 294.79999,241.8875C293.8457,242.11687 293.66953,243.19943 292.96667,243.7C292.25525,244.20665 291.23276,244.23697 290.50134,244.58267C289.69739,244.96266 288.77917,244.86667 287.88934,244.86667L286.97882,244.86684L286.16135,244.90266" id="svg_11" stroke-width="3" stroke="#000" fill="none"/>
  <path t="101189,101331,101361,101361,101381,101404,101404,101404,101464,101481,101506,101539,101588,101588,101648,101675,101675,101706,101730,101754,101763,101798,101798,101814,101814,101831,101831,101831,101848,101848,101864,101881,101898,101898,101914,101938,101947,101981,101997,101997,102034,102050,102050,102066,102066,102098,102122,102122,102130,102147,102171,102197,102219,102219,102231,102248,102264,102281,102298,102298,102314,102331,102331,102348,102364,102380,102410,102410,102430" d="M101.3,216.86667C102.16133,216.86667 103.13333,216.86667 103.88934,216.86667C104.84167,216.86667 105.63333,216.86667 106.55067,216.86667C107.29467,216.86667 108.328,216.86667 109.27467,216.86667C110.10133,216.86667 110.936,216.86667 111.94817,216.86667C112.73067,216.86667 113.48051,217.32458 114.3,217.7C115.04269,218.04022 116.15353,217.91153 116.29867,218.668C116.46799,219.55057 116.3,220.50951 116.3,221.43733C116.3,222.27567 116.3,223.26801 116.3,224.10266C116.3,225.03334 116.34458,225.81833 116.264,226.60533C116.14854,227.73302 115.55532,228.38458 115.336,229.26666C115.11753,230.14532 115.15902,231.04436 114.8,231.84584C114.44628,232.6355 113.68112,233.20897 113.38533,234.06667C113.09059,234.9213 113.47147,235.90422 113.21467,236.66667C112.94585,237.46478 112.20266,238.18958 111.8,238.86667C111.30328,239.70195 110.80054,240.32587 110,240.8185C109.2007,241.31036 108.7869,241.87404 108.42133,242.845C108.10344,243.68933 107.34271,244.14758 107.3,245.03334C107.25986,245.86571 107.3,246.66667 107.3,247.56667C107.3,248.46666 107.3,249.36667 107.3,250.27733C107.3,251.188 107.3,252.04134 107.3,252.98134C107.3,253.86667 107.3,254.66667 107.3,255.56667C107.3,256.46667 107.3,257.38751 107.3,258.35068L107.3,259.04132L107.3,260.10501" id="svg_12" stroke-width="3" stroke="#000" fill="none"/>
  <path t="105332,105431,105463,105464,105464,105481,105481,105481,105481,105497,105497,105514,105514,105514,105530,105530,105547,105547,105547,105547,105564,105564,105581,105581,105597,105618,105675,105697,105697,105714,105714,105730,105747,105747,105763,105764,105780,105781,105796,105796,105813,105813,105830,105830,105846,105846,105863,105863,105880,105881,105896,105914,105914,105914,105930,105946,105946,105964,105964,105994,106013,106034,106034,106058" d="M210.3,162.86667C210.64133,162.15067 211.4418,161.89218 212.3625,161.95C213.06557,161.99414 214.16255,162.31557 214.81067,162.72C215.76537,163.31575 216.31435,163.79829 216.93584,164.72383C217.41447,165.43661 217.7225,166.20586 218.32083,166.86667C218.80145,167.39749 219.58687,168.09233 220.05267,168.73367C220.6768,169.593 220.95186,170.22511 221.3,170.86667C221.81479,171.81532 222.37872,172.83972 222.88933,173.43466C223.46169,174.10156 224.17822,174.59848 224.77916,175.36667C225.28642,176.01512 225.3,177.03334 225.3,177.86667C225.3,178.62384 225.29086,179.51938 225.3,180.38266C225.31042,181.36684 225.60753,182.34302 225.87466,183.07733C226.15863,183.85793 226.17601,184.8797 226.46666,185.7C226.71878,186.41156 227.44202,187.16609 227.77916,187.86667C228.23758,188.81926 228.29466,189.52795 228.3,190.63333C228.30344,191.34583 228.22328,192.37939 228.38533,193.11867C228.56807,193.95233 229.00085,194.85316 229.1785,195.72366C229.34689,196.54883 229.3,197.53867 229.3,198.40933C229.3,199.11734 229.19151,200.10538 229.3045,201.05234C229.41586,201.98557 230.02272,202.60202 230.24733,203.51933C230.45522,204.36833 230.72533,205.23067 231.1785,205.96666L231.3,206.86667L231.3,207.66667L231.3,208.58133" id="svg_13" stroke-width="3" stroke="#000" fill="none"/>
  <path t="110740,111158,111176,111176,111196,111196,111213,111213,111246,111263,111315,111331,111347,111386,111402,111426,111450,111466,111480,111506,111514,111538,111547,111563,111580,111597,111597,111613,111630,111630,111647,111647,111664,111664,111680,111680,111697,111697,111714,111714,111730,111730,111747,111747,111763,111764,111794,111813,111834,111834,111874,111898,111913,111913,111930,111947,111980,111997,112014,112029,112029,112046,112064,112079,112112,112129,112129,112146,112146,112162,112162,112193" d="M137.3,166.86667C137.13333,167.7 136.40063,168.18956 136.32083,168.90834C136.19299,170.05962 136.42419,170.88376 136.13333,171.7C135.85553,172.47955 135.55461,173.2603 135.2955,174.16217C135.07487,174.93008 134.6124,175.4492 134.28934,176.256C133.97336,177.04515 133.30226,177.57115 133.3,178.46666C133.29774,179.36667 133.3,180.26666 133.3,181.16667C133.3,182.06667 133.3,182.96666 133.3,183.86667C133.3,184.7 133.3,185.57117 133.3,186.3875C133.3,187.35066 133.3,188.214 133.3,189.114C133.3,190.03334 133.3,190.86667 133.3,191.84534C133.3,192.61934 133.3,193.52383 133.3,194.27116C133.3,195.26666 133.3,196.06667 133.3,197.06667C133.3,197.86667 133.24686,198.86919 133.31067,199.65601C133.396,200.70813 133.82889,201.33835 134.5,202.06799C135.00613,202.61826 135.60526,203.50966 135.94284,204.15683C136.39722,205.02789 136.8788,205.85948 137.13333,206.7C137.37134,207.48593 137.8315,208.24411 138.216,209.06667C138.57101,209.82614 138.94461,210.56787 139.3,211.36667C139.65446,212.16338 140.66574,212.40923 141.1785,213.08817C141.713,213.79588 141.33881,215.00023 142.0045,215.50951C142.68201,216.02782 143.45892,216.38467 144.01601,216.95067C144.6767,217.62193 145.10298,218.33237 145.36133,219.052C145.65871,219.88039 146.32083,220.34584 147.2785,220.96666L147.88933,221.46666L148.49867,222.06667" id="svg_14" stroke-width="3" stroke="#000" fill="none"/>
  <path t="114613,114746,114763,114780,114780,114780,114797,114797,114797,114813,114813,114813,114813,114830,114830,114830,114847,114847,114863,114863,114880,114880,114897,114897,114913,114930,114946,114947,114963,114963,114986,115002,115002,115013,115030,115030,115030,115046,115062,115080,115080" d="M189.3,135.86667C189.94733,136.57117 190.26935,137.43065 190.63333,138.2C190.96443,138.89983 191.49796,139.6443 192.13333,140.7C192.42177,141.17924 192.91292,142.09924 193.46666,143.03334C193.77579,143.55481 194.30447,144.35304 194.59016,144.914C195.10391,145.92276 195.22913,146.86957 195.468,147.46533C195.89026,148.5184 196.47186,149.04402 197.27867,149.84517C197.79158,150.35448 198.62291,150.964 199.3,151.36667C200.13528,151.8634 200.99207,152.21486 201.29866,153.036C201.59688,153.83472 201.57687,154.76593 202.32083,155.34584C203.082,155.93916 203.73882,156.42502 204.60001,156.814C205.3707,157.16209 205.96489,157.60895 206.71066,158.26666C207.43452,158.90506 208.19688,159.16216 208.73067,159.66667C209.49001,160.38437 210.06166,160.9765 210.784,161.43466L211.47467,162.01601" id="svg_15" stroke-width="3" stroke="#000" fill="none"/>
  <path t="118170,118327,118377,118377,118377,118396,118397,118397,118397,118397,118397,118397,118397,118397,118412,118412,118412,118412,118413,118433,118433,118433,118457,118457,118457,118482,118496,118529,118562,118580,118602,118617,118641,118641,118662,118690,118690,118745,118763,118780,118780,118801,118873,118897,118945,118963,118963,118980,118995,118996,119025,119065,119065,119079,119095,119112,119113,119129,119145,119146,119169,119169,119193,119212,119229,119230,119245,119246,119262,119279,119280,119295,119296,119312,119313,119329,119329,119345,119345,119346,119363,119363,119380,119395,119396,119412,119413,119430,119430,119445,119446,119462,119463,119480,119495,119496,119513,119529,119530,119546,119546,119546,119570,119570,119579,119613,119629,119629,119651,119651,119682,119697,119714,119730,119747,119747,119764,119764,119781,119797,119797,119797,119814,119835,119835,119847,119864,119881,119897,119914,119914,119931,120020,120020,120067" d="M1.3,188.86667C2.32083,188.86667 3.28033,188.86667 4.00833,188.86667C4.62433,188.86667 6.13333,188.8671 6.83483,188.8665C7.62533,188.86583 8.48385,188.86403 9.38933,188.856C10.32085,188.84775 11.25744,188.83475 12.17783,188.80949C13.06145,188.78525 14.63414,188.70886 15.28517,188.64534C15.8488,188.59035 16.33806,188.53841 17.42933,188.29201C18.47218,188.05653 19.25181,187.90474 20.07467,187.87733C21.1328,187.8421 21.83834,187.87083 22.63833,187.86667C23.66404,187.86133 24.35851,187.36655 25.17867,186.98817C25.93662,186.6385 26.91986,186.86909 27.7,186.44133C28.5229,185.99013 29.25196,185.62117 30,185.21933C30.77996,184.80035 31.78267,184.86667 32.59017,184.86667C33.5215,184.86667 34.45427,185.04994 35.3,184.7C36.08463,184.37534 36.779,183.87709 37.736,183.86667C38.59995,183.85727 39.5,183.86667 40.40017,183.86667C41.18533,183.86667 42.12533,183.86667 43.13334,183.86667C43.88933,183.86667 44.77917,183.86667 45.74283,183.86667C46.48533,183.86667 47.41467,183.86667 48.4,183.86667C49.3,183.86667 50.1,183.86667 50.936,183.86667C51.95717,183.86667 52.7045,183.86667 53.69867,183.86667C54.464,183.86667 55.41467,183.86667 56.4,183.86667C57.3,183.86667 58.05717,183.86667 58.95267,183.86667C59.816,183.86667 60.8,183.86667 61.6215,183.86667C62.51067,183.86667 63.49983,183.86667 64.27917,183.86667C65.27866,183.86667 66.05267,183.86667 66.96167,183.86667C67.76167,183.86667 68.72134,183.86667 69.52533,183.86667C70.34734,183.86667 71.37817,183.86667 72.2375,183.86667C73.26,183.86667 74.15334,183.86667 74.82083,183.86667C75.96667,183.86667 76.77917,183.86667 77.6215,183.86667C78.51067,183.86667 79.49983,183.86667 80.27917,183.86667C81.2785,183.86667 82.09866,183.86667 82.936,183.86667C83.95267,183.86667 84.64733,183.86667 85.67467,183.86667C86.62167,183.86667 87.34167,183.86667 88.46667,183.86667C89.24817,183.86667 90.03867,183.86667 90.96667,183.86667C91.87867,183.86667 92.77917,183.86659 93.66167,183.86667C94.62133,183.86676 95.52177,183.7596 96.27834,184.088C97.09104,184.44077 97.82083,184.86667 98.7,184.86667C99.6,184.86667 100.50134,184.86667 101.46667,184.86667C102.3,184.86667 103.27863,184.85345 103.9955,184.86667C104.9725,184.88467 105.84364,185.08466 106.55067,185.29201C107.29571,185.5105 108.32652,185.82396 109.3,185.86667C110.09923,185.90173 111,185.86667 111.9,185.86667C112.8,185.86667 113.71066,185.86667 114.62133,185.86667C115.47467,185.86667 116.41467,185.86667 117.3,185.86667L118.1,185.86667L119,185.86667" id="svg_16" stroke-width="3" stroke="#000" fill="none"/>
  <path t="121130,121249,121281,121282,121294,121294,121294,121294,121294,121294,121310,121310,121310,121310,121310,121329,121329,121329,121329,121345,121345,121346,121346,121346,121379,121380,121380,121380,121380,121380,121396,121396,121396,121396,121396,121396,121396,121396,121397,121413,121413,121413,121413,121413,121413,121428,121446,121446,121446,121462,121462,121463,121478,121479,121495,121496,121512,121513,121513,121529,121529,121529,121545,121546,121546,121546,121562,121562,121562,121562,121563,121578,121579,121579,121579,121579,121595,121596,121596,121596,121596,121612,121613,121613,121613,121628,121629,121629,121645,121646,121646,121646,121663,121663,121663,121678,121678,121695,121696,121696,121713,121713,121713,121713,121728,121729,121746,121746,121763,121763,121763,121778,121778,121795,121796,121812,121813,121813,121813,121828,121828,121829,121829,121845,121846,121846,121863,121863,121863,121879,121880,121880,121896,121897,121897,121897,121928,121928,121945,121945,121946,121969,121969,121969,121995,121995,122209,122231,122253,122289,122321,122331,122346,122378" d="M358.29999,168.86667C361.75833,168.86667 362.62823,168.87665 363.34299,168.80949C364.302,168.71939 365.20663,168.58253 365.72501,168.51401C366.84164,168.36638 367.4191,168.2845 368.56668,168.15067C369.63254,168.02637 370.55991,167.94946 371.36667,167.892C372.09323,167.84026 372.78482,167.81406 374.18533,167.58267C374.93896,167.45816 375.70789,167.27542 376.50134,167.15067C377.6965,166.96277 378.50528,166.92369 379.32083,166.84584C380.15808,166.76591 380.59509,166.74138 381.92233,166.424C382.88782,166.19312 383.38541,166.00107 384.49066,165.71733C385.08832,165.5639 385.72266,165.40005 387.13333,165.2C387.90405,165.0907 388.7182,165.02995 389.55884,164.981C390.41559,164.93112 391.27908,164.90445 392.13733,164.888C392.97943,164.87186 393.79468,164.86801 395.29999,164.86667C395.97049,164.86607 396.58401,164.86667 397.65201,164.86667C398.52802,164.86667 399.23599,164.86667 400.43301,164.86667C401.46667,164.86667 402.14667,164.86667 402.98666,164.86667C403.98401,164.86667 404.79999,164.86667 405.616,164.86667C406.61334,164.86667 407.45334,164.86667 408.55634,164.86667C409.35468,164.86667 410.35333,164.86667 410.98666,164.86667C411.99918,164.86667 412.96667,164.86667 413.79468,164.86667C414.55066,164.86667 415.63333,164.86667 416.27066,164.86667C417.34167,164.86667 418.10901,164.86667 419.29999,164.86667C420.10001,164.86667 420.89999,164.86667 421.70001,164.86667C422.5,164.86667 423.70023,164.87238 424.50449,164.86217C425.32092,164.85181 426.15775,164.81717 426.58533,164.78133C427.9234,164.66916 428.84979,164.51837 429.77917,164.34584C430.2395,164.26038 431.13428,164.07976 432.35699,163.76683C433.08792,163.57976 434.07352,163.27965 434.69733,163.15199C435.89175,162.90758 436.4996,162.88861 437.39999,162.87117C438.59995,162.84793 439.2045,162.86667 440.13599,162.86667C440.78534,162.86667 442.18134,162.86667 442.90399,162.86667C443.60266,162.86667 444.79999,162.86667 445.61334,162.86667C446.63333,162.86667 447.32074,162.91406 448.12134,162.79466C449.3154,162.61658 449.90717,162.31772 450.75833,161.86667C451.29211,161.58382 452.31848,160.95494 453.18268,160.86934C454.14197,160.77432 454.76166,160.86667 455.98401,160.86667C456.79999,160.86667 457.34732,160.86667 458.61334,160.86667C459.45334,160.86667 460.41867,160.86667 461.16699,160.86667C462.06451,160.86667 463.008,160.86667 463.73199,160.86667C464.504,160.86667 465.69968,160.86667 466.491,160.86667C467.25833,160.86667 467.98566,160.86667 469.25717,160.86667C470.03867,160.86667 470.74817,160.86667 471.98532,160.86667C472.53601,160.86667 473.40451,160.86667 474.60001,160.86667C475.5,160.86667 476.10001,160.86667 477.29999,160.86667C478.1955,160.86667 478.77917,160.86667 479.61465,160.86667C480.84732,160.86667 481.52533,160.86667 482.46667,160.86667C483.25717,160.86667 484.11066,160.86667 485.29999,160.86667C486.19101,160.86667 486.75833,160.86667 487.96667,160.86667C488.73749,160.86667 489.65717,160.86667 490.60001,160.86667C491.5,160.86667 492.39984,160.86667 493.27466,160.86667L494.10132,160.86667L495,160.86667L495.89999,160.86667" id="svg_17" stroke-width="3" stroke="#000" fill="none"/>
  <path t="123801,124010,124011,124028,124044,124057,124074,124074,124090,124090,124113,124129,124130,124130,124146,124163,124163,124185,124185,124201,124213,124230,124246,124246,124263,124263,124280,124296,124296,124313,124313,124329,124330,124330,124346,124346,124346,124363,124363,124395,124396,124458,124458,124513,124561,124601,124697,124697,124721,124761,124817,124833,124865,124881,124937,124961,124961,124995,124995,125011,125029,125029,125046,125046,125062,125062,125078,125095,125095,125095,125112,125113,125113,125129,125145,125146,125162,125163,125163,125178,125178,125178,125195,125211,125211,125228,125228,125245,125265,125265,125281,125281,125522,125537,125537,125553,125563,125578,125595,125596,125611,125612,125612,125628,125661,125678,125679,125696,125711,125712,125729,125745,125746,125746,125769,125769,125778,125828,125829,125898,125945,125963,125979,125995,126011,126057,126105,126106,126128,126153,126153,126193,126213,126228,126245,126377,126378,126411,126429,126457,126457,126495,126511,126512,126553,126579,126579,126609,126628,126645,126665,126665,126689,126697,126711,126728,126745,126745,126761,126762,126778,126811,126829,126829,126846,126865,126879,126897,126912,126929,126929,126945,126945,126962,126996,126996,127091,127122,127147,127147,127163,127180,127197,127197,127355,127381,127396,127413,127430,127447,127463,127480,127497,127497,127513,127530,127561,127561,127579,127579,127596,127612,127612,127629,127646,127646,127646,127662,127696,127712,127729,127746,127762,127786,127802,127812,127829,127846,127862,127862,127879,127896,127914,127914,127929,127946,127947,127962,127980,127996,127997,127997,128018,128029,128046,128046,128062,128063,128079,128098,128114,128130,128130,128283,128309,128330,128346,128363,128380,128397,128413,128413,128430,128430,128447,128447,128463,128483,128506,128530,128553,128595,128691" d="M4.3,180.86667C5.68933,179.04134 5.79121,178.25127 6.3,177.40834C6.71718,176.71719 7.26294,176.19801 7.58533,175.38266C7.93822,174.49019 8.60838,173.82236 9.01467,173.06799C9.4542,172.25189 9.51799,171.32303 9.72533,170.616C9.94382,169.87096 9.99224,168.70587 10.63333,167.86667C11.03431,167.34178 12.00139,166.7135 12.23867,166.052C12.57089,165.12581 13.25728,164.58467 13.3,163.76666C13.34694,162.86789 13.25475,161.97974 13.31067,161.04134C13.35199,160.34787 13.90755,159.40816 14.17867,158.54533C14.38534,157.88762 14.48935,156.86661 14.94667,156.20534C15.57801,155.29243 15.98645,154.87976 16.43867,154.08133C17.01699,153.06026 17.23438,152.32845 17.291,151.47116C17.35702,150.47147 17.23877,149.73686 17.3,148.7C17.34274,147.97621 17.7622,147.05571 18.016,146.35066C18.34934,145.42465 18.74921,144.62787 19.384,144.15067C20.15056,143.57439 21.13178,144.05334 22,143.80949C22.76145,143.59563 23.5167,143.05908 24.39983,142.8665C25.2441,142.6824 25.74107,141.77255 26.6,141.87117C27.42354,141.96573 28.04762,142.59767 28.49867,143.35066C28.99758,144.18356 29.2714,145.11267 29.3,146.03334C29.32587,146.86627 29.1835,147.71474 29.35717,148.61934C29.53576,149.54962 29.98701,150.20174 30.24733,151.114C30.50669,152.02286 30.74873,152.70792 31.10133,153.55333C31.51364,154.54189 31.79978,155.31827 32.01467,156.01199C32.32561,157.01584 32.2746,157.93558 32.336,158.66267C32.42397,159.70448 32.68925,160.40289 32.94733,161.31934C33.21719,162.27762 33.27821,163.07019 33.2955,163.79967C33.32079,164.86638 33.25384,165.72307 33.336,166.62666C33.41895,167.53894 33.98425,168.2518 34.24283,169.17117C34.47678,170.00296 34.24948,170.86798 34.30017,171.84517C34.34288,172.66862 34.79033,173.39767 35.5,174.06534C36.07637,174.60759 36.99036,174.76691 37.384,174.06534C37.79588,173.33127 38.4167,172.55446 38.8,171.84584C39.32308,170.8788 39.48941,170.19896 40,169.58099C40.65565,168.78746 41.50026,168.44917 42.3,168.03334C43.04381,167.64659 43.80515,167.3511 44.5,166.66667C45.10452,166.07121 45.67643,165.39209 46.63334,164.86667C47.27481,164.51443 48.11839,164.42458 48.93583,163.76683C49.56869,163.25761 50.40041,163.00305 51.13334,162.53334C51.75731,162.13347 52.252,161.03639 53.13334,160.86667C53.89664,160.71967 54.9,160.86667 55.8,160.86667C56.68933,160.86667 57.66349,160.67624 58.39983,161.08817C59.13738,161.50078 59.26722,162.56747 60.00533,163.16217C60.53802,163.59135 61.07893,164.47264 61.736,164.83067C62.49534,165.24443 63.56923,164.67787 64.39983,165.088C65.1074,165.43738 65.82083,165.86667 66.71066,165.86667C67.62117,165.86667 68.5736,166.15848 69.30033,165.64534C69.94752,165.18837 70.49429,165.00037 71.54283,164.86217C72.41942,164.74663 73.10279,164.39806 73.864,163.84134C74.53197,163.35281 75.20091,163.03503 76.13333,162.7C76.9418,162.4095 77.69946,161.88467 78.6,161.86667C79.49982,161.84868 80.40064,161.90057 81.3,161.86667C82.05878,161.83806 82.9393,161.48026 83.64733,161.21933C84.63694,160.85464 85.58533,160.86667 86.40017,160.86667C87.18533,160.86667 88.11494,160.84325 89.13067,160.86667C89.91129,160.88467 90.65038,161.38406 91.5,161.78267C92.36059,162.18642 93.03097,162.61209 93.784,163.06534C94.45343,163.46828 95.46704,163.6424 96.3,164.03334C97.06869,164.39412 97.79983,164.85617 98.71066,164.86667C99.62111,164.87717 100.61803,164.65862 101.23867,165.30267C101.81998,165.90591 102.33449,166.60887 103.1,166.95067C103.84354,167.28265 104.70512,167.84053 105.3,167.36667C105.96577,166.83635 106.23763,166.08318 106.8,165.3875C107.36713,164.68593 108.45699,164.51031 108.96667,163.86667C109.50407,163.18803 109.22475,162.06963 109.84167,161.36667C110.36961,160.76509 111.33543,160.42146 112.13333,159.86667C112.79047,159.40974 113.06374,158.59961 113.5215,157.76666C113.89247,157.09164 114.67665,156.42111 115.46667,155.86667C116.09,155.4292 116.96986,155.18362 117.291,154.22383C117.56345,153.40955 118.04173,153.13486 118.96667,152.86667C119.81097,152.62186 120.60181,152.10493 121.216,151.58267C121.86977,151.02675 122.18587,150.28291 122.65266,149.57117C123.16206,148.79446 123.71658,148.18265 124.016,147.34933C124.3532,146.41089 124.16346,145.51003 124.584,144.66667C124.91393,144.00502 125.24485,143.22902 125.3045,142.21851C125.35085,141.43321 126.03825,140.79547 126.40984,140.04784C126.76438,139.33449 127.11276,138.58984 127.65183,137.92917C128.35368,137.069 129.1915,136.64688 129.30017,135.76649C129.39693,134.98268 129.61981,133.96616 130.10133,133.436C130.76656,132.70361 131.80939,132.50078 132.216,131.66667C132.58337,130.9131 132.71161,130.01872 133.32533,129.30267C133.84898,128.69173 134.89999,128.86667 135.8,128.86667C136.7,128.86667 137.87003,128.61536 138.26401,129.31334C138.69432,130.07568 138.22694,131.07455 138.52133,131.84534C138.83656,132.67067 139.04976,133.57674 139.384,134.29733C139.75385,135.09467 140.28958,135.86649 140.3,136.75684C140.30954,137.57111 140.3,138.46666 140.3,139.36667L140.3,140.256" id="svg_18" stroke-width="3" stroke="#000" fill="none"/>
  <path t="129706,129912,129912,129945,129945,129945,129945,129964,129964,129964,129964,129964,129964,129964,129964,129980,129980,129980,129980,129980,129995,129995,130012,130029,130046,130046,130065,130079,130096,130112,130137,130177,130178,130201,130225,130257,130257,130305,130306,130329,130345,130369,130385,130385,130425,130449,130449,130462,130479,130479,130496,130496,130496,130512,130512,130512,130512,130529,130529,130529,130529,130529,130545,130545,130545,130545,130545,130545,130562,130562,130562,130579,130579,130609,130666,130689,130712,130745,130762,130762,130762,130779,130795,130795,130812,130812,130829,130845,130845,130862,130862,130879,130895,130895,130912,130929,130929,130945,130995,131013,131013,131029,131029,131061,131062,131089,131113,131145,131162,131162,131179,131179,131217,131217,131229,131229,131261,131279,131279,131295,131295,131312,131312,131329,131329,131345,131362,131362,131379,131379,131395,131412,131449,131465,131481,131481,131497,131529,131545,131562,131579,131595,131612,131666,131809,131810,131906,131929,131945,131962,132009,132009,132032,132057,132057,132079,132079,132105,132121,132129,132129,132210" d="M180.3,115.86667C179.42183,116.64484 179.45074,115.88376 179.87199,115.08933C180.33926,114.20811 180.57178,113.8727 180.98801,113.03733C181.48404,112.0418 181.9863,110.84629 182.25267,110.19884C182.52771,109.53031 182.80017,108.8459 183.07466,108.15733C183.3475,107.4729 183.60582,106.79713 184.13333,105.53333C184.60297,104.40819 184.83234,103.90816 185.2375,103.0125C185.5799,102.25559 186.02153,101.11889 186.27916,100.42917C186.60805,99.54868 187.19109,98.76828 187.3,97.86667C187.3965,97.06793 188.0031,96.44505 188.26401,95.46667C188.49498,94.60052 188.76741,93.9346 189.32083,93.34583C189.91803,92.71049 190.44611,92.17226 191.41467,91.952C192.37906,91.7327 193.3,91.86667 194.05716,91.86667C194.95267,91.86667 195.81599,91.86667 196.77916,91.86667C197.7,91.86667 198.60458,91.87772 199.46666,91.86667C200.27936,91.85625 201.06015,91.29292 201.86934,90.952C202.59428,90.64658 203.54283,90.86667 204.50267,90.86667C205.27066,90.86667 206.07265,90.88308 206.8625,90.84583C207.78922,90.80213 208.82353,90.65572 209.55716,90.5095C210.3231,90.35683 211.10501,90.16422 212.3,89.86667C213.10301,89.66672 213.92229,89.45959 214.772,89.23067C215.21484,89.11137 216.63412,88.70258 217.66533,88.384C218.19675,88.21983 218.72816,88.04817 219.77733,87.728C220.27979,87.57466 221.62813,87.17439 222.66684,86.9765C223.41803,86.83339 224.36882,86.49965 225.09866,86.15067C225.8625,85.78543 226.8,85.86667 227.7,85.86667C228.5955,85.86667 229.21326,86.17455 229.46666,87.03333C229.66806,87.71584 230.12048,88.36971 230.68933,89.23067C231.23463,90.05599 231.36058,90.76083 231.72533,91.692C231.99863,92.38972 232.26556,93.36707 232.30133,94.35067C232.32646,95.04175 232.67958,95.93626 233.01601,96.75066C233.38481,97.64344 233.46748,98.53208 234.10133,98.94933C234.90103,99.47575 235.5,100.06666 236.10001,100.66666C236.77916,101.34583 237.52167,101.86667 238.46666,101.86667C239.3,101.86667 240.13333,101.86667 241.01334,101.86667C242.00983,101.86667 242.65184,101.86667 243.664,101.86667C244.5955,101.86667 245.52167,101.86667 246.46666,101.86667C247.3,101.86667 248.23227,102.19562 249.01334,101.78133C249.87161,101.32609 250.32066,100.87708 251.2785,100.86667C252.09862,100.85775 253.14761,100.90115 253.87067,100.58134C254.53596,100.28707 255.51122,99.7881 256.27917,99.36667C257.14685,98.89052 257.76947,98.35645 258.39999,97.76683C258.99106,97.21411 259.98254,96.88921 260.5,96.29733C261.11121,95.59823 261.59784,94.81658 262.01468,94.068C262.4328,93.31712 262.71756,92.44959 263.49866,91.95067C264.23102,91.48288 264.65942,90.71432 265.01599,90.06667C265.49149,89.20298 266.21616,88.88251 267.00449,88.86667C267.90054,88.84866 268.71603,88.44843 269.216,87.668C269.68265,86.93955 270.52402,86.96568 271.46667,86.7C272.13821,86.51073 273.12512,85.56531 273.87466,85.90266C274.62408,86.23996 274.72681,87.27549 275.39999,87.96667C275.99203,88.57453 276.77014,89.08428 277.13333,90.03333C277.4357,90.82345 277.1145,91.73289 277.35718,92.56216C277.61511,93.44352 278.24734,94.16666 278.52133,94.96667L279.01599,95.66666L279.2955,96.5095" id="svg_19" stroke-width="3" stroke="#000" fill="none"/>
  <path t="133690,133761,133802,133802,133818,133818,133834,133845,133866,133866,133879,133896,133913,133913,133929,133946,133946,133978,133978,134012,134013,134029,134050,134050,134050,134073,134081,134095,134096,134114,134145,134162,134163,134194,134213,134228,134229,134250,134250,134273,134282,134282,134298,134337,134369,134410,134465,134465,134480,134480,134496,134513,134529,134562,134562,134562,134595,134595,134595,134595,134612,134612,134612,134612,134612,134612,134629,134629,134629,134629,134649,134649,134689,134746,134866,134889,134914,134954,134954,134962,134996,134997,135018,135050,135050,135078,135113,135137,135149,135330,135345,135362,135362,135410,135433,135522,135562,135579,135596,135613,135628,135646,135646,135646,135663,135663,135678,135679,135695,135713,135728,135745,135777,135874,135874,135897,135913,135929,135929,135945,135963,135995,135995,136018,136018,136018,136033,136034,136314,136328,136362,136363,136378,136379,136379,136433,136506,136506,136529,136618,136628,136650,136673,136682,136682,136696,136713,136746,136763,136763,136763,136778,137010,137050,137050,137062,137095,137129,137145,137161,137179,137179,137201,137212,137241,137242,137262,137262,137289,137306,137322,137353,137393,137457,137458,137491,137529,137546,137546,137577,137577,137595,137595,137613,137629,137629,137646,137663,137663,137663,137679,137679,137696,137696,137696,137712,137712,137712,137729,137729,137746,137746,137762,137834,137834,138050,138079,138097,138113,138113,138130,138130,138145,138161,138162,138162,138162,138218,138218,138234,138273,138296,138329,138353,138362,138385,138401,138412,138412,138478,138496,138512,138529,138553,138569,138569,138597,138628,138645,138645,138689,139065,139079,139096,139113,139145,139145,139161,139184,139195,139211,139228,139245,139261,139281,139295,139353,139369,139393,139394,139411,139429,139446,139461,139462,139495,139496,139511,139529,139529,139545,139561,139562,139562,139595,139596,139611,139629,139629,139649,139661,139662,139681,139697,139721,139737,139737,139753,139769,139770,139785,139796,139828,139846,139846,139865,139866,139878,139879,139905,139905,139928,139945,139946,139962,139962,139979,139996,139996,139997,140012,140012,140029,140029,140046,140046,140046,140061,140062,140078,140079,140079,140095,140096,140111,140129,140129,140145,140145,140161,140162,140162,140178,140196,140196,140211,140228" d="M361.29999,106.86667C362.11884,106.86667 363.06799,106.86667 364.04935,106.86667C364.96667,106.86667 365.79694,106.93065 366.60001,106.514C367.44986,106.07308 368.26666,105.64607 368.89999,105.292C369.76126,104.81049 370.76617,105.00198 371.5,104.58134C372.18658,104.18777 372.78659,103.35297 373.40018,102.76667C374.04346,102.15199 374.79041,101.67754 375.47467,101.26667C376.28613,100.77943 376.91837,100.15707 377.32083,99.34583C377.72296,98.53526 378.34824,97.90349 378.73199,97.35067C379.36371,96.4407 379.82718,95.65721 380.1785,94.76667C380.43915,94.10597 380.67072,93.43772 381.1785,92.64516C381.65701,91.89828 381.20331,90.97517 381.31067,90.052C381.42224,89.09267 382.42657,88.81764 382.86401,88.22C383.40048,87.48705 383.24661,86.4765 383.65268,85.62383C384.0383,84.81413 383.81754,83.87429 384.38535,83.152C384.92764,82.46217 385.17474,82.05596 385.29999,81.22383C385.44427,80.26518 385.82303,79.61948 386.5,78.75333C386.94644,78.18211 387.90378,77.86823 388.35266,77.16217C388.78653,76.47976 389.46106,75.69425 389.96167,75.2095C390.54022,74.64928 391.46149,73.85984 391.98666,73.46533C392.54126,73.04872 393.46454,72.41353 394.46667,71.7C394.82233,71.44676 395.55267,70.91399 396.29999,70.36667C397.04733,69.81933 397.41193,69.54497 398.47818,68.78833C399.13135,68.32483 400.02451,67.72327 400.52802,67.35333C401.4953,66.64266 401.68185,65.84801 402.384,65.152C402.93192,64.60888 404,64.86667 404.94284,64.86667C405.84167,64.86667 406.784,64.86667 407.47467,64.86667C408.53833,64.86667 409.29999,65.03333 409.29999,65.75333C409.29999,66.692 409.29999,67.7 409.29999,68.505C409.29999,69.3875 409.29999,70.26667 409.29999,71.16666C409.29999,72.06533 409.29333,73.08458 410.06168,73.514C410.88235,73.97266 411.72852,73.74828 412.65332,74.292C413.38727,74.72352 414.10132,74.86667 415,74.86667C415.89999,74.86667 416.92111,74.87218 417.32535,74.256C417.82129,73.49999 418.46667,72.7 418.95267,72.214C419.47467,71.69199 420.24207,70.84695 420.92532,70.27734C421.5882,69.72472 422.2063,69.1999 423.19467,68.92384C423.97772,68.70513 424.73965,68.43902 425.52151,67.98817C426.28976,67.54515 427.29999,67.86667 428.10001,67.86667C429,67.86667 429.82083,67.86667 430.784,67.86667C431.64734,67.86667 432.56915,67.68711 433.40982,67.92384C434.23843,68.15717 434.76312,68.63051 435.49966,69.40933C436.12811,70.07385 436.67761,70.8171 437.05701,71.7235C437.3703,72.47205 436.96906,73.44645 437.29999,74.34583C437.53601,74.9873 438.57559,74.91453 439.49966,74.424C440.12531,74.0919 440.88834,73.52809 441.30017,72.64516C441.68307,71.82428 442.12781,71.42708 442.86401,70.84133C443.54053,70.30306 444.13812,69.6632 445,69.92384C445.88507,70.19148 446.60385,70.99028 447.01468,71.66666C447.48608,72.44279 448.03098,72.94283 448.40982,73.6855C448.88846,74.62382 449.11276,75.14349 449.65182,75.80417C450.35367,76.66434 451.03143,77.39383 451.74268,77.745C452.50851,78.12313 453.22061,77.2102 453.82083,76.84583C454.54477,76.40636 455.5899,76.25956 456.17868,75.64516C456.83115,74.9643 457.06433,74.22057 457.68933,73.46667C458.23438,72.80923 458.05783,71.77286 458.47067,71.06667C458.92834,70.28377 459.98163,70.18895 460.27866,69.26667C460.55463,68.40976 460.29932,67.46667 460.29999,66.56667C460.30066,65.66666 460.60083,64.81583 460.94733,64.16666C461.40067,63.31729 461.22122,62.25662 461.87067,61.66667C462.436,61.15311 463.51807,60.79977 464.07867,60.46667C465,59.91923 465.35962,59.08142 466.16135,58.90267C467.11069,58.69101 468.02338,58.85592 468.82083,58.34583C469.65329,57.81337 470.31891,57.36295 470.90134,57.06667C471.89676,56.56028 472.50348,56.27353 473.5,55.7665C474.10214,55.46014 474.91516,55.00113 475.70001,54.384C476.31219,53.90264 476.85291,53.31522 477.89999,52.9765C478.67587,52.72552 479.74966,52.67978 480.42801,52.256C481.20581,51.7701 481.40738,50.63807 482.00449,50.22383C482.79343,49.67651 483.83551,49.63674 484.70001,49.888C485.48465,50.11605 485.86578,51.07462 486.39984,51.84517C486.83685,52.47571 487.22318,53.31422 487.63333,54.2C487.95773,54.90058 488.48431,55.63484 488.73199,56.184C489.26813,57.37282 489.13779,58.30768 489.65717,59.105C490.13525,59.83894 490.93546,60.10408 491.31067,60.84134C491.69623,61.59892 492.28131,62.26614 492.29999,63.16667C492.31863,64.06647 492.63208,64.89191 493.01599,65.58134C493.43182,66.32808 493.25641,67.26773 493.29999,68.16217C493.34271,69.03912 493.82135,69.69307 494.13333,70.7C494.36179,71.43735 494.16293,72.50798 494.65717,73.22383C495.17368,73.97195 495.90643,74.44628 496.27466,75.26667C496.62537,76.04805 497.25726,76.77922 497.29999,77.57117C497.35016,78.50132 497.29999,79.35067 497.29999,80.214C497.29999,81.1095 497.29999,82.06667 497.29999,82.96667C497.29999,83.86667 497.29999,84.74533 497.29999,85.57117C497.29999,86.46667 497.29999,87.36667 497.29999,88.256C497.29999,89.152 497.29999,90.068 497.29999,91.03333C497.29999,91.84583 497.29999,92.75684 497.29999,93.57117C497.29999,94.50267 497.29999,95.34933 497.29999,96.15683C497.29999,97.2 497.29999,97.8875 497.29999,98.98133C497.29999,99.86667 497.29999,100.66666 497.29999,101.53867C497.29999,102.40916 497.29999,103.34583 497.29999,104.01334C497.29999,105.2 497.29999,105.8875 497.29999,106.98133C497.29999,107.86667 497.29999,108.66666 497.29999,109.50267C497.29999,110.51933 497.29999,111.214 497.29999,112.23067C497.29999,113.16666 497.29999,114.068 497.29999,115.03333C497.29999,115.84583 497.29999,116.69867 497.29999,117.5765C497.29999,118.384 497.29999,119.34583 497.29999,120.256C497.29999,121.15334 497.29999,122.03333 497.29999,122.8875C497.29999,123.86667 497.29999,124.656 497.29999,125.7C497.29999,126.492 497.29999,127.35067 497.29999,128.214C497.29999,129.114 497.29999,130.03334 497.29999,130.86667C497.29999,131.84517 497.29999,132.66533 497.29999,133.53867C497.29999,134.40933 497.29999,135.36667 497.29999,136.09866C497.29999,137.06134 497.29999,137.83467 497.29999,138.8765C497.29999,139.65199 497.29999,140.7 497.29999,141.63066C497.29999,142.26216 497.29999,143.26801 497.29999,144.10266C497.29999,145.28783 497.29999,146.08133 497.29999,146.85683C497.29999,147.896 497.29999,148.664 497.29999,149.50267C497.29999,150.51933 497.29999,151.214 497.29999,152.26266C497.29999,152.92134 497.29999,153.91733 497.29999,154.84584C497.29999,155.72934 497.29999,156.744 497.29999,157.57651L497.29999,158.384L497.29999,159.34584L497.29999,160.256" id="svg_20" stroke-width="3" stroke="#000" fill="none"/>
  <path t="143019,143370,143397,143445,143462,143462,143482,143513,143537,143553,143553,143593,143674,143753,143777,143778,143825,143825,143845,143862,143879,143879,143895,143929,143945,143969,143969,144001,144073,144122,144210,144386,144429,144450,144489,144513,144514,144562,144562,144562,144579,144595,144641,144662,144679,144801,144801,144834,144857,144897,144938,145012,145012,145029,145046,145046,145090,145113,145218,145282,145587,145650,145695,145745,145795,145842,145842,145864,145914" d="M90.3,162.86667C89.3,163.84134 89.15762,164.70313 88.27917,164.84584C87.33367,164.99945 86.35123,164.7822 85.736,165.47734C85.14631,166.14363 85.14914,167.26125 84.3,167.7C83.66164,168.02983 82.66219,167.83391 81.91067,168.29201C81.08524,168.79515 80.19982,168.86221 79.41467,168.86667C78.47462,168.87201 77.76381,168.90794 76.82083,169.36667C75.98021,169.7756 75.25545,170.1777 74.5,170.58267C73.74404,170.9879 72.95425,171.39409 72.1,171.78267C71.33689,172.12979 70.64655,172.67064 69.736,172.856C68.89172,173.02788 68.29272,173.46806 67.5955,173.91933C66.85961,174.39561 67.00903,174.8745 67.9,174.86667C68.82103,174.85858 69.7914,174.59454 70.51067,174.256C71.30699,173.88118 72.06645,173.42058 72.81467,173.15199C73.75597,172.81409 74.7,172.86667 75.6,172.86667C76.49866,172.86667 77.35267,172.86667 78.3,172.86667C79.1,172.86667 80,172.86667 80.9,172.86667C81.8,172.86667 82.71066,172.86667 83.62133,172.86667C84.3,172.86667 85.2785,172.86667 86.3,172.86667C87.1,172.86667 88,172.86667 88.864,172.86667C89.736,172.86667 90.7,172.86734 91.6,172.86667C92.49866,172.866 92.97765,172.29979 93.736,171.90266C94.50224,171.5014 95.5,171.58267 96.1,171.15067L97.01466,170.868L97.87466,170.83067" id="svg_21" stroke-width="3" stroke="#000" fill="none"/>
  <path t="146609,146778,146795,146812,146833,146833,146833,146857,146857,146879,146879,146914,146930,146930,146962,146995,147019,147107,147179,147213,147427,147458,147496,147513,147529,147546,147563,147579,147579,147610,147629,147658,147697" d="M90.3,160.86667C92.11467,160.86667 93.13276,160.86514 93.84167,161.3875C94.62365,161.9637 95.33849,162.33836 95.816,162.752C96.61007,163.43983 96.93169,164.3562 97.5215,165.08817C98.03601,165.72667 98.7,166.26666 99.4,166.96666C100,167.56667 100.96095,168.08165 101.28934,168.892C101.58081,169.61125 101.31146,170.56674 101.3,171.50951C101.28958,172.36685 100.59756,172.45842 99.736,172.86667C99.12219,173.15752 99.3,174.26666 99.3,175.16667C99.3,176.06667 99.3,176.96666 99.3,177.86667C99.3,178.62384 99.3,179.51483 99.3,180.53334L99.3,181.3875L99.3,182.26666" id="svg_22" stroke-width="3" stroke="#000" fill="none"/>
  <path t="148673,148862,148895,148895,148895,148912,148912,148929,148929,149012,149169,149169" d="M73.3,175.86667C73.3,177.42917 73.3,178.4095 73.3,179.12801C73.3,179.9185 73.3,181.18001 73.3,181.825C73.3,182.84517 73.3,183.66533 73.3,184.7L73.3,185.57651L73.3,186.384" id="svg_23" stroke-width="3" stroke="#000" fill="none"/>
 </g>
</svg>