<svg width="499.99999999999994" height="339.94334277620396" xmlns="http://www.w3.org/2000/svg" xmlns:svg="http://www.w3.org/2000/svg" xmlns:xlink="http://www.w3.org/1999/xlink">
 <!-- Created with SVG-edit - http://svg-edit.googlecode.com/ -->
 <g display="inline" class="layer">
  <title>Layer 1</title>
  <path t="9740,10366,10384,10401,10401,10419,10419,10434,10459,10459,10484,10660,10675,10675,10875,10883,10901,10901,10917,10917,10917,10934,10934,10934,10934,10934,10951,10951,10951,11051,11051,11091,11100,11117,11134,11151,11151,11167,11167,11259,11268,11284,11316,11316,11339,11339,11351,11387,11434,11452,11475,11604,11620,11633,11660,11684,11860,11860,11909,11948,11967,11984,12163,12163,12228,12356,12532,12532,12563,12564,12587,12803,12891,12901,12940,12979,13000,13068,13171,13196,13196,13499,13516,13534,13534,13550,13550,13567,13567,13584,13600,13600,13643,13660,13667,13892,13892,13909,13923,13955,14020,14036,14051,14051,14068,14219,14234,14250,14267,14267,14284,14387,14400,14400,14417,14434,14434,14450,14595,14617,14617,14634,14650,14650,14804,14916,14934,14988,15028,15028,15068,15108,16228,16316,16387,16388" d="M226.01137,43.56258C225.81403,42.84658 226.6962,42.57505 227.49536,41.99325C228.04968,41.5897 228.80595,40.68651 229.37537,40.20925C230.06837,39.6284 230.98146,39.34801 231.61136,38.98792C232.47556,38.49387 233.22083,38.03539 234.11136,37.68408C234.77206,37.42344 235.71136,37.56331 236.64737,37.56258C237.4967,37.56191 238.4312,37.56445 239.41536,37.27725C240.08672,37.08133 240.86125,36.73974 241.87553,36.46258C242.66942,36.24565 243.53226,36.06285 243.97136,35.96258C244.84482,35.76312 246.0696,35.4684 246.78802,35.26708C247.72011,35.00589 248.66814,34.65638 249.55403,34.57325C250.52797,34.48185 251.41136,34.56258 252.31137,34.56258C253.21269,34.56258 254.17802,34.56258 254.8367,34.56258C255.8447,34.56258 256.70688,34.56258 257.61136,34.56258C258.51135,34.56258 259.43271,34.69118 260.3447,34.39592C261.07159,34.16058 261.83356,33.65069 262.70688,33.56708C263.60724,33.48088 264.51135,33.56258 265.41138,33.56258C266.31137,33.56258 267.21136,33.56258 268.11136,33.56258C269.01135,33.56258 269.89005,33.56258 270.71585,33.56258C271.64737,33.56258 272.5094,33.45495 273.3587,33.61975C274.28445,33.79937 275.16071,34.14812 275.8447,34.72925C276.5116,35.29585 277.25388,35.663 277.72604,36.36391C278.20483,37.07465 278.56302,37.91768 278.8447,38.72925C279.1221,39.52848 279.01135,40.54108 279.01135,41.36125C279.01135,42.26258 279.02075,43.37432 278.30685,43.55808C277.43964,43.78131 276.51135,43.56258 275.61136,43.56258C274.71136,43.56258 273.81137,43.56258 272.91138,43.56258C272.01135,43.56258 271.21112,43.53973 270.17804,43.56258C269.36407,43.58059 268.51978,43.83433 267.80069,44.17325C266.80249,44.64372 266.26093,45.05762 265.17804,45.39592C264.44122,45.6261 263.46671,45.50504 262.69019,45.78408C261.83813,46.09026 261.44922,47.0341 260.72604,47.47725C259.94266,47.95729 258.96054,47.86342 258.31137,48.20992C257.46201,48.66326 256.51135,48.56258 255.61136,48.56258C254.71136,48.56258 253.81137,48.56258 252.91119,48.56258C252.12604,48.56258 251.1967,48.56258 250.2542,48.56258C249.4007,48.56258 248.60069,48.56258 247.69003,48.56258C246.8367,48.56258 245.8967,48.56258 244.91136,48.56258C244.01137,48.56258 243.21136,48.56258 242.37537,48.56258C241.3587,48.56258 240.66403,48.56258 239.64737,48.56258C238.71136,48.56258 237.81003,48.56258 237.12604,48.56258C236.18604,48.56258 235.17802,48.56258 234.31587,48.56258C233.41136,48.56258 232.49821,48.70556 231.61136,48.55191C230.77919,48.40774 230.42992,47.37519 229.84203,46.84792C229.18819,46.26149 228.18069,46.27858 227.65421,45.61525L226.8127,45.27725L226.17802,44.56258L225.92737,43.84792" id="svg_3" stroke-width="3" stroke="#000" fill="none"/>
  <path t="19053,19283,19299,19317,19317,19334,19350,19419,19835,19892,20091,20123,20163,20219,20236,20251,20371,20384,20384,20499,20684,20908,20940,20971,21148,21179,21244,21324,21324,21436,21484,21532,21550,21900,21916,22140,22156,22171,22396,22427,22449,22449,22804,22804,22817,22981,23036,23050,23068,23083,23083,23100,23123,23356" d="M244.01137,48.56258C242.21136,48.56258 241.29614,48.52822 240.71587,49.27242C240.26703,49.84804 240.05533,50.93151 239.51137,51.56258C239.00302,52.15232 238.15712,52.60654 238.0127,53.36391C237.84436,54.24668 238.01137,55.16258 238.01137,56.06258C238.01137,56.96258 238.01137,57.86258 238.01137,58.76258C238.01137,59.66258 237.82562,60.60508 238.09669,61.36258C238.41916,62.26369 239.03087,63.00932 239.89003,63.44108C240.63586,63.8159 241.61137,63.55725 242.51137,63.56258C243.41141,63.56791 244.12317,64.00491 245.01137,64.39591C245.66901,64.68542 246.61136,64.56258 247.51137,64.56258C248.41136,64.56258 249.4007,64.57325 250.01137,65.06258C250.62202,65.55191 251.51137,65.56258 252.41136,65.56258C253.31137,65.56258 254.21136,65.56258 255.11136,65.56258C256.01135,65.56258 256.76852,65.56258 257.66403,65.56258C258.52737,65.56258 259.4697,65.56258 260.44736,65.56258C261.31137,65.56258 262.21136,65.56258 263.11136,65.56258C264.01135,65.56258 264.81137,65.56258 265.71136,65.56258L266.61136,65.52658L267.4007,65.12658" id="svg_4" stroke-width="3" stroke="#000" fill="none"/>
  <path t="24244,25068,25108,25108,25140,25180,25236,25612,25828,25828,25884,25884,25933,25988,26028,26083,26083,26123,26220,26316,26492,26492,26587,26715,26955,27012,27163" d="M258.01135,48.56258C259.01135,48.66258 259.03671,49.56298 259.01135,50.36258C258.98276,51.26394 258.32419,51.98427 258.06854,52.85808C257.80804,53.7485 258.32593,54.58946 259.0322,55.06258C259.8248,55.59354 260.43826,56.08278 260.95871,56.85808C261.42023,57.54559 262.38812,57.37913 263.11121,57.78408C263.84857,58.19703 263.91705,59.36806 264.44736,59.95192C265.07126,60.63881 266.25388,60.663 266.72604,61.36391C267.20483,62.07465 267.44736,62.95192 268.21002,63.47725L269.01004,63.64791L268.72604,64.47725" id="svg_5" stroke-width="3" stroke="#000" fill="none"/>
  <path t="29990,30348,30379,30468,30483,30500,30516,30516,30566,30612,30652,30772,30772,31196,31216,31216,31234,31234,31250,31276,31276,31532,31596,31596,31615,31633,31795,31932,31933,31963,32100,32140,32419,32627,32682,32732,32795,32816,32835,32996,33016,33033,33211,33327,33357,33357,33367,33383,33412,33412,33432,33433,33452,33482,33499,33499,33516,33547,33547,33566,33583,33600,33600,33667,33700,33740,33804,33875,33900,33963,33964,33982,33982,34003,34028,34050,34083,34100,34116,34116,34139,34156,34165,34183,34199,34216,34216,34233,34268,34291,34308,34332,34366,34388,34404,34452,34499,34500,34524,34621,34684,34732,34733,34755,34766,34782,34800,34800,34815,34833,34860,34860,34900,34948,34966,34983,35011,35012,35033,35050,35066,35082,35148,35204,35216,35285,35356,35372,35404,35476,35500,35524,35550,35550,35566,35583,35604,35633,35660,35683,35747,35795,35815,35948,35965,36260,36282,36283,36331,36371,36396,36415,36452,36466,36636,36715,36716,36747,36868,36883,36883,36900,37028,37028,37066,37083,37100,37123,37149,37179,37180,37199,37216,37244,37291,37292,37324,37324,37379,37412,37432,37433,37452,37492,37492,37516,37532,37550,37566,37566,37583,37583,37583,37600,37616,37716,37733,37749,37772,37772,37798,37816,37833,37868,37883,37908,37932,37955,37982,37983,37999,37999,38016,38036,38036,38083,38116,38116,38156,38183,38316,38380,38433,38484,38484,38507,38539,38565,38583,38598,38628,38652,38692,38715,38733,38733,38845,38972,39060,39082,39115,39139,39139,39180,39204,39220,39244,39444,39444,39467,39468,39484,39484,39501,39612,39716,39716,39795,39816,39833,39868,39932,40020,40356,40383,40398,40398,40420,40420,40444,40465,40483,40499,40516,40516,40539,40732,40748,40766,40766,40820,40843,40868,40900,40972,40972,40988,40999,41268,41364,41420,41420,41452,41453,41539,41565,41604,41667,41683,41683,41716,41803,41849,41875,41900,41932,41980,41998,41999,42016,42047,42066,42083,42140,42140,42171,42198,42244,42300,42300,42316,42316,42340,42371,42415,42436,42452,42492,42524,42548,42549,42580,42599,42615,42635,42667,42732,42733,42748,42766,42816,42833,42849,42868,42892,42915,42933,42955,42982,42998,42998,43015,43032,43048,43065,43083,43108,43132,43133,43332,43348,43371,43432,43452,43452,43453,43508,43508,43587,43660,43700,43732,43772,43772,44052,44092,44116,44132,44133,44133,44148,44149,44166,44166,44492,44516,44564,44564,44620,44621,44684,44732,44764,44783,44804,44816,44835,44848,44868,44883,44901,44932,44983,44998,45028,45028,45060,45082,45082,45116,45172,45204,45216,45259,45282,45299,45356,45356,45382,45399,45428,45481,45498,45516,45565,45583,45599,45616,45636,45682,45683,45707,45732,45748,45749,45766,45766,45783,45804,45820,45844,45875,45972,46036,46048,46077,46115,46163,46181,46231,46248,46248,46266,46282,46308,46331,46364,46460,46482,46764,46764,46781,46782,46799,46799,46816,46988,46989,47052,47116,47156,47188,47216,47244,47245,47266,47282,47282,47299,47316,47332,47371,47371,47399,47418,47418,47431,47432,47449,47467,47492,47493,47516,47532,47549,47581,47598,47620,47652,47653,47676,47699,47715,47747,47772,47812,47860,47882,47882,47899,47932,47948,47949,47965,47966,47982,47998,48016,48068,48081,48116,48180,48230,48249,48284,48324,48325,48348,48396,48416,48484,48507,48572,48620,48644,48644,48756,48782,48799,48816,49012,49084,49132,49308,49371,49372,49432,49452,49548,49708,49708,49740,50052,50052,50082,50099,50308,50308,50331,50332,50356,50356,50381,50428,50428,50481,50508,50531,50532,50724,50724,50764,50764,50836,50860,50860,50881,50899,50916,50980,50980,50998,51015,51043,51066,51083,51116,51140,51165,51165,51182,51228,51228,51254,51276,51308,51331,51348,51348,51365,51388,51415,51432,51432,51432,51452,51453,51468,51468,51484,51516,51532,51532,51572,51620,51636,51652,51676,51699,51724,51820,51821,51844,51866,51892,51915,51916,51940,51965,51988,52028,52076,52099,52116,52132,52148,52166,52182,52182,52199,52199,52217,52231,52232,52260,52260,52282,52299,52316,52348,52365,52396,52444,52468,52507,52508,52532,52548,52572,52573,52604,52604,52631,52716,52716,52732,52749,52820,52835,52866,52882,52899,52916,52917,52980,53004,53068,53123,53148,53171,53172,53211,53212,53232,53252,53284,53285,53388,53419,53548,53548,53565,53566,53588,53588,53615" d="M236.01137,48.56258C235.01137,48.56258 234.17159,48.3535 233.31137,48.61975C232.44521,48.88783 232.19826,49.92205 231.78987,50.66258C231.41791,51.33707 230.41454,51.85969 230.09669,52.76125C229.80096,53.60008 230.04573,54.56332 230.01137,55.36258C229.97533,56.2009 229.45576,57.05894 228.99052,57.56258C228.20078,58.41751 227.71964,59.04205 226.81137,59.47858C226.05576,59.84174 225.40871,60.17057 224.71136,60.86258C224.00868,61.55989 223.35454,62.03214 222.62202,62.53725C221.97177,62.98563 221.55344,63.74308 221.17802,64.56258C220.8378,65.30527 220.95688,66.26408 220.51137,67.06258C220.0667,67.85957 219.34084,68.36943 219.0322,69.08341C218.68324,69.89063 219.01137,70.86258 219.01137,71.76258C219.01137,72.66241 219.18556,73.60099 218.92603,74.36391C218.62437,75.25066 218.14989,76.0763 217.49052,76.56258C216.8007,77.07132 215.91847,77.48718 215.44736,78.16258C214.93565,78.89617 215.15703,79.92397 214.72603,80.76392C214.40822,81.3833 213.79326,82.2697 213.31137,82.85275C212.71306,83.57666 212.1312,83.97175 211.72737,84.76258C211.39114,85.42104 211.02905,86.21291 210.72737,87.04658C210.40865,87.92736 210.03996,88.80399 210.01137,89.66258C209.98141,90.56209 210.01137,91.31975 210.01137,92.37725C210.01137,93.22925 210.01137,94.08341 210.01137,94.96258C210.01137,95.86258 209.91498,96.78584 210.17802,97.72925C210.36807,98.41089 210.9178,99.38445 211.0007,100.15192C211.09851,101.05738 211.01137,101.96258 211.01137,102.85808C211.01137,103.78408 211.01137,104.66258 211.01137,105.56258C211.01137,106.36258 211.02179,107.26264 211.01137,108.16258C211.00095,109.06277 210.46815,109.76588 210.13286,110.66258C209.81477,111.51322 210.01137,112.36258 210.01137,113.20541C210.01137,114.08341 210.01137,115.06258 210.01137,115.96258C210.01137,116.85808 210.20601,117.83588 209.72737,118.47858C209.21606,119.16515 209.14792,119.91922 208.72737,120.76258C208.39745,121.42422 207.98636,122.27913 207.51137,123.04175C207.03815,123.80154 206.76923,124.51636 206.36403,125.26258C205.95073,126.0237 206.02846,127.0794 205.49052,127.58341C204.85422,128.17958 204.24876,128.88271 204.06853,129.80542C203.88467,130.74658 203.76314,131.51308 203.36403,132.26259C202.92728,133.08278 203.24614,134.03255 203.00687,134.85808C202.78036,135.63959 201.75763,136.10242 201.44736,136.74791C201.01704,137.64316 201.33374,138.71638 200.79002,139.44125C200.30771,140.08426 200.01137,140.76259 200.01137,141.66258C200.01137,142.56258 200.01137,143.44125 200.01137,144.26707C200.01137,145.16258 200.01137,146.06258 200.01137,146.96259C200.01137,147.86258 200.17505,148.81989 199.79002,149.66258C199.48422,150.33188 199.02986,151.18604 198.58603,151.96259C198.17227,152.68652 197.66423,153.39519 197.06403,153.91525C196.41043,154.48158 195.50041,154.79276 195.13286,155.66258C194.77937,156.49911 194.59373,157.11702 194.13286,157.78409C193.62874,158.51375 193.95677,159.67268 193.4007,160.12659C192.64786,160.74109 192.01801,161.19028 191.58603,161.96259C191.12846,162.78065 190.729,163.51987 189.8127,163.56258C188.92833,163.60379 188.0105,163.52538 187.21136,163.56258C186.29372,163.6053 185.85706,164.47884 185.01137,164.56258C184.21526,164.6414 183.37624,164.69174 182.8447,165.56258C182.45581,166.19969 181.61497,166.79555 181.17802,167.56258C180.73375,168.34244 180.24785,168.81389 179.97537,169.62392C179.6902,170.47168 179.20146,171.07402 178.62202,171.92657C178.12529,172.65744 177.64357,173.31418 176.91153,173.78424C176.26714,174.19803 176.16037,175.23611 175.92737,176.07858C175.68369,176.95963 175.26056,177.71407 174.8447,178.56258C174.47099,179.32507 174.02179,180.08325 174.01137,181.04659C174.00391,181.7372 174.01137,182.80092 174.01137,183.62392C174.01137,184.42392 174.01137,185.39592 174.01137,186.22391C174.01137,187.10526 174.01137,188.06258 174.01137,188.79459C174.01137,189.89058 174.01137,190.76259 174.01137,191.66258C174.01137,192.56258 174.06206,193.4653 173.65421,194.26791C173.3443,194.87778 172.29716,195.40947 172.02203,196.17325C171.72061,197.01001 172.01128,197.96054 171.51137,198.56258C170.99677,199.18231 170.49406,199.91301 170.09537,200.76259C169.69156,201.62303 169.40294,202.22005 168.52736,202.76125C167.86273,203.17206 166.83728,203.32365 166.01137,203.72925C165.34138,204.05827 164.54559,204.75998 164.17802,205.56258C163.83788,206.3053 164.01137,207.26259 164.01137,208.16258C164.01137,209.06258 164.01137,209.96259 164.01137,210.86708C164.01137,211.88374 164.01137,212.54175 164.01137,213.57724C164.01137,214.36391 164.01137,215.26259 164.01137,216.16258C164.01137,217.06258 164.01137,217.96259 164.01137,218.86258C164.01137,219.76259 164.01137,220.66258 164.01137,221.56258C164.01137,222.36258 164.02827,223.2774 164.01137,224.17325C163.99336,225.12709 163.57251,225.80478 162.8447,226.39592C162.14803,226.96176 161.32094,226.98663 160.5322,227.56258C159.89192,228.03011 159.31975,228.63959 158.49052,229.06258C157.70175,229.46492 156.66235,229.42171 156.18069,230.13326C155.69519,230.85046 155.8244,232.01221 155.4007,232.69058C154.91586,233.46681 154.01363,233.61974 154.01137,234.56258C154.00946,235.36258 154.01137,236.26259 154.01137,237.16258C154.01137,238.06258 154.01259,238.95961 154.51137,239.56258C155.05389,240.21843 155.72722,240.67496 156.64737,240.52658C157.51999,240.38586 158.24968,240.04285 159.12469,239.36258C159.69708,238.91759 159.66562,237.88313 160.0322,237.08342C160.36716,236.35266 161.54994,236.18404 161.89003,235.24141C162.1171,234.61203 162.36275,233.61995 163.21136,233.56258C164.10931,233.50186 165.04326,233.43605 165.61136,232.95192C166.35672,232.31673 167.25475,231.9073 167.89003,231.34125C168.49101,230.80576 169.25002,230.45956 169.72603,229.76125C170.2368,229.01195 170.8127,228.56325 171.71136,228.56258C172.5322,228.56197 173.4967,228.56252 174.22203,228.56258C175.21103,228.56267 176.21461,228.47029 176.95003,228.98792C177.61896,229.45876 178.52231,229.79277 178.88986,230.66258C179.24336,231.49911 179.01137,232.36258 179.01137,233.27725C179.01137,234.17325 179.01137,235.06258 179.01137,235.96259C179.01137,236.86258 179.01137,237.76259 179.01137,238.66258C179.01137,239.56258 178.99338,240.36276 179.01137,241.26259C179.02937,242.16312 179.70479,242.79918 180.01003,243.64658C180.32045,244.50838 180.01137,245.36258 180.01137,246.26259C180.01137,247.16258 179.97389,248.10033 180.2327,248.88391C180.52235,249.76091 180.94917,250.53456 181.01003,251.36125C181.0762,252.26016 181.01137,253.20541 181.01137,254.08342C181.01137,254.96259 181.01137,255.86258 181.01137,256.76257C181.01137,257.66257 181.18492,258.60083 180.92603,259.36258C180.62425,260.25049 180.02937,260.96204 180.01137,261.86258C179.99341,262.76108 180.01137,263.64658 180.01137,264.56259C180.01137,265.36258 180.01137,266.26257 180.01137,267.16257C180.01137,268.06259 180.01137,268.96259 180.01137,269.86258C180.01137,270.76257 180.01137,271.66257 180.01137,272.56259C180.01137,273.47858 180.0121,274.26709 180.01137,275.19858C180.0107,276.04526 179.88617,276.80438 179.36403,277.61075C178.96021,278.23438 179.01332,279.18219 178.58603,279.96259C178.13565,280.78513 178.05917,281.66385 178.01137,282.56259C177.96864,283.366 177.26442,284.09973 177.04736,284.96259C176.82764,285.83609 177.01137,286.76392 177.01137,287.72925C177.01137,288.39859 177.01137,289.16391 177.01137,290.15808C177.01137,291.07724 177.01137,292.04175 177.01137,292.9519C177.01137,293.8479 176.84767,294.81985 177.2327,295.66257C177.5385,296.33188 177.94383,297.3313 178.71587,297.55807C179.5191,297.79401 180.5542,297.56259 181.27271,297.56259C182.0632,297.56259 183.08969,297.56259 183.9697,297.56259C184.98987,297.56259 185.84479,297.75983 186.71136,297.5054C187.47998,297.27975 188.06218,296.42313 188.49052,295.56259C188.89401,294.75198 189.00911,293.92426 189.01137,293.04175C189.01361,292.16257 189.01128,291.26257 189.01137,290.36258C189.01146,289.46274 189.55977,288.89325 189.95419,288.20541C190.42407,287.38602 190.01137,286.36258 190.01137,285.46274C190.01137,284.58792 190.00084,283.68387 190.01137,282.85809C190.02179,282.04153 190.31317,281.08582 190.58603,280.38791C190.95001,279.45694 191.01137,278.56259 191.01137,277.76257C191.01137,276.86258 191.01137,275.96259 191.01137,275.06259C191.01137,274.17325 191.01137,273.20541 191.01137,272.36258C191.01137,271.46259 191.01137,270.56259 191.01137,269.76257C191.01137,268.86258 191.01137,267.96259 191.01137,267.06259C191.01137,266.16257 191.01137,265.26257 191.01137,264.36392C191.01137,263.3959 191.55977,262.89325 191.95419,262.20541C192.42407,261.38602 191.85783,260.31412 192.17802,259.56259C192.51085,258.78137 192.95244,258.03232 193.43669,257.16257C193.84245,256.43381 194.01628,255.64331 194.44736,254.74791C194.75803,254.10262 195.69371,253.91563 196.49052,253.54175C197.25945,253.18095 197.95662,252.97969 198.65421,252.50542C199.33635,252.04164 198.64819,250.76569 199.04736,249.99858C199.4425,249.2392 199.84235,248.6156 200.06853,247.85808C200.32901,246.98569 200.80673,246.18974 201.29669,245.36258C201.7,244.6817 202.42284,244.17676 202.92737,243.36391C203.38443,242.62753 203.99336,242.12715 204.01137,241.26259C204.03011,240.36278 203.82481,239.40695 204.17802,238.56258C204.47736,237.84702 205.20053,237.07219 205.61136,236.38791C206.09863,235.57629 206.56543,234.92456 207.31137,234.26707C207.9736,233.68338 208.81137,233.56325 209.72603,233.56258C210.62202,233.56192 211.56953,233.25671 212.4007,233.57324C213.15697,233.86124 213.31317,235.03935 213.58603,235.73724C213.95001,236.66821 214.01137,237.56258 214.01137,238.36258C214.01137,239.26259 214.01137,240.16258 214.01137,241.08342C214.01137,241.88391 214.01137,242.73724 214.01137,243.67857C214.01137,244.72925 214.01137,245.38791 214.01137,246.39592C214.01137,247.25809 214.01137,248.16258 214.01137,249.08342C214.01137,249.88391 214.19658,250.75597 214.01003,251.67592C213.83017,252.56285 213.02937,252.9874 213.01137,253.91975C212.9951,254.76244 213.01137,255.66258 213.01137,256.56259C213.01137,257.36258 213.01137,258.26257 213.01137,259.16257C213.01137,260.06259 213.01137,260.96259 213.01137,261.86258C213.01137,262.76126 213.01137,263.72925 213.01137,264.56259C213.01137,265.36258 212.63684,265.98917 212.13286,266.78424C211.62276,267.58896 212.01137,268.38791 212.01137,269.3959C212.01137,270.25809 211.81116,270.96338 211.29536,271.64658C210.8308,272.26193 211.01137,273.3959 211.01137,274.17325C211.01137,275.06259 211.01137,275.96259 211.01137,276.86258C211.01137,277.76257 211.01137,278.66257 211.01137,279.56259C211.01137,280.36258 211.01137,281.26257 211.01137,282.16257C211.01137,283.12659 211.01137,283.9986 211.01137,284.86258C211.01137,285.76257 211.01137,286.66257 211.01137,287.56259C211.01137,288.36258 211.01137,289.26257 211.01137,290.16257C211.01137,291.06259 211.01129,291.96259 211.01137,292.85809C211.01146,293.78391 211.33331,294.54932 212.0322,295.06259C212.69429,295.54886 213.65193,295.43753 214.3647,295.9986C215.10942,296.58481 215.35858,297.34778 216.11136,297.78409C216.89778,298.2399 217.39418,298.98019 218.11136,299.66241C218.69768,300.22015 219.51663,300.65024 220.42203,300.55191C221.35115,300.45099 222.20445,300.24536 222.84203,299.36124C223.26839,298.76999 223.40834,297.71515 223.8127,297.04657C224.26886,296.29233 225.10068,295.63547 225.57536,294.96259C226.09373,294.22775 226.40007,293.42517 226.8447,292.56259C227.21402,291.8461 227.59114,291.08832 228.16071,290.38791C228.6891,289.7381 229.04314,288.80325 228.49052,288.06259C227.99191,287.39429 227.20386,286.90967 227.02203,285.96259C226.85234,285.07867 227.19005,284.10364 226.79002,283.34109C226.43596,282.66617 226.01363,281.86258 226.01137,280.96259C226.00912,280.06259 226.01137,279.16257 226.01137,278.26257C226.01137,277.36258 226.01137,276.46259 226.01137,275.56259C226.01137,274.76257 226.01137,273.8479 226.01137,272.99326C226.01137,272.21075 226.01137,271.19858 226.01137,270.26257C226.01137,269.36258 226.01137,268.46259 226.01137,267.56259C226.01137,266.76257 226.06607,265.86121 226.51137,265.06259C226.96072,264.25671 227.31923,263.37466 227.8727,262.73724C228.34233,262.19638 229.24675,261.53006 229.6497,260.80991C230.11435,259.97949 229.96454,259.17551 230.36403,258.31973C230.7894,257.40854 230.8587,256.53284 231.06853,255.86258C231.34476,254.98015 232.06854,254.17999 232.8447,253.72925C233.50929,253.34329 233.59869,252.73431 234.06853,251.91975C234.46471,251.23291 235.01137,250.56258 235.01137,249.76259C235.01137,248.86258 235.00923,247.94287 235.43669,247.16258C235.88814,246.33852 236.05179,245.66006 236.43669,244.74791C236.80394,243.87758 237.01137,243.12659 237.01137,242.16258C237.01137,241.26259 236.88737,240.35397 237.01154,239.46275C237.12326,238.66087 237.98268,238.20686 238.01137,237.36258C238.04193,236.46294 238.03661,235.65259 238.44736,234.73724C238.76724,234.0244 239.4669,233.39175 239.8447,232.39592C240.08289,231.76807 239.99422,230.72908 240.01137,229.86708C240.02937,228.96205 240.46776,228.18086 240.92737,227.36391C241.32268,226.66125 241.99336,226.12715 242.01137,225.26259C242.03008,224.36411 241.96272,223.47728 242.01137,222.56258C242.05409,221.75919 242.66637,220.9975 242.98604,220.15192C243.31967,219.26939 243.59389,218.59102 243.8447,217.72925C244.08984,216.88692 243.98964,215.90749 244.29536,215.07991C244.60222,214.24931 245.209,213.56645 245.65869,212.85808C246.12064,212.13039 246.01137,211.16258 246.01137,210.26259C246.01137,209.36258 246.01137,208.46259 246.01137,207.56258C246.01137,206.76259 246.01137,205.86258 246.01137,204.96259C246.01137,203.99858 245.93301,203.12263 246.01587,202.25809C246.09956,201.38481 246.58495,200.56378 246.8447,199.56258C247.04343,198.79655 247.40038,198.10092 247.8447,197.39592C248.29782,196.67694 248.01137,195.76259 248.01137,194.86258C248.01137,193.91975 248.10793,192.98003 247.95419,192.21075C247.76912,191.28465 247.21004,190.67857 246.71587,189.90991L246.36853,189.21524L246.04736,188.18791" id="svg_6" stroke-width="3" stroke="#000" fill="none"/>
  <path t="59326,59514,59532,59548,59548,59581,59608,59631,59661,59701,59701,59716,59733,60157,60167,60167,60184,60184,60184,60200,60201,60231,60231,60260,60260,60283,60300,60637,60649,60649,60665,60682,60682,60682,60861,60882,60882,60899,60915,60915,60956,60956,60972,60988,60988,61004,61004,61020,61048,61065,61065,61082,61082,61108,61108,61132,61148,61148,61332,61332,61356,61398,61420,61468,61482,61499,61500,61532,61548,61581,61598,61660,61661,61708,61708,61731,61732,61748,61764,61820,61844,61865,61900,61932,62012,62100,62100,62316,62492,62564,62582,62612,62652,62665,62724,62780,62820,62820,62908,62932,62955,62956,63020,63064,63083,63116,63117,63156,63157,63332,63332,63356,63382,63382,63398,63900,63931,63955,63981,64108,64108,64476,64701,64740,64764,64829,64848,64864,64884,64897,64916,64916,64933,64933,64964,64965,64965,64982,64998,64998,65022,65084,65098,65115,65141,65141,65261,65283,65298,65317,65340,65365,65365,65382,65429,65448,65464,65482,65482,65498,65499,65515,65532,65548,65565,65565,65597,65615,65632,65648,65665,65682,65682,65698,65698,65715,65716,65732,65732" d="M225.01137,130.56258C225.01137,131.56258 225.22752,132.29204 226.01137,132.72925C226.66324,133.09283 227.51392,133.74684 227.88986,134.66241C228.20335,135.42592 228.55783,136.05876 229.21004,136.76259C229.74791,137.34305 230.06136,138.26408 230.51137,139.06258C230.96054,139.85959 231.45139,140.54747 232.2327,140.51591C233.22604,140.4758 234.01495,140.0493 234.61136,139.76125C235.61757,139.27525 236.40926,138.85835 237.2112,138.46275C237.98851,138.0793 239.01649,138.05795 239.7247,137.47858C240.34966,136.9673 240.55577,135.82132 241.42203,135.59859C242.30455,135.37167 243.21973,135.64584 243.97136,135.12659C244.76758,134.57652 245.28804,134.14317 246.01053,133.91975C247.0284,133.605 248.01137,133.56258 248.81137,133.56258C249.64737,133.56258 250.66853,133.56258 251.41586,133.56258C252.41003,133.56258 253.17537,133.56258 254.12604,133.56258C255.11153,133.56258 255.8967,133.56258 256.8367,133.56258C257.52737,133.56258 258.60071,133.56258 259.5322,133.56258C260.33286,133.56258 261.22205,133.56258 262.21121,133.56258C262.99054,133.56258 264.02811,133.38614 264.81003,133.64792C265.60971,133.91565 266.35568,134.62677 266.99054,135.06258C267.80054,135.61861 268.13397,136.33934 268.58603,137.16258C269.01425,137.94246 269.01126,138.86258 269.01135,139.76259C269.01144,140.66258 269.24167,141.5229 269.65869,142.26259C270.0787,143.0076 270.74219,143.41437 271.4007,143.99858C272.0954,144.61493 272.32593,145.58946 273.0322,146.06258C273.8248,146.59354 274.51089,147.04219 275.11121,147.66258C275.67392,148.24414 276.20389,148.95857 276.72736,149.64658C277.19421,150.26018 276.82529,151.28967 277.04736,152.16258C277.26434,153.01555 278.00909,153.67239 278.01135,154.58342C278.0137,155.54108 278.02823,156.25824 278.01135,157.16258C277.99335,158.12709 277.30685,158.56032 276.41138,158.56258C275.51135,158.56483 274.61136,158.56258 273.71136,158.56258C272.81137,158.56258 271.9101,158.61037 271.01135,158.56258C270.20798,158.51985 269.54272,158.00113 268.71136,157.61525C267.83936,157.21051 267.27872,156.68394 266.51135,156.08342C265.86246,155.57559 265.17273,155.15329 264.72604,154.36125C264.38406,153.75485 263.73035,152.89864 263.31137,152.21524C262.8327,151.43445 262.21167,150.76363 261.61136,150.16258C260.91187,149.46223 260.36935,148.86221 260.01135,148.06258C259.65503,147.26671 258.65622,146.23338 258.09671,146.84792C257.54523,147.45361 257.98062,148.70685 257.30685,149.20541C256.61258,149.71915 255.57652,149.3197 254.71587,149.56708C253.94797,149.7878 253.25195,150.50378 253.01587,151.26707C252.75099,152.12347 252.64546,153.07196 251.81137,153.47858C251.05779,153.84595 250.3613,154.1756 249.81137,155.04791C249.36963,155.74863 249.02509,156.56969 248.61136,157.35191C248.22409,158.08411 247.61079,158.92604 247.01137,159.56258C246.44682,160.16208 246.12752,161.00392 245.72737,161.76259C245.27464,162.62096 244.7886,163.28041 244.01137,163.72925C243.38977,164.08821 243.14709,165.27609 242.4007,165.55191C241.56645,165.8602 240.6032,165.44608 239.71136,165.56708C238.89001,165.67851 238.23953,166.39494 237.31137,166.55807C236.45947,166.70781 235.91428,167.23979 235.15002,167.54791C234.19249,167.93396 233.82146,168.58574 233.01137,169.22925C232.40729,169.70912 231.28838,169.41632 230.62202,169.99858C229.92326,170.60916 229.88913,171.59908 229.30687,172.26259C228.75139,172.89558 227.90707,173.4127 227.01137,173.56258C226.17317,173.70282 226.36963,174.72757 225.8447,175.39592C225.35393,176.02077 224.37535,176.28825 223.8367,176.71191C222.92357,177.43011 222.21269,177.73058 221.61136,178.42392L221.21136,179.07991" id="svg_7" stroke-width="3" stroke="#000" fill="none"/>
  <path t="68231,68484,68533,68533,68547,68581,68616,68632,68663,68708,68708,68731,68780,68781,68820,68821,68847,68900,68901,68940,68940,69077,69077,69098,69116,69133,69150,69165,69197,69198,69244,69265,69281,69297,69298,69331,69348,69364,69381,69382,69548,69572,69581,69581,69604,69636,69660,69700,69756,69772,69788,69812,69812,69831,69869,69869,69869,69940,70052,70164,70182,70198,70198,70252,70276,70308,70372,70405,70484,70548,70548,70581,70668,70773,70782,70836,70860,70882,70932,71100,71100,71115,71115,71132,71148,71245,71245,71265,71284,71324,71364,71412,71413,71444,71444,71468,71500,71500,71516,71516,71539,71564,71580,71598,71628,71647,71665,71972,71982,72037,72037,72077,72098,72115,72157" d="M275.01135,129.56258C276.8367,129.56258 277.88147,129.3642 278.70688,129.61975C279.57669,129.88905 279.86359,130.92792 280.36404,131.50992C280.91898,132.15527 281.68127,132.5224 282.49402,132.84792C283.17377,133.12016 283.87146,133.8773 284.17804,134.72925C284.48193,135.57375 284.76282,136.42159 285.03671,137.15192C285.35583,138.00279 286.23926,138.57523 286.65421,139.31975C287.11676,140.14966 286.99045,140.98717 287.29538,141.95992C287.53058,142.71027 288.0994,143.47166 288.58603,144.17325C289.08496,144.89255 289.7377,145.44212 290.0007,146.20924C290.27182,147.00012 290.01135,147.99324 290.01135,148.91975C290.01135,149.76259 290.01135,150.66258 290.01135,151.56258C290.01135,152.36258 290.01135,153.39592 290.01135,154.17325C290.01135,155.08342 290.01135,156.04659 290.01135,156.73724C290.01135,157.80542 290.01135,158.66258 290.01135,159.56258C290.01135,160.36258 290.01135,161.26259 290.01135,162.16258C290.01135,163.12659 290.01135,163.99858 290.01135,164.86258C290.01135,165.76259 290.01135,166.66258 290.01135,167.56258C290.01135,168.36258 290.01135,169.23457 290.01135,170.33058C290.01135,171.06258 290.01135,171.79459 290.01135,172.87991C290.01135,173.84792 290.33047,174.86043 289.72604,175.47858C289.1178,176.10065 288.24451,176.40843 287.41138,176.55191C286.52435,176.70467 285.61136,176.56258 284.71136,176.56258C283.81137,176.56258 282.91138,176.56258 282.01135,176.56258C281.21136,176.56258 280.31137,176.56258 279.41138,176.56258C278.51135,176.56258 277.29861,176.68108 277.02203,175.95192C276.7066,175.12033 277.01135,174.17325 277.01135,173.27591C277.01135,172.39592 276.87778,171.51773 277.2327,170.58408C277.48343,169.92447 277.88739,168.99475 278.36853,168.26259C278.89047,167.46834 279.75253,167.02881 279.97537,166.16258C280.19977,165.29027 280.01135,164.36391 280.01135,163.50542C280.01135,162.56258 280.01135,161.80542 280.01135,160.90991C280.01135,160.04659 280.01135,159.06258 280.01135,158.24124C280.01135,157.38791 280.01135,156.44658 280.01135,155.67857C280.01135,154.74791 280.01135,153.73192 280.01135,152.85808C280.01135,151.96259 280.01135,151.06258 280.01135,150.16258C280.01135,149.26259 280.09348,148.35881 280.0112,147.46259C279.92752,146.55113 279.43671,145.96259 279.03671,145.16258L278.65869,144.26707L278.06854,143.61525L277.95419,142.85808" id="svg_8" stroke-width="3" stroke="#000" fill="none"/>
  <path t="74756,75129,75130,75148,75413,75431,75448,75464,75465,75500,75500,75652,75664,75684,75684,75716,75756,75804,75815,75830,75860,75860,75892,75941,75972,76092,76132,76148,76148,76164,76188,76212,76230,76292,76314,76330,76348,76380,76380,76397,76420,76468,76468,76492,76524,76548,76565,76588,76612,76613,76644,76676,76716,76772,76814,76830,76830,76848,76865,76881,76898,76930,76948,76972,76997,77028,77060,77084,77180,77198,77220,77276,77277,77332,77396,77396,77460,77588,77628,77676,77676,77772,77869" d="M270.01135,63.56258C270.01135,64.56258 269.81543,65.39701 270.06854,66.26258C270.3252,67.14021 270.84573,67.95404 271.44736,68.54791C272.02124,69.11437 272.57715,69.77053 273.11121,70.54108C273.54822,71.17163 273.83139,72.17115 274.36853,72.85808C274.95026,73.60204 275.96481,73.47448 276.57538,74.17325C277.15762,74.8396 277.01135,75.86258 277.01135,76.76258C277.01135,77.66258 277.01135,78.56258 277.01135,79.36258C277.01135,80.26258 277.01135,81.16258 277.01135,82.06258C277.01135,82.95191 276.8584,83.98984 277.29669,84.76258C277.6871,85.45093 278.42282,85.94841 278.92737,86.76125C279.38446,87.49763 279.99094,87.99812 280.01135,88.96258C280.0303,89.85789 280.60013,90.40956 281.01135,91.10425C281.42416,91.80159 281.54135,92.77886 282.21002,93.39325C282.88321,94.01179 282.88071,94.74323 283.0322,95.54175C283.21292,96.49432 283.99335,96.99802 284.01135,97.86258C284.03009,98.76238 284.01135,99.66258 284.01135,100.56258C284.01135,101.36258 284.00015,102.26265 284.01135,103.20541C284.02179,104.0836 284.55457,104.76588 284.88986,105.66258C285.20795,106.51322 284.99335,107.36276 285.01135,108.26258C285.02936,109.16312 285.62949,109.87292 285.92603,110.76258C286.21188,111.62023 286.01135,112.56258 286.01135,113.44125C286.01135,114.26708 286.01135,115.16258 286.01135,116.06258C286.01135,116.96258 286.01135,117.86258 286.01135,118.76258C286.01135,119.66258 286.18777,120.60182 285.92603,121.36258C285.65781,122.14214 284.69998,122.6817 284.29669,123.36258C283.80676,124.18974 283.53549,125.12635 282.71136,125.50991C281.94467,125.86674 281.31137,126.26708 280.62204,126.95191L279.92737,127.56125" id="svg_9" stroke-width="3" stroke="#000" fill="none"/>
  <path t="80990,81164,81164,81180,81181,81181,81198,81214,81214,81231,81231,81252,81252,81264,81264,81281,81313,81332,81356,81388,81414,81436,81460,81460,81484,81497,81524,81524,81548,81548,81564,81564,81564,81597,81598,81692,81693,81714,81732,81884,81898,81898,81914,81932,81932,81956,81956,81957,81981,82109,82109,82133,82133,82149,82149,82149,82189,82189,82212,82253,82264,82281,82298,82314,82349,82349,82364,82381,82399,82414,82431,82485,82498,82530,82549,82564,82581,82582,82598,82614,82614,82631,82632,82648,82665,82665,82685,82685,82701,82714,82714,82748,82748,82748,82763,82763,82764,82781,82846,82864,82864,82864,82881,82881,82898,82898,83029,83048,83064,83205,83215,83216,83230,83230,83250,83250,83264,83264,83264,83281,83281,83281,83461,83500,83501,83525,83525,83549,83589,83589,83605,83631,83653,83653,83733,83763,84037,84064,84064,84093,84093,84124,84148,84163,84181,84198,84198,84198,84214,84214,84231,84231,84248,84248,84248,84264,84264,84281,84281,84281,84298,84298,84314,84314,84661,84662,84681,84829,84830,84830,84885,84898,84914,84932,84949,84949,84965,84965,84965,84965,84980,84981,84998,84998,84998,85014,85014,85031,85048,85048,85081,85141,85205,85237,85248,85269,85281,85313,85331,85349,85349,85365,85365,85381,85381,85398,85398,85414,85431,85448,85448,85464,85517,85717,85732,85749,85749,85764,85765,85765,85765,85781,85781,85782,85798,85798,85799,85799,85931,85932,85948,86101,86101,86117" d="M269.01135,158.56258C268.09402,158.85059 267.8692,159.54877 267.44336,160.33058C267.0368,161.07701 266.53101,161.77281 266.12119,162.74825C265.74445,163.64499 265.25864,164.28926 264.81268,165.04791C264.40112,165.74806 264.15738,166.76666 264.01135,167.54175C263.82187,168.54759 263.25296,169.08954 263.0322,170.04175C262.83481,170.89304 262.43585,171.505 261.98602,172.17325C261.49719,172.89944 261.10815,173.66272 260.92603,174.44925C260.70084,175.42186 260.18185,176.05455 260.0322,177.04175C259.89407,177.95271 259.7504,178.78442 259.21002,179.36258C258.61578,179.99835 258.0545,180.46681 257.24338,181.04524C256.52322,181.55881 255.82066,182.09233 254.8167,182.45274C254.06664,182.722 253.00868,182.90942 252.29803,183.13725C251.37341,183.43369 251.03235,184.10248 250.65869,184.86708C250.22528,185.75394 250.32045,186.72009 249.72603,187.39325C249.12779,188.07071 248.37271,188.20656 247.69003,188.88391C247.00871,189.55991 246.45192,190.03784 245.77303,190.80542C245.13504,191.52673 244.99329,192.37389 244.29253,192.85808C243.61452,193.32654 242.59293,193.4693 241.80736,193.52658C240.86789,193.59508 239.84677,193.73132 239.30687,194.26707C238.61401,194.95461 237.90707,195.4127 237.01137,195.56258C236.17317,195.70282 235.71992,196.42741 234.81137,196.56392C234.00352,196.6853 233.56418,197.38441 232.98604,198.12659C232.49994,198.75061 231.91092,199.35437 231.51137,200.06258C231.01602,200.94058 230.29477,201.43346 230.02203,202.13725C229.68748,203.00056 229.33582,203.48201 228.61136,203.99858C227.82588,204.55865 227.36769,205.26222 227.01137,206.06258C226.65337,206.8667 226.19008,207.4355 225.61136,208.38791C225.19688,209.06999 224.72607,209.81929 224.01137,210.56258C223.52127,211.07228 222.81137,211.76259 222.21136,212.36258C221.61136,212.96259 220.91153,213.66241 220.36853,214.20541C219.67802,214.89592 219.13939,215.43462 218.60237,215.97159C217.81158,216.7623 217.25929,217.38521 216.66853,217.84825C215.81721,218.51552 214.81003,218.56258 213.8447,218.56258C213.17537,218.56258 212.40591,218.48065 211.41586,218.57158C210.48651,218.65692 209.83211,219.32274 209.31587,219.85725C208.59135,220.60742 207.61136,220.56258 206.71136,220.56258C205.81137,220.56258 204.89664,220.47499 204.12604,220.64792C203.32904,220.82677 202.62621,221.29694 201.61003,221.47725C200.78491,221.62366 199.8447,221.56258 199.0587,221.56258C198.23669,221.56258 197.17802,221.56258 196.25803,221.56258C195.49803,221.56258 194.58417,221.6801 194.89003,221.11975C195.25264,220.45541 195.25102,219.41095 195.8127,218.76392C196.46165,218.01634 197.11366,217.46489 197.71136,216.86258C198.40338,216.16524 198.72234,215.39041 199.17802,214.56258C199.58221,213.82832 200.50716,213.73232 201.44736,213.55191C202.24222,213.3994 202.80511,212.32008 202.24519,211.91975C201.48618,211.37706 200.31526,211.62434 200.01404,210.76125C199.71793,209.91277 200.01137,208.96259 200.01137,208.14125C200.01137,207.22925 200.01137,206.31192 200.01137,205.56792C200.01137,204.53192 200.01137,203.67992 200.01137,202.71591C200.01137,202.10092 200.01137,200.87859 200.01137,200.06258C200.01137,199.24658 200.01137,198.24791 200.01137,197.58342C200.01137,196.56258 199.91029,195.72969 200.18204,194.96259C200.56007,193.89545 201.18605,193.38809 201.8447,192.72925C202.50093,192.07281 203.52261,191.66864 203.94887,191.08342C204.24272,190.67999 203.01137,190.56258 202.22203,190.56258C201.4967,190.56258 200.24867,190.62503 200.01587,189.85808C199.75577,189.00117 200.04642,188.15123 200.01103,187.24092C199.97501,186.31384 199.69827,185.38602 199.30603,184.60991C199.02565,184.05513 198.49187,183.27721 198.18069,182.24791C197.92204,181.39235 197.88576,180.54756 197.57536,179.76259C197.25195,178.94473 196.77711,178.1799 196.44736,177.39857C196.05336,176.46506 196.01137,175.56258 196.01137,174.76259C196.01137,173.72925 195.57526,172.82759 196.04736,171.99858C196.4411,171.30716 197.61136,171.56258 198.51137,171.56258C199.4007,171.56258 200.30334,171.45381 201.21136,171.56392C202.13132,171.67548 202.61371,172.22504 203.49536,172.76125C204.16293,173.16725 205.14017,173.4281 205.89537,173.64658C206.85724,173.92485 207.54675,174.21959 208.49052,174.56258C209.33188,174.86833 209.93977,175.65007 210.61136,176.12659C211.33702,176.64148 211.95256,177.13992 212.62202,177.58792C213.35745,178.08005 214.21342,178.51599 214.94003,178.55807C215.99495,178.61917 216.72231,178.5571 217.51137,178.58342C218.3011,178.60977 219.36612,178.66176 220.31003,178.99858C220.93945,179.22319 221.99341,179.67509 222.72203,179.85808C223.50804,180.05548 224.29712,180.22623 225.3447,180.39592C226.26459,180.54492 227.21136,180.56125 228.11119,180.34108L228.65421,179.85808L229.0007,178.96259" id="svg_10" stroke-width="3" stroke="#000" fill="none"/>
  <path t="87965,88077,88097,88149,88181,88181,88197,88214,88231,88253,88264,88296,88314,88314,88330,88347,88348,88364,88381,88381,88397,88414,88445,88469,88493" d="M250.01137,93.56258C248.41136,94.13725 247.56818,94.44753 246.71136,94.91525C245.96605,95.32211 245.21136,95.56191 244.31137,95.56258C243.41136,95.56326 242.51137,95.56258 241.61136,95.56258C240.71587,95.56258 239.78987,95.56258 238.91119,95.56258C238.12604,95.56258 237.18604,95.56258 236.17802,95.56258C235.42203,95.56258 234.47362,95.60004 233.69003,95.34125C232.81303,95.0516 232.03304,94.68391 231.13269,94.34125L230.72603,93.64791L229.81137,93.56258L228.91136,93.56242" id="svg_11" stroke-width="3" stroke="#000" fill="none"/>
  <path t="89485,89663,89681,89724,89756,89764,89781,89781,89797" d="M261.01135,94.56258C262.81137,94.56258 263.71136,94.56258 264.61136,94.56258C265.51135,94.56258 266.31137,94.55808 267.21136,94.27858L267.81137,93.84658L268.71136,93.56708" id="svg_12" stroke-width="3" stroke="#000" fill="none"/>
  <path t="90869,91012,91044,91077,91100,91147,91163,91181,91212,91212,91231,91231,91247,91269,91269,91269,91285,91285" d="M263.01135,103.56258C264.81137,103.56258 265.71136,103.56258 266.61136,103.56258C267.51135,103.56258 268.41138,103.56258 269.30685,103.56258C270.1087,103.56258 271.07385,103.56253 271.77136,103.56258C272.86838,103.56267 273.73416,103.56468 274.42203,103.99858C275.21979,104.50179 275.84735,104.95191 276.6127,105.27724L277.60687,105.50991L278.35419,105.61525" id="svg_13" stroke-width="3" stroke="#000" fill="none"/>
  <path t="92973,93180,93197,93245,93264,93281,93297,93314,93330,93330,93347,93364,93381,93613,93631,93647,93647,93647,93647,93663,93663,93663,93663,93681,93681,93681,93681,93681,93697,93697,93697,93698,93698,93845,93845" d="M243.01137,71.56258C241.21136,71.56258 240.36853,71.56258 239.49052,71.56258C238.61136,71.56258 237.71136,71.56258 236.81137,71.56258C235.91136,71.56258 235.01137,71.56258 234.21136,71.56258C233.31137,71.56258 232.41136,71.56258 231.51137,71.56258C230.61136,71.56258 229.70235,71.55586 228.67802,71.56258C227.99249,71.56709 227.14818,71.60251 226.52336,71.73325C225.47733,71.95212 224.75546,72.2712 223.99052,72.56258C223.20815,72.86061 222.01517,73.24863 221.21136,73.39591C220.41466,73.54189 219.59944,73.59979 218.81137,73.81592C217.58846,74.1513 216.81203,74.61141 216.05302,75.08341C215.67914,75.31592 214.98203,75.79591 213.78337,76.59058L213.07387,77.00008" id="svg_14" stroke-width="3" stroke="#000" fill="none"/>
  <path t="95117,95260,95285,95348,95405,95468,95493,95514,95531,95724,95725,95741,95748,95748,95780,95780,95916,95932,95950" d="M257.01135,70.56258C258.81137,70.56258 259.65421,70.56258 260.5322,70.56258C261.41138,70.56258 262.41138,70.56258 263.31137,70.56258C264.21136,70.56258 265.11136,70.56258 266.01135,70.56258C266.81137,70.56258 267.64737,70.56258 268.49402,70.56258C269.44202,70.56258 270.3447,70.39591 271.0322,70.06258L271.98969,69.68391L272.8447,69.39591L272.72604,68.64791" id="svg_15" stroke-width="3" stroke="#000" fill="none"/>
  <polyline timestamps="97789,98045,98109" startTime="1502534977646" id="svg_16" points="239.01136471971498,53.56258093017682 240.01136471971498,53.562580930176814 240.8126980530483,53.562580930176814 " stroke-linecap="round" stroke-width="3" stroke="#000" fill="none"/>
  <polyline timestamps="101478,101629,101702" startTime="1502534977646" id="svg_17" points="237.01136471971498,55.56258093017682 238.81136471971496,55.562580930176814 239.6541980530483,55.562580930176814 " stroke-linecap="round" stroke-width="3" stroke="#000" fill="none"/>
  <path t="104478,104701,104714,104730,104746,104764,104797" d="M245.01137,60.56258C246.71136,61.55808 247.61136,61.56258 248.51137,61.54175L249.30687,61.20992L250.0007,60.53725L250.23286,59.68391" id="svg_19" stroke-width="3" stroke="#000" fill="none"/>
  <path t="106533,106813,106862,106879,106879,106897,106897,106913,107205" d="M257.01135,61.56258C255.92737,59.84792 255.31656,59.12054 254.56853,58.68391C253.91489,58.30239 252.89803,58.27725 252.29803,57.76125L251.95869,56.86258L251.58603,56.16258" id="svg_20" stroke-width="3" stroke="#000" fill="none"/>
  <path t="108133,108357,108357,108380,108397,108413,108430,108453" d="M258.01135,52.56258C257.01135,51.56258 256.21136,51.56258 255.31137,51.56258C254.41136,51.56258 253.51137,51.56258 252.61136,51.56258L251.71136,51.56258" id="svg_21" stroke-width="3" stroke="#000" fill="none"/>
  <polyline timestamps="109421,109830" startTime="1502534977646" id="svg_22" points="259.01136471971495,57.56258093017682 257.3113647197149,56.567080930176814 " stroke-linecap="round" stroke-width="3" stroke="#000" fill="none"/>
  <path t="111477,111573,111573,111597,111677" d="M241.01137,53.56258C242.01137,53.56258 242.81137,53.56258 243.71136,53.56258L244.64737,53.59858" id="svg_23" stroke-width="3" stroke="#000" fill="none"/>
  <path t="112894,113093,113429,113526,113565,113662" d="M239.01137,57.56258C240.62202,57.56258 241.51137,57.56258 242.41136,57.56258L243.31137,57.56258L244.21269,57.56392" id="svg_24" stroke-width="3" stroke="#000" fill="none"/>
 </g>
</svg>