<svg width="500.00000000000006" height="332.409972299169" xmlns="http://www.w3.org/2000/svg" xmlns:svg="http://www.w3.org/2000/svg" xmlns:xlink="http://www.w3.org/1999/xlink">
 <!-- Created with SVG-edit - http://svg-edit.googlecode.com/ -->
 <g display="inline" class="layer">
  <title>Layer 1</title>
  <path t="0,162,180,184,192,192,200,208,208,216,222,230,230,238,246,252,262,268,275,291,298,313,330,335,342,358,373,380,388,396,402,412,418,424,433,440,441,448,457,463,470,486,514,523,538,552,562,574,582,598,613,620,636,658,694,712,719,740,754,764,786,793,808,816,823,830,846,852,862,875,875,882,891,898,904,913,920,930,934,934,942,950,958,968,968,973,973,980,988,988,997,997,1003,1003,1011,1011,1018,1025,1025,1032,1032,1041,1042,1048,1048,1054,1054,1054,1063,1070,1070,1070,1080,1080,1086,1086,1086,1093,1093,1100,1100,1100,1108,1108,1114,1114,1114,1122,1130,1130,1130,1138,1147,1147,1152,1152,1163,1175,1182" d="M120.5,59.70499C119.07467,57.70499 118.14283,57.70499 117.29867,57.70499C116.33334,57.70499 115.43551,57.53345 114.668,57.98899C113.93511,58.42398 113.17593,58.54836 112.332,58.79032C111.58969,59.00314 110.67776,59.61661 109.8045,59.70049C109.00367,59.7774 108.02156,59.55637 107.2045,60.05765C106.455,60.51748 105.69867,60.70499 104.85717,60.70499C103.97916,60.70499 103.02084,60.70436 102.14733,60.70499C101.216,60.70565 100.69789,61.37487 100,61.68415C99.15381,62.05916 98.09835,61.6449 97.52533,62.13032C96.92041,62.64277 96.17876,63.28532 95.40017,63.58349C94.5491,63.90942 93.90311,64.30809 93.1,64.67966C92.21407,65.08955 91.46552,65.4472 90.7,65.78899C89.95646,66.12096 89.03416,66.54568 88.30133,66.98898C87.5286,67.45642 86.96358,67.79828 86.464,68.27966C85.88693,68.83569 85.40008,69.27033 84.66666,69.70499C83.94978,70.12984 83.64146,70.938 83.5,71.78899C83.35606,72.65498 82.5,72.87165 82.5,73.75765C82.5,74.64782 82.08463,75.68707 82.55717,76.35232C83.07492,77.08121 83.91587,77.35635 84.72134,77.70499C85.45212,78.02129 85.81489,78.45164 86.72134,78.70515C87.49467,78.92144 87.80149,79.53526 88.69867,79.70632C89.45604,79.85073 89.92477,80.68698 90.78533,80.70499C91.69847,80.72409 92.584,80.70499 93.5,80.70499C94.3,80.70499 95.2,80.70499 96.1,80.70499C97,80.70499 97.9,80.70499 98.8,80.70499C99.7,80.70499 100.65347,80.88634 101.5,80.53832C102.17108,80.26243 102.99982,79.71541 103.9,79.70499C104.79994,79.69457 105.71507,79.77986 106.38533,79.61965C107.35754,79.38727 108.01351,78.98022 109,78.70499C109.8195,78.47635 110.69167,78.06284 111.5,77.87165C112.46338,77.64378 113.34306,77.79787 114.12534,77.66898C115.00721,77.52368 115.81705,76.94075 116.74733,76.76215C117.65192,76.58849 118.53148,76.80803 119.33334,76.53832C120.17776,76.2543 120.98804,75.80563 121.71066,75.67966C122.70424,75.50645 123.47854,75.13189 124.5,74.87165C125.27707,74.67368 126.06081,74.71748 126.87466,74.26899C127.72623,73.79973 128.33257,73.29836 129.10133,72.90498C129.8965,72.4981 130.7,72.10499 131.7,71.60499C132.3,71.30499 133.10001,70.90498 133.89999,70.50499C134.7,70.10499 135.7,69.60499 136.3,69.30499C137.10001,68.90498 137.89999,68.50499 138.7,68.10499C139.5,67.70499 140.31137,67.34256 141.01466,66.90498C141.90501,66.35102 142.66254,65.6981 143.32533,65.30499C144.01181,64.89781 144.7567,64.41969 145.5,63.70499C146.11165,63.11687 146.7,62.50632 147.3,61.99032L148.21466,61.62099L148.72133,60.82632L149.41467,60.42099" id="svg_1" stroke-width="3" stroke="#000" fill="none"/>
  <path t="1688,1824,1831,1839,1846,1846,1860,1870,1870,1886,1891,1898,1906,1914,1920,1928,1937,1944,1944,1953,1959,1966,1976,1976,1988,1996,2004,2011,2020,2020,2037,2040,2048,2056,2064,2064,2070,2078,2087,2088,2094,2103,2103,2109,2116,2126,2130,2138,2146,2154,2161,2170,2177,2190,2198,2198,2206,2214,2220,2228,2238,2238,2244,2253,2259,2266,2276,2280,2280,2288,2296,2305,2310,2311,2320,2321,2327,2327,2336,2340,2341,2348,2348,2356,2356,2356,2364,2364,2370,2371,2371,2378,2378,2378,2388,2388,2388,2394,2394,2394,2402,2402,2402,2409,2409,2409,2416,2416,2416,2416,2426,2426,2426,2430,2430,2430,2438,2438,2438,2446,2446,2446,2455,2455,2461,2461,2470,2477,2487,2498" d="M77.5,68.70499C78.5,69.31565 78.5,70.20499 78.5,71.11565C78.5,72.02615 78.5,72.84365 78.5,73.87165C78.5,74.70499 78.5,75.50499 78.5,76.53832C78.5,77.31565 78.49775,78.20499 78.5,79.10499C78.50225,80.005 78.7616,80.9239 79.37867,81.58366C79.91706,82.15929 80.70702,82.72314 81.14283,83.40498C81.66949,84.22896 82.02179,85.05123 82.37867,85.80499C82.78304,86.65905 83.18887,87.30916 83.784,87.99032C84.37707,88.66914 84.85671,89.31727 85.416,89.99032C85.97193,90.65933 86.29366,91.35076 86.92533,92.14098C87.49158,92.84936 87.94746,93.4558 88.47467,94.14098C88.97762,94.79463 89.38994,95.42892 89.97916,96.20499C90.53968,96.94324 90.69085,97.831 91.2045,98.40498C91.86253,99.14032 92.69753,99.72929 93.14283,100.40498C93.61449,101.12067 94.15148,101.75509 94.55267,102.40948C95.02575,103.18116 95.9481,103.49077 96.47467,104.14098C97.0656,104.87067 97.48122,105.5107 98.2045,105.76215C99.04732,106.05517 99.83633,106.5673 100.6,106.92632C101.37569,107.29101 102.12001,107.53449 103,107.72582C103.84632,107.90983 104.59839,108.59606 105.5,108.70499C106.29874,108.80148 107.03718,109.45193 107.9,109.66898C108.77351,109.88873 109.7,109.70499 110.6,109.70499C111.5,109.70499 112.3,109.70499 113.2,109.70499C114.1,109.70499 115.0497,109.78442 115.8045,109.34782C116.43743,108.9817 117.16664,108.42833 117.84734,108.00499C118.76268,107.43572 119.25583,106.85789 120.02084,106.20499C120.78178,105.55555 121.53225,105.25517 122.33334,104.70499C123.0307,104.22604 123.66666,103.53832 124.15266,103.05232C124.84734,102.35765 125.47871,101.72636 126.12534,101.07965C126.82138,100.38352 127.34612,99.88739 127.84734,99.30048C128.50687,98.52821 128.97794,97.69028 129.384,97.10499C129.95509,96.28183 130.53265,95.6943 131.10133,95.01965C131.71274,94.29433 132.29895,93.48608 132.664,92.93032C133.35164,91.88345 133.72821,91.15059 134.12534,90.51566C134.64224,89.6892 135.16231,89.10497 135.71066,88.46899C136.50754,87.54477 136.90752,87.02727 137.28934,86.47965C137.85612,85.66676 138.33092,84.87024 138.74733,84.16216C139.24977,83.30778 139.82466,82.50755 140.32533,81.89432C140.85085,81.25066 141.49529,80.29168 141.74283,79.75232C142.11493,78.94158 142.48782,77.86638 142.8,77.16216C143.08884,76.51059 143.57858,75.49377 144,74.72582C144.47615,73.85813 144.97917,73.22582 145.41467,72.50499L145.5,71.60516L145.5,70.70499L145.33333,69.87165" id="svg_2" stroke-width="3" stroke="#000" fill="none"/>
  <path t="3265,3295,3302,3302,3309,3316,3316,3325,3330" d="M112.5,42.70499C112.464,40.07965 112.1982,39.22821 111.92533,38.53032C111.56134,37.59935 111.5,36.70499 111.5,35.90499L111.5,35.00499L111.5,34.06898" id="svg_3" stroke-width="3" stroke="#000" fill="none"/>
  <path t="3355,3387,3398,3439,3459,3476,3481,3497,3511,3541,3557,3579,3616,3639" d="M111.5,27.70499C112.5,26.13032 112.5,25.20499 112.5,24.35232C112.5,23.42099 112.5,22.53832 112.5,21.65232C112.5,20.73032 112.5,19.87165 112.5,18.98899C112.5,18.13032 112.5,17.20499 112.85267,16.70499L113.784,16.70365" id="svg_4" stroke-width="3" stroke="#000" fill="none"/>
  <path t="3727,3776,3791,3797,3916,3930,3941,3947,3959,3960,3972,3976,3985,3991,3998,4012,4021,4028,4038,4044,4050,4058,4058,4066,4074,4074,4080,4088,4096,4104,4127,4135,4148,4158,4174,4191,4194,4200,4216,4231,4241,4259,4261,4274,4277,4282,4298,4308,4313,4329,4344,4350,4360,4380,4397,4422,4435,4443,4459,4474,4479,4495,4510,4516,4531,4541,4542,4547,4558,4576,4577,4585,4592,4599,4609,4614,4625,4629,4642,4642,4644,4650,4659,4666,4675,4710,4740,4756,4773,4778,4792,4794,4810,4811,4825,4831,4844,4848,4858,4861,4873,4877,4877,4882,4882,4893,4898,4898,4908,4908,4914,4915,4925,4929,4942,4950,4960,4966,4966,4977" d="M119.5,14.70499C121.14733,14.70499 122.43475,14.47725 122.216,13.70632C122.13666,13.42668 120.97916,13.70278 120.1,13.70499C119.20449,13.70724 118.69126,14.37118 117.97916,14.68415C117.17379,15.03812 116.2851,15.21482 115.5,15.53832C114.63918,15.89302 114.0508,16.04656 113.27866,16.58349C112.58055,17.06894 111.79172,17.12109 111.02084,17.70499C110.36776,18.19966 110.07318,19.11381 109.4,19.80499C108.90664,20.31154 108.28325,21.13116 107.5,21.53832C106.75615,21.925 106.02085,22.3667 105.52533,23.09432C105.07191,23.76012 104.9137,24.46765 104.464,25.27965C104.10442,25.92891 103.5,26.31565 103.5,27.18415C103.5,28.13032 103.5,28.99032 103.5,29.90365C103.5,30.78899 103.19971,31.73105 103.50017,32.58365C103.76521,33.33574 104.38325,34.06658 104.85267,34.65232C105.38496,35.31651 105.89005,35.91614 106.584,36.42099C107.32008,36.95648 107.93915,37.41067 108.88934,37.66899C109.75336,37.90388 110.66666,37.70499 111.59983,37.70499C112.464,37.70499 113.33334,37.70499 114.14733,37.70499C115.07467,37.70499 115.936,37.70499 116.88934,37.70499C117.784,37.70499 118.66666,37.70499 119.55267,37.70499C120.464,37.70499 121.41192,38.06872 122.14283,37.64782C122.9543,37.18053 123.53825,36.87854 124.3,36.61965C125.18791,36.31789 125.89899,35.84008 126.78533,35.70365C127.6192,35.5753 128.35866,34.95149 129.11067,34.66899C129.92563,34.36284 130.4657,33.54003 131.2045,33.05765C131.93311,32.58192 132.73112,32.22847 133.60001,31.82632C134.26202,31.51991 135.08197,31.09201 135.89999,30.73032C136.68446,30.38347 137.75238,30.34336 138.37849,29.70499C138.88702,29.18651 138.50533,28.1303 138.5,27.20499C138.49466,26.27961 138.08546,25.62091 137.44733,25.05765C136.85193,24.53212 136.37465,23.67266 135.92534,23.14099C135.27234,22.36828 134.92931,21.54275 134.33333,20.87165C133.79491,20.26537 133.01143,19.893 132.52533,19.26899C131.9472,18.52682 131.49478,17.88894 130.74283,17.65232C129.84059,17.36841 129.14241,17.01574 128.25717,16.40949C127.4909,15.8847 126.7201,15.71241 125.84734,15.34782C125.13068,15.04845 124.4636,14.38154 123.70133,13.99032C122.86143,13.55926 121.9,13.70499 121.02084,13.70499C120.14283,13.70499 119.2,13.70949 118.40017,13.92649L117.78533,14.50632L117.47467,15.30499" id="svg_5" stroke-width="3" stroke="#000" fill="none"/>
  <path t="5288,5326,5362,5389,5400,5410,5410,5416,5432,5442,5442,5446,5446,5456,5456,5460,5473,5478,5478,5482,5491,5498,5508,5508,5512,5522,5528,5539,5544,5559,5572,5580,5589,5596,5605" d="M103.5,33.70499C102.5,34.35232 102.36491,35.29045 102.5,36.13032C102.64382,37.02451 103.4121,37.6913 103.4955,38.40499C103.59995,39.29892 103.45805,40.24521 103.784,41.18899C104.02861,41.89728 104.36991,42.83254 104.584,43.58899C104.80574,44.37248 105.33115,45.19671 105.47916,46.18415C105.6009,46.9963 105.76785,47.92048 106.30133,48.50499C106.95821,49.22469 107.19808,50.08599 107.85717,50.65232C108.54591,51.24413 109.22342,51.59561 110,52.18415C110.73383,52.7403 111.49401,52.90952 112.2045,53.35232C112.98956,53.8416 114,53.70704 114.85717,53.70499C115.79551,53.70274 116.47467,53.26899 116.78533,52.50632L117.5,51.87165" id="svg_6" stroke-width="3" stroke="#000" fill="none"/>
  <path t="6030,6142,6158,6167,6177,6181,6194,6194,6197,6197,6209,6211,6211,6219,6219,6227,6232,6243,6243,6248,6257,6270,6286,6297,6324,6324,6332,6332,6339,6339,6350,6355,6355,6368,6369,6398,6429,6438,6451,6466,6483" d="M136.5,27.70499C137.5,28.35232 137.5,29.22582 137.5,30.10499C137.5,31.00499 137.45148,31.90631 137.50017,32.80515C137.54288,33.59377 137.96431,34.51518 138.216,35.22099C138.55328,36.16681 138.88095,36.99204 139.30133,37.59032C139.82605,38.3371 140.19066,39.22872 140.47467,40.06898C140.7601,40.91344 141.2422,41.73947 141.584,42.50499C141.91599,43.24852 142.48199,44.09378 142.5,44.98899C142.51775,45.87148 142.8976,46.95621 142.27817,47.58365C141.73175,48.13713 140.7222,47.9618 140,48.22582C138.81543,48.65887 138.25868,49.27054 137.39999,49.58349C136.54674,49.89445 135.7,49.70499 134.8,49.70499C133.936,49.70499 133,49.70499 132.14284,49.70499C131.2045,49.70499 130.49983,49.92632 130.14734,50.64782L129.5,50.98899" id="svg_7" stroke-width="3" stroke="#000" fill="none"/>
  <path t="6999,7028,7037,7037,7047,7047,7050,7061,7061,7066,7066,7072,7072,7080,7080,7088,7088,7096,7096,7103,7112,7118,7127,7156,7170" d="M142.5,41.70499C142.5,43.53832 142.2468,44.2924 141.7955,45.05682C141.33344,45.83951 140.76103,46.49503 140.47467,47.34099C140.19028,48.18113 139.93854,48.91232 139.3,49.82099C138.83456,50.48334 138.31079,51.19535 137.89999,51.87965C137.41267,52.69141 136.86301,53.30562 136.3,54.18899C135.87103,54.86205 135.31416,55.62584 134.85716,56.40049C134.40991,57.15861 134.14734,58.00499 133.62134,58.80482L133.27867,59.58349L132.55716,59.70499L133.47467,59.69432" id="svg_8" stroke-width="3" stroke="#000" fill="none"/>
  <path t="8153,8182,8198,8222,8236,8247,8262,8266,8266,8272,8280,8298,8298,8302,8302,8318,8318,8334,8341,8341,8349,8356,8365,8372,8372,8383,8387,8399,8400,8416,8416,8417,8422,8433,8438,8449,8452,8466,8482,8483,8490,8499,8506,8517,8522,8533,8537,8551,8551,8553,8566,8567,8572,8582,8588,8599,8615,8618,8632,8633,8649,8656,8672,8683,8687,8699,8700,8716,8717,8733,8738,8738,8752,8766,8768,8783,8783,8800" d="M149.5,87.70499C149.5,89.35232 149.5,90.27966 149.5,91.13032C149.5,92.06216 149.5,92.90366 149.5,93.87165C149.5,94.70499 149.29918,95.54086 149.55716,96.40498C149.81354,97.26375 150.5,98.03832 150.5,98.72582C150.5,99.68349 150.30371,100.53813 150.55716,101.40498C150.81377,102.28263 151.46034,103.0085 151.5,103.87165C151.53731,104.68356 151.98615,105.47302 152.47467,106.14098C153.03139,106.90219 153.38925,107.69544 153.49867,108.50499C153.61948,109.39876 154.18555,110.12754 154.44284,111.00499C154.69661,111.87045 154.80084,112.75581 155.14734,113.40498C155.60069,114.25436 155.49774,115.20499 155.5,116.10499C155.50226,117.0005 156.17043,117.51189 156.47917,118.22582C156.82401,119.0232 156.93401,119.76733 157.37849,120.58366C157.73654,121.24124 157.93451,122.09943 158.416,122.90366C158.86121,123.64728 159.32953,124.15701 159.51067,125.10499C159.66933,125.93536 160.26245,126.73128 160.55267,127.40498C160.9153,128.24678 161.38269,129.05093 161.92534,129.67966C162.44334,130.27982 162.91614,131.10312 163.52533,131.73032C164.0666,132.28758 164.48741,133.07109 165,133.70499C165.5352,134.36684 165.93102,135.07164 166.72133,135.58348C167.42653,136.04019 168.26358,136.01613 168.85266,136.65231C169.38565,137.22791 170.18362,137.37596 170.97917,137.72581C171.69119,138.03894 171.98875,138.99196 172.7215,139.58365C173.36731,140.10513 174.08784,140.41275 174.85716,141.05765C175.55461,141.6423 176.37866,141.92632 176.784,142.62099L177.464,143.13033L177.85266,143.70499" id="svg_9" stroke-width="3" stroke="#000" fill="none"/>
  <path t="9309,9338,9368,9436,9472,9496,9512,9512,9520,9530,9532,9540,9540,9548,9556,9556,9564,9564,9572,9580,9580,9586,9596,9596,9600,9611,9611,9616,9622,9631,9631,9638,9647,9652,9663,9663,9669,9680,9682,9691,9691,9698,9707,9714,9721,9721,9731,9736,9736,9749,9752,9752,9760,9768,9772,9773,9782,9788,9802,9803,9816,9816,9819,9833,9840,9850,9857,9867,9872,9882,9886,9898,9901,9901,9909,9917,9925,9932,9951,9952,9952,9966,9968,9990,9990,10001,10008,10022,10034,10037,10050,10053,10068,10068,10072,10088,10101,10102,10117,10118,10140,10150,10155,10166,10182,10186,10198,10209,10232,10238,10251,10268,10284,10300,10318,10336,10351,10367,10372,10389,10402,10418,10440,10463,10486,10493,10546,10554,10569,10583,10672,10696,10718,10732,10749,10764,10780,10797,10808,10846,10853,10868,10880,10890,10898,10905,10921,10921,10936,10944,10958,10966,10974,10974,10981,10998,11002,11013,11018,11024,11115,11124,11138,11148,11152,11163,11168,11178,11183,11198,11205,11214,11231" d="M157.5,62.70499C156.85266,61.70499 156.5,62.27965 156.5,63.20499C156.5,64.05766 156.26952,65.06596 156.66667,65.87165C156.9856,66.51864 157.34697,67.42744 157.936,68.09432C158.55031,68.7898 159.53268,68.83058 160.10001,69.31565C160.84671,69.95409 161.5,70.70499 162,71.20499C162.7,71.90498 163.3,72.505 163.89999,73.10499C164.60001,73.80499 165.2,74.40498 165.8,75.00499C166.5,75.70499 167.13504,76.27196 167.69867,76.90498C168.37773,77.66766 168.55267,78.40498 169,79.20499C169.44733,80.00499 169.81104,80.74953 170.216,81.50499C170.62123,82.26094 171.01744,83.05534 171.416,83.90498C171.81961,84.7654 172.11783,85.41795 172.52533,86.30499C172.89871,87.11776 173.29999,87.95107 173.66667,88.70499C174.03807,89.4686 174.43472,90.23707 174.85266,91.00499C175.31035,91.84594 175.70761,92.67911 176.07466,93.30499C176.52715,94.07652 176.94055,94.96301 177.216,95.59032C177.60799,96.48299 177.66078,97.5414 178,98.18415C178.43532,99.009 178.33629,99.96228 178.72133,100.80499C179.02713,101.47429 179.3295,102.32499 179.52083,103.20499C179.70483,104.05131 180.39108,104.80338 180.5,105.70499C180.5965,106.50372 181.1862,107.12735 181.44284,108.00499C181.69595,108.87054 181.49786,109.80499 181.5,110.70499C181.50226,111.65233 182.20575,112.14502 182.464,113.10499C182.698,113.97478 182.44563,114.90664 182.50017,115.80499C182.54289,116.50886 183.24695,117.24216 183.464,118.10499C183.68375,118.97849 183.40462,119.90837 183.5,120.87165C183.58374,121.71735 184.30006,122.35761 184.47917,123.20499C184.66313,124.07533 184.84798,124.83888 185.216,125.50632C185.67044,126.33046 185.33414,127.36765 185.52083,128.22581C185.69998,129.0493 186.31958,129.77095 186.58533,130.50632C186.8933,131.35854 187.84843,131.83862 188.216,132.50632C188.67708,133.34387 189.0782,134.0623 189.41467,134.90366C189.74947,135.74081 190.1256,136.41846 190.48933,137.26898C190.83238,138.07114 191.17188,138.93398 191.72133,139.58365C192.27881,140.2428 192.21347,140.99854 192.55716,141.75766C192.90271,142.5209 193.30983,143.21884 193.784,143.98898C194.25211,144.74928 194.31866,145.44035 194.5,146.27965C194.6804,147.11458 195.5,147.72581 195.5,148.61966C195.5,149.42099 196.19803,149.99216 196.5,150.92632C196.75571,151.71736 196.5,152.67966 196.5,153.53831C196.5,154.42099 196.50244,155.27965 196.5,156.20499C196.49774,157.05766 195.9847,157.66722 195.48933,158.13033C194.90668,158.67502 194.61501,159.42874 193.92534,159.69432C193.06175,160.02687 192.07466,159.70499 191.216,159.70499C190.27867,159.70499 189.41467,159.70499 188.5,159.70499C187.62151,159.70499 186.80016,159.69765 186.5,159.05765C186.16516,158.34369 185.82227,157.59055 185.4955,156.75766C185.18588,155.96851 184.5,155.34782 184.5,154.50632C184.5,153.62099 184.25859,152.75461 183.85266,152.06215C183.41368,151.31329 183.5,150.40948 183.5,149.48349C183.5,148.60498 183.5372,147.70412 183.5,146.90498C183.45729,145.98735 182.5609,145.48976 182.5,144.60498C182.4382,143.70711 182.48247,142.82614 182.5,141.98898C182.51801,141.12976 183.22395,140.71947 183.936,140.27965C184.70755,139.80307 185.43643,139.34286 186,138.70499C186.51552,138.12151 187.22983,137.9216 188.14284,137.70499C188.91403,137.52202 189.55267,136.70949 190.30133,136.70499L191.33333,136.70499" id="svg_10" stroke-width="3" stroke="#000" fill="none"/>
  <path t="11941,12068,12083,12090,12098,12105,12113,12129,12144,12159,12174,12183,12195,12211,12221,12224,12238,12251,12255,12271,12280,12289,12293,12293,12304,12309,12317,12332,12339,12345,12345,12356,12361,12378,12383,12391,12399,12406,12413,12429,12451,12451,12460,12460,12460,12466,12478,12481,12481,12499,12515,12516,12534,12536,12536,12541,12541,12564,12565,12582,12585,12595,12612,12616,12631,12647,12692,12710,12730,12754,12758,12767,12782,12789,12805,12811,12827,12828,12834,12843,12850,12865,12866,12882,12884,12899,12902,12902,12902,12910,12911,12916,12916,12928,12928,12931,12932,12932,12932,12946,12946,12947,12947,12963,12963,12963,12980,12980,12980,12980,12983,12984,12984,12984,12984,12996,12996,12999,12999,13013,13014,13014,13015,13015,13030,13031,13032,13032,13047,13047,13061,13061,13061,13061,13066,13066,13066,13076,13076,13082,13092,13095" d="M185.5,157.70499C186.07466,157.13033 185.35544,157.6918 184.92534,158.31566C184.37643,159.11183 184.04337,159.83543 183.416,160.42099C182.72766,161.06345 182.20695,161.3092 181.62151,161.92632C181.03325,162.54639 180.8107,163.33464 180.5,164.13033C180.17058,164.97397 179.58374,165.69261 179.5,166.53831C179.41978,167.34836 179.5,168.22581 179.5,169.18416C179.5,170.06215 179.5,170.90498 179.5,171.80499C179.5,172.70499 179.5,173.50499 179.5,174.40498C179.5,175.30499 179.49773,176.26898 179.5,177.14099C179.50226,178.005 179.88608,178.84334 180.216,179.50499C180.63655,180.34834 180.4449,181.37778 180.85266,182.06215C181.31844,182.84389 181.47536,183.73071 181.5,184.50632C181.52859,185.40634 182.12291,186.11967 182.50133,186.99033C182.83781,187.76453 183.22458,188.50087 183.416,189.47299C183.55835,190.19591 183.46107,190.98312 183.92534,192.03299C184.28737,192.85168 184.48279,193.70517 184.5,194.50499C184.51801,195.34157 184.81732,196.1757 185.14734,197.05232C185.48157,197.94017 185.66325,198.87302 185.92534,199.53032C186.32809,200.54042 186.33401,201.27591 186.51067,202.14099C186.69574,203.04733 187.48192,203.68976 187.5,204.55565C187.51892,205.46196 188.08914,206.058 188.41467,206.90366C188.72731,207.71579 189.09041,208.52458 189.92534,208.70499C190.83174,208.90083 191.72133,208.70499 192.66667,208.70499C193.5,208.70499 194.03163,208.46533 194.66667,207.87166C195.2758,207.3022 195.9223,207.0555 196.41467,206.42099C196.97743,205.69579 196.94235,204.87701 197.52533,204.14099C198.06212,203.46329 198.49933,202.90366 198.5,202.00499C198.50067,201.10498 198.5,200.20499 198.5,199.30499C198.5,198.39598 198.48804,197.37148 198.5045,196.69965C198.52275,195.95522 198.7458,194.85876 199.07466,194.09032C199.44241,193.231 199.4823,192.49422 199.50017,191.50482C199.515,190.68404 199.65466,189.53537 199.85266,188.75232C199.99161,188.20279 200.25679,187.39598 200.44733,186.16216C200.54671,185.5186 200.72672,184.50685 201,183.70499C201.34004,182.70724 201.46208,181.88211 201.55267,181.19066C201.70093,180.0591 201.85222,179.38953 202.02083,178.66331C202.19928,177.89474 202.50194,176.70546 202.69867,175.90765C202.89122,175.12679 203.08032,174.38029 203.21466,173.67566C203.44249,172.48062 203.49466,171.52637 203.5,170.50499C203.50418,169.705 203.53188,168.70392 203.48933,167.90498C203.44661,167.10265 203.12949,166.11128 202.92534,165.50499C202.59187,164.5146 202.65816,163.67706 202.2785,162.72632C201.99861,162.02539 201.29834,161.21851 200.97917,160.66331C200.33267,159.5387 200.01666,159.02057 199.5,158.20499C199.15311,157.65738 198.5546,156.60583 198.12534,155.96233C197.65149,155.25198 196.84734,154.81482 195.98399,154.62231L195.136,154.27965L194.3,153.79031L193.39999,153.70499" id="svg_11" stroke-width="3" stroke="#000" fill="none"/>
  <path t="13846,13943,13974,13990,13995,14004,14021,14026,14033,14042,14049,14055,14063,14063,14073,14079,14087,14087,14093,14103,14103,14109,14115,14123,14131,14138,14144,14145,14155,14161,14170,14176,14183,14191,14199,14206,14206,14213,14221,14229,14237,14237,14243,14253,14259,14265,14265,14273,14281,14289,14295,14305,14311,14320,14327,14333,14342,14349,14349,14363,14371,14379,14393,14403,14415,14431,14468,14499" d="M87.5,172.70499C89.14733,172.70499 90.1364,173.01265 90.92533,172.69432C91.68897,172.3862 92.24306,171.8905 93.11066,171.66899C93.96345,171.45128 94.69548,170.7477 95.55267,170.70499C96.3004,170.66772 97.2701,170.68448 98.15266,170.35233C98.85889,170.08653 99.74155,169.73358 100.7,169.70499C101.59977,169.67815 102.38533,169.70499 103.32533,169.70499C104.33334,169.70499 105.08933,169.70499 106,169.70499C106.9,169.70499 107.8,169.70499 108.7,169.70499C109.6,169.70499 110.5,169.70499 111.3,169.70499C112.2,169.70499 113.1,169.70499 114,169.70499C114.9,169.70499 115.8,169.70491 116.7,169.70499C117.6,169.70508 118.46668,169.92558 119.1,170.27965C119.96127,170.76115 120.94454,170.60953 121.7,170.98898C122.5672,171.42456 123.22686,171.51901 124.1,171.74098C124.96229,171.96019 125.75363,172.494 126.6,172.92632C127.25532,173.26105 127.92261,173.86421 128.584,174.42099C129.20078,174.9402 130.03772,175.44978 130.89999,175.66899C131.77313,175.89096 132.62526,175.89708 133.33333,176.53831C133.95952,177.10539 134.75618,177.48489 135.5,177.87166C136.29974,178.28749 137.08408,178.60587 137.7955,179.05765C138.59137,179.56305 139.55653,179.26732 140.216,179.79031C140.90318,180.3353 141.33333,180.70499 142.14734,180.70499L142.536,180.09431" id="svg_12" stroke-width="3" stroke="#000" fill="none"/>
  <path t="14813,14850,14865,14874,14874,14881,14890,14890,14895,14895,14895,14906,14906,14906,14911,14911,14911,14921,14921,14922,14927,14927,14927,14933,14933,14933,14933,14942,14942,14949,14949,14949,14955,14956,14956,14963,14963,14973,14973,14979,14979,14987,14988,14993,15001,15009,15009,15015,15023,15030,15040,15045,15061,15072,15082,15099,15121,15159,15166,15173,15173,15181,15181,15189,15189,15194,15195,15205,15205,15205,15205,15211,15211,15211,15221,15221,15221,15227,15227,15227,15227,15233,15233,15242,15242,15242,15249,15249,15249,15255,15255,15263,15263,15272,15272,15279,15288,15293,15293,15309,15315,15331" d="M160.5,127.70499C160.5,129.35233 160.5,130.24666 160.5,131.18898C160.5,131.87965 160.4888,132.95238 160.5,133.87166C160.51042,134.726 160.65634,135.70827 160.85266,136.30949C161.13269,137.16708 161.38841,138.12523 161.47467,138.93031C161.56264,139.75131 161.71291,140.78618 161.92534,141.47966C162.20496,142.39246 162.42026,143.38991 162.5,144.22581C162.55565,144.80922 162.71188,146.00719 162.92534,146.90498C163.06836,147.50653 163.3519,148.70276 163.41467,149.30365C163.50639,150.18173 163.48093,151.01985 163.50133,152.02098C163.51987,152.93079 163.65434,153.87468 163.85266,154.65765C164.06172,155.48305 164.36588,156.53406 164.44284,157.24782C164.53442,158.09718 164.49994,159.10498 164.5,159.90498C164.50009,160.90482 164.37271,161.72571 164.72133,162.68365C164.97333,163.37613 165.46396,164.35637 165.4955,165.05232C165.54153,166.06805 165.94234,166.81679 166.33333,167.70499C166.62283,168.36263 166.33478,169.32419 166.52083,170.20499C166.69981,171.05238 167.43912,171.79871 167.5,172.70499C167.5589,173.58167 167.64529,174.22981 168.14734,174.76215C168.73227,175.38237 168.52019,176.38602 167.88933,176.74098C167.12228,177.17256 166.38992,177.54895 165.61467,177.78899C164.64977,178.08774 163.91136,178.48169 163.10001,178.61966C162.30789,178.75435 161.29984,178.70499 160.47917,178.70499C159.33333,178.70499 158.54283,178.70499 157.68933,178.70499C157.09866,178.70499 155.89999,178.70499 155,178.70499C154.39999,178.70499 153.2,178.70499 152.3,178.70499C151.7,178.70499 150.5,178.70499 149.60451,178.70499C149.02083,178.70499 148.18495,178.73134 146.95267,178.70049C146.27415,178.6835 145.33031,178.55064 144.54733,178.35233C143.72194,178.14326 142.66855,177.8587 141.73599,177.73032C141.10565,177.64354 140.0769,177.472 139.336,177.09431C138.48932,176.66272 137.90965,176.05138 137.01601,175.50632C136.34895,175.09946 135.1857,175.06668 134.584,174.41965C133.99165,173.78265 133.784,172.99033 133.14734,172.35233L132.5045,171.65231L132.48933,170.74098" id="svg_13" stroke-width="3" stroke="#000" fill="none"/>
  <path t="16171,16200,16283,16291,16299,16305,16305,16313,16313,16321,16329,16329,16335,16335,16335,16344,16344,16351,16351,16360,16365,16365,16377,16377,16381,16381,16393,16393,16395,16403,16403,16412,16412,16412,16419,16419,16427,16433,16433,16443,16443,16443,16449,16449,16455,16463,16463,16471,16471,16479,16479,16485,16494,16501,16510,16510,16515,16526,16531,16543,16553,16561,16569,16583,16599,16606,16621,16629,16643,16651,16660,16665,16665,16676,16693,16696,16704,16734,16735,16748,16749,16750,16769,16774,16784,16784,16788,16797,16802,16809,16834,16835,16847,16913,16944,16952,16965,16976,16977,16981,16987,16995,17003,17012,17012,17019,17028,17033,17044,17063,17183,17199,17205,17205,17213,17213,17221,17221,17229,17229,17236,17236,17236,17236,17244,17244,17251,17251,17251,17251,17261,17261,17266,17266,17266,17276,17276,17281,17281,17281,17289,17289,17295,17296,17303,17303,17311,17319,17328,17333,17344,17355,17363,17371" d="M83.5,86.70499C83.5,84.87165 82.85628,85.0433 82.55717,86.00499C82.28934,86.8661 82.58829,87.81987 82.41467,88.59032C82.23603,89.38301 81.67803,90.19725 81.536,91.07965C81.38544,92.01514 81.5,92.72582 81.5,93.70499C81.5,94.50499 81.5,95.30499 81.5,96.30499C81.5,97.10499 81.5,98.30048 81.5,99.04782C81.5,99.95232 81.5,100.87165 81.5,101.70499C81.5,102.68365 81.5,103.45766 81.5,104.36215C81.5,105.10949 81.5,106.30048 81.5,107.04782C81.5,107.95232 81.5,108.87165 81.5,109.72582C81.5,110.70499 81.5567,111.51417 81.41467,112.30499C81.23245,113.31952 80.73588,114.01771 80.55717,114.95232C80.38417,115.85703 80.5593,116.74116 80.33334,117.70499C80.14143,118.52357 79.76982,119.08642 79.58533,120.10365C79.44811,120.86028 79.51149,121.95238 79.5,122.87165C79.48958,123.70518 79.29378,124.51917 78.92533,125.33032C78.5434,126.17117 78.50225,127.05231 78.5,127.94782C78.4976,128.90498 78.5,129.80499 78.5,130.70499C78.5,131.50499 78.5,132.40498 78.5,133.30499C78.5,134.20499 78.5,135.09431 78.5,135.99033C78.5,136.90366 78.5,137.75766 78.5,138.67966C78.5,139.53831 78.5,140.42099 78.5,141.31566C78.5,142.18416 78.5007,143.06215 78.5,144.00499C78.49933,144.90498 78.25179,145.65549 77.85267,146.40498C77.41591,147.22517 77.50064,148.14099 77.5,149.00499C77.49933,149.90498 77.18089,150.75542 76.85267,151.51932C76.4622,152.42813 76.5131,153.18404 76.5,154.20499C76.48901,155.06209 76.05766,155.81679 75.66666,156.70499C75.37717,157.36263 75.5,158.30499 75.5,159.20499C75.5,160.10498 75.72013,161.07347 75.33334,161.87166C74.96729,162.62703 74.42804,163.51918 75.07467,163.70499C75.9025,163.94286 76.8972,163.82214 77.78533,163.70366C78.62177,163.59207 79.31554,163.0265 80.1,162.67966C80.91804,162.31796 81.70464,161.82993 82.6,161.70482C83.50647,161.57817 84.03901,160.94971 85,160.72581C85.86668,160.5239 86.58349,160.29825 87.14733,159.70949C87.57308,159.26492 87.5,158.27965 87.5,157.41832C87.5,156.53831 87.37778,155.66438 87.72134,154.72632C87.97476,154.03436 88.45235,153.22218 88.4955,152.30049C88.54212,151.30472 88.45738,150.67429 88.66666,149.53831C88.81319,148.74295 89.09969,147.92632 89.30133,147.38899C89.67957,146.38109 90.11757,145.48694 90.5,144.53831C90.81457,143.75803 90.98834,143.20061 91.3,142.38899C91.68565,141.38469 92.09786,140.5146 92.5,139.70499C92.89789,138.90393 93.2,138.30499 93.7,137.30499C94.1,136.50499 94.52141,135.71506 94.88934,134.90498C95.15869,134.31195 95.33331,133.2906 95.55267,132.36215C95.77177,131.43474 96.26871,130.83391 96.47467,129.87965C96.62221,129.19612 97.07085,128.26064 97.44733,127.40498C97.78783,126.63113 98.33334,125.87165 98.5,125.13032L98.52084,124.20499L99.14733,123.65232L99.584,122.98898" id="svg_14" stroke-width="3" stroke="#000" fill="none"/>
  <path t="17641,17805,17821,17830,17835,17835,17844,17844,17851,17851,17861,17861,17865,17865,17865,17877,17877,17877,17881,17881,17887,17887,17887,17895,17895,17895,17903,17903,17911,17911,17911,17917,17917,17917,17917,17927,17927,17933,17933,17933,17943,17943,17943,17949,17949,17949,17955,17955,17955,17963,17963,17963,17971,17971,17971,17979,17980,17980,17985,17985,17985,17994,17994,18001,18001,18001,18010,18010,18015,18026,18026,18031,18031,18037,18046,18053,18062,18077,18096,18113,18129" d="M77.5,97.70499C77.5,96.20499 77.5,97.06216 77.5,98.00499C77.5,98.90632 77.5,99.59032 77.5,100.54099C77.5,101.30632 77.5582,102.3116 77.44283,103.10499C77.29528,104.11972 76.83785,104.88248 76.6215,105.90515C76.45036,106.71407 76.51193,107.3904 76.49866,108.38898C76.48782,109.20515 76.47639,110.03528 76.216,111.01965C75.9803,111.91071 75.58336,112.90137 75.52084,113.72582C75.47057,114.3887 75.5,115.38898 75.5,116.20499C75.5,117.02099 75.5,118.02099 75.5,118.93032C75.5,119.87165 75.5,120.66216 75.5,121.51566C75.5,122.70499 75.5,123.30365 75.5,124.18415C75.5,125.01965 75.5,126.02099 75.5,126.93032C75.5,127.87165 75.5,128.65765 75.5,129.47966C75.5,130.53831 75.52295,131.4828 75.44283,132.15765C75.32699,133.13344 75.05488,133.93616 74.85267,134.80949C74.64636,135.70053 74.53826,136.59967 74.51067,137.46899C74.47674,138.53783 74.49992,139.25232 74.5,140.15765C74.50008,141.12648 74.48109,141.94307 74.55717,142.80949C74.63608,143.70819 74.85828,144.59906 75.07467,145.46899C75.34023,146.53662 75.4034,147.25441 75.55267,148.10048C75.73176,149.1156 76.07428,149.68323 76.33334,150.70499C76.53299,151.49246 76.52872,152.32158 76.85267,153.30049C77.10505,154.06314 77.38072,154.97081 77.66666,155.87166C77.93819,156.72713 78.25527,157.56256 78.52533,158.29433C78.8383,159.1424 79.16238,159.98709 79.55717,160.75766C79.93919,161.5033 80.92533,161.70499 81.85267,161.70499L82.784,161.70499L83.66666,161.70499" id="svg_15" stroke-width="3" stroke="#000" fill="none"/>
  <path t="18607,18661,18787,18803,18812,18817,18817,18828,18833,18833,18843,18847,18855,18855,18863,18863,18879,18885,18895,18895,18901,18915,18923,18931,18937,18963,18967,19087,19103,19114,19118,19130,19134,19148,19164,19171,19185,19253,19262,19267,19284,19335,19351,19363,19373,19441,19447,19465,19485,19510,19523,19532,19532,19538,19538,19549,19549,19555,19555,19564,19564,19564,19568,19568,19568,19582,19583,19584,19584,19597,19598,19600,19600,19605,19605,19615,19621,19621" d="M75.5,166.70499C75.5,164.87166 75.5,165.35233 75.5,166.22581C75.5,167.11565 75.4994,168.02632 75.5,168.87965C75.50067,169.81966 75.74213,170.65877 76.14733,171.40498C76.56062,172.16611 76.48097,173.11584 76.50017,174.02632C76.51817,174.88022 76.73967,175.85286 77.216,176.41832C77.86839,177.19278 78.40282,177.90619 78.50017,178.80499C78.5761,179.50606 79.11983,180.2272 79.784,180.99033C80.37576,181.67027 80.39988,182.6268 81,183.20499C81.63213,183.81401 82.09523,184.38156 82.72134,184.70499C83.42882,185.07045 83.20679,183.55115 83.5045,182.75766C83.77074,182.04805 84.48199,181.30554 84.5,180.40948C84.5175,179.5385 84.85183,179.09361 85.41467,178.42099C85.77142,177.99464 85.87789,178.51526 86.464,179.13033C86.9426,179.63257 87.99931,180.15752 88.5,179.53831C89.05709,178.84937 88.63554,177.24586 89.33334,177.70499C89.96745,178.12221 90.54514,179.14325 91.216,178.70499C91.80781,178.31837 91.52296,177.16301 91.49866,176.22099C91.48083,175.52968 91.1284,174.63206 90.784,173.82098C90.46857,173.07816 90.47109,172.08771 90.21467,171.30499C89.9458,170.48428 89.37344,169.5168 89.11066,168.89432C88.74773,168.03458 88.56288,167.02245 88.52084,166.20499C88.47891,165.38983 88.55113,164.38666 88.464,163.51566C88.38226,162.69861 87.98022,161.9478 87.66666,160.87166C87.44086,160.09666 87.5,159.21965 87.5,158.49432C87.5,157.50516 87.5,156.54099 87.5,155.59032L87.5,154.70499L87.5,153.90498" id="svg_16" stroke-width="3" stroke="#000" fill="none"/>
  <path t="20731,20761,20843,20857,20866,20873,20883,20883,20888,20897,20897,20903,20911,20917,20917,20931,20931,20935,20935,20946,20949,20949,20955,20955,20967,20971,20971,20984,20984,20986,21001,21002,21002,21022,21022,21023,21023,21023,21032,21041,21041,21048,21055,21056,21062,21068,21068,21083,21084,21095,21095,21097,21106,21122,21123,21139,21159,21159,21160,21160,21166,21175,21189,21189,21201,21207,21223,21234,21234,21236,21255,21257,21257,21269,21275,21286,21286,21301,21301,21302,21302,21318,21334,21334,21339,21339,21349,21349,21353,21369,21370,21385,21400,21400,21417,21433,21433,21436,21436,21451,21470,21483,21483,21490,21490,21500,21504,21519,21534,21534,21536,21550,21568,21574,21574,21582,21586,21602,21617,21618,21632,21640,21640,21649,21657,21669,21687,21700,21718,21718,21736,21749,21752,21766,21768,21785,21790,21799,21819,21847,21866,21880,21967,21983,21996,22005,22022,22029,22045,22061,22077,22103,22118,22134,22155,22171,22185,22231,22261,22275,22293,22335,22351,22367,22383,22395,22403,22418,22429,22445,22450,22464,22478,22485,22495,22511,22517,22528,22537,22546,22553,22562,22568,22578,22585,22595,22599,22605,22614,22622,22630,22646,22652,22661,22662,22666,22679,22684,22687,22695,22703,22713,22718,22718,22728,22735,22745,22755,22764,22772,22780,22786,22802,22816,22828,22833,22837,22846,22862,22863,22869,22879,22883,22891,22898,22914,22922,22933,22946,22952,22963,22967,22978,22983,22987,22987,22996,23014,23019,23035,23046,23049,23056,23064,23079,23095,23102,23113,23128,23137,23153,23162,23178,23195,23199,23214,23221,23229,23245,23262,23267,23278,23287,23296,23313,23319,23328,23345,23349,23364,23371,23386,23396,23412,23416,23483,23521,23551,23565,23671,23685,23696,23703,23711,23716,23728,23732,23737,23737,23745,23753,23762,23779,23785,23794,23795,23797,23805,23814,23821,23836,23846,23853,23866,23867,23878,23887,23895,23904,23918,23934,23947,23949,23965,23971,23986,23996,24012,24028,24037,24046,24063,24069,24079,24099,24113,24129,24146,24153,24161,24178,24187,24196,24203,24219,24229,24246,24255,24263,24278,24296,24303,24312,24328,24338,24353,24377,24383,24397,24405,24421,24436,24451,24462,24465,24474,24482,24496,24513,24518,24528,24534,24547,24548,24555,24563,24571,24579,24597,24603,24612,24616,24624,24632,24647,24665,24679,24697,24699,24705,24721,24736,24746,24750,24766,24774,24782,24796,24797,24804,24814,24831,24834,24847,24855,24864,24864,24870,24899,25095,25147,25179,25199,25237,25253,25268,25284,25297,25313,25320,25332,25346,25346,25350,25362,25366,25374,25388,25396,25413,25434,25445,25455,25464,25471,25479,25497,25501,25545,25554,25569,25579,25584,25598,25598,25613,25621,25629,25637,25650,25651,25658,25666,25666,25673,25680,25680,25689,25689,25696,25696,25704,25713,25713,25718,25719,25729,25729,25734,25734,25739,25739,25747,25748,25755,25755,25763,25771,25771,25780,25780,25787,25787,25800,25800,25802,25812,25812,25816,25816,25823,25823,25830,25838,25839,25846,25854,25854,25863,25868,25879,25879,25884,25885,25889,25897,25905,25905,25913,25914,25921,25932,25933,25936,25937,25946,25946,25950,25950,25962,25962,25966,25973,25973,25980,25988,25988,25996,25996,26004,26004,26013,26013,26018,26019,26019,26029,26029,26034,26035,26039,26040,26040,26048,26048,26048,26055,26055,26063,26063,26064,26071,26071,26071,26080,26080,26087,26087,26098,26099,26101,26101,26108,26108,26116,26123,26130,26139,26175" d="M91.5,174.70499C90.92533,173.14099 90.5,173.05765 90.5,173.99033C90.5,174.90498 90.5,175.80499 90.5,176.70499C90.5,177.50499 90.5,178.34099 90.5,179.35765C90.5,180.05232 90.5,181.06898 90.5,182.00949C90.5,182.87166 90.5,183.70499 90.5,184.68365C90.5,185.45766 90.5,186.35765 90.5,187.22099C90.5,188.20499 90.5,189.02632 90.5,189.87965C90.5,190.82098 90.5,191.58899 90.5,192.53032C90.5,193.53831 90.5,194.33032 90.5,195.35765C90.5,196.05232 90.5,197.07965 90.5,198.02632C90.5,198.70499 90.34506,199.86372 90.66666,200.70499C90.94739,201.43932 91.40612,202.24486 91.464,202.95566C91.52443,203.69786 91.33377,204.94894 91.72134,205.80499C92.02483,206.47533 92.48958,207.22565 92.5,208.18898C92.50934,209.05228 92.5,209.94781 92.5,210.90633C92.5,211.59032 92.44769,212.54977 92.58533,213.30632C92.76962,214.31918 93.28115,215.01559 93.464,216.06898C93.60711,216.89343 93.49934,217.80499 93.5,218.70499C93.50067,219.62231 93.90103,220.40074 94.14733,221.11398C94.48195,222.08298 94.49467,222.86894 94.5,223.81831C94.50528,224.75764 94.47463,225.70538 94.5,226.50499C94.52859,227.40634 95.12093,228.01453 95.41467,228.90633C95.71784,229.82678 95.5,230.70499 95.5,231.68332C95.5,232.53831 95.5,233.41483 95.5,234.22232C95.5,235.18416 95.5,236.00949 95.5,237.02649C95.5,237.72581 95.5,238.70499 95.5,239.49432C95.5,240.53831 95.5,241.29433 95.5,242.22581C95.5,243.19032 95.5,243.91565 95.5,244.90482C95.5,245.68416 95.5,246.68349 95.5,247.50365C95.5,248.40498 95.5,249.30499 95.5,250.20499C95.5,251.11565 95.5,252.02632 95.5,252.87965C95.5,253.81966 95.5,254.70499 95.5,255.46216C95.5,256.53033 95.5,257.22098 95.5,258.25833C95.5,259.15164 95.5,260.02649 95.5,260.91565C95.5,261.90466 95.5,262.66333 95.5,263.59515C95.5,264.40948 95.5,265.34097 95.5,266.189C95.5,267.05231 95.5,268.05832 95.5,268.87433C95.5,269.72583 95.52597,270.68387 95.5,271.50366C95.47141,272.40637 94.75995,273.078 94.5,273.99033C94.27676,274.7738 94.5,275.70499 94.5,276.62231C94.5,277.41483 94.5,278.22232 94.5,279.29431C94.5,280.18414 94.5,281.06216 94.5,281.905C94.5,282.80499 94.5,283.70499 94.5,284.50497C94.5,285.53833 94.50946,286.3157 94.5,287.20499C94.48958,288.1843 93.7252,288.6416 93.5045,289.40948C93.25713,290.27017 93.5,291.18414 93.5,292.13031C93.5,292.98898 93.49992,293.92633 93.5,294.79031C93.50008,295.70499 94.37867,295.70499 95.216,295.70499C96.07467,295.70499 96.88064,295.55396 97.55267,295.05765C98.24174,294.54874 99.14733,294.70499 100.07467,294.70499C100.92533,294.70499 101.85267,294.70499 102.784,294.70499C103.66666,294.70499 104.536,294.70499 105.44283,294.70499C106.33334,294.70499 106.61255,294.16571 107.3785,293.70499C108.06203,293.29382 108.98606,293.14658 109.5,292.53833C110.03835,291.90121 110.45728,291.70691 110.5,290.87164C110.54509,289.99014 110.71654,289.30826 111.216,288.62097C111.73281,287.90982 111.45848,286.96237 111.92533,286.27966C112.4548,285.5054 112.5,284.60516 112.5,283.75766C112.5,282.87164 112.5,282.00049 112.5,281.14099C112.5,280.26898 112.25713,279.27017 112.5045,278.40948C112.7252,277.6416 113.48958,277.18433 113.5,276.30499C113.51067,275.40506 113.22588,274.43454 113.58533,273.62097C113.92366,272.85522 114.48958,272.20517 114.5,271.30499C114.51036,270.40955 114.5,269.48349 114.5,268.60498C114.5,267.70499 114.5,266.905 114.5,266.00497C114.5,265.10498 114.5,264.20499 114.5,263.30499C114.5,262.405 114.41788,261.50119 114.50017,260.60498C114.58385,259.69354 115.30017,259.05237 115.47916,258.20499C115.66521,257.32419 115.5,256.40948 115.5,255.48349C115.5,254.60515 115.5,253.70499 115.5,252.90366C115.5,251.99033 115.5,251.09431 115.5,250.22581C115.5,249.26898 115.5,248.40498 115.5,247.50632C115.5,246.62099 115.72059,245.73831 116.07467,245.10498C116.55618,244.24373 116.5,243.30499 116.5,242.40498C116.5,241.50632 116.5,240.65231 116.5,239.73032C116.5,238.90366 116.5,237.99033 116.5,237.09431C116.5,236.20499 116.5,235.30499 116.5,234.40498C116.5,233.50499 116.5,232.60498 116.5,231.70499C116.5,230.90498 116.5,229.99033 116.5,229.09431C116.5,228.22581 116.7546,227.31136 116.4955,226.40948C116.27488,225.64157 115.51042,225.18434 115.5,224.31566C115.48845,223.3524 115.63573,222.40016 115.14733,221.75766C114.64176,221.09258 114.5,220.35233 114.5,219.42099C114.5,218.48366 114.5,217.65231 114.5,216.73032C114.5,215.82632 114.5,214.98898 114.5,214.09431C114.5,213.20499 114.5,212.31566 114.5,211.42099C114.5,210.48349 114.50008,209.60515 114.5,208.73032C114.49992,207.82632 113.76193,207.32132 113.5,206.48349C113.23791,205.64516 113.5,204.67966 113.5,203.78899C113.5,202.98898 113.5,202.09431 113.5,201.14099C113.5,200.26898 113.29509,199.28659 113.784,198.70366C114.29896,198.08966 114.5,197.42099 114.5,196.48366C114.5,195.61966 114.5,194.71565 114.5,195.58348C114.5,196.40948 114.5,197.30499 114.5,198.20499C114.5,199.10498 114.5,200.00499 114.5,200.90498C114.5,201.80499 114.5,202.70499 114.5,203.50499C114.5,204.40498 114.5,205.30499 114.5,206.18416C114.5,207.14099 114.63166,208.05505 114.27866,208.80499C113.91362,209.58052 113.50225,210.40497 113.5,211.30499C113.49775,212.20499 113.5,213.09431 113.5,213.99033C113.5,214.90366 113.5,215.75766 113.5,216.70499C113.5,217.50499 113.5,218.34782 113.5,219.22581C113.5,220.20499 113.5,221.09431 113.5,221.98898C113.5,222.87166 113.5,223.80482 113.5,224.65231C113.5,225.53831 113.5,226.35233 113.5,227.22581C113.5,228.18416 113.5,229.05765 113.5,229.98898C113.5,230.87166 113.5,231.75766 113.5,232.70499C113.5,233.53831 113.5,234.35233 113.5,235.27965C113.5,236.20499 113.5,237.05765 113.5,237.99033C113.5,238.90366 113.5,239.75766 113.5,240.65231C113.5,241.53831 113.5,242.40948 113.5,243.26898C113.5,244.14099 113.5,245.09431 113.5,245.98898C113.5,246.87166 113.5,247.75766 113.5,248.65231C113.5,249.53831 113.5,250.40948 113.5,251.26898C113.5,252.20499 113.5,253.05765 113.5,253.98898C113.5,254.87166 113.17985,255.81863 113.5045,256.65231C113.81213,257.44226 114.5,258.05765 114.5,258.92633C114.5,259.81482 114.5,260.70499 114.5,261.59515C114.5,262.40948 114.5,263.34781 114.5,264.20499C114.5,265.14099 114.5,266.00497 114.5,266.90366C114.5,267.789 114.5,268.70499 114.5,269.50497C114.5,270.405 114.5,271.30499 114.5,272.20499C114.5,273.09433 114.5,273.99033 114.5,274.905C114.5,275.80481 114.5,276.70499 114.5,277.50632C114.5,278.41965 114.5,279.35233 114.5,280.20499C114.5,281.13031 114.5,281.99033 114.5,282.90366C114.5,283.789 114.5,284.70499 114.5,285.58365C114.5,286.40948 114.5,287.34781 114.5,288.22583C114.5,289.10498 114.72012,290.07346 114.33334,290.87164C113.96729,291.62701 113.50533,292.30496 113.5,293.26898C113.49518,294.14099 113.5,295.00049 113.5,295.92648C113.5,296.80499 113.5,297.70499 113.5,298.50497C113.5,299.41965 113.20567,300.40472 113.5,301.20499C113.72659,301.82108 114.85267,301.70499 115.72134,301.70499C116.66666,301.70499 117.52084,301.70499 118.41467,301.70499C119.216,301.70499 119.86241,301.43762 120.5,300.87164C121.05281,300.38092 121.96575,300.19086 122.66666,299.53833C123.19462,299.04681 123.89597,298.51248 124.584,297.98898C125.1976,297.52213 125.93084,297.33734 126.72134,296.82648C127.42697,296.37045 128.62033,297.03732 129.33333,296.53833C130.0488,296.0376 130.673,295.80756 131.5,295.70499C132.39906,295.59348 132.71362,294.97015 133.37866,294.48364C134.07539,293.97394 134.32384,293.28925 134.85266,292.76215C135.37135,292.24512 135.42043,291.50275 135.5,290.62097C135.58368,289.69373 136.31973,289.1181 136.5,288.26898C136.67941,287.42383 136.5,286.50632 136.5,285.62097C136.5,284.70499 136.62761,283.92773 137,283.18414C137.46956,282.24652 137.49466,281.53036 137.5,280.45764C137.50458,279.53833 137.39696,278.67349 137.66667,277.87164C137.9507,277.02722 138.4485,276.22379 138.48933,275.53033C138.55238,274.45944 138.43834,273.53448 138.52083,272.70499C138.60455,271.86313 139.19527,271.11801 139.41467,270.21967C139.58768,269.51132 139.5,268.50516 139.5,267.72583C139.5,266.72632 139.5,265.82098 139.5,264.86899C139.5,264.10367 139.5,263.1095 139.5,262.36215C139.5,261.33032 139.5,260.38367 139.5,259.70499C139.5,258.72632 139.45906,257.81964 139.51067,256.86899C139.55234,256.10117 139.87514,255.11797 140.14734,254.36215C140.46976,253.4669 140.5,252.53831 140.5,251.70499C140.5,250.87166 140.5,249.95232 140.5,249.05232C140.5,248.18898 140.41386,247.29991 140.85266,246.40048C141.15306,245.78474 141.48199,244.88014 141.5,243.87166C141.51349,243.11577 141.40207,242.19855 141.51067,241.29433C141.62212,240.36627 142.11153,239.7411 142.37849,238.72649C142.58942,237.92485 142.40134,236.99651 142.52083,236.18416C142.66614,235.19632 143.18866,234.564 143.41467,233.58899C143.58914,232.83636 143.5,231.87965 143.5,230.87166C143.5,230.07965 143.49939,229.21965 143.5,228.30049C143.50067,227.30499 143.46165,226.48831 143.72133,225.50516C143.88063,224.90202 144.40652,223.88313 144.48933,223.11565C144.58926,222.18947 144.5,221.22099 144.5,220.53032C144.5,219.46216 144.41241,218.59026 144.58533,217.81966C144.76416,217.02266 145.23247,216.31953 145.41467,215.30499C145.5567,214.51416 145.5,213.50499 145.5,212.70499C145.5,211.70499 145.5,210.90498 145.5,210.10498C145.5,209.10498 145.5,208.30499 145.5,207.30365C145.5,206.46899 145.5,205.53831 145.5,204.75232C145.5,203.93031 145.5,202.87166 145.5,201.94098C145.5,201.10632 145.5,200.10048 145.5,199.46899C145.5,198.28366 145.5,197.47966 145.5,196.65765C145.5,195.62648 145.5,194.94098 145.5,194.10632C145.5,193.10498 145.5,192.30499 145.5,191.30499C145.5,190.50499 145.5665,189.50052 145.47917,188.72581C145.36499,187.71281 144.74205,186.98137 144.55716,186.05232C144.42117,185.36906 144.5,184.34099 144.4955,183.40498L144.27867,182.60515L143.66667,181.87166L143.07466,181.27965" id="svg_17" stroke-width="3" stroke="#000" fill="none"/>
  <path t="27264,27299,27419,27435,27446,27451,27463,27465,27474,27480,27487,27487,27498,27498,27503,27515,27517,27517,27517,27528,27534,27539,27549,27549,27555,27564,27569,27581,27585,27595,27601,27607,27623,27631,27779,27787,27796,27796,27803,27814,27814,27814,27817,27817,27828,27828,27834,27834,27834,27840,27840,27850,27850,27850,27857,27857,27857,27875,27875,27883,27883,27883,27886,27886,27895,27895,27899,27911,27917,27937,27954,28013,28037,28050,28057,28066,28073,28087,28098,28103" d="M135.5,289.70499C133.66667,289.70499 134.24854,290.09174 135.07466,289.66898C135.76549,289.31546 136.30133,288.70566 137.2,288.70499C138.10001,288.70432 139,288.70493 139.91066,288.70499C140.82133,288.70508 141.72249,288.60284 142.61467,288.98898C143.24342,289.26111 144.13829,289.6622 144.91066,290.14099C145.71233,290.63794 146.34239,291.07687 147.01601,291.50497C147.88756,292.0589 148.8054,292.31308 149.416,292.99033C149.99849,293.63641 150.21747,294.31876 151.10001,294.73032C151.90198,295.10431 152.4657,295.86993 153.2045,296.35233C153.93311,296.82806 154.80933,297.04288 155.47467,297.67966C156.08769,298.26636 157.35199,298.41638 157.47917,299.20499C157.57532,299.80112 156.55553,300.35391 155.79016,300.65231C155.02713,300.9498 154.1454,301.17029 153.33333,301.70499C152.68971,302.12875 152.00894,302.54358 151.11467,303.09433C150.54546,303.44489 149.48874,303.63922 148.71466,303.73032C147.66443,303.85391 146.9445,304.03256 146.10451,304.40948C145.28668,304.77646 144.52617,305.2692 143.5,305.53833C142.70403,305.7471 142.03548,305.72 141.07883,305.92633C140.27795,306.09906 139.52158,306.40439 138.30083,306.65231C137.64262,306.78598 136.73532,306.92337 135.82401,307.13031C135.17552,307.27756 133.98701,307.4787 133.20799,307.67966C132.27916,307.91925 131.73138,308.55682 130.8,308.7005C129.91051,308.83771 128.93294,308.70233 128.5,309.20499C128.07161,309.70236 127.59864,309.41577 127.5,308.48364C127.41621,307.69177 126.80488,307.33994 126.41467,306.62097C125.98876,305.83627 124.97916,305.70499 124.1,305.70499L123.2,305.70499" id="svg_18" stroke-width="3" stroke="#000" fill="none"/>
  <path t="28567,28657,28673,28683,28687,28697,28703,28703,28716,28718,28726,28726,28734,28741,28741,28748,28748,28755,28765,28771,28779,28796,28807,28816,28837" d="M97.5,291.70499C98.5,293.27966 98.93015,294.01297 99.37867,294.80481C99.79803,295.54517 100.28558,296.14694 100.78533,296.90366C101.18748,297.51257 102.21167,297.58817 103.136,297.741C104.00768,297.88513 104.6395,298.39999 105.61467,298.61966C106.48236,298.81512 107.38533,298.70499 108.32533,298.70499C109.016,298.70499 110.16211,299.0372 110.97916,298.68414C111.69318,298.37558 112.216,297.70633 112.92533,297.27966L113.58533,296.61966L114.14733,296.05765L115,295.70499" id="svg_19" stroke-width="3" stroke="#000" fill="none"/>
 </g>
</svg>