<svg width="500.00000000000006" height="332.409972299169" xmlns="http://www.w3.org/2000/svg" xmlns:svg="http://www.w3.org/2000/svg" xmlns:xlink="http://www.w3.org/1999/xlink">
 <!-- Created with SVG-edit - http://svg-edit.googlecode.com/ -->
 <g display="inline" class="layer">
  <title>Layer 1</title>
  <path t="0,304,341,624,737,807,823,859,874,923,941,957,1008,1051,1051,1091,1249,1284,1284,1324,1324,1364,1364,1404,1436,1436,1490,1588,1588,1657,1657,1673,1673,1706,1713,1741,2150,2195,2235,2323,2323,2355,2455,2455,2523,2523,2627,2627,2667,2755,2755,2824,2824,2858,2924,2924,3020,3020,3121,3121,3163,3271,3271,3324,3355,3355,3455,3471,3619,3894,3909,3989,4005,4075,4091,4140,4226,4292,4307,4420,4420,4570,4611,4894,4957,4979,4979,5025,5294,5310,5440,5440,5705" d="M278.5,159.70499C276.79999,158.76665 276.07764,159.39119 275.20001,159.64783C274.33441,159.90096 273.26785,159.46075 272.58401,159.98898C271.95651,160.47369 271.14984,160.63194 270.52533,161.13033C269.91736,161.61551 269.05545,161.60951 268.29999,161.98898C267.4328,162.42456 266.66888,162.52031 265.79999,162.76215C265.02893,162.97675 264.18372,163.63393 263.32535,163.69432C262.38626,163.76039 261.616,163.70499 260.67465,163.70499C259.98401,163.70499 258.87421,163.73204 258.01599,163.70366C257.15134,163.67506 256.3175,163.24046 255.5,162.87166C254.78143,162.54749 253.82419,162.39072 253.15266,162.00049C252.22607,161.46204 252.11665,160.68536 251.416,159.99033C250.86827,159.44698 249.37088,159.54094 249.72133,158.82632C250.10309,158.04787 250.96645,157.7937 251.8045,157.35233C252.41069,157.03307 253.36124,156.86687 254.33333,156.53831C255.03944,156.29965 255.81628,155.77605 256.67465,155.71565C257.61374,155.64957 258.384,155.70499 259.32535,155.70499C260.33334,155.70499 261.12534,155.70499 262.15268,155.70499C262.84732,155.70499 263.87466,155.70499 264.82132,155.70499C265.5,155.70499 266.47867,155.70499 267.384,155.70499C268.32535,155.70499 269.01599,155.70499 270,155.70499C270.98401,155.70499 271.85446,155.5966 272.74283,155.70949C273.61996,155.82094 274.26959,156.53566 275.10001,156.69432C276.04797,156.87544 276.58737,157.40881 277.35068,157.67966C278.23593,157.99376 278.58868,158.80937 278.5,159.70499C278.41626,160.55067 277.67908,161.00571 277.49985,161.80482C277.31094,162.6472 276.29999,162.70499 275.39999,162.70499C274.5,162.70499 273.69983,162.687 272.79999,162.70499C271.89944,162.72299 271.18207,163.29413 270.39999,163.58348C269.54825,163.89861 268.69958,163.67773 267.79999,163.70499C266.85587,163.73358 266.33334,164.53831 265.5,164.70499L264.70001,164.79031L264,165.20499" id="svg_1" stroke-width="3" stroke="#000" fill="none"/>
  <path t="15174,15499,15532,15571,15835,15867,15875,15875,15890,15890,15915,16052,16083,16099,16283,16299,16299,16324,16470,16540,16593,16640,16657,16822,16822,16867,16891,16891,17004,17051,17157,17157,17190,17190,17368,17411,17443,17616,17674,17757,17871,17987,17987,18019,18040,18067,18296,18340,18427,18427,18443,18443,18545,18545,18945,18977,20274,20274,20306,20347,20688,20790,20790,20835,20859,20891,20924,20971,21477,21515,21683,21683,21747,21747,21854,21985,21985,22307,22339,22339,22340,22502,22502,22589,22589,22627,22854,22854,23142,23142,23142,23318,23318,23577,23577" d="M153.5,118.70499C153.5,116.90498 153.5,116.10499 153.5,115.20499C153.5,114.30499 153.5,113.40049 153.5,112.38365C153.5,111.70499 153.5,110.72649 153.5,109.90632C153.5,109.00499 153.5,108.10499 153.5,107.20499C153.5,106.30499 153.36345,105.34835 153.784,104.50499C154.11392,103.84334 154.55171,103.00445 155,102.20499C155.44637,101.40895 156.03915,100.82925 156.5,100.18415C156.99825,99.48671 157.49966,98.70466 158.10001,98.10499C158.69968,97.50599 159.52629,96.94254 160.2,96.65232C161.04179,96.2897 161.80309,95.73359 162.66667,95.70499C163.49954,95.67741 164.4785,95.70499 165.29866,95.70499C166.2,95.70499 167.10001,95.70499 168,95.70499C168.89999,95.70499 169.8,95.7049 170.7,95.70499C171.60001,95.70507 172.46667,95.92558 173.10001,96.27966C173.96126,96.76116 174.89702,96.70621 175.5,97.20499C176.15587,97.74751 176.82971,98.20828 177.33333,99.03832C177.69789,99.63918 177.41534,100.83533 177.58533,101.58899C177.76437,102.38287 178.19139,103.22889 178.47467,104.06898C178.75949,104.91365 179.37729,105.69714 179.49867,106.50499C179.63518,107.41355 180.35159,107.71737 181,108.22582C181.76674,108.82707 182.35114,109.47331 182.4955,110.40498C182.63332,111.29438 182.79764,112.26006 182.48933,113.09432C182.2135,113.84071 180.98906,113.93517 180.62151,114.80499C180.26801,115.64153 180.5,116.46215 180.5,117.35765C180.5,118.22099 180.5,119.20499 180.5,120.18899C180.5,120.87965 180.51465,121.95243 180.5,122.87165C180.48933,123.54124 180.4257,124.36499 179.79016,125.30048C179.37367,125.91354 178.46298,126.63319 178.04167,127.18415C177.4599,127.94498 177.06108,128.811 176.45833,129.22581C175.50633,129.88097 174.91959,130.3712 174.336,130.84366C173.54109,131.4872 172.74733,131.69598 171.84734,131.70499L170.98399,131.70499" id="svg_2" stroke-width="3" stroke="#000" fill="none"/>
  <path t="26452,26655,26675,26691,26773,26789,26789,26834,26835,26937,26970,26989,27006,27479" d="M171.5,133.70499C172.07466,135.30499 172.54147,136.1436 173.07466,136.73032C173.60547,137.31441 174.07376,138.1842 174.5,138.70499C175.17592,139.53084 175.32213,140.31528 175.52083,141.20499C175.70961,142.05026 176.37849,142.80499 176.5,143.70499L176.66667,144.53831" id="svg_3" stroke-width="3" stroke="#000" fill="none"/>
  <path t="29378,29524,29524,29539,29539,29555,29556,29572,29572,29611,29611,29651,29673,29747,29747,29789,29789,29827,29906,29938,29957,29957,29973,30011,30035,30057,30057,30123" d="M152.5,116.70499C151.84317,117.14782 152.07301,117.9693 152.82117,118.68349C153.41924,119.25441 154.05933,119.79505 154.66251,120.40498C155.2614,121.01057 156.31699,121.16123 157,121.70499C157.65868,122.22935 158.35562,122.71343 159.064,123.27966C159.78445,123.85554 160.3727,124.47369 161.15266,124.65232C162.0047,124.84746 162.89339,125.113 163.416,125.90366C163.89516,126.62859 164.65233,127.06441 165.3,127.42099C166.16367,127.89648 166.66667,128.53831 167.416,128.99033L167.7215,129.80499L168.2045,130.40498L168.89999,131.09431" id="svg_4" stroke-width="3" stroke="#000" fill="none"/>
  <path t="32309,32703,32739,32790,32841,32841,32856,33110,33252,33918,34177,34445,34445,34491,34491,34681,34681,34697,34981,35118,35252,35252,35416,35451,35769,35769,35827,36146,36146,36237,36237,36619,36659,36683,36998,37035,37035,37106,37121" d="M156.5,108.70499C157.11067,109.27966 157.85832,109.71935 158.52083,110.20499C159.18141,110.68921 160.12424,110.28114 161.05333,110.74099C161.71982,111.07086 161.82851,112.30316 162.7,112.61965C163.54973,112.92825 164.4648,112.47738 165.136,112.13032C165.94843,111.71024 166.93817,111.72101 167.61467,111.13699C168.18275,110.64655 168.79457,109.7621 169.7,109.70499C170.59805,109.64834 171.40668,110.02811 171.48933,110.89032C171.5779,111.81413 171.21764,112.66227 170.29866,112.70499C169.6154,112.73674 168.67467,112.70499 167.66667,112.70499C166.87466,112.70499 165.84732,112.70867 165.15266,112.70499C164.14662,112.69965 163.37073,112.173 163.51067,111.30499C163.6451,110.47117 164.5,109.87165 165.3,109.70632L166.2,109.70499L167.10001,109.70499" id="svg_5" stroke-width="3" stroke="#000" fill="none"/>
  <path t="39341,39573,39590,39612,40153,40224,40224,40400,40521,40667,40690,40715,40763,40823,40840,40840,40875,40988,41041,41056,41138,41455,41586,41619,41721,41721" d="M176.5,109.70499C178.3,109.70499 179.2,109.70499 180.10001,109.70499C180.95833,109.70499 180.5,109.70499 179.7,109.70499C178.8,109.70499 177.87997,109.70228 177.10001,110.13032C176.27826,110.58128 175.34311,111.07528 175.50133,111.90366C175.65683,112.71786 176.63835,113.09106 177.3,113.42099C178.14336,113.84153 179.10001,113.70499 180,113.70499C180.89999,113.70499 182.07413,113.96259 182.464,113.26899C182.9313,112.43765 182.05333,111.73032 181.17867,111.48365L180.32533,111.13032" id="svg_6" stroke-width="3" stroke="#000" fill="none"/>
  <path t="45952,46692,46707,46707,46739,46739" d="M174.5,115.70499C174.38567,116.46665 173.93201,117.18899 173.35066,117.87965L172.743,118.68349L172.509,119.40049" id="svg_7" stroke-width="3" stroke="#000" fill="none"/>
  <path t="49371,49683,49683,49899,49957,50024" d="M174.5,123.70499C173.5,124.70499 172.7,124.70499 171.8,124.70499L170.936,124.66898L170.47467,124.05832" id="svg_8" stroke-width="3" stroke="#000" fill="none"/>
  <path t="53128,53517,53533,53622,53622,53637,53675,53707,53755,53755,53787,53811,53835,54002,54002,54018,54018,54073,54115,54132,54140,54172,54172,54239,54275,54370,54403,54423,54443,54444,54483,54588,54606,54627,54643,54643,54659,54659,54675,54699,54699,54756,54787,54787,54805,54822,54822,54839,54905,54905,54939,54939,54963,54994,54995,55027,55027,55039,55039,55055,55122,55138,55138,55187,55227,55267,55267,55323,55323,55347,55348,55469,55484,55484,55531,55531,55577,55577,55593,55619,55619,55659,55706,55738,55738,55867,55908,56300,56300,56316" d="M150.5,118.70499C149.02083,120.20499 148.73486,121.09666 148.21466,121.90366C147.81929,122.517 146.95238,122.91977 146.33333,123.53832C145.71349,124.15767 145.16,124.69621 144.5,125.20499C143.73495,125.79475 143.16695,126.44595 142.54817,127.06216C141.91722,127.69048 141.44135,128.14819 140.66667,128.70499C139.90562,129.25198 139.51801,130.10445 139.5,131.00499C139.48201,131.9048 139.71065,132.87111 139.33333,133.70499C139.03741,134.35895 137.78648,134.56926 137.51067,135.31566C137.20238,136.1499 137.61649,137.11314 137.4955,138.00499C137.38408,138.82634 136.65414,139.47185 136.51067,140.30499C136.35791,141.19199 136.50008,142.10498 136.5,143.00949C136.49991,144.02632 136.68303,144.77022 136.2785,145.68332C135.94724,146.43109 134.77831,146.69707 134.55716,147.41483C134.31883,148.18837 134.54591,149.22531 134.216,150.18898C133.9733,150.89793 133.54271,151.81657 133.5,152.70499C133.46158,153.50407 133.42697,154.44833 132.79466,155.00949C132.23886,155.50275 131.65401,156.3692 131.45183,157.05232C131.14125,158.1017 130.60298,158.86299 130.52083,159.70499C130.42577,160.67924 130.54381,161.45895 130.4955,162.35315C130.45306,163.13867 129.73457,163.66312 129,164.22581C128.22649,164.81834 127.65472,165.47151 127.51067,166.30499C127.35382,167.21242 127.58005,168.19792 127.464,168.87965C127.27631,169.98222 126.73129,170.57607 126.52533,171.53032C126.37779,172.21385 125.94478,173.18156 125.5,173.87166C124.97924,174.67964 124.59402,175.52742 124.51067,176.33032C124.42199,177.18445 124.75034,178.08907 124.47867,179.06898C124.25209,179.88623 123.11939,180.11693 122.67067,180.90498C122.2174,181.70103 122.5,182.70499 122.5,183.50499C122.5,184.40498 122.5,185.22581 122.5,186.18898L122.5,187.05232L122.5,187.95232" id="svg_9" stroke-width="3" stroke="#000" fill="none"/>
  <path t="58235,58372,58389,58406,58427,58427,58443,58444,58552,58552,58607,58607,58657,58673,58715,58771,58955,58955,58972,58972,59070,59312,59327,59356,59372,59372,59389,59389,59406,59406,59427,59428,59451,59472,59472,59499,59507,59522,59522,59547,59571,59623,59656,59683,59699,59715,59739,59779,59779,59819,59819,59839,59859,59891,59922,59939,59956,59972,59972,59995,60019,60051,60072,60099,60115,60157,60211" d="M122.5,184.70499C122.5,186.50499 122.5,187.40498 122.5,188.22581C122.5,189.19032 122.5,189.91565 122.5,190.90482C122.5,191.68416 122.5,192.68365 122.5,193.58899C122.5,194.53032 122.5,195.22099 122.5,196.29433C122.5,197.20499 122.5,198.10498 122.5,198.90633C122.5,199.87166 122.46128,200.70576 122.50017,201.68349C122.52876,202.40218 122.95351,203.23299 123.44733,204.00049C123.89539,204.69685 124.80462,204.72037 125.82133,204.70482C126.50024,204.69443 127.49058,204.50262 128.12534,204.09431C129.00121,203.5309 129.70871,203.15594 130.4785,202.60498C131.12041,202.14555 131.69742,201.23923 132.5,200.87166C133.24272,200.53151 134.2711,200.99092 135.10001,200.63298C135.96664,200.25874 136.03304,199.12801 137,198.74666C137.82875,198.41982 138.37392,197.9794 139.11067,197.71565C139.94803,197.41589 140.89999,197.70499 141.8,197.70499C142.70134,197.70499 143.66667,197.70499 144.5,197.70499C145.33333,197.70499 146.1955,197.70499 147.10001,197.70499C148,197.70499 148.89999,197.70499 149.8,197.70499C150.7,197.70499 151.60001,197.70499 152.5,197.70499C153.3,197.70499 154.2,197.70499 155.10001,197.70499C156,197.70499 156.89999,197.71565 157.7,197.98898L158.5,198.53831L159.33333,198.87166L159.78534,199.61966" id="svg_10" stroke-width="3" stroke="#000" fill="none"/>
  <path t="63730,64171,64186,64186,64583,64640,64675,64691,64715,64747,64771,64771,64811,64851,64938,65006,65021,65039,65059,65106,65106,65156,65187,65205,65272,65272,65288,65315,65544,65544,65560,65622,65638,65691,65691,65731,65731,65739,65771,65803,65835,65859,66083,66107,66156,66206,66206,67145,67145,67363,67407,67465,67586,67586,67619,67619,67769,67785,67785,68224,68240,68305,68402,68456,68472,68491,68515,68515,68698,68713,68713,68713,68787,68787,68820,68820,68851,68884,68915,68915,69689,69722,69722,69739,69739,69764" d="M159.5,197.70499C161.32533,197.71565 162.32393,197.88959 163.08934,198.27965C163.89059,198.68797 165.06891,198.95963 165.464,198.26898C165.8934,197.51837 165.5,196.50499 165.5,195.60498C165.5,194.70499 165.5,193.90498 165.5,193.00499C165.5,192.10498 165.4471,191.17024 165.85266,190.40498C166.30096,189.5591 166.12321,188.52501 166.66667,187.87166C167.24063,187.18164 168.25546,187.16061 168.47917,186.20499C168.68437,185.32845 168.34511,184.34351 168.7215,183.60498C169.07124,182.91872 170.00549,182.37036 170.416,181.50499C170.77531,180.74753 171.30019,180.05238 171.47917,179.20499C171.66522,178.32419 171.42152,177.38065 171.66667,176.53831C171.91748,175.67654 172.4119,174.88278 172.4955,174.00949C172.58171,173.10909 172.62654,172.32327 173.14734,171.65231C173.60045,171.06856 173.49805,170.08537 173.92534,169.30499C174.37572,168.48242 174.53391,167.60434 174.5,166.70499C174.47141,165.9462 174.11699,165.06442 173.85266,164.35765C173.48209,163.36678 172.96504,162.85443 172.10001,162.69432C171.26704,162.54015 170.64034,161.86131 169.84734,161.40948C169.17252,161.02499 168.08684,160.83987 167.3,160.42099C166.64737,160.07355 165.66223,159.82828 165.02083,159.18416C164.38106,158.54167 164.37599,157.49638 164.50017,156.60515C164.61189,155.80328 165.34726,155.30058 165.784,154.50499C166.13977,153.85687 166.47964,153.01421 167.07066,152.22099C167.4881,151.66075 168.07285,151.14638 169.0955,150.46216C169.64885,150.09193 170.63177,149.5242 171.1955,149.00499C171.81966,148.43011 172.65054,147.95226 173.5,147.53831C174.15225,147.22047 175.01901,146.8549 175.7,146.13565C176.20497,145.60229 176.60001,144.72649 177.10001,144.11565L177.8,143.40948" id="svg_11" stroke-width="3" stroke="#000" fill="none"/>
  <path t="71246,71401,71439,71439,71439,71467,71467,71467,71507,71525,71572,71619,71651,71651,71706,71787,71805,71822,71822,71867,71891" d="M164.5,157.70499C163.88933,157.02232 163.38817,156.16698 163.10001,155.44365C162.78708,154.65817 162.39993,153.62675 162.11067,152.95166C161.78508,152.19176 161.74432,151.19266 161.5,150.31566C161.30969,149.63258 160.53708,149.25827 160.49983,148.38382C160.46501,147.56627 159.95232,146.77733 159.2,146.35233C158.36647,145.88144 157.5,145.70499 156.78534,145.53432L156.5,144.70499L156.14284,143.81482" id="svg_12" stroke-width="3" stroke="#000" fill="none"/>
  <path t="74151,74506,74573,74573,74605,74621,74643,74667,74769,74869,74907,74921,75004,75004,75022,75038,75059,75059,75083,75105,75105,75172,75172,75187,75219,75267,75288,75305,75323,75323,75363,75403,75472,75487,75507,75634,75650,75672,75672,75737,75752,75752,75779,75795,75886,75886,75905,75921,75947,75971,76021,76074,76115,76171,76332,76388,76388,76441,76457,77165,77197,77197,77235,77367,77453,77453,77492,77523,77885,77885,77900,77935,77954,77954,77979,78022,78022,78051,78072,78138,78154,78299,78331,78331,78437,78471,78602,78687,78730,78755,78838,78838,78853,79015,79047,79059,79059,79071,79153,79187,79304,79355,79379,79454,79506,79506,79563,79563,79595,79670,79670,79715,79836,79836,79876,79876,79969,79969,80038,80089,80089,80121,80171,80171,80224,80271,80322,80322,80338,80421,80436,80467,80507,80507,80531,80572,80572,80623,80671,80672,80699,80819,80851,80851,80883,80907,80931,80932,81073,81073,81105,81122,81204,81220,81288,81345,81422,81422,81456,81521,81521,81604,81636,81675,81688,81731,81755,81756,81806,81856,81922,81964,81980,82004" d="M174.5,164.70499C175.7215,165.58365 176.5569,165.99469 177.2,166.35233C178.05312,166.82675 178.87534,167.17087 179.59984,167.58365C180.39162,168.03476 180.85587,168.67639 181.8,168.70499C182.69958,168.73222 183.65347,168.52365 184.5,168.87166C185.17108,169.14755 185.90511,169.6053 186.8045,169.70949C187.67596,169.81044 188.56262,170.12794 189.25734,170.80482C189.92531,171.45566 190.5663,171.56026 191.4785,171.92632C192.25252,172.23692 192.99982,172.69456 193.89999,172.70499C194.79994,172.71539 195.7,172.70499 196.60001,172.70499C197.5,172.70499 198.3,172.70499 199.2,172.70499C200.10001,172.70499 201,172.70499 201.89999,172.70499C202.8,172.70499 203.7,172.70499 204.60001,172.70499C205.5,172.70499 206.35506,172.7148 207.10001,173.31566C207.75461,173.84366 208.23196,174.58301 209,175.18416C209.64975,175.69272 210.74249,175.8054 211.21466,176.50632C211.69345,177.21706 211.91646,178.12381 212.69867,178.62099C213.43011,179.08591 214.03845,179.58122 214.5,180.22581C214.99663,180.91939 215.8055,181.31299 216.416,181.99033C216.99847,182.63657 216.93253,183.53552 217.52533,184.26898C218.05128,184.91971 218.98029,185.24678 219.7,185.90366C220.2845,186.43713 221.10751,186.80191 222.02083,186.68416C222.83929,186.57863 223.68002,186.14471 224.61333,185.78899C225.38344,185.49547 225.97832,184.94542 226.64934,184.67966C227.53136,184.33034 227.5,183.29433 227.5,182.38365C227.5,181.53032 227.54701,180.58907 227.5,179.70499C227.45728,178.90158 227.01746,178.05109 226.52533,177.31566C226.07733,176.64618 225.66141,175.95915 225.05333,175.31566C224.47235,174.70084 223.21567,175.11444 222.61433,174.34782C222.08939,173.67859 222.38914,172.59813 222.5,171.70499C222.6116,170.80589 223.60001,170.70499 224.5,170.70499C225.3,170.70499 226.20024,170.7258 227.10001,170.70499C228.00072,170.68414 228.65724,170.10513 229.10001,169.55565C229.73758,168.76442 230.37624,168.16653 231.02083,167.70499C231.7144,167.20836 232.5287,166.61269 232.5,165.70499C232.47314,164.85558 231.5,164.70499 230.74283,164.70499C229.67467,164.70499 228.98399,164.70499 228,164.70499C227.01601,164.70499 226.32533,164.70499 225.25267,164.70499C224.33333,164.70499 223.5,164.70499 222.52133,164.70499C221.74733,164.70499 220.84734,164.70499 219.98399,164.70499C219.12534,164.70499 218.17867,164.70499 217.32533,164.70499C216.38533,164.70499 215.4996,164.73035 214.7,164.70499C213.79865,164.67639 213.01971,164.16319 212.3,163.50632C211.7155,162.97284 210.88222,162.71339 210.10001,162.27965C209.27986,161.82486 208.33388,161.91563 207.5,161.53831C206.84604,161.2424 206.57567,160.0318 205.79016,159.76215C205.0246,159.49933 203.9998,159.72289 203.17883,159.70482C202.36075,159.68681 201.63826,158.97809 200.85333,158.71565C200.05916,158.45012 199.15266,158.70561 198.25717,158.70499C197.29866,158.70432 196.30472,158.59882 195.68533,158.26898C194.78348,157.78873 194.45267,156.87546 193.69867,156.70631C192.81995,156.50919 192.07764,156.01878 191.2,155.76215C190.33444,155.50903 189.39999,155.70499 188.5,155.70499C187.7,155.70499 186.74115,155.64497 186.2,154.99965C185.63322,154.32376 184.9816,153.8828 184.10001,153.69432C183.15848,153.49304 182.30132,153.17296 181.66667,152.53831C181.03203,151.90367 180.70561,151.21367 180.02083,150.70499C179.32658,150.18927 178.784,149.62099 178.416,148.90366L177.88933,148.14099L177.11067,147.73032" id="svg_13" stroke-width="3" stroke="#000" fill="none"/>
  <path t="86372,86721,86771,86771,86795,86818,86889,86904,86939,86939,87010,87010,87045,87072,87108,87108,87131,87164,87195,87195,87220,87337,87337,87370,87371,87388,87411,87487,87531,87579,87580,87654,87654,87654,87669,87669,87731,87732,87788,87788,87805,87805,87835,87859,87883,87905,87956,87987,88005,88055,88099,88099,88121,88138,88138,88163,88195,88211,88235,88255,88255,88271,88288,88288,88307,88323,88452,88693,88693,88740,88756,88772,88796,88811,88835,88836,88855,88883,88905,88922,88938,88956,88972,88988,89019,89055,89055,89076,89076,89092,89092,89138,89180,89196,89196,89219,89238,89267,89315,89316,89373,89423,89423,89483,89523,89547,89563,89579,89603,89621,89643,89659,89671,89688,89715,89750,89771,89803,89827,89838,89855,89883,89915,89938,89955,89955,89971,89988,90005,90021,90055,90055,90071,90088,90089,90115,90138,90155,90171,90188,90211,90221,90267,90267,90288,90315,90331,90355,90395,90455,90488,90523,90523,90571,90588,90605,90656,90691,90715,90771,90822,90822,90889,90932" d="M124.5,203.70499C124.5,204.72581 124.5,205.68349 124.5,206.50365C124.5,207.40498 124.5,208.30499 124.5,209.20499C124.5,210.11565 124.40841,211.03516 124.536,211.87965C124.68124,212.84091 125.34597,213.47054 125.48933,214.30499C125.64526,215.21259 125.49854,216.18898 125.5,216.87965C125.50225,217.94331 126.07371,218.51215 126.41467,219.27432C126.73591,219.9924 126.48567,221.07976 126.50017,222.02632C126.51057,222.70522 126.78548,223.64908 127.14733,224.40048C127.56689,225.27173 127.33277,226.31424 127.85717,227.00049C128.43056,227.75085 129.31342,228.04388 129.52083,228.74666C129.80615,229.71342 130.25047,230.27364 130.79466,231.10498C131.30069,231.87802 131.33067,232.73236 131.7215,233.68365C132.0083,234.38177 132.7384,235.16939 133.064,235.87965C133.42371,236.66437 133.61658,237.48459 134.07466,238.30499C134.50606,239.07761 134.9389,239.7626 135.55267,240.35233C136.16133,240.93713 136.39777,241.73108 136.50017,242.68332C136.59331,243.54938 137.3992,244.02759 137.47917,244.72581C137.60367,245.81274 137.47464,246.70538 137.5,247.50499C137.52859,248.40634 138.18555,249.12755 138.44284,250.00499C138.69661,250.87044 138.7455,251.65694 139.14734,252.40498C139.56631,253.18494 139.28369,254.23332 139.55716,254.99515C139.85797,255.83313 140.7422,256.14386 141.33333,256.87164C141.8992,257.56833 142.04437,258.46042 143,258.68414C143.87654,258.88934 144.8,258.70499 145.7,258.70499C146.60001,258.70499 147.5,258.70499 148.3,258.70499C149.2,258.70499 150.10001,258.70499 151,258.70499C151.89999,258.70499 152.85017,258.77805 153.47467,258.27966C154.08263,257.79446 154.89999,257.70499 155.8045,257.70499C156.66667,257.70499 157.50514,257.80481 158.4785,257.70465C159.31175,257.6189 159.78946,256.76013 160.3,256.27298C161.06651,255.5416 162.02142,255.73752 162.98267,255.70366C163.79158,255.67517 164.355,254.98369 164.936,254.31566C165.47731,253.6933 166.53346,253.58029 167.10001,253.09431C167.84325,252.45676 168.41496,251.71759 168.49867,250.90498C168.59088,250.00972 168.50957,249.10493 168.5,248.20499C168.48958,247.22565 167.72522,246.76839 167.5045,246.00049C167.25713,245.13982 167.5,244.20499 167.5,243.30499C167.5,242.40498 167.65935,241.4071 167.14734,240.75766C166.66278,240.14304 166.5,239.40498 166.5,238.50499C166.5,237.60498 166.82237,236.55119 166.27867,235.82632C165.79636,235.1833 165.5,234.50499 165.5,233.60498C165.5,232.70499 165.5,231.90498 165.5,231.00499C165.5,230.10498 165.5,229.20499 165.5,228.29433C165.5,227.38365 165.5,226.53032 165.5,225.59032C165.5,224.70499 165.5,223.90498 165.5,223.00499C165.5,222.10498 165.5,221.20499 165.5,220.30499C165.5,219.40498 165.5,218.50499 165.5,217.60498C165.5,216.70499 165.5,215.90498 165.5,215.00499C165.5,214.10498 165.5,213.20499 165.5,212.30499C165.5,211.40498 165.5,210.50499 165.5,209.60498C165.5,208.70499 165.39392,207.91687 165,207.20499C164.50975,206.31902 164.57878,205.35019 164.07466,204.73032C163.57445,204.11525 162.95682,203.50168 162.62151,202.60498C162.30342,201.75435 162.5,200.90498 162.5,200.00499L162.5,199.10498" id="svg_14" stroke-width="3" stroke="#000" fill="none"/>
  <path t="92834,93091,93091,93121,93171,93171,93188,93205,93205,93221,93221,93303,93303,93337,93354,93371,93388,93404,93421,93437,93438,93459,93459,93475,93490,93507,93523,93536,93553,93554,93571,93611,93611,93655,93832" d="M146.5,260.70499C146.5,261.70499 146.5,262.50497 146.5,263.46216C146.5,264.35767 146.5,265.05231 146.5,266.07965C146.5,267.02649 146.5,267.91565 146.5,268.90482C146.5,269.68414 146.5,270.53833 146.5,271.40048C146.5,272.30499 146.5,273.20499 146.5,274.10498C146.5,275.00497 146.5,275.905 146.5,276.80499C146.5,277.70499 146.5,278.46216 146.5,279.35767C146.5,280.22098 146.5,281.18414 146.5,282.10498C146.5,283.00497 146.5,283.905 146.5,284.80499C146.5,285.70499 146.5,286.50497 146.5,287.46216C146.5,288.35767 146.5,289.05231 146.5,290.069L146.5,291.00497" id="svg_15" stroke-width="3" stroke="#000" fill="none"/>
  <path t="94668,94834,94854,94854,94871,94887,94887,94904,94904,94921,94921,94937,94937,94954,94954,94954,94971,94971,94971,94987,94987,94987,95004,95004,95021,95043,95043,95059,95059,95059,95071,95087,95087,95104,95121,95137,95163,95171,95187,95204,95221,95236,95322" d="M164.5,254.70499C164.5,257.33032 164.5,258.189 164.5,259.05231C164.5,259.95233 164.50008,260.87164 164.5,261.70499C164.49991,262.68365 164.46976,263.46689 164.14734,264.36215C163.87514,265.11798 163.6071,266.10849 163.47467,266.905C163.30751,267.9104 163.05635,268.51251 162.69867,269.39032C162.29263,270.38681 162.0717,270.93054 161.85716,271.80948C161.5683,272.99295 161.58565,273.5997 161.47467,274.43298C161.32339,275.56885 160.84741,276.25052 160.52533,277.11566C160.19608,278.00003 159.98187,278.72714 159.5,279.70499C159.20615,280.3013 158.87762,281.05469 158.52533,282.069C158.23286,282.91104 157.85132,283.53311 157.44733,284.405C157.062,285.23663 156.52859,286.00345 156.5,286.80499C156.46791,287.70441 156.27867,288.58365 155.58533,288.99033L155.5,289.905L155.49983,290.80481L155.216,291.62097" id="svg_16" stroke-width="3" stroke="#000" fill="none"/>
  <path t="96185,96259,96259,96305,96305,96321,96355,96561,96561,96611,96612,96638,96655,96675,96676,96802,96856,96888,96905,96920,96947,96947,97005,97247,97279,97288,97305,97323,97339,97355,97371,97388,97388,97405,97421,97467" d="M146.5,285.70499C145.64934,285.61298 144.9473,286.25937 144.67067,287.10367C144.37244,288.01395 144.5616,288.98462 144.07466,289.69031C143.64185,290.31757 143.46587,291.14066 143.78534,292.10233C144.03749,292.86136 144.68797,293.61929 145.60001,293.70499C146.49605,293.78918 147.27744,293.82928 148.10001,294.27966C148.88039,294.70694 149.8,294.70499 150.7,294.70499C151.60001,294.70499 152.5,294.70499 153.3,294.70499C154.2,294.70499 155.10002,294.71039 156,294.70499C156.88937,294.69965 157.48958,294.18433 157.5,293.30499C157.51067,292.40506 157.5,291.50497 157.5,290.60498C157.5,289.70499 157.5,288.905 157.55716,288.00497L158.02083,287.22583L158.7955,286.75766" id="svg_17" stroke-width="3" stroke="#000" fill="none"/>
  <path t="98971,99307,99307,99323,99324,99347,99371,99422,99567,99583,99604,99604,99643,99675,99738,99804,99859,99962,99962,100003,100003,100055,100104,100104,100121,100147,100170,100187,100187,100238,100254,100275,100307,100323,100347,100378,100403,100403,100421,100488,100521,100537,100563,100587,100611,100764,100780,100811,100811,100843,100859,100860,100891,100931,100955,101021,101037,101071,101088,101107,101146,101155,101179,101203,101221,101250,101283,101314,101315,101372,101421,101421,101451,101471,101471" d="M144.5,293.70499C144.5,294.70499 144.5,295.46216 144.5,296.35767C144.5,297.22098 144.5,298.18414 144.5,299.10498C144.5,300.00497 144.5,300.905 144.5,301.80499C144.5,302.70499 144.5,303.50497 144.5,304.405C144.5,305.30499 144.33267,306.3143 144.85716,307.00049C145.43066,307.75079 146.46455,307.93304 147.136,308.27966C147.94827,308.69894 148.89017,308.65158 149.74283,309.05765C150.55257,309.44327 151.26027,309.63474 152.14816,309.70947C153.17587,309.79599 153.65431,310.62125 154.5,310.70499C155.29611,310.78381 156.2,310.70499 157.10001,310.70499C158,310.70499 158.89999,310.70499 159.8,310.70499C160.7,310.70499 161.60001,310.70499 162.5,310.70499C163.3,310.70499 164.2,310.70499 165.10001,310.70499C166,310.70499 166.89999,310.70499 167.8,310.70499C168.7,310.70499 169.60439,310.79367 170.5,310.70499C171.34569,310.62125 171.5,309.70499 171.5,308.905C171.5,307.94781 171.50954,307.05225 171.5,306.189C171.48958,305.24646 171.09637,304.51199 170.416,303.98898C169.80472,303.5191 168.77171,303.89575 167.89999,303.66898C167.04361,303.4462 166.87921,302.21619 166.14284,301.76215C165.42482,301.31943 164.68802,301.21643 164.064,300.73032C163.32184,300.15219 162.8981,299.40961 162.2785,298.82632C161.67412,298.25735 160.8427,298.14771 160.2045,297.405C159.55928,296.65414 159.416,295.905 158.88933,295.069L158.39999,294.38382L158,293.72583" id="svg_18" stroke-width="3" stroke="#000" fill="none"/>
  <path t="104334,104610,104610,104637,104654,104675,104691,104707,104747,104771,104787,104787,104811,104851,104871,104899,104915,104931,104971,104986,104987,105004,105027,105083,105120,105120,105530,105530,105546,105745,105761,105761,105761,105788,105805,105918,105918,105963,105971,105987,106004,106021,106021,106088,106088,106103,106138,106138,106219,106219,106272,106393,106393,106427,106437,106707,106739,106739,107104,107104,107187,107221,107303,107318,107318,107450,107466,107538,107538,107553,107571,107571,107603,107643,107688,108043,108058,108088,108115,108220,108254,108271,108291,108315,108995,109204,109237" d="M116.5,304.70499C117.5,304.70499 118.3,304.70499 119.2,304.70499C120.1,304.70499 121,304.70499 121.9,304.70499C122.8,304.70499 123.7,304.70499 124.6,304.70499C125.5,304.70499 126.3,304.70499 127.2,304.70499C128.10001,304.70499 129,304.70499 129.89999,304.70499C130.8,304.70499 131.7,304.70499 132.60001,304.70499C133.5,304.70499 134.27744,304.82928 135.10001,305.27966C135.88039,305.70694 136.8045,305.70499 137.66667,305.70499C138.5,305.70499 139.47891,305.73096 140.29866,305.70499C141.20135,305.67639 142.06386,305.22913 142.44733,304.405C142.80408,303.63831 143.34596,302.93817 143.48933,302.10498C143.64549,301.19742 143.5,300.22098 143.5,299.53033C143.5,298.46216 143.61082,297.59814 143.5,296.70499C143.3884,295.80554 142.4744,295.39011 142.10001,294.84366C141.45438,293.90134 141.06465,293.1275 140.29866,292.789C139.38641,292.38586 138.70006,292.21027 137.66667,291.87164C136.92545,291.62875 136.10001,291.26898 135.5,290.70499C134.89999,290.14099 133.98549,289.85831 133.10001,289.69431C132.26955,289.5405 132.00435,288.46722 131.416,287.99033C130.69846,287.40872 129.85202,288.27039 129.2045,289.00497C128.62077,289.66721 128.34006,290.57645 127.5,290.70499C126.70471,290.82666 125.96208,291.45206 125.08933,291.66898C124.20486,291.88882 123.5,291.70499 122.38533,291.70499C121.5,291.70499 120.7,291.70499 119.8,291.70499C118.9,291.70499 117.94225,291.40024 117.11066,291.71567C116.38151,291.99225 116.43304,293.04855 115.92533,293.73032C115.44812,294.37112 115.5,295.30499 115.5,296.20499C115.5,297.10498 115.5,298.00497 115.5,298.905L115.50017,299.80481L115.7215,300.58365" id="svg_19" stroke-width="3" stroke="#000" fill="none"/>
  <path t="110189,110331,110331,110348,110395,110421,110438,110567,110639,110946" d="M117.5,305.70499C116.5,305.53833 115.84628,304.91 115,304.72583C114.13046,304.53659 113.52084,304.18414 113.5,303.31564L113.5,302.34781L113.5,301.50497L113.5,300.60498" id="svg_20" stroke-width="3" stroke="#000" fill="none"/>
  <path t="112621,112820,112820,112837,112837,112854,112854,112875,112887,112887,112904,112920,112937,112954,112970,112970,112987,113106,113106,113121,113236,113236,113254,113254,113270,113287,113355,113421,113437,113459,113470,113515,113531,113587,113627,113627,113671,113671,113732,113764,113804,113821,113838,113838,113854,113854,113871,113871,113908,113940,113940,113954,113954" d="M126.5,227.70499C125.5,228.70499 125.5294,229.46278 125.4955,230.36215C125.46728,231.11081 125.20853,232.10086 124.92533,232.86899C124.57608,233.8163 124.5,234.70499 124.5,235.50499C124.5,236.40498 124.67805,237.327 124.47916,238.20499C124.26117,239.16731 123.56664,239.79871 123.50134,240.59032C123.42404,241.52721 123.33923,242.54138 123,243.18416C122.56469,244.009 122.5,244.90498 122.5,245.80499C122.5,246.70499 122.5,247.50499 122.5,248.40498C122.5,249.30499 122.19524,250.26274 122.51067,251.09431C122.78725,251.82349 123.91737,251.79446 124.52533,252.27965C125.14983,252.77803 126.11971,252.70285 126.9,253.13033C127.72406,253.58177 128.39417,253.76558 129.32533,254.13033C130.02306,254.40363 130.97899,254.69456 131.89999,254.70499C132.79994,254.71516 133.70134,254.70499 134.66667,254.70499C135.5,254.70499 136.33333,254.70729 137.25267,254.70499C138.15268,254.70273 138.87376,254.71455 139.87466,254.27965C140.69177,253.92461 141.5,253.72581 142.47833,253.70482L143.21333,253.61966" id="svg_21" stroke-width="3" stroke="#000" fill="none"/>
  <path t="114995,115187,115211,115211,115221,115237,115259,115275,115287,115287,115304,115321,115339,115339,115355,115387,115404,115421,115421,115437,115454,115454,115454,115471,115487,115504,115539,115539,115555,115555,115571,115603,115603,115651,115651,115675,115707,115707,115731,115732,115771,115772,115803,115804,115821,115837" d="M123.5,252.70499C121.52133,254.34099 121.5,255.35765 121.5,256.05231C121.5,257.069 121.5,258.00497 121.5,258.905C121.5,259.80499 121.5,260.70499 121.5,261.50497C121.5,262.405 121.5,263.22583 121.5,264.189C121.5,265.05231 121.5,265.94781 121.5,266.905C121.5,267.80499 121.5,268.70499 121.5,269.50497C121.5,270.37698 121.5,271.24765 121.5,272.20499C121.5,272.93698 121.5,273.89066 121.5,274.905C121.5,275.80499 121.5,276.70499 121.5,277.46216C121.5,278.35767 121.5,279.22098 121.5,280.20499C121.5,281.02631 121.5,281.87964 121.5,282.82098C121.5,283.58899 121.5,284.53033 121.5,285.53833C121.5,286.33032 121.55282,287.36841 121.44283,288.1095C121.29314,289.11816 120.92533,289.86899 120.6215,290.68347L120.50134,291.50366L120.5,292.405L120.5,293.30499" id="svg_22" stroke-width="3" stroke="#000" fill="none"/>
  <path t="116680,116882,116907,116907,116923,116923,116937,116937,116954,116970,116970,116970,116987,117004,117004,117004,117020,117037,117037,117067,117067,117087,117104,117131,117131,117147,117147,117170,117203,117235,117235,117267,117287,117287,117331,117379,117379" d="M143.5,258.70499C143.464,261.33032 143.18562,262.17886 142.92534,262.91565C142.58067,263.89133 142.54996,264.68518 142.49983,265.68347C142.46376,266.40182 141.96097,267.22839 141.33333,267.87164C140.68803,268.53299 140.07065,268.97369 139.60983,269.95233C139.20087,270.82086 139.03365,271.51447 138.784,272.22098C138.44276,273.18665 138.25095,274.20728 137.88933,274.87964C137.44362,275.70834 136.92169,276.2876 136.5,277.20499C136.13486,277.99936 135.64435,278.81168 135.44733,279.46216C135.17438,280.36331 134.60741,281.03268 133.936,281.71967C133.38911,282.27927 133.19864,283.18195 132.92534,283.87964C132.56059,284.81082 132.2785,285.80499 131.7955,286.405L131.2,287.00497L130.5,287.70499L129.936,288.30499" id="svg_23" stroke-width="3" stroke="#000" fill="none"/>
  <path t="125196,125301,125347,125347,125388,125388,125435,125455,125455,125769,125785,125853,125853,126124,126187,126187,126254,126270,126321,126378,126489,126505,126531,126539,126555,126603,126800,126815,126876,126876,126892,126915,127207,127207,127223,127287,127287,127320,127320,127919,127955" d="M178.5,99.70499C177.47917,99.70499 176.52133,99.70499 175.616,99.70499C174.67467,99.70499 173.98399,99.70499 173,99.70499C172.01733,99.70499 171.20984,99.70499 170.21466,99.70499C169.39999,99.70499 168.49913,99.66779 167.7,99.70499C166.78236,99.7477 166.68163,100.74603 166.41467,101.50499C166.14697,102.26608 165.10268,102.67051 164.5,103.20499C163.91748,103.72159 163.91269,104.53325 163.44284,105.34782C163.04666,106.03466 162.3829,106.48691 161.92534,107.30499C161.49336,108.07729 160.7327,108.63841 160.51067,109.35165C160.21162,110.31229 160.5443,111.09245 160.14734,111.94782C159.72403,112.85999 159.51721,113.70517 159.5,114.50499C159.48199,115.34157 159.25508,116.20951 158.88933,116.87965C158.35815,117.8529 157.85716,118.40049 157.43866,119.26899L156.63867,119.66898" id="svg_24" stroke-width="3" stroke="#000" fill="none"/>
  <path t="148573,148836,148836,148853,148966,148982,149012,149054,149199,149214,149243,149243,149291,149291,149331,149331,149355,149355,149403,149419,149459,149475,149475,149507,149554,149603,149635,149653,149675,149720,149736,149755,149755,149779,149900,149915,149915,149937,149969,150003,150004,150069,150107,150122,150153,150171,150221,150221,150259,150259,150352,150483" d="M173.5,181.70499C174.5,181.70499 175.3,181.70499 176.2,181.70499C177.10001,181.70499 178,181.70273 178.89999,181.70499C179.79552,181.70724 180.3947,182.18059 180.85266,183.00499C181.26501,183.74728 181.56108,184.49527 182.06799,185.18898C182.60062,185.91788 183.36673,186.65866 183.491,187.45766C183.62932,188.34706 183.52347,189.2485 183.92534,190.06898C184.35143,190.93892 184.5,191.80499 184.5,192.70499C184.5,193.50499 184.5,194.40498 184.5,195.30499C184.5,196.20499 184.74287,197.13982 184.4955,198.00049C184.27478,198.76839 183.55988,199.25578 183.14734,200.00499C182.68553,200.84369 182.49277,201.56119 181.88933,202.30499C181.2724,203.06544 180.50931,203.59245 179.7,203.70366C178.86301,203.81866 178.2924,204.45018 177.5,204.87166C176.85941,205.21239 175.9679,205.63968 175.2,206.05765C174.35919,206.5153 173.85045,207.12791 173.21333,207.62099C172.48972,208.181 171.67467,208.13033 170.66667,208.53831L169.91066,208.73032L169.10001,209.13033L168.3,209.61966" id="svg_25" stroke-width="3" stroke="#000" fill="none"/>
  <path t="155510,155770,155801,155818,155836,155867,155886,155902,155919,155939,155939,155971,155971,155987,156004,156018,156050,156051,156068,156085,156114,156135,156135,156151,156151,156169,156169,156185,156202,156202,156219,156219,156235,156235,156252,156252,156252,156269,156286,156286,156302,156302,156320,156320,156336,156352,156352,156352,156370,156370,156387,156387,156403,156403,156403,156428,156444,156444,156459,156460,156470,156470,156487,156503,156503,156520,156520,156520,156537,156537,156537,156555,156555,156570,156570,156570,156587,156588,156603,156603,156619,156619,156635,156635,156635,156652,156652,156652,156669,156669,156686,156686,156686,156703,156703,156719,156736,156736,156752,156752,156769,156786,156802,156835,156852,156852,156892,156919,156919,156947,156948,156969,156969,156996,156996,157019,157019,157035,157052,157053,157075,157076,157085,157107,157185,157185,157219,157235" d="M394.5,140.70499C394.5,142.50499 394.5,143.40498 394.5,144.30499C394.5,145.20499 394.5,146.10498 394.5,147.00499C394.5,147.90498 394.46609,148.80563 394.5,149.70499C394.52859,150.46378 394.88153,151.3461 395.14734,152.05232C395.47949,152.93488 395.41788,153.90875 395.50015,154.80499C395.58383,155.71643 396.26117,156.24266 396.47916,157.20499C396.67804,158.08298 396.5,159.00949 396.5,159.87166C396.5,160.70499 396.5,161.68365 396.5,162.45766C396.5,163.35765 396.5,164.22099 396.5,165.20499C396.5,166.02632 396.5,166.87965 396.5,167.82233C396.5,168.67432 396.5278,169.7168 396.46399,170.49033C396.37714,171.54285 396.13242,172.23798 395.85266,173.04332C395.54041,173.94217 395.5,174.80516 395.5,175.59032C395.5,176.54099 395.5,177.30632 395.5,178.30049C395.5,179.21965 395.5,180.09032 395.5,181.03831C395.5,181.95566 395.5,182.69965 395.5,183.73566C395.5,184.58765 395.5,185.36665 395.5,186.16666C395.5,187.38765 395.5,188.18416 395.5,188.93565C395.5,189.89516 395.5,190.87166 395.5,191.70499C395.5,192.68365 395.5,193.45766 395.5,194.35765C395.5,195.22099 395.5,196.07965 395.5,197.02666C395.5,197.74666 395.48718,198.87184 395.50449,199.65765C395.52261,200.48007 395.63971,201.54593 395.85266,202.24782C396.11459,203.1111 396.39288,204.10847 396.52533,204.90498C396.69247,205.91023 396.92166,206.51169 397.30133,207.30499C397.78198,208.30931 398.07745,208.88356 398.69867,209.82098C399.1275,210.46808 399.39673,211.37955 399.60983,212.16666C399.87527,213.14711 400.22214,213.64879 400.64932,214.47966C401.18808,215.52757 401.37781,216.2502 401.54816,217.10048C401.70981,217.90741 402.01096,218.70978 402.5,219.70499C402.79407,220.30344 403.13657,221.09351 403.79999,221.94781C404.25854,222.53831 405.10016,223.17612 405.37866,224.02632C405.64819,224.84915 405.8526,225.78087 406.216,226.50365C406.60184,227.27109 406.91757,228.12206 407.69867,228.62099C408.431,229.08876 408.76868,229.91974 409.30133,230.50499C409.87195,231.13194 410.36325,232.02925 410.5,232.70499C410.69904,233.68843 411.1716,234.29788 411.41599,235.18898C411.64719,236.03195 411.86926,236.94405 412.30133,237.58899C412.80994,238.34819 413.19028,239.22885 413.47467,240.06898C413.76102,240.91495 414.34369,241.56465 414.7955,242.35765C415.17999,243.03246 415.38266,244.07661 415.50134,244.90498C415.63272,245.82201 416.30133,246.41965 417.10001,246.73032L417.88934,247.14099" id="svg_26" stroke-width="3" stroke="#000" fill="none"/>
  <path t="158418,158601,158602,158602,158619,158619,158619,158636,158636,158636,158636,158636,158652,158652,158652,158652,158652,158652,158669,158669,158669,158669,158669,158691,158691,158707,158707,158723,158736,158752,158752,158769,158769,158786,158786,158802,158802,158802,158819,158819,158836,158836,158852,158852,158869,158869,158869,158886,158886,158902,158902,158902,158902,158919,158919,158919,158936,158936,158952,158952,158969,158969,158986,159002,159002,159002,159019,159036,159036,159036,159052,159052,159069,159069,159091,159091,159102,159123,159124,159142,159163,159163,159171,159171,159186,159202,159219,159219,159236,159236,159236,159252,159252,159269,159286,159286,159286,159302,159302,159319,159319,159336,159337,159352,159352,159369,159369,159369,159386,159402,159402,159419,159436,159436,159452,159452,159469,159469,159499,159499" d="M480.5,145.70499C480.5,147.75832 480.5,148.72581 480.5,149.40416C480.5,150.66232 480.5,151.45432 480.5,152.21033C480.5,153.34848 480.5,154.03282 480.5,154.80916C480.5,155.68549 480.5,156.16365 480.5,157.76898C480.5,158.35698 480.5,158.96298 480.5,160.20499C480.5,160.82898 480.5,161.44699 480.5,163.20499C480.5,163.73999 480.5,164.71999 480.5,165.57999C480.5,166.31999 480.5,167.44066 480.5,168.30899C480.5,169.18898 480.50082,170.05232 480.5,171.06898C480.49933,171.90498 480.19061,172.75581 479.85266,173.46216C479.44385,174.31667 479.54395,175.11055 479.49734,176.10498C479.45978,176.9071 479.08832,177.92822 478.63867,178.49432C478.17868,179.07344 477.34015,179.78252 476.8045,180.45766C476.25208,181.15395 475.86984,181.89699 475.62115,182.90498C475.42654,183.69383 475.20532,184.73128 474.79016,185.30049C474.35342,185.89928 473.49957,186.6637 473,187.22581C472.30185,188.01141 471.84164,188.711 471.5,189.22581C470.97522,190.01657 470.37683,191.01506 470.02084,191.68416C469.69345,192.29951 469.19995,193.30496 468.79999,194.10498C468.40012,194.90479 467.9585,195.66089 467.66666,196.53831C467.38589,197.38248 467.02737,198.08968 466.5,198.87166C466.06912,199.51054 465.68259,200.20921 465.10001,201.09032C464.48123,202.02617 464.18179,202.70251 463.936,203.45432C463.63892,204.36305 463.57849,205.24794 462.93201,205.90633C462.29102,206.55911 461.60489,207.17798 461.52133,207.87965C461.39496,208.94063 461.19754,209.75421 460.784,210.50499C460.3476,211.29727 460.05298,212.02277 459.5,212.70499C458.828,213.53403 458.81699,214.35986 458.47916,215.18416C458.1644,215.95213 457.64304,216.56999 457.43866,217.46498C457.22794,218.38783 456.56717,218.96741 456.06799,219.58765C455.50623,220.28568 455.51288,221.26686 455.064,222.07965C454.59393,222.93077 454.12704,223.54669 453.70001,224.22099C453.13489,225.11339 452.6608,225.65591 452.30133,226.47299C451.98566,227.19052 451.68887,228.37653 451.5,229.18416C451.30167,230.03224 450.98187,230.72714 450.5,231.70499C450.20615,232.3013 449.87833,233.05495 449.52533,234.06898C449.23212,234.91127 448.58664,235.41408 448.02084,236.22581C447.50931,236.95973 447.54257,237.8806 447.49866,238.82233C447.46631,239.51631 447.21466,240.47165 446.97916,241.18416L446.5,242.20499L445.85718,242.74866" id="svg_27" stroke-width="3" stroke="#000" fill="none"/>
  <path t="161559,161761,161761,161787,161803,161803,161835,161852,161875,161886,161886,161902,161923,161936,161952,161952,161969,161986,162002,162019,162019,162035,162035,162035,162052,162069,162069,162086,162086,162102,162102,162119,162136,162136,162152,162152,162152,162169,162169,162186,162186,162202,162202,162219,162219,162236,162236,162236,162252,162252,162252,162269,162285,162285,162285,162302,162302,162319,162319,162319,162336,162336,162352,162353,162369,162369,162369,162386,162387,162402,162402,162419,162419,162436,162436,162436,162452,162452,162469,162469,162469,162486,162502,162502,162519,162519,162539,162539,162552,162569,162586,162602,162602,162619,162619,162636,162652,162675,162675,162686,162686,162702,162723,162739,162755,162779,162779,162787,162802,162819,162836,162875,162875,162891,162891,162891,162939,162969,163003,163116,163116,163140,163168,163168,163187,163235,163267,163286,163303,163319,163336,163336,163354,163369,163369,163388,163403,163403,163419,163443,163453,163469,163499,163519,163536,163553,163553,163569,163586,163603,163619,163619,163636,163636,163636,163653,163653,163669,163686,163686,163703,163731,163752,163779,163779,163796,163812,163812,163820,163835,163853,163869,163869,163886,163886,163903,163919,163936,163936,163953,163953,163953,163969,163969,163986,164003,164003,164019,164019,164036,164036,164053,164053,164053,164069,164086,164086,164103,164103,164103,164103,164119,164119,164119,164136,164136,164136,164153,164153,164169,164169,164169,164186,164186,164203,164203,164219,164236,164236,164253,164253,164275,164299,164300,164331,164331,164354,164369,164395,164412,164412,164444,164453,164453,164469,164486,164486,164503,164503,164519,164536,164536,164553,164579,164580,164603,164603,164619,164620,164651,164766" d="M380.5,220.70499C383.09549,221.65231 384.08673,221.64998 384.86401,222.14099C385.70197,222.67032 386.29056,223.19464 386.97916,223.70499C387.67398,224.21996 388.26166,224.70273 389.15268,224.70499C390.01599,224.70717 390.99243,224.55949 391.89999,224.71565C392.73318,224.85902 393.48813,225.60284 394.20001,225.70049C395.09256,225.82291 395.81036,226.32304 396.70001,226.61966C397.55795,226.9057 398.32074,226.73676 399.26801,226.98898C400.00552,227.18536 400.73413,227.41197 401.83865,227.67966C402.8233,227.91829 403.46451,228.31419 404.47867,228.58348C405.23523,228.78436 406.15268,228.70499 407.01599,228.70499C407.87466,228.70499 408.83643,228.59972 409.71066,228.77699C410.52554,228.94223 411.26791,229.58374 411.84283,229.99965C412.72128,230.63516 413.46933,230.70364 414.50534,230.70499C415.24933,230.70595 416.35718,230.70441 417.11465,230.70499C417.98666,230.70566 418.75644,230.68716 419.92133,230.92632C420.73389,231.09314 421.26321,231.33209 422.33334,231.53831C423.24579,231.71414 424.01334,231.70432 425.02084,231.70499C426.04285,231.70566 426.76132,231.70499 427.55182,231.70499C428.57849,231.70499 429.47916,231.70499 430.5,231.70499C431.29999,231.70499 432.10001,231.70499 433.10001,231.70499C433.89999,231.70499 434.90134,231.70499 435.73599,231.70499C436.66666,231.70499 437.44818,231.70499 438.23868,231.70499C439.35718,231.70499 440.11465,231.70499 440.98532,231.70499C441.90451,231.70499 442.90134,231.70499 443.73599,231.70499C444.66666,231.70499 445.44818,231.70499 446.23868,231.70499C447.35733,231.70499 448.15067,231.70499 449.04266,231.70499C449.75067,231.70499 450.73199,231.70499 451.69016,231.70499C452.66666,231.70499 453.5,231.70499 454.47867,231.70499C455.25266,231.70499 456.17322,231.82352 457.01599,231.61966C457.90402,231.40485 458.69699,230.7477 459.60001,230.70499C460.49899,230.66246 461.25717,230.70499 462.15268,230.70499C463.01599,230.70499 463.98395,230.78926 464.8045,230.70049C465.83813,230.58865 466.47156,230.12247 467.33334,229.87166C468.17566,229.62651 469.10004,229.71031 470,229.70499C470.90005,229.69965 471.60721,229.25204 472.5,228.87166C473.25153,228.55147 474.20001,228.70499 475.10001,228.70499C476,228.70499 476.92929,228.76283 477.8215,228.48366C478.53998,228.25885 479.49814,227.86076 480.28934,227.73032C481.01309,227.61099 481.90762,227.04271 482.70001,226.79031C483.5614,226.51593 484.64737,226.67651 485.14282,226.00049C485.66473,225.28836 485.5,224.22099 485.5,223.53032C485.5,222.46216 485.89169,221.32597 485.21466,220.79031C484.57242,220.28217 483.74921,220.25752 483.064,219.73032C482.41034,219.22737 481.79092,218.79161 480.97916,218.22581C480.24527,217.71431 479.32538,217.71033 478.38535,217.70499C477.5,217.69997 476.70001,217.70499 475.79999,217.70499C474.89999,217.70499 474,217.70499 473.10001,217.70499C472.20001,217.70499 471.29999,217.70499 470.39999,217.70499C469.5,217.70499 468.66559,217.90096 467.79999,217.64783C466.92236,217.39119 466.1965,216.74411 465.33334,216.70499C464.47977,216.66631 463.49445,216.55492 462.70001,216.27965C462.09552,216.07019 461.1037,215.75467 460.15717,215.70949C459.25815,215.66656 458.46335,215.37886 457.70001,214.98898C456.94711,214.60443 456,214.70499 455.08932,214.70499C454.17868,214.70499 453.32129,214.79097 452.38535,214.70366C451.48859,214.62 450.84738,213.9048 450,213.72581C449.1192,213.53976 448.17566,213.78346 447.33334,213.53831C446.47156,213.28751 445.6778,212.79309 444.8045,212.70949C443.90411,212.62328 443.07071,212.76283 442.1785,212.48366C441.46002,212.25885 440.50635,211.82401 439.70001,211.74098C438.90344,211.65895 437.90451,211.70499 436.98532,211.70499C436.12534,211.70499 435.17868,211.70499 434.32535,211.70499C433.384,211.70499 432.616,211.70499 431.65332,211.70499C430.81332,211.70499 429.81732,211.70499 429.02084,211.70499C428.26935,211.70499 427.16135,211.70499 426.17834,211.70499C425.45834,211.70499 424.33334,211.70499 423.54285,211.70499C422.97916,211.70499 422.09866,211.70499 420.89999,211.70499C420.29999,211.70499 419.39999,211.70499 418.20035,211.70499C417.60901,211.70499 416.772,211.70499 415.64267,211.70499C414.84933,211.70499 413.73065,211.70499 412.97916,211.70499C412.18268,211.70499 411.18668,211.70499 410.34668,211.70499C409.384,211.70499 408.616,211.70499 407.67465,211.70499C406.66666,211.70499 405.87466,211.70499 405.01599,211.70499C404.15268,211.70499 403.12534,211.70499 402.17868,211.70499C401.5,211.70499 400.52151,211.70499 399.70132,211.70499C398.79999,211.70499 397.89999,211.70435 396.97916,211.70499C396.01599,211.70566 395.27823,211.60446 394.38535,211.98898C393.42838,212.40109 392.77353,212.71404 391.97916,213.22581C391.14859,213.76094 390.47452,214.16479 389.66666,214.70499C388.99817,215.15198 388.15295,215.54138 387.39999,215.92632C386.63681,216.31648 385.82703,216.70634 385.17868,217.14766C384.4527,217.64182 383.6864,218.41779 383,218.68416C382.04047,219.05653 381.36133,219.31566 380.60983,220.00049L380.14282,220.65231" id="svg_28" stroke-width="3" stroke="#000" fill="none"/>
  <path t="165580,165691,165719,165736,165736,165736,165753,165753,165769,165769,165786,165786,165803,165819,165836,165853,165869,165886,165903,165903,165919,165919,165936,165953,165969,165986,165986,166003,166003,166019,166036,166053,166069,166069,166086,166086,166103,166103,166119,166119,166136,166136,166361,166361,166395,166395,166404,166419,166473,166488,166488,166519,166519,166536,166552,166569,166569,166569,166586,166586,166586,166602,166619,166619,166619,166635,166635,166636,166636,166652,166683,166683,166683,166702,166702,166719,166719,166736,166736,166736,166752,166752,166752,166769,166769,166786,166786,166786,166802,166802,166802,166802,166819,166819,166819,166835,166835,166835,166835,166858,166859,166859,166859,166869,166869,166869,166869,166885,166885,166885,166885,166901,166901,166901,166918,166918,166918,166918,166935,166935,166935,166951,166951,166968,166968,166968,166985,166985,166985,166986,167001,167001,167018,167018,167018,167019,167035,167035,167035,167051,167069,167069,167086,167086,167102,167102,167119,167136,167152,167171,167186,167186,167203,167203,167219,167236,167252,167269,167307,167308,167339,167352,167370,167385,167386,167402,167402,167419,167419,167435,167452,167469,167469,167486,167502,167519,167539,167540,167555,167569,167569,167586,167602,167619,167619,167635,167635,167652,167669,167669,167692,167692,167715,167736,167752,167769,167769,167786,167786,167802,167803,167819,167819,167836,167836,167837,167852,167852,167852,167869,167892,167892" d="M381.5,222.70499C381.5,224.50499 381.5,225.37698 381.5,226.24782C381.5,226.96632 381.5,227.75682 381.5,229.01833C381.5,229.66331 381.5,230.68365 381.5,231.58899C381.5,232.53032 381.5,233.22099 381.5,234.29433C381.5,235.20499 381.5,236.10498 381.5,237.00499C381.5,237.90498 381.5,238.80499 381.5,239.70499C381.5,240.46216 381.5,241.35765 381.5,242.22099C381.5,243.18416 381.5,244.10498 381.5,244.90633C381.5,245.87166 381.5,246.70499 381.5,247.68349C381.5,248.50365 381.49408,249.405 381.5,250.30499C381.50534,251.11569 381.73929,252.01961 382,252.72581C382.35822,253.69615 382.48199,254.49385 382.5,255.53831C382.51364,256.3302 382.43585,257.19662 382.55716,258.1095C382.66412,258.91452 383.07135,259.65994 383.37866,260.68365C383.60675,261.44345 383.74323,262.42944 384.2045,262.99515C384.86099,263.80032 385.94455,263.60953 386.70001,263.98898C387.5672,264.42456 388.0079,265.02557 388.83334,265.53833C389.54541,265.98065 390.30865,266.28876 390.94666,266.67966C391.72186,267.15463 392.53745,267.23572 393.18668,267.50632C394.17648,267.91885 394.96988,268.21606 395.73065,268.41965C396.83783,268.71594 397.8335,268.69394 398.51434,268.70947C399.32172,268.72791 400.50323,268.8562 401.09732,268.98898C401.96365,269.18262 402.72507,269.44022 403.84933,269.67966C404.8299,269.88849 405.5029,270.06598 406.24933,270.27966C407.35373,270.59586 408.11496,270.68045 408.98666,270.70633C409.74713,270.72891 410.9231,270.91949 411.72534,271.13031C412.27591,271.27499 413.32806,271.58405 414.26401,271.66898C415.09598,271.74448 416.10449,271.70499 416.95715,271.70499C417.92151,271.70499 418.73599,271.70499 419.60449,271.70499C420.5,271.70499 421.39999,271.70499 422.29999,271.70499C422.89999,271.70499 424.10132,271.70499 424.71066,271.70499C425.65717,271.70499 426.66666,271.70499 427.75266,271.70499C428.5,271.70499 429.24734,271.70499 430.33334,271.70499C431.01599,271.70499 432,271.70499 432.65268,271.70499C434.02133,271.70499 434.75266,271.70499 435.5,271.70499C436.24734,271.70499 437.33334,271.70499 438.34283,271.70499C438.97916,271.70499 439.89871,271.69632 441.10001,271.70633C441.70007,271.71133 442.60532,271.72501 443.5,271.87164C444.40692,272.02026 445.29559,272.29987 445.89999,272.42099C447.09134,272.65973 447.979,272.69333 448.81467,272.70364C449.81461,272.71597 450.47916,272.70499 451.5,272.70499C452.32132,272.70499 453.27066,272.70499 454.14267,272.70499C455.15067,272.70499 455.84933,272.70499 456.53201,272.70499C457.73065,272.70499 458.47916,272.70499 459.66666,272.70499C460.45715,272.70499 461.31067,272.70499 461.90134,272.70499C463.09732,272.70499 463.95834,272.70499 464.72934,272.70499C465.69016,272.70499 466.66666,272.70499 467.5,272.70499C468.47867,272.70499 469.25266,272.70499 470.15268,272.70499C471.01599,272.70499 471.97916,272.70499 472.89999,272.70499C473.79999,272.70499 474.70135,272.7128 475.66666,272.70499C476.32541,272.69965 477.32391,272.52039 478.08932,272.13031C478.89059,271.72198 479.82214,271.90204 480.69867,271.70364C481.50714,271.52066 481.88608,270.56662 482.216,269.905C482.63657,269.06161 482.5,268.10498 482.5,267.18414C482.5,266.38348 482.5,265.49432 482.5,264.50516C482.5,263.72583 482.47403,262.7261 482.5,261.90631C482.52859,261.00363 483.03052,260.21417 483.59982,259.60498C484.15234,259.01373 484.49466,258.10504 484.5,257.20499C484.5054,256.29434 484.5,255.38365 484.5,254.53032C484.5,253.59032 484.5,252.70499 484.5,251.90498C484.5,251.00499 484.45807,250.16476 484.784,249.22099C485.02863,248.5127 485.45605,247.59239 485.49866,246.82098C485.55057,245.88109 485.5,244.87166 485.5,244.07965C485.5,243.22099 485.5,242.35765 485.5,241.34099C485.5,240.50499 485.5,239.60498 485.5,238.70499C485.5,237.89066 485.5,236.93698 485.5,236.20499C485.5,235.03831 485.5,234.22581 485.5,233.38332C485.5,232.66331 485.5,231.53831 485.5,230.75232C485.5,229.93031 485.5,228.87166 485.5,228.16666C485.5,227.19165 485.5,226.33032 485.5,225.38365L485.5,224.53032" id="svg_29" stroke-width="3" stroke="#000" fill="none"/>
  <path t="169145,169252,169269,169269,169286,169286,169286,169302,169302,169302,169302,169302,169319,169319,169319,169319,169336,169336,169336,169336,169336,169352,169352,169370,169386,169386,169402,169419,169419,169419,169436,169436,169436,169436,169436,169452,169452,169452,169468,169469,169469,169486,169486,169501,169502,169519,169519,169535,169536,169551,169552,169568,169569,169569,169586,169586,169586,169586,169601,169602,169602,169619,169619,169619,169619,169635,169635,169635,169635,169652,169652,169652,169668,169669,169686,169705,169719,169719,169737,169737,169737,169751,169752,169752,169768,169769,169786,169786,169786,169802,169802,169802,169819,169819,169835,169835,169835,169851,169852,169868,169869,169869,169885,169901,169902,169919,169936,169936,169952" d="M383.5,235.70499C383.78665,234.79031 384.66666,234.70499 385.52084,234.70499C386.5,234.70499 387.33356,234.69548 388.0715,234.76215C389.00266,234.84627 389.75629,234.97691 390.58667,235.15166C391.46341,235.33615 392.34357,235.56288 393.16666,235.87166C393.94122,236.16225 394.97342,236.71629 395.64816,237.05232C396.65833,237.55539 397.3772,237.83569 398.11465,238.05832C398.83371,238.27539 399.52319,238.46947 400.728,238.61966C401.63867,238.73318 402.66806,238.5266 403.5,238.87166C404.28436,239.19699 405.03354,239.6633 405.82199,239.92648C406.59799,240.1855 407.35046,240.5305 408.36417,240.80482C409.15759,241.01955 410.01923,241.19307 410.89917,241.34782C411.33258,241.42404 412.5564,241.58865 413.61734,241.67966C414.24243,241.73328 415.34253,241.84065 416.26401,242.13033C416.90259,242.33107 417.89621,242.65768 418.84283,242.70049C419.75092,242.74153 420.46933,242.70499 421.50534,242.70499C422.24933,242.70499 423.35718,242.70499 424.11465,242.70499C424.98666,242.70499 425.74677,242.69002 426.92151,242.70532C427.73621,242.71594 428.33817,242.67366 429.5,243.03831C430.42917,243.32994 430.98752,243.73189 431.60001,243.99965C432.77829,244.51476 433.39685,244.62906 434.29999,244.68365C435.49802,244.75607 436.10132,244.70499 437.02084,244.70499C437.98532,244.70499 439.02133,244.70499 439.75266,244.70499C440.5,244.70499 441.24734,244.70499 442.67816,244.70499C443.33383,244.70499 444.21735,244.70499 445.16666,244.70499C446.07867,244.70499 446.89999,244.70499 447.79999,244.70499C448.70267,244.70499 449.47067,244.70499 450.51434,244.70499C451.32132,244.70499 451.90268,244.70499 453.09866,244.70499C453.97916,244.70499 454.81467,244.70499 455.81467,244.70499C456.68933,244.70499 457.70142,244.73418 458.52084,244.68416C459.18723,244.64348 460.18399,244.42099 461,244.20499C461.81601,243.98898 462.81885,243.81831 463.68933,243.67966C464.70602,243.51772 465.28323,243.22855 466.10001,242.98898C467.08817,242.69916 467.95715,242.70724 468.92117,242.70499C469.71466,242.70314 470.49393,242.79189 471.52933,242.70366C472.51044,242.62007 473.10001,242.09431 473.79999,241.40948L474.5,240.87166L475.29999,240.70631L476.25717,240.59065" id="svg_30" stroke-width="3" stroke="#000" fill="none"/>
  <path t="171096,171235,171235,171235,171252,171252,171252,171252,171268,171269,171269,171269,171269,171284,171285,171285,171285,171301,171302,171302,171302,171318,171319,171319,171334,171335,171335,171335,171351,171352,171352,171352,171352,171369,171369,171369,171369,171384,171385,171385,171385,171402,171402,171402,171418,171418,171419,171434,171434,171435,171435,171451,171452,171452,171452,171468,171469,171469,171469,171484,171485,171485,171485,171501,171502,171502,171518,171519,171519,171519,171534,171535,171551,171552,171552,171552,171569,171569,171569,171570,171585,171585,171585,171586,171602,171602,171603,171603,171619,171619,171635,171635,171635,171652,171652,171652,171652,171669,171669,171685,171685,171702,171719,171719,171739,171739" d="M383.5,247.70499C385.55466,247.70499 386.54166,247.70499 387.25635,247.70499C388.33334,247.70499 389.35214,247.70003 390.02084,247.72581C390.7103,247.7524 391.8345,247.86368 392.668,247.98898C393.55197,248.12187 394.44876,248.28334 394.89465,248.35233C396.16507,248.54886 397.2897,248.65758 397.97916,248.68416C398.64786,248.70995 400.02124,248.6992 400.74817,248.70949C401.47928,248.71983 402.20267,248.6844 403.45734,248.92632C404.26038,249.08115 404.99478,249.41229 406.14301,249.58348C406.81003,249.68294 407.54153,249.69087 408.30899,249.70049C409.49991,249.71541 410.29999,249.70499 411.10001,249.70499C411.89999,249.70499 412.70001,249.70499 413.89984,249.70499C414.6955,249.70499 415.47916,249.70499 416.24283,249.70499C417.6785,249.70499 418.34283,249.70499 419.28934,249.70499C419.89868,249.70499 421.09866,249.70499 421.97916,249.70499C422.54285,249.70499 423.81866,249.70499 424.54166,249.70499C425.35468,249.70499 426.36417,249.70499 427.16251,249.70499C428.02084,249.70499 428.89917,249.70499 430.16666,249.70499C430.92932,249.70499 431.62799,249.70499 432.591,249.70499C433.5,249.70499 434.40451,249.70499 435.02084,249.70499C435.98532,249.70499 437.02118,249.70499 437.74817,249.70499C438.83865,249.70499 439.53067,249.70499 440.73199,249.70499C441.5,249.70499 442.26801,249.70499 443.14267,249.70499C444.15067,249.70499 444.84933,249.70499 445.53201,249.70499C446.73199,249.70499 447.75067,249.70499 448.83334,249.70499C449.46933,249.70499 450.16135,249.70499 450.88535,249.70499C452.33334,249.70499 453.01599,249.70499 454,249.70499C454.65268,249.70499 455.66666,249.70499 456.384,249.70499C457.5,249.70499 458.24734,249.70499 459.33334,249.70499C460.01334,249.70499 460.95834,249.70499 461.81332,249.70499C462.81601,249.70499 463.72534,249.70499 464.66666,249.70499C465.45715,249.70499 466.31067,249.70499 467.5,249.70499C468.09866,249.70499 468.97916,249.70499 469.81467,249.70499C470.81332,249.70499 471.65332,249.70499 472.616,249.70499C473.384,249.70499 474.32535,249.70499 475.33334,249.70499L476.12534,249.70499L477.15268,249.70499L477.84732,249.70499" id="svg_31" stroke-width="3" stroke="#000" fill="none"/>
  <path t="172515,172669,172669,172669,172669,172685,172685,172685,172702,172702,172702,172702,172719,172719,172719,172735,172735,172735,172735,172752,172752,172752,172752,172769,172769,172785,172785,172785,172802,172802,172802,172802,172819,172819,172835,172835,172835,172835,172852,172852,172852,172852,172869,172869,172869,172885,172885,172885,172902,172902,172902,172902,172919,172919,172919,172935,172935,172935,172935,172952,172969,172969,172970,172985,172985,173002,173002,173019,173019,173019,173019,173035,173035,173035,173035,173035,173052,173052,173069,173069,173069,173085,173085,173085,173102,173102,173102,173119,173119,173135,173135,173135,173152,173152,173169,173185,173185,173202,173202,173219,173243,173243,173252,173269,173269,173285,173302,173302,173319,173335,173352,173370,173370,173370,173402,173484,173484,173484" d="M385.5,256.70499C388.75201,256.70499 389.57599,256.70499 390,256.70499C390.84201,256.70499 392.336,256.6955 392.9375,256.70947C393.74039,256.72812 394.83524,256.86197 395.80533,257.05765C396.50143,257.19806 397.18701,257.39893 398.45734,257.5835C399.24564,257.69803 400.00534,257.69913 401.14282,257.70514C401.80984,257.70868 402.5224,257.70212 403.25183,257.76215C404.68292,257.87991 405.33939,258.05347 406.25333,258.27966C406.81396,258.41843 408.04941,258.63611 408.72534,258.73032C409.92587,258.89764 410.45285,259.07489 411.31067,259.27966C412.49454,259.56226 413.09781,259.61612 413.95834,259.70499C414.7298,259.78467 415.84851,260.19745 416.63867,260.42099C417.46854,260.65576 418.21927,260.65817 419.04166,260.68414C419.90338,260.71136 421.16666,260.70499 421.92801,260.70499C422.61734,260.70499 423.53384,260.70499 424.57883,260.70499C425.52084,260.70499 426.26938,260.69745 427.46799,260.70633C428.1507,260.7114 428.85809,260.67154 430.16666,260.87164C430.7374,260.95892 431.48926,261.24765 432.26801,261.42099C433.45654,261.68558 434.16107,261.67896 434.88535,261.69431C436.33307,261.72498 437.01199,261.70499 437.9375,261.70499C438.728,261.70499 439.69016,261.70499 440.66666,261.70499C441.336,261.70499 442.10132,261.70499 443.10001,261.70499C443.89999,261.70499 444.90268,261.70499 445.772,261.70499C446.83334,261.70499 447.47067,261.70499 448.54166,261.70499C449.30899,261.70499 450.5,261.70499 451.29733,261.70499C452.07867,261.70499 452.828,261.70499 453.52933,261.70499C454.73065,261.70499 455.47916,261.70499 456.66666,261.70499C457.45267,261.70499 458.27466,261.70499 459.33334,261.70499C460.04733,261.70499 460.95267,261.70499 461.92117,261.70499C462.71466,261.70499 463.49017,261.70499 464.53201,261.70499C465.30533,261.70499 466.26935,261.70499 467.02084,261.70499C467.81732,261.70499 469.03833,261.70499 469.83835,261.70499C470.74734,261.70499 471.66666,261.70505 472.5,261.70499C473.47849,261.7049 474.27609,261.57758 475.02084,261.20499C475.95865,260.73578 476.68369,260.84003 477.74283,260.7005C478.61945,260.58502 479.15378,259.90485 480.02084,259.72583C480.96304,259.53128 481.78647,259.64264 482.51468,259.13031C483.20108,258.6474 483.87527,258.15509 484.83334,257.87164C485.71323,257.61133 486.4375,257.65231 487.34201,257.34781L488,256.70499L488.776,256.29431L489.44199,255.94781" id="svg_32" stroke-width="3" stroke="#000" fill="none"/>
  <path t="173983,174131,174152,174187,174187" d="M475.5,248.70499C475.55716,247.00499 476.04166,246.20499 476.8215,245.60515L477.52084,245.22581" id="svg_33" stroke-width="3" stroke="#000" fill="none"/>
  <path t="174760,174886,174902,174902,174931,174952,174969,174986" d="M478.5,241.70499C481.08932,241.63298 481.73257,240.94775 482.20001,240.41032C482.81949,239.69806 483.79999,239.70499 484.70001,239.70499L485.60001,239.70482" id="svg_34" stroke-width="3" stroke="#000" fill="none"/>
  <path t="175452,175552,175568,175587,175587,175603,175619" d="M476.5,249.70499C479.08932,249.70499 480.02084,249.70499 480.82132,249.70499L481.67465,249.70499L482.61465,249.70499L483.60001,249.70499" id="svg_35" stroke-width="3" stroke="#000" fill="none"/>
  <path t="178547,178885,178885,178902,178902,178902,178902,178919,178919,178919,178919,178936,178936,178936,178936,178952,178952,178952,178952,178969,178969,178969,178969,178986,178986,178986,178986,179002,179002,179002,179019,179019,179019,179035,179052,179052,179052,179069,179069,179069,179086,179086,179102,179102,179119,179119,179136,179136,179152,179152,179169,179186,179186,179202,179219,179219,179235,179236,179252,179252,179269,179269,179286,179286,179302,179302,179319,179319,179319,179336,179352,179352,179369,179386,179386,179402,179402,179420,179436,179452,179452,179469,179469,179469,179486,179502,179519,179536,179552,179552,179569,179588,179588,179604,179604,179644,179667,179668,179692,179692,179702,179724,179739,179771,179772,179786,179852,179883,179902,179942,180002,180002,180018,180059,180075,180107,180118,180135,180152,180171,180185,180202,180219,180219,180244,180244,180259,180283,180302,180302,180318,180318,180335,180352,180368,180387,180387,180387,180402,180402,180419,180435,180452,180452,180452,180468,180468,180485,180485,180502,180502,180523,180523,180535,180552,180552,180568,180585,180585,180602,180618,180618,180635,180635,180652,180668,180668,180685,180685,180702,180723,180723,180739,180739,180752,180768,180785,180802,180819,180819,180835,180852,180852,180868,180868,180868,180891,180907,180907,180931,180931,180952,180968,180968,180985,180985,181002,181018,181035,181035,181052,181052,181068,181068,181085,181102,181118,181118,181135,181152,181152,181168,181168,181187,181211,181211,181227,181243,181411,181411,181426,181452,181452,181469,181520,181520,181619,181635,181635,181651,181699,181718,181735,181802" d="M394.5,136.70499C395.5715,137.65681 396.35495,137.68188 397.5,138.03831C398.11563,138.22995 398.99625,138.73271 399.60001,139.05682C400.79291,139.6972 401.3992,139.96214 402.02084,140.18416C402.97766,140.52588 404.02078,140.80699 404.75266,141.00499C405.49945,141.20703 406.25012,141.39514 407.33334,141.70499C408.35001,141.99579 408.99905,142.20815 409.65268,142.40498C410.66519,142.70988 411.7504,143.00999 412.5,143.18416C413.24521,143.3573 414.33209,143.54932 415.01334,143.62099C415.95685,143.72025 416.82898,143.7226 417.81601,143.99033C418.51419,144.1797 419.17624,144.5264 420.18268,144.90366C420.97339,145.20004 421.71255,145.52277 422.84933,145.66899C423.82596,145.79462 424.50983,145.70499 425.28534,145.70499C426.33334,145.70499 427.26401,145.70499 428.09866,145.70499C429.10001,145.70499 429.89999,145.70499 430.89868,145.70499C431.664,145.70499 432.616,145.70499 433.384,145.70499C434.336,145.70499 435.10132,145.70499 436.09549,145.70499C437.01468,145.70499 438,145.70499 438.82132,145.70499C439.67465,145.70499 440.61465,145.70499 441.60016,145.70499C442.38535,145.70499 443.336,145.70499 444.10132,145.70499C445.10001,145.70499 445.89999,145.70499 446.89999,145.70499C447.70001,145.70499 448.69983,145.70499 449.47916,145.70499C450.47882,145.70499 451.30984,145.70499 452.26801,145.70499C453,145.70499 453.73199,145.70499 454.83865,145.70499C455.82132,145.70499 456.5,145.70499 457.61465,145.70499C458.5,145.70499 459.27011,145.72548 460.15268,146.05765C460.85889,146.32344 461.86343,146.68698 462.70132,146.70499C463.66644,146.72572 464.336,146.70499 465.5,146.70499C466.28934,146.70499 467.01468,146.70499 467.97916,146.70499C468.89999,146.70499 469.79999,146.70499 470.70001,146.70499C471.60016,146.70499 472.38535,146.70499 473.32535,146.70499C474.33334,146.70499 475.12534,146.70499 475.98401,146.70499C476.84732,146.70499 477.74734,146.70499 478.66666,146.70499C479.5,146.70499 480.48196,146.78043 481.29868,146.70499C482.22647,146.61929 482.20148,145.53049 482.78534,144.87431C483.38586,144.1994 484.34515,143.93716 484.48932,143.10498C484.64297,142.21814 484.50067,141.30499 484.5,140.40498C484.49933,139.50499 484.38538,138.48662 483.7955,138.06215C483.0051,137.49339 482.06076,137.30112 481.58401,136.50632C481.16959,135.81541 480.29138,135.82898 479.40018,135.70482C478.5983,135.59309 478.11749,134.91675 477.30133,134.70366C476.49536,134.49324 476.0961,133.53607 475.31467,133.14099C474.55322,132.75603 473.66809,132.89725 472.79999,132.64783C471.90359,132.39029 471.17044,131.86807 470.32535,131.67966C469.37378,131.4675 468.73441,130.85913 467.89999,130.71565C467.01297,130.56313 466.06967,130.73997 465.16666,130.53831C464.48615,130.38635 463.51788,130.00443 462.64301,129.82649C461.81772,129.65865 460.89999,129.70499 459.95834,129.70499C458.95715,129.70499 458.23868,129.70499 457.44818,129.70499C456.42166,129.70499 455.54166,129.70499 454.52133,129.70499C453.74734,129.70499 452.83658,129.75781 452.09549,129.64783C451.08682,129.49812 450.3707,129.01044 449.38535,128.79031C448.5173,128.59641 447.70001,128.70499 446.86401,128.70499C445.84732,128.70499 445.15268,128.70499 444.12534,128.70499C443.17868,128.70499 442.32535,128.70499 441.384,128.70499C440.616,128.70499 439.67465,128.70499 438.66666,128.70499C437.87466,128.70499 437.01599,128.70499 436.15268,128.70499C435.25266,128.70499 434.33334,128.70499 433.5,128.70499C432.52151,128.70499 431.70132,128.70499 430.79999,128.70499C429.89999,128.70499 429,128.70499 428.08932,128.70499C427.17868,128.70499 426.32535,128.70499 425.38535,128.70499C424.5,128.70499 423.68567,128.70499 422.73199,128.70499C422,128.70499 421.26801,128.70499 420.16135,128.70499C419.17868,128.70499 418.32535,128.70499 417.384,128.70499C416.616,128.70499 415.67465,128.70499 414.66666,128.70499C413.87466,128.70499 413.01599,128.7028 412.15268,128.70499C411.26166,128.70724 410.62656,129.34422 409.78568,129.64783C409.1304,129.88441 408.09338,129.62582 407.336,129.74098C406.36435,129.88872 405.77905,130.59731 405,131.18416C404.25833,131.74286 403.32278,131.5936 402.52084,131.72581C401.64108,131.87086 401.38766,132.94186 400.73834,133.34782C399.93994,133.84698 398.95682,133.72797 398.13599,134.13033C397.26517,134.55719 396.60843,134.60764 395.68533,134.71565C394.72607,134.8279 394.45578,135.83154 393.7955,136.34782C393.04242,136.93666 392.52982,137.41341 392.50134,138.22232C392.46677,139.20438 392.49854,140.18898 392.5,140.87965C392.50226,141.94781 392.59119,142.9615 393.30133,143.41965C394.01105,143.87752 395,143.70499 395.89999,143.70499L396.79999,143.70499L397.70001,143.70499" id="svg_36" stroke-width="3" stroke="#000" fill="none"/>
  <path t="183352,183579,183603,183603,183619,183635,183667,183685,183707,183731,183731,183752,183769,183769,183785,183803,183819,183819,183843,183859,183859,183899,183899,183953,183953,183969,183987,184019,184035,184035,184075,184107,184107,184123,184123,184139,184179,184179,184235,184235,184252,184268,184285,184302,184302,184318,184339,184371,184385,184402,184418,184436,184451,184451,184451,184475,184475,184475,184475,184485,184485,184502,184518,184518,184535,184535,184552,184552,184568,184587,184587,184619,184635,184635,184659,184691,184783,184783,184818,184835,184835,184852,184852,184868,184868,184885,184931,184952,184968,184968,184987,185003,185018,185035,185051,185068,185091,185091,185107,185107,185118,185135,185155,185168,185168,185185,185202,185218,185235,185252,185268,185285,185302,185302,185318,185339,185339,185352,185368,185385,185402,185402,185418,185418,185435,185451,185451,185491,185531,185531,185563,185563,185585,185603,185603,185618,185618,185643,185643,185667,185685,185701,185718" d="M438.5,128.70499C438.21466,129.61832 437.37595,129.51192 436.79999,129.00049C436.06772,128.35028 435.03662,128.08704 434.58533,127.41965C434.07141,126.65967 433.9263,125.89782 433.58533,125.13565C433.26407,124.41758 433.65338,123.40108 433.216,122.50499C432.89169,121.84056 432.50226,121.005 432.5,120.18415C432.49738,119.22099 432.5,118.35765 432.5,117.45766C432.5,116.53832 432.5,115.70499 432.5,114.72632C432.5,113.95232 432.5,113.05232 432.5,112.18899C432.5,111.22582 432.31693,110.20908 432.78534,109.50632C433.31546,108.71101 434.18753,108.62863 435.02084,108.20499C435.81015,107.80371 436.67462,107.71032 437.616,107.70499C438.384,107.70064 439.32535,107.70499 440.33334,107.70499C441.12534,107.70499 441.98401,107.70499 442.84732,107.70499C443.86401,107.70499 444.80472,107.61411 445.70001,107.70632C446.5126,107.79002 446.94717,108.52682 447.52533,109.26899C448.01144,109.89301 448.49933,110.50632 448.5,111.40498C448.50067,112.30499 448.43881,113.20764 448.50449,114.01398C448.58868,115.04765 448.8739,115.71378 449.07468,116.52632C449.36417,117.6978 449.43661,118.30231 449.47916,119.18415C449.51944,120.01891 449.5,121.01832 449.5,121.85832C449.5,122.82098 449.5,123.87165 449.5,124.53032C449.5,125.53832 449.5,126.33032 449.5,127.35765C449.5,128.05232 449.5,129.07965 449.5,130.02632C449.5,130.70499 449.5,131.81966 449.5,132.70499C449.5,133.50499 449.50058,134.40498 449.5,135.22581C449.49933,136.18898 449.65363,137.15405 449.14282,137.94331C448.6669,138.67867 447.74283,138.70273 446.84283,138.70499C446.09549,138.70685 445.10132,138.70499 444.15717,138.70499C443.25717,138.70499 442.29999,138.70499 441.39999,138.70499C440.5,138.70499 439.70001,138.70499 438.79999,138.70499C437.89999,138.70499 437,138.70499 436.10001,138.70499C435.20001,138.70499 434.18011,138.90715 433.5,138.37166C432.83209,137.84578 432.45905,136.90013 432.02084,136.22581C431.50714,135.43532 431.5,134.50499 431.5,133.60498C431.5,132.70499 431.5,131.90498 431.5,131.00499C431.5,130.10498 431.5,129.20499 431.5,128.30499C431.5,127.40498 431.5,126.50499 431.5,125.60499C431.5,124.70499 431.5,123.90498 431.5,123.06898C431.5,122.05232 431.5,121.35765 431.5,120.34099C431.5,119.40498 431.5,118.50499 431.5,117.60482C431.5,116.81966 431.5,115.87965 431.5,115.18899C431.5,114.20499 431.49783,113.22099 431.5,112.35765C431.50226,111.45765 431.62701,110.52068 431.936,109.87965C432.43753,108.83916 432.82803,108.232 433.70001,107.78899C434.54749,107.35843 435.23947,106.97349 435.98401,106.50499C436.65952,106.07992 437.41589,105.51067 438.1955,105.06216C438.95132,104.62732 439.89999,104.70499 440.79999,104.70499L441.70001,104.70499" id="svg_37" stroke-width="3" stroke="#000" fill="none"/>
  <path t="186809,186979,187001,187001,187035,187035,187083,187115,187115,187135,187135,187151,187151,187168,187168,187185,187201,187218,187218,187235,187235,187259,187259,187268,187285,187285,187301,187318,187318,187335,187351,187351,187351,187368,187368,187385,187401,187401,187418,187418,187435,187436,187436,187451,187451,187451,187468,187468,187468,187485,187485,187485,187485,187501,187501,187518,187518,187518,187535,187535,187535,187551,187551,187568,187568,187585,187585,187602,187602,187602,187602,187618,187618,187635,187635,187635,187651,187651,187651,187668,187668,187668,187668,187685,187685,187701,187701,187701,187701,187718,187718,187718,187718,187719,187735,187735,187735,187735,187751,187751,187751,187751,187751,187768,187768,187768,187785,187785,187786,187786,187801,187802,187802,187818,187818,187835,187835,187835,187851,187851,187851,187851,187868,187868,187868,187885,187885" d="M434.5,138.70499C434.5,139.56631 434.5,140.53831 434.5,141.33032C434.5,142.18898 434.5,143.05232 434.5,143.95232C434.5,144.87166 434.5,145.70499 434.5,146.68365C434.5,147.45766 434.5,148.36215 434.5,149.10948C434.5,150.10365 434.5,151.04782 434.5,151.94781C434.5,152.90633 434.5,153.87166 434.5,154.53032C434.5,155.53831 434.51385,156.34631 434.216,157.18898C433.90384,158.07211 433.68002,158.99954 433.27866,159.80499C432.89636,160.57216 432.50534,161.34094 432.5,162.18898C432.49457,163.05231 432.58536,163.97278 432.33334,164.87166C432.08582,165.75452 431.74356,166.29778 431.55267,167.30049C431.37888,168.21336 430.95068,169.02722 430.66666,169.87166C430.39694,170.67351 430.56799,171.69133 430.44284,172.51482C430.29446,173.49117 429.98129,174.24736 429.7955,174.81398C429.40451,176.00632 429.211,176.60435 428.89999,177.46899C428.51358,178.5433 428.16306,179.24249 427.936,179.96632C427.60516,181.02097 427.5657,181.67059 427.52084,182.68416C427.49173,183.34204 427.5,184.44083 427.5,185.34499C427.5,186.24799 427.5,186.97699 427.5,187.81398C427.5,189.00465 427.5,189.88365 427.5,190.69066C427.5,191.56215 427.5,192.45316 427.5,193.36215C427.5,194.10948 427.5,195.10765 427.5,195.97699C427.5,197.03831 427.5,197.67165 427.5,198.68416C427.5,199.34248 427.5,200.44083 427.5,201.34499C427.5,202.24799 427.5,202.97699 427.5,203.81398C427.5,205.00499 427.5,205.90498 427.5,206.50499C427.5,207.70499 427.5,208.60048 427.5,209.18416C427.5,210.01965 427.5,211.25682 427.5,211.96632C427.5,213.03831 427.5,213.67566 427.5,214.74666C427.5,215.51399 427.5,216.70499 427.5,217.50499C427.5,218.30499 427.5,219.10498 427.5,219.90498C427.5,221.10498 427.5,221.90498 427.5,222.70499C427.5,223.50499 427.5,224.70499 427.5,225.50365C427.5,226.29433 427.5,227.06898 427.5,227.81966C427.5,228.88348 427.5,229.86899 427.5,230.49432C427.5,231.70499 427.5,232.60498 427.5,233.20499C427.5,234.10498 427.5,235.30365 427.5,235.89432C427.5,236.74782 427.5,237.78349 427.5,238.68416C427.5,239.70499 427.5,240.52632 427.5,241.21931C427.5,242.34782 427.5,243.01482 427.5,243.72581C427.5,244.82233 427.5,245.88315 427.5,246.53882L427.5,247.42232L427.5,248.56215L427.5,249.31966" id="svg_38" stroke-width="3" stroke="#000" fill="none"/>
  <path t="188902,188995,189019,189019,189035,189035,189052,189069,189069,189069,189085,189085,189102,189118,189118,189118,189135,189135,189135,189152,189152,189152,189169,189169,189185,189185,189185,189202,189202,189202,189219,189219,189235,189235,189235,189235,189252,189252,189252,189268,189268,189268,189268,189268,189285,189285,189285,189285,189302,189302,189302,189319,189335,189335,189352,189352,189352,189368,189368,189368,189385,189385,189402,189402,189418,189418,189436,189436,189436,189452,189452,189452,189468,189468,189485,189485,189502,189502,189502,189518,189518,189518,189518,189535,189535,189535,189552,189552,189568,189568,189568,189585,189585,189585,189602,189602,189602,189603,189618,189618,189619,189619,189635,189636,189636,189636,189652,189652,189652,189652,189668,189668,189669,189669,189687,189687,189687,189702,189702,189753,189769" d="M445.5,139.70499C445.5,141.46216 445.5,142.36215 445.5,143.10948C445.5,144.10365 445.5766,145.05145 445.49551,145.95232C445.4118,146.8821 445.02097,147.52269 444.784,148.30632C444.48883,149.28239 444.58179,150.05182 444.48932,151.09032C444.40411,152.04727 444.13303,152.71086 443.92532,153.49033C443.6474,154.53337 443.54492,155.48221 443.44733,156.15765C443.30676,157.13063 443.06439,157.91678 442.85266,158.69516C442.57025,159.73334 442.46561,160.51488 442.216,161.47565C442.01468,162.25063 441.74698,163.10173 441.62149,164.00465C441.49994,164.87939 441.57098,165.69322 441.49734,166.73833C441.43854,167.57291 441.05887,168.46982 440.79468,169.06749C440.35324,170.06612 440.01392,170.72104 439.74283,171.66249C439.51517,172.45313 439.47183,173.27031 439.27866,174.56915C439.15964,175.36942 439.07077,175.791 438.92532,176.66499C438.78009,177.53767 438.60645,178.76082 438.55716,179.49065C438.4902,180.48248 438.50067,181.10233 438.5,182.30232C438.49951,183.16331 438.5,183.93433 438.5,185.04366C438.5,185.87166 438.55743,186.74072 438.33334,187.70499C438.14072,188.53383 437.78983,189.14923 437.62149,190.12633C437.48422,190.92311 437.50226,191.75232 437.5,192.78349C437.49805,193.68416 437.5,194.70499 437.5,195.49432C437.5,196.53831 437.5,197.22581 437.5,198.24782C437.5,198.96632 437.5,199.75682 437.5,200.78365C437.5,201.70499 437.5,202.38899 437.5,203.65315C437.5,204.44365 437.5,205.37166 437.5,206.20499C437.5,207.24799 437.5,207.97699 437.5,208.81398C437.5,209.70499 437.5,210.60498 437.5,211.50499C437.5,212.10498 437.5,213.30232 437.5,214.16331C437.5,214.93433 437.5,216.06499 437.5,216.75832C437.5,217.75832 437.5,218.39165 437.5,219.40416C437.5,220.37166 437.5,221.19965 437.5,221.95566C437.5,223.03831 437.5,224.01482 437.5,224.72581C437.5,225.45682 437.5,226.53831 437.5,227.55232C437.5,228.20499 437.5,229.18898 437.5,230.22632C437.5,230.95766 437.5,231.70499 437.5,232.45232C437.5,233.88365 437.5,234.55232 437.5,235.53032C437.5,236.18898 437.5,237.22632 437.5,237.95766C437.5,239.07965 437.5,239.82098 437.5,240.88315C437.5,241.84766 437.5,242.42232 437.5,243.56198L437.5,244.39598L437.5,245.30499L437.5,246.20499" id="svg_39" stroke-width="3" stroke="#000" fill="none"/>
  <path t="190713,190818,190835,190835,190851,190851,190851,190851,190868,190868,190868,190868,190868,190885,190885,190885,190885,190902,190902,190902,190902,190918,190918,190918,190918,190935,190935,190935,190952,190952,190968,190968,190968,190985,190985,190985,190985,191002,191002,191002,191018,191018,191035,191035,191035,191051,191051,191051,191051,191068,191068,191068,191068,191068,191085,191085,191085,191101,191101,191101,191118,191118,191118,191135,191135,191135,191135,191151,191151,191151,191168,191168,191168,191185,191186,191186,191186,191201,191201,191201,191202,191202,191218,191218,191218,191219,191235,191235,191235,191236,191251,191251,191251,191268,191268,191268,191285,191285,191285,191285,191285,191285,191301,191301,191301,191301,191302,191318,191318,191318,191335,191335,191335,191336,191336,191351,191351,191351,191351,191351,191368,191368,191368,191369,191385,191385,191385,191385,191386,191401,191401" d="M408.5,137.70499C408.5,140.33032 408.5,141.19165 408.5,141.95166C408.5,143.12682 408.5,143.67116 408.5,144.58765C408.5,145.27699 408.5,146.44781 408.5,147.31482C408.5,148.22581 408.5,148.69032 408.5,149.62231C408.5,150.98332 408.5,151.84332 408.5,152.66331C408.5,153.44331 408.4939,154.53836 408.50134,155.22099C408.51205,156.20512 408.51666,156.86311 408.72134,158.22615C408.83105,158.95673 409.00848,159.68245 409.14734,160.39516C409.39359,161.65913 409.47879,162.43253 409.49866,163.30232C409.52164,164.30925 409.48563,164.94997 409.72134,166.12648C409.82968,166.66727 410.1221,167.50632 410.33334,168.70499C410.43845,169.30128 410.48822,170.20483 410.49866,171.10498C410.50906,172.00476 410.49994,172.89432 410.5,173.74782C410.50009,174.78349 410.43906,175.69922 410.66666,176.70499C410.8075,177.32735 411.22659,178.21169 411.5,179.03831C411.82172,180.01103 411.99896,180.74269 412.14282,181.51399C412.36395,182.69969 412.41891,183.50211 412.47467,184.28366C412.52814,185.03279 412.51471,185.74792 412.784,186.93565C412.95624,187.69542 413.26468,188.37917 413.41599,189.39032C413.54025,190.22078 413.54456,191.11357 413.784,192.30499C413.90546,192.90932 414.1825,193.79843 414.33334,194.70499C414.48224,195.59987 414.50507,196.50732 414.58401,197.10498C414.74332,198.31107 414.94855,198.89957 415.14734,199.80499C415.40942,200.99864 415.43347,201.60629 415.52533,202.50499C415.64816,203.70702 415.77145,204.30998 416.02084,205.22581C416.19485,205.86485 416.50671,206.86984 416.79999,207.96216C417.0047,208.72456 417.20029,209.50941 417.29999,209.90633C417.60098,211.1046 417.79248,211.9039 418.02084,212.68416C418.24539,213.45135 418.64926,214.5468 419.14816,215.54782C419.46811,216.18979 419.88513,216.76785 420.25699,218.00465C420.43124,218.58421 420.44,219.43439 420.50049,220.56282C420.53836,221.2692 420.73645,221.93735 421.16434,222.91216C421.54953,223.78969 421.79465,224.26498 422.29599,225.28632C422.55493,225.81384 422.82257,226.33905 423.57816,227.86182C424.03622,228.78497 424.26022,229.21457 424.61734,230.04765C424.94421,230.81024 425.25888,231.88321 425.45999,232.86899C425.58752,233.49414 425.9693,234.72426 426.35599,235.30632C426.77582,235.93826 427.33313,236.53999 427.90399,237.19032C428.50119,237.87062 429.10944,238.57965 429.67868,239.33032C430.24008,240.07063 430.52335,240.42957 431.16666,241.53831C431.55524,242.20804 431.98621,243.21162 432.30533,243.85765C432.81168,244.88266 433.25687,245.59389 433.75067,246.30899C434.23843,247.0153 434.73199,247.65031 435.35718,248.44066L435.97916,249.16331" id="svg_40" stroke-width="3" stroke="#000" fill="none"/>
  <path t="192314,192451,192468,192468,192468,192485,192485,192485,192501,192501,192501,192501,192501,192518,192518,192535,192535,192535,192535,192551,192551,192551,192568,192568,192568,192585,192585,192585,192601,192601,192601,192618,192618,192618,192618,192618,192635,192635,192635,192635,192651,192651,192651,192651,192651,192668,192668,192668,192685,192685,192685,192701,192701,192701,192718,192718,192735,192735,192735,192751,192751,192768,192768,192768,192785,192785,192785,192785,192801,192802,192802,192819,192819,192835,192835,192835,192835,192851,192851,192851,192868,192868,192885,192885,192885,192886,192901,192901,192901,192918,192918,192918,192935,192951,192951,192951,192968,192968,192985,192985,193001,193018,193018,193059,193076,193099,193099,193118,193118,193135" d="M463.5,148.70499C462.50449,149.52382 462.53812,150.47755 462.45834,151.22581C462.3728,152.02815 461.9321,153.02455 461.47916,153.74666C461.14923,154.27264 460.50351,155.56306 460.26166,156.35849C460.13727,156.76758 459.93088,157.5899 459.78665,158.36766C459.52383,159.78477 459.46674,160.5623 459.2785,161.46931C459.08395,162.40668 458.89539,163.1026 458.69867,163.82365C458.40887,164.88579 458.21729,165.54916 457.89999,166.45831C457.52051,167.54568 457.17084,168.23994 456.936,168.93031C456.6207,169.85727 456.56833,170.65929 456.47467,171.47966C456.35355,172.54082 456.07025,173.49791 455.73834,174.21481C455.35278,175.04759 455.00812,175.66997 454.68533,176.36632C454.35175,177.08595 453.97568,177.799 453.67065,179.22365C453.52734,179.89296 453.51282,180.60216 453.50266,181.35965C453.48511,182.6687 453.49875,183.65854 453.48932,184.17032C453.47046,185.19313 453.5076,185.69666 453.33334,187.03831C453.19751,188.08408 452.8721,188.84778 452.66666,189.70499C452.47488,190.50522 452.44641,191.3969 452.216,192.38899C452.02505,193.21121 451.74799,194.01443 451.58401,195.01965C451.47617,195.68071 451.37442,196.72 451.064,197.50499C450.7406,198.32283 450.25122,199.08394 449.936,199.90498C449.56015,200.88397 449.5451,201.52881 449.41599,202.47565C449.29672,203.35033 449.07355,204.35811 448.88934,205.05432C448.70804,205.73953 448.3176,206.94182 448,207.66331C447.71561,208.30942 447.15881,209.29198 446.936,209.94098C446.53766,211.10121 446.55423,211.66679 446.47467,212.55165C446.41711,213.19176 446.2309,214.58861 446.064,215.29832C445.90475,215.97546 445.4838,217.02647 445,217.70499C444.37885,218.57613 444.18869,219.12576 443.89999,220.11165C443.6918,220.82263 443.39926,221.88304 443.2045,222.54332C442.93472,223.45793 442.63541,224.53416 442.55716,225.24332C442.46921,226.04021 442.5,227.09032 442.5,228.03831C442.5,228.71033 442.53952,229.70045 442.49866,230.73566C442.47028,231.45476 442.18375,232.37967 441.7955,233.05232C441.25912,233.98157 440.73755,234.73128 440.44733,235.40498C440.08472,236.24678 439.52859,237.00807 439.5,237.87166C439.47241,238.70453 439.5,239.68349 439.5,240.50365L439.5,241.40498" id="svg_41" stroke-width="3" stroke="#000" fill="none"/>
  <path t="194502,194634,194635,194651,194668,194668,194685,194701,194701,194701,194718,194718,194735,194735,194752,194752,194752,194768,194768,194768,194768,194785,194801,194801,194818,194818,194835,194835,194851,194851,194851,194868,194868,194868,194868,194885,194885,194885,194885,194901,194901,194918,194918,194935,194935,194935,194968,194968,194984,194984,194984,194984,194984,195000,195000,195000,195017,195017,195034,195034,195034,195034,195034,195050,195050,195050,195050,195067,195067,195084,195084,195084" d="M426.5,270.70499C426.5,273.49432 426.5,274.21967 426.5,275.20499C426.5,276.189 426.59128,276.88391 426.49551,277.95233C426.41217,278.88211 426.02057,279.52258 425.784,280.3063C425.48804,281.28674 425.50226,282.10498 425.5,283.10632C425.49814,283.94098 425.5,284.87164 425.5,285.66214C425.5,286.51566 425.5,287.70499 425.5,288.30231C425.5,289.16333 425.5,289.93433 425.5,291.04364C425.5,292.02631 425.5,292.70499 425.5,293.82098C425.5,294.58899 425.5,295.55167 425.5,296.16666C425.5,297.39166 425.5,297.95166 425.5,298.86664C425.5,299.87164 425.50549,300.95792 425.47916,301.70499C425.45282,302.45276 425.353,303.54202 425.216,304.21698C425.02695,305.14838 424.70679,305.91806 424.55716,306.89966C424.44031,307.66614 424.5,308.71481 424.5,309.49033C424.5,310.53833 424.5,311.46899 424.5,312.10049C424.5,313.10898 424.5,314.013 424.5,315.20499C424.5,315.957 424.5,316.78098 424.5,317.20499C424.5,318.047 424.5,319.5405 424.5,320.13348C424.5,321.09149 424.5,322.10767 424.5,322.97699C424.5,324.03833 424.5,324.67566 424.5,325.37698C424.5,326.12631 424.5,326.90765 424.5,328.10464C424.5,328.896 424.5,330.03299 424.5,330.73431C424.5,331.93433 424.5,332.66333 424.5,333.70499L424.5,334.49432L424.5,335.21967" id="svg_42" stroke-width="3" stroke="#000" fill="none"/>
  <path t="195874,196001,196001,196001,196019,196019,196035,196035,196035,196035,196051,196051,196051,196069,196069,196069,196069,196069,196085,196085,196085,196102,196102,196102,196102,196119,196119,196135,196135,196135,196135,196152,196152,196152,196169,196169,196169,196185,196185,196185,196202,196202,196219,196235,196235,196251,196269,196285,196285,196302,196319,196335,196363,196385,196402,196428,196435,196436,196452,196468" d="M438.5,273.70499C437.58533,276.67166 437.52243,277.34467 437.50449,278.3425C437.48474,279.44067 437.53018,280.21216 437.16666,281.03833C436.85416,281.7486 436.31146,282.50882 436.06799,283.10767C435.59189,284.27863 435.54453,284.92496 435.509,285.91931C435.46906,287.03766 435.5,287.87164 435.5,288.745C435.5,289.18414 435.50531,290.04248 435.49985,291.54083C435.49765,292.14249 435.50272,292.95032 435.33334,294.03833C435.18179,295.01181 434.99585,295.68323 434.85266,296.3425C434.61441,297.43948 434.49216,298.38419 434.33334,299.20499C434.16574,300.07123 433.98172,300.72211 433.784,301.73831C433.60486,302.65906 433.51202,303.68396 433.50134,304.38766C433.48611,305.3902 433.51306,306.22897 433.41467,307.10632C433.31342,308.00922 433.0675,308.88174 432.85266,309.69064C432.57608,310.7319 432.50067,311.50232 432.5,312.46216C432.49936,313.35767 432.65457,314.06577 432.48932,315.069C432.34637,315.93686 431.58502,316.69238 431.50134,317.50497C431.40912,318.40027 431.5,319.30499 431.5,320.20499C431.5,321.10498 431.5,322.00497 431.5,322.905C431.5,323.80499 431.5,324.70499 431.5,325.50497L431.5,326.405L431.5,327.30499" id="svg_43" stroke-width="3" stroke="#000" fill="none"/>
 </g>
</svg>