<svg width="500.00000000000006" height="332.409972299169" xmlns="http://www.w3.org/2000/svg" xmlns:svg="http://www.w3.org/2000/svg" xmlns:xlink="http://www.w3.org/1999/xlink">
 <!-- Created with SVG-edit - http://svg-edit.googlecode.com/ -->
 <g display="inline" class="layer">
  <title>Layer 1</title>
  <path t="0,237,237,325,429,485,485,561,561,597,669,709,789,845,846,877,877,925,925,981,1141,1157,1157,1181,1186,1190,1221,1277,1277,1301,1317,1326,1350,1429,1453,1469,1469,1469,1485,1501,1502,1583,1590,1631,1638,1669,1669,1678,1701,1709,1749,1845,1845,1853,1909,1909,1925,1925,1981,1997,2006,2013,2029,2045,2061,2077,2093,2117,2157,2246,2254,2261,2316,2429,2613,2621,2621,2685,2694,2701,3013,3013,3221,3349,3365,3365,3412,3533,3605,3605,3677,3973,4028,4100,4100,4116,4149,4173,4173,4189,4189,4213,4237,4237,4365,4365,4381,4404,4452,4453,4508,4509,4605,4629,4629,4653,4669,4701,4701,4733,4765,4765,4789,4789,4821,4821,4830,4838,4838,4885,4893,4894,4933,4949,4989,4989,4998,5045,5046,5054,5054,5077,5078,5117,5126,5126,5157,5197,5197,5198,5205,5206,5213,5253,5253,5309,5365,5366,5366,5374,5429,5429,5445,5445,5485,5493,5509,5541,5550,5573,5573,5613,5613,5622,5622,5653,5677,5677,5709,5709,5726,5734,5734,5741,5741,5773,5789,5813,5813,5821,5822,5829,5845,5869,5869,5885,5894,5894,5997,5997,6037,6069,6069,6173,6173,6197,6269,6293,6302,6309,6310,6341,6357,6397,6413,6421,6461,6485,6509,6533,6549,6565,6597,6677,6677,6685,6717,6741,6741,6749,6789,6789,6821,6821,6829,6901,6901,6949,6973,6973,6989,7021,7061,7061,7067,7086,7094,7133,7189,7205,7213,7221,7245,7309,7318,7365,7373,7397,7397,7413,7449,7481,7497,7509,7518,7554,7566,7590,7598,7621,7630,7637,7646,7701,7701,7765,7893,7933,7942,7966,7997,8013,8029,8093,8093,8125,8125,8293,8342,8405,8405,8429,8447,8447,8458,8482,8498,8498,8506,8518,8562,8562,8586,8618,8618,8658,8682,8694,8706,8706,8726,8734,8741,8754,8758,8758,8818,8818,8845,8866,8874,8906,8918,8922,8938,8962,8970,8978,8994,9018,9026,9066,9066,9106,9130,9149,9173,9181,9182,9229,9253,9301,9301,9317,9365,9421,9437,9453,9453,9469,9478,9525,9541,9549,9567,9709,9726,9742,9755,9767,9767,9767,9771,9787,9787,9795,9803,9811,9819,9819,9819,9827,9827,9827,9859,9875,9883,9941,9949,9950,9995,10035,10059,10083,10083,10091,10107,10119,10135,10261,10293,10309,10310,10365,10365,10389,10390,10429,10437,10438,10445,10454,10469,10478,10478,10509,10509,10517,10541,10541,10573,10582,10613,10621,10637,10637,10646,10653,10685,10694,10709,10709,10725,10745,10749,10761,10769,10781,10781,10785,10805,10806,10810,10814,10818,10834,10842,10858,10866,10893,10901,10902,10914,10930,10962" d="M111.0019,14.49287C112.0019,14.49287 112.8019,14.49287 113.7019,14.49287C114.64473,14.49287 115.5699,14.49287 116.29656,14.49287C117.33523,14.49287 118.15123,14.49287 119.08723,14.49287C120.02273,14.49287 120.85256,14.49287 121.75923,14.49287C122.70723,14.49287 123.46574,14.37903 124.44473,14.7142C125.22269,14.98055 125.97388,15.43076 126.80057,15.49153C127.83244,15.56739 128.06607,16.25171 128.71173,16.79737C129.31171,17.30441 130.15843,17.94854 130.55524,18.63153C131.04678,19.47761 131.28687,20.16804 132.00189,20.8262C132.60596,21.38222 132.85364,22.35545 133.61256,22.49287C134.55132,22.66285 134.83228,23.1236 135.02274,23.99287C135.20937,24.84464 136.03314,25.64203 136.39124,26.3182C136.74854,26.99288 136.95026,28.07178 137.70723,28.4447C138.38766,28.77991 138.43364,29.6937 139.01256,30.42087C139.5461,31.09102 140.48332,31.24866 140.88057,31.93553C141.31592,32.68829 141.75706,33.41628 141.99123,34.10353C142.29906,35.00701 142.7234,35.45432 143.29739,36.2027C143.74162,36.78189 143.92873,37.8592 144.00639,38.80187C144.06113,39.46621 144.30785,40.51406 144.61256,41.2062C145.03325,42.16172 145.91815,42.64717 146.00189,43.49287C146.08847,44.36726 146.00189,45.19737 146.00189,46.09287C146.00189,46.99287 146.00189,47.89287 146.00189,48.79287C146.00189,49.69154 146.00189,50.57687 146.00189,51.4782C146.00189,52.34353 146.00584,53.25263 145.57657,53.92887C145.09055,54.69451 144.48553,55.32757 144.08456,56.06087C143.72391,56.72043 143.00192,56.9895 142.2449,57.49303C141.67291,57.8735 141.24741,58.71598 140.70723,59.1357C139.91704,59.74968 140.28723,60.49287 141.10207,60.49287C141.88724,60.49287 142.86613,60.1818 143.83389,60.49553C144.54988,60.72765 144.85133,61.68208 145.75906,62.24987C146.44406,62.67834 147.24316,62.98267 148.16856,63.3262C148.94614,63.61485 149.84093,63.77623 150.00206,64.59286C150.17924,65.49082 150.61633,66.15496 151.65007,66.4402C152.41579,66.65148 152.96202,67.20334 153.70723,67.78837C154.36708,68.30639 155.2234,68.71437 155.80324,69.2942C156.48106,69.97203 156.76883,70.87518 157.44456,71.3717C158.03271,71.80386 158.8257,72.21045 158.99924,72.92487C159.21173,73.79962 159.72659,74.53542 160.08589,75.29287C160.49638,76.15824 161.35721,76.59048 161.83524,77.49287C162.17862,78.14109 162.51746,78.99802 163.20056,79.69154C163.71265,80.21143 164.2634,81.07539 164.61256,81.6782C165.16377,82.62981 165.6954,83.16824 166.00189,84.0137C166.34367,84.95655 166.57684,85.63139 167.02724,86.54353C167.42747,87.35408 167.82573,87.98702 167.98106,88.97203C168.12466,89.88258 168.4352,90.60728 169.15123,91.05687C169.9702,91.57109 170.00024,92.36487 170.00189,93.09554C170.00415,94.09287 169.97784,94.91489 170.2859,95.8902C170.57498,96.8054 170.95763,97.66071 171.00189,98.49287C171.04462,99.29627 171.58047,100.00235 172.00189,100.8262C172.45572,101.71341 172.65828,102.48394 172.88057,103.3497C173.09927,104.20154 173.8918,104.5958 174.39124,105.3542C174.79396,105.96574 174.95877,107.02402 175.2234,108.03537C175.40813,108.74133 175.51288,109.59493 176.29739,110.32137C176.88959,110.86971 177.12404,111.41602 177.70723,112.14104C178.25345,112.8201 178.99068,113.54333 179.00189,114.34354C179.01563,115.32344 179.6871,115.93489 179.94473,116.79737C180.19203,117.62527 179.86029,118.54083 180.2234,119.47153C180.49773,120.17465 181.21361,120.96844 181.5659,121.63153C182.01884,122.48407 182.32233,123.22402 182.80324,124.0102C183.26323,124.7622 183.75502,125.36709 183.97656,126.3182C184.20935,127.31757 184.53889,127.95717 185.20056,128.69287C185.72975,129.28127 186.00366,130.22278 186.4379,130.90353C186.94514,131.69873 187.50008,132.27698 187.83524,133.3262C188.07013,134.06152 187.99155,135.05527 188.70723,135.4447C189.61571,135.93904 189.78661,136.51868 190.01256,137.4422C190.20976,138.24818 190.58298,139.1636 191.44456,139.49303C192.24216,139.79799 192.93227,140.05141 193.2234,140.81419C193.55785,141.69043 194.17227,142.42371 194.5659,143.0822C195.07942,143.94125 195.00189,144.89287 195.00189,145.79286C195.00189,146.69287 194.85539,147.62691 195.08723,148.29286C195.39557,149.17851 195.99147,149.97185 196.00189,150.84554C196.01163,151.66214 196.00189,152.49287 196.00189,153.51421C196.00189,154.34354 196.00189,155.32353 196.00189,156.10353C196.00189,156.99287 195.91737,157.89687 196.00189,158.78836C196.0856,159.67137 196.76926,160.22321 196.94473,161.14104C197.13629,162.14299 197.33522,162.8262 198.00189,163.49287C198.66856,164.15955 199.00189,164.93553 199.00189,165.6422C199.00189,166.65953 198.93524,167.38266 199.01256,168.31821C199.09657,169.33473 199.78168,169.96089 200.00189,170.77954C200.23048,171.62932 199.96544,172.4727 200.00189,173.47203C200.0305,174.2561 200.38939,175.13177 200.64923,175.84019C201.01593,176.83992 201.00189,177.79286 201.00189,178.69153C201.00189,179.54553 201.00189,180.4447 201.00189,181.34354C201.00189,182.25003 201.00189,183.0137 201.00189,183.97203C201.00189,184.85004 201.00189,185.78836 201.00189,186.65953C201.00189,187.59286 201.02898,188.49333 201.00189,189.29286C200.9733,190.13715 200.08565,190.64694 200.00189,191.4782C199.91515,192.33917 200.1774,193.27586 199.9659,194.10353C199.74799,194.95625 199.04462,195.68985 199.00189,196.5927C198.96054,197.46655 198.96745,198.29486 198.15123,198.8822C197.39719,199.42479 197.02568,199.99318 197.00172,200.93553C196.98373,201.64288 196.48181,202.47203 195.61256,202.49287C194.71683,202.51436 193.8019,202.49287 192.9019,202.49287C192.00189,202.49287 191.12323,202.49287 190.2859,202.49287C189.4339,202.49287 188.5699,202.49287 187.55923,202.49287C186.85257,202.49287 185.7804,202.49287 184.9019,202.49287C184.00189,202.49287 183.11798,202.77487 182.3019,202.37854C181.54433,202.01062 181.13152,201.13824 180.52274,200.5137C179.93631,199.91209 180.00189,199.00887 180.00189,198.14554C180.00189,197.12886 180.16466,196.23599 179.78056,195.39287C179.42523,194.61285 179.00723,193.85692 179.00189,193.01021C178.99681,192.20271 179.00189,191.1402 179.00189,190.27136C179.00189,189.39287 179.00189,188.49287 179.00189,187.69287C179.00189,186.79286 179.16451,185.8777 179.00189,185.0137C178.83231,184.11261 178.08292,183.70329 177.5699,183.06087C176.90509,182.22836 177.00189,181.34354 177.00189,180.4102C177.00189,179.49287 177.00189,178.69153 177.00189,177.79286C177.00189,176.89287 177.00189,175.99287 177.00189,175.09286C177.00189,174.19737 177.00189,173.32353 177.00189,172.49287C177.00189,171.5137 176.71886,170.60696 177.11623,169.79286C177.48424,169.03889 178.70134,168.92439 179.00189,168.05687C179.28326,167.24474 179.00189,166.27136 179.00189,165.39287C179.00189,164.49287 178.50229,163.54437 179.00189,162.7782C179.38829,162.18562 180.27063,161.91702 180.64923,161.1982C181.07043,160.39845 181.82227,159.89676 182.00189,158.97203C182.1675,158.11946 182.00189,157.15953 182.00189,156.47203C182.00189,155.3782 182.00189,154.49287 182.00189,153.65953C182.00189,152.78754 182.00189,151.8262 182.00189,150.99287C182.00189,150.1357 182.02274,149.19713 182.00189,148.32353C181.98106,147.45045 181.70949,146.46504 181.29657,145.90187C180.7579,145.16721 179.86229,144.86635 179.16856,144.3262C178.60194,143.88503 178.22176,142.94061 177.24474,142.61436C176.47221,142.3564 175.45744,142.52406 174.74057,142.47153C173.94673,142.41335 172.90111,142.08524 172.24857,141.6422C171.64096,141.22968 170.76881,140.55016 169.83257,140.49287C169.00345,140.44215 168.05254,140.48227 167.29207,140.1402C166.48453,139.77695 165.43906,139.58324 165.00189,138.97203C164.50453,138.27667 163.84366,137.60039 163.02274,137.5137C162.06802,137.41289 161.50911,136.9368 160.6019,136.5182C159.82422,136.15938 159.29448,135.54578 158.9299,134.8822C158.48074,134.06467 157.34581,133.90723 157.00156,133.0502C156.7368,132.3911 156.19412,131.82907 155.5699,131.4102C154.78822,130.88568 154.81812,129.85591 154.29739,129.1982C153.71387,128.46115 153.03514,127.9562 152.64923,127.18837C152.20595,126.3064 152.17894,125.62638 151.83524,124.65953C151.54749,123.85009 151.03976,123.08212 151.00172,122.1717C150.96756,121.35413 150.31911,120.71106 150.01256,119.9182C149.70192,119.11476 150.16328,118.07346 149.55923,117.39287C148.9846,116.74543 148.08765,116.30686 148.00189,115.4402C147.90862,114.49747 148.00189,113.65953 148.00189,112.78304C148.00189,111.97553 148.00189,111.03453 148.00189,110.05003C148.00189,109.30753 148.00189,108.3782 148.00189,107.39287C148.00189,106.49287 148.0025,105.69287 148.00189,104.85004C148.00122,103.9222 148.01961,103.06364 147.7179,102.09554C147.48393,101.34479 147.01231,100.5139 147.00189,99.69154C146.99051,98.79294 147.16624,97.87386 146.98106,96.99287C146.80206,96.14123 146.16856,95.3262 146.02274,94.5137L146.00189,93.6072L146.00189,92.78754L146.00189,91.8262" id="svg_1" stroke-width="3" stroke="#000" fill="none"/>
  <path t="11906,12124,12150,12180,12360,12389,12389,12410,12426,12450,12466,12485,12493,12501,12501,12509" d="M182.00189,146.49287C183.00189,146.49287 183.94736,146.70799 184.7179,146.49287C185.52863,146.26654 186.02332,145.29092 186.7019,144.85004C187.49425,144.33525 188.08923,143.78899 188.85257,143.5182C189.73782,143.20418 190.11623,142.49736 191.00189,142.4512L191.75906,142.0502L192.01657,141.34354L192.54356,140.5137" id="svg_2" stroke-width="3" stroke="#000" fill="none"/>
  <path t="13438,13709,13733,13764,13852,13925,13989,13989,14053,14053,14101,14117,14133,14133,14156,14188,14228,14252,14252,14260,14268,14268,14277,14284,14292,14300,14300,14309,14309,14316,14316,14324,14324,14324,14332,14332,14340,14348,14348" d="M183.00189,155.49287C184.00189,155.49287 184.91789,155.49287 185.7179,155.49287C186.61256,155.49287 187.5659,155.49287 188.44456,155.49287C189.29657,155.49287 190.08392,155.77623 190.80324,156.20886C191.53719,156.6503 192.35828,157.0495 193.32306,157.37154C193.95773,157.58339 194.76022,157.87762 195.00323,158.69153C195.24039,159.48581 196.33923,159.68393 196.71657,160.37953C197.17751,161.22923 197.29585,162.27512 198.00189,162.4512C198.98929,162.69745 199.51825,163.13672 199.98723,163.89287C200.50928,164.7346 201.21208,165.05545 201.98056,165.59286C202.65044,166.06133 203.51237,166.65474 204.17656,167.12886C204.86501,167.6203 205.31815,168.36536 205.88589,169.00887C206.58363,169.7997 207.29207,170.18837 207.95123,170.8822L208.5699,171.40753L209.4339,171.49153" id="svg_3" stroke-width="3" stroke="#000" fill="none"/>
  <path t="16366,16493,16493,16502,16518,16526,16526,16541,16557,16557,16573,16582,16582,16613,16613,16622,16629,16629,16653,16765,16901,16901,16941,16997,17013,17021,17029,17173,17277,17341,17413,17453,17453,17485,17485,17509,17533,17533,17533,17807,17818,17838,17838,17889,17889,17930,17930,17973,18021,18021,18021,18053,18133" d="M220.00189,142.49287C220.00189,143.49287 220.00189,144.29286 220.00189,145.19287C220.00189,146.12886 220.09589,146.98103 220.00189,147.78304C219.89047,148.7338 219.08972,149.47919 219.00639,150.19287C218.89784,151.12256 219.14781,151.98883 219.00189,152.78304C218.83244,153.70534 217.73047,153.77756 217.17256,154.69287C216.74681,155.39136 216.89075,156.36951 216.15123,156.8822C215.38779,157.41148 214.86516,157.98933 214.39124,158.6422C213.79871,159.45845 212.8019,159.49287 211.9019,159.49287C211.00189,159.49287 210.1234,159.49287 209.29657,159.49287C208.33524,159.49287 207.35472,159.31052 206.70639,159.85454C205.96477,160.47684 205.98651,161.31769 206.00189,162.3262C206.01508,163.19017 206.50168,163.87772 207.00189,164.8262C207.34241,165.47189 207.65446,166.18024 207.91656,167.2382C208.11047,168.02094 208.44891,168.81064 209.00189,169.49287C209.67387,170.32193 209.89417,171.07442 210.22324,171.93553C210.50526,172.67355 210.99815,173.515 211.28723,174.34621C211.51973,175.01476 211.80324,175.7262 212.29739,176.67404L212.95374,177.4357" id="svg_4" stroke-width="20" stroke="#fff" fill="none"/>
  <path t="20782,21173,21173,21269,21421,21485,21485,21494,21557,21566,21677,21701,21733,21837,21837,21869,21916,21933,22030,22053,22053,22173,22173,22261,22269,22277,22285,22293,22293,22293" d="M195.00189,157.49287C195.35907,158.1982 195.90791,158.80881 196.5659,159.50754C197.08817,160.06213 196.74036,161.2515 197.17256,161.92354C197.62827,162.63211 198.91595,162.48022 199.00189,163.1982C199.11613,164.15271 199.00189,165.0137 199.00189,165.90353C199.00189,166.81404 199.00189,167.63153 199.00189,168.57553C199.00189,169.49287 199.01105,170.36458 199.52274,171.03453C200.1122,171.80632 200.57294,172.45956 200.83524,173.3262C201.08937,174.16588 201.00189,175.09286 201.00189,175.99287C201.00189,176.89287 201.00189,177.79736 201.00189,178.65953L201.02274,179.55537L201.08723,180.26486" id="svg_5" stroke-width="3" stroke="#000" fill="none"/>
  <path t="24415,25214,25214,25238,25317,25317,25357,25375,25389,25390,25405,25469,25469,25493,25502,25511,25541,25557,25573,25621,25637,25661,25677,25688,25705,25718,25718,25742,25752,25769,25770,25838,25847,25862,25863,25942,25982,25982,26029,26077,26078,26093,26397,26438,26526,26581,26581,26597,26606,26630,26637,26693,26702,26781,26781,26805,26837,26870,26870,26926,26926,26958,26958,27006,27006,27015,27015,27054,27054,27093,27094,27118,27134,27134,27143,27166,27166,27183,27183,27189,27190,27206,27254,27254,27278,27294,27318,27318,27349,27349,27389,27389,27398,27406,27413,27429,27438,27469,27469,27501,27510,27533,27542,27565,27574,27582,27582,27598,27606,27613,27629,27669,27677,27685,27694,27702,27710,27765,27765,27765,27773,27811,27827,27851,27891,27891,27923,27931,27931,27955,27955,27955,27963,27981,28077,28077,28445,28546,28645,28698,28698,28722,28758,28758,28794,28834,28834,28941,28941,28989,28989,29029,29037,29053,29069,29101,29117,29133,29141,29157,29173,29205,29221,29229,29245,29257,29261,29269,29301,29317,29333,29341,29350,29367,29373,29381,29389,29397,29437,29437,29461,29477,29517,29525,29541,29550,29557,29573,29581,29613,29629,29661,29677,29693,29701,29709,29733,29733,29757,29767,29789,29805,29813,29821,29821,29844,29908,29909,29949,29949,29965,29973,29982,29998,30013,30029,30038,30069,30093,30125,30133,30150,30189,30205,30221,30285,30317,30341,30341" d="M163.00189,138.49287C164.00189,138.65953 164.80038,139.14706 164.98106,139.97203C165.18726,140.91344 165.00189,141.6422 165.00189,142.71437C165.00189,143.59286 165.00189,144.49287 165.00189,145.29286C165.00189,146.20753 165.00189,147.06087 165.00189,147.92487C165.00189,148.92886 165.00189,149.79286 165.00189,150.69153C165.00189,151.5542 165.00189,152.34354 165.00189,153.37854C165.00189,154.19737 165.00189,155.09286 165.00189,155.99287C165.00189,156.89287 165.00189,157.79286 165.00189,158.69287C165.00189,159.59303 165.00182,160.3782 165.00189,161.30754C165.00198,162.2502 165.32269,163.04361 165.64923,163.78754C166.04781,164.69557 165.95409,165.59413 166.00189,166.49287C166.04462,167.29626 166.64711,167.96338 166.91656,168.97554C167.08641,169.61354 167.00189,170.71454 167.00189,171.65953C167.00189,172.47203 167.00189,173.37854 167.00189,174.1982C167.00189,175.15953 166.42723,175.49287 165.55923,175.49287C164.70723,175.49287 163.71657,175.49287 162.90207,175.49287C161.97656,175.49287 161.20056,175.49287 160.16856,175.49287C159.35522,175.49287 158.51923,175.49287 157.57123,175.49287C156.64473,175.49287 155.77864,175.58923 154.83524,175.3262C154.15359,175.13615 153.16306,174.68097 152.37656,174.46753C151.50986,174.23232 150.8134,173.83334 149.80206,173.61436C149.03406,173.44807 147.95563,173.70348 147.3064,173.37854C146.54752,172.99873 146.19217,171.89716 145.34923,171.60721C144.52605,171.32407 143.50189,171.49287 142.68056,171.49287C141.82722,171.49287 140.8399,171.65619 140.00189,171.3262C139.16742,170.9976 138.34604,170.52591 137.5974,170.49736C136.60527,170.45952 135.76793,170.62506 135.05257,170.05687C134.28357,169.44609 133.9213,168.7211 132.89656,168.49736C132.15794,168.33611 131.16856,168.49287 130.28856,168.49287C129.29657,168.49287 128.53476,168.6162 127.55923,168.27153C126.81428,168.00833 125.98728,167.49821 125.20056,167.49287C124.30192,167.48679 123.40189,167.49287 122.4379,167.49287C121.55923,167.49287 120.70723,167.49287 119.78056,167.49287C118.89207,167.49287 118.0019,167.49287 117.11623,167.49287C116.29656,167.49287 115.33523,167.49287 114.43256,167.49287C113.65006,167.49287 112.63789,167.49287 111.80323,167.49287C110.9179,167.49287 109.98106,167.4928 109.15123,167.49287C108.24473,167.49295 107.65992,168.11226 106.80323,168.40753C105.93803,168.70575 105.11317,168.41093 104.0019,168.65953C103.39307,168.79573 102.51086,169.31261 101.63789,169.45686C100.71799,169.60887 100.25919,170.16841 99.64023,170.49287C98.79041,170.93834 97.81524,170.44167 97.05257,170.9182C96.38361,171.33617 95.48042,171.31113 94.66856,171.8262C94.04439,172.22221 93.57276,173.12273 92.63789,173.42087C91.83836,173.67584 90.77872,173.6067 90.28723,174.2942C89.80002,174.97572 88.93309,175.88651 88.2449,175.27136C87.63686,174.72787 88.08058,173.60329 87.99123,172.67821C87.90796,171.81606 87.02366,171.59229 86.4379,170.84621C85.87806,170.13315 86.2916,169.02919 85.66856,168.3262C85.16786,167.76125 84.12723,167.41945 84.00456,166.60753C83.86573,165.68863 84.0102,164.73566 84.0019,163.97203C83.99148,163.01353 83.25475,162.49519 83.0379,161.6422C82.81436,160.76295 83.0019,159.9182 83.0019,158.97203C83.0019,158.10353 83.0019,157.20753 83.0019,156.29286C83.0019,155.39287 83.0019,154.49287 83.0019,153.61403C83.0019,152.78754 83.0019,151.8262 83.0019,150.97203C83.0019,150.09286 83.0019,149.19287 83.0019,148.29286C83.0019,147.39304 83.0019,146.50754 83.0019,145.6422C83.0019,144.7357 83.00182,143.8822 83.0019,143.0137C83.00198,142.0502 82.98567,141.3121 83.5019,140.5137C83.95357,139.81516 84.0019,138.97203 84.0019,138.10353C84.0019,137.1357 84.0019,136.29286 84.0019,135.39287C84.0019,134.49287 84.0019,133.57553 84.0019,132.78754C84.0019,131.8262 84.63354,131.31949 84.98106,130.47203C85.29601,129.70401 84.95602,128.6243 85.5019,127.99287C86.11849,127.27963 86.8005,126.83228 86.99123,125.89287C87.16628,125.03073 87.74904,124.49519 87.9659,123.6422C88.18948,122.76279 88.0019,121.78754 88.0019,121.06087C88.0019,120.06754 87.78602,119.11045 88.0739,118.34354C88.36969,117.55555 89.68549,117.70103 90.0019,117.05687C90.38283,116.28138 90.0019,115.29287 90.0019,114.39304C90.0019,113.47153 90.0019,112.6422 90.0019,111.66354C90.0019,110.8822 89.99966,109.99287 90.0019,109.09286C90.00415,108.19286 90.49448,107.43085 90.88039,106.6142C91.19743,105.94332 91.0019,104.99287 91.0019,104.09286L91.0019,103.10353L91.0019,102.15953L91.0019,101.49287" id="svg_6" stroke-width="3" stroke="#000" fill="none"/>
  <path t="31094,31501,31533,31533,31541,31549,31605,31677,31677,31693,31693,31716,31717,31725,31748,31749,31757,31757,31773,31773,31789,31805,31837,31853,31869,31901,31901,31909,31949,31957,31957,31973,32014,32015,32029,32038,32069,32085,32086,32109,32109,32133,32150,32150,32181,32181,32214,32325,32325,32340,32350,32366,32405,32422,32422,32432,32432,32446,32455,32485,32493,32509,32510,32518,32541,32557,32557,32566,32574,32590,32613,32622,32623,32631,32638,32653,32662,32669,32678,32693,32693,32709,32725,32733,32742,32749,32766,32781,32798,32806,32815,32822,32831,32838,32846,32846,32853,32869,32909,32933,32941,32957,32965,32981,32982,32997,33015,33029,33061,33085,33094,33118,33182,33214,33214,33293,33294,33310" d="M86.0019,82.49287C86.0019,83.5137 86.0019,84.47137 86.0019,85.29153C86.0019,86.19287 85.96565,87.13271 86.4379,87.90353C86.93063,88.7078 87.49488,89.27865 87.83523,90.3262C88.06287,91.02686 88.33523,91.8262 89.0019,92.49287C89.66856,93.15953 90.14906,93.8366 90.52273,94.5137C90.97849,95.33956 91.52365,95.95157 92.20056,96.69287C92.73418,97.27725 92.62838,98.29501 93.0379,99.05687C93.42995,99.78624 94.51022,99.97843 95.3019,100.4447C96.1105,100.92094 96.09945,101.83306 96.9659,102.42087C97.58263,102.83927 98.79584,102.60807 98.99923,103.2942C99.26001,104.17393 100.04295,104.31125 100.8019,104.5782C101.56299,104.84591 101.86285,106.00731 102.52273,106.49287C103.2164,107.00329 103.85895,107.34116 104.65456,107.78837C105.49117,108.25861 106.46146,108.35182 107.10207,108.93553C107.75759,109.53284 108.30228,110.35025 109.14056,110.47153C110.07507,110.60674 111.0019,110.49287 111.8019,110.49287C112.7019,110.49287 113.61459,110.64169 114.48106,110.49287C115.3239,110.34811 115.97246,109.46027 116.52273,108.99287C117.2851,108.34531 118.20649,108.20523 118.7589,107.39304C119.2523,106.66759 119.56638,106.00565 119.94923,105.19287C120.35891,104.32315 120.7467,103.63131 121.48106,103.0137C122.17522,102.42991 123.04914,102.19106 123.48106,101.49287C123.9742,100.69572 124.81754,100.58948 125.48106,99.99287C126.14284,99.39783 126.12666,98.45857 126.7064,97.79287C127.25949,97.15776 127.87279,96.39194 128.00189,95.5182C128.10988,94.7874 129.01088,94.31561 129.66856,93.65953C130.16034,93.16896 130.05052,92.19199 130.57657,91.4782C131.047,90.83988 131.98283,90.95828 132.71657,90.40753C133.3326,89.94513 133.11235,88.82328 133.80324,88.40887C134.59805,87.93211 134.86391,86.97987 135.52274,86.49287C136.20869,85.9858 136.62767,85.31255 137.02322,84.50754C137.37558,83.79046 138.4227,83.53714 138.88756,82.5982C139.25081,81.86451 138.85059,80.72297 139.35907,80.1402C139.95741,79.45443 141.11691,79.93459 141.91789,79.4902C142.6434,79.08769 142.68086,77.83629 143.50189,77.53453C144.33809,77.2272 144.942,76.94204 145.35457,76.19287C145.81636,75.35432 146.23958,74.69994 147.10173,74.4927C147.94313,74.29044 148.44456,73.61436 149.29657,73.49737L150.00189,73.15953L150.0379,72.34354L150.42723,71.56487" id="svg_7" stroke-width="3" stroke="#000" fill="none"/>
  <path t="35087,35261,35285,35302,35310,35318,35326,35341,35350,35358,35382,35390,35398,35414,35430,35446,35462,35470,35485,35491,35500,35524,35532,35540,35548,35564,35589,35629,35638,35646,35653,35663,35663,35669,35685,35695,35695,35725,35725,35733,35741,35758,35765,35765,35773,35781,35782,35789,35798,35798,35837,35853,35853,35869,35869,35901,35901,35917,35941,35949,35949,35973,35989,36101,36110,36125,36141,36150,36150,36166,36173,36181,36189,36198,36205,36213,36221,36261,36277,36277,36285,36295,36302,36333,36341,36357,36373,36373,36389,36397,36397,36402,36418,36422,36434,36442,36450,36450,36458,36466,36482,36501,36517,36517,36565,36581,36581,36613,36628,36645,36645,36661,36669,36678,36733,36741,36773,36773,36789,36797,36803,36811,36811,36811,36811,36819,36819,36819,36827,36827,36835,36835,36843,36851,36859,36875,36883,36894,36901,36915,36915,36923,36931,36947,36955,36963,36971,36979,36998,36998,36998,37011,37019,37027,37035,37043,37075,37075,37083,37094,37101,37107,37123,37131,37139,37147,37163,37171,37229,37229,37237,37237,37277,37277,37517,37541,37542,37573,37605,37605" d="M139.00189,59.49287C138.15123,59.49287 137.24474,59.49287 136.39124,59.49287C135.50189,59.49287 134.6019,59.49287 133.70639,59.49287C132.7804,59.49287 131.90207,59.49287 131.02724,59.49287C130.12306,59.49287 129.29657,59.49287 128.33524,59.49287C127.48106,59.49287 126.6019,59.49287 125.7019,59.49287C124.8019,59.49287 123.90189,59.49278 123.0019,59.49287C122.12323,59.49295 121.56065,60.17928 120.7019,60.4357C119.83906,60.69334 118.89207,60.49287 118.0019,60.49287C117.11623,60.49287 116.29739,60.49287 115.40189,60.49287C114.5019,60.49287 113.6019,60.49287 112.6974,60.49287C111.83523,60.49287 111.02273,60.49287 110.0019,60.49287C109.14056,60.49287 108.10861,60.26116 107.41257,60.56487C106.54008,60.94557 106.46854,62.04663 105.6019,62.42087C104.773,62.7788 103.8019,62.49287 102.90173,62.49287C102.11656,62.49287 101.13202,62.32462 100.16856,62.65953C99.49002,62.8954 99.15173,64.091 98.4339,64.40753C97.63962,64.75777 96.61874,64.4179 95.68056,64.7142C94.98098,64.93515 94.15524,65.26657 93.28857,65.49153C92.41643,65.71791 91.69027,66.09852 90.78056,66.49303C90.03462,66.81653 89.58099,67.62766 88.85256,68.05687C88.04494,68.53275 87.48106,69.0137 86.80323,69.69154C86.1234,70.37137 85.58598,70.93147 84.78056,71.4932C84.13082,71.94637 84.24724,72.67064 84.00173,73.7142C83.81691,74.4998 83.1473,74.94101 82.9974,75.79287C82.8343,76.71976 82.06286,77.36403 82.0019,78.10353C81.92358,79.05365 82.0257,79.99317 82.00173,80.93553C81.98374,81.64288 81.28481,82.35245 81.01257,83.10353C80.71641,83.92059 80.22703,84.42946 80.00639,85.19736C79.74916,86.09266 80.11378,86.98332 80.0019,87.78304C79.85851,88.80795 79.08971,89.47917 79.00639,90.19287C78.89707,91.12936 79.0019,92.06087 79.0019,92.92487C79.0019,93.85004 79.0019,94.6942 79.0019,95.65953C79.0019,96.47203 79.0019,97.43153 79.0019,98.19736C79.0019,99.1357 79.05942,100.06947 79.00156,100.93553C78.94427,101.79322 78.10971,102.02645 77.33523,102.65953C76.78114,103.11245 77.0019,104.20753 77.0019,105.13953C77.0019,105.97687 77.0019,106.8402 77.0019,107.85686C77.0019,108.69287 77.09058,109.59724 77.0019,110.49287C76.91816,111.33857 76.07188,111.92936 76.01257,112.6422C75.92819,113.65608 76.00198,114.49287 76.0019,115.41286C76.00182,116.3787 76.01556,116.91779 75.9659,117.89954C75.92976,118.61366 75.80479,119.67648 75.57656,120.63554C75.37575,121.47936 75.1796,122.36292 74.94923,123.24104C74.70742,124.1628 74.23641,124.80953 74.05907,125.7357C73.87874,126.67747 74.0019,127.5927 74.0019,128.4782C74.0019,129.34354 74.0019,130.25003 74.0019,131.13954C74.0019,131.97687 74.0019,132.84019 74.0019,133.7357C74.0019,134.69287 74.0019,135.59286 74.0019,136.49287C74.0019,137.37154 74.0019,138.19737 74.0019,139.1357C74.0019,139.99287 74.0019,140.76888 74.0019,141.64087C74.0019,142.65953 74.0019,143.49287 74.0019,144.47203C74.0019,145.2942 73.98016,146.14795 74.2859,146.97554C74.59274,147.80615 75.00123,148.66087 75.0019,149.49287C75.00272,150.50754 75.0019,151.25453 75.0019,152.30754C75.0019,153.15953 75.0019,154.0137 75.0019,154.8822C75.0019,155.85004 74.90553,156.71613 75.16856,157.65953C75.35862,158.34117 75.90894,159.3141 75.99123,160.0462C76.10459,161.05457 75.8723,161.79622 76.00323,162.7782C76.11475,163.61464 76.7179,164.29286 76.9974,165.1357L77.5699,165.49287L78.4339,165.49287" id="svg_8" stroke-width="3" stroke="#000" fill="none"/>
  <polyline timestamps="39149,39372" startTime="1502010509035" id="svg_9" points="77.00189711787027,162.49286762621546 79.50189711787027,162.49286762621546 " stroke-linecap="round" stroke-width="3" stroke="#000" fill="none"/>
  <path t="40470,40986,41037,41077,41173,41189,41213,41221,41245,41269,41269,41285,41285,41317,41317,41373,41373,41413,41413,41413,41421,41493,41493,41517,41517,41525,41533,41557,41797,41797,41925,41949,41958,41974,41981,41997,42006,42006,42037,42053" d="M74.0019,162.49287C73.0019,163.49287 73.0019,164.3717 73.0019,165.1982C73.0019,166.15953 73.0019,167.0137 73.0019,167.89287C73.0019,168.79286 72.8337,169.75226 73.2234,170.59303C73.50188,171.19388 74.25916,171.95154 74.5659,172.70354C74.95792,173.66467 74.8831,174.50407 75.16856,175.3262C75.42223,176.05678 76.11743,177.02905 76.39123,177.73286C76.66029,178.42451 76.96978,179.45076 77.70723,179.84554C78.42349,180.22896 78.83199,180.96524 79.0379,181.6422C79.31236,182.54454 80.41241,182.36015 81.3019,182.49736C82.23328,182.64104 82.77005,183.34789 83.71656,183.49153C84.60242,183.62598 85.49268,183.63078 86.35906,183.48837C87.23402,183.34456 87.88073,182.61436 88.70723,182.48387L89.4339,182.3222L89.96023,181.49287L90.0019,180.5542" id="svg_10" stroke-width="3" stroke="#000" fill="none"/>
  <path t="43820,44133,44141,44149,44157,44213,44221,44239,44239,44245,44269,44269,44285,44317,44317,44326,44333,44333,44397,44413,44421,44453,44501,44501,44501,44565,44581,44581,44621,44653,44653,44685,44685,44693,44701,44710,44717,44749,44773,44783,44789,44789,44822,44827,44851,44851,44859,44859,44875,44899,44899,44917,44983,44983,45070,45070,45089,45089,45093,45105,45105,45109,45155,45171,45171,45179,45179,45213,45213,45251,45259,45267,45287,45291,45299,45299,45309,45317,45318,45323,45331,45347,45379,45387,45395,45427,45427,45427,45427,45487,45505,45505,45539,45539,45539,45547,45547,45571,45579,45587,45595,45619,45623,45627,45635,45659,45659,45675,45683,45691,45691,45691,45709,45723,45731,45739,45739,45747,45779,45779,45795,45795,45803,45814,45822,45835,45843,45851,45875,45875,45899,45899,45947,45947,45955,45955,46003,46051,46059,46067,46109,46109,46117,46123,46147,46147,46199,46199,46253,46253,46253,46277,46278,46278,46293,46309,46309,46333,46403,46403,46430,46430,46434,46454,46470,46477,46645,46677,46805,46805,46821,46838,46893,46909,46919,46919,47045" d="M90.0019,170.49287C89.17256,171.06754 89.9974,171.60268 90.0019,172.49287C90.0067,173.44218 90.0019,174.34354 90.0019,175.2502C90.0019,176.06219 89.89548,176.85136 90.01257,177.86754C90.12356,178.83083 90.68358,179.40404 90.94473,180.37854C91.15858,181.17653 90.89489,182.01834 91.02273,182.99287C91.13268,183.83102 91.51515,184.72786 92.20056,185.32353C92.84022,185.87943 92.94653,186.66528 93.02273,187.53453C93.10738,188.5002 93.46723,189.26743 93.7179,190.00754C94.03215,190.93544 94.0019,191.93553 94.0019,192.6422C94.0019,193.65953 93.91361,194.60774 94.08723,195.3782C94.26585,196.1709 94.82384,196.98483 94.9659,197.85687C95.1165,198.78137 95.0019,199.69153 95.0019,200.60271C95.0019,201.49287 95.0019,202.38304 95.0019,203.13954C95.0019,204.14554 94.95444,204.84131 95.0019,205.84621C95.04461,206.75055 95.36784,207.55128 95.57656,208.25287C95.90115,209.3439 95.99965,210.18385 96.0019,211.05687C96.00449,212.06087 95.91058,212.79187 96.00323,213.77954C96.08685,214.67102 96.52905,215.28276 96.83523,216.3262C97.07246,217.13469 96.97069,218.03732 97.02323,218.7542C97.08142,219.54803 97.39503,220.60411 97.85256,221.23553C98.37988,221.96326 99.09019,222.74434 99.35456,223.55537C99.58141,224.25131 99.93098,225.34435 99.99123,226.10753C100.05956,226.97292 100.0019,227.92354 100.0019,228.85004C100.0019,229.69287 100.0019,230.5927 100.0019,231.5137C100.0019,232.3542 100.0019,233.3262 100.0019,234.18837C100.0019,235.0137 100.0019,235.97687 100.0019,236.66754C100.0019,237.7357 100.0019,238.59286 100.0019,239.49287C100.0019,240.4447 100.0019,241.1982 100.0019,242.15953C100.0019,243.15953 100.0019,243.90804 100.0019,244.5137C100.0019,245.4422 100.0019,246.62137 100.0019,247.49287C100.0019,248.30721 100.0019,249.26221 100.0019,250.0137C100.0019,250.8102 100.0019,252.0267 100.0019,252.77403C100.0019,253.7782 100.0019,254.5927 100.0019,255.54553C100.0019,256.29419 100.0019,257.3262 100.0019,258.10355C100.0019,258.99286 100.0019,259.97205 100.0019,260.93555C100.0019,261.64221 100.0019,262.60721 100.0019,263.53455C100.0019,264.49286 100.0019,265.2822 100.0019,266.00754C100.0019,267.08221 100.09592,267.93994 99.64923,268.79288C99.25529,269.5451 99.00256,270.29288 99.0019,271.20752C99.00118,272.19821 99.0019,272.92487 99.0019,273.9357C99.0019,274.67819 99.0019,275.73569 99.0019,276.59271C99.0019,277.5137 99.0019,278.34354 99.0019,279.25003C99.0019,280.13953 99.0019,280.97552 99.0019,281.78302C99.0019,282.8262 99.0807,283.7681 98.55923,284.47137C98.113,285.07318 97.09018,285.67911 97.00456,286.3782C96.89159,287.30063 96.97869,288.30881 96.57656,288.92886C96.02856,289.77386 96.0019,290.59305 96.0019,291.3782C96.0019,292.30753 96.0019,293.3222 96.0019,294.19821C96.0019,294.92487 95.73987,295.91928 95.5019,296.55536C95.09775,297.63565 95.03997,298.44467 95.01257,299.26755C94.97733,300.32568 94.75278,301.08768 95.08723,301.92087C95.40107,302.70273 96.2228,303.33569 96.48106,303.99286C96.86909,304.98022 96.87728,305.95862 97.0739,306.67819C97.30463,307.52258 98.23393,307.91898 99.01656,308.51819C99.65977,309.01065 99.73363,309.93445 100.00639,310.78836C100.2485,311.54633 101.50321,311.37955 102.1019,311.93555C102.73622,312.52463 103.18988,313.40717 104.1019,313.49286C104.99796,313.57706 105.88073,313.49286 106.70723,313.48386L107.4339,313.3222L107.96023,312.53455" id="svg_11" stroke-width="3" stroke="#000" fill="none"/>
  <path t="61869,62260,62301,62301,62388,62388,62388,62468,62468,62468,62492,62524,62540,62548,62564,62564,62580,62580,62636,62668,62692,62692,62700,62739,62739,62747,62763,62763,62771,62795,62855,62865,62873,62873,62897,62905,62947,62963,62979,62987,62995,63011,63085,63086,63086,63093,63109,63125,63125,63133,63149,63149,63189,63197,63205,63206,63213,63237,63261,63269,63277,63285,63293,63309,63324,63348,63356,63364,63388,63405,63413,63422,63453,63477,63477,63500,63501,63525,63533,63557,63557,63565,63637,63653,63653,63693,63701,63709,63725,63741,63757,63765,63773,63789,63821,63827,63839,63843,63851,63867,63875,63883,63891,63899,63909,63926,63941,63941,63965,63973,63973,63981,63981,63989,64005,64013,64037,64045,64053,64085,64085,64097,64109,64117,64125,64125,64133,64141,64141,64153,64165,64165,64181,64188,64197,64213,64221,64241,64241,64277,64277,64285,64293,64321,64321,64345,64369,64381,64397,64413,64436,64437,64452,64477,64485,64501,64501,64509,64525,64525,64533,64541,64549,64573,64613,64661,64661" d="M110.0019,170.49287C110.7179,171.20886 110.95972,172.06732 111.0379,172.7142C111.15742,173.70326 111.52949,174.51089 111.80323,175.17821C112.21067,176.17145 112.5114,176.9632 112.71656,177.72354C113.00971,178.80998 112.99544,179.69156 113.0019,180.60271C113.00723,181.35426 113.08322,182.3833 113.61256,183.0822C114.12498,183.75874 114.82188,184.35617 114.9659,185.30754C115.10709,186.24026 115.3177,187.04817 115.57656,187.67821C116.00269,188.71532 116.29828,189.5461 116.64923,190.19287C117.09241,191.00961 117.0019,192.06219 117.0019,192.8447C117.0019,193.7312 117.17235,194.5773 117.85256,194.9182C118.75861,195.37227 119.0019,196.1982 119.0019,196.92487C119.0019,197.92886 119.0019,198.78836 119.0019,199.7142C119.0019,200.60271 119.0019,201.49287 119.0019,202.38304C119.0019,203.19737 119.0019,204.1357 119.0019,205.15703C119.0019,205.77954 119.0019,206.7262 119.0019,207.67853C119.0019,208.59286 119.0019,209.49287 119.0019,210.29286C119.0019,211.20753 119.32269,212.04361 119.64923,212.78754C120.04781,213.69557 120.0019,214.59286 120.0019,215.49287C120.0019,216.29286 119.81675,217.23451 120.0379,218.10353C120.25495,218.95648 120.95918,219.68837 121.0019,220.5542C121.04079,221.34258 121.0019,222.37854 121.0019,223.19737C121.0019,224.05687 121.0019,225.0137 121.0019,225.89287C121.0019,226.79286 121.0019,227.69153 121.0019,228.5542C121.0019,229.34354 121.0019,230.38304 121.0019,231.20886C121.0019,232.06087 121.0019,232.92487 121.0019,233.93553C121.0019,234.6422 121.0019,235.71437 121.0019,236.59286C121.0019,237.49287 121.0019,238.29286 121.0019,239.20753C121.0019,240.06754 121.0019,241.06087 121.0019,241.78754C121.0019,242.7782 121.27908,243.75761 120.94473,244.54553C120.60125,245.35498 120.01231,245.97186 120.0019,246.92886C119.9925,247.79282 120.0019,248.69287 120.0019,249.59286C120.0019,250.49287 120.0019,251.3717 120.0019,252.1982C120.0019,253.15953 120.14058,254.02641 119.99123,254.89287C119.84763,255.726 119.08564,256.4805 119.0019,257.3262C118.91606,258.19312 119.0019,259.09286 119.0019,259.97205C119.0019,260.93555 119.00208,261.64221 119.0019,262.65955C119.00173,263.59305 118.87759,264.4129 118.29656,265.14102C117.8839,265.65817 117.03794,266.42902 117.0019,267.19736C116.95995,268.09189 117.0019,268.99286 117.0019,269.89285C117.0019,270.78836 117.0019,271.8262 117.0019,272.49286C117.0019,273.52887 117.1277,274.31012 116.94473,275.25003C116.76509,276.17285 116.23806,276.72647 115.61256,277.4422C114.99599,278.14771 115.00256,278.92487 115.0019,279.93954C115.00133,280.81403 115.0019,281.63153 115.0019,282.60721C115.0019,283.49286 115.0019,284.38303 115.0019,285.19736C115.0019,286.09286 115.02768,287.0137 114.64923,287.79736C114.21996,288.68625 114.01231,289.47186 114.0019,290.38303C113.99246,291.2088 113.68811,292.04675 113.35456,292.78754C112.96808,293.64587 113.0019,294.49286 113.0019,295.50754C113.0019,296.29419 112.99329,297.26764 112.64923,298.14102C112.39032,298.79825 112.01134,299.77692 112.0019,300.60269C111.99148,301.51389 111.80921,302.31271 111.42723,303.08221C110.99261,303.95773 111.03909,304.82706 111.0019,305.64221C110.95919,306.57846 110.19203,307.15121 110.01257,308.09286C109.84406,308.97702 109.98056,309.89285 109.55923,310.59305L108.85256,311.12888" id="svg_15" stroke-width="3" stroke="#000" fill="none"/>
  <path t="66550,66796,66814,66826,66826,66866,66890,66906,66906,66938,67061,67061,67093,67093,67132,67140,67140,67157,67164,67164,67188,67205,67221,67229,67238,67245,67253,67261,67269,67277,67341,67349,67357,67381,67453,67477,67485,67485,67509,67525,67525,67533,67557,67557,67581,67589,67605,67629,67645,67717,67717,68213,68253,68444,68445,68549,68549,68645,68645,68669,68669,68717,68749,68749,68757,68861,68861,68893,68893,68956,68964,68965,68988,68989,69044,69045,69068,69084,69100,69181,69181,69277,69333,69349,69349,69358,69358,69381,69390,69397,69413,69429,69437,69445,69461,69477,69501,69556,69557,69572" d="M110.0019,310.49286C110.88039,309.71436 110.70793,310.86212 111.44456,311.37137C112.03295,311.77814 113.00661,311.63177 113.4379,312.34354C113.95196,313.19189 114.77467,313.2012 115.6019,313.56488C116.463,313.94348 116.55262,315.18808 117.33523,315.49286C118.0956,315.78897 119.16856,315.49286 120.0019,315.49286C120.8019,315.49286 121.83523,315.49286 122.70723,315.49286C123.4339,315.49286 124.4379,315.49286 125.3019,315.49286C126.2019,315.49286 127.10173,315.49286 128.02274,315.49286C128.85257,315.49286 129.5591,315.32217 130.08723,314.77686C130.62276,314.22391 131.72714,314.47742 132.48106,313.99286C133.19734,313.53247 134.00189,313.49286 135.01657,313.49286C135.80324,313.49286 136.83524,313.49286 137.70723,313.49286C138.4339,313.49286 139.54376,313.59525 140.2019,312.92487C140.69626,312.42133 141.30074,311.55017 142.16856,311.49286C142.97929,311.43933 143.95123,311.49286 144.85257,311.49286C145.75906,311.49286 146.61256,311.49286 147.48106,311.49286C148.44456,311.49286 149.15123,311.49286 150.16856,311.49286C151.05457,311.49286 152.11484,311.44839 152.5659,310.91821C153.19553,310.17816 153.01477,309.27145 153.00172,308.29303C152.99133,307.51349 152.83934,306.47253 152.39124,305.90353C151.78062,305.12814 151.2729,304.45233 150.91789,303.69287C150.53339,302.8703 150.21779,302.11047 149.9299,301.34354C149.63411,300.55554 148.5638,300.59503 147.64023,300.48837C146.66286,300.37552 146.02722,299.91943 145.02322,299.6142C144.26422,299.38345 143.29092,299.2326 142.71173,298.78836C141.96336,298.21436 141.41586,297.60995 140.7019,297.13571C139.91023,296.60983 139.22696,296.01236 139.00189,295.13571C138.76631,294.21811 139.1722,293.29916 138.96024,292.5137C138.73221,291.66864 137.43393,291.68723 137.04356,290.97205C136.62186,290.19946 137.00189,289.19287 137.00189,288.29288C137.00189,287.39304 137.00189,286.47205 137.00189,285.64221C137.00189,284.6622 137.00189,283.8822 137.00189,282.92886L137.00189,282.0502L137.00189,281.19821L137.00189,280.27155" id="svg_16" stroke-width="3" stroke="#000" fill="none"/>
  <path t="71559,71869,71869,71893,71893,71965,71965,72029,72030,72030,72053,72062,72077,72094,72149,72150,72158,72166,72182,72205,72215,72215,72222,72253,72253,72262,72269,72293,72293,72309,72325,72325,72333,72333,72342,72349,72365,72389,72389,72405,72436,72437,72453,72461,72476,72493,72501,72509,72517,72533,72541,72548,72564,72573,72581,72597,72605,72620,72629,72652,72660,72684,72717,72717,72757,72773,72773,72773,72789,72798,72816,72822,72845,72861,72869,72885,72885,72901,72918,72933,72941,72957,72973,72997,72997,73005,73028,73029,73068,73069,73085,73093,73100,73101,73109,73117,73140,73148,73149,73180,73181,73189,73213,73213,73221,73229,73237,73261,73269,73270,73293,73301,73309,73317,73317,73333,73348,73349,73373,73381,73405,73414,73430,73430,73444,73461,73477,73485,73493,73517,73517,73533,73549,73605,73605,73733,73733,73845" d="M144.00189,169.49287C145.00189,170.65953 145.69363,171.09682 145.91656,171.97554C146.11613,172.76215 145.95889,173.82878 146.02274,174.53453C146.11006,175.49997 146.47572,176.2646 146.7179,177.00754C147.06154,178.06181 146.85126,178.97255 147.35457,179.78836C147.83022,180.55933 148.00189,181.2027 148.00189,182.01021C148.00189,183.0822 148.00189,183.97203 148.00189,184.85004C148.00189,185.69287 147.99298,186.59308 148.00189,187.3782C148.01256,188.31839 148.27303,189.39656 148.85257,189.84621C149.60054,190.42653 150.00189,190.99287 150.00189,191.93553C150.00189,192.78754 150.00189,193.71454 150.00189,194.65953C150.00189,195.49287 150.00189,196.3262 150.00189,197.18837C150.00189,198.09286 150.00189,199.05687 150.00189,199.9182C150.00189,200.8262 150.00189,201.6422 150.00189,202.57553C150.00189,203.49287 150.00189,204.29286 150.00189,205.19287C150.00189,206.1357 150.00189,207.0137 150.00189,207.89287C150.00189,208.79286 150.00189,209.69287 150.00189,210.5927C150.00189,211.50186 150.00189,212.34354 150.00189,213.24986C150.00189,214.10353 150.00189,214.99287 150.00189,215.89287C150.00189,216.78836 150.00189,217.6622 150.00189,218.49287C150.00189,219.50754 150.00189,220.4102 150.00189,221.1982C150.00189,222.15953 150.00496,223.06087 150.00189,223.78754C149.99739,224.85457 149.68132,225.66975 149.15123,226.31821C148.71751,226.84877 148.05917,227.72595 148.00189,228.6622C147.95117,229.49132 148.00189,230.43153 148.00189,231.3262C148.00189,232.1982 148.00189,233.15953 148.00189,233.93553C148.00189,234.78754 148.00189,235.7782 148.00189,236.69287C148.00189,237.59286 148.25398,238.53192 148.00189,239.3262C147.73961,240.1526 147.07275,240.80876 147.01256,241.63153C146.94368,242.57307 146.7594,243.4426 146.35457,244.1357C145.91362,244.89064 146.00189,245.67821 146.00189,246.7357C146.00189,247.59286 146.02725,248.49327 146.00189,249.29286C145.9733,250.19423 145.42027,250.88443 144.70639,251.4447C144.01924,251.98399 144.00415,252.78754 144.00189,253.8262C144.00012,254.6422 143.95343,255.53766 143.57657,256.35419C143.27588,257.00568 143.01231,257.97186 143.00189,258.89285C142.99176,259.7883 142.47487,260.30783 142.08723,261.06088C141.75261,261.71094 142.19896,262.80002 142.00056,263.69153C141.82004,264.50278 141.26842,265.12057 140.94923,265.78754C140.55396,266.61353 140.00189,267.06088 140.00189,267.92487C140.00189,268.85004 140.16327,269.85767 139.78056,270.59271C139.3394,271.44003 139.00189,272.06088 139.00189,272.92487C139.00189,273.85004 139.00189,274.78836 139.00189,275.65955C139.00189,276.59271 139.00772,277.45847 138.4339,278.06088C137.86687,278.65616 137.08768,279.31033 137.00189,280.1402C136.90723,281.056 137.00189,281.92487 137.00189,282.8262L137.00189,283.64221L137.00189,284.65955" id="svg_17" stroke-width="3" stroke="#000" fill="none"/>
  <path t="78797,79020,79037,79060,79061,79117,79125,79149,79149,79165,79261,79277,79325,79325,79357,79365,79397,79397,79438,79453,79509,79533,79556,79556,79613,79645,79653,79685,79781,79781,79797,79814,79814,79814,79861,79861,79877,79877,79909,79941,80077,80077,80269,80269,80533,80533,80613,80653,80717,80749,80749,80765,80837,80949,80949,81029,81029,81045,81109,81133,81133,81165,81165" d="M110.0019,13.49287C108.0019,14.0137 108.13721,14.95904 107.71656,15.69287C107.32301,16.37943 106.5387,17.04153 105.7019,17.4402C104.83511,17.85316 104.54043,18.44806 103.94923,19.1357C103.38272,19.79464 102.22753,19.98076 102.0019,20.8262C101.79149,21.61461 102.01572,22.59254 101.5659,23.34353C101.05619,24.1945 100.18616,24.48154 100.00323,25.2942C99.80586,26.17093 100.0019,27.09287 100.0019,27.97203C100.0019,28.93553 100.0019,29.6422 100.0019,30.7142C100.0019,31.56487 100.0019,32.34353 100.0019,33.32487C100.0019,34.2027 99.92335,35.01492 100.02273,36.0137C100.10446,36.83513 100.4071,37.75538 100.7064,38.48753C101.06541,39.36577 101.66223,40.07444 101.9179,40.97553C102.14145,41.76342 102.64779,42.05391 103.48106,42.53453C104.18779,42.94217 104.01192,44.04401 104.4379,44.8782C104.75118,45.4917 105.30867,46.48956 105.5659,47.2062C105.89507,48.12329 106.64907,48.31052 107.29739,48.85453C108.03902,49.47684 107.9864,50.47193 108.0019,51.38754C108.01562,52.19814 108.34653,53.13783 109.0019,53.49287C109.77303,53.91061 109.99123,54.67804 110.0019,55.7357C110.01054,56.59283 110.0019,57.49287 110.05907,58.25003L110.35456,59.14103L110.7179,59.92353" id="svg_18" stroke-width="3" stroke="#000" fill="none"/>
  <path t="83240,83437,83453,83469,83478,83494,83501,83511,83517,83524,83589,83621,83621,83637,83646,83693,83702,83702,83717,83717,83757,83805,83830,83830,83869,83870,83949,83989,84006,84021,84045,84069,84166,84237,84269,84285,84357,84541,84549,84550,84565,84581,84582,84621,84621,84637,84709,84805,84805,84829,84840,84893,84933,84997,85109,85117,85125,85133" d="M134.00189,22.49287C134.00189,23.34353 134.01189,24.25009 134.00189,25.10353C133.99147,25.99305 133.46205,26.69741 133.1234,27.5927C132.81892,28.39766 133.00189,29.34353 133.00189,30.24987C133.00189,31.06753 132.8631,31.98786 132.39124,32.6422C131.80113,33.46051 131.10136,33.85403 131.00056,34.6942C130.8839,35.66661 130.48375,36.28543 130.16856,37.3262C129.94484,38.06499 130.00208,38.97203 130.00189,39.93953C130.00172,40.81403 130.14977,41.86333 129.4339,42.3222C128.69289,42.79719 128.00189,42.92887 128.00189,43.78837C128.00189,44.6622 128.38599,45.78857 127.64473,46.37853C126.98012,46.90749 126.03049,46.84874 126.0019,47.79287C125.97466,48.69246 126.08058,49.59636 126.0019,50.4402C125.91821,51.33785 125.00031,51.44236 124.2019,51.49287C123.29647,51.55015 122.76888,52.23801 122.28723,52.92487C121.73579,53.71125 120.93584,53.8802 120.06323,54.46753C119.39977,54.91409 118.52221,55.4414 117.86323,55.4822C116.83315,55.54597 115.89614,55.30961 115.11173,55.84554C114.43504,56.30787 113.7019,56.49287 112.8019,56.49287L111.90206,56.49287L111.0019,56.5137L110.35523,57.06754" id="svg_19" stroke-width="3" stroke="#000" fill="none"/>
  <path t="88062,88412,88452,88452,88468,88476,88596,88664,88664,88740,88740,88756,88756,88780,88788,88789,88789,88804" d="M130.00189,50.49287C130.50189,51.03453 130.91566,51.97562 130.99739,52.78304C131.08626,53.66096 131.3811,54.62615 132.10173,55.25003C132.73685,55.79989 132.96042,56.38089 133.01256,57.32887C133.05479,58.09668 133.24985,59.15023 133.70639,59.77853C134.27136,60.55606 134.88057,61.15704 135.00189,62.0137L135.08589,62.7262L135.4379,63.8102" id="svg_20" stroke-width="3" stroke="#000" fill="none"/>
 </g>
</svg>