<svg width="500" height="333.3333333333333" xmlns="http://www.w3.org/2000/svg" xmlns:svg="http://www.w3.org/2000/svg" xmlns:xlink="http://www.w3.org/1999/xlink">
 <!-- Created with SVG-edit - http://svg-edit.googlecode.com/ -->
 <g display="inline" class="layer">
  <title>Layer 1</title>
  <path t="0,540,555,607,663,695,789,789,807,855,887,919,983,1031,1032,1063,1080,1143,1183,1223,1303,1367,1383,1455,1471,1511,1559,1655,1664,1694,1751,1783,1830,1855,1855,1911,1958,2015,2023,2063,2103,2111,2159,2199,2223,2263,2279,2311,2335,2367,2367,2407,2446,2494,2543,2639,2852,2868,2974,2975,3085,3150,3230,3238,3390,3599,3668,3718,3718,3775,3791,3858,3907,4003,4090,4090,4116,4123,4191,4260,4387,4427,4475,4475,4499,4531,4555,4635,4643,4652,4727,4807,4807,4892,4892,4932,4932,5028,5137,5191,5241,5316,5421,5421,5492,5588,5703,5756,5819,5836,5876,5876,5988,6057,6123,6190,6190,6235,6470,6563,6667,6731,6787,6819,6906,6906,7086,7220,7292,7356,7395,7443,7507,7573,7635,7788,7788,7840,7944,7992,8080,8168,8271,8286,8386,8431,8503,8503,8572,8587,8950,9055,9106,9273,9392,9432,9620,9655,9703,9824,9896,10016,10016,10059,10209,10273,10370,10472,10571,10571,10898,10958,11026,11107,11107,11382,11520,11520,11605,11655,11656,11784,11840,11974,12024,12080,12128,12136,12168,12224,12373,12408,12440,12504,12552,12608,12609,12625,12642,12642,12704,12764,12779,12841,12841,12880,12928,12976,13016,13089,13136,13168,13168,13216,13248,13291,13306,13344,13392,13392,13410,13440,13480,13528,13528,13568,13616,13674,13674,13736,13752,13752,13800,13832,13840,13872,14480,14705,14757,14757,14772,14888,15120,15172,15208,15320,15321,15432,15474,15490,15573,15607,15687,15688,15741,15916,16004,16135,16135,16180,16240,16300,16300,16309,16340,16372,16452,16524,16564,16604,16705,16705,16876,16916,16989,17073,17073,17073,17148,17180,17212,17348,17387,17457,17457,17571,17914,18018,18115,18236,18276,18356,18388,18522,18590,18605,18605,18660,18724,18724,18791,18841,18924,18940,18940,18991,19044,19084,19132,19188,19204,19205,19291,19332,19388,19436,19507,19572,19572,19676,19676,19693,19740,19788,19804,19804,19856,19865,19880,19956,20022,20106,20152,20192,20192,20256,20320,20360,20408,20440,20440,20472,20496,20536,20600,20608,20672,20680,20712,20712,20752,20854,20939,20954,21008,21026,21088,21203,21203,21257,21307,21359,21359,21408,21504,21572,21572,21656,22033,22674,22756,22771,22840,22880,22958,22958,23007,23088,23200,23200,23232,23288,23340,23355,23440,23472,23616,23671,23672,23695,23743,23759,23768,23827,23880,23917,23933,23943,24021,24061,24062,24085,24351,24405,24407,24437,24453,24507,24507,24706,24805,24861,24969,24969,25029,25045,25125,25126,25221,25229,25352,25381,25382,25429,25461,25549,25607,25622,25690,25733,25845,25845,25953,26013,26246,26301,26357,26357,26373,26555,26570,26570,26591,26661,26693,26733,26789,26821,26924,27401,27540,27556,27573,27582,27621,27685,27787,27837,27885,27885,28001,28009,28074,28090,28140,28185,28225,28225,28265,28324,28454,28528,28529,28634,28650,28849,28880,28976,29049,29089,29140,29155,29257,29273,29313,29374,29582,29582,29708,29997,29997,30032,30041,30059,30155,30286,30286,30324,30404,30552,30552,30593,30611,30641,30657,30823,30865,30865,31000,31203,31289,31289,31371,31522,31621,31672,31801,31802,31872,31923,32013,32061,32117,32157,32254" d="M31.5,200.66667C31.5,198.96666 31.49805,198.04706 31.92533,197.26666C32.37571,196.44409 32.5,195.56667 32.5,194.66667C32.5,193.86667 32.31626,192.94017 32.536,192.06667C32.75306,191.20384 33.45728,190.46968 33.5,189.56667C33.54253,188.66768 33.5,187.86667 33.5,186.96666C33.5,186.06667 33.5,185.16667 33.5,184.26666C33.5,183.36667 33.64979,182.45407 33.49983,181.56683C33.35583,180.71481 32.78252,180.26665 32.4955,179.37117C32.25163,178.61032 31.55981,178.11589 31.14733,177.36667C30.68562,176.52802 30.83709,175.51778 30.33333,174.83333C29.85273,174.18033 29.5478,173.5654 29.5,172.66667C29.45727,171.86327 28.75306,171.12949 28.536,170.26666C28.31626,169.39316 28.65935,168.36879 28.14733,167.71933C27.66279,167.10472 27.5173,166.35533 27,165.66667C26.53001,165.04099 26.5,164.16667 26.5,163.26666C26.5,162.36667 26.5,161.46666 26.5,160.56667C26.5,159.66667 26.5,158.86667 26.5,157.96666C26.5,157.06667 26.5,156.16667 26.5,155.26666C26.5,154.36667 26.5,153.46666 26.5,152.56667C26.5,151.66667 26.5,150.86667 26.5,149.96666C26.5,149.06667 26.6152,147.96243 25.88933,147.67734C25.06104,147.35201 23.98906,147.43648 23.6215,146.56667C23.26801,145.73013 23.5,144.86667 23.5,143.96666C23.5,143.06667 23.49775,142.16667 23.5,141.26666C23.50225,140.36665 23.69279,139.54185 24.30133,138.86667C24.86378,138.24265 25.28625,137.37535 25.85267,136.71933C26.36414,136.12695 26.39304,135.36014 26.50133,134.46666C26.61281,133.54689 27.34586,132.89981 27.48933,132.06667C27.64209,131.17967 27.5,130.26666 27.5,129.36667C27.5,128.46666 27.23446,127.41728 27.78533,126.74934C28.31147,126.11138 29.06391,125.67693 29.37867,124.688C29.61927,123.93205 29.76027,122.9557 30.2045,122.3765C30.7785,121.62811 31.4401,121.11584 31.85267,120.36667C32.31445,119.52812 32.78394,118.91776 33.6,118.44517C34.26655,118.05915 34.86547,117.2238 35.59983,116.788C36.38351,116.32294 36.85571,115.69527 37.7,115.66666C38.59948,115.63619 39.53825,115.84022 40.3,115.58134C41.18791,115.27958 41.91254,114.81728 42.8,114.66217C43.72833,114.49991 44.33455,114.03153 45.2,113.614C46.0187,113.21902 46.4714,112.36803 46.5,111.46667C46.52854,110.56712 46.93425,109.43426 46.33333,108.83334C45.73241,108.23241 44.52046,109.13223 43.78533,108.58134C43.16893,108.11942 43.5,106.96667 43.5,106.06667C43.5,105.16666 43.5,104.26667 43.5,103.36667C43.5,102.46667 43.38924,101.55982 43.5,100.66666C43.61152,99.76744 44.17662,99.09782 44.936,98.70267C45.70311,98.3035 46.71259,98.81646 47.59983,98.6665C48.45186,98.5225 48.85571,97.69527 49.7,97.66666C50.59948,97.63619 51.53825,97.84022 52.3,97.58134C53.18791,97.27958 53.8322,96.62498 54.52533,96.092C55.15872,95.60497 56.1046,95.6748 56.55267,96.37117C57.0465,97.13866 57.47132,97.96531 57.5,98.86667C57.52862,99.76604 58.00723,100.27566 58.44283,101.02383C58.86793,101.75396 58.78496,102.72623 59.14734,103.36667C59.61176,104.18745 60.35424,104.71062 60.49866,105.468C60.667,106.35076 60.89821,107.36925 60.464,108.23067C60.11172,108.92954 59.2182,109.33916 58.62133,109.888C57.98129,110.47654 57.27569,110.92501 56.7,111.468C56.08333,112.04964 55.57858,112.98301 55.52083,113.66666C55.43845,114.64191 55.47292,115.66712 55.5,116.46667C55.5286,117.31095 56.42456,117.6021 56.97917,118.1875C57.66686,118.91338 58.21667,119.54383 58.48933,120.27734C58.79214,121.09195 59.01803,121.82555 59.584,122.38267C60.25513,123.0433 60.88507,123.57455 61.47467,124.092C62.11242,124.65171 62.80024,125.062 63.33333,125.83334C63.75335,126.44106 63.47602,127.49228 63.5,128.5C63.51801,129.25664 64.11812,129.97701 64.41467,130.86667C64.70054,131.7243 64.5,132.66667 64.5,133.46666C64.5,134.36667 64.5,135.26666 64.5,136.16667C64.5,137.06667 64.40912,137.97139 64.50134,138.86667C64.58503,139.67928 65.30017,140.31927 65.47916,141.16667C65.66521,142.04747 65.49992,142.96666 65.5,143.86667C65.50008,144.76666 65.74213,145.62045 66.14733,146.36667C66.56062,147.12779 66.40453,148.11121 66.784,148.86667C67.21958,149.73387 67.49933,150.46666 67.5,151.36667C67.50066,152.26666 67.35791,153.17967 67.51067,154.06667C67.65414,154.89981 68.41497,155.65407 68.49866,156.46666C68.59088,157.36194 68.5,158.26666 68.5,159.16667C68.5,160.06667 68.59088,160.97139 68.49866,161.86667C68.41497,162.67928 67.85267,163.36667 67.5,164.16667C67.14733,164.96666 66.95748,166.03247 66.2785,166.54517C65.57075,167.07959 64.49914,166.70387 63.7,166.66667C62.78235,166.62395 62.01684,166.05948 61.58533,165.38133C61.09217,164.60628 61.5,163.56667 61.5,162.66667C61.5,161.86667 61.5,160.96666 61.5,160.06667C61.5,159.14583 61.5,158.34534 61.5,157.492C61.5,156.552 61.5,155.56667 61.5,154.66667C61.5,153.86667 61.5,152.96666 61.5,152.06667C61.5,151.16667 61.5,150.26666 61.5,149.36667C61.5,148.46666 61.68135,147.5132 61.33333,146.66667C61.05744,145.99559 60.65243,145.15233 60.48933,144.26666C60.33623,143.43523 59.5879,142.68036 59.5045,141.96666C59.40004,141.07274 59.5,140.16667 59.5,139.26666C59.5,138.36667 59.5,137.46666 59.5,136.56667C59.5,135.66667 59.38232,134.88557 58.92533,134.06667C58.49412,133.29393 57.72562,132.62219 57.5045,133.37117C57.25094,134.23003 57.5,135.16667 57.5,136.06667C57.5,136.96666 57.5,137.86667 57.5,138.76666C57.5,139.66667 57.40439,140.46068 57,141.16667C56.54552,141.9601 56.64273,142.9518 56.14734,143.614C55.62927,144.3065 55.02349,144.89778 54.62133,145.76666C54.31493,146.42868 53.75306,147.20384 53.536,148.06667C53.31626,148.94017 53.5,149.86667 53.5,150.76666C53.5,151.66667 53.5,152.46666 53.5,153.36667C53.5,154.26666 53.5,155.16667 53.5,156.06667C53.5,156.97116 53.5,157.83333 53.5,158.66667C53.5,159.64517 53.30372,160.49982 53.55717,161.36667C53.81377,162.24431 54.33641,163.01372 54.72133,163.76666C55.11149,164.52986 55.14301,165.46016 55.536,166.23067C55.8916,166.92786 56.10706,167.59843 56.58533,168.38133C57.07604,169.18457 57.5,169.76666 57.5,170.66667C57.5,171.46666 57.5347,172.37895 57.92533,173.06667C58.38851,173.8821 58.5,174.76666 58.5,175.66667C58.5,176.46666 58.5,177.36667 58.5,178.26666C58.5,179.16667 58.5,180.06667 58.5,180.96666C58.5,181.86667 58.5,182.76666 58.5,183.66667C58.5,184.46666 58.5,185.36667 58.5,186.26666C58.5,187.16667 58.5,188.06667 58.5,188.96666C58.5,189.86667 58.5,190.76666 58.5,191.66667C58.5,192.46666 58.6146,193.37816 58.464,194.30267C58.32195,195.1747 57.80037,195.80515 57.58533,196.78133C57.37257,197.74721 57.2883,198.63841 56.92533,199.26666C56.43676,200.11232 55.80453,200.31186 55.02083,200.6875C54.31759,201.02458 54.50225,202.16667 54.5,203.06667C54.49775,203.96667 54.13977,204.81856 53.784,205.46666C53.34726,206.26225 52.58374,206.82095 52.5,207.66667C52.42117,208.46277 52.5,209.36667 52.5,210.26666C52.5,211.16667 52.5,212.06667 52.5,212.96666C52.5,213.86667 52.5,214.76666 52.5,215.66667C52.5,216.46666 52.5,217.36667 52.5,218.26666C52.5,219.16667 52.56695,220.01022 53.07467,220.692C53.55188,221.33281 53.49467,222.26668 53.5,223.16667C53.50533,224.06671 53.90888,224.79398 54.33333,225.66667C54.65417,226.32634 55.18619,227.08904 55.44283,227.96666C55.69595,228.83223 55.58868,229.77104 55.5,230.66667C55.41626,231.51237 54.54622,231.9088 53.8,232.314C53.03888,232.72728 52.1,232.66734 51.2,232.66667C50.30133,232.666 49.5286,232.31094 49.5,231.46666C49.46953,230.56718 49.5,229.66667 49.5,228.86667C49.5,227.96666 49.1855,227.27951 48.66667,226.5C48.19579,225.79254 48.5,224.86667 48.5,223.96666C48.5,223.06667 48.5,222.16667 48.5,221.26666C48.5,220.36667 48.5,219.46666 48.5,218.56667C48.5,217.66667 48.69595,216.83223 48.44283,215.96666C48.18619,215.08904 47.61948,214.36044 47.49866,213.46666C47.38924,212.65714 46.7495,212.00874 46.2045,211.36667C45.56391,210.61198 45.5,209.66667 45.5,208.86667C45.5,207.96666 45.5,207.06667 45.5,206.16667C45.5,205.26666 45.5,204.36667 45.5,203.46666C45.5,202.56667 46.03086,201.3188 45.33333,200.83333C44.71172,200.40068 44.72252,201.88257 44.216,202.58267C43.71422,203.27621 43.50008,203.96666 43.5,204.86667C43.49992,205.76666 43.2794,206.63335 42.92533,207.26666C42.44382,208.12793 42.63532,209.13284 42.21467,209.86667C41.82111,210.55322 40.93892,211.12407 40.55267,211.96666C40.20026,212.73541 39.72472,213.30382 39.11067,214.06667C38.51055,214.81221 38.5,215.76666 38.5,216.66667C38.5,217.46666 38.5,218.36667 38.5,219.26666C38.5,220.16667 38.25712,221.1015 38.5045,221.96217C38.72521,222.73006 39.4401,223.2175 39.85266,223.96666C40.31445,224.80521 41.00781,225.27531 41.44283,226.02383C41.86731,226.75421 41.5,227.76666 41.5,228.66667C41.5,229.46666 41.55791,230.33742 41.14283,231.31483C40.85752,231.98669 40.10215,232.63065 39.2,232.66667C38.30072,232.70259 37.4,232.66667 36.5,232.66667C35.7,232.66667 34.95678,232.44087 34.27867,231.78799C33.69963,231.2305 33.624,230.45805 33.49983,229.56683C33.38811,228.76495 32.5286,228.31094 32.5,227.46666C32.46953,226.56718 32.52537,225.66628 32.5,224.86667C32.4714,223.9653 31.95821,223.18637 31.30133,222.46666C30.76785,221.88216 30.50842,221.04889 30.07467,220.26666C29.61989,219.44652 29.5,218.56667 29.5,217.66667C29.5,216.86667 29.5,215.96666 29.5,215.06667C29.5,214.16667 29.5,213.26666 29.5,212.36667L29.5,211.46666L29.50017,210.56683" id="svg_1" stroke-width="3" stroke="#000" fill="none"/>
  <path t="34499,34663,34740,34748,34764,34780,34796,34836,34877,34877,34917,34917,34973,35022,35022,35106,35158,35301,35335,35335" d="M14.5,206.66667C16.064,207.27733 16.16052,208.12952 16.51067,209.056C16.78731,209.78801 17.63044,210.12332 18.216,210.75067C18.85864,211.43916 19.4993,211.83434 20.136,212.27733C20.98307,212.86668 21.66096,213.26968 22.61467,213.58267C23.48892,213.86958 24.03718,214.4136 24.9,214.63066C25.7735,214.8504 26.7,214.66533 27.59983,214.44516L28.21467,213.86534" id="svg_2" stroke-width="20" stroke="#fff" fill="none"/>
  <path t="36653,36901,36901,36946,36979,37018,37018,37050,37138,37146,37186" d="M26.5,206.66667C26.5,207.66667 26.4827,208.46683 26.5,209.36667C26.518,210.30319 26.8018,211.14345 27.07467,211.84134C27.43865,212.77229 27.5,213.76666 27.5,214.66667L27.66667,215.5" id="svg_3" stroke-width="20" stroke="#fff" fill="none"/>
  <path t="38323,38469,38469,38484,38514,38538,38546,38546,38570,38586,38634,38674,38693,38693,38869" d="M27.5,208.66667C27.66667,209.66667 28.14733,210.36667 28.5,211.16667C28.85266,211.96666 29.43911,212.76054 29.5,213.66667C29.55363,214.46486 29.31626,215.39316 29.536,216.26666C29.75306,217.12949 30.3785,217.76666 30.5,218.66667L30.5,219.46666L30.5,220.36667" id="svg_4" stroke-width="20" stroke="#fff" fill="none"/>
  <path t="44362,44531,44531,44586,44634,44802,44850,44907,44947,44963" d="M38.5,212.66667C38.5,213.66667 38.5,214.46666 38.5,215.36667C38.5,216.30949 38.5,217.1875 38.5,218.06667L38.5,218.96666L38.5,219.86667L38.5,220.76666" id="svg_5" stroke-width="3" stroke="#000" fill="none"/>
  <path t="47107,47513,47513,47529,47547,47578,47610,47626,47754,47802,47858,47858,47890,47930,47954,47962,48023,48038,48074,48114,48115,48173,48223,48291,48336,48400,48504" d="M31.5,201.66667C31.5,202.66667 31.5,203.46666 31.5,204.36667C31.5,205.26666 31.5,206.16667 31.5,207.06667C31.5,207.96666 31.5,208.86667 31.5,209.76666C31.5,210.66667 31.5,211.46666 31.5,212.36667C31.5,213.26666 31.5,214.16667 31.5,215.06667C31.5,215.96666 31.5,216.86667 31.5,217.76666C31.5,218.66667 31.5,219.46666 31.5,220.36667C31.5,221.26666 31.5,222.16667 31.48933,223.06667L31.216,223.86667L30.66667,224.66667" id="svg_6" stroke-width="3" stroke="#000" fill="none"/>
  <path t="49918,50487,50495,50519,50535,50669,50723,50806,50856,50856,50856,51047,51062,51062,51088,51096,51567,51607,51669,51669,51736,51854,51869,51889,52016,52016" d="M31.5,199.66667C32.30133,199.66667 33.2,199.66667 34.1,199.66667C35,199.66667 35.9,199.66667 36.8,199.66667C37.7,199.66667 38.6,199.66667 39.5,199.66667C40.3,199.66667 41.2,199.66667 42.1,199.66667C43,199.66667 43.9,199.66667 44.8,199.66667C45.7,199.66667 46.6,199.66667 47.5,199.66667C48.3,199.66667 49.2,199.66667 50.1,199.66667C51,199.66667 51.9,199.66667 52.8,199.66667L53.7,199.66667" id="svg_7" stroke-width="3" stroke="#000" fill="none"/>
  <path t="54531,54812,54854,54870,54970,55053,55053,55171,55186,55186,55206,55247,55287,55287,55295,55372,55407,55423,55472,55472,55527,55535,55575,55754,55754,55822,55920,55920,56053,56105,56105,56688,56735,56743,56791,56808,57097,57097,57222,57293,57343,57343,57414,57448,57554,57684,57869,57869,57885,57937,58049,58049,58086,58101,58251,58251,58405,58472,58534,58534,58592,58782,58894,59040,59040,59103,59151,59285,59354,59407,59463,59631,59678,59687,59702,59830,59934,59934,59974,60014,60078,60139,60139,60139,60241,60279,60279" d="M26.5,147.66667C26.784,148.58133 27.58433,148.75166 28.2045,149.37117C28.80032,149.96634 29.50034,150.66634 30.1,151.26666C30.69901,151.86633 31.39062,152.65582 31.4955,153.36667C31.63341,154.30139 32.41626,154.82095 32.5,155.66667C32.57883,156.46277 32.716,157.21471 33.33333,157.83333C33.951,158.45229 34.31392,159.09053 34.78533,159.86667C35.19615,160.54305 36.02231,161.10983 36.7955,161.614C37.49636,162.071 37.76345,162.88622 38.30133,163.46666C38.97357,164.19209 39.7,164.86667 40.2,165.36667C40.9,166.06667 41.41486,166.77386 42.1,167.23067C42.9017,167.7652 43.4894,167.056 43.5,166.16667C43.51073,165.26666 43.95296,164.55945 44.33333,163.66667C44.65353,162.91513 44.53612,161.90475 43.97917,161.16667C43.47692,160.50108 43.06225,159.84262 42.47467,159.10266C41.93705,158.42563 41.14326,158.0544 40.584,157.38133C40.02799,156.71217 40.01941,155.72842 39.44733,155.02383C38.9452,154.40538 38.5,153.66667 38.5,152.86667C38.5,151.96666 38.64598,150.94392 38.064,150.27733C37.45443,149.57915 36.63518,149.37523 36.49866,148.46666C36.37729,147.65883 36.05187,146.84846 35.47467,146.10266C34.99054,145.47713 34.21701,144.99547 33.62133,144.44533C32.98438,143.85707 32.82756,143.16988 32.48933,142.27733C32.21204,141.54558 31.50533,141.05605 31.5,140.16667C31.4946,139.26668 31.42914,138.31824 31.92533,137.692C32.4523,137.02693 32.93885,136.42447 33.66667,135.83333C34.36335,135.26747 35.09591,135.08322 36,134.66667C36.79199,134.30177 37.43911,133.57278 37.5,132.66667C37.55363,131.86847 37.55717,131.02383 38.33333,130.5L38.5,129.66667L38.58533,128.86667" id="svg_8" stroke-width="3" stroke="#000" fill="none"/>
  <path t="62765,63035,63042,63051,63083,63098,63139,63147,63187,63187,63203,63283" d="M46.5,110.66666C46.58533,111.55334 46.68522,112.64608 47.33333,113.33334C47.80584,113.83439 48.9,113.666 49.8,113.66666C50.7,113.66734 51.5,113.83334 52.2,114.314L53,114.64584L53.9,114.66666" id="svg_9" stroke-width="3" stroke="#000" fill="none"/>
  <polyline timestamps="68678,69035,69043" startTime="1502005454886" id="svg_10" points="47.5,103.6666669845581 48.11066666666666,103.09200031789143 48.89999999999999,102.69200031789144 " stroke-linecap="round" stroke-width="3" stroke="#000" fill="none"/>
  <polyline timestamps="70444,70843,71051" startTime="1502005454886" id="svg_11" points="52.5,102.6666669845581 54.3,102.6666669845581 55.199999999999996,102.6666669845581 " stroke-linecap="round" stroke-width="3" stroke="#000" fill="none"/>
  <path t="72324,72895,72895,73007,73087,73151" d="M51.5,105.66666C50.5,106.66666 50.5,107.46667 50.5,108.36667L50.5,109.26667L50.5,110.16666" id="svg_12" stroke-width="3" stroke="#000" fill="none"/>
  <path t="75969,76303,76335,76352,76408,76524,76556,76612,76668,76668,76684,76884,77036,77036,77068,77116,77132,77148,77196,77340" d="M40.5,128.66667C39.51067,128.70267 39.47279,129.46841 39.5,130.36667C39.52859,131.31079 40.17249,131.94846 40.72133,132.54533C41.30988,133.18538 41.85942,133.819 42.216,134.46666C42.69151,135.33034 43.41626,135.82095 43.5,136.66667C43.57883,137.46277 43.64207,138.50256 44.52083,138.64583C45.46608,138.79993 46.33333,138.5 46.72133,137.78799L47.44733,137.314" id="svg_13" stroke-width="3" stroke="#000" fill="none"/>
  <path t="80570,80952,80952,80960,81022,81064,81073,81169,81215,81224,81273,81280,81311,81320,81336,81336,81351" d="M43.5,156.66667C44.5,156.83333 45.15372,157.46164 46,157.64583C46.86953,157.83508 47.37392,158.39226 48.11067,158.65601C48.94803,158.95576 49.91737,158.75615 50.52533,159.24133C51.14983,159.73972 51.92353,159.83809 52.584,160.38266C53.16782,160.86404 54.15267,161.01933 54.84733,161.314L55.864,161.64133" id="svg_14" stroke-width="3" stroke="#000" fill="none"/>
  <path t="83301,83497,83555,83570,83570,83600,83648,83657,83704,83752,83760,83800,83856,83912,83920,83936,83936,83952,83968,83968,83984,84016,84048,84056,84056,84080,84088,84112,84152,84159,84167,84176,84208,84208,84240,84280" d="M44.5,172.66667C45.41467,172.952 45.5,173.76666 45.5,174.66667C45.5,175.46666 45.66928,176.22545 46.216,176.752C46.77045,177.286 46.5,178.36667 46.5,179.26666C46.5,180.16667 46.5,181.06667 46.5,181.96666C46.5,182.86667 46.5,183.76666 46.5,184.66667C46.5,185.46666 46.47949,186.43677 46.14734,187.31934C45.88155,188.02556 45.52859,188.90822 45.5,189.86667C45.47316,190.76627 45.5,191.66667 45.5,192.46666C45.5,193.36667 45.5,194.26666 45.5,195.16667C45.5,196.06667 45.5,196.96666 45.5,197.86667C45.5,198.76666 45.5,199.66667 45.5,200.46666L45.55717,201.36667L45.92533,202.06667" id="svg_15" stroke-width="3" stroke="#000" fill="none"/>
  <path t="87674,87827,87859,87891,87939,87955,88020,88027,88059,88075,88099,88131,88131,88147,88170,88187,88211,88259,88275,88307,88323,88323,88355,88363,88373,88403,88471,88471,88563,88600,88616,88624,88624,88648,88657,88664,88673,88788,88856,88880,88912,88959,88967,89032,89032,89048,89056,89087,89111,89159,89159,89176,89191,89239,89279,89279,89295,89305,89343,89343,89359,89359,89383,89399,89431,89447,89463,89495,89495,89519,89576,89576,89600,89654,89654,89654,89695,89703,89720,89727,89743,89752,89799,89807,89871,89935,89936,89943,89983,90015,90063,90095,90103,90119,90135,90175,90176,90231,90232" d="M186.5,87.66666C184.8,87.66666 183.77437,87.22546 182.936,87.70267C182.24451,88.09627 182.5,89.26667 182.5,90.16666C182.5,91.06667 182.5,91.96667 182.5,92.86667C182.5,93.76667 182.5,94.66666 182.5,95.46667C182.5,96.36667 182.5,97.26667 182.5,98.16666C182.5,99.06667 182.5,99.96667 182.5,100.86667C182.5,101.76667 182.5,102.66666 182.5,103.46667C182.5,104.36667 182.33478,105.28587 182.52083,106.16666C182.69981,107.01406 183.27036,107.80804 183.584,108.46667C183.98297,109.30446 184.94133,109.55053 185.7,109.95067C186.55838,110.40339 187.3,110.666 188.2,110.66666C189.10001,110.66733 189.88171,110.79321 190.55267,111.314C191.13643,111.76712 192.10001,111.66666 193,111.66666C193.89999,111.66666 194.80655,111.7737 195.7,111.66534C196.6198,111.55378 197.13715,110.89138 197.89999,110.27734C198.64554,109.67722 199.70445,110.0506 200.37866,109.44517C200.99626,108.89057 201.29517,108.01299 201.47917,107.16666C201.6705,106.28667 201.84975,105.35979 202.5,104.66666C202.97383,104.1616 203.47133,103.36803 203.5,102.46667C203.52863,101.56696 203.56134,100.77231 203.92534,99.84133C204.1982,99.14344 204.48958,98.18768 204.5,97.26667C204.51018,96.36673 204.5,95.46667 204.5,94.56667C204.5,93.66666 204.48686,92.81622 203.97917,92.16666C203.37856,91.39821 202.75482,90.80508 202.10001,90.27734C201.35396,89.67606 200.32286,89.77748 199.52083,89.64584C198.64136,89.50148 198.14412,88.69596 197.2,88.66666C196.30176,88.63879 195.82338,88.09782 195.064,87.70267C194.29689,87.3035 193.3,87.66666 192.39999,87.66666C191.5,87.66666 190.7,87.66666 189.8,87.66666C188.89999,87.66666 188,87.66666 187.10001,87.66666C186.2,87.66666 185.28735,87.51645 184.40016,87.66683C183.54654,87.81153 183.16667,88.66666 182.47917,89.16666L181.66667,89.66666L181.04167,90.16666" id="svg_16" stroke-width="3" stroke="#000" fill="none"/>
  <path t="90933,91180,91221,91296,91336,91352,91384,91448,91522,91560,91576,91576,91600,91640,91757,91997,92032,92048,92135,92265,92265,92280,92321,92336,92404,92471,92552,92584,92607,92607,92631,92643,92704,92834,92834,92876,92936,93015,93015,93137,93152,93212,93318,93333,93396,93454,93454,93492" d="M187.5,91.66666C188.48933,91.70267 188.5,92.468 188.5,93.36667C188.5,94.26667 188.5,95.16666 188.5,96.06667C188.5,96.96667 188.5,97.86667 188.5,98.76667C188.5,99.66666 188.5,100.46667 188.5,101.36667C188.5,102.26667 188.10413,103.25951 188.52083,104.14584C188.85265,104.85159 190.013,104.80875 190.89999,104.656C191.73314,104.51252 192.52629,103.90421 193.2,103.614C194.04179,103.25137 195.07385,102.96106 195.464,102.23067C195.87144,101.46792 195.5,100.46667 195.5,99.56667C195.5,98.66666 195.5,97.86667 195.5,96.96667C195.5,96.06667 195.50485,95.16665 195.5,94.26667C195.49466,93.27729 195.0244,92.77197 194.2,92.314C193.4577,91.90165 192.7,91.66734 191.8,91.66666C190.89999,91.66599 189.92029,91.29996 189.02083,91.6875C188.30649,91.99529 187.85266,92.71933 187.50133,93.468L187.44284,94.36667L187,95.16666" id="svg_17" stroke-width="3" stroke="#000" fill="none"/>
  <path t="99732,99950,100116,100366,100423,100423,100487,100750,100893,100893,100901,100965,101013,101093,101149,101204,101204,101245,101317,101402,101477,101485,101556,101605,101621,101690,101705,101757,101805,101805,101813,101853,101870,101916,101964,101981,102053,102053,102068,102168,102523,102571,102641,102819,102834,102834,102909,102925,102949,102981,102989,103054,103054,103184,103184,103253,103269,103397,103406,103437,103487,103487,103554,103636,103652,103652,103722,103925,104021,104077,104373,104389,104389,105573,105605,105764,105831,105831,105941,105997,106036,106101,106154,106288,106332,106372,106485,106517,106637,106677,106773,106901,106949,107005,107029,107029,107293,107333,107720,107797,108255,108255,108320,108417,108679,108733,108749,108805,109009,109049,109081,109082,109105,109249,109399,109516,109589,109769,109817,109817,109913,109969,109970,110001,110041,110198,110198,110238,110305,110403,110481,110569,110652,110667,110713,110729,110788,110838,110838,110854,110928,110936,111036,111089,111200,111283,111298,111298,111344,111360,111377,111441,111473,111553,111585,111593,111673,111721,111769,111769,111837,111837,111880,111904,111928,111929,111968,112033,112080,112105,112105,112120,112160,112176,112237,112281,112297,112320,112344,112345,112376,112409,112409,112449,112457,112481,112489,112489,112529,112545,112584,112600,112601,112608,112656,112713,112761,112761,112870,112913,112946,112993,113025,113057,113113,113153,113289,113298,113299,113337,113518,113585,113653,113653,113736,113751,113769,113769,113801,113809,113857,113929,113976,113977,114033,114073,114073,114113,114175,114175,114208,114209,114249,114334,114612,114612,114689,114689,114737,114801,114817,114849,114889,114937,115007,115007,115086,115101,115101,115169,115201,115202,115225,115257,115305,115371,115371,115386,115437,115452,115489,115545,115585,115649,115697,115745,115745,115753,115753,115793,115833,115865,115985,116033,116033,116049,116134,116186,116269,116269,116269,116329,116337,116369,116393,116393,116409,116473,116505,116529,116561,116577,116577,116642,116657,116673,116713,116745,116745,116760,116873,116881,116909,116970,117022" d="M341.5,165.66667C342.49551,163.96666 342.66821,163.04683 342.47916,162.16667C342.29779,161.32225 341.26907,160.98358 340.58401,160.38266C339.98325,159.85567 339.28763,159.59039 338.52084,159.14583C337.68185,158.65939 337.04968,158.12175 336.58533,157.38133C336.09726,156.60307 336.5,155.56667 336.5,154.66667C336.5,153.86667 336.86316,152.86977 336.46399,152.10266C336.06885,151.34329 335.50067,150.86534 335.5,149.96666C335.49933,149.06667 335.5,148.16667 335.5,147.26666C335.5,146.36667 335.5,145.46666 335.5,144.56667C335.5,143.66667 335.5,142.86667 335.5,141.96666C335.5,141.06667 335.5,140.16667 335.5,139.26666C335.5,138.36667 335.33633,137.40936 335.72134,136.56667C336.02713,135.89737 336.48926,135.06667 336.5,134.16667C336.51062,133.27733 337.03479,132.52097 337.89999,132.67734C338.84488,132.84813 339.41498,133.65407 339.49866,134.46666C339.59088,135.36194 339.5,136.26666 339.5,137.16667C339.5,138.06667 339.5,138.96666 339.5,139.86667C339.5,140.76666 339.5,141.66667 339.5,142.46666C339.5,143.36667 339.49805,144.28627 339.92532,145.06667C340.3757,145.88924 340.5,146.76666 340.5,147.66667C340.5,148.46666 340.55447,149.36815 341,150.16667C341.44467,150.96367 342.12283,151.4165 342.47916,152.1875C342.84375,152.97639 343.07376,153.61028 343.52533,154.27733C344.02411,155.01416 344.70087,155.68878 345.14282,156.36667C345.62131,157.10059 345.73019,158.17761 346.60001,158.54517C347.43655,158.89867 348.28107,158.54898 349.10001,158.092C349.87274,157.66078 350.48956,157.14601 350.5,156.26666C350.51068,155.36673 350.35019,154.45407 350.50015,153.56683C350.64417,152.71481 351.21747,152.26665 351.50449,151.37117C351.74835,150.61031 352.48956,150.14601 352.5,149.26666C352.51068,148.36673 352.58212,147.46289 352.49985,146.56667C352.41617,145.65523 352.10089,144.95741 351.5,144.1875C351.01044,143.56021 349.96524,143.71962 349.20001,143.314C348.35406,142.86559 347.71927,142.54982 346.89999,142.092C346.12753,141.66032 345.51044,141.146 345.5,140.16667C345.49042,139.26671 345.5,138.36667 345.5,137.46666C345.5,136.56667 345.5,135.66667 345.5,134.86667C345.5,133.96666 345.5,133.06667 345.5,132.16667C345.5,131.26666 345.50009,130.36667 345.5,129.46666C345.49991,128.56667 345.3757,127.88924 344.92532,127.06667C344.49805,126.28629 344.5,125.36667 344.5,124.46667C344.5,123.56667 344.5,122.66666 344.5,121.86667C344.5,120.96667 344.05881,119.94104 344.53601,119.10267C344.9296,118.41119 346.10001,118.66666 347,118.66666C347.89999,118.66666 348.79999,118.66666 349.70001,118.66666C350.60001,118.66666 351.5,118.66666 352.29999,118.66666C353.20001,118.66666 354.10001,118.66666 355,118.66666C355.89999,118.66666 356.79999,118.66666 357.70001,118.66666C358.60001,118.66666 359.5,118.66666 360.29999,118.66666C361.20001,118.66666 361.90079,118.86688 362.58401,119.38267C363.19934,119.84721 364.1882,119.76628 364.58401,120.468C365.04453,121.28442 365.48334,122.04866 366,122.66666C366.53439,123.30586 366.74457,124.17138 367.11066,124.84133C367.64267,125.81493 368.26025,126.30788 368.88934,127.06667C369.43439,127.72409 369.4628,128.66754 369.5,129.46666C369.54272,130.38431 370.43912,130.8819 370.5,131.76666C370.5618,132.66455 370.5,133.46666 370.5,134.36667C370.5,135.26666 370.5,136.16667 370.5,137.06667C370.5,137.96666 370.5,138.86667 370.5,139.76666C370.5,140.66667 370.5,141.46666 370.5,142.30267C370.5,143.15067 370.5,144.01401 370.5,145.03067C370.5,145.96666 370.44562,146.86832 370.50015,147.76666C370.54288,148.47052 371.10129,149.25389 371.47467,150.06667C371.88217,150.95369 372.41498,151.65407 372.49866,152.46666C372.59088,153.36194 372.4227,154.3342 372.936,155.06667C373.48965,155.85669 374.29776,156.31801 374.47916,157.16667C374.66733,158.04703 374.50009,158.96666 374.5,159.86667C374.49991,160.76649 374.13724,161.48178 373.55267,162.01933C372.97043,162.55475 372.17593,162.99857 371.5,163.66667C370.91434,164.24554 370.71191,165.31529 369.97916,165.64583C369.17755,166.00743 368.17761,165.86475 367.30133,165.66533C366.49704,165.4823 366.66367,164.40936 366.27866,163.56667C365.97287,162.89737 365.3075,162.27071 364.784,161.58267C364.31714,160.96907 364.53955,159.90843 364.49551,159.01401C364.45288,158.14793 364.07315,157.29443 363.5,156.66667C362.94476,156.05855 362.58176,155.2388 362.27866,154.34534C362.04297,153.65059 361.56219,152.69469 361.50134,151.868C361.43518,150.96909 361.53278,150.00737 361.216,149.18533C360.9158,148.4063 360.32645,148.70493 360.58533,149.46666C360.88708,150.35458 361.23959,151.10577 361.50449,151.96217C361.74057,152.72546 362.35034,153.20168 362.51068,154.06667C362.66483,154.89833 363.39157,155.38937 363.97916,156.16667C364.53674,156.90428 364.41788,157.87044 364.50015,158.76666C364.58383,159.67812 365.30017,160.31927 365.47916,161.16667C365.66519,162.04747 365.36835,163.01672 365.72134,163.76666C366.0864,164.54218 366.13477,165.46442 366.53601,166.23067C366.93314,166.98901 367.49933,167.468 367.5,168.36667C367.50067,169.26666 367.50006,170.16667 367.5,171.07733C367.49991,171.98801 367.60406,172.89 367.216,173.78133C366.89307,174.52309 366.51068,175.26666 366.5,176.16667C366.48932,177.06667 366.04703,177.77386 365.66666,178.66667C365.34647,179.4182 365.44455,180.36761 365,181.16667C364.55438,181.96762 364.17386,182.70332 363.784,183.46666C363.39948,184.21956 363.6571,185.18239 363.48932,186.06667C363.30984,187.01257 362.75775,187.70116 362.41599,188.46666C362.08401,189.21021 361.51801,190.06613 361.5,190.96666C361.48199,191.86649 361.5,192.76666 361.5,193.66667C361.5,194.46666 361.68372,195.39316 361.46399,196.26666C361.24695,197.12949 360.74924,197.81815 360.33334,198.66667C359.95963,199.42915 359.51266,200.16652 359.5,201.06667C359.4874,201.9621 359.07468,202.64133 358.5,203.1875L358.14282,203.96666" id="svg_18" stroke-width="3" stroke="#000" fill="none"/>
  <path t="119423,119502,119517,119517,119533,119533,119548,119549,119564,119564,119565,119573,119573,119580,119580,119589,119605,119628,119629,119638,119654,119661,119661,119677,119677,119693,119693,119701,119709,119725,119725,119741,119741,119741,119757,119757,119765,119773,119781,119781,119797,119813,119845,119853,119861,119877,119893,119925,119933,119949,119949,119965,119973,120013,120022,120061,120061,120109,120141,120157,120189" d="M355.5,224.66667C355.5,222.04134 355.4516,221.17725 355.53601,220.45599C355.65298,219.45644 356.07617,218.71312 356.37866,217.68784C356.5762,217.0183 356.72473,216.1248 357,215.14583C357.14917,214.61536 357.44028,213.35538 357.47916,212.70833C357.54037,211.6898 357.5,210.868 357.5,209.96666C357.5,209.03067 357.5,208.18266 357.5,207.31934C357.5,206.30267 357.5,205.46666 357.5,204.5665C357.5,203.78133 357.5,202.83067 357.5,202.06534C357.5,201.07117 357.49738,200.15199 357.5,199.1875C357.50226,198.36215 357.68552,197.50711 358,196.64583C358.35477,195.67422 358.44528,194.86211 358.55267,194.26666C358.73462,193.25784 359.19934,192.53841 359.41467,191.552C359.62561,190.58574 359.5,189.66667 359.5,188.86667C359.5,187.96666 359.5,187.06667 359.5,186.16667C359.5,185.26666 359.33301,184.35077 359.50134,183.468C359.64575,182.71063 360.39374,182.19267 360.784,181.46666C361.24347,180.61188 361.49933,179.86667 361.5,178.96666C361.50067,178.06667 361.35727,177.15356 361.51068,176.26666C361.65485,175.4332 362.30133,174.86667 362.97916,174.16667L363.44284,173.36667L363.5,172.46666L363.5,171.56667" id="svg_19" stroke-width="20" stroke="#fff" fill="none"/>
  <path t="123712,124296,124331,124412,124412,124587,124637,124755,124834,124918,124939,124979,124992,124992,125031,125055,125157,125235,125295,125295,125311,125343,125383,125399,125471,125471,125511,125567,125583,125599,125639,125647,125718,125718,125839,125902,125936,125937,125970,126150,126150,126165,126191,126208,126215,126239,126890,126927,126943,127187,127247,127303,127434,127434,127486,127591,127607,127711,127753,127753,127768,127871,127871,128031,128101,128159,128287,128287,128367,128400,128543,128655,128703,128898,128966,129014,129015,129155,129155,129203,129256,129271,129336,129336,129395,129403,129470,129520,129586,129651,129750,129803" d="M368.5,168.66667C367.58533,168.952 367.5,169.76666 367.5,170.66667C367.5,171.46666 367.5,172.36667 367.5,173.26666C367.5,174.16667 367.5,175.06667 367.5,175.96666C367.5,176.86667 367.5,177.76666 367.5,178.66667C367.5,179.46666 367.68372,180.39316 367.46399,181.26666C367.24695,182.12949 366.71097,182.9203 366.27866,183.76666C365.94394,184.42198 365.50534,185.26662 365.5,186.16667C365.49466,187.06665 365.63165,188.01672 365.27866,188.76666C364.9136,189.54218 364.50226,190.36665 364.5,191.26666C364.49774,192.16667 364.50067,193.06667 364.5,193.96666C364.49933,194.86667 364.26605,195.62494 363.85266,196.36667C363.42703,197.13036 363.15756,197.9805 362.5,198.66667C361.9129,199.2793 361.15982,199.77246 360.66666,200.66667C360.3009,201.32985 359.35104,201.32948 358.66666,201.83333C358.01367,202.31406 357.69012,203.15797 357.064,203.64133C356.32217,204.21397 355.51801,204.19519 355.5,203.26666C355.48254,202.36684 355.5,201.46666 355.5,200.56667C355.5,199.66667 355.30405,198.83223 355.55716,197.96666C355.81381,197.08904 356.38055,196.36044 356.50134,195.46666C356.61075,194.65714 357.25046,194.0087 357.7955,193.36667C358.43619,192.61195 358.62347,191.88957 359.07468,191.06667C359.50241,190.28653 359.36343,189.31003 359.784,188.46666C360.11392,187.80502 360.49774,186.96667 360.5,186.06667C360.50223,185.16667 360.5,184.26666 360.5,183.36667C360.5,182.46666 360.46609,181.56602 360.5,180.66667C360.52859,179.90788 360.88748,179.02777 361.14734,178.31934C361.51404,177.31963 361.41788,176.46289 361.50015,175.56667C361.58383,174.65523 361.9924,173.87582 362.5,173.1875C363.01331,172.49146 363.49933,171.86534 363.5,170.96666C363.50067,170.06667 363.5,169.16667 363.5,168.26666L363.5,167.36667" id="svg_20" stroke-width="3" stroke="#000" fill="none"/>
  <path t="131749,132124,132124,132164,132196,132423,132423,132501,132616,132616,132699,132699,132733,132755,132755,132795,132868,132915,132987,133003,133043,133080,133096,133144,133192" d="M353.5,152.66667C353.66666,153.66667 354.29318,154.15961 354.97916,154.66667C355.63797,155.15367 355.91824,156.08272 356.69867,156.58267C357.42712,157.04933 357.41788,157.87044 357.50015,158.76666C357.58383,159.67812 358.15363,160.22707 358.7955,160.96666C359.37411,161.63336 359.30338,162.50121 359.55716,163.36667C359.81445,164.24411 360.38852,165.00764 360.92532,165.64133C361.4281,166.23483 361.5,167.06667 361.5,167.96666L361.50134,168.86534L361.85266,169.614L362.47916,170.1875" id="svg_21" stroke-width="3" stroke="#000" fill="none"/>
  <path t="136155,136568,136608,136701,136736,136792,136840,136856,136919,136919,136935,136935,137032,137064,137064,137088,137133,137181,137213,137269,137309,137309,137349,137349,137397,137421,137461,137471,137471,137486,137525,137526,137581,137613,137613,137637,137653,137677,137685,137701,137725,137726,137741,137741,137757,137781,137805,137813,137845,137869,137869,137901,137933,137949,137981,137989,138022,138029,138045,138045,138069,138085,138101,138117,138165,138205,138245,138269,138269,138277,138301,138309,138325,138333,138341,138373,138396,138444,138508,138509,138677,138894,138989,138997,139023,139023,139053,139061,139322,139374,139374,139420,139452,139508,139636,139692,139724,139725,139748,139780,139836,139956,139965,140004,140036,140037,140084,140124,140140,140156,140157,140268,140269,140324,140325,140356,140365,140420,140421,140436,140468,140548,140565,140565,140604,140613,140660,140708,140764,140765,140804,140813,141288,141336,141360,141392,141416,141456,141512,141560,141576,141576,141600,141616,141632,141664,141680,141744,141744,141760,141800,141809,141817,141825,141848,141856,141881,141889,141905,141905,141929,141938,141969,141985,142089,142121,142193,142249,142250,142329,142457,142489,142609,142793,143057,143377,143378,143449,143545,143553,143609,143825,143841,143913,143936,143977,143977,143985,144001,144105,144224,144233,144286,144337,144337,144345,144473,144490,144582,144625,144729,144729,144769,144785,144852,144905,145017,145084,145084,145100,145169,145317,145356,145388,145420,145460,145469,145540,145580,145620,145660,145669,145733,145837,145838,145887,145902,146006,146053,146053,146134,146134,146150,146189,146237,146277,146333,146381,146382,146453,146486,146518,146600,146661,146701,146733,146765,146765,146797,146829,146861,146901,146949,147013,147045,147078,147078,147094,147109,147126,147173,147235,147293,147349,147389,147389,147452,147509,147573,147637,147686,147686,147749,147749,147757,147798,147852,147902,147918,147918,147949,148109" d="M347.5,184.66667C347.5,186.46666 347.5,187.36667 347.5,188.26666C347.5,189.06667 347.5,189.96666 347.5,190.86667C347.5,191.76666 347.5,192.66667 347.5,193.46666C347.5,194.36667 347.18549,195.0538 346.66666,195.83333C346.19577,196.5408 346.69595,197.5011 346.44284,198.36667C346.18619,199.24431 345.52859,199.9653 345.5,200.86667C345.47147,201.7662 345.49811,202.66667 345.5,203.42383C345.50226,204.31935 345.52347,205.21017 345.92532,206.03067C346.35141,206.90062 346.5,207.76666 346.5,208.66667C346.5,209.46666 346.80353,210.06122 347.33334,210.83333C347.75131,211.44244 347.5,212.492 347.5,213.5C347.5,214.256 347.5,215.16667 347.5,216.06667C347.5,216.96666 347.5,217.86667 347.5,218.76666C347.5,219.66667 347.5,220.42383 347.5,221.31934C347.5,222.18266 347.5,223.14583 347.5,224.06667C347.5,224.96666 347.5,225.86667 347.5,226.76666C347.5,227.66667 347.5,228.46666 347.5,229.36667C347.5,230.26666 347.5,231.16667 347.5,232.06667C347.5,232.96666 347.5,233.86667 347.5,234.76666C347.5,235.66667 347.5,236.46666 347.5,237.36667C347.5,238.26666 347.5,239.16667 347.5,240.06667C347.5,240.96666 347.5,241.86667 347.5,242.76666C347.5,243.66667 347.5,244.46666 347.5,245.36667C347.5,246.26666 347.50226,247.16667 347.5,248.06667C347.49774,248.96219 346.92264,249.60786 346.47467,250.27733C345.98254,251.01276 345.74924,251.81815 345.33334,252.66667C344.95963,253.42915 343.56723,253.87491 343.84299,254.66667C344.12488,255.47601 345.60001,254.66667 346.5,254.66667C347.29999,254.66667 348.20096,254.61122 349,254.16667C349.80096,253.72105 350.7565,253.57549 351.21466,252.86534C351.67252,252.15564 351.5,251.16667 351.5,250.26666C351.5,249.36667 351.33725,248.40979 351.72134,247.56667C352.07669,246.78665 352.49466,246.06671 352.5,245.16667C352.50534,244.26668 352.5,243.36667 352.5,242.46666C352.5,241.56667 352.32645,240.62842 352.58533,239.86667C352.88708,238.97874 353.26575,238.23433 353.509,237.36667C353.75467,236.49048 354.7067,236.35559 355.33066,235.46533C355.74902,234.86839 355.97137,233.85896 356.216,233.15067C356.54193,232.20689 356.42108,231.23048 356.7215,230.3455C356.95386,229.66096 357.87762,229.20085 358.37851,228.44516C358.8685,227.70593 358.71097,226.69452 359.07468,226.06667C359.52063,225.29681 359.5,224.36667 359.5,223.46666C359.5,222.56667 359.5,221.66667 359.5,220.86667C359.5,219.96666 358.70276,218.57576 359.55716,218.08099C360.12802,217.75043 360.49466,219.26662 360.5,220.16667C360.50534,221.06665 360.5,221.96666 360.5,222.86667C360.5,223.76666 360.5,224.66667 360.5,225.46666C360.5,226.36667 360.49466,227.26668 360.5,228.16667C360.50534,229.06671 360.94232,229.77847 361.33334,230.66667C361.62286,231.32431 361.5,232.26666 361.5,233.16667C361.5,234.06667 361.51068,235.056 362,235.66667C362.48932,236.27733 362.35794,237.17967 362.51068,238.06667C362.65414,238.89981 363.41498,239.65407 363.49866,240.46666C363.59088,241.36194 363.5,242.26666 363.5,243.16667C363.5,244.06667 363.5,244.96666 363.5,245.86667C363.5,246.76666 363.5,247.66667 363.5,248.46666C363.5,249.36667 363.66522,250.28586 363.47916,251.16667C363.30017,252.01405 362.8981,252.96204 362.2785,253.54533C361.67413,254.1143 360.64453,254.06964 359.936,254.692C359.39059,255.17108 360.30133,255.666 361.20001,255.66667C362.10001,255.66734 363.03473,255.61378 363.79999,256.01935C364.64587,256.46765 365.5,256.66666 366.29999,256.66666C367.20001,256.66666 368.10001,256.66666 369,256.66666C369.89999,256.66666 370.80472,256.75757 371.70001,256.66534C372.5126,256.58163 373.29779,256.01108 373.47916,255.16667C373.66821,254.2865 373.5,253.36667 373.5,252.46666C373.5,251.56667 373.5,250.66667 373.5,249.86667C373.5,248.96666 373.5,248.06667 373.5,247.16667C373.5,246.26666 373.63657,245.31003 373.216,244.46666C372.88608,243.80502 372.68594,242.9398 372.46399,242.06667C372.24478,241.20439 371.66675,240.45517 371.49985,239.56683C371.35034,238.77112 370.71069,238.28444 370.49866,237.468C370.29077,236.66756 369.51044,236.14601 369.5,235.26666C369.48932,234.36673 369.5,233.46666 369.5,232.56667C369.5,231.66667 369.69595,230.83223 369.44284,229.96666C369.18619,229.08904 368.58298,228.36462 368.49866,227.46533C368.43433,226.77921 368.02863,225.85896 367.784,225.15067C367.45807,224.20689 367.5,223.26666 367.5,222.36667C367.5,221.46666 367.5,220.56667 367.5,219.66667C367.5,218.86667 367.5,217.96666 367.5,217.06667C367.5,216.16667 367.5,215.26666 367.5,214.36667C367.5,213.46666 367.5,212.56667 367.5,211.66667C367.5,210.86667 367.5,209.96666 367.5,209.06667C367.5,208.16667 367.5,207.26666 367.5,206.36667C367.5,205.46666 367.5,204.56667 367.5,203.66667C367.5,202.86667 367.5,201.96666 367.5,201.06667C367.5,200.16667 367.5,199.26666 367.5,198.36667C367.5,197.46666 367.5,196.56667 367.5,195.66667C367.5,194.86667 367.5,193.96666 367.5,193.06667C367.5,192.16667 367.43756,191.23593 367.72134,190.34534C367.94409,189.64632 368.41168,188.69235 368.49866,187.868C368.59344,186.96976 369.11813,186.35634 369.41467,185.46666C369.70056,184.60902 369.5,183.66667 369.5,182.86667L369.5,181.96666L369.5,181.06667" id="svg_22" stroke-width="3" stroke="#000" fill="none"/>
  <path t="149355,149717,149785,149835,149893,149941,149982,150013,150053,150061,150085,150151,150151,150237" d="M346.5,184.66667C347.30133,184.66667 348.20001,184.66667 349.10001,184.66667C350,184.66667 350.94455,184.5712 351.70001,184.95067C352.5672,185.38625 353.17249,185.94846 353.72134,186.54533C354.30988,187.18536 354.78534,187.86667 355.30133,188.46666L355.89999,189.056" id="svg_23" stroke-width="3" stroke="#000" fill="none"/>
  <path t="151133,151362,151362,151391,151640,151885,151917,151973,152052,152068,152265,152335,152373,152373,152421,152485,152517,152525,152669,152702,152766" d="M344.5,185.66667C345.5,184.66667 345.09726,183.73026 345.58533,182.952C346.04968,182.21158 346.17682,181.51225 346.72134,180.78799C347.20465,180.14516 347.93546,179.68468 348.79999,179.66667C349.69983,179.64793 350.60001,179.66667 351.5,179.66667C352.29999,179.66667 353.20001,179.66667 354.10001,179.66667C355,179.66667 355.89999,179.67734 356.69867,179.952L357.33334,180.66667L357.66666,181.5" id="svg_24" stroke-width="3" stroke="#000" fill="none"/>
  <path t="156045,156402,156402,156437,156445,156469,156477,156493,156652,156667,156685,156718,156741,156773,156798,156806,156868,156884,156884,156901,156925,156941,156973,157005" d="M344.5,171.66667C345.5,171.66667 346.30017,171.64868 347.20001,171.66667C348.10056,171.68468 348.89444,172.10117 349.69867,172.58267C350.44229,173.02788 350.93546,173.64803 351.79999,173.66667C352.69846,173.68605 353.24762,174.29437 354.02084,174.64583C354.82141,175.00972 355.79999,174.66667 356.70001,174.66667C357.60001,174.66667 358.5,174.66667 359.29999,174.66667C360.20001,174.66667 361.10001,174.66667 362,174.66667L362.89999,174.66667L363.79999,174.66667" id="svg_25" stroke-width="3" stroke="#000" fill="none"/>
  <path t="161875,162350,162434,162617,162657,162784,162833,162833,162865,162890,162921,162953,163041,163073,163097,163152,163152,163152,163209,163225,163225,163273,163305,163338,163394,163426,163469,163469,163484,163507" d="M340.5,163.66667C341.5,163.66667 342.04529,164.11641 342.78534,164.58133C343.56219,165.06938 344.31427,164.99776 344.72134,165.76666C345.12238,166.52419 345.49774,167.36665 345.5,168.26666C345.50226,169.16667 345.5,170.06667 345.5,170.96666C345.5,171.86667 345.5,172.76666 345.5,173.66667C345.5,174.46666 345.18549,175.0538 344.66666,175.83333C344.19577,176.5408 344.51801,177.46684 344.5,178.36667C344.48199,179.2672 343.88187,179.97699 343.58533,180.86667C343.29944,181.7243 343.5,182.66667 343.5,183.46666L343.5,184.36667L343.5,185.26666" id="svg_26" stroke-width="3" stroke="#000" fill="none"/>
  <path t="167009,167178,167249,167288,167353,167409,167409,167425,167425,167465,167481,167489,167521,167529,167664,167732,167747,167801,167801,167865,167873,167920,167953,167969,168001,168034,168249,168281,168281,168329,168353,168353,168409,168537,168537,168585,168625" d="M348.5,127.66666C348.78534,126.752 349.60001,126.66666 350.5,126.66666C351.45184,126.66666 352.26532,126.50166 353.01733,126.83733C353.83945,127.20432 354.00208,128.27664 354.5,129.125C354.88037,129.77307 355.94897,130.06261 356.37866,130.76649C356.85349,131.54431 357.4707,132.02255 357.5,132.96666C357.52792,133.86624 357.74213,134.62044 358.14734,135.36667C358.56064,136.12779 358.55957,137.10916 359.07468,137.692C359.59418,138.27979 360.17841,138.9519 360.784,139.58267C361.33398,140.15555 362.22223,140.589 362.43832,141.3765C362.65213,142.15559 362.08267,143.04797 361.39999,143.76666C360.91299,144.27934 360.20001,144.96666 359.5,145.66667L358.936,146.26666L358.53601,147.06667L358.5,147.96666" id="svg_27" stroke-width="3" stroke="#000" fill="none"/>
  <path t="169749,170083,170083,170099,170099,170162,170170,170202,170218,170226" d="M349.5,130.66667C348.5,131.66667 348.5,132.46666 348.5,133.36667C348.5,134.26666 348.5,135.16667 348.5,136.06667L348.50449,136.96217L348.92532,137.64133L349.5,138.16667" id="svg_28" stroke-width="3" stroke="#000" fill="none"/>
  <path t="178524,178793,178947,179001,179017,179049,179097,179233,179272,179399,179548,179744,179828,179899,179899,179967,179982" d="M428.5,121.66666C426.79999,121.66666 425.77438,122.10786 424.936,121.63067C424.24451,121.23707 424.5,120.06667 424.5,119.16666C424.5,118.26667 424.5,117.36667 424.5,116.46667C424.5,115.56667 424.1232,114.48668 424.66666,113.83334C425.24063,113.14331 426.10001,113.092 427,112.6875L427.89999,112.66666" id="svg_29" stroke-width="3" stroke="#000" fill="none"/>
  <path t="180868,181035,181153,181281,181281,181281,181296,181329,181345,181409,181449,181497,181497,181513,181747,181763,181784,181784,181793,181793,181800,181816,181865,181904,181976,181977,182081,182218,182265,182265,182345,182353,182458,182496,182577,182617,182664,182717,182816,182873,182873,182920,182968,182969,182984,183024,183276,183328,183653,183653,183697,183761,183800,183818,183905,183921,183961,183961,184186,184201,184265,184281,184313,184450" d="M429.5,111.66666C428.2785,110.78817 427.39999,110.66666 426.5,110.66666C425.70001,110.66666 424.79999,110.66666 423.89999,110.66666C423,110.66666 422.1174,110.64747 421.5,110.16666C420.8602,109.6684 419.94089,109.96365 419.06934,109.58134C418.30472,109.24593 417.23453,108.27071 417.78665,107.752C418.43103,107.14663 419.5,107.66666 420.47849,107.66666C421.1955,107.66666 422.10001,107.66666 423,107.66666C423.89999,107.66666 424.89313,107.86876 425.69867,107.38133C426.323,107.00356 426.63922,105.84261 427.36133,105.70267C428.31625,105.5176 429.1955,105.66666 430.10001,105.66666C431,105.66666 431.89999,105.66666 432.79999,105.66666C433.70001,105.66666 434.88293,105.2719 435.41467,105.952C435.9805,106.6757 435.5,107.76667 435.5,108.66666C435.5,109.46667 435.80353,110.06123 436.33334,110.83334C436.75131,111.44245 436.19943,112.61124 436.72134,113.42384C437.19247,114.15739 437.92389,114.48058 438.70001,114.952C439.37637,115.36282 440.17114,116.08282 440.44284,116.96667C440.67844,117.73314 440.21765,118.62395 439.29999,118.66666C438.40097,118.7085 437.4996,118.6413 436.70001,118.66666C435.79861,118.69526 435,119.16666 434.20001,119.6095L433.30133,119.668L432.58401,119.95067L432.064,120.63067" id="svg_30" stroke-width="3" stroke="#000" fill="none"/>
  <path t="185132,185434,185450,185473,185564,185585,185641,185701,185749,185797,185829,185861,185886,185886,185901,185933,185965,185981,186029,186061,186061" d="M436.5,104.66666C438,106.14584 438.83911,106.55739 439.47467,107.092C440.12402,107.63821 440.6095,108.33673 441.30133,108.75066C442.09668,109.22654 442.48199,110.06612 442.5,110.96667C442.51801,111.86649 442.5,112.76667 442.5,113.66666C442.5,114.46667 442.5,115.36667 442.5,116.26667C442.5,117.16666 442.51068,118.06667 442.784,118.86667L443.33334,119.66666L443.49866,120.46667" id="svg_31" stroke-width="3" stroke="#000" fill="none"/>
  <path t="186780,187346,187346,187581,187629,187661,187661,187669,187709,187741,187791,187844,187860,187900,187909,187956,188034,188050,188050,188068,188148,188188,188286,188324,188356,188419,188434,188484,188500,188500,188551,188588,188620,188685,188693,188751,188815,188899,188899,188941,188973,188973,189017,189085,189134,189196,189267,189301,189302,189333,189385,189400,189400,189437,189484,189484,189533,189533,189565,189605,189653,189653,189669,190037,190105,190217,190217,190281,190399,190417,190467,190467,190533,190585,190602,190633,190649,190782,190832,190833,190848,190896,190912,191032,191032,191082,191083,191128,191161,191201,191265,191265,191332,191400,191441,191465,191497,191521,191521,191567,191567,191625,191640,191696,191697,191713,191745,191761" d="M434.5,120.66666C435.66666,121.66666 436.09448,122.2634 436.89999,122.64133C437.78372,123.05595 438.54642,123.3833 439.29999,123.75066C440.13409,124.1573 440.36203,125.17966 441.02084,125.66666C441.70682,126.17373 442.17096,126.89643 442.72134,127.54533C443.28217,128.20654 444.03912,128.54239 444.5,129.1875C444.99826,129.88493 445.59399,130.59052 446.064,131.26666C446.62411,132.07246 447.27481,132.60327 447.49551,133.37117C447.74289,134.23183 447.5,135.16667 447.5,136.06667C447.5,136.96666 447.5,137.86667 447.5,138.76666C447.5,139.66667 447.5,140.46666 447.5,141.36667C447.5,142.26666 447.5,143.16667 447.5,144.06667C447.5,144.96666 447.5,145.86667 447.5,146.76666C447.5,147.66667 447.48715,148.51735 446.97916,149.16667C446.37875,149.93408 445.67203,150.31458 444.79999,150.71933C443.9686,151.10521 443.20139,151.63808 442.29999,151.66667C441.40045,151.69522 440.49954,151.63959 439.70001,151.66667C438.85571,151.69527 438.3457,152.58293 437.5,152.66667C436.70392,152.7455 435.79904,152.72212 435,153.16667C434.19907,153.61229 433.45544,153.97771 432.70001,154.38266C431.94403,154.7879 431.1077,155.11087 430.39999,155.76649C429.80637,156.31645 428.96799,156.60152 428.20001,157.01933C427.35913,157.47681 426.35571,157.63591 425.85718,156.96217C425.34344,156.2679 425.31693,155.17076 425.78534,154.468C426.31546,153.67268 427.2937,153.5719 428,153.16667C428.79312,152.71164 429.78113,152.80399 430.44733,152.314C431.13156,151.81076 431.93747,151.74789 432.70132,151.38266C433.43118,151.03368 434.4563,151.00011 435.25717,150.44533C435.91861,149.98712 436.61591,149.75951 437.38535,149.58133C438.35919,149.35582 439.1232,149.18747 439.95834,148.66667C440.66544,148.22574 440.93973,147.27017 441.59982,146.56667C442.06665,146.06914 442.3201,145.05814 442.85718,144.37117C443.43878,143.62729 444.43912,143.45143 444.5,142.56667C444.5618,141.66879 444.59561,140.87265 445,140.16667C445.4545,139.37323 445.5,138.46666 445.5,137.56667C445.5,136.66667 445.5,135.86667 445.5,134.96666L445.5,134.06667L445.47916,133.16667" id="svg_32" stroke-width="3" stroke="#000" fill="none"/>
  <path t="193562,193729,193790,193790,193798,193854,193870,193918,193967,194038,194045,194078,194102,194110,194110,194119,194127,194142,194166,194217,194267,194334,194350,194350,194382,194450,194450,194646,194646,194662,194700,194700,195006,195006,195022,195022,195037,195070,195102,195102,195119,195287,195358" d="M418.5,119.66666C417.41599,120.55334 417.10126,121.30136 416.784,122.18267C416.45065,123.1087 415.7413,123.60809 415.50449,124.37117C415.24945,125.19296 414.66974,125.7156 414.50134,126.468C414.30466,127.34683 413.92636,128.12973 413.55267,128.96666C413.20792,129.73882 412.66763,130.43848 412.50449,131.36667C412.35477,132.21855 411.71927,132.67023 411.50134,133.468C411.25958,134.35301 410.56088,134.8819 410.5,135.76666C410.4382,136.66455 410.53677,137.42905 409.97916,138.16667C409.39157,138.94395 408.19696,139.51741 408.56168,140.30949C408.90497,141.05505 409.92896,141.03737 410.7215,141.54517C411.46823,142.02361 412.5,141.66667 413.25717,141.66667C414.15268,141.66667 415.01605,141.67796 415.97916,141.66667C416.88953,141.65601 417.41599,141.09866 417.58401,140.23466L418.14734,139.6185L418.66666,138.83333L419.41467,138.38133" id="svg_33" stroke-width="3" stroke="#000" fill="none"/>
  <path t="197036,197374,197374,197430,197499,197565,197606,197630,197761,197811,197859,197859,197875,197931,197939,197947,198000,198291,198307,198346,198386,198434,198631,198813,198851,198915,198931,198963,199227,199227" d="M418.5,119.66666C417.5,120.66666 417.5,121.46667 417.5,122.36667C417.5,123.26667 417.5,124.16666 417.5,125.06667C417.5,125.96667 417.5,126.86667 417.5,127.76667C417.5,128.66667 417.5,129.46666 417.5,130.36667C417.5,131.26666 417.4281,132.0985 416.92532,132.692C416.38852,133.3257 415.81448,134.08923 415.55716,134.96666C415.30371,135.83084 414.88452,136.4019 414.53601,137.10266C414.11133,137.95656 415.08344,138.69196 415.52533,138.056C416.03027,137.32932 416.41467,136.46666 416.50015,135.56667L416.66666,134.66667L417.11066,134.06667" id="svg_34" stroke-width="3" stroke="#000" fill="none"/>
  <path t="201609,201847,201847,201922,201955,202011,202051,202147,202164,202211,202259,202259,202275,202315,202323,202355,202419,202435,202475,202515,202515,202539,202556,202571,202587,202603,202619,202627,202643,202643,202667,202715,202739,202747,202816,202816,202851,202875,202875,202883,202907,202915,202939,202955,202971,203033,203033,203033,203067,203091,203091,203099,203099,203115,203139,203147,203171,203203,203219,203235,203252,203252,203282,203315,203323,203355,203371,203379,203395,203403,203403,203419,203427,203451,203466,203491,203491,203507,203523,203547,203571,203619,203635,203635,203651,203683,203715,203739,203771,203907,203916,203963,203995,203995,204035,204083,204147,204156,204235,204244,204291,204339,204395,204717,204733,204803,204897,204965,204965,205033,205049,205049,205075,205084,205203,205235,205259,205482,205515,205515,205531,205563,205595,205619,205650,205651,205668,205691,205699,205739,205770,205771,205787,205811,205827,205866,205883,205898,205959,205968,205968,205999,206023,206039,206079,206087,206111,206127,206159,206159,206198,206206,206299,206299,206351,206526,206526,206566,206566,206566,206582,206599,206647,206671,206703,206719,206767,206767,206799,206815,206855,206879,206887,206911,206927,206943,206943,206975,206991,207023,207032,207079,207095,207119,207143,207143,207159,207175,207207,207231,207300,207315,207375,207375,207415,207415,207447,207455,207495,207495,207614,207828,207895,207911,207927,207936,207936,207943,207983,208215,208230,208271,208271,208303,208366,208450,208487,208487,208551,208647,208711,208759,208783,208783,208831,208863,208916,208959,208999,209039,209039,209055,209087,209103,209128,209136,209198,209199,209231,209247,209270,209279,209311,209342,209359,209390,209391,209433,209479,209510,209526,209559,209599,209638,209662,209663,209678,209734,209734,209798,209830,209831,209846,209919,209939,209983,209983,210026,210074,210106,210138,210210,210211,210218,210227,210266,210291,210322,210362,210411,210458,210499,210538,210546,210547,210586,210643,210675,210715,210731,210778,210826,210836,210907,210931,210931,210954,211002,211122" d="M417.5,139.66667C417.5,140.66667 417.5,141.46666 417.5,142.36667C417.5,143.26666 417.5,144.16667 417.5,145.06667C417.5,145.96666 417.5,146.86667 417.5,147.76666C417.5,148.66667 417.5,149.46666 417.5,150.36667C417.5,151.26666 417.5,152.16667 417.5,153.06667C417.5,153.96666 417.5,154.86667 417.5,155.76666C417.5,156.66667 417.5,157.46666 417.5,158.36667C417.5,159.26666 417.5,160.16667 417.5,161.06667C417.5,161.96666 417.5,162.86667 417.5,163.76666C417.5,164.66667 417.5,165.46666 417.5,166.36667C417.5,167.26666 417.5,168.16667 417.5,169.06667C417.5,169.96666 417.5,170.86667 417.5,171.76666C417.5,172.66667 417.5,173.46666 417.5,174.36667C417.5,175.26666 417.19012,176.22639 417.51068,177.056C417.81708,177.84891 418.49466,178.31329 418.5,179.31934C418.50369,180.01399 418.5,181.03067 418.5,181.97116C418.5,182.83333 418.5,183.66667 418.5,184.64517C418.5,185.46533 418.5,186.36667 418.5,187.26666C418.5,188.16667 418.5,189.06667 418.5,189.96666C418.5,190.86667 418.5,191.76666 418.5,192.66667C418.5,193.46666 418.5,194.36667 418.5,195.26666C418.5,196.16667 418.5,197.06667 418.5,197.96666C418.5,198.86667 418.5,199.76666 418.5,200.66667C418.5,201.46666 418.51041,202.36673 418.5,203.26666C418.48956,204.16685 417.97281,204.8761 417.62149,205.76666C417.36087,206.42735 417.5,207.36667 417.5,208.26666C417.5,209.16667 417.63333,210.07727 417.49551,210.96666C417.35114,211.89835 416.61102,212.39133 416.02084,213.16667C415.46179,213.90114 414.87698,214.41643 414.52084,215.1875C414.15198,215.98616 414.31317,216.99771 413.5,217.5C412.73639,217.97168 412.2883,218.6384 411.92532,219.26666C411.43674,220.11232 410.7413,220.60809 410.50449,221.37117C410.24945,222.19296 409.61032,222.70473 409.50134,223.468C409.3717,224.37598 410.10864,225.17448 410.85718,225.6095C411.58755,226.03397 412.73297,225.91197 413.41599,225.38266C414.04568,224.89467 414.71954,224.40321 415.29999,223.86534C416.02542,223.1931 416.71878,222.6559 417.14282,221.96666C417.64816,221.14526 417.59637,220.26041 418.14734,219.614C418.66251,219.0096 419.35593,218.65735 420.10001,218.056C420.75412,217.52736 421.22421,216.77863 422,216.1875C422.73419,215.62807 423.39374,215.19267 423.784,214.46666C424.24347,213.61188 424.49933,212.86667 424.5,211.96666C424.50067,211.06667 424.43936,210.12779 424.85266,209.36667C425.25787,208.62044 425.49933,207.86667 425.5,206.96666C425.50067,206.06667 425.5,205.16667 425.5,204.26666C425.5,203.36667 425.5,202.46666 425.5,201.56667C425.5,200.66667 425.5,199.86667 425.5,198.96666C425.5,198.06667 425.5,197.16667 425.5,196.26666C425.5,195.36667 425.5,194.46666 425.5,193.56667C425.5,192.66667 425.2955,191.8297 425.55716,190.96666C425.82544,190.08177 426.70001,189.46666 427.20001,188.96666C427.89999,188.26666 428.42191,186.97458 429.14282,187.08099C429.82147,187.18117 429.5,188.46666 429.5,189.36667C429.5,190.26666 429.5,191.16667 429.5,192.06667C429.5,192.96666 429.5,193.86667 429.5,194.76666C429.5,195.66667 429.5,196.46666 429.5,197.36667C429.5,198.26666 429.5,199.16667 429.5,200.06667C429.5,200.96666 429.5,201.86667 429.5,202.76666C429.5,203.66667 429.5,204.46666 429.5,205.36667C429.5,206.26666 429.5,207.16667 429.5,208.06667C429.5,208.96666 429.5,209.86667 429.5,210.76666C429.5,211.66667 429.5,212.46666 429.5,213.36667C429.5,214.26666 429.5,215.16667 429.5,216.06667C429.5,216.96666 429.54852,217.86798 429.49985,218.76683C429.45712,219.55545 429.10468,220.51511 428.69867,221.18266C428.16245,222.06433 427.74731,222.8172 427.33334,223.66667C427.0155,224.31892 426.17715,225.12424 426.51068,226.056C426.7735,226.79022 427.94452,226.76213 428.70001,226.38266C429.5672,225.94708 430.41098,226.03165 431.14282,225.6095C431.95395,225.14162 432.67999,225.04349 433.33334,224.5C434.02335,223.92604 434.29514,223.01297 434.47916,222.16667C434.6705,221.28667 434.90887,220.53937 435.33334,219.66667C435.70004,218.91277 436.18619,218.24431 436.44284,217.36667C436.69595,216.5011 436.5,215.56667 436.5,214.66667C436.5,213.86667 436.31628,212.94017 436.53601,212.06667C436.75305,211.20384 437.45728,210.46968 437.5,209.56667C437.54251,208.66768 437.5,207.86667 437.5,206.96666C437.5,206.06667 437.35794,205.15367 437.51068,204.26666C437.65414,203.43352 438.41498,202.67928 438.49866,201.86667C438.59085,200.97139 438.5,200.06667 438.5,199.16667C438.5,198.26666 438.5,197.36667 438.5,196.46666C438.5,195.56667 438.5,194.66667 438.5,193.86667C438.5,192.96666 438.5,192.06667 438.5,191.16667C438.5,190.26666 438.5,189.36667 438.5,188.46666C438.5,187.56667 438.47464,186.66628 438.5,185.86667C438.52859,184.9653 439.18265,184.24326 439.44284,183.36667C439.67108,182.59778 439.73395,181.70839 440.14734,180.96666C440.57297,180.20299 440.96594,179.43059 441.37866,178.56667C441.78598,177.71402 442.24695,177.12949 442.46399,176.26666C442.68372,175.39316 442.41788,174.46289 442.50015,173.56667C442.58383,172.65523 443.29498,172.01294 443.47916,171.16667C443.66843,170.29713 444.27481,169.73006 444.49551,168.96217C444.74289,168.1015 444.5,167.16667 444.5,166.26666C444.5,165.36667 444.5,164.46666 444.5,163.56667C444.5,162.66667 444.5,161.86667 444.5,160.96666C444.5,160.06667 444.41052,159.2493 443.92532,158.64133C443.42694,158.01685 443.64597,156.94392 443.064,156.27733C442.45444,155.57915 441.65274,155.26225 441.216,154.46666C440.86023,153.81856 440.44733,152.96666 440,152.16667L439.55267,151.36667" id="svg_35" stroke-width="3" stroke="#000" fill="none"/>
  <path t="212597,212867,212891,212891,212907,212947,212971,212979,213059,213179,213219,213235,213379,213499,213555,213571,214000,214080,214128,214128,214256,214344,214344,214352,214448,214496,214512,214544,214576,214688,214744,214744,214832,214839,214856,214871,214920" d="M417.5,164.66667C417.78534,165.58267 418.53665,165.99278 419.29999,166.38266C420.05289,166.76721 421,166.66441 421.89999,166.66667C422.7955,166.66893 423.32153,167.34001 424.11066,167.65601C424.91745,167.97906 425.50909,168.26527 426.2045,168.71933C426.96237,169.21419 427.36444,169.9752 427.50134,170.86667C427.64191,171.7821 428.25546,172.28864 428.7215,171.56667C429.13925,170.91953 429.89081,170.25732 430.5,169.66667C431.09122,169.09346 432.07321,168.74617 432.5,168.14583C433.06586,167.34982 433.18146,166.43431 433.784,165.75067C434.31073,165.15302 434.65085,164.27208 435.5,163.83333C436.13837,163.50349 437.10001,163.66667 438,163.66667L438.89999,163.66667L439.79999,163.66667L440.70001,163.66667" id="svg_36" stroke-width="3" stroke="#000" fill="none"/>
  <path t="215685,215881,215968,216000,216032,216072,216120,216120,216232,216264,216272,216312,216320,216352,216352,216368,216416,216456,216480,216552,216583,216583,216640,216655,216671,216735,216744,216800,216904,217000" d="M416.5,159.66667C418.20001,159.66667 419.20001,159.66667 420.10001,159.66667C421,159.66667 421.85663,159.53012 422.70001,159.95067C423.36163,160.28058 424.2001,160.65401 425.10001,160.66667C426.00015,160.67934 426.70328,161.20985 427.60001,161.54517C428.45065,161.86325 429.29999,161.66667 430.20001,161.66667C431.10001,161.66667 432.03473,161.61377 432.79999,162.01933C433.6459,162.46764 434.5,162.66667 435.29999,162.66667C436.20001,162.66667 437.10001,162.66667 438,162.66667C438.89999,162.66667 439.79999,162.66667 440.70001,162.66667L441.60001,162.66667L442.5,162.66667" id="svg_37" stroke-width="3" stroke="#000" fill="none"/>
  <path t="218148,218428,218428,218436,218468,218500,218597,218668,218796,218979,219052,219068,219116,219148,219164,219228,219236,219236,219252,219260,219284,219292,219372,219380,219556" d="M419.5,135.66667C420.5,134.83333 421.03903,135.42194 422,135.64583C422.8667,135.84775 423.37717,136.38335 424.11066,136.65601C424.92526,136.95882 425.49466,137.27728 425.5,138.16667C425.5054,139.06665 425.50009,139.96666 425.5,140.86667C425.49991,141.76649 425.20856,142.53149 424.29999,142.668C423.49216,142.78937 422.68179,143.11481 421.936,143.692C421.31046,144.17613 420.69867,144.66533 419.79999,144.66667L418.89999,144.66667L418,144.66667L417.10001,144.66667" id="svg_38" stroke-width="3" stroke="#000" fill="none"/>
  <path t="220517,220804,220804,220876,220972,221052,221076,221164,221180,221228,221284,221284,221316,221332,221460" d="M426.5,137.66667C427.5,136.66667 428.29999,136.66667 429.20001,136.66667C430.10001,136.66667 431,136.66667 431.89999,136.66667C432.79999,136.66667 433.70001,136.66667 434.60001,136.66667C435.5,136.66667 436.29999,136.66667 437.20001,136.66667L438.10001,136.66667L439,136.66667" id="svg_39" stroke-width="3" stroke="#000" fill="none"/>
  <path t="222376,222864,222920,222984,223000,223024,223056,223152,223199,223231,223231,223249,223304,223560,223912,223976,224008,224016,224032,224328" d="M428.5,138.66667C429.07468,140.26666 429.27652,141.18047 429.85718,141.96217C430.35696,142.63499 431.31271,142.83772 431.5,143.66667C431.69965,144.55038 432.60001,144.66667 433.5,144.66667C434.29999,144.66667 435.20001,144.66667 436.10001,144.66667C437,144.66667 437.88934,144.65601 438.5,144.16667C439.11066,143.67734 439.97916,143.64583 440.55267,143.01933L441.33334,142.5" id="svg_40" stroke-width="3" stroke="#000" fill="none"/>
  <path t="227414,227884,228061,228133,228204,228357,228429,228461,228531,228597,228685,228701,228741,228773,228805,228837,228871,228942,228973,228981,229005" d="M425.5,121.66666C426.14734,122.37117 426.49466,123.26662 426.5,124.16666C426.50534,125.06665 426.50009,125.96667 426.5,126.86667C426.49991,127.7665 426.19446,128.43636 425.55267,129.01933C424.97336,129.54556 424.17148,129.62726 423.5,130.16667C422.89301,130.6543 422.45602,131.5209 421.69867,131.66533C420.81589,131.83368 419.89999,131.66667 418.936,131.70267L418.44733,132.314L417.66666,132.83333" id="svg_41" stroke-width="3" stroke="#000" fill="none"/>
  <polyline timestamps="232077,232466" startTime="1502005454886" id="svg_42" points="414.5,121.6666669845581 414.7853333333333,120.75200031789143 " stroke-linecap="round" stroke-width="3" stroke="#000" fill="none"/>
  <path t="233194,233410,233726,233742,233742,233793,233841,233851" d="M417.5,122.66666C417.784,121.752 418.66666,121.66666 419.5,121.66666C420.29999,121.66666 421.20001,121.66666 422.10001,121.66666L423.064,121.63067" id="svg_43" stroke-width="3" stroke="#000" fill="none"/>
  <path t="235265,235520,235520,235582,235841" d="M417.5,123.66666C418.5,123.66666 419.41599,123.66666 420.2045,123.66666L421.14282,123.6095" id="svg_44" stroke-width="3" stroke="#000" fill="none"/>
  <path t="238688,239046,239129,239190,239295,239295,239342,239342,239492,239508,239526,239566,239584,239584" d="M438.5,126.66666C440.064,127.27734 440.48199,128.06613 440.5,128.96666C440.51801,129.86649 440.5,130.76666 440.5,131.66667C440.5,132.46666 440.51041,133.36673 440.5,134.26666C440.48956,135.16685 440.14734,135.97116 439.66666,136.83333L439.5,137.64583" id="svg_45" stroke-width="3" stroke="#000" fill="none"/>
  <path t="244747,244949,244989,245006,245006,245263,245310,245351,245414,245430,245478,245478,245510,245526,245542,245574,245598,245662,245702,245726,245726,245766,245774,245879,245888,245918" d="M428.5,169.66667C427.58533,169.952 427.5,170.76666 427.5,171.66667C427.5,172.46666 427.5,173.5 427.5,174.27733C427.5,175.16667 427.36728,176.07718 427.50449,176.96666C427.64816,177.89806 428.35184,178.43527 428.49551,179.36667C428.63272,180.25615 428.5,181.16667 428.5,182.06667C428.5,182.96666 428.5,183.86667 428.5,184.76666C428.5,185.66667 428.5,186.46666 428.5,187.36667C428.5,188.26666 428.5,189.16667 428.5,190.06667L428.5,190.96666" id="svg_46" stroke-width="3" stroke="#000" fill="none"/>
 </g>
</svg>