<svg width="420" height="420" xmlns="http://www.w3.org/2000/svg" xmlns:svg="http://www.w3.org/2000/svg" xmlns:xlink="http://www.w3.org/1999/xlink">
 <!-- Created with SVG-edit - http://svg-edit.googlecode.com/ -->
 <g display="inline" class="layer">
  <title>Layer 1</title>
  <path t="0,131,146,161,161,177,194,195,211,211,228,228,228,229,229,229,245,246,246,261,261,261,262,262,278,278,294,294,321,321,326,333,350,366,390,390,397,406,414,422,422,431,438,438,438,448,448,454,454,465,470,492,492,501,502,516,516,518,526,536,536,542,552,552,558,558,565,566,574,574,574,582,582,582,589,590,601,601,606,606,617,622,622,635,637,649,649,653,669,682,682,685,695,702,715,717,726,726,734,734,742,742,749,757,758,765,765,773,774,782,782,789,790,790,798,798,805,805,815,815,821,831,832,837,837,848,853,853,865,870,881,885,898,898,901,910,917,917,926,926,933,934,942,950,958,958,965,974,974,984,990,990,999,999,1005,1016,1022,1032,1037,1049,1053,1054,1065,1069,1082,1082,1094,1094,1101,1110,1110,1117,1117,1126,1134,1134,1141,1142,1149,1149,1149,1158,1158,1158,1165,1173,1173,1182,1182,1189,1190,1190,1199,1205,1205,1215,1245,1245,1265,1270,1286,1287,1287,1294,1294,1303,1303,1310,1310,1317,1326,1326,1336,1342,1352,1352,1358,1367,1373,1374,1374,1384,1385,1390,1401,1401,1406,1406,1417,1421,1422,1435,1436,1437,1438,1450,1454,1454,1466,1467,1469,1470,1470,1485,1486,1486,1486,1487,1487,1488,1494,1494,1494,1507,1508,1510,1510,1510,1519,1528,1541,1542,1552,1557,1558,1567,1567,1573,1583,1584,1589,1590,1590,1601,1601,1605,1616,1621,1622,1633,1633,1637,1638,1650,1650,1654,1666,1666,1670,1670,1670,1677,1678,1678,1685,1685,1693,1701,1701,1710,1710,1717,1717,1725,1726,1733,1734,1750,1750,1775,1776,1792,1793,1801,1801,1801,1806,1806,1806,1818,1818,1821,1822,1822,1835,1835,1835,1838,1839,1852,1853,1853,1853,1855,1855,1855,1862,1862,1862,1869,1870,1877,1885,1885,1894,1895,1902,1902,1917,1926,1949,1950,1967,1973,1983,1983,1989,1990,2000,2000,2001,2006,2006,2006,2017,2017,2022,2022,2022,2034,2034,2034,2037,2038,2050,2050,2051,2053,2054,2054,2061,2070,2070,2077,2078,2085,2101,2102,2125,2141,2157,2167,2173,2184,2189,2190,2201,2201,2226,2227,2242,2242,2242,2246,2254,2262,2270,2278,2310,2310,2318,2327,2334,2334,2341,2351,2352,2358,2358,2368,2369,2373,2386,2390,2390,2403,2403,2422,2438,2438,2438,2446,2456,2471,2478,2486,2493,2525,2573,2589,2602,2619,2635,2636,2653,2662,2669,2670,2709,2709,2725,2735,2752,2768,2786,2806,2870,2966,2997,3021,3053,3101" d="M2,306.68335C3,306.68335 3.76167,306.68335 4.65267,306.68335C5.516,306.68335 6.5,306.68335 7.484,306.68335C8.17467,306.68335 9.25913,306.63846 9.96933,306.76868C11.0303,306.9632 11.53371,307.21799 12.40267,307.39932C13.5897,307.64703 14.1926,307.62805 15.04283,307.73599C16.08412,307.86816 17.01125,308.21985 17.76933,308.39932C18.6336,308.60394 19.63971,308.65698 20.31333,308.67267C21.49973,308.70032 22.30267,308.68335 23.16667,308.68335C24,308.68335 24.98631,308.61551 25.80983,308.74051C26.78205,308.88806 27.46288,309.23813 28.5,309.51666C29.27535,309.72488 30.2,309.68335 31.1,309.68335C32,309.68335 32.8,309.68335 33.7,309.68335C34.6,309.68335 35.52083,309.68335 36.484,309.68335C37.17467,309.68335 38.116,309.68335 39.16667,309.68335C39.836,309.68335 40.60133,309.68335 41.6,309.68335C42.4,309.68335 43.39867,309.68335 44.34283,309.68335C45.24283,309.68335 46.20133,309.68335 47.16667,309.68335C47.82533,309.68335 48.83333,309.68161 49.62533,309.68335C50.64817,309.68561 51.35476,309.875 52.10534,310.33066C52.80598,310.75601 53.83333,310.68335 54.6955,310.68335C55.636,310.68335 56.484,310.68335 57.34733,310.68335C58.25183,310.68335 58.96933,310.68335 60.00983,310.68335C60.78533,310.68335 61.83333,310.68335 62.77467,310.68335C63.45267,310.68335 64.42133,310.68335 65.22533,310.68335C66.04733,310.68335 67.07833,310.68335 67.95834,310.68335C68.97867,310.68335 69.75267,310.68335 70.65266,310.68335C71.516,310.68335 72.5,310.68335 73.484,310.68335C74.17467,310.68335 75.11467,310.68335 76.1,310.68335C77,310.68335 77.99166,311.1647 78.71467,310.59799C79.40561,310.05643 79.86134,309.68335 80.51733,309.68335C81.58933,309.68335 82.5,309.68335 83.4,309.68335C84.3,309.68335 85.2,309.68335 86.10017,309.68335C86.88533,309.68335 87.836,309.68335 88.60133,309.68335C89.5955,309.68335 90.34283,309.68335 91.37466,309.68335C92.32133,309.68335 93,309.68335 94.11733,309.68335C94.80983,309.68335 95.76667,309.68335 96.47916,309.68335C97.63617,309.68335 98.33733,309.68335 99.41517,309.68335C100.02084,309.68335 100.94933,309.68335 101.94534,309.68335C102.88133,309.68335 103.836,309.68335 104.60133,309.68335C105.5955,309.68335 106.34283,309.68335 107.37466,309.68335C108.3215,309.68335 109.02084,309.68335 110,309.68335C110.95834,309.68335 111.832,309.68335 112.70983,309.68335C113.51733,309.68335 114.47916,309.68335 115.4,309.68335C116.3,309.68335 117.2,309.68335 118.10017,309.68335C118.88533,309.68335 119.81467,309.68335 120.75733,309.68335C121.57066,309.68335 122.409,309.68335 123.39867,309.68335C124.164,309.68335 125.116,309.68335 125.884,309.68335C126.81467,309.68335 127.83334,309.68335 128.664,309.68335C129.5,309.68335 130.5,309.68335 131.44284,309.68335C132.18533,309.68335 133.11467,309.68335 134.10017,309.68335C134.88533,309.68335 135.82533,309.68335 136.51601,309.68335C137.58934,309.68335 138.5,309.68335 139.39999,309.68335C140.3,309.68335 141.2,309.68335 142.10001,309.68335C143,309.68335 143.8,309.68335 144.7,309.68335C145.52083,309.68335 146.48267,309.68335 147.29016,309.68335C148.33333,309.68335 149.02083,309.68335 150.11467,309.68335C151,309.68335 151.75717,309.68335 152.65266,309.68335C153.51601,309.68335 154.5,309.68335 155.32133,309.68335C156.17467,309.68335 157.11734,309.68335 157.96933,309.68335C158.77066,309.68335 159.54167,309.68335 160.40266,309.68335C161.59734,309.68335 162.45833,309.68335 163.22934,309.68335C164.19017,309.68335 165.16667,309.68335 166,309.68335C166.97884,309.68335 167.80983,309.68335 168.76801,309.68335C169.5,309.68335 170.23199,309.68335 171.33867,309.68335C172.32117,309.68335 173.13867,309.68335 174.04817,309.68335C175,309.68335 175.8,309.68335 176.7,309.68335C177.54167,309.68335 178.54266,309.68335 179.25067,309.68335C179.99466,309.68335 181.19017,309.68335 181.88266,309.68335C182.836,309.68335 183.60133,309.68335 184.5955,309.68335C185.51466,309.68335 186.5,309.68335 187.32133,309.68335C188.17467,309.68335 189.11467,309.68335 190.10001,309.68335C191,309.68335 191.75717,309.68335 192.64816,309.68335C193.66667,309.68335 194.5,309.68335 195.28667,309.68335C195.99916,309.68335 197.19017,309.68335 197.88266,309.68335C198.82533,309.68335 199.83333,309.68335 200.62534,309.68335C201.65266,309.68335 202.34734,309.68335 203.37466,309.68335C204.3215,309.68335 205.02083,309.68335 206,309.68335C206.78934,309.68335 207.83333,309.68335 208.6955,309.68335C209.52083,309.68335 210.48534,309.68335 211.21066,309.68335C212.2,309.68335 213.00009,309.69635 214,309.68335C214.82155,309.67267 215.53104,309.62177 216.64267,309.24066C217.31696,309.00949 217.99284,308.66589 218.69467,308.38867C219.94521,307.89474 220.74071,307.7572 221.44817,307.63516C222.68799,307.42126 223.22072,307.24017 224.04733,307.03601C225.07327,306.78262 225.97902,306.69376 227,306.68335C227.78929,306.67529 228.51466,306.68335 229.58934,306.68335C230.52083,306.68335 231.32133,306.68335 232.17467,306.68335C233.11467,306.68335 234.10017,306.68335 234.88533,306.68335C235.82533,306.68335 236.51601,306.68335 237.5,306.68335C238.48666,306.68335 239.24667,306.68335 240.16667,306.68335C240.94817,306.68335 241.99017,306.68335 242.85716,306.68335C243.74817,306.68335 244.64816,306.68335 245.66667,306.68335C246.44299,306.68335 247.22133,306.68335 248.2,306.68335C249,306.68335 250,306.68335 250.78934,306.68335C251.83333,306.68335 252.6955,306.68335 253.52083,306.68335C254.48666,306.68335 255.24667,306.68335 256.16666,306.68335C256.95267,306.68335 257.77469,306.67731 258.83334,306.68335C259.76404,306.68869 260.61945,306.7009 261.591,307.03601C262.30435,307.28207 263.16251,307.68109 264.0625,307.68335C264.76001,307.68509 265.87128,307.57269 266.74817,307.74051C267.68695,307.9202 268.38879,308.39401 269.20001,308.56183C269.98959,308.72519 271,308.68335 271.78934,308.68335C272.83334,308.68335 273.62534,308.68335 274.65717,308.68335C275.40451,308.68335 276.40439,308.62881 277.20001,308.71933C278.21066,308.83429 278.79428,309.16364 279.68533,309.39932C280.66971,309.6597 281.49982,309.67169 282.31601,309.68201C283.31458,309.69461 284.18933,309.68335 285.20016,309.68335C286.02084,309.68335 286.68533,309.68335 287.68399,309.68335C288.5,309.68335 289.31601,309.68335 290.55182,309.68335C291.26132,309.68335 292.33334,309.68335 292.96799,309.68335C294,309.68335 294.69467,309.68335 295.95715,309.68335C296.73868,309.68335 297.44818,309.68335 298.42117,309.68335C299.21466,309.68335 299.99017,309.68335 301.19016,309.68335C301.88266,309.68335 302.82535,309.68335 303.83334,309.68335C304.62534,309.68335 305.65717,309.68335 306.40451,309.68335C307.39734,309.68335 308.12799,309.68335 309.16666,309.68335C310.10001,309.68335 311,309.68335 311.79999,309.68335C312.70001,309.68335 313.52084,309.68335 314.48532,309.68335C315.21066,309.68335 316.20001,309.68335 317,309.68335C318,309.68335 318.81067,309.68335 319.68533,309.68335C320.68399,309.68335 321.5,309.68335 322.31601,309.68335C323.31467,309.68335 324.18933,309.68335 325.20016,309.68335C326.02084,309.68335 326.68533,309.68335 327.68399,309.68335C328.5,309.68335 329.31601,309.68335 330.54733,309.68335C331.22534,309.68335 332.16666,309.68335 332.95267,309.68335C333.77466,309.68335 334.83334,309.68335 335.75333,309.68335C336.51334,309.68335 337.5,309.68335 338.48532,309.68335C339.21066,309.68335 340.19968,309.68335 341.12799,309.68335C342.04816,309.68335 343,309.68335 343.79999,309.68335C344.70001,309.68335 345.60001,309.68335 346.5,309.68335C347.39999,309.68335 348.29999,309.68335 349.20001,309.68335C350.10034,309.68335 350.81442,309.69537 351.76801,309.68201C352.50018,309.67175 353.67072,309.52716 354.34933,309.258C355.33951,308.86523 356.01715,308.8342 356.9375,308.63068C357.85965,308.42676 358.43546,307.70135 359.29999,307.68335C360.19849,307.66464 361.08401,307.68335 362,307.68335C362.79999,307.68335 363.70001,307.68335 364.63599,307.68335C365.48401,307.68335 366.35092,307.75955 367.24734,307.67883C368.17709,307.59509 368.97266,307.10452 369.83334,306.85001C370.60742,306.62112 371.48401,306.68335 372.34732,306.68335C373.36401,306.68335 374.20132,306.68335 375.16666,306.68335C376,306.68335 376.97849,306.68335 377.79868,306.68335C378.672,306.68335 379.54266,306.68335 380.25067,306.68335C381.23199,306.68335 382.18567,306.68335 383.19867,306.68335C384.05267,306.68335 384.80133,306.68335 385.70001,306.68335C386.60001,306.68335 387.5,306.68335 388.39999,306.68335C389.29999,306.68335 390.20001,306.68335 391.10001,306.68335C392,306.68335 392.79999,306.68335 393.83334,306.68335C394.64667,306.68335 395.48267,306.68335 396.43066,306.68335C397.44284,306.68335 398.18533,306.68335 399.11465,306.68335C400.09982,306.68335 400.94733,306.68335 401.7045,306.68335C402.60001,306.68335 403.5,306.68335 404.39999,306.68335C405.29999,306.68335 406.2955,306.68335 407.16666,306.68335L408.09982,306.68317L408.87866,306.46182" id="svg_1" stroke-width="3" stroke="#000" fill="none"/>
  <path t="10656,10926,10927,10967,10975,11006,11022,11048,11048,11062,11126,11127,11143,11143,11173,11221,11222,11238,11238,11309,11309,11318,11334,11409,11422,11453,11486,11486,11496,11510,11541,11557,11567,11567,11589,11589,11603,11621,11637,11653,11653,11678,11686,11686,11704,11710,11726,11726,11735,11735,11742,11742,11757,11781,11789,11802,11817,11861,11877,11893,11902,11933,11941,11957,11990,12054,12055,12055,12110,12134,12158,12182,12190,12230,12250,12281,12305,12325,12325,12341,12353,12358,12406,12420,12485,12517,12537,12537,12554,12569,12585,12589,12613,12635,12638,12693,12717,12725,12749,12790,12791,12815,12816,12831,12848,12893,12958,13014,13070,13094,13127,13127,13182,13381,13382,13405,13806,13863,13926,14007,14094,14113,14126,14141,14141,14158,14158,14182,14182,14214,14214,14230,14241,14254,14254,14262,14277,14599,14618,14632,14645,14662,14733,14758,14774,14782,15006,15007,15015,15166,15183,15247,15279,15306,15324,15324,15325,15336,15353,15373,15373,15397,15413,15447,15465,15477,15502,15518,15518,15598,15617,15617,15628,15646,15646,15677,15677,15701,15701,15717,15717,15733,15758,15759,15785,15813,15824,15824,15849,15864,15886,15910,15934,15949,15958,15975,15981,15990,15997,16007,16007,16013,16014,16029,16041,16045,16057,16074,16077,16091,16093,16110,16110,16125,16125,16134,16134,16141,16149,16157,16166,16175,16182,16205,16230,16231,16252,16254,16264,16285,16286,16296,16311,16333,16333,16343,16343,16350,16381,16382,16394,16394,16397,16409,16414,16426,16426,16430,16430,16442,16442,16445,16469,16501,16511,16511,16518,16534,16557,16558,16581,16582,16594,16611,16613,16629,16661,16661,16678,16679,16710,16711,16733,16749,16765,16797,16810,16810,16813,16829,16843,16843,16861,16862,16863,16878,16878,16901,16949,16982,16982,16992,17022,17026,17032,17051,17056,17070,17070,17086,17104,17117,17118,17133,17158,17158,17191,17367,17367,17387,17398,17414,17427,17646,17647,17871,17966,17988,17992,17993,18010,18027,18044,18044,18046,18118,18119,18140,18151,18167,18180,18180,18206,18230,18238,18253,18262,18285,18301,18301,18317,18318,18332,18332,18347,18365,18389,18390,18413,18437,18453,18462,18479,18485,18501,18541,18550,18565,18581,18605,18670,18694,18694,18733,18749,18765,18783,18783,18797,18806,18821,18837,18869,18882,18901,18925,18925,18949,18965,18982,18990,19005,19006,19014,19053,19077,19077,19096,19191,19192,19245,19254,19268,19288,19318,19349,19399,19424,19438,19496,19503,19530,19645,19677,19757,19845,20239,20461,20557,20589,20599,20606,20606,20606,20616,20616,20616,20621,20632,20638,20638,20653,20685,20734,20749,20797,20817,20837,20853,20855,20935,20935,20961,20974,20974,20990,21031,21118,21149,21168,21198,21262,21293,21318,21318,21357,21373,21447,21639,21678,21693,21703,21710,21720,21742,21753,21758,21770,21797,21829,21851,21877,21942,22173,22185,22185,22213,22237,22238,22253,22310,22326,22342,22357,22369,22407,22430,22478,22478,22492,22510,22522,22566,22592,22592,22612,22614,22629,22664,22665,22693,22734,22757,22781,22806,22807,22821,22839,22854,22871,22872,22877,22917,22926,22949,22970,23037,23038,23046,23069,23088,23093,23094,23103,23141,23165,23189,23247,23294,23375,23394,23417,23417,23426,23446,23477,23477,23493,23509,23525,23526,23537,23542,23555,23570,23589,23613,23645,23661,23670,23671,23741,23755,23758,23780,23799,23813,23822,23853,23854,23886,23912,23930,23931,23939,23941,24158,24270,24297,24298,24313,24314,24315,24325,24325,24326,24327,24341,24357,24357,24359,24381,24406,24429,24429,24445,24495,24510,24551,24577,24592,24621,24629,24642,24642,24656,24673,24693,24707,24709,24733,24742,24758,24773,24773,24792,24809,24810,24824,24829,24841,24857,24901,24925,24957,25030,25069,25069,25101,25158,25182,25182,25269,25309,25341,25461,25493,25494,25510,25541,25558,25597,25653,25661,25749,25757,25774,25781,25791,25808,25808,25861,26007,26093,26125,26126,26149,26189,26189,26261,26261,26349,26470,26479,26543,26571,26647,26693,26710,26711,26749,26879,27039,27056,27078,27079,27110,27111,27130,27158,27222,27294,27295,27303,27331,27347,27351,27381,27429,27477,27509,27509,27529,27549,27550,27550,27565,27578,27595,27611,27628,27638,27653,27661,27694,27702,27702,27717,27727,27745,27761,27762,27766,27789,27797,27811,27813,27877,28087,28105,28197,28197,28245,28245,28309,28317,28328,28333,28373,28396,28396,28413,28422,28453,28454,28485,28521,28534,28550,28582,28600,28606,28621,28637,28653,28653,28663,28669,28670,28726,28726,28734,28774,28837,28877,29070,29117,29118,29133,29150,29150,29164,29164,29180,29181,29182,29206,29206,29245,29267,29293,29294,29341,29373,29614,29615,29623,29640,29641,29655,29656,29677,29685,29699,29714,29717,29718,29731,29748,29757,29773,29789,29829,29838,29927,29928,29962,30006,30019,30054,30070,30071,30085,30109,30175,30205,30246,30253,30358,30398,30406,30418,30437,30438,30461,30462,30483,30501,30501,30502,30533,30534,30598,30625,30625,30637,30638,30709,30709,30717,30773,30789,30805,30820,30838,30853,30869,30925,30937,30957,30997,31117,31125,31126,31134,31142,31158,31173,31174,31197,31198,31205,31217,31233,31234,31237,31253,31268,31358,31398,31454,31478,31497,31518,31518,31549,31550,31550,31573,31597,31619,31620,31623,31653,31670,31671,31702,31725,31736,31765,31765,31786,31789,31790,31813,31835,31837,31853,31854,31893,31894,32029,32037,32069,32109,32133,32133,32141,32152,32169,32186,32310,32358,32389,32413,32453,32454,32493,32494,32509,32510,32525,32539,32541,32542,32630,32717,32757,32781,32781,32789,32803,32806,32819,32830,32830,32845,32846,32862,32862,32893,32917,32949,32949,32999,33021,33035,33052,33093,33103,33109,33142,33157,33158,33173,33174,33205,33221,33253,33305,33305,33325,33349,33429,33443,33447,33462,33474,33474,33475,33477,33478,33488,33489,33493,33517,33517,33538,33538,33557,33573,33574,33589,33917,33918,33919,33926,33926,33949,33958,33973,33998,33998,34045,34046,34093,34109,34133,34165,34166,34245,34246,34269,34269,34325,34525,34541,34557,34576,34582,34613,34623,34641,34657,34661,34677,34690,34707,34725,34740,34757,34774,34775,34813,34837,34989,34990,34998,34999,35029,35044,35058,35059,35061,35077,35094,35094,35110,35173,35205,35205,35237,35277,35291,35291,35309,35325,35333,35349,35350,35359,35382,35407,35413,35426,35441,35445,35461,35485,35509,35536,35537,35557,35558,35565,35582,35597,35662,35664,35693,35716,35733,35765,35781,35805,35814,35861,35862,35925,35925,35943,35943,35981,36013,36025,36026,36069,36103,36104,36123,36124,36149,36181,36182,36197,36209,36213,36226,36243,36277,36316,36317,36321,36334,36334,36347,36348,36351,36360,36365,36381,36381,36405,36405,36445,36446,36598,36814,36836,36862,36877,36894,36911,36911,36928,36934,36965,37014,37046,37062,37080,37101,37133,37166,37177,37199,37222,37242,37243,37246,37246,37261,37279,37286,37300,37302,37318,37319,37333,37365,37549,37549,37573,37595,37597,37611,37612,37629,37645,37670,37685,37709,37741,37742,37750,37763,37764,37822,37926,37973,38277,38278,38286,38301,38333,38346,38347,38365,38389,38390,38429,38461,38502,38529,38556,38558,38562,38564,38742,38744,38846,38855,38875,38876,38896,38897,38917,38918,39029,39109,39118,39131,39150,39189,39190,39221,39333,39354,39373,39405,39421,39461,39462,39481,39481,39486,39498,39525,39566,39585,39599,39600,39621,39632,39702,39925,39997,40045,40093,40094,40125,40198,40200,40231,40254,40268,40271,40317,40363,40363,40373,40384,40385,40389,40400,40401,40405,40421,40421,40433,40514,40533,40550,40557,40558,40568,40574,40575,40584,40585,40589,40601,40605,40617,40622,40633,40634,40637,40650,40654,40667,40685,40700,40701,40718,40718,40734,40735,40751,40757,40773,40786,40787,40789,40801,40802,40805,40806,40818,40821,40822,40834,40837,40852,40877,40878,40917,40974,41000,41015,41032,41149,41150,41189,41190,41229,41293,41294,41373,41374,41397,41429,41452,41469,41493,41503,41549,41574,41600,41616,41617,41618,41633,41633,41649,41666,41693,41694,41717,41718,41736,41736,41822,41824,41910,42029,42030,42238,42309,42325,42381,42382,42549,42557,42573,42605,42624,42638,42655,42671,42672,42677,42693,42709,42958,43022,43052,43077,43134,43165,43167,43190,43263,43287,43304,43305,43349,43373,43389,43413,43414,43429,43439,43446,43461,43472,43503,43504,43541,43542,43557,43589,43598,43598,43629,43639,43648,43672,43686,43687,43703,43720,43737,43765,43791,43808,43830,43840,43841,43845,43877,43893,43894,43905,43906,43923,43925,43966,44002,44003,44021,44037,44061,44062,44077,44078,44093,44110,44111,44126,44127,44143,44159,44221,44222,44245,44246,44258,44261,44277,44317,44340,44359,44375,44376,44377,44382,44383,44395,44396,44399,44400,44417,44418,44429,44430,44431,44453,44473,44474,44477,44490,44517,44540,44557,44597,44655,44657,44676,44677,44695,44710,44729,44730,44805,44806,44826,44845,44861,44885,44965,44966,44981,45005,45333,45606,45641,45659,45660,45662,45663,45685,45686,45774,45783,45830,45853,45861,45877,45878,45892,45894,45911,45957,45989,46014,46015,46141,46197,46213,46214,46237,46245,46261,46262,46293,46317,46318,46333,46357,46377,46394,46394,46411,46437,46438,46445,46461,46485,46502,46503,46522,46523,46526,46528,46544,46545,46561,46562,46575,46594,46621,46622,46647,46648,46677,46733,46734,47190,47199,47230,47382,47384,47404,47407,47408,47427,47428,47429,47442,47443,47444,47446,47447,47460,47517,47518,47529,47530,47565,47566,47567,47593,47734,47790,47845,47869,47870,47893,47902,47916,47919,47933,47934,47938,47942,48005,48029,48053,48069,48117,48149,48214,48246,48248,48268,48269,48273,48274,48275,48293,48293,48317,48333,48334,48351,48369,48386,48390,48391,48404,48405,48407,48408,48423,48424,48444,48549,48637,48653,48839,48870,48877,48879,48973,48982,49000,49001,49018,49022,49023,49040,49041,49042,49054,49055,49068,49334,49366,49369,49383,49384,49385,49397,49398,49412,49429,49542,49544,49573,49593,49615,49616,49630,49631,49646,49647,49669,49670,49683,49700,49702,49716,49757,49768,49774,49790,49830,49877,49902,49919,50102,50132,50137,50139,50165,50230,50293,50334,50336,50389,50405,50406,50437,50456,50501,50521,50523,50538,50542,50581,50603,50619,50639,50654,50709,50717,50718,50736,50741,50754,50755,50757,50781,50805,50837,50927,50990,51029,51037,51038,51085,51109,51110,51121,51149,51206,51245,51247,51325,51381,51390,51453,51472,51525,51565,51590,51661,51725,51749,51773,51813,51837,51838,51855,51893,51904,51910,51957,51973,52061,52126,52182,52183,52184,52246,52275,52288,52305,52405,52429,52431,52597,52653,52654,52685,52711,53062,53155,53259,53335,53378,53421,53488,53583,53585,53853,53861,53901,54218,54219" d="M34,20.68333C36.00017,21.12617 35.95034,22.07803 36.35266,22.92617C36.73705,23.73647 36.7553,24.58047 37.072,25.294C37.45176,26.14961 38.48029,26.2575 38.95833,27.1625C39.42489,28.04576 39.61284,28.66694 39.8785,29.66183C40.09235,30.4627 40.00163,31.36462 40.568,32.16734C41.08845,32.90497 41.68269,33.51081 41.99733,34.39667C42.29948,35.24733 42.67993,35.83759 42.94283,36.92167C43.13664,37.72082 43.64629,38.38829 44,39.18333C44.35612,39.9838 45.0929,40.60794 45.564,41.28333C46.0757,42.01693 45.92704,43.03345 46.42533,43.658C46.92882,44.28906 47.24897,45.18567 47.61067,45.858C48.05645,46.68661 48.78905,47.17183 49.47917,47.68333C50.13736,48.17118 50.42682,49.09216 51.09983,49.78317C51.63562,50.33329 52.38039,50.904 52.83333,51.68333C53.26934,52.43353 53.93578,52.94326 54.66667,53.51667C55.31522,54.02548 55.56979,54.94107 56.32117,55.66183C56.77308,56.09534 57.48282,56.8288 58.08267,57.398C58.6688,57.95418 59.6539,58.16587 60.38933,58.658C61.05881,59.10599 61.339,59.97179 62,60.51667C62.55862,60.97715 63.4531,60.82074 64.084,61.39933C64.77806,62.03584 65.33101,62.54109 65.97467,63.10867C66.5914,63.6525 67.35457,64.09023 67.97916,64.70417C68.45776,65.17461 68.9143,66.22354 69.61066,66.70866C70.33299,67.21188 70.76711,67.98062 71.284,68.59933C71.83283,69.25628 72,69.97884 72,70.90483C72,71.78333 72,72.68333 72,73.48334C72,74.38333 72,75.28333 72,76.1625C72,77.11933 72,77.98334 72,78.88333C72,79.78333 72,80.68333 72,81.48334C72,82.38333 72,83.28333 72,84.18333C72,85.08334 72,85.98334 72,86.882C72,87.76733 72,88.68333 72,89.562C72,90.38783 72,91.31934 72,92.166C72,92.9735 71.65202,93.81723 71.284,94.48466C70.82957,95.30881 71,96.32616 71,97.20417C71,98.08334 71,98.98334 71,99.88333C71,100.78333 71,101.68333 71,102.48334C71,103.398 71,104.25267 71,105.03516C71,106.03667 71.20132,106.99143 70.99866,107.882C70.81564,108.6863 69.72064,108.97701 68.916,108.598C68.12299,108.22447 67.76327,107.28931 66.9,106.8045C66.23919,106.4334 65.64852,105.7748 65.11467,105.166C64.41844,104.37201 63.59761,104.06285 62.88667,103.48334C62.22896,102.94721 62.08407,102.01694 61.564,101.28333C61.00607,100.49633 60.19603,100.21133 59.52083,99.68333C58.86856,99.17326 58.6577,98.06447 57.8,97.76867C56.94552,97.47398 56.05267,97.68333 55.2955,97.68333C54.3,97.68333 53.43403,97.58273 52.61067,98.10867C51.87352,98.57953 50.95903,98.50191 50.2,98.76867C49.34405,99.06949 48.4383,99.4197 48.036,100.11933C47.60494,100.86899 48,101.88333 48,102.78333C48,103.68333 48,104.4405 48,105.3315C48,106.35 48,107.225 48,108.166C48,108.9735 48,109.90483 48,110.78333C48,111.68333 47.98405,112.56216 48,113.38783C48.018,114.31985 48.29215,115.16245 48.57467,115.822C49.01271,116.84465 48.9628,117.6842 49,118.48334C49.04271,119.40098 50.0682,119.47533 50.7,119.79767C51.45301,120.18185 51.77647,121.21735 52.3,121.93066C52.77898,122.58329 53.35826,123.30825 53.71467,124.19933C54.04524,125.02583 54.43553,125.79421 55.14933,126.24734C55.98914,126.78046 56.2958,127.41236 57.09983,127.90483C57.71956,128.28441 58.15923,129.10594 58.716,129.76733C59.23521,130.38411 59.60798,131.286 60.19867,131.882C60.8756,132.56505 61.61879,133.02567 61.91467,133.88333C62.20945,134.73781 62.44767,135.43399 62.97467,136.11934C63.47816,136.77412 63.80967,137.56328 64.3,138.3315C64.70696,138.9691 65.42429,139.71794 66.02533,140.258C66.66367,140.83156 67.11052,141.56067 67.85067,142.07266C68.61466,142.60115 68.86003,143.2171 69.01067,144.08333C69.15565,144.91708 69.89407,145.47234 70.64817,145.98784C71.29667,146.43114 71.79523,147.17703 72.04816,148.03067C72.31566,148.93346 72.90988,149.735 73.52084,150.18333C74.31879,150.76889 74.7654,151.23619 75,152.07266C75.19314,152.76134 76.155,153.09352 76.47916,153.70416C76.96564,154.62054 77.35674,155.29559 77.916,155.96867C78.47201,156.63783 78.82664,157.45374 78.98933,158.28334C79.16283,159.168 79.59138,159.855 80.18533,160.31934C81.01097,160.9648 81.47039,161.65614 81.91467,162.51266C82.29575,163.24736 82.62794,164.09088 83.2,164.79666C83.7343,165.45586 84.81045,165.67506 84.9955,166.44501C85.20267,167.30699 85.12678,168.42088 85.76167,168.73151C86.60629,169.14476 87.45553,169.35326 87.89017,170.3315C88.21736,171.06792 88.53507,171.78876 89.00017,172.562C89.42629,173.27043 90.12363,173.98718 90.8,174.39799C91.57613,174.8694 91.96183,175.56944 92.56934,175.96867C93.31117,176.45619 94.24543,176.77547 94.71333,177.48334C95.21435,178.2413 95.83727,178.48219 96.7,178.74049C97.55856,178.99754 98.09133,179.97415 98.81883,180.33067C99.70348,180.76422 100.59183,180.35492 101.5,180.85001C102.14983,181.20425 102.62955,181.68318 103.4,182.10867C104.22054,182.56181 104.84727,183.08774 105.284,183.88333C105.63977,184.53145 106.06386,185.46863 106.86134,185.64734C107.81046,185.86003 108.61265,185.8569 109.167,186.38783C109.94097,187.12909 110.85576,187.09563 111.63567,187.78317C112.20528,188.28532 112.68382,189.08055 113.35717,189.63066C114.05945,190.20441 114.46146,190.63852 115.05267,191.32617C115.61917,191.98511 116.65868,192.15881 117.38934,192.658C118.0658,193.12018 118.34242,193.99718 119,194.68333C119.48925,195.19386 120.11856,195.97293 120.87883,196.562C121.51139,197.05211 122.26039,197.42233 122.94933,198.07266C123.54016,198.63039 124.67434,198.60693 124.97867,199.33C125.36731,200.25337 125.00851,201.20209 125.7045,201.73151C126.43264,202.28539 127.47887,202.44533 127.964,203.10867C128.45786,203.78395 129.5899,203.85214 129.58566,204.68784C129.58144,205.52046 128.07773,205.59062 127.29467,206.0405C126.70152,206.38127 126.24547,207.19531 125.64283,207.97884C125.13184,208.6432 124.11519,208.39912 123.3,208.79767C122.54055,209.16896 122.3641,210.08177 121.7045,210.92166C121.11153,211.67671 120.93855,212.44547 120.29467,212.98334C119.61772,213.54884 118.85281,214.11237 118.35267,214.73601C117.83527,215.38116 118.18842,216.41103 117.964,217.28334C117.74114,218.14955 116.86241,218.75075 116.4,219.31934C115.74506,220.12466 115.38022,220.83896 115.084,221.798C114.87614,222.47096 114.34638,223.24376 113.7045,223.98334C113.12589,224.65002 112.94657,225.3829 112.5,226.18333C112.05641,226.97841 112.15382,228.00233 111.64733,228.63066C111.15091,229.24651 110.57869,229.9422 110.12133,230.78317C109.71481,231.53065 109.13658,232.00938 108.57467,232.658C108.06536,233.2459 108.15269,234.08551 107.9955,235.0405C107.85121,235.91708 107.15092,236.43883 106.52084,237.16251C105.95446,237.813 106,238.78334 106,239.68333C106,240.48334 106,241.38333 106,242.28334C106,243.18333 106,244.08333 106,244.98334C106,245.88333 105.96334,246.78409 106,247.68333C106.02861,248.38509 106.64368,249.11894 106.94283,249.97884C107.23375,250.81505 107.58421,251.67451 107.83334,252.51666C108.08219,253.35791 107.95203,254.27031 108.35267,255.045C108.78337,255.87781 108.69089,256.84088 109.28533,257.51401C109.88344,258.19128 110.69122,258.39679 111.38934,259.07266C112.01753,259.68082 112.78225,259.80127 113.6,260.258C114.37257,260.68948 114.87891,261.39539 115.61066,261.67267C116.50321,262.01089 117.1856,262.17206 117.83334,262.85001C118.43739,263.48224 118.94612,264.03705 119.5,264.68335C120.02418,265.29498 120.4567,266.06491 120.916,266.88199C121.31018,267.58322 121.16666,267.68335 120.38934,267.68335C119.5,267.68335 118.57865,267.6886 117.66666,267.68335C116.73862,267.67801 115.93476,267.69498 114.92167,267.46201C114.23445,267.30396 113.51149,266.84799 112.52084,266.70416C111.59877,266.57028 110.67867,266.68396 109.82533,266.68335C108.88667,266.68268 108.26129,266.23813 107.64283,265.73599C106.93824,265.16394 106.01237,264.76709 105.16666,264.68335C104.39312,264.60675 103.5,264.68335 102.52084,264.68335C101.66666,264.68335 100.81467,264.68335 99.88533,264.68335C99,264.68335 98.2,264.68335 97.3,264.68335C96.4,264.68335 95.436,264.68127 94.57467,264.68335C93.64282,264.68561 92.78695,264.95129 92.12133,265.56201C91.54046,266.09497 90.64957,266.44696 89.86134,266.70868C89.01247,266.99054 88.47935,267.67291 87.6,267.68335C86.70906,267.69391 86.6712,267.96634 87.22134,268.56201C87.80959,269.19897 88.52805,269.57584 88.98933,270.258C89.47262,270.97266 89.85012,271.78763 90,272.68335C90.14024,273.52151 91.09934,273.62152 91.57467,274.29401C92.08268,275.01273 91.90492,275.98837 92,276.88199C92.08624,277.6925 93.058,277.68335 93.724,277.68335C94.8375,277.68335 95.70983,277.68335 96.51733,277.68335C97.47916,277.68335 98.4,277.68335 99.3,277.68335C100.2,277.68335 101.30072,278.02893 101.8785,277.46201C102.45616,276.8952 103.02084,276.68335 103.9785,276.68335C104.79867,276.68335 105.7,276.68335 106.6,276.68335C107.47916,276.68335 108.36166,276.68335 109.32133,276.68335C110,276.68335 110.97833,276.68335 111.94733,276.68335C112.76167,276.68335 113.64817,276.68335 114.43066,276.68335C115.436,276.68335 116.4,276.68402 117.3,276.68335C118.2,276.68268 118.95378,276.44122 119.7,276.03601C120.46112,275.62271 121.41051,275.81607 122.3,275.67883C123.23138,275.53516 124.03524,275.31378 124.71467,274.59933C125.32023,273.96259 125.80133,273.68335 126.7,273.68335C127.564,273.68335 128.44284,273.68335 129.35184,273.68335C130.23833,273.68335 131.16667,273.68335 132.10001,273.68335C133,273.68335 133.8,273.68335 134.64284,273.68335C135.52083,273.68335 136.5,273.68335 137.38933,273.68335C138.28534,273.68335 139.20863,273.80756 140.09984,273.68317C140.90161,273.57126 141,272.51666 141,271.70416C141,270.79318 141.04927,270.03525 140.9955,269.03516C140.95326,268.24963 140.27022,267.60858 140.02533,266.82199C139.73082,265.87601 139.52075,265.0387 139.02533,264.29401C138.57915,263.62335 138.01067,263.07266 138,262.18335C137.98933,261.29401 137.38744,260.68314 136.94733,259.97882C136.52649,259.30536 135.74925,258.70407 135.28534,257.96866C134.82907,257.24539 134.99878,256.28632 134.5,255.68333C133.95747,255.02747 133.16005,254.80336 132.52083,254.16251C131.87889,253.51892 131.6326,252.53534 131.284,251.88333C130.83093,251.03595 130.48445,250.17819 129.89999,249.58333C129.30533,248.97806 128.33385,248.46672 128.0045,247.63066C127.67823,246.8024 127.52744,246.58356 128.30901,247.045C128.86398,247.37267 129.76392,248.17746 130.272,248.50867C131.09836,249.04735 131.99316,249.53168 132.59599,249.79666C133.42859,250.16264 134.51215,250.46426 135.35716,250.68784C136.21559,250.91496 136.98097,251.11499 137.64284,251.73601C138.24733,252.30319 138.03038,253.48125 138.70984,253.97884C139.44386,254.51639 140.43829,254.53152 141.0045,255.036C141.61317,255.57829 142.00461,256.28888 142.7045,256.73599C143.45836,257.21759 144.2215,257.68335 145.10001,257.68335C146,257.68335 146.8,257.68335 147.71466,257.68335C148.61067,257.68335 149.55197,257.39426 150.38933,257.694C151.1261,257.95773 151.61076,258.66656 152.60001,258.68335C153.50011,258.69861 154.25659,259.1272 154.88533,259.39932C155.77753,259.78546 156.83333,259.68335 157.6955,259.68335C158.60001,259.68335 159.5209,259.49167 160.38933,259.68335C161.04816,259.82877 161.43544,260.66534 162.3,260.68335C163.19847,260.70206 164.16667,260.68335 165,260.68335C165.8,260.68335 166.48848,260.97131 167.2215,261.56201C167.86781,262.08286 168.74802,262.34341 169.2955,262.98334C169.939,263.73547 170.48206,264.29175 170.91467,264.97C171.39014,265.71539 171,266.66251 171,267.66251C171,268.48468 171,269.38333 171,270.32617C171,271.20416 170.94662,272.0372 170.42534,272.70868C169.96481,273.30188 169.99081,274.29791 169.2955,274.73599C168.62361,275.15933 167.78596,275.69705 167.35716,276.38333C166.86388,277.17279 166.5278,277.96893 166.12134,278.78333C165.69934,279.62885 165.42792,280.33334 164.58934,280.65799C163.70949,280.99863 163.02158,281.24466 162.0215,281.56201C161.21562,281.81772 160.43753,282.08139 159.61067,282.65799C158.96277,283.1098 159,284.0405 159,284.98334C159,285.88333 159,286.78333 159,287.68335C159,288.48334 158.88051,289.52057 159.52083,290.16251C160.15842,290.8017 161.09734,290.68335 162.0625,290.68335C162.75999,290.68335 163.85699,290.68335 164.69099,290.68335C165.60001,290.68335 166.47917,290.68335 167.36166,290.68335C168.32133,290.68335 169,290.68335 169.97833,290.68335C170.94733,290.68335 171.80153,290.70206 172.7,290.68335C173.56456,290.66534 174.33,290.23169 174.83333,289.51666C175.32249,288.82175 174.92676,287.8772 175.036,287.01132C175.14742,286.12814 175.51962,285.18884 175.716,284.45132C175.96823,283.50409 176,282.58334 176,281.68335C176,280.76733 175.98964,279.97876 176,279.08334C176.01042,278.18317 176.54318,277.48004 176.87849,276.58334C177.19658,275.73273 176.57133,274.73004 177.08533,273.96866C177.5361,273.30093 178.53101,273.19302 179.19867,272.48334C179.74092,271.90695 180.10928,271.0141 180.80133,270.59933C181.59633,270.12286 181.97581,269.29498 182.5,268.68335C183.05389,268.03705 183.80482,267.69107 184.009,268.38867C184.29401,269.3624 185.07271,269.51059 185.97833,269.90466C186.69864,270.21811 186.76698,271.15277 187.0045,271.97882C187.2253,272.7467 188.03456,273.30798 188.70534,273.63516C189.63492,274.08856 189.78542,274.79242 190.35266,275.57349C190.84367,276.2496 191.40071,276.85861 192.18533,277.24734C193.07425,277.68774 193.97467,277.68335 194.80133,277.68335C195.7,277.68335 196.60001,277.68335 197.5,277.68335C198.39999,277.68335 199.3,277.6832 200.2,277.68335C201.10001,277.6835 201.83083,277.828 202.39999,278.534C203.03569,279.32251 203.71466,279.68201 204.70984,279.68335C205.51733,279.68445 206.45833,279.68335 207.35716,279.68335C208.2,279.68335 209.37987,280.27921 209.9955,279.62616C210.64223,278.94012 209.84207,277.9274 208.97917,277.68335C208.03328,277.41583 207.36581,277.06763 206.8,276.19934C206.36424,275.53064 205.92657,274.68207 205.39999,274.09399C204.73668,273.35321 204.24802,272.65247 203.94733,271.98334C203.57472,271.15421 202.62715,270.88797 201.8,270.39801C201.11911,269.99469 200.2715,269.28665 200.08533,268.48468C199.90318,267.7001 200.88667,267.68335 201.82533,267.68335C202.83333,267.68335 203.62534,267.68335 204.65266,267.68335C205.34734,267.68335 206.364,267.68335 207.3,267.68335C208.2,267.68335 209.10001,267.68335 210,267.68335C210.8,267.68335 211.7,267.68335 212.60001,267.68335C213.5,267.68335 214.39999,267.68335 215.3,267.68335C216.2,267.68335 217.10001,267.68335 218,267.68335C218.8,267.68335 219.70006,267.69376 220.60001,267.68335C221.50018,267.67291 222.21881,267.18283 223,266.85001C223.75154,266.52982 224.7265,266.8671 225.60001,266.64734C226.46281,266.43027 227.19698,265.72607 228.10001,265.68335C228.99899,265.64084 229.93903,265.69098 230,264.97882C230.07639,264.08661 230.07921,263.12912 229.71333,262.19934C229.42813,261.47458 228.87462,260.79388 228.18533,260.32999C227.28999,259.72739 226.5694,259.22739 225.95833,258.66251C225.40823,258.15396 224.5676,257.61871 223.87199,257.09399C223.12959,256.534 223.05513,255.57642 222.94284,254.869C222.78932,253.90182 222.67363,253.08772 222,252.18333C221.54819,251.57674 220.63029,251.25423 220.12151,250.46184C219.64233,249.71556 220,248.68333 220,247.85001C220,246.97884 219.99774,246.08333 220,245.20416C220.00226,244.33066 220.72548,243.80939 220.98933,243.07266C221.28218,242.25496 220.64284,242.0405 220,242.68333C219.39999,243.28334 218.80133,243.882 218.12134,244.562C217.564,245.11934 216.93983,245.83032 216.24283,246.38333C215.55232,246.93118 214.86406,247.37737 213.88533,247.59801C212.92052,247.81551 212,247.68333 211.2,247.68333C210.35716,247.68333 209.37016,247.51933 208.5,247.70416C207.65688,247.88326 206.79593,249.11533 206.16667,248.51666C205.56139,247.9408 206,246.82201 206,245.85001C206,245.16251 206,244.14067 206,243.43266C206,242.45134 206,241.49767 206,240.58333C206,239.68333 206,238.88333 206,237.96867C206,237.03667 206,236.20067 206,235.39317C206,234.39799 206.08212,233.47957 205.99983,232.58333C205.91615,231.67189 205.34637,231.12291 204.7045,230.38333C204.12589,229.71664 204.39368,228.75267 203.91467,227.96867C203.4239,227.16541 202.59654,226.91478 201.89999,226.24049C201.39497,225.7516 201.03503,224.82129 200.5,224.20416C199.84364,223.44711 199.49113,222.92422 200.00133,222.39934C200.52473,221.86086 201.32133,221.68333 202.17467,221.68333C203.11333,221.68333 203.97467,221.68333 204.80133,221.68333C205.7,221.68333 206.76805,221.80092 207,221.16251C207.30022,220.33618 207.08171,219.35805 206.83333,218.51666C206.63187,217.83418 206.03456,216.8217 205.5,216.20416C204.935,215.55147 204.35716,214.98334 204,214.18333C203.64284,213.38333 203.07616,212.58934 202.39999,212.11934C201.59419,211.55923 200.96173,210.90794 201.76167,210.68784C202.62074,210.45145 203.34734,210.68333 204.364,210.68333C205.3,210.68333 206.22365,210.51013 207.06134,210.71933C207.93385,210.93723 208.58788,211.47871 209.60001,211.62617C210.39334,211.74176 211.39734,211.68333 212.12801,211.68333C213.16667,211.68333 214.10001,211.68333 215,211.68333C215.8,211.68333 216.7,211.68333 217.60001,211.68333C218.5,211.68333 219.38933,211.68333 220.28534,211.68333C221.19867,211.68333 222.2467,212.03798 222.87866,211.46184C223.49208,210.9026 223.66,209.93524 224.3,209.38783C225.05226,208.74442 226.13809,209.00539 226.83333,208.51666C227.54924,208.0134 228.05956,207.39838 228.7,207.036C229.52078,206.57158 230.41124,206.08586 230.47917,205.20416C230.52139,204.65623 229.39999,204.68333 228.45833,204.68333C227.45717,204.68333 226.73866,204.68333 225.94817,204.68333C224.92166,204.68333 224.04167,204.68333 223.0215,204.68333C222.3045,204.68333 221.364,204.68333 220.51466,204.68333C219.5955,204.68333 218.60266,204.68333 217.87199,204.68333C216.83333,204.68333 216,204.68333 215.2,204.68333C214.3,204.68333 213.83025,204.50571 214.47234,204.33067C215.34142,204.09377 216.49342,203.80072 217.29201,203.71933C218.19603,203.6272 219.2128,204.09717 219.94733,203.67433C220.64957,203.27008 220.65286,202.17786 221.64816,201.79767C222.38655,201.51561 223.436,201.68398 224.3,201.68333C225.2,201.68266 226.08273,201.43996 226.71466,200.96733C227.42451,200.43642 228.22032,200.12531 228.97833,199.5835C229.67363,199.0865 231.13921,198.77377 230.93834,198.036C230.71545,197.21736 229.38928,197.69279 228.5,197.68333C227.52066,197.67291 227.0634,196.90855 226.2955,196.68784C225.43483,196.44046 224.48697,196.82565 223.60001,196.67267C222.76814,196.52919 222.08643,195.74196 221.2955,195.68333C220.40172,195.61708 219.56184,195.27887 219.08267,194.48334C218.61743,193.71092 217.78973,193.3797 217.243,192.5835C216.78101,191.91074 216.41449,191.13013 216,190.66251C215.30286,189.87599 214.95473,188.83022 215.61067,188.68333C216.45819,188.49356 217.44284,188.68333 218.18533,188.68333C219.24283,188.68333 220.10001,188.68333 221,188.68333C221.8,188.68333 222.50041,188.41562 223.16667,187.85001C223.85089,187.26915 224.64087,186.97804 224.98933,186.11934C225.28233,185.39732 225.91496,184.69594 225.99867,183.88333C226.09088,182.98807 226.11603,182.16275 226.57466,181.61133C227.13747,180.93466 226.98819,180.16594 227,179.13C227.01103,178.16234 227.53719,177.47778 227.87849,176.5835C228.18401,175.783 228.70566,175.24329 228.964,174.28334C229.19691,173.41791 228.91663,172.56776 229.02083,171.66251C229.13274,170.69032 229.69946,170.09744 229.91467,169.19934C230.11673,168.35609 230,167.44051 230,166.48466C230,165.59933 230,164.68333 230,163.88333C230,162.98334 230,162.08333 230,161.18333C230,160.28334 230,159.38333 230,158.48466C230,157.59933 229.82703,156.688 229.35266,156.0405C228.77072,155.24614 228.54256,154.62119 227.90016,153.705C227.47592,153.09995 227.10014,152.32004 226.99867,151.48334C226.88715,150.56374 226.2023,150.03998 225.64734,149.32167C225.07411,148.57973 225.16451,147.63086 224.7785,146.70483C224.49983,146.0363 223.57382,145.46658 223.16667,144.68333C222.78,143.93948 222.3291,143.21739 221.61067,142.70866C220.95462,142.24411 221.12186,141.15211 220.5,140.70416C219.81645,140.21178 219.00975,139.79253 218.2,139.68466C217.24944,139.55804 216.35565,139.29581 215.5955,139.036C214.81189,138.76816 213.79778,138.78224 213.06134,138.258C212.39493,137.7836 211.68617,137.34091 211,136.68333C210.42413,136.13145 209.67314,135.43001 209.19867,134.79666C208.6544,134.07013 208.44653,133.30101 207.716,132.68201C207.10025,132.16026 206.74669,131.11674 207.436,130.71933C208.27211,130.23729 209.1118,130.241 210,129.85001C210.65764,129.5605 211.71593,130.10707 212.564,129.64734C213.22185,129.29073 213.41296,128.22017 214.19867,127.76733C214.89717,127.36475 215.38759,126.66837 216.02533,126.10867C216.61493,125.59122 216.79886,124.84607 217.05716,123.98334C217.31421,123.12477 217.81035,122.34925 218.33333,121.68333C218.84804,121.02795 219.87442,120.61317 219.99733,119.88333C220.14679,118.99583 219.83478,118.06414 220.02083,117.18333C220.19981,116.33594 220.93912,115.58945 221,114.68333C221.05363,113.88513 220.89754,112.95969 221.02083,112.14167C221.16652,111.17512 221.30325,109.99122 222.2955,109.80217C223.01289,109.66549 222.75462,111.15192 222,111.51667C221.26451,111.87218 220.571,112.05396 219.7785,112.56184C219.03192,113.04028 218.31635,113.08074 217.64284,113.63067C216.93944,114.20499 216.19971,114.48438 215.60001,115.08334C214.89966,115.78282 214.34779,116.48505 213.436,116.67267C212.58163,116.84846 211.6969,117.03716 211,117.68333C210.43347,118.20863 209.60895,117.75089 210.08533,116.96867C210.57492,116.16475 210.79826,115.50005 211.17067,114.88333C211.63945,114.10703 212.8269,113.73746 212.99733,112.96867C213.19125,112.0939 213,111.18333 213,110.28333C213,109.37884 213,108.51667 213,107.6625C213,106.68333 213,105.894 213,104.85C213,104.094 212.90199,103.17689 213.01067,102.27267C213.12221,101.34459 213.46492,100.64859 214,99.85C214.45464,99.17147 215.11165,98.35909 215.8,97.96867C216.57275,97.53037 217.3423,97.06447 218.2,96.76867C219.05449,96.47397 219.95049,96.67589 220.70984,96.33067C221.51591,95.9642 222.36079,95.71772 223,95.18333C223.61801,94.66666 224.31038,94.06539 225.2,93.76867C226.05746,93.48267 226.81145,93.34477 227.02533,92.498C227.26135,91.56361 227.93936,91.20374 228.64284,90.63067C229.26048,90.12752 229.80742,89.6321 230.08533,88.882C230.37135,88.11 231.10794,87.35248 231.8,86.96867C232.62448,86.51141 233.67276,86.73838 234.35716,86.33067C235.13885,85.86499 235.73904,86.12811 236.35716,86.63067C237.06175,87.20353 237.80034,87.48434 238.5,88.18333C239.10013,88.78288 239.72089,89.38208 240.52083,89.70417C241.30643,90.02049 242.18437,90.2976 243,90.70417C243.75984,91.08293 244.2,91.88333 244.8,92.48334C245.5,93.18333 246.01514,93.89511 246.7,94.32616C247.55574,94.86478 248.4834,94.96568 249.13867,95.258C250.08374,95.67961 251.00087,95.64613 251.8,95.68333C252.71764,95.72605 253.11346,96.35647 253.716,96.76867C254.4924,97.2998 255.05836,97.97042 255.7,98.33067C256.479,98.76805 257.50229,98.93239 258.17465,99.294C259.00336,99.73971 259.64709,100.48109 260.5,100.6625C261.38055,100.84978 262.45889,100.50174 262.97467,101.11933C263.50256,101.75141 263.99045,102.57258 264.79999,102.682C265.69379,102.80281 266.42239,103.36948 267.29999,103.62617C268.16428,103.87896 269.06262,103.64741 269.87201,103.694C270.60526,103.73621 271.6235,103.98566 272.34283,104.38783C273.28479,104.91447 273.72122,105.57376 274.5,106.1625C275.23761,106.7201 276.10129,106.63554 277,106.68333C277.80341,106.72606 278.56366,107.33363 279.20132,107.882C279.85095,108.44067 280.84369,108.57511 281.51599,108.76733C282.54315,109.06102 283.31589,109.61248 284.13867,109.67267C285.08023,109.74155 285.8898,109.61668 286.82535,109.694C287.84189,109.77801 288.43222,110.22128 288.94733,110.97884C289.41293,111.6636 290.31912,111.65583 291,112.18333C291.59665,112.64561 292.58267,112.58618 293.35184,112.7405C294.27362,112.92545 294.72363,113.56945 295.47916,114.1625C296.26611,114.78024 297.07706,114.52426 297.97833,114.90467C298.79459,115.24919 299.55362,115.63588 300.29999,116.036C301.14362,116.48827 302.01517,116.49927 302.80133,116.76867C303.58017,117.03555 304.05377,118.07182 304.83334,118.51667C305.48724,118.88981 306.54364,118.90133 307.25067,119.10867C307.9957,119.32715 309.02759,119.63934 309.88266,119.682C310.81351,119.72845 311.78067,119.62418 312.56934,119.96867C313.20773,120.24751 314.05948,120.97672 314.75266,121.32616C315.60489,121.75579 316.42459,121.6624 317.39734,121.96733C318.14767,122.20255 319.11301,122.48947 320,122.85C320.67218,123.12321 321.47897,123.67222 322.35718,123.68333C323.19995,123.694 324.0144,124.03555 324.71466,124.39934C325.50894,124.81197 325.99774,123.97884 326,123.08334C326.00226,122.18333 326.2399,121.24936 325.99551,120.38783C325.77499,119.61044 325.04669,119.11703 325.00449,118.3315C324.95016,117.32079 325,116.38333 325,115.48334C325,114.5835 324.96405,113.68867 324.19867,113.68333C323.30002,113.67707 322.35715,113.68866 321.47916,113.68333C320.59995,113.678 319.84909,113.11315 319.05267,112.7405C318.30786,112.392 317.36069,112.29691 316.65268,112.036C315.66306,111.67132 314.76471,111.83801 313.89999,111.683C312.95541,111.51367 312.91034,110.58839 312.12134,109.92633C311.53052,109.43056 310.5,109.68558 309.60001,109.68333C308.6955,109.68108 307.81061,109.56599 307,109.1625C306.13943,108.73415 305.61087,108.11435 304.89017,107.63067C304.19366,107.16322 303.17874,106.77648 302.44666,106.694C301.48517,106.58567 300.56604,106.92322 299.7045,106.67883C298.92712,106.45832 298.41486,105.83839 297.64816,105.63067C296.61676,105.35124 295.93677,104.85609 295.19867,104.598C294.31451,104.28883 293.60056,103.70134 292.70001,103.68333C291.79886,103.66531 290.82275,103.79489 290.02084,103.6625C289.14236,103.51746 289.23853,102.45396 288.66666,101.68333C288.27191,101.15141 287.18866,100.65218 286.52084,100.20417C285.82144,99.73498 284.75064,99.94888 284.08267,99.398C283.4447,98.87186 282.94342,98.29878 282.10983,97.736C281.40176,97.25796 280.62433,96.96765 279.86133,96.622C279.07913,96.26765 279.02499,95.19264 278.13867,94.74467C277.24762,94.2943 276.55539,94.16843 275.83334,93.51667C275.21027,92.95423 274.36374,92.72266 273.61066,92.258C272.78796,91.7504 272.08878,91.6578 271.17465,91.24734C270.46188,90.92729 269.81247,90.02972 269,89.70417C268.14951,89.36339 267.26968,89.86381 266.39999,89.64733C265.52731,89.43011 264.83786,88.82424 263.95834,88.68333C263.31607,88.58044 262.31635,88.40285 261.52084,88.18333C260.33188,87.85525 259.63217,87.80388 258.79868,87.39934C258.07086,87.04609 257.15384,86.70313 256.31332,86.68467C255.31758,86.6628 254.51151,86.7325 253.76933,86.598C252.79352,86.42116 252.00784,85.80605 251.2,85.68467C250.29144,85.54816 250.08752,84.7289 249.38933,84.11933C248.72275,83.53736 247.7,83.68333 246.80133,83.68333C245.83333,83.68333 245.08878,83.65778 244.17467,83.24734C243.46188,82.92728 242.86809,82.17557 241.89999,81.80483C241.0519,81.48005 240.22989,81.66282 239.34734,81.33067C238.64111,81.06488 237.64723,80.70134 236.77867,80.68333C235.91618,80.66545 235.07684,80.56118 234.35184,79.978C233.67278,79.43179 233.02054,78.7303 232.19867,78.68333C231.29965,78.63197 230.50267,78.17323 230.04817,77.38333C229.65057,76.69234 229.02078,76.08414 228.02133,75.80483C227.26743,75.59414 226.3268,75.80187 225.48399,75.598C224.59599,75.38319 223.71034,75.06086 223.08533,74.39934C222.55035,73.83311 221.84651,73.86469 221,73.51667C220.32892,73.24078 219.50018,72.69376 218.60001,72.68333C217.70456,72.67297 216.83333,72.68333 215.89999,72.68333C215,72.68333 214.2056,72.58839 213.5,72.18333C212.70169,71.72504 211.78761,71.60707 211.02083,71.1625C210.18184,70.67606 209.84006,69.81187 209,69.68333C208.20471,69.56165 207.36856,69.05888 206.89999,68.36217C206.47026,67.7232 205.79674,66.86868 205,66.68333C204.11742,66.47802 203.87775,65.64684 203.2955,64.98334C202.74002,64.35033 201.85861,63.91298 201.2,63.59933C200.36221,63.20037 200.27483,62.16739 199.71466,61.39933C199.18352,60.67106 198.24525,60.62403 197.6955,59.9735C197.18846,59.37352 196.52441,58.55619 195.82533,58.094C195.03098,57.56882 194.31166,57.09289 194.08533,56.19933C193.87242,55.35877 194.18517,54.13426 193.57466,53.71933C192.80522,53.19638 191.8091,53.28967 191.24283,52.36217C190.88097,51.76946 190.57939,50.94674 189.83333,50.51667C189.10612,50.09747 188.54903,49.45098 187.916,48.96733C187.1893,48.41211 186.30795,48.28833 185.64816,48.036C184.64807,47.65353 183.6785,47.68333 182.97917,47.68333C182,47.68333 181.18933,47.68333 180.31467,47.68333C179.31599,47.68333 178.5,47.68333 177.68401,47.68333C176.68666,47.68333 175.84666,47.68325 174.88533,47.68333C173.89983,47.68342 173.10072,47.73177 172.35184,48.036C171.55254,48.36072 170.67946,49.03005 170.13867,49.534C169.49742,50.13157 168.64355,50.57861 167.716,50.68333C166.94377,50.77053 166.75871,51.71101 166,52.35C165.40991,52.84698 164.39999,52.68333 163.5,52.68333C162.60001,52.68333 161.64336,52.81987 160.8,52.39933C160.13835,52.0694 159.29991,51.69704 158.35716,51.68333C157.49983,51.67087 156.99911,50.89255 156.19867,50.68467C155.38222,50.47263 154.6368,50.07645 154.08533,49.39933C153.60599,48.81078 152.89983,48.68333 152.11467,48.68333C151.15334,48.68333 150.53833,48.68333 149.31599,48.68333C148.5,48.68333 147.95267,48.68333 146.68666,48.68333C145.84666,48.68333 144.88533,48.68333 144,48.68333C143.2,48.68333 142.3,48.68333 141.39999,48.68333C140.58934,48.68333 139.66977,48.59132 138.82533,48.71933C137.86255,48.86528 137.28304,49.44648 136.34283,49.97884C135.80751,50.28195 134.80446,50.6039 134.02083,50.6625C133.02406,50.73705 131.76759,50.24908 131.16667,50.85C130.56575,51.45093 130.75577,52.4074 130.08267,52.96733C129.47276,53.47471 128.70535,53.68108 127.7785,53.68333C126.9,53.68547 125.90619,53.44118 125.2,53.854C124.41709,54.31166 123.99925,55.34876 123.364,55.734C122.51366,56.24968 122.02155,56.74707 121.39867,57.11533C120.45798,57.67148 119.47235,57.52732 118.54166,57.68333C117.67972,57.82782 116.94482,58.44088 116.364,58.026C115.5875,57.47135 115.02573,56.63689 114.39867,56.25267C113.46667,55.6816 112.53289,55.7042 112.06133,54.83267C111.65814,54.0875 111,53.68333 110.2,53.68333C109.3,53.68333 108.364,53.68333 107.51466,53.68333C106.78933,53.68333 105.8,53.68333 105,53.68333C104,53.68333 103.02084,53.68333 102.16666,53.68333C101.3045,53.68333 100.38062,53.51723 99.5,53.70417C98.65685,53.88314 98.4445,54.91994 97.83334,55.51667C97.22527,56.11036 96.25118,55.99897 95.716,56.59933C95.15067,57.23354 94.64283,57.68333 93.8,57.68333C92.90017,57.68333 91.97867,57.68333 91.13866,57.68333C90.16666,57.68333 89.36166,57.68333 88.42533,57.68333C87.564,57.68333 86.58058,57.84471 85.9,57.24067C85.25256,56.66604 84.76161,55.93242 84,55.51667C83.25468,55.10981 82.54859,54.56235 82.0045,54.036C81.53723,53.58397 80.46358,53.92119 79.70983,53.62617C78.8872,53.30418 79.16736,52.07399 78.64283,51.38783C78.06934,50.63763 77,50.68333 76.12133,50.68333C75.284,50.68333 74.45602,50.7466 73.51733,50.68067C72.70415,50.62355 72.50426,49.75861 71.83334,49.01667C71.23135,48.35096 70.0476,49.11292 69.35717,48.62617C68.62511,48.11006 68.2955,47.68333 67.4,47.68333C66.5,47.68333 65.55546,47.77879 64.8,47.39933C63.9328,46.96375 63.05232,46.76476 62.52083,46.14167C61.84756,45.35236 62.30707,44.22079 61.5,43.725C60.70122,43.23431 59.59526,43.53765 59.16667,42.68333C58.80036,41.95316 58.784,41.1353 58.16667,40.51667C57.54901,39.89772 57.18935,39.25759 56.716,38.48467C56.24428,37.7144 56,36.97884 56,36.08334C56,35.20417 55.33134,34.84849 55.02083,34.1625C54.65819,33.36134 55.20208,32.29021 54.71467,31.48467C54.33689,30.86032 53.15854,30.72904 53,30.07267C52.776,29.14532 52.1819,28.68905 52.00134,27.882C51.80192,26.9907 52.03326,26.03411 51.564,25.27267C51.06915,24.4697 50.62811,23.84094 50.2,23.16733C49.6461,22.29578 49.32015,21.44956 48.716,20.76733C48.1895,20.17279 47.44831,19.82426 46.80133,19.11533C46.3385,18.60818 46.16393,17.46623 45.83333,16.68333C45.50301,15.90108 45.13351,14.96337 44.35266,14.68783C43.52893,14.39717 42.6,14.68333 41.7,14.68333C40.8,14.68333 39.61757,14.28896 39.08533,14.96867C38.5189,15.69205 38.96925,16.82761 38.2955,17.32617C37.60123,17.83991 36.52083,17.68333 35.64283,17.68783L34.80133,17.96867L34.28533,18.48467" id="svg_2" stroke-width="3" stroke="#000" fill="none"/>
  <path t="56559,56643,56669,56685,56719,56728,56783,56927,56927,57007,57062,57102" d="M178,60.68333C179.8,60.68333 180.81497,60.61118 181,61.294C181.23259,62.15238 181,63.07267 181,63.97C181,64.85 181.02083,65.6625 181.35716,66.569L182.2,66.68333L183.10001,66.68333" id="svg_3" stroke-width="3" stroke="#000" fill="none"/>
  <path t="58655,58865,58865,58895,58900,58900,58918,58950,59049,59122,59146,59166,59166,59182,59199,59215,59215,59231,59254,59265,59282,59287,59428,59451,59462,59478,59494,59512,59513,59550,59550,59582,59646,59710,59710,59735,59751,59766,59790,59802,59822,59832,59862,59882,59910,59910,59978,60008,60025,60039,60318,60334,60349,60352,60366,60367,60374,60406,60438,60454,60466,60466,60486,60500,60502,60526,60536,60536,60558,60568,60575,60590,60590,60606,60630,60662,60662,60710,60718,60734,60751,60771,60803,60879,60916,60916,60955,60978,61011,61011,61055,61082,61136,61137,61519,61538,61559,61559,61575,61591,61727,61935" d="M178,57.68333C178,58.68333 178.00241,59.48334 178,60.4405C177.99774,61.33151 177.75336,61.98976 177.284,62.766C176.81529,63.54115 176.94359,64.38825 176.5,65.18333C176.05342,65.98376 175.80711,66.99515 175.19867,67.398C174.37723,67.94189 174.01938,68.47312 173.64284,69.3315C173.34961,69.99995 172.39246,70.49057 171.7045,71.0405C170.96693,71.6301 170.68886,72.44691 170.05267,73.036C169.47708,73.56898 169.01042,74.20399 169,75.08334C168.98933,75.98328 169,76.88467 169,77.85C169,78.68333 168.85062,79.68987 169.05716,80.37884C169.32086,81.25848 169.83093,82.03594 170.284,82.88333C170.6326,83.53534 171.05171,84.38387 171.5,85.18333C171.94637,85.97937 172.62772,86.43093 172.97917,87.20417C173.34306,88.00476 173,88.97884 173,89.85267C173,90.70417 173,91.66183 173,92.482C173,93.398 173,94.294 173,95.18333C173,96.07267 173.35716,96.68341 174.2,96.68333C175.09984,96.68325 175.81427,96.35224 176.22133,95.58334C176.62238,94.82579 176.83281,94.02051 177.02083,93.1625C177.20212,92.33524 177.83356,91.57612 178,90.68333C178.13466,89.96101 179.29929,90.07991 179.88567,89.32616C180.40793,88.65484 179.81673,87.52907 180.16667,86.68333C180.49133,85.89871 180.89403,85.17725 181,84.294C181.09512,83.50124 181.88806,82.85342 182.29466,82.3315C182.94946,81.49102 183,80.51667 183,79.58317C183,78.798 182.73982,77.832 183.00017,76.92617C183.22142,76.15634 183.95172,75.48608 184,74.5835C184.04616,73.7205 184.68306,73.40555 185.33333,72.68333C185.76657,72.20217 186.78531,71.83728 187.436,71.24734C188.13159,70.61668 188.79294,70.03094 188.97917,69.18333C189.17471,68.29335 189.22835,67.36484 189.5,66.68333C189.8884,65.70895 189.84569,64.76707 189,64.68333C188.20389,64.60451 187.3,64.68333 186.39999,64.68333L185.5,64.68333L184.61067,64.68333" id="svg_4" stroke-width="3" stroke="#000" fill="none"/>
  <path t="63853,63895,63895,63905,63910,63924,63924,63926,63926,63942,63942,63956,63956,63956,63958,63972,63991,63999,63999,64015,64039,64039,64059,64059,64078,64102,64102,64111,64127,64144,64166,64174,64182,64198,64199,64214,64230,64241,64241,64246,64262,64275,64275,64278,64291,64294,64306,64323,64323,64339,64340,64356,64359,64373,64375,64398,64407,64414,64446,64456,64457,64473,64473,64480,64500,64503,64534,64534,64558,64558,64573,64582,64582" d="M135,109.68333C138.33333,109.68333 139.19882,109.52698 140.11333,109.68467C140.95238,109.82935 141.15561,110.85013 141.76167,111.38333C142.41985,111.96239 143.47433,112.14151 144,112.85C144.45532,113.46369 144.85201,114.16734 145.5,114.68333C146.14799,115.19933 146.82617,116.11151 147.42534,116.64733C147.94714,117.11396 148.26344,117.90288 148.80133,118.48334C149.47356,119.20876 150.22675,119.69661 150.64284,120.4405C151.10249,121.26228 151.25302,121.98486 151.716,122.766C152.20563,123.59209 151.93578,124.60695 152.52083,125.1625C153.24591,125.85102 153.94774,126.2126 154.42534,126.694C154.96655,127.23952 155.33189,128.00742 156,128.68333C156.57889,129.26898 157.44133,129.5672 158.2,129.96733C159.05838,130.42004 159.80008,130.67125 160.7,130.68333C161.52101,130.69435 162.49274,130.94559 163.13867,131.258C164.06363,131.70537 164.65683,132.48364 165.5,132.66251C166.39107,132.85153 167.3215,132.68333 168.02083,132.68333C169.19966,132.68333 169.95833,132.68333 170.89017,132.68333C171.7045,132.68333 172.60001,132.68333 173.47917,132.68333C174.436,132.68333 175.30472,132.77531 176.19867,132.68333C177.01285,132.59956 177.44899,131.83293 178.18533,131.658C179.12387,131.43504 179.99098,131.26396 180.64284,130.63066C181.28822,130.00365 181.67416,129.72548 182.48399,129.39667C183.20564,129.10367 183.9785,128.36217 184.47917,127.70417L185.10001,126.92633L186,126.68333L186.71466,126.51266" id="svg_5" stroke-width="3" stroke="#000" fill="none"/>
  <path t="71934,72323,72323,72375,72375,72406,72431,72451,72522,72786,72951,72989,73093" d="M233,77.68333C234.65266,78.39317 235.34845,79.03403 235.97833,79.66167C236.63951,80.32049 236.76698,81.15279 237.0045,81.97884C237.2253,82.7467 237.98933,83.258 238,84.11933L238.01067,85.07267L238.5,85.68333L238.9955,86.33067" id="svg_6" stroke-width="3" stroke="#000" fill="none"/>
  <path t="81940,82224,82239,82254,82263,82263,82274,82290,82311,82322,82328,82328,82340,82354,82374,82390,82430,82430,82438,82454,82454,82495,82535,82554,82554,82667,82700,82719,82727,82728,82739,82755,82759,82798,82822,82839,82839,82847,82847,82860,82863,82876,82888,82896,82896,82913,82913,82930,82947,82964,82964,82968,82968,82968,82982,83095,83135,83158,83159,83173,83193,83205,83206,83222,83271,83295,83335,83335,83359,83359,83391,83391,83415,83431,83450,83450,83471,83487,83487,83504,83504,83504,83504,83519,83534,83534,83551,83568,83568,83585,83585,83602,83602,83602,83602,83617,83617,83617,83634,83634,83634,83634,83651,83652,83652,83654,83654,83654,83667,83667,83684,83685,83685,83685,83700,83717,83718,83734,83734,83734,83734,83750,83750,83750,83767,83767,83767,83783,83783,83800,83800,83821,83845,83845,83854,83854,83870,83878,83896,83910,83910,83922,84046,84046,84078,84094,84096,84109,84109,84121,84121,84121,84125,84125,84137,84138,84141,84173,84197,84214,84229,84229,84245,84245,84248,84248,84262,84262,84285,84285,84326,84350,84350,84369,84369,84386,84403,84403,84418,84435,84453,84461,84471,84472,84477,84493,84505,84522,84527,84543,84543,84567,84590,84626,84658,84686,84691,84707,84711,84723,84723,84740,84757,84762,84790,84791,84815,84855,84879,84880,84926,84960,84977,85006,85030,85046,85047,85063,85076,85079,85094,85110,85126,85159,85159,85183,85199,85212,85227,85231,85255,85264,85281,85282,85282,85299,85399,85400,85415,85430,85446,85487,85534,85550,85574,85639,85780" d="M68,76.68333C66.436,77.294 66.22349,78.19714 65.64283,78.97884C65.14304,79.65167 64.06936,79.28969 63.28533,79.76867C62.48217,80.25934 61.99935,80.75938 61.35333,81.294C60.71135,81.82528 59.76694,82.18909 59.16933,82.882C58.6154,83.52428 57.79623,83.60122 56.9,83.6835C55.98856,83.76718 55.43959,84.33695 54.7,84.97884C54.03331,85.55745 53.21035,85.78527 52.5,86.18333C51.61236,86.68074 50.77637,86.94241 50.2,87.48466C49.49033,88.15233 49.0286,88.97743 49,89.85C48.9727,90.68288 49,91.48334 49,92.38333C49,93.28333 49.15986,94.26411 48.98933,95.11933C48.8073,96.03226 48.02944,96.71593 47.47917,97.18333C46.7168,97.83089 45.89491,98.0484 45.24283,98.78316C44.64105,99.46125 43.8033,99.46826 43.12117,99.90467C42.39157,100.37144 41.75023,100.54064 40.88533,100.96867C40.11742,101.34869 39.64819,102.40464 38.833,102.67883C37.97995,102.96576 37.20398,102.67732 36.16667,102.68333C35.24662,102.68867 34.43084,102.6545 33.64667,103.10867C32.84298,103.57414 32.04272,103.9669 32,104.85C31.96074,105.66155 32.2539,106.21912 32.83333,106.85C33.4082,107.47591 32.97275,108.48375 33,109.38333C33.02859,110.32746 33.82076,110.74122 34,111.68333C34.14191,112.42928 34.32001,113.35586 34.7045,114.03067C35.15633,114.82367 35.88849,115.44535 35.9955,116.38333C36.0978,117.28004 35.24471,117.91816 34.70533,118.38333C33.98503,119.00455 33.76133,119.94357 33.124,120.4405C32.29444,121.08731 31.64267,121.32919 31.02083,121.68333C30.13176,122.18967 29.27077,122.95211 28.83333,123.68333C28.39741,124.41203 28.09186,125.23076 27.64283,125.98783C27.26983,126.61674 26.74448,127.3796 26.18567,128.08783C25.51751,128.93465 24.99428,129.2887 24.21467,129.88333C23.68543,130.28699 22.67719,131.07716 22.22533,131.494C21.53676,132.12923 20.83524,132.85193 20.316,133.366C19.77664,133.89999 18.97747,134.70345 18.16667,135.35001C17.47729,135.89973 16.78599,136.2634 16,136.85001C15.384,137.30974 14.84539,137.86763 14.0215,138.66167C13.41747,139.2438 12.54346,139.58266 11.83333,140.01666C11.11869,140.45343 10.51822,141.1776 9.636,141.62199C8.82461,142.0307 8.32925,142.36726 7.457,143.226C6.98634,143.68936 6.4755,144.20375 5.891,144.67799C5.02437,145.38115 4.11257,145.87657 3.54167,146.14166C2.34064,146.69934 1.6232,147.05026 1.20267,147.56866C0.50118,148.4334 0.17493,149.23354 -0.64817,149.5735C-1.39297,149.88113 -2.54582,151.27699 -3.28667,151.96867C-3.86511,152.50873 -4.70697,152.90163 -5.29017,153.38333C-6.02588,153.99101 -6.43569,154.91225 -6.94733,155.63516C-7.44514,156.33853 -7.69034,157.04472 -8.2955,157.92616C-8.82117,158.69183 -9.506,159.56818 -8.94283,160.32617C-8.47062,160.96176 -7.5409,160.11737 -6.796,159.48334C-6.16091,158.94276 -5.23778,158.57851 -4.6465,158.38333C-3.71448,158.0757 -2.61959,157.73708 -2.04167,157.18333C-1.37213,156.54181 -0.88838,156.02689 0.08267,155.68466C2.49305,154.83517 2.83486,154.12474 3.54167,153.68333C4.37678,153.1618 5.19382,153.10284 5.97867,152.5835C6.64249,152.14423 7.52539,151.90031 8.34733,151.5735C9.17886,151.24287 9.49366,150.3219 10.484,149.854C11.12291,149.55215 12.11603,149.69183 13.16667,149.68333C13.8254,149.67799 14.82601,149.50279 15.58933,149.10867C16.39256,148.69394 17.2155,148.41548 17.8,147.882C18.51971,147.22513 19.2941,146.71193 20.16933,146.68333C21.02038,146.65553 22.01562,146.85638 22.79867,146.59801C23.57239,146.34271 24.39946,145.70134 25.2955,145.68333C26.16649,145.66583 27.1,145.68333 28,145.68333C28.8,145.68333 29.7,145.68333 30.6,145.68333C31.5,145.68333 32.38933,145.68333 33.28533,145.68333C34.2,145.68333 35.28441,145.3549 35.87867,145.90483C36.4879,146.46861 36.63501,147.38887 37,148.18333C37.41154,149.07913 38.01743,149.69551 38.35266,150.39317C38.73618,151.19128 38.85816,152.19698 39.284,152.96867C39.7195,153.75787 39.93999,154.60152 40.52083,155.16251C41.17301,155.79239 42.27679,155.55194 42.94733,156.036C43.64753,156.54144 44.48267,156.68333 45.29016,156.68333C46.2215,156.68333 47.10438,156.77202 48,156.68333C48.8457,156.59959 49.28931,155.80051 50.1,155.68317C51.00583,155.55205 51.44778,154.86195 52.02533,154.11934C52.48288,153.53104 53.31042,153.06587 54.19867,152.76866C55.04214,152.48643 55.71857,152.35245 56.0005,151.5835C56.30598,150.75032 57.30969,150.8631 58.148,150.59933C58.99925,150.3315 59.42958,149.43269 60.18533,149.10867C60.96584,148.77405 61.916,148.68333 62.7045,148.68333C63.6,148.68333 64.5,148.68333 65.4,148.68333L66.3,148.68333L67.2,148.68333L68.09983,148.68333" id="svg_7" stroke-width="3" stroke="#000" fill="none"/>
  <path t="88008,88270,88270,88285,88301,88333,88344,88360,88380,88397,88414,88431,88431,88455,88487,88511,88519,88531,88547,88567,88641,88663,88669,88669,88680,88693,88693,88771,88796,88799,88799,88812,88812,88827,88843,88860,89049,89259,89303,89327,89352,89383,89383,89391,89407,89424,89478,89500,89535,89565,89565,89589,89589,89605,89629,89653,89782,89809,89828,89828,89830,89853,89893,89903,89924,89949" d="M75,1.68333C75,2.68333 75.01799,3.48351 75,4.38333C74.98199,5.28387 74.58354,6.10215 73.80133,6.59933C73.06988,7.06425 72.46085,7.55907 72,8.20417C71.50175,8.90161 70.906,9.60717 70.436,10.28333C69.87589,11.08913 69.36715,11.66761 68.6,12.10867C67.87708,12.5243 66.8462,12.36096 66.12133,12.90467C65.47832,13.38698 64.8,13.68333 63.9,13.68333C63,13.68333 62.18955,13.58273 61.364,13.71933C60.4936,13.86337 59.7581,14.50407 58.7785,14.68333C57.91435,14.84147 56.90619,14.44118 56.2,14.854C55.41709,15.31167 55.32229,16.36496 54.4,16.662C53.54309,16.93798 52.43782,16.51193 51.716,16.96733C50.96248,17.44274 51.85926,17.84965 52.61067,17.64734C53.46984,17.41601 54.02029,16.52844 54.38933,15.86867C54.90767,14.94197 55.58237,14.65208 55.99866,13.96733C56.43344,13.2522 56.71767,12.32466 57.35266,11.7405C58.0171,11.12926 58.58181,10.66632 58.83333,9.68333C59.02905,8.91842 59,8.01667 59,7.1625C59,6.28333 58.89305,5.3768 59.00134,4.48333C59.11281,3.56357 59.41008,2.83406 60.02533,2.11933C60.55773,1.50086 61,1.07267 61,0.18333L61.02083,-0.79583L61.57467,-1.342" id="svg_8" stroke-width="3" stroke="#000" fill="none"/>
  <path t="90886,91036,91048,91048,91065,91071,91071,91085,91085,91103,91126,91127,91143,91143,91158,91170,91175,91185,91205,91219,91222,91246,91371,91431,91455,91455,91470,91470,91486,91526,91563,91586,91640,91671,91671,91693,91698,91711,91722,91728,91743,91754,91782,91782,91815,91838,91855,91870,91870,91887,91887,91895,91895,91906,91927,91939,91966,91967,91988,91993,92011,92039,92059,92068,92091,92091,92135,92166,92166,92198,92226,92240,92254,92273,92273,92273,92280,92280,92280,92295,92295,92310,92310,92334,92353,92353,92358,92370,92406,92422,92438,92455,92510,92511,92551,92560,92582,92608,92608,92625,92625,92644,92663,92774,92791,92805,92823,92839,92839,92839,92847,92847,92847,92847,92858,92858,92863,92863,92874,92874,92874,92879,92890,92890,92895,92895,92906,92910,92911,92927,93131,93187,93196,93215,93247,93271,93347,93475,93503,93504,93527,93542,93559" d="M92,4.68333C90.4,5.294 89.70738,5.99083 89.2,6.48333C88.48935,7.17315 87.67027,7.51954 86.82533,7.70867C85.87485,7.92143 85.34637,8.51215 84.93867,9.31933C84.49351,10.20067 84.05913,10.77007 83.16666,11.35C82.49611,11.78573 81.94733,12.38783 81.5,13.18333C81.05267,13.97883 80.59835,14.39577 79.7045,14.68783C78.93964,14.93775 78.62434,15.82758 78.16666,16.68333C77.74339,17.47478 77.06167,17.68333 78,17.68333C78.75716,17.68333 79.65266,17.68333 80.516,17.68333C81.45834,17.68333 82.35717,17.68263 83.3,17.68333C84.19867,17.684 84.95728,17.96691 85,18.85C85.03925,19.66155 85,20.6625 85,21.48467C85,22.38334 85.14664,23.40666 84.564,24.07267C83.95351,24.7705 82.83942,24.48516 82,24.85C81.31544,25.14753 80.76703,26.07972 80,26.51667C79.22014,26.96093 78.67126,27.5376 77.95834,27.68333C77.00533,27.87815 76.06265,27.92522 75.33334,28.68333C74.76004,29.27926 74.22054,29.80486 73.4,30.258C72.62955,30.68348 71.67889,30.83278 71.284,31.48467C70.7738,32.32687 69.99783,32.19071 69.28533,32.76867C68.54122,33.37226 69,34.51667 69,35.33C69,36.16734 68.99991,37.03067 69,38.058C69.00008,39.0045 68.70629,40.08165 69.35717,40.569C70.11741,41.13824 71.19867,40.68333 72.04166,40.68333C72.856,40.68333 73.5625,40.6838 74.404,40.68333C75.59866,40.68267 76.48212,40.69436 77.04283,40.62617C78.32421,40.47032 78.99327,40.2214 79.83334,39.68333C80.51051,39.2496 81.45839,38.88197 82.2215,38.462C82.88923,38.09452 83.71929,37.86496 84.564,37.68333C85.41264,37.50086 86.24338,37.02806 86.87867,36.462C87.47966,35.92651 88.03125,35.34644 88.8,34.96733C89.64521,34.55053 90.73767,34.52417 91.38934,35.13C92.00886,35.70596 91.98958,36.68317 92,37.66183C92.00873,38.48196 91.80923,39.41163 92.036,40.28333C92.25879,41.13972 93.31341,41.43173 93.916,41.96733C94.51331,42.49823 95.31326,42.92863 96.0625,43.18333C96.76469,43.42204 97.6409,43.58624 98.65067,43.64734C99.34852,43.68956 100.032,43.68267 101.22933,43.68333C102.17867,43.68386 103.2,43.68333 104,43.68333C105,43.68333 105.78933,43.68333 106.51466,43.68333C107.5,43.68333 108.48534,43.68333 109.21067,43.68333C110.19984,43.68333 110.97916,43.68333 111.9785,43.68333C113,43.68333 113.80016,43.66706 114.64283,43.68333C115.57519,43.70134 115.62852,44.48948 116.036,45.24733C116.42814,45.97665 117.6756,46.11646 117.94283,46.97884C118.21745,47.86502 118,48.78333 118,49.68333C118,50.48333 118,51.38334 118,52.28333L118,53.1625" id="svg_9" stroke-width="3" stroke="#000" fill="none"/>
  <path t="104704,104743,104759,104759,104778,104778,104796,104796,104815,104832,104833,104849,104849,104860,104860,104878,104893,104893,104896,104918,104926,104950,104959,104966,104966,104982,104998,105014,105029,105030,105054,105062,105062,105077,105077,105079,105093,105096,105096,105111,105125,105125,105128,105141,105144,105166,105175,105175,105191,105198,105214,105214,105214,105224,105224,105230,105241,105241,105246,105257,105275,105275,105307,105307,105326,105341,105367,105414,105415,105430,105446,105478,105478,105495,105510,105510,105528,105550,105561,105577,105598,105610,105627,105630,105745,105776,105782,105805,105805,105808,105922,105930,105938,105938,105959,105959,105963,105979,105979,105996,106040,106040,106040,106056,106073,106089,106109,106142,106151,106160,106166,106190,106198,106198,106222,106243,106243,106259,106259,106278,106287,106287,106310,106334,106350,106360,106360,106366,106399,106399,106430,106462,106462,106486,106486,106519,106541,106558,106558,106573,106575,106590,106607,106624,106624,106641,106641,106656,106656,106673,106690,106690,106706,106706,106722,106766,106766,106782,106793,106798,106929,106972,106975,106975,106991,106991,107008,107026,107026,107042,107062,107070,107083,107087,107102,107115,107134,107145,107162,107163,107166,107179,107180,107198,107198,107213,107213,107229,107230,107246,107246,107272,107272,107272,107296,107296,107296,107317,107318,107318,107318,107321,107321,107321,107341,107342,107344,107344,107344,107344,107365,107365,107365,107369,107369,107390,107428,107454,107454,107462,107510,107538,107553,107553,107587,107592,107592,107613,107639,107662,107687,107702,107743,107743" d="M90,121.68333C92.364,124.04733 93.04118,124.64686 93.6,125.31934C94.1421,125.9717 94.354,126.80709 95.2,127.51534C95.72729,127.95676 96.27749,128.64018 97,129.35001C97.61192,129.95117 98.19029,130.53992 98.5,131.18333C98.98492,132.19073 99.71053,132.5672 100.436,133.11934C101.18314,133.68797 101.79379,134.33434 101.97916,135.16251C102.18828,136.09674 102.18684,137.01436 103,137.51666C103.7636,137.98834 104.02583,138.81822 104.64733,139.32617C105.31367,139.87076 105.8829,140.26936 106.35717,140.98334C106.88303,141.77498 107.5263,142.32339 108.35717,142.68784C109.17151,143.04501 109.87238,143.45213 110.82533,143.658C111.50883,143.80566 112.44186,144.256 113.2,144.59933C114.06573,144.99141 114.76841,145.52814 115.636,145.67267C116.47124,145.81181 117.2418,145.80852 118.04816,146.33067C118.6718,146.7345 119.52122,146.83824 120.16666,147.51666C120.74107,148.12042 120.70539,149.12024 121.436,149.61133C122.16028,150.09818 123.19394,150.16109 123.64817,150.74583C124.17126,151.41924 124.76766,152.31856 124.928,153.01134C125.14785,153.96123 125.30673,154.73544 125.64733,155.44051C126.05627,156.28705 126.3416,157.17722 126.83334,157.85001C127.2832,158.46552 127.47139,159.49104 127.716,160.19934C128.04195,161.14311 127.88274,162.08055 128.00133,162.96867C128.11299,163.80498 128.93936,164.16373 129.64284,164.73601C130.26082,165.23874 131.03925,165.5069 131.8,165.76866C132.57956,166.0369 133.12363,166.98718 133.8,167.39799C134.57614,167.86942 135.16667,168.51666 136,168.68333C136.83333,168.85001 137.5674,169.35732 137.964,170.10867C138.36522,170.86874 138.474,171.57709 139.2,171.96733C140.05478,172.4268 140.74519,172.89093 141.16667,173.68333C141.5074,174.32393 141.80347,175.40076 142.436,175.68333C143.22079,176.03394 143.95313,175.11549 143.9955,174.27434C144.04529,173.2859 144,172.51933 144,171.56866C144,170.68333 144,169.88333 144,169.01134C144,168.14067 144,167.18333 144,166.45134C144,165.35533 143.98959,164.48328 144,163.5835C144.01042,162.68315 144.54704,161.93631 145.39999,161.71933C146.27292,161.49727 147.19867,161.68333 148.16667,161.68333C149,161.68333 149.85472,161.67311 150.60001,161.07266C151.25566,160.54443 151.86609,159.85237 152.64816,159.38783C153.27573,159.01506 153.80956,158.31984 154.2215,157.5835C154.63411,156.84595 155.75749,156.67128 156,155.80467C156.22467,155.0018 156.80258,154.50128 157.43201,153.88333C158.10237,153.22519 158,152.24049 158,151.498C158,150.436 158,149.51666 158,148.68333C158,147.85001 158.22597,147.1413 158.87866,146.46201C159.43639,145.88158 160.03125,145.34644 160.8,144.96733C161.6452,144.55052 162.60001,144.68333 163.47917,144.68333C164.36166,144.68333 165.32133,144.68333 166,144.68333C166.97884,144.68333 167.80983,144.68333 168.76666,144.68333C169.47917,144.68333 170.63583,144.68333 171.44299,144.68333C172.22133,144.68333 173.19983,144.68333 173.97917,144.68333C174.9785,144.68333 176,144.68333 176.8,144.68333C177.7,144.68333 178.60001,144.68333 179.5,144.68333C180.38933,144.68333 181,144.97 181,145.85001C181,146.68333 181,147.66183 181,148.48199C181,149.31934 181,150.336 181,151.03067C181,152.03667 181,152.96867 181,153.88333C181,154.78317 181,155.658 181,156.48466C181,157.38333 181,158.28334 181,159.20416C181,160.00467 181,160.858 181,161.79933C181,162.85001 181,163.50867 181,164.51666C181,165.39667 181.46625,166.10432 182,166.70416C182.69865,167.48933 182.96895,168.23695 183.00017,169.12633C183.0275,169.90501 183.17821,170.90179 183.54167,171.70416C183.85062,172.38618 184.48639,173.36719 184.82533,173.91933C185.17717,174.49248 185.8423,175.67918 186.116,176.282C186.51311,177.15668 186.687,177.76503 187.32117,178.76167C187.77005,179.46712 188.35054,179.98418 188.89917,180.93517C189.29901,181.62825 189.84782,182.45891 190.29733,182.94467C190.78864,183.4756 191.32326,183.99611 192.31334,184.998C192.75539,185.44531 193.38271,186.04543 193.97833,186.883C194.49861,187.61462 195.0266,188.39017 195.7045,188.79767C196.42357,189.22992 196.82138,190.17601 196.964,191.03667C197.1165,191.95682 197,192.88467 197,193.85001C197,194.66251 197,195.5825 197,196.34734C197,197.18333 197,198.18333 197,199.11934C197,199.98334 197,200.88333 197,201.78334L197,202.68333L197,203.48334" id="svg_10" stroke-width="3" stroke="#000" fill="none"/>
  <path t="109014,109130,109166,109246,109266,109284,109342,109342,109366,109366,109381,109383,109406,109422,109422,109432,109438,109448,109464,109470,109470,109481,109486,109486,109502,109518,109518,109533,109548,109548,109566,109590,109606,109622,109622,109638,109654,109654,109670,109694,109718,109718,109742,109782,109846,109846,109881,109895,109895,109926,109926" d="M155,241.68333C155,239.98334 155.0257,239.04788 154.5,238.20416C154.05046,237.48267 153.92722,236.58038 154,235.68333C154.05736,234.97638 154.67029,234.3007 155.51733,233.96867C156.44608,233.60461 157.38933,233.68333 158.28667,233.68333C159.16667,233.68333 159.97917,233.68333 160.93866,233.68333C161.80133,233.68333 162.70848,233.58467 163.52083,233.70416C164.50867,233.84947 165.1395,234.37833 166.11467,234.59801C166.98236,234.79347 167.8,234.68333 168.75717,234.68333C169.65266,234.68333 170.34734,234.68324 171.37466,234.68333C172.32117,234.68343 173.25133,234.54587 173.92799,235.10867C174.47942,235.56731 175.35007,235.55167 176.10001,235.90466C176.87553,236.2697 177.65033,236.66566 178.48399,236.96733C179.18863,237.22231 180.11043,237.64063 181.05267,237.68333C181.99902,237.72623 182.8,237.68333 183.71466,237.68333C184.54167,237.68333 185.48267,237.68333 186.29016,237.68333C187.28667,237.68333 188.16667,237.68333 189,237.68333L189.9785,237.68333L190.79866,237.68333" id="svg_11" stroke-width="3" stroke="#000" fill="none"/>
 </g>
</svg>