<svg width="280" height="420" xmlns="http://www.w3.org/2000/svg" xmlns:svg="http://www.w3.org/2000/svg" xmlns:xlink="http://www.w3.org/1999/xlink">
 <!-- Created with SVG-edit - http://svg-edit.googlecode.com/ -->
 <g display="inline" class="layer">
  <title>Layer 1</title>
  <path t="0,512,527,593,593,753,780,780,788,804,832,832,850,891,1011,1011,1025,1061,1061,1089,1097,1097,1121,1133,1149,1153,1153,1173,1203,1203,1219,1223,1223,1233,1261,1261,1310,1310,1331,1363,1410,1563,1563,1599,1599,1646,1676,1676,1676,1708,1845,1861,1861,1921,1921,1933,1957,1969,1993,1993,2093,2097,2144,2144,2156,2156,2164,2176,2192,2192,2208,2208,2232,2232,2240,2264,2264,2280,2319,2319,2347,2347,2399,2399,2407,2579,2579,2615,2647,2647,2671,2703,2730,2730,2767,2767,2799,2843,2843,2896,2896,2916,2916,2940,2960,2976,2984,2984,3000,3020,3020,3036,3052,3108,3108,3120,3132,3132,3209,3231,3231,3275,3307,3307,3331,3331,3331,3359,3391,3391,3403,3428,3428,3436,3460,3460,3496,3544,3584,3584,3600,3616,3628,3628,3662,3662,3674,3698,3698,3710,3710,3726,3726,3746,3758,3758,3774,3774,3798,3798,3840,3840,3883,3886,3894,3898,3902,3914,3930,3930,3938,3962,3962,3982,3982,3982,3990,3998,4019,4019,4023,4023,4039,4039,4051,4055,4055,4067,4067,4071,4083,4091,4091,4099,4109,4117,4117,4141,4141,4153,4289,4320,4328,4332,4348,4348,4372,4384,4388,4400,4404,4416,4420,4436,4436,4452,4452,4481,4501,4521,4521,4585,4585,4758,4782,4802,4819,4838,4842,4854,4866,4866,4878,4890,4898,4898,4914,4922,4930,5168,5210,5210,5218,5266,5282,5282,5409,5442,5442,5493,5519,5575,5577,5577,5658,5665,5677,5689,5689,5716,5733,5757,5765,5797,5797,5809,5821,5829,5829,5853,5861,5861,5877,5889,5951,5955,5983,5983,6023,6023,6071,6109,6109,6147,6147,6227,6227,6263,6263,6322,6338,6358,6676,6676,6694,6694,6694,6735,6759,6795,6795,7573,7580,7647,7676,7745,7887,7887,8011,8015,8134,8134,8201,8201,8201,8370,8411,8443,8443,8478,8478,8881,8881,8914,8914,8979,8982,9471,9471,9512,9512,9620,9695,10621,10628,10640,10823,10823,11276,11276,11653,11653,11684,11838,11853,11975,11975,12063,12681,12843,12846,12909,12952,12952,13132,13143,13157,13165,13412,13412,13463,13522,13530,13625,13645,13649,13744,13935,13935,13981,14067,14067,14067,14108,14411,14542,14598,14679,14679,14761,14761,14941,14979,14983,14983,14983,15006,15006,15030,15030,15058,15058,15098,15278,15328,15332,15348,15348,15387,15471,15471,15641,15641,15676,15696,15700,15762,15817,15865,15869,15869,15925,15925,15957,16013,16013,16047,16047,16141,16466,16466,16631,16631,16775,17004,17381,17381,17415,17541,17541,17564,17597,17651,18211,18276,18338,18338,18426,18426,18609,18609,18692,18692,18760,18808,18816,18883,18883,18886,18894,18946,18964,18980,19131,19131,19166,19194,19210,19210,19248,19248,19270,19301,19339,19343,19343,19371,19371,19527,19578,19662,19666,19702,19710,19866,19866,19935,19956,19956,19972,20071,20128,20128,20160,20169,20172,20184,20188,20188,20200,20208,20224,20284,20297,20301,20345,20345,20393,20397,20435,20455,20455,20483,20483,20523,20523,20535,20535,20559,20563,20563,20583,20583,20623,20623,20631,20631,20691,20739,20739,20755,20755,20763,20801,20813,20869,20889,20893,20901,20901,20931,20947,20947,20971,20971,20999,21050,21062,21066,21120,21163,21202,21206,21214,21218,21247,21302,21326,21350,21350,21378,21378,21382,21422,21422,21422,21456,21456,21549,21553,21569,21636,21636,21746,21770,21786,21790,21794,21794,21806,21814,21822,21830,21830,21846,21850,21858,21858,21879,21879,21883,21891,21891,21909,21909,21909,21929,22002,22033,22065,22073,22073,22081,22101,22125,22133,22133,22151,22181,22181,22223,22241,22241,22259,22259,22330,22330,22418,22418,22425,22467,22495,22495,22531,22551,22555,22579,22634,22669,22669,22719,22719,22759,22759,22759,22775,22791,22811,23089,23089,23118,23169,23169,23254,23419,23480,23484,23554,23670,23670,23670,23700,23756,23870,23954,23954,24038,24080,24080,24100,24136,24136,24217,24237,24289,24369,24369,24471,24475,24515,24523,24552,24552,24580,24592,24631,24631,24643,24675,24687,24699,24699,24719,24751,24793,24793,24817,24833,24833,24877,24965,24969,24985,25084,25104,25104,25165,25169,25178,25210,25239,25286,25290,25306,25310,25359,25495,25534,25534,25542,25574,25578,25638,25638,25738,25738,25806,25826,25826,25826,25845,25869,25897,25897,25897,26270,26270,26285,26285,26285,26285,26342,26342" d="M62.37109,326.25C61.20443,325.25 60.73179,324.63739 60.45376,323.76733C60.20108,322.97659 59.47891,322.7164 58.70443,322.08334C58.15034,321.63043 58.37109,320.54999 58.37109,319.61401C58.37109,318.76599 58.37109,317.90268 58.37109,316.88599C58.37109,316.04999 58.37109,315.14984 58.37109,314.36465C58.37109,313.42465 57.99311,312.25876 58.48543,311.61166C58.97885,310.96313 60.2046,311.26715 61.06659,311.25C61.97163,311.23199 62.64251,310.84589 63.53776,310.25C64.17471,309.82605 64.95367,309.69559 65.85026,309.22916C66.65453,308.81073 66.9615,308.02368 67.47126,307.05032C67.77605,306.46832 68.20216,305.70581 69.18576,305.31134C70.00436,304.98303 70.4311,304.35498 70.72376,303.59732C71.06126,302.72357 71.36067,301.77103 71.37109,300.95001C71.38253,300.04874 71.37109,299.08334 71.37109,298.25C71.37109,297.27151 71.37109,296.5545 71.37109,295.578C71.37109,294.70734 71.37109,293.99933 71.37109,293.01801C71.37109,292.06433 71.37109,291.14999 71.37109,290.25C71.37109,289.49283 71.37109,288.42465 71.37109,287.73401C71.37109,286.77084 71.37109,285.85001 71.37109,284.9455C71.37109,283.92868 71.37109,283.25 71.37109,282.27133C71.37109,281.366 71.36895,280.59283 71.37109,279.64868C71.37334,278.659 71.42407,277.96106 72.01842,277.20184C72.53447,276.54266 73.23249,276.06989 74.09509,275.64999C74.88006,275.26791 75.34164,274.60223 75.6551,273.76599C75.98386,272.88895 76.14684,271.93179 76.5926,271.15018C76.95262,270.51889 78.03786,270.30893 78.85376,269.96335C79.54279,269.67151 80.19532,268.76425 80.38577,268.07535C80.64631,267.13287 80.85256,266.31406 81.42376,265.60718C82.01465,264.87595 82.37042,264.36334 82.37109,263.42465C82.37181,262.41666 82.20467,261.64145 82.39193,260.75C82.57082,259.89835 83.26654,259.09186 83.35026,258.25C83.43275,257.4205 83.54189,256.53705 84.37109,256.25C85.20189,255.96239 85.41228,255.26602 85.72826,254.24916C85.95267,253.52698 86.63148,252.77716 87.08576,252.16867C87.59663,251.48439 87.13528,250.35031 87.53776,249.58333C87.97584,248.74849 88.36067,248.22934 88.37109,247.2715C88.3822,246.25006 87.98081,245.29185 88.48543,244.60716C88.96722,243.95343 90.22897,243.83008 90.34976,243.06467C90.49467,242.14645 90.20494,241.21422 90.45643,240.45C90.75922,239.52986 91.13143,238.72487 91.42376,237.95984C91.72324,237.17607 92.33848,236.5325 92.36659,235.78383C92.40243,234.82948 92.3687,234.03534 92.37109,233.01933C92.37334,232.06432 92.67611,231.20137 93.01842,230.55C93.48201,229.66788 93.36673,228.76599 93.37109,227.90266C93.3756,227.01164 93.99525,226.50899 94.66576,226.19733C95.46625,225.82526 95.37109,224.72917 95.37109,223.76601C95.37109,223.07533 95.37109,222.00717 95.37109,221.14999C95.37109,220.25 95.39161,219.47989 95.72376,218.59734C95.98955,217.89111 96.29794,216.88368 96.3756,215.94099C96.43032,215.27666 96.70129,214.23492 96.98176,213.50067C97.33736,212.56973 98.02115,211.86836 98.28576,211.05C98.56394,210.18967 98.28191,209.3584 98.39243,208.42467C98.47549,207.72293 99.30925,206.96054 99.80309,206.366C100.37733,205.67465 100.36201,204.83017 100.6551,203.85001C100.89895,203.03452 101.29159,202.05446 101.35026,201.27083C101.42488,200.27423 101.75603,199.61908 102.20443,198.91667C102.58259,198.3243 102.37109,197.13533 102.37109,196.25C102.37109,195.43567 102.37109,194.48199 102.37109,193.75C102.37109,193.01801 102.24512,191.91321 102.3756,190.95C102.48687,190.12848 103.13149,189.52237 103.31393,188.59283C103.45821,187.85768 103.37109,186.85133 103.37109,185.90717C103.37109,185.00267 103.37109,184.08333 103.37109,183.25C103.37109,182.2715 103.37109,181.45134 103.37109,180.55C103.37109,179.72917 103.37109,178.76601 103.37109,177.90266C103.37109,177.00717 103.37109,176.05 103.37109,175.14984C103.37109,174.36467 103.37109,173.42467 103.37109,172.73399C103.37109,171.66066 103.37093,170.75 103.37109,169.83934C103.37126,168.92867 103.20457,168.13588 103.81376,167.2715C104.24535,166.6591 105.15807,166.15756 105.37109,165.25C105.56529,164.42265 106.27717,163.92682 106.36043,163.06467C106.4499,162.13824 106.37109,161.366 106.37109,160.414C106.37109,159.64867 106.27341,158.64017 106.42826,157.90717C106.65263,156.84511 107.31021,156.15611 107.37109,155.25C107.42186,154.49454 107.37109,153.59734 107.37109,152.73399C107.37109,151.77083 107.13121,150.81602 107.3756,149.9545C107.59611,149.17711 108.32336,148.54076 108.36976,147.73267C108.42375,146.79224 109.17067,146.54909 109.80309,146.166C110.58428,145.69281 110.32127,144.61255 110.3756,143.60184C110.41781,142.8163 111.22535,142.20729 111.36976,141.44867C111.53781,140.56586 111.37109,139.614 111.37109,138.76601C111.37109,137.90266 111.37109,137.00717 111.37109,136.05C111.37109,135.14984 111.37109,134.36467 111.37109,133.42467C111.37109,132.41667 111.37109,131.66066 111.37109,130.75C111.37109,129.82867 111.37109,128.91667 111.37109,127.99934C111.37109,127.25533 111.37109,126.22066 111.37109,125.45267C111.37109,124.49284 111.61787,123.53246 111.28576,122.81934C110.90279,121.99703 110.37177,121.44867 110.37109,120.55C110.3704,119.614 110.37109,118.766 110.37109,117.90266C110.37109,116.886 110.37109,116.05 110.37109,115.14983C110.37109,114.36467 110.44215,113.42216 110.37109,112.41666C110.31378,111.60561 109.27962,111.69141 108.6141,111.0285C107.9682,110.38513 108.37109,109.36467 108.37109,108.414C108.37109,107.64867 108.37109,106.6545 108.37109,105.90717C108.37109,104.87534 108.37109,103.9285 108.37109,103.22916C108.37109,102.25 108.37109,101.46067 108.37109,100.41666C108.37109,99.62466 108.37109,98.59734 108.37109,97.90266C108.37109,96.886 108.37109,95.95 108.37109,95.04867C108.37109,94.08334 108.15595,93.3181 108.70443,92.41666C109.08963,91.78358 110.02746,91.82972 110.92443,91.22467C111.58569,90.77863 112.19949,90.0816 112.45509,89.36333C112.78996,88.42234 113.20631,87.75887 113.35026,86.77084C113.48305,85.85938 113.37109,84.9455 113.37109,84.08334C113.37109,83.25 113.21693,82.23216 113.48543,81.49734C113.78118,80.68792 114.6273,80.09983 115.03776,79.25C115.39938,78.50129 115.144,77.70335 115.4071,76.66067C115.62827,75.78416 116.41222,75.28643 116.97109,74.614C117.51331,73.9616 117.87502,72.92165 118.69243,72.49333C119.31004,72.16971 120.43458,72.63163 120.82943,73.27084C121.37898,74.16048 121.4223,75.105 122.37109,75.25C123.11957,75.36439 124.02381,75.25934 124.88709,75.25C125.85043,75.23958 126.82574,74.97434 127.20443,74.08334C127.46385,73.47294 127.64619,72.34295 128.53777,72.25C129.19296,72.18169 130.26212,72.16946 130.96043,71.63934C131.63638,71.1262 132.2834,70.54128 132.85027,69.72916C133.36229,68.99562 133.21869,67.88346 133.94043,67.42067C134.61305,66.98936 135.73509,67.25 136.57109,67.25C137.47127,67.25 138.27893,67.06692 139.18576,67.27133C140.1931,67.4984 140.26559,68.53409 140.81393,69.22833C141.27962,69.81792 142.47336,69.88799 143.20442,70.41666C143.87968,70.90499 144.39177,71.23958 145.48576,71.25C146.37105,71.25843 147.1711,71.25 148.0071,71.25C149.02376,71.25 149.73216,71.09375 150.73509,71.26067C151.60228,71.405 151.97676,72.17699 152.3671,73.06467C152.76555,73.97083 153.66234,74.11909 154.3131,74.29816C155.30815,74.57199 155.89174,75.23958 156.77109,75.25C157.67554,75.26072 158.53777,75.25 159.37109,75.25C160.34959,75.25 161.16975,75.25 162.04309,75.25C162.91376,75.25 163.87109,75.25 164.60309,75.25C165.70976,75.25 166.53777,75.25 167.39192,75.25C168.37109,75.25 169.16072,75.27484 170.20442,75.25C170.96107,75.23199 171.68063,74.62907 172.57243,74.33533C173.49289,74.03216 174.19698,74.21664 175.20442,74.25C176.06801,74.2786 176.84932,74.79429 177.47127,75.34983C178.10695,75.91764 179.11494,75.9349 179.80176,76.334C180.56204,76.77579 180.37109,77.90266 180.37109,78.766C180.37109,79.72916 180.37109,80.559 180.37109,81.58334C180.37109,82.25533 180.37109,82.99934 180.37109,84.107C180.37109,84.941 180.37285,85.9246 179.66125,86.5545C179.07306,87.07517 178.28757,87.75637 177.78177,88.38866C177.20525,89.10937 176.40677,89.47852 175.73509,89.82467C174.92297,90.24319 174.02376,90.24775 173.0071,90.25C172.1711,90.25185 171.27094,90.25 170.48576,90.25C169.54576,90.25 168.53725,90.22214 167.78177,90.25C166.8051,90.28603 166.83076,91.15512 166.20442,91.91666C165.65009,92.59064 165.32497,93.11243 165.37109,94.08334C165.40714,94.8419 166.08598,95.542 166.72293,95.95C167.49063,96.44176 168.18454,97.1142 168.3351,98.07533C168.44212,98.75854 168.36652,99.72917 168.37109,100.65C168.3756,101.55453 168.69167,102.42689 169.22176,103.07533C169.65549,103.6059 170.31374,104.48774 170.37109,105.45C170.42464,106.34824 170.83072,106.93488 171.24959,107.69283C171.6127,108.3499 171.37109,109.49284 171.37109,110.35C171.37109,111.25 171.37109,112.00716 171.37109,112.90266C171.37109,113.766 171.37109,114.72916 171.37109,115.67133C171.37109,116.58334 171.37109,117.25533 171.37109,118.24467C171.37109,119.27934 171.37109,120.04733 171.37109,120.95C171.37109,121.886 171.37109,122.734 171.37109,123.59734C171.37109,124.49284 171.37109,125.45 171.37109,126.35017C171.37109,127.13533 171.37109,128.07533 171.37109,129.08333C171.37109,129.83934 171.37109,130.75 171.37109,131.66066C171.37109,132.57133 171.37109,133.42467 171.37109,134.36467C171.37109,135.25 171.36868,136.05 171.37109,137.00717C171.37335,137.89818 171.59625,138.56982 172.0871,139.33267C172.50497,139.9821 172.74561,140.67657 173.24959,141.47166C173.75969,142.2764 173.30469,143.07751 173.37109,144.08333C173.42839,144.95116 174.17072,145.43507 174.8031,146.05C175.44299,146.67221 175.32263,147.73944 175.40709,148.46066C175.52414,149.46024 175.84488,150.25732 176.37109,151.08333C176.81221,151.77577 177.30002,152.56628 177.36043,153.42467C177.42642,154.36241 177.13191,155.35776 177.54259,155.95C178.15401,156.83176 179.2276,156.73132 179.87109,157.41667C180.39575,157.97545 179.98581,159.21486 180.45642,159.96333C180.92198,160.70378 181.37109,161.25 181.37109,162.13533C181.37109,163.07533 180.94603,163.87341 181.40709,164.80333C181.75774,165.51053 182.37042,166.05133 182.37109,166.886C182.3719,167.90717 182.37109,168.6545 182.37109,169.64867C182.37109,170.414 182.37109,171.366 182.37109,172.41667C182.37109,173.07533 182.37109,174.08333 182.37109,174.9455C182.37109,175.85001 182.37109,176.77083 182.37109,177.73399C182.37109,178.42467 182.37109,179.49283 182.37109,180.35001C182.37109,181.25 182.37109,182.00717 182.37109,182.90266C182.37109,183.76601 182.37109,184.72917 182.37109,185.64999C182.37109,186.5545 182.47336,187.42786 182.32942,188.27083C182.15746,189.27794 181.63185,189.83199 181.22176,190.48601C180.6561,191.38811 180.4467,192.19456 180.39243,192.98866C180.31615,194.1046 180.31398,195.0023 179.66576,195.55C178.992,196.11928 178.39194,196.77016 178.37109,197.73399C178.35617,198.4245 178.37109,199.49283 178.37109,200.35001C178.37109,201.25 178.37109,202.00717 178.37109,202.90266C178.37109,203.76601 178.37109,204.72917 178.37109,205.64999C178.37109,206.5545 178.37109,207.41667 178.37109,208.27083C178.37109,209.25 178.3869,210.03946 178.37109,211.08333C178.36067,211.77107 178.14873,212.79254 177.94576,213.51134C177.72263,214.30151 177.45157,215.32486 177.39192,216.22917C177.32472,217.248 177.37109,218.03934 177.37109,218.76466C177.37109,219.72917 177.61098,220.68398 177.36659,221.5455C177.14607,222.32291 176.40092,222.9584 176.37242,223.76733C176.33856,224.72858 176.37109,225.55 176.37109,226.45134C176.37109,227.41667 176.54257,228.31447 176.0871,229.082C175.6521,229.81503 175.37643,230.43529 175.37109,231.49733C175.36647,232.41666 175.44798,233.25305 175.37076,234.2285C175.31346,234.95224 174.60942,235.49933 174.01926,236.06433C173.3253,236.72871 172.97839,237.48676 172.73276,238.24467C172.40259,239.26343 172.37109,240.25 172.37109,241.05C172.37109,242.00717 172.48964,242.9232 172.28577,243.76601C172.07095,244.65401 171.46606,245.34682 171.37109,246.25C171.29169,247.00516 171.09621,247.97156 170.55226,248.59734C169.92232,249.32207 169.10382,249.56184 168.43359,249.9455C167.49915,250.48039 167.47981,251.51059 167.01843,252.20183C166.55495,252.89622 166.54465,253.84407 165.72443,254.22867C164.81339,254.65585 164.02376,254.25 163.0071,254.25C162.07109,254.25 161.16965,254.26176 160.48576,254.25C159.55602,254.23399 158.6114,253.77501 158.4431,252.96333C158.29787,252.26295 158.6452,251.08029 158.0871,250.334C157.61073,249.69702 157.37109,248.92867 157.37109,248.25C157.37109,247.13533 157.37109,246.25 157.37109,245.45C157.37109,244.614 157.37109,243.59734 157.37109,242.90266C157.37109,241.886 157.37109,240.95 157.37109,240.04866C157.37109,239.08333 157.37109,238.42467 157.37109,237.41667C157.37109,236.5545 157.37109,235.64999 157.37109,234.72917C157.37109,233.92867 157.37109,233.07533 157.37109,232.13533C157.37109,231.14999 157.36919,230.25 157.37109,229.49283C157.37335,228.60182 157.76012,227.78833 158.20442,227.08333C158.65753,226.36436 157.94177,225.24649 158.54176,224.53534C159.11182,223.85965 160.22897,223.83008 160.34976,223.06467C160.49487,222.14514 160.30536,221.0789 160.38176,220.43533C160.49562,219.47615 161.30057,218.81302 161.36043,218.06467C161.43454,217.13823 161.37109,216.14999 161.37109,215.25C161.37109,214.49283 161.37109,213.59734 161.37109,212.73399C161.37109,211.77083 161.37109,210.85001 161.37109,209.9455C161.37109,209.08333 161.37109,208.25 161.37109,207.2715C161.37109,206.45134 161.37109,205.55 161.37109,204.72917C161.37109,203.76601 161.37109,202.90266 161.37109,202.00717C161.37109,201.04733 161.37109,200.27933 161.37109,199.24467C161.37109,198.50067 161.36533,197.58331 161.37109,196.67134C161.37643,195.82863 161.5023,194.90538 161.8071,194.00999C162.04794,193.30247 162.60532,192.5491 163.28842,191.966C163.9848,191.37158 164.72041,191.11842 165.22977,190.82466C166.28175,190.21794 166.63127,189.83934 167.43643,189.11267C167.85529,188.73465 168.65593,187.95616 169.03377,187.58467L169.98509,186.63617L170.78777,185.85417" id="svg_1" stroke-width="3" stroke="#000" fill="none"/>
  <path t="28267,28938,28973,29001,29001,29025,29037,29065,29065,29104,29104,29155,29254,29254,29293,29293,29309,29309,29333,29349,29385,29385,29405,29405,29438,29458,29478,29478,29493,29504,29512,29524,29540,29560,29560,29672,29672,29692,29692,29708,29717,29729,29749,29749,29765,29781,29781,29797,29797,29899,29903,29923,29943,29986,29994,30026,30042,30042,30042,30050,30079,30111,30111,30149,30149,30209,30209,30290,30317,30317,30349,30349,30375,30375,30422,30422,30422,30458,30492,30492,30500,30500,30524,30524,30532,30556,30568,30568,30604,30604,30651,30651,30787,30812,30812,30837,30841,30976,31044,31064,31068,31076,31088,31108,31108,31116,31116,31168,31168,31192,31204,31216,31216,31236,31260,31264,31286,31311,31319,31319,31331,31363,31387,31427,31495,31499,31543,31543,31571,31575,31604,31628,31648,31648,31686,31702,31702,31738,31746,31795,31795,31795,31873,31873,31912,31973,32008,32008,32058,32058,32090,32243,32243,32290,32290,32322,32342,32372,32372,32486,32720,32720,32807" d="M111.37109,165.25C111.37109,166.05133 111.33489,166.88681 111.3756,167.90266C111.40349,168.59877 111.88872,169.56459 112.24976,170.35001C112.64444,171.20859 113.07095,171.84599 113.28576,172.73399C113.48963,173.5768 113.37109,174.49283 113.37109,175.45267C113.37109,176.22067 113.37109,177.25534 113.37109,177.99933C113.37109,178.91667 112.97951,179.93864 113.41276,180.72917C113.80309,181.44141 115.18977,181.35629 115.36209,182.01167C115.58868,182.87347 115.40153,183.79155 115.87109,184.72917C116.24347,185.47273 116.36658,186.35019 116.37109,187.13533C116.37643,188.06471 116.863,188.77315 117.28576,189.53534C117.73133,190.33867 117.05997,191.51889 117.59276,192.12883C118.07016,192.67537 119.03333,192.94954 119.54576,193.43533C120.36522,194.21217 121.02481,194.69893 121.76043,195.22467C122.47178,195.73306 123.01772,196.24466 124.02376,196.25C124.71842,196.25368 125.82153,196.07489 126.5711,196.53667C127.29354,196.98174 127.57988,197.97772 128.12827,198.54016C128.76059,199.18869 129.82004,199.0912 130.60942,199.60716C131.34262,200.08641 131.70151,200.98268 132.28709,201.534C132.87166,202.08435 133.57433,202.5414 134.18576,203.11133C134.84402,203.72491 135.23573,204.62199 135.37242,205.45C135.52335,206.36429 136.1315,206.97763 136.31393,207.90717C136.45822,208.64232 136.37109,209.64867 136.37109,210.414C136.37109,211.49733 136.37096,212.41667 136.37109,213.25C136.37126,214.22867 136.44077,215.03229 136.9391,215.73534C137.33698,216.29665 138.12779,217.22571 138.29909,218.03934C138.4492,218.75233 138.37109,219.75 138.37109,220.73534C138.37109,221.46066 138.37109,222.44983 138.37109,223.22917C138.37109,224.2285 138.37109,225.04866 138.37109,225.95C138.37109,226.886 138.37109,227.73534 138.37109,228.6545C138.37109,229.64867 138.37109,230.414 138.37109,231.366C138.37109,232.134 138.37109,233.07533 138.37109,234.08333C138.37109,234.83934 138.37976,235.87595 137.76042,236.27533C137.01674,236.75488 136.17305,237.21971 135.20442,237.25C134.39206,237.27541 133.53207,236.96663 133.37093,236.14999C133.19374,235.25204 132.69472,234.6481 132.45509,233.76466C132.21182,232.86781 132.08885,231.85068 131.87109,231.27083C131.49545,230.27052 130.9763,229.62527 130.53777,228.91667C130.08194,228.18015 130.37109,227.13533 130.37109,226.25C130.37109,225.45 130.17426,224.59859 129.37109,224.22917C128.58371,223.867 128.61748,223.03467 128.36659,222.01167C128.17845,221.24454 127.47794,220.80779 127.36659,219.9455C127.23343,218.91434 126.91406,218.2099 126.37109,217.41667C125.90245,216.73201 125.02681,216.18575 124.39193,215.75C123.58196,215.19408 122.97631,214.62527 122.53776,213.91667C122.08193,213.18015 122.54758,212.0827 122.20443,211.25C121.92797,210.57915 121.44345,209.68718 120.82943,209.22917C120.11885,208.69914 119.32077,208.25882 118.94043,207.64734C118.36476,206.72183 118.20958,205.88879 117.6551,205.16733C117.12156,204.47311 116.39053,203.90063 115.96043,203.39934C115.2361,202.5551 114.45095,202.54601 113.61376,202.02867C112.89882,201.58688 112.10732,201.41968 111.25776,200.96466C110.56016,200.59103 110.32738,199.6512 109.52043,199.26466C108.72038,198.88144 108.41276,198.22917 108.37109,197.2715L108.37109,196.25L108.37109,195.45L108.37109,194.614" id="svg_2" stroke-width="3" stroke="#000" fill="none"/>
  <path t="37057,37385,37527,37527,37569,37577,37577,37633,37633,37694,37779,37779,37812,37828,37832,37867,37903,37951,37979,38046,38046,38070,38112,38112,38144,38144,38176,38204,38204,38232,38232,38393,38418,38418,38476,38484,38484,38528,38743,38768,38800,38800,38808" d="M65.37109,326.25C65.65643,325.33667 66.4932,325.44525 67.0711,325.9545C67.81156,326.60699 68.52911,327.14685 69.37109,327.22916C70.34502,327.32434 71.12636,327.40765 71.37109,328.27084C71.63917,329.21634 72.02647,330.04599 72.89193,330.22916C73.83444,330.42865 74.54576,330.25009 75.61393,330.25C76.47092,330.24991 77.23425,329.92828 77.72376,329.29816C78.23647,328.63815 78.34982,327.75906 79.23243,327.31134C80.1228,326.85968 80.86044,326.73981 81.5711,326.04999C82.07848,325.5575 82.72321,324.74097 83.53776,324.41666C84.31246,324.10822 85.14755,323.81357 85.38577,323.06467C85.67905,322.14264 86.28326,321.2637 86.36659,320.54999C86.47514,319.62033 86.13912,318.71585 86.42826,317.95984C86.77142,317.06256 87.36976,316.44867 87.42826,315.60718L88.20443,315.08334L88.36976,314.36334L88.39243,313.42465" id="svg_3" stroke-width="3" stroke="#000" fill="none"/>
  <path t="41507,41556,41592,41645,41645,41692,41692,41708,41708,41720,41744,41744,41776,41796,41796,41846,41886,41929,41953,41953,41985,41985,41999,42031,42073,42073,42093,42141,42193,42193,42217,42217,42245,42261,42299,42307,42327,42327,42382,42443,42475,42475,42479,42479,42487,42487,42507,42563,42591,42595" d="M86.37109,271.25C86.37109,272.13666 86.37109,273.07535 86.37109,274.08334C86.37109,274.87534 86.37109,275.73532 86.37109,276.65451C86.37109,277.64868 86.37109,278.414 86.37109,279.36465C86.37109,280.25 86.37109,281.04999 86.37109,282.00717C86.37109,282.89816 86.37109,283.68066 86.37109,284.686C86.37109,285.54999 86.37109,286.45132 86.37109,287.41666C86.37109,288.25 86.37109,289.08334 86.37109,289.9455C86.37109,290.85001 86.37109,291.77084 86.37109,292.73401C86.37109,293.42465 86.37109,294.49283 86.37109,295.35001C86.37109,296.25 86.37109,297.00717 86.37109,297.90268C86.37109,298.76599 86.05379,299.79022 86.38176,300.63934C86.68804,301.43228 87.35542,301.91046 87.6551,302.73401C87.97538,303.6142 88.19176,304.50989 88.37143,305.35001C88.57211,306.28842 89.40909,306.49899 90.03776,307.41666C90.43826,308.00128 90.02484,309.18939 90.42826,309.88834C90.82588,310.57724 91.5926,311.12866 92.47126,311.47168L93.0071,311.89667" id="svg_4" stroke-width="3" stroke="#000" fill="none"/>
  <path t="44024,44082,44102,44122,44122,44134,44134,44134,44161,44197,44197,44209,44209,44233,44283,44333,44333,44370,44412,44460,44460,44472,44476,44488,44533,44545,44549,44600,44650,44650,44675,44691,44727,44727,44783,44909,44909,45000,45000,45063,45067,45117,45149,45157,45157,45235,45259,45303,45303,45327,45331,45530" d="M97.37109,275.25C97.37109,276.25 97.76268,276.89209 98.24993,277.69299C98.66545,278.37598 98.66719,279.2757 99.22176,280.03934C99.63873,280.61349 100.31382,281.49203 100.37109,282.41666C100.42262,283.24841 100.37109,284.22852 100.37109,284.9455C100.37109,285.89282 100.37109,286.79166 100.37109,287.73401C100.37109,288.42465 100.29288,289.49643 100.37126,290.35001C100.45495,291.26144 101.07095,291.84598 101.28576,292.73401C101.48962,293.57678 101.37109,294.61401 101.37109,295.45001C101.37109,296.35016 101.37109,297.13535 101.37109,298.07535C101.37109,299.08334 101.37109,299.83932 101.37109,300.75C101.37109,301.66068 101.37109,302.57132 101.37109,303.42465C101.37109,304.36465 101.37109,305.25 101.37109,306.06433C101.37109,307.01801 101.37109,307.75 101.37109,308.91666C101.37109,309.70834 101.62244,310.82007 100.92443,311.21399C100.16204,311.64423 99.19643,311.25 98.25643,311.25C97.2711,311.25 96.37109,311.25 95.61393,311.25L94.71843,311.25L93.85509,311.25L92.89193,311.25" id="svg_5" stroke-width="3" stroke="#000" fill="none"/>
  <path t="49368,49830,49851,49851,50013,50081,50115,50123,50147,50167,50209,50209,50245,50301,50301,50344,50380,50400,50400,50431,50431,50455,50471,50507,50515,50515,50535,50535,50567,50618,50717,50717,50801,50801,50836,50844,50891,50891,50903,50915,50915,50931,50943,50943,50972,50996,51004,51009,51009,51021,51021,51037,51037,51075,51083,51149,51149,51166,51166,51182,51190,51210,51210,51226,51260,51260,51264,51401,51401" d="M102.37109,281.25C104.19643,281.25 105.20461,281.26785 106.0666,281.25C106.93565,281.23199 107.41473,280.40213 108.13276,280.25449C109.16428,280.04239 109.96938,280.02435 110.59243,279.37115C111.19015,278.74451 111.16705,277.92944 111.8071,277.31134C112.4992,276.64301 113.25448,276.52689 114.18576,276.27533C115.12618,276.0213 115.28281,275.13513 115.45643,274.36465C115.63506,273.57196 116.19305,272.75803 116.3351,271.88599C116.48569,270.96152 116.37109,270.04868 116.37109,269.08334C116.37109,268.25 116.37109,267.41666 116.37109,266.5545C116.37109,265.64999 116.37109,264.72916 116.37109,263.76468C116.37109,263.03934 116.37103,262.05017 116.37109,261.27084C116.37118,260.27167 116.79585,259.62711 117.2496,258.80716C117.61308,258.1503 117.37109,257.13535 117.37109,256.25C117.37109,255.45 117.37109,254.49283 117.37109,253.59734C117.37109,252.73399 117.37109,251.77083 117.37109,250.95C117.37109,250.04866 117.37088,249.08333 117.37109,248.25C117.37135,247.27167 117.51437,246.51395 118.42909,246.30267C119.29651,246.10233 120.28491,245.90576 120.37109,245.04866C120.46767,244.08817 120.37109,243.42467 120.37109,242.41667C120.37109,241.5545 120.37109,240.64999 120.37109,239.72917C120.37109,238.76601 120.37109,238.07533 120.37109,237.134C120.37109,236.08333 120.37109,235.414 120.37109,234.64867L120.37109,233.46066L120.37109,232.73534" id="svg_6" stroke-width="3" stroke="#000" fill="none"/>
  <path t="53380,53615,53615,53635,53635,53655,53667,53683,53717,53726,53726,53768,53768,53768,53792,53851,53851,53938,53938,53984,54000,54012,54029,54049,54049,54077,54077,54134,54150,54158,54158,54204,54204,54250,54250,54282,54306,54306,54327,54327,54339,54339,54362,54362,54378,54414,54414,54439,54439,54463,54463,54471,54538,54576,54576,54600,54600,54612,54620,54636,54648,54656,54656,54672,54691,54691,54707,54719,54719,54727,54743,54759,54783,54783,54817,54838,54838,54880,54880" d="M118.37109,271.25C118.70443,272.08334 119.65591,272.15115 120.34943,272.69284C120.94154,273.1553 120.97247,274.38019 121.53776,275.08334C122.08562,275.76483 122.73377,276.17792 123.69243,276.25049C124.37198,276.30194 125.25917,276.71527 125.73509,277.526C126.1117,278.16757 126.69656,279.03439 127.47126,279.47134C128.15329,279.85602 129.02232,280.21762 129.71843,280.24551C130.73428,280.28622 131.69255,280.44388 132.56976,280.24866C133.38098,280.06812 134.0291,279.53986 134.66576,279.14017C135.50395,278.61392 135.4131,277.71399 135.87109,276.77084C136.2785,275.93185 136.32071,275.03989 136.45642,274.27933C136.60075,273.4704 136.98853,272.51166 137.20442,271.58334C137.38678,270.79926 137.37109,269.83932 137.37109,268.9285C137.37109,268.22916 137.37109,267.25 137.37109,266.46066C137.37109,265.41666 137.37109,264.62466 137.37109,263.59732C137.37109,262.90268 137.37109,261.87534 137.37109,260.9285C137.37109,260.22916 137.37109,259.25 137.37109,258.46066C137.37109,257.41666 137.18861,256.52847 137.40709,255.64999C137.62415,254.77728 138.26796,254.09198 138.35027,253.25C138.44547,252.27608 138.54927,251.55753 139.37109,251.25C140.2655,250.91531 140.26276,249.98965 140.72375,249.29817C141.18742,248.60269 141.31889,247.85567 141.72375,247.00717C142.10997,246.19774 142.27283,245.27368 143.01776,244.686C143.73032,244.12387 144.83054,244.27206 145.26126,243.54466C145.77094,242.68393 146.11629,242.0424 146.53777,241.25C146.87849,240.60941 147.3351,239.83934 147.37126,238.92867L147.40709,238.07533L147.65509,237.13533L148.0871,236.45134" id="svg_7" stroke-width="3" stroke="#000" fill="none"/>
  <path t="55727,55790,55841,55942,55942,55942,56005,56047,56055,56079,56119,56119,56158,56158,56166,56224,56272,56272,56272,56316,56372,56423,56423,56447,56447,56538,56550,56822,56856,56856,56876,56884,56912,57032,57032,57059,57176,57339,57339,57365,57365,57381,57393,57393,57421,57421,57441,57441,57461,57493,57530,57602,57602,57602,57843,57843,57918,57969,58003,58003,58015,58015,58039,58074,58136,58153,58153,58153,58183,58183,58214,58222,58230,58275,58299,58299,58344,58403,58403,58468,58508,58508,58544,58544,58566,58586,58606,58606,58663,58711,58723,58723,58805,58860,58860,58910,58938,59072,59072,59124,59157,59303,59323,59343,59343,59376,59376,59393,59401,59401,59421,59437,59437,59486,59540,59637,59637,59714,59738,59768,59772,59788,59788,59831,59855,59855,59855,59896,59896,59907,59948,59948,59985,59985,60069,60132,60132,60156,60156,60207,60207,60245,60273,60297,60317,60337,60337,60367,60367,60406,60453,60479,60479,60499,60523,60523,60551,60563,60563,60599,60615,60643,60684,60684,60700,60700" d="M137.37109,267.25C137.37109,269.83932 137.37109,270.67133 137.37109,271.58334C137.37109,272.50067 137.37109,273.24466 137.37109,274.27933C137.37109,275.25 137.61537,275.97403 138.28842,276.534C138.89859,277.04166 139.67117,277.14212 140.48576,277.81799C141.06334,278.29721 141.57919,279.06723 142.32742,279.60266C143.04453,280.11581 143.89172,280.23846 144.60443,280.24866C145.69899,280.26431 146.57109,280.25 147.47127,280.25C148.25642,280.25 149.19643,280.25 149.8871,280.25C150.96043,280.25 151.87109,280.24991 152.78177,280.25C153.69226,280.25009 154.8029,279.95331 155.29909,280.686C155.78294,281.40048 156.01312,282.12183 156.31393,282.95984C156.5874,283.72168 156.25266,284.80121 156.72826,285.54999C157.23781,286.35223 157.98869,286.71567 158.24959,287.57132C158.50055,288.39441 158.25394,289.37167 158.37143,290.35001C158.45732,291.06528 159.3278,291.5545 159.8031,292.13535C160.47618,292.95789 160.36975,293.76599 160.37109,294.83932C160.37222,295.75 160.33611,296.68033 160.53777,297.58334C160.68973,298.26385 160.97218,298.9924 161.24976,300.10684C161.4422,300.87946 162.09505,301.49429 162.65509,302.16733C163.1627,302.77734 163.3465,303.72012 164.07643,304.14017C164.72798,304.51511 165.3105,305.16934 165.89192,305.72916C166.55231,306.36499 167.71458,306.38477 168.37193,306.61166C169.09732,306.86206 170.02046,307.56464 170.32942,308.22916C170.74695,309.12723 171.66629,309.09412 172.31842,309.60266C172.94087,310.08807 173.69243,310.24939 174.54576,310.25C175.48576,310.25067 176.32304,310.49551 177.07109,310.89734C177.85104,311.31631 178.86241,311.1799 179.54576,311.28601C180.50641,311.43518 181.1384,312.10193 182.07109,312.24551C182.9962,312.38794 183.85509,312.25 184.71843,312.25C185.73509,312.25 186.57109,312.25 187.47127,312.25C188.25642,312.25 189.19643,312.25 190.20442,312.25C190.96043,312.25 191.87109,312.25 192.78177,312.25C193.69243,312.25 194.54576,312.25 195.48576,312.25C196.37109,312.25 197.3102,312.03476 197.37109,311.14999C197.43289,310.25214 197.41063,309.49176 197.36659,308.59732C197.32396,307.73129 197.05205,306.68518 196.16975,306.33533C195.52914,306.08133 194.54521,306.28336 193.53777,306.25C192.67418,306.22141 191.9454,305.58472 191.16975,305.33533C190.24716,305.03873 189.2742,305.47183 188.54042,304.966C187.84254,304.48489 187.56841,303.64316 187.26126,302.89816C186.92209,302.0755 186.06792,301.56244 185.41109,300.85001C184.86392,300.25653 184.09442,299.8306 183.37193,299.60718C182.35405,299.29242 181.5257,299.45715 180.61392,299.13568C179.80588,298.8508 179.26892,297.99051 178.39259,297.49283C177.71974,297.11072 176.92506,296.83932 176.37109,296.08334C175.80064,295.30487 175.2027,294.58725 174.55643,294.30066C173.70212,293.92181 173.46281,293.03546 172.94576,292.31134C172.47881,291.65741 172.37109,290.85001 172.37109,289.9455C172.37109,289.08334 172.37109,288.25 172.37109,287.27151C172.37109,286.45132 172.37109,285.54999 172.37109,284.61401C172.37109,283.76599 172.49561,282.89334 172.36659,282.00717C172.22295,281.02042 171.63058,280.45868 171.34576,279.61401C171.06248,278.7739 170.60883,277.93271 170.42827,277.00717C170.26378,276.16397 170.37109,275.25 170.03777,274.41666L169.37109,274.22916L168.54176,273.68066L168.3801,272.89816" id="svg_8" stroke-width="3" stroke="#000" fill="none"/>
  <path t="61925,62053,62053,62095,62107,62111,62115,62135,62135,62147,62154,62182,62198,62238,62238,62250,62250,62294,62339,62349,62349,62424,62424,62478,62478,62530,62530,62571,62571,62571,62579,62639,62639,62650,62666,62666,62707,62862,62862,62880,62880,62900,62938,63044,63078,63078,63115,63115,63146" d="M173.37109,246.25C174.07643,247.90266 174.84482,248.49968 175.20042,249.36467C175.58064,250.28957 175.27736,251.26299 175.42827,252.00717C175.61511,252.92856 176.13477,253.4789 176.85027,254.22917C177.41054,254.81667 177.371,255.75 177.37109,256.66068C177.37119,257.57132 177.23206,258.29694 177.59242,259.22852C177.89333,260.00635 178.36557,260.84998 178.37109,261.77084C178.3759,262.57132 178.28156,263.52118 178.81377,264.22852C179.37535,264.97488 180.28293,265.43918 180.36842,266.22067C180.48143,267.25366 180.37109,268.03534 180.37109,269.08334C180.37109,269.78833 180.37109,270.58835 180.37109,271.62466C180.37109,272.57132 180.37109,273.42465 180.37109,274.36465C180.37109,275.25 180.55286,276.08618 180.29909,276.88599C180.00163,277.82349 179.23763,278.19223 178.70442,279.25C178.33316,279.98651 178.09595,280.79791 177.53777,281.41666C176.95128,282.06677 176.49243,282.69284 176.34576,283.43533L176.0871,284.36465L175.65509,285.04868L175.26126,285.95001" id="svg_9" stroke-width="3" stroke="#000" fill="none"/>
  <path t="67231,67731,67749,67749,67761,67789,67833,67833,67841,67853,67853,67865,67865,67877,67877,67902,67902,67973,67973,67973,68041,68041,68071,68157,68157" d="M136.37109,236.25C136.37109,237.01167 136.36176,237.90271 136.37109,238.76601C136.38152,239.72934 136.90636,240.45633 137.24959,241.35017C137.53433,242.09169 137.06902,243.18829 137.53777,243.91667C138.01256,244.65443 139.05339,244.92699 139.50977,245.43533C140.18178,246.18388 140.34894,247.0302 140.73276,247.90717C141.07262,248.6837 141.65988,249.48047 142.20709,250.02867C142.74522,250.56778 143.76843,251.08067 144.4991,251.26466L145.29909,251.69667L145.37109,252.57133L145.37109,253.42467" id="svg_10" stroke-width="3" stroke="#000" fill="none"/>
  <path t="70578,70675,70707,70727,70766,70766,70773,70777,70785,70785,70805,70841,70841,70860,70876,70900,70936,70936,70977,71013,71041,71041,71075,71075,71099,71135,71143,71143,71196,71200,71218,71254,71313,71313,71343,71343,71359,71397,71444,71444,71444,71471,71542,71594,71594" d="M121.37109,239.25C122.28709,239.534 122.77937,240.13828 123.39193,240.77083C123.99939,241.3981 124.71046,241.76346 125.20176,242.73399C125.52458,243.3717 125.71971,244.3279 126.0871,245.04866C126.49982,245.85837 127.28603,246.40269 127.36976,247.13667C127.47493,248.05869 127.21891,249.13945 127.81776,249.67534C128.55179,250.3322 129.76942,249.95094 130.25676,250.60716C130.826,251.37367 130.53435,252.41803 130.79643,253.07533C131.19919,254.08543 131.36043,254.85812 131.79643,255.64999C132.2493,256.47247 132.37109,257.41666 132.37109,258.07535C132.37109,259.08334 132.37109,259.9455 132.37109,260.85001C132.37109,261.77084 132.37102,262.5715 132.37109,263.46066C132.37119,264.44968 132.16872,265.32141 132.72375,266.14017C133.19655,266.83762 133.69333,267.42551 134.22176,268.07535C134.79131,268.77576 135.29909,269.61401 135.37109,270.54999L135.37242,271.45132L135.45642,272.13535" id="svg_11" stroke-width="3" stroke="#000" fill="none"/>
  <path t="82034,82113,82113,82180,82180,82192,82192,82196,82251" d="M133.37109,69.25C134.07643,70.90717 134.77861,71.59885 135.1281,72.44984C135.43388,73.1944 135.37109,74.2285 135.37109,75.04867L135.45642,75.96467L136.17242,76.334" id="svg_13" stroke-width="3" stroke="#000" fill="none"/>
  <path t="83096,83279,83279,83341,83353,83397" d="M145.37109,70.25C145.37109,73.03934 145.37109,73.76466 145.37109,74.72916L145.37109,75.65L145.37109,76.5545" id="svg_14" stroke-width="3" stroke="#000" fill="none"/>
  <path t="91879,92030,92030,92068,92068,92096,92126,92146,92158,92158,92170,92206,92271,92306,92352,92352,92392,92430,92450,92502,92558,92558,93027,93027,93059,93071,93071,93101,93135,93168,93188,93239,93239,93275,93275,93295,93295,93315,93327,93327,93351,93351,93367,93406,93430,93430,93438,93466,93466,93478,93478,93478,93506,93530,93530,93552,93580,93580,93580,93592,93703,93716,93720,93768,93768,93776,93852,93877,93897,93897,93937,93945,93996,94024,94056,94080,94084,94217,94485,94503,94519,94543,94543,94551,94551,94583,94624,94624,94648,94648,94656,94662,94662,94662,94682,94682,94710,94710,94726,94855,94888,94888,94896,94919,94935,94955,94955,94963,94963,94983,95015,95015,95031,95072,95072,95092,95116,95124,95124,95140,95140,95152,95176,95215,95215,95285,95285,95322" d="M137.37109,77.25C136.37109,77.25 135.61392,77.25 134.71843,77.25C133.85509,77.25 132.89192,77.25 131.9711,77.25C131.06659,77.25 130.20442,77.25 129.37109,77.25C128.39276,77.25 127.45509,77.25 126.6666,77.25C125.73509,77.25 124.79901,76.97848 124.08092,77.36433C123.21661,77.82877 123.23141,78.99426 122.37109,79.25C121.55649,79.49216 121.28163,80.32092 120.72443,80.85C119.98034,81.55653 119.19498,81.88308 119.54176,82.31133C120.06538,82.95796 120.30261,83.92215 121.07559,84.241C121.90447,84.5829 122.74059,84.70012 123.28843,85.44867C123.7959,86.14206 124.55807,86.19467 125.48709,86.25134C126.25824,86.29837 127.29688,86.57262 127.80176,87.13667C128.5108,87.92879 128.67924,88.97935 129.39192,89.22916C130.32413,89.55594 130.89876,90.01128 131.87109,90.22916C132.75996,90.42834 133.69243,90.2496 134.37109,90.25C135.48576,90.25067 136.33205,90.48931 137.04309,90.82467C137.87714,91.21804 138.62132,91.22693 139.36577,91.2455C140.55643,91.2752 141.43333,91.53029 142.07109,91.89733C142.85271,92.34716 143.69507,92.68946 144.37109,93.25C144.88914,93.67955 145.8815,94.16699 146.6711,94.60267C147.50943,95.06524 148.25642,95.24933 149.19643,95.25C149.8871,95.25049 150.96043,95.25 151.87109,95.25C152.6756,95.25 153.71658,95.08485 154.50977,95.286C155.37218,95.50471 155.79716,96.32758 156.39642,96.82467C157.01137,97.33477 158.0071,97.25 158.85509,97.25C159.71843,97.25 160.75591,97.43391 161.56976,97.24866C162.37405,97.06559 162.48776,95.90682 162.14977,95.14983C161.83052,94.43484 161.66957,93.51553 161.28709,92.81934C160.84564,92.0158 159.66751,91.966 159.02376,91.48833C158.17819,90.86092 158.01468,90.14963 157.1711,89.418C156.45786,88.79942 156.05357,88.27966 155.40042,87.818C154.47638,87.16489 153.5977,87.34153 152.70442,87.08334C151.87923,86.84483 151.05301,86.3337 150.38576,85.82467C149.78,85.36255 148.96486,85.56528 148.01776,85.23933C147.25096,84.97543 146.70407,84.2445 146.06659,83.54467C145.56616,82.99531 144.87759,82.4541 144.02376,82.20184C143.11667,81.93383 142.3837,81.335 141.57109,81.25134C140.61896,81.15331 139.71841,81.25543 138.85509,81.25C138.00705,81.24467 137.15109,80.7523 136.37109,80.41666C135.65981,80.1106 134.71838,80.25934 133.85509,80.25C132.89175,80.23958 132.16478,79.71472 131.27094,79.3715C130.5294,79.08676 129.54576,79.25 128.85509,79.25L127.78176,79.178" id="svg_16" stroke-width="3" stroke="#000" fill="none"/>
  <path t="96251,96447,96463,96463,96479,96516,96541,96586,96586" d="M148.37109,71.25C147.40709,73.07533 147.38895,74.08352 147.37109,74.9455C147.35309,75.81456 146.65509,76.334 146.31842,77.01167L146.01843,77.90717L145.72375,78.6545" id="svg_17" stroke-width="3" stroke="#000" fill="none"/>
  <path t="99234,99578,99602,99610,99630,99650,99650,99654,99654,99666,99666,99698,99711,99719,99719,99772,99772,99817" d="M131.37109,92.25C132.35027,93.27084 132.03831,94.38538 132.59242,95.12867C133.07285,95.7731 133.36774,96.45267 133.37109,97.22066C133.3756,98.25086 133.14629,99.14908 133.81377,99.88567C134.34888,100.47617 135.33499,100.68377 135.37109,101.5545C135.41322,102.57047 135.39192,103.25 135.59259,104.2285L136.07559,104.9455L136.6666,105.55" id="svg_18" stroke-width="3" stroke="#000" fill="none"/>
  <path t="102670,102905,102905,102923,102931,102959,102959,102975,103184,103234,103250,103250,103254,103280,103324,103372,103372,103372,103600,103629,103637,103665,103682,103730,103730,103738" d="M150.37109,97.25C148.12827,100.43567 147.64758,101.13432 146.87109,101.72916C146.13654,102.29189 145.63622,102.89312 145.26126,103.54467C144.84122,104.2746 143.87813,104.59573 143.1496,105.12867C142.47966,105.61876 141.56831,105.71861 140.8071,106.27534C140.13914,106.76385 139.41345,107.03647 138.53777,107.58334C137.90916,107.9759 137.63123,109.43493 136.72826,109.12667C135.97168,108.86839 135.81932,107.64005 135.42827,106.89284C135.03656,106.14437 135.37109,105.14983 135.37109,104.36467L135.37109,103.42467" id="svg_19" stroke-width="3" stroke="#000" fill="none"/>
  <path t="106235,106533,106561,106623,106623,106647,106689,106709,106729,106729,106749,106917,106976,106976,107021,107021,107042,107055,107095,107150,107209,107209,107221,107221,107253,107279,107279,107329,107355,107355,107367,107383,107407,107407,107431,107431,107431,107548,107662,107743,107743,107772,107772,107791,107791" d="M117.37109,75.25C117.37109,74.36333 117.40681,73.42403 117.37109,72.41666C117.34249,71.61015 116.7118,71.13396 116.28709,70.44867C115.78783,69.64307 114.88982,69.29714 114.02376,69.2545C113.12933,69.21046 112.1711,69.25 111.27093,69.25C110.48576,69.25 109.52695,69.15868 108.85509,69.33533C107.84093,69.602 107.03019,70.1386 106.39643,70.67533C105.78038,71.19707 104.96358,71.336 104.23243,71.89667C103.50621,72.45355 103.38176,73.42448 103.37109,74.36467C103.36105,75.24995 103.37109,76.05 103.37109,76.886C103.37109,77.90266 103.3662,78.59735 103.37109,79.614C103.3756,80.55003 103.82299,81.33799 104.39193,81.77084C105.21796,82.39927 105.63277,83.15149 106.16976,83.68066C106.86124,84.36206 107.91525,84.19395 108.69243,84.47166C109.39899,84.72415 110.20443,85.41666 110.73509,86.06467L111.37109,86.91666L112.01393,87.35533" id="svg_20" stroke-width="3" stroke="#000" fill="none"/>
  <path t="110440,110792,110792,110806,110806,110806,110835,110835,110839,110839,110839,110839,110839,110847,110847,110855,110863,110863,110871,110871,110888,110888,110888,110898,110898,110910,110914,110914,110914,110918,110926,110930,110938,110948,110948,110952,110971,110979,110993,110993,110993,111001,111009,111017,111025,111055,111055,111071,111071,111109,111109,111123,111123,111139,111184,111245,111245,111265,111265,111281,111289,111301,111301,111305,111305,111305,111317,111317,111317,111321,111321,111333,111337,111337,111349,111349,111357,111357,111365,111373,111373,111373,111381,111389,111397,111397,111413,111413,111421,111421,111433,111449,111449,111453,111453,111477,111477,111501,111501,111519,111527,111535,111535,111551,111551,111567,111567,111583,111583,111583,111595,111611,111611,111619,111619,111619,111639,111651,111655,111655,111671,111683,111683,111699,111699,111715,111715,111727,111751,111775,111775,111826,111826,111838,111874,111882,111898,111898,111918,111918,111934,111952,111952,111952,111970,111970,111986,111986,112003,112003,112011,112011,112019,112027,112035,112035,112050,112050,112058,112074,112082,112082,112082,112090,112098,112098,112106,112106,112106,112114,112114,112122,112122,112130,112130,112138,112138,112154,112154,112170,112174,112178,112178,112190,112207,112207,112236,112244,112252,112252,112264,112268,112268,112276,112284,112284,112296,112304,112312,112320,112320,112332,112332,112340,112348,112356,112356,112372,112388,112388,112400,112400,112408,112408,112416,112436,112468,112468,112490,112490,112515,112535,112551,112551,112559,112559,112567,112567,112575,112575,112585,112585,112592,112592,112592,112600,112600,112600,112608,112608,112608,112626,112626,112626,112634,112634,112634,112642,112646,112650,112658,112658,112666,112674,112683,112683,112699,112699,112699,112711,112711,112731,112731,112735,112735,112767,112804,112804,112804,112816,112824,112848,112848,112872,112888,112888,112900,112916,112932,112932,113031,113075,113075,113087,113091,113091,113107,113115,113139,113139,113147,113167,113167,113183,113187,113195,113195,113207,113211,113219,113231,113379,113403,113407,113419,113419,113431,113459" d="M5.37109,360.25C5.66043,359.33533 6.42843,359.25067 7.42309,359.25C8.04709,359.24957 9.01309,359.25 10.10726,359.25C10.89193,359.25 12.03776,359.25 12.70709,359.25C13.47243,359.25 14.26976,359.25 15.03509,359.25C16.22976,359.25 17.16576,359.25 18.0071,359.25C18.85643,359.25 19.77559,359.25 20.77243,359.25C21.60709,359.25 22.53776,359.25 23.31926,359.25C24.10976,359.25 25.22859,359.25 26.05776,359.25C26.87109,359.25 27.7291,359.25 28.6951,359.25C29.31909,359.25 30.49959,359.25 31.37109,359.25C32.17109,359.25 33.12826,359.25 34.02376,359.25C34.8871,359.25 35.85026,359.25122 36.67109,359.25C37.57243,359.24866 38.54727,358.92877 39.02376,358.54468C39.73303,357.97296 40.60824,357.30728 41.4711,357.25C42.36912,357.19037 43.007,356.8728 43.70443,356.41666C44.31342,356.01837 45.57507,356.04025 46.16043,355.82468C47.21227,355.43732 47.99638,355.25534 48.85509,355.25C49.71841,355.24463 50.62088,355.36377 51.57109,355.24866C52.49103,355.13721 53.09904,354.49191 54.02376,354.30716C54.70692,354.17065 55.76487,354.47537 56.67109,354.241C57.55236,354.01306 57.7994,353.08542 58.70443,352.58334C59.32623,352.2384 60.15627,352.26068 61.20443,352.25C62.13504,352.24054 62.96976,352.25 63.96659,352.25C64.71393,352.25 65.73509,352.25 66.57376,352.25C67.34176,352.25 68.37643,352.25 69.12043,352.25C70.2281,352.25 71.0621,352.25 71.91276,352.25C72.91376,352.25 73.62176,352.25 74.36576,352.25C75.55676,352.25 76.47109,352.25 77.37109,352.25C78.12826,352.25 79.02826,352.25 79.7756,352.25C80.76976,352.25 81.71393,352.25 82.61843,352.25C83.53776,352.25 84.37109,352.25 85.34976,352.25C86.12376,352.25 87.02826,352.25 87.7756,352.25C88.76976,352.25 89.71393,352.25 90.61393,352.25C91.5711,352.25 92.47126,352.25 93.25643,352.25C94.20709,352.25 94.97243,352.25 95.97559,352.25C96.60709,352.25 97.79226,352.25 98.58576,352.25C99.36126,352.25 100.40043,352.25 101.37109,352.25C102.04309,352.25 103.13909,352.25 103.87109,352.25C104.6031,352.25 105.6991,352.25 106.6711,352.25C107.57243,352.25 108.25643,352.25 109.19643,352.25C110.20443,352.25 110.99643,352.25 111.85643,352.25C112.7756,352.25 113.76976,352.25 114.5351,352.25C115.48576,352.25 116.47109,352.25 117.37109,352.25C118.12826,352.25 119.02376,352.25 119.88709,352.25C120.85026,352.25 121.7711,352.25 122.57243,352.25C123.53776,352.25 124.37109,352.25 125.34959,352.25C126.16976,352.25 127.06696,352.27032 127.91376,352.69266C128.64502,353.05737 129.33362,353.61038 130.22809,354.00717C130.92851,354.31787 131.76802,354.72568 132.34177,355.05133C133.33897,355.61731 134.10632,355.86771 135.03777,356.08334C135.93918,356.29202 136.77109,356.25 137.6756,356.25C138.69243,356.25 139.37109,356.25 140.34959,356.25C141.16975,356.25 142.07109,356.25 143.04309,356.25C143.91376,356.25 144.62177,356.25 145.60309,356.25C146.55676,356.25 147.47998,356.1868 148.34177,356.33533C149.1528,356.47513 149.88503,356.77728 150.68843,356.966C151.67841,357.19855 152.56038,357.24466 153.57092,357.25C154.35025,357.25412 155.34976,357.25 156.12376,357.25C157.02826,357.25 157.97243,357.25 158.9711,357.25C159.77109,357.25 160.76976,357.25 161.5351,357.25C162.48709,357.25 163.2551,357.25 164.19643,357.25C165.20442,357.25 165.96043,357.25 166.87109,357.25C167.78177,357.25 168.69243,357.25 169.54576,357.25C170.48576,357.25 171.37109,357.25 172.1711,357.25C173.12827,357.25 174.02376,357.25 174.8871,357.25C175.85027,357.25 176.6711,357.25 177.57243,357.25C178.53777,357.25 179.37109,357.25 180.34959,357.25C181.06659,357.25 181.9711,357.25 182.89192,357.25C183.85509,357.25 184.54576,357.25 185.61392,357.25C186.47144,357.25 187.34177,357.25 188.1391,357.25C189.12042,357.25 190.03777,357.25 190.94977,357.25C191.77109,357.25 192.6756,357.25 193.69243,357.25C194.37109,357.25 195.34959,357.25 196.16975,357.25C197.07109,357.25 198.0071,357.25 198.85643,357.25C199.77559,357.25 200.76976,357.25 201.5351,357.25C202.48709,357.25 203.2551,357.25 204.20709,357.25C204.97243,357.25 205.9756,357.25 206.82826,357.25C207.79243,357.25 208.59644,357.25 209.41843,357.25C210.44977,357.25 211.37109,357.25 212.0551,357.25C213.05643,357.25 213.89192,357.25 214.77243,357.25C215.6711,357.25 216.57109,357.25 217.4711,357.25C218.37109,357.25 219.2621,357.25 220.09909,357.25C221.22809,357.25 221.94977,357.25 222.89192,357.25C223.85509,357.25 224.54576,357.25 225.61392,357.25C226.4711,357.25 227.37109,357.25 228.18542,357.25C229.14043,357.25 229.89192,357.25 230.68843,357.25C231.68576,357.25 232.56042,357.25 233.57092,357.25C234.35027,357.25 235.34959,357.25 236.16975,357.25C237.04309,357.25 238.1391,357.25 238.87109,357.25C239.60309,357.25 240.6991,357.25 241.57109,357.25C242.47127,357.25 243.25642,357.25 244.19643,357.25C245.20442,357.25 245.96043,357.25 246.87109,357.25C247.78177,357.25 248.69243,357.25 249.54576,357.25C250.48576,357.25 251.37109,357.25 252.1711,357.25C253.12827,357.25 254.12753,356.99185 254.80176,357.42065C255.51801,357.87616 255.6926,359.01282 256.4711,359.47134C257.10516,359.84479 257.90927,360.19672 258.8551,360.534C259.56091,360.78571 260.48367,361.20605 261.2551,361.24866C262.20566,361.30115 262.97244,361.25 263.96658,361.25C264.71393,361.25 265.73511,361.25 266.67108,361.25C267.57242,361.25 268.53775,361.25 269.19644,361.25C270.20444,361.25 271.06659,361.25 271.9711,361.25L272.89194,361.25" id="svg_21" stroke-width="3" stroke="#000" fill="none"/>
  <path t="115571,115891,115965,115965,116113,116147,116147,116179,116179,116199,116211,116227,116227,116255,116255,116312,116397,116397,116670,116670,116697,116705,116725,116725,116725,116737,116737,116843,116843,116888,116935,116979,116979,117283,117302,117306,117318,117322,117322,117486,117486,117859,117903,117907,117907,117915,117915,117925,117933,117933,117933,118095,118095,118193,118216,118228,118228,118244,118244,118252,118252,118256,118256,118268,118268,118268,118276,118284,118388,118543,118543,118559,118559,118583,118587,118587,118606,118606,118626,118814,118814,118831,118831,118883,118883,118907,118907,118935,118935,118947,118975,118975,119105,119105,119123,119123,119139,119151,119151,119175,119175" d="M1.37109,329.25C1.89193,326.77084 2.64725,326.10876 3.08576,325.45001C3.55926,324.73871 4.22236,324.30338 5.13109,324.26068C6.03682,324.21811 7.0762,324.09525 7.76043,324.686C8.46338,325.29294 8.66705,326.30661 9.23243,326.63934C10.15338,327.18134 11.10139,326.81039 11.93509,327.32199C12.57008,327.71164 12.55177,328.85141 13.43359,329.13568C14.33071,329.42487 15.53361,328.94138 16.20443,329.41666C16.9974,329.97849 17.23739,330.66058 17.97376,331.04999C18.95471,331.56873 19.69572,331.75568 20.20176,332.73267C20.58639,333.47525 20.97192,334.59332 21.76043,334.22867C22.56481,333.85669 22.23346,332.59598 22.81776,331.89667C23.37261,331.23264 24.45794,331.40128 25.20443,330.91666C25.83865,330.50491 26.14374,329.6337 26.67109,328.659C27.05254,327.95398 27.79535,327.32275 28.70443,327.08334C29.37871,326.90576 30.09606,326.56564 31.22809,326.37167C32.05224,326.23047 32.7906,326.68747 33.53776,327.41666C34.02966,327.8967 34.70901,328.60687 35.34959,329.22833C35.95171,329.81247 36.77056,330.23199 37.67559,330.25C38.69223,330.27023 39.37109,330.25 40.34976,330.25C41.2551,330.25 42.03802,330.17764 42.97243,330.33533C43.78365,330.4722 44.62117,330.85452 45.20443,331.58334C45.69373,332.19473 45.92671,333.29373 46.56976,333.99533C47.17589,334.65665 47.73203,335.20685 48.69243,335.25015C49.37072,335.28073 50.40178,335.40186 51.06659,335.9545C51.8279,336.58734 52.20443,337.41666 52.37109,338.25C52.53776,339.08334 52.77658,339.95462 53.3671,340.63934C53.90789,341.26639 54.96319,340.96558 55.87109,341.41666C56.58738,341.77255 57.40997,342.09891 58.12826,342.36432C58.93196,342.66129 59.45644,343.54044 60.34959,344.00699C61.0181,344.3562 62.04569,344.24823 62.67559,344.95984C63.19626,345.54803 63.64593,346.30197 64.37109,346.70834C65.30006,347.22891 66.02141,347.44547 66.39193,348.25C66.75457,349.03741 67.59243,349.26468 68.57093,349.47134L69.35026,349.75" id="svg_22" stroke-width="3" stroke="#000" fill="none"/>
  <path t="120409,120550,120550,120582,120594,120610,120618,120618,120626,120626,120638,120638,120654,120654,120670" d="M-2.62891,360.25C-0.80357,359.82468 -0.13778,359.41479 0.85026,359.27084C1.76171,359.13806 2.67559,359.25 3.69259,359.25C4.39193,359.25 5.37109,359.25 6.16043,359.25C7.20443,359.25 7.99643,359.25 8.85509,359.25L9.71843,359.25L10.7351,359.25" id="svg_23" stroke-width="3" stroke="#000" fill="none"/>
  <path t="122203,122447,122464,122476,122476,122488,122488,122601,122761,122796,122812,123132,123132,123147,123147,123163,123163,123195,123195,123414,123414,123430,123430,123442,123446,123458,123470,123671,123671,123834,123834,123974,124117,124143,124147,124147,124159,124167,124183,124183,124191,124191,124361,124361,124424,124482" d="M140.37109,354.25C140.37109,350.79166 140.37109,349.9455 140.37109,349.08334C140.37109,348.25 140.33302,347.27063 140.37109,346.45132C140.4138,345.53238 141.21362,345.46814 142.07109,345.19284C142.9447,344.91238 143.15228,343.90179 143.43243,343.07535C143.71806,342.23276 144.70132,341.81543 145.20177,341.04733C145.64301,340.37012 145.6279,339.4722 145.89192,338.75C146.32497,337.56546 146.94089,336.73291 147.28709,337.18866C147.79471,337.85687 147.5041,338.9317 147.87109,339.70834C148.2774,340.56821 148.37109,341.45132 148.37109,342.41666C148.37109,343.25 148.37109,344.22852 148.37109,344.9455C148.37109,345.85001 148.31384,346.82861 148.81393,347.57117C149.30316,348.29758 149.97443,348.55441 150.82942,349.22916C151.51485,349.77008 151.90207,350.53345 152.78009,350.89282C153.54384,351.20544 154.5351,351.27533 155.34959,351.47134L156.06659,351.89734L156.93509,352.31134L157.3351,353.11133" id="svg_24" stroke-width="3" stroke="#000" fill="none"/>
  <path t="130570,130667,130673,130685,130685,130701,130721,130721,130721,130721,130733,130733,130733,130749,130765,130769,130773,130773,130785,130785,130801,130821,130821,130849,130849,130869,130901,130917,130988,131014,131014,131018,131018,131047,131067,131095,131103,131103,131115,131115,131139,131167,131192,131192,131212,131212,131236,131236,131260,131286,131290" d="M166.37109,186.25C165.48442,186.25 164.54576,186.25 163.53777,186.25C162.78177,186.25 161.85025,186.22421 161.06659,186.60266C160.17772,187.03192 159.48431,187.12776 158.76976,187.50467C157.88879,187.96935 157.36491,188.74141 156.94176,189.48334C156.41962,190.39882 155.99802,191.05533 155.20442,191.75C154.64763,192.23738 154.28259,193.05629 153.53777,193.75C152.97061,194.27823 152.4351,194.8031 152.01393,195.55901C151.62605,196.25516 151.06424,197.24666 150.8071,197.96333C150.478,198.88055 150.37109,199.686 150.37109,200.64999C150.37109,201.45134 150.54138,202.4437 150.32942,203.22917C150.10138,204.0742 148.80313,204.05566 148.41277,204.77083C147.99107,205.54338 148.37109,206.5545 148.37109,207.41667C148.37109,208.25 148.37109,209.2285 148.37109,210.04866C148.37109,210.95 148.37109,211.886 148.37109,212.73534C148.37109,213.6545 148.37109,214.64867 148.37109,215.414C148.37109,216.366 148.37109,217.134 148.37109,218.07533L148.37109,219.08333L148.37109,219.83934" id="svg_25" stroke-width="3" stroke="#000" fill="none"/>
 </g>
</svg>