<svg width="500" height="327.8688524590164" xmlns="http://www.w3.org/2000/svg" xmlns:svg="http://www.w3.org/2000/svg" xmlns:xlink="http://www.w3.org/1999/xlink">
 <!-- Created with SVG-edit - http://svg-edit.googlecode.com/ -->
 <g display="inline" class="layer">
  <title>Layer 1</title>
  <path t="0,116,116,125,131,144,144,150,159,159,166,166,175,175,179,180,180,190,194,195,203,210,210,226,228,252,259,268,275,291,299,316,325,341,349,354,370,392,403,410,426,435,443,451,451,458,458,467,467,475,484,491,491,491,500,500,500,508,516,516,525,526,532,542,549,549,566,576,580,587,587,597,604,611,620,634,643,651,659,659,668,675,691,692,708,716,716,726,742,742,754,754,763,772,772,781,791,802,811,820,827,827,836,836,843,843,851,858,858,858,867,875,885,900,909,926,933,949,955,965,978,978,997,1005,1011,1020,1026,1035,1043,1051,1051,1068,1082,1123,1164,1218,1228,1282,1299,1316,1333,1350,1356,1371,1387,1403,1411,1442" d="M1.5,129.21776C2.5,129.21776 3.3,129.21776 4.2,129.21776C5.136,129.21776 5.984,129.21776 6.84733,129.21776C7.74733,129.21776 8.66667,129.21776 9.52083,129.21776C10.5,129.21776 11.28933,129.21776 12.33333,129.21776C13.16133,129.21776 14.04267,129.21776 14.75067,129.21776C15.732,129.21776 16.68567,129.21776 17.60017,129.21776C18.38533,129.21776 19.32533,129.21776 20.33333,129.21776C21.08933,129.21776 22.0661,129.32434 22.7955,128.8651C23.6182,128.34711 24.30133,128.21776 25.2,128.21776C26.14283,128.21776 27.02083,128.21776 27.88933,128.21776C28.85717,128.21776 29.69867,128.21776 30.66667,128.21776C31.5,128.21776 32.416,128.21776 33.2045,128.21776C34.14283,128.21776 35.02083,128.21776 35.88933,128.21776C36.85717,128.21776 37.7,128.21776 38.6,128.21776C39.5,128.21776 40.31433,128.21776 41.268,128.21776C42,128.21776 43.16667,128.21776 43.95833,128.21776C44.8,128.21776 45.70136,128.22533 46.66667,128.21776C47.34673,128.21242 48.19399,128.16614 49.18267,127.93376C49.98605,127.74493 50.7131,127.403 51.83867,127.25376C52.66026,127.14482 53.5,127.21776 54.4785,127.21776C55.29867,127.21776 56.2,127.21776 57.136,127.21776C57.98267,127.21776 58.79016,127.21776 59.85717,127.21776C60.7,127.21776 61.6,127.21776 62.5,127.21776C63.3,127.21776 64.2,127.21776 65.1,127.21776C66,127.21776 66.88934,127.21776 67.85717,127.21776C68.7,127.21776 69.6,127.21776 70.5,127.21776C71.3,127.21776 72.2,127.21776 73.14283,127.21776C74.068,127.21776 74.8636,127.02435 75.7215,127.43909C76.61303,127.8701 77.19999,128.2155 78.14283,128.21776C79.068,128.21997 79.79467,128.21776 80.83334,128.21776C81.68533,128.21776 82.61467,128.21776 83.5,128.21776C84.3,128.21776 85.2,128.21776 86.14283,128.21776C87.02084,128.21776 87.9,128.21776 88.8045,128.21776C89.82133,128.21776 90.5,128.21776 91.47867,128.21776C92.25267,128.21776 93.32533,128.21776 94.016,128.21776C95.02084,128.21776 96.04266,128.21776 96.75066,128.21776C97.49467,128.21776 98.52934,128.21776 99.5,128.21776C100.41467,128.21776 101.2045,128.21776 102.14283,128.21776C103.02084,128.21776 103.97916,128.21776 104.85717,128.21776C105.7,128.21776 106.6,128.21776 107.5,128.21776C108.3,128.21776 109.33334,128.21776 110.11066,128.21776C111,128.21776 111.9,128.21776 112.7955,128.21776C113.66933,128.21776 114.52084,128.21776 115.4785,128.21776C116.29867,128.21776 117.33334,128.21776 118.14733,128.21776C119.07467,128.21776 119.92533,128.21776 120.85717,128.21776C121.69867,128.21776 122.66666,128.21776 123.536,128.21776C124.416,128.21776 125.33334,128.21776 126.11066,128.21776C127,128.21776 127.9,128.21776 128.8,128.21776L129.7,128.21776L130.59984,128.21776L131.52533,128.21776" id="svg_1" stroke-width="3" stroke="#000" fill="none"/>
  <path t="3053,3069,3079,3079,3085,3085,3085,3094,3094,3094,3102,3102,3110,3111,3118,3118,3118,3118,3123,3124,3131,3132,3132,3158,3159,3160,3160,3160,3163,3163,3163,3171,3171,3179,3226,3226,3226,3227,3232,3232,3232,3232,3232,3232,3235,3235,3235,3246,3246,3252,3275,3275,3287,3296,3296,3302,3302,3311,3311,3311,3323,3323,3326,3327,3327,3327,3342,3342,3342,3350,3350,3350,3350,3350,3355,3355,3355,3355,3370,3370,3370,3380,3380,3382,3388,3395,3404,3404,3419,3428,3436,3445,3452,3452,3462,3462,3469,3478,3491,3491,3493,3532,3532,3540,3541,3541,3541,3547,3547,3555,3555,3563,3571,3602,3611,3643,3643,3666,3686,3711" d="M397.5,125.21776C398.38666,125.21776 399.34668,125.21776 400.18668,125.21776C401.18533,125.21776 402.02084,125.21776 402.60449,125.21776C403.79984,125.21776 404.68933,125.21776 405.54285,125.21776C406.57834,125.21776 407.25333,125.21776 408.33334,125.21776C409.04166,125.21776 410,125.21776 410.858,125.21776C411.5,125.21776 412.448,125.21776 413.63751,125.21776C414.30084,125.21776 415.26935,125.21776 416.02084,125.21776C416.81732,125.21776 418.04733,125.2178 418.72534,125.21776C419.92151,125.21767 420.73712,125.22585 421.31067,125.18176C422.50363,125.09003 423.39212,124.86937 423.95834,124.71776C425.16913,124.39355 425.95816,124.22818 426.80899,124.21776C427.83325,124.20522 428.53262,124.22215 429.125,124.19692C430.24484,124.14923 431.1673,124.05679 432.23334,123.93376C432.80203,123.86813 433.38019,123.79371 434.52667,123.64309C435.0751,123.57104 436.49777,123.36277 437.46149,123.27493C438.22879,123.20499 439.15268,123.21776 440.01599,123.21776C440.95834,123.21776 441.94284,123.21776 442.68533,123.21776C443.61465,123.21776 444.60016,123.21776 445.38535,123.21776C446.34668,123.21776 446.96167,123.21776 448.18399,123.21776C449,123.21776 449.54749,123.20035 450.81601,123.21909C451.50021,123.2292 452.67197,123.36375 453.45267,123.57493C454.00412,123.7241 454.81293,124.02695 455.82001,124.41643C456.56027,124.70272 457.43546,124.96812 458.58551,125.09626C459.03598,125.14645 460.01184,125.18826 461.03467,125.20709C461.54645,125.21651 463,125.21776 463.84268,125.21776C464.58133,125.21776 465.52933,125.21776 466.57849,125.21776C467.26401,125.21776 468.09866,125.21776 469.09549,125.21776C469.84283,125.21776 470.86401,125.21845 471.79999,125.21776C472.70001,125.21709 473.52524,124.88568 474.21466,124.50175C474.96143,124.08591 475.89999,124.21842 476.79999,124.21776C477.70001,124.21709 478.55106,123.90889 479.25717,123.57043C480.10754,123.16282 481.01599,123.21843 481.97916,123.21776C482.8045,123.21719 483.82132,123.21776 484.5,123.21776C485.47833,123.21776 486.42368,123.22314 487.01068,123.13242C488.20752,122.94745 489.06256,122.79179 489.52084,122.71776C490.44095,122.56914 491.66333,122.35446 492.51416,122.27493C493.49738,122.18302 494.25717,122.21776 495.14816,122.21776C496.16666,122.21776 496.75317,121.67268 497.60001,121.33926C498.44504,121.00655 499.29999,121.21776 500.20001,121.21776L501.064,121.21776L502,121.21776" id="svg_2" stroke-width="3" stroke="#000" fill="none"/>
  <path t="5228,5395,5403,5413,5419,5438,5453,5467,5484,5499,5524,5531,5540,5557,5572,5588,5604,5614,5669,5683,5724,5739,5787,5803,5838,5860,5867,5907,5915,5987,5999,6139,6164,6236,6267,6307,6348,6368,6383,6443,6491,6532,6573,6596,6621,6645,6667,6684,6701,6724,6748,6771,6789,6806,6836,6860,6876,6892,6907,6925,6940,6948,6956,6965,6989,7000,7011,7039,7044,7051,7067,7076,7084,7093,7100,7124,7125,7140,7156,7179,7212,7219,7291,7324,7364,7388,7388,7604,7653,7692,7732,7774,7785,7811,7859,7923,7940,7957,7990,8001,8044,8068,8109,8118" d="M137.5,107.21776C136.584,107.50175 136.09897,107.93205 135.2045,108.22226C134.45313,108.46604 133.97066,108.97433 133.5,109.50175C133.00102,110.06092 132.20782,109.88453 131.58533,110.50175C131.04633,111.0362 130.21568,110.88939 129.62151,111.43909C129.01204,112.00294 128.78084,112.40817 128.27867,113.09643C127.76762,113.79685 126.99228,114.00252 126.27866,114.43909C125.48589,114.9241 124.85525,115.19493 124.02084,115.71776C123.30047,116.16912 122.91386,116.76695 122.27866,117.21776C121.59545,117.70264 120.85267,117.86509 120.216,118.50175C119.55717,119.16059 119.35425,119.80849 118.85267,120.27493C118.19799,120.88372 118.5,121.93376 118.5,122.86509C118.5,123.71776 118.30492,124.7255 118.72134,125.43909C119.18981,126.24189 119.50297,127.03773 120.3785,127.21776C121.19884,127.38644 122.14638,127.09 122.85267,127.57043C123.59753,128.0771 124.416,128.21776 125.2045,128.21776C126.14283,128.21776 127.02084,128.21776 127.88934,128.21776C128.85266,128.21776 129.72133,128.21776 130.66667,128.21776C131.52083,128.21776 132.41467,128.21776 133.216,128.21776C134.14734,128.21776 135,128.21776 135.92534,128.21776C136.85266,128.21776 137.72133,128.21776 138.66667,128.21776C139.5,128.21776 140.41617,128.23384 141.216,128.21776C142.11122,128.19975 142.75229,127.53146 143.66667,127.21776C144.47484,126.94049 145.04628,126.45683 145.97917,126.23859C146.83432,126.03855 147.78111,126.35508 148.44733,125.86509C149.13155,125.36185 149.88933,125.21776 150.83333,125.21776C151.64934,125.21776 152.78394,125.76331 153.47917,125.19692C154.12566,124.67026 154.44777,124.11263 155.07466,123.64309C155.78435,123.11155 156.7892,123.31625 157.7215,123.21759C158.51318,123.1338 159.34587,122.4154 159.5,122.79243C159.8219,123.57983 159.5,124.57043 159.5,125.50175C159.5,126.38442 159.19994,126.85248 158.62151,127.43909C158.05583,128.01277 157.39645,128.15303 156.92534,128.82843C156.42728,129.54245 156.06596,130.28004 155.62151,131.09625C155.26335,131.75398 155.07466,132.60709 154.41467,133.30309L153.784,133.93376" id="svg_3" stroke-width="3" stroke="#000" fill="none"/>
  <path t="8785,8988,9011,9019,9027,9044,9076,9138,9165,9307,10182,10253,10309,10433,10445,10445,10454,10485,10572,10596,10605,10652,10716,10795,10804,10828,10852,10861,10893,10908,10933,10944,11012,11029,11044,11116,11133,11204,11213,11252,11276,11287,11302,11326,11340,11356,11365,11388,11421,11444,11468,11488,11510,11533,11557,11580,11588,11613,11636,11660,11678,11695,11704,11712,11748,11772,11796,11820,11861,11885,11917,12013,12116,12180,12316" d="M149.5,128.21776C147.936,128.79242 147.28317,129.60483 146.5,130.05109C145.72018,130.49544 145.26834,130.7812 144.66667,131.38443C144.05763,131.99504 143.92538,132.79247 143.216,133.50175C142.62138,134.0963 141.64508,134.17325 141.5,134.8651C141.31644,135.74039 141.72554,136.74947 141.44284,137.50792C141.14201,138.31499 140.77122,138.76357 140.4955,139.57042C140.23187,140.34183 139.50226,140.86508 139.5,141.71776C139.49756,142.6431 139.5,143.57492 139.5,144.41643C139.5,145.38443 139.59651,146.15402 140.07466,146.79242C140.60622,147.50211 140.23383,148.64851 140.72133,149.21793C141.24356,149.82793 141.8002,149.93274 142.584,150.30309C143.30347,150.64304 144.13016,151.38255 144.47917,152.19693C144.81573,152.98225 145.21608,153.22913 146.14734,153.21776C147.0002,153.20734 147.59593,152.65369 148.33333,152.21776C149.05069,151.79367 149.73381,151.36418 150.59984,151.21759C151.45059,151.07358 151.66667,150.22002 152.55716,150.21776C153.44286,150.2155 153.88707,149.7663 154.4955,149.1606C155.09929,148.55952 155.47141,147.8665 155.5,146.99626C155.52884,146.11839 155.5,145.21776 155.5,144.33926C155.5,143.50175 155.49509,142.5704 155.5,141.71776C155.50534,140.79237 156.23204,140.34189 156.4955,139.57042C156.79518,138.69284 156.5,137.71776 156.5,136.8651C156.5,135.93376 156.5,135.05109 156.5,134.18176C156.5,133.27043 156.5,132.38443 156.5,131.57042L156.5,130.6431L156.5,129.71776" id="svg_4" stroke-width="3" stroke="#000" fill="none"/>
  <path t="12878,13044,13057,13057,13074,13079,13088,13096,13104,13109,13124,13135,13143,13156,13165,13172,13189,13198,13230,13254,13277" d="M151.5,139.21776C152.936,138.78175 153.49216,137.98683 154.21466,137.5031C154.92155,137.02982 155.24704,136.4803 155.5,135.55109C155.70366,134.80298 155.93483,133.89072 156.55716,133.22226C157.13759,132.59882 157.66968,132.25873 158.14734,131.57042C158.6424,130.85704 158.83209,129.90289 159.44284,129.27492C160.00256,128.69942 160.88933,128.25375 161.5,127.93376L161.66667,127.21776L162.44284,126.86509" id="svg_5" stroke-width="3" stroke="#000" fill="none"/>
  <path t="14670,14805,14813,14826,14828,14828,14829,14842,14849,14849,14857,14864,14864,14874,14874,14876,14885,14892,14910,14926,14957,14990,15031,15068,15101,15108,15134,15158,15166" d="M149.5,129.21776C149.5,130.82843 149.5726,131.72147 149.48933,132.6391C149.40572,133.56055 149.15526,134.22113 148.85266,135.15526C148.5603,136.05775 148.11256,136.91275 147.85266,137.5696C147.50519,138.44775 147.33333,139.38443 147,140.21776C146.66667,141.05109 146.46912,141.92522 146.07466,142.61775C145.61052,143.43263 145.5,144.3176 145.5,145.25375C145.5,146.13243 145.5,147.05109 145.5,147.8651C145.5,148.79242 145.19786,149.69525 145.5045,150.57042C145.76863,151.32426 146.5,151.65376 146.5045,152.51326L146.92534,153.18176" id="svg_6" stroke-width="3" stroke="#000" fill="none"/>
  <path t="15839,15972,15997,16011,16028,16054,16085,16109,16127,16196,16285,16301,16325,16334,16334,16381,16416,16438,16461,16478,16533,16573,16596,16637,16653,16669,16693,16709,16717,16741,16750,16759,16783,16792,16817,16829,16837,16861,16893,16909,16941,16989,17010,17013,17021,17045,17054,17077,17085,17094,17112,17118,17127,17134,17143,17150,17160,17167,17167,17176,17193,17200,17208,17221,17233,17238,17245,17254,17269,17285,17309,17318,17333,17368,17414" d="M140.5,143.21776C139.5,144.19693 139.03714,144.58992 138.51067,145.25375C137.94713,145.96432 137.76042,146.6091 137.5,147.50175C137.25279,148.34911 137.5,149.27043 137.5,150.18176C137.5,151.05109 138.13705,151.63995 138.50017,152.43925C138.8748,153.2639 139.22073,153.92773 139.85266,154.57042C140.50491,155.23378 140.80057,155.87172 141.52533,156.25375C142.29686,156.66043 142.67747,157.68237 143.5,158.05109C144.31593,158.41685 145.02483,158.07246 145.55716,157.57042C146.17738,156.98549 147.19771,157.29912 147.92534,156.79242C148.64195,156.2934 149.42821,156.11929 150.11067,155.6431C150.82462,155.14493 151.56596,154.79042 152.37849,154.33926C153.06859,153.9561 153.65045,153.68742 154.216,153.21776C154.75983,152.76614 155.19193,151.95717 155.5,151.1606C155.8271,150.3148 156.26401,150.19185 156.55716,149.51326C156.91823,148.67746 157.42079,147.92062 157.5,146.99643C157.56677,146.21727 158.32173,145.91722 158.50017,145.11792C158.68843,144.27457 159.30917,143.79111 159.784,143.01909C160.28485,142.20476 160.959,141.67177 161.44733,140.92226C161.89937,140.22845 162.85664,140.35431 163.7,139.93376C164.36165,139.60384 165.22241,139.2231 165.536,138.60709C165.93527,137.82274 166.04285,136.83133 166.58533,136.21909C167.1678,135.56171 167.83815,135.25296 168.5,134.71776C169.1339,134.20517 169.62566,133.75017 170.14734,133.22226C170.6376,132.72615 171.2045,132.22226 172.14284,132.1606L172.5,131.38443L173,130.71776" id="svg_7" stroke-width="3" stroke="#000" fill="none"/>
  <path t="18726,18894,18912,18918,18928,18935,18957,18981,19013,19022,19245,19334,19347,19373,19390,19406,19437,19446,19470,19533,19559,19678,19686,19701,19720,19737,19745,19885,19925,19946,19982,19990,20005,20070,20229,20248,20248,20254,20264,20282,20288,20326,20374,20526,20677,20698,20698" d="M120.5,119.21776C121.5,119.21776 122.416,119.21776 123.2045,119.21776C124.1,119.21776 125.064,119.21984 125.92533,119.21776C126.85718,119.21551 127.56813,118.72944 128.33333,118.38442C129.08208,118.04682 129.70151,119.07643 129.5,119.86509C129.2805,120.72417 128.50008,121.27493 128.5,122.18176C128.49991,123.09626 127.64395,123.26772 127.5,124.13242C127.34914,125.03862 127.36611,125.87615 126.49983,126.09609C125.79071,126.27613 125.14683,125.24741 124.27866,125.21776C123.44137,125.18916 122.85267,124.57043 122.14733,123.86509C121.52533,123.24309 120.83698,122.68915 120.49866,121.93243C120.10845,121.05961 119.08324,120.27843 119.5,119.64309C119.69943,119.33905 120.50034,120.21742 121.1,120.81776C121.69901,121.41743 122.41626,122.20539 122.5,123.05109C122.58021,123.86113 123.07467,124.21776 124,124.21776C124.92533,124.21776 125.5,123.93376 125.33334,123.05109L124.784,122.50175" id="svg_8" stroke-width="3" stroke="#000" fill="none"/>
  <path t="22415,22534,22534,22543,22550,22550,22558,22559,22566,22566,22575,22582,22582,22582,22590,22599,22599,22599,22606,22617,22623,22633,22639,22649,22656,22678,22703,22711,22750,22758,22774,22784,22791,22806,22822,22833,22833,22839,22856,22866,22872,22872,22887,22903,22911,22912,22922,22934,22943,22958,22966,22986,22992,22999,23016,23023,23032,23048,23057,23073,23086,23126,23134,23150,23182,23215,23233,23238,23256,23266,23284,23294,23446,23467,23471,23484,23484,23484,23486,23494,23502,23511,23511,23518,23527,23534,23543,23550,23559,23559,23575,23583,23600,23608,23617,23624,23640,23662,23742,23751,23775,23791,23808,23823,23840" d="M161.5,75.21776C159.67467,74.78176 159.00945,74.37743 158.12534,73.82842C157.35399,73.34943 156.49911,73.26405 155.52133,73.21759C154.74611,73.18076 153.7926,72.95279 153.20984,72.51326C152.44502,71.93642 151.83948,71.30079 150.97917,71.23859C150.26825,71.1872 149.15067,71.21776 148.16667,71.21776C147.49466,71.21776 146.50534,71.21776 145.64317,71.21776C144.62134,71.21776 143.7955,71.21776 142.89999,71.21776C142,71.21776 141.10001,71.21776 140.2045,71.21776C139.2785,71.21776 138.40016,71.21767 137.52083,71.21776C136.62134,71.21784 136.03639,71.77483 135.27867,72.21793C134.582,72.62532 133.7744,73.03172 133.5,73.64309C133.14784,74.42768 133.11348,75.35588 132.784,76.01776C132.35738,76.87479 131.97813,77.59977 131.584,78.41776C131.17154,79.27379 130.784,79.93243 130.5,80.71776C130.216,81.50309 129.62271,82.20992 129.50133,83.01776C129.36482,83.92632 128.56091,84.43247 128.5,85.27042C128.43513,86.16273 128.68637,87.05083 128.44284,87.91776C128.22893,88.67921 127.54271,89.41361 127.5,90.38442C127.46337,91.21695 127.5,92.13242 127.5,92.92226C127.5,93.81776 127.37555,94.67799 126.85267,95.21326C126.41052,95.66588 126.5,96.69692 126.5,97.57043C126.5,98.50175 126.5,99.38442 126.5,100.27493C126.5,101.10442 126.5,102.03242 126.5,102.97492C126.5,103.73859 126.18853,104.77409 126.5,105.60709C126.6516,106.01254 127.3725,105.32977 128.164,104.77493C128.7711,104.34934 129.59975,104.0052 130.1355,103.23943C130.69235,102.4435 131.02083,101.69692 131.7,101.01776C132.2,100.51776 133.0974,99.92072 133.41467,99.01776C133.71431,98.16499 133.89743,97.54808 134.416,96.93243C134.97641,96.26709 135.33151,95.57445 136.2,95.16509C137.0127,94.78204 137.69104,94.21623 138.14734,93.51326C138.65855,92.72568 139.1311,92.15538 139.584,91.41643C140.05789,90.64323 140.88693,90.34846 141.464,89.79243C141.96358,89.31106 142.784,89.21776 143.66667,89.21776L144.59984,89.21793L145.37866,89.43909" id="svg_9" stroke-width="3" stroke="#000" fill="none"/>
  <path t="24456,24526,24566,24574,24585,24601,24608,24614,24630,24641,24650,24662,24670,24686,24695,24702,24702,24711,24718,24727,24734,24751,24758,24759,24775,24784,24801,24809,24824,24834,24839,24854,24863,24870,24886,24895,24902,24902,24912,24918,24928,24935,24967,24984,24990,25008,25018,25025,25034,25054,25070,25079,25126,25174,25214,25246,25262,25270,25286,25295,25303,25318,25327,25335,25354,25360,25369,25388,25393,25535,25542,25553,25571,25571,25576,25576,25586,25586,25586,25586,25592,25592,25606,25606,25611,25617,25626,25711,25720,25743,25752,25760,25775,25776,25782,25838,25880,25911,25920,25937,25937,25944,25952,25961,25978,26071,26081,26130,26130,26130,26215,26224,26231,26239,26239,26247,26255,26264,26272,26281,26369,26415,26440,26458,26486,26496" d="M167.5,80.21776C168.14734,79.21776 169.18777,79.55528 169.97917,79.19692C170.66512,78.88631 171.0536,78.26522 171.8,77.86509C172.64363,77.41283 173.5424,77.39948 174.30133,77.13242C175.1561,76.83163 175.85716,76.21776 176.69867,76.21776C177.57201,76.21776 178.36133,76.21776 179.33333,76.21776C180.1955,76.21776 181.10001,76.21776 182,76.21776C182.89999,76.21776 183.80255,76.10392 184.7215,76.21793C185.62036,76.32944 186.17833,77.0737 187.02083,77.21776C187.87691,77.36414 188.28532,77.84019 189,78.19692C189.76715,78.57985 190.89587,78.09425 191.464,78.64309C191.96745,79.12945 192.71594,79.48257 193.37849,80.09626C193.95142,80.62693 194.87601,81.00224 195.59984,81.43925C196.32332,81.87605 196.49034,83.01517 197.2045,83.21326C198.06831,83.45286 198.74854,83.91523 199.66667,84.21776C200.49232,84.48981 201.49278,83.61902 202.33333,84.21776C202.8912,84.61514 203.30133,85.21709 204.21466,85.21776C205.14734,85.21844 205.45055,85.97923 206.216,86.21642C207.03696,86.47082 207.92802,87.03795 207.5,87.86509C207.2188,88.4085 206.47005,87.81108 205.92534,87.22842C205.46225,86.73306 204.8248,86.29871 204.11067,85.79243C203.32819,85.23769 202.84207,84.42256 202,84.23859C201.12021,84.04639 200.19632,83.87394 199.55267,83.27042C198.97168,82.72565 198.18794,82.03456 197.27867,82.21793C196.48955,82.37706 196.39885,83.51915 196.5,84.38442C196.58592,85.11937 197.23026,85.8634 197.68533,86.46442C198.36462,87.36156 198.73985,88.16955 199,88.69692C199.37335,89.45377 200.14099,90.41943 200.67467,90.79642C201.59407,91.44592 202.1102,91.93038 202.52533,92.81776C202.9003,93.61929 203.54868,94.35648 204.41467,94.50043C204.49884,94.51442 203.84038,94.2672 203.11067,93.79243C202.3557,93.30122 201.5,93.21776 200.7,93.21776C199.78534,93.21776 198.79843,92.91853 198,93.21776C197.3788,93.45056 197.27988,94.58624 197.66667,95.38442C198.03271,96.13979 198.49129,96.8357 198.92534,97.61776C199.37987,98.43674 199.42319,99.32864 199.72116,100.09626C199.77045,100.22321 198.836,99.99643 198.224,99.79243C197.35201,99.50176 196.06917,98.86527 195.58533,99.50309C195.0302,100.23487 195.61781,101.4317 196.2045,101.86059C196.96396,102.41579 197.58734,102.92165 198.35066,103.19243C199.23592,103.50646 199.5,104.30176 199.5,105.20709C199.5,106.09626 198.7955,106.27493 198.02083,106.71776L197.27867,107.21776L196.416,107.21776" id="svg_10" stroke-width="3" stroke="#000" fill="none"/>
  <path t="29401,29535,29720,29720,29720,29729,29729,29738,29744,29744,29759,29792,29815,29991,30015,30048" d="M157.5,75.21776C156.784,75.93376 157.1673,76.43039 157.78667,76.65376C158.50291,76.91206 159.48706,77.48701 160.19099,77.86059C161.09152,78.33849 161.98341,78.50006 162.63867,78.79243C163.58643,79.21531 164.5045,79.22226 165.07466,79.79243L165.784,80.50175L166.37849,81.09626L166.5,81.86509" id="svg_11" stroke-width="3" stroke="#000" fill="none"/>
  <polyline timestamps="32434,32551" startTime="1502479867578" id="svg_12" points="147.5,105.21775817871094 145.85266666666666,105.21775817871094 " stroke-linecap="round" stroke-width="3" stroke="#000" fill="none"/>
  <path t="32659,32800,32813,32817,32825,32825,32840,32850,32864,32871,32895,32920,33103,33127,33144,33152,33160,33177,33200,33264,33279,33296,33321,33360,33408,33416,33432" d="M145.5,105.21776C147.11067,105.18176 147.81815,104.69981 148.60983,104.16509C149.30893,103.69291 150.06209,103.4754 150.85333,102.82842C151.56961,102.24274 152.0463,101.45688 152.97917,101.23859C153.82993,101.03952 154.78452,101.18754 155.66667,101.21776C156.50146,101.24636 156.5,102.21776 156.5,103.05109C156.5,103.93376 155.80882,104.48427 155.5,105.30309C155.17723,106.15893 154.62151,106.21776 153.784,106.21776C152.85266,106.21776 152,106.21776 151.07466,106.20709L150.5,105.71776L149.85266,105.22226" id="svg_13" stroke-width="3" stroke="#000" fill="none"/>
  <path t="34083,34431,34600,34616,34657,34752,34841,34896,34937,35049,35192,35272,35297,35455" d="M152.5,106.21776C151.85266,105.21776 150.96976,105.11566 151.584,105.21776C152.45,105.3617 152.66667,106.21776 153.55716,106.21776C154.464,106.21776 155.46623,106.68356 156.216,106.21776C156.7605,105.87949 156.14734,104.86509 155.50133,104.21909L154.66667,104.05109" id="svg_14" stroke-width="3" stroke="#000" fill="none"/>
  <path t="36250,36375,36385,36397,36397,36397,36397,36400,36400,36409,36409,36416,36432" d="M175.5,91.21776C177.11067,91.21776 178.0625,91.21776 179,91.21776C179.8625,91.21776 180.52083,91.21776 181.19917,91.21776C182.45683,91.21776 183.21733,91.21776 184.33333,91.21776L185.08934,91.21776L186,91.21776L186.88933,91.21776" id="svg_15" stroke-width="3" stroke="#000" fill="none"/>
  <path t="36801,36896,36905,36905,36915,36915,36915,36920,36920,36920,36933,36933,36938,36938,36948,36948,36955,36955,36955,36964,36964,36964,36982,36985" d="M177.5,95.21776C179.32533,95.21776 180.33333,95.21776 181.16133,95.21776C182.043,95.21776 182.772,95.21776 183.60899,95.21776C184.79967,95.21776 185.67867,95.21776 186.48567,95.21776C187.35716,95.21776 188.24817,95.21776 189.15717,95.21776C189.9045,95.21776 190.90134,95.21776 191.73599,95.21776C192.66667,95.21776 193.45267,95.21776 194.27467,95.21776C195.33333,95.21776 196.25333,95.21776 197.01334,95.21776L198.08934,95.21776L198.97917,95.21776" id="svg_16" stroke-width="3" stroke="#000" fill="none"/>
  <path t="37417,37553,37553,37565,37565,37568,37577,37585,37648,37656,37656,37666,37706,37720,37769,37800,37800,37832" d="M181.5,102.21776C183.07066,102.50175 183.69878,102.87791 184.69983,103.09626C185.46759,103.26373 186.73743,102.9669 187.37866,103.43909C188.07379,103.95097 188.29767,104.51707 188.7215,105.31759C189.06154,105.95986 190.14282,106.21551 191.02083,106.21776C191.88933,106.21999 192.784,106.21776 193.66667,106.38442L194.216,106.93376L195.02083,107.21776" id="svg_17" stroke-width="3" stroke="#000" fill="none"/>
  <path t="39162,39233,39241,39241,39251,39251,39257,39257,39268,39268,39274,39274,39274,39284,39291,39296,39307,39316,39321,39328,39338,39349,39352,39368,39377,39393,39617,39626,39635,39658,39674,39685,39704,39708,39717,39735,39738,39746,39753,39762,39770,39777,39793,39817,39826,39841,39851,39869,39875,39891,39901,39907,39917,39922,39944,39952,39969,39978,39984,40001,40009,40018,40026,40034,40034,40042,40051,40059,40068,40068,40075,40092,40101,40105,40105,40119,40123,40123,40123,40130,40153,40153,40163,40163,40163,40171,40171,40186,40186,40193,40201,40211,40218,40234,40242,40251,40258,40268,40275,40275,40284,40289,40289,40303,40309,40317,40322,40330,40336,40345,40345,40352,40362,40369,40378,40378,40384,40393,40409,40418,40426,40435,40442,40442,40452,40459,40468,40484,40492,40497,40504,40513,40529,40537,40537,40546,40561,40569,40577,40593,40609,40618,40639,40659,40669,40680,40697,40721,40730,40745,40752,40762,40769,40778,40800,40825,40858,40882,40906,40937,40985,40993,41018,41036,41041,41065,41076,41077,41086,41089,41113,41129,41136,41145,41169,41178,41192,41226,41237,41265,41276,41298,41313,41329,41353,41376,41393,41410,41426,41460,41470,41489,41506,41506,41514,41529,41536,41561,41570,41570,41593,41593,41603,41620,41627,41643,41652,41669,41676,41676,41689,41698,41704,41721,41730,41730,41737,41746,41753,41753,41785,41794,41795,41804,41823,41838,41843,41843,41849,41859,41870,41874,41882,41891,41892,41905,41914,41914,41936,41936,41946,41946,41953,41961,41961,41961,41971,41971,41978,41987,41987,41994,42004,42011,42021,42027,42037,42044,42053,42057,42065,42073,42082,42089,42090,42105,42121,42130,42130,42137,42154,42162,42177,42178,42188,42194,42205,42205,42211,42221,42227,42243,42254,42254,42260,42270,42273,42282,42289,42289,42298,42305,42314,42314,42322,42330,42330,42338,42338,42346,42346,42355,42362,42372,42378,42388,42395,42395,42405,42411,42422,42422,42428,42443,42454,42455,42458,42473,42482,42482,42489,42498,42507,42522,42538,42559,42562,42609,42657,42674,42729,42740,42745,42756,42762,42762,42762,42772,42772,42779,42789,42789,42795,42806,42812,42844,42845,42897,43017,43042,43042,43057,43057,43057,43065,43065,43065,43065,43066,43073,43082,43082,43090,43090,43099,43113,43123,43241,43257,43265,43265,43275,43275,43275,43281,43281,43281,43289,43289,43298,43298,43306,43306,43313,43323,43330,43346,43362,43396,43513,43525,43531,43531,43540,43540,43546,43546,43556,43563,43563,43563,43573,43590,43610,43618,43713,43725,43725,43729,43741,43747,43747,43757,43757,43762,43762,43774,43774,43779,43792,43792,43807,43812,43823,43833,43849,43857,43858,43873,43894,43921,43946,43958,43974,43980,43980,43995,44012,44023,44026,44041,44058,44074,44082,44097,44114,44124,44124,44130,44153,44164,44177,44194,44197,44217,44225,44239,44249,44257,44281,44290,44307,44314,44325,44330,44347,44358,44374,44386,44397,44408,44409,44412,44426,44434,44434,44442,44465,44474,44491,44508,44515,44524,44525,44530,44546,44557,44564,44575,44580,44602,44610,44665,44794,44825,44849,44865,44875,44875,44882,44891,44898,44898,44898,44908,44915,44925,44931,44942,44980,44991,45105,45129,45148,45164,45180,45197,45225,45274,45307,45348,45371,45380,45410,45439,45459,45498,45522,45541,45562,45581,45625,45633,45655,45655,45675,45696,45696,45696,45712,45713,45714,45752,45753,45774,45818,45858,45861,45862,45862,45874,45875,45882,45896,45901,45913,45920,45930,45950,45964,45978,46065,46079,46093,46098,46098,46110,46115,46127,46128,46145,46149,46149,46161,46165,46186,46195,46313,46329,46331,46331,46345,46345,46349,46349,46363,46363,46364,46366,46370,46379,46387,46387,46396,46403,46412,46426,46434,46443,46451,46466,46466,46482,46516,46528,46545,46561,46583,46595,46619,46635,46649,46666,46678,46683,46683,46699,46712,46733,46735,46749,46763,46778,46803,46813,46842,46851,46860,46866,46879,46883,46896,46897,46901,46917,46918,46920,46931,46933,46947,46947,46949,46962,46963,46966,46966,46978,46981,46986,46986,46996,46997,47002,47018,47019,47034,47082,47122" d="M198.5,101.21776C199.37883,101.21793 200.19576,101.61879 200.909,101.86509C201.87799,102.19971 202.66568,102.16127 203.616,102.21909C204.38716,102.26601 205.33539,102.67723 205.96167,102.86509C206.90701,103.14865 207.71423,103.19838 208.73067,103.21642C209.68552,103.23338 210.59984,103.21776 211.5,103.21776C212.30133,103.21776 213.20006,103.20709 214.10001,103.21776C214.97935,103.22818 215.49429,104.0358 216.30133,104.21642C217.12253,104.40022 218.02083,104.21776 218.97917,104.21776C219.85266,104.21776 220.43324,104.54849 220.92534,105.19243C221.42534,105.84671 221.92534,106.21776 222.85716,106.21776C223.7,106.21776 224.60001,106.21776 225.5,106.21776C226.416,106.21776 227.33333,106.21776 228.11067,106.21776C229,106.21776 229.89999,106.21709 230.8,106.21776C231.69867,106.21843 232.23991,106.89244 232.85266,107.21776C233.62006,107.62518 234.59984,107.21776 235.51067,107.21776C236.30133,107.21776 237.2,107.21776 238.14284,107.21776C239.02083,107.21776 239.89999,107.21776 240.8,107.21776C241.69867,107.21776 242.65492,107.5676 243.5045,107.21326C244.2487,106.90286 244.85716,106.21776 245.7,106.21776C246.59984,106.21776 247.57289,106.05328 248.30133,106.30309C249.18733,106.60693 249.91013,107.19975 250.82133,107.21776C251.6745,107.23462 252.61467,107.21776 253.5,107.21776C254.41733,107.21776 255.20984,107.21776 256.01733,107.21776C257.05334,107.21776 257.97754,107.30316 258.70001,106.93376C259.56406,106.49197 260.29999,106.21843 261.172,106.21776C262.04266,106.21709 263,106.21776 263.73199,106.21776C264.81732,106.21776 265.72198,106.21776 266.37601,106.21776C267.552,106.21776 268.17599,106.21776 269.142,106.21776C270.23532,106.21776 271.03201,106.21776 271.94284,106.21776C272.68533,106.21776 273.61465,106.21776 274.60001,106.21776C275.5,106.21776 276.37851,106.21776 277.2045,106.21776C278.10001,106.21776 279,106.21551 279.89999,106.21776C280.79999,106.22001 281.53409,106.54895 282.29999,106.93376C283.08591,107.32864 284.15268,107.21776 284.84732,107.21776C285.86401,107.21776 286.79999,107.21776 287.70001,107.21776C288.59982,107.21776 289.44733,107.21776 290.26166,107.21776C291.15268,107.21776 292.01599,107.21776 292.97916,107.21776C293.89999,107.21776 294.79999,107.21776 295.70132,107.21776C296.38535,107.21776 297.31522,107.18467 298.32935,107.21776C299.2059,107.24635 299.81033,107.83588 300.70001,108.13242C301.55765,108.4183 302.5,108.21776 303.29999,108.21776C304.20001,108.21776 305.10001,108.21776 306.064,108.21776C306.936,108.21776 307.87732,108.04227 308.69867,108.50175C309.48703,108.94278 309.81345,109.82809 310.66666,110.21776C311.4397,110.5708 312.15262,111.01793 313,111.19692C313.8808,111.38297 314.88934,111.22842 315.5,111.71776C316.11066,112.20709 317.06943,112.10593 317.7955,112.57043C318.59985,113.08499 318.8782,113.68783 319.55716,114.21326C320.25763,114.75533 320.49222,115.15678 321.2045,115.21776C322.06085,115.29106 322.89746,115.34679 323.55267,115.86509C324.13223,116.32355 325.10001,116.21776 326.064,116.21776C326.92532,116.21776 327.85266,116.21776 328.784,116.21776C329.66666,116.21776 330.53601,116.21776 331.44284,116.21776C332.33334,116.21776 332.60886,115.67233 333.37851,115.21776C334.07938,114.80379 334.80475,114.36012 335.7215,114.21759C336.61667,114.07842 337.15411,113.40803 338.10001,113.22842C338.96378,113.06441 339.86572,113.33992 340.79999,113.21326C341.62119,113.10192 342.45828,112.64076 343.07468,112.18176C343.71741,111.70315 344.24854,111.60453 345.07468,111.18176C345.7655,110.82823 346.55655,110.65542 347.216,110.13242C347.90317,109.58746 348.04672,109.03659 348.58533,108.50175C349.20767,107.88377 349.68155,107.67143 350.216,107.13242C350.83322,106.50994 351.22183,106.22078 351.53601,105.60709C351.93274,104.83217 352.33606,104.00066 352.66666,103.21776C352.99698,102.43549 353.49466,101.6538 353.5,100.78176C353.50525,99.92227 353.31754,98.92869 353.72134,98.11793C354.07315,97.41157 354.23279,96.57903 354.58533,95.78576C354.92401,95.02365 355.91714,94.81292 356.47916,94.19692C357.01004,93.61503 357.11209,92.68858 357.72134,91.99626C358.37555,91.25286 358.3519,90.38835 358.936,89.79243C359.5708,89.14478 360.21243,88.67452 360.78534,88.21642C361.44431,87.68952 362.1521,87.39034 362.55267,86.51776C362.88565,85.79245 363.59982,85.11793 364.21466,84.50309C364.85718,83.86058 365.59106,83.29188 366.064,82.61776C366.5722,81.89334 366.95828,81.42107 367.69867,80.93243C368.4964,80.40594 368.37808,79.38136 369.02084,78.73859C369.66357,78.09584 370.62811,78.02882 371.33334,77.38442C371.96252,76.8095 372.59982,76.11793 373.14282,75.57493C373.85718,74.86058 374.49997,74.21771 375.064,73.65376C375.72162,72.99621 376.23538,72.47183 377.14816,71.92226C377.7735,71.54575 378.66025,71.04846 379.35333,70.36576C379.78525,69.94032 380.43179,69.18292 381.35699,68.58209C382.03653,68.14081 382.82407,67.88586 383.5,67.21776C384.08566,66.63888 384.36203,65.70476 385.02084,65.21776C385.70682,64.71069 386.17984,63.98398 386.784,63.30176C387.31049,62.70722 388.02069,62.23037 388.89999,62.21776C389.7999,62.20485 390.62811,62.02883 391.33334,61.38443C391.96252,60.8095 392.51199,60.01282 393.14282,59.57492C393.84943,59.08443 394.70026,58.80026 395.5,58.38443C396.15085,58.04601 396.991,57.72552 397.50134,56.93376C397.93549,56.2602 398.71713,55.99185 399.30133,55.41642C399.99484,54.73332 400.77856,54.4743 401.59982,53.99626C402.22791,53.63066 402.50174,52.6192 403.2045,52.16509C403.95584,51.6796 404.74371,51.31359 405.66666,51.05109C406.33777,50.86021 407.34924,50.4338 407.92532,49.78176C408.52576,49.10215 408.84421,48.42727 409.60001,47.99626C410.2691,47.61469 410.83463,46.71226 411.70001,46.30176C412.45746,45.94246 413.20129,45.57333 414,45.21776C414.80582,44.85902 415.37503,44.32056 416.15268,43.56959C416.66791,43.07202 417.51392,42.5386 418.29868,42.13509C419.01843,41.76499 419.20691,40.64636 419.936,40.25376C420.78577,39.79617 421.62732,39.80888 422.5,39.38443C423.15967,39.06358 423.96304,38.64409 424.79999,38.27042C425.57217,37.92567 426.43704,37.73571 427.14282,37.16509C427.8739,36.57401 428.46826,35.99996 429.10001,35.64309C429.9426,35.16712 430.68051,34.75983 431.5,34.38443C432.24268,34.04421 433.20001,34.21776 434.10001,34.21776C434.97916,34.21776 436.00906,34.32807 436.50449,33.86509C437.05121,33.35418 437.89938,33.08415 438.784,33.21776C439.52502,33.32968 440.07913,33.69224 440.41333,34.50176C440.70688,35.21277 439.52939,35.74882 438.95834,36.25943C438.21463,36.92445 437.67542,37.50499 437.15268,38.21693C436.52243,39.07527 436.07654,39.75224 435.29999,40.13376C434.44711,40.55278 434.06836,41.05196 433.47467,41.78176C432.94669,42.43082 432.01569,42.71249 431.33334,43.38443C430.77979,43.92952 430.25967,44.82708 430.5,45.64309C430.69321,46.29907 431.55734,46.21776 432.556,46.21776C433.20801,46.21776 434.31351,46.21776 435.5,46.21776C436.29599,46.21776 437.06799,46.21776 437.79199,46.21776C438.444,46.21776 439.68219,46.38173 440.60016,45.99643C441.32217,45.69337 442.15134,45.24762 443.01599,45.21909C443.97864,45.18733 444.79999,45.21776 445.69867,45.21776C446.66666,45.21776 446.82736,45.20756 446.01334,45.50309C445.23624,45.78521 444.33392,46.21925 443.55182,46.51776C442.7619,46.81926 441.79633,47.16254 441.16135,47.62843C440.57925,48.05552 439.87085,48.89225 439.32535,49.35643C438.5528,50.0138 437.73529,50.23241 436.84732,50.57042C436.14212,50.83886 435.15421,51.20183 434.5,51.71776C433.85989,52.22257 433.14734,52.57042 432.47916,53.23859C431.92532,53.79242 431.22952,54.8743 431.75601,55.21642C432.43228,55.65586 433.49997,55.25713 434.53067,55.21642C435.24979,55.18802 436.13937,54.83152 436.84732,54.57042C437.8685,54.1938 438.83652,54.06209 439.50082,53.86509C440.44223,53.58593 441.32693,53.24636 442.11066,53.21776C443.09933,53.18167 444.12289,53.06377 444.13834,53.22226C444.23367,54.20136 442.3927,53.59773 441.74283,54.31759C441.13531,54.99052 440.38528,55.13017 439.61465,55.30309C438.81766,55.48193 438.11002,55.92622 437.10132,56.13376C436.34409,56.28956 435.4296,56.58147 434.70132,56.93376C433.7868,57.37614 432.83557,57.53727 432.20984,57.86509C431.3074,58.3379 430.90329,59.16181 430.46399,59.79242C429.99426,60.46674 429.00919,60.74827 428.39999,61.31759C427.80875,61.87013 426.92902,62.23874 426.50134,62.93376C426.06754,63.63875 425.95322,64.57652 425.41467,65.21642C424.88406,65.8469 424.17078,66.24459 423.784,66.93243C423.37469,67.66034 423.45886,68.61585 422.92532,69.24309C422.41705,69.84061 421.66754,70.3846 421.5,71.22226C421.3342,72.05127 420.88013,72.72285 420.27866,73.21776C419.66376,73.7237 419.5,74.21776 419.5,75.01776C419.5,75.93243 419.25797,76.66922 418.784,77.30176C418.20892,78.06922 418.48749,79.0419 418,79.71776C417.48651,80.42966 416.87579,80.96149 416.52084,81.71776C416.15842,82.48998 415.98468,83.17999 415.48932,83.64309C414.90665,84.18779 414.13821,84.56144 413.52533,85.19243C412.91614,85.81962 412.63397,86.68127 412.14734,87.22226C411.61316,87.81611 410.95724,88.12099 410.5,88.73859C409.98999,89.42747 409.40894,90.14364 408.936,90.81776C408.4278,91.54218 408.61984,92.62693 408.216,93.41776C407.87976,94.07623 407.40292,94.79885 406.92532,95.25376C406.34506,95.80644 406.15085,96.75789 405.33334,97.21776C404.63409,97.6111 404.35898,98.39542 404,99.19692C403.64639,99.9864 403.05792,100.64323 402.58401,101.41643C402.1311,102.15538 401.72318,102.67954 401.5,103.60709C401.34216,104.26305 400.51801,104.64256 400.5,105.57043C400.48315,106.43893 400.40768,107.30771 400.5,108.22842C400.58374,109.06361 401.53992,109.52335 401.88934,110.06843C402.44528,110.93565 402.94666,111.66442 403.66666,112.38442C404.14816,112.86593 404.78427,113.51386 405.43866,114.15643C406.01572,114.72305 406.94006,114.95433 407.7955,115.22226C408.54932,115.45835 408.54996,116.67529 409.37851,117.09626C410.08112,117.45323 409.27866,117.21776 408.41467,117.21776C407.5,117.21776 406.62149,117.21776 405.784,117.21776C404.85266,117.21776 403.97916,117.21776 403.10001,117.21776C402.2045,117.21776 401.27866,117.21776 400.41599,117.21776C399.5,117.21776 398.69867,117.21776 397.78534,117.21776C396.88934,117.21776 395.96524,117.16483 395.20001,117.57043C394.35428,118.01871 393.85577,118.37096 393.33334,119.05109C392.83951,119.69396 392.76868,120.28681 393.14734,120.91776C393.66513,121.78053 394.34979,122.42574 395.02084,122.71776C395.72971,123.02624 396.71094,123.48834 397.29733,124.01776C398.03351,124.68243 398.51077,125.43655 399.20001,125.86059C400.02139,126.36593 401.01523,126.25148 400.52667,126.04709C399.70813,125.70466 399.02734,125.20756 398.35333,124.78576C397.42737,124.20628 396.61334,124.21776 395.68533,124.21776C394.74283,124.21776 393.88934,124.21776 393,124.21776C392.10001,124.21776 391.20395,124.18615 390.27866,124.21776C389.44138,124.24636 388.77789,124.73572 388.07468,125.22842C387.42145,125.68611 387.84732,126.58495 388.5,127.21776C389.09122,127.79097 389.94131,128.10162 390.70001,128.50175C391.55838,128.95447 391.98782,129.50471 392.7215,130.09642C393.36761,130.61752 394.15247,131.01874 395,131.19693C395.95844,131.39844 397.69882,131.28699 397.41467,132.13243C397.21555,132.72488 395.86401,132.21776 395.01599,132.21776C394.15268,132.21776 393.24081,132.263 392.53067,132.13243C391.47409,131.93817 390.72501,131.59682 389.66666,131.38443C388.96716,131.24406 388.16165,131.22002 387.13599,131.21776C386.20001,131.2157 385.24271,131.05406 384.39999,131.43909C383.73068,131.74489 382.84619,132.15112 382.11066,132.6431C381.38361,133.12939 380.3511,132.88068 379.66666,133.38443C379.01367,133.86502 378.39871,134.16997 377.5,134.21776C376.69662,134.26048 375.99454,134.82861 375.49551,135.57042C375.04965,136.23318 374.66846,136.88174 374,137.19693C373.16257,137.59178 372.46765,137.7475 372,138.23859C371.44916,138.81705 370.84222,139.15678 370.47916,139.73859C370.02985,140.45856 369.5,141.21776 368.936,141.78175C368.27866,142.43909 367.57489,143.09019 367.5,143.82843C367.40372,144.77756 367.01102,145.40311 366.33334,146.05109C365.70218,146.65462 365.16284,146.948 364.58533,147.50175C364.02307,148.04089 363.26785,147.97353 362.58401,148.50175C361.95651,148.98647 361.2962,149.13564 360.39999,149.21793C359.48856,149.30161 358.84637,150.01852 357.97916,150.19693C357.03552,150.39107 356.32535,150.21776 355.25717,150.21776C354.40018,150.21776 353.48343,150.24757 352.79016,150.57042C351.98746,150.94423 351.1066,151.12927 350.17868,151.43909C349.48279,151.67145 348.48322,151.98004 347.70132,152.30176C346.94724,152.61203 346.17175,153.08867 345.17868,153.43925C344.47922,153.68619 343.69461,154.25795 343.02084,154.69693C342.23422,155.20943 341.33334,155.38443 340.7955,155.8651L339.85718,156.21326L339.14734,156.57042L338.47467,157.20709" id="svg_18" stroke-width="3" stroke="#000" fill="none"/>
  <path t="49131,49258,49268,49278,49278,49282,49283,49291,49291,49299,49299,49311,49311,49311,49311,49316,49316,49316,49322,49322,49322,49322,49340,49340,49340,49340,49347,49347,49347,49347,49356,49356,49378,49379,49388,49437,49438,49438,49456,49456,49467,49475,49514,49523,49531,49540,49563,49595,49604,49626,49644,49671,49675,49701,49701,49724,49724,49724,49724,49746,49746,49750,49750,49788,49788,49810,49811,49811,49812,49812,49812,49812,49812,49826,49827,49827,49827,49827,49829,49829,49829,49846,49846,49884,49903,49903,49903,49904,49904,49927,49927,49945,49968,49971,49994,49996,50002,50044,50059,50076,50104,50104,50134,50135,50158,50188,50196,50196,50227,50258,50261,50282,50282,50298,50299,50306,50322,50330,50354,50378,50402,50426,50450,50469,50482,50482,50491,50509,50519,50519,50524,50524,50531,50531,50546,50555,50562,50562,50571,50594,50603,50618,50636,50636,50653,50670,50682,50691,50698,50707,50715,50730,50739,50739,50754,50770,50780,50787,50787,50803,50813,50827,50836,50846,50846,50853,50866,50867,50875,50882,50891,50916,50931,50948,50955,50963,50971,50987,50996,51004,51014,51037,51046,51046,51062,51067,51074,51082,51091,51099,51118,51120,51131,51172,51172,51174,51182,51197,51204,51204,51214,51220,51236,51246,51246,51253,51253,51253,51263,51267,51280,51280,51299,51300,51300,51310,51310,51310,51310,51314,51314,51322,51322,51322,51340,51340,51359,51359,51377,51377,51394,51395,51395,51412,51412,51412,51430,51430,51430,51430,51438,51438,51457,51457,51459,51460,51460,51478,51478,51478,51496,51496,51497,51497,51500,51500,51500,51508,51508,51525,51525,51544,51544,51544,51562,51592" d="M214.5,201.21776C213.62151,202.43925 213.68654,203.3734 213.33333,204.21776C213.034,204.93332 212.31075,205.70808 211.89999,206.39243C211.41278,207.20413 210.84389,207.81088 210.58267,208.70576C210.35637,209.48102 210.1832,210.5575 209.93066,211.18442C209.65643,211.86519 209.36412,212.55948 208.66667,213.71776C208.27524,214.36784 207.70065,214.97498 206.95717,215.53943C206.24841,216.07751 205.69316,216.43965 205.18266,216.90442C204.13762,217.85585 203.71858,218.45943 203.27467,219.06442C202.80887,219.69925 202.07826,220.73822 201.55634,221.46143C201.04095,222.17557 200.73633,222.48198 200,223.71776C199.63593,224.32878 199.31114,225.34558 198.7955,225.91776C198.22957,226.54573 197.33235,227.04688 196.664,227.20309C195.89752,227.38226 194.89053,227.90167 194.37199,228.3671C193.52997,229.12286 193,229.71776 192.33333,230.38443C191.66667,231.05109 190.91988,231.25038 190.50133,231.93376C190.06898,232.63965 189.30116,233.21651 188.85266,233.92226C188.39035,234.64972 188.57384,235.65221 188.2785,236.53909C188.04416,237.24284 187.47311,238.03232 187,238.73859C186.46904,239.5312 186.1955,240.23659 185.864,241.07509C185.61467,241.70576 185.18437,242.74113 184.85184,243.45692C184.52623,244.15779 184.02594,245.0576 183.60083,246.02959C183.30688,246.70169 182.99759,247.71696 182.64799,248.7791C182.44057,249.40929 182.22121,250.08755 182,250.80109C181.77313,251.53287 181.54875,252.26988 181.35201,253.0031C180.98257,254.37987 180.74631,255.58713 180.66701,256.12292C180.52686,257.06985 180.507,257.88843 180.33333,258.88443C180.18906,259.71179 179.78746,260.59293 179.62151,261.41742C179.43701,262.33398 179.5,263.30109 179.5,264.21777C179.5,264.9231 179.5,265.78043 179.5,266.70175C179.5,267.15894 179.5,268.71027 179.5,269.43774C179.5,270.41776 179.5,271.31775 179.5,272.21777C179.5,273.09644 179.48888,273.92233 179.5,274.8606C179.51042,275.73877 180.04318,276.42105 180.37849,277.31775C180.69659,278.1684 180.46046,278.97598 180.5045,279.87042C180.54713,280.73648 181.02322,281.53156 181.416,282.41776C181.75571,283.1842 181.959,283.97037 182.52083,284.71777C182.98134,285.33038 183.97917,285.21777 184.94284,285.21777C185.68533,285.21777 186.75485,285.36066 187.59984,285.21759C188.45059,285.07355 188.66667,284.21777 189.55267,284.21777C190.464,284.21777 191.33333,284.21777 192.14734,284.21777C193.07466,284.21777 194.00664,284.32394 194.85266,284.21777C195.74231,284.10614 196.26727,283.38025 196.88933,282.82843C197.62881,282.17245 198.55659,281.92181 198.88933,281.35641C199.4313,280.43546 199.47026,279.57385 199.784,278.73508C200.09421,277.90573 200.5,277.05109 200.5,276.11777C200.5,275.21777 200.29465,274.39236 200.5,273.57492C200.71928,272.70203 201.45729,272.02228 201.5,271.16058C201.54668,270.21893 201.5,269.41776 201.5,268.51776C201.5,267.65375 201.34717,266.76785 201.51067,265.81775C201.65381,264.98584 202.43909,264.34573 202.5,263.51324C202.55957,262.6991 202.31548,261.71371 202.5,260.92758C202.68112,260.15598 203.42567,259.92902 203.50017,259.11777C203.58386,258.20633 203.97072,257.47379 204.52083,256.71777C204.95566,256.12018 206.04506,255.9646 206.37849,255.11775C206.7112,254.27274 206.50882,253.36296 207.07466,252.65376C207.6499,251.93279 208.30133,251.41643 208.97917,250.73859C209.584,250.13376 210.08054,249.43842 210.5,248.71776C210.83778,248.13742 211.64426,247.8421 212.5,247.38443C213.29144,246.96115 213.77844,246.6317 214.37849,245.99643C214.96239,245.37827 215.09624,244.61052 215.97917,244.23859C216.77345,243.90399 217.54065,243.48903 218.3,243.13376C219.03143,242.79155 219.29015,241.57373 220.02083,241.23859C220.81078,240.87627 221.48738,240.69708 221.5,239.81776C221.51286,238.92233 221.93135,238.32921 222.85266,238.21776C223.67755,238.11798 224.17665,237.40005 224.52533,236.61775C224.88557,235.80951 225.33607,235.00066 225.66667,234.21776C225.99699,233.4355 226.58949,232.82596 227.14734,232.16508C227.64246,231.57854 228.05772,230.67146 228.472,230.24709C229.25769,229.44225 229.74001,228.97775 230.4375,228.28026C231.13567,227.58209 231.944,227.01265 232.33333,226.05109C232.58615,225.42667 232.60995,224.34961 233.0625,223.67609C233.42857,223.13126 234.26878,222.16637 234.75067,221.54176C235.25014,220.89438 235.71645,220.25716 236.35716,219.48209C236.96466,218.74719 237.66035,218.04462 238.15266,217.5696C238.66814,217.07224 239.69499,216.51486 240.29866,216.04976C241.02568,215.48962 241.30185,214.70171 241.89999,213.83243C242.30125,213.24928 242.69115,212.44402 243.02083,211.69693C243.37447,210.89554 243.97214,209.89124 244.52083,209.21776C244.89563,208.75772 245.7,207.79659 246.10001,207.26959C246.70001,206.4791 247.03769,205.91948 247.89867,205.18843C248.61679,204.57867 249.54834,204.18584 249.97917,203.67609C250.73959,202.77637 250.89999,201.95642 251.10001,201.43242C251.50002,200.38443 251.81114,199.67526 252.2,198.76509C252.61186,197.80107 252.81062,197.25961 253.10001,196.37109C253.30765,195.73354 253.59143,194.69449 253.89999,193.62442C254.0946,192.94951 254.44661,191.83769 255,191.25943C255.64302,190.58751 256.10773,190.00034 256.59982,189.01793C256.89398,188.43071 257.21466,187.70309 257.48932,186.66443L257.5,185.79242" id="svg_19" stroke-width="3" stroke="#000" fill="none"/>
  <path t="54438,54518,54522,54547,54568,54571,54578,54590,54599,54604,54604,54612,54619,54628,54628,54635,54635,54651,54651,54660,54691,54715,54733,54738,54752,54758,54768,54780,54790,54803,54812,54812,54819,54819,54843,54844,54851,54851,54859,54877,54884,54884,54884,54892,54900,54917,54917,54925,54934,54950,54957,54958,54974,54987,54996,55003,55019,55028,55035,55035,55044,55051,55060,55068,55076,55084,55084,55100,55125,55135,55151,55157,55180,55189,55196,55212,55227,55235,55251,55259,55268,55276,55285,55292,55314,55326,55336,55340,55354,55367,55379,55388,55396,55412,55419,55428,55444,55452,55468,55476,55499,55499,55523,55541,55552,55596" d="M155.5,153.21776C155.5,154.82843 155.5,155.78175 155.5,156.6431C155.5,157.57492 155.5,158.41776 155.5,159.3176C155.5,160.24309 155.52135,160.99211 155.85266,161.87042C156.11899,162.57645 156.37392,163.6263 156.784,164.41776C157.23045,165.2794 157.49774,165.97491 157.5,166.86592C157.50198,167.64842 157.5,168.6606 157.5,169.40309C157.5,170.45609 157.5,171.38443 157.5,172.25375C157.5,173.16508 157.5,173.92226 157.5,174.81776C157.5,175.71776 157.5,176.69693 157.5,177.57492C157.5,178.41643 157.34839,179.42978 157.66667,180.21776C157.94968,180.91838 158.30489,181.71664 158.49867,182.64842C158.6824,183.53181 159.31487,184.08374 159.464,185.04309C159.57024,185.72643 159.54309,186.80382 159.92534,187.6391C160.34108,188.54758 160.38522,189.22816 160.52533,189.93109C160.75334,191.07512 161.31575,191.6084 161.66667,192.55109C161.93002,193.25856 162.81232,193.61841 163.41467,194.21909C164.03023,194.83293 164.6384,195.24074 165.14284,195.8651C165.68083,196.53099 166.10725,196.99599 166.464,197.65376C166.91882,198.49237 166.95041,199.02837 167.47467,199.65376C168.0045,200.28581 168.22452,201.10698 169,201.69693C169.7377,202.25815 170.71884,202.47928 171.33333,203.05109C171.95729,203.6317 172.50479,204.43329 173.14284,204.8606C173.9144,205.3773 174.95804,205.19373 175.47917,205.71776C175.95734,206.19859 176.14084,206.87346 176.52083,207.71776C176.83412,208.41385 177.28339,208.94759 177.5,209.8606C177.68297,210.63179 178.1893,211.32774 178.5045,212.16508C178.81267,212.9837 179.36555,213.62762 179.5045,214.51776C179.63231,215.33655 180.3987,215.99319 180.92534,216.65376C181.49092,217.36316 181.18344,218.38103 181.51067,219.19243C181.81865,219.95612 182.27293,220.65274 182.66667,221.38443C183.11343,222.21465 183.37617,222.86147 183.85266,223.57042C184.36931,224.33913 184.17366,225.07205 184.5,226.05109C184.76352,226.84166 185.93024,226.9523 186.44284,227.57042C186.98175,228.22026 187.216,228.93376 187.52083,229.73859L187.92534,230.61775L188.37849,231.3176L188.5,232.23859" id="svg_20" stroke-width="3" stroke="#000" fill="none"/>
  <path t="56365,56520,56523,56539,56543,56543,56547,56555,56564,56564,56571,56580,56580,56588,56588,56597,56597,56604,56604,56613,56613,56620,56629,56635,56644,56653,56660,56676,56686,56693,56710,56715,56715,56726,56740,56755,56764,56779,56787,56796,56804,56819,56828,56836,56845,56845,56853,56861,56870,56899,56911,56924,56936,56939,56955,56964,56971,56980,56996,57003,57020,57029,57036,57086,57086,57092,57107,57121,57126,57136,57155,57164,57323,57339,57347,57372,57372,57380,57395,57404,57411,57428,57437,57444,57454,57460,57477,57487,57494,57503,57510,57520,57524,57532,57539,57548,57548,57555,57580,57587,57587,57596,57612,57621,57628,57637,57654,57660,57671,57700,57723,57747,57765,57780,57803,57812,57828,57838,57844,57844,57855,57871,57878,57888,57895,57908,57921,57932,57932,57948,57955,57972,57980,57980,57987,58004,58012,58021,58041,58045,58055,58061,58071,58071,58078,58094,58105,58125" d="M208.5,256.21777C207.5,256.23859 207.51024,257.07391 208.11067,257.81775C208.63893,258.47217 209.37802,258.94974 209.97917,259.71777C210.48773,260.36752 210.68864,261.34573 211.2045,261.91776C211.86029,262.64496 212.61008,263.06174 213.38533,263.30176C214.35023,263.60049 215.09206,263.97803 216.0955,264.1651C216.83743,264.30344 217.73904,264.58704 218.384,265.0191C219.14319,265.52768 219.92392,265.68414 220.85333,266.19241C221.58434,266.59216 222.11063,267.21243 223,267.21777C223.89998,267.22318 224.93391,266.99493 225.50133,267.50177C226.05975,268.00058 226.79974,268.13193 227.66667,268.21777C228.51236,268.30151 229.15231,269.02734 230.064,269.20709C230.90913,269.37372 231.61023,269.74728 232.41467,270.13242C233.13121,270.47546 234.15031,270.1651 234.88933,270.6431C235.64563,271.13226 236.5,271.21777 237.37866,271.21777C238.14667,271.21777 239.1662,271.12863 239.84734,271.27493C240.9045,271.50198 241.60382,272.06998 242.48933,272.21777C243.33789,272.35938 243.55714,273.21552 244.44733,273.21777C245.30133,273.21994 246.16521,273.04053 247.02083,273.23859C247.96365,273.45682 248.59389,274.15689 249.52533,274.21777C250.41411,274.27588 251.216,274.21777 252.11067,274.21777C253,274.21777 253.95895,274.39645 254.7215,273.99643C255.39642,273.64236 256.34436,273.63864 257.14734,273.16058C257.80359,272.76987 257.93384,271.54297 258.79999,271.27493C259.66153,271.00833 260.88287,271.61249 261.41467,270.93243C261.97974,270.20984 261.53857,269.16431 261.5,268.21777C261.47141,267.51602 260.76062,266.84454 260.5,265.93243C260.24908,265.05426 259.88748,264.58493 259.5,263.99625C259.017,263.26245 259.54865,262.21649 259.5,261.30176C259.45728,260.49838 258.68222,259.98566 258.49985,259.11792C258.33331,258.32559 257.56903,257.85971 257.5,257.0191C257.42719,256.13263 256.8537,255.5128 256.5,254.71776C256.14386,253.91728 255.39949,253.2984 254.936,252.61775C254.38876,251.81412 254.31496,250.76959 253.5,250.38443C252.85036,250.07741 252.11284,249.90327 251.33333,249.38443C250.62587,248.91356 249.62134,249.21776 248.784,249.21776C247.88933,249.21776 247,249.21776 246.11067,249.21776C245.216,249.21776 244.27861,249.22783 243.41467,249.21776C242.52065,249.20734 242.3156,248.74541 241.66667,248.21776C241.09314,247.75142 241.02415,246.65392 240.2,246.27043C239.4333,245.91368 238.51447,245.79091 237.85716,245.16508C237.23543,244.57312 236.69908,244.57893 235.936,244.18176C235.17665,243.78653 234.85051,242.79546 234.216,242.30309C233.4908,241.74033 232.97897,241.39435 232.47917,240.71776C232.00456,240.07527 231.08028,239.76505 230.39999,239.11792C229.81367,238.56018 228.96751,238.35332 228.21466,237.93376C227.42728,237.49496 226.5853,237.40857 225.7955,237.1606C224.93413,236.89015 224.72156,235.76047 224.064,235.24309C223.41583,234.73311 222.7,234.41643 222.02083,233.73859L221.5,232.93242L221.49983,232.11792L221.216,231.30309" id="svg_21" stroke-width="3" stroke="#000" fill="none"/>
  <path t="63629,63700,63716,63734,63734,63750,63761,63779,63784,63784,63789,63796,63796,63805,63812,63812,63820,63821,63828,63828,63828,63836,63837,63844,63853,63853,63861,63869,63870,63876,63877,63884,63897,63897,63902,63911,63911,63917,63917,63929,63934,63934,63949,63961,63966,63967,63978,63983,64004,64037,64052,64061,64080,64101,64111,64135,64144,64160,64167,64188,64204,64221,64229,64244,64261,64269,64278,64295,64302,64312,64328,64345,64365,64373,64389,64405,64437,64461,64481,64485,64524,64588" d="M301.5,163.21776C301.46399,164.82843 301.07318,165.62659 300.40018,166.3176C299.86441,166.86772 298.92307,167.17818 298.47467,167.82843C297.96957,168.56093 297.39999,169.31776 296.89999,169.81776C296.20001,170.51776 295.55264,171.27959 295,171.69693C294.26031,172.25551 293.24554,172.45302 292.79999,172.97943C292.10199,173.80411 291.9133,174.46446 291.17868,175.41759C290.7052,176.03191 290.15381,176.56172 289.38535,177.33243C288.80536,177.91411 288.04361,178.44077 287.66666,179.38443C287.35898,180.15466 287.17603,180.97641 286.39984,181.43925C285.83105,181.77843 285.03799,182.46143 284.32535,182.78175C283.40982,183.19327 282.46732,183.34337 281.89999,183.82843C281.15329,184.46687 280.5,185.21776 280,185.71776C279.29999,186.41776 278.69998,187.01772 278.10001,187.61775C277.40012,188.31772 276.6983,188.86996 276.51068,189.78175C276.33487,190.63612 276.15347,191.52742 275.69867,192.01776C275.03604,192.73216 274.82745,193.72906 274.216,194.21776C273.64172,194.67673 273.18448,195.09357 272.52533,195.6431C271.89282,196.17039 271.32513,196.83401 270.52533,197.18176C269.76651,197.51169 269.11285,197.53224 268.33334,198.05109C267.62589,198.52197 266.50436,198.13864 266,198.71776C265.38882,199.41953 265.07523,200.19968 264.216,200.21776C263.27887,200.23747 262.70084,200.72334 262.07468,201.18176C261.3353,201.72308 260.5874,202.17503 259.784,202.21776C258.92654,202.26335 257.92038,202.05547 257.216,202.50175C256.42627,203.00215 255.76723,202.98915 254.85716,203.21776C253.98427,203.43704 253.3,204.13243 252.5,204.21776L251.55716,204.21776L250.66667,204.21776L249.85266,204.21776" id="svg_22" stroke-width="3" stroke="#000" fill="none"/>
  <path t="65807,65926,65941,65941,65948,65948,65948,65948,65957,65973,65974,65974,65981,65981,65981,65990,65990,65990,65997,65997,66005,66012,66012,66021,66029,66038,66052,66069,66086,66103,66125,66141,66150,66180,66180,66197,66205,66221,66229,66245,66270,66286,66297,66341,66348,66348,66357,66373,66381,66390,66390,66405,66413,66421,66421,66430,66438,66438,66461,66462,66462,66462,66472,66480,66487,66497,66497,66504,66513,66517,66547,66558,66576,66580,66598,66599,66615,66630,66638,66661,66671,66687,66696,66713,66729,66734,66741,66748,66757,66773,66781,66797,66797,66804,66805,66813,66821,66830,66838,66847,66864,66871,66881,66890,66903,66913,66916,66925,66941,66957,66972,67197,67221,67260,67282,67299,67397,67438,67453,67453,67471,67477,67501,67517,67526,67535,67535,67540,67540,67557,67565,67565,67574,67581,67581,67590,67598,67605,67615,67615,67622,67631,67631,67632,67638,67648,67655,67664,67671,67681,67687,67697,67697,67702,67703,67709,67724,67742,67774,67781,67789,67789,67799,67815,67823,67832,67838,67848,67855,67855,67871,67887,67900,67909,67910,67917,67926,67942,67949,67958,67965,67974,67974,67981,68024,68024,68035,68035,68035,68038,68039,68050,68050,68054,68077,68077,68099,68109,68116,68133,68142,68165,68174,68189,68189,68199,68223,68232,68239,68255,68273,68273,68278,68279,68279,68288,68293,68293,68293,68301,68301,68301,68310,68310,68317,68317,68317,68326,68326,68326,68326,68334,68343,68343,68350,68358,68373,68374,68382,68402,68418,68423,68438,68460,68509" d="M272.5,199.21776C272.67065,200.10443 273.21777,200.87646 273.72134,201.46443C274.50537,202.37985 274.90579,202.89307 275.45834,203.67609C275.7908,204.14719 276.21472,205.20256 276.61432,205.92226C277.02621,206.66411 277.93494,206.94023 278.70001,207.53926C279.32233,208.0265 279.90112,208.62112 280.69983,209.41759C281.29016,210.00626 281.84283,210.56061 282.61465,211.33243C283.1955,211.91325 283.78925,212.52867 284.5,213.21776C285.09122,213.79095 285.96686,214.05676 286.69867,214.50175C287.51468,214.99796 287.54999,216.07381 288.41599,216.21776C289.20517,216.34894 289.79803,216.5381 290.37851,217.21793C290.85034,217.77052 290.99472,218.70209 291.66666,219.38443C292.20035,219.92638 293.0975,220.51477 293.41467,221.41776C293.71423,222.27055 293.56506,223.10706 294.07468,223.79242C294.56931,224.4576 294.53781,225.52225 295.33334,226.05109C296.0105,226.50124 296.8511,226.9005 297.14282,227.5696C297.51685,228.42749 297.60599,229.37732 297.92532,230.07909C298.36197,231.03857 298.49774,231.85608 298.5,232.73859C298.50226,233.62842 298.5,234.53909 298.5,235.39243C298.5,236.33243 298.5,237.21776 298.5,238.01776C298.5,238.88976 298.5,239.76042 298.5,240.71776C298.5,241.44975 298.5,242.54576 298.5,243.41776C298.5,244.31776 298.5,245.21776 298.5,246.01776C298.5,246.91776 298.5,247.81776 298.5,248.69693C298.5,249.6431 298.5,250.57492 298.5,251.41776C298.5,252.31776 298.5,253.21776 298.5,254.01776C298.5,254.93242 298.50485,255.82845 298.5,256.69693C298.49466,257.65378 297.96933,258.25919 297.58533,259.13376C297.2619,259.87039 297.07468,260.6431 296.41467,261.3031C295.7955,261.92227 294.99222,262.39987 294.62149,263.3176C294.29068,264.13651 294.53253,265.12439 293.97916,265.73859C293.33749,266.45074 292.75107,266.91049 292.21466,267.78577C291.86658,268.35376 291.05545,268.96225 290.52533,269.65375C289.95407,270.3989 289.55267,271.1651 289,271.71777C288.27866,272.43909 287.5838,273.03784 287.5,273.82843C287.40845,274.69208 287.48972,275.64343 287,276.21777C286.44775,276.86545 285.6438,277.26871 285.5,278.19241C285.36099,279.08551 284.33575,279.27136 284.5,280.13242C284.64426,280.88861 285.88693,281.08707 286.46399,281.6431C286.96356,282.12448 287.72134,282.21777 288.66666,282.21777C289.5,282.21777 290.27863,282.33987 291.10001,282.79242C291.87088,283.21713 292.81378,283.37576 293.67065,283.13242C294.41119,282.92212 295.32245,282.3118 296.12534,282.22842C296.97815,282.13989 297.80429,282.38632 298.85718,282.21326C299.7338,282.06915 300.30032,281.41675 300.89999,280.81775C301.6004,280.11816 302.15665,279.47061 302.79999,278.92227C303.55334,278.28018 304.27368,277.94769 304.72134,277.11777C305.07068,276.47012 305.46863,275.66864 305.72134,274.67508C305.90295,273.96103 306.23108,273.24121 306.41467,272.18976C306.57349,271.28021 306.55814,270.51379 307,269.71777C307.44382,268.9183 307.5,268.01776 307.5,267.11777C307.5,266.21777 307.5,265.4606 307.5,264.56509C307.5,263.70175 307.5,262.66443 307.5,261.79242C307.5,260.86508 307.5,259.99625 307.5,259.11777C307.5,258.21777 307.5,257.41776 307.5,256.50308C307.5,255.60709 307.5,254.71776 307.5,253.81776C307.5,252.91776 307.31122,251.94853 307.72134,251.11792C308.07071,250.41037 308.49796,249.6431 308.5,248.79242C308.50226,247.86058 308.88608,247.07941 309.216,246.41776C309.63657,245.5744 309.5,244.57492 309.5,243.69693C309.5,242.81776 309.42432,241.91446 309.50134,241.01642C309.58502,240.04062 309.91818,239.39964 310.33334,238.55109C310.71481,237.77138 311.13794,236.97609 311.33334,236.05109C311.49643,235.27899 311.49466,234.47914 311.5,233.3606C311.50363,232.6031 311.5,231.56509 311.5,230.87042C311.5,229.86443 311.84161,229.08031 312.216,228.41643C312.65158,227.64407 312.5,226.60709 312.5,225.73859C312.5,224.8606 312.5,223.92226 312.5,223.05109C312.5,222.11775 312.5,221.21776 312.5,220.41776C312.5,219.57492 312.5,218.60709 312.5,217.71776C312.5,216.82843 312.29395,215.86839 312.66666,215.05109C312.93961,214.45256 313.4371,213.45139 313.47916,212.71776C313.52106,211.98671 313.49673,210.86842 313.5,209.88443C313.50226,209.20792 313.45782,208.41968 313.66666,207.38443C313.85562,206.44763 314.26965,205.7184 314.47467,204.82176C314.6235,204.17087 314.78714,203.16377 314.92532,202.52043C315.15253,201.46252 315.35022,200.38625 315.41467,199.70576C315.50214,198.78215 315.49933,197.98976 315.5,196.87909C315.50049,196.05109 315.5,195.21776 315.5,194.23943C315.5,193.30043 315.39178,192.48854 315.58533,191.70042C315.80292,190.81438 316.45728,190.02078 316.5,189.11775C316.54251,188.21877 316.5,187.30176 316.5,186.50175L317.14734,186.1606" id="svg_23" stroke-width="3" stroke="#000" fill="none"/>
  <path t="69239,69309,69318,69318,69318,69325,69325,69333,69333,69333,69333,69341,69341,69350,69350,69350,69358,69358,69366,69366,69374,69383,69390,69406,69406,69423,69432,69489,69489,69508,69520,69536,69543,69555,69558,69574,69574,69598,69607,69629,69641,69663,69673,69685,69701,69709,69726,69741,69765,69790,69824,69838,69886,69909,69958,69975,69998,70062,70101,70237,70262,70277,70310,70333,70366,70408,70445,70463,70501,70709,70821,70853,70861,70870,70885,70910,70926,70942,70965,70976,71008,71021,71071,71086,71103,71110,71126,71143,71159,71168,71191,71201,71218,71229,71253,71253,71270,71287,71287,71303,71310,71343,71357,71369,71375,71397,71418,71438,71453,71494" d="M288.5,222.21776C288.44284,223.03659 288.21033,223.98549 288,224.73859C287.77802,225.53345 287.55273,226.53308 287.51068,227.4791C287.46307,228.55008 287.5,229.18442 287.5,230.19693C287.5,230.85526 287.5,231.9536 287.5,232.85776C287.5,233.76059 287.5,234.4791 287.5,235.26959C287.5,236.29626 287.50699,237.19696 287.5,238.21776C287.49466,238.99649 287.01239,239.7433 286.58533,240.5031C286.18396,241.21715 286.5,242.21776 286.5,243.01776C286.5,244.05109 286.5,244.8651 286.5,245.78575C286.5,246.64977 286.72388,247.59807 286.49866,248.50175C286.31714,249.2301 285.51044,249.7384 285.5,250.61775C285.48938,251.5132 285.20566,252.28128 284.784,252.93376C284.31686,253.65659 284.08386,254.61588 283.47916,255.23859C282.9335,255.80048 282.01105,256.34869 281.58533,257.13242C281.19424,257.85236 281.12317,258.68964 280.44284,259.21326C279.71219,259.7756 279.00641,259.99826 278.14734,260.21777C277.30569,260.43283 276.53619,260.38617 275.85266,260.86508C275.14944,261.35779 274.48178,261.76135 274,262.23859C273.43881,262.79443 272.96323,263.53595 272.5,264.38443C272.11661,265.08667 271.72189,265.18524 272.66666,265.21777C273.49698,265.24637 273.71497,266.15686 274.58533,266.21777C275.49792,266.28165 276.37851,266.21777 277.2045,266.21777C278.14282,266.21777 279.07245,266.56616 279.92532,266.20709C280.66043,265.89761 280.93234,265.12378 281.52533,264.6431C282.15491,264.13275 282.75763,263.84656 283.33334,263.21777C283.84592,262.65793 284.58618,262.75 285.33334,262.21777C285.8912,261.82037 286.40656,261.2504 287,260.71777C287.70166,260.08804 288.33334,259.38443 288.92532,258.79242C289.55264,258.16507 290.14734,257.51324 290.5,256.71777C290.85266,255.92226 291.06741,255.00467 291.66666,254.38443C292.25534,253.7751 292.48523,253.26114 293.07468,252.6431C293.70602,251.98114 294.3013,251.4164 294.89999,250.81776C295.59998,250.11787 296.3356,249.79425 297.064,249.19243C297.64761,248.71024 298.11887,247.87546 298.41467,247.01776C298.70938,246.16327 298.3078,245.21103 298.58533,244.41643C298.88409,243.56094 299.784,243.21643 300.46399,242.79242L300.5,241.8651" id="svg_24" stroke-width="3" stroke="#000" fill="none"/>
  <path t="79057,79176,79184,79184,79195,79213,79213,79213,79218,79218,79229,79229,79234,79234,79234,79244,79250,79262,79295,79351,79362,79367,79384,79394,79401,79401,79417,79430,79438,79467,79467,79494,79519,79528,79536,79544,79552,79552,79561,79561,79568,79568,79577,79577,79577,79584,79584,79594,79594,79594,79594,79601,79601,79601,79610,79617,79617,79627,79695,79712,79718,79728,79735,79735,79744,79763,79769,79791,79823,79831,79831,79838,79846,79846,79847,79855,79855,79855,79855,79863,79863,79863,79863,79863,79863,79871,79871,79871,79871,79871,79871,79871,79871,79871,79879,79879,79879,79879,79879,79879,79879,79887,79887,79887,79887,79887,79894,79895,79895,79895,79895,79895,79906,79906,79906,79913,79913,79983,79999,80014,80015,80015,80030,80030,80030,80030,80035,80035,80044,80044,80044,80048,80048,80056,80056,80056,80062,80062,80062,80062,80071,80071,80079,80088,80104,80104,80112,80119,80119,80128,80144,80152,80162,80162,80181,80200,80203,80218,80228,80255,80263,80280,80289,80295,80304,80319,80328,80353,80375,80396,80399,80406,80414,80427,80428,80432,80487,80551,80564,80564,80567,80567,80578,80579,80579,80584,80585,80585,80595,80595,80596,80596,80602,80602,80602,80612,80612,80612,80612,80612,80619,80619,80619,80628,80632,80640,80660,80681,80704,80713,80720,80729,80753,80763,80771,80786,80793,80804,80810,80820,80833,80835,80851,80879,80991,81016,81041,81072,81088,81112,81166,81210,81212,81241,81255,81256,81265,81295,81306,81327,81351,81364,81386,81396,81415,81440,81463,81559" d="M335.5,157.21776C336.41599,157.5031 336.58911,158.47751 337.30133,158.93242C338.04895,159.40994 339.00421,159.37247 339.78665,159.65376C340.50317,159.91136 341.50092,160.46896 342.11465,160.78175C342.95248,161.20876 343.75662,161.19075 344.92099,161.43909C345.71234,161.60786 346.40625,161.96349 347.40268,162.18176C348.19119,162.35449 348.97263,162.77098 349.7955,163.1606C350.48016,163.48477 350.51151,164.41887 349.85266,164.8651C349.06607,165.39783 348.18619,165.56018 347.5,166.21776C346.92413,166.76962 346.27866,167.43909 345.62134,168.09642C345.064,168.65376 344.25232,169.19896 343.78534,169.93242C343.33658,170.63725 343.40216,171.76199 344.02084,172.21776C344.70941,172.72501 345.65897,172.95361 346.5,173.38443C347.16434,173.72473 347.7713,174.55916 348.38535,175.01776C349.12518,175.5703 349.95535,175.93329 350.92117,176.31776C351.44489,176.52625 352.27133,176.75029 353.35751,177.31776C354.04407,177.67645 354.99405,178.23515 355.55334,178.41643C356.5116,178.72702 357.19382,178.89008 358.16666,179.05109C358.97748,179.18529 359.83383,179.2155 360.87466,179.21776C361.82132,179.2198 362.67465,179.21776 363.61334,179.21776C364.41333,179.21776 363.89172,178.70932 363.14282,178.27492C362.41104,177.85045 361.3241,178.36238 360.68533,178.6431C359.72784,179.06387 359.13931,179.78766 358.30133,180.13243C357.54486,180.44366 357.4751,181.22133 357.85718,181.9231C358.26443,182.67108 359.06165,183.15088 359.82166,183.6606C360.58847,184.17488 360.92136,184.63615 361.92184,185.19643C362.72855,185.64818 363.38248,185.84355 364.07199,186.10176C365.24323,186.54037 366.12894,186.8812 366.604,187.07509C367.63174,187.49454 368.18204,187.73314 368.75867,187.98976C370.00333,188.54367 370.66428,188.86002 371.35333,189.18442C372.06262,189.51834 372.78528,189.86076 373.52084,190.19693C374.25864,190.53412 374.9946,190.86636 375.73334,191.16443C377.15814,191.7393 378.52463,192.16913 379.17667,192.34625C379.80478,192.51688 380.41483,192.66391 381.57666,192.90425C382.12585,193.01785 383.65729,193.31769 384.13199,193.41643C385.04932,193.60725 385.94778,193.80034 386.86801,193.93242C387.83075,194.07059 388.86533,194.13509 389.39633,194.16959C390.45834,194.23859 390.98441,194.22734 391.96133,194.38708C393.22665,194.59398 393.87955,194.90887 394.65732,195.3671C395.50928,195.86902 396.52914,196.90247 397.32935,196.21776C397.82306,195.7953 396.63916,195.23576 395.66666,195.21776C394.80283,195.20177 394,195.21776 393.142,195.21776C392.17599,195.21776 391.552,195.21776 390.358,195.21776C389.642,195.21776 388.448,195.21776 387.82401,195.21776C386.858,195.21776 386,195.21776 385.02084,195.21776C384.16666,195.21776 383.22015,195.18477 382.39099,195.33209C381.48764,195.4926 380.60306,195.92027 380.02084,196.21776C379.18326,196.64572 378.19547,197.09547 377.38266,197.19643C376.49036,197.30727 375.90128,197.91798 375.21335,198.50175C374.64963,198.98013 373.63663,199.04964 372.66666,199.38443C371.97968,199.62155 371.17523,199.97997 370.27866,200.21793C369.4967,200.42546 369.31201,201.53706 368.69867,201.93242C367.89166,202.45262 367.06186,202.85422 366.2045,203.1606C365.44873,203.43068 364.79269,203.94257 364.14734,204.57042C363.48349,205.21628 362.58401,205.21776 361.7955,205.21776C360.89999,205.21776 359.93021,205.10535 359.2045,205.57042C358.36884,206.10597 357.84659,206.71107 357.02084,207.19693C356.46619,207.52328 356.49994,208.51776 356.5,209.41776C356.50009,210.31776 356.7178,211.186 357.07468,211.81776C357.55066,212.66037 357.80725,213.83136 357.21466,214.21776C356.44739,214.71806 355.61465,214.21776 354.65332,214.21776C353.81332,214.21776 352.81467,214.21776 351.97916,214.21776C351.09866,214.21776 350.20001,214.21776 349.29999,214.21776C348.39999,214.21776 347.5,214.21776 346.60001,214.21776C345.70001,214.21776 345.09998,214.22617 343.89734,214.21643C343.27859,214.21143 342.28311,214.18425 341.16666,214.05109C340.33105,213.95142 339.45993,213.79277 339.02084,213.71776C338.16238,213.57111 337.00287,213.35672 336.07599,213.27492C335.17264,213.19519 334.23413,213.01042 333.30133,213.21909C332.49429,213.39963 331.77484,214.03476 331.5,214.65376C331.15121,215.43932 331.12903,216.25223 330.47467,216.79242C329.89551,217.27052 329.59406,217.802 329.07468,218.60709C328.60049,219.34213 328.49994,220.16959 328.5,221.06842C328.50009,221.97493 329.11887,222.56006 329.41467,223.41776C329.70938,224.27225 329.59128,225.12578 330.07468,225.79242C330.59518,226.51024 330.81512,227.71461 330.14734,228.1606C329.3714,228.67882 328.33334,228.21776 327.44284,228.21776C326.55267,228.21776 325.73834,228.21776 324.84732,228.21776C323.98401,228.21776 322.98022,228.1702 322.17883,228.43909C321.3345,228.72238 321.08191,229.42374 320.49985,230.09625C320.02469,230.64528 318.77307,229.87825 318,230.23859C317.24277,230.59154 316.6666,231.20805 315.85266,231.21776C314.97897,231.22818 314.11066,231.6431 313.44284,232.21776L312.53601,232.21776" id="svg_26" stroke-width="3" stroke="#000" fill="none"/>
  <path t="85794,85935,85952,85968,85986,86008,86032,86074,86103,86120,86144,86151,86184,86202,86221,86249,86321,86416,86424,86464,86488,86552,86615,86624,86660" d="M141.5,93.21776C141.5,94.21776 141.34009,94.82085 140.784,95.30309C140.20244,95.80742 140.48746,97.04186 140,97.71776C139.4866,98.42963 139.5887,99.27921 139.5,100.19692C139.41628,101.06316 138.54271,101.49867 138.5,102.38442C138.45985,103.21679 138.71381,104.16147 138.5,104.93376C138.27933,105.73086 137.14119,105.7645 136.50133,106.30309C135.87105,106.8336 135.416,107.30309 134.85266,107.86509L134.14734,108.57043L133.52083,109.19692L133.5,110.09643" id="svg_27" stroke-width="3" stroke="#000" fill="none"/>
 </g>
</svg>