<svg width="500" height="334.26183844011143" xmlns="http://www.w3.org/2000/svg" xmlns:svg="http://www.w3.org/2000/svg" xmlns:xlink="http://www.w3.org/1999/xlink">
 <!-- Created with SVG-edit - http://svg-edit.googlecode.com/ -->
 <g display="inline" class="layer">
  <title>Layer 1</title>
  <path t="0,415,439,598,598,599,671,671,702,753,774,823,837,855,856,880,903,927,928,976,988,1006,1055,1071,1103,1168,1191,1231,1263,1263,1312,1317,1341,1355,1355,1372,1373,1416,1416,1438,1456,1457,1495,1527,1543,1567,1631,1632,1696,1735,1735,1756,1772,1790,1790,1806,1823,1840,1857,1878,1984,2023,2023,2039,2063,2087,2087,2215,2247,2247,2279,2303,2303,2325,2447,2504,4207,4224" d="M150.5,287.63092C152.2,286.57825 153.02599,286.09454 153.66667,285.46426C154.15665,284.98224 154.85689,284.293 155.47833,283.6524C156.06244,283.05029 156.48958,282.1311 156.5,281.23093C156.51041,280.33099 156.5,279.43091 156.5,278.53091C156.5,277.63092 156.09726,276.69452 156.58533,275.91626C157.04965,275.17584 157.5,274.63092 157.5,273.83093C157.5,272.93091 157.35402,271.90817 157.936,271.24158C158.54558,270.5434 159.47133,270.27518 159.5,269.43091C159.53055,268.53162 159.97731,267.91556 160.44733,267.26926C161.03426,266.46219 160.84769,265.48593 161.60001,264.87375C162.19878,264.38651 163.14664,264.0145 163.41733,263.14691C163.62747,262.47342 164.04984,261.48984 164.68533,261.0416C165.45622,260.49786 166.092,260.0336 166.8,259.33093C167.50266,258.63358 167.96249,257.96918 168.47467,257.24158C168.93738,256.58426 169.9959,256.81403 170.69867,256.34558C171.49397,255.81548 171.42905,254.69528 172.04167,254.15175C172.69687,253.57043 173.81776,253.82738 174.47917,253.11009C175.06624,252.47343 175.42842,251.54344 176.10001,251.06693C176.82565,250.55203 177.44119,250.05359 178.11067,249.60559C178.8461,249.11346 179.87979,248.94844 180.416,248.34558C180.9942,247.69551 181.15254,246.80455 181.55267,245.93092C181.88499,245.20532 182.70412,244.6109 183.14284,243.93092C183.62816,243.17873 183.80136,242.15398 184.07466,241.45625C184.43941,240.52509 184.7206,239.66423 185.07466,239.03091C185.55617,238.16965 185.5,237.23093 185.5,236.33092L185.5,235.43092L185.50017,234.53091" id="svg_1" stroke-width="3" stroke="#000" fill="none"/>
  <path t="5616,6064,6136,6136,6720,6774,6791,6815,6839,6840,6854,6903,6919,6919,6936,6967,6968,6993,7006,7021,7037,7037,7053,7120,7151,7151,7191,7223,7239,7255,7319,7337,7356,7372,7421,7455,7455,7478,7495,7527,7656,7711,7738,7756,7756,7799,7799,7863,7983,8006,8055,8072,8123,8287,8287,8310,8356,8464,8474,8502,8502,8526,8542,8543,8558,8574,8599,8608,8639,8639,8690,8707,8707,8724,8725,8741,8758,8775,8824,8825,8888,8908,8943,8968,8968,9024,9055,9109,9126,9143,9159,9175,9192,9242,9359,9359,9360,9391,9391,9409,9409,9427,9442,9442,9459,9476,9477,9493,9510,9632,9643,9694,9694,9710,9783,9784,9827,9827,9895,9896,9910,9910,9991,10015,10028,10045,10045,10062,10086,10087,10111,10167,10212,10212,10231,10278,10278,10383,10431,10446,11031,11032,11176" d="M176.5,253.63092C177.11067,255.23093 177.8038,255.92715 178.3,256.43091C178.98445,257.12576 179.4715,257.92953 179.5,258.83093C179.52846,259.73047 179.2794,260.5976 178.92534,261.23093C178.44383,262.09219 178.63531,263.09711 178.21466,263.83093C177.82112,264.51749 176.98491,265.11621 176.40016,265.73093C175.84242,266.31726 175.67261,267.2514 175.47917,268.13092C175.29277,268.97849 174.40712,269.55554 173.936,270.23093C173.4243,270.96451 173.63657,271.98755 173.216,272.83093C172.88608,273.49255 172.46806,274.34238 172.07466,275.03091C171.60944,275.84518 171.7225,276.8468 171.216,277.54691C170.71422,278.24048 170.5,278.93091 170.5,279.83093C170.5,280.73093 170.5,281.63092 170.5,282.43091C170.5,283.33093 170.5,284.23093 170.5,285.13092C170.5,286.03091 170.5,286.93091 170.5,287.83224C170.5,288.79758 170.5,289.45624 170.5,290.46426C170.5,291.32642 170.14571,292.3147 170.52083,293.11008C170.8535,293.81543 172,293.63315 172.89999,293.63092C173.80002,293.62866 174.8369,293.45392 175.21466,292.82959C175.70209,292.02405 175.5,291.03091 175.5,290.13092C175.5,289.22025 175.5,288.3096 175.5,287.45624C175.5,286.51627 175.5,285.63092 175.5,284.83093C175.5,283.93091 175.49759,283.01105 175.92534,282.23093C176.37656,281.40802 176.7455,280.67896 177.14734,279.93091C177.56631,279.15094 177.42943,278.13953 177.536,277.45624C177.68587,276.49536 178.38878,275.90729 178.97917,275.13092C179.53789,274.39618 180.09398,273.75305 180.416,273.06158C180.75134,272.34149 180.91203,271.42181 181.37866,270.5311C181.77356,269.77731 182.72861,269.52353 183.14284,268.92642C183.69016,268.13748 183.44701,267.09613 183.85266,266.33093C184.30104,265.48514 184.98317,265.02374 185.41467,264.34558C185.90782,263.57053 185.22522,262.39206 185.7215,261.75208C186.27391,261.0397 187.0069,260.5929 187.3,260.02826C187.81215,259.04163 188.1723,258.26947 188.69867,257.51627C189.18948,256.81396 189.44994,255.96799 189.78534,255.14825C190.12987,254.30621 190.97884,253.83536 191.69867,253.34558C192.30199,252.93509 192.31403,251.90405 192.536,251.03091C192.7552,250.16864 193.26373,249.36386 193.7215,248.53091C194.09247,247.8559 194.95871,247.40884 195.33333,246.46425C195.64664,245.67427 195.627,244.774 196.11067,244.00558C196.56384,243.28563 197.04974,242.65685 197.37866,241.65242C197.64178,240.84894 198.18555,240.20836 198.44284,239.33092C198.69661,238.46547 198.69086,237.5049 199.2045,236.93092C199.86253,236.1956 200.6843,235.59772 201.064,235.03091C201.61562,234.20746 201.3647,233.16475 201.78534,232.43092C202.17889,231.74435 203.01509,231.14563 203.59984,230.53091C204.15758,229.9446 204.49112,229.01288 204.92534,228.23093C205.38095,227.41046 205.66667,226.63092 206.2045,225.93092L206.7955,225.33092" id="svg_2" stroke-width="3" stroke="#000" fill="none"/>
  <path t="13880,14536,14536,14567,14599,14599,14690,14690,14723,14783,14887,14952,14952,14976,14991,15111,15159,15319,15392,15623,15641,15642,15658,15658,15693,15710,15710,15823,15847,15847,15870,15902,15903,16079,16079,16151,16151,16178,16179,16255,16343,16395,16567,16567,16695,16728,16728,16855,16895,16913,16991,17014,17029,17104,17167,17167,17206,17230,17246,17279,17279,17311,17408,17464,17480,17498,17583,17599,17600,17614,17632,17648,17671,17731,17748,17798,17849,17849,17871,18023,18049,18135,18149,18175,18583,18599,18599,18664,19079,19191,19535,19535,19558,19574,19624,19624,19671,19816,19816,19895,19921,19937,19966,20093,20157,20173,20189,20301,20333,20382,20453,20453,20471,20501,20521,20706,20783,20783,20823,20840,20857,20873,21111,21112,21151,21224,21336,21366,21455,21479,21495,21944,22144,22231,22232,22279,22503,23103,23103,23208,23228,23285,23414,23445,23605,23653,23653,23767,23847,23903,24616,24616,26783,26921,27040,27040,27111,27208,27416,27416,27471,27490,27491,27527,27566,27567,27599,27622,27641,27662,27663,27678,27693,27751,27896,27968,27968,28087,28110,28110,28191,28192,28263,28310,28360,28376,28393,28410,28480,28543,28543,28560,28631,28644,28645,28662,28831,30176,30335,30335,30381,30503,30519,30519,30568,30568,30599,30631,30631,30791,30822,30823,30867,30882,30882,30935,30950,30951,31071,31127,31151,31295,31295,31318,31333,31373,31405,31455,31501,31534,31535,31552,31568,31585,31630,31631,31663,31663,31695,31719,31736,31807,31808,31830,31879,31943,31967,32031,32052,32070,32086,32087,32118,32119,32182,32214,32246,32270,32287,32303,32304,32321,32365,32366,32387,32406,32407,32454,32487,32511,32559,32559,32671,32671,32754,32791,32791,32806,32927,32927,32959,33008,33008,33039,33119,33120,33143,33158,33190,35181,35181,35213,35244,35405,35405,35428,35485,35508,35508,35637,35661,35679,35679,35695,35713,35713,35741,35741,36173,36173,36189,36189,36237,36237,36264,36264,36297,36331,36357,36455,36481,36482,36536,36536,36582,36583,36639,36743,36767,36919,36919,36920,36959,36983,36984,37111,37111,37143,37224,37255,37359,37360,37455,37456,37483,37568,37568,37639,37639,37667,37694,37719,37743,37951,37951,37982,38007,38035,38087,38103,38103,38159,38186,38204,38222,38237,38252,38383,38414,38438,38559,38560,38620,38621,38670,38720,38757,38896,38897,38920,38942,39143,39182,39231,39231,39447,39535,39615,39615,39646,39723,39823,39824,39842,39858" d="M228.5,203.63092C227.33333,204.63092 226.85786,205.14064 226.10001,205.61626C225.26105,206.14276 224.96747,206.86305 224.39999,207.60925C223.86006,208.31923 222.89139,208.4509 222.2045,208.98808C221.46065,209.56979 221.5,210.63092 221.5,211.43092C221.5,212.33092 221.44656,213.38431 222.2045,213.62642C223.05841,213.89919 223.8103,214.24913 224.7,214.54559C225.55766,214.83139 226.53268,214.50531 227.10001,214.02025C227.84671,213.38181 228.3,212.83092 229,212.13092C229.7,211.43092 230.2,210.93092 230.89999,210.23093C231.60001,209.53091 232.10001,209.03091 232.8,208.33092C233.5,207.63092 234.01842,207.14883 234.7,206.42958C235.21425,205.8869 235.78145,204.96724 236.2,204.28358C236.67783,203.5031 237.35483,202.86728 237.48933,202.03091C237.63225,201.14229 237.15758,200.31709 236.5,199.63092C235.91289,199.0183 235.30258,198.16516 234.5,197.79759C233.75728,197.45744 232.68436,197.63388 232.50133,196.82959C232.30193,195.95332 232.5,195.03091 232.5,194.13092C232.5,193.23093 232.36345,192.27428 232.784,191.43092C233.11392,190.76927 233.53152,189.91925 233.92534,189.23093C234.3914,188.41635 234.80084,187.58009 235.14734,186.93092C235.60069,186.08154 235.5,185.13092 235.5,184.23093C235.5,183.33092 235.5,182.43092 235.5,181.53091C235.5,180.63092 235.5,179.83092 235.5,178.93092C235.5,178.03091 235.5,177.13092 235.5,176.23093C235.5,175.33092 235.5,174.43092 235.5,173.53091C235.5,172.63092 235.5,171.83092 235.5,170.93092C235.5,170.03091 235.5,169.13092 235.5,168.23093C235.5,167.33092 235.5,166.43092 235.5,165.53091C235.5,164.63092 235.51799,163.83073 235.5,162.93092C235.48199,162.03038 235.0558,161.23862 234.40016,160.53091C233.8502,159.93729 233.65309,159.11646 233.48933,158.23093C233.33553,157.39919 232.69867,156.83092 232,156.13092C231.30133,155.43092 231.06914,154.64989 230.44733,153.98808C229.87973,153.38399 228.87097,153.56538 228.416,152.82959C227.9919,152.14372 226.85138,151.84286 226.52083,151.11009C226.15923,150.30847 226.5,149.33092 226.5,148.43092C226.5,147.53091 226.33183,146.59448 226.58533,145.83092C226.84167,145.05875 227.48192,144.23154 227.5,143.43092C227.52031,142.53114 227.53545,141.49292 228.2045,140.98808C228.95546,140.42145 229.31465,139.9966 229.52083,139.13092C229.75046,138.16675 230.60718,137.71606 231.064,137.03091C231.59851,136.22922 231.09637,135.43793 230.416,134.91492C229.80472,134.44502 228.8,134.63092 227.89999,134.63092C227,134.63092 226.0894,134.4976 225.2,134.63542C224.26833,134.77979 223.76761,135.50989 223,136.11009C222.35001,136.61833 221.45988,136.95264 220.8,137.27826C219.91515,137.71489 219.68497,136.89967 219.464,136.03091C219.24469,135.16867 218.54271,134.43394 218.5,133.53091C218.45747,132.63193 218.47276,131.83051 218.5,130.93092C218.52859,129.98679 219.35638,129.57912 219.5,128.63092C219.61981,127.83994 219.53137,126.87518 219.064,126.23092C218.49751,125.45005 217.85033,124.62016 216.89999,124.67759C216.01192,124.73126 215.39919,125.73011 214.89999,126.23092C214.20337,126.92979 213.76608,127.66916 213.416,128.43092C213.07144,129.18065 212.19696,129.75504 211.78534,130.43092C211.27226,131.27339 210.64374,131.63983 209.89999,132.24159C209.24692,132.76999 209.11586,133.65045 208.416,134.34558C207.86861,134.88927 207.00626,134.91238 206.2785,135.50958C205.5495,136.1078 204.79887,136.33429 204.2,136.93092C203.49869,137.62961 202.89999,138.23093 202.3,138.83092C201.7,139.43092 200.82611,140.04625 200.55716,140.93092C200.29521,141.79256 199.93114,142.30754 199.536,143.06693C199.13683,143.83403 199.68889,144.90022 199.2785,145.73093C198.93735,146.42149 197.93196,146.93536 197.62151,147.73093C197.29137,148.57695 197.5,149.43092 197.5,150.33092C197.5,151.23093 197.5,152.15175 197.5,153.11491C197.5,153.80559 197.5,154.87375 197.5,155.73093C197.5,156.63092 197.52664,157.42085 197.14284,158.27908C196.77551,159.10046 195.8896,159.51746 195.30133,160.20026C194.83386,160.74283 194.74637,161.8087 194.33333,162.63092C193.93707,163.41974 193.18909,163.92018 192.5,164.63092C191.92679,165.22214 191.65614,166.09497 191.21466,166.83092C190.80757,167.50954 189.82607,168.04623 189.55716,168.93092C189.29488,169.79384 189.30693,170.75496 188.7955,171.33092C188.14529,172.06319 187.81747,172.86234 187.216,173.54692C186.69266,174.14258 186.58212,174.83469 186.49983,175.73093C186.41615,176.64236 185.85266,177.33092 185.5,178.13092C185.14734,178.93092 184.73586,179.77599 184.33333,180.63092C184.01146,181.31454 183.54713,182.11218 183.5045,182.97826C183.46046,183.87268 183.5,184.83092 183.5,185.73093C183.5,186.63092 183.5,187.43092 183.5,188.33092C183.5,189.23093 183.5,190.13092 183.5,191.03091C183.5,191.93092 183.5,192.83092 183.5,193.73093C183.5,194.63092 183.47949,195.40103 183.14734,196.28358C182.88155,196.98981 182.55521,198.00706 182.07466,198.60559C181.54248,199.26843 181.64275,200.14403 181.48933,201.03091C181.34515,201.86438 180.69901,202.43126 180,203.13092C179.40028,203.73122 178.8,204.33092 178.10001,205.03091C177.5,205.63092 176.80162,206.03644 176.02083,206.63092C175.36899,207.12723 175.07321,208.0397 174.5,208.63092C173.90935,209.24013 173.2,209.93092 172.7,210.43092C172,211.13092 171.38158,211.94345 170.7,212.34558C169.93187,212.79877 168.94487,212.79926 168.20984,213.33542C167.52687,213.8336 167.31093,214.97194 166.61333,215.34558C165.76378,215.8006 164.84134,215.80292 164.41733,216.43225C163.89903,217.20154 163.00482,217.42688 162.30133,217.91626C161.51671,218.46207 161.39806,219.42056 161,220.13092C160.50259,221.01855 160.23215,221.84642 159.69867,222.43092C159.04179,223.15063 158.73627,223.89798 158.2785,224.73093C157.90753,225.40594 157.16534,226.13049 156.39999,226.50958C155.55322,226.929 154.82208,227.33488 153.97917,227.63092C153.1954,227.90617 152.50151,228.20569 151.5,228.46425C150.72357,228.6647 149.5332,228.6344 149.04167,229.17259C148.336,229.94527 148.42419,230.84526 148.784,231.74692C149.11058,232.56534 149.48085,233.45561 149.49867,234.14693C149.52348,235.10977 149.49933,236.03091 149.5,236.93092C149.50067,237.83092 149.73326,238.7226 150.2045,239.38809C150.71284,240.10599 151.03455,240.85074 151.7,241.74559C152.15733,242.36058 152.74202,243.01567 153.59984,243.50958C154.33734,243.93422 154.63461,244.81163 154.936,245.45625C155.26694,246.16405 156.01724,246.92439 156.37866,247.73108C156.71049,248.47171 156.97139,249.43863 157.216,250.14693C157.54195,251.0907 157.5,252.03091 157.5,252.93542C157.5,253.79759 157.65343,254.68359 157.2785,255.60942C157.00665,256.28073 156.06532,256.84329 155.66667,257.63092C155.31068,258.33426 155.11699,259.27148 154.85266,259.97824C154.48207,260.96915 153.87383,261.45923 153.2045,261.9881C152.46358,262.57352 152.5,263.63092 152.5,264.43091C152.5,265.33093 152.66522,266.25012 152.47917,267.13092C152.30019,267.9783 151.76312,268.66782 151.416,269.43091C151.02742,270.28519 150.76038,271.07004 150.4955,271.92642C150.25941,272.68973 149.55989,273.18176 149.14734,273.93091C148.68555,274.76947 147.95091,275.30145 147.55716,275.99258C147.08127,276.82791 147.63902,277.67786 147.27867,278.60941C146.97777,279.38727 146.64432,280.24579 146.48933,281.03091C146.30287,281.97546 145.76312,282.66782 145.416,283.43091C145.02742,284.28519 144.51733,285.03036 144.5,285.93091C144.48268,286.83078 144.68993,287.75778 145.2045,288.33093C145.76711,288.95758 146.59389,289.57004 147.5,289.63092C148.2982,289.68454 149.2,289.63165 150.136,289.63092C150.98267,289.63025 151.79016,289.57376 152.51466,289.02026L152.936,288.24158" id="svg_3" stroke-width="3" stroke="#000" fill="none"/>
  <path t="43529,43790,43838,43872,43872,43968" d="M221.5,128.63092C221.12134,130.23093 221.8,130.93092 222.5,131.63092L223.10001,132.19492L223.89999,132.60559" id="svg_4" stroke-width="3" stroke="#000" fill="none"/>
  <path t="51345,51583,51616,51750,51782,51791" d="M210.5,136.63092C209.69867,136.00026 208.936,136.21625 208.14734,136.63542L207.52083,137.15175L207.48933,138.03091" id="svg_6" stroke-width="3" stroke="#000" fill="none"/>
  <path t="59385,59509,59510,59542,59560,59560,59577,59577,59594,59643,59659,59659,59678,59717,59727,59766,59766,59777" d="M195.5,210.63092C196.5,210.63092 197.31862,210.57503 198.02083,210.11009C198.84459,209.56468 199.45895,209.03073 200.4785,208.75243C201.27817,208.53413 202.25574,208.66228 202.89999,208.19492C203.68088,207.62843 203.92978,206.80049 204.52533,206.06693C205.0527,205.41734 205.89999,205.19492 206.59984,204.53091L207.14284,203.93092L207.48933,203.03091" id="svg_7" stroke-width="3" stroke="#000" fill="none"/>
  <path t="60822,60982,61086,61130,61146,61163,61198,61238,61238,61254,61303,61348,61348,61397,61397,61414,61414,61432,61432,61432,61606,61695,61719,61719,61799,61815,61894,62318,62332,62935,62935,62967,62989,63006,63070" d="M197.5,209.63092C195.8,209.63092 194.89999,209.63092 194,209.63092C193.10001,209.63092 192.19345,209.73798 191.3,209.62959C190.38036,209.51804 189.65472,208.86313 189.51067,208.03091C189.35359,207.12352 189.42955,206.13956 189.536,205.45625C189.6859,204.49406 190.31584,203.75616 190.8045,202.97375C191.14627,202.42654 191.81741,201.42793 192.31467,200.84158C192.78662,200.28506 193.19926,199.22018 193.85716,198.68359C194.56049,198.10995 195.27168,197.79768 196.2,197.63542C197.08746,197.4803 197.81033,197.01279 198.7,196.71625C199.55765,196.43037 200.5,196.63092 201.3,196.63092C202.2,196.63092 203.10001,196.63092 203.97917,196.61009L204.55267,195.98358" id="svg_8" stroke-width="3" stroke="#000" fill="none"/>
  <path t="64925,64990,65021,65041,65058,65058,65075,65075,65091,65091,65091,65107,65107,65107,65126,65126,65126" d="M212.5,167.63092C210.8,167.63092 209.83243,167.55356 209.10001,168.06693C208.30992,168.6207 207.81824,169.34985 207.19099,169.93542C206.54742,170.53624 205.72992,171.1152 205.23866,171.46692C204.44696,172.03374 203.66708,172.63141 202.95717,173.22192C202.31104,173.75937 201.5,174.29759 200.71066,174.56958L199.98534,174.71359" id="svg_9" stroke-width="3" stroke="#000" fill="none"/>
  <path t="66159,66260,66276,66293,66293,66311,66311,66329,66329,66344,66383,66399,66414,66414,66446,66461,66478" d="M207.5,174.63092C205.14667,176.03091 204.71793,176.88815 204.2785,177.73108C203.90155,178.45416 203.31078,179.12126 202.89999,179.80559C202.41283,180.61716 202.05583,181.44469 201.47467,182.19492C201.01826,182.7841 200.07425,183.04079 199.40016,183.73093C198.83473,184.30983 198.47467,185.19492 197.88933,185.65625L197.10001,186.06693" id="svg_10" stroke-width="3" stroke="#000" fill="none"/>
  <path t="67151,67344,67406,67407,67407,67407,67430" d="M205.5,186.63092C203.95833,188.15175 203.16667,188.79759 202.49466,189.27908L202,189.61009L201.26801,190.06158L200.172,190.56958" id="svg_11" stroke-width="3" stroke="#000" fill="none"/>
  <path t="68454,68526,68550,68550,68568,68584,68600,68600,68617,68617,68634,68634,68653,68669,68702,68718,68718,68734,68734" d="M212.5,208.63092C210.66667,208.79759 210.28903,209.60309 209.92534,210.23093C209.47937,211.00078 209.57848,211.95526 209.33333,212.79759C209.08252,213.65936 208.59322,214.45326 208.51067,215.25626C208.40561,216.27826 208.5,216.97826 208.5,217.99492C208.5,218.93092 208.5,219.83092 208.50017,220.73108L208.58533,221.51625L208.936,222.44559L209.30133,223.06158" id="svg_12" stroke-width="3" stroke="#000" fill="none"/>
  <path t="69302,69429,69453,69469,69469,69486,69502,69502,69520,69566,69566" d="M213.5,205.63092C213.5,207.43092 213.5,208.26692 213.5,209.11491C213.5,209.97826 213.5,211.00558 213.5,211.95226C213.5,212.63092 213.5,213.60942 213.5,214.63092L213.5,215.43092" id="svg_13" stroke-width="3" stroke="#000" fill="none"/>
  <polyline timestamps="70175,70287,70350" startTime="1502505465150" id="svg_14" points="217.5,198.63091945648193 219,200.1100861231486 219.79999999999998,200.57825278981525 " stroke-linecap="round" stroke-width="3" stroke="#000" fill="none"/>
  <path t="70863,70972,70989,70989,71006,71006,71025,71025" d="M224.5,192.63092C226.2,192.74525 226.78265,193.35176 227.3,194.14825C227.784,194.8934 228.3,195.60025 228.7,196.39758L229,197.11009" id="svg_15" stroke-width="3" stroke="#000" fill="none"/>
  <path t="72183,72262,72285,72310,72342,72342,72366,72409,72409" d="M221.5,196.63092C223.3,196.63092 224.24704,196.39912 225,196.67259C225.82318,196.97156 226.2,197.92558 226.89999,198.56958L227.7,198.91626L228.3,199.43225" id="svg_16" stroke-width="3" stroke="#000" fill="none"/>
  <path t="76495,76663,76823,76823,76855" d="M225.5,157.63092C227.25717,157.63092 228.15266,157.63092 229.01601,157.63092L229.97917,157.63092" id="svg_18" stroke-width="3" stroke="#000" fill="none"/>
  <path t="82728,82934,82934,82967,82988,83005,83021,83102,83122,83122,83142,83204,83221,83221,83238,83238,83255,83272,83272,83288,83357,83357,83406,83429,83452,83492,83492,83492,83516,83516,83531" d="M205.5,167.63092C205.5,166.63092 205.5,165.83092 205.5,164.93092C205.5,164.03091 205.49776,163.13092 205.5,162.23093C205.50226,161.3309 205.7661,160.41383 206.30133,159.83092C206.86951,159.21213 207.24106,158.35095 207.72166,157.53091C208.12982,156.83449 208.96181,156.38681 209.67467,156.06693C210.59001,155.65617 211.63785,155.78809 212.3,155.54559C213.1987,155.21646 213.79625,154.32713 214.3,153.83092C214.99486,153.14648 215.80431,152.73523 216.70134,152.62959C217.67401,152.51506 218.336,152.19492 219.10133,151.82959L219.89734,151.43092L220.62801,151.03091L221.39467,150.33092" id="svg_20" stroke-width="3" stroke="#000" fill="none"/>
  <path t="87943,88041,88059,88059,88085,88102,88102,88166,88166,88197,88342" d="M185.5,228.63092C185.85716,228.04526 186.42168,228.72804 187.10001,229.19492C187.9238,229.76189 188.7885,230.00984 189.38533,230.43225C190.12923,230.95876 190.93066,231.43092 191.45833,232.13092L191.51067,233.03091" id="svg_21" stroke-width="3" stroke="#000" fill="none"/>
  <path t="94208,94336,94369,94369,94369,94369,94385,94385,94385,94385,94385,94386,94386,94386,94386,94401,94401,94401,94401,94402,94402,94402,94402,94402,94418,94418,94418,94419,94419,94419,94419,94434,94435,94435,94435,94452,94452,94453,94469,94469,94469,94469,94486,94487,94487,94487,94506,94506,94506,94506,94506,94506,94506,94507,94519,94519,94519,94519,94519,94535,94536,94536,94536,94536,94536,94553,94553,94553,94553,94568,94568,94568,94569,94569,94586,94587,94587,94602,94603,94603,94620,94620,94620,94635,94636,94653,94653,94653,94669,94669,94669,94669,94669,94670,94670,94685,94685,94686,94686,94686,94702,94703,94703,94703,94724,94735,94753,94754,94770,94770,94771,94771,94787,94787,94787,94787,94787,94802,94803,94803,94803,94803,94821,94821,94821,94836,94836,94837,94853,94869,94869,94869,94869,94887,94888,94888,94888,94904,94905,94905,94925,94925,94926,94926,94965,94966,94989,95004,95022,95053,95118,95136,95136,95154,95155,95172,95189,95215,95239,95239,95287,95287,95342,95343,95355,95374,95389" d="M4.5,241.63092C5.31883,241.63092 6.284,241.63092 7.25,241.63092C7.68133,241.63092 8.756,241.63078 10.16667,241.63092C11.01383,241.63101 11.94401,241.63089 12.94017,241.63542C13.98534,241.64017 15.06255,241.64873 16.15467,241.66692C17.24489,241.68507 18.31689,241.69661 20.33333,241.79759C21.24982,241.84349 22.10192,241.91005 22.89533,241.98808C23.63793,242.06111 24.33396,242.14729 24.98933,242.24159C25.61196,242.33119 26.20606,242.42819 27.33333,242.63092C27.87852,242.72896 28.41224,242.8297 28.93383,242.93092C29.4429,243.02972 29.93959,243.12129 30.88117,243.33092C32.16967,243.61778 32.92825,243.82872 33.61733,244.02025C34.24289,244.19412 35.33069,244.48338 36.28533,244.60559C37.00812,244.69812 38.14349,244.84894 38.80983,244.98358C39.52155,245.1274 40.24489,245.32622 41.67933,245.50941C42.36279,245.59669 43.08322,245.61702 43.88133,245.62642C45.33324,245.64352 45.90683,245.63092 46.52133,245.63092C47.83733,245.63092 48.52083,245.63092 49.20933,245.63092C49.89383,245.63092 50.56533,245.63092 52.41433,245.63092C52.96133,245.63092 53.97733,245.63092 54.45833,245.63092C55.39633,245.63092 56.83333,245.63092 57.3425,245.63092C58.40083,245.63092 58.94,245.63092 60.01333,245.63092C60.5375,245.63092 62,245.63092 62.84533,245.63092C63.60266,245.63092 64.304,245.63092 65.66666,245.63092C66.384,245.63092 67.12534,245.63092 67.87466,245.63092C68.616,245.63092 70.01466,245.63092 70.664,245.63092C71.5955,245.63092 72.79984,245.63092 73.3955,245.63092C74.264,245.63092 75.33334,245.63092 76.264,245.63092C76.8955,245.63092 77.9,245.63092 78.7,245.63092C79.70084,245.63092 80.60416,245.63092 81.18584,245.63092C82.33334,245.63092 83.324,245.63092 83.87683,245.63092C85.0625,245.63092 85.68134,245.63092 86.30817,245.63092C86.936,245.63092 88.75667,245.63092 89.32667,245.63092C90.40667,245.63092 90.91666,245.63092 91.87666,245.63092C93.16666,245.63092 93.92667,245.63092 94.91666,245.63092C95.72667,245.63092 96.68567,245.63092 97.6,245.63092C98.5,245.63092 99.208,245.63092 100.2645,245.63092C100.8715,245.63092 101.932,245.63092 102.704,245.63092C103.90017,245.63092 104.7045,245.63092 105.52084,245.63092C106.35717,245.63092 106.78533,245.63092 108.12117,245.63092C109.04816,245.63092 109.97916,245.63092 110.43867,245.63092C111.33067,245.63092 112.55683,245.63092 113.61733,245.63092C114.24267,245.63092 115.33334,245.63092 116.25333,245.63092C117.01334,245.63092 117.896,245.63092 119,245.63092C119.867,245.63092 120.54166,245.63092 121.25633,245.63092C122.33334,245.63092 123.34283,245.63092 123.97916,245.63092C124.89867,245.63092 126.10133,245.63092 126.71066,245.63092C127.65717,245.63092 128.66667,245.63092 129.38133,245.63092C130.45833,245.63092 131.133,245.63092 132.2355,245.63092C133.06799,245.63092 134,245.63092 134.89999,245.63092C135.8,245.63092 136.7,245.63092 137.60001,245.63092C138.5,245.63092 139.27011,245.61041 140.15266,245.27826C140.85889,245.01247 141.86342,244.649 142.7,244.63092C143.59979,244.61148 144.49953,244.46358 145.136,244.02025C145.98337,243.43002 146.6989,243.06793 147.4785,242.53108C148.11037,242.09598 149,241.65175 149.88933,241.62025L150.5,241.11009" id="svg_22" stroke-width="3" stroke="#000" fill="none"/>
  <path t="97166,97414,97414,97440,97459,97459,97459,97459,97477,97478,97478,97494,97494,97494,97512,97512,97512,97528,97544,97544,97561,97561,97579,97579,97594,97594,97611,97611,97629,97629,97629,97645,97645,97662,97678,97678,97695,97695,97695,97695,97710,97710,97728,97728,97760,97760,97777,97777,97795,97810,97810,97827,97827,97852,97877,97877,97894,97912,97912,97966,97966,97994,98011,98012,98062,98093,98150" d="M204.5,246.63092C205.5,245.63092 206.31511,245.52293 207.20799,245.70293C208.02556,245.86774 208.86449,246.33659 209.52083,246.65175C210.20125,246.97845 211.16667,247.46425 211.98567,247.87375C212.67867,248.22025 213.69606,248.73944 214.31067,249.03091C215.17969,249.44304 216.18506,249.82146 216.70399,250.03091C217.65245,250.41374 218.30281,251.20029 219.06934,251.54692C219.79312,251.87422 220.80603,251.93288 221.29866,252.51759C221.8877,253.21674 222.32056,254.19403 223.15717,254.52109C223.86858,254.79921 224.91129,254.88977 225.7,255.24159C226.51253,255.60403 227.29991,256.0311 227.89999,256.33093C228.89853,256.82986 229.65089,257.23257 230.61467,257.54691C231.48946,257.83221 232.02867,258.18939 232.83333,258.79758C233.49495,259.29764 234.25418,259.7988 234.73199,260.14691C235.70476,260.85562 236.2856,261.35001 237.26666,261.54691C238.20099,261.73444 239.10252,261.88477 239.66667,262.43225C240.32477,263.07089 240.99133,263.47064 241.87466,264.02026C242.64558,264.49994 243.53925,264.49487 244.33333,264.79758C245.15257,265.10989 245.6974,266.09671 246.5,266.46426C247.24272,266.80441 248.15773,266.60236 248.98399,266.91626C249.69768,267.18741 250.63289,267.81052 251.1955,268.33093C251.92455,269.00531 252.5,269.63092 253.10001,270.19492L253.97917,270.63092L254.52533,271.24158L254.936,272.02026" id="svg_23" stroke-width="3" stroke="#000" fill="none"/>
  <path t="98822,98962,98962,98982,98982,98982,98982,98982,98998,98998,98998,99030,99030,99030,99047,99047,99047,99047,99047,99047,99063,99063,99063,99063,99063,99063,99063,99080,99080,99080,99080,99080,99097,99097,99097,99097,99113,99113,99113,99132,99132,99147,99147,99147,99147,99163,99163,99164,99164,99179,99179,99179,99180,99180,99197,99197,99197,99197,99214,99215,99215,99230,99230,99230,99248,99248,99263,99263,99263,99264,99280,99280,99280,99281,99281,99298,99299,99299,99316,99316,99316,99331,99346,99347,99363,99364,99364,99380,99380,99380,99381,99381,99381,99397,99397,99397,99398,99415,99415,99415,99416,99432,99433,99448,99448,99464,99464,99482,99482,99482,99497,99497,99497,99516,99516,99516,99516,99531,99532,99532,99547,99548,99548,99564,99564,99565,99581,99582,99582,99582,99582,99637,99637,99638,99666,99667,99667,99699,99700,99700,99741,99741,99766,99766,99799,99800,99800,99800" d="M252.5,285.63092C253.5,286.63092 254.23468,286.57278 255,286.13092C255.89279,285.61548 256.51401,285.08435 257.142,284.51743C257.4552,284.23468 258.4603,283.04251 258.80267,282.45224C259.2641,281.65677 259.78415,280.72803 260.36801,280.28159C261.03699,279.77008 261.99979,279.29721 262.75732,278.86157C263.17587,278.62088 264.08081,278.10538 264.56799,277.84558C265.58414,277.30374 266.66287,276.78882 267.22116,276.55276C268.34085,276.07938 268.91159,275.87909 269.47916,275.69342C270.58447,275.33185 271.12177,275.15848 272.65701,274.87375C273.12701,274.78659 274.02777,274.68961 274.87866,274.61624C275.69711,274.54568 276.90137,274.41956 277.69101,274.27826C278.46014,274.14063 279.17969,273.94785 280.457,273.75226C281.22501,273.63467 282.11249,273.59784 283.10901,273.27374C283.784,273.0542 284.83008,272.62012 285.46933,272.43225C286.15802,272.22986 286.87729,272.01932 288.33334,271.79758C289.01431,271.69388 289.685,271.65323 290.70984,271.63541C291.83319,271.61588 292.66806,271.63489 293.55066,271.62024C294.00006,271.61279 294.89902,271.61618 296.16666,271.46426C296.9328,271.37247 297.62399,271.18744 298.591,270.98358C299.79526,270.72971 300.39471,270.66916 301.26401,270.64157C302.33286,270.60764 303.04285,270.63092 303.89551,270.63092C304.90268,270.63092 305.772,270.63092 306.83334,270.63092C307.47067,270.63092 308.54166,270.63092 309.30899,270.63092C310.5,270.63092 311.29868,270.63092 312.08932,270.63092C312.86401,270.63092 313.61465,270.63092 314.67834,270.63092C315.65332,270.63092 316.25333,270.63092 317.33334,270.63092C318.25333,270.63092 319.01334,270.63092 320,270.63092C320.98532,270.63092 321.71066,270.63092 322.70065,270.63092C323.58334,270.63092 324.44135,270.63092 325.58566,270.63092C326.03867,270.63092 327.02267,270.63092 327.54166,270.63092C328.60367,270.63092 329.13467,270.63092 330.65683,270.63092C331.58118,270.63092 332.4375,270.63092 333.23383,270.63092C334.33334,270.63092 335.01334,270.63092 335.95834,270.63092C336.81332,270.63092 337.81332,270.63092 338.65332,270.63092C339.616,270.63092 340.384,270.63092 341.34668,270.63092C342.18668,270.63092 343.18533,270.63092 344.02084,270.63092C344.90134,270.63092 345.80042,270.61786 346.71066,270.64157C347.3363,270.65787 348.6691,270.78372 349.38266,270.91626C350.11743,271.05273 350.85016,271.20432 352.16666,271.63092C352.73474,271.815 353.46014,272.1272 354.5,272.63092C355.10556,272.92426 355.94427,273.33463 356.92184,273.50958C357.74966,273.65775 358.38541,273.63034 359.83334,273.79758C360.24341,273.84494 361.1011,273.9819 361.97916,274.13092C362.83777,274.27664 363.99905,274.4722 364.9285,274.57825C365.6673,274.66257 366.70001,274.85275 367.31067,275.05624C368.18509,275.34763 369.18399,275.54691 370,275.63092C370.81601,275.7149 371.84311,275.84787 372.65332,276.24158C373.51666,276.6611 374.04166,277.15176 375,277.79758L375.55334,278.11359L376.18668,278.44559L376.85999,278.76959" id="svg_24" stroke-width="3" stroke="#000" fill="none"/>
  <path t="101446,101677,101686,101686,101687,101704,101704,101704,101720,101721,101721,101721,101721,101721,101738,101738,101738,101738,101738,101738,101738,101754,101754,101754,101755,101755,101755,101755,101771,101771,101771,101771,101771,101789,101789,101789,101804,101804,101804,101804,101804,101821,101821,101821,101821,101821,101821,101838,101838,101838,101838,101838,101838,101855,101855,101855,101855,101855,101855,101871,101871,101871,101871,101871,101889,101889,101889,101905,101905,101921,101921,101921,101938,101938,101939,101956,101956,101956,101956,101971,101971,101971,101971,101972,101988,101989,101989,101989,101989,101989,102005,102005,102005,102005,102005,102006,102006,102006,102006,102022,102022,102022,102023,102023,102023,102039,102039,102039,102055,102072,102088,102089,102106,102106,102121,102121,102121,102139,102139,102140,102155,102156,102188,102188,102206,102206,102206,102221,102222,102260,102260,102284,102284,102306,102486,102493,102507,102522,102522" d="M376.5,283.63092C376.388,283.74292 376.98532,283.1456 377.52084,282.61008C378.10132,282.02957 378.89514,281.22171 379.54166,280.61008C380.00897,280.168 380.82306,279.45123 381.47467,278.94693C382.19296,278.39099 382.59171,278.11044 383.4805,277.58359C383.95233,277.30389 385.56186,276.54602 386.15466,276.31491C386.76453,276.07715 387.39679,275.85471 388.04166,275.63092C389.35522,275.17508 390.0246,274.96277 391.33334,274.46426C391.98102,274.21756 392.6127,273.95291 393.22934,273.68274C394.42065,273.16077 394.9808,272.89108 395.52399,272.64075C396.99857,271.96115 397.84036,271.59229 398.59201,271.30292C399.26483,271.04388 399.89493,270.83038 401.10132,270.43091C401.71014,270.22931 402.65475,269.92273 403.66666,269.63092C404.38501,269.42377 405.14825,269.22586 405.94666,268.99493C406.78839,268.75146 408.12158,268.30945 408.58667,268.14825C409.54645,267.81561 410.03644,267.63416 411.06168,267.34076C411.58417,267.19122 413.22046,266.86655 413.784,266.80026C414.35187,266.73349 415.49997,266.65112 416.07468,266.61624C417.21591,266.54697 418.33502,266.47858 419.41333,266.34558C419.93924,266.2807 420.95911,266.11417 421.45334,266.02026C422.41489,265.83755 423.77832,265.53104 424.21335,265.43225C425.05331,265.24149 425.84955,265.04642 426.61334,264.91626C428.00745,264.67868 428.65292,264.65308 429.53833,264.63541C430.57831,264.61465 431.47919,264.63763 432.5,264.63092C433.31073,264.62558 433.96417,264.61063 434.92151,264.40958C435.74323,264.237 436.59631,263.93634 437.80032,263.75226C438.40582,263.6597 439.37308,263.6171 440.07068,263.54691C441.24493,263.42877 442.11038,263.27689 442.56134,263.19492C443.48651,263.02673 444.41791,262.83228 445.33334,262.63092C446.22458,262.43488 447.13733,262.23404 447.625,262.15176C448.69302,261.97156 449.29443,261.89655 450.66666,261.79758C451.44861,261.74118 452.28787,261.7124 453.16867,261.68808C454.07724,261.66296 454.99997,261.64981 455.92267,261.64157C456.83133,261.63348 457.71201,261.63159 459.33334,261.63092C460.04916,261.63062 460.70001,261.63092 461.29083,261.63092C462.3125,261.63092 463.15417,261.63092 464.16666,261.63092C464.98117,261.63092 465.83383,261.63092 466.86401,261.63092C467.70001,261.63092 468.60016,261.63092 469.38535,261.63092C470.34668,261.63092 471.18668,261.63092 472.18533,261.63092C473.02084,261.63092 473.60449,261.63092 474.79984,261.63092C475.68933,261.63092 476.54285,261.63092 477.57834,261.63092C478.25333,261.63092 479.33905,261.56332 480.16135,261.66693C481.05505,261.77954 481.7558,262.07693 482.55182,262.27826C483.57196,262.53629 484.4996,262.4841 485.33334,262.79758C486.15399,263.10611 486.6955,263.83548 487.29999,264.43091C487.99484,265.11536 488.79999,265.57376 489.70001,265.63092L490.60001,265.63092L491.5,265.63092L492.31433,265.68808" id="svg_25" stroke-width="3" stroke="#000" fill="none"/>
  <path t="109782,110230,110230,110310,110341,110361,110379,110398,110486,110486,110511,110527,110594,110594,110611,110611,110678,110678,110765,110796,110845,110878,110896,110896,110913,110913,110929,111062,111101,111141,111165,111180,111181,111196,111213,111213,111213,111230,111284,111284,111299,111299,111312,111329,111346,111363,111364,111438,111453,111453,111469,111469,111481,111481,111497,111498,111550,111550,111575,111606,111615,111632,111709,111749,111765,111814,111814,111950,111973,111998,111998,112086,112125,112294,112294,112349,112398,112462,112509,112541,112583,112605,112606,112678,112678,112701,112717,112741,112774,112785,112804,112817,112836,112836,112836,112853,112853,112886,112886,112950,112990,113102,113142,113239,113253,113253,113447,113566,114015,114037,114102,114406,114407,114420" d="M234.5,124.63092C233.5,124.63092 232.7,124.63092 231.8,124.63092C230.89999,124.63092 230,124.63317 229.10001,124.63092C228.19998,124.62867 227.28291,124.36482 226.7,123.82959C226.08121,123.26141 225.29333,122.76952 224.39983,122.63058C223.60594,122.50714 222.83777,121.93138 222.32533,121.44559C221.50587,120.66874 220.84871,120.17855 220.11067,119.65625C219.45448,119.19188 219.5,118.23092 219.5,117.32642C219.5,116.46426 219.5,115.63092 219.5,114.65242C219.5,113.83225 219.30922,112.90262 219.536,112.03092C219.75879,111.17452 220.69698,110.67364 221.60001,110.63092C222.49899,110.58839 223.3,110.63092 224.172,110.63092C225.04266,110.63092 226,110.63092 226.73199,110.63092C227.69017,110.63092 228.66667,110.63092 229.5,110.63092C230.4785,110.63092 231.29866,110.63092 232.2,110.63092C233.10001,110.63092 234.02083,110.63092 234.82133,110.63092C235.67467,110.63092 236.61467,110.63092 237.60017,110.63092C238.38533,110.63092 239.336,110.63092 240.10133,110.63092C241.10001,110.63092 241.90027,110.60899 242.89867,110.63226C243.66458,110.6501 244.5739,110.98748 245.29866,111.34692C246.16064,111.77441 246.92638,112.2937 247.7,112.54559C248.55948,112.82542 249.17766,113.1978 249.936,113.59492C250.70226,113.99617 251.63031,113.81766 252.3,114.43225C252.91893,115.00026 253.26373,115.89798 253.7215,116.73092C254.09247,117.40595 255.00951,117.81237 255.37849,118.73092C255.71701,119.57363 255.5,120.43092 255.5,121.33092C255.5,122.23092 255.54538,123.1917 254.88933,123.65625C254.1709,124.16498 253.7618,124.9535 253.16667,125.63092C252.61359,126.26049 251.6778,126.54282 250.8045,126.62642C249.9041,126.71262 248.94803,126.34184 248.11067,126.64159C247.37392,126.90533 246.88937,127.62559 246,127.63092C245.07867,127.63644 244.16667,127.63092 243.23866,127.63092C242.44817,127.63092 241.42166,127.63092 240.74667,127.63092C239.66667,127.63092 238.91066,127.63092 238,127.63092C237.10001,127.63092 236.2,127.63092 235.3,127.63092C234.39999,127.63092 233.5,127.63092 232.7,127.63092C231.8,127.63092 230.77667,127.77756 230.11067,127.19492C229.41283,126.58442 229.5,125.53092 229.5,124.63092L229.58533,123.83092L230.11067,123.06692" id="svg_27" stroke-width="3" stroke="#000" fill="none"/>
 </g>
</svg>