<svg width="280" height="420" xmlns="http://www.w3.org/2000/svg" xmlns:svg="http://www.w3.org/2000/svg" xmlns:xlink="http://www.w3.org/1999/xlink">
 <!-- Created with SVG-edit - http://svg-edit.googlecode.com/ -->
 <g display="inline" class="layer">
  <title>Layer 1</title>
  <path t="0,625,645,689,777,906,951,967,1201,1249,1266,1288,1337,1377,1593,1611,1737,1817,1849,2025,2200,2243,2266,2285,2304,2625,2625,2649,2713,2777,2818,2857,2953,3049,3057,3078,3137,3426,3673,3696,3800,4609,4673,4745,4865,4921,5001,5257,5424,5753,5865,6009,6033,6130,6154,6178,6224,6245,6266,6329,6569,6605,6615,6704,6801,7017,7057,7082,7144,7162,7201,7497,7515,7533,7563,7608,7750,7817,7866,7969,8097,8114,8197,8273,8377,8395,8395,8419,8538,9489,9489,9849,9888,9897,9914,9938,9961,9982,10004,10009,10026,10048,10048,10066,10066,10067,10129,10129,10649,10649,10683,10713,10809,10829,10928,10992,11065,11161,11181,11344,11481,11520,11553,11601,11681,11728,11800,11801,11842,11913,11914,12038,12113,12137,12138,12265,12306,12340,12340,12362,12410,12625,12650,12691,12752,12753,13065,13097,13116,13257" d="M158,173.63333C158,172.832 158.02791,171.91597 158.5,171.15417C158.97147,170.39339 158.68343,169.47008 159.01067,168.65866C159.31865,167.89497 160.61957,167.84038 160.97917,167.1125C161.36412,166.33334 161.57874,165.8078 162.284,165.34933C163.06784,164.83978 163.53654,164.48799 164,163.91733C164.42458,163.39455 165.5,163.63333 166.38933,163.63333C167.35266,163.63333 167.75557,163.98335 168.08533,164.71867C168.42749,165.48166 168.99466,166.23329 169,167.1125C169.00584,168.07599 169,168.78267 169,169.8C169,170.69051 169,171.63333 169,172.46667C169,173.28067 168.83638,174.07918 168.35266,174.686C167.83717,175.33269 168.18752,176.37558 167.964,177.244C167.74701,178.08711 167.47722,178.97871 166.964,179.62267C166.41936,180.30605 165.60185,180.9693 166.22133,181.51184C166.87669,182.08582 168,181.63333 168.87866,181.63333C169.716,181.63333 170.64734,181.63333 171.5,181.63333C172.42534,181.63333 173,181.98601 173,182.85468C173,183.71733 173.06052,184.73085 172.38933,185.20801C171.67979,185.71243 170.49834,185.7603 170.12151,186.51201C169.74234,187.26839 169.64685,188.22211 168.80133,188.548C167.99345,188.85939 167.47112,189.34792 166.98933,190.05867C166.52731,190.7403 165.89146,191.17126 165.12134,191.6335C164.43761,192.04388 164.26122,192.99124 163.91467,193.71733C163.53009,194.52312 162.69197,195.06337 161.90016,195.51201C161.15994,195.93141 161,196.73317 161,197.644C161,198.51201 161,199.33783 161,200.27617C161,201.13333 161.23595,202.10364 160.9955,202.92883C160.77451,203.68723 160.12209,203.9942 159.99867,204.91867C159.88702,205.75499 159.05243,206.07784 158.35716,206.62883C157.82387,207.05145 158,208.076 158,208.92801C158,209.91733 158,210.8 158,211.73317C158,212.57617 158,213.33867 158,214.3C158,215.20801 158,216.06934 158,217.03334C158,217.83467 158,218.8 158,219.65417C158,220.63333 158,221.43333 158,222.23334C158,223.22433 158,224.06267 158,225.07617C158,225.81866 158,226.74667 158,227.66934C158,228.63333 158.39751,229.57033 158,230.28067C157.67075,230.86905 157.00246,231.13333 157,232.06934C156.99774,232.92885 156.32632,233.37543 156,233.99051C155.56023,234.81941 155.33011,235.43544 155.02083,236.13333C154.64583,236.97954 155.25291,238.00575 154.83333,238.8C154.47044,239.48691 153.22415,239.52806 153,240.20134C152.77046,240.89081 152.53882,241.6815 152.12151,242.51216C151.74648,243.25864 152.18752,244.16125 151.64734,244.98601C151.16122,245.7282 150.18553,245.84819 149.56799,246.43466C148.8662,247.10115 149.17102,248.19528 148.716,248.91733C148.23949,249.67349 147.5,250.13333 146.83333,250.8C146.284,251.34933 145.564,252.05867 144.80133,252.54933L144.08533,252.91733L143.77867,253.6335" id="svg_1" stroke-width="3" stroke="#000" fill="none"/>
  <path t="18079,18761,19010,19186,19212,19394,19449,19513,19537,19633,19666,19666,19729,19817,19817,19947,20014,20074,20087,20155,20182,20202,20234,20433,20529,20529,20569,20665,20785,20873,20943,21057,21065,21112,21145,21193,21211,21440,21585,21611,21689,21793,21818,21856,21905,21945,22297,22360,22514,22545,22625,22688,23001" d="M157,173.63333C156,173.63333 155.08533,173.63333 154.2955,173.63333C153.35716,173.63333 152.5,173.63333 151.57466,173.63333C150.64284,173.63333 149.62027,173.38641 149.05267,173.99051C148.43088,174.6523 148.19901,175.43367 147.52083,176.1125C146.83366,176.80034 146.14923,177.31384 146,178.15417C145.84813,179.00935 145.4637,179.46057 144.52083,179.63333C143.68091,179.78723 143.34689,180.69084 143,181.46667C142.65985,182.22742 141.70068,182.431 140.90016,182.85483C140.25789,183.19487 139.98282,184.168 139.5,184.65417C138.91132,185.24696 138.17325,185.52132 137.52083,186.13333C136.83383,186.77779 136.59703,187.63358 136,188.13333C135.37489,188.6566 134.58815,188.95195 134.12134,189.73317C133.65392,190.51543 133.04791,191.08101 132.5,191.6125C132.019,192.07909 131.85753,193.13791 132.5,193.6125C133.17659,194.11229 133.9126,194.59061 134.716,194.63333C135.64603,194.68279 136.5,194.63579 137.436,194.63333C138.29552,194.63107 138.97467,194.20801 139.57466,193.644L140.35266,193.28067" id="svg_2" stroke-width="3" stroke="#000" fill="none"/>
  <path t="27683,28113,28329,28330,28442,28608,28633,28704,28737,28826,28945,28961,29008,29065,29090,29152,29160,29321,29352,29424,29425,29504,29648,29712,29745,29776,29801,29833,29936,29962,30025,30169,30377,30576,30640,30729,30872,31040,31113,31199,31216,31288,31329,31377,31416,31449,31601,31656,31761,31779,31779,31802,31840,31945,31961,31962,32009,32034,32065,32105,32131,32152,32180,32203,32220,32226,32250,32250,32271,32290,32320,32349,32425,32425,32560,32608,32608,32720,32729,32777,32814,32814,32833,32880,32899,32937,32979,33067,33067,33081,33136,33178,33204,33204,33328,33392,33413,33433,33454,33475,33503,33528,33549,33554,33616,33801,33834,33852,33874,33898,33952,34065,34112,34168,34199,34219,34250,34296,34353,34353,34440,34472,34504,34513,34585,34617,34688,34736,34817,34904,34945,34968,34998,35005,35029,35051,35051,35072,35091,35112,35173,35360,35473,35584,35593,35736,35760,35801,35840,35865,35920,35968,35977,36032,36051,36096,36097,36128,36217,36249,36277,36330,36363,36440,36481,36520,36561,36625,36664,36736,36768,36801,36833,36920,36948,37040,37154,37184,37249,37288,37317,37353,37413,37419,37449,37450,37488,37512,37544,37592,37618,37625,37690,37720,37802,37872,37904,37915,37984,38025,38049,38082,38102,38160,38180,38272,38281,38377,38425,38466,38504,38624,38656,38705,38713,38753,38787,38832,38920,38921,38949,39032,39033,39052,39057,39083,39137,39137,39168,39244,39245,39274,39274,39300,39300,39306,39334,39355,39377,39378,39416,39417,39473,39513,39536,39545,39576,39600,39625,40448,40496,40528,40553,40600,40664,40760,40856,40888,40936,41025,41066,41096,41153,41184,41224,41288,41289,41297,41376,41448,41449,41528,41560,41592,41649,41672,41712,41792,41824,41852,41920,41960,41984,42040,42074,42099,42126,42157,42208,42234,42235,42321,42352,42384,42393,42504,42672,42752,42753,42808,44617,44897,44960,44984,45152,45240,45304,45464,45496,45544,45625,45672,45729,45800,45977,46000,46025,46051,46096,46122" d="M141,194.63333C139.964,194.69467 139.52159,195.47365 139.284,196.15067C138.92918,197.16167 138.69202,198.06345 137.90016,198.51201C137.15996,198.93132 137.62413,199.94337 136.98933,200.59734C136.38425,201.2207 135.25908,200.41934 134.35266,200.63333C133.58517,200.81451 132.82317,201.31667 132.12134,201.85468C131.48305,202.34398 131.21483,203.23427 130.64734,203.63333C129.91391,204.14909 129.25339,204.29816 128.61067,205.02267C127.95467,205.76216 127.84371,206.32091 127.16666,206.8C126.45289,207.3051 126.0507,208.08388 125.5,208.6125C125.0108,209.08209 124.41052,209.46808 123.5,209.63333C122.67955,209.78223 122.21687,210.58487 121.94283,211.33783C121.63766,212.17633 120.69978,212.34833 119.916,212.71867C119.19654,213.05862 119.20771,214.24429 118.71467,214.91733C118.18198,215.6445 117.00094,215.20076 116.284,215.63333C115.65746,216.01135 115.26695,216.44139 114.4,216.66934C113.54419,216.89436 113.40437,218.01726 112.83334,218.63333C112.2232,219.29158 111.61098,219.68739 111.084,220.464C110.64436,221.11189 110.20072,221.86702 109.83334,222.63333C109.471,223.38911 108.56998,223.79283 107.94733,224.28067C107.27303,224.80899 106.26912,224.45061 105.4,224.66934C104.5372,224.88649 103.68533,225.38031 103.084,225.91733C102.4898,226.44797 101.88821,227.07568 101,227.46667C100.34237,227.75616 99.39999,227.62744 98.436,227.63333C97.56396,227.63867 96.67913,227.96851 96,228.63333C95.50513,229.11778 95.14983,230.23148 94.432,230.548C93.63772,230.89824 92.60251,230.58591 92.02084,231.13333C91.52187,231.60292 90.78046,231.89677 90.2,232.43466C89.49617,233.08685 88.71445,233.61345 87.80133,233.63333C86.97408,233.65134 86.35267,234.28067 85.71467,234.91867C85.19867,235.43466 84.42381,236.03824 83.91467,236.804C83.39095,237.59169 83.52372,238.61946 83.00134,239.34666C82.61614,239.88289 81.94733,240.33783 81.5,241.13333C81.05267,241.92883 80.33652,242.44328 80.02084,243.15417C79.63153,244.03085 79.40561,244.50798 78.61066,245.05867C77.89193,245.55656 77.31022,246.24095 76.716,246.91867C76.12174,247.59644 75.8457,248.54951 75,248.63333C74.12578,248.71997 73.97903,249.45241 73.57467,250.06934C73.02342,250.91037 72.59729,251.34256 71.7045,251.63783C70.94908,251.88768 71.28441,253.12968 70.71467,253.63467C70.08329,254.19429 69.13734,254.09052 68.42533,254.66934C67.8124,255.16763 67.97124,256.20889 67.284,256.63199C66.57131,257.07077 65.7223,257.31488 64.91467,257.71866C64.16673,258.09259 63.4357,258.51425 62.7045,258.98599C61.88757,259.51303 61.19867,259.63333 60.3,259.63333C59.4,259.63333 58.46025,259.58987 57.67883,259.85468C56.83535,260.1405 56.00019,260.62289 55.14933,260.63333C54.16941,260.64532 53.38933,260.63333 52.5,260.63333C51.6,260.63333 50.56964,260.6683 50.02083,260.13333C49.53525,259.66 48.83342,259.20053 48.35266,258.58066C47.80229,257.87103 47.14395,257.58334 47,256.71735C46.84958,255.81242 46.26194,255.24968 46,254.412C45.7519,253.61856 45.9454,252.52322 45.38933,252.06934C44.63649,251.45483 44.14875,250.90207 43.564,250.244C42.94886,249.55174 41.97467,249.63333 41.08267,249.63333C40.29467,249.63333 39.33333,249.63333 38.42533,249.63333C37.57467,249.63333 36.64283,249.63333 35.7045,249.63333C34.83333,249.63333 33.99399,249.91472 34,250.832C34.00527,251.63652 34.95903,251.67036 35,252.43466C35.0491,253.35068 35.71406,253.9953 36.35266,254.57617C36.89443,255.06895 36.88922,255.74019 37,256.63333C37.11152,257.53241 37.99775,257.74768 38,258.49466C38.00293,259.46667 37.98646,260.35483 38.42533,261.06934C38.90018,261.84244 38.77747,262.84924 39.284,263.54935C39.78577,264.24289 39.83864,264.99814 40.22133,265.73315C40.6625,266.58047 41.61225,266.55963 42.35717,266.98599C43.14702,267.43805 43.76779,267.87561 44,268.79999C44.19506,269.57645 45.2,269.63092 46.09983,269.63333C46.94284,269.63559 47.17761,270.3298 48,270.63333C48.89825,270.96484 49.36027,271.68103 50.02533,272.20801C50.65156,272.70419 51.564,272.63333 52.5,272.63333C53.35717,272.63333 54.2955,272.63333 55.16667,272.63333C56.05267,272.63333 56.94733,272.63333 57.80133,272.63333C58.64283,272.63333 59.56933,272.63333 60.35183,272.63333C61.35333,272.63333 62.1339,272.28534 62.80133,271.91733C63.62548,271.46292 64.63984,271.66956 65.41067,271.19733C66.21494,270.70459 66.76287,270.12585 67.66666,269.79999C68.41349,269.5307 69.43671,269.75827 70.24284,269.27167C70.8974,268.87656 71.20347,267.91379 71.7,267.34317C72.38422,266.55682 73.51546,266.74371 74,266.11249C74.52305,265.43109 74.88725,264.83426 75.81467,264.23334C76.43105,263.83395 76.84039,262.91168 77.436,262.24399C78.05296,261.55234 78.86343,261.30728 79.42533,260.65866C79.93465,260.07074 80.89099,258.34235 80,258.34235C79.83035,258.34235 80,259.33783 80,260.27615C80,261.15417 80,262.02267 80,262.91733C80,263.85483 80,264.73315 80,265.63333C80,266.51199 79.99033,267.3494 80,268.20801C80.01042,269.13351 80.73694,269.58304 81,270.20801C81.34753,271.03366 81.47128,271.93439 82.19867,272.46268C82.90215,272.97357 83.12186,273.6694 83.64733,274.27615C84.30452,275.035 85.36369,275.01245 85.94283,275.63785C86.48563,276.224 86,277.34799 86,278.20801C86,279.15417 86,280.03333 86,280.92883C86,281.85483 86.00008,282.73334 86,283.63333C85.99992,284.51184 85.17261,284.22275 84.35717,284.69049C83.66938,285.08502 83.3894,285.82742 82.83334,286.46667C82.24428,287.14383 81.37444,287.32181 80.57467,287.63333C79.73193,287.96158 79.2244,288.58768 78.94283,289.33783C78.62557,290.18307 77.61459,290.35428 76.83334,290.79999C76.15854,291.18497 75.35619,291.79935 75.01067,292.65866C74.66837,293.50995 75.80133,293.63333 76.71467,293.63333C77.57467,293.63333 78.5,293.63333 79.42533,293.63333C80.28533,293.63333 81.27263,293.3382 82.05267,293.69049C82.81622,294.03534 83.42533,294.63333 84.35717,294.63333C85.19867,294.63333 86.00308,294.44122 86.7045,293.98599C87.4921,293.47482 88.05267,292.98599 88.83334,292.46667L89,291.63333" id="svg_3" stroke-width="3" stroke="#000" fill="none"/>
  <path t="50279,50632,50808,50881,50904,51008,51029,51050,51096,51129,51209,51281,51321,51353,51379,51410,51449,51521,51619,51697,51914,52122,52385,52465,52489,52537,52666,52705,52817,53137,53177,53198,53219,53219,53281,53417,53457,53634,53650,53650,53682,53772,53809,53809,53810,53849,53921,53947,53954,54011,54058,54097,54098,54118,54161,54184,54211,54234,54281,54417,54481,54501,54519,54563,54593,54625,54652,54673,54699,54737,54765,54791,54812,54833,54845,54866,54913,54931,54965,55016,55080,55104,55152,55217,55282,55345,55363,55441,55569,55649,55705,55817,55849,55870,55921,55953,55982,56042,56065,56105,56137,56226,56234,56267,56314,56433,56473,57690,57809,57874,57966,57984,58145,58266,58266" d="M88,276.63333C88,278.28067 88,279.20801 88,280.06934C88,280.92883 88,281.85483 88,282.73315C88,283.65866 88,284.54935 88,285.34933C88,286.28067 87.84666,287.16956 88.01067,288.03333C88.19027,288.97925 88.9163,289.62158 89,290.51184C89.07732,291.3342 88.70894,292.28293 89,293.11249C89.22537,293.75485 89.99467,294.24393 90,295.13333C90.00533,296.02264 90.284,296.63333 91.22134,296.63333C92.08533,296.63333 93,296.63333 93.87867,296.63333C94.716,296.63333 95.75397,296.79251 96.35267,296.27615C97.04192,295.68167 97.24141,294.68295 97.64733,293.99051C98.08632,293.24164 97.82662,292.2572 98.284,291.43466C98.69193,290.70105 99,289.92349 99,289.28149C99,288.17499 98.89582,287.21619 99.33334,286.46667C99.75135,285.75055 100.70164,285.33868 101,284.41183C101.2692,283.57559 100.46064,282.44815 101.00017,281.75482C101.44642,281.18137 102.53101,281.14301 103.19867,280.43335C103.74094,279.85696 104.07369,279.08624 104.57467,278.59732C105.1628,278.02335 105.53946,277.18369 106.2955,276.686C106.98193,276.23413 107,275.34933 107,274.41183C107,273.53351 107,272.66934 107,271.78265C107,270.87616 106.96524,270.09479 106.5,269.61249C105.96793,269.06091 106.3239,268.00177 105.98933,267.20801C105.67954,266.47302 105,266.11249 105,265.23334C105,264.33783 105,263.41199 105,262.54935C105,261.63333 105,260.75467 105,259.92883C105,258.99051 105.31876,258.22174 106.09983,257.75467C106.88092,257.2876 106.6479,256.20303 107.28533,255.71867C108.01572,255.1637 109.05267,255.63333 109.964,255.63333C110.80133,255.63333 111.7,255.63333 112.564,255.63333C113.436,255.63333 114.4,255.63333 115.2955,255.63333C116.16666,255.63333 117.09983,255.63333 117.94733,255.63333C118.83334,255.63333 119.7045,255.63333 120.6,255.63333C121.47916,255.63333 122.39364,255.37874 123.2955,255.63783C124.06342,255.85844 124.49982,256.62289 125.436,256.63333C126.29995,256.64294 127.19867,256.63333 128.08533,256.63333C129,256.63333 129.80133,256.63333 130.71466,256.63333L131.64734,256.63333L132.56799,256.63333L133.29466,256.63333" id="svg_4" stroke-width="3" stroke="#000" fill="none"/>
  <path t="62682,63001,63057,63105,63114,63138,63146,63166,63180,63200,63222,63252,63252,63271,63345,63393,63416,63416,63438,63459,63483,63483,63491,63513,63535,63541,63562,63635,63635,63713,63737,63766,63777,63798,63810,63810,63816,63836,63881,63946,64025,64185,64257,64258,64337,64425,64447,64553,64581,64617,64654,64678,64746,64768,64825,64834,64896,64968,65024,65049,65082,65140,65225,65225,65360,65400,65435,65466,65529,65569,65601,65665,65697,65761,65783,65825,65873,65953,65985,66018,66057,66169,66198,66241,66312,66312,66825,67321,67657,67841,67897,67961,67984,68073,68129,68241,68273,68297,68329,68350,68385,68449,68514,68534,68560,68649,68668,68691,68712,68761,68977,69129,69177,69282,69323,69323,69345,69386,69465,69673,69713,69777,69833,69881,69937,69985,70185,70337,70367,70793,71018,71075,71257,71385,71416,71477,71633,71667,71695,71720,71742,71764,71771,71791,71823,71823,71843,71872,71929,71929" d="M142,216.63333C142.716,217.34933 143,218.13333 143,219.06934C143,219.93333 142.68701,220.92207 143.08533,221.71733C143.46019,222.46579 144.71381,222.4975 144.98933,223.244C145.31946,224.13843 144.99841,225.07617 145,225.81866C145.00226,226.87167 145.62234,227.29179 146,227.92C146.4534,228.67421 146,229.6125 146,230.63333C146,231.49467 146,232.46667 146,233.22267C146,234.13333 146,235.03334 146,235.93333C146,236.832 146,237.71733 146,238.63333C146,239.43333 146,240.33333 146,241.23334C146,242.1125 146.12807,243.07956 145.9955,243.93333C145.85103,244.86371 145.04482,245.0948 144.35716,245.686C143.69824,246.2525 143.25314,247.17053 143.036,248.03334C142.81726,248.90245 143.17964,249.85727 142.83333,250.63333C142.50623,251.36633 142,252.13333 142,252.99051C142,253.92883 142.49539,254.3192 142.94284,254.98601C143.42792,255.70888 142.99046,256.83154 143.64734,257.28067C144.41577,257.80606 145.19298,258.03699 145.716,258.71735C146.1859,259.32861 146.3914,259.92004 146.94284,260.63785C147.47652,261.33252 147,262.33783 147,263.19733C147,264.13333 147,265.07599 147,265.78265C147,266.85483 147.00009,267.73334 147,268.63333C146.99991,269.51184 146.14464,269.59213 146,270.33783C145.83633,271.18161 146.27122,272.17914 145.9955,272.98599C145.73187,273.75742 145.36411,274.33331 144.97917,275.11249C144.61957,275.84039 143.82991,276.08563 143.35266,276.74316C142.87939,277.3952 143,278.51901 143,279.33783C143,280.27615 143.10809,281.16547 142.77867,282.07599C142.50989,282.81894 142.00067,283.65717 141.12134,283.63333C140.27997,283.61053 140,282.71735 140,281.79999C140,281.02267 140,280.06934 140,279.20801C140,278.28067 140,277.34799 140,276.53333C140,275.63333 139.93649,274.71307 140.0045,273.92801C140.08864,272.95673 140.97141,272.63037 141,271.832C141.03217,270.93393 141,270.06934 141,269.11249C141,268.23334 141,267.33783 141,266.46399C141,265.63333 141.2988,264.60303 140.99983,263.75467C140.73479,263.00256 140.19043,262.26984 139.7785,261.53351C139.36589,260.79596 138.28192,261.06195 137.436,260.59732C136.78015,260.23709 136.57466,259.20801 135.94733,258.58066C135.35266,257.98599 134.33051,257.79889 134.02083,257.11249C133.61806,256.21976 134,255.244 134,254.34933C134,253.46667 134,252.58067 134,251.69051C134,250.832 134,249.99051 134,249.05867C134,248.19734 134,247.244 134,246.34933C134,245.46667 134,244.58067 134,243.63333C134,242.8 134.18504,241.90187 133.964,241.03334C133.74693,240.18039 133.00226,239.58069 133,238.63333C132.99809,237.83333 133,236.91867 133,236.09167L133,235.15067L133,234.34317" id="svg_5" stroke-width="3" stroke="#000" fill="none"/>
  <path t="74300,74578,74609,74616,74636,74661,74668,74668,74700,74722,74753,74784,74818,74826,74929,75009,75137,75185,75225,75265,75288,75308,75335,75385,75394,75458,75537,75546,75593,75632,75658,75678,75769,75769,75874,75882,75985,76016,76081,76101,76114,76161,76409,76505,76535,76609,77113,77273,77313,77380,77425,77530,77585,77634,77657,77690,77739,77766,77801,77889,77917,77954,78041,78073,78084,78104,78153,78203,78210,78281,78281,78313" d="M136,257.63333C136,259.24399 136,260.13333 136,261.03333C136,261.93335 136.19714,262.94928 135.66667,263.63333C135.15599,264.29184 134.12256,264.7092 134,265.63333C133.89044,266.45944 134,267.33783 134,268.23334C134,269.11249 134,269.99051 134,270.92883C134,271.79999 134.31819,272.74622 133.9955,273.58066C133.71716,274.30042 132.97818,275.0755 132.12134,275.51184C131.42786,275.86499 131.14661,276.25644 131,277.11249C130.85594,277.9537 130.08578,278.56653 129.2955,278.63333C128.35876,278.71249 127.97241,279.39349 127.2955,279.69049C126.47839,280.04901 125.70852,280.6987 125.284,281.34933C124.82434,282.0538 124.26873,282.48459 123.61066,283.06934C122.9184,283.68448 123,284.79999 123,285.63333C123,286.54935 122.98889,287.3494 123,288.28067C123.01042,289.15436 123.13767,290.24063 124.02533,290.62268C124.84228,290.9743 125.85867,290.83484 126.64733,290.63333C127.5064,290.41385 127.91409,289.5452 128,288.65866C128.08437,287.78806 128.93286,287.52795 129.61067,287.05865C130.33038,286.56033 130.61667,286.02408 131.02083,285.15417C131.3381,284.47128 132.43234,284.53934 133.02533,284.05865C133.65489,283.54831 133.60875,282.81598 134.036,282.06934C134.43117,281.37875 135.70172,281.73288 136.35266,281.28067C137.10489,280.75809 137.86133,280.62268 138.83333,280.46667L139.45833,280.11249L139.964,279.24399" id="svg_6" stroke-width="3" stroke="#000" fill="none"/>
  <path t="82399,83400,83435,83609,83697,83786,83897,83969,83998,84129,84209,84229,84274,84296,84353,84396,84432,84465,84552,84587,84587,84632,84697,84720,84721,84760,84880" d="M139,199.63333C140.02083,199.63333 140.91467,199.63333 141.7045,199.63333C142.64284,199.63333 142.88391,198.85992 143.5,198.63333C144.36845,198.31392 145.284,198.63333 146.2215,198.63333C147.09984,198.63333 148.07852,198.55565 148.57466,199.244C149.08369,199.95026 149.35716,200.63333 150.19867,200.63333C151.16667,200.63333 151.651,200.87918 152.2215,201.51201C152.85278,202.21228 153.71466,202.34933 154.5,202.63333C155.28534,202.91733 156,203.46667 156.8,203.632L157.71466,203.71867L157.99867,204.43466" id="svg_7" stroke-width="3" stroke="#000" fill="none"/>
  <path t="86162,86473,86513,86537,86537,86610,86633,86666,86737,86809,86836,86905,86953,86992,87056,87096,87289,87315,87353,87397,87402,87456,87456,87456,87496,87528,87552,87626" d="M136,202.63333C137.2215,203.51184 138.1615,203.43307 139,203.8C139.73535,204.1218 140.39833,204.67418 141.02533,205.20801C141.5878,205.6869 142.35825,206.37045 143.16667,206.63333C144.00925,206.90732 145,206.63333 145.83333,206.63333C146.64734,206.63333 147.61067,206.6311 148.47917,206.63333C149.35718,206.63559 150.10599,207.08916 151,207.46667C151.7829,207.79727 152.71127,207.53416 153.44284,208.076C154.08806,208.55389 154.51733,209.06534 155.47917,209.59167L156.38933,209.63333L157.35266,209.63333L158.2215,209.63333" id="svg_8" stroke-width="3" stroke="#000" fill="none"/>
  <path t="89850,90248,90264,90296,90321,90333,90350,90371,90371,90399,90416,90458,90480,90528,90552,90579,90601,90634,90650,90696,90696,90714,90776,90826,90845,90968,90968,91001,91040,91104,91153,91179,91210,91210,91232,91280,91298,91315,91337,91433,91473,91504,91505,91544,91577,91608,91617,91720,91762,91816,91856,91880,91921,91961,91962,91979,92056,92084,92085,92177,92216,92272,92313,92329,92348,92366,92385,92414,92433,92451,92528,92632,92760,92904,92952,93008,93080,93097,93123,93289,93360,93400,93448,93552,93552" d="M194,158.63333C193.38933,157.63333 192.436,157.63333 191.564,157.63333C190.7,157.63333 189.8,157.63333 188.89999,157.63333C188,157.63333 187.2,157.63333 186.3,157.63333C185.39999,157.63333 184.5,157.63333 183.60001,157.63333C182.7,157.63333 181.8,157.63333 180.89999,157.63333C180,157.63333 179.55205,158.14131 178.91467,158.632C178.18991,159.18999 177.2,158.63333 176.28534,158.63333C175.38933,158.63333 174.49248,158.51796 173.61067,158.63333C172.75697,158.74503 172.57936,159.6203 171.916,160.34801C171.37247,160.94427 170.22456,161.12334 170,161.99051C169.78871,162.80641 170.10538,163.86484 170.7045,164.27617C171.5309,164.84355 172.52776,164.89351 172.87849,165.73317C173.22667,166.56671 173.8558,166.64398 174.60001,167.244C175.254,167.77129 176.02794,168.39198 176.7,168.686C177.52312,169.04611 178.28555,169.61345 179.19867,169.63333C180.02592,169.65134 180.5463,170.39423 181.47917,170.6125C182.32993,170.81157 183.28534,170.63333 184.19867,170.63333C185.05267,170.63333 186,170.63333 186.8,170.63333C187.71466,170.63333 188.54167,170.63333 189.48267,170.63333C190.29016,170.63333 191.28534,170.63333 192.2,170.63333C193.09984,170.63333 193.94775,170.66045 194.80133,170.63333C195.70135,170.60474 196.67128,170.19841 196.94284,169.33333C197.183,168.56827 197.28236,167.67613 198.2,167.63333C199.09886,167.5914 199.9391,167.41838 200,166.54933C200.06404,165.63557 200.17839,164.72243 199.94284,163.92883C199.68378,163.05602 199.23805,162.1544 198.57466,161.66934C197.89937,161.17557 197.12134,160.75467 196.5,160.13333L195.7785,159.63316L194.90016,159.412L194.28534,158.91733" id="svg_9" stroke-width="3" stroke="#000" fill="none"/>
  <path t="103987,104264,104280,104304,104322,104339,104339,104360,104392,104392,104411,104416,104434,104451,104474,104474,104479,104499,104515,104515,104533,104556,104561,104561,104578,104585,104603,104620,104626,104626,104643,104659,104659,104678,104678,104678,104682,104683,104705,104731,104731,104747,104753,104753,104753,104770,104786,104804,104804,104809,104809,104825,104847,104848,104853,104871,104871,104875,104894,104899,104906,104906,104922,104935,104936,104942,104960,104960,104982,104986,104993,105008,105008,105029,105034,105034,105058,105076,105080,105080,105099,105106,105106,105123,105146,105163,105169,105185,105208,105208,105228,105228,105256,105256,105272,105288,105307,105324,105324,105329,105346,105364,105364,105369,105386,105409,105409,105431,105450,105467,105467,105489,105508,105509,105528,105545,105568,105595,105613,105633,105643,105648,105665,105666,105686,105686,105708,105713,105713,105744,105764,105783,105788,105789,105807,105832,105851,105852,105858,105859,105876,105883,105884,105906,105931,105932,105937,105938,105957,105979,106001,106021,106044,106068,106069,106091,106091,106119,106120,106125,106193,106297,106298,106394,106476,106498,106522,106577,106578,106625,106626,106659,106713,106714,106762,106929,106930,106970,107001,107097,107097,107145,107168,107225,107225,107251,107251,107313,107313,107337,107378,107378,107401,107418,107478,107515,107516,107536,107568,107604,107610,107635,107642,107681,107745,107929,107985,108073,108210,108242,108321,108481,108501,108569,108600,108657,108684,108809,108865,108977,109009,109033,109100,109122,109162,109241,109250,109272,109295,109309,109335,109360,109360,109410,109438,109461,109497,109545,109576,109603,109611,109656,109685,109685,109707,109801,109841,109890,109929,109953,109991,110015,110048,110054,110065,110066,110087,110087,110088,110095,110096,110096,110102,110103,110109,110115,110121,110129,110151,110174,110208,110210,110233,110256,110272,110294,110311,110311,110317,110322,110343,110355,110355,110363,110386,110386,110413,110448,110449,110473,110503,110533,110533,110539,110546,110568,110592,110594,110594,110604,110605,110611,110617,110638,110639,110644,110667,110673,110673,110696,110697,110718,110744,110816,110817,110936,111048,111049,111070,111114,111136,111151,111178,111209,111240,111267,111294,111299,111344,111345,111376,111432" d="M278,297.63333C277.11334,297.63333 276.18533,297.63333 275.24283,297.63333C274.35333,297.63333 273.51184,297.53934 272.70984,297.63333C271.75906,297.74475 271.01367,298.54544 270.29999,298.62885C269.40607,298.73331 268.5,298.63107 267.60001,298.63333C266.70001,298.63559 265.86163,299.01941 265.20001,299.34933C264.35663,299.7699 263.35718,299.63333 262.43066,299.63333C261.64816,299.63333 260.75717,299.63333 259.79868,299.63333C258.83334,299.63333 258.02084,299.63333 257.10983,299.63333C256.2955,299.63333 255.39999,299.63333 254.47917,299.63333C253.51601,299.63333 252.82533,299.63333 251.75267,299.63333C250.83333,299.63333 250.164,299.63333 249,299.63333C248.2,299.63333 247.39999,299.63333 246.409,299.63333C245.71434,299.63333 244.71333,299.63333 243.83333,299.63333C243.02083,299.63333 242.03778,299.62982 241.14667,299.34933C240.47746,299.1387 239.78496,298.81464 238.672,298.66934C237.70305,298.54285 236.83333,298.63333 235.97917,298.63333C235,298.63333 234.11446,298.90408 233.24266,298.41199C232.51079,297.99887 231.97932,297.64377 230.88533,297.63333C230.00005,297.62491 229.23988,297.70135 228.35184,297.62885C227.32391,297.54492 226.84569,296.71707 226,296.63333C225.20389,296.5545 224.24283,296.63333 223.34734,296.63333C222.65266,296.63333 221.64667,296.63333 220.66667,296.63333C219.81467,296.63333 218.88667,296.63333 218.01466,296.63333C217.13867,296.63333 216.16667,296.63333 215.41066,296.63333C214.47917,296.63333 213.51733,296.63333 212.70984,296.63333C211.7785,296.63333 210.89999,296.63333 210,296.63333C209.2,296.63333 208.32925,296.69122 207.35184,296.27615C206.67998,295.99084 206.23994,294.98285 205.47917,294.65417C204.67188,294.30539 203.6967,294.70901 202.79866,294.63199C201.82286,294.54831 201.20555,294.12134 200.16667,293.79999C199.51471,293.59833 198.51733,293.63333 197.70984,293.63333C196.71466,293.63333 195.8,293.63333 194.89999,293.63333C194,293.63333 193.2,293.63333 192.3,293.63333C191.47917,293.63333 190.51601,293.63333 189.65266,293.63333C188.76167,293.63333 187.83299,293.63333 186.942,293.63333C186.276,293.63333 185.20393,293.57132 184.45833,293.13333C183.71117,292.69443 182.86137,292.63867 181.83333,292.63333C181.00002,292.629 180.2,292.63333 179.3,292.63333C178.39999,292.63333 177.5,292.63333 176.60001,292.63333C175.7,292.63333 174.78735,292.78357 173.90016,292.63318C173.04654,292.48849 172.71382,291.55734 171.97917,291.15417C171.06967,290.65506 170.28667,290.634 169.35333,290.63333C168.51733,290.63272 167.70984,290.63333 166.64284,290.63333C165.8,290.63333 164.89999,290.63333 164,290.63333C163.2,290.63333 162.31146,290.55423 161.47917,290.13333C160.689,289.7337 159.82538,289.63867 158.884,289.63333C158.11601,289.62897 157.17467,289.63333 156.16667,289.63333C155.36166,289.63333 154.71222,289.12656 153.83333,288.79999C153.04031,288.50534 152.0215,288.63333 151.20134,288.63333C150.3,288.63333 149.39999,288.63333 148.5,288.63333C147.60001,288.63333 146.6955,288.63333 145.83333,288.63333C145,288.63333 144.02133,288.63333 143.24733,288.63333C142.34734,288.63333 141.48399,288.63333 140.54167,288.63333C139.63834,288.63333 138.67867,288.63333 138,288.63333C136.88667,288.63333 136.04372,288.55392 135.14934,288.64401C134.32274,288.72726 133.90662,289.70016 133.35333,290.23334C132.74884,290.81589 131.86241,291.19946 131.05066,291.608C130.29565,291.98798 129.57477,292.37231 128.64734,292.63333C127.78428,292.87622 127.23009,293.48508 126.3,293.62885C125.44613,293.76083 124.38997,293.44061 123.70533,293.69049C122.87238,293.99448 122.23117,294.55527 121.55717,295.07599C120.92176,295.56689 120.2133,296.44461 119.44666,296.612C118.45383,296.82877 117.64468,296.55469 116.76167,296.63333C115.82221,296.71698 115.34161,297.44308 114.4,297.62268C113.53634,297.78741 112.81951,298.09128 112,298.46667C111.25731,298.80688 110.27736,298.62009 109.564,299.05865C108.7911,299.53381 107.90017,299.63333 106.98933,299.63333C106.19867,299.63333 105.3,299.63333 104.35717,299.63333C103.47916,299.63333 102.61066,299.63333 101.64733,299.63333C100.77866,299.63333 99.916,299.63333 99,299.63333C98.12133,299.63333 97.284,299.63333 96.38934,299.63333C95.52084,299.63333 94.564,299.63333 93.7045,299.63333C92.77866,299.63333 91.916,299.63333 91,299.63333C90.19867,299.63333 89.28533,299.63333 88.38934,299.63333C87.52084,299.63333 86.48904,299.74567 85.9955,299.28067C85.4445,298.76154 84.78484,298.12415 84,297.79999C83.14046,297.44498 82.8457,296.71707 82,296.63333C81.20389,296.5545 80.28527,296.64383 79.38934,296.63333C78.49982,296.62289 77.8912,295.98065 76.99866,295.63333C76.25313,295.34323 75.2826,295.60547 74.52084,295.13333C73.76002,294.66177 72.94678,294.33694 72.3,293.98599C71.48326,293.54282 70.564,293.63333 69.6,293.63333C68.7,293.63333 67.73322,293.91522 66.94733,293.57617C66.24855,293.27469 65.521,292.64584 64.64283,292.63333C63.70008,292.6199 62.94975,292.31378 62.18567,291.98599C61.2731,291.59448 60.45849,291.64508 59.59733,291.63467C58.7004,291.62384 57.82133,291.63333 57.01433,291.63333C55.96933,291.63333 55.11733,291.63333 54.18533,291.63333C53.24283,291.63333 52.3707,291.63303 51.6,291.20801C50.77979,290.75571 49.94733,290.63333 49,290.63333C48.2,290.63333 47.3,290.63333 46.4,290.63333C45.5,290.63333 44.61067,290.63333 43.66667,290.63333C42.97917,290.63333 41.88667,290.63333 41.05267,290.63333C40.23833,290.63333 39.3268,290.5148 38.484,290.71866C37.59599,290.93344 36.80223,291.58551 36.11467,291.63199C35.17673,291.69537 34.17609,291.81793 33.41067,292.20801C32.60941,292.61633 31.67458,292.55115 30.83333,292.79999C29.99118,293.0491 29.24767,293.5528 28.38933,293.63333C27.4822,293.71844 26.68273,294.08139 26.164,294.48401C25.40478,295.0733 24.36349,295.38803 23.71433,295.68149C22.89491,296.05191 22.23834,296.63107 21.34733,296.63333C20.65267,296.63507 19.63174,296.54831 18.6955,296.63785C17.8222,296.72137 17.02844,297.21585 16.16667,297.46667C15.32433,297.71182 14.35868,297.49628 13.64283,297.99051C12.89472,298.50702 12.46726,299.37534 11.61067,299.59732C10.69619,299.83432 9.81467,299.63333 8.88667,299.63333C7.9955,299.63333 7.19867,299.63333 6.3,299.63333C5.35717,299.63333 4.5,299.63333 3.564,299.63333C2.7045,299.63333 1.7785,299.63333 0.9,299.63333C0,299.63333 -0.8,299.63333 -2.7,299.63333L-3.64283,299.63333" id="svg_11" stroke-width="3" stroke="#000" fill="none"/>
  <path t="125386,126457,126464,126504,126536,126690,126728,126840,126912,127008,127048,127104,127104,127208,127233,127282,127336,127362,127417,127496,127712,127733,127848,127871,127912,127945,128000,128032,128136,128137,128168,128208,128243,128296,128441,128441,128512" d="M167,168.63333C166.12134,168.6335 165.49553,169.13049 164.99867,169.91733C164.5708,170.59491 164.19809,170.9407 163.99867,171.832C163.8181,172.63905 163.01874,173.05817 163,173.99051C162.98306,174.83316 162.67577,175.66299 162.284,176.34801C161.85612,177.09616 161.46768,177.80476 161.01067,178.65866C160.59346,179.43819 160.2094,179.80397 159.82933,180.43466C159.36172,181.21065 157.59419,181.66612 158,182.46667C158.30223,183.0629 159.26271,183.32127 160.05267,183.62883C160.91606,183.96497 161.92612,183.27158 162.75717,183.63367C163.468,183.94337 163.53702,185.18704 164.39999,185.56134C165.22832,185.92061 166.19867,185.63333 167.05716,185.63333L168,185.63333L168.8,185.63333L169.71466,185.63333" id="svg_12" stroke-width="3" stroke="#000" fill="none"/>
 </g>
</svg>