<svg width="500.00000000000006" height="263.73626373626377" xmlns="http://www.w3.org/2000/svg" xmlns:svg="http://www.w3.org/2000/svg" xmlns:xlink="http://www.w3.org/1999/xlink">
 <!-- Created with SVG-edit - http://svg-edit.googlecode.com/ -->
 <g display="inline" class="layer">
  <title>Layer 1</title>
  <path t="0,1976,2029,2090,2172,2349,2407,2443,2467,2506,2548,2556,2564,2624,2683,2691,2723,2788,2839,2859,2952,3037,3148,3179,3350,3371,3472,3523,3555,3675,3768,3779,3812,3836,3843,3851,3867,3899,3939,3939,3955,4019,4086,4123,4225,4225,4243,4302,4339,4386,4411,4435,4444,4519,4548,4571,4634,4683,4715,4747,4801,4819,4843,4876,4915,4963,4971,5033,5067,5107,5147,5184,5203,5235,5275,5283,5331,5347,5387,5396,5420,5427,5459,5483,5491,5508,5539,5571,5579,5619,5636,5691,5725,5756,5756,5779,5832,5832,5859,5867,5899,5939,5963,5987,5995,6011,6043,6059,6084,6100,6123,6148,6171,6188,6195,6235,6252,6291,6323,6347,6387,6411,6435,6451,6491,6515,6515,6571,6587,6595,6619,6659,6675,6684,6724,6747,6788,6811,6843,6860,6876,6899,6915,6947,6963,7011,7027,7043,7067,7099,7131,7163,7196,7211,7212,7235,7243,7251,7268,7291,7307,7323,7331,7348,7363,7387,7403,7411,7419,7435,7452,7468,7475,7483,7491,7499,7515,7523,7549,7564,7571,7581,7595,7620,7627,7643,7660,7676,7684,7707,7739,7747,7755,7771,7787,7803,7819,7859,7868,7884,7916,7924,7939,7987,7987,8019,8043,8059,8067,8076,8083,8115,8124,8163,8203,8227,8244,8260,8268,8283,8292,8308,8324,8332,8340,8364,8380,8388,8403,8419,8428,8459,8476,8491,8508,8515,8539,8556,8571,8603,8619,8643,8675,8683,8691,8707,8723,8739,8747,8764,8779,8803,8811,8843,8851,8875,8883,8899,8907,8939,8947,8987,9012,9043,9051,9091,9099,9099,9273,9299,9300,9357,9371,9387,9395,9404,9419,9435,9452,9461,9468,9476,9523,9523,9539,9562,9572,9587,9595,9627,9643,9659,9659,9667,9675,9683,9707,9715,9715,9723,9731,9739,9763,9771,9771,9779,9795,9796,9827,9828,9851,9867,9875,9891,9907,9946,9962,9986,10002,10034,10105,10653" d="M338.99432,68.69579C339.99432,68.69579 340.91031,68.69579 341.69882,68.69579C342.63715,68.69579 343.3129,68.28393 344.09415,67.81712C344.8764,67.34969 345.39432,66.97832 346.28983,66.69128C347.05069,66.44741 347.36642,65.55964 348.047,65.04845C348.7319,64.534 349.72614,64.83771 350.38364,64.25978C351.07922,63.64838 351.16098,62.69826 352.09415,62.69578C352.94165,62.69353 353.65744,62.20995 354.38364,61.72112C355.05188,61.27128 355.60498,60.70645 356.49432,60.69578C357.38364,60.68512 357.93536,59.9343 358.71033,59.69712C359.53214,59.44558 360.25183,58.41777 360.8728,58.91728C361.56372,59.47304 361.05194,60.64506 360.99432,61.49712C360.93701,62.34441 359.8551,62.22004 359.16498,62.97978C358.61499,63.58527 358.9397,64.80589 358.38364,65.25978C357.6308,65.87429 356.99966,66.2704 356.99432,67.21661C356.98944,68.0851 356.64587,68.82943 356.27832,69.49712C355.81726,70.33467 355.46362,71.07368 355.07965,71.89445C354.72369,72.65533 354.13715,73.02732 353.56897,73.67045C353.06357,74.24252 352.54663,74.7714 351.96899,75.27045C351.34055,75.81341 350.46634,76.14929 349.69882,76.64312C349.00244,77.09119 349.24786,78.26281 348.55832,78.65978C347.81262,79.08908 347.01233,79.13127 346.99432,80.08511C346.97745,80.97962 346.99432,81.86245 346.99432,82.74845C346.99432,83.69579 346.57663,84.25018 346.11581,84.91728C345.61185,85.64684 345.99432,86.69579 345.99432,87.49712C345.99432,88.41045 345.99432,89.30645 345.99432,90.17495C345.99432,91.13178 345.99423,91.99128 345.99432,92.91728C345.99442,93.79562 346.54208,94.36385 346.93716,95.04845C347.40353,95.85662 347.48956,96.38384 347.93716,97.05295C348.40613,97.75399 348.19885,98.68979 348.64166,99.40028C349.13092,100.18533 348.99432,101.13178 348.99432,101.99128C348.99432,102.91728 348.81104,103.85006 349.16098,104.69579C349.48566,105.48042 349.87036,106.20691 350.21564,107.13845C350.4902,107.87928 350.98389,108.67475 350.99432,109.49712C351.00589,110.41037 350.83118,111.32544 351.01514,112.19579C351.19424,113.04315 351.64255,113.86388 351.99881,114.64312C352.36249,115.43862 352.97632,116.08457 352.99432,116.98112C353.01266,117.89426 352.99432,118.75712 352.99432,119.54645C352.99432,120.52645 352.99432,121.40028 352.99432,122.25978C352.99432,123.21661 352.99432,124.08511 352.99432,124.98112C352.99432,125.89445 352.99432,126.77979 352.99432,127.69579C352.99432,128.57445 353.02328,129.4171 353.49432,130.17496C353.96683,130.93518 354.18457,131.82198 354.71033,132.41045C355.31296,133.08496 355.61838,133.87463 356.00497,134.67046C356.36478,135.41113 356.97104,136.07068 357.49432,136.69579C357.99408,137.29282 358.55862,137.84848 358.99567,138.61179C359.39182,139.30368 360.39868,139.74072 360.82764,140.52911C361.20761,141.22743 360.95074,142.21297 361.41965,142.70645C361.94897,143.26353 362.68381,143.92902 362.98981,144.74844C363.32123,145.63594 363.1636,146.25456 363.71033,146.78111C364.26477,147.31511 364.01648,148.51408 364.41965,149.13179C364.96802,149.97194 364.79361,150.92947 365.16098,151.69579C365.52332,152.45158 366.74329,152.62399 366.98364,153.30644C367.30072,154.20671 367.8248,154.54822 368.41965,155.13179C369.06702,155.76686 369.60263,156.43463 369.95831,157.13179C370.34933,157.89825 370.711,158.57295 370.98364,159.30644C371.28644,160.12106 371.65234,160.74191 372.047,161.40028C372.5069,162.16756 372.97583,162.97998 372.99432,163.86246C373.01233,164.72168 373.42215,165.39531 373.99432,166.17496C374.46338,166.81409 374.99207,167.40027 374.99432,168.25978C374.99683,169.21661 374.99442,170.09373 375.49432,170.69579C376.00891,171.31551 376.6918,171.94432 376.99432,172.86246C377.25513,173.65393 377.05505,174.56737 377.49432,175.21661C378.04895,176.03636 378.71991,176.5697 378.98364,177.30644C379.28342,178.14381 378.99551,179.0928 379.49432,179.69579C380.03687,180.35164 380.9104,180.68121 380.99432,181.40028C381.10309,182.33231 381.40591,183.01454 381.87299,183.79562C382.34006,184.57671 382.99432,184.86246 382.99432,185.79562C382.99432,186.65979 383.3028,187.42496 383.71033,188.12778C384.22452,189.01456 384.91058,189.68341 384.99432,190.52911C385.07092,191.30266 385.16428,192.10014 385.71033,192.69444C386.20621,193.23413 386.76782,193.76295 386.99432,194.64311C387.21899,195.5162 387.76401,196.00133 388.34698,196.64311C388.87323,197.22243 388.83432,198.1891 389.27832,198.69711C389.80942,199.30479 389.94244,200.02965 390.41965,200.67046C390.92737,201.35222 390.95532,202.20868 391.41965,202.70645C391.93329,203.25706 392.08377,204.11316 392.56897,204.72112C393.06735,205.34561 392.91776,206.29846 393.34698,207.05295C393.79694,207.84389 393.95584,208.67136 393.99432,209.49712C394.03705,210.41342 394.9516,210.69371 394.99432,211.49712C395.039,212.33743 394.90027,213.28003 395.41965,214.08511C395.89383,214.82013 395.56897,215.91942 396.16098,216.52911C396.74188,217.12735 396.96637,217.49754 396.99432,218.41045C397.02292,219.34442 397.32257,220.03087 398.00497,220.65979C398.62799,221.23398 398.99432,221.69579 398.99432,222.63861C398.99432,223.40028 399.30881,224.08296 399.82764,224.86246C400.29852,225.56992 400.4433,226.24103 400.909,226.97978C401.3819,227.72997 400.9697,228.72151 400.99432,229.49712C401.02292,230.39714 401.68127,231.11752 401.93716,231.99129C402.19791,232.88165 402.18353,233.82291 402.71033,234.41045C403.31625,235.08626 403.89966,235.80705 404.63715,236.33862C405.28503,236.8056 406.34451,236.62273 406.96899,237.12111C407.57697,237.60629 408.33786,237.76273 409.01965,238.27045C409.66046,238.74765 410.42136,238.86295 411.07831,239.41179C411.69702,239.9287 412.47644,240.47615 413.32764,240.69579C414.11777,240.89966 415.16098,240.69518 415.99432,240.69579C416.91031,240.69646 417.43344,241.4015 418.38364,241.65979C419.24899,241.89502 420.09433,241.69579 420.99432,241.69579C421.79431,241.69579 422.69431,241.69579 423.59433,241.69579C424.55832,241.69579 425.45969,241.75146 426.31564,241.47446C427.01367,241.24857 427.96655,240.75667 428.87314,240.69579C429.69778,240.64041 430.68488,240.76683 431.43698,240.47446C432.17337,240.1882 433.13962,239.90221 433.99432,239.52911C434.72995,239.20799 435.43698,238.69579 436.28897,238.69579C437.21582,238.69579 438.22647,238.94003 438.91031,238.41179C439.53781,237.92708 440.28983,237.69579 441.16098,237.69579C442.09415,237.69579 442.94165,237.69579 443.69882,237.63861L444.47348,237.19579L445.27966,236.69444L446.09415,236.47446" id="svg_1" stroke-width="3" stroke="#000" fill="none"/>
  <path t="15813,15910,15938,15955,15979,15995,16011,16019,16035,16067,16083,16099,16107,16130,16162,16186,16194,16211,16242,16266,16274,16290,16314,16330,16346,16386,16386,16426,16450,16474,16490,16506,16546,16562,16594,16602,16642,16691,16834,16874,16898,16956,16994,17018" d="M446.99432,238.69579C445.16098,238.69579 444.38364,238.69579 443.43033,238.69579C442.55832,238.69579 441.69431,238.69519 440.79431,238.69579C439.79565,238.69646 439.4231,239.26689 438.77283,239.69579C438.03958,240.1794 437.32492,240.24408 436.63715,240.63861C435.82172,241.10637 434.82764,240.69331 433.89447,240.69579C433.047,240.69804 432.47351,241.21666 431.79565,241.89445C431.11572,242.57433 430.38361,242.68988 429.43033,242.69579C428.56891,242.70113 428.01263,243.35155 427.27832,243.69444C426.4642,244.0746 425.74814,244.51649 424.77283,244.69579C423.90894,244.8546 423.01965,244.69579 422.19299,244.69579C421.27966,244.69579 420.38364,244.70068 419.51514,244.69579C418.56894,244.69044 418.1152,243.97304 417.34698,243.70029C416.52347,243.40791 415.76163,243.01353 414.96899,242.70645C414.24533,242.42609 413.16098,242.69579 412.38364,242.65979L411.60498,242.27045" id="svg_2" stroke-width="20" stroke="#fff" fill="none"/>
  <path t="20803,20960,21015,21096,21138,21197,21263,21376,21478,21514,21563,21595,21618,21634,21666,21714,21730,21762,21770,21810,21826,21842,21890,21906,21906,21930,21978,22010,22034,22043,22082,22130,22170,22228,22311,22362,22370,22386,22418,22458,22466,22490,22545,22570,22570,22634,22666,22762,22904,22946,23010,23018,23050,23093,23159,23304,23406,23506,23506,23530,23546,23570,23594,23618,23634,23674,23682,23714,23731,23739,23754,23770,23786,23786,23794,23811,23827,23859,23866,23890,23957,24002,24026,24066,24098,24114,24138,24170,24194,24202,24234,24267,24283,24307,24346,24386,24394,24440,24458,24523,24562,24578,24618,24650,24682,24690,24730,24738,24763,24771,24794,24826,24843,24859,24874,24906,26512,29929,30751,31073,31422,31571" d="M409.99432,239.69579C411.60498,239.73178 412.24283,240.39325 413.16098,240.69579C413.95245,240.95659 414.91031,240.69579 415.69882,240.69579C416.63715,240.69579 417.51514,240.69579 418.47348,240.69579C419.35147,240.69579 420.19299,240.69579 421.10416,240.69579C421.99432,240.69579 422.93298,240.69579 423.69882,240.69579C424.63715,240.69579 425.40729,240.23264 426.19299,239.77979C426.89148,239.37721 427.42978,238.71387 428.28983,238.69579C429.21561,238.67633 430.20825,238.57797 430.63715,237.99129C431.19235,237.23183 431.79807,237.11583 432.63715,236.69579C433.19763,236.41519 433.77277,236.04459 434.55832,235.69579C435.17731,235.42094 435.62265,234.87877 436.55832,234.69579C437.31915,234.547 437.98669,233.81296 438.91031,233.69579C439.69461,233.59628 440.36734,232.95583 441.27966,232.69579C442.06296,232.47252 442.62311,232.20132 443.21582,231.69562C443.90485,231.10774 444.71576,230.99713 445.51514,230.67496C446.29681,230.35992 447.0202,229.66498 447.79565,229.69579C448.71225,229.73219 448.99432,230.64311 448.99432,231.49712C448.99432,232.33862 448.99432,233.27045 448.99432,234.19579C448.99432,235.05295 449.26471,236.09064 448.82764,236.86246C448.4722,237.4901 447.59836,237.88831 446.91031,238.41179C446.29672,238.87863 445.27966,238.69579 444.38364,238.69579C443.43033,238.69579 442.55832,238.69579 441.69882,238.69579C440.77283,238.69579 439.89322,238.64806 438.99432,238.69579C438.18961,238.73851 437.41312,239.32626 436.79431,239.89445C436.2114,240.42969 435.2796,240.68462 434.38364,240.69579C433.49414,240.70686 432.60126,240.98578 432.11566,241.79562C431.67819,242.52524 430.70447,242.47972 430.07831,242.97978C429.46069,243.47301 428.64301,243.52783 427.89447,243.91711C427.04697,244.35788 426.38364,244.69579 425.49432,244.69579C424.59433,244.69579 423.69882,244.69579 422.77283,244.69579C421.89447,244.69579 421.01965,244.69579 420.19299,244.69579C419.27966,244.69579 418.38364,244.69579 417.51514,244.69579C416.63715,244.69579 415.69882,244.69579 414.77283,244.69579C413.89447,244.69579 413.01965,244.69579 412.19299,244.69579C411.27966,244.69579 410.38364,244.69579 409.51514,244.69579C408.63715,244.69579 407.69882,244.69579 406.77298,244.69579C405.94165,244.69579 404.98206,244.87128 404.19299,244.61044C403.4216,244.35545 402.59259,243.76204 401.69882,243.69579C400.90787,243.63716 399.2345,243.63159 399.40866,242.70029C399.53467,242.02646 400.98981,242.75294 400.99432,243.69579L401.16098,244.52911" id="svg_3" stroke-width="3" stroke="#000" fill="none"/>
  <path t="41425,41573,41602,41610,41610,41626,41642,41642,41666,41666,41674,41682,41698,41722,41746,41746,41762,41794,41818,41834,41834,41842,41866,41874,41914,41931,41946,41984,42010,42042,42066,42082,42098,42105,42130,42146,42170,42186,42202,42226,42250,42266,42306,42314,42354,42401,42442,42466,42498,42522,42530,42554,42578,42617,42658,42690,42730,42746,42746,42786,42849,42866,42898,42922,42938,42946,42962,42986,42986,43162,43202,43210,43226,43234,43243,43251,43266,43282,43283,43306,43330,43346,43346,43370,43402,43434,43466,43506,43506,43546,43586,43610,43642,43658,43698" d="M324.99432,245.56245C325.84497,245.55179 326.8714,245.36867 326.99432,244.56245C327.1149,243.77159 326.99432,242.80528 326.99432,241.91428C326.99432,241.13179 326.99432,240.11961 326.99432,239.37712C326.99432,238.31961 326.69318,237.40332 327.01514,236.56245C327.31958,235.76733 327.94717,235.08118 327.98981,234.21512C328.03363,233.32518 327.99432,232.39578 327.99432,231.46245C327.99432,230.56245 328.42392,229.61005 327.93716,228.91962C327.42105,228.18755 326.99432,227.85796 326.99432,226.96245C326.99432,226.06245 326.92737,225.21889 326.41965,224.53711C325.94244,223.8963 326.1604,222.94307 325.97348,222.06245C325.79449,221.21931 325.01233,220.58836 324.99432,219.76112C324.97479,218.86267 324.99432,217.96245 324.99432,217.06245C324.99432,216.16245 324.99432,215.26245 324.99432,214.36246C324.99432,213.46262 324.99432,212.58778 324.99432,211.76112C324.99432,210.86246 324.99432,209.96245 324.99432,209.08328C324.99432,208.20528 324.99432,207.26245 324.99432,206.36246C324.99432,205.46262 324.96808,204.58737 324.99432,203.76112C325.02292,202.8611 325.68051,202.14009 325.93716,201.26245C326.19028,200.3969 325.99432,199.46245 325.99432,198.56245C325.99432,197.76245 326.17154,196.89723 325.97348,196.04161C325.75522,195.09879 325.05588,194.46852 324.99432,193.56245C324.93225,192.64856 324.42932,192.07549 324.047,191.26245C323.63809,190.3929 322.60831,189.72325 322.99567,188.84778C323.26791,188.2325 324.59961,188.57014 325.047,189.26695C325.47101,189.92737 326.37515,190.2607 326.94165,190.91962C327.53287,191.60727 328.11548,192.17598 328.70898,192.64645C329.44751,193.2319 329.75558,193.92407 330.21582,194.66228C330.66293,195.37944 331.37897,195.87395 332.16098,196.39578C332.86899,196.86824 333.73767,196.771 334.16098,197.56245C334.56146,198.31123 334.87589,199.12633 335.34698,199.85796C335.85739,200.65062 335.99432,201.36378 336.05148,202.26245L336.49432,203.06245" id="svg_4" stroke-width="3" stroke="#000" fill="none"/>
  <path t="44663,44876,44929,44946,44962,44970,44994,45173,45194,45202,45234,45234,45287,45376,45402,45410,45426,45474,45474,45490,45506,45506,45522,45562,45602,45666,45674,45690,45697,45714,45714,45730,45762,45810,45818,45826,45834,45842,45910,45946,45970,45993,46018,46060,46060,46090,46122,46154,46170,46170,46194,46210,46226,46226,46234,46250,46274,46289,46314,46330,46354,46386,46386,46426,46450,46450,46466,46482,46498,46499,46514,46530,46538,46562,46577,46602,46610,46626,46658,46666,46682,46690,46691,46722,46722,46738,46748,46771,46786,46794,46794,46802,46834,46834,46843,46858,46874,46882,46890,46890,46906,46922,46946,46962,46978,46986,46994,47002,47018,47027,47034,47043,47043,47050,47060,47074,47082,47098,47114,47122,47138,47170,47186,47202,47210,47234,47244,47244,47251,47266,47298,47330,47346,47378,47410,47426,47426,47466,47466,47490,47506,47514,47538,47554,47562,47578,47595,47618,47642,47711,47754,47754,47843,47858,47921" d="M323.99432,244.56245C323.79431,244.56245 322.89432,244.56245 321.99432,244.56245C321.11566,244.56245 320.28976,244.57307 319.39432,244.56245C318.51495,244.55203 318.23959,244.10872 318.71033,243.47845C319.28418,242.71008 319.24734,241.84679 319.56897,240.99844C319.7254,240.58582 318.69431,240.56245 317.79565,240.56245C316.94165,240.56245 315.96457,240.40979 315.29431,240.61961C314.4119,240.89584 313.6701,241.67412 313.27966,242.36246C312.84137,243.13519 312.83069,244.00829 312.34698,244.61511C311.83151,245.26181 312.03918,246.41602 312.79565,246.56111C313.73438,246.74117 314.6691,246.68742 315.51031,246.47711C316.39102,246.25694 317.5083,245.14732 316.95831,244.56245C316.43402,244.00491 315.29431,244.56245 314.39432,244.56245C313.43033,244.56245 312.55832,244.56245 311.69431,244.56245C310.79431,244.56245 309.53397,245.07501 308.99567,244.47711C308.38367,243.79736 308.78488,242.72395 309.05148,241.86246C309.31952,240.99629 310.35379,240.74934 311.09433,240.34094C311.7688,239.96899 312.49982,239.22781 312.91031,238.36246C313.26962,237.60501 313.64166,236.86246 313.99432,236.06245C314.34698,235.26245 314.84445,234.45816 314.99432,233.56245C315.13458,232.72426 315.9516,232.28046 315.99432,231.46245C316.04126,230.56367 315.99432,229.76245 315.99432,228.72911C315.99432,227.85262 316.16959,227.02515 315.97348,226.08328C315.79266,225.21484 314.93134,224.616 314.51514,224.06245C313.95947,223.32339 313.99432,222.36246 313.99432,221.46262C313.99432,220.53711 313.99432,219.76112 313.99432,218.86246C313.99432,217.96245 313.99432,216.99844 313.99432,216.12645C313.99432,215.26245 314.18311,214.29323 313.77298,213.46262C313.42361,212.75505 312.99432,211.99312 312.99432,211.21062C312.99432,210.19846 312.99432,209.26695 312.99432,208.39578C312.99432,207.46245 312.99432,206.56245 312.99432,205.76245C312.99432,204.91962 312.99432,203.99312 312.99432,203.21062C312.99432,202.19846 312.99432,201.26695 312.99432,200.39578C312.99432,199.46245 312.99432,198.56245 312.99432,197.76245C312.99432,196.91962 312.99432,196.04161 312.99432,195.06245C312.99432,194.16245 313.06735,193.21228 312.56897,192.58778C312.08377,191.97981 311.99432,191.16245 311.99432,190.26245C311.99432,189.36246 312.17566,188.40898 311.82764,187.56245C311.55176,186.89137 311.11496,185.99715 310.64166,185.26695C310.14462,184.50015 309.99432,183.76112 309.99432,182.86246C309.99432,181.96245 309.89221,181.16847 309.34698,180.56696C308.92206,180.09814 308.99432,179.16245 308.99432,178.26245C308.99432,177.26695 308.99432,176.39578 308.99432,175.56245C308.99432,174.76245 308.99432,173.86246 308.99432,172.91962C308.99432,172.04161 308.99432,171.16245 308.99432,170.26245C308.99432,169.26695 309.03433,168.39482 308.99432,167.56245C308.9516,166.67404 308.76865,165.82329 308.19299,165.13179C307.62662,164.45145 307.35684,163.72778 306.82764,162.89578C306.34326,162.13426 305.99432,161.46262 305.99432,160.61511C305.99432,159.76112 305.99432,158.86246 305.99432,157.96245C305.99432,157.08328 305.53638,156.38196 305.16098,155.56245C304.82077,154.81976 304.99432,153.86246 304.99432,152.99844L304.99432,152.12645" id="svg_5" stroke-width="3" stroke="#000" fill="none"/>
  <path t="49366,49453,49466,49481,49481,49490,49506,49514,49530,49538,49555,49571,49588,49618,49627,49627,49635,49666,49706,49730,49754,49770,49794,49810,49811,49825,49842,49866,49890,49890,49906,49930,49946,49978,49994,50010,50020,50042,50082,50098,50106,50122,50138,50162,50186,50193,50194,50203,50234,50250,50282,50282,50314,50338,50346,50370,50378,50410,50426,50450,50458,50474,50498,50522,50554,50594,50633,50633,50658,50665,50698,50714,50714,50738,50745,50762,50818,50842,50842,50842,50866,50881,50898,50922,50938,50946,50986,50986,51002,51018,51041,51057,51067,51078,51124,51154,51154,51178,51202,51218,51218,51242,51249,51297,51314,51362,51394,51410,51434,51434,51466,51498,51546,51578,51578,51602,51626,51650,51682,51722,51730,51762,51802,51802,51847,51874,51881,51898,51922,51922,51954,51970,51994,52002,52017,52041,52074,52074,52090,52106,52122,52138,52154,52161,52170,52186,52218,52234,52255,52255,52258,52274,52290,52290,52305,52305,52313,52330,52395,52426,52458,52512,52521,52578,52618,52634,52650,52674,52689,52714,52786,52794,52794,52860,52860,52873,52929,52994,53042,53050,53082,53090,53269,53676,53930" d="M301.99432,96.56245C300.38364,96.56245 299.40121,96.46866 298.55167,96.78378C297.81088,97.05856 296.88962,97.51331 296.41965,98.17312C295.9118,98.88614 295.56158,99.7291 294.94165,100.20979C294.2319,100.76012 293.30804,100.66386 292.91031,101.36378C292.5032,102.08017 291.87021,102.86549 291.19431,103.27711C290.35184,103.79018 289.87061,104.34072 289.41965,105.16245C288.99161,105.94242 289.0863,106.86717 288.99432,107.76112C288.91055,108.5753 287.85004,108.59319 287.35147,109.26695C286.83774,109.96121 287.12701,110.97296 286.98981,111.86245C286.84613,112.79383 286.51227,113.49952 285.94165,114.20528C285.35056,114.93636 285.02747,115.56305 284.99432,116.47845C284.96573,117.2685 284.42068,118.02552 284.047,118.86245C283.70227,119.63445 283.07813,120.38255 282.99432,121.17312C282.90057,122.0575 282.99432,122.96245 282.99432,123.85795C282.99432,124.73178 282.99432,125.58328 282.99432,126.54095C282.99432,127.36111 282.99432,128.27711 282.99432,129.17311C282.99432,130.08328 282.99432,131.04512 282.99432,131.70111C282.99432,132.78395 282.90564,133.66682 282.99432,134.56245C283.07806,135.40814 283.83182,135.90538 284.34698,136.50978C284.89795,137.15619 284.75143,137.99728 284.99881,138.85796C285.21951,139.62584 285.82272,140.18857 286.35147,140.85796C286.9368,141.59894 287.76797,141.83252 288.21564,142.66245C288.56497,143.3101 289.13156,144.00421 289.71033,144.64645C290.29568,145.29602 290.78113,146.03061 291.01965,146.71178C291.3121,147.54695 292.01727,148.14099 292.71033,148.56111C293.43851,149.00253 294.14349,149.5937 294.81964,149.95178C295.49432,150.30908 296.54758,150.55711 297.43033,150.56245C298.39429,150.56828 299.29431,150.56245 300.19299,150.56245C301.047,150.56245 301.99432,150.56245 302.79431,150.56245C303.69431,150.56245 304.59433,150.56245 305.49432,150.56245C306.39432,150.56245 307.29431,150.56245 308.19299,150.56245C309.047,150.56245 310.03076,150.73059 310.79431,150.47711C311.56647,150.22076 312.34692,149.73151 313.19431,149.27844C313.84631,148.92984 314.6944,148.57617 315.63715,148.56245C316.49448,148.54999 316.83228,147.80873 317.35147,147.20978C317.94757,146.52209 318.78488,146.21831 319.21564,145.46262C319.60645,144.77704 320.59915,144.54701 321.047,143.85796C321.55002,143.08403 322.19626,142.54103 322.63715,141.86246C323.15195,141.07011 323.80222,140.99068 324.63715,140.56245C325.20978,140.26877 325.39566,139.29242 325.87299,138.46262C326.32767,137.67218 327.12238,137.37427 327.70898,136.84645C328.38138,136.24144 328.8223,135.45418 328.99432,134.56245C329.16599,133.6727 330.13681,133.54276 330.63715,132.91512C331.21854,132.18581 331.75372,131.62125 331.98981,130.85796C332.2547,130.00156 332.689,129.32649 332.99432,128.47711C333.30374,127.61638 332.99432,126.76245 332.99432,125.86245C332.99432,124.91962 333.76889,124.61636 333.98981,123.85795C334.24023,122.99817 333.69812,122.0079 334.00497,121.17312C334.26941,120.45378 334.91022,120.08264 335.34698,119.26245C335.74609,118.51295 335.60074,117.63186 336.07965,116.84779C336.57028,116.04452 336.99432,115.46228 336.99432,114.67712C336.99432,113.73711 336.55893,112.93386 337.0303,112.00912C337.42203,111.24062 337.99365,110.76112 337.99432,109.86245C337.99503,108.91962 338.133,108.02891 337.98364,107.16245C337.84006,106.32933 337.51764,105.30309 336.82764,104.72912C336.17432,104.18566 335.31442,104.27863 334.71033,103.64645C334.15997,103.07049 333.6001,102.42788 333.16098,101.56245C332.8183,100.88706 331.99387,100.58953 331.19431,100.56245C330.35001,100.53384 329.61221,100.11731 329.00497,99.52645C328.37866,98.91702 327.76941,98.81871 327.11566,98.34112C326.4166,97.8304 325.79565,97.56245 324.99432,97.39578L324.70898,96.64778" id="svg_6" stroke-width="3" stroke="#000" fill="none"/>
  <path t="60221,60405,60434,60450,60458,60473,60498,60522,60574,60602,60648,60710,60754,60786,60834,60843,60890,60944,60993,61018,61042,61093,61114,61175,61218,61258,61306,61329,61354,61409,61425,61458,61474,61506,61554,61554,61615,61671,61726,61806,61841,61892,61938,61962,62008,62050,62058,62098,62130,62146,62191,62209,62257,62298,62306,62338,62386,62407,62426,62473,62524,62590,62703,62757,62850,62922,63014,63034,63082,63121,63154,63178,63202,63210,63250,63290,63322,63346,63406,63450,63504,63537,63588,63654,63698,63730,63770,63903,64001,64054,64098,64223" d="M339.49432,68.36245C339.20898,67.44778 338.39432,67.36245 337.49432,67.36245C336.547,67.36245 335.78983,67.36245 334.85147,67.36245C333.91965,67.36245 333.06897,67.36245 332.14166,67.36245C331.21033,67.36245 330.32764,67.36245 329.46899,67.36245C328.547,67.36245 327.66098,67.36245 326.84698,67.36245C325.91965,67.36245 325.06897,67.36245 324.14166,67.36245C323.21033,67.36245 322.32764,67.36245 321.46899,67.36245C320.69299,67.36245 319.66098,67.36245 318.84698,67.36245C317.91965,67.36245 317.12326,67.43712 316.46899,67.93712C315.82507,68.42921 315.09921,68.58121 314.41031,69.07845C313.67224,69.61119 312.9834,70.06848 312.21033,70.36245C311.3707,70.68173 310.97327,71.18586 310.47348,71.86245C309.99887,72.50492 309.49432,72.93712 309.49432,73.86245C309.49432,74.78778 309.49432,75.64645 309.49432,76.58379C309.49432,77.44645 309.54019,78.33829 309.49432,79.24112C309.4516,80.0817 308.53705,80.36051 308.49432,81.19579C308.45276,82.00872 308.49432,82.88329 308.49432,83.84161C308.49432,84.71512 308.75552,85.72037 308.409,86.44645C308.02441,87.25223 307.81619,87.92421 307.48364,88.78778C307.21805,89.47744 306.49432,89.79845 306.49432,90.75179C306.49432,91.64645 306.49432,92.52911 306.49432,93.41512C306.49432,94.30528 306.73724,94.98725 307.46899,95.37312C308.19739,95.75721 308.84698,96.36245 309.71564,96.36245C310.66098,96.36245 311.51965,96.36245 312.41031,96.36245C313.21033,96.36245 314.19751,96.45158 314.91965,95.93712C315.61011,95.44524 316.46899,95.36245 317.37299,95.36245C318.21033,95.36245 318.76007,94.66926 319.57965,94.36245C320.43628,94.04178 321.37708,94.31935 321.99432,93.86245C322.7417,93.30921 323.18018,92.86706 323.84698,92.41962C324.56985,91.93455 325.49432,92.52911 325.49432,93.41512L325.49432,94.30978" id="svg_7" stroke-width="3" stroke="#000" fill="none"/>
  <path t="65932,66174,66174,66475,66532,66562,66578,66631" d="M326.49432,97.36245C325.49432,97.36245 324.65988,97.5584 323.79431,97.30528C322.91669,97.04864 322.19882,96.41512 321.51965,95.93712L320.91965,95.37312" id="svg_8" stroke-width="3" stroke="#000" fill="none"/>
  <path t="71266,71378,71411,71427,71443,71503,71530,71547,71587,71610,71650" d="M341.49432,73.36245C341.49432,74.24112 341.10141,75.18074 341.5303,75.92645C341.93268,76.62606 342.83493,76.65542 343.49432,77.19579C344.06293,77.66175 345.10498,77.36245 345.97348,77.36245L346.91965,77.36245" id="svg_9" stroke-width="3" stroke="#000" fill="none"/>
  <path t="78330,78596,78608,78719,78772,78867,78939,79066,79066,79107,79123" d="M314.99432,76.69579C314.99432,77.49712 314.99432,78.41045 314.99432,79.30645C314.99432,80.17495 315.07544,81.13562 314.99432,81.99128C314.91061,82.87429 314.34698,83.40028 313.96899,84.25978L313.27832,84.69445" id="svg_10" stroke-width="3" stroke="#000" fill="none"/>
  <path t="81768,82090,82090,82115,82146,82213,82266,82298,82315" d="M326.99432,75.69579C325.99432,75.86245 325.45801,76.40309 324.98364,77.12112C324.56006,77.76228 323.60498,78.12112 322.96899,78.72112L322.41965,79.30645L321.99432,80.17495" id="svg_11" stroke-width="3" stroke="#000" fill="none"/>
  <path t="89458,89629,89682,89691,89795,89834,89978,89986,90026,90142,90179,90430,90442,90482,90499,90514,90515,90804,90834,90851,90882,91045" d="M328.99432,78.69579C327.99432,78.69579 327.0437,78.51492 326.28983,78.75295C325.42889,79.0248 325.02292,79.98996 324.99432,80.91728C324.96725,81.7952 324.50201,82.23716 324.51514,82.69579C324.54102,83.59999 326.13046,82.32369 326.64166,81.64312C327.15613,80.95818 327.51514,80.17495 328.09415,79.59595C328.70898,78.98112 328.47348,78.69579 327.59433,78.69579L326.69431,78.69579L325.79565,78.69579L324.82764,78.69579" id="svg_13" stroke-width="3" stroke="#000" fill="none"/>
  <path t="93861,94170,94362,94546,94840,94899,95194,95242,95298,95384,95384,95436" d="M310.99432,81.69579C311.01514,82.69579 311.93851,83.18622 312.70898,82.69579C313.27762,82.33384 313.12799,80.93175 312.55832,80.69579C311.76425,80.36687 310.99567,80.98112 311.21582,81.79562L311.79565,82.41045L312.63715,82.69128" id="svg_14" stroke-width="3" stroke="#000" fill="none"/>
  <path t="98226,98316,98330,98330,98355,98386,98386,98445,98474,98528,98554,98554,98570,98586,98587,98602,98661,98690,98760,98787,98803" d="M335.99432,84.69579C334.55832,85.13178 333.89447,85.79562 333.27966,86.41045C332.63715,87.05296 331.90921,87.62193 331.43033,88.25978C330.8869,88.98359 330.90848,89.99552 330.99432,90.86245C331.07806,91.70815 331.5842,92.40117 332.35147,93.04845C333.04721,93.63537 333.7756,93.8102 334.55832,94.27045C335.33414,94.72664 336.28983,94.69579 337.16098,94.69579L337.91031,94.97978L338.41965,95.67045" id="svg_15" stroke-width="3" stroke="#000" fill="none"/>
  <path t="101564,101677,101691,101706,101731,101771,101802,101826,101843,101866,101937,101978,102059,102098,102106,102139,102162,102203,102226" d="M334.99432,92.69579C335.99432,92.69579 336.86307,92.85632 336.99432,93.72112C337.11148,94.49295 337.46014,95.36115 337.96899,96.08511C338.47177,96.80043 338.99207,97.40028 338.99432,98.25978C338.99661,99.13178 338.99432,100.08511 338.99432,100.98112C338.99432,101.89445 338.95831,102.72112 338.41965,103.30645L338.01514,104.17495L337.99432,105.05295L337.98981,105.99128" id="svg_16" stroke-width="3" stroke="#000" fill="none"/>
  <path t="105537,105601,105601,105626,105804,105842,105850,105874,105914,105914,105954,105978,105986,106106,106162" d="M318.99432,67.69579C319.16098,68.69579 319.64084,69.39615 319.99432,70.19579C320.34616,70.99165 320.96841,71.67778 321.79565,71.69579C322.63013,71.71395 323.71185,71.94257 324.42499,71.61045C325.24728,71.22749 325.91031,70.69579 326.71033,70.69579L327.05148,70.04845L327.82764,69.52911" id="svg_17" stroke-width="3" stroke="#000" fill="none"/>
  <path t="108436,108495,108514,108562,108586,108626,108658,108706,108787,108802,108834,108887,108930,109053,109074,109106,109154,109170,109210,109313,109386,109410,109442,109442,109458,109467,109570,109579,109587,109594,109626,109658,109703,110042,110066,110100" d="M306.99432,92.69579C307.79565,92.69579 308.4458,92.36477 309.16098,91.86245C309.85641,91.37399 310.94165,91.69579 311.69882,91.69579C312.63715,91.69579 313.59982,91.32218 314.47348,91.71661C315.15976,92.02645 315.22147,93.24684 314.99432,94.08511C314.8093,94.76794 313.79565,94.69579 312.91031,94.69579C311.99432,94.69579 311.11566,94.69579 310.28983,94.69579C309.35147,94.69579 309.6105,94.7937 310.47348,94.69579C311.45581,94.58432 312.37109,94.27386 312.82364,93.49712C313.26205,92.74463 313.52518,91.34792 312.82764,90.86245C312.20602,90.42982 312.21683,91.91169 311.71033,92.61179C311.20853,93.30536 310.99432,93.99128 311.21582,94.69579L312.09415,94.69579L312.98364,94.69579" id="svg_18" stroke-width="3" stroke="#000" fill="none"/>
  <path t="124937,125194,125268,125327,125354,125354,125378,125402,125426,125458,125519,125554,125602,125602,125652,125690,125722,125768,125912,125912,125946,125970,125994,126050,126074,126106,126106,126114,126138,126162,126170,126187,126194,126211,126250,126314,126330,126330,126378,126410,126410,126466,126506,126530,126538,126547,126563,126616,126635,126667,126732,126799,126943" d="M337.99432,204.56245C337.71033,203.64778 337.23044,203.95975 336.63715,204.50978C335.97122,205.12717 335.13336,205.30937 334.60498,205.96245C334.00323,206.70619 333.5603,207.4209 333.0303,207.98778C332.55222,208.49911 331.85974,208.95668 330.99432,209.39578C330.31894,209.73846 329.48712,210.17146 329.05148,210.91962C328.62701,211.64857 328.53232,212.27832 327.77298,212.78395C327.13858,213.20638 326.99658,214.26244 326.99432,215.16245C326.99213,216.04161 326.87204,216.92816 326.99881,217.86246C327.11023,218.68367 327.98099,218.98918 328.63715,219.61511C329.25833,220.20769 328.78278,221.2039 329.0303,222.16245C329.25156,223.01926 330.22665,223.24391 330.91031,223.84645C331.50793,224.3732 332.34302,224.73863 332.82764,225.56245C333.21164,226.21523 333.75952,226.83594 334.16098,227.56245C334.59695,228.35141 335.4162,228.66202 336.047,229.20978C336.64664,229.73048 336.91006,230.51317 337.60498,231.12645C338.27209,231.71521 339.09845,232.02269 339.99432,232.39578C340.81976,232.73953 341.69882,232.56245 342.59433,232.59845L343.39432,232.98778" id="svg_19" stroke-width="3" stroke="#000" fill="none"/>
  <path t="129715,130009,130009,130042,130050,130066,130090,130113,130113,130122,130242,130258,130274,130298,130322,130346,130354,130362,130394,130457,130466,130474,130498,130514,130602,130602,130618,130634,130658,130682,130682,130724,130830,130850,130859,130867,130882,130891,130891,130898,130914,130930,130938,130954,130970,130994,130994,131003,131018,131034,131050,131067,131067,131082,131098,131099,131114,131139,131170,131171,131186,131195,131203,131218,131234,131234,131242,131267,131283,131291,131307,131315,131330,131347,131362,131370,131418,131442,131442,131450,131458,131483,131499,131515,131531,131547,131563,131579,131579,131587,131595,131610,131642,131658,131658,131674,131691,131698,131707,131714,131724,131730,131754,131754,131771,131771,131827,131834,131850,131874,131983,132011" d="M344.99432,236.56245C343.99432,236.72911 343.34058,237.35742 342.49432,237.54161C341.62479,237.73087 341.21423,238.17332 340.70898,238.84645C340.16788,239.56737 338.9982,239.07524 338.27966,239.64778C337.56955,240.21362 337.97562,241.36398 337.99432,242.26245C338.01233,243.12701 338.69891,243.54959 339.59433,243.56245C340.47363,243.57507 340.90985,244.37811 341.51514,244.56245C342.45184,244.84772 343.39432,244.56245 344.28983,244.56245C345.16098,244.56245 346.09433,244.56245 346.99432,244.56245C347.79431,244.56245 348.51489,244.67848 349.06631,245.13712C349.74298,245.69991 350.85034,245.41101 351.58365,245.59845C352.44562,245.81879 353.42465,246.91457 353.909,246.27711C354.46396,245.54674 353.99432,244.54161 353.99432,243.70111C353.99432,242.72911 353.99432,241.86694 353.99432,240.99844C353.99432,240.12645 353.99432,239.16245 353.99432,238.26245C353.99432,237.36378 353.99432,236.50978 353.99432,235.56245C353.99432,234.76245 353.99432,233.86246 353.99432,232.99844C353.99432,232.12645 353.99432,231.25795 353.99432,230.24129C353.99432,229.42378 353.99432,228.51428 353.99432,227.56245C353.99432,226.76245 354.10065,225.8559 353.99432,224.99844C353.88281,224.09906 353.29889,223.41277 353.07965,222.44778C352.8826,221.58046 352.99432,220.68378 352.99432,219.91579C352.99432,218.90979 352.99432,218.21512 352.99432,217.20912C352.99432,216.27711 352.99432,215.36246 352.99432,214.46245C352.99432,213.56245 352.99432,212.68378 352.99432,211.85796C352.99432,210.96245 352.99432,210.06245 352.99432,209.17311C352.99432,208.27579 352.99426,207.39578 352.99432,206.56245C352.99442,205.58412 353.45645,205.1897 353.98364,204.52644C354.4599,203.92728 354.05054,202.86192 354.49432,202.06245C354.93622,201.26642 354.8363,200.28511 355.21564,199.46245C355.52374,198.7942 355.62564,197.87209 356.01514,197.08328C356.3746,196.35533 356.99432,196.02078 356.99432,195.07845C356.99432,194.38779 356.99432,193.32411 356.99432,192.39578C356.99432,191.56245 357.47742,190.95525 357.909,190.27711C358.40149,189.50323 357.81982,188.42873 358.16098,187.56245C358.43787,186.85939 358.94751,186.08272 358.98981,185.27228C359.04169,184.27846 358.99432,183.36246 358.99432,182.46245L358.99432,181.56245L358.99432,180.68378L358.99432,179.85796" id="svg_20" stroke-width="3" stroke="#000" fill="none"/>
  <path t="132834,132871,132890,132898,132898,132907,132914,132914,132922,132922,132930,132930,132938,132938,132938,132947,132947,132955,132955,132962,132962,132971,132971,132978,132978,132986,132994,133003,133010,133010,133018,133026,133034,133042,133050,133066,133083,133091,133091,133107,133123,133131,133140,133163,133203,133218,133242,133243,133258,133301,133338,133370,133371,133481,133530" d="M342.99432,234.56245C344.99164,233.76112 344.98248,232.91096 345.27832,232.07845C345.59198,231.19585 345.96573,230.32104 345.99432,229.46211C346.02328,228.59227 345.94363,227.79123 346.0303,226.81311C346.11209,225.89014 346.56064,225.08701 346.99432,224.22911C347.32553,223.57397 347.63168,222.83136 347.8728,221.70528C348.03311,220.95668 347.99393,220.07712 347.99432,219.35178C347.995,218.16379 347.90729,217.35757 348.27832,216.44646C348.55481,215.76753 348.96445,214.91112 348.99298,214.04645C349.02475,213.0838 348.99432,212.26245 348.99432,211.36111C348.99432,210.39578 348.99432,209.58328 348.99432,208.67229C348.99432,207.85796 348.99432,206.96245 348.99432,206.06245C348.99432,205.08328 348.92349,204.20219 348.99567,203.36111C349.07941,202.38531 349.56076,201.80344 349.8728,200.80528C350.10352,200.06723 349.99432,199.06245 349.99432,198.16245C349.99432,197.26695 349.99432,196.39578 349.99432,195.46245C349.99432,194.56245 349.99432,193.76245 349.99432,192.91962C349.99432,192.04161 349.99432,191.15178 349.99432,190.24129L349.99432,189.42378L349.99432,188.39578L349.99432,187.46245" id="svg_21" stroke-width="3" stroke="#000" fill="none"/>
  <path t="137886,138013,138043,138066,138090,138090,138098,138114,138114,138130,138147,138170,138194,138210,138218,138234,138250,138266,138290,138330,138346,138354,138386,138394,138411,138434,138443,138474,138498,138515,138524,138539,138586,138594,138595,138626,138634,138705,138705,138730,138755,138778,138826,138858,138898,138930,138954,138986,139002,139055,139303,139694,139746,139787,139818,139858,139882,139906,139953,140003,140050,140051,140090,140099,140218" d="M377.99432,193.56245C376.38364,192.56245 375.48123,192.41971 374.59433,192.57312C373.76086,192.71729 373.19403,193.36351 372.49432,194.06245C371.89407,194.66205 371.17029,195.00021 370.43033,195.58778C369.75327,196.1254 369.18198,196.59654 368.93716,197.26695C368.6275,198.11501 367.54623,198.34822 367.01965,198.99844C366.42874,199.72813 365.97116,200.44533 365.49432,201.08328C364.95776,201.80115 365.1441,202.77504 364.99414,203.66228C364.85013,204.51431 364.01233,204.99788 363.99432,205.86246C363.97559,206.76225 363.99432,207.66228 363.99432,208.53711C363.99432,209.36378 363.99432,210.26245 363.99432,211.16245C363.99432,212.04161 364.45224,212.74295 364.82764,213.56245C365.16785,214.30515 364.95667,215.3246 365.49432,216.04161C366.06885,216.80777 366.64398,217.32751 367.39432,217.95178C368.05078,218.49794 368.68945,218.92752 369.07965,219.64645C369.50555,220.43117 370.70599,220.4588 370.98364,221.17311C371.32944,222.06274 371.81241,222.55673 371.99298,223.36378C372.19238,224.25508 372.19504,224.97093 372.71033,225.64645C373.17795,226.25948 372.99432,227.26245 372.99432,228.20528C372.99432,229.08328 372.99432,229.96245 372.99432,230.86246C372.99432,231.76112 372.99432,232.72911 372.99432,233.56245C372.99432,234.36246 372.99432,235.26245 372.99432,236.20528L372.99432,237.08328" id="svg_22" stroke-width="3" stroke="#000" fill="none"/>
  <path t="143082,143152,143162,143162,143178,143193,143201,143217,143266,143282,143282,143298,143298,143330,143354,143386,143410,143434,143526,143562,143570,143602,143677,143697,143698,143706,143738,143795,143826,143858,143874,143959,144002,144042,144058,144106,144122,144138,144154,144210,144210,144250,144266,144274,144298,144362,144442,144482,144514,144538" d="M357.99432,246.56245C358.88098,245.56378 359.81964,245.56245 360.51031,245.56245C361.58365,245.56245 362.49432,245.56245 363.39432,245.56245C364.28983,245.56245 365.21597,245.56245 366.16098,245.56245C366.81964,245.56245 367.82782,245.58084 368.70764,245.56245C369.56952,245.54445 370.03827,244.70821 370.79565,244.56378C371.67841,244.39546 372.63715,244.56245 373.51514,244.56245C374.39432,244.56245 375.29431,244.56245 376.19299,244.56245C377.16098,244.56245 377.99432,244.56245 378.79431,244.56245C379.69431,244.56245 380.63715,244.56245 381.51514,244.56245C382.39432,244.56245 383.31601,244.75735 384.19299,244.56111C385.00003,244.38052 385.51495,243.57288 386.39432,243.56245C387.29425,243.55179 388.26691,243.8575 389.047,243.50528C389.76331,243.18185 390.28693,242.25497 390.99432,241.56245C391.4892,241.078 392.38309,240.58046 393.27966,240.56245C394.19281,240.54411 395.047,240.56245 395.79565,240.56245C396.82764,240.56245 397.60498,240.56245 398.49432,240.56245L399.47348,240.56245" id="svg_23" stroke-width="3" stroke="#000" fill="none"/>
  <path t="147423,147492,147514,147523,147531,147540,147554,147571,147571,147586,147594,147610,147618,147642,147666,147674,147682,147706,147730,147755,147762,147778,147794,147801,147834,147850,147890,147971" d="M375.99432,224.56245C377.01514,224.56245 377.84543,224.5334 378.7515,224.56245C379.64304,224.59105 380.28128,225.05118 380.87299,225.78395C381.39447,226.42976 381.65436,227.31052 382.29431,227.85796C383.04642,228.50133 384.07285,228.48477 384.56897,229.17311C385.078,229.87936 384.91766,230.90088 385.41965,231.53711C385.94522,232.20328 386.63828,232.6171 387.07831,233.36378C387.49115,234.06433 387.78622,234.93724 388.27832,235.76112C388.74149,236.53654 389.0303,237.17311 389.41965,237.96245L389.91031,238.76112L390.34698,239.50978L390.99432,240.06245" id="svg_24" stroke-width="3" stroke="#000" fill="none"/>
  <path t="150258,150350,150371,150379,150386,150394,150402,150419,150426,150434,150443,150474,150483,150483,150499,150522,150546,150555,150562,150571,150610,150635,150659,150659,150659,150690,150707,150731,150746,150770,150771,150813" d="M386.99432,212.56245C387.99432,212.56245 388.7923,212.59795 389.05148,213.26695C389.37766,214.1088 390.44101,214.34938 390.96899,214.99844C391.56265,215.72824 392.24542,215.91223 392.909,216.56378C393.42093,217.06645 393.50986,218.0676 394.19431,218.76245C394.69052,219.2662 395.30075,220.07544 396.16098,220.56245C396.85767,220.95688 396.99432,221.66228 396.99432,222.61511C396.99432,223.36378 397.36072,224.15535 397.87299,224.78412C398.49698,225.55002 398.3877,226.41209 398.79565,227.07845C399.3299,227.95105 400.30789,228.14059 400.8728,228.78395C401.45795,229.45036 400.99432,230.56245 400.99432,231.36246L401.07965,232.27711" id="svg_25" stroke-width="3" stroke="#000" fill="none"/>
  <path t="151908,151963,151963,151986,151995,152018,152026,152043,152051,152058,152082,152098,152122,152145,152194,152218,152234,152250,152281" d="M376.99432,207.56245C377.99432,207.56245 378.79431,207.56245 379.69431,207.56245C380.63715,207.56245 381.18356,208.16078 382.047,208.55795C382.73203,208.87306 383.68475,208.98651 384.47348,209.56245C385.11377,210.02998 385.6134,210.63232 386.07831,211.36378C386.57547,212.146 387.39432,212.53711 388.19299,212.84645L388.8728,213.44112L388.99432,214.26695L389.0303,215.16245" id="svg_26" stroke-width="3" stroke="#000" fill="none"/>
  <path t="155118,155256,155298,155330,155346,155355,155371,155402,155402,155418,155450,155482,155634" d="M365.99432,196.56245C365.19299,196.56245 364.29431,196.61963 363.49432,197.06245C362.69431,197.50529 361.58102,197.28519 361.05148,197.91512C360.50824,198.56133 360.28983,199.26695 359.59433,199.95178L358.89447,200.44095L357.96899,200.56245L357.11566,200.78378" id="svg_27" stroke-width="3" stroke="#000" fill="none"/>
  <path t="158401,158453,158482,158499,158515,158538,158570,158595,158627,158667,158729,158729,158762,158786,158811,158842,158859,158898" d="M336.99432,203.56245C337.27966,204.47711 338.21466,204.33386 338.91031,204.84645C339.60117,205.3555 339.93448,206.11325 340.34698,206.86246C340.80865,207.70094 341.24673,208.13089 341.82764,208.72911C342.41968,209.33881 342.112,210.34355 342.56897,211.16245C343.00018,211.93518 343.51514,212.54161 344.47348,212.58328L344.98364,213.17311L344.99432,214.06245" id="svg_28" stroke-width="3" stroke="#000" fill="none"/>
  <path t="161942,162010,162018,162050,162051,162067,162083,162098,162114,162122,162146,162162,162178,162186,162210,162226,162266,162290,162306,162338,162338,162377,162419,162435,162450" d="M358.99432,218.56245C358.99432,220.39578 358.69092,220.96013 358.16098,221.72911C357.74179,222.33739 358.01419,223.37733 357.99432,224.31961C357.97632,225.17368 357.37619,225.87279 357.07965,226.76245C356.79382,227.61993 356.99432,228.53711 356.99432,229.36378C356.99432,230.26245 356.99432,231.16245 356.99432,232.04161C356.99432,232.91962 356.90347,233.86719 356.99567,234.76245C357.07935,235.57506 357.71033,236.27711 357.99432,237.08328L357.98364,237.96245L357.71033,238.76112L357.07831,239.47711" id="svg_29" stroke-width="3" stroke="#000" fill="none"/>
  <path t="167617,167737,167753,167762,167770,167770,167778,167785,167795,167795,167802,167809,167825,167833,167833,167849,167889,167905,167921,167921,167946,167970,168001,168010,168017,168018,168026,168034,168042,168057,168066,168073,168074,168082,168089,168106,168106,168122,168161,168223,168242,168249,168265,168282,168313,168330,168353,168361,168378,168378,168386,168395,168410,168410,168418,168434,168434,168442,168458,168490,168513,168521,168546" d="M318.99432,168.56245C320.55832,167.95178 320.84369,167.1499 320.99881,166.26245C321.16107,165.33412 321.63934,164.7326 322.047,163.86246C322.44791,163.00676 323.11078,162.2506 323.47348,161.58328C323.93021,160.74298 324.01361,159.94344 324.41965,159.15178C324.81171,158.38739 324.59555,157.49907 325.00497,156.55179C325.34161,155.77289 326.34961,155.46483 326.82764,154.56245C327.17102,153.91423 327.42743,152.88684 328.28983,152.61961C329.17603,152.345 330.09433,152.56245 330.99432,152.56245C331.79431,152.56245 332.81775,152.14973 333.63715,152.61961C334.32498,153.01404 334.85294,153.78693 334.99448,154.66245C335.14056,155.56599 335.69711,155.97797 336.47348,156.56245C337.06241,157.00581 336.88605,158.06061 337.05148,158.90979C337.23099,159.83118 337.84195,160.55878 338.51514,161.06245C339.23273,161.59935 340.20883,161.73685 341.16098,161.56245C341.94922,161.41809 342.35016,160.59105 343.29431,160.56245C344.1926,160.53525 345.047,160.56245 345.99432,160.56245C346.79431,160.56245 347.70087,160.45615 348.55832,160.56245C349.45773,160.67397 350.16736,161.17271 351.10898,161.47845C351.98416,161.7626 352.74393,162.1082 352.97348,163.06245C353.18161,163.92766 353.49432,164.54161 354.43033,164.56245L355.28983,164.56696L355.96899,164.98778" id="svg_30" stroke-width="3" stroke="#000" fill="none"/>
  <path t="170889,170921,170921,170938,170946,170962,170971,170978,170994,171002,171018,171018,171034,171050,171066,171090,171090,171098,171098,171122,171130,171138,171146,171162,171170,171178,171186,171202,171210,171218,171234,171234,171242,171258,171274,171274,171282,171282,171290,171306,171322,171354,171354,171361" d="M352.99432,137.56245C351.99432,137.56245 351.19431,137.56245 350.29431,137.56245C349.35147,137.56245 348.47348,137.56245 347.59433,137.56245C346.69431,137.56245 345.79431,137.56245 344.89432,137.56245C343.99432,137.56245 343.23422,137.49445 342.34616,137.56696C341.31824,137.65088 340.72073,138.25023 339.99432,138.89578C339.50552,139.33017 339.0369,140.36125 338.19431,140.55978C337.37189,140.75357 336.995,141.36378 336.99432,142.26245C336.99365,143.16245 336.99432,144.06245 336.99432,144.96245C336.99432,145.86246 336.99432,146.76245 336.99432,147.66228C336.99432,148.53711 336.99432,149.32411 336.99432,150.21512C336.99432,151.07845 336.87585,152.11365 337.35147,152.86246C337.86102,153.6647 338.61694,154.1407 339.19299,154.76245C339.73083,155.34296 340.32397,155.89682 340.93716,156.56245C341.42841,157.09573 341.70416,157.85796 342.51166,158.27711L343.47348,158.56245" id="svg_31" stroke-width="3" stroke="#000" fill="none"/>
  <path t="173885,173981,174002,174010,174018,174049,174073,174090,174098,174106,174129,174154,174162,174178,174194,174210,174210,174262,174289" d="M347.99432,170.56245C349.60498,170.59845 350.41034,170.98068 350.91031,171.76112C351.37695,172.48956 352.47641,172.23543 352.93716,172.91962C353.46478,173.70309 352.8107,174.86543 353.27832,175.47845C353.79358,176.15395 354.61404,176.35535 354.97348,177.08328C355.36298,177.87209 355.27832,178.76245 355.82764,179.56245L356.07831,180.27711L356.8728,180.78395L356.99432,181.66228" id="svg_32" stroke-width="3" stroke="#000" fill="none"/>
  <path t="177347,177410,177434,177434,177442,177450,177458,177458,177466,177474,177474,177482,177498,177508,177508,177524,177530,177530,177546,177554,177562,177570,177586,177602,177634,177650,177674" d="M330.99432,176.56245C332.82764,176.72911 333.2019,177.53658 333.56897,178.16245C334.02145,178.93399 334.28781,179.94484 334.99432,180.39578C335.66,180.82066 335.93445,181.58493 335.99448,182.54095C336.04614,183.36391 336.55814,184.13248 337.00333,184.91962C337.42676,185.66832 338.2951,186.02525 338.82498,186.76245C339.33139,187.46703 339.70215,188.15024 340.34698,188.91962C340.93149,189.61702 341.06238,190.46049 341.49432,191.08328C342.05838,191.89658 342.49432,192.54161 342.99432,192.99844L342.99432,193.86246L342.99432,194.76245" id="svg_33" stroke-width="3" stroke="#000" fill="none"/>
  <path t="180336,180457,180457,180474,180505,180545,180569,180601,180641,180641,180649,180674,180690,180713,180722,180737,180753,180762,180778,180802,180818,180826,180850" d="M320.99432,155.56245C319.99432,156.72911 319.5849,157.26985 318.99432,158.04161C318.49643,158.69226 317.54584,158.95866 317.11566,159.66228C316.64001,160.44028 315.73782,160.65366 315.27966,161.36378C314.82181,162.07349 314.99432,163.06245 314.99432,164.04161C314.99432,164.91962 314.99432,165.76245 314.99432,166.66245C314.99432,167.56245 315.04968,168.43771 315.49432,169.08328C316.00269,169.82137 315.99432,170.76245 315.99432,171.66228L315.99432,172.58778" id="svg_34" stroke-width="3" stroke="#000" fill="none"/>
  <path t="184561,184629,184629,184649,184658,184674,184691,184706,184714,184721,184730,184753,184762,184770,184778,184794,184810,184826,184838,184858,184866,184874,184890,184898,184929,184946,184954,184970,184986,185009,185017,185034,185050,185074,185098,185113,185137,185154,185177,185186,185202,185218,185234,185250,185258,185258,185265,185274,185274,185282,185290,185290,185297,185314,185322,185330,185330,185338,185353,185369,185370,185377,185401,185409,185409,185409,185425,185442,185450,185458,185474,185521,185546,185546,185553,185569,185577,185594,185601,185618,185634,185642,185665,185682,185689,185721,185721,185738,185762,185778,185785,185793,185809,185817,185825,185833,185842,185849,185874,185882,185898,185898,185906,185922,185929,185938,185946,185961,185969,186001,186041,186073,186105,186113,186137,186138,186154,186185,186201,186210,186210,186218,186234,186249,186249,186258,186274,186281,186298,186306,186314,186322,186322,186330,186337,186346,186346,186362,186370,186386,186386,186425,186442,186474,186474,186490,186522,186568,186601,186617,186625,186649,186716" d="M298.99432,108.56245C298.82764,109.56245 298.19992,110.05375 297.51514,110.56245C296.82089,111.07816 296.56516,111.93208 295.77283,112.44095C295.0267,112.92014 294.22809,112.87115 293.64166,113.50978C293.11679,114.0814 293.17975,114.94061 292.99298,115.76112C292.80991,116.56541 291.42538,116.30779 291.0303,116.99845C290.60092,117.74906 290.99432,118.76245 290.99432,119.66228C290.99432,120.57312 290.99432,121.36378 290.99432,122.26245C290.99432,123.16245 290.99432,124.04162 290.99432,124.99845C290.99432,125.86245 290.99432,126.76245 290.99432,127.66228C290.99432,128.56245 290.99432,129.36378 290.99432,130.26245C290.99432,131.16245 290.99432,132.04161 290.99432,132.99844C290.99432,133.86246 290.99432,134.76245 290.99432,135.66228C290.99432,136.56245 290.97638,137.36397 290.99432,138.26245C291.01233,139.16298 291.36069,140.07103 292.19299,140.47711C292.94794,140.84546 293.31747,141.46852 294.17966,141.55179C295.10474,141.64114 295.99469,141.5386 296.79431,141.56245C297.75278,141.59105 298.63562,141.94347 299.34164,142.20978C300.21997,142.54109 301.21582,142.56245 302.09433,142.56245C302.99432,142.56245 303.79431,142.56245 304.70898,142.56245C305.53598,142.56245 306.47833,142.56245 307.34164,142.56245C308.23267,142.56245 309.2373,142.65572 310.16098,142.39578C310.84216,142.2041 311.62952,142.12793 312.54764,141.57312C313.1402,141.21504 313.60492,140.56779 314.49432,140.56245C315.39429,140.55705 316.36279,140.78256 317.16098,140.39578C317.91635,140.02974 318.59433,139.57318 319.49432,139.56245C320.38364,139.55185 320.98334,138.9362 321.60498,138.53711C322.34576,138.06152 322.61423,137.07227 323.35147,136.61961C324.15286,136.12758 324.85049,136.16287 325.27832,135.36246C325.73578,134.50661 325.99207,133.86247 325.99432,132.91962C325.99643,132.04161 325.99231,131.16245 325.99432,130.26245C325.99658,129.26695 326.41083,128.57797 326.99432,128.06245C327.6322,127.49889 327.99207,126.85796 327.99432,125.96245C327.99677,124.99845 327.91595,124.1225 327.99881,123.25795C328.08249,122.38467 328.65158,121.64323 328.909,120.73178C329.14764,119.88685 328.98892,118.96243 328.99432,118.06245C328.99966,117.17307 329.71991,116.68852 329.98364,115.95178C330.28342,115.11442 329.99432,114.16245 329.99432,113.26695C329.99432,112.34095 329.99432,111.46245 329.99432,110.56245C329.99432,109.76245 329.67133,109.21758 329.05148,108.55795C328.46356,107.93231 327.99393,107.58781 327.19431,107.56245C326.29294,107.53385 325.53372,107.04275 324.82764,106.39578C324.20877,105.82873 323.39438,105.56779 322.49432,105.56245C321.60501,105.55717 321.20364,104.93821 320.47348,104.58328C319.67297,104.19416 318.67316,104.56245 317.85565,104.56245C316.94614,104.56245 316.10767,104.56245 315.16898,104.56245C314.47833,104.56245 313.405,104.56245 312.47348,104.56245C311.67297,104.56245 310.81964,104.56245 309.88098,104.56245C308.94165,104.56245 307.99432,104.56245 307.19431,104.56245C306.29431,104.56245 305.43033,104.56245 304.47348,104.56245C303.59433,104.56245 302.69431,104.56245 301.79565,104.56245L300.94165,104.56245L300.11566,104.78395" id="svg_35" stroke-width="3" stroke="#000" fill="none"/>
  <path t="187490,187597,187642,187702,187722" d="M305.99432,96.56245C304.38364,96.56245 303.49432,96.56245 302.59433,96.56245L301.69882,96.56245" id="svg_36" stroke-width="3" stroke="#000" fill="none"/>
  <path t="192825,192866,192866,192882,192882,192882,192882,192882,192890,192890,192890,192890,192890,192898,192898,192898,192898,192898,192906,192906,192906,192906,192906,192906,192914,192914,192914,192914,192914,192914,192922,192922,192922,192922,192922,192922,192923,192929,192929,192929,192929,192929,192937,192937,192937,192937,192938,192945,192945,192945,192945,192945,192945,192953,192954,192954,192954,192961,192961,192961,192969,192969,192969,192978,192978,192978,192978,192986,192986,192986,192986,192994,192994,192994,193001,193002,193002,193002,193010,193010,193010,193010,193018,193018,193018,193025,193026,193026,193034,193034,193034,193034,193034,193042,193042,193042,193042,193050,193050,193050,193050,193050,193050,193058,193058,193058,193058,193058,193066,193066,193066,193066,193066,193066,193074,193074,193074,193074,193074,193075,193075,193075,193082,193082,193082,193082,193082,193082,193089,193090,193090,193090,193090,193090,193090,193098,193098,193098,193098,193098,193098,193098,193106,193106,193106,193106,193106,193106,193114,193114,193114,193122,193123,193123,193130,193130,193130,193139,193140,193140,193140,193145,193146,193146,193146,193153,193153,193154,193154,193154,193161,193162,193162,193162,193162,193170,193170,193170,193170,193170,193170,193178,193178,193178,193186,193186,193186,193186,193186,193193,193194,193194,193202,193202,193210,193210,193218,193218,193218,193226,193242,193242,193250,193250,193250,193258,193258,193258,193258,193266,193266,193266,193266,193274,193274,193274,193275,193282,193282,193282,193282,193282,193282,193289,193290,193290,193290,193290,193290,193298,193298,193298,193298,193298,193299,193306,193306,193307,193307,193314,193314,193314,193314,193314,193322,193323,193323,193330,193330,193330,193338,193339,193339,193346,193346,193354,193354,193354,193361,193361,193362,193369,193370,193377,193385,193385,193386,193393,193393,193401,193409,193417,193433,193441,193449,193449,193458,193466,193474,193474,193482,193482,193482,193490,193498,193498,193506,193506,193514,193514,193522,193530,193538,193539,193546,193561,193578,193578,193586,193594,193610,193625,193634,193634,193642,193650,193658,193658,193666,193673,193682,193690,193690,193698,193722,193745,193778,193787,193788,193794,193794,193801,193802,193809,193810,193818,193818,193826,193826,193826,193834,193842,193889,194021,194041,194058,194065,194073,194090,194106" d="M10.99432,195.56245C10.16098,196.56245 10.56606,197.13992 11.66098,197.72911C12.31541,198.08127 13.11595,198.39029 13.53598,198.56245C14.3959,198.91492 15.65716,199.40646 16.42632,199.67578C17.14024,199.92575 17.83918,200.14449 18.56232,200.27579C19.7298,200.48778 20.60855,200.51163 21.53598,200.56245C22.0156,200.58875 22.99963,200.62018 24.49448,200.78395C24.99669,200.83897 26.00544,200.99574 26.51515,201.08328C27.55245,201.26144 28.07891,201.36787 29.71582,201.66245C30.2794,201.76385 30.85126,201.86378 32.01515,202.06245C32.60487,202.16312 33.19877,202.26276 34.99432,202.56245C35.59397,202.66255 36.19197,202.7606 37.37299,202.96245C37.95281,203.06154 38.52342,203.15649 39.62365,203.36246C40.66205,203.55684 41.62403,203.76573 42.53299,203.95178C43.40808,204.13089 44.27453,204.2971 45.16098,204.39578C46.07758,204.49782 47.03022,204.53 47.51515,204.54161C48.49867,204.56517 49.99432,204.56145 50.49398,204.56262C51.48532,204.56496 51.97343,204.55983 52.92232,204.59845C53.82425,204.63516 55.05421,204.76865 55.77998,204.91512C56.77739,205.11641 57.38454,205.32771 58.59432,205.47711C59.1918,205.5509 60.09433,205.55595 61.29432,205.56262C61.89433,205.56596 62.80089,205.54803 63.99432,205.72911C64.60006,205.82101 65.51104,206.08148 66.15148,206.20978C67.50799,206.48151 68.24207,206.51503 68.97349,206.54161C69.6842,206.56743 70.95165,206.56245 71.74365,206.56245C72.49965,206.56245 73.63715,206.56245 74.30415,206.56245C75.01515,206.56245 76.11165,206.56245 77.17282,206.56245C77.83715,206.56245 78.78365,206.56245 79.39298,206.56245C80.59431,206.56245 81.49432,206.56245 82.09431,206.56245C83.29449,206.56245 84.20499,206.56245 84.83031,206.56245C86.16099,206.56245 86.87832,206.56245 87.61965,206.56245C88.36899,206.56245 89.11032,206.56245 90.51299,206.56245C91.19032,206.56245 91.89165,206.5625 92.64899,206.56245C93.95865,206.56236 94.96136,206.56099 95.49165,206.55179C96.59045,206.53273 97.15117,206.51422 97.71298,206.47711C99.37477,206.36736 99.91059,206.28792 100.95832,206.12645C101.47433,206.04692 102.49026,205.86023 103.99432,205.56245C104.4948,205.46336 105.50256,205.26274 106.01565,205.17311C107.06484,204.98982 107.60549,204.88855 109.32765,204.72911C109.93607,204.67279 110.56219,204.64375 111.19965,204.61511C112.49408,204.55696 113.14375,204.53931 113.78899,204.50978C114.42641,204.48062 116.25219,204.34564 116.82632,204.27711C117.38956,204.20988 118.49464,204.04362 119.04498,203.95178C120.163,203.76521 121.32735,203.56061 121.93715,203.46245C123.20354,203.25861 123.8556,203.16208 124.51515,203.06245C125.1796,202.96208 125.84669,202.86598 127.82765,202.56245C128.47284,202.46359 129.10785,202.36365 129.73265,202.26245C130.95303,202.06479 131.54794,201.96417 132.13264,201.86246C133.82852,201.56744 134.37238,201.46291 135.42365,201.26695C135.92635,201.17325 136.87389,200.98793 137.73698,200.84778C138.82791,200.67062 139.69653,200.58441 140.43799,200.56696C141.41539,200.54395 142.21965,200.56245 143.04166,200.56245C144.31165,200.56245 145.01515,200.56287 145.76366,200.56245C146.96365,200.56178 147.65616,200.56348 148.37965,200.52644C149.11235,200.48894 150.5161,200.29329 151.17966,200.11578C151.86067,199.93361 152.5659,199.68182 153.73715,199.24112C154.60585,198.91426 155.05385,198.73232 155.97964,198.38779C156.90987,198.04161 157.82642,197.72525 158.71031,197.44511C159.56781,197.17336 160.42307,196.91063 160.84698,196.75261C162.17233,196.25858 163.07823,195.79941 163.53798,195.55711C164.45792,195.07231 164.89708,194.81326 165.73965,194.33044C166.83028,193.70547 167.42783,193.36464 168.23431,192.94778C169.32236,192.38541 169.96545,192.08316 170.64499,191.72646C171.34695,191.35799 172.04781,190.9931 172.95132,190.36278C173.7421,189.8111 174.33279,189.17215 175.19415,188.80528C175.93968,188.48775 177.01579,188.39969 177.61964,187.91579C178.37598,187.30969 178.95016,186.52718 179.51031,186.13179C180.39267,185.50897 181.43732,185.56245 182.21565,185.56245C183.19466,185.56245 184.03598,185.56245 184.76498,185.56245C185.63731,185.56245 186.66632,185.56245 187.41565,185.56245C188.19699,185.56245 189.39421,185.5565 190.18982,185.56696C190.97359,185.57726 191.74312,185.57115 192.82765,185.72911C193.85382,185.87857 194.51933,186.09143 195.20415,186.32411C196.33493,186.70831 197.16382,187.04828 197.60866,187.21062C198.53362,187.54817 199.49916,187.86813 199.99698,187.99312C201.48354,188.36633 201.99426,188.40694 203.00499,188.50111C203.51456,188.54858 204.55185,188.60547 205.07965,188.64511C206.71658,188.76804 207.27708,188.83742 208.39832,188.99844C208.95341,189.07816 210.02856,189.26059 210.53966,189.36378C211.93376,189.64528 212.73544,189.85486 213.47348,190.08328C214.19891,190.3078 215.32777,190.72878 216.16098,191.04512C217.03445,191.37677 217.46826,191.55643 218.33182,191.85262C219.48767,192.24905 220.42369,192.48595 221.19832,192.54112C222.15878,192.60953 222.94699,192.56245 223.76898,192.56245C224.82765,192.56245 225.75832,192.56245 226.38982,192.56245C227.39565,192.56245 228.23032,192.56245 229.16098,192.56245C229.94699,192.56245 230.76898,192.56245 231.82765,192.56245C232.75832,192.56245 233.59299,192.56245 234.58981,192.56245C235.33716,192.56245 236.37965,192.56245 237.32765,192.56245C237.99965,192.56245 238.98898,192.56245 240.02365,192.56245C240.79166,192.56245 241.69432,192.56245 242.59431,192.56245C243.49432,192.56245 244.40248,192.44597 245.29431,192.56696C246.11566,192.67838 246.80893,193.24301 247.59431,193.58778C248.42204,193.95116 249.31561,194.44225 250.01515,194.56245C250.99405,194.73068 251.76996,195.02458 252.50899,195.27844C253.47882,195.61159 254.31024,195.79716 255.16899,196.13712C255.96814,196.45348 256.87833,196.56178 257.81964,196.56245C258.51031,196.56294 259.58365,196.56245 260.405,196.56245C261.31564,196.56245 262.16898,196.56245 263.10898,196.56245C264.09433,196.56245 264.99432,196.56245 265.79431,196.56245C266.69431,196.56245 267.59433,196.56245 268.47348,196.56245C269.35599,196.56245 270.31564,196.56245 270.99432,196.56245C271.97266,196.56245 272.94614,196.56245 273.70416,196.56245C274.51166,196.56245 275.64716,196.48863 276.38364,196.98778C277.09045,197.4668 277.67834,197.97903 278.51166,198.27844C279.4501,198.61563 280.38364,198.56245 281.27966,198.56245C282.19565,198.56245 283.16098,198.56245 283.81964,198.56245C284.82764,198.56245 285.61966,198.56245 286.65149,198.56245C287.3988,198.56245 288.39432,198.56245 289.19431,198.56245C290.19431,198.56245 290.99432,198.56245 291.99432,198.56245C292.78366,198.56245 293.50897,198.56245 294.58365,198.56245C295.49432,198.56245 296.38364,198.56245 297.27966,198.56245C298.19431,198.56245 299.09433,198.56245 299.99432,198.56245L300.87299,198.56245L301.69882,198.56245L302.59433,198.56245" id="svg_37" stroke-width="3" stroke="#000" fill="none"/>
  <path t="194841,194889,194898,194898,194906,194906,194914,194922,194922,194922,194930,194930,194930,194938,194938,194938,194946,194946,194946,194946,194946,194954,194954,194954,194954,194954,194962,194962,194962,194962,194962,194971,194971,194971,194971,194971,194979,194979,194979,194979,194979,194989,194989,194989,194989,194989,194994,194994,194994,194994,195002,195002,195002,195009,195010,195018,195019,195019,195026,195026,195034,195034,195041,195050,195066,195074,195074,195081,195089,195097,195097,195105,195105,195122,195122,195129,195129,195137,195137,195145,195145,195145,195153,195161,195161,195161,195169,195169,195177,195185,195185,195193,195201,195225,195225,195234,195234,195250,195257,195257,195265,195265,195281,195305,195314,195365,195393,195401,195410,195417,195441,195465,195545,195553,195553,195562,195569,195577,195585" d="M396.99432,196.56245C397.88098,196.56245 398.83032,196.56245 399.59564,196.56245C400.58981,196.56245 401.34387,196.6698 402.36899,196.55179C403.33276,196.44083 404.02359,196.02116 404.681,195.84645C405.66507,195.58493 406.51498,195.57451 407.39566,195.56378C408.59689,195.54915 409.21713,195.57697 410.20865,195.50528C411.33005,195.42421 412.16299,195.28107 412.59964,195.20528C413.49576,195.04971 414.39288,194.87428 415.66098,194.56245C416.42883,194.37364 417.14053,194.16008 417.84497,193.99844C418.55939,193.8345 419.7366,193.67422 420.60864,193.61511C421.53534,193.55229 422.01672,193.55269 422.99698,193.47845C424.49612,193.36491 424.99365,193.28317 425.98364,193.13712C426.47385,193.06479 427.43365,192.8866 428.82764,192.72911C429.70712,192.62975 430.13678,192.60982 430.97348,192.58328C431.78958,192.5574 432.99435,192.56644 433.79431,192.56111C434.59436,192.55577 435.39584,192.54694 436.19431,192.47711C437.39706,192.37192 438.18604,192.21335 438.95264,192.06245C440.02466,191.85144 440.94843,191.649 441.95264,191.58328C442.59058,191.54153 443.59882,191.56245 444.45148,191.56245C445.41565,191.56245 446.21967,191.56245 447.04166,191.56245C448.07266,191.56245 448.95264,191.56245 449.97281,191.56245C450.793,191.56245 451.69431,191.56245 452.59433,191.56245C453.51514,191.56245 454.47833,191.56245 455.16898,191.56245C456.23267,191.56245 457.05695,191.52654 457.86633,191.57312C458.59958,191.61533 459.56747,191.95941 460.42365,192.27844C461.31155,192.6093 462.21564,192.56245 463.19415,192.56245C463.97348,192.56245 464.97314,192.56245 465.65564,192.56245C466.76233,192.56245 467.49432,192.56245 468.22632,192.56245C469.34366,192.56245 470.32764,192.56245 470.99966,192.56245C471.74365,192.56245 472.85147,192.57834 473.6853,192.56245C474.63083,192.54445 475.49231,192.31076 476.28448,191.91512C477.09399,191.51082 477.6781,190.83633 478.29883,190.26245C478.86157,189.74219 479.77802,189.10606 480.42499,188.84778C481.40506,188.4565 482.32455,188.6546 483.16898,188.52644C484.13046,188.38051 484.62796,187.78796 485.39432,187.17311C486.14081,186.57419 487.09433,186.56245 487.99432,186.56245C488.82764,186.56245 489.43555,185.87599 490.29431,185.61961C491.15842,185.36163 492.2182,185.81731 492.87299,185.34111C493.57516,184.83044 494.16098,184.56245 494.99432,184.56245C495.97266,184.56245 496.91031,184.56245 497.69882,184.56245L498.59433,184.59845" id="svg_38" stroke-width="3" stroke="#000" fill="none"/>
  <path t="197104,197129,197129,197129,197137,197137,197137,197146,197146,197146,197146,197154,197154,197154,197154,197162,197162,197162,197162,197162,197162,197169,197169,197169,197169,197169,197177,197177,197177,197177,197177,197177,197185,197185,197185,197185,197185,197185,197193,197193,197193,197193,197193,197202,197202,197202,197202,197202,197209,197210,197210,197210,197210,197210,197218,197218,197218,197218,197218,197225,197226,197226,197226,197226,197234,197234,197234,197234,197242,197242,197242,197242,197249,197250,197257,197258,197258,197258,197265,197265,197266,197266,197273,197274,197281,197281,197281,197289,197290,197298,197305,197306,197314,197321,197330,197330,197337,197354,197362,197362,197378,197378,197385,197394,197394,197401,197401,197418,197418,197426,197426,197426,197442,197442,197450,197450,197458,197458,197465,197465,197474,197474,197474,197482,197482,197490,197490,197490,197498,197505,197506,197506,197513,197513,197513,197514,197522,197522,197530,197530,197530,197530,197537,197538,197538,197538,197546,197546,197554,197554,197554,197562,197563,197563,197570,197570,197570,197578,197578,197578,197585,197586,197586,197593,197594,197594,197601,197601,197601,197601,197601,197609,197609,197609,197609,197617,197618,197618,197626,197626,197626,197634,197634,197642,197642,197642,197650,197650,197658,197658,197666,197666,197674,197674,197682,197682,197682,197690,197690,197691,197698,197698,197698,197698,197706,197706,197706,197706,197714,197714,197714,197721,197721,197721,197729,197729,197729,197738,197738,197746,197746,197754,197754,197762,197763,197770,197770,197779,197780,197786,197786,197786,197793,197794,197794,197801,197801,197801,197809,197809,197810,197810,197817,197817,197817,197825,197825,197826,197826,197833,197833,197833,197833,197834,197841,197849,197849,197857,197857,197865,197874,197882,197882,197889,197890,197898,197898,197906,197913,197914,197922,197922,197929,197930,197938,197938,197945,197954,197954,197954,197962,197962,197970,197970,197970,197978,197986,197986,197986,197994,197994,197994,198002,198002,198002,198010,198010,198010,198017,198017,198018,198025,198026,198033,198041,198041,198049,198057,198065,198090,198097,198114,198129,198145,198201,198241,198281,198282,198313,198322,198329,198338,198353,198353,198385,198401,198417,198418,198441,198465,198481,198481,198489,198505,198529,198553,198561" d="M284.99432,220.56245C280.47964,220.56245 279.83032,220.56245 278.8988,220.56245C277.69431,220.56245 277.09433,220.56245 276.19431,220.56245C274.99432,220.56245 274.39297,220.56245 273.47348,220.56245C272.83716,220.56245 271.47266,220.56245 270.73267,220.56245C269.95264,220.56245 269.13266,220.56245 267.82764,220.56245C267.37283,220.56245 266.43716,220.56245 265.47348,220.56245C264.98364,220.56245 263.99298,220.56245 262.49432,220.56245C261.99432,220.56245 260.99432,220.56245 260.49432,220.56245C259.49432,220.56245 257.99432,220.56146 257.49432,220.56262C256.49432,220.56496 255.99394,220.56114 254.99432,220.59845C253.9938,220.63579 252.99278,220.71683 251.99432,220.84778C251.49348,220.91347 250.49384,221.08063 249.99432,221.17311C248.99332,221.35846 247.49477,221.66365 246.99565,221.76112C246.00552,221.9545 245.51765,222.05708 244.55148,222.20528C243.16422,222.41806 242.27727,222.4821 241.84248,222.50528C240.97395,222.55157 240.08449,222.55997 238.66098,222.56245C238.15166,222.56334 237.08894,222.56375 236.54366,222.57312C235.44485,222.592 234.89705,222.58702 233.32765,222.72911C232.83629,222.77361 231.90807,222.91168 231.03598,223.06245C230.20274,223.2065 228.99547,223.4077 228.19432,223.47845C227.39528,223.54901 226.59296,223.57149 225.79431,223.64645C224.59193,223.75931 223.79846,223.91327 223.01515,224.06245C222.25113,224.20798 221.16283,224.41312 220.48099,224.47711C219.53793,224.56563 218.68086,224.54816 217.67831,224.56378C216.99413,224.57445 215.82585,224.72159 215.03265,224.91512C214.45128,225.05696 213.51254,225.31348 212.47314,225.44095C211.74875,225.5298 211.01527,225.55019 209.96365,225.56111C208.76505,225.57356 208.01978,225.4951 206.99432,225.72911C206.38477,225.86821 205.65047,226.26538 204.74698,226.85796C204.10959,227.276 203.13097,227.39432 202.16098,227.72911C201.47397,227.96623 200.69568,228.53386 199.79298,228.56245C198.82814,228.59302 197.90036,228.34488 197.16365,228.84645C196.46129,229.32465 195.80492,229.67979 194.99432,230.08328C194.13376,230.51164 193.5701,231.15558 192.68982,231.50978C191.8645,231.84187 191.11922,231.91748 190.16098,232.56245C189.49699,233.00938 189.18306,233.82799 188.73965,234.44778C188.24704,235.13635 187.4688,235.55605 186.76099,236.07845C185.95961,236.66991 185.35016,237.30998 184.57298,237.96245C184.05254,238.39938 182.9968,238.88068 182.24498,239.12645C181.33626,239.42352 180.49437,239.54439 179.45164,239.56262C178.74368,239.575 177.9678,239.50513 176.96231,239.84645C176.15323,240.12109 175.22795,240.49956 174.49432,240.54161C173.76326,240.58351 172.64499,240.56245 171.66098,240.56245C170.97998,240.56245 170.17299,240.56245 168.99432,240.56245C168.09882,240.56245 167.51515,240.56245 166.67966,240.56245C165.44699,240.56245 164.76898,240.56245 163.82765,240.56245C163.03265,240.56245 162.14764,240.56245 161.50764,240.56245C160.11165,240.56245 159.37965,240.56245 158.65565,240.56245C157.96365,240.56245 156.76498,240.56245 155.81566,240.56245C154.79416,240.56245 153.97348,240.56245 153.30899,240.56245C152.30899,240.56245 151.47348,240.56245 150.59299,240.56245C149.39565,240.56245 148.80498,240.56245 147.95148,240.56245C146.91565,240.56245 145.99432,240.56245 145.31032,240.56245C144.30899,240.56245 143.47348,240.56245 142.59299,240.56245C141.39165,240.56245 140.77298,240.56245 140.12231,240.56245C138.66098,240.56245 137.82632,240.56245 137.38898,240.56245C136.49432,240.56245 135.59966,240.56245 134.32765,240.56245C133.56631,240.56245 132.87698,240.56245 131.96048,240.56245C130.91565,240.56245 129.99432,240.56245 129.31032,240.56245C128.31032,240.56245 127.49432,240.56245 126.67831,240.56245C125.44698,240.56245 124.76898,240.56245 123.82765,240.56245C123.04615,240.56245 122.00371,240.53485 121.13715,240.56262C120.24479,240.59122 119.35262,240.95787 118.58982,241.20978C117.61104,241.533 116.79436,241.55711 115.79432,241.56245C114.99432,241.56673 113.99432,241.56245 113.18365,241.56245C112.53716,241.56245 111.57265,241.56245 110.74765,241.56245C109.83265,241.56245 108.82765,241.56245 108.11032,241.56245C106.99432,241.56245 106.24699,241.56245 105.16099,241.56245C104.47965,241.56245 103.51515,241.56245 102.89882,241.56245C101.69449,241.56245 100.80499,241.56245 99.95148,241.56245C98.91565,241.56245 98.21965,241.56245 97.31032,241.56245C96.31032,241.56245 95.49432,241.56245 94.67831,241.56245C93.68098,241.56245 92.84099,241.56245 91.87832,241.56245C91.11032,241.56245 90.15832,241.56245 89.39298,241.56245C88.39432,241.56245 87.59431,241.56245 86.59431,241.56245C85.79432,241.56245 84.79432,241.56245 83.99432,241.56245C82.99432,241.56245 82.18365,241.56245 81.30898,241.56245C80.30898,241.56245 79.47349,241.56245 78.88982,241.56245C77.69432,241.56245 76.79432,241.56245 76.19432,241.56245C74.99432,241.56245 74.09431,241.56245 73.49432,241.56245C72.59431,241.56245 71.39298,241.56245 70.78365,241.56245C69.83715,241.56245 68.82765,241.56245 68.10899,241.56245C67.35831,241.56245 66.18982,241.56245 64.99432,241.56245C64.19832,241.56245 63.42632,241.56245 62.70232,241.56245C62.05032,241.56245 60.86124,241.57538 59.82765,241.56245C58.99412,241.55203 58.17039,241.37784 57.40498,240.98778C56.60373,240.57944 55.68982,240.56245 54.67299,240.56245C53.99432,240.56245 53.01565,240.56245 52.24165,240.56245C51.34165,240.56245 50.47832,240.56245 49.49432,240.56245C48.50898,240.56245 47.78365,240.56245 46.79448,240.56245C46.01515,240.56245 45.00298,240.65596 44.24165,240.50528C43.3124,240.32138 42.67911,239.77887 41.60899,239.59845C40.6735,239.44073 39.98898,239.56245 38.99965,239.56245C38.13699,239.56245 37.18898,239.56245 36.22632,239.56245C35.49432,239.56245 34.76232,239.56245 33.64499,239.56245C32.66098,239.56245 31.98449,239.56245 31.20898,239.56245C30.16098,239.56245 29.21965,239.56245 28.54165,239.56245C27.30898,239.56245 26.47348,239.56245 25.88982,239.56245C24.69448,239.56245 23.80499,239.56245 23.23032,239.56245C22.16098,239.56245 21.23032,239.56245 20.39565,239.56245C19.39882,239.56245 18.65149,239.56245 17.61965,239.56245C16.67299,239.56245 15.81965,239.56245 14.87965,239.56245C13.99432,239.56245 13.11548,239.54587 12.28982,239.56245C11.39377,239.58046 10.61242,240.01854 9.79565,240.47845C9.09418,240.87344 9.07447,241.78763 8.99415,242.66245C8.91047,243.5739 8.31341,244.19073 7.98365,244.99844C7.67725,245.74893 6.79563,246.09447 6.16098,246.72911C5.52633,247.36377 5.36321,248.24226 4.55832,248.57312C3.80783,248.88161 2.96637,249.32109 2.29432,249.61511C1.47119,249.97523 1.18056,251.09247 0.42498,251.47711C-0.27607,251.83398 -1.24402,251.56696 -1.98035,251.98778L-2.52652,252.54161L-3.40568,252.57312L-4.30568,252.91512" id="svg_39" stroke-width="3" stroke="#000" fill="none"/>
  <path t="199303,199419,199434,199434,199474,199490,199553,199553,199585" d="M8.99432,196.56245C7.97348,196.56245 7.01582,196.56245 6.19565,196.56245C5.16098,196.56245 4.34765,196.56245 3.51032,196.56245L2.64698,196.56245L1.64098,196.56245" id="svg_40" stroke-width="3" stroke="#000" fill="none"/>
  <path t="201333,201378,201378,201386,201394,201394,201402,201402,201410,201410,201410,201417,201418,201418,201426,201426,201426,201434,201434,201434,201434,201441,201441,201441,201441,201450,201450,201450,201457,201457,201466,201466,201466,201474,201474,201482,201482,201489,201489,201498,201506,201506,201513,201513,201521,201521,201530,201530,201538,201538,201538,201546,201546,201554,201561,201562,201571,201571,201577,201593,201593,201607,201625,201633,201633,201642,201649,201658,201665,201666,201674,201674,201674,201682,201682,201690,201698,201698,201706,201706,201722,201722,201730,201730,201738,201746,201754,201761,201778,201778,201787,201787,201794,201794,201809,201825,201825,201921,201945" d="M410.99432,216.56245C411.99432,216.56245 412.79431,216.56485 413.7515,216.56245C414.65149,216.5602 415.41296,216.56041 416.39566,216.27844C417.24521,216.03468 418.15717,215.69684 418.94699,215.61961C419.76639,215.53951 420.82803,215.58209 421.53714,215.55795C422.39096,215.5289 423.39301,215.2663 424.03598,215.06245C424.76077,214.83267 425.96454,214.64087 426.66632,214.58778C427.41522,214.53114 428.20126,214.51155 429.39398,214.34094C430.18878,214.22725 430.95789,214.06123 431.67999,213.85796C432.96155,213.49718 433.71021,213.13885 434.38531,212.91962C435.38043,212.59645 436.23026,212.56779 437.16098,212.56245C437.94247,212.55798 438.9845,212.56245 439.85147,212.56245C440.74249,212.56245 441.65149,212.56245 442.3988,212.56245C443.39297,212.56245 444.33716,212.56245 445.24164,212.56245C446.16098,212.56245 447.03494,212.68466 447.97299,212.34111C448.66495,212.08769 449.48236,211.66309 450.20499,211.53711C451.19855,211.36389 451.97089,210.98155 452.99432,210.72911C453.78131,210.53499 454.59503,210.59589 455.58981,210.55795C456.33847,210.5294 457.18253,210.0739 458.16098,209.72911C458.79431,209.50594 459.82764,209.56245 460.68982,209.56245C461.51514,209.56245 462.47833,209.56245 463.34164,209.56245C464.23267,209.56245 465.21582,209.56245 466.09448,209.56245C466.87964,209.56245 467.84476,209.81947 468.7515,209.56229C469.53079,209.34125 470.311,208.64124 471.01514,208.58328C471.99124,208.50294 472.80499,208.56245 473.67966,208.56245C474.67566,208.56245 475.45264,208.56245 476.49432,208.56245C477.32764,208.56245 478.18106,208.61246 479.11032,208.56111C479.88174,208.51849 480.81442,208.09119 481.59564,207.84645C482.37979,207.60081 483.36829,207.79219 484.23267,207.55795C485.05124,207.33612 485.52225,206.6685 486.405,206.55179C487.33167,206.42928 488.02084,206.08426 488.97299,205.46262C489.63953,205.02745 490.47559,204.61543 491.16898,204.57312C492.23529,204.50806 493.09433,204.34111 493.69431,203.91512L494.59433,203.57312L495.49432,203.56245" id="svg_41" stroke-width="3" stroke="#000" fill="none"/>
  <path t="203442,203483,203505,203505,203513,203513,203521,203521,203529,203529,203537,203537,203545,203553,203553,203561,203569,203594,203602,203609,203626,203633,203642,203650,203689,203729,203738,203745,203754,203762,203762,203785,203817" d="M305.99432,220.56245C305.10767,219.56378 304.15833,219.56245 303.39297,219.56245C302.39432,219.56245 301.59433,219.56245 300.59433,219.56245C299.79431,219.56245 298.79449,219.56245 298.01514,219.56245C297.01581,219.56245 296.19565,219.56245 295.35831,219.56245C294.34164,219.56245 293.64697,219.56245 292.63031,219.56245C291.69431,219.56245 290.79431,219.56245 289.89447,219.56245C289.01965,219.56245 288.19299,219.56245 287.29431,219.56245C286.39432,219.56245 285.51514,219.56245 284.63715,219.56245C283.69431,219.56245 282.79431,219.56245 281.89447,219.56245C281.00897,219.56245 280.133,219.56245 279.47699,219.56245L278.405,219.56245L277.51514,219.56245" id="svg_42" stroke-width="3" stroke="#000" fill="none"/>
 </g>
</svg>