<svg width="280" height="420" xmlns="http://www.w3.org/2000/svg" xmlns:svg="http://www.w3.org/2000/svg" xmlns:xlink="http://www.w3.org/1999/xlink">
 <!-- Created with SVG-edit - http://svg-edit.googlecode.com/ -->
 <g display="inline" class="layer">
  <title>Layer 1</title>
  <path t="10915,11114,11114,11123,11131,11154,11187,11242,11267,11291,11291,11307,11307,11322,11322,11322,11339,11363,11371,11387,11419,11442,11450,11459,11475,11490,11523,11523,11539,11563,11587,11587,11858,11858,11899,11899,11906,11916,11923,11939,11939,12019,12026,12035,12051,12099,12107,12147,12147,12156,12163,12187,12194,12194,12387,12402,12411,12419,12427,12499,12595,12635,12658,12659,12691,12731,12731,12786,12795,12805,12811,12826,12914,12924,12939,12939,12964,12986,13003,13004,13019,13019,13042,13066,13066,13074,13075,13091,13091,13114,13194,13194,13219,13227,13290,13291,13301,13301,13357,13364,13402,13402,13442,13587,13636,13691,13691,13706,13716,13843,13843,13858,13858,13875,13891,13891,13899,13907,13916,13979,13987,13995,13995,14034,14082,14099,14114,14202,14219,14234,14242,14243,14251,14282,14283,14498,14499,14851,14866,14886,14886,14893,14894,14914,14923,14931,15003,15026,15051,15067,15114,15147,15147,15267,15355,15355,15363,15410,15570,15570,15587,15610,15631,15666,15679,15686,15707,15731,15732,15740,15740,15763,15778,15818,15851,15923,15932,15954,16034,16034,16059,16067,16084,16418,16442,16532,16538,16555,16563,16578,16603,16626,16627,16643,16675,16675,16684,16691,16763,16772,16778,16779,16787,16787,16818,17011,17090,17107,17116,17194,17204,17227,17250,17251,17274,17290,17301,17318,17318,17324,17331,17331,17340,17341,17356,17357,17362,17371,17379,17395,17410,17419,17437,17458,17483,17491,17492,17515,17530,17541,17556,17571,17610,17626,17627,17635,17643,17658,17667,17676,17684,17707,17723,17740,17741,17778,17795,17803,17811,17835,17851,17866,17866,17875,17875,17891,17901,17908,17918,17931,17946,17962,17971,17979,17995,18011,18035,18035,18050,18061,18066,18075,18084,18084,18091,18108,18116,18131,18131,18147,18147,18163,18163,18177,18182,18242,18259,18267,18267,18290,18309,18309,18330,18347,18347,18370,18371,18379,18380,18395,18395,18418,18435,18442,18451,18459,18459,18467,18475,18475,18483,18505,18507,18507,18530,18546,18547,18558,18558,18563,18578,18579,18586,18603,18610,18620,18621,18635,18666,18683,18691,18707,18707,18719,18723,18731,18740,18740,18747,18747,18763,18778,18779,18786,18787,18795,18818,18858,18858,18891,18891,18931,19002,19019,19034,19034,19042,19052,19062,19076,19084,19101,19102,19108,19116,19123,19131,19141,19142,19147,19170,19179,19179,19187,19188,19219,19220,19227,19235,19260,19290,19291,19347,19347,19538,19539,19778,19786,19795,19811,19811,19819,19827,19828,19834,19845,19846,19851,19860,19860,19867,19876,19899,19899,19899,19914,19915,19925,19925,19926,19946,19954,19971,19995,20019,20026,20082,20090,20130,20139,20139,20170,20171,20179,20187,20207,20207,20221,20221,20228,20234,20243,20261,20274,20285,20291,20291,20307,20326,20326,20331,20347,20356,20386,20387,20395,20406,20406,20426,20466,20485,20485,20502,20507,20507,20532,20541,20582,20586,20595,20621,20636,20643,20651,20754,20773,20773,20786,20798,20826,20842,20843,20859,20874,20891,20903,20931,20931,20946,20979,20980,21082,21090,21154,21566,21570,21589,21610,21611,21754,21755,21763,21778,21779,21795,21796,21906,22010,22019,22027,22044,22068,22074,22111,22112,22116,22117,22194,22211,22212,22212,22243,22306,22315,22315,22323,22355,22418,22466,22467,22483,22490,22506,22538,22538,22573,22574,22650,22658,22667,22675,22676,22684,22778,22803,22803,22813,22813,22829,22835,22860,22890,22891,22892,22900,22923,22939,22963,22986,23003,23011,23012,23019,23030,23036,23074,23099,23100,23108,23170,23171,23178,23179,23194,23215,23219,23234,23254,23259,23306,23315,23334,23347,23394,23395,23420,23420,23430,23454,23475,23508,23523,23523,23858,24018,24282,24330,24339,24358,24358,24362,24378,24538,24578,24611,24626,24674,24691,24722,24738,24772,24778,24818,24834,24923,24924,24939,24958,24965,24983,25026,25058,25074,25099,25100,25162,25194,25274,25306,25338,25339,25410,25426,25439,25439,25442,25452,25468,25546,25674,25691,25706,25722,25738,25742,25742,25747,25762,25778,25818,26090,26107,26116,26117,26122,26122,26131,26140,26147,26162,26200,26200,26210,26211,26226,26250,26260,26264,26538,26570,26594,26626,26666,26667,26674,26675,26683,26704,26834,26906,26930,26931,26942,26972,26986,27010,27037,27075,27090,27122,27139,27314,27315,27322,27362,27370,27371,27388,27410,27410,27594,27635,27636,27637,27642,27643,27658,27802,27858,27874,27910,28082,28098,28114,28170,28171,28178,28187,28250,28338,28354,28355,28370,28386,28419,28442,28468,28475,28546,28547,28562,28586,28658,28658,28667,28706,28706,28731,28874,28898,28962,28963,29330,29338,29347,29366,29403,29403,29458,29490,29523,29539,29539,29553,29578,29582,29594,29595,29606,29633,29645,29645,29671,29671,29675,29686,29710,29710,29730,29755,29756,29770,29789,29795,29805,29830,29835,29842,29861,29872,29890,29901,29910,29911,30018,30034,30034,30050,30093,30146,30153,30154,30193,30746,30890,30922,30923,30945,30962,30975,30979,30994,31018,31033,31034,31090,31106,31122,31123,31138,31201,31210,31219,31226,31234,31245,31259,31260,31285,31285,31354,31361,31370,31371,31388,31398,31402,31403,31416,31417,31420,31420,31428,31429,31435,31436,31436,31454,31483" d="M111.11111,132.81111C111.11111,131.81111 111.11111,131.01111 111.11111,130.11111C111.11111,129.16827 111.11111,128.29028 111.11111,127.41111C111.11111,126.51111 111.30149,125.50035 110.77778,124.81111C110.26595,124.13751 109.3195,123.67733 109.15278,122.79028C108.97174,121.82709 109.11111,121.02177 109.11111,120.29644C109.11111,119.33194 109.37894,118.36871 109.10661,117.51561C108.84469,116.6951 108.11645,116.20049 108.11111,115.31111C108.10572,114.41113 108.11111,113.51561 108.11111,112.64178C108.11111,111.79028 108.11111,110.83261 108.11111,110.01244C108.11111,109.11111 108.15607,108.24065 107.66844,107.48978C107.19014,106.75328 105.94668,106.02016 106.13245,105.25777C106.29981,104.5709 107.49322,104.58587 108.34944,104.81561C109.16858,105.0354 109.71812,105.73956 110.31111,106.37911C110.91084,107.02592 111.50827,107.74052 112.08578,108.23644C112.73068,108.79025 113.67373,108.76443 114.13644,109.42178C114.64861,110.14937 115.13542,111.00864 115.81111,111.45394C116.5268,111.9256 117.10749,112.62857 117.94444,112.81111C118.79642,112.99693 119.41824,113.05846 120.19378,113.52711C120.97271,113.99781 121.91245,113.81111 122.81111,113.81111C123.71111,113.81111 124.63506,114.08273 125.46378,113.80661C126.25297,113.54366 126.9411,113.10323 127.54311,112.64178C128.3376,112.03278 127.96173,110.80458 128.16827,110.11561C128.43198,109.23596 129.08252,108.51247 129.11111,107.61111C129.13965,106.71172 128.9247,105.76844 129.19644,105.00977C129.5188,104.10982 130.31566,103.61562 130.91112,103.01111C131.59555,102.31627 132.0563,101.61199 132.11111,100.64444C132.15825,99.81219 132.29164,98.9851 132.68578,98.22178C133.10052,97.41855 133.4586,96.49348 133.99777,95.92577C134.58015,95.31255 135.28578,94.63644 135.94444,93.97778C136.56944,93.35278 136.94719,92.594 137.27777,91.81111C137.60809,91.02885 138.10069,90.31129 138.11111,89.42178C138.12218,88.47784 138.10071,87.76939 138.11111,86.81111C138.12154,85.85261 138.55063,85.24094 139.16377,84.69678C139.79175,84.13946 139.93176,83.30687 140.50044,82.44711C141.04453,81.62454 141.16827,80.81111 142.11111,80.81111C142.91112,80.81111 143.81111,80.81111 144.67511,80.81111C145.55411,80.81111 146.33244,80.81111 147.31078,80.81111C148.23911,80.81111 149.11876,80.8869 149.5471,81.67244C149.90659,82.33168 150.66714,83.08829 150.98961,83.91094C151.3147,84.74028 152.05022,85.02634 152.11111,85.91111C152.17291,86.80899 152.11111,87.61111 152.11111,88.51111C152.11111,89.41111 152.11111,90.31111 152.11111,91.21111C152.11111,92.10661 152.11111,92.97778 152.11111,93.91111C152.11111,94.81111 152.20276,95.60729 152.61111,96.29028C153.11902,97.13976 153.10071,97.85283 153.11111,98.81111C153.12154,99.76961 153.67044,100.29441 154.10045,100.91911C154.64168,101.70541 154.11111,102.57111 154.11111,103.66795C154.11111,104.44495 153.75244,105.41003 154.13194,106.29028C154.4399,107.00455 154.91916,107.54416 155.14711,108.41111C155.37213,109.26691 156.57394,109.43003 157.02577,110.09778C157.52124,110.83002 156.87791,111.8175 157.11244,112.81377C157.29338,113.5824 157.80193,114.33656 158.08578,115.17511C158.37135,116.01868 159.15164,116.54009 159.91112,116.89511C160.73367,117.27962 161.39644,117.81111 162.31111,117.81111C163.21111,117.81111 164.24889,117.4895 164.94444,117.97778C165.66125,118.48096 166.27913,118.97436 166.93645,119.23644C167.94655,119.63919 168.74944,119.80886 169.63194,119.81111C170.51111,119.81335 171.47591,119.64974 172.21094,120.03244C173.05826,120.4736 173.72177,120.81048 174.63194,120.81111C175.59378,120.81178 176.42903,120.82782 177.09027,121.31111C177.79033,121.82278 178.48082,122.24022 178.98961,123.03261C179.4687,123.77873 179.18747,124.88778 178.50044,125.38577C177.78397,125.90511 176.78008,125.99794 176.27777,126.81111C175.80609,127.5747 175.14287,128.0289 174.51111,128.38577C173.66849,128.86176 172.78976,129.00374 172.09027,129.31111C171.14761,129.72533 170.43945,130.09369 169.88977,130.68977C169.29778,131.33174 168.70096,131.96619 168.09027,132.29028C167.17377,132.77669 166.27379,132.60066 165.41112,132.86827C164.54514,133.1369 164.13971,134.10976 164.11111,135.01111C164.08258,135.91049 164.11111,136.81111 164.11111,137.61244C164.11111,138.44711 164.11111,139.45927 164.11111,140.24178C164.11111,141.24712 164.11128,142.11111 164.11111,143.01111C164.11095,143.9111 163.96645,144.64194 163.26044,145.21111C162.47192,145.84679 162.11562,146.56825 162.11111,147.45927C162.10716,148.24176 161.88277,149.25031 161.53644,149.96045C161.12355,150.80707 161.11111,151.66177 161.11111,152.64177C161.11111,153.42178 161.11111,154.31111 161.11111,155.21111C161.11111,156.10661 161.11111,157.09644 161.11111,157.9111C161.11111,158.81111 161.11111,159.61111 161.11111,160.64444C161.11111,161.42178 161.11111,162.31111 161.11111,163.21111C161.11111,164.10661 161.11111,165.03278 161.11111,165.97778C161.11111,166.81111 161.11111,167.78944 161.11111,168.64444C161.11111,169.42178 161.11111,170.31111 161.11111,171.21111C161.11111,172.10661 161.11111,173.09644 161.11111,173.9111C161.11111,174.81111 161.11111,175.61111 161.11111,176.64444C161.11111,177.42178 161.11111,178.31111 161.11111,179.21111C161.11111,180.11111 161.11111,181.01244 161.11111,181.97778C161.11111,182.81111 161.11111,183.78961 161.11111,184.50661C161.11111,185.4111 161.10886,186.31111 161.11111,187.21111C161.11337,188.10663 161.8367,188.68503 162.10045,189.42178C162.40021,190.25914 161.8634,191.24734 162.11562,192.10661C162.34224,192.87868 163.51585,192.95679 163.94444,193.81111C164.31075,194.54129 164.12654,195.53636 164.61111,196.29028C165.07149,197.00655 165.11111,197.83194 165.11111,198.78961C165.11111,199.60977 164.92827,200.55217 165.14711,201.42178C165.36424,202.28458 165.93404,202.97993 166.11111,203.81111C166.32019,204.79247 166.81056,205.397 167.02577,206.2951C167.22784,207.13835 167.06827,208.21025 167.61111,208.79028C168.07932,209.29056 168.56407,209.91832 168.94444,210.81111C169.26463,211.56265 169.01501,212.55385 169.67911,213.09644C170.32875,213.62721 171.02299,214.11301 171.11145,215.13245C171.17023,215.80983 171.56255,216.78055 172.11111,217.31111C172.7888,217.96657 173.05154,218.81204 173.11128,219.78961C173.15515,220.50752 173.7973,221.23349 174.05394,222.11111C174.30705,222.97667 173.91293,223.97169 174.27777,224.81111C174.5753,225.49565 175.53729,226.02786 175.94444,226.81111C176.33112,227.55496 176.67494,228.38113 177.12012,229.16827C177.54355,229.91698 178.29822,230.136 178.94177,231.01111C179.45584,231.71013 179.76434,232.41908 180.30978,233.29378C180.70709,233.93092 181.08322,234.82594 181.46828,235.51645C181.88306,236.26027 182.55521,236.93314 183.19511,237.52711C183.81705,238.1044 184.56798,238.64308 184.82578,239.32845C185.20311,240.33162 185.32793,241.19818 186.11111,241.64444C186.89093,242.08879 187.3414,242.77144 187.75844,243.51111C188.17848,244.25613 188.92207,244.80475 189.10661,245.57277C189.31482,246.43921 189.15738,247.43941 189.82094,248.04944C190.37781,248.56139 191.58344,248.65643 192.21111,249.25394C192.72023,249.73859 193.26973,250.74911 193.67511,251.40044C194.14774,252.15979 194.28145,252.98077 194.97244,253.67244C195.46271,254.16319 196.3223,254.85045 196.74945,255.50661C197.2682,256.30347 197.87007,256.77835 198.51111,257.2471C199.28993,257.81659 199.87215,258.45584 200.50044,259.21112C201.04649,259.86752 201.41353,260.37549 201.98961,261.03262C202.57423,261.69952 202.31871,262.78522 202.68578,263.4111C203.13826,264.18265 203.39162,265.21451 204.11111,265.64444C204.88158,266.10483 205.07391,266.81195 205.11111,267.61111C205.15382,268.52878 206.04254,269.02747 206.11111,269.97778C206.15852,270.63483 206.19203,271.70184 206.72177,272.40045C207.23398,273.07596 207.96225,273.57944 208.10661,274.51111C208.24443,275.40051 208.02916,276.39993 208.33244,277.25412C208.55339,277.8764 208.99582,278.80429 209.0751,279.60043C209.17862,280.63992 209.11111,281.50662 209.11111,282.4111C209.11111,283.3111 208.87178,284.35535 209.44444,284.97778C209.95557,285.53333 210.95102,285.89273 211.11111,286.8111C211.23174,287.50299 211.65291,288.29138 212.30978,289.01111C212.84326,289.59561 213.05597,290.44876 213.11562,291.45929C213.16197,292.2446 213.81067,292.82813 214.17244,293.49377C214.6217,294.3204 214.95573,295.07306 215.46295,295.80579C216.06978,296.6824 216.68929,297.26697 216.94444,298.14444C217.20023,299.02405 216.72131,299.8291 217.13194,300.83194C217.43854,301.58069 217.77164,302.27399 218.12178,303.20044C218.39844,303.93243 219.03101,304.42194 219.46378,305.16827C219.92029,305.95557 220.61499,306.55444 220.98961,307.25378C221.39569,308.01184 221.39052,308.89554 221.82712,309.61246C222.29854,310.38654 222.89726,310.84976 223.40662,311.51645C223.91589,312.18304 223.89926,313.29538 224.16827,314.10577C224.42513,314.87952 224.69434,315.53488 225.14711,316.37512C225.53992,317.10406 226.61075,317.18182 227.02711,318.01111C227.45355,318.86044 227.79576,319.49817 228.10661,320.45395C228.36371,321.24445 228.80652,321.96078 229.02577,322.92578C229.22282,323.79309 229.38455,324.57639 230.11111,324.97778C230.8838,325.40466 231.5524,326.02298 231.98978,326.9111C232.31207,327.56555 232.73094,328.33331 233.39511,329.09644C233.98688,329.77637 234.07072,330.57339 234.63194,331.3111C235.22191,332.08658 236.05676,332.28195 236.75394,332.86377C237.34511,333.35712 237.56462,334.33908 238.05844,335.1066C238.5065,335.80298 239.51669,335.80215 240.11111,336.3111C240.70256,336.81747 241.02684,337.58453 241.5471,338.2471C242.12698,338.98557 242.76404,339.6185 243.71111,339.80045C244.57454,339.96634 245.29161,340.26904 246.11111,340.64444C246.85381,340.98465 247.89339,340.47739 248.67511,340.84711C249.41597,341.19751 250.01202,341.64273 250.94444,341.97778C251.7529,342.26828 252.67596,342.67657 253.02711,343.37912C253.42062,344.16641 253.81558,344.80661 254.71111,344.8111C255.59026,344.81549 256.1124,345.2471 256.11111,346.11111C256.10977,347.01111 255.82491,347.88705 255.09027,348.29028C254.18079,348.78949 253.49951,348.97101 252.94177,349.61246C252.33607,350.30908 251.5014,350.59744 250.71378,351.01111C249.9763,351.39841 249.564,352.37747 248.94044,352.80978C248.25865,353.28247 247.41597,353.42471 246.67511,353.77512C245.89339,354.14484 244.86174,353.66522 244.01094,354.03244C243.29204,354.34274 242.3589,354.48196 241.68045,354.89511C240.87668,355.38458 240.44695,355.8111 239.59027,355.8111C238.87778,355.8111 237.65277,355.8111 236.80661,355.8111C235.94444,355.8111 235.10658,355.90497 234.13278,355.81094C233.26575,355.72723 232.78001,354.99683 232.01111,354.58978C231.25357,354.18875 230.49129,353.98074 229.61111,353.79028C228.76054,353.60623 227.94444,352.97775 227.11111,352.8111C226.27777,352.64441 225.64568,352.146 225.13644,351.42178C224.66519,350.75159 223.80737,350.45801 223.11111,349.8111C222.50784,349.25058 221.57864,348.94666 220.82578,348.5271C220.03841,348.08832 219.32552,347.83154 218.46295,347.45395C217.79427,347.16122 217.21187,346.23337 216.59027,345.8111C215.87788,345.32718 214.93982,344.81848 214.29645,344.4111C213.67592,344.01819 213.12718,343.21124 213.11111,342.3111C213.09525,341.42188 212.46469,341.00156 211.72177,340.37512C211.09128,339.84348 211.28467,338.77286 211.02577,338.01111C210.724,337.1232 210.11707,336.43793 209.61111,335.8111C209.10178,335.18005 209.35751,334.27127 209.05394,333.52094C208.71031,332.6716 207.64487,332.39014 207.11111,331.79028C206.41246,331.00513 206.44827,330.2645 206.10045,329.42178C205.77612,328.63602 205.12373,328.10651 205.11111,327.21112C205.09843,326.31094 204.49712,325.67847 204.14711,324.82578C203.81805,324.02411 203.72835,323.22348 203.23244,322.5896C202.65128,321.84674 202.36571,321.08014 201.91245,320.32712C201.50951,319.65768 201.26285,318.6875 201.11111,317.8111C200.95654,316.91827 200.32063,316.46692 199.88962,315.71112C199.50804,315.04202 198.814,314.21432 197.91245,313.89645C197.07362,313.60071 196.42746,314.20853 195.75394,314.75845C195.05055,315.33276 194.31078,315.61212 193.63194,316.29028C193.02681,316.89481 192.35974,317.4725 191.81561,318.11111C191.17361,318.86456 191.65045,319.99628 191.11095,320.68961C190.6647,321.26309 189.43631,321.24493 189.16827,322.11111C188.90167,322.97263 189.35643,324.0441 188.82712,324.72711C188.33913,325.35681 187.72504,325.94946 187.39511,326.61111C186.97456,327.45447 187.11111,328.4111 187.11111,329.3111C187.11111,330.21112 187.11111,331.11111 187.11111,332.01111C187.11111,332.9111 187.07391,333.81195 187.11111,334.61111C187.15382,335.52878 188.04456,336.02631 188.11111,336.87244C188.17386,337.67007 188.29372,338.63605 188.68578,339.40045C189.0918,340.19211 188.94203,341.21609 189.55377,341.9111C190.00702,342.42606 190.98856,342.88696 191.11111,343.8111C191.22664,344.68216 191.11111,345.51563 191.11111,346.4111C191.11111,347.3111 191.26839,348.2265 191.10211,349.1156C190.93277,350.02109 190.269,350.63394 189.67911,351.24179C189.03763,351.9028 188.45276,352.62097 187.51111,352.80045C186.62697,352.96896 185.72177,352.8111 184.82445,352.8111C183.94444,352.8111 183.11111,352.8111 182.13261,352.8111C181.31244,352.8111 180.41112,352.8111 179.51111,352.8111C178.61111,352.8111 177.65791,352.69913 176.90977,353.09644C176.29492,353.42297 175.48088,354.15564 174.76378,354.45395C173.89574,354.81503 172.8338,354.65314 172.01111,355.03244C171.34288,355.34055 170.51115,355.80576 169.63194,355.8111C168.75395,355.81641 167.80655,355.82187 166.94444,355.8111C166.11092,355.80069 165.01097,355.72644 164.55777,355.20044C163.91415,354.45343 164.29144,353.17334 163.59027,352.83194C162.80849,352.45129 162.22424,352.08838 162.05844,351.45929C161.78355,350.41629 161.172,349.71738 161.11111,348.8111C161.0574,348.01157 161.11111,347.11111 161.11111,346.21112C161.11111,345.3111 161.01711,344.36401 161.46378,343.51111C161.85773,342.75888 162.11044,342.01111 162.11111,341.09644C162.11172,340.26944 162.11111,339.32712 162.11111,338.46378C162.11111,337.57278 162.27982,336.64648 162.81561,336.1066C163.51378,335.40311 164.15364,334.66742 164.50044,333.9751C164.87289,333.23157 164.88602,332.17084 165.16377,331.52545C165.54604,330.63724 166.10886,330.1066 166.11111,329.21112C166.11337,328.3111 166.11111,327.4111 166.11111,326.51111C166.11111,325.61246 166.11111,324.64444 166.11111,323.8111C166.11111,323.01111 166.58731,321.94785 166.05394,321.16827C165.57147,320.4631 164.59027,320.29028 164.01111,319.71112C163.41112,319.11111 162.7455,318.36847 162.01128,317.93243C161.22878,317.46771 161.02612,316.72678 160.40662,316.1066C159.81145,315.51077 159.02003,314.88522 158.5471,314.21112C158.03889,313.48672 157.73938,312.68719 157.27777,311.8111C156.93584,311.16214 156.62076,310.28009 155.91112,309.61246C155.33473,309.07019 154.44855,308.77045 154.05844,308.1066C153.58684,307.30408 153.28487,306.48111 153.12178,305.67245C152.94542,304.79797 151.76373,305.20053 151.2326,304.5896C150.65076,303.92032 151.11111,302.8111 151.11111,302.01111C151.11111,301.09644 150.39241,300.79044 150.05844,300.04944C149.67213,299.19232 149.61656,298.40048 149.13644,297.45776C148.78812,296.7738 148.11528,296.08347 147.40128,295.86829C146.62628,295.63474 145.35449,295.87778 145.12178,295.16443C144.81117,294.21225 145.31151,293.22824 144.66844,292.5896C144.09602,292.02112 143.19682,291.62314 143.11111,290.71112C143.0269,289.81503 143.21214,289.00058 143.0751,288.17511C142.93036,287.30316 142.46246,286.42471 141.91245,285.69778C141.33333,284.93237 141.4351,284.1293 141.09027,283.33194C140.78151,282.61801 140.55089,281.99716 140.11111,281.16827C139.78477,280.55319 139.0575,280.10712 138.61111,279.3111C138.16283,278.51163 137.77631,277.78738 137.39511,277.09644C136.97272,276.33081 137.11111,275.32712 137.11111,274.46378C137.11111,273.56827 137.11111,272.61111 137.11111,271.71112C137.11111,270.8111 137.11111,270.01111 137.11111,269.16827C137.11111,268.29028 137.11111,267.40045 137.11111,266.48993C137.11111,265.67245 137.11111,264.64444 137.11111,263.71112C137.11111,262.8111 137.09859,261.987 136.61111,261.3111C136.09758,260.59906 135.8214,259.75421 135.46378,259.11111C134.98936,258.258 134.68433,257.40231 134.11111,256.8111C133.4783,256.15842 133.28024,255.28369 132.82578,254.61244C132.28993,253.82098 131.27777,253.64444 131.11111,252.81111C130.94444,251.97778 129.92375,252.17542 129.23228,251.58945C128.67865,251.12029 128.45291,250.10678 127.75928,249.52095C127.04585,248.91841 126.27186,248.57652 125.94444,247.64444C125.7132,246.98616 125.26533,246.02617 124.75394,245.45395C124.14816,244.77609 123.46287,244.25569 122.81111,243.50211C122.26859,242.87483 121.93127,242.03561 121.61111,241.33194C121.14037,240.29729 120.54117,239.9079 119.78995,239.36827C119.07864,238.85732 118.68044,238.29378 118.13194,237.33194L117.75845,236.51111" id="svg_2" stroke-width="3" stroke="#000" fill="none"/>
  <path t="35594,35675,35683,35683,35683,35691,35698,35714,35714,35714,35719,35719,35719,35719,35726,35726,35726,35733,35733,35733,35733,35738,35738,35738,35738,35738,35747,35747,35754,35755,35755,35755,35764,35764,35764,35771,35771,35788,35788,35834,35834,35844,35844,35844,35851,35851,35858,35858,35858,35866,35866,35866,35874,35875,35875,35884,35891,35891,35900,35900,35906,35923,35923,35923,35931,35931,35939,35940,35946,35946,35955,35955,35963,35971,35979,36034,36034,36043,36043,36051,36051,36059,36066,36066,36074,36084,36084,36091,36091,36100,36171,36202,36211,36221,36221,36227,36228,36234,36235,36243,36243,36243,36250,36251,36251,36259,36259,36259,36267,36378,36379,36387,36405,36406,36411,36419,36419,36427,36435,36444,36445,36460,36460,36490,36498,36507,36530,36626,36786,36804,36811,36826,36834,36835,36882,36883,36891,36915,36971,36986,36994,37194,37194,37204,37210,37219,37227,37234,37250,37269,37427,37427,37435,37442,37450,37459,37459,37470,37470,37532,37549,37555,37569,37569,37572,37581,37587,37606,37606,37754,37755,37771,37771,37786,37804,37939,37967,37968,38114,38114,38122,38315,38315,38322,38650,38698,38706,38746,38754,38763,38763,38774,38774,38811,38858,38891,39050,39066,39081,39081" d="M111.11111,219.81111C112.11111,220.85278 112.90675,221.465 113.04977,222.08711C113.2478,222.94844 113.81521,223.67923 114.51111,224.25778C115.2318,224.85695 115.53909,225.65645 115.81111,226.32994C116.25786,227.43604 116.41111,228.11644 116.61111,228.81111C116.81111,229.50578 117.19806,230.77342 117.51111,231.54977C117.79919,232.26421 118.21545,233.2314 118.52177,234.06844C118.75022,234.69264 118.98856,235.38606 119.43244,236.55344C119.75801,237.40965 119.92804,237.84395 120.28577,238.68845C120.61931,239.4758 121.2037,240.68817 121.61111,241.26944C122.24249,242.17024 122.77507,242.81818 123.11111,243.35278C123.6453,244.20261 124.09467,245.10838 124.47511,245.97911C124.70349,246.5018 125.29556,247.59326 125.99644,247.89244C126.7478,248.21315 127.54865,248.48773 128.22578,249.29645C128.78227,249.96107 129.1111,250.81111 129.51111,251.61111C129.9111,252.4111 130.27768,253.23099 130.74712,254.01111C131.24208,254.83366 131.75829,255.42049 132.32178,256.01111C133.09756,256.82425 133.7254,257.39383 134.27512,258.01111C134.96881,258.79004 135.27719,259.45865 135.80661,260.09677C136.41966,260.83569 136.9138,261.41794 137.22095,262.16293C137.56012,262.98563 138.57402,263.38522 139.04977,264.22177C139.52126,265.05081 139.62923,265.83325 139.91245,266.41245C140.40192,267.41342 140.81691,268.19598 141.02711,269.20978C141.18408,269.96677 141.32271,270.99631 141.87277,271.50662C142.51788,272.1051 143.62604,272.35138 143.99678,273.11111C144.39465,273.92645 144.11111,274.9111 144.11111,275.8111C144.11111,276.56827 144.11111,277.46826 144.11111,278.41245C144.11111,279.40662 143.95584,280.16745 144.12178,281.17511C144.26471,282.04297 144.95752,282.57925 145.10045,283.44711C145.26639,284.45474 145.11111,285.21561 145.11111,286.20978C145.11111,286.9751 145.11111,288.04944 145.11111,288.89511C145.11111,289.69778 145.13402,290.63672 145.11111,291.64444C145.09311,292.43704 144.79671,293.285 144.53644,294.02179C144.19173,294.99762 144.13486,295.81116 144.11111,296.8111C144.09212,297.61118 144.00633,298.44742 143.54178,299.21243C143.14389,299.86768 142.52779,300.45984 141.99777,301.49377C141.60181,302.2662 141.31421,303.02548 141.16827,303.99677C141.03212,304.90289 141.11111,305.69644 141.11111,306.63644C141.11111,307.64444 141.12971,308.48514 141.97244,308.78577C142.90562,309.11868 143.51451,309.49704 144.41112,309.75394C145.27931,310.00269 146.27777,309.8111 147.11111,309.8111C147.94444,309.8111 148.96426,309.85886 149.11111,309.20044C149.32648,308.23483 149.11111,307.3111 149.11111,306.4111C149.11111,305.51111 148.78004,304.35837 149.39644,303.89645C150.13156,303.34555 151.21111,303.8111 152.11111,303.8111C152.86827,303.8111 153.76378,303.8111 154.62711,303.8111C155.59027,303.8111 156.75911,303.5546 157.11111,304.16827C157.53047,304.89938 157.11111,305.9111 157.11111,306.8111C157.11111,307.61111 157.11111,308.51111 157.11111,309.4111C157.11111,310.3111 157.11111,311.21112 157.11111,312.1066C157.11111,313.03262 157.11111,313.9111 157.11111,314.8111C157.11111,315.61111 157.0903,316.51135 157.11111,317.4111C157.13194,318.31183 157.67972,319.01224 158.29645,319.4111C159.2247,320.01144 159.7619,320.60764 160.71111,320.80045C161.59364,320.97971 162.4352,321.14301 163.11111,321.8111C163.69676,322.38998 164.09311,323.21057 164.11111,324.11111C164.12914,325.01227 164.11111,325.97778 164.11111,326.63644C164.11111,327.64444 164.07037,328.52548 164.11244,329.37912C164.15517,330.24612 164.96544,330.85379 165.10977,331.61246C165.30264,332.62625 165.11111,333.52545 165.11111,334.22012C165.11111,335.20978 165.11111,335.9751 165.11111,337.05844C165.11111,337.97778 165.11111,338.8111 165.11111,339.78943C165.11111,340.64444 165.11111,341.42178 165.11111,342.3111C165.11111,343.21112 165.27248,344.23053 164.66844,344.9111C164.09381,345.55853 163.28053,346.01248 163.02844,346.69644C162.6859,347.62579 162.19653,348.35535 161.61111,348.83194C161.01678,349.3158 161.04861,350.29028 160.25778,350.72311L159.59027,350.7486" id="svg_3" stroke-width="20" stroke="#fff" fill="none"/>
  <path t="43387,43690,43697,43722,43753,43770,43793,43817,43850,43873,43945,43953,43993,44025,44033,44058,44073,44098,44169,44186,44449,44593,44594,44625,45050,45058,45089,45090,45098,45113,45113,45169,45201,45201,45217,45226,45289,45306,45306,45321,45346,45347,45401,45427,45427,45449,45449,45466,45489,45498,45498,45517,45617,45657,45705,45705,45705,45731,45746,45801,45810,45835,45866,45873,45898,45898,45921,45938,45947,45962,46001,46018,46028,46050,46050,46169,46201,46201,46210,46257,46284,46297,46308,46314,46329,46369,46369,46537,46537,46554,46587,46594,46673,46713,46722,46722,46801,46827,46833,46985,46993,47001,47002,47018,47025,47025,47033,47042,48153,48161,48181,48181,48181,48186,48193,48209,48369,48377,48394,48394,48401,48426,48437,48522,48522,48522,48529,48546,48546,48546,48563,48563,48571,48572,48585,48594,48594,48609,48609,48641,48649,48649,48721,48745,48753,48762,48881,48881,48906,48906,48921,48921,48945,48970,48995,49033,49033,49058,49058,49073,49121,49138,49169,49209,49209,49265" d="M165.11111,356.8111C165.11111,356.00977 165.11111,355.11111 165.11111,354.21112C165.11111,353.3111 165.11111,352.4111 165.11111,351.51111C165.11111,350.61111 165.11111,349.71127 165.11111,348.83646C165.11111,348.00977 165.11111,347.11111 165.11111,346.21112C165.11111,345.3111 165.11111,344.4111 165.11111,343.51111C165.11111,342.61111 164.86687,341.57895 165.39511,340.89511C165.87982,340.26761 166.11111,339.60977 166.11111,338.64444C166.11111,337.83194 166.11111,336.87244 166.11111,336.1066C166.11111,335.17511 166.21873,334.31308 166.05394,333.46378C165.87431,332.53802 165.20609,331.71515 165.11244,331.01111C164.9913,330.10037 164.13895,329.60016 163.51111,329.23645C162.74124,328.79047 161.74269,328.77219 161.09027,328.3111C160.42143,327.83841 159.54022,328.08881 158.63194,327.76944C157.79095,327.47372 157.68663,326.28128 156.94444,325.8111C156.22655,325.35629 155.49518,325.17746 154.46295,324.85928C153.83112,324.66452 153.49734,323.7836 152.88962,323.05396C152.32666,322.37805 151.70168,322.1037 151.11111,321.33194C150.61324,320.6813 149.65587,320.4071 149.11111,319.64444C148.66321,319.01736 148.4314,318.19418 147.71111,317.45776C147.09924,316.83218 146.28938,316.51059 146.11095,315.71127C145.92268,314.86792 145.25633,314.36301 145.10661,313.51111C144.94348,312.58295 144.27788,312.03943 144.11562,311.11111C143.96049,310.22366 143.70728,309.37186 142.91245,308.89511C142.22156,308.48071 142.19324,307.60733 142.11095,306.71112C142.02727,305.79965 141.33032,305.32642 141.11111,304.44943C140.8784,303.51843 141.24138,302.62717 141.10977,301.69778C140.99812,300.9093 140.13971,300.45541 140.11111,299.61111C140.08064,298.71164 140.11111,297.8111 140.11111,296.89377C140.11111,296.09677 140.11111,295.20844 140.11111,294.21561C140.11111,293.46826 140.11111,292.44711 140.11111,291.61111C140.11111,290.71112 140.11111,289.8111 140.11111,288.89377C140.11111,288.10129 140.11111,287.29376 140.11111,286.33194C140.11111,285.4111 140.11111,284.51111 140.11111,283.61111C140.11111,282.71112 140.28258,281.77356 140.02577,281.01111C139.75696,280.21298 139.04686,279.46683 138.61111,278.83194C138.05519,278.022 137.1597,277.53006 137.11111,276.69678C137.067,275.94034 136.99545,274.79214 136.75394,274.22012C136.3849,273.3461 135.50357,273.00388 134.81561,272.45395C134.07802,271.86435 133.6665,271.07193 133.16377,270.45395C132.59151,269.75049 132.2755,269.17642 131.41112,268.75845C130.59276,268.36276 130.27069,267.44815 129.77777,266.64444C129.34076,265.93188 128.73701,265.55228 127.86828,264.91196C127.09019,264.33844 126.81857,263.74533 126.51111,263.05112C126.0229,261.94879 125.62175,261.34259 124.91111,260.61111C124.31984,260.0025 123.66556,259.43448 123.11111,258.64444C122.67365,258.02112 121.97886,257.34378 121.39645,256.81378C120.87144,256.33603 120.34735,255.58592 119.81644,255.11111C119.03164,254.40924 118.86951,253.33459 118.11111,252.97778C117.26822,252.58122 116.75413,252.09668 116.40661,251.40211C115.91137,250.41231 115.65788,249.8028 115.11111,248.97778C114.59006,248.19156 114.12911,247.41164 114.11111,246.51111C114.09312,245.6113 114.11111,244.71094 114.11111,243.92578C114.11111,242.98578 114.11111,242.2951 114.11111,241.25778C114.11111,240.37511 114.11111,239.4111 114.11111,238.51111L114.11111,237.71094L114.11111,236.92578L114.11111,235.98578" id="svg_4" stroke-width="3" stroke="#000" fill="none"/>
  <path t="52279,52458,52475,52506,52506,52601,52673,52673,52713,52729,52729,52745,52761,52785,52794,52825,52834,52905,52914,52923,52938,52955,53081,53113,53114,53130,53161,53193,53258,53274,53284,53408,53417,53417,53433,53450,53469,53474,53497,53497,53522,53529,53537,53561,53601,53601,53625,53713,53737,53737,53747,53747,53793,53801,53812,53824,53849,53849,53865,53873,53881,53897,53913,53934,53945,53970,53992,54017,54041,54041,54057,54067,54073,54097,54106,54130,54160,54169,54170,54185,54233,54257,54297,54313,54337,54608,54608,54618,54626,54641,54761,54769,54777,54786,54793,54793,54798,54889,54897,54905,54913,54922,54937,54953,55032,55041,55049,55067,55200,55201,55201,55217,55217,55240,55252,55253,55368,55385,55385,55420,55441,55528,55633,55633,55633,55641,55769,55810,56528,56528,57089,57097,57105,57113,57185,57257,57257,57360,57369,57385,57394,57400,57420,57465,57505,57505,57649,57664,57681,57729,57729,57761,57761,57769,57769,57864,57929,57929,57961,57992,58032,58097,58097,58106,58113,58121,58129,58273,58298,58298,58313,58353,58378,58441,58488,58673,59001,59018,59113,59114,59122,59130,59139,59146,59161,59209,59233,59233,59280,59289,59298,59313,59329,59329,59345,59361,59393,59457,59488,59521,59529,59593,59601,59601,59608,59642,59665,59689,59697,59713,59737,59745,59753,59753,59769,59770,59793,59810,59826,59826,59843,59851,59858,59875,59891,59922,59923,60002,60002,60028,60058,60058,60067,60084,60100,60100,60266,60266" d="M109.11111,133.81111C108.22444,133.81111 107.28514,133.77539 106.27778,133.81111C105.47126,133.83971 104.78139,134.31441 104.27778,135.14444C103.91322,135.74529 104.11111,136.78961 104.11111,137.81111C104.11111,138.61111 104.11111,139.51111 104.11111,140.37511C104.11111,141.24712 104.01566,142.25565 104.39511,143.01111C104.8307,143.87831 105.11111,144.64444 105.11111,145.42178C105.11111,146.31111 105.11111,147.21111 105.11111,148.10661C105.11111,149.03261 105.11111,149.91127 105.11111,150.69644C105.11111,151.62578 105.11111,152.64177 105.11111,153.42178C105.11111,154.31111 105.1112,155.21111 105.11111,156.10661C105.11103,157.03261 104.82141,157.868 104.46378,158.51111C103.98936,159.36423 103.49299,160.12144 103.19644,161.01111C102.91057,161.86874 103.1382,162.81157 103.11111,163.61111C103.08251,164.4554 102.13455,164.35156 101.39645,164.89644C100.80727,165.33138 101.20512,166.65596 101.02578,167.3271C100.76,168.32175 100.11111,169.03278 100.11111,169.97778C100.11111,170.63644 100.11111,171.64444 100.11111,172.52444C100.11111,173.42178 100.11111,174.31111 100.11111,175.21111C100.11111,176.10661 99.94236,176.97571 99.40661,177.51561C98.71909,178.20845 98.172,178.90498 98.11111,179.81111C98.04971,180.72505 98.11111,181.51561 98.11111,182.4111C98.11111,183.31111 98.11178,184.21111 98.11111,185.11111C98.11044,186.01244 97.96644,186.987 97.68578,187.62578C97.26509,188.58322 97.11111,189.33194 97.11111,190.21111C97.11111,191.11111 97.11111,192.00978 97.11111,192.92094C97.11111,193.83194 97.11111,194.78961 97.11111,195.50661C97.11111,196.45395 97.11111,197.33194 97.11111,198.21111C97.11111,199.11111 97.11111,200.01111 97.11111,200.9111C97.11111,201.81111 97.32055,202.64961 97.05395,203.51111C96.7859,204.37727 95.81693,204.78252 94.88961,204.81111C94.0117,204.8382 93.07871,204.69186 92.24978,204.83244C91.2433,205.00313 90.82865,205.7328 90.31245,206.2431C89.56919,206.97786 89.01243,207.49982 88.30978,207.89511C87.49284,208.35471 86.71165,208.79311 85.81561,208.81111C84.88996,208.82971 84.11342,209.0098 83.40661,209.45845C82.6789,209.92036 81.54787,209.64677 80.77778,210.14444C80.14427,210.55385 79.73418,211.2057 78.91145,211.78944C78.17926,212.30894 77.28423,212.73755 76.54178,213.09511C75.76448,213.46945 74.75565,213.59361 74.11111,214.14444C73.48698,214.67783 73.24668,215.79156 72.59028,216.31111C71.88099,216.87253 70.9124,217.10739 70.29645,217.67244C69.79303,218.13425 69.19586,219.05051 69.11111,219.91095C69.02314,220.80411 68.00206,220.86658 67.54711,221.42178C66.98626,222.10623 66.86909,223.14211 67.11561,224.10661C67.29913,224.82465 68.4598,224.98729 68.94444,225.81111C69.32846,226.46388 69.71976,227.31892 70.46828,227.75394C71.19865,228.17842 72.21095,227.81111 73.11111,227.81111C73.91245,227.81111 74.86828,227.81111 75.76378,227.81111C76.45844,227.81111 77.47511,227.8118 78.41111,227.81111C79.31111,227.81044 80.19379,227.56766 80.82578,227.09511C81.53572,226.56427 82.31326,226.16594 83.31078,225.93245C84.05886,225.75734 84.74169,225.42259 85.27778,224.64444C85.687,224.05043 86.7112,223.82724 87.61111,223.81111C88.50056,223.79518 88.76176,223.14522 89.19511,222.3791C89.6063,221.65218 90.71111,221.81111 91.61111,221.81111C92.50044,221.81111 93.39777,221.81111 94.27778,221.81111C95.11111,221.81111 96.08945,221.81111 96.98978,221.81111C97.81561,221.81111 98.71111,221.81111 99.61111,221.81111C100.50044,221.81111 101.46828,221.81111 102.31245,221.81111C103.27778,221.81111 104.09028,221.81111 105.00127,221.81111C105.81561,221.81111 106.71111,221.81111 107.61111,221.81111C108.50044,221.81111 109.39777,221.81111 110.27778,221.81111C111.11111,221.81111 112.09061,221.76541 112.98978,221.81111C113.83036,221.85384 114.37409,222.59592 115.11111,222.97778C115.86507,223.36841 116.46755,223.9454 117.16378,224.45845C117.85339,224.96661 118.82775,224.84619 119.51111,225.23645C120.32507,225.70129 120.9605,226.17438 121.11244,227.09644C121.24963,227.92896 121.88159,228.64537 122.75394,228.80661C123.67112,228.97614 124.10495,229.43855 124.53645,230.21111C124.99319,231.02885 125.19611,231.89545 125.81561,232.51561C126.41079,233.11143 127.11145,233.81078 127.71111,234.4111C128.31012,235.01077 128.48254,235.84367 129.19511,236.52577C129.81017,237.11453 130.93645,236.81111 131.62711,236.81111C132.70044,236.81111 133.51111,236.81111 134.41112,236.81111C135.31111,236.81111 136.21111,236.81111 137.11111,236.81111C137.99644,236.81111 138.93645,236.81111 139.62711,236.81111C140.66444,236.81111 141.55394,236.81111 142.29645,236.81111C143.35394,236.81111 144.21111,236.81111 145.11111,236.81111L145.91112,236.81111L146.45778,236.81111L145.67778,236.81111" id="svg_5" stroke-width="3" stroke="#000" fill="none"/>
  <path t="64961,65305,65315,65328,65328,65337,65416,65433,65433,65448,65456,65465,65482,65505,65505,65544,65562,65584,65632,65656,65656,65664,65689,65744,65744,65752,65770,65792,65816,65840,65904,65921,65929,65929,65938,65944,65953,66008,66097,66137,66160,66160,66504" d="M96.11111,204.81111C96.98978,204.81111 97.75777,204.81111 98.76378,204.81111C99.45844,204.81111 100.46445,204.81111 101.39777,204.81111C102.27778,204.81111 103.11111,204.81111 104.08945,204.81111C104.98978,204.81111 105.88641,204.52678 106.71111,204.8831C107.57768,205.25751 107.64448,206.36487 108.51111,206.73911C109.34,207.09705 110.31111,206.81111 111.21111,206.81111C112.11111,206.81111 112.96582,206.82133 113.71111,207.42178C114.3653,207.94882 115.09742,208.7233 115.81111,208.80661C116.7476,208.91594 117.63194,208.81111 118.51111,208.81111C119.41111,208.81111 120.30978,208.81111 121.22095,208.81111C122.13194,208.81111 123.08961,208.81111 123.80661,208.81111C124.71111,208.81111 125.61111,208.81111 126.51111,208.81111C127.41111,208.81111 128.30978,208.81111 129.27777,208.81111L130.11111,208.81111L130.91112,208.81111L131.81111,208.81111" id="svg_7" stroke-width="3" stroke="#000" fill="none"/>
  <path t="67993,68320,68328,68408,68425,68425,68433,68441,68504,68562,68562,68592,68602,68603,68616,68696,68706,68721,68722,68729,68816,68825,68832,68849,68867,68872,69128,69208,69296,69392,69392,69408,69472,69488,69512,69584,69600,69608,69648,69649,69680,69712,69752,69769,69805,69816,69896,69912,69929,69960,69976,69976,70040,70080,70112,70168,70232,70233,70272,70289,70289,70319,70464,70464,70473,70496,70552,70561,70576,70586,70609,70616,70649,70664,71840,71928,71952,72016,72040,72041,72088,72120,72200,72200,72208,72256,72319,72344,72368,72456,72480,72560,72560,72640,72640,72656,72752,72824,72840,72920,72944,73368,73377,73399,73424,73424,73480,73504,73600,73608,73632,73696,73696,73705,73720,73736,73816,73840,73849,73850,73880,73889,73905,73905,73984,73984,73994,74019,74072,74081,74081,74106,74112,74128,74145,74152,74168,75240,75432,75433,75448,75448,75576" d="M96.11111,222.81111C94.41111,222.86827 93.68588,223.34995 93.10844,224.09511C92.58905,224.76537 91.52982,224.63353 91.13245,225.42178C90.73167,226.2168 90.76869,227.12495 90.11111,227.81111C89.55923,228.38698 89.2923,229.25523 88.82578,230.00978C88.44202,230.63045 87.44538,230.91209 87.11111,231.81111C86.80458,232.63554 86.0632,233.11249 85.63194,233.81111C85.13928,234.60919 85.04465,235.44298 84.30978,235.89511C83.62296,236.31767 83.13644,237.20044 82.61111,237.81111C82.08578,238.42178 81.4952,239.12204 81.19644,240.00978C80.92269,240.8232 81.11111,241.81111 81.11111,242.61111C81.11111,243.51111 81.11111,244.37511 81.11111,245.24712C81.11111,246.21111 81.11111,247.11111 81.11111,248.00978C81.11111,248.86377 80.94296,249.84755 81.19644,250.61111C81.45278,251.38329 81.89804,252.25778 82.54711,252.78578C83.27691,253.37944 83.69692,253.96022 84.27778,254.64444C84.84338,255.3107 85.11111,256.00977 85.11111,256.87244C85.11111,257.67245 85.11111,258.64444 85.11111,259.50662C85.11111,260.37512 85.10871,261.2471 85.11111,262.21112C85.11337,263.11111 85.44229,263.84518 85.82711,264.61111C86.22198,265.39703 86.00156,266.30951 86.16827,267.15845C86.35027,268.08517 87.03952,268.89859 87.71111,269.37512C88.43676,269.89001 88.9274,270.53787 89.54711,270.8111C90.33768,271.15964 91.31111,270.8111 92.21095,270.8111C93.13644,270.8111 93.91245,270.8111 94.81111,270.8111C95.71111,270.8111 96.44892,270.97403 96.16827,270.45395C95.76774,269.7117 96.11111,268.64444 96.11111,267.8111C96.11111,267.01111 96.11111,266.11111 96.11111,265.16827C96.11111,264.24179 95.79797,263.40555 96.12178,262.45776C96.38396,261.69037 97.10577,261.23648 97.11111,260.29028C97.11607,259.4111 97.11111,258.51111 97.11111,257.61111C97.11111,256.71094 97.11111,255.92578 97.11111,254.98578C97.11111,254.2951 97.11706,253.25777 97.11111,252.29028C97.10577,251.42174 96.42226,250.88046 96.16827,250.10577C95.86826,249.19067 95.97083,248.42239 95.46378,247.75844C94.98437,247.13069 95.11111,246.16295 95.11111,245.38045C95.11111,244.37511 95.11111,243.4111 95.11111,242.51111C95.11111,241.61111 95.11111,240.71111 95.11111,239.81111C95.11111,239.01111 95.01961,238.00525 95.54711,237.42178C96.16818,236.73482 97.46156,237.09416 98.02711,236.52577C98.64069,235.90912 98.92955,235.13725 99.71111,234.78578C100.53124,234.41696 101.12534,233.58604 101.86828,233.16827C102.69028,232.70604 103.56857,232.81941 104.04977,231.96045C104.51387,231.13203 104.90168,230.46696 105.33244,229.71127C105.72324,229.02571 106.6159,228.71336 107.16378,228.16377C107.75971,227.56598 108.00887,226.78502 108.11127,225.83278C108.20441,224.96672 108.771,224.52602 109.44444,223.97778C110.00529,223.52121 111.11111,223.81111 111.88978,223.81111L112.94178,223.81244" id="svg_8" stroke-width="3" stroke="#000" fill="none"/>
  <path t="76598,76712,76729,76816,76816,76825,76840,76841,76864,76864,76937,76944,76952,76960,76969,76969,76976,77200" d="M109.11111,226.81111C109.11111,227.61244 109.43204,228.26979 109.94444,228.97778C110.37756,229.57622 109.9496,230.67868 110.27778,231.64444C110.51476,232.34186 111.3138,233.00842 111.91111,233.61111C112.50312,234.20847 113.06297,235.00836 113.11111,235.91095C113.15829,236.79526 113.46378,237.52095 113.82711,238.32845L114.11111,239.29028L114.46378,240.10661" id="svg_9" stroke-width="3" stroke="#000" fill="none"/>
  <path t="80273,80456,80456,80472,80542,80600,80608,80616,80760,80769" d="M90.11111,260.8111C90.11111,261.8111 90.12093,262.66617 90.72178,263.4111C91.24859,264.06424 91.98961,264.68979 92.11111,265.51563L92.14711,266.4111L92.53645,267.21112L92.98961,267.9111" id="svg_10" stroke-width="3" stroke="#000" fill="none"/>
  <path t="81848,81976,81976,81992,81992,82001,82001,82008,82104,82144,82147,82147" d="M77.11111,220.81111C76.54178,221.38045 75.92577,221.99644 75.27778,222.64444C74.63194,223.29028 74.10034,224.02992 73.41111,224.45395C72.58971,224.95929 71.63194,224.83194 71.12178,225.45778L71.11111,226.29378L71.11111,227.10127" id="svg_11" stroke-width="3" stroke="#000" fill="none"/>
  <path t="91112,91319,91320,91393,91424,91424,91440,91466,91466,91848,91880,91896,91906,91906,91920,92136,92151,92176,92185,92216,92216,92248,92504,92520,92545,92553,92577,92640,92649,92673,92689,92689,92713" d="M153.11111,111.81111C153.11111,112.81111 153.11111,113.61111 153.11111,114.52578C153.11111,115.52094 153.11111,116.16294 153.11111,117.18578C153.11111,118.13245 153.26883,118.99935 153.10977,119.92445C152.96579,120.76188 152.11111,120.58961 152.11111,119.71095C152.11111,118.92577 151.69492,117.77932 152.33244,117.05411C152.87193,116.44041 152.71359,116.14149 152.19511,115.52578C151.63472,114.8603 151.62906,113.87404 151.05844,113.16827C150.46736,112.4372 150.11111,112.39645 150.11111,113.24711C150.11111,114.21111 150.11111,115.11111 150.11111,116.00977C150.11111,116.86378 150.11111,117.69778 150.11111,118.63644L150.11111,119.32711L150.11111,120.36444" id="svg_13" stroke-width="3" stroke="#000" fill="none"/>
  <path t="98743,98871,98871,98888,98959,98967,98967,98975,98975,99007,99007,99031,99031,99143,99159,99159,99175,99184,99191,99199,99207,99231,99407" d="M101.11111,130.81111C101.27778,131.81111 101.6551,132.51083 102.12178,133.23645C102.54594,133.89597 103.31203,134.37985 103.71111,134.99644C104.31116,135.92354 104.87983,136.49083 105.39645,137.38177C105.76136,138.01109 106.21095,139.01077 106.50044,139.58978C106.94444,140.47778 107.3675,141.23825 107.68578,141.99644C108.0688,142.90889 108.11111,143.81111 108.11111,144.75844C108.11111,145.51561 108.11111,146.4111 108.11111,147.31111L108.06944,148.29028" id="svg_14" stroke-width="3" stroke="#000" fill="none"/>
  <path t="101008,101095,101103,101103,101103,101110,101120,101120,101128,101128,101128,101135,101215,101224,101224,101234,101234,101238,101255,101311,101311,101391,101400,101409,101409,101415,101423,101435,101439,101440,101448,101464,101479,101488,101504,101527,101535,101567,101583,101583,101591,101591,101599,101607,101615,101615,101639,101649,101703,101713,101713,101728,101734,101734,101754,101754,101769,101769,101782,101783,101799,101870,101880,101888,101897,101903,101911,101919,101919,101942,102255,102272,102431,102431,102720" d="M101.11111,132.81111C101.46828,132.22995 102.14236,132.96028 102.50044,133.63644C102.85773,134.31113 103.04793,135.36227 103.67911,136.01378C104.19898,136.55038 104.90561,137.34525 105.04977,138.06178C105.1981,138.79901 105.41541,139.82564 105.94444,140.64444C106.41341,141.37029 106.77608,142.00885 106.98961,143.01077C107.18448,143.92517 107.25472,144.748 107.68578,145.45778C108.15488,146.23021 108.10886,147.15843 108.11111,148.05394C108.11352,149.01111 108.11111,149.91127 108.11111,150.69644C108.11111,151.62578 108.11167,152.56828 108.11111,153.35278C108.11044,154.2951 108.26476,155.26018 107.75394,156.04944C107.27802,156.78481 106.2983,156.98215 106.11111,157.81111C105.91154,158.69498 105.15382,159.09346 105.11111,160.00978C105.07135,160.86284 105.11111,161.81111 105.11111,162.56828C105.11111,163.46378 105.28442,164.34663 105.09028,165.29028C104.91187,166.15749 104.1732,166.90347 104.11244,167.61111C104.02405,168.64066 104.29937,169.45032 104.06944,170.33194C103.84354,171.19815 102.97549,171.68085 102.44444,172.47778C101.97595,173.18085 102.11111,174.03244 102.11111,175.01094C102.11111,175.79028 102.11111,176.78978 102.11111,177.56378C102.11111,178.46378 102.11111,179.3271 102.11111,180.36444C102.11111,181.24712 102.11111,182.11111 102.11111,183.01111C102.11111,183.91095 102.11111,184.83194 102.11111,185.67244C102.11111,186.64444 102.11562,187.42117 101.68578,188.21111C101.23754,189.03484 101.11111,189.9111 101.11111,190.81111L101.11111,191.61111L101.11111,192.52577" id="svg_15" stroke-width="20" stroke="#fff" fill="none"/>
  <path t="104607,104702,104711,104719,104822,104822,104847,104855,105143" d="M99.11111,136.81111C99.16827,138.51111 99.59277,139.36273 100.41111,139.75844C101.27549,140.17639 101.82578,140.61244 102.10661,141.51111L102.11111,142.4111L102.13194,143.29028" id="svg_16" stroke-width="20" stroke="#fff" fill="none"/>
  <path t="107752,107878,107886,107919,107990,108007,108007,108023,108047" d="M98.11111,135.81111C99.81111,136.86377 100.65282,137.26982 101.11127,138.03244C101.52811,138.72581 102.31111,139.09644 102.91111,139.61244L103.61111,140.29028L104.40661,140.75394" id="svg_17" stroke-width="20" stroke="#fff" fill="none"/>
  <path t="111191,111463,111527,111542,111553,111695,111735,111735,111744,111774,111830,111855,111855,111878,111918,111966,112014,112070,112079,112118,112134,112158,112182,112214,112232,112326,112334,112366,112414,112446,112462,112494,112534,112550,112630,112630,112655,112694,112710,112727,112750,112774,112807,112838,112870,112887,112887,112918,112958,112983,112999,113022,113078,113134,113143,113143,113182,113206,113302,113318,113358,113382,113382,113430,113439,113440,113470,113510,113598,113607,113630,113662,113662,113726,113758,113773,113815,113823,113870,113918,113942,113958,114023,114063,114063,114134,114134,114214,114238,114350,114742" d="M111.11111,128.81111C111.91245,128.89644 112.85223,129.35474 113.07511,130.21111C113.30085,131.07845 112.96321,132.07979 113.27778,132.81111C113.6133,133.59116 114.04589,134.34317 114.46378,135.11111C114.92136,135.95201 115.11111,136.81111 115.11111,137.61111C115.11111,138.51111 115.11111,139.4111 115.11111,140.29028C115.11111,141.24712 115.11111,142.11111 115.11111,143.01111C115.11111,143.91095 115.11111,144.81111 115.11111,145.61244C115.11111,146.51111 115.11111,147.4111 115.11111,148.29028C115.11111,149.24712 115.11111,150.11111 115.11111,151.01111C115.11111,151.91095 115.11111,152.81111 115.11111,153.61244C115.11111,154.51111 115.11111,155.4111 115.11111,156.29028C115.11111,157.25394 115.11111,157.99644 115.11111,159.05394C115.11111,159.91095 115.11111,160.81111 115.11111,161.61244C115.11111,162.51111 115.11645,163.41112 115.11111,164.31111C115.10577,165.21115 114.65816,165.91832 114.27778,166.81111C113.95758,167.56265 114.29627,168.55275 114.07511,169.42178C113.85805,170.27472 113.15382,171.00809 113.11111,171.91095C113.07085,172.76199 113.47778,173.6617 112.94444,174.47778C112.5293,175.11301 111.35591,175.35406 111.13194,176.29028C110.9276,177.14442 111.19324,178.01488 111.11095,178.9111C111.02726,179.82256 110.40326,180.39888 109.75845,181.16827C109.17386,181.86581 109.12977,182.61131 109.11111,183.51111C109.09245,184.41162 108.49299,185.12144 108.19644,186.01111C107.91057,186.86874 108.28467,187.84937 108.02578,188.61111C107.72401,189.49901 107.12911,190.21057 107.11111,191.11111C107.09315,192.0096 106.93494,192.77318 106.46378,193.51561C106.00192,194.24336 106.11111,195.21111 106.11111,196.10661C106.11111,197.03278 106.11111,197.97778 106.11111,198.63644C106.11111,199.64444 106.11111,200.52444 106.11111,201.42178L106.11111,202.31111L106.11111,203.21111L106.11561,204.10661" id="svg_18" stroke-width="3" stroke="#000" fill="none"/>
  <path t="117471,117782,117782,117798,118030" d="M97.11111,200.81111C97.11111,199.81111 97.11111,199.01111 97.11111,198.11111L97.05395,197.16827" id="svg_19" stroke-width="20" stroke="#fff" fill="none"/>
  <path t="119046,119246,119271,119296,119350,119350,119519" d="M98.11111,197.81111C96.50044,197.77512 95.71111,197.38577 94.91111,196.89378L94.11111,196.47778L93.63194,195.81111L93.19511,194.97911" id="svg_20" stroke-width="20" stroke="#fff" fill="none"/>
  <path t="121959,122254,122262,122270,122278,122298,122414,122470,122478,122566,122591,122606,122614,122630,122639,122670,122934,123350,123366,123374,123383,123510,123510,123550,123581,123582,123638,123638,123653,123662,123686,123733,123750,123750,123821" d="M88.11111,207.81111C88.98978,207.81111 89.81561,207.81111 90.71111,207.81111C91.61111,207.81111 92.50044,207.81111 93.39645,207.81111C94.31111,207.81111 95.21111,207.81111 96.11111,207.81111C96.98978,207.81111 97.81567,207.82172 98.71111,207.81111C99.59046,207.80069 100.11142,207.01082 100.94444,206.81111C101.70117,206.6297 102.90754,206.53036 103.02444,205.61244C103.12448,204.82698 101.81561,204.81111 100.94444,204.81111C100.22444,204.81111 99.28577,204.81111 98.27778,204.81111C97.48578,204.81111 96.45844,204.81111 95.76378,204.81111C94.74711,204.81111 93.81561,204.81111 92.94444,204.81111C92.01111,204.81111 91.11111,204.81111 90.31111,204.81111L89.39645,204.81111" id="svg_21" stroke-width="3" stroke="#000" fill="none"/>
  <path t="124734,125077,125077,125142,125142,125413,125430,125478,125486" d="M105.11111,196.81111C105.11111,197.81111 105.11111,198.56828 105.11111,199.46378C105.11111,200.3271 105.11111,201.29028 105.11111,202.21111L105.11111,203.11111L105.11111,204.01111" id="svg_22" stroke-width="3" stroke="#000" fill="none"/>
  <path t="129599,129884,129902,129919,129950,129975,129975,130006,130015,130054,130070,130086,130087,130214,130238,130238,130294,130350,130350,130399,130399,130423,130582,130718,130718,130782,130782,130855,130870,130870,130910,130934,130942,131022,131030,131048,131070,131118,131118,131142,131214,131231,131255,131294,131342,131382,131382,131470,131495,131495,131607,131632,131678,131678" d="M112.11111,109.81111C112.39511,108.89645 113.38798,108.61172 114.02711,109.09511C114.72346,109.62177 115.17467,110.28102 115.71111,110.96044C116.27316,111.67229 116.89734,112.27451 117.39511,112.81245C117.94936,113.41142 118.37456,114.03065 118.91245,114.61111C119.58468,115.33653 120.21095,115.91094 120.82578,116.52578C121.46827,117.16828 122.11111,117.81111 122.71111,118.41111C123.41111,119.11111 123.8429,119.68698 124.59028,120.29028C125.33797,120.89383 126.27778,120.81118 127.11111,120.81111C128.08961,120.81103 128.96542,120.94653 129.59027,120.26944C130.1844,119.62563 129.96259,118.57008 130.39511,117.69778C130.79742,116.88641 131.11111,116.20044 131.11111,115.31111C131.11111,114.41111 130.82675,113.31482 131.39644,112.80978C132.02779,112.25006 132.95627,112.04329 133.10045,111.21111C133.25409,110.32426 133.11111,109.41111 133.11111,108.51111C133.11111,107.61111 133.06332,106.70985 133.11111,105.81111C133.15384,105.00771 133.75911,104.34127 134.02577,103.32711C134.20242,102.65526 134.11111,101.56828 134.11111,100.71111L134.11111,99.81111L134.11111,99.01111" id="svg_23" stroke-width="3" stroke="#000" fill="none"/>
  <path t="135372,135558,135606,135622,135642,135733,135750,135918,135918,135926,135942,135998,136046,136046,136382,136382,136405,136438,136470,136485,136511,136878,137262,137270,137295,137350,137606,137653,137710,137710,137733,137766,137766,138029,138029,138038,138069,138142,138158,138182,138478" d="M141.11111,80.81111C141.91245,80.81111 142.81165,80.86732 143.61111,81.31111C144.40715,81.75299 145.03358,82.03593 145.11111,82.89511C145.19478,83.82238 145.65547,84.56657 146.61111,84.79028C147.48766,84.99547 148.52135,84.66022 149.21127,85.25378C149.74062,85.70918 150.22885,86.69727 151.06944,86.76944C151.31021,86.79011 150.6382,86.1451 150.13644,85.42178C149.68625,84.77277 148.94814,84.35951 149.11111,83.51561C149.25507,82.77029 149.40211,82.81111 148.51111,82.81111C147.61111,82.81111 146.62685,82.73814 147.30711,82.84711C148.24576,82.99746 148.56285,83.79649 149.22095,84.45394C149.80838,85.04079 150.76825,84.96019 151.34494,85.86911C151.73273,86.4803 151.71063,87.72486 150.91112,87.81111C150.01646,87.90762 149.11111,87.79028 148.50044,87.20044L147.81111,86.51561" id="svg_24" stroke-width="3" stroke="#000" fill="none"/>
  <path t="140343,140532,140549,140559,140573,140581,140621,140629,140629,140647,140677,140700,140717,140740,140757,140781,140805,140837,140837,140885,140900,140909,140917,140941,140957,140997,140997,141021,141021,141037,141045,141076,141101,141101,141101,141108,141116,141141,141149,141196,141205,141205,141221,141244,141269,141293,141309,141316,141316,141341,141341,141357,141581,141581,141589,141589,141606,142284,142301,142301,142652,142652,142709,142750,142773,142788,142862,142869,142941,142981,142981,143021,143085,143101,143117,143133,143133,143221,143229,143238,143309,143332,143357,143372,143397,143397,143412,143470,143492,143492,143532,143532,143533,143549,143645,143669,143669,143669,143748,143749,143765,143773,143773,143805,143805,143813,143845,143853,143862,143925,143965,143988,144045,144068,144068,144068,144229,144252,144253,144284,144285,144429,144628,144629,144700,144725,144725,144757,144757,144765,144813,144813,144829,144829,144837,144845,144853,144862,144878,144879,144908,144909,144925,145124,145125,145141,145141,145149,145157,145164,145173,145196,145221,145221,145292,145293,145309,145316,145325,145325,145341,145349,145357,145605,145701,145725,145725,145740,145757,145765,145773,145788,145789,145805,145820,145820,145828,145837,145846,145853,145861,145878,145900,145941,145948,145981,145996,146005,146021,146021,146053,146076,146108,146108,146116,146142,146142,146149,146149,146173,146212,146221,146245,146245,146253,146262,146269,146278,146404,146437,146437,146605,146613,146613,146621,146621,146629,146630,146637,146637,146638,146638,146646,146647,146647,146652,146653,146653,146662,146663,146663" d="M96.11111,35.81111C95.91378,36.52711 96.92679,36.80397 97.10978,37.61244C97.30817,38.48894 97.03371,39.47871 97.54711,40.21111C98.10086,41.00106 98.90046,41.30237 99.59028,41.81111C100.24963,42.29739 100.72701,43.12205 101.02578,44.00978C101.29954,44.8232 101.42154,45.57547 102.05844,46.16378C102.64567,46.7062 103.26836,47.41097 103.71111,47.96044C104.34868,48.75168 104.82859,49.21113 105.11561,50.10661C105.35948,50.86747 105.85202,51.3768 106.13245,52.21111C106.44139,53.13027 107.34325,53.34363 108.08945,53.91111C108.79942,54.45105 108.80224,55.3699 109.12178,56.20044C109.41805,56.97049 110.46568,57.218 111.09028,57.83194C111.56888,58.30238 112.02802,59.32156 112.46378,60.11111C112.92629,60.94915 113.09019,61.74695 113.63194,62.33194C114.28392,63.03597 114.57197,63.7652 115.16378,64.45394C115.73011,65.11303 116.85018,65.35527 117.07511,66.21111C117.30411,67.08243 117.22344,68.04797 117.87278,68.45394C118.67118,68.95309 119.69906,68.75645 120.47511,69.24711C121.31305,69.77689 121.74065,70.42693 122.31111,71.29378C122.73349,71.9356 123.31071,72.64254 124.21111,72.81128C125.11073,72.97987 125.72532,73.45441 126.59245,74.00977C127.19941,74.39851 127.4327,74.52587 126.82711,73.89511C126.27711,73.32224 125.38433,72.99482 125.11111,72.37511C124.76257,71.58453 125.2999,70.54188 124.88978,69.71127C124.54041,69.00371 123.49241,68.8045 123.05844,68.10661C122.64177,67.43655 122.34727,66.54411 121.88978,65.71127C121.50984,65.01964 120.97408,64.34309 120.46378,63.75844C119.89384,63.10548 119.68795,62.26562 119.13644,61.42178C118.72871,60.79792 117.66473,60.55076 117.23244,59.71111C116.89853,59.06252 116.66927,58.12627 116.12578,57.42178C115.64433,56.79771 114.62401,56.76942 113.99778,55.95778C113.53879,55.36288 113.59707,54.50925 113.13644,53.49378C112.79856,52.7489 111.76898,52.39141 111.28577,51.93911C110.73903,51.42733 110.01981,50.39788 109.63194,49.85278C109.04539,49.02844 108.07843,48.68551 107.51111,48.20044C106.7644,47.562 106.22306,47.0869 105.63194,46.31111C105.07252,45.57692 104.67566,44.82976 103.81111,44.81111C102.91265,44.79173 102.18267,44.44183 101.61111,43.81111C101.10651,43.25429 100.68859,42.47193 100.09028,41.81111C99.60966,41.28028 98.94109,40.46611 98.11111,39.97778C97.36327,39.53775 96.73348,38.9356 96.31111,38.29378C95.74065,37.42693 95.30549,35.99025 94.46828,36.22544C94.00241,36.35632 95.138,37.12568 95.61111,37.83194C96.14207,38.62456 96.70222,39.23616 97.05395,40.10661C97.39093,40.94056 97.85954,41.53545 98.59378,42.01111C99.23862,42.42885 99.88444,43.1702 100.33244,43.91094C100.82682,44.72835 101.07236,45.3997 101.55378,46.13244C102.036,46.86639 102.7711,47.64755 103.12578,48.40044C103.46198,49.11411 103.8931,50.51996 104.75394,50.39678C105.43301,50.29961 105.30706,48.97667 105.05395,48.11111C104.7973,47.23348 104.3045,46.44804 103.88978,45.71128C103.42119,44.87882 102.84992,44.2284 102.50044,43.62578C101.94839,42.67383 101.35087,42.16989 100.72178,41.41111C100.17673,40.75369 100.11111,39.81111 100.11111,39.01111C100.11111,38.11111 100.11462,37.02091 99.40661,36.81561C98.50346,36.55372 98.26541,35.89485 99.11111,35.81111C99.90722,35.73228 100.85275,35.62596 101.72178,35.84711C102.57472,36.06417 103.37546,36.57572 104.11111,36.97778C104.84659,37.37973 105.02955,38.36001 105.39645,39.29378C105.66423,39.9753 106.66726,40.46999 107.05395,41.16828C107.5095,41.99092 107.78152,42.61801 108.09028,43.33194C108.43512,44.12932 108.71851,44.58927 109.07511,45.24711C109.53484,46.09519 109.09238,47.11131 109.11111,48.00978C109.12912,48.87301 109.57966,49.65495 109.82711,50.32844C110.17298,51.2698 110.37146,52.25749 111.21111,52.68978C111.8597,53.02369 112.75208,53.33055 113.27778,54.14444C113.69739,54.79408 113.98328,55.76622 114.67511,56.36444C115.3624,56.95874 116.00581,57.2867 116.46378,58.11111C116.87613,58.85341 117.02801,59.75887 117.72178,60.37511C118.37994,60.95973 119.1994,61.22845 119.68578,61.83644C120.21557,62.49872 120.00002,63.48254 120.19644,64.32711C120.39939,65.19975 120.33052,65.84962 119.50711,65.72444C118.49416,65.57044 117.70644,65.12571 117.27778,64.32578C116.91489,63.64858 116.45833,62.59941 116.04861,62.20661C115.36942,61.55546 114.79469,61.18687 114.08044,60.12844C113.56913,59.37074 113.46399,58.74492 112.78961,57.95378C112.17348,57.23096 111.50978,56.84311 110.71378,56.04311L110.33244,55.56044L109.82545,54.81644" id="svg_25" stroke-width="3" stroke="#000" fill="none"/>
  <path t="147171,147333,147364,147397,147397,147412,147413,147429,147444,147452,147454,147462,147492" d="M101.11111,36.81111C101.82711,36.98178 102.08757,37.85284 102.11111,38.81111C102.13025,39.58983 102.44975,40.4656 103.26044,40.82578C104.00632,41.15715 104.39511,42.01111 104.94444,42.81111L105.10661,43.51111L105.11111,44.45394L105.13194,45.33194" id="svg_26" stroke-width="3" stroke="#000" fill="none"/>
  <path t="149509,149580,149581,149597,149620,149645,149660,149660,149685,149733,149765,149797,149820,149853,149853,149868,149885,149900,149933,149941,149965,149973,149981,149982,150005,150005,150013,150037,150037,150189,150197,150204,150205,150205,150213,150214,150214,150221,150229,150230,150237" d="M108.11111,44.81111C108.11111,45.81111 108.23322,46.58974 108.68578,47.41111C109.1105,48.18198 108.92068,49.1746 109.33261,49.91094C109.74522,50.64849 110.59675,50.99634 111.27778,51.64444C111.9112,52.24724 112.72213,52.55175 113.07511,53.25778C113.46651,54.04063 113.05825,55.00536 113.61111,55.79028C114.0684,56.4395 114.83507,56.79662 115.54711,57.23644C116.31866,57.71302 116.9824,58.17632 117.11244,59.01111C117.25503,59.92641 117.80498,60.56029 118.67911,61.09644C119.24698,61.44475 119.90846,62.15771 120.39511,63.01111C120.76135,63.65336 121.18081,64.4374 121.10978,63.60978C121.02603,62.63398 120.74657,61.90576 120.13911,61.29511C119.43743,60.58974 118.57803,60.42615 117.96445,60.01244C117.07648,59.41373 117.10978,58.32844 117.05395,57.52094L116.59028,56.81111" id="svg_27" stroke-width="3" stroke="#000" fill="none"/>
  <path t="154509,154660,154692,154692,154709,154725,154733,154756,154773,154780,154797,154797,154806,154828,154908,154925,154932,155092,155092,155100,155101,155108,155108,155109,155116,155116,155125,155125,155132,155141,155141,155149,155156,155156,155172,155189,155189,155189,155244,155244,155252,155269,155269,155332,155332,155420,155420,155429,155429,155438,155439,155439,155439,155444,155445,155445,155452,155452,155461,155508,155508,155516,155525,155532,155540,155550,155550,155550,155557,155572,155572,155589,155589,155597,155605,155606,155612,155612,155620,155637,155637,155649,155649,155773,155773,155781,155781,155782,155797,155805,155813,155813,155836,155836,155877,155892,155893,155909,155909,155918,155925,155933,155941,155948,155956,155956,155965,155973,156324,156324,156332,156332,156332,156357,156357,156372,156380,156381,156381,156390,156396,156397,156404,156404,156404,156413,156414,156424,156432,156439,156440,156453,156453,156461,156462,156473,156486,156572,156572,156581,156590,156597,156598,156608,156608,156608,156619,156619,156624,156632,156632,156638,156638,156649,156649,156654,156654,156663,156663,156664,156672,156672,156672,156673,156678,156689,156689,156689,156694,156695,156702,156715,156718,156735,156735,156749,156751,156759,156774,156774,156781,156781,156795,156989,156997,156997,157021,157021,157033,157059,157059,157062,157063,157073,157089,157089,157089,157125,157126,157204,157212,157221,157236,157249,157420,157421" d="M2.11111,328.8111C2.11111,326.98578 2.11111,325.97778 2.11111,325.1156C2.11111,324.21112 2.17646,323.37366 2.68578,322.78577C3.24768,322.13718 4.01508,322.15524 4.82578,321.72577C5.68353,321.27136 6.1318,320.82153 7.22578,320.8111C8.11107,320.80267 8.66551,320.39343 9.33261,319.93262C10.06231,319.42856 11.12343,319.72073 11.86828,319.86829C12.80168,320.05319 13.55975,320.52145 14.53244,320.68961C15.32916,320.82733 16.15844,320.80884 17.18944,320.8111C18.06944,320.81302 18.97976,321.00476 19.80661,320.75394C20.69518,320.48441 21.20885,319.70886 21.81111,319.11111C22.51913,318.40842 23.26628,317.79129 23.92578,317.42178C24.76394,316.95218 25.60911,316.63828 26.39778,316.38577C27.10852,316.15823 28.13704,315.8551 28.90844,315.81244C29.78178,315.76413 30.88006,315.7717 31.59028,315.83194C32.61779,315.9191 33.06304,316.69318 33.82544,316.80661C34.51452,316.90915 35.5165,316.53601 36.34711,316.20044C37.28249,315.82254 38.07114,315.51395 38.63194,315.29028C39.51711,314.93726 40.4149,314.49728 41.00211,314.16293C41.84516,313.68292 42.78447,313.16089 43.56944,312.83194C44.41871,312.47607 45.20348,311.87326 45.91111,311.81244C46.8078,311.73535 47.71111,311.8111 48.61111,311.8111C49.53244,311.8111 50.44444,311.8111 51.35111,311.8111C52.04861,311.8111 53.15241,311.77408 53.98311,311.82178C54.71637,311.86386 55.69875,312.18454 56.45395,312.45844C57.34981,312.78333 58.30051,312.92847 59.11111,313.33194C59.97167,313.76028 60.6609,314.25919 61.02711,315.01111C61.4433,315.86563 61.86168,316.5275 62.59511,317.01245C63.27582,317.46255 64.05754,318.15915 64.61111,318.79028C65.24258,319.51025 65.94481,319.77271 66.71244,319.80844C67.70104,319.85446 68.80868,319.86606 69.47728,319.45395C70.11678,319.05978 70.8707,318.59357 71.82445,318.2471C72.7405,317.91434 73.55411,317.8111 74.33244,317.8111C75.31078,317.8111 76.06944,317.8111 77.12578,317.8111C77.91245,317.8111 78.81136,317.79028 79.71111,317.8111C80.61184,317.83194 81.38412,318.34268 81.75394,319.16293C82.13921,320.01746 82.46247,320.7825 83.40044,320.8111C84.16808,320.8345 85.16311,320.8111 85.78711,320.8111C86.75311,320.8111 87.8465,320.80182 88.64311,320.8111C89.55796,320.82178 90.45679,321.22662 90.92577,321.67245C91.57797,322.29245 91.88336,323.26617 92.39911,324.01111C92.81421,324.61069 93.88741,324.99408 94.61111,325.33194C95.35207,325.67786 96.23369,326.23383 96.65378,326.98578C97.14645,327.86768 97.39506,328.56003 98.21111,329.03262C98.87766,329.41864 99.45627,330.07959 99.91111,330.69644C100.56955,331.58939 100.7674,332.34637 101.11111,333.29028C101.4174,334.13141 102.05117,334.88275 102.61111,335.29028C103.43766,335.89185 104.31245,335.8111 105.27778,335.8111C106.13194,335.8111 107.11217,335.84299 107.91111,335.80045C108.71346,335.75772 109.69834,335.43652 110.45394,335.16379C111.34495,334.84216 112.22672,334.90256 112.99644,334.72577C113.98046,334.49976 114.49657,334.07867 115.51111,333.89645C116.30193,333.75443 117.31111,333.8111 118.11111,333.8111C119.11111,333.8111 119.93597,333.83658 120.88177,333.72577C121.75816,333.62311 122.41235,333.46033 123.42445,333.23645C124.05804,333.09631 125.24293,332.83969 126.27778,332.8111C126.94686,332.7926 127.71244,332.8111 128.90045,332.8111C129.62578,332.8111 130.59027,332.8111 131.51111,332.8111C132.4156,332.8111 133.27777,332.8111 134.11111,332.8111C135.08961,332.8111 135.90977,332.80966 136.82578,332.8111C137.68045,332.81244 138.58676,332.77267 139.35394,333.52094C139.91629,334.06943 140.11891,335.15485 140.94444,335.64444C141.59464,336.03003 142.52011,335.8111 143.50844,335.8111C144.39677,335.8111 145.33281,335.80344 146.27777,335.8111C146.93651,335.81644 147.94022,335.98572 148.70044,336.38577C149.51732,336.81567 150.29779,337.2944 150.76378,337.8736C151.30991,338.55237 151.91716,339.50055 152.46445,340.12845C153.03122,340.77872 153.842,340.62836 154.71111,340.84711C155.57391,341.06427 156.31111,341.72845 157.11111,342.14444L157.61111,342.8111" id="svg_28" stroke-width="3" stroke="#000" fill="none"/>
  <path t="159314,159403,159412,159412,159420,159420,159420,159428,159428,159437,159437,159444,159478,159500,159500,159517,159517,159524,159532,159532,159548,159548,159557,159557,159557,159571,159596,159596,159596,159604,159614,159620,159629,159629,159638,159645,159652,159661,159669,159679,159684,159700,159700,159716,159716,159716,159724,159740,159740,159740,159748,159757,159757,159764,159773,159780,159780,159788,159788,159798,159799,159814,159814,159814,159814,159820,159820,159820,159821,159828,159845,159845,159845,159853,159853,159868,159879,159880,159884,159884,159892,159893,159893,159900,159900,159900,159908,159908,159916,159916,159916,159924,159924,159932,159932,159964,159972,159972,159983,159988,159988,159998,160004,160004,160005,160012,160013,160021,160021,160021,160022,160027,160028,160028,160028,160036,160036,160036,160036,160044,160044,160045,160045,160053,160053,160053,160065,160066,160066,160078,160092,160092,160102,160108,160119,160119,160124,160124,160132,160142,160142,160156,160156,160164,160212,160444,160452,160452,160460,160517,160524,160533,160540,160548,160548,160549,160557,160568,160585,160596,160597,160624,160628,160628,160666,160669,160669,160676,160695,160696,160704,160704,160707,160836,160868,160876,160877,160884,160885,160893,160893,160893,160893,160893,160894" d="M12.11111,365.8111C12.82711,364.55646 13.02399,363.73718 13.17244,363.01511C13.3884,361.96469 13.78235,361.2402 14.46294,360.47278C15.05735,359.80255 15.70045,359.22177 16.41111,358.51111C16.91111,358.01111 17.52705,357.13785 18.41561,356.86829C19.24246,356.61746 20.11111,356.8111 21.08961,356.8111C21.90978,356.8111 22.74711,356.8111 23.75928,356.8111C24.54178,356.8111 25.57956,356.99036 26.13194,357.35278C26.98901,357.91513 27.45343,358.65057 27.90978,359.32712C28.49458,360.19409 29.26028,360.84235 29.93644,361.20044C30.61113,361.55774 31.5901,361.80069 32.51111,361.8111C33.41555,361.82132 34.27778,361.8111 35.11111,361.8111C36.08944,361.8111 36.94444,361.8111 37.81561,361.8111C38.71111,361.8111 39.66368,362.10187 40.50044,361.80045C41.26423,361.52533 41.66653,360.58517 42.33244,360.21112C43.29049,359.67297 43.92248,359.4487 44.62578,359.01111C45.51614,358.45715 46.26029,357.77985 46.93644,357.42178C47.61113,357.06448 48.61095,356.82153 49.59511,356.8111C50.28574,356.80377 51.35394,356.8111 52.21111,356.8111C53.11111,356.8111 53.86828,356.8111 54.76828,356.8111C55.71244,356.8111 56.71815,356.78232 57.34711,356.84711C58.54077,356.97006 59.08523,357.13486 59.92178,357.49377C60.52622,357.75311 61.71509,358.56973 62.28978,359.05112C62.84565,359.51675 63.25108,360.10434 64.30128,360.6441C65.21908,361.11584 65.92883,361.29016 66.71244,361.5271C67.68851,361.82224 68.62578,361.81042 69.48578,361.8111C70.43244,361.81183 71.28577,361.8111 72.22845,361.8111C73.08044,361.8111 73.88177,361.8111 74.65278,361.8111C75.51378,361.8111 76.70978,361.8111 77.30045,361.8111C78.15395,361.8111 79.42577,361.8111 80.09028,361.8111C81.11111,361.8111 81.91111,361.8111 82.71111,361.8111C83.71111,361.8111 84.51111,361.8111 85.50978,361.8111C86.27511,361.8111 87.35394,361.8111 88.21128,361.8111C88.99644,361.8111 89.93645,361.8111 90.94444,361.8111C91.70045,361.8111 92.65278,361.8111 93.65378,361.8111C94.36178,361.8111 95.10818,361.74298 96.14445,361.81378C96.97915,361.87082 97.87496,362.25488 98.47811,362.51645C99.50629,362.96234 100.21385,363.30048 101.28978,363.56812C101.95057,363.73248 102.93626,363.79825 103.59511,363.80844C104.63249,363.82446 105.36828,363.8111 106.52177,363.8111C107.31245,363.8111 108.51078,363.8111 109.30211,363.8111C110.06944,363.8111 110.79678,363.8111 111.77778,363.8111C112.60128,363.8111 113.55928,363.8111 114.53211,363.8111C115.31511,363.8111 116.25645,363.8111 117.27778,363.8111C118.11111,363.8111 118.89098,363.931 119.71111,364.38577C120.49332,364.81952 121.29378,365.12216 121.99644,365.61246C122.74492,366.1347 123.44679,366.49246 124.48578,366.78577C125.27007,367.00717 126.14043,367.28424 126.94444,367.8111C127.61708,368.25186 128.40976,368.7825 129.31111,368.8111C130.21065,368.83963 131.11157,368.784 131.91112,368.8111C132.75539,368.83972 133.15898,369.65536 133.61111,370.33194C134.10907,371.07709 134.11111,372.01245 134.11111,372.97778C134.11111,373.64709 134.11111,374.41245 134.11111,375.58978C134.11111,376.47778 134.11111,377.35278 134.11111,378.2951C134.11111,378.98578 134.28433,380.11987 133.88977,380.91095C133.53755,381.6171 132.56944,381.8111 131.62711,381.8111C130.93645,381.8111 129.86378,381.8111 128.94444,381.8111C128.11111,381.8111 127.27778,381.8111 126.41561,381.8111C125.46828,381.8111 124.59028,381.81116 123.70045,381.8111C122.78978,381.811 121.90549,381.87195 120.98978,381.52579C120.31153,381.26941 119.27991,380.80258 118.48578,380.60843C118.03094,380.49722 117.02778,380.26944 116.49377,380.1391L115.38978,379.84045" id="svg_29" stroke-width="3" stroke="#000" fill="none"/>
  <path t="161244,161436,161436,161436,161437,161444,161444,161444,161444,161444,161444,161444,161444,161444,161452,161452,161452,161452,161452,161452,161452,161452,161452,161460,161460,161460,161460,161460,161461,161461,161468,161469,161469,161469,161469,161477,161477,161488,161488,161509,161517,161524,161524,161532,161532,161532,161540,161540,161548,161548,161548,161548,161557,161557,161557,161567,161567,161572,161572,161582,161588,161588,161605,161605,161612,161613,161622,161622,161622,161628,161629,161637,161637,161637,161637,161649,161649,161649,161653,161654,161654,161654,161654,161662,161662,161663,161670,161670,161670,161670,161678,161716,161724,161725,161733,161733,161740,161740,161749,161749,161764,161764,161772,161773,161788,161805,161805,161812,161813,161820,161828,161836,161852,161852,161868,161876,161886,161892,161893,161900,161908,161908,161916,161917,161925,161926,161933,161933,161948,161948,161956,161956,161965,161965,161972,161981,161982,161988,161988,161996,161998,162006,162012,162013,162028,162036,162047,162047,162052,162063,162076,162077,162086,162086,162086,162094,162100,162101,162108,162116,162116,162125,162133,162141,162141,162149,162156,162156,162167,162168,162172,162188,162189,162189,162195,162196,162212,162228,162229,162236,162275,162308,162327,162340,162428,162438,162438,162446,162446,162447,162447,162452,162452,162452,162452,162453,162453,162453,162462,162462,162462,162462,162463,162463,162463,162468,162469,162469,162469,162469,162478,162478,162478,162478,162484,162492,162524,162533,162533,162540,162549,162549,162549,162556,162557,162557,162566,162567,162567,162567,162575,162576,162576,162588,162589,162589,162589,162589,162596,162597,162597,162605,162605,162612,162612,162622,162637,162637,162644,162645,162653,162654,162660,162660,162660,162671,162672,162672,162672,162676,162677,162677,162677,162689,162689,162689,162692,162692,162692,162692,162700,162700,162700,162701,162701,162717,162717,162796,162804,162805,162805,162805" d="M44.11111,384.8111C46.17244,384.24045 46.85873,383.93182 47.68711,383.58978C48.1516,383.39798 49.77641,382.80682 50.39728,382.61078C51.05236,382.40393 51.74425,382.202 52.46578,381.98978C53.21524,381.76932 53.9909,381.54279 54.78628,381.29678C55.60295,381.04419 57.27978,380.48328 58.13178,380.16876C58.99183,379.85129 59.84603,379.51541 60.69378,379.18176C61.52803,378.85342 62.34009,378.52936 63.12978,378.23077C63.88419,377.94553 65.27464,377.46655 65.90378,377.29694C66.48308,377.14075 67.02664,377.01459 68.02778,376.8736C68.49252,376.80814 69.39258,376.75558 70.73211,376.58978C71.65702,376.47531 72.11523,376.38644 73.01378,376.23645C73.85655,376.09576 75.25218,375.87305 76.02778,375.83194C76.9434,375.78342 77.80713,375.75488 78.61111,375.3111C79.41163,374.86923 80.22011,374.74725 81.08178,374.89645C81.89304,375.03693 82.63772,375.31607 83.42844,375.61246C84.43486,375.98972 85.08927,376.37244 86.27778,376.64444C87.05329,376.82193 87.91032,376.84058 88.42711,377.06577C89.49391,377.53064 90.06036,378.34131 90.50661,378.75311C91.4511,379.62469 92.13651,379.63315 93.08961,380.03244C93.85884,380.35471 94.63177,380.80069 95.59378,380.8111C96.40123,380.81982 97.39911,380.8111 98.08311,380.8111C99.12094,380.8111 99.89645,380.81442 100.94444,380.8111C101.65395,380.80884 102.52632,380.82797 103.51244,380.52579C104.36896,380.26331 105.27882,379.81378 106.06377,379.50662C106.61185,379.29214 107.45237,378.96619 108.42978,378.32712C109.17323,377.84103 109.65017,377.40588 110.61111,376.97778C111.34453,376.65103 112.18589,376.44247 113.03511,376.22177C113.85795,376.00793 114.96223,375.75113 115.81377,375.40045C116.57016,375.08896 117.27853,374.64566 118.05928,374.16293C118.85055,373.67371 119.27296,373.18573 120.43911,372.88312C121.28732,372.66302 122.27778,372.8111 123.11111,372.8111C124.08978,372.8111 124.86378,372.8111 125.76828,372.8111C126.51561,372.8111 127.50845,372.8111 128.39677,372.8111C129.44444,372.8111 130.15277,372.8111 131.11111,372.8111C131.88977,372.8111 132.94312,372.8111 133.82544,372.8111C134.52011,372.8111 135.55765,372.57141 136.39677,372.86829C137.23958,373.16647 137.82428,373.71066 138.63194,373.83194C139.61809,373.98001 140.18207,374.59213 141.19377,374.80978C141.9798,374.97888 142.93645,374.8111 143.94444,374.8111C144.70044,374.8111 145.63194,374.8111 146.59511,374.8111C147.28578,374.8111 148.22844,374.8111 149.08044,374.8111C150.11644,374.8111 150.86044,374.8111 151.77777,374.8111C152.74495,374.8111 153.68178,374.8111 154.33244,374.8111C155.31094,374.8111 156.27512,374.8111 157.22711,374.8111C157.99512,374.8111 158.93645,374.8111 159.94444,374.8111C160.73645,374.8111 161.59645,374.8111 162.32178,374.8111C163.31094,374.8111 164.27512,374.8111 165.22578,374.8111C166.11111,374.8111 166.86827,374.8111 167.75928,374.8111C168.77777,374.8111 169.68045,374.8111 170.46295,374.8111C171.35394,374.8111 172.31183,374.77533 173.21144,374.81128C173.92714,374.83987 174.88582,375.07651 175.61111,375.33194C176.35051,375.59235 177.22969,376.22552 178.11111,376.64444C178.8683,377.0043 179.59142,377.35287 180.31111,378.00977C180.89563,378.54327 181.79866,378.88742 182.63194,379.3111C183.42113,379.71234 184.24973,379.80576 185.16177,379.8111C185.98309,379.81589 186.71378,379.8111 187.7066,379.8111C188.62578,379.8111 189.63194,379.8111 190.44444,379.8111C191.36177,379.8111 192.10577,379.8111 193.14178,379.8111C193.99377,379.8111 194.93645,379.8111 195.94444,379.8111C196.70044,379.8111 197.61111,379.8111 198.51111,379.8111C199.41112,379.8111 200.30978,379.8111 201.19511,379.8111C201.99777,379.8111 202.96844,379.81104 203.62994,379.8111C204.75444,379.81119 205.43468,379.80734 206.19444,379.83194C207.03479,379.85913 208.44485,379.97403 208.95428,380.03244C210.03087,380.15588 210.59355,380.23825 211.17361,380.3111C212.37682,380.46219 212.99788,380.54138 214.27777,380.64444C214.93156,380.69708 216.25475,380.75934 216.91512,380.78577C217.56941,380.81195 218.21458,380.82135 219.45645,380.89511C220.61203,380.96375 221.65556,381.08713 222.13512,381.17279C223.03154,381.33295 223.85844,381.5267 224.94444,381.97778C225.6358,382.26495 226.5419,382.80234 227.09227,383.10129C228.127,383.66336 229.02711,383.80896 229.87277,383.8111C230.76379,383.81335 231.67326,383.79977 232.48578,384.2471C233.33752,384.716 233.96179,385.19876 234.51561,385.56827C235.54274,386.25357 235.89876,386.68448 236.62544,387.15845C237.70836,387.86475 238.41692,388.05075 239.09027,388.33194C239.75372,388.60901 240.87019,389.3345 241.25311,389.81644C241.82283,390.53348 242.58803,391.51569 243.16577,391.84177C243.78641,392.19205 244.51222,392.41235 245.22978,392.69379C246.29726,393.11246 247.25285,393.62744 247.82845,393.94977C248.77623,394.48053 249.58963,394.79025 250.59511,394.8111C251.28563,394.82541 252.34944,394.8111 253.27777,394.8111C253.99777,394.8111 254.94711,394.8111 255.71245,394.8111C256.71112,394.8111 257.51111,394.8111 258.51511,394.8111C259.4191,394.8111 259.9671,394.8111 260.97528,394.8111C261.77362,394.8111 262.63196,394.8111 263.51028,394.8111C264.77777,394.8111 265.54044,394.8111 266.56946,394.8111C267.20212,394.8111 268.4111,394.8111 269.01111,394.8111C269.9111,394.8111 271.11111,394.8111 271.71378,394.8111C272.65277,394.8111 273.32544,394.8111 274.44446,394.8111C275.27777,394.8111 276.15112,394.8111 277.02444,394.8111C277.85779,394.8111 278.94629,394.8111 279.78177,394.8111C280.77777,394.8111 281.77777,394.8111 282.52179,394.8111L283.40979,394.8111L283.9751,394.8111" id="svg_30" stroke-width="3" stroke="#000" fill="none"/>
  <path t="164301,164444,164463,164463,164463,164478,164479,164494,164495,164509,164519,164524,164524,164533,164533,164550,164550,164550,164551,164557,164557,164557,164557,164566,164566,164566,164566,164572,164572,164580,164580,164588,164588,164596,164596,164604,164604,164611,164611,164629,164629,164637,164638,164638,164645,164645,164654,164654,164662,164662,164670,164670,164670,164676,164684,164684,164692,164692,164747,164748,164748,164756,164756,164772,164773,164787,164788,164796,164796,164804,164804,164815,164815,164819,164836,164836,164915,164924,164924,164933,164934,164940,164940,164949,164949,164995,164996,164996,165004,165004,165015,165015,165028,165029,165036,165036,165045,165084,165084,165093,165093,165101,165101,165110,165110,165116,165116,165124,165212,165228,165276,165284,165293,165293,165300,165301,165316,165332,165356,165356,165363,165389" d="M190.11111,348.8111C190.79378,347.21112 191.64391,346.68497 192.37244,346.42178C193.15321,346.13971 194.1862,345.90125 194.86444,345.84711C195.94162,345.76111 196.74945,345.8111 197.63194,345.8111C198.52177,345.8111 199.43941,345.73264 200.28578,345.84711C201.10365,345.95773 201.76778,346.4639 202.65378,347.13293C203.11403,347.48047 203.89996,348.05774 204.34311,348.5831C205.03427,349.4025 205.45071,350.46603 205.76178,351.16043C206.06955,351.84747 206.63155,352.78806 207.11194,353.29678C207.79434,354.01944 208.37817,354.33478 208.94861,355.4021C209.37314,356.19641 209.9894,356.72089 210.71378,356.89377C211.7169,357.13315 212.50656,357.51813 213.08978,358.13226C213.66789,358.741 214.24403,359.60303 215.11111,359.76944C216.07312,359.95404 216.86378,359.8111 217.77278,359.8111C218.57278,359.8111 219.53244,359.8111 220.33644,359.8111C221.15845,359.8111 222.18944,359.8111 223.06944,359.8111C224.08978,359.8111 224.86378,359.8111 225.77278,359.8111C226.57278,359.8111 227.53227,359.8111 228.32578,359.8111C229.10127,359.8111 230.30128,359.8111 231.27777,359.8111C231.93645,359.8111 232.94444,359.811 233.77245,359.8111C234.65395,359.81119 235.63702,359.78586 236.42845,359.89645C237.43428,360.03702 238.06137,360.33359 239.08961,360.68994C239.80136,360.93661 240.36966,361.55594 240.86827,362.16293C241.53709,362.97714 242.32745,363.34015 243.08961,363.91129C243.73984,364.39856 244.32281,365.28668 244.67511,365.94977C245.12805,366.80231 245.3197,367.63156 245.91245,368.2431C246.60687,368.95953 247.59645,368.81116 248.32178,368.8111C249.31111,368.811 250.12732,368.87558 251.11111,368.64444C251.91974,368.45447 252.93376,367.91238 253.63194,367.83194C254.64728,367.71497 255.36177,367.8111 256.10577,367.8111C257.30127,367.8111 257.99377,367.8111 258.94711,367.8111C259.71243,367.8111 260.71774,367.75281 261.51111,367.86829C262.52454,368.01581 263.29211,368.34183 264.22577,368.72845C265.12955,369.10272 265.31769,369.84824 266.11111,370.47778C266.75638,370.98978 267.82214,370.63031 268.62711,370.98178C269.45648,371.3439 269.71597,372.23206 270.4111,373.04944C270.85788,373.5748 271.94751,373.68918 272.59027,374.33194C273.23303,374.9747 273.30002,375.93927 273.94446,376.64444C274.52588,377.28064 275.04736,377.93021 275.94446,378.47778C276.61423,378.8866 277.55734,378.68304 278.4111,378.81561C279.34149,378.96008 279.82578,379.61246 280.10977,380.52579L280.53644,381.2471" id="svg_31" stroke-width="3" stroke="#000" fill="none"/>
  <path t="166852,167043,167052,167052,167052,167052,167060,167060,167060,167060,167060,167060,167060,167067,167068,167068,167068,167068,167075,167076,167076,167076,167084,167084,167084,167092,167092,167101,167101,167108,167122,167122,167124,167133,167133,167140,167140,167148,167148,167156,167156,167163,167163,167164,167172,167172,167180,167180,167188,167188,167188,167196,167196,167204,167212,167268,167275,167275,167275,167283,167283,167292,167292,167300,167300,167308,167308,167316,167316,167323,167331,167396,167403,167411,167420,167428,167428,167531,167604,167604,167611,167611,167628,167637,167684,167684,167691,167700,167916" d="M1.11111,254.81111C1.69444,256.29028 2.60826,256.66919 3.49161,256.75845C4.21351,256.83139 5.04054,256.84555 6.44444,256.97778C6.95444,257.02582 8.01654,257.16309 8.56178,257.23645C9.66064,257.38434 10.20509,257.46408 10.74311,257.5271C12.26649,257.70557 13.20093,257.76376 14.09028,257.79028C14.95904,257.81619 15.39378,257.81042 16.73194,257.8111C17.65028,257.81155 18.54861,257.8111 19.38694,257.8111C20.44444,257.8111 21.19144,257.8111 22.07644,257.8111C23.11644,257.8111 23.86044,257.8111 24.77778,257.8111C25.68978,257.8111 26.52178,257.8111 27.43244,257.8111C28.28578,257.8111 29.22722,257.75797 30.21128,257.81128C30.9999,257.854 31.75297,258.20605 32.51561,258.45844C33.49452,258.78238 34.32749,258.76617 35.31111,259.03244C36.12882,259.25378 37.1081,259.66272 37.91111,259.78577C38.50918,259.87741 39.50362,260.11664 40.31111,260.38577C41.30262,260.71625 42.11095,260.80069 43.11111,260.8111C43.91107,260.81943 44.71111,260.8111 45.70661,260.8111C46.45395,260.8111 47.47511,260.8111 48.41111,260.8111C49.31244,260.8111 50.27778,260.8111 50.94711,260.8111C51.71244,260.8111 52.71111,260.8111 53.51111,260.8111C54.50978,260.8111 55.45395,260.8111 56.36295,260.8111C57.08044,260.8111 58.11644,260.8111 58.86044,260.8111C59.96811,260.8111 60.80211,260.8111 61.71111,260.8111C62.61111,260.8111 63.51111,260.8111 64.41111,260.8111C65.31111,260.8111 66.21111,260.8111 67.11111,260.8111C67.91111,260.8111 68.82578,260.8111 69.68178,260.8111C70.52011,260.8111 71.50845,260.8111 72.23911,260.8111C73.33261,260.8111 74.21111,260.8111 75.11111,260.8111C75.91111,260.8111 76.81111,260.8111 77.71111,260.8111L78.63194,260.8111" id="svg_32" stroke-width="3" stroke="#000" fill="none"/>
  <path t="168893,169132,169132,169141,169141,169141,169149,169149,169149,169156,169156,169166,169166,169173,169189,169197,169205,169213,169213,169222,169222,169229,169236,169236,169245,169253,169253,169253,169261,169285,169285,169300,169301,169316,169325,169325,169340,169349,169357,169357,169365,169381,169397,169405,169405,169413,169421,169437,169445,169445,169452,169453,169461,169468,169468,169476,169483,169516,169516,169531,169539,169539,169540,169549,169549,169564,169571,169571,169587,169611,169644,169644,169707,169716" d="M209.11111,266.8111C209.27777,268.64444 209.92993,268.80884 210.88177,268.8111C211.65277,268.81293 212.51378,268.8111 213.70978,268.8111C214.30045,268.8111 215.15395,268.8111 216.18944,268.8111C217.06944,268.8111 218.08978,268.8111 218.86378,268.8111C219.75928,268.8111 220.77777,268.8111 221.63194,268.8111C222.52177,268.8111 223.43245,268.8111 224.28578,268.8111C225.22711,268.8111 225.99512,268.8111 226.93645,268.8111C227.94444,268.8111 228.70044,268.8111 229.53244,268.8111C230.44444,268.8111 231.3511,268.8111 232.04861,268.8111C233.19244,268.8111 234.11111,268.8111 234.86827,268.8111C235.76378,268.8111 236.62711,268.8111 237.61111,268.8111C238.43245,268.8111 239.28578,268.8111 240.22578,268.8111C241.21111,268.8111 242.11111,268.8111 242.91112,268.8111C243.81111,268.8111 244.67511,268.8111 245.55777,268.8111C246.43245,268.8111 247.28578,268.8111 248.22444,268.8111C249.19511,268.8111 249.99777,268.8111 250.94711,268.8111C251.71245,268.8111 252.7066,268.8111 253.45395,268.8111C254.48578,268.8111 255.43228,268.8111 256.24979,268.8111C257.16177,268.8111 257.97296,268.7789 258.94446,268.8111C259.80804,268.83972 260.48737,269.3577 261.44446,269.64444C262.09668,269.83984 263.10745,269.75317 264.14044,269.81244C264.91177,269.85669 265.58096,270.45911 266.59512,270.72577C267.26697,270.90244 268.35394,270.8111 269.21112,270.8111C270.11111,270.8111 270.9111,270.89645 271.71112,271.38577L272.50046,271.77512" id="svg_33" stroke-width="3" stroke="#000" fill="none"/>
  <path t="173770,174056,174077,174108,174124,174133,174149,174196,174260,174308,174316,174428,174444,174461,174476,174500" d="M207.11111,282.8111C207.11111,283.8111 207.11111,284.72711 207.11111,285.51563C207.11111,286.4111 207.11111,287.3111 207.11111,288.20044C207.11111,289.16827 207.11111,290.01111 207.11111,290.9111C207.11111,291.8111 207.11111,292.72711 207.11111,293.51563L207.11111,294.4111L207.11111,295.3111L207.11111,296.20044" id="svg_34" stroke-width="3" stroke="#000" fill="none"/>
  <path t="175940,176115,176123,176148,176155,176163,176180,176251,176251,176475,176476,176484,176484,176500,176564,176565,176572" d="M208.11111,284.8111C208.11111,285.61246 208.11111,286.51111 208.11111,287.4111C208.11111,288.3111 208.11111,289.21112 208.11111,290.1156C208.11111,290.97778 208.11111,291.8111 208.11111,292.78976C208.11111,293.56378 208.11111,294.46378 208.11111,295.32712C208.11111,296.3111 208.11111,297.2951 208.11111,297.98578L208.11111,299.05396" id="svg_35" stroke-width="3" stroke="#000" fill="none"/>
 </g>
</svg>