<svg width="500" height="334.26183844011143" xmlns="http://www.w3.org/2000/svg" xmlns:svg="http://www.w3.org/2000/svg" xmlns:xlink="http://www.w3.org/1999/xlink">
 <!-- Created with SVG-edit - http://svg-edit.googlecode.com/ -->
 <g display="inline" class="layer">
  <title>Layer 1</title>
  <path t="0,106,113,122,123,129,140,140,140,146,147,157,158,162,162,176,177,185,193,209,217,226,226,233,233,241,241,257,257,265,265,281,289,441,449,459,465,466,466,473,473,473,478,479,481,482,482,482,493,493,494,500,500,500,505,505,513,513,513,521,522,522,529,529,545,545,561,561,585,593,745,755,761,762,770,789,789,795,802,809,817,817,824,833,953,1017,1033,1033,1042,1042,1049,1049,1049,1058,1058,1065,1065,1080,1081,1089,1497,1498,1505,1506,1513,1524,1529,1530,1540,1540,1546,1558,1562,1713,1713,1713,1721,1729,1740,1740,1740,1741,1746,1746,1746,1746,1746,1758,1758,1758,1758,1759,1759,1759,1761,1761,1762,1762,1762,1762,1762,1771,1771,1771,1771,1772,1772,1777,1777,1777,1777,1777,1777,1777,1785,1785,1785,1786,1792,1793,1793,1793,1793,1801,1801,1801,1802,1808,1809,2056,2073,2073,2081,2082,2090,2090,2097,2097,2106,2106,2106,2106,2113,2113,2121,2121,2122,2138,2138,2145,2145,2155,2161,2170,2185,2185,2192,2193,2193,2201,2201,2208,2217,2217,2224,2233,2233,2241,2249,2264,2265,2361,2371,2377,2386,2393,2393,2402,2409,2410,2418,2418,2424,2440,2504,2513,2521,2529,2530,2540,2540,2545,2753,2761,2777,2786,2961,2971,2977,2978,3025,3026,3042,3050,3057,3057,3065,3076,3076,3081,3081,3081,3096,3097,3107,3107,3113,3114,3121,3265,3265,3273,3273,3281,3282,3290,3291,3291,3297,3297,3298,3298,3305,3306,3306,3313,3313,3314,3321,3322,3322,3329,3329,3329,3329,3338,3338,3345,3345,3354,3361,3361,3361,3371,3392,3393,3401,3408,3424,3433,3448,3449,3464,3473,3473,3481,3481,3496,3513,3528,3538,3545,3545,3560,3571,3577,3592,3632,3641,3641,3649,3649,3664,3672,3689,3705,3721,3729,3738,3738,3745,3745,3755,3761,3770,3785,3785,3792,3801,3808,3817,3825,3825,3840,3841,3849,3850,3856,3865,3880,3889,3889,3897,3897,3912,3913,3921,3929,3938,3955,3960,3971,3976,3977,3985,3985,3992,4001,4008,4017,4024,4033,4033,4040,4049,4064,4065,4072,4089,4097,4105,4105,4121,4129,4144,4154,4170,4170,4185,4193,4193,4208,4217,4225,4226,4233,4234,4250,4250,4282,4283,4290,4297,4321,4329,4337,4355,4361,4371,4377,4385,4385,4473,4473,4474,4481,4489,4497,4498,4507,4508,4514,4514,4522,4523,4538,4721,4721,4722,4729,4739,4745,4758,4761,4762,4771,4776,4785,4785,4792,4792,4793,4801,4801,4808,4809,4816,4824,4833,4833,4840,4849,4849,4849,4856,4857,4857,4865,4865,4865,4872,4873,4873,4880,4985,4985,4993,4994,5001,5008,5009,5017,5017,5025,5025,5033,5040,5049,5056,5065,5065,5072,5073,5080,5088,5097,5105,5105,5113,5121,5129,5129,5144,5145,5155,5160,5161,5171,5171,5176,5192,5200,5201,5224,5241,5248,5249,5256,5264,5265,5272,5281,5305,5368,5377,5388,5393,5401,5408,5505,5513,5514,5521,5522,5529,5540,5544,5545,5554,5554,5560,5561,5570,5570,5576,5577,5577,5587,5588,5593,5601" d="M111.72569,119.51981C113.32569,118.94514 114.23531,118.66094 114.92569,117.95181C115.41793,117.44619 116.07796,116.7085 116.89236,116.18647C117.40928,115.85512 118.1104,115.15951 118.48302,114.31997C118.81415,113.57391 119.13406,112.4985 119.74653,112.04064C120.51952,111.46279 121.1908,111.0049 121.82569,110.41998C122.5109,109.7887 123.4062,109.86784 124.20486,109.49897C124.97594,109.14284 125.46535,108.44343 126.03019,107.81448C126.65177,107.12234 127.38496,106.63927 128.13019,106.47164C129.12733,106.24734 129.93669,105.97996 130.70419,105.41964C131.36047,104.94053 131.87216,104.00134 132.3257,103.38114C132.86574,102.64265 133.95786,102.76405 134.64169,102.23581C135.26918,101.7511 136.04836,101.59245 136.89236,101.35314C137.61513,101.14821 138.29431,100.79113 139.22569,100.51981C139.97493,100.30154 140.8205,100.11692 141.72169,99.9558C142.642,99.79127 143.55814,99.67654 144.43636,99.60381C145.25697,99.53584 146.02779,99.61803 147.22569,99.35314C148.06226,99.16816 148.67488,98.68015 149.73552,98.2198C150.23889,98.00133 151.04347,97.7209 152.04169,97.32114C152.95142,96.9568 153.88853,96.6542 154.67836,96.57697C155.49777,96.49686 156.55902,96.51981 157.26852,96.51981C158.12119,96.51981 159.13219,96.59833 159.88969,96.4838C160.86241,96.33674 161.58908,95.70501 162.55103,95.55581C163.23441,95.44981 164.31505,95.52527 165.22569,95.51981C166.11507,95.51447 166.62735,95.04915 166.94719,94.19864C167.26588,93.35118 167.91655,92.6135 168.89236,92.51981C169.53748,92.45786 170.50272,92.22173 170.72586,91.41998C170.95767,90.58707 171.85368,90.33115 172.42569,89.81531C173.15289,89.1595 173.25964,88.11969 174.01103,87.60514C174.76898,87.0861 175.82587,87.51981 176.61102,87.51981C177.38736,87.51981 178.18745,87.53408 179.40836,87.51847C180.20503,87.50829 181.00658,87.57218 181.91586,87.16264C182.66599,86.82478 183.35632,86.16032 184.13019,85.87698C185.09802,85.52261 185.88965,85.52514 186.84036,85.51981C187.82585,85.51427 188.61102,85.51981 189.55103,85.51981C190.2417,85.51981 191.32549,85.50512 192.13635,85.09447C192.90276,84.70635 193.72552,84.53023 194.70419,84.51981C195.52431,84.51108 196.42577,84.53165 197.3257,84.51981C198.13657,84.50914 199.05095,84.08194 199.55103,83.66914C200.24722,83.09444 201.08763,82.55583 202.0347,82.51981C203.05827,82.48087 203.74974,82.53106 204.61902,82.4838C205.2998,82.44679 206.46988,82.30471 207.34453,82.16264C207.80893,82.0872 208.78304,81.90919 209.29185,81.81531C210.8924,81.51997 211.4463,81.41373 212.58736,81.2243C213.17184,81.12727 213.76587,81.0291 214.98737,80.87698C215.61166,80.79923 216.892,80.68081 217.54669,80.64114C218.86871,80.56103 219.52969,80.54533 220.18402,80.51981C220.82835,80.49467 222.07298,80.45962 223.22569,80.35314C224.27592,80.25613 224.76913,80.17092 225.72569,79.99897C226.20245,79.91327 227.1761,79.70988 228.22569,79.51981C229.37469,79.31172 229.97871,79.22116 230.59102,79.13047C231.81277,78.94952 232.40988,78.87166 232.98836,78.80514C234.53845,78.62688 235.40611,78.57389 236.18402,78.51981C236.92212,78.46849 238.06018,78.36111 238.89369,78.23581C239.77766,78.10292 240.67444,77.94145 241.12036,77.87247C242.39078,77.67596 243.50636,77.56614 244.16319,77.54064C245.03725,77.50671 246.03903,77.51981 246.87903,77.51981C247.84169,77.51981 248.89236,77.51981 249.55103,77.51981C250.55902,77.51981 251.35184,77.4832 252.37836,77.52431C253.07446,77.55219 254.00029,77.85928 254.53552,78.33864C255.30281,79.02583 255.97636,79.77047 256.47504,80.26914C256.9577,80.75181 257.91583,81.71002 258.47385,82.26797C259.04712,82.84119 259.72571,83.54421 260.32703,84.0358C261.09897,84.66689 261.91345,85.07304 262.70419,85.61964C263.3353,86.05588 264.16537,86.25763 265.02118,86.52431C265.79803,86.76638 266.26437,87.78937 266.98303,88.08381C267.8606,88.44337 268.67734,88.4375 269.46436,88.54514C270.58926,88.69899 271.24377,89.26671 272.13635,89.4838C273.02191,89.6992 273.72568,89.51981 274.84036,89.51981C275.72568,89.51981 276.5257,89.51981 277.42569,89.51981C278.24652,89.51981 279.20969,89.51762 280.07303,89.51981C280.96402,89.52206 281.5325,90.19042 282.24652,90.49897C283.06357,90.85204 284.04703,90.51981 284.90036,90.51981C285.84036,90.51981 286.72568,90.51923 287.54004,90.51981C288.49237,90.52048 289.30338,90.22532 290.22568,90.68647C291.06897,91.10811 291.86395,91.19746 292.55902,91.68647C293.27567,92.19067 293.80173,92.80597 294.20486,93.54064C294.70401,94.45027 294.25085,95.37639 294.78287,96.16264C295.24515,96.8458 296.42575,96.53047 297.32568,96.51981C298.20505,96.50938 298.74512,95.84862 299.57635,95.54514C300.3638,95.25764 300.73016,94.59946 301.16168,93.70514C301.47293,93.0601 302.3255,92.53047 303.24652,92.51981C304.04697,92.51054 304.90036,92.51981 305.84036,92.51981C306.82602,92.51981 307.54004,92.51981 308.49503,92.51981C309.24652,92.51981 310.04303,92.51981 311.26852,92.51981C311.91504,92.51981 312.93307,92.6093 313.88968,92.4838C314.71793,92.37515 315.37506,91.71906 316.24652,91.54064C317.19165,91.34715 317.93637,91.51981 318.92554,91.51981C319.88968,91.51981 320.84302,91.51981 321.53552,91.51981C322.49768,91.51981 323.28818,91.51981 324.21368,91.51981C325.24704,91.51981 325.97836,91.51981 326.72568,91.51981C327.47302,91.51981 328.90402,91.51981 329.56403,91.51981C330.47903,91.51981 331.55902,91.51981 332.27304,91.51981C333.17834,91.51981 334.14737,91.51981 334.97235,91.51981C335.57236,91.51981 336.89236,91.51981 337.60703,91.51981C338.32968,91.51981 339.3587,91.51981 340.22568,91.51981C341.18402,91.51981 342.07962,91.32391 342.86435,91.55581C343.8222,91.83886 344.16357,92.84507 344.57635,93.34514C345.15106,94.04134 345.53668,94.94905 346.01102,95.7198C346.42578,96.39378 347.24988,96.96008 348.02118,97.46714C348.7131,97.92204 348.5643,98.93922 349.16837,99.6198C349.74301,100.26724 350.49042,100.75082 350.89236,101.51981C351.3078,102.31463 351.45975,103.23737 351.80969,103.95047C352.17795,104.70083 352.81921,105.31555 353.22568,106.01981C353.68387,106.81366 353.99353,107.73529 354.52704,108.31981C355.18393,109.03951 355.53326,109.7365 355.72586,110.61964C355.90997,111.46391 356.68942,111.96648 356.72586,112.84114C356.76141,113.69448 357.01117,114.4639 357.37302,115.21531C357.79257,116.08654 357.72568,117.01981 357.72568,117.91981C357.72568,118.81981 357.64355,119.72357 357.72586,120.6198C357.80954,121.53124 358.42554,122.1158 358.64035,123.00381C358.84424,123.84661 358.72568,124.76264 358.72568,125.7198C358.72568,126.6198 358.72568,127.51981 358.72568,128.31981C358.72568,129.2198 358.72568,130.11981 358.72568,131.01981C358.72568,131.93047 358.72568,132.84131 358.72568,133.54063C358.72568,134.51981 358.72568,135.49898 358.72568,136.35313C358.72568,137.2153 358.72568,138.11981 358.72568,139.01981C358.72568,139.93047 358.72568,140.84131 358.72568,141.54063C358.72568,142.51981 358.72568,143.49898 358.72568,144.35313C358.72568,145.2153 358.72568,146.11981 358.72568,147.01981C358.72568,147.9198 358.72568,148.81981 358.72568,149.7198C358.72568,150.61981 358.72568,151.51981 358.72568,152.27698C358.72568,153.17247 358.72568,154.03581 358.72568,154.99898C358.72568,155.9198 358.72568,156.81981 358.72568,157.7198C358.72568,158.61981 358.72568,159.51981 358.72568,160.31981C358.72568,161.2198 358.72568,162.15581 358.72568,163.0038C358.72568,163.86714 358.72568,164.76263 358.72568,165.7198C358.72568,166.61981 358.72568,167.51981 358.72568,168.31981C358.72568,169.2198 358.72568,170.11981 358.72568,171.01981C358.72568,171.93047 358.72568,172.84114 358.72568,173.69447C358.72568,174.63448 358.72568,175.51981 358.72568,176.31981C358.72568,177.2198 358.72568,178.15581 358.72568,179.0038C358.72568,179.86714 358.7713,180.77907 358.64035,181.48914C358.44632,182.54134 358.12384,183.2619 357.89236,184.18648C357.67456,185.05641 356.87515,185.07048 356.08286,185.57697C355.46176,185.97401 356.14236,187.23195 355.6897,188.0838C355.30112,188.81505 354.41534,189.13794 353.5257,189.43448C352.66806,189.72035 351.71829,189.45352 350.91135,189.57697C349.94238,189.7252 349.23224,190.04349 348.49368,190.23581C347.40625,190.51897 346.49979,190.62546 345.55902,190.35313C344.88495,190.158 344.00729,189.54373 343.67752,188.76263C343.30908,187.88992 343.04932,187.15361 342.52704,186.40514C342.03674,185.70247 341.73102,184.84785 341.72568,183.97714C341.72134,183.26915 341.95251,182.2592 341.72119,181.33864C341.50229,180.46753 340.96024,179.96196 340.70435,179.11981C340.46683,178.33813 339.52771,177.98747 338.61237,177.60381C337.79749,177.26225 337.40744,176.46901 337.07837,175.70547C336.68607,174.79524 336.81799,173.9874 336.55637,173.28781C336.17239,172.26108 335.32037,171.90094 334.61237,171.31981C333.95648,170.78145 333.80966,169.85347 333.2897,169.11981C332.73187,168.33272 332.21298,167.74042 331.68402,167.01981C331.17236,166.32274 330.4288,166.11864 329.66937,165.81981C328.64798,165.41791 327.70551,165.04802 327.21237,164.54913C326.509,163.83755 326.25418,162.98459 325.84171,162.20247C325.43231,161.42618 324.8493,160.81258 324.29501,160.00647C323.73148,159.18694 323.78363,158.1942 323.70486,157.51981C323.58899,156.52773 322.92557,155.87033 322.74652,154.99898C322.55261,154.05527 322.81146,153.30139 322.37302,152.27248C322.08566,151.59811 321.74478,150.69511 321.72702,150.0038C321.69943,148.93082 322.00793,147.97025 321.71503,147.13048C321.4519,146.37614 320.75787,145.80692 320.73019,145.11081C320.68304,143.92523 320.72568,143.17697 320.72568,142.27698C320.72568,141.31981 320.72568,140.4198 320.72568,139.51981C320.72568,138.7198 320.72568,137.81981 320.72568,136.8838C320.72568,136.03447 320.72568,135.30914 320.72568,134.12114C320.72568,133.3558 320.81854,132.40025 320.72568,131.51981C320.63986,130.70631 319.84891,130.14409 319.20837,129.7198C318.35046,129.15154 317.78656,128.42592 317.72568,127.51981C317.67203,126.7216 317.6467,125.83121 317.22568,124.99897C316.82602,124.20892 316.78302,123.33481 316.30035,122.57047C315.87863,121.90265 315.73038,121.16797 315.72568,120.15581C315.72134,119.2243 315.3082,118.53642 314.72568,118.01981C314.12302,117.48534 313.30688,117.10335 312.80969,116.32114C312.34476,115.58968 311.62799,115.10487 311.15103,114.45847C310.61713,113.73488 310.65704,112.91048 309.87503,112.15581C309.35272,111.65176 308.5722,111.08401 308.07837,110.40997C307.58813,109.74085 307.72336,108.89097 307.36853,107.92431C307.08456,107.15067 306.34961,106.31069 306.08286,105.70998C305.67834,104.79904 305.90964,103.94455 305.39236,102.85314C305.11618,102.27045 304.37387,101.77164 303.61237,101.0358L303.17236,100.34514L302.80969,99.40647L302.50436,98.64114" id="svg_1" stroke-width="3" stroke="#000" fill="none"/>
  <path t="6546,8210,8217,8225,8226,8226,8234,8234,8329,8338,8338,8345,8356,8513,8513,8522,8529,8530,8539,8540,8557,8557,8557,8562,8562,8577,8578,8578,8841,8841,8850,8857,8857,8865,8866,8874,8874,8874,8882,8882,8890,8891,9129,9129,9138,9145,9145,9157,9161,9173,9173,9177,9188,9188,9188,9193" d="M213.72569,107.51981C216.31503,107.51981 217.15651,107.48264 218.05902,107.68647C218.98872,107.89645 219.70674,108.22575 220.58269,108.39831C221.5128,108.58154 222.36169,108.51981 223.37836,108.51981C224.07303,108.51981 225.09816,108.39857 226.0257,108.52431C226.84705,108.63566 227.49409,109.36462 228.36169,109.50914C229.19957,109.64871 230.1458,109.51694 231.12569,109.8038C231.7377,109.98297 232.72308,110.36878 233.5257,110.49448C234.32341,110.6194 235.33452,110.85734 236.12569,111.2243C236.9352,111.59978 237.70985,112.0442 238.3257,112.23447C239.3015,112.53596 240.24036,112.51913 241.22569,112.51981C242.04703,112.52036 242.90495,112.42953 243.84303,112.52248C244.7072,112.6081 245.4937,113.08781 246.22569,113.51981C246.95769,113.95181 247.92076,114.40837 248.6937,114.60247C249.49411,114.80347 250.26273,114.95887 251.39236,115.51981C252.07971,115.86111 252.87624,116.27253 253.72569,116.68647C254.37796,117.00432 255.23836,117.48708 255.74652,118.04064C256.33618,118.68299 257.06424,119.20485 257.97302,119.46714C258.8811,119.72923 259.55103,119.9558 260.2417,120.32114L261.08969,120.90914" id="svg_2" stroke-width="3" stroke="#000" fill="none"/>
  <path t="10283,10433,10449,10449,10466,10481,10482,10625,10641,10650,10705,10713,10713,10722,10738,10757,10761,10761,10777,10864,10880,10880,10896,10896,10912,10921,10937,10937,10945,10968,10969,10976,10988,10992,10992,11003,11003,11008,11017,11017,11024,11024,11032,11040,11040,11040,11048,11048,11056,11056,11072,11088,11088,11096,11112,11120,11121,11121,11128,11137,11137,11144,11153,11153,11160,11176,11187,11187,11192,11203,11204,11208,11217,11224,11224,11232,11240,11240,11240,11248,11249,11256,11257,11272,11272,11288,11288,11288,11296,11296,11296,11312,11320,11328,11337,11337,11344,11344,11353,11353,11360,11360,11360,11370,11370,11376,11392,11403,11417,11432,11448,11448,11448,11464,11464,11472,11488,11881,11889,11897,11898,11906,11913,11914,11922,11922,11929,11930,11944,12080,12089,12089,12097,12106,12106,12113,12114,12114,12123,12123,12139,12153,12209,12225,12321,12329,12329,12345,12355,12355,12361,12372,12377,12387,12387,12392,12392,12403,12404,12408,12408,12417,12417,12497,12513,12513,12523,12523,12529,12540,12541,12557,12561,12561,12561,13249,13265,13265,13273,13281,13290,13297,13320,13320,13433,13449,13465,13466,13473,13481,13490,13520,13520,13528,13528,13536,13552,13569,13586,13600,13616,13624,13632,13632,13640,13761,13771,13793,13793,13818,13819,13834,13841,13850,13865,13880,13888,13912,13912,13920,13937,13937,13944,13969,13969,13985,13993,14000,14008,14024,14024,14032,14032,14040,14048,14056,14056,14064,14072,14072,14089,14104,14104,14104,14112,14216,14216,14224,14232,14232,14248,14259,14259,14273,14280,14289,14289,14296,14304,14312,14320,14321,14338,14344,14344,14353,14360,14360,14376,14376,14376,14388,14392,14392,14401,14408,14408,14417,14424,14432,14449,14449,14457,14465,14465,14473,14481,14490,14490,14497,14497,14505,14523,14529,14529,14529,14545,14545,14561,14561,14561,14571,14589,14589,14593,14593,14593,14609,14609,14618,14625,14633,14633,14641,14641,14641,14649,14649,14649,14649,14657,14657,14665,14665,14665,14666,14673,14673,14681,14690,14697,14697,14705,14921,14930,14930,14939,14946,14947,14956,14957,14962,14962,14977,14977,14993,14993,15002,15017,15017,15025,15081,15089,15098,15107,15225,15234,15234,15241,15250,15258,15258,15259,15265,15265,15274,15275,15290,15290,15297,15298,15313,15521,15530,15530,15538,15539,15546,15547,15556,15557,15562,15562,15563,15571,15571,15585,15586,15586" d="M117.72569,118.51981C116.74653,119.54064 116.72569,120.49831 116.72569,121.31847C116.72569,122.27697 116.72569,123.17247 116.72569,123.86714C116.72569,124.8838 116.72569,125.81981 116.72569,126.7198C116.72569,127.6198 116.72569,128.51981 116.72569,129.31981C116.72569,130.2198 116.72569,131.11981 116.72569,132.04063C116.72569,133.0038 116.72569,133.69447 116.72569,134.76263C116.72569,135.61981 116.72569,136.51981 116.72569,137.27698C116.72569,138.17247 116.72012,139.03583 116.72569,139.99898C116.73103,140.91985 117.11375,141.66559 117.4417,142.40514C117.83275,143.28699 117.91676,144.39014 118.61236,144.51714C119.52537,144.68382 120.37369,144.83559 121.05903,145.51981C121.52328,145.98331 122.54755,146.42633 123.31503,146.50914C124.24121,146.60907 125.21709,146.44923 125.90036,146.5558C126.86125,146.70567 127.44258,147.42209 128.14702,147.90913C128.98135,148.48599 129.73656,148.42419 130.72035,148.57248C131.58937,148.70346 132.30148,149.21887 133.20969,149.43448C134.05336,149.63477 135.14151,149.40546 135.92569,149.8038C136.58487,150.13866 137.42567,150.51755 138.26736,150.51981C139.26836,150.52248 139.97636,150.51981 140.95769,150.51981C141.91136,150.51981 142.82587,150.51981 143.61102,150.51981C144.55103,150.51981 145.55902,150.51981 146.31503,150.51981C147.22569,150.51981 148.13635,150.51981 149.04703,150.51981C149.90036,150.51981 150.84036,150.51981 151.72569,150.51981C152.5257,150.51981 153.42569,150.51981 154.36169,150.51981C155.20969,150.51981 156.07303,150.51981 156.97752,150.51981C158.05902,150.51981 158.73103,150.51981 159.47502,150.51981C160.58286,150.51981 161.47386,150.51981 162.38286,150.51981C163.13019,150.51981 164.13007,150.4653 164.92569,150.5558C165.93637,150.67076 166.73497,151.05925 167.41103,151.23581C168.39494,151.49277 169.20468,151.50827 169.95636,151.51848C171.05359,151.53337 172.0257,151.51981 172.92703,151.51981C173.89236,151.51981 174.60428,151.32751 175.55902,151.68648C176.39725,152.00163 176.743,152.90501 177.26736,153.49898C177.9613,154.285 178.72713,154.45288 179.72035,154.5108C180.58127,154.561 181.52303,154.51981 182.42569,154.51981C183.3257,154.51981 184.22569,154.51756 185.12569,154.51981C186.03021,154.52206 186.89162,154.68843 187.56169,154.94514C188.32617,155.23804 189.31995,155.48984 190.24036,155.51848C191.08928,155.54491 192.04715,155.32591 192.92436,155.52113C193.7356,155.70166 194.29199,156.4731 195.07753,156.5153C196.08824,156.56963 196.93668,156.46458 197.69637,156.60513C198.74829,156.79974 199.50241,157.0714 200.39236,157.51981C201.07771,157.86511 201.92267,158.4771 202.8257,158.51981C203.72469,158.56233 204.53606,158.41972 205.36169,158.5558C206.23598,158.69991 206.95758,159.15442 207.89236,159.35313C208.66487,159.51736 209.50296,159.39003 210.58269,159.74113C211.34682,159.98962 212.22551,160.50938 213.12569,160.51981C214.02563,160.53021 214.92569,160.51981 215.8257,160.51981C216.72569,160.51981 217.5257,160.51915 218.36169,160.51981C219.20836,160.52048 220.25435,160.51337 220.74036,161.13048C221.28813,161.82602 221.92558,162.45293 222.89236,162.51981C223.72475,162.57738 224.59541,162.81825 225.08969,163.37047C225.77969,164.14136 226.49065,164.54587 227.38286,164.87247C228.13724,165.14862 229.12186,165.46745 229.88969,165.50914C230.83902,165.56067 231.73857,165.42662 232.48286,165.57697C233.40858,165.76395 234.08328,166.20906 234.96852,166.81531C235.73479,167.34009 236.42569,167.51746 237.39769,167.51981C238.26836,167.52191 238.98849,167.43414 239.95769,167.60513C240.93306,167.77721 241.71309,168.43477 242.5257,168.51848C243.42096,168.61069 244.39218,168.20461 245.20486,168.54063C245.94742,168.84767 246.58675,169.48932 247.24303,169.51848C248.27867,169.5645 248.75418,170.32028 249.43553,170.81531C250.17159,171.35008 251.13333,171.23962 252.02119,171.52431C252.79292,171.77174 252.91151,172.85803 253.24652,173.51981C253.68068,174.37744 254.37674,174.989 255.11502,175.49448C255.77969,175.94955 256.33527,176.52187 256.77835,177.2243C257.26526,177.9962 257.4343,179.09459 258.17236,179.48381C258.94653,179.89207 260.15958,179.22171 260.65369,179.95581C261.13782,180.67505 260.72568,181.72115 260.72568,182.68648C260.72568,183.51981 260.72568,184.35313 260.72568,185.2153C260.72568,186.11981 260.72568,187.01981 260.72568,187.9198C260.72568,188.81981 260.72568,189.7198 260.72568,190.61981C260.72568,191.51981 260.89951,192.29492 260.70435,193.33447C260.53693,194.22623 259.52548,194.19934 258.83554,194.87697C258.25522,195.44693 257.95114,196.15755 257.33636,196.9198C256.73578,197.66447 256.36453,198.42033 255.52435,198.52113C254.55194,198.6378 253.76042,198.77681 253.05902,199.51981C252.49138,200.12112 251.92436,200.51674 250.96852,200.51981C250.07303,200.52267 249.29167,200.39699 248.36169,200.95581C247.63307,201.39365 247.1286,202.08946 246.31503,202.50514C245.40756,202.96881 244.9449,203.42793 244.20969,203.95181C243.40521,204.52505 242.51408,204.79195 241.92569,205.32114C241.18999,205.9828 240.40936,206.44812 239.55103,206.50914C238.61331,206.57579 237.7556,206.73436 237.12569,207.09447C236.26149,207.5885 235.42195,207.87291 234.72569,208.51981C234.12242,209.08031 233.28508,209.25461 232.43019,209.52431C231.66283,209.7664 231.53717,210.86186 230.83902,211.23447C229.97974,211.69307 228.88785,211.67787 228.24652,212.01981C227.41972,212.46062 226.6377,212.97171 226.20486,213.54063C225.57642,214.36667 224.892,214.87079 224.20969,215.31847C223.47357,215.80144 222.63332,216.45769 221.92569,216.51848C220.97203,216.60042 220.05249,216.40126 219.20969,216.60513C218.32169,216.81995 217.44612,217.30867 216.80836,217.8038C216.1815,218.29047 215.48775,218.40807 214.48286,218.87247C213.66875,219.2487 212.89313,219.33003 212.0257,219.57697C211.25113,219.79745 210.58099,220.55965 209.90036,220.90913C208.92053,221.41226 208.11633,221.34811 207.22569,221.54063C206.37509,221.7245 205.56683,222.40282 204.88969,222.48381C204.129,222.5748 203.12119,222.51981 202.26852,222.51981C201.30452,222.51981 200.51103,222.51981 199.49503,222.51981C198.53552,222.51981 197.55028,222.43207 196.90036,222.54114C195.85974,222.71577 195.44841,223.47298 194.84169,223.95181C194.00647,224.61098 193.20969,224.51846 192.13635,224.51981C191.20486,224.52097 190.40402,224.51981 189.47902,224.51981C188.55902,224.51981 187.76852,224.51981 186.91502,224.51981C185.72569,224.51981 185.12703,224.51981 184.24652,224.51981C183.41103,224.51981 182.40605,224.48125 181.46436,224.5558C180.3878,224.64104 179.75566,224.79077 179.08569,224.95581C178.08267,225.2029 177.21208,225.49326 176.43369,225.90913C175.50845,226.40347 174.62569,226.51981 173.72569,226.51981C172.92569,226.51981 172.01721,226.42114 171.20486,226.54063C170.21703,226.68594 169.56276,227.12871 168.61102,227.43581C167.73535,227.71835 167.11818,228.17307 166.40436,228.61964C165.58084,229.13484 164.73682,229.35806 163.97302,229.57248C163.05827,229.82928 162.37801,230.22377 161.47836,230.81531C160.84145,231.23409 159.89957,231.46608 158.89236,231.51981C158.08647,231.56279 157.66519,232.30484 156.92436,232.51848C156.03137,232.776 156.10396,233.7757 155.44035,234.34914C154.73616,234.95766 153.51175,234.63762 153.08286,235.2243C152.52765,235.98376 152.04297,236.50528 151.18303,236.51997C150.22562,236.53633 149.46019,236.50566 148.53552,236.87247C147.80861,237.16083 146.88127,237.44641 146.12436,237.60381C145.11493,237.81371 144.36331,238.19504 143.61102,238.71848C142.90773,239.20782 142.02571,239.51755 141.20486,239.51981C140.2417,239.52245 139.37682,239.56825 138.47386,239.5153C137.75307,239.47304 136.71062,239.18961 135.97636,238.90913C135.04543,238.55353 134.33144,238.16321 133.72569,237.35313C133.26086,236.73151 132.89609,235.94008 132.06853,235.27248C131.54686,234.85164 130.52586,234.19847 129.93636,233.69447L129.38286,233.17247" id="svg_3" stroke-width="3" stroke="#000" fill="none"/>
  <path t="16529,16721,16729,16729,16730,16730,16738,16746,16755,16761,16761,16772,16786,16793,16793,16825,16840,16849,16849,16865,16873,16897,16905,16905,16937,16937,16937,16953,16953,16970,16970,16993,16993,17001,17008,17009,17017,17017,17017,17024,17033,17033,17040,17040,17057,17057,17065,17065,17073,17089,17097,17097,17105,17105,17123,17123,17242,17250,17250,17265,17274,17274,17281,17290,17297,17297,17297,17305,17313,17322,17329,17329,17339,17339,17345,17361" d="M101.72569,190.51981C101.72569,192.2278 101.72569,193.28381 101.72569,193.87781C101.72569,194.84381 101.72569,195.4678 101.72569,196.81181C101.72569,197.7198 101.72569,198.61981 101.72569,199.51981C101.72569,200.31981 101.72569,201.2198 101.72569,202.04063C101.72569,203.0038 101.72569,203.69447 101.72569,204.76263C101.72569,205.7198 101.72569,206.61981 101.72569,207.31981C101.72569,208.2198 101.97109,208.95766 102.55903,209.68648C103.12255,210.38504 103.39112,211.16322 103.82552,212.06247C104.15825,212.75122 104.40472,213.50558 104.64169,214.55048C104.80324,215.26279 105.04076,216.19518 105.43019,216.86714C105.96944,217.79759 106.52536,218.3188 107.22569,219.01981C107.82558,219.62027 108.35646,220.16109 109.04703,220.84097C109.72063,221.50417 110.28217,221.88696 111.20486,222.51981C111.96236,223.03935 112.27358,223.74048 112.82569,224.49831C113.37621,225.25395 114.06676,225.79134 114.5257,226.40514C115.1881,227.29108 115.48528,228.0103 116.32569,228.53447C117.09287,229.01297 117.68919,229.56104 118.36169,230.11981C119.01419,230.66196 119.75685,230.97173 120.70419,231.61964C121.33743,232.05273 122.22359,232.38228 122.82569,232.96248C123.44904,233.56316 123.97108,234.2592 124.82569,234.74113C125.46665,235.10258 126.32933,235.45033 127.14703,235.53047C128.06786,235.62071 128.9929,235.89369 129.66319,236.2243C130.5125,236.64322 131.08141,237.49121 131.92703,237.51981C132.89182,237.55243 133.72569,237.54063 134.55902,237.68648L135.31503,238.09447L136.12569,238.48381L137.0257,238.51981" id="svg_4" stroke-width="3" stroke="#000" fill="none"/>
  <path t="18417,18658,18658,18666,18666,18674,18684,18684,18695,18707,18722,18722,18842,18850,18850,18857,18866,18882,18891,18891,18986,18994,19003,19010,19017,19025,19033,19041,19049,19065,19073,19089,19089,19089,19113,19113,19122,19122,19129,19153,19153,19161,19177,19193,19208,19224,19233,19233,19345,19354,19355,19362,19373,19373,19393,19409,19409,19425,19433,19529,19538,19557" d="M107.72569,189.51981C109.73103,189.51981 110.47503,189.51981 111.5827,189.51981C112.41669,189.51981 113.36169,189.51981 114.20969,189.51981C115.07303,189.51981 115.96853,189.51981 116.92569,189.51981C117.82586,189.51981 118.61416,189.45305 119.55103,189.53047C120.56757,189.61447 121.16474,190.05315 121.67303,190.81531C122.13383,191.50626 122.68347,192.06223 122.72703,193.00247C122.76449,193.81104 123.3221,194.51991 123.77836,195.2243C124.27045,195.98401 125.09103,196.37199 125.67303,196.87247C126.3184,197.42743 126.55432,198.15092 126.74653,199.01981C126.93307,199.8631 127.96944,200.1747 128.60452,200.7413C129.27719,201.34143 129.78133,201.99745 130.24303,202.40514C131.03461,203.1041 131.36055,203.91121 132.0257,204.76263C132.48596,205.35179 133.21098,206.0349 133.8257,206.61964C134.41202,207.17738 135.31728,207.52611 135.77837,208.2243C136.27718,208.97961 137.1823,209.29878 137.70036,209.95581C138.21057,210.60286 138.59038,211.34091 139.55103,211.48381C140.54869,211.63222 141.43672,211.53899 141.77837,212.28148C142.17017,213.133 142.33704,213.92715 143.12569,214.45847C143.94887,215.01303 144.44839,215.41138 145.22569,215.99898C145.9633,216.55658 146.92436,216.52113 147.67302,216.87247L148.17236,217.48381" id="svg_5" stroke-width="3" stroke="#000" fill="none"/>
  <path t="20316,20393,20402,20402,20402,20409,20409,20410,20418,20418,20425,20425,20433,20441,20441,20449,20457,20545,20561,20573,20589,20589,20601,20657,20657,20673,20674,20681,20682,20690,20690,20697,20707,20728,20737,20754,20754,20771,20881,20906,20906,20924,20939,20947,20961,20980,20980,21369,21377,21388,21393,21394,21394,21402,21402,21402,21409,21410,21417,21425,21425,21433,21441,21441,21449,21449,21456,21465,21465,21473,21473,21481,21481,21489,21489,21489,21497,21497,21497,21505,21513,21523,21523,21539,21539,21641,21641,21649,21673,21673,21691,21697,21698,21698,21707,21707,21713,21728,21729,21865" d="M128.72569,198.51981C129.76736,198.51981 130.72569,198.51981 131.53636,198.51981C132.41103,198.51981 133.4097,198.51981 134.22569,198.51981C135.04169,198.51981 136.03903,198.51981 136.87903,198.51981C137.84169,198.51981 138.6097,198.51981 139.55103,198.51981C140.55902,198.51981 141.31503,198.51981 142.22569,198.51981C143.12569,198.51981 144.0257,198.51981 144.92569,198.51981C145.8257,198.51981 146.72569,198.51981 147.5257,198.51981C148.48286,198.51981 149.38286,198.52031 150.13019,198.51981C151.12569,198.51913 151.94685,198.57452 152.92552,198.29831C153.72899,198.07155 154.53055,197.47882 155.20486,197.04063C155.99536,196.52695 157.02089,196.67572 157.67302,196.16714C158.29547,195.68172 159.07663,195.70531 159.86436,195.48381C160.78859,195.22392 161.4671,194.51988 161.6897,193.65848C161.85405,193.02245 161.72029,191.93045 161.72569,191.01981C161.73103,190.11977 162.16803,189.408 162.55902,188.51981C162.84853,187.86217 162.6736,186.86832 161.92436,186.43581C161.18889,186.01125 160.39577,185.66194 159.46436,185.54514C158.67619,185.4463 157.62108,185.36539 156.97237,185.07314C156.17168,184.71242 155.54602,183.82208 155.0302,183.22964C154.39665,182.502 153.66249,182.04959 153.12569,181.37047C152.56271,180.65825 151.72639,180.35213 151.08969,179.90913C150.24263,179.31979 149.56473,178.91679 148.61102,178.60381C147.73677,178.31688 147.11324,177.87372 146.2417,177.31981C145.56808,176.89169 144.75575,176.40831 144.10036,175.9198C143.41295,175.40742 142.67897,175.00778 142.03903,174.63448C141.03624,174.0495 140.48494,173.74232 139.79269,173.17247C138.93068,172.46286 138.4532,171.75056 137.62552,171.29831C137.04437,170.98076 136.23532,170.33064 135.55103,169.9198C134.73941,169.43253 134.0782,168.97395 133.43019,168.2198C132.785,167.46893 132.64613,166.71716 132.20486,165.97813C131.73045,165.18361 131.31332,164.2766 131.08286,163.52515C130.82074,162.67049 130.73019,161.82881 130.72569,160.8838L130.72569,160.03581L130.72569,159.17247L130.72569,158.15581" id="svg_6" stroke-width="3" stroke="#000" fill="none"/>
  <path t="23305,23425,23441,23457,23474,23481,23489,23489,23496,23496,23505,23520,23520,23528,23536,23544,23553,23560,23561,23576,23576,23592,23592,23608,23617,23617,23897,23897,23905,23906,23913,23913,23922,23922,23923,23929,23929,23929,23939,23940,23946,23956,23977,23977,23977,23986" d="M160.72569,147.51981C160.72569,149.31981 160.37079,150.31244 160.76169,151.0838C161.11548,151.78192 161.75504,152.28964 162.07835,153.17697C162.35338,153.93176 162.5284,154.94334 162.75102,155.64781C163.02773,156.52341 163.97887,157.05992 164.28969,157.70514C164.72044,158.5993 165.06203,159.37158 165.70036,159.94514C166.30139,160.4852 166.9913,161.05717 167.28969,161.74113C167.70068,162.68324 167.57019,163.54666 167.94702,164.49831C168.25407,165.27373 168.63893,166.11948 169.29503,166.7198C169.8369,167.21562 170.76012,168.13376 171.52435,168.06381C172.26503,167.99602 172.52234,166.93103 172.66853,165.9153C172.79024,165.06973 172.72569,164.09831 172.72569,163.28381C172.72569,162.4153 172.72569,161.22014 172.72569,160.6288C172.72569,159.79181 172.72569,158.66281 172.72569,157.82881C172.72569,156.9198 172.72569,156.09846 172.72569,155.18648L172.72569,154.26913L172.72569,153.52515L172.72569,152.49048" id="svg_7" stroke-width="3" stroke="#000" fill="none"/>
  <path t="24995,25177,25187,25193,25193,25207,25218,25218,25218,25233,25249,25264,25265,25280,25312,25322,25329,25338,25553,25571,25577,25577,25593,25593" d="M207.72569,157.51981C208.37303,158.2243 208.71527,159.04047 208.72569,160.0038C208.73503,160.8671 208.58952,161.83211 209.05902,162.68648C209.46237,163.42049 210.23543,163.75772 210.61136,164.76263C210.91435,165.57259 210.72569,166.51981 210.72569,167.31981C210.72569,168.2198 210.72029,169.11983 210.72569,170.01981C210.73103,170.90918 211.24631,171.5152 212.22569,171.51981C213.12573,171.52405 213.92436,171.23314 214.44035,170.63313L214.6897,169.69447L214.72437,169.0038" id="svg_8" stroke-width="3" stroke="#000" fill="none"/>
  <path t="26218,26394,26404,26404,26409,26409,26409,26418,26418,26433,26434,26449,26457,26465,26474,26489" d="M182.72569,146.51981C183.70036,148.34514 183.85117,149.37671 184.24652,150.01981C184.77293,150.87608 185.2289,151.53899 185.5257,152.12114C186.03116,153.11255 186.39798,153.88127 186.92436,154.63448C187.41516,155.33676 187.72119,156.2198 187.76169,157.0838L188.4417,157.60381L188.72437,158.32114L188.72569,159.2198" id="svg_9" stroke-width="3" stroke="#000" fill="none"/>
  <path t="28314,28393,28404,28404,28404,28409,28409,28409,28422,28422,28422,28422,28426,28426,28426,28432,28432,28432,28441,28441,28441,28448,28448,28456,28456,28464,28472,28472,28480,28488,28496,28496,28504,28504,28512,28512,28520,28520,28520,28528,28528,28528,28536" d="M118.72569,142.51981C119.74653,142.56148 120.72314,142.94646 121.24653,143.56148C121.71201,144.10844 122.49255,144.92413 122.98702,145.33047C123.50844,145.75897 124.57189,146.67477 125.04036,147.20247C125.50267,147.72324 126.07445,148.55486 126.72569,149.18648C127.47569,149.91386 128.15704,150.22659 128.92552,150.84148C129.5419,151.33466 130.13103,151.94287 130.70419,152.94081C131.13885,153.69762 131.21729,154.62326 131.92703,155.26514C132.49223,155.77629 133.61934,155.84729 134.15636,156.32114C134.91449,156.9901 135.35202,157.64415 136.02036,158.2198C136.73512,158.83545 137.29163,159.43401 138.0302,159.87697C138.65726,160.25305 139.56824,160.89146 140.2417,161.31981C140.99353,161.798 141.4912,162.32442 142.21103,163.28781C142.56813,163.76573 143.13019,164.51447 143.92552,165.3768L144.51503,165.84781L145.06853,166.2108L145.96852,166.81981" id="svg_10" stroke-width="3" stroke="#000" fill="none"/>
  <path t="32371,32505,32505,32514,32514,32514,32521,32521,32521,32530,32530,32530,32530,32538,32538,32538,32538,32545,32545,32554,32554,32561,32570,32570,32577,32587,32587,32587,32593,32594,32609,32617,32625,32633,32649,32657,32673,32673,32689,32689,32697,32697,32809,32818,32818,32825,32834,32842,32849,32865,32873,32881,32889,32897,32905,33497,33497,33505,33505,33514,33522,33522,33522,33530,33530,33530,33530,33537,33537,33537,33537,33537,33537,33546,33546,33546,33546,33546,33554,33554,33554,33561,33562,33562,33562,33570,33570,33570,33578,33578,33657,33657,33666,33690,33690,33697,33698,33705,33713,33737,33753,33770,33777,33787,33793,33841,33849,33865,33873,33881,33889,33889,34137,34154,34155,34162,34162,34172,34178,34178,34185,34186,34193,34193,34193,34201,34201,34201,34209,34209,34209,34217,34217,34225,34225,34241,34241,34241,34249,34249,34249,34263,34264,34267,34267,34273,34273,34281,34281,34281,34289,34289,34289,34297,34298,34305,34314,34314,34329,34339,34347,34347,34347,34353,34353,34354,34372,34372,34378,34378,34379,34387,34395,34395,34413,34465,34465,34473,34481,34481,34488,34489" d="M362.72568,176.51981C363.59769,176.97714 364.37122,177.45114 365.12436,178.28781C365.53979,178.74931 366.04721,179.53059 366.70453,180.3773C367.22983,181.05394 367.70078,181.56854 368.26852,182.28397C368.74036,182.87852 369.24136,183.54471 369.77753,184.21898C370.55161,185.19243 371.01578,185.77164 371.70486,186.45731C372.30377,187.05325 373.12552,187.63263 373.88968,188.10915C374.70541,188.61784 375.35287,189.08366 375.92435,189.7198C376.60678,190.47948 376.73468,191.24631 377.24652,192.04063C377.78177,192.87128 378.19812,193.55765 378.61102,194.03581C379.29965,194.8333 380.13104,195.12949 380.70486,196.01981C381.18317,196.76192 381.38052,197.7636 381.94702,198.39847C382.48248,198.99858 383.26834,199.37996 383.82553,199.96265C384.43069,200.5955 384.67737,201.63264 384.72437,202.40381C384.78162,203.34348 384.65872,204.12044 385.24652,204.99898C385.79672,205.82135 386.57086,206.28635 386.71503,207.11981C386.86844,208.0067 386.54449,209.15936 387.24652,209.49898C388.11005,209.91672 388.3439,210.23891 388.76736,210.99898C389.16266,211.70847 390.27353,211.79503 390.89236,212.35313C391.61401,213.004 392.20407,213.3452 392.55902,214.35313C392.81812,215.08885 393.13214,215.97163 393.89236,216.51981C394.54123,216.98767 395.20963,217.30566 396.14752,218.06264C396.70563,218.51309 397.27032,219.06349 397.94452,219.57164C399.03152,220.39095 399.46469,220.60507 400.32654,221.07164C400.76392,221.30843 401.66415,221.74207 402.47235,222.28914C403.25165,222.81665 403.88852,223.47237 404.42834,224.15981C404.94681,224.82004 405.32867,225.54807 406.14719,226.25548C406.89804,226.90442 407.54944,227.09691 408.72568,227.68648C409.33142,227.9901 409.91565,228.34415 410.76852,228.86714C411.55957,229.35222 412.26358,229.77208 413.12119,230.2153C413.92102,230.62866 414.73331,230.97414 415.55902,231.51981C416.22995,231.96318 417.15195,232.30911 417.82553,232.96265C418.32172,233.44406 418.32401,234.68675 418.89502,235.23314C419.52991,235.84065 420.49371,236.00595 421.16168,236.49448C421.92291,237.05119 422.98505,236.99644 423.55902,237.68648C424.10248,238.33983 424.04068,239.26936 424.64169,239.8038C425.28775,240.37828 426.0567,240.70665 426.55902,241.51981C427.0307,242.28339 427.45294,242.88564 427.75104,243.66914C428.06586,244.49661 429.04703,244.51981 429.90036,244.51981C430.84171,244.51981 431.61282,244.45296 432.55103,244.53047C433.56757,244.61447 434.164,245.08707 434.92834,245.71848C435.51114,246.19992 436.49475,246.45795 437.26736,246.49898C438.12738,246.54465 439.02551,246.51981 439.91504,246.51981C440.76852,246.51981 441.80505,246.49466 442.48969,246.53047C443.32657,246.57425 444.31299,246.90958 445.1257,247.16714C446.11365,247.48026 446.96164,247.51447 447.89236,247.51981C448.67834,247.52431 449.50037,247.51645 450.55902,247.51981C451.26852,247.52206 452.14548,247.48856 453.12436,247.80515C453.91562,248.06105 454.65448,248.69852 455.35101,249.0838C456.16525,249.53419 456.98151,249.49648 458.14703,249.74113C458.9588,249.91154 459.48874,250.14778 460.55902,250.35313C461.48196,250.53023 462.32437,250.51913 463.3212,250.51981C464.06851,250.52031 465.14151,250.40546 465.92569,250.8038C466.58487,251.13866 467.43079,251.44482 468.26736,251.54063C469.28183,251.65681 470.00729,251.91974 470.77753,252.28148C471.83585,252.77853 472.24484,253.20085 472.91504,253.65848C473.89355,254.32664 474.74014,254.43376 475.72568,254.68648C476.53027,254.89279 477.21664,255.34177 478.10037,255.48381C479.03571,255.63416 479.90036,255.51981 480.84036,255.51981C481.72568,255.51981 482.50287,255.64761 483.24652,256.01981C484.18536,256.48969 484.93637,256.50912 485.92554,256.51981L486.70486,256.51981" id="svg_11" stroke-width="3" stroke="#000" fill="none"/>
  <path t="41481,41593,41618,41618,41625,41633,41633,41649,41665,41674,41681,41681,41689,41689,41696,41696,41704,41705,41705,41712,41712,41712,41720,41720,41736,41737,41737,41744,41744,41752,41776,41824,41832,41840,41848,41856,41856,41856,41864,41864,41864,41872,41872,41872,41880,41881,41888,41896,41904,41904,41912,41928,41928,41976,41976,41985,41985,41992,42000,42008,42008,42017,42017,42024,42024,42032,42032,42033,42040,42040,42048,42048,42048,42056,42064,42072,42080,42080,42088,42088,42097,42097,42112,42112,42123,42130,42152,42152,42155,42155,42178,42178,42178,42185,42185,42185,42195,42195,42200,42200,42208,42220,42220,42225,42225,42233,42233,42241,42256,42257,42265,42265,42272,42281,42289,42289,42296,42297,42304,42304,42312,42312,42320,42320,42336,42344,42344,42352,42361,42361,42369,42376,42389,42389,42401,42401,42401,42423,42423,42425,42425,42432,42440,42449,42449,42464,42472,42480,42481,42488,42488,42496,42497,42504,42505,42512,42528,42528,42537,42544,42553,42569,42569,42576,42592,42592,42602,42608,42608,42619,42632,42633,42640" d="M368.72568,198.51981C369.57635,199.9198 370.54703,200.46721 370.71671,201.2198C370.92258,202.13293 370.72568,203.0038 370.72568,203.86714C370.72568,204.8838 370.72568,205.7198 370.72568,206.61981C370.72568,207.51981 370.60284,208.37975 369.86435,208.9198C369.24417,209.37334 368.34949,209.94194 367.75635,210.40514C366.9682,211.02061 366.45642,211.34492 365.67386,211.9243C364.88419,212.50894 364.20486,213.13158 363.57236,213.64781C362.76825,214.30409 361.90717,214.53526 360.9577,214.80515C360.21805,215.0154 359.46161,215.26361 358.54004,215.81531C357.90381,216.19618 357.34094,216.83119 356.55902,217.35313C355.85217,217.82497 354.90799,217.75189 354.72552,218.61964C354.5589,219.41214 353.67807,219.82144 353.32568,220.40247C352.85938,221.17133 352.52487,222.20351 352.22568,223.01981C352.02515,223.56694 351.68399,224.62857 351.20486,225.47813C350.87869,226.05649 350.0199,226.69035 349.43552,227.2153C348.65924,227.91263 348.03104,228.52567 347.77835,229.22964C347.50168,230.00047 347.2016,230.99596 346.6257,231.61998C346.02228,232.27383 345.53647,233.01016 345.1257,233.69447C344.63852,234.50604 343.9328,235.16795 343.74652,236.01981C343.55188,236.90997 343.49734,237.8383 343.22568,238.51981C342.83713,239.49452 342.75555,240.27309 342.72119,241.18147C342.69089,241.98264 342.53156,242.9489 342.2897,243.73447C342.04822,244.51881 341.5614,245.57997 341.08969,246.13448C340.45193,246.88419 339.83975,247.28766 339.29501,248.03581C338.71637,248.83052 338.8327,249.82635 338.72437,250.7198C338.61279,251.63977 338.06323,252.12216 337.52704,253.0038C337.12103,253.67139 336.86017,254.64861 336.64169,255.40381C336.36343,256.36569 336.06866,257.05518 335.72568,257.99896C335.41992,258.8403 334.69302,259.49033 334.22568,260.04065C333.57803,260.80328 333.22153,261.53854 332.72568,262.51981C332.42316,263.11853 332.03378,263.92389 331.62552,264.71982C331.21298,265.52402 330.88452,266.15497 330.2417,266.91714C329.59348,267.6857 328.70905,267.95139 328.08737,268.62515C327.52628,269.23325 327.63742,270.4028 327.20486,270.99896C326.62323,271.80063 326.00537,272.25427 325.77835,273.17249C325.56857,274.021 325.27368,274.86969 324.62585,275.61996C324.06882,276.26511 324.00876,277.24603 323.64169,277.95047C323.23715,278.72681 322.2843,278.91476 321.62585,279.61996C321.04416,280.24298 320.96536,281.27039 320.55869,281.80997C319.91061,282.6698 318.81055,282.28018 318.09003,282.96265C317.48825,283.53262 317.48593,284.67136 316.92435,285.31848C316.36819,285.95932 315.53207,286.54672 315.08286,287.21982C314.59171,287.95578 314.09937,288.64417 313.43103,289.21982C312.71625,289.83548 312.20508,290.34457 311.4212,290.88599C310.89447,291.24982 310.24081,292.28717 309.90036,292.77048C309.37698,293.51349 308.76993,294.39648 308.24652,294.97815C307.55472,295.74695 307.08963,296.29144 306.32568,296.90915C305.5809,297.51135 304.4971,297.6272 304.08286,298.2243C303.53555,299.01324 303.78986,300.11368 303.15768,300.71982C302.64835,301.20819 301.82938,301.82703 301.64304,302.49048C301.35443,303.51797 301.2489,304.37692 300.55902,305.01981C299.87656,305.65579 298.96286,305.84131 298.50436,306.61981C298.13092,307.25388 297.73456,308.13785 297.30035,308.9198C296.84476,309.7403 296.48828,310.47617 296.07837,311.21982C295.64709,312.00223 295.48486,312.83331 295.15103,313.69446C294.78973,314.6265 294.9021,315.55905 294.64035,316.31979C294.37213,317.09937 293.52704,317.71982 293.01102,318.31979L292.73019,319.21982" id="svg_12" stroke-width="3" stroke="#000" fill="none"/>
  <path t="43778,43929,43939,43945,43945,43945,43953,43953,43953,43961,43961,43969,43970,43970,43977,43977,43988,43993,44004,44004,44009,44022,44022,44022,44025,44035,44035,44049,44056,44056,44064,44064,44072,44072,44080,44080,44088,44088,44096,44096,44096,44096,44104,44104,44120,44128,44128,44128,44136,44136,44153,44153,44160,44160,44169,44169,44169,44176,44176,44176,44185,44192,44192,44202,44202,44203,44208,44208,44208,44208,44219,44219,44224,44224,44235,44240,44240,44256,44256,44264,44265,44272,44272,44280,44280,44280,44288,44296,44296,44304,44304,44312,44312,44320,44320,44320,44329,44329,44336,44337,44344,44344,44355,44355,44355,44360,44361,44371,44371,44371,44377,44377,44377,44384,44385,44396,44396,44404,44405,44409,44409,44417,44417,44417,44424,44425,44425,44434,44442,44443,44451,44451,44451,44462,44462,44466,44473,44473,44473,44484,44484,44490,44490,44496,44497,44497,44497,44505,44515,44522,44522,44528,44528,44536,44537,44544,44553,44553,44569,44569,44576" d="M397.72568,224.51981C397.66852,226.2198 397.12546,227.0264 396.89236,227.85313C396.63763,228.75662 396.74454,229.586 396.50418,230.59831C396.33826,231.29715 395.9187,232.11568 395.5257,232.92114C395.11984,233.75296 394.71234,234.68156 394.43021,235.46797C394.14828,236.25378 393.83313,237.17783 393.74652,237.97813C393.64514,238.91486 393.52371,239.82707 392.72568,240.35313C392.06635,240.78777 391.7944,241.576 391.55902,242.51981C391.358,243.32576 391.23584,244.14485 390.74036,244.87314C390.21338,245.64774 389.28793,245.39587 388.36169,245.95581C387.63422,246.39558 387.15027,247.14542 386.4212,247.81981C385.85858,248.34024 385.02933,248.76346 384.37836,249.27698C383.54855,249.93156 383.31204,250.56461 382.62537,251.49847C382.22073,252.04878 381.39584,252.6913 380.72037,253.17247C379.9801,253.6998 379.46143,253.99533 378.54004,254.76263C377.90494,255.29155 377.315,255.93045 376.55902,256.68646C376.07303,257.17249 375.55103,257.69446 374.74719,258.49829C374.13635,259.10913 373.52487,259.72165 372.96854,260.27698C372.24103,261.00314 371.78265,261.62589 370.72568,262.18646C370.15866,262.48718 369.26697,262.51544 368.32703,263.08914C367.69928,263.47229 367.21039,264.0365 366.36169,264.88382C365.72519,265.51932 365.2189,266.07986 364.39236,266.51981C363.73547,266.86945 362.90515,267.12219 361.72568,267.51981C361.12875,267.72104 360.24991,267.97836 359.49637,268.31979C358.50977,268.76685 358.01123,269.27448 357.07303,269.81531C356.40015,270.20319 355.45877,270.39706 354.55902,270.68646C353.88159,270.90436 352.90573,271.53873 352.36169,271.90915C351.54346,272.46628 350.81271,272.65167 350.06851,273.22964C349.49219,273.67722 348.53333,274.50995 347.93637,274.88382C347.21973,275.33267 346.40591,276.02579 345.55902,276.35315C344.92853,276.59686 343.85599,276.81827 343.36169,277.37048C342.67169,278.14136 342.04697,278.50803 341.18301,278.7413C340.46884,278.93414 339.70251,279.16849 338.69504,279.71848C337.95438,280.1228 337.03241,280.34726 336.37836,280.62964C335.383,281.05936 335.14325,281.7731 334.40436,282.71964C333.92709,283.33099 333.40457,283.88971 332.60837,284.63446C332.08109,285.12766 331.18768,285.63162 330.46436,285.9198C329.67889,286.23273 328.64246,286.60922 327.9617,286.9198C327.32562,287.20999 326.31281,287.6937 325.56171,288.11981C324.73032,288.59146 324.12509,289.15683 323.2417,289.71982C322.56863,290.14877 321.76318,290.64294 321.20486,291.01981C320.41412,291.55353 319.44827,291.87805 318.73102,292.27698C317.83047,292.77786 317.40982,293.35355 316.92834,294.0358C316.3299,294.88382 315.54419,295.29636 314.72568,295.54065C313.87286,295.79517 313.39911,296.42148 312.84171,297.03714C312.13449,297.81827 311.44543,298.22485 310.76569,298.9198C310.0715,299.62952 309.44876,299.93835 308.72653,300.16263C307.70837,300.47882 306.8822,300.65128 306.30435,301.40247C305.8754,301.96008 305.18777,302.94501 304.72485,303.46799C304.25119,304.00311 303.52438,304.71222 302.98035,305.54782C302.44836,306.3649 301.65552,306.80923 301.24652,307.54065C300.81393,308.31424 300.68176,309.28879 300.01587,309.81979C299.42447,310.29141 298.34958,310.72293 297.89236,311.51981C297.51544,312.1767 296.89236,312.85315 296.70035,313.66913L296.30035,314.45847" id="svg_13" stroke-width="3" stroke="#000" fill="none"/>
  <path t="45689,45840,45857,45857,45865,45865,45865,45872,45881,45889,45889,45896,45896,45904,45912,45912,45920,45920,45920,45920,45928,45928,45936,45936,45936,45944,45944,45944,45944,45953,45953,46008,46008,46016,46024,46024,46034,46034,46048,46064,46064,46072,46072,46080,46088,46088,46104,46104,46112,46120,46128,46128,46128,46137,46137,46137,46144,46144,46153,46153,46168,46176,46176,46176,46184,46192,46192,46201,46201,46208,46218,46288,46288,46289,46297,46297,46312" d="M450.72568,257.51981C450.72568,259.34515 450.72568,260.35315 450.72568,261.18115C450.72568,262.06247 450.72568,263.01981 450.72568,263.7518C450.72568,264.70547 450.72568,265.72113 450.72568,266.68646C450.72568,267.34515 450.72568,268.35315 450.72568,269.2153C450.72568,270.11981 450.72568,270.96246 450.72568,271.66113C450.72568,272.8558 450.72568,273.62112 450.72568,274.41849C450.72568,275.18381 450.72568,276.38113 450.72568,277.14914C450.72568,278.06296 450.72568,278.80246 450.72568,279.68597C450.72568,280.68646 450.72568,281.76346 450.72568,282.47815C450.72568,283.1528 450.72382,284.25546 450.72568,285.12381C450.72794,286.17249 450.70993,286.89444 451.07837,287.76715C451.48187,288.72284 451.70767,289.34467 451.72568,290.35315C451.74106,291.21518 451.72568,292.15579 451.72568,293.00513C451.72568,293.73047 451.72568,294.71964 451.72568,295.68381C451.72568,296.63446 451.72568,297.51981 451.72568,298.27698C451.72568,299.17249 451.72568,300.0358 451.72568,300.99896C451.72568,301.94113 451.72568,302.85315 451.72568,303.52963C451.72568,304.30515 451.70053,305.59915 451.73636,306.28381C451.78015,307.12067 452.03345,308.14032 452.43021,308.86264C452.8714,309.66589 453.57047,310.28781 453.71503,311.1918C453.85254,312.05161 453.64005,312.78259 453.81104,313.7518C453.98312,314.72717 454.63773,315.50714 454.72119,316.27698C454.81772,317.16727 454.55328,318.05515 454.74652,318.99896C454.92496,319.87045 455.6087,320.67865 455.6897,321.3558C455.78067,322.11649 455.72568,323.1153 455.72568,324.03448L455.72568,324.99896" id="svg_14" stroke-width="3" stroke="#000" fill="none"/>
  <path t="47049,47168,47168,47177,47177,47177,47185,47185,47185,47193,47193,47193,47203,47203,47209,47209,47209,47222,47223,47226,47226,47239,47240,47242,47242,47242,47249,47249,47256,47256,47264,47264,47264,47272,47280,47288,47288,47288,47296,47296,47304,47304,47320,47321,47328,47336,47336,47344,47360,47360,47370,47370,47376,47385,47386,47392,47392,47402,47408,47408,47420,47420,47424,47433,47433,47440,47449,47456,47456,47464,47472,47504,47504,47512,47512,47528" d="M472.72568,259.51981C472.73636,261.36649 472.77271,262.21494 473.01102,263.20514C473.21414,264.0491 473.43143,264.6239 473.82553,265.81964C474.02179,266.4151 474.33667,267.27307 474.55902,268.35315C474.70392,269.05701 474.7175,269.9313 475.0097,270.9198C475.25101,271.73605 475.60892,272.71915 475.72568,273.51981C475.81311,274.11932 476.0632,275.12863 476.43021,275.9198C476.80566,276.72916 477.31653,277.4613 477.60419,278.49863C477.78897,279.16495 477.72568,280.28915 477.72568,281.04065C477.72568,281.83713 477.63895,282.84143 477.76169,283.67313C477.90701,284.65787 478.46225,285.30911 478.64035,286.28781C478.77191,287.01077 478.71997,287.7518 478.72568,288.84781C478.73077,289.82434 479.04443,290.69821 479.58704,291.3558C480.06491,291.93497 480.75906,292.68832 481.18402,293.49896C481.61716,294.3252 481.6933,295.14572 481.72702,296.00381C481.76099,296.86826 482.22244,297.68851 482.55902,298.51981C482.8656,299.27698 482.72568,300.15579 482.72568,301.17697C482.72568,301.92432 482.72568,302.91849 482.72568,303.68381C482.72568,304.76263 482.63287,305.63571 482.81104,306.40515C483.03653,307.379 483.55936,308.01166 483.70486,309.01981C483.82224,309.83298 483.72568,310.69446 483.72568,311.6358C483.72568,312.40381 483.72568,313.34515 483.72568,314.35315C483.72568,315.2153 483.72568,316.11981 483.72568,316.93048C483.72568,317.84113 483.72568,318.69446 483.72568,319.63446C483.72568,320.61981 483.72568,321.51981 483.72568,322.27698L483.72568,323.17249L483.72568,324.0358L483.72568,324.99896" id="svg_15" stroke-width="3" stroke="#000" fill="none"/>
  <path t="49706,49841,49841,49841,49850,49850,49850,49850,49857,49857,49857,49857,49857,49865,49865,49865,49866,49874,49874,49874,49882,49882,49882,49882,49889,49889,49889,49897,49897,49905,49905,49905,49913,49913,49921,49929,49929,49937,49937,49945,49954,49954,49961,49961,49971,49971,49971,49977,49977,49987,49993,50010,50010,50010,50019,50019,50025,50025,50034,50044,50044,50044,50050,50050,50051,50051,50057,50065,50065,50065,50073,50073,50073,50081,50081,50081,50081,50089,50089,50089,50089,50089,50097,50098,50098,50098,50098,50108,50108,50108,50109,50109,50114,50114,50114,50115,50124,50125,50125,50125,50125,50125,50129,50129,50129,50129,50129,50138,50138,50138,50139,50139,50139,50145,50146,50146,50146,50146,50146,50157,50157,50157,50157,50157,50157,50158,50161,50161,50161,50161,50161,50171,50171,50171,50171,50177,50177,50177,50187,50187,50193,50193,50204,50218,50225,50225,50241,50249,50249,50257,50265,50265,50281,50281,50297,50305,50305,50313,50313,50321,50321,50329,50329,50337,50337,50345,50345,50354,50354,50362,50362,50371,50371,50371,50377,50377,50377,50387,50393,50393,50404,50404,50409,50418,50418,50425,50425,50425,50433,50441,50441,50449,50449,50457,50457,50457,50457,50465,50473,50473,50481,50481,50489,50489,50505,50505,50505,50521,50522,50529,50545,50545" d="M137.72569,242.51981C139.49503,243.37447 140.24982,244.05811 140.77753,244.57614C141.56395,245.34814 142.05873,245.82024 142.70486,246.54063C143.13367,247.01872 143.93498,248.15715 144.3257,248.82964C144.73552,249.53502 144.92043,249.90804 145.3257,250.63715C145.91785,251.70244 146.51466,252.67337 146.88969,253.27313C147.24001,253.83336 147.82692,254.84557 148.24652,255.51981C148.67868,256.21423 149.2491,256.95901 149.98703,257.73447C150.49789,258.2713 151.01598,258.78534 152.03903,259.55048C152.66814,260.02097 153.30493,260.34494 153.97302,261.17697C154.53787,261.88043 155.03281,262.73209 155.55103,263.30914C156.05937,263.87521 156.76822,264.72617 157.42119,265.15814C158.17986,265.66006 159.04347,265.96683 159.72569,266.51981C160.55473,267.1918 161.26552,267.54626 161.78703,268.13046C162.41949,268.83896 163.13168,269.22208 163.70436,269.84113C164.28551,270.46933 164.89101,271.3548 165.54036,271.89447C166.15508,272.40536 166.37206,273.27298 166.80836,273.95047C167.30389,274.71991 168.4072,274.52118 169.21103,275.08914C169.78308,275.49335 170.29778,276.07904 171.3212,276.76263C171.87482,277.13242 172.78889,277.79544 173.42119,278.16263C174.21544,278.62387 175.27135,278.73248 175.9977,278.95581C176.83788,279.21414 177.72784,279.51349 178.6167,279.81979C179.18542,280.01578 179.96188,280.30673 180.91586,280.81531C181.89961,281.33978 182.57184,281.5 183.41235,281.51846C184.41211,281.54044 185.26878,281.52148 185.88736,281.57697C187.25146,281.69934 187.98309,281.86285 188.72569,282.06146C189.47829,282.26273 190.56517,282.67352 191.24303,283.00381C191.91739,283.3324 192.57491,283.72083 193.29503,284.0358C194.45065,284.54126 195.3331,284.77219 196.24652,284.99896C196.70985,285.11398 197.6438,285.315 199.0042,285.61963C199.44061,285.71735 200.28761,285.91928 201.11502,286.0838C201.92245,286.24435 203.12485,286.41254 203.93019,286.46265C204.74576,286.5134 205.58286,286.5166 206.89236,286.51981C207.81102,286.52206 208.28299,286.51755 209.24652,286.54065C209.73645,286.5524 210.72975,286.57788 212.22569,286.7413C212.72678,286.79605 213.72627,286.95242 214.22569,287.04065C215.22691,287.21753 216.72569,287.51981 217.22569,287.61981C218.22569,287.81979 218.72569,287.9198 219.72569,288.11981C220.22569,288.21982 221.72598,288.51837 222.72836,288.72113C223.23485,288.82358 224.26772,289.03903 224.7977,289.15579C225.34039,289.27533 227.05954,289.68442 227.66803,289.84113C228.29158,290.00171 229.55539,290.34384 230.18402,290.51981C230.80339,290.69318 231.40787,290.8609 233.05902,291.35315C233.54041,291.49667 234.40479,291.75751 235.16319,292.01981C235.868,292.26355 237.24727,292.84006 237.97386,293.16797C238.70528,293.49805 239.39801,293.86002 240.39236,294.18646C241.19896,294.45126 241.92516,294.45007 242.92552,294.7413C243.7271,294.97464 244.53055,295.56076 245.20486,295.99896C245.99536,296.51266 246.92569,296.51981 247.82587,296.51981C248.61102,296.51981 249.58922,296.37045 250.55902,296.68646C251.25006,296.91162 252.04646,297.41101 252.89236,297.68646C253.74579,297.96439 254.54973,298.41437 255.42119,298.51532C256.32059,298.61951 257.00415,298.9263 257.69635,299.32114C258.69232,299.88925 259.46521,300.11981 260.39236,300.35315C261.17691,300.5506 262.01218,300.90158 262.61102,301.32114C263.3616,301.84705 264.1196,302.20432 265.12436,302.43713C265.883,302.61292 266.8667,303.0697 267.31503,303.70514C267.85895,304.47607 268.36526,305.16898 269.26852,305.61981C269.96518,305.96753 270.78424,306.20285 271.55902,306.51981C272.48755,306.89966 273.24426,307.31216 273.96854,307.81531C274.73129,308.34518 275.56738,308.65457 276.1257,309.37048C276.55966,309.92691 277.40878,310.4921 278.03018,311.23413C278.41913,311.69858 279.04309,312.72281 279.54034,313.30914C280.01233,313.86566 280.47318,314.86981 281.05902,315.51981C281.62817,316.15125 282.61298,316.45944 283.22568,317.06146C283.96393,317.78687 284.38309,318.5191 284.70486,319.01981C285.16983,319.74332 285.48877,320.76212 285.9472,321.61996C286.33154,322.33917 286.91077,323.0127 287.32568,323.69446C287.9064,324.64865 288.35904,325.14777 289.04703,325.84113C289.72305,326.5224 290.2417,327.0358 290.96854,327.76263C291.52435,328.31848 292.22568,329.01981 292.82553,329.61981L293.36853,330.21982" id="svg_16" stroke-width="3" stroke="#000" fill="none"/>
  <path t="52314,52497,52497,52505,52514,52529,52545" d="M108.72569,189.51981C107.72569,189.51981 106.92569,189.51981 106.0257,189.51981L105.12569,189.51981L104.22569,189.51981L103.32569,189.51981" id="svg_17" stroke-width="3" stroke="#000" fill="none"/>
  <path t="54251,54507,54514,54514,54522,54522,54522,54532,54532,54532" d="M130.72569,155.51981C131.33636,156.16647 131.90833,157.01669 132.36169,157.73047C132.87166,158.53334 133.37386,159.11981 133.86436,159.7198L134.48303,160.71997L134.67502,161.33047L134.89369,162.20514" id="svg_18" stroke-width="3" stroke="#000" fill="none"/>
  <path t="57603,57786,57786,57794,57794,57794,57804,57804,57804,57810,57811,57811,57824,57824,57828,57835,57841,57849,57849,57857,57857,57865,57889,57890,57897,57906,58242,58250,58258,58258,58267,58267,58275,58275,58275,58275,58282,58282,58282,58282,58282,58289,58289,58289,58297,58297,58297,58305,58305,58313,58313,58313,58329,58329" d="M216.72569,104.51981C216.72569,107.12431 216.72569,107.97697 216.72569,108.94131C216.72569,109.75581 216.72569,110.62431 216.72569,111.81964C216.72569,112.41531 216.72569,113.28381 216.72569,114.35314C216.72569,115.28381 216.72569,116.11847 216.72569,117.1153C216.72569,117.86264 216.72569,118.76264 216.72569,119.7198C216.72569,120.6198 216.72569,121.51981 216.72569,122.27697C216.72569,123.17247 216.72569,124.0358 216.72569,125.01981C216.72569,126.00381 216.48734,126.72256 216.73019,127.75814C216.91054,128.52715 217.59393,129.23534 218.26736,129.49898C219.1463,129.84308 219.93636,129.51981 220.92586,129.51981C221.74652,129.51981 222.89236,129.51981 223.69186,129.51981C224.28819,129.51981 225.2977,129.51981 226.46835,129.51981C227.33102,129.51981 227.77635,129.51981 228.67502,129.51981C229.55769,129.51981 230.78253,129.51981 231.50687,129.51981C232.46835,129.51981 233.55902,129.51981 234.26852,129.51981C235.12119,129.51981 236.12703,129.51981 236.96169,129.51981C237.89236,129.51981 238.67386,129.51981 239.46436,129.51981L240.58269,129.51981L241.41669,129.51981" id="svg_19" stroke-width="3" stroke="#000" fill="none"/>
  <path t="60708,60721,60722,60729,60729,60737,60738,60746,60755,60772,60772,60977,60977,60977,60986,60986,60990,60990,60993,61003,61004,61009,61009,61018,61018,61018,61024,61024,61194,61194,61204,61204,61211,61220,61220,61226,61226,61234,61246,61252,61260,61260,61265,61266,61281,61281,61306,61306,61328,61337,61353,61369,61392,61416,61416,61481,61482,61506,61514,61522,61538,61554,61561,61570,61577,61593,61594,61603,61625,61635,61641,61641,61657,61657,61680,61680,61689,61697,61705,61728,61729,61736,61737,61745,61745,61753,61753,61753,61761,61761,61768,61769,61776,61776,61785,61785,61801,61801,61801,61808,61808,61824,61835,61840,61851,61858,61873,61874" d="M128.72569,109.51981C129.78819,109.16714 130.71143,108.81512 131.58286,108.6413C132.46416,108.46552 133.37836,108.51981 134.2417,108.51981C135.20486,108.51981 136.0302,108.51981 137.0472,108.51981C137.74652,108.51981 138.72569,108.51981 139.5257,108.51981C140.3257,108.51981 141.3257,108.51981 142.12569,108.51981C143.12303,108.51981 144.04158,108.36079 144.89369,108.60514C145.64972,108.82195 146.32382,109.33035 147.33018,109.81981C147.95891,110.12559 148.89178,110.5213 149.67386,110.81981C150.46378,111.12132 151.3717,111.5567 152.20486,111.99897C153.02811,112.43597 154.09224,112.36741 154.55502,113.08914C154.98631,113.76176 154.63658,114.78867 154.89236,115.68647C155.13829,116.54965 155.62024,117.34385 155.72119,118.21531C155.82538,119.11469 156.31483,119.83774 156.60419,120.6198C156.91931,121.47154 156.73238,122.2954 157.08286,123.17697C157.38731,123.94278 157.94484,124.90901 158.20486,125.49897C158.6389,126.48373 158.72502,127.31847 158.72569,128.2198C158.72635,129.11981 158.72569,130.01981 158.72569,130.9198C158.72569,131.82431 158.72569,132.68648 158.72569,133.51981C158.72569,134.49831 158.72569,135.31847 158.72569,136.2198C158.72569,137.11981 158.77107,138.08058 158.11502,138.54514C157.39659,139.05386 156.9662,139.82353 156.4417,140.43581C155.87779,141.09407 155.14091,141.36607 154.37386,141.57248C153.33232,141.85274 152.60394,142.28867 151.72569,142.51981C150.85773,142.74825 150.89516,143.5556 150.72519,144.49814C150.5871,145.26393 149.66423,145.48631 148.72653,145.5153C147.69817,145.5471 147.17947,145.96892 146.43903,146.43448C145.69055,146.90509 144.68509,146.39758 143.74702,146.74113C143.05507,146.99455 142.24159,147.46831 141.47902,147.50914C140.30615,147.57195 139.51103,147.51981 138.73552,147.51981C137.69502,147.51981 136.97752,147.51981 136.06853,147.51981C135.3212,147.51981 134.3257,147.51981 133.5257,147.51981C132.5257,147.51981 131.72569,147.51981 130.72569,147.51981C129.92569,147.51981 129.12569,147.51981 128.13019,147.51981C127.21103,147.51981 126.24653,147.51749 125.32569,147.51981C124.43018,147.52206 123.75102,147.94514 123.18403,148.49898L122.24036,148.51981L121.51502,148.51981" id="svg_20" stroke-width="3" stroke="#000" fill="none"/>
 </g>
</svg>