<svg width="500" height="333.3333333333333" xmlns="http://www.w3.org/2000/svg" xmlns:svg="http://www.w3.org/2000/svg" xmlns:xlink="http://www.w3.org/1999/xlink">
 <!-- Created with SVG-edit - http://svg-edit.googlecode.com/ -->
 <g display="inline" class="layer">
  <title>Layer 1</title>
  <path t="0,313,321,322,330,337,360,368,376,417,665,697,745,1041,1041,1065,1066,1089,1098,1099,1105,1105,1114,1137,1585,1633,1681,1713,1713,1753,1782,1826,1856,1866,1913,1945,1968,1968,1984,2009,2025,2049,2067,2077,2077,2092,2160,2160,2201,2201,2224,2248,2248,2257,2265,2288,2289,2312,2320,2344,2376,2385,2408,2408,2481,2505,2505,2505,2537,2561,2593,2617,2617,2625,2633,2649,2657,2737,2769,2777,2928,2959,2967,2999,3047,3104,3119,3119,3151,3151,3167,3191,3223,3239,3247,3271,3271,3287,3319,3328,3343,3375,3384,3399,3431,3432,3439,3447,3464,3471,3479,3495,3495,3504,3519,3528,3544,3567,3599,3599,3624,3663,3703,3751,3761,3767,3767,3815,3847,3847,3895,3927,3928,3968,3968,4007,4007,4039,4047,4048,4055,4079,4112,4151,4151,4207,4215,4247,4271,4271,4312,4335,4351,4383,4416,4416,4432,4479,4535,4535,4623,5015,5039,5176,5184,5192,5265,5281,5282,5305,5385,5425,5449,5490,5712,5713,5737,5825,5857,5881,5905,5905,5929,5953,5953,5977,5977,5994,6097,6128,6129,6137,6176,6193,6225,6265,6266,6281,6337,6369,6393,6433,6441,6473,6713,6721,6740,6740,6762,6785,6817,6817,6841,6873,6881,6912,6913,6961,6977,7033,7041,7097,7105,7137,7177,7209,7233,7242,7242,7249,7265,7274,7433,7457,7473,7473,7505,7505,7568,7608,7689,7705,7729,7801,7801,7824,7848,7872,7905,7993,8001,8033,8033,8056,8417,8425,8434,8444,8445,8450,8458,8458,8473,8481,8488,8489,8705,8977,8977,9201,9513,9537,9593,9617,9617,9618,9640,9664,9673,9704,9705,9752,9969,10001,10097,10105,10114,10144,10152,10152,10167,10192,10192,10208,10593,10594,10594,10609,10649,10689,10689,10729,10745,10745,10761,10816,10848,10864,10872,10881,10881,10888,10888,10897,10897,10905,10928,10944,11000,11001,11009,11025,11057,11089,11089,11097,11098,11137,11169,11169,11177,11225,11257,11288,11312,11320,11344,11344,11376,11384,11415,11416,11416,11440,11465,11521,11521,11545,11553,11578,11586,11593,11633,11641,11656,11672,11721,11721,11736,11745,11745,11777,11801,11825,11881,11921,11953,11977,11977,12017,12041,12057,12104,12121,12153,12153,12168,12176,12216,12249,12280,12297,12297,12313,12344,12345,12376,12385,12449,12449,12513,12536,12537,12561,12593,12624,12625,12641,12673,12674,12697,12729,12745,12745,12755,12786,12807,12808,12816,12840,12856,12879,12904,12904,12961,12977,13009,13024,13024,13057,13089,13090,13137,13138,13153,13168,13175,13207,13232,13232,13248,13288,13313,13336,13360,13385,13417,13418,13432,13433,13473,13521,13568,13584,13585,13600,13633,13672,13689,13689,13737,13761,13761,13785,13786,13801,13809,13832,13847,13848,13872,13881,13904,13927,13944,13944,13960,13976,14008,14008,14016,14032,14041,14057,14080,14080,14096,14112,14113,14120,14144,14160,14160,14176,14191,14192,14216,14224,14247,14264,14305,14321,14322,14345,14345,14401,14401,14432,14456,14457,14513,14545,14545,14593,14593,14624,14625,14632,14665,14761,14786,14833,14833,14849,14861,14862,14897,14936,14961,14962,15002,15016,15022,15054,15080,15081,15120,15121,15136,15153,15177,15178,15185,15201,15224,15247,15281,15306,15313,15345,15346,15368,15399,15433,15448,15504,15505,15512,15513,15529,15576,15577,15592,15641,15642,15657,15697,15712,15713,15745,15761,15800,15849,15865,15865,15953,17537,17538,17545,17649,17650,17681,17785,17785,17881,17913,17913,17944,18057,18081,18233,18241,18256,18257,18353,18409,18449,18497,18537,18553,18561,18584,18609,18641,18657,18673,18673,18704,18729,18738,18785,18809,18833,18841,18857,18858,18888,18911,18935,19001,19064,19088,19121,19122,19145,19146,19177,19177,19561,19585,19617,19633,19689,19690,19705,19722,19730,19748,19768,19799,19825,19945,20209,20216,20217,20337,20338,20425,20465,20466,20497,20553,20609,20625,20626,20645,20697,20889,20988,20989,21001,21025,21089,21129,21457,21649,21650,21936,21952,21963,21970,21980,21994,22047,22071,22304,22305,22312,22328,22343" d="M216.5,187.66667C218.33333,187.83333 218.5,188.66667 218.5,189.46666C218.5,190.36667 218.5,191.26666 218.5,192.16667C218.5,193.06667 218.5,193.96666 218.5,194.86667C218.5,195.76666 218.93425,196.89908 218.33333,197.5C217.73241,198.10092 216.74176,197.62714 215.84734,197.67117C214.98126,197.71381 214.14857,198.13681 213.33333,198.66667C212.6918,199.08362 211.64243,199.42195 210.91066,199.692C210.06261,200.00497 209.30255,200.72324 208.5,200.66667C207.59625,200.60298 207.5,199.56667 207.5,198.66667C207.5,197.86667 207.5,196.96666 207.5,196.06667C207.5,195.16667 207.5,194.26666 207.5,193.36667C207.5,192.46666 207.5,191.56667 207.5,190.66667C207.5,189.86667 207.48959,188.9666 207.5,188.06667C207.51042,187.16649 208.04318,186.46336 208.37849,185.56667C208.69658,184.71603 208.13564,183.75592 208.55716,183.02383C209.0244,182.21234 209.53384,181.76022 209.85716,181.01401C210.24315,180.12314 210.96252,179.51817 211.33333,178.66667C211.6595,177.91769 211.46288,176.90401 212.02083,176.16667C212.60938,175.38892 213.27205,175.03096 213.88933,174.26666C214.49068,173.52209 214.2428,172.44107 214.72133,171.78799C215.23526,171.08662 215.76605,170.44952 216.30133,169.86667C216.87978,169.2368 217.50687,168.50412 217.89999,167.84134C218.30716,167.15486 218.86304,166.25682 219.69867,165.75067C220.38878,165.33267 220.58475,164.40004 221.30133,163.952C222.09966,163.45285 222.93806,163.50388 223.55267,163.01933C224.20212,162.50734 225.2,162.66667 226.10001,162.66667C227,162.66667 228.14651,162.85118 228.47917,162.14583C228.85429,161.35043 228.5,160.36667 228.5,159.46666C228.5,158.56667 228.5,157.66667 228.5,156.78133C228.5,155.84134 228.5,155.15067 228.5,154.1875C228.5,153.26666 228.5,152.36667 228.5,151.46666C228.5,150.56667 228.5,149.66667 228.5,148.86667C228.5,147.96666 228.5,147.06667 228.5,146.16667C228.5,145.26666 228.5,144.36667 228.5,143.46666C228.5,142.56667 228.5,141.66667 228.5,140.86667C228.5,139.96666 228.49805,139.04706 228.92534,138.26666C229.37572,137.44409 229.31866,136.5132 229.66667,135.66667C229.94257,134.99559 230.48958,134.16685 230.5,133.26666C230.51041,132.36673 230.41788,131.46289 230.50017,130.56667C230.58385,129.65523 231.26117,129.12901 231.47917,128.16667C231.67807,127.28867 231.5,126.36667 231.5,125.46667C231.5,124.56667 231.65265,123.63692 231.44284,122.96667C231.16661,122.08424 230.19937,121.5333 229.85716,120.9095C229.4043,120.08397 229.30783,119.02952 228.7955,118.56133C228.16673,117.98675 227.7894,117.26294 227.30133,116.268C226.92784,115.50662 226.56085,114.69357 226.5,113.66666C226.45267,112.86807 226.43758,112.03259 225.69867,111.58266C224.99489,111.15412 224.16914,110.55872 223.78534,109.86667C223.32808,109.04218 223.57741,107.99907 223.064,107.26667C222.51024,106.47672 221.80162,106.26114 221.02083,105.66666C220.36899,105.17037 220.13411,104.15729 219.3,103.75066C218.54643,103.38329 217.85632,102.96254 217.5,102.16666C217.142,101.36704 216.41069,100.73955 215.936,100.06667C215.41763,99.33186 214.56158,98.26015 214.972,97.70267C215.52258,96.95479 216.8,97.66666 217.7,97.66666C218.60001,97.66666 219.5,97.66666 220.3,97.66666C221.2,97.66666 222.10001,97.66666 223,97.66666C223.89999,97.66666 224.87677,97.85013 225.59984,97.44517C226.33719,97.03222 226.5,96.06673 226.5,95.16666C226.5,94.26661 226.23549,93.2353 225.5,92.83334C224.76434,92.43128 223.88651,92.1763 223.584,91.18267C223.38034,90.51371 223.14345,89.59277 222.784,88.868C222.35651,88.00603 221.96948,87.17586 221.40016,86.56667C220.84763,85.97544 220.50534,85.06671 220.5,84.16666C220.49467,83.26669 220.63655,82.31003 220.216,81.46667C219.88608,80.80502 219.50226,79.96667 219.5,79.06667C219.49776,78.16666 219.5,77.26667 219.5,76.36667C219.5,75.46667 219.41132,74.56229 219.5,73.66666C219.58374,72.82097 220.5004,72.6413 221.3,72.66666C222.20135,72.69526 222.9866,73.20172 223.60001,73.7665C224.2854,74.39757 225.11806,74.65778 225.89999,75.092C226.72046,75.54762 227.638,75.70211 228.14284,76.37117C228.70947,77.12214 229.20448,77.66441 230.10001,77.66666C231,77.66892 231.93483,77.42379 232.7955,77.67117C233.5634,77.89188 234.02068,78.65405 234.89999,78.66666C235.79993,78.67957 236.63835,79.05273 237.3,79.38267C238.14336,79.80321 239.10001,79.66666 240,79.66666C240.89999,79.66666 241.8045,79.66666 242.66667,79.66666C243.5,79.66666 244.4785,79.66666 245.29866,79.66666C246.2,79.66666 247.10002,79.66133 248,79.66666C248.90004,79.672 249.60721,80.11962 250.5,80.5C251.25154,80.8202 252.11734,80.73955 252.584,81.468C253.08395,82.24844 253.89948,82.64799 254.8,82.66666C255.6998,82.68532 256.5365,82.78891 257.20001,83.37117C257.83301,83.92664 258.04251,85.03249 258.7215,85.54517C259.42926,86.07958 260.5,85.66666 261.29999,85.66666C262.13599,85.66666 263.15268,85.66666 263.84732,85.66666C264.86401,85.66666 265.80457,85.67771 266.66666,85.66666C267.47937,85.65625 268.26013,85.09292 269.06934,84.752C269.79428,84.44657 270.74283,84.66657 271.70001,84.66666C272.59982,84.66675 273.53784,84.90963 273.33334,85.83334C273.17953,86.52812 272.67932,87.16958 272.11066,88.03067C271.56656,88.85457 271.71066,89.83279 271.33334,90.66666C271.03745,91.32063 269.93686,91.60086 269.47467,92.27734C268.97549,93.00799 268.81854,93.89902 268.216,94.58266C267.68927,95.18031 267.05765,95.77847 266.66666,96.66666C266.37714,97.3243 266.54416,98.33053 266.21466,99.14933C265.875,99.99336 265.14398,100.47216 264.33334,101C263.63287,101.45612 262.71527,101.84393 262.61884,102.905C262.54626,103.70345 263.71954,103.93012 264.29999,104.468C265.02542,105.14024 265.62363,105.97052 266.29999,106.38133C267.07611,106.85275 267.3808,107.5058 268.02084,108.14584C268.66086,108.78587 269.41394,109.1328 269.7215,109.988C269.9725,110.68599 270.4613,111.5324 271.10001,112.256C271.66592,112.89713 272.13437,113.50106 272.55267,114.36667C272.94818,115.18511 273.87601,115.45116 274.59982,115.88817C275.3233,116.32497 275.56335,117.29187 276.30133,117.75066C277.01065,118.19164 277.63693,118.96855 277.97916,119.66666C278.37772,120.47971 278.45953,121.42415 279.02084,122.16666C279.52365,122.8318 279.93774,123.4907 280.52533,124.23067C281.06296,124.90771 281.30371,125.5025 281.55716,126.36667C281.81448,127.24409 282.29538,128.03951 282.78534,128.86667C283.18866,129.54753 284.02695,129.99156 284.41599,130.868C284.82062,131.77957 284.89532,132.51511 285.30133,133.18266C285.83755,134.06433 286.25076,134.81815 286.66666,135.66667C287.04037,136.42915 287.18024,137.22974 287.51068,138.056C287.82632,138.84528 288.30807,139.39972 288.53601,140.26666C288.76102,141.12248 289.89957,141.20099 290.41467,141.952C290.93436,142.70967 290.62476,143.70097 291.2045,144.36667C291.7576,145.00177 292.28806,145.7999 292.58401,146.46666C292.96478,147.32443 293.38385,148.108 293.784,148.86667C294.23672,149.72505 294.85663,150.27901 295.41599,150.952C295.97202,151.621 296.2197,152.27573 297.10001,152.692C297.90439,153.07236 298.33316,153.87817 298.50015,154.76649C298.64972,155.56224 299.72858,155.77405 300.14282,156.37117C300.69012,157.16011 300.5719,158.0985 301.07468,158.692C301.61148,159.3257 302.04181,160.14697 302.69867,160.86667C303.23215,161.45117 303.45752,162.32655 303.78534,163.14934C304.05637,163.82956 304.95432,164.40379 305.47467,165.10266C305.96722,165.76419 306.30066,166.46733 307,167.16667C307.69934,167.86601 308.43707,168.14792 309.14282,168.71933C309.8735,169.31091 310.53348,169.79135 311.10001,170.27733C311.84326,170.91489 312.38925,171.65714 312.49866,172.46666C312.61945,173.36044 312.94421,174.05898 313.59982,174.76666C314.14978,175.36031 314.39243,176.27512 314.52084,177.1875C314.63586,178.00468 315.07385,178.84166 315.37866,179.645C315.7204,180.54568 316.36484,180.9581 316.50134,181.86667C316.62271,182.67451 317.29514,183.32036 317.47916,184.16667C317.6705,185.04666 317.84976,185.97354 318.5,186.66667C318.97382,187.17174 319.3912,187.98743 319.66666,188.83333C319.94458,189.68675 320.22412,190.53543 320.55267,191.36217C320.89264,192.21759 321.30392,192.98666 321.50134,193.86534C321.67044,194.61809 322.7666,194.75143 323.21466,195.468C323.71384,196.26633 323.48801,197.29187 323.92532,198.06667C324.33517,198.79282 324.94495,199.40558 325.44733,200.02383C326.02078,200.72954 326.30966,201.54663 326.79999,202.31483C327.20697,202.95245 328.07706,203.56638 328.5,204.1875C328.98242,204.89598 329.50098,205.6657 330.10001,206.26666C330.79663,206.96553 330.97665,207.92604 331.66666,208.5C332.32001,209.04349 333.31863,208.7225 334.02084,209.1875C334.84464,209.733 335.53543,210.11188 336.33334,210.66667C336.99048,211.1236 337.20663,212.23862 337.936,212.63066C338.69785,213.04016 339.8118,212.85956 340.21466,213.468C340.75854,214.28946 341.33838,214.46187 342.20001,214.72383C343.08469,214.99278 343.69809,215.86859 344.20001,216.36667C344.89734,217.05869 345.75616,217.44666 346.5,217.83333C347.28326,218.24049 347.8848,218.90865 348.37866,219.76649C348.80316,220.50383 349.66058,220.46851 350.5,220.83333C351.18457,221.13086 351.69739,222.13243 352.5,222.5C353.24271,222.84013 354.0004,222.9344 354.66666,223.5C355.35089,224.08086 356.05237,224.32968 356.79999,224.96217C357.55579,225.60159 358.28076,225.78351 359.10001,226.24133C359.87247,226.673 360.4436,227.24045 361.11066,227.692C361.84747,228.19078 362.56763,228.80396 363.13599,229.26666C363.94159,229.92253 364.70868,230.2157 365.47849,230.76666C366.12039,231.22609 366.80746,231.95924 367.5,232.66667C367.98444,233.16154 368.32175,234.02434 368.78534,234.868C369.12061,235.47812 369.78143,236.33035 370.20001,237.01401C370.67786,237.79446 371.33252,238.43677 371.49551,239.36667C371.65106,240.25404 372.02179,241.01291 372.37866,241.76666C372.78305,242.62073 373.15363,243.22707 373.7955,243.96666C374.37411,244.63336 374.10635,245.59727 374.58533,246.38133C375.07608,247.18471 375.53543,247.80466 376.2045,248.30949C376.95547,248.87613 377.4874,249.37125 377.5,250.26666C377.51266,251.16682 377.88095,251.95372 378.30133,252.552C378.82605,253.29878 379.19064,254.1904 379.47467,255.03067C379.7601,255.87512 380.41498,256.65405 380.49866,257.46667C380.59085,258.36194 380.5,259.26666 380.5,260.16666C380.5,261.06668 380.5,261.96667 380.5,262.86667C380.5,263.76666 380.5,264.66666 380.5,265.46667C380.5,266.36667 380.49472,267.26669 380.5,268.16666C380.50534,269.07739 380.68582,270.00488 381.02084,270.66666C381.45502,271.52429 382.04642,272.11099 382.44733,272.96667C382.85501,273.83682 383.34637,274.43481 383.48932,275.30267C383.65454,276.30588 383.34546,277.02747 383.51068,278.03067C383.65363,278.89853 384.11362,279.78778 384.58401,280.38135C385.16934,281.1199 385.2428,281.89227 385.72134,282.54532C386.23526,283.24667 386.76349,283.88617 387.30133,284.46667C387.87738,285.08841 388.60001,285.76666 389.20001,286.36667C389.79999,286.96667 390.42584,287.75778 391.10001,288.23065C391.84399,288.7525 392.85672,288.81992 393.47916,289.1875C394.31433,289.68069 394.54819,290.78473 395.11066,291.23065C395.87976,291.84039 397.01849,291.55402 397.5,292.1875C398.01755,292.86841 398.43912,293.76053 398.5,294.66666C398.55362,295.46487 398.5,296.36667 398.5,297.26666C398.5,298.16666 398.61264,299.18512 397.97916,299.66666C397.29828,300.1842 396.25687,300.3222 395.62134,300.888C395.021,301.42249 394.29999,301.66666 393.39999,301.66666C392.5,301.66666 391.70001,301.66666 390.79999,301.66666C389.89999,301.66666 389,301.66666 388.10001,301.66666C387.20001,301.66666 386.29999,301.66666 385.39999,301.66666C384.5,301.66666 383.70001,301.66666 382.79999,301.66666C381.89999,301.66666 381,301.66666 380.10001,301.66666C379.20001,301.66666 378.29999,301.66666 377.39984,301.66666C376.61465,301.66666 375.664,301.6684 374.89868,301.66666C373.90451,301.6644 373.11395,301.71246 372.13599,301.24133C371.35754,300.8663 370.54272,300.94867 370.5,301.76666C370.45306,302.66544 370.5,303.46667 370.5,304.36667C370.5,305.26666 370.66281,306.10471 371.14734,306.71933C371.65933,307.36877 371.48959,308.36673 371.5,309.26666C371.51044,310.16684 371.98935,310.89197 372.37866,311.76685C372.70862,312.50833 372.81625,313.34137 373.2045,314.01401C373.74088,314.94327 374.21664,315.71307 374.58401,316.46667C374.99063,317.30075 375.99518,317.46262 376.69867,317.952C377.48331,318.4978 377.0629,319.50424 377.55716,320.30951C378.0097,321.04681 379.00516,321.18222 379.70001,321.86667C380.20377,322.36288 380.88583,323.07813 381.69867,323.58267C382.43506,324.03973 382.97559,324.56137 383.79999,325.01935C384.5423,325.4317 385.29062,325.76685 386,326.16666C386.8782,326.66162 387.3739,327.39227 388.11066,327.65601C388.94803,327.95578 389.89999,327.66599 390.79999,327.66666C391.70001,327.66733 392.59967,327.88815 393.12933,328.46799L392.87866,329.26666L392.2045,329.96667L391.66666,330.66666" id="svg_1" stroke-width="3" stroke="#000" fill="none"/>
  <path t="25337,25425,25440,25458,25465,25465,25480,25488,25496,25496,25544,25560,25626,25634,25643,25682,25697,25713,25713,25730,25746,25754,25794,25834,25873,25882,25914,25914,25953,25961,25970,25986,25986,25994,25994,26010,26018,26033" d="M408.5,327.66666C406.79999,327.66666 405.89999,327.66666 404.97916,327.66666C404.01599,327.66666 403.32535,327.66666 402.25717,327.66666C401.39999,327.66666 400.5,327.66666 399.70001,327.66666C398.79999,327.66666 397.89999,327.66666 397,327.66666C396.10001,327.66666 395.20001,327.66666 394.29999,327.66666C393.39999,327.66666 392.5,327.66666 391.70001,327.66666C390.79999,327.66666 389.89999,327.66666 389,327.66666C388.10001,327.66666 387.20001,327.66666 386.29999,327.66666C385.39999,327.66666 384.49744,327.73056 383.70001,327.66666C382.65665,327.58307 382.27551,326.80804 381.39999,326.6665C380.49646,326.52045 379.89734,326.05869 379.20001,325.36667C378.69809,324.86859 378,324.1875 377.20001,323.72385L376.29999,323.66534" id="svg_2" stroke-width="20" stroke="#fff" fill="none"/>
  <path t="30243,30409,30409,30449,30472,30489,30497,30514,30528,30528,30560,30569,30586,30609,30609,30641,30649,30657,30665,30673,30688,30696,30745,30745,30760,30770,30777,30784,30795,30810,30826,30826,30849,30873,30889,30889,30898,30905,30928,30961,30961,30993,31056,31056,31441,31481,31505,31537,31544,31544,31567,31633,31649,31657,31674,31681,31681,31785,31786,31802,31802,31841,31873,31889,31896,31907,31907,31936,31945,31953,31961,31977,32000,32041,32057,32057,32089,32089,32097,32145,32168,32185,32217,32225,32226,32233,32256,32265,32297,32314,32330,32330,32338,32346,32354,32369,32402,32410,33842,33842,33851,33858,33866,33889,33905,33905,33922,33986,34010,34017,34049,34049,34073,34082,34082,34097,34128,34136,34146,34176,34192,34208,34232,34274,34274,34289,34315,34337,34337,34345,34369,34369,34386,34387,34450,34450,34475,34490,34490,34506,34522,34545,34546,34570,34578,34598,34634,34634,34641,34705,34721,34721,34770,34770,34777,34794,34794,34802,34848,34849,34874,34875,34883,34891,34914,34938,34945,34968,34968,34976,35000,35009,35040,35048,35056,35072,35072,35096,35136,35137,35137,35162,35169,35170,35185,35200,35201,35216,35233,35249,35256,35265,35280,35305,35336,35337,35367,35368,35376,35400,35416,35416,35432,35448,35472,35481,35498,35512,35513,35544,35544,35585,35617,35618,35626,35658,35659,35704,35737,35745,35753,35778,35785,35841,35880,35881,35921,35930,35961,35977,36001,36016,36016,36032,36063,36072,36096,36128,36152,36184,36184,36200,36209,36217,36250,36266,36266,36294,36294,36314,36337,36376,36376,36401,36433,36450,36457,36458,36467,36480,36496,36504,36505,36527,36536,36552,36568,36569,36576,36585,36600,36608,36616,36666,36697,36714,36714,36761,36769,36793,36803,36804,36824,36872,36881,36896,36904,36904,36962,36978,37010,37041,37042,37082,37082,37098,37108,37135,37176,37176,37184,37210,37211,37248,37257,37273,37299,37335,37336,37363,37401,37449,37474,37474,37577,37585,37632,37632,37647,37849,37954,37954,38057,38450,38468,38482,38496,38496,38528,38536,38568,38641,38680,38680,38721,38729,38809,38858,38858,38985,38986,39001,39002,39010,39234,39306,39353,39370,39392,39392,39457,39458,39483,39483,39649,39666,39667,39674,39681,39712,39842,39882,39890,39907,39928,39928,39944,40002,40026,40058,40058,40074,40098,40098,40112,40128,40144,40151,40167,40177,40216,40240,40256,40272,40272,40288,40312,40328,40344,40554,40738,40746,40747,40768,40833,40834,40842,40914,41177,41203,41211,41217,41298,41337,41338,41353,41730,41738,41739,41747,41748,41748,41761,41768,41769,41784,41800,42090,42090,42106,42107,42114,42130,42131,42144,42160,42168,42321,42337,42353,42368" d="M373.5,315.66666C374.5,315.66666 375.29999,315.66666 376.20001,315.66666C377.10001,315.66666 378.013,315.5246 378.89999,315.67734C379.73315,315.8208 380.53448,316.40891 381.29999,316.75067C382.04352,317.08264 382.85834,317.681 383.52084,318.16666C384.1814,318.65088 385.09085,318.32217 385.95834,318.6875C386.68881,318.99512 387.2045,319.71933 388,320.16666C388.7955,320.61401 389.31119,321.33823 390.04166,321.64584C390.90915,322.01117 391.79727,321.71405 392.51468,322.24133C393.11673,322.68384 393.91605,323.0849 394.41599,323.86533C394.88266,324.59378 395.76932,324.47778 396.60001,324.88815C397.29059,325.22931 397.79889,326.25888 398.70001,326.58133C399.45749,326.85239 400.27985,326.78656 401.10001,327.24133C401.8822,327.67508 402.80728,327.86865 403.33334,328.66666C403.76801,329.32602 404.57211,329.50784 405.47849,329.88815C406.14636,330.1684 407.42258,331.04126 407.02802,331.63068C406.51111,332.4028 405.38818,332.10901 404.5,332.5C403.84235,332.78952 402.89999,332.66666 402,332.66666C401.10001,332.66666 400.20001,332.66666 399.29999,332.66666C398.39984,332.66666 397.61465,332.66666 396.664,332.66666C395.89868,332.66666 394.90451,332.66666 393.98532,332.66666C393.02084,332.66666 392.20001,332.66666 391.29999,332.66666C390.39999,332.66666 389.5,332.66666 388.70001,332.66666C387.79999,332.66666 386.89999,332.66666 386,332.66666C385.10001,332.66666 384.20001,332.66666 383.29999,332.66666C382.39999,332.66666 381.5,332.66666 380.61465,332.66666C379.67465,332.66666 378.98401,332.66666 377.91068,332.66666C377.10001,332.66666 376.20001,332.66666 375.29999,332.66666C374.39999,332.66666 373.4996,332.69202 372.70001,332.66666C371.79861,332.63806 371.07761,331.9805 370.20001,331.72385C369.33441,331.47073 368.34573,331.84995 367.5,331.5C366.71536,331.17535 366.10822,330.57718 365.44733,330.01935C364.86078,329.52426 364.07742,328.98111 363.20001,328.72385C362.33453,328.47006 361.27142,328.55927 360.85718,327.96216C360.30988,327.17322 360.64206,326.15366 360.48932,325.26666C360.34586,324.43353 359.58789,323.68033 359.50449,322.96667C359.40002,322.07275 359.54648,321.13327 359.07468,320.26666C358.67593,319.53421 358.37347,318.63477 357.88934,318.06668C357.25415,317.32132 356.58502,316.67926 356.50134,315.86667C356.40915,314.97141 356.5054,314.06665 356.5,313.16666C356.49466,312.27728 355.86868,311.68088 355.47467,311.056C355.00269,310.30746 354.71097,309.41306 354.27866,308.56668C353.94394,307.91138 353.58398,307.00034 353.064,306.26666C352.50616,305.47961 351.85635,304.96704 351.5,304.16666C351.142,303.36252 350.67786,302.79446 350.20001,302.01401C349.78143,301.33035 349.21426,300.41068 348.70001,299.86801C348.01843,299.14874 347.29807,298.4686 346.79999,297.96667C346.10797,297.26932 345.72003,296.41052 345.33334,295.66666C344.92618,294.88342 344.25806,294.28183 343.40018,293.78799C342.66269,293.36346 342.38538,292.4483 341.7955,292.02383C341.0051,291.45508 340.09122,291.23987 339.5,290.66666C338.89081,290.07602 338.20001,289.36667 337.70001,288.86667C337,288.16666 336.19617,287.54303 335.78534,286.86667C335.31393,286.09052 334.67004,285.49881 334.41599,284.78C334.14639,284.01721 333.60251,283.34372 332.936,282.65201C332.34943,282.04321 331.81445,281.24411 331.55716,280.36667C331.30338,279.50122 331.26501,278.70895 330.85266,277.96667C330.39468,277.14227 329.8382,276.62277 329.44733,275.96216C328.98257,275.1767 328.63559,274.35812 328.49866,273.46667C328.358,272.55087 327.75772,272.00177 327.10001,271.25601C326.46161,270.53214 326.13095,269.82248 325.70001,269.15067C325.13913,268.27631 324.41068,267.73953 323.936,267.06668C323.41763,266.33185 323.23215,265.45117 322.69867,264.86667C322.04181,264.14694 321.61151,263.32568 321.07468,262.69199C320.5719,262.09851 320.79614,261.21796 320.48932,260.27734C320.26227,259.58124 319.29578,259.10004 318.89999,258.48132C318.39481,257.69159 317.85803,256.97079 317.5,256.16666C317.14365,255.3663 316.57159,254.57919 315.89999,254.10266C315.17435,253.58777 314.8822,253.05795 314.47916,252.1875C314.14139,251.45804 313.06674,251.26404 312.40018,250.5665C311.9104,250.05397 311.65714,249.16786 311.44733,248.31934C311.22028,247.40112 310.43817,246.71931 310.02084,246.16667C309.46225,245.42697 309.1326,244.51866 308.784,243.86667C308.33093,243.01927 307.81448,242.24409 307.55716,241.36667C307.30371,240.5025 306.8916,239.92786 306.53601,239.23067C306.14301,238.46016 306.23389,237.44957 305.69867,236.86667C305.13046,236.24786 304.71652,235.37296 304.14734,234.71933C303.62787,234.1228 303.16809,233.34259 302.5,232.66667C301.92111,232.08101 300.85599,231.8765 300.52084,231.14583C300.15851,230.35588 299.87384,229.8383 299.2045,229.30949C298.46347,228.72406 298.4454,227.55656 297.88934,227.10266C297.13651,226.48816 296.6705,226.03575 296.47916,225.16667C296.29257,224.31914 295.46741,223.69611 295,223.14583C294.35245,222.38347 294.13495,221.56155 293.40018,220.9095C292.72195,220.30765 292.31009,219.53983 291.7955,218.96666C291.23291,218.34001 290.21011,218.05954 289.62134,217.44516C288.96896,216.76443 288.6658,216.235 287.936,215.64133C287.28696,215.11334 286.99902,214.14682 286.39999,213.56683C285.8186,213.00394 284.87997,212.83716 284,212.64583C283.15369,212.46182 282.36676,211.87862 281.70001,211.58267C280.84222,211.20192 280.16782,210.62497 279.47467,210.092C278.84128,209.60497 277.8808,209.83188 277,209.64583C276.15262,209.46683 275.36676,208.87862 274.70001,208.58267C273.84222,208.20192 273.08746,207.81729 272.20001,207.66217C271.27167,207.49991 270.73138,206.81485 269.79999,206.67117C268.91049,206.53397 267.96524,206.71962 267.20001,206.314C266.35406,205.86559 265.7229,205.54321 264.89999,205.092C264.11987,204.66425 263.13864,204.81232 262.29868,204.38133C261.67929,204.06351 260.79489,203.44614 260.20984,202.96666C259.47784,202.36673 258.965,201.81633 258.10001,201.65601C257.26831,201.50186 256.70001,200.86534 256,200.16667C255.3,199.468 254.73346,198.8215 253.89999,198.67734C253.01311,198.52393 251.98508,198.8687 251.2045,198.30949C250.52316,197.82138 250.58482,196.71696 249.88933,196.10266C249.22246,195.51364 248.3727,195.25778 247.5,194.83333C246.84033,194.51248 246.03163,194.10468 245.2,193.71933C244.32814,193.31534 243.56293,193.18462 242.85716,192.614C242.12608,192.02292 241.53333,191.44608 240.89999,191.092C240.03874,190.61049 238.92831,190.14536 238.209,190.67117C237.77083,190.99147 238.82111,191.78011 239.21466,192.46666C239.63531,193.20049 239.33267,194.27599 239.85716,194.96217C240.43066,195.71249 241.63356,195.70547 242.14284,196.37117C242.66115,197.04868 243.17548,197.58618 243.89999,198.10266C244.68575,198.6628 245.10963,199.30579 245.98399,199.86667C246.65579,200.29761 247.58743,200.66371 248.05333,201.26666C248.66766,202.06172 249.43842,203.07318 249.028,203.63066C248.47742,204.37854 247.19827,203.6123 246.29866,203.668C245.61086,203.71059 244.66087,204.09619 243.89867,204.468C243.09799,204.85857 242.37312,205.35551 241.38533,205.58133C240.51826,205.77954 239.7,205.66667 238.8,205.66667C237.89999,205.66667 237,205.66893 236.10001,205.66667C235.20448,205.66441 234.66051,205.15712 234.14284,204.36667C233.62215,203.57161 232.95779,203.25662 232.11067,202.692C231.49051,202.27866 231.1469,201.36293 230.5,200.66667C229.9395,200.0634 229.62457,199.22083 229.216,198.46666C228.86383,197.81659 228.51266,196.96658 228.5,196.06667C228.48734,195.16652 227.95682,194.46336 227.62151,193.56667C227.30342,192.71603 227.05385,192.11909 226.58533,191.38133C226.14621,190.68987 226.5,189.66667 226.5,188.86667C226.5,187.96666 226.5,187.06667 226.5,186.16667C226.5,185.26666 226.39296,184.36012 226.50133,183.46666C226.61288,182.54686 227.20332,181.96548 227.89999,181.26666C228.59883,180.56566 229.09377,180.08952 230,179.66667C230.79022,179.29796 231.15553,178.42352 231.72133,177.78799C232.25581,177.18764 232.5,176.46666 232.5,175.56667C232.5,174.66667 232.48747,173.81573 231.97917,173.16667C231.379,172.40028 230.44476,171.90906 229.864,172.32401C229.08757,172.87875 228.67574,173.49307 227.98399,174.18266C227.25829,174.90611 226.51187,175.56453 225.8,175.66217C224.90744,175.78459 224.07948,176.08167 223.39999,176.76683C222.88393,177.28722 222.36421,178.1931 221.89999,178.80533C221.27948,179.6237 220.44043,179.95163 219.8,180.314C218.97922,180.77841 218.4485,181.48581 217.69867,181.66533C216.80646,181.87894 216.416,182.468 215.88933,183.26666L215.2,183.96217" id="svg_3" stroke-width="3" stroke="#000" fill="none"/>
  <path t="43404,43618,43618,43626,43642,43658,43658,43706,43706,43731,43739,43745,43794,43812,43836,43842,43850,43866,43906,43914,43914,43939,43946,44010,44018,44026,44042,44050,44050,44065,44065,44065,44093" d="M232.5,177.66667C233.5,176.5 234.0377,175.92177 234.89999,175.70267C235.77753,175.47969 236.66667,175.5 237.5,175.16667C238.33333,174.83333 239.19548,174.66893 240.10001,174.66667C241,174.66443 241.88933,174.65601 242.5,174.16667C243.11067,173.67734 244,173.66667 244.89999,173.66667C245.8,173.66667 246.7,173.66667 247.60001,173.66667C248.5,173.66667 249.3,173.66667 250.2,173.66667C251.10001,173.66667 252,173.66667 252.89999,173.66667C253.8,173.66667 254.70134,173.66667 255.66667,173.66667C256.52084,173.66667 257.5,173.66667 258.28934,173.66667L259.01468,173.66667L260.08932,173.66667" id="svg_4" stroke-width="3" stroke="#000" fill="none"/>
  <path t="45546,45946,46386,46386,46393,46395,46410,46410" d="M217.5,180.66667C217.5,182.42383 217.5,183.32384 217.5,184.07117C217.5,185.06667 217.5,185.86667 217.5,186.8665L217.5,187.64583" id="svg_5" stroke-width="3" stroke="#000" fill="none"/>
  <path t="48795,48953,48962,48962,48971,48971,48978,48978,49003,49003,49003,49010,49065,49082,49082,49090,49098,49105,49112,49113,49127,49169,49170,49196,49210,49250,49250,49276,49362,49362,49370,49434,49443,49459,49459,49475,49475,49483,49538,49546,49547,49554,49578,49666,49674,49700,49738,49753,49754,49826,49826,49842,49850,49850,49913,49914" d="M238.5,192.66667C239.36133,192.66667 240.33333,192.6673 241.12534,192.66667C241.98534,192.666 242.73035,192.71529 243.7,192.44516C244.52283,192.21593 245.49628,191.65904 246.0955,191.37117C246.83833,191.01431 247.87161,190.78392 248.7,190.66533C249.61716,190.53403 250.26686,189.82082 251.10001,189.67734C251.987,189.52458 252.91066,189.66667 253.82133,189.66667C254.67467,189.66667 255.61467,189.66667 256.5,189.66667C257.29999,189.66667 258.21152,189.78127 259.13599,189.63066C260.00803,189.4886 260.6629,189.05775 261.61465,188.75067C262.49036,188.46812 263.20001,188.01933 264,187.66667C264.79999,187.314 265.65897,186.9308 266.5,186.5C267.16434,186.15971 267.79623,185.36287 268.29999,184.86667C268.99484,184.18224 269.89166,183.90154 270.69867,183.38133C271.31201,182.98598 271.37891,181.83109 272.02084,181.1875C272.66006,180.54665 273.48199,180.23123 273.5,179.36667C273.51874,178.46686 273.59033,177.55133 273.41467,176.78133C273.23364,175.98766 272.74997,175.11267 272.20001,174.42383C271.55664,173.618 271,173.16667 270.29999,172.46666L269.70001,171.86667" id="svg_6" stroke-width="3" stroke="#000" fill="none"/>
  <path t="53709,53866,53882,53882,53890,53912,53946,53946,53962,53970,53981,54005,54005,54065,54106,54122,54147,54154,54154,54162,54177,54225,54257,54314,54330,54338,54368,54401,54426,54426,54435,54458,54466,54475,54498,54531,54531,54578,54594,54610,54642,54642,54657,54684,54754,54770,54849,54849,54858,54883,55090,55098,55154,55154,55171,55218,55258,55274,55394,55394,55465,55482,55490,55577,55593" d="M361.5,267.66666C360.58667,267.952 360.82614,268.70331 361.216,269.46667C361.60052,270.21954 361.45807,271.20691 361.784,272.15067C362.02863,272.85898 362.20029,273.90698 362.72134,274.54532C363.26724,275.21408 363.78339,275.74869 364.216,276.46799C364.65744,277.20193 365.11813,277.97702 365.41467,278.86667C365.70056,279.7243 365.5,280.66666 365.5,281.46667C365.5,282.36667 365.71863,283.13318 366.216,283.75067C366.69965,284.3511 366.91769,285.22104 367.37851,285.88815C367.88257,286.61786 367.1232,287.84665 367.66666,288.5C368.24063,289.19003 369.29779,289.32224 369.47916,290.16666C369.66821,291.04684 369.30298,291.98883 369.50134,292.86533C369.68433,293.67383 370.71552,293.93451 371.29999,294.46799C372.01971,295.12488 372.70465,295.54172 373.60001,295.66684C374.50647,295.79349 375.15262,296.46686 376,296.64584C376.8808,296.83188 377.80652,296.55969 378.70001,296.668C379.61978,296.77948 380.15408,297.47653 381.10001,297.65601C381.98428,297.82379 382.90814,297.55017 383.79999,297.67117C384.62134,297.78259 385.31552,298.34512 386.10001,298.69199C386.91803,299.05368 387.69699,299.62393 388.60001,299.66666C389.49899,299.70917 390.29999,299.66666 391.20001,299.66666C392.10001,299.66666 393,299.66666 393.89999,299.66666L394.79999,299.66666" id="svg_7" stroke-width="3" stroke="#000" fill="none"/>
  <path t="57708,57808,57827,57827,57832,57832,57863,57896,57905,57944" d="M371.5,297.66666C371.78665,296.75201 372.67175,296.59305 373.5,296.6875C374.49237,296.80069 375.08932,297.24133 375.89999,297.63068L376.79999,297.66666L377.70001,297.66666L378.60001,297.66666" id="svg_8" stroke-width="3" stroke="#000" fill="none"/>
  <path t="60475,60681,60682,60698,60714,60739,60747,60801,60809" d="M241.5,86.66666C242.5,86.66666 243.27986,86.78655 244.10001,87.24133C244.88222,87.67508 245.69867,87.952 246.33333,88.66666L246.5,89.5L246.55716,90.314" id="svg_9" stroke-width="3" stroke="#000" fill="none"/>
  <path t="66402,66704,66730,66738,66809,66839,66848,66879,66929,66929,66944,66975,66983,67032,67032,67055,67087,67087,67144,67160,67186,67209,67209,67264,67264,67295,67295,67295,67326,67351,67359,67390,67391,67407,67423,67456,67496,67503,67503,67575,67575,67600,67641,67641,67696,67737,67776,67776,68000,68081,68088,68096,68105,68113,68127,68135,68143,68143,68184,68200,68216,68272,68280,68280,68305,68344,68360,68371,68376,68399,68408,68440,68440,68456,68472,68488,68504,68504,68528,68552,68568,68568,68584,68600,68601,68617,68648,68656,68688,68688,68704,68744,69072,69072,69088,69136,69152,69176,69177,69344,69361" d="M196.5,61.66667C193.91066,61.66667 193,61.66667 192.10001,61.66667C191.2,61.66667 190.29138,61.79076 189.40016,61.6665C188.59825,61.55469 188.39262,60.43807 187.7955,60.02383C187.00655,59.47652 185.98689,59.80942 185.10001,59.656C184.26654,59.51183 183.69971,58.86562 183,58.16667C182.39975,57.56708 181.56175,57.18686 180.85716,56.614C180.23904,56.11144 179.59959,55.6187 178.84283,55.3095C178.07996,54.9978 177.10001,54.46667 176.5,54.16667C175.5,53.66667 174.92365,53.32658 174.15717,53.02383C173.16795,52.63311 172.67165,52.04052 172.14284,51.37117C171.55739,50.63012 170.55031,50.75148 169.936,50.056C169.34697,49.38911 169.2195,48.26325 168.5,47.83333C167.72954,47.37296 167.4752,46.75562 167.064,45.84134C166.7435,45.12875 166.20313,44.42093 165.5,43.66667C164.93849,43.06433 164.63451,42.25679 164.4955,41.36667C164.3676,40.54768 163.43312,40.04115 163.12134,39.27733C162.89458,38.72183 164.10001,38.66667 165,38.66667C165.89999,38.66667 166.8,38.66667 167.7,38.66667C168.60001,38.66667 169.5,38.66667 170.3,38.66667C171.2,38.66667 172.1192,38.50145 173,38.6875C173.8474,38.86649 174.49046,39.55591 175.3,39.66533C176.19377,39.78614 176.92236,40.35286 177.8,40.6095C178.66556,40.86261 179.73299,40.42135 180.416,40.95067C181.04568,41.43866 181.8118,41.85955 182.21466,42.468C182.75854,43.28945 183.35593,43.67599 184.10001,44.27733C184.75412,44.80597 185.2235,45.55567 186,46.14583C186.73798,46.70671 187.62602,46.85752 188.2,47.37117C188.93532,48.0292 189.5368,48.84562 190.10001,49.23067C190.92555,49.79508 192.01094,49.89685 192.37849,50.76667C192.73199,51.60321 192.55545,52.36762 193,53.16667C193.44562,53.96762 193.88608,54.80502 194.216,55.46667C194.63655,56.31003 194.42268,57.3342 194.936,58.06667C195.48967,58.85669 196.14284,59.36667 196.47917,60.16667L196.5,61.06667" id="svg_10" stroke-width="3" stroke="#000" fill="none"/>
  <path t="71481,71528,71536,71552,71560,71560,71568,71568,71574,71583,71583,71583,71590,71590,71590,71590,71599,71599,71599,71606,71607,71607,71607,71615,71615,71615,71615,71615,71615,71622,71622,71622,71622,71622,71631,71631,71631,71631,71639,71640,71640,71647,71655,71655,71663,71670,71671,71678,71679,71679,71687,71695,71703,71703,71711,71711,71711,71719,71719,71728,71735,71735,71743,71743,71759,71760,71767,71767,71775,71775,71783,71783,71791,71799,71799,71807,71807,71815,71815,71815,71823,71823,71831,71831,71840,71840,71840,71847,71847,71855,71863,71879,71887,71887,71894,71902,71903,71910,71910,71918,71926,71935,71944,71951,71951,71959,71967,71967,71975,71983,71983,71991,71999,72000,72016,72016,72016,72024,72024,72032,72040,72040,72049,72056,72063,72072,72072,72088,72088,72097,72097,72104,72104,72112,72119,72129,72129,72130,72135,72136,72145,72146,72152,72159,72160,72160,72168,72168,72177,72177,72185,72185,72200,72201,72201,72208,72208,72209,72216,72216,72224,72233,72233,72240,72248,72248,72256,72256,72271,72279,72297,72303,72304,72320,72320,72330,72331,72331,72336,72344,72353,72360,72376,72376,72392,72392,72400,72408,72409,72416,72416,72424,72424,72432,72432,72440,72440,72440,72448,72456,72456,72471,72471,72472,72480,72481,72488,72488,72497,72504,72504,72513,72513,72514,72520,72520,72528,72528,72528,72536,72537,72544,72552,72553,72560,72561,72568,72576,72577,72584,72592,72592,72600,72600,72608,72617,72617,72625,72633,72641,72641,72657,72657,72666,72667,72683,72684,72690,72706,72717,72722,72730,72730,72737,72746,72746,72753,72762,72762,72777,72785,72787,72793,72807,72815,72816,72824,72831,72840,72840,72848,72848,72856,72856,72866,72866,72872,72882,72882,72896,72896,72904,72904,72919,72928,72928,72944,72944,72952,72952,72960,72968,72976,72976,72984,72991,72999,73000,73008,73008,73016,73023,73024,73031,73040,73040,73040,73048,73048,73055,73063,73064,73072,73072,73082,73082,73088,73088,73096,73103,73112,73128,73135,73135,73136,73152,73152,73160,73160,73168,73176,73183,73200,73200,73215,73232,73240,73263,73264,73279,73279,73288,73304,73304,73312,73328,73336,73336,73344,73368,73383,73391,73407,73416,73424,73431,73432,73440,73448,73448,73455,73463,73471,73487,73530,73530,73546,73555,73562,73577,73586,73665,73680,73696,73697,73928,73960,73960" d="M-2.5,274.66666C-0.8,274.66666 0.10274,274.63632 0.91067,274.24133C1.82448,273.79456 2.50168,273.7276 3.4785,273.6665C4.30147,273.61502 5.00475,273.04895 6.043,272.78799C6.75611,272.60876 7.61401,272.64801 8.5,272.5C9.40646,272.34857 10.29565,272.07205 10.9,271.95065C12.09272,271.71103 13.00157,271.68225 13.6,271.61401C14.80448,271.47665 15.40999,271.29764 16.408,271.09201C17.15358,270.93839 18.46383,270.78323 18.95333,270.75067C19.98605,270.68195 20.5211,270.67197 21.59917,270.61401C22.13348,270.5853 23.65779,270.45102 24.12933,270.38266C25.02963,270.25214 25.87622,270.07706 26.69733,269.95065C27.8965,269.76608 28.69127,269.72305 29.45833,269.66666C30.52973,269.58789 31.46661,269.47882 32.21733,269.24133C33.02409,268.98611 33.99984,268.67709 34.984,268.66666C35.67463,268.65933 36.74733,268.66666 37.66667,268.66666C38.52083,268.66666 39.5,268.66666 40.28933,268.66666C41.01467,268.66666 41.98574,268.76694 42.91067,268.65601C43.83889,268.54468 44.4982,268.09073 45.5,267.83334C46.28683,267.63116 47.11659,267.63794 48.0955,267.314C48.85815,267.06161 49.74155,266.69525 50.70133,266.66666C51.38503,266.64627 52.336,266.66837 53.10133,266.66666C54.10001,266.6644 54.91618,266.67172 55.9,266.38266C56.71664,266.14273 57.69555,265.74612 58.47917,265.6875C59.47593,265.61295 60.1955,265.66666 61.136,265.66666C61.98533,265.66666 62.9045,265.66666 63.90133,265.66666C64.52084,265.66666 65.66666,265.66666 66.44817,265.66666C67.23867,265.66666 68.36627,265.75314 69.11467,265.63068C70.00935,265.48428 70.73132,265.02942 71.66666,264.83334C72.43901,264.67142 73.23863,264.672 74.357,264.66666C75.19099,264.66266 76.1,264.66666 77,264.66666C77.91067,264.66666 78.82133,264.66666 79.67467,264.66666C80.61467,264.66666 81.5,264.66666 82.25716,264.66666C83.15266,264.66666 84.016,264.66666 84.97916,264.66666C85.9,264.66666 86.8,264.66666 87.7,264.66666C88.60017,264.66666 89.38533,264.66666 90.32533,264.66666C91.33334,264.66666 92.08933,264.66666 93.02084,264.66666C93.984,264.66666 94.67467,264.66666 95.74733,264.66666C96.66666,264.66666 97.336,264.66666 98.5,264.66666C99.3,264.66666 100.1,264.66666 101.0955,264.66666C101.84283,264.66666 102.8039,264.51331 103.7,264.95065C104.36443,265.27493 105.19999,265.6644 106.1,265.66666C107.02084,265.66895 107.83015,265.57523 108.67467,265.70267C109.63721,265.84793 110.36333,266.47141 111.15717,266.6095C112.08899,266.77161 113.0955,266.66666 113.84283,266.66666C114.74284,266.66666 115.70136,266.65897 116.66666,266.66666C117.33606,266.672 118.11458,266.7067 119.1,267.01935C119.91262,267.27716 120.89616,267.61432 121.664,267.65601C122.61465,267.70761 123.66666,267.66666 124.34666,267.66666C125.18667,267.66666 126.18371,267.62375 126.95834,267.6875C128.00662,267.77374 128.6282,268.4299 129.567,268.6095C130.28448,268.74673 131.33368,268.64816 132.04733,268.67117C132.95372,268.70038 133.92401,268.87726 134.71466,269.09201C135.49312,269.30347 136.56503,269.46466 137.29733,269.75067C138.20241,270.10416 138.98126,270.61954 139.84734,270.66217C140.74625,270.70642 141.66667,270.66666 142.5,270.66666C143.4785,270.66666 144.29866,270.66666 145.2,270.66666C146.10001,270.66666 146.91066,270.66666 147.8215,270.66666C148.71066,270.66666 149.7,270.66666 150.5,270.66666C151.5,270.66666 152.28934,270.66666 153.01466,270.66666C154.08934,270.66666 155,270.66666 155.89999,270.66666C156.8,270.66666 157.71509,270.5918 158.38533,270.75201C159.35754,270.98441 159.99165,271.50177 161,271.64584C161.97568,271.78525 162.72839,271.62509 163.69983,271.888C164.49875,272.10422 165.32234,272.57352 166.12534,272.65601C167.1563,272.76193 167.96167,272.66666 168.92117,272.66666C169.71466,272.66666 170.49393,272.57977 171.52933,272.668C172.51042,272.75159 173.1442,273.33752 174.04283,273.54517C174.74783,273.70807 175.55183,273.6644 176.57834,273.66666C177.45833,273.66858 178.4785,273.66666 179.29866,273.66666C180.136,273.66666 181.16167,273.66666 181.96167,273.66666C182.92117,273.66666 183.71466,273.66666 184.49017,273.66666C185.532,273.66666 186.30533,273.66666 187.26933,273.66666C188.02083,273.66666 188.81734,273.66666 190.03833,273.66666C190.83833,273.66666 191.74733,273.66666 192.66667,273.66666C193.5,273.66666 194.4785,273.66666 195.29866,273.66666C196.136,273.66666 197.15266,273.66666 197.84734,273.66666C198.87466,273.66666 199.82133,273.66666 200.67467,273.66666C201.616,273.66666 202.384,273.66666 203.32533,273.66666C204.33333,273.66666 205.08934,273.66666 206,273.66666C206.91066,273.66666 207.8215,273.66666 208.52083,273.66666C209.5,273.66666 210.47917,273.66666 211.33333,273.66666C212.12534,273.66666 213.15266,273.66666 213.84734,273.66666C214.864,273.66666 215.8,273.66666 216.7,273.66666C217.60001,273.66666 218.5,273.66666 219.3,273.66666C220.136,273.66666 221.15266,273.66666 221.84734,273.66666C222.87466,273.66666 223.82133,273.66666 224.67467,273.66666C225.61467,273.66666 226.5,273.66666 227.3,273.66666C228.2,273.66666 229.136,273.66666 229.98399,273.66666C230.84734,273.66666 231.74283,273.66666 232.70134,273.66666C233.66667,273.66666 234.32533,273.66666 235.33333,273.66666C236.12534,273.66666 237.15717,273.66666 237.9045,273.66666C238.89867,273.66666 239.664,273.66666 240.61467,273.66666C241.60017,273.66666 242.38533,273.66666 243.336,273.66666C244.10133,273.66666 245.0955,273.66666 245.84283,273.66666C246.87466,273.66666 247.8215,273.66666 248.52083,273.66666C249.5,273.66666 250.47917,273.66666 251.33333,273.66666C252.1955,273.66666 253.10001,273.66666 254.02083,273.66666C254.82133,273.66666 255.67467,273.66666 256.61465,273.66666C257.60001,273.66666 258.5,273.66666 259.25717,273.66666C260.15268,273.66666 261.01599,273.66666 262,273.66666C262.82132,273.66666 263.67465,273.66666 264.616,273.66666C265.66666,273.66666 266.336,273.66666 267.10132,273.66666C268.09549,273.66666 269.01468,273.66666 270,273.66666C270.8215,273.66666 271.71066,273.66666 272.69983,273.66666C273.47916,273.66666 274.47867,273.66666 275.25266,273.66666C276.15268,273.66666 277.01599,273.66666 277.97916,273.66666C278.89999,273.66666 279.79999,273.66666 280.70132,273.66666C281.66666,273.66666 282.336,273.66666 283.10132,273.66666C284.10001,273.66666 284.89999,273.66666 285.89868,273.66666C286.84283,273.66666 287.74283,273.66666 288.70001,273.66666C289.60001,273.66666 290.53644,273.49854 291.29999,273.75201C292.07214,274.00836 292.90509,274.56699 293.8045,274.67117C294.67593,274.77213 295.29257,275.18481 296.33334,275.5C297.07211,275.72372 298.02084,275.66666 298.98401,275.66666C299.67465,275.66666 300.74283,275.66666 301.60001,275.66666C302.5,275.66666 303.29999,275.66666 304.20001,275.66666C305.10001,275.66666 306,275.66666 306.89999,275.66666C307.79999,275.66666 308.70001,275.66666 309.60001,275.66666C310.5,275.66666 311.29999,275.66666 312.25717,275.66666C313.15268,275.66666 313.84732,275.66666 314.86401,275.66666C315.79999,275.66666 316.70001,275.66666 317.60001,275.66666C318.5,275.66666 319.29999,275.66666 320.20001,275.66666C321.10001,275.66666 322,275.66666 322.89999,275.66666C323.79999,275.66666 324.70001,275.66666 325.60001,275.66666C326.5,275.66666 327.29999,275.66666 328.21466,275.75201L328.16666,276.5L327.45834,276.64584" id="svg_11" stroke-width="3" stroke="#000" fill="none"/>
  <path t="75201,75297,75304,75314,75314,75321,75321,75327,75327,75327,75327,75335,75335,75335,75335,75343,75343,75343,75343,75351,75351,75351,75358,75358,75358,75367,75368,75383,75383,75383,75391,75392,75398,75399,75406,75407,75414,75415,75422,75423,75431,75447,75447,75447,75454,75454,75454,75463,75470,75479,75479,75494,75502,75502,75511,75527,75534,75534,75534,75551,75551,75551,75559,75559,75575,75575,75575,75583,75583,75583,75591,75599,75607,75615,75623,75631,75639,75647,75647,75655,75655,75664,75664,75671,75711,75719,75736,75737,75744,75751,75751,75759,75767,75775,75783,75783,75790,75806,75822,75830,75838,75847,75848,75862,75863,75863,75871,75919,75927,75934,75943,75943,75950,75950,75958,75958,76080,76080,76152,76544" d="M395.5,285.66666C397.20001,285.66666 398.13599,285.66666 398.98532,285.66666C399.90451,285.66666 400.90134,285.66666 401.73599,285.66666C402.66666,285.66666 403.46167,285.66666 404.34668,285.66666C404.98666,285.66666 406.02151,285.66666 406.75717,285.66666C407.91068,285.66666 408.70132,285.66666 409.89966,285.66666C410.69101,285.66666 411.45834,285.66666 412.18567,285.66666C413.16666,285.66666 414.23868,285.66666 414.94818,285.66666C415.92133,285.66666 416.72534,285.66666 417.54733,285.66666C418.57849,285.66666 419.47916,285.66666 420.5,285.66666C421.29999,285.66666 422.10001,285.66666 423.10001,285.66666C423.89999,285.66666 424.89999,285.66666 425.70001,285.66666C426.69983,285.66666 427.47916,285.66666 428.47867,285.66666C429.25266,285.66666 430.15271,285.67194 431.01599,285.66666C431.88541,285.66132 432.83432,285.50354 433.50983,285.314C434.2865,285.09607 435.32816,284.78928 436.25333,284.70267C437.0108,284.63174 438.1156,284.68121 438.89999,284.24133C439.62744,283.8334 440.38535,283.66733 441.32535,283.66666C442.33334,283.66592 443.10989,283.6709 443.89999,283.24133C444.72488,282.79288 445.66751,282.69147 446.34668,282.65601C447.18884,282.61203 448.18399,282.38266 449,282.16666C449.81601,281.95065 450.81406,281.72592 451.5,281.6875C452.66501,281.62225 453.45267,281.66666 454.27466,281.66666C455.33334,281.66666 456.03833,281.66666 456.83835,281.66666C457.86401,281.66666 458.79999,281.66675 459.70001,281.66666C460.59982,281.66656 461.16934,281.11826 461.85718,280.72385C462.67657,280.254 463.70132,280.6705 464.38535,280.66666C465.33603,280.66132 466.11798,280.63696 467.09549,280.314C467.85828,280.06198 468.86343,279.68466 469.70001,279.66666C470.59979,279.64728 471.50037,279.69052 472.29999,279.66666C473.25845,279.63806 474.14111,279.28513 474.84732,279.01935C475.72989,278.68719 476.70001,278.66666 477.60001,278.66666C478.5,278.66666 479.29999,278.66666 480.20001,278.66666C481.10001,278.66666 482,278.66666 482.89999,278.66666C483.8045,278.66666 484.66666,278.66666 485.52084,278.66666C486.5,278.66666 487.28934,278.66666 488.01468,278.66666C489.08932,278.66666 490,278.66666 490.89999,278.66666C491.8045,278.66666 492.66666,278.66666 493.5,278.66666C494.47867,278.66666 495.25266,278.66666 496.15717,278.66666C496.90451,278.66666 497.89868,278.66666 498.84283,278.66666L499.74283,278.66666L500.70001,278.66666" id="svg_12" stroke-width="3" stroke="#000" fill="none"/>
 </g>
</svg>