<svg width="280" height="420" xmlns="http://www.w3.org/2000/svg" xmlns:svg="http://www.w3.org/2000/svg" xmlns:xlink="http://www.w3.org/1999/xlink">
 <!-- Created with SVG-edit - http://svg-edit.googlecode.com/ -->
 <g display="inline" class="layer">
  <title>Layer 1</title>
  <path t="0,170,222,237,287,347,447,463,478,518,558,581,598,613,646,693,784,800,846,868,893,911,948,981,1021,1061,1122,1166,1188,1221,1289,1342,1408,1408,1517,1534,1534,1574,1597,1622,1662,1694,1778,1793,1913,1929,1997,2045,2077,2137,2198,2238,2278,2338,2390,2421,2446,2461,2493,2543,2551,2581,2721,2737,2767,2797,2822,2822,2845,2877,2910,3025,3040,3147,3213,3216,3262,3277,3302,3334,3374,3397,3437,3469,3534,3605,3646,3678,3770,3813,3838,3886,3926,3966,4021" d="M130.5,213.5C129.784,214.216 129.14734,214.85266 128.48933,215.51067C127.92533,216.07466 127.72209,216.94226 127.27866,217.72133C126.85053,218.47353 126.5,219.07466 126.5,220C126.5,220.936 126.5,221.7955 126.5,222.72133C126.5,223.584 126.5,224.5 126.5,225.37866C126.5,226.2045 126.5,227.14284 126.5,228C126.5,228.92534 126.04649,229.55202 125.6215,230.37866C125.28223,231.03857 125.5,232.064 125.5,232.92534C125.5,233.85266 125.5,234.784 125.5,235.66667C125.5,236.52533 125.56524,237.38916 126.07467,238.07466C126.568,238.73851 126.66666,239.66667 127.216,240.216C127.85717,240.85716 128.62024,241.39894 129.14284,242.14284C129.63986,242.85034 130.04941,243.46501 130.4955,244.14734C130.98189,244.8913 131.08386,245.81528 131.72133,246.37849C132.37518,246.95619 133.16806,247.04778 133.85266,247.44284C134.66083,247.90923 135.66667,247.5 136.55267,247.5C137.44733,247.5 138.33333,247.5 139.11067,247.5C140.064,247.5 141.05293,247.61723 141.78534,247.216C142.57588,246.78293 143.33333,246.5 144.14734,246.5C145.07466,246.5 145.66881,245.86823 146.5,245.52083C147.34537,245.1675 148.18175,245.396 148.584,244.69867C149.03714,243.91313 149.90407,243.29262 150.33333,242.5C150.69398,241.83405 151.47141,241.4969 151.5,240.62134C151.52733,239.78444 151.5,238.88933 151.5,238.02083C151.5,237.07466 151.57887,236.15982 151.07466,235.52533C150.59074,234.91637 150.5,234.02083 150.5,233.14734C150.5,232.216 150.50064,231.33333 150.5,230.47467C150.49933,229.584 149.72073,229.01309 149.5,228.216C149.24983,227.31267 148.99442,226.70082 148.536,226.07466C147.99469,225.33528 147.54272,224.5874 147.5,223.784C147.45441,222.92654 147.5,222 147.5,221.07466L147.27867,220.27867" id="svg_1" stroke-width="3" stroke="#000" fill="none"/>
  <path t="6870,7053,7714,7788,7903,7935" d="M132.5,223.5C130.92534,222.5 130,222.52083 129.56166,223.14734L130.33333,223.5L130.55716,224.14734" id="svg_3" stroke-width="3" stroke="#000" fill="none"/>
  <polyline timestamps="10909,11339,11558" startTime="1501986464458" id="svg_4" points="143.5,224.5 143.216,224.5 144.14733333333334,224.4428333333333 " stroke-linecap="round" stroke-width="3" stroke="#000" fill="none"/>
  <path t="13106,13591,13630,13725,13887,14062,14160,14263" d="M136.5,224.5C136.5,226.14734 136.5,227.07466 136.5,227.936C136.5,228.7955 136.5,229.72133 136.66667,230.5L137.55267,230.5" id="svg_5" stroke-width="3" stroke="#000" fill="none"/>
  <path t="15389,15666,15734,15787,15869,15953,15989,16029" d="M134.5,237.5C136.14734,237.5 137.07466,237.5 137.92534,237.5C138.85266,237.5 139.72133,237.5 140.584,237.41467L141.14734,236.85266" id="svg_6" stroke-width="3" stroke="#000" fill="none"/>
  <path t="17994,18172,18246,18300,18354,18417,18433,18476,18486,18509,18549,18549,18619,18688,18749,18767,18822,18870,18938,18982,19037,19092,19092,19268,19329" d="M132.5,213.5C133.5,213.5 134.30133,213.5 135.2,213.5C136.14284,213.5 136.75316,214.04506 137.60001,214.37849C138.44502,214.7112 139.14949,214.9223 139.784,215.41467C140.5092,215.97743 141.33528,215.99469 142.07466,216.536C142.70082,216.99442 143.48987,217.02289 144.21466,217.58533C144.88065,218.10213 144.9492,218.84157 145.72133,219.37849C146.41945,219.86395 147.14734,220.14734 147.92534,220.51067L148.48933,221.07466L148.5,222L148.5,222.85266" id="svg_7" stroke-width="3" stroke="#000" fill="none"/>
  <path t="20316,20406,20421,20455,20510,20541,20566,20598,20606,20628,20668,20678,20701,20711,20733,20751,20788,20813,20846,20893,21296,22420,22484,22613,22628,22646,22694,22709,22726,22766,22781,22806,22889,22926,22958,22973,23028,23038,23046,23078,23111,23133,23148,23181,23213,23231,23253,23278,23318,23318,23341,23373,23438,23468,23531,24475,24635,24710,24758,24766,24806,24861,24886,24901,24941,24966,24981,25006,25021,25053,25068,25071,25093,25118,25141,25151,25173,25188,25246,25246,25269,25294,25341,25366,25381,25406,25501,25542" d="M131.5,208.5C132.37866,208.5 133.2045,208.5 134.14284,208.5C135.02083,208.5 135.88933,208.5 136.784,208.5C137.7215,208.5 138.80356,208.17485 139.41467,208.784C139.95227,209.31985 140.72595,209.24231 141.37866,209.72133C142.07463,210.2321 142.7915,210.23399 143.584,210.58533C144.34935,210.92462 144.85645,211.63429 145.55267,212.14734C146.24228,212.6555 146.96414,213.05615 147.72133,213.50017C148.41403,213.90637 148.388,214.8578 148.85266,215.44733C149.36983,216.10345 150.16856,216.33488 150.47917,217.02083C150.83754,217.81223 151.12308,218.28499 151.47917,219C151.8918,219.82851 151.33205,220.85133 151.72133,221.59984C152.16209,222.44734 152.42638,223.11221 152.85266,223.85716C153.30463,224.64697 153.5,225.5 153.5,226.37866C153.5,227.216 153.73662,227.95555 154.216,228.584C154.76721,229.30659 154.29849,230.35866 154.5,231.14734C154.7195,232.00642 155.4507,232.58533 155.5,233.5C155.5433,234.30338 156.28065,234.98387 156.5,235.85266C156.71265,236.6949 156.5,237.584 156.5,238.5C156.5,239.416 156.71397,240.24092 156.5,241.14734C156.31882,241.91483 155.50226,242.55266 155.5,243.44733C155.49777,244.33333 155.5,245.2045 155.5,246.064C155.5,247 154.82051,247.33969 154.51067,248.07466C154.18018,248.8586 154.6068,249.85927 154.49983,250.7215C154.38832,251.62036 153.64383,252.18048 153.5,253.07466C153.36491,253.91455 153.54437,254.89462 153,255.47917C152.53844,255.97481 152.72011,256.86847 152.33333,257.66666C151.96729,258.42203 151.51028,259.10001 151.5,259.97916C151.48892,260.92532 150.92534,261.52533 150.5045,262.14734L150.5,263.07468L150.5,263.936L150.5,264.88934" id="svg_8" stroke-width="3" stroke="#000" fill="none"/>
  <path t="31251,31432,31469,31509,31549,31611,31627,31670,31710,31765,31797,31805,31880,31896,31964,31997,32049,32108,32133,32158,32198,32213,32238,32253,32270,32285,32308,32333,32350,32365,32380,32413,32438,32485,32500,32525,32565,32590,32620,32653,32693,32718,32740,32765,32805,32813,32823,32845,32870,32893,32918,32948,33026,33042,33085,33117,33248" d="M131.5,206.5C129.66667,206.5 129.1098,206.81445 128.33333,207.33333C127.62566,207.80624 127.12181,207.97009 126.44283,208.4955C125.73879,209.0403 124.92529,209.07462 124.27866,209.72133C123.62145,210.37862 123.58913,211.20319 123.07467,211.92534C122.5828,212.61578 122.40874,213.40802 121.92533,214.07466C121.40482,214.79248 121.51182,215.72141 121.5,216.66667C121.48958,217.5002 120.89301,218.09634 120.52084,218.97917C120.18652,219.7722 119.98812,220.52489 119.5,221.216C119.07787,221.81369 118.51579,222.33348 118.5,223.14734C118.48199,224.07518 117.68191,224.49429 117.50134,225.30133C117.30191,226.19263 117.5,227.14734 117.5,228.02083C117.5,228.88933 117.5,229.784 117.5,230.72133C117.5,231.584 117.5,232.5 117.5,233.30133C117.5,234.21466 117.5,235.14734 117.5,236C117.5,236.92534 117.5,237.78534 117.5,238.69867C117.5,239.584 117.5,240.5 117.5,241.37866C117.5,242.2045 117.5,243.14284 117.5,244C117.5,244.936 117.5,245.7955 117.5,246.72133L117.5,247.584L117.5,248.50133" id="svg_10" stroke-width="3" stroke="#000" fill="none"/>
  <path t="34336,34439,34485,34500,34525,34580,34614,34629,34654,34676,34716,34734,34749,34789,34789,34806,34846,34854,34861,34886,34901,34941,34941,34949,34966,34974,34981,34999,35006,35006,35021,35029,35039,35046,35054,35069,35094,35109,35141,35149,35189,35221,35236,35276,35294,35309,35326,35341,35366,35396,35421,35469,35486,35509,35541,35566,35596,35621,35661,35681" d="M112.5,247.5C114.07467,246.5 115.04801,246.22238 115.85267,246.5045C116.60644,246.76878 116.6192,248.00893 117.44733,248.44284C118.1398,248.80568 118.86275,249.21335 119.44283,249.85266C119.93533,250.39545 120.3492,250.868 120.5045,251.8C120.64072,252.61748 121.43819,252.98184 122.14283,253.55267C122.87333,254.14445 123.21334,254.86275 123.85267,255.44284C124.39545,255.93533 125.00774,256.28476 125.7215,256.7215C126.42096,257.14948 126.9399,258.04016 127.72134,258.50015C128.41682,258.90958 128.98262,259.33942 129.78534,259.784C130.57388,260.22073 131.04193,260.72552 131.72133,261.37866C132.30113,261.93607 132.88757,262.51498 133.52533,263.07468C134.11493,263.59213 134.73743,264.13547 135.47467,264.51068C136.23225,264.89624 136.88835,265.4758 137.5,266C138.1463,266.55389 138.03735,267.42719 138.5,268.21466C138.83353,268.78235 139.63753,269.09973 140.14734,269.55716C140.75986,270.10675 140.45811,271.24146 140.92534,271.92532C141.45448,272.6998 141.16998,273.58813 141.5045,274.44733C141.81207,275.2373 142.5,275.784 142.5,276.72134C142.5,277.58401 142.72133,278.37866 143.44284,278.85718L143.5,279.69867L143.58533,280.58401" id="svg_11" stroke-width="3" stroke="#000" fill="none"/>
  <path t="36532,36728,36782,36829,36874,36908,36948,36973,36998,37013,37038,37061,37086,37126,37133,37173" d="M149.5,264.5C150.37849,265.72134 150.12814,266.83301 150.784,267.41467C151.39598,267.95743 152.26305,267.95212 153,268.52084C153.63235,269.00885 153.72084,270.0358 154.55267,270.49551C155.30214,270.9097 155.85266,271.44284 156.72133,271.50015L157.44733,271.85266L158,272.47916L158.85266,272.50449" id="svg_12" stroke-width="3" stroke="#000" fill="none"/>
  <path t="37685,37788,37821,37836,37861,37876,37894,37924,37941,37974,37989,38029,38036,38054,38061,38086" d="M149.5,271.5C148.5,271.5 147.58363,271.47601 146.7955,271.5C145.85587,271.52859 145.16536,271.82254 144.536,272.5C143.95229,273.12833 143.81123,273.68564 143.27867,274.37866C142.78929,275.01547 142.5,275.7215 142.5,276.59982L142.5,277.47467L142.5,278.30133L142.5,279.21466" id="svg_13" stroke-width="3" stroke="#000" fill="none"/>
  <path t="39118,39185,39221,39261,39286,39338,39338,39382,39412,39437,39462,39492,39495,39510,39525,39572,39582,39590,39607,39637,39677,39685,39702,39735,39742,39760,39782,39805,39812,39820,39830,39847,39852,39860,39877,39892,39910,39917,39940,39965,39980,39997,40005,40015,40022,40052,40062,40070,40077,40092,40110,40117,40125,40142,40150,40157,40165,40175,40205,40212,40222,40237,40247,40255,40270,40302,40310,40325,40332,40350,40365,40382,40397,40415,40437,40445,40462,40477,40525,40587,40603" d="M155.5,269.5C156.5,269.5 157.44827,269.32669 158.2045,269.55716C159.05804,269.81732 159.80835,270.55466 160.216,271.216C160.69058,271.9859 160.36563,273.01132 160.5045,273.85718C160.64836,274.73343 161.41219,275.4863 161.4955,276.20001C161.60483,277.13647 161.42636,278.11224 161.85266,278.85718C162.30461,279.64697 162.21883,280.46014 162.5,281.33334C162.72342,282.02719 163.37138,282.6756 163.50017,283.59982C163.61189,284.40155 164.30217,284.7757 164.784,285.41599C165.29485,286.09485 165.49991,286.78534 165.5,287.70001C165.50009,288.59982 165.89767,289.18344 166.44733,289.85718C167.02026,290.55945 167.41624,291.32068 167.5,292.14734C167.59349,293.06995 167.57466,293.87103 168.07466,294.52533C168.56676,295.16928 168.32043,296.09592 168.52083,297.02084C168.69928,297.84448 169.45573,298.47507 169.5,299.30133C169.54817,300.20053 170.2386,300.86551 170.5,301.7215C170.75652,302.56152 170.3179,303.54114 170.58533,304.30133C170.88603,305.15613 171.5,305.85718 171.5,306.69867C171.5,307.58401 172.04842,308.16931 172.44284,308.85718C172.91269,309.67657 172.5,310.69867 172.5,311.55267C172.5,312.5 172.5,313.33334 172.5,314.14734C172.5,315.11066 172.57397,315.92691 173.07466,316.48932C173.55579,317.02975 173.37251,317.94614 173.5045,318.79999C173.64827,319.73007 174.43906,320.37152 174.5,321.14734C174.57262,322.07184 174.40849,322.99213 174.85266,323.50449C175.38446,324.11795 175.25713,324.93481 175.5045,325.7955C175.72522,326.56339 176.48933,327.07468 176.52083,328L177.11067,328.48932L177.97917,328.52084" id="svg_14" stroke-width="3" stroke="#000" fill="none"/>
  <path t="41672,41780,41796,41814,41836,41854,41876,41876,41901,41924,41949,41964,41989,41989,42036,42052,42070,42078,42093,42118,42125,42140,42165,42180,42205,42213,42230,42245,42260,42260,42285,42293,42325,42340,42340,42350,42365,42373,42390,42405,42413,42423,42438,42445,42453,42460,42478,42493,42503,42518,42533,42540,42558,42565,42565,42573,42590,42598,42613,42620,42638,42648,42670,42690,42700,42700,42718,42740,42750,42765,42773,42813,42830,42845,42860,42870,42878,42900,42910,42933,42958,42965,42990,42998,43020,43030,43045,43070,43103,43165,43165,43234" d="M94.5,171.5C94.5,173.11067 94.5,174.064 94.5,174.92534C94.5,175.85716 94.3363,176.75729 94.72134,177.60001C95.02713,178.2693 95.49775,179.14282 95.5,180C95.50243,180.92534 95.24708,181.87242 95.66666,182.66667C96.02955,183.35359 96.45889,184.05206 96.92533,184.89999C97.32719,185.63051 96.95577,186.68051 97.50134,187.41467C98.01985,188.11243 98.19966,188.52603 98.5,189.37849C98.76506,190.13083 99.3297,190.7368 99.5,191.66667C99.64436,192.4549 100.38285,192.86275 100.5,193.7955C100.61053,194.67555 101.35593,195.17961 101.5,196.02083C101.64661,196.87686 101.90534,197.60701 102.33334,198.5C102.64389,199.14796 102.5,200.10001 102.5,201C102.5,201.89999 102.5,202.7955 102.5,203.7215C102.5,204.59984 102.1899,205.67529 102.72134,206.37866C103.20589,207.01999 103.5,207.69867 103.5,208.584C103.5,209.47467 103.30438,210.33572 103.55717,211.2C103.81385,212.07762 104.47141,212.79865 104.5,213.7C104.52854,214.59955 104.5,215.5 104.5,216.3C104.5,217.14284 104.14133,218.09892 104.52084,218.97917C104.82879,219.69345 105.49775,220.20448 105.5,221.10001C105.50221,221.97917 105.4146,222.97754 105.784,223.7C106.22579,224.56406 106.4802,225.30022 106.5,226.21466C106.51863,227.07521 107.35606,227.54872 107.5,228.416C107.63098,229.2052 108.11887,229.8423 108.41467,230.7C108.70941,231.55464 108.5,232.5 108.5,233.416C108.5,234.216 108.7395,234.95338 109.216,235.584C109.77959,236.32986 109.94897,237.04526 110.41467,237.784C110.88757,238.53418 110.5,239.52533 110.5,240.416C110.5,241.216 111.19803,241.78717 111.5,242.72133C111.75571,243.51237 111.66666,244.5 112.07467,245.10001L112.464,245.89999" id="svg_15" stroke-width="3" stroke="#000" fill="none"/>
  <path t="44060,44250,44265,44326,44381,44404,44429,44500,44533,44558,44588,44669,44725,44743,44765,44820,45112,45128,45156,45188,45238" d="M93.5,171.5C93.5,169.66667 93.5,168.85266 93.5,167.92534C93.5,167 94.05595,166.60587 94.47916,166C94.96114,165.31001 95.76133,165.02498 96.33334,164.33333C96.89078,163.65929 96.5,162.55267 96.5,161.7955C96.5,160.85716 96.5,159.92534 96.5,159.07466C96.5,158.14284 96.5,157.2045 96.5,156.33333L96.5,155.47467L96.5,154.55716" id="svg_16" stroke-width="3" stroke="#000" fill="none"/>
  <path t="49150,49304,49319,49357,49427,49557,49572,49605,49653" d="M91.5,151.5C93.33334,151.5 94.14733,151.5 95.07467,151.5C96,151.5 96.85267,151.5045 97.47916,152L97.5,152.92534L97.5,153.784" id="svg_18" stroke-width="3" stroke="#000" fill="none"/>
  <path t="50317,50425,50462,50492,50557,50613,50638,50685,50718,50718,50778,50844,50878" d="M91.5,150.5C91.52084,149.5 92.2805,149.00641 92.5,148.14734C92.73055,147.245 92.83718,146.76978 93.41467,146.216C93.97702,145.67674 94.59983,145.27867 95.21467,144.784L96.07467,144.5L96.85267,144.14734L97.47467,143.536" id="svg_19" stroke-width="3" stroke="#000" fill="none"/>
  <path t="54101,54445,54518,54548,54596,54788,54829,54877,54959,54990,55005,55052,55060,55125,55177,55221,55409,55425,55500" d="M97.5,142.5C96.5,142.5 95.584,142.5 94.784,142.5C93.85267,142.5 92.94955,142.27516 92.11066,142.5C91.42952,142.68256 91.42485,143.91591 90.66666,144.33333C90.00104,144.6998 89.38193,144.89725 88.85267,145.4955C88.40337,146.00337 88.47916,147 87.85267,147.55267L87.5,148.33333L86.784,148.5L86.07467,148.92534" id="svg_21" stroke-width="3" stroke="#000" fill="none"/>
  <path t="56829,57026,57070,57095,57132,57187,57374,57456,57472,57525,57572,57597,57707,57778,57812,57862,57894,57947,58033,58131,58182,58230" d="M84.5,146.5C83.52533,145.5 82.62133,145.5 81.784,145.5C80.92533,145.5 79.99151,145.37491 79.07467,145.5C78.25605,145.61169 77.99078,146.5051 77.44283,147.14734C76.8895,147.7959 75.7656,147.36963 75.07467,147.92534C74.39275,148.4738 74.5,149.5 74.5,150.37866C74.5,151.216 74.536,152.11067 74.92533,152.88933L75.58533,153.5L76.5,153.5L77.33334,153.66667" id="svg_22" stroke-width="3" stroke="#000" fill="none"/>
  <path t="58980,59172,59187,59205,59228,59253,59268,59278,59285,59295,59300,59313,59325,59333,59343,59360,59373,59385,59398,59413,59420,59430,59468,59475,59485,59508,59518,59533,59540,59565,59565,59573,59580,59620,59620,59638,59638,59645,59653,59668,59678,59685,59700,59710,59718,59748,59755,59780,59798,59813,59828,59853,59860,59868,59878,59885,59893,59915,59915,59925,59940,59958,59965,59980,59980,59998,60013,60020,60030,60045,60053,60060,60085,60093,60125,60165,60180,60195,60220,60253,60260,60278,60288,60305,60313,60315,60333,60340,60358,60375,60390,60395,60405,60413,60420,60428,60438,60438,60445,60453,60460,60468,60478,60485,60493,60503,60510,60515,60533,60548,60555,60565,60580,60595,60605,60620,60628,60638,60653,60670,60678,60693,60700,60708,60718,60725,60740,60755,60773,60780,60798,60805,60820,60830,60838,60845,60860,60868,60885,60893,60900,60918,60925,60925,60948,60958,60973,60983,60988,61005,61013,61028,61045,61053,61068,61078,61085,61093,61100,61125,61140,61150,61165,61180,61198,61220,61238,61253,61268,61293,61293,61300,61340,61350,61373,61383,61405,61420,61430,61445,61460,61470,61493,61508,61525,61533,61548,61565,61580,61598,61628,61645,61660,61670,61678,61700,61700,61708,61733,61748,61758,61765,61780,61798,61813,61830,61838,61845,61885,61893,61918,61925,61948,61973,61980,61990,62020,62045,62053,62085,62093,62140,62140,62173,62183,62228,62268,62285,62325,62350,62413,62420,62430,62445,62453,62478" d="M73.5,149.5C72.52533,148.5 71.57536,148.56366 71.02084,147.97917C70.33263,147.25378 69.87385,146.67165 69.2045,146.14284C68.46364,145.55753 68.4573,144.69702 67.69867,144.41467C66.93723,144.13129 65.98158,143.65331 65.52533,143.064C64.95052,142.32156 64.44833,141.59012 64,140.97917C63.41444,140.18123 63.05339,139.4462 62.47467,138.92534C61.8368,138.35126 61.4919,137.6441 60.92533,136.936C60.29388,136.1468 59.57857,135.62645 59.5,134.784C59.42019,133.9283 58.81858,133.39717 58.416,132.69867C57.96316,131.91296 57.27409,131.28287 56.69867,130.69867C56.01556,130.00514 55.57999,129.2027 55.5,128.33333C55.43357,127.61134 55.02861,126.69229 54.784,125.984C54.45806,125.04023 54.5,124.11066 54.5,123.21467C54.5,122.30133 54.5,121.416 54.5,120.5C54.5,119.62133 54.5,118.784 54.5,117.88934C54.5,117.02084 54.5,116.07467 54.5,115.216C54.5,114.27866 54.5,113.416 54.5,112.5C54.5,111.62133 54.31496,110.76854 54.536,109.9C54.75307,109.04706 55.45069,108.41467 55.5,107.5C55.54331,106.69662 56.28072,106.01572 56.5,105.14283C56.70534,104.3254 56.29974,103.3385 56.66667,102.5C56.98845,101.76466 57.5,101.07467 57.5,100.14283C57.5,99.30133 57.585,98.41566 58.2045,97.7955C58.79519,97.20418 59.48958,96.50018 59.5,95.62133C59.50992,94.78406 59.4461,93.82323 59.85266,93.14283C60.31942,92.36169 60.5104,91.48907 61.07467,90.92533C61.785,90.21567 62.69156,90.05709 63.33333,89.5C63.90655,89.00242 64.28069,88.3807 65.1,87.92533C65.88179,87.49081 66.57164,87.02713 67.37867,86.6215C68.13361,86.24205 68.86552,85.76148 69.7215,85.5C70.56151,85.24339 71.10865,84.99219 71.85717,84.55717C72.58755,84.1327 73.65427,84.68328 74.5,84.33334C75.28462,84.00867 75.99982,83.51042 76.9,83.5C77.79994,83.48959 78.79789,83.65934 79.44733,83.14733C80.06194,82.6628 80.9,82.5 81.8,82.5C82.69867,82.5 83.55267,82.5 84.44733,82.5C85.30133,82.5 86.2,82.5 87.064,82.5C88,82.5 88.85717,82.5 89.7955,82.5C90.66666,82.5 91.59983,82.5 92.44733,82.5C93.30133,82.5 94.20005,82.49039 95.064,82.5C96.00018,82.51042 96.44365,83.25163 97.2045,83.4955C98.09998,83.78252 98.83509,83.82825 99.464,84.51067C100.03818,85.13371 100.68051,84.95578 101.41467,85.50134C102.11243,86.01985 102.26358,86.81116 102.85267,87.44733C103.38565,88.02292 104.09439,88.37463 104.88934,88.92533C105.60807,89.42323 106.147,90.14767 106.784,90.784C107.41566,91.415 108.26643,91.46434 109,92.02084C109.77554,92.60917 109.99335,93.33414 110.536,94.07467C110.99468,94.70062 111.78429,95.1794 112.416,95.784C112.98702,96.33051 113.31036,96.9507 113.936,97.47467C114.56696,98.00311 115.48251,98.35633 116,99C116.58309,99.72525 117.16604,100.30881 117.47916,101.02084C117.82902,101.81638 118.08146,102.48265 118.51067,102.92533C119.08388,103.51654 119.13674,104.30179 119.536,105.064C119.93321,105.8223 120.20949,106.46181 120.5,107.33334C120.76353,108.1239 121.42248,108.72483 121.5,109.584C121.58367,110.51127 122.26093,111.03634 122.47916,111.97916C122.67722,112.83479 122.5,113.7955 122.5,114.66666C122.5,115.55267 122.5,116.44733 122.5,117.30133C122.5,118.2 122.5,119.064 122.5,119.936C122.5,120.88934 122.5,121.78533 122.5,122.7C122.5,123.59983 122.5,124.44733 122.5,125.33334C122.5,126.14733 122.50244,127.07467 122.5,128C122.49775,128.85268 121.9245,129.44243 121.47467,130.11067C120.98583,130.83685 120.54932,131.58533 120.5,132.5C120.45669,133.30338 119.83821,134.01912 119.49866,134.78534C119.11132,135.65942 118.9381,136.46365 118.44283,137.14734C117.97914,137.78745 117.41364,138.38495 116.92533,139.11067C116.43665,139.83696 116.09861,140.58913 115.5045,141.14734C114.99619,141.62494 114.18878,141.88786 113.66666,142.66667C113.19344,143.37256 113.32385,144.28699 112.40017,144.50017C111.61143,144.68221 111.83723,145.77168 111.27866,146.37849C110.71635,146.98938 110.06428,147.18436 109.49983,147.72133C108.91803,148.27481 108.33334,148.66667 107.784,149.216C107.07466,149.92534 106.41179,150.41322 105.52084,150.5C104.65466,150.58437 104.46236,151.44432 103.55267,151.5C102.78072,151.54724 102.28477,152.4391 101.40017,152.5C100.5274,152.56009 99.62133,152.5 98.784,152.5L97.92533,152.5" id="svg_23" stroke-width="3" stroke="#000" fill="none"/>
  <path t="73077,73289,73304,73332,73357,73365,73397,73420,73445,73477,73500,73550,73573,73588,73606,73613,73646,73686,73708,73748,73758,73781,73788,73813,73821,73853,73861,73878,73886,73908,73918,73976,73991,74075,74075,74090,74134,74149,74166,74181,74221,74246,74254,74269,74301,74311,74341,74356,74374,74389,74396,74406,74414,74429,74454,74469,74486,74494,74501,74509,74526,74541,74556,74564,74581,74589,74599,74614,74621,74629,74629,74636,74646,74654,74669,74679,74689,74689,74696,74701,74709,74716,74726,74734,74741,74749,74759,74766,74774,74774,74789,74799,74806,74814,74821,74836,74836,74854,74861,74869,74879,74894,74909,74916,74934,74941,74959,74959,74966,74981,74989,74999,75006,75006,75014,75021,75029,75046,75054,75061,75076,75094,75101,75109,75119,75134,75141,75149,75156,75174,75181,75189,75199,75206,75221,75221,75229,75239,75246,75254,75254,75269,75276,75276,75286,75294,75301,75309,75319,75324,75334,75349,75366,75381,75389,75396,75396,75421,75429,75429,75439,75444,75454,75469,75476,75486,75494,75501,75509,75519,75526,75534,75549,75549,75559,75566,75566,75574,75581,75589,75606,75614,75621,75636,75646,75654,75661,75661,75676,75679,75686,75694,75694,75704,75704,75709,75716,75726,75734,75741,75749,75749,75759,75774,75781,75789,75796,75806,75814,75821,75839,75846,75854,75869,75894,75911,75924,75934,75949,75956,75966,75981,75989,75999,76021,76039,76061,76071,76109,76124" d="M73.5,154.5C74.3785,154.50017 74.48193,155.21617 74.5,156.14734C74.51801,157.07518 75.31808,157.49429 75.49866,158.30133C75.69489,159.17831 75.5,160.064 75.5,161C75.5,161.92534 75.5,162.78534 75.5,163.7C75.5,164.59984 75.59126,165.40802 76.07467,166.07466C76.59518,166.79248 76.3702,167.80037 76.85267,168.44733C77.36043,169.1282 77.37233,169.98288 77.85267,170.5045C78.35542,171.05046 78.78956,171.77849 79.416,172.416C80.00527,173.01569 80.44135,173.80009 80.5,174.69867C80.55576,175.55276 81.30081,176.1555 81.47916,176.97917C81.6817,177.91455 81.27354,178.87158 81.66666,179.66667C81.98636,180.31328 82.49467,181.06395 82.5,182C82.50527,182.92532 83.12056,183.28627 83.47916,184C83.86415,184.76627 84.00094,185.55814 84.3785,186.37866C84.73219,187.14731 84.71655,187.89671 85.216,188.584C85.73283,189.29518 85.5,190.2045 85.5,191.10001C85.5,192 85.55338,192.85387 86.07467,193.52533C86.5352,194.11855 86.5,195.07466 86.5,195.936C86.5,196.89999 86.49992,197.8 86.5,198.7C86.50008,199.59984 87.00819,200.1068 87.44283,200.85266C87.88122,201.60497 87.5,202.59984 87.5,203.5C87.5,204.416 87.28672,205.22906 87.5,206.14284C87.68108,206.91862 88.43912,207.59389 88.5,208.5C88.55363,209.2982 88.5,210.2 88.5,211.10001C88.5,212 88.40599,212.9471 88.85267,213.8C89.24661,214.55223 89.48134,215.3002 89.5,216.2C89.51868,217.10052 90.01743,217.81728 90.52533,218.56134C91.02421,219.29221 91.41628,220.1546 91.5,221.02083C91.58458,221.89592 91.39303,222.80655 91.50134,223.7C91.61282,224.61961 92.35594,225.17833 92.5,226.02083C92.64818,226.88742 92.5,227.8 92.5,228.69867C92.5,229.584 92.32645,230.53825 92.58533,231.3C92.8871,232.18791 93.48199,232.89946 93.5,233.8C93.51799,234.69981 93.5,235.60001 93.5,236.5C93.5,237.37883 93.5,238.20534 93.5,239.16667C93.5,240.06934 93.5,240.85184 93.5,241.73833C93.5,242.7215 93.5,243.59984 93.5,244.45183C93.5,245.36133 93.27766,246.04831 93.536,247.08934C93.75029,247.95285 94.49933,248.584 94.5,249.5C94.50064,250.37866 94.5,251.216 94.5,252.11067C94.5,253 94.36056,253.9684 94.784,254.69867C95.26311,255.52496 95.48939,256.20456 95.5,257.10001C95.51042,257.97934 96.31962,258.49591 96.5,259.33334C96.66367,260.09323 96.43997,261.15515 96.92533,261.88934C97.40769,262.61902 97.47463,263.5004 97.5,264.29999C97.52859,265.20139 98.0174,265.85037 98.416,266.70001C98.81957,267.56027 99.35542,268.17929 99.5,269.04166C99.65559,269.96973 99.58375,270.77188 100.07467,271.51468C100.52021,272.18881 100.49461,273.10004 100.5,274C100.50533,274.8894 101.23188,275.37592 101.4955,276.14734C101.77123,276.95419 101.49936,277.936 101.5,278.79999C101.50067,279.70001 101.83481,280.52371 102.216,281.21466C102.6384,281.98029 102.2837,283.02832 102.55717,283.79016C102.85798,284.62817 103.4705,285.14294 104,285.97916C104.45479,286.69736 104.5,287.60001 104.5,288.5C104.5,289.33334 104.5,290.2045 104.5,291.10001C104.5,292 104.40453,292.94455 104.784,293.70001C105.21958,294.5672 105.49775,295.20001 105.5,296.13599C105.50204,296.98401 105.34518,297.86081 105.51067,298.86401C105.65361,299.73056 106.43904,300.37115 106.5,301.11066C106.57306,301.99701 106.5,302.97916 106.5,303.85718C106.5,304.70001 106.29974,305.6615 106.66666,306.5C106.98845,307.23532 107.5,307.94284 107.5,308.85184C107.5,309.74283 107.42512,310.71506 107.58533,311.38535C107.81772,312.35754 108.33522,312.99112 108.47916,313.97916C108.61195,314.89059 108.5,315.79999 108.5,316.70001C108.5,317.60001 108.5,318.5 108.5,319.29999C108.5,320.21466 108.5,321.11066 108.5,322C108.5,322.89999 108.5,323.7955 108.5,324.66934C108.5,325.5 108.5,326.51468 108.5,327.41599C108.5,328.2045 108.5,329.14282 108.5,330C108.5,330.936 108.5,331.7955 108.5,332.72134C108.5,333.58401 108.5,334.5 108.5,335.30133C108.5,336.21466 108.16125,337.18832 108.52084,337.97916C108.8724,338.75235 109.5,339.33334 109.5,340.2045C109.5,341.10001 109.5,341.97916 109.5,342.85266L109.784,343.50134" id="svg_25" stroke-width="3" stroke="#000" fill="none"/>
  <path t="80415,80627,80627,80643,80661,80676,80701,80749,80789,80821,80861,80891,80901,80934,80964,80989,81044,81100,81125,81157,81205,81212,81252" d="M107.5,341.5C108.5,342.5 108.5,343.29999 108.5,344.20001C108.5,345.10001 108.5,345.97916 108.5,346.92532C108.5,347.784 108.5,348.72134 108.5,349.58401C108.5,350.47467 108.5,351.37866 108.5,352.216C108.5,353.11066 108.5,354 108.5,354.89999C108.5,355.7955 108.5,356.72134 108.5,357.58401C108.5,358.47467 108.5,359.37866 108.5,360.216L108.5,361.07468" id="svg_26" stroke-width="3" stroke="#000" fill="none"/>
  <path t="81914,81988,82022,82029,82037,82044,82054,82077,82087,82099,82117,82132,82142,82149,82164,82182,82197,82212,82222,82237,82244,82252,82259,82269,82269,82277,82292,82292,82302,82309,82317,82332,82349,82359,82364,82364,82374,82389,82397,82412,82429,82452,82459,82469,82469,82477,82484,82499,82517,82524,82532,82542,82552,82574,82589,82604,82612,82629,82637,82644,82652,82662,82692,82699,82724,82732,82749,82759,82789,82829" d="M107.5,359.5C108.216,360.216 108.45248,361.05365 108.85267,361.79999C109.30503,362.64365 110.00819,363.10678 110.44283,363.85266C110.88115,364.60483 110.5,365.58401 110.5,366.5C110.5,367.30133 110.5,368.20001 110.5,369.10001C110.5,370.064 110.5,370.936 110.5,371.79999C110.5,372.70001 110.5887,373.60422 110.5,374.5C110.41626,375.3457 109.5428,375.78238 109.5,376.70001C109.45807,377.59903 109.2822,378.46826 108.92533,379.10001C108.44936,379.9426 108.33181,380.83258 108,381.5C107.53386,382.43759 107.5,383.2045 107.5,384.14282C107.5,385.07468 107.6273,385.94611 107.4955,386.79999C107.35172,387.73138 106.64497,388.26816 106.50134,389.21466C106.36691,390.10052 106.5,390.97916 106.5,391.92532C106.5,392.85266 106.58015,393.72519 106.49983,394.60001C106.41615,395.51144 105.73897,396.03769 105.52084,397C105.32418,397.86758 105.5,398.784 105.5,399.7215C105.5,400.60001 105.5,401.5 105.5,402.37866C105.5,403.216 105.5,404.07468 105.5,405C105.5,405.85718 105.5,406.7955 105.5,407.7215C105.5,408.59982 105.5,409.47467 105.5,410.30133C105.5,411.21466 105.5,412.11066 105.5,413C105.5,413.89999 105.5,414.7955 105.5,415.72134L105.5,416.55267L105.5,417.47467L105.5,418.30133" id="svg_27" stroke-width="3" stroke="#000" fill="none"/>
  <path t="88140,88386,88438,88468,88493,88536,88572,88635,88676,88701,88724,88756,88796,88844,88861,88924,88939,88982,89022,89060,89085,89132,89165,89172,89287,89333,89373,89430,89477" d="M176.5,326.5C177.49867,328.21466 177.5,329.14734 177.5,330.07468C177.5,330.92532 177.5,331.85718 177.5,332.69867C177.5,333.66666 177.5,334.52533 177.5,335.41599C177.5,336.216 176.98016,336.66241 176.416,337.216C175.74384,337.87558 175.12021,338.27722 174.27867,338.50015C173.49852,338.70682 172.78339,339.37088 172.51067,340.07468C172.17613,340.93799 171.85265,341.49283 171,341.5C170.07463,341.50778 169.48921,342.05124 169,342.52084C168.44931,343.04947 167.784,343.49866 166.85266,343.55716L166.416,344.216" id="svg_29" stroke-width="3" stroke="#000" fill="none"/>
  <path t="89936,90081,90137,90181,90317,90358,90388,90390,90422,90452,90469,90545,90581,90621,90661,90711,90726,90757,90815,90861,90911,90916,90933,90966,90988,91021,91046,91061,91086,91136,91136,91197,91229,91237,91262,91299,91317,91324,91342,91357,91382,91404,91429,91444,91462,91469,91484,91492,91502,91509,91524,91557,91564,91582,91589,91597,91604,91614,91637,91647,91654,91662,91669,91677,91684,91699,91724,91732,91772,91782,91789,91804,91812,91829,91837,91852,91862,91877,91902,91924,91934,91949,91997,92022,92044,92062,92084" d="M165.5,345.5C166.416,345.784 167.12627,346.24277 167.47917,347C167.84137,347.77716 167.5,348.79999 167.5,349.69867C167.5,350.58401 167.5,351.47467 167.5,352.37866C167.5,353.216 167.5,354.11066 167.5,354.97916C167.5,355.92532 167.70996,356.80786 167.49983,357.72134C167.31891,358.50784 166.6209,358.9924 166.14734,359.50449C165.60501,360.09094 165.12895,360.57468 164.47467,361.07468C163.83073,361.56677 162.85364,361.37225 162.14734,361.85266C161.40247,362.35931 160.584,362.5 159.784,362.5C158.85266,362.5 157.97917,362.5 157.11067,362.5C156.14734,362.5 155.1998,362.215 154.416,362.58533C153.69653,362.92526 153.064,363.5 152.10001,363.5C151.2045,363.5 150.33333,363.5 149.44733,363.5C148.55267,363.5 147.69299,363.53836 146.97917,364C146.22989,364.48456 145.27867,364.5 144.44733,364.5C143.5,364.5 142.62134,364.5 141.7955,364.5C140.936,364.5 140,364.5 139.14284,364.5C138.2,364.5 137.3,364.5 136.40016,364.5C135.52533,364.5 134.69867,364.5 133.78534,364.5C132.88933,364.5 131.93292,364.60812 131.2045,364.14734C130.43225,363.65884 129.70976,363.39539 129,363C128.1237,362.51184 127.216,362.5 126.33334,362.5C125.44733,362.5 124.49955,362.52728 123.66666,362.5C122.7941,362.47141 122.14059,361.76404 121.33067,361.50134C120.54052,361.24506 119.52084,361.5 118.69867,361.5C117.78533,361.5 116.85629,361.62381 116.14733,361.14734C115.37863,360.63071 114.66566,360.74332 113.78533,360.5C112.98705,360.27936 112.2785,359.5 111.40017,359.5L110.52533,359.48932L109.92533,358.92532" id="svg_30" stroke-width="3" stroke="#000" fill="none"/>
  <path t="93256,93326,93326,93341,93364,93382,93412,93422,93429,93492,93509,93517,93542,93557,93564,93582,93597,93612,93644,93669,93677,93702,93717,93732,93757,93789,93812,93829,93829,93852,93862,93902,93917,93942,93942,93972,93997,94012,94022,94044,94069,94077,94092,94102,94132,94132,94142,94157,94172,94189,94207,94207,94222,94244,94277,94277,94294,94309,94317,94327,94342,94364,94372,94397,94404,94422,94447,94477,94484,94502,94539,94579,94597,94637,94694,94740,94755,94780,94795,94813,94845,94860" d="M167.5,340.5C167.5,341.5 167.5,342.30133 167.5,343.21466C167.5,344.14734 167.3365,345.08038 167.784,345.784C168.28743,346.57556 169.27936,346.98706 169.5,347.78534C169.74367,348.66696 169.5,349.60001 169.5,350.5C169.5,351.37866 169.5,352.216 169.5,353.11066C169.5,353.97916 169.5,354.92532 169.5,355.78534C169.5,356.69867 169.5,357.58401 169.5,358.47467C169.5,359.30133 169.31927,360.23386 169.5,361.07468C169.68036,361.91382 170.43912,362.59387 170.5,363.5C170.55363,364.29819 170.28572,365.2247 170.5,366.14282C170.68108,366.91864 171.23376,367.66003 171.66667,368.5C172.03439,369.21347 172.23059,369.96667 172.5045,370.85266C172.72632,371.57016 173.49222,372.07465 173.5,373C173.50717,373.85263 174.22678,374.31628 174.5,374.936C174.84673,375.72247 174.80107,376.57166 175.216,377.30133C175.65433,378.07211 175.45886,379.05209 175.92534,379.89999C176.32733,380.63071 176.73967,381.45139 177.14734,382.14282C177.58327,382.88217 177.29951,383.9213 177.66667,384.66666C178.0376,385.41965 178.32863,386.12021 178.52083,387C178.70479,387.84207 179.49466,388.52527 179.5,389.41599C179.50549,390.33331 179.49051,391.1474 179.5,392.02084C179.51042,392.97934 180.2587,393.44141 180.4955,394.2045C180.75052,395.02628 181.35432,395.54398 181.49867,396.30133C181.69189,397.31509 182.23807,397.88367 182.5,398.72134C182.75784,399.54596 182.5,400.47467 182.5,401.37866C182.5,402.216 182.5,403.07468 182.52083,404L183.11067,404.52533L183.88933,404.936L184.41467,405.69867" id="svg_31" stroke-width="3" stroke="#000" fill="none"/>
  <path t="95720,95851,95867,95867,95867,95893,95900,95918,95925,95933,95940,95958,95973,96005,96030,96053,96070,96093,96118,96125,96158,96180,96198,96205,96220,96238,96253,96260,96285,96293,96308,96325,96333,96340,96365,96388,96398,96405,96420,96438,96453,96478,96485,96493,96500,96525,96533,96540,96558,96573,96588,96595,96605,96613,96620,96628,96645,96653,96660,96668,96678,96693,96700,96725,96725,96733,96755,96765,96805,96813,96845,96885,96925,96988,97072,97116,97149,97259,97275,97318,97358,97390,97435,97460,97518,97533,97573,97605,97635,97675,97715,97748,97798,97918" d="M174.5,336.5C176.33333,336.66666 176.5,337.5 176.5,338.29999C176.5,339.20001 176.35161,340.11261 176.5,340.97916C176.64406,341.82037 177.47141,342.44571 177.5,343.2045C177.53534,344.14215 177.5,345.07468 177.5,345.92532C177.5,346.85718 177.22586,347.77045 177.58533,348.58401C177.92366,349.34976 178.35934,350.13806 178.85266,350.85266C179.34814,351.57037 179.5,352.37866 179.5,353.2045C179.5,354.10001 179.3302,355.06116 179.784,355.784C180.2811,356.57581 180.5,357.33334 180.5,358.14734C180.5,359.02084 180.40599,359.94708 180.85266,360.79999C181.24661,361.55222 181.5,362.37866 181.5,363.216C181.5,364.14734 181.19749,365.07919 181.51067,365.88934C181.81717,366.68219 182.49774,367.14734 182.5,368.07468C182.50224,369 182.34377,369.92899 182.784,370.69867C183.23244,371.4827 183.48927,372.21606 183.5,373.11066C183.51042,373.97934 184.31686,374.42178 184.5,375.07468C184.72974,375.89371 184.96054,376.67932 185.33333,377.5C185.6848,378.27377 185.5,379.11066 185.5,380C185.5,380.97916 185.96054,381.67932 186.33333,382.5C186.6848,383.27377 186.47717,384.14474 187,384.97916C187.45137,385.69952 187.31866,386.65347 187.66667,387.5C187.94257,388.17108 188.48958,388.97897 188.5,389.85718C188.50998,390.69861 188.5,391.66666 188.5,392.52533C188.5,393.41599 188.5,394.33334 188.5,395.11066C188.5,396.064 188.54736,396.89282 189.07466,397.52533C189.62419,398.18448 190.1255,398.84106 190.784,399.41467C191.37132,399.9263 191.40974,400.58847 191.5,401.5C191.58374,402.3457 192.45729,402.78091 192.5,403.66666C192.54137,404.52432 192.5,405.41599 192.5,406.2045C192.5,407.14282 192.5,408.07468 192.5,408.92532L192.5,409.85266L192.50017,410.72134L192.85266,411.44733" id="svg_32" stroke-width="3" stroke="#000" fill="none"/>
  <path t="101867,101980,101995,102013,102053,102086,102116,102217,102233,102303,102319,102382,102404,102470,102516,102574,102672" d="M181.5,403.5C182.41467,403.784 182.73724,404.46237 183.216,405.216C183.66313,405.91983 183.50922,406.92657 184,407.5C184.52379,408.112 185.19748,408.74854 185.5,409.66666C185.76872,410.48221 186.00797,410.94797 186.49867,411.58533C187.05666,412.31009 186.50017,413.37866 187,414L187.784,414.5" id="svg_33" stroke-width="3" stroke="#000" fill="none"/>
  <path t="103438,103687,103753,103769,103839,103839,103885" d="M191.5,409.5C191.5,410.30133 191.44284,411.20001 191,411.97916L190.33333,412.66666L189.784,413.216L188.92534,413.5" id="svg_34" stroke-width="3" stroke="#000" fill="none"/>
  <path t="106476,106584,106628,106661,106676,106701,106726,106773,106789,106804,106812,106844,106884,106892,106902,106932,106964,106989,107004,107012,107029,107062,107069,107102,107132,107142,107164,107189,107204,107262,107285,107292,107325,107357,107390,107405,107430,107437,107470,107500,107525,107565,107612,107637,107677,107710,107725,107757,107772,107780,107830,107852,107877,107892,107910,107940,107950,107980,107990,108012,108020,108055,108085,108100,108132,108165,108197,108205,108237,108292,108292" d="M167.5,356.5C166.5045,358.20001 166.5,359.14282 166.5,360.07468C166.5,360.92532 166.5,361.85266 166.5,362.72134C166.5,363.66666 166.5,364.5 166.5,365.41599C166.5,366.216 166.44609,367.17679 166.85266,367.85718C167.31941,368.63831 167.63216,369.44962 168.07466,370.11066C168.60762,370.90683 168.96054,371.67932 169.33333,372.5C169.6848,373.27377 169.07002,374.27209 169.536,375.07468C169.93837,375.7677 170.41087,376.20319 170.92534,376.92532C171.41721,377.61575 171.15013,378.62744 171.66667,379.33334C172.14542,379.98758 172.49939,380.66666 172.5,381.5C172.50067,382.41599 173.23958,382.89136 173.5,383.784C173.74721,384.63135 173.22052,385.68552 173.72133,386.37866C174.22691,387.0784 174.5,387.72134 174.5,388.66666C174.5,389.5 174.5,390.41599 174.5,391.216C174.5,392.14734 174.5,393 174.5,393.92532C174.5,394.85266 174.5,395.7215 174.5,396.59982C174.5,397.5 174.5,398.41599 174.5,399.2045C174.5,400.10001 174.5,401.064 174.5,401.92532C174.5,402.85718 174.5,403.69867 174.5,404.66666C174.5,405.5 174.5,406.41599 174.5,407.216C174.5,408.14734 174.5,409.02084 174.5,409.88934C174.5,410.85266 174.5,411.72134 174.5,412.66666C174.5,413.5 174.5,414.41599 174.5,415.2045L174.55716,416.14282" id="svg_35" stroke-width="3" stroke="#000" fill="none"/>
  <path t="117821,118064,118110,118125,118150,118198,118213,118237,118287,118382,118421,118431,118446,118461,118478,118486,118501,118518,118526,118533,118566" d="M125.5,238.5C126.41467,238.784 126.5,239.66667 126.5,240.52533C126.5,241.30133 126.5,242.33333 126.5,243.14734C126.5,244.07466 126.5,244.92534 126.5,245.85716C126.5,246.7 126.5,247.59984 126.5,248.52533C126.5,249.30133 126.45798,250.2088 126,250.97917C125.51582,251.79361 125.5,252.66667 125.5,253.59984L125.5,254.44733L125.5,255.33333" id="svg_36" stroke-width="3" stroke="#000" fill="none"/>
  <path t="121259,121576,121622,121662,121710,121735,121790,121806,121839,121891,121925,121950,122025,122062,122102,122109,122157,122182,122229,122245,122278,122330,122346,122407,122437,122447,122469,122487,122487,122527,122549,122582,122622,122647,122677,122694,122709,122709" d="M142.5,246.5C142.5,247.37866 142.50966,248.21606 142.5,249.07466C142.48958,250.00018 141.68037,250.49591 141.5,251.33333C141.3286,252.12909 141.5,253.07466 141.5,253.936C141.5,254.88933 141.5,255.784 141.5,256.66666C141.5,257.52533 141.56914,258.39417 142.07466,259.07468C142.56787,259.73862 142.89754,260.26364 143.44733,260.85718C144.06325,261.52209 144.37868,262.37866 144.92534,262.92532C145.58401,263.58401 146.30908,264.04105 147,264.52084C147.64874,264.97137 147.92683,265.90881 148.59984,266.59982C149.13562,267.14993 149.94246,267.57758 150.48933,268.07468C151.02473,268.56134 151.69368,269.07584 152.47467,269.46399C153.22289,269.83585 154.064,270.07468 154.83333,270.66666L155.5,271" id="svg_37" stroke-width="3" stroke="#000" fill="none"/>
 </g>
</svg>