<svg width="500.00000000000006" height="332.409972299169" xmlns="http://www.w3.org/2000/svg" xmlns:svg="http://www.w3.org/2000/svg" xmlns:xlink="http://www.w3.org/1999/xlink">
 <!-- Created with SVG-edit - http://svg-edit.googlecode.com/ -->
 <g display="inline" class="layer">
  <title>Layer 1</title>
  <path t="0,50,118,132,210,218,219,240,241,244,244,246,261,274,291,298,311,324,341,350,366,374,382,402,418,418,434,450,458,473,473,477,493,518,523,542,557,561,577,586,591,599,613,625,647,657,674,690,697,707,718,734,741,757,774,777,786,793,803,818,825,825,834,857,861,877,893,914,940,945,957,961,974,982,991,1008,1013,1025,1034,1042,1050,1057,1066,1082,1095,1096,1105,1111,1118,1135" d="M411.07144,121.56213C412.64609,120.56213 413.23105,121.20184 414.06076,121.55146C414.88052,121.89688 415.79553,121.89411 416.42325,122.26663C417.20648,122.73144 417.78976,123.31758 418.72409,123.85763C419.39651,124.24629 420.30844,124.53353 421.2381,124.56213C422.12366,124.58936 422.95374,124.65245 423.6821,125.1368C424.40701,125.61885 425.35544,125.56213 426.29276,125.56213C427.12408,125.56213 428.07144,125.56213 428.90475,125.56213C429.78741,125.56213 430.64609,125.56213 431.63943,125.56213C432.36609,125.56213 433.35544,125.56213 434.29276,125.56213C435.12408,125.56213 436.07144,125.56213 436.87143,125.56213C437.7861,125.56213 438.64609,125.56213 439.59225,125.56213C440.46075,125.56213 441.35544,125.56213 442.29276,125.56213C443.12408,125.56213 444.07144,125.56213 444.90475,125.56213C445.77594,125.56213 446.63544,125.56213 447.59225,125.56213C448.46075,125.56213 449.35544,125.56213 450.29276,125.56213C451.1286,125.56213 452.07144,125.56213 452.90475,125.56213C453.78741,125.56213 454.64609,125.56213 455.59225,125.56213C456.46075,125.56213 457.35544,125.56213 458.29294,125.56213C459.17142,125.56213 460.07196,125.53292 460.90475,125.56213C461.72025,125.59073 462.22574,126.47839 463.07144,126.56213C463.86752,126.64095 464.7861,126.56213 465.6821,126.56213C466.63544,126.56213 467.49677,126.56213 468.4241,126.56213C469.29276,126.56213 470.36008,126.34756 470.98743,126.84613C471.60815,127.33945 472.36749,127.53035 473.29276,127.56213C474.12555,127.59073 474.66251,128.38182 475.50742,128.56213C476.35242,128.74246 477.27014,128.55003 478.2381,128.56213C479.07162,128.57256 479.6185,129.30905 480.47144,129.52612C481.34,129.74716 482.34875,129.40416 483.17142,129.78346C483.83966,130.09157 484.71426,130.55763 485.59225,130.58296L486.36694,130.9193L486.95026,131.66196" id="svg_1" stroke-width="3" stroke="#000" fill="none"/>
  <path t="2040,2202,2246,2262,2294,2390,2482,2562,2578,2730,2750,2766,2834,2857,2878,2917,2918,2929,2969,2986,2991,3013,3024,3030,3057,3098,3098,3134,3141,3174,3186,3202,3234,3242,3257,3270,3278,3302,3314,3329,3342,3345,3361,3375,3382,3391,3409,3417,3434,3458,3465,3490,3502,3517,3526,3542,3550,3570,3585,3593,3601,3628,3632,3641,3645,3661,3677,3691,3697,3707,3723,3730,3745,3746,3757,3774,3783,3791,3798,3813,3825,3834,3841,3850,3858,3867,3878,3887,3893,3909,3925,3940,3946,3961,3978,3993,4002,4014,4029,4045,4057,4066,4082,4094,4109,4124,4134,4158,4182,4189,4202,4218,4242,4277,4302,4310,4331,4362,4382,4409,4414,4423,4445,4465,4485,4491,4498,4509,4518,4525,4534,4541,4542,4550,4558,4566,4571,4571,4577,4587,4593,4594,4603,4610,4610,4618,4625,4635,4635,4640,4646,4646,4657,4658,4661,4671,4671" d="M483.07144,127.56213C484.71875,127.56213 485.66916,127.58088 486.07144,127.06213C486.44638,126.57861 487.61432,126.97121 488.07144,126.39546C488.62515,125.69804 488.60403,124.41589 488.07144,123.7288C487.66193,123.20048 487.39087,122.93058 487.07144,122.06213C486.84485,121.44603 486.32434,121.18971 485.90475,120.39546C485.54187,119.70856 485.30121,118.95585 485.07144,118.1368C484.88828,117.48389 484.11923,117.03722 483.64609,116.55146C483.1207,116.01206 483.16858,115.16789 483.07144,114.20947C482.98767,113.3828 482.21552,112.88252 482.07144,112.0413C481.90967,111.09671 482.31485,110.03279 481.78741,109.56213C481.22827,109.06317 481.07208,108.39546 481.07144,107.5368C481.07077,106.64746 480.34714,106.52761 480.07144,105.84613C479.76126,105.07941 479.07144,104.4768 479.07144,103.56213C479.07144,102.64613 478.68027,102.27469 478.1286,101.55763C477.59442,100.8633 478.41818,99.78458 478.07144,98.99813C477.79822,98.37842 477.0737,97.9148 477.07144,96.98746C477.06937,96.12613 477.07144,95.1728 477.07144,94.27813C477.07144,93.39546 477.07144,92.52613 477.07144,91.7608C477.07144,90.7288 477.26633,89.89409 477.07144,88.98746C476.89108,88.14832 476.13235,87.46879 476.07144,86.6148C476.00842,85.73104 476.07144,84.95146 476.07144,83.96213C476.07144,83.08296 476.07144,82.20947 476.07144,81.27813C476.07144,80.39546 476.07144,79.4623 476.07144,78.6148C476.07144,77.7288 476.07144,76.91479 476.07144,75.99413C476.07144,75.13013 475.84933,74.11987 476.29276,73.3408C476.72089,72.5886 477.07144,71.95146 477.07144,71.08296C477.07144,70.1368 477.07144,69.27679 477.07144,68.36213C477.07144,67.4623 477.07144,66.56213 477.07144,65.7608C477.07144,64.84747 477.68964,64.21974 477.98608,63.36346C478.27707,62.52297 478.07144,61.56213 478.07144,60.64746C478.07144,59.85763 478.07144,58.9193 478.07144,58.06213C478.07144,57.1368 478.07144,56.20496 478.07144,55.36346C478.07144,54.4768 477.65744,53.34933 478.2381,52.7288C478.82468,52.10192 479.07144,51.58746 479.07144,50.68346C479.07144,49.84613 479.07144,48.98746 479.07144,48.06213C479.07144,47.20946 479.07144,46.27813 479.07144,45.3408C479.07144,44.50946 479.07144,43.58746 479.07144,42.68363C479.07144,41.84613 479.11188,41.02901 479.57144,40.5413C480.11923,39.95997 480.07144,39.06213 480.07144,38.1368C480.07144,37.20946 479.9357,36.25729 480.4241,35.6148C480.92969,34.94971 480.81897,34.17421 481.07275,33.27813C481.29361,32.49837 481.94852,32.03281 482.07144,31.1728C482.19327,30.32053 482.85739,29.65723 483.10742,28.95146C483.40292,28.11737 484.27231,27.54002 484.71426,26.86213C485.19275,26.12821 485.59323,25.21589 485.9501,24.46213C486.35449,23.60807 486.65585,22.96667 487.07144,22.06213C487.43723,21.26604 488.16077,20.63502 488.63544,19.96213C489.15378,19.22732 489.33926,18.34664 489.87277,17.76213C490.52966,17.04244 490.88455,16.20266 491.29294,15.46213C491.66492,14.78764 492.59244,14.21469 492.90475,13.39546C493.20749,12.60137 493.29294,11.58363 493.6821,10.9728L494.36694,10.26213L494.90475,9.56213L495.12408,8.80496" id="svg_2" stroke-width="3" stroke="#000" fill="none"/>
  <path t="6319,6506,6515,6530,6542,6551,6567,6581,6591,6591,6595,6619,6630,6641,6650,6667,6670,6678,6686,6694,6701,6717,6729,6730,6741,6754,6761,6771,6777,6790,6799,6809,6814,6824,6829,6846,6858,6866,6874,6892,6897,6908,6917,6934,6950,6958,6967,6974,6986,6993,7003,7010,7025,7034,7045,7055,7061,7070,7070,7078,7086,7093,7107,7114,7125,7125,7130,7145,7157,7162,7167,7175,7182,7193,7209,7214,7225,7234,7242,7250,7266,7275,7295,7299,7302,7313,7326,7342,7350,7362,7370,7377,7393,7402,7417,7424,7430,7446,7455,7470,7482,7491,7497,7509,7525,7541,7542,7550,7558,7575,7581,7593,7598,7610,7612,7612,7617,7626,7634,7641,7650,7658,7666,7670,7671,7677,7686,7694,7694,7702,7702,7709,7718,7718,7725,7734,7734,7742,7746,7746,7755,7755,7761,7770,7770,7778,7778,7786,7794,7794" d="M434.07144,4.56213C434.07159,5.44063 434.89429,5.61919 435.07144,6.50496C435.22122,7.25394 435.81146,7.93499 436.07144,8.84613C436.31363,9.69492 436.31964,10.51264 436.71875,11.26213C437.15552,12.08232 437.07144,12.99813 437.07144,13.95146C437.07144,14.84746 437.07144,15.66196 437.07144,16.58746C437.07144,17.36346 437.07144,18.26213 437.07144,19.16213C437.07144,20.06213 437.07144,21.0413 437.07144,21.9148C437.07144,22.89546 437.07144,23.56213 437.07144,24.5768C437.07144,25.47813 437.07144,26.26663 437.07144,27.16213C437.07144,28.12613 436.76846,29.05113 437.08209,29.95146C437.34491,30.7059 438.04285,31.26619 438.07144,32.2288C438.09619,33.06176 438.07144,33.91479 438.07144,34.84746C438.07144,35.7608 438.07144,36.6148 438.07144,37.50946C438.07144,38.36346 438.07144,39.27679 438.07144,40.1368C438.07144,41.06213 438.07144,41.9193 438.07144,42.86213C438.07144,43.7608 438.07144,44.6148 438.07144,45.56213C438.07144,46.39546 438.07144,47.26663 438.07144,48.12613C438.07144,48.99813 438.07144,49.95146 438.07144,50.84746C438.07144,51.76213 438.07144,52.66213 438.07144,53.56213C438.07144,54.36213 438.07144,55.26213 438.07144,56.16213C438.07144,57.0413 438.1824,57.96684 437.78741,58.76213C437.35574,59.63128 437.0737,60.26212 437.07144,61.20496C437.06937,62.08296 437.33926,63.00453 437.06693,63.85763C436.80499,64.67813 436.12747,65.22032 435.64609,65.95146C435.15076,66.70374 435.11606,67.56326 435.07144,68.4408C435.02872,69.28138 434.15515,69.71679 434.07144,70.58746C433.99716,71.3599 434.42368,72.50361 434.01425,73.20947C433.54568,74.01728 433.07144,74.5368 433.07144,75.36346C433.07144,76.27679 432.40552,76.85233 432.07144,77.7288C431.77554,78.50513 431.13232,78.77736 431.07144,79.66196C431.00961,80.56 430.89197,81.13042 430.35544,81.64746C429.70193,82.27724 430.53354,83.48898 430.07144,84.27679C429.73831,84.84472 429.08322,85.27821 429.07144,86.20947C429.06039,87.08314 428.73349,87.87147 428.07144,88.56213C427.50903,89.14882 427.19342,89.92298 427.0701,90.84747C426.95853,91.68375 426.16379,92.38259 426.07144,93.1368C425.95895,94.0555 425.32437,94.55982 425.10742,95.4128C424.88379,96.29203 424.61874,96.98183 423.97159,97.66213C423.41385,98.24845 423.23959,99.07951 423.06076,99.96213C422.87042,100.90163 422.03824,101.43767 421.57144,102.08296C420.98877,102.88841 421.29245,103.84812 420.84991,104.66196C420.4462,105.40441 419.3577,105.57831 419.01877,106.3238C418.62906,107.18096 418.42184,107.94784 417.87143,108.6768C417.32315,109.40292 416.67142,109.96214 415.97144,110.66213C415.37143,111.26214 414.63016,111.77399 414.19275,112.66213C413.87045,113.31656 413.43033,114.17739 412.97144,114.88346C412.54214,115.54399 412.00229,116.34848 411.50742,117.15147C411.02567,117.9332 410.88559,118.90034 410.5506,119.56213C410.11646,120.41977 409.59225,121.0413 409.12408,121.86213L408.7861,122.76213L408.27008,123.36213" id="svg_3" stroke-width="3" stroke="#000" fill="none"/>
  <path t="9071,9129,9138,9154,9170,9186,9192,9198,9198,9214,9226,9229,9242,9246,9259,9266,9277,9282,9293,9314,9318,9326,9349,9394,9486,9502,9508,9524,9530,9542,9545,9555,9566,9575,9592,9598,9609,9614,9629,9634,9642,9657,9666,9676,9676,9691,9694,9701,9710,9725,9735,9741,9750,9758,9762,9771,9777,9793,9802,9809,9819,9824,9830,9846,9858,9862,9871,9871,9877,9887,9891,9908,9914,9924,9930,9941,9946,9958,9966,9975,9982,9992,10008,10010,10019,10025,10034,10042,10051,10059,10075,10077,10098,10099,10102,10118,10134,10141,10146,10158,10170,10186,10186,10193,10207,10214,10225,10230,10242,10246,10261,10262,10265,10282,10297,10309,10309,10325,10326,10335,10342,10342,10351,10366,10375,10382,10393,10403,10425,10435,10450,10462,10471,10486,10493,10503,10518,10541,10554,10561,10577,10582,10598,10609,10615,10626,10638,10643,10643,10658,10675" d="M410.07144,112.56213C408.46075,112.56213 407.50742,112.56213 406.64609,112.56213C405.71875,112.56213 404.84991,112.56213 403.97144,112.56213C403.07144,112.56213 402.27142,112.56213 401.2381,112.56213C400.46075,112.56213 399.57144,112.56213 398.67142,112.56213C397.77594,112.56213 396.84991,112.56213 395.97144,112.56213C395.07144,112.56213 394.46518,112.07833 393.78741,111.64746C392.99298,111.14243 391.90762,111.89139 391.09225,111.56213C390.32492,111.25225 389.33759,110.98576 389.29276,110.56213C389.20895,109.77023 390.50647,109.87704 391.07159,109.3408C391.65845,108.78392 392.48535,108.45805 392.94992,107.68346C393.35583,107.0067 393.90948,106.39642 394.07144,105.58746C394.24313,104.72979 394.89294,104.26155 395.07159,103.4623C395.25983,102.62022 395.91687,102.24255 396.4241,101.6148C396.91183,101.01119 396.97128,100.19884 397.07275,99.36213C397.18427,98.44253 397.92737,97.8838 398.07144,97.0413C398.23648,96.07613 398.07144,95.16213 398.07144,94.26663C398.07144,93.39546 398.07144,92.46213 398.07144,91.56213C398.07144,90.7288 398.07144,89.85763 398.07144,88.96213C398.07144,88.06213 397.95425,87.16493 398.07275,86.27679C398.18433,85.44051 398.98764,84.74203 399.07144,83.95146C399.16519,83.06709 399.07144,82.1728 399.07144,81.27679C399.07144,80.36213 399.07144,79.46213 399.07144,78.56213C399.07144,77.76213 399.07144,76.86213 399.07144,75.96213C399.07144,75.08296 399.53604,74.38466 399.90475,73.56213C400.27057,72.74603 400.07144,71.85763 400.07144,70.96213C400.07144,70.08296 400.07144,69.20496 400.07144,68.26213C400.07144,67.36213 400.07144,66.4623 400.07144,65.58746C400.07144,64.6833 399.73083,63.72802 400.2381,62.89546C400.67169,62.18382 401.07144,61.56213 401.07144,60.7608C401.07144,59.86213 401.07144,58.9193 401.07144,58.0413C401.07144,57.17279 401.07144,56.2288 401.07144,55.4128C401.07144,54.47946 401.07144,53.56213 401.07144,52.68346C401.07144,51.85763 401.07144,50.96213 401.07144,50.08296C401.07144,49.1368 401.07144,48.2288 401.07144,47.4128C401.07144,46.47946 401.07144,45.56213 401.07144,44.6833C401.07144,43.8568 401.07144,42.89546 401.07144,42.0413C401.07144,41.17279 401.07144,40.2288 401.07144,39.4128C401.07144,38.47946 400.89557,37.54432 401.07159,36.6833C401.25156,35.80297 401.92783,35.16203 402.07144,34.20496C402.1965,33.37146 402.07144,32.46213 402.07144,31.56213C402.07144,30.76213 402.25659,29.82049 402.03543,28.95146C401.81836,28.09852 401.11417,27.36665 401.07144,26.50946C401.02533,25.58411 400.84805,24.65311 401.07144,23.84613C401.29211,23.04903 402.07144,22.39546 402.07144,21.5368C402.07144,20.64613 402.07144,19.85763 402.07144,18.9193C402.07144,17.98746 402.07144,17.1368 402.07144,16.20496C402.07144,15.36346 402.07144,14.39546 402.07144,13.5368C402.07144,12.64613 402.25647,11.83067 402.03543,10.96213C401.81836,10.10919 401.07144,9.39546 401.07144,8.56213L401.07144,7.76213L401.07144,6.7288L401.1286,5.9148" id="svg_4" stroke-width="3" stroke="#000" fill="none"/>
  <path t="11403,11494,11509,11530,11538,11555,11561,11571,11578,11587,11591,11599,11609,11614,11614,11625,11630,11646,11646,11655,11660,11666,11675,11675,11682,11693,11698,11708,11714,11717,11725,11735,11742,11758,11766,11782,11787,11794,11810,11818,11825,11834,11846,11861,11878,11887,11894,11903,11910,11914,11925,11941,11955,11971,11975,11983,11997,12009,12015,12024,12030,12042,12050,12058,12066,12076,12076,12082,12097,12102,12109,12110,12110,12118,12136,12141,12142,12151,12151,12159,12163,12171,12171,12178,12187,12187,12194,12194,12202,12213,12213,12213,12218,12218,12226,12230,12230" d="M427.07144,4.56213C427.07144,5.44063 427.07144,6.27813 427.07144,7.1728C427.07144,8.0413 427.05215,8.98024 426.57144,9.56213C426.07306,10.16544 426.07144,11.06213 426.07144,11.96213C426.07144,12.86213 426.07144,13.76213 426.07144,14.66213C426.07144,15.56213 425.87061,16.398 426.1286,17.26213C426.38498,18.12089 427.07144,18.89546 427.07144,19.58296C427.07144,20.54046 427.07144,21.50946 427.07144,22.3238C427.07144,23.2148 427.07144,24.07813 427.07144,25.0413C427.07144,25.96213 427.07144,26.86213 427.07144,27.76213C427.07144,28.66196 427.07144,29.50946 427.07144,30.36346C427.07144,31.26213 427.07144,32.12613 427.07144,32.99813C427.07144,33.95146 427.07144,34.84746 427.07144,35.7608C427.07144,36.6148 427.07144,37.56213 427.07144,38.39546C427.07144,39.26663 427.07144,40.12613 427.07144,41.06213C427.07144,41.91479 427.07144,42.84746 427.07144,43.76213C427.07144,44.66196 427.07144,45.50946 427.07144,46.36346C427.07144,47.26213 427.07144,48.12613 427.07144,49.06213C427.07144,49.91479 427.07144,50.84746 427.07144,51.7608C427.07144,52.6148 427.07144,53.56213 427.07144,54.39546C427.07144,55.26663 427.07144,56.16213 427.07144,57.0413C427.07144,57.9193 427.07144,58.86213 427.07144,59.76213C427.07144,60.66213 427.07144,61.56213 427.07144,62.36213C427.07144,63.26213 427.07144,64.16213 427.07144,64.98346C427.07144,65.89546 427.07144,66.8128 427.07144,67.55679C427.07144,68.59013 427.07144,69.51846 427.07144,70.41547C427.07144,71.08296 427.07144,72.2288 427.07144,73.02046C427.07144,73.96213 427.07144,74.86213 427.07144,75.76347C427.07144,76.44746 426.92828,77.42365 427.2381,78.39546C427.46448,79.10561 428.01895,80.04336 428.06076,80.73679C428.11743,81.6765 428.24005,82.72805 428.49677,83.39813C428.78964,84.16261 429.01425,85.15763 429.06693,85.90496L429.08209,86.9368L429.29276,87.88346L429.57144,88.56213" id="svg_5" stroke-width="3" stroke="#000" fill="none"/>
  <path t="13099,13167,13174,13178,13187,13194,13194,13203,13210,13210,13219,13225,13225,13235,13235,13235,13241,13241,13248,13248,13267,13267,13267,13271,13271,13271,13279,13279,13286,13286,13294,13298,13309" d="M485.07144,108.56213C485.90475,108.39546 485.74875,107.4081 486.29276,106.68346C486.77603,106.03972 487.2623,105.43611 487.77594,104.86213C488.43396,104.1268 489.27554,103.54211 489.71426,102.86213C490.19958,102.10993 490.2453,101.21673 490.6131,100.5413C491.16861,99.5211 491.73761,98.98167 492.21008,98.39813C492.85373,97.60319 493.07217,96.79184 493.42859,95.90496C493.7359,95.1403 494.16013,94.35598 494.59225,93.5413C494.94739,92.87174 495.55621,91.88077 495.88611,91.34747C496.36465,90.57384 496.83105,89.70576 497.1196,88.81396C497.35748,88.07879 497.71875,87.2148 498.01425,86.3238L498.15677,85.47813L498.78741,84.84613" id="svg_6" stroke-width="3" stroke="#000" fill="none"/>
  <path t="13775,13850,13866,13878,13887,13894,13903,13910,13918,13925,13926,13930,13941,13941,13946,13955,13962,13962,13971,13971,13977,13986,13994,13999" d="M487.07144,109.56213C487.07144,109.20947 487.68362,109.4885 488.42859,109.91479C489.21838,110.36676 489.97662,110.66255 490.6821,111.1368C491.41254,111.62782 492.42148,111.43047 493.17142,111.78346C493.94696,112.14851 494.7074,112.55679 495.72409,112.56213C496.41876,112.56577 497.43542,112.56213 498.37592,112.56213C499.2381,112.56213 500.1163,112.42856 501.04993,112.78346C501.70953,113.0342 502.5506,113.56213 503.09677,114.1368L503.77594,114.55763L504.71426,114.61929" id="svg_7" stroke-width="3" stroke="#000" fill="none"/>
  <path t="28295,28351,28396,28414,28447,28493,28501,28511,28514,28534,28547,28550,28579,28581,28593,28599,28599,28611,28619,28627,28646,28650,28666,28667,28670,28687,28694,28703,28710,28731,28738,28755,28763,28771,28787,28798,28810,28830,28855,28882,28958,28982,28994,29010,29018,29034,29046,29062,29071,29079,29086,29122,29122,29123,29139,29146,29162,29177,29177,29182,29206,29211,29216,29223,29230,29244,29260,29266,29282,29293,29298,29303,29311,29326,29334,29350,29361,29362,29378,29394,29403,29411,29427,29430,29446,29455,29462,29478,29488,29492,29498,29511,29514,29526,29539,29539,29555,29560,29566,29567,29578,29582,29598,29610,29610,29618,29628,29628,29634,29643,29650,29661,29666,29666,29678,29686,29694,29695,29702,29711,29727,29735,29744,29747,29762,29771,29778,29787,29794,29809,29823,29823,29839,29855,29862,29871,29877,29882,29898,29910,29915,29930,29935,29944,29950,29962,29962,29978,29982,29994,29995,30003,30011,30020,30027,30027,30044,30050,30062,30063,30072,30078,30078,30087,30097,30103,30112,30118,30124,30130,30139,30140,30146,30155,30162,30171,30178,30187,30187,30194,30198,30211,30215,30225,30232,30238,30246,30250,30262,30266,30279,30282,30294,30298,30311,30312,30328,30334,30350,30363,30366,30379,30387,30394,30403,30418,30434,30446,30456,30462" d="M5.07143,85.56213C6.71876,85.56213 7.6461,85.56213 8.49676,85.56213C9.4241,85.56213 10.46682,85.91368 11.07143,85.39546C11.67928,84.87446 12.27011,84.56744 13.15676,84.56213C14.04614,84.55679 14.56542,83.78156 15.4286,83.56213C16.24416,83.3548 17.29535,83.74178 18.07143,83.39546C18.80443,83.06837 19.50743,82.56213 20.47143,82.56213C21.36693,82.56213 22.23809,82.56213 23.1241,82.56213C24.07143,82.56213 24.87159,82.57839 25.71426,82.56213C26.64662,82.54413 27.06571,81.74403 27.87276,81.56346C28.76406,81.36404 29.46538,81.34176 30.15543,80.84613C30.8936,80.31594 31.87276,80.56213 32.71426,80.56213C33.6461,80.56213 34.53062,80.50237 35.06076,79.98746C35.53751,79.52442 36.65564,79.766 37.07143,79.27813C37.55755,78.70774 38.15676,78.56213 39.05059,78.56213C39.87276,78.56213 40.78609,78.56213 41.6461,78.56213C42.57143,78.56213 43.24889,78.0975 44.07143,77.7288C44.88753,77.36298 45.78743,77.56213 46.73543,77.56213C47.57143,77.56213 48.21943,77.56213 49.35676,77.56213C50.2701,77.56213 51.15676,77.56213 52.07143,77.56213C52.87143,77.56213 53.52149,77.22909 54.23809,76.7288C54.9553,76.22809 55.87276,76.56213 56.77143,76.56213C57.71426,76.56213 58.6461,76.56213 59.50743,76.56213C60.46076,76.56213 61.35676,76.56213 62.17126,76.56213C63.09676,76.56213 64.00298,76.95451 64.78609,76.4768C65.58958,75.98666 66.15543,75.56213 67.0461,75.56213C67.87276,75.56213 68.8129,75.60401 69.49677,75.1368C70.27126,74.60766 71.09676,74.56213 71.87276,74.56213C72.90476,74.56213 73.71877,74.56213 74.59226,74.56213C75.47143,74.56213 76.46076,74.56213 77.35677,74.56213C78.17126,74.56213 79.09226,74.56213 79.9221,74.56213C80.90209,74.56213 81.6821,74.56213 82.63543,74.56213C83.51409,74.56213 84.3661,74.56213 85.35677,74.56213C86.17142,74.56213 87.07143,74.56213 87.87143,74.56213C88.77143,74.56213 89.71426,74.56213 90.6131,74.56213C91.55409,74.56213 92.3616,74.56213 93.35677,74.56213C94.17159,74.56213 94.95676,74.56213 95.88609,74.56213C96.90209,74.56213 97.6821,74.56213 98.59226,74.56213C99.55409,74.56213 100.3616,74.56213 101.35677,74.56213C102.17142,74.56213 103.07143,74.56213 103.87143,74.56213C104.77143,74.56213 105.71426,74.56213 106.59226,74.56213C107.47143,74.56213 108.37143,74.56213 109.2701,74.56213C110.2381,74.56213 111.09226,74.56213 111.9221,74.56213C112.90209,74.56213 113.71877,74.56213 114.6461,74.56213C115.51409,74.56213 116.3661,74.56213 117.35543,74.56213C118.2381,74.56213 119.09226,74.56213 119.9221,74.56213C120.90209,74.56213 121.71877,74.56213 122.59226,74.56213C123.47143,74.56213 124.46076,74.56213 125.35677,74.56213C126.17126,74.56213 127.09226,74.56213 127.93276,74.56213C128.90475,74.56213 129.70976,74.56213 130.59225,74.56213C131.47144,74.56213 132.37143,74.56213 133.27142,74.56213C134.17126,74.56213 135.09225,74.56213 135.93275,74.56213C136.90475,74.56213 137.70976,74.56213 138.59225,74.56213C139.47144,74.56213 140.37143,74.56213 141.27142,74.56213C142.17143,74.56213 143.07143,74.56213 143.87143,74.56213C144.77142,74.56213 145.67143,74.56213 146.57143,74.56213C147.47144,74.56213 148.37143,74.56213 149.27142,74.56213C150.17143,74.56213 151.07143,74.56213 151.87143,74.56213C152.77142,74.56213 153.67145,74.55679 154.57143,74.56213C155.47148,74.56747 156.29024,75.06263 157.07143,75.39546C157.82297,75.71566 158.77142,75.56213 159.67143,75.56213C160.57143,75.56213 161.47144,75.56213 162.36693,75.56213C163.24077,75.56213 164.17719,75.37887 164.96159,75.91479C165.63829,76.37713 166.37143,76.56213 167.27142,76.56213C168.17126,76.56213 169.09676,76.56213 169.87276,76.56213C170.77142,76.56213 171.67143,76.56213 172.63542,76.56213C173.50743,76.56213 174.46075,76.56213 175.35677,76.56213C176.17143,76.56213 177.07143,76.56213 178.01877,76.56213C178.77592,76.56213 179.67143,76.56213 180.63542,76.56213C181.49677,76.56213 182.4241,76.56213 183.07277,76.84613L183.50743,77.52613L184.36693,77.56213" id="svg_8" stroke-width="3" stroke="#000" fill="none"/>
  <path t="31180,31231,31231,31238,31263,31276,31293,31310,31314,31323,31327,31335,31350,31361,31361,31367,31377,31387,31394,31403,31411,31418,31443,31454,31462,31471,31488,31494,31494,31511,31514,31523,31530,31540,31546,31555,31571,31578,31582,31594,31598,31610,31615,31624,31630,31639,31682,31718,31726,31745,31750,31761,31770,31778,31787,31794,31794,31811" d="M195.07143,89.56213C192.90475,86.39546 192.22229,86.17632 191.42859,85.56663C190.93839,85.19007 190.47133,84.75231 190.07143,84.20947C189.53973,83.48775 189.51833,82.59201 189.01427,81.91479C188.55824,81.30212 187.45918,81.13587 187.0701,80.27679C186.72195,79.50811 186.59084,78.62389 186.01877,77.9193C185.51663,77.30082 185.00336,76.66409 184.57143,76.0413C184.00739,75.228 183.50966,74.60503 183.07593,73.91479C182.65529,73.24538 182.24345,72.4866 181.9861,71.7608C181.68327,70.90675 180.86406,70.15805 180.07143,69.7288C179.40547,69.36814 178.67393,68.8925 178.15543,68.27679C177.59511,67.61145 177.2381,66.7288 176.64609,66.1368C175.98743,65.47813 175.36284,64.97082 174.71877,64.20496C174.13301,63.50845 173.75645,62.81257 173.15543,62.27813C172.50937,61.70365 171.7404,61.37529 171.2381,60.56213C170.76642,59.79854 170.38019,59.17405 169.71877,58.6193C169.17883,58.16644 168.87846,57.56689 168.4241,56.91479C167.92769,56.20235 167.53128,55.397 167.10742,54.58746C166.69818,53.80586 166.15677,53.27679 166.07126,52.46213L165.90475,51.56213L165.4241,50.9193L165.07143,50.1368" id="svg_9" stroke-width="3" stroke="#000" fill="none"/>
  <path t="32632,32698,32714,32719,32727,32735,32745,32760,32760,32777,32778,32788,32788,32803,32818,32818,32828,32846,32862,32878" d="M191.07143,84.56213C191.71877,85.61929 192.52361,85.95124 193.0506,86.6038C193.55927,87.23366 193.49472,88.12722 193.9861,88.84613C194.50407,89.60397 194.76923,90.28526 195.09225,91.08296C195.4108,91.86957 196.15576,92.48885 196.63542,93.12613C197.17735,93.84614 197.41986,94.69578 197.78743,95.36346C198.2485,96.20101 198.07143,97.1368 198.57143,97.56213L199.07143,97.98746" id="svg_10" stroke-width="3" stroke="#000" fill="none"/>
  <path t="33393,33451,33467,33478,33487,33487,33494,33494,33503,33511,33511,33518,33518,33528,33528,33534,33534,33539,33539,33546,33546,33555,33556,33556,33562,33562,33571,33572,33578,33578,33587,33587,33587,33594,33594,33603,33603,33603,33610,33610,33615,33615,33615,33624,33630,33630,33639,33639,33646,33646" d="M198.07143,84.56213C198.07143,84.91479 197.38875,84.59267 197.0461,83.91547C196.65025,83.13314 196.39503,82.19595 195.87276,81.44746C195.38248,80.74481 195.1059,79.90543 194.7861,79.07813C194.51083,78.36603 193.78011,77.5016 193.42859,76.80946C192.9977,75.96104 193.10246,75.11041 192.50209,74.44746C191.84795,73.72514 190.89792,73.41639 190.37593,72.80496C189.80075,72.13123 189.46931,71.35254 188.97144,70.36213C188.67015,69.76278 188.27832,68.95864 187.87143,68.16346C187.47807,67.39471 186.85027,66.4622 186.37143,65.80946C185.84633,65.09365 185.47139,64.32606 184.90475,63.56213C184.44684,62.94477 183.89124,62.40354 183.09293,61.58346C182.58875,61.06553 181.97794,60.23657 181.5506,59.5413C181.19167,58.95733 180.54652,58.19498 179.93275,57.36213C179.36411,56.5905 179.20384,55.75498 178.98877,55.04746C178.72122,54.16733 177.93414,53.49448 177.47144,52.92613C176.81558,52.12054 176.47144,51.38746 175.97159,50.5838L175.42859,49.9238" id="svg_11" stroke-width="3" stroke="#000" fill="none"/>
  <path t="33880,33903,33910,33919,33919,33922,33923,33930,33947,33947,33954,33970,33983,34009,34016,34030,34067,34083,34101,34106,34110,34119,34119,34127,34135,34144,34144,34144,34150,34151,34160,34160,34166,34166,34166,34171,34171,34178,34178,34187,34188,34188,34188,34194,34194,34194,34203,34203,34211,34211,34211,34219,34219,34219,34227,34227,34235,34235,34235,34240,34240,34246,34247,34255,34256,34262" d="M197.07143,78.56213C198.09676,81.15147 198.62308,81.91722 198.90475,82.7288C199.18214,83.52802 198.89319,84.57948 199.15677,85.36079C199.4115,86.11587 200.41302,86.69958 200.78743,87.36346C201.22299,88.13581 200.91144,89.15073 201.07143,90.06213C201.21559,90.88342 201.26669,92.32085 202.07143,92.27813C202.36168,92.26272 202.22629,91.04744 202.06076,90.12613C201.9175,89.32873 201.15157,88.64537 201.06693,87.85229C200.9808,87.04535 200.52625,86.25766 200.15543,85.36079C199.77435,84.43912 199.59367,83.74403 199.35542,82.96079C199.0571,81.98006 199.07744,81.14672 198.78743,80.16213C198.60725,79.55042 198.19044,78.56847 198.10742,77.76213C198.02541,76.96559 198.12952,75.95553 198.01427,75.16213C197.86667,74.14609 197.43413,73.3413 197.2381,72.39546C197.07614,71.61403 197.07776,70.75152 197.07277,70.1608C197.06265,68.96351 197.07198,68.08296 197.07143,67.24746C197.07076,66.24613 197.11334,65.55255 196.90475,64.39546C196.76146,63.60057 196.45074,62.79766 196.2381,61.7288C196.09802,61.02469 196.08884,60.16647 196.0701,59.1608C196.05855,58.5411 195.92039,57.39157 195.71877,56.61396C195.51268,55.81917 195.17453,54.90434 195.09225,54.08296C194.99208,53.08289 195.03543,52.38746 194.78743,51.44613L194.35542,50.67813L194.10742,49.74746" id="svg_12" stroke-width="3" stroke="#000" fill="none"/>
  <path t="34480,34502,34503,34511,34511,34518,34518,34528,34544,34550,34550,34595,34602" d="M197.07143,74.56213C198.06076,77.15147 198.00897,77.99287 198.29276,78.88346C198.5155,79.58248 199.00926,80.5341 199.0701,81.36079C199.13733,82.27432 199.50743,82.99813 200.17126,83.66196L200.7861,84.27679L201.57143,84.5413L202.06693,83.91479" id="svg_13" stroke-width="3" stroke="#000" fill="none"/>
  <path t="34880,34903,34910,34919,34928,34928,34931,34931,34938,34938,34938,34946,34947,34947,34955,34955,34955,34962,34962,34963,34963,34971,34971,34971,34971,34978,34979,34979,34979,34986,34986,34986,34997,34997,34997,34997,34997,35000,35000,35000,35006,35006,35006,35006,35015,35015,35015,35024,35024,35024,35024,35030,35030,35030,35040,35040,35046,35046,35054" d="M202.07143,44.56213C202.07143,46.36213 202.07086,47.26213 202.07143,48.08296C202.0721,49.04746 202.03381,49.78947 202.29276,50.76213C202.5107,51.58076 202.94998,52.55612 203.03543,53.3728C203.10278,54.01655 203.07143,54.98363 203.07143,55.79813C203.07143,56.66663 203.06326,57.86225 203.07593,58.46213C203.09492,59.36248 203.21996,60.56601 203.35677,61.16213C203.56485,62.06886 203.77898,62.66113 204.17126,63.8623C204.36847,64.46613 204.66347,65.39226 204.7861,66.04746C205.04604,67.43624 205.04337,68.18723 205.06076,68.9368C205.07796,69.67799 205.05746,70.74105 205.08209,71.73679C205.09819,72.38776 205.22868,73.7304 205.35542,74.44613C205.48701,75.18925 205.65964,75.93434 205.78743,76.67813C205.96947,77.73766 206.03723,78.73755 206.09676,79.38747C206.21979,80.7306 206.3508,81.4457 206.49677,82.1768C206.64151,82.90173 206.92383,84.22637 206.9861,84.79279C207.09393,85.77371 207.0591,86.72897 207.07593,87.51929C207.09412,88.37318 207.09648,88.97512 207.35677,90.15946C207.54837,91.03128 207.83978,91.80916 208.36693,92.7523C208.76187,93.45889 209.01427,94.2148 209.0701,95.07813L209.07143,96.0413" id="svg_14" stroke-width="3" stroke="#000" fill="none"/>
  <path t="35751,35807,35818,35818,35829,35834,35844,35845,35845,35850,35850,35861,35862,35867,35867,35867,35877,35878,35878,35879,35879,35879,35887,35887,35887,35894,35894,35903,35904,35911,35911,35919,35919,35919,35928,35928" d="M212.07143,80.56213C212.07143,80.91479 212.07143,79.9928 212.07143,79.2103C212.07143,78.19813 212.16524,77.33958 211.90475,76.39546C211.7139,75.70373 211.27611,74.97555 211.1286,73.96213C211.01312,73.16876 211.12593,72.15775 211.03543,71.36213C210.92047,70.35146 210.53224,69.55278 210.35542,68.87679C210.09735,67.89018 210.09628,67.03857 209.98743,66.1608C209.87556,65.25877 209.63118,64.37653 209.4241,63.51929C209.17493,62.48782 209.09065,61.79866 209.07277,60.96346C209.05133,59.96236 209.07143,59.16213 209.07143,58.16213C209.07143,57.36213 209.07143,56.36213 209.07143,55.56213C209.07143,54.56213 209.07143,53.76213 209.07143,52.96213L209.07143,51.96663L209.07143,51.2193" id="svg_15" stroke-width="3" stroke="#000" fill="none"/>
  <path t="36475,36543,36550,36561,36566,36578,36578,36578,36578,36579,36587,36587,36594,36594,36603,36604,36611,36611,36611,36620,36620,36627,36627,36635,36640,36646,36646,36656,36656,36662,36671,36678" d="M217.07143,81.56213C217.07143,79.95146 217.01848,79.02737 217.4241,78.26213C217.87251,77.4162 218.19748,76.52934 218.71809,75.92613C219.34644,75.1981 219.89722,74.73725 220.41876,74.2148C221.18544,73.4468 221.79657,72.8346 222.01877,71.90496C222.19421,71.17092 222.29781,70.13217 222.71809,69.36213C223.17522,68.5246 223.7576,67.99767 224.3616,67.2193C224.93993,66.47401 225.13095,65.66961 225.4241,64.90946C225.76114,64.03552 225.98668,63.07851 226.07593,62.25763C226.17076,61.38548 226.65395,60.59057 226.90475,59.7288C227.1499,58.88646 227.10742,57.96213 227.49677,57.16213L227.98743,56.36213" id="svg_16" stroke-width="3" stroke="#000" fill="none"/>
  <path t="37056,37099,37159,37182,37182,37193,37193,37198,37202,37202,37212,37212,37212,37218,37218,37218,37228,37228,37228,37235,37235,37235,37245,37245,37245,37250,37251,37251,37260,37260,37260,37266,37267,37271,37271,37278,37278,37286,37294,37294,37311" d="M231.07143,59.56213C231.07143,57.91479 231.15469,58.16239 230.8501,59.00496C230.57054,59.77827 230.30705,60.57806 229.98743,61.3608C229.62053,62.25927 229.21582,63.0625 229.0101,63.7728C228.7151,64.79137 228.16954,65.34045 227.77676,66.01929C227.24121,66.94489 227.14674,67.78944 227.02325,68.60947C226.86752,69.64359 226.63905,70.33825 226.36693,71.01479C225.97646,71.98557 225.70209,72.80613 225.31425,73.60947C224.80322,74.66797 224.41975,75.10577 223.89676,75.75146C223.23933,76.56313 222.66188,77.35083 222.43309,78.01929C222.11137,78.95927 222.15399,79.7847 222.01877,80.5523C221.80399,81.77155 221.33961,82.2929 220.77142,83.2148C220.35085,83.89719 219.76813,84.60921 219.35677,85.36079C218.92796,86.14423 218.78743,87.0448 218.4241,87.85229L218.07143,88.78346" id="svg_17" stroke-width="3" stroke="#000" fill="none"/>
  <path t="38380,38471,38475,38494,38514,38524,38530,38545,38550,38566,38577,38582,38603,38628,38644,38650,38662,38678,38687" d="M221.07143,83.56213C220.03543,85.1368 219.22475,85.51815 219.07143,86.20947C218.88223,87.06248 218.42749,87.68263 218.08209,88.58746C217.76443,89.41962 217.6656,89.83298 217.10742,90.5728C216.63072,91.20463 217.07143,92.27679 217.07143,93.1368C217.07143,94.06213 216.64609,94.5728 216.08209,95.1368L216.07143,96.06213L215.64609,96.5728L215.09225,97.06213" id="svg_18" stroke-width="3" stroke="#000" fill="none"/>
  <path t="38929,39003,39010,39027,39035,39046,39062,39078,39101,39104,39111,39131,39147,39167,39178,39199,39223,39235,39244,39250,39278,39282,39303,39318,39329,39361,39379,39411,39418,39422,39447,39471,39493,39498" d="M218.07143,93.56213C216.49677,94.59813 215.76488,95.03087 215.2381,95.7288C214.7209,96.41405 214.50989,96.80245 213.90475,97.39546C213.29469,97.99331 212.8562,98.50124 211.97159,98.56213C211.13058,98.62002 210.2381,98.56213 209.4241,98.56213C208.5506,98.56213 207.59225,98.56213 206.71877,98.56213C205.78743,98.56213 204.90475,98.56213 203.97159,98.56213C203.1286,98.56213 202.2381,98.56213 201.4241,98.56213C200.49677,98.56213 199.61223,98.50237 199.08209,97.98746C198.60535,97.52442 197.56364,97.75725 196.8501,97.3408C196.1026,96.90453 195.4241,96.56213 194.57143,96.56213L194.07143,96.1368L194.06693,95.20947L193.57143,94.58296" id="svg_19" stroke-width="3" stroke="#000" fill="none"/>
  <path t="40036,40090,40112,40117,40123,40131,40139,40146,40155,40155,40162,40171,40183,40194,40199,40238,40267,40283,40293,40298,40310,40318,40328,40329,40335,40345,40345,40351,40351,40361" d="M217.07143,77.56213C217.64609,77.98746 217.20003,78.73772 217.07126,79.66196C216.95953,80.46384 216.25885,80.9867 215.78743,81.7608C215.35083,82.4777 215.29771,83.33271 214.9861,83.99413C214.5999,84.81387 214.38422,85.41201 214.07143,86.39546C213.84785,87.09841 213.10004,87.85622 213.07143,88.7288C213.04601,89.50454 213.07143,88.6148 213.07143,87.7608C213.07143,86.86213 213.07143,85.99813 213.07143,85.11546C213.07143,84.2408 213.07143,83.38747 213.07143,82.44746C213.07143,81.46196 213.07143,80.6768 213.07143,79.73679L213.07143,79.04613L213.07143,77.97279" id="svg_20" stroke-width="3" stroke="#000" fill="none"/>
  <path t="41224,41342,41360,41367,41367,41378,41386,41470,41494,41503,41503,41506,41522,41531,41538,41554,41563,41570,41583,41599,41607,41630,41642,41642,41650,41669,41684,41699,41703,41711,41711,41719,41734,41734,41746,41751,41763,41764,41771,41778,41787,41795,41813,41819,41831,41840,41846,41862,41879,41894,41907,41915,41924,41939,41947" d="M173.07143,48.56213C170.64609,49.56213 169.8864,50.0103 169.07143,50.39546C168.42178,50.70248 167.42859,50.56213 166.49677,50.56213C165.64609,50.56213 165.25262,51.00625 164.7861,51.7608C164.40234,52.38148 163.29938,52.47725 162.64609,52.98746C161.91196,53.56081 161.4059,54.33335 160.71426,54.91479C160.01765,55.50043 159.58032,56.07946 158.90475,56.56213C158.20955,57.05882 157.39609,57.08969 157.07143,57.91479C156.74313,58.74911 156.65068,59.55523 156.01877,60.20496C155.3914,60.85003 154.99959,61.3259 154.07143,61.56213C153.24785,61.77174 152.74872,62.46839 151.92209,62.55146C150.99339,62.6448 150.03499,62.73028 149.27142,62.4768C148.49927,62.22045 147.66156,61.69658 146.77142,61.55763C145.95264,61.42981 145.25134,60.64593 144.46075,60.56213C143.57639,60.46839 142.64738,60.31664 141.78743,60.56346C141.01717,60.78455 140.69374,61.37872 139.87276,61.56346C139.06992,61.74413 138.78743,62.56213 137.8501,62.56213C136.9861,62.56213 136.07143,62.56213 135.2381,62.7288L135.01427,63.55763L134.19276,63.78346L133.71877,64.50496" id="svg_21" stroke-width="3" stroke="#000" fill="none"/>
  <path t="42051,42087,42099,42129,42155,42163,42203,42219,42230" d="M130.07143,66.56213C128.27142,66.56213 127.38513,66.49043 126.6461,66.98746C125.9684,67.44325 125.4241,66.91479 124.6461,66.56213L123.71877,66.56213L122.8501,66.56213" id="svg_22" stroke-width="3" stroke="#000" fill="none"/>
  <path t="42367,42412,42429,42434,42445" d="M119.07143,66.56213C116.57143,66.56213 115.71877,66.55763 115.07143,66.06213L114.49677,65.5368" id="svg_23" stroke-width="3" stroke="#000" fill="none"/>
  <path t="42771,42803,42819,42829,42895,42914,42923,42931,42946,42956,42962,42977,42983,42998,43027" d="M109.07143,51.56213C108.4241,50.56213 108.0388,49.982 107.35543,49.56346C106.64954,49.13113 106.07143,48.39546 106.07143,47.4623C106.07143,46.6148 105.65459,46.00722 105.19293,45.3408C104.69684,44.62466 105.07143,43.56213 105.07143,42.68363L104.57143,42.06213L104.29276,41.56213" id="svg_24" stroke-width="3" stroke="#000" fill="none"/>
  <path t="43187,43215,43230,43240,43248,43255,43279,43293,43307,43315,43324,43331,43339,43351,43361,43366,43378,43383,43394,43403,43420,43420,43428,43435,43445,43461,43478,43495,43519,43531,43546,43556,43571,43571,43579,43595,43608,43615,43639,43639,43646,43656,43661,43682,43682,43706,43715,43727,43735,43745,43761,43766,43767,43778,43783,43787,43795,43803,43803,43815,43819,43827,43827,43835,43846" d="M106.07143,37.56213C105.07143,36.58296 104.58561,35.89899 104.09676,35.17279C103.64693,34.50456 102.7472,33.85076 103.07143,33.06213C103.3403,32.40814 104.4585,32.34531 104.90476,31.56213C105.34911,30.78231 105.86906,30.32548 106.07143,29.47813C106.27564,28.62304 106.78386,28.16048 107.07593,27.26663C107.32584,26.50177 108.29041,26.30046 108.98609,25.64746C109.58965,25.08094 110.34354,24.47368 110.71877,23.85763C111.21741,23.03895 111.04735,22.02304 111.71877,21.56663C112.45385,21.06694 112.98273,20.50069 113.07143,19.58296C113.15515,18.71672 113.75435,18.41476 114.2381,17.7288C114.74138,17.01514 115.2381,16.39546 115.77592,15.85763C116.46076,15.17279 117.24329,14.87493 117.9501,14.3408C118.59084,13.85659 119.16936,13.30515 119.77592,12.9148C120.5655,12.40666 121.0323,11.7968 121.57143,11.08296C122.14858,10.31876 122.77403,9.83244 123.4241,9.20946C124.11026,8.55189 124.86124,8.5144 125.15676,7.7608C125.48757,6.91719 126.40777,6.69982 127.17142,6.3408C127.94712,5.97611 128.79828,5.7481 129.67143,5.52613C130.53372,5.30692 131.16531,4.62302 132.07143,4.56213C132.86963,4.50849 133.76001,4.48313 134.59225,4.06213C135.38231,3.66246 136.2101,3.5368 137.0101,3.1368L137.64609,2.5728" id="svg_25" stroke-width="3" stroke="#000" fill="none"/>
  <path t="44257,44287,44355,44367,44416,44416,44451,44467,44495,44512,44528,44545,44555,44595,44608,44639,44646,44662,44677,44683,44691,44714,44731,44735,44751,44766,44782,44795,44827,44845,44861,44865,44895,44939,44946,44947,44956,44963,44972,44978,44987,44988,44994,44999,45007,45015,45024,45031" d="M111.07143,47.56213C110.07143,48.5413 109.37641,48.04204 109.07143,47.20946C108.78563,46.42927 108.36762,45.31807 107.49677,45.56213C106.86468,45.73927 107.07143,46.98746 107.07143,47.84613C107.07143,48.78346 107.07143,49.6193 107.07143,50.5413C107.07143,51.44063 106.67476,52.39423 107.10743,53.1368C107.51087,53.82919 108.16365,54.09958 108.6461,54.59813C109.19542,55.16579 109.06649,56.20498 109.07143,57.06213C109.07676,57.98751 109.84526,58.4372 110.07143,59.06213C110.3616,59.8639 110.63867,60.20892 111.07143,60.84613C111.56733,61.57632 111.37917,62.65419 111.0701,63.47813C110.7634,64.29574 109.73974,65.0564 110.29293,65.56229C110.88042,66.09955 111.72404,66.3623 112.57143,66.5413C113.45223,66.72735 114.43985,66.60104 115.09226,67.06213C115.76112,67.53484 116.58876,67.56146 117.5506,67.56213C118.47143,67.56276 119.37143,67.56213 120.27143,67.56213L121.17126,67.56213L122.0461,67.56213" id="svg_26" stroke-width="3" stroke="#000" fill="none"/>
  <path t="45699,45739,45761,45778,45791,45799,45819,45835,45851,45851,45862,45871,45871,45879,45887,45895,45904,45912,45919" d="M175.07143,49.56213C177.4241,49.91479 178.07593,50.56213 178.94994,50.56213C179.77592,50.56213 180.71426,50.56213 181.57143,50.56213C182.49677,50.56213 183.40475,50.56213 184.22076,50.56213C185.1541,50.56213 186.07143,50.56213 186.8286,50.56213C187.71959,50.56213 188.7381,50.56213 189.59225,50.56213L190.46075,50.55146L191.09676,49.98746L191.77592,49.56663" id="svg_27" stroke-width="3" stroke="#000" fill="none"/>
  <path t="46252,46287,46303,46315,46323,46331,46340,46356,46362,46372,46383,46394,46408,46415,46444,46461,46467,46483,46492,46502,46512,46519,46545,46550,46567,46579,46603,46619,46663,46671,46687,46699,46715,46747,46783,46799,46808,46819,46829,46835,46835,46846,46851,46867,46878,46883,46894,46995,47011,47047,47054,47071,47083,47099,47122,47160,47167,47183" d="M198.07143,48.56213C198.07143,46.7288 198.46172,46.2478 199.2381,45.7288C199.94461,45.25651 201.07658,45.92748 201.78743,45.4768C202.52496,45.00919 203.00233,44.71211 203.71877,45.20946C204.42412,45.69912 205.09059,46.10479 205.57143,46.58296C206.09546,47.10409 206.57143,47.56213 207.50743,47.56213C208.36693,47.56213 209.29276,47.56213 210.15543,47.56213C211.0461,47.56213 211.99829,47.10003 212.7861,47.56213C213.35402,47.89524 213.75929,48.57386 214.07143,49.20946C214.46228,50.00534 214.98221,50.65185 215.07143,51.55763C215.15517,52.40776 216.36171,52.12704 216.94994,52.78346C217.5136,53.41248 217.06996,54.53353 217.90475,54.56213C218.71829,54.59 219.59225,54.56213 220.5506,54.56213C221.42859,54.56213 222.42149,54.69379 223.17143,54.3408C223.94696,53.97576 224.67139,53.56746 225.63542,53.56213C226.50742,53.5573 227.37614,53.47015 228.2701,53.56213C229.08427,53.6459 229.1286,54.56213 230.01427,54.56213C230.90475,54.56213 230.72043,55.35315 231.07143,56.1368C231.34535,56.74837 232.06693,57.20946 232.49677,57.98746L233.1286,58.50496L233.71877,57.91479L234.49677,57.56213" id="svg_28" stroke-width="3" stroke="#000" fill="none"/>
  <path t="47687,47715,47731,47739,47755,47755,47762,47767,47767,47778,47783,47783,47792,47799,47799,47808,47808,47808,47815,47815,47824,47831,47831,47835,47835,47846,47851,47851,47861,47867,47878,47891,47911,47936,47952,47963,47979,48003,48012,48019,48024,48040,48047,48056,48056,48062,48071,48078,48079,48092,48092,48100,48107,48107,48124,48131,48139,48147,48161,48183,48198,48211,48219,48229,48235,48247,48251,48261,48267,48279,48288,48295,48295,48304,48312,48319,48329,48335,48340,48347,48347,48355,48362,48371,48379,48388,48396,48403,48403,48408,48415,48424,48431,48440,48446,48456,48456,48467,48482,48492,48508,48515,48523,48535,48551,48562,48591,48613,48643,48655,48687,48695,48703,48712,48723,48731,48755,48756,48840,48867,48875,48900,48919,48945,48961,48967,48979,48995" d="M233.07143,56.56213C233.10742,55.5728 233.9583,55.483 234.64609,54.98746C235.35176,54.47903 236.25676,54.56213 237.1861,54.56213C238.07143,54.56213 238.88185,54.66256 239.70743,54.52613C240.57913,54.38208 241.38847,53.79789 242.31876,53.6193C243.22336,53.44563 244.09225,53.56213 245.07143,53.56213C245.87143,53.56213 246.67212,53.52937 247.66693,53.56663C248.41559,53.59467 249.22717,54.0948 250.1716,54.44063C250.91747,54.71375 251.91719,54.46473 252.58743,54.64746C253.60725,54.92551 254.08958,55.76915 254.77142,56.20496C255.59541,56.73163 256.30801,57.25556 257.15543,57.56079C258.013,57.86969 259.12781,57.99988 259.78741,57.4768C260.47461,56.93183 260.90475,56.56213 261.71875,56.56213C262.59225,56.56213 263.57144,56.56213 264.47144,56.56213C265.36694,56.56213 266.2381,56.56213 267.17142,56.56213C268.07144,56.56213 268.87143,56.56213 269.77142,56.56213C270.59225,56.56213 271.5596,56.65612 272.3616,56.56213C273.31238,56.45071 273.84088,55.71576 274.70743,55.5728C275.70615,55.40803 276.56131,55.70044 277.35675,55.27813C278.15292,54.85544 278.98047,54.78552 279.78741,54.56213C280.58453,54.34146 281.2449,53.66968 282.09225,53.56213C282.97113,53.45058 283.35571,52.63544 284.27008,52.56213C285.12326,52.49373 285.47461,51.84389 286.07144,51.08296C286.56253,50.45686 287.60617,50.61503 288.37143,50.20946C289.21732,49.76116 290.10788,49.73027 290.87143,49.4768C291.64362,49.22045 292.53726,48.72142 293.27008,48.27813C294.04303,47.81056 294.45673,47.04177 295.37143,46.6148C296.13766,46.25713 296.83829,45.71627 297.67142,45.5728C298.55844,45.42004 299.54007,45.70194 300.27008,45.27813C301.09689,44.79813 301.5676,44.01566 302.27142,43.36346C302.8519,42.82558 303.68964,42.57132 304.47144,42.1368C305.29074,41.68144 305.88293,41.07295 306.50742,40.58746C307.25339,40.00751 308.00775,39.49027 308.63544,38.99813C309.29782,38.47877 310.29276,38.56213 311.12408,38.56213C312.07144,38.56213 312.44489,38.10092 313.10742,37.5728C313.81662,37.00747 314.21506,37.00885 314.78741,36.56213C315.34467,36.12719 315.72302,35.40054 316.07144,34.52613C316.3967,33.70988 316.08612,32.72866 316.07144,31.95146C316.05344,30.99762 315.53351,30.4536 315.07126,29.68346C314.66089,28.99975 313.76309,28.50745 313.35544,27.84613C312.88086,27.07623 312.90683,25.93148 312.09225,25.58296C311.2652,25.22911 310.45969,25.49752 310.07144,24.98746C309.66556,24.45424 309.07593,23.9148 309.07144,22.98746L309.57144,22.56213" id="svg_29" stroke-width="3" stroke="#000" fill="none"/>
  <path t="49058,49079,49088,49088,49099,49108,49116,49124" d="M314.07144,18.56213C314.07144,16.7288 314.20361,15.84467 314.07144,15.13013C313.89209,14.16067 313.09677,13.58746 312.46075,12.98746L311.6821,12.59813" id="svg_30" stroke-width="3" stroke="#000" fill="none"/>
  <path t="49236,49278,49283,49288,49303,49319,49329,49335,49351,49355,49395,49408,49408,49415,49424,49435,49435,49439,49439,49447,49447,49463,49463,49464,49471,49483,49484,49491,49508" d="M309.07144,9.56213C309.07144,7.95146 309.07144,7.06213 309.07144,6.1728C309.07144,5.20946 309.07144,4.34063 309.07144,3.4623C309.07144,2.5368 309.55527,1.95593 309.98608,1.27813C310.49106,0.48366 309.95087,-0.47582 309.35544,-1.15254C308.75793,-1.8316 307.90421,-2.15797 307.07144,-2.60454C306.39429,-2.96766 306.04422,-3.81186 305.5506,-4.41704C304.84503,-5.28205 304.01428,-5.25035 303.09293,-5.65937C302.30276,-6.01014 301.9664,-7.01739 301.08609,-7.40187C300.29193,-7.74871 299.31442,-7.6592 299.03543,-8.4272L298.1286,-8.43787" id="svg_31" stroke-width="3" stroke="#000" fill="none"/>
  <path t="51812,52079,52134,52135,52199,52383,52427,52455,52472,52488,52539,52572,52660,52719,52735,52751,52855,52907,52940,52968,52984,53051,53087,53155,53179,53207,53291,53323,53360,53378,53444,53462,53479,53531,53592,53599,53652,53667,53715,53848,53880,53895,53924,53948,53992,54008,54023,54067,54092,54155,54188,54203,54323,54376,54427,54446,54475,54504,54599,54743,54915,54930,54964,54992,55043,55119,55136,55171,55187,55227,55239,55296,55300,55348,55407,55428,55547,55555,55603,55676,55776,55872,55904,55991,56048,56059,56120,56127,56211,56288,56307,56340,56377,56407,56423,56476,56483,56560,56588,56656,56732,56767,56783,56835,56867,56879,56940,56947,56988,57024,57067,57067,57076,57116,57160,57199,57211,57249,57304,57319,57512,57519,57566,57569,57596,57612,57629,57639,57655,57699,57707,57731,57767,57807,57836,57843,57862,57896,57936,57952,58012,58056,58131,58167,58287,58328,58500,58536,58552,58596,58615,58648,58687,58732,58763,58784,58800,58815,58844,58884,58904,58960,59020,59039,59123,59131,59159,59215,59230,59246,59276,59320,59356,59380,59396,59415,59464,59526,59536,59592,59603,59636,59748,59780,59832,59860,59980,59996,60096,60224,60267,60431,60552,60584,60636,60672,60687,60703,60719,60748,60788,60816,60856,60908,60945,60951,60984,61028,61046,61132,61139,61180,61192,61199,61215,61335,61395,61419,61440,61463,61496,61508,61508,61560,61592,61619,61646,61660,61676,61687,61744,61764,61804,61848,61872,61876,61916,61968,61992,62036,62062,62103,62188,62199,62252,62352,62404,62488,62555,62572,62591,62599,62616,62635,62647,62676,62711,62736,62779,62840,62856,62960,63020,63360,63368,63392,63420,63446,63480,63504,63580,63592,63608,63668,63707,63730,63772,63856,63924,63931,63956,64024,64028,64096,64164,64203,64224,64256,64272,64352,64368,64443,64451,64496,64600,64700,64719,64729" d="M221.07143,142.56213C219.49677,141.56213 218.61224,141.50237 218.08209,140.98746C217.60535,140.52443 216.86757,139.97792 217.35542,139.56213C217.92581,139.07602 218.15677,138.56213 219.06076,138.56213C219.94994,138.56213 220.43216,139.3898 221.29276,139.56213C222.07356,139.71849 222.14752,138.87154 222.9861,138.56213C223.70831,138.29565 224.60199,137.96121 225.07143,137.39546C225.60405,136.75356 226.20094,137.10768 226.90475,136.56213C227.43307,136.15262 227.69887,135.60905 228.07143,135.1368C228.48903,134.60744 229.60199,134.96121 230.07143,134.39546C230.60405,133.75356 231.01427,133.56213 231.90475,133.56213C232.71877,133.56213 233.06923,132.98486 233.57143,132.56213C234.07988,132.13416 234.6416,131.65091 235.07143,131.1368C235.50391,130.61951 236.6143,130.15305 237.07143,130.72879C237.612,131.40962 237.14229,132.5778 236.57143,133.06213C235.86237,133.66371 235.62479,133.99205 235.01427,134.56213C234.35146,135.18105 234.05888,135.38623 233.57143,136.06213C233.05803,136.77399 232.07277,136.6488 232.07277,137.56213C232.07277,138.4393 233.8793,137.94858 234.64609,137.56213C235.28455,137.24037 235.49677,136.56213 236.4241,136.56213C237.29276,136.56213 238.4894,135.98621 239.07143,136.58296C239.69551,137.22284 238.53589,137.67657 238.07143,138.20946C237.6284,138.71774 237.30716,139.23286 236.71877,139.56213C235.90604,140.01695 235.56938,140.03928 234.9861,140.56213C234.30602,141.17177 233.51816,140.70576 233.07143,141.27812C232.63649,141.83537 231.37463,141.46796 231.07143,141.98746C230.65495,142.70102 230.13237,143.43347 230.07143,144.20946C229.99883,145.13394 230.07143,146.06213 230.07143,146.91479C230.07143,147.84613 230.07143,148.72879 230.07143,149.61929C230.07143,150.50496 230.07143,151.39546 230.07143,152.20946C230.07143,153.1368 229.95024,154.17503 230.4241,154.56213C230.97154,155.00934 231.07143,155.72879 231.07143,156.61929C231.07143,157.50496 230.61737,157.91559 230.08209,158.56213C229.52182,159.23886 230.07143,160.27812 230.07143,161.1368C230.07143,162.06213 230.07143,162.98746 230.07143,163.84613C230.07143,164.78346 230.07143,165.64746 230.07143,166.55147C230.07143,167.4408 230.07143,168.27812 230.07143,169.1368C230.07143,170.06213 230.09721,170.97491 230.57143,171.56213C231.0836,172.19635 231.07143,173.1368 231.07143,173.98746C231.07143,174.91479 231.07143,175.84613 231.07143,176.72879C231.07143,177.59813 230.91986,179.04887 230.2381,178.56213C229.63979,178.13498 229.29384,177.61638 229.07277,176.84613C228.81584,175.95093 229.32289,175.02731 229.07143,174.1368C228.8882,173.48793 228.33353,173.2039 227.9861,172.47679C227.60158,171.67204 227.07143,171.06213 227.07143,170.1368C227.07143,169.27812 226.57605,168.87625 226.1286,168.20946C225.64352,167.48659 226.07143,166.39546 226.07143,165.54129C226.07143,164.64746 225.51865,164.46225 225.07143,163.91479C224.68434,163.44095 223.63353,163.41008 222.71877,163.56213C222.0439,163.67432 222.07143,164.72879 222.07143,165.58296C222.07143,166.47679 222.07143,167.27812 222.07143,168.20946C222.07143,169.06213 222.07143,169.98746 222.07143,170.91479C222.07143,171.78346 222.4894,171.98621 223.07143,172.58296C223.69551,173.22284 223.07143,174.27812 223.07143,175.20946C223.07143,176.06213 223.24519,177.14084 222.71877,177.56213C222.18463,177.98959 221.64233,178.91402 221.15677,178.27812C220.61859,177.57333 220.78889,177.17923 220.1286,176.55763C219.49086,175.95726 220.07143,174.84613 220.07143,173.98746C220.07143,173.06213 219.40068,172.79785 219.07143,172.20946C218.64723,171.4514 219.07143,170.39546 219.07143,169.54129C219.07143,168.64746 218.95699,168.0266 218.4241,167.56213C217.91582,167.11911 218.26198,165.84373 217.71877,165.56213C216.89192,165.1335 215.90475,165.56213 215.03543,165.56213C214.1286,165.56213 213.2381,165.56213 212.4241,165.56213C211.49677,165.56213 210.55327,165.38713 209.71877,165.56213C209.02692,165.70721 208.72078,166.0746 208.07143,166.59813C207.3933,167.14487 207.69592,167.90181 207.07143,168.54129C206.45747,169.16998 206.0022,169.16788 205.49677,169.56213C204.97917,169.96588 204.56364,170.367 203.8501,170.78346C203.1026,171.21973 203.05495,172.18718 202.57143,172.56213C202.05269,172.96439 201.60106,173.70558 201.19293,174.44063C200.80977,175.13071 200.50464,175.74306 199.9861,176.27812C199.34344,176.94124 198.15543,176.57794 198.07143,175.91479C197.9549,174.99481 198.07143,174.06213 198.07143,173.20946C198.07143,172.27812 198.37051,171.50166 198.78743,170.84613C199.23492,170.14253 199.65564,169.76599 200.07143,169.27812C200.55753,168.70775 201.07143,168.47679 201.07143,167.56213C201.07143,166.68362 201.17131,166.00935 201.71877,165.56213C202.19261,165.17505 201.8763,164.05435 202.29276,163.34079C202.76123,162.53812 203.11673,161.97972 203.64609,161.56213C204.11835,161.18959 204.67355,160.89732 205.07143,160.34079C205.6212,159.57178 205.07143,158.54129 205.07143,157.64746C205.07143,156.84613 205.07143,155.91479 205.07143,154.98746C205.07143,154.1368 205.33124,153.01375 204.78743,152.56213C204.22188,152.09247 204.63457,151.31465 204.07143,150.59813C203.54147,149.92384 203.07143,149.5728 203.07143,148.68362C203.07143,147.84613 203.19937,146.91562 202.71877,146.20946C202.19533,145.44035 202.07143,144.64746 202.07143,143.84613C202.07143,142.91479 202.8028,142.45563 203.06693,143.20946C203.37357,144.08464 203.51651,144.3718 204.4241,144.56213C205.11594,144.70721 205.2381,145.55998 206.10742,145.56213C207.01428,145.56439 207.06375,146.50116 207.78743,146.56213C208.64305,146.63422 208.90089,147.28673 209.49677,147.56213C210.2762,147.92239 211.46028,147.79079 212.01427,147.20946C212.50041,146.69931 213.03253,146.38983 213.71877,145.91479C214.42111,145.42862 215.43019,145.6684 216.35542,145.56213C217.08577,145.47826 217.10742,144.56213 217.9861,144.56213C218.90475,144.56213 219.16472,144.02571 219.64609,143.52612C220.20212,142.94907 220.64609,142.56213 221.07143,142.06213L220.71877,141.56213L219.8501,141.34079L219.2381,140.72879" id="svg_32" stroke-width="3" stroke="#000" fill="none"/>
  <path t="66389,66528,66604,66648,66691,66707,66715,66752,66812,66819,66852,66888,66904,66931,66956,67015,67056,67060,67108,67167,67212,67230,67264,67332,67348,67416,67432,67460,67528,67568,67596,67614,67619,67631,67648,67664,67681,67687,67691,67707,67715,67723,67740,67747" d="M249.07143,81.56213C247.4241,81.56213 246.49677,81.56213 245.64609,81.56213C244.71877,81.56213 244.064,81.18351 243.2381,80.7288C242.57248,80.36233 241.42302,80.40723 241.07277,79.56346C240.73546,78.75086 240.53589,78.44768 240.07143,77.91479C239.62842,77.40652 239.07152,77.1368 239.07143,76.20947C239.07133,75.3408 238.44945,74.90466 238.07143,74.27813C237.61543,73.52237 238.07143,72.50496 238.07143,71.61929C238.07143,70.7288 238.39722,70.2646 238.94994,69.56213C239.399,68.99139 239.71877,68.56213 240.57143,68.56213C241.49677,68.56213 242.4241,68.56213 243.29276,68.56213C244.2381,68.56213 244.46715,68.86163 245.07593,69.50496C245.67795,70.14114 246.40799,69.90392 246.9861,70.56346C247.45901,71.103 247.56616,72.04645 248.29276,72.78346C248.90038,73.3998 249.07143,74.1368 249.07143,75.08296L249.07143,75.95146" id="svg_33" stroke-width="3" stroke="#000" fill="none"/>
  <path t="68764,68876,68904,68911,68930,68947,68951,68965,68997,69003,69040,69047,69092,69108,69140,69160,69200,69244,69251,69267,69297,69313,69364,69396,69415,69476,69516,69523,69584,69597,69656,69715,69732,69756,69800,69807,69824,69868,69875,69920,69960,69971,69997,70003,70031,70080,70107,70140,70156,70184,70304,70348,70388,70432,70439,70500,70539,70659,70672,70764,70782,70832,70848" d="M247.07143,94.56213C247.07143,94.91479 247.20885,94.1059 247.71877,93.56663C248.18465,93.07393 248.8028,92.66862 249.06693,91.91479C249.37357,91.03962 249.71114,90.40253 250.06076,89.5728C250.40605,88.75334 250.60696,88.44768 251.07143,87.91479C251.51443,87.40652 252.62842,87.71774 253.07143,87.20947C253.53589,86.67657 254.50922,87.09721 255.0701,86.4768C255.66953,85.81374 255.94994,85.56213 256.78741,85.56213C257.64609,85.56213 257.90091,84.83754 258.49677,84.56213C259.27621,84.20186 260.54437,84.06853 261.0701,84.64746C261.68506,85.32465 261.98608,85.56213 262.78741,85.56213C263.71875,85.56213 264.02386,86.19041 264.49677,86.56213C265.02988,86.98118 265.71735,87.41853 266.07144,87.98746C266.508,88.6889 267.0105,89.43347 267.07144,90.20947C267.14404,91.13395 266.97479,92.05876 267.4241,92.56663C267.95337,93.16488 268.07144,93.91479 268.07144,94.84613C268.07144,95.7288 268.38052,95.9349 269.03543,96.56213C269.63785,97.13906 269.0022,98.16786 268.49677,98.56213C267.97919,98.96587 268.28644,100.1852 267.57144,100.5413C266.74292,100.95393 265.78601,100.51099 264.8501,100.56213C264.06793,100.60486 264.07144,101.56346 264.07144,102.44063L264.07144,103.27813L264.07144,104.20947" id="svg_34" stroke-width="3" stroke="#000" fill="none"/>
  <path t="72114,72260,72275,72286,72313,72320,72352,72388,72414,72440,72464,72524,72540,72565,72616,72630,72646,72688,72703,72735,72764,72788,72814,72818,72848,72855,72871,72894,72899" d="M248.07143,94.56213C247.07143,95.20947 247.19708,96.02972 247.71877,96.55763C248.20903,97.05374 248.67667,97.63025 249.07143,98.1368C249.47493,98.65457 249.94319,98.99709 250.07143,99.84613C250.18335,100.58715 251.35815,99.99331 252.06076,100.56213C252.72295,101.09823 253.3177,100.96866 253.9861,101.56213C254.5253,102.04089 254.8882,102.48792 255.07143,103.1368C255.32288,104.02731 255.61983,104.3023 256.07144,104.84613C256.54111,105.41168 257.02872,105.84322 257.07144,106.78346C257.1106,107.64523 257.07144,108.5413 257.2381,109.39546L258.06076,109.59813" id="svg_35" stroke-width="3" stroke="#000" fill="none"/>
  <path t="73669,73760,73788,73814,73840,73856,73892,73908,73992,74020,74060,74111,74119,74147,74164,74248,74352,74360,74429,74480,74498,74532,74587,74600,74652,74684,74713,74760,74776,74819,74872,74908,75068,75103,75136,75152,75156,75172,75187,75232,75272,75308,75360" d="M265.07144,101.56213C263.49677,102.56213 262.89642,103.08028 263.07144,103.91479C263.21652,104.60664 263.57349,105.03927 264.15677,105.56213C264.8345,106.16964 265.63776,105.69559 266.07144,106.27813C266.45422,106.79228 266.96497,107.29335 267.71875,107.55763C268.52344,107.83977 268.92017,108.21513 269.4241,108.56213C270.16241,109.0705 270.88467,109.41624 271.49677,109.98746C272.13657,110.58455 273.02872,110.84304 273.07144,111.7288C273.11334,112.59712 272.78983,113.55066 273.07144,114.39546C273.33496,115.18603 274.07144,115.7288 274.07144,116.61929C274.07144,117.52613 274.07144,118.39546 274.07144,119.27813C274.07144,120.1368 274.26199,121.28053 273.71875,121.56213C272.89191,121.99074 271.64587,121.03831 271.07275,121.64746C270.45279,122.30643 270.15677,122.56213 269.2381,122.56213L269.07144,123.20947L269.07144,124.1368L268.64609,124.56213" id="svg_36" stroke-width="3" stroke="#000" fill="none"/>
  <path t="75648,75760,75776,75798,75819,75820,75843,75855,75865,75888,75903,75916" d="M268.07144,121.56213C267.49677,119.99813 267.15146,119.13306 267.07144,118.27813C266.98773,117.38377 266.35544,116.84612 266.07144,116.06213C265.78741,115.27812 265.1286,114.61929 264.98608,113.84613L264.10742,113.56213L263.49677,112.98746" id="svg_37" stroke-width="3" stroke="#000" fill="none"/>
  <path t="76677,76732,76768,76812,76836,76888,77048,77052,77084,77136,77152,77212,77264,77281,77308,77332,77424,77496,77536,77640,77656,77748,77759,77812,77830,77964,78040,78068,78116,78192,78264,78356,78364,78382,78432,78440,78491,78513,78519,78553,78559,78571,78613,78630,78639,78672,78740,78768,78824,78835,78888,78956,78972,78998,79024,79048,79073,79077" d="M268.07144,120.56213C268.71875,121.56213 269.07144,122.1368 269.07144,122.98746C269.07144,123.91479 269.24203,124.79898 269.07144,125.7288C268.92706,126.51577 267.90475,126.56213 267.01425,126.56213C266.1286,126.56213 265.48068,126.70786 265.01425,127.20947C264.40558,127.86404 263.4657,127.63136 263.07144,128.1368C262.66769,128.65439 262.2753,129.14633 261.78741,129.56213C261.21704,130.04822 260.89795,130.45456 260.0506,130.56213C259.17188,130.67369 259.07144,131.59813 259.07144,132.50496C259.07144,133.39546 258.99722,134.37891 259.64609,134.56213C260.53662,134.81361 261.43018,134.45587 262.35544,134.56213C263.08578,134.64601 263.15677,135.56155 264.06076,135.56213C264.94992,135.56271 265.16528,135.00183 265.71875,134.56213C266.20743,134.17392 266.8208,133.95099 267.64609,133.52612C268.33603,133.17093 268.64276,132.3858 269.15677,131.84613C269.76135,131.21138 270.18588,131.02658 270.71875,130.56213C271.22705,130.11911 271.51651,129.75247 272.4241,129.56213C273.11597,129.41704 273.50137,129.11549 274.07144,128.50496C274.69034,127.84215 274.07144,126.7288 274.07144,125.91479L274.07144,124.98746L273.57144,124.5413L273.08209,123.95146" id="svg_38" stroke-width="3" stroke="#000" fill="none"/>
  <path t="79845,79900,79913,79964,80012,80048,80072,80109,80148,80159,80228,80236,80245,80280,80299,80337,80348,80366,80372,80382" d="M257.07144,110.56213C257.07144,111.44063 257.07144,112.27813 257.07144,113.1368C257.07144,114.06213 257.07144,114.98746 257.07144,115.84613C257.07144,116.78346 256.73822,117.85431 257.35544,118.4768C257.88989,119.01581 257.50458,119.75895 258.07144,120.4768C258.52759,121.05445 259.07144,121.50496 259.07144,122.39546C259.07144,123.20947 259.07144,124.08296 259.09225,125.0413L259.64609,125.58746" id="svg_39" stroke-width="3" stroke="#000" fill="none"/>
  <path t="81580,81703,81740,81772,81788,81816,81824,81988" d="M247.07143,86.56213C248.07143,85.91479 247.41881,85.39642 247.07143,84.50496C246.74986,83.67973 247.07143,82.7288 246.35542,82.56213L246.07143,81.98746" id="svg_40" stroke-width="3" stroke="#000" fill="none"/>
  <path t="82805,82924,82935,82952,83012,83052,83088,83115,83148,83172,83189,83224,83231" d="M249.07143,74.56213C248.01427,75.20947 247.15543,75.54631 247.07143,76.20947C246.9549,77.12944 247.07143,78.06213 247.07143,78.91479C247.07143,79.84613 247.07143,80.7288 247.07143,81.61929L247.07143,82.50496L246.2381,82.7288L246.07143,83.55146" id="svg_41" stroke-width="3" stroke="#000" fill="none"/>
  <path t="83669,83884,83885,83900,83917,83923,83932,83941,83948,83952,83961,83976,83977,84000" d="M249.07143,76.56213C249.2381,76.7288 249.92258,77.24167 250.07143,78.06213C250.23853,78.98315 250.57832,79.77824 250.90475,80.56213C251.24857,81.38774 251.1286,82.26663 251.57143,83.06213C252.01427,83.85763 252.2381,84.7288 252.78743,85.27813L253.07143,86.06213" id="svg_42" stroke-width="3" stroke="#000" fill="none"/>
  <path t="85129,85216,85265,85272,85276,85309,85341,85345,85376,85384,85399,85416,85436,85451,85472,85498,85514,85529,85539,85600,85648,85660,85676,85708,85720,85753,85769,85776,85788,85821,85836,85873,85898,85925,85964,85984,85992,86016,86060,86084,86102,86120,86129,86135,86161,86167,86198,86225,86232,86241,86265,86282,86300,86353,86360,86376,86409,86414,86436,86520,86557,86640,86669,86692,86716,86745,86761,86784,86845,86956,87000,87025,87032,87052,87061,87068,87092,87108,87120,87129,87152,87160,87172,87184,87215,87229,87264,87282,87299,87324,87349,87366,87393,87400,87453,87497,87537,87556,87588,87616,87625,87657,87664,87684,87700,87717,87733,87740,87761,87784,87792,87804" d="M261.07144,137.56213C260.49677,138.1368 260.11517,138.95033 259.64609,139.53679C259.13171,140.17986 259.14096,141.11871 258.71875,141.56664C258.17087,142.14787 258.23514,143.01385 258.07144,143.85764C257.92679,144.60333 257.18832,144.7365 257.07144,145.61929C256.95981,146.46257 256.07153,146.64746 256.07144,147.56346C256.07135,148.44063 255.15543,148.54633 255.07143,149.20946C254.9549,150.12944 255.22705,151.11911 254.71877,151.56213C254.18588,152.02661 254.07143,152.78346 254.07143,153.64746C254.07143,154.56346 253.89049,155.12891 253.35542,155.64746C252.69232,156.2901 253.07143,157.39546 253.07143,158.20946C253.07143,159.1368 253.07143,160.06213 253.07143,160.91479C253.07143,161.84613 253.30879,162.52554 253.78743,163.27812C254.23492,163.98174 253.86755,165.14633 254.35542,165.56213C254.92581,166.04825 254.85536,166.85194 255.35542,167.47813C255.84865,168.09576 256.4946,168.63332 256.90475,169.39546C257.29849,170.12714 257.79663,170.45337 258.06076,171.17279C258.38934,172.06778 257.91583,173.11911 258.4241,173.56213C258.957,174.02661 259.30878,174.52556 259.78741,175.27812C260.23492,175.98174 260.62619,176.65791 261.01425,177.50496C261.33716,178.20978 260.71658,179.28004 261.07144,180.1368C261.30164,180.69252 261.78119,180.01636 262.29276,179.56213C262.88821,179.0334 263.09225,178.56213 263.98608,178.56213C264.78741,178.56213 265.88821,178.63635 266.07144,177.98746C266.30261,177.16881 266.07144,176.20496 266.07144,175.36346C266.07144,174.39546 265.9693,173.63065 265.49677,172.98746C264.9718,172.2729 265.33759,171.13138 264.8501,170.56197C264.32785,169.95198 264.27734,169.19617 263.71875,168.61929C263.20932,168.09319 263.07144,167.36346 263.07144,166.47679C263.07144,165.56664 263.04895,164.70107 262.57144,164.06213C262.04602,163.35909 262.07144,162.39546 262.07144,161.54129C262.07144,160.64746 262.07144,159.72879 262.07144,158.91479C262.07144,157.98746 262.07144,157.1368 262.07144,156.20946C262.07144,155.34079 262.07144,154.39546 262.07144,153.54129C262.07144,152.64746 261.88443,151.70702 262.07144,150.91479C262.25262,150.14731 263.07144,149.50496 263.07144,148.61929C263.07144,147.7608 263.07144,146.9193 263.07144,145.98746L263.4241,145.20946L264.06076,144.5728L264.64609,143.98746" id="svg_43" stroke-width="3" stroke="#000" fill="none"/>
  <path t="88121,88153,88160,88185,88198,88215,88220,88232,88245,88249,88267,88272,88299,88316,88340,88348,88366,88384,88393,88425,88453,88469,88500,88529,88536,88565,88581,88620,88632,88672,88692,88716,88741,88748,88777,88820,88852,88868,88876,88888,88929,88948,88965,89008,89041,89066,89084,89125,89168,89184,89289,89324,89357,89388,89469,89545,89580,89604,89616,89620,89641,89666,89688,89704,89716,89741,89756,89767,89784,89800,89816,89824,89853,89877,89884,89915,89915,89945,89973,89981,90021,90031,90050,90066,90083,90108,90144,90176,90184,90228,90253,90282,90304,90366,90382,90432,90457,90509,90536,90553,90588,90599,90604,90645,90673,90712,90724,90741,90785,90841,90852,90877,90892,90929,90952,90972,90980,90999,91029,91040,91081,91092" d="M266.07144,142.56213C266.0506,143.56213 265.29092,144.05573 265.07144,144.91479C264.84088,145.81714 265.07144,146.72879 265.07144,147.66196C265.07144,148.50946 265.07144,149.39546 265.07144,150.20946C265.07144,151.08296 265.07144,152.04129 265.07144,152.91479C265.07144,153.84613 265.07144,154.72879 265.07144,155.61479C265.07144,156.50496 265.98755,156.54779 266.07144,157.27812C266.16943,158.13118 266.07144,159.06213 266.07144,159.98746C266.07144,160.84613 266.5668,161.24802 267.01425,161.91479C267.49936,162.63766 267.07144,163.72879 267.07144,164.58296C267.07144,165.47679 267.17133,166.11493 267.71875,166.56213C268.1926,166.94923 268.08557,167.98399 268.64609,168.55147C269.07413,168.98483 268.828,170.09148 269.35544,170.56213C269.91461,171.06111 270.07144,171.64613 270.07144,172.54129C270.07144,173.44063 270.92633,173.51761 271.07144,174.20946C271.24646,175.04398 270.89767,176.14084 271.4241,176.56213C271.95825,176.98959 272.42841,176.92223 273.07144,177.5728C273.70691,178.21573 273.78741,178.56213 274.71875,178.56213C275.57144,178.56213 276.50931,178.7142 277.4241,178.56213C278.09897,178.44994 278.07144,177.47679 278.07144,176.55147C278.07144,175.7608 278.28574,174.82251 278.07144,173.91479C277.89026,173.14729 277.07144,172.52612 277.07144,171.64613C277.07144,170.72879 276.77844,170.22153 276.2381,169.56213C275.77213,168.99353 276.3616,167.86391 276.07144,167.06213C275.84528,166.43719 275.07678,165.9875 275.07144,165.06213C275.0665,164.20497 275.32001,163.17923 274.90475,162.39546C274.54105,161.709 274.07144,161.06213 274.07144,160.12613C274.07144,159.26663 274.51764,158.07051 273.90475,157.56213C273.26318,157.02995 273.07144,156.64746 273.07144,155.84613C273.07144,154.91479 273.07413,153.98483 272.64609,153.55147C272.08557,152.98399 272.24646,152.04398 272.07144,151.20946C271.92633,150.51761 271.07144,150.39546 271.07144,149.50496C271.07144,148.61929 271.07144,147.72879 271.07144,146.91479C271.07144,145.98746 271.71802,145.68997 272.07144,145.1368C272.51627,144.44057 272.98767,143.74146 273.07144,142.91479C273.16495,141.99219 272.8811,141.11705 273.07144,140.20946C273.21652,139.51762 274.07144,139.34079 274.07144,138.47679C274.07144,137.56197 274.07144,136.68362 274.07144,135.84613C274.07144,134.98746 274.07144,134.06213 274.07144,133.1368C274.07144,132.27679 274.07144,131.36346 274.07144,130.47679C274.07144,129.56197 274.07144,128.68362 274.07144,127.84613L274.07144,126.98746" id="svg_44" stroke-width="3" stroke="#000" fill="none"/>
  <path t="92925,92977,92998,93020,93029,93045,93052,93056,93067,93072,93083,93088,93101,93107,93113,93120,93133,93141,93150,93166" d="M225.07143,79.56213C225.94994,79.56213 226.78743,79.56213 227.6821,79.56213C228.5506,79.56213 229.50845,79.52031 230.36693,79.56213C231.24388,79.60484 231.86115,80.13873 232.8286,80.44063C233.65157,80.69744 234.57143,80.56213 235.47144,80.56213C236.37143,80.56213 237.2701,80.56213 238.15543,80.56213C239.0461,80.56213 239.87276,80.56213 240.7861,80.56213L241.49677,80.1368" id="svg_45" stroke-width="3" stroke="#000" fill="none"/>
  <path t="101586,101623,101645,101656,101668,101672,101688,101696,101696,101704,101721,101725,101740,101740,101756,101772,101784,101784,101793,101801,101817,101824,101835,101841,101852,101861,101877,101884,101893,101900,101913,101920,101930,101936,101952,101968,101968,101973,101984,101999,102005,102013,102020,102036,102051,102051,102056,102072,102084,102104,102109,102110,102124,102140,102156" d="M256.07144,81.56213C257.71875,81.56213 258.64609,81.56213 259.50742,81.56213C260.37143,81.56213 261.27008,81.56213 262.2381,81.56213C263.07144,81.56213 263.87143,81.56213 264.7861,81.56213C265.6821,81.56213 266.63544,81.56213 267.5141,81.56213C268.36609,81.56213 269.29736,81.46897 270.2381,81.56213C271.0838,81.64587 271.72406,82.36219 272.57144,82.5413C273.44177,82.72526 274.35675,82.56213 275.27142,82.56213C276.17126,82.56213 277.1214,82.85401 277.9501,82.56197C278.70221,82.29692 279.35675,81.56213 280.17126,81.56213C281.12408,81.56213 281.87277,81.56213 282.90475,81.56213C283.6821,81.56213 284.57144,81.56213 285.5506,81.56213C286.4241,81.56213 287.40475,81.56213 288.07144,81.56213C289.1196,81.56213 289.87277,81.56213 290.90475,81.56213C291.6821,81.56213 292.57144,81.56213 293.5506,81.56213C294.4241,81.56213 295.40475,81.56213 296.07144,81.56213C297.1196,81.56213 297.51938,82.07011 298.15677,82.5608C298.88153,83.11877 299.87277,82.56213 300.7861,82.56213L301.71875,82.56213L302.57144,82.56213L303.08209,82.98746" id="svg_48" stroke-width="3" stroke="#000" fill="none"/>
  <path t="103193,103237,103253,103277,103301,103305,103321,103336,103352,103361,103367,103372,103384,103389,103405,103413,103421,103434,103440,103451,103457,103467,103484,103493,103508,103519,103540,103552,103562,103568,103577,103593,103608,103621,103630,103636,103652,103668,103683,103689,103696,103712,103728,103736,103736,103750,103756,103772,103783,103797,103818,103835,103841,103851,103868,103877,103892,103902,103924,103944,103968,103976,103992,104013,104029,104053,104067,104089,104105,104113,104120,104124,104135,104141,104156,104168,104184,104193,104201,104208,104224,104240,104252,104268,104284,104308,104337,104361,104368,104377,104388,104405,104422,104430,104440,104467,104483,104488,104504,104508,104524,104540,104557,104568,104577,104585,104601,104608,104618,104629,104645,104662,104668,104677,104686,104697,104705" d="M301.07144,82.56213C301.71875,81.56213 301.95535,82.33553 302.57144,82.56213C303.37592,82.858 304.36694,82.56213 305.2381,82.56213C306.1286,82.56213 306.68045,83.06931 307.42859,83.50496C308.15753,83.92943 308.80862,84.17371 309.50742,84.52613C310.35922,84.95573 311.35675,84.56213 312.27008,84.56213C313.12408,84.56213 314.07144,84.56213 314.90475,84.56213C315.77594,84.56213 316.45667,84.75368 317.0701,85.27813C317.60831,85.73827 318.64609,85.56213 319.50742,85.56213C320.36694,85.56213 321.29276,85.56213 322.2381,85.56213C323.09677,85.56213 323.85477,85.67673 324.63544,86.1368C325.40741,86.59173 326.35544,86.56213 327.2381,86.56213C328.07144,86.56213 328.98743,86.56213 329.90475,86.56213C330.71875,86.56213 331.59225,86.56213 332.47144,86.56213C333.36694,86.56213 334.35544,86.56213 335.2381,86.56213C336.07144,86.56213 336.87143,86.56213 337.90475,86.56213C338.71875,86.56213 339.59225,86.56213 340.5506,86.56213C341.4241,86.56213 342.35544,86.56213 343.2381,86.56213C344.07144,86.56213 344.98743,86.56213 345.90475,86.56213C346.71875,86.56213 347.59225,86.56213 348.5506,86.56213C349.4241,86.56213 350.35544,86.56213 351.2381,86.56213C352.09677,86.56213 353.01425,86.56213 353.90475,86.56213C354.71875,86.56213 355.64609,86.56213 356.49677,86.56213C357.4241,86.56213 358.35675,86.56213 359.17142,86.56213C360.07144,86.56213 360.98743,86.56213 361.77594,86.56213C362.71426,86.56213 363.59225,86.56213 364.5506,86.56213C365.42859,86.56213 366.27142,86.56213 367.17126,86.56213C368.09677,86.56213 368.98743,86.56213 369.90475,86.56213C370.71875,86.56213 371.64609,86.56213 372.49677,86.56213C373.4241,86.56213 374.35544,86.56213 375.2381,86.56213C376.07144,86.56213 376.98743,86.56213 377.90475,86.56213C378.71875,86.56213 379.59225,86.56213 380.5506,86.56213C381.4241,86.56213 382.35544,86.56213 383.2381,86.56213C384.09677,86.56213 384.51938,87.07011 385.15677,87.5608C385.88153,88.11877 386.94992,87.56213 387.77594,87.56213C388.71426,87.56213 389.23938,88.21047 390.12408,88.55763C390.95694,88.88446 391.77594,88.56213 392.71426,88.56213C393.64609,88.56213 394.58279,88.42755 395.42859,88.56663C396.30353,88.71049 396.9501,89.44063 397.71875,89.56213L398.10742,90.1368L398.78741,90.5608" id="svg_49" stroke-width="3" stroke="#000" fill="none"/>
  <path t="105774,105893,105900,105919,105924,105935,105941,105952,105952,105959,105961,105961,105968,105978,105984,105984,105994,106002,106009,106018,106021,106037" d="M478.07144,90.56213C479.6821,90.56213 480.63544,90.56213 481.50742,90.56213C482.36694,90.56213 483.24075,90.56219 484.09225,90.56213C485.04993,90.56204 485.8363,90.41376 486.70743,89.98746C487.52805,89.58588 488.24606,89.56747 489.31427,89.56213C490.17142,89.55785 491.07144,89.56213 491.87143,89.56213C492.77142,89.56213 493.67142,89.56213 494.57144,89.5413L495.36694,89.20947L496.09677,88.5728L497.01425,88.56213" id="svg_50" stroke-width="3" stroke="#000" fill="none"/>
 </g>
</svg>