<svg width="420" height="420" xmlns="http://www.w3.org/2000/svg" xmlns:svg="http://www.w3.org/2000/svg" xmlns:xlink="http://www.w3.org/1999/xlink">
 <!-- Created with SVG-edit - http://svg-edit.googlecode.com/ -->
 <g display="inline" class="layer">
  <title>Layer 1</title>
  <path t="0,103,120,120,136,136,136,152,152,152,169,169,169,169,186,186,186,219,219,219,236,236,253,269,319,336,360,361,382,437,487,508,694,718,718,781,813,813,813,827,827,983,1006,1040,1061,1073,1089,1089,1108,1126,1138,1271,1446,1462,1462,1478,1647,1661,1679,1692,1692,1706,1722,1756,1773,1797,1851,1874,1934,1934,1957,1980,1991" d="M126.5,191.5C127.584,190.61333 127.81698,189.81714 128.26167,189.0955C128.77194,188.26746 129.33984,187.71233 129.84734,187.10001C130.4978,186.31519 130.99843,185.46349 131.46933,184.81467C132.0174,184.05952 132.50377,183.54163 133.02083,183C133.80821,182.1752 134.57387,181.41693 135.04283,180.96167C135.68306,180.34015 136.50908,179.67952 137.27867,179.12534C137.79185,178.75578 138.43507,177.85304 138.491,177.15266C138.57191,176.13919 138.5,175.2 138.5,174.3C138.5,173.39999 138.5,172.5 138.5,171.7C138.5,170.8 138.49467,169.89998 138.5,169C138.50534,168.09996 138.76453,167.06863 139.5,166.66667C140.23566,166.26462 140.99109,165.93565 141.8215,165.39999C142.4985,164.96329 143.1012,164.69972 144.091,164.2045C144.92923,163.78511 145.78534,163.5 146.7,163.5C147.60001,163.5 148.73241,163.06575 149.33333,163.66667C149.93425,164.26759 149.62428,165.27744 150.07466,166.10001C150.50195,166.88039 150.5,167.8 150.5,168.7C150.5,169.60001 150.5,170.5 150.5,171.3C150.5,172.2 150.55817,173.26872 149.7955,173.4955C148.90262,173.76099 147.96585,173.73198 147.20984,173.44284C146.31255,173.09967 145.82994,172.3905 145.416,171.69867C144.94012,170.90332 144.02498,170.6685 143.2045,170.14734C142.45944,169.67409 141.79016,169.5045 140.98267,169.58533L140.02083,170L139.2045,170.44733L138.55716,170.85716" id="svg_1" stroke-width="3" stroke="#000" fill="none"/>
  <path t="2678,3008,3008,3041,3075,3093,3109,3109,3215,3278,3375,3375,3395,3559,3594,3621,3643,3660,3677,3677,3700,3700,3700,3717,3746,3778,3812,3812,3837,3837,3861,3957,3957,3978,4053,4053,4261,4285,4285,4301,4391,4414,4414,4414,4447,4514,4531,4531,4563,4563,4597,4631,4664,4680,4680,4749,4862,4863,4881,4916,4917,4957,4989,5201,5230,5284,5284,5297,5297,5487,5641,5641,5948" d="M140.5,161.5C139.5,161.5 138.7,161.5 137.8,161.5C136.89999,161.5 135.97917,161.5 135.01601,161.5C134.32533,161.5 133.25359,161.57822 132.39999,161.49983C131.48856,161.41614 130.71794,160.9955 130.02083,160.5C129.37463,160.0407 128.66663,159.49091 127.88934,159.5C126.99982,159.51042 126.03409,159.75061 125.62133,160.60033C125.30022,161.26137 125.23458,162.27472 124.97916,163C124.71878,163.73938 124.30789,164.82086 123.5,165.33333C122.74209,165.81409 122.3329,166.49969 121.88934,167.136C121.29942,167.98225 121.03841,168.7888 120.3,169.33067C119.50896,169.91118 118.79887,170.20337 118.1,170.89999C117.49903,171.49902 116.85416,172.05727 116.2045,172.8C115.62331,173.46445 115.30376,174.33461 115.55717,175.2C115.78229,175.96878 116.66254,176.50687 117.32533,176.89999C118.0118,177.30716 119.07655,177.78305 119.41467,178.7C119.7275,179.54839 119.50568,180.41942 119.936,181.31467C120.24626,181.96016 121.24127,182.48441 121.464,183.35066C121.68995,184.22948 121.5,185.06934 121.5,185.85184C121.5,186.87466 121.5004,187.82133 121.5,188.5C121.49933,189.61467 121.27941,190.46667 120.92533,191.10001C120.44382,191.96126 120.53271,192.81238 120.21733,193.69867C119.94992,194.45013 120.83822,194.31418 121.5,193.97917C122.35764,193.54501 122.95834,193 123.44733,192.2L123.784,191.3L124.216,190.7L124.584,189.78534" id="svg_2" stroke-width="3" stroke="#000" fill="none"/>
  <path t="6856,6935,6968,6984,6985,7028,7150,7150,7188,7218,7252,7484,7504,7504,7524,7548,7570,7588,7603,7603,7629,7653,7676,7686,7703,7736,7754,7769,7770,7787,7804,7829,7829,7871,7895,7938,7954,7955,7972,7988,8006,8007,8022,8052,8071,8087,8116,8116,8124,8137,8164,8181,8188,8212,8254,8431,8431,8707,8727,8844,8862,8906,8926,8940,8958,8974,8991,9058,9094,9094,9094,9142,9142,9166,9166,9241,9259,9324,9358,9374,9375,9375,9391,9441,9441,9571,9613,9614,9646,9647,9670,9692,9710,9726,9726,9742,9759,9760,9782,9798,9810,9838,9838,9860,9886,9910,9926,9958,9977,9993,10009,10009,10030,10052,10076,10101,10172,10225,10243,10293,10293,10360,10382,10398,10601,10629,10645,10660,10695,10695,10718,10734,10745,10761,10788,10811,10846,10861,10943,10966,11028,11062,11128,11162,11162,11610,11646,11664,11665,11681,11681,11696,11716,11807,11807,11830,11847,11914,11981,12016,12046,12046,12402,12402" d="M129.5,191.5C128.5045,193.2 128.52672,194.13646 128.49867,194.98399C128.47006,195.84866 128.00325,196.6687 127.66666,197.5C127.36008,198.2572 127.87782,199.30438 127.44283,200.14284C127.05445,200.89145 126.54831,201.52182 126.49983,202.4785C126.46343,203.19684 125.81381,203.92236 125.55717,204.8C125.30405,205.66556 125.5,206.60001 125.5,207.5C125.5,208.3 125.5,209.2 125.5,210.10001C125.5,211 125.5,211.89999 125.5,212.7955C125.5,213.7215 125.5,214.60001 125.5,215.5C125.5,216.3 125.5,217.2 125.5,218.136C125.5,218.98399 125.5,219.84734 125.5,220.864C125.5,221.7 125.4522,222.60127 125.5,223.5C125.54272,224.30341 126.14285,225.07007 126.69867,225.7C127.37431,226.46571 127.49775,227.19998 127.5,228.10001C127.50225,229 127.36729,229.91051 127.5045,230.8C127.64818,231.73138 128.35182,232.26862 128.4955,233.2C128.63272,234.08949 128.5,235 128.5,235.89999C128.5,236.8 128.5,237.7 128.5,238.60001C128.5,239.5 128.5,240.3 128.5,241.2C128.5,242.14284 129.02083,242.5 129.89999,242.5C130.8,242.5 131.71259,242.3502 132.59984,242.50017C133.45186,242.64417 133.93546,243.48137 134.8,243.5C135.70113,243.51942 136.67546,243.6458 137.336,243.936C138.11243,244.27713 138.91287,244.6739 139.664,245.10001C140.49521,245.57153 141.14709,246.29778 142,246.47917C142.88054,246.66644 143.8033,246.4243 144.70134,246.50133C145.67715,246.58502 146.30705,246.9733 147.01601,247.216C147.97968,247.54591 148.98399,247.5 149.84734,247.5C150.74733,247.5 151.67178,247.5737 152.5,247.47917C153.49226,247.36592 154.24405,246.95758 154.47917,246C154.69391,245.12543 154.94234,244.3882 155.33333,243.5C155.62283,242.84236 155.5,241.864 155.5,241.01601C155.5,240.15266 155.5,239.136 155.5,238.3C155.5,237.39999 155.5,236.5 155.5,235.7C155.5,234.8 155.5,233.89999 155.5,233C155.5,232.10001 155.5,231.2 155.5,230.3C155.5,229.39999 155.5,228.5 155.5,227.7C155.5,226.8 155.5,225.89999 155.5,225C155.5,224.10001 155.5,223.2 155.5,222.3C155.5,221.39999 155.5,220.5 155.5,219.7C155.5,218.8 155.50978,217.89995 155.5,217C155.48958,216.0415 154.8927,216.09264 154,216.5C153.20296,216.86371 152.57539,217.59288 151.89999,218.064C151.16641,218.5757 150.2,218.5 149.3,218.5C148.39999,218.5 147.5,218.5 146.66667,218.5C145.7955,218.5 144.89999,218.5 144,218.5C143.10001,218.5 142.2,218.5 141.3,218.5C140.39999,218.5 139.5,218.5 138.7,218.5C137.8,218.5 136.95287,218.56102 136.01601,218.21466C135.29991,217.94992 134.38628,217.52136 133.86166,216.8C133.34528,216.08997 133.0235,215.26888 132.62134,214.39999C132.31493,213.73798 132.06587,212.81683 131.5,212.02083C131.07323,211.4205 130.05338,211.10265 129.62117,210.39999C129.09293,209.5412 128.63867,209.11067 127.66666,208.66667L126.86166,208.44733" id="svg_3" stroke-width="3" stroke="#000" fill="none"/>
  <path t="13062,13117,13158,13158,13167,13183,13222,13317,13447,13447,13642,13669,13694,13735,13735,13752,13753,13768,13786,13803,13822,13853,13868,13868,13885,13903,13983,14037,14070,14070,14119,14136,14152,14266,14266,14302,14336,14353,14390,14391,14413,14446,14470,14487,14487,14510,14511,14534,14542,14542,14571,14760,14818,14837,14932,14986,15046,15046,15072,15088,15088,15138,15252,15305,15326,15372,15373,15390,15390,15405,15422,15470,15470,15509,15602,15652,15709,15891,15908,15927,15941,15941,16152,16152,16152,16174,16191,16237,16238,16292,16310,16310,16324" d="M134.5,199.5C136.2,199.61433 136.87416,200.17365 137.21466,201.01733C137.59013,201.94769 137.7805,202.90341 138.5,203.33333C139.27046,203.7937 139.73032,204.46031 140.14734,205.2C140.56738,205.94502 140.94922,206.7388 141.584,207.216C142.35056,207.79228 143.25717,207.5 144.15266,207.5C145.01601,207.5 145.97917,207.5 146.89999,207.5C147.8,207.5 148.7,207.5 149.60001,207.5C150.5,207.5 151.3,207.5 152.2,207.5C153.10001,207.5 154.03476,207.55296 154.8,207.14734C155.64595,206.69893 156.2771,206.37654 157.10001,205.92534C157.88013,205.49759 158.85664,205.63655 159.7,205.216C160.36165,204.88608 160.98607,204.31522 161.66667,203.66667C162.3002,203.06297 162.78496,202.44044 163.14734,201.8C163.61176,200.97922 164.23343,200.49449 165.02083,199.97917C165.69373,199.53879 166.52547,199.04018 167.33333,198.5C168.00185,198.05301 168.75363,197.711 169.60001,197.27867C170.25531,196.94394 171.01212,196.459 171.52083,196C172.14772,195.43437 173.11984,195.33179 174,195.52083C174.84442,195.70219 175.41501,196.48738 175.49867,197.3C175.59671,198.25214 175.5,199.15266 175.5,200.01601C175.5,200.97917 175.6992,201.82266 175.49867,202.69867C175.31328,203.50858 174.17993,203.72443 173.5,204C172.6682,204.33713 171.77632,204.3083 170.89999,204.536C170.03432,204.76093 169.39919,205.5992 168.89999,206.10001C168.20337,206.79887 168.1209,207.86369 167.4955,208.44284C166.90935,208.98564 165.79994,208.48982 164.89999,208.5C163.97899,208.51042 163.17068,208.70387 162.47917,209.02083C161.48817,209.47504 160.63771,209.78831 160.07066,210.3C159.35612,210.94478 159.02867,211.70435 158.33333,212.33333C157.80077,212.81506 157.11067,213.36133 156.66667,214.33333L156.47467,215.05333L155.784,215.584" id="svg_4" stroke-width="3" stroke="#000" fill="none"/>
  <path t="17563,17663,17663,17696,17712,17712,17712,17730,17730,17747" d="M137.5,204.5C138.5,205.5 138.57332,206.30614 138.464,207.172C138.35249,208.05519 138.064,208.75067 137.7955,209.49466L137.3,210.52933L136.8,211.19099L136.10001,211.88933" id="svg_5" stroke-width="3" stroke="#000" fill="none"/>
  <path t="19223,19349,19365,19365,19587,19633,19633,19649,19666,19666,19684,19699,19726,19815,19838,19934,20140,20140" d="M144.5,192.5C143.61333,191.50133 142.67467,191.5 141.98399,191.5C140.87466,191.5 139.97473,191.29237 139.20984,191.55716C138.34058,191.85808 137.61804,192.38754 136.98267,192.584C135.99152,192.89047 135.79747,194.07294 135.07466,194.464C134.31761,194.8736 133.3,194.5 132.39999,194.49983L131.5,194.33333L130.95599,193.784" id="svg_6" stroke-width="3" stroke="#000" fill="none"/>
  <path t="20567,20619,20637,20653,20668,20685,20734,20734,20758,21068,21104,21418,21418,21418,21436,21460,21485,21485,21693,21722,21758,21758,21770,21790,21870,21870" d="M145.5,192.5C147.21466,193.584 147.41249,194.45442 148.11067,195.064C148.77725,195.64598 149.85664,195.36345 150.7,195.784C151.36165,196.11392 152.2149,196.47884 153.11067,196.5C154.02153,196.52151 154.85458,196.90689 155.47917,197.52083C155.95776,197.99126 156.40898,199.01489 156.85266,199.8C157.27043,200.53926 157.06587,201.45685 157.58533,202.21466C158.01282,202.83832 159.14015,202.88411 159.84734,203.14734C160.8483,203.51993 161.69867,203.78534 162.33333,204.5L162.584,205.21466" id="svg_7" stroke-width="3" stroke="#000" fill="none"/>
  <path t="22525,22718,22820,23021,23070,23234,23234,23269,23277,23301,23316,23332,23340,23340,23357,23408,23446,23458,23474,23500,23516,23558,23559,23576,23593,23609,23609,23638,23709,23759,23759,23805,23852,23942,24085,24111,24224,24224,24243,24277,24278,24295,24296,24334,24406,24523,24545,24580,24597,24611,24611,24755,24806,24828,24845,24862,24879,24896,24918,25136,25259,25279,25296,25360,25360,25431,25569,25662,25662,25713,25742,25742,25797,25821,25821,25829,25847,25863,26027,26065,26085,26085,26101,26101,26114,26130,26149,26164,26165,26180,26198,26216,26295,26316,26333,26398,26431,26432,26449,26469,26469,26509,26541,26548,26565,26582,26599,26795,26817,26833,26850,26871,27129,27149,27167,27184,27205,27243,27341,27341,27535,27553,27601,27631,27632,27719,27719,27985,28013,28013,28052,28052,28068,28118,28137,28153,28171,28171,28171,28186,28186,28214,28214,28237,28254,28254,28271,28633" d="M168.5,208.5C170.2,208.55716 170.8732,209.2394 171.78534,209.5C172.66481,209.75128 173.45378,209.74214 174.2,210.14734C174.96112,210.56064 175.89999,210.5 176.8,210.5C177.7,210.5 178.60001,210.5 179.5,210.5C180.3,210.5 181.2,210.5 182.10001,210.5C183,210.5 183.89999,210.5 184.8,210.5C185.7,210.5 186.60001,210.5 187.5,210.5C188.3,210.5 189.21149,210.38539 190.136,210.536C191.00803,210.67804 191.63844,211.19972 192.61467,211.41467C193.58055,211.62735 194.5,211.5 195.3,211.5C196.2,211.5 197.15205,211.56566 197.52083,210.97917C197.97163,210.26224 198.43912,209.40611 198.5,208.5C198.55363,207.7018 198.78302,207.01228 199.33333,206.33333C199.81339,205.74106 199.82027,204.59988 200.30133,204.06934C201.00244,203.2961 201.37944,202.6595 202.02083,202.02083C202.66058,201.38379 203.5,201.78534 203.5,202.60001C203.5,203.5 203.47276,204.30042 203.5,205.2C203.52859,206.14413 204.30133,206.49933 205.2,206.5C206.10001,206.50067 207,206.5 207.89999,206.5C208.8,206.5 209.70862,206.37589 210.59984,206.50017C211.40158,206.61197 211.5,207.60001 211.5,208.5C211.5,209.3 211.5,210.2 211.5,211.14284C211.5,212.06934 211.86575,212.92943 211.47867,213.85333C211.17516,214.57776 210.10567,214.4478 209.25717,214.85266C208.44774,215.23888 207.7,215.49933 206.8,215.5C205.89999,215.50067 205,215.49776 204.10001,215.5C203.19548,215.50226 202.33333,215.66667 201.5,216C200.66667,216.33333 199.80452,216.49774 198.89999,216.5C198,216.50224 197.08913,216.48015 196.17883,216.50017C195.36075,216.51816 194.71979,217.16748 193.97917,217.47917C193.17815,217.81628 192.51421,218.1313 191.88933,218.52533C191.14082,218.99731 190.30302,219.45729 189.39983,219.5C188.61554,219.53709 187.67467,219.5 186.66667,219.5C185.91066,219.5 185,219.5 184.10001,219.5C183.2,219.5 182.3,219.5 181.39999,219.5C180.5,219.5 179.584,219.5 178.7955,219.5C177.89999,219.5 177,219.50226 176.10001,219.5C175.20448,219.49774 174.51801,219.0645 174.5,218.10001C174.4832,217.20015 174.5,216.3 174.5,215.39999C174.5,214.5 175.32933,212.87067 174.5,212.87067C173.67067,212.87067 174.70026,214.6615 174.33333,215.5C174.01154,216.23535 173.35103,216.98778 172.88933,217.64934C172.37386,218.38795 171.33333,218.5 170.67467,218.5C169.66667,218.5 168.8045,218.5 167.89999,218.5C167,218.5 166.0959,218.58171 165.1955,218.4955C164.3222,218.4119 163.68242,218.02057 162.89867,217.784C161.91824,217.48805 161.10001,217.50226 160.10133,217.5C159.15717,217.49788 158.25717,217.4955 157.39999,217.2785L156.8,216.7955L156.10001,216.11067L155.30267,215.58667" id="svg_8" stroke-width="3" stroke="#000" fill="none"/>
  <path t="29775,29869,29891,29908,29908,29925,29941,29941,29958,29959,29975,29991,30008,30009,30046,30122,30166,30166,30190,30190,30209,30209,30225,30241,30259,30259,30276,30277,30292,30292,30309,30325,30342,30342,30358,30358,30381,30381,30391,30392,30408,30408,30425,30425,30442,30442,30442,30458,30458,30458,30475,30475,30491,30491,30491,30507,30532,30733,30774,30789" d="M127.5,239.5C127.5,241.3 127.5,242.136 127.5,242.98399C127.5,243.84734 127.5,244.87466 127.5,245.82133C127.5,246.5 127.6911,247.5218 127.41467,248.29866C127.09343,249.2014 126.09906,249.57489 125.66666,250.5C125.32076,251.24007 125.53623,252.13985 125.064,252.91066C124.57127,253.71494 123.9971,254.28261 123.66666,255.33333C123.4245,256.10336 123.5,256.98401 123.5,257.84732C123.5,258.74283 123.5,259.70132 123.5,260.66666C123.5,261.32535 123.5,262.33334 123.5,263.12534C123.5,264.15268 123.5,264.84732 123.5,265.86401C123.5,266.8045 123.42639,267.67175 123.52084,268.5C123.63402,269.49255 124.20195,270.08536 124.41467,270.98532C124.62691,271.8833 124.42098,272.90659 124.536,273.664C124.68375,274.63696 125.23821,275.23096 125.7,275.98532C126.13246,276.6918 126.60682,277.69687 126.9,278.31067C127.20718,278.95377 127.61859,279.91483 127.88934,280.72534C128.16187,281.54123 128.3661,282.58026 128.5,283.47916C128.6524,284.50223 128.88084,285.08499 129.14734,285.84283C129.50201,286.85144 129.5,287.79999 129.5,288.69867L129.58533,289.41333L130.11067,288.81732" id="svg_9" stroke-width="3" stroke="#000" fill="none"/>
  <path t="31462,32482,32512,32512,32512,32529,32529,32529,32529,32545,32546,32564,32564,32580,32580,32597,32597,32614,32631,32648,32664,32680,32680,32697,32715,32715,32730,32730,32796,33014,33047,33048,33048,33048,33065,33065,33065,33065,33065,33065,33065,33065,33065,33081,33082,33082,33082,33082,33082,33082,33082,33082,33132,33132,33156,33173,33173,33173,33182,33197,33198,33230,33248,33266,33266,33282,33282,33298,33298,33314,33331,33331,33588,33588" d="M151.5,243.5C152.02083,244.04167 152.66461,244.79303 152.97917,245.58333C153.27835,246.33501 153.38776,247.3631 153.44733,248.1535C153.50951,248.97852 153.46819,249.7975 153.66667,250.83333C153.84895,251.78453 154.38643,252.65833 154.464,253.32533C154.58052,254.32722 154.44965,255.1268 154.5045,256.14816C154.54669,256.93369 155.31815,257.49008 155.49867,258.30133C155.69389,259.17856 155.48814,260.15146 155.784,260.98401C156.0349,261.69006 156.45729,262.61157 156.5,263.5C156.54251,264.38434 156.5,265.32535 156.5,266.01599C156.5,267.05334 156.40437,268.07568 155.74516,267.70151C155.21167,267.39868 154.57883,266.7406 154.12933,266.384C153.00577,265.49268 152.30936,264.96973 151.54134,264.396C150.71881,263.78156 149.85237,263.14566 148.95833,262.5C148.05771,261.84961 147.16336,261.21069 146.28534,260.604C144.6734,259.4902 143.95413,259.02438 143.30133,258.61465C142.71645,258.24756 142.1868,257.9324 141.70833,257.66666C141.2851,257.43158 140.90808,257.23032 140.56534,257.07867C139.56973,256.63818 138.81354,256.50452 137.95833,256.5C136.95735,256.49472 136.24933,256.49768 135.26801,256.5C134.31432,256.50226 133.37596,256.69308 132.8,257.2045C132.06773,257.85474 131.34691,258.2475 130.5,258.66666C129.80482,259.01071 129.00966,259.68924 128.32533,260.10001C127.51376,260.58716 126.93001,261.10464 126.1,261.47467C125.31503,261.82462 124.61467,262.30133 123.84734,262.7955L123.15266,263.14282" id="svg_10" stroke-width="3" stroke="#000" fill="none"/>
  <path t="34135,34184,34184,34184,34184,34184,34184,34184,34217,34217,34217,34217,34217,34217,34217,34217,34217,34234,34234,34234,34234,34234,34234,34234,34234,34234,34283,34283,34283,34300,34300,34318,34318,34318,34334,34334,34334,34334,34334,34351,34351,34351,34351,34351,34368,34368,34368,34368,34368,34368,34368,34384,34385,34385,34385,34385,34401,34401,34401,34418,34418,34418,34418,34433,34434,34452,34468,34484,34484,34500,34501,34501,34501,34501,34501,34517,34518,34518,34518,34518,34518,34518,34518,34534,34534,34534,34534,34535,34535,34535,34535,34535,34550,34550,34550,34550,34551,34551,34551,34551,34551,34567,34567,34568,34568,34568,34568,34568,34568,34568,34584,34585,34585,34585,34585,34585,34585,34585,34585,34601,34601,34601,34601,34601,34601,34601,34601,34601" d="M116.5,268.5C110.55683,268.5 109.928,268.5 109.28117,268.5C108.61733,268.5 107.24267,268.5 106.53384,268.5C105.812,268.5 104.33334,268.5 103.57833,268.5C102.81333,268.5 102.03833,268.5 101.25333,268.5C100.45834,268.5 99.65334,268.5 98.83833,268.5C98.01334,268.5 96.33334,268.5 95.47984,268.5C94.62534,268.5 93.77883,268.5 92.94933,268.5C92.14584,268.5 91.37733,268.5 90.65283,268.5C89.98133,268.5 88.37183,268.5 87.65283,268.5C86.77883,268.5 85.84283,268.5 84.89867,268.5C84.09467,268.5 83.156,268.5 82.55867,268.5C81.41434,268.5 80.48033,268.5 79.97733,268.5C78.92934,268.5 78.39633,268.5 76.83334,268.5C75.868,268.5 75.40533,268.5 74.5,268.5C73.59467,268.5 72.16666,268.5 71.65717,268.5C70.59016,268.5 70.03867,268.5 68.91467,268.5C68.34817,268.5 67.78267,268.5 66.122,268.5C65.58933,268.5 64.568,268.5 63.61867,268.5C62.75733,268.5 61.66417,268.5 61.0625,268.5C59.99917,268.5 59.16667,268.5 58.19917,268.5C57.52083,268.5 56.55333,268.5 55.556,268.5C54.704,268.5 53.77617,268.32715 52.9,268.53601C51.98762,268.75351 51.5254,269.21768 50.29217,269.37851C49.41031,269.49353 48.8988,269.47095 47.77467,269.48932C47.16322,269.4993 46.52267,269.49933 45.16667,269.5C44.457,269.50037 43.72933,269.5 42.98567,269.5C42.228,269.5 40.67867,269.5 39.891,269.5C39.09733,269.5 37.5,269.5 36.69983,269.5C35.89867,269.5 35.0955,269.5 34.28933,269.5C33.47917,269.5 32.664,269.5 31.84283,269.5C31.01467,269.5 29.33333,269.5 28.47867,269.5C27.616,269.5 26.74733,269.5 25.87467,269.5C25,269.5 24.12533,269.5 23.25267,269.5C22.384,269.5 20.66667,269.50052 19.82117,269.49985C18.98267,269.49918 18.14815,269.4975 17.31467,269.48932C16.47915,269.48114 15.63858,269.46732 14.79017,269.44284C13.93056,269.41803 12.16639,269.33771 11.25717,269.27832C10.33037,269.2178 9.38975,269.14291 8.43867,269.05334C7.47872,268.96295 6.51406,268.85834 5.54817,268.73834C4.58203,268.61832 2.66589,268.33801 1.7215,268.17868C0.78454,268.0206 -0.14312,267.84882 -1.064,267.67465C-1.97945,267.5015 -2.88933,267.32535 -3.7955,267.15268L-4.69867,266.98401" id="svg_11" stroke-width="3" stroke="#000" fill="none"/>
  <path t="36085,36150,36173,36269,36269,36289,36289,36307,36307,36307,36341,36341,36405,36405,36454,36573,36573,36606" d="M146.5,174.5C146.5,177.08934 146.5,178.02083 146.5,178.82133C146.5,179.67467 146.60921,180.64728 146.32933,181.46933C146.04182,182.31378 145.46771,182.98187 145.06799,183.73199C144.56853,184.66931 144.44064,185.39146 144.07466,186.32533C143.80124,187.02301 143.5,188 143.27867,188.82117L142.92534,189.63867L142.5,190.47917" id="svg_12" stroke-width="3" stroke="#000" fill="none"/>
  <path t="44972,45918,45928,46524,46524,46552" d="M140.5,177.5C141.14734,176.55716 141.49867,177.30133 141.66667,178.16667L142.216,177.69733L142.49867,176.78534" id="svg_14" stroke-width="3" stroke="#000" fill="none"/>
  <path t="51991,52413,52429,52446,52652,52727,52734,52734,52747" d="M140.5,186.5C139.83333,185.66667 140.23907,184.89214 140.936,184.536C141.79541,184.09683 142.7,184.216 143.5,183.66667L144.2,183.44733L144.97917,183" id="svg_16" stroke-width="3" stroke="#000" fill="none"/>
  <path t="61504,61635,61635,61635,61635,61651,61651,61651,61651,61651,61651,61651,61651,61651,61668,61668,61668,61668,61668,61668,61668,61668,61668,61685,61685,61685,61685,61685,61685,61685,61685,61685,61700,61700,61701,61701,61701,61701,61701,61701,61701,61716,61716,61716,61716,61716,61716,61717,61717,61717,61733,61733,61733,61733,61734,61734,61734,61734,61734,61750,61751,61751,61751,61751,61751,61751,61751,61751,61767,61767,61767,61767,61767,61767,61767,61767,61767,61783,61784,61784,61784,61784,61784,61784,61784,61784,61801,61801,61801,61801,61801,61801,61801,61801,61801,61817,61817,61817,61817,61817,61817,61817,61817,61817,61834,61834,61834,61834,61835,61835,61835,61835,61835,61851,61851,61852,61852,61852,61852,61852,61852,61852,61869,61869,61869,61870,61870,61870,61870,61870,61870,61886,61886,61886,61887,61887,61887,61887,61887,61887,61902,61902,61902,61902,61902,61902,61902,61903,61903,61917,61918,61918,61918,61918,61918,61918,61918,61918,61935,61935,61935,61935,61935,61935,61935,61936,61936,61951,61952,61952,61952,61952,61952,61952,61952,61952,61968,61968,61968,61968,61968,61968,61968,61969,61969,61985,61985,61985,61985,61985,61985,61985,61985,61986,62002,62002,62002,62002,62002,62002,62003,62003,62003,62017,62018,62018,62018,62018,62018,62019,62019,62019,62035,62035,62035,62036,62036,62036,62036,62037,62037,62052,62052,62052,62052,62052,62052,62053,62053,62053,62070,62070,62070,62070,62070,62070,62071,62071,62071,62085,62085,62085,62085,62086,62086,62086,62086,62086,62101,62102,62102,62102,62102,62102,62103,62103,62103,62118,62118,62118,62118,62119,62119,62119,62119,62119,62134,62134,62135,62135,62135,62135,62135,62135,62135,62151,62152,62152,62152,62152,62152,62152,62152,62152,62168,62168,62168,62168,62168,62168,62168,62168,62169,62184,62185,62185,62185,62185,62185,62185,62185,62186,62202,62202,62202,62202,62202,62202,62202,62202,62218,62219,62219,62219,62219,62235,62235,62236,62236,62252,62252,62252,62252,62253,62269,62269,62269,62269,62270,62270,62270,62286,62286,62286,62286,62286,62286,62286,62287,62287,62302,62302,62302,62302,62303,62303,62303,62319,62319,62320,62320,62320,62335,62335,62336,62336,62336,62352,62352,62353,62353,62353,62353,62369,62369,62369,62369,62369,62369,62369,62384,62385,62385,62385,62385,62385,62386,62386,62402,62403,62403,62403,62403,62403,62403,62403,62419,62419,62420,62420,62420,62420,62420,62436,62436,62436,62437,62437,62437,62452,62452,62452,62452,62453,62453,62469,62469,62469,62469,62469,62485,62485,62485,62485,62485,62503,62503,62503,62503,62503,62520,62520,62520,62520,62536,62536,62537,62537,62553,62553,62553,62553,62569,62597,62621,62637,62652,62669,62710,62718,62735,62753,62753,62949,62949,62987,62987,63004,63005,63005,63021,63021,63021,63037,63037,63037,63037,63054,63054,63070,63070,63093,63109,63121,63121,63138,63157,63408" d="M6.5,59.5C8.56533,59.50134 9.28283,59.50533 10.184,59.536C10.71378,59.55403 12.66677,59.66514 13.45117,59.72133C14.30279,59.78234 15.21809,59.85376 16.19467,59.92533C17.22908,60.00116 18.31845,60.07807 19.46017,60.14734C20.65046,60.21955 23.1665,60.33834 24.48633,60.3785C25.84385,60.41982 27.23762,60.446 28.66533,60.464C30.12496,60.48241 31.61466,60.49086 33.13233,60.4955C34.67599,60.50022 37.83333,60.5 39.4435,60.5C41.07467,60.5 42.72783,60.5 44.404,60.5C46.10417,60.5 47.82933,60.5 49.5805,60.5C51.35867,60.5 55,60.49951 56.8645,60.50017C58.756,60.50084 60.67151,60.50255 62.608,60.51067C64.56251,60.51886 66.53204,60.53256 68.5135,60.55717C70.50404,60.58188 74.50016,60.66119 76.50017,60.72183C78.50151,60.78252 80.50483,60.85929 82.51067,60.95733C84.52119,61.05561 86.53658,61.17447 88.55717,61.31883C90.58594,61.46378 94.66752,61.82515 96.71917,62.04267C98.76756,62.25984 100.79481,62.50021 102.78667,62.75067C104.7298,62.995 106.60702,63.24676 108.40417,63.49467C110.107,63.72956 113.16661,64.16706 114.49866,64.35683C115.70261,64.52836 116.79042,64.68294 117.77467,64.81734C118.66644,64.93911 119.47827,65.04594 120.22266,65.13383C120.91032,65.21503 122.16638,65.33722 122.75684,65.3785C123.32775,65.41842 123.88107,65.44559 124.41734,65.464C124.93742,65.48184 125.44265,65.49079 125.93383,65.4955C126.41199,65.50008 127.33334,65.5 127.7785,65.5C128.21466,65.5 128.64284,65.5 129.064,65.5C129.47917,65.5 129.88933,65.5 130.2955,65.5C130.69867,65.5 131.5,65.5 131.89983,65.5C132.29866,65.5 132.6955,65.5 133.08934,65.5C133.47917,65.5 133.864,65.5 134.24283,65.5C134.61467,65.5 135.33333,65.5 135.67883,65.5C136.01733,65.5 136.35184,65.5 136.68533,65.5C137.02083,65.5 137.36133,65.5 137.70984,65.5C138.06934,65.5 138.83333,65.5 139.24316,65.5C139.672,65.5 140.11884,65.5 140.58267,65.5C141.0625,65.5 141.55733,65.5 142.06616,65.5C142.588,65.5 143.66667,65.5 144.2215,65.5C144.78534,65.5 145.35716,65.5 145.936,65.5C146.52083,65.5 147.11067,65.5 147.7045,65.5C148.30133,65.5 149.5,65.5 150.10001,65.5C150.7,65.5 151.3,65.5 151.89999,65.5C152.5,65.5 153.10001,65.5 153.7,65.5C154.3,65.5 155.5,65.5 156.101,65.5C156.70799,65.5 157.327,65.5 157.964,65.5C158.625,65.5 159.31599,65.5 160.043,65.5C160.812,65.5 162.5,65.5 163.4285,65.5C164.408,65.5 165.4295,65.5 166.48399,65.5C167.5625,65.5 168.65601,65.5 169.75549,65.5C170.85201,65.5 173,65.5 174.03534,65.5C175.04266,65.5 176.024,65.5 176.98134,65.5C177.91667,65.5 178.832,65.5 179.72934,65.5C180.61067,65.5 182.33333,65.5 183.1785,65.5C184.01466,65.5 184.84283,65.5 185.664,65.5C186.47917,65.5 187.28934,65.5 188.0955,65.5C188.89867,65.5 190.5,65.5 191.29984,65.5C192.09866,65.5 192.89549,65.5 193.68933,65.5C194.47917,65.5 195.26401,65.5 196.04283,65.5C196.81467,65.5 198.33333,65.50101 199.07851,65.49966C199.81467,65.49833 200.54291,65.49508 201.26401,65.47867C201.97928,65.46239 202.68979,65.43508 203.39549,65.38567C204.0992,65.33639 205.50134,65.17493 206.2,65.05717C206.90144,64.93894 207.60085,64.79398 208.3,64.63866C209.00085,64.48298 209.69989,64.31419 210.39999,64.14817C211.0999,63.98219 212.49905,63.66204 213.19966,63.52167C213.89644,63.38206 214.5903,63.25739 215.27867,63.14667C215.95766,63.03745 216.62749,62.94254 217.28566,62.86167C217.92885,62.78263 219.16638,62.66275 219.757,62.6215C220.32907,62.58154 220.88556,62.55434 221.42799,62.536C221.95824,62.51807 222.47865,62.50919 222.991,62.5045C223.49731,62.49987 224.5,62.5 224.9995,62.5C225.496,62.5 225.9865,62.5 226.468,62.5C226.9375,62.5 227.392,62.5 227.82851,62.5C228.244,62.5 229,62.5 229.33549,62.5C229.644,62.5 229.9285,62.5 230.192,62.5C230.4375,62.5 230.668,62.5 230.88651,62.5C231.09599,62.5 231.5,62.5 231.7,62.5C231.89999,62.5 232.10001,62.5 232.3,62.5C232.5,62.5 232.7,62.5 232.89999,62.5C233.10001,62.5 233.5,62.50098 233.70067,62.49967C233.90535,62.49833 234.11821,62.49431 234.34267,62.47867C234.5836,62.46188 234.84468,62.43235 235.12866,62.38567C235.44215,62.33413 236.16736,62.16928 236.58633,62.05733C237.04478,61.93485 237.53709,61.79255 238.06534,61.64933C238.6244,61.49776 239.21318,61.34421 239.83234,61.20533C240.47453,61.06129 241.83221,60.82409 242.54283,60.74283C243.26831,60.65988 244.00957,60.60563 244.76134,60.56133C245.52058,60.51659 246.28537,60.48586 247.05183,60.45183C247.81737,60.41785 249.33365,60.3376 250.07883,60.27867C250.81769,60.22023 251.55193,60.14822 252.28534,60.07467C253.02092,60.00089 253.76109,59.92286 254.50983,59.85266C255.2691,59.78149 256.8331,59.66185 257.64249,59.6215C258.46643,59.58043 259.30078,59.55417 260.14001,59.536C260.9791,59.51783 261.81332,59.5092 262.63751,59.5045C263.44666,59.49989 265,59.50052 265.73566,59.49983C266.44534,59.49917 267.13303,59.49761 267.80267,59.48933C268.45837,59.48123 269.10413,59.46754 269.74365,59.44283C270.3815,59.41819 271.66696,59.33702 272.32101,59.27867C272.98166,59.21972 273.64383,59.14865 274.30399,59.07467C274.9585,59.00131 275.60254,58.92435 276.233,58.85266C276.84521,58.78305 277.99973,58.66314 278.53549,58.6215C279.04376,58.58199 279.52838,58.55448 279.992,58.536C280.43741,58.51825 280.86798,58.50836 281.2865,58.5045C282.49997,58.49331 283.29999,58.5 284.10001,58.5C284.89999,58.5 285.70001,58.5 286.89999,58.5C287.70001,58.5 288.5,58.5 289.29999,58.5C290.5,58.5 291.30267,58.5 292.12134,58.5C292.97198,58.5 293.87067,58.5 294.83334,58.5C295.87466,58.5 296.42783,58.5 297.60416,58.5C298.22934,58.5 298.88049,58.5 299.55865,58.5C301,58.5 301.76401,58.5 302.552,58.5C303.358,58.5 304.17599,58.5 305,58.5C305.82401,58.5 306.642,58.5 307.448,58.5C309,58.5 309.73517,58.5 311.11951,58.5C311.77066,58.5 312.39584,58.5 312.996,58.5C314.12534,58.5 315.16666,58.5 316.13068,58.5C317.03867,58.5 317.91467,58.5 318.78265,58.5C319.66666,58.5 320.58533,58.5 321.53601,58.5C322.02084,58.5 323.00449,58.5 324.5,58.5C325.00015,58.5 326.00449,58.5 326.51068,58.5C327.53601,58.5 328.58533,58.5 329.66666,58.5C330.22168,58.5 331.36166,58.5 331.94666,58.5C332.54166,58.5 333.76166,58.5 334.38666,58.5C335.66666,58.5 336.32166,58.5 337.66165,58.5C338.34668,58.5 339.04166,58.5 339.74667,58.5C340.46167,58.5 341.18668,58.5 342.66666,58.5C343.42117,58.5 344.18268,58.5 345.71466,58.5C346.47916,58.5 347.23868,58.5 347.99017,58.5C348.73065,58.5 350.16666,58.5 350.85684,58.5C351.52802,58.5 352.81732,58.5 353.4375,58.5C354.04266,58.5 355.21201,58.49966 356.33334,58.5C356.87851,58.50017 357.94339,58.49456 358.97916,58.54167C359.48969,58.56489 360.50494,58.63585 361.5,58.83333C362.50623,59.03304 362.99667,59.20153 363.97916,59.5C364.46457,59.64746 365.40186,59.99153 366.77866,60.257C367.64093,60.42326 368.49979,60.46387 368.92532,60.47867C369.78369,60.50851 371.12134,60.5 372.05267,60.5C372.52533,60.5 373.47467,60.5 374.41599,60.5C375.7785,60.5 376.21466,60.5 377.064,60.5C377.88934,60.5 378.69867,60.5 379.89999,60.5C380.70001,60.5 381.5,60.5 382.29999,60.5C383.5,60.5 384.29883,60.50692 385.08932,60.48933C385.86423,60.47209 387.33704,60.35299 388.01199,60.216C388.94339,60.02697 389.45969,59.74447 390.68567,59.55717C391.59113,59.41883 392.10864,58.99218 392.85718,58.55717C393.58755,58.13269 394.60001,58.5 395.5,58.5C396.41599,58.5 397.26166,58.5 398.15717,58.5C398.90451,58.5 399.89868,58.5 400.664,58.5C401.75183,58.5 402.46933,58.5 403.51434,58.5C404.32132,58.5 404.90268,58.5 406.10132,58.5C407.02084,58.5 407.65717,58.5 408.66666,58.5C409.74365,58.5 410.45834,58.5 411.133,58.5C412.44534,58.5 413.24365,58.5 414.15268,58.5C414.84732,58.5 415.91144,58.60558 416.70001,58.216C417.57007,57.78616 418.29999,57.50134 419.20001,57.5L420.10001,57.5L421.02802,57.5" id="svg_18" stroke-width="3" stroke="#000" fill="none"/>
  <path t="64690,64767,64767,64767,64808,64809,64809,64825,64825,64825,64825,64825,64826,64826,64841,64841,64841,64841,64885,64886,64886,64902,64902,64926,64943,64943,64943,64944,65025,65025,65043,65058,65059,65077,65127,65127,65158,65174,65174,65192,65192,65192,65208,65208,65208,65225,65225,65225,65242,65277,65293,65310,65311,65326,65326,65327,65327,65327,65327,65344,65344,65345,65345,65360,65360,65361,65361,65361,65376,65376,65377,65422,65422,65446,65447,65461,65476,65493,65493,65493,65493,65509,65509,65525,65526,65526,65526,65526,65543,65543,65543,65543,65560,65560,65560,65575,65576,65576,65593,65593,65593,65593,65610,65610,65627,65627,65627,65627,65643,65644,65644,65661,65661,65661,65677,65677,65677,65677,65693,65693,65693,65709,65710,65710,65710,65710,65726,65727,65727,65743,65744,65744,65790,65790,65811,65811,65827,65828,65828,65828,65828,65844,65844,65845,65845,65845,65861,65862,65862,65862,65862,65862,65878,65878,65878,65879,65879,65879,65894,65894,65894,65895,65911,65928,65945,65946,65946,65962,65962,65963,65963,65978,65978,65978,65994,65995,65995,66012,66012,66029,66029,66029,66046,66046,66046,66061,66061,66061,66061,66062,66062,66078,66079,66079,66079,66095,66095,66095,66095,66095,66095,66096,66096,66096,66111,66111,66111,66112,66112,66112,66127,66127,66127,66128,66128,66128,66129,66145,66145,66145,66146,66146,66161,66161,66177,66177,66194,66194,66211,66211,66227,66227,66279,66301,66312,66329,66345,66361,66362,66378,66379,66395,66395,66395,66396,66412,66412,66412,66681,66701,66701,66701" d="M201.5,43.5C205.09734,42.01733 205.66899,41.66851 206.48567,41.20984C207.34831,40.72535 208.10953,40.54471 208.89467,40.67333C210.16136,40.88085 210.69061,41.06823 211.27766,41.20533C212.54155,41.5005 213.19415,41.65171 213.84567,41.79467C214.48216,41.93432 216.19061,42.27098 217.11417,42.39017C217.89441,42.49086 218.58516,42.50077 219.79967,42.72133C220.39566,42.82957 221.21291,43.13749 222.16667,43.33333C223.03278,43.51117 223.49466,42.74538 223.5,41.83333C223.50391,41.16401 223.5,40.39867 223.5,39.60133C223.5,38.16667 223.38551,37.42158 223.5,36.5C223.61168,35.60104 224.43169,35.48483 225.31467,35.936C226.22453,36.40092 226.48711,37.31248 227.26167,37.4955C228.13756,37.70246 228.96167,37.5 229.92149,37.5C230.73599,37.5 231.60451,37.5 232.79984,37.5C233.39549,37.5 234.26401,37.5 235.33333,37.5C236.25333,37.5 237.01334,37.5 237.97917,37.5C238.89999,37.5 239.8,37.5 240.70667,37.5C241.48584,37.5 242.33333,37.5 243.12399,37.5C244.05867,37.5 244.5625,37.5 245.60817,37.5C246.136,37.5 247.65704,37.49364 248.58566,37.5045C249.45842,37.5147 250.29462,37.52266 251.5,37.66667C252.30173,37.76245 253.09177,37.92557 253.864,38.11067C254.61717,38.29119 255.68137,38.58977 256.33383,38.8C257.22192,39.08615 258.20813,39.43831 258.828,39.9C259.66367,40.52243 260.15128,41.29812 261,41.47917C261.91171,41.67366 263.00003,41.50501 263.552,41.49866C264.50015,41.48777 265.16934,41.56554 266.44934,41.216C267.03873,41.05505 268.16458,40.64728 268.83865,40.58533C269.62094,40.51344 270.47064,40.50647 271.33466,40.50134C272.55698,40.49407 273.28568,40.5 273.95834,40.5C274.89734,40.5 276.10001,40.5 276.70001,40.5C277.60001,40.5 278.79999,40.5 279.39999,40.5C280.29999,40.5 281.50003,40.50596 282.09866,40.49866C282.97931,40.48793 283.82755,40.47115 284.81601,40.216C285.74036,39.97739 286.66278,39.63369 287.45715,39.55717C288.30798,39.4752 288.90134,39.50067 290.09866,39.5C290.97916,39.49951 291.81476,39.48678 292.81732,39.50134C293.52103,39.51155 294.27463,39.55586 295.46933,39.78533C296.16486,39.91892 296.88748,40.10264 297.61734,40.30133C299.02026,40.68327 299.6694,40.91027 300.32535,41.064C301.65735,41.37617 302.3833,41.42678 303.12534,41.464C303.87415,41.50156 304.616,41.49933 306.01468,41.5C306.664,41.50031 307.59549,41.5 308.5,41.5C309.39099,41.5 310.228,41.5 311.35718,41.5C312.11465,41.5 312.98801,41.5 313.78265,41.5C314.83334,41.5 315.47198,41.5 316.5625,41.5C317.36618,41.5 317.78799,41.5 319.12167,41.5C320.06168,41.5 320.54666,41.5 321.54666,41.5C322.58667,41.5 323.66666,41.5 324.22134,41.5C325.35266,41.5 325.92532,41.5 327.07468,41.5C327.64734,41.5 329.33334,41.5 329.87817,41.5C330.93384,41.5 331.44266,41.5 332.41733,41.5C333.328,41.5 334.16666,41.5 335.27667,41.5C335.91666,41.5 336.72665,41.5 337.828,41.5C338.80899,41.5 339.83334,41.5 340.51434,41.5C341.32132,41.5 342.5,41.5 343.10001,41.5C344,41.5 344.89999,41.5 345.79999,41.5C346.70001,41.5 347.60001,41.5 348.5,41.5C349.39099,41.5 350.228,41.5 351.35733,41.5C352.15067,41.5 353.04324,41.51569 353.76132,41.48933C354.55264,41.46029 355.57834,41.27567 356.30667,41.07467C357.12326,40.8493 358.16513,40.64812 359.03732,40.58533C360.01071,40.51527 360.52078,40.5159 361.54651,40.5045C362.04932,40.49892 363.43649,40.5 364.25549,40.5C365.0625,40.5 365.9295,40.5 367.5,40.5C368.12817,40.5 368.80533,40.5 369.52051,40.5C370.26266,40.5 371.02084,40.5 371.784,40.5C372.54117,40.5 373.28134,40.50192 375.29315,40.49983C375.87866,40.49923 376.96277,40.49339 377.47916,40.47917C378.50641,40.45089 379.03555,40.42624 380.16666,40.33333C381.43713,40.22898 382.11072,40.1479 382.80133,40.07467C383.50006,40.00057 384.19833,39.92207 384.88934,39.85266C386.83246,39.65749 387.4129,39.61052 388.45782,39.55717C389.35373,39.51142 390.1105,39.50225 391,39.5C391.95834,39.49757 392.82642,39.56412 393.71066,39.464C394.71066,39.35078 395.45874,38.94197 396.33334,38.66667C397.11069,38.42199 398.06354,38.343 398.79016,37.7955C399.54343,37.22793 399.93549,36.518 400.89999,36.5C401.79984,36.4832 402.70001,36.5 403.60016,36.5C404.38535,36.5 405.16617,36.5 406.01883,36.5C407.14282,36.5 407.80984,36.5 408.52084,36.5C409.61734,36.5 410.67816,36.5 411.33383,36.5C412.21735,36.5 413.35632,36.49983 413.71384,36.27867L413.14532,36.07467L412.32483,35.85266" id="svg_19" stroke-width="3" stroke="#000" fill="none"/>
  <path t="67369,67414,67414,67414,67414,67415,67448,67448,67448,67448,67463,67463,67463,67463,67464,67480,67480,67497,67516,67612,67612,67648,67665,67665,67666,67683,67683,67683,67698,67743,67766,67766,67848,67866,67866,67883,67883,67899,67899,67915,67915,67915,67932,67932,67949,67950,68031,68049,68050,68067,68243" d="M190.5,22.5C190.5,25.12267 190.5,25.57233 190.5,26.54167C190.5,27.04533 190.5,28.05067 190.5,29.43583C190.5,30.2375 190.5,30.97917 190.5,31.70083C190.5,32.83333 190.5,33.66533 190.5,34.52934C190.5,35.37733 190.5,36.16133 190.5,37.35867C190.5,38.29467 190.59843,39.20844 190.47917,40.02083C190.33458,41.00583 189.91328,41.86202 190.32333,41.7865C191.12656,41.63856 191.76268,41.1035 192.55183,40.8C193.58009,40.40455 194.47571,40.03014 195.01334,39.7C195.8952,39.15847 196.69698,38.54272 197.60017,38.5C198.38446,38.46291 199.32823,38.57639 200.33333,38.5C201.08768,38.44267 201.04036,37.62228 200.69733,36.89734C200.22151,35.89178 199.85608,35.32172 199.62134,34.29984C199.43561,33.49131 199.44925,32.80742 199.216,31.81733C199.02676,31.01405 198.7287,29.81769 198.5,29.04167C198.2755,28.27988 197.66667,27.5 197.50133,26.7L197.5,25.864L197.5,24.86083" id="svg_20" stroke-width="3" stroke="#000" fill="none"/>
  <path t="68642,68701,68701,68701,68702,68718,68718,68718,68718,68735,68735,68735,68735,68735,68751,68751,68751,68751,68815,68815,68815,68835,68885,68902,68902,68902" d="M186.5,41.5C187.7,44.46933 187.90102,45.16105 188.10001,45.88533C188.30104,46.61705 188.70895,48.01585 188.88933,48.696C189.0746,49.39461 189.24776,50.15095 189.37849,51.464C189.42697,51.95093 189.46748,52.97591 189.47917,53.5C189.50241,54.54187 189.5,56 189.5,56.84267C189.5,57.58133 189.5,58.232 189.5,59.33333C189.5,60.25333 189.5,61.01333 189.5,61.97917C189.5,62.87333 189.4955,62.01417 189.47917,61.39583L189.44284,60.6775" id="svg_21" stroke-width="3" stroke="#000" fill="none"/>
  <path t="69410,69469,69470,69503,69503,69503,69503,69503,69503,69503,69503,69519,69519,69519,69519,69519,69519,69519,69520,69520,69585,69585,69585,69585,69585,69585,69585,69585,69585,69621,69621,69621,69637,69637,69653,69653,69669,69669,69669,69669,69669,69686,69686,69686,69686,69686,69686,69686,69686,69686,69703,69703,69703,69703,69703,69703,69703,69703,69703,69720,69720,69720,69720,69720,69720,69738,69738,69739,69887,69887,69905,69920,69936,69936,69954,69954,69987" d="M188.5,18.5C187.8125,17 187.02126,16.6762 186.16667,16.5C185.01419,16.26238 184.3109,16.18366 183.53734,16.05733C182.68719,15.9185 181.76144,15.76251 180.76384,15.57133C179.69064,15.36566 177.33116,14.84195 176.052,14.51483C174.72035,14.17429 173.36613,13.79809 172.008,13.40933C170.66547,13.02504 169.36502,12.63834 168.12601,12.26783C166.9704,11.92227 165.00089,11.33026 164.22267,11.1075C163.58205,10.92413 163.0629,10.78228 162.65067,10.68C162.334,10.60143 162.09666,10.54937 161.92467,10.5225C161.80573,10.50392 161.66664,10.50129 161.62151,10.49967C161.58528,10.49837 161.27838,9.85928 161.61433,9.20533C162.00064,8.45337 162.96614,8.5045 164.19867,8.5C164.84267,8.49765 165.67067,8.5 166.17616,8.5C166.75467,8.5 168.16667,8.5 169.01384,8.5C169.944,8.5 170.94017,8.5 171.98534,8.5C173.0625,8.5 174.15466,8.5 175.24483,8.5C176.31599,8.5 178.33333,8.5 179.24933,8.5C180.10133,8.5 180.89534,8.5 181.63733,8.5C182.33333,8.5 182.98933,8.5 183.61133,8.5C184.20534,8.5 185.33333,8.5 185.87801,8.5C186.41066,8.5 186.92934,8.5 187.91667,8.5C188.82401,8.5 190.00011,8.51059 190.64267,8.49867C191.63245,8.4803 192.45319,8.23283 193.1955,7.85267C194.03856,7.42091 194.49466,6.85338 194.5,5.84283C194.50394,5.09551 194.5,4.10133 194.5,3.336L194.5,2.38533" id="svg_22" stroke-width="3" stroke="#000" fill="none"/>
  <path t="70606,70656,70656,70656,70656,70656,70656,70656,70656,70656,70672,70672,70672,70672,70672,70672,70673,70673,70673,70690,70690,70690,70690,70690,70690,70690,70690,70691,70739,70740,70740,70756,70756,70757,70773,70773,70773,70773,70773,70790,70790,70790,70790,70806,70806,70856,70872,70918,70919,70938,70956,70956,70973,70973,70997,70997,71006,71038,71286,71310,71325,71389,71409,71426,71426,71442,71442,71443,71443,71443,71443,71458,71459,71459,71459,71459,71460,71460,71460,71460,71475,71475,71475,71476,71476,71476,71476,71476,71476,71490,71491,71491,71491,71491,71491,71491,71491,71491,71508,71508,71508,71508,71509,71509,71509,71509,71509,71524,71524,71525,71525,71525,71525,71525,71525,71526,71550,71550,71550,71550,71550,71550,71559,71559,71574,71591,71592,71609,71609,71609,71609,71640,71641,71658,71658,71658,71658,71673,71674,71674,71674,71674,71674,71690,71691,71691,71691,71691,71708,71708,71708,71725,71726,71726,72031,72031,72031,72075,72075,72271,72310,72310,72423,72423,72423,72423,72423,72444,72444,72445,72461,72461,72476,72476,72476,72476,72476,72476,72493,72493,72493,72493,72494,72494,72494,72494,72509,72510,72510,72510,72510,72510,72510,72510,72510,72525,72526,72526,72526,72526,72526,72526,72526,72527,72543,72543,72543,72544,72544,72544,72544,72544,72544,72559,72560,72560,72560,72560,72560,72560,72560,72561,72575,72576,72576,72576,72576,72576,72576,72577,72577,72594,72594,72595,72595,72595,72595,72595,72595,72675" d="M209.5,15.5C222.66667,15.5 224.02034,15.5 225.37601,15.5C226.72566,15.5 228.06134,15.5 229.375,15.5C230.65866,15.5 231.90433,15.5 233.104,15.5C235.33333,15.5 236.349,15.5 237.29866,15.5C238.18634,15.5 239.01601,15.5 239.79167,15.5C240.51733,15.5 241.19701,15.5 241.83467,15.5C243,15.5 243.535,15.5 244.03999,15.5C244.515,15.5 244.96001,15.5 245.375,15.5C245.75999,15.5 246.11501,15.5 246.44,15.5C247,15.5 247.6375,15.5 248.46666,15.5C249.52333,15.5 250.08333,15.5 251.07333,15.5C252.24283,15.5 253.10983,15.5 253.56134,15.5C254.48534,15.5 255.41733,15.5 256.77802,15.5C257.21066,15.5 258.03201,15.5 259.12399,15.5C260.2355,15.5 261.14487,15.84608 261.97916,15.47917C262.64005,15.18851 262.5,14.016 262.5,13.15267C262.5,12.25267 262.5,11.33333 262.5,10.5C262.5,9.52133 262.5,8.74733 262.5,7.84733C262.5,6.984 262.5,6.02083 262.5,5.1C262.5,4.209 262.48969,4.20906 262.5,5.1C262.51044,6.00018 262.81659,6.83958 263.5,7.5C264.05249,8.0339 265.16147,8.51855 265.84799,8.7C266.69159,8.92296 267.18561,9.01084 268.30383,9.2C268.931,9.30609 270.33292,9.50328 271.10782,9.59983C271.92889,9.70214 272.79443,9.79927 273.70132,9.88933C274.64545,9.9831 275.625,10.06848 276.63684,10.14283C277.677,10.21927 279.83316,10.33812 280.94299,10.3785C282.07053,10.41953 283.21426,10.44591 284.37201,10.464C285.54163,10.48228 286.72134,10.49084 287.909,10.4955C289.10266,10.50018 291.5,10.5 292.69916,10.5C293.89334,10.5 295.07751,10.5 296.24667,10.5C297.39584,10.5 298.51999,10.5 299.61417,10.5C300.67334,10.5 302.66666,10.5 303.59201,10.5C304.46933,10.5 305.30066,10.5 306.08801,10.5C306.83334,10.5 307.53867,10.5 308.20599,10.5C308.83734,10.5 310,10.5 310.535,10.5C311.04001,10.5 311.51501,10.5 311.95999,10.5C312.375,10.5 312.76001,10.5 313.11499,10.5C313.44,10.5 314,10.5 314.2355,10.5C314.444,10.5 314.62851,10.5 314.79199,10.5C314.9375,10.5 315.5,10.5 316.29999,10.5C317.25717,10.5 318.16861,10.52613 319.01883,10.44283C319.83676,10.3627 320.80127,10.14929 321.47916,10C322.44727,9.78679 323.44534,9.55168 324.17599,9.51067C325.26318,9.44964 325.88071,9.50328 326.60416,9.47917C327.42816,9.4517 328.83401,9.3393 329.34268,9.27833C330.40689,9.15079 330.95352,9.06857 332.04935,8.85333C332.59622,8.74592 334.16953,8.34215 334.65668,8.17883C335.5824,7.86849 336.41284,7.51131 337.17667,7.20983C338.16187,6.82099 338.98944,6.60554 339.71466,6.48533C340.66574,6.32769 341.47171,6.18824 342.27466,5.85333C343.36325,5.39928 344.03516,4.84781 344.65332,4.36133C345.3299,3.82891 346.10129,3.37654 346.47467,2.66C346.8317,1.97489 347.33868,2.48741 347.83334,3.33333C348.28644,4.10818 348.74869,5.01707 349,5.47917C349.49078,6.38161 350.1008,7.55672 350.53067,7.98933C351.164,8.62668 352.15903,8.89011 352.81866,9.07467C353.98328,9.4005 354.75827,9.42209 355.62933,9.47467C356.10397,9.50332 357.12817,9.54714 357.67465,9.584C359.44516,9.70343 360.07739,9.78353 360.73685,9.85267C361.42538,9.92485 362.14557,10.00272 362.90134,10.07467C363.69455,10.15018 364.52832,10.23278 366.33334,10.33333C367.3067,10.38755 368.32391,10.41845 369.37683,10.44283C370.45859,10.46789 371.56247,10.48119 372.68134,10.48933C373.80817,10.49754 374.936,10.49933 377.16666,10.5C378.25699,10.50033 379.32935,10.5 380.38568,10.5C381.42801,10.5 382.45834,10.5 383.47867,10.5C384.491,10.5 385.49734,10.5 387.5,10.5C388.49966,10.5 389.49734,10.5 390.491,10.5C391.47867,10.5 392.45834,10.5 393.42801,10.5C394.38568,10.5 395.32935,10.5 397.16666,10.5C398.05667,10.5 398.92667,10.5 399.77667,10.5C400.60666,10.5 401.41666,10.5 402.20667,10.5C402.97665,10.5 403.72665,10.5 405.16666,10.5C405.85632,10.5 406.52399,10.5 407.16766,10.5C407.78534,10.5 408.375,10.5 408.93466,10.5C409.46234,10.5 409.95599,10.5 410.83334,10.5C411.21384,10.5 411.55734,10.5 411.86682,10.5C412.14532,10.5 412.39584,10.5 412.62134,10.5L412.82483,10.5L413.47833,10.5" id="svg_23" stroke-width="3" stroke="#000" fill="none"/>
  <path t="76033,76168,76202,76202,76202,76202,76221,76221,76221,76221,76221,76221,76221,76235,76236,76236,76253,76279,76279,76294,76303,76321,76321,76373,76384,76401,76418,76418,76436,76436,76436,76452,76452,76469,76486,76502,76502,76502,76520,76520,76520,76520,76537,76537,76537,76537,76537,76537,76553,76553,76553,76553,76554,76569,76569,76569,76569,76569,76586,76586,76586,76586,76603,76603,76603,76620,76620,76620,76636,76636,76636,76653,76653,76653,76669,76669,76670,76686,76686,76686,76709,76721,76739,76753,76770,76770,76787,76804,76821,76821,76821,76837,76838,76838,76854,76854,76870,76870,76887,76904,76904,76920,76920,76920,76937,76955,76955,76955,76970,76970,76970,76970,76987,76987,76987,76987,77004,77021,77037,77037,77037,77054,77054,77054,77070,77070,77070,77087,77087,77087,77087,77104,77105,77105,77296,77321,77322,77325" d="M305.5,148.5C303.828,148.5 302.72266,148.5 302.17465,148.5C301.49866,148.5 300.67065,148.5 299.09351,148.5C298.48132,148.5 297.84116,148.5 297.18399,148.5C295.86267,148.5 295.22049,148.5 294.60535,148.5C293.02917,148.5 292.2475,148.5 291.39999,148.5C290.38535,148.5 289.45749,148.68575 288.70001,148.41467C287.79889,148.09221 287.3942,147.15984 286.5,146.66667C285.83682,146.30092 284.99219,145.89136 284.55716,145.14284C284.13269,144.41246 284.5,143.39967 284.5,142.68567C284.5,141.73067 284.5,140.97917 284.5,140.18266C284.5,138.96167 284.5,138.16167 284.5,137.25717C284.5,136.29866 284.39771,135.31883 284.54266,134.664C284.72025,133.86188 285.62561,133.07321 286.25467,132.71066C286.96097,132.3036 287.78317,131.96393 288.66666,131.66667C289.57684,131.36043 290.52658,131.11894 291,130.97917C291.94989,130.69873 292.44418,130.59352 293.7785,129.95734C294.66342,129.53542 295.06256,129.24696 295.88934,128.75067C296.6973,128.26569 297.89655,127.63505 298.29868,127.46933C299.08319,127.14603 299.8707,126.90334 300.61465,126.61733C301.68875,126.20442 302.66422,125.67503 303.28934,125.32533C303.89886,124.98435 305.09134,124.36774 305.68933,124.14667C306.53336,123.83464 307.57568,123.59216 308.27466,123.536C309.18173,123.46313 310.18484,123.52109 311,123.47916C311.81747,123.43712 312.81552,123.21004 313.52084,123C314.26749,122.77766 315.46722,122.57307 316.15067,122.536C316.84875,122.49813 318.16666,122.5 318.98117,122.5C319.83383,122.5 320.75974,122.32233 321.69867,122.50134C322.45602,122.64572 322.99612,123.35548 323.70001,123.78533C324.37537,124.19777 325.17328,124.91592 325.44284,125.8045C325.69366,126.63135 325.5,127.54166 325.5,128.18666C325.5,129.18401 325.5,130 325.5,130.81599C325.5,132.04283 325.51944,132.68951 325.49985,133.69966C325.48184,134.62852 324.98083,135.3537 324.39984,135.94284C323.7569,136.59479 323.3631,137.37256 322.67465,137.864C322.01047,138.33812 321.18423,139.01654 320.33334,139.33333C319.67267,139.5793 318.72342,139.55766 317.85718,139.72166C316.83231,139.9157 316.10556,140.12051 315.38266,140.38667C314.30692,140.78276 313.66306,141.14259 312.78265,141.63867C312.27017,141.92743 311.17422,142.46397 310.29868,142.5C309.33417,142.53969 308.65332,142.5 307.81332,142.5C306.81467,142.5 305.97916,142.5 305.09866,142.5C304.19983,142.5 303.28934,142.5 302.34283,142.5C301.33334,142.5 300.61734,142.5 299.88535,142.5C298.80984,142.5 297.83334,142.5 297.01883,142.5C296.16617,142.5 295.13599,142.51067 294.30133,142.78534L293.78534,143.30133L293.58667,144.21466" id="svg_24" stroke-width="3" stroke="#000" fill="none"/>
  <path t="79905,79943,79944,79944,79944,79944,79944,79994,79994,79994,79994,79994,79994,80028,80028,80028,80028,80028,80028,80028,80044,80044,80044,80044,80044,80044,80044,80044,80044,80061,80061,80061,80061,80061,80061,80061,80061,80061,80078,80078,80078,80078,80078,80078,80078,80078,80078,80095,80095,80095,80095,80095,80095,80095,80095,80095,80111,80111,80111,80111,80111,80111,80111,80111,80111,80128,80128,80144,80144,80144,80161,80161,80161,80161,80161,80161,80161,80178,80178,80178,80178,80178,80178,80178,80195,80195,80195,80195,80195,80195,80195,80212,80212,80212,80212,80212,80212,80229,80229,80229,80246,80246,80262,80262,80279,80279,80279,80295,80295,80295,80312,80313,80313,80313,80313,80313,80313,80328,80328,80328,80328,80328,80329,80329,80329,80329,80345,80346,80346,80346,80346,80346,80346,80346,80347,80362,80362,80362,80362,80363,80363,80363,80363,80363,80379,80379,80379,80379,80380,80380,80380,80380,80380,80396,80396,80396,80396,80396,80397,80397,80397,80397,80413,80413,80413,80413,80413,80414,80414,80429,80429,80429,80446,80446,80446,80462,80462,80462,80478,80478,80478,80496,80496,80497,80512,80512,80512,80512,80529,80530,80530,80530,80530,80530,80545,80545,80545,80562,80563,80563,80563,80579,80580,80580,80596,80596,80638,80638,80646,80646,80663,80663,80679,80679,80679,80696,80696,80712,80712,80729,80729,80746,80798,80798,80798,80829,80880,80913,80914,80931,80932,80932,80933,80947,80948,80948,80949,80964,80965,80965,80965,80981,80982,80982,80982,80983,80983,80997,80997,80998,80998,80999,80999,81013,81014,81014,81014,81014,81015,81030,81030,81031,81031,81031,81031,81047,81047,81063,81064,81117,81117,81129,81130,81148,81148,81164,81164,81164,81165,81165,81181,81181,81181,81182,81182,81197,81197,81198,81198,81198,81198,81199,81214,81214,81214,81215,81215,81215,81215,81231,81231,81231,81231,81231,81231,81247,81248,81248,81248,81248,81264,81264,81264,81264,81315,81315,81347,81348,81365,81365,81366,81366,81367,81381,81382,81382,81382,81382,81382,81383,81383,81397,81398,81398,81398,81398,81399,81399,81399,81399,81414,81414,81415,81415,81415,81415,81415,81416,81431,81432,81432,81432,81462,81462,81481,81498,81499,81515,81515,81516,81532,81532,81532,81533,81533,81533,81548,81548,81549,81549,81565,81565,81581,81581,81616,81665,81698,81716,81732,81733,81734,81734,81750,81751,81751,81752,81752,81765,81766,81766,81767,81768,81768,81799,81799,81799,81849,81849,81849,81869,81893,81917,81959,81959,81983,81999,82000,82018,82018,82050,82051,82051,82066,82066,82066,82067,82082,82082,82100,82100,82149,82167,82184,82201,82202,82202,82203,82203,82216,82217,82217,82217,82218,82218,82234,82234,82235,82235,82235,82236,82250,82251,82251,82251,82252,82252,82267,82267,82268,82293,82294,82317,82317,82318,82333,82333,82333,82334,82334,82350,82350,82350,82351,82351,82367,82367,82367,82368,82383,82383,82383,82400,82400,82400,82450,82477,82502,82503,82518,82550,82601,82601,82618,82634,82635,82652,82652,82653,82668,82669,82685,82701,82702,82718,82719,82734,82735,82735,82773,82773,82783,82800,82801,82816,82817,82817,82817,82817,82833,82834,82834,82834,82834,82834,82835,82835,82851,82851,82851,82852,82852,82852,82852,82852,82853,82867,82868,82868,82868,82868,82868,82869,82869,82869,82884,82885,82885,82885,82885,82885,82886,82886,82886,82901,82901,82901,82901,82901,82902,82902,82902,82902,82918,82918,82918,82919,82919,82919,82919,82934,82934,82934,82934,82934,82950,82951,82951,82951,82967,82968,82968,82984,82985,82985,83002,83002,83002,83003,83018,83018,83019,83019,83261,83414,83415" d="M10.5,339.5C13.14283,342.36432 13.81084,343.16617 14.16133,343.59732C14.52187,344.0408 15.25325,344.9552 15.61733,345.41867C16.683,346.77524 17.01173,347.21909 17.68533,348.064C18.01808,348.48135 18.70316,349.30154 19.06933,349.69867C19.81987,350.51263 20.66961,351.3064 21.15483,351.664C21.65517,352.03275 22.83482,352.64557 23.5235,352.84268C24.26119,353.0538 26.00184,353.19955 26.99217,353.12766C28.0605,353.05008 29.18376,352.85757 30.33867,352.59067C31.52675,352.3161 32.71546,351.96429 33.88317,351.54965C35.0371,351.13989 37.17995,350.19095 38.12817,349.65634C39.03191,349.14682 39.86234,348.58734 40.62267,347.98532C41.36956,347.39395 42.06339,346.74713 42.72117,346.06235C43.38779,345.36835 44.67294,343.83832 45.3205,343.01501C45.9838,342.17169 46.63611,341.30264 47.272,340.42001C47.90175,339.5459 48.50156,338.67792 49.0615,337.82501C49.59595,337.01096 50.51003,335.50546 50.871,334.82916C51.19713,334.21814 51.4656,333.65115 51.684,333.12668C51.88288,332.64905 52.04073,332.20154 52.173,331.78418C52.29643,331.39471 52.49834,330.66617 52.6,330.32199C52.6984,329.98883 52.79718,329.66971 52.9,329.36801C52.99734,329.08243 53.0954,328.81671 53.2,328.57599C53.29582,328.35547 53.39701,327.84979 53.91067,327.608C54.74127,327.21701 55.62564,327.51199 56.19033,327.55716C57.33491,327.64871 58.32496,327.78146 58.87683,327.86618C60.06473,328.04849 60.68311,328.17474 61.30817,328.31885C61.93789,328.46402 63.76174,329.03189 64.32933,329.27335C64.89058,329.51212 65.96383,330.07431 66.47867,330.39334C66.99668,330.71432 67.52239,331.04181 69,332.24249C69.50886,332.65598 69.99999,333.10083 70.5,333.54001C70.99999,333.97916 71.99187,334.84763 72.5,335.24667C73.48466,336.01996 74.489,336.65405 74.9865,336.91949C75.92491,337.42017 76.38042,337.62769 77.244,337.92532C78.32252,338.29706 79.19006,338.46146 80.096,338.49734C81.09921,338.53708 81.9,338.5 82.9,338.5C83.7,338.5 84.70016,338.5 85.52084,338.5C86.18533,338.5 87.18933,338.5 88.08334,338.5C88.776,338.5 90,338.5 90.96,338.5C91.485,338.5 92.625,338.5 93.24,338.5C93.885,338.5 94.56,338.5 96,338.5C96.7645,338.5 97.556,338.5 98.3715,338.5C99.208,338.5 100.0625,338.5 100.932,338.5C101.8135,338.5 102.704,338.5 104.5,338.5C105.40033,338.5 106.30267,338.5 107.209,338.5C108.12133,338.5 109.04166,338.5 109.972,338.5C110.91434,338.5 111.87067,338.5 113.83334,338.5C114.8425,338.5 115.86667,338.5 116.90083,338.5C117.94,338.5 118.97916,338.5 120.01334,338.5C121.0375,338.5 122.04667,338.5 124,338.5C124.935,338.5 125.84,338.5 126.715,338.5C127.56,338.5 128.375,338.5 129.16,338.5C129.91499,338.5 130.64,338.5 132,338.5C132.6355,338.5 133.244,338.5 133.82851,338.5C134.392,338.5 134.9375,338.5 135.468,338.5C135.9865,338.5 136.496,338.49985 137.5,338.5C137.9995,338.50009 138.49602,338.49976 138.9865,338.50449C139.46802,338.50912 140.3941,338.50781 141.244,338.58533C142.33957,338.68524 143.2077,338.92249 143.94366,339.2045C144.92841,339.58185 145.71646,339.9201 146.54733,340.14282C147.56918,340.41672 148.27419,340.48071 149.18401,340.49866C150.18381,340.51837 151,340.50107 151.81599,340.5C152.81734,340.49866 153.53273,340.51459 154.26933,340.32935C155.49892,340.02014 156.18678,339.62576 156.95734,339.24268C157.36841,339.0383 158.66774,338.33524 159.121,338.07883C160.04585,337.55566 160.50414,337.28558 161.40266,336.76132C162.24547,336.26956 163.32468,335.62155 163.9375,335.31885C164.72664,334.92905 165.83131,334.64908 166.468,334.58533C167.14903,334.51715 168.19466,334.50226 169.16667,334.5C169.98567,334.49811 170.89101,334.5 171.89734,334.5C172.78566,334.5 173.78122,334.40991 174.14734,333.73834C174.59871,332.91037 174.47772,332.09521 174.50133,331.09866C174.5211,330.26352 174.63896,329.32605 174.85716,328.55182C175.08235,327.75281 175.53706,326.8541 175.97917,326.02084C176.41602,325.19751 176.49466,324.32538 176.5,323.384C176.50435,322.616 176.5,321.67465 176.5,320.66666C176.5,319.91068 176.44701,318.96521 176.85266,318.20001C177.30104,317.35422 177.8181,316.43332 178.38667,316.84268C179.19518,317.4248 179.33624,318.22778 179.67467,318.90668C180.02747,319.61441 180.49644,320.67191 180.864,321.67465C181.10098,322.3212 181.3056,322.98203 181.60017,324.02167C181.80945,324.76028 182.01123,325.54449 182.25717,326.36166C182.65134,327.67136 182.9826,328.58633 183.15717,329.05716C183.51523,330.02295 183.70859,330.51151 184.10133,331.50134C184.49791,332.50082 184.8983,333.49991 185.10451,333.99551C185.51482,334.98169 185.71655,335.47342 186.18533,336.41467C186.64769,337.34305 187.18065,338.21899 187.45717,338.64734C188.01152,339.50607 188.6069,340.35101 188.90134,340.784C189.80705,342.11584 190.09865,342.57913 190.39101,343.03915C190.96091,343.93588 191.48132,344.77866 191.72934,345.16C192.51563,346.36902 193.12009,347.06537 193.59984,347.82132C194.01645,348.47778 194.13586,349.6521 194.66701,350.13834C195.3636,350.77603 196.30351,350.63074 197.35733,350.27817C198.04712,350.04739 198.82994,349.16324 199.272,348.73065C199.77882,348.23471 200.34013,347.69357 200.98801,347.18268C201.99617,346.38766 202.76067,345.94284 203.5625,345.5C203.97986,345.2695 204.87097,344.814 205.83333,344.33334C206.87091,343.81512 207.41595,343.54562 207.98267,343.28534C209.15152,342.74847 209.76144,342.49722 210.388,342.26935C211.65761,341.80762 212.31793,341.63013 212.98267,341.47198C214.30872,341.15652 214.9782,341.05618 215.63867,340.95734C216.28926,340.85995 218.16632,340.66174 218.75684,340.62183C219.3277,340.58325 220.41759,340.54523 220.9375,340.5625C221.93488,340.59561 223.33679,340.8201 223.77834,340.94284C224.64594,341.18402 225.46049,341.51581 226.23833,341.85184C227.33643,342.32623 228.01363,342.61053 228.9375,342.97916C229.72942,343.29514 230.46118,343.81851 231.29733,344.21466C232.05901,344.57553 232.72783,344.42151 233.7075,344.2785C234.58693,344.15015 235.60423,343.97952 236.15334,343.88934C236.72256,343.79587 238.50009,343.50055 239.10083,343.39966C239.70676,343.29788 240.95381,343.08118 241.60417,342.95834C242.2805,342.8306 242.98695,342.69086 243.72667,342.52933C245.33583,342.17792 246.20708,341.95966 247.11867,341.73199C248.05943,341.49704 249.01616,341.24994 249.97917,341C250.93748,340.75128 251.87901,340.50342 252.79466,340.26801C254.49908,339.82977 255.27023,339.64124 255.98534,339.47067C256.64761,339.31271 257.26257,339.17154 257.83334,339.04166C258.36392,338.9209 258.8627,338.82556 260.16666,338.5C260.92914,338.30963 261.6218,338.14075 262.47665,337.79999C263.37476,337.44199 264.22964,336.97238 264.46399,336.08932C264.69781,335.20828 264.51239,334.47906 264.5,333.5C264.48932,332.65714 264.41428,331.8649 264.16666,330.83334C263.95618,329.95651 263.79355,329.48517 263.5,328.47916C263.3501,327.96548 263.02029,326.96097 262.74301,325.56467C262.58737,324.78088 262.52335,324.08395 262.50266,323.18933C262.47943,322.18561 262.5,321.31067 262.5,320.30017C262.5,319.52084 262.45432,318.52051 262.5,317.62134C262.54272,316.78073 263.2186,316.49805 264.2645,316.50034C264.87155,316.50168 265.93768,316.53479 266.70401,316.67065C267.91211,316.88486 268.71097,317.20932 269.12134,317.37201C269.9762,317.71094 270.86621,318.11365 271.83334,318.5C272.86072,318.9104 273.39581,319.09695 273.92932,319.28934C274.97629,319.66687 275.48547,319.82892 276.83334,320.33334C277.56149,320.60587 278.39072,321.04395 279.5,321.33334C280.27591,321.53577 281.04013,321.52936 281.97916,322C282.72263,322.37262 283.60001,322.5 284.5,322.5C285.29999,322.5 286.29102,322.47156 287.15268,322.86166C287.8829,323.19226 288.5639,323.7699 288.95834,324.52084C289.44589,325.4491 289.4621,326.32285 289.55267,327.01434C289.70084,328.14554 289.85358,328.80515 290,329.5C290.21738,330.53171 290.41733,331.45364 290.47916,332.4375C290.53537,333.33182 290.04816,334.34183 290.55716,335.14282C290.95255,335.76501 292.10147,335.49014 292.83334,334.83334C293.31442,334.40161 293.78207,333.75287 294.32132,333.02133C294.91388,332.21744 295.50165,331.33441 296.10132,330.41733C296.40533,329.95239 296.69995,329.47797 297.336,328.56134C297.65189,328.10611 298.65552,326.82291 299.02167,326.44318C299.74042,325.69775 300.12592,325.35519 300.94666,324.75732C301.76688,324.15985 302.659,323.65176 303.58267,323.18668C304.04446,322.95416 304.97745,322.5376 305.43866,322.34668C306.32745,321.97879 307.55731,321.52322 308.27667,321.25717C309.20749,320.9129 310.16034,320.48889 310.83865,320.11066C311.65924,319.65311 312.58304,319.51447 313.272,319.75732C314.1788,320.07693 314.8215,320.56104 315.54166,321.0625C316.31689,321.60233 316.70352,321.90283 317.89966,322.79984C318.29761,323.09827 319.08197,323.68506 319.828,324.26401C320.53244,324.81067 321.46277,325.57202 321.98566,326.04285C322.46368,326.4733 323.09766,327.09833 323.89999,327.89999C324.50024,328.49976 325.09735,329.10266 325.69983,329.69968C326.28677,330.28128 326.92352,331.13559 327.86401,331.42801C328.7601,331.70663 329.62799,331.31134 330.20001,330.7955C330.92722,330.13971 331.26459,329.23563 331.66666,328.5C332.06863,327.76453 333.19028,327.48901 333.70001,328.07068C334.2034,328.64511 334.60001,329.70001 335,330.5C335.29999,331.10001 335.83493,332.0784 336.14282,332.84283C336.49832,333.72549 336.86197,334.46533 337.5,335.02084C338.20001,335.63034 338.42493,336.53281 338.66666,337.5C338.81897,338.10944 339.20279,338.88669 339.41599,339.89734C339.6015,340.77676 340.04095,341.47916 340.98801,341.5C341.78247,341.51749 342.83334,341.5 343.47467,341.5C344.20401,341.5 345.02933,341.5 345.95868,341.5C347,341.5 348.16135,341.5 348.78949,341.5C349.45065,341.5 350.14584,341.5 350.87601,341.5C351.64218,341.5 352.44534,341.50015 354.16666,341.5C355.08585,341.49991 356.04001,341.50009 357.02417,341.49551C358.03333,341.49081 359.06256,341.48206 360.10666,341.46399C361.16089,341.44577 362.22061,341.42944 364.33334,341.33334C365.3782,341.2858 366.40964,341.21887 367.42484,341.14282C368.42163,341.06815 369.39618,340.98257 370.34534,340.88934C371.26718,340.7988 372.15826,340.70651 373.83334,340.5C374.61496,340.40366 375.36285,340.30133 376.08484,340.20001C376.78818,340.10132 377.47913,339.99985 378.16534,339.89999C378.85345,339.79984 379.54999,339.69504 381,339.5C381.763,339.39737 382.54666,339.29999 383.34,339.20001C384.13333,339.10001 384.91693,339.00201 385.67999,338.89999C386.4136,338.80191 387.10971,338.71793 388.33334,338.5C388.85141,338.40775 389.3075,338.30475 389.71335,338.2045C390.08075,338.11374 390.41058,337.99564 391.04001,337.85718C392.35361,337.56824 393.16241,337.5513 393.58667,337.52533C394.45984,337.47186 395.33859,337.4566 396.55701,337.27866C397.28964,337.17166 398.27463,336.90643 398.89734,336.784C400.09341,336.54883 400.99985,336.51379 401.60001,336.50449C402.79987,336.4859 403.70001,336.5 404.29999,336.5C405.5,336.5 406.40451,336.5 407.02084,336.5C407.98532,336.5 409.021,336.5 409.74365,336.5C410.45834,336.5 411.44534,336.5 412.62851,336.49551L413.5,336.33334L414.08566,335.85266" id="svg_25" stroke-width="3" stroke="#000" fill="none"/>
  <path t="88316,88431,88449,88466,88466,88481,88481,88499,88499,88499,88499,88515,88515,88515,88515,88532,88532,88549,88549,88752,88782,88782,88802,88802,88802,88802,88802,88802,88802,88816,88816,88816,88816,88832,88833,88849,89074,89074" d="M130.5,269.5C128.8,269.55716 128.01151,270.06842 127.17867,270.59982C126.52323,271.01804 125.67071,271.35257 124.80267,271.52533C124.00333,271.68442 123.1279,271.85468 122.4375,272.02084C121.68584,272.20175 120.49927,272.4971 119.704,272.70001C118.93127,272.89719 118.17902,273.02127 117,273.5C116.17342,273.8356 115.34167,274.38644 114.67467,274.46399C113.67278,274.58047 112.8923,274.53217 113.552,274.27133C114.52313,273.88736 115.40622,273.36429 115.9205,273.08484C116.46361,272.7897 117.02135,272.48007 118.14117,271.85349C118.68158,271.55109 120.08715,270.75458 120.81416,270.37601C121.3917,270.07526 122.07745,269.70493 123.0955,269.55716C124.00681,269.42487 124.95834,269.5 125.5,269.064L125.5,268.20001" id="svg_26" stroke-width="3" stroke="#000" fill="none"/>
  <path t="90649,90770,90770,90787,90787,90787,90805,90846,90871,90888,90889,90905,90906,90921,90921,90921,90937,90937,90954,90954,90954,90971,90971,90987,90987,91085,91085,91105,91122,91123,91140,91140,91157,91173,91173,91197,91213,91221,91221,91245,91261,91271,91288,91305,91325,91377,91377,91406,91584,91605,91622,91623,91640,91640,91640,91655,91656,91656,91677,91688,91716,91740" d="M136.5,290.5C132.95717,291.79999 132.30785,292.09433 131.30017,292.60001C130.70898,292.89667 129.9912,293.30853 129.136,293.88934C128.40494,294.38586 127.23988,294.94052 126.6215,294.27832C126.16029,293.78442 126.5,292.65332 126.5,291.81332C126.5,290.81601 126.49837,290 126.5,289.18399C126.502,288.18533 126.48884,287.24133 127,286.5C127.465,285.82562 128.26901,285.34805 129.16667,284.66666C129.69102,284.26862 130.5054,283.68451 131.25717,283.44733C132.15512,283.164 133.07797,282.96313 133.45833,281.97916C133.74733,281.23151 133.66742,280.24591 133.21466,279.38666C132.84576,278.68655 131.84967,278.51767 131.01601,278.216C130.13522,277.89728 129.25861,277.52859 128.39999,277.5C127.5005,277.47003 126.7,277.5 125.8,277.5C124.9,277.5 124,277.5 123.1,277.5C122.2,277.5 121.24313,277.66275 120.4,277.27866C119.61998,276.92331 118.0155,277.37921 118.02084,276.5C118.02097,276.47919 118.98534,276.49994 119.71066,276.5C120.70016,276.50009 121.52489,276.48776 122.18533,276.58533C123.19134,276.73395 123.97325,277.02173 124.73067,277.216C125.8204,277.49551 126.7955,277.50449 127.47467,277.936L127.784,278.70001" id="svg_27" stroke-width="20" stroke="#fff" fill="none"/>
  <path t="95646,95681,95682,95682,95682,95682,95699,95699,95699,95699,95699,95699,95715,95715,95715,95715,95715,95732,95732,95732,95770,95822,95822,95846,95865,95866,95883,96104,96135,96136,96152,96152,96168,96248,96248,96294,96318,96398,96419,96434,96434,96434,96451,96451,96451,96451,96467,96467,96467,96467,96467,96467,96483,96484,96484,96484,96484,96484,96484,96484,96744,96744,96744,96744,96744,96744,96744,96744,96819,96819" d="M116.5,269.5C118.21067,269.5 118.6385,269.5 119.60416,269.5C120.66983,269.5 121.22266,269.5 122.33334,269.5C123.41467,269.5 123.94283,269.5 124.97916,269.5C125.9955,269.5 126.49866,269.5 127.9995,269.5C128.496,269.5 129.468,269.5 130.392,269.5C131.244,269.5 132.33533,269.5 133.18134,269.5C134.01067,269.5 135.05333,269.5 135.94284,269.5C136.68533,269.5 137.74283,269.5 138.60017,269.5C139.38533,269.5 140.33289,269.62314 141.33333,269.5C142.01537,269.41605 141.33865,268.81033 140.384,268.58533C139.63202,268.40811 138.67467,268.5 137.66667,268.5C136.91066,268.5 136,268.5 135.10001,268.5C134.2,268.5 133.27704,268.59528 132.33333,268.33334C131.619,268.1351 130.99048,267.76797 129.85699,267.39999C129.19075,267.18372 128.45915,266.99683 127.691,266.79999C126.50124,266.49509 125.69244,266.30075 124.84666,266.07867C124.39536,265.96017 123.41334,265.68854 122.87334,265.52933C121.66476,265.17303 120.992,264.95978 119.52317,264.49017C118.74088,264.24008 117.93758,263.97888 117.11867,263.71466C116.29192,263.44791 115.46545,263.17804 113.83334,262.66666C113.04487,262.41962 112.28035,262.18683 111.54583,261.96616C110.847,261.75623 110.1875,261.5625 109.57333,261.38266L109.00916,261.21884L107.66666,260.83334L106.89567,260.61432" id="svg_28" stroke-width="3" stroke="#000" fill="none"/>
  <path t="99569,99707,99707,99725,99725,99725,99725,99725,99725,99741,99741,99741,99741,99741,99741,99741,99741,99742,99759,99759,99759,99759,99759,99759,99759,99759,99759,99775,99775,99775,99775,99775,99776,99776,99776,99776,99793,99793,99793,99793,99794,99794,99794,99794,99794,99810,99810,99810,99810,99810,99825,99825,99825,99842,99842,99842,99842,99843,99843,99843,99843,99859,99859,99860,99860,99860,99860,99860,99860,99860,99875,99876,99876,99876,99876,99876,99876,99876,99876,99893,99894,99894,99894,99894,99894,99894,99894,99895,99910,99910,99910,99910,99910,99910,99911,99911,99911,99926,99927,99927,99927,99927,99928,99928,99928,99928,99943,99943,99943,99943,99959,99959,99975,99976,99976,99992,99992,99992,99992,100009,100009,100010,100010,100025,100026,100026,100026,100026,100029,100029,100029,100029,100029" d="M183.5,274.5C184.5715,273.20001 185.33063,272.89597 186.5,272.5C187.11261,272.29257 187.80772,272.0603 188.66,271.75601C189.1723,271.57309 189.75439,271.36154 191.16667,270.83334C192.01497,270.51608 192.948,270.16135 193.95367,269.78033C195.01733,269.37735 196.12466,268.95746 197.26266,268.52933C198.416,268.09543 199.56963,267.65884 201.83333,266.83334C202.9127,266.43973 203.95735,266.06937 204.96683,265.70984C205.94534,265.36136 206.8968,265.02353 207.82133,264.68533C208.7258,264.35446 209.6161,264.03418 211.33333,263.33334C212.18126,262.98727 213.01057,262.6214 213.82483,262.25635C214.62256,261.89868 215.3956,261.54117 216.14534,261.19733C216.86662,260.86655 217.55064,260.53903 218.83333,260C219.41058,259.75742 219.95337,259.55243 220.45784,259.37149C220.92282,259.20471 221.35405,259.06213 221.74933,258.93201C222.1104,258.81317 222.44443,258.71921 223,258.5C223.23798,258.4061 223.45767,258.31952 223.62399,258.19101C224.1895,257.75403 224.45825,256.72412 224.4375,255.875C224.42004,255.16032 224.1757,253.83133 224.0565,253.314C223.79211,252.16656 223.60417,251.55338 223.39583,250.91667C223.17915,250.2545 222.93538,249.57535 222.64133,248.89467C222.03256,247.48549 221.64655,246.79352 221.24001,246.10133C220.82663,245.39754 220.37097,244.70282 219.875,244.02083C219.37102,243.32785 218.83055,242.64354 218.24001,241.98534C217.03117,240.63803 216.34314,240.01236 215.64,239.384C214.92316,238.74341 214.16566,238.11816 213.375,237.5C212.56572,236.86728 211.72009,236.2402 210.84,235.616C209.01048,234.31842 208.03841,233.67513 207.04666,233.01866C206.0401,232.35239 205.0163,231.69128 203.97917,231.04167C202.94295,230.39262 201.90634,229.7576 200.86667,229.15466C198.84389,227.98161 197.84758,227.45892 196.88133,226.96133C195.95341,226.48349 195.05963,226.04579 194.20833,225.64583C193.41147,225.27144 192.66887,224.93629 191.98534,224.64534C190.83749,224.15675 190.37358,223.98163 189.98267,223.84134C189.65862,223.72504 189.38936,223.63879 189.16667,223.58333C188.98634,223.53842 188.83638,223.51328 188.71066,223.50534C188.50035,223.49207 188.39893,223.4879 188.3,223.50267C187.68375,223.59465 187.06081,224.36345 186.85716,224.96617C186.54214,225.89851 186.52229,226.74631 186.5045,227.66167C186.48495,228.66649 186.46811,229.38574 186.54167,230.5C186.59114,231.24922 186.78989,232.3503 187.07333,233.01199C187.35181,233.66206 187.9632,234.55931 188.83333,235.16667C189.43558,235.58705 190.17601,235.84959 190.95734,236.07866C191.7816,236.3203 193.12117,236.59984 193.58267,236.69867L194.51466,236.88933L195.43866,237.064L195.89017,237.14284" id="svg_29" stroke-width="3" stroke="#000" fill="none"/>
  <path t="100425,100475,100475,100475,100492,100492,100492,100492,100492,100492,100492,100492,100492,100509,100509,100509,100509,100509,100509,100509,100509,100509,100526,100526,100526,100526,100526,100526,100526,100526,100526,100544,100544,100544,100544,100544,100544,100545,100545,100545,100561,100563,100563,100563,100563,100563,100563,100563,100563,100577,100577,100577,100577,100578,100578,100578,100578,100578,100594,100594,100594,100595,100595,100595,100595,100595,100595,100610,100610,100611,100611,100611,100611,100611,100611,100611,100627,100628,100628,100628,100628,100628,100628,100628,100629,100644,100645,100645,100645,100645,100645,100646,100646,100646,100661,100661,100662,100662,100662,100662,100662,100662,100663,100678,100678,100678,100679,100679,100679,100679,100679,100680,100694,100694,100694,100694,100694,100694,100695,100695,100695,100711,100711,100711,100712,100712,100712,100712,100712,100713,100727,100727,100727,100727,100727,100727,100727,100744,100748" d="M287.5,278.5C289.43201,279.44266 290.03638,279.43198 290.86932,279.328C292.00266,279.18655 292.69412,279.06018 293.46799,278.92667C294.31519,278.78052 295.22501,278.61176 296.1875,278.41666C297.19711,278.21201 298.24323,277.98807 299.31201,277.72665C301.50586,277.19003 302.60294,276.8652 303.70267,276.52667C304.81168,276.18527 305.92389,275.81393 307.04166,275.41666C308.17462,275.01398 309.31769,274.58524 310.47067,274.12668C312.84039,273.1842 314.04422,272.66306 315.26001,272.13068C316.48093,271.59607 317.69046,271.04663 318.875,270.47916C320.03708,269.92245 321.16135,269.36609 322.22,268.78265C324.18518,267.69962 325.0368,267.13483 325.81467,266.58667C326.54239,266.07385 327.1991,265.55652 327.79166,265.04166C328.3508,264.55585 328.85791,264.06967 329.31866,263.58667C330.18234,262.68137 330.56168,262.22534 330.92667,261.78265C331.28159,261.35217 331.61462,260.92023 331.91666,260.47916C332.21463,260.04401 332.49292,259.59866 332.72665,259.13068C333.20016,258.18268 333.36865,257.66019 333.52667,257.12534C333.68906,256.57568 333.81818,255.998 333.91666,255.39583C334.01859,254.77249 334.09222,254.12048 334.12668,253.44133C334.19971,252.0013 334.16888,251.2345 334.12134,250.44133C334.07202,249.61859 333.98111,248.76793 333.83334,247.89583C333.68033,246.99283 333.4791,246.06299 333.18533,245.12534C332.56497,243.14513 332.09088,242.14694 331.57999,241.13066C331.05136,240.07915 330.43961,239.02602 329.75,237.97917C329.03992,236.90128 328.25797,235.82524 327.38,234.78267C325.55676,232.61757 324.48499,231.60808 323.39334,230.59067C322.28827,229.56073 321.13489,228.56876 319.95834,227.60417C318.78809,226.64473 317.60812,225.72464 316.43332,224.84267C314.17892,223.15021 313.08932,222.38316 312.048,221.64667C311.05356,220.94331 310.09961,220.28329 309.1875,219.66667C308.32483,219.08347 307.50714,218.54155 306.73199,218.04666C305.3392,217.15744 304.70959,216.78349 304.13068,216.44267C303.60077,216.13071 303.11258,215.85362 302.66666,215.60417C302.26184,215.37772 301.89267,215.17755 301.56265,214.99066C300.99768,214.67073 300.76398,214.52209 300.55334,214.388C300.36234,214.2664 300.18939,214.15242 300.02084,214.0625C299.8624,213.97797 299.70255,213.90457 299.53333,213.87199C299.17126,213.80229 298.95566,213.8354 298.728,213.87334C298.47958,213.91473 298.21521,213.98692 297.9375,214.08333C297.64023,214.18652 297.32986,214.31508 297.01199,214.47333C296.32428,214.8157 295.97672,215.03934 295.61734,215.26801C295.24966,215.50195 294.88455,215.7495 294.52084,216C294.16055,216.24817 293.81091,216.49622 293.46933,216.73199C292.83533,217.16959 292.54477,217.35942 292.272,217.528C292.02029,217.68356 291.78265,217.81734 291.5625,217.9375L291.16617,218.13383L290.26166,218.44733L289.55716,218.85716" id="svg_30" stroke-width="3" stroke="#000" fill="none"/>
 </g>
</svg>