<svg width="500" height="333.3333333333333" xmlns="http://www.w3.org/2000/svg" xmlns:svg="http://www.w3.org/2000/svg" xmlns:xlink="http://www.w3.org/1999/xlink">
 <!-- Created with SVG-edit - http://svg-edit.googlecode.com/ -->
 <g display="inline" class="layer">
  <title>Layer 1</title>
  <path t="0,110,158,174,206,214,254,350,494,622,670,670,694,766,830,830,870,958,1030,1046,1046,1070,1134,1174,1190,1214,1294,1334,1350,1350,1382,1414,1438,1454,1478,1510,1566,1598,1622,1654,1710,1750,1750,1798,1814,1822,1822,1830,1846,1982,1982,2014,2046,2094,2166,2166,2286,2334,2470,2502,2550,2590,2590,2614,2654,2790,2942,3006,3006,3070,3150,3230,3230,3286,3294,3366,3390,3446,3454,3454,3462,3534,3742,3814,3846,3886,3966,4062,4070,4070,4126,4174,4253,4270,4286,4294,4357,4374,4390,4406,4406,4422,4478,4518,4518,4534,4566,4590,4622,4654,4822,4886,4917,4973,5006,5030,5038,5070,5086,5110,5134,5166,5205,5206,5214,5221,5253,5262,5286,5310,5318,5381,5381,5446,5470,5518,5550,5590,5622,5678,5709,5742" d="M260.29999,188.86667C258.25183,190.50951 257.46649,190.84843 256.59549,190.86667C255.73543,190.88467 255.42056,191.70717 254.77916,192.34584C254.13942,192.98286 253.07851,192.86667 252.2,192.86667C251.3,192.86667 250.5,192.86667 249.58533,192.86667C248.75833,192.86667 247.81599,192.86667 246.95267,192.86667C246.06166,192.86667 245.07851,192.86667 244.2,192.86667C243.3,192.86667 242.5,192.86667 241.58533,192.86667C240.68933,192.86667 239.8,192.86667 238.89999,192.86667C238.0045,192.86667 237.07851,192.86667 236.2,192.86667C235.3,192.86667 234.34758,193.29628 233.65717,192.80949C232.92502,192.29327 232.75583,191.40483 232.0045,190.91933C231.30176,190.46523 231.0195,189.46326 230.3,189.03334C229.52953,188.57297 228.8548,188.12798 228.35266,187.50951C227.78059,186.80492 227.76093,185.67798 227.216,185.15199C226.52571,184.48569 225.38374,184.71236 225.3,183.86667C225.22118,183.07056 225.3,182.16667 225.3,181.30267C225.3,180.29733 225.3,179.51483 225.3,178.62384C225.3,177.668 225.3,176.78267 225.3,175.86667C225.3,175.06667 225.3,174.16667 225.3,173.30267C225.3,172.34584 225.20454,171.42212 225.584,170.66667C226.01958,169.79947 226.3515,169.01097 227.3,168.86667C228.16867,168.73451 229.07358,168.94998 229.73599,168.43066C230.47491,167.85138 231,167.22383 231.8,166.86667C232.60001,166.50951 233.22461,165.77377 233.89999,165.30267C234.63359,164.79097 235.64085,164.9278 236.27467,164.44133C236.92792,163.93997 237.74689,163.88573 238.62117,163.8665C239.43924,163.84851 240.15051,163.14131 240.87466,162.87733C241.76367,162.55327 242.7,162.86667 243.60001,162.86667C244.49867,162.86667 245.36133,162.86667 246.16133,162.86667C247.13333,162.86667 248.09285,162.50151 248.864,162.90266C249.62343,163.29773 249.90721,164.34978 250.58533,164.78133C251.35922,165.27383 252.51135,164.60306 253.17867,165.088C253.87903,165.59694 254.5573,165.70297 255.39999,166.088C256.06931,166.3938 256.95715,166.83472 257.66165,167.21933C258.48462,167.66861 259.29984,167.85625 260.27832,167.86667C261.13327,167.87576 261.91068,167.86667 262.79999,167.86667C263.70001,167.86667 264.94489,167.67702 265.27917,168.36667C265.65118,169.13417 265.29999,170.15199 265.29999,171.06667C265.29999,171.96651 265.40042,172.77188 265.87466,173.47734C266.36569,174.20776 266.29999,175.16667 266.29999,176.06534C266.29999,176.95067 266.29999,177.86667 266.29999,178.66667C266.29999,179.56667 266.29999,180.43066 266.29999,181.3875C266.29999,182.26666 266.29999,183.16667 266.29999,184.06534C266.29999,184.95067 266.46814,185.90311 266.21466,186.66667C265.95831,187.43884 265.51196,188.5153 264.77917,188.84584C263.97754,189.20744 263,188.86667 262.10132,188.86667L261.216,188.86667L260.29999,188.86667L259.42133,188.86667" id="svg_1" stroke-width="3" stroke="#000" fill="none"/>
  <path t="7647,7774,7783,7846,7894,7910,7910,7918,7966,8006,8006,8046,8086,8102,8142,8206,8206,8254,8270,8318,8406,8462,8462,8478,8486,8502,8534,8566,8590,8590,8614,8614,8630,8662,8678,8702,8710,8734,8742,8798,8830,8862,8886,8902,8934,8934,8966,8990,9038,9094,9110,9126,9134,9166,9214,9214,9246,9270,9286,9294,9310,9318,9358,9398,9519,9519,9622" d="M242.3,149.86667C242.3,151.56667 242.28058,152.54146 242.91066,152.90266C243.67836,153.34277 244.50511,153.88603 244.94284,154.56667C245.4019,155.28046 245.2075,156.46169 245.86934,156.78267C246.58406,157.1293 247.63461,157.3436 248.39983,157.74533C249.15312,158.14081 249.07697,159.0385 249.46666,159.86667C249.82352,160.62506 250.79982,160.85625 251.68933,160.86667C252.58394,160.87714 253.57732,160.70869 254.39999,161.088C255.06825,161.3961 255.99036,161.49799 256.77917,161.8875C257.50711,162.24695 257.8399,162.84567 258.60449,163.21933C259.49136,163.65274 260.29984,163.85625 261.2785,163.86667C261.99548,163.8743 262.68716,164.18115 263.46667,164.7C264.1741,165.17087 265.17868,164.86667 266.00449,164.86667C266.89999,164.86667 267.8392,164.54549 268.72534,164.87733C269.43216,165.14204 270.03116,165.71805 270.68933,166.30267C271.38309,166.91891 271.41782,168.08063 272.00449,168.50951C272.76398,169.06473 273.28625,169.59018 273.72534,170.30267C274.20132,171.07504 274.25226,171.96777 274.29999,172.86667C274.34271,173.6714 274.84177,174.34697 275.49866,175.06667C276.03217,175.65118 276.29773,176.56665 276.29999,177.46666C276.30225,178.36667 276.35339,179.22054 276.87466,179.892C277.33521,180.48521 277.29999,181.3875 277.29999,182.27733L277.29999,183.18784L277.29999,184.00534L277.29999,185.03334" id="svg_2" stroke-width="3" stroke="#000" fill="none"/>
  <path t="10679,10846,10846,10886,10902,10926,10950,10974,10990,11118,11182,11182,11222,11222,11222,11278,11278,11357,11445,11501,11533,11589,11749,11749,11845,11869,11957" d="M239.3,152.86667C239.3,153.86667 239.3,154.62384 239.3,155.51483C239.3,156.53334 239.3,157.3875 239.3,158.26666C239.3,159.16667 239.65916,160.23944 239.13333,160.86667C238.55673,161.55447 238.05275,161.90718 237.13333,162.53334C236.53944,162.93781 235.69867,162.86533 234.709,162.86667C233.87067,162.8678 232.864,162.86667 231.89999,162.86667C231,162.86667 230.10133,162.86667 229.24733,162.86667C228.3,162.86667 227.5,162.952 226.8,163.36667L226.0045,163.814L225.31467,164.30267" id="svg_3" stroke-width="3" stroke="#000" fill="none"/>
  <path t="14237,14549,14549,14573,14581,14613,14645,14645,14693,14693,14861,14917,14933,14957,14973,14989,15021,15029,15085,15125,15277,15277,15325,15397,15437" d="M229.3,149.86667C228.3,151.03334 227.73958,151.52029 227,152.16217C226.33331,152.74078 225.57053,153.08284 225.13333,153.86667C224.76974,154.51854 224,155.16667 223.5,155.66667C222.82083,156.34584 222.3,157.15199 222.3,158.06667C222.3,158.96666 222.3,159.86667 222.3,160.7C222.3,161.47734 222.3,162.46666 222.3,163.36667C222.3,164.256 222.5215,165.08817 223.0045,165.57117L223.7,166.256L224.49867,166.78133L225.384,166.86667" id="svg_4" stroke-width="3" stroke="#000" fill="none"/>
  <path t="16749,16981,17021,17021,17037,17053,17053,17117,17117,17165,17189,17189,17205,17221,17245,17253,17269,17293,17301,17333,17341,17373,17389,17429,17453,17509,17533,17637,17709,17709" d="M253.3,148.86667C253.46666,149.7 254.33269,149.99228 254.89999,150.47734C255.64671,151.11578 256.29999,151.86665 256.86401,152.43066C257.52151,153.08815 258.10135,153.66795 258.70001,154.26666C259.3999,154.96661 259.74542,155.68469 260.32535,156.43066C260.81082,157.05513 261.10373,157.7025 261.35718,158.56667C261.6145,159.44409 261.91776,160.35745 262.65268,160.80949C263.44754,161.29839 264.28134,161.30212 264.29999,162.16667C264.31937,163.06512 264.91055,163.60115 265.26401,164.29201C265.68872,165.12219 265.29999,166.06667 265.29984,166.96666L265.13333,167.86667L264.59549,168.50951" id="svg_5" stroke-width="3" stroke="#000" fill="none"/>
  <path t="18693,18893,18893,19348,19373,19405,19469,19469,19621,19653,19685,19709,19741,19781,19997,20069,20133,20173,20189,20189,20221,20292,20333,20405,20461,20493,20549,20613,20613,20717,20812,20861,20989,21101,21149,21189,21205,21228,21269,21269,21356,21373,21428,21493,21525,21525,21556,21573,21613,21916,21973,22036,22076" d="M252.3,145.86667C250.65184,148.105 249.68123,148.94199 249.3,148.51401C248.72209,147.86523 249.3,146.76666 249.3,145.86667C249.3,145.06667 249.3,144.16667 249.3,143.26666C249.3,142.36667 249.3,141.3875 249.3,140.50951C249.3,139.66667 249.41086,138.75981 249.3,137.86667C249.1884,136.96758 248.2,136.86667 247.3,136.86667C246.5,136.86667 245.58533,136.86667 244.68933,136.86667C243.8,136.86667 242.89999,136.86667 242,136.86667C241.10001,136.86667 240.2,136.86667 239.3,136.86667C238.5,136.86667 237.58533,136.86667 236.68933,136.86667C235.8,136.86667 234.86375,136.61896 234.0045,136.87117C233.23242,137.09779 233.11316,138.19769 232.3,138.7C231.53641,139.17169 231.05859,139.81705 230.65266,140.50951C230.21368,141.25836 230.3,142.16667 230.3,143.06667C230.3,143.96666 230.3,144.86667 230.3,145.66667C230.3,146.56667 230.29504,147.46667 230.3,148.34584C230.30534,149.29205 230.82083,149.84584 231.7,149.86667L232.5955,149.86667" id="svg_6" stroke-width="3" stroke="#000" fill="none"/>
  <path t="23165,23444,23492,23661,23685,23709,23813,23869,24342,24342,24749,24925,24925,24925,25037,25038,25349,25421" d="M237.3,151.86667C237.3,150.06667 237.3,149.22383 237.3,148.34584C237.3,147.36667 237.41267,146.34819 236.77916,145.86667C236.09827,145.34914 235.20764,144.92876 234.5,144.868C233.47044,144.77959 232.82877,145.28429 232.3,145.90834C231.84227,146.44855 231.41884,147.45767 231.388,148.29601L232.10133,148.864L233.01466,148.86667" id="svg_7" stroke-width="3" stroke="#000" fill="none"/>
  <path t="38981,39252,39332,39332,39580,39884,39884,39908,40012,40044,40076,40284,40340,40500,40548,40740,40900,40956,41093,41165,41245,41293" d="M246.3,145.86667C245.46666,145.7 245.3,144.86667 245.3,144.06667C245.3,143.15199 244.59016,142.86667 243.78267,142.86667C242.82083,142.86667 241.65359,142.68221 241.32083,143.3875C240.95013,144.17319 240.53203,144.61472 240.34166,145.3875C240.14198,146.19803 241.19264,146.94241 241.91066,147.44133C242.63344,147.94356 243.60001,147.86667 244.5,147.86667L245.39999,147.86667L246.3,147.86667L247.13333,147.7" id="svg_10" stroke-width="3" stroke="#000" fill="none"/>
  <path t="52693,53372,53428,53444,53444,53485,53548,53621,53684,53685,53748,53788,53868,53868,53932,53933,54028,54117,54117,54236,54380,54460,54532,54596,54876,54956,54956,54988,55164,55316,55396,55397,55444,55468,55564,55588,55612,55612,55693,55780,55844,55940,56132,56132,56276,56348,56348,56396,56460,56508,56628" d="M274.29999,137.86667C273.07849,136.98817 272.20001,136.86667 271.29999,136.86667C270.5,136.86667 269.58533,136.86667 268.68933,136.86667C267.77917,136.86667 266.81601,136.86667 266.12534,136.86667C265.05716,136.86667 264.13943,137.06485 263.29999,136.7C262.61545,136.40247 262,135.56667 261.5,135.06667C260.79999,134.36667 260.17639,133.56282 259.5,133.15199C258.72388,132.68059 258.30066,132.06534 258.29999,131.16667C258.29932,130.26666 257.92487,129.3007 258.32132,128.44133C258.62906,127.77422 259.65182,127.86892 260.65332,127.86667C261.58533,127.86457 262.55728,127.70297 263.39999,128.088C264.06931,128.3938 264.8916,128.87299 265.35266,129.57117C265.85147,130.32648 266.67603,130.65115 267.39984,131.08817C268.12332,131.52496 268.29453,132.6839 269.13333,132.86667C269.89285,133.03217 270.82083,132.86667 271.78265,132.86667C272.59018,132.86667 273.66348,132.67622 274.39984,133.08817C275.13739,133.50078 275.28934,134.46666 275.29999,135.36667L275.29999,136.256L275.29999,137.22383" id="svg_12" stroke-width="3" stroke="#000" fill="none"/>
  <path t="57893,58108,58116,58164,58180,58220,58484,58484,58540,58605,58670,58717,58765,58829,58949,59173,59261,59325,59381,59381,59485,59525,59557,59557,59589,59637,59789,59917,59973,59989,60021,60069,60301,60317,60389,60469,60469,60477,60493,60517,60565,60613,60693,60853,60869,60885,60957,61021,61029,61109" d="M234.3,129.86667C233.3045,131.56667 233.46497,132.52914 233.27916,133.3875C233.09999,134.21523 232.56415,135.02562 232.13333,135.86667C231.79303,136.53099 231.10558,137.339 230.3,137.7C229.48387,138.06572 228.5955,137.86667 227.7,137.86667C226.8,137.86667 225.89999,137.86734 225,137.86667C224.10133,137.866 223.55783,137.42973 223.13333,136.7C222.75089,136.04254 221.79449,135.53203 221.384,134.66667C221.02469,133.90921 220.64467,133.05937 219.73599,132.87733C218.88092,132.70604 217.36993,133.19376 217.34166,132.36667C217.31602,131.61664 218.8,131.86667 219.7,131.86667C220.5955,131.86667 221.53386,132.01329 222.39983,131.8665C223.25346,131.7218 223.60211,130.81993 224.3,130.3875C225.15157,129.85983 225.34523,129.01242 226.10133,128.868C226.98404,128.69939 227.89999,128.86667 228.864,128.86667C229.73599,128.86667 230.60104,128.82352 231.49867,128.86667C232.38708,128.90938 232.94733,129.57117 233.27916,130.36667L233.3,131.26666" id="svg_13" stroke-width="3" stroke="#000" fill="none"/>
  <path t="82342,82765,82806,82814,82838,82878,82918,83030,83038,83046,83062,83086,83205,83206,83302,83326,83326,83350,83358,83374,83397,83453,83453,83486,83486,83494,83502,83509,83526,83542,83558,83614,83646,83646,83678,83750,83774,83806,83830,83854,83917,83966,84022,84022,84062,84101,84110,84125,84165,84221,84253,84254,84277,84294,84334,84365,84414,84421,84461,84573,84589,84621,84670,84670,84734,84797,84853,84854,84941,85029,85069,85157,85262,85573,85573,85645,85781,85781,85958,86013,86037,86109,86117,86157,86221,86285,86301" d="M224.3,183.86667C224.3,184.86667 224.3,185.668 224.3,186.56667C224.3,187.46666 224.46278,188.30472 224.94733,188.91933C225.45934,189.56879 224.92856,190.66792 225.336,191.43066C225.72615,192.16106 226.7843,192.3614 227.46666,193.03334C228.00862,193.56702 228.70934,194.25746 229.3,194.86667C229.8732,195.45787 230.16428,196.58017 230.91066,196.856C231.74492,197.16431 232.71964,196.74338 233.63333,197.03334C234.3795,197.27014 235.29333,197.74919 236.07866,197.83067C236.96265,197.92239 237.8792,197.56416 238.68933,197.87733C239.48221,198.18384 240.00449,198.86441 240.864,198.86667C241.74667,198.86897 242.63019,198.77492 243.47467,198.90266C244.43462,199.04788 245.12009,199.78287 245.91066,199.86667C246.79504,199.96042 247.7,199.86667 248.5955,199.86667C249.46933,199.86667 250.32083,199.86667 251.2785,199.86667C252.09866,199.86667 253.01466,199.86667 253.91066,199.86667C254.8,199.86667 255.7,199.86674 256.59549,199.86667C257.52151,199.86658 258.35083,199.56583 259,199.21933C259.84937,198.76598 260.694,198.76457 261.2955,198.21933C261.76431,197.79439 262.71637,197.77594 263.32535,197.29201C263.95981,196.78781 264.73868,196.43907 265.216,195.668C265.67459,194.92719 266.51239,194.79041 267.27917,194.34584C268.11816,193.85941 268.52954,193.16037 269.29999,192.7C270.0195,192.27008 270.38947,191.47487 270.94733,190.814C271.44244,190.22745 271.76233,189.27159 272.59549,188.92383C273.42557,188.57735 274.00449,188.16219 274.70001,187.46666C275.29999,186.86667 275.90036,186.26703 276.59549,185.57117C277.215,184.951 277.29999,184.16217 277.29999,183.26666C277.29999,182.36667 277.29999,181.47734 277.29999,180.50951L277.29999,179.66667L277.29999,178.76666" id="svg_16" stroke-width="3" stroke="#000" fill="none"/>
  <path t="89758,89877,89901,89917,89933,89957,89981,89981,90029,90069,90157,90157,90197,90237,90261,90293,90301,90317,90365,90381,90501,90533,90573,90573,90581,90613,90629,90701,90806,90869,90869,90885,90933,90941,90973,90989,91037,91045,91053,91085,91141,91261,91261,91309,91309,91373,91661,91725,91757,91781,91829,91837,91853,91869,91901,91965,91981,91997,92013,92029,92037,92069,92069,92101,92109,92125,92141,92157,92181,92261,92269,92333,92333,92373,92405,92429,92453,92477,92597,92597,92613,92613,92661,92685,92701,92701,92701,92733,92757,92797,92845,92845,92853,92853,92981,93125,93149,93181,93221,93253,93269,93317,93365,93397,93397,93421" d="M277.29999,165.86667C278.10132,165.78133 278.77914,165.20494 279.27466,164.47734C279.72809,163.81152 280.26648,163.21936 280.30133,162.384C280.33508,161.57529 281.1149,160.8781 281.2955,160.105C281.4982,159.23735 281.29999,158.35066 281.29999,157.40834C281.29999,156.50951 281.56393,155.32088 280.94284,154.92383C280.15051,154.41733 279.4249,154.32668 278.77917,153.86667C278.08591,153.37279 277.67548,152.64044 277.07849,151.98801C276.51813,151.37561 275.51038,151.20929 275.32083,150.36667C275.10574,149.41051 274.60651,149.06274 273.94733,148.50951C273.25021,147.92442 273.29999,146.86667 273.29999,146.06667C273.29999,145.15199 273.25311,144.11496 274.00449,143.87117C274.89896,143.58095 275.18079,143.02754 275.82083,142.3875C276.46085,141.74747 277.04208,141.19298 277.65717,140.86667C278.49402,140.4227 279.49527,140.7605 280.11465,140.43066C281.01654,139.95039 280.88159,138.92224 281.35718,138.22383C281.82144,137.54205 283,137.86667 283.89999,137.86667C284.77917,137.86667 285.34113,138.26477 285.87466,138.892C286.38293,139.48953 287.22964,139.79323 287.86401,140.44133C288.4472,141.03714 288.29999,142.06667 288.29999,142.96666C288.29999,143.86667 287.93466,144.87183 288.38535,145.58267C288.85294,146.32019 289.29932,146.75333 289.29999,147.68134C289.30072,148.69733 289.29999,149.47734 289.29999,150.36667C289.29999,151.26666 289.29999,152.256 289.29999,153.15199C289.29999,153.96666 289.29999,154.86667 289.29999,155.66667C289.29999,156.7 289.29999,157.47734 289.29999,158.36667C289.29999,159.26666 289.29999,160.256 289.29999,161.2C289.29999,161.8875 289.29999,162.84517 289.29999,163.66533C289.29999,164.7 289.27982,165.57358 288.85733,166.40916C288.49271,167.13029 288.06113,167.84409 287.46933,168.612C286.9136,169.3331 285.98767,169.61676 285.29999,170.2C284.66446,170.73901 284.34,171.65494 283.5,171.864C282.60831,172.08592 282.29999,172.78267 282.29999,173.57117C282.29999,174.46666 281.97809,175.43112 282.31067,176.256C282.61859,177.01973 283.73599,176.87733 284.60001,177.22383L285.29999,177.86667L285.79999,178.34584L286.60001,178.814" id="svg_17" stroke-width="3" stroke="#000" fill="none"/>
  <path t="94998,95182,95198,95238,95254,95262,95262,95278,95278,95286,95302,95334,95334,95350,95350,95366,95374,95374,95382,95406,95414,95422,95430,95438,95454,95462,95478,95486,95494,95518,95526,95542,95542,95550,95566,95574,95606,95630,95630,95654" d="M278.29999,127.86667C280,127.86667 280.82306,127.97972 281.37201,128.44133C282.04929,129.01085 283.18359,128.95409 283.77917,129.3875C284.57916,129.96967 284.77982,130.80492 285.35266,131.50951C285.85522,132.12762 286.55496,132.67885 287.18668,133.036C287.99957,133.49557 288.69104,134.15625 289.13068,134.98134C289.57599,135.81705 289.99695,136.52745 290.77917,136.84584C291.57675,137.17047 291.8858,138.01578 292.46667,138.7C293.03229,139.36624 292.98267,140.03584 293.336,140.892C293.63947,141.62732 294.22705,142.40298 294.65268,143.16667C295.06607,143.90839 295.65674,144.47893 296.216,145.15199C296.772,145.82115 297.14587,146.63353 297.28934,147.46666C297.44211,148.35367 297.31067,149.26666 297.65268,150.16667L298.13333,150.86667L298.29868,151.66667L298.29999,152.58133" id="svg_18" stroke-width="3" stroke="#000" fill="none"/>
  <path t="100646,100965,100997,101005,101013,101021,101029,101093,101093,101149,101246,101269,101285,101309,101317,101349,101373,101397,101421,101445,101462,101462,101469,101493,101549,101573,101605,101613,101629,101661,101693,101693,101709,101717,101725,101741,101749,101773,101797,101797,101837,101853,101869,101877,101893,101909,101949,102029,102165,102166,102221,102245,102261,102285,102341,102885,102925,102925,102957,103005,103013,103045,103053,103061,103077,103101,103109,103133,103133,103149,103173,103181,103189,103205,103221,103253,103253,103261,103269,103293,103317,103341,103365,103365,103373,103397,103413,103429,103461,103461,103469,103477,103525,103541,103541,103573,103653,103693,103693,103765,103773,103773,103789,103797,103813,103829,103845,103845,103869,103869,103877,103893,103901,103909,103909,103917,103925,103941,103949,103949,103965,103965,103965,103981,103981,103989,103997,103997,104005,104021,104021,104029,104029,104037,104045,104045,104053,104069,104069,104077,104085,104141,104141,104165,104205,104245,104261,104325,104325,104349,104373,104397,104421,104421,104445,104469,104493,104509,104517,104549,104590,104590,104605,104613,104653,104677,104693,104709,104709,104749,104765,104789,104797,104813,104837,104853,104869,104877,104901,104925,104941,104949,104957,104965,104989,105013,105021,105045,105061,105069,105077,105173,105173,105237,105277,105277,105317,105349,105365,105381,105429,105469,105469,105501,105509,105525,105541,105557,105589,105637,105637,105709,105717,105717,105805,105917,105941,105989,106061,106101,106117,106117,106141,106173,106189,106189,106197,106213,106245,106269,106293,106293,106341,106373,106397,106413,106477,106501,106501,106517,106549,106565,106573,106605,106621,106629,106653,106653,106693,106693,106709,106733,106741,106741,106765,106765,106781,106797,106797,106813,106814,106829,106861,106877,106877,106893,106893,106901,106917,106917,106941,106949,106973,106973,107005,107045,107045,107061,107061,107077,107157,107181,107181,107205,107213,107221,107253,107277,107277,107277,107301,107325,107325,107325,107333,107341,107357,107373,107389,107413,107413,107437,107437,107469,107525,107525,107525,107757,107845,107853,107869,107901,107909,107925,107941,107941,107965,107965,107981,108005,108141,108277,108333,109133,109205" d="M304.29999,165.86667C304.29999,168.45599 304.29999,169.36667 304.29999,170.26666C304.29999,171.16667 304.1011,172.19876 304.65268,172.80949C305.15936,173.37053 305.2493,174.01744 305.29999,174.91484C305.34274,175.67162 305.81516,176.46614 306.3045,177.21933C306.74863,177.90292 307.2934,178.49437 307.72534,179.26666C308.18292,180.08475 308.90842,180.60547 309.26401,181.30267C309.65698,182.0732 309.49286,183.17848 310.10132,183.58133C310.92279,184.12523 311.45898,184.4847 312.13333,185.03334C312.7623,185.54507 313.20789,186.25174 313.72534,186.84134C314.28503,187.4791 314.94662,187.86133 315.95267,187.86667C316.64734,187.87035 317.664,187.86667 318.60001,187.86667C319.5,187.86667 320.39984,187.86667 321.27466,187.86667C322.06168,187.86667 322.95267,187.86667 323.81601,187.86667C324.77917,187.86667 325.70001,187.86667 326.60001,187.86667C327.5,187.86667 328.39984,187.86667 329.27466,187.86667C330.10132,187.86667 330.936,187.86667 331.94818,187.86667C332.73065,187.86667 333.73599,187.86667 334.60001,187.86667C335.5,187.86667 336.40387,187.95039 337.27466,187.86667C338.14536,187.78294 338.29999,186.86667 338.29999,186.06667C338.29999,185.16667 338.29999,184.26666 338.29999,183.36667C338.29999,182.46666 338.40033,181.49229 337.87466,180.90266C337.38425,180.35258 337.35162,179.54779 336.87466,178.88133C336.43185,178.26257 336.64767,177.36786 336.28934,176.44133C336.01215,175.72462 334.92554,175.5652 334.42133,174.76683C333.93472,173.99635 333.50735,173.45059 333.07867,172.645C332.75555,172.03781 332.69528,171.0773 332.13333,170.2C331.68387,169.49828 330.79758,169.27321 330.29999,168.7C329.74289,168.05823 329.50803,167.2123 329.32083,166.36667C329.10901,165.40977 328.57925,165.2514 327.82083,164.825C327.11191,164.42642 327.65811,163.26994 327.27917,162.40834C326.9498,161.65939 325.90768,161.42245 325.20001,160.76683C324.60638,160.21687 323.73215,159.99063 323,159.50951C322.20575,158.98756 321.69571,158.34061 321.07867,157.64517C320.42145,156.90445 320.07449,156.32475 319.42133,155.64534C318.86392,155.06554 318.44504,154.41858 318.2955,153.56667C318.13235,152.63719 317.5314,151.99527 317.35266,151.214C317.15771,150.36192 316.87744,149.29578 316.13333,148.86667C315.43872,148.46611 315.1069,147.74263 314.59549,147.16667C313.94528,146.4344 313.73993,145.52419 313.25833,144.84584C312.72073,144.08861 311.84952,144.11931 311.18533,143.09866C310.88904,142.64333 310.70206,141.81844 310.10001,140.83734C309.66623,140.13048 308.77087,139.52228 308.46667,138.7C308.18027,137.92578 308.29749,136.90018 307.73065,136.29733C307.13391,135.66267 306.39014,135.09949 305.84167,134.3875C305.25955,133.63181 304.80838,133.14758 304.00534,132.814C303.22354,132.48923 302.66904,131.74763 302.00534,131.16667C301.29504,130.54491 301.54858,129.48376 301.13333,128.7C300.77725,128.02789 299.85715,127.50121 299.42133,126.76683C298.95627,125.98316 298.52267,125.44222 298.07867,124.64516C297.70776,123.97934 297.30713,123.05103 296.49866,122.868C295.6846,122.68372 294.57944,123.11985 293.86932,122.78133C293.07999,122.40504 292.86618,121.19188 292,120.92384C291.13849,120.65724 290.17935,121.04936 289.34818,120.86217C288.53656,120.67938 287.96222,119.98312 287.28534,119.30267C286.72156,118.73591 285.95184,118.2585 285.42151,117.64533C284.87836,117.01736 284.25748,117.05241 283.5,116.78133C282.59891,116.45886 281.89612,115.79314 281.46667,114.86667C281.10928,114.09563 281.30151,113.04862 280.49866,112.868C279.62192,112.67077 278.69937,112.85596 278.24734,112.16217C277.759,111.41265 277.61157,110.37194 276.94284,109.92384C276.24207,109.45426 275.55017,109.2438 274.77917,108.8875C273.99026,108.52292 273.3588,108.28932 272.68933,107.84133C271.95389,107.3492 271.00562,107.08393 270.35266,106.514C269.76804,106.0037 269.08188,105.46635 268.41333,105.15067C267.5354,104.73611 266.46667,104.86667 265.74667,104.86667C264.77917,104.86667 263.89999,104.86667 263,104.86667C262.10132,104.86667 261.23868,104.86667 260.42801,104.86667C259.69733,104.86667 258.52133,104.86667 257.63333,104.86667C256.77917,104.86667 255.89999,104.86667 255,104.86667C254.10001,104.86667 253.19983,104.86667 252.41467,104.86667C251.47467,104.86667 250.46666,104.86667 249.74667,104.86667C248.77916,104.86667 247.89999,104.86667 247,104.86667C246.10133,104.86667 245.228,104.86667 244.43866,104.86667C243.46666,104.86667 242.60451,104.86667 241.73599,104.86667C240.85333,104.86667 239.97867,104.86667 239.12534,104.86667C238.18666,104.86667 237.216,104.86667 236.41333,104.86667C235.47467,104.86667 234.46666,104.86667 233.74667,104.86667C232.77916,104.86667 231.89999,104.86667 231,104.86667C230.10133,104.86667 229.2973,104.95669 228.864,105.71733C228.52415,106.31392 227.8299,107.06307 227.13333,107.7C226.53493,108.24716 225.81902,108.63454 225.29866,109.15067C224.76422,109.68076 223.96721,110.05241 223.46666,110.86667C223.07251,111.50784 222.62878,112.24691 221.78267,112.58134C220.87363,112.94064 220.08414,113.25543 219.3,113.7C218.64528,114.0712 218.01132,114.58369 217.60001,115.2185C217.0159,116.12 216.30025,116.86691 215.8,117.36667C215.10034,118.06567 214.31183,118.31474 213.65717,118.9765C213.07635,119.56361 213.00154,120.7364 212.44934,121.23067C211.67847,121.92068 211.33707,122.62121 210.864,123.26667C210.29379,124.04468 209.44986,124.54557 209.3,125.3875C209.14592,126.25313 209.03229,127.08228 208.49867,127.66666C207.82176,128.40797 207.20265,129.18958 206.8,129.86667C206.30327,130.70195 205.62656,131.26283 205.35716,132.16217C205.10664,132.9985 205.06606,133.82495 204.65266,134.56667C204.22704,135.33035 204.00995,136.25964 203.20016,136.74533C202.47035,137.18306 202.14127,138.03651 201.87466,138.692C201.59236,139.38612 201.36411,140.41618 200.85733,141.188C200.37534,141.92209 199.82535,142.35965 199.32083,143.34584C198.91197,144.14505 198.14175,144.50706 197.584,145.03734C196.93439,145.65494 197.17343,146.9238 196.65334,147.45599C195.92975,148.19641 194.98331,148.30885 194.46933,149.06799C193.89627,149.91438 193.82539,150.67328 193.584,151.38266C193.23842,152.39822 193.61029,153.35826 193.28934,154.256C193.02589,154.99286 192.34972,155.52071 191.87466,156.256C191.38345,157.01631 191.34616,157.72307 191.26401,158.62666C191.18106,159.53894 190.72653,160.41119 190.01601,160.868C189.33714,161.30446 189.3,162.16667 189.29866,163.06534L188.94733,163.814L188.3,164.36667L187.72533,164.856" id="svg_19" stroke-width="3" stroke="#000" fill="none"/>
  <path t="112367,112734,112774,112806,112830,112870,112902,113030,113038,113430,113486,113534,113566,113582,113614,113670,113838,113990,114014,114014,114246,114381" d="M202.3,167.86667C201.38533,167.58133 201.3,166.76666 201.3,165.86667C201.3,164.91933 201.3,164.16217 201.3,163.26666C201.3,162.36667 201.3,161.3875 201.3,160.50951C201.3,159.66667 201.3,158.76666 201.3,157.86667C201.3,156.91933 201.11028,156.134 201.336,155.26666C201.55887,154.41031 202.5,153.95067 203.39999,153.64534L204,153.21933L204.864,152.87733L205.32083,152.36667" id="svg_20" stroke-width="3" stroke="#000" fill="none"/>
  <path t="116518,117702,117790,117790,117894,118045,118117,118118,118213,118317,118373,118389,118389,118421,118453,118493,118581,118733" d="M212.3,151.86667C211.46666,151.7 211.3,150.86667 211.3,150.06667C211.3,149.15199 211.75269,148.44695 212.39983,147.76666C212.95758,147.18034 213.13316,146.28775 213.3,145.36667C213.44885,144.54492 214.02873,143.82602 214.384,143.06667C214.72621,142.33524 215.68933,141.892 216.27916,141.34584L216.31067,140.47734L216.8,139.86667" id="svg_21" stroke-width="3" stroke="#000" fill="none"/>
  <path t="119958,120245,120269,120293,120325,120381,120429,120429,120461,120478,120509,120533,120597,120605,120717,120877,121013" d="M213.3,141.86667C213.3,140.256 213.3,139.36667 213.3,138.46666C213.3,137.57117 213.3,136.64517 213.3,135.76649C213.3,134.98134 213.3,134.052 213.3,133.036C213.3,132.256 213.3,131.36667 213.3,130.46666C213.3,129.57117 213.3,128.64534 213.38533,127.78267L214.0045,127.21933" id="svg_22" stroke-width="3" stroke="#000" fill="none"/>
  <path t="139660,139852,139868,139884,139900,139932,139988,140036,140052,140060,140116,140132,140156,140180,140220,140220,140252,140268,140276,140300,140300,140324,140348,140372,140388,140396,140412,140436,140484,140524,140556,140556,140572,140620,140636,140676,140732,140764,140812,140860,140860,140892,140948,140964,140972,140996,140996,141020,141036,141036,141052,141061,141084,141108,141116,141116,141124,141148,141164,141180,141236" d="M366.29999,174.86667C365.07849,173.98817 364.19562,173.95535 363.29999,173.86667C362.45432,173.78293 361.99689,173.06825 361.13333,172.86667C360.35297,172.68451 359.85187,172.01207 359,171.86217C358.07309,171.69907 357.44058,171.1152 356.68933,170.83067C355.86179,170.51726 355.28271,169.65831 354.60001,169.22383C353.86786,168.75787 352.8894,168.99998 352,168.86217C351.06833,168.7178 350.49966,168.06567 349.82083,167.3875C349.2157,166.78296 348.59586,166.21851 347.79999,165.86667C347.00037,165.51317 345.97861,165.43883 345.31067,164.83067C344.66449,164.24234 344.20001,163.86667 343.29999,163.86667C342.5,163.86667 341.58533,163.86667 340.68933,163.86667C339.79999,163.86667 338.89999,163.86667 338,163.86667C337.10001,163.86667 336.20001,163.86667 335.29999,163.86667C334.5,163.86667 333.58527,163.87715 332.68933,163.86667C331.7998,163.85625 330.97592,163.53479 330.29999,162.86667C329.71432,162.28778 329.43762,161.29512 328.73065,160.95067C328.01657,160.60275 327.09085,160.45468 326.20016,159.98801C325.44656,159.59315 325.51065,158.70055 325.13333,157.86667C324.83743,157.21271 323.82083,156.8875 323.28934,156.43066L323.01599,155.66667L322.46667,154.86667L322.13333,154.03334" id="svg_24" stroke-width="3" stroke="#000" fill="none"/>
  <path t="147957,147996,148020,148117,148156,148172,148188,148205,148236,148276,148276,148292,148293,148316,148324,148364,148404,148452,148508,148572,148573,148612,148644,148804,148876,148916,148917,148948,148988,149020,149021,149052,149052,149076,149108,149172" d="M306.29999,163.86667C306.58533,162.952 307.39999,162.86452 308.29999,162.86667C309.24283,162.86893 309.22775,163.79614 309.87466,164.43066C310.46909,165.01372 311.20676,165.10965 311.46667,166.03334C311.65836,166.71452 312.0553,167.72424 312.32535,168.45599C312.63834,169.30406 313.25195,170.06232 313.29999,170.8875C313.34821,171.716 313.6951,172.45187 314.216,173.15199C314.73532,173.84999 315.14618,174.63347 315.28934,175.46666C315.45258,176.41679 315.21591,177.34648 315.65268,178.16667C316.05179,178.91617 316.39813,179.65779 316.87466,180.43066C317.31451,181.14403 317.60132,182.05629 318.00449,182.62384C318.62512,183.49753 319,184.15683 319.70001,184.79466L320.59549,184.87117L321.26401,185.29201" id="svg_25" stroke-width="3" stroke="#000" fill="none"/>
 </g>
</svg>