<svg width="500" height="333.3333333333333" xmlns="http://www.w3.org/2000/svg" xmlns:svg="http://www.w3.org/2000/svg" xmlns:xlink="http://www.w3.org/1999/xlink">
 <!-- Created with SVG-edit - http://svg-edit.googlecode.com/ -->
 <g display="inline" class="layer">
  <title>Layer 1</title>
  <path t="0,299,333,359,365,365,394,414,443,443,454,494,494,533,564,565,588,612,644,644,661,680,706,731,757,758,774,775,799,799,845,866,866,866,885,885,905,905,932,955,982,983,983,1012,1012,1188,1204,1253,1253,1307,1307,1307,1322,1322,1322,1322,1322,1343,1343,1343,1343,1344,1394,1394,1394,1409,1429,1541,1594,1608,1627,1658,1667,1667,1715,1722,1723,1750,1769,1769,1769,1789,1789,1809,1809,1847,1870,1870,1895,1927,1935,1936,1961,1991,2009,2009,2027,2069,2087,2109,2131,2153,2154,2190,2190,2214,2231,2258,2275,2297,2327,2359,2390,2390,2421,2428,2486,2487,2515,2516,2516,2516,2516,2516,2517,2517,2541,2544,2544,2558,2577,2577,2590,2629,2630,2636,2667,2668,2696,2697,2721,2721,2764,2765,2765,2765,2765,2804,2805,2805,2830,2830,2830,2831,2850,2850,2917,2965,2966,2993,2994,3029,3074,3095,3142,3181,3215,3216,3252,3252,3294,3295,3320,3353,3354,3398,3398,3398,3399,3429,3429,3429,3430,3430,3430,3430,3431,3486,3486,3486,3486,3487,3487,3530,3530,3531,3531,3531,3531,3532,3532,3532,3562,3562,3562,3563,3563,3564,3564,3564,3564,3589,3590,3619,3659,3690,3721,3762,3764,3801,3802,3839,3869,3921,3921,3949,3950,3950,3980,3980,3981,3981,4007,4045,4045,4045,4085,4085,4086,4086,4122,4122,4122,4155,4156,4156,4175,4175,4175,4176,4246,4246,4275,4275,4325,4325,4355,4355,4393,4393,4394,4432,4433,4433,4481,4481,4482,4502,4503,4511,4530,4530,4531,4531,4565,4565,4566,4595,4638,4639,4639,4666,4667,4667,4668,4750,4751,4783,4784,4784,4785,4815,4815,4815,4816,4816,4816,4817,4817,4848,4849,4849,4850,4850,4850,4885,4886,4886,4886,4886,4886,4922,4923,4923,4924,4956,4956,4957,4957,4995,4995,4996,5051,5051,5088,5089,5089,5090,5125,5126,5126,5154,5155,5155,5156,5157,5188,5189,5189,5190,5190,5190,5191,5191,5192,5221,5222,5222,5223,5223,5271,5272,5272,5273,5274,5274,5274,5325,5326,5326,5327,5356,5356,5386,5386,5424,5425,5440,5482,5527,5528,5528,5553,5554,5611,5613,5614,5648,5649,5649,5650,5650,5681,5681,5682,5683,5723,5723,5724,5756,5757,5758,5787,5789,5789,5845,5845,5846,5846,5847,5865,5865,5866,5866,5867,5926,5927,5927,5928,5966,5966,5967,5967,5968,5999,6000,6000,6033,6034,6067,6068,6068,6096,6097,6154,6155,6155,6214,6215,6215,6216,6237,6238,6238,6239,6239,6240,6292,6293,6294,6295,6346,6346,6347,6399,6399,6400,6401,6461,6462,6469,6470,6535,6536,6537,6537,6538,6568,6569,6570,6570,6604,6605,6605,6606,6607,6607,6608,6609,6650,6650,6651,6651,6652,6654,6654,6655,6655,6741,6742,6743,6744,6744,6745,6745,6746,6746,6811,6811,6812,6813,6860,6861,6911,6911,6946,6947,6948,6949,6949,6981,6981,6982,6983,6984,6984,7035,7036,7037,7038,7038,7094,7095,7095,7095,7132,7133,7134,7160,7160,7161,7242,7243,7244,7244,7245,7246,7307,7308,7309,7310,7310,7362,7363,7363,7364,7425,7426,7427,7427,7428,7428,7470,7471,7472,7473,7574,7574,7575,7659,7659,7738,7739,7785,7835,7836,7877,7878,7879,7880" d="M3.5,117.66666C5.3,117.66666 6.2,117.66666 7.02083,117.66666C7.984,117.66666 8.67467,117.66666 9.74283,117.66666C10.7,117.66666 11.6,117.66666 12.3,117.66666C13.25717,117.66666 14.15267,117.66666 15.016,117.66666C15.87467,117.66666 16.82133,117.66666 17.67467,117.66666C18.61467,117.66666 19.6,117.66666 20.5,117.66666C21.3,117.66666 22.2,117.66666 23.1,117.66666C24,117.66666 24.8045,117.66666 25.8215,117.66666C26.52083,117.66666 27.5,117.66666 28.28933,117.66666C29.33333,117.66666 30.1955,117.66666 31.04167,117.66666C32.04284,117.66666 32.76133,117.66666 33.55183,117.66666C34.57833,117.66666 35.45833,117.66666 36.4785,117.66666C37.29867,117.66666 38.2,117.66666 39.04167,117.66666C40.04284,117.66666 40.76133,117.66666 41.55183,117.66666C42.57833,117.66666 43.45833,117.66666 44.47867,117.66666C45.25267,117.66666 46.15717,117.66666 46.9045,117.66666C47.904,117.66666 48.808,117.66666 49.356,117.66666C50.75733,117.66666 51.176,117.66666 52.08333,117.66666C53.07067,117.66666 53.58933,117.66666 55.22066,117.66666C55.77867,117.66666 56.88267,117.66666 57.41667,117.66666C58.41867,117.66666 59.66667,117.66666 60.27333,117.66666C61.29333,117.66666 62.2,117.66666 63.1,117.66666C64,117.66666 64.9,117.66666 65.8,117.66666C66.7,117.66666 67.6,117.66666 68.5,117.66666C69.3,117.66666 70.136,117.66666 70.984,117.66666C71.84734,117.66666 72.88533,117.66666 73.83334,117.66666C74.50533,117.66666 75.24934,117.66666 76.35717,117.66666C77.24817,117.66666 78.15266,117.66666 79.016,117.66666C79.87466,117.66666 80.82133,117.66666 81.67467,117.66666C82.61467,117.66666 83.6,117.66666 84.5,117.66666C85.3,117.66666 85.88715,117.98116 86.66666,118.5C87.37412,118.97088 88.3,118.66666 89.2,118.66666C90.1,118.66666 91,118.66666 91.9,118.66666C92.8045,118.66666 93.66666,118.66666 94.5,118.66666C95.4785,118.66666 96.29867,118.66666 97.2,118.66666C98.1,118.66666 99,118.66666 99.9,118.66666C100.8,118.66666 101.7,118.66666 102.6,118.66666C103.5,118.66666 104.3,118.66666 105.2,118.66666C106.1,118.66666 106.98534,118.66666 107.65733,118.66666C108.83334,118.66666 109.37085,118.66997 110.62583,118.66217C111.31335,118.6579 112.02091,118.64899 112.73333,118.63067C113.43592,118.6126 114.12032,118.65196 115.84917,118.44517C116.69566,118.34391 117.6133,118.12794 118.332,117.468C119.0052,116.84986 119.68979,116.75698 120.61467,116.66534C121.51092,116.57653 122.15362,115.8659 123.02084,115.6875C123.96577,115.49311 124.71066,115.66666 125.69984,115.66666C126.47916,115.66666 127.47916,115.66666 128.23334,115.66666C129.16667,115.66666 130.21967,115.66666 131.04167,115.66666C131.47067,115.66666 132.33467,115.66666 133.55701,115.66666C134.62801,115.66666 135.27867,115.66666 136.5,115.66666C137.09866,115.66666 137.97917,115.66666 138.81467,115.66666C139.81334,115.66666 140.65334,115.66666 141.74733,115.66666C142.66667,115.66666 143.5,115.66666 144.33333,115.66666C145.1955,115.66666 146.10001,115.66666 147,115.66666C147.89999,115.66666 148.8,115.66666 149.7,115.66666C150.60017,115.66666 151.38533,115.66666 152.336,115.66666C153.10133,115.66666 154.0955,115.66666 155.01466,115.66666C155.87466,115.66666 156.82167,115.66666 157.54167,115.66666C158.66667,115.66666 159.47966,115.66666 160.125,115.66666C160.89034,115.66666 162.33333,115.6662 162.90666,115.66683C163.52,115.6675 164.82671,115.67484 165.5,115.6875C166.17339,115.70017 166.83728,115.71236 167.48,115.752C169.19667,115.85789 170.16946,116.02625 170.64799,116.124C171.68167,116.33515 172.26308,116.48734 172.91733,116.63866C174.49898,117.00447 175.45549,117.21156 176.508,117.43333C177.63147,117.67006 178.80353,117.90908 180,118.14584C181.19553,118.38241 182.36699,118.60968 183.492,118.81333C185.49825,119.17651 186.34091,119.30737 187.07333,119.41067C187.70439,119.49966 188.24623,119.56341 188.70833,119.60416C189.09967,119.63868 189.43158,119.65668 189.71333,119.66267C190.16658,119.6723 191.07866,119.66666 192,119.66666C192.89999,119.66666 193.8,119.66666 194.70134,119.66666C195.66667,119.66666 196.32533,119.66666 197.33333,119.66666C198.1955,119.66666 199.10001,119.66666 200,119.66666C200.93201,119.66666 201.556,119.66666 202.55467,119.66666C203.54167,119.66666 204.25633,119.66666 205.33333,119.66666C206.01199,119.66666 206.9375,119.66666 207.728,119.66666C208.84933,119.66666 209.83333,119.66666 210.51433,119.66666C211.32133,119.66666 212.5,119.66666 213.39999,119.66666C214,119.66666 214.89999,119.66666 216.10001,119.66666C216.7,119.66666 217.60001,119.66666 218.8,119.66666C219.39999,119.66666 220.3,119.66666 221.5,119.66666C222.09866,119.66666 222.97917,119.66666 223.81467,119.66666C224.81467,119.66666 225.68933,119.66666 226.7,119.66666C227.5,119.66666 228.5,119.66666 229.28934,119.66666C230.33333,119.66666 231.02086,119.65939 232.043,119.66683C232.77206,119.67214 233.61652,119.67633 234.79984,119.888C235.40027,119.99541 236.25397,120.28709 237.33333,120.5C238.04202,120.63979 238.95265,120.66441 239.92166,120.66666C240.74667,120.66858 241.34666,120.66666 242.66667,120.66666C243.38266,120.66666 244.11467,120.66666 244.83867,120.66666C246.16667,120.66666 246.98117,120.66666 247.83383,120.66666C248.75183,120.66666 249.83333,120.66666 250.51433,120.66666C251.32133,120.66666 252.5,120.66666 253.09866,120.66666C253.97917,120.66666 254.81467,120.66666 255.81599,120.66666C256.72534,120.66666 257.66666,120.66666 258.47968,120.66666C259.125,120.66666 259.89032,120.66666 261.33334,120.66666C261.90701,120.66666 262.52267,120.66666 263.84799,120.66666C264.54166,120.66666 265.24533,120.66666 265.95099,120.66666C266.65067,120.66666 268,120.66666 269.24533,120.66666C269.83301,120.66666 270.95834,120.66666 271.504,120.66666C272.58133,120.66666 273.66666,120.66666 274.22083,120.66666C275.33917,120.66666 275.89334,120.66666 276.96667,120.66666C277.95999,120.66666 278.83334,120.66666 279.88483,120.66666C280.76532,120.66666 281.35068,120.66666 282.36401,120.66666C283.15799,120.66666 284,120.66666 284.84201,120.66666C286,120.66666 286.9285,120.66666 287.88651,120.66666C288.70016,120.66666 289.52084,120.66666 290.66666,120.66666C291.45715,120.66666 292.31067,120.66666 292.90134,120.66666C294.10132,120.66666 295.02084,120.66666 295.65717,120.66666C296.66666,120.66666 297.78418,120.66666 298.20001,120.66666C299.12668,120.66666 299.64749,120.66666 301.5,120.66666C302.22766,120.66666 303.00134,120.66666 303.80701,120.66666C304.63068,120.66666 305.45834,120.66666 306.276,120.66666C307.06967,120.66666 307.82535,120.66666 309.16666,120.66666C310.22534,120.66666 311.07599,120.66666 311.83066,120.66666C312.60132,120.66666 313.5,120.66666 314.60535,120.66666C315.22049,120.66666 315.86267,120.66666 316.52084,120.66666C317.84116,120.66666 318.48132,120.66666 319.66666,120.66666C320.67065,120.66666 321.49866,120.66666 322.46317,120.66666C323.53067,120.66666 324.24817,120.66666 325.15717,120.66666C325.90451,120.66666 327.09549,120.66666 327.84283,120.66666C328.74283,120.66666 329.70132,120.66666 330.66666,120.66666C331.336,120.66666 332.10132,120.66666 333.10449,120.66666C333.95715,120.66666 334.922,120.6822 335.74667,120.656C336.66238,120.62691 337.66965,120.51675 338.384,120.38C339.12888,120.2374 339.88629,120.0533 340.616,119.78C342.04028,119.24657 342.66422,118.8417 343.28934,118.492C343.89886,118.15102 345.09155,117.53103 345.70001,117.31333C346.58887,116.99531 347.49805,116.81672 348.39551,116.71933C349.26242,116.62525 350.33713,116.51417 351.05634,116.314C351.80154,116.1066 352.99823,115.81487 353.75467,115.752C354.59586,115.68208 355.04156,115.68083 355.95633,115.67117C357.33328,115.65662 358.21335,115.66666 359.05334,115.66666C359.85333,115.66666 360.61334,115.66334 361.67899,115.66683C362.35632,115.66905 363.39844,115.68811 364.15466,115.752C365.46603,115.86279 365.94989,115.9469 366.95468,116.092C367.45862,116.16477 368.42624,116.32392 369.66666,116.5C370.51773,116.62081 371.38171,116.74193 372.16165,117.01933C372.9649,117.30504 373.91876,117.57169 374.71466,117.63067C375.48868,117.68803 376.70267,117.63779 377.36249,117.72383C378.2713,117.84234 379.18503,118.09969 379.85999,118.24133C381.16364,118.51489 381.73541,118.58851 382.5625,118.66666C383.52338,118.75746 384.33377,118.82971 385.32001,118.95067C385.86359,119.01733 386.99991,119.16737 387.57333,119.24133C388.67981,119.38404 389.66614,119.50526 390.47467,119.58266C391.41608,119.67279 392.18417,119.72474 393.18668,119.95067C394.04694,120.14455 394.65353,120.36831 396.021,120.54517C396.74051,120.63822 397.45819,120.65493 398.44534,120.66534C399.44528,120.67588 400.24365,120.66666 401.17065,120.66666C402.07599,120.66666 403,120.66666 403.75333,120.66666C404.58667,120.66666 405.45999,120.66666 406.33334,120.66666C407.55768,120.66666 408.30368,120.66666 409.04166,120.66666C409.81967,120.66666 411.16666,120.66666 411.68716,120.66666C412.86017,120.66666 413.51868,120.66666 414.22916,120.66666C414.99466,120.66666 415.81818,120.66666 416.70267,120.66666C418.66666,120.66666 419.74884,120.66588 420.884,120.668C422.05518,120.67018 423.24536,120.67474 424.4375,120.6875C425.61469,120.7001 426.76007,120.71538 427.85599,120.752C429.83392,120.81808 430.6853,120.8808 431.444,120.95067C432.11993,121.01292 432.71933,121.08736 433.25,121.16666C433.72198,121.23721 434.14056,121.31448 434.51599,121.38267C435.1665,121.50082 435.4556,121.5565 435.728,121.58C436.64017,121.65868 437.61505,121.37988 438.25266,120.96217C439.16479,120.36459 439.77063,120.03349 440.83334,119.66666C441.46677,119.44801 442.18958,119.25914 442.99335,119.10267C443.86969,118.93208 444.83237,118.81984 445.86801,118.752C446.40491,118.71683 447.49997,118.68478 448.04935,118.67733C449.13193,118.66264 450.16666,118.66666 451.12933,118.66666C452.02802,118.66666 452.87866,118.66666 453.69733,118.66666C454.89984,118.66666 455.6955,118.66666 456.47916,118.66666C457.24283,118.66666 458.33334,118.66666 459.33383,118.66666C459.9375,118.66666 461.16727,118.64578 461.892,118.67733C462.53506,118.70532 463.92853,118.88785 464.40799,118.95067C465.48404,119.09166 466.06223,119.1689 466.65601,119.24133C467.85144,119.38717 468.99927,119.51012 470.04266,119.58134C470.52368,119.61417 471.41656,119.65235 472.22934,119.66217C473.33328,119.67551 474.3566,119.66219 475.04166,119.6875C475.76743,119.71432 477.00073,119.82751 477.952,119.95067C478.4584,120.01624 479.49985,120.16782 480.02399,120.24133C481.0477,120.38492 482.43463,120.55696 483.22849,120.6095C483.93689,120.65637 484.58649,120.66441 485.79965,120.66666C486.67868,120.66829 487.48566,120.66666 488.53067,120.66666C489.38266,120.66666 490.32535,120.66666 491.01599,120.66666C492,120.66666 492.9892,120.63176 493.74667,120.70267C494.67184,120.78927 495.46167,121.02383 496.34668,121.27734L496.98666,121.468" id="svg_1" stroke-width="3" stroke="#000" fill="none"/>
  <path t="13440,14172,14267,14273,14274,14361,14361,14408,14525,14602,14658,14659,14729,14773,14787,14787,14826,14899,15041,15114,15170,15210,15356,15475,15475,15541,15647,15647,15697,15775,15775,15819,15877,15976,16020,16051,16080,16094,16094,16131,16196,16303,16339,16391,16439,16439,16504,16577,16577,16670,16760,16760,16859,16875,16875,16958,16986,17014,17015,17044,17071,17095,17122,17122,17158,17326,17382,17382,17382,17439,17481,17501,17502,17533,17533,17620,17654,17693,17736,17771,17828,17859,17916,17916,17939,18002,18029,18060,18107,18108,18134,18179,18267,18296,18328,18353,18420,18420,18448,18504,18550,18611,18612,18676,18676,18731,18731,18787,18787,18835,18835,18835,18846,18898,18938,18982,19015,19016,19052,19084,19131,19132,19162,19163,19197,19197,19232,19299,19299,19334,19334,19378,19411,19411,19432,19457,19458,19483,19550,19550,19550,19551,19603,19604,19659,19698,19755,19795,19850,19851,19923,19993,19993,20033,20095,20115,20115,20140,20140,20160,20160,20188,20211,20236,20263,20351,20416,20511,20562,20563,20606" d="M266.5,202.66667C266.5,202.86667 266.5,203.76666 266.5,204.66667C266.5,205.42383 266.49066,206.31938 266.5,207.18266C266.51044,208.146 267.04321,208.86995 267.37851,209.76666C267.69659,210.61731 267.5,211.46666 267.5,212.36667C267.5,213.1875 267.71631,214.19501 267.44284,214.95683C267.14203,215.79483 266.44733,216.37117 266,217.16667C265.55267,217.96217 265.01495,218.49269 264.5,219.1875C263.98962,219.87611 263.57288,220.75598 262.89999,221.23067C262.16519,221.74902 261.28839,221.93883 260.70001,222.468C259.96429,223.12968 259.14957,223.43028 258.36133,223.692C257.51248,223.97385 256.97934,224.65625 256.10001,224.66667C255.20006,224.67734 254.3,224.66667 253.39999,224.66667C252.5,224.66667 251.7,224.66667 250.8,224.66667C249.89999,224.66667 249,224.66443 248.10001,224.66667C247.19998,224.66893 246.35916,225.04782 245.7,225.38266C244.91582,225.78101 243.84734,225.66667 243.15266,225.66667C242.12534,225.66667 241.17867,225.66667 240.32533,225.66667C239.38533,225.66667 238.4996,225.69205 237.7,225.66667C236.79865,225.63808 235.99486,225.15111 235.39999,224.56667C234.79472,223.97198 234.13426,223.22427 233.40016,222.78799C232.61629,222.32213 232.39958,221.42418 231.69867,220.952C230.98793,220.47319 230.11531,220.19406 229.33333,219.66667C228.69444,219.23578 227.87186,218.99826 227.14667,218.26666C226.45813,217.57204 226.41066,216.59563 225.85333,216.06667C225.10695,215.35828 224.28172,215.14789 223.66933,214.468C223.0585,213.78986 222.51801,213.23117 222.5,212.26666C222.4832,211.36682 222.5,210.46666 222.5,209.56667C222.5,208.66667 222.33868,207.84279 222.536,207.06667C222.7552,206.20438 223.45729,205.46968 223.5,204.56667C223.54253,203.66768 223.5,202.86667 223.5,201.96666C223.5,201.06667 223.5,200.16667 223.5,199.26666C223.5,198.36667 223.3363,197.40936 223.72133,196.56667C224.02713,195.89735 224.32739,195.0462 224.52083,194.16667C224.70723,193.31909 225.5,192.66667 226.10001,192.06667C226.70134,191.46533 227.25716,190.90948 227.98399,190.18266C228.5,189.66667 229.30777,188.80594 229.87466,188.30267C230.63428,187.62831 231.39688,187.37117 231.93066,186.86667C232.69002,186.14899 232.92914,185.29703 233.7215,184.78816C234.46774,184.3089 235.47215,184.4557 236.10001,184.092C236.86986,183.64603 237.82434,183.74515 238.66667,183.5C239.52844,183.24919 240.32234,182.75987 241.12534,182.67734C242.14734,182.5723 242.84734,182.66667 243.87466,182.66667C244.82133,182.66667 245.67467,182.66667 246.616,182.66667C247.384,182.66667 248.32533,182.66667 249.33333,182.66667C250.08934,182.66667 251.02118,182.64195 251.98267,182.668C252.63934,182.68579 253.39261,183.21573 254.16667,183.66667C254.86562,184.07385 255.86673,184.24925 256.53467,184.38133C257.72058,184.61584 258.5304,184.42567 259.33066,184.95067C260.09271,185.45059 260.38293,186.2527 260.85718,186.96666C261.38303,187.75832 262.24127,188.20122 262.46399,189.07733C262.68854,189.96062 262.5,190.84134 262.5,191.78133C262.5,192.66667 262.77274,193.37277 263.30133,193.92134C263.95844,194.60326 264.10748,195.41512 264.37866,196.52367C264.55365,197.23898 264.93448,198.06111 265.41599,198.86534C265.86121,199.60896 266.48199,200.1021 266.5,200.96666C266.51874,201.86647 266.5,202.76666 266.5,203.66667L266.5,204.46666L266.58533,205.38133" id="svg_2" stroke-width="3" stroke="#000" fill="none"/>
  <path t="21780,22469,22515,22928,22928,22970,23043,23126,23467,23671,23744,23792,24143,24143,24225,24282,24282,24282,24393,24776,24842,24842,24892,25042,25236,25344,25361,25416,25441,25846,25905,25905,25975,26349,26458,26458,26510,26633,26683,26739,26779,26819,26819,27020,27066,27159,27230,27286,27305,27377,27435,27493,27968,27968,28049,28110,28110,28470,28524,28548,28587,28635,28635,28690,28759,28824,28845,28845,28874,28874,28959,28959,29393,29458,29620,29725,29766,29893,29893,29976,30074,30391,30460,30460,30510,30510,30550,30550,30597,30816,30850,30850,30916,30938,30968,30989,31013,31076,31113,31138,31172,31206,31206,31236,31260,31260,31289,31830,31830,32388,32388,32410,32436,32504,32504,33061,33094,33136,33167,33188,33208,33239,33296,33344,33375,33375,33397,33421,33440,33462,33496,33496,33546,33626,33626,33757,33839,33871,33911,33959,33984,34015,34031,34096,34096,34207,34329,34370,34440,34488,34512,34513,34525,34727,34808,35130,35182,35205,35206,35229,35251,35285,35304,35331,35368,35421,35476,35516,35582,35582,35696,35782,35848,35872,35922,35949,35950,35974,36027,36130,36213,36258,36259,36313,36314,36362,36387,36410,36438,36458,36529,36530,36644,36765,36845,36865,36932,37007,37031,37087,37149,37149,37213,37507,37507,37555,37583,37584,37616,37640,37640,37677,37705,37705,37735,37765,37847,37847,37904,37904,37959,37959,37984,38008,38045,38115,38115,38159,38160,38214,38252,38285,38335,38423,38423,38471,38579" d="M254.5,192.66667C254.44284,194.36667 253.95821,195.14697 253.30133,195.86667C252.76785,196.45117 252.50226,197.36665 252.5,198.26666C252.49774,199.16667 252.5,200.06667 252.5,200.96666C252.5,201.86667 252.46335,202.76741 252.5,203.66667C252.52861,204.36842 252.98129,205.21901 253.8,205.614C254.66545,206.03152 255.46396,206.11156 256.21466,206.75067C256.88098,207.31795 257.64429,207.69742 258.14282,208.37117C258.65656,209.06544 258.5,210.06667 258.5,210.96666C258.5,211.86667 258.25574,212.89882 258.784,213.58267C259.26871,214.21016 259.63165,215.01672 259.27866,215.76666C258.9136,216.54218 258.58408,217.33305 258.064,218.06667C257.50607,218.85367 256.84863,219.46443 256,219.64583C255.11964,219.834 254.2,219.66667 253.3,219.66667C252.39999,219.66667 251.49913,219.70387 250.7,219.66667C249.78236,219.62395 249.58253,218.71791 248.88933,218.10266C248.23093,217.51831 247.66365,217.12895 247.48933,216.26666C247.29855,215.32297 246.96799,214.46799 246.33333,213.83333C245.69868,213.19868 244.89734,213.05869 244.2,212.36667C243.49731,211.66936 242.96622,210.92552 242.10001,210.70267C241.22768,210.47824 240.3,210.66667 239.39999,210.66667C238.5,210.66667 237.66821,210.47998 236.8,210.72383C236.03856,210.9377 235.30148,211.62396 234.33333,211.66667C233.50081,211.7034 232.52133,211.66667 231.74733,211.66667C230.84734,211.66667 229.89844,212.03873 229.04167,211.64583C228.32027,211.315 228.35791,210.15367 228.51067,209.26666C228.65414,208.43352 229.25198,207.63577 229.55267,206.96666C229.92528,206.13754 230.79865,205.69527 231.70134,205.66667C232.66618,205.63611 233.53148,205.7697 234.33333,205.5C235.17776,205.21597 236.03029,204.91948 236.79016,204.614C237.56306,204.30328 237.77332,203.20647 238.66667,202.83333C239.43201,202.51366 240.10855,202.1122 240.85716,201.72383C241.69562,201.28885 242.7086,201.79068 243.59984,201.6665C244.40172,201.55478 244.88274,200.87938 245.69867,200.66533C246.50046,200.455 246.86856,199.51929 247.216,198.86667C247.63489,198.07983 247.88048,197.02516 248.14734,196.31934C248.48283,195.43195 248.66325,194.49864 248.92534,193.84134C249.32809,192.83122 249.48927,192.07733 249.5,191.16667C249.5106,190.26666 249.77048,189.45355 250.30133,188.86667C251.00864,188.0847 250.69733,187.66734 249.8,187.66667C248.89999,187.666 248,187.66667 247.10001,187.66667C246.2,187.66667 245.3,187.66667 244.39999,187.66667C243.5,187.66667 242.69981,187.64868 241.8,187.66667C240.89946,187.68468 240.18208,188.25581 239.39999,188.54517C238.54826,188.86029 237.64494,188.67647 236.89999,189.27733C236.24538,189.80533 235.60938,190.38892 235.02083,191.16667C234.46288,191.90401 234.65935,192.96455 234.14734,193.614C233.6628,194.22861 233.69705,194.98883 233.49867,195.86534C233.31569,196.67381 232.18071,196.85466 231.78534,197.468C231.26515,198.27501 230.8138,199.08904 230.55716,199.96666C230.30405,200.83223 230.5,201.76666 230.5,202.66667C230.5,203.46666 230.44284,204.36667 230,205.16667C229.55716,205.96666 229.5,206.86667 229.5,207.76666C229.5,208.66667 229.48126,209.46686 229.5,210.36667C229.51801,211.23123 230.33028,211.71561 230.49867,212.468C230.69536,213.34683 230.95638,214.19283 231.44733,214.96217C231.89742,215.6675 232.60721,216.11963 233.5,216.5C234.25154,216.82019 235.2,216.66667 236.10001,216.66667C237,216.66667 237.94453,216.57121 238.7,216.95067C239.5672,217.38625 240.19998,217.66441 241.10001,217.66667C242,217.66891 242.89999,217.66667 243.8045,217.66667C244.82133,217.66667 245.5,217.66667 246.4785,217.66667C247.29866,217.66667 248.22649,217.48293 249.10001,217.70267C249.96281,217.91972 250.69698,218.62395 251.60001,218.66667C252.49899,218.7092 253.3,218.66667 254.2,218.66667C255.10001,218.66667 256.05972,218.97658 256.88934,218.65601C257.68225,218.34961 258.2955,218.01772 259.064,217.63066C259.83478,217.24245 260.18271,216.31554 260.85184,216.02383C261.83136,215.59682 262.66891,215.26279 263.064,214.48134C263.44897,213.71988 263.5,212.66667 263.5,211.86667C263.5,211.03067 263.50455,210.18265 263.5,209.31934C263.49466,208.30263 263.23215,207.45117 262.69867,206.86667C262.04181,206.14697 261.52859,205.36359 261.5,204.5C261.47241,203.66713 261.59351,202.67534 261.44284,201.914C261.25894,200.98476 261.00543,200.25604 260.52533,199.31334C260.177,198.62936 259.56805,198.10165 259.21466,197.18266C258.94064,196.47009 258.42657,195.66541 257.89999,195.07733C257.23666,194.33655 256.91446,193.51733 256.33334,192.83333C255.76674,192.16641 255.27867,191.56667 254.784,190.86667L254.44733,190.02383L253.7955,189.614" id="svg_3" stroke-width="3" stroke="#000" fill="none"/>
  <path t="40041,40781,40879,40901,40960,41250,41554,41615,41615,41654,41777,41777,41829,41913,41980,42095,42510,42567,42647,42826,42826,42898,42980,43142,43315" d="M249.5,205.66667C248.27867,206.54533 247.68954,207.1572 247.064,207.64133C246.31819,208.21852 245.53461,208.6048 244.66667,208.83333C244.15549,208.96793 243.60774,208.32706 243.02083,207.66667C242.4576,207.03293 242.50067,206.14934 242.5,205.1875C242.49936,204.26666 242.30193,203.34427 242.50133,202.468C242.68436,201.6637 243.7,201.66667 244.60001,201.66667C245.5,201.66667 246.3,201.66667 247.2,201.66667L248.10001,201.66667L249.064,201.70267L249.4955,202.37117" id="svg_4" stroke-width="3" stroke="#000" fill="none"/>
  <path t="46688,46936,46997,47006,47033,47044,47074,47074,47094,47117,47117,47172,47209,47209,47235,47277,47300,47300,47348,47365,47385,47412,47465,47500,47565,47663,47678,47678,47748,47791,47812,47812,47812,47833,47833,47833,47866,47866,47893,47893,47919,47945,48005,48053,48162,48350,48544,48646,48646,48809,48912,48997,49081,49081,49166,49253,49285,49285,49316,49342,49391,49391,49461,49461,49484,49525,49526,49557,49583,49666,49708,49709,49743,49770,49798,49832,49898,49898,49981,50055,50055,50114,50167,50167,50228,50256,50290,50330,50384,50435,50462,50495,50496,50528,50559,50585,50599,50600,50648,50718,50797,50797,50898,50945,50986,51018,51057,51089,51122,51149,51149,51174,51315,51315,51364,51390,51390,51427,51444,51502,51534,51559,51629,51629,51629,51674,51701,51725,51862,51931,51959,51959,51990,52040,52054,52095,52147,52187,52187,52209,52226,52296,52296,52338,52378,52394,52394,53681,53727,53813,53945,54031,54031,54062,54118,54144,54174,54201,54262,54292,54303,54335,54336,54478,54584,54584,54639,54663,54694,54694,54736,54762,54762,54791,54791,54823,54896,54928,54955,54955,55030,55031,55078,55158,55189,55229,55230,57082" d="M292.5,193.66667C291.41599,195.38133 290.7482,195.97964 290.216,196.58267C289.64957,197.2245 289.70209,198.05978 289.21466,198.86534C288.83688,199.48967 287.72778,199.71211 287.20001,200.3765C286.72952,200.96878 286.04761,201.81964 285.66666,202.66667C285.37195,203.32199 285.5773,204.3342 285.064,205.06667C284.51035,205.85669 283.6925,206.31956 283.51068,207.26666C283.34097,208.15059 283.74289,209.1015 283.49551,209.96217C283.27481,210.73006 282.64902,211.20155 282.48932,212.06667C282.33588,212.89803 281.58502,213.65407 281.50134,214.46666C281.40912,215.36194 281.47485,216.21866 281.7215,217.2095C281.90262,217.93713 282.17224,218.73154 282.60016,219.745C282.88916,220.42947 283.33224,221.23802 283.98401,221.78133C284.62772,222.31792 285.62161,222.6396 286.13834,223.36667C286.64206,224.07549 286.58948,225.08403 287.07468,225.692C287.57306,226.3165 287.66522,227.28586 287.47916,228.16667C287.30017,229.01405 286.72964,229.80803 286.41599,230.46666C286.01703,231.30444 285.09253,231.78224 284.20001,231.66217C283.26559,231.53645 282.76761,230.7877 282,230.1875C281.34998,229.67926 280.44308,229.37697 279.79999,229.01933C278.94687,228.54492 278.10269,228.22783 277.39984,227.56667C276.86603,227.06451 275.98175,226.51991 275.36133,226.06667C274.62177,225.52638 274.38217,224.45273 273.7955,224.02383C273.03604,223.46863 272.16998,223.21503 271.66666,222.5C271.17749,221.80507 271.3757,220.88924 270.92532,220.06667C270.49805,219.28627 270.52023,218.35547 270.07468,217.68134C269.58374,216.93855 269.50067,216.14934 269.5,215.29201C269.49927,214.34534 269.5,213.492 269.5,212.552C269.5,211.66667 269.5,210.86667 269.5,209.96666C269.5,209.06667 269.5,208.16667 269.5,207.26666C269.5,206.36667 269.5,205.46666 269.5,204.56667C269.5,203.66667 269.5,202.86667 269.5,201.96666C269.5,201.06667 269.5,200.14583 269.5,199.18266C269.5,198.492 269.5,197.42383 269.5,196.56667C269.5,195.66667 269.5,194.86667 269.5,193.96666C269.5,193.06667 269.5,192.16667 269.5,191.26666C269.5,190.36667 269.5,189.46666 269.5,188.56667C269.5,187.66667 269.5,186.86667 269.5,185.9095C269.5,185.01401 269.5,184.15067 269.5,183.29201C269.5,182.34534 269.34253,181.47847 269.50134,180.55333C269.64532,179.71463 270.4707,179.31078 270.5,178.36667C270.52795,177.46576 270.65872,176.49683 270.92532,175.84134C271.20764,175.1472 271.42926,174.15335 271.85266,173.36667C272.30637,172.52371 272.89786,171.98337 273.44733,171.30949C274.02084,170.60609 274.33325,169.895 274.49551,168.96666C274.65063,168.07921 275.11804,167.35631 275.41467,166.46666C275.70062,165.60902 275.70761,164.69257 276.07468,164.06667C276.52716,163.29514 277.00052,162.44788 277.33334,161.66667C277.65353,160.91513 277.4639,159.90477 278.02084,159.16667C278.52307,158.5011 278.9798,157.72842 279.55267,157.02383C280.05524,156.40572 280.72449,155.80804 281.60001,155.6665C282.50354,155.52045 282.89648,154.94919 283.5,154.1875C283.99414,153.56381 284.91736,153.57718 285.52533,153.092C286.14981,152.59363 287.1196,152.66861 287.89999,152.24133C288.72256,151.79095 289.68329,151.86841 290.29999,151.496C291.07629,151.02721 291.44745,149.84549 292.20001,149.67567C293.07797,149.47755 294.02084,149.66667 294.98401,149.66667C295.67465,149.66667 296.74741,149.65518 297.66666,149.66667C298.50018,149.67709 299.32394,149.85127 300.08932,150.24133C300.89059,150.64967 301.80328,150.59099 302.70132,150.668C303.67712,150.75168 304.29999,151.16138 305.33334,151.5C306.07455,151.74289 306.81033,152.28477 307.70001,152.58133C308.55765,152.8672 309.5,152.66667 310.20001,152.72383L311,153.16667" id="svg_5" stroke-width="3" stroke="#000" fill="none"/>
  <path t="62165,62470,62538,62568,62625,62648,62648,62729,62771,62791,62847,62872,62903,62943,63045,63114,63147,63210,63236,63237,63339,63389,63495,63557,63569,63629,63652,63652,64167,64221,64285,64285,64364,64397,64480,64544,64601,64633,64672,64747,64747,64797,64881,64945,64997,65029,65113,65113,65197,65258,65298,65327,65395,65443,65459,65483,65562,65790,65790,65853,65929,65992" d="M324.5,145.66667C323.27866,146.54533 322.52859,147.02238 322.5,147.86667C322.46954,148.76614 322.5,149.66667 322.5,150.46666C322.5,151.36667 322.5,152.26666 322.5,153.16667C322.5,154.06667 322.50009,154.96666 322.5,155.86667C322.49991,156.76649 322.15286,157.49928 321.55267,158.01933C320.89905,158.58568 320.05362,158.92702 319.62134,159.76666C319.28741,160.41525 318.88702,161.24863 318.52533,162.06667C318.1785,162.85114 317.91446,163.81601 317.33334,164.5C316.76675,165.1669 316.31357,165.79668 315.7955,166.36667C315.14191,167.08577 314.09256,167.45247 313.66666,166.66667C313.27737,165.94849 313.5,164.96666 313.5,164.06667C313.5,163.16667 313.5,162.26666 313.5,161.36667C313.5,160.46666 313.5,159.56667 313.5,158.66667C313.5,157.86667 313.55716,156.96666 314,156.16667C314.44284,155.36667 314.5,154.46666 314.5,153.56667C314.5,152.66667 314.31329,151.83488 314.55716,150.96666C314.77103,150.20522 315.28348,149.37296 315.85266,148.71933C316.37213,148.1228 316.91971,147.40826 317.33334,146.66667C317.80124,145.8278 318.26126,145.30504 318.7215,144.56683C319.16861,143.84967 320.10001,143.67734 321,143.66667L321.89999,143.66667" id="svg_6" stroke-width="3" stroke="#000" fill="none"/>
  <path t="69645,70018,70049,70285,70395,70462,70508,70558,70661,71292,71292,71412" d="M324.5,146.66667C326.29999,146.66667 327.20001,146.66667 328.10001,146.66667C329,146.66667 329.89999,146.66667 330.79999,146.66667C331.70001,146.66667 332.60001,146.66667 333.5,146.66667L334.29999,146.66667L335.20001,146.66667" id="svg_7" stroke-width="3" stroke="#000" fill="none"/>
  <path t="74097,74353,74353,74393,74405,74438,74460,74545,74604,74644,74644,74684,74684,74726,74780,74780,74878,74937,75002,75080,75080,75151,75182,75285,75329,75369,75392,75446,75592,75674,75722,75795,75850,75850,75890,75979,76080,76959,76959,77053,77053,77076,77076,77144,77144,77192,77241,77351,77388,77410,77449,77449,77529,77624,77624,77769,77832,77869,77917,77941,77941,77997,78044" d="M344.5,145.66667C345.66666,146.66667 346.2074,147.0761 346.97916,147.66667C347.62979,148.16455 347.83551,149.23576 348.60001,149.54517C349.44183,149.88586 350.43912,149.8819 350.5,150.76683C350.55389,151.55016 350.5,152.492 350.5,153.18266C350.5,154.16667 350.5,155.15067 350.5,156.01401C350.5,156.9095 350.5,157.86667 350.5,158.76666C350.5,159.66667 350.5,160.46666 350.5,161.36667C350.5,162.26666 350.78906,163.21864 350.48932,164.056C350.22559,164.79274 349.45609,165.32845 348.7955,165.71933C348.01004,166.18408 347.20139,166.63808 346.29999,166.66667C345.40045,166.69522 344.46176,166.49312 343.70001,166.752C342.81207,167.05376 342.10059,167.64999 341.20001,167.66667C340.29883,167.68336 339.5661,167.55885 338.85184,166.95683C338.15762,166.37169 337.68161,165.54654 337.41733,164.78267C337.08978,163.83597 336.66479,163.17554 336.52084,162.1875C336.38806,161.27605 336.5,160.36667 336.5,159.46666C336.5,158.56667 336.32355,157.62743 336.58533,156.86667C336.85358,156.08711 337.83084,155.55872 338.21466,154.86667C338.67194,154.04218 338.49805,153.04706 338.92532,152.26666C339.3757,151.44409 339.5,150.66667 339.5,149.86667L339.5,148.96666L339.5,148.06667" id="svg_8" stroke-width="3" stroke="#000" fill="none"/>
  <path t="79573,80096,80151,80195,80195,80200,80232,80330,80374,80508,80508,80627,80688,80737,80756,80786,80807,81069,81163,81163,81220,81266,81290,81315,81315,81370,81394,81462,81595,81696,81813,81813" d="M335.5,163.66667C334.41599,165.38133 333.73474,165.94011 333.33334,166.66667C332.90646,167.43936 332.25803,168.05147 331.40018,168.54533C330.66281,168.96983 330.71066,169.83278 330.33334,170.66667C330.03745,171.32063 329.08975,171.74112 328.47467,172.24133C327.8548,172.74545 326.89996,172.66135 326,172.66667C325.09995,172.67201 324.37186,173.39844 323.39999,173.32367C322.69925,173.26976 321.9025,172.36964 321.58533,171.46666C321.28574,170.61371 321.5,169.66667 321.5,168.86667C321.5,167.96666 321.5,167.06667 321.5,166.16667C321.5,165.26666 321.5,164.46533 321.5,163.5L321.5,162.66667" id="svg_9" stroke-width="3" stroke="#000" fill="none"/>
  <polyline timestamps="87179,87708,87708" startTime="1502001011092" id="svg_10" points="324.5,153.6666669845581 325.5,153.6666669845581 326.29999999999995,153.6666669845581 " stroke-linecap="round" stroke-width="3" stroke="#000" fill="none"/>
  <polyline timestamps="90941,91551,92152" startTime="1502001011092" id="svg_11" points="332.5,153.6666669845581 332.5,155.4666669845581 332.55716666666666,156.30950031789143 " stroke-linecap="round" stroke-width="3" stroke="#000" fill="none"/>
  <path t="96453,96810,96878,96879,96951,96983,96983,96983,97014,97036,97064,97064,97085,97114,97243,97243,97313,97337,97390,97390,97427,97427,97442,97442,97486,97518,97544,97629,97629,97776,97859,97891,97918,97960,97998,98189,98313,98313,98413,98805,98805,99055,99143,99199,99200,99208,99438,99529,99585,99623,99687,99687,99793,99793,99851,100106,100106,100281,100281,100319,100350,100412,100442,100478,100562,100562,100657,100657,100657,100779,100841,100898,100948,100977,101035,101036,101061,101097,101124,101124,101150,101165,101165,101240,101240,101290,101291,101411,101484" d="M301.5,193.66667C301.5,195.42383 301.51071,196.3194 301.5,197.18266C301.48932,198.04153 301.06213,198.99193 300.64932,199.492C300.07462,200.18819 299.51752,200.98547 299,201.6875C298.51401,202.34677 298.90692,203.28271 298.46399,204.22C298.13629,204.91347 297.14249,205.34663 296.85718,206.01849C296.44211,206.99593 296.5,207.86667 296.5,208.76683C296.5,209.552 296.44769,210.51146 296.58533,211.26801C296.76959,212.28085 297.26538,212.979 297.44284,213.9095C297.62247,214.85139 297.28934,215.83278 297.66666,216.66667C297.96255,217.32063 299.03632,217.5937 299.79999,218.01933C300.54172,218.43272 301.24954,218.98164 301.784,219.58267C302.35849,220.22873 302.95297,220.77386 303.33334,221.66667C303.65353,222.4182 303.48816,223.31816 303.784,224.15067C304.03491,224.85677 304.54987,225.90906 304.49985,226.76666C304.44656,227.68039 303.80145,228.08784 303.02084,228.66667C302.384,229.13889 301.79413,229.60748 301,229.16667C300.19861,228.72183 299.41183,228.42839 298.74283,227.96217C297.86255,227.34872 297.12991,227.0833 296.25717,226.71483C295.47607,226.38506 295.03473,225.62341 294.5,224.83333C294.04926,224.16736 293.61148,223.3257 293.07468,222.692C292.5719,222.0985 292.5817,221.26256 292.49551,220.36217C292.41193,219.48888 292.04703,218.59212 291.33334,217.83333C290.9003,217.37289 289.83902,216.99243 289.54166,216.16667C289.23639,215.31898 289.5,214.36667 289.5,213.46666C289.5,212.56667 289.5,211.66667 289.5,210.86667C289.5,209.96666 289.5,209.03067 289.5,208.18266C289.5,207.31934 289.5,206.41933 289.5,205.5C289.5,204.66667 289.5,203.688 289.5,202.914C289.5,202.01401 289.5,201.15067 289.5,200.1875L289.5,199.26666" id="svg_12" stroke-width="3" stroke="#000" fill="none"/>
  <path t="102787,103135,103244,103329,103363,103418,103504,103581,103679,103736,103796,103874" d="M302.5,192.66667C304.21466,193.75067 304.81299,194.4185 305.41599,194.95067C306.05783,195.51711 307.06702,195.41312 307.46399,196.10266C307.89328,196.84839 307.936,197.63066 308.88934,197.67734L309.5,198.16667L310.11066,198.692" id="svg_13" stroke-width="3" stroke="#000" fill="none"/>
  <path t="105431,105710,105710,105773,105812,105868,105888,105916,105945,105945,105967,106012,106012,106050,106067,106076,106076,106120,106156,106156,106245,106245,106303,106378,106443,106477,106487,106589,106589,106643,106695,106763,106809,106881,106881,106946,106946,107140,107242,107258,107258,107358,107554,107602,107602,107674,107710,107759,107989,108037,108053,108053,108098,108149,108326,108326,108415,108496,108553,108588,108715,108829,108829,108868,108996,109067,109091,109131,109131,109172,109227,109256,109307,109372,109422,109422,109470,109471,109496,109525,109525,109587,109663,109663,109719,109720,109783,109823,109853,109888,109915,109915,109936,109960,109960,110030,110030,110090,110090,110127,110127" d="M323.5,197.66667C324.5,198.66667 324.5,199.46666 324.5,200.36667C324.5,201.26666 324.78223,202.21623 324.48932,203.056C324.2262,203.81032 323.52982,204.37508 323.50134,205.18401C323.46677,206.16606 323.69757,207.18854 323.44284,207.95683C323.18509,208.73425 322.50534,209.31329 322.5,210.15067C322.49451,211.01399 322.56223,212.05925 322.33334,212.83333C322.07886,213.69403 321.58807,214.48888 321.50449,215.36217C321.4183,216.26256 321.5,217.16667 321.5,218.06667C321.5,218.96666 321.66367,219.92397 321.27866,220.76666C320.97287,221.43596 320.50534,222.26662 320.5,223.16667C320.49466,224.06665 320.44565,224.96838 320.50134,225.868C320.54391,226.55582 320.89532,227.51511 321.30133,228.18266C321.83755,229.06433 322.43912,229.76054 322.5,230.66667C322.55362,231.46486 322.83102,232.11813 323.33334,232.83333C323.82181,233.52878 323.5,234.46666 323.5,235.36667C323.5,236.26666 323.68594,237.29675 323.064,238.056C322.54138,238.694 321.4996,238.69205 320.70001,238.66667C319.79861,238.63808 319.01968,238.12489 318.29999,237.468C317.71548,236.93452 317.01019,236.48131 316.41599,235.95067C315.81467,235.41368 314.85202,235.10124 314.2045,234.36667C313.62076,233.70445 313.69662,232.83212 313.44284,231.96666C313.18555,231.08923 312.54272,230.46968 312.5,229.56667C312.45749,228.66768 312.5,227.86667 312.5,226.96666C312.5,226.06667 312.44708,225.13193 312.85266,224.36667C313.30096,223.52077 313.5,222.66667 313.5,221.9095C313.5,221.01401 313.5,220.15067 313.5,219.16667C313.5,218.18266 313.5,217.492 313.5,216.41933C313.5,215.5 313.52759,214.66621 313.5,213.83333C313.47141,212.96974 312.81381,212.24431 312.55716,211.36667C312.30405,210.5011 312.5,209.56667 312.5,208.66667C312.5,207.86667 312.51184,207.01518 312.216,206.18266C311.90237,205.30006 311.57608,204.40999 311.41599,203.69733C311.1814,202.65309 310.92532,201.91733 310.66666,201L310.52084,200.20833" id="svg_14" stroke-width="3" stroke="#000" fill="none"/>
  <path t="111613,111898,111950,112012,112029,112319,112380,112418,112429,112461,112499,113200,113200,113240,113289,113329,113352,113384,113406,113464,113464,113488,113512,113568,113585,113611,113632,113696,113696,113756,113790,113790,113836,113836,113897,113929,113987,114025,114025,114053,114080,114137,114187,114226,114271,114289,114318,114318,114352,114418,114487,114545,114570,114626,114626,114689,114918,114975,115043,115222,115222,115305,115305,115338,115338,115338,115390,115390,115826,115826,116043,116043,116129,116206,116270,116270,116376,116436,116622,116686,116733,116733,116764,116829,116847,116898,116924,116953,116996,117030,117056,117129,117211,117211,117244,117282,117315,117353,117390,117419,117448,117448,117491,117491,117521,117522,117557,117570,117634,117711,117711,117800,117800,117894,117942,117960,118067,118210,118253,118253,118297,118381,118577,118578,118621,118621,118622,118622,118622,118653,118653,118653,118711,118711,118773,118774,118774,118800,118852,118852,118894,118940,119007,119007,119062,119062,119089,119089,119166,119167,119216,119216,119216,119626,119626,119770" d="M327.5,199.66667C328.72134,200.54533 329.4079,201.05174 329.92532,201.64133C330.48505,202.27908 331.33969,202.77986 331.97916,202.14583C332.62192,201.50854 333.03912,200.79094 333.5,200.14583C333.99826,199.44839 334.42334,198.57195 335.10001,198.10266C335.82324,197.6011 336.48956,198.18732 336.5,199.06667C336.51068,199.9666 336.5,200.86667 336.5,201.76666C336.5,202.66667 336.5,203.46666 336.5,204.36667C336.5,205.26666 336.5,206.16667 336.5,207.06667C336.5,207.96666 336.5,208.86667 336.5,209.76683C336.5,210.552 336.5,211.492 336.5,212.5C336.5,213.29201 336.5,214.15067 336.5,215.01401C336.5,216.03067 336.5,216.86667 336.5,217.76666C336.5,218.66667 336.5,219.46666 336.5,220.36667C336.5,221.26666 336.5,222.16667 336.5,223.06667C336.5,223.96666 336.5,224.86667 336.5,225.76666C336.5,226.66667 336.5,227.46666 336.5,228.36667C336.5,229.26666 336.3429,230.18239 336.51068,231.06667C336.69016,232.01257 337.37729,232.65883 337.49866,233.46666C337.63516,234.37523 338.10715,235.14987 338.78534,235.58133C339.56152,236.07513 340.66666,235.66667 341.32535,235.66667C342.33334,235.66667 343.16135,235.66667 344.04285,235.66667C345.02084,235.66667 345.81732,235.66667 346.81332,235.66667C347.65332,235.66667 348.616,235.67102 349.384,235.66667C350.32538,235.66133 351.18185,235.83485 351.95834,235.14583C352.64285,234.53842 352.31201,233.34737 351.69867,232.952C350.89166,232.43179 350.02768,232.14166 349.55267,231.37117C349.14859,230.71573 348.28452,230.39882 347.70001,229.86534C346.98032,229.20845 346.14877,228.79005 345.52533,228.24133C344.94089,227.72693 344.50534,227.05605 344.5,226.16667C344.4946,225.26668 344.5,224.36667 344.5,223.46666C344.5,222.56667 344.5,221.66667 344.5,220.86667C344.5,219.96666 344.5,219.06667 344.5,218.16667C344.5,217.26666 344.5,216.36667 344.5,215.46533C344.5,214.5 344.39694,213.63519 344.66666,212.83333C344.95068,211.98891 345.45288,211.18539 345.49551,210.31934C345.53955,209.4249 345.5,208.46666 345.5,207.56667C345.5,206.66667 345.5,205.9095 345.5,205.01401C345.5,204.15067 345.5,203.1875 345.5,202.26666C345.5,201.36667 345.5,200.46666 345.5,199.56667C345.5,198.66667 345.13565,197.75592 345.55716,197.02383C346.02441,196.21233 346.46573,195.66422 346.53601,194.92267C346.62396,193.99495 346.78558,193.32828 346.92532,192.54401C347.07639,191.6963 347.2388,190.83482 347.37866,189.61C347.46072,188.8914 347.38876,187.92819 347.72134,186.80933C347.92093,186.13789 348.37894,185.33867 348.46399,184.416C348.53235,183.67447 348.5,182.63733 348.5,181.66667C348.5,180.86667 348.44095,179.96771 348,179.16667C347.55524,178.35872 347.52032,177.69572 347.49551,176.66133C347.47766,175.91687 347.25449,174.82031 346.92532,174.052C346.55655,173.19125 346.5119,172.4135 346.33334,171.5C346.17923,170.71159 345.92532,169.92799 345.62134,168.80966L345.47467,168.088L345.064,167.27733" id="svg_15" stroke-width="3" stroke="#000" fill="none"/>
 </g>
</svg>