<svg width="280" height="420" xmlns="http://www.w3.org/2000/svg" xmlns:svg="http://www.w3.org/2000/svg" xmlns:xlink="http://www.w3.org/1999/xlink">
 <!-- Created with SVG-edit - http://svg-edit.googlecode.com/ -->
 <g display="inline" class="layer">
  <title>Layer 1</title>
  <path t="0,166,190,231,249,267,284,284,301,301,301,318,318,318,335,352,352,369,370,387,404,421,438,438,455,456,477,477,494,494,511,511,511,527,527,527,544,544,561,561,578,578,594,612,612,629,645,662,662,680,697,714,714,731,748,766,784,784,806,830,864,881,899,899,916,933,933,974,998,1022,1057,1079,1079,1096,1112,1129,1146,1166,1183,1200,1222,1222,1239,1256,1274,1296,1296,1313,1329,1346,1347,1363,1364,1381,1397,1415,1415,1432,1432,1449,1449,1449,1466,1466,1483,1483,1483,1500,1500,1500,1518,1518,1518,1535,1552,1552,1569,1569,1587,1605,1621,1639,1639,1656,1656,1656,1674,1691,1713,1730,1748,1764,1764,1781,1781,1797,1815,1815,1831,1847,1848,1865,1881,1899,1917,1933,1951,1968,1968,1985,2002,2002,2019,2037,2053,2054,2071,2088,2105,2105,2123,2141,2141,2141,2158,2175,2175,2192,2192,2209,2209,2227,2248,2265,2282,2299,2299,2317,2333,2382,2403,2403,2448,2466,2467,2484,2501,2518,2598,2598,2618,2634,2650,2667,2687,2704,2722,2740,2758,2774,2799,2950,2975,2993,3011,3028,3028,3046,3086,3142,3160,3184,3202,3219,3236,3252,3253,3272,3306,3324,3342,3342,3358,3376,3376,3393,3411,3411,3499,3499,3499,3514,3514,3514,3514,3514,3536,3536,3536,3553,3569,3586,3586,3608,3625,3642,3672,3704,3721,3739,3756,3773,3790,3790,3808,3826,3844,3862,3879,3897,3931,3931,3949,3949,3949,3970,4003,4021,4037,4038,4055,4055,4071,4072,4089,4089,4107" d="M105.5,122.5C105.5,120.7 105.5,119.85717 105.5,118.97916C105.5,118 105.5,117.1955 105.5,116.1785C105.5,115.47916 105.5,114.5 105.5,113.68933C105.5,112.81467 105.5,111.81734 105.5,111.02084C105.5,110.26933 105.5,109.16133 105.5,108.17867C105.5,107.5 105.47403,106.52109 105.5,105.70133C105.52859,104.79865 106.06165,104.03148 106.44733,103.2C106.85239,102.32674 107.26392,101.77916 107.7955,100.84283C108.09923,100.30785 108.35395,99.29591 108.5,98.52084C108.6896,97.51463 109.16603,96.8672 109.59983,95.95717C109.93315,95.25792 110.19023,94.45792 110.37867,93.4215C110.54124,92.52736 110.50153,91.87498 110.85717,90.9045C111.14073,90.13072 111.83018,89.27526 112.3,88.616C112.83075,87.87124 113.12215,87.14568 113.47467,86.136C113.76823,85.29517 114.49127,85.0848 115.21467,84.416C115.77071,83.90192 115.71432,82.75125 116.30133,82.06934C116.88083,81.39616 117.80376,81.14689 118.5,80.5C119.10327,79.9395 120.01373,79.63852 120.5,78.97916C121.00874,78.28934 121.42461,77.4071 122.1,76.936C122.8336,76.42429 123.7955,76.5 124.7215,76.5C125.6,76.5 126.5,76.5 127.3,76.5C128.25717,76.5 129.14816,76.5 129.93066,76.5C130.936,76.5 131.8,76.5 132.69867,76.5C133.66667,76.5 134.5,76.5 135.3,76.5C136.2,76.5 137.10001,76.5 138,76.5C138.89999,76.5 139.8,76.5 140.7,76.5C141.60001,76.5 142.5004,76.47463 143.3,76.5C144.20135,76.52859 144.96306,77.07366 145.8,77.44733C146.57216,77.79208 147.27272,78.32736 148.2,78.4955C148.98848,78.63847 149.69594,79.07195 150.2,79.85184C150.6947,80.61725 151.17743,81.31412 151.52533,82.1C151.88739,82.91788 152.3293,83.74055 152.66933,84.38533C153.10835,85.21785 153.68689,85.7185 154.69966,86.47867C155.26068,86.89977 156.06752,87.31725 156.39017,88.16167C156.68123,88.92342 156.71936,89.922 156.92534,90.736C157.14523,91.60503 157.34993,92.49804 157.44733,93.3955C157.5414,94.26241 157.63341,95.34296 157.85266,96.03833C158.10902,96.85142 158.33609,97.78673 158.72133,98.60017C159.05647,99.30784 159.47014,100.15133 159.49867,101.016C159.53043,101.97864 159.5,102.9 159.5,103.8045C159.5,104.66666 159.5,105.52084 159.5,106.5C159.5,107.28934 159.5,108.01466 159.5,109.08933C159.5,110 159.5,110.9 159.5,111.8C159.5,112.7 159.5,113.60017 159.5,114.38533C159.5,115.32533 159.61772,116.02558 159.47917,117C159.33577,118.00844 158.80501,118.6395 158.58533,119.61467C158.38986,120.48236 158.5,121.3 158.5,122.2C158.5,123.1 158.5,124 158.5,124.9C158.5,125.8 158.5,126.7 158.5,127.60017C158.5,128.38533 158.5,129.32533 158.5,130.33333C158.5,131.08934 158.5,132 158.5,132.91066C158.5,133.82117 158.5,134.63867 158.5,135.60533C158.5,136.36133 158.5,137.33333 158.5,138.1955C158.5,139.172 158.5,140.04266 158.5,140.75067C158.5,141.73199 158.5,142.69017 158.5,143.66667C158.5,144.5 158.61922,145.3486 158.44284,146.25267C158.26199,147.1796 157.78876,147.78311 157.11067,148.43866C156.51483,149.01469 156.70204,150.01494 156.14284,150.7955C155.65472,151.47685 154.55031,151.41519 153.936,152.11067C153.34697,152.77754 153.32381,153.84869 152.5,154.33333C151.84723,154.71735 151.22993,155.27367 150.39999,155.72133C149.75235,156.07066 148.87657,156.48157 148.10001,156.92534C147.37592,157.33913 146.54172,157.73395 145.8,158.14734C145.03632,158.57297 144.24113,158.9213 143.40016,159.37866C142.65268,159.78517 142.18633,160.25955 141.30133,160.50133C140.50357,160.71927 140.12401,161.52846 139.47467,162.07466C138.8391,162.60928 138.07365,163.16286 137.3,163.41467C136.44051,163.69443 135.47917,163.5 134.63867,163.5C133.66667,163.5 132.91066,163.5 132,163.5C131.10001,163.5 130.09444,163.50893 129.5,163C128.90855,162.49364 128.40514,161.80444 127.69867,161.416C126.85025,160.94951 125.96153,160.77242 125.20983,160.44733C124.41681,160.10437 124.63898,158.98764 124.14283,158.2C123.63628,157.39586 122.95113,157.0369 122.55267,156.2C122.13939,155.33199 121.69896,154.69971 121.1,154.10001C120.40034,153.39949 119.86848,152.88545 119.296,152.01067C118.91608,151.43015 118.45591,150.63419 117.73617,149.636C117.45396,149.24461 116.83177,148.42612 116.52084,148C115.90945,147.16214 115.12806,146.01825 114.84,145.35867C114.51824,144.62196 114.0584,143.82213 113.55267,143.14284C113.01068,142.41486 112.66763,141.72816 112.5045,140.8C112.35477,139.94812 111.66973,139.45107 111.50134,138.69867C111.30464,137.81984 110.81381,137.07764 110.55717,136.2C110.30405,135.33444 110.78903,134.1781 110.16666,133.66667C109.519,133.13446 108.79208,133.01482 108.4955,132.2045C108.19946,131.39568 107.50533,130.88937 107.5,130C107.49467,129.11069 107.543,128.16409 107.47916,127.45834C107.39184,126.49291 107.02924,125.72726 106.784,124.98534C106.44692,123.96558 106.58409,123.02019 106.14733,122.2C105.74821,121.4505 105.53842,120.74186 105.4955,119.84283C105.45031,118.89629 105.216,118.1 104.92533,117.3L104.6215,116.30033L104.52084,115.54166L104.5,114.52084" id="svg_1" stroke-width="3" stroke="#000" fill="none"/>
  <path t="5309,5476,5493,5493,5511,5511,5528,5528,5545,5546,5562,5580,5626,5643,5660,5678,5678,5695,5713,5713,5730,5747,5748,5765,5782,5782,5800,5817,5817,5834,5852,5852,5852,5869,5886,5904,5904,5921,5938,5956,5990,5990,6011,6027,6027,6075,6130,6163,6180,6198,6215,6232,6232,6251,6269,6287,6287,6304,6321,6322,6338,6363,6363,6387,6405,6427,6445,6445,6461,6483,6515,6563,6618,6636,6667,6685,6708,6725,6745,6745,6762,6780" d="M111.5,125.5C111.5,123.74284 111.5,122.84283 111.5,122.0955C111.5,121.1 111.5,120.3 111.5,119.30016C111.5,118.52084 111.49481,117.52132 111.5,116.616C111.50533,115.68529 111.7845,114.95805 112.37867,114.27866C112.90813,113.67326 113.35549,113.00388 113.78533,112.3C114.19778,111.62461 115,111 115.7,110.3C116.2,109.8 116.9,109.1 117.6,108.4C118.1,107.9 118.79259,107.19251 119.5,106.5C119.99487,106.01554 120.87284,105.70461 121.7,105.21467C122.38088,104.81136 122.87464,104.05157 123.66666,103.5C124.29904,103.05961 125.00291,102.68069 125.864,102.11066C126.68789,101.56525 127.6249,101.3079 128.2,100.7955C128.82881,100.23524 129.82875,100.08781 130.47917,99.47916C131.08803,98.90942 131.38667,98.50067 132.32533,98.5C133.33333,98.49928 134.13834,98.5 135.02083,98.5C136,98.5 136.89999,98.5 137.8,98.5C138.7,98.5 139.60075,98.46334 140.5,98.5C141.20175,98.52861 141.89157,99.08163 142.45183,99.7955C142.99229,100.48415 143.92412,100.39208 144.74283,100.85717C145.60646,101.34777 146.14919,102.05993 146.44733,102.8045C146.83875,103.78204 146.8799,104.60737 147.59984,105.25716C148.27289,105.86464 148.86165,106.26128 149.59984,106.7215C150.317,107.1686 150.49954,108.28833 151.30133,108.49866C152.11726,108.71271 152.94606,109.04762 153.41467,109.78533C153.85379,110.47662 153.82605,111.36342 154.47467,111.92533C155.06256,112.43464 155.89999,112.51067 156.7,112.78533L157.3,113.30133L158,113.97916L158.8,114.44283" id="svg_2" stroke-width="3" stroke="#000" fill="none"/>
  <path t="7557,7802,7850,7875,7899,7932,8076,8188,8206,8229,8261,8285,8303,8319,8365,8397,8604,8748,8783,8783,8802,8819,8836" d="M127.5,120.5C125.7,120.5 124.79742,120.10179 123.936,120.536C123.23713,120.88828 122.54368,121.41084 121.936,122.11066C121.3652,122.76801 121.88941,123.61388 122.55267,124.14733C123.12851,124.61048 124.20258,124.10179 125.064,124.536C125.76287,124.88828 126.37905,125.52512 127.2045,125.5C128.14415,125.47141 128.44562,124.64362 127.5,124.5C126.70907,124.37987 125.8,124.5 124.9,124.5L124,124.47916" id="svg_3" stroke-width="3" stroke="#000" fill="none"/>
  <path t="9822,10149,10182,10201,10486,10606,10729,10729,10758,10758,10798,10836,10926,11014,11078,11095,11111,11128,11145,11163,11163,11182,11182,11198" d="M147.5,120.5C145.88933,120.5 145.02437,120.61861 144.44733,121.14733C143.75603,121.78075 143.06728,122.73088 143.66667,123.33334C144.24652,123.91614 145.26666,123.5 146.21333,123.5C147.13567,123.5 148.11179,123.88721 148.97917,123.47916C149.68483,123.14719 149.80476,121.94225 149.48933,121.11066C149.21275,120.38151 148.10001,120.5 147.1955,120.5C146.33333,120.5 145.5,120.5 144.5215,120.5L143.70134,120.5L142.8,120.5" id="svg_4" stroke-width="3" stroke="#000" fill="none"/>
  <path t="12771,13024,13071,13097,13121,13162,13184,13209,13400,13434,13434,13451,13473,13473,13498" d="M131.5,128.5C131.5,130.3 131.5,131.2 131.5,132.10001C131.5,132.97917 131.5,133.85716 131.5,134.8C131.5,135.69867 131.58533,136.49933 132.5,136.5C133.3,136.50058 134.136,136.536 134.98399,136.784L135.84734,137.14734L136.73833,137.44284" id="svg_5" stroke-width="3" stroke="#000" fill="none"/>
  <path t="14772,15114,15138,15185,15218,15250,15282,15321,15321,15354,15372,15389,15442,15442,15474,15506,15524,15524,15546,15570,15626,15643,15661,15678,15706,15738,15738,15770,15788,15805,15826,15844,16049,16070,16087,16087,16104,16121,16138,16138,16157,16172,16172,16189,16211,16211,16228,16246,16264,16264,16281,16281,16299,16316,16334,16355,16372,16388,16389,16405,16422,16422,16440,16440,16457,16457,16473,16490,16490,16508,16525,16525,16542,16543,16560,16560,16577,16594,16611,16643,16643,16660,16730" d="M122.5,138.5C124.11066,138.5 125,138.5 125.9,138.5C126.8,138.5 127.7,138.5 128.60001,138.5C129.5,138.5 130.30042,138.47276 131.2,138.5C132.14413,138.52859 132.56076,139.30623 133.5,139.5C134.28795,139.66255 134.97392,140.05315 135.89999,140.47467C136.68065,140.83 137.2686,141.35193 138.2,141.4955C139.13184,141.63914 140.02083,141.5 140.89999,141.5C141.8,141.5 142.7,141.5 143.60001,141.5C144.5,141.5 145.3,141.5 146.2,141.5C147.10001,141.5 148,141.5 148.89999,141.5C149.8,141.5 151.09505,141.11159 151.43834,141.85716C151.80304,142.64925 150.61005,143.22394 150.02083,144C149.46033,144.73825 149.20345,145.55251 148.784,146.3C148.35759,147.05991 147.7466,147.73705 147.20534,148.2C146.47699,148.82297 145.90015,149.65724 145.35066,150.10001C144.55943,150.73758 144.10837,151.37126 143.29866,151.784C142.5779,152.1514 141.67531,152.48091 140.98399,152.49867C139.91101,152.52625 139,152.5 138.10001,152.5C137.2,152.5 136.29836,152.55437 135.39999,152.49983C134.69614,152.45711 133.91603,151.8725 133.29866,151.3C132.6315,150.68134 131.83606,150.21896 131.15266,149.8C130.37186,149.32132 129.701,148.70033 129.10001,148.10001C128.3996,147.40039 127.8,146.8 127.2,146.2C126.5,145.5 125.88039,144.91895 125.3,144.29866C124.67835,143.63428 124.28843,142.78741 123.8,142.20984C123.12839,141.41563 122.62411,140.90581 122.064,140.10001C121.594,139.42384 120.936,138.89999 120.5,138.02083L119.92533,137.47467" id="svg_6" stroke-width="3" stroke="#000" fill="none"/>
  <path t="17732,18003,18035,18052,18069,18069,18092,18108,18125,18125,18142,18142,18159,18177,18194,18212,18228,18246,18263,18263,18280,18297,18297,18315,18331,18348,18348,18366,18383,18401,18401,18418,18418,18436,18436,18453,18453,18471,18471,18492,18492,18509,18526,18543,18560,18560,18577,18577,18593,18594,18594,18610,18610,18627,18627,18644,18644,18644,18662,18662,18679,18679,18679,18696,18696,18696,18714,18714,18714,18731,18731,18731,18747,18747,18764,18781,18799,18816,18816,18834,18834,18851,18851,18851,18851,18867,18867,18896" d="M102.5,132.5C101.92533,134.10001 101.61505,134.94319 101.14733,135.8C100.74048,136.54532 100.38529,137.28197 99.92533,138.10001C99.4846,138.88383 99.06461,139.61124 98.31467,140.10001C97.52928,140.61188 97.04761,141.16284 96.52533,141.88933C96.01495,142.59927 95.46702,143.21541 95.07467,143.89999C94.60835,144.71362 94.69817,145.66058 94.33334,146.5C94.0358,147.18456 93.18909,147.78926 92.5,148.5C91.92679,149.09122 91.61613,149.94133 91.216,150.7C90.76328,151.55838 90.44638,152.19946 90,153C89.5517,153.80397 89.33334,154.66667 89,155.5C88.66666,156.33333 88.51969,157.14021 88.216,157.98399C87.96224,158.68907 87.54394,159.61427 87.50134,160.46933C87.44978,161.50406 87.5,162.24933 87.5,163.16667C87.5,164.07866 87.19415,165.05817 87.51067,165.88933C87.79866,166.6456 88.81337,166.74123 89.67467,167.07466C90.60919,167.43645 91.30982,167.49774 92.26933,167.5C93.02084,167.50177 93.81734,167.5 95.04283,167.5C95.68933,167.5 96.7,167.5 97.5,167.5C98.5,167.5 99.33264,167.60036 100.1,167.32933C101.17123,166.95097 101.67837,166.287 102.5,165.66667C103.08088,165.2281 103.91663,164.7482 104.47884,163.95734C104.95185,163.29193 105.23098,162.43568 105.83334,161.83333C106.43568,161.23099 107.314,160.98076 108.16666,160.33333C108.7354,159.90149 109.20197,159.10103 109.69867,158.10133C109.98553,157.52396 110.08664,156.35771 110.66666,155.66667C111.18802,155.04553 111.73271,154.40793 112.2045,153.74283C112.71495,153.02322 113.12169,152.24429 113.83334,151.5C114.24094,151.0737 115,150.52083 115.732,149.98534L116.528,149.38533L117.13383,148.8045L117.47916,148" id="svg_7" stroke-width="3" stroke="#000" fill="none"/>
  <path t="24925,25203,25221,25238,25255,25255,25255,25273,25273,25273,25290,25290,25307,25307,25329,25329,25345,25345,25360,25360,25380,25380,25396,25396,25411,25411,25412,25429,25445,25445,25462,25462,25462,25479,25715,25715,25732,25733,25749,25750,25767,25767,25767,25784,25784,25784,25802,25802,25802,25819,25819,25819,25837,25837,25854,25854,25871,25888,25888,25906,25923,25941,25959,25978,25978,25995,25995,26013,26028,26053,26070,26070,26100,26124,26142,26143,26162,26179,26196,26212,26212,26229,26246,26246,26264,26264,26280,26280,26296,26296,26296,26313,26313,26330,26330,26350,26363,26364,26381,26399,26416,26416,26434,26434,26451,26451,26469,26469,26486,26486,26503,26520,26520,26538,26538,26555,26555,26555,26572,26572,26590,26590,26590,26607,26607,26607,26607,26624,26624,26624,26641,26642,26659,26659,26659,26676,26676,26693,26693,26710,26972,26990,26990,27007,27007,27007,27024,27024,27042,27042,27042,27042,27059,27059,27076,27076,27094,27111,27111,27131,27148,27165,27181,27182,27198,27198,27215,27237,27255,27255,27272,27290,27307,27325,27343,27368,27384,27401,27417,27434,27451,27468,27485,27485,27502,27519,27539,27554,27571,27589,27589,27614,27677,27710,27727,27752,27782,27837,27870,27870,27902,28357,28390,28422,28469,28509,28549,28583,28583,28607,28648,28665,28688,28705,28705,28721,28743,28761,28777,28795,28795,28813,28829,28847,28879,28896,28913,29046,29063,29081,29098,29099,29116,29116,29133,29133,29153,29153,29183,29367,29391,29408,29426,29426,29443,29444,29461,29461,29478,29478,29496,29513,29531,29550,29550,29567,29585,29607,29646,29838,29858,29873,29873,29873,29873,29890,29890,29908,29908,29908,29925,29926,29943,29943,29960,29960,29978,29995,30014,30030,30031,30048,30072,30072,30090,30090,30107,30123,30124,30141,30158,30176,30193,30210,30211,30228,30228,30246,30246,30263,30280,30281,30298,30298,30315,30315,30315,30333,30333,30350,30367,30367,30385,30385,30385,30402,30402,30419,30420,30437,30454,30455,30473,30474,30491,30507,30507,30525,30526,30542,30542,30542,30559,30574,30575,30592,30610,30628,30645,30645,30662,30663,30680,30716,30734,30734,30751,30768,31431,31471,31511,31545,31545,31563,31585,31609,31633,31667,31667,31685,31702,31719,31720,31737,31754,31772,31772,31789,31807,31807,31824,31824,31844,31844,31844,31860,31861,31877,31878,31894,31895,31911,31912,31928,31928,31944,31945,31961,31961,31978,31995,31995,32011,32012,32028,32046,32047,32062,32079,32096,32113,32114,32148,32177,32177,32209,32229,32245,32245,32263,32263,32263,32279,32279,32279,32296,32296,32312,32312,32329,32329,32350,32351,32363,32363,32364,32380,32380,32398,32398,32417,32441,32459,32476,32495,32513,32529,32547,32570" d="M85.5,168.5C84.5045,170.2 84.53623,171.13985 84.064,171.91066C83.57127,172.71494 83.03804,173.32204 82.78533,174.18666C82.4999,175.16327 82.53931,176.005 82.416,176.81599C82.26306,177.8219 82.03169,178.48921 81.5,179.33333C81.06243,180.02802 80.57167,180.81633 80.51067,181.67467C80.44392,182.61371 80.45827,183.40121 80.064,184.336C79.73442,185.1174 79.25126,185.87897 78.936,186.7C78.5602,187.67867 78.56835,188.51382 78.33334,189.5C78.18871,190.10689 77.76791,191.00999 77.52533,191.87466C77.26104,192.81674 76.91864,193.49681 76.66666,194.5C76.47176,195.27597 76.50067,196.01466 76.5,197C76.49934,197.98399 76.5,198.84734 76.5,199.75183C76.5,200.46933 76.5,201.50983 76.5,202.28534C76.5,203.33333 76.5,204.04733 76.5,204.95267C76.5,205.92133 76.5,206.72533 76.5,207.54733C76.5,208.57867 76.5,209.5 76.5,210.18401C76.5,211.18401 76.5,212 76.5,212.81599C76.5,214.04283 76.5,214.68933 76.5,215.69983C76.5,216.47917 76.5,217.4785 76.5,218.5C76.5,219.3 76.5,220.2 76.5,221.10001C76.5,222 76.41875,222.93748 76.784,223.70134C77.13298,224.4312 77.46931,225.32509 77.49866,226.01601C77.54426,227.08902 78.08915,227.81792 78.3785,228.60001C78.69362,229.45174 78.50939,230.35539 79.11066,231.10001C79.63843,231.75359 80.64346,232.0867 81.21467,232.584C81.82319,233.11378 82.0751,234.13724 82.7,234.69867C83.45962,235.38115 84.26176,235.46031 85,236.02083C85.77756,236.61121 86.23831,237.22858 86.984,237.7C87.65863,238.1265 88.67961,238.64502 89.08933,239.172C89.70885,239.96881 89.81969,240.79315 90.25716,241.4375C90.86813,242.33737 91.93719,242.47801 92.61467,243.06799C93.18065,243.56088 93.84176,244.30331 94.6,244.72133C95.35064,245.13515 96.10987,245.38272 97.02084,245.52083C98.00803,245.67049 98.6693,246.0898 99.616,246.41733C100.37987,246.68161 101.14009,247.22057 101.67467,247.64934C102.46083,248.27991 103.25264,248.4955 104.32533,248.5C105.01599,248.5029 106.0003,248.47714 106.98534,248.50133C107.71127,248.51915 108.69814,248.72672 109.5,249C110.49773,249.34004 111.29945,249.4808 112.1,249.49867C113.10425,249.52109 113.736,249.5 114.9215,249.5C115.736,249.5 116.31067,249.5 117.5,249.5C118.4,249.5 119,249.5 119.9,249.5C121.09866,249.5 121.68933,249.5 122.54283,249.5C123.5785,249.5 124.47916,249.5 125.5,249.5C126.3,249.5 127.1,249.5 128.10001,249.5C128.89999,249.5 129.89867,249.5 130.664,249.5C131.74283,249.5 132.60001,249.5 133.5,249.5C134.31433,249.5 135.27016,249.48073 136.02083,249.52083C136.8188,249.56346 137.82416,249.76335 138.72533,250.11067C139.67586,250.47702 140.45287,250.79945 141,251C141.81628,251.29919 142.83446,251.65837 143.65334,252.10001C144.50253,252.558 145.04909,253.14368 145.8,253.7955C146.46664,254.37416 147.19904,254.55438 148,255C148.79906,255.44455 149.72327,255.40363 150.66667,255.66667C151.3483,255.85674 152.35757,256.25528 153.08934,256.52533C153.93741,256.83829 154.59389,257.43912 155.5,257.5C156.2982,257.55362 157.2,257.5 158.10001,257.5C159,257.5 159.91737,257.58948 160.52533,258.07468C161.14983,258.57306 162.10001,258.5 163,258.5C163.89999,258.5 164.8,258.49994 165.7,258.5C166.60001,258.50009 167.46667,258.72058 168.10001,259.07468C168.96126,259.55618 169.89999,259.5 170.8,259.5C171.7,259.5 172.60001,259.5 173.5,259.5C174.3,259.5 175.14284,259.5 176.02083,259.5C177,259.5 177.89999,259.5 178.8,259.5C179.7,259.5 180.60001,259.5 181.5,259.5C182.3,259.5 183.2,259.5 184.10001,259.5C185,259.5 185.89999,259.5 186.8,259.5C187.7,259.5 188.60001,259.5 189.5,259.5C190.3,259.5 191.23303,259.86554 192.07466,259.46399C192.80795,259.11411 193.36082,258.51801 194.33333,258.5C195.19534,258.48404 196.1192,258.66519 197,258.47916C197.8474,258.30017 198.59712,257.59775 199.5,257.5C200.19824,257.42441 200.92236,256.81381 201.8,256.55716C202.66556,256.30405 203.60684,256.61078 204.5,256.5C205.39923,256.38849 206.07083,255.82442 206.464,255.064C206.8611,254.29601 206.2655,253.24464 205.73833,252.8C204.91435,252.10503 204.29303,251.89261 203.30017,251.40016C202.52368,251.01503 201.53946,250.93388 200.86166,250.44733C200.21248,249.98131 199.54451,249.28575 199.5,248.40016C199.45659,247.5365 200.35762,247.56874 201.224,247.464C202.14781,247.35233 202.61105,246.5704 203.20984,245.85184C203.64717,245.32703 204.64287,244.73558 205.29866,244.41733C206.14464,244.00679 206.94133,243.61613 207.7,243.216C208.55838,242.76329 209.29507,242.40759 210,242C210.79008,241.54318 211.58119,241.16495 212.07466,240.47467C212.52202,239.84889 211.62015,239.46645 210.73599,239.2785C209.8196,239.08371 209.166,238.91942 208.552,238.69867C207.3399,238.26288 206.71825,237.77711 205.73067,237.584C204.98854,237.43887 204.16849,237.47688 203.18533,237.216C202.29446,236.97961 201.30435,236.58083 200.52083,236.52083C199.66891,236.4556 198.8045,236.5 197.89999,236.5C197,236.5 196.03383,236.3647 195.3,236.78534C194.61343,237.17889 194.01736,238.05469 193.17867,238.59984C192.52679,239.02356 191.62799,239.21603 190.8045,239.55267C189.94292,239.90489 189.48923,240.71881 188.8,241.14284C187.97861,241.64818 187,241.5 186.11067,241.5C185.24533,241.5 184.4375,241.5 183.50084,241.5C182.46933,241.5 181.75183,241.5 180.84734,241.5C179.98399,241.5 179,241.5 178.1785,241.5C177.28934,241.5 176.3,241.5 175.5,241.5C174.5,241.5 173.7,241.5 172.89999,241.5C171.9045,241.5 171.15044,241.60745 170.12534,241.48933C169.16168,241.3783 168.47711,240.98335 167.5,240.5C166.89871,240.20256 166.10211,239.79576 165.30017,239.40016C164.52284,239.01671 163.62799,238.78397 162.8045,238.44733C161.94292,238.09511 161.48703,237.27267 160.74283,236.85716C159.91699,236.39607 158.9521,236.48647 158.136,236.07466C157.36414,235.6852 156.61377,235.41852 155.65334,235.07466C155.03775,234.85428 154.08142,234.59239 153.28534,234.536C152.27129,234.46416 151.28676,234.59944 150.33333,234.33333C149.6613,234.14575 148.84488,233.58891 147.97917,233.5C147.09393,233.40909 146.18149,233.27168 145.5,233C144.52544,232.61148 143.56451,232.90402 142.78534,232.41467C142.04523,231.94986 141.46175,231.67355 140.7,231.41467C139.81209,231.11292 139.10054,230.51801 138.2,230.5C137.30019,230.48201 136.39999,230.5 135.5,230.5C134.7,230.5 133.8,230.5 132.89999,230.5C132,230.5 131.04105,230.6787 130.2785,230.27867C129.60356,229.92461 128.7883,229.61705 127.864,229.464C126.99361,229.31989 126.26263,228.68433 125.39467,228.5045C124.49819,228.31877 123.49457,228.64568 122.8045,228.44284C121.90588,228.1787 121.18334,227.57109 120.28934,227.51067C119.30219,227.44395 118.48562,227.55653 117.5,227.33333C116.88735,227.19458 116.1144,226.79184 115.10133,226.584C114.344,226.42863 113.41709,226.14102 112.69017,225.85266C111.7655,225.48586 110.99991,225.52536 109.83334,225.5C109.02076,225.48233 108.1815,225.27167 107.5,225C106.52528,224.61145 105.74617,224.54199 104.84734,224.4955C103.98138,224.45071 103.1823,223.92851 102.17867,223.62151C101.52258,223.42081 100.42587,223.74971 99.70133,223.32933C98.91618,222.87378 98.50091,221.83165 97.8,221.45183C97.10091,221.07298 96.25037,220.66196 95.54816,220.14734C94.87549,219.65436 93.94762,219.73698 93.216,219.21466C92.48238,218.69092 92.50067,217.7 92.5,216.8C92.49939,215.97917 92.5,215.01334 92.5,214.25333C92.5,213.33333 92.5,212.54733 92.5,211.72533C92.5,210.66667 92.5,209.73599 92.5,208.90134C92.5,207.89999 92.5,207.10001 92.5,206.10133C92.5,205.336 92.5,204.38266 92.5,203.53067C92.5,202.73067 92.49667,201.71466 92.5,200.66667C92.50225,199.95715 92.48727,199.08609 92.784,198.10133C93.0202,197.31747 93.25681,196.48094 93.584,195.70134C93.94763,194.83492 94.4854,194.11974 95,193.5C95.49991,192.89795 95.52084,192 95.85267,191.2L96.3785,190.39999L96.5,189.5L96.66666,188.66667" id="svg_9" stroke-width="3" stroke="#000" fill="none"/>
  <path t="33878,34141,34173,34197,34229,34253,34317,34349,34349,34444,34477,34509,34541,34573,34597,34614,34645,34677,34724,34757,34774,34820" d="M117.5,154.5C117.5,156.3 117.5,157.2 117.5,158.10001C117.5,159 117.61715,159.8972 117.49866,160.78534C117.38708,161.62178 117.05084,162.46498 116.44733,163.14284C115.95452,163.69637 114.9,163.5 114,163.5C113.1,163.5 112.2,163.5 111.3,163.5C110.4,163.5 109.5,163.5 108.55267,163.5L107.7955,163.5L106.85717,163.55716L106.33334,164.33333" id="svg_10" stroke-width="3" stroke="#000" fill="none"/>
  <path t="35847,36197,36214,36214,36232,36249,36267,36283,36301,36325,36341,36360,36378,36396,36396,36430,36463,36463,36480,36497,36515,36533,36533,36549,36550,36567,36587,36603,36621,36638,36638,36656,36656,36675,36693,36711,36735,36759,36776,36793,36810,36828,36845,36845,36862,36862,36879,36896,36897,36914,36914,36931,36949,36949,36966,36966,36983,37001,37018,37036,37036,37053,37053,37070,37087,37104,37127,37128,37128,37160,37215,37240,37257,37280,37312,37415,37440,37457,37496,37496,37528,37560,37593,37611,37629,37648,37672,37704,37705,37737,37753,37771,37788,37788,37806" d="M142.5,163.5C142.66667,165.33333 143.5,165.5 144.3,165.5C145.2,165.5 145.90079,165.70021 146.584,166.216C147.19934,166.68056 148.2265,166.31624 149.10001,166.536C149.96283,166.75305 150.70464,167.37506 151.60001,167.50017C152.50647,167.62682 153.10266,168.10799 153.8,168.8C154.50269,169.49731 155.17458,169.91512 155.44284,170.8C155.70447,171.66302 155.5,172.60001 155.5,173.5C155.5,174.38533 155.5,175.32533 155.5,176.01601C155.5,176.97917 155.5,177.89999 155.5,178.8C155.5,179.70134 155.5,180.66667 155.5,181.5C155.5,182.4785 155.5,183.1955 155.5,184.10001C155.5,185 155.23218,185.9424 155.5045,186.7955C155.76642,187.61601 156.49466,188.11063 156.5,189C156.5054,189.89998 156.5,190.8045 156.5,191.66667C156.5,192.5 156.5,193.4785 156.5,194.29866C156.5,195.136 156.5,196.15717 156.5,196.9045C156.5,197.89867 156.39648,198.6698 156.50133,199.61467C156.6127,200.61827 157.25809,201.22795 157.44284,202.15266C157.57933,202.83583 157.5,203.864 157.5,204.8C157.5,205.70134 157.5,206.66667 157.5,207.32533C157.5,208.33333 157.5,209.1955 157.5,210.10001C157.5,211 157.5,211.92133 157.5,212.83333C157.5,213.50084 157.5,214.4375 157.5,215.45833C157.5,216.30133 157.5,217.2 157.5,218.10001C157.5,219 157.5,219.89999 157.5,220.8C157.5,221.69867 157.5,222.584 157.5,223.5C157.5,224.3 157.5,225.2 157.5,226.10001C157.5,227 157.5,227.89999 157.5,228.8C157.5,229.7 157.5,230.60001 157.5,231.5C157.5,232.3 157.5,233.2 157.5,234.10001C157.5,235.02083 157.5,235.82133 157.5,236.67467L157.5,237.61467" id="svg_11" stroke-width="3" stroke="#000" fill="none"/>
  <path t="38786,38931,38931,38950,38951,38951,38966,38966,38966,38981,38981,38981,38998,38998,39018,39034,39050,39066,39066,39086,39112,39112,39135,39170,39187,39187,39187,39204,39221,39221,39221,39238,39238,39254,39272,39272,39289,39307,39324,39344,39362,39383,39399,39417,39417,39448,39466,39488,39522,39540,39540,39560,39577,39613,39632,39652,39653,39669,39669,39683,39701,39717,39717,39734,39734,39751,39767,39784,39802,39818,39835,39852,39869,39887,39904,39904,39921,39938,39955,39984,40002,40020,40020,40038,40055,40071,40088,40089,40120" d="M201.5,251.5C203.50983,251.5 204.28535,251.49406 205.33333,251.5C206.27472,251.50534 206.96098,251.51399 207.92149,251.7215C208.74477,251.89935 209.60474,252.20383 210.5,252.5C211.39122,252.79483 212.21892,253.09792 213.16667,253.33333C213.95183,253.52835 214.90341,253.7805 215.33333,254.5C215.7937,255.27046 216.50035,255.47615 217.3,255.5C218.25845,255.52859 219.14131,255.88101 219.84734,256.14734C220.72565,256.47864 221.74298,256.40674 222.66667,256.66666C223.34785,256.85834 224.00768,257.24734 225.02083,257.5C226.03529,257.75299 226.7468,257.93875 227.49466,258.14734C228.52432,258.43454 229.35231,258.50851 230.10001,259.11066C230.7543,259.63757 231.26833,260.35114 232.2,260.49551C233.0894,260.63333 234,260.5 234.89999,260.5C235.8,260.5 236.7,260.5 237.60001,260.5C238.5,260.5 239.3,260.5 240.2,260.5C241.10001,260.5 242.064,260.5 242.94667,260.5C243.82133,260.5 244.67516,260.46964 245.61333,260.5C246.49689,260.52859 246.71523,261.43912 247.60001,261.5C248.49788,261.5618 249.25824,261.46045 250.15266,261.50449C251.01874,261.54712 251.77811,262.11722 252.7,262.41467C253.56053,262.69235 254.39415,262.56125 255.15266,262.85266C256.02704,263.18857 256.97894,263.48956 257.79999,263.5C258.69995,263.51141 259.71588,263.2775 260.41599,263.784C261.10956,264.28577 261.79999,264.49991 262.70001,264.5C263.60001,264.50009 264.47174,264.7117 265.10001,265.07468C265.94565,265.56323 266.50208,266.10959 267.2045,266.55267C267.97641,267.03958 268.9892,267.28745 269.37866,267.94266C269.823,268.69016 270.13101,269.47772 270.89999,269.92532C271.6207,270.34482 272.5,270.5 273.29999,270.58533L274.10001,271.07468" id="svg_12" stroke-width="3" stroke="#000" fill="none"/>
  <path t="41028,41187,41205,41205,41225,41257,41274,41292,41313,41338,41338,41361,41410,41442,41459,41476,41494,41494,41512,41528,41546,41546,41563,41580,41598,41598,41615,41615,41632,41650,41650,41650,41667,41667,41684,41685,41704,41704,41704,41721,41721,41738,41738,41755,41755,41771,41788,41806,41806,41806,41823,41841,41841,41857,41874,41891,41909,41926,41926,41926,41943,41943,41961,41977,41977,41995,42031,42048,42065,42065,42082,42083,42099,42117,42134,42152,42169,42169,42190,42218,42218,42265,42298,42315,42333,42333,42350,42350,42368,42368,42368,42368,42385,42385,42402,42402" d="M213.5,245.5C215.25717,245.5 216.15266,245.5 217.01601,245.5C217.97917,245.5 218.89999,245.5 219.8,245.5C220.7,245.5 221.60001,245.5 222.5,245.5C223.3,245.5 224.14284,245.5 225.02083,245.5C225.89999,245.5 226.80653,245.39304 227.7,245.50133C228.61978,245.61281 229.26685,246.34596 230.10001,246.48933C231.00755,246.64549 231.98399,246.5 232.67467,246.5C233.74283,246.5 234.60001,246.5 235.5,246.5C236.25717,246.5 237.15286,246.48174 238.01601,246.5C239.00066,246.52084 239.81238,246.95433 240.52083,247.5C241.0941,247.94156 242.09511,248.43407 242.89999,248.491C243.89755,248.56157 244.71599,248.46429 245.7,248.72133C246.31317,248.8815 247.08527,249.29529 248.10001,249.44284C248.89339,249.5582 249.90651,249.42134 250.664,249.536C251.63542,249.68303 252.2692,250.34013 253.2,250.4955C254.03056,250.63412 255.04364,250.71799 255.75067,250.92534C256.4957,251.14383 257.52652,251.45729 258.5,251.5C259.25644,251.53319 260.14822,251.48758 261.16666,251.5C262.02103,251.51042 262.74228,251.98712 263.66666,252.33333C264.30731,252.57327 265.11786,252.52895 266.09549,252.85266C266.85812,253.10518 267.97958,253.3378 268.59982,253.94267C269.20511,254.53297 269.67694,255.17851 270.37866,255.72133C271.01587,256.21423 271.69525,256.60614 272.31467,256.936C273.21652,257.41626 273.37589,258.3353 274.02084,258.97916C274.66141,259.61865 275.39471,259.97559 275.85266,260.79999C276.26501,261.5423 276.5126,262.34998 277.02084,263C277.62103,263.76761 278.35114,264.26831 278.49551,265.20001C278.63333,266.08942 278.55118,267.04242 278.2785,267.82132C277.96863,268.70651 277.4498,269.52673 276.828,270.12534C276.21231,270.71808 275.49368,271.15128 274.75067,271.67465C274.26736,272.01508 273.30984,272.74283 272.61734,273.29868L271.84732,273.7955L271.15268,274.14282" id="svg_13" stroke-width="3" stroke="#000" fill="none"/>
  <path t="45296,45480,45480,45500,45517,45517,45636,45669,45687,45704,45705,45722,45722,45739,45756,45774,45812,45852,45869,45901,45925,45943,45960,46076,46094,46111,46111,46129,46129,46152,46152,46182,46269,46286,46303,46323,46340,46340,46358,46495,46528,46528" d="M180.5,269.5C182.32533,270.89999 183.05376,271.24911 183.74283,271.79999C184.54828,272.44388 185.03378,273.24112 185.89999,273.46399C186.77231,273.68842 187.7,273.5 188.60017,273.5C189.38533,273.5 190.34415,273.59131 191.01601,273.41467C192.03018,273.14804 192.85124,272.62338 193.47467,272.07468C194.05913,271.56024 194.49466,270.8894 194.5,270C194.5054,269.10004 194.5,268.20001 194.5,267.29999C194.5,266.39999 194.04674,265.22607 194.7215,264.62149C195.38214,264.02954 196.38533,264.5 197.336,264.5C198.10133,264.5 199.0955,264.5 199.84283,264.5C200.864,264.5 202.06891,264.75464 202.464,264.064C202.89339,263.31339 202.31111,262.23068 202.7215,261.39999C203.06265,260.70941 203.88933,260.10001 204.37849,259.39999L204.5,258.5L204.5,257.70001" id="svg_14" stroke-width="3" stroke="#000" fill="none"/>
  <path t="47328,47576,47594,47611,47629,47648,47664,47664,47682,47682,47700,47700,47717,47733,47754,47772,47789,47805,47805,47823,47823,47839,47857,47874,47891,47909,47925,47925,47943,47975,47992,48009,48026,48047,48064,48082,48100,48117,48135,48167,48191,48438,48486" d="M178.5,271.5C176.8,271.5 175.89999,271.5 175,271.5C174.10001,271.5 173.1955,271.5 172.17867,271.5C171.5,271.5 170.52133,271.5 169.616,271.5C168.67467,271.5 167.98399,271.5 166.91066,271.5C166.10001,271.5 165.2,271.5 164.3,271.5C163.39999,271.5 162.5,271.5 161.61467,271.5C160.67467,271.5 159.98399,271.5 158.91066,271.5C158.10001,271.5 157.2,271.5 156.3,271.5C155.39999,271.5 154.5,271.5 153.7,271.5C152.8,271.5 151.89999,271.5 151,271.5C150.10001,271.5 149.2,271.49939 148.3,271.5C147.30133,271.50067 146.82338,272.06885 146.064,272.46399C145.29689,272.86316 144.3,272.5 143.39999,272.5L142.5,272.5L141.62134,272.5L140.7955,272.5" id="svg_15" stroke-width="3" stroke="#000" fill="none"/>
  <path t="49724,50019,50037,50072,50089,50089,50107,50107,50125,50143,50163,50163,50180,50195,50195,50212,50212,50229,50229,50246,50263,50264,50281,50305,50339,50357,50357,50375,50396,50396,50433,50457,50475,50495,50512,50512,50529,50546,50563,50563,50580,50596,50617,50641,50800,50930,50978,51026,51059,51083,51122,51170,51218,51290,51317,51395" d="M92.5,249.5C92.5,251.3 92.7454,251.93785 93.33334,252.66667C93.89686,253.36523 94.10799,254.10266 94.8,254.8C95.29808,255.30191 95.9631,256.04886 96.8,256.44733C97.66801,256.8606 98.22556,257.39005 98.91067,257.88934C99.74614,258.49823 100.5605,258.31686 101.4785,258.72168C102.15937,259.02194 102.63577,260.02643 103.1,260.63867C103.72051,261.45703 104.53665,261.82614 105.3,262.216C106.05289,262.60052 107.11074,262.40204 107.78533,262.784C108.56973,263.22815 109.3,263.49933 110.25716,263.5C111.14817,263.50061 111.93066,263.5 112.936,263.5C113.8,263.5 114.7,263.5 115.6,263.5C116.5,263.5 117.3,263.5 118.2,263.5C119.136,263.5 119.984,263.5 120.84734,263.5C121.864,263.5 122.71258,263.64981 123.59983,263.49985C124.45187,263.35583 125.17052,262.69315 125.47916,261.97916C125.82811,261.17197 125.5,260.20001 125.5,259.29999C125.5,258.40018 125.5,257.5 125.5,256.69867C125.5,255.8 125.5,254.89999 125.47916,254.02083L124.88934,253.51067" id="svg_16" stroke-width="3" stroke="#000" fill="none"/>
  <path t="52895,53239,53258,53275,53292,53309,53326,53326,53345,53363,53388,53431,53455,53472,53472,53503,53527,53575,53599,53663,53695,53729,53756,53756,53774,53790,53809,53826,53896,54001,54019,54040,54057,54074,54168" d="M125.5,252.5C126.07467,254.10001 126.38495,254.94319 126.85267,255.8C127.25952,256.54532 127.72954,257.2063 128.5,257.66666C129.2195,258.09659 129.19386,259.05774 129.51067,259.88934C129.78349,260.6055 130.97983,260.41592 131.8,260.85266C132.54951,261.25177 133.3,261.49933 134.2,261.5C135.14284,261.5007 136.02083,261.5 136.88933,261.5C137.78534,261.5 138.70377,261.58212 139.60001,261.49985C140.51144,261.41617 141.19043,261.07596 141.97917,260.5C142.61945,260.03247 143.32826,259.91269 144.14284,259.44284C144.82968,259.04666 145.62909,258.85425 146.216,258.32935C146.86943,257.74496 146.85266,256.60983 147.47467,256.07468L148,255.52083" id="svg_17" stroke-width="3" stroke="#000" fill="none"/>
  <path t="54780,54929,54969,54995,55012,55029,55029,55047,55047,55065,55081,55081,55099,55099,55117,55117,55135,55135,55153,55169,55187,55187,55204,55222,55222,55239,55240,55260,55276,55277,55277,55294,55294,55294,55311,55311,55331,56002,56029,56029,56046,56063,56080,56097,56114,56131,56155,56187,56204,56222,56240,56240,56258,56258,56274,56274,56309,56330,56330,56347,56363,56363,56380,56397,56414,56429,56429,56446,56609,56634" d="M115.5,225.5C115.5,223.8 115.50533,222.89998 115.5,222C115.49467,221.09996 115.11904,220.21294 114.69867,219.61467C114.17395,218.86789 113.82756,218.16176 113.52533,217.12534C113.25145,216.18614 113.02894,215.46933 112.5,214.66667C112.04146,213.97084 111.36305,213.19812 111.02084,212.5C110.62228,211.68697 110.44656,210.80493 110,210C109.5564,209.20042 109.5,208.29866 109.5,207.61467C109.5,206.67467 109.50062,205.66667 109.5,204.87466C109.49933,204.01601 109.51578,203.12535 109.14733,202.25267C108.74382,201.29695 108.51923,200.65385 108.50134,199.81334C108.4801,198.81622 108.5,198 108.5,197.18401C108.5,196.18666 108.5,195.34666 108.5,194.38533C108.5,193.39999 108.5,192.5 108.5,191.7C108.5,190.8 108.5,189.89999 108.5,189C108.5,188.10001 108.5,187.2 108.5,186.3C108.5,185.40016 108.32956,184.48938 108.58533,183.69867C108.84092,182.90854 109.3644,182.17603 109.52533,181.28934C109.70541,180.29715 110.07516,179.54646 110.33334,178.66667C110.56455,177.87872 111.10699,177.15337 111.41467,176.29866C111.64807,175.65027 111.5,174.67467 111.5,173.66667C111.5,172.8045 111.45361,171.96666 111.92533,171.10001C112.32399,170.36758 112.5,169.5 112.5,168.7L112.5,167.8L112.5,166.89999L112.5,166" id="svg_18" stroke-width="3" stroke="#000" fill="none"/>
  <path t="58071,58269,58293,58311,58328,58346,58363,58380,58398,58398,58415,58436,58436,58436,58452,58452,58453,58469,58486,58502,58502,58520,58536,58536,58554,58571,58571,58588,58588,58604,58604,58637,58654,58671,58689,58705,58705,58722,58722,58738,58738,58756,58773,58773,58793,58808,58808,58828,58844,58844,58862,58862,58878,58895,58915,58932,58932,58956,58956,58973,58990,59007,59025" d="M96.5,217.5C96.5,215.8 96.5,214.89999 96.5,214C96.5,213.10001 96.5,212.2 96.5,211.3C96.5,210.39999 96.33332,209.46405 96.58533,208.7C96.85475,207.88321 97.51974,207.17494 97.9,206.23866C98.11105,205.71901 98.49607,204.66499 98.88934,203.74667C99.14033,203.16058 99.37391,202.09146 99.784,201.3C100.23045,200.43834 100.66043,199.88792 101.30133,199.33067C101.9866,198.73485 102.21484,197.98271 102.5,197C102.78551,196.01605 103.08048,195.30617 103.59983,194.52133C104.03911,193.8575 104.34478,193.00168 104.55267,192.15266C104.77728,191.23535 105.08626,190.35127 105.66666,189.66667C106.23228,188.99951 106.43835,188.3295 106.52084,187.5C106.60455,186.65816 107.19946,185.91411 107.41467,185.01601C107.61673,184.17276 107.35156,183.20314 107.72134,182.39999C108.0798,181.62141 108.46796,180.86343 108.50134,180.01601C108.53539,179.15154 108.99377,178.33009 109.33334,177.5C109.62652,176.78331 109.49253,175.67462 109.5,174.98399C109.51042,174.02066 110.0432,173.29669 110.3785,172.39999C110.69658,171.54936 110.5,170.74283 110.5,169.84734C110.5,168.98399 110.5,168.02083 110.5,167.10001L110.5,166.2L110.5,165.3" id="svg_19" stroke-width="3" stroke="#000" fill="none"/>
  <path t="60022,60216,60233,60233,60250,60268,60285,60303,60303,60320,60320,60320,60337,60337,60358,60358,60358,60375,60375,60391,60391,60391,60408,60408,60425,60425,60440,60440,60458,60474,60474,60493,60493,60493,60509,60510,60510,60526,60543,60560,60560,60577,60577,60594,60612,60612,60629,60629,60646,60646,60663,60663,60663,60680,60680,60680,60681,60698,60698,60698,60715,60716,60743,60775,60792,60809,60809,60826,60826,60843,60844,60860" d="M141.5,167.5C141.5,169.25717 141.5,170.15266 141.5,171.01601C141.5,171.97917 141.5,172.89999 141.5,173.70134C141.5,174.66667 141.44325,175.53557 141.66667,176.5C141.80875,177.11328 142.21536,177.8947 142.69867,178.89999C142.98566,179.49693 143.34897,180.49739 143.47467,181.3C143.59959,182.09772 143.83746,183.10886 144.2045,183.89999C144.58008,184.70955 144.99945,185.50027 145.3,186.10001C145.7991,187.09596 146.18605,187.85202 146.69867,188.616C147.13121,189.26062 147.3528,190.17305 147.584,191.01601C147.8284,191.90712 148.34364,192.66472 148.5,193.52083C148.67847,194.49792 148.95642,195.30081 149.14734,195.95717C149.42421,196.90906 149.47829,197.71422 149.4955,198.49017C149.522,199.68538 149.5,200.60001 149.5,201.5C149.5,202.25717 149.5,203.15266 149.5,204.01601C149.5,205 149.5,205.82133 149.5,206.67467C149.5,207.61734 149.5,208.46933 149.5,209.50983C149.5,210.28534 149.5,211.33333 149.5,212.05183C149.5,212.76134 149.5,213.83333 149.5,214.80533C149.5,215.5 149.5,216.19467 149.5,217.457C149.5,218.228 149.5,219.09734 149.5,220.0955C149.5,220.84283 149.50069,221.864 149.5,222.8C149.49933,223.7 149.37526,224.53432 148.7955,225.2C148.2382,225.8399 147.7,226.38533 147.11067,227.32533L146.78534,228.01601L146.5,228.97917" id="svg_20" stroke-width="3" stroke="#000" fill="none"/>
  <path t="62503,62551,62574,62613,62630,62647,62664,62682,62700,62700,62723,62723,62738,62753,62770,62771,62788,62805,62805,62823,62823,62846,62858,62859,62879,62896,62896,62913,62913,62913,62932,62932,62949,62949,62966,62984,63031,63048,63080,63098,63120" d="M145.5,190.5C145.5,192.3 145.5,193.2 145.5,194.10001C145.5,194.89999 145.5,195.8 145.5,196.7C145.5,197.60001 145.5,198.5 145.5,199.38533C145.5,200.32533 145.5,201.01601 145.5,202.08934C145.5,202.91066 145.4994,203.82133 145.5,204.67467C145.50067,205.61467 145.72806,206.46457 146.07466,207.136C146.49396,207.94827 146.45313,208.8871 146.85266,209.74283C147.27814,210.6541 147.64764,211.26576 148.07466,212.136C148.47842,212.95886 148.48561,213.75366 148.66667,214.66667C148.82314,215.45569 149.03503,216.27415 149.5,217.16667C149.9326,217.99707 150.70703,218.51816 151.14284,219.2C151.66949,220.02399 152.11804,220.81036 152.41467,221.7C152.70059,222.55748 152.72133,223.37866 153.44733,223.85266L153.92534,224.464" id="svg_21" stroke-width="3" stroke="#000" fill="none"/>
  <path t="66034,66226,66243,66243,66260,66260,66260,66278,66278,66278,66278,66295,66295,66295,66295,66311,66311,66329,66329,66329,66346,66346,66363,66380,66398,66398,66415,66415,66431,66432,66449,66449,66449,66467,66467,66489,66489,66505,66523,66539,66555,66555,66555,66573,66574,66589,66607,66607,66607,66623,66623,66640,66640,66657,66657,66674,66691,66709,66726,66743,66743,66760,66777,66777,66794,66794,66794,66812,66812,66830,66830,66847,66873,66905,66926,66941,66941,66956,66957,66976,66976,66976,66976,66991,66991,66991,66991,67008,67008,67008,67008,67033,67033,67065,67083,67100,67118,67118,67118,67135,67135,67135,67135,67152,67152,67152,67169,67169,67169,67169,67186,67203,67204,67225,67226,67238,67238,67238,67258,67258,67274,67274,67275,67291,67328,67346,67363,67363,67380,67380,67401,67401,67415,67432,67432,67449,67467,67467,67484,67502,67502,67519,67519,67536,67536,67554,67554,67554,67571,67571,67571,67592,67592,67605,67605,67626,67626,67639,67639,67659,67659,67659,67675,67675,67675,67675,67693,67693,67693,67706,67706,67706,67706,67727,67727,67727,67744,67744,67744,67992,67992,68011,68027,68027,68044,68044,68061,68061,68061,68061,68078,68078,68078,68096,68096,68112,68113,68113,68130,68130,68130,68147,68147,68147,68164,68193,68193,68211,68244,68262,68262,68279,68279,68279,68296,68296,68313,68313,68329,68330,68347,68365,68365,68382,68382,68399,68416,68432,68450,68450,68467,68485,68503,68520,68520,68537,68537,68554,68572,68572,68589,68589,68606,68624,68641,68662,68662,68679,68696,68697,68713,68713,68730,68747,68763,68763,68780,68781,68816,68833,68851,68869,68886,68904,68921,68938,68939,68956,68980" d="M73.5,191.5C73.5,193.25717 73.5,194.16167 73.5,194.96167C73.5,195.92149 73.5,196.73599 73.5,197.60451C73.5,198.5 73.5,199.4045 73.5,200.336C73.5,200.98534 73.5,202.02116 73.5,203.11467C73.5,203.83867 73.5,204.53067 73.5,205.72934C73.5,206.45833 73.53188,207.50107 73.48933,208.3C73.44661,209.10234 73.11916,210.08501 72.85267,210.84283C72.49801,211.85143 72.5,212.70134 72.5,213.66667C72.5,214.5 72.5,215.33333 72.5,216.25267C72.5,217.16167 72.50618,217.96169 72.49983,218.92133C72.49451,219.72537 72.5123,220.56082 72.27866,221.57834C72.12086,222.26559 71.59357,223.32187 71.51067,224.08934C71.41286,224.9948 71.5817,225.9041 71.4955,226.8045C71.4119,227.6778 71.02096,228.3177 70.784,229.10133C70.48885,230.07741 70.50067,231.01466 70.5,231.88533C70.49928,232.83333 70.5,233.75067 70.5,234.49466C70.5,235.53067 70.5,236.38266 70.5,237.336C70.5,238.10133 70.5,239.0955 70.5,239.84283C70.5,240.864 70.5,241.8 70.5,242.7C70.5,243.60001 70.5,244.5 70.5,245.3C70.5,246.136 70.5,246.98666 70.5,247.74667C70.5,248.92133 70.5,249.72533 70.5,250.54733C70.5,251.57834 70.5,252.25333 70.5,253.33333C70.5,254.1955 70.50539,255.10002 70.5,256C70.49467,256.8894 69.84468,257.44247 69.55267,258.21432C69.30405,258.87149 69.18914,259.89246 68.92533,260.73599C68.63701,261.6579 68.56764,262.46429 68.43867,263.34668C68.3448,263.98889 68.0733,265.02744 67.79017,265.75266C67.49579,266.50671 67.13361,267.241 66.66666,268.33334C66.3776,269.00952 66.00243,269.9476 65.78667,270.81332C65.53997,271.8031 65.50533,272.65329 65.5,273.61465C65.49509,274.5 65.21817,275.17859 64.5,275.83334C63.98682,276.30121 63.74104,277.02243 63.17867,278.14267C62.84627,278.80481 62.5,279.5 62.15267,280.19467C61.66667,281.16666 61.2657,281.99713 60.87467,282.71466C60.35062,283.67627 60.01078,284.17862 59.52083,284.97916C59.06318,285.72693 58.73214,286.73807 58.33333,287.5C57.9872,288.16132 57.13752,288.76611 56.7,289.47067C56.22878,290.22949 56.00843,291.02408 55.7,291.81732C55.3106,292.81885 55.00572,293.48196 54.5,294.5C54.20335,295.09717 53.8148,295.85281 53.2045,296.74283C52.67926,297.50879 52.5093,298.39313 51.79016,298.86166C51.1564,299.27457 50.37239,299.9751 50.02083,300.5C49.37602,301.46274 48.8956,302.0701 48.52533,302.89999C48.17566,303.68375 47.58662,304.20908 47.02083,305.02084C46.50933,305.75473 46.50533,306.67462 46.5,307.61465C46.49498,308.5 46.46895,309.26617 46.14734,310.15717C45.87458,310.91278 45.60709,311.9035 45.47467,312.70001C45.30751,313.70541 45.05675,314.30768 44.69867,315.18533C44.2931,316.17935 43.99599,316.97183 43.78533,317.73065C43.52124,318.68198 43.42511,319.38599 43.07467,320.336C42.79134,321.10406 42.53265,322.09875 42.5045,322.89999C42.46939,323.89938 42.50837,324.70004 42.49983,325.70035C42.49453,326.32138 42.43424,327.27393 42.27867,328.14267C42.09738,329.155 41.91157,329.84662 41.784,330.53201C41.5612,331.7291 41.51163,332.52069 41.50134,333.35333C41.48883,334.36392 41.5,335.15799 41.5,336C41.5,336.84201 41.5,338 41.5,338.93301C41.5,339.70401 41.5,340.66666 41.5,341.44818C41.5,342.23868 41.5,343.35699 41.5,344.19101C41.5,345.02084 41.5,345.98532 41.5,346.71066C41.5,347.70016 41.49674,348.52084 41.5,349.66666C41.50225,350.45715 41.48072,351.02472 41.58533,351.90134C41.72916,353.10648 41.94018,353.68561 42.14734,354.54285C42.3966,355.57431 42.41949,356.49561 42.66667,357.5C42.8708,358.3295 43.22004,358.95093 43.6,359.92133C43.91288,360.72043 44.07424,361.28476 44.5,362.33334C44.8774,363.26282 45.1841,363.84903 45.7955,364.74283C46.31986,365.5094 46.09663,366.43665 46.58533,367.21466C47.0502,367.95471 47.43385,368.50735 47.55717,369.31433C47.70545,370.28467 48.02676,371.01407 48.216,371.81732C48.44925,372.8074 48.45435,373.70572 48.72133,374.69983C48.88313,375.30228 49.39767,376.32288 49.48933,377.08932C49.59755,377.99411 49.81726,378.8512 50.38667,379.29999C51.25457,379.98404 52.17023,380.18066 52.47867,381.10001C52.76525,381.95419 52.97651,382.73111 53.37867,383.60001C53.68507,384.26202 54.11298,385.08197 54.47467,385.89999C54.82152,386.68448 55.31775,387.5047 55.55267,388.25717C55.83411,389.15869 56.26424,389.81705 56.44283,390.74734C56.61649,391.65192 56.36098,392.54694 56.72133,393.47849C57.02223,394.25632 57.43473,395.03207 57.85266,395.79999C58.31036,396.64096 58.70926,397.47314 59.07467,398.10001C59.52992,398.88098 59.72826,399.81851 60,400.5C60.38861,401.47458 60.59383,402.29294 61,403C61.45852,403.79819 61.72443,404.82007 62,405.5C62.33712,406.33182 62.71486,407.0466 63.33333,407.66666C63.95084,408.28577 64.48339,408.91748 65,409.5C65.53447,410.10266 66.02741,410.84573 66.416,411.70001C66.76311,412.4631 67.2045,413.14282 68.064,413.52533L68.55267,414.2045" id="svg_22" stroke-width="3" stroke="#000" fill="none"/>
  <path t="69836,69901,69918,69936,69953,69953,69953,69970,69987,69987,70005,70005,70022,70040,70040,70040,70057,70057,70074,70074,70091,70092,70109,70109,70109,70126,70126,70143,70144,70144,70144,70161,70161,70161,70161,70161,70161,70178,70178,70178,70178,70178,70197,70197,70197,70197,70214,70214,70214,70214,70214,70231,70231,70231,70514,70533,70533,70549,70549,70549,70565,70565,70565,70566,70582,70582,70582,70582,70599,70600,70600,70600,70600,70616,70616,70616,70616,70633,70633,70674,70707,70731,70751,70766,70785,70800" d="M84.5,349.5C86.3,349.5 87.19804,349.38461 87.9,349.94666C88.63161,350.53244 88.87387,351.34116 89.3,352.01599C89.85606,352.89658 90.32291,353.66882 90.5,354.5C90.70905,355.48117 91.1227,356.20709 91.52084,357.02084C91.91859,357.83383 92.38682,358.31488 93.01733,359.10132C93.64053,359.87863 93.94724,360.49945 94.5,361.33334C94.95361,362.01764 95.3993,362.98804 95.52533,363.71066C95.69862,364.70428 96.01273,365.50385 96.30133,366.10001C96.79085,367.11121 97.1181,367.74643 97.66666,368.66666C98.1462,369.4711 98.53662,370.0451 98.96167,370.66165C99.65845,371.67236 100.18472,372.38483 100.45267,372.75717C101.00147,373.51978 101.55305,374.30069 101.816,374.70132C102.59546,375.88892 103.05032,376.69382 103.45834,377.5C103.65929,377.89703 104.04102,378.68964 104.47867,379.89999C104.76563,380.69363 104.98951,381.50339 105.25267,382.29999C105.65086,383.50534 105.97647,384.30066 106.32533,385.07867C106.49632,385.46002 107.01295,386.53085 107.4785,387.45685C107.86149,388.21863 108.18005,388.84424 108.7955,389.74283C109.32031,390.50909 109.51475,391.19391 109.94283,392.043C110.32127,392.79358 110.72242,393.30167 111.33334,394.5C111.63458,395.09088 111.98682,396.00571 112.25267,396.60001C112.79504,397.81244 113.15218,398.41046 113.54166,399.02084C113.95178,399.66357 114.66706,400.66638 115.18266,401.384C115.71508,402.12503 115.99521,402.48929 116.49017,403.24734C117.18966,404.31866 117.54311,405.00574 117.95834,405.9375C118.19904,406.47766 118.77646,407.48328 119.14283,408.19101C119.59005,409.05493 119.58949,409.91736 120.07467,410.52533C120.57304,411.14981 120.536,412.10001 120.92533,412.89999L121.416,413.70001" id="svg_23" stroke-width="3" stroke="#000" fill="none"/>
  <path t="71716,71838,71838,71838,71838,71855,71855,71855,71855,71855,71872,71872,71872,71872,71872,71890,71890,71890,71890,71890,71907,71907,71907,71924,71924,71942,71959,71977,71977,71994,71994,72011,72011,72029,72029,72046,72046,72046,72063,72063,72063,72063,72081,72081,72081,72098,72098,72098,72098,72115,72115,72115,72132,72132,72149,72150,72167,72167,72186,72186,72203,72220,72237,72253,72271,72271,72288,72288,72303,72304,72321,72337,72354,72373,72373,72391,72406,72423,72423,72441,72458,72458,72475,72475,72493,72493,72510,72510,72527,72527,72545,72564" d="M136.5,333.5C136.5,336.75467 136.5,337.59732 136.5,338.04166C136.5,338.95633 136.5,340.33334 136.5,341.216C136.5,341.64734 136.5,342.5 136.5,343.35266C136.5,344.66666 136.5,345.58401 136.5,346.05267C136.5,347 136.5,347.94733 136.5,349.33334C136.5,349.77832 136.5,350.63834 136.5,351.45834C136.5,352.23834 136.5,353.67816 136.5,354.33383C136.5,355.21735 136.5,356.16666 136.5,357.07867C136.5,358 136.5,358.91068 136.5,359.82132C136.5,360.5 136.5,361.61734 136.5,362.30984C136.5,363.26801 136.5,364 136.5,365.16666C136.5,366 136.5,366.83334 136.5,367.772C136.5,368.60901 136.5,369.5 136.5,370.39999C136.5,371.29999 136.5,371.89999 136.5,373.10132C136.5,373.71066 136.5,374.65717 136.5,375.66666C136.5,376.74817 136.5,377.47916 136.5,378.19016C136.5,379.457 136.5,380.228 136.5,380.89099C136.5,381.89868 136.5,382.84283 136.5,383.75183C136.5,384.46933 136.5,385.50534 136.5,386.24933C136.5,387.35699 136.5,388.19101 136.5,389.10001C136.5,390 136.5,390.89999 136.5,391.8045C136.5,392.66666 136.5,393.5 136.5,394.47867C136.5,395.25266 136.61853,396.17322 136.41467,397.01599C136.19986,397.90402 135.54271,398.69699 135.5,399.60001C135.45747,400.49899 135.5,401.29999 135.5,402.20001C135.5,403.02084 135.50215,403.98401 135.5,404.84732C135.49774,405.74734 135.33675,406.668 135.07466,407.32535C134.67192,408.33545 134.51265,409.1377 134.216,409.98532C133.95789,410.72287 133.64601,411.70407 133.5,412.47916C133.3105,413.48502 132.92534,414.08932 132.52083,415L132.5,415.89999" id="svg_24" stroke-width="3" stroke="#000" fill="none"/>
  <path t="73591,73638,73638,73658,73658,73658,73674,73674,73691,73691,73707,73707,73707,73724,73724,73741,73741,73757,73758,73775,73775,73792,73808,73825,73826,73843,73843,73860,73860,73860,73877,73877,73894,73894,73911,73911,73928,73928,73928,73928,73946,73946,73963,73963,73963,73980,73980,73980,73997,73997,74014,74032,74032,74032,74049,74067,74067,74084,74101,74135,74152,74170,74170,74188,74204,74221,74221,74238,74277,74296,74311,74312,74328,74329,74350,74351,74509,74535,74562" d="M136.5,324.5C136.5,322.65332 136.5,321.81332 136.5,320.81601C136.5,320 136.5,319.18399 136.5,318.18533C136.5,317.31067 136.5,316.29999 136.5,315.5C136.5,314.5 136.5,313.70001 136.5,312.89999C136.5,311.89999 136.5,311.10001 136.5,310.10001C136.5,309.29999 136.5,308.30017 136.5,307.52084C136.5,306.52151 136.5,305.70132 136.5,304.79999C136.5,303.97916 136.5,303.01468 136.5,302.28934C136.5,301.29999 136.5,300.5 136.5,299.5C136.5,298.70001 136.5,297.89999 136.5,296.89999C136.5,296.10001 136.49994,295.10001 136.5,294.29999C136.50009,293.29984 136.4574,292.4693 136.66667,291.33334C136.8132,290.53796 137.00168,289.99316 137.30133,289.18399C137.675,288.1749 138.12793,287.29065 138.33333,286.33334C138.49994,285.55679 138.46019,284.7146 138.66667,283.66666C138.80847,282.94702 139.19736,282.11722 139.37866,281.30032C139.58229,280.38281 140.03787,279.62939 140.5,279C141.01947,278.29251 141.23145,277.5202 141.41467,276.47067C141.58226,275.51077 141.60434,274.71094 142,274C142.48781,273.12347 142.41954,272.16611 142.85266,271.54816C143.33189,270.86444 143.49774,270.14816 143.5,269.13599C143.50209,268.1955 143.36935,267.31937 143.52083,266.52084C143.70152,265.56827 144.48199,265.06454 144.5,264.20001C144.5188,263.29752 144.5,262.52933 144.5,261.49466C144.5,260.75067 144.5,259.83334 144.5,258.86618L144.5,257.97916L144.5,257.10001L144.5,256.2045" id="svg_25" stroke-width="3" stroke="#000" fill="none"/>
  <path t="75875,76035,76035,76052,76052,76069,76069,76069,76087,76087,76087,76104,76104,76104,76121,76121,76139,76139,76156,76174,76191,76209,76209,76226,76244,76244,76244,76262,76262,76282,76282,76282,76282,76296,76296,76314,76331,76331,76331,76348,76365,76365,76381,76402,76417,76434,76434,76451,76469,76486,76487,76504,76521,76539,76539,76556,76556,76574,76574,76591,76591,76591,76608,76608,76626,76643,76661,76661,76678,76678,76695,76715,76715,76732,76732,76749,76749,76749,76766,76766,76766,76782,76783,76783,76783,76801,76801,76801,76801,76816,76816,76816,76833,76834,76834,76834,76850,76851,76851,76868,76868,76868,76868,76886,76886,76886,76903,76903,76903,76903,76921,76921,76921,76938,76938,76955,76956,76974,76990" d="M49.5,307.5C51.336,307.936 52.1119,308.28091 52.89867,308.70132C53.67495,309.11612 54.50407,309.80344 54.87467,310.34668C55.28147,310.94299 55.8036,311.93307 56.336,312.71466C56.69866,313.24707 57.46677,314.20776 58.1,314.68567C58.6725,315.11777 59.68882,315.62332 60.47917,315.97916C61.32234,316.35876 62.21348,316.3428 62.88933,316.936C63.58593,317.54739 63.92386,318.31393 64.7,318.78534C65.37637,319.19617 65.91068,319.91068 66.66666,320.66666C67.15267,321.15268 67.66693,321.68246 68.47884,322.47867C69.01577,323.00522 69.82995,323.67139 70.50533,324.15268C70.99756,324.50345 71.76428,324.97549 72.68567,325.74283C73.32076,326.27173 73.94844,326.87463 74.5,327.66666C74.9404,328.29904 75.24027,329.06158 75.9,329.86401C76.54498,330.6485 77.19916,331.14471 78,331.5C78.79917,331.85455 79.59711,332.40225 80.5,332.5C81.19825,332.57559 81.96871,333.06125 82.8,333.44733C83.6708,333.85178 83.93916,334.46985 84.584,335.21466C85.09747,335.80774 85.99928,336.05261 86.67467,336.68533C87.34899,337.31705 87.94217,338.09891 88.8215,338.37851C89.49483,338.59259 90.5,338.5 91.3,338.5C92.1,338.5 93.09555,338.49008 94.01466,338.5C94.97933,338.51044 95.74015,338.99283 96.66666,339.33334C97.29694,339.565 98.33334,339.5 99.1955,339.5C100.136,339.5 100.98534,339.5 101.71066,339.5C102.70016,339.5 103.52084,339.5 104.66666,339.5C105.45267,339.5 106.27467,339.5033 107.33334,339.5C108.05184,339.49774 108.7663,339.49979 109.83334,339.33334C110.81551,339.18011 111.51881,338.98953 112.25183,338.85266C113.33057,338.65121 114.34306,338.55539 114.97916,338.5C115.89902,338.41992 116.8022,338.28812 117.7,338.07468C118.30154,337.93167 119.49905,337.65927 120.4,337.54816C120.99941,337.47424 121.92879,337.40845 123.1,336.93066C123.71784,336.67862 124.28237,336.28091 125.5,335.66666C126.09058,335.36874 126.97979,335.02246 127.54283,334.8045C128.57999,334.40298 129.27762,334.08063 130.00983,333.79999C131.13164,333.37003 131.80559,333.2009 132.5,333C133.53238,332.70132 134.48239,332.45624 135.21733,332.08932C136.04549,331.67587 136.62347,331.02197 137.08934,330.32535C137.71187,329.39447 138.2,328.86166 139.10001,328.47467L139.89999,328.064" id="svg_26" stroke-width="3" stroke="#000" fill="none"/>
  <path t="77932,78172,78189,78189,78189,78207,78207,78224,78241,78259,78259,78277,78277,78294,78294,78312,78312,78329,78329,78329,78345,78345,78345,78363,78363,78380,78380,78397,78397,78415,78415,78432,78449,78474,78474,78498,78516,78533,78551,78568,78585,78585,78604,78620,78637,78637,78671,78688,78705,78705,78721,78753,78832,78857,78914,78946" d="M43.5,327.5C45.02083,329.02084 45.66665,329.66666 46.32533,330.32535C46.84732,330.84732 47.54005,331.71011 48.1955,332.13834C48.93393,332.62079 49.74283,332.98563 50.66667,333.33334C51.29715,333.57065 52.39073,333.5809 53.08933,334.11066C53.76633,334.62402 54.39651,335.28354 55.15267,335.80899C55.85809,336.29919 56.49287,337.03491 56.87467,337.75067C57.26743,338.48697 57.78644,339.39734 58.32533,339.828C58.97766,340.3493 59.85685,340.94516 60.46933,341.29999C61.4647,341.87665 62.27789,342.04004 63.16667,342.5C63.85308,342.85522 64.42712,343.58932 65.1,344.064C65.83481,344.58237 66.80688,344.84976 67.5,345.5C68.00507,345.97382 68.82337,346.41 69.47467,346.92532C70.14129,347.45276 71.06957,347.38858 71.8,347.85718C72.59991,348.37036 73.07949,349.10666 73.9,349.47467C74.68261,349.82568 75.62111,350.11362 76.21467,350.58401C76.95325,351.16934 77.6,351.5 78.5,351.5C79.3,351.5 80.2,351.5 81.1,351.5C82,351.5 82.88934,351.5 83.78533,351.5L84.7,351.5" id="svg_27" stroke-width="3" stroke="#000" fill="none"/>
  <path t="79955,80383,80383,80401,80435,80452,80452,80469,80507,80531,80531,80549,80567,80585,80602,80602,80627,80644,80644,80667,80702,80702,80719,80736,80736,80753,80770,80788,80788,80805,80823,80843,80859,80877,80877,80894,80894,80910,80928,80928,80943,80960,80960,80978,80978,80994,81011,81011,81028,81028,81028,81045,81045,81063,81063,81080,81080,81080,81097,81097,81115" d="M92.5,358.5C93.50134,356.93201 93.63476,356.10968 94.14733,355.45184C94.72594,354.70926 95.50086,354.5372 96.3,354.5C97.21764,354.45728 97.76299,353.71521 98.5,353.33334C99.25396,352.94272 100.03208,352.56528 100.8,352.14734C101.64095,351.68967 102.53189,351.37347 103.1,350.88934C103.84536,350.25415 104.54053,349.771 105.3,349.41599C106.12256,349.03149 106.85764,348.66489 107.64933,348.46399C108.5117,348.24518 109.06654,347.55084 109.85184,347.50449C110.86235,347.44482 111.60719,347.04703 112.5,346.66666C113.25154,346.34647 114.22649,346.68372 115.1,346.46399C115.96282,346.24695 116.69659,345.54272 117.5,345.5C118.38408,345.45297 119.32533,345.5 120.016,345.5C121,345.5 121.984,345.50146 122.67467,345.5C123.74284,345.49774 124.55108,345.19113 125.25716,344.85266C126.10751,344.44504 127.02173,344.58911 127.87466,344.48932C128.83809,344.37662 129.49818,343.92404 130.5,343.66666C131.28683,343.46451 132.11317,343.46094 133.10001,343.14734C133.91251,342.88913 134.69604,342.57877 135.52083,342.52084C136.66405,342.44055 137.44817,342.5 138.23866,342.5L139.16667,342.5L140.07866,342.5L140.97917,342.5" id="svg_28" stroke-width="3" stroke="#000" fill="none"/>
  <path t="85385,85576,85576,85594,85594,85594,85594,85610,85610,85610,85610,85610,85628,85628,85628,85628,85628,85645,85645,85645,85661,85661,85694,85712,85729,85746,85746,85746,85763,85763,85780,85780,85780,85797,85798,85798,85798,85815,85815,85815,85815,85815,85833,85833,85833,85833,85849,85849,85849,85849,85867,85867,85884,85884,85884,85901,85902,85919,85937,85937,85953,85954,85973,85995,86027,86051,86051,86069,86087,86104,86122,86122,86122,86139,86203,86203,86236,86253,86253,86270,86288,86306,86322,86323,86342,86342,86360,86380,86380,86398,86420,86437,86454,86455,86473,86473,86490,86490,86507,86507,86526,86548,86651,86669,86686,86686,86686,86704,86704,86726,86726" d="M1.5,205.5C1.5,207.35733 1.5,208.01883 1.5,209.14301C1.5,209.81433 1.5,210.92133 1.5,211.70267C1.5,212.90016 1.5,213.7045 1.5,214.52083C1.5,214.936 1.5,215.78534 1.5,217.12117C1.5,218.04817 1.5,218.97917 1.5,219.43866C1.5,220.33067 1.5,221.55667 1.5,222.60667C1.5,223.20667 1.48282,224.35718 1.5,225.19099C1.518,226.06454 2.20449,226.49774 3.04167,226.5C4.04266,226.50269 4.75067,226.5 5.732,226.5C6.69917,226.5 7.3625,226.5 8.55467,226.5C9.19733,226.5 9.896,226.5 11.33333,226.5C12.016,226.5 12.67467,226.5 13.65267,226.5C14.66667,226.5 15.38547,226.50627 16.136,226.48933C16.91088,226.47185 17.7056,226.44803 18.89983,226.2785C19.69897,226.16507 20.48373,225.99706 21.61467,225.69867C22.68291,225.41682 23.34234,225.21196 24.25333,224.89999C24.8159,224.70735 25.82065,224.31284 26.68933,223.89999C27.5058,223.51198 28.277,223.04709 29.1,222.78534C30.07425,222.47549 30.88601,222.55458 31.74283,222.14734C32.55285,221.76234 33.25716,221.50226 34.15267,221.5C35.016,221.49783 35.97917,221.4977 36.9,221.5C37.80001,221.50226 38.81252,221.69241 39.21467,222.30133C39.71442,223.05804 40.27217,223.64081 41.04167,224C42.01139,224.45265 42.7502,224.47813 43.49467,224.4955C44.52906,224.51964 45.53924,224.32356 46.3,224.58533C47.07956,224.85356 47.81136,225.61911 48.21467,226.3C48.70462,227.12715 48.96152,228.09706 49.8045,228.44733C50.62603,228.78868 51.29996,228.99472 52.33333,229.33333C53.07455,229.57622 53.89231,229.94421 54.6,230.59984C55.19363,231.1498 56.1086,231.31998 56.7955,231.85716C57.53935,232.43887 57.20255,233.69508 57.756,234.21466C58.36797,234.78918 59.53117,234.43446 60.35717,234.7215C61.16161,235.00104 61.96439,235.73843 62.67467,236.064C63.45919,236.42358 64.44733,236.5 65.2045,236.5C66.172,236.5 67.04283,236.5 67.76133,236.5C68.55183,236.5 69.81467,236.5 70.47916,236.5L71.5,236.5L72.27866,236.5" id="svg_29" stroke-width="3" stroke="#000" fill="none"/>
  <path t="88384,88639,88657,88700,88725,88742,88759,88760,88777,88777,88798,88798,88812,88832,88849,88866,88885,88885,88900,88900,88917,89020,89020,89054,89054,89054,89071,89071,89088,89088,89105,89105,89105,89122,89122,89122,89140,89140,89140,89140,89156,89156,89156,89156,89156,89156,89174,89174,89174,89174,89174,89174,89191,89191,89191,89191,89191,89191,89209,89209,89209,89227,89227,89380,89401,89418,89418,89418,89435,89435,89436,89436,89451,89451,89451,89451,89451,89468,89468,89468,89468,89469,89469,89484,89484,89484,89484,89501,89501,89501,89501,89501,89518,89518,89518,89535,89535,89551,89552,89552,89660,89678,89695,89696,89696,89713,89713,89713,89730,89730,89731,89731,89751,89751,89751,89768,89769,89769,89785,89786,89884,89903,89919,89919,89937,89954,89954,89954,89971,89971,89988,89988,90006,90006,90006,90022,90023,90085,90103,90119,90119,90136,90136,90153,90153,90171,90171,90188,90188,90205,90205,90222,90276,90294,90311,90328,90358,90421,90421,90440,90457,90474,90492,90509" d="M8.5,111.5C8.5,113.3 8.5,114.2 8.5,115.1C8.5,116 8.5,116.8045 8.5,117.8215C8.5,118.52084 8.5,119.5 8.5,120.28934C8.5,121.33334 8.51071,122.19556 8.5,123.1C8.48958,123.97935 7.88938,124.49476 6.97917,124.5C6.17868,124.50461 5.25984,124.64011 4.38533,124.21467C3.61487,123.83984 3.12546,123.07357 2.40017,122.40033C1.80539,121.84824 1.4728,122.66765 1.51067,123.336C1.55416,124.10374 1.88863,125.08765 2.14733,125.9C2.46165,126.88697 2.42888,127.76122 2.943,128.69966C3.28924,129.33165 3.83863,129.94102 4.90267,130.32933C5.51505,130.55281 6.27066,130.49866 7.47333,130.5C8.19333,130.50079 8.99333,130.5 9.87333,130.5C10.83333,130.5 11.86951,130.50316 12.40983,130.4865C13.52138,130.45221 14.09267,130.44011 15.21733,130.244C16.34272,130.04778 16.89187,129.86914 17.93833,129.4285C18.46062,129.20857 19.45909,128.67769 19.93833,128.38651C21.35088,127.52824 21.78267,127.20658 22.63383,126.6045C23.04486,126.31375 23.82536,125.74621 24.528,125.18533C25.46777,124.43517 25.99004,123.97108 26.64267,123.34666C27.34299,122.67662 27.94098,121.98013 28.59983,121.40033C29.29581,120.78786 29.81171,121.53063 30.38267,121.91067C31.16085,122.42863 31.91355,122.83533 32.75733,123.32533C33.37676,123.68504 34.0532,124.0668 35.243,124.47833C36.10234,124.77557 36.56765,124.87523 37.52133,125.05334C38.49873,125.23587 39.49907,125.34563 40.49866,125.41467C40.99511,125.44894 41.9791,125.4841 42.94283,125.4955C43.41464,125.50108 44.77922,125.52485 45.63833,125.482C46.45991,125.44102 47.29504,125.39262 48.33333,124.83334C49.06113,124.4413 49.66566,123.79702 50.21733,123.12933C50.75089,122.48358 51.37543,121.55396 51.828,120.772C52.20663,120.1178 52.64127,119.31837 52.97917,118.5C53.38404,117.51943 53.46829,116.71085 53.49866,115.98534C53.54214,114.94691 54.18764,114.51797 54.98667,115.06934C55.57553,115.47569 56.15429,116.07514 57.18533,116.61467C57.72092,116.89494 58.60359,117.1982 59.5,117.5C60.3991,117.8027 61.29993,118.1002 61.9,118.3C63.09853,118.69907 63.68155,118.91719 64.54283,119.14283C65.5703,119.41201 66.4789,119.49129 67.09866,119.49866C68.09546,119.51051 69.10155,119.43105 69.73833,118.79916C70.44556,118.09737 70.68867,118.62798 71.2045,119.2C71.87038,119.93843 72.64367,120.54253 73.336,120.88934C74.07954,121.2618 75.09874,121.46789 75.9,121.4955C76.90075,121.52999 77.74318,121.50766 78.66666,121.33334C79.45605,121.18433 80.23083,120.89535 81.16666,120.66666C82.07202,120.44543 82.81792,119.91085 83.6,119.6215C84.45174,119.30637 85.25716,119.5 86.15717,119.5C87.10133,119.5 88.1,119.5 88.9,119.5C89.9,119.5 90.7,119.5 91.69984,119.5C92.47916,119.5 93.33334,119.5 94.1955,119.5C95.1,119.5 96,119.5 96.9,119.5C97.8,119.5 98.7,119.5 99.6,119.5C100.5,119.5 101.3,119.5 102.2,119.5C103.1,119.5 104,119.5 104.88934,119.48933L105.52533,118.92533" id="svg_30" stroke-width="3" stroke="#000" fill="none"/>
  <path t="91210,91401,91401,91401,91401,91401,91401,91418,91418,91418,91418,91418,91418,91418,91435,91436,91436,91436,91436,91456,91456,91456,91456,91456,91473,91473,91473,91490,91550,91550,91575,91593,91610,91626,91626,91643,91661,91661,91661,91678,91678,91678,91678,91678,91696,91696,91696,91696,91696,91713,91713,91713,91713,91713,91730,91730,91730,91748,91748,91806,91806,91824,91841,91857,91857,91857,91857,91874,91875,91875,91875,91875,91875,91891,91891,91891,91891,91891,91891,91891,91891,91909,91909,91909,91909,91909,91926,91926,91926,91926,91943,91943,91982,91982,92000,92017,92017,92017,92035,92035,92035,92052,92052,92052,92052,92052,92070,92070,92070,92070,92087,92087,92087,92087,92108,92108,92108,92128,92145,92162,92162,92179,92179,92179,92196,92197,92214,92214,92214,92214,92231,92231,92231,92231,92248,92249,92266,92266,92288,92288,92335,92352,92370,92387,92387,92405,92405,92421,92422,92438,92439,92459,92459,92476,92494,92494,92509,92527,92527,92543,92543,92560,92576,92647,92665,92682,92682,92699,92699,92717,92717,92734,92734,92751,92777,92793,92810,92810,92810,92827,92827,92827,92828,92828,92844,92844,92844,92844,92845,92862,92862,92862,92862,92862,92879,92879,92896,92896,92930,92947,92948,92948,92948,92964,92964,92964,92982,92982,92998,92998,93016,93016,93033,93079,93113,93130,93130,93131,93131,93148,93148,93148,93148,93148,93148,93164,93165,93165,93165,93165,93182,93182,93182,93182,93183,93199,93199,93199,93199,93217,93217,93217,93217,93235,93252,93252,93270,93270,93287,93305,93305,93305,93322,93322,93322,93339,93339,93357,93357,93374,93415,93432,93450,93468,93486,93486,93503,93503,93519,93520,93555,93573,93590,93590,93607,93608,93625,93625,93645,93662,93663,93679,93679,93696,93696,93713,93713,93729,93746,93747,93769,93786,93803,93803,93821,93839,93855,93873,93873,93907,93952,93985,94002,94021" d="M160.5,119.5C163.80733,119.5 164.88133,119.5 165.46933,119.5C166.08333,119.5 166.71733,119.5 168.02133,119.5C169.33333,119.5 169.97816,119.50165 170.612,119.49866C171.84268,119.49287 172.43791,119.49043 173.58116,119.44283C174.12825,119.42005 175.65837,119.28764 176.12933,119.21333C177.03098,119.07108 177.88647,118.87853 178.69733,118.61333C179.91255,118.21588 180.69385,117.8489 181.07866,117.664C181.8338,117.30116 182.56035,116.9435 183.728,116.10267C184.23143,115.74015 185.09328,115.18356 185.85333,114.55067C186.4946,114.01669 186.7101,112.43835 185.85266,112.56617C185.04677,112.6863 185.5,114.136 185.5,115.15266C185.5,115.84734 185.35066,116.99298 185.9435,117.6C186.48312,118.15253 187.35124,118.32616 188.3645,118.59983C189.16615,118.81635 190.06148,118.98504 190.532,119.064C191.50204,119.2268 192.99945,119.38415 193.49867,119.41467C194.48871,119.4752 194.97908,119.48577 195.94284,119.4955C197.33327,119.50953 198.21216,119.50758 199.04266,119.48933C199.81757,119.47231 200.5495,119.51619 201.72934,119.21333C202.47739,119.02132 203.11841,118.64067 203.89867,118.01733C204.68622,117.38818 205.29004,116.67834 206.1955,116.509C207.08464,116.34272 207.93201,116.50128 209,116.5C209.55733,116.49933 210.58417,116.49419 211.37067,116.44283C212.66852,116.35809 213.12305,116.28568 214.07066,116.14283C214.56857,116.06777 215.61838,115.88761 216.17599,115.7955C217.99908,115.49435 218.66353,115.39902 219.34933,115.3C220.04886,115.199 220.75478,115.10071 221.45833,115C222.1521,114.9007 223.48039,114.71738 224.66667,114.5C225.67749,114.31477 226.12291,114.21602 227.28267,113.9C227.98135,113.70962 229.01955,113.39407 229.74817,113.2045C230.4776,113.01472 231.18251,112.81142 232.45683,112.6215C233.21376,112.50868 234.35608,112.65154 235.08934,112.464C235.9744,112.23763 236.65161,111.47322 237.34666,111.1C237.94952,110.77628 238.91768,110.38883 239.74667,110.1C240.3439,109.89191 241.66557,109.49603 242.38533,109.3C243.13489,109.09586 243.91043,108.89907 244.70134,108.7C245.89948,108.39842 246.69891,108.20753 247.47917,107.97916C248.24637,107.75462 249.34036,107.34806 250.01334,107.01733C250.66042,106.69934 251.50993,106.14282 252.33333,105.83334C253.22858,105.49684 254.13593,105.04503 255.05333,105.536C255.71489,105.89005 255.41599,107.17631 255.61433,107.9045C255.8405,108.73482 256.51111,109.51313 257.10266,110.01466C257.86462,110.66066 258.50662,111.01167 259.66666,111.5C260.17944,111.71587 261.02771,112.00455 261.60449,112.25716C262.81519,112.78741 263.38907,113.15974 264.26401,113.63866C264.81073,113.93794 265.80603,114.3944 266.68933,114.47867C267.6955,114.57465 268.47916,114.5 269.47849,114.5C270.29868,114.5 271.37921,114.95033 272.14282,114.38567C272.80005,113.89968 272.62546,112.64308 273.02084,112C273.54724,111.14388 273.95773,110.47314 274.5,109.66666C274.965,108.97513 275.63693,108.19811 275.97916,107.5C276.37772,106.68695 276.55933,105.80793 276.92532,105.08933C277.38696,104.18292 277.48956,103.50017 277.5,102.5215C277.51086,101.50006 277.5,100.74284 277.5,99.84734C277.5,98.984 277.5,98.02084 277.5,97.1C277.5,96.2 277.70218,95.18014 277.16666,94.5C276.64078,93.83209 275.66425,93.50323 275.12534,93.1C274.32977,92.50475 273.7049,92.03445 272.66666,91.66666C271.88022,91.38806 271.46329,90.6004 270.69867,90.50134C269.74414,90.37766 269.00137,91.06161 268.4375,91.58334C267.9722,92.01384 267.16849,92.83517 266.53067,93.468C265.84064,94.15266 265.48874,94.51023 264.74817,95.19466C263.68027,96.1816 263.33234,96.47124 262.65268,96.98566C262.01013,97.47201 261.35718,97.90772 260.33334,98.5C259.62399,98.91036 258.88693,99.29243 258.16135,99.664C257.47083,100.01761 256.2814,100.63338 255.5625,100.95834C254.67755,101.35834 253.77708,101.51467 253.04266,101.064C252.15466,100.5191 251.48438,100.20876 250.71466,99.864C250.17847,99.62383 249.17641,99.02731 248.52083,98.5C247.89259,97.99468 247.13785,97.30946 246.3,96.94667C245.33519,96.52889 244.52101,96.51042 243.66667,96.5C242.80457,96.48949 241.89999,96.5 241.02083,96.5C240.13383,96.5 239.16667,96.5 238.47217,96.5C237.57066,96.5 236.84134,96.5 235.53566,96.5C235.04533,96.5 234.00267,96.5 233.45833,96.5C232.34367,96.5 231.78133,96.5 230.12167,96.5C229.58667,96.5 228.54666,96.5 228.04167,96.5C227.06166,96.5 225.66667,96.5 225.2215,96.5C224.35716,96.5 223.52083,96.5 222.7045,96.5C221.5,96.5 220.70134,96.5 219.91066,96.5C219.136,96.5 217.66667,96.5 216.98801,96.5C216.0625,96.5 215.26527,96.39104 214.31433,96.5045C213.38109,96.61585 212.77205,97.25808 211.84734,97.44283C211.16417,97.57933 210.11467,97.5 209.16667,97.5C208.48567,97.5 207.67867,97.50298 206.5,97.5C205.60898,97.49775 204.75092,97.57044 203.83333,97.33334C203.13617,97.15318 202.16463,96.68224 201.52083,96.5C200.58089,96.23393 200.0645,95.51801 199.10001,95.5C198.20015,95.4832 197.3,95.5 196.39967,95.5C195.68567,95.5 194.73199,95.5 194,95.5C192.83333,95.5 192.0625,95.5 191.14284,95.5C190.2,95.5 189.29866,95.5 188.61467,95.5C187.664,95.5 186.89867,95.5 185.9045,95.5C184.98534,95.5 184,95.5 183.17867,95.5C182.32533,95.5 181.36894,95.41222 180.616,95.58533C179.63081,95.81184 178.91316,96.29314 177.9045,96.44283C177.16342,96.55282 176.12534,96.5 175.17867,96.5C174.5,96.5 173.52167,96.5 172.58267,96.5C171.79016,96.5 170.98267,96.5 170.02083,96.5C169.10001,96.5 168.1955,96.5 167.17883,96.5C166.52083,96.5 165.48534,96.5 164.69867,96.5L163.8,96.5L162.89999,96.5L162,96.5" id="svg_31" stroke-width="3" stroke="#000" fill="none"/>
  <path t="94772,94915,94915,94933,94933,94933,94933,94950,94950,94950,94950,94950,94968,94968,94968,94968,94968,94968,94985,94985,94985,94985,94985,94985,94985,95001,95001,95002,95002,95002,95019,95019,95019,95019,95019,95042,95042,95145,95145,95166,95183,95183,95183,95200,95200,95200,95217,95217,95217,95218,95233,95233,95233,95250,95250,95250,95268,95268,95284,95284,95284,95284,95301,95301,95301,95301,95318,95318,95318,95318,95318,95336,95336,95336,95336,95336,95336,95353,95353,95353,95353,95370,95370,95370,95387,95387,95411,95411,95428,95445,95462,95634,95652,95669,95669,95669,95669,95686,95686,95686,95686,95703,95703,95703,95703,95703,95721,95721,95721,95721,95737,95737,95738,95738,95738,95755,95755,95755,95898,95920,95935,95953,95968" d="M102.5,98.5C100.64267,98.5 99.98116,98.5 98.85683,98.5C98.18117,98.5 97.4375,98.5 96.63383,98.5C95.33334,98.5 94.41467,98.5 93.464,98.5C92.97916,98.5 91.9955,98.5 90.5,98.5C89.99983,98.5 88.9955,98.5 88.48933,98.5C87.464,98.5 86.94283,98.5 85.33334,98.5C84.77866,98.5 83.64733,98.5 83.07467,98.5C82.5,98.5 81.35267,98.5 80.784,98.5C79.12167,98.5 78.58667,98.5 77.54667,98.5C77.04166,98.5 76.06167,98.5 74.66666,98.5C73.788,98.5 72.95734,98.5 72.18266,98.5C71.472,98.5 70.272,98.5 69.5625,98.5C68.5215,98.5 67.69521,98.42666 66.828,98.536C65.9445,98.64741 65.23502,98.95372 64.391,99.14733C63.20848,99.41859 62.60079,99.46207 61.7,99.48933C60.5005,99.52563 59.89923,99.4789 59,99.52084C58.09867,99.56287 57.1978,99.71188 56.3,99.92533C55.69846,100.06834 54.50183,100.34865 53.609,100.44733C52.77346,100.53969 51.81208,100.61803 51.15067,100.936C50.12848,101.42741 49.48446,101.80156 48.95833,102.02084C48.09531,102.38052 47.1963,102.81553 46.27867,103.336C45.62558,103.70643 44.93925,104.12117 43.75717,104.7C43.3341,104.90716 42.43914,105.30109 41.97917,105.5C41.04911,105.9022 39.66536,106.49712 39.22167,106.7C38.35909,107.09441 37.53842,107.49374 36.76167,107.9C36.38507,108.09697 35.32773,108.71041 34.336,109.27866C33.7145,109.63477 33.12677,110.01541 31.90133,110.33067C31.31981,110.48027 30.4424,110.47567 29.42167,110.72134C28.52423,110.93733 27.67992,111.43835 26.8045,111.4955C25.85772,111.5573 25.51896,110.79531 25.5,109.9C25.47957,108.93554 24.79412,108.48721 23.957,108.057C23.20468,107.67036 22.67729,107.28075 22.09733,106.89733C20.8958,106.10298 20.28762,105.69184 19.664,105.264C19.01287,104.81728 17.97815,104.07938 17.616,103.816C16.87361,103.27612 16.12763,102.72218 15.384,102.184C14.32442,101.41716 13.99632,101.1652 13.31467,100.74667C12.30929,100.12937 11.16964,99.658 10.7575,99.5215C9.90493,99.23912 9.01982,99.02481 8.1625,98.8045C6.9986,98.50539 6.34709,98.33069 5.60417,98.02084C4.5971,97.60081 4.44283,98.2045 4,99L3.55717,99.8L3.5,100.7" id="svg_32" stroke-width="3" stroke="#000" fill="none"/>
 </g>
</svg>