<svg width="280" height="420" xmlns="http://www.w3.org/2000/svg" xmlns:svg="http://www.w3.org/2000/svg" xmlns:xlink="http://www.w3.org/1999/xlink">
 <!-- Created with SVG-edit - http://svg-edit.googlecode.com/ -->
 <g display="inline" class="layer">
  <title>Layer 1</title>
  <path t="3696,3815,3823,3823,3834,3840,3843,3847,3855,3863,3871,3871,3875,3883,3887,3903,3935,3951,3951,3959,3983,3988,4000,4015,4016,4024,4063,4068,4068,4071,4079,4084,4087,4100,4107,4111,4119,4124,4135,4155,4155,4199,4207,4219,4232,4240,4249,4252,4257,4291,4293,4293,4293,4293,4303,4335,4359,4375,4379,4379,4387,4391,4400,4404,4412,4418,4483,4503,4527,4559,4584,4600,4610,4610,4613,4622,4629,4645,4648,4648,4659,4659,4671,4686,4743,4771,4791,4839,4879,4879,4895,4909,4915,4918,4925,4926,4929,4930,4937,4949,4953,4961,5001,5017,5041,5045,5053,5065,5070,5090,5105,5121,5133,5153,5153,5166,5177,5178,5183,5189,5201,5202,5209,5218,5218,5223,5225,5234,5238,5246,5265,5272,5283,5301,5304,5310,5321,5334,5346,5346,5353,5358,5385,5409,5457,5477,5477,5483,5486,5489,5490,5500,5502,5506,5537,5609,5625,5649,5654,5674,5685,5697,5698,5729,5791,5796,5796,5806,5809,5809,5824,5837,5841" d="M153.5,225.5C154.66933,224.69867 155.37373,224.11966 156.01733,223.7C156.88144,223.13655 157.71794,222.80177 158.416,222.216C159.07338,221.66437 159.3829,220.91397 159.85716,220.2C160.38303,219.40834 161.15251,219.02411 161.88933,218.52533C162.5564,218.07376 163.15532,217.45222 163.55267,216.7955C164.0305,216.00577 164.80385,215.37637 165.21466,214.7C165.68608,213.92386 166.17249,213.2182 166.72133,212.62134C167.30988,211.98129 167.85942,211.34767 168.216,210.7C168.6915,209.83633 169.2063,209.27046 169.66667,208.5C170.09659,207.7805 171.19978,207.63051 171.48933,206.88933C171.83665,206.00031 171.97522,205.29994 172.66667,204.66667C173.26459,204.11906 173.10832,203.12099 173.78534,202.58533C174.4276,202.07716 175.31427,202.1689 175.72133,201.39999C176.12238,200.64246 176.09683,199.79541 176.536,198.936C176.89214,198.23907 177.78525,197.82159 178.416,197.216C178.98886,196.666 179.56061,196.05945 180.07466,195.47467C180.63394,194.83844 180.81387,193.99115 181.20984,193.1465C181.50641,192.51387 181.68028,191.7702 182.61333,190.84C183.23682,190.2184 183.94476,189.76096 184.44733,189.14284C185.0202,188.43825 185.22525,187.61174 186,187.02083C186.73393,186.46106 187.30972,185.97362 187.78534,185.30133C188.33736,184.52107 189.17334,184.21898 189.72133,183.62134C190.30643,182.98322 190.65067,182.28728 190.49983,181.40016C190.35512,180.54909 189.25154,180.65353 188.5,180.33333C187.71881,180.00049 187.00018,179.51042 186.10001,179.5C185.20006,179.48959 184.29866,179.5 183.33333,179.5C182.5,179.5 181.66667,179.5 180.8045,179.5C179.89999,179.5 179,179.5 178.10001,179.5C177.2,179.5 176.29623,179.41788 175.39999,179.50017C174.48856,179.58385 173.70174,179.98245 173.02083,180.5C172.38733,180.98152 172.55287,182.03471 172.14734,182.8C171.69902,183.64604 171.54591,184.38696 171.48933,185.32533C171.44753,186.01877 170.81479,186.90363 170.55716,187.8C170.3084,188.66553 169.89232,189.23917 169.536,189.936C169.10146,190.78581 169.07393,191.57758 168.47467,192.07466C167.85971,192.58476 167.05165,192.74203 166.416,193.216C165.64719,193.78926 164.9456,193.91769 164.2785,194.37849C163.5488,194.88255 162.45749,194.31425 161.7,194.58533C160.79889,194.90779 160.37589,195.80304 159.7,196.21466C158.85753,196.72774 158.23016,197.27185 157.5,197.66667C156.84343,198.02171 156.21074,198.81091 155.5,199.5C154.90878,200.07321 154.11165,200.47581 153.5,201C152.8537,201.55388 152.3905,202.17006 151.69867,202.584C150.90332,203.05988 150.4583,203.8322 149.92534,204.52533C149.43831,205.15872 149.35469,205.94594 148.784,206.584C148.20107,207.23576 147.68573,207.8311 147.27867,208.60001C146.87762,209.35754 146.2612,209.94611 145.784,210.584C145.20953,211.35191 145.15714,212.11279 144.62134,212.7215C143.99829,213.42932 144.04773,214.31502 143.47467,215.064C142.94521,215.756 142.14249,216.17998 141.85716,216.85184C141.44208,217.82925 141.57304,218.85017 141.07466,219.47467C140.58948,220.08263 140.45279,220.8587 139.92534,221.52533C139.41,222.17664 138.8372,222.92636 138.58533,223.7C138.30544,224.55965 138.26968,225.46031 137.85266,226.2C137.43262,226.94502 136.77849,227.46146 136.2045,228.20984C135.76027,228.78903 135.75548,229.84111 135.21466,230.69867C134.82541,231.3159 133.85716,231.55267 133.50133,232.30133L133.41467,233.21466" id="svg_2" stroke-width="3" stroke="#000" fill="none"/>
  <path t="6900,7087,7098,7099,7114,7135,7155,7179,7188,7211,7223,7227,7251,7251,7291,7314,7331,7335,7370,7403,7419,7435,7482,7538,7566,7567,7586,7619,7650,7685,7693,7693,7700,7701,7709,7756,7861,7909,7941,7989,8013,8013,8037,8085,8133,8133,8157,8181,8205,8228,8301,8365,8380,8508,8933,9071,9079,9084,9116,9150,9167,9222,9265,9303,9303,9314,9330,9331,9335,9367,9390,9438,9439,9462,9471,9479,9487,9487,9495,9503,9526,9550,9574,9600,9600,9607,9616,9648,9669,9688,9725,9742,9742,9774,9798,9822,9831,9836,9837,9843,9926,9927,9966,9998,10014,10030,10070,10102,10134,10158,10158,10206,10223,10326,10354,10406" d="M133.5,231.5C133.5,233.25717 133.5,234.15266 133.5,235.01601C133.5,235.97917 133.49933,236.89999 133.5,237.8C133.50067,238.69867 134.06886,239.17662 134.464,239.936C134.86317,240.70311 134.33629,241.75729 134.72133,242.60001C135.02713,243.2693 135.48927,244.10001 135.5,245C135.5106,245.88933 136.22559,246.37392 136.48933,247.11067C136.78909,247.94803 136.5,248.89999 136.5,249.8C136.5,250.7 136.72302,251.67184 136.33333,252.5C135.97647,253.25839 135.00018,253.48958 134.10001,253.5C133.20006,253.51041 132.29866,253.5 131.33333,253.5C130.67467,253.5 129.66667,253.5 128.8045,253.5C127.9,253.5 127,253.5 126.1,253.5C125.2,253.5 124.3,253.5 123.4,253.5C122.5,253.5 121.56964,253.89296 120.78533,253.41467C119.9817,252.92461 119.36596,252.64651 118.7,252.41467C117.81435,252.10635 117.05281,251.78519 116.2045,251.4955C115.38941,251.21715 114.81638,250.82903 114.02084,250.47917C113.30881,250.16605 112.79551,249.50226 111.9,249.5C111,249.49774 110.15644,249.43304 109.47467,248.92534C108.83385,248.44812 108.04691,248.36259 107.416,247.784C106.72195,247.14749 106.1558,246.70952 105.4,246.2785C104.7309,245.89693 104.11718,245.0824 103.4,244.40016C102.81368,243.84242 102.10094,243.41901 101.44733,242.85266C100.84715,242.3326 100.5,241.5 100.5,240.7C100.5,239.8 100.38182,238.92174 100.936,238.10001C101.39643,237.41728 102.18946,237.08258 102.97916,236.5C103.61714,236.02934 104.20396,235.44637 105,235C105.79946,234.55171 106.54681,234.19315 107.3,233.784C108.09752,233.35078 108.57056,232.73636 109.5,232.5C110.32362,232.29056 110.71523,231.5609 111.6,231.5C112.49788,231.4382 113.3,231.5 114.2,231.5C115.1,231.5 116,231.5 116.91067,231.5C117.82133,231.5 118.67467,231.5 119.61467,231.5C120.5,231.5 121.3,231.5 122.2,231.5C123.1,231.5 124,231.5 124.9,231.5C125.8,231.5 126.7,231.5 127.6,231.5C128.5,231.5 129.33444,231.30405 130.2,231.55716C131.07764,231.8138 131.7955,232.44733 132.464,232.936L132.5,233.8" id="svg_3" stroke-width="3" stroke="#000" fill="none"/>
  <path t="11209,11332,11344,11345,11360,11372,11384,11392,11400,11417,11441,11465,11488,11488,11512,11554,11576,11600,11624,11640,11656,11656,11664,11683,11762,11794,11819,11826,11837,11838" d="M118.5,227.5C116.66666,227.66667 116.66815,228.53644 116.41467,229.3C116.15833,230.07216 115.51868,230.89948 115.5,231.8C115.48137,232.69847 114.93115,233.17662 114.536,233.936C114.13683,234.70311 114.6637,235.75729 114.27866,236.60001C113.97287,237.2693 113.51073,238.10001 113.5,239C113.4894,239.88933 113.08547,240.58408 112.44733,241.14734C111.85194,241.67287 111.66815,242.53644 111.41467,243.3C111.15833,244.07216 110.57882,244.81682 110,245.5C109.4967,246.09404 108.784,246.584 108.33334,247.33333L107.5,247.66667L106.8,248.14734" id="svg_4" stroke-width="3" stroke="#000" fill="none"/>
  <path t="13209,13412,13420,13448,13484,13488,13548,13604,13635,13668,13698,13724,13748,13772,13820,13844,13844,13867,13891,13920,13947,14003,14028,14059,14099,14148" d="M126.5,231.5C126.5,232.5 126.04967,233.04492 125.58533,233.78534C125.09727,234.56358 125.5,235.59984 125.5,236.44733C125.5,237.30133 125.55759,238.14212 126.30133,238.584C127.0004,238.99933 127.89946,239.48199 128.8,239.5C129.69981,239.51799 130.60001,239.5 131.5,239.5C132.3,239.5 133.31564,239.50298 133.49867,238.69867C133.69807,237.8224 133.84306,236.82143 133.47917,236.02083C133.12772,235.24759 132.416,234.784 131.69867,234.416L130.89999,233.92534" id="svg_5" stroke-width="3" stroke="#000" fill="none"/>
  <path t="14678,14821,14853,14878,14885,14917,14926,14949,14973,15095,15117,15117,15149,15229,15253,15261,15281,15306,15310,15321,15322,15341,15353,15373,15398,15438,15448,15470,15542,15590,15598,15626,15662,15678,15679,15702,15766,15822,15822" d="M125.5,238.5C123.7,238.5 122.77726,238.35402 122.11066,238.936C121.41248,239.54558 121.13787,240.43643 120.5,241C119.91651,241.51552 119.23326,242.00066 118.66666,242.66667C118.0851,243.35028 117.69983,244.1526 117.52084,245C117.33479,245.8808 117.24535,247.06891 117.936,247.464C118.68661,247.8934 119.7,247.5 120.6,247.5C121.5,247.5 122.3,247.5 123.2,247.5C124.1,247.5 125.07971,247.8667 125.97916,247.47917C126.69352,247.17139 127.1887,246.40132 127.584,245.69867C128.04359,244.88173 128.73366,244.06833 128.4955,243.2045C128.28403,242.43744 127.14336,242.63655 126.3,242.216C125.63835,241.88608 124.85717,241.44733 124.33334,240.66667L123.5,240.5L122.7,240.5" id="svg_6" stroke-width="3" stroke="#000" fill="none"/>
  <path t="16660,16776,16792,16804,16809,16820,16829,16840,16849,16860,16860,16872,16883,16886,16899,16899,16904,16916,16924,16936,16952,16968,16976,16984,16993,17016,17028,17029,17048,17056,17056,17068,17076,17084,17099,17152,17180,17192,17192,17208,17222,17238,17258,17278,17290,17290,17306,17329,17342,17346,17362,17367,17370,17385,17395,17406,17422,17434,17440,17447,17453,17455,17474,17478,17490,17499,17506,17522,17533,17538,17548,17555,17570,17586,17610,17626,17634,17639,17639,17658,17662,17682,17698,17704,17722,17736,17739,17754,17759,17763,17772,17778,17782,17789,17791,17798,17804,17811,17815,17821,17828,17837,17844,17844,17864,17872,17898,17902,17918,17918,17926,17930,17938,17946,17970,18010,18010,18038,18061,18066,18086,18137,18149,18157,18166,18173,18233,18234,18261,18273,18285,18313,18337,18349,18354,18374,18397,18425,18445,18446,18461,18473,18485,18489,18493,18514,18529,18537,18549,18569,18574,18587,18599,18614,18628,18644,18657,18660,18675,18691,18715,18720,18720,18736,18739,18752,18766,18795,18815,18827,18832,18836,18841,18852,18860,18871,18899,18907,18931,18939,18940,18944,18944,18951,18957,18979,19035,19047,19055,19065,19072,19072,19083,19092,19103,19147,19165,19182,19188,19198,19207,19215,19223,19236,19236,19250,19259,19267,19315,19332,19343,19351,19371,19371" d="M122.5,248.5C121.27866,249.37866 120.52868,249.85571 120.5,250.7C120.46945,251.59932 119.9516,252.16933 119.55717,252.85716C119.08729,253.67657 119.65353,254.74846 119.33334,255.5C119.00051,256.28122 118.66743,257.01724 118.48933,257.89999C118.29893,258.84375 117.58503,259.4874 117.50134,260.29999C117.40912,261.19528 117.5,262.10001 117.5,263C117.5,263.89999 117.50008,264.79999 117.5,265.70001C117.49992,266.59982 116.95159,267.16931 116.55717,267.85718C116.08732,268.67657 116.5,269.70132 116.5,270.38535C116.5,271.32535 116.5,272.33334 116.5,273.1955C116.5,274.10001 116.5,275 116.5,275.89999C116.5,276.79999 116.5,277.70001 116.5,278.60001C116.5,279.5 116.5,280.29999 116.5,281.20001C116.5,282.10001 116.49775,283 116.5,283.89999C116.50225,284.79999 116.82613,285.53665 117.216,286.29999C117.60055,287.05289 117.13331,288.07971 117.52084,288.97916C117.82862,289.69351 118.13675,290.30179 118.536,291.064C118.93321,291.82233 119.49933,292.30133 119.5,293.20001C119.50067,294.10001 119.49515,295 119.5,295.89999C119.50533,296.88937 120.22559,297.3739 120.48933,298.11066C120.7891,298.94803 120.25713,299.93481 120.5045,300.7955C120.7252,301.56339 121.62901,301.96384 122.14733,302.55267C122.71999,303.20325 122.90517,304.05753 123.47467,304.88934C123.92973,305.55402 124.66008,305.93024 125.216,306.58401C125.73826,307.19818 126.11298,308.08197 126.47467,308.89999C126.82152,309.68448 127.11354,310.62115 127.584,311.21466C128.16945,311.95322 129.10832,312.23883 129.464,312.936C129.85504,313.70245 130.07735,314.44119 130.52533,315.11066C131.01746,315.8461 131.24794,316.81381 131.784,317.41599C132.31122,318.00824 132.42122,318.8548 132.92534,319.47467C133.42555,320.08975 133.80196,320.87366 134.59984,321.37866C135.36934,321.86572 135.25308,322.73422 135.784,323.41599C136.27194,324.04257 136.9073,324.59238 137.55267,325.14734C138.13466,325.6478 139.03101,325.99036 139.69867,326.70001C140.24092,327.27637 140.48933,328.10001 140.5,329C140.51067,329.89999 140.96193,330.73639 141.33333,331.5C141.7,332.25391 141.98254,333.1539 142.47467,333.88934C142.92265,334.55881 143.41942,335.17554 143.936,335.89999C144.49609,336.68546 145.15134,337.29776 146,337.47916C146.88036,337.66733 147.85017,337.42694 148.47467,337.92532C149.08263,338.41052 149.89999,338.5 150.8,338.5C151.7,338.5 152.60001,338.5 153.5,338.5C154.3,338.5 155.33803,338.6203 155.97917,337.97916C156.62029,337.33804 156.5,336.29999 156.5,335.39999C156.5,334.5 156.98317,333.89282 157.41467,333.21466C157.90782,332.43961 157.5,331.39999 157.5,330.5C157.5,329.70001 157.5,328.79999 157.5,327.89999C157.5,327 157.48933,326.11066 157,325.5C156.51067,324.88934 156.36415,324.03973 155.85266,323.44733C155.28625,322.79132 154.92769,322.10178 154.11067,321.52533C153.45247,321.06094 153.05064,320.36163 152.416,319.784C151.76935,319.19543 151.16319,318.64877 150.52533,318.07468C149.94661,317.5538 149.34114,316.9819 148.784,316.41599C148.12328,315.74484 147.46352,315.37775 146.8,314.7955C146.16701,314.24002 145.82906,313.27023 145.27867,312.62134C144.71783,311.96011 143.82861,311.69351 143.52083,310.97916C143.1333,310.07971 143.74287,309.06519 143.4955,308.2045C143.27478,307.43661 142.649,306.96512 142.48933,306.10001C142.33589,305.26862 141.92921,304.33783 141.33333,303.66666C140.79504,303.06036 140.59285,302.38409 140.41467,301.61465C140.18916,300.64081 140.00806,299.88461 139.5,299.04166C139.08327,298.35025 138.44467,297.797 138,297C137.55449,296.20151 137.5,295.29999 137.5,294.39999C137.5,293.5 137.51874,292.69983 137.5,291.79999C137.48199,290.93546 136.64575,290.45602 136.50133,289.69867C136.33299,288.81589 136.5,287.89999 136.5,287C136.5,286.10001 136.5,285.20001 136.5,284.29999C136.5,283.39999 136.5,282.5 136.5,281.70001C136.5,280.79999 136.5,279.89999 136.5,279C136.5,278.10001 136.5,277.20001 136.5,276.29999L136.5,275.39999L136.5,274.5L136.5,273.70001" id="svg_7" stroke-width="3" stroke="#000" fill="none"/>
  <path t="19966,20066,20073,20078,20141,20165,20197,20225,20234,20293,20305,20321,20321,20332,20335,20342,20357,20357,20446,20469,20470,20478,20525,20541,20557,20557,20566,20574,20582,20582,20590,20614,20620,20655,20663,20674,20674,20688,20696,20703,20725,20813,20829,20838,20850,20862,20866,20874,20883,20890,20900,20910,20910,20925,20933,21037,21057,21062,21063,21069,21073,21085,21089,21098,21118" d="M136.5,272.5C137.37866,273.72134 137.88507,274.40787 138.47467,274.92532C139.11243,275.48502 139.49774,276.2045 139.5,277.10001C139.50226,278 139.49934,278.89999 139.5,279.79999C139.50067,280.70001 139.74213,281.45377 140.14734,282.20001C140.56062,282.96112 140.34883,283.98044 140.85716,284.79999C141.35811,285.60764 142.0407,285.96878 142.47467,286.89999C142.83699,287.67746 143.14868,288.32813 143.55267,289.20001C143.938,290.03165 144.3364,290.84705 144.72133,291.60001C145.1115,292.36319 145.41603,293.16632 145.936,293.89999C146.49385,294.68707 147.142,295.20038 147.5,296C147.85632,296.79587 148.8958,297.03693 149.41467,297.78534C149.88139,298.45853 149.74213,299.45377 150.14734,300.20001C150.56062,300.96112 150.56696,301.84357 151.07466,302.52533C151.55188,303.16614 151.5,304.10001 151.5,305C151.5,305.89999 151.49991,306.79999 151.5,307.70001C151.50009,308.59982 152.00781,309.10864 152.44284,309.85718C152.86731,310.58755 152.5,311.60001 152.5,312.5C152.5,313.29999 152.5,314.20001 152.5,315.10001C152.5,316 152.48015,316.91089 152.50017,317.82117C152.51816,318.63925 153.17213,319.27829 153.47917,320.02084C153.81519,320.83353 153.5045,321.7955 154,322.5L154.48933,323.11066" id="svg_8" stroke-width="3" stroke="#000" fill="none"/>
  <path t="21730,21835,21835,21849,21855,21855,21859,21867,21875,21884,21884,21887,21895,21907,21919,21935,21963,21979,21991,21991,21995,22007,22018,22023,22031,22035,22048,22055,22056,22067,22082,22175,22203,22215,22279,22303,22311,22327,22343,22351,22447,22455,22471,22503,22511,22519,22527,22535,22535,22548,22555,22623,22653,22697,22723,22733,22745,22745,22753,22841,22969,23041,23057,23067,23073,23111,23111,23122,23122,23122,23122,23122,23124,23125,23126,23127,23129,23134,23137,23141,23145,23153,23153,23157,23161,23173,23185,23205,23213,23225,23225,23233,23241,23252,23254,23258,23269,23270,23305,23321,23340,23349,23349,23361,23369,23378,23393,23400,23401,23403,23425,23437,23457,23457,23484,23505,23509,23518,23525,23526,23533,23541,23553,23573,23585,23600,23605,23617,23617,23625,23637,23649,23661,23689,23709,23729,23745,23745" d="M145.5,329.5C145.5,330.5 145.37683,331.3154 145.55716,332.25717C145.7345,333.18335 146.2655,333.81665 146.44284,334.74283C146.62317,335.6846 146.5,336.60001 146.5,337.5C146.5,338.29999 146.5,339.20001 146.5,340.10001C146.5,341 146.5,341.89999 146.5,342.79999C146.5,343.70001 146.5,344.60001 146.5,345.5C146.5,346.29999 146.5,347.20001 146.5,348.10001C146.5,349 146.5,349.89999 146.5,350.79999C146.5,351.70001 146.5,352.60001 146.5,353.5C146.5,354.29999 146.48933,355.20007 146.5,356.10001C146.51042,356.97934 147.11063,357.49466 148,357.5C148.89998,357.5054 149.8548,357.4212 150.47467,357.92532C151.08974,358.42554 151.76971,358.90189 152.59984,359.37866C153.39005,359.83252 153.84413,360.45749 154.5,361C155.10298,361.49878 156.03474,361.44708 156.8,361.85266C157.6459,362.30096 158.5,362.5 159.3,362.5C160.2,362.5 161.10001,362.5 162,362.5C162.89999,362.5 163.8,362.5 164.7,362.5C165.60001,362.5 166.5,362.5 167.3,362.5C168.2,362.5 169.10002,362.5054 170,362.5C170.88937,362.49466 171.48958,361.97934 171.5,361.10001C171.51067,360.20007 171.5,359.29333 171.5,358.51416C171.5,357.66666 171.5,356.88 171.5,355.97333C171.5,355.02667 171.48886,354.56329 171.50017,353.00751C171.50546,352.27994 171.88608,351.36163 172.216,350.70001C172.63657,349.85663 172.5,348.89999 172.5,348C172.5,347.10001 172.36832,346.14993 172.72133,345.39999C173.08636,344.62448 173.49466,343.90005 173.5,343C173.50533,342.10004 173.5,341.20001 173.5,340.29999C173.5,339.39999 173.47464,338.4996 173.5,337.70001C173.52859,336.79861 174.1862,336.07764 174.44284,335.20001C174.69597,334.33441 174.31673,333.34573 174.66667,332.5C174.99133,331.71536 175.34758,330.98566 175.51067,330.10001C175.66377,329.26855 176.26245,328.47369 176.55267,327.79999C176.9153,326.95822 177.47141,326.20139 177.5,325.29999C177.52853,324.40045 177.46281,323.49915 177.5,322.70001C177.54271,321.78235 178.35863,321.27551 178.50017,320.39999C178.64624,319.49646 179.24695,318.96283 179.464,318.10001C179.68375,317.2265 179.5,316.29999 179.5,315.39999C179.5,314.5 179.5,313.70001 179.5,312.79999C179.5,311.89999 179.5,311 179.5,310.10001C179.5,309.20001 179.5,308.29999 179.5,307.39999C179.5,306.5 179.5,305.70001 179.5,304.79999C179.5,303.89999 179.5,303 179.5,302.10001C179.5,301.20001 179.5,300.29999 179.5,299.39999L179.5,298.5L179.5,297.70001" id="svg_9" stroke-width="3" stroke="#000" fill="none"/>
  <path t="24077,24211,24216,24227,24235,24239,24250,24253,24263,24263,24268,24271,24282,24287,24330,24349,24350,24358,24359,24366,24374,24383,24387,24395,24410,24442,24466,24466,24495,24499,24516,24530,24531,24542,24554,24565,24614,24615,24622,24628,24634,24639,24643,24648,24707,24717,24725,24727,24849,24852,24866,24868,24872,24883,24891,25264,25268,25276,25285,25300,25400,25405,25408,25418,25420,25433,25510,25530,25559,25631,25648,25650,25660,25675,25695,25766,25785,25893,25913,25913,25918,25933,25941,25950,26005,26045,26057,26070,26085,26098,26101,26121,26141,26146,26157,26173,26205,26237,26261,26261,26277,26285,26293,26305,26321,26333,26349,26361,26361" d="M179.5,296.5C181.3,296.5 182.2,296.5 183.10001,296.5C183.89999,296.5 184.8,296.5 185.7,296.5C186.60001,296.5 187.5,296.5 188.3,296.5C189.2,296.5 190.10001,296.5 191,296.5C191.89999,296.5 192.8,296.5 193.7,296.5C194.60001,296.5 195.5,296.5 196.3,296.5C197.2,296.5 198.10001,296.5 199,296.5C199.89999,296.5 200.8,296.5 201.7,296.5C202.60001,296.5 203.5,296.5 204.3,296.5C205.2,296.5 205.88715,296.18552 206.66667,295.66666C207.37413,295.19577 208.30042,295.52725 209.2,295.5C210.14413,295.47141 210.5518,294.64362 211.5,294.5C212.29099,294.38019 213.2,294.5 214.10001,294.5C215,294.5 215.88933,294.48932 216.5,294C217.11067,293.51068 217.86845,293.3559 218.55267,292.85266C219.21887,292.36267 219.98747,292.31128 220.66667,291.66666C221.3009,291.0647 221.86212,290.56357 222.5,290C223.08348,289.4845 223.71439,288.95099 224.33333,288.33334C224.95198,287.716 225.80064,287.68054 226.416,287.216C227.09921,286.70023 227.82169,286.69489 228.69867,286.49866C229.50571,286.31808 229.93555,285.52042 230.89999,285.5C231.79532,285.48105 232.30685,284.8295 233.02083,284.52084C233.82805,284.17188 234.8224,284.69806 235.69867,284.49866C236.50298,284.31561 236.42696,283.14984 236.92534,282.52533C237.41052,281.91736 237.5,281.10001 237.5,280.20001C237.5,279.29999 237.68134,278.34653 237.33333,277.5C237.05743,276.82892 236.63232,275.79556 235.88933,275.51068C235.07785,275.19955 234.34111,274.98196 233.784,274.41599C233.12338,273.74487 232.6962,273.00076 232.064,272.52533C231.40524,272.02994 230.33784,271.9292 229.66667,271.33334C229.06033,270.79504 228.39316,270.61078 227.5,270.5C226.60077,270.38849 226.21764,269.54272 225.3,269.5C224.40097,269.45816 223.5,269.5 222.7,269.5C221.8,269.5 220.89999,269.5 220,269.5C219.10001,269.5 218.2,269.5 217.3,269.5L216.39999,269.5L215.5,269.5L214.7,269.5" id="svg_10" stroke-width="3" stroke="#000" fill="none"/>
  <path t="26961,27007,27007,27016,27099,27115,27143,27199,27211,27219,27231,27231,27248,27311,27319,27327,27339,27583,27583,27927,27995,28119,28162,28177,28185,28217,28224,28240,28256,28269,28284,28293,28299,28309,28345,28357,28369,28393,28405,28417,28433,28453" d="M231.5,274.5C232.5,274.5 233.3,274.5 234.2,274.5C235.10001,274.5 236,274.5 236.89999,274.5C237.8,274.5 238.7,274.5 239.60001,274.5C240.5,274.5 241.3,274.5 242.2,274.5C243.10001,274.5 244.03474,274.44708 244.8,274.85266C245.6459,275.30096 246.54544,275.30618 247.3,275.58533C248.16959,275.90701 248.48267,276.89944 248.5,277.79999C248.5173,278.69852 248.17395,279.3634 247.52533,279.92532C246.93744,280.43463 246.06818,280.5719 245.47467,281.07468C244.84097,281.61151 244.07764,282.18619 243.2,282.44284C242.33444,282.69595 241.27509,282.24374 240.62134,282.72134C239.92227,283.23206 239.20212,283.34067 238.55267,283.85266C237.93805,284.33719 237.10001,284.5 236.2,284.5L235.3,284.5L234.40016,284.50015" id="svg_11" stroke-width="3" stroke="#000" fill="none"/>
  <path t="29385,29469,29512,29552,29578,29591,29602,29607,29616,29616,29623,29632,29639,29650,29655,29667,29675,29683,29684,29695,29703,29712,29725,29732,29740,29750,29759,29759,29765,29771,29783,29795,29816,29827,29840,29852,29852,29883,29931,29971,30003,30007,30015,30023,30023,30043,30043" d="M213.5,267.5C211.8,267.5 210.89999,267.5 210,267.5C209.10001,267.5 208.2,267.5 207.3,267.5C206.39999,267.5 205.5,267.5 204.7,267.5C203.8,267.5 202.89999,267.5 202,267.5C201.10001,267.5 200.2,267.5 199.3,267.5C198.39999,267.5 197.5,267.5 196.7,267.5C195.8,267.5 194.89999,267.5 194,267.5C193.10001,267.5 192.2,267.5 191.3,267.5C190.39999,267.5 189.5,267.5 188.7,267.5C187.8,267.5 186.89999,267.5 186,267.5C185.10001,267.5 184.2,267.5 183.3,267.5C182.39999,267.5 181.5,267.5 180.7,267.5C179.8,267.5 178.89999,267.5 178,267.5C177.10001,267.5 176.2,267.5 175.29866,267.5C174.33333,267.5 173.5,267.5 172.5215,267.5L171.70134,267.5" id="svg_12" stroke-width="3" stroke="#000" fill="none"/>
  <path t="30852,30913,30925,30937,30945,30957,30961,30967,30974,30977,30977,30989,31000,31009,31016,31021,31032,31037,31045,31068,31088,31093,31101,31101,31109,31114,31163,31163,31196,31196,31196,31207,31215,31221,31221,31225,31229,31237,31241,31245,31250,31284,31308,31324,31332,31332,31349,31356,31367,31430,31446,31461,31467,31483,31493,31501,31509,31521,31525" d="M143.5,290.5C145.3,290.5 146.2,290.5 147.10001,290.5C148,290.5 148.89999,290.5 149.8,290.5C150.7,290.5 151.60001,290.5 152.5,290.5C153.3,290.5 154.2,290.5 155.10001,290.5C156,290.5 156.88933,290.48932 157.5,290C158.11067,289.51068 158.86845,289.3559 159.55267,288.85266C160.21887,288.36267 161.09131,288.40234 161.60983,287.7955C162.15898,287.1528 163.01691,286.69937 163.74283,286.2045C164.59933,285.62061 165.29189,285.22092 165.75467,284.61334C166.26654,283.94131 166.99638,283.47974 167.73334,283.06934C168.65359,282.55685 169.28558,282.05804 169.78534,281.30133C170.18748,280.69241 171.16924,280.39072 171.584,279.69867C172.06047,278.90369 172.88835,278.5242 173.5,278C174.1463,277.44611 174.91769,276.94559 175.37849,276.2785C175.88255,275.5488 175.32645,274.46176 175.58533,273.70001C175.88708,272.81207 176.47467,272.11066 177,271.5C177.52533,270.88934 178.11804,270.18964 178.41467,269.29999C178.70058,268.44254 179.00719,267.89099 179.44284,267.14282C179.86729,266.41388 179.85266,265.55267 180.47917,264.97916L180.5,264.10001" id="svg_13" stroke-width="3" stroke="#000" fill="none"/>
  <path t="33566,33603,33615,33665,33673,33682,33693,33698,33706,33723,33732,33733,33745,33753,33753,33761,33765,33777,33788,33797,33809,33809,33825,33849,33873,33881,33893,33905,33909,33920,33934,33941,33953,33967,33967,33969,33992,34004,34021,34021,34029,34034,34053,34077,34115,34115,34160,34165,34183,34196,34202,34217,34241,34257,34269,34273,34289,34305,34369,34385" d="M173.5,263.5C171.8,263.5 170.77437,263.94119 169.936,263.46399C169.24452,263.0704 169.5054,261.89996 169.5,261C169.49466,260.1106 168.77425,259.62024 168.51067,258.85333C168.23848,258.06137 168.55086,257.10947 168.14734,256.25717C167.76357,255.44658 167.37654,254.7229 166.92534,253.89999C166.49759,253.11987 166.5,252.2 166.5,251.3C166.5,250.39999 166.5,249.5 166.5,248.7C166.5,247.8 166.5027,246.87997 166.07466,246.10001C165.62369,245.27826 165.16321,244.64874 164.52533,244.07466C163.94661,243.5538 163.68109,242.86667 163.47917,242C163.25528,241.03902 162.56088,240.40611 162.5,239.5C162.44637,238.7018 162.12938,238.07101 161.62151,237.2785C161.14297,236.53178 161.2883,235.52826 160.92534,234.89999C160.43677,234.05432 160.02061,233.38812 159.44733,232.85266C158.76212,232.21266 158.67355,231.46175 158.41467,230.7C158.11292,229.81209 157.51801,229.10054 157.5,228.2C157.48201,227.30019 157.74425,226.26784 157.216,225.584C156.73129,224.9565 156.5,224.3 156.5,223.39999C156.5,222.5 156.27867,221.62134 155.58533,221.21466L155.5,220.3L155.5,219.39999" id="svg_14" stroke-width="3" stroke="#000" fill="none"/>
  <path t="34972,35087,35087,35107,35115,35123,35202,35227,35283,35298,35315,35315,35322,35346,35370,35394,35466,35475,35484,35538,35554,35563,35578,35652,35698,35730,35762,35810,35882,35898,35922,35938,35986,36025,36026,36049,36073,36122,36162,36186,36218,36259" d="M181.5,189.5C182.5,189.5 183.3,189.5 184.2,189.5C185.10001,189.5 186,189.5 186.89999,189.5C187.8,189.5 188.7,189.5 189.60001,189.5C190.5,189.5 191.3,189.5 192.2,189.5C193.10001,189.5 194,189.5 194.89999,189.5C195.8,189.5 196.79788,189.65935 197.44733,189.14734C198.06195,188.66278 198.88933,188.48933 199.5,188C200.11067,187.51067 201.26173,187.56709 201.48933,186.88933C201.80429,185.9514 201.5,185 201.5,184.10001C201.5,183.2 201.83107,182.04724 201.21466,181.58533C200.47954,181.03445 199.39999,181.5 198.5,181.5C197.7,181.5 196.8,181.5 195.89999,181.5C195,181.5 194.10001,181.5 193.2,181.5L192.3,181.5L191.39999,181.5" id="svg_15" stroke-width="3" stroke="#000" fill="none"/>
  <path t="40970,41065,41071,41073,41082,41082,41085,41089,41093,41099,41106,41109,41121,41125,41165,41173,41173,41189,41201,41215,41232,41233,41249,41257,41277,41293,41305,41317,41325,41337,41337,41349,41365,41383,41385,41398,41410,41449,41489,41489,41522,41545,41557,41621,41737,41745,41769,41777,41789,41798,41805,41809,41814,41815,41826,41845,41859,41883,41915,41915,41927,41947,41987,42011,42023,42043,42067,42104,42104,42128,42163,42187,42244,42250,42250,42259,42259,42276,42323,42323,42346,42358,42375,42387,42388,42400,42420,42444,42450,42460,42475,42483,42496,42496,42507,42519,42523" d="M153.5,362.5C153.55716,364.20001 154.06145,364.96863 154.44733,365.79999C154.85208,366.67203 155.2469,367.36093 155.89999,367.88934C156.64372,368.49109 157.43643,368.86212 158,369.5C158.51552,370.0835 159.31915,370.55151 159.49867,371.30133C159.71228,372.19354 160.28482,372.76297 160.66667,373.5C161.05731,374.25397 161.33258,375.01724 161.51067,375.89999C161.70105,376.84375 162.41496,377.4874 162.49867,378.29999C162.5909,379.19528 162.5,380.10001 162.5,381C162.5,381.89999 162.5,382.79999 162.5,383.70001C162.5,384.60001 162.5,385.5 162.5,386.29999C162.5,387.20001 162.5,388.10001 162.5,389C162.5,389.89999 162.5,390.79999 162.5,391.70001C162.5,392.60001 162.5,393.5 162.5,394.29999C162.5,395.20001 162.5,396.10001 162.5,397C162.5,397.89999 162.42914,398.84845 162.92534,399.47467C163.4523,400.13974 164.20448,400.49774 165.10001,400.5C166,400.50226 166.90816,400.61652 167.8,400.49551C168.62135,400.38409 169.48097,400.06833 170.14284,399.44733C170.74733,398.88016 170.81448,398.11285 171.33333,397.33334C171.80421,396.62589 171.5,395.70001 171.5,394.79999C171.5,393.89999 171.5,393 171.5,392.10001C171.5,391.20001 171.5,390.29999 171.5,389.39999C171.5,388.5 171.37572,387.72256 170.92534,386.89999C170.49806,386.1196 170.5,385.20001 170.5,384.29868C170.5,383.33334 170.5,382.67465 170.5,381.66666C170.5,380.8045 170.5,379.86401 170.5,379.01599C170.5,378.15268 170.5,377.25717 170.5,376.29999C170.5,375.39999 170.5,374.5 170.5,373.70001C170.5,372.79999 170.5,371.89999 170.5,371C170.5,370.10001 170.5,369.20001 170.5,368.29999C170.5,367.39999 170.5,366.5 170.5,365.70001L170.5,364.79999L170.5,363.89999L170.5,363" id="svg_17" stroke-width="3" stroke="#000" fill="none"/>
  <path t="44711,44818,44826,44831,44835,44843,44847,44855,44859,44859,44864,44871,44882,44895,44910,44918,44931,44938,44939,44950,44958,44965,44970,44974,44979,44983,44987,45045,45045,45050,45050,45050,45050,45051,45077,45077,45079,45079,45084,45084,45091,45095,45099,45099,45107,45119,45119,45123,45131,45135,45143,45150,45150,45164,45170,45175,45181,45183,45191,45191,45195,45195,45202,45207,45211,45211,45215,45219,45219,45222,45227,45232,45233,45236,45243,45251,45262,45270,45302,45310,45311,45318,45327,45331,45335,45339,45349,45352,45355,45355,45362,45367,45382,45406,45430,45442,45463,45486,45487,45518,45542,45615,45624,45627,45632,45644,45652,45652,45663,45689,45738,45766" d="M274.5,320.5C272.79999,320.5 271.89999,320.5 271,320.5C270.10001,320.5 269.20001,320.5 268.29999,320.5C267.39999,320.5 266.5,320.5 265.70001,320.5C264.79999,320.5 263.89999,320.5 263,320.5C262.10001,320.5 261.20001,320.5 260.29999,320.5C259.39999,320.5 258.5,320.5 257.70001,320.5C256.79999,320.5 255.89999,320.5 255,320.5C254.10001,320.5 253.2,320.5 252.3,320.5C251.39999,320.5 250.34283,320.35388 249.6205,320.72134C248.90576,321.08493 248.17297,321.39465 247.3795,321.44284C246.4801,321.49747 245.55884,321.49689 245.11867,321.49866C243.72534,321.5043 242.76534,321.5 241.84283,321.5C241.0955,321.5 240.10133,321.5 239.336,321.5C238.25717,321.5 237.39999,321.5 236.5,321.5C235.7,321.5 234.864,321.5 233.84734,321.5C233.15266,321.5 232.136,321.5 231.2,321.5C230.3,321.5 229.39999,321.5 228.5,321.5C227.7,321.5 226.79994,321.48959 225.89999,321.5C224.99982,321.51044 224.29671,322.04321 223.39999,322.37851C222.54936,322.69659 221.74283,322.5 220.84734,322.5C219.98399,322.5 219.02083,322.49991 218.08934,322.5C217.17883,322.50009 216.31358,322.44919 215.55066,322.92532C214.8806,323.34351 214.13445,323.34393 213.136,323.51068C212.26848,323.65558 211.51369,324.41211 210.8,324.49551C209.90607,324.59998 209,324.5 208.10001,324.5C207.2,324.5 206.3,324.5 205.39999,324.5C204.5,324.5 203.7,324.5 202.8,324.5C201.89999,324.5 201,324.5 200.10001,324.5C199.2,324.5 198.3,324.5 197.39999,324.5C196.5,324.5 195.7,324.5 194.8,324.5C193.89999,324.5 193,324.5 192.10001,324.5C191.2,324.5 190.3,324.5 189.39999,324.5C188.5,324.5 187.7,324.5 186.8,324.5C185.89999,324.5 185,324.5 184.10001,324.5C183.2,324.5 182.3,324.5 181.39999,324.5C180.5,324.5 179.7,324.5 178.8,324.5L177.89999,324.5L177,324.5L176.10001,324.5" id="svg_18" stroke-width="3" stroke="#000" fill="none"/>
  <path t="46371,46408,46412,46420,46424,46431,46433,46441,46449,46449,46512,46544,46548,46556,46560,46565,46569,46572,46572,46576,46584,46592,46592,46601,46609,46617,46680,46680,46685,46689,46693,46698,46698,46700,46701,46776,46776,46776,46776,46784,46784,46784,46784,46784,46784,46784,46785,46788,46789,46789,46789,46792,46792,46792,46798,46815,46815,46815,46817,46817,46817,46817,46821,46822,46822,46824,46824,46829,46829,46833,46833,46836,46836,46841,46845,46845,46851,46853,46853,46865,46888,46904,46908,46915,46917,46920,46926,46926,46931,46933,46936,46936,46941,46941,46945,46945,46950,46950,46952,46952,46956,46957,46961,46968,46968,46970,46971,46973,46977,46981,46989,47000,47024,47032,47032,47044,47050,47057,47068,47071,47077,47084,47085,47089,47089,47097,47105,47116,47136,47192,47192,47256,47288,47293,47296,47308,47326,47326,47338,47348,47354,47370,47386,47402,47410,47423,47423,47434" d="M132.5,324.5C130.8,324.5 129.89999,324.5 129,324.5C128.10001,324.5 127.2,324.5 126.3,324.5C125.4,324.5 124.5,324.5 123.7,324.5C122.8,324.5 121.9,324.5 121,324.5C120.1,324.5 119.2,324.5 118.3,324.5C117.4,324.5 116.5,324.5 115.7,324.5C114.8,324.5 113.864,324.5 113.016,324.5C112.15266,324.5 111.136,324.5 110.3,324.5C109.4,324.5 108.5,324.5 107.7,324.5C106.8,324.5 105.89064,324.38821 104.97916,324.52084C103.98983,324.66479 103.31187,325.16119 102.3,325.37851C101.51167,325.54782 100.49945,325.48105 99.864,325.509C99.0105,325.54657 98.21597,325.66214 97.16666,325.83334C96.52847,325.93747 95.82782,326.06699 95.07867,326.20532C94.29714,326.34964 93.50009,326.50049 92.70267,326.64932C91.92142,326.79514 89.8342,327.17221 89.272,327.25699C88.35865,327.39471 87.66722,327.47916 86.5,327.5C85.71078,327.5141 84.98534,327.49933 84,327.5C83.01067,327.50067 82.17993,327.52252 81.64267,327.58533C80.24345,327.74893 79.842,327.85266 79,328C78.158,328.14734 77.00297,328.3624 76.0715,328.44284C75.11562,328.52539 74.3,328.5 73.5,328.5C72.5,328.5 71.52084,328.5 70.66666,328.5C69.74733,328.5 68.84734,328.5 68.15266,328.5C67.12534,328.5 66.17867,328.5 65.32533,328.5C64.38533,328.5 63.5,328.5 62.7,328.5C61.8,328.5 60.9,328.5 60,328.5C59.1,328.5 58.2,328.5 57.3,328.5C56.4,328.5 55.5,328.5 54.7,328.5C53.8,328.5 52.864,328.5 52.01467,328.5C51.28933,328.5 50.10133,328.5 49.336,328.5C48.384,328.5 47.616,328.5 46.664,328.5C45.89867,328.5 44.9,328.5 44.1,328.5C43.10133,328.5 42.336,328.5 41.25267,328.5C40.33333,328.5 39.67467,328.5 38.66667,328.5C37.8045,328.5 36.9,328.5 36,328.5C35.1,328.5 34.2,328.5 33.3,328.5C32.4,328.5 31.5,328.5 30.7,328.5C29.8,328.5 28.9,328.5 28,328.5C27.1,328.5 26.19346,328.39307 25.3,328.50134C24.38007,328.61282 23.77205,329.25809 22.84733,329.44284C22.16418,329.57935 21.136,329.5 20.2,329.5C19.3,329.5 18.4,329.5 17.5,329.5C16.7,329.5 15.8,329.5 14.9,329.5C14,329.5 13.05546,329.40454 12.3,329.784C11.43279,330.21957 10.7,330.49933 9.8,330.5C8.9,330.50067 8,330.5 7.1,330.5C6.2,330.5 5.3,330.5 4.4,330.5L3.5,330.5L2.7,330.5L1.8,330.5" id="svg_19" stroke-width="3" stroke="#000" fill="none"/>
  <path t="48284,48326,48338,48348,48354,48358,48366,48370,48381,48381,48383,48394,48406,48450,48454,48474,48490,48522,48538,48554,48596,48597,48627,48684,48692,48716,48724,48756,48772,48796,48812,48828,48844,48940,48940,48956,48965,48972,48977,48984,48984,48988,48993,48993,49000,49003,49005,49016,49028,49028,49037,49084,49100,49180,49185,49199,49202,49204,49209,49216,49231,49240,49244,49251,49269,49284,49308,49316,49320,49324,49328,49328,49336,49340,49352,49388,49444,49468,49468,49492,49504,49515,49520,49524,49532,49536,49544,49544,49677,49678,49752,49771,49772,49772,49795,49796,49809,49814,49814,49820" d="M266.5,334.5C264.79999,334.5 263.89999,334.5 263,334.5C262.10001,334.5 261.20001,334.5 260.29999,334.5C259.39999,334.5 258.46176,334.32645 257.70001,334.58533C256.81207,334.88708 256.10056,335.48199 255.2,335.5C254.30019,335.51801 253.26784,335.25574 252.584,335.784C251.95651,336.26871 251.2,336.5 250.3,336.5C249.39999,336.5 248.5,336.5 247.7,336.5C246.8,336.5 245.82805,336.17188 245.02083,336.52084C244.30685,336.8295 243.95717,337.72562 243.27867,338.37866C242.6992,338.9364 242.06456,339.48199 241.2,339.5C240.3002,339.51874 239.39999,339.5 238.5,339.5C237.7,339.5 236.8,339.5 235.89999,339.5C235,339.5 234.03383,339.36472 233.3,339.78534C232.61343,340.17889 232.02544,341.02643 231.3,341.69867C230.71954,342.23657 229.87999,342.3295 229,342.52084C228.15369,342.70486 227.40611,343.43912 226.5,343.5C225.7018,343.55362 224.6543,343.94958 223.85716,343.44284C223.23506,343.04736 223.94119,341.77438 223.464,340.936C223.0704,340.24451 222.09921,340.29977 221.416,339.784C220.80064,339.31946 219.8,339.5 218.89999,339.5C218,339.5 217.15645,339.43304 216.47467,338.92532C215.83386,338.44812 214.89999,338.5 214,338.5C213.10001,338.5 212.19527,338.59085 211.3,338.49866C210.4874,338.41498 209.8474,337.69983 209,337.52084C208.1192,337.33481 207.2,337.5 206.3,337.5C205.39999,337.5 204.5,337.5 203.7,337.5C202.8,337.5 201.89999,337.5 201,337.5C200.10001,337.5 199.2,337.5 198.3,337.5C197.39999,337.5 196.5,337.5 195.61467,337.5C194.67467,337.5 193.97844,337.41327 192.97917,337.52084C191.94383,337.63229 191.25333,337.93918 190.50534,338.14734C189.47581,338.43384 188.70267,338.49866 187.74283,338.5L186.84734,338.5L185.98399,338.5L185.02083,338.5" id="svg_20" stroke-width="3" stroke="#000" fill="none"/>
  <path t="50456,50566,50574,50582,50590,50595,50601,50601,50614,50626,50639,50658,50674,50686,50703,50718,50718,50726,50749,50773,50789,50794,50798,50798,50806,50806,50810,50815,50818,50821,50826,50834,50917,50926,50926,50942,50953,50962,50980,51013,51030,51053,51065,51074,51078,51101,51117,51125,51126,51134,51142,51147,51150,51150,51158,51158,51166,51174,51190,51278,51293,51309,51321,51338,51362,51382" d="M123.5,339.5C121.8,339.55716 121.07764,340.18619 120.2,340.44284C119.33444,340.69595 118.4,340.5 117.5,340.5C116.7,340.5 115.8,340.5 114.9,340.5C114,340.5 113.1,340.5 112.2,340.5C111.3,340.5 110.4,340.5 109.5,340.5C108.7,340.5 107.8,340.5 106.9,340.5C106,340.5 105.1,340.5 104.1955,340.5C103.33334,340.5 102.45306,340.36099 101.5215,340.72134C100.74366,341.02225 99.9679,341.43469 99.2,341.85266C98.35919,342.31033 97.89135,343.00781 97.14283,343.44284C96.41245,343.86731 95.4,343.5 94.5,343.5C93.7,343.5 92.8,343.5 91.9,343.5C91,343.5 90.0576,343.76785 89.2045,343.49551C88.38398,343.23358 87.88938,342.50534 87,342.5C86.10001,342.4946 85.2,342.5 84.3,342.5C83.4,342.5 82.46356,342.66815 81.7,342.41467C80.92783,342.15833 80.09618,341.58521 79.29867,341.49866C78.325,341.39301 77.70744,340.98181 76.66666,340.66666C75.92787,340.44293 75,340.50226 74.1,340.5C73.20449,340.49774 72.69351,339.82864 71.97916,339.52084C71.07971,339.1333 70.1,339.5 69.2,339.5L68.3,339.5L67.4,339.5" id="svg_21" stroke-width="3" stroke="#000" fill="none"/>
  <path t="53034,53090,53107,53111,53117,53122,53134,53143,53143,53150,53150,53154,53165,53165,53167,53167,53174,53186,53202,53216,53222,53223,53290,53306,53322,53338,53338,53342,53350,53354,53358,53358,53366,53370,53370,53374,53378,53383,53383,53386,53394,53394,53402,53402,53418,53474,53486,53486,53490,53498,53510,53515,53526,53562,53578,53586,53586,53590,53590,53595,53595,53600,53603,53607,53608,53610,53626,53690,53709,53714,53714,53722,53722,53722,53726,53734,53738,53741,53741,53743,53746,53754,53777,53833,53841,53848,53848,53850,53851,53854,53858,53858,53866,53870,53901,53929,53930,53938,53949,53958,53965,53965,53974,53994,54003,54018,54034,54038,54050,54058,54066,54071,54074,54074,54078,54084,54086,54090,54095,54101,54101,54106,54110,54179,54180" d="M275.5,348.5C273.66666,348.66666 273.18884,349.26358 272.55267,349.85266C271.97708,350.38565 271.55365,351.04889 271.07468,351.89999C270.66559,352.62689 270.43942,353.3942 270.07468,354.32535C269.80139,355.02304 269.56171,356.0192 269.2785,356.82132C269.03156,357.52078 268.34485,358.44016 267.936,359.08932C267.45679,359.85025 266.94922,360.44019 266.20001,360.85266C265.36136,361.31439 264.4996,361.52536 263.70001,361.5C262.79861,361.47141 261.93622,361.02411 261.55267,360.20001C261.19583,359.43329 260.86081,358.72714 260.10001,358.11066C259.35641,357.50812 258.39926,357.53665 257.5,357.5C256.79825,357.47141 256.02832,356.87079 255.17867,356.62149C254.35298,356.37921 253.38533,356.5 252.39999,356.5C251.5,356.5 250.7,356.5 249.864,356.5C249.01466,356.5 248.0955,356.5 247.10133,356.5C246.336,356.5 245.38533,356.5 244.39999,356.5C243.5,356.5 242.7,356.5 241.8,356.5C240.89999,356.5 240,356.5 239.10001,356.5C238.2,356.5 237.3,356.5 236.39999,356.5C235.5,356.5 234.71959,356.49512 233.84734,356.85718C233.13002,357.15494 232.45219,357.80197 231.70134,358.21466C230.85773,358.67831 230.00919,359.03052 229.39999,359.59982C228.80876,360.15234 227.90004,360.49466 227,360.5C226.10002,360.50534 225.1955,360.5 224.33333,360.5C223.47917,360.5 222.49875,360.53513 221.71066,360.48932C220.98273,360.44702 220.09639,359.81476 219.2,359.55716C218.33319,359.30807 217.44917,359.19913 216.8,358.85266C215.95062,358.39932 214.94225,358.80475 214.11067,358.48932C213.3815,358.21274 213.70557,356.75931 212.95833,356.54166C212.02385,356.26947 211.28938,357.05597 210.5215,357.60001C209.8774,358.05634 209.28325,358.92618 208.5,359.33334C207.75615,359.72003 206.91803,360.11298 206.10001,360.47467C205.31554,360.8215 204.51521,361.42642 203.8,361.49551C202.90361,361.58212 202.14964,360.98257 201.3,360.58401C200.43958,360.18039 199.65205,360.08838 198.936,359.47467C198.32506,358.95102 198.5054,357.89996 198.5,357C198.49466,356.1106 198.12419,355.36874 197.44733,354.85266C196.78969,354.35123 196.11285,354.18552 195.33333,353.66666C194.62587,353.19577 193.7,353.5 192.8,353.5C191.89999,353.5 190.96526,353.55292 190.2,353.14734C189.3541,352.69904 188.5,352.5 187.7,352.5C186.8,352.5 185.97917,352.5 185.01601,352.5L184.15266,352.5" id="svg_22" stroke-width="3" stroke="#000" fill="none"/>
  <path t="54748,54787,54798,54800,54803,54803,54807,54811,54811,54815,54816,54823,54823,54827,54827,54832,54839,54840,54903,54908,54913,54916,54919,54928,54928,54932,54939,54948,54948,54951,54964,55035,55051,55063,55083,55084,55128,55133,55156,55160,55165,55168,55168,55172,55172,55182,55184,55188,55196,55212,55212,55291" d="M126.5,358.5C124.7,358.5 123.9,358.5 122.97916,358.5C122.016,358.5 121.32533,358.5 120.25716,358.5C119.39983,358.5 118.61333,358.45914 117.664,358.51068C116.89616,358.55237 115.91262,358.8895 115.1,359.14734C114.11459,359.45999 113.33145,359.40771 112.38533,359.50134C111.48907,359.59003 110.84739,360.30017 110,360.47916C109.11919,360.66519 108.0509,360.32669 107.52533,360.936C106.91087,361.64838 106.50784,362.37729 105.7,362.49866C104.79143,362.63516 104.21806,363.25024 103.5,363.66666C102.77494,364.08713 102.42059,364.90042 101.85267,365.55267C101.23695,366.2598 100.47991,366.28662 100.50017,365.39999C100.52107,364.48495 101.6385,363.84018 101.45834,363.02084C101.27921,362.20618 100.33053,361.78439 99.5,361.5C98.66786,361.21506 98.21382,360.42398 97.47916,360.02084C96.56953,359.52167 95.8045,359.50226 94.9,359.5C94,359.49777 93.1,359.5 92.2,359.49551L91.3,359.216L90.7,358.784L89.8,358.50449" id="svg_23" stroke-width="3" stroke="#000" fill="none"/>
  <path t="55655,55741,55754,55762,55768,55770,55777,55813,55833,55846,55851,55858,55862,55868,55870,55878,55878,55901,55941,55965,55977,55989,55997,56001,56006,56013,56017,56037,56061,56129,56129,56134,56141,56142,56147,56153,56163,56221,56245,56245,56250,56258,56266,56275,56278,56294" d="M42.5,363.5C40.8,363.5 39.89995,363.49042 39,363.5C38.02066,363.51044 37.56339,364.27481 36.7955,364.49551C35.93483,364.74289 35,364.50226 34.1,364.5C33.20449,364.49774 32.70947,363.95547 32.14283,363.2045C31.638,362.53543 30.75482,362.29242 30.33333,361.5C29.9926,360.85941 29.81467,359.93896 29.48933,359.11066C29.20424,358.3848 28.1,358.5 27.2,358.5C26.3,358.5 25.39562,358.41132 24.5,358.5C23.6543,358.58374 23.21764,359.45728 22.3,359.5C21.40097,359.54184 20.5,359.5 19.7,359.5C18.864,359.5 17.84733,359.5 17.15267,359.5C16.136,359.5 15.2,359.5 14.3,359.5C13.4,359.5 12.5,359.5 11.7,359.5C10.8,359.5 9.9,359.5 9,359.5L8.1,359.5L7.2,359.5L6.3,359.5" id="svg_24" stroke-width="3" stroke="#000" fill="none"/>
  <path t="57378,57455,57463,57471,57480,57487,57491,57499,57503,57507,57507,57516,57519,57523,57527,57532,57543,57548,57551,57551,57560,57565,57571,57580,57591,57603,57615,57620,57620,57627,57636,57644,57650,57655,57659,57664,57667,57667,57671,57675,57680,57687,57698,57700,57714,57719,57719,57723,57724,57731,57731,57733,57738,57738,57740,57740,57743,57750,57750,57752,57755,57761,57761,57768,57768,57772,57772,57777,57779,57783,57788,57793,57797,57797,57799,57804,57804,57809,57811,57815,57815,57821,57821,57821,57823,57828,57828,57833,57833,57838,57838,57839,57841,57841,57843,57843,57849,57849,57849,57854,57854,57856,57856,57859,57859,57859,57865,57865,57867,57867,57868,57872,57877,57879,57884,57889,57895,57900,57900,57907,57913,57913,57923,57928,57929,57937,57944,57944,57949,57949,57949,57952,57958,57959,57960,57964,57965,57968,57974,57974,57976,57981,57981,57984,57987,57987,58044,58044,58044,58111,58111,58111,58111,58111,58111,58112,58112,58112,58151,58151,58151,58151,58151,58152,58163,58167,58167,58175,58176,58183,58183,58187,58191,58191,58195,58200,58204" d="M7.5,385.5C9.3,385.5 10.2,385.5 11.1,385.5C12,385.5 12.9,385.5 13.8,385.5C14.7,385.5 15.6,385.5 16.5,385.5C17.3,385.5 18.2,385.5 19.1,385.5C20,385.5 20.9,385.5 21.8,385.5C22.7,385.5 23.6,385.5 24.5,385.5C25.3,385.5 26.2,385.5 27.1,385.5C28,385.5 28.9,385.5 29.8,385.5C30.7,385.5 31.6,385.5 32.5,385.5C33.3,385.5 34.2,385.5 35.1,385.5C36,385.5 36.9,385.5 37.8,385.5C38.7,385.5 39.6,385.5 40.5,385.5C41.3,385.5 42.2,385.5 43.1,385.5C44,385.5 44.9,385.5 45.8,385.5C46.7,385.5 47.6,385.5 48.5,385.5C49.25717,385.5 50.15717,385.5 50.9045,385.5C51.89867,385.5 52.84283,385.5 53.74733,385.5C54.66667,385.5 55.5,385.5 56.4785,385.5C57.29867,385.5 58.136,385.5 58.984,385.5C59.84733,385.5 60.864,385.5 61.70133,385.5C62.66667,385.5 63.5,385.5 64.47867,385.5C65.25267,385.5 66.15266,385.5 67.016,385.5C67.97916,385.5 68.9,385.5 69.8,385.5C70.7,385.5 71.6,385.5 72.5,385.5C73.3,385.5 74.136,385.5 74.984,385.5C75.84734,385.5 76.864,385.5 77.70133,385.5C78.66666,385.5 79.52084,385.5 80.5,385.5C81.28934,385.5 82.01466,385.5 83,385.5C83.98534,385.5 84.71066,385.5 85.7,385.5C86.5,385.5 87.5,385.5 88.3,385.5C89.1,385.5 90.1,385.5 90.9,385.5C91.90134,385.5 92.736,385.5 93.66666,385.5C94.44817,385.5 95.49017,385.5 96.35717,385.5C97.24817,385.5 98.16167,385.5 98.96167,385.5C99.92133,385.5 100.72533,385.5 101.54733,385.5C102.5785,385.5 103.47916,385.5 104.5,385.5C105.28934,385.5 106.01466,385.5 107.08933,385.5C108,385.5 108.9,385.5 109.8,385.5C110.7,385.5 111.6,385.5 112.5,385.5C113.3,385.5 114.136,385.5 114.984,385.5C115.84734,385.5 116.87466,385.5 117.82133,385.5C118.5,385.5 119.4785,385.5 120.5,385.5C121.172,385.5 122.268,385.5 123,385.5C123.732,385.5 124.828,385.5 125.70133,385.5C126.66666,385.5 127.5,385.5 128.4785,385.5C129.29866,385.5 130.136,385.5 130.98399,385.5C131.84734,385.5 132.87466,385.5 133.82133,385.5C134.5,385.5 135.4785,385.5 136.5,385.5C137.25717,385.5 138.20667,385.5 138.75,385.5C139.53334,385.5 141.33333,385.5 142.13451,385.5C143.02266,385.5 143.97484,385.5 144.968,385.5C145.97917,385.5 146.98534,385.5 147.9635,385.5C148.89067,385.5 150.5,385.5 151.142,385.5C151.67599,385.5 152.114,385.5 152.468,385.5C153.284,385.5 154.136,385.5 154.98534,385.5C155.9045,385.5 156.89867,385.5 157.664,385.5C158.616,385.5 159.384,385.5 160.32533,385.5C161.33333,385.5 162.1955,385.5 163.10001,385.5L164,385.5L164.89999,385.5" id="svg_25" stroke-width="3" stroke="#000" fill="none"/>
  <path t="66477,66588,66588,66592,66604,66607,66607,66610,66613,66620,66622,66622,66624,66631,66633,66636,66636,66640,66648,66649,66652,66652,66660,66660,66667,66673,66681,66699,66715,66716,66722,66731,66739,66744,66749,66756,66760,66765,66773,66777,66783,66787,66788,66790,66792,66799,66804,66814,66816,66820,66820,66832,66847,66852,66856,66865,66865,66868,66876,66883,66888,66892,66892,66900,66908,66917,66931,66940,66948,66948,66956,66960,66968,66972,66981,66988,66997,67014,67014,67059,67076,67081,67081,67093,67108,67148,67160,67161,67168,67172,67172,67181,67184,67188,67189,67192,67200,67364,67372,67382,67384,67384,67388,67400,67640,67648" d="M176.5,380.5C177.5,381.5 178.3,381.5 179.2,381.5C180.02083,381.5 180.98399,381.5 181.84734,381.5C182.74283,381.5 183.7,381.5 184.60001,381.5C185.5,381.5 186.3,381.5 187.2,381.5C188.10001,381.5 189.02083,381.5 189.82133,381.5C190.67467,381.5 191.61467,381.5 192.60017,381.5C193.38533,381.5 194.336,381.5 195.10133,381.5C196.0955,381.5 196.84283,381.5 197.864,381.5C198.8,381.5 199.7,381.5 200.60001,381.5C201.5,381.5 202.3,381.5 203.2,381.5C204.10001,381.5 205.05197,381.21094 205.88933,381.51068C206.62607,381.77441 207.11063,382.49466 208,382.5C208.89998,382.5054 209.8,382.5 210.7,382.5C211.60001,382.5 212.5,382.5 213.3,382.5C214.2,382.5 215.10001,382.5 216,382.5C216.89999,382.5 217.80653,382.39304 218.7,382.50134C219.61977,382.61282 220.15408,383.30984 221.10001,383.48932C221.98428,383.65707 222.94453,383.40454 223.7,383.784C224.56721,384.21957 225.3002,384.48132 226.2,384.5C227.10052,384.51868 227.81207,385.11292 228.7,385.41467C229.46175,385.67355 230.33444,385.30405 231.2,385.55716C232.07764,385.81381 232.79865,386.47141 233.7,386.5C234.59955,386.52853 235.5,386.5 236.3,386.5C237.2,386.5 238.10001,386.5 239,386.5C239.89999,386.5 240.8,386.5 241.7,386.5C242.60001,386.5 243.5,386.5 244.3,386.5C245.2,386.5 246.136,386.5 246.98399,386.5C247.84734,386.5 248.864,386.5 249.7,386.5C250.60001,386.5 251.5,386.5 252.3,386.5C253.25717,386.5 254.1662,386.58914 254.84734,386.44284C255.9045,386.21579 256.59387,385.56088 257.5,385.5C258.29819,385.44638 259.20001,385.5 260.10001,385.5C261,385.5 261.91049,385.63272 262.79999,385.49551C263.73138,385.35184 264.29999,384.784 265.20001,384.50449L266.10001,384.5L267,384.5L267.89999,384.5" id="svg_27" stroke-width="3" stroke="#000" fill="none"/>
 </g>
</svg>