<svg width="278.25" height="420" xmlns="http://www.w3.org/2000/svg" xmlns:svg="http://www.w3.org/2000/svg" xmlns:xlink="http://www.w3.org/1999/xlink">
 <!-- Created with SVG-edit - http://svg-edit.googlecode.com/ -->
 <g display="inline" class="layer">
  <title>Layer 1</title>
  <path t="0,157,180,204,204,228,228,268,308,340,388,388,444,484,524,524,556,612,612,644,644,668,680,716,716,732,772,772,796,796,828,884,884,916,916,940,948,948,964,1046,1068,1068,1068,1084,1084,1092,1116,1132,1148,1180,1188,1198,1228,1228,1248,1264,1281,1284,1300,1316,1332,1332,1364,1381,1381,1399,1399,1414,1436,1448,1465,1465,1484,1492,1500,1516,1532,1540,1540,1556,1580,1598,1620,1620,1636,1648,1648,1664,1681,1708,1716,1716,1748,1772,1812,1868,1868,1892,1892,1924,1956,1956,1988,1988,1988,2004,2004,2020,2031,2031,2036,2036,2048,2062,2062,2069,2081,2116,2140,2156,2188,2220,2220,2232,2232,2236,2247,2265,2269,2269,2281,2293,2293,2303,2308,2324,2340,2356,2380,2398,2414,2414,2444,2452,2465,2492,2500,2515,2516,2532,2532,2540,2548,2565,2572,2572,2582,2588,2643,2643,2692,2692,2692,2692,2756,2764,2772,2787,2798,2798,2815,2836,2836,2852,2876,2892,2909,2909,2972,2972,2988,2988,3012,3068,3084" d="M134.125,48C134.18216,49.7 134.62279,50.52317 135.32634,51.2C135.86513,51.71832 136.67975,52.09899 137.41516,52.7C138.14799,53.2989 138.63455,53.8395 139.425,54.35717C140.22006,54.87785 140.59991,55.65316 141.09967,56.38933C141.56862,57.08011 142.28136,57.60058 142.72501,58.14933C143.3658,58.94194 144.17609,59.30887 144.88217,59.64734C145.73251,60.05495 146.66112,59.82382 147.60417,60.02083C148.47249,60.20223 149.04837,61.09468 149.72501,61.564C150.46779,62.0792 151.44633,62 152.29967,62C153.241,62 154.009,62 154.95033,62C155.95833,62 156.75034,62 157.60899,62C158.47234,62 159.37241,61.98822 160.29167,62C161.10437,62.01042 161.82503,62.61488 162.58234,62.964C163.37854,63.33105 164.37567,63 165.11966,63C166.15433,63 166.92233,63 167.825,63C168.72501,63 169.625,63 170.52499,63C171.425,63 172.325,63 173.22501,63C174.125,63 174.925,63 175.825,63C176.72501,63 177.625,63 178.52499,63C179.425,63 180.325,63 181.22517,63C182.01033,63 182.99257,63.16151 183.95833,62.83333C184.65575,62.59634 185.32692,61.80191 185.825,61.3C186.51701,60.60265 187.08229,59.80302 187.125,58.9C187.16753,58.001 187.23108,57.21188 187.625,56.5C188.11525,55.61403 188.125,54.7 188.125,53.8C188.125,52.9 188.15036,51.9996 188.125,51.2C188.09641,50.29864 187.60764,49.64961 187.209,48.8C186.8053,47.93957 186.42163,47.29887 185.72501,46.6C185.12598,45.99903 184.71948,45.30162 184.125,44.52083C183.62869,43.86899 182.70728,43.58228 182.125,43C181.54272,42.41772 181.1908,41.43684 180.51433,40.97467C179.78368,40.47548 178.88577,40.16816 178.23967,39.83067C177.41003,39.39731 177.03195,38.72078 176.01033,38.16933C175.17703,37.71954 174.47885,37.34018 173.58234,36.9C172.89211,36.56111 172.0929,36.37242 171.26801,35.9C170.50615,35.46368 170.03252,34.63488 169.125,34.16667C168.42444,33.80523 167.48329,33.62005 166.77766,33.35266C165.89453,33.01801 164.88635,32.89697 164.41034,32.19867C163.89955,31.44935 163.32347,31.01863 162.425,31C161.52448,30.98133 160.81468,30.38187 159.925,30.08533C159.06718,29.79941 158.23967,30 157.29967,30C156.60899,30 155.53566,30 154.625,30C153.8205,30 152.80367,30 152.125,30C151.1465,30 150.125,30 149.325,30C148.425,30 147.52499,30 146.625,30C145.72501,30 144.825,30 143.925,30C143.02499,30 142.125,30 141.325,30C140.425,30 139.52499,30 138.625,30C137.72501,30 136.92358,29.98794 135.95833,30C135.1248,30.01042 134.16443,30.25432 133.53566,30.57467C132.6478,31.02702 131.68047,30.90454 130.925,31.284C130.0578,31.71959 129.42471,31.97693 128.52499,32C127.62433,32.02309 126.94773,32.58976 126.453,33.22133C125.82301,34.02558 125.12415,34.59548 124.64584,34.97917C123.97831,35.51464 123.17909,36.35934 123.125,37.3C123.07333,38.19852 123.125,39.1 123.125,40C123.125,40.8 123.18501,41.75886 123.83033,42.3C124.50621,42.86677 125.04488,43.55639 125.73566,44.02533C126.47183,44.52509 127.19265,45.13729 127.761,45.6C128.56657,46.25584 129.3239,46.56298 130.1035,47.09983C130.73537,47.53495 131.60417,48 132.15033,48.57467L132.841,49.084" id="svg_1" stroke-width="3" stroke="#000" fill="none"/>
  <path t="3749,3876,3892,3900,3908,3923,3932,3940,3956,3964,3965,3981,4012,4036,4050,4076,4108,4108,4131,4132,4148,4156,4180,4180,4247,4254,4254,4268,4300,4324,4324,4340,4364,4412,4436,4436,4447,4468,4500,4540,4564,4564,4588,4612,4651,4652,4764,4781,4788,4798,4804,4815,4820,4831,4848,4848,4852,4865,4884,4892,4900,4924,4932,4940,4940,4956,5004,5037,5060,5084,5100,5100,5124,5164,5181,5181,5188,5188,5220,5220,5236,5247,5261,5261,5284,5324,5324,5492,5516,5516,5532,5589,5598,5627,6020,6020,6031,6031,6051,6067,6068,6084,6084,6115,6116,6147,6179,6244,6275,6308,6363,6381,6381,6428,6468,6491,6523" d="M139.125,37C140.925,37 141.825,37 142.72501,37C143.625,37 144.52499,37 145.425,37C146.325,37 147.22501,37 148.125,37C148.925,37 149.825,37 150.72501,37C151.625,37 152.52499,37 153.32634,37C154.29167,37 155.125,37 156.1035,37C156.92366,37 157.825,36.99943 158.64583,37C159.60767,37.00067 160.39436,37.08914 161.17566,37.57467C161.81882,37.97434 162.80507,37.83483 163.58333,38.52083C164.27341,39.12911 164.22801,40.23866 164.92633,40.71467C165.67564,41.22545 166.08606,41.76608 166.64583,42.5C167.23674,43.27475 168.07065,43.47083 168.76784,44.05267C169.35899,44.54601 169.68645,45.46862 170.07233,46.3C170.47708,47.17203 170.87172,47.86118 171.52499,48.38933C172.26982,48.9915 173.35361,49.10738 173.76784,49.7045C174.31514,50.49344 174.2435,51.71275 173.51433,51.98933C172.68275,52.30476 171.72501,52 170.825,52C169.925,52 169.02499,52 168.125,52C167.325,52 166.425,52 165.52499,52C164.625,52 163.72501,52 162.825,52C161.925,52 161.02499,52 160.125,52C159.325,52 158.425,52 157.52499,52C156.625,52 155.71449,52.13272 154.825,51.9955C153.89362,51.85182 153.2999,51.34468 152.425,50.94733C151.68982,50.61343 150.93845,50.03096 150.14583,49.5C149.43956,49.02688 148.99818,48.36562 148.125,47.83333C147.48766,47.44482 146.89203,46.60362 146.125,46.16667C145.34514,45.7224 144.98103,45.16851 144.27434,44.6C143.48515,43.96513 143.16707,43.23929 142.60417,42.5C142.09906,41.8366 141.41277,41.38478 140.52499,40.97467C139.71303,40.59957 138.89856,40.23252 138.02516,39.99967C137.24681,39.79216 136.99336,38.6266 137.69434,38.17067C138.36414,37.735 139.49966,38 140.4465,38C141.14583,38 142.125,38 142.91434,38C143.95833,38 144.8205,38 145.72501,38C146.625,38 147.52499,38 148.425,38C149.325,38 150.22501,38 151.125,38C151.925,38 152.825,38 153.72501,38L154.625,38L155.52499,38" id="svg_2" stroke-width="3" stroke="#000" fill="none"/>
  <path t="9076,9355,9366,9381,9388,9403,9419,9433,9453,9467,9467,9492,9499,9587,9611,9611,9643,9643,9683,9731,9732,9755,9779,9780,9819,9820,9859,9883,9907,9908,9915,9931,10034,10034,10067,10067,10068,10108,10108,10195,10251,10264,10283,10307,10379,10397,10415,10415,10435,10459,10459,10481,10579,10629,10629,10651,10683,10700,10715,10731,10740,10748,10811,10883,10915,10979,11019,11092,11195,11195,11227,11291,11507,11520,11638,11811,11955,12011,12067,12081,12081,12084,12155,12219,12291,12355,12387,12443,12523,12636,12683,12723,12723,12763,12827,12875,12892,12907,12908,12955,12971,12981,13019,13123,13158,13158,13224,13243,13267,13267,13283,13339,13379,13397,13419,13419,13451,13492,13539,13571,13619,13620,13643,13652,13667,13739,13755,13755,13779,13779,13811,13835,13867,13867,13868,13899,13908,14003,14004,14014,14187" d="M198.125,121C196.425,120.06167 195.67253,120.53761 195.17767,121.2955C194.72362,121.99091 194.11591,122.59861 193.4205,123.05267C192.6626,123.54753 192.39346,124.2856 191.9035,125.09983C191.46776,125.82396 190.46884,126.04448 190.07233,126.7045C189.58771,127.51117 188.98804,128.30188 188.64583,129C188.24728,129.81303 188.0318,130.58685 187.4205,131.10983C186.77814,131.65939 186.37546,132.55484 185.825,133.24283C185.18079,134.04799 184.625,134.5 183.925,135.2C183.325,135.8 182.67061,136.56261 181.925,136.916C181.06628,137.323 180.69333,137.8342 180.09967,138.564C179.57167,139.21307 178.71863,139.48381 178.069,139.80133C177.10559,140.27222 176.12794,140.4912 175.483,140.64284C174.39409,140.89888 173.55705,140.99466 172.625,141C171.72502,141.00514 170.7702,140.92122 170.15033,141.42534C169.53526,141.92555 168.92169,142.54318 168.02499,142.87849C167.17436,143.19658 166.2748,143.01346 165.625,143.52083C164.85698,144.12051 164.16103,144.44409 163.41034,145.084C162.74435,145.65169 162.16469,146.23032 161.425,146.64734C160.67998,147.06738 160.125,147.61061 160.125,148.5C160.125,149.38939 160.72748,149.63152 161.60417,150.02083C162.31506,150.33652 162.67001,151.25215 163.29433,151.716C163.99899,152.23956 164.89458,152.48404 165.561,152.97467C166.3186,153.53242 167.03996,153.9874 167.12367,154.8C167.21588,155.69527 167.125,156.60001 167.125,157.5C167.125,158.39999 167.12491,159.3 167.125,160.2C167.12509,161.09984 167.407,161.95728 168.22501,162C169.12378,162.04694 169.925,162 170.825,162C171.72501,162 172.625,161.99774 173.52499,162C174.42052,162.00226 175.0197,162.4756 175.47766,163.3C175.89001,164.0423 176.34023,164.9391 177.22501,165C178.12288,165.0618 178.92519,165.01799 179.825,165C180.72554,164.98199 181.69409,164.66449 182.00349,163.89999C182.34419,163.05817 182.125,162.2 182.125,161.3C182.125,160.39999 182.2821,159.48428 182.11433,158.60001C181.93488,157.65408 181.21004,157.0126 181.12633,156.2C181.03412,155.30473 181.09645,154.36348 181.12633,153.51733C181.15489,152.70842 181.75035,152.01241 182.52499,151.57466C183.34145,151.1133 184.22627,151.04779 185.125,151C185.92841,150.95728 186.51538,150.4221 187.09967,149.61067C187.57841,148.94583 188.35612,148.5235 189.22501,148.12134C189.88702,147.81493 190.59717,147.33348 191.09967,146.61067C191.56734,145.93799 192.3503,145.51064 193.22517,145.12134C193.96664,144.79141 195.02551,144.68019 195.55566,144.19867C196.28807,143.53345 196.59761,142.61531 197.125,141.83333C197.55588,141.19444 197.93376,140.49002 198.51433,139.636C199.01122,138.90508 199.29167,138 199.73567,137.436L200.60417,137L201.11433,136.38933" id="svg_3" stroke-width="3" stroke="#000" fill="none"/>
  <path t="16573,16764,16764,16805,16805,16835,16900,16900,16948,16948,16987,16987,17011,17084,17123,17124,17139,17195,17214,17232,17267,17283,17308,17323,17324,17339,17379,17403,17427,17451,17475,17475,17499,17508,17531,17563,17583,17583,17619,17635,17659,17691,17707,17715,17715,17747,17764,17772,17795,17835,17835,17849,17875,17892,17892,17915,17931,17931,17963,17971,17981,17981,17997,18014,18015,18035,18067,18083,18099,18139,18139,18155,18171,18195,18219,18267,18267,18299,18299,18299,18315,18339,18339,18355,18355,18379,18379,18398,18398,18426,18475,18475,18515,18515,18539,18571,18571,18587,18587,18611,18611,18632,18632,18651,18665,18667,18668,18683,18700,18708,18731,18739,18748,18764,18771,18772,18782,18827,18867,18867,18891,18908,18923,18947,18947,18956,19032,19043,19043,19065,19107,19115,19131,19131,19149,19155,19165,19181,19188,19198,19219,19232,19232,19235,19267,19291,19307,19347,19364,19381,19387,19388,19411,19419,19432,19451,19465,19467,19481,19483,19484,19492,19555,19565,19603,19635,19648,19649,19665,19683,19700,19715,19742,19750,19755,19756,19771,19782,19787,19803,19851,19867,19915,19947,19947,19971,20003,20107,20107,20123,20131,20132,20149,20150,20171,20171,20219,20395,20415,20415,20419,20420,20431,20449,20466,20476,21203,21215,21232,21259,21268,21268,21291,21307,21347,21387,21419,21451,21491,21492,21515,21539,21539,21555,21566,21566,21603,21643,21665,21665,21667,21707,21833,21833,21841,21841,21842,21842,21842,21852,21852,21852,21875,21875,21907,21947,21947,21979,21979,21987,22003,22035,22051,22051,22066,22066,22067,22083,22092,22107,22108,22116,22123,22190,22199,22199,22199,22215,22215,22235,22235,22249,22251,22252,22291,22300,22339,22491,22491,22539,22563,22563,22583,22603,22603,22643,22643,22651,22715,22763,22795,22795,22835,22835,22899,22899,22955,22971,22971,23019,23020,23043,23539,23540,23667,23907,23947,24003,24003,24091,24203,24219,24233,24233,24249,24250,24252,24267,24283,24283,24299,24299,24300,24323,24333,24349,24349,24366,24383,24399,24419,24459,24482,24555,24555,24571,24587,24603,24616,24633,24651,24675,24692,24692,24707,24763,24795,24817,24859,24882,24882,24915,24915,24923,24939,25091,25091,25092,25115,25115,25124,25139,25150,25187,25203,25227,25227,25259,25259,25260,25268,25268,25283,25283,25292,25300,25316,25316,25467,25467,25515,25515,25547,25547,25566,25566,25567,25587,25587,25599,25603,25619,25619,25659,25683,25683,25715,25715,25723,25747,25755,25771,25795,25803,25827,25827,25850,25866,25915,25971,25972,25972,26003,26107,26131,26150,26171,26171,26195,26195,26203,26235,26235,26251,26251,26275,26315,26347,26355,26446,26467,26483,26500,26500,26531,26555,26566,26619,26619,26633,26635,26659,26669,26669,26699,26699,26727,26747,26748,26767,26768,26788,26808,26808,26809,26829,26829,26829,26849,26849,26850,26850,26850,26852,26852,26852,26872,26893,26914,26914,26942,26959,26960,26997,27079,27079,27099,27099,27099,27100,27171,27172,27235,27235,27259,27299,27339,27355,27355,27366,27411,27433,27435,27483,27507,27508,27523,27555,27579,27587,27619,27635,27651,27667,27667,27676,27676,27691,27701,27701,27731,27771,27771,27835,27835,27875,27876,27915,27947,27947,27987,27987,28003,28027,28027,28067,28067,28083,28099,28100,28117,28117,28123,28147,28187,28235,28235,28299,28387,28387,28388,28403,28427,28459,28459,28507,28508,28555,28555,28603,28603,28604,28619,28651,28667,28699,28731,28755,28779,28779,28811,28836,28851,28899,28900,28908,28908,28918,28939,28955,28979,29051,29067,29067,29131,29179,29199,29363,29383,29400,29427,29427,29435,29436,29450,29468,29491,29492,29492,29502,29517,29517,29579,29580,29691,29747,29779,29803,29859,29995,30019,30043,30067,30139,30155,30179,30179,30347,30387,30403,30403,30419,30419,30443,30467,30483,30507,30508,30517,30518,30523,30547,30567,30567,30583,30587,30601,30763,30947,30966,30967,30995,31004,31035,31050,31075,31171,31171,31254,31255,31275,31275,31292,31307,31323,31363,31411,31579,31580,31611,31611,31636,31636,31650,31670,31685,31685,31692,31731,31795,31867,31899,31917,31939,31939,31963,31984,32043,32075,32075,32101,32117,32139,32155,32168,32211,32211,32235,32251,32268,32292,32305,32309,32323,32334,32335,32355,32371,32395,32403,32418,32420,32459,32460,32507,32523,32571,32603,32603,32627,32627,32651,32667,32684,32685,32723,32724,33035,33036,33051,33051,33093,33094,33105,33105,33109,33110,33131,33195,33235,33277,33277,33299,33300,33300,33332,33346,33371,33372,33385,33403,33443,33467,33499,33547,33579,33643,33644,33683,33692,33702,33708,33723,33735,33735,33754,33771,33811,33867,33867,33899,33955,34003,34019,34019,34035,34035,34051,34052,34069,34085,34085,34092,34115,34115,34123,34147,34147,34168,34193,34211,34212,34307,34323,34324,34339,34355,34387,34388,34451,34549,34549,34587,34588,34651,34652,34755" d="M190.125,148C189.125,149 189.125,149.75717 189.125,150.65266C189.125,151.51601 189.10785,152.50018 189.12517,153.32133C189.14317,154.17523 189.33354,155.18852 189.88667,155.6955C190.67767,156.42049 191.67387,156.53218 192.05299,157.39999C192.4146,158.22771 192.51108,159.13835 192.841,159.8C193.26155,160.64336 193.125,161.60001 193.125,162.5C193.125,163.39999 193.125,164.3 193.125,165.2C193.125,166.10001 193.125,167 193.125,167.8C193.125,168.7 193.125,169.60001 193.125,170.5C193.125,171.39999 192.99333,172.35007 193.34633,173.10001C193.71136,173.87553 194.11433,174.60001 194.125,175.5C194.13567,176.39999 194.62549,177.21881 194.95833,178C195.27853,178.75154 195.125,179.7 195.125,180.60001C195.125,181.5 194.99228,182.41051 195.1295,183.3C195.27318,184.23138 195.7737,184.82814 196.17767,185.7C196.56302,186.53163 197.00552,187.30623 197.12633,188.2C197.23575,189.00955 197.92017,189.65367 198.10417,190.5C198.2955,191.37999 198.47513,192.30635 198.92633,192.8C199.59389,193.53036 199.88441,194.35184 200.15033,195.13867C200.43823,195.99059 201.44908,196.33189 202.125,197C202.71065,197.57889 202.96886,198.46405 203.41034,199.2C203.81743,199.87862 204.79958,200.41512 205.06784,201.3C205.32947,202.16302 205.125,203.10001 205.125,204C205.125,204.8 205.125,205.7 205.125,206.60001C205.125,207.5 205.04437,208.32646 205.34633,209.3215C205.56493,210.04187 206.00443,210.99374 206.089,211.78934C206.16577,212.51143 206.06952,213.52249 206.3465,214.32133C206.65375,215.20747 207.30333,215.929 207.689,216.62534C208.13863,217.43715 208.09068,218.38116 208.47766,219.24733C208.77669,219.91663 209.10699,220.82484 209.125,221.83333C209.13913,222.62521 209.125,223.48399 209.125,224.34734C209.125,225.24733 209.125,226.16667 209.125,227C209.125,227.97867 209.09544,228.7533 209.1295,229.65717C209.15771,230.40582 209.41646,231.39587 209.69966,232.164C210.04892,233.11131 210.125,234.10001 210.125,235C210.125,235.8 210.125,236.7 210.125,237.60001C210.125,238.5 210.125,239.39999 210.125,240.3C210.125,241.2 210.125,242.10001 210.125,243C210.125,243.8 210.125,244.7 210.125,245.52083C210.125,246.48399 210.125,247.34734 210.125,248.24283C210.125,249.2 210.125,250.10001 210.125,251C210.125,251.8 210.125,252.7 210.125,253.52083C210.125,254.48399 210.125,255.34734 210.125,256.24283C210.125,257.20001 210.125,258.10001 210.125,259C210.125,259.79999 210.125,260.70001 210.125,261.60001C210.125,262.5 210.125,263.39999 210.125,264.29999C210.125,265.20001 210.125,266.10001 210.125,267C210.125,267.79999 210.125,268.70001 210.125,269.60001C210.125,270.5 210.125,271.39999 210.125,272.29999C210.125,273.20001 210.125,274.10001 210.125,275C210.125,275.79999 210.125,276.70001 210.125,277.60001C210.125,278.5 210.125,279.39999 210.125,280.29999C210.125,281.20001 210.125,282.10001 210.125,283C210.125,283.79999 210.125,284.70001 210.125,285.60001C210.125,286.5 210.02953,287.44455 210.409,288.20001C210.84457,289.0672 211.12274,289.70001 211.125,290.60001C211.12724,291.5 211.125,292.39999 211.125,293.29999C211.125,294.20001 211.125,295.10001 211.125,296C211.125,296.79999 211.125,297.70001 211.125,298.60001C211.125,299.5 211.125,300.39999 211.125,301.29999C211.125,302.20001 211.125,303.10001 211.125,304C211.125,304.79999 211.08752,305.76294 211.64583,306.5C212.23416,307.2767 212.91631,307.73914 213.761,308.02533C214.60106,308.30994 215.3149,308.58694 216.241,309.19867C216.88873,309.62653 217.77623,309.96762 218.47234,309.99551C219.48819,310.03622 220.44934,309.92151 221.29167,310.16666C222.15344,310.41748 222.9472,310.91193 223.8205,310.99551C224.7209,311.08173 225.625,311 226.52499,311C227.425,311 228.57776,311.33105 229.03967,310.71466C229.59056,309.97952 229.125,308.89999 229.125,308C229.125,307.20001 229.48816,306.20309 229.089,305.436C228.69386,304.67661 228.14293,304.19849 228.125,303.29999C228.10631,302.36349 227.8179,301.52527 227.55034,300.82535C227.14688,299.76999 227.125,298.89984 227.125,298.11465C227.125,297.17465 227.3968,296.09854 227.089,295.44666C226.73602,294.6991 226.17517,294.13803 226.125,293.16666C226.08043,292.30377 225.4386,291.5777 225.18216,290.70001C224.92737,289.828 225.125,289.01416 225.125,288.16666C225.125,287.37866 225.125,286.46268 225.125,285.49066C225.125,285.00616 225.125,283.66666 225.125,282.63318C225.125,281.87866 225.125,280.884 225.125,280.116C225.125,279.17465 225.125,278.16666 225.125,277.37466C225.125,276.51599 225.125,275.65268 225.125,274.75717C225.125,273.79999 225.125,272.89999 225.125,272C225.125,271.24283 225.11566,270.34726 225.125,269.48401C225.13542,268.52066 225.66818,267.79672 226.00349,266.89999C226.32158,266.04935 226.125,265.20001 226.125,264.29999C226.125,263.39999 226.11971,262.57864 226.125,261.66666C226.13034,260.74927 226.024,259.95734 226.41034,258.96933C226.71295,258.19543 227.36913,257.53818 227.689,256.82535C228.09976,255.90999 227.97849,254.86595 228.21033,254.2C228.51865,253.31435 229.13936,252.64168 229.625,251.97917C230.10924,251.31859 230.12433,250.48267 230.125,249.5C230.12567,248.51601 230.125,247.82533 230.125,246.75267C230.125,245.83333 230.125,245 230.125,244.0215C230.125,243.3045 230.12665,242.38055 229.69966,241.60001C229.24904,240.77628 229.125,239.83333 229.125,239C229.125,238.16667 229.125,237.24733 229.125,236.34734C229.125,235.65266 229.125,234.62534 229.125,233.67867C229.125,232.82533 229.125,231.884 229.125,231.116C229.125,230.17467 228.77873,229.06062 229.18216,228.36166C229.57979,227.67276 230.34023,227.0609 231.22501,227C232.12288,226.9382 232.9252,226.98126 233.825,227C234.68956,227.01801 235.12274,227.76166 235.125,228.65717C235.12688,229.4045 235.125,230.39867 235.125,231.164C235.125,232.24283 235.32712,233.16232 234.95833,234C234.63727,234.72926 233.79196,235.30998 233.31033,235.82533C232.67842,236.50148 232.28227,237.37491 232.1205,238.3C231.97772,239.11649 231.27914,239.76686 231.13567,240.60001C230.98291,241.487 231.125,242.39999 231.125,243.3C231.125,244.2 231.125,245.10001 231.125,246C231.125,246.8 231.13541,247.70006 231.125,248.60001C231.11458,249.50018 230.72864,250.44826 230.02516,250.87866C229.24834,251.35394 229.125,252.10001 229.125,253C229.125,253.8 229.125,254.7 229.125,255.60001C229.125,256.5 229.03099,257.44708 229.47766,258.29999C229.87161,259.05222 230.12274,259.75717 230.125,260.65268C230.12717,261.51599 229.93555,262.50308 230.14633,263.41068C230.37334,264.38812 230.97888,264.83249 231.64233,265.51599C232.35541,266.25061 232.95595,266.76999 233.1205,267.70001C233.27118,268.55173 233.97194,268.59198 234.689,269.07199C235.42839,269.56696 235.27217,270.84375 235.64583,271.52084C236.10158,272.34671 236.40991,273.0116 236.72501,273.74933C237.20235,274.86694 237.64197,275.44272 238.32367,276.20001C238.8531,276.78815 239.04092,277.66641 239.561,278.39999C240.11908,279.18719 240.74081,279.62955 241.60767,280.20001C242.2495,280.62238 242.90489,281.22949 243.293,281.88535C243.77325,282.69693 244.34857,283.18118 245.10367,284.19968C245.52142,284.76315 245.93262,285.59415 246.77766,285.88568C247.6006,286.16959 248.67621,285.88159 249.425,286.35718C250.22723,286.86673 250.65958,287.74118 251.53566,287.96399C252.41895,288.18863 253.34833,287.8959 254.23967,288.284C254.98141,288.60693 255.72496,288.99466 256.625,289C257.52496,289.00534 258.42499,289 259.32501,289C260.22501,289 261.125,289 261.92499,289C262.82501,289 263.75385,289.1908 264.64584,288.95834C265.51215,288.73257 266.1658,288.0289 266.55566,287.48267C267.19299,286.58972 267.125,285.60001 267.125,284.70001C267.125,283.79999 267.21329,282.88513 267.03967,282.11465C266.86105,281.32196 266.43399,280.47598 266.15033,279.63599C265.86459,278.78986 265.31534,278.12003 264.82501,277.35184C264.41803,276.71423 263.70071,275.96539 263.09967,275.42532C262.46133,274.85175 262.00568,274.2193 261.55032,273.39999C261.11581,272.61823 260.71613,271.87268 260.29166,271C259.92496,270.24609 259.43945,269.57745 259.18216,268.70001C258.92838,267.83453 258.82416,266.94916 258.47766,266.29999C258.02432,265.45062 258.125,264.5 258.125,263.58932C258.125,262.67868 258.125,261.82535 258.125,260.884C258.125,260.116 258.125,259.17465 258.125,258.16666C258.125,257.37466 258.125,256.51599 258.125,255.65266C258.125,254.74817 258.125,253.66667 258.125,252.99017C258.125,252.21466 258.14862,251.16612 258.11432,250.20399C258.08679,249.43208 257.96402,248.4991 257.841,247.748C257.7059,246.92296 257.54144,246.07747 257.409,245.252C257.2348,244.16649 257.1442,243.3192 257.12634,242.48933C257.10315,241.4109 257.125,240.58934 257.125,239.67867C257.125,238.82533 257.125,237.88533 257.125,237C257.125,236.2 257.125,235.24283 257.125,234.33383C257.125,233.48117 257.125,232.66667 257.125,231.69467C257.125,231 257.125,230.30533 257.125,229.04317C257.125,228.0625 257.27454,227.14444 257.08899,226.41066C256.86853,225.5388 256.16772,224.80302 256.125,223.89999C256.08249,223.00101 256.125,222.2 256.125,221.3C256.125,220.39999 256.26706,219.487 256.11432,218.60001C255.97084,217.76686 255.21004,217.0126 255.12633,216.2C255.03412,215.30473 255.125,214.39999 255.125,213.5C255.125,212.60001 255.125,211.7 255.125,210.8C255.125,209.89999 255.125,209 255.125,208.24283C255.125,207.34734 255.125,206.48399 255.125,205.5C255.125,204.67867 255.125,203.82533 255.125,202.884C255.125,201.83333 255.125,201.17467 255.125,200.16667C255.125,199.37466 255.125,198.34734 255.125,197.65266C255.125,196.62534 255.125,195.67867 255.125,194.82533C255.125,193.884 255.125,193.116 255.125,192.17467C255.125,191.16667 255.125,190.37466 255.125,189.51601C255.125,188.65266 255.125,187.75267 255.125,186.83333C255.125,186 255.125,185.0215 255.125,184.20134C255.125,183.3 255.125,182.39999 255.125,181.47917C255.125,180.67867 255.19772,179.82242 255.12367,178.884C255.03999,177.8237 254.65361,177.19229 254.409,176.48399C254.08305,175.54022 254.19884,174.56555 253.9035,173.67867C253.66916,172.97491 253.12076,172.16983 252.625,171.5C252.01981,170.68231 251.61935,169.98203 251.125,169C250.82608,168.4062 250.34619,167.69034 250.161,166.636C250.01624,165.81184 250.37032,164.76701 249.841,164.084C249.35301,163.45432 248.71613,162.8727 248.29167,162C247.97083,161.34033 247.44009,160.57726 247.18216,159.7C246.92772,158.83464 246.78493,158.00887 246.125,157.5C245.36005,156.91016 245.14432,156.1998 245.125,155.3C245.10567,154.39948 244.50696,153.68965 244.21033,152.8C243.92436,151.94235 243.89105,151.04172 243.47766,150.3C243.05203,149.53632 242.58182,148.79669 242.24651,147.89999C241.92842,147.04936 242.39851,145.84233 243.00383,146.2215C243.76779,146.70004 244.32417,147.3114 244.882,148.10001C245.3094,148.70422 245.43465,149.47157 246.00366,150.22166C246.60074,151.00874 246.59134,151.80948 246.841,152.51601C247.18222,153.48164 247.37405,154.50229 247.73567,155.17467C248.18138,156.00339 248.87447,156.52588 249.10417,157.5C249.30841,158.36613 249.64565,158.98958 250.52499,159C251.42494,159.01067 252.325,159 253.22501,159C254.125,159 254.8049,158.71619 255.409,158.084C255.95937,157.50804 256.39285,156.78452 256.92633,156.2C257.58319,155.4803 258.15088,154.70131 258.12366,153.79866C258.10287,153.10985 257.66177,152.18942 257.409,151.48399C257.04385,150.46498 256.40857,149.98259 256.07233,149.23833C255.68468,148.38025 255.44861,147.63382 254.92633,146.88533C254.43605,146.18268 253.79494,145.54924 253.29167,144.83333C252.80295,144.13809 253.00732,143.2189 252.55034,142.39999C252.11913,141.62727 251.70911,140.91747 251.07233,140.35266C250.37088,139.73048 250.125,139 250.125,138.2C250.125,137.3 249.95784,136.57295 249.409,135.916C248.89211,135.29729 248.56602,134.50543 248.02499,133.67867C247.59364,133.01949 247.16063,132.13744 246.625,131.52083C245.96671,130.763 245.14397,130.56914 244.48216,129.94733C243.87807,129.37973 244.13541,128.29994 244.125,127.4C244.11458,126.49982 243.77757,125.68231 243.23833,125.11467C242.49158,124.32859 241.95572,123.81991 241.29167,123.16666C240.65097,122.53638 239.81877,122.11947 238.925,121.99866C238.11546,121.88924 237.47128,121.20502 236.625,121.02084C235.75546,120.83159 235.12294,120.39043 234.4205,119.94733C233.64859,119.46041 232.70076,119.28662 232.24634,118.55733C231.78645,117.8193 231.6496,116.89629 231.07233,116.35267C230.38974,115.70986 229.9044,115.03332 229.55034,114.4C229.06883,113.53873 229.125,112.6 229.125,111.7C229.125,110.8 229.125,109.9 229.125,109C229.125,108.2 229.125,107.3 229.125,106.4C229.125,105.5 229.125,104.6 229.125,103.7C229.125,102.8 229.125,101.9 229.125,101C229.125,100.2 229.125,99.3 229.125,98.4C229.125,97.5 229.12567,96.6 229.125,95.7C229.12433,94.8 228.88286,94.04623 228.47766,93.3C228.06436,92.53888 228.2067,91.59589 228.1205,90.6955C228.0369,89.82221 227.65187,88.9707 227.125,88.16666C226.68423,87.49403 226.34618,86.54321 225.689,86.02533C225.04082,85.51455 224.29213,85.1337 223.825,84.34283C223.39391,83.61299 223.04642,82.78879 222.625,82.02084C222.14885,81.15314 221.69606,80.39774 220.81599,80.05267C220.18698,79.80603 219.12132,79.64169 218.37567,79.42533C217.46031,79.15973 216.52591,79.17466 215.625,78.97916C214.77861,78.7955 214.03111,78.06088 213.125,78C212.45451,77.95495 211.35605,78.02107 210.625,77.97916C209.89137,77.93711 208.87115,77.41369 208.02499,77.1215C207.16658,76.82507 206.325,77 205.425,77C204.52499,77 203.625,77 202.72501,77C201.825,77 200.92123,76.91788 200.02499,77.00017C199.11356,77.08385 198.3754,77.54575 198.14583,78.5C197.93768,79.36521 197.67,80.04463 197.09967,80.57467C196.46628,81.1633 195.93329,81.79323 195.325,82.432C194.6624,83.1278 193.81378,83.38786 193.29167,84.16666C192.81844,84.87255 193.125,85.8 193.125,86.7C193.125,87.6 193.17619,88.54242 192.9035,89.32133C192.5936,90.20654 192.05252,91.00211 191.52499,91.58933C190.85837,92.3314 190.21252,92.7086 189.64583,93.52084C189.13396,94.25449 189.21631,95.17917 189.12367,96.11467C189.03493,97.01093 188.47137,97.56042 187.8295,98.3C187.2509,98.96669 187.12567,99.8 187.125,100.7C187.12431,101.636 187.01736,102.49804 187.18216,103.34734C187.36179,104.27306 188.03996,104.98739 188.12367,105.8C188.21588,106.69526 188.125,107.636 188.125,108.484C188.125,109.34734 188.05453,110.39507 188.29167,111.16666C188.55768,112.03218 189.125,112.83334 189.625,113.47916L190.22484,114.1L190.76784,114.7L191.11433,115.6" id="svg_4" stroke-width="3" stroke="#000" fill="none"/>
  <path t="38045,38171,38203,38203,38227,38251,38251,38267,38281,38281,38291,38292,38299,38315,38323,38331,38339,38348,38348,38387,38411,38435,39027,39171,39171,39211,39231,39248,39266,39282,39291,39395,39435,39435,39467,39467,39491,39539,39587,39587,39603,39619,39619,39619,39659,39659,39699,39715,39731,39749,39749,39771,39827,39827,39835,39848,39851,39871,39872,39884,39884,39892,39901,39923,39932,39932,39939,39939,39949,39949,39955,39965,39971,39971,40011,40031,40048,40123,40123" d="M197.125,94C196.12633,94.88667 196.125,95.82533 196.125,96.516C196.125,97.62534 196.125,98.484 196.125,99.34734C196.125,100.24733 196.125,101.16666 196.125,102C196.125,102.9785 196.125,103.79867 196.125,104.7C196.125,105.6 195.98291,106.51299 196.13567,107.4C196.27914,108.23314 196.7386,109.12111 197.209,109.71467C197.79433,110.45325 197.87968,111.23298 198.409,111.916C198.89697,112.54569 199.51108,113.13835 199.841,113.8C200.26155,114.64336 200.125,115.6 200.125,116.5C200.125,117.4 200.125,118.3 200.125,119.2C200.125,120.1 200.125,121 200.125,121.75716C200.125,122.65266 199.94948,123.536 200.14583,124.47916C200.32663,125.34762 201.22142,125.92216 201.689,126.6C202.20773,127.35201 202.125,128.33333 202.125,129.25067C202.125,129.99466 202.125,131.02933 202.125,131.79733C202.125,132.7 202.04764,133.66757 202.561,134.39999C203.11478,135.19008 203.72501,135.60001 204.425,136.3C205.125,137 205.86615,137.53378 206.089,138.39999C206.31343,139.27231 206.125,140.2 206.125,141.10017C206.125,141.88533 206.125,142.82533 206.125,143.51601C206.125,144.58934 206.125,145.5 206.125,146.41066C206.125,147.32133 206.06491,148.00169 206.12633,149.116C206.16885,149.88741 206.33521,150.7523 206.92633,151.43066C207.5574,152.15486 208.11362,152.68663 208.83034,153.3C209.37148,153.76311 210.08333,154.5 210.125,155.39999L210.125,156.3045L210.125,157.16667L210.125,158" id="svg_5" stroke-width="3" stroke="#000" fill="none"/>
  <path t="41661,41747,41771,41781,41811,41811,41843,41843,41883,41883,41915,41915,41947,41955,41971,41995,42027,42059,42059,42115,42131,42139,42155,42171,42171,42181,42203,42203,42216,42219,42219,42231,42291,42307,42323,42347,42355,42355,42365,42371,42395,42415,42435,42448,42453,42507,42507,42515,42515,42515,42523,42531,42548,42555,42571,42571,42587,42599,42603,42627,42648,42651,42651,42667,42691,42715,42723,42755,42771,42781,42798,42799,42803,42803,42815,42835,42851,42867,42907,42923,42923,42995,42995,43043,43043,43065,43083,43099,43139,43171,43235,43315,43355,43387,43403,43435,43451,43467,43483,43499,43499,43511,43531,43539,43555,43571,43587,43599,43627,43627" d="M194.125,90C196.17317,88.35717 196.93677,88.10073 197.761,87.964C198.63387,87.81919 199.31349,87.34048 200.32483,87.1215C201.09285,86.9552 202.10367,87 203.009,87C203.95033,87 204.64101,87 205.60417,87C206.52499,87 207.425,87 208.325,87C209.22501,87 210.125,87 210.925,87C211.825,87 212.72501,87 213.625,87C214.53566,87 215.47104,86.8327 216.26367,87.036C217.13931,87.2606 217.66504,88.25333 218.31033,88.564C219.20573,88.99509 220.08533,89.2303 220.825,89.64733C221.57002,90.06738 222.11913,90.62727 222.55034,91.4C223.00732,92.2189 223.125,93.1 223.125,94C223.125,94.8 223.125,95.7 223.125,96.6C223.125,97.5 223.125,98.4 223.125,99.3C223.125,100.2 223.125,101.1 223.125,102C223.125,102.81433 223.125,103.768 223.125,104.5C223.125,105.232 223.125,106.328 223.125,107.3C223.125,108.2 223.125,109.1 223.125,110C223.125,110.8 223.125,111.7 223.125,112.6C223.125,113.5 223.125,114.4 223.125,115.3045C223.125,116.16666 223.03114,117.00453 223.12517,117.97833C223.20888,118.84537 223.91769,119.23772 224.12517,120.09983C224.32735,120.93996 225.09641,121.35588 225.125,122.3045C225.15097,123.16628 225.125,124 225.125,124.9785C225.125,125.79867 225.125,126.7 225.125,127.6C225.125,128.5 225.12367,129.39999 225.125,130.3C225.12634,131.20134 225.26891,131.90459 225.83034,132.65717C226.25462,133.22591 226.86272,134.20563 227.10417,134.95833C227.38643,135.83823 228.10635,136.43546 228.125,137.3C228.14438,138.19846 228.49483,138.92578 229.09967,139.42534C229.75508,139.96666 230.83775,139.8815 231.11433,140.61067C231.42976,141.44225 231.125,142.39999 231.125,143.3C231.125,144.2 231.125,145.10001 231.125,146C231.125,146.8 231.125,147.7 231.125,148.60001C231.125,149.5 231.125,150.39999 231.125,151.3C231.125,152.2 231.12483,153.10001 230.95833,154L230.55034,154.636" id="svg_6" stroke-width="3" stroke="#000" fill="none"/>
  <path t="44700,44819,44835,44851,44875,44923,44947,44947,44971,45019,45019,45083,45093,45163,45163,45195,45216,45251,45275,45323,45332,45371,45411,45431,45451,45467,45467,45475,45499,45587,45598" d="M200.125,114C201.72501,114.57467 202.55016,115.05666 203.15033,115.57467C203.77905,116.11732 204.5173,116.4442 205.22501,117.09983C205.81863,117.64978 206.79774,117.98602 207.325,118.568C207.91722,119.22169 208.53551,119.84747 209.425,120.0045C210.24124,120.1486 210.89362,120.85182 211.825,120.9955C212.71449,121.13271 213.625,121.00226 214.52499,121C215.42052,120.99775 215.93472,120.47362 216.41034,119.80133C216.96236,119.02106 217.73778,118.65714 218.3465,118.12133C219.05432,117.49828 219.825,117.35267 220.72501,116.97467L221.51433,116.564L222.00349,115.9L222.125,115" id="svg_7" stroke-width="3" stroke="#000" fill="none"/>
  <polyline timestamps="46454,46666,46669" startTime="1501914390242" id="svg_8" points="201.125,104 202.92499999999998,104 203.72499999999997,103.964 " stroke-linecap="round" stroke-width="3" stroke="#000" fill="none"/>
  <polyline timestamps="47304,47491" startTime="1501914390242" id="svg_9" points="210.125,100 211.625,98.5 " stroke-linecap="round" stroke-width="3" stroke="#000" fill="none"/>
  <polyline timestamps="48069,48195,48243" startTime="1501914390242" id="svg_10" points="206.125,104 206.18216666666666,105.7 206.64583333333331,106.5 " stroke-linecap="round" stroke-width="3" stroke="#000" fill="none"/>
  <path t="48781,48919,48963,48963,48963" d="M209.125,116C210.29201,115.23833 210.97833,114.516 211.64583,114L212.12416,113.65266" id="svg_11" stroke-width="3" stroke="#000" fill="none"/>
  <path t="52268,52339,52348,52349,52355,52364,52364,52371,52382,52382,52387,52387,52403,52403,52414,52414,52431,52431,52431,52435,52435,52448,52448,52451,52451,52451,52465,52465,52467,52467,52467,52481,52481,52498,52498,52499,52500,52500,52500,52508,52531,52571,52592,52619,52651,52675,52693,52731,52731,52758,52776,52794,52813,52813,52823,52823,52856" d="M205.125,191C206.95033,191 207.95833,191 208.8205,191C209.64583,191 210.60899,191 211.47234,191C212.37233,191 213.29167,191 214.125,191C215.10367,191 215.87875,191.03973 216.77766,190.9955C217.64374,190.95288 218.49078,190.53072 219.09433,190.19867C220.10526,189.6425 220.91243,189.40549 221.44234,189.2C222.44374,188.81166 223.29344,188.35872 224.325,188.12134C225.11354,187.93988 226.13551,187.86372 226.72501,187.64284C227.54169,187.33682 228.52499,186.8 229.125,186.5C230.125,186 230.72502,185.70003 231.52499,185.3C232.32484,184.90002 233.13535,184.5498 233.95833,184C234.67552,183.52087 235.45071,182.82253 236.13034,182.35184C236.61964,182.01295 237.41299,181.67493 238.44234,181.06134C239.14488,180.64256 239.72748,180.36848 240.60417,179.97917C241.31506,179.66348 241.96495,179.12003 242.60417,178.47917C243.24611,177.83559 243.45113,176.96333 243.841,176.2C244.22554,175.44711 244.12492,174.5 244.125,173.58934C244.12509,172.67867 244.161,171.82533 244.409,170.88533L244.841,170.20134L245.15033,169.39999" id="svg_12" stroke-width="3" stroke="#000" fill="none"/>
  <path t="53677,53715,53723,53732,53732,53747,53764,53771,53795,53795,53803,53803,53814,53819,53819,53831,53835,53835,53851,53867,53883,53891,53908,53923,53923,53931,53931,53948,53948,53955,53971,53971,53981,53981,53987,53987,53999,54003,54019,54019,54031,54031,54035,54051,54075,54083,54084,54091,54107,54107,54115,54115,54123,54131,54131,54139,54163,54171,54171,54181,54187,54211,54220,54260,54284,54548,54572,54572" d="M209.125,228C210.925,228 211.761,228 212.60899,228C213.47234,228 214.489,228 215.425,228C216.325,228 217.125,228 218.01033,228C218.95033,228 219.64101,228 220.625,228C221.60899,228 222.30812,228.12971 223.36783,227.9955C224.245,227.8844 224.89186,227.15414 225.72501,227.01067C226.612,226.85791 227.55898,227.23988 228.4205,226.9955C229.19791,226.77498 229.87155,226.15619 230.47684,225.89017C231.46136,225.45747 231.79147,224.56181 232.60767,224.16933C233.36133,223.80692 234.0854,223.28925 234.83934,222.7C235.47092,222.20638 236.33621,221.92143 237.10417,221.5C237.97185,221.02385 238.52151,220.32632 239.425,220.05716C240.28935,219.79965 241.07274,219.73888 241.88217,219.35266C242.73067,218.9478 243.51385,218.86644 244.17317,218.35266C244.91571,217.77403 245.46921,217.20952 246.22501,216.7785C246.8941,216.39693 247.52499,215.60001 248.125,215C248.72501,214.39999 249.425,213.7 249.925,213.2C250.625,212.5 251.32692,211.80193 251.825,211.3C252.51701,210.60266 252.92499,209.75391 253.29167,209C253.66307,208.23639 253.95758,207.48277 254.13567,206.60001C254.32605,205.65622 254.71082,204.85089 255.29167,204.16667C255.85728,203.50041 256.125,202.89999 256.125,202L256.125,201.2" id="svg_13" stroke-width="3" stroke="#000" fill="none"/>
  <path t="57806,58003,58003,58020,58020,58043,58044,58052,58066,58099,58099,58163,58219,58299,58331,58379,58475,58539,58587,58587,58619,58675,58708,58731,58731,58788" d="M246.125,127C247.95833,127.16666 248.1936,127.8922 248.47766,128.65717C248.75731,129.41025 249.07317,130.39613 249.11433,131.164C249.1721,132.24133 249.125,133.10001 249.125,134C249.125,134.8 249.125,135.7 249.125,136.60001C249.125,137.5 249.125,138.39999 249.125,139.3C249.125,140.2 249.125,141.10001 249.125,142C249.125,142.8 248.7543,143.42894 248.24651,144.2215C247.76807,144.96825 248.125,146 248.03967,146.8L247.60417,147.52083" id="svg_14" stroke-width="3" stroke="#000" fill="none"/>
  <path t="63213,63299,63315,63331,63355,63387,63387,63403,63419,63419,63432,63448,63465,63465,63475,63491,63507" d="M190.125,129C191.825,129.05716 192.56966,129.54277 193.07233,130.2955C193.54048,130.99654 194.48808,131.14268 195.10417,131.52083C196.03156,132.09004 196.0878,133.00087 196.125,133.8C196.16771,134.71764 196.89867,135.27007 197.34633,136.10001C197.69566,136.74765 198.15033,137.564 198.77234,138.05267L199.12367,138.80133" id="svg_15" stroke-width="3" stroke="#000" fill="none"/>
  <path t="69091,69262,69267,69279,69291,69323,69323,69338,69339,69354,69378,69379,69397,69403,69403,69426,69447,69447,69463,69467,69482,69491,69498,69523,69538,69539,69562,69563,69571,69580,69596,69596,69613,69613,69619,69634,69635,69650,69651,69663,69667,69691,69691,69702,69751,69751,69778,69802,69813,69813,69819,69842,69864,69864,69880,69898,69899,69914,69915,69923,69938,69939,69954,69955,69964,69994,69995,70014,70030,70050,70051,70066,70091,70139,70160,70181,70221,70221,70241,70241,70242,70262,70282,70283,70303,70303,70323,70323,70342,70362,70363,70363,70391,70406,70407,70443,70463,70463,70463,70489,70489,70500,70500,70500,70508,70508,70523,70523,70546,70547,70547,70555,70564,70564,70580,70602,70618,70619,70634,70647,70664,70691,70691,70719,70729,70729,70771,70771,70810,70811,70850,70851,70851,70914,70915,70923,70923,70938,70996,71501,71522,71538,71570,71698,71699,71730,71739,71748,71764,71779,71787,71787,71819,71834,71850,71882,71898,71914,71954,71986,71987,72010,72011,72042,72052,72065,72082,72098,72107,72178,72179,72210,72219,72250,72271,72271,72287,72287,72298,72307,72327,72328,72346,72365,72450,72451,72522,72523,72523,72554,72570,72571,72586,72587,72587,72610,72632,72632,72651,72724,72725,72746,72747,72747,72778,72814,72819,72834,72835,72850,72865,72865,72867,72898,72899,72915,72915,72923,72931,72931,72932,72948,72955,72965,72965,73002,73026,73035,73059,73059,73075,73083,73106,73107,73138,73154,73155,73170,73171,73186,73198,73203,73218,73234,73235,73258,73267,73282,73282,73291,73291,73314,73347,73347,73370,73371,73371,73381,73387,73410,73411,73442,73466,73481,73498,73499,73515,73515,73546,73547,73555,73570,73610,73611,73634,73658,73740,73890,73899,73914,73915,73915,73923,73923,73931,73932,73948,73949,73949,73949,73955,73955,73965,73965,73971,73982,73998,74003,74015,74032,74048,74049,74066,74082,74083,74091,74106,74116,74123,74146,74147,74178,74179,74210,74234,74235,74248,74248,74265,74283,74292,74292,74364,74374,74374,74374,74385,74398,74434,74435,74466,74482,74498,74522,74538,74539,74554,74602,74618,74634,74666,74682,74698,74722,74723,74732,74739,74754,74770,74782,74782,74798,74815,74816,74819,74834,74848,74866,74867,74882,74882,74891,74891,74900,74907,74907,74916,74923,74932,74932,74948,74955,74955,74970,74971,74982,74982,74987,74999,75015,75019,75019,75032,75032,75035,75049,75051,75066,75067,75082,75091,75091,75101,75107,75107,75122,75132,75132,75149,75155,75155,75166,75171,75182,75182,75187,75199,75199,75203,75203,75216,75219,75233,75234,75249,75250,75266,75267,75268,75283,75299,75316,75316,75323,75332,75333,75339,75349,75355,75372,75372,75385,75385,75403,75403,75416,75416,75419,75419,75434,75450,75451,75467,75483,75491,75491,75514,75515,75515,75523,75546,75547,75555,75567,75567,75582,75599,75603,75603,75618,75619,75633,75635,75635,75650,75650,75652,75652,75666,75675,75675,75675,75685,75685,75691,75691,75701,75701,75702,75707,75719,75719,75723,75723,75738,75739,75750,75750,75755,75755,75755,75768,75768,75771,75771,75783,75784,75800,75800,75803,75803,75817,75817,75817,75819,75819,75834,75835,75850,75867,75867,75884,75884,75906,75917,75917,75923,75933,75943,75944,75954,75955,75969,75971,75972,75972,76029,76029,76029,76040,76040,76040,76041,76041,76041,76041,76055,76056,76059,76098,76146,76147,76155,76166,76194,76203,76203,76217,76233,76252,76263,76284,76284,76306,76307,76308,76309,76331,76354,76354,76356,76356,76377,76398,76399,76421,76443,76464,76486,76486,76486,76508,76508,76509,76530,76530,76531,76547,76547,76585" d="M15.125,74C15.92633,73.80267 16.51196,74.40966 17.32367,74.916C18.06096,75.37592 18.36053,76.25412 18.88667,76.7C19.70332,77.39207 20.54227,77.60081 21.06367,78.4C21.54007,79.13022 21.926,79.80034 22.625,80.5C23.22471,81.10028 23.825,81.7 24.525,82.4C25.125,83 25.70523,83.59232 26.125,84.5C26.49198,85.29354 26.71009,86.14972 27.29167,86.83334C27.85826,87.49934 28.69605,87.88874 29.04233,88.56934C29.40775,89.28754 29.74309,90.05703 30.41967,90.6955C31.10865,91.34568 31.00833,92.34318 31.34633,93.10017C31.66558,93.81516 32.07645,94.65215 32.12366,95.516C32.17628,96.47868 32.75245,97.13149 33.27433,97.636C34.05584,98.39149 33.87749,99.20463 34.1295,100.23833C34.31754,101.00966 35.07414,101.56654 35.1205,102.35183C35.18015,103.36235 35.3911,104.21709 35.92633,104.8C36.49451,105.4188 36.91402,106.25363 37.34633,107.1C37.68106,107.75531 38.04102,108.66634 38.561,109.4C39.11884,110.18708 39.70404,110.59286 40.125,111.5C40.49551,112.29844 40.9733,112.85705 41.4205,113.65266C41.89075,114.48927 42.0365,115.39342 42.34633,116.32133C42.57869,117.01722 43.04502,117.97348 43.12366,118.79867C43.20319,119.63305 43.44365,120.47022 43.77234,121.34734C44.10324,122.23037 44.125,123.1 44.125,124C44.125,124.8 44.125,125.7 44.125,126.6C44.125,127.5 44.125,128.39999 44.125,129.3045C44.125,130.16667 44.0638,131.03661 44.29167,132C44.48286,132.80833 44.7827,133.53378 45.125,134.47917C45.43116,135.32475 45.97929,135.85388 46.4205,136.65717C46.81724,137.37949 46.84724,138.44983 47.17767,139.28566C47.49592,140.09071 48.46418,140.42252 49.125,141.02083C49.65583,141.50145 50.50952,142.14801 50.95833,143C51.34906,143.74173 51.68933,144.49109 52.225,145.3215C52.66171,145.9985 52.90662,146.61084 53.4295,147.60001C53.74985,148.20602 54.45163,149.19554 54.93967,149.8C55.42059,150.39566 55.88815,151.19826 56.13967,152.164C56.35155,152.97754 56.78874,153.6339 57.22483,154.54266C57.55577,155.23228 57.77063,155.99393 58.041,157.02933C58.29429,157.99931 58.71153,158.5945 59.125,159.5C59.48815,160.2953 60.04043,161.09467 60.12366,161.8C60.22935,162.69568 60.73236,163.44908 61.07233,164.3045C61.4009,165.13124 61.49579,166.11763 62.22483,166.75717C62.85635,167.31116 63.16844,167.90271 63.561,168.836C63.80476,169.41553 64.325,170.39999 64.625,171C65.125,172 65.52516,172.79993 65.825,173.39999C66.32394,174.39853 66.73981,175.14615 67.00367,175.9785C67.25916,176.78444 67.78671,177.47914 68.51434,177.97467C69.18014,178.4281 69.83086,178.61812 70.689,179.036C71.37228,179.36873 71.89239,180.22116 72.41967,180.7C73.18917,181.3988 73.125,182.39999 73.125,183.3C73.125,184.2 73.125,185.10001 73.125,186C73.125,186.8 73.125,187.7 73.125,188.60001C73.125,189.5 73.125,190.39999 73.125,191.3C73.125,192.2 73.09109,193.10065 73.125,194C73.1536,194.75879 73.37629,195.71797 73.8295,196.29016C74.47321,197.10286 75.11967,197.61063 75.125,198.5C75.13039,199.39998 75.01804,200.30653 75.12634,201.2C75.23782,202.11978 75.93487,202.65408 76.11433,203.60001C76.2821,204.48428 76.13878,205.41077 76.12483,206.32133C76.11443,207.00023 75.9706,208.02859 75.4205,208.6955C74.79538,209.45335 74.02661,209.89108 73.125,210C72.32626,210.0965 71.55992,210.65501 70.71433,210.97467C69.83165,211.30835 69.12818,211.58134 68.125,211.83333C67.34903,212.02824 66.60075,212.11769 65.625,211.97917C64.61491,211.83577 63.91113,211.39575 63.125,211C62.34309,210.60637 61.56266,210.27882 61.11033,209.364C60.71598,208.56642 60.51609,207.83707 60.209,206.88533C59.92645,206.00966 59.44798,205.35722 59.2465,204.45734C59.03618,203.51797 59.1263,202.76801 59.125,201.81433C59.12362,200.80133 58.5933,200.25298 58.21033,199.43066C57.87822,198.71754 58.30384,197.68839 57.9035,196.89999C57.49195,196.08954 56.6996,195.6245 56.02517,194.89983C55.5422,194.38087 55.18085,193.51826 55.1295,192.65266C55.06865,191.62682 54.80442,190.8231 54.27433,190.17467C53.8406,189.6441 53.29627,188.74857 53.12366,187.8C52.95779,186.88846 52.50717,186.28703 52.09967,185.39999C51.72629,184.58723 51.37421,183.84851 50.95833,183C50.58462,182.23752 50.27808,181.48553 50.11433,180.60001C49.96053,179.76826 49.21168,179.29088 48.64583,178.47917C48.13421,177.74524 48.29827,176.74596 47.83967,175.88667C47.46706,175.18851 46.3349,175.00092 46.12634,174.19867C45.89974,173.32707 45.69818,172.59117 45.025,171.89999C44.43297,171.29213 43.62542,170.66534 43.24633,169.89999C42.82692,169.05322 42.51701,168.39734 41.825,167.7C41.32692,167.19807 40.56503,166.52078 40.02517,165.6785C39.59585,165.0087 39.28077,164.00188 39.15033,163.21066C39.03101,162.48691 38.68303,161.65466 37.92633,161.08267C37.24084,160.56451 37.09948,159.68681 36.625,159.02083C36.16144,158.37018 36.17419,157.42154 35.557,156.79866C34.91306,156.14879 34.30123,155.51413 34.11033,154.82533C33.84908,153.88268 33.23526,153.27711 32.64583,152.5C32.08567,151.76149 31.93192,150.87596 31.4205,150.3C30.77028,149.56773 30.16772,148.80302 30.125,147.89999C30.08248,147.00101 30.125,146.42334 30.125,147.33333C30.125,148.26134 30.125,149.05183 30.125,150.07834C30.125,150.75333 30.125,151.83333 30.125,152.54167C30.125,153.5 30.125,154.3625 30.125,155.02083C30.125,156.03334 30.125,157.228 30.125,157.9375C30.125,158.9785 30.125,159.6955 30.125,160.60001C30.125,161.5 30.125,162.39999 30.125,163.3C30.125,164.2 30.125,165.10001 30.125,166C30.125,166.8 30.125,167.7 30.125,168.60001C30.125,169.5 30.125,170.39999 30.125,171.3C30.125,172.2 30.1589,173.10065 30.125,174C30.0964,174.75879 29.7262,175.63467 29.409,176.51601C29.10532,177.35979 28.89676,178.31854 28.625,179C28.23641,179.97443 27.75512,180.42729 27.2465,181.2215C26.76822,181.96835 27.1415,183.00017 27.125,183.8C27.107,184.67256 26.9063,185.54343 26.69967,186.25067C26.41265,187.23306 26.23703,188.19077 26.12483,189.10001C26.01274,190.00838 25.37806,190.53719 25.161,191.39999C24.94125,192.2735 25.125,193.2 25.125,194.10001C25.125,195 25.125,195.8 25.125,196.7C25.125,197.60001 25.125,198.5 25.125,199.39999C25.125,200.3 25.125,201.2 25.125,202.10001C25.125,203 25.125,203.8 25.125,204.7C25.125,205.60001 25.125,206.5 25.125,207.41066C25.125,208.32133 25.125,209.17467 25.125,210.11467C25.125,211 25.125,211.8 25.125,212.7C25.125,213.60001 25.125,214.52083 25.125,215.48534C25.125,216.21066 25.0585,217.20447 25.14583,217.97917C25.26001,218.992 25.82123,219.67627 26.125,220.52083C26.46487,221.46573 26.68527,222.18002 27.041,223.11333C27.33453,223.88344 28.05501,224.43697 28.11433,225.18533C28.19827,226.24406 28.125,227.16667 28.125,228C28.125,228.83333 28.125,229.75267 28.125,230.65266C28.125,231.34734 28.125,232.364 28.125,233.3C28.125,234.20134 28.125,235.16667 28.125,236C28.125,236.83333 28.125,237.6955 28.125,238.60001C28.125,239.5 28.125,240.39999 28.125,241.3C28.125,242.2 28.125,243.10001 28.125,244C28.125,244.8 28.125,245.636 28.125,246.65266C28.125,247.34734 28.125,248.37466 28.125,249.32133C28.125,250.17467 28.125,251.11467 28.125,252C28.125,252.8 28.125,253.7 28.125,254.636C28.125,255.48399 28.125,256.34732 28.125,257.24734C28.125,258.16666 28.125,259 28.125,259.97849C28.125,260.79868 28.125,261.70001 28.125,262.63599C28.125,263.48532 28.125,264.21066 28.125,265.39868C28.125,266.164 28.125,267.11465 28.125,268C28.125,268.79999 28.125,269.70001 28.125,270.63599C28.125,271.48401 28.125,272.34732 28.125,273.24734C28.125,274.16666 28.03115,275.00452 28.12517,275.97833C28.20888,276.84537 28.99876,277.2998 29.29167,278.16666C29.5182,278.83707 29.93689,279.83884 30.15033,280.62534C30.38554,281.49203 30.78452,282.18848 31.0035,283.19983C31.16979,283.96783 31.125,284.97849 31.125,285.79868C31.125,286.70001 31.125,287.60001 31.125,288.5C31.125,289.39999 31.125,290.3045 31.125,291.16666C31.125,292.02084 31.125,293 31.125,293.78934C31.125,294.51468 31.07908,295.52032 31.409,296.48401C31.6517,297.19293 32.08228,298.11157 32.125,299C32.16342,299.79907 32.12353,300.70001 32.125,301.63599C32.12634,302.48401 32.11195,303.43863 32.693,304.11465C33.18221,304.68381 34.06771,305.29886 34.125,306.16666C34.1799,306.9982 34.125,307.97867 34.125,308.75266C34.125,309.65268 34.125,310.51599 34.125,311.52084C34.125,312.54285 34.125,313.26132 34.125,314.05182C34.125,315.07834 34.125,315.95834 34.125,316.83334C34.125,317.66135 34.125,318.54266 34.125,319.5C34.125,320.23199 34.125,321.33865 34.125,322.16666C34.125,323 34.125,323.97882 34.125,324.80984C34.125,325.76801 34.125,326.5 34.125,327.66666C34.125,328.34933 34.125,329.33334 34.125,330.26132C34.125,331.05182 34.125,332.07834 34.125,332.75333C34.125,333.83334 34.125,334.62534 34.125,335.48532C34.125,336.40451 34.125,337.39999 34.125,338.20001C34.125,339.20001 34.125,340 34.125,341C34.125,341.79999 34.125,342.60001 34.125,343.59549C34.125,344.34283 34.12508,345.36401 34.125,346.20001C34.12492,347.10001 33.89647,347.96432 33.55033,348.63599C33.1318,349.44812 33.20346,350.3511 33.1205,351.24734C33.03445,352.17688 32.75423,353.11761 32.02517,353.75717C31.39365,354.31116 31.21649,355.01254 31.06783,355.75717C30.88322,356.68192 30.45019,357.33896 30.15033,358.37466C29.8782,359.31458 29.61358,360.03992 29.23833,360.60132C28.6804,361.43604 28.05387,362.07623 27.60617,362.62866C26.77544,363.65372 26.47796,364.08194 25.82417,365.00616C25.48262,365.48898 25.14635,365.97952 24.4875,366.93216C24.17858,367.37885 23.49358,368.58624 22.6875,369.375C22.09277,369.95694 21.31073,370.33112 20.90367,371.10001C20.50263,371.85751 20.2976,372.62048 20.10417,373.5C19.91776,374.34756 19.03211,374.92462 18.561,375.60001C18.0493,376.33359 18.125,377.29999 18.125,378.20001C18.125,379.10001 18.125,380 18.125,380.75717C18.125,381.65717 18.125,382.60132 18.125,383.59549C18.125,384.34283 18.125,385.24734 18.125,386.16666C18.125,387 18.125,387.97849 18.125,388.79868C18.125,389.75717 18.125,390.65268 18.125,391.34732C18.125,392.36401 18.20068,393.30328 18.12367,394.20132C18.03998,395.17712 17.68261,395.84393 17.4205,396.46167C17.01507,397.41718 16.73319,398.22836 16.425,399.04733C16.03547,400.08243 15.73567,400.76401 15.41033,401.59866L15.18217,402.59549L15.1295,403.34283L15.11433,404.36401" id="svg_16" stroke-width="3" stroke="#000" fill="none"/>
  <path t="78100,78162,78162,78179,78186,78187,78196,78196,78202,78203,78214,78231,78232,78235,78235,78235,78247,78247,78247,78251,78251,78265,78280,78280,78280,78291,78291,78306,78307,78307,78315,78347" d="M0.125,207C1.125,206 1.925,206 2.761,206C3.78217,206 4.52977,205.97816 5.52367,206.00133C6.28958,206.01918 7.19825,206.35786 7.92367,206.716C8.72408,207.11116 9.61658,207.27174 10.33567,207.61067C11.3342,208.0813 11.92641,208.42088 12.81033,208.8C13.79788,209.22357 14.352,209.36987 15.11517,209.7C16.17306,210.15761 16.82721,210.61914 17.64583,211.02083C18.45829,211.41948 19.1045,212.06195 19.72633,212.43201C20.67216,212.99487 21.56722,213.01892 22.32483,213.44267C23.16103,213.91037 23.63967,214.43201 24.60417,214.97917L25.4205,215.35716" id="svg_17" stroke-width="3" stroke="#000" fill="none"/>
  <path t="79764,79922,79946,79946,79964,79964,79986,80002,80002,80015,80050,80050,80066,80080,80098,80098,80114,80122,80154,80163,80164,80186,80197,80214,80214,80242,80264,80267,80277,80292,80299,80299,80322,80331,80338,80339,80362,80380,80402,80434,80482,80498,80514,80523,80530,80562,80562,80586,80597,80614,80634,80634,80666,80666,80699,80722,80738,80762,80770,80770,80781,80787,80811,80859,80859,80874,80874,80898,80898,80938,80978,80997,81018,81019,81034,81066,81066,81106,81106,81122,81122,81122,81138,81186,81210,81231,81274" d="M16.125,69C16.125,66.37466 16.125,65.51466 16.125,64.78933C16.125,63.80017 16.125,62.836 16.125,61.88533C16.125,61 16.22543,60.18958 16.089,59.364C15.94495,58.4923 15.36273,57.68272 15.18217,56.75717C15.01768,55.91399 15.125,55 15.125,54.2C15.125,53.3 15.125,52.4 15.125,51.47917C15.125,50.516 15.125,49.82533 15.125,48.75717C15.125,47.9 15.125,47 15.125,46.2C15.125,45.3 15.11967,44.39999 15.125,43.5C15.13033,42.59995 15.62551,41.7812 15.95833,41C16.27853,40.24846 16.12426,39.3 16.125,38.364C16.12567,37.51733 16.25019,36.7582 16.77233,35.95183C17.17615,35.3282 16.95978,34.38081 17.14583,33.5C17.32483,32.65261 17.97512,31.89571 18.125,31C18.26525,30.16182 18.93928,29.6689 19.34633,28.9C19.74737,28.14246 19.95451,27.37999 20.14583,26.5C20.32984,25.65368 20.97204,24.89087 21.209,24.11467C21.44638,23.33708 21.95886,22.50867 22.10417,21.52083C22.22366,20.70848 22.125,19.8 22.125,18.9C22.125,18 22.15225,17.19959 22.125,16.3C22.0964,15.35587 21.38467,14.7898 20.95833,14C20.58989,13.31745 19.98307,12.70054 19.64583,12C19.1874,11.04769 19.00178,10.22407 18.55033,9.4C18.12287,8.61971 18.27988,7.63853 17.9035,6.9C17.55375,6.21373 16.71283,5.61196 16.025,4.89983C15.51584,4.37269 14.91227,3.52154 14.525,2.78933C14.11127,2.00711 13.68861,1.22999 13.41033,0.48533C13.06523,-0.43815 11.725,-1.42533 10.92633,-1.916L10.209,-2.284L9.76783,-2.94733" id="svg_18" stroke-width="3" stroke="#000" fill="none"/>
  <path t="82141,82203,82219,82235,82235,82259,82259,82259,82307,82307,82307,82339,82339,82348,82348,82370,82380,82397,82414,82431,82447,82447,82447,82450,82450,82464,82464,82467,82467,82483,82650,82666,82666,82730,82762,82786,82786,82818,82890,82906,82907,82930,82939,82939,82978,82997,83082,83098,83100,83100,83115,83115,83123,83132,83132,83138,83154,83178,83198,83234,83258,83258,83281,83281,83291,83322,83346,83346,83354,83422,83434,83434,83434,83474,83474,83482" d="M15.125,68C16.689,68.61066 17.03666,69.43013 17.3465,70.3215C17.59626,71.04003 18.13168,71.99673 18.425,72.6045C18.83437,73.45271 19.22375,74.42164 19.525,75.21467C19.72417,75.73898 20.17579,76.89281 20.625,77.45834C21.25875,78.25619 21.97613,78.76833 22.1205,79.7C22.25832,80.58939 22.12724,81.5 22.125,82.4C22.12275,83.3045 22.01175,84.19202 21.67833,84.82533C21.29684,85.54996 20.47186,86.24211 19.77767,86.6955C19.00848,87.19787 18.25512,87.7678 17.47233,87.94733C16.62037,88.14274 15.39069,88.40235 15.21167,89.2C15.01238,90.08795 15.89984,90.6375 16.51433,91.4C17.11534,92.14576 17.36713,92.95377 17.77233,93.7C18.18563,94.46112 18.125,95.41067 18.125,96.32133C18.125,97.17467 18.125,98.11467 18.125,99C18.125,99.8 18.13566,100.70006 18.125,101.6C18.11458,102.47935 17.47838,102.99467 16.63967,103C15.72052,103.00584 14.72633,103 13.961,103C13.01033,103 12.125,103 11.325,103C10.425,103 9.50581,103.16521 8.625,102.97916C7.77761,102.80017 6.97191,102.25249 6.125,101.83334C5.42983,101.48928 4.66059,100.76162 3.95033,100.436C3.16578,100.07631 2.34019,99.73702 1.95833,99C1.56771,98.24605 1.32026,97.47487 1.10367,96.58933C0.86525,95.61459 0.26367,95.17467 -0.39233,94.484L-1.11333,93.75716L-1.58833,93.20133L-1.86433,92.364" id="svg_19" stroke-width="3" stroke="#000" fill="none"/>
  <path t="84563,84658,84658,84666,84690,84690,84699,84699,84699,84707,84714,84730,84730,84747,84747,84778,84834,84834" d="M42.125,140C41.125,139.16667 40.55989,139.65494 39.71433,139.97467C38.83165,140.30844 38.10342,140.5193 37.125,141C36.33506,141.38809 35.54181,141.55295 34.77167,141.97467C34.02924,142.38121 33.8089,143.35271 33.23833,143.8C32.3616,144.48732 31.609,144.8 30.88217,145.3L30.125,146L29.625,146.5" id="svg_20" stroke-width="3" stroke="#000" fill="none"/>
  <path t="87492,87586,87602,87614,87614,87619,87630,87630,87634,87634,87647,87647,87650,87650,87664,87664,87666,87681,87681,87683,87691,87691,87691,87699,87699,87707,87738,87738,87754,87778,87797,87813,87842,87842" d="M33.125,287C31.425,287 30.48854,286.9733 29.641,287.00134C28.77634,287.02994 27.9674,287.52768 27.02467,287.87851C26.34657,288.13086 25.357,288 24.625,288C23.45833,288 22.62767,287.95587 21.80367,288.22134C21.10536,288.44632 20.15301,288.93777 19.32633,288.99866C18.49126,289.06018 17.47233,289 16.77767,289C15.73967,289 14.79167,289 14.11967,289C13.13033,289 12.09567,289 11.32767,289C10.489,289 9.47233,289 8.77767,289C7.761,289 6.825,289 5.925,289L5.025,289L4.125,289L3.325,289" id="svg_21" stroke-width="3" stroke="#000" fill="none"/>
 </g>
</svg>