<svg width="500" height="333.3333333333333" xmlns="http://www.w3.org/2000/svg" xmlns:svg="http://www.w3.org/2000/svg" xmlns:xlink="http://www.w3.org/1999/xlink">
 <!-- Created with SVG-edit - http://svg-edit.googlecode.com/ -->
 <g display="inline" class="layer">
  <title>Layer 1</title>
  <path t="6937,7136,7152,7152,7166,7199,7217,7234,7250,7266,7283,7299,7316,7334,7350,7366,7366,7383,7400,7400,7417,7433,7454,7466,7485,7499,7523,7539,7550,7567,7599,7617,7633,7650,7666,7667,7683,7710,7733,7750,7750,7767,7787,7802,7802,7818,7833,7850,7867,7899,7917,7917,7932,7950,7966,7982,8000,8015,8032,8048,8066,8082,8082,8098,8098,8115,8115,8149,8149,8166,8182,8198,8235,8249,8266,8282,8282,8305,8319,8348,8366,8382,8399,8437,8451,8475,8500,8515,8515,8531,8548,8565,8583,8598,8616,8632,8648,8648,8681,8700,8716,8732,8750,8765,8782,8798,8798,8815,8848,8848,8866,8882,8898,8914,8933,8933,8956,8998,9014,9032,9048,9082,9082,9098,9098,9114,9149,9149,9165,9165,9181,9197,9214,9214,9231,9231,9331,9348,9365,9381,9398,9414,9414,9430,9430,9448,9465,9482,9482,9498,9498,9530,9547,9580,9581,9597,9631,9648,9664,9682,9697,9698,9713,9731,9751,9768,9797,9797,9813,9830,9849,9900,9962,9983,10015,10031,10155,10177,10248" d="M322.29999,328.86667C322.29999,327.84583 322.2619,326.88727 322.29999,326.06799C322.34271,325.14902 323.0636,324.55551 323.65268,323.91934C324.18564,323.34378 324.9277,322.914 325.24734,322.16135C325.63278,321.25375 326.45325,321.34827 327.13333,320.86667C327.75281,320.42798 328.06284,319.9082 328.95267,319.86215C329.81863,319.81732 330.66455,319.43127 331.39999,318.76685C332.00046,318.22437 332.83029,317.92563 333.70001,317.44135C334.42844,317.03574 335.39386,316.92456 335.87466,316.25601C336.38577,315.54529 336.84894,314.92044 337.70001,314.44135C338.42664,314.03232 338.86166,313.32507 339.46667,312.86667C340.17432,312.33051 340.78876,312.20743 341.32083,311.36667C341.79596,310.61588 342.68304,310.4505 343.18567,309.57117C343.63049,308.79297 343.79865,308.03296 344.13333,307.03333C344.38095,306.2937 344.67075,305.3671 345.5,304.95065C346.34921,304.52417 347.10751,304.2095 347.28934,303.26666C347.45978,302.3829 347.1785,301.33591 347.79999,300.88751C348.48355,300.39432 349.36182,299.91931 349.77917,299.36667C350.33777,298.62698 350.4003,297.44635 351.17868,296.98816C351.82394,296.60834 352.71881,296.4502 353.216,295.668C353.68094,294.93655 354.1395,294.35712 354.65717,293.56668C355.17786,292.77161 355.78888,292.3215 356.62134,291.76666C357.27682,291.32977 358.16226,290.90222 358.75833,290.38751C359.50546,289.74237 360.07089,289.03598 360.89999,288.87732C361.84793,288.69592 362.50006,288.39145 363.13333,287.70001C363.68097,287.10208 364.46057,287.06482 365.29999,286.70001C365.98456,286.4025 366.3996,285.28558 367.26401,284.90268C367.94183,284.60242 369.01974,285.02374 369.79999,284.84583C370.76202,284.62643 371.40826,284.0386 372.29999,283.86667C373.18973,283.69513 373.63107,283.05237 374.39999,282.64532C375.15753,282.24429 375.89999,281.87732 376.79999,281.86667C377.70001,281.85599 378.43933,281.27075 379.24734,280.92383C379.94504,280.62427 380.936,280.86667 381.78265,280.86667C382.73065,280.86667 383.65717,280.86667 384.5,280.86667C385.39999,280.86667 386.36026,281.1947 387.24734,280.86215C387.957,280.59613 388.71072,279.90454 389.62115,279.86649C390.43872,279.83231 391.13745,279.24902 391.86932,278.952C392.59824,278.65616 393.664,278.86667 394.59549,278.86667C395.40982,278.86667 396.32083,278.86667 397.2785,278.86667C398.09866,278.86667 399,278.86667 399.89999,278.86667C400.79999,278.86667 401.70001,278.86667 402.59549,278.86667C403.46667,278.86667 404.19562,278.92825 405.12534,279.29199C405.82318,279.56503 406.87918,279.7731 407.74283,280.08801C408.51535,280.36972 409.27432,280.77835 410.09866,280.86533C410.99692,280.96011 411.76886,281.42126 412.50134,282.06534C413.03564,282.53516 414.02744,282.5813 414.73065,282.95065C415.66055,283.43909 415.90903,284.37387 416.65717,284.80951C417.38611,285.23398 418.19431,285.24509 418.52133,286.18799C418.76175,286.88113 419.19455,287.69073 419.2955,288.56216C419.39969,289.46158 419.76974,290.2533 420.29999,291.03333C420.72809,291.66312 421.44366,292.32172 422.01468,292.86401C422.54742,293.36996 423.15637,293.91846 423.29999,294.86667C423.4198,295.65762 423.37723,296.41544 423.87466,296.90268C424.46176,297.47772 424.87366,298.32971 425.24734,299.16666C425.5921,299.93881 426.15182,300.63528 426.2955,301.56668C426.43271,302.45618 426.18472,303.37418 426.29999,304.25601C426.41159,305.10983 427.15182,305.63657 427.2955,306.56668C427.43289,307.45615 427.29999,308.34583 427.29999,309.22385C427.29999,310.16666 427.29999,311.06668 427.29999,311.96649C427.29999,312.83066 427.46667,313.70001 428.1785,314.08817L428.29999,314.96667" id="svg_2" stroke-width="3" stroke="#000" fill="none"/>
  <path t="12070,12279,12298,12298,12331,12346,12346,12362,12379,12394,12413,12430,12446,12463,12479,12495,12495,12511,12531,12579,12579,12602,12624,12662,12679,12702,12702,12712,12730,12748,12786,12786,12795,12811,12832,12863,12881,12896,12913,12956,12979,13010,13028,13045,13062,13088,13128,13149,13150,13165,13196,13211,13228,13311,13311,13328,13344,13361,13378,13398,13430,13445,13461,13484,13514,13527,13584,13600,13627,13644,13661,13677,13694,13694,13710,13727,13727,13745,13761,13778,13794,13794,13810,13832,13862,13886,13900,13910,13932,13962,13994,14011,14027,14027,14049,14093,14117,14143,14160,14180,14193,14211,14241,14293,14310,14326,14343,14360,14394,14412,14428,14443,14460,14488,14527,14550,14573,14592,14610,14610,14642,14659,14659,14709,14735,14789,14860,14877,14892,14909,14937,14938,14984,14994,15542,15560,15560,15576,15576,15592,15610,15610,15626,15642,15658,15743,15759,15858,16347" d="M395.29999,330.86667C397.12534,330.85599 398.12839,330.69116 398.85333,330.29199C399.65182,329.85233 400.43835,329.48059 401.10001,329.15067C401.94336,328.7301 402.90002,328.87201 403.79999,328.86667C404.70007,328.86133 405.40598,328.41083 406.29999,328.03333C407.08289,327.70273 407.96161,327.8765 408.784,327.58267C409.48965,327.33057 410.5369,326.89526 411.384,326.86667C412.29947,326.83575 413.13589,327.06747 414,326.80951C414.85876,326.55313 414.98792,325.36804 415.66165,324.92383C416.46426,324.39462 417.3071,324.98413 418.27832,324.86649C419.19855,324.755 419.44046,324.05502 420.29999,323.70001C421.08484,323.37585 421.70923,322.79095 422.32535,322.29199C422.95514,321.78198 423.92932,321.86636 424.70001,321.44135C425.5202,320.98904 426.52084,321.12082 427.216,320.58267C427.84399,320.09653 428.35379,319.42007 428.87466,318.84134C429.44876,318.20346 430.24191,317.95187 430.86401,317.29199C431.47998,316.63861 431.48798,315.54736 432.10132,315.15201C432.90833,314.63181 433.74966,314.32721 434.24734,313.57117C434.69922,312.88474 435.43393,312.51868 436.10132,312.15067C436.92548,311.69623 437.96686,311.944 438.68933,311.44135C439.43878,310.91992 439.95795,310.07166 440.79999,309.88751C441.66934,309.69739 442.18112,309.14954 442.94733,308.87115C443.81976,308.5542 444.30356,308.08594 445.10132,307.86801C445.98636,307.62622 446.5195,306.97501 447.35266,306.86667C448.09988,306.7695 448.90295,306.19434 449.784,305.95065C450.45798,305.76425 451.47278,305.37982 452.29999,305.03333C452.96274,304.75574 453.89999,304.86667 454.79999,304.86667C455.71066,304.86667 456.62134,304.86667 457.47467,304.86667C458.41333,304.86667 459.47531,305.17679 460.17868,304.64532C460.81998,304.16077 461.51263,304.01666 462.39984,303.86649C463.25058,303.72247 462.94818,302.43677 463.58533,301.952C464.3165,301.39566 465.25049,301.61847 466,301.21933C466.82019,300.78256 467.73599,300.86731 468.60001,300.86667C469.49866,300.866 470.11069,300.44092 470.58401,299.668C471.05573,298.89774 471.35858,298.22168 472.10132,297.78265C472.8013,297.3689 473.81458,297.0058 474.29999,296.34583C474.80432,295.66016 474.9465,294.74594 475.46667,294.03333C475.98221,293.32709 476.65588,292.89597 477.60001,292.86667C478.49823,292.83881 479.04437,292.55115 479.30017,291.64532C479.51895,290.87064 480.50378,290.94876 481.39999,290.86649C482.31143,290.78281 482.90417,290.1778 483.58533,289.58267C484.26413,288.98959 485.10001,288.86734 486,288.86667C486.94284,288.86597 487.82083,288.86667 488.70001,288.86667C489.60001,288.86667 490.5,288.86667 491.39999,288.86667C492.29999,288.86667 493.10043,288.83942 494,288.86667C494.94415,288.89526 495.32083,289.70029 495.29965,290.53049C495.27881,291.34662 494.84616,292.3891 494.11465,292.26001C493.15012,292.08978 492.18988,291.81207 491.73599,291.25601C491.12149,290.50317 490.90784,289.65842 490.216,289.15067C489.50793,288.63101 489.29999,288.16217 489.26401,287.26666L488.82083,286.38751" id="svg_3" stroke-width="3" stroke="#000" fill="none"/>
  <path t="17334,17476,17508,17523,17541,17557,17591,17607,17623,17624,17655,17673,17673,17689,17690,17724,17724,17740,17757,17757,17774,17790,17790,17806,17823,17840,17858,17858,17873,17891,17908,17925,17925,17941,17958,17974,17974,17974,17991,18023,18023,18040,18040,18041,18057,18058,18058,18072,18090,18090,18107,18107,18123,18139,18139,18157,18158,18173,18174,18189,18206,18206,18206,18223,18223,18239,18239,18239,18257,18257,18274,18274,18290,18305,18306,18322,18339,18357,18357,18374,18374,18398,18407,18436,18456,18472,18514" d="M483.29999,282.86667C482.72534,281.30267 481.87433,280.85638 481.29999,280.36667C480.65231,279.81442 479.9303,279.43756 479.42151,278.64517C478.94232,277.8989 479.61917,276.69965 479.12933,276.15201C478.52692,275.47852 477.40073,275.58978 476.82083,274.84583C476.22751,274.08466 475.82608,273.40317 475.13333,272.70001C474.59952,272.15817 474.04266,271.50424 473.13333,270.86667C472.51434,270.43268 471.63705,270.02576 470.85718,269.64532C470.11813,269.28479 469.3269,268.92752 468.29999,268.86667C467.46814,268.81738 466.59018,268.86667 465.78265,268.86667C464.82083,268.86667 463.89999,268.86667 463,268.86667C462.09866,268.86667 461.41467,268.86667 460.48532,268.86667C459.46667,268.86667 458.63583,268.86667 457.77917,268.86667C457.06668,268.86667 455.96133,268.86667 454.97849,268.86667C454.27917,268.86667 453.29999,268.86667 452.48932,268.86667C451.61465,268.86667 450.61734,268.86667 449.82083,268.86667C449.06934,268.86667 447.96133,268.86667 446.97849,268.86667C446.27917,268.86667 445.2951,268.78961 444.52133,268.87732C443.52661,268.99005 442.85614,269.74088 442.07867,269.892C441.09906,270.0824 440.33975,270.41998 439.46667,270.70001C438.72394,270.93823 437.92029,271.34671 437.13333,271.86667C436.48727,272.29355 435.703,272.60046 434.70001,272.81851C433.90317,272.99176 433.06738,273.26773 432.32083,273.88751C431.75897,274.35397 431.12921,275.23029 430.41599,275.57999C429.53882,276.01007 428.69949,275.79889 427.82083,276.38751C426.99878,276.9382 426.48096,277.53613 425.70001,277.892C424.87723,278.26694 424.31943,279.04572 423.89999,279.68134C423.32605,280.55109 422.60043,280.91559 421.79999,281.36667C421.00491,281.81473 420.35266,282.21933 419.79999,282.86667L419.3045,283.51401L419.27917,284.36667" id="svg_4" stroke-width="3" stroke="#000" fill="none"/>
  <path t="22140,22918,23002,23019,23036,23052,23070,23086,23103,23135,23152,23152,23180,23226,23251,23274,23301,23322,23337,23352,23384,23412,23437,23482,23598,23638,23714,23737,23751,23767,23784,23808,23817,23876,23876,23900,23918,23953,24017,24070,24084,24101,24117,24150,24167,24185,24201,24202,24217,24218,24234,24234,24250,24472,24558,24581,24620,24736,24782,24806,24837,24866,24884,24900,24918,24939,24976" d="M223.3,124.86667C224.24283,124.21933 223.42134,123.86667 222.5955,123.86667C221.7,123.86667 220.8,123.86667 219.89999,123.86667C219,123.86667 218.10001,123.86667 217.2,123.86667C216.3,123.86667 215.5,123.86667 214.60001,123.86667C213.7,123.86667 212.77005,123.6378 211.91066,123.86667C211.22546,124.04915 210.80321,124.5391 209.91066,124.87733C209.17891,125.15463 208.69043,125.86873 208.24733,126.57117C207.76041,127.34307 207.3286,128.16084 207.3,129.08817C207.27293,129.96625 206.97748,131.00508 207.46666,131.7C207.97,132.41502 208.65587,132.83807 209.60001,132.86667C210.49826,132.89388 211.35266,132.86667 212.3,132.86667C213.10001,132.86667 214,132.86667 214.864,132.86667C215.73599,132.86667 216.72321,133.10918 217.584,132.86534C218.36375,132.64445 218.70898,131.78552 219.2955,131.21933C219.75925,130.77165 220.64624,130.34488 221.39999,129.98801C222.25407,129.58363 222.90234,129.20419 223.784,128.668C224.45157,128.26199 225.45145,128.06049 226.09866,127.78267C226.93407,127.42406 227.76054,126.68737 228.13333,125.86667C228.4848,125.09291 227.73367,124.76203 227.24283,124.21933C226.71265,123.63313 226.08478,122.92756 225.2,122.86667C224.30212,122.80488 223.42134,122.86667 222.5955,122.86667L221.7,122.86667L220.8,122.86667L219.91066,122.86667" id="svg_5" stroke-width="3" stroke="#000" fill="none"/>
  <path t="27268,27465,27499,27515,27515,27538,27547,27600,27654,27678,27678,27700,27781,27797,27830,27897,27897,27914,28088,28126,28412,28430,28536,28536,28552,28630,28660,28680,28768,28846,28876,28924,29132,29156,29202,29218,29264,29310" d="M131.3,210.86667C131.3,212.7 131.73599,213.30267 132.39999,213.96666C133,214.56667 133.6656,215.3093 134.39983,215.74533C135.18233,216.21004 135.46666,216.86667 136.3,216.86667C137.10001,216.86667 137.86002,217.07544 138.52133,217.74533C139.12781,218.35968 139.08429,219.30455 139.74266,219.74533C140.46526,220.22911 141.15622,220.59319 141.91066,220.856C142.81099,221.16965 143.74405,220.99034 144.68933,220.86667C145.54303,220.75497 145.78262,219.92848 146.35266,219.22383C146.94394,218.49292 147.3,217.86667 147.3,216.98817C147.3,216.16217 147.3,215.26666 147.3,214.36667C147.3,213.47734 147.3,212.58133 147.3,211.66667C147.3,210.76666 147.3,209.86667 147.29984,208.98801L146.8,208.34584" id="svg_6" stroke-width="3" stroke="#000" fill="none"/>
  <path t="30360,30750,30778,30794,30813,30905,30946,30994,31014,31082,31082,31222,31243,31260,31300,31316,31327,31343,31360,31377,31427,31444,31463,31464,31494,31511,31528,31577,31602,31626,31664,31749,31795,31810,31828,31847,31893,31893" d="M143.3,209.86667C142.49867,209.86667 141.48566,210.26173 140.73599,209.83067C140.03635,209.42838 139.51018,208.85693 139.3,207.98801C139.10539,207.1834 138.78444,206.36153 138.20016,205.76683C137.59079,205.14658 136.71617,205.18089 135.91066,204.856C135.14699,204.54799 134.99203,203.43654 134.20016,202.98801C133.45981,202.56865 132.92285,201.94958 132.32533,201.44133C131.69809,200.90779 130.8539,200.99399 130,200.86217C129.06863,200.7184 128.28055,200.48175 127.58533,199.78267C127.04131,199.23563 127.22838,198.10361 126.3,197.86667C125.47656,197.65651 125.01801,196.90939 124.20016,196.86667C123.28042,196.81862 122.49866,196.86667 121.6,196.86667C120.7,196.86667 119.736,196.86667 118.85717,196.86667L118.11467,196.86667" id="svg_7" stroke-width="3" stroke="#000" fill="none"/>
  <path t="33859,34148,34148,34159,34207,34227,34244,34244,34334,34373,34412,34458,34474,34523,34543,34590,34628,34666,34674,34707,34736,34760,34789,34814,34837,34861,34892,34907,34940,34961,35007,35023,35056,35093,35138,35146,35159,35189,35240,35256,35273,35291,35316,35356,35386,35386,35395,35432,35472,35489,35556,35606,35642,35656,35688,35798,35856,35873,35904,36138,36184,36206,36276" d="M110.3,198.86667C109.3,198.86667 108.49982,198.84831 107.58533,198.86667C106.68879,198.88467 105.90769,199.31088 105.2,199.96651C104.60637,200.51646 103.73605,200.86133 102.87466,200.86667C101.94285,200.87244 101.08727,200.716 100.20016,200.86684C99.34909,201.01154 99.3,202.06667 99.3,202.96666C99.3,203.86667 99.3,204.7 99.3,205.47734C99.3,206.46666 99.3,207.36667 99.3,208.256C99.3,209.15199 99.3,210.06667 99.3,210.96666C99.3,211.86667 99.65227,212.80814 99.24284,213.51401C98.77426,214.32184 97.79223,214.47534 97.35717,215.22383C96.93332,215.95305 96.80471,216.55472 96.35717,217.22383C95.88751,217.92601 96.54586,219.10008 96.016,219.78267C95.53134,220.40703 95.30009,221.15199 95.3,222.06667C95.29992,222.96651 94.93699,223.57977 94.35717,224.21933C93.86411,224.7632 93.59745,225.36534 93.24733,226.16133C92.88927,226.97537 92.66325,227.66846 92.264,228.43066C91.86679,229.18896 91.3,229.78267 91.3,230.57117C91.3,231.46666 91.15631,232.30875 90.65266,232.86217C90.1754,233.3866 90.3,234.36667 90.3,235.26666C90.3,236.16217 90.3,237.08817 90.30016,237.96651L90.52133,238.74533L91.24284,239.21933" id="svg_8" stroke-width="3" stroke="#000" fill="none"/>
  <path t="37424,37639,37693,37770,37965,38096,38221,38221,38266,38452,38544,38568,38669,38808,38870,38886,38902,39008,39133,39234,39335,39364,39482,39551,39551,39570,39604,39675,39823,40032,40056,40076,40186,40256,40350,40368,40552,40573,40759" d="M93.3,240.86667C93.3,239.06667 93.30529,238.16666 93.3,237.30267C93.29467,236.43062 92.7995,235.64786 92.46667,234.86667C92.14647,234.11513 92.3,233.15199 92.3,232.256C92.3,231.36667 92.29993,230.46666 92.3,229.57117C92.30009,228.64534 92.78857,228.05467 93.27467,227.43066C93.8528,226.68851 94.66345,226.32243 95.1785,225.64534C95.68986,224.9731 94.96289,223.71776 95.46667,223.03334C95.94739,222.38025 96.4103,221.64224 97.0045,221.22383C97.76221,220.69029 98.45102,220.48602 98.94733,219.814C99.45624,219.12492 98.9071,218.04839 99.336,217.30267C99.73837,216.60307 100.76071,216.72803 101.384,216.15067C102.07487,215.51071 102.584,214.95067 103.264,214.43066L103.3,213.57117L103.3,212.64517" id="svg_9" stroke-width="3" stroke="#000" fill="none"/>
  <path t="42209,42446,42476,42500,42525,42554,42601,42616,42646,42670,42700,42717,42733,42750,42770,42811,42834,42865,42894,42894,42940,42983,42999,43016,43032,43089,43100,43119,43135,43159,43183,43216,43235,43259,43267,43320,43358,43415,43415,43445,43475,43523,43553,43598,43598,43630,43653,43677,43698,43714,43731,43785,43825,43825,43833,43865,43884,43915,43933,43955,43979,44003,44041,44071,44103,44115,44149,44181,44198,44215,44231,44281,44281,44302,44326,44357" d="M104.3,215.86667C104.3,217.47734 104.3,218.36667 104.3,219.26666C104.3,220.16217 104.8617,220.60303 105.264,221.30267C105.69505,222.05232 105.3,223.06667 105.3,223.96651C105.3,224.84134 105.3,225.668 105.3,226.56667C105.3,227.46666 105.3,228.34584 105.3,229.30267C105.3,230.16667 105.4888,231.13589 105.07867,231.96651C104.72929,232.67407 104.30222,233.3875 104.3,234.26666C104.29775,235.16219 103.61873,235.67767 103.31067,236.44133C102.98841,237.24019 103.28934,238.256 102.8,238.86667C102.31067,239.47734 102.19785,240.2606 101.65266,240.86217C101.18427,241.37898 100.48085,241.91817 100.30133,242.668C100.08772,243.56021 99.36092,244.08138 99.3,244.91933C99.23132,245.86418 99.3,246.66667 99.3,247.56667C99.3,248.43066 99.37577,249.34212 98.94733,250.16667C98.50594,251.01617 98.30067,251.66667 98.3,252.56667C98.29934,253.46666 98.66671,254.44638 98.27917,255.34584C97.97138,256.06018 96.97,256.3183 96.46667,257.03333C95.97748,257.72824 96.69301,258.79706 96.21467,259.58133C95.72459,260.38486 95.3,260.95065 95.3,261.84134C95.3,262.62833 95.3,263.51483 95.3,264.53333C95.3,265.38751 95.3,266.26666 95.3,267.16666C95.3,268.06534 95.56361,269.078 95.07867,269.74533C94.56973,270.44571 94.45001,271.07932 94.29984,271.96649C94.15582,272.81726 93.13333,273.03333 92.65266,273.57117L92.27467,274.43066L91.584,274.95065L91.30133,275.668" id="svg_10" stroke-width="3" stroke="#000" fill="none"/>
  <path t="45156,45341,45341,45379,45403,45441,45465,45465,45481,45497,45513,45530,45547,45547,45564,45565,45580,45597,45630,45647,45666,45679,45679,45696,45729,45789,46149,46162,46179,46197,46212,46229,46245,46262,46301,46346,46362,46363,46385,46430,46463,46517,46541,46562,46586,46629,46645,46687,46711,46735,46897" d="M103.3,276.86667C103.3,275.86667 103.42211,275.08804 103.87466,274.26666C104.29939,273.49579 104.13866,272.51871 104.5215,271.76666C104.87093,271.08023 105.71041,270.48019 106.216,269.668C106.67199,268.93552 107.49016,268.8187 108.16133,268.42001C108.84045,268.0166 109.54156,267.21317 109.9955,266.51935C110.49727,265.75241 111.30485,265.26804 111.94733,264.80951C112.56902,264.36584 112.79033,263.33566 113.5,262.668C114.07637,262.12573 115.11764,261.86923 115.3,260.98801C115.46736,260.17932 115.35802,258.72379 116.016,259.03867C116.79969,259.41373 116.3,260.80533 116.3,261.57117C116.3,262.46667 116.3,263.36667 116.3,264.34583C116.3,265.22385 116.11112,266.13599 116.5215,266.96667C116.86266,267.65726 117.85841,268.13824 118.29867,268.95065C118.69189,269.67624 119.2714,270.22238 119.3,271.06668C119.33047,271.96597 119.3,272.892 119.3,273.668C119.3,274.56668 119.3,275.46667 119.264,276.43066L118.5955,276.86215L117.736,276.86667" id="svg_11" stroke-width="3" stroke="#000" fill="none"/>
  <path t="54741,55007,55021,55039,55077,55101,55120,55138,55161,55193,55209,55239,55271,55309,55347,55371,55401,55421,55437,55457,55487,55503,55570,55587,55603,55620,55640,55681,55689,55719,55719,55737,55770,55787,55803,55819,55853,55881,55912,55927,55967,56013,56021,56067,56091,56104,56121,56137,56175,56199,56219,56219,56237,56315,56336,56353,56369,56404,56423,56423,56455,56469,56486,56517,56570,56586,56609,56679,56703,56741,56779,56819,56903,56982,57035,57035,57127,57150,57175,57235" d="M128.3,212.86667C128.3,214.56667 128.3,215.46666 128.3,216.43066C128.3,217.30267 128.3,218.16667 128.3,219.06667C128.3,220.06534 128.3,220.91933 128.3,221.668C128.3,222.56667 128.3,223.46666 128.3,224.43066C128.3,225.30267 128.3,226.16667 128.3,227.06667C128.3,228.06534 128.3,228.91933 128.3,229.668C128.3,230.56667 128.3,231.46666 128.3,232.43066C128.3,233.30267 128.3,234.16667 128.3,235.06667C128.3,236.06534 128.63699,236.46724 129.1785,237.08817C129.7614,237.75656 129.2628,238.86754 129.3,239.66667C129.34271,240.5843 130.05182,241.17964 130.584,241.78267C131.15044,242.42451 131.3,243.16667 131.3,244.06534C131.3,244.95067 130.97821,246.00456 131.46666,246.7C131.96898,247.41518 131.86606,248.25082 132.38533,248.86534C132.91708,249.49463 133.05576,250.09883 133.584,250.78267C134.06871,251.41016 134.3,252.16217 134.3,253.03334C134.3,253.96666 134.3,254.86667 134.3,255.66667C134.3,256.58133 134.3,257.47733 134.3,258.36667C134.3,259.26666 134.38585,260.16641 134.3,261.03333C134.21626,261.87903 133.50803,262.52106 133.32083,263.36667C133.10899,264.32355 132.54131,264.80807 132.3045,265.57117C132.04948,266.39294 131.44568,266.91061 131.30133,267.668C131.10812,268.68176 131.3,269.51401 131.3,270.38751C131.3,271.26666 131.3,272.25601 131.3,273.15201C131.3,273.96667 131.3,274.86667 131.3,275.66666C131.3,276.70001 131.3,277.47733 131.3,278.36667L131.3,279.34583" id="svg_14" stroke-width="3" stroke="#000" fill="none"/>
  <path t="58720,59117,59150,59167,59183,59200,59217,59233,59250,59283,59303,59303,59316,59333,59350,59367,59383,59411,59433,59450,59489,59535,59557,59566,59611" d="M102.3,243.86667C103.3,244.84584 104.09211,244.96794 104.8,245.36667C105.67834,245.86139 106.13974,246.3757 106.65266,247.16217C107.15576,247.93356 107.86488,248.45802 108.58533,248.86934C109.38935,249.32837 109.8131,249.87404 110.17867,250.845C110.49656,251.68933 111.01263,252.2225 111.38533,252.95067C111.76677,253.69591 112.12862,254.48686 112.32083,255.36667C112.5048,256.20874 113.24284,256.814 113.46667,257.70001L114.17867,258.08801L114.65266,258.814L115.264,259.30267" id="svg_15" stroke-width="3" stroke="#000" fill="none"/>
  <path t="60358,60549,60571,60599,60664,60665,60687,60687,60698,60715,60765,60782,60782,60803,60816,60848,60927" d="M130.3,247.86667C128.46666,248.03334 128.07602,248.72768 127.21467,248.86667C126.29681,249.01477 125.66825,249.49144 125.1,250.34933C124.6757,250.9899 123.93478,251.50546 123.38533,252.15067C122.88012,252.74391 122.57806,253.35709 122.24733,254.16133C121.93633,254.9176 121.24733,255.51401 120.5955,255.91933L119.82083,256.36667" id="svg_16" stroke-width="3" stroke="#000" fill="none"/>
  <path t="62386,62623,62661,62680,62701,62755,62777,62796,62796,62848,62896,62948,62948,62979,63071,63095,63158,63158,63187,63273,63298,63313,63330,63382,63514,63693,63713,63729" d="M128.3,241.86667C126.68933,241.86667 125.8,241.86667 124.9,241.86667C124.0045,241.86667 123.0785,241.86667 122.2,241.86667C121.3,241.86667 120.5,241.86667 119.58533,241.86667C118.65334,241.86667 117.816,241.86667 116.95267,241.86667C115.94667,241.86667 115.0785,241.86667 114.2,241.86667C113.3,241.86667 112.5,241.86667 111.58533,241.86667C110.68933,241.86667 109.74029,242.17657 108.91067,241.856C108.11775,241.54962 107.584,240.868 106.72533,240.86667L105.77917,240.86667L104.91067,240.856L104.3,240.36667" id="svg_17" stroke-width="3" stroke="#000" fill="none"/>
  <path t="65390,65711,65728,65760,65777,65794,65810,65827,65844,65862,65862,65877,65919,65951,65975,65997,66099,66137,66161" d="M108.3,219.86667C110.1,219.86667 110.94283,219.86667 111.82083,219.86667C112.8,219.86667 113.7,219.86667 114.5955,219.86667C115.40984,219.86667 116.32083,219.86667 117.2785,219.86667C118.09866,219.86667 118.94283,219.86667 119.82083,219.86667C120.8,219.86667 121.7,219.86667 122.5955,219.86667L123.46667,219.86667L124.39983,219.86684L125.17867,220.088" id="svg_18" stroke-width="3" stroke="#000" fill="none"/>
  <path t="79117,79421,79449,79466,79482,79498,79516,79561,79661,79683,79739,79753,79766,79766,79801,79848,79867,79939,79979,80001,80017,80039,80071,80087,80125,80154,80198,80224,80287,80587,80600,80616,80637,80697,80813,80868,80897,80913,80977,80996,81015,81031,81047,81079,81079,81097,81097,81130,81163,81193,81217,81231,81247,81300,81314,81330,81347,81363,81425" d="M117.3,185.86667C116.3,185.86667 115.384,185.86667 114.5955,185.86667C113.7,185.86667 112.73555,185.54477 111.91067,185.87733C111.14694,186.18524 111.3,187.30267 111.3,188.256C111.3,189.15199 111.3,189.96666 111.3,190.86667C111.3,191.66667 111.14178,192.72379 111.336,193.47734C111.55566,194.32961 112.25729,195.06364 112.3,195.96651C112.34254,196.86566 112.3,197.668 112.3,198.56667C112.3,199.46666 112.3,200.43066 112.3,201.30267C112.3,202.16667 112.3,203.06667 112.3,203.96651C112.3,204.86667 112.4556,205.783 113.4,205.86667C114.29649,205.94609 115.21624,205.71268 115.3,204.8875C115.38303,204.06953 115.3,203.16667 115.3,202.26666C115.3,201.3875 115.3,200.50951 115.3,199.56667C115.3,198.66667 115.76978,197.61754 115.27917,196.8875C114.78478,196.15186 114.31042,195.84601 114.3,194.88817C114.29108,194.06804 114.3,193.03334 114.3,192.256C114.3,191.36667 114.36837,190.52417 114.87466,189.84134C115.35737,189.19034 115.72547,188.42456 116.49866,187.95067C117.23762,187.49777 117.736,186.90266 118.5955,186.86217L119.27917,186.36667" id="svg_21" stroke-width="3" stroke="#000" fill="none"/>
  <path t="82503,82745,82795,82856,82856,82878,82957,83011,83067,83067,83189,83205,83213,83251,83291,83311,83329,83345,83378,83395,83411,83428,83428,83444,83477,83494,83510,83511,83531,83578,83594,83631,83685,83685,83723,83745,83779,83826,83846,83877,83895,83927,83957,84011,84028,84057,84095,84111,84177,84227,84258,84304,84327,84359,84389,84410,84443,84494,84513,84537,84567,84637,84715" d="M119.3,189.86667C119.24284,188.21933 118.44362,187.81487 118.3,186.86667C118.1802,186.07568 118.3,185.15199 118.3,184.256C118.3,183.34584 118.3,182.5455 118.3,181.728C118.3,180.64517 118.55627,179.64175 118.07867,178.98801C117.56796,178.28894 117.62585,177.38631 116.94283,176.92383C116.16418,176.39661 115.55478,176.40309 115.29867,175.58267C115.05549,174.80368 114.19279,174.41373 113.3,174.03334C112.54846,173.71313 111.98379,173.50024 111.29867,172.952C110.70128,172.47395 109.64733,172.86667 108.784,172.86667C107.84167,172.86667 106.81007,172.73523 106.3,173.3875C105.772,174.0627 105.21252,174.79509 104.736,175.46666C104.2211,176.19232 103.57322,176.68295 103.3,177.30267C102.95145,178.09325 103.3,179.06667 103.3,179.96651C103.3,180.892 102.81683,181.47383 102.38533,182.15199C101.89217,182.92705 102.3,183.96651 102.3,184.84134C102.3,185.668 101.96899,186.31815 101.46667,187.03334C100.97822,187.72878 101.3,188.78267 101.3,189.57117C101.3,190.46666 101.24679,191.61934 102.0045,191.86217C102.8239,192.12477 103.29494,192.58989 103.91067,192.90266C104.69536,193.30127 105.49866,193.78267 106.216,194.15067L106.72533,194.84134L107.28934,195.44133" id="svg_22" stroke-width="3" stroke="#000" fill="none"/>
  <path t="85801,86007,86027,86053,86161,86217,86242,86259,86301,86326,86326,86355" d="M119.3,184.86667C119.3,186.56667 119.3,187.46666 119.3,188.43066C119.3,189.30267 119.51735,190.28313 119.29867,191.15067C119.11468,191.88058 118.1,192.15067 117.3,192.7L116.6,192.86217L115.65717,192.86667" id="svg_23" stroke-width="3" stroke="#000" fill="none"/>
  <path t="89276,89439,89439,89457,89489,89607,89629,89675,89729,89815,89831,89901,89948,89984,90039,90056,90071" d="M82.3,240.86667C83.3,240.86667 84.1,240.86667 85,240.86667C85.94283,240.86667 86.8357,240.64577 87.2955,239.814C87.70972,239.06468 88.67907,239.25839 89.21467,238.58133C89.72276,237.93904 89.33614,236.8405 89.3,236.06534C89.25729,235.14902 88.42133,234.64534 88.016,233.95067L87.336,233.44133" id="svg_24" stroke-width="20" stroke="#fff" fill="none"/>
  <path t="91752,91854,91871,91903,91919,91937,91937,91954,92005,92051,92105,92176,92307,92391,92431,92502,92519,92547,93058,93331,93421,93435,93500,93554,94626,94902,94939,95497" d="M83.3,239.86667C83.46667,238.03334 84.23909,237.6519 84.3,236.80533C84.35741,236.0074 84.3,235.03334 84.3,234.17117C84.3,233.22383 84.3,232.34584 84.3,231.46666C84.3,230.56667 84.3,229.668 84.3,228.78267C84.3,227.86667 84.58524,227.18826 85.216,226.58267C85.78887,226.03265 86.25217,225.34177 86.72533,224.856C87.25073,224.3166 87.38948,223.4493 87.87466,222.84134C88.37305,222.21684 88.35717,221.22383 89.0045,220.87117L89.9,220.86667L90.864,220.86667L91.3,220.43066" id="svg_25" stroke-width="20" stroke="#fff" fill="none"/>
  <path t="97466,97548,97548,97581,97582,97597,97617,97633,97664,97696,97714,97766,97811,97811,97831,97887,97897,97949,98005,98051,98301,98314,98331,98375,98438,98477,98496,99050,99502" d="M74.3,232.86667C76.136,232.86667 76.90134,232.86667 77.8955,232.86667C78.81467,232.86667 79.83232,233.16266 80.68933,232.856C81.42612,232.59236 82.03127,232.01541 82.68933,231.43066C83.3816,230.81552 83.51711,230.03059 84.3,229.7C85.08225,229.36967 85.85685,229.23279 86.72533,228.856C87.45705,228.53856 87.13795,227.20477 87.82083,226.8875C88.69077,226.48332 88.93588,226.16666 89.32083,225.3875C89.68044,224.65964 90.84507,224.61351 91.1785,223.76666C91.51121,222.92165 91.3,221.95067 91.3,221.03334L91.3,220.256" id="svg_26" stroke-width="20" stroke="#fff" fill="none"/>
  <path t="101298,101411,101430,101461,101480,101525,101543,101577,101593,101611,101638,101661,101693,101719,101735,101752,101889,101929,102060,102115,102285,102347,102361,102501,102985" d="M83.3,227.86667C84.10133,227.86667 84.84869,227.65132 85.46667,227.03334C86.08466,226.41536 85.88393,225.49719 86.38533,224.868C86.93192,224.1821 87.17449,223.74496 87.32083,222.86667C87.46404,222.00716 88.08324,221.40051 88.584,220.86534C89.13773,220.27357 89.77938,219.75479 90.35267,219.21933C91.03789,218.57932 91.3,217.86667 91.3,216.98801C91.3,216.16217 91.3,215.26666 91.3,214.36667L91.31067,213.47734L91.87466,212.87733L92.736,212.86667" id="svg_27" stroke-width="20" stroke="#fff" fill="none"/>
  <path t="114413,114708,114784,114831,114831,114892,114954,115077,115180,115380,115650,115666,115769,115790,116031,116061,116320,116661,116838,117041,117095,117176,117293,117486,117509,117528,117580,117595,117612,117634,117661,117702,117742,117796,117796,117834,117878,117896,117896,117928,117978,118091,118152,118238,118239,118245,118422,118444" d="M98.3,203.86667C98.32083,204.86667 99.21626,205.02097 99.3,205.86667C99.37884,206.66278 99.3,207.56667 99.3,208.50951C99.3,209.3875 99.59274,210.39796 99.2955,211.21933C99.01923,211.98274 97.91607,211.88416 97.3,212.36667C96.65821,212.86934 96.09928,213.27516 95.584,213.95067C95.11638,214.56369 95.3,215.56667 95.3,216.50951C95.3,217.3875 95.3,218.26666 95.3,219.16217C95.3,220.088 94.87014,220.51491 94.38533,221.15199C93.82974,221.88208 93.90831,222.76711 93.32533,223.29201C92.73616,223.82249 92.02658,224.45816 91.264,224.86667C90.49612,225.27803 90.48136,226.02014 90.13333,226.86667C89.85744,227.53773 89.43555,228.39914 89.016,229.15199C88.57719,229.93938 88.30067,230.66667 88.3,231.56667C88.29936,232.43066 87.75492,233.11983 87.4215,233.96666C87.08878,234.81169 87.3,235.66667 87.3,236.58133L87.264,237.44133L86.584,237.95067" id="svg_28" stroke-width="3" stroke="#000" fill="none"/>
  <path t="120174,120394,120394,120420,120450,120466,120477,120494,120526,120600,120614,120625,120690,120801,120844,120875,120917,120938,121000,121062,121093,121148,121216,121334,121411,121472,121495,121567,121592,121620,121659,121707,122352,122378,122402,122440,122936,123240,123516,123625,123648,123672" d="M102.3,216.86667C102.3,217.86667 102.18232,218.64777 101.72533,219.46666C101.29412,220.23938 100.88548,220.95074 100.24733,221.51401C99.65193,222.03954 99.66367,222.97093 99.13333,223.7C98.65635,224.35571 97.94428,224.83798 97.1,224.86667C96.20068,224.89722 95.34271,225.14902 95.3,226.06667C95.25816,226.96568 95.3,227.86667 95.3,228.7C95.3,229.57117 95.3,230.46666 95.3,231.36667C95.3,232.256 95.3,233.15199 95.3,234.06667C95.3,234.96666 95.5713,235.91206 95.3,236.7C95.02458,237.49991 93.97348,237.64354 93.10133,237.868C92.30043,238.07411 91.63651,238.67661 91.32083,239.3875C90.93152,240.26419 90.72538,240.86133 89.77917,240.86667C88.91068,240.87157 88.3,240.58133 88.3,239.66667L88.3,238.76666L88.3,237.86667" id="svg_29" stroke-width="3" stroke="#000" fill="none"/>
  <path t="150089,150551,150591,150747,150877,150877,151114,151141,151154,151186,151195,151230,151246,151271,151319,151349,151372,151457,151519,151529,151573,151659,151713,151728,151846,151862,151883,151883,151929,151961,152062,152169,152277,152348,152401,152433,152433,152455,152471,152525,152549,152619,152619,152703,152743,152789,152812,152881,152983,152997,153021,153044,153061,153127,153153,153153,153161,153199,153294,153327,153344,153361,153378,153439,153461,153477,153502,153523,153544,153577,153609,153655,153677,153694,153727,153763,153779,153803,153833,153860,153878,153896" d="M87.3,270.86667C87.3,272.70001 87.80129,273.1344 88.46667,273.70001C89.15051,274.28131 89.90265,274.47464 90.5955,275.16217C91.24984,275.81149 91.74006,276.5723 92.7,276.83066C93.56543,277.06357 94.46809,276.81644 95.35267,276.86667C96.10497,276.90939 96.8372,277.61353 97.7,277.83066C98.56912,278.04938 99.53378,278.01285 100.39983,277.86649C101.25186,277.72247 101.7027,277.15741 102.5955,276.86215C103.35091,276.6123 102.95502,275.29144 103.58533,274.86667C104.26092,274.41141 105.3,274.86667 106.1,274.86667C107.13333,274.86667 108.01218,274.47308 108.864,274.90268C109.5628,275.2551 109.84525,276.31564 110.584,276.78134C111.33417,277.25424 112.30041,276.84131 113.1,276.86667C114.00136,276.89526 114.67301,277.60672 115.58533,277.86667C116.36882,278.0899 117.3,277.86667 118.1,277.86667C119.13333,277.86667 119.91067,277.86667 120.8,277.86667C121.7,277.86667 122.68933,277.86667 123.58533,277.86667C124.4,277.86667 125.45419,277.54379 126.17867,278.08801C126.82079,278.57037 127.57732,278.70871 128.39999,279.08801C129.06824,279.39612 129.72499,280.03262 130.35266,280.51401C131.06522,281.06049 132.0045,280.86667 132.89999,280.86667C133.8,280.86667 134.68933,280.86734 135.58533,280.86667C136.49867,280.866 137.20789,280.4816 137.72533,279.892C138.28503,279.25424 139.11021,278.80905 139.3,277.95065C139.47369,277.1651 140.10133,276.86734 141,276.86667C141.94284,276.86597 142.87466,276.86667 143.73599,276.86667C144.60001,276.86667 145.5,276.86667 146.39983,276.86667L147.32533,276.86667L148.10133,276.86667L149,276.86667" id="svg_34" stroke-width="3" stroke="#000" fill="none"/>
  <path t="159077,159319,159340,159389,159413,159443,159491,159504,159521,159539,159539,159554,159588,159588,159604,159621,159638,159655,159671,159688,159688,159707,159729,159769,159769,159791,159807,159822,159838,159861,159904,159921,159937,159963,159971,159988,160004,160038,160054,160071,160071,160141,160154,160171,160171,160195,160221,160238,160255,160271,160287,160303,160333,160355,160373,160373,160395,160457,160519,160537,160537,160557,160635,160635,160667,160721,160783,160839,160859,160859,160875,160892,160905,160921,160937,160953,160971,160971,160986,161003,161003,161037,161054,161054,161069,161099,161119,161136,161153,161169,161169,161187,161187,161203,161219,161236,161254,161254,161270,161287,161304,161319,161319,161337,161370,161387,161403,161403,161439" d="M327.29999,202.86667C327.29999,203.86667 327.29776,204.8024 328.00449,204.86667C328.9407,204.95181 329.35181,205.72305 330.29999,205.86667C331.12393,205.99147 331.94666,205.86667 332.95267,205.86667C333.64734,205.86667 334.72595,206.05746 335.52151,205.64534C336.19824,205.29477 337.00009,204.87958 337.89999,204.86667C338.77933,204.85405 339.2431,204.09302 340.06168,203.87117C340.92169,203.63809 341.87582,203.90196 342.65332,203.44133C343.42963,202.98141 344.29999,202.86667 345.10001,202.86667C346,202.86667 346.70081,202.66646 347.384,202.15067C347.99933,201.68611 349.00006,201.87708 349.89999,201.86667C350.80017,201.85625 351.5033,201.32349 352.39999,200.98817C353.25061,200.67009 354.17868,200.86667 355.01599,200.86667C355.91068,200.86667 356.82083,200.86667 357.78265,200.86667C358.59018,200.86667 359.52151,200.86667 360.39999,200.86667C361.29999,200.86667 362.10001,200.86667 363.01468,200.86667C363.91068,200.86667 364.83472,200.81375 365.60001,201.21933C366.44589,201.66762 367.44894,201.5295 368.13333,202.03334C368.78632,202.51407 369.08557,203.30862 369.58533,204.06534C369.98746,204.67426 370.86612,204.96909 371.35718,205.51401C371.98236,206.20775 372.11859,206.90764 372.38535,207.66667C372.68616,208.5226 373.52411,209.08557 374.10132,209.668C374.69202,210.26402 375.08133,211.0865 375.29999,212.03334C375.48022,212.81384 376.46667,212.86667 377.29999,212.86667C378.27832,212.86667 379.13333,212.86667 379.91068,212.86667C380.89999,212.86667 381.81299,212.72458 382.70001,212.87733C383.53314,213.02081 384.07043,213.71851 385.05716,213.86217C385.9389,213.99054 386.73065,213.86667 387.74667,213.86667C388.62134,213.86667 389.47467,213.86667 390.41333,213.86667C391.32535,213.86667 392.10132,213.86667 393,213.86667C393.936,213.86667 394.78534,213.86667 395.7045,213.86667C396.69867,213.86667 397.46399,213.86667 398.41333,213.86667C399.32083,213.86667 400.16135,213.86667 401.13333,213.86667C401.88934,213.86667 402.83472,213.81375 403.60001,214.21933C404.44589,214.66762 405.29999,214.86667 406.10001,214.86667C407.01468,214.86667 407.91068,214.86667 408.82083,214.8875L409.62115,215.088L410.43866,215.44133L411.31467,215.856" id="svg_35" stroke-width="3" stroke="#000" fill="none"/>
  <path t="162863,163068,163068,163068,163189,163190,163221,163244,163259,163276,163287,163303,163318,163334,163368,163368,163384,163401,163445,163537,163553,163577,163600,163617,163634,163634,163650,163669,163684,163702,163734,163734,163751,163767,163832,163852,163886,163886,163939,163971,164002,164025,164079,164103,164118,164134" d="M384.29999,219.86667C387.25266,219.86667 387.79999,219.86667 388.616,219.86667C389.83383,219.86667 390.67255,219.72115 391.3045,220.21933C391.94208,220.72194 392.66992,220.90001 393.32535,221.44133C393.93018,221.94086 394.29932,222.668 394.29999,223.56667C394.30063,224.43066 394.29767,225.30949 394.29999,226.21851C394.30225,227.10501 394.97644,227.67964 395.28934,228.44133C395.61267,229.22845 395.82074,229.85045 396.79999,229.86667C397.69995,229.88158 398.42731,230.27554 399.29999,230.7C399.95966,231.02084 400.72238,231.55281 401.60001,231.80949C402.46426,232.06227 403.384,231.86667 404.29999,231.86667C405.10001,231.86667 406.01736,231.89458 406.77917,232.36667C407.53995,232.83813 408.39999,232.86667 409.29999,232.86667C410.10001,232.86667 410.82767,232.72527 411.35718,232.21933C411.95215,231.65085 412.94284,231.80949 413.46667,231.03334L414.29999,230.86667L415.216,230.86667L416.00449,230.86667" id="svg_36" stroke-width="3" stroke="#000" fill="none"/>
  <path t="173569,173776,173793,173793,173808,173824,173842,173870,173916,173958,174058,174074,174074,174090,174107,174124,174141,174157,174157,174176,174191,174191,174207,174223,174241,174257,174258,174274,174274,174291,174308,174308,174324,174341,174358,174373,174373,174391,174392,174407,174407,174424,174443,174458,174473,174473,174490,174512,174552,174573,174590,174590,174607,174624,174640,174660,174674,174690,174706,174724,174740,174760,174800,174814,174830,174830,174843,174875,175025,175025,175040,175073,175100,175124,175124,175139,175173,175194,175241,175272,175402,175423,175480,175542" d="M495.29999,229.86667C494.53833,229.86667 493.64728,229.87621 492.784,229.86667C491.84149,229.85625 491.31195,229.05234 490.59549,228.87117C489.68579,228.64113 488.76547,229.0282 487.82083,228.86667C486.97833,228.72261 486.31259,227.95171 485.5,227.868C484.60474,227.77577 483.681,228.03102 482.79999,227.84584C481.94836,227.66684 481.14185,226.97995 480.48532,226.90266C479.47433,226.78365 478.59018,226.86667 477.78265,226.86667C476.82083,226.86667 475.89999,226.86732 475,226.86667C474.09866,226.866 473.40564,226.80531 472.47467,226.44133C471.77676,226.16847 470.80014,225.87709 469.81601,225.86667C469.12537,225.85936 468.06168,225.86667 467.216,225.86667C466.48117,225.86667 465.53201,225.86667 464.55066,225.86667C463.63333,225.86667 462.8205,225.84213 461.81601,225.868C461.12469,225.88579 460.14807,226.10406 459.42133,226.74533C458.83032,227.26682 458.28925,228.08546 457.60001,228.50951C456.77863,229.01485 455.80927,228.72897 454.94284,228.87117C454.06659,229.01497 453.31366,229.77876 452.60001,229.86217C451.70609,229.96663 450.76663,229.82028 449.89999,230.29201C449.1676,230.69066 448.29999,230.86667 447.384,230.86667C446.59549,230.86667 445.70001,230.86667 444.79999,230.86667C443.91068,230.86667 442.94284,230.86667 442.09866,230.86667C441.13333,230.86667 440.32083,230.86667 439.40982,230.86667C438.53833,230.86667 437.58243,231.11345 436.86932,230.78133C436.04706,230.39836 435.3609,229.65144 435.29999,228.76666C435.23819,227.86879 435.66434,226.95592 435.24283,226.22383C434.7756,225.41234 434.33731,224.8658 434.29999,224.06534C434.25726,223.14902 433.42151,222.64517 433.29999,221.76683L433.29999,220.91933L433.29999,220.06534" id="svg_38" stroke-width="3" stroke="#000" fill="none"/>
  <path t="180279,180502,180519,180535,180535,180552,180552,180568,180585,180618,180618,180634,180634,180668,180684,180684,180701,180717,180736,180736,180751,180768,180784,180784,180812,180827,180852,180884,180901,180901,180917,180918,180936,180951,180951,180968,180986,181001,181018,181020,181034,181068,181084,181084,181084,181117,181134,181134,181152,181168,181184,181200,181201,181217,181262,181300" d="M495.29999,245.86667C493.60001,245.86667 492.664,245.86667 491.81467,245.86667C490.89551,245.86667 489.90134,245.86667 489.13599,245.86667C488.18668,245.86667 487.24734,245.86667 486.29999,245.86667C485.54285,245.86667 484.63892,245.72514 483.86932,245.86667C482.89435,246.04596 482.20663,246.80452 481.41467,246.86534C480.48804,246.93651 479.54211,246.83842 478.73065,246.868C477.94672,246.89658 477.14728,247.4077 476.20001,247.74516C475.34448,248.04994 474.50598,247.96228 473.79999,248.36667C473.00656,248.82114 472.10132,248.86667 471.20267,248.86667C470.23749,248.86667 469.54001,248.86667 468.44299,248.86667C467.72134,248.86667 466.77917,248.86667 465.81601,248.86667C465.12534,248.86667 464.06168,248.86667 463.19016,248.86667C462.27917,248.86667 461.3215,248.86667 460.60449,248.86667C459.65717,248.86667 458.73749,248.86667 457.75751,248.86667C457.06,248.86667 456.14835,248.96718 455.13333,248.86667C454.28763,248.78293 453.64633,248.0715 452.79999,247.8875C451.92001,247.69618 451.1727,247.45779 450.29999,247.03334C449.54608,246.66667 448.79999,246.36667 447.91068,245.90266L447.29999,245.58267" id="svg_39" stroke-width="3" stroke="#000" fill="none"/>
  <path t="197292,197756,197756,197786,197964,197988,198010,198097,198126,198197,198337,198337,198437,198670,198692,198722,198754,198784,198870,198932,198978,199001,199040,199103,199156,199180,199280,199366,199420,199459,199520,199606,199670,200678,200799,201045,201068,201083,201155,201238,201513,201540,201665,201827,201827,201864,201881,202000,202053,202075,202123,202369,202392,202417,202431,202471,202501,202539,202555,202624,202703,202725,202779,202919,202989,203030,203097,203237" d="M235.3,163.86667C236.3,163.86667 237.10001,163.86667 238,163.86667C238.94284,163.86667 239.82083,163.86667 240.7,163.86667C241.60001,163.86667 242.49867,163.86667 243.384,163.86667C244.3,163.86667 245.23038,164.25963 246.01466,163.78133C246.81808,163.29135 247.35783,163.22388 247.3,164.06534C247.24388,164.8819 246.34271,165.14902 246.3,166.06667C246.25816,166.96568 246.3,167.86667 246.3,168.7C246.3,169.57117 246.3,170.46666 246.3,171.36667C246.3,172.256 246.3,173.15199 246.3,174.06667C246.3,174.96666 246.72084,176.08595 246.13333,176.7C245.54759,177.31218 245.3,177.668 245.3,178.56667C245.3,179.46666 245.24188,180.63524 246.0045,180.86217C246.82831,181.1073 247.73599,180.86667 248.7,180.86667C249.60001,180.86667 250.50191,180.94093 251.35266,180.86667C252.31091,180.78302 252.83795,180.1228 253.7,179.90266C254.65964,179.65759 255.11627,179.13989 255.73599,178.86667C256.52658,178.51811 257.51273,179.01733 258.39984,178.8665C259.25092,178.72179 259.29999,177.76683 259.29999,176.84134C259.29999,176.06534 259.29999,175.16667 259.29999,174.26666C259.29999,173.30267 259.29999,172.43066 259.29999,171.56667C259.29999,170.66667 259.29999,169.76683 259.29999,168.84134C259.29999,168.06534 259.29999,167.16667 259.29999,166.26666L259.29999,165.30267" id="svg_41" stroke-width="3" stroke="#000" fill="none"/>
  <path t="205282,205962,206237,206271,206295,206355,206444,206493,206689,206767,206767,206835,206860,206951,207007,207092,207115,207169,207199,207293,207542,207663,207704,207733,208045,208214,208225,208321,208415,208863,208996,209135,209159,209197,209207,209224,209266,209321,209340,209340,209375,209466,209490,209529,209632,209653,209723,209740,209756,209784,209815,209856,209917,209946,210017,210041,210056,210073,210157,210195,210497,210497,210590,210606,210700,210737,210761,210774,210790,210805,210915,211031,211047" d="M259.29999,163.86667C259.31067,164.87733 259.84705,165.61369 260.70001,165.83067C261.57294,166.05273 262.51456,166.04134 263.46667,165.86667C264.25363,165.72231 264.29999,164.7 264.29999,163.86667C264.29999,163.06667 264.78439,161.99774 264.24283,161.22383C263.72934,160.49004 263.08456,160.31709 262.46667,159.7C261.8483,159.08241 261.08157,159.09267 260.384,158.58267C259.69815,158.08124 259.60724,157.25307 259.01468,156.86667C258.2485,156.36707 257.20001,156.86667 256.29999,156.86667C255.46666,156.86667 255.25478,157.72092 254.49867,157.86534C253.61597,158.03395 252.7,157.86667 251.73599,157.86667C250.864,157.86667 250,157.86676 249.10001,157.86667C248.20016,157.86658 247.72882,157.2955 247.07851,156.86667C246.34511,156.38304 245.3,156.86667 244.5,156.86667C243.58533,156.86667 242.68932,156.86134 241.8,156.86667C240.91061,156.87201 240.16385,157.23877 239.65266,157.91933C239.1382,158.60426 239.38989,159.67639 238.864,160.256C238.24097,160.94264 237.20016,160.86598 236.27467,160.86667C235.384,160.86734 234.85928,161.56992 233.89999,161.83067C233.03497,162.0658 232.49609,162.53255 231.8,162.84584C230.9557,163.22583 229.58951,163.26291 229.86417,163.86667C230.22408,164.65782 231.65717,163.86667 232.5,163.86667C233.39999,163.86667 234.3,163.86667 235.24733,163.86667C236.0045,163.86667 236.89999,163.86667 237.8,163.86667L238.77916,163.86667L239.31067,163.44133L239.8,162.86667" id="svg_42" stroke-width="3" stroke="#000" fill="none"/>
  <path t="218242,218701,218865,218983,219066,219176,219197,219376,219540,219553,219631,219709,219747,219917,220247,220290,220398,220537,220567,220692,220753,220861,220885,221009,221133,221249,221279,221296,221830" d="M248.3,154.86667C248.3,153.86667 248.3,152.95067 248.3,152.16217C248.3,151.26666 247.9781,150.30222 248.31067,149.47734C248.61858,148.71361 249.79778,149.19377 250.68933,148.856C251.41859,148.57971 251.04968,147.44122 251.30133,146.58267C251.52834,145.8082 252.60001,145.86667 253.5,145.86667C254.39983,145.86667 255.29466,145.9026 255.3,146.668C255.30626,147.56665 255.62537,148.16234 256.1785,148.86684C256.61987,149.429 256.30539,150.46667 256.29999,151.36667C256.29465,152.25604 255.72533,152.892 255.3045,153.51401L255.26401,154.44133" id="svg_43" stroke-width="3" stroke="#000" fill="none"/>
  <path t="224406,224639,224661,224708,224801,224895,224980" d="M250.3,164.86667C251.13333,164.7 251.3,163.84134 251.3,162.95067L251.38533,162.15067L252.1785,161.64534L252.3,160.814" id="svg_44" stroke-width="3" stroke="#000" fill="none"/>
  <path t="226987,227420,227442,227465,227482,227512,227566,227590,227816,227867,227991,228015,228070,228122,228193,228341,228364,228364,228385,228542,228557,228674,228757,228890" d="M252.3,162.86667C252.3,164.7 251.4808,164.91943 251.30133,165.668C251.08743,166.56015 250.52174,166.99036 249.7,167.44133C248.92001,167.86938 247.43095,167.51564 247.34666,168.29201C247.26057,169.08496 248.8,168.86667 249.7,168.86667C250.5955,168.86667 251.5215,168.86667 252.39999,168.86667C253.3,168.86667 254.24306,169.35782 255.01466,168.86667C255.58328,168.50473 255.3,167.36667 255.3,166.46666L255.3,165.57117L255.01601,164.86667" id="svg_45" stroke-width="3" stroke="#000" fill="none"/>
  <path t="256949,257163,257278,257295,257311,257332,257344,257378,257394,257427,257445,257461,257461,257502,257548,257580,257704,257727,257777,257804,257834,257860,257896,257920,257929,257929,257958,258005,258183,258198,258210,258268,258277,258327,258368,258409" d="M325.29999,162.86667C325.29999,161.86667 325.45432,160.95041 326.29999,160.86667C327.24274,160.77332 328.00449,160.86667 328.94284,160.86667C329.82083,160.86667 330.77917,160.86667 331.65717,160.86667C332.50134,160.86667 333.46667,160.86667 334.27917,160.86667C335.23868,160.86667 336.00449,160.86667 336.89999,160.86667C337.86401,160.86667 338.98145,160.71361 339.28934,161.47734C339.62189,162.30222 339.30005,163.26666 339.29999,164.16217C339.2999,165.088 338.75708,165.68779 338.384,166.43466C338.05359,167.09613 337.522,167.7934 337.30133,168.58267C337.06042,169.44429 337.4628,170.30473 337.94733,170.91933C338.45935,171.56879 338.38535,172.58133 339.1785,172.86667L340.00449,172.86667L340.94284,172.92383" id="svg_46" stroke-width="3" stroke="#000" fill="none"/>
 </g>
</svg>