<svg width="500.00000000000006" height="332.409972299169" xmlns="http://www.w3.org/2000/svg" xmlns:svg="http://www.w3.org/2000/svg" xmlns:xlink="http://www.w3.org/1999/xlink">
 <!-- Created with SVG-edit - http://svg-edit.googlecode.com/ -->
 <g display="inline" class="layer">
  <title>Layer 1</title>
  <path t="0,169,215,255,343,399,439,440,487,487,518,550,550,615,671,695,721,773,790,805,805,837,895,966,989,1014,1079,1135,1174,1194,1194,1205,1220,1222,1287,1287,1311,1311,1322,1338,1407,1444,1469,1484,1509,1565,1597,1606,1655,1655,1679,1727,1727,1783,1783,1815,1855,1919,1982,2006,2022,2087,2104,2121,2121,2141,2165,2166,2181,2196,2196,2197,2221,2261,2261,2285,2304,2333,2357,2380,2382,2382,2421,2471,2511,3047,3047,3073,3073,3093,3093,3159,3167,3168,3246,3246,3270,3318,3339,3390,3422,3422,3447,3472,3472,3491,3524,3525,3589,3647,3679,3745,3745,3774,3792,3822,3832,3853,3877,3885,3901,3901,3917,3929,3965,3979,4013,4045,4085,4133,4155,4189,4237,4277,4278,4343,4372,4390,4413,4428,4437,4461,4493,4493,4525,4525,4549,4573,4637,4650,4673,4685,4685,4697,4701,4712,4717,4740,4765,4765,4781,4802,4806,4845,4871,4959,4991,4991,5005,5061,5061,5088,5110,5111,5142,5169,5185,5229,5262,5264,5279,5286,5301,5325,5365,5381,5430,5431,5454,5468,5471,5501,5533,5547,5564,5566,5581,5613,5671,5689,5690,5702,5741,5773,5789,5799,5799,5814,5814,5837,5869,5887,5906,5907,5922,5949,5999,6038,6087,6087,6135,6158,6159,6190,6208,6209,6238,6256,6257,6269,6317,6342,6374,6389,6413,6413,6437,6437,6454,6470,6485,6485,6501,6501,6517,6517,6546,6565,6589,6589,6589,6605,6621,6637,6653,6653,6685,6717,6733,6789,6789,6790,6825,6825,6841,6877,6886,6925,6950,6973,6973,7000,7017,7061,7062,7090,7108,7141,7181,7182,7199,7237,7269,7270,7327,7383,7414,7435,7435,7451,7566,7590,7607,7620,7632,7648,7677,7698,7715,7731,7750,7773,7798,7845,7877,7890,7917,7917,7932,7949,7964,7996,8021,8070,8071,8093,8094,8118,8118,8141,8168,8197,8197,8229,8229,8253,8253,8301,8301,8333,8333,8373,8373,8413,8413,8432,8502,8528,8565,8621,8621,8645,8718,8806,8807,8846,8877,8878,8901,8901,8914,8933,8950,8989,9037,9086,9087,9118,9182,9214,9223,9244,9263,9264,9276,9300,9316,9332,9364,9397,9446,9479,9510,9511,9541,9542,9562,9574,9598,9599,9621,9645,9693,9725,9725,9733,9748,9781,9839,9840,9863,9885,9903,9920,9920,9981,10023,10023,10024,10053,10054,10206,10207,10231,10253,10269,10269,10326,10366,10398,10471,10471,10495,10558,10594,10614,10626,10626,10638,10661,10661,10693,10716,10838,10878,10974,11014,11060,11109,11109,11174,11183,11213,11217,11217,11278,11279,11312,11502,11503,11798,11829,11869,11894,11923,11938,11964,11982,11982,12000,12062,12102,12158,12159,12198,12199,12221,12236,12252,12268,12282,12308,12309,12340,12367,12414,12415,12415,12423,12461,12534,12535,12590,12758,12759,12794,12813,12934,13302,13566,13567,13646,13718,13719,13846,13847,13886,13887,13974,13975,14033,14063,14077,14078,14150,14213,14214,14261,14288,14341,14342,14381,14382,14390,14437,14461,14489,14507,14508,14565,14758,14759,14807,14894,14895,15057,15058,15093,15101,15198,15278,15334,15357,15430,15431,15432,15518,15598,15628,15702,15703,15742,15790,15934,15974,16038,16061,16101,16182,16183,16262,16334,16360,16377,16438,16463,16486,16533,16557,16605,16661,16669,16717,16790,16829,16830,16934,16935,17006,17070,17190,17229,17232,17255,17295,17316,17316,17414,17415,17454,17455,17494,17559,17567,17598,17620,17670,17701,17701,17758,17795,17821,17869,17934,17935,17990,18028,18110,18158,18238,18270,18293,18293,18374,18412,18438,18461,18493,18602,18661,18742,18830,18878,18886,18926,18974,19022,19048,19073,19085,19101,19102,19117,19135,19149,19180,19204,19205,19220,19232,19268,19284,19285,19308,19332,19333,19349,19365,19382,19399,19400,19420,19421,19436,19452,19476,19485,19499,19515,19516,19548,19549,19572,19620,19621,19632,19633,19676,19700,19715,19716,19733,19756,19757,19757,19783,19812,19821,19836,19950,19980,20005,20021,20021,20061,20150,20151,20238,20358,20518,20574,20575,20654,20782,20783,20814,20838,20839,20861,20885,20885,20933,21006,21007,21048,21108,21146,21162,21189,21205,21236,21268,21284,21285,21300,21300,21302,21324,21630,21677,21709,21731,21732,21735,21736,21772,21804,21817,21817,21982,22013,22013,22036,22052,22067,22084,22085,22101,22293,22302,22486,22550,22581,22582,22599,22600,22600,22601,22602,22830,22831,22832,22833,22861,22893,22894,22923,22956,22957,22957,22997,23014,23015,23036,23037,23166,23222,23223,23430,23469,23492,23524,23525,23564,23565,23589,23589,23604,23628,23629,23652,23702,23727,23748,23761,23762,23772,23788,23820,23833,23833,23852,23853,23866,23866,23868,23892,23893,23916,23916,23934,23951,23966,23973,23973,23988,23989,24004,24005,24036,24068,24069,24142,24143,24198,24199,24231,24262,24263,24298,24300,24324,24348,24349,24349,24366,24389,24430,24431,24460,24542,24581,24612,24612,24633,24650,24666,24668,24684,24684,24700,24700,24716,24716,24717,24733,24734,24756,24812,24844,24867,24867,24869,24892,24916,24934,24956,24956,24996,24997,24997,25062,25063,25098,25102,25118,25137,25138,25156,25197,25197,25205,25220,25221,25252,25284,25300,25324,25324,25350,25367,25373,25396,25397,25420,25444,25445,25466,25483,25500,25501,25516,25548,25567,25583,25601,25601,25604,25620,25621,25644,25652,25668,25684,25701,25724,25725,25764,25765,25765,25796,25836,25837,25868,25884,25908,25933,25956,25964,25996,26052,26110,26112,26157,27070,27099,27101,27105,27107,27123,27123,27125,27152,27153,27230,27264,27317" d="M142,288.82166C140.39999,288.24698 139.60052,287.83966 138.7,287.82166C137.80019,287.80365 136.89999,287.82166 136,287.82166C135.11467,287.82166 134.15422,287.91907 133.48399,287.73633C132.46416,287.45828 131.7812,286.81088 131.35716,286.12164C130.85182,285.30026 131,284.32166 131,283.42166C131,282.52167 131,281.62164 131,280.72165C131,279.82166 131,279.02167 131,278.12164C131,277.25766 131.72491,276.9303 131.98933,276.211C132.2962,275.37622 131.99934,274.42166 132,273.52167C132.00067,272.62164 132.287,271.76324 132.64732,271.12164C133.14986,270.22684 133.76553,269.85989 134.5,269.30081C135.27682,268.70947 135.74512,268.10373 136.48267,267.62164C137.27766,267.10202 137.66557,266.24658 138.43599,265.85767C139.28806,265.42752 139.70784,265.24692 140.01067,264.43231C140.28333,263.69882 140.99336,263.19397 141.42532,262.42166C141.8829,261.60358 142.42386,261.00772 143.2,260.53632C143.87637,260.12549 144.4846,259.47687 144.91733,258.62033C145.24603,257.9697 145.73868,257.19595 146.29466,256.47433C146.86481,255.73434 147.13515,254.87402 147.57466,254.21098C148.11447,253.39665 148,252.42166 148,251.52165C148,250.62166 148.03667,249.7209 148,248.82166C147.97139,248.1199 147.48442,247.3165 146.8,246.62166C146.3038,246.11789 145.61717,245.40405 144.89999,244.72182C144.31369,244.16408 143.51089,243.95999 142.57466,243.82166C141.75729,243.70088 141.56532,242.81709 140.89017,242.17882C140.19318,241.51991 139.38974,241.27046 138.64282,240.87881C137.89459,240.48648 136.76134,240.71864 136.28532,240.02032C135.77454,239.27101 135.45711,238.5961 134.7785,237.94283C134.12907,237.31763 133.4492,236.82843 133.16666,235.98833C132.90686,235.2159 132.69133,234.34964 132.35266,233.53149C131.97174,232.6113 131.70743,231.90274 131.284,231.10699C130.86133,230.31268 130.9446,229.52573 130.42532,228.80699C129.91772,228.1044 129.11263,227.84769 128.5,227.27998C127.77848,226.61137 127.71697,225.61015 126.89999,225.06465C126.12472,224.54698 125.14529,224.81143 124.39999,224.21098C123.7458,223.68394 123.04394,223.36816 122.28533,222.73766C121.56065,222.13535 121.00066,221.73633 121,220.82166C120.99942,220.02165 121,219.12166 121,218.22165C121,217.32166 121,216.42166 121,215.52165C121,214.62166 120.81865,213.66818 121.16666,212.82166C121.44256,212.15057 122.07445,211.41139 122.57466,210.79633C123.07878,210.17645 122.9906,209.00992 123.7045,208.82616C124.57174,208.60294 125.5,208.82166 126.39999,208.82166C127.3,208.82166 128.20377,208.73953 129.09999,208.82182C130.01144,208.9055 130.46967,209.56923 131.02083,210.32166C131.45755,210.91785 132.52083,210.82166 133.39999,210.82166C134.3,210.82166 135.32233,210.63329 135.95183,211.17882C136.62474,211.76198 137.04396,212.28589 137.83333,212.82166C138.61374,213.35135 139.40987,213.68721 140.3,213.82616C141.11877,213.95396 141.81883,214.73776 142.54166,214.82166C143.47771,214.9303 144.34734,214.82166 145.24283,214.82166C146.2,214.82166 147.22559,215.07886 147.87866,214.60033C148.58003,214.0864 149.13835,213.43558 149.8,213.10565C150.64336,212.6851 151.72273,212.96764 152.38933,212.38565C153.08751,211.77608 153.28235,210.86436 154.20132,210.82166C155.16562,210.77684 156.15584,211.11909 156.83066,210.53632C157.51451,209.94574 157.70337,209.12053 158.39999,208.42166C158.99904,207.82069 159.66174,207.35916 160.38933,206.84698C161.04666,206.38428 160.88855,205.25208 161.35716,204.52165C161.87036,203.72174 162.47589,203.16914 162.97467,202.43233C163.42624,201.76526 163.70247,201.15849 164,200.34248C164.23549,199.69664 165.43137,199.55713 165.83333,198.82166C166.23538,198.086 166.47548,197.16298 166.97467,196.43233C167.43684,195.75586 168.39302,195.53163 168.87866,194.72182C169.31624,193.99217 170.22662,194.08028 170.87866,193.60033C171.57692,193.08635 171.79053,192.27711 172.35716,191.52615C172.862,190.8571 173.94775,190.90475 174.564,190.21098C175.14862,189.55283 175.52065,188.83215 176.41066,188.82166C177.32127,188.81091 178.22333,188.92575 179.11467,188.53766C179.85641,188.21471 180.61804,187.83054 181.39999,187.39632C182.22046,186.9407 182.95378,186.57951 183.7,186.17432C184.46112,185.76102 185.39999,185.82233 186.3,185.82166C187.2,185.82098 188.12601,185.6308 188.7,185.11716C189.43533,184.45914 190.03508,183.64018 190.59999,183.25766C191.44362,182.6864 192.37878,182.70328 193.13866,182.21098C193.90149,181.71677 194.03627,180.68475 194.7045,180.17882C195.39972,179.65245 196.51096,179.59151 196.87849,178.72182C197.23209,177.88515 197.06532,177.02678 197.56799,176.33766C198.10001,175.60832 198.71252,174.82338 199.04816,174.12616C199.44838,173.29477 199.88217,172.49789 200.16666,171.65498C200.45621,170.79706 200.96544,169.96002 201.5,169.34248C202.06499,168.68979 202.61288,168.10834 203.02533,167.22165C203.4086,166.39769 203.9926,165.65036 204.39999,165.00699C204.79292,164.38644 205.65147,163.77881 206.05266,163.11716C206.53123,162.32787 207.30757,161.70027 207.71466,161.02165C208.15614,160.28571 208.45438,159.43881 208.91733,158.62166C209.3618,157.83711 210.03749,157.31372 210.60266,157.02165C211.58841,156.51222 212.38737,156.28725 213.23833,155.87433C214.02814,155.49107 214.72569,154.94777 214.98933,154.21098C215.29599,153.35397 215,152.33766 215,151.64699C215,150.57883 215,149.72165 215,148.82166C215,148.02165 215,147.12166 215,146.22165C215,145.25766 215,144.37881 215,143.63632C215,142.57883 215,141.72165 215,140.82166C215,140.02165 214.94455,139.1207 214.5,138.32166C214.05438,137.52069 213.73912,136.59973 213.19867,136.02165C212.62495,135.40799 211.69743,135.11729 210.90033,134.60033C210.20036,134.14636 211.2159,134.04417 211.916,133.53766C212.60956,133.03587 213.32169,133.01656 214.19867,132.82033C215.00571,132.63976 215.52779,131.93765 216,131.30083C216.57883,130.52022 217.4001,130.2877 217.91466,129.53632C218.4337,128.77838 218,127.72166 218,126.82166C218,126.02165 218,125.12166 218,124.22166C218,123.34249 218,122.46449 218,121.52165C218,120.62032 217.95914,119.93499 218.01067,118.98566C218.05235,118.21782 218.38084,117.23666 218.64732,116.47882C219.00198,115.47022 218.98795,114.62025 219,113.65499C219.01042,112.82146 219.20512,112.00698 219.57466,111.19632C219.95813,110.35509 219.87703,109.52085 220.56934,108.70699C221.07321,108.11465 222.00294,107.75011 222.58932,107.22166C223.33267,106.55173 223.84283,105.96235 224.2955,105.16899C224.6804,104.49442 224.98199,103.45818 225,102.52165C225.01727,101.62315 225,100.73766 225,99.82166C225,99.02165 225,98.12166 225,97.18565C225,96.33765 225,95.47432 225,94.57433C225,93.65499 225,92.82166 225,91.84315C225,91.02299 225.07071,90.0267 226,89.84249C226.87354,89.66933 227.4873,89.25738 228.3,88.87432C229.16849,88.46497 229.85112,88.05205 229.9955,87.12166C230.1335,86.23229 229.99776,85.32166 230,84.42165C230.00226,83.52164 230.3152,82.77933 230.716,82.02165C231.16531,81.17227 231.5759,80.49623 231.91466,79.62299C232.24075,78.78239 232.80017,78.1648 232.97916,77.32166C233.16609,76.44103 232.98462,75.51704 233.00017,74.50032C233.01056,73.82142 233.27434,72.87211 233.64732,72.12615C234.03651,71.34779 233.88396,70.30791 234.56799,69.62166C235.06616,69.12188 235.66168,68.24513 236.42532,67.85766C237.19296,67.46815 238.04454,67.51061 238.8,67.10565C239.55595,66.70043 240.38808,66.16292 241.16666,65.82166C241.94502,65.48049 242.7,65.17432 243.5,64.82166C244.3,64.46899 245.09387,63.88254 246,63.82166C246.7982,63.76802 247.68059,63.82216 248.54266,63.60015C249.25906,63.41566 250.04922,63.21796 251.028,62.62299C251.76015,62.17794 252.31151,61.26457 252.57466,60.63632C252.95668,59.72431 253.34419,59.03117 254.09999,58.60015C254.76909,58.21859 255.29701,57.22416 256.19998,56.90699C257.05295,56.60738 258,56.82166 258.79999,56.82166C259.69998,56.82166 260.60001,56.82166 261.5,56.82166C262.41068,56.82166 263.32132,56.82166 264.17465,56.82166C265.11465,56.82166 266,56.82166 266.79999,56.82166C267.69998,56.82166 268.60001,56.82166 269.5,56.82166C270.38934,56.82166 271,57.17882 271,58.02166C271,58.92165 271.17355,59.85991 270.91467,60.62165C270.61292,61.50957 270.11615,62.26299 269.716,63.02166C269.26328,63.88004 268.87201,64.45641 268,64.98832C267.36276,65.37702 266.53421,66.01906 266.16666,66.82166C265.82651,67.56438 265.99704,68.63729 266.80133,68.82032C267.67758,69.01972 268.61963,68.8236 269.39999,68.39632C270.22253,67.94595 271.10001,67.82166 272,67.82166C272.79999,67.82166 273.56546,67.71708 274.05716,67.17432C274.58783,66.58854 275.33249,65.9847 276.02084,65.82166C276.97729,65.59512 277.65451,65.0721 278.29999,64.52615C279.05576,63.88692 279.60898,63.31443 280.35718,62.87882C281.08728,62.45374 282.12402,62.62857 282.69998,62.11716C283.43225,61.46693 284.22565,61.13403 285,60.48832C285.50873,60.0641 285.66849,59.19207 286.39999,58.46832C287.0947,57.78098 288.10016,57.82166 288.88531,57.82166C289.82532,57.82166 290.83334,57.82166 291.58932,57.82166C292.5,57.82166 293.39999,57.82166 294.29999,57.82166C295.19867,57.82166 296,57.98832 296,58.70832C296,59.64699 296.23294,60.71548 295.92801,61.41099C295.54456,62.28556 294.59946,62.4544 293.88531,63.02299C293.25638,63.52374 292.78168,64.52863 292.29999,65.11182C291.69232,65.84753 290.87268,66.23054 290,66.65499C289.24606,67.02168 288.51788,67.60203 287.66666,67.82166C287.00095,67.99342 285.82898,67.5249 285.04816,67.83066C284.27255,68.13436 283.91263,69.12668 283.02148,69.57866C282.25928,69.96526 281.3804,69.81972 280.60001,70.24699C279.77744,70.69736 278.83942,70.62349 278,70.98832C277.31543,71.28585 276.78323,72.24783 276,72.65499C275.25613,73.04168 274.2626,73.3203 274,74.15499C273.75415,74.93639 273.32996,75.42535 272.56799,75.90432C271.86008,76.3493 272,77.42165 272,78.30082C272,79.25765 272.07568,80.12495 271.99866,81.02299C271.91498,81.99879 271.53354,82.63108 271.284,83.33765C270.91205,84.39092 270.41086,85.13957 270.12149,85.92165C269.80637,86.77339 270,87.62166 270,88.52165C270,89.46449 270,90.34249 270,91.22166C270,92.12166 270,93.02165 270,93.92165C270,94.82166 270.1243,95.59908 270.57468,96.42165C271.00195,97.20204 271,98.12166 271,99.02165C271,99.92149 271,100.79633 271,101.62299C271,102.52165 271,103.42165 271,104.32166C271,105.22166 271,106.12166 271,107.02165C271,107.92165 271.09204,108.8343 270.94284,109.57882C270.75836,110.49924 270.14435,111.22058 270,112.17883C269.87466,113.01094 269.37231,113.56927 269.02084,114.34249C268.65695,115.14308 268.99994,116.12166 269,117.02165C269.00009,117.92182 269.04846,118.72098 269.35718,119.47882C269.66809,120.24203 270.19144,121.22266 270.564,121.94965C270.99173,122.78429 271.95441,122.39369 272.71466,122.90699C273.38235,123.3578 273.64639,124.3508 274.00449,125.17883C274.35745,125.995 274.73923,126.70083 274.97467,127.63632C275.18784,128.48328 275.66968,129.21909 276.28534,129.73766C276.95065,130.29805 277.84515,130.58948 277.98932,131.42166C278.14297,132.3085 278,133.30083 278,134.17882C278,135.02165 278,135.92166 278,136.82166C278,137.62166 278,138.52165 278,139.42166C278,140.32166 278.0719,141.25348 278.57468,141.84698C279.11151,142.48068 279.45752,143.34708 279.94733,144.11716C280.38837,144.81059 280.9472,145.21718 281.42532,145.79633C281.96552,146.45068 282.63879,146.87938 283.08398,147.62299C283.56549,148.42723 283.88385,149.26299 284.284,150.02165C284.73672,150.88004 284.54956,151.70023 285.11432,152.46449C285.59433,153.11406 286.58521,153.21675 287.28534,153.73766C287.98334,154.25697 288.93823,154.30226 289.64282,154.87433C290.26129,155.37646 290.95355,155.77548 291.86133,155.83232C292.52026,155.87358 293.47903,156.37308 294.16666,156.82166C294.9567,157.33704 295.7623,157.76123 296.03601,158.43233C296.36847,159.24744 297.32428,159.68484 298,159.82166C298.98328,160.02074 299.65451,160.57121 300.29999,161.11716C301.05576,161.75639 301.60931,162.32829 302.35718,162.7645C303.08704,163.1902 303.99118,163.1617 304.5,163.82166C305.08987,164.58675 305.82126,164.87277 306.564,165.39632C307.35745,165.9556 307.98361,166.43449 308.97849,166.70015C309.77936,166.91402 310.69705,166.88452 311.41068,167.24699C312.3175,167.7076 313.17435,167.77415 313.89917,168.17432C314.71179,168.62296 315.53311,168.68456 316.14801,168.90565C317.14368,169.26367 317.95389,169.44873 318.64734,169.87881C319.38058,170.33357 319.43359,171.51355 320.39999,171.78566C321.26718,172.02985 322.04163,172.13821 322.79999,172.53766C323.58865,172.95308 324.53549,173.01715 325.13867,173.43233C325.97595,174.00864 325.91788,175.02542 326.00015,175.92166C326.08383,176.8331 326.76752,177.3461 327.47916,177.80083C328.06665,178.17622 328.22763,179.12727 327.64282,180.05998C327.17752,180.80211 326.18951,180.72055 325.36398,180.85765C324.4924,181.0024 323.65469,181.4752 322.75717,181.76898C321.90192,182.04892 321.34592,182.63153 320.39999,182.81099C319.51572,182.97876 318.56519,182.57878 317.7045,182.82616C316.93661,183.04688 316.47934,183.81123 315.60001,183.82166C314.69556,183.83237 313.67438,183.87965 313,183.80083C312.00806,183.68488 311.55496,183.00046 310.97467,182.25766C310.51584,181.67036 309.68973,181.20337 308.79999,180.90698C307.94232,180.62129 306.9744,181.13654 306.60001,181.68298C305.95438,182.62531 305.62219,183.20789 304.80133,183.73766C304.0712,184.20886 303.73651,185.04115 303.19867,185.62166C302.62262,186.24339 301.97787,187.02255 301.29999,187.46449C300.56607,187.94295 299.68207,188.4108 298.89999,188.70015C298.04825,189.01527 297.19955,188.84964 296.28534,188.82166C295.35135,188.79306 295.01895,188.11697 295,187.22165C294.97958,186.2572 294.35437,185.83313 293.68668,185.82298C292.57196,185.80605 291.5795,185.82166 291.03732,185.82166C289.91599,185.82166 289.35883,185.82166 287.83334,185.82166C287.02798,185.82166 286.39066,185.82166 285.492,185.82166C284.5,185.82166 283.67865,185.82225 282.82532,185.82166C281.884,185.82098 280.81931,185.68706 280.17465,185.38565C279.46689,185.05473 278.68869,184.29292 277.83334,183.98833C277.03635,183.70451 276.02148,183.82166 275.20132,183.82166C274.35718,183.82166 274.00418,183.2523 274,182.46982C273.99466,181.46828 273.465,180.67479 272.60001,180.83232C271.6496,181.0054 271.17841,181.69466 270.69998,182.47432C270.28073,183.15755 269.71423,184.07764 269.19998,184.62032C268.51843,185.33957 267.90228,185.92397 267.29999,186.52165C266.60266,187.21365 265.68451,187.5677 265.08398,188.10565C264.48782,188.63971 263.86743,189.24387 263.436,189.97099C262.93564,190.81435 262.3439,191.39656 262.02533,192.23232C261.68927,193.11397 261.54932,193.86615 261,194.65498C260.53506,195.32263 259.48752,195.62296 258.86133,195.84698C257.92572,196.18173 257.4314,197.02278 256.81467,197.42166C255.88643,198.02202 255.29187,198.43593 254.39999,198.84698C253.58768,199.22136 252.90318,199.72668 252,199.82166C251.24484,199.90106 250.32576,200.13866 249.65266,200.52615C248.71954,201.06334 248.13791,201.64272 247.17467,201.78566C246.17694,201.93372 245.37419,201.7946 244.51599,201.82298C243.65134,201.85158 242.73206,202.14912 242.20132,202.62299C241.46288,203.2823 240.86766,204.12418 240.24283,204.46449C239.41345,204.91621 238.45457,204.62067 237.5,204.86333C236.61418,205.0885 236.03682,205.86989 235.48399,206.25366C234.57404,206.88536 233.78119,207.32214 233,207.65498C232.24846,207.97519 231.16333,207.70271 230.52083,208.34248C229.87669,208.98389 229.68895,209.86621 229.284,210.62166C228.87877,211.37762 228.38187,212.13199 228.08533,213.02165C227.79945,213.8793 228.00377,214.82167 228,215.57883C227.9955,216.48335 227.95441,217.30968 227.55733,218.24283C227.20796,219.06383 226.76218,219.51659 226.24283,220.67865C225.93019,221.37819 225.38187,222.13199 225.08533,223.02165C224.79945,223.8793 225.18163,224.8627 224.91466,225.62166C224.64694,226.38275 223.3558,226.61174 223.02083,227.34248C222.65424,228.1422 222.67656,228.99988 222.2955,229.63599C221.74414,230.55638 221.55437,231.31363 221.28532,231.96832C220.83365,233.06746 220.13748,233.56848 219.61066,234.22165C219.0098,234.9666 219,235.92166 219,236.82166C219,237.62166 219.01183,238.47314 218.716,239.30565C218.40237,240.18826 218.18001,241.11621 217.77866,241.92166C217.39638,242.68883 217.05786,243.49377 216.64732,244.17882C216.17943,244.95956 215.96118,245.95522 215.2955,246.46449C214.61798,246.98282 214.08052,247.49716 213.564,248.22165C213.00388,249.00726 212.39999,249.42166 211.7,250.12166C211,250.82166 210.42012,251.42749 209.59999,251.79633C208.81844,252.14781 208.41855,253.00903 207.83066,253.53632C207.17682,254.12274 206.32213,254.26324 205.64282,254.76898C204.91484,255.31096 204.0098,255.70535 203.3,255.81715C202.40775,255.9577 201.77885,256.58905 201.3,257.11633C200.6012,257.88583 199.59999,257.82098 198.7,257.82166C197.80133,257.82233 197.23706,258.23062 196.55699,258.92166C196.05197,259.43484 195.00372,259.82928 194.4045,260.11716C193.66167,260.474 192.56813,260.65381 191.8,261.10699C191.11842,261.50912 190.49423,262.29114 189.7045,262.76898C189.04776,263.16635 188.28333,263.69882 188.01067,264.43231C187.70784,265.24692 187.22893,265.35797 186.43599,265.89365C185.70273,266.38901 186.22581,267.37079 185.96399,268.41098C185.74333,269.28763 184.95871,269.7851 184.39999,270.45764C183.85796,271.11011 183.34273,271.96582 183.12149,272.80014C182.90903,273.60138 182.93999,274.58051 182.29466,275.12164C181.61877,275.68842 180.98534,276.38565 180.284,276.82031L179.564,277.24698" id="svg_1" stroke-width="3" stroke="#000" fill="none"/>
  <path t="32937,33189,33189,33208,33226,33237,33260,33283,33299,33324,33350,33372,33373,33420,33436,33476,33476,33500,33524,33524,33550,33598,33623,33640,33640,33645,33652,33652,33718,33742,33814,33814,33853,33854,33886,33886,33907,33923,33933,33934,33964,33996,34020,34036,34036,34060,34124,34124,34206,34262,34966,34974,34998,35070,35142,35173,35174,35188,35254,35390,35454,35502,35653,35654,35678,35707,35724,35830,35872,35998,36029,36050,36069,36069,36092,36093,36124,36124,36133,36150,36206,36206,36254,36278,36341,36374,36374,36428,36437,36437,36460,36483,36516,36572,36580,36598,36628,36628,36700,36724,36764,36764,36788,36836,36928,36959,36990,37029,37287,37607,37671,37767,37863,37904,37942,38054,38109,38109,38165,38184,38201,38229,38251,38309,38445,38445,38541,38541,38580,38604,38740,38749,38781,38844,38844,38908,38966,39006,39038,39070,39090,39091,39123,39144,39158,39170,39212,39212,39303,39303,39324,39364,39364,39405,39405,39446,39474,39487,39487,39516,39631,39685,39717" d="M141,287.82166C142,286.82166 142,286.02167 142,285.12164C142,284.22165 142,283.32166 142,282.42166C142,281.52167 141.83792,280.52161 142.35266,279.87433C142.845,279.25522 143.34653,278.51202 143.80133,278.02167C144.46396,277.30725 144.79535,276.44882 145.28532,275.62164C145.68863,274.94077 146.4176,274.43884 147.09982,273.72165C147.65756,273.13531 147.93474,272.28958 148.35266,271.52167C148.81035,270.68069 149.12651,269.78976 149.61066,269.22165C150.24583,268.47632 150.71664,267.77524 151.084,267.02167C151.49062,266.18756 152.50462,265.96606 153.09999,265.37881C153.73729,264.75021 154.07246,263.81955 154.59999,263.23233C155.26662,262.49026 155.7235,261.93268 156.5,261.3425C157.23798,260.78162 158.12799,260.633 158.7,260.11716C159.4272,259.46136 159.69809,258.44064 160.35716,257.87433C161.04591,257.2825 161.80034,257.02066 162.39999,256.42166C163.10022,255.72221 163.81787,255.23222 164,254.32166C164.16812,253.48114 163.74643,252.25462 164.43599,251.85765C165.18172,251.42834 165.79053,251.27711 166.35716,250.52615C166.862,249.8571 167.8,249.82233 168.7,249.82166C169.59999,249.821 170.5,249.8239 171.39999,249.82166C172.30002,249.8194 173.12439,249.40594 173.8,249.10565C174.65504,248.7256 174.99933,249.62299 175,250.52165C175.00067,251.42166 175,252.32166 175,253.22165C175,254.12166 175,255.02299 175,255.98833C175,256.82166 175,257.655 175,258.57431C175,259.47433 175.00244,260.16898 175,261.18567C174.99774,262.12164 174.61392,262.96002 174.284,263.62164C173.86343,264.46503 174,265.42166 174,266.3425C174,267.30566 174.10236,268.00204 173.99866,268.93631C173.88727,269.93976 173.55185,270.63986 172.97467,271.38565C172.49054,272.0112 171.71619,272.50156 171.084,273.10565C170.50803,273.65601 169.65129,273.99783 169.16666,274.82166C168.78264,275.47443 168.13354,276.04486 168,276.87433C167.84711,277.82397 167.25613,278.35962 167.036,279.22165C166.79092,280.1813 166.27441,280.69556 166.01067,281.43231C165.71091,282.26968 165.98933,283.211 165.5,283.82166C165.01067,284.43231 164.84023,285.33789 165.01067,286.22165C165.1925,287.16449 165.99448,287.68887 166.916,287.82166C167.71231,287.9364 168,288.82166 168,289.62164C168,290.52167 168,291.42166 168,292.32166C168,293.22165 167.99992,294.12164 168,295.02167C168.00009,295.92181 168.0201,296.73349 168.35716,297.46982C168.73167,298.28793 169.59981,298.81097 170.5,298.82166C171.39993,298.83231 172.30473,298.91251 173.2,298.82031C174.0126,298.73663 174.79778,298.16608 174.97916,297.32166C175.16821,296.4415 175,295.52167 175,294.62164C175,293.72165 175,292.82166 175,292.02167C175,291.12164 175,290.22165 175,289.32166C175,288.3425 175.37177,287.71939 176,287.30081C176.89276,286.70596 176.99866,285.93631 177,284.99631C177.00143,283.98831 177,283.19632 177,282.33765C177,281.47433 176.9135,280.39069 177.43599,279.83633C178.095,279.13712 178.59999,278.67233 179.2955,277.93149L179.97467,277.39633L180.52083,276.8425L181.39999,276.81097" id="svg_2" stroke-width="3" stroke="#000" fill="none"/>
  <path t="41254,41290,41312,41328,41331,41354,41363,41395,41427,41427,41447,41463,41479,41479,41507,41507,41515,41528,41531,41545,41547,41547,41562,41564,41578,41580,41587,41611,41635,41677,41677,41696,41713,41715,41729,41746,41771,41796,41814,41820,41859,41892,41901,41901,41921,41921,41921" d="M229,193.82166C229.99866,192.10699 230,191.21098 230,190.32166C230,189.43233 230,188.46449 230,187.62166C230,186.72165 229.81425,185.77916 230.08533,185.02165C230.40779,184.12054 231.34016,183.71585 231.83333,182.82166C232.19908,182.15848 233,181.82166 233.8,181.82166C234.7,181.82166 235.43509,181.65509 236.05266,181.17432C236.71672,180.65735 237.76895,180.86108 238.47916,180.80083C239.50667,180.71365 240.1593,179.94751 240.97467,179.82166C241.79599,179.69489 242.42159,179.11844 243.39999,178.85765C244.27052,178.62561 245.03665,178.49553 245.8,178.10565C246.55289,177.72112 247.5,177.82166 248.39999,177.82166C249.3,177.82166 250.2,177.82166 251.09982,177.82166C252.02533,177.82166 252.80151,177.84 253.71466,177.82166C254.61121,177.80365 255.35472,177.25995 256.3215,176.94299C256.99597,176.72188 258,176.65498 258.81067,176.38565L259.45715,176.11716" id="svg_3" stroke-width="3" stroke="#000" fill="none"/>
  <path t="42470,42523,42532,42555,42573,42573,42590,42590,42600,42603,42612,42635,42650,42650,42666,42666,42678,42694,42711,42738,42771,42771,42796,42796,42819,42829,42845,42851,42867,42877,42883,42883,42906,42931,42963,42978,43044,43071,43071,43099,43099,43139,43139,43164,43195,43204,43219,43251,43267,43283,43315,43347,43347,43371,43398,43419,43430,43451,43467,43483,43499,43499,43513,43563,43587,43587" d="M233,163.82166C232.42532,162.22165 232.09969,161.41655 231.9955,160.51715C231.89455,159.64569 231.41747,158.8501 231.16666,157.98833C230.92151,157.146 231.00533,156.22163 231,155.32166C230.99466,154.42162 230.55025,153.71309 230.16666,152.82166C229.8606,152.11037 230,151.16899 230,150.30565C230,149.34248 230,148.42166 230,147.52165C230,146.62166 230,145.72148 230,144.93633C230,143.99632 230,143.30565 230,142.23232C230,141.32166 230,140.42166 230,139.52165C230,138.62166 230,137.72165 230,136.82166C230,136.02165 229.96309,135.06009 230.5,134.34248C231.00368,133.6693 231.7045,133.11716 232.3,132.52165C233,131.82166 233.63405,131.20926 234.09999,130.50032C234.53267,129.842 235.07127,129.03659 235.564,128.23232C236.03622,127.46149 236,126.52165 236,125.62166C236,124.72166 236,123.82166 236,122.98832C236,122.11716 236,121.30082 236,120.33765C236,119.47432 236.09801,118.51437 235.57466,117.84698C235.08545,117.22313 234.57878,116.56274 234.12132,115.72182C233.71475,114.97446 232.89999,114.82166 232,114.82166C231.2,114.82166 230.28532,114.73632 229.7785,113.94315L228.89999,113.82149L228.2,113.73632" id="svg_4" stroke-width="3" stroke="#000" fill="none"/>
  <path t="44494,44541,44541,44571,44590,44590,44606,44606,44685,44685,44699,44699,44757,44785,44787,44804,44815,44828,44829,44877,44877,44908,44981,44981,45005,45009,45025,45025" d="M233,166.82166C233,167.82166 233,168.62166 233,169.57883C233,170.47882 233.02184,171.22643 232.99866,172.22032C232.9808,172.98624 232.61923,173.89075 232.284,174.70566C231.9126,175.60847 232.14058,176.47333 231.5,177.27998C230.93895,177.9865 230.02859,178.17737 230,179.02165C229.96953,179.92114 230.24216,180.91547 229.82933,181.62166C229.37166,182.40456 228.43599,182.54372 227.98534,183.45766C227.59184,184.25565 227.42532,184.99632 227.08533,185.93633L227,186.92166L227,187.82166L226.88567,188.57883" id="svg_5" stroke-width="3" stroke="#000" fill="none"/>
  <path t="45934,45988,45997,46023,46023,46023,46042,46042,46042,46050,46051,46051,46062,46066,46082,46094,46111,46114,46127,46127,46145,46187,46210,46219,46228,46228,46235,46259,46299,46311,46315,46347,46347,46379,46379,46444,46472,46492,46531,46531,46548,46564,46572,46583,46619,46619,46619,46635,46635,46646,46650,46651,46661,46661,46678,46678,46694,46694,46722,46722,46820,46820,46840,46884,46884,47012,47122,47143,47292,47292" d="M267,136.82166C267,138.62166 267,139.49365 267,140.36465C267,141.09366 267,141.93065 267,143.12149C267,144.01099 267,144.58566 267,145.65498C267,146.57498 267,147.33499 267,148.411C267,149.22165 267,150.22165 267,151.12166C267,152.02165 267,152.92166 267,153.82166C267,154.62166 266.9696,155.48155 267.42532,156.25766C267.88474,157.04002 268,157.92166 268,158.82166C268,159.62166 267.81625,160.54814 268.03601,161.42166C268.25305,162.28447 268.60812,163.12703 269.28534,163.73766C269.93155,164.32033 270.71887,164.57059 271.19998,165.30432C271.72076,166.09857 272.29456,166.76437 273.19998,166.82166C274.09821,166.87848 275,166.82166 275.79999,166.82166C276.69998,166.82166 277.61945,166.65521 278.5,166.84248C279.35291,167.02388 280.14368,167.86418 280.836,168.21098C281.57953,168.58344 282.41452,168.65428 283.34283,168.87433C284.26593,169.09314 285.0751,169.51202 285.69998,169.93149C286.55237,170.50366 286.81183,171.41238 287.65717,171.70732C288.36978,171.95595 289.39999,171.82159 290.19998,171.82166C291.19983,171.82175 292.20276,171.73322 292.97849,172.04298C293.75302,172.35228 294.69788,172.7863 295.19867,173.39099C295.77258,174.08395 295.94284,175.05998 296.2215,175.82166L297.10001,175.82166L298,175.82166L298.79999,175.82166" id="svg_6" stroke-width="3" stroke="#000" fill="none"/>
  <path t="49104,49203,49222,49231,49300,49324,49324,49356,49365,49412,49446,49452,49508,49564,49588,49590,49609,49635,49650,49660,49660,49666,49666" d="M257,176.82166C260.45834,176.82166 261.29999,176.82166 262.19867,176.82166C263.16666,176.82166 264,176.82166 264.79999,176.82166C265.69998,176.82166 266.60001,176.82166 267.5,176.82166C268.39999,176.82166 269.29999,176.82166 270.19998,176.82166C271.10001,176.82166 272.13821,176.4994 272.83334,176.98833C273.54761,177.49072 274.29321,177.60162 274.91733,178.10699C275.67068,178.71701 276,179.32166 276.75732,179.92166L277.168,180.62166" id="svg_7" stroke-width="3" stroke="#000" fill="none"/>
  <path t="52510,52612,52638,52638,52658,52658,52658,52658,52658,52675,52675,52675,52686,52686,52698,52698,52730,52730,52762,52762,52762,52778,52778,52836,52836,52854,52871,52885,52914,52946,52971,53026,53055,53074,53107,53107,53136,53154,53179,53203,53235,53251,53251,53291,53322,53337,53354" d="M230,103.82166C231.75716,103.87882 232.67,104.17516 233.28267,104.46832C234.34013,104.97433 234.97113,105.30096 235.65067,105.65765C236.35263,106.02612 237.05827,106.38422 237.95683,107.02149C238.7417,107.57813 239.34952,108.14896 240.11467,108.93765C240.59946,109.43736 241.12244,110.36406 241.636,110.96032C242.23848,111.65981 243.21109,111.78563 244.2,111.82199C245.00052,111.85143 245.64903,111.90966 246.59549,112.52699C247.19968,112.92107 247.95287,113.69633 248.79866,113.81898C249.69067,113.94833 250.70212,113.42435 251.564,113.85766C252.2224,114.18867 252.43164,115.21781 252.916,116.02032C253.36302,116.76099 254.2,116.82166 255.09999,116.82166C256,116.82166 256.79999,116.82166 257.69998,116.82166C258.60001,116.82166 259.51608,116.98069 260.39999,116.81099C261.34708,116.62916 262.06769,115.87868 262.47916,115.32166C263.08405,114.50278 263.436,113.85766 264.39999,113.81099L265.19867,113.53632" id="svg_8" stroke-width="3" stroke="#000" fill="none"/>
  <path t="53957,54028,54029,54036,54054,54065,54066,54067,54067,54081,54097,54114,54115,54163,54163,54186,54187,54189,54190,54268,54268,54287,54288,54301,54313,54313,54412,54439,54491,54499,54521,54522,54536,54546,54548,54562,54578,54587,54587,54602,54603,54642,54676,54676,54707,54722,54820,54932,54932,54981,55014,55014,55014" d="M230,89.82166C231,89.82166 231.80017,89.80436 232.7,89.82166C233.63652,89.83966 234.47391,90.13597 235.21066,90.39632C236.1862,90.74107 237.06862,90.61062 237.89017,91.17432C238.57835,91.64652 239.33821,92.00748 240,92.34249C240.85764,92.77665 241.46521,93.37246 242.32133,93.92149C242.9758,94.34119 243.94724,94.40533 244.71333,94.90565C245.52763,95.43745 246.02066,95.81123 246.9785,95.82166C247.79861,95.83057 248.75844,95.77807 249.64816,95.82616C250.43369,95.86861 251.04865,96.67785 251.94733,96.82166C252.69499,96.94129 253.636,96.82166 254.48399,96.82166C255.34734,96.82166 256.40021,97.07439 257.2955,96.81715C258.06342,96.59652 258.53668,95.85491 259.3045,95.46899C260.18646,95.0257 260.82687,94.88837 261.83334,94.82166C262.71552,94.76318 263.22952,94.11537 264,93.65499C264.71948,93.22507 264.93668,92.26211 265.61066,91.79633C266.34265,91.29046 267.19617,90.80347 267.64282,90.17883C268.15671,89.46016 268.66415,88.72166 269.28665,88.42165L269.99918,88.12166" id="svg_9" stroke-width="3" stroke="#000" fill="none"/>
  <path t="55726,55770,55779,55779,55802,55826,55874,55905,55905,55917,55962,55985,55985,56011,56058,56088,56100,56122,56131,56154,56187,56235,56276,56276,56303,56339,56371,56371,56411,56411,56444,56484,56484,56531,56579" d="M249,84.82166C250.7,83.71182 251.17084,83.0284 251.71466,82.38966C252.30878,81.69186 252.8829,81.23562 253.35716,80.52165C253.88303,79.73 254.53366,79.08322 255.38933,78.85766C256.3262,78.61068 257.06357,78.35175 257.60001,77.67233C258.16205,76.96048 258.85123,76.48486 259.42532,75.84698C259.9462,75.26826 260.71417,75.2202 261.564,74.78565C262.26083,74.42934 262.85135,73.80898 263.5,73.30082C264.26776,72.69935 264.74567,71.9607 265.39999,71.43232C266.14514,70.83057 267.09595,70.59428 267.63599,70.21099C268.47754,69.61374 269.16095,69.21864 270.11465,68.90565C270.98892,68.61874 271.69998,68.17432 272.5,67.84249L273.38934,67.82166" id="svg_10" stroke-width="3" stroke="#000" fill="none"/>
  <path t="57167,57388,57429,57455,57508,57540,57570,57628,57654,57654,57699,57700,57739,57768,57772,57811,57812,57835,57851,57874,57924,57933,57933,57972,58052,58074,58100,58132,58148,58166,58181,58181,58181,58189,58203,58220,58236,58251,58251,58251,58262,58263,58267,58267" d="M252,82.82166C252,84.62166 251.6066,85.63505 252.036,86.38566C252.43109,87.0763 253.59999,86.82166 254.5,86.82166C255.39999,86.82166 256.31604,86.86207 256.97067,86.73632C258.01697,86.53534 258.84793,86.40702 259.63565,85.72182C260.31888,85.12752 260.79047,84.47746 261.2215,83.72166C261.60306,83.05256 262.56183,82.55598 262.99548,81.76899C263.40875,81.019 263.78558,80.3797 264.28534,79.62299C264.6875,79.01407 265.71472,78.83307 266.61066,78.82166C267.47934,78.81059 267.85165,78.09073 268.436,77.43232C269.05124,76.73912 269.79077,76.32588 270.66415,75.94299C271.241,75.69009 272.30042,75.91036 273.18115,75.46899C274.00821,75.05451 274.73422,74.81331 275.52084,74.30082C276.19461,73.86185 276.81018,73.36327 277.60132,73.10699C278.57587,72.79128 279.39999,72.82616 280.39999,72.82032L281.19998,72.78565" id="svg_11" stroke-width="3" stroke="#000" fill="none"/>
  <path t="59501,59540,59572,59572,59612,59639,59639,59667,59667,59723" d="M246,72.82166C247.7,72.70732 248.27754,72.09748 248.8,71.30432C249.28406,70.56945 250.16666,69.98832 250.81467,69.83632L251.75716,69.37899L252.01466,68.67233L252.42532,67.89365" id="svg_12" stroke-width="3" stroke="#000" fill="none"/>
  <path t="66990,67068,67091,67091,67119,67134,67134,67134,67144,67169,67169,67202,67211,67211,67241,67241,67265,67281,67333,67333,67350,67350,67361,67361,67361,67393,67393,67401,67410,67433,67433,67450,67450,67466,67466,67478,67482,67497,67510,67527,67527,67544,67561,67561,67562,67570,67586,67586,67626,67650,67650,67690,67698,67723,67724,67770,67786,67827,67853,67865,67882,67906,67906,67915,67915,67946,68011,68011,68011" d="M176,244.82166C176,243.06448 175.87877,242.1478 176.08533,241.30565C176.30627,240.40485 177.00687,239.6591 177.39999,238.99632C177.80716,238.30984 178.39081,237.44885 179,236.82166C179.5912,236.21298 180.41302,235.59793 180.83333,234.82166C181.19392,234.15565 181.97174,233.60995 182.59999,233.24699C183.44565,232.75842 183.94312,232.23024 184.56799,231.62032C185.2227,230.98129 185.8015,230.32642 186.05066,229.61099C186.40062,228.60612 186.84622,228.01855 187.35182,227.47882C188.09308,226.68753 188.81578,226.14915 189.59999,225.79633C190.42007,225.42737 191.06764,224.68436 191.636,224.22165C192.44157,223.56581 193.19847,223.25803 193.9785,222.72182C194.71968,222.21231 195.49983,221.83273 196.38933,221.82166C197.28394,221.81052 197.80493,221.2915 198.28667,220.62299C198.74931,219.98096 200.01091,220.13408 200.66666,219.48833C201.29874,218.86588 201.45399,218.09288 202.19867,217.53632C202.96426,216.96413 203.28697,216.33383 203.87866,215.60016C204.39975,214.95404 204.75046,214.1637 205.2955,213.52165C205.93619,212.76694 206.0546,211.71155 206.61066,211.25766C207.36349,210.64316 207.83879,210.22993 208.01067,209.38565C208.19603,208.4751 208.65489,207.5779 209.2215,206.94283C209.82164,206.27016 210.47838,205.99626 210.83333,204.98833C211.09242,204.25261 211.43599,203.411 212,202.65498L212.39999,201.99632L212.8,201.30565" id="svg_13" stroke-width="3" stroke="#000" fill="none"/>
  <path t="79737,79861,79862,79870,79889,79902,79914,79914,79929,79929,79962,79962,79986,80045,80076,80098,80098,80114,80130,80154,80154,80164,80170,80194,80202,80261,80270,80293,80294,80310,80310,80331,80331,80339,80351,80364,80371,80381,80381,80402,80412,80418,80442,80450,80462,80479,80482,80482,80498,80498,80513,80515,80528,80529,80531,80546,80546,80548,80548,80554,80564,80579,80602,80613,80618,80618,80628,80646,80646,80650,80650,80674" d="M230,211.82166C231,211.82166 231.8,211.82166 232.7,211.82166C233.59999,211.82166 234.52083,211.82166 235.48534,211.82166C236.21066,211.82166 237.19983,211.82166 237.97916,211.82166C238.9785,211.82166 239.79866,211.82166 240.71466,211.82166C241.61066,211.82166 242.52083,211.82166 243.48399,211.82166C244.17467,211.82166 245.24283,211.82166 246.09999,211.82166C247,211.82166 247.8,211.82166 248.7,211.82166C249.59999,211.82166 250.5,211.82166 251.38933,211.82166C252.35716,211.82166 253.2,211.82166 254.10033,211.82166C254.81433,211.82166 255.76799,211.82166 256.74933,211.82166C257.66666,211.82166 258.45834,211.82166 259.39999,211.82166C260.29999,211.82166 261.19998,211.82166 262.10001,211.82166C263,211.82166 263.79999,211.82166 264.69998,211.82166C265.60001,211.82166 266.5,211.82166 267.39999,211.82166C268.29999,211.82166 269.19998,211.82166 270.10001,211.82166C271,211.82166 271.75717,211.82166 272.65265,211.82166C273.51599,211.82166 274.47916,211.82166 275.41068,211.82166C276.32132,211.82166 277.17465,211.82166 278.11465,211.82166C279,211.82166 279.75717,211.82166 280.65265,211.82166C281.51599,211.82166 282.47916,211.82166 283.39999,211.82166C284.2955,211.82166 285.2215,211.82166 286.10001,211.82166C287,211.82166 287.79999,211.82166 288.75717,211.82166C289.65717,211.82166 290.40451,211.82166 291.39865,211.82166L292.164,211.82166L293.24731,211.82166" id="svg_15" stroke-width="3" stroke="#000" fill="none"/>
  <path t="81480,81540,81548,81548,81556,81556,81580,81584,81584,81584,81601,81601,81635,81650,81666,81666,81682,81706,81706,81933,81933,81955,81955,81968,81968,81968,81968,81968,81968,81971,81971,81971,81982,81987,81987,81987,82002,82002,82013,82013,82028,82028,82044,82044,82065,82089,82089,82121,82121,82195,82221,82231,82231,82247,82265,82265,82265,82281,82281,82297,82297,82313,82313,82328,82345,82345,82354,82369,82385,82385,82401,82417,82417,82428,82433,82449,82465,82481,82481,82494,82495,82497,82497,82513,82513,82527,82527,82537,82537,82546,82546,82553,82569,82569,82578,82585,82585,82594,82594,82601,82601,82617,82633,82633,82644,82645,82649,82661,82677,82681,82694,82694,82711,82711,82713,82713,82727,82737,82737,82753,82761,82761,82793,82801,82817,82833,82849,82865,82877,82897,82897,82913,82927,82944,82953,82953,82962,82962,82977,82994,83001,83001,83011,83033,83049,83073,83097,83097" d="M296,211.82166C297.02084,211.82166 297.97867,211.82166 298.884,211.82166C299.82532,211.82166 300.52155,211.9084 301.52084,211.80083C302.55615,211.68938 303.24667,211.38246 303.99466,211.17432C305.0242,210.88782 305.79733,210.82233 306.69998,210.82166C307.63599,210.82097 308.48401,210.82166 309.34732,210.82166C310.37466,210.82166 311.32132,210.82166 312,210.82166C312.97867,210.82166 313.75266,210.82166 314.67517,210.82166C315.35468,210.82166 316.66666,210.82166 317.53601,210.82166C318.01065,210.82166 319,210.82166 319.98932,210.82166C320.46399,210.82166 321.71384,210.82166 322.64532,210.82166C323.50934,210.82166 324.52084,210.82166 325.54266,210.82166C326.25067,210.82166 326.99466,210.82166 328.03067,210.82166C328.88266,210.82166 329.836,210.82166 330.60132,210.82166C331.60001,210.82166 332.39999,210.82166 333.39865,210.82166C334.164,210.82166 335.24731,210.82166 336.16666,210.82166C337,210.82166 337.83334,210.82166 338.6955,210.82166C339.60001,210.82166 340.52084,210.82166 341.48401,210.82166C342.17465,210.82166 343.26736,210.9055 344.16666,210.65498C344.85791,210.46242 345.59204,210.06142 346.59549,209.87433C347.33743,209.73599 348.23911,209.45248 348.884,209.02032C349.80328,208.40431 350.28174,207.87152 351.05066,207.25766C351.75714,206.69366 352.54776,207.04196 353.58932,206.78566C354.46259,206.57079 355.19751,205.86554 355.88531,205.82298C356.82352,205.76492 357.83334,205.82166 358.6955,205.82166C359.60001,205.82166 360.5,205.82166 361.39999,205.82166C362.29999,205.82166 363.20132,205.82166 363.88531,205.82166C364.836,205.82166 365.60132,205.82166 366.60001,205.82166C367.39999,205.82166 368.39999,205.82166 369.19998,205.82166C370.19983,205.82166 370.97916,205.82166 371.97867,205.82166C372.884,205.82166 373.82532,205.82166 374.51599,205.82166C375.5,205.82166 376.48401,205.82166 377.34732,205.82166C378.24731,205.82166 379.16666,205.82158 380,205.82166C380.97867,205.82175 381.76584,205.84131 382.65265,206.17432C383.35907,206.43959 384.24597,206.79306 385.16666,206.82166C385.9996,206.84752 386.97888,206.79568 387.79868,206.82166C388.70132,206.85025 389.42236,207.50789 390.29999,207.7645C391.16684,208.01794 392.16666,207.82166 392.82532,207.82166C393.83334,207.82166 394.62534,207.82166 395.65265,207.82166C396.34732,207.82166 397.37466,207.82166 398.32132,207.82166C399,207.82166 400.11465,207.82166 401,207.82166C401.79999,207.82166 402.69998,207.82166 403.60001,207.82166C404.5,207.82166 405.39999,207.82166 406.29999,207.82166C407.19998,207.82166 408.10001,207.82166 409,207.82166C409.79999,207.82166 410.70004,207.81125 411.60001,207.82166C412.50018,207.83208 413.28189,208.22211 413.97067,208.62299C414.73956,209.0705 415.51669,209.20705 416.5,209.65498C417.32401,210.03035 417.9874,210.73663 418.79999,210.82033C419.70984,210.91403 420.61066,210.82166 421.5,210.82166L422.41068,210.82166L423.32132,210.82199L424,210.86333" id="svg_16" stroke-width="3" stroke="#000" fill="none"/>
  <polyline timestamps="84368,84629,84630" startTime="1502022448306" id="svg_17" points="295.99999618530273,211.8216552734375 294.4306628519694,210.8216552734375 293.64816285196935,210.8216552734375 " stroke-linecap="round" stroke-width="3" stroke="#000" fill="none"/>
  <path t="87788,87899,87899,87918,87918,87929,87929,87929,87944,87944,87945,87945,87961,87961,87970,87985,87985,88017,88017,88027,88075,88075,88102,88153,88163,88195,88219,88219,88236,88236,88252,88252,88260,88260,88280,88281,88304,88313,88313,88326,88329,88337,88344,88361,88369,88384,88408,88408,88427,88457,88497,88510,88561,88602,88618,88629,88629,88700,88724,88732,88813" d="M66,214.82166C67.836,214.82166 68.60133,214.82166 69.6045,214.82166C70.45716,214.82166 71.42133,214.82166 72.22533,214.82166C73.04733,214.82166 74.07833,214.82166 74.95833,214.82166C75.97866,214.82166 76.75266,214.82166 77.65266,214.82166C78.516,214.82166 79.5,214.82166 80.32133,214.82166C81.17466,214.82166 82.11601,214.826 82.884,214.82166C83.82538,214.81631 84.82494,214.63904 85.58933,214.24699C86.38099,213.84096 87.28533,213.82166 88.2,213.82166C89.1,213.82166 90,213.82166 90.75716,213.82166C91.65717,213.82166 92.4045,213.82166 93.39999,213.82166C94.2,213.82166 95.21709,213.94824 95.97916,213.77998C97.03062,213.54784 97.27777,212.5961 98.1,212.06465C98.88292,211.55861 99.8,211.82166 100.7,211.82166C101.6,211.82166 102.5,211.82166 103.39999,211.82166C104.3,211.82166 105.2,211.82166 106.1,211.82166C107,211.82166 107.8,211.82166 108.7,211.82166C109.6,211.82166 110.5,211.82166 111.39999,211.82166C112.3,211.82166 113.2,211.82166 114.1,211.82166C115,211.82166 115.8,211.90698 116.5,212.32166L117.39999,212.78566L118.3,212.82166L119.19866,212.82166" id="svg_18" stroke-width="3" stroke="#000" fill="none"/>
 </g>
</svg>