<svg width="500" height="333.3333333333333" xmlns="http://www.w3.org/2000/svg" xmlns:svg="http://www.w3.org/2000/svg" xmlns:xlink="http://www.w3.org/1999/xlink">
 <!-- Created with SVG-edit - http://svg-edit.googlecode.com/ -->
 <g display="inline" class="layer">
  <title>Layer 1</title>
  <path t="0,218,249,320,362,362,362,534,534,656,656,666,683,699,733,733,804,842,866,937,937,937,982,1010,1010,1033,1084,1122,1149,1166,1166,1183,1188,1199,1290,1334,1370,1383,1599,1599,1626,1649,1666,1682,1682,1732,1732,1793,1860,1906,1949,2010,2010,2021,2042,2090,2307,2354,2400,2400,2426,2458,2499,2516,2516,2549,2599,2657,2658,2689,2716,2749,2786,2799,2826,2826,2848,2849,2940,3072,3099,3099,3116,3116,3165,3165,3166,3241,3266,3327,3438,3438,3474,3600,3600,3618,3707,3722,3777,3777,3949,5137,5253,5274,5723,5769,5817,5817,5838,5838,5866,5866,5882,5922,5932,6003,6003,6032,6032,6049,6082,6174,6199,6521,6567,6653,6653,6757,6757,6786,6809,6841,6987,6987,6987,7016,7032,7057,7058,7058,7137,7158,7199,7242,7833,7942,7978,8132,8132,8272,8356,8386,8432,8453,8453,8474,8498,8589,8633,8648,8759,8939,8939,8950,9009,9019,9033,9048,9065,9081,9081,9417,9417,9442,9465,9481,9481,9552,9552,9573,9598,9598,9631,9723,9754,9754,9770,10025,10048,10048,10064,10064,10199,10199,10242,10409,10409,10409,10605,10770,10809,10810,10850,10850,10989,11049,11155,11181,11372,11372,11401,11434,11434,11522,11562,11794,12009,12009,12009,12113,12137,12138,12391,12401,12431,12449,12481,12532,12561,12562,12598,12631,12823,12858,12858" d="M327.29999,99.86667C327.29999,98.052 327.29999,97.036 327.29999,96.184C327.29999,95.32417 327.29999,94.3875 327.29999,93.72C327.29999,92.57867 327.29999,91.89467 327.29999,90.86584C327.29999,90.15334 327.29999,89.03367 327.29999,88.16217C327.29999,87.34583 327.06213,86.33025 327.35718,85.5765C327.67917,84.75388 328.94373,84.96577 329.29999,84.30417C329.77634,83.41958 329.64691,82.59767 330.01599,81.72C330.39008,80.83042 331.30038,80.89204 332.10001,80.86667C333.00137,80.83807 333.74182,80.32199 334.24734,79.57117C334.71335,78.87903 335.64667,79.01314 336.47467,78.79467C337.33038,78.56889 337.5166,77.39854 338.29999,76.90833C338.98019,76.48269 340,76.86667 340.89999,76.86667C341.77917,76.86667 342.74283,76.86667 343.48532,76.86667C344.54285,76.86667 345.39984,76.86667 346.28534,76.86667C347.172,76.86667 347.90268,76.86667 348.89551,76.86667C349.64282,76.86667 350.664,76.86667 351.60001,76.86667C352.5,76.86667 353.39999,76.86667 354.29999,76.86667C355.10001,76.86667 356,76.86667 356.89999,76.86667C357.77917,76.86667 358.76358,76.6589 359.60001,76.87566C360.48087,77.10395 360.68164,77.98274 361.49866,78.69733C362.13708,79.25572 362.00421,80.23865 362.74283,80.74517C363.36197,81.16974 364.43237,80.67842 365.35266,80.86667C366.1843,81.03678 366.28958,81.88735 366.29999,82.98133C366.30841,83.86663 366.45444,84.78169 367.29999,84.86667C368.21008,84.95813 368.29794,85.581 368.29999,86.46934C368.30225,87.45767 368.24478,88.50967 369.01599,88.864C369.8027,89.22545 370.24664,89.71793 370.28934,90.62666C370.33191,91.53239 370.29999,92.40933 370.29999,93.36667C370.29999,94.14267 370.29999,95.01466 370.29999,96.03333C370.29999,96.8875 370.29999,97.728 370.29999,98.7C370.29999,99.456 370.2789,100.43092 370.30017,101.3095C370.31818,102.05265 370.79944,103.0343 371.13333,103.86667C371.44974,104.6554 371.1918,105.59588 371.38535,106.384C371.60294,107.27006 371.91763,108.33052 372.58533,108.78133C373.34558,109.29463 374.59692,108.26749 375.24283,108.88017C375.85355,109.45947 375.29999,110.62666 375.29999,111.53333C375.29999,112.40933 375.29999,113.3095 375.29999,114.052C375.29999,115.1095 375.75845,116.12757 375.24283,116.86217C374.75653,117.55502 374.47037,117.9437 374.07849,118.84517C373.73386,119.63801 373.08502,120.52762 372.27466,120.856C371.55539,121.14747 370.58591,121.03754 370.29999,121.86667C370.01392,122.69621 369.13333,122.86667 368.29999,122.86667C367.3215,122.86667 366.3573,122.44875 365.65717,122.92384C364.97461,123.38699 365.29999,124.58134 365.29999,125.53083C365.29999,126.3875 365.37244,127.10242 365.29999,128.18401C365.24271,129.0394 364.74521,129.72906 364.27917,130.36667C363.79745,131.02574 362.87289,131.69382 362.336,132.29201C361.87091,132.81018 361,132.86667 360.10001,132.86667C359.20016,132.86667 358.29776,132.87355 357.94733,133.57651C357.55228,134.36896 357.51791,135.33052 357.01468,136.06534C356.47461,136.85394 355.39862,136.85213 354.94284,137.57201C354.5769,138.14998 353.80072,138.84583 352.89999,138.86667C352.00024,138.88748 351.03839,138.59705 350.24734,138.92383C349.5192,139.22462 348.81876,139.81976 347.95267,139.86217C346.94785,139.91136 345.99963,139.99648 345.35266,139.51401C344.67178,139.00626 343.83871,139.18336 343.00449,138.85767C342.22745,138.55429 342.62842,137.28346 341.96667,136.86667C341.24573,136.4126 340.06073,137.29428 339.32535,136.84534C338.65158,136.43401 338.59656,135.47125 338.384,134.46933C338.19748,133.5901 337.75903,132.88751 336.81732,132.86667C336.01001,132.8488 335.37085,132.50642 335.29868,131.66533C335.21494,130.68953 334.97754,129.99518 334.42133,129.1095C334.01318,128.45961 333.18686,127.9513 332.73599,127.23067C332.24994,126.45378 332.58142,125.29047 331.85733,124.8665C331.24673,124.50898 330.33603,124.41155 330.29999,123.53333C330.26282,122.62743 330.4545,121.91869 330.29999,120.78533C330.1882,119.96539 329.06363,119.75402 328.65717,119.105C328.15964,118.31059 328.37436,117.17958 327.59549,116.87566C326.72131,116.53456 326.29999,116.256 326.29999,115.34583C326.29999,114.54533 326.29999,113.692 326.29999,112.752C326.29999,111.7665 326.29999,110.98133 326.29999,110.052C326.29999,109.1095 326.29999,108.30417 326.29999,107.32417C326.29999,106.62666 325.82419,105.40609 326.52151,104.86667C327.21652,104.32906 328.18533,104.86667 329.104,104.86667C329.668,104.86667 328.90082,104.76189 328.24734,104.21933C327.65677,103.729 326.68375,103.38114 326.42151,102.5455C326.1745,101.75837 326.07867,100.86667 325.3045,100.75233L325.29999,99.99467L325.29999,98.86667L325.29999,98.088" id="svg_1" stroke-width="3" stroke="#000" fill="none"/>
  <path t="17085,17297,17370,17370,17381,17381,17398,17426,17449,17464,17482,17531,17531,17584,17612,17612,17637,17637,17650,17650,17664,17681,17849,17898,17914,17945,18009,18009,18105" d="M331.29999,132.86667C333.85333,132.86667 334.57059,133.28914 334.87466,134.088C335.23914,135.04546 334.89594,136.092 335.58533,136.696C336.28418,137.30829 337.16296,136.95164 337.32083,137.86667C337.46927,138.72699 338.3468,139.16873 338.77917,139.86667C339.27313,140.66403 340.06549,140.70129 340.81732,141.03734C341.64502,141.40729 341.99063,142.27817 342.39999,143.06633C342.79529,143.82745 343.37585,144.74411 344.29999,144.86667C345.17105,144.98219 345.96783,144.9731 346.29999,145.86667C346.60571,146.68916 347.46667,146.86667 348.29999,146.86667L349.27832,146.86667" id="svg_2" stroke-width="3" stroke="#000" fill="none"/>
  <path t="19338,19481,19497,19498,19538,19570,19570,19570,19594,19647,19849,19849,19864,19864,19889,19931,19947,19947,19969,19997,19997,20017,20031,20031,20049,20370" d="M359.29999,132.86667C359.29999,133.8875 359.29999,134.84517 359.29999,135.66533C359.29999,136.7 359.29999,137.53084 359.29999,138.3875C359.29999,139.10001 359.30212,140.18401 359.29999,141.03816C359.29773,141.92918 359.45139,142.67545 359.07849,143.7235C358.81415,144.46643 357.80017,144.85625 356.88934,144.86667C355.97888,144.87708 355.16135,144.86667 354.25183,144.86667C353.29999,144.86667 352.41458,144.5816 351.60001,144.981C350.84384,145.35178 350.65717,146.21851 350.32535,147.22L349.75833,147.84584" id="svg_3" stroke-width="3" stroke="#000" fill="none"/>
  <path t="24512,24963,24985,25032,25053,25053,25064,25081,25097,25131,25177,25177,25197,25197,25214,25231,25264,25264,25281,25281,25297,25297,25314,25337,25337,25377,25378,25397,25414,25414,25431,25431,25447,25465,25465,25489,25497,25531,25531,25553,25553,25570,25615,25615,25615,25637,25666,25706,25706,25738,25770,25815,25965,26025,26067,26097,26098,26114,26131,26147" d="M291.29999,124.86667C293.13333,124.86667 294.03052,124.94983 294.27466,125.728C294.57126,126.67335 294.88669,127.46841 295.70001,127.84133C296.47855,128.1983 297.21466,128.63628 297.94666,128.93866C298.8457,129.31006 299.39017,129.80531 299.96667,130.7C300.44919,131.44882 301.00583,131.91704 301.77917,132.36667C302.6348,132.86414 303.34177,132.85355 304.29999,132.86667C305.07889,132.87733 306.0025,133.33171 306.31467,134.01601C306.68423,134.82616 307.62134,134.86667 308.47467,134.86667C309.41599,134.86667 310.18399,134.86667 311.12534,134.86667C312.13333,134.86667 312.97263,134.85608 313.60001,135.57201C314.06943,136.10768 314.70853,136.83064 315.62134,136.86667C316.474,136.90033 317.41333,136.86667 318.35266,136.86667C319.29999,136.86667 320.05716,136.86667 320.95267,136.86667C321.81601,136.86667 322.85052,136.81815 323.62134,137.30933C324.16818,137.65781 324.72632,138.50168 325.664,138.79466C326.56433,139.07596 327.46667,138.86667 328.29999,138.86667C329.27832,138.86667 330.216,138.86667 331.00449,138.86667C331.89999,138.86667 332.79999,138.86667 333.71066,138.86667C334.62134,138.86667 335.47467,138.86667 336.41467,138.86667L337.29999,138.86667L338.21735,138.86667" id="svg_4" stroke-width="3" stroke="#000" fill="none"/>
  <path t="28289,28386,28431,28431,28431,28448,28465,28481,28515,28515,28538,28626,28626,28682,28698,28715,28806,28816,28816,28842,29109,29792,30192,30226,30226,30248,30290,30290,30315,30331,30331,30354,30381,30381,30449,30498,30498,30499,30551,30551,30581,30632,30675,30675,30762,30773,30773,30810,30820,30858,30898,30938,30986,31015,31015,31042,31074,31074,31098,31115,31138,31180,31181,31198,31215,31231,31248,31266,31266,31306,31354,31354,31354,31370,31370,31414,31415,31431,31431,31448,31480,31480,31498,31522,31548,31548,31548,31565,31581,31614,31615,31631,31664,31682,31682,31706,31731,31748,31780,31781,31842,31842,31874,31874,31898,31931,31931,31948,31948,31965,31965,32014,32015,32031,32050,32050,32074,32074,32098,32130,32180,32181,32198,32215,32231,32248,32248,32265,32282,32347,32348,32380,32402,32450,32506,32506,32531,32565,32586,32618,32618,32722,32754,32966,33106,33356,33386,33418,33482,33530,33531,33610,33682,33682,33698,33698,33748,33765,33786,33786,33815,33815,33915,33931,33948,33948,33986,34072,34072,34106,34318,34318,34466,34466,34598,34598,34619,34715,34754,34786,34818,34858,35005,35034,35272,35272,35355,35368,35368,35381,35398,35398,35520,35520,35531,35722,35754,35781,35798,35798,35826,35826,35848,35864,35883,35983,36102,36154,36181,36198,36218,36234,36258,36258,36290,36300,36301,36331,36426,36502,36548,36548,36570,36598,36598,36626,36698,36698,36715,36731,36782,36803,36858,37025,37090,37137" d="M293.29999,124.86667C294.94733,124.86667 295.29999,125.53083 295.29999,126.15334C295.29999,127.1 295.29999,128.04784 295.29999,128.9765C295.29999,129.8875 295.29999,130.7 295.29999,131.56216C295.29999,132.50951 295.29999,133.436 295.29999,134.21851C295.29999,135.23067 295.29999,136.06534 295.29999,136.9765C295.29999,137.8875 295.32596,138.70039 295.29999,139.56216C295.27139,140.5108 294.30472,140.48048 293.65268,140.981C293.00909,141.47504 293.29999,142.7 293.29999,143.56216C293.29999,144.43066 293.55591,145.29401 293.87466,146.052C294.25845,146.96463 294.34625,147.98723 294.91068,148.43066C295.69733,149.04869 296.62115,148.86655 297.43866,148.86667C298.52151,148.86684 299.30518,149.19609 299.82083,149.8875C300.18906,150.38124 301.0058,151.03722 301.59018,151.56216C302.36646,152.25949 302.84149,152.85625 303.784,152.86667C304.64728,152.87621 305.8006,152.66144 306.21466,153.436C306.58554,154.12976 306.15643,155.36064 306.73599,155.84134C307.45871,156.44077 308.43948,156.48022 309.01599,157.03734C309.66055,157.6602 309.55161,158.82863 309.87466,159.45599C310.32217,160.32501 310.29999,161.30949 310.29999,162.052C310.29999,162.98134 310.29935,163.96651 310.29999,164.83067C310.30066,165.71867 309.95288,166.49895 310.52133,167.50233C310.92072,168.20732 311.29999,168.8875 311.29999,169.728C311.29999,170.7 311.13406,171.47021 311.29999,172.43066C311.46912,173.40976 312.02234,173.91864 312.44934,174.62666C312.98843,175.52057 313.27914,176.30353 313.29999,177.30966C313.3161,178.08783 313.29999,179.06633 313.29999,179.825C313.29999,180.825 313.29999,181.57651 313.29999,182.384C313.29999,183.45599 313.29999,184.28799 313.29999,185.2C313.29999,186.11734 313.29999,186.86133 313.29999,187.89467C313.29999,188.83067 313.29999,189.57651 313.29999,190.384C313.29999,191.45599 313.29999,192.27733 313.29999,193.188C313.29999,194.04134 313.29999,194.98134 313.29999,195.96651C313.29999,196.83067 313.29999,197.58099 313.29999,198.46933C313.29999,199.45767 313.29999,200.29601 313.29999,201.30949C313.29999,202.052 313.29999,202.98134 313.29999,203.967C313.29999,204.681 313.29999,205.63467 313.29999,206.36667C313.29999,207.53334 313.29999,208.30417 313.29999,209.30949C313.29999,210.052 313.29999,210.98134 313.29999,211.96683C313.29999,212.752 313.29999,213.692 313.29999,214.38266C313.29999,215.45599 313.29999,216.34584 313.29999,217.30949C313.29999,218.052 313.29999,218.98134 313.29999,219.96651C313.29999,220.8185 313.29999,221.57651 313.29999,222.384C313.29999,223.45599 313.29999,224.34584 313.29999,225.30949C313.29999,226.052 313.29999,226.98134 313.29999,227.96651C313.29999,228.8185 313.29999,229.57651 313.29999,230.384C313.29999,231.45599 313.38333,232.35962 313.21466,233.12134C313.03131,233.94936 312.73633,234.91464 312.10132,235.612C311.49808,236.27448 310.81735,236.38991 310.3045,236.981C309.72409,237.64998 309.93207,238.99677 310.47067,239.58267C311.07297,240.23785 312.2785,239.86667 313.09866,239.86667C314.01468,239.86667 314.87067,239.86667 315.70901,239.86667C316.69733,239.86667 317.42801,239.86676 318.46667,239.86667C319.39999,239.86658 320.36676,239.77324 320.89999,239.22C321.48267,238.61548 321.70673,237.49309 322.5,237.03734C323.29428,236.58101 324.32974,237.01932 325,236.80949C325.88242,236.53326 326.42935,235.57208 327.10001,235.15199C327.8389,234.68916 328.67651,234.20239 329.01468,233.43466C329.39578,232.56947 329.29999,231.825 329.29999,230.66701C329.29999,229.90834 329.29309,228.92403 330.00449,228.86667C330.89709,228.79471 331.79999,228.86667 332.70001,228.86667C333.59549,228.86667 334.46933,228.86667 335.34167,228.86667C336.29999,228.86667 337.16058,228.4751 338.05716,228.867C338.7677,229.1776 338.95401,230.21628 339.24734,231.1095C339.52811,231.96442 340.0303,232.62762 340.95267,232.80949C341.80148,232.97687 342.77917,232.86667 343.68933,232.86667C344.58533,232.86667 345.5,232.86667 346.40018,232.86667C347.18533,232.86667 348.12534,232.86667 348.81601,232.86667C349.88934,232.86667 350.79999,232.86667 351.70001,232.86667C352.60001,232.86667 353.49866,232.86667 354.36133,232.86667C355.15067,232.86667 356.13199,232.86667 357.00534,232.86667C357.96667,232.86667 358.20227,233.44946 358.35718,234.21851C358.54199,235.13596 359.43323,235.65471 360.10001,235.95067C360.95776,236.33141 361.69946,236.84866 362.60449,236.86667C363.46649,236.88382 364.31683,236.68622 365.27832,236.867C366.18008,237.03658 365.90054,238.17273 366.66165,238.75233C367.43054,239.33788 368.29999,238.8644 369.27832,238.86667C370.24734,238.86893 370.69669,239.45253 371.27466,240.256C371.74408,240.90858 372.70001,240.86667 373.59549,240.86667L374.52151,240.86667" id="svg_5" stroke-width="3" stroke="#000" fill="none"/>
  <path t="38562,38681,38699,38731,38731,38748,38748,38780,38780,38798,38818,38831,38831,38849,38850,38864,38913,38914,38964,38964,38981,38998,38998,39018,39058,39090,39090,39090,39114,39148,39170,39170,39170,39181,39202,39242,39274,39274,39362,39415,39415,39437,39522,39698,39840,39840" d="M375.29999,198.86667C376.1785,200.088 376.29999,200.964 376.29999,201.72C376.29999,202.62666 376.29999,203.53334 376.29999,204.5005C376.29999,205.436 376.29999,206.21851 376.29999,207.1095C376.29999,208.06799 376.29999,209.03334 376.29999,209.692C376.29999,210.7 376.29999,211.56216 376.29999,212.50951C376.29999,213.43733 376.29999,214.088 376.29999,215.06633C376.29999,215.99466 376.29999,216.91733 376.29999,217.73866C376.29999,218.46933 376.29999,219.64534 376.29999,220.53334C376.29999,221.36667 376.29999,222.15334 376.29999,223.10001C376.29999,224.04784 376.25327,224.92581 375.73199,225.72C375.29572,226.38472 374.75018,227.05132 374.47067,227.89467C374.16473,228.81772 374.29999,229.728 374.29999,230.7C374.29999,231.45599 374.29999,232.3875 374.29999,233.35066C374.29999,234.04134 374.29999,235.1095 374.29999,235.96651L374.29999,236.87567L374.29999,237.73866L374.29999,238.46933" id="svg_6" stroke-width="3" stroke="#000" fill="none"/>
  <path t="41848,41905,41916,41947,41947,41980,41980,41997,42013,42013,42048,42049,42108,42108,42118,42118,42132,42193,42233,42265,42265,42282,42297,42312,42361,42362,42384,42385,42412,42429,42429,42462,42481,42481,42497,42512,42512,42536,42568,42579,42597,42614,42630,42663,42680,42680,42696,42712,42730,42730,42746,42762,42779,42779,42840,42840,42840,42854,42868,42896,42912,42912,42946,42968,42969,42984,43008,43114,43203,43203,43256,43303,43329,43348,43406,43406,43463,43613,43765,43833,43833,43865,43904,43973,43973,43983,43995,44029,44029,44048,44137,44180,44180,44320,44320,44330,44346,44437,44489,44489,44512,44529,44562,44562" d="M358.29999,142.86667C359.18668,142.86667 360.12534,142.86667 361.13333,142.86667C361.93832,142.86667 362.79428,143.00645 363.44934,143.47734C364.27121,144.06813 364.86475,144.8201 365.59467,144.86217C366.63162,144.92192 367.43759,144.70045 368.2785,145.30949C368.89783,145.75804 369.33878,146.67294 369.77917,147.34584C370.29453,148.13324 370.82202,148.4881 371.68933,148.888C372.37866,149.20586 372.45343,150.24173 372.94733,150.91484C373.46234,151.61674 373.94629,152.38052 374.46667,153.2C374.88126,153.85284 375.3374,154.67386 375.77917,155.34584C376.29736,156.13405 376.88318,156.69385 377.59467,156.86217C378.32635,157.03526 378.18808,157.93939 378.35718,158.80867C378.53671,159.73151 379.43835,160.25275 380.10001,160.58267C380.94336,161.00322 382.08557,160.93408 382.26401,161.71733C382.48184,162.67349 381.92514,163.55412 382.29999,164.43066C382.5719,165.06647 383.27017,165.57507 383.29868,166.384C383.33252,167.34525 383.2211,168.30283 383.52151,169.18784C383.75388,169.87236 384.59274,170.39615 385.17868,171.08817C385.7879,171.80771 386.15582,172.5441 386.29999,173.36667C386.43579,174.14153 386.29999,174.86583 386.29999,176.04784C386.29999,176.92799 386.29999,177.728 386.29999,178.7C386.29999,179.56216 386.29999,180.3875 386.29999,181.35066C386.29999,182.214 386.29999,183.1095 386.29999,184.06534C386.29999,184.93866 386.29999,185.73866 386.29999,186.46933C386.29999,187.45767 386.36932,188.4554 386.79999,188.90834C387.3515,189.48836 387.4675,190.5321 388.10132,190.94934C388.90103,191.47578 389.74716,191.88593 390.1785,192.74516C390.55545,193.49603 390.45581,194.39699 390.29999,195.325C390.15533,196.18651 389.31259,196.78163 388.5,196.86534C387.60474,196.95757 386.73599,196.86667 385.73065,196.86667C384.94818,196.86667 384.03857,196.68166 383.10001,196.86934C382.25116,197.03908 381.98535,198.06134 381.19983,198.62367C380.63275,199.02963 379.62357,198.62843 378.63333,198.86667C377.87952,199.04803 377.18906,199.70782 376.41467,199.95067C375.46997,200.24693 374.63333,200.7 373.85718,200.86667L373.11465,200.86667" id="svg_7" stroke-width="3" stroke="#000" fill="none"/>
  <path t="65997,66328,66371,66412,66412,66701,66746,66823,66823,66844,66864,66897,66987,67040,67040,67065,67133,67162,67185,67240,67240,67265,67279,67321,67346,67448,67448,67481,67481,67530,67640,67720,67746,67785,67812,67841,67841,68023,68033,68049,68081,68081,68097,68113,68153,68185,68290,68312,68329,68329,68345,68345,68416,68461,68497,68586,68586,68630,68745,68778,68779,68870,68870,68913,68968,68995,68995,69017,69063,69063,69084,69097,69253,69253,69289,69366,69366,69395,69441,69479,69513,69545,69594,69713,69713,69745,69745,69769,69795,69795,69814,69815" d="M206.3,67.86667C205.41333,67.86667 204.43433,67.71078 203.46666,68.03333C202.79468,68.25732 201.97685,68.60925 201.10133,68.86933C200.32497,69.09995 200.30525,70.05196 200.3,70.98133C200.29443,71.96648 200.54668,72.626 201.38533,72.86667C202.17247,73.09255 202.29466,74.05196 202.3,74.98133C202.30508,75.86665 202.37489,76.60963 203.0045,76.981C203.72714,77.40726 204.12863,78.35972 204.27916,79.34583C204.4166,80.24612 204.8405,80.68171 205.68933,80.86667C206.51572,81.04674 206.76443,81.92351 207.3,82.7C207.75444,83.35887 208.66307,83.67329 209.39983,84.088C210.23228,84.55659 210.91072,84.85613 211.8,84.86667C212.70018,84.87733 213.47476,85.26762 213.864,86.052C214.30518,86.94108 214.51523,87.80578 215.39999,87.86667C216.29788,87.92847 217.10042,87.89391 218,87.86667C218.94414,87.83807 219.44109,87.03015 220.32083,86.8875C221.26622,86.73421 222.16556,86.90794 222.74283,86.424C223.35815,85.90816 224.08888,85.0558 224.88933,84.888C225.84349,84.68797 226.3,84.43066 226.3,83.56216C226.3,82.5455 226.4182,81.72028 226.3,80.8185C226.18831,79.96626 225.22894,79.77733 224.7,79.22C223.99162,78.47363 223.91179,77.4485 223.0045,76.981C222.22345,76.57855 221.15262,76.8382 220.65717,76.16217C220.13525,75.45004 220.51111,74.34018 220.24283,73.5765C219.97327,72.80919 218.73795,73.03761 218.01466,72.58134C217.39748,72.19199 216.76045,71.37401 216.2,70.5455C215.76854,69.90768 215.14429,69.24477 214.42149,68.86667C213.70023,68.48936 213.00136,67.89526 212.10001,67.86667C211.20045,67.83813 210.3,67.86667 209.54283,67.86667C208.64734,67.86667 207.76353,68.0444 206.82083,67.84583C205.95113,67.66264 205.5,66.98 204.89999,66.052L204.5,65.436" id="svg_10" stroke-width="3" stroke="#000" fill="none"/>
  <path t="71080,71295,71330,71361,71362,71379,71379,71416,71480,71545,71594,71673,71673,71713,71713,71745,71745,71785,71785,71817,71857,71857,71878,71879,71963,71963,71985,72030,72051,72073,72073,72094,72112,72240,72240,72250,72289,72289,72328,72400,72400,72417,72463,72505,72529,72590,72590,72590,72625,72696,72696,72768,72769,72812,72812,72829,72857,73016,73041,73041,73136,73190,73190,73268,73289,73321,73362,73379,73379,73400,73433,73511,73573,73612,73629,73657,73689,73689,73773,73773,73840,73840,73906,73953,73953" d="M198.3,50.86667C195.71066,50.86667 194.77898,50.84995 193.97867,50.86683C193.12477,50.88484 192.15096,51.10934 191.50133,51.668C190.86365,52.21637 190.10095,52.79195 189.20016,52.86667C188.32162,52.93954 188.3,53.72 188.3,54.62667C188.3,55.53333 188.32062,56.40957 188.29984,57.30967C188.28185,58.08862 188.11243,59.0796 187.8,59.825C187.39963,60.78026 187.3,61.581 187.3,62.46933C187.3,63.45767 187.3,64.15234 187.3,65.2C187.3,66.052 187.3,66.98133 187.3,67.86667C187.3,68.7455 187.3,69.5765 187.3,70.384C187.3,71.34583 187.3,72.256 187.3,73.2C187.3,74.052 187.1049,75.04187 187.46666,75.86667C187.78906,76.60174 188.88365,76.63361 189.46666,77.2C190.01468,77.7324 189.88657,79.00902 190.46666,79.7C190.98802,80.32103 191.71339,80.72444 192.46666,81.2C193.17348,81.64622 193.72816,82.14001 194.18567,83.105C194.60118,83.98142 195.06236,84.55253 195.5215,85.3095C195.95625,86.02626 196.48204,86.78976 196.94284,87.56216C197.38408,88.30177 198.0013,88.60254 198.82083,88.90833C199.62564,89.20863 199.95161,90.21555 200.24733,91.1095C200.52991,91.96376 200.95717,92.67416 201.89999,92.856C202.78378,93.02645 203.76129,92.54993 204.5955,92.87566C205.3743,93.17976 205.19278,94.2899 205.65266,95.105C206.10568,95.90794 207.10152,95.84871 208,95.86667C208.90053,95.88467 209.61792,96.45582 210.39999,96.74517C211.25174,97.0603 212.09816,96.92128 212.784,97.436C213.5242,97.99151 214.13333,98.7 214.77916,99.325L215.60001,99.814L216.39999,100.088L217.10001,100.58266" id="svg_11" stroke-width="3" stroke="#000" fill="none"/>
  <path t="75650,75768,75796,75796,75829,75848,75849,75865,75865,75904,75929,76090,76090,76179,76240,76250,76250,76305,76305,76329,76379,76379,76412,76412,76444,76445,76677,76712,76729,76762,76778,76795,76795,76812,76828,76848,76881,76881,76928,76961,76961,76977,77001,77001,77145,77145,77194,77194,77377,77411,77411,77440,77441,77461,77477,77494,77529,77529,77529,77577,77577,77611,77737,77737,77777,77800,77841,77880,77904,77905,77927,77944,77994,78112,78112,78161,78161,78232,78232,78253,78305,78355,78408,78408,78502,78502,78545,78545,78605,78662,78688,78713,78713,78794,78833,78918,78918,78936,78961,78994,78994,79055,79089,79129,79401,79424,79425,79444,79488,79545,79561,79561,79888" d="M194.3,48.86667C195.32083,48.86667 196.2785,48.86667 197.09866,48.86667C198.13333,48.86667 199.01433,48.86667 199.709,48.86667C200.69733,48.86667 201.58566,48.86667 202.58533,48.86667C203.39999,48.86667 204.3,48.86667 205.10001,48.86667C206.13333,48.86667 206.94873,48.81061 207.78267,48.86934C208.59584,48.9266 209.17026,49.74685 209.38266,50.384C209.71692,51.38669 210.43259,52.16871 211.05716,52.5095C211.88246,52.95981 212.89571,52.65292 213.52133,53.30933C214.06642,53.88125 214.66814,54.46334 215.21466,55.152C215.72377,55.79351 215.63216,56.56751 216.49867,56.86934C217.26353,57.13575 217.2686,58.05114 217.8,58.84583C218.24408,59.50993 218.24251,60.53994 219.00983,60.8095C219.77351,61.07779 220.90555,60.76942 221.49867,61.436C222.09679,62.1082 222.09512,63.17411 222.52133,63.9665C222.89514,64.66148 223.90643,64.71805 224.65184,64.981C225.48883,65.27627 225.83716,66.3899 226.60451,66.75233C227.52975,67.18935 228.36523,66.68364 229.27834,67.08817C230.02611,67.41944 230.2529,68.57482 231.0045,68.86217C231.85237,69.18632 232.41196,69.7477 232.7,70.568C232.90871,71.16235 233.12064,72.44721 233.89999,72.824C234.69514,73.20842 235.25616,73.57569 235.29866,74.384C235.35309,75.41924 235.94559,75.83028 236.68933,76.292C237.51062,76.80186 238.22948,77.30367 238.28934,78.052C238.36345,78.97843 238.3,79.9665 238.3,80.83067C238.3,81.581 238.3,82.46934 238.3,83.45766C238.3,84.296 238.3,85.3095 238.3,86.052C238.3,86.98133 238.3,87.9665 238.3,88.83067C238.3,89.72 238.3,90.3875 238.3,91.53333C238.3,92.30417 238.3,93.3095 238.3,94.052C238.3,94.98133 238.3,95.9665 238.3,96.8185C238.3,97.5765 238.52792,98.41637 238.26401,99.456C238.04393,100.32293 237.10249,100.82276 236.41467,100.86533C235.48711,100.92274 234.42445,100.83601 234.01466,101.43467C233.54082,102.12691 232.90215,102.83064 232,102.86667C231.10072,102.90258 230.14572,102.68339 229.3,103.03333C228.51538,103.35799 227.80016,103.854 226.89999,103.86667C226.00008,103.87933 225.10001,104.15067 224.5,104.58266L223.60001,104.86217" id="svg_12" stroke-width="3" stroke="#000" fill="none"/>
  <path t="81968,82195,82282,82345,82445,82445,82445,82481,82505,82553,82569,82569,82594,82617" d="M215.3,96.86667C217.85333,96.86667 218.85875,96.63968 219.71066,96.89867C220.56136,97.15728 220.96114,97.91531 221.43866,98.59067C222.07468,99.4902 222.85435,99.9646 223.24283,100.8185C223.5576,101.51041 223.3,102.384 223.3,103.456L223.3,104.34583" id="svg_13" stroke-width="3" stroke="#000" fill="none"/>
  <path t="85918,86351,86394,86545,86635,86759,87024,87024,87064,87064,87104,87161,87301,87405,87495,87536,87759,87759,87784,87880,88098,88231,88289,88435,88562,88562,88610,88627,88644,88644,88660,88711,88818,88864,88951,89035,89285,89285,89328,89388,89408,89427,89444,89444,89615,89728,89728,89865,89865,89936,89960,89960,89977,90000,90095,90185,90185,90196,90210,90248,90248,90249,90327,90327,90377,90416,90427,90444,90476,90495,90545" d="M237.3,104.86667C239.10001,104.86667 239.89999,104.86667 240.8,104.86667C241.77916,104.86667 242.81448,104.60978 243.46666,105.2C244.02638,105.70654 244.37666,106.70731 245.10001,106.864C245.99806,107.05853 246.21248,107.8211 246.91066,108.43066C247.57726,109.01265 248.63718,108.61353 249.49867,108.86933C250.2751,109.09988 250.12265,110.44752 250.91066,110.84534C251.68687,111.2372 252.24365,111.61829 253.0045,111.86217C253.89999,112.14919 254.35181,112.72305 255.3,112.86667C256.09097,112.98647 257.14218,112.45838 257.86401,112.93867C258.60477,113.43156 258.13321,114.54816 258.82083,115.325C259.42896,116.01204 260.5,115.86667 261.39984,115.86667C262.29999,115.86667 263.07437,115.88802 263.95267,116.21933C264.65869,116.48565 265.6528,116.84866 266.58533,116.86667C267.49982,116.88432 268.39999,116.86667 269.29999,116.86667C270.10001,116.86667 270.93784,116.8135 271.784,116.86933C272.65265,116.92664 273.38995,117.45215 273.93832,118.16133C274.49823,118.88544 275.3569,119.15636 276,119.514C276.85312,119.98842 277.53659,120.5601 278.384,120.86533C279.24579,121.17574 280.05716,120.86667 280.94818,120.86667C281.96667,120.86667 282.61908,121.37668 283.01434,121.92467C283.504,122.60352 284.2442,123.50629 285.07867,123.75867C285.93491,124.01763 286.64288,124.4834 287.49866,124.78133C288.3092,125.06352 289.29999,124.86667 290.13333,124.86667L290.91068,124.93867" id="svg_14" stroke-width="3" stroke="#000" fill="none"/>
  <path t="106258,106365,106417,106502,106502,106529,106545,106665,106665,106689,106689,106710,106753,106753,106777,106827,106849,106849,106849,106873,106913,106945,106994,107011,107011,107027,107027,107048,107049,107065,107065,107089,107111,107111,107127,107127,107188,107233,107244,107244,107261,107261,107277,107277,107277,107294,107294,107311,107345,107369,107369,107401,107472,107497,107521,107561,107577,107594,107594,107611,107611,107662,107662,107684,107697,107711,107711,107761,107761,107777,107794,107794,107811,107827,107827,107844,107844,107861,107861,107877,107894,107894,107921,107921,108015,108015,108049,108065,108065,108133,108145,108235,108249,108249,108265,108277,108293,108320,108422,108432,108545,108545,108666,108666,108694,108694,108737,108912" d="M216.3,98.86667C216.3,99.86667 216.3,100.784 216.3,101.5765C216.3,102.384 216.01926,103.39021 216.3,104.256C216.53276,104.97379 217.5947,104.7627 218.27834,105.3095C219.01172,105.89609 218.81879,107.08639 219.52167,107.74533C220.0294,108.22134 221.15889,108.21024 221.96666,108.7C222.67924,109.13205 223.10698,109.78517 223.81734,110.29867C224.69951,110.93636 225.41188,111.34605 225.94733,111.91933C226.58733,112.60456 227.30002,112.86287 228.05716,112.86667C228.9527,112.87117 229.89479,112.94424 230.54733,113.5765C231.13411,114.14503 231.74348,115.05124 232.47467,115.42C233.37386,115.87347 234.31265,115.77463 235.05716,115.92384C235.97758,116.1083 236.5448,116.68774 237.58533,116.86667C238.48808,117.0219 239.46666,116.86667 240.12534,116.86667C241.13333,116.86667 241.97243,116.86493 242.78534,117.436C243.35847,117.83863 243.85939,118.44569 244.89549,119.105C245.44383,119.45393 246.41191,119.82396 247.39999,119.86667C248.29916,119.90553 249.29207,119.38479 250.01466,119.952C250.7049,120.49381 251.0045,120.86667 251.94284,120.86667C252.82083,120.86667 253.90367,120.83579 254.25183,121.5765C254.60757,122.33334 255.005,123.11642 255.65184,123.56216C256.53635,124.1717 257.06702,124.7179 258,124.86217C258.92502,125.00521 259.82413,124.69785 260.64734,124.981C261.49026,125.27094 261.75818,126.1693 262.60001,126.75684C263.40561,127.31908 264.09128,127.60736 264.936,127.892C265.77737,128.17551 266.48849,128.52617 267.49985,128.74516C268.26785,128.91147 269.37411,128.61696 270.09866,129.03734C270.88382,129.49289 271.24765,130.67793 271.936,130.84534C272.91974,131.08458 273.73065,130.86667 274.74283,130.86667C275.48532,130.86667 276.4903,130.65019 277.39984,131.088C278.1109,131.43025 278.83356,131.728 279.70001,131.87733C280.53311,132.02094 281.28738,132.78163 282.10001,132.86534C282.99527,132.95755 283.89999,132.86667 284.79999,132.86667C285.68933,132.86667 286.58533,132.86641 287.5,132.86667C288.39999,132.86693 289.15494,133.09093 289.60001,133.92467C289.944,134.56905 290.39999,135.50217 291.10001,135.86267L292,135.86667L292.89999,135.86667" id="svg_17" stroke-width="3" stroke="#000" fill="none"/>
  <path t="110648,110795,110795,110985,110985,111027,111128,111810,111810,111810,111861,111889" d="M234.3,100.86667C235.3,100.86667 236.05716,100.86667 236.95267,100.86667C237.81599,100.86667 238.80307,100.67719 239.71066,100.888C240.68799,101.11501 241.11467,101.728 241.73067,102.384L242.228,103.23067L242.3045,104.16217" id="svg_18" stroke-width="3" stroke="#000" fill="none"/>
  <path t="122117,122210,122249,122249,122273,122353,122353,122403,122403,122413,122763,122763" d="M290.29999,132.86667C290.32083,133.8875 290.58035,134.81325 290.94733,135.56216C291.35806,136.40036 291.29999,137.30966 291.29999,138.088C291.29999,139.06633 291.29999,139.99466 291.38535,140.864L292.29999,140.86667L293.10001,140.86667" id="svg_19" stroke-width="3" stroke="#000" fill="none"/>
  <path t="125720,126060,126105,126127,126177,126330,126330,126443" d="M334.29999,108.86667C335.17868,108.86667 336.00449,108.86667 336.89999,108.86667C337.77917,108.86667 338.74283,108.86667 339.48532,108.86667L340.54285,108.86667" id="svg_20" stroke-width="3" stroke="#000" fill="none"/>
  <path t="127736,127921,128016,128049,128049,128093,128233,128336" d="M352.29999,108.86667C352.5,108.86667 353.39999,108.86667 354.29999,108.86667C355.10001,108.86667 356,108.86667 356.89999,108.86667L357.77917,108.86667" id="svg_21" stroke-width="3" stroke="#000" fill="none"/>
  <path t="129993,130143,130177,130225,130296,130329,130436,130489,130713,130776,130776,130842,130842,130933,131163,131163,131201,131280,131336,131463,131463,131489,131489,131529,131616,131696,131726,131743,131793,131913,131914,131945,131945,132053,132081,132121,132121,132186,132210,132242,132266,132289,132483" d="M339.29999,120.86667C340.18668,120.86667 341.11465,120.86667 342.05716,120.86667C342.91068,120.86667 343.79999,120.86667 344.70001,120.86667C345.60001,120.86667 346.50134,120.86667 347.46667,120.86667C348.29999,120.86667 349.13333,120.86667 350.01334,120.86667C350.94666,120.86667 351.784,120.86667 352.64734,120.86667C353.664,120.86667 354.78177,120.40536 355.2955,121.03817C355.85709,121.72992 355.34006,122.6274 355.29984,123.7235C355.27127,124.50207 354.42133,124.86667 353.59549,124.86667C352.70001,124.86667 351.79999,124.86667 350.91068,124.86667C350.01334,124.86667 349.13333,124.86667 348.29999,124.86667C347.3215,124.86667 346.50134,124.86667 345.60001,124.86667C344.664,124.86667 343.79617,125.05021 343.00983,124.86667C342.23404,124.68559 341.77917,123.8875 340.89999,123.86667L340.00449,123.86217L339.32535,123.44133L338.79999,122.84583" id="svg_22" stroke-width="3" stroke="#000" fill="none"/>
  <path t="135129,135696,135949,135949,136693,136730,137050" d="M347.29999,111.86667C348.29999,112.84583 347.94284,113.5765 347.59549,114.2185L347.00449,115.105L346.384,115.78267L345.77917,116.36667" id="svg_23" stroke-width="3" stroke="#000" fill="none"/>
  <path t="153730,154025,154046,154089,154137,154169,154192,154217,154242,154242,154259,154310,154353,154376,154426,154449,154449,154576,154642,154692,154692,154721,154753,154753,154777,154825,154849,154933,154969,154969,155025,155076,155105,155160,155220,155220,155293,155343,155343,155343,155377,155377,155425,155459,155475,155475,155492,155492,155521,155553,155659,155659,155749,155793,155793,155825,155849,155892,155962,155991,155991,156082,156182" d="M330.29999,99.86667C331.21466,99.58266 331.35623,98.75636 331.72534,98.016C332.17752,97.10908 332.80246,96.77004 333.384,96.15067C333.95242,95.54529 334.2579,94.80944 334.2955,93.92467C334.3378,92.92975 335.07831,92.83317 335.35718,92.16217C335.70367,91.32848 336.83527,91.08549 337.21466,90.29867C337.53223,89.64008 337.65268,88.86667 338.58533,88.86667C339.50134,88.86667 340.18533,88.86667 341.12534,88.86667C342.13333,88.86667 342.99551,88.86667 343.89999,88.86667C344.79999,88.86667 345.70001,88.86667 346.60449,88.86667C347.46667,88.86667 348.29999,88.86667 349.27832,88.86667C350.13333,88.86667 351.00449,88.86667 351.82083,88.86667C352.78265,88.86667 353.60648,88.6899 354.58667,88.86933C355.51138,89.0386 356.13251,89.72047 356.64734,90.2185C357.42432,90.97013 357.77689,91.64651 358.28934,92.43066C358.63904,92.96579 359.50418,93.4333 359.89999,94.052C360.40521,94.84176 360.72159,95.69849 361.32535,96.43066C361.80695,97.01471 362.51831,97.47764 362.91068,98.016C363.50671,98.83378 364.61252,99.05907 365.01468,99.668C365.51443,100.42471 366.10205,100.83014 367,100.86667C367.90213,100.90337 368.60001,101.572 369,102.16133L369.68933,102.80534L370.28934,103.44133" id="svg_24" stroke-width="3" stroke="#000" fill="none"/>
  <path t="158185,158962,159180,159209,159341,159377,159377,159465,159559,159585,159585" d="M331.29999,96.86667C331.29999,99.456 331.41855,100.57952 330.68933,100.856C329.83823,101.1787 328.81601,100.86667 328.12534,100.86667C327.06168,100.86667 326.216,100.86667 325.29999,100.86667L324.5,100.86667" id="svg_25" stroke-width="3" stroke="#000" fill="none"/>
  <path t="163586,163696,163779,163842,163842,163858,163876,163913,163945,163946,163969,163969,164017,164017,164042,164075,164092,164113,164114,164129,164169,164217,164217,164233,164233,164242,164313,164353,164354,164429,164429,165066,165066,165081,165081,165121,165122,165196,165196,165225,165265,165349,165378,165378,165409,165433,165521,165554,165555,165575,165575,165617,165682,165682,165704,165719,165725,165743,165775,165775,165792,165825,165825,165892,165916,165961,166066,166066,166092,166114,166293,166399,166476,166476,166522,166591,166592,166659,166659,166684,166737,166737,166761,166826,166826,166859,166859,166976,167011,167042,167062,167062,167082,167163,167163,167195,167219,167240,167275,167275,167313,167496,167506,167633,167652,167652,167897,167897,168010,168065,168182,168182,168209,168228,168265,168265,168329,168345,168442,168463,168481,168491,168492,168669,168769,168791,168808,168809,168825,168969,168969,168985,168985,169052,169159,169159,169180,169180,169217,169249,169291,169291,169308,169337,169402,169402,169425,169519,169609,169609,169633,169712,169733,169733,169761,169761,169869,169986,170009,170009,170025,170041,170058,170129,170145,170146,170232,170291,170291,170313,170325,170417,170441,170478,170478,170491,170592,170592,170844,170844,170844" d="M383.29999,194.86667C383.94733,195.57117 384.29465,196.43062 384.29999,197.30949C384.30548,198.21849 384.29999,199.1095 384.29999,200.06534C384.29999,200.92917 384.29999,201.72 384.29999,202.62666C384.29999,203.53334 384.29999,204.40933 384.29999,205.30949C384.29999,206.21851 384.29999,207.1095 384.29999,208.06534C384.29999,208.92799 384.29999,209.73866 384.29999,210.46933C384.29999,211.45767 384.29999,212.53334 384.29999,213.30966C384.29999,214.088 384.10999,215.09355 384.336,215.99466C384.55246,216.85764 385.2796,217.12303 385.3045,217.92917C385.33347,218.86687 385.47717,219.7494 385.94733,220.5005C386.47363,221.34131 386.88492,222.04814 387.17883,222.84517C387.47989,223.66151 388.25671,224.17117 388.73199,224.752C389.40509,225.57454 389.2861,226.38275 389.29999,227.45599C389.31152,228.34601 390.04141,228.86658 390.26401,229.728C390.42834,230.36403 390.00943,231.50476 390.29999,232.34584C390.52499,232.99718 391.25256,233.43454 391.2955,234.27567C391.34592,235.26274 391.28632,236.20474 391.79999,236.825C392.24405,237.36122 392.29999,238.052 392.29999,239.1095C392.29999,239.96651 392.29999,240.8875 392.29999,241.728C392.29999,242.7 392.29999,243.45599 392.29999,244.43066C392.29999,245.30949 392.29999,246.052 392.29999,247.1095C392.29999,247.96651 392.31729,248.84891 392.65268,249.57651C393.02335,250.38065 393.24008,251.34758 393.29999,252.256C393.35168,253.04028 393.88419,253.85785 394.13333,254.7C394.3822,255.54124 394.19812,256.46283 394.52151,257.30951C394.82062,258.09262 395.4675,258.79922 395.86401,259.45599C396.37152,260.2966 396.29944,261.30951 396.29999,262.052C396.30066,262.98132 396.56357,263.81326 396.94733,264.62384C397.35083,265.47614 397.3002,266.21399 397.29999,267.23065C397.2998,268.16217 396.77371,268.74283 396.20001,269.30933C395.58405,269.91757 395.05463,270.60608 394.20001,271.08801C393.55905,271.44946 392.67999,271.69617 391.79999,271.88751C390.95367,272.07153 390.20764,272.80453 389.5,272.86533C388.54636,272.94724 387.65182,272.86667 386.86932,272.86667C385.85333,272.86667 384.95334,272.72025 384.12534,272.93866C383.26944,273.16443 382.8963,274.24738 382.10001,274.69601C381.30212,275.14554 380.39374,274.54395 380.31067,273.71735C380.21732,272.7886 380.29999,272.04782 380.29999,271.10001C380.29999,270.15332 380.13055,269.21054 380.32083,268.34583C380.50232,267.52103 381.5376,267.33887 382.24734,266.85767C382.91611,266.40427 383.18237,265.5329 383.86401,264.888C384.36938,264.40985 384.31985,263.45578 384.29984,262.5455C384.28186,261.72742 383.62363,261.15765 383.29999,260.53333C382.8913,259.74496 383.29999,258.66699 383.29999,257.90833C383.29999,256.93866 383.29999,256.15234 383.29999,255.26401C383.29999,254.27567 383.29999,253.43733 383.29999,252.50951C383.29999,251.66533 383.29999,250.7 383.29999,249.8875C383.29999,248.92799 383.29999,248.18401 383.29999,247.10001C383.29999,246.3875 383.43417,245.35539 383.2955,244.50951C383.15164,243.63197 382.48117,243.00284 382.336,242.052C382.20728,241.209 382.29999,240.29601 382.29999,239.45767C382.29999,238.46933 382.29999,237.73866 382.29999,236.75233C382.29999,235.99466 382.29999,234.86667 382.29999,234.088C382.29999,233.2 381.6846,232.858 381.24734,232.16217C380.75208,231.37399 380.37085,230.55078 380.31067,229.728C380.24161,228.78378 380.29999,227.86667 380.29999,227.1095C380.29999,226.21851 380.60535,225.13379 380.27917,224.36667C379.95068,223.59412 379.07907,223.02383 378.82083,222.36667C378.43283,221.37932 378.07849,220.64484 377.59549,220.04784L377.10001,219.10001L376.79999,218.3875L376.5,217.72" id="svg_26" stroke-width="3" stroke="#000" fill="none"/>
  <path t="176713,176946,176975,176975,177009,177026,177026,177042,177042,177082,177082,177125,177125,177146,177170,177170,177194,177209,177260,177309,177309,177309,177330,177346,177370,177402,177402,177450,177492,177492,177509,177509,177530,177530,177586,177586,177618,177666,177666,177666,177750,177793,177831,177831,177853,177853,177876,177876,177899,177899,177927,177927,177948,177948,177948,177971,177971,178009,178009,178066,178091,178125,178125,178146,178252,178286,178315,178315,178338,178378,178378,178399,178459,178459,178487,178488,178512,178535,178586,178625,178625,178647,178675,178702,178702,178702,178702,178730,178730,178730,178755,178755,178779,178779,178802,178803,178826,178827,178827,178850,178986,179416,179416,179416,180026" d="M312.29999,240.86667C312.29999,241.8875 312.29999,242.84517 312.29999,243.66533C312.29999,244.7 312.29999,245.58099 312.29999,246.27567C312.29999,247.26401 312.29999,248.15233 312.29999,249.2C312.29999,249.90834 312.29999,250.86667 312.29999,251.64534C312.29999,252.69867 312.29999,253.57651 312.29999,254.384C312.29999,255.34584 312.25861,256.19791 312.79999,256.84583C313.26294,257.39987 313.29999,258.15332 313.29999,258.86584C313.29999,259.89465 313.29999,260.88751 313.29999,261.728C313.29999,262.70001 313.29999,263.45599 313.29999,264.43066C313.29999,265.30966 313.29999,266.08801 313.29999,267.06668C313.29999,267.86667 313.29999,268.86667 313.29999,269.65601C313.29999,270.70001 313.29999,271.45599 313.29999,272.43066C313.29999,273.36667 313.29999,274.15332 313.29999,274.86584C313.29999,275.89465 313.29999,276.88751 313.29999,277.73868C313.29999,278.46933 313.29999,279.46667 313.29999,280.26666C313.29999,281.26532 313.29999,282.03067 313.29999,283.1185C313.29999,283.836 313.29999,284.8765 313.29999,285.65201C313.29999,286.70001 313.29999,287.40952 313.29999,288.26218C313.29999,289.26666 313.29999,290.06668 313.29999,291.06635C313.29999,291.82501 313.36142,292.89102 313.28934,293.728C313.20486,294.70883 312.65753,295.28339 312.35718,296.16217C312.07083,296.99997 311.76981,297.69037 311.46667,298.70001C311.21442,299.54022 311.38553,300.45676 311.07867,301.30951C310.80026,302.08322 310.34271,302.97824 310.29999,303.86667C310.26361,304.62296 310.29999,305.51935 310.29999,306.38266C310.29999,307.34583 310.29999,308.25601 310.29999,309.12268C310.29999,309.92917 310.29999,310.86584 310.29999,311.72351C310.29999,312.70001 310.29999,313.53333 310.29999,314.29083C310.29999,315.27335 310.29999,315.98666 310.29999,317.04483C310.29999,318.00934 310.29999,318.84784 310.29999,319.72385C310.29999,320.61484 310.29999,321.52383 310.29999,322.27118C310.29999,323.26801 310.29999,324.10266 310.29999,325.03333C310.29999,325.81482 310.29999,326.85684 310.29999,327.72351C310.29999,328.70001 310.29999,329.53082 310.29999,330.38751L310.29999,331.10001L310.31067,332.18399" id="svg_27" stroke-width="3" stroke="#000" fill="none"/>
  <path t="182026,182108,182131,182142,182142,182142,182159,182209,182209,182225,182225,182225,182242,182242,182259,182259,182292,182292,182314,182314,182330,182342,182342,182359,182378,182410,182410,182425,182442,182475,182475,182886,182936,182936,182946,182991,182992,183009,183025,183025,183058,183059,183075,183075,183200,183200,183263,183350,183370,183446,183446,183513,183542,183562,183617,183618,183650,183666,183692,183692,183709,183730,183730,183786,183900,184003,184003,184150,184354" d="M347.29999,270.86667C348.29999,271.86667 348.29999,272.74567 348.29999,273.53082C348.29999,274.38751 348.29999,275.10001 348.29999,276.18399C348.29999,277.20001 348.29999,277.90833 348.29999,278.86667C348.29999,279.66666 348.29999,280.46667 348.29999,281.46667C348.29999,282.26666 348.29999,283.26401 348.29999,284.15234C348.29999,285.20001 348.29999,285.90833 348.29999,286.86667C348.29999,287.82501 348.29999,288.69867 348.29999,289.57651C348.29999,290.384 348.29999,291.34583 348.29999,292.25601C348.29999,293.20001 348.29999,293.88751 348.29999,294.98132C348.29999,295.86667 348.05853,296.5863 347.49866,297.03601C346.79068,297.60464 346.39368,298.68857 346.31067,299.45599C346.21497,300.34073 346.29999,301.30951 346.29999,302.052C346.29999,302.98132 346.29999,303.96683 346.29999,304.75201C346.29999,305.70267 346.29999,306.46799 346.29999,307.45767C346.29999,308.29599 346.29999,309.30951 346.29999,310.052C346.29999,310.98132 346.11176,311.98904 346.31067,312.85199C346.49063,313.63269 347.11978,314.36029 347.26401,315.23065C347.41641,316.15051 347.87341,316.62204 348.46667,317.20001C349.00739,317.72678 349.6777,318.33246 350.1785,319.08817C350.66849,319.82758 350.29999,320.75201 350.29999,321.69199C350.29999,322.70001 349.91675,323.53452 350.29999,324.43066C350.5719,325.06647 351.24734,325.57651 351.384,326.384L351.72534,327.23065L352.21466,328.06534" id="svg_28" stroke-width="3" stroke="#000" fill="none"/>
  <path t="186676,186842,186858,186858,186875,186892,186925,186925,186942,186942,186942,186958,186975,186975,187008,187025,187066,187066,187075,187092,187108,187108,187125,187177,187177,187177,187201,187242,187258,187275,187275,187298,187325,187325,187345,187361,187392,187418,187442,187442,187458,187492,187492,187508,187525,187546,187601,187602,187602,187626,187681,187681,187708,187708,187725,187761,187762,187777,187792,187792,187817,187842,187842,187866,187866,187908,187908,187925,187942,187958,188049,188049,188049,188059,188136,188136,188186,188265,188595" d="M347.29999,268.86667C347.29999,269.728 347.45142,270.72272 347.26401,271.45599C347.04367,272.31802 346.29529,272.93906 345.85333,273.73868C345.55219,274.28357 344.84,275.28708 344.29999,275.82501C343.80505,276.31805 342.64197,276.76508 342.35718,277.57199C342.11459,278.25928 341.92416,279.20798 341.42117,279.96649C340.94427,280.68564 339.86792,280.33939 339.30899,280.98099C338.7135,281.66455 339.29999,282.84515 339.29999,283.56216C339.29999,284.50949 339.29999,285.53082 339.29999,286.15332C339.29999,287.10001 339.29999,288.04782 339.29999,288.98099C339.29999,289.88751 339.29999,290.84515 339.29999,291.56216C339.29999,292.50266 339.29999,293.35068 339.29999,294.21399C339.29999,295.23065 339.29999,296.06534 339.29999,296.98099C339.29999,297.73868 339.29999,298.86667 339.29999,299.64532C339.29999,300.53333 339.30411,301.436 339.29999,302.21851C339.29465,303.23068 338.80289,303.92654 338.42151,304.74518C338.08578,305.46579 338.29999,306.38751 338.29999,307.10001C338.29999,308.18399 338.29999,309.20001 338.29999,309.88751C338.29999,310.84515 338.64462,311.76804 338.21466,312.58133C337.76099,313.43948 337.41055,313.89304 337.29868,314.98132C337.20657,315.87726 336.55023,316.23102 335.82083,316.88751C335.20081,317.44559 335.30225,318.27567 335.29999,319.26401C335.29794,320.15234 335.29999,321.20001 335.29999,321.88751C335.29999,322.84515 335.29999,323.86667 335.29999,324.70001C335.29999,325.53082 335.29999,326.38751 335.29999,327.10001C335.29999,328.18399 335.29999,329.20001 335.29999,329.88751L335.29999,330.84515L335.29999,331.86667L335.46667,332.70001" id="svg_29" stroke-width="3" stroke="#000" fill="none"/>
  <path t="203258,203369,203407,203423,203423,203423,203440,203482,203584,203584,203617,203618,203714,203769,203769,203790,203807,203850,203874,203874,203875,203908,203986,204010,204024,204024,204041,204074,204074,204091,204108,204155,204174,204174,204218,204219,204258,204258,204282,204282,204324,204341,204358,204358,204374,204408,204408,204424,204441,204458,204474,204474,204491,204491,204514,204592,204592,204613,204626,204685,204708,204708,204730,204762,204891,204891,204908,205015,205015,205042,205042,205132,205162,205265,205265,205329,205329,205350,205391,205391,205410,205442,205491,205508,205508,205524,205524,205562,205634,205634,205674,205725,205725,205754,205754,205809,205842,205890,205891,205908,205908,205924,206085,206085,206130,206322" d="M374.29999,238.86667C374.94733,239.57117 375.24207,240.43425 375.74268,241.188C376.22852,241.91954 376.96246,242.28886 377.25833,243.34584C377.50394,244.22322 377.20728,245.209 377.336,246.052C377.48117,247.00284 378.15182,247.63194 378.2955,248.50951C378.44522,249.42384 378.29999,250.21851 378.29999,251.1095C378.29999,252.06534 378.70065,252.65448 379.13333,253.36667C379.54739,254.04819 379.29773,254.86583 379.29999,255.89467C379.30212,256.87567 379.29999,257.728 379.29999,258.70001C379.29999,259.45599 379.29999,260.34583 379.29999,261.30951C379.29999,262.052 379.29999,263.1095 379.29999,263.96649C379.29999,264.87567 379.29999,265.73868 379.29999,266.46933C379.29999,267.45767 379.29999,268.29599 379.29999,269.30966C379.29999,270.08801 379.29999,271.06635 379.29999,271.82501C379.29999,272.87567 379.29999,273.728 379.29999,274.70001C379.29999,275.45599 379.29999,276.34583 379.29999,277.30951C379.29999,278.052 379.15756,279.12146 379.30017,279.96649C379.44418,280.81979 380.22943,281.30411 380.28934,282.08801C380.36389,283.06357 380.1358,284.1142 380.65268,284.75232C381.14807,285.36389 381.29999,286.052 381.29999,286.98132C381.29999,287.86667 381.29999,288.74551 381.29999,289.57651C381.29999,290.384 381.29999,291.34583 381.29999,292.25601C381.29999,293.20001 381.29999,294.052 381.29999,294.98132C381.29999,295.86667 381.29999,296.62384 381.29999,297.51935C381.29999,298.38266 381.29999,299.34583 381.29999,300.25601C381.29999,301.20001 381.24014,301.92413 381.46667,302.86667C381.65842,303.66446 382.23907,304.61688 382.29999,305.436C382.35803,306.21634 382.29999,307.23065 382.29999,308.06534C382.29999,308.96399 382.2619,309.9324 382.336,310.62668C382.45407,311.73282 382.92102,312.39078 383.68933,312.83066C384.30869,313.18524 384.29999,313.88751 384.29999,314.98132C384.29999,315.86667 384.29999,316.62384 384.29999,317.51935C384.29999,318.38266 384.29999,319.34583 384.29999,320.25601C384.29999,321.20001 384.29999,321.90833 384.29999,322.86667C384.29999,323.82501 384.29999,324.69601 384.29999,325.57651L384.29999,326.384L384.29999,327.34583L384.29999,328.25601" id="svg_32" stroke-width="3" stroke="#000" fill="none"/>
  <path t="208835,208946,208970,208994,209052,209098,209114,209114" d="M383.29999,326.86667C383.94733,327.57117 384.24261,328.60339 385.00449,328.86215C385.82156,329.13965 386.26401,329.728 386.29999,330.70001L386.29999,331.45599" id="svg_33" stroke-width="3" stroke="#000" fill="none"/>
  <path t="210625,210698,210714,210714,210758,210779,210779,210791,210807,210888,211058,211058,211090" d="M353.29999,324.86667C353.29999,325.728 353.29999,326.70001 353.29999,327.45599C353.29999,328.38751 353.29999,329.35068 353.29999,330.04132C353.29999,331.1095 353.29999,331.96649 353.29999,332.86533L352.94284,333.57199L352.49866,334.29868L351.73749,334.82501" id="svg_34" stroke-width="3" stroke="#000" fill="none"/>
 </g>
</svg>