<svg width="500" height="334.26183844011143" xmlns="http://www.w3.org/2000/svg" xmlns:svg="http://www.w3.org/2000/svg" xmlns:xlink="http://www.w3.org/1999/xlink">
 <!-- Created with SVG-edit - http://svg-edit.googlecode.com/ -->
 <g display="inline" class="layer">
  <title>Layer 1</title>
  <path t="0,294,307,316,330,345,345,367,368,397,420,433,433,465,487,487,501,501,517,531,547,561,561,577,577,583,599,621,621,643,667,667,697,959,959,992,1012,1033,1063,1063,1087,1109,1109,1139,1139,1161,1186,1215,1251,1251,1334,1335,1426,1753,1753,1845,1873,1943,1944,1971,2001,2001,2031,2061,2061,2091,2117,2151,2227,2422,2422,2455,2456,2481,2489,2511,2519,2519,2549,2579,2597,2597,2602,2625,2632,2669,2669,2678,2713,2713,2737,2737,2751,2767,2789,2798,2798,2819,2835,2850,2871,2871,2879,2919,2919,2939,2977,2991,2991,3007,3037,3043,3059,3080,3105,3105,3127,3127,3163,3163,3196,3217,3217,3239,3247,3247,3269,3307,3337,3367,3367,3373,3389,3403,3418,3450,3450,3457,3471,3508,3554,3555,3700,3700,3741,3801,3801,3823,3839,3853,3869,3869,3885,3885,3908,4129,4328,4329,4373,4373,4605,4680,4747,4747,4784,4799,4829,4837,4881,4881,4889,4919,4919,4941,4971,4995,4995,5017,5031,5055,5055,5091,5091,5121,5151,5181,5181,5212,5236,5237,5257,5257,5271,5279,5301,5331,5331,5355,5369,5378,5378,5407,5407,5421,5429,5451,5467,5505,5505,5527,5535,5535,5557,5579,5587,5609,5609,5617,5631,5655,5669,5669,5685,5707,5721,5721,5721,5739,5759,5759,5775,5781,5798,5819,5819,5835,5849,5849,5879,5888,5888,5909,5939,6021,6029,6059,6059,6067,6067,6111,6119,6196,6226,6401,6401,6419,6419,6419,6441,6501,6501,6525,6561,6629,6681,6771,6772,6809,6809,6839,6839,6869,6869,6885,6891,6916,6917,6937,6959,6959,6988,6989,7010,7011,7035,7041,7057,7058,7095,7095,7125,7139,7206,7233,7281,7327,7327,7341,7365,7395,7478,7479,7537,7538,7597,7644,7649,7748,7748,7785,7815,7815,7837,7867,7867,7881,7881,7928,7957,7957,7979,8017,8017,8055,8085,8107,8159,8159,8216,8217,8229,8279,8325,8326,8361,8377,8385,8430,8446,8447,8467,8505,8535,8549,8549,8566,8595,8617,8639,8639,8655,8661,8661,8685,8709,8721,8721,8737,8737,8759,8812,8850,8851,8925,8961,9000,9001,9015,9051,9051,9075,9100,9101,9135,9166,9166,9195,9195,9201,9255,9255,9300,9321,9329,9367,9405,9405,9441,9471,9471,9526,9561,9561,9569,9585,9600,9621,9621,9675,9908,9923,9943,9943,9951,9960,9961,9969,9981,10005,10011,10011,10027,10041,10041,10065,10086,10094,10095,10110,10110,10131,10147,10185,10229,10229,10270,10289,10289,10311,10340,10371,10371,10394,10417,10439,10447,10471,10490,10499,10528,10529,10566,10567,10575,10604,10612,10636,10664,10666,10716,10777,10837,10875,10979,11009,11009,11085,11121,11158,11266" d="M173.5,122.63092C174.52083,120.67258 175.63045,120.97874 176.33333,120.46426C176.98766,119.98532 177.66667,119.63092 178.5,119.63092C179.33333,119.63092 180.1955,119.63092 181.10001,119.63092C182.02083,119.63092 182.98399,119.63092 183.67467,119.63092C184.74283,119.63092 185.61592,119.72375 186.38533,119.54559C187.35916,119.32008 187.99113,118.7957 188.97917,118.65176C189.89061,118.51897 190.8045,118.63092 191.66667,118.63092C192.5,118.63092 193.48036,118.68608 194.29866,118.63092C195.14862,118.57362 195.16418,117.52541 195.94284,116.87392C196.53712,116.37667 197.61467,116.63092 198.5,116.63092C199.3,116.63092 200.25845,116.67451 201.14816,116.62642C201.93369,116.58396 202.49866,115.82959 202.5,114.93092C202.50122,114.11008 202.49783,113.14692 202.5,112.28358C202.50226,111.38808 202.80887,110.57985 203.14734,109.87376C203.55496,109.02341 203.49933,108.11492 203.5,107.15176C203.50064,106.23092 203.5,105.32642 203.5,104.46426C203.5,103.63092 203.5,102.65242 203.5,101.83225C203.5,100.99492 203.5,99.97826 203.5,99.28358C203.5,98.26692 203.5,97.33092 203.5,96.42959C203.5,95.74558 203.5,94.80559 203.5,93.79758C203.5,92.93542 203.5,92.11008 203.5,91.14692C203.5,90.28358 203.32233,89.37118 203.50133,88.43225C203.64572,87.67487 204.44394,87.18318 204.50034,86.30975C204.55322,85.49083 205.05733,84.72471 205.85184,84.63992C206.85832,84.53252 207.82948,84.58421 208.48534,85.05625C209.10359,85.50122 210.02336,85.63596 210.54817,86.33542C211.10814,87.08173 211.2636,87.98135 211.52533,88.76958C211.80719,89.61845 212.12947,90.24404 212.52133,91.02026C212.91914,91.80827 213.90646,91.74232 214.58267,92.34692C215.30721,92.99472 215.35527,93.69722 215.72133,94.60942C216.03194,95.38343 216.65361,96.07663 217.14734,96.74075C217.63316,97.39424 217.96342,98.33704 218.64934,98.64558C219.45676,99.00878 219.47742,99.9437 219.92534,100.61625C220.4183,101.35643 220.75311,101.9335 221.216,102.71358C221.70604,103.53943 221.67903,104.32235 222.5,104.63092C223.39549,104.96751 223.36935,105.81156 223.52083,106.61008C223.70152,107.56265 224.17244,108.12771 224.51067,109.02026C224.78796,109.75201 225.44818,110.21651 225.94267,110.95226C226.43253,111.68111 227.21806,112.4425 227.47917,113.13092C227.78284,113.93156 228.19499,114.77042 228.41467,115.74558C228.61014,116.61328 228.49814,117.43092 228.5,118.26692C228.50226,119.27909 228.68459,119.98409 229.14734,120.67908C229.60794,121.37085 229.5,122.26692 229.5,123.28358C229.5,123.97826 229.52347,125.01156 229,125.63092C228.42593,126.31017 227.43352,126.21568 226.743,126.85258C226.22324,127.33199 226.80008,128.57518 226.27867,129.38809C225.80753,130.12263 225.19113,130.68199 224.85266,131.38809C224.44505,132.23843 224.90602,133.25896 224.45833,134.08925C224.06662,134.81572 222.98267,134.63025 222.02083,134.63092C221.10001,134.63156 220.1955,134.63092 219.33333,134.63092C218.5,134.63092 217.5215,134.63092 216.70134,134.63092C215.8,134.63092 214.87067,134.63092 215.66667,134.63092C216.5,134.63092 217.4785,134.63092 218.29866,134.63092C219.2,134.63092 220.02083,134.63092 220.98399,134.63092C221.84734,134.63092 222.76588,134.42358 223.69867,134.63225C224.50572,134.81279 225.14203,135.50278 225.44284,136.34076C225.71631,137.10258 225.44945,138.2493 226.20534,138.57825C226.88333,138.87329 227.49866,139.43225 227.5,140.26692C227.50163,141.28358 227.5,141.97826 227.5,142.99492C227.5,143.93542 227.5,144.79759 227.5,145.63092C227.5,146.60942 227.51143,147.42966 227.5,148.33092C227.48958,149.15195 227.1982,150.1077 226.92534,150.80559C226.56134,151.73657 226.59149,152.64346 226.44284,153.38809C226.25822,154.31284 225.71898,154.94592 225.536,155.99492C225.37578,156.91344 224.88216,157.49855 224.58533,158.20026C224.27885,158.92477 224.82869,160.05824 224.491,160.92642C224.1879,161.70569 222.98643,161.58522 222.61433,162.34076C222.25417,163.07207 222.30032,164.02396 221.784,164.71492C221.32246,165.33253 221.1694,166.13388 220.66667,166.96425C220.30269,167.56544 220.85516,168.85771 220.16667,169.46425C219.65103,169.9185 218.80814,170.03375 218.4955,170.92642C218.22839,171.68907 217.55092,172.19746 217.5045,172.98276C217.4454,173.98262 216.77457,174.51079 216.51067,175.27759C216.18472,176.22469 216.31721,176.99112 215.85266,177.73625C215.41454,178.43898 215.20648,179.50621 214.64934,179.99492C214.10365,180.47359 213.52354,181.28001 213.216,182.11491C212.95699,182.81807 212.64659,183.88446 212.49983,184.73076C212.36147,185.52863 211.57323,186.06813 211.51067,186.81625C211.4229,187.86577 210.99997,188.33041 210.20534,188.68359C209.45203,189.01842 209.71631,190.15926 209.44284,190.92108C209.14203,191.75906 208.18878,192.0188 207.66667,192.79759C207.19344,193.50348 207.12997,194.36411 206.5,194.65175C205.59517,195.06488 205.45065,195.92473 204.92534,196.64558C204.41486,197.34608 203.59604,197.28677 202.78534,197.71625C201.92757,198.17065 201.41145,198.53378 200.5,198.96425C199.86636,199.2635 199.23372,199.99704 198.668,200.74425C198.07701,201.52484 197.30045,201.46997 196.38667,201.63225C195.5488,201.78105 195.06456,202.61292 194.1955,202.63092C193.33351,202.64877 192.49486,202.73076 191.5215,202.63058C190.68825,202.54483 190.13994,201.72981 189.61467,201.11359C189.06667,200.47069 188.30376,200.09822 187.60983,199.33542C187.02231,198.68958 186.53568,197.92249 186.5045,197.27908C186.45552,196.26799 186.10591,195.48778 185.784,194.74559C185.39304,193.84424 185.50067,193.02959 185.5,192.03542C185.4995,191.28809 185.82869,190.2036 185.491,189.33542C185.1879,188.55615 183.95724,188.67372 183.57201,187.76959C183.31343,187.16272 183.84737,185.9621 183.47917,185.15175C183.12782,184.37846 182.45206,183.77623 181.61333,183.63225C180.6882,183.47343 179.82094,184.12183 178.94667,183.55891C178.20229,183.07962 178.38133,181.80064 177.5,181.63092C176.75648,181.48773 175.84734,181.63092 174.98399,181.63092C174.02083,181.63092 173.13052,181.59351 172.47917,181.13092C171.8094,180.65526 170.83195,180.78493 170.14667,180.18425C169.37946,179.51178 169.51042,178.63109 169.5,177.65242C169.48914,176.63098 169.54358,175.87247 169.4955,174.98276C169.45305,174.19724 168.58374,173.47662 168.5,172.63092C168.42117,171.83481 168.5,170.99492 168.5,169.97826C168.5,169.28358 168.5,168.26692 168.5,167.33092C168.5,166.42958 168.5,165.46425 168.5,164.80559C168.5,163.79759 168.90468,162.79648 168.42799,162.06693C167.94373,161.32576 166.70636,161.33852 166.54167,160.61009C166.33028,159.67511 166.83701,158.48207 166.33333,157.79759C165.85274,157.1445 165.61082,156.45378 165.47917,155.65175C165.33481,154.77228 164.52859,154.27521 164.5,153.42958C164.46738,152.4648 164.7179,151.53674 164.216,150.80025C163.74107,150.10332 163.5,149.33092 163.5,148.42958C163.5,147.74559 163.81277,146.57741 163.05733,145.87375C162.50697,145.36113 161.53604,145.19714 161.5,144.32642C161.45796,143.31046 161.5,142.63092 161.5,141.65242C161.5,140.83226 161.5,139.93092 161.5,138.99492C161.5,138.14693 161.5,137.28358 161.5,136.26692C161.5,135.43092 161.5,134.53075 161.5,133.74559C161.5,132.80559 161.5,131.79759 161.5,131.04158C161.5,130.11009 161.50145,129.14693 161.5,128.45625C161.49774,127.38808 161.19325,126.57883 160.85266,125.87376C160.44371,125.02721 160.24698,124.3294 159.784,123.54826C159.29437,122.72216 159.35789,121.79517 158.47917,121.65176C157.53394,121.49749 156.95244,121.18477 156.21466,120.71626C155.52304,120.27705 154.61467,120.63092 153.67467,120.63092C152.66667,120.63092 151.91066,120.63092 150.97917,120.63092C150.01601,120.63092 149.29724,120.39256 148.26167,120.63542C147.49266,120.81577 146.89539,121.5932 146.54817,122.33625C146.22707,123.02345 145.5302,124.113 144.67067,123.91225C144.43007,123.85606 144.31892,122.76598 144.55716,121.93542C144.8154,121.03509 145.2636,120.28049 145.52533,119.49226C145.80719,118.64339 146.4895,118.11027 146.5,117.22025C146.51074,116.30981 146.47644,115.46086 146.92534,114.68159C147.38449,113.88451 147.49933,113.11359 147.5,112.15176C147.50056,111.32642 147.34169,110.27999 147.54167,109.65176C147.84531,108.69788 149.07655,108.8093 149.47867,108.02026C149.91232,107.16933 149.89534,106.33068 150.66667,105.79758C151.2744,105.37757 152.32533,105.63092 153.33333,105.63092C154.08934,105.63092 155,105.63084 155.91066,105.63092C156.82117,105.631 157.71716,105.53567 158.43866,106.05625C159.09012,106.5263 159.73807,107.10451 160.216,107.80025C160.72064,108.53487 160.15211,109.76142 160.66667,110.46426C161.14584,111.11875 161.63431,111.54332 162.20534,112.28358C162.76175,113.00489 163.01199,114.0448 163.78534,114.54559C164.55542,115.04425 165.27795,115.10069 166.06799,115.54826C166.72206,115.91879 167.09882,116.47408 167.66667,117.29758C168.13972,117.98362 168.80273,118.52208 169.48534,119.05625C170.08522,119.5257 170.93201,119.71492 171.54817,120.27825L172.216,120.80025L172.5,121.63092L172.86166,122.52109" id="svg_1" stroke-width="3" stroke="#000" fill="none"/>
  <path t="13088,13322,13364,13564,13597,13665,13665,13687,13687,13748,13785,13815,13822,13822,13837,13837,13859,13889,13915,13920,13941,13965,13965,14017,14050,14051,14077,14091,14424,14489,14497,14497,14535,14543,14580,14647,14647,14659,14660,14737,14737,14813,14835,14865,14918,14918,14977" d="M197.5,148.63092C196.5,148.65175 195.80641,149.33194 195.5,149.27376C194.67064,149.11626 195.49992,147.46425 195.5,146.63092C195.50009,145.65259 195.59937,144.94354 196.30133,144.54692C197.11743,144.08582 197.91177,143.68855 198.82117,143.63058C199.64015,143.57837 200.10371,142.96088 200.58267,142.19891C201.02765,141.49101 202.17017,141.9549 202.97917,141.61009C203.79695,141.26155 204.36082,140.64893 205.33333,140.63092C206.08922,140.61693 207.02083,140.63092 207.98399,140.63092C208.67467,140.63092 209.82416,140.76361 210.44733,140.27826C211.09569,139.77328 210.72205,140.10068 209.93201,140.54825C209.27794,140.91879 208.90118,141.47409 208.33333,142.29759C207.86028,142.98363 207.27257,143.59581 206.92534,144.26692C206.50562,145.07816 206.52632,146.12532 205.63867,146.56958C205.03807,146.87018 203.99631,147.08882 203.2045,147.57825C202.4906,148.01952 201.93066,148.54559 201.14816,148.62642L200.136,148.63092" id="svg_2" stroke-width="3" stroke="#000" fill="none"/>
  <path t="15791,16092,16131,16177,16177,16222,16259,16281,16341,16365,16365,16395,16463,16526,16606,16606,16727,17044,17087,17129,17180,17180,17237,17237,17279,17295,17295,17339,17369,17407,17478,17564,17564,17751,17751,17805" d="M174.5,153.63092C174.5,151.93092 174.5,150.99492 174.5,150.14693C174.5,149.28358 174.52904,148.24553 174,147.63092C173.47592,147.02208 172.63792,146.68338 171.66667,146.63092C170.86081,146.58739 170.45604,145.77664 169.69867,145.63225C168.75974,145.45325 167.84734,145.63092 166.98399,145.63092C166.02083,145.63092 164.85339,145.44635 164.52083,146.15175C164.14127,146.95683 164.49879,147.95226 164.5,148.80559C164.50134,149.74559 164.59525,150.53137 165.36133,151.02025C166.26215,151.59511 167.14445,151.64999 167.47467,152.48158C167.82138,153.35474 168.10826,154.1422 168.86166,154.57375C169.69588,155.05159 170.5,154.63092 171.4785,154.63092L172.29866,154.63092L173.21466,154.71625" id="svg_3" stroke-width="3" stroke="#000" fill="none"/>
  <path t="20870,21107,21119,21121,21195,21285,21347,21419,21419,21465,21479,21479,21549,21549,21586,21675,21675,21711,21841,22051,22051,22079,22103,22133,22133,22168,22207,22207,22244,22245,22283,22326,22483,22553,22553,22562,22647,22712,22712,22868,22890,22905,22905,22920,22978,23016,23016,23016,23032,23055,23129,23247,23297,23322,23322,23429,23521,23596,23674,23687,23688,23709,23776,23789,23789,23849,23849,23918,23933,23947,24007,24029,24045,24119,24119,24227,24243,24255,24307,24307,24323,24337,24359,24398,24398,24467,24504,24602,24602" d="M177.5,179.63092C177.5,178.76959 177.84627,177.69154 177.44284,176.99258C177.04521,176.30368 176.49583,175.82957 176.5,174.87375C176.50388,173.98273 176.56155,172.99397 177.36133,172.70293C178.27724,172.36963 178.93875,172.27643 179.72166,171.75243C180.28326,171.37656 181.32533,171.63092 182.33333,171.63092C183.1955,171.63092 184.10001,171.63084 184.91066,171.63092C185.82117,171.63101 186.9673,171.33578 187.45833,172.15175C187.91763,172.91501 187.5,173.95226 187.5,174.80559C187.5,175.74559 187.5,176.63092 187.5,177.38809C187.5,178.28358 187.5,179.14693 187.5,180.11009C187.5,181.03091 187.5,181.93542 187.5,182.79759C187.5,183.63092 187.94769,184.84676 187.33333,185.46425C186.73393,186.0667 185.48065,186.07852 184.78534,185.46025C184.11998,184.86862 184.5,183.65242 184.5,182.93542C184.5,182.03091 184.55725,181.05231 184.05716,180.30975C183.56793,179.58333 182.89619,179.32712 182.04167,178.65175C181.39658,178.14189 180.64055,178.09392 179.85716,177.57375C179.20084,177.13794 179.5,175.97826 179.5,175.11491C179.5,174.14958 179.45291,174.86964 179.50017,174.53108C179.61201,173.72971 180.42838,174.06799 180.48933,174.81625C180.57484,175.86588 180.86008,176.64418 181.82117,176.63058C182.64172,176.61899 183.4061,176.07359 183.491,175.27908C183.59515,174.30443 183.5,174.67259 183.5,175.60942C183.5,176.63092 183.89597,177.89638 184.41467,177.34425C185.02003,176.69987 184.2821,175.53674 184.784,174.80025C185.25893,174.10332 185.5,173.32642 185.5,172.46425C185.5,171.67259 185.5,171.43492 185.5,172.33092C185.5,173.15175 185.5,174.11491 185.5,174.97826C185.5,175.87375 185.5,176.83092 185.5,177.73108L185.5,178.51625" id="svg_4" stroke-width="3" stroke="#000" fill="none"/>
  <path t="36627,36856,36868,36884,36895,36915,36964,36964,36994,37011,37055,37092,37092,37136,37275,37333,37347,37377,37393,37415,37415,37461,37491,37527,37527,37535,37565,37603,37611,37611,37633,37633,37655,37671,37740,37767,37820,37820,37820,37826,37864,37902,37902,37902,37954,37954,38000,38000,38030,38036" d="M185.5,185.63092C184.54167,186.63092 184.86458,187.50754 185.47467,188.05626C186.08691,188.60692 186.45078,189.31615 187.20984,189.57375C187.97633,189.83386 188.93454,189.78735 189.55267,190.27826C190.1712,190.76949 191.15288,190.61185 192.01601,190.63092C192.95901,190.65176 192.94603,191.62457 193.66667,192.29759C194.19342,192.78954 194.80272,191.73976 195.48534,191.20558C196.08522,190.73615 197.02336,190.62589 197.54817,189.92642C198.10814,189.18011 198.42831,188.31459 198.48933,187.45625C198.55591,186.51988 199.01114,186.02258 199.44284,185.26926C199.92076,184.43526 199.27351,183.40924 200.06799,182.80025C200.67,182.33879 201.6223,182.17845 202.216,181.54692C202.86104,180.86079 203.3141,180.28757 203.83333,179.46425C204.27921,178.75723 204.8494,178.33714 205.73833,177.74075C206.4454,177.26637 206.59868,176.43019 207.04167,175.63092C207.34258,175.08801 208.1577,174.39572 208.84734,173.93542C209.745,173.33627 210.21333,172.74559 210.47467,171.81625L210.66667,170.96425" id="svg_6" stroke-width="3" stroke="#000" fill="none"/>
  <path t="39237,39450,39471,39471,39506,39522,39560,39620,39644,39673,39673,39687,39717,39717,39749,39833,39833,39869,39869,39886,39886,39891,39905,40019,40035,40048,40048,40063,40063,40063,40071,40177,40185,40194,40312,40326,40332,40333,40363,40379,40384,40384,40408,40408,40430,40453,40453,40474,40474,40491,40504,40504,40590,40685,40685,40760,40774,40790,40804,40823,40823,40829,40829,40836,40853,40859,40872,40895,40903,40904,40919,40947,40978,40978,40984,40984,41044,41044,41082,41082,41098,41112,41190,41340,41341,41363,41372,41384,41399,41405,41429,41429,41450,41451,41472,41473,41480,41502,41502,41524,41548,41549,41570,41585,41622,41652,41652,41682,41698,41698,41750,41780,41914,41930,41939,41939,41944,41952,41960,41974,41982,42006,42028,42034,42034,42058,42064,42080,42089,42106,42162,42162,42208,42208,42244,42325,42403,42403,42653,42653,42793,42793,42871,42903,42903,42935,42935,42973,43026,43026,43033,43033,43071,43295,43314,43341,43342,43385,43385,43422,43445,43445,43461,43474,43499,43643,43643,43829,43850,43872,43872,43896,43902,43902,43919,43940,43941,43954,43954,43963,43984,44014,44014,44052,44052,44082,44082,44113,44193,44194,44234,44264,44265,44278,44323,44338,44405,44406,44451" d="M189.5,189.63092C188.50133,190.51759 188.47607,191.45667 188.5,192.14693C188.53603,193.18613 189.47797,193.32744 190.25717,193.85225C190.98009,194.33916 191.60001,194.63092 192.5,194.63092C193.25717,194.63092 194.46976,194.97859 195.16667,194.46425C195.74246,194.03929 195.83545,193.13087 196.33333,192.29759C196.74132,191.61475 196.748,191.72818 196.32933,192.43092C195.86465,193.21091 194.83978,193.06674 194.04167,193.65175C193.36319,194.14908 193.15544,195.89322 192.62167,195.40942C192.04388,194.88573 193.14923,193.99744 193.82117,193.30959C194.4817,192.63339 194.7597,191.99187 195.47917,191.17259C195.9753,190.60765 196.77939,191.6125 196.27867,192.38809C195.84239,193.06386 195.45479,192.73248 195.5,191.79759C195.54271,190.91449 196.25357,190.38281 196.50034,189.53108C196.7245,188.75735 197.87383,188.7778 198.32933,188.06158C198.75813,187.38736 198.3772,186.2106 198.78534,185.42958C199.10777,184.81259 199.84129,183.99933 200.14284,183.28358C200.50897,182.41452 201.11667,181.87329 201.79466,181.57825C202.55055,181.2493 202.23782,180.08453 202.55716,179.34076C202.90169,178.53831 203.52213,179.43253 203.5,180.33092C203.47977,181.15256 203.05298,181.9487 202.5,182.63092C201.82802,183.45996 201.40601,183.98109 200.85266,184.68359C200.3954,185.26411 200.25893,186.10332 199.784,186.80025C199.2821,187.53674 199.83408,188.78348 199.32933,189.34425C198.74229,189.99644 197.62973,189.99969 197.33333,190.79759C197.02078,191.63893 196.93274,192.59064 196.44733,193.26926C195.89891,194.03595 195.38713,194.561 194.79016,195.27908C194.35344,195.80441 193.36911,196.16096 192.66667,196.79759C192.01859,197.38496 191.33333,197.63092 190.54167,197.63092C190.304,197.63092 191.16682,197.52589 191.5,196.63092C191.80627,195.8082 192.31897,195.08318 193.06934,194.71492C193.78244,194.36494 194.80923,194.33165 195.29866,193.74425C195.8831,193.0428 196.01958,192.02422 196.48534,191.27759C196.91405,190.59036 198.08202,190.66902 198.51466,189.98425C199.08153,189.08707 199.26482,188.31412 199.44284,187.38809C199.62363,186.44768 200.03171,185.8839 200.41467,185.06158C200.74678,184.34846 200.3116,183.16167 201.06799,182.71492C201.70465,182.3389 202.04439,181.88573 202.536,181.06693C202.90498,180.45233 203.58339,181.39742 203.491,182.27908C203.40773,183.07376 202.38539,183.39513 201.66933,183.91492C200.98624,184.41077 200.78549,185.2032 200.48933,186.02025C200.21709,186.77133 199.87553,187.54445 199.16667,188.29759C198.66205,188.83374 197.70947,188.95161 197.07466,189.60559C196.53236,190.16426 195.94675,190.75616 195.416,191.34692C194.76717,192.06914 194.75404,192.90285 193.93066,193.46025C193.269,193.90817 192.25717,193.63092 191.29866,193.63092C190.33333,193.63092 189.49902,193.59067 188.66667,193.63092C187.78357,193.67363 187.8226,194.53012 188.52083,194.61009C189.60776,194.73459 190.5,194.63092 191.25717,194.63092C192.15266,194.63092 193.06918,194.90759 193.97917,194.58925C194.82266,194.29417 195.01648,193.29778 195.98267,192.80025C196.58839,192.48833 197.42072,191.49728 198.14734,191.74976C198.89279,192.00877 198.06357,193.40738 197.31467,193.64558C196.39261,193.93886 195.84846,194.44043 194.864,194.62025C194.02974,194.77264 193.15266,194.63029 192.25717,194.63092C191.30133,194.63159 190.69284,195.20462 189.93066,195.54559C189.21259,195.86684 188.168,195.63092 188.54167,195.63092C189.4785,195.63092 190.29866,195.63335 191.25717,195.63092C192.14818,195.62866 192.90581,195.51883 193.58267,194.91492C194.30788,194.26787 194.2699,193.39394 195.06799,192.80025C195.67659,192.34752 196.4637,191.96523 197.26167,191.57825C198.11021,191.16675 198.91562,190.93785 199.47833,190.30959C200.03293,189.69038 200.40987,188.6564 200.49867,187.83226C200.58932,186.99094 201.41495,186.47823 201.49867,185.74425C201.60506,184.81163 201.12766,183.64394 201.61433,182.99258C202.09888,182.3441 203.25717,182.40959 203.784,181.71359L204.37849,181.18808L204.48933,180.44559L204.5045,179.39259" id="svg_7" stroke-width="3" stroke="#000" fill="none"/>
  <path t="49432,49752,49752,49782,49790,49805,49834,49834,49850,49911,49911,49949,50008,50008,50103,50115,50135,50159,50159,50194,50218,50233,50233,50262,50302,50302,50331,50338,50352,50374,50374,50398,50405,50458,50464,50481,50502,50510,50510,50532,50540,50554,50578,50578,50602,50608,50608,50630,50638,50668,50668,50690,50704,50712,50712,50735,50735,50742,50758,50788,50832,50848,50848,50938,50938,50983,51043,51074,51075,51110,51140,51170,51170,51178,51195,51195,51208,51214,51230,51324,51361,51361,51364,51364,51364,51406,51407,51432,51432,51478,51478,51514,51606,51606,51858,51875,51905,51905,51928,51942,51964,51964,51992,51993,52010,52020,52020,52040,52048,52084,52084,52122,52131,52131,52152,52174,52212,52213,52258,52258,52258,52264,52294,52324,52380,52380,52430,52430,52474,52491,52491,52504,52504,52520,52520,52528,52528,52534,52558,52580,52602,52618,52618,52641,52662,52662,52693,52693,52708,52708,52722,52722,52722,52739,52739,52739,52745,52745,52752,52782,52842,52842,52858,52926,52926,53069,53098,53098,53112,53115,53115,53131,53132,53145,53145,53145,53161,53175,53175,53188,53188,53202,53219,53220,53220,53232,53248,53248,53262,53262,53262,53277,53278,53293,53293,53322,53338,53344,53362,53377,53377,53382,53404,53421,53434,53458,53488,53488,53494,53494,53518,53548,53592,53592,54164,54170,54253,54254,54264,54265,54334,54342,54402,54463,54478,54478,54699,54701,54705" d="M159.5,129.63092C158.16667,128.79759 157.47932,128.64134 156.38533,128.63092C155.50005,128.6225 154.87527,128.23613 154.16667,127.79758C153.43015,127.34176 152.38533,127.63092 151.5,127.63092C150.7,127.63092 149.864,127.63092 148.84734,127.63092C148.15266,127.63092 147.10068,127.3813 146.2045,127.63542C145.42708,127.85587 144.79158,128.60101 143.98267,128.62959C143.13654,128.65948 142.01883,128.48553 141.58267,129.19891C141.19054,129.84027 140.64067,130.59489 139.66667,130.63092C138.91118,130.65886 137.95044,130.34866 137.11067,130.64159C136.35634,130.90471 135.79097,131.5871 134.98267,131.62959C133.94743,131.68402 133.49911,132.42172 132.69867,132.62959C131.88222,132.84163 131.30429,133.28288 130.5,133.65175C129.71216,134.01308 129.69084,135.19254 128.97917,135.58925C128.14032,136.05685 127.48926,136.32899 126.63866,136.60559C126.00622,136.81125 124.91335,137.11601 124.62133,137.95209C124.34747,138.73619 124.15279,139.65875 123.43867,140.20558C122.84482,140.66031 121.9566,140.65921 121.02084,141.13092C120.27809,141.50533 119.83556,142.16344 119.39017,142.92558C118.96524,143.65271 117.90178,143.26933 117.04166,143.65175C116.25258,144.00258 115.89554,144.798 115.27866,145.50975C114.71138,146.16428 114.65448,147.05215 113.79017,147.51659C113.07208,147.90245 112.136,147.63092 111.1955,147.63092C110.33334,147.63092 109.41008,147.43619 108.60983,147.98358C107.9268,148.45079 107.24009,149.06721 106.61467,149.34692C105.7314,149.74194 104.86433,149.97818 104.48534,150.78026C104.1052,151.58473 103.39561,152.02808 102.85267,152.68359C102.33173,153.31256 102.17178,154.30663 101.85333,154.84158C101.24085,155.87047 100.63137,156.39186 100.20983,157.03091C99.58456,157.97882 99.64175,158.85167 99.27834,159.60942C98.89018,160.41875 97.97214,160.76482 97.36134,161.23093C96.54506,161.85385 96.50007,162.79759 96.5,163.63092C96.49992,164.60925 96.0983,165.78444 95.6215,165.18808C95.1527,164.60173 95.5,163.51625 95.5,162.53091C95.5,161.63092 95.53954,160.87268 95.4955,159.97826C95.45286,159.11218 95.133,158.1132 94.17883,157.75226C93.55302,157.51552 92.58484,157.29858 92.07467,156.64558C91.5249,155.94191 91.63764,154.97688 91.05334,154.27759C90.49849,153.61356 89.4082,153.8412 88.60983,153.27826C87.92694,152.79674 87.42225,152.17137 86.864,151.44559C86.35336,150.78169 85.70546,150.21106 84.984,149.91759C83.9806,149.50943 83.45026,148.97905 82.73833,148.52109C82.01894,148.05832 81.38994,147.38507 80.52167,146.87375C79.829,146.46584 79.28306,145.70718 78.33334,145.63092C77.67644,145.57817 76.63027,145.33247 76.136,144.78026C75.446,144.00937 74.86224,143.69139 73.85184,143.62642C73.0668,143.57593 72.45731,142.77666 71.69867,142.63225C70.81586,142.4642 69.864,142.63092 69.016,142.63092C68.15266,142.63092 67.0958,142.54021 66.29867,142.91492C65.56652,143.25908 64.83438,143.52901 63.89867,143.71492C63.09048,143.8755 62.27177,144.23654 61.5,144.79759C60.87546,145.2516 60.33574,145.85158 59.5,146.46425C58.73048,147.02838 57.9087,147.38475 56.909,147.57825C56.21919,147.71176 55.4482,148.16087 54.7955,148.74075C54.16589,149.30011 53.97993,150.23882 53.51467,150.98425C53.08579,151.67139 51.34614,151.59106 51.588,152.34692C51.8791,153.25668 53.3,152.63092 54.136,152.63092C55.15717,152.63092 55.90548,152.58923 56.9,152.63359C57.7022,152.66937 58.71461,153.05302 59.28933,153.48158C59.85817,153.90576 60.74295,154.51558 61.70133,154.63225C62.38542,154.71553 63.31193,155.09042 64.016,155.34692C64.9839,155.69955 65.82398,156.07039 66.5,156.63092C67.01804,157.06047 68.01208,157.57236 68.8215,157.85225C69.53297,158.09828 70.50306,158.44896 71.3,158.61626C72.10337,158.7849 72.89623,159.20213 73.664,159.78026C74.47577,160.39151 75.04602,160.84474 75.66666,161.46425C76.28554,162.08199 76.89018,162.64835 77.52084,163.13092C78.1722,163.62933 79.03127,163.74278 79.47916,164.63092C79.8776,165.42097 80.42844,166.0002 81,166.63092C81.5046,167.18774 81.94702,167.9487 82.5,168.63092C83.17199,169.45996 83.62135,170.07289 84.14733,170.68359C84.68029,171.30241 84.88155,172.27203 85.14733,172.97826C85.47948,173.86081 85.28843,175.03206 85.94267,175.50975C86.65561,176.03032 87.20423,176.41341 87.58266,177.06291C88.11145,177.97046 88.17867,178.76849 88.66666,179.46425C89.16891,180.18033 89.5,180.79759 89.54166,181.61009L89.94267,182.38809L90.64933,182.64558L91.47916,183.13092" id="svg_8" stroke-width="3" stroke="#000" fill="none"/>
  <path t="56188,56744,56750,56750,56766,56766,56789,56810,56810,56818,56818,56840,56856,56870,56915,56961,56961,56998,56998,57006,57035,57079,57117,57118,57129,57157,57193,57194,57215,57237,57238,57267,57289,57289,57313,57335,57336,57349,57349,57365,57379,57380,57395,57396,57409,57426,57426,57441,57463,57488,57517,57517,57545,57545,57575,57590,57606,57606,57619,57636,57636,57659,57680,57680,57704,57710,57718,57718,57732,57741,57741,57778,57778,57816,57830,57830,57840,57854,57862,57876,57898,57898,57917,57938,57938,57966,57975,58078,58397,58398,58426,58456,58495,58495,58528,58544,58550,58574,58574,58596,58611,58618,58640,58670,58670,58678,58700,58700,58724,58970,58970,58986,58986,59002,59024,59068,59068,59090,59090,59136,59174,59174,59241,59286,59316,59316,59338,59338,59347,59369,59376,59376,59398,59398,59399,59406,59428,59436,59444,59458,59480,59481,59504,59504,59534,59557,59558,59578,59578,59649,59666" d="M233.5,154.63092C233.5,156.30292 233.42342,157.40639 233.54167,158.11009C233.71761,159.15709 234.67711,159.30815 235.33067,159.91626C235.99223,160.5318 236.21579,161.3679 236.44733,162.27908C236.64296,163.04897 237.04437,163.88211 237.66933,164.34692C238.37373,164.87083 239.33746,165.01474 239.784,165.83226C240.1718,166.54225 240.4552,167.28287 240.49867,168.14693C240.55083,169.18361 241.31483,169.62366 241.4955,170.39259C241.69928,171.25998 241.09776,172.25699 241.54167,173.08925C241.92963,173.81662 243.326,173.73743 243.49733,174.43225C243.69716,175.24266 243.49635,176.2836 243.5,176.97826C243.50534,177.99496 243.89305,178.77451 244.216,179.51625C244.6041,180.40759 244.5,181.46425 244.5,182.25626C244.5,183.11491 244.5,183.97826 244.5,184.87825C244.5,185.79759 244.5,186.63092 244.5,187.60942C244.5,188.42958 244.5,189.26692 244.5,190.28358C244.5,190.97826 244.5,191.99492 244.5,192.93092C244.5,193.83226 244.5,194.79759 244.5,195.45625C244.5,196.46425 244.5,197.32642 244.5,198.23093C244.5,199.15175 244.5,200.11491 244.5,200.80559C244.5,201.87375 244.5,202.73108 244.5,203.51625C244.5,204.45625 244.5,205.46425 244.5,206.22025C244.5,207.13092 244.57625,208.16634 243.79466,208.58275C243.12523,208.93941 242.57053,209.49214 242.5,210.46425C242.4416,211.26917 241.58505,211.78362 241.50133,212.51759C241.39494,213.45021 241.8167,214.55405 241.44284,215.26926C241.05084,216.01917 240.60223,216.65701 240.49983,217.60925C240.40669,218.47531 239.60165,218.95361 239.52083,219.65175C239.39514,220.73724 239.13574,221.36234 238.35066,221.65625C237.52623,221.96489 237.52258,222.9437 237.07466,223.61626C236.58171,224.35643 236.56113,225.3277 235.69867,225.62825C234.91048,225.90292 234.01601,225.63092 233.15266,225.63092C232.136,225.63092 231.17111,225.58504 230.51466,226.05626C229.89572,226.50056 229.14816,226.62622 228.136,226.63092C227.2045,226.63524 226.68858,227.30194 225.95833,227.61009C225.09109,227.97604 224.04031,227.6124 223.60983,228.33626C223.09854,229.19601 222.66702,229.46219 221.78534,229.71625C221.47858,229.80464 221.5,229.02692 221.5,228.03542C221.5,227.28809 221.5,226.26692 221.5,225.42958C221.5,224.46425 221.5,223.63092 221.5,222.65242C221.5,221.93542 221.5,220.99492 221.5,220.14693C221.5,219.28358 221.5,218.26692 221.5,217.42958C221.5,216.46425 221.5,215.63092 221.5,214.65242C221.5,213.93542 221.65491,213.10968 222.33333,212.46425C222.93707,211.88986 223.84015,211.68564 224.257,210.96675C224.69844,210.20549 224.20322,209.35315 224.51067,208.31358C224.73108,207.5683 225.64313,207.18588 226.216,206.54692C226.73923,205.96333 227.08618,205.16183 227.64934,204.45625C228.27791,203.6687 228.87279,203.20676 229.37849,202.40926C229.88873,201.6046 229.5,200.80559 229.5,199.79759L229.5,198.93542L229.5,198.03091L229.52083,197.11009" id="svg_9" stroke-width="3" stroke="#000" fill="none"/>
  <path t="60176,60436,60464,60470,60518,60660,60660,60690,60791" d="M234.5,152.63092C231.91066,152.63092 231.09879,152.51439 230.43866,152.05626C229.70773,151.54898 228.66667,151.63092 227.91066,151.63092L227.02083,151.58925L226.55716,150.93008" id="svg_10" stroke-width="3" stroke="#000" fill="none"/>
  <path t="62197,62234,62248,62264,62294,62400,62412,62419,62420,62431,62440,62444,62445,62451,62451,62451,62459,62467,62475,62475,62481,62481,62491,62491,62491,62497,62510,62527,62527,62566,62608,62608,62654,62654,62661,62692,62692,62706,62707,62720,62720,62720,62736,62736,62750,62766,62766,62766,62780,62780,62796,62796,62796,62810,62811,62826,62827,62836,62841,62841,62856,62870,62870,62886,62886,62900,62900,62916,62931,62931,62946,62962,62962,62968,62984,63014" d="M156.5,183.63092C156.5,182.74425 156.79971,181.6869 156.27867,180.87375C155.80844,180.13988 155.743,179.28825 155.5,179.28825C154.67334,179.28825 155.5,180.97826 155.5,181.99492C155.5,182.83226 155.5,183.79759 155.5,184.46692C155.5,185.63092 155.5,186.42026 155.5,187.14558C155.5,188.11009 155.5,189.04158 155.5,189.95242C155.5,190.84158 155.5,191.83092 155.5,192.63092C155.5,193.63092 155.5,194.42026 155.5,195.14558C155.5,196.11009 155.5,197.04158 155.5,197.95226C155.5,198.80559 155.5,199.74559 155.5,200.63092C155.5,201.38809 155.47009,202.2841 155.5,203.14693C155.53603,204.18613 156.26512,204.43483 157.01733,204.80025C157.83676,205.1983 158.21999,206.06447 158.82133,206.83075C159.30016,207.44089 159.84621,207.97488 160.61467,208.74559C161.19464,209.32727 161.91066,210.04158 162.66667,210.79759C163.15266,211.28358 163.67467,211.80559 164.47867,212.60959C165,213.13092 165.66667,213.79759 166.32533,214.45625C166.84734,214.97826 167.58559,215.78049 168.12534,216.22025C168.9416,216.8853 169.70674,217.11926 170.61333,217.54825C171.36496,217.90392 171.26035,218.99556 171.94667,219.56958C172.65176,220.1593 173.48947,220.1593 174.4785,220.50975C175.18854,220.76134 175.66899,221.44659 176.3,222.06291C177.01459,222.76085 177.99803,222.52328 178.84734,222.68808C179.77306,222.86771 180.5,223.46425 181.25717,223.62642L182.14816,223.63542L183.16667,223.79759L183.66667,224.46425" id="svg_11" stroke-width="3" stroke="#000" fill="none"/>
  <path t="63623,63800,63808,63817,63832,63832,63848,63848,63848,63848,63854,63864,63877,63884,63906,63914,63914,63936,63945,63959,63974,63980,64065,64090,64090,64100,64119,64119,64131,64131,64146,64146,64160,64175,64175,64176,64190,64190,64205,64206,64243,64312,64312,64494,64494,64587" d="M171.5,188.63092C172.37849,189.85242 172.30215,190.82944 172.784,191.54825C173.22606,192.20772 173.49236,192.91182 173.83333,193.79759C174.14426,194.60533 174.53249,195.09233 174.93201,195.86159C175.48462,196.92563 175.90329,197.62848 176.52533,198.20558C177.12686,198.76367 177.1837,199.71365 177.94267,200.38809C178.50488,200.88768 179.47072,201.024 180.07466,201.65625C180.64145,202.24959 181.47878,202.32623 182.25717,202.85225C182.98042,203.34099 183.23489,204.27403 183.60983,204.92558C184.02988,205.65552 185.31871,205.73721 185.491,206.39259C185.7187,207.25876 185.53836,208.24545 185.784,209.02959C186.02873,209.81082 186.47141,210.87692 186.5,211.79759C186.52078,212.4666 186.5,213.23225 186.5,214.23093C186.5,215.03091 186.5,216.02959 186.5,216.97375C186.5,217.87825 186.5,218.79759 186.5,219.63092L186.5,220.60942L186.5,221.42958L186.41467,222.34558" id="svg_12" stroke-width="3" stroke="#000" fill="none"/>
  <path t="66186,66367,66380,66380,66396,66396,66410,66434,66434,66448,66470,66470,66494,66524,66568,66568,66606,66606,66636,66666,66680,66680,66704,66733,66734,66785,66786,66800,66816,66816,66830,66830,66838,66838,66846,66846,66868,66876,66890,66915,66928,66928,66936,66936,66950,66950,66950,66958,66958,66966,66980,66980,67005,67056,67056,67070,67070,67086,67094,67124" d="M184.5,207.63092C185.7215,208.50941 186.64885,208.48053 187.38533,208.80159C188.24265,209.17532 188.5499,209.99956 189.61467,210.46025C190.44217,210.81828 191.3,210.63092 192.136,210.63092C192.98399,210.63092 193.84734,210.63092 194.864,210.63092C195.70134,210.63092 196.66667,210.63092 197.5,210.63092C198.4785,210.63092 199.29866,210.63092 200.2,210.63092C201.02083,210.63092 201.98399,210.63092 202.84734,210.63092C203.74283,210.63092 204.74358,210.75047 205.38533,210.46025C206.23749,210.07487 206.75308,209.16536 207.61467,208.80159C208.4453,208.4509 209.26617,208.59988 210.15717,208.27826C210.91278,208.00551 211.9568,207.89223 212.62801,207.56958C213.52731,207.1373 213.43478,205.96655 214.2045,205.63992C215.07043,205.27246 215.65681,204.87424 216.52083,204.63092C217.4671,204.36444 218.0976,203.97617 218.98534,203.71359C219.69446,203.50385 220.70825,203.20013 221.3,202.78026C221.90874,202.34833 222.94403,201.94063 223.78566,201.58275C224.56351,201.252 225.22874,200.76796 226.01733,200.54692C226.90587,200.29787 227.83899,199.8194 228.5,199.61009C229.51585,199.28844 229.97917,198.63092 230.59984,197.87375L231.33333,197.46425L231.83333,196.79759" id="svg_13" stroke-width="3" stroke="#000" fill="none"/>
  <path t="69082,69196,69202,69209,69209,69217,69217,69227,69232,69233,69240,69240,69248,69248,69248,69253,69253,69259,69259,69259,69267,69267,69267,69275,69275,69275,69283,69283,69283,69283,69289,69289,69299,69299,69299,69305,69314,69314,69319,69319,69320,69329,69329,69329,69335,69336,69349,69349,69350,69366,69366,69387,69387,69513,69520,69520,69525,69530,69530,69538,69538,69546,69547,69547,69554,69554,69554,69560,69560,69568,69569,69576,69576,69584,69584,69590,69599,69599,69599,69606,69614,69614,69620,69620,69636,69636,69644,69644,69644,69651,69651,69658,69658,69666" d="M101.5,222.63092C101.5,220.04158 101.53747,219.09319 101.27866,218.30959C100.98901,217.43259 100.56215,216.65894 100.50134,215.83226C100.43101,214.87633 100.55271,213.96751 100.44283,213.22643C100.29309,212.21645 99.86503,211.44731 99.62117,210.43092C99.43161,209.64084 99.39121,208.99619 98.79467,208.02641C98.39021,207.3689 97.78311,206.47682 97.60983,205.67825C97.43353,204.86578 97.35523,203.79153 97.14733,203.08359C96.94631,202.39906 96.63369,201.46812 96.55717,200.67375C96.4752,199.82292 96.5,198.63092 96.5,197.73541C96.5,197.15175 96.55512,196.31461 96.491,195.08809C96.45708,194.43941 96.07778,193.4164 95.64933,192.84158C95.09383,192.0963 94.53603,191.2583 94.5,190.30942C94.47346,189.6106 94.5,188.63092 94.5,187.82025C94.5,186.94559 94.5,185.94691 94.5,185.13092C94.5,184.31493 94.41298,183.30925 94.536,182.47758C94.68128,181.49547 95.34641,180.86407 95.48933,179.99492C95.65504,178.98723 95.5,178.22643 95.5,177.23225C95.5,176.46692 95.50897,175.25554 95.85267,175.39792C96.62398,175.71744 96.48958,177.13072 96.5,177.95242C96.51128,178.84151 96.45264,179.83356 96.52084,180.63092C96.60695,181.63782 96.89453,182.22208 97.14733,183.08809C97.42516,184.03986 97.47781,184.85583 97.4955,185.67825C97.51766,186.70903 97.35344,187.67661 97.83334,188.46425C98.21894,189.09714 99.22015,189.60626 99.54816,190.38809C99.9141,191.26028 100.11732,191.98898 100.45184,192.87825C100.80228,193.80988 101.38126,194.4317 101.79467,194.97826C102.44492,195.83795 102.86195,196.59622 103.5,197.15175C104.20004,197.76125 104.3655,198.66495 104.66666,199.46425C104.94278,200.19708 105.67982,200.95502 106.14817,201.63625C106.65303,202.37057 107.16666,203.29759 107.428,203.96959L107.50017,204.95209L107.536,205.76959L107.92533,206.56958" id="svg_14" stroke-width="3" stroke="#000" fill="none"/>
  <path t="71741,71991,72032,72032,72043,72065,72077,72077,72098,72109,72133,72163,72169,72185,72193,72215,72215,72241,72241,72253,72283,72305,72319,72319,72357,72373,72373,72395,72395,72417,72433,72447,72447,72469,72493,72493,72531,72553,72553,72567,72597,72636,72636,72657,72658,72687,72709,72747,72747,72763,72777,72777,72785,72807,72815,72853,72853,72860,72867,72883,72891,72898,72914,72919,72919,72927,72928,72949,72975,72987,72987,72995,73003,73025,73048,73072,73072,73093,73115,73115,73137,73137,73160,73183,73219,73219,73257,73287,73287,73318,73348,73348,73378,73408,73438,73438,73476,73476,73529,73545,73561,73581,73582,73604,73610,73647,73648,73686,73715,73716,73729,73754,73760,73784,73789,73790,73828,73858,73858,73866,73866,73903,73904,73925,73926,73939,73949,73980,73999,74000,74007,74008,74023,74045,74053,74083,74113,74114,74135,74135,74152,74173,74174,74195,74196,74203,74218,74243,74247,74248,74264,74293,74300,74324,74346,74346,74353,74375,74392,74405,74414,74443,74473,74474,74488,74513,74513,74540" d="M103.5,275.63092C101.864,275.02026 101.14904,274.57623 100.52084,274.13092C99.62226,273.49393 99.01858,272.87515 98.62133,272.18826C98.18597,271.43549 98.05365,270.48001 97.39017,269.98358C96.74168,269.49835 95.83663,269.32724 95.216,268.7149C94.60513,268.11218 93.88547,267.67282 93.54816,266.92108C93.20581,266.15808 92.72272,265.47128 92.068,264.83224C91.44313,264.22235 90.75179,263.63272 90.536,262.76959C90.30009,261.82596 90.18535,261.24692 89.66666,260.46426C89.19719,259.75586 89.5,258.87375 89.5,257.97824C89.5,257.11493 89.5,256.15176 89.5,255.22025C89.5,254.30959 89.5,253.45625 89.5,252.51625C89.5,251.63092 89.5,250.83092 89.5,249.99492C89.5,248.97826 89.5,248.28358 89.5,247.26692C89.5,246.32642 89.5,245.46425 89.5,244.63092C89.5,243.65242 89.48856,242.83218 89.5,241.93092C89.51042,241.10989 89.80077,240.15375 90.07467,239.45625C90.43991,238.52615 90.96816,237.84413 91.64933,237.60559C92.4845,237.31313 93.17519,236.61807 93.44733,235.92558C93.80799,235.00787 94.391,234.71082 95.31467,234.62025C96.1767,234.53574 96.73772,233.83823 97.59983,233.63075C98.43996,233.42857 98.86255,232.70131 99.82117,232.63058C100.63957,232.57021 101.19151,232.00568 101.54816,231.33626C101.96458,230.55467 103.02084,230.63092 103.984,230.63092C104.67467,230.63092 105.8152,230.75186 106.44733,230.27826C107.12708,229.76898 107.91067,229.63092 108.82133,229.63092C109.67467,229.63092 110.6153,229.66428 111.5,229.63092C112.25878,229.60231 113.1389,229.24344 113.84734,228.98358C114.84704,228.61688 115.7,228.63092 116.60017,228.63092C117.38533,228.63092 118.32533,228.63092 119.33334,228.63092C120.08933,228.63092 121.02084,228.63092 121.984,228.63092C122.67467,228.63092 123.74284,228.63092 124.6,228.63092C125.5,228.63092 126.25716,228.63092 127.32533,228.63092C128.01601,228.63092 129.05431,228.27089 129.97917,228.65175C130.72217,228.95772 131.20988,229.57309 132.01733,229.62959C133.05339,229.70209 133.13586,230.64876 133.66667,231.29759C134.16835,231.91081 135.36353,231.48158 136.33333,231.79759C137.02435,232.02277 137.85612,232.50204 138.47467,233.05626C139.06609,233.58617 139.12447,234.54445 139.83333,235.29759C140.33795,235.83374 141.33328,236.01614 141.72133,236.73108C142.09486,237.41928 142.21463,238.35834 142.584,239.06158C143.07242,239.99146 143.65581,240.44771 144.35066,241.04158C144.92119,241.52919 145.17947,242.56238 145.66667,243.29759C146.16534,244.05014 146.86195,244.59622 147.5,245.15175C148.20006,245.76125 148.25836,246.7256 148.784,247.46159C149.27415,248.1479 149.39125,248.89153 149.85266,249.58275C150.31723,250.2787 150.48213,251.07582 151.06799,251.74559C151.68047,252.44579 152.36009,252.94565 152.66667,253.79759C152.97057,254.64211 153.39374,255.45505 153.4955,256.32642C153.59636,257.19 154.2877,257.69604 154.464,258.49225C154.67429,259.44193 154.67046,260.34485 155.5,260.63092C156.32912,260.91687 156.32983,261.81165 156.784,262.54825C157.26006,263.32037 157.5817,263.90543 158.07466,264.6456C158.52258,265.31815 158.18481,266.29739 158.52083,267.11008C158.82787,267.85263 159.48199,268.49176 159.5,269.46426C159.51399,270.22012 159.5,271.15176 159.5,272.11493L159.5,272.80557L159.5,273.87375" id="svg_15" stroke-width="3" stroke="#000" fill="none"/>
  <path t="76598,76761,76776,76777,76784,76784,76792,76792,76798,76798,76807,76807,76814,76823,76830,76830,76836,76843,76844,76852,76853,76859,76859,76866,76874,76874,76883,76883,76888,76888,76895,76904,76904,76912,76912,76926,76926,76926,76942,76942,76942,76963,77015,77031,77031,77045,77045,77054,77054,77054,77061,77061,77067,77067,77075,77075,77084,77084,77084,77095,77095,77095,77097,77097,77097,77097,77097,77105,77105,77105,77105,77105,77113,77113,77113,77115,77115,77115,77121,77121,77121,77121,77128,77128,77143,77143,77143,77151,77151,77173,77173,77188" d="M109.5,217.63092C108.92533,215.99492 108.5521,215.14824 108.51067,214.42026C108.45445,213.43263 108.66556,212.541 108.05733,211.65225C107.62633,211.02246 106.70808,210.49799 106.54166,209.63092C106.35706,208.66908 106.5,207.83226 106.5,206.93092C106.5,206.11009 106.58044,205.13792 106.464,204.45625C106.27641,203.35805 105.58796,202.64359 105.5045,201.87375C105.40749,200.97899 105.5,200.22643 105.5,199.23225C105.5,198.28809 105.5,197.38809 105.5,196.53075C105.5,195.74559 105.5,194.79492 105.5,194.02959C105.5,193.03542 105.5,192.11626 105.5,191.13092C105.5,190.30942 105.5,189.42026 105.5,188.43092C105.5,187.63092 105.5,186.63092 105.5,185.82025C105.5,185.17375 105.5,183.94826 105.5,183.15175C105.5,182.40025 105.21424,181.40332 105.50267,180.43225C105.73318,179.65616 106.77995,179.55333 107.47867,180.07391C108.11526,180.54822 108.65722,181.63869 109.14817,182.22643C109.62952,182.80267 110.27071,183.60463 110.54816,184.38359C110.86839,185.28264 111.19076,186.02464 111.41734,187.03091C111.59589,187.82391 111.81972,188.63977 112.35067,189.44159C112.78368,190.0955 113.28272,191.04709 113.44933,191.87758C113.56902,192.4742 113.8174,193.80299 114.068,194.51625C114.33389,195.27303 114.65959,196.03795 114.79467,196.43542C115.19753,197.62088 115.34174,198.43224 115.44933,199.25226C115.56078,200.10165 115.64245,201.00633 115.83334,201.96425C116.04043,203.00346 116.20218,203.53262 116.5,204.61009C116.64777,205.14468 116.95622,206.17195 117.16666,207.13092C117.35062,207.96919 117.47219,209.04701 117.491,209.66025C117.53039,210.94502 117.43428,211.62625 117.66666,212.63092C117.85614,213.45007 118.22095,214.22977 118.45184,215.22192C118.6133,215.91579 119.36134,216.55891 120.01733,216.62825L121.08933,216.63092" id="svg_16" stroke-width="3" stroke="#000" fill="none"/>
  <path t="77710,77909,77909,77925,77925,77925,77931,77932,77932,77932,77937,77937,77946,77954,77954,77962,77962,77962,77968,77976,77976,77983,77984,77984,77992,77992,77997,77998,78006,78006,78013,78013,78013,78028,78028,78155,78163,78163,78164,78172,78178,78186,78186,78193,78194,78194,78202,78202,78202,78208,78209,78209,78215,78215,78216,78216,78226,78226,78226,78231,78237,78238,78246,78262,78262,78283,78283,78305,78305,78314,78314" d="M114.5,217.63092C113.66666,218.29759 113.491,217.58939 113.50034,216.43059C113.50534,215.80925 113.63721,214.84911 113.94267,213.98842C114.17972,213.32045 114.66227,212.3232 114.932,211.68425C115.34953,210.69521 115.31586,209.79839 115.572,208.99492C115.87074,208.05783 116.64211,207.69302 117.16666,206.63092C117.53486,205.88541 117.39149,205.10802 117.52084,204.13092C117.63181,203.29262 118.08244,202.63438 118.33334,201.63092C118.52996,200.84453 118.46872,200.03029 118.5045,199.03091C118.53319,198.22971 118.80551,197.23842 119.07467,196.43092C119.40516,195.43941 119.47625,194.63086 119.5,193.63092C119.519,192.83086 119.60121,191.99242 120.068,191.23225C120.44666,190.61563 121.0261,189.23854 121.5,189.41658C122.20772,189.68246 121.5,190.86559 121.5,191.95892C121.5,192.93542 121.5,193.79759 121.5,194.65175C121.5,195.63092 121.5,196.44159 121.5,197.08809C121.5,198.31625 121.5,199.15175 121.5,199.73541C121.5,200.93092 121.5,201.83092 121.5,202.43092C121.5,203.63092 121.49121,204.53142 121.52084,205.13092C121.56538,206.03212 121.77531,207.23044 121.92533,207.80959C122.13522,208.61983 122.34374,209.66911 122.5,210.63092C122.61783,211.35617 123.74311,211.39716 124.33067,212.20158C124.72949,212.74762 124.66602,213.8544 125.02084,214.61009C125.43708,215.49661 126.02084,216.08925 126.82117,216.50958L127.63866,216.65625" id="svg_17" stroke-width="3" stroke="#000" fill="none"/>
  <path t="78456,78545,78561,78562,78576,78593,78598,78598,78605,78605,78614,78614,78628,78749,78757,78757,78766,78766,78784,78784,78790,78790,78790,78790,78794,78808,78808,78835,78835,78835,78854,78854" d="M127.5,217.63092C127.5,215.87375 127.5,214.97826 127.5,214.11491C127.5,213.15175 127.5,212.32642 127.5,211.30942C127.5,210.61009 127.5,209.63092 127.5,208.84158C127.5,207.79759 127.49943,206.93542 127.5,206.11009C127.50067,205.15092 127.74874,204.24443 128.07466,204.83759C128.54218,205.68843 128.47054,206.51567 128.51067,207.48825C128.53801,208.15082 128.7151,209.27469 128.85266,209.93175C129.06506,210.94632 129.29356,211.56531 129.44284,212.75941C129.5636,213.72543 129.56375,214.47108 130.06934,215.39893C130.48085,216.15413 130.85184,216.62558 131.47867,217.48775L132.12534,218.17358" id="svg_18" stroke-width="3" stroke="#000" fill="none"/>
  <path t="79012,79131,79137,79137,79137,79146,79153,79163,79163,79167,79167,79167,79175,79175,79183,79183,79191,79191,79192,79198,79198,79198,79205,79205,79213,79213,79213,79221,79222,79228,79228,79235,79244,79244,79252,79257,79257,79266,79266,79274,79287,79305,79305,79325,79325,79341,79341,79355,79355,79515,79516,79516,79516,79516,79516,79516,79516,79516,79559,79559,79559,79560,79560,79560,79560,79588,79588,79588,79588,79588,79588,79588,79588,79588,79589,79589,79589,79589,79589,79589,79589,79589,79590,79596,79596,79596,79596,79596,79596,79596,79596,79596,79603,79603,79603,79603,79603,79603,79603,79618,79618,79633,79633,79634,79648,79649,79649" d="M135.5,219.63092C135.5,217.11009 135.5,216.08826 135.5,215.38025C135.5,214.63625 135.5,213.44525 135.5,212.53091C135.5,211.63092 135.5,210.81659 135.5,209.86159C135.5,209.11009 135.5,208.31358 135.5,207.31625C135.5,206.44159 135.5,205.43092 135.5,204.63092C135.5,203.63092 135.5,202.82025 135.5,202.17375C135.5,200.94691 135.5,200.13092 135.5,199.31493C135.5,198.31625 135.5,197.65175 135.5,196.63092C135.5,195.83092 135.58203,195.02678 135.491,194.03542C135.40565,193.10606 134.7366,192.455 134.20534,191.93542C133.44818,191.19493 133.5,190.14693 133.5,189.45625C133.5,188.38809 133.59283,187.515 133.41467,186.74559C133.18916,185.77176 132.66606,185.1396 132.52083,184.15175C132.40074,183.33493 132.5,182.30959 132.5,181.63092C132.5,180.65208 132.5,179.82109 132.5,178.86292C132.5,178.13092 132.44569,176.96239 132.5,176.17259C132.55412,175.38535 133.00223,176.29678 133.16434,176.74492C133.57262,177.87357 133.7961,178.52736 134.04167,179.21425C134.29472,179.92204 134.5499,180.63538 134.81866,181.33226C135.32132,182.63562 135.81886,183.73956 136.05183,184.25992C136.28688,184.7849 136.77055,185.93959 137.00983,186.61859C137.27979,187.38466 137.84103,189.29559 138.14284,190.47325C138.47791,191.78075 138.81218,193.20004 139.16133,194.70026C139.52325,196.25536 139.88336,197.84204 140.25183,199.43126C140.6154,200.99937 141.32625,203.96608 141.67816,205.31459C142.00542,206.56866 142.32744,207.72513 142.64267,208.78558C142.93164,209.75768 143.2115,210.63821 143.48117,211.42859C143.72278,212.13672 144.16154,213.29974 144.35683,213.75908C144.52364,214.15146 144.67845,214.47945 144.81734,214.75359C144.93521,214.98627 145.04437,215.18068 145.13383,215.35208C145.21353,215.50479 145.33749,215.79643 145.37883,215.95226C145.42168,216.11382 145.45107,216.28374 145.48534,216.45625C145.52007,216.63107 145.41141,216.89577 145.94284,217.60959C146.40765,218.23393 147.36513,218.77309 147.87466,219.46692C148.27876,220.01718 148.82133,220.83058 149.5,221.58925L150.01601,222.06026" id="svg_19" stroke-width="3" stroke="#000" fill="none"/>
  <path t="79882,79941,79955,79955,79964,79964,79973,79977,79977,79987,79987,80002,80002,80017,80031,80031,80045,80045,80045,80054,80054,80062,80236,80250,80258,80258,80265,80274,80278,80278,80285,80286,80294,80294,80303,80303,80308,80308,80316,80316,80324,80324,80336,80338,80353,80414,80414,80477,80505,80525,80542,80542,80549,80549,80549,80556,80557,80564,80564,80572,80578,80578,80594,80602,80602,80705,80713,80713,80722,80728,80728,80737,80737,80744,80744,80744,80752,80752,80752,80771,80771,80771,80783,80783,80783" d="M150.5,223.63092C149.66667,221.46425 149.5,220.63092 149.5,219.87375C149.5,218.97826 149.89859,218.00677 149.45833,217.17259C149.07104,216.43878 147.89859,216.45024 147.61433,215.56842C147.32515,214.67131 147.5,213.77393 147.5,212.83359C147.5,211.99492 147.5,211.14426 147.5,210.38425C147.5,209.20958 147.49994,208.40558 147.5,207.58359C147.50009,206.55275 147.25822,205.57916 147.72133,204.87375C148.1998,204.14493 149.09894,203.58061 149.44733,204.33626C149.75691,205.00772 150.33636,205.77074 150.47917,206.65175C150.63248,207.59747 150.56274,208.41823 151.06799,209.11491C151.59799,209.84573 152.35934,210.58315 152.47867,211.25626C152.65881,212.27246 152.47816,213.03569 152.50133,214.02959C152.51918,214.7955 152.87312,215.7032 153.216,216.51492C153.52786,217.25319 153.09938,218.24255 153.536,219.18425C153.88373,219.93427 154.20604,220.6703 154.83333,221.29759C155.46062,221.92488 156.2276,222.64 157,222.58925C157.77644,222.53824 157.5,221.14426 157.5,220.38425C157.5,219.20958 157.49994,218.40558 157.5,217.58359C157.50009,216.55258 157.32428,215.83368 157.66667,214.79759C157.93623,213.9819 158.47141,213.32762 158.5,212.30959C158.51906,211.6312 158.38054,210.64542 158.5,209.63092C158.58592,208.9012 159.5257,208.53262 160.47833,208.63126C161.22881,208.70895 161.48958,209.65158 161.5,210.60959C161.50841,211.38354 161.43016,212.30699 161.61433,213.09259C161.84584,214.08009 162.36267,214.84988 162.64934,215.40558C163.18956,216.45276 163.38815,217.1786 163.54817,218.08359C163.71951,219.05263 163.94667,219.85625 164.26167,220.67825L164.66667,221.46425L165.15717,222.16925L165.71066,222.78426" id="svg_20" stroke-width="3" stroke="#000" fill="none"/>
  <path t="81273,81426,81426,81426,81461,81461,81461,81461,81461,81461,81461,81461,81461,81464,81464,81464,81464,81464,81464,81464,81465,81465,81538,81538,81538,81538,81538,81538,81538,81538,81538,81658,81658,81666,81666,81674,81674,81682,81682,81693,81693,81693,81696,81696,81696,81703,81704,81704,81713,81713,81713,81713,81713,81720,81720,81720,81720,81720,81720,81727,81727,81727,81727,81727,81734,81734,81734,81734,81742,81743,81747,81748,81748,81755,81756,81756,81772,81793,81794" d="M170.5,228.63092C170.5,226.08559 170.5,225.42958 170.5,224.96359C170.5,222.79759 170.5,221.76726 170.5,220.59492C170.5,219.30858 170.5,217.93625 170.5,216.50592C170.5,215.04559 170.5,213.58325 170.5,212.14693C170.5,209.46425 170.5,208.26825 170.5,207.17625C170.5,206.18225 170.5,205.28026 170.5,204.46425C170.5,203.72826 170.5,203.06625 170.5,202.47226C170.5,201.46425 170.5,201.03859 170.5,200.65892C170.5,200.32126 170.5,200.02159 170.5,199.75592C170.5,199.52025 170.5,199.31059 170.5,199.12292C170.5,198.79759 170.17963,198.19586 170.94267,197.75275C171.67944,197.32489 172.43452,198.33958 172.491,199.03992C172.57065,200.02776 172.46446,200.84686 172.72133,201.83109C172.94019,202.66968 173.27585,203.3062 173.41467,204.31625C173.52876,205.14642 173.4823,206.03242 173.50267,207.23225C173.51302,207.84178 173.56371,208.80042 173.83333,209.79759C174.03131,210.52983 174.36125,211.2845 174.64934,212.11359C174.80023,212.54787 175.18861,213.96098 175.332,214.99892C175.40604,215.53481 175.49782,216.63113 175.55066,217.18025C175.60316,217.7258 175.80705,219.3044 176.06799,220.25893C176.19286,220.71568 176.51123,221.56435 176.79466,222.36475C177.18211,223.45891 177.34743,224.14177 177.47917,225.08925C177.59779,225.94229 177.79346,226.944 178,227.63092C178.3494,228.79288 178.39391,229.58929 178.56134,230.36958C178.76424,231.31511 179.35066,231.95892 179.93201,232.42825L180.51466,233.26692L180.78534,234.11359L181.11067,234.76959" id="svg_21" stroke-width="3" stroke="#000" fill="none"/>
  <path t="82042,82145,82145,82154,82154,82154,82162,82162,82168,82168,82168,82168,82175,82176,82176,82176,82183,82183,82192,82192,82192,82328,82328,82347,82348,82356,82356,82364,82364,82372,82377,82377,82385,82394,82394,82402,82407,82407,82423,82439,82439" d="M182.5,232.63092C182.5,230.62109 182.49399,229.84557 182.5,228.79759C182.50534,227.86687 182.50058,227.22096 182.784,226.22958C183.02693,225.37979 183.32962,224.46367 183.45633,223.67375C183.59334,222.8196 183.661,222.17807 184.35201,221.03226C184.72749,220.40962 185.26489,219.8961 185.64799,219.31625C186.42442,218.14111 186.43243,217.39178 186.94267,216.43092C187.28297,215.7901 187.94997,215.2998 188.32933,214.23492C188.61394,213.43605 188.5,213.79759 188.5,214.45625C188.5,215.46425 188.5,216.25626 188.5,217.28358C188.5,217.97826 188.5,219.00558 188.5,219.95226C188.5,220.80559 188.5,221.74559 188.5,222.63092C188.5,223.38809 188.17723,224.38979 188.66667,225.29759C189.01961,225.95221 189.47917,226.65175 189.5005,227.60925L189.756,228.34425" id="svg_22" stroke-width="3" stroke="#000" fill="none"/>
  <path t="82589,82648,82656,82663,82664,82664,82673,82673,82673,82678,82678,82678,82685,82685,82686,82693,82693,82693,82701,82701,82701,82708,82708,82715,82715,82724,82724,82732,82732,82746,82767,82768,82854,82861,82861,82867,82867,82867,82875,82876,82876,82876,82876,82883,82884,82884,82884,82884,82884,82897,82897,82897,82897,82897,82899,82900,82900,82900,82900,82903,82904,82904,82904,82904,82915,82915,82915,82918,82918,82918,82926,82926,82941,82963,82963,82963" d="M193.5,226.63092C193.5,223.17259 193.38055,222.26643 193.83333,221.46425C194.25237,220.72183 194.89908,220.26146 195.47833,219.43076C195.88814,218.84305 196.23996,217.9507 196.41867,216.94691C196.56332,216.13448 196.66769,215.2614 197.164,214.55241C197.69099,213.79959 198.56329,213.32578 199.13583,212.43076C199.49721,211.86584 199.61449,210.92296 200.06799,209.94826C200.32213,209.40205 200.83635,208.66174 201.25734,207.77393C201.64453,206.95738 202.31892,206.44527 202.93201,205.74559C203.52252,205.07169 203.46817,204.17455 204.20534,203.38809C204.71353,202.84592 205.39859,202.20682 205.72133,201.30959C205.96965,200.61923 206.12057,199.2267 206.5,199.28825C207.30284,199.41849 206.5,201.05258 206.5,201.87758C206.5,202.79259 206.5,203.79759 206.5,204.51892C206.5,205.28825 206.5,206.11359 206.5,207.00291C206.5,208.47359 206.5,208.99892 206.5,209.53625C206.5,210.63092 206.5,211.18025 206.5,212.26292C206.5,213.29759 206.5,214.26158 206.5,215.16959C206.5,216.04559 206.5,216.91359 206.5,217.79759C206.5,218.71492 206.5,219.65625 206.5,220.60559C206.5,221.07825 206.5,222.46425 206.5,223.34425C206.5,224.18425 206.5,224.98425 206.5,225.74425C206.5,226.80942 206.5,227.79492 206.5,228.42026C206.5,229.63092 206.5,230.52193 206.5,231.08925C206.5,232.29759 206.5,233.08925 206.51067,234.04158L206.72166,234.95242L207.04167,235.65175L207.38667,236.23225" id="svg_23" stroke-width="3" stroke="#000" fill="none"/>
  <path t="83549,83647,83655,83656,83663,83663,83663,83669,83669,83669,83679,83679,83679,83680,83683,83684,83684,83684,83684,83694,83694,83694,83694,83694,83698,83698,83698,83698,83706,83706,83706,83714,83714,83714,83722,83722,83727,83727,83745,83745,83753,83754" d="M199.5,233.63092C200.11067,231.99492 200.58574,231.30052 201.02083,230.61009C201.64619,229.61772 202.16087,229.03796 202.67467,228.43092C203.34415,227.63995 203.73363,227.02206 204.12534,226.43092C204.79865,225.41483 205.35297,224.80542 205.78267,224.35892C206.26712,223.85551 207.14099,222.98639 207.80983,222.32559C208.16037,221.97928 208.87677,221.27228 209.61734,220.59892C210.32526,219.95526 211.01131,219.39594 211.664,218.89226C212.28616,218.41212 212.91278,217.96515 213.79984,217.20975C214.40535,216.69411 214.96227,216.13251 215.81467,215.40025C216.56403,214.75652 217.27312,214.30595 217.89549,213.88275C218.71234,213.32732 219.28418,212.78683 219.89999,212.28358C220.87456,211.48715 221.4619,211.12894 222.4785,210.75209C223.18483,210.49026 223.8045,209.92558 224.38533,209.19891L225.14816,208.73625L225.93066,208.46292" id="svg_24" stroke-width="3" stroke="#000" fill="none"/>
  <path t="83925,83967,83978,83978,83978,83983,83983,83991,83991,83998,83998,83998,84006,84006,84015,84015,84015,84021,84021,84021,84027,84027,84036,84044,84044,84051,84066,84066,84087,84087" d="M226.5,206.63092C225.27867,207.50992 224.63956,208.12653 224.52533,208.91759C224.4229,209.62698 224.16287,210.63707 223.85266,211.37909C223.48289,212.26355 223.48381,213.08411 222.93201,214.03091C222.55972,214.66969 221.91209,215.17422 221.61433,216.23541C221.38222,217.06262 221.51729,218.05266 221.48933,218.85625C221.46071,219.67906 221.29433,220.71428 221.07466,221.39491C220.80321,222.23602 220.53249,223.2251 220.5045,223.97375C220.46597,225.00487 220.5,225.95226 220.5,226.80559C220.5,227.74559 220.5,228.63092 220.5,229.38809L220.5,230.28809L220.5,231.03542" id="svg_25" stroke-width="3" stroke="#000" fill="none"/>
  <path t="84232,84344,84357,84357,84357,84357,84366,84366,84366,84373,84373,84381,84381,84381,84387,84387,84387,84395,84395,84403,84403,84403,84412,84412,84412,84412,84426,84426,84442,84442,84442,84455,84532,84599,84607,84623,84624,84624,84624,84634,84635,84635,84638,84638,84644,84644,84644,84652,84652,84666,84675" d="M220.5,232.63092C219.70667,231.94826 220.35663,231.31146 220.75183,230.62109C221.18753,229.85999 221.39429,229.24844 222.26801,228.31758C222.71498,227.84137 223.51945,227.32469 224.35699,226.65225C224.97758,226.15399 225.59349,225.30536 226.02083,224.61009C226.37976,224.02612 226.98399,223.23093 227.5,222.63092C228.01601,222.03091 228.73758,221.02466 229.12534,220.43092C229.65352,219.62218 230.17667,219.0455 230.67467,218.39491C231.36769,217.48955 231.73985,216.67912 232,216.15175C232.37334,215.3949 233.14796,214.42848 233.71066,214.01625C234.48767,213.44702 235.26195,212.78238 235.84283,212.34076C236.70093,211.68839 237.1964,211.29779 237.5,210.43358C237.5434,210.31007 237.95189,211.16908 238.35066,211.91359C238.65645,212.4845 239.03192,213.09424 239.32933,214.51225C239.47905,215.22609 239.48138,215.93355 239.5,217.13092C239.51248,217.93356 239.67345,218.79498 240,219.65175C240.2206,220.23053 240.44284,221.22643 240.49867,222.14558L240.5,223.11009L240.52133,224.02025" id="svg_26" stroke-width="3" stroke="#000" fill="none"/>
  <path t="84958,85016,85016,85022,85022,85030,85034,85042,85042,85048,85048,85048,85056,85056,85064,85064,85071,85071,85071,85077,85077,85077,85093,85093,85107,85107,85107,85123,85123,85123,85137,85137,85154,85154,85175,85175,85214,85227,85235,85235,85244,85244,85251,85251,85251,85257,85257,85257,85266,85266,85266,85266,85273,85273,85273,85282,85282,85282,85282,85282,85287,85287,85287,85295,85296,85296,85303,85303,85312,85312,85312,85318,85318,85327,85343,85343" d="M243.5,225.63092C243.51067,223.79492 243.52966,223.01292 243.85266,222.03542C244.10471,221.27264 244.38278,220.25932 244.50133,219.43092C244.63261,218.51344 245.23782,217.8374 245.41467,216.86159C245.54918,216.11942 245.49933,215.31358 245.5,214.31625C245.50058,213.44159 245.5,212.43092 245.5,211.63092C245.5,210.63092 245.5,209.82025 245.5,209.17375C245.5,207.94691 245.5,207.40558 245.5,206.58359C245.5,205.31493 245.5,204.63092 245.5,203.46425C245.5,202.67825 245.5,201.85625 245.5,200.79759C245.5,200.08809 245.5,199.23541 245.5,198.23093C245.5,197.43092 245.5,196.43109 245.5,195.65175C245.5,194.65242 245.06511,193.67641 245.55716,192.98808C246.00145,192.36658 247.24561,192.8676 247.79016,193.39259C248.56799,194.14247 248.52927,195.07216 248.94267,195.83109C249.41722,196.70224 250.00125,197.2894 250.25734,198.05241C250.52361,198.84575 250.52393,199.76144 250.94267,200.93092C251.16347,201.54756 251.54572,202.11037 251.93201,203.03091C252.30243,203.91362 252.42435,204.85469 252.62267,205.46692C253.06567,206.83453 253.36633,207.1662 253.91066,207.87909C254.4805,208.6254 255.15089,209.27711 255.83333,210.29759C256.19537,210.83899 256.35153,211.63414 256.83334,212.63092C257.14056,213.26653 257.77969,213.7625 258.25732,214.83092C258.59851,215.59412 258.8027,216.6512 259.20532,217.22643C259.61896,217.81738 260.25717,218.60942 260.58267,219.42958L261.07468,220.26692L261.41599,221.11491L261.52533,221.80559" id="svg_27" stroke-width="3" stroke="#000" fill="none"/>
  <path t="85583,85643,85647,85647,85655,85664,85664,85672,85672,85672,85677,85677,85677,85686,85686,85686,85686,85693,85693,85693,85693,85702,85702,85702,85702,85708,85708,85724,85724,85733,85733,85745,85821,85827,85835,85843,85843,85852,85852,85852,85852,85852,85857,85857,85857,85857,85857,85866,85866,85866,85866,85866,85873,85873,85873,85873,85873,85882,85882,85882,85888,85889,85889,85895,85895,85904,85904,85912,85912,85912" d="M264.5,222.63092C264.5,220.87375 264.5,219.97826 264.5,219.11491C264.5,218.25626 264.43591,217.30449 264.53601,216.42026C264.64926,215.41994 264.9787,214.83621 265.216,213.94559C265.4787,212.95966 265.48898,212.09625 265.66699,211.52641C266.05301,210.2906 266.55801,209.73093 267,209.13092C267.44199,208.53091 268.16873,207.34076 268.33749,206.72643C268.59,205.80721 268.62128,205.13242 268.94266,204.10992C269.17322,203.37637 269.51566,202.67929 269.93201,201.68559C270.34775,200.69337 270.5621,199.89926 271.20532,199.32642C271.76028,198.83218 272.21841,197.91905 272.58267,197.20026C272.98038,196.41548 273.19214,195.334 273.5,195.34442C274.42197,195.37566 273.5,197.11893 273.5,197.91359C273.5,198.96425 273.5,199.60292 273.5,200.69342C273.5,201.49709 273.50302,201.91891 273.49985,203.25243C273.49762,204.18808 273.48376,205.15192 273.46399,205.64159C273.42398,206.63266 273.3457,207.63245 273.216,208.62959C273.08694,209.62193 272.99097,210.10875 272.85266,211.07375C272.65363,212.46245 272.6084,212.90837 272.55716,213.76926C272.50839,214.58861 272.50226,215.36925 272.5,216.80925C272.49896,217.46925 272.5,218.38425 272.5,219.46425C272.5,220.17375 272.5,221.02641 272.5,222.03091C272.5,222.83092 272.5,223.83092 272.5,224.63092L272.5,225.63092L272.5,226.42026L272.5,227.14558" id="svg_28" stroke-width="3" stroke="#000" fill="none"/>
  <path t="87336,87623,87633,87633,87637,87638,87646,87646,87652,87652,87657,87657,87666,87667,87673,87673,87681,87687,87687,87703,87703,87717,87717,87733,87733,87747,87763,87763,87774,87779,87779,87815,87831,87831,87845,87845,87861,87862,87875,87875,87891,87906,87906,87913,87957,87987,88025,88025,88035,88042,88042,88042,88048,88049,88049,88049,88056,88056,88056,88056,88056,88064,88064,88064,88064,88064,88064,88071,88071,88071,88071,88071,88077,88078,88078,88078,88078,88085,88085,88085,88085,88085,88085,88093,88093,88093,88093,88102,88102,88102,88107,88107,88107,88115,88115,88115,88124,88124" d="M95.5,295.63092C94.62117,296.40958 93.97433,295.93118 93.35067,295.5336C92.49258,294.98657 92.79166,293.97974 92.16666,293.13092C91.67988,292.46982 90.79089,292.16718 90.44933,291.44559C89.99428,290.48422 89.22158,290.16043 88.668,289.4296C88.20785,288.82211 87.76215,288.00458 87.20533,287.2836C86.63339,286.54306 86.00871,285.88528 85.35067,285.56958C84.5837,285.2016 84.51516,284.20465 84.216,283.23224C83.97528,282.44977 83.73563,281.61496 83.416,280.83224C83.04911,279.93378 82.55447,279.14957 82.51067,278.45624C82.44359,277.3945 82.00254,276.92557 81.20533,276.57825C80.43414,276.24225 80.30645,275.09409 79.88934,274.49225C79.30683,273.65179 78.52934,273.63226 77.49467,273.63092C76.75066,273.62997 75.61453,273.79718 74.809,273.57376C74.03004,273.3577 73.14957,272.86731 72.36134,272.60559C71.51247,272.32373 70.88531,272.00455 70.11066,271.60959C69.32929,271.21121 69.43171,269.95245 70.18266,269.65225C71.19434,269.24783 72.06357,269.63702 72.66617,269.68808C73.66904,269.77307 74.75681,269.98538 75.52084,270.13092C76.30415,270.28012 77.49918,270.47253 78.30133,270.54825C79.10992,270.62457 79.93747,270.68082 80.35717,270.74075C81.67226,270.92856 82.58661,271.19336 83.05267,271.34525C84.00562,271.65582 84.94941,272.03497 85.416,272.23358C86.78491,272.81628 87.64627,273.22876 88.07467,273.42026C88.92326,273.79959 89.77666,274.16669 90.66666,274.46426C91.57702,274.76865 92.52548,275.005 93,275.13092C93.94765,275.38242 95.33617,275.78967 95.7785,275.95242C96.64868,276.27261 97.48202,276.64575 98.2955,277.03543C98.70011,277.22925 99.89967,277.83075 100.691,278.22641C101.45834,278.61008 102.18674,278.97162 103.16666,279.46426C103.98657,279.87646 104.70619,280.21664 105.5,280.79758C106.12311,281.2536 106.67388,281.83865 107.5,282.46426C108.25601,283.0368 108.92934,283.51492 109.39017,284.2836L109.54816,284.97824" id="svg_29" stroke-width="3" stroke="#000" fill="none"/>
  <path t="88727,88836,88837,88837,88843,88843,88851,88857,88867,88867,88874,88883,88883,88887,88887,88887,88896,88896,88903,88903,88912,88912,88917,88917,88926,88934,88941,88941,88947,88947,88964,88964,88985,88985,89001,89001,89024" d="M102.5,288.63092C102.5,286.57892 102.5,285.63092 102.5,284.98892C102.5,283.68692 102.5,282.94443 102.5,282.03091C102.5,281.11008 102.5,280.14691 102.5,279.45624C102.5,278.38358 102.53922,277.46249 102.48933,276.79492C102.40182,275.62378 102.11036,275.04358 101.85267,274.23093C101.53979,273.24423 101.50533,272.43094 101.5,271.43109C101.49584,270.65176 101.5935,269.63959 101.44283,268.87827C101.25893,267.94901 100.71877,267.31598 100.536,266.26691C100.39238,265.44257 100.6504,264.48209 100.32933,263.74557C99.9556,262.88824 99.04523,262.37308 98.67067,261.51492C98.35618,260.7944 98.5,259.79492 98.5,259.02957L98.4955,258.03992L98.41467,257.2016L97.784,256.80426" id="svg_30" stroke-width="3" stroke="#000" fill="none"/>
  <path t="89409,89478,89478,89497,89498,89513,89526,89526,89543,89543,89548,89548,89548,89563,89563,89578,89578,89593,89593,89607,89607,89607,89615,89615,89623,89662,89743,89754,89754,89757,89766,89766,89766,89773,89773,89773,89781,89782,89782,89792,89792,89797,89803,89804,89804,89812,89817,89833,89855,89877" d="M110.5,293.63092C110.5,292.63092 110.5,291.87375 110.5,290.97824C110.5,290.11493 110.5,289.13092 110.5,288.1456C110.5,287.42026 110.5,286.43091 110.5,285.63092C110.5,284.63092 110.5,283.83093 110.5,283.03091C110.5,282.03091 110.5,281.23093 110.5,280.23093C110.5,279.43091 110.5,278.43091 110.5,277.63092C110.5,276.63092 110.50182,275.83093 110.5,275.03091C110.49775,274.03992 110.3085,273.27728 109.85267,272.52557C109.42768,271.82474 108.98972,270.30524 109.50134,270.28558C110.2047,270.25858 110.02968,271.96002 110.33334,272.79758C110.57083,273.45267 110.61953,274.33899 111.068,275.31491C111.323,275.86984 111.88004,276.64407 112.25716,277.70941C112.4938,278.3779 112.52776,279.24609 112.85267,280.22641C113.1054,280.98895 113.38864,282.05554 113.83334,282.79758C114.26387,283.51599 114.77726,283.99011 115.39017,284.86926C115.91074,285.61597 116.5,286.13092 117.07467,286.69226L117.48534,287.4816" id="svg_31" stroke-width="3" stroke="#000" fill="none"/>
  <path t="90014,90088,90099,90110,90111,90112,90112,90112,90119,90119,90119,90125,90125,90125,90133,90133,90141,90141,90155,90255,90255,90276" d="M120.5,289.63092C120.5,286.17258 120.5,285.32642 120.5,284.46426C120.5,283.61008 120.5,282.63092 120.5,281.82025C120.5,280.94559 120.5,279.94559 120.5,279.11008C120.5,278.52643 120.5,277.33109 120.5,276.44159C120.5,275.58807 120.5,274.55258 120.5,273.87759C120.5,272.79758 120.5,272.0416 120.5,271.11008L120.50134,270.14825L120.55717,269.34076L121.04166,268.67258" id="svg_32" stroke-width="3" stroke="#000" fill="none"/>
  <path t="91094,91192,91192,91199,91200,91200,91206,91213,91213,91223,91223,91223,91227,91227,91227,91236,91236,91236,91236,91243,91243,91243,91251,91251,91251,91251,91251,91258,91258,91258,91258,91258,91258,91265,91265,91265,91265,91265,91265,91273,91273,91273,91273,91281,91282,91282,91287,91287,91287,91295,91295,91295,91305,91305,91305" d="M127.5,217.63092C125.56133,216.74825 125.4496,215.93584 125.216,214.94826C125.02604,214.14514 124.6814,213.41832 124.536,212.29225C124.41006,211.31685 124.51288,210.61 124.5,209.63092C124.48933,208.82004 124.37688,207.92537 123.932,206.94559C123.67609,206.38197 123.13487,205.55254 122.83334,204.63092C122.5453,203.75058 122.52367,203.13152 122.50267,202.23093C122.47463,201.02858 122.51451,200.4081 122.44283,199.41658C122.36176,198.29518 122.21725,197.4614 122.14733,197.02109C122.00259,196.10968 121.83049,195.1819 121.66666,193.79759C121.61403,193.35287 121.55708,192.47833 121.47916,191.61009C121.3993,190.72021 121.37123,190.25346 121.057,188.78842C120.94386,188.26093 120.63586,187.18839 120.45834,186.65175C120.1065,185.58817 119.94088,185.06471 119.3,183.69559C118.9251,182.89468 118.519,182.20142 118.1,181.60159C117.5255,180.77917 116.89438,180.09685 116.336,179.44159C115.65414,178.64143 115.2744,178.01677 114.74733,177.23093C114.20062,176.4158 113.664,175.84158 113.0955,175.28809L112.3,174.65225L111.7,174.25626L110.9,173.74692" id="svg_33" stroke-width="3" stroke="#000" fill="none"/>
  <path t="91978,92045,92053,92053,92062,92071,92071,92071,92077,92077,92104,92104,92104,92104,92107,92107,92107,92107,92107,92107,92108,92108,92108,92114,92114,92114,92114,92114,92114,92114,92125,92125,92125,92128,92128,92128,92136,92136" d="M140.5,211.63092C140.5,209.87375 140.48927,208.9782 140.5,208.11491C140.51067,207.25606 140.93541,206.30328 141.36133,205.79492C141.84354,205.21936 142.66333,204.25703 142.95833,203.63092C143.41353,202.66478 143.43997,201.98608 143.63333,201.10692C143.81998,200.25827 144.16313,199.12979 144.38533,198.43858C144.63208,197.67099 144.91098,196.84802 145.20134,195.98158C145.50034,195.08936 145.8028,194.18825 146.08934,193.29059C146.36803,192.41754 146.84367,190.80013 147.01401,190.08159C147.16806,189.43173 147.28461,188.83749 147.356,188.29358C147.48059,187.34435 147.49733,186.5256 147.5,185.45259C147.50165,184.79259 147.5,183.87758 147.5,182.79759C147.5,182.08809 147.5,181.23541 147.5,180.23225L147.5,179.28809" id="svg_34" stroke-width="3" stroke="#000" fill="none"/>
  <path t="93706,93847,93847,93854,93854,93863,93863,93872,93873,93879,93879,93879,93884,93884,93884,93897,93897,93897,93897,93898,93898,93898,93898,93906,93906,93906,93914,93914,93923,93923,93923,93929,93929,93929,93935,93935,93951,93951,93966,93966,94044,94058,94058,94072,94072,94072,94080,94080,94080,94088,94088,94088,94094,94094,94108,94108,94110,94112,94112,94112,94112,94115,94116,94116,94116,94123,94123,94123,94131,94132,94132,94132,94137,94137,94137,94146,94146,94153,94153,94153,94162,94175,94175,94184,94184" d="M123.5,291.63092C123.5,289.79492 123.5,289.02957 123.5,288.03091C123.5,287.23093 123.5,286.23093 123.5,285.43091C123.5,284.43091 123.5,283.63092 123.5,282.63092C123.5,281.82025 123.47852,280.94531 123.50267,279.94424C123.52332,279.08862 123.54151,278.44955 123.94267,277.10959C124.16552,276.36517 124.5171,275.63745 124.79467,274.88358C125.19131,273.80634 125.3448,273.11981 125.43867,272.4776C125.56764,271.59521 125.64777,270.52264 126.04166,269.65176C126.33388,269.00568 127.00984,268.25241 127.47916,267.63092C128.21046,266.66248 128.32524,266.00934 128.60533,265.23093C128.97839,264.19415 129.55853,263.66901 129.93201,263.03091C130.48653,262.08353 130.48648,261.19684 131.20534,260.38358C131.71947,259.80191 132.15833,259.0806 132.54817,258.34076C132.9261,257.6235 133.4808,258.51303 133.49867,259.31891C133.52078,260.31601 133.5,261.15176 133.5,261.73541C133.5,262.93076 133.5,263.82025 133.5,264.67377C133.5,265.70941 133.5,266.39493 133.5,267.22958C133.5,268.23541 133.5,269.08807 133.5,270.05258C133.5,270.87759 133.5,271.79257 133.5,272.79758C133.5,273.51492 133.5,274.25626 133.5,275.00558C133.5,276.46426 133.5,277.1456 133.5,277.79492C133.5,278.72641 133.5,279.93091 133.5,280.53091C133.5,281.43091 133.5,282.63092 133.5,283.23093C133.5,284.13092 133.5,285.03091 133.5,285.93076C133.5,286.82025 133.5,287.67377 133.5,288.70941C133.5,289.61008 133.5,290.63092 133.5,291.42026C133.5,292.1456 133.5,293.13092 133.5,294.11624L133.5,294.84158L133.50034,295.8306L133.54167,296.58926" id="svg_35" stroke-width="3" stroke="#000" fill="none"/>
  <path t="94626,94740,94741,94750,94750,94750,94750,94759,94759,94759,94764,94765,94765,94765,94776,94776,94776,94780,94780,94780,94784" d="M128.5,291.63092C129.21434,289.03091 129.71594,288.42563 130.5,287.63092C131.09595,287.02689 131.49976,286.63068 132.10001,286.03091C132.901,285.23059 133.51109,284.62003 133.95717,284.23093C134.90129,283.40738 135.45442,283.03333 136.27467,282.43091C136.81715,282.0325 137.82123,281.23816 138.26401,280.83093C138.90515,280.24127 139.69983,279.43124 140.28934,278.85226L140.84283,278.34525L141.74733,277.74075" id="svg_36" stroke-width="3" stroke="#000" fill="none"/>
  <path t="94890,94925,94925,94933,94933,94941,94941,94949,94949,94955,94955,94955,94964,94964,94964,94971,94986,94986,95001,95001,95001" d="M144.5,276.63092C144.5,278.63626 144.5,279.38025 144.5,280.4881C144.5,281.24557 144.5,282.28809 144.5,283.03543C144.5,284.03226 144.5,284.86691 144.5,285.79758C144.5,286.58359 144.5,287.40558 144.5,288.46426C144.5,289.38425 144.5,290.14426 144.5,291.13092C144.5,292.11758 144.5,292.87759 144.5,293.79758L144.5,294.57907L144.5,295.3696" id="svg_37" stroke-width="3" stroke="#000" fill="none"/>
  <path t="95500,95572,95587,95587,95590,95593,95593,95593,95593,95602,95602,95602,95609,95609,95609,95609,95616,95616,95616,95616,95623,95623,95623,95623,95623,95634,95634,95634,95634,95639,95639,95639,95645,95645,95645,95646,95653,95653,95653,95661,95661,95661,95669,95669,95675,95675,95675,95683,95683,95699,95699,95699" d="M133.5,296.63092C133.51067,294.80557 133.67128,293.80005 134.07466,293.0416C134.45619,292.32425 134.81429,291.2865 135.21434,290.62109C135.52704,290.10098 136.08247,289.29733 136.7,288.55243C137.28142,287.85107 137.89886,287.23428 138.5,286.63092C139.10338,286.0253 139.73569,285.39462 140.18533,284.94559C141.18599,283.94626 141.73909,283.39719 142.34666,282.85626C142.65784,282.57922 143.65871,281.78555 144.38266,281.31491C145.1069,280.84409 145.85927,280.43524 146.53067,279.94693C147.48817,279.25055 147.99893,278.68942 148.45833,278.13092C149.11673,277.33047 149.6806,276.53448 150.31067,275.86691C150.72353,275.42947 151.65913,274.62094 152.18401,274.23224C152.98874,273.63626 153.53831,273.27322 154.57851,272.65225C155.25826,272.24646 155.9259,271.9183 156.89999,271.14691C157.52039,270.65561 158.07205,270.07565 158.89999,269.51627C159.48172,269.12323 160.51134,268.65213 161.0955,268.32642C161.85863,267.90091 162.616,267.14691 163.12534,266.45624L163.66667,265.79758L164.336,265.25626L165.10133,264.74692" id="svg_38" stroke-width="3" stroke="#000" fill="none"/>
  <path t="95924,95945,95945,95945,95953,95953,95953,95961,95961,95961,95961,95969,95969,95969,95975,95975,95975,95984,95984,95984,95992,95992,96000,96005,96005,96013,96013,96029" d="M164.5,261.63092C164.5,264.58807 164.50098,265.15176 164.5,266.03226C164.49866,267.23093 164.55212,267.84158 164.38567,268.73093C164.15678,269.9538 163.79196,270.5296 163.5,271.13092C163.06396,272.02896 162.6897,272.92239 162.57201,273.83093C162.4561,274.72565 162.5,275.63092 162.5,276.52643C162.5,277.39493 162.5,278.46426 162.5,279.17377C162.5,280.02643 162.5,281.02957 162.5,281.79492C162.5,282.87827 162.5,283.79758 162.5,284.63092L162.5,285.46426L162.5,286.32642L162.5,287.26691" id="svg_39" stroke-width="3" stroke="#000" fill="none"/>
  <path t="96557,96621,96621,96629,96629,96635,96635,96635,96643,96643,96652,96652,96652,96659,96659,96659,96665,96665,96673,96673,96673,96681,96681,96689,96689,96689" d="M155.5,285.63092C155.5045,282.08807 155.49562,281.21951 155.784,280.23093C155.96257,279.61874 156.31804,278.62787 156.48534,277.83093C156.65398,277.02753 157.08995,276.24643 157.64934,275.43091C158.18822,274.64526 158.43547,273.8197 158.54817,273.17377C158.71655,272.20874 158.94316,271.41019 159.14734,270.58359C159.40074,269.55768 159.47598,268.6517 159.5,267.63092C159.51883,266.83087 159.60684,265.99591 160.06799,265.23093C160.44971,264.59772 161.16667,263.63092 161.42799,262.84158L161.49733,262.11624" id="svg_40" stroke-width="3" stroke="#000" fill="none"/>
  <path t="96802,96861,96862,96869,96869,96869,96875,96876,96876,96883,96883,96896,96896,96899,96899,96899,96905,96905,96905,96916,96916,96921,96921,96929,96929,96944,96944" d="M161.5,260.63092C162.37883,261.85275 162.62819,262.625 163.07066,263.39893C163.5027,264.15457 163.84906,264.68466 164.69983,265.4881C165.2532,266.01071 166.06688,266.46707 166.74733,267.2836C167.29726,267.94351 167.82651,268.60294 168.5,269.13092C169.33986,269.78934 169.73769,270.29471 170.25267,271.03543C170.81081,271.83823 171.36829,272.39206 171.79016,273.03091C172.41626,273.97903 172.39131,274.90073 173.06799,275.74692C173.5507,276.35056 174.25717,276.95224 174.47917,277.63092L174.72133,278.60959L175.14734,279.38358" id="svg_41" stroke-width="3" stroke="#000" fill="none"/>
  <path t="97115,97191,97199,97199,97199,97205,97205,97205,97213,97213,97221,97221,97230,97230,97244,97244,97244,97259,97259,97273,97295,97341,97341,97341,97379,97385,97394,97394,97394,97404,97404,97404,97410,97411,97411,97415,97415,97415,97415,97423,97423,97423,97423,97431,97431,97431,97440,97440" d="M174.5,281.63092C174.5,278.28159 174.5,277.29758 174.5,276.62109C174.5,275.57907 174.5,274.55243 174.5,273.86691C174.5,273.03226 174.5,272.03091 174.5,271.23093C174.5,270.23093 174.5,269.43091 174.5,268.43091C174.5,267.63092 174.5,266.63092 174.5,265.83093C174.5,265.03091 174.5,264.03543 174.5,263.28809C174.5,262.26691 174.38141,261.26694 174.83333,260.46426C175.24425,259.73444 175.76472,259.26285 176.39017,258.39258C176.90146,257.68112 177.36639,258.29736 177.52083,259.17258C177.65829,259.9516 178.06799,260.94693 178.5,261.63092C178.93201,262.31491 179.35072,263.31409 179.43866,263.87759C179.58075,264.78809 179.65627,265.79935 179.784,266.51492C179.98376,267.63394 180.17274,268.37421 180.33333,269.46426C180.43318,270.14212 180.43332,271.10916 180.66933,271.94424C180.96245,272.98141 181.5,273.61008 181.93201,274.22958L182.33067,275.03091L182.51466,275.83093" id="svg_42" stroke-width="3" stroke="#000" fill="none"/>
  <path t="97915,97942,97942,97949,97957,97957,97957,97963,97964,97964,97975,97975,97975,97975,97979,97980,97980,97980,97985,97985,97985,97985,97985,97985,97996,97996,97996,97996,97996,97996,98001,98001,98001,98001,98001,98001,98001,98009,98009,98009,98009,98016,98016,98016,98016,98023,98023,98023,98032,98032" d="M185.5,279.63092C184.2045,277.03543 183.73824,276.31918 183.55716,275.38358C183.38214,274.47928 183.51617,273.57495 183.32933,272.94424C183.02403,271.91373 182.47089,271.12387 182.20534,270.52643C181.68466,269.35498 181.58131,268.72913 181.52133,267.79492C181.47971,267.14667 181.48761,266.10907 181.51067,264.98425C181.52707,264.18402 181.52905,263.7666 181.66667,262.46426C181.76413,261.54193 181.92688,260.5845 182,260.08926C182.15053,259.0697 182.23811,258.5463 182.37917,256.90958C182.4276,256.34753 182.44119,255.77635 182.5625,254.63092C182.62347,254.05513 182.78581,252.89763 183.16667,251.79759C183.3588,251.24271 183.91068,250.19162 184.22267,249.68825C184.53284,249.18784 185.20227,248.24872 185.53467,247.80292C186.45317,246.57104 186.98994,245.84824 187.45833,245.17259C187.895,244.54268 188.50095,243.63155 188.89867,243.03226C189.29027,242.4422 189.86882,241.60359 190.47833,240.55241C190.87029,239.87646 191.13834,239.23541 191.41733,238.23358L191.56134,237.50291" id="svg_43" stroke-width="3" stroke="#000" fill="none"/>
  <path t="99084,99129,99129,99133,99133,99141,99141" d="M113.5,263.63092C112.11066,262.75891 111.78533,262.02826 111.55717,261.03091L111.5045,260.23093L111.5,259.23224L111.5,258.46692" id="svg_44" stroke-width="3" stroke="#000" fill="none"/>
  <path t="100199,100263,100267,100267,100273,100273,100281,100290,100290,100290,100296,100297,100297,100303,100303,100303,100311,100311,100311,100311,100311,100319,100319,100319,100319,100319,100325,100325,100325,100325,100325,100325,100333,100333,100333,100333,100341,100341,100341,100341,100349,100349,100349,100355,100355,100355,100355" d="M140.5,263.63092C140.5,262.58926 140.5,261.63092 140.5,260.84158C140.5,259.79758 140.7627,258.98523 140.4375,258.11008C140.0887,257.17142 139.21465,256.80377 138.74001,256.45624C137.83582,255.79417 137.16237,255.2417 136.532,254.74692C135.74223,254.12701 134.94305,253.60121 134.33383,253.22643C133.34215,252.61635 132.61884,252.22414 131.864,251.84158C131.48125,251.64761 130.70743,251.25792 129.5,250.79759C128.70602,250.49489 127.88924,250.25658 127.064,250.00558C126.21457,249.74724 125.33217,249.46761 124.416,249.14825C123.47346,248.8197 123.00395,248.63943 122.05267,248.34076C121.58586,248.1942 120.22366,247.86041 119.36166,247.73625C118.54337,247.61839 117.74507,247.59431 116.66666,247.29759C115.97187,247.10643 115.03207,246.60617 114.4045,246.33626C113.21934,245.82654 112.60204,245.67804 111.7,245.68825C110.4951,245.70189 109.89867,245.91626 108.97916,246.15175L108.34283,246.33542" id="svg_45" stroke-width="3" stroke="#000" fill="none"/>
  <path t="102886,102951,102965,102965,102973,102973,102973,102982,102982,102982,102992,102992,102992,102992,102992,102995,102996,102996,102996,102996,103003,103003,103003,103003,103003,103013,103013,103013,103013,103013,103019,103019,103019,103019,103019,103025,103025,103025,103025,103025,103033,103033,103033,103033,103033,103041,103041,103041,103041,103050,103050,103050,103050,103057,103057,103057,103063,103063,103063,103063,103071,103072,103079,103079,103086,103086" d="M99.5,283.63092C99.216,282.7149 98.59846,282.23453 98.24533,281.65891C97.72437,280.80969 96.98003,280.1261 96.558,279.57907C95.97144,278.81879 95.60522,277.83548 95.342,277.12109C95.03371,276.28436 94.66044,275.65057 94.192,274.96957C93.68549,274.23325 93.10517,273.50586 92.5,272.79758C91.91018,272.10727 91.3018,271.46396 90.736,270.80557C90.17645,270.15445 89.41769,269.112 88.94817,268.38275C88.71292,268.0174 88.28015,267.2598 87.73067,266.60025C86.91563,265.62195 86.1979,265.1293 85.47916,264.65176C84.75576,264.17111 84.35841,263.98193 83.32117,263.20941C82.63133,262.69565 81.98283,262.10574 81.29017,261.52643C80.93254,261.22733 79.76148,260.32523 79.332,260.0336C78.4576,259.43988 78.01063,259.15411 77.10533,258.64526C75.84757,257.93832 75.07278,257.59219 74.36134,257.29227C73.68851,257.00861 73.01268,256.75912 71.97867,256.30975C71.24394,255.99045 70.50908,255.62897 69.75267,255.34076C68.67857,254.93152 67.65935,254.72252 67.02084,254.67259C66.10331,254.60085 65.19845,254.6664 64.3,254.60959C63.39701,254.55249 62.48567,254.33037 61.6045,253.92558C61.01036,253.65265 60.21798,253.1041 59.18533,252.80159C58.53572,252.6113 57.5,252.63092 56.52083,252.63092L55.66667,252.63092L54.87467,252.66692" id="svg_46" stroke-width="3" stroke="#000" fill="none"/>
  <path t="103998,104031,104031,104045,104045,104061,104061,104076,104076,104099,104099,104121,104121,104189,104195,104203,104211,104211,104211,104220,104220,104225,104226,104233,104233,104233,104233,104241,104249,104255,104271,104271,104293" d="M85.5,288.63092C83.664,288.63092 82.89867,288.63092 81.9,288.63092C81.1,288.63092 80.1,288.63092 79.3,288.63092C78.30016,288.63092 77.336,288.63092 76.384,288.63092C75.616,288.63092 74.67456,288.61893 73.984,288.63092C72.94621,288.64893 72.6422,289.45743 73.372,289.59491C74.48107,289.80383 75.3,289.63092 76.1,289.63092C77.1,289.63092 77.90054,289.60077 78.90134,289.63358C79.52173,289.6539 80.67865,289.94006 81.44817,290.33624C81.9881,290.61423 82.66916,291.22583 83.68567,291.51657C84.66595,291.79697 85.41734,291.91492 86.068,292.54691L86.79467,292.68359L87.45834,293.17258" id="svg_47" stroke-width="3" stroke="#000" fill="none"/>
  <path t="105676,105774,105774,105779,105779,105785,105785,105785,105794,105794,105801,105815,105815,105883,105899,105913,105913,105929" d="M180.5,275.63092C180.83333,276.46426 181.73792,276.7352 182.61734,276.34424C183.21341,276.07925 184.03473,275.29819 184.75067,274.81625C185.24399,274.48419 186.4892,274.08035 187.04266,273.58026C187.72107,272.96729 187.82668,271.94968 188.5,271.65176C189.37743,271.26355 189.5,271.39709 189.5,272.2836L189.5,273.14691L189.5,274.11008" id="svg_48" stroke-width="3" stroke="#000" fill="none"/>
  <path t="107122,107173,107203,107233,107293,107309,107405,107439,107523,107523,107651,107677,107691,107714,107714,107735,107759,107759,107782,107782,107803,107825,107825,107849,107849,107872,107893,107893,107916,107916,107940,107969,107999,108029,108029,108059,108089,108089,108211,108233,108247,108261,108261,108278,108291,108314,108314,108375,108376,108411,108624,108647,108664,108664,108675,108697,108697,108719,108733,108742,108763,108763,108793,108793,108815,108815,108845,108845,108869,108899,108899,108929,108929,108942,108943,108981,109019,109026,109027,109049,109131,109145,109154,109161,109161,109176,109177,109192,109193,109206,109206,109206,109222,109222,109238,109253,109253,109260,109267,109267,109289,109400,109415,109424,109441,109441,109441,109454,109583,109585,109585,109595,109595,109595,109595,109595,109595,109625,109625,109625,109679,109679,109731,109745,109769,109770,109851,109859,109859,109865,109865,109865,109875" d="M213.5,101.63092C213.5,100.74426 213.7997,99.6869 213.27867,98.87376C212.80844,98.13988 212.89586,97.24758 212.216,96.71626C211.47438,96.13666 210.73792,96.15359 210.47467,95.48158C210.13908,94.62491 209.50226,95.33541 209.5,96.15176C209.49734,97.11492 209.5,97.97826 209.5,98.87825C209.5,99.79758 209.5,100.63092 209.5,101.60942C209.5,102.42959 209.5,103.26692 209.5,104.11625C209.5,105.03542 209.5,106.02959 209.5,106.79492C209.5,107.74558 209.5,108.73109 209.5,109.51625C209.5,110.45625 209.5,111.14692 209.5,112.22025C209.5,113.13092 209.5,113.93542 209.5,114.95226C209.5,115.63092 209.5,116.60942 209.5,117.63092C209.5,118.43092 209.49704,119.44651 210.30133,119.62959C211.11519,119.81484 212.15266,119.63092 212.84734,119.63092C213.864,119.63092 214.8045,119.63092 215.66667,119.63092C216.5,119.63092 217.4785,119.63092 218.29866,119.63092C219.2,119.63092 220.26968,119.68276 220.4955,118.86926C220.73381,118.0107 220.5,117.11492 220.5,116.25626C220.5,115.30959 220.5,114.45625 220.5,113.51625C220.5,112.63092 220.075,111.92595 219.62117,111.18809C219.2206,110.53681 219.05148,109.65913 218.35066,109.04159C217.66353,108.4361 217.44016,107.73695 217.07466,106.80559C216.80092,106.10804 216.62761,105.08311 216.13834,104.32642C215.71321,103.66894 215.04909,103.11156 214.32533,102.49226C213.55481,101.83292 212.95982,101.40625 212.27867,100.75225C211.69769,100.19443 210.85689,99.89603 210.20534,99.52109C209.4754,99.10104 209.19992,97.42272 208.62151,97.85242C207.90976,98.38116 208.8891,99.31824 209.64934,99.69225C210.41264,100.06776 210.4931,101.05466 210.784,102.03092C210.96609,102.64207 211.38097,103.62458 211.464,104.43092C211.54602,105.22746 211.37115,106.24807 211.58533,107.14558C211.79768,108.03546 212.42876,108.72503 212.49867,109.51625C212.58049,110.44225 212.85036,111.26008 213.64934,111.64558C214.44672,112.03032 214.15059,113.4862 214.92534,113.58425C215.67619,113.67928 215.5,112.08825 215.5,111.38025C215.5,110.63625 215.5,109.44525 215.5,108.53125C215.5,108.17759 215.5,109.03092 215.5,109.79758C215.5,110.81892 215.5,111.39959 215.5,112.63092C215.5,113.25359 215.5,113.86225 215.5,115.46426C215.5,116.23492 215.5,117.00592 215.5,117.95192C215.5,118.86392 215.89188,118.28059 215.27834,117.75242C214.55626,117.13081 213.5,117.63092 212.66667,117.63092C212.15733,117.63092 212.97067,117.63092 213.92117,117.63092L214.71466,117.63092L215.49017,117.63092L216.52933,117.63092" id="svg_49" stroke-width="3" stroke="#000" fill="none"/>
  <path t="111171,111351,111522,111523,111523,111532,111532,111533,111533,111590,111590,111711,111711,111719,111719,111719,111726,111734,111734,111749,111749,111763,111839,112011,112025,112041,112055,112055,112071,112079,112102,112102,112119,112177,112177,112229,112243,112259,112273,112273,112297,112297,112453,112499,112499,112507,112543,112543,112589,112603,112611,112611,112611,112625,112663,112716,112747,112747,112783,112798,112799,112851,112941,112987,112987,113009,113009,113055,113167,113197,113197,113244,113287,113348,113370,113400,113400,113400,113521,113538,113544,113545,113560,113580,113692" d="M156.5,116.63092C154.66667,116.46426 154.16954,115.66284 153.41667,115.71426C152.70673,115.76274 151.84985,116.28242 151.19917,116.68892C150.51251,117.11789 149.88254,117.60567 148.76466,118.26692C147.98135,118.73027 147.40688,119.50852 147.61867,120.35492C147.82855,121.1937 148.78218,121.56734 149.49916,121.61742C150.68282,121.70008 151.46432,121.4024 152.136,121.05625C152.94812,120.63773 153.84734,120.63317 154.864,120.63092C155.7,120.62907 156.87866,120.90991 156.87866,120.63092C156.87866,119.73143 155.01601,120.63092 154.32533,120.63092C153.25717,120.63092 152.16238,120.3293 151.66667,120.96426C151.13365,121.647 151.77229,122.99175 151.05733,123.50958C150.47281,123.93293 149.42566,124.35438 150.11067,124.62025C150.95921,124.9496 151.98534,124.63092 152.71066,124.63092C153.69983,124.63092 154.49638,124.81523 155.47833,124.63058C156.38008,124.46102 156.66641,123.59568 156.49966,122.65259C156.33992,121.74904 154.7448,122.05619 154.58267,121.20559C154.44547,120.48577 156.04324,120.65415 156.74001,120.62025C157.64867,120.57605 158.57515,120.237 159.07466,119.56959C159.60777,118.85728 159.8338,117.67667 159.42799,117.07758C158.929,116.34091 157.56062,116.97719 156.86166,116.57375C156.17278,116.17613 155.7924,115.21021 155.05733,114.75208C154.43793,114.36605 153.78786,113.85298 153.41733,113.19892C152.96976,112.40888 152.06927,111.49534 151.62134,112.07359C151.08881,112.76103 150.77379,113.48726 150.51067,114.24158C150.21774,115.08137 150.58771,116.10047 150.05733,116.95226C149.71458,117.5027 147.7321,118.43345 148.5625,119.04758C149.07193,119.42435 149.33333,117.79758 149.584,116.91759L150.33333,116.46426L150.78534,115.71626L151.59984,115.63109" id="svg_50" stroke-width="3" stroke="#000" fill="none"/>
  <path t="120687,120872,120885,120885,120901,120901,120916,120916,120916,120922,120922,120922,120930,120939,120940,120942,120951,120951,120961,120974,120974,120981,120981,120981,120997,120997,121002,121003,121003,121011,121018,121018,121027,121027,121027" d="M145.5,165.63092C145.216,164.71892 144.55162,165.19859 144.51067,165.85225C144.44946,166.82906 144.5,167.63092 144.5,168.63092C144.5,169.44159 144.5,170.31625 144.5,171.31358C144.5,172.11009 144.5,172.86159 144.5,173.96959C144.5,174.95226 144.5,175.80559 144.5,176.74559C144.5,177.63092 144.31824,178.46712 144.57201,179.26692C144.86946,180.20442 145.62134,180.57933 146.16667,181.63092C146.45949,182.19557 146.47708,183.19769 146.94667,184.01625C147.31052,184.6505 147.99864,185.38834 148.47917,186.13092C148.94641,186.85297 149.20271,187.99513 149.83333,188.46425C150.549,188.99663 151.47867,189.29492 151.87466,189.90692L152.25267,190.57292" id="svg_51" stroke-width="3" stroke="#000" fill="none"/>
 </g>
</svg>