<svg width="500" height="333.3333333333333" xmlns="http://www.w3.org/2000/svg" xmlns:svg="http://www.w3.org/2000/svg" xmlns:xlink="http://www.w3.org/1999/xlink">
 <!-- Created with SVG-edit - http://svg-edit.googlecode.com/ -->
 <g display="inline" class="layer">
  <title>Layer 1</title>
  <path t="0,143,163,203,235,377,591,629,711,731,811,891,910,1043,1083,1107,1176,1193,1211,1310,1339,1371,1411,1483,1483,1510,1543,1593,1610,1626,1667,1691,1792,1843,1909,1947,1994,2035,2107,2160,2193,2284,2324,2493,2543,2610,2660,2707,2747,2825,2867,2974,3012,3044,3092,3148,3161,3177,3236,3268,3316,3356,3451,3539,3563,3627,3675,3742,3794,3843,4025,4076,4145,4262,4342,4444,4509,4526,4542,4559,4575,4610,4693,4999,5091,5192,5259,5360,5395,5443,5483,5526,5594,5954,6075,6178,6211,6278,6315,6377,6443,6483,6571,6610,6660" d="M179.39999,209.76666C180.20134,209.76666 180.71361,210.13637 181.40134,210.68134C182.05685,211.20078 182.93929,210.87921 183.40016,211.64534C183.81122,212.32864 184.22342,213.18283 184.75267,213.7095C185.27133,214.22566 185.62134,214.76666 186.48399,214.76666C187.4045,214.76666 187.97285,215.1745 188.68401,215.68134C189.3512,216.15685 190.11348,216.39226 190.964,216.756C191.76616,217.09904 192.7253,217.34169 193.2785,217.98801C193.8024,218.60007 194.44096,218.58525 195.2,218.85201C196.05595,219.15283 196.68401,219.76666 197.62151,219.76666C198.49983,219.76666 199.53821,219.44441 200.23334,219.93333C200.94763,220.43573 201.56667,220.76877 202.42534,220.76666C203.34285,220.7644 203.39249,219.82764 204.116,219.76666C205.04404,219.68846 205.78064,219.61565 206.45267,219.11934C207.14175,218.61043 208.04739,218.7771 208.97467,218.76666C209.90018,218.75624 210.00331,218.09305 210.42084,217.26666C210.78104,216.55373 211.39999,216.192 211.39999,215.26666C211.39999,214.414 211.41849,213.48247 211.39999,212.60001C211.38199,211.74077 210.77756,211.05829 209.97467,210.76666C209.1981,210.4846 208.52849,209.82761 207.75267,209.76666C206.82819,209.69405 205.82697,209.83994 205.39999,209.34134C204.96143,208.82921 204.0042,209.1187 203.39999,208.60001C202.79291,208.07884 202.06279,208.03647 201.48534,207.48267C200.92317,206.94353 200.31566,206.68167 199.75267,206.11934C199.04692,205.41441 198.3685,205.08417 197.5215,204.76666C196.77458,204.48668 196.16319,203.93697 195.23334,203.76666C194.4451,203.6223 194.04413,202.79526 193.10001,202.76666C192.20175,202.73946 191.34734,202.76666 190.42534,202.76666C189.5215,202.76666 188.68401,202.76666 187.82533,202.76666C186.89999,202.76666 186.04733,202.76666 185.116,202.76666C184.17867,202.76666 183.34283,202.76666 182.42534,202.76666C181.5215,202.76666 180.60478,202.4064 179.82533,202.76666C179.22946,203.04207 178.87048,203.87689 178.48534,204.68134C178.14229,205.39787 178.49287,206.29997 178.97467,206.80267C179.52914,207.38123 179.39999,208.34134 179.89999,208.76666L180.41066,209.192L180.97467,209.756" id="svg_1" stroke-width="3" stroke="#000" fill="none"/>
  <path t="12109,12644,12684,12748,12811,12828,12893,12910,12910,12944,12964,13028,13075,13123,13147,13176,13211,13235,13325,13363,13444,13623,13755,14029,14077,14113,14146,14176,14227,14244,14275,14361,14376,14444,14460,14543,14571,14595,14659,14676,14760,14876,14977,15749,15765,15776,15776,15795,15795,15843,15891,15944,16045,16060,16145,16243,16294,16396,16396,16468,16500,16516,16611,16660,16683,16743,16779,16835,16895,16977,17122,17195,17210,17244,17260,17308,17344,17344,17428,17499,17657,17727,17778,17859,18027,18172,18204,18332,18509,18592,18921,18964,19209,19293,19392,19460,19559,19642,19660,19742,19809,19843,19876,19926,19942,20019,20109,20131,20203,20227,20259,20326,20359,20404,20676,20742,20874,20910,21083,21131,21228,21325,21426,21492,21523,21610,21692,21743,21840,21909,22058,22144,22204,22260,22308,22361,22460,22492,22524,22543,22604,22752,22791,22827,22876,22909,22926,22942,22979,23027,23077,23092,23192,23192,23209,23241,23259,23291,23308,23341,23371,23441,23474,23588,23597,23668,23709,23743,23804,23852,23928" d="M156.39999,190.76666C156.39999,188.93333 156.39999,188.11934 156.39999,187.192C156.39999,186.33067 156.51717,185.36946 156.39867,184.48134C156.28708,183.64507 155.54369,183.08488 155.39999,182.15601C155.26721,181.29771 155.39999,180.4095 155.39999,179.47116C155.39999,178.60001 155.39999,177.714 155.39999,176.80267C155.39999,175.96533 155.39999,175.12384 155.39999,174.192C155.39999,173.26666 155.39549,172.414 154.89999,171.76666C154.4045,171.11934 154.97467,170.76666 155.82533,170.76666C156.75267,170.76666 157.83134,170.49982 158.40016,170.98801C159.01259,171.51363 159.21297,172.4431 159.97467,172.756C160.76178,173.07933 161.27849,173.54129 161.92084,173.76666C162.74036,174.0542 163.78821,173.72292 164.37466,174.192C165.01773,174.70636 165.45976,175.22585 165.97467,175.756C166.4377,176.23274 166.9716,176.69461 167.39999,177.192C167.84155,177.70468 168.62326,177.67029 169.56667,177.93333C170.24829,178.12338 171.22189,178.67299 171.98933,178.756C172.87407,178.85168 173.75717,178.76666 174.6955,178.76666C175.62134,178.76666 176.45267,178.76666 177.37466,178.76666C178.23334,178.76666 178.89999,179.26666 179.56667,179.93333C180.116,180.48267 180.93312,180.8071 181.42084,181.26666C182.00217,181.81445 182.75267,182.11934 183.42534,182.79201C184.04733,183.414 184.37871,184.22197 184.89999,184.74583C185.37268,185.22084 185.39999,186.11934 185.39999,187.05067C185.39999,187.93333 185.436,188.80267 186.04733,189.414C186.68401,190.05067 187.31467,190.68134 187.89999,191.26666C188.56667,191.93333 189.08176,192.62283 189.97467,192.76666C190.88821,192.91382 191.41029,193.19232 191.89999,193.76666C192.45224,194.41437 193.38206,194.35132 194.04733,194.82384C194.77612,195.34148 195.25624,195.81851 195.39999,196.73067C195.53532,197.5894 195.39999,198.414 195.39999,199.34134C195.39999,200.26666 195.04733,200.76666 194.116,200.76666C193.23334,200.76666 192.34283,200.76666 191.436,200.76666C190.56667,200.76666 189.75267,200.76666 188.82533,200.76666C187.89999,200.76666 187.04733,200.76666 186.116,200.76666C185.23334,200.76666 184.34734,200.76666 183.436,200.76666C182.56667,200.76666 181.64705,200.37135 180.82533,200.80267C180.07307,201.19753 179.48495,201.7421 178.68401,201.76666C177.75136,201.79526 177.39999,202.60001 177.39999,203.414C177.39999,204.34134 177.39928,205.20267 177.39999,206.15601C177.40067,207.05067 177.86304,207.5136 178.68401,207.76801C179.44945,208.0052 179.78064,208.54149 180.68401,208.76801C181.40823,208.9496 181.48521,210.16481 182.23334,210.60001C182.96306,211.02451 183.41579,211.60016 183.39999,212.414C183.38199,213.34186 182.68401,213.76599 181.82533,213.76666C180.89999,213.76738 180.00537,213.81102 179.42084,213.26666C178.9252,212.8051 177.81654,213.00571 177.42084,212.24583C177.01944,211.47502 176.87935,210.77708 176.01067,210.76666C175.04741,210.75511 174.17867,210.76666 173.31599,210.76666C172.39999,210.76666 171.40042,210.41025 170.68401,210.85201C169.88348,211.34563 169.30424,211.60057 168.59866,211.85201C167.74509,212.15617 166.92957,212.60326 166.25067,212.80267C165.35587,213.06552 165.3051,214.32555 164.45267,214.7095C163.64316,215.07413 163.03757,215.03404 162.39999,215.60001C161.84718,216.09073 160.97778,216.45201 160.10451,216.7095C159.26711,216.95642 158.28316,217.10258 157.436,216.76666C156.65651,216.45757 156.39999,215.414 156.116,214.76534L155.45717,214.414L155.39867,213.48267" id="svg_2" stroke-width="3" stroke="#000" fill="none"/>
  <path t="26449,26509,26533,26577,26577,26611,26611,26627,26644,26676,26693,26732,26765,26821,26869,26911,26957,26977,27029,27061,27108,27157,27181,27293,27326,27373,27461,27493,27560,27610,27668,27740,27764,27836,27868,27908,27976,28004,28068,28110,28180,28244,28280,28361,28405,28483,28525,28609,28630,28646,28684,28709,28748,28809,28892,28942,28992,29044,29095,29243,29332,29443,29532,29556,29596,29628,29676,29812,29812,29877,29977,30013,30053,30124,30161,30236,30308,30380,30420,30452,30494,30532,30611,30645,30693,30748,30820,30852,30944,31078,31109,31257,31690,31707,31727,31744,31765,31844,31893,31927,31980,32013,32053,32117,32157,32236,32284,32341,32380,32412,32469,32509,32544,32577,32627,32644,32693,32717,32793" d="M163.39999,216.76666C164.20134,216.76666 165.21339,216.68253 165.68401,217.33467C166.15942,217.99348 166.65697,218.86459 167.04733,219.47116C167.55548,220.26074 168.23082,220.61874 168.82533,221.20267C169.4718,221.83763 169.59898,222.75659 170.04733,223.414C170.57182,224.18306 170.96597,224.82034 171.39999,225.34134C171.82892,225.8562 172.44385,226.27498 172.97467,226.76666C173.45625,227.21274 173.51024,228.29677 174.31599,228.68134C175.04208,229.02788 175.63466,229.22374 176.116,229.85066C176.66774,230.56929 177.03893,230.88608 177.48534,231.48267C178.0488,232.23566 178.75743,232.12628 179.39999,232.77733C180.00974,233.39511 178.99078,234.60583 179.45717,235.414C179.85223,236.09859 180.39999,236.7095 180.39999,237.60001C180.39999,238.414 180.39999,239.34134 180.39999,240.26666C180.39999,241.11934 180.27086,242.15211 180.82533,242.73067C181.30711,243.23337 181.39999,243.96533 181.39999,244.93333C181.39999,245.76666 181.39999,246.68266 181.39999,247.47116C181.39999,248.4095 181.39999,249.26666 181.39999,250.192C181.39999,251.11934 181.39999,251.98801 181.39999,252.93333C181.39999,253.76666 181.39999,254.68266 181.39999,255.47116C181.39999,256.40952 181.55327,257.49606 180.89999,257.76666C180.11224,258.09296 179.11467,257.76666 178.20134,257.76666C177.34283,257.76666 176.74542,257.33167 176.04733,256.82382C175.36465,256.32718 174.54942,256.08398 174.39999,255.192C174.25943,254.35297 173.62224,253.83041 173.40134,253.05067C173.16728,252.22452 173.39999,251.26666 173.39999,250.34134C173.39999,249.48267 173.39999,248.54517 173.39999,247.66684C173.39999,246.77733 173.39999,245.88817 173.39999,245.05067C173.39999,244.192 173.39999,243.26666 173.39999,242.34134C173.39999,241.48267 173.39999,240.54533 173.39999,239.68266C173.39999,238.77733 173.83765,237.71013 173.31467,237.05067C172.7697,236.36349 172.21884,236.21994 171.68401,235.68134C171.06602,235.05899 170.58711,235.20444 169.75717,234.76666C169.14131,234.4418 168.58498,234.18457 167.75267,233.76666C167.19493,233.48662 166.78938,232.772 165.836,232.76666C164.96402,232.76178 164.01067,232.76666 163.116,232.76666C162.23334,232.76666 161.364,232.76666 160.45267,232.76666C159.56667,232.76666 158.6671,233.15573 157.82533,232.76666C157.22946,232.49126 156.93219,232.03964 156.04733,231.76216C155.33917,231.5401 155.04733,230.76216 154.39999,230.26666L153.75267,229.77116" id="svg_3" stroke-width="3" stroke="#000" fill="none"/>
  <path t="55722,56011,56052,56076,56205,56237,56310,56360,56442,56500,56525,56564,56596,56636,56686,56709,56759,56780,56796,56852,56893,56948,56964,57025,57059,57109,57172,57242,57292,57325,57364,57405,57444,57509,57580,57642,57684,57756,57825,57877,57917,57977,58021,58060,58140,58172,58188,58268,58300,58348,58428,58476,58533,58559,58575,58625,58660,58675,58716,58759,58782,58809,58825,58859,58875,58892,58925,58942,58988,59311,59332,59349,59364,59364,59374,59408,59475,59507" d="M152.39999,230.76666C153.31467,231.052 152.90654,232.07239 153.48534,232.76534C154.01346,233.39761 154.0511,233.9232 154.41066,234.77733C154.72014,235.51248 155.39999,236.11934 155.39999,237.05067C155.39999,237.93333 155.39999,238.80267 155.39999,239.714C155.39999,240.60001 155.39418,241.41402 155.39999,242.34134C155.40533,243.19205 156.1778,243.70293 156.39867,244.48267C156.6425,245.34346 156.23021,246.32784 156.68401,247.05067C157.18111,247.84248 157.39999,248.60001 157.39999,249.414C157.39999,250.34134 157.39999,251.192 157.39999,252.11934C157.39999,253.05067 157.39999,253.93333 157.39999,254.80267C157.39999,255.68266 157.39999,256.60001 157.39999,257.414C157.39999,258.34134 156.97467,258.76666 156.04733,258.76666C155.116,258.76666 154.12431,258.96451 153.48399,258.48267C152.80513,257.97183 152.06926,257.8334 151.42534,257.34134C150.77104,256.84134 149.86076,256.5112 149.5215,255.66684C149.21434,254.90239 149.7975,253.82968 149.39999,253.11934C149.07074,252.53094 148.4006,252.26666 148.39999,251.414C148.39932,250.48267 147.73012,249.96455 147.42084,249.26666C147.04584,248.42047 146.97266,247.70068 146.5215,246.88817C146.13834,246.19809 145.48373,245.61238 145.39999,244.76666C145.32103,243.96924 145.25859,243.23901 144.75267,242.7095C144.18417,242.11449 144.79732,240.93573 144.364,240.192C143.96059,239.4996 143.82823,238.99557 143.364,238.192C142.96884,237.50801 141.85674,237.81717 140.91733,237.48267C140.24139,237.24197 139.34933,236.74133 138.54933,236.34134L137.73334,235.93333L136.89999,235.76666" id="svg_4" stroke-width="3" stroke="#000" fill="none"/>
  <path t="63043,63212,63260,63277,63356,63373,63404,63428,63441,63484,63516,63564,63612,63668,63691,63716,63741,63757,63807,63841,63860,63891,63924,63957,63991,64042,64092,64132,64151,64196,64309,64325,64346,64420,64492,64524,64555,64574,64625,64675,64724,64774,64807,64852,64891,64924,64941,64941,64957,64974,64991,65007,65007,65024,65041,65092,65208,65257,65391,65436,65474,65560,65692,65757,65875,65965,66013,66061,66157,66277,66454,66501,66548,66594,66691,66725,66796,66891,66925,66996,67091,67174,67241,67275,67316,67364,67388,67409,67492,67524,67542,67684,67725,67764,67808,67858,67916,67959,68007,68074,68091,68157,68180,68237,68277,68341,68365,68421,68459,68493,68509,68549,68559,68576,68613,68645,68685,68708,68742,68792,68813,68924,68977,69057,69084,69156,69269,69426,69459,69476,69509,69625,69693,69740,69758,69775,70580,70641,70725,71013,71028,71116,71193,71275,71359,71422,71461,71501,71565,71629,71669,71717,71741,71791,71812,71844,71909,71926,71949,72021,72045,72077,72132,72149,72197,72237,72285,72333,72393,72590,72684,72693,72807,72860,72874,72992,73058,73079,73132,73188,73208,73225,73308,73571,73612,73652,73692,73809,73825,73958,74041,74108,74192,74275,74405,74590,74644,74709,74732,74742,74791,74829,74858,74876,74909,74973,74996,75029,75085,75094,75175,75209,75245,75277,75300,75333,75376,75437,75476,75509,75526,75596,75660,75700,75748,75812,75874,75891,75940,75980,76041,76108,76173,76291,76359,76412,76476,76531,76557,76657,76692,76716,76780,76796,76860,76860,76882,76957,76982" d="M158.39999,259.76666C159.45717,260.414 160.006,260.8941 160.48534,261.48267C161.0368,262.15979 161.39999,262.79199 161.39999,263.68268C161.39999,264.60001 162.25491,264.72217 162.39999,265.414C162.575,266.2485 162.39999,267.19199 162.39999,268.11932C162.39999,268.98816 162.39999,269.86649 162.39999,270.76666C162.39999,271.64532 162.35847,272.50928 162.82533,273.19199C163.3548,273.96625 163.39999,274.79199 163.39999,275.71399C163.39999,276.60001 163.39999,277.414 163.39999,278.34134C163.39999,279.19199 163.38782,280.13245 163.89999,280.76666C164.37421,281.35388 164.08601,282.32541 164.41066,283.19199C164.67545,283.8988 165.39194,284.41403 165.39999,285.34134C165.40739,286.19202 166.15869,286.7081 166.39549,287.47116C166.65051,288.29294 167.08784,288.77838 167.39999,289.414C167.79083,290.20987 168.5723,290.72775 169.04733,291.414C169.53351,292.11633 169.76086,292.64459 170.68533,292.76801C171.52164,292.87964 171.87141,293.71341 172.45267,294.40952C172.94617,295.00052 173.88029,295.30847 174.60001,295.96533C175.18451,296.49881 176.03368,296.73431 176.87917,297.26666C177.59854,297.7196 178.07307,298.33578 178.82533,298.73065C179.64705,299.16196 180.62134,298.76666 181.48534,298.76666C182.39999,298.76666 183.31467,298.76666 184.116,298.76666C185.04733,298.76666 185.57437,299.2041 186.04733,299.81934C186.59462,300.53128 187.13806,301.15033 187.39999,301.98801C187.68211,302.89023 187.28137,303.44601 186.45267,303.77118C185.66351,304.08081 185.116,304.76666 184.17867,304.76666C183.31467,304.76666 182.42534,304.76666 181.5215,304.76666C180.68401,304.76666 179.82533,304.76666 178.89999,304.76666C177.97467,304.76666 177.11545,304.79865 176.17867,304.76666C175.34137,304.73807 174.74344,303.97058 173.92084,303.78751C172.99675,303.58185 172.52087,303.04391 171.75267,302.77118C170.92917,302.47879 170.12662,302.17511 169.364,301.76666C168.59612,301.35538 168.24892,301.10364 167.39549,300.76218C166.62285,300.45303 165.93649,299.90063 165.39549,299.414C164.80164,298.87982 163.78104,298.97961 163.42084,298.26666C163.00333,297.44028 162.74843,296.90976 162.04733,296.414C161.33524,295.91046 161.00031,295.36499 160.39999,294.76218C159.80341,294.16312 159.68823,293.41052 159.31467,292.68134C158.93341,291.93713 158.41106,291.20221 157.89999,290.76666C157.40038,290.34088 157.33403,289.33929 156.5215,288.88815C155.83142,288.505 155.83783,287.70999 155.31467,287.05066C154.76874,286.36261 153.89552,286.2695 153.39867,285.48267C152.97081,284.80508 151.90584,285.0983 151.39999,284.54532C150.86253,283.95776 150.16634,284.18167 149.5215,283.54532C148.94897,282.98032 148.39999,282.76666 147.52133,282.76666C146.6955,282.76666 145.82899,282.73508 145.40134,282.05066C144.96753,281.35641 144.75107,281.55917 144.39999,282.34134C144.12558,282.9527 143.40225,283.414 143.39999,284.34134C143.39793,285.19199 143.1761,286.14697 143.40134,287.05066C143.58287,287.77899 144.50235,288.15591 145.04733,288.76218C145.50064,289.26648 145.30849,290.25879 145.75267,290.77118C146.28445,291.38461 146.28987,292.23395 146.75267,292.77118C147.27399,293.37634 147.1779,294.20892 147.62134,294.98801C148.04947,295.7402 149.07777,296.05243 149.39999,296.93332C149.69522,297.74045 149.97469,298.34134 150.68401,299.05066C151.31467,299.68134 151.54529,300.29147 152.04733,300.82382C152.63226,301.44406 152.93925,301.87921 153.39999,302.64517C153.81114,303.3287 154.7664,303.56027 155.34283,304.11932C155.86812,304.62875 156.63736,304.73007 157.116,305.48267C157.56348,306.18628 158.07948,306.60638 158.38933,307.34134C158.7198,308.12524 158.90169,308.89362 159.2785,309.64532C159.65767,310.40173 159.39999,311.34134 159.39999,312.26666C159.39999,313.19199 159.04251,313.67526 158.17867,313.76666C157.38678,313.85046 157.1189,314.72397 156.17867,314.76666C155.34369,314.8046 154.42534,314.76666 153.5215,314.76666C152.68401,314.76666 151.82533,314.76666 150.87917,314.76666C150.01067,314.76666 149.31479,314.3685 148.56667,313.93332C147.83694,313.50882 147.299,313.15179 146.75267,312.76666C146.18564,312.36691 145.71214,311.75494 145.39999,311.11932C145.00916,310.32346 144.7307,309.62012 144.39999,308.77734C144.09084,307.98947 143.41808,307.37787 143.39999,306.48267C143.38106,305.5455 142.81075,305.08823 142.39999,304.48267C141.94838,303.81686 141.54417,303.08795 141.39999,302.26666C141.24001,301.35529 141.46677,300.43591 140.97467,299.79199C140.47466,299.1377 140.59058,298.25256 140.116,297.48267C139.64799,296.72342 139.75101,295.97565 139.39999,295.19199C139.12607,294.58041 138.78113,294.03738 138.39999,293.19199C138.12457,292.58109 137.76411,292.06668 137.37917,291.28751C137.01956,290.55963 136.05663,290.15134 135.20134,289.85199C134.41693,289.57745 133.51085,289.70142 132.82533,289.19199C132.16148,288.69867 131.1785,288.76666 130.30017,288.76666C129.41066,288.76666 128.81856,288.12701 128.01067,287.80267C127.20232,287.47815 126.59866,287.05066 125.68533,286.76801L124.78933,286.76666L123.92083,286.76666" id="svg_5" stroke-width="3" stroke="#000" fill="none"/>
  <path t="82551,82708,82740,82757,82773,82791,82791,82808,82823,82824,82841,82858,83190,83244,83260,83276,83340,84030,84045,84091,84109,84156,84225,84260,84324,84341,84373,84407,84444,84468,84541,84623,84641,84772,84820,84958,85037,85085,85159,85243,85306,85340,85424,85468,85532,85576,85619,85657,85690,85708,85773,85808,85844,85857,85923,85948,85980,86012,86027,86073,86092,86140,86157,86174,86206,86241,86274,86292,86308,86341,86356,86374,86423,86460,86507,86541,86556,86580,86657,86706,86756,86783,86823,86856,86874,86923,86972,86999,87024,87048,87062,87090,87106,87140,87156,87173,87190,87228,87252,87276,87356,87382,87423,87456,87491,87508,87540,87604,87623,87673,87707,87724,87741,87773,87790,87823,87860,87891,87956,88004,88041,88057,88091,88132,88174,88224,88241,88291,88324,88340,88356,88408,88441,88457,88474,88506,88523,88556,88556,88573,88590,88606,88623,88640,88656,88656,88673,88706,88723,88740,88756,88779,88807,88823,88859,88975,88991,89052,89090,89107,89124,89156,89187,89306,89340,89468,89525,89543,89588,89588,89624,89685,89984,90183" d="M153.39999,176.76666C153.116,175.85201 152.1734,176.04791 151.37466,175.73067C150.61041,175.42712 149.90167,174.92188 149.05267,174.714C148.13535,174.4894 147.36551,174.02444 146.60001,173.68266C145.85646,173.35068 145.01122,172.78467 144.116,172.76666C143.23352,172.74892 142.18602,172.16858 141.45717,172.76666C140.89281,173.22977 140.33057,173.69107 139.82533,174.34134C139.28,175.04323 138.88725,175.63913 138.39999,176.192C137.95419,176.69783 137.7173,177.21332 137.23334,177.76666C136.70578,178.36987 135.84396,178.58623 135.39999,179.11934C134.94685,179.66348 134.59846,180.34529 134.04733,180.76666C133.50372,181.18228 132.9574,181.51289 132.17867,181.98801C131.43982,182.43878 130.97467,183.192 130.34283,183.82384C129.75267,184.414 128.79991,184.57648 128.39999,185.11934C127.86831,185.84106 127.67145,186.62871 127.4,187.414C127.14237,188.15932 126.27877,188.70724 125.82533,189.37733C125.2884,190.17082 125.62209,191.20894 125.17867,191.98801C124.75053,192.7402 123.8586,193.1151 123.4,193.93333C123.00821,194.63237 122.65378,195.20927 122.17867,195.98801C121.72788,196.72685 121.76013,197.50356 121.37917,198.26666C121.02239,198.98131 120.40247,199.28751 120.4,200.24583C120.39775,201.11935 119.67546,201.63452 119.41067,202.34134C119.08603,203.20792 119.63272,204.22452 119.39867,205.05067C119.17776,205.83041 118.71267,206.40489 118.38934,207.192C118.07643,207.9537 117.582,208.50218 117.4,209.34134C117.21895,210.17613 116.11073,210.32677 115.5215,210.98817C114.93168,211.65024 115.4,212.7095 115.4,213.56799C115.4,214.4095 114.70804,215.03305 114.40134,215.85066C114.08852,216.68459 114.4,217.64534 114.4,218.48267C114.4,219.34134 113.75922,219.9339 113.41067,220.79201C113.11861,221.51102 113.81122,222.58923 113.34283,223.4095C112.8785,224.22267 112.4,224.74133 112.4,225.64534C112.4,226.47116 112.18378,227.15567 111.684,227.85066C111.17072,228.56441 111.62861,229.49944 111.4,230.4095C111.18073,231.28239 110.44273,231.96208 110.4,232.80267C110.35533,233.68153 110.4,234.60001 110.4,235.414C110.4,236.34134 110.4,237.192 110.4,238.11934C110.4,239.05067 110.4,239.93333 110.4,240.79201C110.4,241.56799 110.4,242.46666 110.4,243.4095C110.4,244.34134 110.4,245.192 110.4,246.11934C110.4,247.05067 110.4,247.93333 110.4,248.80267C110.4,249.56799 110.4,250.60001 110.4,251.414C110.4,252.34134 110.4,253.20267 110.4,254.15601C110.4,255.05067 110.4,255.93333 110.4,256.79199C110.4,257.56799 110.7707,258.19562 111.2785,258.98816C111.75686,259.73474 111.09971,260.79272 111.40017,261.64532C111.66521,262.39743 112.4,263.10001 112.4,263.76666C112.4,264.81482 112.52454,265.54526 112.97467,266.36667C113.40224,267.14688 113.26346,268.12332 113.684,268.96667C114.01392,269.62833 114.73211,270.21597 115.23333,270.93332C115.73433,271.65033 115.4,272.56799 115.4,273.46667C115.4,274.40952 116.17756,274.71243 116.39867,275.48267C116.63559,276.30801 117.13138,276.66019 117.3955,277.414C117.70215,278.28918 117.85326,278.83594 118.42533,279.34134C119.06845,279.90952 119.06143,280.79889 119.48534,281.48267C119.98093,282.2821 120.6908,282.62524 121.62133,282.76666C122.4086,282.88629 122.77548,283.4679 123.56667,283.93332C124.23628,284.32724 124.9,284.76666 125.4,285.19199L125.684,286.05066L126.2785,286.64517" id="svg_6" stroke-width="3" stroke="#000" fill="none"/>
  <path t="121632,121824,121877,121925,121940,122005,122109,122133,122274" d="M160.39999,177.76666C161.116,178.48267 161.91985,178.7439 162.41066,179.192C162.99971,179.7298 163.39999,180.26666 163.68401,181.05067L164.34283,181.714L164.39999,182.60001" id="svg_7" stroke-width="3" stroke="#000" fill="none"/>
  <path t="123068,123306,123423,123485,123501,123533,123612,123673,123723" d="M160.39999,178.76666C159.39999,179.74133 159.38271,180.64552 159.39999,181.47116C159.418,182.33124 160.116,182.76534 160.39999,183.414L160.436,184.34134L161.116,184.76534" id="svg_8" stroke-width="3" stroke="#000" fill="none"/>
  <path t="135020,135289,135323,135422,135489,135640,136067" d="M175.39999,188.76666C176.27867,188.76666 177.116,188.76666 177.97467,188.76666L178.89999,188.76666L179.82533,188.76666L180.68401,188.76666" id="svg_9" stroke-width="3" stroke="#000" fill="none"/>
  <polyline timestamps="136704,137223,137290" startTime="1503446712696" id="svg_10" points="179.4,189.7666669845581 178.1786666666667,190.64516698455807 177.4,190.8520003178914 " stroke-linecap="round" stroke-width="3" stroke="#000" fill="none"/>
  <path t="230048,230259,230324,230324,230324,230333,230334,230334,230334,230334,230334,230334,230334,230334,230351,230351,230351,230351,230367,230367,230387,230410,230410,230410,230421,230433,230434,230451,230451,230467,230484,230484,230501,230501,230517,230517,230534,230534,230534,230551,230551,230571,230571,230571,230593,230593,230593,230619,230619,230619,230641,230641,230641,230641,230651,230651,230651,230667,230667,230683,230684,230700,230701,230716,230717,230733,230734,230751,230767,230767,230784,230784,230784,230801,230801,230817,230817,230834,230851,230851,230851,230867,230867,230884,230884,230900,230901,230901,230917,230934,230934,230950,230951,230967,230967,230984,230984,231001,231001,231001,231017,231017,231034,231051,231051,231067,231067,231067,231084,231084,231100,231101,231101,231116,231117,231117,231133,231134,231151,231166,231167,231167,231184,231201,231201,231217,231234,231234,231251,231251,231267,231267,231284,231301,231301,231316,231367,231367,231384,231384,231401,231416,231434,231451,231467,231467,231483,231484,231500,231516,231517,231567,231584,231756,231796,231868,231932,231986,232068" d="M3.4,313.76666C4.28667,313.76666 5.10217,313.76666 5.97067,313.76666C6.85467,313.76666 8.06667,313.76624 8.81317,313.76685C9.63867,313.76752 10.52218,313.76926 11.44267,313.77734C12.37919,313.78555 13.31078,313.7984 14.21617,313.82382C15.07479,313.84793 16.56768,313.92325 17.1635,313.98801C17.66232,314.04224 18.37056,314.28574 19.4,314.60001C20.18131,314.83853 21.072,314.76666 21.94267,314.76666C22.9,314.76666 23.632,314.76666 24.73867,314.76666C25.56667,314.76666 26.4,314.76666 27.3785,314.76666C28.19867,314.76666 29.036,314.76666 30.05717,314.76666C30.8045,314.76666 31.8,314.76666 32.6,314.76666C33.6,314.76666 34.4,314.76666 35.4,314.76666C36.2,314.76666 37.00061,314.73608 38,314.77118C38.80124,314.79932 39.79869,315.06281 40.44167,315.26666C41.16644,315.49646 42.36723,315.69357 43.05067,315.73065C43.74876,315.76852 45.06667,315.76666 45.89467,315.76666C46.65067,315.76666 47.73333,315.76666 48.368,315.76666C49.4,315.76666 50.09467,315.76666 51.357,315.76666C52.128,315.76666 52.791,315.76666 53.8,315.76666C54.6,315.76666 55.6,315.76666 56.4,315.76666C57.4,315.76666 58.37917,315.76666 59.23333,315.76666C60.02533,315.76666 61.05267,315.76666 61.74733,315.76666C62.77467,315.76666 63.7215,315.76666 64.42083,315.76666C65.4,315.76666 66.2,315.76666 67,315.76666C68,315.76666 68.8,315.76666 69.79867,315.76666C70.74284,315.76666 71.64733,315.76666 72.56667,315.76666C73.44167,315.76666 74.08667,315.76666 75.08266,315.76666C75.87917,315.76666 77.06667,315.76666 77.9,315.76666C78.73333,315.76666 79.65067,315.76666 80.39467,315.76666C81.42934,315.76666 82.4,315.76666 83.15717,315.76666C84.05717,315.76666 84.8045,315.76666 85.8,315.76666C86.6,315.76666 87.6,315.76666 88.4,315.76666C89.4,315.76666 90.2,315.76666 91,315.76666C91.9955,315.76666 92.9228,315.87384 93.9,315.74582C94.73845,315.63599 95.39653,315.1842 96.4,314.93332C97.18639,314.73669 98.00217,314.82452 99.0045,314.75766C99.86175,314.7005 100.82719,314.33536 101.62534,313.91599C102.17884,313.62515 103.2168,313.03665 103.94283,312.88101C104.78291,312.70096 105.79867,312.76825 106.564,312.76666C107.64734,312.7644 108.56984,312.60794 109.22533,312.34134C109.91946,312.05902 110.91836,311.82388 111.884,311.48267C112.59053,311.233 113.51159,310.80939 114.4,310.76666C115.1563,310.73032 116.06343,310.81949 116.8045,310.7095C117.81317,310.55978 118.52828,310.06738 119.51466,309.85199C120.48093,309.64099 121.17225,309.63504 121.964,309.19199C122.81615,308.71515 123.62133,308.76666 124.59983,308.76666C125.37917,308.76666 126.37833,308.76666 127.27883,308.76666C128.10533,308.76666 129.06667,308.76666 129.97067,308.76666C130.62134,308.76666 131.59984,308.76666 132.564,308.76666C133.51466,308.76666 134.39999,308.76666 135.2,308.76666C136.10001,308.76666 136.964,308.76666 137.89999,308.76666C138.82533,308.76666 139.68401,308.76666 140.62134,308.76666L141.45267,308.76666L142.39999,308.76666" id="svg_17" stroke-width="3" stroke="#000" fill="none"/>
  <path t="232767,232914,232935,232935,232952,232952,232985,233002,233018,233035,233052,233052,233068,233068,233085,233102,233102,233118,233135,233135,233152,233168,233168,233185,233185,233185,233202,233202,233218,233218,233235,233235,233252,233252,233252,233268,233268,233268,233284,233284,233301,233317,233317,233334,233351,233367,233367,233384,233401,233401,233417,233417,233434,233451,233467,233467,233467,233484,233484,233501,233501,233501,233550,233550,233550,233550,233572,233573,233573,233635,233674,233860,233934,234049,234083" d="M160.39999,306.76666C161.28667,306.76666 162.23599,306.76666 163.00133,306.76666C163.991,306.76666 164.82933,306.76666 165.836,306.76666C166.7,306.76666 167.60001,306.76666 168.5,306.76666C169.39999,306.76666 170.1701,306.78717 171.05267,307.11932C171.75888,307.3851 172.79514,307.67313 173.72116,307.98801C174.39769,308.21805 175.29547,308.69965 176.10983,308.77118C176.91824,308.84219 177.72165,309.31772 178.56667,309.60001C179.38855,309.87457 180.39999,309.76666 181.2,309.76666C182,309.76666 183.00932,309.67139 183.74283,309.82382C184.82532,310.04877 185.35492,310.56378 186.40984,310.7095C187.17941,310.81583 188.23334,310.76666 188.94733,310.76666C189.85266,310.76666 190.82117,310.76666 191.61467,310.76666C192.39017,310.76666 193.59016,310.76666 194.28267,310.76666C195.22533,310.76666 196.23334,310.76666 197.0955,310.76666C198,310.76666 198.81067,310.76666 199.72133,310.76666C200.57466,310.76666 201.51466,310.76666 202.50017,310.76666C203.28534,310.76666 204.22542,310.77823 204.916,310.76666C205.98979,310.74866 206.77974,310.28662 207.56667,309.76666C208.21271,309.33978 208.98703,308.9761 210.0045,308.82382C210.63074,308.7301 211.82176,308.77921 212.636,308.75601C213.21098,308.73962 214.40359,308.61664 215.3,308.414C215.90262,308.2778 216.79486,308.01904 217.69966,307.888C218.57477,307.76126 219.44817,307.9068 220.42799,307.48267C221.32265,307.0954 221.97467,306.76666 222.92084,306.76666L223.8,306.76666L224.6955,306.76666" id="svg_18" stroke-width="3" stroke="#000" fill="none"/>
 </g>
</svg>