<svg width="500" height="333.3333333333333" xmlns="http://www.w3.org/2000/svg" xmlns:svg="http://www.w3.org/2000/svg" xmlns:xlink="http://www.w3.org/1999/xlink">
 <!-- Created with SVG-edit - http://svg-edit.googlecode.com/ -->
 <g display="inline" class="layer">
  <title>Layer 1</title>
  <path t="0,104,104,113,120,120,128,136,136,145,152,167,170,183,194,194,199,200,211,225,233,236,236,249,249,265,266,274,274,290,291,302,305,317,320,329,336,337,344,352,352,376,376,393,393,400,409,409,418,427,427,449,463,464,472,480,513,520,546,546,553,560,568,579,586,601,610,618,625,632,648,657,679,696,705,727,728,736,752,752,763,763,770,777,787,927,927,927,940,941,942,942,942,943,943,943,946,946,946,947,962,978,985,985,1000,1004,1012,1024,1034,1044,1044,1053,1066,1076,1076,1080,1088,1101,1107,1112,1135,1138,1144,1152,1161,1197,1197,1205,1205,1208,1211,1211,1217,1228,1229,1235,1235,1245,1245,1248,1256,1257,1264,1274,1292,1308,1319,1319,1329,1329,1336,1349,1352,1368,1368,1379,1387,1393,1394,1401,1401,1417,1417,1434,1436,1436,1451,1458,1459,1467,1467,1472,1483,1527,1527,1532,1533,1533,1544,1544,1553,1573,1584,1584,1615,1618,1618,1627,1641,1658,1674,1674,1684,1703,1710,1719,1720,1733,1734,1739,1762,1768,1768,1784,1793,1801,1813,1826,1827,1832,1842,1842,1848,1848,1858,1865,1875,1875,1886,1886,1920,1920,1928,1936,1948,1968,1977,1991,1991,1997,2000,2001,2009,2019,2026,2032,2033,2047,2048,2061,2064,2087,2088,2099,2099,2104,2112,2120,2120,2137,2145,2154,2161,2178,2184,2185,2195,2203,2215,2233,2243,2248,2249,2259,2266,2266,2281,2292,2292,2309,2316,2324,2325,2329,2341,2354,2356,2367,2380,2397,2415,2418,2441,2464,2464,2472,2480,2490,2514,2520,2520,2530,2530,2540,2561,2578,2626,2663,2666,2692,2695,2703,2714,2738,2748,2769,2811,2816,2826,2866,2913,2913,2917,2917,2921,2952,3000,3000,3009,3032,3064,3080,3096,3117,3138,3263,3263,3268,3269,3279,3282,3291,3300,3300,3304,3337,3337,3343,3344,3347,3347,3347,3359,3370,3392,3432,3449,3473,3485,3501,3501,3513,3530,3547,3561,3561,3592,3617,3626,3646,3657,3688,3704,3717,3717,3752,3763,3793,3793,3800,3801,3825,3834,3867,3868,4036,4073,4082,4087,4099,4100,4113,4123,4124,4129,4137,4152,4153,4161,4181,4185,4185,4193,4203,4217,4232,4236,4236,4288,4296,4310,4314,4314,4328,4341,4360,4366,4408,4475,4499,4525,4529,4554,4570,4570,4738" d="M78.3,326.86667C78.74267,324.64517 79.61301,324.39789 80.19017,323.56668C80.68401,322.85547 81.14548,322.09839 81.28934,321.23065C81.42803,320.39401 81.29919,319.51935 81.3,318.50266C81.30067,317.668 81.91344,317.11243 82.27917,316.34583C82.65382,315.56052 82.96532,314.99677 83.8,314.86667C84.8017,314.71051 85.21741,314.06747 85.84167,313.36667C86.37405,312.76901 87.41619,312.51447 87.96667,311.86667C88.51569,311.22058 88.64742,310.2049 89.0045,309.46216C89.3894,308.66156 89.86063,307.89188 90.13333,306.86667C90.33675,306.10187 90.47198,305.20801 91.10133,304.784C91.87062,304.26572 92.03962,303.42755 92.3045,302.57117C92.54058,301.80786 93.25982,301.32437 93.30133,300.38266C93.33943,299.51837 93.74203,298.67365 94.13333,297.86667C94.46377,297.18521 95.13696,296.53421 95.3,295.84583C95.52655,294.88934 96.06353,294.22409 96.68933,293.46667C97.23335,292.80823 97.29933,291.98132 97.3,291.04132C97.30072,290.03333 97.29936,289.22833 97.3,288.32501C97.30067,287.384 97.32729,286.55637 97.8,285.88751C98.26109,285.23511 98.27421,284.34583 98.65266,283.56216C99.08193,282.67331 99.28958,281.8877 99.3,280.9765C99.30931,280.16223 98.9018,279.16409 99.336,278.30267C99.68827,277.60379 100.29933,277.06534 100.3,276.16666C100.30067,275.26666 100.44905,274.50186 100.94733,273.814C101.44988,273.12027 101.3,272.21933 101.3,271.34583C101.3,270.46667 101.07989,269.4982 101.46667,268.70001C101.83271,267.94464 102.29467,267.23071 102.3,266.38135C102.30577,265.46219 102.15298,264.4469 102.336,263.73868C102.56218,262.86343 103.70341,262.58615 104.13333,261.86667C104.59371,261.09619 105.04789,260.53583 105.35733,260.01468C106.1405,258.69568 106.3548,258.02655 106.658,257.33551C106.97897,256.60394 107.30002,255.84584 107.624,255.084C107.94202,254.33617 108.2299,253.61322 108.8,252.36667C109.22913,251.42836 109.64037,250.82307 110.01067,250.07867C110.42073,249.25432 111.04519,248.65907 111.46667,247.86667C111.8074,247.22607 112.17612,246.29926 112.65266,245.57117C113.1605,244.79527 113.91405,244.27475 114.27467,243.46666C114.62439,242.68295 115.0265,241.98003 115.8,241.3875C116.53457,240.8248 117.04102,240.24251 117.35267,239.57201C117.72474,238.77151 118.90929,239.03395 119.5955,238.50951C120.34575,237.93611 120.71061,237.28481 121.3,236.7C121.86884,236.13559 122.12601,235.38162 122.82083,234.86667C123.50945,234.35631 124.3,233.86667 124.864,233.30267C125.5215,232.64517 126.10133,232.06534 126.7,231.46666C127.39999,230.76666 128,230.16667 128.60001,229.56667C129.3,228.86667 129.94252,228.3062 130.49867,227.66533C131.06023,227.01823 131.25777,226.041 131.29866,225.35066C131.36229,224.2767 131.92633,223.74232 132.59467,223.16667C133.30943,222.55103 133.7159,221.78413 134.35266,221.21933C135.05412,220.59715 135.4256,219.83398 135.91066,219.26666C136.5491,218.51996 137.02225,217.97603 137.8,217.3875C138.53735,216.82954 139.5573,217.03036 140.39999,216.64534C141.06931,216.33954 141.90506,215.87209 142.36133,215.22C142.92215,214.41847 143.22188,213.7496 144.13333,213.2C144.87656,212.75183 145.85704,212.55502 146.48534,212.29201C147.39859,211.90971 148.42972,211.82489 148.94284,211.16217C149.48203,210.46577 149.8688,209.66586 150.48534,209.26666C151.41388,208.66544 152.00243,208.17358 152.68933,207.47734C153.30629,206.85199 153.61095,206.11304 154.11884,205.45767C154.77548,204.61037 155.55025,204.08994 156.01334,203.70267C156.95726,202.91328 157.12889,202.15411 157.73599,201.47734C158.35564,200.78659 159.51578,200.7502 159.94284,200.16217C160.46645,199.44119 160.49648,198.33185 160.91066,197.728C161.48389,196.89227 162.06349,196.46896 162.65717,195.91933C163.32315,195.30273 164.31946,195.48174 165.01466,194.78267C165.55869,194.23563 165.30492,193.21764 165.01601,192.38133C164.76085,191.64276 164.17924,190.65486 164.34666,189.73866C164.50577,188.86798 165.1188,188.42256 165.58533,187.668C165.96909,187.0473 167.13559,186.98776 167.77916,186.34584C168.42001,185.70662 168.89398,184.9888 169.216,184.29733C169.55135,183.57724 169.6163,182.58716 170.3,181.86667C170.90187,181.23242 171.65096,180.812 172.27916,180.36667C173.17773,179.72968 173.58357,178.90938 174.46666,178.86667C175.29903,178.8264 176.44325,179.25301 177.01334,178.78133C177.75185,178.17029 177.44411,177.04622 178.3,176.8875C179.26389,176.70876 179.31064,176.01085 179.91066,175.26666C180.43796,174.61267 180.87419,173.71207 181.384,173.15199C181.97876,172.4986 182.97581,172.5524 183.64734,172.16217C184.57393,171.62372 184.83202,170.66798 185.46666,170.03334C186.10132,169.39868 186.91005,169.17065 187.74266,168.64517C188.4249,168.21458 189.13144,167.66707 189.30017,166.76666C189.46877,165.86707 189.96391,165.31477 190.5955,164.56216C191.05595,164.01349 190.91545,162.87234 191.5215,162.1095C192.06866,161.42076 193.1151,161.27646 193.3,160.43066C193.48358,159.59099 193.81873,158.96863 194.32533,158.256C194.84088,157.53079 195.394,156.94283 195.864,156.26666C196.4241,155.46086 197.05942,154.92548 197.2955,154.16217C197.56038,153.30577 197.83987,152.50739 198.13333,151.7C198.41666,150.92047 198.73785,150.1156 199.49867,149.58133C200.09586,149.16197 200.27242,148.21266 200.584,147.384C200.89565,146.55519 201.02089,145.57184 201.37199,144.80533C201.7495,143.9812 202.52623,143.73315 203.13066,142.75333C203.58182,142.02194 204.44995,141.84009 204.94284,141.16217C205.48781,140.41263 205.21591,139.38686 205.65266,138.56667C206.05177,137.81717 206.71947,137.42961 207.29866,136.78133C207.91824,136.08783 207.90056,135.2791 208.27467,134.46666C208.68123,133.58377 209.50352,133.36215 210.13333,132.7C210.71902,132.08423 210.43582,131.0247 211.15067,130.46666C211.70689,130.03244 212.38481,129.33592 212.87466,128.83067C213.42453,128.26353 213.1339,127.24729 213.32083,126.36667C213.4998,125.52351 214.3699,124.96993 214.87466,124.256C215.38004,123.54121 215.98885,122.93601 216.24283,122.16133C216.54285,121.24622 217.07458,120.92059 217.2955,120.16217C217.54594,119.30239 217.3,118.3875 217.3,117.44133C217.3,116.53333 217.3,115.825 217.3,114.86667C217.3,113.90833 217.49084,113.32952 218.01601,112.78133C218.67854,112.08974 218.3,111.06667 218.3,110.16666C218.3,109.26667 218.3,108.36667 218.3,107.46667C218.3,106.56667 218.3,105.668 218.3,104.814C218.3,103.86667 218.3,103.1095 218.3,102.214C218.3,101.35067 218.44551,100.37422 218.28934,99.46667C218.14597,98.63351 217.38783,97.88036 217.3045,97.16666C217.19597,96.23697 217.3,95.38267 217.3,94.51933C217.3,93.61034 217.3,92.812 217.3,91.816C217.3,90.8875 217.3,90.28184 217.3,89.09084C217.3,88.256 217.3,87.36667 217.3,86.46667C217.3,85.57117 217.3,84.64516 217.3,83.76667C217.3,82.86667 217.3,82.06667 217.3,81.03333C217.3,80.256 217.3,79.34583 217.3,78.384C217.3,77.5765 217.1702,76.56629 217.65266,75.91933C218.16042,75.23846 218.30009,74.46871 218.8,73.86667C219.31461,73.24693 219.7442,72.47436 220.39983,71.76667C220.9498,71.17303 221.21201,70.36255 221.3,69.47733C221.39484,68.52344 221.88181,67.84964 222.13333,66.86667C222.32906,66.10175 222.3,65.1095 222.3,64.325C222.3,63.38267 222.06813,62.48742 222.3045,61.62833C222.52461,60.82841 223.25269,61.49438 224.00534,61.814C224.91292,62.19941 225.22011,62.75767 225.31067,63.68134C225.39519,64.54337 226.07675,64.99167 226.89999,65.44133C227.68925,65.87243 228.64549,65.70152 229.43866,65.90266C230.30107,66.12137 230.88934,66.80932 231.62117,67.30933C232.33316,67.7958 232.91435,68.69637 233.72533,68.86667C234.56697,69.04341 235.57964,68.65754 236.39983,69.08817C237.04327,69.42599 237.09953,70.55125 237.65717,71.21933C238.24042,71.91811 239.25371,72.10243 239.94284,72.514C240.68353,72.95636 241.25267,73.49438 242.00534,73.814C242.91292,74.19941 243.56934,74.56207 244.216,75.15067C244.85063,75.72831 245.12836,76.49281 245.65717,77.16217C246.2426,77.90321 247.3,78.03333 247.89999,78.44133L248.77916,78.86667" id="svg_1" stroke-width="3" stroke="#000" fill="none"/>
  <path t="5043,5155,5172,5181,5209,5209,5242,5280,5296,5307,5312,5313,5321,5336,5336,5345,5345,5435,5452,5466,5544,5600,5641,5672,5772,5792,5810,5931,5949,5949,5959,5984,5987,5996,6012,6016,6025,6040,6058,6073,6087,6091,6096,6096,6104,6112,6168,6177,6184,6192,6192,6210,6225,6225,6225,6241,6249,6276,6288,6296,6336,6344,6371,6377,6380,6380,6393,6400,6400,6401,6411,6411,6422,6426,6427,6427,6528,6562,6568,6608,6616,6641,6648,6664,6680,6695,6698,6698,6717,6736,6752,6753,6757,6757,6768,6781,6785,6785,6800,6818,6818,6826,6834,6843,6851,6858,6874,6875,6885,6889,6900,6904,6905,6916,6920,6935,6938,6952,6953,6966,6984,7010,7016,7017,7041,7048,7049,7058,7080,7128,7128,7144,7153,7176" d="M249.3,79.86667C251.10001,79.86667 251.89999,79.86667 252.864,79.86667C253.74283,79.86667 254.48534,79.86667 255.54283,79.86667C256.49866,79.86667 257.32083,79.86667 258.16135,79.86667C259.13333,79.86667 259.99551,79.86667 260.82083,79.86667C261.78534,79.86667 262.51068,79.86667 263.49966,79.86667C264.42801,79.86667 265.34818,79.86667 266.10132,79.86667C267,79.86667 267.98193,79.47777 268.86401,79.86667C269.4837,80.13988 269.91061,80.86134 270.79999,80.86667C271.69998,80.87206 272.60254,80.98049 273.52151,80.8665C274.42053,80.75499 274.9563,80.06812 275.89999,79.87733C276.7623,79.703 277.2934,79.23897 277.72534,78.46667C278.18292,77.64859 278.6557,76.89527 279.49866,76.86667C280.38348,76.83665 281.12094,76.56596 281.30017,75.76683C281.48907,74.92447 282.54846,75.02019 283.29999,74.7C284.08121,74.36716 284.75613,73.75051 285.2955,73.21933C285.74631,72.77536 286.9093,73.03397 287.59549,72.5095C288.34583,71.936 288.21234,70.90473 288.86249,70.3875C289.6908,69.72852 290.55643,69.93492 291.29468,69.814C292.33966,69.64285 293.12115,68.95995 293.91068,68.86667C294.77344,68.76474 295.30087,68.07588 296.10132,67.868C296.91779,67.65597 297.31238,67.01507 297.82083,66.36667C298.42209,65.59992 299.06924,65.02181 299.97198,64.87733C300.83197,64.7397 301.82083,64.8672 302.61734,64.86667C303.612,64.866 304.44641,64.88825 305.26001,64.44133C305.99396,64.03817 306.82065,63.87819 307.53333,63.868C308.61722,63.8525 309.79688,63.55154 310.24283,64.21933C310.76175,64.99641 310.17599,66.07527 310.30017,66.9665C310.4119,67.76838 311.27139,68.21792 311.29999,69.08817C311.32883,69.96619 311.29999,70.86667 311.29999,71.66666C311.29999,72.58134 311.28879,73.55049 310.85733,74.188C310.36511,74.91529 309.48993,75.65363 309.32132,76.42C309.13162,77.2823 309.32217,78.17141 309.29984,79.18784C309.28186,80.00592 308.75385,80.63867 308.384,81.436C308.04977,82.1566 307.88788,83.07574 307.42133,83.9665C307.02655,84.72025 306.40799,85.16873 305.87466,85.852C305.40585,86.4526 305.30225,87.21849 305.29999,88.23067C305.29791,89.16666 305.48889,90.13596 305.07849,90.96667C304.73734,91.65724 303.72443,92.12173 303.31067,92.892C302.93356,93.59404 302.27441,94.08251 301.63333,94.86667C301.14502,95.46396 301.29999,96.43066 301.29999,97.3875C301.29999,98.27734 301.29999,99.188 301.29999,99.86667C301.29999,100.98133 301.46814,101.90311 301.21466,102.66666C300.95831,103.43884 300.49863,104.32505 300.07867,105.08817C299.71121,105.7559 299.3045,106.56667 299.26401,107.43066L298.58401,107.95067" id="svg_2" stroke-width="3" stroke="#000" fill="none"/>
  <path t="7568,7649,7675,7682,7731,7731,7751,7751,7751,7754,7754,7768,7768,7786,7800,7845,7846,7846,7852,7852,7852,7858,7865,7876,7876,7883,7893,7903,7910,7921,7932,7932,7976,7984,8008,8009,8016,8057,8064,8088,8098,8112,8137,8153,8162,8184,8224,8248,8280,8296,8296,8344,8684,8704,8705,8715,8716,8736,8742,8756,8779,8779,8801,8825,8825,8833,8833,8841,8848,8864,8880,8889,8913,8920,8944,8944,8971,8986,8991,9008,9016,9035,9035,9049,9065,9073,9099,9117,9144,9173,9192,9193,9217,9217,9225,9225,9234,9264,9272,9304,9314,9365,9369,9370,9370,9370,9385,9385,9385,9395,9395,9408,9409,9427,9454,9480,9481,9513,9520,9528,9548,9600,9611,9611,9627,9644,9653,9667,9695,9698,9698,9698,9715,9720,9745,9745,9753,9764,9794,9801,9820,9842,9855,9857,9868,9897,9905,9932,9932,9952,9976,9976,9985,10010,10010,10128,10145" d="M297.29999,105.86667C297.29999,107.66666 297.52606,108.34954 298.01599,109.036C298.46262,109.6618 298.3602,110.6441 298.52151,111.50917C298.70856,112.51218 298.83878,113.20605 299.29999,114.36667C299.55646,115.01208 300.06244,115.89296 300.35266,116.56667C300.71527,117.40846 301.26111,118.17015 301.29999,119.03333C301.33936,119.90769 301.34106,120.56326 301.58533,121.54933C301.78503,122.35555 301.9884,123.1665 302.68933,124.184C303.18921,124.90966 303.28897,125.72809 303.29999,126.384C303.31799,127.45645 303.72714,128.25429 304.35266,128.91933C304.87619,129.47592 305.28958,130.3873 305.29999,131.18784C305.31061,132.00526 305.29999,133.08817 305.29999,133.96666C305.29999,134.86667 305.29999,135.66667 305.29999,136.58133C305.29999,137.47734 305.44232,138.3797 305.28934,139.26666C305.14587,140.09854 304.35928,140.78029 304.29999,141.57117C304.23566,142.42902 303.44568,142.91061 303.30133,143.668C303.10809,144.68175 302.51227,144.93602 302.336,145.728C302.12469,146.67743 302.27313,147.58008 301.79999,148.34584C301.32959,149.10715 301.60672,149.91876 301.94733,150.62384C302.35626,151.47038 302.31586,152.37439 303.00449,152.91484C303.71838,153.47511 304.13644,154.21373 304.52133,154.96666C304.9115,155.72987 305.26758,156.5101 305.30133,157.43733C305.33191,158.27696 305.48697,159.3163 305.91068,159.99466C306.39551,160.77089 307.61273,160.4471 308.1785,161.08817C308.76532,161.7531 307.97821,163.00456 308.46667,163.7C308.96899,164.41516 309.29553,164.96684 309.29999,165.752C309.30533,166.69205 309.46078,167.70308 309.79999,168.34584C310.23529,169.17068 310.29999,170.06799 310.29999,171.03334C310.29999,171.84584 310.29999,172.80533 310.29999,173.57117C310.29999,174.46666 310.29999,175.36667 310.29999,176.26666C310.29999,177.16667 310.31204,178.06807 310.29999,179.03334C310.28958,179.86687 310.1731,180.72365 309.68933,181.492C309.23608,182.21185 308.79489,183.10048 308.10132,183.69733C307.45813,184.25082 306.83783,184.61646 306.01599,184.868C305.24106,185.10518 304.79742,185.79111 303.96667,186.36667C303.24582,186.86609 302.8006,187.39375 302.24817,187.80867C301.25745,188.55278 300.53067,188.74602 299.70132,188.948C298.70181,189.19142 297.81116,189.49971 297.07849,190.08817C296.43918,190.60167 295.84564,191.42934 295.10001,191.78267C294.2413,192.18958 293.62167,192.72261 292.77917,192.86667C291.91257,193.01485 291,192.86667 290.10132,192.86667C289.13333,192.86667 288.25748,193.0524 287.5,192.78133C286.59891,192.45886 285.88824,191.82866 285.42151,190.98801C285.03845,190.29805 284.46396,189.79195 283.75751,189.424C283.04083,189.05072 282.31137,188.64272 281.39734,187.92799C280.7164,187.39551 279.95572,186.80241 279.32083,186.36667C278.51089,185.81075 277.83444,185.47246 277.31067,184.79466C276.83438,184.1783 276.8494,183.1954 276.35266,182.50951C275.88831,181.86832 275.36182,181.38481 274.65717,180.814C273.92667,180.22223 273.50952,179.52246 273.07849,178.76666C272.69693,178.09758 271.89999,177.46667 271.29999,176.86667C270.70001,176.26668 270.00449,175.56667 269.46667,174.86667L269.30133,174.06667L269.21466,173.15199L268.49866,172.868" id="svg_3" stroke-width="3" stroke="#000" fill="none"/>
  <path t="11002,11100,11133,11147,11147,11147,11163,11170,11170,11177,11212,11226,11234,11249,11266,11275,11281,11281,11293,11311,11314,11325,11341,11376,11398,11413,11421,11437,11443,11459,11473,11489,11512,11529,11555,11560,11560,11560,11563,11581,11596,11596,11609,11609,11632,11635,11644,11650,11660,11667,11677,11697,11697,11705,11715,11716,11721,11721,11731,11737,11749,11749,11749,11754,11754,11764,11769,11777,11777,11794,11800,11817,11827,11827,11836,11843,11850,11859,11875,11875,11882,11891,11891,11898,11899,11905,11905,11915,11921,11921,11931,11932,11937,11949,11954,11966,11966,11971,11971,11981,11981,11985,11994,12001,12002,12002,12010,12011,12018,12027,12027,12034,12035,12044,12044,12051,12051,12059,12059,12060,12066,12077,12077,12084,12084,12084,12089,12090,12098,12105,12121,12121,12137,12147,12148,12155,12166,12167,12169,12177,12193,12197,12210,12214,12217,12218,12235,12235,12249,12274,12274,12290,12304,12313,12321,12329,12347,12353,12369,12380,12380,12387,12402,12418,12448,12457,12475,12489,12497,12512,12537,12537,12584,12609" d="M275.29999,183.86667C275.29999,185.47734 275.29999,186.40834 275.29999,187.40933C275.29999,188.11734 275.29999,188.86133 275.29999,189.896C275.29999,190.86667 275.29999,191.66667 275.29999,192.58133C275.29999,193.47734 275.29999,194.36667 275.29999,195.26666C275.29999,196.16217 275.29999,197.08817 275.29999,197.96666C275.29999,198.86667 275.29999,199.66667 275.29999,200.58133C275.29999,201.47734 275.29999,202.36667 275.29999,203.26666C275.29999,204.16217 275.29999,205.08817 275.29999,205.96666C275.29999,206.86667 275.78262,207.47418 276.21466,208.15199C276.70779,208.92564 276.91055,209.60115 277.26401,210.29201C277.68872,211.12219 276.93594,212.24359 277.46667,212.86667C277.98773,213.47838 278.59628,214.06537 279.16135,214.68134C279.62314,215.18474 280.71048,215.56613 281.24734,216.22383C281.82236,216.92825 282.05911,217.5901 282.59549,218.51933C282.98376,219.19199 283.06445,220.13747 283.30133,221.06534C283.50589,221.86664 284.28134,222.30212 284.29999,223.16667C284.31937,224.06512 284.92831,224.5417 285.29999,225.2C285.71887,225.94191 285.29999,226.98134 285.29999,227.86667C285.29999,228.62384 285.29999,229.51933 285.29999,230.38266C285.29999,231.34584 285.29999,232.28799 285.29999,233.2C285.29999,233.87199 285.29999,234.86133 285.29999,235.896C285.29999,236.664 285.29999,237.56667 285.29999,238.50267C285.29999,239.34933 285.29999,240.15683 285.29999,241.15199C285.29999,242.06667 285.29999,242.96666 285.29999,243.86667C285.29999,244.66667 285.29999,245.56667 285.29999,246.46666C285.29999,247.36667 285.29999,248.256 285.29999,249.2C285.29999,250.052 285.33334,250.98196 285.29999,251.86667C285.27139,252.62546 284.90469,253.50841 284.65268,254.27116C284.32968,255.24867 284.39227,256.03522 284.29868,256.98132C284.20999,257.87759 283.5842,258.60364 283.35266,259.51483C283.15701,260.2847 282.46979,260.75317 281.82083,261.38751C281.24255,261.95273 281.13675,263.03467 280.87466,263.69199C280.47192,264.70212 280.3324,265.49258 280.29868,266.35068C280.26471,267.21512 279.92004,268.08328 279.38266,268.78534C278.82834,269.50952 278.4267,270.13971 278.00534,270.86584C277.51624,271.70871 277.42105,272.56973 277.26401,273.50266C277.11728,274.3743 276.73856,275.07397 276.10001,275.98267C275.63455,276.64502 275.11072,277.35699 274.70001,278.04132C274.21277,278.85318 273.62915,279.49692 273.42151,280.40933C273.20792,281.34796 273.50552,282.12305 273.29099,283.05234C273.06329,284.03857 272.20013,284.29898 271.46667,285.03333C270.86304,285.6377 270.60181,286.26981 270.10132,287.26401C269.73401,287.99365 269.30722,288.88132 269.29999,289.62833C269.29138,290.51932 269.35382,291.45468 268.86401,292.23065C268.3349,293.06891 267.53,293.50491 267.00449,294.17117C266.37521,294.96902 266.60532,295.89975 266.2955,296.75684C266.02283,297.51111 265.32867,298.16528 265.29999,299.06668C265.27136,299.96637 265.22391,300.75537 264.87466,301.70267C264.59149,302.47079 264.46741,303.28122 264.24734,304.2095C264.02853,305.1326 263.38504,305.85406 263.30133,306.66666C263.20911,307.56195 263.09979,308.26746 262.58401,308.95065C262.11945,309.56601 262.29999,310.56668 262.29999,311.46667C262.29999,312.36667 262.29999,313.27734 262.29999,314.18799C262.29999,315.04132 262.51614,316.09418 262.01599,316.78265C261.51285,317.47522 261.29999,318.16666 261.29999,319.06668C261.29999,319.96649 261.29999,320.84134 261.29999,321.668C261.29999,322.50266 261.29999,323.51483 261.29999,324.29733L261.29999,325.22385L261.29999,326.16666" id="svg_4" stroke-width="3" stroke="#000" fill="none"/>
  <path t="13392,13446,13447,13456,13473,13480,13480,13488,13496,13499,13499,13505,13505,13513,13521,13530,13530,13541,13541,13545,13545,13554,13570,13570,13579,13579,13579,13586,13587,13595,13601,13602,13611,13618,13626,13626,13634,13649,13660,13660,13668,13674,13684,13691,13691,13701,13701,13717,13722,13722,13731,13731,13737,13738,13751,13767,13784,13802,13816,13817,13820,13827,13835,13836,13847,13850,13859" d="M227.3,328.86667C227.3,327.86667 227.31731,327.06653 227.3,326.16666C227.282,325.23013 226.9982,324.38989 226.72533,323.69199C226.36134,322.76105 226.3,321.76666 226.3,320.86667C226.3,320.1095 226.30934,319.21393 226.3,318.35068C226.28958,317.38733 225.80717,316.6265 225.46666,315.70001C225.235,315.0697 225.3,314.03333 225.3,313.24133C225.3,312.21399 225.3,311.51935 225.3,310.50266C225.3,309.55316 225.3,308.81067 225.3,307.81467C225.3,307.19067 225.3,306.22467 225.3,305.13116C225.3,304.29868 225.3,303.45599 225.3,302.54532C225.3,301.69199 225.3,300.75201 225.3,299.76666C225.3,298.86667 225.3,298.06668 225.3,297.16666C225.3,296.34583 225.3,295.38266 225.3,294.51935C225.3,293.62833 225.17499,292.68188 225.34166,291.84583C225.51042,290.99921 226.42584,290.51721 226.96666,289.86667C227.54308,289.17328 227.86841,288.37817 228.39983,287.54532C228.81802,286.88989 229.20679,286.04431 229.28934,285.24133C229.39439,284.21933 229.14568,283.50592 229.31067,282.50266C229.45293,281.6377 229.57031,281.55066 229.3,281.03333C228.8941,280.25647 229.3,279.34933 229.3,278.38751C229.3,277.45599 229.3,276.54532 229.3,275.86667L229.3,274.75201L229.3,273.86667L229.3,273.03333" id="svg_5" stroke-width="3" stroke="#000" fill="none"/>
  <path t="14523,14601,14601,14609,14630,14653,14653,14661,14661,14680,14683,14693,14699,14705,14731,14735,14738,14738,14761,14775,14775,14778,14778,14796,14831,14831,14834,14864,14897,14905,14929,14929,14944,14985,15010,15017,15034,15058,15065,15081,15113,15137,15168,15184,15196,15209,15217,15241,15273,15273,15281,15297,15328,15341,15353,15363,15379,15403,15411,15427,15434,15453,15508,15554,15578,15618,15634" d="M196.3,267.86667C196.3,269.57651 196.3,270.384 196.3,271.23065C196.3,272.17117 196.3,273.18799 196.3,273.86667C196.3,274.84515 196.3,275.66534 196.3,276.56668C196.3,277.46667 196.3,278.36667 196.3,279.26666C196.3,280.16217 196.3,281.08817 196.3,281.96667C196.3,282.86667 196.24409,283.68527 195.77916,284.38751C195.23376,285.21124 194.6998,285.82562 194.42149,286.84515C194.2032,287.64484 194.3,288.58133 194.3,289.436C194.3,290.21851 194.3,291.23065 194.3,292.16217C194.3,293.03333 194.3,293.96667 194.3,294.86667C194.3,295.66666 194.3,296.58133 194.3,297.47733C194.3,298.36667 194.54288,299.30148 194.2955,300.16217C194.07478,300.93005 193.31042,301.38733 193.3,302.26666C193.28934,303.1666 193.3,304.06534 193.3,305.03333C193.3,305.86667 193.75027,306.41165 194.21466,307.15201C194.70209,307.92911 194.3,308.91934 194.3,309.86667C194.3,310.66666 194.3,311.56668 194.3,312.43066C194.3,313.30267 194.05713,314.30148 194.3045,315.16217C194.52521,315.93005 195.43124,316.24249 195.94733,316.91934C196.44876,317.57697 195.93683,318.66357 196.336,319.43066C196.73116,320.19003 197.3,320.74533 197.3,321.57117L197.3,322.50949L197.3,323.38751L197.3,324.25601" id="svg_6" stroke-width="3" stroke="#000" fill="none"/>
  <path t="17560,17602,17615,17619,17625,17635,17648,17663,17663,17666,17696,17696,17705,17713,17722,17730,17730,17738,17746,17763,17763,17770,17770,17777,17788,17798,17803,17814,17819,17833,17852,17858,17859,17875,17882,17905,17906,17914,17930,17948,17961,17978,17978,17994,18020,18020" d="M263.29999,290.86667C264.86401,290.25601 265.34418,289.43051 265.87466,288.84134C266.39957,288.25836 267.24869,287.94751 267.77917,287.32501C268.45209,286.5354 268.28473,285.52563 268.79999,284.90833C269.24612,284.37381 269.29999,283.51483 269.29999,282.62384C269.29999,281.66666 269.29999,280.76666 269.29999,279.86667C269.29999,279.06668 269.29999,278.16666 269.29999,277.30267C269.29999,276.42368 269.28122,275.64514 269.30017,274.66699C269.31818,273.73816 269.97214,273.08838 270.27917,272.34583C270.61517,271.53314 270.29999,270.56668 270.29999,269.668C270.29999,268.78265 270.84915,268.19614 271.24283,267.505C271.71857,266.6698 271.25388,265.72684 271.29999,264.81851C271.34271,263.97678 271.70087,263.23273 272.01599,262.35068C272.30981,261.52829 272.29999,260.58133 272.29999,259.66666C272.29999,258.76666 272.29999,257.86667 272.29999,257.06668L272.29999,256.23065L272.29999,255.214L272.29999,254.51933" id="svg_7" stroke-width="3" stroke="#000" fill="none"/>
  <path t="19360,19438,19438,19451,19465,19499,19499,19513,19545,19571,19630,19630,19644,19730,19756,19777,19785,19801,19863,19879,19914,19945,19946,19985,20068,20087,20109,20121" d="M293.29999,184.86667C293.29999,183.86667 293.29999,183.06667 293.29999,182.16667C293.29999,181.22383 293.29999,180.29733 293.29999,179.51483C293.29999,178.50267 293.29999,177.668 293.29999,176.78267C293.29999,175.86667 293.27274,175.06625 293.29999,174.16667C293.32858,173.22253 294.00458,172.8522 294.89999,172.86667C295.86456,172.88225 296.54865,173.22668 297.1785,173.86684C297.72076,174.41797 298.32065,174.85625 299.2785,174.86667C299.99548,174.87447 300.94284,174.92383 301.30017,175.74516L302.00449,175.86667L302.89999,175.86667L303.79999,175.86667" id="svg_8" stroke-width="3" stroke="#000" fill="none"/>
  <path t="21417,21499,21512,21512,21517,21540,21540,21553,21553,21553,21555,21565,21566,21569,21581,21585,21601,21611,21619,21619,21627,21638,21650,21666,21680,21683,21698,21698,21714,21737,21750,21764,21785,21803,21820,21827,21833,21843,21858,21865,21865,21876,21882,21897,21921,21945,21961,21962,21970,21981,21997,22003,22013,22043,22050,22059,22075,22089,22098,22098,22106,22115,22123,22138,22146,22210,22244,22250,22259,22285,22290,22312,22312,22317,22317,22327,22337,22385,22410,22418,22435,22452,22453,22482,22506,22506,22553,22585,22617,22681,22771,22809,22827,22849,22913,22986,23001,23015,23042,23049,23065,23104,23136,23153,23169,23185,23318,23318,23341,23350,23383,23386,23386,23386,23409,23410,23449,23450,23458,23458,23474,23491,23508,23577,23596,23738,23753,23769,23778,23779,23779,23797,23797,23812,23843,23882,23882,23892,23898,23924,23930,23930,24092,24105,24106,24116,24129,24130,24145,24148,24153,24169,24177,24185,24250,24290,24291,24321,24353,24361,24388,24439,24449,24505,24553,24556,24597,24631,24683,24720,24720,24725,24739,24739,24774,24796,24796,24826,24865,24865,24899" d="M277.29999,102.86667C277.29999,104.7 277.07373,105.63725 277.38535,106.29867C277.77155,107.11839 278.53931,107.82763 278.87466,108.53867C279.26804,109.37271 279.27695,110.1169 279.2955,110.86134C279.3252,112.05199 279.60083,112.9175 279.94733,113.56667C280.40067,114.41605 280.25156,115.36799 280.29999,116.256C280.34274,117.0395 280.88181,117.88368 281.13333,118.86667C281.32907,119.63158 281.29999,120.53333 281.29999,121.3875C281.29999,122.26667 281.29999,123.16666 281.29999,124.06667C281.29999,124.96667 281.29999,125.86667 281.29999,126.66666C281.29999,127.56667 281.51862,128.33319 282.01599,128.95067C282.49963,129.55113 282.29999,130.56667 282.29999,131.46666C282.29999,132.36667 282.29999,133.26666 282.29999,134.16667C282.29999,135.06667 282.34778,135.96793 282.29999,136.86667C282.25726,137.67007 281.55307,138.40384 281.336,139.26666C281.11624,140.14017 281.29999,141.06667 281.29999,141.96666C281.29999,142.86667 281.29999,143.66667 281.29999,144.56667C281.29999,145.46666 281.45709,146.38239 281.28934,147.26666C281.10986,148.21259 280.7142,149.01578 280.13333,149.7C279.56772,150.36624 279.61911,151.16452 279.01468,151.78267C278.40643,152.40472 277.53143,152.7029 276.70001,152.856C275.81433,153.0191 275.09286,153.39973 274.20016,153.74516C273.35022,154.07405 272.75348,154.61574 271.89999,154.83067C271.03107,155.0495 270.41718,154.33733 269.77917,153.86667C268.98947,153.28409 268.25882,152.90314 267.70001,152.23067C267.15793,151.57829 266.79465,150.63315 266.10132,150.036C265.45923,149.48297 264.99118,149.0076 264.35266,148.51401C263.67923,147.99344 263.31042,147.32516 263.29999,146.384C263.29105,145.57655 263.31125,144.57993 263.29999,143.7C263.28958,142.8873 262.68704,142.17406 262.336,141.44133C261.96408,140.66507 262.15063,139.65416 262.30017,138.76683C262.44351,137.91641 262.86734,137.49918 262.07867,136.98817C261.3736,136.53131 260.15109,137.20374 259.46667,136.7C258.81369,136.21941 258.20016,135.86667 257.29999,135.86667C256.49866,135.86667 255.60001,135.86667 254.7,135.86667C253.82083,135.86667 252.864,135.86667 251.9955,135.86667C251.13333,135.86667 250.31932,135.92259 249.28534,135.86667C248.49521,135.82393 247.7791,135.32506 247.13333,134.7C246.46394,134.05206 245.9576,133.44199 244.90134,133.036C244.1666,132.75359 243.05104,132.6963 242.66167,132.105C242.14381,131.3186 242.64499,130.27704 242.27916,129.40834C241.97154,128.67787 241.70982,128.02724 241.24283,127.21933C240.84727,126.53503 240.08469,125.80504 239.20016,125.86684C238.39215,125.92329 237.81622,126.89985 237.2375,127.16217C236.55678,127.47073 235.40605,127.61845 234.60899,127.91933C233.76114,128.2394 232.84445,128.6396 232.42149,129.30949C232.02069,129.94429 232.44328,131.12158 232.29984,131.96651C232.15512,132.81886 231.04022,132.95575 230.58533,133.668C230.09981,134.42822 229.91885,133.72585 229.584,133.06667C229.18565,132.28249 229.37984,131.20239 229.24283,130.51933C229.05821,129.59894 228.31042,128.86687 228.3,128.06534C228.28833,127.16674 228.3,126.26667 228.3,125.3875C228.3,124.42 228.3,123.54533 228.3,122.692C228.3,121.75333 228.3,120.86667 228.3,120.06533C228.3,119.16666 228.3,118.26667 228.3,117.3875C228.3,116.43066 228.24812,115.53281 228.72533,114.892C229.23305,114.21021 229.43831,113.37582 229.2955,112.5095C229.151,111.63293 228.49901,111.06634 227.8,110.36667C227.20045,109.76655 226.59698,109.11845 225.75833,108.84583C224.82875,108.54366 224.16133,108.256 223.46933,107.66666L223.07851,106.76683L222.5955,106.22383L221.73599,105.84133" id="svg_9" stroke-width="3" stroke="#000" fill="none"/>
  <path t="25776,25890,25897,25922,25961,25969,26057,26091,26091,26097,26169,26209,26219,26281,26290,26321,26415,26428,26433,26505,26561,26562,26603,26612,26705,26722,26745,26850" d="M276.29999,127.86667C274.5,127.86667 274.00439,128.19202 273.29999,128.74516C272.73773,129.18669 271.55753,128.87128 271.336,129.728C271.0925,130.66969 271.29999,131.45599 271.29999,132.34584C271.29999,133.30267 271.2999,134.16667 271.29999,135.06667C271.30008,135.96651 271.58197,136.82394 272.39984,136.86667C273.3241,136.91496 274.23154,137.25902 275.01468,136.78133C275.81836,136.29109 276.45471,135.84352 276.94284,135.16217C277.50204,134.38161 277.29999,133.3875 277.29999,132.50951L277.29999,131.56667L277.29999,130.66667L277.29999,129.76683" id="svg_10" stroke-width="3" stroke="#000" fill="none"/>
  <path t="28032,28124,28133,28164,28228,28229,28267,28298,28436,28455,28506,28538,28595,28635,28676,28698,28714,28778,28790,28826,28924" d="M300.29999,128.86667C299.46667,129.03334 298.75085,129.5372 298.35718,130.22833C297.88141,131.06354 298.29999,132.00534 298.29999,132.91484C298.29999,133.75333 298.01761,134.79268 298.46667,135.53334C298.9346,136.30511 299.67007,137.02248 300.49866,136.86534C301.30719,136.71202 301.29999,135.58133 301.29999,134.76666C301.29999,133.86667 301.29999,132.91933 301.38535,132.15067L302.1785,131.64517L302.29999,130.76666" id="svg_11" stroke-width="3" stroke="#000" fill="none"/>
  <path t="30341,30489,30505,30505,30514,30545,30554,30554,30562,30579,30585,30601,30619,30649,30675,30690,30714,30723,30737,30753,30778,30786,30794,30803,30828,30849,30881,30881,31078,31078,31099,31100,31108,31108,31117,31117,31131,31131,31138,31146,31147,31169,31186,31201,31218,31218,31229,31242,31249,31267,31274,31281,31300,31307,31345" d="M234.3,105.86667C234.24283,104.1095 233.91898,103.22535 233.65266,102.51933C233.32135,101.64102 233.40443,100.63889 233.29967,99.76667C233.21376,99.05138 232.25323,98.66766 231.63333,97.86667C231.084,97.15688 231.29939,96.23753 230.87466,95.46667C230.4221,94.6453 230.3,93.76683 230.3,92.86667C230.3,92.06533 230.3,91.16666 230.3,90.26667C230.3,89.36667 230.3,88.46667 230.3,87.56667C230.3,86.66666 230.3,85.76683 230.3,84.88133C230.3,84.00533 230.3,83.03333 230.3,82.27734C230.3,81.36667 230.3,82.09866 230.3,83.0665C230.3,83.84583 230.20706,84.85789 230.35716,85.61933C230.5412,86.55292 231.0052,87.25729 231.216,88.264C231.36742,88.98712 231.94098,89.79499 232.24733,90.572C232.51854,91.25987 232.7312,92.25621 233.32083,92.84583C233.91046,93.43546 234.42653,93.89856 234.91066,94.46667C235.54584,95.21202 235.95555,96.10981 236.52133,96.74533C237.0558,97.34569 237.3,98.06533 237.3,98.95067L237.52133,99.74533L238.24283,100.21933L238.584,100.868" id="svg_12" stroke-width="3" stroke="#000" fill="none"/>
  <path t="32184,32251,32266,32270,32275,32286,32292,32292,32301,32301,32305,32314,32314,32329,32330,32444,32445,32796,32799" d="M294.29999,84.86667C294.38535,84.06533 294.77545,83.20798 295.27466,82.47733C295.73682,81.80087 296.75882,81.61259 297.17868,80.7665C297.53943,80.03951 297.69223,79.22959 298.01599,78.35067C298.32355,77.51576 298.79865,76.83324 299.44934,76.23067C300.12146,75.60826 300.31467,74.692 300.52133,73.88834L301.01599,73.15334L301.79999,72.86667L301.104,72.86667" id="svg_13" stroke-width="3" stroke="#000" fill="none"/>
  <path t="34445,34545,34562,34570,34586,34586,34603,34626,34636,34636,34643,34704,34706,34721,34721,34721,34741,34741,34746,34753,34770,34801,34817,34830,34845,34845,34863,34928,34929,34953,34993,35042,35065,35078,35078,35089,35243,35282,35321,35324,35345,35377,35401,35411,35411,35422,35434,35449,35458,35458,35474,35553,35657,35684,35708,35722,35722,35737,35801,35833,35849,35859,35874,35874,35882,35882,35891,35897,35907,35986,36002,36026,36044,36044,36049,36058,36106,36121,36129,36138,36169,36169,36201,36201,36233,36257,36260,36265,36266,36275,36290,36290,36297,36329,36358,36369,36377,36392,36393,36396,36409,36409,36417,36417,36433,36470,36471,36491,36498,36509,36514,36523,36523,36529,36529,36543,36544,36548,36549,36553,36554,36561,36561,36561,36569,36569,36570,36585,36585,36590,36591,36596,36596,36601,36609,36626,36634,36660,36664,36664,36669,36669,36676,36681,36682,36692,36700,36707,36707,36713,36713,36739,36739,36742,36743,36748,36748,36754,36754,36761,36762,36762,36769,36769,36769,36777,36778,36792,36793,36818,36818,36821,36821,36827,36827,36827,36840,36849,36849,36858,36859,36877,36882,36886,36886,36897,36917,36917,36918,36923,36924,36931,36931,36938,36938,36938,36945,36953,36953,36954,36961,36970,36977,36988,36988,36994,37001,37002,37010,37010,37018,37026,37026,37034,37034,37043,37057,37057,37066,37076,37076,37081,37105,37106" d="M312.29999,180.86667C313.91068,180.86667 314.86957,180.97813 315.60001,180.50951C316.3999,179.99632 316.88486,179.27173 317.70001,178.892C318.58487,178.47981 319.29214,177.98938 320.10001,177.868C321.00858,177.73148 321.31824,177.0126 321.98267,176.79466C322.87253,176.50279 323.54068,175.99883 324.29468,175.57201C325.14618,175.09 326.13068,175.31027 326.94284,174.80949C327.6792,174.35545 327.73276,173.17528 328.68933,172.90266C329.44025,172.68866 330.32083,172.86667 331.2785,172.86667C332.09866,172.86667 333.05716,172.86667 333.95267,172.86667C334.81601,172.86667 335.77917,172.86667 336.60001,172.86667C337.5,172.86667 338.39999,172.86667 339.29999,172.86667C340.10001,172.86667 340.93884,172.76169 341.35718,172.21933C341.92755,171.47987 342.29999,170.86667 342.29999,170.06667C342.29999,169.15199 342.2261,168.1899 342.73599,167.46666C343.29187,166.67821 344.07388,166.35373 344.77917,165.86667C345.45227,165.40184 346.16452,164.95317 347.13333,164.86667C347.94318,164.79436 347.86642,163.78302 348.52133,163.10966C349.10696,162.50755 350.10132,162.86667 351.05716,162.86667C351.94818,162.86667 352.72809,162.86362 353.32083,162.36667C353.90814,161.8743 354.79999,161.86667 355.70001,161.86667C356.59549,161.86667 357.52182,161.86667 358.272,161.86667C359.30084,161.86667 360.01334,161.86667 361.04532,161.86667C361.91068,161.86667 362.79999,161.86667 363.70001,161.86667C364.59549,161.86667 365.57733,161.70869 366.39999,162.088C367.06824,162.3961 367.68402,163.07529 368.384,163.58267C369.09583,164.09862 370.12738,163.45605 370.94284,163.92383C371.63062,164.31836 372.29999,164.86667 373.05716,164.86667C373.95267,164.86667 374.83554,164.69336 375.77917,164.8875C376.64639,165.0659 377.39386,165.80579 378.29999,165.86667C379.09821,165.9203 379.936,165.86667 380.784,165.86667C381.64734,165.86667 382.664,165.86667 383.60001,165.86667C384.49866,165.86667 385.36832,165.96336 386.18668,165.78133C386.97861,165.60518 387.79153,165.04381 388.65332,164.90266C389.62109,164.74417 390.53247,164.96599 391.41467,164.58267C392.04306,164.30965 392.96475,163.9379 393.74283,163.64534C394.51251,163.35594 395.41162,162.91002 396.29999,162.86667C397.2149,162.82202 397.7962,162.25339 398.62134,161.98801C399.44559,161.72292 400.38248,161.51636 401.05267,161.21933C401.92261,160.83379 402.7045,160.86893 403.70001,160.86667C404.5,160.86485 405.5,160.86667 406.29999,160.86667C407.29999,160.86667 408.12134,160.86667 409.07068,160.86667C409.9425,160.86667 410.94,160.86667 411.61334,160.86667C412.79999,160.86667 413.60266,160.86667 414.46667,160.86667C415.29999,160.86667 416.2785,160.86667 417.09866,160.86667C418,160.86667 418.89999,160.86667 419.79999,160.86667C420.68933,160.86667 421.58667,160.86667 422.46667,160.86667C423.29999,160.86667 424.2785,160.86667 425.09866,160.86667C425.936,160.86667 426.95267,160.87032 427.64734,160.86667C428.66403,160.86133 429.40857,160.41692 430.29999,160.03334C431.01126,159.72726 432.02173,160.12221 432.73065,159.78133C433.67639,159.32658 434.18802,158.90814 435.13599,158.856C435.90381,158.81377 436.89368,158.49609 437.5,158.29201C438.49054,157.9586 439.29984,157.87709 440.29999,157.86667C441.12131,157.85812 441.81433,157.86667 442.9425,157.86667C443.94,157.86667 444.61334,157.86667 445.79999,157.86667C446.60266,157.86667 447.47177,157.94028 448.29999,157.84584C449.29254,157.73267 449.89758,157.21191 450.78534,156.94934C451.49448,156.73959 452.51453,156.44444 453.08932,156.01601C453.83463,155.46048 454.82312,155.037 455.21735,154.29733C455.59634,153.5862 455.81161,152.66478 456.59467,152.22833C457.41989,151.76837 458.37238,152.01437 459.2785,151.64517C459.94925,151.37189 460.52411,150.41302 461.46667,150.03334C462.1012,149.77774 462.92334,149.85312 463.89999,149.50951C464.72272,149.22005 465.48163,148.72539 466.29999,148.3875C467.28055,147.98262 468.10751,147.97766 468.81467,147.78267C469.71048,147.53566 470.46255,146.85979 471.12534,146.46666C471.8118,146.05949 472.56522,145.26987 473.5,144.952C474.3559,144.66095 475.33923,145.04311 476.10001,144.78133C476.87955,144.51309 477.42157,143.5403 478.18533,143.15199C478.90009,142.7886 479.88788,142.92119 480.664,142.43066C481.50195,141.90108 482.02698,141.11096 482.95267,140.92383C483.63553,140.7858 484.72595,141.05746 485.52151,140.64534C486.19824,140.29477 486.93765,139.92183 487.94818,139.86217C488.73346,139.81581 489.29733,139.15067 490.00534,138.86217L490.73199,138.78133" id="svg_14" stroke-width="3" stroke="#000" fill="none"/>
  <path t="38211,38252,38270,38278,38279,38284,38284,38313,38327,38334,38339,38339,38345,38353,38366,38376,38379,38387,38387,38396,38396,38402,38410,38420,38426,38434,38443,38451,38459,38460,38467,38478,38482,38482,38491,38499,38499,38513,38513,38516,38516,38531,38531,38531,38539,38539,38540,38540,38545,38555,38555,38555,38563,38563,38563,38570,38570,38582,38614,38633,38633,38633,38637,38637,38644,38644,38661,38661,38661,38677,38677,38677,38691,38691,38691,38691,38692,38694,38694,38694,38694,38700,38700,38700,38701,38701,38707,38708,38708,38715,38715,38722,38722,38722,38722,38730,38731,38731,38731,38741,38742,38748,38749,38749,38755,38755,38755,38764,38770,38780,38798,38798,38804,38804,38814,38818,38827,38834,38846,38854,38860,38860,38883,38902,38902,38902,38908,38909,38909,38921,38931,38941,38941,38948,38948,38948,38948,38957,38957,38957,38964,38964,38971,38971,38979,38979,38979,38987,38987,38994,38994,39003,39010,39010,39029,39038,39038,39043,39050,39067,39085,39086,39091,39098,39113,39128,39128,39131,39139,39139,39152,39152,39154,39162,39163,39163,39170,39179,39179,39179,39186,39186,39208,39212,39213,39221,39376,39376" d="M340.29999,170.86667C339.72534,172.46666 339.39319,173.29849 339.07849,174.188C338.83112,174.88727 338.25305,175.66559 337.73599,176.42C337.2543,177.12279 337.29999,178.06667 337.29999,178.96666C337.29999,179.86667 337.31796,180.66685 337.29999,181.56667C337.28198,182.46719 336.68188,183.177 336.38535,184.06667C336.09946,184.9243 336.29999,185.86667 336.29999,186.62384C336.29999,187.51933 336.29999,188.38266 336.29999,189.34584C336.29999,190.26666 336.26996,191.16718 336.29999,192.06534C336.32861,192.92076 337.05978,193.41597 337.27917,194.3875C337.45557,195.16861 337.29999,196.04134 337.29999,196.98134C337.29999,197.96666 337.29999,198.86667 337.29999,199.66667C337.29999,200.50267 337.29947,201.52383 337.29999,202.27116C337.30066,203.26534 337.20157,204.07642 337.58533,204.98399C337.9006,205.72955 338.51871,206.63164 338.68933,207.14934C338.97705,208.02229 339.14624,209.03197 339.216,209.74667C339.31906,210.80247 339.07101,211.55113 339.65717,212.6515C340.10925,213.5002 340.63187,213.9213 340.86401,214.66267C341.18427,215.68541 341.28079,216.63013 341.29868,217.46533C341.32001,218.46194 341.09106,219.23134 341.29999,220.22C341.4465,220.91327 342.49203,220.97993 343.12534,221.31334C343.84998,221.69482 344.466,222.58821 345.05267,223.15683C345.70645,223.79048 346.52808,223.81085 347.50015,224.08817C348.34021,224.32782 348.98459,224.66986 349.98666,225.06934C350.84103,225.40993 351.47955,225.64775 352.46667,226.2C353.19806,226.60916 353.9202,227.1149 354.67465,227.58C355.04486,227.80823 356.11151,228.44415 357.15182,228.69516C357.81073,228.85414 358.50977,228.85991 359.63333,228.86667C360.46667,228.87167 361.34,228.86667 362.21335,228.86667C363.04666,228.86667 364.13638,228.83681 364.992,228.87733C365.89807,228.92026 366.90027,229.24738 367.57199,229.44133C368.62152,229.74435 369.26828,229.80182 370.32083,229.84584C371.05136,229.8764 372.13336,229.86032 372.81332,229.868C373.75848,229.87866 374.62582,229.89703 375.616,230.15067C376.31085,230.32864 377.46286,230.73227 378.25266,230.80949C379.07208,230.88962 380.13333,230.86667 380.83835,230.86667C381.63834,230.86667 382.664,230.86667 383.60001,230.86667C384.50134,230.86667 385.46667,230.86667 386.12534,230.86667C387.13333,230.86667 387.99557,230.87738 388.89999,230.86667C389.77936,230.85625 390.3248,230.20981 391.15067,229.892C392.02744,229.5546 392.6442,229.07619 393.39999,228.64517C394.06909,228.2636 394.81183,227.51566 395.13333,226.7C395.38885,226.05176 395.39877,225.14864 395.86932,224.18533C396.26373,223.37787 396.565,222.83897 397.53833,222.03366C398.16522,221.51498 398.29999,220.66133 398.29999,219.938C398.29999,218.88116 398.29999,218.1515 398.29999,217.34584C398.29999,216.52017 398.29999,215.36667 398.29999,214.44267C398.29999,213.73466 398.29999,212.74933 398.29999,211.89734C398.29999,210.85683 398.29999,210.08133 398.29999,209.03334C398.29999,208.32384 398.27795,207.47089 398.30133,206.468C398.31918,205.70209 398.67184,204.80013 399.01599,204.06799C399.39069,203.27086 399.29999,202.214 399.29999,201.51933C399.29999,200.492 399.29999,199.54533 399.29999,198.86667C399.29999,197.75333 399.59756,196.77466 399.13333,196.03334C398.69104,195.32707 398.30533,194.68138 398.29999,193.75333C398.29498,192.88135 398.44095,191.96848 398.13333,191.03334C397.90622,190.34294 397.32861,189.56358 397.29999,188.7C397.2717,187.84631 397.29999,186.86667 397.29999,186.088C397.29999,185.10916 397.29999,184.2025 397.29999,183.34584C397.29999,182.63333 397.36972,181.50873 397.13333,180.7C396.93091,180.00749 396.4989,179.26521 396.00449,178.27567C395.65735,177.5809 395.34735,176.64389 395.29984,175.76649C395.25711,174.97789 394.87466,174.052 394.46667,173.2L394.16666,172.60001" id="svg_15" stroke-width="3" stroke="#000" fill="none"/>
  <path t="39770,39940,39958,39984,39984,40137,40137,40147,40153,40169,40169,40179,40179,40186,40196,40201,40202,40212,40213,40219,40225,40225,40235,40235,40242,40242,40242,40249,40249,40258,40265,40266,40274,40274,40281,40282,40282,40290,40291,40291,40297,40298,40298,40307,40307,40313,40314,40321,40329,40330,40338,40338,40346,40354,40354,40362,40370,40379,40395,40395,40402,40402,40412,40412,40428,40428,40429,40434,40434,40442,40449,40449,40450,40458,40458,40465,40474,40474,40474,40481,40490,40505,40506,40506,40513,40521,40529,40537,40545,40545,40553,40569,40578,40586,40595,40602,40612,40612,40620,40629,40643,40658,40666,40770,40778,40778,40786,40802,40810,40818,40819,40819,40829,40838,40842,40844,40851,40859,40876" d="M324.29999,201.86667C325.52133,200.98801 326.14728,200.46228 326.58401,199.66667C326.93979,199.01855 327.30374,198.52135 327.29999,199.22301C327.29465,200.22005 326.64465,200.80913 326.35266,201.58099C326.10406,202.23814 326.06558,203.28593 325.65268,204.15233C325.26172,204.97273 324.57385,205.55045 324,206.17117C323.47974,206.73392 322.99115,207.75125 322.5,208.29733C321.84201,209.02888 321.43787,209.59566 321.216,210.384C320.95956,211.29515 320.45712,211.90578 320.10132,212.91867C319.88507,213.53426 319.63632,214.50438 319.42133,215.60217C319.25885,216.43172 318.94751,217.17099 318.29999,217.86667C317.70428,218.50667 317.23468,219.21089 316.77917,219.86667C316.1777,220.73257 315.43512,221.20755 314.95267,221.6765C314.25906,222.35069 313.96674,223.13986 313.54733,223.86133C313.02808,224.75458 312.27109,225.33443 311.69867,225.74933C310.89093,226.33479 310.05807,226.96272 309.63333,227.7C309.17349,228.49817 309.34497,229.43712 308.85733,230.188C308.37903,230.92451 307.81119,231.82825 307.24933,232.42C306.72321,232.97409 305.49591,232.97894 305.30267,233.668C305.05948,234.5352 304.69464,235.31657 304.35718,236.16217C304.02377,236.99757 303.56757,237.60995 303.10001,238.35066C302.67395,239.02557 302.04248,239.93404 301.58533,240.58C301.06122,241.32057 300.89523,242.16589 300.59549,242.86583C300.14594,243.91556 299.48453,244.33321 298.79999,244.92917C298.03192,245.59784 298.01907,246.28401 297.70001,247.16533C297.32239,248.20839 296.71869,248.72856 296.27917,249.42917C295.71219,250.33298 295.45419,251.10977 295.15067,251.58C294.48001,252.61897 293.88998,253.18883 293.29999,254.03334C292.85864,254.66505 292.49969,255.38245 292.00449,256.1095C291.42096,256.96625 290.9025,257.53629 290.384,258.15201C289.82361,258.8175 289.45871,259.63501 289.3045,260.50949C289.15198,261.37454 288.83411,262.242 288.42133,262.96649C287.97021,263.75827 287.47772,264.40729 286.73199,264.78265C285.9458,265.17838 285.31485,265.57126 285.29999,266.46667C285.28506,267.36679 285.00998,268.2597 284.20016,268.74533C283.47037,269.18295 283.26456,270.00467 282.59549,270.50949C281.84451,271.07614 281.57425,271.64285 281.23749,272.36667C280.87909,273.13696 279.78864,273.37668 279.06668,273.58133C277.98419,273.88818 277.03336,273.95142 276.58533,274.668C276.08618,275.46634 276.26401,276.43066 275.58401,276.95065L275.13333,277.70001" id="svg_16" stroke-width="3" stroke="#000" fill="none"/>
  <path t="41446,41475,41486,41502,41510,41518,41518,41519,41525,41525,41533,41533,41533,41537,41537,41537,41548,41548,41553,41553,41564,41564,41564,41569,41585,41585,41598,41598,41602,41602,41613,41613,41618,41618,41618,41632,41632,41644,41644,41644,41654,41654,41654,41659,41659,41667,41676,41676,41676,41676,41683,41683,41683,41684,41691,41699,41699,41699,41705,41707,41716,41716,41721,41721,41722,41731,41731,41737,41737,41747,41747,41753,41763,41765,41769,41769,41781,41786,41786,41797,41797,41810,41810,41817,41826,41827,41842,41843,41849,41850,41859,41860,41866,41876,41884,41885,41892,41899,41908,41921,41932,41948,41954,41965,41971,41972,42009,42009,42025,42025,42042,42049,42058,42066,42081,42091,42091,42097,42107,42113,42136,42153,42166,42179,42195,42219,42244,42274,42281,42291,42321,42417,42425,42434,42442,42442,42450,42451,42461,42468,42470,42470,42475,42476,42476,42484,42484,42491,42492,42492,42500,42500,42507,42508,42508,42508,42515,42516,42516,42530,42532,42532,42548,42552,42553,42560,42560,42563,42563,42563,42576,42578,42578,42581,42581,42588,42588,42589,42595,42595,42596,42602,42602,42602,42602,42603,42613,42614,42618,42618,42632,42632,42632,42651,42651,42661,42661,42673,42678,42679,42682,42683,42694,42699,42699,42710,42715,42724,42724,42730,42738,42738,42750,42750,42754,42765,42765,42770,42770,42783,42783,42787,42787,42800,42801,42803,42804,42816,42817,42819,42820,42830,42830,42831,42836,42837,42844,42845,42845,42850,42851,42860,42861,42861,42875,42881,42882,42884,42884,42893,42893,42904,42904,42910,42918,42922,42929,42931,42932,42932,42938,42938,42950,42955,42956,42965,42965,42970,42970,42979,42979,42988,42989,42995,42996,42996,43004,43005,43010,43018,43018,43033,43047,43053,43059,43059,43067,43068,43076,43085,43091,43092,43099,43099,43105,43118,43123,43124,43132,43138,43153,43168,43168,43171,43172,43182,43183,43186,43186,43187,43198,43204,43204,43215,43216,43219,43227,43235,43235,43244,43244,43259,43266,43266,43277,43283,43293,43300,43310,43317,43318,43340,43357,43370,43370,43393,43408,43413,43427,43441,43454,43461,43470,43481,43483,43484,43510,43515,43515,43515,43523,43524,43530,43531,43531,43542,43544,43552,43552,43558,43558,43558,43565,43566,43566,43570,43571,43579,43580,43580,43596,43597,43603,43603,43612,43612,43613,43620,43633,43633,43659,43663,43663,43674,43675,43683,43709,43717,43728,43736,43786,43787,43798,43798,43798,43811,43821,43821,43828,43828,43848,43851,43865,43866,43866,43881,43892,43908,43917,43931,43946,43971,43980,43998,43999,44012" d="M278.29999,297.86667C280,297.86667 280.96274,298.03284 281.82083,297.84583C282.65405,297.66425 283.47598,296.88126 284.12534,296.45599C284.82642,295.99686 285.38928,295.36215 285.92532,294.69199C286.5896,293.86145 287.12732,293.46298 287.98666,293.06799C288.9628,292.61932 289.55109,292.52805 290.29016,292.1095C291.39365,291.48459 291.70227,290.82742 292.29999,290.03333C292.79736,289.37253 293.83972,288.96133 294.54001,288.90268C295.23578,288.84442 296.38199,288.90128 297.29999,288.86667C298.05878,288.83807 298.97382,288.54889 299.64734,288.16217C300.58432,287.62418 301.09314,287.15686 302.06799,286.94934C302.79108,286.79541 304.01373,286.59134 304.49017,286.15683C305.11865,285.58368 305.76257,284.71527 306.51068,284.27734C307.27853,283.82785 308.10461,283.45331 308.75717,283.16666C309.71274,282.74692 310.52451,282.49094 311.29016,282.16666C312.16919,281.79434 312.83466,281.1962 313.72134,280.892C314.60287,280.58957 315.32904,280.53571 316.12134,280.18399C316.71484,279.92053 317.90399,279.10806 318.47867,278.62668C319.03455,278.16101 319.43185,277.55203 320.63867,276.96399C321.41992,276.58331 322.18332,276.49997 322.81601,275.98001C323.63422,275.30759 323.98242,274.44809 324.62149,273.88834C325.25955,273.32944 326.30475,273.05624 327.08932,272.88135C327.81973,272.71854 328.6488,271.98428 329.05267,271.51483C329.74188,270.71375 330.49637,270.31 331.2785,269.76685C332.01724,269.25381 332.84079,268.92914 333.62134,268.64517C334.50272,268.32452 335.30127,267.79324 335.88934,267.26666C336.63013,266.60333 337.30521,266.0506 338.05716,265.814C338.95941,265.53009 339.71875,265.25714 340.53833,264.56668C341.06577,264.12234 341.33737,263.08353 342.01434,262.56668C342.65149,262.08026 343.68924,261.64755 344.27917,261.38751C345.2641,260.95337 346.08139,260.88812 346.94818,260.50949C347.61707,260.21732 348.10721,259.25909 348.65717,258.57117C349.24689,257.83353 350.07709,257.74319 350.89999,257.29199C351.68015,256.86426 352.64844,256.93753 353.27466,256.44135C353.93973,255.91438 354.34225,255.15623 354.79999,254.36667C355.20816,253.66258 355.77097,253.11839 356.59467,252.87117C357.34372,252.64636 357.17233,251.62106 357.58533,250.752C357.89276,250.10506 358.60446,249.29863 359.39999,248.98817C360.246,248.65802 360.83981,248.61993 361.46667,248.03334C362.08719,247.4527 363.10043,247.89392 364,247.86667C364.94415,247.83807 364.88882,247.03926 365.35718,246.22383C365.82358,245.41185 366.61115,245.1031 367.24734,244.51401C367.82294,243.98102 368.42902,243.40282 368.94733,242.814C369.51999,242.16342 369.84421,241.12769 370.70001,240.90266C371.56693,240.67471 372.23788,240.32094 371.68933,240.452C370.82864,240.65762 370.03439,241.40405 369.73599,242.088C369.32504,243.02994 369.50952,243.92401 369.01468,244.7C368.48917,245.52406 367.99185,245.93037 367.70001,246.66267C367.28842,247.69547 367.0098,248.41417 366.60001,249.26216C366.20911,250.07106 365.86819,250.9211 365.13333,251.7C364.69522,252.16437 363.86481,252.53732 363.18533,253.35333C362.76044,253.8636 362.30267,255.03439 361.99551,255.81934C361.78104,256.3674 361.48016,257.22504 360.81601,258.17999C360.34436,258.85815 359.74109,259.3399 359.06168,260.1095C358.42435,260.83142 358.41666,261.57834 358.26401,262.50266C358.11984,263.37564 357.63885,264.05481 357.42151,265.06668C357.2522,265.85501 357.34717,266.86929 357.27866,267.67734C357.22348,268.32816 356.88803,269.3049 356.43866,270.08133C355.97903,270.87552 355.24869,271.67548 354.84167,272.36667C354.37799,273.15411 354.33719,273.87555 354.31067,274.65201C354.26651,275.94498 354.31113,276.66428 354.24283,277.43365C354.15976,278.36938 354.01782,279.11896 353.87466,279.94266C353.72723,280.79102 353.564,281.61185 353.42133,282.702C353.28012,283.78091 353.11182,284.68997 352.79999,285.38751C352.44159,286.18927 352.32187,287.11688 352.3045,287.86133C352.2803,288.89841 352.29999,289.672 352.29999,290.63333C352.29999,291.57999 352.21484,292.53091 352.52151,293.30951C352.82874,294.08948 353.47366,294.79483 353.94284,295.56216C354.3967,296.30447 355.03094,296.72189 355.81732,296.95065C356.68829,297.20404 357.24487,298.0658 357.29999,299.03333C357.34622,299.84479 357.59167,300.68451 358.46667,301.03333C359.11853,301.29318 359.95056,301.87567 360.34818,302.56668C360.80267,303.35657 361.61267,303.79736 362.27066,303.95065C363.31177,304.19318 364.04056,304.47476 364.96667,304.70001C365.77258,304.89603 366.80231,305.11569 367.47467,305.47733C368.30359,305.92316 368.88943,306.52182 369.78534,307.06534C370.30219,307.37888 371.30032,307.69815 372.08932,307.84134C373.13379,308.03088 373.78357,308.48886 374.84268,308.74518C375.5358,308.91293 376.29544,308.82773 377.332,308.86801C378.10678,308.89813 379.06772,309.15634 379.82083,309.36667C380.61569,309.58865 381.6188,309.75336 382.48932,309.892C383.50616,310.05396 384.30939,310.4057 384.98532,310.58267C385.96933,310.84033 386.79013,310.79767 387.53067,310.95065C388.67606,311.18729 389.25644,311.64264 390.30533,311.814C391.04364,311.9346 392.15479,312.09259 392.87866,312.44135C393.69754,312.83585 394.50134,312.86667 395.46667,312.86667C396.32083,312.86667 397.29999,312.86667 398.10001,312.86667C398.89999,312.86667 399.89551,312.86667 400.64282,312.86667C401.67465,312.86667 402.62134,312.86667 403.29999,312.86667C404.27884,312.86667 405.10983,312.86667 406.06799,312.86667C406.79999,312.86667 407.97324,312.95108 408.77917,312.84583C409.63782,312.7337 410.3573,312.37875 411.29999,311.70001C411.92148,311.25253 412.38968,310.61545 413.2785,310.1095C413.95099,309.72668 414.83096,309.37631 415.49866,308.66666C416.04092,308.0903 416.29114,307.24863 416.72534,306.46667C417.18094,305.64618 417.53369,304.77527 418.00449,304.1095C418.51193,303.39188 418.83054,302.67874 419.216,301.75333C419.55621,300.93658 420.38855,300.58575 420.77917,299.82501C421.24588,298.91614 421.0072,298.04382 421.30017,297.1095C421.54153,296.33975 422.49756,295.84235 422.94284,295.16666C423.41449,294.45099 424.01868,293.85028 424.35266,293.10501C424.73889,292.24316 424.98584,291.47238 425.17883,290.66684C425.40747,289.71255 425.7308,288.87433 426.32083,288.36667C427.11752,287.68118 427.71869,287.07162 428.01334,286.35068C428.35291,285.51984 428.52832,284.54816 428.79999,283.86667C429.18851,282.89209 429.10992,282.0354 429.35718,281.16666C429.57764,280.39209 430.30292,279.70178 430.70001,279.04132C431.30444,278.03601 431.94495,277.5043 432.29999,276.70001C432.64319,275.92255 433.10019,275.21405 433.27917,274.36667C433.46521,273.48587 433.10611,272.54523 433.30133,271.668C433.48187,270.85675 434.25601,270.3017 434.29868,269.43466C434.34415,268.51062 434.29999,267.66534 434.29999,266.70001C434.29999,265.88751 434.29999,264.92801 434.29999,264.16217C434.29999,263.26666 434.40738,262.29633 433.87466,261.47733C433.40295,260.75214 433.29019,260.01019 432.68933,259.26666C432.16132,258.61328 431.27402,258.10345 430.60001,257.814C429.71503,257.43396 428.97632,256.84366 428.29468,256.57117C427.56021,256.27756 426.44006,256.00134 425.64932,255.84134C424.75415,255.66022 424.03503,255.46744 423.30533,255.16217C422.24591,254.71896 421.58224,254.11842 420.81467,253.668C420.11423,253.25696 419.10361,252.95003 418.27917,252.8875C417.61627,252.83722 416.616,252.86667 415.79999,252.86667C414.98401,252.86667 413.96777,252.98221 413.11066,252.79466C412.05914,252.56458 411.49756,252.01974 410.95715,251.51483C410.16418,250.77396 409.5733,250.13754 408.63834,249.91933C407.85257,249.73592 406.87601,249.6561 406.08533,249.44133C405.30692,249.22989 404.27347,248.90938 403.29999,248.86667C402.50076,248.8316 401.61948,248.86395 400.81601,248.29866C400.26563,247.91141 399.51114,247.0558 398.71066,246.888C397.7565,246.68797 397.40552,246.15016 396.68933,245.87733C395.85773,245.56055 395.08112,245.36247 394.19949,244.98801C393.47202,244.679 392.53485,244.65111 391.63467,244.44133C391.01105,244.29601 389.8024,244.23819 389.13333,243.53334C388.61362,242.98582 388.22656,241.992 387.41467,241.86934C386.49576,241.7305 385.53326,241.90143 384.63583,241.64534C384.00589,241.46558 383.32236,241.11348 382.11884,240.92383C381.28305,240.79213 380.46426,241.06227 379.60001,240.80949C378.72238,240.55281 378.0058,239.89526 377.07849,239.86667C376.20044,239.8396 375.29999,239.86667 374.5,239.86667L373.58533,239.952" id="svg_17" stroke-width="3" stroke="#000" fill="none"/>
  <path t="44770,44833,44858,44859,44866,44876,44891,44907,44907,44915,44924,44924,44930,44947,44955,44958,44971,44986,44996,45002,45014,45033,45044,45044,45052,45052,45069,45076,45076,45082,45092,45099,45117,45123,45131,45131,45146,45147,45160,45161,45167,45167,45180,45182,45190,45195,45195,45202,45212,45218,45234,45252,45270,45277,45283,45283,45293,45307,45307,45330,45346,45358,45358,45364,45365,45371,45386,45397,45397,45403,45404,45411,45426,45443,45460,45467,45476,45513,45521,45538,45546,45546,45553,45562,45579,45595,45612,45613,45629,45635,45635,45650,45660,45666,45683,45692,45692,45698,45699,45705,45715,45715,45715,45721,45724,45730,45730,45732,45738,45747,45747,45754,45754,45763,45771,45853,45854,45863" d="M413.29999,202.86667C411.73599,204.43066 410.97452,205.01347 410.58401,205.668C410.1452,206.40352 409.67892,207.17589 409.38535,208.06534C409.08075,208.98813 409.29999,209.75333 409.29999,210.692C409.29999,211.7 409.07001,212.32101 408.58401,212.95067C408.06406,213.62433 408.29999,214.692 408.29999,215.38266C408.29999,216.42 408.29999,217.3875 408.29999,218.26666C408.29999,219.16667 408.1268,220.09032 408.336,220.92799C408.55389,221.80051 409.09064,222.45512 409.24283,223.45767C409.34738,224.14644 409.18033,225.38596 409.86801,225.784C410.51862,226.16057 410.90079,226.90276 411.46667,227.53334C412.0661,228.20132 412.84763,228.31274 413.58533,228.78133C414.27692,229.22063 415.20999,228.89192 416.12534,229.30267C416.8382,229.62256 417.65411,230.29431 418.18399,230.66667C419.09268,231.30522 419.79108,231.69984 420.77917,231.84584C421.59146,231.96587 422.50134,231.86667 423.46667,231.86667C424.27917,231.86667 425.18988,231.94211 425.82083,232.36667C426.6456,232.92165 427.60001,232.86667 428.49866,232.86667C429.36133,232.86667 430.16135,232.86667 431.13333,232.86667C431.99551,232.86667 432.86401,232.86667 433.79999,232.86667C434.55466,232.86667 434.99756,233.35884 434.88333,232.825C434.70761,232.00375 436.39517,231.93123 436.96667,231.03334C437.41354,230.33124 437.6655,229.36333 438.39999,228.98801C439.24146,228.55803 439.96265,228.25497 440.216,227.384C440.44476,226.59763 441.11966,225.87495 441.29999,225.03334C441.48251,224.1815 441.29999,223.26666 441.29999,222.36667C441.29999,221.47734 441.29999,220.58133 441.29999,219.66667C441.29999,218.76666 441.29999,217.86667 441.29999,217.06667C441.29999,216.16667 441.31064,215.2666 441.29999,214.36667C441.28931,213.46648 440.8298,212.80347 440.15067,212.26666C439.43845,211.70369 439.01505,210.8071 438.65268,210.16667C438.18823,209.34589 437.67197,208.80241 437.216,208.06534C436.77661,207.35503 435.97708,206.76933 435.29999,206.36667C434.46472,205.86995 433.87579,205.27353 432.99551,204.91933C432.17017,204.58723 431.46005,204.43881 430.69867,204.06534C429.6947,203.57286 429.06589,203.27797 428.10016,202.5455C427.48764,202.08093 427.06766,201.3598 426.05716,200.981C425.24725,200.6774 424.40585,200.8054 423.64734,200.51401C422.77295,200.1781 421.82083,199.8875 421,199.86217L420.10001,199.58267L419.5,199.15067L418.60001,198.87117" id="svg_18" stroke-width="3" stroke="#000" fill="none"/>
  <path t="47843,47898,47906,47924,47931,47931,47947,47947,47955,47955,47964,47971,47980,47997,47997,48003,48003,48014,48019,48019,48027,48043,48051,48061,48061,48066,48076,48091,48114,48114,48125,48132,48154,48178,48187,48196,48203,48213,48213,48218,48219,48229,48235,48247,48260,48260,48276,48306,48322,48331,48339,48462,48511,48525,48525,48546,48549,48549,48559,48578,48587,48593,48602,48624,48627,48658,48700" d="M467.29999,157.86667C466.24734,159.56667 465.56137,160.23219 465.29999,161.08833C465.02405,161.99216 465.29999,162.86667 465.29999,163.84534C465.29999,164.61934 465.29999,165.51933 465.29999,166.38266C465.29999,167.34584 465.29999,168.16667 465.29999,169.06799C465.29999,170.03334 465.29999,170.86667 465.29999,171.84517C465.29999,172.56216 465.29999,173.50267 465.29999,174.35066C465.29999,175.214 465.29999,176.22 465.29999,177.08817C465.29999,177.96666 465.29999,178.86667 465.29999,179.66667C465.29999,180.56667 465.39865,181.45685 466.00449,181.9765C466.64374,182.52481 466.76544,183.49968 467.29999,184.325C467.7399,185.00424 468.77917,184.86667 469.65717,184.86667C470.60001,184.86667 471.5,184.86667 472.39999,184.86667C473.29999,184.86667 474.0701,184.88716 474.95267,185.21933C475.65891,185.48512 476.66342,185.84866 477.5,185.86667C478.39978,185.88603 479.29999,185.86667 480.10001,185.86667C481.01468,185.86667 481.92984,186.03067 482.79999,185.84584C483.64313,185.66675 484.504,185.4001 485.21466,184.86534C485.9093,184.34264 486.30157,183.91718 487.10001,183.86667C488.00543,183.80939 488.65649,183.18626 488.94284,182.51483C489.35544,181.54741 489.69553,180.91942 490.27466,180.44133C490.92902,179.90114 491.2955,179.16217 491.336,178.30267L492.01599,177.78267L492.3045,176.92383L493.13333,176.7" id="svg_19" stroke-width="3" stroke="#000" fill="none"/>
  <path t="49347,49426,49445,49445,49451,49452,49452,49452,49460,49467,49467,49479,49479,49482,49483,49483,49499,49500,49500,49508,49508,49508,49508,49508,49515,49516,49516,49525,49525,49525,49533,49533,49550,49550,49571,49572,49581,49582,49594,49604,49604,49618,49637,49707,49729,49810,49822,49832,49844,49844,49848" d="M461.29999,157.86667C460.23868,160.42 459.53223,160.7157 458.89099,161.09084C458.00125,161.61134 457.50916,162.56705 457.13599,163.16533C456.78391,163.72978 456.05536,164.64886 455.13333,165.03334C454.47653,165.30722 453.42007,165.81264 452.936,166.27733C452.2233,166.96152 451.92346,167.72491 451.41467,168.468C450.84882,169.29443 450.2475,169.89819 449.78116,170.32384C448.98334,171.05203 448.3331,171.55208 447.64932,172.092C446.95178,172.64276 446.25772,173.17035 445.34299,173.94501C444.80823,174.39789 444.15082,175.05727 443.29999,175.7C442.72333,176.13562 441.92224,176.51244 441.18533,177.06667C440.57281,177.52733 439.89075,178.27873 439.41467,178.752C438.64508,179.51709 438.16458,180.14632 437.10034,180.62384C436.37915,180.94745 435.53717,181.18816 435.07867,181.96666C434.70523,182.60071 434.134,183.29166 433.65268,183.91933C433.10614,184.63203 433.44666,185.69725 432.86401,186.29201C432.22937,186.93983 431.34818,187.21933 430.73199,187.78267L430.00534,187.91933L429.30899,188.51401" id="svg_20" stroke-width="3" stroke="#000" fill="none"/>
  <path t="50553,50588,50603,50615,50619,50627,50634,50646,50646,50652,50652,50659,50668,50668,50676,50676,50683,50693,50693,50700,50707,50714,50714,50722,50723,50730,50738,50738,50746,50754,50763,50764,50770,50779,50787,50797,50803,50813,50819,50835,50835,50846,50852,50859,50876,50876,50891,50898,50898,50913,50946,50954,50971,50994,51010,51035,51043,51059" d="M461.29999,223.86667C461.82083,221.40834 462.62418,221.1022 463.52133,220.8665C464.30191,220.66142 464.7756,219.97198 465.60001,219.51401C466.34229,219.10165 467.14172,218.7319 467.70001,218.01601C468.13397,217.45955 468.97693,216.87776 469.784,216.29866C470.33075,215.90634 471.14188,215.21802 471.88934,214.85201C472.70987,214.45021 473.22165,213.76955 473.89999,213.30267C474.72379,212.7357 475.61383,212.52425 476.29999,211.86667C476.81052,211.37741 477.49469,210.66132 478.10001,210.06667C478.70541,209.47194 479.61703,208.95615 480.27917,208.8875C481.3107,208.78053 481.91299,208.19363 482.784,207.95067C483.62595,207.71581 484.75967,207.70416 485.21466,206.95067C485.63751,206.25043 486.07825,205.74297 486.89999,205.29201C487.67999,204.86395 488.69833,205.14317 489.46667,204.7C490.19376,204.28061 490.32199,203.21606 491.15067,202.892C492.02563,202.54982 492.4256,201.83398 492.91068,201.26666C493.5491,200.51996 494.24295,199.79898 494.79999,199.3875C495.61887,198.78261 496.35379,198.42006 496.87466,197.84134C497.44876,197.20348 498.21466,196.86534 498.38535,196.06534L498.79999,195.36667L499.24283,194.56667L499.29999,193.668" id="svg_21" stroke-width="3" stroke="#000" fill="none"/>
 </g>
</svg>