<svg width="500" height="333.3333333333333" xmlns="http://www.w3.org/2000/svg" xmlns:svg="http://www.w3.org/2000/svg" xmlns:xlink="http://www.w3.org/1999/xlink">
 <!-- Created with SVG-edit - http://svg-edit.googlecode.com/ -->
 <g display="inline" class="layer">
  <title>Layer 1</title>
  <path t="0,120,136,152,168,180,188,197,204,219,229,240,256,280,289,316,332,340,351,363,377,384,394,429,452,468,472,496,540,573,580,594,607,624,640,676,692,728,736,752,768,771,795,828,839,856,872,880,888,900,908,924,940,952,962,984,993,1000,1013,1020,1036,1045,1052,1063,1071,1079,1097,1120,1148,1155,1180,1188,1191,1208,1224,1232,1251,1268,1278,1300,1312,1320,1336,1362,1368,1388,1404,1412,1432,1448,1472,1480,1491,1500,1516,1532,1548,1552,1562,1591,1613,1628,1636,1646,1662,1668,1680,1696,1704,1713,1732,1747,1779,1792,1808,1824,1832,1840,1852,1884,1908,1929,1929,1951,1968,1979,1996,2004,2019,2031,2047,2064,2087,2092,2108,2116,2139,2148,2161,2168,2184,2207,2212,2229,2245,2251,2271,2288,2296,2312,2320,2333,2348,2363,2372,2388,2392,2400,2416,2431,2448,2452,2467,2492,2513,2513,2536,2544,2568,2571,2587,2604,2620,2632,2648,2663,2671,2691,2700,2708,2724,2732,2740,2751,2762,2768,2784,2792,2800,2812,2819,2836,2845,2862,2867,2881,2896,2904,2920,2931,2932,2956,2964,2980,3008,3032,3040,3063,3075,3083,3100,3114,3128,3147,3152,3171,3180,3188,3204,3212,3228,3231,3240,3248,3255,3270,3280,3288,3292,3300,3316,3324,3332,3348,3363,3368,3384,3411,3444,3467,3480,3488,3503,3519,3529,3540,3564,3592,3608,3632,3648,3651,3667,3684,3692,3707,3712,3730,3747,3762,3768,3771,3780,3788,3803,3814,3830,3832,3848,3856,3871,3888,3899,3908,3932,3932,3947,3961,3967,3984,3992,4012,4036,4052,4080,4088,4103,4119,4130,4132,4140,4155,4163,4188,4216,4224,4231,4248,4264,4268,4292,4313,4319,4344,4363,4368,4387,4404,4413,4429,4431,4447,4455,4471,4488,4508,4516,4524,4539,4551,4565,4568,4576,4591,4608,4613,4629,4647,4652,4668,4671,4679,4697,4712,4731,4732,4740,4755,4771,4787,4808,4824,4832,4848,4848,4851,4868,4884,4892,4907,4919,4928,4935,4947,4952,4952,4961,4961,4967,4971,4971,4981,4988,4997,5004,5012,5031,5040,5047,5056,5063,5080,5088,5091,5107,5116,5132,5140,5147,5152,5168,5184,5199,5207,5211,5236,5251,5263,5268,5271,5287,5295,5303,5314,5330,5339,5347,5355,5371,5379,5387,5391,5399,5415,5424,5432,5448,5451,5467,5484,5492,5499,5511,5519,5531,5547,5552,5567,5597,5604,5630,5633,5647,5663,5691,5692,5716,5723,5731,5748,5751,5767,5775,5800,5808,5846,5868,5872,5897,5931,5988,5999,6112,6129,6145" d="M294.5,142.66667C292.85266,142.66667 291.92532,142.66667 291.07468,142.66667C290.14734,142.66667 289.2085,142.40067 288.41599,142.752C287.65067,143.09128 286.86194,143.52602 286.14734,144.01933C285.42963,144.51482 284.62131,144.64912 283.784,144.66667C282.92474,144.68468 282.54395,145.51314 281.85266,145.66667C281.02005,145.85159 280.40408,146.23073 279.66666,146.66667C278.94931,147.09076 278.19977,147.38165 277.41599,147.752C276.69653,148.09193 275.9819,148.49199 275.14734,148.66667C274.45422,148.81175 274.0752,149.64867 273.14734,149.66667C272.27881,149.68353 271.16281,149.39685 270.58533,149.95067C270.02316,150.48981 269.21399,150.12279 268.52084,150.6875C267.87439,151.21419 267.46399,151.66667 266.55716,151.66667C265.66666,151.66667 264.77164,151.2876 263.92532,151.66667C263.31375,151.9406 262.79373,152.56413 262.14734,153.01933C261.37775,153.56129 260.46899,153.32748 259.784,153.752C258.98459,154.24742 258.4462,154.7227 257.85266,155.314C257.21478,155.94945 256.42044,156.33344 255.784,156.752C254.99825,157.26878 254.53621,157.83508 253.85266,158.314C253.14943,158.8067 252.33772,159.07356 251.784,159.66533C251.28323,160.20049 250.95717,160.89227 250.27867,161.54533C249.6992,162.10307 249.10344,162.66974 248.51067,163.24133C248.02252,163.71204 247.47551,164.19675 246.92534,164.66667C246.46796,165.05734 245.87949,165.45296 245.52083,166.16667C245.1378,166.92888 244.76813,167.5426 244.5045,168.314C244.22876,169.12086 243.82014,169.50621 243.51067,170.24133C243.15161,171.09424 242.82051,171.50636 242.51067,172.24133C242.18019,173.02525 241.99832,173.79359 241.62151,174.54517C241.24222,175.30167 240.808,175.93304 240.50133,176.75067C240.1759,177.61832 240.5,178.58267 240.5,179.38266C240.5,180.314 240.66229,181.24631 240.216,181.95067C239.71561,182.7404 239.5,183.5 239.5,184.314C239.5,185.24133 239.7952,186.14174 239.4955,187.01933C239.23204,187.7908 238.50226,188.31398 238.5,189.16667C238.49756,190.092 238.56676,190.99741 238.07466,191.64133C237.57465,192.29561 237.5,193.10266 237.5,194.056C237.5,194.95067 237.80605,195.90358 237.464,196.692C237.1169,197.49208 236.5,198.092 236.5,198.95067C236.5,199.888 236.5,200.752 236.5,201.65601C236.5,202.468 236.5,203.36667 236.5,204.23067C236.5,205.16667 236.58002,206.09573 236.5,206.95067C236.41631,207.84502 235.64417,208.34537 235.5,209.16667C235.34001,210.07806 235.5,211.01933 235.5,211.888C235.5,212.75067 235.5,213.66667 235.5,214.58133C235.5,215.38266 235.16048,216.3936 235.52083,217.16667C235.87378,217.92389 236.29849,218.52533 236.5,219.314C236.7195,220.17308 237.16777,220.82115 237.52083,221.66667C237.82835,222.40314 238.27791,223.10893 238.72133,223.888C239.14946,224.6402 239.54044,225.19978 240,225.6875C240.54779,226.26883 240.36952,227.3149 240.85266,228.01933C241.34595,228.73856 241.94899,229.21193 242.41467,229.95067C242.88756,230.70084 242.10635,231.92825 242.72133,232.54517C243.28922,233.11485 243.5,233.66667 243.5,234.54533C243.5,235.38266 244.17801,235.95235 244.5,236.83333C244.79868,237.65054 245.3196,238.25706 245.5,239.092C245.68135,239.9313 245.56538,240.95815 246.216,241.38266C246.92049,241.84232 247.11113,242.41605 247.536,243.24133C247.89119,243.9313 248.64349,244.21983 249.216,244.66667C249.77325,245.10159 250.15031,245.53316 250.85266,246.01933C251.60693,246.54146 252.07466,247.24133 252.72133,247.888C253.37866,248.54533 253.96361,249.22374 254.72133,249.66684C255.418,250.07423 256.01279,250.45576 256.784,250.95067C257.5354,251.43288 258.0285,251.80809 258.55716,252.314C259.1517,252.88298 259.88715,252.98116 260.66666,253.5C261.37411,253.97089 261.87817,254.13675 262.55716,254.66217C263.2612,255.20697 263.99362,255.44708 264.85266,255.66667C265.69427,255.88181 266.28323,256.13284 266.784,256.668C267.33774,257.25977 268.14557,257.52359 268.784,257.95065C269.58331,258.48535 270.02881,259.32944 270.784,259.66666C271.46829,259.97223 271.79568,260.09366 272.5,260.67734C273.14627,261.21292 273.586,261.33856 274.44284,261.66666C275.14197,261.93436 275.93076,262.40051 276.50015,262.888C277.11014,263.41025 277.85791,263.40546 278.58401,263.75201C279.38977,264.1366 280.02817,264.55408 280.88934,264.66666C281.74301,264.77826 282.37115,265.60571 283.11066,265.66666C283.99701,265.73972 284.89999,265.66592 285.88934,265.66666C286.784,265.66733 287.24765,266.29428 288.02084,266.64584C288.81168,267.00543 289.78534,266.66666 290.69867,266.66666C291.58401,266.66666 292.47467,266.66666 293.37866,266.66666C294.216,266.66666 295.07468,266.66666 296,266.66666C296.92532,266.66666 297.784,266.66666 298.72134,266.66666C299.58401,266.66666 300.47467,266.66666 301.37866,266.66666C302.216,266.66666 303.07468,266.66666 304,266.66666C304.92532,266.66666 305.78455,266.69864 306.72134,266.66666C307.55862,266.63806 308.09039,265.84708 308.92532,265.66666C309.83615,265.46985 310.71457,265.84131 311.66666,265.66666C312.45364,265.52228 312.72134,264.66666 313.58533,264.66666C314.5,264.66666 315.37885,264.68393 316.2045,264.66666C317.06454,264.64865 317.55927,263.85983 318.44733,263.66666C319.20306,263.50226 319.71533,262.73276 320.58401,262.66666C321.47217,262.59906 321.99359,261.88617 322.85266,261.66666C323.755,261.4361 324.23456,261.23645 324.85266,260.72385C325.5025,260.18494 326.31857,260.16293 327.07468,259.66666C327.63492,259.29895 328.03461,258.57687 328.53601,258.09201C329.11206,257.53494 330.06277,257.33942 330.5,256.58133C330.93796,255.82198 331.23019,255.32945 331.784,254.752C332.32315,254.18983 332.79059,253.8837 333.41599,253.38266C334.03577,252.88611 334.46222,252.15137 334.92532,251.65601C335.47003,251.07335 335.33685,250.0865 335.784,249.38266C336.26276,248.62903 336.82428,248.20956 337.33334,247.5C337.84311,246.78943 338.17532,246.13908 338.5,245.314C338.82825,244.47983 339.09784,243.73668 339.5,243.092C339.89005,242.46674 340.30197,241.99796 340.5,241.092C340.6824,240.25751 341.16693,239.52606 341.66666,238.83333C342.17755,238.12509 342.73737,237.70325 343.216,236.95067C343.66348,236.24707 343.30487,235.15889 343.72134,234.44533C344.15762,233.69783 344.49417,233.01932 344.5,232.092C344.50534,231.24129 345.27472,230.73003 345.49551,229.96217C345.73303,229.13612 345.33649,228.08627 345.784,227.38266C346.28403,226.59647 346.09079,225.8275 346.55716,225.01933C346.95224,224.33473 347.5,223.71933 347.5,222.86534C347.5,221.952 348.19318,221.40092 348.5,220.58133C348.82068,219.72473 348.02878,218.73441 348.5,217.952C348.87784,217.32463 349.5,216.83333 349.5,215.95067C349.5,215.092 349.38742,214.1385 349.5,213.27733C349.6116,212.42349 350.35498,211.89722 350.49866,210.952C350.6279,210.10176 351.23138,209.77316 351.49551,209.01933C351.80215,208.14415 351.5,207.23067 351.5,206.36667C351.5,205.46666 351.45679,204.56563 351.5,203.66667C351.54272,202.77824 351.90384,202.0338 352.216,201.15067C352.51385,200.308 352.5,199.34534 352.5,198.492C352.5,197.55333 352.5,196.66667 352.5,195.86534C352.5,194.96666 352.5,194.02383 352.5,193.16667C352.5,192.23067 352.56113,191.32582 352.07468,190.692C351.5733,190.03876 351.42532,189.29562 350.92532,188.64133C350.43326,187.99741 350.64639,187.04358 350.5,186.1875C350.35593,185.345 349.58371,184.67841 349.5,183.78799C349.42163,182.95435 349.50491,182.01932 349.5,181.16667C349.49466,180.24129 348.72632,179.73682 348.50449,179.01933C348.23059,178.13336 348.40726,177.23332 347.92532,176.64133C347.4209,176.02171 347.59619,174.96729 347.14734,174.314C346.60916,173.53067 346.38541,172.88335 345.92532,172.10266C345.4704,171.33069 345.58499,170.32155 345.07468,169.692C344.59399,169.09901 344.11292,168.44986 343.66666,167.66667C343.22232,166.88686 342.56909,166.51668 341.85266,166.01933C341.14731,165.52968 340.36386,165.29457 339.85266,164.614C339.3382,163.92906 338.69333,163.79027 338.07468,163.24133C337.37308,162.61879 337.121,161.85745 336.53601,161.24133C336.05576,160.73552 335.62912,159.95007 334.92532,159.67734C334.06201,159.34279 333.57706,158.8539 332.92532,158.66667C332.10767,158.43178 331.48065,158.12419 331,157.64583C330.40784,157.0565 329.62955,156.71268 329,156.16667C328.28775,155.54893 327.784,154.95067 327.14734,154.314C326.47467,153.64133 325.98776,153.05406 325.49551,152.314C325.05313,151.64891 324.4061,151.10779 323.55716,150.72383C322.74411,150.35611 322.1069,149.95706 321.27866,149.66667C320.48807,149.3895 319.90961,148.84708 319.07468,148.66667C318.16824,148.47083 317.5,148.44533 317.33334,147.66667L316.46399,147.66667L315.55716,147.66667L315.41467,146.95067" id="svg_1" stroke-width="3" stroke="#000" fill="none"/>
  <path t="8312,8432,8468,8475,8484,8492,8508,8513,8519,8536,8545,8561,8571,8587,8596,8614,8620,8631,8639,8655,8664,8671,8691,8723,8740,8748,8752,8760,8760,8767,8776,8784,8792,8800,8807,8812,8845,8867,8887,8896,8904,8919,8939,8971,8980,8988,8992,9007,9016,9024,9039,9047,9051,9061,9075,9100,9152,9159,9171,9197,9219" d="M307.5,139.66667C308.5,138.092 308.60864,136.94176 307.88934,136.67734C307.05457,136.37047 306.11066,136.66667 305.21466,136.66667C304.30133,136.66667 303.35144,136.98906 302.52533,136.65601C301.7616,136.3481 301.14734,135.66667 300.216,135.66667C299.33334,135.66667 298.41794,135.35519 297.58401,135.668C296.76639,135.9747 296.02921,136.4604 295.53601,137.092C295.02112,137.75136 294.56091,138.53876 294.5,139.38266C294.4382,140.23911 294.2207,141.21527 294.50449,142.01933C294.78006,142.80019 295.94638,142.92702 296.37866,143.76666C296.71259,144.41525 297.0654,145.31465 297.79999,145.96217C298.46222,146.5459 299.1712,146.94965 299.72134,147.54533C300.30957,148.18228 300.9248,148.64867 301.85266,148.66667C302.78381,148.68474 303.73691,148.36063 304.52533,148.70267C305.32541,149.04976 305.92532,149.66667 306.784,149.66667C307.72134,149.66667 308.67014,149.70038 309.14734,148.96217C309.60486,148.25443 310.00891,147.54745 310.44284,146.71933C310.80566,146.02687 311.42886,145.45067 311.5,144.56683C311.57224,143.66933 312.28052,143.17307 312.5,142.314C312.73056,141.41165 312.5,140.5 312.5,139.64133L312.5,138.72383L312.5,137.83333L311.85266,137.66667" id="svg_2" stroke-width="3" stroke="#000" fill="none"/>
  <path t="9737,9891,9907,9916,9923,9931,9947,9955,9959,9967,9976,9984,9999,10007,10013,10019,10031,10035,10052,10060,10075,10095,10112,10119,10128,10148,10163,10171,10188,10199,10207,10256,10267,10275,10283,10299,10319,10352,10387,10403,10403,10419,10436,10455,10471,10487,10497,10515,10539,10555,10619,10643,10659,10703,10719,10747,10763,11328,11348,11355,11371,11387,11396,11399,11423,11439,11455,11459,11475,11483,11499,11507,11515,11529,11535,11551,11604,11611,11630,11639,11648,11740,11755,11759,11775,11791,11799,11807,11819,11830,11844,11859,11879,11887,11914,11929,11939,11955,11963,11979,11999,12007,12023,12048,12067,12091,12100,12115,12152,12159,12176,12187,12196,12213,12219,12248,12255,12263,12271,12281,12297,12323,12360,12375,12391,12407,12419,12435,12451,12496,12514,12535,12580,12615,12659,12707,12715,12719,12735,12745,12759,12767,12775,12787,12803,12835,12855,12871,12887,12907,12923,12939,12948,12955,12959,12967,12983,12999,13015,13043,13059,13075,13096,13119,13128,13135,13148,13164,13179,13187,13196,13199,13215,13223,13231,13248,13255,13267,13275,13299,13307,13319,13343,13352,13375,13380,13420,13428,13556,13575,13591,13607,13619,13629,13643,13651,13659,13675,13687,13697,13712,13730,13739,13755,13771,13787,13797,13799,13807,13823,13839,13848,13859,13884,13901,13908,13919,13943,14036,14039,14055,14064,14081,14099,14123,14132,14139,14155,14159,14175,14183,14192,14207,14216,14219,14243,14243,14259,14267,14275,14281,14298,14314,14319,14339,14355,14364,14380,14396,14399,14423,14448,14483,14516,14519,14535,14559,14567,14580,14597,14613,14639,14680,14696,14699,14723,14731,14747,14767,14767,14799,14815,14829,14843,14851,14859,14887,14919,14935,14939,14948,14963,14971,14980,14997,15007,15031,15059,15083,15099,15115,15143,15159,15175,15187,15198,15212,15229,15239,15255,15272,15287,15299,15323,15332,15348,15355,15359,15367,15391,15408,15419,15435,15451,15467,15528,15631,15647,15655,15667,15691,15728,15743,15767,15775,15779,15787,15797,15814,15819,15828,15839,15848,15855,15871,15871,15881,15888,15899,15907,15923,15939,15955,15975,16007,16027,16035,16059,16080,16087,16103,16114,16128,16139,16148,16164,16207,16223,16239,16255,16267,16283,16299,16315,16328,16343,16367,16375,16396,16403,16413,16428,16435,16447,16463,16471,16480,16498,16499,16507,16523,16539,16548,16559,16567,16583,16591,16615,16627,16635,16651,16659,16667,16679,16698,16712,16729,16735,16748,16755,16765,16771,16788,16798,16799,16807,16816,16832,16848,16859,16875,16900" d="M294.5,140.66667C294.5,139.01933 294.80249,138.08746 294.48932,137.27733C294.1828,136.48445 293.86523,135.85208 293.46399,135.092C293.06738,134.34067 292.52786,133.86491 292.5,132.96666C292.4707,132.02255 291.64362,131.61487 291.5,130.66667C291.36841,129.7979 291.86118,128.86575 291.46399,128.10266C291.06876,127.34333 290.50067,126.86533 290.5,125.83334C290.49948,125.01933 290.63528,124.08118 290.5,123.24133C290.35617,122.34843 289.56091,121.79458 289.5,120.95067C289.4382,120.09423 288.85846,119.49974 288.51068,118.64133C288.17621,117.81579 288.5,116.83334 288.5,116.01933C288.5,115.092 288.42532,114.29562 287.92532,113.64133C287.43326,112.99741 287.5,112.092 287.5,111.16666C287.5,110.24133 287.75293,109.29424 287.33334,108.5C286.97046,107.81308 286.5,107.092 286.5,106.24133C286.5,105.314 286.85205,104.27087 286.33334,103.66666C285.81216,103.05957 285.61719,102.43735 285.5,101.58134C285.38831,100.76547 285.0141,100.30598 284.47916,99.66666C283.9469,99.03056 284.1189,98.38664 283.5,97.72383C282.92993,97.1133 282.57422,96.84989 281.92532,96.66666C281.09641,96.4326 280.11066,96.66666 279.216,96.66666C278.33334,96.66666 277.5,96.66666 276.55716,96.66666C275.66666,96.66666 275.02292,96.46309 274.33334,95.83334C273.73468,95.28662 273.06912,95.01994 272.58533,94.38267C272.01611,93.63289 272.5,92.56683 272.5,91.692C272.5,90.788 272.49033,89.95061 272.5,89.092C272.51044,88.16649 273.18311,87.69148 273.5,87.092C273.8992,86.33682 274.49466,85.67738 274.5,84.78817C274.50497,83.96218 274.33817,83.08857 274.5,82.16666C274.64417,81.34538 275.35632,80.68416 276,80.16666C276.72525,79.58358 277.3197,79.11082 277.85266,78.66666C278.39569,78.2141 278.93085,78.01994 279.41467,77.38267C279.9838,76.63303 279.50006,75.58134 279.5,74.692C279.49991,73.788 278.76193,73.28301 278.5,72.44534C278.21786,71.54308 278.18939,71.29552 277.53601,70.66666C276.93506,70.08824 276.76193,69.28301 276.5,68.44534C276.24255,67.62198 276.28635,67.08289 275.66666,66.5C275.04132,65.91178 274.85028,65.51878 274.33334,64.83334C273.80753,64.13609 273.78864,63.31079 273.216,62.752C272.67276,62.22187 272.18634,61.90711 271.30133,61.66533C270.50357,61.44738 269.90588,60.77456 269.5,60.24133C269.11176,59.73127 268.99182,59.19629 268.41467,58.66667C267.75592,58.06217 267.32217,58.18608 266.66666,57.66667C266.12982,57.2413 265.44321,57.10489 264.784,56.58133C264.09753,56.03614 264.5,54.95067 264.5,54.01933C264.5,53.16667 264.30487,52.15889 264.72134,51.44534C265.18991,50.64248 265.87915,50.17127 266.72134,49.6665C267.4101,49.25368 267.85791,48.92788 268.58401,48.58133C269.38977,48.19676 270,47.66667 270.92532,47.66667C271.784,47.66667 272.72134,47.66667 273.58533,47.66667C274.48932,47.66667 275.37869,47.64912 276.216,47.66667C277.07526,47.68467 277.54398,48.52091 278.30133,48.66533C279.18411,48.83367 280.1994,48.57599 280.92532,49.092C281.62146,49.58684 282.47916,49.66667 283.37851,49.66667C284.216,49.66667 285.07468,49.66423 286,49.66667C286.85266,49.66892 287.37589,50.39871 288.14734,50.66217C289.02493,50.96186 289.92532,50.66593 290.85718,50.66667C291.69867,50.66734 292.24371,51.29089 293,51.64583C293.77222,52.00826 294.37921,52.38915 295.14734,52.66217C295.95111,52.94785 296.59595,53.23072 297.33334,53.66667C298.05069,54.09075 298.86642,54.46027 299.44284,55.01933C299.96811,55.52878 300.88889,55.43799 301.44284,56.01933C301.92908,56.52962 302.26724,57.14827 302.784,57.668C303.31046,58.19748 303.784,58.66667 304.66666,58.66667C305.55716,58.66667 306.44733,58.66667 307.33334,58.66667C308.14734,58.66667 309.11066,58.66667 310,58.66667C310.88934,58.66667 311.784,58.66667 312.66666,58.66667C313.55267,58.66667 314.44733,58.66667 315.33334,58.66667C316.14734,58.66667 317.07468,58.66667 318,58.66667C318.85718,58.66667 319.79999,58.66667 320.69867,58.66667C321.55267,58.66667 322.60425,59.0303 323.33334,58.5C323.98898,58.02313 324.58533,57.66667 325.51068,57.66667C326.41599,57.66667 327.24261,57.70819 327.92532,57.24133C328.69958,56.71187 329.46399,56.63067 328.85266,56.01933C328.216,55.38267 327.53058,54.80204 327,54.16667C326.43744,53.49299 326.5,52.5 326.5,51.64133C326.5,50.86533 326.14774,49.72519 326.55716,49.01933C327.02573,48.21149 327.50146,47.68321 328.07468,47.092C328.71127,46.43541 329.37866,45.78801 330,45.16667C330.66666,44.5 331.22269,43.96776 332.02084,43.64583C332.8024,43.3306 333.42419,42.5792 334.07468,42.092C334.78436,41.56046 335.2323,41.10503 335.92532,40.70267C336.72791,40.23669 337.72134,40.66667 338.58401,40.66667C339.5,40.66667 340.41599,40.66667 341.216,40.66667C342.14734,40.66667 343,40.66442 343.92532,40.66667C344.85266,40.66892 345.26111,41.34748 345.92532,41.66667C346.69928,42.03858 347.3197,42.22251 347.85266,42.66667C348.39569,43.11924 348.97714,43.16872 349.5,43.752C350.11765,44.44103 349.46542,45.51914 349,46.16667C348.45688,46.92232 347.88544,47.44249 347.5,48.01933C347.03839,48.71019 346.64383,49.34843 346.5,50.24133C346.36472,51.08117 346.72388,52.04697 346.49866,52.95067C346.31714,53.67901 345.51044,54.16649 345.5,55.092C345.49033,55.95061 345.21347,56.96021 345.55716,57.71933C345.90271,58.48257 346.54114,59.06476 347.07468,59.692C347.58295,60.28952 348.43909,60.66022 348.5,61.5C348.55887,62.31187 348.5,63.24133 348.5,64.092C348.5,65.01933 348.5,65.95067 348.5,66.83334C348.5,67.70267 348.5,68.58266 348.5,69.5C348.5,70.314 348.5,71.24133 348.5,72.092C348.5,73.01933 348.5,73.95067 348.5,74.83334C348.5,75.70267 348.5322,76.5819 348.5,77.5C348.47141,78.31551 347.9281,79.0599 347.27866,79.54517C346.5975,80.05414 345.90961,80.48627 345.07468,80.66666C344.16824,80.86251 343.216,80.66666 342.33334,80.66666C341.46399,80.66666 340.37048,80.12109 339.66666,80.66666C339.13834,81.07619 339.69186,82.05917 340.216,82.66534C340.67917,83.20097 340.5,84.16666 340.5,85.092C340.5,86.01933 340.5,86.88817 340.5,87.7665C340.5,88.66666 340.5,89.468 340.5,90.38133C340.5,91.27734 340.5,92.16666 340.5,93.056C340.5,93.952 340.5,94.86533 340.5,95.75066C340.5,96.66666 340.70084,97.50254 340.44284,98.36667C340.18646,99.22543 339.5,99.888 339.5,100.75066C339.5,101.66666 339.45807,102.54797 339,103.16666C338.44669,103.91399 338.81573,104.90217 338.47916,105.6875C338.17062,106.40741 337.05774,106.44457 336.27866,106.888C335.52646,107.31612 335.10605,107.88704 334.41599,108.38267C333.67783,108.91284 332.96967,108.81711 332.5,109.38267C332.0484,109.92649 330.94818,109.61238 330.5,110.092C330.01187,110.61436 329.74344,111.19601 329.216,111.66666C328.65683,112.16565 328.22189,112.28542 327.62149,112.888C327.05283,113.45872 326.70184,113.96983 326.5,114.83334C326.3179,115.61243 325.67642,115.9403 325.14734,116.614C324.66803,117.2243 323.87692,117.45167 323.52084,118.16666C323.10822,118.99517 323.56674,119.99741 323.07468,120.64133C322.57468,121.29562 322.42532,122.03771 321.92532,122.692C321.43326,123.33593 321.85416,124.32047 321.47916,125.16666C321.16986,125.86456 320.88171,126.59505 320.5,127.314C320.17468,127.92677 319.85162,128.45795 319.5,129.24133C319.22559,129.85269 318.53238,130.32985 318.07468,131.10266C317.61288,131.88234 317.88391,132.94128 317.27866,133.54517C316.70834,134.11421 316.82224,134.80489 316.33334,135.5C315.83093,136.21429 315.50198,136.83333 315.5,137.66667C315.49774,138.61401 314.72122,139.15387 314.5,139.952C314.25604,140.83215 313.88843,141.40387 313.53601,142.10266C313.10641,142.95448 313.5,143.95067 313.5,144.83333L313.46399,145.66667L312.55716,145.66667L311.784,145.58133" id="svg_3" stroke-width="3" stroke="#000" fill="none"/>
  <path t="17372,17447,17475,17491,17516,17535,17723,17739,17755,17791,17807,17819,17835,17859,17881,17980,17987,17999,18015,18023,18039,18107,18135,18151,18160,18167,18179,18247,18255,18271" d="M298.5,102.66666C296.85266,102.66666 295.72659,102.78275 295.5,102.16666C295.20569,101.36641 294.66666,100.11732 294.66666,100.66666C294.66666,101.55717 296.48199,100.66608 296.5,101.5C296.51758,102.31381 296.5,103.24133 296.5,104.16666C296.5,105.01933 295.95712,106.07574 295.5,105.5C294.94907,104.80611 295.5,103.71933 295.5,102.83334C295.5,102.01933 295.34424,100.69639 296,100.66666C296.61124,100.63896 296.92322,101.73785 297.33334,102.5C297.72708,103.23168 297.5,104.16666 297.07468,104.656L296.51068,104.092L296,103.66666" id="svg_4" stroke-width="3" stroke="#000" fill="none"/>
  <path t="18872,19027,19035,19043,19059,19068,19075,19087,19097,19119,19139,19155,19199,19207,19215,19223,19232,19255,19259,19268,19315,19351" d="M324.5,101.66666C322.66666,101.66666 321.88931,101.66084 320.936,101.66666C320.06393,101.672 319.36252,102.26699 318.55267,102.6095C317.73495,102.95534 317.5,103.38267 317.5,104.24133C317.5,105.16666 317.24002,106.3286 317.78534,106.66666C318.56274,107.14861 319.66327,106.98322 320.47467,106.656C321.23837,106.34801 321.72134,105.44534 322.37851,104.788L322.5,103.95067L321.92532,103.66666L321,103.66666" id="svg_5" stroke-width="3" stroke="#000" fill="none"/>
  <path t="20576,20635,20635,20639,20665,20687,20699,20715,20723,20732,20739,20748,20755,20758,20767,20783,20791,20799,20807,20818,20827,20835,20843,20843,20851,20859,20867,20867,20875,20880,20887,20897,20903,20919,20927,20935,20938,20949,20963,20982,20987,21007,21015,21039,21059,21075,21083,21100,21107,21115,21118,21127,21127,21134,21143,21151,21159,21167,21175,21187,21198,21203,21203,21210,21219,21227,21227,21235,21235,21238,21249,21249,21255,21255,21265,21265,21279,21280,21280,21287,21297,21299,21307,21323,21367,21383,21383,21391,21399,21399,21407,21407,21415,21416,21419,21427,21427,21427,21435,21435,21443,21443,21443,21451,21459,21459,21467,21467,21475,21475,21480,21480,21487,21487,21497,21503,21512,21519,21538,21565,21571,21580,21587,21623,21631,21639,21639,21648,21648,21655,21655,21658,21658,21666,21675,21675,21683,21691,21707,21718,21727,21727,21735,21735,21743,21750,21751,21759,21767,21775,21797,21811,21818,21827,21827,21835,21835,21838,21848,21848,21855,21855,21865,21871,21880,21887,21897,21931,21939,21939,21948,21954,21955,21958,21958,21967,21975,21975,21983,21991,22007,22019,22027,22035,22051,22059,22059,22067,22075,22081,22081,22087,22097,22103,22111,22127,22138,22155,22171,22187,22198,22199,22207,22223,22231,22239,22249,22258,22267,22291,22375,22395,22411,22496,22499,22506,22515,22523,22530,22539,22549,22555,22558,22567,22567,22575,22582,22591,22600,22600,22607,22615,22619,22627,22627,22635,22643,22643,22651,22659,22659,22667,22675,22681,22697,22703,22718,22727,22735,22739,22755,22771,22781,22798,22798,22799,22806,22815,22823,22823,22831,22838,22839,22848,22855,22858,22867,22875,22882,22891,22907,22927,22943,22951,22966,22981,22987,23003,23018,23027,23035,23038,23049,23055,23063,23071,23087,23095,23099,23107,23114,23123,23132,23148,23155,23166,23175,23191,23199,23206,23216,23227,23227,23234,23243,23259,23274,23286,23303,23311,23327,23327,23334,23347,23370,23395,23407,23416,23423,23439,23439,23449,23458,23474,23498,23527,23535" d="M276.5,48.66667C277.5,47.66667 277.5,46.86667 277.5,45.952C277.5,45.092 277.30438,44.0999 276.48932,43.66667C275.74814,43.27271 274.9516,42.99734 274.55716,42.3095C274.08728,41.4901 274.65933,40.36878 274.14734,39.71933C273.66281,39.10472 273.7074,38.3476 273.49985,37.44534C273.31894,36.65882 272.62296,36.13734 272.5,35.27733C272.37814,34.42506 271.66666,33.83333 271.064,33.23067C270.39999,32.56667 269.84341,31.91947 269.20001,31.37117C268.4465,30.72903 267.52783,30.4557 266.89999,30.092C266.13013,29.64603 265.12271,29.84209 264.30133,29.38267C263.51303,28.94175 262.78436,28.77287 262.07468,28.24133C261.36456,27.70948 260.73895,27.119 260.52084,26.16667C260.32227,25.29954 260.71109,24.35855 260.49985,23.44533C260.31888,22.66298 259.81512,22.16981 259.14734,21.72383C258.3714,21.20562 257.2608,21.9802 256.46399,21.63067C255.67227,21.28336 255.22151,20.37711 254.584,19.75067C253.98431,19.16139 253.15294,18.83025 252.39999,18.44533C251.6368,18.05517 250.70226,18.03192 249.936,17.63067C249.17764,17.23355 248.69867,16.66734 247.8,16.66667C246.85716,16.66597 246.24684,16.12159 245.39999,15.78817C244.55498,15.45546 243.72372,15.54024 242.89999,15.092C242.11008,14.66216 241.17867,14.66667 240.32533,14.66667C239.384,14.66667 238.61285,14.59982 237.67467,14.67733C236.65814,14.76132 236.04767,15.29482 235.17867,15.54517C234.35179,15.78338 233.384,15.66667 232.616,15.66667C231.67467,15.66667 230.64444,15.51713 229.91066,15.70267C229.0388,15.92312 228.30302,16.62395 227.40016,16.66667C226.50101,16.70921 225.56097,16.65899 225.5,17.38267C225.42836,18.23299 225.34637,19.03187 225.51067,20.03067C225.65363,20.8998 226.2753,21.53782 226.47467,22.50267C226.63112,23.25977 226.87344,24.2543 227.14734,25.0095C227.47224,25.90535 227.6458,26.84212 227.936,27.50267C228.27713,28.27909 228.79999,29.26668 229.10001,29.86667C229.59998,30.86652 229.86035,31.47932 230.3,32.18134C230.85193,33.06265 231.56766,33.80396 232.136,34.26667C232.94157,34.92252 233.70116,35.2264 234.47867,35.76667C235.14995,36.23311 235.82483,36.7608 236.5,37.16667C237.48367,37.75799 238.06995,38.27144 238.89999,38.64133C239.68231,38.98996 240.45728,39.57927 240.5,40.38267C240.54945,41.31269 240.60866,42.39158 239.88933,42.656C239.05455,42.96286 237.618,42.40445 237.5045,43.01933C237.3671,43.76378 238.81763,44.01417 239.38533,44.55333C239.99854,45.13572 240.67467,45.84134 241.33333,46.5C241.97917,47.14584 242.60001,47.76667 243.2,48.36667C243.8,48.96667 244.58748,49.59509 245.064,50.26667C245.57889,50.99233 246.32727,51.44452 246.5,52.092C246.73323,52.96626 245.49532,53.48441 244.74283,53.71933C243.84134,54.00078 243.15039,54.30731 242.25717,54.614C241.29752,54.9435 240.73138,55.51849 239.8,55.66217C238.91051,55.79939 237.72337,55.43134 237.5,56.01933C237.18166,56.85732 238.31906,57.52409 239.06934,57.952C239.67447,58.29713 240.62897,58.85053 241.1955,59.36667C241.92976,60.03561 242.66882,60.48957 243.5,60.66667C244.4812,60.87572 245.02899,61.42206 246,61.64583C246.87755,61.84806 247.55814,62.16761 248.37866,62.54517C249.14731,62.89885 249.52338,63.37363 248.93066,63.86533C248.23816,64.43981 247.20164,64.47913 246.39983,64.88817C245.67345,65.25872 245.04637,65.93011 244.15266,66.3095C243.28203,66.67911 242.37399,66.85754 241.8,67.37117C241.0759,68.01913 240.50534,68.69196 240.5,69.58266C240.49451,70.49998 240.29982,71.29859 240.5,72.23067C240.68265,73.08115 241.42461,73.75956 242.10001,74.23067C242.83359,74.74236 243.85007,74.535 244.60001,74.888C245.37553,75.25304 246.19998,75.66441 247.10001,75.66666C248,75.66891 248.88933,75.66666 249.784,75.66666C250.66667,75.66666 251.55716,75.66666 252.44733,75.66666C253.33333,75.66666 254.12929,75.66634 254.89999,75.24133C255.7202,74.78902 256.66666,74.66666 257.5,74.66666C258.41599,74.66666 259.216,74.66666 260.11066,74.66666C261.064,74.66666 261.92532,74.66666 262.85266,74.66666C263.72134,74.66666 265.47916,75.47916 265.47916,74.66666C265.47916,73.88618 263.79999,74.66666 262.89999,74.66666C262,74.66666 261.1413,74.71388 260.47467,75.24133C259.82336,75.75666 259.14966,76.1841 258.29999,76.58266C257.43958,76.98627 256.78702,77.2845 255.89999,77.692C255.08723,78.06538 254.25391,78.46665 253.5,78.83334C252.73639,79.20473 251.96793,79.60139 251.2,80.01933C250.35904,80.47702 249.46811,80.7932 248.89999,81.27734C248.15465,81.91251 247.46176,82.40058 246.7,82.75066C245.95026,83.09521 245.18864,83.7858 244.78534,84.46667C244.29538,85.29383 243.81467,86.08888 243.55716,86.96217C243.31024,87.79956 243.81012,88.84196 243.27867,89.54533C242.7941,90.18666 242.5103,90.86539 242.5,91.75066C242.48958,92.64602 241.56091,92.88138 241.5,93.71933C241.43132,94.66417 241.51799,95.46685 241.5,96.36667C241.48199,97.26721 240.91776,97.98721 240.62151,98.76683C240.33936,99.50935 240.5,100.492 240.5,101.5C240.5,102.256 240.6571,103.18237 240.48933,104.06667C240.30988,105.01258 239.58371,105.65492 239.5,106.54533C239.42271,107.36755 239.5,108.3095 239.5,109.16666C239.5,110.092 239.95671,110.71702 240.37849,111.54517C240.73175,112.23877 240.5,113.1875 240.5,114.14584C240.5,115.01933 240.5,115.952 240.5,116.76667C240.5,117.66666 240.5,118.58266 240.5,119.37117C240.5,120.26667 240.5,121.16666 240.5,122.14584C240.5,123.02383 240.5,123.86667 240.5,124.76667C240.5,125.66666 240.47601,126.58303 240.5,127.37117C240.52859,128.31079 241.41623,128.82059 241.5,129.64133C241.5918,130.54066 241.31514,131.40961 241.536,132.27733C241.75308,133.13028 242.45729,133.86215 242.5,134.71933C242.54715,135.6655 242.5,136.46666 242.5,137.36667C242.5,138.23067 242.5,139.16667 242.5,140.01933C242.5,140.95067 242.5,141.83333 242.5,142.71933C242.5,143.66667 242.5,144.46666 242.5,145.30949C242.5,146.24133 242.5,147.16667 242.5,148.01933C242.5,148.952 242.5,149.86534 242.5,150.71933C242.5,151.66667 242.5,152.46666 242.5,153.30949C242.5,154.24133 242.5,155.16667 242.5,156.01933L242.72133,156.888L243.33333,157.5" id="svg_6" stroke-width="3" stroke="#000" fill="none"/>
  <path t="24780,24895,24906,24923,24955,24966,24975,24990,24998,25006,25014,25027,25035,25050,25067,25086,25103,25110,25118,25139,25148,25155,25170,25180,25188,25199,25207,25216,25246,25254,25258,25282,25290,25306,25318,25334,25351,25367,25380,25386,25403,25411,25419,25435,25438,25449,25464,25470,25481,25487,25494,25498,25506,25515,25522,25522,25531,25539,25550,25555,25558,25566,25575,25599,25607,25618,25627,25635,25635,25642,25650,25659,25659,25674,25681,25687,25697,25697,25703,25714,25718,25726,25734,25738,25747,25755,25755,25765,25771,25787,25796,25798,25798,25806,25814,25822,25823,25831,25838,25849,25855,25855,25859,25867,25867,25875,25875,25883,25891,25898,25898,25907,25915,25918,25927,25944,25951,25951,25958,25966,25974,25980,25986,26003,26011,26011,26019,26035,26050,26055,26071,26081,26087,26087,26097,26106,26122,26133,26148,26155,26165,26167,26174,26182,26198,26206,26214,26226,26234,26243,26258,26267,26274,26280,26287,26303,26318,26334,26338,26349,26355,26371,26387,26394,26398,26407,26422,26448,26455,26466,26474,26483,26490,26506,26518,26526,26534,26551,26558,26567,26580,26587,26595,26618,26627,26635,26647,26665,26681,26686,26695,26700,26714,26722,26739,26758,26775,26782,26799,26819,26827" d="M348.5,69.66666C350.14734,69.66666 351.07468,69.66666 351.92532,69.66666C352.85266,69.66666 353.36826,70.05461 353.92532,70.63067C354.41019,71.13206 354.85916,71.71575 355.52533,72.24133C356.16159,72.74332 356.89435,72.88651 357.58401,73.38267C358.3183,73.91093 358.89136,74.40624 359.784,74.66666C360.63135,74.91386 361.46027,74.83456 362.14734,75.314C362.8515,75.80537 363.61188,76.14604 364.14734,76.71933C364.78735,77.40456 365.21335,78.02941 365.85266,78.6095C366.39545,79.10201 367.05362,79.53293 367.47916,80.16666C367.94809,80.86502 368.52829,81.54234 369.07468,82.24133C369.58447,82.8935 370.05585,83.48639 370.5,84.01933C370.95258,84.56236 371.05841,85.15273 371.66666,85.66666C372.30377,86.20502 372.98383,86.2729 373.41467,86.95067C373.91971,87.7451 373.5,88.7665 373.5,89.64133C373.5,90.54533 373.48859,91.37124 373.5,92.3095C373.51044,93.16685 374.31427,93.65474 374.49551,94.37117C374.71515,95.23933 374.5,96.16666 374.5,97.06667C374.5,97.96667 374.33725,98.92354 374.72134,99.76667C375.07669,100.54668 375.49466,101.26662 375.5,102.16666C375.50534,103.06665 375.30511,103.98835 375.50134,104.86533C375.68192,105.67238 376.48956,106.16647 376.5,107.02383C376.51141,107.9621 376.5,108.83334 376.5,109.76667C376.5,110.66666 376.5,111.46667 376.5,112.36667C376.5,113.1875 376.5,114.14933 376.5,114.95683C376.5,115.952 376.5,116.86667 376.5,117.76667C376.5,118.66666 376.5,119.46667 376.5,120.36667C376.5,121.26667 376.5,122.16666 376.5,123.06667C376.5,123.96667 376.5,124.86667 376.5,125.76667C376.5,126.66666 376.5,127.46667 376.5,128.36667C376.5,129.23067 376.5,130.10266 376.5,131.07733C376.5,131.98784 376.5,132.80533 376.5,133.71483C376.5,134.55333 376.5,135.492 376.5,136.18266C376.5,137.256 376.5,138.16667 376.5,139.07733C376.5,139.98801 376.5,140.66667 376.5,141.78133C376.5,142.66667 376.5,143.42383 376.5,144.31934C376.5,145.18266 376.55841,146.18251 376.14734,146.96666C375.70285,147.81458 375.50067,148.46666 375.5,149.36667C375.49933,150.26666 375.5025,151.16667 375.5,152.14583C375.49774,153.02385 375.11392,153.80502 374.784,154.46666C374.36343,155.31003 374.5,156.26666 374.5,157.16667C374.5,158.06667 374.61383,158.96922 374.49985,159.88817C374.38834,160.78719 373.68997,161.31891 373.51068,162.23067C373.33008,163.14914 373.5,164.02383 373.5,164.96217C373.5,165.88817 373.5,166.76666 373.5,167.66667C373.5,168.46666 373.5,169.38133 373.5,170.24133C373.5,171.1875 373.5,172.056 373.5,172.952C373.5,173.86667 373.5,174.76649 373.5,175.64133C373.5,176.468 373.16696,177.11671 372.66666,177.83333C372.16595,178.55054 372.5239,179.46828 372.5,180.5C372.48199,181.27795 371.80252,181.91519 371.5,182.83333C371.23126,183.64886 371.5,184.468 371.5,185.36667C371.5,186.30949 371.50204,187.24133 371.5,188.092C371.49774,189.01935 370.77454,189.54063 370.51068,190.27733C370.21783,191.09503 370.5,192.092 370.5,192.952C370.5,193.86534 370.32822,194.62422 369.85266,195.314C369.3678,196.01726 369.5,197.02383 369.5,197.86534C369.5,198.83333 369.67502,199.73201 369.41467,200.468C369.11249,201.32228 368.5,202.01933 368.5,202.952C368.5,203.86534 368.5,204.71933 368.5,205.614C368.5,206.468 368.5,207.30949 368.5,208.1875C368.5,209.16667 368.54752,210.05727 368.5,210.95067C368.45728,211.75407 367.64417,212.34537 367.5,213.16667C367.34003,214.07806 367.57886,215.00685 367.07468,215.64133C366.59076,216.25031 366.67102,217.22861 366.216,217.95067C365.74048,218.70523 365.50967,219.38272 365.5,220.24133C365.48956,221.16685 364.85266,221.66217 364.5,222.24133L364.064,222.66667L363.10001,222.67734" id="svg_7" stroke-width="3" stroke="#000" fill="none"/>
  <path t="27340,27435,27443,27450,27458,27467,27467,27474,27474,27482,27486,27486,27495,27495,27503,27503,27510,27518,27518,27527,27527,27535,27543,27549,27549,27549,27554,27554,27565,27571,27571,27579,27579,27579,27586,27586,27595,27595,27595,27603,27606,27617,27617,27623,27631,27649,27655,27667,27699,27714,27726,27734,27843" d="M301.5,267.66666C301.5,269.46667 301.65707,270.38641 301.47916,271.16666C301.25977,272.12869 300.65741,272.77719 300.41599,273.552C300.1185,274.50677 299.77524,275.18021 299.5,276.16666C299.27136,276.98602 298.92657,277.64133 298.62134,278.64532C298.39056,279.40436 298.11591,280.30682 297.85266,281.01401C297.48007,282.01498 297.11087,282.81198 296.784,283.552C296.39008,284.44382 296.47061,285.20816 296,286.14584C295.62616,286.89072 295.33139,287.83258 295.07468,288.50266C294.78177,289.26715 294.62915,290.27701 294.44733,291.00949C294.18301,292.07425 293.65167,292.83035 293.52533,293.50266C293.3074,294.66208 293.16248,295.27548 292.7955,296.06668C292.32617,297.07858 291.93814,297.64111 291.66666,298.66666C291.46146,299.44183 291.45981,300.20145 291,301.14584C290.59079,301.98633 290.17386,302.70331 289.784,303.46667C289.39948,304.21954 289.82391,305.29822 289.48932,306.09201C289.17953,306.827 288.5,307.16666 288.5,308.09201C288.5,309.01935 288.5,309.888 288.5,310.75067L288.51068,311.66666" id="svg_8" stroke-width="3" stroke="#000" fill="none"/>
  <path t="28075,28148,28155,28170,28182,28182,28187,28195,28203,28203,28206,28215,28215,28223,28233,28239,28239,28249,28255,28265,28265,28267,28275,28275,28283,28291,28299,28299,28307,28307,28316,28323,28331,28331,28334,28342,28350,28358,28367,28367,28374,28383,28386,28395,28395,28403,28410,28427,28435,28442,28448,28464,28470,28479,28487,28502,28516,28516,28538,28549,28565,28567,28575,28591,28599,28607,28626,28642,28651,28666,28674,28679,28694,28710,28718,28718,28735,28738,28748,28755,28771,28779,28786,28795,28799,28807,28815,28823,28831,28838,28854,28865,28867,28875,28883,28891,28899,28915,28915,28918,28926,28942,28951,28966,28975,28980,28987,28995,29011,29011,29019,29027,29035,29038,29038,29038,29049,29054,29065,29065,29071,29087,29095,29099,29107,29133,29138,29147,29158,29167,29175,29190,29206,29226,29250,29266,29278,29303,29311,29326,29326,29342,29348,29354,29364,29371,29371,29381,29387,29395,29403" d="M289.5,311.66666C291.11066,311.70267 291.74857,312.36414 292.66666,312.66666C293.45813,312.92746 294.29999,312.66666 295.20001,312.66666C296.13599,312.66666 296.99841,312.77621 297.84732,312.6095C298.77405,312.42749 299.42712,311.57733 300.10001,311.10266C300.83481,310.58429 301.62732,310.25778 302.5,309.83334C303.1597,309.51251 303.9631,309.09308 304.79999,308.71933C305.57217,308.37448 306.30035,307.86569 306.89999,307.26666C307.60025,306.56711 308.14282,305.96667 308.5,305.16666C308.85718,304.36667 309.5,303.66666 310.10001,303.06668C310.70001,302.46667 311.38898,301.94318 311.97916,301.16666C312.54004,300.42868 312.81104,299.62213 313.216,298.86667C313.62122,298.11072 313.93268,297.27115 314.41599,296.46799C314.86404,295.72342 315.81931,295.4787 316.21466,294.86533C316.73483,294.05832 317.07364,293.20358 317.44733,292.36667C317.79208,291.59451 317.98059,290.72842 318.55267,290.02383C319.05481,289.40536 319.81116,288.90308 320.44733,288.314C321.02292,287.78101 321.36298,287.01938 321.85266,286.314C322.35001,285.59756 322.59949,284.87424 323.07468,284.10266C323.51321,283.39063 323.56238,282.37057 324.216,281.95065C324.98697,281.45535 325.80194,281.27252 326.33334,280.5C326.81744,279.79623 327.0181,279.05795 327.50449,278.314C327.95059,277.63165 328.2077,276.96771 328.5,276.16666C328.72781,275.54233 329.14084,275.01096 329.52084,274.16666C329.83414,273.47055 330.45761,272.92429 330.92532,272.24133C331.45532,271.46744 331.75409,270.72357 332.14734,270.02383C332.6109,269.19901 332.51749,268.28271 333,267.66666C333.50266,267.02487 333.91187,266.34808 334.37866,265.56683C334.84607,264.78458 335.4707,264.31079 335.5,263.36667C335.52786,262.46841 335.98993,261.85574 336.47467,261.23065C337.05005,260.48868 337.20435,259.6705 337.5,258.83334C337.74564,258.13779 338.30759,257.44998 338.50015,256.56683C338.68427,255.72256 339.40091,255.22569 339.5,254.37117C339.60217,253.49011 340.30972,253.00827 340.48932,252.06667C340.65405,251.203 340.98257,250.53311 341.44284,249.71933C341.8927,248.9239 342.29269,248.42892 342.50015,247.56683C342.70233,246.7267 343.27734,246.24222 343.72134,245.44516C344.09225,244.77934 344.53177,243.95512 344.92532,243.26666C345.39163,242.45093 345.63461,241.48596 345.936,240.84134C346.26694,240.13354 347.0015,239.36357 347.41599,238.46666C347.76767,237.70566 348.30966,237.01434 348.48932,236.10266C348.65793,235.24706 348.4725,234.34753 349,233.66667C349.46225,233.07002 349.59399,232.23433 350.07468,231.64133C350.58499,231.01176 350.10641,229.95448 350.53601,229.10266C350.88843,228.40387 351.5,227.78816 351.5,226.95067C351.5,226.092 351.5,225.16667 351.5,224.314C351.5,223.38266 351.4277,222.44218 351.5,221.614C351.58365,220.65576 352.31894,220.0853 352.5,219.30949C352.71429,218.39134 352.5,217.46666 352.5,216.56667C352.5,215.66667 352.5,214.86667 352.5,213.96666L352.5,213.06667L352.5,212.16667L352.5,211.26666" id="svg_9" stroke-width="3" stroke="#000" fill="none"/>
  <path t="29883,29962,29978,29986,29998,30006,30016,30022,30032,30032,30038,30050,30054,30058,30066,30082,30106,30134,30142,30150,30166,30174,30187,30194,30194,30218,30226,30238,30250,30278,30306,30332,30354,30359,30367,30375,30383,30390,30399,30407,30417,30426,30434,30442,30458,30467,30474" d="M363.5,223.66667C363.5,223.314 362.81662,223.93115 362.50449,224.71933C362.16495,225.57666 361.88535,226.25832 361.52533,227.06667C361.17636,227.85019 360.60336,228.65616 360.50134,229.46666C360.40131,230.26126 359.99063,231.13692 359.41599,231.75067C358.8432,232.36244 358.50534,233.23062 358.5,234.16667C358.49515,235.01932 358.58499,236.01176 358.07468,236.64133C357.59399,237.23433 357.50006,238.10266 357.5,238.96217C357.49991,239.88817 357.17874,240.69804 356.784,241.38133C356.36258,242.11078 355.68039,242.66258 355.5,243.5C355.32861,244.29575 355.5,245.24133 355.5,246.16667C355.5,247.01933 355.15982,247.5878 354.52533,248.092C353.91635,248.57591 353.15643,248.73363 352.47467,249.24133C351.83386,249.71855 350.89999,249.66667 350,249.66667C349.11066,249.66667 348.21466,249.66667 347.30133,249.66667C346.44733,249.66667 345.55267,249.66667 344.7955,249.72383L343.97916,250.1875" id="svg_10" stroke-width="3" stroke="#000" fill="none"/>
  <path t="31388,31418,31434,31442,31448,31454,31454,31462,31462,31470,31478,31479,31486,31486,31495,31495,31503,31506,31517,31531,31550" d="M239.5,154.66667C239.5,156.314 239.4978,157.1875 239.5,158.06667C239.50226,158.96667 239.88216,159.81509 240.216,160.552C240.5462,161.28085 240.38161,162.19231 240.52083,163.16667C240.6649,164.175 241.18866,164.80766 241.41467,165.78267C241.58914,166.53529 241.48842,167.4921 241.5,168.18266C241.51801,169.25645 241.92534,170.056 242.49867,170.75067L242.52083,171.64583L243.41467,171.66533" id="svg_11" stroke-width="3" stroke="#000" fill="none"/>
  <path t="35283,35419,35434,35438,35448,35454,35454,35462,35470,35479,35479,35487,35494,35498,35506,35522,35567,35582,35590,35616,35626,35678,35703,35718,35738,35746,35754,35763,35778,35799,35822,35849,35858,35866,35874,35890,35978,36003,36010,36027,36035,36049,36062,36087,36094,36098,36115,36131,36147,36147,36166,36183,36215,36242,36267,36303,36318,36327,36334,36338,36347,36354,36362,36370,36370,36378,36394,36400,36406,36416,36422,36446,36454,36474,36491,36506,36517,36526,36542,36551,36574,36602,36626,36638,36648,36662,36687,36694,36722,36733,36767,36774,36790,36816,36842,36850,36858,36878,36910,36938,36962,36999,37015,37032,37046,37058,37066,37099,37116,37126,37142,37151,37174,37186,37202,37210,37226,37234,37238,37248,37248,37254" d="M285.5,95.66666C286.14734,94.6095 286.54639,93.82145 287,93.14584C287.50082,92.39993 287.81522,91.62433 288.216,90.86667C288.66531,90.01728 288.92682,89.25784 289.60001,88.56667C290.19205,87.9588 290.88489,87.42474 291.37866,86.56683C291.8031,85.82937 292.38,85.30757 292.5,84.44534C292.60977,83.65663 293.44778,83.56155 294.07468,83.092C294.78436,82.56046 295.78452,82.63644 296.66666,82.66666C297.50146,82.69527 297.13416,83.76704 297.66666,84.5C298.14322,85.15597 298.5,85.7665 298.5,86.66666C298.5,87.54517 299.216,87.66666 300.14734,87.66666C301,87.66666 301.57468,87.29562 302.07468,86.64133C302.56674,85.99741 302.77554,84.95951 303.66666,84.66666C304.47839,84.3999 305.01224,85.27927 305.50449,86.01933C305.94687,86.68442 306.49991,87.092 306.5,88.01933C306.50009,88.888 307.12692,89.40912 307.47916,90.16666C307.86938,91.00595 307.24707,92.03909 307.66666,92.83334C308.02954,93.52026 308.5,94.16666 308.5,95.092C308.5,96.01933 308.49014,96.88805 308.5,97.752C308.51044,98.66684 309.50626,98.75178 310,98.14584C310.56506,97.45237 311.17368,96.84527 311.48932,96.056C311.81976,95.22974 312.02719,94.45723 312.37851,93.56667C312.63913,92.90598 312.8707,92.23773 313.37851,91.44517C313.85693,90.69843 313.17776,89.52845 313.66666,88.83334C314.16907,88.11903 314.58533,87.58134 315.14734,87.01933C315.85266,86.31401 315.9729,85.4892 316.50015,84.78817C316.94803,84.19267 317.72675,84.24065 318.37851,83.6665C318.92334,83.18656 319.14734,82.66666 320.07468,82.66666C320.92532,82.66666 321.45221,83.0645 322,83.64584C322.45956,84.13354 322.92343,84.59293 323.47916,85.16666C323.91589,85.61755 324.16824,86.23178 324.51068,87.092C324.784,87.77863 325.5,88.092 325.5,89.01933C325.5,89.95067 325.73724,90.62903 326.216,91.38267C326.66312,92.0865 326.29614,93.25088 326.784,93.66666C327.35437,94.15278 327.13544,94.96654 327.72134,95.54517C328.29459,96.11127 328.86539,96.36092 329.58533,96.752C330.36908,97.17773 331.0675,97.86068 331.5,98.67117C331.89801,99.41704 332.44778,99.7718 333.07468,100.24133C333.78436,100.77287 334.23386,101.09742 334.72134,101.66683C335.24359,102.27682 335.5,102.952 335.5,103.86667C335.5,104.76667 335.5,105.66666 335.5,106.46667L335.5,107.3095" id="svg_12" stroke-width="3" stroke="#000" fill="none"/>
 </g>
</svg>