<svg width="500" height="333.3333333333333" xmlns="http://www.w3.org/2000/svg" xmlns:svg="http://www.w3.org/2000/svg" xmlns:xlink="http://www.w3.org/1999/xlink">
 <!-- Created with SVG-edit - http://svg-edit.googlecode.com/ -->
 <g display="inline" class="layer">
  <title>Layer 1</title>
  <path t="0,96,111,111,128,246,280,280,348,348,363,480,495,495,512,615,697,744,752,752,768,799,824,848,872,911,920,928,928,936,959,976,992,1016,1047,1048,1064,1072,1104,1112,1165,1165,1216,1298,1298,1359,1360,1415,1466,1533,1533,1582,1616,1616,1632,1688,1688,1736,1736,1776" d="M225.3,218.86667C223.54283,218.92383 222.57857,219.1136 222.00983,219.57117C221.21275,220.21245 221.3,221.22833 221.3,222.188C221.3,222.86667 220.68372,224.07133 221.3045,224.80949C221.82552,225.429 222.83101,225.35699 223.49867,226.06667C224.04092,226.64305 224.32506,227.58318 224.8,228.34584C225.27312,229.10558 225.3,229.96666 225.3,230.86667C225.3,231.66667 225.3,232.58133 225.3,233.47734C225.3,234.36667 225.3,235.26666 225.3,236.16217C225.3,237.08817 225.3,237.96666 225.3,238.86667C225.3,239.66667 225.3,240.58133 225.3,241.47734C225.3,242.36667 225.2155,243.27066 225.3,244.16217C225.3837,245.04518 226.09898,245.52716 226.28934,246.46666C226.46817,247.34929 226.64848,248.16603 227.3,248.86667C227.87102,249.48074 228.282,250.26613 228.3,251.16667C228.31796,252.06516 228.09468,253.01317 228.46666,253.86667C228.78735,254.60249 229.21889,255.3065 229.3,256.16217C229.3837,257.04517 230.0399,257.65952 230.32533,258.50266C230.60934,259.34158 230.74254,260.20511 231.5955,260.75232C232.36595,261.24658 232.94733,261.62833 233.24733,262.51483L233.384,263.29733L234.0045,263.91483" id="svg_1" stroke-width="3" stroke="#000" fill="none"/>
  <path t="3220,3422,3498,3514,3644,3683,3744,3744,3784,3808,3808,3848,3848,3912,3936,3952,3984,4008,4040,4040,4064,4128,4160,4160,4176,4192,4232,4232,4287,4287,4303,4320,4328,4336,4384,4416,4466,4466,4512,4520,4576,4584,4608,4624,4648,4657,4657,4856,5220,5264,5273" d="M222.3,219.86667C222.58533,218.952 223.39983,218.86667 224.32533,218.86667C225.24733,218.86667 225.94064,218.99316 226.46666,219.86667C226.82576,220.463 227.75792,221.04716 228.13333,221.86667C228.47356,222.60936 228.3,223.56667 228.3,224.43066C228.3,225.3875 228.20454,226.3112 228.584,227.06667C229.01958,227.93387 229.3,228.7 229.3,229.57651C229.3,230.384 229.18156,231.41788 229.65717,232.16667C230.16672,232.96892 230.97391,233.28198 231.24283,234.16667C231.50513,235.02959 231.5498,235.94464 232.01601,236.58133C232.62228,237.40929 233.00009,238.0153 233.21466,238.98134C233.42908,239.94667 233.1245,240.87894 233.38533,241.668C233.64032,242.43941 234.13094,243.21928 234.584,244.06667C234.9326,244.71867 235.11403,245.59352 235.336,246.46666C235.55521,247.32895 236.00589,248.23842 236.65266,248.80949C237.18097,249.27597 237.3,249.96666 237.3,250.86667C237.3,251.66667 237.38533,252.58133 238.25183,252.86667L239.15067,252.87733L239.96666,253.03334" id="svg_2" stroke-width="3" stroke="#000" fill="none"/>
  <path t="6056,6177,6209,6216,6232,6248,6264,6264,6280,6380,6396,6464,6495,6543,6543,6614,6648,6648,6672,6672,6681,6688,6712,6728,6736,6760,6776,6792,6808,6832,6895,6896,6928,6928,6936,6960,7007,7040,7088,7120,7136,7160,7176,7192,7216,7216,7248,7304,7312,7352,7360,7360,7384,7463,7463,7504,7675,7691,7843,7990,8032,8096,8104,8181,8231,8231,8231,8287,8312,8312,8328,8344,8375,8384,8384,8416,8637,8680,8681,8728,8736,8792,8832,8849,9081,9136,9160,9231,9264,9363,9363,9400,9424,9440,9609,9727,9766,9782,9782,9782,9800,9816,9832,9848,9997,10081,10147,10184,10184,10232,10439,10439,10454,10480,10496,10504,10520,10520,10536,10599,10726,10765,10781,10847,10863,10880,10912,10996,11048,11080,11104,11120,11144,11168,11208,11232,11256,11272,11312,11365,11381,11431,11471,11488,11488,11504,11597,11597,11649,11680,11720,11738,11814,11830,11830,11871,11888,11912,11943,11983,11984,12023,12080,12081" d="M235.3,260.86667C235.3,262.56668 235.30528,263.56671 235.3,264.43066C235.29466,265.30273 234.79948,266.08545 234.46666,266.86667C234.14647,267.61819 234.3,268.58133 234.3,269.47733C234.3,270.36667 234.38452,271.27066 234.3,272.16217C234.21629,273.04517 233.55678,273.535 232.89999,274.27734C232.26047,275.00018 232.065,275.82574 231.3,276.53333C230.75124,277.04089 230.67081,277.78534 230.21466,278.58133C229.82809,279.25589 229.92883,280.13824 229.24283,280.85767C228.72517,281.40054 227.55878,281.41028 227.336,282.26666C227.10924,283.13837 227.35707,284.06702 227.3,285.03333C227.25726,285.75711 226.8378,286.67761 226.584,287.38266C226.25066,288.30872 225.48433,288.7822 225.3,289.38751C225.0439,290.22855 225.47548,291.24399 225.01601,292.06534C224.57498,292.8537 223.87346,293.30704 223.10133,293.78265C222.36145,294.23843 221.94058,295.01901 221.584,295.66666C221.10849,296.53033 220.50525,296.91248 220.21466,297.668C219.91911,298.4364 219.17638,299.1705 218.5,299.58133C217.72386,300.05273 217.68909,300.88745 217.21466,301.58267C216.76091,302.24762 215.55887,302.41028 215.336,303.26666C215.11028,304.134 215.53378,304.72046 216.39983,304.86682C217.25186,305.01083 217.74551,305.73697 218.60001,305.87115C219.41882,305.99976 220.06831,306.70825 220.94284,306.86215C221.82841,307.01801 222.77682,307.1683 223.47467,307.44135C224.40439,307.80508 225.28534,307.86667 226.16133,307.86667C227.13333,307.86667 227.88933,307.86667 228.77916,307.86667C229.73599,307.86667 230.60001,307.86667 231.5,307.86667C232.39983,307.86667 233.3,307.86667 234.10133,307.86667C235,307.86667 235.98376,308.22095 236.77916,307.84583C237.4845,307.51318 237.19939,306.30069 237.72533,305.47733C238.1962,304.74017 238.14734,303.83691 238.35716,303.16666C238.63339,302.28424 239.34706,301.46622 240.13333,301.03333C240.79895,300.66687 241.8,300.86423 242.73599,300.86667C243.60002,300.86893 244.53865,300.9697 245.01466,301.668C245.52544,302.4173 246.08896,302.97217 246.8,303.36667C247.68541,303.85791 248.5955,303.86667 249.46666,303.86667C250.39999,303.86667 251.3,303.86667 252.10001,303.86667C252.94284,303.86667 254.07458,303.92056 254.2955,303.16217C254.54594,302.3024 254.3,301.38751 254.3,300.50949C254.3,299.56216 254.3,298.70001 254.3,297.88751C254.3,296.88751 254.3,296.06534 254.3,295.16666C254.3,294.26666 254.3,293.38751 254.3,292.50949C254.3,291.56668 254.3,290.66666 254.3,289.76685C254.3,288.892 254.3,288.06534 254.3,287.16666C254.3,286.26666 254.3,285.38751 254.3,284.50949C254.3,283.56668 254.3,282.66666 254.3,281.76685C254.3,280.892 254.3,280.06534 254.3,279.16666C254.3,278.26666 254.29791,277.38751 254.3,276.50949C254.30226,275.56668 254.62958,274.83176 255.01601,274.06668C255.41634,273.27408 255.61206,272.30981 255.87466,271.68134C256.2562,270.76828 256.0423,269.64072 256.52133,268.98801C257.03207,268.29205 257.11746,267.57755 257.52151,266.76666C257.86502,266.07727 258.60388,265.29715 259.39984,264.98816C260.27002,264.65036 261.05026,264.58475 261.46667,263.86667C261.88712,263.14163 262.86401,262.84134 263.35266,262.21933L264.10132,261.78265" id="svg_3" stroke-width="3" stroke="#000" fill="none"/>
  <path t="13113,13352,13430,13430,13445,13504,13595,13647,13688,13728,13736,13768,13925,13925,13976,13976,14016,14072,14088,14112,14165,14247,14247,14314,14330,14399,14544" d="M260.29999,266.86667C260.29999,265.03333 260.29999,264.25601 260.29999,263.26666C260.29999,262.46667 260.31067,261.47733 260.79999,260.86667C261.28934,260.25601 261.29773,259.36667 261.29999,258.46667C261.30225,257.57117 261.97366,257.12457 262.29999,256.50949C262.74185,255.67661 262.60687,254.81985 263.01599,254.06667C263.44922,253.26915 264.1405,252.98724 264.77917,252.34584C265.4162,251.70609 265.11752,250.57759 265.52133,249.76683C265.87314,249.06047 266.87466,248.83067 267.35266,248.16217L267.72534,247.46666L268.21466,246.66667" id="svg_4" stroke-width="3" stroke="#000" fill="none"/>
  <path t="18147,18245,18298,18344,18398,18414,18465,18516,18583,18649,18649,18714,18714,18889,18943,18984,19008,19016,19071,19072,19088,19112,19136,19197,19232,19264,19296,19344,19368,19384,19408,19440,19452,19514,19576,19576,19608,19680,19728,19797,19813,19864,19912,19944,19999,20040,20072,20104,20149,20164,20208,20248,20256,20288,20288,20296,20320,20360,20368,20385,20408,20416,20481,20497,20520,20580,20631,20682,20682,20735,20736,20767,20799,20807,20839,20863,20903,20927,20959,20959,20967,20975,20999,21008,21055,21071,21111,21143,21144,21152,21169,21207,21231,21255,21345,21381,21432,21432,21472,21480,21520,21528,21544,21560,21576,21584,21592,21592,21601,21616,21624,21632,21640,21656,21672,21688,21688,21696,21704,21720,21744,21814,21856,21978,21978,21994,22024,22095,22095,22144,22176,22192,22224,22240,22256,22272,22296,22312,22328,22344,22344,22360,22384,22392,22408,22408,22448,22623,22656,22777,22895,22962,23014,23048,23088,23088,23151,23338,23375,23376,23393,23447,23529,23674,23690,23712,23744,23797,23910,23996,23996,24032,24056,24072,24120,24128,24144,24192,24192,24294,24310,24328,24368,24408,24447,24447,24447,24463,24504,24527,24544,24544,24560,24576,24592,24600,24616,24648,24696,24763,24862,24904,24944" d="M269.29999,248.86667C269.29999,247.06667 269.29999,246.16667 269.29999,245.30267C269.29999,244.43066 269.29999,243.56667 269.29999,242.66667C269.29999,241.668 269.00281,240.66798 269.52133,239.98801C270.00943,239.34792 270.62958,238.83176 271.01599,238.06667C271.41632,237.27405 271.29999,236.256 271.29999,235.36667C271.29999,234.46666 271.07355,233.49509 271.46667,232.7C271.78638,232.05341 272.29465,231.26671 272.29999,230.36667C272.3053,229.46667 272.29999,228.56667 272.29999,227.66667C272.29999,226.76666 271.87915,225.64737 272.46667,225.03334C273.05243,224.42117 273.1044,224.03094 273.35718,223.16667C273.61386,222.28906 274.24002,221.56602 274.72534,220.88133C275.23962,220.15579 275.49893,219.51608 275.94733,218.76134C276.43851,217.93457 276.64822,217.1086 277.24734,216.51401C277.80286,215.96271 278.74454,215.96213 279.5,215.58267C280.36719,215.14709 281.13333,214.86667 281.91068,214.86667C282.79999,214.86667 283.81494,214.66464 284.59549,215.22383C285.27686,215.71196 285.74979,216.41193 286.21466,217.15199C286.70337,217.93001 286.53497,218.82439 286.94733,219.56667C287.4053,220.39108 288.10931,220.79437 288.29999,221.47734C288.5336,222.31409 289.07489,222.80325 289.2955,223.57117C289.5546,224.47304 289.29999,225.3875 289.29999,226.26666C289.29999,227.16667 289.29999,228.06534 289.29999,229.03334C289.29999,229.86667 289.3067,230.6422 289.65268,231.51483C289.97064,232.31683 290.29733,233.22488 290.79999,233.86667C291.2825,234.48274 291.29999,235.36667 291.29999,236.256C291.29999,237.15199 291.20099,238.09067 291.46667,239.03334C291.65594,239.7049 292.26056,240.34691 292.87466,240.90266C293.46036,241.43272 293.29999,242.46666 293.29999,243.36667C293.29999,244.256 293.16232,245.20299 293.52133,245.96666C293.88602,246.74236 294.29773,247.56665 294.29999,248.43066C294.30225,249.30267 294.29999,250.26666 294.29999,251.16667C294.29999,252.06534 294.29999,252.91933 294.29999,253.86667C294.29999,254.66667 294.29999,255.56667 294.29999,256.43066C294.29999,257.30267 294.29999,258.26666 294.29999,259.16666C294.29999,260.06534 294.29999,260.88751 294.29999,261.728C294.29999,262.70001 294.29999,263.56216 294.29999,264.43066C294.29999,265.30267 294.29999,266.26666 294.29999,267.16666C294.29999,268.06534 294.29999,268.88751 294.29999,269.728C294.29999,270.70001 294.29999,271.56216 294.29999,272.46667C294.29999,273.36667 294.29999,274.26666 294.29999,275.16666C294.29999,276.06534 294.29999,276.91934 294.29999,277.86667C294.29999,278.66666 294.29999,279.56668 294.29999,280.43066C294.29999,281.30267 294.29999,282.26666 294.29999,283.16666C294.29999,284.06534 294.59689,285.06512 294.07867,285.74533C293.59155,286.3847 293.29999,287.06668 293.29999,287.96649C293.29999,288.86667 293.2861,289.71799 292.77917,290.36667C292.17917,291.13446 291.6521,291.69464 291.24734,292.56668C290.86145,293.39807 290.46359,294.21371 290.07867,294.96667C289.68854,295.72986 289.30225,296.50949 289.29999,297.38751C289.29773,298.26666 289.20572,299.17163 289.29999,300.06534C289.3858,300.87881 290.49796,301.16245 291.19016,300.50949C291.78183,299.95135 291.96347,299.12335 292.68933,298.47733C293.42773,297.82013 294.30084,297.90387 295.10001,297.86667C296.01767,297.82394 296.59833,297.20197 297.35266,296.80951C298.0278,296.45825 298.90851,296.04657 299.59549,295.50949C300.33939,294.92789 300.72229,294.21716 301.21466,293.58267C301.7774,292.85748 302.10986,292.20831 302.28934,291.26666C302.45786,290.38251 302.29999,289.47733 302.29999,288.58133C302.29999,287.66666 302.34778,286.76538 302.29999,285.86667C302.25726,285.06329 301.55307,284.3295 301.336,283.46667C301.11624,282.59317 301.29999,281.668 301.29999,280.814C301.29999,279.86667 301.28125,279.0665 301.29999,278.16666C301.31799,277.30212 302.10019,276.94324 302.79999,276.32501C303.39981,275.79507 303.67291,274.77399 304.29999,274.20001C305.01688,273.54385 305.59946,273.19543 306.384,272.78134C307.12439,272.39056 307.9086,272.04666 308.59549,271.50949C309.33932,270.92776 309.29999,269.86667 309.30017,268.98816L310.01599,268.78134" id="svg_5" stroke-width="3" stroke="#000" fill="none"/>
  <path t="28164,28230,28246,28265,28295,28295,28312,28328,28328,28351,28360,28376,28392,28415,28424,28455,28511,28535,28567,28591,28607,28632,28663,28681,28688,28704,28711,28727,28743,28751,28767,28783,28792,28815,28839,28871,28879,28879,28927,28943,28983,28999,29032,29049,29064,29081,29097,29104,29120,29136,29151,29167,29175,29191,29215,29231,29239,29247,29287,29303,29319,29343,29359,29375,29383,29391,29399,29415,29432,29439,29455,29479,29503,29527,29543,29598,29613,29640,29648,29664,29688,29704,29720,29736,29752,29776,29800,29824,29832,29848,29865,29880,29896,29936,29984,30000,30024,30032,30040,30056,30065,30080,30104,30128,30152,30168,30184,30208,30224,30264,30296,30312,30352,30352,30360,30360,30376,30376,30384,30384,30392,30392,30400,30424,30424,30440,30464,30488,30781,30781,30797,30797" d="M313.29999,124.86667C312.34167,125.86667 312.79691,126.63741 313.27917,127.36667C313.74454,128.07037 314.1218,128.73158 314.26401,129.692C314.41174,130.68976 314.21915,131.52431 314.72534,132.256C315.24478,133.00681 315.79407,133.66135 316.29999,134.34584C316.81403,135.04132 317.29773,135.57115 317.29999,136.50951C317.30209,137.3875 317.20599,138.31375 317.65268,139.16667C318.04663,139.91888 318.75034,140.41159 319.21466,141.15199C319.70273,141.93025 319.29999,142.96666 319.29999,143.86667C319.29999,144.7 319.29999,145.47734 319.29999,146.46666C319.29999,147.36667 319.31067,148.256 319.79999,148.86667C320.28934,149.47734 320.29999,150.36667 320.29999,151.26666C320.29999,152.16217 320.14203,153.14398 320.52133,153.96666C320.82944,154.6349 321.29465,155.46661 321.29999,156.34584C321.3053,157.22382 321.29999,158.16667 321.29999,159.06667C321.29999,159.96651 321.29999,160.84134 321.29999,161.668C321.29999,162.56667 321.29999,163.46666 321.29999,164.34584C321.29999,165.22383 321.29999,166.16667 321.29999,167.06667C321.29999,167.96651 321.29999,168.84134 321.29999,169.668C321.29999,170.56667 321.29999,171.46666 321.29999,172.34584C321.29999,173.22383 321.29999,174.16667 321.29999,175.06667C321.29999,175.96651 321.29999,176.84134 321.29999,177.668C321.29999,178.56667 321.29999,179.46666 321.29999,180.34584C321.29999,181.22383 321.29999,182.16667 321.29999,183.06667C321.29999,183.96651 321.29999,184.84134 321.29999,185.668C321.29999,186.56667 321.29999,187.46666 321.29999,188.36667C321.29999,189.26666 321.29999,190.16667 321.29999,191.06667C321.29999,191.96651 321.29999,192.84134 321.29999,193.668C321.29999,194.56667 321.29999,195.46666 321.29999,196.34584C321.29999,197.22383 321.29999,198.16667 321.29999,199.06667C321.29999,199.96651 321.29999,200.84134 321.29999,201.668C321.29999,202.56667 321.29999,203.46666 321.29999,204.34584C321.29999,205.22383 321.29999,206.16667 321.29999,207.06667C321.29999,207.96651 321.29999,208.84134 321.29999,209.668C321.29999,210.56667 321.29999,211.46666 321.29999,212.34584C321.29999,213.22383 321.29999,214.16667 321.29999,215.06667C321.29999,215.96651 321.29999,216.84134 321.29999,217.62833C321.29999,218.51483 321.38211,219.5374 321.29999,220.36667C321.21625,221.21236 320.72354,221.88509 320.46667,222.86667C320.26367,223.64244 320.1745,224.72356 319.77917,225.36667C319.2529,226.22276 318.75623,226.84207 318.46667,227.7C318.18219,228.54292 317.72647,229.21761 317.42151,230.188C317.21582,230.84253 317.54947,232.10307 317.07867,232.74533C316.56683,233.44357 316.29999,234.06667 316.29984,234.96651L316.01468,235.78133L315.10132,235.86534" id="svg_6" stroke-width="3" stroke="#000" fill="none"/>
  <path t="31445,31529,31560,31584,31600,31608,31616,31664,31680,31697,31712,31728,31752,31784,31784,31808,31816,31864,31888,31904,31944,31960,31976,32008,32024,32032,32064,32088,32097,32112,32128,32152,32168,32184,32224,32232,32264,32304,32312,32344,32384,32400,32408,32440,32456,32480,32504,32520,32544,32544,32592,32608,32726,32742,32760,32769" d="M317.29999,230.86667C317.13333,232.7 316.21964,232.78763 315.72534,233.47734C315.21265,234.19272 315.4949,235.18835 315.29868,236.06534C315.1181,236.87239 314.31799,237.30211 314.29999,238.16667C314.28125,239.06647 314.49432,239.99174 314.27917,240.8875C314.10059,241.6311 313.4649,242.35912 313.32083,243.34584C313.1893,244.24669 313.29999,245.15199 313.29999,246.06667C313.29999,246.96666 313.29999,247.86667 313.29999,248.7C313.29999,249.57117 313.29999,250.46666 313.29999,251.36667C313.29999,252.256 313.29999,253.15199 313.29999,254.06667C313.29999,254.96666 313.55771,255.90752 313.29999,256.70001C313.03711,257.50842 312.32858,258.16528 312.29999,259.06668C312.27145,259.96603 312.47549,260.87894 312.21466,261.668C311.95966,262.43942 311.45361,263.27921 311.29999,264.16217C311.1734,264.88983 310.32861,265.22238 310.29999,266.06668C310.2695,266.96616 310.6218,268.00458 310.13333,268.70001C309.63101,269.41519 309.45352,270.11514 309.13333,270.86667C308.80051,271.64786 308.29694,272.46469 307.65268,272.86215C306.88824,273.33374 306.10132,273.78 305.35718,273.50949L305.29868,272.66534" id="svg_7" stroke-width="3" stroke="#000" fill="none"/>
  <path t="45653,45822,45880,45912,45928,45960,45968,46008,46056,46080,46088,46178,46216,46279,46328,46360,46384,46384,46393,46440,46440,46464,46488,46488,46504,46544,46552,46568,46584,46584,46593,46624,46680,46720,46780,46847,46847,46847,46880,46912,46928,46952,46992,47000,47016,47025,47072,47240,47288,47328,47352,47352,47360,47368,47377,47393,47409,47432,47456,47512,47626,47626,47680,47712,47712,47735,47760,47760,47776,47792,47792,47808,47831,47847,47871,47871,47887,47911,47928,47980,48016,48024,48064,48096,48104,48152,48177,48200,48256,48264,48312,48346,48363,48384,48416,48440,48450,48504,48552,48608,48624,48696,48779,48824,48824,48871,48888,48896,48896,48904,48944,48976,48976,49016,49024,49064,49088,49088,49096,49120,49175,49200,49200,49224,49248,49248,49296,49347,49347,49362,49362,49400,49424,49448,49448,49456,49480,49480,49520,49536,49536,49544,49576,49631,49664,49688,49736,49736,49760,49776,49800,49824,49840,49848,49872,49880,49896,49913,49913,49952,49952,49968,49976,49992,50032,50049,50056,50056,50072,50104,50128,50152,50176,50176,50208,50216,50235,50249,50249,50272,50288,50336,50344,50352,50384,50430,50446,50472,50496,50513,50536,50568,50568,50576,50646,50743,50776,50776,50808,50910,50946,51029,51029,51029,51072,51088,51088,51096,51247,51280,51288,51297,51297,51520,51535,51552,51560,51560" d="M299.29999,110.86667C300.384,109.152 301.24298,108.88197 302.00449,108.86667C302.90054,108.84866 303.69446,108.43215 304.49866,107.95067C305.24228,107.50546 305.72607,106.7891 306.32535,106.292C306.94028,105.78191 307.96686,105.94399 308.68933,105.44133C309.43878,104.91991 309.95578,104.29806 310.59549,103.56667C311.17667,102.9022 310.80661,101.86557 311.38535,101.152C311.98886,100.40787 313.05609,100.70879 313.29999,99.84583C313.56732,98.89998 313.72025,98.18538 314.29999,97.3875C314.76602,96.74612 315.30551,96.13325 315.82083,95.34583C316.2612,94.67296 316.91968,93.94577 317.21466,93.036C317.45813,92.2851 317.91803,91.5563 318.21466,90.66666C318.50058,89.80919 318.73965,89.1705 319.17868,88.424C319.61951,87.67444 319.70706,86.79819 320.35266,86.21933C320.94394,85.68917 320.95007,84.73919 321.46667,84.03333C321.94556,83.37899 322.78857,83.05466 323.27466,82.43066C323.85278,81.68849 324.60025,81.41203 325.1785,80.64516C325.71243,79.93706 325.14349,78.83571 325.35718,78.16666C325.63303,77.30296 326.6391,76.97594 327.27466,76.44133C327.92401,75.89513 328.63,75.41502 329.13333,74.7C329.6225,74.00507 329.57346,73.10138 330.29999,72.7C331.07266,72.27312 331.6109,71.57739 332.29999,70.86667C332.8732,70.27545 333.07162,69.39109 333.52151,68.64516C333.94501,67.94301 334.71762,67.48384 335.39984,66.76667C335.95758,66.18034 336.43048,65.41277 336.94733,64.814C337.48099,64.19578 337.55127,63.14869 338.00449,62.5765C338.64819,61.7638 339.30911,61.26805 340.00449,60.814C340.76239,60.31913 341.07687,59.54015 341.30133,58.668C341.50745,57.86709 342.10648,57.19528 342.82083,56.8875C343.72028,56.49997 344.68933,56.86667 345.58533,56.86667C346.5,56.86667 347.39999,56.86667 348.29999,56.86667C349.13333,56.86667 349.91074,56.87812 350.89999,56.86667C351.80017,56.85625 352.45578,56.30675 353.24734,55.92383C354.02673,55.54681 354.72238,55.18052 355.60001,54.92383C356.46426,54.67106 357.4404,54.67326 358.29999,54.90833C359.12631,55.13432 359.28931,56.01584 359.29999,57.08817C359.30872,57.96663 359.29999,58.86667 359.29999,59.66667C359.29999,60.58133 359.29999,61.40833 359.29999,62.35067C359.29999,63.214 359.50626,64.13231 359.29868,65.06533C359.11816,65.87658 358.55356,66.48832 358.24734,67.16133C357.84979,68.03503 357.3465,68.73656 356.86401,69.30267C356.25488,70.01734 355.60001,70.56667 354.89999,71.26667C354.29999,71.86667 353.74283,72.43454 353.29099,73.22383C352.86362,73.97038 352.08231,74.41869 351.3215,74.96667C350.68097,75.42802 350.17355,76.40118 349.38266,76.78133C348.66382,77.12685 347.71078,76.8133 346.936,77.30267C346.09811,77.83188 345.71359,78.5712 344.94284,79.21933C344.24622,79.80514 343.51923,79.98351 342.70001,80.44133C341.92755,80.87302 341.3537,81.41557 340.87466,82.26667C340.46561,82.99344 340.17676,83.90155 339.65268,84.5095C339.06207,85.19461 338.71417,86.01578 338.13333,86.7C337.56772,87.36625 337.58142,88.12785 337.26401,88.892C336.95886,89.62662 336.31442,90.36137 335.68933,90.928C335.11426,91.4493 334.73032,92.20969 334.13333,93.03333C333.64072,93.71296 333.70316,94.57124 333.26401,95.43066C332.9079,96.12759 331.95712,96.47945 331.42133,97.08817C330.79828,97.79598 330.68457,98.58073 330.27466,99.46667C329.90308,100.26977 329.63257,101.13365 329.07849,101.74533C328.4455,102.44413 327.50378,102.52608 327.31067,103.46667C327.13373,104.32842 326.59146,104.83768 326.00449,105.572C325.57736,106.10634 325.46796,107.21799 325.07867,107.9665C324.63791,108.81402 324.13196,109.30139 323.58401,109.95067C323.06403,110.5668 322.634,111.33958 321.91068,111.84133C321.26166,112.29153 321.07513,113.23991 320.29999,113.7C319.47394,114.19028 319.26456,115.00466 318.59549,115.5095C317.84451,116.07613 317.05783,116.30553 316.46667,117.03333C315.90082,117.73002 315.55151,118.40345 315.336,119.26667C315.09619,120.22717 315.29999,121.152 315.29999,121.96667C315.29999,122.86667 315.29999,123.66666 315.29999,124.7C315.29999,125.5765 315.29999,126.384 315.29999,127.34583C315.29999,128.256 315.29999,129.15199 315.29999,129.96666C315.29999,130.86667 315.9722,131.91522 315.29999,132.7C314.83618,133.24147 313.82083,132.325 313.42117,131.54533L313.23868,130.692" id="svg_10" stroke-width="3" stroke="#000" fill="none"/>
  <path t="52080,52161,52161,52177,52177,52200,52208,52208,52219,52224,52224,52232,52240,52241,52328,52328,52396,52432,52448,52488,52528,52552,52552,52592,52640,52640,52688,52697,52728,52744,52744,52760,52776,52816,52832,52848,52864,52864,52881,52888,52912,52912,53042,53080,53160,53175,53175,53248,53375,53429,53543,53580,53580,53616,53656,53704,53704,53752,53752,53844,53860,53920,53928,53928,53984,54077,54077,54129,54167,54183,54247,54272,54287,54343,54351,54399,54455,54504,54536,54560,54584,54631,54672,54879" d="M301.29999,110.86667C300.29999,110.86667 299.5,110.86667 298.60001,110.86667C297.70001,110.86667 296.77917,110.86667 295.81601,110.86667C295.12534,110.86667 294.05716,110.86667 293.19983,110.86667C292.41467,110.86667 291.47467,110.86667 290.46667,110.86667C289.66165,110.86667 288.77917,110.86887 287.89999,110.86667C287,110.86442 286.21793,110.40772 285.46667,110.03333C284.75513,109.67873 283.75674,109.91718 282.81732,109.58266C282.14142,109.34198 281.26453,108.83302 280.59018,108.514C279.78973,108.13532 278.82101,107.87708 277.91068,107.86667C277.01474,107.85642 276.08463,107.94277 275.41467,107.78133C274.45261,107.54951 273.61215,107.11206 272.77917,106.84583C271.97247,106.58801 271.20163,105.97559 270.29999,105.86667C269.50128,105.77018 268.87814,105.17734 267.99551,104.92384C267.01678,104.64273 266.32083,104.86667 265.28534,104.86667C264.49866,104.86667 263.51395,104.88456 262.65182,104.5095C261.98248,104.21831 261.57864,103.34162 261.2955,102.514C261.05045,101.79774 260.0636,101.40473 259.29999,101.03333C258.54608,100.66666 257.69284,100.27699 257.32535,99.46667C256.97067,98.68465 256.43372,98.03383 255.65184,97.57117C254.88788,97.1191 253.69394,97.08777 253.336,96.43066C252.92018,95.66733 253.40424,94.53384 253.27916,93.8875C253.09575,92.93976 251.95201,92.73276 251.584,92.06533C251.12958,91.24119 251.3,90.26667 251.3,89.3875C251.3,88.5095 251.3,87.56667 251.3,86.66666C251.3,85.76683 251.24239,84.91739 251.3,84.06533C251.3573,83.21803 252.15018,82.88467 253.13066,82.86667C254.00435,82.85063 254.89999,82.86667 255.8,82.86667L256.68933,82.86667L257.58533,82.868" id="svg_11" stroke-width="3" stroke="#000" fill="none"/>
  <path t="65672,65947,65962,66076,66076,66112,66195,66278,66278,66352,66412,66447,66622,66637,66672,66712,66728,66752,66752,66768,66829,66845,66872,66928,67026,67095,67095,67095,67136,67183,67200,67208,67240,67248,67658,67777,67937,67937,68027,68027,68142,68241,68272,68304,68344,68376,68376,68392,68400,68416,68424,68440,68440,68488,68504,68512,68536,68552,68584,68608,68624,68648,68664,68696,68712,68720,68736,68752,68752,68768,68784,68784,68824,68901,68917,68943,68959,68968,68975,68999,69015,69031,69047,69055,69056,69071,69079,69088,69111,69135,69179,69230,69245,69264,69280,69280,69297,69304,69313,69336,69408,69424,69442,69456,69464,69480,69488,69496,69513,69552,69562,69576,69592,69624,69648,69680,69680,69697,69704,69704,69760,69792,69862,69862,69944,69976,70024,70056,70056,70080,70080,70088,70119,70136,70152,70184,70184,70208,70427,70442,70512,70536,70579,70595,70624,70640,70641,70680,70728,70784,70824,70856,70856,70928,70943,70984,71024,71040,71096,71144,71152,71152,71192,71246,71262,71295,71303,71344,71344,71367,71392,71439,71479,71536,71543,71568,71575,71608,71624,71640,71679,71703,71762,71762,71802,71863,71912,71980,72016,72072,72120,72176,72336,72336,72380,72447,72543,72543,72706,72706,72793,72877,72928,72960,72961,73008,73032,73336,73376,73430,73445,73480,73532,73547,73584,73676,73704,73794,73794,73809,73832,73840,73927,73927,73984,73984,74000,74061,74096,74096,74198,74232,74272,74304,74424,74440,74464,74504,74609,74609,74676,74745,74842,74895,74935,75075,75130,75185,75240,75288,75363,75400,75400,75408,75509,75545,75628,75672,75704,75761,75800,75893,75893,75912,76339,76458,76636,76688,76696,76762,76800,76925,76925,76968,77030,77095,77136,77258,77258,77304,77360,77461,77575,77608,77624,77757,77811,77827,78020,78093,78176,78192,78308,78376,78430,78542,78595,78611,78648,78791,78791,78891,78907,78944,78961,79000,79056,79072,79130,79145,79184,79230,79272,79296,79328,79352,79376,79416,79472,79560,79607,79656,79663,79809,79863,79878,79904,79928,79944,79968,79984,80016,80080,80145,80242,80280,80280,80280,80360,80408,80478,80512,80520,80521,80552,80576,80585,80624,80640,80649,80666,80688,80689,80704,80713,80730,80753,80800,80848,80888,80946,81028,81028,81044,81096,81144,81169,81186,81208,81209,81216,81325,81360,81392,81424,81479,81479,81544,81596,81661,81792,81860,81943,82011,82011,82055,82113,82163,82200,82277,82293,82320,82345,82352,82400,82415,82478,82544,82576,82786,82824,82894,82961,82977,83032,83096,83146,83198,83232,83232,83240,83256,83272,83304,83360,83360,83384,83459,83512,83512,83544,83568,83585,83600,83609,83663,83704,83744,83776,83829,83888,83920,83944,83960,83968,84008,84024,84024,84032,84088,84145,84145,84259,84259,84304,84344,84360,84384,84428,84428,84510,84525,84525,84610,84610,84648,84688,84704,84705,84728,84768,84792,84816,84824,84896,84912,84913,84928,84979,85040,85080,85080,85096,85112,85176,85216,85309,85376,85376,85506,85568,85592,85592,85645,85758,85758,85792,85800,85800,85856,85896,85913,85960,86008,86048,86056,86088,86104,86114,86136,86520,86594,86594,86632,86869,86904" d="M256.29999,83.86667C257.73599,84.292 258.49698,84.82395 259.39999,84.86667C260.29898,84.90919 261.31616,84.63543 262.00449,84.981C262.7543,85.35744 262.97781,86.54804 263.89999,86.84534C264.737,87.11517 265.69608,87.12958 266.59549,86.86217C267.35818,86.63541 267.29999,85.57117 267.29999,84.64516C267.29999,83.76667 267.29999,82.86667 267.29999,82.06667C267.29999,81.152 267.29999,80.256 267.29999,79.36667C267.29999,78.46667 267.21942,77.56764 267.30017,76.645C267.38385,75.68909 267.7746,75.06006 268.01599,74.35067C268.36157,73.33511 267.98972,72.37507 268.31067,71.47733C268.5741,70.74049 269.58749,70.2071 269.29999,69.3875C269.07245,68.73882 268.15576,68.49101 267.29999,68.03333C266.50854,67.61006 266.27832,66.72667 265.65268,66.22383C264.97784,65.68147 264,65.86667 263.10001,65.86667C262.20016,65.86667 261.31775,65.84938 260.59018,65.514C259.78601,65.14331 258.93652,64.88467 258,64.86667C257.10016,64.84937 256.20001,64.86667 255.3,64.86667C254.5,64.86667 253.59995,64.87708 252.7,64.86667C251.79982,64.85625 251.09673,64.32346 250.20016,63.98817C249.34938,63.67 248.49867,63.86667 247.60001,63.86667C246.7,63.86667 245.82083,63.86667 244.864,63.86667C244,63.86667 243.10001,63.86667 242.2,63.86667C241.3,63.86667 240.52263,63.73923 239.77916,63.36667C238.84276,62.89742 237.98563,63.07744 237.07866,62.8665C236.29259,62.68368 235.85185,62.01207 235,61.86217C234.07312,61.69906 233.42801,60.92758 232.5955,60.86667C231.70238,60.80132 230.8,60.86667 229.89999,60.86667C228.9955,60.86667 228.13333,60.86667 227.3,60.86667C226.32167,60.86667 225.46666,60.86667 224.5955,60.86667C223.7,60.86667 222.8,60.86667 221.91066,60.86667C221.01466,60.86667 220.10001,60.86667 219.2,60.86667C218.3,60.86667 217.5,60.86667 216.60001,60.86667C215.7,60.86667 214.8,60.86667 213.91066,60.86667C213.01466,60.86667 212.10001,60.86667 211.2,60.86667C210.3,60.86667 209.46666,60.86667 208.5955,60.86667C207.7,60.86667 206.8,60.86667 205.91066,60.86667C205.01466,60.86667 204.10001,60.86667 203.2,60.86667C202.3,60.86667 201.45625,60.76807 200.65334,60.90267C199.79205,61.04705 198.95473,61.52021 198.05716,61.814C197.20192,62.09393 196.58487,62.4798 195.7,62.892C194.88486,63.27172 194.17368,63.76137 193.65717,64.5095C193.16295,65.22534 193.40697,66.1732 193.29866,67.06667C193.18718,67.98627 192.6129,68.68887 191.73199,68.868C191.01782,69.01324 190.21432,69.44021 189.46666,69.86667C188.82593,70.23214 187.95294,70.70308 187.2,71.088C186.4368,71.47816 185.48277,71.86119 185.3,72.7C185.13451,73.45951 185.3,74.36667 185.3,75.26667C185.3,76.16666 185.3,77.06667 185.3,77.96667C185.3,78.86667 185.41527,79.64829 185.87466,80.43066C186.33038,81.20677 186.2179,82.07043 186.30017,82.96667C186.38385,83.87811 187.13281,84.30004 187.864,84.892C188.42636,85.34727 188.3,86.46667 188.3,87.36667C188.3,88.256 188.30009,89.152 188.3,90.06667C188.29991,90.96667 188.3839,91.81645 187.68933,92.43066C187.0228,93.0201 185.89659,93.14717 185.46666,93.86667C185.00629,94.63712 184.32826,95.07836 183.7,95.44133C182.85434,95.9299 182.29091,96.46528 181.5955,96.91933C180.8376,97.41419 180.52312,98.19318 180.29866,99.06533C180.09254,99.86624 179.41832,100.3976 178.77916,100.86667C177.99953,101.43883 177.58141,102.05213 177.07866,102.74533C176.56818,103.4492 176.11201,104.18597 175.49867,104.58134C174.69168,105.10153 173.6252,105.3005 173.35716,106.16666C173.09056,107.02817 173.26808,107.9671 173.3,108.814C173.3286,109.57278 173.9088,110.34457 174.17867,111.18784C174.43181,111.97887 174.80602,112.68417 175.60001,113.22383C176.38602,113.75807 176.864,114.43066 177.5215,115.08817C178.10133,115.668 178.63509,116.37135 179.49867,116.78133C180.25752,117.1416 180.12645,117.90492 180.38533,118.66666C180.68709,119.55458 180.99361,120.30665 181.3045,121.21933C181.54578,121.92764 182.60001,121.86667 183.5,121.86667C184.39983,121.86667 185.32533,121.86667 186.10133,121.86667C187,121.86667 187.89999,121.86667 188.864,121.86667C189.73599,121.86667 190.68933,121.856 191.3,121.36667C191.91066,120.87733 192.77943,120.88982 193.74283,120.8665C194.48598,120.84851 195.36377,120.48888 196.09866,120.15067C196.96948,119.7499 197.7197,119.41396 198.39999,118.76683C198.98633,118.20909 199.79984,117.87708 200.77916,117.86667C201.65712,117.85733 202.58113,118.00399 203.24733,117.514C203.93155,117.01076 204.77115,116.94049 205.27916,116.36667C205.8476,115.72458 206.52794,115.33633 207.13066,114.668C207.7419,113.99023 207.98065,113.38388 208.3045,112.514C208.58319,111.76543 209.13484,111.19801 209.82083,110.8875C210.62199,110.52486 211.60001,110.86667 212.49867,110.86667C213.46666,110.86667 214.33826,111.04022 215.10001,110.78133C215.9879,110.47957 216.77698,110.01521 217.3045,109.514C217.84697,108.9986 218.7,108.86667 219.60001,108.86667C220.49867,108.86667 221.35266,108.86667 222.3,108.86667C223.10001,108.86667 224.08116,108.50108 224.864,108.86667C225.47943,109.15408 225.3,110.26667 225.3,111.16666C225.3,112.06533 224.94955,112.58362 224.384,113.152C223.77043,113.76865 223.53224,114.71216 222.7,114.856C221.75002,115.0202 221.40866,115.59158 220.68933,115.856C219.85455,116.16286 218.83136,115.72684 218.10133,116.15067C217.27454,116.63066 216.85875,117.55312 216,117.8095C215.13588,118.06748 214.13622,117.55362 213.3,117.8875C212.53436,118.1932 211.80481,118.66263 211.10133,119.152C210.31671,119.69782 210.3,120.74533 210.3,121.57117C210.3,122.46667 210.3,123.36667 210.3,124.256C210.3,125.152 210.17592,126.07529 210.30017,126.9665C210.41197,127.76841 211.35956,128.15163 212,128.51401C212.82079,128.97842 213.29774,129.57115 213.3,130.46666C213.30226,131.36667 213.31067,132.256 213.8,132.86667C214.28934,133.47734 214.3,134.46666 214.3,135.36667C214.3,136.256 214.3,137.15199 214.3,138.06667C214.3,138.96666 214.3,139.86667 214.3,140.7C214.3,141.47734 214.3,142.46666 214.3,143.36667C214.3,144.256 214.3,145.15199 214.3,146.06667C214.3,146.96666 214.3,147.86667 214.3,148.7C214.3,149.47734 214.3054,150.46667 214.3,151.36667C214.29466,152.25604 213.57442,152.74059 213.31067,153.47734C213.01091,154.3147 213.3,155.26666 213.3,156.16217C213.3,157.08817 213.34781,157.96793 213.3,158.86667C213.25728,159.67007 212.51927,160.35094 212.3,161.22383C212.09467,162.04128 212.52303,163.0385 212.13333,163.86667C211.77647,164.62506 210.59521,164.73422 210.31067,165.47734C209.99245,166.30838 209.76384,167.07262 209.42149,167.96651C209.10506,168.79274 208.68933,169.47734 208.10001,170.06667C207.5,170.66667 206.6757,171.29826 206.35716,172.16217C206.07996,172.91396 205.49013,173.52504 205.31067,174.46666C205.14215,175.35081 205.41714,176.26387 205.29866,177.15199C205.18707,177.98843 204.46933,178.63629 204.31067,179.46666C204.12953,180.41464 203.66412,180.92613 203.216,181.668C202.78996,182.37331 201.96866,182.97433 201.58533,183.66667C201.12141,184.50455 200.87283,185.30603 200.10133,185.78267C199.36536,186.23737 199.48878,187.13589 199.07866,187.96651C198.72929,188.67406 198.34743,189.42026 197.94733,190.16667C197.49506,191.01042 197.3,191.86667 197.3,192.74533C197.3,193.51334 197.20973,194.53313 197.35716,195.214C197.58388,196.26099 198.25854,196.89304 198.3,197.668C198.34901,198.584 199.23911,199.08189 199.3,199.96651C199.36008,200.83928 199.3,201.668 199.3,202.56667C199.3,203.46666 199.3,204.34584 199.3,205.30267C199.3,206.16667 199.3,207.06667 199.3,207.96651C199.3,208.84134 199.3,209.668 199.3,210.56667C199.3,211.46666 199.3,212.34584 199.3,213.30267C199.3,214.16667 199.13631,215.12396 199.52133,215.96666C199.82713,216.63596 200.28934,217.46666 200.3,218.36667C200.31067,219.26666 200.74234,219.97847 201.13333,220.86667C201.42284,221.52431 201.22264,222.53423 201.73599,223.26666C202.28963,224.05656 203.11804,224.45728 203.3,225.3875C203.46878,226.25031 203.26997,227.16718 203.3,228.06534C203.3286,228.92076 204.06117,229.41431 204.27916,230.36667C204.48001,231.24422 204.22696,232.21684 204.72533,232.84134C205.21051,233.4493 205.03218,234.30907 205.3045,235.16217C205.56642,235.98268 206.16014,236.51633 206.65717,237.22383C207.17976,237.96773 208.04106,238.40047 208.26401,239.26666C208.4874,240.13461 208.5807,240.95703 208.94733,241.62833C209.39728,242.45219 208.95499,243.45628 209.32083,244.325C209.62845,245.05547 210.18359,245.58282 210.336,246.50267C210.48021,247.37305 211.12039,248.10577 211.3,249.03334C211.45842,249.85147 211.34842,250.76596 211.65266,251.51483C211.97739,252.31413 212.18903,253.27138 212.584,254.06667C213.01566,254.93582 213.29774,255.56665 213.3,256.50949C213.30209,257.38751 213.3,258.26666 213.3,259.16666C213.3,260.06534 213.25575,261.03452 213.3,261.86667C213.34273,262.67004 214.04623,263.40323 214.26401,264.25601C214.50369,265.19458 214.68608,266.00504 215.01601,266.66666C215.43657,267.51004 215.50023,268.26746 216.01601,268.95065C216.48056,269.56601 216.3,270.62384 216.3,271.51483C216.3,272.29733 216.84506,273.11984 217.1785,273.96667C217.51122,274.81171 217.17513,275.67596 217.3,276.50949C217.44359,277.46786 217.91026,278.0397 218.216,278.98132C218.50015,279.85651 219.11711,280.3074 219.864,280.85599C220.41808,281.26294 220.20453,282.31122 220.584,283.06668C221.01958,283.93387 221.14178,284.72382 221.336,285.47733C221.55566,286.32959 222.10759,287.08337 222.30017,287.96649C222.48428,288.81076 223.17685,289.25134 223.5215,290.18784C223.77116,290.86624 224.39983,291.62384 225.17833,292.08801L224.94284,292.80499" id="svg_12" stroke-width="3" stroke="#000" fill="none"/>
  <path t="92255,92444,92505,92505,92529,92594,92610,92673,92697,92705,92806,92840,92911,92926,92953,92961,92985,93001,93025,93033,93049,93065,93072,93081,93089,93097,93105" d="M239.3,251.86667C239.28934,252.85201 238.88341,253.55069 238.584,254.384C238.24681,255.32245 238.4949,256.18835 238.29866,257.06534C238.11807,257.87238 237.31107,258.38733 237.3,259.25601C237.2886,260.1506 236.62485,260.60797 236.3,261.22385C235.86015,262.05777 236.3,263.06668 236.3,263.96649C236.3,264.814 236.3,265.668 236.3,266.56668C236.3,267.46667 236.3,268.34583 236.3,269.22385C236.3,270.16666 236.3,271.06668 236.3,271.96649L236.3,272.814L236.3,273.668" id="svg_13" stroke-width="3" stroke="#000" fill="none"/>
  <path t="96837,96972,96972,97008,97024,97048,97048,97056,97072,97096,97104,97136,97136,97209,97308,97308,97361,97392,97472,97488,97512,97552,97576,97592,97600,97616,97632,97664,97688,97712,97728,97744,97768,97800,97816,97840,97856,97927,97960,97976,97992,98008,98024,98032,98057,98064,98080,98088,98096,98104,98112,98168,98168,98276,98312,98376,98376,98464,98472,98480,98498,98529,98552,98643,98694,98735,98759,98799,98824,98855,98872,98919,98919,98927,98935,98975,98975,99007,99077,99093,99128,99152,99211,99211,99211,99226,99272,99304,99336,99368,99384,99424,99432,99432,99440,99456,99488,99504,99544,99560,99611,99627,99627,99663,99695,99761,99800,99840,99840,99895,99944,99944,99991,99991,99999,100048,100080,100120,100152,100192,100192,100216,100277,100328,100360,100384,100384,100456,100488,100560,100575,100575,100608,100656,100664,100704,100736,100768,100811,100827,100856,100911,100911,100960,100992,101032,101078,101120,101209,101209,101308,101353,101401,101401,101479,101494,101560,101643,101725,102012,102171,102171" d="M199.3,186.86667C198.5955,187.51401 197.89987,188.05376 197.216,188.58267C196.63615,189.03114 195.64734,188.86667 194.784,188.86667C193.74667,188.86667 192.864,188.86603 192,188.86667C191.10001,188.86734 190.17287,189.05588 189.58533,189.58267C188.90952,190.18861 188.30096,190.86763 187.7,191.46666C187.00111,192.16328 186.31238,192.78293 185.46666,192.86667C184.59975,192.95251 183.67484,192.85474 182.89999,193.29201C182.1739,193.70177 181.27467,193.86667 180.49867,193.86667C179.60001,193.86667 178.7,193.86667 177.73599,193.86667C176.864,193.86667 176,193.86667 175.10001,193.86667C174.20016,193.86667 173.27467,193.86667 172.49867,193.86667C171.60001,193.86667 170.7,193.86667 169.73599,193.86667C168.864,193.86667 168,193.86667 167.10001,193.86667C166.20016,193.86667 165.27428,193.89131 164.49867,193.86667C163.59865,193.83807 162.87828,193.17964 162.0045,192.92383C161.11412,192.66316 160.06784,193.11092 159.384,192.58267C158.7565,192.09796 157.94994,191.99834 157.2,191.64534C156.42447,191.2803 155.63364,190.9507 154.89999,190.43066C154.11305,189.87285 153.48265,189.28114 153.3,188.43066C153.09758,187.48814 153.48198,186.40732 152.864,185.892C152.23192,185.36493 151.51259,184.91667 151.24283,184.16217C150.93631,183.30487 150.49338,182.50359 150.07866,181.76683C149.61008,180.93437 149.30527,180.25598 149.3,179.36667C149.29466,178.46661 149.03215,177.65117 148.49867,177.06667C147.8418,176.34695 147.46358,175.51961 147.07866,174.76666C146.68851,174.00346 146.30226,173.22385 146.3,172.34584C146.29774,171.46666 146.3,170.56667 146.3,169.668C146.3,168.7 146.3,167.86667 146.3,167.06667C146.3,166.16667 146.3,165.22383 146.3,164.34584C146.3,163.46666 146.3,162.56667 146.3,161.668C146.3,160.7 146.3,159.86667 146.3,159.06667C146.3,158.16667 146.3,157.26666 146.3,156.36667C146.3,155.46666 146.3,154.56667 146.3,153.668C146.3,152.7 146.3,151.86667 146.3,151.06667C146.3,150.16667 146.26961,149.20677 146.72533,148.43066C147.18471,147.6483 147.14948,146.73122 147.38533,146.06667C147.71558,145.13618 148.44197,144.56723 148.77916,143.86667C149.2375,142.91438 148.82686,141.93633 149.3,141.15199C149.67828,140.5249 150.35362,140.1627 150.8,139.36667C151.24829,138.56721 151.49287,137.55486 152.10133,137.15199C152.92278,136.60812 153.11378,135.9534 153.35716,135.16217C153.62787,134.2821 154.29413,133.61954 155.10001,133.15199C155.83162,132.72754 156.79651,132.88748 157.31067,132.44133C157.93262,131.90166 158.71736,131.77719 159.32533,131.29201C159.94983,130.79362 160.9496,130.81372 161.35266,130.16217C161.82886,129.39241 162.59865,128.89534 163.5,128.86667C164.39937,128.83806 165.11427,128.53557 165.52133,127.76667C165.92238,127.00912 166.34282,126.20773 167.0045,125.814C167.7888,125.34731 168.76416,125.09367 169.26401,124.44133C169.82239,123.7126 170.02498,122.97651 170.8,122.3875C171.53798,121.82664 172.31921,121.5236 173.01466,121.15067C173.843,120.70647 174.77916,120.86667 175.65717,120.86667C176.5955,120.86667 177.46933,120.86667 178.32083,120.86667L179.2785,120.86667L180.09866,120.86667" id="svg_14" stroke-width="3" stroke="#000" fill="none"/>
  <path t="103931,104386,104480,104560,104593,104662,104743,104825,104942,104958,105016,105125,105125,105141,105211,105324,105377" d="M199.3,120.86667C201.13333,120.86667 201.91066,120.86667 202.8,120.86667C203.77916,120.86667 204.32579,121.27946 204.8,121.86667C205.31218,122.50089 205.76286,123.27979 206.216,124.06533C206.61826,124.76266 207.55696,124.9646 207.94733,125.57117C208.45546,126.36074 209.01601,126.95067 209.384,127.668L209.87466,128.43066" id="svg_15" stroke-width="3" stroke="#000" fill="none"/>
  <path t="119387,119560,119576,119592,119592,119616,119632,119632,119640,119656,119664,119672,119688,119712,119736,119777,119808,119832,119864,119864,119880,119904,119944,119976,119992,120016,120048,120064,120064,120096,120112,120128,120168,120176,120192,120232,120240,120264,120296,120336,120336,120352,120360,120392,120424,120424,120472,120480,120480,120496,120504,120520,120568,120568,120576,120592,120608,120616,120616,120672,120680,120688,120688,120704,120721,120733,120737,120747,120768,120776,120792,120792,120874,120905,120906,120906,120928,120945,120969,120992,121001,121008,121061,121061,121076,121076,121096,121112,121163,121163,121178,121201,121217,121232,121248,121264,121272,121288,121296,121328,121393,121445,121523,121538,121538,121538,121569,121576,121593,121608,121617,121640,121688,121775,121775,121831,121878,121893,121991,121991,122254,122254,122269,122269,122269,122321,122321,122330,122345,122353,122384,122424,122440,122510,122560,122639,122639,122641,122641,122657,122658,122665,122688,122696,122697" d="M177.3,136.86667C176.41333,136.86667 175.43433,136.71078 174.46666,137.03334C173.79468,137.25734 173.48625,138.39668 172.73067,138.78133C172.02962,139.13821 170.98769,138.6864 170.20016,139.088C169.34914,139.52197 168.7043,139.68806 167.77916,139.8875C166.95129,140.06595 166.20377,140.77364 165.35266,140.86667C164.59784,140.94917 163.81972,141.40846 163.10001,142.06534C162.5155,142.59882 161.4843,142.85951 161.30133,143.668C161.09973,144.55881 161.29939,145.4958 160.87466,146.26666C160.4221,147.08803 160.3,147.96666 160.3,148.86667C160.3,149.66667 160.3,150.56667 160.3,151.46666C160.3,152.34584 160.3,153.22383 160.3,154.16667C160.3,155.06667 160.3,155.96651 160.3,156.814C160.3,157.668 160.27827,158.52176 160.584,159.34933C160.89085,160.17993 161.29466,161.03468 161.3,161.86667C161.30611,162.81604 161.60847,163.59584 162.01601,164.29866C162.53021,165.18544 163.04221,165.90115 163.384,166.66667C163.71599,167.4102 164.24702,168.28183 164.8,168.84584C165.27739,169.33275 165.0144,170.33591 165.82083,170.825C166.57388,171.28171 167.43457,171.26089 168.3,171.7C168.97539,172.04268 169.51523,172.80577 170.39999,172.86667C171.29788,172.92847 172.10001,172.86667 173.01466,172.86667C173.91066,172.86667 174.8,172.86667 175.7,172.86667C176.5955,172.86667 177.5215,172.86667 178.39999,172.86667C179.3,172.86667 180.10614,172.94 180.972,172.83067C181.85503,172.71918 182.59937,172.55276 183.44667,172.06534C184.27686,171.58777 184.70729,170.77429 185.35266,170.21933C185.93466,169.71886 186.74991,169.26131 187.5955,168.92383C188.43088,168.59044 189.02304,168.127 189.24733,167.214C189.45586,166.36514 189.99472,165.66028 190.29866,164.78267C190.59842,163.9171 190.10405,163.03223 190.35716,162.16667C190.6138,161.28903 191.27141,160.56802 191.3,159.66667C191.32855,158.76712 191.01479,157.81903 191.30017,156.98801C191.56448,156.21837 192.27141,155.56802 192.3,154.66667C192.32854,153.76729 192.3,152.892 192.3,152.04784C192.3,151.09866 192.3,150.36667 192.3,149.63467C192.3,148.53867 192.3,147.56667 192.3,146.66667C192.3,145.76683 192.00676,145.31731 191.42149,144.64517C190.8391,143.97633 191.45651,142.83571 191.24283,142.16667C190.96696,141.30296 189.85333,141.07973 189.32533,140.43066C188.73166,139.70087 188.18721,139.23514 187.46666,138.7C186.81471,138.21581 186.16962,137.64513 185.27916,137.3875C184.65793,137.20776 183.56848,136.95247 182.73199,136.87733C181.73889,136.78813 181.44901,136.13516 180.864,135.47734C180.24785,134.7845 179.19316,134.97743 178.3,134.86667C177.40079,134.75516 177.01846,133.85988 176.09734,133.868C175.32478,133.8748 174.53293,134.15384 173.8,134.36667C172.63478,134.70505 171.84166,134.84584 170.89999,134.87733L170.10001,135.15067L169.3,135.7L168.58533,135.95067" id="svg_18" stroke-width="3" stroke="#000" fill="none"/>
  <path t="140503,140817,141422,141802,141890,141890" d="M211.3,88.86667C211.91066,89.47733 212.49733,90.064 212.828,90.39467L212.20016,89.76683L211.58533,89.152" id="svg_23" stroke-width="3" stroke="#000" fill="none"/>
  <path t="143741,143854,143909,143925,143960,144008,144108" d="M188.3,82.86667C189.3,82.84583 189.91066,82.292 190.7,81.90266L191.60001,81.86667L192.49867,81.86667L193.46666,81.86667" id="svg_24" stroke-width="3" stroke="#000" fill="none"/>
  <path t="145742,145872,145927,145968,146024,146056,146110,146237,146277,146277,146358,146409,146492,146528,146568,146625,146697" d="M210.3,82.86667C212.10001,82.86667 212.94284,82.86667 213.82083,82.86667C214.7,82.86667 215.60001,82.86667 216.5955,82.86667C217.46666,82.86667 218.34544,82.67287 219.10001,82.952C219.96959,83.27368 220.28958,84.34565 220.3,85.22383C220.31001,86.0666 220.3,86.96667 220.3,87.86667L220.52133,88.74533" id="svg_25" stroke-width="3" stroke="#000" fill="none"/>
  <path t="147488,148196,148289,148498,148606,148658,148867" d="M213.3,88.86667C213.3,89.668 213.3,90.56667 213.3,91.496L213.3,90.66666L213.3,89.76683L213.3,88.90266" id="svg_26" stroke-width="3" stroke="#000" fill="none"/>
  <polyline timestamps="150647,150867,150899" startTime="1502004429969" id="svg_27" points="213.3,90.8666669845581 213.21466666666666,90.06533365122476 212.7253333333333,89.30266698455809 " stroke-linecap="round" stroke-width="3" stroke="#000" fill="none"/>
  <path t="157493,157543,157558,157558,157576,157576,157584,157593,157593,157600,157608,157608,157616,157624,157624,157632,157640,157640,157648,157648,157656,157672,157688,157696,157736,157760,157776,157816,157816,157856,157896,157904,157928,157977,157992,158000,158016,158016,158024,158064,158064,158072,158088,158104,158104,158112,158120,158120,158128,158152,158168,158184,158184,158200,158232,158240,158256,158272,158272,158296,158336,158344,158368,158376,158393,158416,158476,158476,158512,158520,158536,158560,158560,158576,158600,158600,158608,158624,158664,158673,158688,158696,158704,158776,158792,158800,158816,158824,158848,158848,158888,158904,158904,158921,158959,158976,159000,159059,159075,159096,159112,159128,159137,159137,159151,159159,159183,159184,159192,159192,159215,159225,159231,159240,159256,159263,159272,159272,159279,159288,159295,159305,159311,159320,159335,159336,159343,159344,159359,159367,159368,159375,159383,159392,159399,159415,159416,159440,159456,159480,159496,159504,159536,159568,159575,159575,159608,159615,159615,159624,159631,159647,159648,159657,159657,159663,159674,159679,159690,159695,159711,159719,159727,159728,159736,159743,159751,159759,159767,159783,159799,159800,159809,159815,159825,159840,159856,159857,159903,159919,159936,159936,159967,160008,160032,160032,160056,160056,160073,160089,160105,160136,160224,160224,160272,160304,160321,160407,160456,160472,160504,160535,160560,160576,160600,160632,160664,160664,160672,160688,160720,160728,160736,160744,160752,160776,160776,160784,160792,160808,160825,160832,160848,160864,160912,160912,160928,160952,160976,160984,160992,161000,161009,161032,161032,161040,161048,161072,161080,161096,161096,161104,161104,161112,161112,161128,161128,161144,161144,161160,161176,161192,161192,161209,161232,161264,161280,161296,161312,161320,161328,161344,161384,161384,161407,161416,161425,161432,161440,161448,161448,161456,161464,161488,161504,161520,161536,161552,161575,161576,161584,161592,161609,161625,161632,161664,161680,161703,161704,161720,161728,161752,161752,161760,161768,161776,161800,161800,161816,161856,161925,161940,161984,162000,162009,162032,162040,162040,162048,162080,162096,162112,162144,162144,162152,162160,162168,162176,162200,162216,162225,162232,162248,162280,162288,162296,162312,162328,162328,162336,162360,162392,162408,162425,162432,162432,162480,162488,162496,162512,162528,162552,162568,162576,162584,162584,162592,162592,162600,162616,162632,162656,162664,162672,162688,162712,162728,162736,162752,162776,162816,162825,162856,162872,162896,162904,162920,162928,162960,162976,162984,163016,163032,163075,163091,163158,163173,163200,163258,163310,163352,163392,163506,163542,163600,163624,163640,163808,163823" d="M212.3,296.86667C210.5,296.86667 209.7,296.86667 208.77916,296.86667C207.81599,296.86667 207.12534,296.86667 206.05716,296.86667C205.19983,296.86667 204.41467,296.86667 203.47467,296.86667C202.46666,296.86667 201.60451,296.86667 200.77916,296.86667C199.81599,296.86667 199.12534,296.86667 198.05267,296.86667C197.13333,296.86667 196.3,296.86667 195.3215,296.86667C194.50133,296.86667 193.65717,296.86667 192.77916,296.86667C191.8,296.86667 190.89999,296.86667 190.0045,296.86667C189.13333,296.86667 188.2,296.86667 187.3,296.86667C186.5,296.86667 185.65717,296.86667 184.77916,296.86667C183.8,296.86667 182.89999,296.86667 182.0045,296.86667C181.19017,296.86667 180.27916,296.86667 179.3215,296.86667C178.50133,296.86667 177.65717,296.86667 176.73067,296.86667C175.94817,296.86667 174.83572,297.06381 174.10133,296.58133C173.30251,296.05652 173.25154,295.01746 172.41333,294.86801C171.48917,294.70325 170.74651,294.85779 169.84166,294.36667C169.03979,293.93143 168.19873,293.91446 167.3,293.86667C166.4966,293.82394 165.82251,293.0871 165.01466,292.86667C164.13226,292.62589 163.2,292.86667 162.3,292.86667C161.5,292.86667 160.60001,292.86667 159.7,292.86667C158.8,292.86667 157.86516,293.10953 157.0045,292.86215C156.23662,292.64145 155.7511,291.92035 154.89999,291.44135C154.17342,291.03241 153.2623,291.03882 152.49867,290.78134C151.70169,290.51263 150.98886,289.7489 150.32083,289.38751C149.41821,288.89923 148.59016,288.86667 147.78267,288.86667C146.82083,288.86667 145.95644,288.79971 145.27467,288.29199C144.63387,287.81479 143.7,287.86667 142.8,287.86667C141.91066,287.86667 140.99263,287.66861 140.10133,287.86801C139.29428,288.04858 138.85179,288.72086 138,288.87115C137.07155,289.035 136.49962,289.66763 135.89999,290.26666C135.19972,290.96625 134.67786,291.57529 134.31067,292.43066C133.96652,293.23236 133.6882,294.05157 133.28934,294.84134C132.90681,295.59875 131.85866,295.75052 131.10001,296.15067C130.24162,296.60339 129.46666,296.86667 128.59016,296.86667C127.78267,296.86667 126.82083,296.86667 125.91067,296.86667C124.96667,296.86667 124.27917,296.86667 123.3215,296.86667C122.50134,296.86667 121.46667,296.86667 120.68933,296.86667C119.8,296.86667 118.9,296.86667 118,296.86667C117.09866,296.86667 116.13333,296.86667 115.3,296.86667C114.32166,296.86667 113.46667,296.86667 112.68933,296.86667C111.8,296.86667 110.9,296.86667 109.91067,296.86667C108.96667,296.86667 108.27917,296.86667 107.3215,296.86667C106.50134,296.86667 105.46667,296.86667 104.59016,296.86667C103.78267,296.86667 102.82083,296.86667 102,296.86667C101.1,296.86667 100.2,296.86667 99.3,296.86667C98.5,296.86667 97.46667,296.86667 96.68933,296.86667C95.8,296.86667 94.9,296.86667 93.91067,296.86667C93.01466,296.86667 92.2,296.86667 91.3,296.86667C90.5,296.86667 89.46667,296.86667 88.59016,296.86667C87.78267,296.86667 86.82083,296.86667 85.9955,296.86667C84.97867,296.86667 84.3,296.86667 83.3215,296.86667C82.50134,296.86667 81.6,296.86667 80.7,296.86667C79.8,296.86667 78.9,296.86667 77.91067,296.86667C77.01466,296.86667 76.2,296.86667 75.3,296.86667C74.5,296.86667 73.6,296.86667 72.7,296.86667C71.8,296.86667 70.9,296.86667 70,296.86667C69.09866,296.86667 68.13333,296.86667 67.3,296.86667C66.32166,296.86667 65.46667,296.86667 64.68933,296.86667C63.77917,296.86667 62.81733,296.86667 62.00983,296.86667C61.01467,296.86667 60.2,296.86667 59.3,296.86667C58.5,296.86667 57.49264,296.9068 56.85333,297.29199C56.00949,297.80042 55.23461,297.67255 54.32167,298.08817C53.57731,298.42703 53.30083,299.46924 52.5955,299.91934C51.82615,300.41028 50.9018,300.56589 50.13334,301.03333C49.51706,301.40817 49.13916,302.48514 49.32084,303.36667C49.49482,304.21088 50.2998,304.85623 51.10133,304.86667C51.99992,304.87836 52.94283,304.86667 53.82084,304.86667C54.7,304.86667 55.6,304.86667 56.5,304.86667C57.4,304.86667 58.3,304.86667 59.1,304.86667C60,304.86667 60.94283,304.86667 61.82084,304.86667C62.7,304.86667 63.6,304.86667 64.49866,304.86667C65.384,304.86667 66.3,304.86667 67.1,304.86667C68,304.86667 68.94283,304.86667 69.82083,304.86667C70.7,304.86667 71.6,304.86667 72.49866,304.86667C73.384,304.86667 74.3,304.86667 75.1,304.86667C76,304.86667 76.94283,304.86667 77.82083,304.86667C78.7,304.86667 79.6,304.86667 80.49866,304.86667C81.384,304.86667 82.3,304.86667 83.1,304.86667C84,304.86667 84.94283,304.86667 85.82083,304.86667C86.71066,304.86667 87.62133,304.86667 88.47467,304.86667C89.41734,304.86667 90.10983,304.86667 91.068,304.86667C91.8,304.86667 92.96667,304.86667 93.77917,304.86667C94.784,304.86667 95.47467,304.86667 96.54283,304.86667C97.4,304.86667 98.3,304.86667 99.05717,304.86667C99.94817,304.86667 100.96667,304.86667 101.82083,304.86667C102.7,304.86667 103.6,304.86667 104.49866,304.86667C105.384,304.86667 106.18667,304.86667 107.12534,304.86667C108.13333,304.86667 108.93833,304.86667 109.82083,304.86667C110.7,304.86667 111.6,304.86667 112.5,304.86667C113.4,304.86667 114.3,304.86667 115.1,304.86667C116,304.86667 116.94283,304.86667 117.82083,304.86667C118.7,304.86667 119.6,304.86667 120.49866,304.86667C121.384,304.86667 122.3,304.86667 123.1,304.86667C124,304.86667 124.94283,304.86667 125.82083,304.86667C126.7,304.86667 127.6,304.86667 128.49867,304.86667C129.384,304.86667 130.3,304.86667 131.10001,304.86667C132,304.86667 132.94284,304.86667 133.86934,304.86667C134.65184,304.86667 135.54283,304.86667 136.49867,304.86667C137.384,304.86667 138.3,304.86667 139.10001,304.86667C140,304.86667 140.94284,304.86667 141.82083,304.86667C142.7,304.86667 143.60001,304.86667 144.49867,304.86667C145.36133,304.86667 146.16133,304.86667 147.13333,304.86667C147.9955,304.86667 148.96248,304.70172 149.82083,304.88751C150.64854,305.06668 151.39388,305.80579 152.3,305.86667C153.09821,305.92029 154,305.86667 154.89999,305.86667C155.8,305.86667 156.68933,305.86667 157.58533,305.86667C158.5,305.86667 159.39999,305.86667 160.3,305.86667C161.13333,305.86667 162.00456,305.87704 162.89999,305.86667C163.80019,305.85623 164.50945,305.33948 165.39999,304.98816C166.0607,304.72754 167,304.86667 167.89999,304.86667C168.864,304.86667 169.73599,304.86667 170.60451,304.86667C171.62117,304.86667 172.27916,304.86667 173.31467,304.86667C174.10133,304.86667 175,304.86667 175.89999,304.86667C176.8,304.86667 177.7,304.86667 178.60001,304.86667C179.5,304.86667 180.41682,304.76999 181.18533,304.952C182.16161,305.18323 182.81027,305.67633 183.664,306.25601C184.395,306.75235 185.27467,306.86667 186.10133,306.86667C187,306.86667 187.89999,306.86667 188.77916,306.86667C189.65717,306.86667 190.60001,306.86667 191.5,306.86667C192.39983,306.86667 193.27467,306.86667 194.10133,306.86667C195,306.86667 195.89999,306.86667 196.77916,306.86667C197.65717,306.86667 198.60001,306.86667 199.5,306.86667C200.39983,306.86667 201.27467,306.86667 202.10133,306.86667C203,306.86667 203.89999,306.86667 204.77916,306.86667C205.65717,306.86667 206.60001,306.86667 207.5,306.86667C208.39983,306.86667 209.27467,306.86667 210.10133,306.86667C211,306.86667 211.97194,306.53854 212.77916,306.88751C213.49315,307.19617 214.00449,307.86441 214.89999,307.86667C215.8,307.86893 216.68933,307.86667 217.65266,307.87115L218.27916,308.36667" id="svg_28" stroke-width="3" stroke="#000" fill="none"/>
  <path t="164466,164604,164657,164704,164931,164931" d="M211.3,296.86667C212.10133,296.86667 213.01466,296.86667 213.84166,296.84583L214.784,296.58267L215.47467,296.29199" id="svg_29" stroke-width="3" stroke="#000" fill="none"/>
  <path t="170608,170690,170690,170705,170705,170705,170728,170736,170736,170736,170744,170744,170752,170752,170752,170760,170760,170760,170768,170768,170768,170776,170776,170784,170784,170784,170793,170793,170793,170800,170800,170800,170808,170816,170816,170832,170832,170840,170848,170872,170888,170912,170912,170920,170920,170928,170936,170936,170944,170952,170952,170968,170976,170993,170993,171000,171009,171016,171017,171032,171040,171040,171056,171056,171064,171064,171072,171072,171072,171088,171088,171096,171096,171104,171112,171120,171128,171136,171145,171152,171161,171168,171168,171184,171193,171193,171200,171209,171216,171216,171224,171224,171232,171240,171248,171248,171256,171256,171264,171264,171272,171280,171288,171288,171288,171296,171304,171304,171312,171312,171320,171328,171328,171336,171352,171360,171360,171368,171369,171376,171376,171384,171384,171385,171393,171400,171400,171409,171416,171432,171440,171456,171464,171464,171472,171480,171488,171488,171504,171520,171520,171528,171536,171544,171560,171568,171568,171584,171600,171608,171616,171625,171632,171640,171656,171656,171672,171688,171704,171712,171720,171728,171736,171736,171744,171760,171760,171769,171769,171776,171785,171785,171804,171804,171814,171814,171816,171816,171825,171825,171832,171840,171848,171880,171896,171904,171920,171920,171928,171945,171946,171953,171976,172016,172025,172048,172064,172080,172089,172096,172112,172129,172176,172176,172184,172242,172355,172394,172409,172480,172496,172558,172558,172600,172632" d="M4.3,226.86667C5.91067,226.86667 6.82083,226.86667 7.78267,226.86667C8.59017,226.86667 9.468,226.86667 10.34167,226.86667C11.3,226.86667 12.1,226.86667 12.9,226.86667C13.9045,226.86667 14.75717,226.86667 15.7215,226.86667C16.536,226.86667 17.4045,226.86667 18.3,226.86667C19.1955,226.86667 20.064,226.86667 21.13333,226.86667C21.84283,226.86667 22.6955,226.86667 23.70133,226.86667C24.536,226.86667 25.46667,226.86667 26.25267,226.86667C27.07467,226.86667 28.13333,226.86667 29.07467,226.86667C29.75267,226.86667 30.72117,226.86667 31.51467,226.86667C32.53067,226.86667 33.49017,226.86667 34.46667,226.86667C35.3,226.86667 36.13334,226.86667 36.9955,226.86667C37.9,226.86667 38.8,226.86891 39.7,226.86667C40.60001,226.86441 41.48845,226.56367 42.05717,226.16217C42.93368,225.54335 43.61567,225.1035 44.54283,224.92383C45.4855,224.74115 46.18533,224.86667 47.12533,224.86667C48.13334,224.86667 48.99552,224.87262 49.9,224.86667C50.71072,224.86133 51.62836,224.66153 52.43867,224.29201C53.25692,223.91887 54.16161,223.88979 55.13334,223.86667C55.88997,223.84866 56.62973,223.30138 57.50267,222.95067C58.23216,222.65759 59.06707,222.5795 59.8,222.36667C60.96521,222.02831 61.65749,221.92989 62.63334,221.7C63.31202,221.54012 64.28136,221.16226 65.15717,220.98817C66.03857,220.81297 66.95267,220.86667 67.816,220.86667C68.77917,220.86667 69.6,220.86667 70.5,220.86667C71.4,220.86667 72.3,220.86667 73.216,220.86667C74.0045,220.86667 74.936,220.86667 75.78267,220.86667C76.59016,220.86667 77.66167,220.86667 78.62133,220.86667C79.3,220.86667 80.27834,220.86667 81.21733,220.86667C82.01434,220.86667 82.90266,220.86667 83.8955,220.86667C84.64283,220.86667 85.664,220.86667 86.50134,220.86667C87.46667,220.86667 88.3,220.86667 89.27866,220.86667C90.05267,220.86667 90.95267,220.86667 91.816,220.86667C92.77917,220.86667 93.609,220.86667 94.63333,220.86667C95.30083,220.86667 96.2375,220.86667 97.224,220.86667C98.15334,220.86667 98.82093,220.85159 99.96667,220.86667C100.75854,220.87709 101.60688,221.21642 102.3,221.86667C102.80507,222.3405 103.59864,222.83798 104.5,222.86667C105.39987,222.89531 106.27509,222.935 107.068,223.15067C107.80445,223.35097 108.96587,223.7039 109.64933,223.84134C110.63222,224.03897 111.30268,224.21352 112.2375,224.51401C113.13931,224.80389 114.00983,224.86667 114.81734,224.86667C115.77917,224.86667 116.68933,224.86667 117.58533,224.86667C118.5,224.86667 119.4,224.86667 120.3,224.86667C121.1,224.86667 122,224.86667 122.936,224.86667C123.78267,224.86667 124.59016,224.86667 125.58667,224.86667C126.46667,224.86667 127.3,224.86667 128.27834,224.86667C129.17867,224.86667 130.0045,224.86667 130.936,224.86667C131.78267,224.86667 132.59016,224.86667 133.58533,224.86667C134.5,224.86667 135.39999,224.86667 136.3,224.86667C137.17867,224.86667 138.0045,224.86667 138.936,224.86667C139.78267,224.86667 140.59016,224.86667 141.58533,224.86667C142.5,224.86667 143.39999,224.86667 144.3,224.86667C145.17867,224.86667 145.94667,224.86667 146.95267,224.86667C147.64734,224.86667 148.65334,224.86667 149.63333,224.86667C150.34166,224.86667 151.3,224.86667 152.25833,224.86667C153.19467,224.86667 154.01433,224.86667 154.709,224.86667C155.7,224.86667 156.5,224.86667 157.5,224.86667C158.3,224.86667 159.3,224.86667 160.27916,224.86667C161.13333,224.86667 161.9955,224.86667 162.89999,224.86667C163.8,224.86667 164.68933,224.86667 165.58533,224.86667C166.5,224.86667 167.39999,224.86667 168.3,224.86667C169.10001,224.86667 169.936,224.86667 170.95267,224.86667C171.64734,224.86667 172.65334,224.86667 173.58533,224.86667C174.5,224.86667 175.39999,224.86667 176.3,224.86667C177.17867,224.86667 178.03088,225.04941 178.89999,224.83067C179.7628,224.61353 180.49548,223.90938 181.35266,223.86667C182.29883,223.81952 183.10001,223.86667 184,223.86667C184.864,223.86667 185.82083,223.86667 186.7,223.86667C187.60001,223.86667 188.49867,223.86667 189.35266,223.86667C190.3,223.86667 191.10001,223.86667 192,223.86667L192.864,223.86667" id="svg_30" stroke-width="3" stroke="#000" fill="none"/>
  <path t="176967,177149,177149,177149,177149,177165,177165,177165,177165,177165,177183,177184,177191,177191,177200,177200,177200,177208,177208,177216,177216,177216,177225,177225,177232,177232,177232,177241,177241,177241,177248,177248,177255,177255,177263,177263,177263,177272,177272,177279,177295,177335,177343,177351,177352,177368,177384,177391,177408,177417,177423,177433,177449,177455,177471,177487,177487,177495,177504,177511,177512,177527,177536,177536,177552,177552,177559,177575,177576,177584,177584,177591,177608,177609,177617,177623,177623,177633,177633,177649,177655,177663,177664,177671,177679,177688,177688,177703,177719,177735,177743,177893,177893,177909,177909,177909,177909,177909,177909,177927,177928,177928,177928,177928,177928" d="M331.29999,224.86667C333.82083,224.86667 334.84283,224.86667 335.56134,224.86667C336.35184,224.86667 337.37851,224.86667 338.27917,224.86667C339.29999,224.86667 340.10001,224.86667 340.89999,224.86667C341.89999,224.86667 342.70001,224.86667 343.70132,224.86667C344.53601,224.86667 345.46667,224.86667 346.24817,224.86667C347.03867,224.86667 348.15732,224.86667 348.95065,224.86667C349.84283,224.86667 350.82083,224.86667 351.61734,224.86667C352.616,224.86667 353.29999,224.86667 354.46667,224.86667C355.25266,224.86667 356.07468,224.86667 357.13333,224.86667C357.84283,224.86667 358.6955,224.86667 359.70001,224.86667C360.5,224.86667 361.5,224.86667 362.29999,224.86667C363.29999,224.86667 364.10001,224.86667 364.89999,224.86667C365.89551,224.86667 366.64282,224.86667 367.664,224.86667C368.59549,224.86667 369.52151,224.86667 370.39999,224.86667C371.29999,224.86667 372.10001,224.86667 373.01468,224.86667C373.91068,224.86667 374.83475,224.81372 375.60001,225.21933C376.44574,225.6676 377.24734,225.86667 378.10132,225.86667C379,225.86667 379.90408,225.78209 380.77917,225.86667C381.64542,225.95039 382.41885,226.2636 383.13068,227.06534C383.69379,227.69957 384.40018,227.86667 385.18533,227.86667C386.12534,227.86667 387.14307,227.77377 387.92532,227.90266C388.80719,228.04796 389.43796,228.56894 390.41599,228.78133C391.44614,229.00502 392.12534,228.86667 393.13333,228.86667C393.99551,228.86667 394.84021,228.82472 395.784,229.15067C396.49228,229.39528 397.41385,229.79051 398.29999,229.86667C399.05652,229.93169 399.92511,230.27386 400.73065,230.58267C401.6355,230.92955 402.60449,230.86667 403.46667,230.86667C404.27917,230.86667 405.23868,230.86667 406.06168,230.86667C406.95267,230.86667 407.81601,230.86667 408.75833,230.86667C409.65717,230.86667 410.60001,230.86658 411.5,230.86667C412.39984,230.86676 413.1116,231.11736 413.52133,231.96716C413.82654,232.6002 414.18018,233.63101 414.25635,234.23817C414.34302,234.929 414.38293,235.70703 414.79999,236.86667C415.09756,237.69409 415.608,238.49867 415.86249,238.92917L416.41351,239.83817L416.70401,240.32266" id="svg_31" stroke-width="3" stroke="#000" fill="none"/>
  <path t="179294,179336,179344,179353,179353,179361,179376,179376,179384,179384,179392,179392,179400,179400,179409,179409,179416,179416,179424,179424,179433,179434,179440,179450,179450,179464,179464,179466,179473,179473,179480,179480,179480,179490,179496,179496,179496,179496,179506,179506,179512,179512,179512,179520,179528,179528,179536,179536,179536,179544,179544,179544,179552,179560,179568,179568,179576,179576,179584,179592,179600,179609,179609,179617,179624,179624,179641,179650,179650,179656,179688,179712,179712,179729,179736,179752,179760,179776,179800,179840,179848,179856,179880,179888,179888,179898,179912,179928,179945,179952,179952,179960,179976,179993,180032,180050,180173,180226,180241,180241,180241,180265,180272,180288,180288,180297,180297,180297,180304,180304,180312,180320,180320,180328,180336,180344,180344,180352,180352,180360,180361,180368,180368,180376,180384,180401,180408,180425,180441,180449,180456,180488,180496,180512,180520,180528,180528,180536,180560,180568,180576,180592,180616,180625,180632,180632,180648,180672,180680,180696,180704,180712,180720,180728,180728,180744,180752,180752,180760,180768,180776,180784,180792,180792,180800,180808,180808,180817,180825,180832,180833,180841,180841,180841,180848,180849,180856,180864,180872,180880,180880,180888,180896,180904,180904,180904,180912,180920,180928,180928,180936,180944,180952,180961,180961,180968,180977,180984,180992,180992,181000,181008,181016,181016,181024,181032,181041,181048,181049,181049,181056,181064,181064,181072,181080,181080,181088,181088,181088,181096,181096,181104,181104,181112,181112,181120,181120,181120,181128,181128,181128,181136,181136,181144,181144,181152,181152,181161,181177,181177,181208,181248,181256,181256,181264,181272,181280,181280,181288,181296,181304,181304,181312,181320,181336,181360,181376,181392,181392,181408,181416,181424,181432,181432,181448,181464,181472,181472,181488,181512,181520,181528,181544,181592,181592,181658,181658,181720,181774,181790,181808,181816,181832,181863,181879,181895,181927,181928,181936,181959,181975" d="M407.29999,228.86667C409.13333,228.86667 409.94666,228.86667 410.784,228.86667C411.64734,228.86667 412.65332,228.86667 413.58801,228.86667C414.272,228.86667 415.30533,228.86667 416.04935,228.86667C417.15717,228.86667 417.91467,228.86667 418.78534,228.86667C419.7045,228.86667 420.70441,228.81213 421.5,228.90266C422.51035,229.01762 423.25299,229.44373 424.13333,229.7C424.90836,229.92561 425.784,229.86667 426.64734,229.86667C427.664,229.86667 428.51089,229.81186 429.27066,229.952C430.327,230.14684 430.82684,230.37096 431.61734,230.668C432.62274,231.04579 433.48929,231.46672 434.29999,231.86667C435.08929,232.25606 435.79108,232.70111 436.84167,232.84584C437.79126,232.97665 438.65799,232.86667 439.29999,232.86667C440.24799,232.86667 441.24667,232.86667 442.10083,232.86667C443.06799,232.86667 443.79999,232.86667 444.53201,232.86667C445.63867,232.86667 446.62167,232.86667 447.34167,232.86667C448.46667,232.86667 449.25266,232.86667 450.07468,232.86667C451.13333,232.86667 451.83835,232.86667 452.63834,232.86667C453.664,232.86667 454.60449,232.86667 455.46667,232.86667C456.29999,232.86667 457.2785,232.86667 458.09866,232.86667C459,232.86667 459.89999,232.86667 460.82083,232.86667C461.784,232.86667 462.47467,232.86667 463.54285,232.86667C464.40018,232.86667 465.18533,232.86667 466.12534,232.86667C467.13333,232.86667 467.88934,232.86667 468.77917,232.86667C469.74667,232.86667 470.62134,232.86667 471.47467,232.86667C472.41333,232.86667 473.29999,232.86667 474.10132,232.86667C475,232.86667 475.89999,232.86667 476.77917,232.86667C477.73599,232.86667 478.60001,232.86667 479.5,232.86667C480.39999,232.86667 481.29999,232.86667 482.10001,232.86667C483,232.86667 483.91943,232.86833 484.70001,232.44133C485.52374,231.99072 486.4711,231.93242 487.11465,231.856C488.07367,231.74214 488.90833,231.12781 489.26401,230.43066C489.65506,229.6642 489.76227,229.09183 490.68933,228.86667C491.34198,228.70815 490.87766,227.73508 490.29999,227.3875C489.3905,226.84029 488.85925,226.17719 487.99551,225.92383C487.01791,225.63707 486.24915,225.90453 485.13333,225.7C484.34317,225.55516 483.83484,225.31203 482.63333,225.03334C481.84918,224.85146 480.99551,224.86667 479.97867,224.86667C479.29999,224.86667 478.32166,224.86667 477.34818,224.86667C476.58566,224.86667 475.69672,224.8972 474.70001,224.86217C473.89874,224.83401 472.90219,224.58041 472.13599,224.29201C471.32242,223.98576 470.50116,223.88535 469.60001,223.86667C468.69949,223.84801 467.98965,223.24855 467.10001,222.952C466.24252,222.66617 465.32492,222.89293 464.49866,222.86667C463.59863,222.83807 462.87778,222.18134 462.00449,221.92383C461.16711,221.67691 460.20001,221.86667 459.29999,221.86667C458.5,221.86667 457.65717,221.86667 456.77917,221.86667C455.79999,221.86667 454.89999,221.86667 454.00449,221.86667C453.13333,221.86667 452.20001,221.86667 451.29999,221.86667C450.5,221.86667 449.65717,221.86667 448.77917,221.86667C447.79999,221.86667 446.89999,221.86667 446,221.86667C445.10001,221.86667 444.20001,221.86667 443.29999,221.86667C442.5,221.86667 441.664,221.86667 440.64734,221.86667C439.95267,221.86667 438.936,221.86667 438.00449,221.86667C437.19016,221.86667 436.27917,221.86667 435.3215,221.86667C434.50134,221.86667 433.664,221.86667 432.64734,221.86667C431.95267,221.86667 430.936,221.86667 429.99551,221.86667C429.13333,221.86667 428.27917,221.86667 427.29999,221.86667C426.5,221.86667 425.70001,221.86667 424.7045,221.86667C423.95715,221.86667 422.936,221.86667 422,221.86667C421.10001,221.86667 420.19983,221.86667 419.41467,221.86667C418.48532,221.86667 417.54251,221.86667 416.63583,221.86667C416.01334,221.86667 415.06668,221.86667 414.11432,221.86667C413.10001,221.86667 412.19983,221.86667 411.41467,221.86667C410.48532,221.86667 409.54285,221.86667 408.75833,221.86667C407.81601,221.86667 406.95267,221.86667 406.06168,221.86667C405.19016,221.86667 404.25833,221.86667 403.29999,221.86667C402.52133,221.86667 401.54285,221.86667 400.75833,221.86667C399.81601,221.86667 398.95267,221.86667 398.06168,221.86667C397.19016,221.86667 396.25833,221.86667 395.29999,221.86667C394.51068,221.86667 393.78534,221.86667 392.79999,221.86667C391.81601,221.86667 390.95267,221.86667 390.05267,221.86667C389.13333,221.86667 388.27917,221.86667 387.29999,221.86667C386.5,221.86667 385.70001,221.86667 384.70001,221.86667C383.89999,221.86667 382.89999,221.86667 382.10001,221.86667C381.10001,221.86667 380.29999,221.86667 379.29999,221.86667C378.48932,221.86667 377.84283,221.86667 376.616,221.86667C376.07468,221.86667 375.25266,221.86667 373.98532,221.86667C373.32083,221.86667 372.29999,221.86667 371.51068,221.86667C370.46667,221.86667 369.60449,221.86667 368.77917,221.86667C367.81601,221.86667 366.95267,221.86667 366.06168,221.86667C365.13333,221.86667 364.19983,221.86667 363.41467,221.86667C362.48532,221.86667 361.54266,221.86667 360.73065,221.86667C359.94818,221.86667 358.88858,221.97224 358.10001,221.58267C357.22992,221.15283 356.60001,220.86893 355.70001,220.86667C354.79999,220.86441 353.82083,220.86736 352.94284,220.86667C352.09866,220.866 351.12411,220.722 350.48532,220.44133C349.52789,220.02066 348.77917,219.86667 347.88934,219.86667C346.97882,219.86667 346.16135,219.86667 345.13333,219.86667C344.20001,219.86667 343.29999,219.86667 342.5,219.86667C341.65717,219.86667 340.77917,219.86667 339.79999,219.86667C338.89999,219.86667 338.00296,219.91803 337.13333,219.86667C336.40955,219.82393 335.39987,219.54642 334.86932,219.06534C334.0961,218.36423 333.49359,217.82741 332.77917,217.36667C332.026,216.88092 331.10132,216.86667 330.24734,216.86667C329.29999,216.86667 328.70941,216.48215 328.01334,215.95067C327.28607,215.39539 326.48532,215.44133 325.54285,214.98801L324.86401,214.44133L324.10001,213.95067" id="svg_32" stroke-width="3" stroke="#000" fill="none"/>
  <path t="186048,186107,186122,186144,186168,186176,186208,186216,186216,186224,186232,186241,186248,186256,186264,186272,186272,186280,186280,186296,186304,186320,186328,186328,186344,186352,186352,186360,186368,186392,186392,186392,186408,186447,186448,186472,186472,186496,186512,186528,186528,186536,186560,186568,186568,186584,186592,186592,186600,186608,186616,186624,186632,186632,186641,186648,186656,186664,186664,186672,186680,186688,186688,186696,186704,186728,186744,186744,186752,186768,186768,186776,186776,186792,186824,186824,186832,186848,186856,186880,186896,186896,186904,186920,186920,186936,186936,186944,186968,186968,186984,186984,186992,187016,187016,187016,187024,187024,187032,187032,187041,187049,187071,187072,187080,187080,187088,187096,187104,187104,187112,187112,187120,187128,187128,187136,187136,187144,187144,187152,187152,187160,187168,187168,187184,187192,187200,187208,187216,187216,187224,187232,187232,187241,187241,187248,187256,187264,187264,187272,187280,187288,187296,187304,187320,187320,187336,187344,187352,187360,187368,187376,187376,187392,187400,187416,187424,187432,187441,187456,187456,187464,187464,187480,187496,187496,187504,187512,187512,187528,187544,187560,187576,187584,187584,187592,187600,187616,187616,187624,187632,187648,187656,187664,187672,187680,187688,187696,187704,187704,187712,187728,187728,187736,187744,187752,187760,187768,187776,187792,187808,187824,187832,187848,187848,187872,187872,187888,187904,187936,188000,188000,188007,188048,188071,188104,188120,188127,188136,188152,188159,188160,188168,188200,188232" d="M187.3,216.86667C185.46666,216.86667 184.68933,216.86667 183.8,216.86667C182.89999,216.86667 181.91066,216.86667 181.01334,216.86667C180.13333,216.86667 179.3,216.86667 178.32167,216.86667C177.46666,216.86667 176.68933,216.86667 175.8,216.86667C174.89999,216.86667 173.9955,216.86667 172.97867,216.86667C172.3,216.86667 171.3215,216.86667 170.50133,216.86667C169.46666,216.86667 168.68933,216.86667 167.77916,216.86667C166.81734,216.86667 166.00983,216.86667 165.01334,216.86667C164.13333,216.86667 163.3,216.86667 162.32167,216.86667C161.46666,216.86667 160.63583,216.86667 159.77916,216.86667C159.06667,216.86667 157.98267,216.86667 156.96666,216.86667C156.27916,216.86667 155.3215,216.86667 154.50133,216.86667C153.46666,216.86667 152.65334,216.86667 151.81599,216.86667C150.95267,216.86667 149.94667,216.86667 149.01466,216.86667C148.19983,216.86667 147.41154,216.79991 146.47467,216.87733C145.45813,216.96133 144.89821,217.5722 143.89999,217.83067C143.02803,218.05644 142.10001,217.86667 141.2,217.86667C140.3,217.86667 139.5,217.86667 138.60001,217.86667C137.7,217.86667 136.88933,217.86667 135.97867,217.86667C135.12534,217.86667 134.18533,217.86667 133.2,217.86667C132.3,217.86667 131.5,217.86667 130.60001,217.86667C129.73599,217.86667 128.85333,217.86667 127.97867,217.86667C127.12534,217.86667 126.18533,217.86667 125.3,217.86667C124.41467,217.86667 123.47467,217.86667 122.784,217.86667C121.74667,217.86667 120.87286,217.61029 120.11467,217.29201C119.20222,216.90897 118.3,216.86667 117.42133,216.86667C116.65334,216.86667 115.63551,216.94753 114.95267,216.80949C114.02698,216.62236 113.38476,215.75334 112.664,215.30267C111.88593,214.81618 111.12537,214.87201 110.06167,214.86667C109.13335,214.86201 108.40439,214.80507 107.47467,214.44133C106.77683,214.1683 105.82584,213.96053 104.8,213.7C104.22578,213.55417 103.31426,213.16199 102.44283,212.98817C101.56155,212.81239 100.64733,212.86667 99.784,212.86667C98.82083,212.86667 97.87866,212.99525 96.96667,212.7C96.23977,212.46466 95.43123,212.14256 94.6045,211.814C93.74908,211.47403 92.99692,210.89526 92.13333,210.86667C91.30046,210.8391 90.3215,210.86667 89.50134,210.86667C88.664,210.86667 87.81467,210.86667 86.8955,210.86667C85.9,210.86667 85.1,210.86667 84.10017,210.86667C83.32083,210.86667 82.3215,210.86667 81.50134,210.86667C80.664,210.86667 79.816,210.86667 78.95267,210.86667C77.936,210.86667 77,210.86667 76.1,210.86667C75.2,210.86667 74.3,210.86667 73.5,210.86667C72.664,210.86667 71.81467,210.86667 70.8955,210.86667C69.90134,210.86667 69.136,210.86667 68.18533,210.86667C67.2,210.86667 66.3,210.86667 65.5,210.86667C64.6,210.86667 63.67485,210.85474 62.9,211.29201C62.1739,211.70177 61.28342,211.89648 60.59017,212.21933C59.78746,212.59314 58.82101,212.85625 57.9,212.86667C57.00006,212.87685 56.1,212.86667 55.2,212.86667C54.3,212.86667 53.6,212.92383 52.8,213.36667C52,213.80949 51.08741,213.71687 50.20016,213.86684C49.34814,214.01083 48.90837,214.73793 48.09867,215.15067C47.3779,215.51807 46.45633,215.75844 45.784,215.95067C44.75684,216.24435 43.98372,216.79559 43.12533,216.856C42.18759,216.922 41.3,216.86667 40.5,216.86667C39.6,216.86667 38.68742,216.71849 37.82084,216.86667C36.97834,217.01073 36.30955,217.75592 35.5,217.86534C34.60623,217.98615 33.8092,218.39719 33.2,218.96651C32.60877,219.51904 31.70005,219.86133 30.8,219.86667C29.90001,219.87199 29,219.86667 28.1,219.86667C27.2,219.86667 26.3,219.86667 25.42133,219.86667C24.65333,219.86667 23.64733,219.86667 22.95267,219.86667C21.94667,219.86667 20.96667,219.86667 20.11467,219.86667C19.18533,219.86667 18.3,219.86667 17.42133,219.86667C16.5955,219.86667 15.7,219.86667 14.8,219.86667C13.91067,219.86667 13.01467,219.86667 12.1,219.86667C11.2,219.86667 10.28746,219.77518 9.54283,219.92383C8.61808,220.10844 7.98504,220.6479 6.936,220.83067C6.11164,220.97429 5.2,220.86667 4.3,220.86667C3.5,220.86667 2.6,220.86667 1.65717,220.86667C0.77917,220.86667 -0.1,220.86667 -1,220.86667C-1.9955,220.86667 -2.69172,221.08707 -3.46167,221.51401C-4.28262,221.96924 -5.04733,221.86217 -6.05333,221.86667L-6.98533,221.86667L-7.9,221.86667" id="svg_33" stroke-width="3" stroke="#000" fill="none"/>
  <path t="213772,213823,213864,213880,213920,213936,213944,214015,214032,214032,214072,214112,214136,214176,214223,214223,214239,214322,214337,214360,214392,214424,214440,214480,214480,214488,214528,214536,214536,214552,214576,214600,214632,214664,214696,214696,214728,214760,214784,214784,214800,214857,214857,214896,214928,214976,215016,215016,215025,215048,215104,215144,215192,215192,215200,215287,215303,215327,215360,215392,215400,215424,215440,215440,215455,215464,215480,215488,215496,215504,215512,215512,215520,215536,215536,215544,215544,215551,215552,215560,215584,215608,215673" d="M288.29999,162.86667C288.29999,163.86667 288.47021,164.91913 288.21466,165.668C287.91214,166.55444 287.31799,167.26611 287.29999,168.16217C287.28137,169.08798 287.39426,169.98291 287.21466,170.752C286.98965,171.71565 286.38583,172.52019 286.29999,173.30267C286.20575,174.16153 285.91348,175.00481 285.58401,175.66667C285.15741,176.52371 285.29999,177.47734 285.29999,178.36667C285.29999,179.26666 285.30008,180.16217 285.29999,181.08817C285.2999,181.96666 285.08221,182.83492 284.72534,183.46666C284.24936,184.3093 284.32092,185.22856 284.29984,186.18784C284.28186,187.00592 283.89313,187.82489 283.29999,188.36667C282.67154,188.94069 282.41641,189.58282 282.26401,190.50267C282.11978,191.37305 281.47961,192.10576 281.29999,193.03334C281.12256,193.94963 281.29999,194.86667 281.29999,195.66667C281.29999,196.58133 281.29999,197.47734 281.29999,198.36667C281.29999,199.26666 281.38583,200.16641 281.29999,201.03334C281.21625,201.87903 280.49905,202.5191 280.32083,203.36667C280.11929,204.3251 280.40012,205.22995 280.29868,206.06667C280.18716,206.98642 279.45871,207.63503 279.3045,208.50951C279.15198,209.37451 278.75681,210.06998 278.42151,210.96666C278.10342,211.81731 277.85388,212.41425 277.38535,213.15199C276.9462,213.84346 277.29999,214.86667 277.29999,215.66667C277.29999,216.7 277.29999,217.47734 277.29999,218.36667C277.29999,219.26666 277.28696,220.1564 276.79999,220.8875C276.3446,221.5712 276.35413,222.45573 275.86401,223.23067C275.33408,224.06853 274.63583,224.46089 274.10132,225.35201C273.68356,226.04846 273.40549,226.85934 273.32083,227.825C273.24463,228.69424 273.24283,229.57117 272.79999,230.36667L272.384,231.06667" id="svg_34" stroke-width="3" stroke="#000" fill="none"/>
  <path t="218242,218384,218424,218456,218464,218504,218560,218560,218592,218656,218704,218736,218736,218744,218806,218848,218872,218955,219008,219056,219057,219096,219104,219136,219192,219200,219232,219289,219304,219321,219374,219408,219432,219432,219448,219488,219512,219528,219553,219553,219584,219616,219632,219664,219696,219713,219772,219808,219817,219840,219857,219864,219880,219905,219928,219945,219945,219953,219969,220000,220000,220009,220025,220049,220057,220073,220096,220120,220168,220200,220232,220233,220264,220273,220304,220312,220329,220353,220369,220385,220385,220400,220416,220417,220433,220457,220473,220496,220497,220528,220591,220606,220672,220755,220771,220771,220856,220871" d="M240.3,256.86667C241.336,255.256 241.88179,254.5435 242.21466,253.668C242.50233,252.91138 243.07367,252.5966 243.52133,251.76666C243.87065,251.11902 244.23337,250.21286 244.72533,249.47734C245.21164,248.75027 245.27292,247.86621 245.3,247.06667C245.3286,246.22238 245.9809,245.5838 246.584,244.95067C247.13087,244.37656 247.20912,243.56194 247.30133,242.66667C247.38503,241.85406 248.10016,241.21407 248.27916,240.36667C248.46521,239.48586 248.12459,238.48938 248.584,237.668C249.02492,236.8797 249.3,236.256 249.3,235.36667C249.3,234.46666 249.3,233.47734 249.3,232.58133C249.3,231.76666 249.27464,230.86627 249.3,230.06667C249.3286,229.16531 249.98553,228.44411 250.24283,227.56667C250.4966,226.70122 250.62424,225.83701 251.01601,225.15199C251.44388,224.40384 251.84319,223.66336 252.1785,222.76666C252.49658,221.91603 252.3,220.98801 252.3,220.16217C252.3,219.26666 252.01091,218.3147 252.31067,217.47734C252.57442,216.74059 253.29466,216.25604 253.3,215.26666C253.30486,214.36668 253.18285,213.46947 253.30133,212.58133C253.41292,211.74489 254.14619,211.09987 254.28934,210.26666C254.45258,209.31653 254.3,208.42383 254.3,207.68134C254.3,206.62384 254.3,205.76683 254.3,204.84134C254.3,204.06534 254.3,203.16667 254.3,202.26666C254.3,201.30267 254.3,200.43066 254.3,199.56216C254.3,198.7 254.3,197.8875 254.3,196.85201C254.3,196.06534 254.71271,195.04324 254.24283,194.22383C253.8484,193.53601 253.1526,193.0995 252.72533,192.23067C252.32191,191.41037 252.45622,190.41765 251.94284,189.62833C251.46526,188.89404 250.38182,188.92668 249.82083,188.34584C249.19095,187.69366 249.52103,186.58069 249.07851,185.76683C248.6748,185.02437 247.8102,184.68129 247.216,184.15067C246.61467,183.61366 245.77779,183.24684 245.01466,182.58267C244.33473,181.99091 243.60001,181.814 242.8,181.36667L242.0045,180.92383" id="svg_35" stroke-width="3" stroke="#000" fill="none"/>
  <path t="265225,265521,265623,265665,266005" d="M185.3,111.86667C185.26401,110.87733 184.49867,110.86667 183.58533,111.03733L183.34166,111.86667" id="svg_37" stroke-width="3" stroke="#000" fill="none"/>
  <polyline timestamps="270238,270790" startTime="1502004429969" id="svg_39" points="177.3,110.8666669845581 176.49866666666665,110.86666698455811 " stroke-linecap="round" stroke-width="3" stroke="#000" fill="none"/>
  <path t="282556,282730,282776,282800,282828,282833,282848,283046,283103,283144,283220,283352,283352,283405,283454,283520,283570,283586,283586,283617,283671,283752,283768,283853,283912,283912,283970,283970,284016,284056,284056,284072,284096,284112,284152,284168,284192,284200,284248,284248,284304,284344,284376,284400,284424,284519,284602,284602,284618,284687,284720,284744,284784,284792,284808,284840,284872,284880,284912" d="M250.3,97.86667C249.38533,98.152 249.4108,98.97351 249.3,99.86667C249.18848,100.76574 248.39079,100.95652 248.3,101.86667C248.21565,102.7123 247.34271,103.14902 247.3,104.06533C247.26024,104.91841 247.3,105.86667 247.3,106.66666C247.3,107.56667 247.45795,108.44705 247.28934,109.30267C247.10966,110.21436 246.4227,110.85883 246.30133,111.66666C246.16483,112.57523 245.35483,112.87842 245.3,113.668C245.23645,114.58311 244.5937,115.09621 244.13333,115.86667C243.70341,116.58616 242.73206,116.53493 241.91066,116.87733C241.15059,117.19417 240.80501,118.00546 240.15067,118.47733C239.33237,119.06743 238.89999,119.58414 238.0045,119.87117C237.24365,120.11504 236.77934,120.85625 235.89999,120.86667C235.00456,120.87728 234.23648,121.161 233.584,121.58266C232.86116,122.04979 231.98207,122.45582 231.2,122.74517C230.34827,123.0603 229.36415,122.84576 228.77916,123.3875C228.07513,124.03947 227.53166,124.7177 226.60001,124.86217C225.74619,124.99456 224.85014,124.71409 223.89999,124.87733C223.0668,125.02048 222.24742,125.53104 221.46666,125.86667C220.78899,126.15798 220,126.8095 219.2,126.86667L218.3,126.86667" id="svg_40" stroke-width="3" stroke="#000" fill="none"/>
  <path t="290027,290214,290214,290257,290313,290316,290419,290456,290473,290633" d="M219.3,124.86667C219.13333,125.86667 218.50681,126.35959 217.82083,126.86667C217.16202,127.35367 216.87466,128.256 216.13333,128.86667L215.3,128.86667L214.49867,128.86667L213.58533,128.86667" id="svg_41" stroke-width="3" stroke="#000" fill="none"/>
  <path t="294530,294586,294633,294672,294697,294704,294819" d="M249.3,99.86667C249.94733,99.16217 250.28934,98.26667 250.32083,97.3875L250.87466,96.84133L251.2955,96.16217L251.3,95.22383" id="svg_42" stroke-width="3" stroke="#000" fill="none"/>
  <path t="295670,296034,296072,296151,296151,296282,296336,296439,296472,296480,296588,296588,296643,296643,296784,296902,296954,297019,297057,297072,297268,297352,297392,297485,297537,297538,297650,297786,297832,297864,297864,297920,297960,297968,297976,298068,298104,298144,298203,298269,298285,298304,298344,298368,298467,298536,298552,298576,298600,298669,298712,298752,298820,298820,298836,298966,299020,299036,299056,299072,299096,299120,299136,299152,299160,299176,299184,299200,299224,299248,299288,299639" d="M257.29999,100.86667C257.26401,102.47733 256.8732,103.27549 256.20016,103.9665C255.66437,104.51661 255.3,105.30267 255.3,106.26667C255.3,107.16666 255.37427,108.06857 255.3,108.91933C255.21635,109.87757 254.63228,110.47087 254.384,111.34933C254.16127,112.13744 253.76071,112.87784 253.27916,113.36667C252.69287,113.96182 252.31938,114.66821 252.3,115.56667C252.28136,116.43121 251.45313,116.82026 251.3,117.47733C251.0981,118.3437 250.99838,119.24084 250.20016,119.74533C249.43085,120.23155 249.65178,121.29657 249.01466,121.78133C248.28349,122.33766 247.1631,121.90294 246.65717,122.57117C246.1308,123.26638 246.13974,124.42526 245.27467,124.856C244.57472,125.20453 243.76225,125.61136 242.89999,125.83067C242.03125,126.05163 241.55792,126.54034 240.94284,126.86667C240.11394,127.30645 239.31552,127.28318 238.8,127.86667C238.23643,128.50455 237.46646,128.84843 236.5955,128.86667C235.73543,128.88467 235.19051,129.53673 234.49867,129.95067C233.70331,130.42654 233.51193,131.5153 232.77916,131.84584C231.97752,132.20744 230.95915,131.80556 230.32533,132.29201C229.67209,132.79337 228.864,132.86424 227.89999,132.86667C227.00449,132.86893 226.49792,133.53665 225.8,133.84584C224.944,134.22505 224,133.86667 223.10001,133.86667C222.20016,133.86667 221.2616,133.69247 220.49867,133.952C219.61191,134.25365 218.89999,134.83067 218.0045,134.86667L217.07851,134.86667L216.2,134.86667" id="svg_43" stroke-width="3" stroke="#000" fill="none"/>
 </g>
</svg>