<svg width="500.00000000000006" height="332.409972299169" xmlns="http://www.w3.org/2000/svg" xmlns:svg="http://www.w3.org/2000/svg" xmlns:xlink="http://www.w3.org/1999/xlink">
 <!-- Created with SVG-edit - http://svg-edit.googlecode.com/ -->
 <g display="inline" class="layer">
  <title>Layer 1</title>
  <path t="0,333,350,366,366,383,436,452,468,468,500,516,533,533,533,566,583,583,604,604,633,683,699,699,699,733,733,749,766,770,789,816,833,833,849,866,883,899,916,933,933,951,951,972,988,988,1004,1020,1045,1045,1068,1068,1092,1100,1100,1117,1117,1133,1149,1166,1166,1183,1183,1183,1199,1199,1199,1216,1233,1233,1249,1249,1249,1266,1266,1266,1283,1299,1299,1316,1316,1333,1333,1333,1697,1697,1713,1713,1729,1729,1749,1749,1749,1782,1783,1783,1798,1799,1799,1819,1820,1820,1844,1865,1883,1883,1899,1899,1915,1932,1949,1949,1965,1966,1987,2019,2019,2032,2048,2065,2066,2083,2083,2099,2115,2132,2133,2133,2155,2165,2166,2182,2198,2199,2215,2216,2232,2233,2248,2266,2266,2266,2266,2283,2298,2299,2299,2315,2316,2347,2347,2383,2398,2399,2415,2416,2433,2448,2449,2465,2466,2466,2483,2483,2483,2483,2498,2499,2499,2515,2516,2532,2533,2533,2548,2549,2565,2566,2566,2582,2598,2619,2620,2633,2633,2648,2649,2649,2665,2666,2683,2683,2699,2699,2700,2715,2716,2732,2748,2749,2765,2766,2782,2783,2798,2799,2799,2815,2832,2848,2849,2865,2866,2883,2883,2899,2915,2932,2965,2982,2983,2998,2999,3015,3033,3033,3048,3049,3049,3065,3066,3066,3066,3083,3083,3083,3099,3099,3099,3115,3116,3116,3132,3133,3148,3149,3149,3166,3166,3166,3182,3183,3198,3199,3199,3215,3216,3232,3233,3248,3265,3292,3315,3316,3316,3332,3333,3333,3348,3349,3366,3366,3366,3383,3416,3416,3432,3433,3433,3449,3449,3466,3466,3483,3483,3483,3499,3516,3532,3533,3549,3566,3566,3582,3598,3599,3599,3615,3632,3633,3649,3649,3666,3683,3683,3683,3699,3699,3699,3700,3716,3716,3747,3748,3771,3772,3800,3816,3817,3833,3834,3850,3851,3867,3884,3924,3966,3967,3967,3983,3999,4020,4020,4044,4044,4066,4084,4100,4116,4117,4117,4134,4134,4134,4134,4150,4184,4184,4184,4200,4200,4217,4249,4250,4267,4267,4284,4284,4285,4300,4316,4317,4333,4349,4350,4372,4373,4399,4400,4428,4450,4450,4467,4484,4500,4516,4533,4534,4534,4534,4550,4566,4567,4583,4600,4617,4617,4634,4634,4650,4650,4667,4667,4684,4684,4700,4701,4717,4717,4733,4734,4750,4818,4818,4849,4866,4866,4883,4884,4900,4901,4917,4917,4934,4951,4952,4982,4983,5004,5004,5004,5043,5116,5116,5182,5183,5216,5249,5300,5333,5333,5364,5364,5396,5396,5409,5424,5440,5531,5531,5582,5583,5599,5648,5649,5748,5804,5826,5827,5849,5868,5868,5886,5901,5917,5934,6143,6143,6143,6158,6205,6205,6233,6316,6364,6450,6450,6516,6548,6600,6700,6734,6735,6780,6781,6815,6833,6876,6908,6964,6987,7015,7044,7044,7068,7083,7115,7165,7264,7333,7401,7401,7483,7613,7629,7700,7700,7732,7784,7784,7799,7821,7868,7892,7915,7916,7934,7965,7966,7984,8000,8000,8020,8048,8049,8067,8084,8084,8132,8132,8165,8166,8217,8217,8316,8382,8416,8449,8481,8482,8531,8580,8616,8643,8658,8717,8749,8750,8847,8899,8923,8924,8944,8962,8979,9036,9036,9059,9060,9076,9099,9182,9182,9236,9268,9269,9283,9317,9366,9367,9433,9476,9524,9524,9583,9732,9765,9785,9802,9818,9819,9835,9836,9837,9884,9908,9940,9941,9956,9983,10143,10143,10174,10175,10191,10209,10209,10229,10231,10249,10267,10299,10317,10317,10334,10335,10351,10368,10385,10386,10416,10434,10434,10434,10466,10515,10533,10534,10564,10565,10580,10633,10667,10686,10716,10734,10750,10751,10767,10799,10817,10817,10818,10833,10850,10867,10883,10884,10900,10917,11047,11100,11100,11120,11121,11122,11138,11139,11140,11140,11156,11157,11343,11343,11343,11399,11399,11576,11620,11635,11666,11667,11683,11684,11701,11702,11718,11734,11752,11769,11770,11786,11802,11819,11820,11837,11853,11870,11871,11900,11900,11924,11950,12079,12110,12111,12183,12228,12252,12282,12299,12300,12317,12318,12334,12334,12335,12336,12351,12368,12385,12386,12387,12449,12475,12476,12492,12497,12514,12514,12531,12551,12551,12804,12996,12997,13021,13052,13092,13307,13307,13322,13322,13338,13339,13358,13359,13360,13360,13361,13361,13362,13362,13379,13380,13380,13381,13382,13382,13383,13383,14452,14452,14452,14488,14506,14510,14510,14511,14677,14700,14701,14718,14719,14720,14720,14721,14721,14722,14739,14740,14741,14741,14742,14742,14894,14894,14927,14929,14948,14949,14950,14951,14951,14968,14969,14970,14970,14971,14988,14989,14990,14991,15012,15066,15067,15091,15092,15115,15132,15133,15150,15167,15168,15185,15186,15344,15383,15385,15386,15403,15404,15405,15591,15591,15591,15591,15626,15644,15645,15645,15698,15699,15700,15732,15732,15751,15796,15812,15813,15844,15899,15932,15964,16095,16166,16182,16211,16228,16246,16247,16247,16248,16265,16266,16267,16331,16332,16356,16378,16379,16431,16456,16457,16477,16478,16495,16496,16497,16514,16532,16550,16551,16569,16586,16607,16625,16648,16666,16667,16684,16702,16703,16724,16725,16742,16743,16761,16762,16779,16780,16798,16817,16818,16848,16865,16866,16884,16885,16886,16902,16907,16924,16925,16942,16965,17049,17049,17089,17091,17110,17111,17112,17132,17133,17133,17134,17247,17247,17289,17290,17314,17315,17316,17348,17349,17349,17366,17367,17386,17408,17424,17425,17443,17461,17532,17533,17561,17585,17607,17624,17642,17667,17668,17699,17731,17751,17752,17769,17819,17820,17848,17849,17881,18188,18658,18658,18690,18691,18692,18732,18733,18733,18784,18850,18883,18884,18904,18922,18923,18941,18942,18959,18960,18961,18978,19015,19016,19037,19068,19115,19116,19149,19168,19199,19252,19252" d="M42.3,224.40498C41.336,223.79433 41.87133,223.05338 42.1785,222.08382C42.37954,221.44925 42.3,220.39032 42.3,219.60365C42.3,218.64783 42.00023,217.66028 42.38533,216.97432C42.84552,216.15463 43.30507,215.71507 43.52133,214.86249C43.70001,214.15808 43.95637,213.23518 44.35717,212.29065C44.68806,211.51086 45.10133,210.80232 45.49866,210.00766C45.94283,209.11932 46.15762,208.16777 46.584,207.48631C47.00824,206.80827 47.21016,206.12517 47.29867,205.25699C47.40337,204.22989 48.03989,203.61212 48.32533,202.76898C48.60934,201.93007 48.80268,201.15054 49.5955,200.51932C50.22916,200.01482 50.3,199.30482 50.3,198.51965C50.3,197.59032 50.44528,196.82022 51.016,196.31966C51.62123,195.78882 51.86842,194.9165 52.39983,194.08365C52.81804,193.42822 53.08767,192.39806 53.35266,191.70949C53.68984,190.83336 54.05943,190.05316 54.32533,189.26633C54.61323,188.41441 55.73938,188.14478 56.13334,187.40498C56.50385,186.7092 56.61623,185.7303 57.0045,185.05765C57.54088,184.1284 58.21008,183.41743 58.2955,182.64783C58.3938,181.76221 58.5297,181.08806 59.016,180.32233C59.43815,179.65759 59.23277,178.6299 59.34167,177.90498C59.52031,176.71576 60.04312,176.24352 60.65183,175.59966C61.31654,174.89658 61.6927,174.16824 61.93833,173.41032C62.2685,172.39156 62.23397,171.39764 62.35717,170.59065C62.50549,169.61905 62.81774,168.86765 62.94733,168.29599C63.21547,167.11327 63.27058,166.23723 63.2955,165.47649C63.32992,164.42609 63.7007,163.70912 63.94733,162.99599C64.28293,162.0256 64.24392,161.18552 64.5215,160.20499C64.75417,159.38312 65.12616,158.81688 65.5955,157.80499C65.96247,157.01381 66.24755,156.00739 66.28934,155.20499C66.34134,154.20645 66.16071,153.34062 66.63333,152.57166C67.03719,151.91457 67.75793,151.64465 68.49983,150.86232C69.13378,150.19383 69.44575,149.64206 70.13333,148.73833C70.66088,148.04494 71.19101,147.4422 71.784,146.63832C72.30622,145.93037 72.77512,145.21254 73.53833,144.57199C74.21371,144.00516 74.60133,143.21538 75.0045,142.64783C75.62514,141.77414 75.90097,140.98796 76.7,140.46632C77.42905,139.99037 78.11548,139.39958 78.35267,138.64783C78.63599,137.74986 78.86963,136.91495 79.77917,136.44666C80.56084,136.04419 81.63957,136.29129 82.25833,135.40498C82.69799,134.77522 82.53701,133.6597 83.06167,133.11482C83.80415,132.34372 84.82336,132.40231 85.34817,131.70049C85.83064,131.05527 86.30687,130.24245 86.7,129.57965C87.10715,128.89319 87.63474,127.88956 88.62117,127.52632C89.24905,127.29511 90.21267,127.04617 90.30033,126.08382C90.36014,125.42724 90.87653,124.59874 91.65183,124.35682C92.55208,124.0759 93.06876,123.57143 93.84167,122.88416C94.60516,122.20525 95.29929,121.7476 95.8,121.42582C96.52351,120.96085 97.55846,120.63835 98.46667,120.07166C99.18156,119.62557 99.68298,119.04392 100.05733,118.20532C100.4542,117.3163 100.85512,116.49916 101.59467,116.41399C102.58021,116.30048 103.4894,116.28764 104.3,115.88416C105.16056,115.4558 105.76497,114.90156 106.5,114.48766C107.2857,114.04523 107.72931,113.24222 108.63333,112.73832C109.25938,112.38936 110.12712,112.42997 111.3,112.23832C111.90233,112.1399 112.78744,111.90768 113.61467,111.60365C114.62559,111.23211 115.29989,110.91728 115.89867,110.51965C116.73127,109.96674 117.22145,109.29453 118.3,108.73832C118.86768,108.44556 119.69997,108.40948 120.70133,108.40498C121.536,108.40123 122.72151,108.42451 123.504,108.39432C124.23394,108.36616 125.08062,107.82285 125.74667,107.43032C126.52973,106.96882 127.30019,106.83675 128.3,106.57166C129.077,106.36565 130.15677,106.09512 130.67467,105.55432C131.20924,104.99611 131.95233,104.46516 132.90134,104.40765C133.69987,104.35926 134.536,104.40498 135.72116,104.40498C136.51466,104.40498 137.29016,104.40498 138.32933,104.40498C139.09734,104.40498 139.94962,104.40994 140.95717,104.05232C141.51918,103.85284 142.49544,103.47726 143.464,103.41566C144.41548,103.35514 145.11636,103.37383 146.06799,103.12099C146.80562,102.925 147.51373,102.58631 148.62801,102.44099C149.59697,102.31461 150.46666,102.40498 151.3,102.40498C152.27867,102.40498 153.05267,102.40498 153.95267,102.40498C154.81599,102.40498 155.77916,102.40498 156.7,102.40498C157.5955,102.40498 158.46666,102.40498 159.40016,102.40498C160.18533,102.40498 161.12534,102.40498 161.81599,102.40498C162.8,102.40498 163.78534,102.40498 164.51067,102.40498C165.50034,102.40498 166.34166,102.40458 167.07066,102.40498C168.26933,102.40565 168.96184,102.40396 169.68533,102.44099C170.41803,102.47849 171.81844,102.67013 172.45334,102.84099C173.34639,103.08132 174.3735,103.51752 175.07466,103.79432C175.74794,104.06011 176.7189,104.31072 177.52533,104.36899C178.34579,104.42827 179.37849,104.40498 180.27916,104.40498C181.3,104.40498 182.1282,104.34618 182.98534,104.57565C183.74313,104.77853 184.50809,105.26734 185.29016,105.69965C186.1503,106.17512 186.95755,106.39197 187.84283,106.62649C188.56767,106.8185 189.35982,107.08936 190.37833,107.50482C191.26563,107.86676 192.12187,108.31142 192.88933,108.39432C193.7948,108.49213 194.7,108.40498 195.60451,108.40498C196.46666,108.40498 197.34166,108.40498 197.98666,108.40498C198.98399,108.40498 199.8,108.40199 200.616,108.40498C201.84286,108.40948 202.54437,108.35207 203.49983,108.84766C204.13625,109.17776 204.72357,110.0416 205.65334,110.33298C206.591,110.62685 207.34166,110.40498 208.3,110.40498C209.10001,110.40498 209.89999,110.40498 210.89999,110.40498C211.7,110.40498 212.70134,110.40498 213.536,110.40498C214.72116,110.40498 215.51466,110.40449 216.29016,110.40498C217.328,110.40565 217.92473,110.79977 218.63333,111.23832C219.36986,111.69415 220.46809,111.2266 221.3,111.57166C222.08435,111.89698 222.84149,112.39457 223.8425,112.40498C224.53996,112.41224 225.2375,112.40498 226.40083,112.40498C227.172,112.40498 227.90266,112.40498 229.08934,112.40498C229.81467,112.40498 230.82094,112.39043 231.843,112.40532C232.57224,112.41594 233.42856,112.45121 234.3,112.73832C235.21704,113.04045 235.74417,113.43128 236.52933,113.83699C237.47862,114.32751 238.27293,114.46937 239.30533,114.75765C240.05313,114.96647 240.95799,115.29769 241.75833,115.38416C242.70567,115.4865 243.6185,115.63332 244.3,115.90498C245.27472,116.29353 246.05266,116.40273 246.95267,116.40498C247.81599,116.40714 248.77916,116.40363 249.68933,116.40498C250.58667,116.40632 251.47688,116.72556 252.12534,117.25565C252.6559,117.68938 253.55156,118.22846 254.39734,118.44099C255.16815,118.63467 256.12299,118.86147 256.79999,119.40498C257.5184,119.98173 258.10202,120.36983 259,120.40498C259.93805,120.4417 260.78589,120.97824 261.36249,121.44666C261.8172,121.81604 262.93604,122.61537 263.59634,122.99599C264.25226,123.37406 264.8176,123.83893 265.95868,124.23432C266.76981,124.51538 267.63956,124.21635 268.448,124.57565C269.2446,124.9297 269.1452,126.07455 269.82083,126.86332C270.35504,127.48699 271.28644,127.43578 272.30533,127.76665C273.06311,128.01274 274.00577,128.53267 274.48566,129.05315C275.03949,129.65382 275.77023,130.21756 276.60001,130.76215C277.15915,131.1291 277.76498,132.0248 278.62149,132.28349C279.47928,132.54259 280.52405,132.25139 281.25833,132.44666C282.12222,132.67639 282.09436,133.68561 282.58533,134.51833C283.10056,135.39221 283.99957,135.45842 284.79999,135.90498C285.59506,136.34857 286.49426,136.25119 287.34167,136.46748C288.3624,136.72801 288.90091,137.45836 289.27917,137.90498C289.82248,138.54645 290.69183,139.25163 291.50134,139.68898C292.2131,140.07352 293.14716,140.16908 293.96667,140.40498C294.82532,140.65215 295.25525,141.49411 296.13333,142.07166C296.74054,142.47104 297.4313,143.03264 297.936,143.55432C298.6925,144.33627 299.51114,144.36829 300.49985,144.40532C301.27972,144.43454 302.32132,144.81335 302.77917,145.42583C303.35703,146.19881 303.7796,146.90453 304.39999,147.50482C304.98154,148.06754 306.04584,148.29216 306.52151,148.84766C307.04623,149.46043 307.70685,150.16954 308.39999,150.84766C308.89035,151.32739 309.57782,152.00027 310.01468,152.65833C310.48035,153.35977 310.16116,154.46722 310.58533,155.43298C310.88156,156.1075 311.89966,156.31822 312.5,156.97432C312.99582,157.51619 313.54456,158.49225 314,159.21481C314.44516,159.92105 314.71857,160.64633 314.94284,161.39966C315.29361,162.57787 315.47302,163.4003 315.94733,164.04782C316.52917,164.84215 316.99542,165.55467 317.21466,166.51965C317.41171,167.38698 317.29999,168.23833 317.29999,169.11932C317.29999,169.81398 317.29999,170.80232 317.29999,171.69066C317.29999,172.73833 317.29999,173.42583 317.29999,174.51965C317.29999,175.40498 317.33447,176.25262 317.01468,176.97565C316.63553,177.83284 316.19971,178.60443 315.82083,179.36333C315.3848,180.23671 315.29999,181.11482 315.29999,181.92232C315.29999,182.88416 315.21066,183.9408 315.86801,184.32233C316.64639,184.77411 317.10287,185.30858 317.46667,186.23833C317.72842,186.9073 318.67358,187.19893 319.49866,187.68898C320.22037,188.11763 321.01639,188.44061 321.49866,189.25832C321.86649,189.88199 322.11899,190.61951 322.26401,191.72232C322.39655,192.73029 322.29999,193.42583 322.29999,194.38348C322.29999,195.40498 322.29999,196.23833 322.29999,197.11482C322.29999,197.92232 322.61203,198.94321 322.28934,199.79433C322.01288,200.52353 320.79224,200.28487 320.20001,200.84782C319.55121,201.46457 319.13876,202.34135 318.73599,202.99432C318.21579,203.83769 317.72537,204.39964 316.77917,204.40498C315.89999,204.40994 315.00421,204.38309 314.13068,204.40498C313.29919,204.42583 312.66278,204.89859 312.25183,205.69965C311.87991,206.42461 310.7392,206.3596 310.27466,207.01566C309.76593,207.7341 309.10303,208.36227 308.20001,208.40498C307.30099,208.44751 306.5,208.40498 305.664,208.40498C304.65634,208.40498 303.79999,208.40498 304.62115,208.40498C305.43866,208.40498 306.38266,208.40498 307.29999,208.40498C308.10001,208.40498 309,208.40498 309.86401,208.40498C310.82083,208.40498 311.71066,208.40498 312.62115,208.40498C313.43866,208.40498 314.60925,208.10591 315.13333,208.73833C315.66821,209.38377 315.74545,210.34985 316.62115,210.40515C317.43781,210.45673 318.08316,210.93341 318.58667,211.60365C319.06198,212.23637 320.12485,212.38698 321.13333,212.40498C321.9382,212.41936 322.90659,212.25589 323.65182,212.51932C324.48929,212.81534 324.80884,213.64862 325.5,214.51833C325.95108,215.08591 326.98038,215.30077 327.68933,215.83032C328.40192,216.36258 328.33215,217.26686 328.29999,218.23833C328.27139,219.1019 327.71347,219.81937 327.21466,220.57565C326.79608,221.21031 326.32745,221.99411 325.72534,222.44098C325.03769,222.95134 324.62613,223.77853 323.78265,224.11966C322.97391,224.44675 322.23444,224.6675 321.94284,225.46298C321.61597,226.35475 320.99939,227.0363 320.384,227.68898C319.84177,228.26407 319.1073,228.7263 318.79999,229.42583C318.38583,230.36861 318.75949,231.28473 318.18567,232.04782C317.69696,232.69771 316.46646,232.38599 315.66165,232.40498C314.77844,232.42583 314.17819,233.03352 313.60001,233.69965C312.97647,234.41797 312.18826,234.84746 311.29999,235.23833C310.62857,235.53377 309.84854,235.64703 309.216,236.12099C308.44852,236.69606 307.5,236.40498 306.58533,236.40498C305.68933,236.40498 304.79999,236.4095 303.89999,236.40498C303.00446,236.40048 302.43225,235.82132 302.23868,235.18365C301.93365,234.17889 301.40128,233.66626 300.86801,232.97565C300.24017,232.16252 300.39902,231.181 300.13333,230.23833C299.94406,229.56676 299.45667,228.74574 298.94733,228.04782C298.41068,227.31248 298.2951,226.4857 297.86401,225.59032C297.55334,224.94501 296.59116,224.39394 296,225.11932C295.49362,225.74071 295.25903,226.63884 294.79999,227.36333C294.26535,228.20712 293.19705,227.99263 292.42133,228.40532C291.66583,228.80725 291.62244,229.77496 291.10132,230.51965C290.61008,231.22165 290.25742,232.25551 289.53833,232.40048C288.66492,232.57658 287.75467,232.20465 286.79999,232.44666C285.91403,232.67123 285.33679,233.45322 284.784,233.83699C283.87402,234.46869 283.09369,234.94026 282.19983,235.28349C281.45831,235.56822 280.47467,235.40498 279.784,235.40498C278.74667,235.40498 277.86401,235.40498 277,235.40498C276.10001,235.40498 274.97699,235.74805 274.384,235.11832C273.75674,234.45218 273.87943,233.38187 273.42133,232.64783C272.95102,231.89423 272.44754,231.07465 272.35266,230.40416C272.22061,229.47089 271.68365,228.75414 271.336,227.96899C270.98404,227.17416 271.29999,226.23833 271.29999,225.42583C271.29999,224.39032 271.30722,223.60362 271.29999,222.64783C271.29324,221.75674 271.11658,220.80695 270.224,220.51932C269.465,220.27473 268.81067,220.40633 267.77884,220.40498C266.68533,220.40356 265.96133,220.40498 265.26935,220.40498C264.06934,220.40498 263.32083,220.40498 262.13333,220.40498C261.35184,220.40498 260.56116,220.42329 259.63333,220.40498C258.72083,220.38698 257.86136,220.00079 257.384,219.20631C256.96878,218.51521 256.11884,218.52362 255.3,218.36333C254.43353,218.19371 253.9736,217.25015 253.3,216.73833C252.61075,216.2146 251.60001,216.40498 250.7,216.40498C249.77916,216.40498 248.97867,216.40498 248.12534,216.40498C247.18533,216.40498 246.2,216.40498 245.3,216.40498C244.5,216.40498 243.60001,216.40498 242.664,216.40498C241.81467,216.40498 241.08934,216.40498 240.10033,216.40498C239.172,216.40498 238.21733,216.40498 237.41333,216.40498C236.47467,216.40498 235.46666,216.40498 234.66167,216.40498C233.77916,216.40498 232.89491,216.50024 232.0045,216.40498C231.20232,216.31917 230.8165,215.55353 230.584,214.80232C230.27899,213.81686 230.30417,212.89066 230.3,212.07166C230.2951,211.10866 230.41182,210.42723 230.21466,209.54366C229.9635,208.41805 229.31042,207.84265 229.3,206.86249C229.29259,206.16504 229.40051,205.25336 229.3,204.23833C229.21626,203.39261 228.65392,202.79253 228.10001,201.92099C227.67189,201.24738 227.10216,200.49109 226.65717,199.70949C226.21622,198.93498 226.30061,198.08365 226.3,197.23032C226.29933,196.29031 226.19263,195.17639 225.5955,194.76215C224.80655,194.21483 223.76453,194.63474 222.89999,194.38365C222.11513,194.1557 221.71033,193.12814 220.96666,192.73833C220.31409,192.39626 219.2988,192.41809 218.47067,192.40765C217.46674,192.395 216.8925,192.40498 215.61417,192.40498C214.92,192.40498 214.19583,192.40498 213.44667,192.40498C212.67751,192.40498 211.89333,192.40498 210.3,192.40498C209.50116,192.40498 208.70934,192.40498 207.9315,192.40498C207.17467,192.40498 206.44583,192.40498 205.752,192.40498C204.49733,192.40498 203.05051,192.40498 202.40016,192.40498C201.50934,192.40498 200.592,192.40498 199.536,192.40498C198.942,192.40498 197.976,192.40498 197.35201,192.40498C196.17149,192.40498 195.17918,192.48122 194.48399,192.26099C193.2502,191.87015 192.87219,191.51802 191.866,190.99432C191.3058,190.70276 190.71935,190.39943 190.108,190.10632C189.49001,189.81003 187.63734,189.05801 187.04367,188.89082C186.47951,188.73193 185.41566,188.53107 184.925,188.46748C184.03928,188.35271 182.56874,188.39355 181.90416,187.88416C181.1353,187.29483 180.89749,186.4817 180.1925,186.08348C179.53352,185.71124 178.69766,185.37975 177.7775,185.00049C177.29428,184.80133 175.79976,184.20685 175.304,184.00499C174.33051,183.60863 173.85193,183.42773 172.9715,183.00499C171.78497,182.43527 171.14778,182.0208 170.61867,181.62631C169.77357,180.99625 168.92738,180.44101 167.97867,180.40498C167.30049,180.37923 166.28325,180.58144 165.50133,180.31966C164.70163,180.05193 163.98584,179.29276 163.32083,178.92583C162.37099,178.40173 162.04465,177.61127 161.53833,177.11032C160.77829,176.35834 159.94557,176.5164 158.92534,176.39432C157.96202,176.27904 157.26236,175.87469 156.61333,175.60365C155.62062,175.1891 154.77229,174.90047 154.1955,174.64783C152.98495,174.11761 152.40965,173.75571 151.57201,173.26633C151.07104,172.97365 149.95251,172.44429 148.96666,172.40498C148.29068,172.37804 147.50223,172.44562 146.46666,172.23833C145.5195,172.04872 144.92294,171.67502 143.90134,171.49033C143.14464,171.35353 142.05716,171.40498 141.2,171.40498C140.3,171.40498 139.52257,171.2807 138.7,170.83032C137.9196,170.40303 137,170.40498 136.10001,170.40498C135.20016,170.40498 134.4989,170.47171 134.21466,171.20631C133.88048,172.07001 132.7962,172.31818 132.13333,173.07166C131.75815,173.49812 131.29865,174.43668 131.00983,175.10866C130.60153,176.05861 130.4464,176.88597 130.30267,177.83165C130.16409,178.74353 129.79901,179.4045 129.35266,180.29965C128.94643,181.11438 128.76831,181.8031 128.31467,182.76898C127.94624,183.55344 127.11476,183.7845 126.54266,184.72649C126.15841,185.35919 126.01793,186.44095 125.59016,186.99599C125.01275,187.74519 124.01826,187.88507 123.3,188.44666C122.57252,189.01546 122.64149,189.94119 122.3,190.88416C121.99721,191.72028 121.32313,192.33472 120.49866,192.40498C119.59603,192.48192 119.01206,193.1225 118.6,193.75682C118.01686,194.65451 117.29531,195.22273 116.54283,195.45766C115.64133,195.73911 114.95719,196.0661 114.04816,196.35683C113.33405,196.58521 112.29523,197.10403 111.82083,197.40498C110.79129,198.05812 110.12331,198.46861 109.43867,198.84099C108.45146,199.37793 107.90038,200.05806 107.09866,200.31966C106.17738,200.62027 105.27908,200.39175 104.3,200.40498C103.51045,200.41565 102.71866,200.4946 102.05267,201.11032C101.48264,201.63733 100.65274,202.3364 99.95267,202.39598C98.93947,202.48222 98.07999,202.90269 97.3,203.23833C96.58871,203.54439 95.63454,203.36813 94.83833,203.46216C93.87112,203.57639 93.0591,203.85558 92.13834,204.05232C91.13882,204.2659 90.41946,204.33324 89.696,204.36899C88.66777,204.4198 87.52739,204.21767 86.8625,204.44666C85.98473,204.74896 85.75766,205.68213 84.97833,206.38348C84.32647,206.97012 83.62309,207.22888 82.616,207.60365C81.80732,207.9046 81.26662,208.12369 79.988,208.31966C79.18855,208.44218 78.28412,208.26131 77.44933,208.42632C76.59229,208.59572 76.60496,209.8484 75.864,210.33299C75.14216,210.80508 74.1354,210.57373 73.5955,211.10948C72.90265,211.797 72.10303,212.36227 71.20016,212.40498C70.35361,212.44504 69.53787,212.46643 69,213.11032C68.4345,213.78728 67.63609,214.31592 66.9,214.84099C66.22962,215.3192 65.67419,215.91824 64.82083,216.38416C64.05263,216.80357 63.82909,217.45784 63.20016,218.38348C62.76901,219.01805 62.47117,219.90466 61.94283,220.41399C61.32345,221.01109 60.79172,221.44238 60.3,222.40498C59.90397,223.18027 59.54209,223.81708 59.13334,224.90498C58.92496,225.45958 58.66266,226.40692 58.42133,227.26183C58.14475,228.24162 57.40123,228.72765 57.32084,229.42583C57.19569,230.5127 57.13667,231.40732 56.68933,232.04099C56.20361,232.72905 55.79584,233.42372 55.3,234.40498C54.90737,235.18199 54.54335,235.81676 54.216,236.65833C53.90691,237.45293 53.59234,238.39014 53.4215,239.26183C53.23225,240.22749 53.52628,241.17557 53.21467,241.83699C52.82847,242.65672 52.216,243.20631 51.72533,243.96899L51.13334,244.73833L50.8,245.42583" id="svg_1" stroke-width="3" stroke="#000" fill="none"/>
  <path t="20143,20385,20385,20402,20402,20432,20461,20461,20486,20517,20534,20601,20638,20638,20656,20656,20700,20700,20716,20733,20750,20780,20780,20800,20800,20850,20850,20932,20950,20966,21012,21013,21033,21034,21066,21066,21091,21110,21110,21133,21133" d="M42.3,215.40498C42.01467,216.97565 41.68933,217.62631 41.20016,218.60466C40.82084,219.36333 40.38938,220.15811 40.29867,220.97432C40.21201,221.75401 39.72886,222.69714 39.4215,223.50482C39.10022,224.34909 38.3286,224.41257 38.3,225.27699C38.27584,226.00726 38.3,226.99599 38.3,227.83432C38.3,228.84782 38.3,229.59032 38.3,230.51965C38.3,231.50482 38.3,232.36131 38.3,233.25832C38.3,233.92583 38.3,235.07166 38.3,235.84248C38.3,236.84782 38.3,237.59032 38.3,238.51965C38.3,239.50482 38.3,240.36131 38.3,241.25832C38.3,241.92583 38.3,243.07166 38.3,243.84248C38.3,244.84782 38.29992,245.59032 38.3,246.51965C38.30008,247.50516 38.38533,248.29031 38.65717,249.05765L39.10133,249.92099" id="svg_2" stroke-width="3" stroke="#000" fill="none"/>
  <path t="22049,22220,22259,22281,22282,22298,22315,22332,22349,22380,22380,22399,22432,22449,22449,22465,22482,22556,22616,22650,22650,22676,22708,22749,22765,22765,22804,22844,22844,22865,22882,22915,22940,22964,22964,23015,23068,23099,23099,23115,23140,23204,23204,23228,23228,23237,23282,23282,23299,23299,23329,23350,23370,23370,23389,23389,23590,23625,23625,23649,23649,23649,23650,23650,23650,23650,23668,23668,23668,23668,23669,23669,23669,23698,23699,23831,23876,23877,23897,23897,23918,23937,23938,23958,23958,23958,23982,23982,24015,24015,24033,24033,24081,24082,24082,24082,24100,24120,24121,24121,24141,24141,24171,24171,24172,24248,24299,24299,24316,24316,24356,24380,24381,24404,24420,24436,24436,24452,24468,24484,24508,24508,24524,24548,24548,24580,24580,24599,24619,24619,24666,24683,24699,24699,24699,24748,24782,24816,24834,24849,24884,24934,24949,25032,25098,25115,25166,25166,25182,25182,25280,25280,25334,25334" d="M340.29999,252.40498C338.58533,252.23431 338.31042,251.36349 338.29999,250.40498C338.29153,249.62636 338.17181,248.83711 337.65268,248.34782C337.11777,247.84369 337.34421,246.74112 337.01468,245.92232C336.67502,245.07828 335.6524,244.73318 335.29999,244.11966C334.84372,243.32538 335.25879,242.50229 334.87466,241.59032C334.50797,240.71976 334.32101,239.8651 333.94733,239.10048C333.51392,238.21364 333.34232,237.42508 333.29999,236.51482C333.26205,235.69936 332.67319,234.93262 332.42151,234.08382C332.18698,233.29288 332.29999,232.31966 332.29999,231.40498C332.29999,230.64783 332.29999,229.75682 332.29999,228.73833C332.29999,227.88416 332.29999,226.99432 332.29999,226.08382C332.29999,225.26633 332.20984,224.3152 332.29999,223.40498C332.38373,222.55928 333.17859,222.29535 333.68933,221.55432C334.2738,220.70631 334.88251,220.14349 335.48532,219.79433C336.43695,219.2431 337.03967,218.85701 337.86401,218.41565C338.56821,218.03864 338.82175,217.07823 339.62134,216.64798C340.39774,216.23021 341.41333,216.40498 342.32083,216.40498C343.172,216.40498 343.90268,216.40498 344.89551,216.40498C345.81467,216.40498 346.77917,216.40498 347.62701,216.40498C348.34299,216.40498 349.29999,216.40498 350.21201,216.40498C350.74301,216.40498 351.92499,216.40498 352.564,216.40498C353.22699,216.40498 353.90799,216.40498 355.29999,216.40498C356.69199,216.40498 357.37299,216.40498 358.03601,216.40498C358.67499,216.40498 359.85699,216.40498 360.388,216.40498C361.98801,216.40498 362.70447,216.18214 363.60001,216.41399C364.48102,216.64206 364.75742,217.45384 365.39984,218.38348C365.836,219.01463 366.21167,219.83511 366.52151,220.72649C366.77127,221.44502 367.27032,222.42123 367.60449,222.99599C368.02124,223.71278 369.0372,224.14828 369.59018,224.56749C370.28851,225.09689 370.28931,226.16481 370.29999,227.07166C370.31137,228.03876 370.46671,229.07166 370.65268,229.81566C370.79999,230.40498 371.13312,231.24808 371.27917,232.40498C371.39011,233.28358 371.29999,234.10632 371.29999,234.70366C371.29999,235.91965 371.29999,236.74098 371.29999,237.54099C371.29999,238.40498 371.29999,239.26898 371.29999,240.36333C371.29999,241.27699 371.29999,242.00766 371.29999,242.99599C371.29999,243.83432 370.69562,244.32179 370.35266,245.11482C370.02759,245.86652 369.92599,246.80145 369.38266,247.60365C368.90082,248.31508 368.11371,248.3616 367.18668,248.40498C366.30869,248.44606 366.59378,249.48622 365.85733,250.16216C365.30322,250.67073 364.47491,250.96165 363.73065,251.60365C363.18835,252.07144 362.18741,252.36105 361.41599,252.40366C360.4761,252.45557 359.46667,252.40498 358.66165,252.40498C357.77917,252.40498 356.83044,252.31728 355.97867,252.84766C355.42822,253.1904 354.87366,254.03986 353.936,254.33299C353.04001,254.61311 352.10001,254.40498 351.20016,254.40498C350.32535,254.40498 349.49866,254.40498 348.60001,254.40498C347.70001,254.40498 346.82083,254.40498 345.86401,254.40498C344.99551,254.40498 344.11884,254.52362 343.29999,254.36333C342.43356,254.19371 341.79999,253.40498 341.13333,252.73833L340.47467,252.47699L339.46667,252.40498L338.58667,252.40498" id="svg_3" stroke-width="3" stroke="#000" fill="none"/>
  <path t="31647,32114,32166,32216,32216,32457,32516,32553" d="M298.29999,176.40498C299.10132,176.40498 299.936,176.40498 300.94818,176.40498C301.73065,176.40498 302.73599,176.40498 303.60001,176.40498L304.5,176.40498" id="svg_4" stroke-width="3" stroke="#000" fill="none"/>
  <path t="34558,35648,35731,35749,35800,35849,35899,36075,36872,36872,36908,36981,37031,37031,37063,37133,37133,37198,37515,37568,37584,37665,37732,37846,38320,38320" d="M299.29999,175.40498C297.65268,175.46216 297.45432,176.32124 298.29999,176.40498C299.09741,176.48395 300,176.40498 300.89999,176.40498C301.77917,176.40498 303.56134,177.22398 303.56134,176.40498C303.56134,175.70897 301.93832,176.40498 300.97867,176.40498C300.29999,176.40498 299.06839,176.04564 298.46667,176.73833C297.91693,177.37117 296.97296,177.5477 297.009,178.40498C297.01294,178.49857 298.01468,178.40498 298.91068,178.40498C299.79999,178.40498 300.70001,178.38365 301.39984,177.96233L301.86401,177.25565" id="svg_5" stroke-width="3" stroke="#000" fill="none"/>
  <path t="40675,40950,40983,41000,41114,41114,41228,41254,41299,41299,41381,41433,41483,41533,41585,41585,41853,41853,41874,41917,42445,42445,42530,42530,42848,42934,42934,42950,42965,42982,42999,42999,43015,43015" d="M313.29999,192.40498C314.73599,191.83032 315.49698,192.36227 316.39999,192.40498C317.29898,192.44751 318.31937,191.95737 319.01468,192.57565C319.68005,193.1673 319.29999,194.23833 319.29999,195.10048C319.29999,196.04782 318.62784,196.43419 318.32535,197.25565C318.03568,198.0423 317.29816,198.45888 316.5,198.40498C315.65137,198.34769 314.79504,197.24397 315.3045,196.51932C315.80783,195.80338 316.39203,195.39233 316.24283,194.64783C316.05835,193.7274 315.79456,192.5132 314.94733,192.40498C314.22507,192.31273 314.29999,193.42583 314.29999,194.51965C314.29999,195.40498 314.46667,196.23833 315.13333,196.73833L315.32535,197.59032L315.52151,198.38348L316.00449,199.10048" id="svg_6" stroke-width="3" stroke="#000" fill="none"/>
  <path t="47312,47462,47462,47500,47500,47516,47516,47516,47533,47533,47551,47551,47551,47566,47566,47589,47589,47589,47600,47616,47653,47669,47693,47693,47717,47717,47733,47733,47750,47750,47766,47766,47782,47783,47800,47833,47833,47853,47853,47877,47901,47901,47925,47925,47949,47981,47981,47999,48000,48000,48016,48016,48033,48033,48050,48066,48083,48101,48101,48151" d="M262.29999,184.40498C263.29999,184.40498 264.05716,184.40498 264.96167,184.40498C265.76166,184.40498 266.72134,184.40498 267.52533,184.40498C268.34732,184.40498 269.37851,184.40498 270.27917,184.40498C271.29999,184.40498 272.12839,184.31702 272.89999,184.57565C273.7475,184.85974 274.47522,185.62219 275.29999,186.23833C275.879,186.67087 276.681,187.04636 277.41333,187.60365C278.17712,188.18489 279.01675,188.02863 279.77917,188.44666C280.49683,188.84013 280.36179,190.01653 281.00983,190.64783C281.57251,191.19597 282.49313,191.79752 283.18399,192.11966C284.07443,192.53488 284.91327,192.57613 285.41467,193.25832C286.02078,194.08293 286.22635,195.12181 286.68933,195.72232C287.26855,196.4736 288.36819,196.19698 289,196.51932C289.75302,196.9035 290.04953,197.95982 290.60001,198.64783C291.2442,199.45297 291.76416,200.04163 292.784,200.31966C293.45422,200.50238 294.54745,200.39011 295.46667,200.40498C296.12558,200.41565 297.17093,200.70235 297.67465,201.26633C298.22791,201.88574 298.95334,202.64682 299.64734,203.10048C300.41541,203.60254 301.06525,204.25015 301.89999,204.39432C302.78693,204.5475 303.71066,204.40498 304.62115,204.40498L305.43866,204.40498L306.46667,204.40498" id="svg_7" stroke-width="3" stroke="#000" fill="none"/>
  <path t="49065,49276,49277,49298,49317,49348,49348,49365,49382,49382,49397,49398,49398,49415,49415,49432,49448,49464,49465,49465,49482,49482,49498,49533,49533,49557,49557,49583,49583,49599,49599,49616,49616,49633,49649,49649,49666,49666,49683,49699,49716,49716,49766,49766,49784,49784,49810,49810,49835,49852,49948,49966,49966,49966,49966,50078,50078,50078,50096,50116,50132,50148,50148,50165,50198,50328,50365,50384,50384,50400,50415,50433,50433,50433,50514,50514,50514,50514,50514,50566,50606,50633,50650,50650,50670,50670,50699,50716,50741,50741,50798,50836,50852,50876,50897,50931,50948,50965,50982,51048,51048,51088,51115,51165,51200,51200,51217,51218,51248,51441,51441,51478,51478,51499,51499" d="M266.29999,184.40498C267.29999,184.40498 268.10001,184.40498 269,184.40498C269.94284,184.40498 270.86935,184.39674 271.65182,184.40498C272.66418,184.41565 273.43292,184.82726 273.79999,185.44666C274.35104,186.37656 274.62094,187.25844 275.05716,187.69066C275.82288,188.44936 276.83026,188.24164 277.75833,188.40498C278.50256,188.53596 279.00699,189.46942 279.32083,189.92583C279.8129,190.64139 280.43665,191.72655 281.09866,192.11699C281.92542,192.60457 282.5853,192.97566 282.91068,193.62631C283.39993,194.60469 283.68741,195.45808 284.29999,196.07166C284.90607,196.67873 285.54181,197.2421 285.86401,198.16499C286.17578,199.05795 286.1514,200.0939 286.94666,200.39432C287.73007,200.69025 288.75735,200.37143 289.41333,200.97432C289.97067,201.48659 289.92224,202.76288 290.66165,203.35233C291.31409,203.87244 292.28619,203.9418 293.13333,204.23833C293.87863,204.49921 294.58978,205.12129 295,205.75682C295.58118,206.65723 295.68344,207.42348 296.384,208.11966C296.93124,208.66347 298.13333,208.40498 298.96667,208.40498C299.72415,208.40498 300.70667,208.40498 301.42001,208.40498C302.47818,208.40498 303.44266,208.40498 304.28116,208.40498C305.15683,208.40498 306.13333,208.40498 306.94666,208.40498C307.784,208.40498 308.64734,208.40498 309.65332,208.40498C310.58533,208.40498 311.9653,208.94519 312.21201,208.12099C312.43921,207.36194 310.90497,207.35786 310.05716,207.75766C309.24597,208.1402 309.246,208.42871 309.92499,208.36333C310.88031,208.27133 312.04413,207.96928 312.46268,207.83699C313.31259,207.56836 314.15286,207.35083 314.79068,206.97299C315.5657,206.51387 314.46667,206.40628 313.65332,206.40498C312.81601,206.40364 311.85831,206.42155 311.18533,205.83699C310.483,205.22694 309.90213,204.44101 308.99551,204.40498C308.134,204.37074 307.32083,204.40498 306.36133,204.40498C305.49866,204.40498 304.60001,204.40498 303.70001,204.40498C302.82083,204.40498 301.94284,204.40498 301,204.40498C300.10001,204.40498 299.20001,204.40498 298.29999,204.40498C297.5,204.40498 296.60001,204.40498 295.70001,204.40498C294.82083,204.40498 293.85699,204.40498 293.07867,204.40498C292.10034,204.40498 291.34164,204.41084 290.35068,204.40498C289.59015,204.40048 288.78265,204.23431 288.05716,203.69066L287.60449,202.99599L287.10132,202.00632L286.73599,201.24098" id="svg_8" stroke-width="3" stroke="#000" fill="none"/>
 </g>
</svg>