<svg width="500.00000000000006" height="332.409972299169" xmlns="http://www.w3.org/2000/svg" xmlns:svg="http://www.w3.org/2000/svg" xmlns:xlink="http://www.w3.org/1999/xlink">
 <!-- Created with SVG-edit - http://svg-edit.googlecode.com/ -->
 <g display="inline" class="layer">
  <title>Layer 1</title>
  <path t="0,127,175,192,225,242,259,321,345,375,393,409,425,442,459,492,511,525,542,566,575,609,625,625,659,675,692,709,742,759,793,841,859,910,961,1074,1161,1210,1210,1293,1337,1401,1457,1481,1521,1545,1569,1592,1641,1675,1729,1745,1777,1809,1858,1897,1925,1977,2001,2017,2065,2081,2129,2161,2185,2225" d="M271.29999,39.00499C272.29999,39.00499 272.67679,38.53308 273.35718,38.00949C274.10437,37.43449 274.74506,37.62283 275.336,37.01565C275.94559,36.38929 276.61459,36.25722 277.52133,36.00482C278.29883,35.7884 278.66028,34.95729 279.32535,34.43032C279.95154,33.93414 280.83063,33.97231 281.32083,33.50499C281.87555,32.97616 282.73807,32.84219 283.35266,32.35765C284.00211,31.84564 284.80042,31.73726 285.46667,31.17165C286.15088,30.59081 286.93463,30.33918 287.73599,29.99432C288.58722,29.628 288.61816,28.72128 289.30133,28.09032C289.91574,27.52287 290.95135,27.58911 291.29999,26.78365C291.6163,26.05287 292.0585,25.69104 292.30133,24.80632C292.51913,24.01273 292.87497,23.38396 293.52151,23.00515C294.20837,22.60272 295.15524,23.68427 295.29999,24.52582C295.4472,25.38175 295.29999,26.28899 295.29999,27.22632C295.29999,28.08899 295.29999,29.00499 295.29999,29.88365C295.29999,30.70949 295.29999,31.56899 295.29999,32.50499C295.29999,33.43032 295.29999,34.29032 295.29999,35.20365C295.29999,36.09032 295.29999,36.97965 295.29999,37.88349C295.29999,38.72099 295.37363,39.6172 294.94733,40.36215C294.49536,41.15195 294.34564,41.98531 294.29999,42.88365C294.25726,43.72424 293.38535,44.00632 293.29999,44.70949L293.24283,45.64782L292.42151,46.00499" id="svg_1" stroke-width="3" stroke="#000" fill="none"/>
  <path t="3485,3823,3873,3943,4015,4060,4243,4297,4371,4427,4459,4529,4545,5025,5043,5094,5142,5185,5225,5297,5489,5623,5772,5925,5957,6073,6126,6209,6260,6275,6337,6392,6425,6481,6492,6525,6542,6575,6608,6642,6658,6692,6708,6725,6742,6777,6793,6842,6858,6892,6925,6942,6993,7025,7058,7092,7108,7125,7158,7209,7275,7389,7418,7809,7850,7876,7942,7993,8017,8025,8074,8108,8129,8174,8192,8208,8208,8225,8242,8307,8308,8342,8358,8400,8416,8441,8457,8491,8508,8541,8541,8577,8609,8642,8658,8759,8775,8816,8859,8875,8929,9017,9028,9075,9125,9142,9174,9191,9224,9257,9289" d="M270.29999,40.00499C268.65268,40.00499 267.76147,40.03975 267.27917,40.50499C266.72757,41.03706 265.82083,41.00499 264.86401,41.00499C264.00449,41.00499 262.82285,41.50296 262.29999,40.91965C261.69247,40.24192 261.87216,39.44596 261.38535,38.72099C261.07544,38.25946 261.35037,39.0317 261.29999,39.94782C261.25726,40.72451 260.74783,41.25503 260.13333,41.83832C259.49133,42.4477 258.2099,41.58482 257.58401,42.09032C256.87796,42.66057 257.14569,43.92125 256.29999,44.00499C255.42577,44.09155 254.49956,43.63367 253.72533,44.00499C253.06087,44.32366 252.65268,45.00274 251.72533,45.00499C250.8,45.00723 249.94733,45.00499 249.01466,45.00499C248.10133,45.00499 247.36353,44.84974 246.65266,44.35765C245.95032,43.87147 245.01601,44.00499 244.07866,44.00499C243.216,44.00499 242.25237,44.2902 241.42134,44.00482C240.65169,43.74051 240.00583,43.03358 239.07866,43.00499C238.21642,42.97839 237.28934,43.00499 236.49867,43.00499C235.58533,43.00499 234.84444,42.76836 234.216,42.28899C233.49339,41.73777 232.46666,42.00499 231.65266,42.00499C230.77916,42.00499 229.85623,41.94932 229.31067,41.43032C228.82915,40.97225 228.21527,40.43047 227.336,40.04099C226.65816,39.74073 224.85872,39.85056 225.31067,39.46632C225.91835,38.94969 226.25761,40.74736 226.72533,41.43032C227.25533,42.20423 226.87395,43.24973 227.52133,43.88349C228.09221,44.44236 228.80811,44.61183 229.24283,45.35765C229.68121,46.10978 229.74196,46.79056 230.49867,47.29032C231.10759,47.69247 231.25943,48.76652 231.8,49.48415C232.37619,50.24907 232.75626,50.87001 233.336,51.57965C233.84299,52.20025 234.83069,52.38288 235.21466,53.20365C235.57062,53.96453 236.02016,54.19468 236.52133,54.88365C237.02916,55.58176 237.46666,56.17165 238.01601,56.72099C238.72534,57.43031 238.96773,58.12859 239.31067,58.97965C239.61844,59.74344 240.7567,60.05538 241.1785,60.88365C241.53165,61.57712 241.49185,62.39748 242.01601,63.00365C242.47917,63.53929 242.94832,64.17294 243.2955,65.05766C243.62068,65.88631 242.9183,66.93336 243.3,67.65232C243.62532,68.26508 244.29866,68.72099 244.3,69.65232L244.87466,70.04099L245.29866,70.72099" id="svg_2" stroke-width="3" stroke="#000" fill="none"/>
  <path t="14052,14313,14337,14393,14508,14545,14593,14617,14689,14737,14792,14833,14874,14891,14961,14961,15042,15093,15157,15225,15437,15726,15792,15809,15842,15876,15893,15909,15992,15992,16059,16141,16192,16242,16289,16313,16425" d="M276.29999,34.00499C276.30017,33.12649 276.64319,32.68229 277.29999,32.06215C277.9274,31.46977 278.8024,31.50297 279.29999,30.83832C279.79788,30.17324 280.37088,30.08171 280.87466,29.43032C281.41711,28.72894 281.59851,28.16426 282.46667,28.00499C283.25363,27.86062 283.36047,26.7059 284.01599,26.28899C284.7196,25.84149 285.67105,25.93033 286.32535,25.43032C286.96927,24.93824 288.07693,24.88761 288.29999,25.50499C288.61441,26.37533 287.6308,26.92856 287.29999,27.50499C286.88492,28.2282 286.384,28.92098 285.79999,29.50499C285.13333,30.17165 284.36435,30.4656 283.65717,31.00049C283.09888,31.42275 282.58401,32.00365 281.65268,32.00499L281.26401,32.57965L280.65268,33.00049L279.87466,33.43032" id="svg_3" stroke-width="3" stroke="#000" fill="none"/>
  <path t="19433,19674,19726,19746,19778,19826,19876,19914,19938,19978,20009,20026,20065,20109,20177,20192,20225,20281,20307,20353,20402,20424,20481,20507,20558,20575,20609,20649,20729,20761,20793,20841,20881,20941,20961,21057,21109,21109,21257,21297,21376,21392,21497,21576,21633,21673,21741,21741,21825,21943,22001,22025,22074,22113,22162,22242,22258,22278,22307,22340,22374,22407,22423,22458,22473,22491,22507,22523,22561,22658,22697,22808,22858,22913,22945,22958,22991,23008,23041,23058,23159,23209,23249,23258,23291,23341,23358,23391,23458,23491,23529,23558,23609,23624,23673,23737,23777,23823,23873,23913,24451,24522,24570,24626,24674,24720,24758,24817,24907,24945,24992,25041,25074,25097,25177,25209,25209,25257,25274,25345,25393,25433,25489,25542,25594,25643,25709,25825,25960,25975,26059,26091,26175,26224,26322,26401,26459,26537,26608,26973,27005" d="M253.3,63.00499C253.01601,63.91965 252.41684,64.23427 252.3,65.08899C252.18831,65.90614 251.39014,66.09476 251.3,67.00499C251.21626,67.85069 250.39006,68.06657 250.3,68.97965C250.21414,69.85012 249.60918,70.09711 249.3,70.91965C249.02914,71.64025 247.87679,72.07616 247.46666,72.83832C247.07294,73.57 246.69484,74.02108 246.3045,74.65232C245.83704,75.4083 245.24283,76.06216 244.65266,76.65232C244.01601,77.28899 243.17708,77.63116 242.46666,78.17165C241.82146,78.66254 241.70386,79.37624 241.01601,79.91965C240.32016,80.46938 239.09059,79.48221 238.38533,80.00632C237.68758,80.52485 237.15791,80.68491 236.46666,81.17165C235.75264,81.67442 235.07607,81.82534 234.3,82.17165C233.567,82.49875 232.68225,83.17921 232.336,83.97965C231.97681,84.81001 232.3,85.72099 232.3,86.57965C232.3,87.50499 232.22,88.43406 232.3,89.28899C232.3837,90.18334 233.15617,90.68675 233.3,91.57965C233.43529,92.41949 233.69783,92.9572 234.27916,93.50499C234.76686,93.96456 235.15752,94.50955 235.8,94.98415C236.47659,95.48396 237.2126,95.96227 238.01601,96.00499C238.94601,96.05445 239.8,96.00499 240.72533,96.00499C241.58533,96.00499 242.49867,96.00499 243.37199,96.00499C244.15067,96.00499 245.19017,96.00499 246.0045,96.00499C246.94284,96.00499 247.8,96.00499 248.72533,96.00499C249.584,96.00499 250.52133,96.00499 251.384,96.00499C252.3,96.00499 252.75146,95.61792 253.35716,95.00948C253.95824,94.40569 254.65126,94.03359 255.52133,94.00499C256.38354,93.97665 256.88623,93.45591 257.52133,93.00499C258.20081,92.52259 258.89084,92.18742 259.72534,92.00499C260.63129,91.80695 261.11377,91.27892 261.72534,91.00499C262.509,90.65398 262.98489,90.50813 263.65268,90.06216C264.42865,89.54394 265.26343,89.76762 266.01599,89.28899C266.7196,88.84149 267.72534,89.00499 268.58401,89.00499C269.52133,89.00499 270.384,89.00499 271.28934,89.00499C272.1785,89.00499 271.98178,89.36862 271.29999,89.91965C270.7392,90.37289 269.95306,90.29031 269.29999,90.83832C268.78796,91.26798 268.03943,91.69691 267.24283,92.00499C266.36346,92.34508 265.85495,92.38715 265.26401,92.99432C264.65442,93.62068 264.0065,93.84698 263.07849,94.00515C262.18561,94.15733 261.49091,94.54384 260.79999,95.02582C260.11481,95.50378 259.44135,95.80349 258.65268,96.00499C257.79358,96.22449 257.24283,97.00491 256.32535,97.00499C255.42134,97.00507 254.85942,97.69225 254.0045,97.94782C253.11575,98.21351 252.58864,98.36086 252.01601,98.91965C251.47275,99.44978 251.01691,99.93021 250.07866,100.00499C249.24353,100.07156 248.5779,100.52295 247.87466,101.01566C247.22144,101.47334 246.8,102.02582 246.24733,102.65232L245.46666,103.00499L245.3,103.72099" id="svg_4" stroke-width="3" stroke="#000" fill="none"/>
  <polyline timestamps="29378,29924,29941" startTime="1503447758722" id="svg_5" points="245.3,102.00498657226562 245.29999999999998,101.12631990559893 245.29999999999998,100.2889865722656 " stroke-linecap="round" stroke-width="3" stroke="#000" fill="none"/>
  <path t="35271,35466,35501,35564,35626,35658,35756,35835,35891,35926,35971,36009,36067,36083,36131,36143,36179,36227,36251,36309,36330,36346,36371,36409,36426,36459,36483,36527,36562,36602,36626,36659,36707,36763,36787,36858,36883,36892,36958,36994,37058,37092,37130,37178,37202,37242,37290,37357,37378,37410,37477,37682" d="M243.3,104.00499C244.336,105.57965 244.86696,106.10747 245.35716,106.65232C245.98178,107.34658 246.54025,107.58551 247.13333,108.17165C247.74332,108.77451 248.24733,109.00499 249.13333,109.00499C249.94733,109.00499 250.87466,109.00499 251.73599,109.00499C252.68933,109.00499 253.65791,109.2662 254.384,108.91965C255.18977,108.53508 255.82083,108.00564 256.68933,108.00499C257.58401,108.00432 258.28448,107.58847 258.79999,107.00499C259.36356,106.36711 260.13351,106.02348 261.01599,106.00499C261.87524,105.98698 262.35449,105.18021 263.216,105.00499C263.99069,104.84742 264.6655,104.26639 265.52133,104.00499C266.42545,103.72884 267.39059,104.30882 268.216,104.00365C268.93628,103.73736 269.64511,103.08999 270.27466,102.57965C270.86765,102.09895 271.72534,102.00499 272.65268,102.00499C273.52133,102.00499 274.46667,102.00499 275.32083,102.00499C276.216,102.00499 277.01599,102.00499 277.94733,102.00499C278.79999,102.00499 279.72534,101.99432 280.28934,101.43032L280.79999,101.00499L281.72534,100.99432L282.29999,100.50499" id="svg_6" stroke-width="3" stroke="#000" fill="none"/>
  <path t="40101,40221,40258,40275,40291,40314,40354,40386,40450,40515,40625,40658,40690,40725,40762,40802,40850,40858,40906,40942,40994,41491" d="M233.3,87.00499C234.3,87.00499 235.21637,87.02898 236.0045,87.00499C236.94415,86.97639 237.34995,86.1488 238.24733,86.00499C239.12216,85.86479 240.01601,86.00499 240.87466,86.00499C241.8,86.00499 242.69783,85.9572 243.27916,86.50499C243.76686,86.96456 244.05663,87.53427 244.584,88.00499C245.14314,88.50407 245.3,89.10482 245.3,90.02582L245.3,90.92099L245.3,91.83832L245.3,92.65232" id="svg_7" stroke-width="3" stroke="#000" fill="none"/>
  <path t="42208,42395,42442,42508,42656,42855" d="M240.3,88.00499C241.94733,88.06216 242.3,88.83832 242.3,89.65232L241.72533,90.00499L240.8,90.00499" id="svg_8" stroke-width="3" stroke="#000" fill="none"/>
  <path t="43520,43974,44026,44192,44398,44476,44558" d="M235.3,89.00499C235.3,90.02582 235.30133,90.91965 236.13333,91.17165L236.07866,91.88348L235.52133,92.00482L236.24283,91.65232" id="svg_9" stroke-width="3" stroke="#000" fill="none"/>
  <path t="50356,50441,50500,50525,50575,50592,50611,50635,50667,50692,50723,50824" d="M259.29999,66.00499C260.94733,66.00499 261.87466,66.00499 262.72534,66.00499C263.65717,66.00499 264.5,66.00499 265.39984,66.00499C266.32535,66.00499 267.216,66.00499 268.00449,66.00499L268.94284,66.00499L269.82083,66.00499" id="svg_10" stroke-width="3" stroke="#000" fill="none"/>
  <path t="52219,52450,52458,52526,52559,52574,52643,52659,52755,52808,52824,52883,53011,53027,53123,53239" d="M259.29999,68.00499C260.216,68.28899 260.66327,68.85447 261.58533,69.00632C262.41782,69.14342 263.11322,69.85913 263.72534,70.43032C264.3638,71.02608 265.3045,71.00499 266.17868,71.00499C267.01599,71.00499 267.94733,71.00499 268.336,70.43032L269.01599,70.00632L269.29999,69.43032L269.65268,68.65232" id="svg_11" stroke-width="3" stroke="#000" fill="none"/>
  <path t="59587,59731,59731,59775,59826,60016" d="M265.29999,68.00499C266.29999,67.17165 266.94284,67.65232 267.29999,68.43032L267.29999,69.28899L267.07867,70.00499" id="svg_14" stroke-width="3" stroke="#000" fill="none"/>
  <path t="66140,66258,66285,66342,66374,66441,66474,66506,66523,66570,66590,66611,66642,66674,66689,66706,66723,66739,66756,66773,66773,66789,66806,66806,66823,66839,66839,66873,66890,66906,66930,66946,66978,67006,67026,67056,67074,67106,67130,67146,67194,67206,67239,67256,67289,67306,67346,67362,67386,67418,67492,67508,67524,67609,67624,67656,67674,67707,67724,67757,67757,67786,67818,67840,67874,67889,67923,67939,67939,67956,67989,68006,68023,68056,68074,68090,68106,68123,68146,68173,68223,68223,68244,68290,68339,68340,68361,68389,68423,68423,68439,68456,68474,68490,68506,68523,68523,68539,68556,68556,68574,68610,68611,68639,68730,68762,68802,68839,68858,68922,68956,68978,69006,69023,69039,69056,69090,69106,69123,69139,69139,69173,69189,69206,69224,69266,69276,69324,69340,69357,69389,69423,69440,69457,69490,69507,69523,69556,69573,69590,69607,69624,69640,69659,69659,69680,69710,69724,69740,69773,69806,69823,69840,69873,69906,69923,69939,69973,69989,70006,70039,70090,70116,70131,70147,70162,70176,70191,70207,70239,70258,70290,70306,70339,70356,70373,70406,70426,70440,70489,70530,70573,70606,70634,70738,70824,70955" d="M298.29999,36.00499C299.91068,36.00499 300.86401,36.00499 301.72534,36.00499C302.65268,36.00499 303.52139,35.99346 304.46667,36.00499C305.32101,36.0154 305.90872,36.52309 306.65268,37.00949C307.33499,37.45557 307.94736,37.99788 308.79999,38.00499C309.73602,38.01279 310.60422,38.34818 311.216,38.92099C311.82974,39.49562 312.59991,39.94599 313.28534,40.43032C314.01459,40.94563 314.84906,41.01892 315.664,41.43032C316.4357,41.8199 317.18851,41.93757 318.12534,42.01565C319.14182,42.10037 319.85861,42.57426 320.52133,43.22632C321.13828,43.83334 321.99796,43.6458 322.77917,44.02582C323.50922,44.38095 323.94638,44.87722 324.65268,45.35765C325.39752,45.86432 326.29959,45.64857 327.01599,46.09032C327.8165,46.58393 328.23093,47.15498 328.94733,47.65232C329.65268,48.14199 330.31915,48.54766 330.79999,49.02582C331.32404,49.54696 331.72318,50.10304 332.35266,50.65232C333.05914,51.2688 333.11081,52.02191 333.38535,52.80632C333.68469,53.66159 334.25626,54.39319 334.72534,54.97965C335.23972,55.62271 335.73013,56.31297 336.17868,57.10482C336.59799,57.84503 336.96771,58.12859 337.31067,58.97965C337.61844,59.74344 338.64844,60.13864 339.01599,60.80632C339.47705,61.64388 339.53516,62.46169 340.01599,63.08899C340.56976,63.81143 340.9476,64.54381 341.3045,65.36215C341.65948,66.17608 341.68753,66.98273 342.29868,67.71965C342.76694,68.28427 343.28662,68.70957 343.29999,69.64782C343.3125,70.52598 343.94305,71.2571 344.2955,72.05766C344.59933,72.74777 345.06088,73.54134 345.27917,74.48415C345.47626,75.33538 345.46667,76.17166 346.00449,76.70949C346.68933,77.39433 347.2514,78.09161 347.29999,79.00499C347.34271,79.80839 348.00531,80.50638 348.29999,81.28899C348.61652,82.12964 349.10986,82.66335 349.28934,83.60499C349.45786,84.48914 349.18903,85.52126 349.82083,86.00499C350.49814,86.52355 351.23337,87.0987 351.29868,87.89032C351.37598,88.82722 351.46005,89.84179 351.79999,90.48415C352.23441,91.305 352.60834,92.05967 353.01599,92.72099C353.49057,93.49088 353.21591,94.48479 353.65268,95.30499C354.05179,96.05448 354.74899,96.55025 355.21466,97.28899C355.68756,98.03916 354.97162,99.28931 355.52133,99.88348C356.08517,100.49294 356.25131,101.00629 356.29999,101.92099C356.34271,102.72439 357.23376,103.2206 357.29999,104.10482C357.36612,104.98791 357.71408,105.68273 358.01599,106.43699C358.37561,107.33546 358.23889,108.34583 358.72534,108.97965C359.22672,109.6329 359.29999,110.44099 359.29999,111.30048C359.29999,112.22649 359.29999,113.10482 359.29999,114.03032C359.29999,114.92099 358.9462,115.94736 359.35718,116.65232C359.75525,117.33515 360.29999,117.97965 360.29999,118.80632C360.29999,119.71965 360.29999,120.61565 360.29999,121.50499C360.29999,122.40498 360.29999,123.30499 360.29999,124.20499C360.29999,125.10499 360.29999,126.00499 360.29999,126.80499C360.29999,127.70499 360.29999,128.60498 360.29999,129.50499C360.29999,130.39432 360.29999,131.28899 360.29999,132.22649C360.29999,133.10481 360.29999,133.97966 360.29999,134.88365C360.29999,135.70949 360.5162,136.394 361.01599,137.08899C361.52927,137.80273 361.29999,138.70949 361.29999,139.64783C361.29999,140.57965 361.29999,141.44098 361.29999,142.30499C361.29999,143.20499 361.29999,144.10498 361.29999,145.00499C361.29999,145.92099 361.29999,146.70949 361.29999,147.64783C361.29999,148.52582 361.29999,149.48415 361.29999,150.36215C361.29999,151.20366 361.60559,152.24168 361.26401,153.03032C360.95822,153.73631 360.45767,154.43477 360.01599,155.20366C359.54074,156.03101 359.36078,156.76118 358.87466,157.43031C358.36032,158.13834 358.01599,158.92099 357.35718,159.35765L357.29999,160.28899L357.29999,161.17165L357.21466,162.00365" id="svg_15" stroke-width="3" stroke="#000" fill="none"/>
  <path t="74085,74140,74157,74173,74190,74207,74239,74239,74262,74278,74306,74325,74325,74357,74378,74393,74410,74425,74441,74458,74490,74508,74508,74523,74541,74557,74590,74608,74623,74640,74659,74677,74723,74740,74773,74791,74807,74824,74841,74873,74906,74923,74941,74957,74975,74993,75022,75056,75138,75163,75202,75225,75257,75306,75345,75372,75406,75423,75441,75472,75492,75522,75522,75540,75572,75590,75626,75643,75689,75707,75725,75756,75789,75807,75839,75872,75890,75909,75928,75956,75975,75994,76022,76022,76056,76056,76089,76108,76156,76175,76195,76241,76273,76409,76475,76507,76546,76594,76640,76673,76723,76742,76790,76875,76946,77002,77072,77107,77162,77210,77282,77330,77346,77394,77426,77473,77490,77530,77554,77610,77626,77724,77770,77802,77906,77923,77994,78051,78107,78140,78190,78210,78240,78290,78314,78391,78473,78554,78578,78674,78690,78730,78802,78811,78857,78890,78907,78956,78957,79010,79023,79072,79114,79138,79194,79223,79257,79290,79323,79340,79340,79357,79373,79410,79451,79506,79530,79595,79618,79672,79706,79824,80123,80141,80187,80240,80267,80339,80357,80423,80475,80498,80540,80578,80594,80606,80642,80673,80690,80706,80722,80739,80772,80789,80826,80842,80881,80890,80922,80961,81010,81040,81074,81090,81130,81173,81226,81283,81338,81373,81418,81430,81482,81506,81554,81602,81626,81656,81706,81754,81807,82007,82105,82140,82156,82173,82189,82222,82239,82272,82290,82322,82340,82355,82378,82389,82422,82439,82472,82489,82522,82539,82539,82555,82572,82589,82605,82622,82622,82655,82689,82706,82722,82790,82866,82922,82946,82957,83005,83058,83074,83123,83145,83162,83205,83222,83256,83273,83289,83305,83322,83360,83361,83383,83424,83445,83445,83467,83467,83491,83530,83550,83550,83578,83599,83634,83654,83678,83706,83706,83728,83762,83783,83805,83829,83858,83880,83914,83939,83989,84011,84074" d="M353.29999,156.00499C353.29999,157.00499 353.23648,157.92525 353.3045,158.71033C353.38867,159.68159 354.17145,160.16492 354.29999,161.00499C354.42169,161.80028 354.93832,162.57666 355.26401,163.39432C355.58633,164.20352 355.9136,165.1261 356.384,165.71965C356.96933,166.45824 357.29999,167.10481 357.29999,167.97966C357.29999,168.80632 357.3562,169.70552 357.79999,170.50499C358.24185,171.30103 358.25571,172.17282 358.29999,173.00499C358.34271,173.8084 359.04688,174.54218 359.26401,175.40498C359.48273,176.27411 359.29999,177.22649 359.29999,178.10498C359.29999,179.00499 359.29999,179.92099 359.29999,180.70949C359.29999,181.64783 359.19778,182.59105 359.65268,183.30049C360.17337,184.1125 360.29999,184.80632 360.29999,185.70499C360.29999,186.60498 360.29999,187.56898 360.29999,188.43031C360.29999,189.36215 360.29999,190.20499 360.29999,191.10481C360.29999,192.00499 360.29999,192.80632 360.29999,193.71965C360.29999,194.65231 360.29999,195.50499 360.29999,196.44098C360.29999,197.30049 360.29999,198.22649 360.29999,199.10481C360.29999,200.00499 360.29999,200.92099 360.29999,201.70949C360.29999,202.60498 360.29999,203.50499 360.29999,204.40498C360.29999,205.30049 360.29999,206.22632 360.29999,207.08899C360.29999,208.00499 360.29999,208.80499 360.29999,209.71965C360.29999,210.61565 360.29999,211.56898 360.29999,212.44098C360.29999,213.30049 360.29999,214.22649 360.29999,215.10481C360.29999,216.00499 360.29999,216.92099 360.29999,217.70949C360.29999,218.64783 360.29999,219.50499 360.29999,220.44098C360.29999,221.30499 360.29999,222.20366 360.29999,223.08899C360.29999,224.00499 360.29999,224.92099 360.29999,225.72099C360.29999,226.71033 360.29999,227.43698 360.29999,228.44765C360.29999,229.29965 360.29999,230.22632 360.29999,231.08899C360.29999,232.00499 360.29999,232.80632 360.29999,233.71965C360.29999,234.65231 360.29999,235.50499 360.29999,236.44098C360.29999,237.30049 359.73944,237.73793 359.336,238.43031C358.90332,239.17288 359.07861,239.99518 358.216,240.00499C357.2998,240.01541 356.80643,240.78549 355.94733,241.00499C355.04498,241.23555 354.13333,241.00499 353.24283,241.00499C352.35266,241.00499 351.46667,241.00499 350.65268,241.00499C349.72534,241.00499 348.71957,241.16849 348.01599,240.72099C347.26343,240.24234 346.52667,240.08856 345.87466,239.57965C345.13889,239.00534 344.53696,238.55287 343.79999,237.98415C343.16763,237.49615 343.18195,236.60773 342.65268,236.00949C342.20334,235.5016 341.66986,234.84018 341.32083,234.02582C340.98425,233.24048 341.29999,232.28899 341.29999,231.43031C341.29999,230.50499 341.29999,229.65231 341.29999,228.72099C341.29999,227.83832 341.29999,226.95232 341.29999,226.04099C341.29999,225.17165 341.29999,224.28899 341.29999,223.43031C341.29999,222.50499 341.29999,221.65231 341.29999,220.72099C341.29999,219.83832 340.67801,219.34752 340.29999,218.72099C339.84399,217.96523 340.29999,216.97966 340.29999,216.08899C340.29999,215.17165 340.37463,214.33122 340.01599,213.43698C339.77405,212.83374 339.29999,211.83832 339.29999,210.97966C339.29999,210.09032 339.29999,209.30049 339.29999,208.36215C339.29999,207.50499 339.29999,206.57965 339.29999,205.65231C339.29999,204.78365 339.29999,203.83832 339.29999,203.00499C339.29999,202.20499 339.29999,201.30499 339.29999,200.36215C339.29999,199.50499 339.29999,198.57965 339.29999,197.64783C339.29999,196.80632 339.29999,195.83832 339.29999,195.00499C339.29999,194.08899 339.31879,193.2888 339.29999,192.35765C339.28198,191.46577 338.52313,191.59068 337.79999,192.00499C337.22333,192.33536 336.7847,192.96722 336.28934,193.43031C335.7067,193.97502 334.73822,193.68311 333.87466,194.01566C333.185,194.28123 332.78613,194.8148 332.01599,195.28899C331.25571,195.75708 330.49335,195.88138 329.87466,196.43031C329.17303,197.05286 329.01572,197.93169 328.10132,198.00499C327.24817,198.07339 326.65268,198.65231 326.01599,199.28899C325.35718,199.9478 324.79401,200.53198 324.00449,200.94781C323.31088,201.31314 322.83698,201.75192 322.01599,202.00632C321.25055,202.24352 320.91208,202.75252 320.01599,203.00632C319.23627,203.22717 318.80017,203.99457 317.87466,204.00499C316.94739,204.01543 316.07867,204.00499 315.21466,204.00499C314.29999,204.00499 313.42151,204.00499 312.59549,204.00499C311.65717,204.00499 310.77917,204.00499 309.91068,204.00499C308.94733,204.00499 308.07867,204.00499 307.216,204.00499C306.29999,204.00499 305.42133,204.00499 304.59549,204.00499C303.65717,204.00499 302.57684,203.83513 302.29999,204.43031C301.90887,205.27115 301.62878,205.81154 301.32083,206.52582C300.94131,207.40605 301.29999,208.36215 301.29999,209.30049C301.29999,210.17165 301.57895,211.19012 301.07867,211.88365C300.56998,212.58884 299.83759,213.08534 299.46667,213.83832C299.09952,214.58368 298.76419,215.22585 298.3045,216.05765C297.89032,216.80713 297.5025,217.37971 297.29965,218.22649C297.10239,219.04991 296.23886,219.38374 295.46933,219.92099C294.72964,220.43741 294.41949,221.31122 294.29868,222.20499C294.18924,223.01454 293.44888,223.68326 293.29999,224.50499C293.13498,225.41554 292.75058,225.97 292.3045,226.65231C291.81812,227.39627 291.29999,228.06215 291.29999,229.00499C291.29999,229.83832 291.29999,230.72099 291.29999,231.57965C291.29999,232.52582 291.50845,233.48033 291.07867,234.22632C290.64661,234.97626 290.29999,235.65231 290.29999,236.52582C290.29999,237.39432 289.88113,238.10564 289.46667,239.00499C289.11099,239.77681 289.37381,240.68169 288.86401,241.40498C288.30823,242.19351 287.65717,242.70499 287.29999,243.50499C286.94284,244.30499 286.29999,245.00499 285.70001,245.60498C285.10001,246.20499 284.43863,246.74872 283.82083,247.48415C283.23749,248.17857 283.22363,249.25749 282.58401,249.71965C281.84088,250.25659 281.47849,250.7809 280.86401,251.43031C280.24121,252.08853 279.51617,252.15747 279.13333,253.00499C278.83783,253.65913 277.70694,253.77641 277.01599,254.29031C276.29272,254.82826 276.12173,255.57455 275.58401,256.09033C274.92801,256.71957 274.70331,257.54199 273.94733,258.00949C273.3161,258.39984 273.2955,259.35767 272.79999,259.98416L272.29999,260.35767" id="svg_16" stroke-width="3" stroke="#000" fill="none"/>
  <path t="88218,88362,88374,88406,88423,88439,88456,88474,88489,88506,88539,88539,88588,88606,88626,88656,88689,88723,88739,88756,88756,88789,88806,88823,88839,88873,88914,88938,88939,88986,89023,89074,89106,89123,89123,89156,89173,89206,89223,89239,89256,89274,89291,89307,89362,89386,89386,89434,89458,89489,89523,89562,89594,89610,89639,89674,89690,89715,89740,89757,89795,89807,89824,89843,89890,89907,89924,89955,89990,90023,90059,90107,90124,90157,90174,90207,90227,90227,90273,90290,90307,90324,90340,90357,90374,90374,90390,90406,90423,90439,90456,90473,90506,90506,90523,90556,90573,90589,90607,90639,90656,90673,90689,90723,90739,90763,90779,90807,90839,90873,90890,90923,90955,90990,91026,91039,91073,91106,91139,91191,91227,91362,91434,91537,91553,91674,91690,91778,91858,91898,91930,92010,92058,92123,92146,92202,92223,92250,92272,92305,92354,92388,92422,92488,92514,92538,92555,92572,92605,92622,92706,92738,92753,92766,92788,92822,92839,92856,92872,92906,92922,92923,92972,92989,93006,93074,93074,93093,93108,93126,93173,93189,93206,93223,93255,93273,93306,93354,93373,93433,93483,93558,93595,93640,93657,93674,93690,93706,93723,93739,93756,93786,93806,93823,93842,93857,93890,93906,93971,93990,94018,94059,94091,94123,94139,94140,94173,94190,94207,94224,94240,94257,94274,94290,94307,94363,94406,94424,94456,94474,94474,94506,94524,94540,94540,94557,94574,94590,94607,94627,94640,94657,94674,94690,94707,94724,94806" d="M280.29999,141.00499C280.46667,141.83832 281.23871,142.28699 281.29999,143.17165C281.35938,144.02902 281.72781,144.70451 282.29999,145.48415C282.76907,146.12331 283.29773,146.70947 283.29999,147.64783C283.30219,148.57298 283.03177,149.33708 283.30133,150.28899C283.52216,151.06876 284.29465,151.57961 284.29999,152.43031C284.30579,153.35764 284.29999,154.29031 284.29999,155.10498C284.29999,156.00499 284.29999,156.80499 284.29999,157.83832C284.29999,158.61565 284.29999,159.50499 284.29999,160.48415C284.29999,161.35765 284.46127,162.35286 284.07867,163.10481C283.72083,163.80814 283.3024,164.57965 283.29999,165.50499C283.29773,166.36217 282.90576,167.13957 282.46667,168.00499C282.12399,168.68037 281.3609,169.2197 281.29999,170.05765C281.23129,171.0025 280.88239,171.55943 280.42151,172.22649C279.91748,172.95601 279.75171,173.67439 279.35718,174.36215C278.8894,175.1776 279.46738,176.28235 279.13333,177.00499C278.7551,177.82318 277.66824,178.17381 277.32083,179.00499C276.96802,179.84912 277.34152,180.7476 276.87466,181.43031C276.34521,182.20459 275.99265,182.63263 275.42151,183.22632C274.80557,183.86656 274.67532,184.71886 274.31067,185.56898C273.96835,186.367 273.66849,187.13692 273.13333,187.83832C272.64157,188.48283 272.21411,189.08844 271.65268,189.65231C270.94662,190.36145 270.72485,191.33014 270.07867,191.88348C269.46768,192.40668 269.72174,193.22516 269.13333,193.83832C268.53952,194.45711 267.81628,194.61127 267.38535,195.28899C266.88031,196.08324 266.75671,196.71738 266.29868,197.29031C265.77185,197.94931 265.61194,198.73076 265.27917,199.52582C264.90555,200.41855 264.61746,201.23639 264.01599,201.92099C263.49268,202.51665 263.45486,203.36646 263.07849,204.10498C262.72873,204.79124 261.70255,205.30202 261.38535,206.20499C261.08578,207.05777 261.20148,207.91148 260.72534,208.61565C260.23767,209.33684 259.95157,210.13864 259.58401,210.80632C259.12296,211.64388 258.85791,212.43045 258.384,213.20366C257.93109,213.94261 257.32022,214.42984 257.29999,215.36215C257.27963,216.30028 256.74619,216.87114 256.32083,217.50499C255.85143,218.2045 255.3837,218.99326 255.3,219.88365C255.22163,220.71732 255.44743,221.66516 255.3,222.50499C255.15584,223.32628 254.31801,223.96834 254.3,224.70949C254.27722,225.64755 253.52548,225.9511 253.3045,226.70949C253.06406,227.53468 253.3,228.50499 253.3,229.43031C253.3,230.28899 253.3,231.22632 253.3,232.05765C253.3,232.97966 253.29456,233.92238 254.0045,234.00499C254.93828,234.11365 255.28566,234.92111 256.01599,235.00499C256.86905,235.10297 257.73233,235.09895 258.32535,235.57965C258.9549,236.08998 259.94733,236.00499 260.87466,236.00499C261.73599,236.00499 262.68289,236.25359 263.46667,235.83832C264.29977,235.39693 264.69672,234.78845 265.384,234.28899C266.09518,233.77216 266.84418,233.84201 267.29999,233.06215C267.73099,232.32478 268.22113,231.66483 268.72534,231.03032C269.20926,230.42134 269.34927,229.55505 269.87466,229.01566C270.34781,228.52989 271.004,228.0455 271.32083,227.48415C271.73593,226.74867 272.6987,226.47067 273.21466,225.72099C273.71741,224.99049 273.32083,223.98415 273.91068,223.39432C274.59549,222.7095 275.29608,222.29297 276.00449,221.89066C276.73126,221.47791 276.93393,220.51309 277.58401,219.72099C278.11755,219.07092 278.81894,218.52342 279.46667,217.83832C279.96222,217.31418 280.49252,216.60899 281.01599,215.92099C281.48285,215.30739 281.4375,214.40524 281.94733,213.94781C282.55984,213.39824 281.93478,212.19185 282.336,211.43031C282.73199,210.67867 283.29999,210.05765 283.29999,209.17165C283.29999,208.35765 283.29999,207.43031 283.29999,206.50499C283.29999,205.64783 283.29999,204.70949 283.29999,203.83832C283.29999,202.90515 283.37262,202.11006 283.79999,201.48415C284.36057,200.66316 284.133,199.68907 284.30133,198.80632C284.44577,198.04895 285.0419,197.52888 285.3045,196.70949C285.54733,195.95178 286.72446,196.03381 287.27917,195.50499C287.76938,195.03767 288.59662,195.05061 289.52133,195.00499C290.38715,194.96227 290.89108,194.18529 291.73599,194.00499C292.66833,193.80603 293.64786,194.16624 294.39984,193.78365C295.10315,193.4258 296.03149,193.14653 296.68933,192.56898C297.38583,191.95749 297.64801,191.22115 298.39984,190.78365C299.22549,190.30319 299.3136,189.39731 300.00449,188.95232C300.75656,188.46793 300.94797,187.60918 301.46667,187.00499C301.98782,186.39792 302.75943,186.23457 303.1785,185.56232C303.63342,184.8325 303.21985,183.77982 303.30017,182.90498C303.38388,181.99355 304.06119,181.46733 304.27917,180.50499C304.47806,179.62698 304.13864,178.6402 304.52133,177.90515C304.96249,177.05783 305.29999,176.39432 305.29999,175.50499C305.29999,174.60498 305.3045,173.70499 305.52133,172.90515L306.13333,172.17165L306.29999,171.43031" id="svg_17" stroke-width="3" stroke="#000" fill="none"/>
  <path t="98729,98883,98942,98965,99001,99027,99027,99054,99077,99106,99106,99131,99157,99187,99210,99239,99263,99291,99291,99315,99342,99386,99421,99458,99523,99558,99589,99626,99626,99658,99689,99714,99738,99772,99797,99825,99849,99890,99958,99973,100026,100056,100107,100131,100172,100172,100210,100256,100322,100365,100406,100431,100472,100506,100539,100603,100640,100667,100693,100723,100747,100775,100805,100839,100839,100874,100899,100925,100956,101140" d="M270.29999,261.00497C269.58401,261.72098 268.86993,262.31299 268.42133,263.10483C268.00186,263.84521 267.17401,264.19586 266.60001,264.70947C265.87589,265.35742 265.26669,265.98203 264.59467,266.36215C263.85339,266.78146 263.3157,267.62131 262.87466,268.405C262.41498,269.22186 261.85275,269.75598 261.32535,270.44098C260.82297,271.09351 260.10593,271.58051 259.58533,272.17432C259.01065,272.82983 259.05405,273.57288 258.46667,274.17166C257.84885,274.80148 257.53894,275.55264 257.32083,276.50497C257.12222,277.3721 257.55292,278.37741 257.13333,279.17166C256.77048,279.85855 256.63516,280.57196 256.28934,281.43033C255.9816,282.19415 255.68887,282.75436 255.26401,283.57965C254.90881,284.26962 254.54396,284.83948 254.3,285.71967C254.07878,286.51779 253.4286,287.1806 253.29984,288.10483C253.18811,288.90671 252.3286,289.35626 252.3,290.22632C252.27167,291.08853 252.06033,291.95639 251.65266,292.64783C251.21675,293.38718 251.3,294.35767 251.3,295.22632C251.3,296.08899 250.83417,296.72742 250.35716,297.35767C249.80666,298.08502 249.38376,298.82565 249.3,299.65231C249.21194,300.52136 249.26666,301.37491 248.72533,302.03033C248.22578,302.63516 247.38374,303.1593 247.3,304.00497C247.22104,304.8024 247.3,305.71967 247.3,306.573C247.3,307.43698 247.28934,308.44098 247.01601,309.20364L246.38533,309.92099L246.3,310.70947L246.3,311.64783" id="svg_18" stroke-width="3" stroke="#000" fill="none"/>
  <path t="102140,102238,102256,102272,102289,102322,102356,102389,102410,102422,102458,102474,102522,102539,102578,102610,102639,102672,102689,102722,102722,102756,102789,102822,102822,102856,102872,102906,102939,102962,103002,103039,103039,103122,103139,103156,103194,103210,103226,103258,103274,103314,103356,103386,103410,103458,103482,103522,103556,103572,103626,103658,103706,103722,103778,103778,103789,103822,103839,103856,103872,103872,103889,103906,103922,103922,103956,103972,103989,104006,104026,104039,104072,104107,104122,104156,104172,104206,104239,104239,104256,104289,104306,104339,104356,104378,104389,104422,104439,104456,104489,104506,104522,104556,104657,104756,104805,104858" d="M258.29999,238.00499C258.29999,238.80632 258.29999,239.70499 258.29999,240.60498C258.29999,241.48415 258.29999,242.43031 258.29999,243.28899C258.29999,244.22649 258.29999,245.10481 258.29999,246.00365C258.29999,246.80632 258.66519,247.81812 258.26401,248.57965C257.86801,249.33133 257.58017,249.99779 257.29999,250.83832C257.03647,251.62889 256.3775,252.22981 256.29999,253.08899C256.21631,254.01627 255.48036,254.59119 255.3,255.43031C255.11957,256.26984 255.00566,257.06851 254.584,257.72098C254.11687,258.44382 253.608,259.23257 253.3,260.04099C252.98669,260.86334 252.59398,261.51593 252.3,262.289C251.98073,263.1286 251.52873,263.67047 250.94733,264.36215C250.3618,265.05875 249.98317,265.58603 249.42149,266.2265C248.83684,266.89316 248.93462,267.69925 248.21466,268.09033C247.51628,268.4697 247.34206,269.54315 246.87466,270.01566C246.34387,270.55225 245.96199,271.29465 245.3,271.83832C244.7319,272.3049 243.98756,272.39655 243.46666,273.17166C243.00403,273.86008 242.85492,274.38715 242.26401,274.99432C241.65442,275.62067 240.91118,275.68423 240.13333,276.17166C239.52211,276.55469 239.46719,277.66782 239.27916,278.52582C239.09787,279.35309 238.36089,280.09885 238.3,281.00497C238.24637,281.80319 238.3,282.70499 238.3,283.52582C238.3,284.48764 238.3,285.29517 238.3,286.29031C238.3,287.20499 238.3,288.10483 238.3,288.95233C238.3,289.8063 238.3,290.64783 238.3,291.57965C238.3,292.44098 238.3,293.39432 238.3,294.29031C238.3,295.20364 238.3,296.06216 238.3,297.00497C238.3,297.80499 238.3,298.64783 238.3,299.61566C238.3,300.48416 238.3,301.36215 238.3,302.30499C238.3,303.20364 238.3,304.05765 238.3,305.00497C238.3,305.83832 238.3,306.65231 238.3,307.61566C238.3,308.50497 238.3,309.39432 238.3,310.289C238.3,311.17166 238.584,311.92099 239.26401,312.43033L239.3,313.35767" id="svg_19" stroke-width="3" stroke="#000" fill="none"/>
  <path t="107561,107691,107707,107731,107763,107794,107805,107858,107914,107939,107971,107997,108024,108055,108085,108111,108139,108168,108197,108197,108238,108266,108314,108372,108489,108699,108722,108746,108772,108789,108822,108822,108850,108904,108962,109042,109098,109186,109205,109239" d="M248.3,306.00497C248.3,307.00497 248.3,307.92099 248.3,308.72098C248.3,309.65231 248.3,310.52582 248.3,311.39432C248.3,312.35767 248.3,313.22632 248.3,314.08899C248.3,315.00497 248.24687,315.88177 247.8,316.52582C247.29005,317.26077 246.75548,317.7955 246.0045,318.36215C245.33545,318.86697 245.14569,319.92123 244.3,320.00497C243.50389,320.0838 242.37161,319.62326 241.65266,320.00497C241.0399,320.33029 240.584,321.0043 239.65266,321.00497C238.8,321.00558 237.62045,321.16531 237.31067,320.43033C236.9761,319.63657 237.51024,318.63211 237.07866,317.78348C236.73317,317.10413 236.30226,316.36215 236.3,315.43033C236.29794,314.57965 236.3,313.65231 236.584,313.00497L237.52133,313.00482L238.24283,312.65231L238.584,312.00497" id="svg_20" stroke-width="3" stroke="#000" fill="none"/>
  <path t="110654,110722,110791,110823,110855,110872,110872,110922,110939,110972,110989,111005,111026,111089,111105,111140,111155,111172,111205,111239,111255,111289,111305,111322,111322,111339,111355,111372,111389,111405,111422,111472,111472,111489,111505,111522,111555,111572,111589,111606,111639,111655,111704,111742,111770,111798,111798,111838,111871,111898,111986,112104,112104,112258,112321,112361,112472,112586,112642,112786,112968" d="M252.3,236.00499C251.584,236.72099 251.08218,237.54074 250.27467,237.99432C249.50363,238.42741 249.17717,239.04024 248.65266,239.64783C247.99876,240.4053 247.74712,241.20457 247.13333,241.83832C246.53606,242.45502 246.1871,242.78932 245.72533,243.56898C245.26761,244.3418 244.72127,244.83054 244.01601,245.28899C243.23215,245.79854 242.81055,246.29286 242.07866,246.88348C241.43254,247.40489 240.99696,247.80365 240.13333,248.00499C239.3517,248.18721 238.68445,248.76523 238.00534,249.05765C237.18852,249.40936 236.49821,249.64171 235.73599,250.04099C234.97769,250.4382 234.47736,251.05733 233.73599,251.57965C232.94243,252.13875 232.23621,252.39587 231.40984,252.95232C230.71426,253.42068 229.9146,253.72594 229.13333,254.17165C228.31441,254.63884 227.90292,255.22104 227.216,255.72099C226.50485,256.23859 225.8,256.50497 225.07866,257.22632C224.46666,257.83832 223.864,258.44098 223.20016,259.10483C222.65717,259.64783 222.46352,260.58539 222.01601,261.289C221.53737,262.04156 220.80002,262.50497 220.13333,263.17166C219.584,263.72098 218.65857,263.68518 217.87466,264.01566C217.13969,264.3255 216.8,265.00497 216.01601,265.289L215.35716,265.94781L214.8,266.50497L214.01601,267.00632" id="svg_21" stroke-width="3" stroke="#000" fill="none"/>
  <path t="170665,170870,170945,170970,171003,171036,171090,171119,171153,171202,171242,171282,171298,171338,171364,171364,171420,171454,171480,171508,171538,171538,171578,171604,171635,171662,171691,171721,171749,171778,171778,171807,171837,171864,171887,171903,171955,171978,172042,172074,172098,172170,172211,172298,172362,172420,172460,172490,172490,172522,172562,172603,172658,172690,172769,172819,173004,173060,173089,173138,173170,173199,173234,173252,173274,173303,173318,173354,173369,173386,173402,173442,173498,173522,173570,173602,173658,173686,173703,173736,173753,173769,173786,173819,173853,173891,173922,173954,173986,174026,174036,174069,174090,174103,174119,174136,174169,174169,174186,174203,174219,174236,174274,174298,174338,174437,174453,174499,174555,174586,174620,174643,174670,174704,174720,174720,174737,174754,174770,174804,174804,174837,174869,174887,174904,174920,174954,174970,174987,175004,175043,175043,175054,175087,175107,175123,175154,175170,175204,175254,175270,175331,175363,175453,175486,175519,175554,175579,175828,175866,175938,176067,177845,178067,178166,178203,178219,178301,178401,178504,178571,178610,178739,178804,178859,178904,178955,178970,178987,179004,179020,179037,179070,179087,179104,179137,179154,179154,179187,179220,179237,179254,179270,179287,179304,179336,179353,179369,179403,179626,179652,179674,179720,179762,179810,179858,179898,179954,179986,180034,180052,180086,180086,180102,180138,180186,180421,180437,180462,180486,180519,180536,180569,180586,180654,180669,180714,180725,180769,180769,180802,180819,180836,180852,180869,180902,180936,180952,180986,181002,181042,181119,181170,181201,181219,181236,181269,181286,181330,181354,181406,181422,181451,181469,181485,181518,181535,181536,181568,181586,181601,181635,181657,181674,181701,181718,181735,181751,181768,181811,181811,181825,181874,181953,182002,182036,182053,182070,182085,182102,182102,182135,182151,182177,182252,182304,182403,182500" d="M214.3,269.00497C214.3,270.02582 214.3,270.8063 214.3,271.71967C214.3,272.65231 214.32277,273.52484 213.87466,274.01566C213.33688,274.60471 213.3,275.43033 213.3,276.35767C213.3,277.289 213.76883,278.35742 213.24283,279.00049C212.7034,279.65997 211.97577,280.03467 211.584,280.71967C211.15613,281.4678 210.94145,282.29514 210.3,283.00497C209.71997,283.64685 209.3468,284.48471 209.3045,285.29517C209.2527,286.28766 209.09052,286.99594 208.65266,287.70947C208.15131,288.52649 208.44209,289.51797 208.28934,290.405C208.14586,291.23813 207.38789,291.9913 207.3045,292.70499C207.20006,293.59891 207.3,294.50497 207.3,295.405C207.3,296.30499 207.3,297.20364 207.3,298.17166C207.3,299.03033 207.3,299.92099 207.3,300.70947C207.3,301.64783 207.3,302.52582 207.3,303.39432C207.3,304.35767 207.75253,305.5043 207.13333,306.00497C206.40758,306.59183 205.3,306.00497 204.5,306.00497C203.65717,306.00497 202.68933,306.00497 201.82083,306.00497C200.94284,306.00497 200.0045,306.00497 199.13333,306.00497C198.24733,306.00497 197.31218,306.19312 196.49867,305.91965C195.74547,305.66644 195.3,304.72098 195.3,303.78366C195.3,302.95233 195.3,302.03033 195.3,301.20364C195.3,300.29031 195.44647,299.55142 196.01601,298.92099C196.60217,298.27216 197.25728,297.72266 197.3,296.8063C197.33977,295.95325 196.84235,294.82202 197.46666,294.17166C198.04411,293.5701 198.0567,293.17062 198.3,292.29031C198.52065,291.49203 199.3,290.78366 199.3,289.95233C199.3,289.03033 199.3,288.20364 199.3,287.30499C199.3,286.44098 199.3,285.50497 199.3,284.65231C199.3,283.72098 199.3,282.78366 199.3,281.94781C199.3,281.03033 199.76274,280.63275 200.28934,279.96899C200.83714,279.2785 200.05707,278.26846 200.3,277.33832C200.51981,276.4968 201.29933,275.92099 201.3,275.00497C201.30058,274.20499 200.93683,273.2081 201.336,272.44098C201.73114,271.68161 202.29933,271.20364 202.3,270.17166C202.30054,269.35767 202.34044,268.47186 202.8,267.98416C203.34779,267.40283 203.3,266.50497 203.3,265.57965C203.3,264.65231 203.28287,263.78348 203.3,262.92099C203.31801,262.01511 204.08481,261.742 204.46666,261.00497C204.85728,260.25104 204.96829,259.43704 205.31067,258.61566C205.6275,257.85559 206.53455,257.56879 206.87466,256.85565C207.31596,255.93037 207.61115,255.24141 208.24733,254.65231C208.82291,254.11934 208.94084,253.34927 209.32083,252.50499C209.63412,251.8089 210.26088,251.23967 210.8,250.52582C211.37715,249.76163 211.89703,249.28026 212.2955,248.36215C212.61346,247.62953 212.92239,246.71524 213.584,246.09032C214.15036,245.55536 214.85297,245.30029 215.3,244.72099C215.74911,244.13899 216.07622,243.62491 216.30017,242.78365C216.50674,242.00768 217.28848,241.78357 217.3,240.83832C217.31042,239.98396 218.06093,239.45871 218.27916,238.52582C218.4792,237.67067 218.3,236.80632 218.3,235.83832C218.3,235.00499 218.49933,234.55048 219.13333,234.00499C219.64005,233.56902 219.29074,232.37033 219.72533,231.60498C220.13701,230.87997 220.3,229.97966 220.3,229.08899C220.3,228.17165 219.584,228.00499 218.72533,228.00499C217.8,228.00499 216.94733,228.00499 216.01601,228.00499C215.13333,228.00499 214.07336,228.2636 213.42134,227.78365C212.72307,227.26965 212.48563,226.33197 211.72533,226.01566C210.8705,225.66002 210.16165,225.55562 209.584,224.92099C208.99541,224.27432 208.16161,223.98201 207.65717,223.35765C207.11917,222.69176 206.75645,222.10236 206.3,221.48415C205.79443,220.79941 205.49266,219.96268 205.21466,219.20366C204.90302,218.35277 203.87267,217.93896 203.42149,217.12633C203.03842,216.43637 201.70233,215.60342 202.3045,215.00499C202.90416,214.40906 203.58234,215.96227 204.49867,216.00499C205.33508,216.04398 206.24733,216.00499 207.13333,216.00499C207.94733,216.00499 208.3,215.43031 208.3,214.50499C208.3,213.64783 208.52646,212.63341 208.13333,211.83832C207.81363,211.19173 207.30226,210.36217 207.3,209.50499C207.29758,208.57965 207.72319,207.93379 208.13333,207.17165C208.52707,206.43997 207.98019,205.36357 208.31067,204.57965C208.62051,203.84468 209.73599,204.00571 210.68933,204.00499C211.584,204.00432 212.17911,203.51257 212.65266,203.00049C213.19498,202.41405 213.3,201.56232 213.3,200.85565C213.3,199.83832 213.3,198.90498 213.3,198.00499C213.3,197.17165 213.28957,196.35759 213.3,195.43031C213.31042,194.50481 213.84248,193.98564 214.32083,193.50499C214.91016,192.91284 215.28566,192.08887 216.01601,192.00499C216.86906,191.90703 217.25925,191.42636 217.91066,190.97966C218.63263,190.48459 219.38533,189.91965 219.94733,189.35765C220.65266,188.65231 221.282,188.03085 221.3,187.12633C221.31667,186.28915 222.09088,185.99992 222.29866,185.20366C222.51164,184.38745 223.02751,183.78773 223.46666,183.00499C223.85939,182.30496 224.17226,181.50406 224.584,180.80632C225.06892,179.98459 225.82085,179.48416 226.49867,178.80632C227.13333,178.17165 227.89648,178.11751 228.68933,177.57965C229.4129,177.08879 229.91888,176.44753 230.77916,176.02582C231.47357,175.68541 231.59633,174.75275 232.49867,174.17566C233.19585,173.7298 233.3,173.05765 233.3,172.17165C233.3,171.39432 233.25352,170.4716 233.72533,169.60498C234.12408,168.87251 234.53577,168.05128 234.94733,167.36215C235.38969,166.62144 235.90733,166.14859 236.68933,165.57965C237.39473,165.06644 237.3,164.06215 238.13333,164.00499L238.38533,163.28899" id="svg_23" stroke-width="3" stroke="#000" fill="none"/>
  <path t="184790,185669,185817,185900,186000,186069" d="M274.29999,260.00497C273.42151,260.00497 272.59549,260.00497 271.73599,260.04099L271.30133,260.72098L270.86401,261.43033" id="svg_24" stroke-width="3" stroke="#000" fill="none"/>
  <path t="187988,188236,188400,188503,188602,188642,188721,188867,188935" d="M215.3,265.00497C215.3,265.88348 215.3,266.70947 215.3,267.64783C215.3,268.52582 215.3,269.39432 215.3,270.289L215.29984,271.22632L214.94733,271.94781" id="svg_25" stroke-width="3" stroke="#000" fill="none"/>
  <path t="193761,193915,193939,193955,193986,194003,194020,194036,194070,194102,194134,194135,194152,194152,194185,194219,194236,194253,194286,194303,194335,194386,194403,194420,194420,194436,194453,194453,194470,194470,194486,194486,194503,194520,194520,194536,194536,194553,194553,194570,194570,194620,194781,195058,195101,195135,195169,195185,195185,195219,195235,195269,195285,195314,195352,195385,195442,195468,195514,195535,195618,195666,195685,195702,195719,195752,195899,195932,195969,196037,196052,196259,196322,196354,196435,196454,196470,196502,196522,196539,196555,196753,196850,197198" d="M238.3,162.00499C239.21466,161.72099 239.3,160.83832 239.3,159.97966C239.3,159.05765 239.3,158.30049 239.3,157.40498C239.3,156.44098 239.30008,155.57965 239.3,154.64333C239.29991,153.68365 239.46504,152.94756 239.07866,152.02666C238.73589,151.2097 238.45486,150.4903 238.28934,149.56898C238.14607,148.77159 237.34273,148.09377 237.3,147.30049C237.25378,146.44223 237.46312,145.42484 237.01601,144.72099C236.53624,143.96576 235.90811,143.31174 235.65266,142.65315C235.2643,141.6519 235.13333,140.83832 234.8,140.00499C234.46666,139.17165 234.3197,138.36478 234.01601,137.52098C233.69881,136.63965 233.3401,135.75856 233.3,134.83832C233.26372,134.00552 233.173,133.14806 232.68933,132.37965C232.23616,131.6597 231.6998,131.04604 231.42149,130.02649C231.2032,129.22682 231.3,128.30499 231.3,127.36215C231.3,126.50499 231.29993,125.57965 231.3,124.72099C231.30009,123.78349 231.63208,122.97975 232.01601,122.29032C232.43185,121.54358 232.3,120.61565 232.3,119.64782C232.3,118.80632 232.3,117.92099 232.3,117.00499C232.3,116.12649 231.61273,115.56441 231.35716,114.70949C231.09148,113.82076 231.3,112.92099 231.3,111.99432C231.3,111.20365 231.71271,110.18156 231.24283,109.36215C230.8484,108.67432 229.7572,107.87191 230.3,107.17165C230.70952,106.64335 230.90822,107.67648 231.32083,108.50499C231.67691,109.21999 232.3,108.43032 232.3,107.50499C232.3,106.65232 232.21498,105.65988 232.72533,105.03032C233.20602,104.43733 233.3,103.56898 233.3,102.70499C233.3,101.80632 233.3,100.92099 233.3045,100.00049L233.87466,99.43032L234.3,98.65232" id="svg_26" stroke-width="3" stroke="#000" fill="none"/>
  <path t="208974,209319,209355,209378,209394,209442,209466,209501,209551,209570,209594,209636,209698,209718,209770,209801,210118,210218,210251,210274,210330,210368,210403,210451,210518,210546,210585,210675,210752,210768,210882" d="M282.29999,45.00499C282.58401,44.08899 283.01428,43.60394 283.3045,42.70949C283.54828,41.95811 284.16931,41.61806 284.72534,41.04099C285.2067,40.54142 285.63843,40.08163 286.27466,39.57965C286.94083,39.05406 287.3898,38.47038 287.87466,37.96899C288.43173,37.39293 288.39328,36.46857 288.87466,35.96899C289.43069,35.39192 289.29999,35.57965 289.29999,36.52582C289.29999,37.39432 289.29999,38.28899 289.29999,39.22632C289.29999,40.09032 289.29999,40.97965 289.29999,41.88365C289.29999,42.72099 289.29999,43.57965 289.29999,44.50499L289.28934,45.43032L288.79999,45.98415L287.87466,46.00499" id="svg_27" stroke-width="3" stroke="#000" fill="none"/>
  <polyline timestamps="218036,218277,218333" startTime="1503447758722" id="svg_28" points="246.3,72.00498657226562 245.27916666666664,72.00498657226562 244.3853333333333,72.00365323893229 " stroke-linecap="round" stroke-width="3" stroke="#000" fill="none"/>
  <path t="222414,222599,222675,222699,222699,222715,222732,222753,222783,222816,222850,222900,222945,222953,222999,223016,223066,223100,223150,223201,223217,223257,223297,223333,223350,223393,223425,223450,223499,223516,223553,223566,223649,223666,223666,223753,223785,223801,223833,223889,223913,223950,223983,224017,224033,224073,224100,224149,224183,224226,224250,224267,224300,224334,224351,224401,224417,224466,224498,224517,224554,224584,224617,224682,224706,224722,224762,224783,224802,224834,224874,224920,224966,224986,225017,225034,225073,225090,225106,225145,225169,225194,225217,225267,225289,225335,225367,225417,225465,225489,225521,225545,225600,225633,225666,225705,225745,225769,225809,225858,225858,225866,225916,225933,225977,226016,226033,226082,226121,226161,226209,226265,226321,226369,226385,226410,226449,226489,226529,226550,226601,226616,226650,226683,226716,226750,226785,226801,226833,226883,226900,226916,226938,226950,226966,226999,227025,227065,227116,227194,227257,227299,227316,227353,227383,227409,227433,227513,227533,227585,227609,227649,227666,227705,227745,227785,227815,227815,227873,227899,227937,228000,228041,228100,228149,228199,228225,228313,228333,228433,228450,228529,228593,228649,228734,228794,228874,228969,229009,229041,229083,229130,229169,229202,229251,229267,229284,229316,229337,229350,229366,229383,229416,229433,229450,229466,229483,229500,229516,229550,229550,229583,229616,229650,229666,229689,229721,229753,229785,229800,229833,229866,229867,229900,229917,229950,229951,229983,230000,230016,230033,230049,230066,230105,230149,230167,230184,230201,230216,230257,230283,230299,230316,230349,230369,230393,230416,230449,230483,230500,230516,230534,230567,230583,230599,230616,230633,230649,230683,230699,230716,230737,230748,230806,230867,230917,230917,230917,230958,230959,231003,231055" d="M71.3,91.00499C71.3,90.00499 71.2877,89.18605 71.30133,88.23832C71.31158,87.52563 71.68596,86.66823 72.13333,85.83832C72.52481,85.11211 72.3,84.12649 72.3,83.28899C72.3,82.43032 72.13651,81.42459 72.584,80.72099C73.08402,79.93479 73.3,79.17165 73.3,78.35765C73.3,77.43032 73.29992,76.57965 73.3,75.65232C73.30009,74.78365 73.92198,74.34752 74.3,73.72099C74.78423,72.91842 74.72909,72.35689 75.21467,71.72099C75.75285,71.01619 75.59081,70.14641 76.52133,70.00499C77.3086,69.88535 77.4897,69.28484 78.17867,68.78365C78.87676,68.27583 79.58907,68.18746 80.39983,67.78365C81.10619,67.43185 81.88194,67.1007 82.5955,66.65232C83.41554,66.13703 84.21467,66.00499 85.0045,66.00499C85.94283,66.00499 86.56059,65.31306 87.35717,65.00499C88.23653,64.66491 89.13333,65.00499 89.94733,65.00499C90.87466,65.00499 91.8,65.00499 92.65266,65.00499C93.58533,65.00499 94.49866,65.00499 95.35267,65.00499C96.24733,65.00499 96.64729,65.46317 97.3,66.00049C97.97839,66.55894 98.61543,66.37306 99.30133,66.91965C99.93052,67.42106 100.59493,67.33129 101.30016,67.88348C101.87184,68.33111 102.64843,68.54639 103.46667,69.00499C104.16571,69.39678 104.80769,69.78979 105.52133,70.22632C106.31425,70.71134 106.59754,71.33076 107.3,71.88348C107.87074,72.33256 108.84116,72.35355 109.3,73.17165C109.69139,73.86949 110.73081,73.65177 111.21467,74.28899C111.78387,75.0386 111.66306,75.89027 112.49866,76.00499C113.30955,76.11632 113.25425,77.13118 113.91067,77.57965C114.70174,78.12012 115.20284,78.54875 115.8,78.98415C116.55218,79.53258 117.264,79.96899 117.87466,80.57965C118.52133,81.22632 118.86191,81.96864 119.35717,82.65232C119.82086,83.29242 120.80144,83.45743 121.3,84.09032C121.85327,84.79265 121.94682,85.30816 122.336,86.04099C122.7415,86.80455 123.13335,87.49687 123.52133,88.22649C123.87917,88.89943 123.88954,89.84323 124.35717,90.65232C124.75269,91.33665 125.26895,91.95286 125.3,92.83832C125.32861,93.65382 126.21626,94.15935 126.3,95.00948C126.38568,95.87927 127.15605,96.05499 127.3,96.92099C127.45042,97.8259 127.74109,98.43108 128.216,99.20365C128.66785,99.93871 129.3,100.29032 129.3,101.20365C129.3,102.09032 129.82561,102.49025 130.3,103.17165C130.80624,103.89879 130.3,104.95232 130.3,105.83832C130.3,106.65232 131.07468,106.95104 131.2955,107.70949C131.55782,108.61042 131.12926,109.52267 131.31067,110.44099C131.48994,111.34849 132.19359,111.92501 132.3045,112.71032C132.44086,113.67565 133.27141,114.00808 133.3,114.88365C133.32735,115.72054 133.3,116.57965 133.3,117.50499C133.3,118.43032 133.51108,119.3131 133.29984,120.22632C133.11887,121.00867 132.3185,121.28918 132.3,122.17165C132.282,123.03088 131.4803,123.59608 131.3,124.44099C131.12062,125.28156 130.80467,125.6909 130.35716,126.35765C129.87201,127.08049 129.67801,127.66247 129.3,128.28899C128.81578,129.09155 129.51367,130.12631 129.13333,131.00499C128.81448,131.74161 128.27422,132.41779 127.8,133.00499C127.28783,133.63921 126.87466,134.43031 126.27467,135.03032C125.65267,135.65231 124.77479,135.85802 124.29867,136.28899C123.70454,136.82677 122.94283,137.00499 122.10133,137.00499C121.13333,137.00499 120.27467,137.00499 119.38533,137.00499C118.584,137.00499 117.65266,137.00499 116.72533,137.00499C115.87466,137.00499 114.94251,137.09641 114.07867,137.00499C113.28679,136.92119 113.01891,136.0477 112.07867,136.00499C111.21556,135.96579 110.64542,135.57001 109.94733,135.06215C109.26466,134.56551 108.47956,134.09714 107.72533,134.00499C106.78593,133.89021 106.17112,133.38687 105.32533,133.04099C104.55945,132.72778 103.57737,133.01822 102.864,132.57965C102.0911,132.10449 101.2,132.00508 100.3,132.00499C99.42133,132.0049 98.83136,131.3976 98.0045,131.06215C97.17101,130.72401 96.61823,130.14882 95.72533,130.00499C94.81178,129.85783 93.94733,130.00049 93.3,129.50499C92.65266,129.00949 92.07914,128.46918 91.24733,128.00949C90.49785,127.5953 89.75671,127.2926 89.29867,126.71965C88.77184,126.06066 88.56719,125.30671 87.87466,124.57965C87.28999,123.96582 87.17675,122.97012 86.65266,122.36215C86.06208,121.67705 85.90186,120.78767 85.29984,120.12649C84.79819,119.57554 84.78455,119.00929 84.21467,118.29032C83.63873,117.56371 82.89228,117.43204 82.38533,116.72099C81.91047,116.05493 81.84796,115.19399 81.31067,114.44099C80.90359,113.87048 79.79071,113.77413 79.4215,112.90515C79.07612,112.09225 78.89228,111.43204 78.38533,110.72099C77.91047,110.05493 77.48499,109.40897 77.3,108.50499C77.11448,107.59838 76.88548,106.92091 76.24733,106.35765C75.65193,105.83212 75.63708,104.85609 75.13333,104.17165C74.65273,103.51866 74.54585,102.77158 74.016,102.08899C73.53134,101.46461 73.46795,100.65366 73.07867,99.90515C72.63789,99.05763 72.09928,98.5965 71.584,97.92099C71.11638,97.30796 71.27966,96.30913 70.85733,95.46232C70.49263,94.73107 70.00533,94.01032 69.543,93.14799L69.309,92.31399L69.3,91.40498L69.3,90.52582" id="svg_29" stroke-width="3" stroke="#000" fill="none"/>
  <path t="232581,232634,232674,232698,232754,232778,232816,232849,232905,232916,232962,232999,233026,233098,233138,233202,233234,233283,233299,233316,233333,233349,233410,233418,233442,233467,233483,233522,233554,233618,233642,233658,233674,233714,233749,233766,233783,233816,233833,233849,233866,233889,233890,233900,233916,233933,233967,233984,234000,234017,234034,234066,234083,234166,234166,234234,234249,234274,234298,234316,234350,234366,234383,234399,234433,234449,234473,234513,234633,234666,234714,234737,234817,234850,234898,234969,235002,235016,235050,235083,235137,235138,235178,235216,235216,235273,235314,235370,235394,235415,235441,235709,235778,235809" d="M73.3,81.00499C73.3,82.00499 73.3,82.92099 73.3,83.72099C73.3,84.61565 73.3,85.56898 73.3,86.43032C73.3,87.35765 73.3,88.22649 73.3,89.10482C73.3,90.02582 73.3,90.92099 73.3,91.72099C73.3,92.65232 73.3,93.50499 73.3,94.43032C73.3,95.35765 73.3,96.22649 73.3,97.10482C73.3,98.00499 73.3,98.80632 73.3,99.71965C73.3,100.61565 73.46279,101.44305 73.94733,102.05766C74.45934,102.7071 74.61449,103.39214 75.13333,104.17165C75.60421,104.87911 75.75028,105.54994 76.21467,106.29032C76.70209,107.06742 76.67147,107.6004 77.21467,108.28899C77.76389,108.98521 77.33331,110.03297 77.87466,110.57965C78.58051,111.29246 79.08417,111.95615 79.35717,112.70949C79.67703,113.59213 80.32462,114.15763 80.77917,114.98415C81.24004,115.82219 81.46241,116.52483 82.016,117.08899C82.67558,117.76115 83.12498,118.41959 83.52133,119.10482C83.99963,119.93174 84.86536,120.10491 85.3,120.83832C85.72487,121.55521 86.4657,122.17262 87.016,122.72099C87.65604,123.35878 88.47809,123.6321 89.3,124.02582C90.0435,124.38197 90.77554,124.77661 91.52133,125.22632C92.31731,125.70628 93.02131,126.03397 93.77917,126.50499C94.53922,126.97736 95.25757,127.17677 95.94733,127.65232C96.6506,128.13718 97.15752,128.50955 97.8,128.98415C98.4766,129.48395 99.17947,130.02209 99.82083,130.50499C100.53546,131.04305 101.09885,131.58722 101.65717,132.00949C102.36436,132.54437 103.21127,132.96227 104.016,133.00499C104.87346,133.05052 105.868,133.00499 106.59467,133.00499C107.584,133.00499 108.35874,133.30679 109.016,133.72099C109.73805,134.17603 110.68933,134.00499 111.65717,134.00499C112.49866,134.00499 113.3,134.17165 113.38533,135.00365L114.27467,135.00499L115.17867,135.00499L116.0045,135.00499" id="svg_30" stroke-width="3" stroke="#000" fill="none"/>
  <path t="237261,237411,237450,237467,237538,237568,237600,237617,237650,237667,237684,237717,237717,237734,237750,237767,237784,237800,237834,237867,237884,237917,237951,237967,237985,238017,238050,238051,238068,238100,238117,238135,238151,238168,238185,238218,238235,238251,238284,238284,238301,238338,238350,238384,238417,238450,238483,238514,238523,238583,238600,238618,238649,238666,238690,238702,238717,238754,238778,238817,238849,238866,238889,238938,238978,238988,239018,239050,239083,239117,239150,239170,239200,239233,239267,239300,239317,239350,239401,239434,239466,239506,239567,239602,239650,239666,239690,239762,239802,239850,239917,239933,239962,240000,240018,240050,240100,240117,240138,240194,240233,240534" d="M81.3,81.00499C81.94733,79.94782 82.21638,79.04839 82.8,78.50499C83.44235,77.90691 84.46667,78.00499 85.32083,78.00499C86.10133,78.00499 87.13333,78.00499 87.91067,78.00499C88.864,78.00499 89.75082,77.92659 90.48534,78.04099C91.43573,78.189 92.29109,78.89165 93.13333,79.00499C93.94205,79.11382 94.35093,79.86128 95.27467,80.00499C96.16792,80.14396 96.7571,80.32927 97.46667,80.83832C98.17723,81.34808 98.84593,81.75318 99.68933,81.96899C100.62325,82.20795 101.38443,82.28439 102.10133,82.72099C102.87543,83.19241 103.32591,83.769 104.0045,84.06216C104.84029,84.42323 105.64621,84.88737 106.27467,85.43032C106.8523,85.92937 107.584,86.28899 108.24733,86.95232C108.87466,87.57965 109.44897,88.32688 110.10133,88.72099C110.87711,89.18964 111.41942,89.6439 112.016,90.09032C112.76899,90.65377 112.67905,91.31821 113.31067,91.96899C113.91573,92.59239 114.98719,92.44559 115.24284,93.30048C115.5086,94.18921 115.68983,94.91283 116.27917,95.50499C116.75752,95.98563 116.93153,96.60747 117.32083,97.48415C117.63651,98.19505 117.93478,98.81956 118.336,99.57965C118.7326,100.331 119.3,100.92099 119.3,101.83832C119.3,102.61565 119.16302,103.57995 119.3,104.43032C119.44383,105.32322 120.22143,105.87854 120.3,106.72099C120.37981,107.57669 121.15606,108.05372 121.3,108.92099C121.4502,109.82594 121.3,110.65232 121.3,111.57965C121.3,112.43032 121.3,113.35765 121.3,114.22649C121.3,115.10482 121.3,116.04099 121.3,116.92099C121.3,117.83832 121.3,118.65232 121.3,119.57965C121.3,120.44099 121.50739,121.32405 121.29984,122.22632C121.11891,123.01283 120.56,123.54202 120.3,124.43032C120.10953,125.08111 119.42494,125.50117 118.94733,126.00948C118.38912,126.60358 117.77026,127.03736 117.27917,127.50499C116.70071,128.05582 115.6462,127.65082 114.8,128.02582C114.10211,128.3351 113.584,129.00365 112.65266,129.00499L111.8,129.00499L110.87466,129.00499" id="svg_31" stroke-width="3" stroke="#000" fill="none"/>
  <path t="242711,242754,242770,242834,242883,242914,242984,243049,243183,243242,243267,243283,243300,243350,243384,243410" d="M82.3,79.00499C81.3,79.02582 80.72496,79.57928 80.016,80.28899C79.38499,80.92065 79.3,81.72099 79.3,82.57965C79.3,83.50499 79.3,84.43032 79.3,85.28899C79.3,86.22632 79.24284,87.05766 78.65266,87.65232L78.3,88.43032L77.94733,89.00948L77.32083,89.50499" id="svg_32" stroke-width="3" stroke="#000" fill="none"/>
  <path t="244633,244929,244977,245041,245131,245193,245233,245273,245320,245376" d="M114.3,128.00499C112.65266,128.00499 111.72533,128.00499 110.87466,128.00499C109.94733,128.00499 109.07867,128.00499 108.13333,128.00499L107.27917,128.00499L106.49866,128.09032L105.736,128.57965" id="svg_33" stroke-width="3" stroke="#000" fill="none"/>
  <path t="247329,247450,247482,247521,247532,247566,247697" d="M235.3,96.00499C235.28934,97.01566 234.72533,97.57965 234.2955,98.35765L233.8,98.98415L233.3,99.43032L233.3,100.35765" id="svg_34" stroke-width="3" stroke="#000" fill="none"/>
  <path t="250945,251161,251233,251283,251332,251350,251386,251417,251442,251482,251516,251532,251577,251577,251667,251699,251972,252025,252033,252049,252082,252099,252129,252149,252193,252257,252337,252377,252414,252432,252474,252505,252529,252641,252665,252766,252814,253009,253097" d="M273.29999,121.00499C272.29999,121.00499 271.36395,120.98373 270.79999,121.50499C270.05087,122.1974 269.38385,122.82445 269.29999,123.57965C269.19556,124.52003 269.29999,125.39432 269.29999,126.28899C269.29999,127.22632 269.50531,128.15149 269.13333,129.00499C268.81265,129.74081 268.29999,130.43031 268.29999,131.28899C268.29999,132.22632 268.46667,133.00499 269.29999,133.00499C270.21466,133.00499 271.03085,133.18773 271.89999,132.96899C272.76282,132.75185 273.51462,132.19279 274.384,132.00499C275.24207,131.81963 275.29999,130.83832 275.29999,129.98415C275.29999,129.08899 275.52664,128.46159 276.17868,127.78365C276.73621,127.20397 277.28198,126.58017 277.29999,125.64782C277.31622,124.80648 277.29999,123.91965 277.29999,123.00499L277.29999,122.09032L277.29999,121.28899" id="svg_35" stroke-width="3" stroke="#000" fill="none"/>
  <path t="253507,253681,253699,253715,253749,253765,253782,253799,253799,253832,253849,253865,253899,253915,253953,254016" d="M279.29999,118.00499C281,118.00499 281.89999,118.00499 282.86401,118.00499C283.73599,118.00499 284.60654,118.11196 285.5,118.00365C286.41962,117.89217 286.9454,117.21084 287.73599,116.57965C288.44415,116.01429 289.35266,116.00499 290.29999,116.00499L291.13333,116.00499L291.94733,116.00499L292.87466,116.00499" id="svg_36" stroke-width="3" stroke="#000" fill="none"/>
  <path t="255455,255665,255705,255777,255815,255865,255889,255977,256001,256042,256082,256115,256149,256170,256186,256312,256383" d="M277.29999,117.00499C276.58401,117.72099 275.79999,118.00499 274.87466,118.00499C273.94733,118.00499 273.07867,118.00499 272.216,118.00499C271.2955,118.00499 270.42133,118.00499 269.58401,118.00499C268.65268,118.00499 268.04123,117.53935 267.25833,116.98415C266.65308,116.55493 265.63333,116.17165 264.87466,116.00499L263.94733,116.00499" id="svg_37" stroke-width="3" stroke="#000" fill="none"/>
  <path t="258232,258490,258565,258634,258721,258761,258798,258848,258865,258898,258929,258985" d="M279.29999,118.00499C279.29999,119.65232 279.29999,120.52582 279.29999,121.39432C279.29999,122.36215 279.66486,123.38257 279.13333,124.00499C278.61295,124.61437 277.87466,124.97965 277.29999,125.50499L276.65268,126.00049L275.72534,126.00499" id="svg_38" stroke-width="3" stroke="#000" fill="none"/>
  <path t="287615,287731,287799,287849,287849,288010,288300,288347,288347,288431" d="M345.5,228.20499C344.58533,228.49033 344.5,229.30499 344.5,230.20499C344.5,231.00499 344.5,232.03831 344.53601,232.85165L344.784,233.68898L345.07468,234.37965L345.44733,235.45232" id="svg_39" stroke-width="3" stroke="#000" fill="none"/>
  <path t="289584,289965,289981,289981,290015,290051,290364,290400" d="M349.5,232.20499C351.33334,232.37166 351.5,233.20499 351.5,234.00499C351.5,234.90498 351.5,235.80499 351.5,236.70499L351.5,237.60498" id="svg_40" stroke-width="3" stroke="#000" fill="none"/>
  <path t="293832,294182,294197,294259,294259,294331,294371" d="M265.5,223.20499C265.5,224.20499 265.5,224.96666 265.5,225.85765L265.5,226.72099L265.5,227.68416L265.5,228.60498" id="svg_41" stroke-width="3" stroke="#000" fill="none"/>
  <path t="295496,295666,295707,295707,295715,295879" d="M255.5,228.20499C257.33334,228.37166 257.5,229.20499 257.5,230.00499L257.5,230.90498L257.5,231.80499" id="svg_42" stroke-width="3" stroke="#000" fill="none"/>
 </g>
</svg>