<svg width="500" height="327.8688524590164" xmlns="http://www.w3.org/2000/svg" xmlns:svg="http://www.w3.org/2000/svg" xmlns:xlink="http://www.w3.org/1999/xlink">
 <!-- Created with SVG-edit - http://svg-edit.googlecode.com/ -->
 <g display="inline" class="layer">
  <title>Layer 1</title>
  <path t="0,150,183,201,201,217,233,257,257,289,289,305,347,377,409,441,457,514,514,533,641,684,684,713,769,809,822,844,868,883,913,953,980,988,1026,1050,1067,1067,1105,1137,1178,1200,1222,1234,1234,1256,1267,1290,1305,1319,1339,1353,1385,1385,1400,1417,1440,1467,1483,1500,1585,1617,1617,1633,1650,1650,1667,1700,1721,1750,1750,1783,1809,1809,1841,1867,1867,1900,1933,1950,1969,1985,2009,2057,2083,2137,2169,2200,2233,2250,2273,2273,2300,2337,2385,2441,2441,2473,2537,2801,2969,3000,3041,3083,3083,3105,3133,3152,3217,3329,3367,3433,3634,3705,3812,3826,3913,3952,3993,4017,4033,4068,4093,4093,4117,4145,4183,4217,4217,4250,4250,4283,4283,4300,4321,4350,4376,4400,4400,4433,4450,4474,4500,4529,4609,4642,4683,4699,4720,4761,4783,4817,4857,4873,4889,4912,4944,4967,5000,5016,5033,5050,5066,5083,5100,5121,5133,5152,5176,5177,5217,5233,5266,5289,5304,5321,5333,5350,5366,5366,5383,5424,5500,5500,5533,5566,5632,5664,5700,5716,5733,5733,5760,5808,5832,5849,5850,5873,5884,5899,5916,5936,5952,6018,6050,6083,6100,6137,6161,6193,6225,6250,6250,6283,6305,6351,6383,6425,6452,6466,6489,6489,6505,6515,6537,6537,6569,6592,6593,6624,6633,6673,6700,6721,6744,6766,6864,7041,7058,7058,7083,7100,7129,7150,7166,7183,7200,7200,7241,7266,7317,7361,7383,7400,7400,7560,7601,7601,7633,7666,7683,7684,7705,7717,7733,7733,7750,7766,7783,7800,7816,7849,7850,7888,8012,8029,8029,8057,8089,8100,8121,8145,8145,8294,8327,8350,8479,8479,8494,8494,8515,8537,8549,8565,8617,8751,8766,8793,8793,8816,8841,8866,8883,8905,8982,9014" d="M270.5,120.43443C270.66666,122.26776 271.42694,122.65112 271.5,123.60109C271.56232,124.41146 271.98105,125.08577 272.44733,125.79609C272.90518,126.49358 273.08252,127.40598 273.33334,128.26776C273.57849,129.11009 273.4946,130.03444 273.5,130.93443C273.50534,131.82381 273.91455,132.51849 274.55267,133.08176C275.14807,133.6073 275.47293,134.43489 275.5,135.23442C275.52859,136.0787 276.41626,136.58873 276.5,137.43443C276.57883,138.23053 276.54486,139.28796 277.30133,139.43309C278.18393,139.60242 279.31561,139.43146 279.49866,140.23576C279.69806,141.11203 279.66718,141.8615 280.216,142.51843C280.73291,143.13715 281.24695,143.9716 281.46399,144.83443C281.68372,145.70793 281.33633,146.69173 281.72134,147.53442C282.02713,148.20372 282.49466,149.03438 282.5,149.93443C282.50534,150.83441 282.40915,151.73915 282.50134,152.63443C282.58502,153.44704 283.29196,154.08882 283.47916,154.93443C283.69098,155.89131 284.25943,156.37563 284.49551,157.13893C284.76038,157.99532 284.86591,158.9438 285.70001,159.35043C286.45358,159.71779 286.91086,160.28606 287.52533,160.99843C288.0509,161.60773 289.10001,161.43443 290,161.43443C290.89999,161.43443 291.79999,161.43452 292.70001,161.43443C293.60001,161.43434 294.39999,161.46976 295.10001,160.78777C295.70139,160.20186 296.00577,159.20137 296.69867,158.60376C297.34094,158.04982 297.34647,157.18596 297.66666,156.43443C297.99948,155.65321 298.44672,154.89624 298.784,153.95042C299.03571,153.24463 299.41016,152.31932 299.5,151.43443C299.58127,150.634 300.18689,150.01227 300.44284,149.13443C300.72202,148.1769 300.90167,147.72198 301.7955,147.42993C302.56036,147.18002 302.87567,146.29018 303.33334,145.43443C303.75662,144.64299 304.26697,144.1264 304.85266,143.48709C305.38699,142.90384 305.84976,142.12755 306.5,141.43443C306.97382,140.92937 307.47141,140.13579 307.5,139.23442C307.52853,138.33488 307.5,137.43443 307.5,136.63443C307.5,135.73442 307.05881,134.7088 307.53601,133.87042C307.9296,133.17894 309.24246,133.43904 309.46399,134.29576C309.70749,135.23746 309.15265,136.10324 309.52084,136.91359C309.87219,137.68686 310.49774,138.13892 310.5,139.03442C310.50226,139.93443 310.56537,140.87186 311.07468,141.45976C311.6366,142.10837 312.30133,142.43376 313.20001,142.43443C314.10001,142.4351 315,142.43669 315.89999,142.43443C316.7955,142.43217 317.53656,142.06517 318.07468,141.40909C318.5484,140.83153 318.5,139.78175 318.5,139.0871C318.5,138.07042 318.5,137.13443 318.5,136.23442C318.5,135.33426 318.5,134.54909 318.5,133.59842C318.5,132.8331 318.5,131.83893 318.5,131.0916C318.5,130.07042 318.5,129.13443 318.5,128.23442C318.5,127.33443 318.5,126.43443 318.5,125.63443C318.5,124.73443 318.5,123.83443 318.5,122.93443C318.5,122.03442 318.49991,121.13443 318.5,120.23443C318.50009,119.33459 318.80554,118.66473 319.44733,118.08176C320.02664,117.55552 320.90558,117.44335 321.5,116.93443C322.09146,116.42805 322.6095,115.76437 323.30133,115.35043C324.09668,114.87455 324.48199,114.03497 324.5,113.13443C324.51801,112.23461 324.25305,111.2002 324.784,110.51842C325.27194,109.89185 326.22559,109.5605 326.48932,108.82376C326.78909,107.9864 326.5,107.03442 326.5,106.13443C326.5,105.23443 326.5,104.33443 326.5,103.43443C326.5,102.63443 326.5,101.73443 326.5,100.83443C326.5,99.93443 326.68451,98.78792 325.97916,98.45526C325.18378,98.08014 324.19348,98.54138 323.29999,98.43309C322.38022,98.32162 321.56177,97.95382 320.85718,97.38176C320.23871,96.87962 319.49954,96.46151 318.70001,96.43443C317.85571,96.40582 317.21716,95.75352 316.58401,95.15043C316.00989,94.60355 315.29999,94.43443 314.39999,94.43443C313.5,94.43443 312.66153,94.22498 311.79999,94.49159C310.93384,94.75964 310.66907,95.78704 310.216,96.63443C309.8674,97.28643 309.51291,98.13451 309.5,99.03442C309.4874,99.91375 308.70737,100.42832 308.50449,101.13892C308.24634,102.04316 307.66666,102.60109 307.5,103.43443C307.33334,104.26776 306.83066,104.98283 306.14282,105.37726C305.32343,105.84711 304.29999,105.43443 303.39999,105.43443C302.5,105.43443 301.70001,105.43443 300.79999,105.43443C299.89999,105.43443 299,105.43443 298.10001,105.43443C297.20001,105.43443 296.29999,105.43443 295.39999,105.43443C294.5,105.43443 293.59576,105.08157 292.85718,105.49159C292.1593,105.87901 291.66754,106.89001 290.98267,107.14909C290.03085,107.50916 289.17868,107.43443 288.32535,107.43443C287.38535,107.43443 286.27509,107.17816 285.62134,107.65576C284.92227,108.16647 284.01962,108.10857 283.55716,108.7916C283.02994,109.57025 283.05896,110.52837 282.20001,110.42992C281.37653,110.33554 280.68448,109.75595 279.89999,109.4091C279.08197,109.04741 278.28311,108.6277 277.40018,108.43426C276.55688,108.2495 276.65353,107.18597 276.33334,106.43443C276.00052,105.65322 275.51044,104.93461 275.5,104.03442C275.48959,103.13449 275.58212,102.23066 275.49985,101.33443C275.41617,100.42299 274.9346,99.78645 274.20001,99.13892C273.53778,98.55519 272.56989,98.04206 271.78534,98.51976C270.98126,99.00936 270.4657,99.55917 269.79999,100.13892C269.16489,100.69202 268.40161,101.3255 267.5,101.43443C266.70129,101.53092 266.11664,102.01742 265.52533,102.82376C265.04996,103.47202 264.05545,103.33896 263.29999,103.71843C262.4328,104.15401 262.07178,104.80415 261.2785,105.31293C260.53195,105.79173 259.38193,105.48261 258.936,106.04509C258.32629,106.81419 258.50067,107.83443 258.5,108.73443C258.49933,109.63443 258.24948,110.38371 257.85266,111.13443C257.45154,111.89326 257.93243,112.82986 258.37885,113.53426C258.84076,114.26311 259.73282,114.32738 260.61465,114.71843C261.35422,115.04638 262.10001,115.4237 263,115.43443C263.88934,115.44503 264.48578,116.06574 265.11066,116.45976C265.85916,116.93175 266.76706,117.19817 267.60001,117.65593C268.27502,118.0269 268.94287,118.7999 269.37866,119.53426C269.84372,120.31794 270.44733,120.78709 271.02084,121.43443L271.79999,121.78709L272.59982,122.31326" id="svg_1" stroke-width="3" stroke="#000" fill="none"/>
  <path t="9381,9650,9651,9700,9876,9932,9965,10095,10196,10234,10250,10284,10322,10345,10367,10511,10511" d="M277.5,125.43443C278.5,125.43443 279.29999,125.43443 280.20001,125.43443C281.10001,125.43443 282.0697,125.09981 282.88934,125.44509C283.62439,125.75474 282.7955,126.43217 281.89999,126.43443C281,126.43668 280.10001,126.43443 279.20001,126.43443C278.29999,126.43443 277.39999,126.43426 276.5,126.26776L275.91434,125.78709" id="svg_2" stroke-width="3" stroke="#000" fill="none"/>
  <path t="10915,11067,11067,11100,11116,11133,11150,11169,11185,11346,11363,11393,11417,11433,11500,11546,11546" d="M303.5,123.43443C304.5,123.26776 305.28207,122.92991 305.97916,122.43443C306.62537,121.97511 307.2045,121.43668 308.10001,121.43443C309,121.43217 309.94644,121.15427 310.7955,121.43893C311.58017,121.70198 310.82187,122.11815 310.02084,122.45526C309.28021,122.76695 308.63867,123.39843 307.66666,123.43443L306.91068,123.43443" id="svg_3" stroke-width="3" stroke="#000" fill="none"/>
  <path t="11994,12146,12178,12530,12562,12663,12683,12701,12701,12701,12716,12733,12750,12766,12767,12879,12897,12916,12937,12938,12970,12970,12985,13050,13242,13283,13283,13299,13333,13354,13354,13400,13434,13450,13473,13489,13505,13521,13537,13549,13566,13583,13584,13599,13681,13700,13716,13733,13749,13766,13783,13784,13802,13834,13849,13866,13883,13930,13949,13950,13966,13967,13983,14002,14002,14034,14034,14058,14058,14115,14154,14183,14199,14216,14217,14250,14250,14283,14299,14346,14387,14387,14416,14442,14490,14490,14624,14639,14674,14699,14738" d="M284.5,139.43443C285.7215,138.55592 286.60001,138.43443 287.5,138.43443C288.02802,138.43443 286.88898,138.39806 287.0625,137.89276C287.41583,136.86389 288.29202,136.58037 288.84732,136.14426C289.69214,135.48079 290.31097,134.76236 291.04166,134.45526C291.91061,134.09004 292.70367,134.19209 293.73834,134.43892C294.50467,134.62173 294.66251,135.84337 294.16666,136.43443C293.62808,137.07645 292.52802,137.37216 291.70132,137.43309C290.90216,137.49199 289.04166,136.47609 289.04166,137.43443C289.04166,137.89278 290.43036,137.04144 291.21466,137.51976C292.0184,138.00993 292.64429,138.46518 293.14282,139.13893C293.65656,139.83321 293.6185,141.14719 292.88934,141.42377C292.05777,141.73921 291.10001,141.43443 290.20001,141.43443C289.29999,141.43443 288.3956,141.52312 287.5,141.43443C286.6543,141.35069 286.4454,140.32433 285.88934,139.87042C285.13651,139.25592 284.15506,138.74304 284.52084,137.95526C284.84924,137.24796 286.03473,137.48732 286.79999,137.08176C287.6459,136.63345 288.5,136.43443 289.29999,136.43443C290.20001,136.43443 291.17859,136.09138 291.97916,136.45526C292.75241,136.80672 293.70209,137.63783 293.2785,138.3131C292.77734,139.11205 291.77203,139.19249 290.84732,139.37726C290.16418,139.51375 289.12534,139.43443 288.17868,139.43443C287.32535,139.43443 286.3674,139.52872 285.616,139.34909C284.64871,139.11787 283.80844,138.75948 283.52133,137.83443C283.25455,136.97488 283.73019,135.92348 284.60001,135.55592C285.43655,135.20244 286.25717,135.43443 287.15268,135.43443C288.01599,135.43443 288.99243,135.28894 289.89999,135.4451C290.73318,135.58847 291.75223,135.91866 292.21466,136.51843C292.70135,137.14966 291.39999,137.43443 290.5,137.43443C289.74283,137.43443 288.69601,137.43443 288.0625,137.43443L288.89999,137.43443L289.79999,137.43443L290.70001,137.43443" id="svg_4" stroke-width="3" stroke="#000" fill="none"/>
  <path t="17843,18000,18034,18058,18058,18090,18122,18276,18307,18322,18338,18338,18384,18418,18433,18466,18514,18629,18714,18767,18801,18842,18900,18967,19033,19049,19073,19099,19099" d="M287.5,147.43443C287.21466,146.51976 286.39999,146.43443 285.5,146.43443C284.70001,146.43443 283.67502,145.96533 282.85718,146.43443C282.24353,146.78642 282.38858,148.004 282.85718,148.73442C283.37036,149.53435 283.97589,150.08693 284.47467,150.82376C284.92624,151.49083 285.4881,152.24867 286.2045,152.42993C287.07266,152.64958 288.09286,152.83029 288.97916,152.41359C289.68491,152.08179 289.5,150.93443 289.5,150.03442C289.5,149.13443 289.5,148.23442 289.5,147.33443C289.5,146.43443 289.33334,145.60109 288.5,145.43443L287.70001,145.34909" id="svg_5" stroke-width="3" stroke="#000" fill="none"/>
  <path t="19851,20015,20049,20066,20083,20169,20193,20193,20217,20234,20257,20290,20322,20354,20447,20481,20533,20549,20632,20682,20682,20698,20715,20716,20733,20733,20748,20777,20809" d="M294.5,145.43443C292.79999,145.43443 291.72162,145.44084 291.50134,146.23576C291.25635,147.11989 290.58374,147.58873 290.5,148.43443C290.42117,149.23053 290.02957,150.29379 290.55716,151.07726C291.01791,151.76144 292.20001,151.43443 293.10001,151.43443C294,151.43443 294.89999,151.4351 295.79999,151.43443C296.69867,151.43376 297.45728,151.15207 297.5,150.23442C297.54184,149.33524 297.56674,148.54596 297.48932,147.6091C297.40533,146.59256 296.96298,145.97012 296.30133,145.23442C295.77216,144.64603 295.44733,143.7916 294.69867,143.43576L293.79999,143.43443" id="svg_6" stroke-width="3" stroke="#000" fill="none"/>
  <path t="28496,28596,28617,28618,28632" d="M267.5,147.43443C268.52084,147.43443 269.47849,147.43443 270.29868,147.43443L271.20001,147.43443" id="svg_8" stroke-width="3" stroke="#000" fill="none"/>
  <path t="29226,29290,29322,29338,29349,29366,29382,29401,29401,29425,29425,29449,29466,29482,29500,29516,29532,29549,29549,29566,29582,29599,29600,29618,29618,29632,29650,29666,29666,29682,29699,29716,29732,29749,29766,29782,29782,29798,29816,29832,29848,29873,29873,29899,29916,29932,29948,29965,29982,29982,30001,30017,30033,30049,30073,30098,30114,30132,30148,30177,30198,30225,30225,30257,30281,30305,30305,30331,30353,30353,30369,30369,30382,30399,30417,30417,30433,30433,30449,30465,30515,30515,30532,30549,30565,30581,30609,30631,30632,30657,30657,30682,30699,30714,30748,30749,30749,30765,30781,30798,30815,30833,30849,30849,30865,30865,30881,30882,30898,30899,30915,30937,30961,30982,30999,31014,31032,31032,31048,31049,31065,31082,31082,31098,31114,31115,31131,31132,31132,31148,31149,31164,31165,31165,31181,31182,31182,31198,31199,31214,31215,31233,31249,31249,31264,31281,31282,31299,31315,31332,31349,31364,31365,31381,31382,31399,31399,31414,31415,31432,31432,31449,31449,31465,31465,31465,31481,31482,31482,31498,31499,31515,31531,31548,31549,31564,31582,31599,31599,31614,31632,31649,31665,31665,31682,31682,31699,31714,31731,31732,31749,31765,31781,31782,31782,31799,31815,31815,31832,31848,31849,31865,31865,31889,31905,31905,31945,31965,31965,31982,31982,31999,31999,32015,32033,32050,32065,32082,32083,32099,32115,32145,32165,32182,32199,32216,32233,32249,32265,32266,32282,32299,32315,32316,32332,32349,32365,32383,32400,32415,32449,32450,32465,32489,32505,32505,32521,32537" d="M280.5,146.43443C278.79999,146.43443 277.89999,146.43443 277,146.43443C276.10001,146.43443 275.20001,146.43443 274.29868,146.43443C273.33334,146.43443 272.5,146.43443 271.52151,146.43443C270.70132,146.43443 269.89993,146.42487 269,146.43443C268.02069,146.44485 267.64862,147.16559 267.064,147.82376C266.44775,148.51753 265.46652,148.55911 264.89999,149.04509C264.15674,149.68265 263.86545,150.76151 263.16666,151.26776C262.59378,151.68279 261.54684,151.7016 260.8045,152.08176C259.96143,152.51352 259.54764,153.10739 259.21466,153.9171C258.86862,154.75853 258.11145,155.37395 257.5,155.93443C256.92606,156.46056 256.44638,157.1384 256,157.93443C255.55171,158.73389 255.18896,159.47897 254.784,160.23442C254.37877,160.99037 253.88196,161.74478 253.58533,162.63443C253.29938,163.49207 253.2794,164.40111 252.92534,165.03442C252.44382,165.89569 252.5,166.83443 252.5,167.73442C252.5,168.63443 252.5,169.53442 252.5,170.43443C252.5,171.23442 252.5,172.13443 252.5,173.03442C252.5,173.93443 252.5,174.83443 252.5,175.73442C252.5,176.63443 252.75627,177.65935 252.27867,178.3131C251.76796,179.01218 251.5,179.63443 251.5,180.53442C251.5,181.43443 251.5,182.23442 251.5,183.13443C251.5,184.07042 251.49785,184.91843 251.5,185.78175C251.50226,186.68178 251.61734,187.62383 252.02083,188.43443C252.44917,189.295 253.173,189.83113 253.44284,190.73442C253.70102,191.59868 253.83333,192.43443 254.5,192.93443C255.16667,193.43443 255.59242,194.2287 256,194.93443C256.45837,195.72813 256.76785,196.64992 257.30133,197.23442C257.95819,197.95413 258.35754,198.7952 258.85266,199.38176C259.41052,200.04263 259.93024,200.68848 260.37885,201.53442C260.73392,202.20399 261.33621,202.88031 262.01733,203.14909C263.02341,203.54611 263.38184,204.14049 263.94666,204.83443C264.5383,205.56133 265.34241,205.80632 266.01599,206.23442C266.88757,206.78835 267.71149,207.26768 268.59982,207.43459C269.39554,207.58408 269.87967,208.32401 270.66666,208.60109C271.50269,208.89545 272.1438,209.61485 272.668,210.23442C273.26102,210.93533 274.09409,211.18916 275.091,211.38176C275.78085,211.51503 276.42712,212.20941 277.2045,212.42993C278.06604,212.67432 279,212.43443 279.89999,212.43443C280.8045,212.43443 281.66666,212.43437 282.5,212.43443C283.47849,212.43451 284.26489,212.58282 285.13599,213.00909C285.95663,213.41068 286.67462,213.42909 287.74734,213.43443C288.66666,213.43901 289.336,213.43443 290.5,213.43443C291.29999,213.43443 292.10037,213.45721 293.10449,213.42993C293.73654,213.41275 294.92276,213.21878 295.45267,213.08176C296.27701,212.86859 297.32806,212.55536 298.26401,212.47043C299.09598,212.39493 300.10754,212.52101 300.84283,212.37726C301.7767,212.19469 302.36234,211.61267 303.32535,211.47043C304.32315,211.32304 305.25183,211.46718 305.89999,210.99843C306.6817,210.43309 307.15292,209.62692 308.10001,209.4451C308.98392,209.27541 309.94452,209.52989 310.70001,209.15042C311.5672,208.71484 312.27222,208.38899 312.79999,207.72459C313.27048,207.13231 313.79044,206.17395 314.38535,205.55043C314.97046,204.93719 315.5,204.43443 316.33334,203.60109C316.86401,203.07042 317.58017,202.3119 318.172,201.79843C318.81247,201.24275 319.50821,200.78581 320.24933,200.25977C321.17023,199.60611 321.74658,199.24046 322.29733,198.55043C322.86792,197.83554 323.24326,196.92238 324,196.45526C324.7529,195.99051 325.42712,195.34511 326.10001,194.87042C326.83481,194.35207 327.90475,194.28876 328.33334,193.43443C328.69965,192.70425 328.54584,191.72806 329,190.93443C329.40466,190.22728 329.43835,189.26393 329.52084,188.43443C329.60455,187.59258 330.24469,186.90659 330.46399,186.03442C330.68369,185.16072 330.88608,184.29607 331.216,183.63443C331.63657,182.79106 331.50748,181.89273 331.49985,180.89192C331.49454,180.19437 331.41531,179.28741 330.92532,178.39442C330.55765,177.72433 330.61819,176.90747 330.47916,175.93443C330.33505,174.92609 329.81131,174.29344 329.58533,173.31842C329.41089,172.56581 329.52399,171.60881 329.5,170.60109C329.48199,169.84445 329.07318,169.0256 328.39999,168.33443C327.90665,167.82788 327.15897,167.16287 326.70001,166.54909C326.15302,165.81757 325.93924,164.85402 325.52533,164.0811C325.13202,163.34663 324.58047,162.75896 324.064,162.03442C323.50403,161.24889 323.05463,160.61639 322.47467,159.87042C321.98917,159.24594 321.92859,158.47974 321.41467,157.71976C320.96338,157.05238 320.02087,156.77271 319.52533,156.04509C319.0719,155.3793 318.51138,154.74779 317.79468,154.13443C317.25351,153.6713 316.63651,152.99588 316.14734,152.13443C315.72803,151.39603 315.96619,150.45459 315.41467,149.71976C314.9523,149.1037 313.823,149.32837 313.41599,148.63309C312.93268,147.80748 312.40237,147.07912 311.5,146.60109C310.85178,146.25769 310.03128,145.87318 309.20001,145.48709C308.32922,145.08264 307.78534,144.63309 307.41599,143.71976L306.69867,143.35043" id="svg_9" stroke-width="3" stroke="#000" fill="none"/>
  <path t="44092,44185,44209,44210,44234,44248,44249,44265,44282,44298,44329,44329,44361,44385,44385,44398,44415,44433,44449,44465,44482,44482,44498,44515,44515,44532,44553,44569,44601,44641,44665,44665,44682,44698,44715,44732,44748,44766,44787,44809,44832,44873,44915,44931,44931,44970,45016,45050,45090,45099,45132,45148,45165,45165,45182,45201,45242,45265,45282,45305,45315,45332,45348,45348,45377,45401,45449,45481,45497,45498,45514,45531,45547,45548,45569,45569,45581,45609,45631,45632,45649,45664,45681,45697,45697,45714,45714,45731,45747,45765,45781,45809,45831,45832,45847,45889,45898,45914,45931,45947,45964,45981,45981,45997,46017,46040,46065,46089,46089,46132,46154,46177,46202,46215,46234,46257,46282,46282,46298,46315,46346,46369,46386,46409,46432,46449,46465,46482,46498,46498,46545,46546,46565,46582,46598,46615,46634,46657,46658,46681,46715,46737,46761,46782,46803,46815,46841,46865,46882,46931,46949,46978,47010,47032,47032,47066,47098,47115,47132,47149,47178,47203,47203,47215,47232,47249,47265,47282,47282,47298,47315,47338,47338,47365,47381,47398,47415,47432,47457,47481,47498,47498,47515,47531,47548,47569,47585,47598,47615,47631,47649,47665,47681,47698,47715,47738,47738" d="M283.5,150.43443C282.63867,150.43443 281.66666,150.43443 280.91068,150.43443C279.97916,150.43443 278.99118,150.28383 278.36133,150.47043C277.431,150.74603 277.26981,151.94536 276.39999,152.31293C275.56345,152.66643 274.64981,152.44789 274,152.95526C273.23196,153.55493 272.51898,153.8653 271.85718,154.48709C271.25305,155.0547 271.44626,156.13634 271,156.93443C270.55161,157.73636 270.04764,158.52124 269.5,158.93443C268.72891,159.5162 268.5,160.43443 268.5,161.23442C268.5,162.13443 268.50195,163.05403 268.07468,163.83443C267.6243,164.657 267.54779,165.53569 267.5,166.43443C267.45728,167.23782 266.93735,167.8466 266.11066,168.40909C265.5014,168.82364 265.74289,169.86926 265.49551,170.72992C265.27481,171.49782 264.51044,171.95508 264.5,172.83443C264.48932,173.73436 264.5,174.63443 264.5,175.53442C264.5,176.43443 264.5,177.23442 264.5,178.13443C264.5,179.03442 264.5,179.93443 264.5,180.83443C264.5,181.73442 264.5,182.63443 264.5,183.53442C264.5,184.43443 264.5,185.23442 264.5,186.13443C264.5,187.03442 264.5,187.93443 264.5,188.83443C264.5,189.73442 264.34955,190.64713 264.50015,191.53426C264.64487,192.38663 265.7565,192.5256 266.21466,193.23576C266.67252,193.94545 266.61862,194.91005 267.14734,195.48709C267.78076,196.17841 268.54544,196.24063 269.29999,196.51976C270.16959,196.84145 270.35559,197.93906 270.94284,198.53442C271.57144,199.17172 272.43692,199.59476 273.08932,199.99843C273.85806,200.47408 274.85663,200.29787 275.70001,200.71843C276.36163,201.04836 277.22687,201.24846 278.10001,201.47043C278.96228,201.68964 279.71133,202.31393 280.38535,202.51843C281.34232,202.80878 281.99112,203.26964 282.97916,203.41359C283.89059,203.54639 284.79999,203.43443 285.70001,203.43443C286.60001,203.43443 287.5,203.43443 288.29999,203.43443C289.20001,203.43443 290.10001,203.43443 291,203.43443C291.89999,203.43443 292.79999,203.43452 293.70001,203.43443C294.60001,203.43434 295.45377,203.19231 296.20001,202.78709C296.96112,202.37381 297.89999,202.4351 298.79999,202.43443C299.70001,202.43376 300.55692,202.14473 301.20001,201.78709C302.05313,201.31268 302.94897,201.03848 303.37866,200.33459C303.85349,199.55679 304.37625,198.896 305.02084,198.43443C305.71442,197.93781 306.28806,197.30119 306.58401,196.63443C306.96478,195.77666 307.29123,194.79268 308.02084,194.45526C308.91037,194.04388 309.89078,194.14621 310.33334,193.43443C310.84052,192.61873 311.25043,191.98645 311.936,191.45976C312.58963,190.95761 313.64774,190.85258 314.21466,190.35043C314.97931,189.67317 315.0654,188.78645 315.79999,188.13893C316.46222,187.55519 317.17249,187.15263 317.72134,186.55576C318.30988,185.91573 318.76089,185.21251 319.30133,184.63443C319.87503,184.02077 320.9888,183.81364 321.44284,183.07726C321.88556,182.35925 322.12769,181.68681 322.47916,180.91359C322.84305,180.11299 322.49991,179.13443 322.5,178.23442C322.50009,177.33459 323.04596,176.76369 323.44284,176.07726C323.86569,175.34593 323.5,174.33443 323.5,173.43443C323.5,172.63443 323.51682,171.73427 323.5,170.83443C323.48199,169.86992 322.86411,169.37495 322.41599,168.63309C321.98996,167.9278 321.37589,167.13138 320.70001,166.71976C319.85754,166.20667 319.7048,165.59605 319.44284,164.73442C319.17386,163.84975 318.29807,163.23634 317.79999,162.73442C317.10797,162.03708 316.70001,161.18832 316.33334,160.43443C315.96194,159.67081 315.41052,159.04263 314.85266,158.38176C314.35754,157.7952 313.95981,156.9859 313.2045,156.48709C312.50632,156.026 312.03806,155.19804 311.66666,154.43443C311.29996,153.68053 310.95581,152.69545 310.10001,152.47043C309.23306,152.24248 308.75055,151.96072 308.49551,151.13893C308.2587,150.37585 307.55859,149.67572 306.7955,149.43892C305.97372,149.1839 305.45105,148.60416 304.69867,148.43576C303.81982,148.23906 303,147.91359 302.29999,147.23576L301.70001,146.71976" id="svg_12" stroke-width="3" stroke="#000" fill="none"/>
  <path t="49199,49315,49353,49393,49416,49431,49513,49537,49548,49565,49581,49625,49649,49665,49715,49879,49879,49915,49969,49970,50010,50066,50098,50164,50278,50294,50313,50313" d="M290.5,169.43443C288.79999,169.43443 287.77438,168.99324 286.936,169.47043C286.24451,169.86403 286.29977,170.83522 285.784,171.51843C285.31946,172.13379 285.48318,173.13458 285.5,174.03442C285.51801,174.99893 286.23123,175.24947 287.10001,175.47043C287.96225,175.68973 288.59387,176.37355 289.5,176.43443C290.29819,176.48807 291.35568,176.38164 291.5,175.43443C291.62048,174.64355 291.5,173.73442 291.5,172.83443C291.5,171.93443 291.5,171.03442 291.5,170.13443L291.49866,169.23442L291.33334,168.43443L290.7955,167.7916" id="svg_13" stroke-width="3" stroke="#000" fill="none"/>
  <path t="51025,51115,51131,51148,51165,51181,51181,51217,51231,51249,51289,51298,51315,51331,51348,51393,51417,51433,51433,51448,51465,51481,51481,51498,51515,51515,51531,51548,51565,51582,51598" d="M285.5,171.43443C284.61334,170.43576 283.54648,170.74869 282.74283,170.21309C282.07315,169.76677 281.44916,169.13358 280.79999,168.78709C279.95062,168.33376 279,168.43443 278.10001,168.43443C277.20001,168.43443 276.20212,168.59375 275.55267,168.08176C274.93805,167.59721 274.20001,167.43443 273.29999,167.43443C272.39999,167.43443 271.49915,167.39725 270.70001,167.43443C269.78235,167.47714 269.37781,168.29507 268.63867,168.83443C268.01801,169.28732 267.1272,169.82524 266.5,170.43443C265.89133,171.02563 265.20001,171.72992 264.5,172.26776L263.66666,172.60109L263.5,173.43443L263.33334,174.26776" id="svg_14" stroke-width="3" stroke="#000" fill="none"/>
  <path t="52211,52382,52398,52431,52450,52490,52499,52522,52522,52538,52562,52586,52610,52634,52648,52665,52665,52681" d="M283.5,177.43443C281.79999,177.43443 280.89999,177.43443 280,177.43443C279.10001,177.43443 278.19348,177.32747 277.29999,177.43576C276.38022,177.54724 275.73315,178.28029 274.89999,178.42377C274.013,178.57652 273.10001,178.43443 272.20001,178.43443C271.29999,178.43443 270.39999,178.43443 269.5,178.43443L268.70001,178.43443L267.78534,178.51976" id="svg_15" stroke-width="3" stroke="#000" fill="none"/>
  <path t="53257,53366,53366,53381,53398,53417,53431,53448,53465,53481,53481,53498,53498,53515,53538,53538,53554,53565,53565,53581,53598,53598,53615,53631,53631,53648,53649,53665,53682,53682,53698,53715,53731,53748,53748,53766,53766,53798" d="M287.5,176.43443C286.5,177.43443 286.5,178.23442 286.5,179.13443C286.5,180.03442 286.5,180.93443 286.5,181.83443C286.5,182.73442 286.5,183.63576 286.5,184.60109C286.5,185.25977 286.32602,186.29736 286.55716,187.12993C286.77234,187.90498 287.42892,188.75072 287.48932,189.6091C287.5553,190.54683 287.5,191.43443 287.5,192.23442C287.5,193.07042 287.42065,194.0986 287.55716,194.78175C287.74191,195.70648 288.34705,196.54355 288.58401,197.31976C288.82138,198.09734 288.936,199.09344 289.52084,199.89276C290.01758,200.57166 291.0195,200.44238 291.54816,201.13893C292.10126,201.86768 292.293,202.94591 293.06934,203.35043C293.77377,203.7175 294.74734,203.78709 295.384,204.15042L296.32535,204.39842" id="svg_16" stroke-width="3" stroke="#000" fill="none"/>
  <path t="54405,54482,54498,54531,54548,54548,54570,54570,54601,54625,54665,54665,54681,54715,54731,54731,54748,54765,54765,54782,54798,54798,54815" d="M293.5,178.43443C295.29999,178.43443 295.93784,178.67982 296.66666,179.26776C297.36523,179.8313 298.10266,180.0424 298.79999,180.73442C299.30191,181.2325 300.04941,181.89728 300.44733,182.73442C300.85986,183.60228 300.94489,184.39838 301.58401,185.14909C302.15128,185.81541 302.72595,186.39722 303.14734,187.13443C303.58548,187.90094 304.10056,188.59079 304.64932,189.03442C305.44196,189.6752 305.72134,190.53442 306.216,191.23442L306.55267,192.07726" id="svg_17" stroke-width="3" stroke="#000" fill="none"/>
  <path t="55446,55592,55592,55613,55630,55647,55648,55663,55664,55664,55680,55680,55697,55697,55697,55713,55713,55745,55745,55801,55813,55830,55847,55889,55913,55930,55930" d="M291.5,168.43443C291.936,166.6091 292.30966,165.92413 292.88934,165.07042C293.38583,164.33925 293.62604,163.40164 294.14667,162.79843C294.77499,162.0704 295.32535,161.6091 296.01599,160.91843C296.616,160.31842 297.25266,159.68176 297.98401,158.95042C298.5,158.43443 298.99292,157.89444 299.74734,157.19159C300.36572,156.61549 301.12088,156.06589 302.01599,155.71976C302.84042,155.40096 303.8548,155.51321 304.47467,155.00909C305.08975,154.50888 305.89999,154.00909 306.60001,153.55592L307.5,153.43443L308.29999,153.43443" id="svg_18" stroke-width="3" stroke="#000" fill="none"/>
  <path t="56430,56615,56649,56715,56753,56924,56957,56981,56982,56998,56998,56998,57014,57014,57031,57031,57031,57049,57050,57064,57065,57081,57081,57081,57098,57098,57114,57114,57131,57213,57250,57314,57330,57348,57353" d="M295.5,174.43443C293.79999,174.43443 293.026,174.63762 292.33334,175.26776C291.73358,175.81339 291.10681,176.81633 291.78665,177.34909C292.48257,177.89444 293.53558,177.49118 294.5,177.26776C295.11328,177.12569 295.91052,176.75055 296.89868,176.23309C297.48566,175.92572 298.35083,175.28174 298.87466,174.6091C299.40195,173.93204 299.97556,173.30721 300.67465,172.84509C301.4693,172.31982 302.12448,171.79758 302.8215,171.1131C303.33539,170.60846 304.07059,169.87506 304.89868,169.32109C305.45993,168.94563 306.47568,168.53491 307.29868,168.43576C308.21216,168.3257 308.48135,167.63289 308.5,166.73442C308.51868,165.83391 308.936,165.04509 309.69867,164.51843L310.44733,164.07726" id="svg_19" stroke-width="3" stroke="#000" fill="none"/>
  <path t="59343,59415,59432,59432,59452,59452,59465,59465,59482,59482,59482,59498,59499,59499,59515,59515,59532,59532,59549,59549,59565,59565,59582,59582,59599,59614,59615,59631,59648,59648,59664,59664,59681,59681,59714,59714,59731,59731,59731,59748,59748,59764,59764,59781,59781,59797,59798,59814,59814,59814,59831,59831,59848,59848,59864,59864,59864,59864,59881,59881,59881,59881,59897,59914,59914,59931,59931,59931,59948,59948,59964,59964,59981,59998,60014,60014,60031,60048,60064,60081,60081,60097,60098,60114,60131,60131,60148,60163,60164,60181,60181,60198,60198,60214,60214,60231,60248,60264,60281,60297,60298,60321,60321,60348,60369,60398,60511,60528,60542,60555,60568,60569,60581,60598,60631,60648,60648,60664,60664,60681,60697,60698,60698,60713,60731,60731,60753,60753,60765,60798,60814,60832,60848,60864,60881,60913,60930,60931,60948,60948,60964,60964,60980,61001,61001,61031,61031,61048,61048,61064,61081,61098,61114,61131,61131,61148,61163,61180,61201,61214,61231,61248,61248,61264,61281,61298,61298,61314,61314,61331,61377,61377,61393,61411,61449,61449,61465,61465,61489,61514,61676,61708,61725,61745,61745,61757,61757,61766,61766,61782,61798,61817,61817,61848,61864,61864,61881,61881,61897,61928,61928,61952,61968,61993,62014,62031,62048,62064,62080,62097,62098,62114,62136,62160,62181,62197,62224,62224,62247,62248,62264,62281,62313,62314,62344,62363,62381,62381,62397,62416,62440,62463,62464,62481,62504,62528,62529,62552,62568,62600,62625,62647,62648,62664,62681,62698,62714,62730,62748,62763,62781,62798,62813,62831,62848,62864,62864,62880,62897,62898,62913,62930,62931,62948,63062,63078,63098,63114,63136,63164,63181,63181,63198,63198,63214,63214,63214,63230,63231,63248,63248,63264,63280,63281,63297,63314,63314,63331,63331,63346,63347,63347,63363,63364,63364,63381,63381,63397,63397,63413,63414,63414,63431,63431,63447,63447,63447,63464,63464,63464,63481,63481,63496,63497,63497,63497,63513,63514,63514,63530,63531,63531,63545,63546,63546,63563,63563,63563,63580,63580,63580,63597,63597,63614,63614,63631,63631,63663,63663,63663,63680,63681,63681,63697,63698,63698,63713,63714,63730,63746,63746,63763,63763,63781,63796,63797,63830" d="M276.5,137.43443C275.41599,138.32109 275.2963,139.21587 274.61334,139.8651C273.96591,140.48055 272.95023,140.44331 272.11465,140.87042C271.50128,141.18394 270.72812,141.63283 269.95834,141.95526C269.09595,142.31648 268.18857,142.73575 267.32132,143.25977C266.76416,143.59642 265.81113,144.2412 265.172,144.79843C264.47458,145.40646 264.02899,146.04659 263.01599,146.35043C262.34622,146.55132 261.38425,146.72015 260.74734,147.13893C259.84769,147.73047 259.1554,148.08539 258.25717,148.38176C257.40271,148.6637 256.91705,149.30698 256.43866,150.03442C255.91447,150.83151 255.10638,151.14082 254.10133,151.35043C253.34451,151.50827 252.41772,151.78523 251.74733,152.08176C250.8732,152.4684 250.03835,152.43217 249.07866,152.43443C248.27467,152.43633 247.45259,152.42239 246.42166,152.43459C245.54149,152.44499 244.54192,152.69637 243.87466,153.00909C243.03729,153.40155 242.28938,153.42909 241.3,153.43443C240.50002,153.43875 239.5,153.43443 238.7,153.43443C237.89999,153.43443 236.89999,153.43443 236.10001,153.43443C235.09734,153.43443 234.228,153.43443 233.16667,153.43443C232.53067,153.43443 231.47917,153.43443 230.74817,153.43443C229.66667,153.43443 228.98801,153.43443 228.0625,153.43443C227.272,153.43443 226.16133,153.43443 225.1785,153.43443C224.47917,153.43443 223.5,153.43443 222.7,153.43443C221.89999,153.43443 220.89337,153.49274 220.10001,153.37726C219.08658,153.22974 218.37173,152.73509 217.38533,152.51976C216.41907,152.30882 215.5,152.43443 214.7,152.43443C213.8,152.43443 212.89999,152.43443 212.08934,152.43443C211.17867,152.43443 210.32533,152.43443 209.384,152.43443C208.616,152.43443 207.67467,152.43443 206.66667,152.43443C205.8045,152.43443 204.97917,152.43443 204.01466,152.43443C203.28934,152.43443 202.30017,152.43443 201.52083,152.43443C200.52133,152.43443 199.6144,152.38911 198.67467,152.4451C197.9812,152.48642 197.09657,153.12033 196.2,153.37726C195.33308,153.62569 194.39999,153.43443 193.5,153.43443C192.74283,153.43443 191.84734,153.43443 190.98399,153.43443C190.02083,153.43443 189.11067,153.4451 188.5,153.93443C187.88933,154.42377 187,154.43668 186.10001,154.43443C185.19998,154.43217 184.35201,154.06703 183.7,153.71843C182.8526,153.26537 182.03961,152.85909 181.3,152.51843C180.43663,152.12077 179.77306,151.67122 178.84734,151.49159C177.99803,151.3268 177.06224,151.53304 176.17867,150.99176C175.62573,150.65303 175.07268,149.79942 174.12534,149.50642C173.21831,149.22589 172.28716,149.52011 171.5215,149.21309C170.74741,148.90269 169.89999,148.44516 169,148.43443C168.11067,148.42383 167.62608,147.70885 166.88933,147.4451C166.05197,147.14534 165.10001,147.43451 164.1955,147.43443C163.17867,147.43434 162.45886,147.55809 161.52133,147.21309C160.6922,146.90799 159.84862,146.47041 159.15266,146.43892C158.12627,146.39249 157.18149,146.2061 156.5,145.93443C155.52527,145.54588 154.74594,145.4805 153.85184,145.42993C153.06642,145.38551 152.45233,144.60419 151.69867,144.43576C150.81978,144.23933 150.0197,143.89264 149.3,143.23576C148.71548,142.70227 147.77986,142.59373 147,142.41359C146.0386,142.1915 145.39174,141.60635 144.5,141.43443C143.61011,141.26286 143.03055,140.65126 142.35066,140.40909C141.51248,140.11053 141.22498,138.97827 140.33333,138.60109C139.71291,138.33864 138.52589,138.44023 137.94667,137.82376C137.33398,137.17169 137.24092,136.2108 136.69867,135.63443C136.03101,134.92476 135.09377,134.63306 134.5,134.10109C133.87584,133.5419 133.71605,132.42607 133.44733,131.73892C133.11208,130.88165 132.88533,129.54488 132.07466,129.48109C131.27951,129.41853 131.42056,130.98413 131.85716,131.73892C132.22328,132.37187 132.80934,133.08667 133.2,133.83893C133.71233,134.82545 134.00165,135.65985 134.69867,136.26509C135.33994,136.82191 135.69086,137.56044 136.2045,138.13443C136.86252,138.86977 137.5,139.43443 138.10001,140.03442C138.8,140.73442 139.3,141.23442 140,141.93443C140.7,142.63443 141.1357,143.20648 141.89999,143.82376C142.64456,144.42509 143.72491,144.17816 144.37866,144.65576C145.07773,145.16647 145.71269,145.28398 146.59984,145.43459C147.45219,145.57928 147.60042,146.67691 148.30133,147.14909C149.01207,147.6279 149.89442,147.86893 150.69867,148.35043C151.44228,148.79564 151.96225,149.35934 152.82133,149.65576C153.51486,149.89507 154.51678,150.19673 155.29866,150.51843C156.05275,150.8287 156.8526,151.26537 157.7,151.71843C158.35201,152.06703 159.26126,152.39539 160,152.95526C160.66452,153.45889 161.31535,154.11215 162.10001,154.45976C162.91777,154.82204 163.75615,155.21442 164.5,155.60109C165.28325,156.00826 165.68144,156.94394 166.60001,157.31293C167.44272,157.65146 168.3,157.43443 169.2,157.43443C170.10001,157.43443 171.03474,157.38153 171.8,157.78709C172.64589,158.2354 173.3,158.43376 174.2,158.43443C175.10001,158.4351 176.00002,158.42958 176.89999,158.43443C177.88937,158.43977 178.37392,159.16002 179.11067,159.42377C179.94803,159.72353 180.94453,159.33897 181.7,159.71843C182.5672,160.15401 183.13092,160.81937 183.83333,161.26776C184.4257,161.64592 185.61592,161.38742 186.5,161.43443C187.30341,161.47716 187.9803,161.97621 188.7,162.63309C189.28452,163.16658 190.31569,163.42728 190.49867,164.23576C190.69705,165.11226 190.5,166.03442 190.5,166.93443C190.5,167.83443 190.58746,168.76141 190.33333,169.60109C190.07103,170.46774 189.5,171.26776 189,171.93443C188.5,172.60109 188.04332,173.24518 187.78534,174.03577C187.46724,175.01059 187.51433,175.85236 187.216,176.8331C186.97775,177.61632 186.58983,178.54953 186.5,179.43443C186.41875,180.23485 185.93158,180.9229 185.40016,181.75575C184.98195,182.41119 184.62383,183.41379 184.47467,184.09576C184.28172,184.97798 184.07982,185.70131 183.7955,186.48627C183.42085,187.52066 182.97853,188.39912 182.78534,189.0331C182.48569,190.01646 182.52534,190.85585 182.21466,191.83443C181.95332,192.65756 181.5,193.43443 181.10001,194.23442C180.8,194.83443 180.2594,195.81657 179.936,196.63443C179.6256,197.4194 179.55731,198.24968 179.416,199.11977C179.25273,200.12508 178.97485,200.92819 178.784,201.75043C178.55341,202.74382 178.55183,203.44302 178.33333,204.60109C178.18275,205.39909 177.96625,205.94766 177.784,206.83575C177.53973,208.02597 177.52194,208.63405 177.5045,209.53442C177.48126,210.73404 177.5,211.32993 177.5,212.19843C177.5,213.26776 177.5,214.20909 177.5,214.8871C177.5,215.85593 177.5,216.67043 177.5,217.53893C177.5,218.7341 177.5,219.32542 177.5,220.16243C177.5,221.2916 177.5,222.04909 177.5,223.0916C177.5,223.83893 177.5,224.83443 177.5,225.63443C177.5,226.6346 177.49956,227.45526 177.5,228.11977C177.50067,229.11977 177.48064,229.95914 177.58533,230.83575C177.7291,232.03958 177.93262,232.61113 178.14734,233.42009C178.42407,234.46265 178.49933,235.31709 178.5,236.25977C178.50072,237.26776 178.48615,238.07574 178.784,238.91843C179.03372,239.62494 179.41467,240.54909 179.5,241.43443L179.5,242.23442L179.5,243.13443" id="svg_20" stroke-width="3" stroke="#000" fill="none"/>
  <path t="64310,64443,64456,64456,64464,64464,64481,64497,64497,64497,64513,64513,64514,64531,64531,64531,64547,64547,64580,64580,64596,64617,64633,64633,64646,64681,64697,64713,64738,64747,64747,64763,64781,64781,64796,64797,64813,64813,64830,64846,64865,64865,64946,64946,64994,64994,65018,65018,65032,65895,65918,65954,65986,65998,66014,66050,66090,66114,66147,66148,66165,66197,66234,66247,66264,66315,66331,66362,66382,66397,66415,66434,66449,66464,66481,66514,66554,66614,66630,66630,66698,66714,66738,66754,66770,66833,66833,66851,66932,66965,66981,67002,67034,67082,67082,67230,67266,67315,67347,67394,67394,67448,67547,67581,67618,67642,67665,67682,67698,67714,67731,67732,67754,67778,67798,67826,67858,67881,67932,67978,67978,67997,68014,68031,68160,68293,68309" d="M190.5,238.43443C192.2,238.3201 192.86441,237.75046 193.14284,237.02542C193.51042,236.06819 193.40456,235.02049 194.04167,234.43443C194.70171,233.82729 195.54071,233.4034 196.01601,232.74643C196.52425,232.04391 196.85271,231.19864 197.25267,230.3871C197.6454,229.59024 198.18102,228.91525 198.63867,228.24509C199.30681,227.26669 199.3623,226.42093 199.66667,225.60109C199.96567,224.79573 200.38387,223.99309 200.784,223.23442C201.23671,222.37605 201.31403,221.70757 201.536,220.83443C201.7552,219.97214 202.28972,219.14609 202.85266,218.48709C203.36536,217.88692 203.31854,217.08463 203.536,216.29576C203.79597,215.35258 204.41949,214.7153 204.55267,214.02542C204.74538,213.02722 205.06769,212.24303 205.59984,211.45593C206.10359,210.71083 206.46202,209.91669 206.85266,209.12993C207.29164,208.2458 207.4333,207.60753 207.5,206.60109C207.55847,205.7189 208.39819,205.11171 208.47917,204.41359C208.58954,203.46208 208.50899,202.58014 209.11067,201.83443C209.63701,201.1821 210.47141,200.84737 210.5,201.73442C210.52899,202.63396 210.75627,203.65935 210.27867,204.3131C209.76796,205.01218 209.5,205.63443 209.5,206.53442C209.5,207.43443 209.00719,208.4352 209.58533,209.14909C210.18834,209.89369 211.33333,209.60109 211.5,210.43443C211.66667,211.26776 212.65442,211.11124 213.37866,211.65576C214.02151,212.13908 214.49362,212.84299 215,213.43443C215.50893,214.02885 215.1333,215.01414 215.52083,215.91359C215.82861,216.62794 216.55533,217.13744 217,217.93443C217.44551,218.73294 217.44563,219.63608 217.50017,220.53442C217.54289,221.23828 218.04361,222.17563 218.89999,222.39842C219.77171,222.6252 220.7,222.43443 221.60001,222.43443C222.5,222.43443 223.43036,222.82738 224.21466,222.34909C225.0183,221.85901 225.60439,221.52312 226.5,221.43443C227.3457,221.35069 227.83156,220.621 228.60001,220.21309C229.24995,219.86807 230.09996,219.43977 231,219.43443C231.89998,219.42911 232.85007,219.30276 233.60001,219.65576C234.37552,220.0208 235.31433,220.03899 236.064,220.47043C236.75362,220.86731 236.5,222.03442 236.5,222.93443C236.5,223.83443 236.5,224.73442 236.5,225.63443C236.5,226.53442 236.5,227.43443 236.5,228.23442C236.5,229.13443 236.5,230.03442 236.5,230.93443C236.5,231.83443 236.5,232.73442 236.5,233.63443C236.5,234.53442 236.5,235.43443 236.5,236.23442C236.5,237.13443 236.5,238.03442 236.5,238.93443L236.5,239.83443L236.5045,240.72992L236.92534,241.37709" id="svg_21" stroke-width="3" stroke="#000" fill="none"/>
  <path t="68563,68681,68697,68698,68714,68731,68731,68747,68747,68764,68764,68781,68814,68848,68864,68864,68881,68881,68914,68936" d="M246.5,227.43443C246.5,229.19159 246.5,230.0871 246.5,230.95042C246.5,231.8091 246.50008,232.75592 246.5,233.6451C246.49991,234.63426 246.63889,235.45944 246.27867,236.41293C246.02928,237.07306 245.51042,237.93425 245.5,238.83443C245.49072,239.6357 245.5,240.60109 245.5,241.43443C245.5,242.41293 245.5,243.23309 245.5,244.13443L245.5,245.0201" id="svg_22" stroke-width="3" stroke="#000" fill="none"/>
  <path t="69325,69441,69442,69465,69482,69498,69498,69522,69547,69614,69674,69674,69698,69715,69732,69748,69765,69782,69782,69798,69815,69815,69832,69832,69848,69865,69882,69882,69898,69922,69947,69965,69982,69998,70018,70034,70082,70082,70098,70115,70115,70131,70131,70147,70164,70197,70215,70232,70249,70249,70265,70265,70282,70314,70347,70364,70364,70635" d="M247.5,229.43443C248.89999,227.61977 249.25958,226.94392 250.10001,226.41975C250.86717,225.94127 251.69754,225.41011 252.14284,224.73442C252.61449,224.01874 252.94922,223.19563 253.584,222.71843C254.35056,222.14215 255.44383,222.01723 256.14282,222.49159C256.82535,222.95479 256.60544,224.11249 257.30133,224.51843C258.02277,224.93927 258.56421,225.77875 259,226.41359C259.55603,227.2236 260.53268,227.56003 261.10001,228.04509C261.84671,228.68353 262.38898,229.15791 262.97916,229.93443C263.54004,230.67239 263.69241,231.74695 264.30133,232.14909C265.05804,232.64885 265.60046,233.22623 266,233.93443C266.49533,234.81242 267.05084,235.37454 267.79999,235.78709C268.63855,236.24889 269.26526,236.70787 269.66666,237.43443C270.09354,238.20712 271.0014,238.61919 271.37851,239.53459C271.68106,240.26903 271.48801,241.25987 271.5,241.95042C271.51801,242.98824 272.33026,243.48337 272.49866,244.23576C272.69534,245.11459 273.11188,245.91136 273.37866,246.75575C273.63953,247.58139 273.8526,248.5103 274.216,249.23309C274.60184,250.00052 274.92532,250.83443 275.41599,251.63443L275.66666,252.43443L276.14734,253.13443L276.52533,253.99843" id="svg_23" stroke-width="3" stroke="#000" fill="none"/>
  <path t="71414,71514,71531,71531,71547,71547,71564,71564,71564,71581,71581,71601,71601,71617,71630,71630,71647,71664,71680,71680,71697,71714,71714,71714,71730,71730,71747,71747,71764,71764,71780,71780,71780,71797,71798,71814" d="M292.5,222.43443C290.52084,223.45526 290.30118,224.42729 289.88934,225.05975C289.42499,225.77284 288.9985,226.4545 288.5,227.43443C288.09879,228.22314 287.83569,228.80199 287.20001,229.68176C286.72589,230.33792 286.22214,231.10033 285.79999,231.78175C285.23361,232.69595 284.58789,233.42075 284.50449,234.13443C284.40002,235.02835 284.5,235.95526 284.5,236.91843C284.5,237.6091 284.5,238.68176 284.5,239.60109C284.5,240.2811 284.5,241.12109 284.5,242.1171C284.5,242.91359 284.5,244.10109 284.5,244.91359C284.5,245.75609 284.5,246.47609 284.5,247.60109C284.5,248.3826 284.5,249.1731 284.5,250.29143L284.5,251.12543L284.52084,251.93443" id="svg_24" stroke-width="3" stroke="#000" fill="none"/>
  <path t="72315,72396,72415,72433,72449,72464,72480,72497,72514,72514,72530,72547,72547,72564,72580,72597,72614,72614,72630,72630,72647,72647,72647,72664,72664,72680,72680,72697,72697,72714,72714,72730,72747,72747,72764" d="M291.5,222.43443C293.29999,222.43443 294.20004,222.42844 295.10001,222.43443C295.90005,222.43977 296.90341,222.71494 297.33334,223.43443C297.7937,224.20488 298.42947,224.87143 298.48932,225.61977C298.56342,226.54619 298.32645,227.47269 298.58533,228.23442C298.88708,229.12234 299.48199,229.83389 299.5,230.73892C299.51715,231.60092 299.5,232.43443 299.5,233.41325C299.5,234.24426 299.5,235.20377 299.5,235.95526C299.5,236.75175 299.5,237.7491 299.5,238.62376C299.5,239.63426 299.5,240.41359 299.5,241.41309C299.5,242.18709 299.49084,243.08714 299.5,243.95042C299.51044,244.9346 299.72134,245.75575 300.07468,246.6091L300.41467,247.54909" id="svg_25" stroke-width="3" stroke="#000" fill="none"/>
  <path t="73329,73473,73473,73497,73497,73514,73514,73514,73530,73530,73547,73547,73564,73564,73564,73564,73580,73580,73580,73597,73597,73597,73614,73614,73630,73630,73647,73664,73680,73680,73697,73714,73730,73730,73747,73764,73764,73780,73780,73797,73798,73814,73830,73847,73864,73881,73914,73930,73953,74014" d="M314.5,205.43443C314.50449,208.97276 314.50458,209.79138 314.85266,210.69077C315.16925,211.50876 315.42911,212.48544 315.46399,213.11043C315.51785,214.07544 315.5,215.17009 315.5,215.89276C315.5,216.92242 315.5,217.71709 315.5,218.76776C315.5,219.40242 315.5,220.0851 315.5,221.12909C315.5,222.10109 315.50006,222.92459 315.5,223.8826C315.49991,224.85576 315.53094,225.66318 315.44284,226.48177C315.33115,227.51976 314.98831,228.15897 314.66666,229.26776C314.4516,230.00911 314.55289,230.96918 314.14734,231.73442C313.69904,232.58032 313.50067,233.23442 313.5,234.13443C313.4993,235.07042 313.5,235.91843 313.5,236.78175C313.5,237.8091 313.5,238.75575 313.5,239.43443C313.5,240.41309 313.5,241.31842 313.5,242.25977C313.5,242.95042 313.5,244.02376 313.5,244.83443C313.5,245.73442 313.5,246.63443 313.5,247.53442C313.5,248.43443 313.72134,249.3131 314.41467,249.71976L314.5,250.63176" id="svg_26" stroke-width="3" stroke="#000" fill="none"/>
  <path t="74846,74965,74965,74998,74998,75014,75014,75030,75031,75047,75065,75065,75081,75081,75098,75098,75114,75114,75114,75130,75130,75130,75147,75164,75164,75164,75180,75180,75180,75197,75197,75197,75214,75214,75214,75230,75247,75247,75264,75264,75280,75281,75297,75314,75337,75353,75369,75380,75380,75397,75414,75431,75450,75474,75474,75506,75531" d="M212.5,202.43443C213.37199,203.83443 214.1024,204.23494 215.10001,204.73442C215.69984,205.03474 216.69217,205.55038 217.28934,205.82376C218.32088,206.29597 219.15604,206.34857 219.89999,206.87042C220.57416,207.34331 221.09436,208.12436 221.98534,208.34909C222.69235,208.52742 223.71017,208.34238 224.5,208.47609C225.52705,208.64998 226.29495,209.302 226.89999,209.78625C227.6933,210.42119 228.30507,210.77319 229.01466,211.23309C229.89528,211.80382 230.64299,212.47908 231.34666,212.82376C231.94405,213.11638 232.92024,213.3244 233.73599,213.40909C234.60335,213.49913 235.80209,213.64587 236.39549,213.78709C237.26758,213.99463 238.33217,214.27519 239.03833,214.38176C240.01184,214.52869 240.82224,214.98373 241.66667,215.26776C242.46852,215.53746 243.47867,215.43443 244.25267,215.43443C245.15266,215.43443 246.01601,215.43443 246.97917,215.43443C247.89999,215.43443 248.8,215.43443 249.7,215.43443C250.60001,215.43443 251.5,215.43443 252.3,215.43443C253.2,215.43443 254.1192,215.59964 255,215.41359C255.8474,215.23459 256.5,214.60109 257.29999,214.43576L258.20001,214.37726L259,213.93443" id="svg_27" stroke-width="3" stroke="#000" fill="none"/>
  <path t="77320,77381,77418,77431,77431,77448,77448,77465,77481,77481,77498,77498,77514,77515,77515,77530,77554,77554,77565,77586,77586,77601,77617,77633,77649,77673,77697,77697,77714,77714,77730,77730,77753,77753,77764,77794,77815,77841,77866,77977" d="M258.5,214.43443C259.38666,214.43443 260.36758,214.2729 261.33334,214.60109C262.03073,214.83807 262.61084,215.7601 263.29999,216.14909C264.06631,216.58165 264.99817,216.32616 265.84732,216.49159C266.78268,216.67383 267.45123,217.27441 268.26801,217.63309C268.98575,217.94827 269.71368,218.25237 270.83865,218.39842C271.81378,218.52502 272.67465,218.43443 273.61465,218.43443C274.5,218.43443 275.29999,218.43443 276.20001,218.43443C277.10001,218.43443 278,218.43443 278.89999,218.43443C279.79999,218.43443 280.70267,218.4361 281.47067,218.43443C282.50534,218.43217 283.27643,218.52478 284.16666,218.26776C284.99991,218.02719 285.62137,217.12686 286.29999,216.71976C287.03595,216.27826 287.88934,215.99843 288.41599,215.23576L288.85718,214.49159L289.69867,214.43309L290.44284,214.07726" id="svg_28" stroke-width="3" stroke="#000" fill="none"/>
 </g>
</svg>