<svg width="500" height="333.3333333333333" xmlns="http://www.w3.org/2000/svg" xmlns:svg="http://www.w3.org/2000/svg" xmlns:xlink="http://www.w3.org/1999/xlink">
 <!-- Created with SVG-edit - http://svg-edit.googlecode.com/ -->
 <g display="inline" class="layer">
  <title>Layer 1</title>
  <path t="0,180,181,260,260,300,326,326,358,380,388,412,444,474,478,499,499,519,546,566,566,619,620,638,661,668,693,694,779,805,827,830,830,851,877,877,891,911,911,931,966,966,989,992,992,1013,1013,1013,1041,1042,1092,1093,1101,1172,1173,1205,1205,1260,1260,1302,1303,1365,1366,1366,1394,1394,1394,1394,1426,1447,1471,1471,1496,1496,1496,1526" d="M257.5,62.16667C257.49551,64.172 257.65408,64.96524 257.2785,66.0235C257.01477,66.76664 255.91673,67.03763 255.55267,67.8765C255.29367,68.4733 254.91222,69.45271 254.62151,70.26667C254.31604,71.12193 254.01683,71.77384 253.58533,72.452C253.09218,73.22705 253.54779,74.26794 253.5,75.16667C253.45728,75.97007 252.81073,76.58855 252.55716,77.47117C252.27594,78.45002 252.63904,79.21362 252.27867,80.14516C251.97777,80.923 251.51266,81.66652 251.5,82.56667C251.48734,83.46659 251.11392,84.30502 250.784,84.96667C250.36345,85.81003 250.5,86.76667 250.5,87.6875C250.5,88.65067 250.5,89.34133 250.5,90.4095C250.5,91.26684 250.5,92.052 250.5,92.992C250.5,94 250.5,94.756 250.5,95.6875C250.5,96.652 250.5,97.37733 250.5,98.36684C250.5,99.1875 250.5,99.85201 250.5,101.11933C250.5,101.66667 250.5,102.48267 250.5,103.7095C250.5,104.56216 250.49947,105.56534 250.5,106.33067C250.50067,107.28133 250.72826,108.13114 251.07466,108.80267C251.49431,109.61617 251.49963,110.58429 251.72133,111.3665C251.94702,112.1628 252.36641,113.14816 252.55267,113.9765C252.76978,114.94198 253.01683,115.72531 253.14734,116.33283C253.36107,117.32778 253.44191,118.40627 253.5,119.10417C253.57684,120.02729 254.10037,120.77056 254.44284,121.52834C254.83884,122.40456 254.54167,123.1875 254.83333,124.16667L255.35066,124.956L255.79466,125.5095L256.38568,126.414" id="svg_1" stroke-width="3" stroke="#000" fill="none"/>
  <path t="2935,3260,3284,3310,3310,3341,3360,3375,3394,3395,3404,3483,3563,3596,3622,3643,3643,3676,3707,3707,3710,3733,3733,3758,3759,3759,3759,3759,3759,3759,3780,3780,3780,3780,3781,3781,3809,3809,3809,3830,3972,3972,4003,4021,4023,4051,4123,4141,4142,4164,4164,4261,4261,4299,4340,4359,4379,4379,4411,4432,4432,4453,4453,4454,4492,4492,4512,4683,4763,4763,4790,4790,4875,4931,4931,4963,4964,4991,5043,5043,5131,5181,5187,5265,5266,5459,5459,5459,5493,5542,5588,5623,5660,5661,5891,5927,5928,5996,6006,6006,6107,6172,6172,6207,6241,6283,6283,6331,6365,6365,6684,6707,6725,6725,6757,6758,6790,6822,6822,6852,6852,6852,6891,6891,6932,6932,6932,6932,6995,6996,7039,7076,7077,7164,7164,7178,7214,7214,7274,7274,7275,7275,7275,7331,7331,7332,7332,7360,7360,7382,7418,7418,7419,7424,7426,7426,7426,7450,7482,7483,7508,7508,7508,7508,7529,7529,7529,7550,7550,7551,7589,7611,7611,7636,7639,7640,7663,7663,7663,7664,7664,7664,7664,7665,7694,7694,7695,7695,7695,7695,7696,7696,7696,7747,7748,7748,7748,7988,7988,8035,8058" d="M258.5,62.16667C260.20001,61.17117 261.13599,61.16667 261.98401,61.16667C262.84732,61.16667 263.86401,61.16674 264.70001,61.16667C265.60001,61.16658 266.45377,60.92454 267.20001,60.51933C267.96112,60.10605 268.89999,60.16667 269.79999,60.16667C270.70001,60.16667 271.60129,60.21447 272.5,60.16667C273.30341,60.12394 273.96985,59.51867 274.98401,59.252C275.65585,59.07535 276.74283,59.16667 277.60101,59.16667C278.31601,59.16667 279.5,59.16667 280.41068,59.16667C280.93851,59.16667 281.50534,59.16667 282.728,59.16667C283.36984,59.16667 284.02267,59.16667 285.33334,59.16667C286.60934,59.16667 287.22482,59.16667 287.82132,59.16667C288.94534,59.16667 289.46683,59.16667 290.83334,59.16667C291.86682,59.16667 292.62134,59.16667 293.61465,59.16667C294.5,59.16667 295.29999,59.16667 296.13599,59.16667C297.15268,59.16667 297.84732,59.16667 298.86401,59.16667C299.8045,59.16667 300.66666,59.16667 301.52084,59.16667C302.5,59.16667 303.28934,59.16667 304.33334,59.16667C305.08932,59.16667 306.013,59.02458 306.89999,59.17733C307.73315,59.32081 308.54065,59.8954 309.29999,60.25067C310.0314,60.59288 310.38535,61.5125 310.75467,62.13733C311.26199,62.99568 311.77991,63.42386 312.49918,64.16133C313.16049,64.83939 313.7843,65.54961 314.59982,66.04533C315.37952,66.51929 315.66324,67.33469 315.92532,67.992C316.32809,69.00211 316.48886,69.77505 316.92532,70.56667C317.379,71.3895 317.56058,72.06084 317.92532,72.992C318.19861,73.68973 318.48956,74.6665 318.5,75.65067C318.50732,76.34129 318.33081,77.51401 318.83334,78.16667C319.34946,78.83698 320.27328,79.30097 320.42801,80.00267C320.67911,81.14154 320.5,81.956 320.5,82.68134C320.5,83.64584 320.5,84.56667 320.5,85.46667C320.5,86.36667 320.5,87.26684 320.5,88.052C320.5,88.992 320.5,90 320.5,90.756C320.5,91.6875 320.50146,92.65067 320.5,93.34133C320.49774,94.40951 320.19913,95.2175 319.85266,95.86667C319.39932,96.71604 319.55753,97.71134 319.2785,98.48783C318.97232,99.3399 318.2616,99.91759 317.5,100.33334C316.75467,100.7402 315.87045,100.96255 315.2045,101.52834C314.46667,102.15517 314.64459,103.20922 314.33334,104C314.02353,104.78712 312.97217,105.00877 312.29999,105.73734C311.78207,106.29869 311.47311,107.15413 311.11066,107.96667C310.75885,108.75538 310.58353,109.77834 310.43866,110.40266C310.21948,111.34718 309.78891,112.11625 309.35068,112.94134C309.06421,113.48067 308.56577,114.7001 308.509,115.505C308.44507,116.4118 308.50006,117.33334 308.5,118.16667C308.49991,119.14516 308.38583,119.94952 308,120.6875C307.58948,121.47273 307.57138,122.29125 306.83334,123.33334C306.42859,123.90483 305.78259,124.39825 305.12933,124.94134C304.47055,125.48901 303.54062,126.24226 303.01434,126.705C302.53949,127.12254 301.94989,127.74989 300.90451,128.405C300.18625,128.85513 299.23727,129.05739 298.33334,129.33333C297.62796,129.54866 296.99179,129.87357 295.85751,130.04517C295.20346,130.14412 294.18671,130.1591 293.55334,130.16533C292.37152,130.17696 291.43835,130.46544 290.79199,130.74133C289.78107,131.17284 289.13361,131.1261 288.104,131.15601C287.38159,131.17699 286.32166,131.16667 285.34668,131.16667C284.74667,131.16667 283.66666,131.16667 282.74667,131.16667C281.98666,131.16667 281,131.16667 280.01468,131.16667C279.28934,131.16667 278.29901,131.16667 277.63599,131.16667C276.75699,131.16667 275.5,131.16667 274.97083,131.16667C273.7525,131.16667 273.07333,131.16667 272.35416,131.16667C271.60001,131.16667 270.81583,131.16667 270.00665,131.16667C268.33334,131.16667 267.47949,131.16667 266.62268,131.16667C265.76984,131.16667 264.92801,131.16667 264.10416,131.16667C263.30533,131.16667 262.53851,131.16667 261.81067,131.16667C260.5,131.16667 259.92932,131.16667 258.952,131.16667C258.16666,131.16667 256.83334,131.16667 256.04166,131.16667L255.2045,131.16217L254.52533,130.73067" id="svg_2" stroke-width="3" stroke="#000" fill="none"/>
  <path t="9998,10740,10796,10796,10837,10871,10972,11059,11091,11121,11121,11163,11163,11189,11251,11372,11372,11500,11611,11611,11699,11771,11795" d="M313.5,101.16667C314.46399,102.992 314.5,104 314.5,104.86217C314.5,105.76667 314.5,106.66667 314.5,107.56667C314.5,108.46667 314.5,109.36667 314.5,110.26684C314.5,111.052 314.5,111.992 314.5,112.68267C314.5,113.756 314.5,114.57733 314.5,115.488C314.5,116.34133 314.55954,117.28314 314.49985,118.26667C314.45712,118.97054 313.92532,119.76667 313.52533,120.56667L313.14282,121.46217" id="svg_3" stroke-width="3" stroke="#000" fill="none"/>
  <polyline timestamps="13479,13687,13771" startTime="1501916702052" id="svg_4" points="309.5,116.16666793823242 311.2,117.16216793823241 312.13599999999997,117.16666793823242 " stroke-linecap="round" stroke-width="3" stroke="#000" fill="none"/>
  <path t="15855,16085,16140,16141,16236,16292" d="M307.5,117.16667C309.25717,117.16667 310.15268,117.16667 311.01599,117.16667L311.97916,117.16667L312.8045,117.16667" id="svg_5" stroke-width="3" stroke="#000" fill="none"/>
  <path t="20350,20506,20529,20530,20536,20536,20536,20555,20555,20611,20635,20639,20639,20669,20670,20691,20701,20722,20722,20754,20787,20787,20819,20891,20891,20987,20987,20995,21043,21074,21130,21155,21182,21234,21235,21268,21291,21318,21410,21410,21439,21468,21468,21546,21546,21618,21618,21627,21627,21652,21652,21674,21739,21770,21800,21801,21826,21827,21839,21859,21900,21900,21920,21941,21987,21987,22027,22027,22059,22059,22084,22085,22122,22123,22170,22170,22203,22204,22226,22234,22499" d="M316.5,120.16667C316.5,121.92384 316.59818,122.84698 316.38568,123.57117C316.078,124.61965 315.51541,125.20289 314.89734,125.596C313.97375,126.18342 313.11484,126.11562 312.13599,126.592C311.35873,126.97027 310.46732,127.29227 309.89999,127.77734C309.15329,128.41577 308.77652,129.05566 308,129.64583C307.26202,130.2067 306.35916,130.54784 305.70001,130.88268C304.91583,131.28102 303.83551,131.0858 303.15268,131.22383C302.22699,131.41096 301.5,132.16667 300.89999,132.76666C300.29999,133.36667 299.77579,134.05472 299,134.64583C298.26581,135.20525 297.51801,135.6021 297.5,136.46667C297.48126,137.36647 297.5,138.26666 297.5,139.16667C297.5,139.96667 297.5,140.86667 297.5,141.76666C297.5,142.6875 297.5,143.65067 297.5,144.34134C297.5,145.4095 297.49951,146.267 297.5,146.981C297.50067,147.93466 297.38046,148.69296 297.66666,149.83333C297.84195,150.53174 298.36325,151.49095 298.5,152.16667C298.69901,153.14996 298.9469,153.98061 299.52533,154.73067C299.98044,155.32085 300.98926,155.54262 301.41733,156.368C301.75293,157.01509 302.23898,157.79213 302.79468,158.51401C303.36517,159.2551 303.5,160.26666 303.5,161.16667C303.5,161.96667 303.46869,162.92235 303.936,163.56667C304.50253,164.34779 305.22861,164.90497 305.70001,165.65067C306.1265,166.3253 306.57248,167.16879 307.10001,167.756C307.7709,168.50278 308.37805,169.05942 308.98401,169.64934C309.66653,170.31378 310.57275,170.76369 311.21335,171.24933C311.9892,171.83751 312.52084,172.16667 313.47849,172.38817L314.1955,172.87117L314.7955,173.46667" id="svg_6" stroke-width="3" stroke="#000" fill="none"/>
  <path t="27303,27364,27364,27391,27391,27412,27458,27458,27458,27484,27485,27517,27517,27548,27548,27570,27570,27588,27595,27595,27634" d="M301.5,156.16667C301.85266,158.172 302.12338,158.90364 302.33334,159.83333C302.53717,160.73584 302.5,161.70833 302.5,162.5C302.5,163.41733 302.5,164.16133 302.5,165.19734C302.5,166.04933 302.44608,167.01175 302.58533,167.76801C302.77194,168.78162 303.1517,169.54607 303.70001,170.28134C304.15814,170.89572 304.89999,171.56667 305.60001,172.26666L306.10001,172.76666L306.79999,173.46667" id="svg_7" stroke-width="20" stroke="#fff" fill="none"/>
  <path t="28446,28650,28660,28660,28685,28686,28686,28686,28707,28707,28733,28733,28766,28767,28789,28789,28815,28815,28839,28839,28891,28891,28891,28891,28900,28923,28923,28951,28974,29002,29002,29034,29034,29068,29069,29069,29069,29085,29085,29107,29107,29149,29186,29186,29218,29218,29218" d="M295.5,135.16667C295.5,136.992 295.44839,138.00371 295.53601,138.864C295.61841,139.67305 295.85315,140.52455 296,141.16667C296.21674,142.1145 296.38873,143.31277 296.58401,144.048C296.79514,144.84296 297.21622,145.56543 297.69867,146.56667C297.98618,147.16335 298.3847,148.15987 298.46399,148.95599C298.5675,149.99548 298.4697,150.79167 298.94666,151.59866C299.33514,152.25598 299.9906,153.21452 300.31467,153.84267C300.64685,154.48651 300.96866,155.10057 301.39017,156.29517C301.6944,157.15738 302.29514,157.82036 302.47916,158.66667C302.6705,159.54666 302.8801,160.45433 303.30133,161.052C303.83429,161.8082 304.2475,162.63406 304.66666,163.33333C305.14178,164.12596 305.50992,164.66048 306.01599,165.48267C306.62537,166.47269 307.07761,167.08369 307.37851,168.14517C307.57663,168.84412 307.46326,169.82762 307.78665,170.65201C308.08237,171.40584 308.66666,172.16667 309.15268,172.76216L309.84732,173.50951" id="svg_8" stroke-width="20" stroke="#fff" fill="none"/>
  <path t="33333,33618,33674,33674,33704,33786,33795,33795,33818,33858,33885,33922,33949,33949,33986,33986,34013,34050,34050,34130,34186,34186,34226,34314,34314,34314" d="M302.5,135.16667C303.49551,136.92383 303.5,137.81934 303.5,138.68266C303.5,139.53067 303.36343,140.52332 303.784,141.36667C304.11392,142.02832 304.48709,142.86674 304.5,143.76666C304.5126,144.64598 305.20453,145.17599 305.47467,146.03867C305.69543,146.74371 305.87289,147.7545 306.14734,148.50951C306.47144,149.40109 306.69086,150.29268 307.2045,150.86667C307.86252,151.60201 308.70718,152.18471 309.14282,152.86667C309.63501,153.63719 309.66666,154.5 309.936,155.41733L310.2045,156.16133" id="svg_9" stroke-width="20" stroke="#fff" fill="none"/>
  <path t="37701,38058,38115,38115,38137,38137,38166,38181,38181,38213,38250,38298,38354,38354,38410,38546,38546,38579,38579,38579,38599,38630,38631,38635,38635,38635,38635,38662,38662,38687,38687,38687,38715,38715,38739,38739,38739,38739,38766,38767,38767,38767,38790,38790,38815,38815,38815,38846,38846,38930,38930,38930,39066,39093,39093,39116,39138,39139,39163,39163,39186,39213,39213,39213,39236,39262,39262,39285,39285,39290,39290,39314,39314,39322,39322,39346,39346,39395,39395,39450,39450,39459,39482,39512,39539,39539,39545,39545,39565,39566,39570,39599,39600,39622,39622,39622,39651,39651,39651,39651,39679,39680,39680,39680,39705,39705,39705,39705,39706,39711,39711,39713,39716,39716,39745,39770,39770,39797,39798,39798,39820,39820,39820,39850,39851,39851,39883,39884,39884,39884,39890,39890,39890,39915,39945,39946,39966,39967,39967,39967,39980,39980,39980,39986,40011,40035,40063,40076,40134,40135,40169,40289,40290,40361,40417,40457,40460,40513,40514,40544,40566,40566,40590,40628,40677,40678,40721,40722,40753,41010,41042,41042,41068,41090,41093,41115,41162,41162,41217,41289,41290,41858,41967,41967,41995,41995,42028,42028,42053,42053,42053,42129,42130,42130,42161,42162,42337,42338,42361,42395,42395,42411,42438,42439,42464,42464,42476,42476,42499,42500,42529,42553,42554,42554,42554,42588,42589,42589,42613,42614,42614,42614,42644,42645,42667,42668,42668,42929,42930,42962,42984,42985,43011,43011,43011,43012,43046,43046,43046,43047,43047,43047,43047,43047,43048,43161,43162,43162,43162,43162,43163,43163,43193,43193,43217,43247,43271,43271,43298,43299,43306,43309,43310,43315,43322,43353,43353,43381,43381,43381,43412,43412,43413,43413,43413,43413,43438,43438,43439,43442,43442,43443,43443,43467,43467,43468,43468,43468,43562,43562,43562,43563,43563,43570,43570,43570,43595,43595,43621,43622,43622,43622,43623,43626,43652,43652,43652,43653,43653,43653,43680,43680,43680,43681,43681,43681,43682,43682,43682,43714,43714,43714,43715,43715,43715,43715,43716,43716,43744,43744,43745,43745,43745,43746,43777,43778,43778,43778,43804,43804,43832,43832,43844,43866,43867,43892,43892" d="M303.5,136.16667C304.37851,137.38834 304.45483,138.33562 304.51068,138.992C304.59714,140.00833 305.14059,140.72853 305.69867,141.36667C306.37094,142.13536 306.31406,142.89352 306.53601,143.76666C306.75522,144.62894 307.28903,145.4203 307.72134,146.26666C308.05606,146.92198 308.4183,147.71565 308.78665,148.65201C309.0831,149.40555 309.65723,150.17444 310.14816,150.76216C310.62955,151.33842 311.36893,152.27463 311.5,153.16667C311.60345,153.87076 311.93436,154.93456 312.20984,155.52467C312.5116,156.17107 312.81259,156.83211 313.47849,157.9025C313.95187,158.66348 314.51233,159.49463 314.79999,160.172C315.11356,160.91039 315.5,161.83333 316,162.66667C316.5,163.5 316.78818,164.19069 317.172,164.98801C317.45547,165.57689 318.02435,166.48112 318.50534,167.05766C319.22272,167.91757 319.75476,168.37401 320.52933,169.19867C321.09576,169.80173 321.6062,170.70674 321.89999,171.41733C322.20651,172.15868 322.54327,173.06746 323.13599,173.78134C323.76474,174.53864 324.2915,175.02138 324.84732,175.45683C325.69583,176.12163 326.73456,176.27249 327.21466,176.968C327.72809,177.71181 328.0379,178.67986 328.52084,179.14583C329.28677,179.88486 330.18738,180.03371 330.89999,180.61333C331.62711,181.20471 331.86905,182.01088 332.29999,182.68266C332.86087,183.55704 333.50098,184.16571 334.10001,184.76666C334.80112,185.47003 335.32129,186.03853 335.79999,186.81934C336.21896,187.50273 336.82745,188.39336 337.29999,189.05067C337.83667,189.79723 338.19531,190.5753 338.82132,191.14517C339.44498,191.71291 340.36255,192.13106 340.97916,192.66667C341.737,193.32498 342.33255,193.93806 342.49551,194.86667C342.65125,195.75401 343.06525,196.4964 343.41599,197.36934C343.70908,198.09882 343.75681,198.94446 344.02084,199.66667C344.45389,200.85121 345.06558,201.40799 345.37851,202.26666C345.68948,203.11993 345.53796,203.98576 345.784,204.93733C345.98444,205.71252 346.19247,206.26778 346.37885,207.46683C346.51962,208.37267 346.52441,209.0099 346.66934,209.65201C346.99002,211.07265 347.36758,211.80466 347.54166,212.1875C347.8999,212.97536 348.5033,214.16504 348.89734,214.964C349.28189,215.74374 349.6514,216.48508 349.92932,217.196C350.28754,218.1123 350.47699,219.12413 350.49734,219.76401C350.52908,220.76166 350.5,221.68134 350.5,222.64583C350.5,223.48016 350.5,224.22267 350.5,225.22C350.5,226.1875 350.49161,226.86586 350.50015,228.12384C350.50546,228.90538 350.5192,229.62201 350.72134,230.58817C350.89331,231.41002 351.18277,232.26453 351.33334,233.16667C351.4827,234.06148 351.50497,234.96901 351.58401,235.56667C351.74319,236.77011 352.01556,237.6208 352.216,238.396C352.46204,239.34758 352.4704,240.26968 352.53601,240.91068C352.66382,242.15927 352.84766,242.87936 353.02084,243.66667C353.19495,244.45816 353.44754,245.52322 353.7955,246.23801C354.16141,246.98967 354.49774,247.86665 354.5,248.76666C354.50226,249.66667 354.38348,250.57483 354.50449,251.46667C354.61591,252.28801 355.34546,252.93497 355.48932,253.80267C355.62802,254.63931 355.5,255.51401 355.5,256.53067C355.5,257.36801 355.5,258.33334 355.5,259.16666C355.5,260.14517 355.5,260.96533 355.5,261.80267C355.5,262.65067 355.5,263.51401 355.5,264.53067C355.5,265.36801 355.5,266.33334 355.5,267.16666C355.5,268.14517 355.5,268.96533 355.5,269.86667C355.5,270.6875 355.5,271.65067 355.5,272.34134C355.5,273.40952 355.5,274.36801 355.5,275.052C355.5,275.992 355.5,277 355.5,277.86218C355.5,278.6875 355.5,279.65067 355.5,280.34134C355.5,281.40952 355.5,282.36801 355.5,283.052C355.5,284.00266 355.47131,284.76855 355.50449,285.77118C355.53275,286.625 355.68451,287.59937 355.94666,288.392C356.22305,289.22775 356.6409,290.01831 357.14816,290.70499C357.61557,291.33774 358.32272,292.28531 358.58267,293.05066C358.8447,293.82208 359.32196,294.65894 359.46399,295.54132C359.61453,296.47665 359.5,297.34134 359.5,298.28134C359.5,299.16666 359.5,299.92383 359.5,300.82382C359.5,301.57117 359.62183,302.58078 359.44284,303.50949C359.26331,304.44107 358.66644,304.93542 357.97916,305.70834C357.30026,306.47183 356.84164,307.1727 356.5,307.6875C355.97522,308.47824 355.56747,309.27594 354.95834,310.14584C354.65527,310.57864 353.74548,311.38116 353.142,311.76218C352.50958,312.16144 351.52969,312.64539 350.76434,313.14532C350.01831,313.63266 349.33331,314.33331 348.67465,314.992C348.15268,315.51401 347.47098,316.39417 346.8045,316.80499C346.05096,317.2695 344.99789,316.91263 344.47916,316.625C343.46323,316.06171 342.87866,315.49463 342.39584,315.08334C341.81558,314.58902 340.6684,313.6644 340.19266,313.30234C339.67651,312.90952 339.11981,312.49808 338.53067,312.06934C337.91785,311.62335 337.28351,311.16943 336.63467,310.71033C335.97955,310.24677 334.66925,309.32956 333.392,308.45734C332.78088,308.04004 332.19055,307.64346 331.625,307.27084C331.09183,306.91956 330.15659,306.2579 329.00751,305.65268C328.29623,305.27808 327.15268,305.55606 326.62149,304.94516C326.03946,304.27576 326.41779,303.28024 326.07468,302.32001C325.85464,301.70428 325.59241,300.74811 325.53601,299.952C325.4642,298.93796 325.5,297.98099 325.5,297.06668C325.5,296.16666 325.5,295.40952 325.5,294.487C325.5,293.776 325.5,293.13867 325.5,291.85934C325.5,290.78534 325.5,290.19733 325.5,289.58334C325.5,288.94934 325.5,287.64532 325.5,286.33334C325.5,285.68851 325.5,285.05466 325.5,283.82401C325.5,283.22916 325.50012,282.64932 325.5,281.53867C325.49982,280.00949 325.51422,279.53549 325.47867,278.62799C325.44431,277.75122 325.3598,276.87784 325.16666,276C324.96375,275.07776 324.651,274.16211 324.5,273.70834C324.20856,272.83258 323.77896,271.67789 323.61432,270.74268C323.45627,269.84503 323.50003,268.90134 323.5,268.18533C323.49991,266.95932 323.5054,266.54123 323.48932,265.59732C323.47147,264.54919 323.45163,264.00082 323.41467,263.44534C323.30423,261.78537 323.23227,261.24158 323.03201,260.14932C322.92786,259.58118 322.80716,258.99011 322.44266,257.74133C322.02911,256.32452 321.74112,255.55797 321.444,254.74667C321.13434,253.90117 320.7984,253.03738 320.4375,252.16667C320.0744,251.29065 319.69965,250.42378 319.29599,249.58667C318.52496,247.98772 318.10837,247.26958 317.70267,246.59467C317.31659,245.95238 316.92496,245.35487 316.54166,244.79167C316.17548,244.25362 315.81171,243.74817 315.47067,243.25867C314.8284,242.33676 314.52322,241.89995 314.01883,241.02383C313.54349,240.19817 313.33389,239.78763 312.98801,238.968C312.48715,237.7811 312.25812,236.97986 312.02084,236.22917C311.70261,235.22227 311.38763,234.15015 310.86401,233.59866C310.26672,232.9696 309.32779,232.85069 308.66934,231.96667C308.15103,231.2708 307.92532,230.53067 307.58533,229.68266L307.50449,228.81934" id="svg_10" stroke-width="3" stroke="#000" fill="none"/>
  <path t="46203,46314,46347,46347,46371,46371,46371,46397,46397,46397,46398,46427,46428,46428,46428,46446,46448,46448,46448,46448,46469,46469,46469,46494,46494,46494,46494,46517,46517,46517,46546,46546,46546,46577,46610,46610,46610,46642,46642,46646,46670,46693,46717,46718,46761,46761,46761,46764,46770,46770,46791,46791,46813,46813,46843,46844,46844,46881,46881,46882,46908,46909,46929,46929,46961,46961,46993,46993,47021,47021,47043,47081,47081,47329,47330,47347,47369,47393,47401,47402,47427,47428,47434,47434,47474,47497,47526,47526,47547,47548,47571,47595,47595,47598,47626,47647,47647,47667,47676,47676,47714,47743,47743,47766,47809,47809,47839,47839,47890,47937,47958,47958,47979,47980,48004,48027,48046,48047,48059,48060,48097,48369,48390" d="M309.5,231.16667C309.5,232.992 309.50006,234 309.5,234.828C309.49991,235.70967 309.52344,236.44127 309.44284,237.27567C309.32724,238.47253 309.1521,239.07375 308.88934,240.00267C308.70514,240.65387 308.40677,241.69023 308.19101,242.42383C307.96576,243.18971 307.73831,243.99541 307.16666,245.16667C306.76913,245.98114 306.26205,246.73601 306.02084,247.10417C305.35895,248.11438 304.84576,248.89461 304.5,249.6875C304.2338,250.298 303.64984,251.50446 303.4375,251.87733C302.98584,252.67052 302.51947,253.46815 301.83334,254.5C301.47885,255.03313 300.88696,255.76157 300.17883,256.48801C299.68646,256.9931 299.02933,257.65976 298.55066,258.54132C298.13065,259.31485 297.64618,259.99918 297.14816,260.51401C296.39655,261.29099 295.55545,261.63611 294.85718,262.21933C294.2662,262.71292 293.98444,263.67181 293.29868,264.36801C292.74704,264.92801 292.01599,265.65067 291.5,266.16666C290.98401,266.68268 290.1062,267.30988 289.66666,268.16666C289.30682,268.86804 289.18533,269.84225 288.7955,270.51401C288.25259,271.44955 287.74396,271.92047 287.01468,272.65201C286.47998,273.18832 285.8924,273.76178 285.10132,274.56668C284.51614,275.16208 283.93576,275.73181 283.38666,276.56534C282.90103,277.30255 282.65945,278.15491 282.44733,278.91934C282.1925,279.83759 281.79156,280.55664 281.58401,281.56534C281.42822,282.32257 281.15561,283.24673 280.784,283.96533C280.36795,284.7699 279.92624,285.64587 279.5,286.16666C278.8241,286.99252 278.51068,287.75583 278.5,288.66666C278.48947,289.56662 278.5,290.47116 278.5,291.48801C278.5,292.16666 278.5,293.14532 278.5,294.05066C278.5,294.992 278.5,295.68268 278.5,296.64584C278.5,297.57733 278.5,298.48801 278.5,299.34134C278.5,300.28265 278.5,301.05066 278.5,301.992C278.5,303 278.5,303.75601 278.5,304.66666C278.5,305.57733 278.5,306.48801 278.5,307.34134C278.5,308.28134 278.33383,309.20242 278.58533,309.96667C278.88812,310.88681 279.44702,311.64792 279.48932,312.34134C279.55438,313.40765 279.80887,314.21774 280.14734,314.92383C280.55496,315.77417 280.49933,316.68268 280.5,317.64584C280.50058,318.47116 280.44208,319.49228 280.52084,320.16666C280.63675,321.15875 281.14734,321.86218 281.5,322.66666C281.85266,323.47116 282.39545,324.32483 282.47916,325.16666C282.56165,325.99615 282.55716,326.86218 283,327.66666L283.44284,328.46667L283.5,329.36667" id="svg_11" stroke-width="3" stroke="#000" fill="none"/>
  <path t="49962,50089,50108,50130,50131,50131,50139,50140,50158,50158,50184,50184,50210,50210,50210,50236,50236,50236,50236,50242,50242,50242,50259,50259,50284,50307,50307,50327,50327,50327,50353,50381,50382,50406,50406,50406,50426,50426,50456,50478,50498,50498,50525,50525,50525,50545,50545,50545,50553,50576,50576,50600,50600,50624,50624,50624,50624,50643,50643,50649,50650,50676,50676,50697,50697,50700,50708,50731,50731,50756,50756,50778,50778,50801,50802,50802,50842,50842,50842,50858,50881,50908,50929,50949,50949,50973,50974,50995,50995,51020,51023,51023,51042,51043,51043,51075,51075,51096,51116,51116,51116,51145,51146,51146,51146,51146,51169,51169,51169,51170,51191,51192,51192,51225,51226,51226,51247,51247,51247,51248,51273,51273,51300,51300,51300,51329,51329,51329,51369,51369,51393,51401,51817,51865,51865" d="M174.5,214.16667C174.5,216.756 174.5,217.588 174.5,218.5C174.5,219.41733 174.5,220.16133 174.5,221.19734C174.5,222.04933 174.5,223.00267 174.5,223.76801C174.5,224.77116 174.5,225.62384 174.5,226.58833C174.5,227.41333 174.5,228.01334 174.5,229.33333C174.5,230.04933 174.5,230.78134 174.5,231.50534C174.5,232.83333 174.5,233.65233 174.5,234.34534C174.5,235.3665 174.5,236.33067 174.5,237.28134C174.5,238.16667 174.5,238.981 174.5,239.93466C174.5,240.66667 174.5,241.39867 174.5,242.50534C174.5,243.48817 174.5,244.1875 174.5,245.16667C174.5,245.96667 174.5,246.76666 174.5,247.76216C174.5,248.68134 174.5,249.64583 174.5,250.57733C174.5,251.48817 174.5,252.1875 174.5,253.16667C174.5,253.97734 174.5,254.85201 174.5,255.84933C174.5,256.64584 174.5,257.39734 174.5,258.49466C174.5,259.47568 174.5,260.13733 174.5,261.181C174.5,261.98801 174.5,263.16666 174.5,263.76532C174.5,264.64584 174.5,265.48132 174.5,266.48132C174.5,267.35599 174.5,268.36652 174.5,269.14584C174.5,270.14532 174.5,270.91934 174.5,271.81934C174.5,272.68268 174.5,273.64584 174.5,274.56668C174.5,275.47568 174.5,276.13733 174.5,277.172C174.5,277.91602 174.50015,279.02399 174.5,279.81732C174.49983,280.7095 174.50409,281.6958 174.38567,282.21851C174.14754,283.26959 173.46201,284.09741 173.06799,284.67999C172.51634,285.49567 172.5,286.46667 172.5,287.36667C172.5,288.26666 172.59262,289.17941 172.44284,289.92383C172.25571,290.85388 171.78815,291.56757 171.40016,292.36667C171.01347,293.16312 170.66866,294.16702 170.51466,294.97733C170.39174,295.62415 170.08804,296.60489 169.63867,297.38135C169.17905,298.17551 168.48425,298.99564 168.04167,299.625C167.5397,300.33884 167.36807,301.34903 167.04266,302.02399C166.71529,302.70303 166.16968,303.50208 165.73199,304.13599C165.25261,304.83029 164.73198,305.54001 164.26801,306.284C163.61633,307.32898 163.29784,308.00269 163.04167,308.64584C162.67906,309.55627 162.42189,310.47449 162.08934,311.35599C161.76419,312.21786 161.35399,313.01453 160.84734,313.71399C160.34538,314.40698 159.65318,315.32617 159.384,315.84933C158.97945,316.63559 158.69214,317.46045 158.01601,318.19867C157.38974,318.88245 156.62393,319.47592 156.25717,320.17651C155.86324,320.92902 155.51805,322.00797 155.2,322.70499C154.91592,323.32751 154.2137,324.22379 153.85716,324.86218C153.38489,325.70782 153.47917,326.66666 153.14284,327.46667L152.5,328.16666L151.89999,328.73068" id="svg_12" stroke-width="3" stroke="#000" fill="none"/>
  <path t="52442,52889,52889,52908,52909,52909,52932,52932,52932,52932,52956,52956,52956,52956,52985,52985,53025,53025,53065,53089,53090,53093,53153,53209,53209,53236,53257,53276,53277,53305,53325,53326,53330,53330,53355,53355,53377,53409,53417,53418,53444,53465,53491,53524,53524,53529,53557,53557,53580,53580,53612,53613,53613,53638,53639,53639,53639,53639,53659,53659,53659,53681,53706,53706,53729,53729,53730,53739,53740,53740,53740,53766,53766,53792,53813,53813,53818,53818,53818,53818,53938,53938,53938,53938,53959,53959,53959,53960,53960,53960,53960,54002,54002,54002,54005,54005,54005,54025,54025,54025,54063,54064,54064,54064,54064,54067,54067,54067,54068,54092,54093,54131,54132,54132,54160,54160,54161,54161,54161,54175,54176,54176,54195,54195,54195,54199,54199,54249,54249,54273,54273,54276,54297,54319,54321,54321,54343,54381,54381,54381,54393,54393,54394,54394,54421,54421,54421,54444,54444,54445,54445,54468,54468,54490,54490,54490,54512,54512,54534,54534,54558,54558,54581,54581,54590,54611,54617,54618,54642,54642,54649,54649,54650,54675,54676,54699,54700,54700,54725,54725,54729,54730,54761,54761,54801,54856,54856,54860,54861,54890,54923,54923,54946,54977,54977,54987,54987,55006,55029,55029,55035,55060,55060,55083,55109,55142,55178,55178,55178,55209,55209,55242,55242,55266,55267,55301,55304,55328,55328,55329,55331,55332,55332,55355,55355,55376,55376,55398,55404,55404,55405,55428,55429,55429,55463,55463,55490,55490,55497,55498,55498,55527,55528,55528,55528,55533,55533,55533,55533,55564,55564,55565,55565,55565,55565,55601,55601,55601,55604,55604,55605,55605,55809,55809,55810,55810,55810" d="M168.5,289.16666C166.84283,288.45233 166.2867,287.948 165.5,287.16666C164.89796,286.56873 164.30002,285.96667 163.5,285.16666C162.89549,284.56216 162.47919,284.14584 161.81467,283.48132C161.07884,282.74551 160.55183,282.21851 160.02083,281.6875C159.26933,280.936 158.64261,280.31006 157.92134,279.58801C157.30099,278.96701 156.65623,278.3985 156.51067,277.53067C156.34247,276.52789 156.54474,275.77643 156.07466,274.80267C155.69887,274.02423 155.29239,273.19254 154.92534,272.56668C154.47284,271.79514 154.03807,270.93027 153.66667,270.16666C153.3,269.41275 152.85199,268.69684 152.58533,267.68268C152.40868,267.0108 152.6021,265.88025 152.32933,265.28265C151.94052,264.43088 151.02628,263.91699 150.67067,263.052C150.29045,262.12711 150.66815,261.13022 150.41467,260.36667C150.15833,259.59448 149.52859,258.86804 149.5,257.96667C149.47145,257.06696 149.5,256.28134 149.5,255.34134C149.5,254.33333 149.5,253.54134 149.5,252.68001C149.5,251.92 149.5,250.745 149.5,249.92C149.5,249.32001 149.5,248 149.5,247.28267C149.5,246.54134 149.5,245.79201 149.5,245.05067C149.5,243.65466 149.5,243.024 149.5,242.1855C149.5,241.13733 149.5,240.16667 149.5,239.35234C149.5,238.39467 149.49997,237.60417 149.5,237.0005C149.50009,235.64566 149.48935,234.9225 149.52083,234.20833C149.56438,233.22018 149.80461,232.23241 150.14734,231.48016C150.52289,230.65587 150.78691,229.68068 151.11067,228.92C151.50191,228.00081 151.7926,227.20915 152.02083,226.66667C152.36742,225.8429 152.99321,224.84937 153.336,224.33867C153.71956,223.76721 154.14766,223.07469 154.70016,221.63834C154.92,221.06683 155.10555,220.442 155.31067,219.79333C155.5219,219.12534 155.94579,217.76434 156.18533,217.10001C156.64497,215.82529 156.89615,215.24005 157.44817,214.20433C157.70325,213.72574 158.23743,212.88051 158.73067,212.14267C159.35542,211.20811 159.73711,210.69113 160.07866,209.88C160.57712,208.69626 160.6991,207.91409 160.91066,207.09067C161.01967,206.66637 161.17589,205.79262 161.66667,204.66667C162.08543,203.70598 162.50815,203.23547 163.01601,202.57066C163.62453,201.77409 164.08945,200.96672 164.5,200.16667C164.92145,199.3454 165.2998,198.64294 165.83333,197.83333C166.25661,197.19101 166.75223,196.51712 167.24933,195.81734C167.73351,195.13574 168.35909,194.21086 168.83867,193.43867C169.24982,192.77669 169.81615,191.96228 170.32533,191.36667C170.84212,190.76216 171.48769,189.97266 171.97917,189.1875C172.50999,188.33951 173.02176,187.70798 173.69867,186.96667C174.23228,186.38229 174.30403,185.53702 174.54167,184.64583C174.77235,183.78075 175.54634,183.20216 175.93201,182.65067C176.58313,181.71959 176.92706,180.8311 177.38266,180.32001C177.94678,179.68716 178.66859,179.00191 179.18266,178.48267C179.71666,177.9433 180.52301,177.14644 181.16667,176.33333C181.71454,175.64124 182.10529,174.9528 182.5,174C182.82198,173.22275 182.98834,172.66229 183.3,171.85066C183.68565,170.84637 184.09569,169.97519 184.5,169.16667C184.89578,168.37521 185.27579,167.63487 185.8,166.91934C186.27843,166.26631 186.93301,165.34821 187.14284,164.76216C187.49036,163.79149 187.32965,162.92169 187.85716,161.92383C188.18968,161.29482 189.06108,160.70927 189.44733,159.86667C189.79973,159.09792 190.22725,158.48827 190.91066,157.74533C191.40216,157.21101 191.98468,156.39914 192.5,155.66667C192.84779,155.17232 193.65732,154.16518 194.08934,153.51601C194.6588,152.66034 194.8812,151.90814 195.2,151.172C195.5778,150.29962 196.16504,149.58636 196.416,148.68266C196.64987,147.84045 196.82747,146.89873 197.30133,146.368C197.96065,145.62955 198.80112,145.03357 199.14284,144.4095C199.59711,143.5799 199.44545,142.57878 199.936,141.80267C200.46558,140.96486 200.85986,140.42557 201.52083,139.6875C202.07736,139.06604 202.9095,139.19748 203.89867,139.16533C204.84398,139.13461 205.89413,138.92453 206.33333,138.16667C206.75368,137.44131 206.9836,136.52919 207.98399,136.252C208.65347,136.0665 209.75475,136.3089 210.59984,136.1665C211.45442,136.02251 211.99538,135.30414 212.79733,135.192C213.55298,135.08635 214.58669,134.97043 215.45833,134.66667C216.34251,134.35854 217.12529,134.17201 217.98534,134.16667C218.90448,134.16096 219.90404,134.20616 220.73599,134.13066C221.67195,134.04573 222.45004,133.80406 223.27467,133.592C224.33012,133.32057 225.04944,133.26338 225.89549,133.114C226.9093,132.93498 227.44412,132.55644 228.4785,132.28816C229.28087,132.08006 230.17868,132.1597 231.04283,131.94533C231.76776,131.76549 232.54045,131.46118 233.57866,131.28816C234.49287,131.1358 235.18401,131.16734 236.44817,131.16667C237.23866,131.16626 238.1705,131.22832 239,131.14583C239.84184,131.0621 240.76848,130.72772 241.32133,130.592C242.49326,130.30429 243.40392,130.21191 244.02083,130.1875C244.98477,130.14935 246.02167,130.16667 246.76167,130.16667C247.54167,130.16667 248.36166,130.16667 249.66667,130.16667C250.588,130.16667 251.06616,130.16667 252.0625,130.16667C252.58267,130.16667 253.672,130.16667 254.83333,130.16667C255.4425,130.16667 256.70084,130.16667 257.34,130.16667C257.97916,130.16667 258.61334,130.16667 259.84668,130.16667C261,130.16667 262.04132,130.16667 262.97067,130.16667L263.79599,130.16667L264.52533,130.16667" id="svg_13" stroke-width="3" stroke="#000" fill="none"/>
  <path t="58837,59057,59088,59089,59097,59119,59146,59146,59172,59172,59216,59217,59344,59560,59561,59569,59594,59594,59611,59632,59664,59896,59897" d="M439.5,125.16667C439.5,123.4095 439.5,122.514 439.5,121.65067C439.5,120.6875 439.5,119.86217 439.5,118.84534C439.5,118.16667 439.608,117.17121 439.41467,116.28267C439.24164,115.48745 438.8092,114.64256 438.52533,113.80267C438.23978,112.95776 437.69867,112.36667 437,111.66667C436.30133,110.96667 435.66449,110.3984 435.51068,109.56667C435.34692,108.68114 435.14282,107.86667 434.5,107.16667L433.89999,106.60267" id="svg_14" stroke-width="3" stroke="#000" fill="none"/>
  <path t="61898,62152,62221,62243,62243,62263,62263,62263,62302,62302,62322,62345,62348,62377,62377,62409,62409,62441,62467,62467,62496,62521,62522,62552,62552,62587,62587,62606,62606,62634,62662,62662,62704,62744,62744" d="M438.5,101.16667C438.5,102.96667 438.48129,103.8029 438.50134,104.65334C438.51929,105.41392 438.69415,106.59574 438.936,107.38133C439.17749,108.16567 439.64334,108.99747 440.064,109.74533C440.51187,110.54156 440.5,111.46667 440.5,112.368C440.5,113.33334 440.34174,114.03315 440.66666,115C440.94034,115.81432 441.48199,116.5768 441.5,117.488C441.5134,118.16654 441.5,119.28133 441.5,120.16667C441.5,120.92384 441.44717,121.8301 441.55716,122.57117C441.70688,123.57984 442.18817,124.29748 442.41467,125.28267C442.58777,126.03561 442.5,126.992 442.5,128C442.5,128.756 442.5,129.6875 442.50134,130.65067L442.53601,131.34134" id="svg_15" stroke-width="3" stroke="#000" fill="none"/>
  <path t="64090,64544,64566,64593,64664,64688,64697,64697,64776,64849,64907,64931,64931,64952,64987,65019,65040,65040,65096,65097,65097,65177,65177,65298,65344,65344,65464,65464,65504,65513,65584,65584,65624,65664,65688,65688,65697,65726,65726,65749,65769,65818,66552,66561,66561,66592,66592,66618,66637,66688,67472,67472,67536,67584,67584,67640,68112,68112,68130,68152,68177,68177,68177,68177,68206,68206,68206,68206,68240,68240,68240,68520,68520,68529,68529,68548,68548,68576,68576,68576,68600,68600,68624,68650,68673,68676,68701,68701,68707,68882,68984,68984,69015,69018,69018,69040,69043,69320,69320,69346,69347,69368,69433,69472,69472,69528,69528,69528,69550,69550,69550,69576,69576,69808,69944,69992,69992,70015,70015,70037,70037,70060,70060,70085,70085,70152,70152,70304,70335,70368,70376,70399,70399,70456,70456,70488,70488,70655,70684,70705,70705,70732,70732,70829,70829,71199,71199,71319,71399,71399,71690,71728,71729,71751,71751,71791,71847,71881,71900,71922,71967,71968,71996" d="M435.5,102.16667C433.79999,103.21934 433.05432,103.70875 432.55267,104.46217C432.09375,105.15143 431.14337,105.03011 430.29999,105.45067C429.63837,105.78059 428.79999,106.21934 428,106.66667C427.20001,107.114 426.45544,107.47771 425.70001,107.88267C424.94403,108.28791 424.00058,108.5375 423.58401,109.36667C423.15729,110.21606 422.84708,110.82174 421.95734,111.26667C421.26959,111.6106 420.45117,111.76736 419.47067,112.36667C418.76303,112.79919 418.04053,113.38844 417.66666,114.33334C417.41959,114.95773 417.51715,116.00017 417.5,116.86217C417.48199,117.7672 417.05579,118.55898 416.40018,119.26667C415.85022,119.86031 415.51044,120.6665 415.5,121.57733C415.48959,122.48794 415.5,123.34133 415.5,124.28133C415.5,125.16667 415.51801,125.96685 415.5,126.86667C415.48199,127.76721 414.88187,128.47699 414.58533,129.36667C414.29941,130.22447 414.5,131.052 414.5,131.992C414.5,132.68266 414.6673,133.77539 414.47916,134.66667C414.30029,135.51408 413.7226,136.30473 413.41599,136.96667C413.01343,137.83574 412.29999,138.36668 411.70001,138.96667C411,139.66669 410.28122,140.17743 409.85718,140.86667C409.35184,141.68806 409.52554,142.60458 409.33334,143.66667C409.23227,144.22508 408.98004,145.21538 408.73834,145.923C408.36639,147.01186 408.02197,147.68243 407.68533,148.32001C407.21628,149.20842 406.68713,150.2336 406.57199,150.93066C406.43552,151.75702 406.5,152.76666 406.5,153.56667C406.5,154.56667 406.5,155.36667 406.5,156.36667C406.5,157.16667 406.5,158.16667 406.5,158.96667C406.5,159.76666 406.5,160.76216 406.5,161.50951C406.5,162.53067 406.5,163.46667 406.5,164.36667C406.5,165.26666 406.5,166.16667 406.5,166.96667C406.5,167.86667 406.5,168.6875 406.5,169.65067C406.5,170.51401 406.32669,171.47549 406.7215,172.26666C407.06543,172.95587 407.93158,173.54034 408.41733,174.36667C408.8743,175.14401 409.55313,175.61765 410.33334,176.16667C410.98792,176.62729 411.38055,177.4729 411.50134,178.36667C411.61075,179.17621 412.15091,179.79854 412.82132,180.48833C413.32855,181.01022 413.91077,181.58949 414.47849,182.58783C414.91458,183.35471 415.12366,184.19414 415.60001,185.02367C416.0372,185.78502 416.76678,187.24126 417.43832,186.74783C418.17691,186.20512 417.02075,185.14133 416.5,184.33333C416.05524,183.64325 415.57108,182.85039 415.51068,181.992C415.44452,181.05159 415.5,180.19734 415.5,179.39867C415.5,178.41733 415.1311,177.40163 415.53601,176.62401C415.92435,175.87823 417.09811,175.83813 417.41467,174.96667C417.72336,174.11696 417.33984,173.12437 417.61432,172.4095C417.9989,171.40787 418.80405,171.08832 419.25699,170.18817C419.64114,169.42471 419.5,168.46667 419.5,167.53067C419.5,166.68134 419.5,165.95599 419.5,164.96667C419.5,164.16667 419.5,163.16667 419.5,162.1875C419.5,161.33333 419.50073,160.47116 419.5,159.53067C419.49933,158.68266 419.55087,157.77612 419.14734,156.92383C418.76355,156.11324 418.50226,155.40952 418.5,154.51401C418.49783,153.65067 418.5,152.6875 418.5,151.76666C418.5,150.86667 418.5,149.96667 418.5,149.06667L418.5,148.16667L418.5,147.36667L418.5,146.46667" id="svg_16" stroke-width="3" stroke="#000" fill="none"/>
  <path t="78482,78601,78629,78663,78664,78664,78695,78695,78718,78718,78718,78745,78746,78746,78746,78777,78778,78778,78848,78848,79224,79256,79256,79277,79335,79356,79362,79362,79399,79447,79503,79503,79544,79564,79599,79600,79631,79632,79695,79704,79704,79745,79746,79793,79871,79871,80103,80103,80151,80210,80210,80227,80463,80495,80523,80547,80585,80585,80593,80593,80695,80761,80761,80792,80879,80880,81079" d="M424.5,149.16667C424.5,150.96667 424.5,151.83867 424.5,152.70934C424.5,153.41733 424.45215,154.40009 424.50449,155.36133C424.54678,156.13774 424.8623,157.18298 425,157.72917C425.23233,158.6507 425.37885,159.68784 425.45184,160.41484C425.56134,161.50534 425.57831,162.22922 425.94266,163.12367C426.27173,163.93152 426.92603,164.49812 427.33066,165.56534C427.60971,166.30136 427.59729,167.77405 428.5,167.83333C429.24295,167.88211 429.48734,166.66682 429.5,165.76666C429.51266,164.86674 429.76785,163.95119 430.30133,163.36667C430.95819,162.64697 431.26373,161.89961 431.7215,161.06667C432.09247,160.39165 433.06805,159.86221 433.37851,159.06667C433.70865,158.22064 433.54626,157.36208 434.06934,156.68401C434.61899,155.97148 435.70145,155.7067 436.33334,155C436.84152,154.43167 436.80365,153.48428 437.30133,152.65067C437.75317,151.89384 438.53256,151.19609 439,150.64583C439.64734,149.88377 440.12161,148.87967 440.47916,149.22917C441.13437,149.86964 440.5,150.96533 440.5,151.86667C440.5,152.76666 440.50223,153.66667 440.5,154.56667C440.49774,155.47118 440.33334,156.33333 440,157.16667C439.66666,158 439.58752,158.82387 439.064,159.56667C438.50815,160.35529 437.79999,160.86667 437.2045,161.46667L436.62134,162.26666L436.41599,162.96667L435.88934,163.76666" id="svg_17" stroke-width="3" stroke="#000" fill="none"/>
  <path t="81675,81955,81961,82000,82035,82035,82176,82176,82248,82248,82279,82312,82313,82455,82455,82455,82487,82487,82544,82563,82563,82599,82688" d="M419.5,163.16667C423.4375,164.64583 424.02795,165.06071 424.91068,165.17734C425.83731,165.29977 426.46451,165.77588 427.47867,166.04517C428.23523,166.24605 429.15268,166.16667 430.01599,166.16667C430.97916,166.16667 431.94443,166.1433 432.556,166.33734C433.57813,166.66165 434.17123,167.02786 435.142,167.46133C435.99591,167.84264 436.79468,168.26205 437.79999,168.16217C438.62466,168.08023 439.21466,167.36534 439.48932,166.56667L439.52084,165.66667" id="svg_18" stroke-width="3" stroke="#000" fill="none"/>
  <path t="84697,84791,84827,84827,84848,84871,84871,84871,84871,84871,84893,84893,84915,84942,84942,84981,84981,84982,85039,85040" d="M436.5,130.16667C437.49866,131.05333 437.51373,131.99214 437.5,132.68266C437.47916,133.7298 437.17517,134.8364 436.93066,135.50267C436.64847,136.27167 436.32224,137.06865 436.14816,137.45599C435.54752,138.79259 434.95804,139.33131 434.62149,140.26666C434.314,141.1212 434.42526,142.00018 434.05716,142.70934C433.67825,143.43929 433.14816,144.16133 432.52151,145.02367L432.02084,145.625" id="svg_19" stroke-width="3" stroke="#000" fill="none"/>
  <path t="85928,86087,86111,86144,86145,86407,86430,86431,86462,86494,86543,86543,86572,86592,86613,86643,86664,86696,86767,86793,86793,86841,86863,86903,86923,86945,86976,86976,87003,87009,87041,87041,87095,87130,87160,87191,87214,87215,87241,87241,87273,87277,87277,87289,87310,87332,87332,87342,87342,87364,87365,87365,87378,87378,87378,87411,87463,87463,87563,87631,87631,87663,87711,87711,87744,87744,87776,87777,87824,87844,87844,87844,88023,88043,88043,88068,88068,88099,88099,88099,88099" d="M442.5,131.16667C444.21466,131.33734 444.44012,132.18915 444.50015,133.14517C444.55182,133.96812 445.12921,134.63835 445.37851,135.48801C445.62079,136.31369 445.5,137.28134 445.5,138.26666C445.5,139.16667 445.5,139.96667 445.5,140.86667C445.5,141.76666 445.5,142.66667 445.5,143.56667C445.5,144.46667 445.5,145.36667 445.5,146.26666C445.5,147.16667 445.51874,147.96687 445.5,148.86667C445.48199,149.73123 444.64572,150.21063 444.50134,150.968C444.32236,151.90692 444.5,152.81934 444.5,153.51401C444.5,154.53067 444.63657,155.52332 444.216,156.36667C443.88608,157.02832 443.86523,157.96442 443.46399,158.73067C443.06686,159.48901 442.54147,160.05469 442.48932,161.00267C442.44708,161.77048 442.25455,162.82587 441.7955,163.45233C441.23184,164.22157 440.54669,164.73297 440.50449,165.51849C440.45016,166.52922 440.67062,167.42719 440.2785,168.26683C439.93347,169.00568 439.2869,169.64494 438.89999,170.37733C438.38217,171.35753 438.13171,171.99339 437.61465,172.76666C437.05984,173.59641 436.50388,174.1496 435.98401,174.68134C435.26697,175.41473 434.76605,176.20491 434.41599,176.96667C434.07144,177.7164 433.18747,178.2851 432.78534,178.96667C432.33215,179.7348 432.22824,180.65826 431.88934,181.37733C431.41888,182.37553 430.95831,183.12251 430.66666,184C430.42065,184.74017 430.06076,185.58447 429.33334,186.33333C428.85666,186.82407 428.10956,187.45241 427.66934,188.28134C427.22519,189.11766 426.89642,189.86086 426.01199,190.08133C425.23755,190.27438 424.16666,190.16667 423.53067,190.16533L422.47916,190.14583L421.74817,190.1095" id="svg_20" stroke-width="3" stroke="#000" fill="none"/>
  <path t="88809,88975,89024,89024,89024,89053,89053,89076,89100,89100,89151,89151,89191,89191,89210,89230,89251,89251,89302,89342,89343,89398,89398,89427,89472,89472,89489,89489,89489,89510,89510,89542,89542,89565,89565,89590,89590,89624,89656,89766,89798,89798,89799,89825,89825,89877,89877,90055,90055,90110,90119,90158,90191,90208,90229,90251,90252,90276,90276,90276,90276,90277,90289,90289,90289,90308,90308,90308,90478,90510,90542,90542,90542,90545,90545,90545,90545,90545,90567,90568,90593,90593,90593,90594,90599,90599,90599,90599,90599,90625,90625,90718,90718,90738,90738,90763,90764,90785,90786,90814,90814,90841,90848,90848,90876,90919,90919" d="M402.5,152.16667C403.47916,153.20833 403.53186,154.16772 403.48932,154.96667C403.44659,155.769 403.12543,156.75389 402.85266,157.50951C402.53104,158.4005 402.55038,159.37677 402.41467,160.13733C402.27036,160.94626 401.88254,161.905 401.66666,162.83333C401.48431,163.6174 401.59546,164.61121 401.216,165.36667C400.78043,166.23389 400.21301,166.65451 399.62134,167.38817C399.10025,168.03429 398.83755,168.769 398.30133,169.65067C397.89532,170.31824 397.71683,171.33026 397.33334,172.16667C396.99765,172.89882 396.3938,173.70674 396.10001,174.41733C395.79349,175.15868 395.41217,176.03203 394.89999,176.78134C394.4115,177.496 394.06506,178.20967 393.39999,179.14517C392.94263,179.78853 392.18866,180.2858 391.78534,180.96667C391.29538,181.79382 390.89264,182.61575 390.55267,183.47116C390.22412,184.2979 390.02393,184.98528 389.784,185.76801C389.48328,186.74907 389.49216,187.62009 388.93201,188.56534C388.56311,189.18785 387.70645,189.95662 387.54166,190.64583C387.32727,191.54233 387.24451,192.73706 387.936,193.13066C388.77438,193.60785 389.79999,193.16667 390.70001,193.16667C391.60083,193.16667 392.28,193.16667 393.33334,193.16667C394.12134,193.16667 395.03732,193.16667 395.52084,193.16667C396.49384,193.16667 397.83334,193.16667 398.55865,193.16667C399.41666,193.16667 400.5,193.16667 401.28934,193.16667C402.01468,193.16667 403.13043,193.12743 403.91068,193.60266C404.71622,194.09331 405.36356,194.57771 406.01883,194.981C406.84134,195.48721 407.46667,195.93332 408.14001,196.40666C408.81332,196.87999 409.39893,197.40312 410.63751,198.00417C411.2796,198.31575 412.27643,198.73357 412.79333,199.04933C413.397,199.41809 414.07028,199.85956 415.24234,200.58766C415.66425,200.84976 416.52625,201.37593 417.37732,201.86934C417.7789,202.10216 419.08539,202.89317 419.76666,203.05867C420.79688,203.30893 421.67609,203.21725 422.616,203.16533C423.38742,203.12271 424.20383,202.88295 424.84732,202.405C425.69333,201.77664 426.05667,200.97031 426.59982,200.18817C427.11285,199.44942 427.48956,198.646 427.5,197.68266C427.50748,196.99205 427.5,195.92383 427.5,195.0665L427.5,194.28134" id="svg_21" stroke-width="3" stroke="#000" fill="none"/>
  <path t="91880,91934,91958,91981,91982,91982,91985,91985,91986,91986,92017,92017,92017,92025,92025,92025,92040,92040,92062,92089,92089,92116,92116,92117,92140,92140,92140,92140,92151,92151,92162,92162,92181,92208,92229,92229,92302,92302,92334,92366,92366,92389,92390,92392,92413,92456,92456,92480,92481,92502,92502,92507,92507,92529,92535,92535,92535,92558,92558,92558,92579,92607,92632,92632,92633,92657,92658,92679,92679,92679,92712,92712,92750,92751,92772,92772,92793,92815,92816,92841,92863,92863,92889,92889,92910,92958,92989,92989,93010,93025,93025,93046,93073,93092,93112,93134,93159,93159,93167,93167,93192,93215,93215,93215,93216,93240,93240,93240,93240,93241,93247,93247,93288,93288,93289,93310,93341,93363,93363,93407,93407,93407,93415,93415,93446,93446,93474,93475,93497,93523,93549,93549,93559,93559,93758,93758,93767,93790,93790,93790,93793,93793,93796,93797,93797,93802,93803,93803,93825,93826,93829,93829,93832,93835,93864,93864,93893,93894,93894,93894,93894,93905,93905,93905,93927,93927,93958,93981,93981,94014,94014,94015,94015,94022,94022,94022,94022,94047,94047,94047,94078,94078,94078,94079,94101,94101,94129,94129,94130,94130,94163,94163,94163,94163,94192,94217,94217,94243,94243,94245,94245,94249,94249,94249,94275,94275,94298,94331,94331,94343,94343,94343,94343,94351,94351,94351,94375,94375,94399,94399,94424,94425,94425,94425,94447,94448,94479,94480,94506,94507,94530,94530,94558,94558,94589,94612,94612,94640,94687,94687,94708,94731,94731,94758,94797,94824" d="M386.5,186.16667C388.33334,186.33333 388.93008,186.89365 389.33334,187.66667C389.71844,188.40491 389.56207,189.34927 389.83334,190.33333C390.03326,191.05849 390.3493,191.77124 390.64932,192.46933C391.16431,193.66768 391.37808,194.30707 391.58267,195.13333C391.84192,196.18039 392.10126,196.95546 392.30133,197.48401C392.68094,198.48688 393.10031,199.30748 393.41599,200.28134C393.69971,201.15665 394.16614,201.81197 394.37866,202.70984C394.55042,203.4355 394.52805,204.33595 394.66666,205.33333C394.76636,206.05067 395.00281,207.12439 395.14734,207.79967C395.38312,208.90135 395.4549,209.62581 395.50134,210.64934C395.53802,211.45793 396.14517,211.96298 396.88934,212.60266C397.51495,213.14041 397.56058,214.06084 397.92532,214.992C398.19861,215.68973 398.44739,216.68269 398.72134,217.48801C399.0188,218.36238 399.23615,219.19473 399.58401,219.96533C399.96625,220.81209 400.98108,220.98373 401.70001,221.45334C402.4104,221.91736 402.8096,222.81877 403.20001,223.57117C403.60999,224.36131 404.09045,225.10826 404.37851,226.14517C404.57297,226.84514 404.47485,227.71866 404.7215,228.7095C404.90262,229.43713 405.1853,230.2261 405.59982,231.245C405.87662,231.92532 406.33475,232.65491 406.47916,233.64583C406.61505,234.57838 406.47675,235.50056 406.51068,236.41733C406.53827,237.16228 406.77994,238.20154 407.11066,238.81734C407.59201,239.71358 407.91632,240.40868 408.14282,241.16133C408.45187,242.1882 408.49774,242.97198 408.5,243.93466C408.50171,244.66667 408.5,245.83333 408.5,246.625C408.5,247.57733 408.5,248.48801 408.5,249.16667C408.5,250.28134 408.5,251.16667 408.5,251.92383C408.5,252.81934 408.5,253.68266 408.5,254.64583C408.5,255.57733 408.5,256.48801 408.5,257.16666C408.5,258.28134 408.5,259.16666 408.5,259.96667C408.5,260.86667 408.5,261.76666 408.5,262.66666C408.5,263.56668 408.5,264.47116 408.5,265.33334C408.5,266.16666 408.46762,267.14581 408.5,267.96533C408.53601,268.8768 408.82675,269.66953 409.20984,270.53818C409.51559,271.23151 409.88004,271.96912 410.33334,273.16666C410.63208,273.95584 410.75882,274.34756 411.05334,275.45868C411.22537,276.1076 411.42178,277.30875 411.55267,277.9675C411.74646,278.94287 412.02026,279.66098 412.216,280.39868C412.50479,281.48712 412.91998,282.28864 413.33334,283.16666C413.63104,283.79898 413.78748,284.93503 414,285.6875C414.14978,286.21783 414.44022,287.47797 414.47916,288.125C414.54047,289.14371 414.561,290.05957 414.85266,290.81934C415.18835,291.69382 415.34418,292.54361 415.50449,293.46667C415.66599,294.39642 416.27493,295.03674 416.44733,295.82382C416.6088,296.56107 416.34995,297.96014 417.14734,298.39517C417.45697,298.56409 417.5,297.39734 417.5,296.64584C417.5,295.84933 417.5,294.61932 417.5,293.94135C417.5,292.74533 417.5,291.94135 417.5,291.11932C417.5,290.08817 417.5,289.40268 417.5,288.56799C417.5,287.56668 417.5,286.76666 417.5,285.76801C417.5,285.00266 417.5,283.92383 417.5,283.06668C417.5,282.16666 417.5,281.42267 417.5,280.5C417.5,279.44699 417.5,278.625 417.5,278.19601C417.5,277.332 417.5,276.11002 417.5,275.06C417.5,274.45999 417.5,273.30966 417.5,272.47568C417.5,271.53067 417.56754,270.67029 417.42801,269.92001C417.25314,268.97974 416.78262,268.21094 416.5,267.625C416.04858,266.68912 415.71524,265.64987 415.61432,264.91849C415.51389,264.1908 415.50134,263.13599 415.5,262.20932C415.49887,261.41733 415.5,260.39868 415.5,259.52399C415.5,258.51599 415.5004,257.81732 415.5,257.13467C415.49933,255.936 415.54285,255.17793 415.33334,254C415.19037,253.19615 414.96735,252.63188 414.784,251.68001C414.58597,250.65187 414.54608,249.92348 414.52084,249.20833C414.48605,248.22176 414.5,247.03816 414.5,246.16667C414.5,245.45866 414.5,244.40233 414.5,243.79967C414.5,242.77066 414.5,242.048 414.5,240.98849C414.5,240.024 414.5,239.1855 414.5,238.13733C414.5,237.36934 414.5,236.4095 414.5,235.5005C414.5,234.884 414.5,233.83333 414.5,232.86133C414.5,232.16667 414.5,231.472 414.5,230.20967C414.5,229.43867 414.5,228.56934 414.5,227.56667C414.5,226.76666 414.46548,225.76184 414.53601,224.89467C414.62271,223.82884 414.77991,223.19913 414.92532,222.52667C415.1413,221.52785 415.42133,220.43568 415.47916,219.70833C415.56058,218.68436 415.5,217.95599 415.5,216.96667C415.5,216.16667 415.5,215.16667 415.5,214.37733C415.5,213.33333 415.5,212.57733 415.5,211.64583C415.5,210.68266 415.5,209.992 415.5,208.92383C415.5,208.0665 415.5,207.28134 415.5,206.34134C415.5,205.33333 415.5,204.57733 415.5,203.66667L415.5,202.76666L415.5,201.86217" id="svg_22" stroke-width="3" stroke="#000" fill="none"/>
  <path t="96225,96343,96353,96487,96513,96513,96513,96549,96549,96549,96549,96550,96550,96550,96550,96582,96583,96583,96607,96639,96703,96703,96806,96807,96942,96951,96970,96993,96994" d="M423.5,201.16667C423.5,202.96667 423.50113,203.86667 423.5,204.6875C423.49866,205.66133 423.47302,206.33517 423.38568,206.97133C423.19806,208.33801 423.05988,208.91634 422.93201,209.55333C422.65479,210.93445 422.50012,211.64586 422.35068,212.35333C422.20544,213.04086 422.0549,213.69072 421.74283,215.29466C421.604,216.00822 421.40894,216.95114 421,217.66667C420.54324,218.46585 420.33334,219.33333 420,220.16667C419.66666,221 419.50226,221.86215 419.5,222.76666C419.49777,223.66667 419.48932,224.56667 419.21466,225.37067L418.7955,226.03816" id="svg_23" stroke-width="3" stroke="#000" fill="none"/>
  <path t="97785,97894,97894,97942,97942,97952,97972,97994,97994,97994,98023,98023,98045,98045,98045,98045,98048,98048,98048,98071,98127,98158,98159,98206,98206,98238,98262,98294,98295,98326,98327,98352,98376,98376,98399,98399,98399,98424,98472,98472,98472,98472,98496,98496,98496,98552,98553,98553,98553,98553,98553,98553,98553,98553,98670,98670,98670,98670,98670,98670,98670,98704,98704,98704,98704,98704,98704,98704,98704,98705,98738,98738,98738,98738,98739,98739,98739,98739,98739,98765,98765,98790,98913,98913,98939,98939,99046,99046,99046,99150,99150,99169,99193,99193,99193,99221,99221,99221,99221,99243,99243,99245,99245,99245,99245,99245,99248,99249,99249,99272,99273,99273,99273,99297,99297,99329,99329,99329,99338,99342,99342,99361,99369,99392,99393,99393,99416,99419,99421,99422,99444,99445,99448,99448,99449,99474,99474,99497,99498,99524,99525,99525,99537,99537,99560,99560,99587,99587,99587,99614,99615,99615,99615,99615,99709,99710,99735,99739,99763,99770,99770,99836,99837,99837" d="M405.5,220.16667C406.5,221.16667 406.5,221.92383 406.5,222.81934C406.5,223.68266 406.57434,224.64961 406.48932,225.588C406.40582,226.50946 406.17505,227.18378 405.88934,227.916C405.44901,229.04446 404.92075,229.65689 404.66666,230.66667C404.53018,231.20905 404.51392,232.18736 404.50449,232.86583C404.487,234.1234 404.61163,234.9052 404.41467,235.67867C404.155,236.69843 403.58298,237.46872 403.49866,238.368C403.43433,239.05412 403.02863,239.97438 402.784,240.68266C402.45804,241.62643 402.56244,242.5974 402.27866,243.48801C402.05591,244.18703 401.71234,245.1736 401.44733,245.86217C401.11014,246.73828 400.67828,247.50183 400.43866,248.37733C400.21826,249.1826 399.68527,249.99498 399.14816,250.45233C398.32538,251.15292 397.64252,251.83005 397.55267,252.58183C397.48053,253.18549 397.53821,254.14909 397.20932,255.12134C396.97821,255.80449 396.35104,256.64151 395.83334,257.5C395.51056,258.03531 395.16162,258.64072 394.78482,259.297C394.3869,259.99002 393.97928,260.7084 393.56534,261.436C393.15363,262.15973 392.7565,262.86871 392,264.16666C391.35562,265.27225 391.04935,265.77078 390.76532,266.26801C390.17938,267.29379 389.87802,267.86505 389.56265,268.49734C388.81717,269.99203 388.41113,270.8996 387.96667,271.89066C387.4942,272.94418 387.01575,274.04355 386.54166,275.16666C386.06909,276.28622 385.61456,277.38327 385.20667,278.44266C384.48138,280.32629 384.21875,281.12671 384.01199,281.82535C383.83414,282.4263 383.70648,282.94751 383.625,283.39584C383.55591,283.77597 383.51999,284.10245 383.508,284.38135C383.48859,284.83301 383.58438,285.8158 383.064,286.56668C382.51434,287.35977 381.84845,287.76855 381.29999,288.65332C380.96759,289.18954 380.49252,290.33054 380.30133,290.84933C380.00934,291.64169 380.28381,293.6236 379.52084,293.58334C379.28024,293.57065 379.5,292.39465 379.5,291.60416C379.5,290.67868 379.48413,289.64438 379.51349,288.90051C379.54498,288.10327 379.61249,287.23282 380,285.83334C380.14267,285.31805 380.33539,284.79514 380.78665,283.74802C381.01196,283.22522 381.49014,282.23871 381.73334,281.79068C382.50244,280.37366 382.85803,279.92755 383.38266,279.11734C383.83841,278.41345 384.32336,277.48959 384.67465,276.84268C385.01407,276.21762 385.62671,275.22604 386.12534,274.49066C386.67865,273.67465 386.98523,273.11533 387.5,272.16666C387.84814,271.52512 388.33508,270.66779 388.85333,269.87466C389.38043,269.06799 389.82376,268.42944 390.5,267.83334C391.01935,267.37555 391.44968,266.46179 392.04266,265.74551C392.48987,265.20532 393.2478,264.42648 393.73199,263.936C394.52551,263.1322 395.14514,262.54813 395.37866,261.62399C395.55371,260.9313 395.3887,259.85443 395.86166,258.98099C396.24548,258.27216 397.21469,257.93341 397.84732,257.35233C398.55713,256.70035 398.89972,255.92055 399.13834,255.11484C399.43771,254.104 399.45853,253.41313 399.5,252.33333C399.53183,251.50517 399.70709,250.61891 399.94666,249.884C400.13525,249.3055 400.65833,247.99625 400.98401,247.28534C401.31689,246.55873 401.65845,245.85512 402.01599,245.22133C402.58777,244.20781 403.29535,243.52931 403.47916,242.66667C403.66678,241.78619 403.5,240.86217 403.5,240C403.5,239.14583 403.5,238.16667 403.5,237.34534L403.5,236.65233" id="svg_24" stroke-width="3" stroke="#000" fill="none"/>
  <path t="100257,100496,100504,100570,100570,100605,100605,100605,100605,100652,100652,100675,100677,100677,100680,100680,100808,100808,100808,100828,100828,100828,100828,100829,100829,100854,100855,100855,100855,100855,100855,100876,100876,100911,100911,100911,100938,100938,100943,100954,100954,101021,101024,101024,101102,101102,101102,101102,101123,101123,101123,101123,101123,101123,101123,101123,101212,101212,101212,101213,101213,101213,101218,101218,101218,101218,101218,101218,101218,101218,101238,101238,101238,101300,101300,101364,101364,101364,101430,101430,101559,101559,101559,101559,101614,101614,101678,101678" d="M403.5,219.16667C402.02084,220.66667 401.66675,221.51816 401.21335,222.37067C400.82867,223.09399 400.17072,223.92627 399.85184,224.52467C399.51215,225.16211 399.14001,225.78142 398.74283,226.9025C398.42886,227.78865 398.29187,228.71362 398.064,229.42799C397.81027,230.22337 397.44955,231.2695 397.10001,231.90933C396.57184,232.87619 395.91272,233.23441 395.52933,233.76134C394.87415,234.6618 394.49014,235.65581 394.24933,236.19734C393.99524,236.76872 393.73077,237.36176 393.26801,238.60533C392.81369,239.82619 392.6283,240.41878 392.31885,241.53433C392.17578,242.05014 391.94266,242.99844 391.78799,243.82266C391.56253,245.02417 391.5061,245.80331 391.27866,246.70934C391.09924,247.42395 390.77203,248.14381 390.58533,249.19734C390.43594,250.04033 390.5,250.992 390.5,252C390.5,252.756 390.52429,253.68669 390.14734,254.47566C389.82193,255.15678 389.55222,256.21027 389.4375,256.83334C389.29233,257.62189 389.20126,258.09503 388.6145,259.79468C388.37909,260.47656 388.08786,261.1839 387.78799,261.91867C387.48224,262.66791 387.16583,263.41489 386.85349,264.15067C386.55115,264.86288 385.99759,266.16568 385.76401,266.73849C385.35379,267.74445 385.00256,268.64688 384.82401,269.08267C384.45328,269.98752 384.00357,271.00165 383.73599,271.573C383.14978,272.82471 382.82602,273.47302 382.5,274.125C382.17798,274.76901 381.86383,275.39209 381.552,275.97601C380.77884,277.42392 380.42319,278.10684 379.81351,278.83517C379.14301,279.63617 378.59576,280.12354 378.01733,280.93466C377.50378,281.65479 377.12381,282.12082 376.668,283.20001C376.32831,284.00427 376.0675,284.93542 375.79016,285.52466C375.33163,286.49884 374.98267,287.11465 374.38535,288.11066L373.91068,288.73468L373.29999,289.36667L372.70001,289.96667" id="svg_25" stroke-width="3" stroke="#000" fill="none"/>
  <path t="105186,105330,105330,105335,105335,105370,105397,105397,105397,105406,105406,105406,105435,105435,105472,105472,105472,105472,105480,105512,105512,105541,105541,105573,105601,105602,105633,105633,105660,105660,105692,105725,105726,105738,105738,105738,105765,105792,105792,105830,105830,105830,105859,105859,105859,105879,105879,105879,105908,105909,105912,105913,105913,105944,105944,105944,105954,105954,105954,105990,105990,105994,105994,105994,106024,106025,106025,106058,106058,106059,106090,106090,106091,106122,106122,106122,106127,106128,106206,106206,106326,106326,106368,106401,106434,106434,106440,106440" d="M406.5,220.16667C406.5,222.00267 406.54532,222.76924 406.49551,223.75768C406.45313,224.59883 405.7261,225.34976 405.40018,226.05234C405.02747,226.85574 404.89319,227.52917 404.66666,228.83333C404.52591,229.64363 404.53299,230.53117 404.21466,231.28534C403.88113,232.07555 403.37997,232.9245 403.11066,233.84267C402.92175,234.48665 402.83252,235.12495 402.55267,236.29517C402.31787,237.27704 401.73679,237.8936 401.55716,238.81934C401.39236,239.66862 401.58612,240.57175 401.14734,241.47116C400.84695,242.08691 400.52094,243.00214 400.50134,243.76801C400.47592,244.76186 400.45691,245.69925 400.07468,246.54134C399.70645,247.35258 399.57199,248.20251 399.33334,249.16667C399.13379,249.97296 398.76791,250.67667 398.52533,251.54134C398.26105,252.48341 397.92929,253.16621 397.66666,254.16667C397.45724,254.96443 397.45551,255.64893 397.05734,256.58801C396.70541,257.41809 396.14352,258.18762 395.83334,259C395.49112,259.89627 395.47205,260.70392 395.064,261.56268C394.74075,262.24298 394.29718,263.21777 394.10001,263.84268C393.79565,264.80728 393.56396,265.70224 393.08932,266.48001C392.66864,267.16934 392.00455,267.92615 391.52084,268.66666C391.20129,269.15588 390.74039,270.23441 390.33749,270.97202C389.91,271.75467 389.21835,272.42212 388.73999,272.91602C387.84265,273.84244 387.2558,274.31729 386.80899,274.97202C386.33365,275.66858 386.10352,276.42935 385.79999,277.21851C385.40439,278.2471 385.11325,278.95425 384.61465,279.85068C384.19836,280.59912 383.68228,281.38651 383.32535,281.90533C382.68033,282.8429 381.9942,283.43405 381.66666,284.33334C381.37714,285.12823 381.68686,286.18698 381.41467,286.96533C381.14798,287.728 380.10001,288.14133 379.30133,288.45334L378.78534,289.05334L378.52533,289.992L378.41599,290.68268" id="svg_26" stroke-width="20" stroke="#fff" fill="none"/>
  <path t="111052,111303,111303,111341,111342,111369,111370,111370,111463,111463" d="M399.5,219.16667C398.5,220.16667 398.5174,220.938 398.85718,221.82834C399.0845,222.42398 399.60001,223.58783 399.79999,224.11484L400.10001,224.90533L400.59982,226.02383L400.97916,226.64583" id="svg_27" stroke-width="20" stroke="#fff" fill="none"/>
  <path t="113793,113943,113943,113969,113969,114006,114007,114007,114017,114055,114118,114148,114148,114174,114286,114286,114326,114351,114351,114375,114375,114438,114439,114465,114489,114489,114521,114521,114521,114527,114527,114527,114527,114552,114552,114586,114591,114592,114618,114654,114655,114685,114719,114748,114748,114772,114772,114804,114804,114804,114831,115048" d="M398.5,217.16667C399.20532,218.82384 399.89999,219.51865 400.25717,220.36667C400.57944,221.13181 400.64136,222.17542 400.92532,222.95599C401.19247,223.69032 401.48956,224.64565 401.5,225.56667C401.51019,226.46661 401.49612,227.36801 401.5,228.052C401.50534,228.99205 401.68655,229.98959 402.07468,230.756C402.48532,231.56688 402.45886,232.49062 402.52084,233.1875C402.60855,234.17358 402.76852,235.07732 403.5,235.83333C404.04114,236.39262 404.34058,237.06442 404.66666,238C404.92117,238.73029 405.5303,239.48763 405.7955,240.181C406.09933,240.97539 406.35193,242.16444 406.41467,242.76534C406.50638,243.64342 406.49933,244.48134 406.5,245.48C406.50058,246.32001 406.5,247.4095 406.5,248.26683C406.5,249.052 406.33176,250.03656 406.66666,251C406.90253,251.67856 408.07486,251.87524 408.46399,252.61333C408.87234,253.38786 408.5,254.37733 408.5,255.36667C408.5,256.16666 408.5,257.16666 408.5,257.95599L408.5,258.68134L408.5,259.75601L408.5,260.66666" id="svg_28" stroke-width="3" stroke="#000" fill="none"/>
  <path t="115609,115751,115791,115816,115816,115817,115886,115886,115914,115920,115920,115974,116023,116054,116087,116110,116137,116137,116143,116143,116184,116184,116209,116286,116287,116318,116319,116350,116376,116376,116404,116404,116404,116432,116437,116465,116465,116488,116519,116519,116519,116546,116546,116546,116572,116572,116576,116604,116604,116633,116633,116637,116637,116637,116663,116664,116696,116719,116756,116756,116781,116781,116822,116822,116822,117031,117031,117053,117053,117076,117103,117150,117150,117222,117222,117222,117248,117248,117307,117307,117307,117557,117598,117647,117679,117709,117712,117749,117789,117790" d="M398.5,221.16667C398.5,223.756 398.5,224.588 398.5,225.5C398.5,226.41733 398.5,227.16133 398.5,228.19734C398.5,229.04933 398.5,229.992 398.5,231C398.5,231.756 398.5,232.66667 398.5,233.56667C398.5,234.46667 398.58212,235.37044 398.49985,236.26666C398.41617,237.17812 397.85889,237.78192 397.39999,238.48801C396.9707,239.14853 396.33798,240.10257 395.936,240.756C395.45734,241.5341 395.59158,242.49684 395.46399,243.34134C395.31876,244.3026 394.81232,244.84694 394.47467,245.80267C394.17877,246.64018 393.89493,247.38013 393.39999,248.3665C393.10336,248.95769 392.69147,249.67548 392.11066,250.53067C391.61414,251.26173 391.66669,252.20262 391.41467,252.96667C391.14526,253.78346 390.48358,254.49297 390.20001,255.1765C389.88138,255.94453 389.53732,257.01733 389.1955,257.70499C388.78635,258.52811 387.99341,259.24991 387.36133,259.75601C386.64169,260.33224 386.59158,261.28232 386.41467,262.052C386.23102,262.85095 385.77518,263.59842 385.17868,264.36652C384.70297,264.97906 383.98434,265.68167 383.38535,266.28134C382.70172,266.96573 382.00458,267.50616 381.58401,268.36667C381.1666,269.22067 380.79337,269.90598 380.54816,270.82834C380.33862,271.61639 380.07971,272.59982 379.79016,273.11032C379.34827,273.88937 378.52332,274.51569 377.94666,275.20667C377.35828,275.91168 377.71765,276.71378 377.46399,277.75601C377.24905,278.63916 376.70609,279.34296 376.47916,280.1875C376.21243,281.18011 375.78247,281.75287 375.35068,282.33066C374.6492,283.26929 374.47363,283.98212 374.216,284.93466C374.01675,285.67139 373.68143,286.38043 373.53601,287.49466C373.41013,288.45917 373.5,289.36667 373.5,290.26666C373.5,291.16666 373.5,291.96667 373.5,292.80267L373.49866,293.64932L373.41467,294.59732" id="svg_29" stroke-width="3" stroke="#000" fill="none"/>
  <path t="118524,118934,118943,118943,118983,119016,119016,119016,119052,119052,119052,119052,119057,119058,119066,119090,119090,119135,119135,119173,119174,119174,119181,119181,119205,119206,119206,119215,119215,119254,119254,119254,119308,119308,119334,119334,119366,119366,119375,119399,119399,119429,119429,119454,119455,119470,119497,119524,119524,119553,119553,119586,119663,119685,119685,119714,119745,119769,119770,119802,119802,119831,119831,119857,119884,119884,119912,119913" d="M378.5,284.16666C379.07468,282.53067 379.24475,281.63538 379.55267,280.8765C379.87674,280.07779 380.87,279.77127 381.5,279.08334C381.8786,278.66995 382.4939,277.53015 382.74283,276.86584C382.9949,276.19318 383.22592,275.18765 383.69867,274.22266C384.01678,273.57333 384.37924,272.60059 384.86166,271.86218C385.28989,271.20673 386.0372,270.72717 386.63867,269.95599C387.22272,269.20718 387.37103,268.341 387.668,267.56668C387.98807,266.73212 388.51025,266.17731 389.33334,265.33334C389.86786,264.78528 390.4053,264.30316 391.14816,263.50949C391.65353,262.96954 392.19598,262.17642 392.44934,261.36667C392.69699,260.57516 393.18948,259.55353 393.68533,259.00266C394.30859,258.31024 394.97916,257.6875 395.60001,257.06668C396.20001,256.46667 396.90878,255.77533 397.5,255.16667C398.10919,254.53947 398.59415,253.84184 399,253.16667C399.59131,252.183 399.96542,251.51851 400.47467,250.77733C400.9386,250.10208 401.85501,249.85237 402.29999,249.28C402.98026,248.40498 403.15848,247.6322 403.5,246.6875C403.80374,245.84734 404.23688,245.12979 404.58401,244.36667C404.9726,243.51241 405.34512,242.70325 405.78665,241.96533C406.16208,241.33792 407.00272,240.70123 407.47916,240.16667C408.19797,239.36017 408.4819,238.55988 408.92532,237.76666C409.38416,236.94589 409.66934,236.28134 410.20532,235.50951L410.64932,234.95599" id="svg_30" stroke-width="3" stroke="#000" fill="none"/>
  <path t="122335,122461,122478,122502,122502,122502,122531,122531,122531,122605,122605,122628,122663,122670,122670,122712,122789,123045,123054,123055,123080,123080" d="M417.5,134.16667C417.55716,135.86667 418.00864,136.71223 418.8215,137.26683C419.49567,137.72679 420.12183,138.02557 420.89999,138.65067C421.51697,139.14627 422.05792,139.74455 423.09549,140.405C423.6438,140.754 424.61188,141.12396 425.60001,141.16667C426.49915,141.20554 427.33441,140.9707 428.20001,141.22383C429.07764,141.48047 429.8045,142.1095 430.66666,142.16667L431.5,142.16667L432.47882,142.16667L433.30984,142.16667" id="svg_31" stroke-width="3" stroke="#000" fill="none"/>
  <path t="125058,125095,125119,125147,125148,125148,125148,125151,125151,125151,125158,125177,125201,125201,125229,125229,125469,125469,125494,125513,125532,125532,125532,125560,125997" d="M440.5,129.16667C440.5,131.756 440.44489,132.61784 440.83334,133.5C441.14606,134.21017 441.68814,134.97069 441.93201,135.56934C442.40698,136.73532 442.45871,137.34377 442.49734,138.396C442.53226,139.34723 442.96121,139.92473 443.69867,140.45334C444.34186,140.91438 444.42618,142.01118 444.58401,142.76801C444.79364,143.77306 445.03458,144.71078 445.89999,145.09467C446.73013,145.46289 447.66666,145.5 448.31467,146.028L448.79016,146.51849L449.39017,147.405L449.85718,148.1095" id="svg_32" stroke-width="3" stroke="#000" fill="none"/>
  <path t="129240,129285,129326,129326,129326,129347,129366,129375,129375,129395,129405,129429,129458,129479,129479,129494,129511,129533,129559,129559,129575,129601,129661,129661,129710,129710,129729,129752,129753,129777,129791,129791,129807,129807,129807,129827,129861,129892,129893,129920,130005" d="M423.5,111.16667C423.46399,112.83867 423.28043,113.70985 423,114.66667C422.78534,115.39906 422.61203,116.35744 422.49985,117.26667C422.38776,118.17506 421.69983,118.81928 421.52084,119.66667C421.33481,120.54747 421.52023,121.47787 421.07468,122.152C420.58374,122.89478 420.50067,123.684 420.5,124.64584C420.49942,125.46667 420.66275,126.42354 420.27866,127.26667C419.92331,128.04668 419.50598,128.76662 419.5,129.6875C419.49374,130.65065 419.6041,131.39 419.216,132.28134C418.89307,133.02309 418.53387,133.92461 418.49551,134.81934C418.46567,135.51537 417.95444,136.46904 417.62134,137.267C417.33823,137.94518 417.216,138.93466 417,139.66667C416.784,140.39867 416.63611,141.54231 416.216,142.36667C415.77536,143.23132 415.44733,143.86667 415,144.66667L414.55267,145.46667" id="svg_33" stroke-width="3" stroke="#000" fill="none"/>
  <path t="136730,136973,136973,136990,136990,137015,137045,137045,137125,137156,137157,137191,137277,137277,137286,137308,137308,137334,137334,137334,137361,137361,137361,137362,137376,137376,137376,137465,137465,137515,137515,137515,137725,137725,137725,137901,137989,138007,138007" d="M394.5,186.16667C396.50534,185.814 397.23697,185.54329 398.16666,185.33333C399.06918,185.1295 400.02084,185.16667 400.98401,185.16667C401.67465,185.16667 402.61465,185.16667 403.60016,185.16667C404.38535,185.16667 405.32535,185.16667 406.33334,185.16667C407.08932,185.16667 408.02115,185.1443 408.98532,185.168C409.71127,185.18584 410.70444,185.37671 411.32132,185.60266C412.0192,185.85829 413.13971,186.27739 413.80984,186.46217C414.51776,186.65738 415.61322,186.9108 416.67816,187.04517C417.33179,187.12764 418.21884,187.10777 419.35718,187.16701C420.117,187.20654 420.99652,187.72488 421.52084,188.20833C422.11432,188.75555 422.88568,189.57777 423.47916,190.125C424.00348,190.60844 424.97916,191.14583 425.79999,191.52383L426.5,192.16667L427,192.66667" id="svg_34" stroke-width="3" stroke="#000" fill="none"/>
  <path t="143525,143780,143780,143841,143843,143845,143845,143845,143846,143846,143872,143873,143894,143894,143895,143895,143964,143987,143987,143989,144020,144041,144041,144041,144045,144045,144045,144065,144066,144089,144089,144110,144110,144131,144153,144154,144180,144180,144260,144260,144260,144283,144283,144305,144310,144620,144620,144649,144649,144649,144670,144788,144788,144796,144796,144948,144972,145143,145144,145172,145172,145213,145276,145276,145302,145336,145337,145391,145428,145428,145532,145572,145572,145580,145628,145628,145654,145686,145708,145708,145729,145730,145753,145753,145764,145786,145790,145860,145860,145964,146020,146020,146049,146054,146054,146276,146276,146291,146291,146309,146329,146329,146330,146396,146396,146396,146436,146588,146724,146764,146828,146828" d="M436.5,53.16667C433.71066,53.16667 432.98532,53.16667 432.08267,53.16667C431.27466,53.16667 430.29333,53.16667 429.43668,53.16667C428.5,53.16667 428.02667,53.16667 427.12,53.16667C425.72266,53.16667 425.04166,53.16667 424,53.16667C423.142,53.16667 422.5,53.16667 421.552,53.16667C420.37149,53.16667 419.46176,53.34021 418.70001,53.08133C417.81207,52.77957 417.07242,52.21964 416.16666,52C415.48483,51.83466 414.72537,51.54393 413.66666,51.33334C412.74341,51.14969 412.08047,51.20031 411.10132,50.88134C410.31061,50.62375 409.53305,50.05115 408.87466,49.56667C408.03183,48.94645 407.32208,48.60931 406.668,47.968C406.01538,47.32815 405.29514,47.35727 404.25266,47.15317C403.58408,47.02227 402.84232,46.10791 402.5,45.64584C401.97632,44.93897 401.33508,43.88954 400.70132,43.45467C399.93185,42.92667 399.64804,42.2728 399.33334,41.33334C399.09067,40.60885 398.62106,39.83868 398.53601,38.916C398.46768,38.17448 398.5,37.13733 398.5,36.16667C398.5,35.4095 398.49066,34.51395 398.5,33.65067C398.51044,32.68733 398.82217,31.83283 399.5,31.16667C400.10626,30.57084 400.9812,30.21818 401.67465,30.17733C402.74103,30.11452 403.60016,30.16667 404.38535,30.16667C405.32535,30.16667 406.33334,30.16667 407.08932,30.16667C408.02084,30.16667 408.98401,30.16667 409.67465,30.16667C410.74283,30.16667 411.60016,30.16221 412.38535,30.16667C413.32538,30.172 414.33752,30.32535 414.97916,30.66667C415.80099,31.10384 416.31509,31.69366 416.86166,32.46667C417.28021,33.05864 418.16666,33.44334 418.84732,33.86667C419.76266,34.43595 420.22122,35.05709 421,35.64584C421.73758,36.20344 422.76932,35.97779 423.60001,36.38817C424.29059,36.72932 424.80722,37.7277 425.60016,38.04517C426.33759,38.34042 427.32639,38.12099 428.33334,38.16667C429.12778,38.20271 429.86563,38.56251 430.47916,39.1875C431.22476,39.94703 431.48273,40.76255 432.14667,41.228C432.9501,41.79124 433.52518,42.20389 434.10132,42.76933C434.90475,43.55785 435.4361,44.17902 436.01468,44.596C436.90073,45.23456 437.48932,45.77734 437.5,46.66667L437.5,47.57734L437.49985,48.488L437.47916,49.16667" id="svg_35" stroke-width="3" stroke="#000" fill="none"/>
 </g>
</svg>