<svg width="500" height="333.3333333333333" xmlns="http://www.w3.org/2000/svg" xmlns:svg="http://www.w3.org/2000/svg" xmlns:xlink="http://www.w3.org/1999/xlink">
 <!-- Created with SVG-edit - http://svg-edit.googlecode.com/ -->
 <g display="inline" class="layer">
  <title>Layer 1</title>
  <path t="0,210,222,251,271,287,319,319,355,414,490,589,634,657,697,721,739,765,765,789,813,863,871,1196,1204,1224,1241,1282,1306,1322,1368,1388,1404,1493,1529,1624,1624,1641,1641,1656,1656,1672,1688,1704,1720,1761,1773,1789,1805,1825,1847,1873,1873,1893,1921,1942,1969,1989,2005,2021,2039,2057,2073,2089,2089,2089,2113,2121,2152,2177,2209,2229,2277,2277,2313,2361,2389,2421,2437,2437,2457,2485,2505,2521,2565,2641,2641,2666,2686,2722,2754,2770,2770,2786,2806,2822,2839,2854,2878,2886,2922,3203,3219,3240,3255,3271,3287,3307,3319,3375,3411,3441,3454,3471,3487,3507,3527,3527,3547,3641,3654,3655,3766,3824,3836,3872,3872,4245,4264,4288,4288,4304,4304,4320,4320,4320,4336,4336,4355,4372,4388,4416,4416,4436,4455,4455,4469,4469,4485,4504,4528,4528,4557,4557,4569,4622,4622,4634,4634,4634,4638,4638,4655,4656,4669,4689,4705,4705,4721,4737,4737,4756,4769,4789,4789,4817,4837,4856,4857,5323,5339,5355,5369,5385,5405,5421,5437,5454,5454,5474,5498,5522,5538,5538,5554,5554,5569,5569,5622,5638,5638,5638,5655,5655,5670,5670,5686,5686,5686,5686,5702,5702,5702,5702,5702,5722,5722,5738,5738,5738,5754,5770,5821,5837,6088,6104,6104,6120,6120,6136,6136,6136,6136,6136,6154,6154,6154,6155,6155,6155,6170,6170,6170,6170,6170,6186,6186,6186,6186,6202,6202,6202,6202,6218,6222,6222,6238,6238,6255,6255,6267,6271,6287,6303,6303,6319,6335,6335,6355,6355,6371,6371,6371,6387,6403,6403,6403,6419,6419,6419,6435,6455,6456,6470,6470,6486,6506,6506,6518,6534,6555,6570,6814,6814,6834,6834,6853,6853,6853,6853,6868,6868,6868,6868,6868,6872,6888,6888,6888,6888,6888,6904,6904,6904,6904,6904,6920,6920,6920,6944,6944,6944,6968,6984,7004,7024,7024,7036,7036,7054,7068,7068,7088,7104,7104,7116,7120,7136,7136,7153,7169,7185,7201,7201,7221,7237,7237,7253,7254,7270,7270,7286,7302,7302,7326,7355,7394,7464,7486,7502,7502,7518,7518,7534,7534,7553,7553,7566,7566,7566,7634,7634,7634,7655,7656,7657,7657,7657,7670,7670,7670,7686,7686,7702,7718,7734,7755,7756,7771,7771,7787,7787,7807,7823,7835,7852,7871,8093,8117,8117,8134,8134,8134,8134,8134,8149,8149,8149,8149,8149,8167,8167,8167,8171,8183,8183,8183,8203,8227,8227,8251,8251,8272,8272,8284,8284,8304,8304,8320,8344,8353,8353,8372,8384,8400,8416,8416,8420,8436,8453,8453,8472,8484,8520,8536,8552,8621,8657,8657,8658,8692,8696,8720,8736,8752,8972,8984,9000,9020,9036,9036,9036,9052,9052,9069,9069,9069,9070,9086,9086,9086,9086,9086,9102,9102,9102,9118,9118,9134,9134,9134,9156,9156,9169,9170,9187,9199,9199,9218,9218,9234,9234,9250,9250,9269,9270,9287,9287,9287,9303,9303,9319,9319,9335,9335,9335,9356,9356,9368,9369,9387,9411,9435,9451,9679,9703,9715,9735,9735,9735,9751,9770,9771,9771,9787,9787,9799,9799,9819,9835,9851,9870,9887,9899,9915,9935,9935,9957,9968,9983,9983,10003,10023,10023,10023,10023,10031,10031,10035,10051,10070,10071,10083,10083,10099,10099,10119,10147,10169,10414,10414,10434,10450,10470,10484,10484,10484,10500,10500,10500,10520,10520,10520,10536,10559,10559,10619,10619,10631,10635,10651,10655,10681,10701,10717,10733,10757,10757,10787,10814,10834,10851,10871,10883,10899,10899,10919,10935,10951,10972,10983,10983,11103,11119,11139,11177,11201,11217,11233,11261,11302,11302,11322,11358,11389,11389,11397,11417,11445,11467,11540" d="M221.5,115.66666C221.33333,117.5 220.89099,118.17385 220.14284,118.6095C219.41388,119.03397 218.71442,119.10862 218.21466,119.86533C217.81252,120.47425 216.79947,120.71837 216,121.16666C215.20396,121.61304 214.51552,122.08318 214,122.66666C213.43643,123.30454 212.82751,123.94846 212.27867,124.54533C211.69012,125.18538 211.1326,125.81467 210.784,126.46667C210.33092,127.31406 210.01743,128.17673 209.55267,128.96217C209.1618,129.62277 208.79214,130.24139 208.48933,131.056C208.21667,131.78951 207.51479,132.27739 207.5,133.16667C207.48372,134.14592 206.72522,134.60327 206.5045,135.37117C206.25713,136.23183 206.40364,137.07292 205.85266,137.71933C205.33751,138.32373 204.61404,138.88655 204.416,139.63867C204.20694,140.43266 204.06093,141.2037 203.5,142.33333C203.15869,143.02068 202.64989,143.77095 202.5,144.66667C202.35974,145.50485 201.54272,145.94865 201.5,146.76666C201.45306,147.66545 201.01736,148.27417 200.58533,148.952C200.09219,149.72565 200.05804,150.45224 199.30133,150.952C198.69241,151.35414 198.44829,152.3672 198,153.16667C197.55363,153.96271 197.0835,154.65115 196.5,155.16667C195.86214,155.73024 195.44467,156.36967 195,157.16667C194.55449,157.96518 194.59637,158.88992 194.33333,159.83333C194.14326,160.51497 193.65483,161.15784 193.51067,162.256C193.39212,163.15898 193.5,164.06667 193.5,164.96666C193.5,165.86667 193.5,166.76666 193.5,167.66667C193.5,168.46666 193.1451,169.45932 193.536,170.23067C193.88979,170.92879 194.6543,171.58293 195.5,171.66667C196.29611,171.7455 197.2,171.72383 198,172.16667C198.8,172.6095 199.7,172.66667 200.60001,172.66667C201.5,172.66667 202.3002,172.64793 203.2,172.66667C204.06456,172.68468 204.78697,173.15541 205.37866,173.88817C205.90015,174.53398 206.14462,175.36787 206.5,176.16667C206.85445,176.96338 207.72977,177.33762 208.37866,177.888C209.03989,178.44884 209.17244,179.16345 209.51067,180.056C209.78796,180.78777 210.48933,181.27733 210.5,182.16667C210.51067,183.056 211.12617,183.49498 211.7955,184.02383C212.53642,184.60925 212.17821,185.80457 212.66667,186.5C213.16899,187.21518 213.5,187.86667 213.5,188.76666C213.5,189.66667 213.91769,190.22107 214.37849,190.88817C214.88254,191.61786 214.5,192.66667 214.5,193.46666C214.5,194.36667 214.5,195.30267 214.5,196.15067C214.5,197.01401 214.5,197.9095 214.5,198.86667C214.5,199.76666 214.5,200.66667 214.5,201.46666C214.5,202.36667 214.5,203.30267 214.5,204.15199C214.5,205.07117 214.47189,206.06963 214.52083,206.6875C214.61203,207.83897 214.82306,208.6266 215.11067,209.40533C215.45932,210.34937 216.06555,210.90797 216.37849,211.76666C216.68947,212.61993 216.77344,213.43193 217.5,213.83333C218.27269,214.26021 218.79999,214.96667 219.5,215.66667C220.10001,216.26666 220.61913,216.97803 221.3,217.38133C222.12715,217.87128 222.99403,218.22591 223.66667,218.66667C224.47069,219.19353 225.35757,219.42195 226.08934,219.692C226.93739,220.00497 227.71992,220.54631 228.42867,220.83366C229.51083,221.27242 230.21098,221.72409 230.60133,221.94267C231.39932,222.3895 232.13322,222.88066 233.35867,223.412C234.04219,223.70836 234.84624,224.18845 235.60001,224.54533C236.45407,224.94971 237.06041,225.32028 237.8,225.96217C238.46669,226.54079 239.3,226.666 240.2,226.66667C241.136,226.66737 241.98399,226.66667 242.84734,226.66667C243.864,226.66667 244.75729,226.50296 245.60001,226.888C246.2693,227.1938 247.10001,227.65594 248,227.66667C248.88933,227.67728 249.37392,228.39226 250.11067,228.65601C250.94803,228.95576 251.9471,228.57266 252.8,229.01933C253.55223,229.41328 254.33455,229.47005 255.2,229.72383C256.07745,229.98112 256.80307,230.63806 257.66666,230.66667C258.49954,230.69426 259.47867,230.66667 260.25266,230.66667C261.15268,230.66667 262.01599,230.66667 263.02084,230.66667C263.83334,230.66667 264.76132,230.66667 265.55182,230.66667C266.57834,230.66667 267.45834,230.66667 268.33334,230.66667C269.19733,230.66667 270.26471,230.67635 270.87149,230.65767C271.56296,230.6364 272.32645,230.61354 273.5,230.33333C274.30841,230.1403 275.07925,229.81744 275.828,229.51733C276.52988,229.23602 277.74213,228.88422 278.67868,228.616C279.5137,228.37685 280.26886,227.7892 280.84283,227.37199C281.71375,226.73892 282.6044,226.75536 283.5,226.66667C284.3457,226.58293 284.78662,225.76474 285.70132,225.66533C286.38644,225.59087 287.35733,225.2038 288.07599,225.01933C288.98895,224.785 289.75693,224.74434 290.61865,224.692C291.5676,224.63435 292.07239,224.63577 293.66666,224.5C294.22171,224.45273 295.34415,224.31288 295.90399,224.23067C296.45883,224.14919 297.53708,223.98186 299,223.66667C299.43698,223.57253 300.23514,223.37416 301.30399,223.06667C301.9827,222.87141 303.01938,222.55936 303.75266,222.37117C304.49808,222.17987 305.2403,221.976 306.6785,221.78816C307.34033,221.70172 308.28928,221.673 308.89868,221.668C310.09863,221.65814 310.97916,221.66667 311.54285,221.66667C312.81332,221.66667 313.65332,221.66667 314.616,221.66667C315.384,221.66667 316.32535,221.66667 317.01599,221.66667C318,221.66667 318.98401,221.66667 319.84732,221.66667C320.74734,221.66667 321.66666,221.66667 322.5,221.66667C323.47882,221.66667 324.30984,221.66667 325.26801,221.66667C326,221.66667 326.73199,221.66667 327.84933,221.66667C328.83334,221.66667 329.50983,221.66667 330.28534,221.66667C331.33334,221.66667 332.25333,221.66667 333.01334,221.66667C334,221.66667 334.98532,221.66667 335.71066,221.66667C336.69983,221.66667 337.47916,221.66667 338.61465,221.66667C339.5,221.66667 340.29999,221.66667 341.20001,221.66667C342.10001,221.66667 343.02084,221.69244 343.8045,221.314C344.69336,220.88474 345.3255,220.70659 346.33334,220.66667C347.16147,220.63388 348.04269,220.44165 348.81467,220.23067C349.46454,220.05305 350.24042,219.84753 351.68533,219.56667C352.23471,219.45987 352.81055,219.36603 354,219.16667C354.5986,219.06635 355.19409,218.99162 356.83334,218.66667C357.76422,218.48213 358.5751,218.26743 359.32935,218.10266C360.06329,217.94234 361.24188,217.77654 362.10535,217.72383C362.55032,217.69667 363.44931,217.67314 364.332,217.668C365.55679,217.66086 366.28116,217.66667 367.24268,217.66667C368.33334,217.66667 369.03833,217.66667 369.83835,217.66667C370.86401,217.66667 371.79999,217.66667 372.70132,217.66667C373.66666,217.66667 374.32535,217.66667 375.33334,217.66667C376.1955,217.66667 377.13599,217.66667 377.98401,217.66667C378.84732,217.66667 379.74734,217.66667 380.66666,217.66667C381.52084,217.66667 382.5,217.66667 383.28934,217.66667C384.33334,217.66667 385.15659,217.98581 385.97916,217.64583C386.72177,217.3389 387.39786,216.82645 388.33334,216.5C389.01953,216.26054 389.9183,215.86911 390.60001,215.22383C391.1105,214.74063 391.4613,213.80093 392.10001,213.07733C392.66592,212.4362 393.0567,211.77921 393.60983,210.96666C394.08554,210.26787 395.16174,209.99072 395.45834,209.16667C395.76346,208.31894 395.5,207.36667 395.5,206.46666C395.5,205.56667 395.74487,204.57126 395.32935,203.86667C394.86459,203.07861 393.94077,202.92157 393.12534,202.256C392.58597,201.81575 391.84283,201.00951 391.28934,200.45599C390.5,199.66666 390.10132,199.26799 389.52084,198.6875C388.66666,197.83331 388.10089,197.26221 387.57584,196.79967C386.84372,196.15471 386.16452,195.61404 385.39868,194.99066C385.00027,194.66635 384.20474,194.03185 383.16666,193.16667C382.63828,192.7263 382.10611,192.20503 381.29999,191.468C380.71594,190.93402 379.88239,190.67479 379.10001,190.24133C378.27872,189.78632 377.31885,189.78529 376.5,189.625C375.63354,189.45538 375.2887,188.66954 374.5,188C373.89224,187.48407 372.97641,187.20625 372.2045,186.71933C371.50208,186.27623 370.92465,185.96043 370.11066,185.65601C369.35025,185.37163 368.94171,184.43939 368.20667,184.03067C367.18625,183.46326 366.53217,183.1768 365.828,182.84134C365.0816,182.48576 364.30591,182.12782 363.10001,181.688C362.7027,181.54309 361.89886,181.29562 361.10001,181.04134C360.29883,180.7863 359.09781,180.35158 358.30899,180.01849C357.53912,179.69341 356.8317,179.32767 355.83334,179C355.03085,178.73662 354.13892,178.69054 353.25266,178.314C352.29788,177.90834 351.67447,177.70758 350.66666,177.66667C349.87451,177.63452 348.99557,177.42152 348.32535,177.056C347.35095,176.52458 346.77838,175.90594 345.84732,175.72383C344.99829,175.55775 344.08572,175.77065 343.20001,175.314C342.44525,174.92487 341.66547,174.86328 340.79999,174.6095C339.92255,174.3522 339.17819,173.77869 338.33334,173.5C337.65753,173.27707 336.93826,172.9254 336.13599,172.26666C335.35107,171.62218 334.68198,171.22125 333.936,170.64133C333.31152,170.15584 332.66666,169.5 332.5,168.66667C332.33334,167.83333 331.67572,167.32965 331.16666,166.5C330.84512,165.97601 330.16214,165.30513 329.52151,164.68834C328.81949,164.01244 328.08975,163.59222 327.47467,163.092C326.8548,162.58789 326.00824,162.47787 325.41599,161.95067C324.81381,161.41463 323.86136,161.02267 323.17868,160.34534C322.6727,159.84331 322.17609,159.29509 321.38135,158.55067C320.81873,158.02367 320.00497,157.49112 319.133,157.00951C318.4621,156.63895 317.73587,156.276 316.66666,155.66667C315.98022,155.27548 315.33362,154.87035 314.71066,154.46666C314.09897,154.07027 313.20496,153.45993 312.32132,152.888C311.77481,152.53427 310.81665,152.03809 310.02084,151.66667C309.15848,151.26421 308.68512,150.77985 307.89868,150.14934C307.12137,149.52614 306.46811,149.26526 305.52167,148.56667C304.9086,148.11415 304.68295,147.18556 304.21335,146.46666C303.74933,145.75626 302.75864,145.47153 302.20984,144.9095C301.45676,144.13828 301.60556,143.24998 301.13834,142.41933C300.7338,141.7001 300.0369,141.15854 299.28934,140.492C298.522,139.80783 297.91034,139.40503 297.10001,138.97116C296.30984,138.5481 295.491,138.21449 294.66666,137.66667C293.97263,137.20544 293.34448,136.64742 292.664,136.26666C291.9104,135.845 290.89264,135.38817 290.336,135.06667C289.36316,134.50476 288.78857,134.05954 287.89999,133.64133C287.09494,133.26242 286.88242,132.20276 286.21466,131.752C285.45325,131.23802 284.19925,132.01218 283.62134,131.44501C282.91626,130.75302 283.04053,129.85474 282.784,129.15067C282.43137,128.18277 282.06302,127.34027 281.47916,126.64584C280.98758,126.06116 280.33133,125.29724 279.94666,124.50267C279.56445,123.71325 279.58368,122.71992 278.88934,122.10267C278.23141,121.51776 277.6716,121.04057 277.14282,120.37117C276.55753,119.63021 275.76096,119.22189 275.14282,118.71933C274.43823,118.14648 273.76761,117.7877 273,117.1875C272.34998,116.67925 271.4462,116.37244 270.70001,115.95067C269.99484,115.55207 269.15601,115.17923 268.49017,114.60416C267.97067,114.15548 267.48447,113.62212 266.42166,112.80967C265.76776,112.3098 264.94894,111.9201 264.25717,111.36667C263.45197,110.72248 263.01111,110.12149 262.17868,109.56667C261.52316,109.12975 260.69513,108.62568 260.02084,108.1875C259.23035,107.67381 258.29999,107.66666 257.39999,107.66666C256.5,107.66666 255.7,107.66666 254.8,107.66666C253.89999,107.66666 252.95833,107.66666 252.16667,107.66666C251.23866,107.66666 250.44817,107.66666 249.42134,107.66666C248.72533,107.66666 247.81599,107.66666 246.81734,107.66666C246.02083,107.66666 245.26933,107.66666 244.16133,107.66666C243.17867,107.66666 242.32533,107.66666 241.38266,107.66666C240.69017,107.66666 239.73199,107.66666 239,107.66666C237.83333,107.66666 237.04167,107.66666 236.10001,107.66666C235.2,107.66666 234.3,107.66666 233.39999,107.66666C232.5,107.66666 231.7,107.66666 230.8,107.66666C229.89999,107.66666 229.1008,107.77144 228.44733,108.314C227.85678,108.80432 227.0197,109.20846 226.3,109.86533C225.71548,110.39882 224.78575,110.24508 223.936,110.70267C223.20692,111.09528 223.09013,112.09243 222.39999,112.7665C221.82109,113.33193 220.8262,113.33353 220.02083,113.6875C219.30875,114.00047 218.797,114.722 218,115.16666C217.20149,115.61217 216.12044,115.41989 215.55267,116.02383C214.93153,116.68456 214.67258,117.31875 213.8,117.71933C213.07469,118.05231 212.29803,118.68809 211.85716,119.36667C211.34238,120.159 210.784,120.75066 210.50133,121.468L210.41467,122.38133L209.5,122.66666" id="svg_1" stroke-width="3" stroke="#000" fill="none"/>
  <path t="12571,12725,12725,12735,12773,12791,12792,12801,12817,12855,12867,12883,12899,12919,13014,13201,13217,13217,13233,13251,13251,13279,13299,13327,13355,13375,13375,13399,13415,13415,13451,13510,13539,13583,13599,13684,13684,13700,13700,13700,13739,13815,13844,13866,13882,13958,14035" d="M225.5,130.66667C224.5,130.66667 223.56961,130.27368 222.78534,130.752C221.98161,131.24217 221.5423,131.90164 220.8,132.314C219.9756,132.77197 219.29984,133.14178 218.66667,133.83333C218.11911,134.43138 217.5921,135.05173 217.07466,135.64133C216.51495,136.27908 215.23376,136.82425 215.66667,137.5C216.12509,138.21559 217.3,137.66667 218.25717,137.66667C219.15266,137.66667 220.01601,137.66667 220.97917,137.66667C221.8,137.66667 222.7,137.66667 223.60001,137.66667C224.5,137.66667 225.3,137.66908 226.25717,137.66667C227.15268,137.66441 228.04352,137.64319 228.864,137.24133C229.73393,136.81525 230.7739,137.1199 231.37849,136.44516C231.97032,135.78467 231.5,134.66667 231.5,133.85234C231.5,132.89867 231.5,132.16667 231.5,131.43466C231.5,130.33867 231.75357,129.09964 231.064,128.70267C230.31828,128.27338 229.52533,128.24133 228.88933,127.67733L228,127.66666" id="svg_2" stroke-width="3" stroke="#000" fill="none"/>
  <path t="15286,15409,15428,15438,15457,15476,15516,15534,15591,15591,15706,15730,15730,15909,15933,15984,15999,16039,16063,16086,16100,16116,16144,16164,16194,16194,16251,16290,16296,16328,16356,16376,16400,16478,16478,16528,16604,16604,16612,16685,16700,16700,16700" d="M268.5,129.66667C266.79999,129.66667 265.89999,129.66667 265,129.66667C264.10001,129.66667 263.20001,129.66667 262.29999,129.66667C261.39999,129.66667 260.49744,129.60278 259.70001,129.66667C258.65665,129.75026 258.4628,130.66754 258.5,131.46666C258.54272,132.38431 259.33582,132.47038 260.20001,132.72383C261.07742,132.98117 261.79861,133.63808 262.70001,133.66667C263.59955,133.69522 264.63791,133.34486 265.33334,133.83333C266.04852,134.33565 266.60001,134.66667 267.5,134.66667C268.29999,134.66667 269.20001,134.66667 270.10001,134.66667C271,134.66667 271.89999,134.66667 272.79999,134.66667C273.70001,134.66667 274.60001,134.66667 275.5,134.66667C276.29999,134.66667 277.40619,134.62019 277.5,133.66667C277.57877,132.866 276.97916,132.1875 276.19101,131.72383L275.16666,131.66667L274.49466,131.66667L273.75067,131.66667" id="svg_3" stroke-width="3" stroke="#000" fill="none"/>
  <path t="17454,17549,17568,17648,17666,17682,17698,17714,17768,17780,17816,17832,17848,17862,17882,17882,17902,17902,17969,18046,18084,18103,18141,18314,18330,18350,18362,18366,18383,18383,18400,18436,18448,18464,18481,18500,18512,18512,18544,18686,18707,18715,18731,18747,18763,18779,18811,18878,18944,18972,19003,19003,19011,19059,19145,19222,19250,19270,19270,19278,19308,19332,19348,19372,19400,19420,19432,19432,19448,19481,19528,19528,19596,19684,19696,19700,19712,19756" d="M238.5,136.66667C236.8,136.66667 235.89999,136.66667 235,136.66667C234.10001,136.66667 233.16135,136.39642 232.2045,136.67117C231.43655,136.89168 230.91945,137.35928 230.11067,137.67734C229.38492,137.96274 229.5,139.06667 229.5,139.96666C229.5,140.868 229.5,141.83333 229.5,142.66667C229.5,143.64517 229.5,144.36217 229.5,145.26666C229.5,146.16667 229.5,147.06667 229.5,147.96666C229.5,148.86667 229.10526,150.04959 229.78534,150.58133C230.50902,151.14716 231.60017,150.66667 232.38533,150.66667C233.32533,150.66667 234.01601,150.66667 235.08934,150.66667C236,150.66667 236.89999,150.66667 237.8,150.66667C238.7,150.66667 239.60001,150.66667 240.5,150.66667C241.3,150.66667 242.2,150.66667 243.10001,150.66667C244,150.66667 244.93483,150.90955 245.7955,150.66217C246.5634,150.44145 247.02065,149.67709 247.89999,149.66667C248.79994,149.65601 249.97911,149.99167 250.44284,149.30949C250.91782,148.61078 250.82613,147.63 251.216,146.86667C251.60054,146.11378 251.5,145.16667 251.5,144.26666C251.5,143.36667 251.68889,142.39735 251.2785,141.56667C250.93735,140.87608 250.19556,140.0986 249.39999,139.78816C248.55397,139.45802 247.89282,139.1835 247.21466,138.752C246.43962,138.25885 245.39999,138.66667 244.5,138.66667C243.7,138.66667 243.04852,138.33565 242.33333,137.83333C241.63789,137.34488 240.7,137.66667 239.8,137.66667C238.864,137.66667 238.01733,137.66533 237.20984,137.6095L236.45183,137.01933L235.69867,136.668" id="svg_4" stroke-width="3" stroke="#000" fill="none"/>
  <path t="20897,21101,21149,21209,21266,21278,21333,21392" d="M238.5,144.66667C236.8,144.66667 235.89999,144.66667 235,144.66667C234.10001,144.66667 233.11067,144.67734 232.52083,145.1875L232.5,146.06667" id="svg_5" stroke-width="3" stroke="#000" fill="none"/>
  <path t="22228,22498,22514,22564,22610,22707,22833,22918,22947,22996,23099,23146" d="M243.5,146.66667C243.5,144.96666 243.5,144.06667 243.5,143.16667C243.5,142.26666 243.25659,141.33531 243.5045,140.37117C243.68808,139.65723 244.7955,139.67117 245.464,140.10266L245.5,140.96666L245.5,141.86667" id="svg_6" stroke-width="3" stroke="#000" fill="none"/>
  <path t="26615,26764,26776,26805,26825,26853,26853,26877,26894,26909,26909,26941,26961,26977,26994,26995,27009,27025,27045,27061,27077,27096,27113,27125,27145,27161,27161,27177,27200,27217,27217,27237,27261,27277,27296,27309,27329,27353,27353,27377,27377,27398,27409,27429,27445,27465,27477,27496,27513,27513,27533,27541,27569,27609,27645,27897,27910,27926,27942,27958,27958,27978,27996,28010,28026,28026,28026,28042,28058,28074,28074,28110,28126,28142,28162,28178,28178,28196,28210,28238,28277,28295,28334,28382,28418,28442,28442,28478,28496,28511,28527,28527,28527,28543,28559,28575,28603,28627,28729,28729,28745,28745,28765,28765,28803,28839,28859,28879,28879,28900,28900,28900,28916,28944,28964,28984,29012,29032,29032,29060,29080,29116,29144,29160,29176,29195,29223,29223,29271,29291,29328,29364,29384,29412,29428,29460,29460,29502,29528,29607,29632,29695,29696" d="M267.5,172.66667C267.5,174.46666 267.50601,175.36668 267.5,176.26666C267.49466,177.06673 267.06036,177.92509 266.784,178.552C266.39487,179.43469 266.23068,180.34358 265.5,180.83333C264.80377,181.29997 264.51266,182.16652 264.5,183.06667C264.48734,183.96658 264.1326,184.81467 263.784,185.46666C263.33093,186.31406 263.03958,187.19028 262.55267,187.96217C262.10959,188.6646 261.55515,189.23859 260.88934,189.692C260.16171,190.18753 259.80191,191.04767 259.14282,191.614C258.45407,192.2058 257.75391,192.52858 257.10001,193.056C256.35449,193.65733 255.44916,193.96751 254.8,194.314C253.95062,194.76735 252.96521,194.61368 252.2,195.01933C251.3542,195.46771 250.89157,196.14871 250.21333,196.58133C249.46793,197.05679 248.5,196.66667 247.5215,196.66667C246.70134,196.66667 245.8,196.66667 244.89999,196.66667C244,196.66667 243.10001,196.66667 242.2,196.66667C241.3,196.66667 240.39999,196.66667 239.5,196.66667C238.7,196.66667 237.8,196.66667 236.89999,196.66667C236,196.66667 235.10001,196.66734 234.2,196.66667C233.30133,196.666 232.58864,196.28462 232.07466,195.692C231.55534,195.09323 231.71631,194.13834 231.44284,193.3765C231.14203,192.53851 230.53297,191.90704 230.05333,191.256C229.43408,190.41548 228.80479,190.05469 228.20984,189.31934C227.62016,188.5905 227.01859,187.91087 226.62134,187.224C226.18597,186.47124 225.87561,185.68652 225.47467,185.056C225.0023,184.31314 224.07576,183.95328 223.62134,183.224C223.16145,182.48596 222.72502,181.73956 222.5045,180.96217C222.26012,180.10065 222.5,179.16667 222.5,178.26666C222.5,177.36667 222.5,176.46666 222.5,175.56667C222.5,174.66667 222.48201,173.86649 222.5,172.96666C222.51801,172.06613 222.90402,171.21143 223.66667,170.66667C224.29375,170.21877 225.01001,169.85794 225.864,169.27733C226.59479,168.78047 227.10864,168.15884 227.85716,167.72383C228.58754,167.29936 229.60017,167.66667 230.38533,167.66667C231.336,167.66667 232.10133,167.66667 233.0955,167.66667C234.01466,167.66667 234.864,167.66667 235.8,167.66667C236.70134,167.66667 237.66667,167.66667 238.52083,167.66667C239.5,167.66667 240.28934,167.66667 241.01466,167.66667C241.97917,167.66667 242.89999,167.66667 243.8,167.66667C244.7,167.66667 245.60001,167.66667 246.5,167.66667C247.3,167.66667 248.2,167.66667 249.10001,167.66667C250,167.66667 250.89999,167.66667 251.8,167.66667C252.7,167.66667 253.60001,167.66667 254.5,167.66667C255.3,167.66667 256.20001,167.66667 257.10001,167.66667C258,167.66667 258.89999,167.66667 259.79999,167.66667C260.70001,167.66667 261.60001,167.66667 262.5,167.66667C263.29999,167.66667 264.20007,167.65627 265.10001,167.66667C266.00018,167.67709 266.7955,168.02383 267.37866,168.76683L267.58401,169.552" id="svg_8" stroke-width="3" stroke="#000" fill="none"/>
  <path t="31332,31504,31504,31527,31544,31564,31612,31612,31626,31626,31648,31712,31712,31726,31726,31744,31744,31772,31772,31792,31808,31826,31848,31848,31876,31892,31908,31928,31928,31944,32185,32185,32221,32243,32259,32275,32275,32291,32291,32307,32323,32343,32343,32359,32359,32375,32375,32395,32395,32415,32434,32435,32459,32475,32491,32507,32507,32523,32543,32559,32575,32591,32607,32634,32634,32651,32651,32759,32759,32775,32775,32775,32775,32775,32775,33016,33016,33016,33043,33059,33059,33075,33075,33075,33091,33091,33111,33123,33123,33142,33142,33159,33159,33175,33191,33207,33207,33223,33227,33243,33263,33271,33291,33311,33332,33343,33343,33360,33380,33396,33424,33460,33484,33512,33512,33524,33560,33588,33628,33644,33725,33725,33772,33772,33792,33808,33820,33820,33841,33841,33856,33876,33876,33892,33892,33912,33944,33944" d="M335.5,178.66667C334.5,178.66667 333.72015,178.78656 332.89999,179.24133C332.1178,179.67506 331.39142,180.11642 330.5,180.5C329.78873,180.80608 328.82678,180.54814 327.98401,180.752C327.09598,180.9668 326.29453,181.57027 325.52933,181.75067C324.73019,181.93909 323.90561,181.99464 323,182.66667C322.35178,183.14771 321.82001,184.02419 321.14816,184.30949C320.17075,184.72456 319.2962,184.58456 318.39999,184.66684C317.48856,184.75052 316.84738,185.46683 316,185.64583C315.1192,185.83188 314.10687,185.46458 313.30133,185.952C312.677,186.32977 312.46884,187.45816 311.79016,187.96217C311.20416,188.39737 310.13651,188.64867 309.20001,188.66667C308.30014,188.68398 307.39984,188.66222 306.61465,188.66667C305.67462,188.67201 304.9653,188.71103 304.02084,189.16667C303.17725,189.57365 302.31885,189.54803 301.5,189.70833C300.63354,189.87794 300.15399,190.79668 299.5,191.33333C298.84457,191.87115 297.85983,192.05078 297.15268,192.314C296.15167,192.68658 295.36163,193.05273 294.70001,193.38266C293.85663,193.80322 292.8324,193.58926 292.10001,194.10266C291.31006,194.6564 291.02029,195.46469 290.5,196.14583C290.01697,196.77818 288.96521,196.61368 288.20001,197.01933C287.35422,197.46771 286.7713,197.99806 286.16666,198.66667C285.59647,199.29718 284.68805,199.69695 284.02084,200.14583C283.31448,200.62105 282.49622,200.92137 281.66666,201.5C280.86179,202.0614 280.43616,202.42934 279.97333,202.79333C279.02563,203.53865 278.58926,203.93867 277.33334,204.83333C276.73846,205.2571 275.95456,205.63991 275.08932,205.66667C274.17892,205.69484 273.27161,205.62517 272.29999,205.88817C271.68497,206.05464 270.90479,206.47775 269.90451,206.96217C269.33865,207.23621 268.38812,207.62396 267.39984,207.66667C266.61539,207.70058 265.65521,207.61436 264.89868,207.752C263.88583,207.93628 263.18765,208.43204 262.25717,208.6095C261.31525,208.78914 260.39984,208.66667 259.61465,208.66667C258.67465,208.66667 257.98401,208.66667 256.91068,208.66667C256,208.66667 255.10001,208.66667 254.2,208.66667C253.3,208.66667 252.39999,208.66667 251.5,208.66667C250.7,208.66667 249.8,208.66667 248.89999,208.66667C248,208.66667 247.10001,208.666 246.2,208.66667C245.3,208.66734 244.54622,208.9088 243.8,209.314C243.03888,209.72729 242.10001,209.66667 241.2,209.66667C240.3,209.66667 239.39935,209.63277 238.5,209.66667C237.74121,209.69527 236.8611,210.05414 236.15266,210.314C235.15295,210.68069 234.1955,210.66667 233.33333,210.66667C232.5,210.66667 231.5215,210.66667 230.70134,210.66667C229.864,210.66667 228.84283,210.66667 228.0955,210.66667C227.10133,210.66667 226.336,210.66667 225.384,210.66667L224.33333,210.66667L223.67467,210.66667" id="svg_9" stroke-width="3" stroke="#000" fill="none"/>
  <path t="36727,36888,36904,36904,36904,36924,36924,36942,36942,36954,36978,36998,37019,37046,37054,37074,37125,37125,37141,37157,37181,37205,37221,37237,37265,37381,37381,37439,37456,37475,37495,37526,37554,37590,37631,37741,37741,37757,37757,37773,37793,37805,37831,37854,37854,37870,37906,37906,37937,37937,37954,37974,37994,38006,38023,38069,38105,38121,38142,38251,38642,38654,38670,38725,38725,38739,38739,38756,38776,38795,38803,38843,38843,38996,39020,39040,39072,39072" d="M271.5,152.66667C272.41599,152.95334 272.62521,153.85222 272.94666,154.50267C273.33777,155.2941 273.99139,156.058 274.47916,156.64583C275.17932,157.48964 275.41693,158.17709 275.85266,158.96666C276.31522,159.80486 276.5,160.66667 276.5,161.54533C276.5,162.37117 276.74203,163.11501 277.216,163.75067C277.78925,164.5195 277.5,165.46666 277.5,166.36667C277.5,167.26666 277.5,168.16667 277.5,169.06667C277.5,169.96666 277.5,170.86667 277.5,171.76666C277.5,172.66667 277.08279,173.61049 277.55716,174.30949C278.02036,174.99203 279.20001,174.66667 280.10001,174.66667C281,174.66667 281.89999,174.66667 282.79999,174.66667C283.70001,174.66667 284.61533,174.75697 285.38535,174.58133C286.17902,174.4003 287.08734,173.95546 287.73834,173.36667C288.41971,172.75043 288.85663,172.05432 289.41599,171.38133C289.97202,170.71233 290.37094,170.0813 291.10001,169.60533C291.89902,169.08369 292.12494,168.25986 292.70001,167.55333C293.23566,166.89526 294.33777,166.78995 294.97916,166.14583C295.61893,165.50334 295.34067,164.36879 295.85266,163.71933C296.33719,163.10472 296.30511,162.34499 296.50134,161.468C296.68192,160.66095 297.48956,160.14601 297.5,159.26666C297.51068,158.36673 297.5,157.46666 297.5,156.5665C297.5,155.78133 297.5,154.84134 297.5,154.15067C297.5,153.07733 297.44708,152.13193 297.85266,151.36667C298.30096,150.52077 298.5,149.66667 298.5,148.86667C298.5,147.96666 298.53601,147.06667 298.92532,146.256L299.33334,145.5L299.47916,144.66667" id="svg_10" stroke-width="3" stroke="#000" fill="none"/>
  <path t="43627,43787,43788,43788,43788,43804,43804,43804,43820,43820,43836,43852,43852,43868,43868,43887,43887,43919,43935,43955,43955,43984,44004,44020,44048,44068,44088,44108,44136,44164,44252,44451,44480,44508,44516,44516,44536,44552,44568,44589,44589,44589,44601,44621,44621,44690,44753,44769,44794,44822,44834,44850,44898,44918,44934,44950,44970,45015,45055,45083,45111,45135,45135,45155,45159,45167,45203,45223,45263,45300,45320,45340,45502,45539,45567,45596,45665,45693,45705,45788,45845,45845" d="M307.5,160.66667C307.216,162.37199 307.07404,163.22923 307,163.6875C306.85135,164.60762 306.67715,165.83479 306.55267,166.68533C306.42657,167.54695 306.09616,168.29953 305.784,169.18266C305.48615,170.02533 305.5,170.98817 305.5,171.6875C305.5,172.8665 305.54126,173.64682 305.5,174.5C305.45728,175.3831 304.56088,175.8819 304.5,176.76666C304.4382,177.66455 304.5,178.46666 304.5,179.36667C304.5,180.26666 304.50226,181.16667 304.5,182.06667C304.49774,182.96219 303.8295,183.47351 303.52084,184.1875C303.17188,184.99472 303.49991,185.96666 303.5,186.86667C303.50009,187.76649 303.78198,188.62395 304.60001,188.66667C305.49878,188.71362 306.29999,188.66667 307.20001,188.66667C308.10001,188.66667 309.04166,188.66667 310.04266,188.66667C310.75067,188.66667 311.49466,188.66667 312.68567,188.66667C313.5,188.66667 314.30042,188.69392 315.20001,188.66667C316.14413,188.63808 316.60046,187.87488 317,187.16667C317.49533,186.28867 318.00333,186.01094 318.88934,185.65601C319.61325,185.36601 319.25711,184.23183 319.50449,183.37117C319.72519,182.60327 320.48956,182.14601 320.5,181.26666C320.51068,180.36673 320.5,179.46666 320.5,178.56667C320.5,177.66667 320.43893,176.87198 319.79468,176.01401C319.38318,175.46602 318.97116,174.53468 318.33334,173.83333C317.74503,173.18642 316.87717,172.91682 316.52084,172.14583C316.15625,171.35693 315.91943,170.97408 315.11066,170.65601C314.38492,170.37059 314.5,169.26666 314.5,168.36667C314.5,167.46666 314.49985,166.56683 314.216,165.75067L313.55716,165.30499L313.49985,164.3455L313.46399,163.528" id="svg_11" stroke-width="3" stroke="#000" fill="none"/>
 </g>
</svg>