<svg width="281.75" height="420" xmlns="http://www.w3.org/2000/svg" xmlns:svg="http://www.w3.org/2000/svg" xmlns:xlink="http://www.w3.org/1999/xlink">
 <!-- Created with SVG-edit - http://svg-edit.googlecode.com/ -->
 <g display="inline" class="layer">
  <title>Layer 1</title>
  <path t="6773,7174,7174,7219,7235,7283,7315,7477,7613,7613,7613,7667,7717,7733,7733,7771,7779,7866,7979,7995,8043,8043,8083,8083,8135,8215,8231,8299,8367,8511,8511,8526,8587,8649,8649,8649,8715,8783,8783,8843,8901,8917,8917,8917,8939,8947,8963,8987,9051,9051,9132,9132,9148,9211,9268,9283" d="M77.875,230.5C77.875,229.5 77.7507,228.72256 77.30033,227.89999C76.87305,227.11961 76.87508,226.2 76.875,225.3C76.87492,224.39999 76.66331,223.52826 76.30033,222.89999C75.81177,222.05434 75.1002,221.56339 74.8795,220.7955C74.63213,219.93483 74.7309,219.13155 74.22767,218.44733C73.73768,217.78111 73.88092,216.79999 73.875,215.89999C73.86967,215.08929 73.64668,214.18149 73.375,213.5C72.98647,212.52544 72.87567,211.70134 72.875,210.8C72.87434,209.89999 72.875,209 72.875,208.10001C72.875,207.1955 72.74197,206.31889 72.89584,205.52083C73.07888,204.57144 74.075,204.5 74.975,204.5C75.875,204.5 76.675,204.5 77.575,204.5C78.475,204.5 79.39071,204.3429 80.275,204.51067C81.22092,204.69012 81.86239,205.41496 82.675,205.49867C83.57026,205.59088 84.52458,205.55293 84.92767,206.2045C85.40387,206.97426 86.1785,207.46062 87.04166,207.5C87.8744,207.53799 88.82455,207.77435 89.5705,208.14734C90.34887,208.53653 91.26434,208.51067 91.875,209L92.52233,209.55267" id="svg_2" stroke-width="3" stroke="#000" fill="none"/>
  <path t="14207,14547,14603,14650,14724,14756,14756,14812,14860,14868,14900,14924,15016,15084,15132,15164,15218,15218,15251,15283,15283,15291,15315,15339,15363,15395,15395,15403,15419,15443,15547,15563,15587,15611,15611,15619,15627,15643,15675,15707,15739,15763,15771,15771,15779,15795,15803,15835,15851,15899,15900,15931,15984,16019,16019,16051,16100,16182,16182,16182,16314,16385,16427,16443,16443,16531,16563,16648,16648,16794,16809,16835,16835,16891,16923,16947,16995,17035,17051,17117,17163,17179,17250,17311,17326,17355,17371,17411,17435,17483,17483,17599,17615,17651,17699,17766,17766,17819,17835,17915,17967,18043,18099,18100,18101,18155,18187,18187,18195,18227,18251,18300,18300,18300,18316,18363,18387,18387,18403,18435,18443,18459,18484,18566,18566,18581,18619,18635,18667,18683,18715,18769,19004,19059,19059,19195,19970,20064,20064,20091,20386,20386,20419,20419,20863,20878,20923" d="M77.875,231.5C77.875,229.8 77.87182,228.87971 78.30033,228.10001C78.75214,227.27792 79.36543,226.77806 80.16967,226.44733C80.92592,226.13634 81.52648,225.44989 81.92767,224.7955C82.40076,224.02382 83.32372,223.71472 83.84967,223.064C84.44248,222.33054 84.40703,221.30132 85.04166,220.66667C85.67632,220.03201 86.47765,219.89201 87.175,219.2C87.87769,218.5027 88.5275,218.02412 89.26434,217.52533C89.9314,217.07378 90.55048,216.58049 91.275,216.064C92.06055,215.504 92.66554,215.01036 93.35416,214.5C94.04898,213.98505 94.57957,213.5126 95.475,213.5C96.37515,213.48732 97.17875,213.1469 97.875,212.5C98.47826,211.9395 99.28526,211.42555 99.90033,210.92534C100.5202,210.42122 101.49461,210.50195 102.275,210.07466C103.09756,209.62428 103.97575,209.53665 104.875,209.5C105.57674,209.47139 106.32069,208.95793 106.82233,208.2045C107.28126,207.51524 108.30984,207.74287 109.1705,207.4955C109.93839,207.27478 110.39568,206.51262 111.275,206.5C112.17492,206.48709 113.1703,206.29587 113.58967,205.69867C114.12393,204.93785 114.77592,204.66837 115.70834,204.33333C116.51679,204.04283 117.27446,203.51801 118.175,203.5C119.07481,203.48201 119.975,203.5 120.875,203.5C121.675,203.5 122.63695,203.46381 123.375,204.02083C124.04064,204.52319 124.63609,205.14468 125.26434,205.89999C125.81045,206.55655 125.875,207.5 125.875,208.3C125.875,209.2 125.875,210.10001 125.875,211C125.875,211.89999 125.92688,212.83386 125.44967,213.47467C124.94195,214.15645 124.92413,215.06613 124.26434,215.52533C123.53802,216.03082 122.57771,216.26711 121.959,216.784C121.30205,217.33284 120.52489,217.42705 119.90033,217.92534C119.26928,218.42882 118.39822,218.8018 117.70033,219.07466C116.76936,219.43866 115.73691,219.17793 115.04166,219.66667C114.32576,220.16994 113.63634,220.60301 113.16033,221.30133C112.64955,222.05064 112.19752,222.6051 111.791,223.30133C111.30861,224.1275 110.79489,224.88992 109.875,225.33333C109.22773,225.64532 108.43715,225.74539 107.70834,226.33333C107.00977,226.89687 106.33734,227.26117 105.375,227.47917C104.497,227.67807 103.52493,227.36833 102.775,227.72133C101.99947,228.08636 101.25696,228.4911 100.475,228.92534C99.65453,229.38095 98.82417,229.80084 98.175,230.14734C97.32563,230.60069 96.375,230.5 95.475,230.5C94.575,230.5 93.62654,230.34647 92.875,230.66667C92.09381,230.99951 91.29173,231.12349 90.39584,231.52083C89.68479,231.83618 89.17051,232.49774 88.275,232.5C87.375,232.50226 86.43046,232.40454 85.675,232.784C84.8078,233.21957 84.075,233.49933 83.175,233.5C82.275,233.50067 81.17077,233.61522 80.88567,232.88933C80.56035,232.06104 80.3318,231.29669 79.9965,230.39999C79.67842,229.54936 79.875,228.7 79.875,227.8L79.875,226.89999L79.89584,226" id="svg_3" stroke-width="3" stroke="#000" fill="none"/>
  <path t="23493,23861,23965,24011,24012" d="M91.875,209.5C92.16033,208.58533 92.975,208.5 93.875,208.5L94.675,208.5" id="svg_4" stroke-width="3" stroke="#000" fill="none"/>
  <path t="27008,27292,27331,27331,27339,27400,27497,27599,27650,27650,27665,27665,27778,27866,27907,27963,27971,28049,28065,28065,28107,28116,28123,28526,28679,28859,28859,28931,29014,29163,29164,29279,29279,29366,29366,29682,29951,29951,30000,30182,30182,30280,30397,30412,30412,30499,30539,30539,30571,30633,30667,30675,30675,30699,30739,30739,30763,30832,30867,30867,30899,30923,30923,30983,30998,31050,31107,31107,31107,31147,31179,31187,31235,31243,31300,31347,31347,31379,31379,31387,31419,31419,31435,31515,31555,31555,31563,31611,31611,31666,31716,31716,31732,31732,31861,31931,31931,32093,32093,32179,32188,32235,32267,32283,32315,32397,32443,32443,32531,32599,32650,32693,32725,32755,32803,32827,32827,32851,32891,32923,32948,32987,33011,33019,33083,33083,33131,33155,33187,33218,33251,33267,33315,33316,33379,33387,33435,33499,33499,33514,33581,33597,33643,33668,33707,33767,33782,33827,33883,33898,33981,33997,34113,34214,34875,35215,35361,35496,35628,35628,35998,36066,36107,36155,36279,36614,36630,37028,37028,37163,37203,37203,37227,37243,37251,37267,37333,37348,38199,38215,38251,38364,38364,38419,38435,38475,38507,38555,38555,38611,38643,38659,38716,38716,38782,38819,38819,38866,38907,38915,38963,39003,39035,39067,39091,39261,39261,39277,39381,39433,39449,39859" d="M118.875,217.5C119.791,217.78534 120.18604,218.54456 120.591,219.3C120.99624,220.05597 121.27901,220.93895 122.07367,221.416C122.76595,221.83159 123.04166,222.66667 123.375,223.5C123.70834,224.33333 123.87275,225.19548 123.875,226C123.87752,226.89999 124.11702,227.83099 123.8705,228.7955C123.68697,229.51353 122.7632,229.94234 121.875,230.33333C121.21736,230.62283 120.275,230.5 119.375,230.5C118.475,230.5 117.24496,230.3073 116.911,230.94667C116.50579,231.72244 116.68562,232.81804 117.39584,233.47917C118.02971,234.06924 118.9076,234.47055 119.375,235.02083C120.02256,235.7832 120.23772,236.60774 120.975,237.25734C121.58393,237.79385 122.12444,238.48657 122.875,239.16667C123.42893,239.66861 124.10454,240.2063 124.875,240.66667C125.59448,241.09659 125.83702,242.01775 126.22767,242.8045C126.66666,243.68863 126.46774,244.52501 127.16033,245.33067C127.74926,246.01575 128.67162,246.15935 128.86433,247.10001C129.04509,247.98222 129.33693,248.73639 129.70833,249.5C130.07501,250.25391 130.48299,251.10266 131.075,251.7C131.6723,252.30269 132.43608,252.9574 132.82233,253.8C133.17473,254.56876 133.57841,255.20108 134.27499,255.89999C134.97375,256.6011 135.28053,257.19836 135.875,257.97916C136.37131,258.63101 137.32298,258.90924 137.875,259.66666C138.32684,260.28665 138.70644,261.04495 139.68967,261.43866C140.50845,261.76651 141.18997,262.24954 141.791,262.784C142.43707,263.35849 142.99774,263.91837 143.875,264.33334C144.5876,264.67041 145.51515,264.88409 146.22234,265.14734C147.2233,265.51993 148.18681,265.6929 148.58966,266.30133C149.13354,267.12277 149.64879,267.51886 150.52766,267.85266C151.23309,268.12057 152.30687,268.33215 153.075,268.78534C153.75658,269.18747 154.25127,269.94611 155.04167,270.5C155.82295,271.04752 156.38469,271.61844 156.95767,272.21466C157.61165,272.89514 158.21507,273.49115 158.875,274C159.63995,274.58984 159.87366,275.29999 159.875,276.20001C159.87633,277.10001 159.875,278 159.875,278.89999C159.875,279.79999 159.875,280.70001 159.875,281.60001C159.875,282.5 159.875,283.29999 159.875,284.20001C159.875,285.10001 159.875,286 159.875,286.89999C159.875,287.79999 159.875,288.70001 159.875,289.60001C159.875,290.5 159.875,291.29999 159.875,292.20001C159.875,293.10001 159.875,294 159.875,294.89999C159.875,295.79999 159.875,296.70001 159.875,297.60001C159.875,298.5 159.90225,299.30042 159.875,300.20001C159.84641,301.14413 159.11136,301.57059 158.875,302.5C158.66554,303.32364 158.10532,303.80557 157.52234,304.44733C156.99609,305.02664 157.14526,305.83865 156.8705,306.7955C156.64998,307.56345 155.88762,308.02069 155.875,308.89999C155.86214,309.79541 155.48743,310.51498 154.84967,311.07468C154.26007,311.59213 154.07129,312.33582 153.81784,313.20001C153.56052,314.07742 152.9865,314.84097 152.44966,315.47467C151.94688,316.06818 151.86433,316.88934 151.375,317.5C150.88567,318.11066 151.04321,319.11984 150.85417,320C150.67281,320.84442 149.64189,321.87704 148.99651,321.2785C148.34622,320.67542 148.75031,319.46655 148.26433,318.89999C147.63094,318.16159 146.98653,318.06573 146.35417,318.5C145.64914,318.98416 144.7827,319.52869 143.875,319.5C143.02559,319.47314 142.91219,318.49915 142.875,317.70001C142.83229,316.78235 141.875,316.5 141.075,316.5C140.175,316.5 139.27499,316.5 138.375,316.5C137.47501,316.5 136.575,316.50009 135.675,316.5C134.77516,316.49991 133.71123,316.11047 134.23216,315.55267C134.85114,314.88992 135.25983,314.47943 135.959,313.78534C136.50653,313.24179 137.63765,313.53714 138.375,312.97916C139.15274,312.39063 139.51129,311.72867 140.27499,311.11066C141.01868,310.50885 141.68927,310.16888 142.09633,309.39999C142.49738,308.64246 142.82494,307.83707 143.16034,307.01733C143.50487,306.17529 144.50627,305.74728 144.839,305.064C145.25688,304.20584 145.60059,303.6261 145.86433,302.88934C146.16409,302.05197 145.76402,300.98373 146.39583,300.5C147.07315,299.98141 147.72511,299.39569 147.875,298.5C148.01526,297.6618 148.78967,297.21466 148.875,296.29999L148.875,295.39999" id="svg_5" stroke-width="3" stroke="#000" fill="none"/>
  <path t="52454,52842,52842,52875,52977,53049,53178,53251,53518,53565,53663,53663,53793,53866,53946,54011,54065,54065,54115,54182,54227,54251,54259,54267,54348,54348,54431,54431,54467,54483,54515,54547,54579,54579,54611,54635,54713,54763,54878,54878,54949,54965,54988" d="M106.875,272.5C107.875,272.5 108.675,272.5 109.575,272.5C110.475,272.5 111.375,272.5 112.275,272.5C113.175,272.5 114.075,272.5 114.975,272.5C115.875,272.5 116.675,272.5 117.575,272.5C118.475,272.5 119.38811,272.64273 120.275,272.48932C121.10845,272.34515 121.76584,271.7767 122.35416,271C122.91247,270.26294 122.875,269.29999 122.875,268.39999C122.875,267.5 123.35767,266.89252 123.78967,266.21466C124.28345,265.43985 124.10997,264.5423 124.52233,263.79999C124.98029,262.97559 125.51087,262.44052 125.959,261.69867C126.38505,260.99338 126.99863,260.19617 127.675,259.78534C128.45114,259.31393 128.67021,258.66162 128.93216,257.79999C129.20111,256.91531 129.97484,256.39999 130.51784,255.8L130.86433,254.89999L130.875,254L130.875,253.10001" id="svg_6" stroke-width="3" stroke="#000" fill="none"/>
  <path t="76404,77024,77024,77067,77107,77131,77155,77187,77211,77227,77275,77275,77299,77315,77323,77395,77464,77595,77651,77667,77675,77691,77691,77723,77797,77835,77835,77912,78183,78183,78247,78262,78283,78315,78339,78339,78339,78363,78387,78419,78451,78498,78498,78548,78600,78643,78699,78699,78904,78904,79198,79198,79326,79363,79395,79448,79448,79514,79658,79794,79794,79843,79843,79945,80265,80377,80377,80479,80703,80703,80783,80783,80940,81077,81195,81195,81265,81345,81345,81379,81419,81419,81443,81561,81611,81635,81712,81712,81764,81764,81814,81859,81859,81899,81947,81995,82035,82036,82083,82123,82213,82213,82264,82264,82307,82347,82431,82481,82481,82516,82565,82618,82633,82681,82681,82811,82859,82859,82945,83014,83014,83064,83064,83131,83170,83171,83341,83411,83419,83419,83497,83611,83728,83744,83846,83914,83930,83979,83979,84011,84043,84059,84075,84083,84107,84123,84123,84179,84179,84195,84280,84362,84362,84411,84411,84419,84419,84451,84475,84499,84515,84523,84581,84597,84597,84597,84627,84651,84707,84723,84739,84771,84779,84779,84803,84819,84843,84859,84867,84899,84931,84997,84997,85043,85115,85155,85163,85219,85219,85227,85243,85267,85267,85525,85541,85595,85643,85675,85675,85731,85731,85797,85813,85875,85891,85923,85947,85998,86065,86065,86081,86115,86195,86227,86251,86307,86331,86347,86348,86403,86443,86491,86523,86582,86627,86627,86635,86712,86747,86850,86850,86891,86947,87012,87080,87147,87147,87179,87294,87510,87547,87595,87643,87643,87822,87837,87899,87947,87962,88011,88027,88059,88059,88130,88181,88196,88196,88280,88295,88323,88387,88387,88462,88507,88515,88532,88571,88649,88683,88707,88811,88882,88882,88963,89011,89019,89075,89091,89123,89179,89231,89281,89364,89364,89447,89499,89500,89507,89565,89614,89697,89697,89841,89841,89891,89915,89947,89997,90080,90287,90541,90556,90587,90587,90635,90659,90683,90973,90989,91019,91081,91081,91241,91543,91603,91635,91652,91715,91730,91781,91827,91843,91843,91883,91907,91915,91915,91955,91963,92003,92095,92131,92131,92155,92195,92195,92243,92313,92329,92329,92363,92371,92435,92497,92531,92555,92579,92611,92627,92697,92697,92764,92795,92880,92923,92924,92939,92995,93043,93091,93115,93211,93297,93297,93331,93363,93451,93561,93627,93627,93696,93779,93779,93779,93835,93913,93913,93964,93964,93979,94031,94128,94171,94231,94231" d="M77.875,231.5C77.875,232.5 77.875,233.3 77.875,234.2C77.875,235.10001 77.875,236 77.875,236.89999C77.875,237.8 77.875,238.7 77.875,239.60001C77.875,240.5 77.875,241.3 77.875,242.2C77.875,243.10001 77.875,244 77.875,244.89999C77.875,245.8 77.54963,246.97964 78.23217,247.44284C78.93117,247.91721 79.97626,247.54779 80.875,247.5C81.67841,247.45728 82.45722,246.88762 83.275,246.52533C84.05965,246.17772 84.67467,245.69833 85.375,245C86.076,244.30099 86.58999,243.66354 87.52317,243.56166C88.54102,243.45053 89.25951,244.09058 89.791,244.78667C90.34628,245.51392 90.27032,246.34843 90.67633,247.01601C91.21254,247.89766 91.70818,248.7115 91.87517,249.59984C92.02475,250.39557 93.10359,250.60738 93.51783,251.2045C94.06515,251.99345 93.73248,253.01306 93.88567,253.89999C94.02984,254.73474 94.69716,255.37219 95.175,256.15268C95.59354,256.8363 96.05633,257.6315 96.675,258.29868C97.2475,258.91605 97.57324,259.88083 98.23217,260.44733C98.91982,261.03851 99.52985,261.32617 99.92767,262.20001C100.26221,262.93491 100.87791,263.66489 101.275,264.32535C101.87945,265.33069 102.52547,265.90033 102.78967,266.70001C103.07327,267.55841 103.0006,268.53268 103.48566,269.10001C104.12411,269.84671 104.87524,270.49976 105.375,271C106.07401,271.69968 106.7141,272.27026 106.8705,273.20001C107.00673,274.00986 107.17637,274.97696 107.44967,275.67465C107.81441,276.6058 108.00153,277.53189 108.48566,278.10001C109.12083,278.84534 109.78997,279.4874 109.87366,280.29999C109.96588,281.19528 109.70767,282.11966 109.89584,283C110.07722,283.84863 110.98786,284.41553 111.439,285.13599C111.92631,285.91418 111.76042,286.72803 112.22767,287.74283C112.60276,288.55746 112.92938,289.19907 113.375,290C113.81955,290.79904 113.86263,291.70142 113.875,292.66666C113.88542,293.47937 114.35606,294.15134 114.82233,294.86166C115.28018,295.55914 115.45753,296.47156 115.70834,297.33334C115.95348,298.17566 115.875,299.10001 115.875,300C115.875,300.89999 115.87508,301.79999 115.875,302.70001C115.87492,303.59982 115.56384,304.26358 114.92767,304.85266C114.35208,305.38565 113.86855,306.10269 113.1705,306.55267C112.39469,307.0528 111.77501,307.60001 111.175,308.20001C110.47501,308.89999 109.87501,309.5 109.275,310.10001C108.575,310.79999 108.075,311.29999 107.375,312C106.675,312.70001 106.2393,313.27206 105.475,313.88934C104.73045,314.49066 103.875,314.5 103.075,314.5C102.175,314.5 101.275,314.5 100.375,314.5C99.475,314.5 98.575,314.5 97.675,314.5C96.775,314.5 95.875,314.5 95.075,314.5C94.175,314.5 93.275,314.5 92.375,314.5C91.475,314.5 90.575,314.50006 89.675,314.5C88.77483,314.49991 87.98064,314.43866 87.04967,314.07468C86.35177,313.80182 85.39601,313.51044 84.46433,313.5C83.55372,313.48981 82.6989,313.55057 81.759,313.49866C80.98759,313.45605 79.97978,313.17429 79.44434,312.69867C78.72617,312.06073 78.17051,311.50226 77.275,311.5C76.375,311.49774 75.46449,311.63272 74.575,311.49551C73.64362,311.35184 73.10638,310.64816 72.175,310.50449C71.28551,310.36728 70.375,310.5 69.475,310.5C68.575,310.5 67.675,310.5 66.775,310.5C65.875,310.5 65.075,310.5 64.175,310.5C63.275,310.5 62.375,310.5 61.475,310.5C60.575,310.5 59.67123,310.41788 58.775,310.50015C57.86356,310.58383 57.46557,311.2074 56.875,311.97916C56.37711,312.62979 55.36563,312.86591 54.959,313.70001C54.59164,314.45358 54.36995,315.28168 53.875,315.97916C53.38673,316.66724 52.51748,317.17996 52.23217,317.85184C51.81709,318.82925 51.72479,319.71268 51.87517,320.59982C52.01986,321.45346 52.86618,321.84006 53.375,322.5C53.96488,323.26508 54.65543,323.61603 55.475,324.07468C56.2472,324.50684 56.8608,325.13132 57.48567,325.52533C58.23419,325.99731 59.07198,326.45728 59.975,326.5C60.874,326.54251 61.675,326.5 62.575,326.5C63.475,326.5 64.375,326.5 65.275,326.5C66.175,326.5 67.075,326.5 67.975,326.5C68.875,326.5 69.675,326.5 70.575,326.5C71.475,326.5 72.39071,326.3429 73.275,326.51068C74.22091,326.69016 74.86546,327.38925 75.675,327.49866C76.56877,327.61945 77.33806,328.07364 78.175,328.44733C78.94716,328.79208 79.64187,329.34586 80.475,329.48932C81.36201,329.64206 82.32211,329.40601 83.175,329.85266C83.92724,330.24661 84.80566,330.10632 85.58967,330.58533C86.39293,331.07611 86.83228,331.78235 86.875,332.70001C86.91685,333.59903 86.875,334.5 86.875,335.29999C86.875,336.20001 87.22929,337.18378 86.85416,337.97916C86.52151,338.68451 85.34023,338.44705 84.575,338.85266C83.72906,339.30106 82.90089,339.70761 82.275,340.07468C81.50347,340.52716 80.63862,340.96194 79.875,341.33334C79.12109,341.70004 78.22514,341.98865 77.48566,342.47467C76.79922,342.92584 76.14406,343.35526 75.35767,343.58401C74.48669,343.8374 74.25421,344.9888 73.51783,345.44284C72.79982,345.88556 71.93856,345.86212 71.375,346.5C70.85949,347.0835 70.10995,347.4624 69.375,348.02084C68.71111,348.52527 68.05096,348.93774 67.311,349.52533C66.63395,350.06296 65.92032,350.07141 65.16033,350.58533C64.49295,351.03662 64.17645,351.92117 63.39583,352.5C62.759,352.97223 62.17492,353.47784 61.575,354.20984C61.09553,354.79486 60.4226,355.65298 60.04167,356.5C59.74694,357.15533 59.80778,358.12628 59.07367,358.58401C58.36494,359.02591 57.73805,359.80188 57.39583,360.5C56.99728,361.31305 56.87725,362.1955 56.875,363.10001C56.87276,364 56.875,364.89999 56.875,365.79999C56.875,366.70001 56.78632,367.6044 56.875,368.5C56.95874,369.3457 57.875,369.5 58.675,369.5C59.575,369.5 60.49646,369.67563 61.375,369.47916C62.32418,369.26688 62.66608,368.92102 62.159,369.58401C61.69061,370.19644 61.8582,371.20016 61.875,372.10001C61.893,373.06451 62.57949,373.49774 63.475,373.5C64.375,373.50226 65.275,373.50067 66.175,373.5C67.07367,373.49933 67.66548,373.15579 68.0965,372.39999C68.47807,371.7309 69.3805,371.16537 69.791,370.29999C70.1503,369.54254 70.72663,369.08914 71.439,368.47467C72.04829,367.9491 71.89199,366.89059 72.30033,366.08932C72.69039,365.32394 72.55634,364.31747 73.23217,363.60983C73.79382,363.02173 74.54885,362.68158 74.90033,361.89999C75.26915,361.07986 75.89642,360.29807 76.575,359.85718C77.36734,359.34238 77.48172,358.68173 77.911,357.936C78.30797,357.24643 79.36676,357.31122 79.959,356.784C80.56118,356.24792 81.34715,355.83347 81.84967,355.11066C82.31733,354.43799 83.14471,354.09811 83.97483,353.62134C84.76505,353.16748 85.31696,352.71442 86.07367,352.21466C86.68259,351.8125 86.92359,350.67044 87.67633,350.50134C88.555,350.30396 89.29755,349.81445 90.175,349.55716C91.04046,349.30338 91.93456,349.21503 92.575,348.85266C93.39579,348.38824 93.9801,347.82251 94.67633,347.41599C95.50249,346.93359 96.075,346.29999 96.675,345.70001C97.37502,345 98.08202,344.48184 98.51783,343.79999C99.04448,342.97601 99.30179,342.09122 99.875,341.5C100.46565,340.89078 101.17879,340.20377 101.675,339.70001C102.35944,339.00516 102.82233,338.2045 103.311,337.52533L104.175,337.14734L104.875,336.66666L105.675,336.41599" id="svg_8" stroke-width="3" stroke="#000" fill="none"/>
  <path t="96293,96513,96513,96565,96615,96683,96698,96698,96731,96781,96781,96796,96925,96979,97030,97030,97046,97067,97107,97123,97155,97195,97195,97219,97267,97291,97299,97315,97323,97347,97347,97387,97419,97427,97443,97451,97530,97530,97546,97597,97597,97613,97613,97651,97691,97763,97763,97763,97803,97803,97895,97895,97911,97956,97972,97972,98027,98051,98076,98076,98099,98100,98140,98198,98251,98291,98425,98497,98513,98555,98563,98611,98635,98643,98996,99062,99130,99130,99446,99491,99515,99539,99539,99587,99596,99711,99711,99726,99771,99811,99827,99843,99897,99897,99931,99979,100064,100079,100079,100161,100161,100195,100227,100227,100390,100390,100390,100390,100443,100483,100507,100547,100547,100675,100690,100780,100795,100819,102044,102129,102243,102259,102291,102291,102410,102512,102512,102563,102563,102595,102643,102675,102691,102692,102723,102812,102863,102879,102915,102923,102923,102963,103014,103059,103099,103123,103123,103181,103235,103235,103243,103251,103299,103379,103513,103513,103513,103564,103662,103677,103888,103888,104043,104059,104130,104130,104164,104229,104297,104297,104410,104426,104426,104560,104630,104646,104646,104745,104813,104927,104927,105278,105655,105700" d="M95.875,348.5C96.875,347.5 97.66312,347.60608 98.375,348C99.26097,348.49023 100.23647,348.34509 100.975,348.7215C101.66126,349.07126 102.26217,349.91309 102.975,350.59982C103.46632,351.07318 104.4836,351.32001 105.1705,351.85718C105.91434,352.4389 105.875,353.5 105.875,354.29999C105.875,355.20001 105.875,356.10001 105.875,357C105.875,357.89999 106.00667,358.85004 105.65366,359.60001C105.28863,360.37552 105.04549,361.12003 104.85416,362C104.67016,362.84631 104.20264,363.72855 103.65366,364.37866C103.09267,365.043 102.50759,365.64801 102.159,366.29999C101.70591,367.1474 101.1895,367.92258 100.93217,368.79999C100.67871,369.66418 100.51337,370.26126 99.77517,370.7215C99.05801,371.16861 98.90948,372.15668 98.58967,372.98401C98.31441,373.69611 97.75974,374.70972 97.175,375.13834C96.39912,375.70706 96.03477,376.39786 95.70834,377.33334C95.46889,378.01953 95.09051,378.87601 94.6535,379.59982C94.21671,380.3233 93.0849,380.49908 92.87634,381.30133C92.64973,382.17294 92.35944,383.00513 91.775,383.60001C91.18033,384.20529 90.37542,384.83466 89.99633,385.60001C89.57691,386.44678 89.20728,387.10419 88.959,387.98267C88.73627,388.77078 88.06071,389.48398 87.8795,390.2045C87.66109,391.07297 87.47913,392.09283 87.89584,392.97916C88.22764,393.68491 89.375,393.50226 90.275,393.5C91.17051,393.49774 91.85839,393.08252 92.375,392.5C92.90947,391.89734 93.4265,390.78748 93.90033,391.15732C94.58247,391.68976 94.40903,393.05295 95.275,393.42801C96.09908,393.78491 96.75577,392.9126 97.443,392.58401C98.23709,392.20435 98.68781,391.7684 98.911,390.89999C99.13247,390.0383 99.63674,389.19818 100.159,388.58401C100.71492,387.93024 101.50117,387.67169 102.1705,387.14282C102.91142,386.5574 102.70145,385.46176 102.96033,384.70001C103.2621,383.81207 103.67096,383.00482 104.16033,382.30133C104.70615,381.51669 105.68053,381.43948 105.875,380.5C106.03809,379.71219 106.40885,379.01236 107.075,378.29868C107.58514,377.75211 108.06054,377.00742 108.475,376.32535C109.05373,375.37296 109.55244,374.68588 109.90033,373.89999C110.26238,373.08212 110.675,372.25391 111.04166,371.5C111.41306,370.73639 111.86458,370.00018 111.875,369.10001C111.88541,368.20007 111.73228,367.21487 112.22767,366.55267C112.74574,365.86017 113.29624,365.24112 113.75367,364.40018C114.16029,363.65265 114.83778,363.27405 115.575,362.85266C116.34151,362.41452 117.07581,361.93118 117.475,361.31467C118.07622,360.38614 118.63514,359.8587 119.26434,359.10001C119.80946,358.44269 120.23663,357.73874 120.97483,357.2785C121.69199,356.83139 121.86658,355.8822 122.30033,355.10001C122.75511,354.27985 122.55188,353.22049 123.0965,352.62134C123.73071,351.92365 124.3146,351.67218 124.90033,350.936C125.43861,350.25946 125.88433,349.64407 126.48566,348.89999C127.0143,348.24588 127.67505,347.70004 128.375,347C128.97488,346.40002 129.67117,345.84485 129.86433,344.89999C130.04054,344.03812 130.58107,343.61816 131.27499,343.05334C132.00188,342.4617 132.24207,341.65451 132.675,340.98401C133.2338,340.11862 134.18044,339.89194 134.791,339.21466C135.37358,338.56842 135.51454,337.72757 136.27499,337.11066C137.0188,336.50723 138.0119,336.46375 138.51784,335.7955C139.0442,335.10028 139.21742,334.18619 139.875,333.5C140.46211,332.88736 141.21516,332.3942 141.70833,331.5C142.07408,330.83682 142.73363,330.27551 142.87517,329.39999C143.02124,328.49646 143.63048,327.96103 143.85417,327C144.05833,326.12289 144.16034,325.29999 144.67633,324.70001L145.35417,324L145.81784,323.20001L145.875,322.29999" id="svg_9" stroke-width="3" stroke="#000" fill="none"/>
  <path t="110844,111052,111091,111115,111139,111163,111163,111228,111228,111407,111407,111612,111612,111651,111691,111777" d="M120.875,269.5C120.89584,270.5 121.36115,271.26804 121.84967,271.936C122.40639,272.6972 122.69105,273.50522 122.92767,274.25717C123.21158,275.15942 123.48603,275.91757 124.1795,276.74283C124.6967,277.35831 125.52317,277.79999 126.16517,278.20001L126.83334,279L126.88567,279.88934L127.375,280.5" id="svg_10" stroke-width="3" stroke="#000" fill="none"/>
  <path t="113501,114051,114051,114051,114113,114155,114172,114203,114259,114299,114323,114324,114412,114463,114643,114884,114947,115074,115107,115139,115508,115547,115563,115563,115571,115864,115960,115976,116172,116188,116251,116258,116283,116520,116563,116646,116691,116739,116796,116812,116844,116891,116946,116996,116996,117063,117108,117195,117195,117227,117311,117356" d="M114.875,287.5C115.875,286.5 116.675,286.5 117.575,286.5C118.475,286.5 119.375,286.5 120.275,286.5C121.175,286.5 122.075,286.5 122.975,286.5C123.875,286.5 124.675,286.5 125.575,286.5C126.475,286.5 127.375,286.5 128.27499,286.5C129.166,286.5 128.94928,286.11572 128.23216,286.55716C127.49545,287.01068 126.77988,287.90768 126.93233,288.88934C127.04491,289.61423 128.39758,289.50562 128.92317,290.2045C129.45599,290.91299 129.16592,291.48718 128.27499,291.5C127.39568,291.51263 126.94536,292.13293 127.67633,292.58401C128.36259,293.00751 128.8604,293.88028 129.375,294.5C129.87491,295.10202 130.04237,296.10934 129.51784,296.7955C128.94434,297.54572 127.875,297.5 127.075,297.5C126.175,297.5 125.275,297.5 124.375,297.5C123.475,297.5 122.575,297.5 121.675,297.5C120.775,297.5 119.875,297.5 119.075,297.5L118.175,297.5L117.275,297.5L116.35416,297.47916" id="svg_11" stroke-width="3" stroke="#000" fill="none"/>
  <path t="125256,125423,125423,125460,125460,125545,125595,125915" d="M73.875,209.5C74.875,209.66667 75.49357,210.13655 76.35767,210.7C77.00127,211.11966 77.70433,211.69867 77.93217,212.55267L78.5795,213.14734" id="svg_12" stroke-width="3" stroke="#000" fill="none"/>
  <path t="127085,127192,127207,127227,127267" d="M82.875,207.5C82.875,209.3 82.875,210.2 82.875,211.10001L82.875,211.89999" id="svg_13" stroke-width="3" stroke="#000" fill="none"/>
  <path t="129945,130306,130395,130427,130427,130443,130528,130528,130657,130823" d="M97.875,211.5C97.1705,210.85266 96.33682,210.55328 95.391,210.216C94.6852,209.96431 93.76033,209.58533 92.875,209.5L92.075,209.41467L91.275,208.92534L90.475,208.536" id="svg_14" stroke-width="3" stroke="#000" fill="none"/>
  <path t="169071,169190,169205,169205,169205,169227,169235,169235,169243,169251,169251,169260,169260,169260,169267,169267,169267,169283,169331,169331,169392,169392,169445,169491,169491,169515,169515,169523,169531,169571,169579,169595,169603,169603,169619,169619,169635,169635,169635,169643,169643,169651,169651,169667,169667,169675,169691,169715,169755,169755,169771,169787,169811,169835,169851,169867,169883,169883,169907,169955,169980,169995,170003,170019,170051,170067,170067,170083,170115,170131,170139,170139,170147,170155,170155,170195,170195,170211,170323,170323,170323,170323,170339,170363,170379,170396,170412,170427,170436,170459,170460,170476,170483,170491,170499,170507,170515,170515,170523,170524,170531,170532,170539,170547,170555,170563,170563,170571,170579,170595,170620,170636,170652,170683,170699,170700,170715,170740,170771,170787,170795,170811,170812,170827,170844,170852,170883,170891,170891,170899,170916,170931,170939,170940,170947,170948,170963,170971,170988,171060,171076,171091,171091,171099,171115,171115,171123,171131,171147,171227,171227,171227,171243,171267,171267,171307,171307,171331,171339,171355,171379,171379,171403,171403,171435,171435,171459,171467,171467,171483,171499,171499,171523,171523,171531,171539,171555,171555,171563,171571,171595,171603,171619,171643,171659,171659,171675,171699,171723,171723,171731,171731,171739,171763,171795,171803,171819,171819,171843,171851,171867,171891,171907,171915,171915,171939,171947,171979,171987,171995,171995,172019,172043,172075,172091,172123,172123,172171,172179,172195,172203,172219,172251,172251,172259,172267,172299,172377,172377" d="M19.875,198.5C19.875,199.38667 19.875,200.32533 19.875,201.33333C19.875,202.08934 19.875,203.02083 19.875,203.98399C19.875,204.67467 19.875,205.74733 19.875,206.66667C19.875,207.336 19.85124,208.50066 19.88567,209.31067C19.91319,209.95825 20.08558,210.92401 20.30033,211.71466C20.51178,212.49312 20.79565,213.52882 20.875,214.5C20.93683,215.25681 21.26018,216.13976 21.52233,216.84734C21.89692,217.85838 22.09943,218.82007 22.375,219.5C22.71213,220.3318 22.87275,221.19548 22.875,222.10001C22.87724,223 22.87433,223.89999 22.875,224.8C22.87567,225.7 23.10855,226.59149 23.5795,227.25717C24.08818,227.9762 24.47713,228.70959 24.875,229.5C25.27715,230.29892 25.68863,231.09335 26.07367,231.89999C26.45252,232.69368 26.73878,233.70229 26.875,234.47917C27.0253,235.33636 27.62187,236.0273 27.839,236.89999C28.05648,237.77408 27.7113,238.75729 28.09633,239.60001C28.40213,240.2693 28.86967,241.09996 28.875,242C28.88033,242.89998 28.875,243.8 28.875,244.7C28.875,245.60001 28.875,246.5 28.875,247.3C28.875,248.2 28.875,249.10001 28.875,250C28.875,250.89999 28.875,251.8 28.875,252.7C28.875,253.60001 28.875,254.5 28.875,255.3C28.875,256.20001 28.875,257.10001 28.875,258.02084C28.875,258.98401 28.8749,259.67465 28.875,260.74283C28.87508,261.60016 28.93634,262.39438 29.30033,263.32535C29.57319,264.02322 29.82358,265.01563 30.09633,265.82132C30.33159,266.51624 30.81281,267.47195 30.87367,268.29868C30.93983,269.19757 30.875,270.10001 30.875,271C30.875,271.89999 30.875,272.79999 30.875,273.70001C30.875,274.60001 30.70146,275.53824 30.96033,276.29999C31.2621,277.18793 31.857,277.89944 31.875,278.79999C31.89299,279.69983 31.875,280.60001 31.875,281.5C31.875,282.25717 31.875,283.15717 31.875,283.90451C31.875,284.89868 31.875,285.84283 31.875,286.74283C31.875,287.70001 31.875,288.60001 31.875,289.5C31.875,290.29999 31.875,291.20001 31.875,292.10001C31.875,293 31.875,293.89999 31.875,294.79999C31.875,295.70001 31.875,296.60001 31.875,297.5C31.875,298.29999 31.875,299.20001 31.875,300.10001C31.875,301 31.75851,301.90814 31.8795,302.79999C31.99093,303.62134 32.71123,304.26855 32.86433,305.10001C33.02742,305.98566 33.46415,306.81793 33.7535,307.60001C34.06862,308.45175 33.99929,309.27744 34.44967,310.10001C34.87694,310.8804 34.86423,311.80457 34.875,312.66666C34.88542,313.50018 35.14935,314.44952 35.52234,315.1955C35.91153,315.97388 35.875,316.89999 35.875,317.79999C35.875,318.70001 35.875,319.60001 35.875,320.5C35.875,321.29999 35.875,322.13599 35.875,323.15268C35.875,323.84732 35.875,324.86401 35.875,325.79999C35.875,326.70001 35.8272,327.60129 35.875,328.5C35.91773,329.30341 36.43988,329.95996 37.07367,330.70132C37.63043,331.3526 37.84513,332.15134 37.87366,333.01599C37.90543,333.97864 37.781,334.94708 38.22766,335.79999C38.62162,336.55222 38.84335,337.25784 38.8795,338.15717C38.9096,338.90576 39.05138,339.95636 39.48567,340.62799C40.04386,341.49124 40.73203,342.08197 40.92767,342.85184C41.15921,343.76303 41.69275,344.5047 41.92767,345.25717C42.20911,346.15869 42.6554,346.81509 42.839,347.86401C42.98329,348.68832 43.17584,349.55084 43.52234,350.20001C43.97568,351.04938 43.875,352 43.875,352.89999C43.875,353.79999 43.79288,354.7038 43.87517,355.60001C43.95885,356.51144 44.63067,357.03894 44.85417,358C45.06056,358.88754 45.10331,359.81851 45.375,360.5C45.76352,361.47455 45.68801,362.22247 45.911,363.10001C46.13011,363.96231 46.83228,364.69699 46.875,365.60001C46.91753,366.49899 46.99929,367.27744 47.44967,368.10001C47.87694,368.8804 47.875,369.79999 47.875,370.70001C47.875,371.60001 47.70686,372.53644 47.96033,373.29999C48.21668,374.07217 48.8464,374.79861 48.875,375.70001C48.90354,376.59955 48.70146,377.53824 48.96033,378.29999C49.2621,379.18793 49.85633,379.89948 49.875,380.79999C49.89366,381.69983 50.17584,382.55084 50.52234,383.20001C50.97568,384.04938 50.875,385 50.875,385.89999C50.875,386.79999 50.71131,387.75729 51.09633,388.60001C51.40213,389.26932 51.90033,390.10001 52.30033,390.89999L52.7535,391.60001L52.875,392.5L52.96033,393.29999" id="svg_16" stroke-width="3" stroke="#000" fill="none"/>
  <path t="174336,175003,175019,175035,175075,175091,175107,175123,175139,175139,175163,175187,175211,175267,175374,175374,175569,175619,175619,175643,175675,176151,176211,176227,176277,176315,176323,176566,176603,176611,176611,176643,176643,176659,176668,176715,176715,176747,176779,176779,176795,176827,176875,176875,176899,176931,176947,177019,177051,177059,177123,177155,177171,177211,177211,177235,177267,177283,177355,177411,177411,177451,177491,177531,177625,177625,177676,177728,177728,177763,177771,177771,177819,177875,177875,177891,177915,177987,178035,178035,178051,178068,178076,178107,178116,178139,178163,178187,178195,178227,178251,178259,178259,178307,178347,178363,178371,178491,178531,178531,178531,178563,178563,178579,178587,178619,178635,178643,178651,178699,178699,178723,178763,178787,178803,178819,178819,178843,178883,178891,178923,178939,178955,178963,178979,178979,179075,179075,179091,179091,179123,179139,179140,179163,179163,179242,179257,179315,179339,179355,179371,179443,179443,179475" d="M18.875,199.5C18.875,197.8 18.875,196.89999 18.875,196C18.875,195.10001 18.875,194.2 18.875,193.3C18.875,192.39999 18.875,191.5 18.875,190.7C18.875,189.8 18.875,188.89999 18.875,188C18.875,187.10001 18.875,186.2 18.875,185.3C18.875,184.39999 18.875,183.5 18.875,182.7C18.875,181.8 19.3162,180.77437 18.839,179.936C18.4454,179.24451 17.275,179.5 16.375,179.5C15.475,179.5 14.575,179.50008 13.675,179.5C12.775,179.49991 11.84232,179.37439 11.275,178.88933C10.52829,178.25089 10.15152,177.61099 9.375,177.02083C8.63703,176.45996 7.6555,176.23651 7.075,175.69867C6.45326,175.12262 5.85289,174.2991 5.175,173.85716C4.44108,173.37869 3.55092,173.16811 2.875,172.5C2.28935,171.92111 1.8333,171.1678 1.30033,170.47467C0.81331,169.84128 0.875,168.89999 0.875,168C0.875,167.10001 0.87508,166.2 0.875,165.3C0.87492,164.39999 0.66404,163.52785 0.30033,162.89999C-0.14563,162.13014 -0.125,161.2 -0.125,160.3C-0.125,159.39999 -0.125,158.5 -0.125,157.7C-0.125,156.8 -0.125,155.89999 -0.125,155C-0.125,154.10001 -0.125,153.2 -0.125,152.3C-0.125,151.39983 -0.125,150.61467 -0.125,149.67467C-0.125,148.66667 0.18965,148.11598 0.70833,147.33333C1.1778,146.62494 0.79111,145.55022 1.48567,144.936C2.1522,144.34657 2.98681,144.05766 3.875,143.66667C4.53264,143.37717 5.57758,143.89822 6.439,143.464C7.13788,143.11172 7.67633,142.50067 8.575,142.5C9.475,142.49933 10.375,142.5 11.275,142.5C12.175,142.5 13.075,142.5 13.975,142.5C14.875,142.5 15.675,142.5 16.575,142.5C17.475,142.5 18.375,142.49776 19.275,142.5C20.17951,142.50226 21.06703,142.61327 21.70033,142.94667C22.42496,143.32816 23.18924,144.11417 23.51333,144.84734C23.94495,145.82375 23.73767,146.78113 24.22767,147.44733C24.73091,148.13155 24.77954,148.94453 25.159,149.7C25.59459,150.5672 25.92939,151.19904 26.375,152C26.81955,152.79906 26.875,153.7 26.875,154.60001C26.875,155.5 26.875,156.3 26.875,157.2C26.875,158.10001 26.875,159 26.875,159.89999C26.875,160.8 26.95712,161.70377 26.87483,162.60001C26.79115,163.51144 26.2289,164.11244 25.675,164.98399C25.24689,165.65761 24.71639,166.438 24.311,167.08934C23.82578,167.86894 23.68918,168.83823 23.35417,169.5C22.92001,170.35764 22.40238,171.1433 21.90033,171.88933C21.4506,172.55763 20.88567,173.11067 20.875,174C20.86433,174.88933 20.30033,175.52533 19.8795,176.2045L19.839,177.10001L19.439,177.89999" id="svg_17" stroke-width="3" stroke="#000" fill="none"/>
  <path t="180528,180609,180609,180609,180609,180624,180643,180651,180667,180676,180676,180715,180855,180899,180931,180963,181003,181003,181027,181035,181067,181075,181190,181205,181275,181438" d="M6.875,146.5C6.875,145.5 6.85448,144.72989 6.52233,143.84734C6.25654,143.14111 5.893,142.14719 5.875,141.21466C5.85734,140.30017 5.875,139.39999 5.875,138.5C5.875,137.7 5.48161,136.68661 5.911,135.936C6.30609,135.24536 7.475,135.49936 8.39583,135.5C9.35767,135.50067 10.43503,135.31175 10.83333,136.02083C11.26467,136.7887 11.15551,137.90341 11.875,138.33333C12.64546,138.7937 13.159,139.416 13.81783,139.85716L13.875,140.8" id="svg_18" stroke-width="3" stroke="#000" fill="none"/>
  <path t="185135,185177,185193,185211,185228,185236,185236,185244,185252,185260,185260,185268,185268,185268,185275,185275,185283,185284,185299,185300,185307,185307,185315,185316,185487,185487,185502,185502,185502,185523,185523,185523,185531,185531,185539,185539,185539,185539,185547,185547,185547,185547,185555,185555,185555,185555,185555" d="M133.875,390.5C134.875,389.5 135.42256,389.05386 136.16034,388.58533C136.85181,388.14621 137.91325,388.67355 138.675,388.41467C139.56293,388.11292 140.28549,387.5314 141.1965,387.49985C141.89572,387.47562 142.8954,387.38702 143.66434,387.064C144.41309,386.74945 145.23122,386.05377 145.84433,385.70001C146.83904,385.12607 147.61113,384.88608 148.54167,384.66666C149.34511,384.4772 150.36444,384.54843 151.08566,384.46399C152.08524,384.34695 152.88632,384.03241 153.70833,383.5C154.38329,383.06281 155.17651,382.57709 156.07767,382.49866C156.84734,382.43167 157.64856,382.22772 158.39583,381.97916C159.19711,381.71262 160.18974,381.29712 160.875,381C162.03955,380.49509 162.55791,380.29315 163.39583,380C164.27385,379.69281 165.17287,379.3923 166.09633,379.10001C166.7453,378.89459 167.44232,378.68661 168.61766,378.39999C169.478,378.19019 170.375,378 170.82434,377.89999L171.707,377.70001" id="svg_19" stroke-width="3" stroke="#000" fill="none"/>
  <path t="185755,185810,185810,185826,185843,185851,185851,185860,185860,185867,185867,185867,185875,185884,185884,185891,185899,185899,185915,185931,185931,185948,185948,185955,185965,185971,185971,185987,185996,186003,186011,186011,186027,186027,186035,186035,186035,186043,186043,186051,186051,186051,186059,186059,186059,186067,186068,186075,186075,186083,186083,186083,186083,186091,186091,186091,186099,186099,186099,186099,186107,186107,186107,186115,186115,186115,186115,186123,186123,186123,186123,186131,186131,186131,186131,186139,186139,186139,186148,186148,186155,186155,186155,186171,186171,186171,186179,186179,186187,186187,186195,186195,186203,186219,186219" d="M184.875,375.5C186.675,375.5 187.575,375.5 188.47501,375.5C189.28566,375.5 190.1965,375.5 191.08566,375.5C192.075,375.5 192.875,375.5 193.875,375.5C194.66434,375.5 195.38966,375.5 196.375,375.5C197.35899,375.5 198.04967,375.5 199.11783,375.5C199.97517,375.5 200.76033,375.5 201.70033,375.5C202.70833,375.5 203.51633,375.51385 204.35899,375.216C205.06551,374.96628 206.11639,374.52859 206.97501,374.5C207.8745,374.47003 208.65244,374.3757 209.47501,373.92532C210.25539,373.49805 211.175,373.5 212.07767,373.5C212.84567,373.5 213.88483,373.5 214.66034,373.5C215.70833,373.5 216.41783,373.5 217.27049,373.5C218.27634,373.5 219.11099,373.5 220.04167,373.5C220.82767,373.5 221.64967,373.5 222.70833,373.5C223.63901,373.5 224.27049,373.5 225.27499,373.5C226.075,373.5 227.07727,373.54138 227.89583,373.47916C229.04759,373.39157 229.83432,373.15009 230.39583,372.97916C231.27988,372.71005 232.175,372.39999 233.075,372.10001C233.675,371.89999 234.875,371.5 235.77499,371.20001C236.375,371 237.27345,370.69534 238.175,370.40018C239.07349,370.10602 239.66449,369.88394 240.875,369.66666C241.47226,369.55945 242.39569,369.51172 243.36034,369.50134C244.39627,369.4902 245.12767,369.5 245.875,369.5C246.62233,369.5 248.0535,369.5 248.71783,369.5C249.35417,369.5 250.27367,369.5 251.47366,369.5C252.35417,369.5 252.91783,369.5 254.18967,369.5C254.85417,369.5 255.875,369.5 256.68567,369.5C257.56033,369.5 258.55899,369.5 259.375,369.5C260.19101,369.5 261.19434,369.56061 262.06433,369.46399C263.0853,369.35062 263.95773,369.12479 264.54166,368.5C265.10629,367.89584 265.76166,367.50134 266.70035,367.5L267.39099,367.5" id="svg_20" stroke-width="3" stroke="#000" fill="none"/>
  <path t="187402,187474,187490,187490,187490,187490,187490,187507,187507,187507,187507,187515,187515,187515,187523,187523,187523,187523,187531,187531,187539,187539,187539,187539,187539,187547,187547,187547,187555,187555,187555,187563,187563,187571,187571,187579,187579,187579,187587,187587,187595,187595,187611,187611,187744,187744" d="M16.875,400.5C19.46433,400.5 20.31271,400.52435 21.375,400.33334C21.93327,400.23297 22.91818,399.98495 23.63133,399.7955C24.7107,399.50876 25.38645,399.29001 26.35417,399.02084C26.96854,398.84998 28.174,398.61142 29.075,398.52533C29.6744,398.46805 30.87792,398.34738 31.47367,398.216C32.359,398.02075 33.18235,397.74295 34.19233,397.58401C35.13109,397.43628 36.21018,397.34283 36.84433,397.21466C37.53851,397.07434 38.26261,396.89789 38.99233,396.69867C40.39289,396.31631 41.03453,396.11771 41.91333,395.79999C42.96131,395.42111 43.62522,395.07318 44.2705,394.85718C45.25732,394.52686 46.0751,394.51788 47.07516,394.49985C47.89596,394.48505 49.04556,394.349 49.82317,394.14734C50.61796,393.94122 51.53291,393.60428 52.35417,393.52084C53.19244,393.43567 54.08567,393.46399 55.07483,393.27866L55.85417,393L56.70833,392.66666L57.46433,392.51068" id="svg_21" stroke-width="3" stroke="#000" fill="none"/>
 </g>
</svg>