<svg width="500" height="333.3333333333333" xmlns="http://www.w3.org/2000/svg" xmlns:svg="http://www.w3.org/2000/svg" xmlns:xlink="http://www.w3.org/1999/xlink">
 <!-- Created with SVG-edit - http://svg-edit.googlecode.com/ -->
 <g display="inline" class="layer">
  <title>Layer 1</title>
  <path t="0,219,219,234,234,253,254,269,269,269,284,285,302,302,302,319,319,319,347,368,368,419,419,419,434,435,435,451,451,468,484,504,504,525,545,545,567,584,584,602,602,618,684,701,702,702,723,723,744,754,785,801,817,835,869,917,934,934,952,968,1004,1018,1078,1101,1102,1119,1150,1150,1181,1212,1234,1234,1251,1251,1251,1268,1284,1284,1284,1300,1301,1319,1319,1349,1368,1385,1402,1402,1474,1474,1474,1483,1484,1484,1500,1500,1518,1536,1536,1537,1551,1567,1568,1584,1584,1584,1601,1601,1618,1618,1618,1634,1634,1860,1860,1884,1884,1884,1901,1901,1918,1974,2007,2007,2018,2018,2018,2034,2035,2035,2035,2051,2051,2067,2068,2068,2068,2101,2101,2131,2150,2151,2167,2167,2183,2183,2184,2200,2200,2200,2218,2233,2252,2252,2252,2267,2268,2268,2268,2268,2283,2283,2283,2283,2284,2284,2301,2301,2301,2302,2403,2445,2445,2468,2468,2483,2483,2483,2484,2484,2484,2500,2500,2500,2560,2560,2584,2584,2584,2585,2601,2601,2601,2601,2602,2602,2618,2618,2618,2634,2634,2706,2706,2717,2717,2717,2718,2734,2734,2750,2852,2871,2872,2883,2903,2917,2918,2934,2950,2967,2983,2983,3001,3018,3019,3033,3051,3071,3102,3117,3134,3154,3175,3175,3206,3206,3226,3250,3268,3269,3415,3435,3435,3450,3450,3450,3451,3451,3451,3466,3467,3467,3484,3484,3501,3591,3616,3666,3667,3683,3699,3699,3738,3771,3789,3812,3873,3904,3936,3968,3969,3998,3999,4019,4040,4051,4071,4084,4177,4201,4201,4217,4218,4233,4250,4251,4267,4268,4283,4301,4301,4317,4318,4349,4366,4366,4384,4384,4385,4459,4459,4459,4483,4483,4500,4500,4501,4501,4517,4517,4518,4542,4573,4583,4584,4585,4603,4604,4634,4740,4750,4751,4824,4824,4825,4825,4854,4918,4933,4959,4983,4984,5001,5021,5022,5094,5179,5200,5200,5217,5218,5218,5218,5233,5234,5234,5249,5429,5430,5449,5450,5450,5466,5467,5467,5483,5483,5503,5549,5584,5585,5605,5626,5627,5649,5667,5684,5700,5720,5741,5742,5772,5773,5799,5799,5824,5825,5849,5866,5867,5882,5908,5940,5982,6003,6004,6034,6050,6075,6117,6118,6148,6189,6220,6221,6266,6284,6305,6316,6316,6337,6383,6384,6420,6451,6466,6492,6545,6607,6722,6785,6800,6817,6847,6888,6962,6962,7046,7067,7087,7088,7108,7140,7202,7244,7244,7275,7338,7382,7383,7399,7416,7433,7462,7463,7463,7482,7499,7500,7516,7517,7532,7533,7533,7550,7577,7608,7633,7649,7667,7723,7827,7850,7869,7870,7882,7883,7899,7900,7916,7917,7932,7953,7967,7967,7994,8017,8017,8033,8034,8050,8068,8069,8115,8132,8133,8150,8167,8167,8182,8183,8214,8215,8232,8233,8250,8265,8266,8282,8299,8319,8320,8350,8351,8365,8382,8401,8422,8423,8449,8465,8485,8666,8667,8683,8704,8748,8748,8799,8883,8955,8965,8983,8983,9060,9090,9116,9117,9117,9152,9184,9198,9199,9226,9226,9227,9258,9394,9416,9433,9433,9434,9434,9449,9450,9451,9451,9465,9466,9467,9483,9499,9665,9683,9684,9684,9698,9699,9716,9717,9733,9749,9768,9790,9816,9841,9842,9874,9874,9899,9915,9932,9949,9965,9966,9983,9984,9999,10016,10017,10033,10050,10135,10155,10156,10182,10183,10206,10233,10259,10281,10300,10301,10315,10333,10349,10365,10521,10583,10583,10718,10718,10719,10733,10833,10907" d="M182.5,188.66667C181.63867,190.07733 180.93065,190.50568 180.25267,191.31934C179.70276,191.97929 179.2101,192.69255 178.47917,193.14583C177.53662,193.73033 176.92274,194.02019 176.10001,194.30949C175.12207,194.65338 174.27426,194.58952 173.30034,194.88867C172.69896,195.07338 171.96431,195.68739 171.66933,196.71733C171.4975,197.31729 171.91917,198.48091 171.21466,199.32533C170.64874,200.00365 169.73914,199.99757 169.58133,200.80533C169.40659,201.69975 169.5006,202.45062 168.83583,203.62334C168.5128,204.19319 167.78593,204.85564 166.83333,205.33333C166.19768,205.65208 165.17111,205.62077 164.51466,206.092C163.89572,206.5363 163.11107,206.4153 162.136,206.688C161.31927,206.91643 161.09052,208.05219 160.29866,208.496C159.44351,208.9753 158.5,208.66667 157.5215,208.66667C156.8045,208.66667 155.86015,208.63043 155.08934,209.10266C154.28506,209.5954 153.66756,210.07355 152.89867,210.46666C152.10493,210.87247 151.37419,211.36023 150.38533,211.58133C149.42029,211.7971 148.89099,212.17384 148.14284,212.6095C147.41388,213.03397 146.76215,213.27695 146.064,213.63066C145.28859,214.02351 144.17867,213.66661 143.5,213.66667C142.52167,213.66676 141.89136,214.17448 141.14284,214.6095C140.41246,215.03398 139.39999,214.66667 138.5,214.66667C137.7,214.66667 136.98788,214.35089 136.16667,213.83333C135.58531,213.46693 134.67961,213.29895 134.4955,212.36667C134.33485,211.55319 133.76323,210.873 133.58533,209.89867C133.45334,209.17578 133.50067,208.43466 133.5,207.31734C133.49942,206.33333 133.5,205.66133 133.5,204.672C133.5,203.80949 133.5,202.9185 133.5,202.01401C133.5,201.15067 133.5,200.1875 133.5,199.26666C133.5,198.36217 133.38138,197.4855 133.54167,196.66667C133.71129,195.80022 134.39923,195.31386 135.10266,194.69733C135.72522,194.15167 136.29094,193.41719 136.84283,192.672C137.48035,191.8112 137.91019,191.10362 138.70134,190.75067C139.61217,190.34435 140.34843,190.27135 141.01601,189.86534C141.89767,189.32913 142.76555,188.85541 143.38533,188.412C144.0739,187.91939 144.49312,187.14079 145.01601,186.43333C145.60959,185.63022 146.13817,185.02208 147.04266,184.3455C147.73375,183.82857 148.21059,183.45409 149.16667,183C150.0484,182.58122 150.88841,182.35237 151.3,181.60933C151.81949,180.67152 151.89079,179.98775 152.10001,179.34267C152.48322,178.1611 152.9429,177.40477 153.37866,176.56683C153.77126,175.81192 154.37877,175.36319 154.66933,174.69467C155.02585,173.87436 155.54904,173.11517 155.96617,172.55766C156.64516,171.65016 157.18065,171.06873 157.70399,170.48801C158.43205,169.68015 159.07166,169.03641 159.47917,168.14583C159.91243,167.19901 160.04738,166.605 160.52083,165.6875C160.83734,165.07413 161.58878,164.2672 162.13834,163.6275C162.68109,162.99576 162.87785,162.02417 163.14734,161.31934C163.48868,160.42654 163.72708,159.67596 164.35201,158.89734C164.75854,158.39082 165.52414,157.6674 166,156.83333C166.49281,155.96953 166.72273,155.33955 167.216,154.49867C167.5955,153.85175 167.65172,152.66182 167.85716,152.05316C168.0936,151.35268 168.50732,150.16858 168.70134,149.41066C168.9189,148.56073 169.00885,148.10112 169.25717,147.15317C169.64789,145.66162 169.81256,145.16403 170.15266,144.17567C170.321,143.68649 170.67426,142.73851 170.84734,142.28101C171.33215,140.99956 171.62538,140.24413 171.95833,139.25C172.14513,138.69223 172.47141,137.4825 172.5,136.66667C172.53102,135.78188 172.45219,134.97594 172.644,134.312C173.03595,132.9552 173.37523,132.57565 173.91066,131.66051C174.19598,131.17282 174.80148,130.20573 175.08934,129.7345C175.84071,128.50449 176.11348,127.87238 176.53917,126.98917C176.90742,126.22514 177.39719,125.70377 177.98801,124.89333C178.573,124.09089 179.01642,123.44158 179.272,123.09333C180.13443,121.91819 180.46629,121.49973 181.14,120.62666C181.47899,120.18736 182.14163,119.33226 182.44667,118.92C183.24641,117.83916 183.80821,116.98363 184.18649,116.28017C184.61858,115.47664 185.01483,114.70103 185.379,113.68784C185.62137,113.0135 186.16196,112.1221 186.558,111.65683C187.2206,110.87842 187.7661,110.41132 188.24533,109.35467C188.59471,108.58434 189.17357,107.88457 189.47917,107.125C189.83098,106.25056 189.5,105.492 189.5,104.42384C189.5,103.56667 189.5,102.66666 189.5,101.86667C189.5,100.96667 189.5,100.06667 189.5,99.14584C189.5,98.18267 189.62971,97.48354 189.4955,96.42384C189.3844,95.54668 189.10451,94.8121 188.44733,94.02383C187.93719,93.41195 187.55486,92.86366 187.5,91.96667C187.44203,91.0187 186.40245,91.11401 185.743,90.445C185.05801,89.75011 185.65826,88.80019 185.33333,87.83334C185.05966,87.01902 184.61613,86.22534 184.216,85.46667C183.76329,84.60828 183.29845,83.93533 183.536,83.06667C183.78592,82.15273 184.48172,81.78345 185.33333,81.16666C186.11227,80.60251 186.56635,80.30843 187.5,79.64584C187.97487,79.30882 188.47578,79.01527 189.66667,78C190.29495,77.46437 190.74112,76.59297 191.5,76C192.10791,75.52499 193.00755,75.12323 193.97917,75.20834C194.58678,75.26156 194.67448,76.49583 195.07466,77.256C195.49356,78.05173 196.1458,78.35491 196.93201,78.75066C197.67773,79.12604 198.30133,79.666 199.2,79.66666C200.10001,79.66733 201,79.66666 201.89999,79.66666C202.8045,79.66666 203.66667,79.66666 204.5,79.66666C205.4785,79.66666 206.29886,79.6479 207.2,79.66666C208.06456,79.68467 208.54396,80.52092 209.30133,80.66534C210.1841,80.83366 211.136,80.66666 211.98534,80.66666C212.9045,80.66666 213.89867,80.6672 214.664,80.66666C215.61467,80.666 216.46432,80.43815 217.136,80.092C217.94812,79.67348 218.85284,79.76329 219.87466,79.656C220.67747,79.5717 221.48395,79.12332 222.33333,78.83334C223.19926,78.5377 223.87721,78.03075 224.33333,77.33334C224.73163,76.72433 224.72183,75.46667 224.92534,74.856C225.21674,73.98158 225.43654,72.98547 225.47917,72.1875C225.51927,71.43681 225.47023,70.4594 225.58533,69.528C225.69049,68.6769 225.84293,67.95149 226.04167,67.16666C226.24283,66.37232 226.58438,65.27256 227.14816,64.59534C227.71506,63.91438 228.41795,63.16335 228.5045,62.35767C228.61526,61.32651 228.8609,60.66375 229.07466,59.91734C229.3909,58.8131 229.48601,58.06765 229.92534,57.26667C230.37666,56.44383 230.69417,55.54288 231.18266,54.99467C231.79988,54.30201 232.50613,53.66641 232.97917,53.16667C233.44275,52.67692 234.04405,51.49549 234.66667,50.83333C235.26535,50.19663 235.5,49.56667 235.5,48.66667C235.5,47.86667 235.5,46.9095 235.5,46.014C235.5,45.15067 235.49861,44.30267 235.5,43.36667C235.50134,42.46266 235.642,41.59895 235.94316,40.90267C236.34506,39.97348 236.71313,39.30972 237.188,38.71867C237.86183,37.87998 238.71751,37.39869 239.433,36.98017C240.26192,36.49529 240.82243,35.81054 241.472,35.412C242.32185,34.89058 242.75191,34.3694 243.55183,33.6675C244.32436,32.98964 245.03729,32.47937 245.65334,32.088C246.47711,31.56465 247.14708,30.86878 248,30.6875C248.89099,30.49813 249.82133,30.66667 250.67467,30.66667C251.61467,30.66667 252.5,30.66667 253.3,30.66667C254.2,30.66667 255.10001,30.66667 256,30.66667C256.89999,30.66667 257.80478,30.64513 258.66666,30.66667C259.50079,30.68751 260.36151,30.97383 260.97916,31.66667C261.63083,32.39765 262.27872,32.70609 262.89999,33.528C263.36328,34.14093 263.66171,35.13358 264.60016,35.54517C265.32761,35.8642 266.42593,35.38438 267.16666,35.83333C267.93848,36.30114 268.60001,36.66667 269.5,36.66667C270.29999,36.66667 271.20001,36.66667 272.10001,36.66667C273.02084,36.66667 273.82132,36.66667 274.67465,36.66667C275.61465,36.66667 276.60129,36.61887 277.5,36.66667C278.30341,36.70939 278.92093,37.37232 279.89999,37.63067C280.7709,37.86048 281.70132,37.66667 282.38535,37.66667C283.32535,37.66667 284.33334,37.66667 285.1955,37.66667C286.10001,37.66667 286.91736,37.75615 287.52533,38.24133C288.14981,38.73971 288.95746,38.89673 289.58401,39.38267C290.25644,39.90418 291.42599,39.38428 292.16666,39.83333C292.93845,40.30126 293.45453,41.01395 293.92532,41.652C294.45551,42.37053 294.45389,43.06056 294.92532,44.03067C295.3031,44.80807 295.5,45.66667 295.5,46.46667C295.5,47.36667 295.5,48.26667 295.5,49.1875C295.5,50.15067 295.5,50.84134 295.5,51.9095C295.5,52.76667 295.69379,53.7121 295.41467,54.46667C295.09299,55.33626 294.09619,55.62451 293.45834,56.1875C292.82095,56.75007 292.22644,57.09691 291.26666,57.38133C290.3299,57.65894 289.83694,58.19999 289.39017,58.96133C288.95908,59.69595 288.02698,59.68045 287.07883,59.888C286.27847,60.0632 285.52823,60.40007 284.47067,60.58133C283.51025,60.74594 282.94556,61.08428 282.2785,61.54517C281.54898,62.04921 280.66742,62.01381 280.14734,62.614C279.58099,63.2676 279.17172,63.99434 278.5,64.66666C277.99979,65.16734 276.94193,65.41019 276.36133,65.764C275.487,66.29682 275.82761,67.27737 275.33334,68.16666C274.91522,68.91895 273.89227,69.25607 273.52533,70.06667C273.17142,70.8485 272.69891,71.4669 272,72.16666C271.40039,72.76703 270.78665,73.40277 270.55267,74.31483C270.35529,75.08427 269.72684,75.68301 268.84732,76.01933C268.14255,76.28885 267.1925,76.46171 266.39999,76.88817C265.72171,77.25317 265.11197,78.07883 264.39984,78.76667C263.87271,79.27583 263.03812,79.91612 262.28934,80.23067C261.52042,80.55369 260.48602,80.53999 259.66666,80.83334C258.85788,81.12289 258.00211,81.52914 257.39999,82.10934C256.77664,82.71001 256.30038,83.49809 255.39999,83.66683C254.50038,83.83543 253.90401,84.36653 253.01601,84.58134C252.1732,84.78521 251.25717,84.66666 250.3,84.66666C249.39999,84.66666 248.5,84.66666 247.7,84.66666C246.8,84.66666 245.89999,84.66666 244.97917,84.66666C244.01601,84.66666 243.32533,84.66687 242.25717,84.66666C241.40016,84.6665 240.76218,84.30478 240.47467,83.51733C240.17117,82.6861 239.51622,82.14592 239.5,81.16666C239.48509,80.26673 239.11392,79.52831 238.784,78.86667C238.36345,78.02331 238.5,76.99467 238.5,76.124C238.5,75.416 238.5,74.43467 238.5,73.481C238.5,72.56667 238.43372,71.65928 238.55716,70.85233C238.7054,69.88333 239.01947,69.17213 239.216,68.43467C239.50333,67.35657 240.01094,66.7703 240.54167,66.10416C241.10049,65.40277 241.55748,64.647 242.0625,64.16666C242.59903,63.65635 243.48241,62.96868 244.39549,62.4765C244.96881,62.16747 245.84766,61.83578 246.81334,61.184C247.2702,60.87564 248.05977,60.30586 248.85333,59.728C249.54556,59.22393 250.06244,58.68427 251.04266,58.6665C251.75063,58.65367 252.81226,58.77724 253.68567,58.305C254.39473,57.92162 254.71156,56.95408 255.2,56.3765C255.87161,55.58229 256.44119,54.90725 257.2045,54.67117C258.06088,54.40629 258.8551,54.11501 259.66666,53.83333C260.46588,53.55593 261.47888,53.69264 262.29868,53.66667C263.20139,53.63807 263.92255,52.98112 264.79999,52.72383C265.66547,52.47005 266.4993,52.49898 267.13599,52.056C267.98306,51.46664 268.63702,50.97738 269.61465,50.752C270.48138,50.55219 271.33441,50.86263 272.20001,50.6095C273.07764,50.35286 273.80862,49.80217 274.70132,49.664C275.3974,49.55626 276.12604,48.9284 276.84732,48.372C277.58759,47.80096 278.17026,47.1199 278.85718,46.72383C279.67569,46.2519 280.54681,46.3598 281.29999,45.95067C282.0975,45.51745 282.6095,44.9966 283.30133,44.58267C284.09668,44.10679 284.36285,43.16109 285.06934,42.46533C285.60651,41.93633 286.50189,41.3624 286.86401,40.84134C287.32974,40.17122 287.89999,39.31334 288.70001,38.752L289.60001,38.66667" id="svg_1" stroke-width="3" stroke="#000" fill="none"/>
  <path t="12090,12284,12284,12302,12316,12316,12316,12333,12333,12333,12350,12369,12369,12369,12369,12382,12400,12430,12452,12472,12472,12499,12524,12524,12554,12575,12599,12599,12615,12632,12659,12698,12698,12714,12714,12732,12733,12749,12766,12794,12816,12816,12867,12867,12883,12883,12883,12909,12909,12932,12951,12966,12966,12982,12998,12998,13016,13109,13133,13193,13234,13255,13255,13275,13275,13300,13317,13317,13332,13348,13365,13383,13383,13398,13448,13448,13465,13465,13482,13500,13515,13515,13515,13533,13533,13533,13548,13548,13565,13583,13583,13598,13615,13615,13633,13653,13653,13669,13669,13683,13703,13737,13802,13802,13802,13817,13817,13848,13880,13901,13921,13948,13965,13995,13995,13995,14016,14016,14047,14080,14119,14267,14340,14340,14365,14391,14435,14459,14460,14483,14498,14498,14519,14520,14634,14634,14634,14673,14673,14673,14726,14788,14789,14815,14833,14861,14861,14892,14892,14914,14914,14945,14945,14964,14986,14986,14998,14998,15017,15037,15038,15065,15065,15082,15098,15098,15133,15163,15164,15183,15197,15214,15215,15237,15264,15264,15282,15298,15298,15319,15371,15382,15402,15414,15444,15476,15497,15517,15550,15550,15550,15550,15564,15580,15598,15615,15615,15631,15632,15632,15647,15665,15697,15716,15716,15764,15764,15821,15847,15872,15904,16102,16133,16165,16166,16195,16196,16214,16232,16233,16247,16265,16265,16281,16281,16299,16299,16300,16314,16314,16315,16331,16332,16332,16347,16347,16347,16364,16364,16365,16365,16380,16380,16380,16426,16426,16498,16519,16530,16551,16625,16625,16759,16801,16832,16852,16853,16873,16916,16931,16958,16998,16998,17022,17022,17073,17074,17104,17157,17188,17213,17232,17232,17248,17264,17281,17281,17282,17302,17303,17331,17348,17366,17386,17399,17400,17417,17417,17432,17448,17448,17463,17464,17481,17481,17498,17498,17513,17530,17552,17553,17598,17615,17615,17647,17648,17679,17680,17741,17898,17916,17932,17948,17948,17965,17965,17980,17998,17999,18016,18031,18048,18048,18048,18064,18065,18065,18065,18081,18081,18081,18082,18099,18099,18099,18232,18233,18233,18263,18283,18284,18297,18314,18332,18347,18365,18366,18381,18382,18398,18415,18432,18432,18447,18447,18513,18596,18597,18616,18617,18630,18630,18697,18751,18763,18783,18826,18826,18866,18889,18914,18931,18949,18997,18997,19076,19191,19191,19192,19213,19213,19231,19246,19247,19262,19263,19281,19281,19297,19297,19314,19314,19315,19315,19332,19332,19347,19347,19369,19369,19369,19545,19546,19564,19564,19580,19581,19581,19597,19598,19598,19600,19614,19616,19648,19648,19649,19649,19664,19664,19665,19665,19755,19756,19848,19849,19880,19881,19881,19953,19954,19982,19982,19998,20025,20025,20047,20048,20110,20151,20152,20192,20214,20214,20232,20232,20247,20247,20265,20266,20307,20332,20347,20347,20348,20364,20433,20480,20498,20498,20547,20565,20582,20582,20598,20614,20615,20646,20664,20664,20680,20680,20697,20715,20715,20746,20746,20766,20766,20781,20796,20797,20797,20813,20814,20814,20814,20830,20830,20831,20846,20954,20955,20979,20980,20980,20996,21016,21017,21069,21097,21113,21113,21114,21114,21129,21129,21146,21164,21180,21205,21246,21247,21277,21296,21297,21314,21330,21346,21347,21348,21364,21434,21435,21496,21518,21530,21531,21531,21547,21548,21563,21564,21564,21579,21580,21596,21646,21646,21663,21663,21737,21763,21780,21780,21852,21880,21896,21897,21913,21914,21914,21935,21935,21936,21967,21996,22013,22029,22029,22030,22071,22072,22072,22097,22098,22114,22130,22147,22148,22175,22176,22196,22216,22217,22238,22264,22290,22313,22330,22348,22363,22364,22383,22397,22398,22399,22413,22414,22431,22446,22463,22464,22465,22481,22482,22594,22739,22801,22829,22846,22847,22863,22864,22864,22880,22913,22914,22957,22958,22958,22981,22981,22999,23013,23014,23031,23052,23080,23098,23115,23116,23135,23136,23163,23180,23180,23197,23198,23213,23213,23214,23230,23231,23246,23247,23263,23264,23301,23330,23330,23346,23364,23385,23386,23413,23437,23438,23439,23464,23464,23479,23520,23521,23546,23546,23547,23574,23596,23614,23614,23630,23657,23687,23688,23713,23729,23746,23746,23764,23780,23797,23798,23813,23814,23814,23829,23855,23856,23867,23868,23896,23913,23949,23950,24084,24085,24115,24116,24158,24159,24179,24180,24196,24197,24214,24229,24261,24272,24297,24312,24330,24376,24377,24378,24618" d="M250.5,81.66666C251.5,81.83334 252.22635,82.34028 252.5,83.20834C252.74324,83.97993 252.92714,84.93104 253.11067,85.452C253.48216,86.50645 253.91673,87.40887 254.14284,88.005C254.53352,89.035 254.82248,90.00613 255.20534,90.672C255.63721,91.4231 256.13101,91.8289 256.42801,92.99467C256.66864,93.93916 256.5,94.86667 256.5,95.76667C256.5,96.66666 256.5,97.46667 256.5,98.30267C256.5,99.15067 256.50244,100.014 256.5,101.03067C256.49774,101.96667 256.17386,102.70333 255.784,103.46667C255.39946,104.21956 255.5,105.16666 255.5,106.07733C255.5,106.988 255.55058,107.84277 255.49867,108.78267C255.45607,109.55407 255.02861,110.47438 254.784,111.18267C254.45805,112.12644 254.5,113.06667 254.5,113.97117C254.5,114.83334 254.5665,115.66895 254.49966,116.6455C254.44238,117.48233 254.07439,118.21981 253.63867,118.91734C253.16655,119.67313 252.47685,120.49048 252.04167,121.125C251.49332,121.92455 250.90439,122.5552 250.55267,123.372C250.26024,124.05112 249.71069,124.64475 248.85184,125.02383C248.18405,125.31858 247.63728,126.10392 247.216,126.86667C246.74683,127.71616 245.99533,128.16879 245.62167,128.88817C245.2142,129.67265 246.23029,130.42763 247.15266,130.6095C248.00146,130.77687 248.87466,130.66667 249.82133,130.66667C250.67467,130.66667 251.73125,130.4454 252.416,130.95067C253.11853,131.46904 253.67427,132.06786 254.064,132.85201C254.50594,133.74123 254.83244,134.50369 255.52083,134.66667C256.47729,134.89313 257.20776,135.28592 258.10001,135.692C258.92279,136.06647 259.67633,136.46291 260.54166,136.70833C261.19516,136.89366 262.19006,137.50957 262.71466,137.94267C263.24631,138.38159 264.14288,139.21042 264.95834,139.625C265.67978,139.99179 266.07947,140.85628 266.66934,141.38133C267.34015,141.97841 268.46222,141.91774 269.08932,142.24133C269.99933,142.71091 270.81592,142.90135 271.67465,143.24133C272.47366,143.55766 273.33325,143.46971 274.20001,143.72383C275.07745,143.98108 275.92996,144.48796 276.5,145.16667C277.06467,145.83897 277.07516,146.82288 277.98401,147.41066C278.59369,147.80496 279.7319,147.44453 280.41599,147.95067C281.10587,148.46107 281.48956,149.18732 281.5,150.06667C281.51077,150.9756 281.5,152 281.5,152.672C281.5,153.416 281.5,154.52367 281.5,155.35767C281.5,156.26666 281.5,157.16667 281.5,158.06667C281.5,158.97116 281.36697,159.84776 281.52084,160.64583C281.70389,161.59523 282.7038,161.74879 283.60001,161.6665C284.51144,161.58282 285.14264,160.9621 285.5,160.16667C285.86148,159.36209 286.39658,158.79105 287.15268,158.00951C287.68167,157.46271 288.36206,156.68515 288.74283,156.06216C289.11847,155.44756 289.59714,154.24455 289.79999,153.72301C290.09583,152.96237 290.6701,151.79622 291.5,151.66667C292.29041,151.54329 293.22803,151.74872 293.47467,152.528C293.77365,153.4726 294.11835,154.29573 294.82132,154.76666C295.47583,155.20512 296.36609,155.62756 297.08932,156.26666C297.73087,156.83357 298.30002,157.46663 298.89999,158.06667C299.60004,158.7668 300.15555,159.26607 300.69867,160.15067C301.10748,160.81651 301.23318,161.85503 301.66666,162.66667C302.01553,163.31996 302.99896,163.5089 303.84732,163.71933C304.76123,163.94603 305.2774,164.80472 305.58401,165.46666C305.98657,166.33574 306.6955,166.87122 307.29999,167.46666C307.99484,168.15111 308.9892,168.45412 309.37866,169.10933C309.823,169.85683 310.05554,170.60583 310.98401,170.95067C311.68643,171.21155 312.61157,171.62395 313.5,171.66667C314.29907,171.70509 314.92899,172.03729 315.7215,172.54517C316.46805,173.02361 317.26358,172.97783 317.85266,173.614C318.38565,174.18959 318.95959,174.81354 319.60983,175.314C320.26233,175.81619 321.22919,176.31781 321.38568,177.08183C321.50809,177.67943 321.33713,178.62796 321.50449,179.79066C321.61633,180.56787 322.45728,181.02759 322.50015,181.98817C322.53134,182.6871 322.64136,183.67542 322.92532,184.45599C323.19247,185.19032 323.34418,186.16046 323.51068,187.06667C323.66345,187.89815 324.41205,188.65401 324.49551,189.42383C324.59204,190.31413 324.5,191.18266 324.5,192.14583C324.5,193.06667 324.50009,193.96666 324.5,194.86667C324.49991,195.76649 324.28674,196.65356 323.39984,196.6665C322.61014,196.67802 321.65198,196.27065 320.98401,195.86534C320.23358,195.41 319.71017,194.53421 319.41599,193.86667C319.07608,193.09537 318.40265,192.34377 318,191.66667C317.50327,190.83138 316.94437,190.17754 316.5,189.33333C316.1553,188.67848 315.9213,187.87296 315.5,186.83333C315.21002,186.11778 314.77734,185.24583 314.17868,184.46666C313.70126,183.84529 313.1199,183.29147 312.52118,182.46651C312.09036,181.87289 311.72577,181.18135 310.95715,180.2455C310.51025,179.70137 309.99542,179.17003 309.44818,178.6765C308.45047,177.7767 307.64993,177.44095 307.07199,176.784C306.48135,176.11263 306.5629,174.9705 305.69867,174.66933C304.85004,174.37358 303.89999,174.66667 303.08932,174.66667C302.17868,174.66667 301.32535,174.6666 300.38535,174.66667C299.40018,174.66676 298.72632,174.93674 298.27866,175.76666C297.92932,176.41431 297.83313,177.34045 297.47916,178.14583C297.16617,178.85793 296.18216,179.17729 295.66666,180C295.29105,180.59946 295.43866,181.81845 294.73834,182.30499C293.96503,182.84224 293.15268,182.66441 292.13599,182.66667C291.20001,182.66875 290.29999,182.66667 289.39999,182.66667C288.5,182.66667 287.66971,182.48531 286.79999,182.72383C286.01898,182.93803 285.1716,183.53654 284.49466,183.6095C283.50964,183.71565 282.47067,183.66667 281.70267,183.66667C280.79999,183.66667 279.89999,183.66667 279,183.66667C278.08932,183.66667 277.17175,183.74501 276.32535,183.63066C275.50784,183.52022 274.7403,183.1377 273.89999,182.60533C273.23575,182.18451 272.83264,181.22157 272.01599,180.836C271.21091,180.4559 270.26093,180.29739 269.616,179.86534C268.85678,179.35674 268.18585,178.88863 267.13599,178.70267C266.31198,178.55672 265.46591,178.33548 264.70001,177.95067C263.91409,177.55579 263.01059,177.71506 262.28934,177.63066C261.28976,177.5137 260.55591,177.05644 259.52151,176.78816C258.71912,176.58005 257.79993,176.65601 256.89999,176.66667C256.02066,176.67709 255.50534,177.31329 255.5,178.15199C255.49539,178.87732 255.5,180.06534 255.5,180.83067C255.5,181.78133 255.5,182.66667 255.5,183.46666C255.5,184.36667 255.5,185.20833 255.5,186.20967C255.5,186.93866 255.49582,187.77568 255.50017,188.96683C255.50238,189.57118 255.51814,190.50427 255.58533,191.15199C255.6931,192.19102 255.91937,193.27905 256.14667,193.96933C256.36124,194.62093 256.96344,195.63628 257.52084,196.14583C258.08032,196.65727 258.92789,197.41223 259.45834,198.16667C259.95898,198.87871 260.41434,199.68484 260.5,200.66667C260.56952,201.46364 260.55716,202.36667 261,203.16667C261.44284,203.96666 261.35413,204.91605 261.72134,205.76683C262.03165,206.48573 262.24976,207.37674 262.58401,208.09734C262.95386,208.89465 263.48199,209.5275 263.5,210.5C263.51465,211.29187 263.24185,212.42311 263.67065,213.09734C264.12616,213.81357 265.37436,213.85701 265.49734,214.55333C265.66245,215.4882 265.54532,216.26924 265.49551,217.25766C265.45313,218.09882 264.73648,218.73595 264.5,219.66667C264.29074,220.49033 263.55405,220.95087 263.5,221.83333C263.45032,222.64458 263.17136,223.44513 262.55267,224.01933C261.93011,224.59712 261.05545,224.5712 260.29999,224.95067C259.4328,225.38625 258.70001,225.66609 257.828,225.66667C256.95734,225.66725 256.23633,225.75716 255.26801,225.58133C254.29533,225.40471 253.74805,224.79027 253.52533,223.84134C253.29086,222.84235 252.86963,222.21498 252.62151,221.34517C252.3757,220.48349 252.50006,219.46683 252.5,218.6875C252.49991,217.68767 252.48825,216.96483 252.27867,215.90266C252.1609,215.30583 251.91597,214.34471 251.784,213.71867C251.53494,212.53726 251.41916,211.78423 251.07466,210.82001C250.85468,210.20428 250.59427,209.24776 250.536,208.44133C250.47672,207.62088 250.50011,206.35333 250.5,205.70833C250.49983,204.688 250.40735,203.90021 249.93201,203.17734C249.37555,202.3311 248.99124,201.83095 248.743,200.80284C248.55521,200.0251 248.52812,199.18794 248.509,198.38184C248.47748,197.05267 248.55783,196.37691 248.33333,195.33333C248.18344,194.63658 247.86423,193.80507 247.61333,193.17867C247.19662,192.13829 246.85555,191.41896 246.5,190.70833C246.16046,190.02971 245.64221,188.82338 245.02083,188.25C244.30396,187.58852 243.5018,187.88885 242.73199,188.52C242.23039,188.93126 241.50421,189.6647 240.83333,190.33333C240.17088,190.99355 239.50096,191.66763 238.89999,192.26666C238.20111,192.96329 237.51245,193.57674 236.74283,193.66217C235.85722,193.76047 235.20706,193.91879 234.33333,194.5C233.58604,194.9971 232.76086,195.03609 232.02083,195.6875C231.39557,196.23788 231.59703,197.28979 231.04266,198.03067C230.63907,198.57004 229.48357,198.93201 228.78667,199.26666C227.84105,199.72075 227.51314,200.46675 227.5,201.36667C227.48772,202.2085 227.30246,203.217 227.064,203.90666C226.81975,204.61302 225.92097,205.28885 225.536,206.10266C225.16612,206.88454 225.1631,207.69791 224.784,208.46666C224.36717,209.31187 224.53043,210.18802 224.49867,211.15067C224.47014,212.01534 224.05797,212.85968 223.66667,213.66667C223.33624,214.34813 222.77133,214.99806 222.16667,215.66667C221.59648,216.29718 220.5701,216.56552 220.04167,217.16667C219.4201,217.87376 219.33675,218.83469 219.07466,219.492C218.67192,220.50211 218.54645,221.37288 217.79016,221.96217C217.21439,222.41081 216.22879,222.53093 215.33333,222.83333C214.62865,223.07129 213.99701,223.5 213.07866,224.4305C212.5211,224.99544 212.02231,225.66676 211.45267,226.2515C210.69528,227.02893 209.96637,227.45628 209.34666,227.66C208.39343,227.97336 207.64749,228.66148 207.47467,229.33867C207.254,230.20341 206.98201,231.16161 206.784,231.89867C206.52939,232.84639 206.21504,233.72623 205.85266,234.36667C205.38824,235.18745 204.77931,235.71014 203.95734,236.33084C203.47012,236.69875 202.74875,237.42471 202.26801,237.89999C201.46745,238.69144 200.8597,239.45963 200,239.64583C199.12016,239.8364 198.2,239.66667 197.3,239.66667C196.39983,239.66667 195.61467,239.66667 194.67467,239.66667C193.66667,239.66667 192.74695,239.72612 192.5045,238.96217C192.25114,238.16386 192.282,237.12302 192.07466,236.416C191.85617,235.67096 191.54271,234.64014 191.5,233.66667C191.46494,232.86743 191.5,231.96666 191.5,231.125C191.5,230.12384 191.5,229.40533 191.5,228.61484C191.5,227.58817 191.48621,226.68741 191.5,225.66667C191.51067,224.87712 191.55045,224.03809 192.36133,223.30267C192.94424,222.774 193.76404,222.38893 194.5,221.66667C195.0153,221.16096 195.64192,220.3672 195.97917,219.66667C196.43756,218.71451 196.87721,218.03075 197.33333,217.33333C197.79216,216.63177 198.03503,215.81886 198.5,215.14583C198.9929,214.43236 199.40099,213.70651 199.98399,212.89734C200.33405,212.4115 200.8701,211.62849 201.47833,210.58833C201.86812,209.92175 202.27882,209.36275 202.464,208.30267C202.6252,207.37994 202.5,206.46533 202.5,205.5C202.5,204.82001 202.5,203.98 202.5,202.98267C202.5,202.16667 202.5,201.35066 202.5,200.35333C202.5,199.51334 202.5,198.552 202.5,197.56667C202.5,196.66667 202.47949,195.89656 202.14734,195.01401C201.88155,194.30779 201.65146,193.19743 201.05733,192.56667C200.46378,191.93652 199.7941,191.37186 199.216,190.75067C198.63136,190.12245 197.92772,189.95216 197.11067,189.65601C196.35959,189.38376 195.79082,188.71324 194.98267,188.668C193.97983,188.61185 193.16054,188.34419 192.49466,187.96133C191.74356,187.52948 190.86876,186.87479 190.04167,186.70833C189.11761,186.52235 188.19099,186.66667 187.16667,186.66667C186.49466,186.66667 185.75067,186.66667 184.64301,186.66667C183.80901,186.66667 182.81622,187.02097 182.02083,186.64583C181.31549,186.31317 181.50273,184.9454 182.21883,184.72383C182.93454,184.50237 184.18246,184.69193 184.95833,184.64583C185.64714,184.6049 186.53198,183.96439 187.35466,183.752C188.02278,183.57951 189.33333,183.66667 190.04283,183.66667C190.89549,183.66667 191.89867,183.66667 192.664,183.66667C193.61467,183.66667 194.5,183.66667 195.3,183.66667C196.2,183.66667 197.11902,183.50232 198,183.6875C198.85164,183.8665 199.658,184.56367 200.5,184.64583C201.47409,184.74088 202.1955,184.66667 203.136,184.66667C203.98534,184.66667 204.9045,184.66667 205.89999,184.66667C206.7,184.66667 207.70016,184.66667 208.52083,184.66667C209.18533,184.66667 210.18457,184.70421 210.97917,184.64583C212.17238,184.55817 212.74997,184.06354 213.70134,183.752C214.35625,183.53754 215.32533,183.66667 216.33333,183.66667C217.1955,183.66667 218.16641,183.74236 218.89999,183.23067C219.57539,182.75957 220.12222,182.142 220.91066,181.67067C221.69054,181.20445 222.17844,180.62451 222.63867,179.90666C223.20496,179.02341 223.41158,178.17496 223.85266,177.36667C224.31143,176.52599 224.52939,175.84639 224.784,174.89867C224.98201,174.16161 225.15663,173.41893 225.47467,172.33867C225.73599,171.4511 226.41209,170.68036 226.4955,169.96666C226.59996,169.07274 226.5,168.14583 226.5,167.18266C226.5,166.492 226.40689,165.37178 226.85266,164.71483C227.32147,164.02391 227.34392,163.30112 227.51067,162.30267C227.65556,161.43513 228.35251,160.67186 228.52533,159.99466C228.746,159.12991 229.01634,158.1713 229.216,157.43466C229.47299,156.48648 229.84004,155.67549 230.5,155.16667C231.26509,154.5768 231.61823,153.88747 232.07466,153.06667C232.50935,152.28497 232.81198,151.48463 233.30133,150.78133C233.82477,150.02904 234.22804,149.28162 234.41467,148.26801C234.55391,147.51175 234.4993,146.54933 234.5,145.69733C234.50067,144.89867 234.41951,143.89302 234.66667,143C234.8958,142.17213 235.47141,141.36803 235.5,140.46666C235.52853,139.56712 235.16283,138.51772 235.66667,137.83333C236.1474,137.18036 236.85266,136.71033 237.37849,136.0025L237.47917,135.14583L237.49867,134.43333L237.52133,133.34933" id="svg_2" stroke-width="3" stroke="#000" fill="none"/>
  <path t="25980,26203,26203,26255,26255,26281,26296,26296,26313,26313,26329,26346,26363,26391,26412,26433,26453,26496,26516,26529,26547,26547,26563,26599,26599,26630,26652,26664,26746,26809,26830,26871,26871,26901,26913,26913,26943,26979,26995,27048,27089,27114,27193,27212,27212,27229,27383,27486,27562,27623,27757,27788,27819,27842,27862,27863,27894,27894,27977,28094,28133,28186,28237,28279,28279,28310,28310,28362,28394,28572,28666,28679,28749,28749,29249,29267,29267,29334,29334,29334,29385,29429,29511,29529,29547,29648,29648,29662,29663,29680,29680,29680,29696,29696,29803,29950,29969,29969,30001,30045,30105,30105,30180,30199,30273,30273,30303,30334,30365,30407,30408,30439,30463,30480,30481,30501,30501,30532,30544,30604,30657,30689,30712,30728,30745,30772,30772,30795,30796,30846,30846,30862,30879,30895,30971,31013,31013,31034,31055,31080,31081,31107,31190,31231,31231,31244,31264,31264,31284,31284,31295,31315,31315,31337,31337,31363,31379,31395,31420,31445,31471,31494,31513,31514,31529,31529,31545,31562,31563,31579,31579,31607,31607,31629,31629,31645,31664,31664,31679,31696,31697,31713,31728,31764,31828,31845,31862,31862,31890,31890,31890,31941,31941,32005,32031,32058,32079,32094,32095,32095,32120,32202,32229,32245,32245,32261,32262,32297,32317,32339,32364,32393,32411,32411,32428,32445,32463,32547,32567,32578,32595,32612,32612,32684,32713,32730,32731,32746,32746,32746,32766,32798,32818,32860,32880" d="M220.5,109.66666C219.5,109.5 218.87747,108.68402 219.5,108.83334C220.35841,109.03923 220.70554,110.1211 221.60017,110.54533C222.33347,110.89306 223.13579,111.06238 224.01601,111.38267C224.83955,111.68233 225.37376,112.3927 226.11067,112.656C227.04237,112.98889 227.93744,112.73203 228.52533,113.24133C229.17395,113.80325 229.40788,114.43326 229.51067,115.48133C229.5952,116.34337 230.43013,116.88105 230.49867,117.55334C230.59282,118.47682 230.96094,119.37837 231.64934,119.68134C232.46371,120.03974 232.91589,120.7492 233.55267,121.314C234.25412,121.93617 234.71523,122.60577 235.60001,122.66666C236.49788,122.72845 237.3,122.66908 238.25717,122.66666C239.14818,122.66441 239.87009,122.51199 240.58267,121.95067C241.32333,121.36724 242.06886,120.99005 242.464,120.23067C242.86317,119.46356 242.39128,118.40608 242.85266,117.71484C243.31615,117.02043 243.62297,116.42251 244.14734,115.6185C244.55321,114.99619 244.5,114.06667 244.5,113.16666C244.5,112.26667 244.68451,111.02016 243.97917,110.6875C243.18378,110.31237 242.1955,110.66666 241.33333,110.66666C240.5,110.66666 239.5215,110.66666 238.70134,110.66666C237.8,110.66666 236.89999,110.66666 236,110.66666C235.10001,110.66666 234.1955,110.66666 233.33333,110.66666C232.5,110.66666 231.5215,110.66666 230.70134,110.66666C229.8,110.66666 228.89999,110.66666 228,110.66666C227.10001,110.66666 226.1955,110.66666 225.33333,110.66666C224.5,110.66666 223.17746,111.20558 222.66667,110.5C222.24113,109.91217 223.35201,109.18267 224,108.66666C224.64799,108.15067 225.37434,107.28837 225.92534,106.692C226.45319,106.12068 226.34883,105.18622 226.85716,104.36667C227.35811,103.55902 228,103.16666 228.70134,102.46533C229.25717,101.9095 229.99487,101.1916 230.5,100.64584C231.02757,100.07582 231.55185,99.22445 232.08934,98.53867C232.73015,97.72106 233.60001,97.66666 234.5,97.66666C235.3,97.66666 236.21149,97.78127 237.136,97.63067C238.00803,97.48862 238.63535,96.94747 239.74283,96.72383C240.58492,96.55378 241.5,96.66666 242.3,96.66666C243.2,96.66666 244.10001,96.66666 245.02083,96.66666C245.98399,96.66666 246.70338,96.42567 247.73833,96.67117C248.50882,96.85394 248.80299,97.85513 249.2045,98.42384C249.82332,99.30035 250.03561,100.05819 250.44733,100.905C250.83119,101.69451 251.48958,102.18732 251.5,103.06667C251.51067,103.96661 251.65022,104.87933 251.49983,105.7665C251.35513,106.62013 250.50887,107.00674 250,107.66666C249.41,108.43179 248.73152,108.68343 247.84734,109.01933C246.97171,109.35198 246.1402,109.63348 245.5,110.16666C244.84596,110.71138 244.4482,111.52305 243.5,111.66666C242.70901,111.78647 241.8,111.66666 240.97917,111.66666C240.01601,111.66666 239.15266,111.66728 238.25717,111.66666C237.3,111.666 236.35262,111.63821 235.85716,110.96217C235.33525,110.25004 235.41824,109.17344 235.536,108.492C235.72592,107.39288 236.20923,106.75501 237.02083,106.1875C237.75401,105.67482 238.72285,105.77658 239.61467,105.38267C240.35469,105.0558 241.09996,104.672 242,104.66666C242.89998,104.66133 243.8224,104.46859 244.69867,104.668C245.50298,104.85103 245.51205,105.86808 245.5,106.83334C245.48958,107.66686 245.51042,108.64574 244.88933,109.22C244.22906,109.83047 243.17867,109.66666 242.32533,109.66666C241.38266,109.66666 240.53009,109.69447 239.73334,109.664C238.78482,109.62772 237.71567,109.27388 237.532,108.48133C237.32207,107.57546 237.44949,106.66507 237.5,105.86667C237.55728,104.96124 238.17331,104.29166 239.01733,103.952C239.83614,103.62249 240.8,103.66658 241.7,103.66666C242.59984,103.66675 243.62798,104.01861 243.27817,104.76683C242.97885,105.40706 241.96527,105.99941 241.24933,106.48133C240.75601,106.8134 239.59521,107.9223 238.86617,107.6005C238.19496,107.30424 238.47131,106.06621 238.5,105.16666C238.53127,104.186 239.3515,103.72895 240.02083,103.6875C240.73224,103.64345 242.11887,103.17965 242.791,103.67117C243.22913,103.99155 242.36766,104.96918 241.74283,105.3095C240.91345,105.76122 239.89868,106.03812 239.04167,105.64584C238.32004,105.31552 238.49548,104.16666 238.5,103.26667C238.5045,102.37114 239.0663,101.71338 239.85184,101.67117C240.86255,101.61684 241.7,101.66666 242.60001,101.66666C243.5,101.66666 244.56168,101.88199 244.49983,102.7665C244.44336,103.5742 243.45306,103.97492 242.8,104.314C241.98653,104.73637 241.47493,103.90451 241.5045,103.005C241.53084,102.2037 241.68823,101.23579 241.936,100.46267C242.1731,99.72285 242.8,98.83817 243.7,98.66666L244.59984,98.66683L245.37849,98.88817L245.5,99.76667" id="svg_3" stroke-width="3" stroke="#000" fill="none"/>
  <path t="33914,34195,34195,34656,34656,34697,34697,34712,34737,34762,34762,34779,34822,34883,34927,34957,34998,34998,35041,35072,35072,35240,35273,35300,35300,35332,35354,35384,35405,35405,35430,35530,35544,35544,35559" d="M218.5,95.66666C216.49466,95.66666 215.7493,95.72153 214.64317,95.6665C213.78482,95.6238 213.86189,94.92884 214.64934,94.64133C215.48056,94.33785 216.10699,93.7382 216.7,93.09866C217.17979,92.58121 217.79459,91.72403 218.7,91.66666C219.59804,91.60977 220.17052,91.11752 220.86166,90.72383C221.69702,90.248 222.5,90.66666 223.4785,90.66666C224.5,90.66666 225.46562,90.2664 226.14284,90.781C226.79025,91.27295 226.51785,92.50018 226.5,93.36217C226.48199,94.23122 225.79552,94.66441 224.864,94.66666C224.01601,94.66871 223.15266,94.66666 222.25717,94.66666C221.3,94.66666 220.39999,94.667 219.7,94.83733L219.10001,95.51733" id="svg_4" stroke-width="3" stroke="#000" fill="none"/>
 </g>
</svg>