<svg width="280" height="420" xmlns="http://www.w3.org/2000/svg" xmlns:svg="http://www.w3.org/2000/svg" xmlns:xlink="http://www.w3.org/1999/xlink">
 <!-- Created with SVG-edit - http://svg-edit.googlecode.com/ -->
 <g display="inline" class="layer">
  <title>Layer 1</title>
  <path t="0,158,178,178,194,211,211,211,229,244,261,261,278,278,295,312,330,348,348,364,381,381,381,398,415,415,433,433,451,468,485,503,521,521,538,555,573,573,591,612,629,645,645,662,662,694,695,712,712,730,730,747,747,764,781,798,815,815,840,856,874,892,913,913,937,954,977,996,1033,1033,1050,1051,1073,1090,1108,1125,1125,1146,1146,1163,1180,1197,1197,1213,1231,1249,1266,1284,1301,1318,1335,1335,1352,1370,1388,1405,1423,1440,1458,1458,1476,1493,1493,1514,1514,1531,1547,1564,1564,1581,1581,1598,1598,1616,1616,1631,1632,1649,1649,1665,1682,1700,1717,1734,1735,1752,1752,1769,1786,1786,1804,1822,1840,1856,1856,1874,1891,1909,1926,1926,1944,1944,1961,1996,2016,2016,2033,2051,2051,2067,2067,2083,2083,2100,2117,2117,2133,2151,2151,2168,2185,2185,2203,2203,2220,2237,2237,2254,2254,2272,2272,2289,2289,2306,2306,2323,2324,2324,2324,2341,2341,2341,2341,2341,2358,2358,2358,2358,2358,2376,2376,2376,2376,2393,2393,2393,2649,2649,2649,2669,2685,2685,2685,2702,2702,2702,2702,2718,2718,2718,2735,2735,2752,2753,2753,2769,2770,2787,2787,2805,2822,2839,2839,2857,2873,2890,2891,2907,2925,2942,2960,2977,2995,3013,3036,3067,3086,3138,3171,3241,3242,3289,3345,3386,3403,3420,3437,3454,3472,3489,3506,3506,3523,3523,3540,3557,3557,3574,3590,3591,3607,3625,3641,3642,3659,3677,3694,3694,3712,3712,3731,3755,3772,3772,3803,3827,3827,3844,3861,3879,3879,3896,3913,3930,3947,3971,3972,3988,4005,4022,4039,4039,4039,4057,4057,4074,4090,4090,4108,4108,4125,4142,4142,4159,4177,4177,4194,4194,4212,4230,4247,4265,4282,4300,4318,4339,4339,4356,4373,4395,4443,4475,4514,4562,4595,4596,4628,4669,4689,4690,4707,4724,4742,4760,4777,4794,4811,4828,4845,4863,4863,4883,4883,4898,4916,4934,4952,4973,4990,5007,5027,5052,5070,5091,5108,5125,5142,5158,5175,5191,5208,5226,5244,5261,5284,5316,5355,5388,5410,5426,5452,5470,5487,5508,5532,5564,5596,5667" d="M125.5,85.5C125.5,83.74284 125.37877,82.82615 125.58533,81.984C125.80629,81.0832 126.53125,80.35084 126.88934,79.67467C127.24664,78.99998 127.36911,77.95043 127.85717,77.2C128.37532,76.40329 129.10001,75.9 129.7,75.3C130.3,74.7 131.02231,74.05682 131.7955,73.55267C132.49637,73.09566 132.76343,72.28045 133.30133,71.7C133.99359,70.95296 134.67519,70.34162 135.14816,69.84734C135.80212,69.16392 136.16711,68.26896 136.83333,67.5C137.26154,67.00575 138.12976,66.4797 138.58267,65.7C138.98863,65.00111 139.91608,64.65077 140.66933,64.41467C141.57307,64.13139 142.36537,63.76725 143.1955,63.44733C143.93918,63.16074 144.81828,62.75686 145.5,62.16667C146.12071,61.6293 146.36218,60.5167 147.02083,60C147.72905,59.44441 148.67178,59.57364 149.5,59.47917C150.49223,59.36599 151.09111,58.77993 151.94284,58.27867C152.6515,57.86161 153.47284,57.56511 154.30983,57.5045C155.26552,57.4353 156,57.5 157.16667,57.5C157.95833,57.5 158.8,57.5 159.7,57.5C160.60001,57.5 161.5,57.5 162.3,57.5C163.2,57.5 164.10001,57.5 165,57.5C165.91066,57.5 166.82133,57.5 167.67467,57.5C168.61333,57.5 169.52617,57.46387 170.30133,57.5C171.21764,57.54271 171.82271,58.39819 172.52083,58.47917C173.47235,58.58953 174.27628,58.62405 175.10001,59.07467C175.88055,59.50165 176.88705,59.3084 177.7,59.78667C178.29442,60.13637 178.71829,61.20697 179.2,61.79016C179.80768,62.52588 180.60721,62.95296 181.5,63.33333C182.25154,63.65353 183.22829,63.30922 184.10001,63.536C184.95639,63.75879 185.26173,64.80182 185.784,65.416C186.33992,66.06976 187.06293,66.43559 187.82117,66.7215C188.66835,67.04094 189.13477,67.77626 189.55716,68.55267C189.97737,69.32507 190.43472,70.03208 190.85266,70.8C191.31035,71.64095 191.62654,72.53188 192.11067,73.1C192.74585,73.84535 193.31775,74.50468 193.55267,75.25716C193.83412,76.15866 194.28044,76.8151 194.464,77.864C194.60849,78.68961 194.66325,79.66801 194.92534,80.32533C195.32809,81.33544 195.48958,81.99983 195.5,82.98534C195.50766,83.71062 195.5,84.7 195.5,85.5C195.5,86.5 195.5,87.28934 195.5,88.33334C195.5,89.1955 195.5,90.1 195.5,91C195.5,91.9 195.5,92.8045 195.5,93.66666C195.5,94.5 195.5,95.4785 195.5,96.29867C195.5,97.136 195.5,98.15266 195.5,98.84734C195.5,99.864 195.59088,100.80474 195.49867,101.7C195.41496,102.51261 194.85266,103.2 194.5,104C194.14734,104.8 193.56088,105.59388 193.5,106.5C193.44923,107.25546 193.63251,108.1767 193.41467,109.016C193.15602,110.01252 192.66393,110.7171 192.33333,111.5C192.00301,112.28225 191.53647,113.0169 191.14734,113.809C190.8145,114.48652 190.53757,115.50436 190.51067,116.24934C190.47069,117.35633 190.58438,118.14914 190.064,118.9C189.51447,119.6929 188.80576,120.1795 188.5,121.02084C188.15703,121.96461 187.80501,122.6395 187.58533,123.61467C187.38986,124.48236 187.47949,125.2701 187.14734,126.15266C186.88155,126.85889 186.58128,127.89037 186.33333,128.66667C186.06024,129.52164 185.68884,130.33904 185.47467,131.12534C185.23889,131.99097 184.93854,132.70732 184.3,133.616C183.83456,134.27835 183.23813,134.9594 182.936,135.74667C182.59254,136.64165 182.58029,137.46829 182.40266,138.34666C182.27203,138.99265 181.85957,140.03535 181.4285,140.75717C180.963,141.53664 180.67412,141.91512 180.09599,142.70134C179.20966,143.90674 178.89586,144.2937 178.32133,145.08934C177.76538,145.85925 177.47626,146.21996 176.83333,147.33333C176.44736,148.00172 176.0313,148.97536 175.80901,149.5955C175.37984,150.7928 175.21098,151.39937 174.89999,152.26401C174.5136,153.33832 174.31557,154.10834 173.8,154.78117C173.20673,155.55545 172.32025,155.81721 171.65334,156.37199C171.02567,156.89413 170.34421,157.51463 169.54733,158.0955C169.00719,158.48923 168.19183,159.02777 167.42149,159.4785C166.74269,159.87567 165.884,160.26604 165.10133,160.70267C164.31731,161.14006 163.64395,161.81976 163.25267,162.50084C162.85088,163.2002 162.20508,164.19841 161.5,164.45833C160.54932,164.80879 159.8033,165.14462 159,165.5C158.19879,165.85445 157.57158,166.58748 156.89999,167.064C156.17435,167.57889 155.59569,168.13469 154.93066,168.69867C154.24445,169.28064 153.17313,169.32162 152.55267,169.85266C151.95807,170.36157 151.10298,170.50122 150.5,171C149.84413,171.54253 149.35951,172.33597 148.5,172.47917C147.6217,172.62552 147.07014,172.87062 146.2785,173.37849C145.53204,173.85739 144.5,173.5 143.7,173.5C142.8,173.5 141.89998,173.5054 141,173.5C140.11063,173.49466 139.41592,173.08548 138.85266,172.44733C138.32713,171.85193 137.66852,171.35603 137.10001,170.64934C136.46513,169.86015 135.8093,169.53398 135.2,168.79016C134.72067,168.205 134.30444,167.11041 133.5,166.66667C132.85768,166.31236 131.99486,165.98444 131.3,165.3C130.79625,164.80379 129.99451,164.16537 129.584,163.3C129.22469,162.54254 128.74962,161.84198 128.2045,161.2C127.56374,160.44539 127.16753,159.66304 126.47916,159.5C125.52268,159.27345 124.75518,158.84138 124.2045,158.2C123.55965,157.44894 123.67644,156.46075 123.41467,155.7C123.14642,154.92044 122.29731,154.30269 121.7,153.7C121.10798,153.10265 120.71098,152.24637 120.27866,151.39999C119.94394,150.74469 119.67137,149.87979 119.47916,149C119.2952,148.15793 118.5146,147.5078 118.216,146.64799C117.99191,146.00275 117.5844,145.01196 117.5,144.14284C117.4184,143.30261 117.33139,142.33408 117.07467,141.664C116.78178,140.89952 116.53249,139.90582 116.5045,139.15717C116.46597,138.12605 116.5,137.17867 116.5,136.32533C116.5,135.384 116.56685,134.61285 116.48933,133.67467C116.40534,132.65814 115.81541,132.09583 115.55717,131.1955C115.31893,130.36493 115.5,129.5 115.5,128.5215C115.5,127.70133 115.5,126.8 115.5,125.9C115.5,125 115.5,124.1 115.5,123.2C115.5,122.3 115.5,121.4 115.5,120.5C115.5,119.7 115.5,118.8 115.5,117.9C115.5,117.02084 115.5,116.064 115.5,115.2C115.5,114.3 115.68136,113.34653 115.33334,112.5C115.05744,111.82892 114.63557,110.96753 114.216,110.21467C113.7772,109.42728 113.50067,108.7 113.5,107.8C113.49933,106.9 113.37346,106.11829 112.85267,105.44733C112.39955,104.86356 112.5,103.9 112.5,103C112.5,102.1 112.5,101.1955 112.5,100.17867C112.5,99.5 112.5,98.5215 112.5,97.70133C112.5,96.8 112.5,95.9 112.5,95C112.5,94.1 112.5,93.2 112.5,92.3C112.5,91.40017 112.62574,90.54603 113.07467,89.88934C113.62043,89.091 114.09861,88.49091 114.55267,87.7955C115.04752,87.03761 115.85124,86.62338 116.47467,86.07467C117.05913,85.56025 117.49187,84.70011 118.2045,84.5045C119.06894,84.26722 119.81034,83.88189 120.7,83.58533C121.55748,83.2995 122.5,83.5 123.30133,83.5C124.2,83.5 125.31174,83.4906 125.4955,84.2045C125.71873,85.07174 125.6628,85.93806 126.14733,86.55267C126.65934,87.20211 126.5,88.2 126.5,89.1L126.5,90L126.5,90.9" id="svg_1" stroke-width="3" stroke="#000" fill="none"/>
  <path t="6752,7086,7111,7143,7182,7373,7407,7432,7479,7502,7550,7550,7590,7630" d="M121.5,97.5C121.44283,95.85267 120.797,95.44466 120,95C119.20148,94.55449 118.01801,94.17305 117.55717,94.85717C117.03196,95.63684 117.5,96.66666 117.5,97.6C117.5,98.5 117.5,99.3 117.5,100.2L117.464,101.064" id="svg_2" stroke-width="3" stroke="#000" fill="none"/>
  <path t="8552,8810,8828,8846,8862,8862,8887,8919,8951,8984,9016,9048,9048,9072,9136,9160,9192,9216,9233,9264,9264,9283,9303,9320,9344,9361,9378,9396,9413,9449,9467,9510" d="M141.5,96.5C143.33333,96.33334 143.71523,95.56089 144.60001,95.5C145.49788,95.43821 146.27744,95.3757 147.10001,94.92533C147.88039,94.49805 148.8,94.5 149.7,94.5C150.60001,94.5 151.5,94.5 152.3,94.5C153.21466,94.5 154.11067,94.5 155,94.5C155.89999,94.5 156.80473,94.40913 157.7,94.50134C158.5126,94.58504 159.31819,94.94814 160.064,95.52533C160.68954,96.00946 161.29179,96.60045 162,97C162.87799,97.49534 163.5538,97.94661 164.07466,98.52533C164.64874,99.1632 165.33333,99.66666 165.784,100.416L166.464,100.936" id="svg_3" stroke-width="3" stroke="#000" fill="none"/>
  <path t="10402,10641,10659,10676,10694,10710,10728,10728,10752,10794,10812,10840,10841,10935,11015" d="M175.5,106.5C177.3,106.5 178.2,106.5 179.10001,106.5C179.89999,106.5 180.87552,106.32808 181.7,106.78533C182.39206,107.16914 183.03822,107.94104 183.50017,108.72134C183.91232,109.4175 184.69867,109.78533 185.21466,110.30133L185.4955,111.2L185.5,112.1" id="svg_4" stroke-width="3" stroke="#000" fill="none"/>
  <path t="12156,12377,12395,12418,12442,12462,12480,12496,12514,12514,12530,12546,12564,12586,12604,12622,12622,12647,12663,12681,12714,12731,12778,12890,12971,13058,13083,13083,13100,13123,13163,13202,13258,13306,13324,13362,13418" d="M174.5,106.5C174.5,108.3 174.5,109.2 174.5,110.1C174.5,111 174.5,111.9 174.5,112.8C174.5,113.7 174.67355,114.53825 174.41467,115.3C174.11292,116.18791 173.51801,116.89946 173.5,117.8C173.48201,118.69981 173.78136,119.85137 173.05733,120.37867C172.47392,120.80355 171.84518,121.00105 171.48933,121.88934C171.19833,122.61575 170.84375,123.19026 170.47917,123.97916C170.12286,124.75018 169.39502,125.13884 168.85266,125.55717C168.11319,126.12754 167.5,126.5 166.7,126.5C165.8,126.5 164.85716,126.5 163.97917,126.5C163.10001,126.5 162.2,126.5 161.30133,126.49866L160.55267,126.14733L160.064,125.536L159.11067,125.48933" id="svg_5" stroke-width="3" stroke="#000" fill="none"/>
  <path t="13972,14276,14330,14356,14388,14507,14595" d="M154.5,120.5C156.3,120.5 157.2,120.5 158.064,120.536L158.4955,121.2045L158.5,122.1L158.47917,122.97916" id="svg_6" stroke-width="3" stroke="#000" fill="none"/>
  <path t="15413,15685,15709,15733,15750,15785,15806,15836,15836,15855,15872,15911,15928,15946,15967,15982,16006,16006" d="M152.5,114.5C150.8,114.5 149.79742,114.1018 148.936,114.536C148.23712,114.88828 147.88768,115.85665 147.21466,116.416C146.54565,116.97202 146.01961,117.43936 145.44733,118.14283C144.9446,118.76081 144.51521,119.44749 144.5,120.2045C144.48199,121.10054 144.07466,121.9 143.584,122.7L143.27867,123.59983L142.784,124.21467" id="svg_7" stroke-width="3" stroke="#000" fill="none"/>
  <path t="16951,17151,17176,17198,17237,17262,17294,17311,17334,17351,17351,17375,17398,17432,17454,17471,17472,17491,17526,17550,17550,17590,17609,17630" d="M172.5,128.5C172.5,130.3 172.5,131.2 172.5,132.10001C172.5,133 172.5,133.89999 172.5,134.8C172.5,135.7 172.5,136.60001 172.5,137.5C172.5,138.3 172.5,139.2 172.5,140.064C172.5,140.936 172.63655,141.85664 172.216,142.7C171.88608,143.36165 171.21304,143.98784 170.62134,144.7215C170.10023,145.36761 169.85266,146.14284 169.5,146.936L169.48933,147.88933L169,148.5" id="svg_8" stroke-width="3" stroke="#000" fill="none"/>
  <path t="18448,18714,18732,18749,18749,18767,18785,18802,18820,18820,18837,18854,18871,18889,18912,18935,18952,18970,18989,19005,19023,19040,19063,19063,19081,19116,19134,19134,19151,19169,19186,19187,19204,19223,19302,19412,19484,19510,19530,19547,19548,19564,19581,19581,19581,19597,19597,19597,19614,19631,19631,19649,19649,19666,19687,19687,19704,19721,19743,19767,19802,19803,19823,19823,19841,19859,19876,19894,19894,19910,19910,19935,19953,19971,19989,19989,20006,20023,20023,20049,20066,20081,20081,20099,20116,20144" d="M142.5,128.5C144.33333,128.66667 144.78394,129.24889 145.60001,129.7215C146.26654,130.10751 146.85558,130.95998 147.59984,131.37866C148.34148,131.79588 148.61781,132.71394 149.2045,133.14284C149.96396,133.69804 150.59868,134.18871 151.30133,134.584C152.11827,135.04359 152.88835,135.47581 153.5,136C154.1463,136.55388 154.59868,137.18871 155.30133,137.584C156.11827,138.04359 156.91254,138.34938 157.8,138.5045C158.72832,138.66676 159.46394,138.9449 160.21466,139.584C160.881,140.15128 161.45828,140.73395 162.2,141.14734C162.96368,141.57297 163.73112,141.9765 164.60001,142.37866C165.26202,142.68507 166.03635,143.26093 166.97917,143.47917C167.83479,143.67723 169.09464,143.11177 169.43834,143.85716C169.8028,144.64757 168.62779,145.43909 167.79016,145.5C166.98479,145.55856 165.9536,145.47841 165.16667,145.83333C164.46291,146.15074 163.75208,146.73332 162.66667,147.16667C161.98106,147.4404 161.1617,147.4955 160.25267,147.5C159.33334,147.50455 158.5,147.5 157.5215,147.5C156.70134,147.5 155.864,147.5 154.84734,147.5C154.15266,147.5 153.136,147.5 152.2,147.5C151.30133,147.5 150.18678,147.80078 149.66667,147.16667C149.11279,146.49139 149.34186,145.24771 148.69867,144.78667C147.96121,144.25804 147.53789,143.73473 146.97917,143C146.38878,142.2236 145.77969,141.76553 145.55267,140.84734C145.34288,139.99879 144.88272,139.22191 144.58533,138.3C144.30779,137.43962 144.66328,136.46516 144.41467,135.7C144.1577,134.9091 143.66325,134.17039 143.47467,133.32533C143.26262,132.37506 142.61938,131.6759 142.49867,130.93201C142.35963,130.07513 141.784,129.41733 141.50133,128.69867L141.41467,127.78533" id="svg_9" stroke-width="3" stroke="#000" fill="none"/>
  <path t="22876,23140,23158,23176,23353,23353,23386,23404,23425,23442,23442,23458,23475,23492,23509,23525,23546,23546,23578,23617,23737,23770,23873,23893,23910,23930,23930,23948,23995,24057" d="M150.5,100.5C148.8,100.5 147.89999,100.49936 146.97917,100.5C146.01733,100.50067 144.55222,100.24187 144.55733,101.07467C144.56244,101.90728 145.60292,102.38989 146.36133,102.88934C146.97287,103.29207 147.99731,103.32609 148.89999,103.51067C149.84074,103.70303 149.97665,104.75937 150.66667,105.33334C151.32002,105.87679 152.3,105.5 153.2,105.5C154.10001,105.5 155.26927,105.56957 155.48933,104.88934C155.76308,104.04312 155.16449,102.93089 154.39999,102.6215C153.55817,102.2808 152.7,102.5 151.78534,102.41467L151.2785,101.6215L150.39999,101.5" id="svg_10" stroke-width="3" stroke="#000" fill="none"/>
  <path t="25389,25763,26034,26074,26092,26123,26170,26434,26470,26470,26488,26506,26522,26548,26651,26699,26794" d="M183.5,118.5C181.66667,118.5 180.79309,117.76443 180.5045,118.209C179.99524,118.99352 181.20448,119.49775 182.2,119.5C183.08566,119.502 182.4431,119.21029 181.8,118.85267C180.94688,118.37824 180.18967,117.88188 179.3,117.58533C178.44235,117.29945 177.5,117.5 176.66667,117.66666L176.5,118.5" id="svg_11" stroke-width="3" stroke="#000" fill="none"/>
  <path t="27759,27885,27904,27921,27937,27955,27955,27972,27972,27989,27989,28006,28006,28023,28040,28040,28040,28057,28057,28074,28091,28091,28108,28125,28142,28159,28160,28176,28176,28194,28211,28212,28229,28246,28264,28264,28282,28282,28299,28316,28341,28341,28382,28400,28418,28418,28439,28455,28472,28488,28506,28523,28539,28557,28557,28573,28590,28590,28607,28624,28624,28642,28659,28676,28693,28693,28710,28710,28727,28727,28744,28744,28762,28762,28778,28778,28794,28794,28811,28844" d="M132.5,76.5C134.3,76.5 135.2,76.5 136.10001,76.5C136.91066,76.5 137.8215,76.5 138.71066,76.5C139.69983,76.5 140.47917,76.5 141.47867,76.5C142.25267,76.5 143.17233,76.61495 144.01601,76.41467C144.92421,76.19906 145.82874,75.63325 146.50534,75.55717C147.24611,75.47388 148.35699,75.5 149.19099,75.5C150.136,75.5 150.98399,75.5 151.84734,75.5C152.73833,75.5 153.66933,75.5 154.54167,75.5C155.5,75.5 156.28934,75.5 157.33333,75.5C158.08934,75.5 159.02083,75.5 159.98399,75.5C160.67467,75.5 161.61467,75.5 162.60001,75.5C163.5,75.5 164.34196,75.36417 164.89999,74.64933C165.33421,74.09309 166.09982,73.51067 167.02083,73.5C167.9826,73.48886 168.79016,73.5 169.7215,73.5C170.60001,73.5 171.5,73.5 172.3,73.5C173.2,73.5 174.10001,73.5 175,73.5C175.89999,73.5 176.8,73.5 177.7,73.5C178.60001,73.5 179.5,73.5 180.3,73.5C181.25717,73.5 182.15273,73.48914 183.01601,73.5C183.8642,73.51067 184.65724,74.09986 185.10001,74.64933C185.73758,75.44057 186.29355,76.03893 187.04167,76.5C187.73163,76.92523 188.65533,77.1318 189.47867,77.37867C190.23856,77.60651 191.17491,77.81583 191.84734,78.2045C192.78166,78.74454 193.37071,79.32104 194.15266,79.8C194.83623,80.2187 195.80005,80.75469 196.29866,81.38533C196.86562,82.10242 197.14284,82.84734 197.44733,83.73833L197.936,84.47467" id="svg_12" stroke-width="3" stroke="#000" fill="none"/>
  <path t="31076,31298,31328,31347,31364,31381,31408,31444,31464,31481,31497,31528,31563,31563,31580,31598,31639,31687,31687,31704,31783,31800,31833,31951,31968,31985,32002,32019,32019,32037,32037,32053,32071,32071,32088,32105,32106,32123,32124,32124,32141,32142,32159,32159,32175,32176,32192,32212,32230,32271,32289,32344,32359,32385,32456" d="M140.5,78.5C138.66667,78.66666 138.19446,79.26969 137.55267,79.85267C136.97336,80.37891 135.85507,80.31033 135.52083,81C135.1469,81.77158 135.58476,82.85972 135.07466,83.47467C134.57758,84.07393 133.85188,84.46313 132.93201,84.50134C132.20383,84.53158 131.44444,85.13483 130.69867,85.584C129.99281,86.00912 129.37637,86.80385 128.7,87.21467C127.92387,87.68607 127.33334,88.33334 126.5,88.5C125.66666,88.66666 125.18605,89.4245 125.209,89.44283C125.91729,90.00861 126.85071,88.6706 127.60017,88.2785C128.32269,87.90049 128.95364,87.23656 129.84734,86.85717C130.71799,86.48756 131.62404,86.30692 132.2,85.7955C132.93227,85.14528 133.67484,84.74811 134.38533,84.24533C135.07643,83.75628 135.49359,82.97448 136.01601,82.26667C136.60747,81.4653 137.1732,80.78585 137.8045,80.2C138.36627,79.67867 139.30342,79.05936 140.01601,78.78533C140.93497,78.43195 141.61188,78.02062 142.14734,77.44733C142.78735,76.76211 143.416,76.216 143.85266,75.55267L144.5,75L145.07466,74.47467L145.4955,73.7955" id="svg_13" stroke-width="3" stroke="#000" fill="none"/>
  <path t="34398,34518,34538,34539,34553,34553,34569,34569,34586,34586,34586,34586,34603,34603,34603,34603,34619,34619,34619,34636,34636,34636,34653,34653,34653,34670,34670,34671,34671,34691,34691,34691,34705,34705,34706,34723,34723,34723,34740,34740,34740,34757,34757,34757,34757,34774,34774,34774,34791,34791,34791,34791,34791,34808,34808,34808,34808,34808,34826,34826,34826,34826,34843,34843,34843,34843,34860,34860,34860,34860,34860,34877,34877,34877,34877,34877,34895,34895,34895,34895,34895,34895,34912,34912,34912,34912,34912,34912,34929,34929,34930,34930,34947,34947,34947,34947,34964,34964,34964,35236,35236,35236,35256,35273,35273,35273,35273,35273,35290,35290,35290,35290,35290,35290,35290,35306,35306,35306,35306,35307,35307,35307,35323,35323,35323,35323,35340,35340,35340,35340,35341,35356,35357,35357,35357,35373,35373,35373,35373,35391,35391,35407,35425,35443,35443,35459,35477,35477,35494,35511,35511,35511,35529,35547,35547,35564,35564,35581,35582,35617,35635,35657,35673,35701,35719,35740,35757,35775,35792,35808,35829,35853,35948" d="M45.5,141.5C45.5,139.74283 45.5,138.84283 45.5,138.0955C45.5,137.10001 45.5,136.3 45.5,135.29984C45.5,134.47917 45.5,133.33333 45.5,132.53833C45.5,131.95833 45.49702,131.01334 45.50017,129.97867C45.5024,129.24731 45.48196,128.49707 45.58533,127.384C45.68438,126.31756 45.82272,125.65141 46.11067,124.74667C46.45884,123.6527 46.82917,122.96505 47.064,122.27467C47.3793,121.34772 47.43576,120.54169 47.52533,119.68933C47.65051,118.49819 47.75791,117.89354 48.02083,117.02084C48.27507,116.17697 48.7,115.184 49,114.5C49.3,113.816 49.70081,112.8163 50,112C50.20054,111.45287 50.59828,110.42059 51,109.5C51.29872,108.81544 51.70435,107.81623 51.9,107.264C52.20685,106.3979 52.59002,105.19659 52.8045,104.6045C53.12112,103.73046 53.33647,103.15446 53.98533,102.18134C54.48446,101.43276 54.94328,100.95664 55.5,100C55.92929,99.26232 56.29498,98.40504 56.47917,97.95834C56.85439,97.04834 57.33715,95.66789 57.4785,95.22166C57.75019,94.36396 57.9789,93.54159 58.1955,92.76167C58.49963,91.66656 58.79231,90.65289 59.02083,90.02084C59.24527,89.40007 59.81365,88.19541 60.15717,87.5955C60.51277,86.97448 60.9172,86.35022 61.5,85.33334C61.90898,84.61974 62.30321,83.86565 62.7,83.08933C63.10327,82.30033 63.7007,81.10017 63.9,80.69867C64.30141,79.89003 64.70599,79.0668 65.1,78.21467C65.5062,77.33617 65.90105,76.41454 66.1045,75.94283C66.52025,74.97891 66.72449,74.48403 67.18533,73.49866C67.65499,72.49446 68.17945,71.50225 68.44817,71.0135C68.97292,70.05904 69.23979,69.60865 69.73067,68.756C70.35876,67.66499 70.68445,67.05661 71.15067,66.26C71.46125,65.72932 72.03959,64.85518 72.50533,64.19466C72.99677,63.49771 73.51427,62.8186 74.16666,61.83333C74.70197,61.02489 75.08515,60.32463 75.5,59.5C75.89554,58.71376 76.33443,58.00892 76.47916,56.95833C76.60999,56.00874 76.48331,55.43911 76.54166,54.375C76.56445,53.95951 76.63478,53.03349 76.943,51.43567C77.0574,50.84262 77.20877,50.23158 77.372,49.60266C77.70985,48.30096 77.90601,47.64278 78.10267,46.98133C78.49406,45.66489 78.69823,45.02149 78.89867,44.38933C79.28623,43.16701 79.47839,42.58308 79.664,42.01867C80.0132,40.95685 80.47966,39.56455 80.61467,39.15333C80.86616,38.38737 81.21109,37.30325 81.5,36.16667C81.71145,35.33483 81.8,34.89467 82,34C82.2,33.10534 82.49149,31.83105 82.7,31.07067C82.89218,30.36981 83.09598,29.72001 83.5,28.5C83.69803,27.90201 83.95921,27.02453 84.3,26.27067C84.74368,25.28921 85.15205,24.67668 85.55267,23.8C85.9412,22.94975 86.26569,22.15026 86.52533,21.36133C86.80792,20.50266 87.44511,19.93321 87.4955,19.14817C87.56104,18.12711 87.93787,17.17474 88.35067,16.67467C88.92537,15.97847 89.36796,15.10321 89.784,14.29867C90.1556,13.58006 90.42776,12.65582 90.584,11.89867C90.79124,10.89434 91.32067,10.26237 91.5,9.2785C91.6575,8.4144 92.00782,7.89135 92.44283,7.14283C92.86731,6.41245 92.27749,5.2841 92.784,4.584C93.28577,3.89044 93.30511,3.17832 93.50134,2.30133C93.68192,1.49428 94.464,1.064 94.5,0.2045L94.5,-0.78267" id="svg_14" stroke-width="3" stroke="#000" fill="none"/>
  <path t="36736,36904,36905,36905,36922,36922,36922,36922,36940,36940,36940,36940,36959,36959,36959,36959,36976,36976,36976,36976,36993,36993,36993,37010,37010,37026,37026,37026,37048,37048,37048,37063,37063,37063,37063,37078,37078,37078,37097,37097,37097,37097,37112,37112,37112,37112,37129,37129,37129,37145,37145,37145,37145,37162,37162,37162,37179,37179,37179,37179,37196,37196,37196,37213,37213,37213,37213,37230,37230,37230,37231,37248,37248,37248,37248,37264,37265,37265,37265,37282,37282,37282,37282,37299,37299,37299,37316,37317,37317,37317,37317,37334,37334,37334,37334,37334,37351,37351,37352,37352,37352,37621,37621,37621,37621,37621,37639,37639,37639,37656,37656,37656,37657,37674,37674,37674,37674,37674,37691,37691,37691,37691,37712,37712,37713,37713,37713,37728,37728,37728,37728,37728,37746,37746,37746,37763,37764,37764,37779,37798,37798,37814,37814,37829,37830,37846,37847,37870,37871,37888,37905,37905,37922,37940,37957,37973,37991,38013,38013,38013,38030,38030,38047,38048,38064,38095,38133,38151,38168,38191" d="M75.5,138.5C75.5,136.48117 75.49995,135.64267 75.5,135.01199C75.50008,133.97867 75.49844,132.87415 75.536,132.12534C75.57323,131.3833 75.69659,130.31564 75.936,129.32533C76.0943,128.67049 76.30912,128.01822 76.6,126.97867C76.90827,125.87695 77.09568,125.12415 77.3,124.384C77.5938,123.31977 77.79517,122.65562 78.1,121.71066C78.29688,121.10032 78.70232,119.90385 78.88934,119.32133C79.1479,118.51595 79.39213,117.4634 79.55267,116.69466C79.75539,115.72393 80.00466,114.97328 80.30133,114.18266C80.67953,113.17474 81.01886,112.48645 81.3,111.73067C81.62197,110.86513 81.89737,109.8449 82.136,109.15067C82.37225,108.46336 82.96744,107.2565 83.336,106.76133C83.87884,106.03201 84.51276,105.34286 85.1,104.54283C85.50899,103.98565 85.90156,103.39655 86.5,102.5C87.09705,101.60554 87.48551,101.02488 87.84283,100.45717C88.49026,99.42854 88.86717,98.7211 89.25267,98.04733C89.81056,97.07226 90.33173,96.26785 90.67467,95.68933C91.02254,95.10249 91.61882,93.90121 91.87466,93.3C92.2569,92.40179 92.65397,91.4931 92.984,90.90134C93.4811,90.01003 93.86631,89.46849 94.47867,88.42117C94.88747,87.722 95.25287,86.99026 95.66666,86.16666C95.98549,85.53207 96.50529,84.49118 96.9045,83.80534C97.47795,82.82017 97.89118,82.26226 98.3,81.76133C98.8875,81.04145 99.71024,80.08603 100.0955,79.54283C100.48996,78.98666 101.04103,78.11179 101.47867,77.19984C101.76481,76.60358 102.11872,75.66133 102.384,75.01466C102.81074,73.97443 103.1487,73.24994 103.5,72.52084C103.84348,71.80796 104.3456,70.83929 104.74284,70.00533C105.10046,69.25453 105.50508,68.16824 105.70133,67.52934C105.91624,66.82969 106.1203,66.07348 106.38533,65.29733C106.7971,64.09145 107.15266,63.3 107.5,62.5C107.84734,61.7 108.04442,61.31057 108.47867,60.09967C108.76632,59.29756 109.0007,58.45853 109.25267,57.58567C109.38437,57.12944 109.81991,55.65744 109.98267,55.136C110.31212,54.08053 110.48491,53.56429 110.79017,52.57683C111.1739,51.33554 111.39515,50.73136 111.47867,49.84533C111.58284,48.74019 111.48641,48.12781 111.536,47.068C111.57216,46.29527 111.70799,45.09759 111.85717,44.3C112.00729,43.49735 112.10668,43.09904 112.30133,42.3C112.59402,41.09853 112.8,40.3 113,39.5C113.2,38.7 113.49253,37.49807 113.70267,36.7C113.91384,35.89799 114.13731,35.08618 114.47066,34.3C114.98952,33.07632 115.26309,32.69918 115.74,31.91067C116.20982,31.13386 116.72571,30.41821 117.1355,29.32167C117.37621,28.67754 117.48055,27.74697 117.5,26.66667C117.51269,25.96177 117.48219,25.13377 117.85267,24.25267C118.25478,23.29636 118.36395,22.46076 118.66666,21.66667C118.97897,20.84744 119.83688,20.38368 120.21467,19.61467C120.64924,18.73007 120.52896,17.88213 120.85267,16.9045C121.10518,16.14189 121.31909,15.20499 121.72134,14.4C122.05025,13.74176 122.32951,12.87999 122.52084,12C122.70484,11.15368 123.24339,10.32533 123.72134,9.621C124.21091,8.89954 124.47773,8.21381 124.4955,7.50083C124.5212,6.46964 124.56084,5.60814 124.92533,4.67467C125.19788,3.97665 125.42935,2.98673 125.85267,2.2C126.30629,1.35695 126.5,0.5 126.66666,-0.33333L127.37867,-0.7215" id="svg_15" stroke-width="3" stroke="#000" fill="none"/>
  <path t="39850,39994,40012,40029,40046,40046,40063,40080,40080,40100,40100,40117,40134,40134,40134,40151,40151,40168,40168,40168,40168,40188,40188,40188,40203,40204,40220,40220,40220,40220,40236,40236,40253,40253,40270,40270,40287,40287,40287,40303,40320,40320,40320,40337,40337,40354,40354,40371,40388,40388,40405,40405,40423,40423,40439,40456,40456,40473,40473,40490,40507,40524,40524,40541,40559,40559,40575,40575,40593,40610,40610,40627,40628,40645,40645,40645,40663,40679,40697,40697,40715,40732,40754,40771,40788,40804,40804,40825,40842,40860,40889,40921,40945,40969" d="M1.5,132.5C1.5,130.8 1.5,129.89999 1.5,128.97917C1.5,128.01601 1.40873,127.32106 1.5045,126.25267C1.58784,125.32287 1.99471,124.70004 2.33333,123.66666C2.57622,122.92545 2.97539,122.11718 3.5,121.33334C3.9337,120.68533 4.29395,119.89561 4.70133,119.09866C5.12967,118.26073 5.66314,117.33115 5.984,116.816C6.49442,115.9965 6.86651,115.46416 7.4785,114.4215C7.87661,113.74324 8.20252,113.10799 8.7,112.09866C9.00431,111.48127 9.50247,110.33428 9.7,109.81734C10.0038,109.02228 10.23183,108.23061 10.8,107.30983C11.24854,106.58294 11.74392,105.80386 12.25717,105.15266C12.91201,104.32182 13.73342,103.93913 14.33333,103.33334C14.92852,102.73233 15.19915,101.90242 15.91067,101.136C16.58283,100.41196 17.346,100.13374 18.016,99.7C18.89322,99.13211 19.29791,98.61418 19.9,97.68533C20.2995,97.06902 21.18611,96.53458 21.7,95.92934C22.19435,95.34711 22.57858,94.28879 23,93.52084C23.47616,92.65314 24.00343,92.03503 24.41733,91.3C24.85976,90.51431 25.65878,90.15845 26.25717,89.4C26.73533,88.79394 27.14285,87.92993 27.69867,87.3C28.3743,86.53429 28.57629,85.81245 29,84.97916C29.40137,84.1898 29.39009,83.27715 29.784,82.38533C30.11086,81.6453 30.46957,80.86349 30.50133,80.01466C30.53576,79.09444 30.76365,78.09103 31.02083,77.5C31.46328,76.48322 31.84491,75.92554 32.14283,75.15717C32.52982,74.15909 32.36834,73.14994 32.72133,72.4C33.08637,71.62447 33.49775,70.80001 33.5,69.9C33.50225,69 33.40454,68.05546 33.784,67.3C34.21959,66.4328 34.48095,65.79981 34.5,64.9C34.52042,63.93554 35.14734,63.44733 35.49866,62.69867L35.5,61.8L35.536,60.936L36.216,60.416" id="svg_16" stroke-width="3" stroke="#000" fill="none"/>
  <path t="41730,41803,41803,41824,41824,41840,41840,41857,41858,41873,41873,41890,41914,41931,41954,41974,41990,42007,42025,42025,42041,42041,42057,42058,42074,42074,42091,42114,42131,42154,42178,42195,42212,42229,42229,42246,42246,42264,42264,42264,42281,42298,42298,42393,42411,42428,42429,42445,42445,42462,42462,42462,42479,42479,42479,42497,42497,42497,42513,42513,42530,42547,42565,42582,42582,42600,42617,42617,42617,42633,42633,42651,42651,42668,42668,42686,42686,42703,42703,42721,42741,42786,42811,42835,42852,42870,42891,42910,42986,43026,43044,43060,43060,43060,43077,43078,43078,43095,43095,43095,43112,43112,43112,43129,43129,43129,43146,43163,43163,43180,43180,43211,43243,43243,43260,43283,43300,43300,43317,43335,43353,43370,43370,43388,43388,43405,43405,43423,43423,43441,43441,43461,43461,43461,43477,43495,43495,43511,43512,43528,43545,43563,43579,43595,43613,43630,43630,43648,43666,43682,43682,43700,43718,43718,43735,43756,43756,43773,43796,43796,43830,43848,43866,43906,44034,44062,44083,44101,44118,44137,44137,44153,44153,44153,44170,44170,44187,44187,44205,44205,44223,44223,44240,44240,44258,44258,44275,44275,44292,44314,44331,44348,44364,44382,44399,44417,44417,44434,44434,44451,44451,44469,44486,44486,44503,44503,44532,44533,44564,44651,44677,44694,44711,44731,44732,44748,44748,44765,44765,44782,44782,44798,44799,44799,44816,44817,44832,44832,44832,44852,44869,44901,45035,45053,45070,45070,45088,45088,45088,45088,45088,45105,45105,45106,45123,45123,45123,45141,45142,45157,45175,45175,45193,45211,45228,45228,45245,45245,45262,45282,45300,45325,45350,45373,45390,45407,45425,45425,45443,45459,45460,45477,45477,45495,45517,45541,45575,45576,45576,45593,45593,45593,45611,45611,45611,45628,45628,45628,45644,45644,45644,45662,45662,45679,45716,45734,45772,45772,45859,45893,45910,45927,45951,45968,45989,46013,46030,46051,46069,46093,46134,46152,46169,46187,46205,46229,46247,46269,46287,46303,46321,46338,46356,46372,46398,46398" d="M34.5,53.5C34.5,51.664 34.5,50.89867 34.5,49.9C34.5,49.1 34.5,48.10133 34.5,47.15717C34.5,46.24817 34.5,45.53067 34.5,44.49917C34.5,43.78667 34.50659,42.58638 33.79467,42.5C32.84033,42.38421 31.97917,42.5 31,42.5C30.1,42.5 29.2,42.5 28.29867,42.5C27.61467,42.5 26.664,42.50172 25.89867,42.5C24.89999,42.49775 24.08175,42.51194 23.10133,42.216C22.31759,41.97943 21.38841,41.54272 20.5,41.5C19.58506,41.45601 18.79544,41.48964 17.9,41.5C16.99982,41.51042 16.2747,41.98938 15.39983,42.37867C14.65835,42.7086 13.81714,42.81699 13.0955,43.26167C12.26763,43.7718 11.75897,44.37655 10.98533,44.93067C10.18076,45.50694 9.28464,45.76799 8.7,46.30133C8.0019,46.93818 7.50225,46.73384 7.5,45.84283C7.49811,45.0955 7.5,44.09867 7.5,43.264C7.5,42.33333 7.5,41.54733 7.5,40.72533C7.5,39.66667 7.49994,38.72533 7.5,38.04733C7.50008,37.07883 7.40763,36.27245 7.58533,35.26933C7.75854,34.29162 8.38857,33.77742 8.97917,33C9.53754,32.265 9.99612,31.64451 10.7,31.21467C11.37538,30.80222 11.99508,29.96402 12.82133,29.39983C13.48074,28.94957 14.08823,28.67714 14.74283,27.84733C15.25636,27.19636 15.75505,26.2004 16.38533,25.70133C17.10689,25.13 17.90195,24.79489 18.69983,24.40017C19.47672,24.01584 20.32221,23.58811 21.1955,23.5045C22.09589,23.4183 22.97917,23.49751 23.936,23.5C24.80001,23.50225 25.48389,23.89628 26.33333,24.33333C27.04765,24.70086 27.93924,24.90385 28.416,25.69867C28.83042,26.38955 29.98299,26.82548 30.44283,26.13833C30.9777,25.33908 30.48973,24.45446 30.58533,23.81333C30.7355,22.80623 31.02717,21.98539 31.216,21.09867C31.40622,20.20543 31.45689,19.29828 31.55267,18.4C31.64885,17.49792 31.85828,16.60592 32.07467,15.736C32.34023,14.66836 32.46329,13.96275 32.4955,13.16167C32.53714,12.12606 32.68582,11.16178 33.02083,10.5C33.45499,9.64236 34.05835,9.06119 34.44733,8.2C34.79544,7.4293 35.13955,6.7276 35.9,6.11067C36.64381,5.50724 37.55083,5.19916 38.2,4.85267C39.04937,4.39932 40,4.5 40.8045,4.5C41.82133,4.5 42.5,4.5 43.47867,4.5C44.384,4.5 45.34508,4.44609 46.10133,4.58533C47.11496,4.77196 47.71505,5.0354 48.616,5.70133C49.29565,6.2037 49.83872,6.80474 50.47917,7.5C50.94371,8.00429 51.42694,9.01725 51.7215,9.82133C51.97665,10.51782 52.66034,11.43694 53.064,12.08933C53.53964,12.85806 53.5,13.8 53.5,14.7C53.5,15.59983 53.5,16.48533 53.5,17.36133C53.5,18.33333 53.66944,19.10919 53.47917,20C53.2979,20.84868 52.57288,21.58932 51.9,22.064C51.16519,22.58237 50.27649,22.75919 49.7,23.30133C48.96873,23.98903 48.38436,24.81231 48.02083,25.47917C47.56248,26.31997 46.95274,26.82884 46.20533,27.14733C45.23794,27.55957 44.19935,27.31944 43.584,27.784C42.90079,28.29978 41.63095,28.85103 41.54667,28.07467C41.46058,27.28171 43,27.5 43.91067,27.5C44.8215,27.5 45.52083,27.5 46.5,27.5C47.3,27.5 48.1,27.5 49.1,27.5C49.9,27.5 50.9,27.5 51.7,27.5C52.7,27.5 53.5,27.5 54.5,27.5C55.28933,27.5 56.33333,27.5 57.12533,27.5C58.15717,27.5 58.90477,27.47817 59.89867,27.50133C60.66458,27.51918 61.52186,27.93124 62.33333,28.33333C63.08978,28.70816 63.3808,29.33913 64.02084,29.97917C64.66087,30.6192 65.42493,30.96225 65.72134,31.82133C65.96062,32.51486 66.43293,33.47238 66.4955,34.25267C66.56744,35.14983 66.5434,36.03381 66.92533,36.87467C67.29378,37.68583 67.48958,38.49983 67.5,39.47867C67.50824,40.25262 67.5,41.15267 67.5,42.016C67.5,42.97917 67.68451,44.14651 66.97916,44.47917C66.18378,44.8543 65.1955,44.5 64.17867,44.5C63.5,44.5 62.50421,44.6095 61.616,44.41467C60.81548,44.23906 60.09505,43.7964 59.1,43.3C58.49973,43.00054 57.5,42.5 56.9,42.2C56.1,41.8 55.31836,41.35873 54.5,41.02083C53.51943,40.61596 52.69062,40.61759 51.98533,40.416C50.97539,40.12733 50.20136,39.5286 49.3,39.5C48.40079,39.47147 48.12653,39.45052 48.70267,40.072C49.26738,40.68115 49.82373,41.67491 50.26933,42.184C50.75113,42.73444 51.28334,43.27663 51.81733,43.816C52.80965,44.81833 53.27744,45.2425 53.83833,45.8955C54.50824,46.67542 54.98711,47.49583 55.29867,48.1C55.8086,49.08886 56.15032,49.84034 56.44733,50.74283C56.72861,51.59753 57.42952,51.99271 58.14283,52.55267C58.77357,53.04779 59.44279,53.81618 59.932,54.38533C60.51305,55.06134 60.49866,56.016 60.5,56.97917C60.50127,57.9 60.5,58.8 60.5,59.7C60.5,60.6 60.56039,61.50208 60.5,62.37867C60.4427,63.2104 59.78369,63.78979 59.14817,64.2C58.24776,64.78118 57.46629,65.25436 56.74283,65.60983C55.97271,65.98823 55.52259,66.86758 54.66933,67.32933C53.96711,67.70935 52.77288,67.64808 52.33333,67C51.86282,66.30627 51.80878,65.45261 51.62133,64.42133C51.49569,63.73007 51.45696,62.80687 51.21467,61.816C51.01293,60.991 50.81779,60.44384 50.4,59.42133C50.02009,58.49154 49.6893,57.82022 49.3,56.81733C49.09433,56.2875 48.87335,55.47133 48.30133,54.47066C47.90584,53.7788 47.65237,52.77814 47.064,52.11067C46.45062,51.41482 45.74042,51.02168 45.47467,50.35067C45.12534,49.46864 44.0906,49.48663 43.5,50C42.82878,50.58345 42.80432,51.47853 42.27867,52.25717C41.79085,52.97977 41.08349,53.48449 40.5,54C39.86213,54.56356 39.52037,55.20471 39.5,56.14283C39.47976,57.07514 38.70745,57.50043 38.50134,58.30133C38.27689,59.17348 38.03959,60.0236 37.55267,60.7955C37.10956,61.49793 36.79214,62.07472 36.48933,62.88933C36.21667,63.62283 35.68109,64.13332 35.47917,65C35.25528,65.96099 34.62133,66.6 34.33333,67.5L33.85266,68.14283" id="svg_17" stroke-width="3" stroke="#000" fill="none"/>
  <path t="48368,48552,48570,48570,48590,48608,48624,48647,48664,48664,48682,48699,48717,48733,48750,48750,48767,48784,48802,48802,48819,48837,48854,48854,48874,48874,48891,48908,48925,48941,48958,48975,48991,48991,49008,49024,49042,49063,49080,49104,49136,49153,49153,49176,49217,49240,49272,49289,49289,49308,49326,49342,49361,49361,49376,49393,49393,49410,49410,49427,49444,49444,49462,49479,49479,49496,49514,49514,49531,49549,49549,49566,49566,49583,49583,49601,49619,49636,49654,49654,49671,49689,49706,49706,49728,49752,49752,49784,49801,49801,49819,49836,49870,49888,49912,49944,49961,49978,49996,50041,50072,50072,50089,50120,50137,50174,50215,50215" d="M76.5,145.5C74.74284,145.5 73.84734,145.5 72.984,145.5C72.02084,145.5 71.1,145.5 70.3,145.5C69.4,145.5 68.5,145.5 67.7,145.5C66.8,145.5 66.0276,145.25893 65.33067,144.784C64.59417,144.28212 63.5215,144.5 62.70133,144.5C61.8,144.5 60.97917,144.5 60.016,144.5C59.15267,144.5 58.25717,144.5 57.29867,144.5C56.33333,144.5 55.67467,144.5 54.66667,144.5C53.8045,144.5 52.9,144.5 52,144.5C51.1,144.5 50.2,144.5 49.3,144.5C48.4,144.5 47.5,144.5 46.7,144.5C45.8,144.5 44.9,144.5 44,144.5C43.1,144.5 42.2,144.5 41.3,144.5C40.4,144.5 39.5,144.5 38.7,144.5C37.78533,144.5 36.87086,144.50061 36.1,144.92534C35.27863,145.3779 34.46175,145.32645 33.7,145.58533C32.81209,145.88708 32.05915,146.42024 31.47917,147.02083C30.87331,147.64819 30.08048,148.10298 29.56133,148.89999C29.08584,149.62999 28.62654,150.26819 27.67467,150.47467C26.99129,150.62291 26.01069,151.01015 25.4,151.60001C24.78968,152.1895 24.09065,152.89079 23.5,153.5C22.92679,154.09122 22.66568,154.97359 22.14283,155.8C21.78526,156.36517 21.01111,157.04518 20.17867,157.60001C19.52315,158.03691 18.63829,158.46536 18.02083,159C17.36822,159.56509 16.82228,160.31535 16.47467,161.10001C16.11239,161.91777 15.73539,162.76434 15.33333,163.5C14.93138,164.23549 13.96789,164.43466 13.2,164.85266C12.359,165.31046 11.66945,165.6436 11.1,166.35066C10.46469,167.1395 9.73888,167.4574 9,168.02083C8.22516,168.61168 7.56175,168.97981 6.85717,169.55267C6.23905,170.05524 5.75341,170.81763 5.216,171.416C4.64258,172.05446 3.89752,172.13153 3.02083,172.52083C2.30994,172.8365 1.97735,173.65187 1.33333,174.33333C0.76095,174.93898 0.58352,175.71471 0.07467,176.43866C-0.42813,177.15399 -1.14733,177.55267 -1.66667,178.33333L-2.5,178.66667L-3.064,179.11067" id="svg_18" stroke-width="3" stroke="#000" fill="none"/>
  <path t="51202,51410,51426,51449,51483,51483,51513,51553,51571,51589,51589,51607,51624,51642,51665,51666,51683,51706,51723,51741,51759,51776,51792,51818,51818,51858,51900,51922,51954,51978,52081,52121,52146,52181,52181,52200,52200,52200,52217,52217,52233,52234,52250,52267,52284,52301,52318,52336,52353,52353,52372,52390,52407,52407,52424,52442,52442,52459,52475,52509,52533,52551,52573" d="M73.5,145.5C75.3,145.5 76.2,145.5 77.064,145.5C77.94283,145.5 78.68533,145.5 79.73833,145.5C80.66666,145.5 81.6,145.5 82.5,145.5C83.3,145.5 84.2,145.5 85.1,145.5C85.91067,145.5 86.85093,145.3145 87.63866,145.536C88.5629,145.79588 89.18362,146.17097 89.97916,146.52083C90.69119,146.83395 91.20449,147.49774 92.1,147.5C93.02084,147.50232 93.98267,147.5 94.79017,147.5C95.72134,147.5 96.77749,147.29977 97.416,147.784C98.09978,148.30255 98.37392,149.22559 99.11066,149.48933C99.94803,149.78909 101.0411,149.73589 101.66666,149.16667C102.24589,148.63962 102.63689,147.62743 103.32533,147.136C103.98952,146.66188 104.80006,146.2453 105.29867,145.61467C105.86562,144.89758 106.06076,143.91959 106.47467,143.14667C106.86799,142.4122 107.49337,141.8723 107.92533,141.10001C108.38291,140.28192 108.94196,139.71442 109.69867,139.21466C110.30759,138.81252 110.57636,137.81248 111,136.97917C111.40128,136.18983 111.40871,135.32083 111.50134,134.38533C111.59007,133.48907 112.2085,133.092 112.97916,132.5C113.58857,132.03188 113.85267,131.14284 114.3785,130.39999L114.5,129.5L114.66666,128.66667" id="svg_19" stroke-width="3" stroke="#000" fill="none"/>
  <path t="53301,53405,53424,53439,53455,53472,53473,53490,53490,53507,53507,53507,53524,53540,53540,53558,53558,53575,53575,53593,53610,53610,53628,53628,53645,53645,53662,53662,53679,53680,53697,53697,53714,53714,53732,53732,53749,53767,53767,53787,53804,53821,54122,54122,54140,54157,54157,54175,54175,54175,54175,54192,54192,54210,54210,54227,54227,54244,54244,54268,54268,54291,54326,54326,54343,54343,54361,54378,54378,54395,54412,54429,54429,54452,54476,54494,54511,54528,54546,54563,54563,54581,54581,54598,54615,54636,54677,54708,54740,54740,54764,54827,54860,54884,54902,54920,54937,54957,54973,54991,54991,55008,55008,55025,55025,55041,55059,55059,55078,55079,55092,55092,55109,55126,55126,55143,55143,55380,55380,55397,55415,55415,55432,55432,55432,55432,55449,55450,55450,55450,55467,55467,55484,55484,55484,55502,55502,55526,55526,55559,55577,55577,55597,55621,55638,55669,55694,55710,55727,55744,55761,55779,55779,55796,55813,55813,55829,55846,55847,55870,55887,55904,55904,55904,55921,55921,55939,55939,55956,55973,55973,55990,55991,55991,56009,56010,56027,56027,56044,56044,56062,56062,56082,56082,56095,56111,56111,56128,56128,56128,56145,56161,56178,56195,56213,56229,56229,56254,56278,56295,56326,56326,56485,56525,56545,56574" d="M116.5,159.5C116.5,161.3 116.5,162.2 116.5,163.10001C116.5,163.91066 116.5,164.8215 116.5,165.71066C116.5,166.7 116.5,167.5 116.5,168.5C116.5,169.28934 116.38227,170.02423 116.52084,171C116.66423,172.00974 117.15952,172.68849 117.3785,173.69983C117.5448,174.46785 117.31089,175.36728 117.55717,176.1955C117.82699,177.10289 118.63695,177.80188 118.97916,178.5C119.37772,179.31303 119.46332,180.14662 119.78533,180.98399C120.05936,181.69658 120.72129,182.59984 121.2,183.25267C121.72387,183.96709 122.04487,184.7117 122.6,185.4785C123.14825,186.23579 123.84516,186.76849 124.3,187.38533C124.95845,188.27829 125.23143,189.01111 125.47467,189.87466C125.73987,190.81618 125.8892,191.60316 126.69867,192.33067C127.3295,192.89763 127.5,193.60001 127.5,194.5C127.5,195.3 127.49967,196.27861 127.86166,197.16167C128.10849,197.76378 128.66208,198.66953 129.15266,199.45267C129.4968,200.00201 130.03358,200.8056 130.47833,201.57834C130.97835,202.44711 131.31116,203.33904 131.52533,204.12534C131.76111,204.99097 132.06146,205.70732 132.7,206.616C133.16544,207.27835 133.72406,207.96916 134.064,208.63867C134.5345,209.56534 134.54904,210.62659 135.14667,211.064C135.87962,211.60046 136.94901,211.34378 137.73833,211.85716C138.47261,212.33475 138.62122,213.27834 139.07466,214.10001C139.51143,214.89146 139.72829,215.81851 140,216.5C140.38849,217.47441 140.5,218.33333 140.5,219.11067C140.5,220 140.36748,220.91048 140.5045,221.8C140.64818,222.73268 141.31483,223.36469 141.464,224.32533C141.57011,225.00868 141.5,225.97917 141.5,226.89999C141.5,227.7955 141.5,228.78534 141.5,229.60001C141.5,230.5 141.10706,231.43036 141.58533,232.21466C142.07539,233.0183 142.41132,233.60439 142.5,234.5C142.58374,235.3457 143.45728,235.782 143.5,236.60001C143.54694,237.49878 143.94205,238.19481 144.37866,238.94284C144.76019,239.59648 144.84982,240.5827 145.14734,241.25267C145.5318,242.11841 145.39229,243.02419 145.52083,244C145.63124,244.83821 146.16866,245.64519 146.37849,246.47867C146.60147,247.3643 146.41861,248.34161 146.58533,249.01601C146.80696,249.91254 147.42122,250.81668 147.47917,251.52083C147.55951,252.49692 147.5,253.28934 147.5,254.33333C147.5,255.1955 147.5,256.02084 147.5,256.98801C147.5,257.78265 147.5,258.83334 147.5,259.46933C147.5,260.52084 147.5,261.25183 147.5,262.33334C147.5,263.01334 147.49944,263.95834 147.5,264.81332C147.50067,265.81467 147.46257,266.7056 147.72133,267.70001C147.88091,268.31329 148.29529,269.08527 148.44284,270.10001C148.5582,270.89337 148.5,271.89734 148.5,272.78568C148.5,273.78534 148.5,274.60016 148.5,275.38535C148.5,276.31467 148.5,277.33066 148.5,278.11066C148.5,279 148.5,279.89999 148.5,280.79999C148.5,281.70001 148.69791,282.69855 148.216,283.41733C147.77408,284.07648 147.5522,284.89432 147.14734,285.74283C146.76112,286.55228 146.53932,287.26151 145.97917,288C145.38974,288.7771 144.73511,289.22501 144.55716,290.14816C144.36407,291.14981 144.52029,292.00055 144.48933,292.78665C144.46124,293.50015 144.07951,294.6586 143.784,295.38266C143.48016,296.12704 143.44505,297.02811 143.07466,297.87466C142.65387,298.8364 142.57007,299.5354 142.33333,300.5C142.13293,301.31653 141.70471,302.08527 141.55716,303.10001C141.4418,303.89337 141.57854,304.90649 141.464,305.664C141.31694,306.63672 140.73973,307.2233 140.55716,308.15717C140.41342,308.89246 140.5,309.89868 140.5,310.84283C140.5,311.74734 140.5,312.66666 140.5,313.52084C140.5,314.5 140.5,315.28934 140.5,316.01468C140.5,317.08932 140.5,318 140.5,318.89999C140.5,319.79999 140.55437,320.70166 140.49983,321.60001C140.45711,322.30386 139.7552,323.03772 139.536,323.89999C139.31403,324.77313 139.11392,325.63837 138.784,326.29999C138.36343,327.14337 138.464,328.064 137.784,328.58401L137.50133,329.30133" id="svg_20" stroke-width="3" stroke="#000" fill="none"/>
  <path t="57553,57753,57771,57788,57789,57806,57822,57823,57839,57839,57856,57856,57875,57892,57892,57910,57910,57910,57926,57926,57944,57962,57980,57980,57999,58016,58040,58073,58091,58113,58113,58145,58200" d="M132.5,199.5C132.5,197.8 132.5,196.864 132.5,196.01601C132.5,195.15266 132.48567,194.12523 132.50017,193.17867C132.51056,192.49977 132.7027,191.50963 133.11067,190.87466C133.67322,189.99913 134.10301,189.33904 134.416,188.38533C134.70293,187.51108 135.15984,186.85387 135.60001,185.95734C135.93889,185.26711 136.14175,184.47586 136.59984,183.64301C137.01337,182.89117 137.38495,182.05681 137.85266,181.2C138.25951,180.45467 138.62346,179.7229 139.07466,178.89999C139.50241,178.11987 139.49983,177.2 139.5,176.3C139.50017,175.40016 139.83333,174.66667 140.64934,174.51067L141.54817,174.44284L142.14734,173.7955" id="svg_21" stroke-width="3" stroke="#000" fill="none"/>
  <path t="60627,60722,60742,60742,60757,60757,60774,60774,60790,60790,60790,60807,60807,60807,60824,60824,60824,60840,60840,60840,60857,60857,60857,60874,60874,60874,60874,60891,60892,60892,60909,60909,60909,60909,60926,60927,60927,60943,60943,60943,60961,60961,60961,60978,60978,60978,60978,60996,60996,60996,61013,61013,61013,61030,61031,61031,61031,61048,61048,61064,61064,61081,61081,61098,61098,61098,61116,61116,61116,61133,61133,61151,61151,61168,61184,61185,61202,61202,61220,61220,61220,61237,61237,61237,61255,61255,61255,61275,61275,61292,61292,61309,61309,61326,61327,61327,61343,61343,61343,61360,61360,61360,61377,61377,61377,61393,61393,61410,61410,61410,61427,61427,61427,61444,61444,61460,61477,61477,61495,61495,61512,61512,61529,61546,61563,61563,61580,61580,61597,61597,61614,61631,61648,61648,61666,61683,61701,61718,61736,61736,61753,61753,61770,61788,61788,61788,61805,61823,61823,61843,61866,61913,61930,61947,61947,61964,61964,61965,61982,61982,61982,61982,61999,62000,62000,62016,62016,62017,62017,62033,62033,62051,62051,62068,62068,62068,62085,62085,62086,62103,62103,62120,62121,62137,62137,62155,62155,62172,62190,62190,62210,62227,62227,62243,62243,62260,62260,62277,62294,62311,62327,62328,62344,62344,62362,62378,62378,62395,62412,62430,62430,62465,62635,62652,62652,62669,62669,62687,62705,62722,62722,62740,62740,62757,62775,62775,62795,62811,62828,62845,62862,62879,62896,62915,62915,62932,62949,62967,62985,63002,63019,63019,63036,63054,63072,63089,63107,63107,63124,63141,63163,63163,63227,63282,63315,63332,63349,63367,63367,63384,63401,63419,63436,63436,63454,63475,63507,63539,63540,63556,63574,63591,63609,63626,63626,63644,63644,63644,63661,63662,63681,63682,63698,63698,63715,63715,63731,63748,63765,63765,63781,63798,63815,63815,63832,63848,63865,63865,63882,63900,63917,63917,63917,63934,63934,63934,63952,63970,63986,64004,64028,64154,64172,64189,64206,64223,64224,64241,64241,64241,64258,64259,64259,64276,64276,64293,64311,64311,64329,64329,64346,64363,64363,64388,64388,64388,64422,64422,64440,64440,64457,64457,64474,64491,64508,64508,64525,64556,64556,64580,64599,64600,64628,64660,64685,64701,64724,64756,64811,64844,64862,64862,64880,64897,64897,64915,64915,64931,64931,64952,64952,64968,64984,64984,65004,65004,65028,65060,65077,65113,65135,65203,65204,65307,65333,65357,65391,65408,65408,65426,65443,65444,65461,65461,65478,65503,65503,65533,65644,65661,65678,65695,65713,65713,65730,65730,65747,65747,65764,65781,65781,65781,65798,65798,65815,65815,65833,65833,65850,65851,65851,65867,65868,65884,65904,65904,65904,65920,65938,65938,65938,65955,65956,65971,65971,65988,65988,66004,66004,66021,66038,66038,66054,66054,66071,66072,66092,66106,66107,66107,66123,66123,66140,66157,66174,66191,66209,66209,66227,66244,66262,66262,66279,66279,66296,66314,66314,66332,66358,66381,66399,66417,66438,66456,66472,66488,66505,66737,66757,66757,66773,66773,66774,66774,66789,66789,66790,66790,66790,66790,66806,66806,66806,66807,66807,66824,66824,66824,66824,66825,66840,66840,66840,66840,66857,66857,66874,66875,66875,66892,66892,66909,66910,66927,66927,66944,66944,66961,66979,67002,67002,67019,67019,67036,67037,67056,67077,67077,67091,67091,67107,67107,67108,67124,67124,67140,67141,67141,67158,67158,67158,67174,67174,67175,67191,67191,67208,67209,67209,67225,67225,67242,67242,67259,67259,67278,67279,67294,67294,67311,67312,67329,67329,67345,67363,67363,67380,67380,67397,67397,67397,67415,67415,67433,67433,67449,67450,67450,67467,67468,67485,67485,67485,67502,67502,67519,67520,67520,67520,67537,67537,67538,67554,67554,67554,67554,67572,67572,67591,67591,67591,67608,67609,67626,67626,67641,67642,67658,67659,67675,67675,67692,67710,67731,67748,67779,67842" d="M128.5,331.5C130.25717,331.5 131.15717,331.5 131.9045,331.5C132.89999,331.5 133.7,331.5 134.7,331.5C135.5,331.5 136.5,331.5 137.31067,331.5C138.18533,331.5 139.18533,331.5 140.02083,331.5C140.60451,331.5 141.79984,331.5 142.68933,331.5C143.54283,331.5 144.57867,331.5 145.27467,331.5C146.18401,331.5 147.18666,331.5 148.04167,331.5C148.66167,331.5 150.02116,331.5 150.74817,331.5C151.47917,331.5 152.19017,331.5 153.45734,331.5C154.24933,331.5 155.00534,331.5 156.14267,331.5C156.80533,331.5 157.5,331.5 158.532,331.5C159.73067,331.5 160.47917,331.5 161.18266,331.5C162.18533,331.5 163.02083,331.5 163.90134,331.5C164.8,331.5 165.7,331.5 166.60001,331.5C167.5,331.5 168.39999,331.5 169.3,331.5C169.89999,331.5 171.1021,331.54523 171.97917,331.45834C172.82045,331.37503 173.82291,330.93924 174.52083,330.47916C175.01384,330.15417 176.13431,329.49927 176.80533,329.26166C177.49222,329.01843 178.18645,328.81348 179.45683,328.62149C180.21353,328.50714 181.33333,328.5 182.12534,328.5C182.98666,328.5 183.74669,328.5047 184.92133,328.49985C185.45268,328.49765 186.28726,328.54205 187.33333,328.33334C188.28061,328.14435 188.88141,327.79309 189.89867,327.58401C190.83315,327.39194 191.70546,327.0614 192.384,326.784C193.28506,326.41562 194.33333,326.50061 195.12534,326.5C195.98534,326.49933 196.72633,326.53381 197.70016,326.27866C198.53854,326.05899 199.17528,325.72412 200.18533,325.58533C201.0155,325.47125 201.90134,325.50067 203.09734,325.5C203.67867,325.49966 204.48782,325.56772 205.69017,325.49551C206.38611,325.45374 207.31747,325.0202 208.10133,324.784C209.08609,324.48724 209.73602,324.51303 210.92133,324.49985C211.72534,324.49091 212.55986,324.50806 213.57867,324.27866C214.28624,324.11932 214.94167,323.79645 216.18401,323.58267C216.72168,323.49014 217.59114,323.50366 218.57851,323.05734C219.30544,322.72873 219.826,322.04672 220.89999,321.67065C221.66808,321.4017 222.70016,321.5 223.52083,321.5C224.18533,321.5 225.18484,321.52109 226,321.47916C226.81746,321.43713 228.03757,321.1452 228.65334,320.92532C229.61481,320.582 230.66667,320.5 231.32533,320.5C232.33333,320.5 233.12534,320.5 234.15266,320.5C234.84734,320.5 235.864,320.5 236.8,320.5C237.70267,320.5 238.47067,320.5 239.50534,320.5C240.24933,320.5 241.16673,320.48969 242.07866,320.5C243.00018,320.51044 243.75406,320.93024 244.60001,321.37885C245.26958,321.73392 245.8308,322.38538 246.33333,323.16666C246.80074,323.89334 247.43912,324.59387 247.5,325.5C247.55077,326.25546 247.5,327.15268 247.5,328.01599C247.5,329.02084 247.5,330.04266 247.5,330.75067C247.5,331.49466 247.5,332.52933 247.5,333.5C247.5,334.29999 247.51067,335.20007 247.5,336.10001C247.48958,336.97934 246.85304,337.4762 246.01334,337.50134C245.25288,337.52411 244.07434,337.70624 243.26401,337.936C242.68616,338.09985 241.50172,338.50531 240.89999,338.69867C240.0025,338.98709 239.40918,339.19571 238.2,339.37866C237.30508,339.51407 236.69266,339.47293 235.5,339.66666C234.59723,339.81329 234.02663,340.02383 233.18533,340.216C232.19139,340.44302 231.31071,340.49466 230.3,340.5C229.50002,340.50424 228.5,340.5 227.68933,340.5C226.81467,340.5 225.81599,340.5 225,340.5C224.18401,340.5 223.18666,340.5 222.34666,340.5C221.384,340.5 220.616,340.5 219.664,340.5C218.89867,340.5 217.9045,340.5 216.98534,340.5C216.12534,340.5 215.17867,340.5 214.32533,340.5C213.38533,340.5 212.5,340.5 211.74283,340.5C210.84283,340.5 209.89867,340.5 208.9045,340.5C208.15717,340.5 207.136,340.5 206.3,340.5C205.39999,340.5 204.5,340.5 203.74283,340.5C202.84734,340.5 201.98399,340.5 201,340.5C200.01601,340.5 199.32533,340.5 198.25717,340.5C197.39999,340.5 196.5,340.5 195.7,340.5C194.8,340.5 193.88307,340.3927 194.60017,340.72134C195.312,341.04758 196.17354,341.35101 197.01601,341.58401C197.89703,341.8277 198.75597,342.28448 199.60017,342.7215C200.18828,343.02594 200.96201,343.74368 201.67467,344.064C202.59018,344.47549 203.53189,344.62653 204.10001,345.11066C204.84537,345.74585 205.64972,346.08511 206.33333,346.66666C206.99934,347.23325 207.32602,347.98505 208.02083,348.5C208.70946,349.01038 209.42842,349.58746 210.10001,350.064C210.82565,350.57889 211.37706,351.21698 212.11067,351.48932C212.94493,351.79904 213.80376,351.85312 214.5,352.5C215.10327,353.06049 215.84808,353.52164 216.52533,354.07468C217.16861,354.59998 217.90883,354.92682 218.60001,355.60001C219.20787,356.19205 219.99957,356.83466 220.37866,357.60001C220.79808,358.44678 221.31973,359.08688 221.5,359.936C221.67941,360.78116 221.65044,361.71271 221.49983,362.59982C221.35513,363.45218 220.4431,363.7897 219.8,364.14734C218.94688,364.62177 218.15427,365.0274 217.3,365.41599C216.53688,365.76312 215.84631,366.29514 215,366.47916C214.12001,366.6705 213.2812,367.00052 212.5,367.33334C211.74846,367.65353 210.8,367.5 209.89999,367.5C209,367.5 208.08934,367.5 207.1785,367.5C206.47917,367.5 205.5,367.5 204.7,367.5C203.89999,367.5 202.89999,367.5 202.10001,367.5C201.10001,367.5 200.29984,367.51849 199.30017,367.49985C198.33549,367.48184 197.54959,367.22736 196.8045,366.85266C195.92871,366.41223 195.10768,366.05579 194.39999,365.40018C193.80637,364.85022 192.93217,364.62396 192.2,364.14282C191.40576,363.62091 190.9205,362.89334 190.10001,362.52533C189.3174,362.17432 188.47371,361.73755 187.8,361.44733C186.95821,361.08472 186.13657,360.66028 185.33333,360.16666C184.6084,359.72116 184.11462,359.1199 183.5215,358.30017C183.1086,357.72952 182.83275,356.87332 182.10001,356.14667C181.40631,355.45874 180.68954,355.00946 180.064,354.52533C179.31819,353.94815 177.8877,354.04721 177.972,353.5C178.11331,352.58282 179.82529,353.41827 180.66667,353.66666C181.34917,353.86813 182.34225,354.48825 182.88533,354.91068C183.47937,355.37271 184.26801,355.98401 185,356.5C185.73199,357.01599 186.54512,357.59695 187.07866,358.08932C187.82283,358.77606 188.5,359.5 189,360C189.7,360.70001 190.3,361.29999 190.89999,361.89999C191.60016,362.60016 192.13599,363.13599 192.82117,363.82117C193.47917,364.47916 194.02852,364.85901 194.66667,365.83334C195.09039,366.48029 195.46497,367.36206 196,367.97916C196.65762,368.73764 197.15176,369.32617 197.55267,370.20001C197.88547,370.92538 198.59999,371.60001 199.2,372.20001C199.79999,372.79999 200.50034,373.49966 201.10001,374.10001C201.69901,374.69968 202.26245,375.52631 202.55267,376.20001C202.9153,377.04178 203.27687,377.82651 203.50133,378.69867C203.70744,379.49957 204.48199,379.93549 204.5,380.89999C204.5168,381.79984 204.68884,382.76453 204.33333,383.5C203.96857,384.25461 202.97934,384.48956 202.01466,384.5C201.28938,384.50784 200.30017,384.5 199.52083,384.5C198.52133,384.5 197.74733,384.5 196.67467,384.5C195.98399,384.5 195,384.5 194.01466,384.5C193.28934,384.5 192.30034,384.5 191.54167,384.5C190.48534,384.5 189.56842,384.89243 188.78534,384.41467C187.98175,383.92444 187.73871,383.13837 187.2785,382.40018C186.83139,381.68301 185.64645,381.54611 185.50133,382.30133C185.32896,383.19824 185.5,384.14667 185.5,384.98401C185.5,385.84732 185.5,386.74283 185.5,387.70267C185.5,388.47067 185.5,389.50082 185.5,390.21335C185.5,391.24667 185.5,392.06934 185.5,392.85184C185.5,393.86401 185.75462,395.06891 185.064,395.46399C184.31339,395.89337 183.29866,395.5 182.33333,395.5C181.5,395.5 180.52133,395.5 179.74733,395.5C178.84734,395.5 177.98399,395.5 177.11467,395.5C176.16667,395.5 175.24933,395.50049 174.50534,395.5C173.46933,395.49933 172.60318,395.45209 171.84283,395.14282C171.07947,394.83234 170.11288,394.27194 169.5,394.02084C168.51833,393.61865 167.69139,393.57617 166.89999,393.41599C165.88937,393.21143 165.16924,392.81348 164.25267,392.55267C163.34361,392.29401 162.65105,392.10553 161.98399,391.69867C161.09035,391.15359 160.35632,390.45746 159.664,390.11066C158.92047,389.73819 157.90121,389.53317 157.10001,389.50449C156.10196,389.46875 155.2829,389.6152 154.384,389.21466C153.68773,388.90442 152.87021,388.15439 152.15266,387.85718C151.2762,387.49414 150.3295,387.56165 149.5,387.47916C148.65816,387.39545 147.91411,386.80054 147.01601,386.58533C146.17276,386.38327 145.23262,386.58386 144.33333,386.33334C143.64207,386.14078 142.91388,385.70197 141.9045,385.55716C140.99298,385.42639 140.02083,385.5 139.2,385.5C138.3,385.5 137.39999,385.5 136.5,385.5C135.7,385.5 134.8,385.5 133.864,385.5C133.01466,385.5 132.0955,385.5 131.10133,385.5C130.336,385.5 129.38533,385.5 128.5,385.5C127.7,385.5 126.8,385.5 125.9,385.5C125,385.5 124.08263,385.41052 123.47467,384.92532C122.85017,384.42694 121.90626,384.48474 121.44733,383.7955C120.94569,383.04208 120.18249,382.58298 119.51466,382.07468C118.90675,381.612 118.03384,381.50226 117.078,381.5C116.232,381.49802 115.58134,381.50003 114.84267,381.5C113.53567,381.49991 112.53297,381.49738 112.00267,381.48932C111.45831,381.48105 110.34315,381.45178 109.78133,381.41467C108.11971,381.30493 107.5849,381.22638 106.54667,381.064C106.04074,380.98486 105.05982,380.80408 103.66666,380.5C103.22105,380.40274 102.36047,380.20483 101.54166,380C100.7605,379.8046 99.66637,379.50101 98.66167,379.2045C98.04148,379.02145 97.19344,378.74814 96.18533,378.58401C95.31532,378.44238 94.29855,378.28281 93.5,378C92.89889,377.78711 91.89397,377.59122 91.1,377.44733C90.09132,377.26453 89.356,376.86331 88.384,376.58401C87.62841,376.36688 86.68981,376.03571 85.984,375.784C85.03818,375.44672 84.25985,375.00717 83.33334,374.66666C82.70306,374.435 81.66666,374.5 80.87466,374.5C79.84734,374.5 79.15266,374.5 78.12534,374.5C77.17867,374.5 76.32533,374.5 75.38267,374.5C74.69017,374.5 73.73067,374.5 72.97916,374.5C72.18266,374.5 70.95267,374.5 70.27467,374.5C69.07867,374.5 68.54733,374.5 67.72533,374.5C66.66666,374.5 65.72533,374.5 65.04733,374.5C63.816,374.5 63,374.5 62.184,374.5C61.184,374.5 60.5,374.5 59.33333,374.5C58.55183,374.5 57.76133,374.5 56.83333,374.5C55.88533,374.5 55.01467,374.5 54.28933,374.5C53.3,374.5 52.5,374.5 51.5,374.5C50.71067,374.5 49.66667,374.5 48.87467,374.5C47.84283,374.5 47.0955,374.5 46.10133,374.5C45.336,374.5 44.384,374.5 43.33333,374.5C42.67467,374.5 41.66667,374.5 40.83867,374.5C39.95717,374.5 38.97917,374.5 38.18267,374.5C37.18667,374.5 36.34586,374.53809 35.38267,374.49866C34.6885,374.47025 33.72529,374.23456 33,373.97916C32.26061,373.71878 31.35165,373.10458 30.532,372.78534C29.7621,372.48547 28.97317,372.54471 28.18267,372.41599C26.93474,372.21277 26.24681,371.86615 25.16667,371.5C24.53646,371.28638 23.84636,371.11017 22.80533,370.79999C21.83045,370.50949 21.00906,370.20187 20.28533,369.89999C19.33231,369.50247 18.55113,369.19275 18,369.02084C17.18922,368.76794 15.94359,368.60999 15.31067,368.43866C14.26792,368.1564 13.70508,367.63239 13.1,367.14816C12.30675,366.51337 11.55101,365.96359 10.66667,365.66666C9.77069,365.36581 8.82763,365.17972 8.15267,364.7955C7.35851,364.34344 6.77838,363.73929 5.84733,363.55716C4.99829,363.39108 4.00752,363.64572 3.1,363.48932C2.26812,363.34595 1.62133,362.62134 0.97917,362L0.2045,361.55267" id="svg_22" stroke-width="3" stroke="#000" fill="none"/>
  <path t="68614,68798,68798,68798,68820,68820,68820,68820,68833,68833,68833,68833,68850,68850,68850,68867,68867,68867,68885,68885,68885,68902,68902,68902,68919,68919,68919,68937,68937,68955,68955,68971,68971,68971,68989,68989,69006,69006,69006,69023,69023,69023,69024,69041,69041,69041,69058,69059,69059,69059,69077,69078,69078,69095,69095,69112,69112,69131,69132,69148,69148,69165,69165,69182,69182,69199,69199,69216,69216,69216,69232,69232,69249,69249,69265,69266,69282,69283,69300,69300,69317,69317,69334,69334,69334,69351,69351,69368,69368,69385,69386,69386,69403,69403,69420,69420,69420,69437,69437,69437,69454,69454,69454,69472,69472,69489,69489,69489,69506,69507,69507,69524,69524,69541,69541,69558,69558,69558,69576,69576,69593,69593,69593,69611,69611,69611,69628,69628,69628,69646,69646,69663,69663,69663,69680,69680,69680,69699,69699,69716,69717,69733,69733,69750,69766,69766,69784,69800,69846,69926" d="M15.5,291.5C17.27067,292.98532 18.04062,293.5224 18.609,293.90451C19.49837,294.50244 20.4,295.10001 21,295.5C21.6,295.89999 22.50315,296.49533 23.3955,297.10001C23.98125,297.49695 24.56237,297.87531 25.5785,298.69983C26.05221,299.0842 26.66124,299.69955 27.5,300.33334C28.0816,300.77283 28.9236,301.22083 29.7,301.82132C30.31985,302.30072 30.85825,302.90421 31.70017,303.47833C32.48565,304.01398 33.1786,304.24963 34.18267,304.41733C34.97489,304.54965 35.83673,304.51382 36.69017,305.20984C37.34935,305.74744 37.96631,306.64432 38.52083,306.97916C39.47024,307.55246 40.11667,307.76273 40.84283,308.20001C41.77695,308.76251 42.2679,309.3027 42.8215,310.04285C43.35079,310.75049 43.67791,311.31082 44.5,312.33334C45.08189,313.0571 45.48024,313.51093 46.18533,314.01334C47.13619,314.69089 47.74032,314.8649 48.6045,315.25266C49.50461,315.65652 50.3982,316.14819 50.97917,316.5C51.5455,316.84296 52.57238,317.48956 53.264,317.86401C54.09156,318.31204 54.91289,318.67389 55.664,319.10001C56.4954,319.57166 57.10063,320.13702 57.984,320.70001C58.65706,321.12897 59.46679,321.61575 60.12533,322.10001C60.96926,322.72058 61.6917,323.07361 62.47867,323.59982C63.14038,324.0423 63.98804,324.39929 64.71066,324.52533C65.70425,324.69864 66.50307,325.01434 67.1,325.30133C68.10529,325.78464 68.88066,326.22784 69.89867,326.41467C70.655,326.55347 71.63106,326.41223 72.384,326.58533C73.36919,326.81183 73.88939,327.21143 74.9,327.41599C75.69138,327.57617 76.69814,327.72672 77.5,328C78.49774,328.34006 79.30853,328.42429 80.1,328.58401C81.11499,328.78885 81.67783,329.16058 82.7,329.37851C83.48858,329.54663 84.50106,329.46814 85.3,329.51068C86.10234,329.55341 87.09543,329.88037 87.736,330.07468C88.90697,330.42984 89.72491,330.47797 90.54733,330.49551C91.57844,330.51752 92.27467,330.5 93.184,330.5C94.184,330.5 95,330.5 95.816,330.5C96.816,330.5 97.5,330.5 98.66666,330.5C99.45267,330.5 100.27467,330.5 101.33334,330.5C102.04283,330.5 102.8955,330.5 103.9,330.5C104.7,330.5 105.7,330.5 106.5,330.5C107.5,330.5 108.3,330.5 109.1,330.5C110.1045,330.5 110.95717,330.5 111.92133,330.5C112.72533,330.5 113.54733,330.5 114.57867,330.5C115.5,330.5 116.184,330.5 117.184,330.5C118,330.5 118.816,330.5 119.816,330.5C120.72533,330.5 121.66666,330.5 122.45267,330.5C123.27467,330.5 124.33334,330.5 125.264,330.5C126.09866,330.5 127.1,330.5 127.9,330.5C128.89867,330.5 129.664,330.5 130.616,330.5C131.384,330.5 132.32533,330.5 133.33333,330.5C134.08934,330.5 135,330.5 135.89999,330.5L136.8,330.5L137.69867,330.50134" id="svg_23" stroke-width="3" stroke="#000" fill="none"/>
  <path t="70568,70687,70704,70722,70722,70740,70740,70757,70757,70757,70757,70774,70774,70774,70792,70792,70792,70809,70809,70809,70827,70827,70827,70844,70844,70844,70844,70861,70861,70861,70861,70879,70879,70879,70896,70896,70896,70896,70913,70913,70913,70931,70931,70931,70931,70952,70952,70952,70970,70970,70970,70986,71002,71002,71002,71019,71020,71037,71037,71053,71053,71071,71071,71071,71086,71086,71086,71103,71103,71120,71120,71138,71138,71155,71172,71172,71172,71189,71207,71207,71207,71224,71224,71224,71241,71241,71242,71259,71259,71259,71277,71277,71277,71293,71294,71311,71311,71329,71346,71346,71363,71381,71399,71423,71510" d="M12.5,292.5C12.5,290.79999 12.5,289.86401 12.5,289.01468C12.5,288.09549 12.5,287.09866 12.5,286.26401C12.5,285.33334 12.48469,284.54187 12.536,283.68933C12.57161,283.09769 12.74723,281.88895 13.04167,281.02084C13.23603,280.44781 13.80208,279.40692 14.32533,278.73599C14.8292,278.08994 15.48362,277.30322 15.87467,276.70001C16.39057,275.90421 16.99037,275.1015 17.52083,274.45834C17.9082,273.98868 18.70686,272.86142 19.1,272.19467C19.50715,271.50415 19.87003,270.78616 20.5,269.83334C20.88091,269.2572 21.4984,268.53516 21.84283,268.05182C22.51745,267.10513 22.86249,266.26895 23.12533,265.72534C23.64294,264.65485 24.15012,263.94684 24.71067,263.27466C25.09652,262.81195 25.90557,261.81866 26.3,261.26401C26.70577,260.69339 27.50094,259.50064 27.89867,258.90134C28.29026,258.31128 28.68325,257.7478 29.33333,256.66666C29.75547,255.96461 30.08617,255.30907 30.6,254.30017C30.99756,253.51958 31.28328,252.97342 31.9,252.12534C32.48438,251.32173 32.86824,250.65527 33.3,249.98399C33.86998,249.09781 34.385,248.61566 35.15267,247.84734C35.67444,247.3251 36.51008,246.54993 36.97917,246C37.64748,245.21651 37.99666,244.46327 38.38533,243.89867C38.95115,243.07672 39.49282,242.48877 40.10133,241.98534C41.05009,241.20041 41.82512,241.00366 42.33067,240.01601C42.65634,239.37975 42.74262,238.35091 43.30133,237.70134C43.85961,237.05228 44.50688,236.33746 44.9,235.67467C45.30717,234.98819 45.87086,234.08543 46.66667,233.5C47.2965,233.03667 48.08678,232.5779 48.616,231.73067C49.0631,231.01491 49.18328,230.40654 49.8215,229.42149C50.28755,228.70218 50.90439,228.1044 51.69983,227.3C52.09545,226.89993 52.70298,226.33105 53.33333,225.5C53.91175,224.73741 54.17573,224.07619 54.984,223.38533C55.62106,222.84082 56.5046,222.42987 57.1955,221.8C57.82491,221.22618 58.42842,220.41252 59.1,219.936C59.82566,219.42111 60.5,219 61.11067,218.47467L61.88933,218.07466L62.5,217.33333" id="svg_24" stroke-width="3" stroke="#000" fill="none"/>
  <path t="72690,72874,72892,72909,72926,72926,72926,72943,72943,72960,72961,72978,72978,72995,72995,73013,73013,73030,73030,73047,73047,73065,73083,73083,73083,73100,73100,73117,73134,73134,73152,73152,73169,73187,73208,73208,73224,73241,73241,73258,73258,73275,73275,73291,73291,73311,73311,73326,73343,73343,73343,73360,73377,73377,73377,73395,73411,73411,73429,73429,73446,73446,73463,73463,73480,73498,73516,73533,73550,73550,73567,73585,73602,73602,73602,73619,73637,73637,73637,73654,73655,73675,73676,73991,73991,74010,74026,74026,74027,74043,74043,74043,74061,74061,74061,74078,74078,74096,74096,74113,74113,74130,74147,74164,74181,74181,74199,74199,74215,74215,74233,74233,74250,74267,74268,74268,74285,74286,74303,74319,74319,74354,74354,74354,74372,74389,74390,74407,74423,74444,74461,74461,74478,74496,74496,74496,74511,74512,74528,74528,74528,74545,74545,74562,74562,74579,74579,74579,74596,74596,74614,74614,74631,74631,74631,74648,74665,74682,74683,74683,74699,74699,74699,74717,74717,74734,74751,74769,74804,74821,74838,74855,74872,74889,74889,74936,75032,75065,75120,75138" d="M37.5,250.5C39.33333,250.5 40.11067,250.5 41.04167,250.5C42.04267,250.5 42.75067,250.5 43.49467,250.5C44.69017,250.5 45.38267,250.5 46.336,250.5C47.10133,250.5 48.1,250.5 48.9,250.5C49.9,250.5 50.7,250.5 51.69983,250.5C52.47917,250.5 53.47867,250.5 54.384,250.5C55.32533,250.5 56.016,250.5 57.02083,250.5C58.04267,250.5 58.75067,250.5 59.49467,250.5C60.69017,250.5 61.38267,250.5 62.32533,250.5C63.33333,250.5 64.12534,250.5 64.984,250.5C65.84734,250.5 66.864,250.5 67.7,250.5C68.60017,250.5 69.38533,250.5 70.32533,250.5C71.33334,250.5 72.12534,250.5 72.98534,250.5C73.9045,250.5 74.90656,250.57904 75.664,250.464C76.63696,250.31624 77.22456,249.75111 77.984,249.30133C78.81937,248.80658 79.76692,248.62271 80.66666,248.33333C81.34409,248.11545 82.02798,247.7155 82.87466,247.10001C83.67836,246.51575 84.3026,246.05722 85.016,245.78534C85.95468,245.4276 86.78768,245.11993 87.38533,244.69867C88.30095,244.05328 88.92789,243.81938 89.61467,243.01601C90.15923,242.379 90.57342,241.49873 91.1,240.91066C91.76332,240.16988 92.1553,239.25662 92.72134,238.62134C93.25683,238.02034 93.81104,237.45544 94.216,236.7C94.62124,235.94403 94.9726,235.11531 95.5,234.33333C95.93089,233.69444 96.28362,232.97231 96.9,232.12534C97.48467,231.32195 97.90714,230.66769 98.3,229.89867C98.70609,229.10376 99.14004,228.32083 99.37867,227.30017C99.55824,226.53215 99.68845,225.67804 100.07467,224.91066C100.48763,224.09013 100.5,223.16667 100.5,222.49017C100.5,221.44817 100.5,220.42134 100.5,219.72533C100.5,218.81599 100.5,217.81599 100.5,217C100.5,216.18401 100.5,215.18533 100.5,214.31067C100.5,213.30017 100.5,212.52083 100.5,211.66667C100.5,210.8045 100.5,209.89999 100.5,209C100.5,208.08934 100.5,207.1785 100.5,206.28934C100.5,205.30017 100.5,204.52083 100.5,203.66667C100.5,202.74733 100.5,201.84734 100.5,201.15266C100.5,200.11467 100.5,199.16667 100.5,198.24933C100.5,197.50534 100.5,196.47067 100.5,195.70267C100.5,194.74283 100.5,193.85184 100.5,193.06934C100.5,192 100.5,191.21333 100.5,190.50084C100.5,189.47067 100.5,188.5 100.5,187.7C100.5,186.8 100.5,185.89999 100.5,184.97917C100.5,184.01601 100.59126,183.32106 100.4955,182.25267C100.41216,181.32286 100.02187,180.68202 99.784,179.89867C99.48487,178.91357 99.48499,178.03548 99.27866,177.07883C99.10593,176.27795 98.85694,175.50871 98.58266,174.46933C98.39312,173.75105 97.92459,173.01978 97.31467,172.28934C96.6601,171.50543 96.26963,170.8968 95.8045,170.15717C95.31303,169.37566 94.7647,168.77022 94.3,168.01466C93.86606,167.30911 93.40975,166.2951 93.1,165.71066C92.7121,164.97879 92.07518,164.15738 91.58266,163.3C91.13352,162.51813 90.57108,162.15051 89.98267,161.52933C89.29753,160.80605 89.04713,159.98795 88.70133,159.26801C88.23486,158.2968 87.77669,157.61383 87,157.02083C86.26636,156.46068 85.81245,156.01976 85.4955,155.14734C85.21713,154.38113 84.47516,153.84323 83.64933,153.52533C82.7727,153.18787 82.5372,152.49913 82.5,151.7C82.45728,150.78236 81.62133,150.27867 81.216,149.584L80.52533,149.07466L80,148.5" id="svg_25" stroke-width="3" stroke="#000" fill="none"/>
  <path t="75779,75932,75950,75950,75967,75994,75995,76012,76012,76032,76049,76050,76066,76066,76084,76099,76099,76099,76115,76116,76133,76133,76149,76149,76166,76167,76183,76184,76200,76217,76234,76252,76252,76269,76269,76286,76286,76303,76320,76320,76338,76356,76356,76373,76373,76390,76408,76408,76426,76426,76443,76461,76461,76461,76478,76479,76496,76497,76497,76514,76514,76514,76534,76534,76534,76535,76552,76552,76552,76569,76569,76569,76585,76601,76602,76898,76898,76918,76936,76936,76953,76953,76953,76970,76970,76987,77002,77002,77003,77020,77020,77036,77054,77054,77071,77089,77089,77105,77122,77140,77140,77171,77172,77210,77228,77253,77269,77300,77320,77348" d="M92.5,148.5C93.97916,150.02083 94.26154,150.85112 94.52533,151.63867C94.81396,152.50037 95.7042,153.06664 96.1,153.68533C96.60522,154.47508 97.05476,155.2431 97.52084,156C97.98714,156.75725 98.74543,157.01596 99.61333,157.7C100.18274,158.14877 100.46193,159.05086 100.7215,160.04266C100.9088,160.75835 101.12606,161.53596 101.7,162.53067C102.05376,163.14378 102.74946,163.96191 103.064,164.71066C103.38702,165.47958 103.29626,166.33855 103.66666,167.33333C103.9726,168.15497 104.81136,168.61913 105.21467,169.3C105.70461,170.12715 105.9856,171.0083 106.45184,171.8C106.92812,172.60875 107.67493,172.82913 108.25716,173.60017C108.76936,174.27846 108.80362,175.18239 109.30133,176.01601C109.75318,176.77283 110.5625,177.44684 110.97916,178C111.53919,178.74348 111.66666,179.66667 112,180.5C112.33334,181.33333 112.50053,182.226 112.936,182.91066C113.4422,183.70653 114.04397,184.47534 114.33334,185.33333C114.58261,186.07243 114.97538,186.88281 115.5,187.66667C115.93369,188.31468 116.30027,189.1012 116.7,189.89999C117.10027,190.69986 117.50972,191.49527 117.9,192.31067C118.2077,192.95354 118.60829,193.91849 118.9,194.73599C119.20881,195.60141 119.50001,196.5 119.8,197.39999C120.00001,198 120.29843,198.90051 120.6,199.79984C120.89845,200.68985 121.18518,201.54861 121.5,202.33333C121.87196,203.26048 122.23119,204.00851 122.47467,204.87466C122.7394,205.81644 123.10329,206.46608 123.3785,207.4785C123.56907,208.17953 123.48794,209.18704 124.21433,209.8045C124.84607,210.34151 125.7123,210.80711 126.28934,211.32533C126.85539,211.83369 127.61686,212.61249 128.1955,213.1955C128.90268,213.908 129.5179,214.6563 129.89999,215.336C130.21498,215.89633 130.62704,216.94231 131.10001,217.62801C131.62463,218.3886 132.62589,218.69101 133.2,219.2045C133.83009,219.76807 134.58931,220.42712 135.064,221.10001C135.58235,221.83481 135.68576,222.83278 136.5,223.33333C137.14117,223.72748 137.88319,224.37187 138.3,225.01733C138.77661,225.75539 139.15483,226.74379 139.72133,227.37866C140.25681,227.97878 140.92534,228.47467 141.5,229L142.14734,229.55267" id="svg_26" stroke-width="3" stroke="#000" fill="none"/>
  <path t="78743,78919,78937,78952,78975,78992,79007,79025,79042,79042,79057,79075,79092,79115,79116,79150,79167,79184,79185,79207,79236,79253,79276,79276,79300,79318,79335,79353,79370,79387,79404,79425,79425,79452,79475,79532,79549,79574,79574,79591,79607,79624,79642,79642,79658,79658,79674,79691,79691,79708,79708,79732,79749,79767,79784,79804,79804,79821,79841,79858,79875,79891,79892,79925,79942,79942,79959,79976,80011,80029,80029,80048,80066,80066,80084,80084,80101,80101,80118,80118,80118,80135,80135,80135,80153,80153,80153,80153,80170,80170,80170,80188,80188,80188,80205,80206,80206,80223,80223,80223,80240,80240,80240,80258,80258,80258,80275,80276,80276,80295,80295,80295,80311,80311,80311,80566,80566,80583,80584,80601,80601,80601,80601,80618,80618,80618,80618,80636,80636,80636,80636,80653,80653,80653,80653,80670,80670,80670,80688,80688,80688,80688,80705,80705,80722,80722,80722,80740,80740,80755,80755,80755,80755,80771,80772,80789,80789,80807,80807,80824,80824,80824,80844,80844,80861,80861,80878,80878,80895,80895,80895,80911,80911,80928,80928,80928,80945,80945,80961,80961,80962,80979,80979,80995,80995,80995,81012,81012,81012,81012,81029,81029,81046,81047,81047,81064,81064,81082,81082,81082,81100,81100,81116,81116,81133,81150,81168,81168,81186,81186,81203,81220,81237,81264,81280,81295,81312,81313,81333,81353,81368,81386,81403,81421,81456,81473,81473,81491,81491,81508,81526,81543,81562,81580,81580,81580,81596,81596,81596,81613,81613,81632,81632,81649,81649,81666,81682,81683,81700,81718,81735,81735,81753,81753,81770,81788,81789,81806,81823,81841,81866,81866,81881,81899,81920,81945" d="M244.5,324.5C246.3,324.5 247.2,324.5 248.10001,324.5C248.89999,324.5 249.8,324.5 250.7,324.5C251.60001,324.5 252.5,324.5 253.3,324.5C254.2,324.5 255.10001,324.5 256.02084,324.5C256.98267,324.5 257.79016,324.5 258.78534,324.5C259.60001,324.5 260.5,324.4949 261.38535,324.5C262.31473,324.50534 262.99295,324.8457 263.7215,325.37866C264.39145,325.86874 265.15799,326.25043 265.79999,326.7955C266.55457,327.43616 267.267,327.80801 267.85266,328.44733C268.38699,329.03058 269.09601,329.64017 269.44284,330.45184C269.74152,331.15085 269.5,332.01733 269.5,332.97916C269.5,333.97916 269.60013,334.86331 269.49866,335.70001C269.38712,336.61978 268.66379,337.26855 268.51068,338.10001C268.3476,338.98566 268.15756,339.81381 267.5,340.5C266.9129,341.11264 266.30438,341.70444 265.70001,342.29999C264.98431,343.00528 264.31345,343.46906 263.52084,344C262.81458,344.47311 262.56091,345.41806 261.97916,345.97916C261.32657,346.60858 260.12027,346.25308 259.55267,346.85718C258.93088,347.51898 258.77475,348.38824 258,348.97916C257.26608,349.53894 256.7366,349.95709 256.21466,350.69867C255.66455,351.48029 255.00687,351.78046 254.2785,352.37866C253.54987,352.97708 253.0528,353.32184 252.47467,354.064C251.98857,354.68802 251.27045,355.2063 250.5,355.66666C249.7805,356.09659 249.64644,357.08401 249.13834,357.79999C248.71873,358.39124 247.84766,358.80914 247.0955,359.20001C246.10753,359.71344 245.43613,359.92194 244.66667,360.66666C244.0481,361.26535 243.78558,361.93332 243.17833,362.70001C242.68333,363.32498 242.05788,363.92404 241.07866,364.70001C240.55742,365.11307 239.99014,365.48682 239.18401,366.10001C238.41185,366.68735 237.74986,367.30557 237.10451,367.84283C236.31644,368.49893 235.67963,368.84402 234.89999,369.384C234.07729,369.95383 233.49542,370.51614 232.89999,371.10132C232.09375,371.89368 231.7,372.29999 231.10001,372.89999C230.3,373.70001 229.7,374.29999 229.10001,374.89999C228.3,375.70001 227.89999,376.10001 227.3,376.70001C226.50002,377.5 225.91727,378.11429 225.3,378.664C224.52104,379.35773 223.91032,379.7616 223.10001,380.1955C222.30965,380.61868 221.48177,380.9924 220.89999,381.38535C220.07353,381.94354 219.41185,382.75256 218.66667,383.16666C217.86372,383.61288 216.99968,383.48355 216.133,383.509C215.45782,383.52884 214.36034,383.59915 213.3215,383.94299C212.64024,384.16849 212.0127,384.52835 211.4045,384.909C210.18309,385.67346 209.60457,386.10272 209,386.47916C208.4044,386.85001 207.20309,387.48572 206.60001,387.74734C205.70448,388.13583 205.07797,388.34195 203.90134,388.98532C203.29863,389.31488 202.71353,389.68112 201.66667,390.5C201.17439,390.88507 200.53923,391.50122 199.90134,392.01468C199.12154,392.6424 198.30217,393.09357 197.5,393.5C196.70213,393.90424 196.10303,394.20612 195.09866,394.70001C194.481,395.00375 193.33498,395.5043 192.81599,395.70001C192.00252,396.00677 191.17091,396.2688 190.18666,396.70001C189.33449,397.07336 188.53006,397.61151 187.87466,398.10001C187.18744,398.61221 186.48053,399.00269 185.5,399.5C184.90532,399.80161 184.15717,400.20001 183.25267,400.7955C182.616,401.21466 181.65608,401.42908 180.89867,401.58401C179.88121,401.79214 179.27847,402.13391 178.33333,402.33334C177.56058,402.4964 176.71248,402.34027 175.64284,402.72168C174.82471,403.0134 174.19498,403.83896 173.664,404.31467C173.112,404.8092 172.10199,405.33954 171.3,405.51468C170.30235,405.73254 169.49718,406.01489 168.89999,406.30133C167.89063,406.78549 167.28218,407.14285 166.07851,407.37866C165.54852,407.48248 164.68317,407.48068 163.5,407.66666C162.89734,407.76138 162.02666,408.02396 161.18533,408.216C160.19009,408.44321 159.2747,408.49194 158.33333,408.5C157.55185,408.50668 156.73032,408.40073 155.64267,408.72134C154.97076,408.9194 153.96013,409.4061 153.24933,409.46399C152.50713,409.52441 151.29599,409.42557 150.61734,409.58533C149.64189,409.81494 149.00804,410.32968 148.02083,410.47916C147.0993,410.61868 146.18149,410.72833 145.5,411C144.52544,411.38852 143.70134,411.49933 142.89999,411.5C142,411.50076 141.10001,411.5 140.2,411.5C139.3,411.5 138.39999,411.5 137.5,411.5C136.7,411.5 135.8,411.5 134.89999,411.5C134,411.5 133.10001,411.5 132.2,411.5C131.2045,411.5 130.68965,411.16592 130.16667,410.5C129.65196,409.8446 128.62558,409.42981 128.50267,408.70001C128.3532,407.81247 128.48946,406.89993 128.5,406C128.51067,405.08914 128.93542,404.17236 129.36133,403.664C129.84354,403.08844 130.50677,402.31699 130.97917,401.5C131.31944,400.91153 131.76949,399.88736 132.2,399.15717C132.66763,398.36401 133.2149,397.75717 133.8,396.85184C134.21057,396.21655 134.96109,395.67749 135.7,395.21466C136.37065,394.79459 136.9429,393.90491 137.8045,393.55267C138.62798,393.21603 139.36353,393.12738 140.33333,392.5C141.00853,392.0632 141.75363,391.711 142.60001,391.27866C143.25531,390.94394 144.1178,390.50842 144.89999,390.07468C145.72014,389.6199 146.5034,389.57367 147.3,389.5C148.22649,389.41431 148.5,388.5 148.784,387.66934L149.464,387.07468" id="svg_27" stroke-width="3" stroke="#000" fill="none"/>
  <path t="82619,82810,82828,82828,82845,82845,82862,82863,82880,82880,82880,82898,82898,82898,82914,82915,82915,82915,82932,82932,82932,82950,82950,82969,82986,82986,83002,83002,83019,83019,83037,83053,83053,83070,83070,83086,83086,83086,83107,83107,83119,83119,83119,83137,83161,83161,83186,83203,83220,83256,83281,83298,83316,83334,83351,83351,83407,83457,83503,83528,83546,83571,83587,83610,83635,83654,83672,83688,83706,83721,83738,83739,83755,83771,83771,83790,83790,83805,83822,83840,83840,83857,83857,83875,83892,83892,83909,83927,83927,83944,83944,83960,83960,83978,83978,83978,83995,83995,84012,84013,84013,84030,84030,84030,84047,84064,84064,84082,84099,84099,84116,84116,84134,84152,84169,84186,84205,84205,84222,84242,84259,84290" d="M119.5,380.5C119.5,378.74283 119.5,377.84283 119.5,377.09549C119.5,376.10001 119.5,375.29999 119.5,374.29984C119.5,373.47916 119.5,372.33334 119.5,371.54733C119.5,370.72534 119.5,369.66666 119.5,368.94818C119.5,368.23868 119.5,367.16666 119.5,366.19467C119.5,365.5 119.5,364.80533 119.5,363.543C119.5,362.772 119.5,361.90268 119.5,360.90451C119.5,360.15717 119.48567,359.12521 119.50017,358.17868C119.51057,357.49976 119.79501,356.55753 120.14733,355.74734C120.52509,354.87863 120.34343,354.13895 120.51067,353.13599C120.65553,352.26718 121.31384,351.6347 121.464,350.65332C121.55713,350.04462 121.48405,348.8154 121.52084,348C121.54556,347.45203 121.78355,346.18518 122,345.52084C122.33266,344.49979 122.38513,343.69138 122.584,342.98532C122.87396,341.95584 123.42893,341.18372 123.48933,340.32535C123.55532,339.3876 123.1782,338.36209 123.66666,337.66666C124.16898,336.95148 124.25469,336.26703 124.784,335.58401C125.27199,334.95432 125.94234,334.38818 126.33334,333.5C126.62284,332.84235 126.7032,332.026 127.33334,331.33334C127.87895,330.73358 128.60686,330.38913 129.5,330.5C130.39909,330.6116 130.5,331.60001 130.5,332.5C130.5,333.33334 130.5,334.11066 130.5,335.10001C130.5,336 130.5,336.89999 130.5,337.79999C130.5,338.70132 130.5,339.38535 130.5,340.32535C130.5,341.33334 130.5,342.12534 130.5,342.98401C130.5,343.84732 130.57027,344.86707 130.49867,345.70132C130.41493,346.67712 130.00529,347.29999 129.66667,348.33334C129.4238,349.07455 128.8942,349.81467 128.58533,350.70132C128.35863,351.35214 128.64313,352.36154 128.33333,353.33334C128.10695,354.04349 127.55203,354.98267 127.51067,355.71066C127.45453,356.69849 127.56252,357.51575 127.33334,358.5C127.14267,359.31885 126.7861,359.88446 126.584,360.90134C126.41991,361.72696 126.34566,362.66968 126.14733,363.45267C125.93827,364.27805 125.6226,365.32816 125.536,366.25333C125.4651,367.0108 125.5,368 125.5,368.82132C125.5,369.67465 125.66332,370.66199 125.33334,371.5C125.00474,372.3345 124.53239,373.15125 124.5045,373.84732C124.46379,374.86322 124.5,375.79999 124.5,376.70001C124.5,377.60001 124.66814,378.53644 124.41467,379.29999C124.15833,380.07217 123.55717,380.79999 123.5,381.70001L123.5,382.60001" id="svg_28" stroke-width="3" stroke="#000" fill="none"/>
  <path t="85147,85372,85389,85390,85390,85409,85409,85409,85423,85423,85423,85440,85440,85440,85456,85456,85456,85473,85473,85490,85490,85491,85491,85506,85506,85524,85524,85542,85542,85542,85542,85557,85557,85574,85574,85574,85591,85608,85608,85625,85648,85666,85667,85690,85707,85751" d="M125.5,384.5C125.5,386.172 125.5,387.27066 125.5,388.04166C125.5,388.60901 125.51878,389.80026 125.48933,390.68933C125.46104,391.54364 125.30551,392.58759 125.064,393.27466C124.82217,393.96265 124.39711,394.92026 124.1,395.72534C123.79705,396.54623 123.41058,397.58322 123.1,398.26401C122.80981,398.90009 122.2877,399.89554 122,400.52084C121.47746,401.65656 121.30779,402.18567 121,402.97916C120.70737,403.73355 120.18466,404.67935 119.7,405.38266C119.17411,406.14578 118.73077,406.9483 117.95734,407.70001C117.51875,408.12628 116.73112,408.67752 116.268,409.10001C115.43356,409.86121 114.91503,410.69672 114.5,411.5C114.0938,412.28616 113.75124,413.05267 113.2,413.74283C112.55647,414.54855 111.89332,415.0795 111.52533,415.89999C111.17432,416.68262 110.66666,417.5 110.33067,418.21466L109.5,418.47916L108.56133,418.5L107.69867,418.5" id="svg_29" stroke-width="3" stroke="#000" fill="none"/>
  <path t="87421,87701,87718,87739,87764,87810,87853,87878,87895,87913,87930,87958,87958,87990,88027,88051,88202,88222,88239,88257,88257,88274,88274,88292,88292,88309,88309,88326,88326,88326,88343,88368,88422,88447,88447,88533,88567,88568,88587,88602,88618,88636,88636,88653,88669,88669,88686,88686,88686,88739,88739,88883,88901,88924,88959,88980,88980,88980,88997,88997,89014,89014,89031,89049,89049,89067,89067,89086,89104,89123,89123,89136,89154,89155,89170,89187,89215,89247,89279,89279,89297,89312,89332,89332,89350,89350,89366,89366,89384,89405,89420,89437,89454,89476,89477,89494,89767,89784,89802,89819,89838,89855,89855,89872,89889,89905,89923,89923,89939,89956,89973,89991,90045,90077,90116,90116,90149,90181,90213,90245,90284,90304,90325,90357,90374,90391,90391,90411,90427,90443,90443,90460,90478,90478,90495,90513,90531,90549" d="M199.5,397.5C201.33333,397.5 202.11067,397.5 203,397.5C203.89999,397.5 204.83136,397.74344 205.7955,397.49551C206.50946,397.31192 206.5,396.20001 206.5,395.29999C206.5,394.39999 206.5,393.5 206.5,392.70001C206.5,391.79999 206.6461,390.77716 206.064,390.11066C205.45552,389.414 205.13062,389.39032 206.02083,389.52084C207.00908,389.66574 207.70317,390.06665 208.47867,390.60001C209.15218,391.06323 209.96437,391.73846 210.67467,392.064C211.45969,392.4238 212.31592,392.52878 213.26801,392.784C214.00517,392.98163 214.71405,393.31616 215.828,393.46399C216.69185,393.57861 217.66667,393.5 218.5,393.5C219.3,393.5 220.35568,393.4472 220.5,392.5C220.6205,391.70914 220.68843,390.77231 220.464,389.89999C220.24115,389.03378 219.50096,388.49902 218.89999,387.89999C218.20113,387.20337 217.50266,386.65652 216.68567,386.44733C215.73628,386.20422 215.00581,386.04181 214.35333,385.784C213.24883,385.34756 212.1972,384.64758 212.56166,383.85718C212.90536,383.11179 214.21466,383.49994 215.0625,383.5C216.04283,383.50009 216.76465,383.47122 217.55183,383.55716C218.58527,383.66998 219.49326,383.96194 220.33333,384.5C221.01051,384.93372 221.80351,385.4606 222.66667,385.5C223.49939,385.53799 224.46057,385.75433 225.08934,386.07468C225.9772,386.52701 226.91066,386.5 227.82133,386.5C228.5,386.5 229.61467,386.5 230.5,386.5C231.3,386.5 232.20006,386.51041 233.10001,386.5C234.00018,386.48956 234.82408,386.16809 235.5,385.5C236.08565,384.92111 236.48199,384.10056 236.5,383.1955C236.51715,382.33353 236.5,381.5 236.5,380.52133C236.5,379.74734 236.5,378.84732 236.5,377.98401C236.5,377.02084 236.50067,376.10001 236.5,375.20001C236.49933,374.30133 236.13835,373.73874 235.40016,373.2785C234.68301,372.83139 233.78372,372.06396 233.972,371.5C234.26587,370.61975 235.8,371.5 236.7,371.5C237.60001,371.5 238.5,371.5 239.3,371.5C240.2,371.5 241.10001,371.5 241.91066,371.5C242.82133,371.5 243.67467,371.50006 244.61467,371.5C245.59984,371.49991 246.1068,370.99179 246.85266,370.55716C247.60497,370.11877 248.60001,370.5 249.5,370.5C250.3,370.5 251.2,370.5 252.10001,370.5C253,370.5 253.89999,370.50067 254.8,370.5C255.69867,370.49933 256.47141,370.14429 256.5,369.29999C256.53046,368.40051 256.52536,367.4996 256.5,366.70001C256.47141,365.79861 255.98444,364.99484 255.3,364.29999C254.8038,363.79623 254.10001,363.10001 253.39999,362.39999C252.89999,361.89999 252.2,361.2045 251.5,360.66666L250.62134,360.27866L250.216,359.58401" id="svg_30" stroke-width="3" stroke="#000" fill="none"/>
 </g>
</svg>