<svg width="336" height="420" xmlns="http://www.w3.org/2000/svg" xmlns:svg="http://www.w3.org/2000/svg" xmlns:xlink="http://www.w3.org/1999/xlink">
 <!-- Created with SVG-edit - http://svg-edit.googlecode.com/ -->
 <g display="inline" class="layer">
  <title>Layer 1</title>
  <path t="0,784,800,817,895,912,1118,1152,1207,1208,1225,1247,1280,1296,1320,1351,1398,1454,1488,1504,1550,1598,1599,1625,1674,1696,1719,1758,1775,1800,1800,1816,1817,1834,1851,1868,1886,1903,1919,1936,1985,2015,2054,2054,2072,2118,2143,2167,2184,2209,2226" d="M33.5,195.5C35.31467,194.536 36.05721,194.32932 36.58533,193.784C37.12086,193.23103 38.06002,193.29123 38.72133,192.62134C39.32781,192.00699 39.77941,191.41557 40.216,190.69867C40.68743,189.92458 41.33913,189.6192 41.97917,188.97917C42.61921,188.33914 43.0407,187.62537 43.5,186.97917C43.9955,186.28206 44.35012,185.39571 44.5,184.5C44.64025,183.66182 45.31427,183.1689 45.72133,182.39999C46.12237,181.64246 46.58831,180.96745 47.07467,180.464C47.6235,179.89587 47.5317,178.84825 48.35067,178.52533C49.22468,178.18071 49.72788,177.53534 50.07467,176.864C50.49362,176.05293 50.55935,175.21461 51.07467,174.48534C51.55899,173.79993 51.96041,172.97639 52.44733,172.2045C52.89044,171.50206 53.58253,171.08411 54.14734,170.44733C54.7695,169.74588 55.27367,169.22993 55.72133,168.39999C56.07066,167.75235 56.49917,166.89742 57.2045,166.44733C57.97385,165.95639 58.7955,165.55267 59.44733,165.14734L60.02083,164.52083L60.88933,164.48933" id="svg_1" stroke-width="3" stroke="#000" fill="none"/>
  <path t="2247,2310,2328,2360,2360,2383,2478" d="M62.5,162.5C63.37867,161.27867 63.85717,160.55267 64.7,160.216L65.3,159.784L66.14283,159.44733L66.66666,158.66667" id="svg_2" stroke-width="3" stroke="#000" fill="none"/>
  <path t="2513,2582,2599,2616,2633,2634,2670,2687,2705,2750,2784,2822,2840,2858,2910,2928,2944,2998,3016,3039" d="M68.5,157.5C70.1,156.92534 70.91265,156.65121 71.8,156.4955C72.72861,156.33253 73.23265,155.62135 74,155.02083C74.6489,154.513 75.40785,154.11017 76,153.52083C76.48064,153.04247 77.10248,152.86847 77.97916,152.47917C78.69006,152.16348 79.20449,151.50226 80.1,151.5C81,151.49774 81.9,151.5 82.7955,151.4955L83.47467,151.07466" id="svg_3" stroke-width="3" stroke="#000" fill="none"/>
  <path t="3063,3111,3128,3145,3145,3177,3178,3200,3216,3239,3263,3263,3287,3287,3304,3328,3345,3368,3391,3408,3427,3447,3480,3497,3514,3532,3549,3567,3584,3622,3662,3734,3761,3814,3847,3847,3910,3928,3945,3967,3985,4003,4020,4037,4086,4112,4150,4168,4184,4202,4238,4255,4294,4327,4382,4423,4440,4440,4478,4503,4520,4566,4591,4592,4608,4662,4680,4697,4698,4727,4746,4763,4791,4838,4871,4934,4976,4976,4992,5009,5026,5048,5048,5062,5080,5080,5097,5097,5113,5130,5190,5286,5374,5534,5552,5569,5569,5606,5623,5694,5728,5774,5774,5807,5831,5855,5873,5889,5890,5906,5950,5998,6078,6118,6151,6206,6206,6239,6287,6462,6502,6502,6520,6543,6567,6584,6601,6806,6806,6823,6855,6881,6903,6935,7214,7214,7231,7266,7288,7288,7304,7321,7321,7338,7339,7356,7373,7390,7470,7487,7505,7527,7551,7569,7586,7607,7624,7641,7686,7719,7782,7782,7807,7886,7903,7927,7951,7990,8031,8094,8119,8151,8152,8175,8193,8209,8239,8263,8281,8311,8312,8328,8398,8416,8439,8456,8479,8496,8513,8514,8533,8550,8550,8567,8583,8600,8601,8617,8634,8655,8672,8689,8689,8706,8724,8752,8769,8787,8817,8832,8855,8894,8927,8944,8962,8979,8979,8996,8996,9014,9033,9070,9110,9150,9167,9185,9185,9202,9202,9219,9235,9252,9269,9270,9303,9327,9359,9406,9423,9447,9464,9481,9511,9511,9528,9552,9552,9568,9615,9718,9718,9735,9759,9776,9776,9776,9793,9793,9793,9810,9810,9810,9810,9827,9827,9827,9827,9827,9910,9910,9966,10126,10143,10160,10160,10177,10178,10178,10178,10194,10194,10211,10211,10228,10228,10270,10270,10287,10304,10321,10321,10338,10430,10478,10495,10513,10513,10530,10530,10654,10671,10689,10766,10783,10801,10801,10817,10835,10835,10835,10852,10852,10869,10869,10885,10942,10969,10970,10991,10991,11008,11031,11031,11118,11136,11238,11255,11272,11289,11289,11306,11306,11324,11325,11325,11341,11390,11407,11407,11446,11494,11494,11511,11528,11528,11546,11564,11564,11581,11599,11726,11753,11789,11789,11802,11803,11803,11819,11820,11820,11836,11836,11853,11854,11870,11870,11888,11888,11990,12007,12024,12086,12086,12119,12136,12153,12171,12189,12222,12255,12256,12272,12289,12307,12325,12342,12360,12377,12377,12399,12399,12416,12433,12451,12451,12470,12487,12504,12504,12521,12537,12554,12571,12571,12588,12588,12615,12639,12639,12657,12675,12692,12712,12758,12814,12832,12849,12871,12905,12922,12939,12940,12957,12974,12974,12992,12993,13010,13010,13027,13027,13044,13044,13078,13079,13105,13127,13128,13152,13168,13199,13216,13233,13250,13251,13268,13342,13390,13390,13423,13502,13502,13590,13646,13646,13663,13680,13705,13742,13839,13856,13873,13895,13934,13952,13998,14015,14055,14071,14110,14206,14278" d="M85.5,150.5C87.1,149.92534 87.91071,149.53703 88.82133,149.49983C89.67471,149.46498 90.56881,149.13298 91.29867,148.784C92.0625,148.41876 93.02085,148.52579 93.8045,148.14734C94.69337,147.71806 95.49983,147.51042 96.4785,147.5C97.19547,147.49237 98.11961,147.50195 98.9,147.07466C99.72256,146.62428 100.60438,146.58868 101.5,146.5C102.3457,146.41626 102.8368,145.64874 103.47467,145.07466C104.05339,144.5538 104.5501,143.84851 105.2045,143.44733C105.97617,142.97426 106.27688,142.17348 106.50134,141.30133C106.70745,140.50043 107.48199,140.0645 107.5,139.10001C107.5168,138.20015 107.5,137.3 107.5,136.39999C107.5,135.5 107.5,134.7 107.5,133.8C107.5,132.89999 107.43938,131.96112 107.85267,131.2C108.25787,130.45378 108.76934,129.8046 109.416,129.216C110.05064,128.63835 110.37392,127.77441 111.11066,127.51067C111.94803,127.21091 112.84356,127.43304 113.52533,126.92533C114.16614,126.44812 114.92706,126.33283 115.584,125.784C116.20271,125.26711 117.24122,124.95724 117.464,124.11066C117.69254,123.24218 117.49993,122.33334 117.5,121.5C117.50008,120.52167 117.94979,119.95473 118.41467,119.21467C118.90337,118.43666 118.62476,117.46571 119.2045,116.8C119.7576,116.16489 120.21439,115.30474 120.72134,114.62117C121.23721,113.92556 121.46859,113.31553 122,112.52084C122.44408,111.85674 122.60477,111.10081 123.14733,110.44733C123.63766,109.85677 124.10536,109.05009 124.44283,108.2045C124.77623,107.36911 125.34586,106.73186 125.48933,105.9C125.64231,105.01303 125.48014,104.08911 125.50017,103.17883C125.51817,102.36075 126.12012,101.66333 126.41467,100.92934C126.72832,100.14771 126.4984,99.10133 126.5,98.336C126.50225,97.26166 127.11172,96.76287 127.464,96.064C127.89821,95.20258 127.5,94.2 127.5,93.3C127.5,92.4 127.5,91.5 127.5,90.7C127.5,89.8 127.51189,88.87486 127.07467,88.1C126.66488,87.37376 126.5,86.5 126.5,85.7C126.5,84.8 126.48087,83.8998 126.5,83C126.52084,82.02017 127.27869,81.76228 127.932,81.416C128.70464,81.00646 129.06178,80.03154 129.44733,79.2C129.851,78.32937 130.41623,77.67933 130.5,76.85333C130.58447,76.02027 130.5,75.15266 130.5,74.14667C130.5,73.2785 130.5,72.4 130.5,71.5C130.5,70.7 130.44284,69.8 130,69C129.55716,68.2 129.5,67.3 129.5,66.4C129.5,65.5 129.07133,64.54672 129.58533,63.78533C130.03609,63.11759 131.08197,62.88702 131.89999,62.52533C132.68446,62.17848 133.49069,61.61254 134.3,61.50134C135.13701,61.38633 135.6543,60.58374 136.5,60.5C137.29611,60.42117 138.25557,60.43725 138.8045,59.79016C139.31267,59.19114 139.94379,58.31606 140.67467,57.94667C141.57277,57.49276 142.4391,57.28477 142.5,56.4C142.5618,55.50212 142.94975,54.95471 143.41467,54.21467C143.90271,53.43781 143.83681,52.64875 144.47467,52.07467C145.05339,51.55381 145.05904,50.76276 145.536,49.936C145.93359,49.2468 147.10941,49.483 147.91066,49.07467C148.67607,48.6846 149.479,48.51042 150.47917,48.5C151.30128,48.49144 152.2,48.5 153.10001,48.5C154,48.5 154.89999,48.5 155.8,48.5C156.7,48.5 157.60001,48.5 158.5,48.5C159.3,48.5 160.2265,48.31625 161.10001,48.536C161.96281,48.75306 162.7115,49.33318 163.59984,49.50017C164.39557,49.64975 164.53627,50.63689 165.2045,51.14283C165.8997,51.66921 166.94896,51.89594 167.37866,52.59983C167.85349,53.37763 168.47141,53.85587 168.5,54.8C168.52724,55.69959 168.29826,56.68329 168.67067,57.3C169.13945,58.0763 170.16139,58.50291 170.54817,59.2C170.99394,60.0034 171.33641,60.84706 171.72133,61.6C172.1115,62.3632 172.3295,63.12001 172.52083,64C172.70483,64.84632 173.23586,65.65896 173.66667,66.5C174.00697,67.16433 174.89638,67.73298 175.33333,68.5C175.7776,69.27987 176.63789,69.17822 177.33333,69.66666C178.04852,70.16898 178.80066,70.31944 179.416,70.784C180.09921,71.29977 180.8,71.49992 181.7,71.5C182.60001,71.50008 183.46432,71.72852 184.136,72.07467C184.94812,72.49319 185.84734,72.49693 186.864,72.5C187.69867,72.50252 188.23518,73.11559 188.936,73.464C189.7995,73.89328 190.83278,73.31425 191.33333,72.5C191.72748,71.85883 192.29999,71.3153 192.93201,70.7C193.64114,70.00963 194.02179,69.15375 194.37866,68.4C194.78304,67.54594 195.2932,67.00708 195.97917,66.5C196.63799,66.013 197.11813,65.18967 197.41467,64.3C197.70055,63.44236 197.17795,62.36191 197.66667,61.66667C198.16994,60.95076 198.77898,60.43702 199.14734,59.8C199.64325,58.94241 200.12633,58.37565 200.79466,57.8C201.50943,57.18436 202.18509,56.5676 202.44284,55.79016C202.69757,55.02186 202.29948,53.88752 202.86166,53.2045C203.47691,52.457 204.35086,52.55381 205.18666,52.416C206.19287,52.25009 207.03722,51.97979 207.66167,51.85266C209.01344,51.57747 209.76126,51.54678 210.54167,51.52083C211.36137,51.49358 212.66667,51.5 213.12083,51.5C214.03917,51.5 214.9375,51.5 215.77583,51.5C216.83333,51.5 217.76779,51.35954 218.59984,51.50017C219.45186,51.64418 220.02831,52.56969 220.60033,52.057C221.15419,51.56059 221.81931,50.48416 222.26801,50.10133C222.97871,49.49496 223.73273,48.98631 224.53067,48.38667C225.1152,47.94738 225.99162,47.62111 226.9045,47.44733C227.90723,47.25645 228.44412,46.88977 229.4785,46.6215C230.28087,46.41339 231.3508,46.54379 231.4955,47.26167C231.70567,48.30437 231.48997,49.01605 231.5,49.97917C231.51042,50.97933 232.11063,51.49467 232.91066,51.5C233.82132,51.50607 234.67467,51.5 235.616,51.5C236.384,51.5 237.55742,51.05589 238.257,51.7215C238.91736,52.34979 238.06575,53.73241 238.66667,54.33333C239.26759,54.93425 240.30612,54.42678 241.172,54.536C242.05533,54.64742 242.75581,54.94601 243.55183,55.14734C244.57196,55.40534 245.5071,55.3391 246.4785,55.72133C247.25458,56.02671 248.10863,56.31995 248.7955,56.85717C249.53941,57.439 249.49933,58.38533 249.5,59.32533C249.50049,60.016 249.5,61.12533 249.5,61.984C249.5,62.84733 249.29266,63.76588 249.50133,64.69867C249.68187,65.50572 250.48199,65.93543 250.5,66.8C250.51878,67.70247 250.5,68.47066 250.5,69.50983C250.5,70.28533 250.5,71.33334 250.5,72.03833C250.5,73.01334 250.66475,74.08337 250.14284,74.7955C249.64738,75.47154 248.7,75.49692 247.74283,75.5C246.85184,75.50287 245.81306,75.43768 245.509,76.26167C245.2005,77.09766 245.55049,78.08593 245.064,78.864C244.61333,79.58475 244.08258,80.18946 243.5,80.97916C243.02934,81.61714 242.50159,82.20449 242.5,83.14283C242.49843,84.072 242.48705,84.76619 242.72133,85.92133C242.83012,86.45773 243.12798,87.26305 243.33333,88.33334C243.51042,89.25629 243.49933,90.09866 243.5,91.1C243.50053,91.9 243.5,92.9 243.5,93.7C243.5,94.69984 243.5,95.47916 243.5,96.33334C243.5,97.1955 243.33267,98.11964 243.52083,99C243.70221,99.84866 244.58748,100.42842 245.064,101.1C245.57889,101.82566 246.1313,102.48579 246.52533,103.11066C246.99731,103.85918 247.45729,104.69697 247.5,105.6C247.54253,106.49899 247.5,107.3 247.5,108.2C247.5,109.1 247.5,110 247.5,110.9C247.5,111.8 247.5,112.70133 247.5,113.66666C247.5,114.5 247.5,115.33334 247.5,116.1955C247.5,117.1 247.5,118.02084 247.5,118.984C247.5,119.67467 247.57822,120.74643 247.49983,121.6C247.41614,122.51144 246.69981,123.1526 246.52083,124C246.33478,124.88081 246.58746,125.827 246.33333,126.66666C246.07103,127.53331 245.4693,128.31165 245.02083,128.97917C244.5508,129.6788 244.21504,130.55956 243.85266,131.2C243.38824,132.02078 242.81129,132.59868 242.416,133.30133C241.95641,134.11827 241.51866,134.89948 241.5,135.8C241.48137,136.69847 240.87373,137.24275 240.52083,138C240.15865,138.77716 240.5,139.8 240.5,140.70134C240.5,141.38533 240.5,142.32533 240.5,143.33333C240.5,144.12534 240.50061,144.98534 240.5,145.9045C240.49933,146.89867 240.58704,147.70488 240.216,148.616C239.93953,149.29492 239.58565,150.16257 239.44733,150.9045C239.26024,151.90793 238.80545,152.62932 238.58533,153.61467C238.39142,154.48271 238.51799,155.30019 238.5,156.2C238.48199,157.10054 237.88187,157.81033 237.58533,158.7C237.29945,159.55765 237.5372,160.50087 237.5,161.3C237.45729,162.21764 236.61423,162.72052 236.49983,163.60001C236.40887,164.29927 235.86365,165.11838 235.39999,165.82117C234.97594,166.46393 234.26161,167.25092 233.5,167.66667C232.75468,168.07353 232.12617,168.61151 231.44733,169.14734C230.86726,169.60519 230.02606,169.70328 229.33333,170.33333C228.73347,170.87889 228.13017,171.42578 227.52533,171.92534C226.86992,172.46666 226.06816,172.57188 225.47467,173.07466C224.84097,173.6115 224,174 223.2045,174.44733L222.52533,174.92534L221.97917,175.5L221.2,175.85266" id="svg_4" stroke-width="3" stroke="#000" fill="none"/>
  <path t="20400,20663,20680,20711,20711,20736,20752,20752,20769,20791,20854,20934,20974,21046,21046,21063,21081,21118,21118,21158,21175,21199,21231,21270,21287,21304,21327,21344,21363,21406,21439,21471" d="M224.5,174.5C226,173.02083 226.87285,172.70462 227.7,172.21466C228.38087,171.81136 228.88283,171.0824 229.60001,170.40016C230.18633,169.84242 231.09857,169.49826 231.55267,168.7955C232.03818,168.04416 232.5,167.2785 232.5,166.39999C232.5,165.5 232.46408,164.69928 232.5,163.8C232.53603,162.89784 233.13095,162.38097 233.79466,161.8C234.50497,161.17825 234.42122,160.1452 234.92534,159.52533C235.42555,158.91026 235.96588,158.12466 236.37866,157.40016C236.82977,156.60838 237.21748,156.09999 237.5045,155.2045C237.74837,154.44365 238.5,153.97917 238.85266,153.2L239.37866,152.39999" id="svg_5" stroke-width="20" stroke="#fff" fill="none"/>
  <path t="23415,23627,23655,23680,23680,23718,23758,23791,23830,23870,23895,23896,23919,23953,23998,23998" d="M241.5,140.5C240.62151,141.7215 240.54779,142.60127 240.5,143.5C240.45728,144.30341 239.75305,145.03717 239.536,145.89999C239.31624,146.7735 239.5,147.7 239.5,148.60001C239.5,149.5 239.5,150.3 239.44284,151.14284L238.66667,151.66667L238.5,152.5L238.5,153.3" id="svg_6" stroke-width="20" stroke="#fff" fill="none"/>
  <path t="26767,26895,26912,26929,26929,26946,26963,27054,27079,27096,27113,27158,27175,27199,27216,27239,27271,27288,27319,27336,27353,27370,27387,27430,27463,27480,27503,27503,27550,27592,27592,27638,27686,27703,27727,27768,27838,27982,27982,28158,28534,28702,28750,28846,28918,28938,28938,28959,29070,29110,29174,29191,29263,29280,29297,29314,29314,29331,29331,29366,29366,29391,29408,29462,29479,29496,29527,29544,29562,29584,29607,29646,29679,29742,29767,29767,29791,29846,29863,29889,29911,29950,29950,29967,29984,30001,30023,30040,30057,30074,30126,30126,30168,30206,30222,30247,30247,30279,30303,30320,30344,30364,30383,30422,30439,30457,30474,30509,30527,30544,30561,30578,30595,30612,30631,30631,30663,30695,30736,30752,30783,30807,30824,30842,30859,30859,30877,30894,30919,30935,30952,30953,30975,30999,31024,31062,31087,31104,31135,31159,31159,31191,31208,31231,31256,31273,31290,31290,31326,31343,31375,31392,31409,31446,31518,31566,31566,31566,31583,31600,31600,31617,31634,31650,31651,31668,31695,31711,31729,31746,31764,31782,31799,31831,31848,31883,31883,31900,31918,31936,31937,31952,31969,31969,31985,32003,32020,32037,32056,32090,32106,32134,32135,32151,32168,32216,32233,32251,32251,32268,32284,32301,32327,32327,32343,32382,32422,32502,32502" d="M243.5,138.5C242.62151,139.7215 242.68134,140.65347 242.33333,141.5C242.05743,142.17108 241.42555,142.91026 240.92534,143.52533C240.42122,144.1452 240.84306,145.17857 240.47917,145.97917C240.12772,146.75241 239.50067,147.30133 239.5,148.2C239.49933,149.10001 239.41052,149.91737 238.92534,150.52533C238.42696,151.14983 238.5054,152.10002 238.5,153C238.49466,153.88937 237.72522,154.4366 237.5045,155.2045C237.25713,156.06517 237.50224,157 237.5,157.89999C237.49774,158.80002 237.17043,159.53491 236.784,160.3C236.38367,161.09261 236.18796,162.05687 235.92534,162.68533C235.54379,163.5984 235.58868,164.60439 235.5,165.5C235.41626,166.3457 234.5609,166.71523 234.5,167.60001C234.4382,168.49788 234.69595,169.33444 234.44284,170.2C234.1862,171.07764 233.52859,171.79865 233.5,172.7C233.47147,173.59938 233.51727,174.48225 233.85266,175.20984C234.22334,176.01399 234.46681,176.8598 235,177.5C235.54472,178.15404 236.41217,178.13564 237.14284,178.55716C237.95395,179.02509 238.2394,179.94435 238.85716,180.44733C239.56175,181.02098 240.32159,181.373 240.8,182.15266C241.21924,182.83589 241.68134,183.6315 242.3,184.29866C242.8725,184.91603 243.28001,185.79677 243.85266,186.44733C244.37099,187.03616 245.2587,187.44142 245.4955,188.2045C245.75052,189.02629 246.18871,189.59868 246.584,190.30133C247.04359,191.11827 247.38089,192.00079 248.07466,192.48933C248.77829,192.98482 249.41544,193.59467 249.49867,194.3C249.60437,195.19568 250.04208,195.94569 250.7955,196.44733C251.48477,196.90625 251.32808,197.87552 251.78534,198.7C252.16914,199.39206 252.98996,199.99336 253.416,200.69867C253.86412,201.44052 254.20786,202.07472 254.51067,202.88933C254.78333,203.62283 255.47453,204.16411 255.784,204.98267C256.09714,205.81093 256.9299,206.14821 257.41467,206.78534C257.97101,207.51651 257.80087,208.55083 258.14734,209.2C258.60068,210.04938 258.49774,211 258.5,211.89999C258.50226,212.79552 259.1705,213.30685 259.47916,214.02083C259.82813,214.82805 259.30511,215.82169 259.50134,216.69867C259.68192,217.50571 260.20786,218.07472 260.51068,218.88933C260.78336,219.62282 261.10147,220.21419 261.53601,221.064C261.89233,221.76082 262.51886,222.27379 262.85266,223.15266C263.12057,223.85809 263.48199,224.86342 263.5,225.69867C263.52087,226.66644 264.0484,227.16933 264.44284,227.85716C264.91272,228.67657 264.41788,229.70377 264.50015,230.60001C264.58383,231.51144 265.24695,232.03719 265.46399,232.89999C265.68375,233.77351 265.5,234.7 265.5,235.60001C265.5,236.5 265.5,237.3 265.5,238.2C265.5,239.10001 265.5,240 265.5,240.89999C265.5,241.8 265.5,242.7 265.5,243.60001C265.5,244.5 265.5,245.3 265.5,246.2C265.5,247.10001 265.50223,248 265.5,248.89999C265.49774,249.80002 265.11392,250.63835 264.784,251.3C264.36343,252.14336 264.5054,253.10002 264.5,254C264.49466,254.88937 263.92145,255.52296 263.50134,256.216C263.05991,256.94418 262.49313,257.66254 262.10001,258.32535C261.69287,259.01181 260.97122,259.81131 260.66666,260.66666C260.38287,261.46365 260.8887,262.66226 260.33334,263.33334C259.76111,264.02481 258.91879,264.10242 258.5,265C258.13208,265.78857 257.47153,266.37894 257,267.02084C256.41406,267.81851 255.78333,268.37717 255.51067,269.11066C255.20786,269.92526 254.94673,270.62524 254.416,271.216C253.76717,271.93823 253.6254,272.52887 253.49983,273.47833C253.37828,274.39746 252.37411,274.69101 251.8,275.2045C251.16991,275.76804 250.41252,276.42844 249.936,277.10001C249.42111,277.82568 248.78796,278.37891 248.51067,279.11066C248.17244,280.0032 248.01083,280.68518 247.33333,281.33334C246.701,281.93829 246.39699,282.73865 245.69867,283.21466C244.94936,283.72546 244.27489,284.0433 243.62134,284.72134C243.06273,285.30087 242.44789,285.80676 241.74283,286.14734C240.89629,286.55627 240.03835,286.88904 239.33333,287.33334C238.61436,287.78644 237.72256,287.6243 236.89999,288.07468C236.11961,288.50195 235.2,288.50449 234.39999,288.72134L233.7,289.216" id="svg_7" stroke-width="3" stroke="#000" fill="none"/>
  <path t="36550,36751,36774,36792,36809,36827,36846,36862,36863,36879,36926,37046,37071,37142,37176,37382,37399,37416" d="M234.5,290.5C236.3,290.5 237.2,290.5 238.10001,290.5C238.89999,290.5 239.80653,290.60696 240.7,290.49866C241.61977,290.38718 242.26962,289.66934 243.10001,289.51068C244.04797,289.32953 244.35164,288.76907 244.936,288.11066C245.55124,287.41748 246.44733,287.14734 247,286.5L247.52533,285.92532L248.216,285.41599" id="svg_8" stroke-width="20" stroke="#fff" fill="none"/>
  <path t="37855,38054,38071,38087,38104,38122,38139,38157,38157" d="M250.5,278.5C248.66667,278.5 247.86813,278.56647 247.416,279.30133C246.99344,279.98813 246.10001,280.46399 245.2,280.50449L244.40016,280.7215L243.78534,281.30133" id="svg_9" stroke-width="20" stroke="#fff" fill="none"/>
  <path t="41478,41686,41790,41790,41862,41895,41935,41959,41975,41993,42023,42047,42079,42102,42102,42142,42159,42175,42246,42263,42319,42336,42382,42422,42454,42479,42518,42518,42543,42577,42595,42595,42611,42630,42655,42671,42688,42705,42727,42766,42790,42829,42855,42871,42871,42889,42906,42927,42943,42960,42960,42977,42994,43012,43012,43031,43031,43047,43065,43083,43083,43102,43119,43151,43189,43207,43223,43223,43255,43271,43295,43341,43397,43398,43422,43440,43441,43470,43487,43533,43559,43575,43575,43621,43647,43663,43680,43711,43711,43727,43745,43767,43799,43799,43816,43833,43851,43869,43886,43903,43920,43937,43938,43953,43953,43974,43991,44008,44053,44087,44141,44159,44176,44176,44176,44176,44176,44193,44193,44193,44193,44210,44245,44246,44279,44304,44341,44375,44413,44430,44431,44447,44510,44543,44543,44630,44647,44679,44704,44704,44741,44759,44775,44799,44815,44853,44925,44926,44973,44999,45046,45109,45150,45197,45237,45238,45270,45288,45319,45319,45342,45374,45399,45469,45488,45504,45522,45542,45567,45567,45583,45601,45618,45636,45655,45672,45672,45688,45705,45765,45782,45815,45815,45831,45856,45872,45888,45925,45965,45966,45983,46006,46023,46047,46079,46103,46135,46135,46166,46199,46223,46239,46256,46287,46303,46326,46350,46375,46406,46407,46423,46440,46457,46457,46479,46495,46512,46543,46543,46559,46583,46607,46624,46641,46658,46676,46693,46711,46727,46744,46761,46790,46808,46825,46843,46885,46910,46910,46927,46945,46962,46979,46997,46997,47015,47040,47078,47096,47113,47130,47150,47174,47192,47209,47231,47263,47263,47280,47296,47318,47319,47357,47375,47393,47393,47409,47431,47431,47449,47483,47501,47517,47534,47551,47568,47585,47585,47622,47641,47657,47690,47708,47726,47743,47774,47814,47831,47870,47903,47920,47966,48030,48030,48094,48702,48735,49294" d="M254.5,272.5C253.2785,273.37866 252.37399,273.69086 251.8,274.2045C251.0759,274.85248 250.32378,275.18411 249.62134,275.72134C248.98286,276.20966 248.20212,276.34067 247.55267,276.85266C246.93805,277.33719 246.19347,277.39304 245.3,277.50134C244.38023,277.61282 243.84369,278.29852 242.89999,278.48932C242.0377,278.66364 241.49911,279.29077 240.69867,279.49866C239.88222,279.71069 239.33333,280.33334 238.5,280.5C237.66667,280.66666 237.21764,281.45728 236.3,281.5C235.40097,281.54184 234.49954,281.47293 233.7,281.5C232.85571,281.52859 232.34569,282.41626 231.5,282.5C230.70389,282.57883 229.8,282.5 228.89999,282.5C228,282.5 227.15645,282.56696 226.47467,283.07468C225.83386,283.55188 224.89999,283.5 224,283.5C223.10001,283.5 222.2,283.49994 221.3,283.5C220.39999,283.50009 219.72256,283.6243 218.89999,284.07468C218.11961,284.50195 217.19347,284.39304 216.3,284.50134C215.38023,284.61282 214.84151,285.28806 213.89999,285.48932C213.0184,285.6778 212.36848,286.12744 211.864,286.64932C211.10852,287.43085 210.32549,287.48932 209.25717,287.5C208.40004,287.50854 207.4996,287.47464 206.7,287.5C205.79865,287.52859 205.07764,288.18619 204.2,288.44284C203.33444,288.69595 202.39999,288.5 201.5,288.5C200.7,288.5 199.8,288.5 198.89999,288.5C198,288.5 196.99869,288.61331 196.39999,288.05734C195.76566,287.46829 195.25461,286.76059 194.39999,286.27866C193.75905,285.91721 192.87999,285.6705 192,285.47916C191.15369,285.29514 190.40288,284.59775 189.5,284.5C188.80176,284.42441 188.07742,283.81448 187.2,283.55716C186.33583,283.30371 185.69284,282.9263 184.93066,282.58533C184.21259,282.26407 183.136,282.50006 182.3,282.5C181.39999,282.49991 180.54623,282.25787 179.8,281.85266C179.03888,281.43936 178.06517,281.74289 177.2045,281.49551C176.4366,281.27481 175.88779,280.55289 175.02083,280.5C174.2421,280.45248 173.44341,280.1279 172.50084,279.85266C171.64798,279.60364 170.8089,279.44751 170,279C169.19989,278.55734 168.15146,278.71655 167.55716,278.14734C167.02786,277.64038 166.62971,276.9642 166.032,276.504C165.12198,275.80334 164.43718,275.65704 163.81334,275.19199C163.12929,274.68207 162.4446,274.11862 161.83333,273.5C160.98717,272.64368 160.58861,272.04022 160.16617,271.5715C159.30768,270.61893 158.362,270.46457 157.85716,269.7955C157.29053,269.04453 156.87271,268.50589 156.10001,268.07468C155.2811,267.61768 154.39999,267.5 153.5,267.5C152.7,267.5 152.01152,267.21204 151.2785,266.62134C150.63219,266.10049 149.84201,265.74957 149.2,265.2045C148.44542,264.56384 147.71518,264.23703 147.33333,263.5C146.94269,262.74603 146.8765,261.91672 146.47917,261.02084C146.16382,260.30978 145.44637,259.79605 145,259C144.55171,258.20056 144.39699,257.26135 143.69867,256.78534C142.94936,256.27454 142.29123,255.94057 141.62134,255.27867C141.00458,254.66928 140.60625,254.026 140.216,253.3C139.75653,252.44522 139.40674,251.70541 139,251C138.54216,250.20596 138.10799,249.35596 137.784,248.61467C137.39877,247.73332 137.52463,246.81918 137.07466,246.064C136.61026,245.28459 136.58868,244.39561 136.5,243.5C136.41626,242.6543 135.72633,242.22993 135.27867,241.39999C134.92934,240.75235 134.83315,239.8262 134.47917,239.02083C134.1662,238.30875 133.61621,237.78387 133.464,236.864C133.31976,235.99234 132.9631,235.31073 132.584,234.38667C132.24884,233.56975 131.64522,233.05188 131.4955,232.2C131.33237,231.27184 130.64818,230.73138 130.5045,229.8C130.36728,228.91051 130.64209,227.987 130.48933,227.10001C130.34586,226.26686 129.58504,225.5126 129.50133,224.7C129.40912,223.80473 129.5,222.89999 129.5,222C129.5,221.10001 129.59088,220.19527 129.49867,219.3C129.41496,218.4874 128.69981,217.8474 128.52083,217C128.33478,216.1192 128.5,215.2 128.5,214.3C128.5,213.39999 128.5,212.5 128.5,211.584C128.5,210.7955 128.5,209.89999 128.5,208.97917C128.5,208.01601 128.49989,207.32533 128.5,206.25717C128.50009,205.39999 128.74214,204.54622 129.14734,203.8C129.56064,203.03888 129.53891,202.13158 130,201.47917C130.47272,200.8103 130.49933,199.98267 130.5,199.02083C130.50064,198.10001 130.48271,197.18866 131,196.5C131.46999,195.87431 131.58948,195.08263 132.07466,194.47467C132.57304,193.85017 132.10179,192.79742 132.536,191.936C132.88828,191.23712 133.60045,190.70821 134,190C134.49533,189.12201 135.07376,188.5564 135.52533,187.88933C136.02411,187.15251 136.67635,186.4614 137.064,185.89999C137.6216,185.09245 138.10268,184.49355 138.55267,183.7955C139.0528,183.0197 139.72685,182.49374 140.21466,181.7C140.69012,180.92633 141.04283,180.2744 141.72133,179.62134C142.3008,179.0636 142.90855,178.50636 143.5,178C144.09444,177.49107 144.96028,177.36415 145.55267,176.85266C146.20868,176.28625 146.98029,175.95821 147.7,175.30133C148.2845,174.76785 149.26131,174.53909 150,173.97917C150.6646,173.47542 151.14474,172.73898 151.89999,172.11067C152.55658,171.56445 153.53189,171.37346 154.10001,170.88933C154.84535,170.25417 155.49216,169.62271 156.3,169.50133C157.20856,169.36482 157.81297,168.74818 158.416,168.216C159.05785,167.64957 159.82217,167.69705 160.69867,167.49867C161.50714,167.31569 161.677,166.1631 162.30133,165.78534C163.10687,165.29793 164.01674,165.338 164.584,164.784C165.25772,164.12601 165.81367,163.74045 166.69867,163.49867C167.49643,163.28073 167.9968,162.82755 168.88933,162.48933C169.62109,162.21204 170.11063,161.50534 171,161.5C171.89998,161.4946 172.85007,161.63167 173.60001,161.27867C174.37553,160.91364 175.2,160.5045 176.10001,160.5L177,160.5L177.89999,160.5" id="svg_10" stroke-width="3" stroke="#000" fill="none"/>
  <path t="50609,50784,50801,50818,50818,50835,50835,50854,50854,50887,50887,50903,50950,50950,50967,50967,50983,51000,51017,51038,51055,51073,51090,51108,51142,51142,51167,51184,51201,51219,51219,51219,51239,51255,51272,51334,51415,51447,51464,51480,51480,51498,51498,51516,51534,51551,51568,51568,51598,51634,51655,51718,51751,51798,51831,51855,51894,51982,52022,52022,52047,52079,52126,52151,52168,52184,52207,52223,52224,52247,52247,52264,52311,52329,52382,52429,52455,52479,52565,52566,52622,52670,52703,52727,52759,52791,52822,52854,52855,52895,52974,53061" d="M171.5,152.5C172.11067,154.10001 172.93468,154.71239 173.33333,155.5C173.68932,156.20334 173.78371,157.20381 174.26167,157.84734C174.89001,158.69334 175.53735,158.92369 176.33333,159.5C177.09247,160.04964 177.40681,160.93182 177.7215,161.82133C177.96889,162.52061 178.53879,163.30627 178.97917,163.97917C179.49449,164.76657 179.9756,165.3947 180.8,165.85266C181.5423,166.26501 182.1799,166.78381 182.784,167.416C183.33437,167.99196 183.65086,168.89458 184.5,169.33333C185.13835,169.66316 185.97598,169.73587 186.66933,170.216C187.42355,170.7383 188.50874,170.64137 189.28934,170.92534C190.02365,171.19247 190.90451,171.22977 191.7955,171.5045C192.55902,171.73993 193.07462,172.49466 193.936,172.5C194.89998,172.50597 195.82356,172.42418 196.66667,172.66667C197.34673,172.86227 198.32187,173.40643 199.08934,173.48933C199.9948,173.58714 200.9471,173.40599 201.8,173.85266C202.55223,174.24661 203.43147,174.02754 204.21466,174.5C204.84175,174.8783 205.30133,175.49933 206.2,175.5C207.10001,175.50067 208,175.5 208.89999,175.5C209.8,175.5 210.7,175.5 211.60001,175.5C212.5,175.5 213.3,175.5 214.2,175.5C215.10001,175.5 216,175.50226 216.89999,175.5C217.79552,175.49774 218.3112,174.82845 219.04167,174.52083C219.91037,174.155 220.75409,174.6674 221.61333,174.21466C222.31345,173.84575 222.72551,172.95808 223.37866,172.27867C223.93605,171.69887 224.48199,171.06456 224.5,170.2C224.51874,169.3002 224.5,168.39999 224.5,167.5C224.5,166.7 224.5,165.8 224.5,164.89999C224.5,164 224.5,163.10001 224.5,162.2C224.5,161.3 224.5,160.39999 224.5,159.5C224.5,158.7 224.58533,157.78534 225.33333,157.33333L225.784,156.584" id="svg_11" stroke-width="3" stroke="#000" fill="none"/>
  <path t="58431,58709,58750,58774,58799,58869,58869,58895,58912,58929,58959,59000,59017,59017,59047,59063,59081,59098,59120,59120,59136,59136,59158,59176,59192,59209,59209,59261,59287,59325,59351,59429,59447,59464,59502,59520,59557,59814,59839,59863,59895,59911,59935,59967,59983,60000,60022" d="M189.5,143.5C187.8,143.5 186.89993,143.51067 186,143.5C185.09982,143.48933 184.34448,142.89876 183.89999,142.35066C183.26007,141.56157 182.19936,141.66283 181.55267,141.14734C180.94583,140.66362 180.09084,140.61983 179.3,140.216C178.64153,139.87978 177.69482,139.87996 176.85716,139.44284C176.10947,139.05267 175.44888,138.60915 174.66667,138.33333C173.82646,138.03705 173.01874,137.54713 172.15266,137.5045C171.25824,137.46046 170.2321,137.63388 169.58267,137.216C168.81982,136.72516 168.14818,136.50226 167.25717,136.5C166.3,136.49759 165.27509,136.75627 164.62134,136.27867C163.92226,135.76796 163.21887,135.63733 162.55267,135.14734C161.86845,134.64409 161.10298,134.49878 160.5,134C159.84413,133.45747 159.50067,132.69867 159.5,131.8C159.49933,130.89999 159.5,130 159.5,129.10001C159.5,128.2 159.50133,127.30133 159.784,126.584L160.464,126.064" id="svg_12" stroke-width="3" stroke="#000" fill="none"/>
  <path t="61224,61455,61472,61489,61489,61506,61506,61523,61523,61540,61540,61597,61615,61639,61677,61695,61718,61742,61759,61837,61917,61997,61997,62023,62046,62070,62094,62111,62269,62269,62320,62339,62366,62383,62437,62454,62478,62478,62502,62557,62582,62607,62623,62669,62733,62758,62845,62845,62917,62967,62984,63001,63045,63062,63086,63086,63125" d="M193.5,145.5C192.72133,144.62167 193.31993,144.96368 193.94284,145.60001C194.43454,146.10229 195.50208,146.57251 196.08934,147.10001C196.72693,147.6727 197.34282,148.35931 197.7955,149.15266C198.1804,149.82724 198.30132,150.88745 198.50133,151.69867C198.6993,152.50162 199.17245,152.9968 199.51067,153.88933C199.78796,154.62109 200.49466,155.11063 200.5,156C200.5054,156.89998 200.5,157.8045 200.5,158.66667C200.5,159.5 200.16692,160.6356 200.72133,161.37866C201.2027,162.02382 201.61066,162.70859 202.33333,163.33333C202.98534,163.89699 203.79083,164.15697 204.66667,164.5C205.41283,164.79224 205.93544,165.48199 206.8,165.5C207.6998,165.51874 208.60001,165.5 209.5,165.5C210.3,165.5 211.2,165.5 212.10001,165.5C213,165.5 213.89999,165.5 214.8,165.5C215.7,165.5 216.79785,165.81909 217.416,165.21466C218.03806,164.60641 218.79823,163.81555 218.4955,162.85716C218.3064,162.2585 217.10001,162.5 216.2,162.5C215.3,162.5 214.39999,162.5 213.5,162.5L212.7,162.5L211.8,162.5" id="svg_13" stroke-width="3" stroke="#000" fill="none"/>
  <path t="64055,64183,64208,64231,64277,64302,64373,64392,64392,64437,64454,64454,64525,64741,64797" d="M202.5,161.5C204.3,161.5 205.2,161.5 206.10001,161.5C206.89999,161.5 207.8,161.5 208.7,161.5C209.60017,161.5 210.38533,161.5 211.32533,161.5C212.33333,161.5 213.1955,161.5 214.064,161.5L214.936,161.5L215.8,161.4955" id="svg_14" stroke-width="3" stroke="#000" fill="none"/>
  <path t="67487,67535,67552,67597,67637,67678,67717,67717,67735,67766,67784,67800,67817,67835,67852,67901,67935,67967,68030" d="M223.5,150.5C223.5,148.8 223.50195,147.88039 223.07466,147.10001C222.62428,146.27744 222.45221,145.39873 222.5,144.5C222.54272,143.69659 222.98254,142.8461 223.47467,142.11067C223.92267,141.44119 224.35165,140.76907 224.936,140.11067C225.55124,139.41747 226.44733,139.14734 226.92534,138.52533L227.52533,137.92534L228.2045,137.44733L228.91066,137.064" id="svg_15" stroke-width="3" stroke="#000" fill="none"/>
  <path t="68166,68661,68789,68814,68831,69005,69109,69109,69165" d="M231.5,133.5C231.5,131.66667 231.5,130.88933 231.5,130C231.5,129 231.5,128.1955 231.5,127.17867L231.5,126.5L231.5,125.5215" id="svg_16" stroke-width="3" stroke="#000" fill="none"/>
  <path t="70382,70543,70560,70577,70595,70595,70629,70647,70663,70663,70682,70717,70750,70750,70767,70784,70802,70802,70819,70837,70854,70878,70895,70895,70913,70948,70966,70966,70982,70999,71016,71033,71050,71070,71087,71104,71104,71122,71122,71138,71155,71155,71155,71173,71173,71277,71277,71333,71333,71373" d="M156.5,124.5C154.8,124.55717 154.03139,125.06145 153.2,125.44733C152.32797,125.85208 151.75389,126.36191 151.10001,126.88934C150.35451,127.49067 149.4431,127.78971 148.8,128.14734C147.94688,128.62177 147.10353,128.93974 146.39999,129.59984C145.90247,130.06665 144.96797,130.43481 144.2,130.85266C143.35895,131.31027 142.61038,131.42065 141.68533,131.51067C140.82324,131.59456 140.28477,132.4391 139.39999,132.5C138.50212,132.5618 137.58925,132.13564 136.85716,132.55716C136.04567,133.0244 135.5,133.5 134.7,133.5C133.8,133.5 132.89999,133.5 132,133.5C131.10001,133.5 130.2,133.5 129.3,133.5C128.39999,133.5 127.5,133.5 126.74284,133.5C125.84734,133.5 124.97845,133.58673 123.97916,133.47917C122.94366,133.36771 122.24419,133.05399 121.44817,132.85266C120.42805,132.59467 119.70126,132.69786 118.66666,132.33333C117.97197,132.08855 117.3,131.3 116.8,130.8L116.08933,130.11067" id="svg_17" stroke-width="3" stroke="#000" fill="none"/>
  <path t="73350,73677,73725,73767,73767,73783,73853,73870,73949,73974,74006,74006,74038,74109,74221,74246,74285,74310,74349,74374,74406,74597,74686" d="M178.5,120.5C177.62151,121.72134 177.5,122.584 177.5,123.5C177.5,124.3 177.05043,125.3457 177.55716,126.14283C177.95264,126.76494 179.10001,126.5 180.02083,126.5C180.98399,126.5 181.67467,126.5 182.73833,126.5C183.66667,126.5 184.45729,126.21764 184.5,125.3C184.54184,124.40098 184.83717,123.35104 184.33333,122.66666C183.8526,122.01369 183.14734,121.55717 182.2785,121.5L181.40016,121.50017" id="svg_18" stroke-width="3" stroke="#000" fill="none"/>
  <path t="75598,75750,75750,75768,75785,75821,75885,75919,75965,76037" d="M221.5,123.5C220.33333,124.5 220.07594,125.19041 219.5,125.97916C219.03247,126.61944 218.5045,127.2045 218.5,128.10001L218.5,129L218.5,129.89999L218.5,130.8" id="svg_19" stroke-width="3" stroke="#000" fill="none"/>
  <path t="76229,76289,76341,76359,76477,76573,76606,76733,76758" d="M219.5,131.5C220.55267,129.8 221.04208,129.05431 221.7955,128.55267C222.48477,128.09375 222.5,127.2 222.5,126.3L222.49983,125.40017L222.216,124.58667" id="svg_20" stroke-width="3" stroke="#000" fill="none"/>
  <path t="77950,78103,78126,78161,78161,78178,78196,78213,78213,78285,78326,78350,78382,78414,78431,78431,78462,78462,78479,78496,78496,78514,78534,78534,78566,78583,78599,78617,78635,78669,78694,78726,78781,78822,78861,78941,78941" d="M226.5,157.5C226.5,155.8 226.5,154.85716 226.5,153.93066C226.5,153.14816 226.5993,152.12993 226.49867,151.3C226.38715,150.38023 225.6483,149.73341 225.5045,148.85716C225.3623,147.99075 225.5,147.10001 225.5,146.2C225.5,145.29866 225.5,144.33333 225.5,143.5C225.5,142.66667 225.49927,141.8045 225.5,140.864C225.50067,140.01601 225.39317,139.07974 225.85716,138.25717C226.34515,137.39206 227.05452,137.10802 227.88933,136.52533C228.54988,136.06429 229.23093,135.64835 229.88933,135.064C230.58253,134.44876 230.83679,133.64874 231.47467,133.07466C232.05339,132.5538 232.52533,131.88933 232.92534,131.10001L233.416,130.3L233.72133,129.39999L234.14734,128.8" id="svg_21" stroke-width="3" stroke="#000" fill="none"/>
  <path t="79910,80086,80086,80103,80120,80139,80156,80173,80191,80214,80285,80285,80341,80398,80501,80557" d="M222.5,148.5C222.5,149.5 222.5,150.3 222.5,151.2C222.5,152.10001 222.5,153 222.5,153.89999C222.5,154.8 222.5,155.7 222.5,156.60001C222.5,157.5 222.5,158.3 222.41467,159.21466L221.62134,159.72133L221.216,160.416L220.51466,160.936" id="svg_22" stroke-width="3" stroke="#000" fill="none"/>
  <path t="83463,83623,83623,83624,83624,83640,83640,83640,83658,83675,83675,83693,83713,83713,83713,83730,83731,83746,83746,83762,83861,83861,83861,83879,83895,83929,83958,83982" d="M151.5,139.5C153.26933,140.63733 153.75703,141.21565 154.28534,141.83467C154.81306,142.45302 155.53542,143.29315 156.25333,143.78133C156.97514,144.27217 158.07516,144.41335 158.7,145.06799C159.18721,145.57848 159.85188,146.3119 160.66667,146.83333C161.38474,147.29286 161.87399,147.89264 162.69983,148.47833C163.26973,148.88251 164.35829,149.25334 165.08934,149.52533C165.94997,149.84554 166.64917,150.53125 167.32533,150.88933C168.00003,151.24663 169.05333,151.52533 169.55267,152.14734L170.33333,152.66667L170.7215,153.37849L171.59984,153.50017" id="svg_23" stroke-width="3" stroke="#000" fill="none"/>
  <path t="84712,84758,84775,84791,84809,84827,84827,84844,84863,84864,84864,84880,84880,84880,84897,84897,84897,84897,84913,84913,84913,84930,84930,84930,84947,84947,84966,84966,84966,84966,84982,84982,84982,84982,84999,84999,84999,85017,85017,85034,85034,85051,85051,85051,85069,85069" d="M156.5,143.5C154.02083,143 153.20135,142.52859 152.3,142.5C151.40045,142.47147 150.46245,142.32854 149.7,142.58533C148.90189,142.85414 148.18134,143.60536 147.45833,144.02083C146.81598,144.38995 145.8118,144.97894 145.27467,145.336C144.72092,145.70412 143.66101,146.49327 143.18401,146.89999C142.49165,147.49034 141.8266,148.11327 141.07883,148.7C140.29619,149.31409 139.70204,149.63597 138.83333,150.5C138.27325,151.05705 137.96616,151.69482 137.29866,152.61734C136.89047,153.18147 136.17432,154.04005 135.84283,154.51433C135.28223,155.31642 134.89999,155.90355 134.3,156.79984C133.90086,157.39609 133.31247,158.27328 132.89999,158.81467C132.12439,159.83264 131.69022,160.24666 131.15717,160.89549C130.35368,161.8735 130.06119,162.50513 129.5,163.33333C129.03255,164.02321 128.39999,164.8215 128,165.52083L127.7,166.10133L127.1955,167.10001L126.864,167.7" id="svg_24" stroke-width="3" stroke="#000" fill="none"/>
  <path t="85078,85120,85120,85136,85136,85136,85153,85153,85170,85171,85171,85171,85171,85188,85188,85188,85188,85188,85188,85204,85204,85204,85204,85204,85221,85221,85221,85221" d="M124.5,170.5C122.38533,173.81467 121.91073,174.68936 121.5,175.5C121.10005,176.28937 120.73278,177.03827 120.191,177.75633C119.7136,178.38908 118.95445,179.26253 118.48566,179.87151C117.95544,180.56029 117.67793,180.93146 117.09734,181.70399C116.19902,182.89931 115.89513,183.29684 115.31067,184.11067C115.01771,184.5186 114.44723,185.35101 114.18533,185.78534C113.39076,187.10304 112.95407,188.04437 112.72533,188.504C112.27742,189.40404 112.04733,189.83299 111.33334,191L110.81866,191.64267L110.296,192.18134L109.567,192.82933" id="svg_25" stroke-width="3" stroke="#000" fill="none"/>
  <path t="88055,88183,88201,88217,88246,88263,88325,88405,88423" d="M213.5,110.5C213.5,112.3 213.5,113.2 213.5,114.1C213.5,115 213.5,115.9 213.5,116.7955L213.72133,117.50017L214.44733,117.85267" id="svg_26" stroke-width="3" stroke="#000" fill="none"/>
  <path t="89462,89614,89638,89638,89655,89672,89694,89741,89741,89758,89813" d="M188.5,111.5C189.37866,110.7215 189.7897,111.55689 190.14734,112.2C190.62177,113.05311 191.11292,113.81209 191.41467,114.7C191.67355,115.46175 191.5,116.38533 191.51067,117.31467L191.66667,118.16666" id="svg_27" stroke-width="3" stroke="#000" fill="none"/>
  <path t="99745,99910,99926,99943,99973,99973,99991,100028,100046,100093,100109,100142,100159,100182,100214,100231,100262,100280,100310,100326,100345,100363,100380,100414,100446,100446,100469,100494,100510,100511,100531,100531,100547,100547,100565,100566,100590,100606,100623,100641,100658,100677,100709,100709,100726,100744,100761,100778,100798,100822,100838,100855,100878,100924,100925,100941,100959,100959,100977,100998,101030,101047,101108,101126,101172,101173,101189,101206,101223,101241,101259,101259,101276,101294,101294,101311,101329,101348,101348,101364,101382,101398,101430,101448,101464,101481,101498,101498,101515,101532,101549,101566,101566,101566,101583,101599,101600,101621,101639,101655,101672,101673,101690,101690,101708,101708,101742,101742,101758,101758,101775,101792,101792,101810,101827,101853,101870,101909,101925,101943,101997,102015,102038,102071,102072,102101,102102,102157,102183,102206,102206,102222,102254,102278,102294,102311,102328,102346,102366,102420,102446,102446,102484,102532,102572,102589,102606,102606,102623,102641,102670,102687,102704,102721,102737,102754,102754,102771,102814,102830,102830,102849,102866,102866,102883,102900,102917,102933,102951,102967,102989,103006,103006,103023,103040,103040,103058,103076,103093,103093,103110,103110,103134,103167,103168,103184,103184,103184,103201,103201,103218,103235,103252,103270,103294,103310,103310,103327,103345,103362,103397,103397,103421,103421,103446,103446,103462,103479,103497,103514,103534,103550,103550,103568,103584,103584,103605,103605,103623,103640,103661,103685,103702,103719,103737,103737,103754,103772,103788,103789,103814,103831,103848,103865,103865,103884,103901,103919,103936,103953,103971,103971,103988,104005,104023,104040,104040,104062,104078,104096,104119,104142,104201,104201,104215,104234,104261,104261,104279,104295,104295,104313,104342,104359,104376,104394,104412,104429,104447,104465,104465,104482,104499,104499,104518,104550,104582,104605,104630,104646,104663,104685,104710,104710,104726,104743,104765,104798,104814,104846,104893,104933,104951,104951,104989,104989,105022,105039,105056,105073,105074,105092,105109,105109,105126,105150,105168,105189,105214,105237,105262,105278,105310,105310,105349,105366,105383,105402,105430,105430,105453,105486,105486,105533,105557,105594,105614,105652,105677,105694,105732,105751,105769,105786,105802,105845,105845,105862,105879,105897,105914,105957,106029,106029,106085,106085,106124,106181" d="M176.5,164.5C178.064,165.11067 178.38495,165.94319 178.85266,166.8C179.25951,167.54533 179.49933,168.3 179.5,169.2C179.50067,170.10001 179.50226,171 179.5,171.89999C179.49774,172.79552 179.01851,173.22566 178.2045,173.5045C177.38968,173.78362 176.88933,174.4894 176,174.5C175.10001,174.51073 174.39401,174.95581 173.5,175.33333C172.7171,175.66393 172.44724,176.31921 171.69867,176.49867C170.80652,176.71255 170.23701,177.28481 169.5,177.66667C168.74605,178.0573 167.89146,178.32008 167.2045,178.85716C166.4604,179.4389 166.35936,180.33415 165.63867,180.91066C165.00636,181.41647 164.33351,182.22102 163.74733,182.79016C163.09564,183.4229 162.07285,183.4063 161.48534,184.11067C160.91542,184.79396 160.73521,185.79922 160.216,186.416C159.65923,187.07739 159.09113,187.6273 158.66667,188.5C158.34583,189.15967 158.0396,190.02361 157.55267,190.7955C157.10956,191.49794 156.55367,192.04887 156.07466,192.89999C155.66574,193.62657 155.55067,194.5016 155.5,195.30133C155.44272,196.20543 154.71555,196.70108 154.06799,197.3C153.34628,197.9675 152.76479,198.34108 151.98267,198.584C150.99191,198.89172 150.69241,199.71671 150.49983,200.59984C150.31573,201.44411 149.62967,201.94553 149.4955,202.8C149.36691,203.61884 148.64818,204.26862 148.5045,205.2C148.36728,206.08949 148.5529,207.03474 148.14734,207.8C147.69904,208.64589 147.50067,209.3 147.5,210.25717C147.49937,211.15266 147.67331,212.03554 147.47917,212.97917C147.30077,213.84637 146.58504,214.4874 146.50133,215.3C146.40912,216.19527 146.5,217.10001 146.5,218C146.5,218.89999 146.5,219.8 146.5,220.7C146.5,221.60001 146.5,222.5 146.5,223.3C146.5,224.2 146.5,225.10001 146.5,226.04167C146.5,227.04266 146.5,227.75067 146.5,228.49466C146.5,229.52933 146.5,230.5 146.5,231.3C146.5,232.2 146.42268,233.16754 146.936,233.89999C147.48981,234.69022 148.13911,235.10963 148.7,235.98399C149.13095,236.65579 149.61153,237.46992 150.10001,238.12534C150.61208,238.81238 151.11597,239.65622 151.37866,240.4785C151.63596,241.28387 152.00992,242.04369 152.82117,242.60001C153.45622,243.03551 154.09349,243.72458 154.72133,244.37866C155.32173,245.00417 156.21667,245.37717 156.48933,246.11067C156.79214,246.92528 157.25163,247.44365 157.4955,248.2045C157.78252,249.09999 158.32077,249.55788 158.5,250.5C158.64191,251.24594 158.8978,252.12875 159.216,252.93066C159.54819,253.76779 159.31111,254.7693 159.7215,255.60001C160.06265,256.29059 160.94287,256.86545 161.37866,257.59982C161.84372,258.38348 162.43643,258.86212 163,259.5C163.51552,260.0835 164.20396,260.55362 165,261C165.79947,261.4483 166.53667,261.82614 167.3,262.216C168.0529,262.60052 169.03477,262.44705 169.8,262.85266C170.64595,263.30106 171.47173,263.7117 172.10001,264.07468C172.94566,264.56323 173.4366,265.27481 174.2045,265.49551C175.06517,265.74289 176.013,265.35794 176.89999,265.51068C177.73314,265.65414 178.49216,266.37729 179.3,266.49866C180.20856,266.63516 180.65994,267.37146 181.5,267.5C182.29529,267.62167 183.09755,268.19351 183.98399,268.41467C184.65804,268.58282 185.75481,268.35733 186.59984,268.50015C187.45186,268.64417 187.93544,269.48199 188.8,269.5C189.6998,269.51874 190.60001,269.5 191.5,269.5C192.3,269.5 193.15149,269.48816 193.98399,269.784C194.86661,270.09763 195.74139,270.47141 196.60001,270.5C197.4995,270.52997 198.27011,270.52051 199.15266,270.85266C199.85889,271.11847 200.85283,271.48199 201.83333,271.5C202.54155,271.513 203.5,271.5 204.3,271.5C205.10001,271.5 206.0955,271.5 207.01466,271.5C207.97917,271.5 208.89999,271.5 209.8,271.5C210.7,271.5 211.60001,271.5 212.5,271.5C213.3,271.5 214.2,271.5 215.10001,271.5C216.02083,271.5 216.8215,271.5 217.71066,271.5C218.69983,271.5 219.47917,271.5 220.4785,271.5C221.29866,271.5 222.20006,271.51041 223.10001,271.5C224.00018,271.48956 224.70329,270.95679 225.60001,270.62149C226.45064,270.30341 227.26212,270.53641 228,269.97916C228.77834,269.39136 229.22595,268.73917 230.15266,268.55716C231.00159,268.39044 232.0463,268.55258 232.52533,267.88934C233.04077,267.17569 233.79912,266.72266 234.44733,266.14734C235.04037,265.62097 235.38686,264.77725 235.55267,264.14816C235.82758,263.10519 236.23586,262.34103 236.66667,261.5C237.00697,260.83566 237.73297,260.10361 238.5,259.66666C239.27985,259.22241 239.73395,258.54172 240.14734,257.79999C240.57297,257.03632 240.9213,256.24115 241.37866,255.40016C241.78517,254.65268 242.34726,254.0956 242.784,253.3C243.13977,252.65189 243.53152,251.78833 243.92534,251.10001C244.3914,250.28543 244.69307,249.37596 245.2045,248.8C245.85471,248.06773 246.18253,247.26859 246.784,246.584C247.30734,245.98834 247.34511,245.13852 247.7215,244.39999C248.07124,243.71373 249.00549,243.16537 249.416,242.3C249.77531,241.54254 250.05927,240.75262 250.52083,240C250.98532,239.24261 252.05376,238.96664 252.42799,238.10001C252.78593,237.2711 252.31944,236.19934 252.784,235.584C253.29979,234.90079 253.5,234.2 253.5,233.3C253.5,232.39999 253.5,231.5 253.5,230.7C253.5,229.74283 253.5,228.84734 253.5,228.15266C253.5,227.136 253.5,226.2 253.5,225.3C253.5,224.39999 253.5,223.5 253.5,222.62134C253.5,221.7955 253.5,220.864 253.5,220.01601C253.5,219.15266 253.5,218.25717 253.5,217.3C253.5,216.39999 253.5,215.5 253.5,214.62134C253.5,213.7955 253.50259,212.88004 253.07466,212.10001C252.62238,211.2756 252.36606,210.5887 251.79466,209.84734C251.23856,209.12579 250.67375,208.38474 250.5,207.5C250.33623,206.66609 249.46654,206.37531 248.89999,205.88933C248.15675,205.25177 247.71196,204.36676 247.416,203.7C247.03525,202.84222 246.5146,202.11974 246,201.5C245.50009,200.89795 245.48477,199.90625 244.7955,199.44733C244.04208,198.94569 243.68689,198.14053 243.2785,197.39999C242.90654,196.72551 242.1275,196.06639 241.30133,195.584C240.6051,195.17747 240.07614,194.68608 239.3,194.21466C238.62363,193.80385 238.01904,192.98033 237.39999,192.40016C236.7202,191.76308 235.98505,191.34151 235.416,190.784C234.74332,190.12495 234.05275,189.74902 233.52533,189.064C233.02293,188.41148 232.24063,188.02335 231.66667,187.33333C231.12321,186.67998 231.93282,185.5423 231.41467,184.78534C230.98759,184.16141 229.75555,184.28064 229.06934,183.69867C228.40431,183.13469 227.70737,182.50609 227.5045,181.7955C227.24635,180.89127 226.74416,180.29797 226.33333,179.5C225.98746,178.82819 225.58533,178.01601 225.5045,177.15266L225.4955,176.26167L225.07466,175.52533" id="svg_29" stroke-width="3" stroke="#000" fill="none"/>
  <path t="108661,108870,108888,108924,108965,108989,109028,109068,109068,109102,109119,109141,109165,109182,109213,109230,109230,109253,109302,109333,109357,109357,109381,109398,109415,109433,109449,109449,109466,109466,109483,109483,109483,109483,109564,109564,109612,109645,109669,109669,109686,109709,109743,109760,109777,109794,109812,109812,109829,109829,109846,109846,109846,109863,109863,109881,109881,109924,109941,109958,109989,110023,110039,110172,110172,110197,110214,110231,110261,110324,110341,110359,110375,110429,110446,110477,110495,110541,110613,110613,110652,110828,110932,110932,110949,111236,111254,111308,111412,111460,111460,111478,111509,111542,111574,111605,111644,111716,111884,111884,111972,112668,112780,112813,112917,112935,112935,112950,112951,112968,112968,112984,112984,113002,113003,113019,113037,113055,113055,113073,113090,113110,113126,113158,113174,113220,113284,113317,113334,113351,113369,113397,113421,113439,113456,113485,113502,113502,113520,113554,113554,113572,113589,113589,113628,113645,113662,113679,113679,113679,113696,113696,113713,113730,113748,113748,113788,113844,113869,113886,113903,113904,113920,113938,113955,113973,113990,114007,114007,114025,114044,114061,114061,114077,114077,114094,114117,114134,114152,114168,114168,114185,114185,114203,114221,114238,114256,114274,114292,114311,114333,114333,114357,114374,114391,114408,114429,114453,114453,114479,114509,114527,114544,114604,114629,114661,114724,114741,114796,114821,114876,115820,115837,115854,115871,115887,115887,115888,115905,115906,115957,115973,115990,116007,116025,116042,116043,116060,116079,116109,116126,116144,116161,116228,116284,116284,116301,116301,116318,116356,116381,116485,116485,116524,116541,116558,116558,116576,116577,116577,116594,116594,116614,116630,116647,116664,116665,116680,116697,116697,116714,116732,116732,116749,116766,116766,116814,116845,116924,116957,117020,117020,117037,117054,117071,117071,117101,117118,117118,117136,117152,117182,117388,117438,117455,117455,117472,117472,117489,117507,117523,117540,117541,117557,117574,117591,117591,117609,117627,117627,117644,117662,117681,117698,117740,117766,117766,117820,117837,117861,117900,117933,117973,117999,117999,118015,118037,118054,118054,118092,118092,118284,118340,118357,118374,118391,118516,118588,119212,119230,119500,119517,119535,119535,119552,119552,119570,119570,119587,119587,119605,119605,119622,119645,119645,119662,119700,119733,119733,119772,119789,119807,119807,119823,119840,119857,119857,119857,119874,119874,119874,119891,119940,119940,119957,119989,120036,120092,120109,120141,120176,120176,120193,120193,120211,120228,120245,120262,120279,120309,120309,120326,120343,120361,120398,120421,120438,120469,120486,120504,120522,120522,120539,120557,120558,120592,120609,120629,120661,120661,120700,120733,120752,120768,120785,120805,120822,120839,120857,120874,120892,120892,120909,120910,120927,120944,120961,120979,120979,120979,120996,120996,120996,121014,121014,121031,121061,121103,121140,121158,121158,121181,121252,121356,121508,121572,121636,121708,121797,121844,121869,121869,121972,122005,122005,122029,122053,122396,122532,122549,122565,122764,122820,122837,123044,123044,123084,123102,123122,123122,123139,123172,123205,123412,123580,123620,123638,123655,123708,123764,123836,123900,123900,123917,123941,123973,123990,124028,124068,124101,124133,124157,124181,124197,124198,124214,124254,124300,124300,124348,124382,124399,124399,124417,124434,124435,124451,124452,124470,124470,124486,124509,124526,124544,124561,124561,124579,124596,124612,124629,124630,124646,124646,124677,124693,124711,124729,124747,124764,124789,124828,124861,124861,124885,124909,124941,124965,124965,125012,125040,125084,125101,125125,125164,125204,125222,125245,125245,125261,125293,125325,125341,125366,125387,125548,125581,125772,125828,125861,125861,125877,125900,125964,125964,125991,126044,126061,126404,126444,126478,126496,126496,126525,126572,126590,126607,126764,126820,126876,126909,126925,126943,126960,126960,126977,126994,127012,127045,127061,127079,127116,127172,127220,127260,127260,127277,127294,127311,127328,127358,127436,127453,127453,127453,127492,127509,127510,127510,127564,127564,127564,127589,127589,127606,127652,127725,127772,127812,127892,127925,128028,128068,128068,128132,128132,128157,128412,128429,128446,128477,128494,128516,128533,128684,128710,128756,128781,128797,128798,128821,128853,128869,128909,128948,128981,129020,129037,129054,129054,129071,129089,129089,129089,129106,129106,129124,129125,129141,129142,129158,129158,129176,129177,129177,129193,129193,129210,129211,129227,129243,129244,129261,129279,129301,129380,129413,129436,129461,129461,129478,129496,129514,129530,129546,129565,129589,129613,129613,129645,129668,129686,129702,129732,129876,130012,130012,130093,130116,130148,130173,130197,130197,130213,130231,130248,130292,130310,130348,130348,130412,130436,130454,130484,130509,130526,130527,130548,130588,130644,130662,130724,130749,130765,130783,130800,130817,130837,130854,130854,130870,130887,130905,130922,130923,130940,130965,130965,130981,131005,131029,131046,131077,131100,131118,131136,131154,131154,131170,131171,131187,131188,131204,131244,131262,131294,131316,131333,131334,131365,131381,131399,131417,131437,131454,131471,131471,131492,131509,131541,131564,131565,131589,131621,131647,131661,131680,131708,131709,131725,131742,131765,131789,131789,131805,131806,131823,131839,131964,132036,132053,132071,132088,132105,132105,132122,132123,132141,132158,132181,132197,132214,132232,132249,132277,132278,132300,132318,132318,132348,132383,132400,132417,132434,132434,132435,132451,132469,132486,132504,132521,132539,132539,132565,132565,132620,132653,132670,133316,133351,133368,133385,133405,133443,133477,133531,133532,133596,133620,133621,133638,133656,133677,133700,133717,133772,133789,133853,133876,133900,133901,133917,133943,133966,134004,134044,134061,134084,134109,134140,134166,134183,134183,134244,134292,134452,134500,134548,134565,134565,134583,134600,134618,134636,134652,134724,134757,134789,134806,134806,134836,134871,134888,134905,134922,134923,134923,134940,134940,134956,134957,134957,134957,135092,135092,135125,135164,135189,135189,135206,135236,135237,135291,135363,135381,135413,135444,135462,135479,135495,135512,135512,135513,135529,135529,135529,135530,135530,135546,135546,135546,135563,135732,135732,135749,135769,135785,135813,135844,135862,135879,135896,135917,135951,135966,135989,136012,136036,136053,136077,136094,136112,136128,136149,136166,136188,136205,136222,136240,136257,136257,136285,136301,136318,136336,136336,136356,136373,136411,136428,136467,136515,136555,136635,136653,136723,136764,136803,136804,136988,137021,137038,137039,137063,137078,137091,138124,138124,138141,138141,138268,138563,138596,138597,138621,138637,138660,138700,138739,138852,138979,138997,138997,139029,139068,139380,139923,139957,139974,139975,139991,140008,140025,140059,140077,140094,140095,140111,140129,140129,140146,140146,140147,140163,140163,140163,140180,140181,140181,140197,140198,140215,140232,140371,140389,140407,140437,140437,140468,140492,140493,140509,140540,140541,140558,140559,140581,140581,140581,140723,140741,140758,140759,140775,140867,140886,140901,140919,140936,140953,140953,140971,140971,140988,141004,141005,141005,141115,141133,141156,141259,141277,141294,141295,141295,141295,141295,141296,141296,141311,141312,141312,141312,141328,141329,141379,141515,141540,141667,141779,141780,141797,141798,141798,141814,141815,141815,141815,141831,141832,141848,141849,141988,141988,142005,142024,142123,142140,142158,142159,142175,142176,142192,142193,142193,142209,142211,142211,142212,142226,142227,142227,142227,142387,142406,142424,142424,142445,142492,142525,142542,142565,142565,142589,142590,142627,142660,142723,142900,143083,143101,143102,143117,143118,143135,143136,143153,143154,143323,143358,143374,143375,143394,143394,143410,143411,143430,143531,143564,143565,143582,143599,143599,143617,143633,143634,143651,143667,143668,143684,143701,143923,143948,143988,144006,144006,144022,144040,144042,144058,144077,144171,144196,144213,144230,144252,144284,144310,144325,144326,144345,144372,144427,144539,144564,144588,144620,144637,144661,144661,144677,144695,144695,144712,144729,144730,144746,144795,144820,144839,144891,144908,144927,144928,144946,144979,144997,145014,145031,145078,145139,145180,145204,145222,145239,145256,145257,145279" d="M220.5,286.5C220.5,288.29999 220.5,289.20001 220.5,290.064C220.5,290.936 220.5,291.89999 220.5,292.79999C220.5,293.60016 220.5,294.38535 220.5,295.31467C220.5,296.33066 220.67583,297.13242 220.47917,298C220.26103,298.96231 219.56088,299.59387 219.5,300.5C219.44637,301.29819 219.1293,301.92896 218.62151,302.7215C218.14307,303.46823 218.5,304.5 218.5,305.29999C218.5,306.20001 218.5,307.10001 218.5,308C218.5,308.89999 218.5,309.80899 218.5,310.47067C218.5,311.51434 218.5,312.32132 218.5,313.5C218.5,314.09866 218.5,314.97916 218.5,315.81467C218.5,316.81332 218.5,317.65332 218.5,318.61465C218.5,319.60001 218.5,320.5 218.5,321.29999C218.5,322.20001 218.5,323.064 218.5,324.02084C218.5,324.89999 218.5,325.79999 218.5,326.70001C218.5,327.60016 218.5,328.38535 218.5,329.34668C218.5,329.96167 218.5,331.18399 218.5,332C218.5,332.54733 218.4261,333.81982 218.536,334.65332C218.64655,335.49179 219.30988,336.14981 219.48933,337.10001C219.65637,337.98444 219.5,338.89999 219.5,339.7955C219.5,340.66934 219.67668,341.58475 219.2785,342.47833C218.94563,343.22537 218.06906,343.55005 217.47467,344.07468C216.83127,344.64255 216.58253,345.44876 215.88933,346.064C215.23093,346.64835 214.38812,346.9794 213.85266,347.55267C213.21265,348.23788 212.70731,348.73773 212.49983,349.59982C212.29765,350.43994 211.75377,350.94263 211.2785,351.7215C210.85138,352.42148 210.00461,352.83948 209.584,353.70001C209.16666,354.55386 209.05949,355.32419 208.47467,356.064C207.93852,356.74222 207.89299,357.43179 207.41467,358.21466C206.92386,359.01801 206.26605,359.45828 205.85266,360.20001C205.42703,360.96368 205.07869,361.75885 204.62134,362.59982C204.21481,363.34732 203.52859,363.85571 203.5,364.70001C203.46953,365.59949 203.5,366.5 203.5,367.29999C203.5,368.20001 203.95113,369.23135 203.464,370.064C203.10202,370.68274 202.28979,369.75967 201.5,369.33334C200.81744,368.9649 200.00964,368.31079 199.32533,367.89999C198.51358,367.41269 197.90181,366.85986 197.17867,366.40018C196.52252,365.98309 195.48094,365.74319 194.70134,365.41599C193.83493,365.05234 193.03595,364.65613 192.3,364.21466C191.62138,363.80756 190.99229,363.03369 190.2045,362.55267C189.55058,362.15338 189.57304,361.14984 189.07466,360.52533C188.58948,359.91736 188.5,359.02084 188.5,358.14282C188.5,357.29999 188.38924,356.39316 188.5,355.5C188.61151,354.60077 189.25955,354.18634 189.50133,353.30133C189.71927,352.50357 190.3947,352.02441 190.85266,351.20001C191.26501,350.4577 191.09663,349.56335 191.58533,348.78534C192.05019,348.04526 192.49933,347.61334 192.5,346.67465C192.50072,345.66666 192.5,344.8045 192.5,344C192.5,343.10001 192.50343,342.19101 192.5,341.16666C192.49774,340.49466 192.62184,339.71234 192.27867,338.64301C192.03314,337.8779 191.53798,336.98227 191.14734,336.1955C190.70836,335.3114 190.81898,334.55353 190.27867,333.74283C189.79527,333.01755 189.5,332.29999 189.5,331.39999C189.5,330.5 189.5,329.70001 189.5,328.79999C189.5,327.89999 189.5,327 189.5,326.10001C189.5,325.1955 189.49992,324.33334 189.5,323.5C189.50009,322.52167 189.88051,321.86621 190.33333,321.16666C190.80791,320.4335 190.84303,319.41833 191.14734,318.8045C191.57684,317.93811 191.5,317 191.5,316.10001C191.5,315.1955 191.5,314.33334 191.5,313.5C191.5,312.52151 191.5,311.70132 191.5,310.79999C191.5,309.89999 191.5,309 191.5,308.10001C191.5,307.20001 191.5,306.29999 191.5,305.39999C191.5,304.5 191.5,303.70001 191.5,302.79999C191.5,301.89999 191.5529,300.96527 191.14734,300.20001C190.69904,299.3541 190.52536,298.4996 190.5,297.70001C190.47141,296.79861 189.81448,296.07742 189.55716,295.20001C189.30371,294.33582 189.05202,293.7496 188.52533,293.064C188.02319,292.41037 187.92921,291.33783 187.33333,290.66666C186.79504,290.06036 186.74747,289.26535 186.216,288.58401C185.73137,287.96274 185.68613,288.33438 185.44284,289.20001C185.18552,290.11557 184.64442,290.8302 184.52533,291.75067C184.42934,292.49255 184.16805,293.50516 183.85266,294.19101C183.4469,295.07339 183.38878,295.90491 182.92534,296.56134C182.41496,297.28424 182.07869,298.10083 181.66667,298.83334C181.32214,299.44589 181.74945,300.73642 181.27867,301.37866C180.76683,302.07693 180.64273,302.78513 180.14734,303.44733C179.62927,304.13983 179.22789,304.9631 178.33333,305.33334C177.71288,305.59012 176.6665,305.48285 175.8045,305.5C174.89946,305.51801 174.26341,306.19342 173.416,306.49866C172.5542,306.80908 171.7,306.5 170.8,306.5C169.864,306.5 169.01024,306.54074 168.25333,306.46399C167.07036,306.34406 166.55276,306.14401 165.76134,305.92532C164.64429,305.61664 163.8074,305.45023 163,305C162.2029,304.55551 161.69284,303.9263 160.93066,303.58533C160.21259,303.26407 159.06633,303.64719 158.3,303.21466C157.61084,302.82568 157,302 156.39999,301.39999C155.8,300.79999 155.10001,300.10001 154.5,299.5C153.89999,298.89999 153.10362,298.26703 152.66667,297.5C152.22241,296.72012 151.70952,296.15579 151.2785,295.39999C150.89693,294.7309 150.00043,294.16534 149.62134,293.39999C149.20192,292.55322 148.93457,291.85202 148.2,291.2045C147.53778,290.62076 146.55225,290.5831 145.936,289.88934C145.35136,289.23117 145.17342,288.29684 144.44733,287.85266C143.76276,287.43387 143.5,288.5 143.5,289.25717C143.5,290.15268 143.83099,291.08389 143.47917,291.95834C143.17357,292.71793 142.51801,293.36084 142.5,294.33334C142.48601,295.0892 142.5,296 142.5,296.91068C142.5,297.82132 142.5,298.67465 142.5,299.61465C142.5,300.5 142.48201,301.30017 142.5,302.20001C142.51801,303.10056 143.11813,303.81033 143.41467,304.70001C143.70055,305.55765 143.33185,306.53644 143.58533,307.29999C143.84167,308.07217 144.4854,308.88028 145,309.5C145.49991,310.10202 145.37645,311.03403 145.784,311.78534C146.21379,312.57767 146.49933,313.29999 146.5,314.20001C146.50069,315.13599 146.33119,316.02414 146.61433,316.84732C146.90427,317.69025 148.22552,317.7905 148.38116,318.7955C148.50375,319.58707 147.84373,320.19025 147.47917,320.97916C147.12286,321.75018 146.46075,322.30646 146,323.02084C145.51425,323.77399 145.37592,324.70862 145.50017,325.59982C145.61197,326.40173 146.73541,326.61325 147.14284,327.26166C147.64458,328.06018 147.47762,328.95117 148.20984,329.74734C148.62102,330.19446 149.50499,330.80255 149.97917,331.5C150.53169,332.31268 151.09312,332.92422 151.44733,333.8045C151.7794,334.62982 151.88754,335.54398 152.416,336.33066C152.86043,336.99225 153.84441,337.28253 154.63867,337.52533C155.42429,337.7655 155.90887,338.62732 156.33333,339.5C156.65419,340.15967 157.02213,340.97702 157.8,341.45184C158.60135,341.94098 159.02081,342.55295 159.3,343.18799C159.73128,344.16898 160.006,344.97128 160.21466,345.73065C160.51346,346.81808 160.85942,347.65234 161.216,348.29999C161.69151,349.16367 162.43182,349.10696 163.21466,349.58533C164.01788,350.07617 164.21179,351.00284 164.92534,351.46399C165.7067,351.96896 166.66032,351.85669 167.25717,352.60001C167.74049,353.20193 168.10129,354.08725 168.47467,354.89999C168.88217,355.78702 169.03201,356.6987 169.66667,357.33334C170.30132,357.96799 170.92117,358.19855 171.5,358.97916C171.97221,359.616 172.72482,360.04358 173.37866,360.72134C173.93674,361.29984 174.80281,361.33447 175.44733,361.85266C176.0587,362.34421 176.50587,363.19464 177.20984,363.44733C177.98067,363.724 178.98932,364.01016 179.59984,364.59982C180.22525,365.20389 181.03354,365.36133 181.89999,365.51068C182.73311,365.65427 183.53448,366.24222 184.3,366.58401C185.04353,366.91599 185.88933,367.47467 186.5,368C187.11067,368.52533 187.88173,368.95639 188.69867,369.41599C189.40132,369.81128 189.92606,370.47388 190.5,371C191.11145,371.56049 191.79239,372.21463 192.2,372.85184C192.6909,373.61923 193.48596,373.91843 194.21466,374.58401C194.81038,375.12814 195.06056,375.99356 195.60017,376.82166C196.05544,377.52029 196.37082,378.19556 196.98399,379.18268C197.3175,379.7196 197.82825,380.50439 198.47833,381.35699C198.94485,381.96884 199.37662,382.85123 199.92534,383.47467C200.43976,384.05911 201.18665,384.48862 201.8,385.20532C202.26312,385.74649 202.92429,386.53461 203.52533,387.07468C204.16367,387.64825 204.50763,388.43903 203.7955,388.5C202.90326,388.57639 201.98428,388.34293 201.10001,388.51068C200.15408,388.69016 199.5126,389.41501 198.7,389.49866C197.74786,389.59668 196.77943,389.75317 196.06934,389.41467C195.27998,389.03836 195.46352,387.22604 194.55716,387.20901C194.44745,387.20694 194.59151,388.30588 194.064,388.88934C193.44293,389.57629 192.4511,389.62564 191.85333,390.11066C191.05882,390.75534 190.36804,391.21228 189.38667,391.41467C188.51723,391.59396 188.08342,390.81598 187.784,389.98267C187.44681,389.04422 187.50067,388.10001 187.5,387.20001C187.49933,386.30133 187.15111,385.47797 186.52533,385.92532C185.83505,386.41879 185.31511,386.98941 184.66667,387.66666C184.06224,388.29794 183.39999,388.5 182.5,388.5C181.7,388.5 180.8,388.5 179.89999,388.5C179,388.5 178.0529,388.59402 177.2,388.14734C176.44777,387.75339 175.68718,387.32898 175.5,386.5C175.30042,385.61615 174.68573,385.16888 174.27867,384.39999C173.87762,383.64246 173.18861,383.11526 172.66667,382.33334C172.19484,381.6265 172.74559,380.66641 172.5,379.78534C172.27368,378.97342 171.30981,378.47076 170.85716,377.79999C170.37276,377.08215 169.70732,376.71002 168.98267,376.24533C168.27077,375.78882 168.08447,374.94803 167.5,373.83334C167.14789,373.1618 166.70505,372.45303 166.41467,371.69867C166.08199,370.83441 165.03595,370.65613 164.3,370.21466C163.62138,369.80756 163.06079,368.9751 162.55267,368.2045C162.08862,367.50073 161.16179,367.31418 160.5,366.97916C159.64236,366.54498 159.12137,365.94867 158.52533,365.11066C158.05846,364.45422 157.49794,363.89041 156.7955,363.44733C156.02361,362.96042 155.17999,362.69604 154.30133,362.49866C153.54858,362.32956 153.1848,361.45767 152.784,360.70001C152.33466,359.85062 151.98267,359.1496 151.584,358.29999C151.18034,357.43973 150.6658,357.06833 149.936,356.47467C149.28694,355.94666 149.0396,354.97641 148.55267,354.2045C148.10956,353.50204 147.55986,352.94919 147.14734,352.20001C146.68552,351.3613 146.28903,350.52783 145.92534,349.89999C145.47937,349.13013 145.77026,348.16135 145.4955,347.2045C145.27498,346.43655 144.55989,345.94916 144.14734,345.20001C143.68555,344.36145 143.19507,343.72964 142.55267,343.14734C141.9617,342.61163 141.14331,342.34671 140.52083,341.97916C139.68573,341.48608 139.22993,340.72632 138.39999,340.27866C137.75237,339.92932 137.07739,339.34076 136.416,338.784C135.79922,338.26477 134.75943,337.95709 134.536,337.11066C134.30711,336.24359 134.1848,335.45767 133.784,334.70001C133.33466,333.85062 133.06549,333.10556 132.584,332.30133C132.13881,331.55771 131.80739,330.91943 131.48933,330.11066C131.20393,329.38492 130.06377,329.25226 129.2045,329.50449C128.43242,329.73111 128.15347,330.80963 127.69867,331.29999C127.03603,332.0144 126.72312,332.82651 126.49866,333.69867C126.29255,334.49957 125.51042,335.02066 125.5,335.89999C125.48933,336.79993 125.58212,337.7038 125.49983,338.60001C125.41615,339.51144 125.10088,340.20926 124.5,340.97916C124.01042,341.60645 123.08365,341.59076 122.47467,342.07468C121.84018,342.57886 120.80442,342.49762 120.016,343.06934C119.46093,343.47183 118.8807,343.92737 118.14667,344.87466C117.57942,345.60672 117.63031,346.41165 117.16,347.10132C116.52523,348.03217 115.80119,348.30328 115.16534,348.62799C114.02197,349.21185 113.16667,349.37195 112.52533,349.92532C111.94739,350.42401 110.83811,350.33795 110.52084,351.02084C110.11667,351.89075 110.02062,352.61188 109.44733,353.14734C108.76211,353.78735 108.5,354.5 108.5,355.25717C108.5,356.15268 108.50565,357.01602 108.5,357.97916C108.49467,358.8894 107.7252,359.43661 107.5045,360.2045C107.25713,361.06519 107.43465,361.93741 106.92533,362.52533C106.36343,363.17395 105.56089,363.71524 105.5,364.60001C105.43821,365.49786 105.5,366.33334 105.5,367.20984C105.5,368.01733 105.37881,369.05252 105.85267,369.7955C106.34367,370.56537 107.33334,370.66666 107.5,371.5C107.66666,372.33334 108.4572,372.78238 108.5,373.70001C108.54193,374.59903 108.58777,375.29855 109.02084,376.04166C109.6031,377.04077 109.91224,377.74326 110.14283,378.49466C110.40513,379.34937 110.5724,380.22971 111.20533,380.8045C111.894,381.42993 112.43481,382.15189 112.491,382.90451C112.56522,383.89862 112.49732,384.73599 112.5,385.66666C112.50225,386.44818 112.45064,387.5173 112.72134,388.35718C112.97775,389.15271 113.44858,389.98151 113.4955,390.84732C113.55052,391.86264 113.70414,392.79529 114.30133,393.21466C115.06215,393.74893 115.20277,394.48318 115.784,395.33066C116.26101,396.02618 116.5,396.70001 116.5,397.60001C116.5,398.5 116.5,399.29999 116.5,400.20001C116.5,401.10001 116.5,402 116.5,402.89999C116.5,403.79999 116.5,404.70001 116.5,405.60001C116.5,406.5 116.5,407.29999 116.5,408.20001C116.5,409.10001 116.66279,409.93805 117.14733,410.55267C117.65933,411.20212 117.5,412.13599 117.5,413.14816C117.5,413.93066 117.064,414.5 116.2,414.5C115.3,414.5 114.4,414.5 113.5,414.5C112.7,414.5 111.79994,414.48959 110.9,414.5C109.99982,414.51044 109.29671,415.04321 108.4,415.37851C107.54936,415.69659 106.66556,415.30405 105.8,415.55716C104.92236,415.81381 104.20135,416.47141 103.3,416.5C102.40045,416.52853 101.5,416.5 100.7,416.5C99.8,416.5 98.9,416.5 98,416.5C97.1,416.5 96.1839,416.66797 95.30133,416.49866C94.54487,416.35352 94.66206,415.19995 94.14733,414.55267C93.655,413.93356 92.99949,413.28122 92.66666,412.5C92.34648,411.74847 92.51018,410.79993 92.5,409.89999C92.48958,408.97897 92.26531,408.18408 91.92533,407.32535C91.609,406.52634 91.5,405.5 91.5,404.70001C91.5,403.79999 91.5,402.89999 91.5,402C91.5,401.10001 91.50008,400.20001 91.5,399.29999C91.49992,398.40018 91.03781,397.8165 90.6215,397.05701C90.24359,396.36758 90.5665,395.29553 90.47916,394.52084C90.36498,393.50803 89.85434,392.80377 89.5,392C89.14899,391.20377 88.85277,390.37979 88.33334,389.66666C87.81879,388.96024 87.59425,388.38376 87.41467,387.61465C87.18966,386.651 86.5937,385.94543 86,385.47916C85.37883,384.9913 84.97259,384.15427 84.584,383.29999C84.23689,382.5369 83.85267,381.79999 83.5,381C83.14733,380.20001 82.74728,379.34946 82.33334,378.5C82.01549,377.84775 81.51042,377.00018 81.5,376.10001C81.48959,375.20007 81.58212,374.2962 81.49983,373.39999C81.41615,372.48856 80.80874,372.06885 80.02084,371.5C79.42365,371.06882 79.05524,370.10812 78.5,369.5C77.92683,368.87225 77.76324,367.96542 77.44733,367.20984C77.10288,366.38596 76.62137,365.65869 75.97916,365.02084C75.33585,364.3819 74.02086,364.17499 73.55717,364.85718C73.0815,365.55701 73.33676,366.668 73.07467,367.32535C72.67192,368.33545 72.67258,369.10956 72.47916,370C72.29533,370.84634 71.83478,371.66217 71.49866,372.41599C71.17943,373.13196 70.63443,373.90985 70.4955,374.79999C70.36768,375.61896 69.65451,376.26828 69.51067,377.13599C69.37196,377.97266 69.70629,378.86871 69.5,379.85333C69.35492,380.54581 68.66871,380.95319 68.491,381.8045C68.30276,382.70621 67.61682,383.29935 67.20533,383.84732C66.56105,384.70529 66.61076,385.60684 66.5,386.5C66.38848,387.39923 65.62897,387.80072 65.33334,388.66666C65.04334,389.51605 64.74471,390.35757 64.47467,391.08932C64.16169,391.93741 63.71726,392.79437 63.14734,393.44733C62.63703,394.03195 61.87585,394.29071 61.52083,395.02084C61.13628,395.81171 61.5,396.79999 61.5,397.70001C61.5,398.60001 61.32357,399.53925 61.58533,400.29999C61.85358,401.07956 62.62412,401.80304 63.3,402.21466C64.14249,402.72775 64.6171,403.28192 65.07467,404.10001C65.50664,404.87231 65.91453,405.58408 66.55267,406.14734C67.14807,406.67288 67.50117,407.4837 68.02084,408.02084C68.68801,408.71048 69.3344,409.13437 70.2,409.55267C71.01844,409.94818 71.38851,410.84097 71.92533,411.47467C72.4281,412.06818 72.56696,412.84357 73.07467,413.52533C73.55188,414.16614 73.42269,415.16754 73.936,415.89999C74.48965,416.69003 75.08023,417.09232 75.5,418C75.86697,418.79352 76.83086,419.82065 76.2785,420.37851C75.65451,421.00873 74.5,420.50189 73.74284,420.5C72.85183,420.49774 71.95189,420.2251 71.33334,419.66666C70.68431,419.08069 70.14413,418.52859 69.2,418.5C68.30042,418.47275 67.39925,418.53665 66.5,418.5C65.79826,418.47141 65.1268,417.76062 64.21467,417.5C63.33648,417.24908 62.71268,416.99606 61.83567,416.62149C61.24826,416.37061 60.44351,416.51953 59.184,416.49866C58.49982,416.48734 57.33115,416.34256 56.816,416.216C55.99627,416.01462 55.18917,415.75491 53.96617,415.55267C53.22156,415.42953 52.52084,414.97989 52.5,414.08932C52.47869,413.17892 52.49992,412.32535 52.5,411.38535C52.50008,410.39999 52.62429,409.72256 53.07467,408.89999C53.50194,408.1196 53.50008,407.20001 53.5,406.29999C53.49992,405.40018 52.95474,404.82886 52.55717,404.14282C52.08101,403.3212 52.17575,402.32629 51.78567,401.83383C51.29005,401.20816 50.48967,400.17303 50.1,399.53201C49.689,398.8559 49.31534,398.14145 48.9,397.46799C48.32141,396.52982 47.69626,395.80243 47.21433,395.16617C46.63986,394.40771 46.5,393.5 46.5,392.70001C46.5,391.79999 46.5,390.89999 46.5,390C46.5,389.10001 46.3051,388.17831 46.50134,387.30133C46.68192,386.49429 47.44011,385.94916 47.85266,385.20001C48.31446,384.36145 48.98262,383.89249 49.41467,383.21466C49.90778,382.44101 49.99054,381.68954 50.47467,381.064C51.05185,380.31821 51.0858,379.35089 51.66667,378.66666C52.23227,378.0004 52.38924,377.39316 52.5,376.5C52.61152,375.60077 53.45729,375.21765 53.5,374.29999C53.54185,373.40097 53.32646,372.46176 53.58533,371.70001C53.8871,370.81207 54.38386,370.05869 54.784,369.29999C55.23672,368.44162 55.55171,367.79944 56,367C56.44638,366.20395 57.03844,365.62375 57.5,364.97916C57.99662,364.28558 58.89578,363.96304 59.41467,363.21466C59.88129,362.54163 59.84191,361.65439 60.47467,361.07468C61.0602,360.53824 61.35952,359.77029 61.584,358.98267C61.8315,358.11426 62.5,357.33334 62.5,356.5C62.5,355.70001 62.91269,354.67657 62.44283,353.85718C62.04841,353.16931 61.5,352.5 61.5,351.74283C61.5,350.84732 61.34485,349.97116 61.5,349.04166C61.64397,348.1792 62.41496,347.5126 62.49866,346.70001C62.59088,345.80472 62.5,344.89999 62.5,344C62.5,343.10001 62.5,342.20001 62.5,341.29999C62.5,340.39999 62.5,339.5 62.5,338.70001C62.5,337.79999 62.55344,336.74661 61.7955,336.50449C60.9416,336.23172 60.10769,336.05579 59.4,335.40018C58.80637,334.85022 58.03645,334.38052 57.44733,333.85266C56.87566,333.34045 56.03163,332.93802 55.2,332.55267C54.32814,332.14868 53.70879,331.75912 52.864,331.47467C52.02136,331.19095 51.2682,330.86499 50.33333,330.66666C49.5564,330.50183 48.71221,330.55148 47.66667,330.33334C46.7082,330.13336 46.05461,329.77719 45.07883,329.40018C44.29093,329.09576 43.52699,328.78015 42.47066,328.58533C41.7109,328.44519 40.68661,328.89337 39.936,328.46399C39.24537,328.06891 39.39775,326.89197 39.52083,325.97916C39.6311,325.16135 40.19498,324.3605 40.41467,323.38535C40.61014,322.51764 40.61465,321.71609 41,320.97916C41.41038,320.19437 41.49467,319.28937 41.5,318.29999C41.50431,317.5 41.5,316.5 41.5,315.71066C41.5,314.98532 41.56667,313.74338 40.85333,313.51068C39.89687,313.1987 39.15267,313.5 38.136,313.5C37.2,313.5 36.02036,313.82535 35.55717,313.14282C35.08279,312.44382 35.5,311.39999 35.5,310.5C35.5,309.74283 35.5,308.84732 35.5,307.98401C35.5,306.97916 35.52323,305.95676 35.48933,305.26001C35.44513,304.35135 34.93294,303.22635 34.11067,303.51068C33.30729,303.78848 32.71818,304.49112 32.47467,303.67334C32.13739,302.54068 32.28223,302.07114 32.14283,301.07501C32.06606,300.52637 31.89162,299.37964 31.7955,298.80167C31.70092,298.23297 31.40925,296.68402 31.2045,295.83316C31.02861,295.10223 30.73087,294.20001 30.58533,293.18668C30.46545,292.35193 30.72213,291.2681 30.216,290.58401C29.70558,289.89413 28.91726,289.48776 28.17867,289.94232C27.45259,290.38919 26.55189,290.96655 26,290.375C25.48441,289.82236 25.17427,288.85956 24.85183,288.19467C24.51607,287.50229 24.01421,286.48563 23.743,285.54315C23.52744,284.79407 23.59361,283.6568 23.464,282.87466C23.31803,281.99384 23.19427,280.82043 22.2045,280.61884C21.47437,280.47012 20.73152,281.54843 20.51067,280.85333C20.20466,279.89023 20.5,279.09549 20.5,278.09866C20.5,277.26401 20.5,276.33334 20.5,275.54285C20.5,274.68933 20.5,273.5 20.5,272.89868C20.5,271.97916 20.5,271.34283 20.5,269.979C20.5,269.25635 20.50066,268.54166 20.5,267.55466C20.49933,266.55865 20.20435,265.85913 19.5,266.5C18.89092,267.05417 18.06833,267.73367 17.2045,267.49551C16.43744,267.28403 16.5,266.1955 16.5,265.33334C16.5,264.5 16.5,263.52151 16.5,262.70132C16.5,261.79999 16.5,260.89999 16.5,260.02084C16.5,259.064 16.5,258.1955 16.5,257.33334C16.5,256.5 16.5,255.52133 16.5,254.74733C16.5,253.84283 16.5,253.0955 16.5,251.9045C16.5,251.15717 16.49991,250.25717 16.5,249.3C16.50008,248.39983 16.57167,247.60966 16.92533,246.664C17.13912,246.09236 17.45268,245.10382 17.4955,244.15717C17.53617,243.25809 17.34647,242.25154 17.66667,241.5C17.99949,240.71881 18.42095,239.90887 19.068,239.3C19.71038,238.69553 20.35425,238.05801 20.784,237.3C21.14864,236.65683 21.55655,235.74194 22.20533,235.2C22.88229,234.63451 23.64719,234.07097 24.14733,233.44733C24.66473,232.80217 24.1855,232.11284 23.66667,231.33333C23.19579,230.62587 23.78199,229.61609 23.38567,228.8C23.01775,228.04242 22.16265,227.61749 21.48533,226.936C20.92179,226.369 20.50067,225.69867 20.5,224.8C20.49933,223.89999 20.33272,222.89072 20.85717,222.2045C21.43055,221.45425 22.19687,221.06155 22.94267,220.62134C23.5642,220.25447 24.56229,220.08134 25.07467,219.47467C25.59019,218.86426 25.5,217.89999 25.5,217C25.5,216.10001 25.5,215.2 25.5,214.3C25.5,213.39983 25.5,212.61467 25.5,211.67467C25.5,210.66667 25.5,209.91066 25.5,208.97917C25.5,208.01601 25.5,207.32533 25.5,206.25717C25.5,205.39999 24.95577,204.31949 25.50133,203.58533C26.01985,202.88756 26.95963,202.81512 27.3785,202.05716C27.74161,201.4001 27.35231,200.16386 27.85267,199.55267C28.34959,198.94568 29.18362,198.82903 29.97917,198.47917C30.69119,198.16605 31.04358,197.27516 31.72133,196.62134C32.29982,196.06326 32.50134,195.30133 32.85717,194.55267L33.69867,194.21466L34.21467,193.69867L34.55267,192.85716" id="svg_30" stroke-width="3" stroke="#000" fill="none"/>
  <polyline timestamps="146318,146391" startTime="1501996679934" id="svg_31" points="41.5,285.5 41.5,287.29999999999995 " stroke-linecap="round" stroke-width="3" stroke="#000" fill="none"/>
  <path t="146405,146446,146463,146463,146480,146480,146480,146497,146497,146497,146514,146514,146530,146530,146530,146530,146547,146547,146547,146564,146564,146581,146581,146600,146622,146622,146637,146638,146638,146654,146672,146689,146707,146707,146724,146742,146760,146760,146777,146795,146813,146813,146829,146830,146852,146870,146886,146886,146887,146924,146924,146972,147005,147023,147047,147070,147070,147086" d="M41.5,288.5C41.536,291.12534 41.81895,291.97421 42.07467,292.74667C42.375,293.6539 42.43169,294.45432 42.52533,295.27466C42.64647,296.33585 42.88221,297.0332 43.14734,297.89551C43.45311,298.89005 43.48997,299.76379 44,300.5C44.46849,301.17624 45.27509,301.69278 45.648,302.18533C46.34971,303.11221 46.41481,303.98758 46.58133,304.73065C46.8006,305.70908 47.33627,306.45154 47.69867,307.26666C48.00974,307.96634 48.29898,309.01459 48.66667,309.83334C48.99109,310.55576 49.50764,311.49628 49.7955,312.09549C50.15236,312.83832 50.48061,313.86353 50.5,314.79999C50.51863,315.69983 50.84,316.49121 51.5,317C52.26504,317.58975 52.72954,318.2063 53.5,318.66666C54.2195,319.09659 54.37603,320.06784 54.85717,320.79999C55.3791,321.59424 56.07826,322.12262 56.7,322.69867C57.2805,323.23651 58.26204,323.46106 59.02083,324.04166C59.73459,324.5878 60.15263,325.15271 60.84733,325.84732C61.47847,326.47836 62.08187,327.06888 63,327.5C63.78932,327.87064 64.37867,328.59982 64.7215,329.37866L65.5,329.66666L66.2,330.2045L66.7955,330.79999" id="svg_32" stroke-width="3" stroke="#000" fill="none"/>
  <path t="147877,147996,148068,148068,148116,148132,148150,148167,148167,148185,148238,148284,148309,148341,148365,148436,148460,148478,148495,148514,148548,148582,148582,148605,148644,148700,148756,148756,148789,148815,148837,148870,148894,148925,148925,148942,148973,148998,149014,149032,149032,149047,149067,149083,149420,149437,149454,149724,149724,149796,149820,149820" d="M67.5,332.5C68.55267,334.25717 68.76027,335.21097 69.2045,335.79016C69.7785,336.53854 70.45268,337.12772 71.20533,337.44733C72.11292,337.83273 72.10633,338.43207 72.58533,339.21466C73.07675,340.01755 74.10831,340.23886 74.464,340.936C74.85503,341.70245 75.22559,342.3739 75.48933,343.11066C75.7891,343.94803 75.50009,344.89798 76,345.5C76.5146,346.11972 76.9442,346.8923 77.59983,347.60001C78.14979,348.19363 78.43479,349.03204 78.85267,349.79999C79.31026,350.6409 79.5,351.5 79.5,352.29999C79.5,353.20001 79.5,354.10001 79.5,354.97916C79.5,355.936 79.5,356.8045 79.5,357.66666C79.5,358.47916 79.60799,359.41229 80.07467,360.11066C80.56367,360.84244 80.36343,361.85663 80.784,362.70001C81.11392,363.36163 81.13477,364.29776 81.536,365.064C81.93312,365.82236 82.49933,366.30133 82.5,367.20001C82.50069,368.13599 82.5,368.98401 82.5,369.84732L82.51067,370.86401L82.784,371.70001L83.216,372.29999" id="svg_33" stroke-width="3" stroke="#000" fill="none"/>
  <path t="153164,153231,153248,153248,153248,153266,153266,153266,153283,153283,153283,153283,153303,153303,153303,153319,153319,153319,153319,153335,153336,153352,153352,153352,153352,153370,153370,153370,153370,153370,153386,153386,153386,153386,153386,153386,153386,153404,153404,153404,153404,153404,153404,153404,153420,153420,153420,153420,153420,153420,153420,153436,153436,153436,153436,153436,153436,153436,153436,153453,153453,153453,153453,153453,153453,153453,153453,153470,153470,153470,153470,153487,153487,153487,153487,153504,153504,153504,153504,153504,153522,153522,153522,153522,153539,153539,153539,153539,153539,153557,153557,153557,153557,153557,153574,153574,153574,153574,153574,153591,153591,153591,153591,153591,153609,153609,153609,153625,153625,153625,153643,153643,153660,153660,153660,153676,153676,153693,153693,153710,153710,153710,153727,153727,153727" d="M106.5,190.5C106.064,191.94667 105.46994,192.64986 105.1,193.34666C104.66372,194.16841 104.30315,195.18706 104.08933,195.73599C103.74994,196.6073 103.35095,197.50978 102.84734,198.39549C102.51161,198.98593 102.13702,199.53345 101.52133,200.57867C101.11491,201.26865 100.76022,201.96036 100.17867,202.92133C99.85446,203.45705 99.31878,204.2706 98.984,204.81599C98.37465,205.80872 97.87656,206.70726 97.66666,207.66667C97.49407,208.4556 97.51707,209.06407 97.416,210.07201C97.29835,211.24533 97.14491,212.1192 97.064,212.58267C96.89371,213.55811 96.79186,214.06549 96.5,215.66667C96.39891,216.22127 96.2021,217.35678 96.11066,217.936C96.01841,218.52045 95.85087,219.70377 95.78533,220.30133C95.65401,221.49869 95.58179,222.70119 95.55717,223.3045C95.53244,223.91052 95.50915,225.13599 95.5045,225.75717C95.4998,226.38531 95.5,227.66667 95.5,228.98534C95.5,229.65717 95.5,230.336 95.5,231.02083C95.5,231.71066 95.5,232.4045 95.5,234.5C95.5,235.2 95.5,235.89999 95.5,236.60001C95.5,237.3 95.5,238 95.5,238.7C95.5,240.10001 95.5,241.5 95.5,242.19934C95.5,242.89467 95.5,243.582 95.5,244.25734C95.5,245.556 95.5,246.17134 95.5,246.75867C95.5,248.31416 95.5,249.17583 95.5,249.9375C95.5,250.63916 95.5,252.0215 95.5,252.75717C95.5,253.52083 95.5,254.3045 95.5,255.5C95.5,256.29999 95.5,257.10001 95.5,257.89999C95.5,258.70001 95.5,259.89999 95.5,260.70001C95.5,261.5 95.499,262.29999 95.5,263.5C95.50067,264.30133 95.49939,265.11108 95.536,265.936C95.57372,266.78592 95.64848,267.66922 95.78667,268.58267C95.92812,269.51767 96.13366,270.44217 96.26167,270.89017C96.62959,272.17783 96.9725,272.93842 97.336,273.64932C97.698,274.3573 98.12076,275.05829 98.69984,276.24249C98.90562,276.66333 99.29238,277.5387 99.664,278.41333C100.01756,279.24545 100.47292,280.33801 100.74284,280.9285C101.08235,281.67123 101.61897,282.69113 101.88934,283.29999C102.23984,284.08929 102.42586,285.10742 102.55267,285.95715C102.69712,286.92514 102.89957,287.72824 103.2045,288.49017C103.55851,289.37476 104.1136,290.0658 104.8045,290.80899C105.26642,291.30588 105.83148,292.03583 106.32533,292.76132C106.85839,293.5444 107.33334,294.33334 107.73833,295.03833L108.13834,295.83835" id="svg_34" stroke-width="3" stroke="#000" fill="none"/>
  <path t="154261,154326,154342,154342,154342,154342,154342,154360,154360,154360,154360,154360,154360,154360,154376,154376,154376,154376,154376,154376,154376,154376,154376,154393,154393,154393,154393,154393,154393,154393,154393,154393,154410,154410,154410,154410,154410,154410,154410,154410,154410,154427,154427,154427,154427,154427,154427,154427,154427,154427,154444,154444,154444,154444,154444,154444,154444,154444,154444,154462,154462,154462,154462,154462,154462,154462,154462,154462,154478,154478,154478,154478,154478,154478,154478,154478,154478,154494,154495,154495,154495,154495,154495,154495,154495,154495,154511,154511,154511,154511,154511,154528,154528,154529,154545,154545,154563,154579,154660" d="M109.5,224.5C108.47467,225.25467 108.28045,226.48651 108.14283,227.23317C108.0651,227.65486 107.88749,228.57832 107.69867,229.59067C107.49804,230.66631 107.39626,231.22136 107.2,232.37067C107.09805,232.96767 106.99499,233.58257 106.8,234.87601C106.69736,235.55693 106.4982,236.99977 106.4,237.76483C106.29814,238.55843 106.19853,239.38033 106.1,240.22934C105.99849,241.104 105.8988,242.00388 105.8,242.92783C105.69877,243.87453 105.49865,245.83319 105.40017,246.843C105.29996,247.87053 105.20201,248.91412 105.11066,249.972C105.01832,251.04146 104.93232,252.12108 104.85717,253.209C104.78164,254.30243 104.6622,256.49982 104.6215,257.59967C104.58088,258.69717 104.55422,259.79092 104.536,260.87866C104.51791,261.95831 104.50919,263.02802 104.5045,264.08566C104.49988,265.12933 104.5,267.16666 104.5,268.15701C104.5,269.12933 104.5,270.08566 104.5,271.02802C104.5,271.95834 104.5,272.87866 104.5,273.79099C104.5,274.69733 104.5,276.5 104.5,277.39917C104.5,278.29333 104.5,279.17749 104.5,280.04666C104.5,280.89584 104.5,281.72 104.5,282.51416C104.5,283.27335 104.5,284.66666 104.5,285.29251C104.5,285.87332 104.5,286.41415 104.5,286.92001C104.5,287.39584 104.5,287.84668 104.5,288.2775C104.5,288.69333 104.49852,289.5 104.5005,289.90067C104.5025,290.30533 104.50807,290.71826 104.532,291.14267C104.55686,291.58371 104.6,292.04514 104.6715,292.52866C104.74751,293.04263 104.99261,294.16867 105.16417,294.78516C105.34554,295.43689 105.55861,296.10745 105.78667,296.79068C106.01691,297.48047 106.25854,298.16318 106.49917,298.83215C106.73191,299.47919 107.16755,300.66632 107.357,301.19232C107.68722,302.10913 107.95104,302.87769 108.191,303.52032C108.58782,304.58307 108.9491,305.2431 109.21467,306.09866C109.51684,307.07208 109.55267,307.78568 110.14733,308.54816L110.4955,309.2045L110.61433,310.14282" id="svg_35" stroke-width="3" stroke="#000" fill="none"/>
  <path t="155237,155303,155303,155303,155303,155303,155303,155319,155319,155319,155319,155319,155319,155319,155320,155338,155338,155338,155338,155338,155339,155339,155339,155339,155354,155355,155355,155355,155355,155355,155355,155355,155355,155371,155371,155371,155371,155371,155371,155371,155371,155371,155389,155389,155389,155389,155389,155389,155389,155389,155389,155404,155405,155405,155405,155405,155405,155405,155405,155405,155423,155423,155423,155423,155424,155424,155424,155424,155424,155439,155439,155439,155439,155439,155439,155439,155439,155439" d="M92.5,209.5C90.07833,212.36484 89.53519,213.17853 89.25333,213.62933C88.64656,214.59981 88.33682,215.12694 88.01334,215.67467C87.33014,216.83145 86.96423,217.4353 86.25633,218.72783C85.88828,219.39984 85.53111,220.09926 85.19733,220.82933C84.85614,221.57564 84.50537,222.34283 84,224C83.73842,224.85774 83.54319,225.75931 83.3625,226.6895C83.17619,227.64868 83.01818,228.64542 82.86,229.67599C82.69642,230.74176 82.54924,231.8479 82.16666,234.16667C81.9652,235.38774 81.73293,236.64494 81.48116,237.93767C81.2224,239.26633 80.94128,240.62581 80.64267,242.01466C80.33768,243.43317 80.01979,244.87781 79.33334,247.83333C78.98248,249.34393 78.61637,250.87108 78.24284,252.41434C77.86572,253.97241 77.48011,255.5419 77.08933,257.12134C76.69646,258.70926 76.29855,260.30264 75.5,263.5C75.10027,265.10049 74.69881,266.70306 74.309,268.31351C73.91746,269.93106 73.5341,271.56082 73.172,273.20801C72.80669,274.86984 72.43639,276.54984 71.83334,280C71.52547,281.76138 71.26263,283.55353 71.01434,285.367C70.76389,287.19623 70.53738,289.04114 70.32133,290.896C70.10471,292.75586 69.90249,294.61862 69.5,298.33334C69.30024,300.177 69.10149,302.00253 68.909,303.80234C68.72018,305.56787 68.53853,307.29135 68.372,308.96533C68.2113,310.58069 68.05141,312.12915 67.83334,315C67.73425,316.30453 67.66545,317.52109 67.61433,318.64951C67.56718,319.69046 67.54166,320.64584 67.52133,321.51599L67.509,322.30215L67.50267,323.00534" id="svg_36" stroke-width="3" stroke="#000" fill="none"/>
  <path t="157596,157640,157640,157640,157640,157657,157657,157657,157658,157658,157674,157674,157674,157690,157690,157707,157726,157726,157742,157742,157772,157773,157791,157791" d="M81.5,326.5C83.89867,329.18799 84.3112,329.74475 84.664,330.38266C85.0383,331.05945 85.49395,332.23788 85.74284,333.10083C85.9949,333.97476 86.18883,334.83923 86.29867,335.24667C86.67709,336.65039 86.98925,337.4425 87.3,338.09601C87.77906,339.10349 88.15027,339.84036 88.44733,340.74283C88.72873,341.59772 89.2561,342.2081 89.98267,342.70132C90.63376,343.14331 91.32933,343.98532 91.47867,344.71066L91.50017,345.69968L91.52084,346.45834" id="svg_37" stroke-width="3" stroke="#000" fill="none"/>
  <path t="158084,158126,158126,158126,158126,158126,158126,158126,158126,158143,158143,158143,158143,158143,158143,158143,158143,158143,158160,158161,158161,158161,158161,158161,158161,158161,158161,158178,158178,158178,158178,158178,158178,158178,158178,158178,158195,158195,158195,158195,158195,158196,158212,158212" d="M81.5,284.5C83.47884,291.54349 83.61974,292.27423 83.75183,293.02783C83.8878,293.80356 84.01915,294.60443 84.16133,295.42932C84.30809,296.28079 84.4518,297.1622 84.83334,299C85.03381,299.96561 85.26481,300.95078 85.51434,301.94901C85.7661,302.95618 86.03553,303.96008 86.32133,304.952C86.60297,305.92944 86.8792,306.88531 87.5,308.66666C87.78928,309.4967 88.0948,310.27869 88.4045,311.02316C88.70436,311.74399 89.01682,312.43936 89.336,313.11865C89.65319,313.79373 89.98399,314.46466 90.66666,315.83334C91.0203,316.54233 91.38133,317.26266 91.74367,317.98734C92.104,318.70801 92.45832,319.41666 92.80267,320.10535C93.13299,320.76599 93.44525,321.39069 94,322.5C94.23546,322.97086 94.44323,323.38705 94.6285,323.7525C94.79132,324.07367 95.068,324.60001 95.59983,325.47849L96.064,326.08932" id="svg_38" stroke-width="3" stroke="#000" fill="none"/>
  <path t="160436,160651,160668,160694,160694,160710,160727,160743,160743,160760,160777,160794,160794,160868,160884,160923" d="M127.5,166.5C127.44283,168.2 126.95821,168.9803 126.30133,169.7C125.76785,170.28452 125.58398,171.16634 125.064,171.89999C124.50616,172.68707 123.85717,173.2 123.5,174C123.14283,174.8 122.5,175.5 121.9,176.10001L121.2045,176.8L120.66666,177.5L120.33334,178.33333" id="svg_39" stroke-width="3" stroke="#000" fill="none"/>
  <path t="163524,163693,163710,163728,163745,163745,163763,163764,163788,163789,163814,163851,163877,163893,163910,163928,163928,163944,163964,163980,163997,164014,164031,164048,164068,164085,164102,164102,164125,164142,164176,164197,164214,164231,164267,164284,164301,164324,164348,164395,164429,164429,164445,164462,164481,164500,164539,164566,164603,164651,164676,164700" d="M157.5,120.5C159.14284,118.45184 159.51299,117.64889 160.02083,117C160.62253,116.23117 161.22858,115.76169 161.7,115.016C162.1265,114.34137 162.59213,113.25457 163.3,112.78667C164.05797,112.28565 164.31503,111.76876 164.536,110.9C164.75531,110.03774 165.28902,109.24637 165.72133,108.4C166.05606,107.74468 166.65924,107.07738 167.216,106.416C167.73521,105.79923 167.98254,104.8461 168.47467,104.11066C168.92265,103.44119 169.35138,102.76884 169.936,102.11066C170.55225,101.4169 171.55957,101.21503 172.2,100.85267C173.02078,100.38825 173.68489,100.01058 174.33333,99.33334C174.93774,98.70206 175.71591,98.72251 176.416,98.216C177.10956,97.71423 177.85017,97.57304 178.47467,97.07467C179.08263,96.58949 179.9471,96.59401 180.8,96.14733C181.55223,95.75339 182.3,95.50067 183.2,95.5C184.10001,95.49933 184.86845,95.3559 185.55267,94.85267C186.21889,94.36268 187.2,94.5 188.10001,94.5L189,94.5L189.89999,94.5L190.8,94.5045" id="svg_40" stroke-width="3" stroke="#000" fill="none"/>
  <path t="164741,164798,164820,164844,164844,164891,164908,164933,164950,164967,165011,165044,165099,165211,165228,165246,165263,165315,165332,165349,165366,165383,165400,165418,165418,165435,165452,165452,165469,165469,165500,165517,165517,165540,165557,165582,165619,165667,165692,165739,165772,165773,165797,165814,165832,165849,165866,165883,165900,165918,165918,165934,165966,165966,165982,165982,165999,166016,166032,166049,166066,166084,166084,166084,166108,166108,166108,166125,166141,166158,166159,166175,166192,166192,166209,166209,166226,166226,166243,166260,166260,166260,166277,166277,166294,166294,166331,166379,166419,166444" d="M192.5,95.5C194.2,96.55267 195.03101,96.99033 195.69867,97.7C196.24092,98.27637 196.49081,99.1182 196.92534,99.9C197.38071,100.71931 197.99925,101.30381 198.47467,101.936C198.97006,102.59475 199.0851,103.64972 199.66667,104.33334C200.23326,104.99934 200.86212,105.43644 201.5,106C202.08348,106.51551 202.53976,107.37837 203.30133,107.49866C204.1907,107.63914 205.02434,107.04077 205.7955,106.55267C206.50981,106.10054 206.97021,105.43681 207.64934,104.9C208.36157,104.33702 208.80728,103.44817 209.14734,102.74284C209.5575,101.89214 209.37457,101.06624 209.936,100.136C210.37524,99.40823 210.91742,98.81054 211.5,98.02084C211.97066,97.38286 212.37863,96.65868 213.02083,96.02084C213.66414,95.38189 214.7,95.5 215.60001,95.5C216.5,95.5 217.3,95.5 218.2,95.5C219.10001,95.5 220.05508,95.20237 220.88933,95.51067C221.63573,95.7865 221.73018,97.01095 222.60001,97.3785C223.43654,97.73199 224.38654,97.47431 225,98.04166C225.7222,98.70959 226.03163,99.47961 226.33333,100.33334C226.6382,101.19606 227.28192,101.61709 228.10001,102.07467C228.8723,102.50663 229.19118,103.08787 229.532,103.9C229.89703,104.76983 230.79681,104.90132 231.55634,105.2C232.57764,105.60161 233.23558,105.93441 234.01334,106.21467C234.9608,106.55608 235.80376,106.85311 236.5,107.5C237.10327,108.06051 237.93182,108.40681 238.82133,108.7215C239.52061,108.96889 240.28749,109.57127 241,109.97916C241.93387,110.51377 242.67934,110.40342 243.74733,110.5045C244.67671,110.59247 245.31758,110.97942 246.10133,111.216C247.08176,111.51195 247.89999,111.49775 248.89867,111.5C249.664,111.50172 250.61467,111.5 251.60001,111.5L252.5,111.5L253.33333,111.5" id="svg_41" stroke-width="3" stroke="#000" fill="none"/>
  <path t="175788,175829,175846,175863,175881,175881,175898" d="M209.5,354.5C207.936,355.11066 207.52533,355.89999 207.14284,356.79999L206.5,357.5L206.02083,358L205.55267,358.7955" id="svg_42" stroke-width="3" stroke="#000" fill="none"/>
  <path t="175919,175978,176078,176094,176095,176140,176187,176227,176276,176339,176340,176403,176420,176524,176580,176947,176973,176989,177006,177059,177339,177364,177398,177420,177467,177484,177501,177532,177740,177764,177782,178012,178107,178203,178244,178268,178293,178347,178419,178446,178563,178597,178613,178667,178684,178702,178702,178724,178757,178819,178836,179219,179236,179255,179271,179288" d="M204.5,359.5C203.62151,360.7215 203.5,361.60001 203.5,362.5C203.5,363.29999 203.44284,364.20001 203,365C202.55716,365.79999 202.65352,366.74847 202.33333,367.5C202.00049,368.28119 201.345,368.93356 200.85266,369.55267C200.33792,370.19995 199.81352,371.60126 200.55716,372.08566C201.13492,372.46201 202.01501,371.34158 202.584,370.784C203.25658,370.12491 203.7867,369.21582 203.5,369.08533C202.89648,368.81064 202.51067,370.11066 202.5,371C202.48933,371.88934 201.7413,372.44141 201.5045,373.2045C201.24948,374.02628 200.82994,374.6095 200.416,375.30133C199.94012,376.09668 198.85591,376.65775 198.52083,375.97916C198.13145,375.19064 198.5,374.20001 198.5,373.29999C198.5,372.39999 199.04424,371.31949 198.49867,370.58533C197.98016,369.88757 197.19199,369.73303 196.55267,369.14734C195.96941,368.61301 195.2812,367.99948 194.5,367.66666C193.74846,367.34647 192.83043,367.38956 192.416,366.69867C191.93924,365.90384 190.85136,365.71194 190.52083,364.97916C190.15923,364.17755 190.5,363.20001 190.5,362.29999L190.5,361.39999" id="svg_43" stroke-width="3" stroke="#000" fill="none"/>
  <path t="180396,180525,180595,180643,180659,180677,180739,180740" d="M190.5,363.5C191.584,365.21466 192.31778,365.73206 192.50017,366.59982C192.6667,367.39215 193.44733,367.85718 193.78534,368.70001L194.30133,369.29999" id="svg_44" stroke-width="3" stroke="#000" fill="none"/>
  <path t="181780,181995,181995,182043,182155,182171,182189,182205,182205,182571,182588,182612,182612,182644,182644,182707,182795,182987,183052,183093,183108,183195" d="M197.5,371.5C196.5,370.5 195.71188,370.39392 195,370C194.11403,369.50977 193.04587,369.69601 192.55267,369.14282C191.94838,368.465 191.60748,367.77802 191.02083,367C190.46179,366.25861 190.5,365.33334 190.5,364.5C190.5,363.52151 190.25887,362.66901 190.5,361.78534C190.72044,360.97748 191.41467,360.30133 191.33333,359.5L190.58533,359.78534L190.49867,360.69867L190.216,361.41599" id="svg_45" stroke-width="3" stroke="#000" fill="none"/>
 </g>
</svg>