<svg width="500" height="333.3333333333333" xmlns="http://www.w3.org/2000/svg" xmlns:svg="http://www.w3.org/2000/svg" xmlns:xlink="http://www.w3.org/1999/xlink">
 <!-- Created with SVG-edit - http://svg-edit.googlecode.com/ -->
 <g display="inline" class="layer">
  <title>Layer 1</title>
  <path t="16306,16406,16426,16426,16492,16522,16574,16574,16664,16678,16678,16714,16754,16770,16820,16846,16850,16850,16859,16859,16866,16896,16916,16916,16935,16952,16952,16957,16957,16976,16976,16996,16997,17006,17006,17022,17028,17038,17038,17048,17048,17052,17052,17062,17062,17079,17079,17082,17194,17208,17208,17233,17234,17336,17346,17346,17374,17374,17388,17388,17490,17490,17490,17495,17503,17504,17510,17520,17530,17530,17530,17570,17766,17766,17775,17775,17782,17782,17802,17802,17812,17812,17812,17892,17892,17915,18064,18064,18064,18079,18080,18090,18110,18110,18140,18155,18156,18248,18248,18314,18314,18318,18344,18356,18356,18364,18464,18464,18526,18526,18556,18556,18590,18590,18606,18610,18632,18712,18712,18748,18748,18822,18822,18888,18895,18928,18964,18964,18976,19054,19064,19064,19096,19096,19190,19226,19226,19226,19232,19298,19298,19306,19418,19422,19422,19422,19534,19537,19538,19560,19560,19690,19690,19700,19700,19715,19816,19816,19822,19822,19832,19832,19868,19869,19877,19878,19890,19976,19996,19996,20072,20072,20102,20102,20112,20354,20375,20375,20384,21708,21708,21708,21864,21864,21904,22576,22676,22676,22716,22716,22788,22788,22974,23098,23186,23189,23262,23312,23312,23338,23478,23478" d="M254.5,148.56667C254.55716,150.32384 254.88155,151.20778 255.14734,151.914C255.47951,152.79657 255.5,153.76666 255.5,154.66684C255.5,155.452 255.5,156.392 255.5,157.40001C255.5,158.15601 255.5,159.06667 255.5,159.96667C255.5,160.86667 255.5,161.76666 255.5,162.66667C255.5,163.56667 255.5,164.32384 255.5,165.21933C255.5,166.08267 255.38156,167.11787 255.85716,167.86667C256.3667,168.66891 257.13504,169.13365 257.69867,169.76666C258.37775,170.52934 258.54541,171.33888 259.20984,171.86667C259.80212,172.33716 260.79877,172.82237 261.29868,173.452C261.86862,174.16983 262.13788,174.95891 262.79999,175.80951C263.25922,176.39948 264.09509,177.00957 264.44733,177.87117C264.78397,178.69464 264.86893,179.43259 265.5,180.40001C265.86307,180.95657 266.6373,181.63432 267.10001,182.20267C267.75586,183.00826 268.02933,183.78989 268.60001,184.545C269.13782,185.25661 270.06781,185.4427 270.79999,185.92384C271.59424,186.44577 272.10001,187.16666 272.70001,187.76666C273.29999,188.36665 273.9866,189.08038 274.60016,189.66667C275.24344,190.28136 275.95868,190.82388 276.71066,191.13068C277.67181,191.5228 278.56601,191.41164 279.33334,191.90001C279.96487,192.30196 280.23978,193.12909 280.89999,193.93066C281.54568,194.7146 282.19965,195.21033 283,195.56667C283.80414,195.92468 284.66254,196.57353 285.32535,196.96667C286.01178,197.37383 286.6738,198.01451 287.66666,198.40001C288.29468,198.64384 289.38361,198.6541 289.97916,199.08751C290.78067,199.67082 291.17038,200.34483 291.80899,201.21484C292.29245,201.87347 293.03409,202.36133 293.75067,202.50534C294.72305,202.70076 295.7218,202.87794 296.29733,203.368C297.07425,204.0295 297.66666,204.73332 298.15268,205.21933C298.84735,205.91399 299.47751,206.54614 300.08932,207.15601C300.79886,207.8633 301.54199,208.29257 302.29999,208.65067C303.05621,209.00792 303.59735,209.88957 304,210.56667C304.49673,211.40196 305.02176,212.02536 305.69867,212.76666C306.2323,213.35104 306.41602,214.233 306.936,214.96667C307.49384,215.75374 308.14178,216.26712 308.5,217.06667C308.86063,217.87163 309.38635,218.45232 310.15268,219.21933C310.67444,219.74155 311.33365,220.39972 311.97916,221.04584C312.69901,221.76634 313.33551,222.33493 313.48932,223.16667C313.65308,224.0522 313.84244,224.88051 314.5,225.56667C315.0871,226.17931 315.83984,226.68155 316.21466,227.452C316.64011,228.32651 316.48706,229.08275 316.5,230.15601C316.51099,231.06683 316.85312,231.87042 317.5,232.56667C318.06049,233.16994 318.38385,234.00801 318.784,234.76666C319.23672,235.62505 319.49774,236.32382 319.5,237.21933C319.50217,238.08267 319.45145,238.96367 319.66666,239.90001C319.87851,240.82179 320.00833,241.66415 320.70001,242.312C321.35992,242.93008 322.1445,243.27042 322.5,244.06667C322.85886,244.87042 323.50687,245.7292 323.89999,246.392C324.30716,247.07848 324.77774,247.8307 325.5,248.56667C326.00571,249.08197 326.82291,249.66402 327.5,250.06667C328.3353,250.56339 328.98431,251.06139 329.70001,251.76666C330.20367,252.26299 330.91217,252.95471 331.60001,253.66684C332.10916,254.19397 332.74341,255.02881 333.064,255.74133C333.47656,256.65826 333.63312,257.47726 334.20532,258.21933C334.62378,258.76202 335.34799,259.52383 335.49734,260.36533C335.65521,261.25473 336.03384,262.05432 336.70001,262.76801C337.21014,263.31454 337.68555,264.05923 338.10001,264.74133C338.67871,265.69376 339.10956,266.27698 339.52533,267.16666C339.90607,267.98135 340.42462,268.65958 341.10001,269.13068C341.85315,269.65601 342.84195,269.70557 343.75067,270.00266C344.50247,270.24844 345.33081,270.70999 346.07867,271.13068C346.87491,271.57855 347.8721,271.39166 348.60001,271.78833C349.30884,272.17459 349.68555,273.05923 350.10001,273.74133C350.67871,274.69376 351.3075,275.2153 351.48932,276.16666C351.65829,277.05075 351.5,277.96667 351.5,278.86667C351.5,279.76666 351.5,280.66684 351.5,281.452L351.5,282.392L351.5,283.39999L351.5,284.15601" id="svg_3" stroke-width="3" stroke="#000" fill="none"/>
  <path t="50941,51219,51275,51316,51337,51359,51359,51395,51421,51433,51433,51475,51481,51561,51571,51571,51643,51643,51769,51981,51996,51996,52025" d="M392.5,262.56668C392.5,264.36667 392.5,265.26666 392.5,266.16666C392.5,266.97733 392.5,267.888 392.5,268.74133C392.5,269.68134 392.5,270.66666 392.5,271.56668C392.5,272.36667 392.3429,273.28641 392.52084,274.06668C392.74023,275.02869 393.34259,275.67719 393.58401,276.452C393.8815,277.40677 394.33533,278.05777 394.47916,279.04584C394.61337,279.96783 394.5,280.888 394.5,281.56668L394.5,282.68134" id="svg_6" stroke-width="3" stroke="#000" fill="none"/>
  <path t="59939,60595,60661,60661,61589,61589,61655,61957,62007,62047,62047,62978,62987,63027,63067,63103,63103,63188,63188,63249,63481,63521,63521,63551,63612,63612,63640,63799,63799" d="M361.5,280.56668C361.5,280.76666 361.5,281.66684 361.5,282.452C361.5,283.392 360.388,285.19467 361.5,285.19467C362.328,285.19467 361.5,283.46667 361.5,282.56668C361.5,281.76666 361.12857,280.76541 361.53601,280.00266C361.92615,279.27228 362.97821,279.02237 363.60016,278.46683C364.23584,277.89902 365.15125,277.59906 365.84732,277.57117C366.86322,277.53046 367.91736,277.72577 368.60001,277.12399C369.11459,276.67035 369.74588,275.82913 370.5,275.39999C371.14874,275.03082 371.79999,274.26666 372.5,273.56668L373.10001,273.00266" id="svg_8" stroke-width="3" stroke="#000" fill="none"/>
  <path t="66119,66183,66196,66196,66229,66239,66239,66249,66249,66269,66269,66341,66341,66361,66361,66376,66377,66405,66411,66411,66447,66447,66447,66451,66451,66467,66507,66507,66511,66521,66531,66532,66577,66587,66587,66597,66597,66616,66616,66627,66627,66639,66663,66663,66678,66678,66697,66697,66709,66795,66795,66829,66839,66857,66901,66901,66901,67031,67031,67047,67047,67057,67061,67071,67077,67077,67316,68029,68029,68051,68051,68051,68057,68081,68081,68085,68085,68111,68125,68167,68167,68197,68303,68327,68343,68343" d="M337.5,232.56667C339,234.06667 339.70193,234.76474 340.20001,235.26666C340.89203,235.96402 341.37738,236.77866 341.58401,237.452C341.88141,238.42113 342.29419,239.1716 342.70001,239.96533C343.09314,240.73422 343.61575,241.53345 344.10001,242.192C344.72058,243.03593 345.03769,243.78363 345.60001,244.545C346.0527,245.15794 346.93402,245.46741 347.8215,245.78833C348.54474,246.04987 349.52069,246.70923 350.091,247.21933C350.6492,247.7186 351.20575,248.56825 351.54816,249.26218C351.96103,250.09894 352.62137,250.87425 353.29999,251.28134C354.03595,251.72284 354.90881,251.9935 355.60001,252.66667C356.20789,253.2587 356.80716,253.85956 357.5,254.56667C358.00528,255.08238 358.59735,255.88957 359,256.56668C359.49673,257.40195 359.99475,258.05096 360.70001,258.76666C361.29559,259.37103 361.89999,259.96667 362.60001,260.66666C363.20001,261.26666 363.77252,261.90643 364.38535,262.36667C365.11771,262.91663 365.85657,263.25296 366.74283,263.86218C367.50818,264.38831 368.29999,264.56601 369.20001,264.56668C370.10001,264.56735 371.07483,264.51508 371.82132,265.00949C372.56454,265.50177 372.99326,266.10767 373.74734,266.80951C374.366,267.38531 375.12747,267.91797 375.84732,268.2095C376.83557,268.60974 377.70001,268.56668 378.60001,268.56668C379.5,268.56668 380.31863,268.62256 381.02084,269.08749C381.84479,269.63303 382.52023,270.06787 383.5,270.56668C384.09064,270.86737 384.90182,271.1792 385.47916,272.06668C385.96384,272.81177 386.3483,273.42371 386.7955,274.21933C387.26575,275.05594 387.34396,275.94363 387.50449,276.86667C387.66595,277.79514 388.14868,278.39481 388.55267,279.26666C388.93802,280.0983 389.44284,280.86667 389.5,281.76801L389.5,282.452" id="svg_9" stroke-width="3" stroke="#000" fill="none"/>
  <polyline timestamps="75093,75797,76039" startTime="1502015685421" id="svg_10" points="372.5,274.5666694641113 372.5,271.977336130778 372.5,271.0666694641113 " stroke-linecap="round" stroke-width="3" stroke="#000" fill="none"/>
  <path t="79592,79751,79752,79783,79793,79817,79833,79843,79919" d="M372.5,265.56668C373.5,266.56668 373.5,267.36667 373.5,268.26666C373.5,269.16666 373.5,270.06668 373.5,270.96667L373.5,271.86667L373.5,272.76801" id="svg_11" stroke-width="3" stroke="#000" fill="none"/>
  <path t="86473,86657,86663,86809,86883,86883,86939,86939,86965,87011,87091,87091,87207,87207,87243,87283,87283,87293,87293,87343,87343,87421,87421,87481,87583,87583,87669,87827,87827,87833,87873,87873,87913,87913,87923,87923,87949,87949,88003,88023,88023,88105,88109,88109,88116,88116,90303,90303,90323,90323,90323,90337,90337,90339,90349,90358,90369,90511,90511,90707,90716,90733,90747,90747,90893,90902,90903,90917,90917,90925,90925,90925,90945,90945,90945,91005,91005,91009,91019,91019,91025,91025,91041,91041,91111,91116,91116,91125,91125,91131,91131,91141,91141,91147,91147,91158,91158,91171,91171,91171,91171,91171,91181,91181,91979,92519,92715,92715,92719,92719,92730,92730,92739,92739,92745,92745,92761,92761,92887,92901,93477,93477,93583,93627" d="M181.5,92.56667C178.91066,91.57734 177.93042,91.45522 177.2,91.92384C176.40009,92.43703 175.86336,93.03084 175.58533,94.05067C175.4026,94.72089 175.5,95.8095 175.5,96.66667C175.5,97.56667 175.5,98.32384 175.5,99.21934C175.5,100.08267 175.4144,101.0977 175.85716,101.87117C176.22043,102.50575 176.74365,103.26303 177.25717,103.914C177.91177,104.7438 178.70673,105.10873 179.4785,105.66667C180.11823,106.12915 180.92618,106.78342 181.33333,107.56667C181.72,108.31052 182.13049,109.14787 182.69867,109.76667C183.23389,110.34958 183.46904,111.35722 183.86166,112.21934C184.19391,112.94884 184.80257,113.57166 185.5,114.04584C186.31267,114.59836 186.98431,115.06141 187.7,115.76667C188.30438,116.36226 188.89999,116.96667 189.60001,117.66667C190.10001,118.16667 190.95442,118.7722 191.37866,119.66684C191.72639,120.40014 191.81079,121.24453 192.2045,121.914C192.75159,122.8443 193.35439,123.28136 194.26401,123.44517C195.1655,123.60751 196.14198,123.56441 197,123.56667C197.9375,123.56912 198.89999,123.56667 199.8,123.56667C200.7,123.56667 201.60001,123.56667 202.5,123.56667C203.3,123.56667 204.22769,123.37823 205.10001,123.60267C205.96622,123.82552 206.42584,124.65779 207.10001,125.13067C207.84396,125.65251 208.81854,125.79492 209.5,126.06667C210.47493,126.45544 211.32758,126.63993 212.04283,127.00951C212.78154,127.3912 213.54387,127.93166 214.33333,128.40001C215.03595,128.81683 215.8755,129.29196 216.89867,129.48134C217.65479,129.62129 218.7475,129.32828 219.5,129.90001C220.17688,130.41429 220.46536,131.42838 221,132.04584C221.56509,132.69846 222.17949,133.26091 223.02083,133.56667C223.9646,133.90964 224.65413,134.20441 225.616,134.48267C226.3712,134.70114 227.33865,134.99713 227.9045,135.27116C228.90477,135.75558 229.68095,136.19576 230.5,136.40001C231.27631,136.5936 232.33536,136.52925 233.0625,136.58751C234.1727,136.67645 234.83618,136.8497 235.60133,136.992C236.39885,137.14034 237.16519,137.27567 238.35867,137.48267C239.29564,137.64517 240.02121,138.02924 240.89999,138.552C241.61862,138.97949 241.95149,139.88397 242.70134,140.39734C243.30281,140.80913 244.33913,140.9962 245.10133,141.368C245.90201,141.75856 246.64189,142.19754 247.616,142.48267C248.3705,142.70352 249.3102,143.03098 250.01601,143.28267C250.96184,143.61995 251.8,143.92384 252.5,144.56667L252.97917,145.06667L253.44284,145.86667L253.5,146.76801" id="svg_12" stroke-width="3" stroke="#000" fill="none"/>
  <path t="99725,99877,99936,100073,100073,100078,100078,100195,100195,100317,100542,100543,100553,100553,100562,100562,100588,100588,100821,100821,100821,100831,100831,100837,100837,100851,100860,100860,100981,100981,100990,100990,101001,101183,101203,101203,101203,101255,101255,101361,101361,101371,101393,101393,101500,101501,101583,101583,101597,101607,101622,101763,101763,101783,101802,101813,101825,101845,101845,101908,101909,101935,101995,102005,102017,102031,102031,102091,102091,102111,102130,102151,102151,102253,102267,102272,104129,104129,104274,104275,104280,104387,104390,104390,104467,104486,104486,104543,104582,104583,104583,104669,104709,104728,104729,105274,105275,105366,106066" d="M181.5,93.56667C180.8,93.56667 181.81987,93.3645 182.5,93.9C183.16792,94.42588 183.46539,95.42834 184,96.04584C184.56512,96.69859 185.2,97.26667 185.8,97.86667C186.5,98.56667 187.1124,99.20074 187.82133,99.66667C188.47966,100.09933 189.36609,100.52755 190.08934,101.16667C190.73227,101.73482 191.25717,102.32384 191.98399,103.05067C192.5,103.56667 192.98576,104.11443 193.87466,104.93067C194.36787,105.38355 195.3026,106.00945 196.01601,106.28133C196.9547,106.63907 197.78793,106.9464 198.38533,107.368C199.13301,107.89568 199.89224,108.20455 200.74283,108.86667C201.33279,109.3259 201.94292,110.16178 202.8045,110.514C203.62798,110.85064 204.38412,110.93243 205.01601,111.45334C205.83078,112.12502 206.14362,112.95074 206.7,113.68134C207.25125,114.4052 207.87137,115.01982 208.66667,115.56667C209.29713,116.00017 210.32243,116.47264 211.12534,116.556C211.97946,116.64468 212.84734,116.56667 213.74283,116.56667C214.7,116.56667 215.65347,116.38532 216.5,116.73334C217.17108,117.00923 217.99982,117.55625 218.89999,117.56667C219.79994,117.57708 220.7,117.56667 221.60017,117.56667C222.38533,117.56667 223.32533,117.56667 224.01601,117.56667C225.08934,117.56667 226,117.56667 226.89999,117.56667C227.8045,117.56667 228.66667,117.56667 229.5,117.56667C230.4785,117.56667 231.33194,117.75883 232.2,117.50951C232.965,117.28978 233.51077,116.34787 234.2,115.92384C235.02139,115.41849 236.03552,115.79658 236.89999,115.54533C237.68465,115.31729 238.06581,114.35872 238.59984,113.58817C239.03685,112.95763 239.37602,111.99883 239.85716,111.26667C240.37909,110.47242 241.04001,110.09757 241.47467,109.16667C241.83775,108.38905 242.33408,107.79713 242.89999,107.15601C243.53871,106.4324 243.87189,105.72427 244.3,105.05067C244.85391,104.17912 245.2382,103.24409 245.83333,102.56667C246.38641,101.9371 247.33333,101.73334 248.1955,101.57117L249.10001,101.53067L249.89999,101.13067" id="svg_13" stroke-width="3" stroke="#000" fill="none"/>
  <path t="123987,124722,124838,124934,124934,124944,125292,125292,125292,125322,125358,125404,125484,125484,125504,125540,125594,125594,125636,125646,125646,125650,125680,125742,125742,125776,125793,125793,125816,125816,125832,125928,125988,126018,126070,126080,126110,126110,126130,126130,126140,126164,126170,126190,126206,126206,126210,126220,126220,126246,126270,126296,126336,126346,126346,126400,126430,126452,126452,126472,126486,126562,126678,126678,126697,126738,126750,126750,126796,126796,126806,126922,126922,126946,126946,126982,126982,126992,127042,127042,127079,127098,127108,127128,127138,127138,127159,127178,127188,127188,127240,127260,127277,127290,127291,127350,127400,127410,127410,127410,127502,127502,127542,127542,127642,127652,127794,127794,127800,127800,127864,127864,127900,127904,127940,127958,127966,128026,128026,128042,128042,128052,128086,128102,128107,128138,128148,128148,128152,128228,128228,128248,128257,128288,128298,128308,128308,128341,128348,128450,128450,128470,128496,128596,128662,128662,128672,128692,128733,128748,128748,128768,128798,128812,128812,128884,128914,128938,128958" d="M99.5,130.56667C99.44283,128.86667 98.98443,128.06152 98.3,127.36667C97.80379,126.86291 97.12863,126.11351 96.33334,125.56667C95.70287,125.13316 95.00269,124.48492 93.91067,124.61333C93.02705,124.71725 92.56088,125.66055 92.5,126.56667C92.44637,127.36487 92.42091,128.2552 92,129.08751C91.6004,129.87769 91.50533,130.74129 91.5,131.68134C91.49498,132.56665 91.5,133.36667 91.5,134.26666C91.5,135.20267 91.5,136.05067 91.5,136.914C91.5,137.94133 91.5,138.888 91.5,139.56667C91.5,140.54517 91.5,141.36534 91.5,142.26666C91.5,143.16667 91.5,144.06667 91.5,144.96667C91.5,145.86667 91.5,146.76801 91.5,147.73334C91.5,148.56667 91.48574,149.5453 91.5,150.26218C91.51801,151.16721 92.11812,151.87701 92.41467,152.76666C92.70055,153.62431 92.5,154.56667 92.5,155.36667C92.5,156.20267 92.5,157.21933 92.5,157.914C92.5,158.93066 92.5,159.86667 92.5,160.76666C92.5,161.66667 92.5,162.56667 92.5,163.36667C92.5,164.26666 92.5,165.20267 92.5,166.05067C92.5,166.914 92.50009,167.80951 92.5,168.76666C92.49992,169.66667 92.28544,170.53676 91.92533,171.16667C91.4313,172.03087 90.96472,172.77299 90.6215,173.66684C90.33677,174.40836 90.5,175.392 90.5,176.08267C90.5,177.06667 90.5,178.052 90.5,178.77734C90.5,179.76651 90.5,180.54584 90.5,181.54517C90.5,182.36534 90.5,183.32384 90.5,184.21933C90.5,185.08267 90.5,186.04584 90.5,186.86667C90.5,187.76666 90.5,188.66667 90.5,189.56667C90.5,190.36667 90.5,191.26666 90.5,192.20267C90.5,193.05067 90.5,193.914 90.5,194.93066C90.5,195.76666 90.5,196.66667 90.5,197.56667C90.5,198.36667 90.50009,199.26666 90.5,200.23866C90.49992,201.10933 90.58506,201.82936 90.41467,202.79868C90.24243,203.77841 89.68523,204.42876 89.536,205.392C89.43013,206.07539 89.60352,207.16411 89.47916,208.08751C89.369,208.9055 88.91864,209.56349 88.66666,210.56667C88.47176,211.34264 88.5,212.40001 88.5,213.26218C88.5,214.06667 88.5,214.96667 88.5,215.86667C88.5,216.76666 88.5,217.66667 88.5,218.56667C88.5,219.452 88.5,220.392 88.5,221.08267C88.5,222.15601 88.5,222.96667 88.5,223.86667C88.5,224.76666 88.5,225.66667 88.5,226.56667C88.5,227.36667 88.5,228.32384 88.5,229.21933C88.5,230.08267 88.5,231.04584 88.5,231.86667C88.5,232.76666 88.5,233.66667 88.5,234.56667C88.5,235.36667 88.5,236.26666 88.5,237.20267C88.5,238.05067 88.5,238.914 88.5,239.93066C88.5,240.76666 88.5,241.66667 88.5,242.56667C88.5,243.36667 88.5,244.26666 88.5,245.16667C88.5,246.08751 88.5,247.05067 88.5,247.74133C88.5,248.80951 88.5,249.66667 88.5,250.56667C88.5,251.36667 88.5,252.26666 88.5,253.16667L88.5,254.06667L88.5,254.97734" id="svg_16" stroke-width="3" stroke="#000" fill="none"/>
  <path t="138457,138657,138662,138662,138682,138682,138682,138682,138688,138688,138688,138714,138715,138794,138866,139078,139078,139082,139178,139178,139244,139244,139257,139278,139400,139400,139410,139500,139500,139556,139562,139562,139712,139722,139738,139738,139764,139824,139864,139910,139910,139964,139964,140000,140000,140056,140126,140232,140232,140268,140268,140524,140524,140530,140534,140580,140580,140762,140762,140832,140848,140878,140878,140898,140898,140917,140924,141034,141064,141140,141206,141210,141210,141226,141226,141286,141373,141373,141388,141402,141402,141538,141538,141538,141564,141564,141568,141624,141624,141640,141670,141670,141756,141766,141766,141846,141952,141968,141968,142032,142154,142210,142217,142250,142250,142338,142338,142370,142380,142398,142512,142522,142542,142542,142638,142638,142658,142668,142740,142800,142804,142804,142834,142844,142866,142866,142930,142962,142996,143022,143022,143042,143122,143380,143390,143390,143410,143814,143828,143828,143868,144040" d="M99.5,128.56667C99.5,132.02501 99.46081,132.89561 99.67067,133.70801C99.89249,134.56671 100.20849,135.28069 100.5,136.08751C100.7979,136.912 101.18795,138.0616 101.33067,138.70934C101.5472,139.69206 101.77435,140.51622 102.14733,141.26218C102.53651,142.04054 102.5,142.97734 102.5,143.888C102.5,144.74133 102.5,145.68134 102.5,146.56667C102.5,147.452 102.5,148.392 102.5,149.08267C102.5,150.15601 102.57684,151.00479 102.14733,151.87117C101.84303,152.48499 101.51801,153.39151 101.5,154.40001C101.4865,155.15588 101.5,156.08751 101.5,157.05067C101.5,157.74133 101.5,158.80951 101.5,159.66667C101.5,160.56667 101.69595,161.40111 101.44283,162.26666C101.18619,163.1443 100.52859,163.86531 100.5,164.76933C100.47572,165.53696 100.50005,166.57201 100.5,167.31601C100.49992,168.42368 100.50709,169.16719 100.07467,169.96667C99.62853,170.79153 99.5044,171.66685 99.5,172.452C99.49467,173.40271 99.47032,174.18466 99.14733,175.16217C98.89529,175.92493 98.5286,176.80807 98.5,177.66667C98.47004,178.56616 98.43874,179.46082 98.14733,180.21933C97.81142,181.0937 97.51801,181.93015 97.5,182.87117C97.48351,183.73318 97.5,184.56667 97.5,185.54517C97.5,186.36534 97.5,187.26666 97.5,188.16667C97.5,189.06667 97.5,189.96667 97.5,190.86667C97.5,191.76801 97.5,192.73334 97.5,193.392C97.5,194.40001 97.5,195.26218 97.5,196.20267C97.5,197.05067 97.62418,197.92328 97.4955,198.80951C97.35185,199.79883 96.76218,200.36018 96.58533,201.336C96.45083,202.07819 96.50067,202.884 96.5,203.88C96.49944,204.72 96.67558,205.91899 96.16666,206.56667C95.65179,207.22191 94.6601,207.6483 94.5,208.56667C94.37938,209.25856 93.87081,210.03836 93.6215,210.888C93.37921,211.71368 93.5,212.68134 93.5,213.66667C93.5,214.56667 93.5,215.36667 93.5,216.26666C93.5,217.16667 93.41791,218.07132 93.5045,218.87117C93.61641,219.90482 94.08253,220.53822 94.33334,221.40001C94.57848,222.24234 94.5,223.16667 94.5,224.06667C94.5,224.96667 94.39307,225.8732 94.50134,226.76666C94.61282,227.6866 95.25808,228.29462 95.44283,229.21933C95.57933,229.9025 95.5,230.93066 95.5,231.86667C95.5,232.76666 95.5,233.66667 95.5,234.56667C95.5,235.36667 95.5,236.26666 95.5,237.20267C95.5,238.05067 95.5,238.914 95.5,239.80951C95.5,240.76666 95.5,241.66667 95.5,242.56667C95.5,243.36667 95.5,244.26666 95.5,245.16667C95.5,246.08751 95.5,247.05067 95.5,247.74133C95.5,248.80951 95.5,249.66667 95.5,250.56667L95.5,251.36667L95.5,252.26666L95.464,253.16667" id="svg_18" stroke-width="3" stroke="#000" fill="none"/>
  <path t="149140,149226,149238,149246,149246,149259,149259,149259,149266,149266,149278,149278,149278,149282,149282,149282,149282,149292,149292,149302,149306,149306,149306,149318,149318,149322,149322,149332,149332,149342,149359,149359,149476,149482,149482,149500,149506,149506,149522,149588,149592,149592,149602,149612,149612,149760,149760,149760,149810,149810,149810,149810,149810,149810,149810,149810,149810,149826,149826,149826,149826,149826,149826,149896,149906,149912,149922,149932,149932,149940,149940,149946,149946,149952,149952,149952,149962,149972,150042,150052,150052,150062,150068,150078,150088,150164,150164,150174,150184,150184,150198,150198,150214,150214,150280,150280,150284,150300,150310,150326,150326,150326,150358,150358,150390,150400,150400,150420,150420,150439,150492,150512,150512,150512,150618,150618,150724,150728,150728,150738,150754,150754,150768,150768,150860,150860,150890,150940,150946,150946,150958,150966,150978,150978,151076,151082,151082,151092,151168,151178,151188,151298,151374,151400,151698,151698,151802,151818,151828,151844,151844,151866,151866,151932,151932" d="M175.5,237.56667C178.08934,237.56667 179.02083,237.56667 179.8215,237.56667C180.71066,237.56667 181.70016,237.56667 182.52083,237.56667C183.18533,237.56667 184.18266,237.56667 184.97917,237.56667C186.16667,237.56667 186.87067,237.56667 187.63867,237.56667C188.836,237.56667 189.60133,237.56667 190.39867,237.56667C191.164,237.56667 192.35867,237.56667 193.18201,237.56667C194.04167,237.56667 195.04283,237.56667 195.76134,237.56667C196.55183,237.56667 197.57851,237.56667 198.47917,237.56667C199.5,237.56667 200.28934,237.56667 201.33333,237.56667C202.08934,237.56667 203.02083,237.56667 203.82133,237.56667C204.67467,237.56667 205.61467,237.56667 206.60017,237.56667C207.38533,237.56667 208.32533,237.56667 209.33333,237.56667C210.08934,237.56667 211,237.56667 211.91066,237.56667C212.82133,237.56667 213.67467,237.56667 214.61467,237.56667C215.5,237.56667 216.25717,237.56667 217.20667,237.56667C217.75,237.56667 218.53334,237.56667 220.33333,237.56667C221.13451,237.56667 222.02266,237.56667 222.97484,237.56667C223.968,237.56667 224.97917,237.56667 225.98534,237.56667C226.9635,237.56667 227.89067,237.56667 229.5,237.56667C230.142,237.56667 230.67599,237.56667 231.114,237.56667C231.468,237.56667 232.284,237.56667 233.2,237.56667C234.10001,237.56667 235,237.56667 235.91066,237.56667C236.8215,237.56667 237.52083,237.56667 238.5,237.56667C239.28934,237.56667 240.33333,237.56667 241.16133,237.56667C242.04266,237.56667 243,237.56667 243.73199,237.56667C244.828,237.56667 245.7,237.56667 246.60001,237.56667C247.5,237.56667 248.33444,237.76262 249.2,237.50951C250.07764,237.25287 250.79865,236.59535 251.7,236.56667C252.59955,236.53804 253.26607,236.41809 254.136,235.992C254.95648,235.59015 255.84732,235.56892 256.75183,235.56667C257.46933,235.56488 258.5087,235.608 259.24933,235.53067C260.36633,235.41403 261.0174,234.8199 261.89999,234.60268C262.7746,234.38742 263.70135,234.57436 264.66666,234.56667C265.33606,234.56133 266.11798,234.53699 267.09549,234.214C267.85828,233.96198 268.87454,233.599 269.82132,233.5665C270.49991,233.5432 271.44952,233.29233 272.1955,232.91934C272.97388,232.53015 273.93033,232.60167 274.83334,232.40001C275.51385,232.24803 276.48212,231.8661 277.35699,231.68817C278.18228,231.52032 279.13599,231.56667 279.98401,231.56667C280.84732,231.56667 281.89258,231.50446 282.66666,231.73334C283.52734,231.98784 284.3389,232.37839 285.12534,232.592C285.99078,232.82706 286.81729,233.32886 287.74283,233.50951C288.586,233.67407 289.45377,233.80879 290.20001,234.214C290.96112,234.62729 291.91068,234.56667 292.82132,234.56667C293.67465,234.56667 294.61465,234.56667 295.5,234.56667C296.29999,234.56667 297.20001,234.56667 298.10001,234.56667C299,234.56667 299.89999,234.56667 300.79999,234.56667C301.70001,234.56667 302.60001,234.56667 303.5,234.56667C304.29999,234.56667 305.2265,234.75041 306.10001,234.53067C306.96283,234.31361 307.69925,233.61057 308.47067,233.56801C309.50378,233.511 310.24933,233.56667 311.16666,233.56667L312.07867,233.56667" id="svg_19" stroke-width="3" stroke="#000" fill="none"/>
  <path t="155349,155530,155530,155538,155622,155626,155638,155646,155652,155652,155666,155666,155682,155808,155818,155828,155828,155838,155838,155848,155848,155848,155938,155950,155960,155960,155970,155970,155970,155974,155974,156136,156140,156158,156158,156170,156170,156170,156177,156198,156198,156256,156256,156277,156278,156282,156298,156468,156488,156498,156498,156600,156610,156620,156630,156846,156862,156878,156878,156892,156912,156912,156938,156952,156952,157048,157054,157064,157064,157074,157074,157094,157094,157180,157184,157200,157200,157210,157210,157266,157266,157300,157352,157352,157634,157634,157850,157850,159236,159352" d="M179.5,236.56667C176.71066,236.56667 175.98534,236.56667 175.02083,236.56667C174.10001,236.56667 173.2,236.56667 172.3,236.56667C171.39999,236.56667 170.5,236.56667 169.74283,236.56667C168.84734,236.56667 167.98399,236.56667 167.02083,236.56667C166.10001,236.56667 165.1955,236.56667 164.33333,236.56667C163.5,236.56667 162.52116,236.56667 161.69017,236.56667C160.73199,236.56667 160,236.56667 159.26801,236.56667C158.172,236.56667 157.1955,236.56667 156.33333,236.56667C155.47917,236.56667 154.5,236.56667 153.7,236.56667C152.89999,236.56667 151.9045,236.56667 151.15717,236.56667C150.136,236.56667 149.14807,236.69356 148.29733,236.28134C147.63004,235.95801 146.73938,235.34789 146,235.08751C145.27472,234.83209 144.31108,234.59526 143.33333,234.56667C142.50035,234.5423 141.66667,234.56667 140.74733,234.56667C139.84734,234.56667 139.15266,234.56667 138.136,234.56667C137.2,234.56667 136.3,234.56667 135.39999,234.56667C134.5,234.56667 133.7,234.56667 132.8,234.56667C131.89999,234.56667 131,234.56667 130.10001,234.56667C129.2,234.56667 128.3,234.56667 127.39983,234.56667C126.61467,234.56667 125.67467,234.56667 124.66666,234.56667C123.91067,234.56667 122.97916,234.56667 122.016,234.56667C121.32533,234.56667 120.25716,234.56667 119.4,234.56667C118.5,234.56667 117.74284,234.56667 116.84283,234.56667C115.89867,234.56667 114.9045,234.56667 114.15717,234.56667C113.136,234.56667 112.3,234.56667 111.39967,234.56667C110.68567,234.56667 109.732,234.56667 108.75066,234.56667C107.83334,234.56667 107.03495,234.6694 106.08933,234.556C105.16123,234.4447 104.46526,234.10175 103.66666,233.56667C102.98814,233.11203 102.3,232.368 101.7,231.85201L100.8,231.57117L99.9,231.56667" id="svg_20" stroke-width="3" stroke="#000" fill="none"/>
  <path t="218631,218723,218723,218813,218813,218869,218925,218929,218949,218949,219005,219025,219025,219051,219207,219207,219211,219227,219239,219239,219251,219261,219261,219287,219287,219307,219327,219423,219423,219473,219473,219489,219493,219509,219525,219635,219635,219645,219645,219675,219685,219701,219751,219751,219761,219761,219779,219779,219787,219791,219817,219897,219897,219907,219919,220079,220129,220145,220503,220503,220507" d="M368.5,218.56667C370.15268,219.2765 370.83908,219.92691 371.47849,220.545C372.08167,221.12805 372.99985,221.554 373.89999,221.56667C374.7999,221.57933 375.62604,221.75751 376.20001,222.27116C376.93533,222.9292 377.60001,223.66667 378.10001,224.16667C378.79999,224.86667 379.44006,225.63832 380,226.04584C380.82654,226.64738 381.79999,226.56667 382.70132,226.56667C383.38535,226.56667 384.32535,226.56667 385.33334,226.56667C386.12534,226.56667 386.98401,226.56667 387.84732,226.56667C388.86401,226.56667 389.8045,226.56667 390.66666,226.56667C391.5,226.56667 392.47849,226.56667 393.29868,226.56667C394.20001,226.56667 395.12515,226.57857 395.89999,226.14134C396.62625,225.73154 397.5,225.56667 398.25717,225.56667C399.15268,225.56667 400.01599,225.56667 400.97916,225.56667C401.89999,225.56667 402.8045,225.56667 403.82132,225.56667C404.5,225.56667 405.47867,225.56667 406.25266,225.56667C407.15268,225.56667 408.01599,225.56667 408.97916,225.56667C409.89999,225.56667 410.85663,225.70323 411.70001,225.28267C412.36163,224.95274 413.22687,224.75264 414.10001,224.53067C414.96228,224.31146 415.70001,223.65201 416.60001,223.5665L417.5,223.40001L418.10001,222.992L418.89999,222.60268" id="svg_27" stroke-width="3" stroke="#000" fill="none"/>
  <path t="228039,228148,228159,228159,228169,228169,228169,228175,228175,228185,228185,228185,228189,228189,228189,228205,228209,228209,228215,228215,228225,228225,228235,228235,228242,228242,228255,228265,228275,228275,228275,228281,228281,228300,228335,228351,228493,228493,228517,228523,228533,228533,228539,228547,228547,228559,228559,228563,228563,228581,228581,228589,228589,228600,228600,228603,228603,228613,228613,228629,228640,228841,228851,228855,228855,228871,228871,228881,228891,228891,228895,228901,228921,228921,228940,228967,228967,229073,229083,229083,229093,229093,229093,229103,229103,229113,229113,229113,229113,229121,229121,229127,229140,229140,229143,229143,229233,229233,229249,229249,229259,229275,229275,229285,229285,229289,229289,229301,229301,229301,229305,229315,229315,229325,229421,229425,229435,229441,229451,229451,229461,229461,229461,229461,229467,229467,229467,229480,229481,229563,229563,229580,229580,229587,229587,229600,229600,229603,229603,229620,229620,229620,229621,229793,229793,229803,229803,229813,229813,229823,229829,229829,229905,229909,229925,229925,229925,229935,229935,229935,229945,229945,229945,229945,229949,229961,229985,229985,230065,230065,230081,230087,230087,230099,230099,230099,230107,230111,230111,230111,230121,230121,230207,230207,230219,230219,230227,230227,230233,230233,230233,230233,230233,230243,230243,230243,230247,230247,230261,230261,230267,230267,230267,230267,230267,230273,230273,230283,230353,230353,230363,230369,230369,230379,230380,230380,230389,230389,230389,230393,230393,230403,230499,230595,230605,230605,230615,230615,230621,230622,230631,230635,230747,230751,230759,230767,230767,230779,230780,230780,230787,230787,230787,230801,230801,230801,230807,230823,230823,230823,230823,230833,230833,230843,231115,231125,231135,231145,231145,231161,231161" d="M372.5,216.56667C373.46399,214.74133 373.5,213.73334 373.5,212.90533C373.5,212.02383 373.5,211.30534 373.5,210.51483C373.5,209.252 373.5,208.58751 373.5,207.56667C373.5,206.756 373.48846,205.88126 373.50134,204.884C373.51163,204.08734 373.37988,203.24756 373.936,202.23866C374.35953,201.47035 375.18997,200.97231 375.41467,200.08133C375.59299,199.37431 375.5,198.36684 375.5,197.58751C375.5,196.588 375.5,195.68266 375.5,194.74133C375.5,194.05067 375.5,192.97734 375.5,192.14534C375.5,191.23334 375.49951,190.31601 375.5,189.57201C375.50067,188.53734 375.61938,187.78914 376.07468,186.96667C376.50784,186.18414 376.90887,185.43938 377.33334,184.56667C377.70004,183.81276 378.16284,182.75641 378.89999,183.03867C379.77811,183.37489 380.1944,184.24609 380.5,185.08751C380.84323,186.03255 381.14215,186.75835 381.33334,187.56667C381.56122,188.53006 381.33105,189.43413 381.57199,190.192C381.87265,191.13766 382.52396,191.56364 383.33334,192.40001C383.85535,192.93939 384.39694,193.72469 384.47916,194.56667C384.57428,195.54092 384.51965,196.33253 384.85266,197.21933C385.11792,197.92575 385.48199,198.93008 385.5,199.76666C385.51935,200.66612 385.474,200.90887 385.50134,200.08267C385.52997,199.218 385.9386,198.36121 386.216,197.68266C386.58438,196.7816 386.5,195.73334 386.5,194.97734C386.5,194.06667 386.42316,193.12854 386.85266,192.26218C387.15695,191.64835 387.45801,190.7411 387.5,189.73334C387.53152,188.97714 388.1936,187.96664 388.46399,188.48534C388.82059,189.1694 388.5,190.24933 388.5,191.04584C388.5,191.79733 388.5,192.93733 388.5,193.70534C388.5,194.552 388.5,195.668 388.5,196.46533C388.5,197.23067 388.5,198.18066 388.5,199.12401C388.5,200.08751 388.5,200.88817 388.5,201.77734C388.5,202.76651 388.46335,203.54651 388.50015,204.54533C388.52875,205.32091 388.57037,206.5179 389.30133,206.912C389.97275,207.274 390.38785,206.07671 390.55267,205.16217C390.69687,204.36203 391.1131,203.62329 391.37851,202.58783C391.58688,201.77492 391.47894,200.79773 391.52084,200.06667C391.5629,199.33304 391.91733,198.22253 392.5,197.56667C393.04691,196.95105 393.1445,196.0976 393.51068,195.17734C393.78815,194.48006 394.49402,195.17729 394.5,196.08751C394.50635,197.05466 394.50394,197.85382 394.66666,198.90001C394.76587,199.53799 394.91342,200.2234 395.2045,201.26134C395.47882,202.23952 395.80844,203.04272 396.064,203.70934C396.43494,204.67696 396.55038,205.54524 396.784,206.32933C397.03851,207.18362 397.4136,207.1618 397.58401,206.32933C397.78256,205.35947 398.2348,204.68912 398.48532,203.73067C398.68436,202.9691 399.07886,202.17436 399.5,201.56667C400.18457,200.57884 400.31161,199.95114 400.58267,199.052C400.84988,198.16565 401.39679,197.40845 401.47916,196.54584C401.57224,195.57088 401.5,194.77734 401.5,193.73334C401.5,192.97734 401.5,192.04584 401.5,191.08267C401.5,190.392 401.45538,189.25011 401.53601,189.26001C402.39917,189.36603 401.95367,190.83167 402.14734,191.67567C402.41867,192.8582 402.43347,193.46799 402.52533,194.36667C402.64816,195.5687 402.77225,196.16704 403,197.02501C403.20544,197.79889 403.48199,198.89412 403.5,199.76801C403.5199,200.73314 403.45129,201.39317 403.5,202.40001C403.54272,203.2831 404.40399,203.34833 404.50015,202.46634C404.57779,201.75429 404.784,200.79868 405,200.06667C405.216,199.33467 405.43372,198.20845 405.66666,197.23334C405.82895,196.55397 406.04291,195.78552 406.5,194.90001C406.93759,194.05228 407.40823,193.33398 408,192.60834C408.52609,191.96323 409.33252,192.43582 409.8045,193.23283C410.16116,193.83511 410.67105,194.89784 410.98267,195.536C411.31943,196.22569 411.66855,196.94078 411.93066,197.68401C412.29984,198.73076 412.40054,199.71519 412.54816,200.54784C412.7359,201.60699 413.21799,202.29445 413.45184,203.23734C413.61005,203.8752 413.82172,205.0704 414.06799,205.81734C414.33801,206.63629 414.50641,207.04352 414.79468,207.8515C415.26755,209.17694 415.26697,210.01564 415.509,210.86667C415.75787,211.74165 416.8616,212.61847 417.42801,212.084C418.15915,211.39409 417.5,210.356 417.5,209.3665C417.5,208.54584 417.5,207.88133 417.5,206.88268C417.5,206.06667 417.46207,205.24994 417.50449,204.02834C417.53232,203.22708 417.92471,202.36504 418.33334,201.56667C418.74228,200.76772 419.39941,200.24377 419.47916,199.52501C419.6069,198.37372 419.5,197.58751 419.5,196.73334C419.5,195.87117 419.5,194.96667 419.5,194.06667C419.5,193.10834 419.5,193.45467 419.5,194.392C419.5,195.40001 419.5,196.08751 419.5,197.10966C419.5,197.83867 419.5,198.67567 419.5,199.8665C419.5,200.46217 419.5,201.33067 419.5,202.40001C419.5,203.32001 419.5,204.08 419.5,205.10834C419.5,206.06667 419.5,206.92467 419.5,207.56667C419.5,208.51466 419.5,209.51067 419.5,210.36267C419.5,211.26666 419.5,212.16667 419.5,213.06667C419.5,213.97734 419.5,214.888 419.5,215.74133L419.50134,216.68266L419.58533,217.45067" id="svg_28" stroke-width="3" stroke="#000" fill="none"/>
  <path t="237593,237684,237695,237699,237775,237781,237781,237835,237957,237967,237967,238069,238205,238235,238295,238295,238322,238335,238335,238346,238377,238399,238447,238478,238493,238493,238508,238509,238613,238623,238640,238711,238771,238791,238791,238832,238840,238840,238859,238907,238929,238953,239115,239115,239135,239144,239181,239181,239204,239221,239297,239311,239311,239331,239453,239523,239540,239540,239699,239699,239720,239751,239887,239911,239987,240046,240062,240063,240079,240079,240093,240215,240371,240381,240406,240427,240427,240460,240480,240480,240491,240527,240616,240648,240693,240755,240755,240769,240769,240848,240880,240921,240975,240984,241010,241011,241117,241140,241140,241159,241335,241354,241375,241464,241465,241475,241484,241530,241531,241540,241560,241591,241591,241604,241857,241857,241949,241949,241959,241959,241985,242060,242101,242131,242157,242333,242333,242369,242388,242388,242423,242525,242544,242569,242694,242695,242704,242704,242807,242807,242819,242827,242856,242867,242867,243018,243055,243085,243171,243171,243184,243211,243211,243234,243310,243337,243337,243351,243387,243417,243417,243423,243506,243519,243533,243533,243659,243680,243688,243718,243719,243754,243755,243834,243855,243855,243972,243973,244006,244037,244037,244037,244066,244066,244112,244113,244173,244189,244189,244204,244205,244221,244221,244241,244255,244264,244430,244440,244849,244849" d="M75.5,66.56667C75.5,68.36667 75.5,69.26667 75.5,70.16667C75.5,70.97733 75.5,71.888 75.5,72.74133C75.5,73.68134 75.46334,74.66742 75.5,75.56667C75.52861,76.26842 76.18619,76.98904 76.44283,77.86667C76.69595,78.73223 76.5,79.66684 76.5,80.452C76.5,81.39201 76.5,82.4 76.5,83.15601C76.5,84.06667 76.5,84.96667 76.5,85.86667C76.5,86.76667 76.5,87.66667 76.5,88.56667C76.5,89.32384 76.5,90.21934 76.5,91.08267C76.5,92.04584 76.5,92.96667 76.5,93.86667C76.5,94.76667 76.5,95.66667 76.5,96.56667C76.5,97.36667 76.5,98.32384 76.5,99.21934C76.5,100.08267 76.5,100.93067 76.5,101.86667C76.5,102.76667 76.5,103.66667 76.5,104.56667C76.5,105.36667 76.5,106.26667 76.5,107.20267C76.5,108.05067 76.5,108.914 76.5,109.93067C76.5,110.76667 76.31673,111.72094 76.66666,112.56667C76.99133,113.3513 77.48958,114.06648 77.5,114.96667C77.51047,115.87111 77.5,116.73334 77.5,117.56667C77.5,118.54517 77.5,119.36533 77.5,120.26667C77.5,121.16667 77.5,122.06667 77.5,122.96667C77.5,123.86667 77.5,124.76801 77.5,125.73334C77.5,126.39201 77.5,127.4 77.5,128.26218C77.5,129.16667 77.5,130.06667 77.5,130.96667C77.5,131.86667 77.5,132.76666 77.5,133.66684C77.5,134.452 77.5,135.392 77.5,136.40001C77.5,137.15601 77.5,138.06667 77.5,138.96667C77.5,139.86667 77.5,140.76666 77.5,141.66667C77.5,142.56667 77.5,143.32384 77.5,144.21933C77.5,145.08267 77.5,146.04584 77.5,146.96667C77.5,147.86667 77.5,148.76666 77.5,149.66667C77.5,150.56667 77.5,151.36667 77.5,152.20267C77.5,153.21933 77.5,153.914 77.5,154.93066C77.5,155.86667 77.5,156.76666 77.5,157.66667C77.5,158.56667 77.5,159.36667 77.5,160.26666C77.5,161.20267 77.5,162.05067 77.5,162.914C77.5,163.80951 77.5,164.76666 77.5,165.66684C77.5,166.452 77.33848,167.43423 77.66666,168.40001C77.90366,169.09741 78.80251,169.69901 79.14283,170.32384C79.59454,171.15321 79.49933,172.08267 79.5,173.04584C79.50064,173.96667 79.5,174.86667 79.5,175.76666C79.5,176.66667 79.5,177.56667 79.5,178.36667C79.5,179.20267 79.5,180.21933 79.5,180.914C79.5,181.93066 79.5,182.86667 79.5,183.76666C79.5,184.66667 79.5,185.56667 79.5,186.32384C79.5,187.22383 79.5,187.97118 79.5,188.96533C79.5,189.9095 79.5,190.80951 79.5,191.76666C79.5,192.66667 79.5,193.56667 79.5,194.36667C79.5,195.26666 79.5,196.16667 79.5,196.97734C79.5,197.888 79.58598,198.74539 79.49866,199.68134C79.41501,200.57808 78.7495,201.22459 78.2045,201.86667C77.56392,202.62135 77.5,203.56667 77.5,204.36667C77.5,205.26666 77.5,206.08751 77.5,207.05067C77.5,207.914 77.5,208.80951 77.5,209.76666C77.5,210.66667 77.5,211.56667 77.5,212.36667C77.5,213.26666 77.5,214.16667 77.5,214.97734C77.5,215.888 77.5,216.74133 77.5,217.68266C77.5,218.45067 77.5,219.392 77.5,220.40001C77.5,221.192 77.5,222.21933 77.5,222.914C77.5,223.952 77.5,224.90001 77.5,225.57201C77.5,226.56134 77.5,227.42384 77.5,228.31483C77.5,229.21933 77.5,230.08267 77.5,231.06667C77.5,231.88817 77.5,232.77734 77.5,233.76651C77.5,234.54584 77.5,235.54517 77.5,236.36534C77.5,237.26666 77.5,238.16667 77.5,239.06667C77.5,239.96667 77.5,240.86667 77.5,241.76801L77.5,242.452" id="svg_29" stroke-width="3" stroke="#000" fill="none"/>
  <path t="256905,257216,257216,257237,257262,257272,257272,257286,257300,257302,257328,257328,257340,257382,257383,257458,257484,257551,257634,257710,257710,257842,257842,257852,257852,257938,257952,258004,258004,258019,258054,258075,258075,258155,258155,258170,258170,258180,258226,258236,258256,258320,258320,258360,258380,258380,258427,258436,258468,258498,258520,258558,258558,258608,258608,258638,258664,258704,258720,258740,258740,258810,258840,258866,258866,258912,258982,258992,259042,259043,259062,259072,259092,259164,259165,259184,259248,259248,259260,259364,259406,259426,259426,259466,259466,259467,259562,259712,259734,259744,259764,259764,259788,259854,259870,259870,260010,260036,260050,260112,260112,260136,260212,260232,260248,260248,260261,260261,260318,260341,260354,260398,260421,260460,260460,260460,260471,260471,260522,260556,260626,260640,260698,260722,260722,260740,260741,260774,260784,260801" d="M67.5,115.56667C67.92533,117.39201 68.15702,118.10207 68.5,119.04584C68.80576,119.88718 69.5929,120.49127 70.064,121.16667C70.5757,121.90026 70.5,122.86667 70.5,123.76667C70.5,124.66684 70.5,125.452 70.5,126.39201C70.5,127.4 70.5,128.15601 70.5,129.06667C70.5,129.96667 70.5,130.86667 70.5,131.76666C70.5,132.66701 70.5,133.53734 70.5,134.33467C70.5,135.31601 70.36278,136.24899 70.52084,137.02501C70.7014,137.91151 71.25272,138.71721 71.66666,139.56667C71.98451,140.21893 72.48958,141.06648 72.5,141.96667C72.51052,142.87561 72.5,143.53734 72.5,144.57201C72.5,145.31601 72.5,146.42368 72.5,147.25768C72.5,148.16667 72.5,149.06667 72.5,149.96667C72.5,150.86667 72.5,151.76801 72.5,152.452C72.5,153.392 72.5,154.40001 72.5,155.26218C72.5,156.16667 72.5,157.06667 72.5,157.96667C72.5,158.86667 72.5,159.76666 72.5,160.66684C72.5,161.452 72.40868,162.41081 72.58533,163.08267C72.852,164.09683 73.47141,164.86531 73.5,165.76666C73.52854,166.66621 73.5,167.56667 73.5,168.36667C73.5,169.26666 73.5,170.08751 73.5,171.05067C73.5,171.914 73.5,172.80951 73.5,173.76666C73.5,174.66667 73.5,175.56667 73.5,176.36667C73.5,177.26666 73.5,178.16667 73.5,178.97734C73.5,179.888 73.58598,180.74539 73.49866,181.68134C73.41501,182.57808 72.85267,183.26666 72.5,184.06667C72.14733,184.86667 71.56088,185.66055 71.5,186.56667C71.4454,187.37917 71.5,188.33467 71.5,189.06667C71.5,189.79868 71.5,190.89467 71.5,191.86667C71.5,192.76666 71.5,193.66667 71.5,194.56667C71.5,195.36667 71.5,196.26666 71.5,197.20267C71.5,198.05067 71.5,198.914 71.5,199.80951C71.5,200.76666 71.5,201.66667 71.5,202.56667C71.5,203.36667 71.5,204.26666 71.5,205.16667C71.5,206.08751 71.42989,207.058 71.536,207.74133C71.68517,208.70198 72.35182,209.334 72.4955,210.26666C72.63253,211.15619 72.49777,212.06667 72.5,212.96667C72.50225,213.87569 72.65997,214.9019 72.85267,215.57201C73.06724,216.31819 73.40572,217.22388 73.48933,218.14534C73.5726,219.06296 73.5,219.96667 73.5,220.86667C73.5,221.76666 73.5,222.66667 73.5,223.56667C73.5,224.32384 73.5,225.21933 73.5,226.08267L73.5,227.04584L73.5,227.96667L73.5,228.86667" id="svg_32" stroke-width="3" stroke="#000" fill="none"/>
  <path t="266831,267602,267602,268126,268162,268162,268222,268364,268530,268554,268554,268580,268606,268656,268656,268702,268702,268712,268712,268746,268746,268766,268792,268818,268818,268848,268862,268862,268888,268934,268934,268988,269018,269240,269240,269256,269306,269356,269372,269392,269392,269452,269462,269462,269472,269524,269534,269746,269786,269796,269796,269816,269816,269912,269932,269958,270002,270022,270042,270104,270104,270134,270134,270214,270240,270254,270270,270290,270346,270346,270380,270412,270412,270426,270496,270532,270558,270568,270582,270582,270618,270618,270658,270680,270700,270704,270704,270996,271078,271144,271290,271290,271320,271320,271336,271444,271474,271524,271620,271690,271690,271690,271746,271746,271770,271792,271866,271882,271892,271978,271978,272000,272014,272014,272054,272064,272114,272144,272150,272150,272174,272194,272194,272206,272216,272238,272328,272328,272394,272534,272560,272570,272570,272702,272702,272722,272828,272954,272964,272984,273018,273070,273070,273154,273154,273296,273316,273332,273422,273441,273448,273448,273460,273461,273574,273604,273690,273706,273812,273812,273836,273868,273904,273904,274010,274010,274156,274182,274186,274262,274262,274288,274514,274514,274520,274520,274546,274620,274662,274752,274752,274854,274870,274870,274906,274906,274916,274926,274956,274956,274970,275002,275012,275042,275118,275118,275218,275228,275228,275254,275364,275374,275384,275476,275477" d="M74.5,70.56667C73.66666,69.56667 74.06541,68.91869 74.8,68.27117C75.46221,67.68745 76.3,67.56734 77.2,67.56667C78.1,67.56599 79.02084,67.56667 79.984,67.56667C80.67467,67.56667 81.6188,67.47675 82.6,67.56683C83.51144,67.65051 84.15823,68.1235 84.7955,68.87117C85.26015,69.41631 85.4282,70.41077 85.584,71.168C85.79154,72.1767 86.26537,72.879 86.44283,73.8095C86.62247,74.7514 86.5,75.66684 86.5,76.452C86.5,77.39201 86.5,78.4 86.5,79.15601C86.5,80.0875 86.5,80.888 86.5,81.74133C86.5,82.68134 86.5,83.66667 86.5,84.56667C86.5,85.36667 86.5,86.26667 86.5,87.16667C86.5,88.06667 86.5,88.97733 86.5,89.888C86.5,90.74133 86.5,91.68134 86.5,92.56667C86.5,93.36667 86.5,94.26667 86.5,95.16667C86.5,96.06667 86.5,96.96667 86.5,97.87117C86.5,98.73334 86.5,99.56667 86.5,100.54517C86.5,101.36533 86.5,102.26667 86.5,103.16667C86.5,104.06667 86.5,104.96667 86.5,105.86667C86.5,106.76801 86.5,107.73334 86.5,108.39201C86.5,109.4 86.5,110.26217 86.5,111.16667C86.5,112.06667 86.5,112.96667 86.5,113.86667C86.5,114.76667 86.5,115.66684 86.5,116.452C86.5,117.39201 86.5,118.4 86.5,119.15601C86.5,120.06667 86.5,120.96667 86.5,121.86667C86.5,122.76667 86.53391,123.66731 86.5,124.56667C86.4714,125.32545 86.11252,126.20558 85.85267,126.914C85.48597,127.91372 85.5,128.76666 85.5,129.66667C85.5,130.56667 85.3757,131.3441 84.92533,132.16667C84.49805,132.94707 84.5,133.87117 84.5,134.73334C84.5,135.56667 84.5,136.54517 84.5,137.36534C84.5,138.26666 84.5,139.16667 84.5,140.06667C84.5,140.96667 84.5,141.87567 84.5,142.90001C84.5,143.57201 84.5,144.31601 84.5,145.42368C84.5,146.25768 84.5,147.16667 84.5,148.06667C84.5,148.96667 84.5,149.86667 84.5,150.76666C84.5,151.66684 84.5,152.452 84.5,153.392C84.5,154.40001 84.5,155.15601 84.5,156.06667C84.5,156.96667 84.39304,157.8732 84.50134,158.76666C84.61282,159.68645 85.30075,160.22029 85.47916,161.08751C85.67329,162.03114 85.5,162.914 85.5,163.80951C85.5,164.76666 85.5,165.66667 85.5,166.56667C85.5,167.36667 85.31853,168.29259 85.536,169.16667C85.75314,170.03938 86.39701,170.72467 86.47916,171.56667C86.57421,172.54076 86.5,173.36534 86.5,174.26666C86.5,175.16667 86.5,176.06667 86.5,176.96667C86.5,177.86667 86.5,178.76801 86.5,179.73334C86.5,180.392 86.5,181.40001 86.5,182.26218C86.5,183.16667 86.5,184.06667 86.5,184.96667C86.5,185.86667 86.5,186.76666 86.5,187.66684C86.5,188.452 86.5,189.392 86.5,190.08267C86.5,191.15601 86.50225,192.06667 86.5,192.96667C86.49775,193.86668 86.18896,194.61122 85.784,195.36667C85.37876,196.12263 84.92647,196.9176 84.6215,197.888C84.41579,198.54253 84.67862,199.58414 84.41467,200.36534C84.11411,201.25487 83.73426,201.99901 83.491,202.86667C83.24534,203.74286 82.21796,203.82951 81.67067,204.76666C81.20863,205.55785 81.5,206.452 81.5,207.392C81.5,208.08267 81.48542,209.1823 81.92533,209.96667C82.33324,210.69398 82.5,211.56667 82.5,212.36667C82.5,213.32384 82.5,214.22383 82.5,214.97118C82.5,215.96533 82.5,216.73067 82.5,217.80951C82.5,218.66667 82.5,219.56667 82.5,220.36667C82.5,221.26666 82.5,222.16667 82.5,223.06667C82.5,223.97734 82.5,224.888 82.5,225.74133C82.5,226.68134 82.5,227.56667 82.5,228.36667C82.5,229.26666 82.5,230.16667 82.5,231.06667L82.51067,231.96667L82.85267,232.87117L83.216,233.452" id="svg_33" stroke-width="3" stroke="#000" fill="none"/>
  <path t="287940,288688,288688,288838,288904,288904,289096,289126,289262,289262,289404,289404,289626,289656,289670,289710,289720,289760,289760,289790,289876,290098,290098,290124,290158,290158,290164,290164,290184,290184,290194,290210,290221,290221,290246,290246,290270,290270,290408,290408,290428,290538,290538,290574,290608,290608,290634,290644,290644,290674,290674,290700,290700,290700,290792,290792,290816,290836,290836,290922,291044,291044,291064,291064,291069,291069,291150,291150,291184,291206,291221,291221,291366,291382,291584,291584" d="M178.5,89.56667C177.5,88.56667 177.48654,87.71647 176.97917,87.06667C176.3795,86.29865 175.63727,85.80007 175.5045,84.86667C175.38889,84.05386 175.74898,83.06434 176.11067,82.39201C176.55646,81.56339 177.15005,80.77129 178,80.5875C178.8799,80.39724 179.8,80.56667 180.7,80.56667C181.60001,80.56667 182.5,80.56667 183.3,80.56667C184.2,80.56667 185.13646,80.53996 185.98399,80.568C186.84866,80.59661 187.75578,80.90887 188.5,81.56667C189.03027,82.03536 189.99129,82.44376 190.67467,82.592C191.62654,82.79848 192.14626,83.39629 192.55267,84.26667C192.89253,84.99449 193.66667,85.56667 194.5,86.06667C195.33333,86.56667 195.88516,86.94508 196.60001,87.66684C197.11572,88.18755 197.74367,89.02868 198.064,89.74133C198.47551,90.65685 198.62561,91.59935 199.11067,92.16667C199.74911,92.91338 200.56299,93.51314 200.97917,94.06667C201.53485,94.80573 201.44324,95.77793 201.58533,96.53734C201.78229,97.59 202.04192,98.38387 202.66667,99.23334C203.08794,99.80612 203.88324,100.2073 204.61467,100.76667C205.3374,101.31939 205.89999,101.96666 206.60001,102.66667C207.2,103.26667 207.8,103.86667 208.5,104.56667C209.10001,105.16667 209.74075,105.73388 210.2,106.32384C210.86212,107.17444 211.1235,107.96979 211.7,108.68C212.23477,109.33881 213.25513,109.53248 213.89999,110.00267C214.67961,110.57111 215.2,111.26667 215.89999,111.956L216.60001,112.44534L217.5,112.73334L218.10001,113.14133" id="svg_35" stroke-width="3" stroke="#000" fill="none"/>
  <path t="298666,299004,299030,299116,299142,299162,299226,299236,299258,299258,299434,299434,299454,299494,299534,299550,299570,299570,299584,299584,299666,299680,299681,299681,299690,299732,299812,299812,299862,299862,299902,299902,299912,299958,300004,300004,300024,300050,300061,300061,300090,300090,300101,300101,300114,300154,300216,300236,300256,300256,300276,300296,300296,300356,300376,300386,300432,300478,300478,300524,300598,300634,300634,300634,300680,300680,301138,301138,301870,302254,302254,302328,302328,302370,302434,302434,302470,302582,302586,302586,302738,302738,302768,302781,302781,302814,302814,302834,302834,302874,302874,302898,302908,302908,302960,302960,303034,303146,303150,303150,303172,303192,303192,303216,303236,303236,303256,303256,303352,303368,303368,303458,303468,303488,303488,303501,303504,303504,303580,303580,303601,303640,303640,303661,303736,303746,303746,303756,303756,303772,303842,303842,303932,303932,303984,303984,304004,304038,304038,304064,304084,304084,304084,304190,304356,304356,304376,304376,304396,304406,304472,304472,304512,304544,304544,304750,304750,304780,304786,304786,304810,304826,304826,304850,304870,304870,304886,304886,304906,304906,304916,304936,304936,304936,304946,304946,304972,304972,304986,304986,305128" d="M251.5,142.56667C252.30133,143.84801 253.19998,143.56892 254.10001,143.56667C255,143.56442 255.89999,143.56667 256.79999,143.56667C257.70001,143.56667 258.61591,143.6595 259.38535,143.48134C260.35919,143.25584 260.99133,142.73282 261.97916,142.58751C262.7915,142.46802 263.70001,142.56667 264.60001,142.56667C265.5,142.56667 266.35995,142.68951 266.89999,143.42801C267.35352,144.04819 267.94629,144.90831 268.5,145.73334C268.92639,146.36865 269.15628,147.10193 269.5,148.04584C269.8063,148.88698 270.50067,149.56599 271.10001,150.16667C271.69934,150.76733 272.31412,151.43111 272.46399,152.392C272.57056,153.07529 272.42743,154.21591 272.85718,154.86667C273.38092,155.65971 274.24112,156.10046 274.46399,156.96667C274.68842,157.83899 274.44635,158.77736 274.58533,159.53734C274.77759,160.58855 275.12338,161.30365 275.33334,162.23334C275.53717,163.13585 275.5,163.96667 275.5,164.86667C275.5,165.76666 275.5,166.66667 275.5,167.56667C275.5,168.36667 275.5,169.32384 275.5,170.21933C275.5,171.08267 275.5,172.04584 275.5,172.86667C275.5,173.76666 275.5,174.66667 275.5,175.56667C275.5,176.36667 275.46396,177.32935 276.04166,178.08751C276.58636,178.80237 277.32532,179.39204 277.84732,179.914C278.47861,180.54523 279.1041,181.18697 279.98267,181.76666C280.62399,182.18982 281.14822,182.99356 281.94284,183.44534C282.60077,183.81941 283.65155,183.80643 284.29868,184.368C284.93954,184.92413 285.52213,185.76756 286.20001,186.2095C286.93393,186.68796 287.75406,186.9969 288.60001,187.4455C289.26956,187.80055 289.87762,188.44218 290.29999,189.084C290.87045,189.95085 291.59921,190.66748 292.10001,191.16667C292.80338,191.8678 293.37189,192.38797 294.15268,192.86667C294.83606,193.28563 295.75598,193.85242 296.29868,194.36667C297.01791,195.04823 297.80252,195.69901 298.14282,196.32384C298.59454,197.15321 298.32382,198.10278 298.52084,199.04584C298.70224,199.91415 299.58932,200.49379 300.064,201.16667C300.58237,201.90149 300.76343,202.78621 301.30133,203.36667C301.97357,204.0921 302.64627,204.62741 303.20001,205.32384C303.74838,206.0135 303.9563,206.87123 304.79999,207.45683C305.51132,207.95059 306.13751,208.34152 306.89999,208.95601C307.64575,209.55702 308.45197,209.81216 309.20001,210.214C309.97998,210.63298 310.99323,210.48492 311.67465,210.60268C312.77377,210.7926 313.29929,211.36739 314,212.06667C314.60052,212.66597 315.26825,213.40219 316.10001,213.556C316.98553,213.71976 317.85269,213.88277 318.29999,214.45334C318.9873,215.33008 319.20071,216.16263 319.79999,216.80501C320.49908,217.5544 321.27991,217.55925 322.15268,217.92384C322.86929,218.22321 323.75598,218.85242 324.29868,219.36667C325.01791,220.04823 325.69812,220.76855 326.20001,221.26666C326.90802,221.96935 327.64917,222.59792 328.32535,222.95601C329,223.31329 330.08383,223.47209 330.70001,224.136C331.19965,224.67433 331.67746,225.70155 332.20001,226.26218C332.87201,226.98314 333.65897,227.30254 334.5,227.73334C335.16434,228.07362 335.79999,228.86667 336.5,229.56667C337,230.06667 337.82568,230.67751 338.21466,231.36667C338.64719,232.133 338.50366,233.21935 338.5,233.914C338.49466,234.93071 338.24081,235.79018 337.69867,236.36667C337.01096,237.09795 336.33334,237.56667 335.5,238.06667C334.66666,238.56667 334.03055,239.07687 333.39999,239.6665C332.80893,240.21922 331.9509,240.53529 330.95734,240.78801C330.24326,240.96964 329.49652,241.18217 328.47067,241.48401C327.69525,241.71216 327.08932,242.41734 326.61465,242.99867L325.67465,243.50534L324.98401,243.64934L324.13599,244.00267" id="svg_36" stroke-width="3" stroke="#000" fill="none"/>
  <path t="309290,309854,309854,309980,309980,310001,310056,310056,310354,310354,310368,310374,310450,310494,310516,310516,310560,310560,310576,310616,310636,310652,310692,310748,310748,310832,310832,310878,310878,310934,310947,311050,311050,311170,311170,311196,311196,311358,311358,311367,311383,311553,311554,311554,311564,311670,311700,311706,311706,311715,311931,312017,312041,312041,312078,312078,312087,312087,312236,312372,312372,312572,312572,313142,313263,313264,313281,313374,313456,313456,313465,313874,313874,313890,313914,314091,314105,314222,314328,314333,314354,314354,314420,314441,314442,314442,314450,314450,314461,314461,314464,314696,314898,314898,315034,315103,315159,315160,315181,315207,315242,315255,315265,315266,315361,315441,315441,315484,315484,315600,315630,315686,315686,315876,315962,316048,316163,316164,316190,316190,316219,316219,316254,316279,316445,316517,316532,316532,316547,316547,316673,316850,316850,316850,316885,316886,316905,316965,317054,317083,317137,317138,317183,317203,317203,317260,317501,317502,317859,318279,318369,318405,318406,318441,318441,318471,318471,318502,318502,318603,318676,318676,318689,318690,318695,318711,319071,319072,319111,319201,319202,319221,319519,319520,319520,319526,319549,319550,319621,319678,319678,319688,319703,319703,319743,319959,319960,320207,320208,320221,320221,320230,320243,320365,320481,320683,320684,320875,320895,320905,320916,320916,320925,321002,321021,321032,321605,321645,321843,321899,321900,321910,321910,322005,322115,322251,322251,322287,322368,322447,322447,322559,322560,322595,322595,322665,322696,322696,322712,322712,322741,322771,322772,322781,322781,322781,322818,322818,322847,322862,322862,322967,322981,322981,322983,323007,323195,323196,323205,323205,323235,323236,323311,323331,323332,323397,323417,323513,323633,323653,323654,323663,323663,323703,323725,323755,323756,323775,323776,323785,323891,323892,323915,323916,323935,323981,324007,324017,324027,324117,324118,324124,324124,324199,324200,324249,324249,324269,324305,324375,324445,324475,324491,324492,324512,324512,324541,324567,324601,324602,324627,324631,324668,324668,324683,324683,324703,324733,324747,324769,324844,324854,324854,324870,324900,324900,324910,324925,324970,324992,324995,325022,325022,325072,325072,325072,325118,325128,325151,325191,325207,325208,325213,325223,325224,325307,325308,325334,325400,325400,325410,325434,325434,325510,325510,325525,325526,325536,325536,325585,325586,325602,325616,325616,325652,325671,325672,325683,325683,325733,325734,325754,325754,325763,325784,325784,325803,325859,325860,325885,325886,325912,325931,325932,325965,325966,325992,325992,326005,326028,326072,326072,326178,326178,326193,326207,326207,326243,326244,326255,326285,326286,326295,326296,326319,326320,326330,326335,326391,326392,326452,326478,326478,326510,326510,326510,326523,326523,326563,326589,326625,326625,326642,326649,326699,326699,326700,326741,326745,326762,326762,326801,326802,326827,326867,326868,326927,327017,327018,327018,327047,327053,327070,327109,327110,327123,327130,327164,327175,327176,327185,327186,327219,327229,327245,327295,327411,327437,327438,327447,327447,327491,327538,327538,327649,327653,327654,327670,327673,327703,327704,327745,327746,327835,327836,327845,327881,327882,327882,327902,327922,327922,327945,327963,327963,328021,328022,328038,328038,328154,328155,328173,328183,328188,328198,328209,328210,328224" d="M243.5,102.56667C244.5,101.56667 245.28024,101.52015 245.89999,100.70534C246.36513,100.0938 246.78529,99.30997 247.5,98.56667C248.08812,97.95502 248.83086,97.45872 249.21466,96.76667C249.67192,95.94218 249.5,94.96667 249.5,94.06667C249.5,93.15601 249.5916,92.2365 249.464,91.39201C249.31877,90.43075 248.65414,89.80109 248.51067,88.96667C248.35814,88.07962 248.5,87.16667 248.5,86.26667C248.5,85.36667 248.5005,84.46634 248.5,83.75233C248.49933,82.79867 248.58049,81.79302 248.33333,80.9C248.1042,80.07215 247.62494,79.36202 247.49983,78.46667C247.37318,77.5602 246.89064,76.89546 246.01466,76.65067C245.11969,76.40057 244.10069,76.2844 243.52083,76.06667C242.52037,75.69099 241.72044,75.45002 240.89999,74.992C240.10652,74.54905 239.32448,74.24442 238.67467,73.716C237.97426,73.14644 237.13832,72.6027 236.3,72.56667C235.40082,72.52802 234.4996,72.59203 233.7,72.56667C232.79865,72.53807 232.03693,71.99306 231.2,71.61934C230.42766,71.27446 229.76053,70.83516 229.01601,70.36667C228.34048,69.94159 227.36711,69.38709 226.8045,68.86667C226.07545,68.19228 225.49806,67.5686 224.89999,66.96667C224.20224,66.26441 223.67891,65.70329 223.536,64.74133C223.38777,63.74364 223.48898,62.75731 224.2045,62.57117C225.106,62.33664 225.98401,62.56214 226.84734,62.56667C227.86404,62.572 228.63835,62.95274 229.3,63.28267C230.14336,63.70321 231.10001,63.56667 232,63.56667C232.89999,63.56667 233.8,63.56659 234.7,63.56667C235.60001,63.56675 236.46053,63.79662 237.2,64.214C237.88983,64.60337 238.83531,64.7264 239.75067,64.992C240.49632,65.20837 241.35158,65.50132 242.24817,65.56217C243.1506,65.62342 244.03554,65.39336 244.97917,65.5875C245.84637,65.76591 246.59032,66.53749 247.3,66.56534C248.2178,66.60135 248.43776,65.67108 248.14734,64.914C247.81186,64.03946 247.51042,63.0877 247.5,62.26667C247.48859,61.36674 247.68327,60.4124 247.33333,59.56667C247.00867,58.78204 246.56741,57.98784 245.93201,57.36534C245.4135,56.85736 244.60344,56.09384 244.52133,55.392C244.39719,54.33086 244.5,53.46667 244.5,52.56667C244.5,51.76667 244.68375,50.84017 244.464,49.96667C244.24695,49.10384 243.59566,48.36136 243.416,47.596C243.22815,46.79572 242.94357,46.08134 242.66667,44.9C242.48297,44.11626 242.5,43.16667 242.5,42.26667C242.5,41.36667 242.5,40.46667 242.5,39.56667C242.5,38.8095 242.48174,37.91381 242.5,37.05067C242.52084,36.06601 242.92627,35.2311 243.36133,34.74134C243.99394,34.02918 244.65887,33.20724 245.29866,32.85334C246.12512,32.39618 247.10002,32.56134 248,32.56667C248.90004,32.572 249.81999,32.9023 250.3,33.368C251.01013,34.05697 251.42831,34.883 251.48933,35.74134C251.55598,36.67905 251.73395,37.52495 252.14734,38.26667C252.57297,39.03035 252.96594,39.80276 253.37866,40.66667C253.786,41.51933 254.13348,42.14505 254.8,42.87117C255.31827,43.43577 255.77667,44.2333 256.20001,44.914C256.76929,45.82933 257.29956,46.36576 258,47.06667C258.59979,47.66687 259.22595,48.32751 260.15268,48.5095C261.00159,48.67622 261.91428,48.4627 262.79999,48.91933C263.55475,49.30845 264.35022,49.57893 265,50.0875C265.76807,50.68865 266.3331,51.33582 266.89999,51.97734C267.53912,52.70058 267.86905,53.41087 268.29999,54.08267C268.86087,54.95704 269.60001,55.66666 270.10001,56.16667C270.79999,56.86666 271.56183,57.51402 271.97916,58.06667C272.53775,58.80637 272.76605,59.78381 273.30133,60.36667C273.87976,60.99653 274.48056,61.74574 274.89999,62.38134C275.47394,63.25111 276.25714,63.56217 277.15268,63.56667C278.01599,63.57101 278.97916,63.56667 279.89999,63.56667C280.79999,63.56667 281.76453,63.75551 282.5,63.4C283.25461,63.03525 283.32001,61.95807 283.85718,61.27117C284.4389,60.52733 285.5,60.56667 286.29999,60.56667C287.20001,60.56667 288.10001,60.56667 289,60.56667C289.89999,60.56667 290.82312,60.36539 291.69867,60.568C292.50024,60.75349 292.33334,61.73334 292,62.56667C291.66666,63.4 291.44827,64.2627 291,65.06667C290.55362,65.8672 290.30692,66.69071 289.7955,67.26667C289.14526,67.99894 288.54272,68.76364 288.5,69.66684C288.46292,70.45113 288.49826,71.40267 288.5,72.168C288.50226,73.16218 288.39169,73.98286 288.85718,74.8095C289.34451,75.67496 290.10001,76.16666 290.70001,76.76667C291.29999,77.36666 292,78.06667 292.60016,78.66684C293.13599,79.20267 293.82132,79.88799 294.5,80.56667C295.01599,81.08266 295.74283,81.80949 296.29868,82.36533C297,83.06666 297.60001,83.66666 298.20001,84.26667C298.89999,84.96666 299.42166,85.6638 300.10001,86.13067C300.9238,86.69765 301.82767,86.89494 302.5,87.56667C303.00064,88.06687 303.3772,89.05793 303.52533,89.74133C303.7319,90.6945 304.30069,91.36596 304.89999,91.96667C305.59909,92.6674 306.29776,93.21801 306.47916,94.06667C306.66733,94.94702 306.5,95.86667 306.5,96.76801C306.5,97.73334 306.46127,98.56744 306.50015,99.54517C306.52875,100.26386 307.18491,100.9898 307.44284,101.87117C307.68552,102.70045 307.5,103.56667 307.5,104.54517C307.5,105.36533 307.49512,106.34708 307.85718,107.21934C308.15494,107.93665 308.82346,108.60307 309.21466,109.36533C309.64572,110.20525 309.5,111.16667 309.5,112.06667C309.5,112.96667 309.38333,113.90984 309.72134,114.66684C310.04059,115.38182 310.28763,116.27834 310.66934,117.08267C311.05768,117.90097 311.9061,118.18857 312.61334,118.76667C313.27032,119.30368 313.49774,120.26666 313.5,121.16667C313.50223,122.06667 313.5,122.96667 313.5,123.87117C313.5,124.73334 313.5,125.56667 313.5,126.54517C313.5,127.36533 313.5,128.26666 313.5,129.20267C313.5,130.05067 313.5,130.914 313.5,131.80951C313.5,132.76801 313.5,133.73334 313.5,134.56667C313.5,135.40001 313.5,136.26218 313.5,137.16667C313.5,138.06667 313.5,138.96667 313.5,139.86667C313.5,140.76666 313.5,141.66684 313.5,142.452C313.5,143.392 313.5,144.40001 313.5,145.15601C313.5,146.06667 313.5,146.96667 313.5,147.86667C313.5,148.76666 313.5,149.66667 313.5,150.56667C313.5,151.381 313.5,152.33467 313.5,153.06667C313.5,153.79868 313.5,155.02501 313.5,155.86667C313.5,156.76666 313.5,157.66667 313.5,158.56667C313.5,159.36667 313.45694,160.23111 313.85718,161.21933C314.14871,161.93919 314.6796,162.69957 315.20001,163.26218C315.87439,163.99123 316.70087,164.58878 317.14282,165.26666C317.62131,166.00058 317.88052,166.85403 318.30133,167.452C318.83017,168.20348 319.19455,168.97394 319.70001,169.96533C319.9968,170.54747 320.57285,171.56845 321.10001,172.15601C321.67172,172.79323 322.29999,173.36667 323,174.06667C323.60001,174.66667 324.20001,175.26668 324.89999,175.96667C325.5,176.56668 326.10001,177.16667 326.8045,177.87117C327.25717,178.32384 327.98401,179.05067 328.5,179.56667C329.33334,180.40001 329.79175,181.04613 330.70001,181.48267C331.4556,181.84583 332.10266,182.17467 332.79999,182.86667C333.50269,183.56398 334,184.06665 334.70001,184.76666C335.29999,185.36665 335.91217,185.95471 336.60001,186.66684C337.10916,187.19397 337.68915,188.05708 338.10001,188.74133C338.58725,189.5528 339.19916,190.20686 340,190.56667C340.79916,190.9257 341.5,191.56667 342.10001,192.16667C342.70001,192.76666 343.26196,193.40808 344.02084,194.06667C344.6377,194.60199 345.35706,194.91635 346.33334,195.56667C347.00262,196.01248 347.81665,196.31174 348.5,196.90001C349.14426,197.45462 349.46539,198.42834 350,199.04584C350.56512,199.69858 351.26105,200.21141 351.88934,200.96667C352.43555,201.62325 352.62653,202.59856 353.11066,203.16667C353.74585,203.91203 354.29245,204.58171 354.60983,205.381C354.90536,206.12524 355.37323,206.80434 355.79468,207.56134C356.36148,208.57944 356.60059,209.35367 357,210.06667C357.49728,210.95438 357.76785,211.78215 358.30133,212.36667C358.95819,213.08636 359.35187,213.78697 359.66666,214.73334C359.89127,215.40857 360.3197,216.07024 360.88934,216.93066C361.43518,217.75513 361.81458,218.59355 362.52084,219.06667C363.31345,219.59763 364.04846,220.01813 364.44733,220.86667C364.80707,221.63202 365.24228,222.23157 365.89999,222.97734C366.53839,223.70122 366.94995,224.36658 367.21466,225.08267C367.561,226.01953 367.40454,227.01122 367.784,227.76666C368.21957,228.63387 368.30338,229.40121 368.55716,230.26666C368.81445,231.1441 369.4606,231.87018 369.5,232.73334C369.53799,233.56606 369.75433,234.52724 370.07468,235.15601C370.52701,236.04387 370.5,236.96667 370.5,237.86667C370.5,238.76666 370.5,239.66667 370.5,240.56667C370.5,241.32384 370.37689,242.24098 370.58533,243.08267C370.80591,243.9734 371.6008,244.66586 372.10001,245.16667C372.79663,245.86554 373.23688,246.60355 373.58401,247.36667C373.9726,248.22093 374.36722,249.01712 374.78534,249.76801C375.20218,250.51657 375.78104,251.23061 376.20001,251.914C376.67871,252.69481 377.26877,253.3988 377.91068,253.96667C378.63354,254.60617 379.34421,254.93575 380.01599,255.36667C380.89038,255.92757 381.60001,256.66666 382.10001,257.16666C382.79999,257.86667 383.53262,258.5372 384,259.08749C384.64761,259.85001 384.9516,260.59772 385.5,261.39999C385.96094,262.07428 386.61343,262.88779 387.29999,263.28134C388.03381,263.702 389.03473,263.51376 389.79999,263.91934C390.64587,264.36765 391.5,264.56668 392.29999,264.56668L393.20001,264.56668" id="svg_37" stroke-width="3" stroke="#000" fill="none"/>
  <path t="331690,331982,331991,332128,332167,332229,332323,332323,332324,332334,332345,332365,332439,332485,332491,332491,332571,332571,332638,332986,332986,333101,333112,333125,333132,333147,333147,333257,333257,333323,333323,333347,333389,333459,333486,333565,333566,333721,333907,333907,334321,334371,334387,334387" d="M252.5,84.56667C255.08934,84.56667 256,84.56667 256.89999,84.56667C257.79999,84.56667 258.72327,84.66304 259.66666,84.4C260.34833,84.20995 260.99112,83.73145 261.97916,83.5875C262.89059,83.45471 263.79999,83.56667 264.70001,83.56667C265.60001,83.56667 266.5954,83.81154 267.29999,83.396C268.08804,82.93124 268.24234,82.00538 268.89999,81.20267C269.45413,80.52632 270.03378,79.82552 270.89999,79.60267C271.77231,79.37824 272.70001,79.56667 273.60001,79.56667C274.5,79.56667 275.31613,79.72317 275.91068,80.41734C276.39886,80.98735 277.32278,81.52843 278.01599,81.564C279.08792,81.61901 280.013,81.70875 280.89999,81.556C281.73315,81.41252 282.52917,80.81081 283.20001,80.514C284.04767,80.13895 284.80756,79.44529 285.21466,78.76667C285.65616,78.03072 285.94666,77.17734 286.8215,76.68817L287.52084,76.5875" id="svg_38" stroke-width="3" stroke="#000" fill="none"/>
  <path t="336174,336285,336285,336316,336316,336329,336343,336343,336365,336365,336385,336406,336425,336431,336444,336444,336487,336487,336522,336532,336547,336558,336567,336578,336582,336593,336593,336664,336664,336674,336681,336743,336761,336781,336781,336793,336794,336845,336929,336985,337021,337021,337051,337051,337091,337107,337107,337187,337269,337269,337269,337511,337512,337627,337638,337649,337861,337861,338047,338058,338058,338235,338255,338265,338265,338275,338285,338285,338454,338537,338579,338601,338633,338659,338659,338685,338686,338696,338696,338769,338977,338978,339043,339063,339063,339067,339117,339117,339133,339143,339163,339163,339285,339285,339345,339385,339386,339396,339487,339537,339537,339583,339607,339607" d="M237.5,114.56667C238.5,113.56667 239.25824,113.52713 240.15266,113.57117C241.01874,113.61381 241.82573,114.1058 242.66667,114.4C243.46883,114.68063 244.44954,114.84102 245.1955,115.214C245.97388,115.6032 246.89999,115.56533 247.8,115.56667C248.7,115.568 249.49113,115.90674 250,116.56667C250.58984,117.33162 251.3,117.56533 252.2,117.56667C253.10001,117.568 254,117.56667 254.89999,117.56667C255.8,117.56667 256.70001,117.56667 257.60001,117.56667C258.5,117.56667 259.38535,117.56667 260.32535,117.56667C261.01599,117.56667 261.97916,117.56667 262.89999,117.56667C263.79999,117.56667 264.70132,117.56667 265.66666,117.56667C266.5,117.56667 267.47849,117.56667 268.1955,117.56667C269.10001,117.56667 270.06958,117.67811 270.79999,117.2095C271.59991,116.6963 272.10001,115.96667 272.79999,115.26667C273.29999,114.76667 274,114.06667 274.70001,113.36667C275.20001,112.86667 275.87994,112.12577 276.66666,111.56667C277.29199,111.12225 278.12048,110.75937 278.42801,109.74133C278.62872,109.07685 278.44156,108.0508 278.85266,107.26667C279.29724,106.41872 279.62469,105.5332 280.11066,104.96667C280.74823,104.22343 281.4874,103.6517 282.29999,103.568C283.19528,103.47578 284.15146,103.55482 284.98401,103.85067C285.69006,104.10157 286.61627,104.46434 287.60001,104.56683C288.30136,104.63991 289.02417,105.65395 289.88934,105.52C290.70309,105.39402 290.44714,104.03194 290.85266,103.26667C291.30099,102.42062 291.49933,101.68134 291.5,100.9095C291.50082,99.96534 291.41287,98.959 291.55716,98.22384C291.73959,97.2943 292.2601,96.42032 292.58401,95.76667C293.00531,94.9165 293.98111,94.61673 294.67465,94.57734C295.74112,94.51677 296.62405,94.75974 297.20001,95.27117C297.93228,95.92138 298.75998,96.33939 299.5,96.73334C300.17825,97.09441 300.64676,98.08493 301.10001,98.70534C301.64029,99.44491 302.71835,99.68129 303.14282,100.27117C303.71158,101.06158 303.92682,101.97549 304.60001,102.66667C305.09335,103.17323 305.79999,103.86667 306.5,104.56667L307,105.06667" id="svg_39" stroke-width="3" stroke="#000" fill="none"/>
  <path t="342348,343103,343223,343223,343345,344011" d="M261.5,55.56667C260.11066,56.428 259.66666,57.4 259.51068,58.156L259.54166,59.04584L260.20084,59.505" id="svg_40" stroke-width="3" stroke="#000" fill="none"/>
  <path t="349493,349907,349911,349911,349927,349927,349937,349937,350119,350119,350119,350315,350331,350331,350342,350351,350351,350355,350355,350355,350355,350375,351057,351471,351475,351485,351485,352005,352071,352171,352233,352233,352267,352267,352287,352287,352287,352307,352333,352333,352359,352359,352359,352373,352373,352389,352389,352459,352671,352761,352761,352781,352781,353035,353095,353105,353141,353141,353151,353162,353231,353242,353242,353251,353262,353271,353271,353499,353499,353499,353499,353503,353523,353523,353725,353731,353745,353755,353897,353897,353897,353902,353911,353937,353937,354089,354103,354169,354169,354185,354185,354185,354219,354219,354835,354836,354905,354905,355117,355118,355239,355239,355263,355441,355441,355465,355465,355541,355541,355541,355557,355621,355621,355823,355949,355949,355969,355982,356009,356009,356009,356131,356382,356382,357065,357082,357082,357089,357089,357106,357225" d="M223.5,40.56667C221.864,39.992 221.00183,39.72124 220.15266,39.514C219.23103,39.28908 218.61023,38.86959 217.664,38.57067C216.89366,38.32731 216.09038,37.72451 215.71066,37.29067C215.14034,36.63903 214.34943,35.88969 213.5,35.4C212.76436,34.97591 211.96388,34.61593 211.17833,34.34517C210.44115,34.09108 209.33615,33.55919 208.81734,33.368C208.02496,33.07601 207.28778,32.74879 206.172,32.60267C205.20757,32.47636 204.29623,32.64879 203.39999,32.5665C202.48856,32.48282 201.93958,31.91305 201.2,31.27117C200.53331,30.69256 199.41664,30.77173 199.66667,31.56667C199.8994,32.30658 200.71274,33.04512 201.10001,33.77734C201.51373,34.55956 201.86504,35.37641 202.3,36.08134C202.76384,36.83306 203.45679,37.61799 204.04167,38.06667C204.78459,38.63658 205.5116,38.85158 206.24933,39.16667C207.36694,39.64401 207.96852,40.05603 208.7,40.76667C209.30861,41.35794 210.10034,41.86284 210.41467,42.768C210.73257,43.68348 210.47243,44.56713 210.5,45.4C210.52859,46.26359 211.18555,46.98922 211.44284,47.86667C211.69661,48.73213 211.60738,49.79527 212.2045,50.2095C212.99345,50.75682 214.03888,50.50604 214.8,50.91933C215.54622,51.32454 216.30019,51.54871 217.2,51.56667C218.13651,51.58537 219.00012,51.82618 219.74667,52.21334C220.68481,52.69985 221.17862,53.05589 221.97917,53.54584C222.72694,54.00349 223.73114,54.34806 224.5,54.73334C225.25916,55.11375 225.99982,55.55625 226.89999,55.56667C227.79994,55.57708 228.72513,55.46372 229.66667,55.73334C230.35077,55.92924 231.00325,56.38684 231.864,56.956C232.68819,57.50098 233.45378,57.8088 234.2,58.214C234.96112,58.6273 235.93286,58.49767 236.8215,58.78817C237.54454,59.02453 238.50377,59.55931 239.0955,59.86667C239.84773,60.25738 240.79836,60.82271 241.29866,61.452C241.86285,62.16165 242.34404,62.84195 242.05716,62.46667C241.63028,61.90825 240.6377,61.60202 240.02083,61.06667C239.26198,60.40809 238.7,59.76666 238.10001,59.16667C237.39999,58.46666 236.75891,57.90459 236.2,57.25767C235.65781,56.63011 235.3,55.79867 235,55.06667C234.7,54.33467 233.99832,53.29933 233.62134,52.46667C233.32047,51.80211 232.89201,50.96402 232.3,50.36667C231.7027,49.76398 230.90489,49.12376 230.55267,48.26217C230.21603,47.43869 230.10748,46.71652 229.69867,46.05067C229.15555,45.16607 228.40112,44.46554 227.8,43.86667C227.20113,43.27003 226.40663,42.62882 225.61467,42.568C224.67743,42.49603 223.98399,42.56667 222.91066,42.56667L222,42.56667" id="svg_41" stroke-width="3" stroke="#000" fill="none"/>
 </g>
</svg>