<svg width="500" height="334.26183844011143" xmlns="http://www.w3.org/2000/svg" xmlns:svg="http://www.w3.org/2000/svg" xmlns:xlink="http://www.w3.org/1999/xlink">
 <!-- Created with SVG-edit - http://svg-edit.googlecode.com/ -->
 <g display="inline" class="layer">
  <title>Layer 1</title>
  <path t="0,148,165,165,181,182,200,200,214,232,264,282,314,332,349,364,398,431,449,466,482,499,515,531,549,565,582,598,631,681,764" d="M236.5,192.63092C236.5,193.49225 236.5,194.46425 236.5,195.25626C236.5,196.11626 236.5,196.84158 236.5,197.83075C236.5,198.79492 236.5,199.74425 236.5,200.60559C236.5,201.50958 236.51364,202.35516 236.07466,203.06693C235.59862,203.83879 235.08824,204.51105 234.536,205.05626C234.01158,205.57399 233.42693,206.0506 232.66667,206.46425C231.96834,206.84421 230.96526,206.57802 230.2,206.98358C229.35411,207.43188 228.5,207.63092 227.62117,207.63092C226.79466,207.63092 225.83333,207.63092 225,207.63092L224.07466,207.63092L223.216,207.63092L222.27867,207.63092" id="svg_1" stroke-width="3" stroke="#000" fill="none"/>
  <path t="1469,1549,1565,1599,1615,1616,1616,1632,1632,1649,1666,1666,1682,1698,1698,1698,1715,1715,1732,1732,1767,1767,1783,1800,1815,1833,1849,1865,1883,1898,1899,1933,1948,1966,1982,1982,1998,2015,2032,2048,2048,2065,2098,2132,2132,2148,2200,2215,2283,2299,2315,2613" d="M260.5,213.63092C259.69867,213.63092 258.69888,213.59186 258.47916,214.19342C258.13589,215.13318 258.10095,215.89598 257.7955,216.62558C257.35248,217.68379 256.80228,218.32416 256.20001,218.93092C255.50262,219.63353 254.83542,220.09233 254.10001,220.62692C253.31715,221.196 253.13457,221.94142 252.74283,222.63008C252.23517,223.52252 251.47833,224.05728 250.66667,224.63092C250.02353,225.08545 249.3354,225.79967 248.7955,226.33542C248.10266,227.02293 247.26764,227.31238 246.584,227.91492C245.98636,228.44167 245.28108,228.89253 244.62134,229.50958C244.04568,230.04799 243.40125,230.73184 242.78534,231.34558C242.14397,231.98471 241.21004,232.23798 240.62134,232.85242C239.96896,233.53331 239.88217,234.34389 239.47467,235.23093C239.10129,236.04369 238.60892,236.72932 238.5,237.63092C238.4035,238.42966 237.82579,239.14885 237.5,239.98358C237.174,240.81885 236.7955,241.33542 236.11067,242.02025C235.41467,242.71625 234.85266,243.27826 234.07466,243.64159L233.47467,244.20558L232.784,244.62959L232.07466,245.05626" id="svg_2" stroke-width="3" stroke="#000" fill="none"/>
  <path t="4003,4099,4148,4148,4165,4165,4165,4183,4183,4199,4199,4215,4231,4247,4247,4264,4282,4282,4298,4298,4315,4348,4365,4381,4397,4415,4431,4448,4482,4498,4514,4531,4564,4582,4597,4597,4615,4631,4631,4648,4648,4665,4683,4683,4747,4782,4782,4797,4831,4831,4847,4864,4882,4898,4914,4914,4948,4948,4965,4981,4981,4997,4997,5015,5015,5048,5064,5064,5097,5097,5115,5131,5147,5165" d="M209.5,233.63092C208.62151,233.63092 208.46719,234.35332 208.55716,235.09709C208.67352,236.05911 208.89334,236.86169 209.2045,237.62109C209.64145,238.6875 210.12509,239.22878 210.7,240.11359C211.11862,240.75787 211.6996,241.46234 212.60001,241.63109C213.4996,241.79968 214.10266,242.23891 214.8,242.93092C215.50269,243.62823 215.97456,244.15736 216.7,244.82959C217.28046,245.36748 218.22235,245.61685 218.936,246.05626C219.70857,246.53195 220.60439,246.54224 221.5,246.63092C222.3457,246.71466 222.60291,247.56183 223.07466,248.20558C223.6011,248.92397 223.5,249.93092 223.5,250.82959C223.5,251.68359 223.06575,252.86333 223.66667,253.46425C224.26759,254.06517 225.3,253.63332 226.25717,253.63092C227.15718,253.62866 227.92259,253.64206 228.89867,253.34692C229.6823,253.10997 230.67191,252.86537 231.5,252.46425C232.12646,252.1608 232.5,251.27826 232.5,250.29759C232.5,249.48158 232.5,248.58275 232.5,247.63092C232.5,246.83092 232.87143,245.82968 232.464,245.06693C232.07385,244.33652 230.99486,244.11537 230.40016,243.53108C229.77994,242.92171 229.00424,242.49319 228.35066,242.02025C227.53085,241.42702 227.26674,240.53923 226.7955,239.87375C226.28716,239.15585 225.9653,238.41124 225.30133,237.51759C224.82936,236.88237 224.14284,236.27376 223.5,235.63092C222.85716,234.98808 222.21074,234.34947 221.69867,233.82959C221.01556,233.13606 220.55267,232.33542 220.07466,231.65625L219.51067,231.05626" id="svg_3" stroke-width="3" stroke="#000" fill="none"/>
  <path t="6501,6582,6615,6633,6648,6665,6682,6698,6698,6716,6716,6733,6765,6782,6798,6815,6832,6848,6866,6866,6883,6915,6933,6949,6998,7016,7033,7065,7098,7115,7165,7183,7215,7233,7266,7283,7315,7365,7399,7432,7448,7465,7498,7515,7533,7565,7597,7664,7699,7715,7716,7747,7764,7797,7814,7864,7881,7914,7948,7982,7998,8033,8048,8065,8117,8137,8150,8182,8198,8199,8215,8233,8248,8265,8282,8299,8299,8316,8347" d="M235.5,193.63092C234.92534,194.20558 234.5,194.19492 234.5,193.33092C234.5,192.43092 234.18102,191.33318 234.78534,190.71492C235.39355,190.09268 236.22141,189.88362 236.7,189.14825C237.11911,188.50429 237.78882,187.6562 238.72133,187.63092C239.55434,187.60834 240.06062,188.29596 240.8,188.92642C241.55321,189.56868 242.28481,189.89391 242.66667,190.63092C243.0573,191.38487 243.35625,192.27113 243.85266,192.98358C244.35555,193.70532 244.98703,194.41028 245.78534,194.63092C246.66566,194.87424 247.584,194.63092 248.47467,194.63092C249.37866,194.63092 250.216,194.63092 251.11067,194.63092C251.97917,194.63092 252.59489,195.18977 253.44733,195.57375C254.25684,195.93839 255.20328,195.54166 255.92534,196.05626C256.62085,196.55194 256.98526,197.15652 257.66666,197.63092C258.37137,198.12155 259.30133,197.63092 260.33334,197.63092C261.11066,197.63092 262.064,197.63092 262.92532,197.63092C263.85266,197.63092 264.784,197.63092 265.66666,197.63092C266.5,197.63092 267.30063,197.59471 268.33334,197.63092C269.14883,197.65952 269.63452,198.18111 270.216,198.63092C270.76132,199.05276 271.19467,199.86687 271.5,200.71625C271.80942,201.577 271.72339,202.53993 271.5,203.34692C271.27933,204.14403 270.41599,204.71492 269.85266,205.27826C269.14734,205.98358 268.57532,206.71773 267.92532,207.20558C267.21127,207.7415 266.36163,208.017 265.70001,208.34692C264.85663,208.76749 263.88022,208.62869 263.10001,209.05626C262.27859,209.50639 261.43866,209.66692 260.63867,210.05626L259.98267,210.34692L259.04166,210.61009L258.07468,210.63092" id="svg_4" stroke-width="3" stroke="#000" fill="none"/>
  <path t="8765,8848,8864,8897,8914,8931,8931,8948,8964,8964,8964,8981,8981,8997,9015,9032,9032,9047,9064,9064" d="M265.5,198.63092C265.5,197.78026 265.49918,196.4576 264.92532,196.66692C264.13724,196.95438 264.5,198.28358 264.5,199.14693C264.5,200.01625 264.47672,200.96481 264.51068,201.88159C264.53827,202.62653 264.71732,203.7086 265.2045,204.32191C265.7323,204.98634 266.59387,205.57004 267.5,205.63092C268.29819,205.68456 269.10001,205.52292 269.69867,204.77759L269.97916,204.11009" id="svg_5" stroke-width="3" stroke="#000" fill="none"/>
  <path t="9939,10031,10031,10065,10081,10189,10199,10199,10231,10232" d="M250.5,197.63092C249.79466,197.98358 248.8006,198.20052 248.5,199.06693C248.21826,199.87894 248.7215,200.63075 249.59984,200.40959L250.21466,199.91492L249.79466,199.63092L249.06799,199.63092" id="svg_6" stroke-width="3" stroke="#000" fill="none"/>
  <path t="11214,11297,11297,11314,11315,11331,11331,11331,11348,11348,11348,11348,11364,11364,11364,11364,11364,11364,11381,11381,11381,11381,11397,11397,11397,11415,11415,11415,11415,11446,11447,11447,11447,11447,11447,11498,11499,11499,11499,11499,11499,11499,11515,11515,11515,11516,11516,11516,11516,11531,11531,11531,11548,11548,11565,11565,11581,11581,11598,11599,11615,11632,11648,11665,11681,11681,11700,11700,11715,11715,11732,11749,11767,11767,11781,11798,11815,11831,11831,11831,11849,11865,11881,11881,11898,11915,11931" d="M155.5,212.63092C155.78667,213.26025 156.36121,212.78613 157.16167,212.33092C157.93916,211.88876 158.91884,211.52359 159.73599,211.23093C160.30885,211.02576 161.50056,210.63258 162.10266,210.42958C163.04256,210.11269 163.71692,209.88072 164.83333,209.46425C165.66997,209.15215 166.10533,208.97826 167,208.63092C167.89467,208.28358 168.32903,208.10695 169.55701,207.65242C170.28392,207.38336 171.27824,207.0403 171.89734,206.83226C173.09917,206.42842 173.7,206.23093 174.60001,205.93092C175.5,205.63092 176.41115,205.32312 177.0625,205.13092C177.76904,204.92244 178.99899,204.62611 179.95599,204.42958C180.47098,204.32382 181.56284,204.11177 182.132,203.99492C182.71385,203.87546 184.50085,203.46753 185.10001,203.30975C185.70087,203.15154 186.29848,202.97716 187.5,202.65175C188.09926,202.48946 188.69006,202.28963 190.5,201.96425C191.09671,201.85698 191.69463,201.78355 192.868,201.70293C193.43697,201.66383 194.52847,201.63725 195.04401,201.63359C196.43513,201.62372 197.2195,201.63092 198.196,201.63092C199.16667,201.63092 199.99585,201.59145 200.8215,201.85225C201.73386,202.14044 202.50034,202.4624 203.28934,202.60559C204.33377,202.79514 205.02786,203.3755 205.89999,203.59492C206.76933,203.81364 207.34691,204.21977 208.04167,204.63092C208.73917,205.04369 209.65413,205.26865 210.616,205.54692C211.3712,205.7654 212.13522,206.0282 213.01601,206.34692C213.84967,206.64861 214.60721,207.08386 215.5,207.46425C216.25154,207.78445 217.2271,207.44479 218.10001,207.66692C218.97606,207.88985 219.64917,208.66217 220.32533,209.02025C221.00003,209.37755 222.01326,209.5603 222.8,209.98358C223.6432,210.43723 224.38533,210.62959 225.31467,210.64159L226.16667,210.79759L226.72133,211.50941" id="svg_7" stroke-width="3" stroke="#000" fill="none"/>
  <path t="12470,12597,12615,12615,12615,12630,12630,12630,12630,12648,12648,12648,12649,12665,12665,12666,12681,12681,12698,12698,12716,12730,12730,12748,12748,12764,12765,12780,12780,12798,12815,12815,12815,12831,12831,12847,12848,12880,12880,12897,12897,12897,12915,12915,12931,12931,12931,12948,12949,12965,12981,12981,12999,13015,13064,13080,13130,13147,13164,13180,13180,13197,13197,13215,13215,13230,13230,13248,13264,13264,13281,13281,13297,13314,13330,13347,13347,13364,13364,13380,13430,13480,13480,13497,13497,13516,13516,13530,13547,13547,13564,13581,13581,13597,13597,13614,13614,13630,13630,13648,13648,13664,13680,13697,13714,13731,13764,13797,13797,13814,13814,13830,13830,13847,13864,13880,13880,13897,13930,13930,13948,13964,13981,13998,14015,14049,14066,14082,14098,14115,14148,14165,14198,14216,14232,14248,14264,14265,14280,14297,14315,14330,14364,14848,15014,15064,15130,15197,15230,15247,15264,15297" d="M155.5,213.63092C155.5,214.44975 155.48732,215.4034 155.52083,216.19342C155.54645,216.79764 155.70975,218.15453 155.85716,218.88359C156.00879,219.63345 156.19345,220.38132 156.5,221.46425C156.69305,222.14626 156.98186,223.09583 157.3,223.94426C157.67859,224.95387 157.9957,225.6122 158.3,226.22958C158.79305,227.22989 159.17229,227.99239 159.69867,228.74559C160.18947,229.44788 160.48755,230.31575 161.06934,231.11491C161.47287,231.66924 162.33333,232.46425 162.864,232.99492C163.5,233.63092 164.10001,234.23093 164.8,234.93092C165.3,235.43092 166.02083,236.15175 166.66667,236.79759C167.15266,237.28358 167.84734,237.97826 168.4785,238.60942C169.08934,239.22025 169.7403,240.03416 170.38533,240.34558C171.28471,240.7798 172.2058,240.75351 172.92117,241.07375C173.73996,241.44028 174.50671,241.96048 175.35716,242.60942C175.99194,243.0938 176.65553,243.65018 177.336,244.03091C178.08961,244.45259 179.07771,244.96759 179.84283,245.27376C180.72493,245.62674 181.55083,245.93176 182.2,246.27826C183.04938,246.73161 184.06195,246.4599 184.784,246.91492C185.57227,247.41167 185.55905,248.33437 186,249.13092C186.44476,249.93437 186.5,250.79759 186.5,251.63092C186.5,252.60959 186.5,253.38359 186.5,254.28809C186.5,255.03542 186.5,256.02957 186.5,256.97375C186.5,257.87827 186.57362,258.80267 186.47917,259.63092C186.366,260.62329 185.69983,261.27927 185.52083,262.13092C185.33565,263.0119 185.5,263.93542 185.5,264.79758C185.5,265.63092 185.5,266.60941 185.5,267.4296C185.5,268.34558 185.34254,269.34839 185.94299,269.85226C186.59778,270.40173 187.70229,270.49469 188.47917,270.63092C189.33636,270.78122 190.07217,271.24246 190.89999,271.60559C191.68661,271.95065 192.36363,272.4527 193.32533,272.59491C194.32312,272.74246 195.12581,272.60388 195.98399,272.63226C196.84866,272.66086 197.71558,273.06641 198.46933,273.34692C199.24066,273.63397 200.24928,273.62558 201.16667,273.63092C202.07864,273.63623 203,273.63092 203.89999,273.63092C204.8,273.63092 205.69867,273.63092 206.55267,273.63092C207.44733,273.63092 208.33316,273.4642 208.584,272.74426C208.85248,271.97369 209.23039,271.24509 209.41467,270.23224C209.55231,269.47571 209.57822,268.38449 209.49983,267.53091C209.41614,266.61948 208.84468,265.82358 207.936,265.64157C207.07422,265.46896 206.31467,265.63092 205.25717,265.63092C204.39999,265.63092 203.5,265.63092 202.584,265.63092C201.784,265.63092 201.07454,265.18881 200.30133,264.7149C199.56239,264.26199 198.91869,263.69122 198.51067,263.05624C198.04649,262.33389 197.50534,261.60565 197.5,260.7149C197.49529,259.92642 197.5,259.03091 197.5,258.11008C197.5,257.14691 197.5,256.45624 197.5,255.38809C197.5,254.53108 197.5,253.60559 197.5,252.82959C197.5,251.79759 198.14734,251.63092 199.07466,251.63092C199.92534,251.63092 200.85266,251.63092 201.784,251.63092C202.66667,251.63092 203.52533,251.63092 204.30133,251.63092L205.33333,251.63092" id="svg_8" stroke-width="3" stroke="#000" fill="none"/>
  <path t="15945,16014,16030,16030,16047,16064,16064,16064,16080,16080,16080,16098,16098,16114,16115,16133,16164,16165,16180,16180,16197,16197,16215,16231,16231,16247,16264,16280,16298,16299,16314,16332,16348,16365,16381,16381,16398,16415,16431,16447,16464,16480,16498,16514,16530,16547,16580,16597,16614,16630,16647,16647,16665,16680,16697,16714,16747,16765,16781,16797,16830,16847,16914,16964,16981,16998,17015,17030,17065,17081,17115,17147,17181,17215,17230,17249,17269,17281,17301,17316,17332,17347,17366,17381" d="M180.5,220.63092C181.26167,220.63092 182.17233,220.74588 183.01601,220.54559C183.92421,220.32999 184.82867,219.76344 185.50983,219.68808C186.28201,219.60265 187.33444,219.59476 188.26401,219.64159C189.10094,219.68375 189.92557,219.8591 190.664,220.24159C191.65657,220.75572 192.21136,221.23822 193.10001,221.65625C193.92671,222.04514 194.38567,222.51726 195.15266,223.28358C195.6749,223.80536 196.42821,224.66794 196.97917,225.08925C197.73999,225.67102 198.65501,226.04109 198.97917,226.65175C199.46564,227.56813 199.85674,228.24318 200.416,228.91626C200.972,229.58542 201.33623,230.39949 201.48933,231.23093C201.65242,232.11658 202.04318,232.83423 202.37849,233.73093C202.69658,234.58156 202.48201,235.43111 202.5,236.33092C202.51801,237.23146 203.14894,237.88487 203.49867,238.71492C203.81215,239.45891 204.02725,240.4039 204.33333,241.29759C204.58838,242.04231 204.43071,242.98653 205,243.61009C205.45721,244.1109 206.0508,244.57104 206.8,244.98358C207.6387,245.44539 208.47174,245.84262 209.10001,246.20558C209.94568,246.69415 210.50459,247.23648 211.2045,247.68359C211.95836,248.16518 212.73378,248.48471 213.59984,248.63109C214.45186,248.7751 214.89534,249.34746 215.784,249.63225C216.54713,249.87682 216.71336,250.93956 216.49983,251.85225C216.31645,252.63606 215.3,252.63092 214.40016,252.63092C213.5,252.63092 212.584,252.63092 211.784,252.63092C210.85266,252.63092 210,252.63092 209.07466,252.63092C208.14284,252.63092 207.3,252.63092 206.40016,252.63092C205.5,252.63092 204.69867,252.63092 203.8,252.63092C202.89999,252.63092 202,252.63092 201.10001,252.63092L200.2045,252.62642L199.536,252.20558" id="svg_9" stroke-width="3" stroke="#000" fill="none"/>
  <path t="18098,18247,18263,18280,18280,18299,18299,18316,18316,18331,18348,18348,18365,18365,18382,18399,18415,18415,18415,18432,18465,18483,18483,18498,18531,18548,18548,18565,18581,18614,18631,18648,18648,18664,18682,18698,18714,18730,18730,18747,18764,18798,18815" d="M178.5,225.63092C178.5,226.43225 178.46634,227.26762 178.5045,228.28809C178.5325,229.03674 178.79099,230.02696 179.07466,230.79492C179.42465,231.74243 179.55969,232.44537 180.11067,233.26692C180.57971,233.96629 180.95876,234.65709 181.5,235.46425C182.0253,236.24763 182.36099,237.1315 182.94667,237.61626C183.70703,238.24557 184.27324,238.54982 185.01601,239.06291C185.90407,239.67638 186.68504,240.07909 187.5,240.46425C188.14964,240.77127 188.93787,240.87631 189.66667,241.46425C190.36523,242.02779 191.10266,242.23891 191.7955,242.92642C192.41705,243.5432 193.02652,244.12125 193.8,244.58275C194.6059,245.06358 195.14348,245.5629 195.464,246.56958C195.7283,247.39967 196.06198,248.09929 196.44733,248.93092C196.8513,249.80278 197.216,250.43092 197.4955,251.33092L197.5,252.27376L197.85266,252.98358L198.4955,253.68359" id="svg_10" stroke-width="3" stroke="#000" fill="none"/>
  <path t="22917,22980,22997,22997,23013,23013,23031,23047,23047,23047,23064,23064,23064,23080,23080,23097,23097,23113,23130,23130,23147,23147,23147,23164,23181,23197,23215,23230,23247,23298,23348,23363,23397,23414,23414,23430,23447,23447,23463,23480,23497,23514,23531,23548,23564,23564,23581,23581,23598,23598,23614,23632,23648,23648,23664,23664,23664,23681,23682,23682,23698,23699,23714,23714,23732" d="M119.5,212.63092C120.04166,213.15175 120.79946,213.77286 121.5,214.11009C122.45231,214.56853 123.29873,214.54445 124,215.17259C124.73307,215.82921 124.99966,216.68529 125.47066,217.23225C126.20645,218.08672 126.74945,218.42189 127.49467,218.97375C128.35559,219.61131 128.96349,220.10483 129.7,220.83092C130.20355,221.32735 131.02293,221.97762 131.33333,222.79759C131.64142,223.6115 131.61299,224.65132 131.936,225.42026C132.25055,226.16901 132.72359,226.97861 133.59984,227.50958C134.32753,227.95055 134.83154,228.48807 135.47467,229.05626C136.04674,229.56168 136.97749,229.32878 137.85266,229.63542C138.60651,229.89955 138.34705,231.05817 138.78534,231.83092C139.17577,232.51927 139.98529,233.14601 140.60001,233.73076C141.18633,234.2885 142.09996,234.62558 143,234.63092C143.89998,234.63625 144.8,234.63092 145.7,234.63092C146.60001,234.63092 147.5,234.63092 148.25717,234.63092C149.15717,234.63092 149.9045,234.63092 150.89867,234.63092C151.84283,234.63092 152.74283,234.63083 153.7,234.63092C154.60033,234.63101 155.32278,234.65521 156.26933,234.91626C157.02852,235.12564 157.81944,235.42702 158.81599,235.82959C159.50146,236.10649 160.17332,236.40939 161.18266,236.54559C162.2318,236.68716 163.16667,236.63092 163.95833,236.63092L164.88933,236.62025" id="svg_11" stroke-width="3" stroke="#000" fill="none"/>
  <path t="24214,24298,24314,24331,24332,24348,24348,24348,24364,24364,24382,24382,24382,24399,24414,24414,24431,24431,24448,24465,24498,24515,24564,24581,24581,24598,24598,24598,24614,24614,24614,24614,24631,24631,24648,24648,24664,24664,24681,24681,24699,24715,24715,24716,24731,24749,24764,24781,24799,24800,24815,24832,24848,24865,24865,24898,24915,24931,24931,24948,24964,24982,24999,25014,25014,25031,25032,25048,25064,25064,25081,25098,25098,25115,25116" d="M125.5,214.63092C125.41467,213.82959 124.98444,213.12576 124.29867,212.42958C123.74704,211.86957 123.02493,211.13606 122.47916,210.63092C121.90916,210.10335 121.11416,209.49153 120.3,209.04158C119.51295,208.60661 118.69047,208.26555 117.98534,207.83092C117.09784,207.28387 116.34185,206.73547 115.5,206.65175C114.67049,206.56926 113.8045,206.63092 112.9,206.63092C111.936,206.63092 110.25678,206.48514 110.536,205.66692C110.77229,204.9745 112.1504,205.24591 112.74667,205.05626C113.90311,204.68843 114.73683,204.66496 115.31067,204.60559C116.50201,204.48232 117.39593,204.27992 117.97916,204.13092C118.81528,203.91731 120.04171,203.66826 120.68933,203.64159C121.6992,203.59999 122.5,203.63092 123.5,203.63092C124.28934,203.63092 125.33361,203.60918 126.1955,203.63092C127.02162,203.65176 127.82398,204.07039 128.5,204.63092C129.01805,205.06047 130.09004,205.42987 130.7955,205.98808C131.536,206.57401 131.77344,207.39619 132.5,207.79759C133.27267,208.22447 133.88483,208.87289 134.37866,209.73076C134.80319,210.46823 135.62619,210.82117 136.21466,211.34692C136.88918,211.94955 137.66548,212.35428 138.5,212.79759C139.1339,213.13434 139.32007,214.23946 139.85716,214.92642C140.43877,215.67032 141.23088,215.96034 141.83333,216.63092C142.27174,217.11893 143.32185,217.53745 144.08934,217.62025C145.01552,217.72018 145.98399,217.63237 146.67467,217.63092C147.74733,217.62866 148.66667,217.46425 149.32533,217.20558L150.33333,216.79759L151.05333,216.64159" id="svg_12" stroke-width="3" stroke="#000" fill="none"/>
  <path t="26554,26681,26698,26715,26731,26731,26746,26747,26763,26763,26780,26780,26796,26813,26813,26813,26831,26831,26831,26846,26846,26863,26863,26880,26896,26913,26913,26980,26997,27017,27033,27047,27047,27047,27064,27064,27064,27082,27082,27098,27098,27115,27115,27115,27131,27131,27147,27147,27164,27164,27164,27182,27182,27197,27197,27215,27232,27232,27247,27265,27265,27281,27282,27297,27315,27315,27331,27332,27347,27364,27381,27398,27398,27414,27431,27447,27464,27482,27497,27497,27515,27547,27547,27564,27597,27632,27648,27681,27730,27781,27797,27815,27847,27864,27881,27915,27931,27932,27947,27965,27966,27966,27981,27997,27998,28014,28031,28031,28047,28047,28064,28064,28082,28082,28097,28098,28098,28114,28115,28132,28148,28148,28166,28166,28181,28182,28199,28217,28232,28248,28264" d="M178.5,276.63092C177.69867,276.63092 176.8,276.63019 175.864,276.63092C175.01466,276.63159 174.27161,276.58936 173.30017,276.85226C172.50125,277.06848 171.52762,277.56387 170.74733,277.62643C169.85017,277.69836 168.93784,277.6196 168.12534,278.06693C167.27359,278.53586 166.67271,279.07367 166.03833,279.27374C164.84509,279.65009 164.01128,279.56888 163.26933,279.7149C162.29048,279.90756 161.64265,280.47412 160.84734,280.92642C160.17223,281.31036 159.12839,281.51364 158.3,281.63226C157.38301,281.76355 156.2431,282.36078 156.536,283.2056C156.80519,283.98206 157.80952,284.25183 158.70134,284.54559C159.6218,284.84879 160.35191,284.59637 161.18666,284.71625C162.19327,284.86081 162.99365,285.15649 163.81599,285.34692C164.80798,285.57666 165.68944,285.61258 166.7,285.63107C167.50014,285.64572 168.50507,285.78195 169.10001,285.98358C169.90742,286.25723 170.8976,286.57858 171.7,286.62024C172.69872,286.67209 173.5,286.63092 174.5,286.63092C175.3,286.63092 176.10001,286.63092 177.10001,286.63092C177.89999,286.63092 178.89867,286.63092 179.664,286.63092C180.74283,286.63092 181.60017,286.63092 182.38533,286.63092C183.32533,286.63092 184.33333,286.63092 185.12534,286.63092C185.98399,286.63092 186.84734,286.63092 187.74733,286.63092C188.66667,286.63092 189.50131,286.68146 190.4785,286.63077C191.30197,286.58807 192.03773,285.88614 192.89999,285.66693C193.77315,285.44498 194.62404,285.43784 195.2,284.92642C195.93227,284.27618 196.69698,283.67365 197.59984,283.63092C198.47369,283.58957 199.27435,283.60956 200.15266,283.27826C200.85869,283.01193 201.92564,282.84149 202.7215,282.40958C203.39137,282.04602 204.16432,281.8299 205.07466,281.63092C205.90915,281.44852 206.58365,280.71179 207.07466,280.05624C207.6062,279.34656 207.5,278.40942 207.5,277.5311C207.5,276.63092 207.46707,275.82626 206.7955,275.57376C205.96027,275.25974 205.21326,274.64221 204.33333,274.63092C203.52063,274.62048 202.78632,274.15524 202,273.79758C201.27412,273.46741 200.26666,273.63159 199.31433,273.63092C198.39983,273.63028 197.61154,273.69766 196.67467,273.62024C195.65814,273.53625 195.04831,273.00055 194.1785,272.75241C193.31683,272.50659 192.30017,272.63092 191.52083,272.63092C190.66667,272.63092 189.83867,272.63092 188.95717,272.63092C187.97917,272.63092 187.18266,272.63092 186.18666,272.63092C185.34666,272.63092 184.38533,272.63092 183.5,272.63092C182.74283,272.63092 181.84283,272.63092 180.89867,272.63092C179.9045,272.63092 179.15717,272.63092 178.136,272.63092C177.3,272.63092 176.40016,272.63107 175.584,272.91492L175.07466,273.59491" id="svg_13" stroke-width="3" stroke="#000" fill="none"/>
  <path t="36129,36213,36347,36363,36396,36429,36463,36479,36498,36530,36564,36597,36631,36664,36697,36730,36914,36947,36964,36996,37013,37030,37064,37097,37129,37146,37163,37179,37212" d="M260.5,208.63092C260.5,207.75243 259.7955,207.63092 258.85718,207.63092C258,207.63092 257.07468,207.63092 256.21466,207.63092C255.30133,207.63092 254.41191,207.54567 253.52533,207.63092C252.65466,207.71465 252.47792,208.58353 251.58533,208.63092C250.78059,208.67365 249.59291,208.75552 249.62151,209.63092C249.64091,210.2251 251.11069,209.62602 251.97917,209.63092C252.92538,209.63626 253.37587,210.36296 254.14734,210.62642C255.02492,210.9261 255.92534,210.63019 256.85718,210.63092C257.69867,210.63159 258.44733,210.98358 259,211.61009L259.92532,211.63092" id="svg_14" stroke-width="3" stroke="#000" fill="none"/>
  <path t="53925,54013,54031,54047,54063,54064,54079,54080,54095,54095,54095,54112,54112,54129,54129,54129,54129,54145,54146,54146,54162,54163,54163,54179,54179,54180,54195,54195,54195,54195,54213,54213,54229,54229,54229,54230,54245,54246,54301,54301,54314,54315,54315,54315,54331,54331,54331,54346,54347,54347,54347,54363,54364,54364,54364,54379,54380,54380,54380,54395,54396,54396,54396,54412,54412,54412,54430,54430,54430,54445,54445,54445,54462,54463,54463,54479,54479,54479,54496,54496,54497,54512,54513,54513,54529,54530,54530,54546,54546,54547,54563,54563,54563,54579,54579,54579,54597,54598,54598,54613,54613,54613,54613,54614,54629,54629,54630,54645,54646,54646,54646,54662,54663,54663,54680,54680,54680,54695,54695,54696,54696,54713,54713,54729,54729,54730,54746,54747,54762,54762,54763,54779,54796,54796,54813,54830,54846,54964,54980,54996,55013,55013,55013,55030,55030,55046,55046,55046,55063,55063,55080,55080,55095,55095,55113,55113,55130,55130,55146,55146,55146,55163,55163,55181,55196,55196,55196,55213,55214,55230,55230,55230,55246,55246,55263,55263,55280,55280,55280,55296,55296,55296,55313,55330,55330,55347,55347,55363,55380,55380,55396,55413,55430,55430,55446,55446,55463,55463,55480,55480,55496,55496,55496,55513,55513,55513,55530,55530,55530,55547,55547,55563,55564,55581,55581,55582,55596,55596,55614,55614,55630,55630,55631,55646,55646,55646,55664,55681,55681,55682,55696,55696,55697,55713,55714,55731,55732,55747,55747,55748,55763,55763,55764,55780,55781,55797,55798,55798,55813,55813,55814,55830,55831,55847,55848,55848,55863,55864,55864,55880,55881,55896,55897,55897,55913,55913,55931,55932,55932,55946,55947,55963,55964,55981,55982,55996,55997,56014,56015,56015,56030,56031,56031,56046,56047,56047,56064,56065,56065,56080,56081,56096,56098,56098,56114,56114,56115,56115,56131,56131,56132,56148,56148,56148,56163,56164,56164,56181,56182,56182,56196,56196,56197,56197,56197,56213,56213,56214,56231,56232,56232,56233,56247,56248,56249,56249,56265,56265,56266,56281,56281,56281,56282,56296,56297,56297,56313,56314,56315,56330,56332,56332,56348,56349,56349,56364,56365,56381,56381,56396,56397,56414,56430,56430,56431,56447,56448,56466,56466,56481,56481,56481,56482,56497,56498,56498,56517,56517,56518,56530,56531,56531,56547,56548,56548,56549,56565,56565,56566,56566,56580,56582,56582,56597,56598,56598,56613,56614,56614,56631,56631,56647,56648,56648,56663,56664,56680,56697,56698,56714,56715,56730,56731,56747,56764,56781,56796,56814,56830,56831,56848,56849,56849,56864,56865,56865,56866,56866,56880,56880,56881,56881,56881,56897,56897,56898,56898,56898,56915,56915,56916,56916,56916,56930,56931,56931,56932,56933,56947,56947,56948,56948,56948,56964,56965,56965,56981,56981,56981,56998,56999,56999,57014,57031,57048,57146,57146,57164,57182,57183,57198,57199,57200,57214,57215,57231,57232,57247,57247,57247,57266,57266,57282,57283,57297,57298,57298,57315,57335,57335,57336,57350,57351,57351,57369,57369,57383,57383,57384,57384,57398,57398,57399,57424,57449,57450,57450,57451,57465,57465,57466,57466,57467,57483,57483,57484,57484,57500,57500,57501,57530,57531,57531,57532,57547,57548,57548,57548,57565,57565,57582,57582,57597,57631,57646,57647,57680,57696,57697,57714,57730,57731,57732,57747,57747,57767,57767,57785,57786,57787,57799,57799,57816,57816,57835,57835,57849,57850,57850,57864,57865,57865,57884,57885,57885,57885,57898,57899,57899,57899,57900,57915,57915,57916,57932,57933,57950,57951,58030" d="M3.5,66.63092C4.11067,67.24158 4.52049,68.07578 5.37883,68.50942C6.12902,68.88844 7.05131,68.64172 7.88533,69.06692C8.49904,69.3798 9.50856,69.9342 10.02083,70.13092C10.81539,70.43603 11.79835,70.87704 12.72533,71.19492C13.6515,71.51251 14.45643,71.59025 15.31067,71.62025C15.90104,71.64099 17.09867,71.63092 17.97917,71.63092C18.81467,71.63092 19.81733,71.63092 20.52083,71.63092C21.26933,71.63092 22.46933,71.63092 23.16133,71.63092C23.88533,71.63092 25.33333,71.63092 26.01333,71.63092C26.95833,71.63092 27.53833,71.63092 28.816,71.63092C29.5,71.63092 30.66667,71.63092 31.45267,71.63092C32,71.63092 32.816,71.63092 34.04284,71.63092C34.8955,71.63092 35.90133,71.63092 36.52083,71.63092C37.66667,71.63092 38.45716,71.63092 39.31067,71.63092C39.90133,71.63092 41.10133,71.63092 42.02083,71.63092C42.65717,71.63092 43.66667,71.63092 44.75267,71.63092C45.5,71.63092 46.24734,71.62851 47.33333,71.63092C48.34734,71.63317 49.00149,71.63097 49.65267,71.68809C51.02587,71.80854 51.75267,71.98359 52.5,72.13092C53.24733,72.27825 54.33087,72.49004 55.34283,72.57375C55.97803,72.6263 56.89867,72.63025 58.09867,72.63092C58.68933,72.63125 59.5429,72.6422 60.57883,72.63075C61.521,72.62034 62.27357,72.57046 63.1425,72.40942C64.14571,72.22348 64.83752,72.08743 66,71.63092C66.65784,71.37259 67.3419,70.91399 68.26417,70.75242C69.17673,70.59255 69.85997,70.63625 71.16666,70.63092C71.73066,70.62862 72.71468,70.63364 73.66666,70.63092C74.45267,70.62867 75.28559,70.66448 76.33334,70.46426C77.05805,70.32577 77.93973,69.92035 78.9215,69.75242C79.72875,69.61434 80.60449,69.63317 81.5,69.63092C82.3955,69.62867 83.264,69.63092 84.33334,69.63092C85.04733,69.63092 85.95267,69.63092 86.92167,69.63092C87.74667,69.63092 88.34666,69.63215 89.66666,69.63092C90.384,69.63025 91.12585,69.63248 91.87466,69.59492C92.61671,69.55769 94.01608,69.35329 94.664,69.20559C95.59763,68.99275 96.49674,68.76627 97.4,68.68809C98.29784,68.61037 98.90009,68.64392 100.1,68.62959C101.00014,68.61884 101.60827,68.62574 102.8,68.40958C103.70801,68.24489 104.29114,68.01102 105.5,67.79758C106.09514,67.6925 106.98423,67.67141 107.81467,67.54692C108.8232,67.39573 109.67035,66.98396 110.7,66.75225C111.48941,66.57461 112.11022,66.5826 113.1045,66.27825C113.96714,66.01421 114.91875,65.72589 115.71467,65.66692C116.48869,65.60956 117.52934,65.63092 118.5,65.63092C119.3,65.63092 120.2,65.63092 121.1,65.63092C121.97916,65.63092 122.936,65.63092 123.8,65.63092C124.70133,65.63092 125.66666,65.63092 126.336,65.63092C127.10133,65.63092 128.10451,65.63092 128.95717,65.63092C129.92133,65.63092 130.72533,65.63092 131.54733,65.63092C132.57834,65.63092 133.45833,65.63092 134.47867,65.63092C135.25267,65.63092 136.15717,65.63092 136.9045,65.63092C137.89999,65.63092 138.7,65.63092 139.7,65.63092C140.5,65.63092 141.5,65.63092 142.3,65.63092C143.10001,65.63092 144.0955,65.63092 145.01466,65.63092C146.02083,65.63092 146.83333,65.63092 147.75067,65.63092C148.49466,65.63092 149.532,65.63092 150.30533,65.63092C151.26933,65.63092 152.02083,65.63092 152.81734,65.63092C154.04283,65.63092 154.68933,65.63092 155.7,65.63092C156.5,65.63092 157.5,65.63092 158.31067,65.63092C159.18533,65.63092 160.18266,65.63092 160.97917,65.63092C161.73067,65.63092 162.83867,65.63092 163.82133,65.63092C164.67467,65.63092 165.616,65.63092 166.384,65.63092C167.32533,65.63092 168.33333,65.63092 169.08934,65.63092C170,65.63092 170.91066,65.63092 171.82133,65.63092C172.67467,65.63092 173.616,65.63092 174.384,65.63092C175.336,65.63092 176.10133,65.63092 177.10451,65.63092C177.95717,65.63092 178.92133,65.63092 179.72533,65.63092C180.54733,65.63092 181.57867,65.63092 182.27467,65.63092C183.18401,65.63092 184.18401,65.63092 185,65.63092C185.81599,65.63092 186.81467,65.63092 187.68933,65.63092C188.7,65.63092 189.5,65.63092 190.5,65.63092C191.3,65.63092 192.10062,65.60031 193.10001,65.63542C193.90123,65.66357 194.89493,65.92928 195.7,66.20559C196.49524,66.47853 197.31017,66.61166 198.18533,66.62959C199.18245,66.65001 199.97917,66.63092 200.73067,66.63092C201.84933,66.63092 202.83333,66.63092 203.50983,66.63092C204.28534,66.63092 205.33333,66.63092 206.26401,66.63092C207.09866,66.63092 208.10001,66.63092 208.89999,66.63092C209.90134,66.63092 210.73599,66.63092 211.66667,66.63092C212.45267,66.63092 213.27467,66.63092 214.33333,66.63092C215.26401,66.63092 215.89549,66.63092 216.90134,66.63092C217.73599,66.63092 218.66667,66.63092 219.45267,66.63092C220.27467,66.63092 221.33333,66.63092 222.26401,66.63092C223.09866,66.63092 224.10451,66.63092 224.95717,66.63092C225.92133,66.63092 226.72533,66.63092 227.54733,66.63092C228.57851,66.63092 229.26401,66.63092 230.09866,66.63092C231.10451,66.63092 231.95717,66.63092 232.92133,66.63092C233.72533,66.63092 234.54733,66.63092 235.57851,66.63092C236.47917,66.63092 237.5,66.63092 238.3,66.63092C239.10001,66.63092 240.10001,66.63092 240.89999,66.63092C241.89999,66.63092 242.7,66.63092 243.69983,66.63092C244.47917,66.63092 245.47884,66.63092 246.30983,66.63092C247.27066,66.63092 248.04167,66.63092 248.90266,66.63092C249.8,66.63092 250.7,66.63092 251.60001,66.63092C252.5,66.63092 253.39549,66.63092 254.26401,66.63092C255.33333,66.63092 256.04285,66.63092 256.89551,66.63092C257.90134,66.63092 258.73599,66.63092 259.66666,66.63092C260.45715,66.63092 261.31067,66.63092 262.5,66.63092C263.10001,66.63092 264,66.63092 264.89999,66.63092C265.79999,66.63092 266.70001,66.63092 267.60001,66.63092C268.5,66.63092 269.39551,66.63092 270.26401,66.63092C271.33334,66.63092 272.04733,66.63092 272.95267,66.63092C273.92166,66.63092 274.74667,66.63092 275.34668,66.63092C276.66666,66.63092 277.384,66.63092 278.12534,66.63092C278.87466,66.63092 279.616,66.63092 281.01468,66.63092C281.664,66.63092 282.59549,66.63092 283.80017,66.63092C284.40451,66.63092 285.336,66.63092 285.98532,66.63092C287.02133,66.63092 288.12534,66.63092 288.87466,66.63092C289.616,66.63092 290.6785,66.63092 291.664,66.63092C292.28934,66.63092 293.50009,66.62093 294.39999,66.63542C295.00015,66.64509 295.90555,66.68353 296.79999,66.85225C297.70685,67.02331 298.59314,67.31536 299.5,67.46426C300.39026,67.61043 301.26398,67.62559 302.33334,67.63092C303.04733,67.63448 303.95267,67.63092 304.92117,67.63092C305.71466,67.63092 306.49017,67.63092 307.53067,67.63092C308.38266,67.63092 309.336,67.63092 310.10132,67.63092C311.09549,67.63092 311.84283,67.63092 312.88535,67.63092C313.83334,67.63092 314.50983,67.63092 315.28534,67.63092C316.57834,67.63092 317.25333,67.63092 318.33334,67.63092C319.04166,67.63092 320,67.63092 320.867,67.63092C321.54166,67.63092 322.25635,67.63092 323.67834,67.63092C324.33835,67.63092 325.25333,67.63092 326.33334,67.63092C327.04733,67.63092 327.95267,67.63092 328.92151,67.63092C329.73599,67.63092 330.60449,67.63092 331.5,67.63092C332.40451,67.63092 333.02084,67.631 333.98532,67.63092C335.02133,67.63084 335.75348,67.64794 336.87466,67.59492C337.61682,67.55982 338.68121,67.42329 339.33835,67.27825C340.25775,67.07533 341.32898,66.76389 342.04733,66.68809C342.94919,66.59292 343.92133,66.63092 344.72534,66.63092C345.54733,66.63092 346.57849,66.63092 347.47916,66.63092C348.5,66.63092 349.29999,66.63092 350.10001,66.63092C351.09549,66.63092 351.84283,66.63092 352.74734,66.63092C353.66666,66.63092 354.52084,66.63092 355.5,66.63092C356.28934,66.63092 357.33334,66.63092 358.08932,66.63092C359,66.63092 359.89999,66.63092 360.7955,66.63092C361.66934,66.63092 362.52084,66.63092 363.47882,66.63092C364.30984,66.63092 365.27335,66.63092 366.08334,66.63092C366.72333,66.63092 367.83334,66.63092 368.66934,66.63092C369.56134,66.63092 370.48532,66.63092 370.95184,66.63092C372.33334,66.63092 373.216,66.63092 374.07468,66.63092C374.92532,66.63092 375.784,66.63092 376.66666,66.63092C377.58401,66.63092 378.52533,66.63092 379,66.63092C379.94733,66.63092 381.33334,66.63092 382.21466,66.63092C383.064,66.63092 383.88934,66.63092 384.2955,66.63092C385.5,66.63092 386.30133,66.63092 387.11066,66.63092C387.936,66.63092 388.78534,66.63092 390.12115,66.63092C391.04816,66.63092 391.51468,66.63092 392.43866,66.63092C393.33066,66.63092 394.55682,66.63092 395.28116,66.63092C396.24268,66.63092 397.33334,66.63092 398.04733,66.63092C398.95267,66.63092 399.92117,66.63092 400.71466,66.63092C401.49017,66.63092 402.52933,66.63092 403.5,66.63092C404.37851,66.63092 405.20984,66.63092 406.01733,66.63092C407,66.63092 407.98532,66.63092 408.71066,66.63092C409.70016,66.63092 410.52084,66.63092 411.18533,66.63092C412.18268,66.63092 413.23868,66.63092 414.16666,66.63092C415,66.63092 416.04285,66.63092 416.76132,66.63092C417.55182,66.63092 418.57834,66.63092 419.45834,66.63092C420.33334,66.63092 421.16135,66.63092 422.04266,66.63092C423,66.63092 423.73199,66.63092 424.84933,66.63092C425.83334,66.63092 426.50983,66.63092 427.28534,66.63092C428.33334,66.63092 429.26401,66.63092 430.09866,66.63092C430.90268,66.63092 431.772,66.63092 432.83334,66.63092C433.46799,66.63092 434.5,66.63092 435.19467,66.63092C436.45685,66.63092 437.21735,66.63092 438.01199,66.63092C439.04166,66.63092 440,66.63092 440.87149,66.63092C441.5625,66.63092 442.31351,66.63092 443.5,66.63092C444.29999,66.63092 445.10001,66.63092 445.89999,66.63092C446.70001,66.63092 447.89966,66.63092 448.69101,66.63092C449.45834,66.63092 450.18567,66.63092 451.45734,66.63092C452.24933,66.63092 453.00534,66.63451 454.14301,66.63075C454.81433,66.62854 455.54266,66.6271 456.30899,66.57375C457.50214,66.4907 458.29855,66.36006 459.4375,66.13092C460.13016,65.99156 461.23099,65.70959 461.95834,65.65176C462.98099,65.57043 463.67465,65.63092 464.73834,65.63092C465.66666,65.63092 466.5,65.63092 467.29999,65.63092C468.33334,65.63092 469.20987,65.63594 470.01733,65.63092C470.87473,65.62559 471.81543,65.3929 472.54166,65.13092C473.18152,64.90009 474.4473,64.6694 475.23868,64.64159C476.16614,64.60899 477.00821,64.65098 477.83334,64.46426C478.77295,64.25164 479.54337,63.94216 480.57834,63.75225C481.24893,63.62921 482.32809,63.45355 483,63.13092C483.81549,62.73933 484.54153,62.64456 485.66666,62.63092C486.45264,62.6214 487.28558,62.66448 488.33334,62.46425C489.05804,62.32576 489.7063,61.96775 490.92184,61.75242C491.74881,61.60592 492.38263,61.63731 493.07199,61.63225C494.24265,61.62366 495.10535,61.63092 496,61.63092C496.89465,61.63092 497.332,61.63092 498.92801,61.63092C499.61734,61.63092 500.53384,61.63092 501.57834,61.63092C502.25333,61.63092 503.33334,61.63092 504.13834,61.63092L504.85266,61.99258" id="svg_17" stroke-width="3" stroke="#000" fill="none"/>
 </g>
</svg>