<svg width="280" height="420" xmlns="http://www.w3.org/2000/svg" xmlns:svg="http://www.w3.org/2000/svg" xmlns:xlink="http://www.w3.org/1999/xlink">
 <!-- Created with SVG-edit - http://svg-edit.googlecode.com/ -->
 <g display="inline" class="layer">
  <title>Layer 1</title>
  <path t="0,113,121,210,249,289,321,383,383,452,473,481,529,569,617,617,648,665,697,713,753,753,785,785,825,865,905,921,969,986,994,1010,1041,1049,1089,1105,1122,1169,1194,1268,1296,1337,1337,1385,1484,1529,1697" d="M127.61111,276.61111C128.48978,276.61111 129.32712,276.61111 130.18578,276.61111C131.11111,276.61111 132.03644,276.61111 132.89511,276.61111C133.83244,276.61111 134.6992,276.69635 135.58578,276.61111C136.45645,276.5274 137.04683,275.92676 137.61128,275.38977C138.19307,274.8363 138.69553,274.33173 139.41245,273.89511C140.18654,273.42368 140.81895,273.05072 141.48978,272.38977C142.10472,271.78391 142.67349,271.31503 143.32712,270.89511C144.09807,270.39978 144.60689,269.88953 145.22177,269.5751C145.99687,269.17874 146.96352,269.07996 147.60661,268.55396C148.26601,268.01462 148.83705,267.8688 149.48978,267.38977C150.18573,266.87903 150.34435,266.05109 151.03644,265.64709C151.77872,265.21381 152.61418,265.21454 153.18578,264.62177C153.65646,264.13364 154.34889,263.9733 155.11111,263.59027C155.82483,263.23163 155.80296,262.21863 156.32712,261.61246C156.7903,261.07681 156.61111,260.09027 156.61111,259.22177L156.61111,258.25845" id="svg_1" stroke-width="3" stroke="#000" fill="none"/>
  <path t="4560,4641,4658,4681,4697,4768,4859,4921,4953,4961,4977,5029,5049,5058,5073,5106,5137,5137,5179,5217,5249,5295,5329,5380,5380,5432,5449,5466,5497,5513,5537,5545,5569,5585,5601,5609,5625,5634,5665,5698,5729,5753,5903,5945,5962,6001,6033,6050,6058,6089,6097,6364,6422,6473,6752,6769,7232,7250,7299,7383,7425,7457,7513,7553,7815,7934,8040,8040,8296,8321,8337,8361,8401,8409,8473,8505,8529,8537,8570,8620,8840,8873,8897,8937,9002,9041,9057,9097,9121,9137,9204,9286,9322,9345,9399,9425,9471,9569,9617,9641,9688,9688,9753,9801,9817,9833,9889,9889,9929,9961,9986,10025,10066,10081,10113,10130,10145,10176,10193,10225,10241,10307,10338,10369,10393,10417,10433,10450,10481,10505,10540,10577,10639,10673,10721,10761,10777,10856,10873,10921,10974,11128,11248,12568,12592" d="M155.61111,258.61111C157.25844,258.61111 158.15694,258.5838 158.63194,258.11111C159.15581,257.58981 160.11111,257.61111 161.03644,257.61111C161.89644,257.61111 162.88374,257.31598 163.66377,257.66827C164.42732,258.01312 164.78745,259.07825 165.61111,259.44446C166.46208,259.82281 167.03061,260.26865 167.89511,260.61111C168.73022,260.94193 169.44641,261.10577 170.18578,261.64709C170.81194,262.10553 171.47238,262.6337 172.11111,263.11111C172.81419,263.63663 173.42592,264.1123 174.11111,264.59027C174.80203,265.07224 175.67776,265.23636 176.48961,265.61111C177.21384,265.94543 177.83261,266.61111 178.71094,266.61111C179.63644,266.61111 180.05907,267.11908 180.69644,267.60977C181.4212,268.16776 182.48994,267.59454 183.31561,267.61111C184.21165,267.62912 184.9091,268.16992 185.69511,268.60977C186.46268,269.03931 187.00546,269.33078 187.89511,269.61246C188.66774,269.85709 189.13176,270.60068 190.00044,270.61111C190.89638,270.62186 191.82173,270.46616 192.69511,270.61111C193.56239,270.75507 193.99084,271.83954 194.89511,271.60977C195.67177,271.41241 195.61111,270.32712 195.61111,269.38977C195.61111,268.55844 195.82607,267.672 196.69511,267.61111C197.60887,267.54709 198.48978,267.61111 199.32712,267.61111C200.25844,267.61111 201.11111,267.61111 202.03644,267.61111C202.96378,267.61111 203.9677,268.13397 203.38977,268.61111C202.78673,269.10898 202.0498,269.15833 201.61111,269.77777C201.09904,270.50082 201.58102,271.5863 201.61111,272.44446C201.63971,273.25995 202.52737,273.76541 202.61111,274.61111C202.70137,275.52264 202.93393,275.95673 203.55394,276.6156C204.1423,277.24084 204.44308,277.9588 204.96378,278.55844C205.51154,279.18924 205.61111,279.96378 205.61111,280.89511C205.61111,281.77777 205.61111,282.66379 205.61111,283.58578C205.61111,284.44446 205.61111,285.32712 205.61111,286.18579C205.61111,287.11111 205.18579,287.6218 204.62178,288.18579C204.18579,288.62177 203.44884,289.01801 202.89511,289.60977C202.39433,290.14493 201.68272,290.22943 200.96378,290.61111C200.35101,290.93643 199.89511,291.61044 198.96378,291.61111C198.11111,291.61172 197.52777,292.18878 196.64711,292.5751C195.85031,292.92462 194.839,292.18112 194.03644,292.64709C193.3434,293.04947 192.96378,293.61111 192.11111,293.61111C191.17511,293.61111 190.31561,293.61111 189.38977,293.61111C188.52711,293.61111 187.61111,293.61111 186.73244,293.61111C185.89511,293.61111 184.96378,293.61111 184.11111,293.61111C183.18578,293.61111 182.25844,293.61111 181.38977,293.61111C180.52711,293.61111 179.61111,293.61111 178.73244,293.61111C177.89511,293.61111 176.96378,293.61111 176.11111,293.61111C175.18578,293.61111 174.25844,293.61111 173.38977,293.61111C172.52711,293.61111 171.61111,293.61111 170.73244,293.61111C169.89511,293.61111 169.00044,293.61111 168.13194,293.61111C167.18578,293.61111 166.25844,293.6066 165.63644,293.18579L165.03644,292.62177L164.11111,292.61111L163.25844,292.61111" id="svg_2" stroke-width="3" stroke="#000" fill="none"/>
  <path t="14232,14407,14407,14451,14472,14480,14504,14520,14566,14625,14640,14664,14688,14737,14769,14784,14808,14817,14866,14912,14929,14953,14999,15025,15067,15113,15153,15169,15201,15209,15233,15257,15265,15305,15314,15338,15338,15361,15377,15393,15417,15425,15441,15473,15497,15505,15537,15569,15585,15593,15602,15618,15657,15718,15753,15848,15902,15929,15961,15985,16001,16017,16041,16057,16072,16082,16105,16113,16137,16161,16186,16217,16225,16257,16303,16384,16452,16489,16497,16536,16536,16561,16625,16670,16728,16912,16937,16961,16977,17017,17070,17160,17209,17405,17487,17521,17572,17601,17655,17786,17838,17897,17905,18018,18090,18153,18184,18287,18392,19064,19384,19417,19952,20217,20226,20341,20385,20584,20656,20689,20745,20793,20861,20897,20968,21015,21062,21121,21232,21280,21313,21353,21385,21409,21463,21514,21561,21649,21712,21753,21829,21849,21915,21977,22032,22097,22129,22161,22225,22352,22400,22441,22489,22549,22549,22632,22657,22689,22729,22777,22833,22881,22934,22961,22977,22994,23002,23033,23057,23128,23145,23178,23193,23193,23241,23281,23350,23401,23433,23482,23490,23538,23633,23673,24024,24024" d="M127.61111,276.61111C127.61111,277.41245 127.61111,278.32578 127.61111,279.22177C127.61111,280.11111 127.40266,281.08646 127.83244,281.83243C128.2964,282.63773 128.6053,283.25848 128.61111,284.18579C128.61646,285.0365 129.1889,285.63452 129.60977,286.32712C130.03964,287.03452 130.56412,287.77905 130.61111,288.63644C130.65384,289.41595 131.25713,290.14041 131.61562,290.96826C131.96797,291.78198 132.16809,292.64786 132.66827,293.25845C133.20853,293.91794 133.52969,294.30887 134.03644,295.03644C134.53659,295.75458 135.024,296.37735 135.55394,296.96378C136.04533,297.50757 136.59302,298.03592 136.61111,298.96378C136.62805,299.83228 137.23282,300.26935 137.61111,300.89645C138.08356,301.67963 137.89404,302.53522 138.32712,303.32578C138.72835,304.0582 139.16997,304.70602 139.55394,305.55844C139.91858,306.36798 140.34918,306.99475 140.61111,307.83243C140.86858,308.65579 140.61111,309.58578 140.61111,310.41245C140.61111,311.32578 141.22989,311.95346 141.52577,312.8111C141.82056,313.66556 142.15887,314.27917 142.55394,314.96378C143.02031,315.77194 142.61111,316.77777 142.61111,317.63644C142.61111,318.55844 142.59532,319.44461 142.61111,320.25845C142.62912,321.18631 143.43112,321.60986 143.61111,322.48978C143.77892,323.31012 144.30742,323.89032 144.61111,324.77777C144.88913,325.59018 144.61111,326.41245 144.61111,327.3111C144.61111,328.25394 144.61111,329.18579 144.61111,330.03644C144.61111,330.96378 144.49911,331.96893 144.96378,332.55844C145.48093,333.21457 145.61111,334.03644 145.61111,334.89511C145.61111,335.83243 145.9845,336.30591 146.52577,336.89511C147.14676,337.57111 147.46695,338.28983 147.61111,339.11111C147.7711,340.02249 147.80568,340.98587 147.61095,341.83243C147.43002,342.61896 146.31772,343.09656 146.62178,344.00046C146.87128,344.74216 147.46147,345.27167 147.61111,346.11111C147.75745,346.93204 148.55844,347.55844 149.11111,348.11111C149.83244,348.83243 150.1881,349.5694 150.64711,350.18579C151.12572,350.82852 152.09714,351.12543 152.69644,351.69644C153.30185,352.27325 154.21106,352.60577 155.09027,352.61111C155.96376,352.61642 156.68227,353.0343 157.44444,353.44446C158.17612,353.8382 159.14594,353.86258 160.03644,353.61111C160.68532,353.42789 160.29601,352.11426 160.96378,351.66827C161.73973,351.15005 162.77777,351.61111 163.63644,351.61111C164.55844,351.61111 165.46741,351.5589 165.61111,350.63644C165.75027,349.74323 165.92764,349.22232 166.44444,348.44446C166.92848,347.71591 166.61111,346.6951 166.61111,345.89511C166.61111,344.96378 166.61111,344.03644 166.61111,343.18579C166.61111,342.25845 166.61111,341.38977 166.61111,340.44446C166.61111,339.58578 166.61111,338.6951 166.61111,337.90662C166.61111,336.96826 166.61111,336.03644 166.61111,335.18579C166.61111,334.25845 166.61111,333.38977 166.61111,332.44446C166.61111,331.58578 166.61111,330.6951 166.61111,329.89511C166.61111,328.96378 166.61111,328.03644 166.61111,327.18579C166.61111,326.25394 166.61111,325.41245 166.61111,324.44446C166.61111,323.58578 166.55656,322.73529 166.11111,322.09027C165.60405,321.35605 165.61111,320.32712 165.61111,319.44446C165.61111,318.58578 165.61111,317.6951 165.61111,316.77777C165.61111,315.96378 165.61111,315.03644 165.61111,314.18579C165.61111,313.25845 165.61111,312.32712 165.61111,311.44446C165.61111,310.58578 165.61111,309.6951 165.61111,308.77777C165.61111,307.96378 165.61111,307.03644 165.61111,306.18579C165.61111,305.25845 165.61111,304.32712 165.61111,303.44446C165.61111,302.61111 165.61111,301.8111 165.61111,300.77777C165.61111,299.96378 165.74158,298.96289 165.25844,298.25845C164.76515,297.53922 164.97647,296.60596 164.52577,295.89511C164.05817,295.15759 163.61111,294.58578 163.61111,293.6951L163.61111,292.77777L163.61111,291.96378" id="svg_3" stroke-width="3" stroke="#000" fill="none"/>
  <path t="33032,33168,33234,33241,33329,33337,33354,33393,33433,33441,33449,33465,33505,33553,33577,33594,33640,33657,33848,33873,33889,33956,33985,34018,34064,34072,34124,34169,34169,34225,34257,34280,34321,34375,34442,34481,34573,34633,34776,34826,34881,34890,35152,35168,35257,36064,36121,36246,36361,36413,36528,36577,36625,36728,37016,37033,37073,37132,37177,37247,37297,37348,37377,37425,37648,37648,37697,37750,37777,37825,37873,37889,37929,37983,38009,38145,38177,38209,38241,38298,38351,38384,38434,38481,38530,38585,38641,38697,38751,38777,38856,38918,38937,38977,39018,39321,39345,39377,39513,39569,39609" d="M153.61111,353.61111C152.61111,353.63196 152.61111,354.5271 152.61111,355.32712C152.61111,356.22177 152.74754,357.05991 153.25844,357.6066C153.72145,358.10205 154.14952,358.86688 154.48961,359.71094C154.82027,360.53162 155.39162,361.10471 155.61111,361.96378C155.84167,362.86612 155.50243,363.78467 155.61111,364.63644C155.72267,365.51077 156.27937,365.76685 156.63194,366.61111C156.9395,367.3476 157.38904,368.05338 157.83244,368.83243C158.26057,369.58466 158.61111,370.18579 158.61111,371.13196C158.61111,372.00046 158.3582,372.98352 158.77777,373.77777C159.14066,374.46469 159.78542,375.04858 160.25844,375.66379C160.80585,376.37573 161.46716,376.6611 161.61111,377.5271C161.76154,378.43204 161.91823,379.00626 162.44444,379.77777C162.91057,380.46118 163.12923,381.21982 163.61562,381.96378C164.06171,382.64609 164.46986,383.26141 164.96378,383.96378C165.49222,384.71524 166.39442,384.72571 167.17511,385.18579C167.94707,385.64072 168.83244,385.61111 169.69511,385.61111C170.61111,385.61111 171.52711,385.61111 172.32712,385.61111C173.25844,385.61111 174.18355,385.95947 175.03644,385.60043C175.77158,385.29095 175.61111,384.18579 175.61111,383.25845C175.61111,382.32712 175.64259,381.38339 174.89511,380.89511C174.19087,380.43509 173.68724,379.80161 173.03644,379.61111C172.14815,379.35114 171.40219,379.21942 170.89511,378.5271C170.37564,377.81784 170.64091,376.87637 170.18578,376.18579C169.64551,375.36603 169.61111,374.55844 169.61111,373.63644C169.61111,372.73245 169.97571,371.79678 169.5751,371.03644C169.17908,370.28479 168.61111,369.6951 168.61111,368.89511C168.61111,367.96378 167.92319,367.34842 167.61562,366.55844C167.2811,365.69925 167.84662,364.74579 167.61111,363.89511C167.39044,363.09802 166.61111,362.44446 166.61111,361.61111C166.61111,360.6951 166.8251,359.87021 166.61111,358.96378C166.42993,358.19629 165.61337,357.55844 165.61111,356.66379C165.60889,355.77777 165.61111,354.89511 165.61111,354.03644C165.61111,353.11111 165.32712,352.32712 164.69511,351.6951L164.11111,351.11111" id="svg_4" stroke-width="3" stroke="#000" fill="none"/>
  <path t="51640,51808,51841,51889,51913,52192,52225,52258,52315,52394,52441,52513,52565,52610,52680,52752,52862,52905,52953,53009,53025,53160,53193,53209,53250,53298,53365,53433,53608,53608,53715,53753,53753,53816,53849,53898,53937,53999,54049,54132,54199,54241,54301,54301,54433,54481,54551,54578,54696,54721,54802,54865,54935,55002,55073,55104,55113,55128,55160,55246,55328,55346,55420,55473,55514,55553,55570,55621,55688,55755,55822,55921,55992,56151,56222,56281,56340,56457,56506,56589,56625,56832,57359,57449,57680,57725,57770,57872,58022,58241,58273,58358,58426,58474,58505,58537,58577,58585,58610,58641,58665,58711,58920,58954,58977,59009,59042,59081,59088,59154,59178,59224,59257,59281,59312,59362,59511,59553,59624,59695,59730,59796,59849" d="M126.61111,275.61111C125.62178,275.5751 125.61111,274.66379 125.61111,273.77777C125.61111,272.96378 125.61111,272.03644 125.61111,271.18579C125.61111,270.25845 125.61111,269.32712 125.61111,268.44446C125.61111,267.55844 125.61111,266.66379 125.61111,265.77777C125.61111,264.96378 125.61111,264.03644 125.61111,263.18579C125.61111,262.25394 125.62936,261.31543 125.61111,260.44446C125.59311,259.58521 125.0103,258.94095 124.61111,258.18579C124.29421,257.58627 123.62153,257.1113 123.61111,256.25845C123.59974,255.32718 123.72677,254.43686 123.61111,253.55844C123.49949,252.71062 122.74648,252.24971 122.61095,251.3896C122.46997,250.4949 121.76028,249.93188 121.61111,249.09027C121.45766,248.22453 121.01078,247.47365 120.66827,246.66377C120.32244,245.84605 120.99019,244.88275 120.61111,244.03644C120.33718,243.42487 120.0078,242.93748 119.59028,242.11111C119.23007,241.39818 118.72157,241.01968 118.25845,240.31561C117.72485,239.50441 116.78205,239.38107 116.61111,238.55394C116.43896,237.7209 115.88092,237.2739 115.32711,236.69644C114.78797,236.13428 114.87473,235.39977 114.38978,234.73244C113.88083,234.03207 113.82742,233.26283 113.25845,232.66827C112.75253,232.13962 112.96313,231.2153 112.44444,230.61111C111.92328,230.00403 111.61111,229.44444 111.61111,228.55844C111.61111,227.66377 111.61111,226.77777 111.61111,225.96378C111.61111,225.03644 111.61111,224.11111 111.61111,223.25844C111.61111,222.3271 111.61111,221.44444 111.61111,220.55844C111.61111,219.66377 111.59532,218.77762 111.61111,217.96378C111.62911,217.03592 112.15797,216.50792 112.61111,215.96378C113.05507,215.43066 113.61723,214.91156 114.25845,214.61111C114.97253,214.27654 115.66827,213.61111 116.55844,213.61111C117.44444,213.61111 118.36406,213.21581 119.18578,213.64711C119.93804,214.04196 120.48978,214.61111 121.32711,214.61111C122.25845,214.61111 123.11111,214.61111 124.03645,214.61111C124.96378,214.61111 125.91595,214.74684 126.55844,214.25844C127.22353,213.75287 127.51375,213.06755 128.13194,212.61111C128.8167,212.10553 129.75867,211.92847 130.44444,211.44444C131.15883,210.94022 131.61136,210.20815 132.11111,209.61111C132.63438,208.98601 133.16423,208.62885 133.60661,207.96378C134.09888,207.22371 134.35619,206.39024 134.89511,205.69511C135.38171,205.06749 136.12642,204.64888 136.62178,204.18578C137.20444,203.64108 137.64799,203.21082 138.18578,202.62178C138.63388,202.13097 139.03644,201.60045 139.59027,201.11111L139.62178,200.18578L140.18578,199.62178" id="svg_5" stroke-width="3" stroke="#000" fill="none"/>
  <path t="64152,64672,64928,64945,64969,65009,65106,65130,65264,65282,65321,65424,65424,65629,65657,65741,65769,65920,65969,66072,66145,66209,66257,66305,66353,66457,66473,66593,66655,66713,66729,66810,66878,66878,66961,67009,67062,67105,67146,67177,67201,67217,67249,67288,67304,67330,67379,67417,67465,67498,67538,67561,67600,67633,67681,67752,67793,67919,68075,68121,68148,68148,68177,68192" d="M144.61111,210.61111C144.66827,212.25844 145.51195,212.59869 145.61111,213.3271C145.72705,214.17868 146.43027,214.66263 146.60977,215.41245C146.82338,216.30467 147.55022,216.82607 147.61111,217.69511C147.67337,218.58359 148.06007,219.15637 148.52577,219.89511C148.99867,220.64528 148.30049,221.78679 148.83244,222.48978C149.31705,223.1302 149.61111,223.83244 149.61111,224.69511C149.61111,225.58577 149.59358,226.48996 149.61111,227.3271C149.62912,228.18634 150.17807,228.71359 150.66827,229.25844C151.29289,229.9527 151.61111,230.61111 151.61111,231.48978C151.61111,232.3271 151.84773,233.06667 152.32712,233.69511C152.87833,234.41772 152.61111,235.44444 152.61111,236.25844C152.61111,237.18578 152.61111,238.11111 152.61111,238.96378C152.61111,239.89511 152.31805,240.8425 152.64711,241.63644C152.95168,242.37129 153.60007,243.09009 153.61111,243.96378C153.62289,244.89503 154.28099,245.41322 154.59027,246.11111C154.96527,246.95731 154.61111,247.96378 154.61111,248.83244C154.61111,249.69511 154.71402,250.54202 155.18578,251.18578C155.71222,251.90416 155.45418,252.92087 155.61111,253.77777C155.75548,254.56601 156.59311,255.03592 156.61111,255.96378C156.62798,256.83228 156.61111,257.6951 156.61111,258.61111L156.61111,259.41245L156.69644,260.32578L157.48978,260.83243" id="svg_6" stroke-width="3" stroke="#000" fill="none"/>
  <path t="70366,70482,70513,70524,70545,70570,70617,70638,70681,70690,70707,70722,70737,70770,70809,70869,70913,70945,70969,70993,71017,71057,71087,71105,71122,71161,71204,71204,71257,71281,71313,71322,71386,71434,71449,71513,71529,71545,71553,71570,71625,71665,71736,71768,71777,71865,71955,71994,72024,72049,72128,72152,72170,72224,72265,72313,72361,72401,72441,72545,72623,72641,72641,72723,72809,72833,72881,72889,72913,72969,73024,73040,73080,73134,73209,73249,73309,73361,73432,73465,73538,73585,73625,73677,73743,73802,73834,73929,74153,74208,74280,74337,74386,74476,74530,74585,74639,74657,74714,74832,74936,75076,75147,75178,75274,75347,75430,75675,75722,75843,76039,76073,76114,76166,76264,76424,76483,76521,76554,76601,76633,76683,76848,76872,76937,76984,77001,77050,77089,77146,77177,77233,77318,77432,77458,77688,77783,77933,78048,78101,78186,78284,78352,78452,78490,78521,78561,78601,78625,78642,78664,78721,78745,78769,78817,78870,78968,79128,79169,79280,79305,79404,79440,79506,79529,79589,79707,79745,79831,79857,79923,79969,80002,80041,80106,80137,80185,80241,80241,80265,80341,80369,80440,80491,80537,80608,80676,80721,80761,80793,80857,80956,81001,81017,81112,81159,81177,81274,81480,81513,81609,81660,81992,82184,82800,82800,82931,82986,83208,83312,83361,83445,83712,83817,83848,83961,83961,84031,84057,84116,84153,84248,84280,84329,84464,84533,84593,84651,84768,84849,84918,85016,85048,85160,85234,85281,85352,85433,85504,85552,85616,85656,85703,85737,85761,85850,85881,85892,85975,86036,86057,86136,86204,86286,86321,86354,86437,86528,86561,86656,86737,86817,87011,87011,87080,87137,87185,87209,87318,87353,87385,87488,87671,87721,87790,87833,87976,88107,88137,88245,88282,88305,88416,88449,88944,88985" d="M129.61111,226.61111C130.61111,226.61111 131.6062,227.0947 132.32578,226.52577C133.03581,225.96439 133.52321,225.79404 134.31561,225.55394C135.16957,225.2952 135.93283,224.76828 136.55844,224.25844C137.16653,223.76288 137.76665,223.19783 138.32712,222.61244C138.78281,222.13649 139.15395,221.38551 139.83244,220.73244C140.41191,220.1747 141.28754,219.79816 141.60045,219.03644C141.92378,218.24933 142.28046,217.68762 142.61111,217.11111C143.0266,216.38669 143.48235,215.61746 143.61111,214.7326C143.73235,213.89955 144.27704,213.31671 144.64711,212.58577C145.00642,211.87608 145.68684,211.20189 146.18578,210.58577C146.6958,209.95596 146.51639,208.90784 146.96378,208.25844C147.50294,207.4758 147.61111,206.66377 147.61111,205.80978C147.61111,204.9111 147.80267,204.22588 148.32712,203.61244C148.78728,203.07422 148.44035,202.09343 148.62178,201.17511C148.80106,200.26761 149.37927,199.6349 149.61111,198.89511C149.86119,198.09714 150.41847,197.39435 150.61128,196.51128C150.79533,195.66829 151.45656,195.29152 151.96378,194.66377C152.45149,194.06017 152.56332,193.21327 153.11111,192.63194C153.57068,192.14423 154.23349,191.82576 154.59027,191.11111C154.97124,190.34799 154.52414,189.32281 154.61111,188.44444C154.69485,187.59875 155.2771,186.97572 155.61111,186.11111C155.91206,185.33211 156.5274,184.62286 156.61111,183.73244C156.68948,182.89879 157.43069,182.61099 157.61111,181.77777C157.78339,180.98221 158.02274,180.4406 158.60977,179.89511C159.14667,179.39621 159.79228,179.06439 160.32712,178.52577C160.94508,177.90343 161.01097,177.21185 161.61244,176.61111C162.21281,176.01147 162.96304,175.78398 163.55844,175.25844C164.19658,174.69518 164.55476,173.85948 165.31561,173.61562C166.21109,173.3286 166.68004,172.84258 167.58578,172.61111C168.43324,172.39455 168.91422,171.8127 169.77777,171.61111C170.55815,171.42894 171.11884,170.82635 171.83244,170.38977C172.57074,169.9381 173.31438,169.70583 173.96378,169.25844C174.74641,168.71927 175.72139,169.12317 176.44444,168.61111C177.0639,168.17244 177.59769,167.61403 177.61111,166.77777C177.62421,165.96187 177.03981,165.43452 176.52577,164.89511C175.92015,164.2596 174.77777,164.61111 173.96378,164.61111C173.03644,164.61111 172.13362,164.91325 171.25844,164.60661C170.50461,164.34248 170.83583,163.10193 170.32712,162.61111C169.77278,162.07629 169.88092,161.2739 169.32712,160.69644C168.78798,160.13428 168.94272,159.45685 168.59027,158.61111C168.28326,157.8744 167.75018,157.248 167.61111,156.3271C167.49919,155.58592 166.63971,155.25539 166.61111,154.41245C166.58105,153.52628 166.61111,152.61111 166.61111,151.69511C166.61111,150.89511 166.75853,149.95093 166.61111,149.11111C166.46695,148.28981 165.6656,147.6086 164.77777,147.61111C163.96178,147.61343 163.61111,148.48978 163.61111,149.3271C163.61111,150.18578 163.61111,151.11111 163.61111,152.03644C163.61111,152.89511 163.61111,153.83244 163.61111,154.69511C163.61111,155.58577 163.56558,156.45691 163.11111,157.13194C162.61153,157.87399 161.93456,158.42403 161.62178,159.18578C161.29453,159.9828 161.01077,160.7486 160.66827,161.55844C160.32245,162.37616 160.63393,163.25586 160.11111,164.09027C159.65974,164.81064 159.39748,165.34593 158.73244,165.83244C158.03571,166.34215 157.25125,166.62914 156.77777,167.44444C156.39182,168.10904 155.83795,168.52666 155.18578,169.03644C154.45039,169.61127 154.1387,170.35893 153.59027,171.11111C153.15486,171.70828 152.51152,172.03299 151.96378,172.66377C151.44308,173.2634 151.15999,173.80719 150.61095,174.48961C150.14386,175.07016 149.37183,175.15794 148.77777,175.77777C148.18674,176.39445 148.03645,177.18579 147.32712,177.89511C146.69644,178.52577 146.50008,179.17046 145.96378,179.66827C145.40401,180.18788 145.11638,181.09541 144.44444,181.77777C143.78291,182.44955 143.39507,183.00819 142.89511,183.69511C142.37752,184.40627 142.09029,185.13196 141.41245,185.80978C140.77777,186.44444 139.99232,186.95343 139.69644,187.81111C139.40167,188.66557 139.36882,189.37889 138.44444,189.61111C137.668,189.80617 137.79474,190.91409 137.32712,191.52711C136.81184,192.20262 136.24533,192.59894 135.61111,193.11111C135.0239,193.58533 134.23047,193.46008 133.55844,192.96378C132.86935,192.45488 131.87305,192.22746 131.61111,191.38977C131.35326,190.56514 131.91142,189.58505 131.61095,188.73244C131.3459,187.98036 130.54872,187.31503 129.89511,186.89511C129.12415,186.3998 128.39633,186.0625 127.77778,185.44444C127.16003,184.82719 126.3742,184.91714 125.58578,184.5751C124.7857,184.228 124.19832,183.58533 123.61111,183.11111C122.97689,182.59894 122.03645,182.61111 121.18578,182.61111C120.25845,182.61111 119.38978,182.61111 118.44444,182.61111C117.58578,182.61111 116.69511,182.61111 115.77778,182.61111C114.96378,182.61111 114.03645,182.61111 113.18578,182.61111C112.25845,182.61111 111.37426,182.44054 110.44444,182.61111C109.65748,182.75548 109.21532,183.25909 108.61111,183.77777C108.00403,184.29893 107.76566,184.93069 107.25845,185.55844C106.77073,186.16205 106.83321,187.05338 106.38978,187.83244C105.96165,188.58464 105.39457,189.00783 104.89511,189.69511C104.37829,190.4063 104.64732,191.37706 104.11111,192.09027C103.53563,192.85573 102.69496,193.43057 102.61111,194.18578C102.50901,195.10547 102.53111,196.04018 102.61111,196.89511C102.69481,197.78946 103.42116,198.26761 103.60044,199.17511C103.78187,200.09343 103.50525,201.16707 104.11111,201.59027C104.80111,202.07225 105.47832,202.60559 105.61111,203.52711C105.72587,204.32341 106.35769,204.92874 106.89511,205.52711C107.46853,206.16557 108.25668,206.46805 108.89511,206.89511C109.67484,207.41669 110.18578,208.18578 110.83244,208.83244C111.44444,209.44444 111.66827,210.25844 112.44444,210.61111L112.61111,211.25844L112.61111,212.18578L112.96378,212.96378" id="svg_7" stroke-width="3" stroke="#000" fill="none"/>
  <path t="93441,93701,93745,93802,94000,94085,94121,94187,94239,94320,94432,94522,94554,94656,94711,94854,94874,94949,94970,95018,95120,95138,95221,95266,95369,95409,95449,95568,95706,95753,95819,95866,95946,95977,96080,96296,96312" d="M109.61111,207.61111C110.59028,206.59027 110.65408,205.72824 111.11111,205.11111C111.66562,204.36238 112.02185,203.63451 112.44444,202.77777C112.78058,202.09633 112.50503,201.10449 112.61111,200.25844C112.72265,199.36899 113.17302,198.64745 113.66827,197.96378C114.13197,197.32367 114.58006,196.66322 114.61111,195.77777C114.63971,194.96227 115.18515,194.48311 115.61111,193.89511C116.04041,193.30254 116.61111,192.73244 116.61111,191.89511C116.61111,191.03644 116.44881,190.03148 116.89511,189.3271C117.3955,188.53737 117.89899,188.12164 118.48961,187.38977C119.01102,186.74365 119.54365,186.51039 120.18578,186.03644C120.90091,185.50859 121.61111,185.11111 122.25845,184.61562L123.11111,184.61111L124.02578,184.60045L124.02578,184.03644" id="svg_8" stroke-width="3" stroke="#000" fill="none"/>
  <path t="101569,101750,102074,102114,102281,102281,102419,102489,102507,102604,102691,102739,102747,102795,102810,102820,102834,102851,102851,102866,102866" d="M139.61111,198.61111C140.61111,198.61111 141.20168,198.22725 141.89511,197.69644C142.62401,197.1385 143.32712,196.89511 143.96378,196.25844C144.63194,195.59027 145.39162,195.11752 145.61111,194.25844C145.84167,193.35609 145.61111,192.44444 145.61111,191.55844C145.61111,190.66377 145.61111,189.80978 145.61111,188.89644C145.61111,188.03644 145.61111,187.16844 145.61111,186.31644L145.83244,185.3896L146.32712,184.80978" id="svg_9" stroke-width="3" stroke="#000" fill="none"/>
  <path t="104137,104249,104389,104458,104526,104571,104594,105121,105305,105411,105464,105675,105722,105770,105846,105882,105945,106097" d="M145.61111,184.61111C145.61111,183.61111 145.52602,182.60486 146.13194,182.11111C146.82542,181.54604 147.42198,180.92952 148.18578,180.62178C149.04413,180.27596 149.96378,180.61111 150.89511,180.61111C151.77777,180.61111 152.66377,180.61111 153.55844,180.61111C154.44444,180.61111 155.32712,180.61111 156.18578,180.61111L157.11111,180.61111L157.96378,180.60661" id="svg_10" stroke-width="3" stroke="#000" fill="none"/>
  <path t="113377,113876,113922,113963,114015,114081,114149,114202,114248,114353,114353,114432,114474,114515,114522,114583,114641,114690,114738,114817,114866,114921,114999,115025,115082,115169,115250,115381,115483,115546,115571,115697,115898,115984,116266,116282,116452,116552,116652,116803,116842,116890,116937,117008,117072,117136,117193,117242,117344,117394,117439,117529,117609,117671,117789,117898,117938,118021,118057,118090,118219,118274,118356,118455,118601,118916,118977,119002,119058,119082,119090" d="M193.61111,141.61111C193.61111,140.61111 193.19142,139.52139 193.69644,138.89511C194.26346,138.19194 194.88089,138.20386 195.62178,137.64711C196.3163,137.12521 197.00261,136.87151 197.89644,136.61111C198.77333,136.35565 199.66827,136.61111 200.55844,136.61111C201.44444,136.61111 202.25844,136.61111 203.18578,136.61111C204.11111,136.61111 204.96378,136.61111 205.89511,136.61111C206.77777,136.61111 207.66377,136.61111 208.55844,136.61111C209.44444,136.61111 210.25844,136.61111 211.18578,136.61111C212.11111,136.61111 212.96378,136.61111 213.89511,136.61111C214.77777,136.61111 215.66757,136.52888 216.55394,136.61111C217.45602,136.69479 217.86955,137.00516 218.52577,137.61244C219.13962,138.18051 218.61111,139.25844 218.61111,140.18578C218.61111,141.11111 218.10336,141.41603 217.38977,141.83244C216.58698,142.30092 215.96378,142.61111 215.03644,142.61111C214.18578,142.61111 213.25844,142.61111 212.32712,142.61111C211.44444,142.61111 210.58578,142.61111 209.69511,142.61111C208.77777,142.61111 207.96378,142.61111 207.03644,142.61111C206.18578,142.61111 205.25844,142.61111 204.32712,142.61111C203.44444,142.61111 202.58578,142.61111 201.69511,142.61111C200.77777,142.61111 200.60812,143.43109 199.73244,143.61111C198.91226,143.77972 197.96378,143.61111 197.11111,143.61111C196.18578,143.61111 195.28038,143.67786 194.63644,143.18578C193.98215,142.68578 193.18578,142.60045 192.58578,142.03644L191.89511,141.61244" id="svg_11" stroke-width="3" stroke="#000" fill="none"/>
  <path t="123737,123935,123962,124004,124054,124136,124163,124211,124219,124267,124321,124355,124504,124653,124737,124819,124850,124898,124956,124987,125039,125233,125321,125488,125538,125591,125778,125786,125954,126008,126089,126311,126413,126475,126716,126795,126858,126969,127011,127144,127353,127425,127509,127530,127593,127660,127817" d="M116.61111,196.61111C117.48978,196.61111 118.32711,196.61111 119.18578,196.61111C120.11111,196.61111 120.70601,196.05223 121.55844,195.66827C122.36796,195.30365 123.38321,196.04108 124.18578,195.5751C124.87879,195.17274 125.25845,194.61111 126.11111,194.61111C127.03645,194.61111 127.9686,194.70253 128.83244,194.61111C129.62433,194.52731 130.04683,193.92676 130.61128,193.38977C131.19307,192.8363 131.61111,192.3271 131.61111,191.44444C131.61111,190.55844 131.70264,189.56067 131.03644,189.03644C130.33963,188.48813 129.38977,188.61111 128.52711,188.61111C127.61111,188.61111 126.69474,188.58659 125.89511,188.61111C124.96246,188.63971 124.27602,188.93936 123.64711,189.62178C123.07294,190.24481 122.96561,190.86191 122.38978,191.48961C121.8285,192.10143 121.3302,192.56839 120.44444,192.61111C119.55947,192.65379 118.66324,192.58006 117.77778,192.61111C116.96227,192.63971 116.44444,193.44444 115.61111,193.61111L114.73244,193.61111" id="svg_12" stroke-width="3" stroke="#000" fill="none"/>
  <path t="128775,128993,129062,129193,129248" d="M115.61111,194.61111C116.61111,194.61111 117.52711,194.61111 118.32711,194.61111L119.25845,194.61111" id="svg_13" stroke-width="3" stroke="#000" fill="none"/>
  <path t="130641,130867,131218,131284,131399,131451,131474" d="M114.61111,198.61111C115.60044,198.5751 115.83244,197.7326 116.60978,197.52577L116.89511,196.69644L117.61111,196.44444L117.64711,195.58577" id="svg_14" stroke-width="3" stroke="#000" fill="none"/>
  <polyline timestamps="143249,143421,143421" startTime="1502020005077" id="svg_15" points="125.11111068725586,274.61110973358154 126.11111068725586,274.7777764002482 126.75394402058919,275.2584430669149 " stroke-linecap="round" stroke-width="3" stroke="#000" fill="none"/>
  <path t="145761,145915,146286,146330,146415,146534" d="M111.11111,211.61111C112.11111,211.61111 113.02578,211.61244 113.27778,212.44444L113.98961,212.83244L114.11111,213.69511" id="svg_16" stroke-width="3" stroke="#000" fill="none"/>
 </g>
</svg>