<svg width="500" height="333.3333333333333" xmlns="http://www.w3.org/2000/svg" xmlns:svg="http://www.w3.org/2000/svg" xmlns:xlink="http://www.w3.org/1999/xlink">
 <!-- Created with SVG-edit - http://svg-edit.googlecode.com/ -->
 <g display="inline" class="layer">
  <title>Layer 1</title>
  <path t="0,1328,1364,1412,1516,1516,1643,1713,1713,1728,1756,1804,1804,1894,1963,1963,1979,1996,2012,2028,2076,2164,2204,2228,2343,2396,2428,2428,2476,2509,2610,2651,2707,2755,2788,2827,2974,3094,3094,3194,3194,3194,3194,3236,3332,3364,3428,3481,3532,3532,3540,3627,3697,3697,3793,3894,3956,3988,3988,4004,4044,4068,4068,4084,4124,4124,4156,4188,4327,4327,4396,4508,4572,4628,4696,4740,4740,4889,5496,5496,5532,5564,5644,5728,5796,5939,5939,6076,6092,6226,6226,6407,6444,6484,6532,6532,6556,6613,6659,6707,6763,6804,6804,6828,6868,6900,6924,6924,6980,7004,7020,7111,7164,7204,7228,7228,7252,7284,7292,7300,7308,7308,7363,7378,7412,7452,7452,7484,7492,7508,7556,7580,7580,7588,7644,7668,7700,7700,7732,7756,7813,7852,7859,7860,7916,7940,7964,8052,8052,8052,8068,8100,8140,8196,8196,8212,8264,8279,8279,8340,8596,8628,8696,8696,8740,8740,8859,8859,8859,8924,8972,8972,9028,9028,9076,9116,9156,9156,9188,9277,9277,9293,9364,9364,9444,9460,9524,9564,9596,9644,9644,9676,9716,9763,9763,9779,9803,9804,9820,9844,9860,9883,9900,9924,9971,10003,10004,10059,10068,10115,10147,10164,10187,10219,10244,10244,10267,10315,10331,10380,10412,10436,10468,10524,10524,10548,10572,10596,10604,10679,10695,10715,10739,10771,10803,10820,10827,10836,10959,11295,12236,12252,12316,12316,12373,12420,12479,12515,12523,12524,12595,12612,12644,12692,12716,12724,12724,12748,12788,12812,12852,12892,12892,12900,12924,12948,12996,13012,13028,13095,13162,13162,13213,13280,13361,13361,13430,13511,13527,13612,13612,13788,13890,14010,14126,14126,14211,14295,14346,14346,14444,14496,14512,14541,14614,14614,14680,14695,14695,14763,14813,14852,14884,14932,14979,15028,15060,15061,15129,15145,15180,15180,15220,15244,15312,15328,15348,15427,15427,15480,15495,15540,15557,15604,15710,15889,16166,16166" d="M214.5,124.66666C216.10001,124.092 217.01379,123.89017 217.7955,123.3095C218.46834,122.80971 218.41191,121.71325 219.11067,121.10267C219.77702,120.52042 221.06712,120.92029 221.464,120.23067C221.89545,119.481 221.76349,118.44717 222.30133,117.86667C222.87738,117.24493 223.5173,116.45832 224.2,116.02383C224.93213,115.55788 225.91737,115.57719 226.52533,115.092C227.14983,114.59362 228.10001,114.66666 229,114.66666C229.89999,114.66666 230.8,114.66666 231.7,114.66666C232.60001,114.66666 233.5,114.66666 234.3,114.66666C235.2,114.66666 236.10001,114.66666 237,114.66666C237.89999,114.66666 238.8548,114.58788 239.47467,115.092C240.08974,115.59222 240.79294,116.03024 241.59984,116.5455C242.32709,117.00991 242.43127,117.72286 242.66667,118.66666C242.86769,119.47261 243.10536,120.60445 243.52533,121.22C244.00041,121.91634 245.1748,122.1005 245.44284,122.96667C245.70944,123.82817 245.5,124.76667 245.5,125.66666C245.5,126.46667 245.81448,127.05382 246.33333,127.83334C246.80421,128.5408 246.5,129.46666 246.5,130.36667C246.5,131.26666 246.5,132.1875 246.5,133.15067C246.5,133.84134 246.72461,135.0768 246.14284,135.614C245.47658,136.2292 244.65132,136.43848 244.5045,137.42383C244.37251,138.3096 244.54474,139.05692 244.07466,140.03067C243.69887,140.80911 243.2794,141.63335 242.92534,142.26666C242.44382,143.12793 242.5,144.06667 242.5,144.96666C242.5,145.86667 242.5,146.76666 242.5,147.66667C242.5,148.46666 242.54486,149.5202 243.30133,149.66533C244.1839,149.83466 244.99178,149.85545 245.584,150.38266C246.18619,150.91873 247.13724,151.24176 247.69867,151.86667C248.38115,152.6263 248.55267,153.36667 249,154.16667C249.44733,154.96666 249.76611,155.88376 250.30133,156.46666C250.86952,157.08546 251.37508,157.87131 251.50017,158.76666C251.62682,159.67314 252.26117,160.20432 252.47917,161.16667C252.67805,162.04466 252.49991,162.96666 252.5,163.86667C252.50009,164.76666 252.7206,165.63335 253.07466,166.26666C253.55618,167.12793 253.40454,168.11121 253.784,168.86667C254.21957,169.73387 254.49774,170.36665 254.5,171.26666C254.50226,172.16667 254.5,173.06667 254.5,173.96666C254.5,174.86667 254.5,175.76666 254.5,176.66667C254.5,177.46666 254.5,178.36667 254.5,179.26666C254.5,180.16667 254.35562,181.14294 254.85716,181.96666C255.20497,182.5379 256.17392,183.08199 256.44284,183.96666C256.70514,184.82959 256.80084,185.7175 257.14734,186.36667C257.60068,187.21603 257.35794,188.17967 257.51068,189.06667C257.65414,189.89981 258.38925,190.65714 258.49866,191.46666C258.61945,192.36044 259.07364,193.12973 259.44733,193.96666C259.79208,194.73882 260.1785,195.48219 260.52533,196.26666C260.88702,197.0847 261.45728,197.86365 261.5,198.76666C261.54251,199.66566 261.60608,200.45477 262,201.16667C262.49023,202.05264 262.39703,202.89178 262.66666,203.83333C262.86255,204.51746 263.32068,205.16957 263.88934,206.03067C264.43344,206.85457 264.3186,207.82014 264.66666,208.66667C264.94257,209.33775 265.42703,210.20299 265.85266,210.96666C266.26605,211.70839 266.28989,212.50528 266.55716,213.36667C266.82587,214.23264 267.85071,214.49606 268.60016,214.88817C269.32269,215.26619 269.97824,215.87976 270.71066,216.26666C271.69067,216.78436 272.49457,217.14066 273.01468,217.46666C273.90317,218.02357 274.67905,218.64725 275.31467,219.06667C276.18442,219.64061 276.7135,220.21397 277.33334,220.83333C277.95239,221.45189 278.62604,221.85751 279.20001,222.37117C279.93533,223.02919 280.6008,223.76585 281.10001,224.26666C281.79663,224.96553 282.41498,225.65407 282.49866,226.46666C282.59088,227.36194 282.5,228.26666 282.5,229.16667C282.5,230.06667 282.36343,231.0233 282.784,231.86667C283.11392,232.52831 283.39911,233.37535 283.52084,234.1875C283.66885,235.17494 284.19501,235.80618 284.41467,236.78133C284.61014,237.64903 284.5,238.46666 284.5,239.36667C284.5,240.26666 284.5,241.16667 284.5,242.06667C284.5,242.96666 284.5,243.86667 284.5,244.76666C284.5,245.66667 284.5,246.46666 284.5,247.36667C284.5,248.26666 284.5,249.16667 284.5,250.06667C284.5,250.96666 284.5,251.86667 284.5,252.76666C284.5,253.66667 284.5,254.46666 284.5,255.36667C284.5,256.26666 284.5,257.16666 284.5,258.06668C284.5,258.96667 284.5,259.86667 284.5,260.76666C284.5,261.66666 284.5,262.46667 284.5,263.36667C284.5,264.26666 284.5,265.16666 284.5,266.06668C284.5,266.96667 284.5,267.86667 284.5,268.76666C284.5,269.66666 284.01682,270.27383 283.58533,270.952C283.09216,271.72705 283.58868,272.77106 283.5,273.66666C283.41626,274.51236 282.40536,274.95306 282.50015,275.76651C282.60019,276.62524 283.53665,276.9928 284.29999,277.38266C285.05289,277.76721 286,277.6644 286.89999,277.66666C287.79999,277.66891 288.63837,278.05273 289.29999,278.38266C290.14337,278.80322 291.10004,278.66132 292,278.66666C292.90005,278.672 293.60721,279.1196 294.5,279.5C295.25153,279.82019 296.20007,279.65625 297.10001,279.66666C298.00018,279.67709 298.70944,280.19385 299.60001,280.54517C300.26068,280.80579 301.20001,280.66666 302.10001,280.66666C303,280.66666 303.89999,280.66666 304.79999,280.66666C305.70001,280.66666 306.60001,280.66666 307.5,280.66666C308.29999,280.66666 309.20001,280.66666 310.10001,280.66666C311,280.66666 311.89999,280.66666 312.79999,280.66666C313.70001,280.66666 314.60001,280.66666 315.5,280.66666C316.29999,280.66666 317.22769,280.47824 318.10001,280.70267C318.96622,280.92554 319.59888,281.76779 320.20001,282.36667C320.79886,282.96329 321.6655,283.39001 322.5,283.83334C323.13391,284.1701 323.38495,285.10986 323.85266,285.96667C324.25952,286.71198 324.71616,287.39612 325.5,287.83334C326.15189,288.19693 326.96579,288.86407 327.33334,289.66666C327.67349,290.40939 327.5545,291.36816 328,292.16666C328.44467,292.96365 329.04068,293.54129 329.5,294.1875C329.99548,294.88461 330.43912,295.76053 330.5,296.66666C330.55362,297.46487 330.38455,298.3783 330.53601,299.30267C330.67874,300.17365 331.05731,300.85767 331.7955,301.55682C332.42209,302.1503 332.5,302.96667 332.5,303.86667C332.5,304.76666 332.5,305.66666 332.5,306.46667C332.5,307.36667 332.5,308.26666 332.5,309.16666C332.5,310.06668 332.5,310.96667 332.5,311.86667L332.5,312.76666L332.5,313.66666L332.58533,314.46667" id="svg_1" stroke-width="3" stroke="#000" fill="none"/>
  <path t="19692,19916,19963,19963,20012,20028,20036,20060,20092,20116,20116,20132,20164,20204,20244,20252,20292,20316,20316,20356,20356,20364,20388,20395,20404,20436,20496,20496,20512,20556,20556,20572,20628,20636,20636,20660,20684,20692,20692,20700,20716,20740,20780,20908,20908,20979,20979,21045,21060,21424,21439,21439,21878,21878,21894,21932,21956,21964,21981,22047,22423,22543" d="M290.5,298.66666C292.29999,298.66666 293.20001,298.66666 294.10001,298.66666C295,298.66666 295.89999,298.66666 296.79999,298.66666C297.70001,298.66666 298.60001,298.66666 299.5,298.66666C300.29999,298.66666 301.20001,298.66666 302.10001,298.66666C303,298.66666 303.89999,298.66666 304.79999,298.66666C305.70001,298.66666 306.5,298.66666 307.38535,298.66666C308.32535,298.66666 309.12341,298.24158 310.05334,298.70267C310.76053,299.05331 311.30176,299.63879 312.20001,299.66666C313.1441,299.69595 313.6051,300.34415 314.30133,300.75067C315.1275,301.23306 315.6955,301.87122 316.29999,302.46667C316.99484,303.15112 317.91281,303.47003 318.60001,304.10934C319.10226,304.5766 319.79276,305.19614 320.37866,305.88815C320.98798,306.60782 320.93253,307.49722 321.52533,308.23065C322.05127,308.88138 323.09705,309.12817 323.44733,309.97116C323.7887,310.79269 323.75699,311.63193 324.5,312.33334C325.10132,312.90097 325.98273,313.27411 326.41467,313.952C326.90912,314.72797 326.60617,315.86194 326.936,316.48132C327.41629,317.38318 328.35352,317.61929 328.49866,316.86533C328.66855,315.98288 328.49466,315.06665 328.5,314.16666C328.50534,313.2666 328.85266,312.36667 329.33334,311.66666L329.66666,310.83334" id="svg_2" stroke-width="3" stroke="#000" fill="none"/>
  <path t="24708,25742,25742,25828,25957,25957,25996,26012,26020,26060,26076,26124,26148,26180,26180,26204,26260,26276,26324,26348,26372,26420,26452,26452,26468,26524,26532,26556,26580,26580,26612,26612,26652,26684,26691,26708,26756,26756,26780,26796,26812,26812,26820,26844,26868,26875,26892,26900,26962,26962,27233,27326,27326" d="M292.5,298.66666C291.5,298.66666 290.64462,298.67606 289.89999,299.27734C289.2464,299.80511 288.64886,300.435 288.50449,301.36667C288.36667,302.25607 288.5,303.16666 288.5,304.06668C288.5,304.96667 288.5,305.86667 288.5,306.76666C288.5,307.66666 288.61768,308.44775 289.07468,309.26666C289.50589,310.0394 290.05081,310.60678 290.79999,311.01935C291.63852,311.48114 292.18326,312.06454 292.85718,312.61401C293.56058,313.18753 294.26862,313.51849 295.20001,313.66217C296.08951,313.79938 297.06958,313.55524 297.79999,314.02383C298.59991,314.53702 299.07828,315.28925 299.70001,315.86533C300.28049,316.40317 301.3356,316.54556 301.97916,317.1875C302.62,317.82672 302.99612,318.52213 303.70001,318.952C304.37537,319.36444 305.06104,320.12405 305.44733,320.96667C305.79968,321.73529 306.45517,322.12817 307.14282,322.71933C307.80176,323.28583 307.92316,324.21216 308.47467,325.056C308.88239,325.67984 309.94638,325.92703 310.37866,326.76666C310.71259,327.41525 311.04166,328.16666 311.82117,328.76666L312.47916,329.16666" id="svg_3" stroke-width="3" stroke="#000" fill="none"/>
  <path t="29616,29804,29804,29819,29844,29868,29868,29960,30059,30124,30124,30140,30195,30211,30228,30268,30284,30300,30356,30356,30412,30428,30511,30548,30564,30596,30644,30668,30668,30700,30732,30779,30779,30812,30862,30924,30932,30932,30995,31036,31045,31060,31108,31132,31140,31164,31164,31180,31188,31236,31252,31292,31300,31324,31372,31372,31412,31428,31480,31516,31524,31548,31580,31596,31596,31636,31668,31700,31724,31740,31756,31780,31804,31804,31836,31876,31900,31932,32043,32043,32059,32123,32156,32181,32204,32236,32252,32277,32330,32330,32330,32364,32388,32412,32413,32452,32500,32500,32524,32524,32524,32548,32572,32581,32581,32604,32644,32684,32716,32724,32748,32772,32804,32836,32844,32844,32868,32892,32916,32932,32956,32956,32980,33012,33044,33044,33076,33160,33160,33204,33204,33293,33392" d="M244.5,231.66667C244.5,232.66667 244.42111,233.61082 245.11067,234.23067C245.7691,234.82253 246.34628,235.25145 246.55267,236.01849C246.83293,237.06004 247.43912,237.76054 247.5,238.66667C247.55363,239.46486 247.5,240.36667 247.5,241.26666C247.5,242.16667 247.5,243.06667 247.5,243.96666C247.5,244.86667 247.5,245.76666 247.5,246.66667C247.5,247.46666 247.5,248.36667 247.5,249.26666C247.5,250.16667 247.5,251.06667 247.5,251.96666C247.5,252.86667 247.5,253.76666 247.5,254.66667C247.5,255.46666 247.5,256.36667 247.5,257.26666C247.5,258.16666 247.5,259.06668 247.5,259.96667C247.5,260.86667 247.5,261.76666 247.5,262.66666C247.5,263.46667 247.5,264.36667 247.5,265.26666C247.5,266.16666 247.5,267.06668 247.5,267.96667C247.5,268.86667 247.5,269.76666 247.5,270.66666C247.5,271.46667 247.5,272.36667 247.5,273.26666C247.5,274.16666 247.5,275.06668 247.5,275.96667C247.5,276.86667 247.5,277.76666 247.5,278.66666C247.5,279.46667 247.5,280.36667 247.5,281.26666C247.5,282.16666 247.5,283.06668 247.5,283.96667C247.5,284.86667 247.5,285.76666 247.5,286.66666C247.5,287.46667 247.5,288.36667 247.5,289.26666C247.5,290.16666 247.5,291.06668 247.5,291.96667C247.5,292.86667 247.28935,293.83279 247.66667,294.66666C247.96259,295.32062 249.06316,295.60086 249.52533,296.27734C250.02452,297.008 250.2141,298.08972 250.94267,298.54532C251.55461,298.92798 252.54475,299.10056 253.07466,299.69199C253.62888,300.31055 254.0376,301.11914 254.7955,301.61401C255.49091,302.06808 255.99754,302.66891 256.56134,303.27734C257.20255,303.96927 257.76559,304.39322 258.47916,305.14584C259.05215,305.75018 259.10385,306.52371 259.66666,307.33334C260.09979,307.95642 261.12842,308.29315 261.60016,308.98801C262.04865,309.64862 262.64807,310.52356 263.31467,311.03067C263.9147,311.48712 264.4093,312.33173 264.936,313.06668C265.49796,313.8508 265.98962,314.45721 266.5,315.14584C267.01495,315.84064 267.6095,316.33673 268.30133,316.75067C269.09668,317.22656 269.50757,318.02649 270.07468,318.69199C270.5835,319.28906 271.21783,319.88943 271.66666,320.66666C272.0256,321.28824 272.92514,321.72333 273.52533,322.24133C274.15405,322.78397 275.00513,323.18222 275.60001,323.76666C276.20529,324.36133 276.83466,325.16623 277.60001,325.54532C278.44678,325.96475 279.10266,326.27466 279.79999,326.96667C280.50266,327.66397 281,328.16666 281.70001,328.86533L282.29999,329.38135L283.20001,329.71933L283.89999,330.10266" id="svg_4" stroke-width="3" stroke="#000" fill="none"/>
  <path t="66548,67176,67176,67191,67228,67228,67276,67277,67360,67396,67428,67540,67658,67673,67708,67761,67761,67796,67804,67812,67910,68023,68023,68084,68140,68140,68195,68210,68236,68260,68276,68276,68308,68348,68364,68411,68426,68508,68508,68547,68548,68596,68612,68628,68693,68693,68732,68732,68756,68780,68780,68804,68868,68908,68956,68972,69012,69012,69036,69060,69084,69108,69124,69124,69193,69228,69228,69236,69276,69327,69343,69404,69404,69444,69476,69524,69564,69596,69636,69636,69711,69711,69764,69764,69812,69820,69925,69941,69996,70020,70093,70192,70192,70236,70244,70326,70378,70393,70444,70575,70644,70988,71107,71239,71255,71276,71308,71309,71348,71411,71475,71528,71543,71703,73206,73244,73295,73348,73425,73441,73441,73468,73492,73560,73610,73677,73708,73716,73809,73809,73824,73941,73957,74247,74389,74451,74483,74484,74491,74515,74555,74595,74596,74676,74676,75192,75192,75244,75294,75339,75387,75388,75647,75683,75699,75700,75731,75748,76348,76380,76412,76444,76525,76595,76595,76706,76706,76722,76826,76826,76876,77131,77396,77396,77711,77792,77792,77836,77892,77916,77924,78041,78142,78258,78326,78393,78428,78476,78559,78596,78739,78739,78841,78924,78948,79010,79217,79217,79294,79340,79424,79424,79452,79477,79501,79501,79517,79517,79556,79556,79580,79612,79652,79726,79772,79843,79843,79900,79992,79992,80036,80084,80084,81224,81324,81324,81356,81475,81621,81621,81724,82007,82068,82138,82138,82204,82228,82260,82300,82391,82428,82476,82527,82580,82596,82752,82768,82768" d="M231.5,161.66667C231.5,162.66667 231.5094,163.52203 232.11067,164.26666C232.63844,164.92026 233.48593,165.08588 234.21466,165.75067C234.81073,166.29443 234.98254,167.32056 235.47467,168.056C235.92265,168.72548 236.4894,169.27733 236.5,170.16667C236.51073,171.06667 236.96193,171.90305 237.33333,172.66667C237.7,173.42058 238.24469,174.20441 238.464,175.06667C238.68497,175.93542 239.04265,176.52681 239.59984,177.1095C240.205,177.74237 240.45729,178.77824 240.5,179.66667C240.53842,180.46574 240.68375,181.39316 240.464,182.26666C240.24695,183.1295 239.7859,184.08975 239.05733,184.54533C238.44539,184.92798 237.46176,185.10649 236.92534,185.692C236.34563,186.32475 235.88771,187.02336 235.21466,187.58267C234.54536,188.13885 233.75374,188.38754 233.01733,188.86667C232.22124,189.38463 231.756,190.11186 231.064,190.64133C230.31502,191.21439 229.49478,191.48271 228.74283,191.71933C227.84059,192.00323 227.14241,192.35593 226.25717,192.96217C225.49091,193.48695 224.66441,193.54555 224.02083,194.1875C223.37997,194.82672 223.06454,195.64803 222.2,195.66667C221.30022,195.68608 220.4431,195.95638 219.8,196.314C218.94688,196.78842 218.18967,197.28477 217.3,197.58133C216.44235,197.86722 215.46075,197.49023 214.7,197.752C213.92044,198.02023 213.39206,198.99753 212.7,199.38133C211.87552,199.83859 210.88013,199.66425 210.10001,200.092C209.2771,200.54321 208.36644,200.70547 207.85716,201.37117C207.33885,202.04868 207.01924,202.89444 206.33067,203.38266C205.61453,203.89043 204.78119,204.01587 204.27834,204.76666C203.82913,205.43736 203.00708,205.85164 202.32533,206.26666C201.37375,206.84596 201.06499,207.49055 200.47467,208.23067C199.93558,208.90656 199.23065,209.36209 198.584,209.95067C197.94936,210.52831 197.64966,211.20168 197.48933,212.06667C197.33519,212.89835 196.61101,213.39131 196.02083,214.16667C195.46176,214.90114 194.8365,215.47659 194.52083,216.1875C194.13153,217.06418 193.72522,217.60327 193.5045,218.37117C193.25713,219.23183 193.3815,220.37943 194.11067,220.65601C194.94225,220.97144 195.91063,220.80017 196.8,220.66217C197.73039,220.51779 197.91983,219.67966 198.584,218.952C199.12791,218.35608 200.15869,218.19119 200.88933,217.692C201.5658,217.22983 201.75601,216.21178 202.59967,215.78816C202.89136,215.64169 202.41264,216.3705 201.64934,216.64133C200.7639,216.95549 200.26501,217.62437 199.85266,218.36667C199.3947,219.19107 199.01059,219.85156 198.33333,220.5C197.70206,221.10442 197.61076,221.7735 197.5,222.66667C197.38849,223.56589 196.5428,223.94902 196.5,224.86667C196.45808,225.76552 195.99219,226.2753 195.55716,227.02383C195.13269,227.75421 195.10681,229.04857 195.78667,229.58133C196.48257,230.12668 197.58296,229.86768 198.33067,229.38266C199.10115,228.88286 199.63457,228.27242 200.5,227.83333C201.17538,227.49066 201.62469,226.63321 202.11067,226.06667C202.74408,225.32825 203.48199,225.13809 203.5,225.96666C203.51955,226.86646 203.5,227.76666 203.5,228.66667C203.5,229.46666 203.40503,230.20949 203.784,229.46666C204.22501,228.60222 204.48135,227.86647 204.5,226.96666C204.51866,226.06615 204.95641,225.28494 205.416,224.468C205.81131,223.76535 206.2634,223.20958 206.78534,222.468C207.33545,221.68639 208.15225,221.54913 208.66667,220.66667C209.03209,220.03983 209.57445,219.25641 210.07466,218.64133C210.57877,218.02147 210.42264,216.9991 210.936,216.26666C211.48978,215.47658 212.05727,215.02083 212.8,214.37117C213.46445,213.78998 214.17841,213.38144 214.784,212.75067C215.334,212.1778 216.0719,211.7218 216.52533,211.056C217.02086,210.32837 217.7937,209.88316 218.44733,209.314C219.04385,208.79454 219.83102,208.47983 220.33333,207.66667C220.80502,206.90308 221.23904,206.22189 221.85716,205.71933C222.56175,205.14647 223.37791,204.93343 223.97917,204.16667C224.48763,203.51826 224.82195,202.67995 225.52083,202.16667C226.18294,201.6804 227.04478,201.64413 227.864,201.24133C228.73389,200.81361 229.4577,200.43169 230.2,200.01933C231.0244,199.56136 231.57416,198.91891 232.37199,198.692C233.08261,198.4899 234.12053,198.3589 234.84283,197.96217C235.64612,197.52097 236.26703,196.81554 237.2,196.67117C238.08943,196.53355 239.03476,196.71962 239.8,196.314C240.64595,195.86559 241.47122,195.45407 242.10001,195.092C242.87933,194.64323 243.82133,194.66728 244.67467,194.66667C245.61467,194.666 246.45378,194.42453 247.2,194.01933C247.96112,193.60603 248.89999,193.66734 249.8,193.66667C250.69867,193.666 251.31392,193.2428 251.78534,192.46666C252.19615,191.7903 253.15102,191.24779 253.41467,190.46666C253.7038,189.61011 253.5,188.66667 253.5,187.86667C253.5,186.96666 253.10178,185.9641 253.536,185.10266C253.88828,184.40378 254.49933,183.86534 254.5,182.96666C254.50067,182.06667 254.5,181.16667 254.5,180.26666C254.5,179.36667 254.5,178.46666 254.49983,177.5665L254.41467,176.78133" id="svg_7" stroke-width="3" stroke="#000" fill="none"/>
  <path t="85542,85609,85609,85625,85625,85625,85625,85643,85643,85651,85651,85651,85651,85659,85659,85668,85668,85676,85676,85684,85684,85684,85692,85692,85692,85700,85700,85700,85707,85707,85707,85716,85716,85724,85748,85748,85788,85788,85859,85859,85875,85875,85900,85900,85916,85948,85948,85972,85972,85980,85980,85996,85996,86012,86012,86020,86044,86052,86052,86064,86064,86141,86157,86188,86220,86220,86278" d="M162.5,219.66667C162.66667,217.83333 163.38667,217.66734 164.336,217.66667C165.10133,217.66614 166.10667,217.72525 166.89999,217.6095C167.91624,217.46121 168.5139,217.12892 169.66667,216.66667C170.18103,216.46042 170.99092,216.15341 171.81599,215.952C172.80417,215.71075 173.65329,215.67201 174.75183,215.66667C175.46931,215.66319 176.50983,215.66667 177.28534,215.66667C178.33333,215.66667 179.04733,215.66667 179.95267,215.66667C180.92149,215.66667 181.73599,215.66667 182.60451,215.66667C183.5,215.66667 184.39549,215.66667 185.26401,215.66667C186.33333,215.66667 187.04283,215.66667 187.89549,215.66667C188.89867,215.66667 189.664,215.66667 190.74733,215.66667C191.66667,215.66667 192.32533,215.66667 193.33333,215.66667C194.25267,215.66667 195.15717,215.66617 195.9045,215.66667C196.89867,215.66734 197.73029,215.52327 198.61467,215.952C199.38565,216.32576 199.91217,217.0547 200.60001,217.76683C201.10918,218.29398 201.68919,219.15703 202.10001,219.84134C202.58733,220.65309 203.13701,221.2673 203.7,222.15067C204.12897,222.82373 204.66422,223.60123 205.064,224.256C205.59015,225.11774 205.9977,225.88667 206.33333,226.66667C206.63939,227.37794 206.37085,228.3425 206.58533,229.18266C206.84471,230.19872 207.41467,230.86667 207.5,231.76666L207.5,232.66667L207.5,233.46666L207.5,234.42383" id="svg_8" stroke-width="20" stroke="#fff" fill="none"/>
  <path t="87195,87337,87352,87352,87352,87352,87352,87372,87372,87372,87380,87380,87380,87380,87388,87388,87388,87396,87396,87396,87404,87404,87404,87412,87412,87412,87420,87428,87436,87444,87444,87468,87492" d="M184.5,233.66667C185.54167,232.6875 186.5,232.66667 187.3,232.66667C188.10001,232.66667 189.10451,232.66667 189.95717,232.66667C190.92149,232.66667 191.73599,232.66667 192.60451,232.66667C193.5,232.66667 194.39999,232.66667 195.3,232.66667C195.89999,232.66667 197.10001,232.66667 198,232.66667C198.60001,232.66667 199.79984,232.66667 200.68933,232.66667C201.54283,232.66667 202.57867,232.66667 203.27467,232.66667C204.18401,232.66667 205.18266,232.66667 205.97917,232.66667C206.73067,232.66667 207.828,232.66667 208.7,232.66667C209.60001,232.66667 210.5,232.66667 211.3,232.66667L212.2,232.66667L213.10001,232.66667" id="svg_9" stroke-width="20" stroke="#fff" fill="none"/>
  <path t="90741,91227,91243,91260,91404,91460,91460,91542,91604,91612,91644,91652,91668,91724,91740,91764,91920,91920,91936,91973,92027,92124,92172,92241,92292,92340,92380,92380,92404,92428,92452,92452,92460,92484,92500,92516,92548,92564,92604,93194,93228,93252,93252,93284,93332,93332,93425,93460,93526,93576,93628,93676,93716,93839,93839,93876,93892,93900,93916,93933,93950,93962,94261,94482,94542,94558,94558,94558,94798,94844,94868,94908,94924,94932,94964,94964,94980,94980,94988,95004,95028,95076,95092,95140,95140,95164,95196,95220,95497" d="M203.5,204.66667C203.5,205.468 203.68843,206.39436 203.464,207.26666C203.24115,208.13289 202.2991,208.68877 201.85716,209.36667C201.37869,210.10059 201.07869,210.92552 200.62134,211.76649C200.21481,212.51399 199.69568,213.16525 199.064,213.64133C198.40634,214.13698 197.87929,214.78761 197.33333,215.5C196.82643,216.16142 196.59821,216.89191 196.07466,217.60533C195.59938,218.25298 194.65619,218.65562 194.50133,219.468C194.33273,220.35248 194.93491,221.33803 195.8,221.6095C196.56525,221.84964 197.5004,221.69205 198.3,221.66667C199.20135,221.63808 199.9803,221.12488 200.7,220.468C201.28452,219.93451 201.97211,219.46692 202.66667,218.83333C203.26567,218.28691 203.25577,217.43452 203.784,216.75067C204.26871,216.12317 204.36163,215.31343 204.72116,214.567C204.98518,214.01884 204.31609,214.43111 203.52083,214.66667C202.58261,214.94458 202.13977,215.81856 201.784,216.46666C201.34726,217.26225 200.54558,217.57915 199.936,218.27733C199.35402,218.94392 199.49991,219.96666 199.5,220.86667C199.50009,221.76666 199.55547,222.77573 200.11067,223.23067C200.79512,223.7915 201.83865,223.93694 202.7955,223.66217C203.56345,223.44165 203.9073,222.5743 204.55267,222.01933C205.13466,221.51888 206.73892,221.22044 206.43834,220.37567C206.27451,219.91524 205.38087,220.97803 204.7,221.38133C203.87285,221.87128 202.7849,222.35614 203.209,222.66217C203.93153,223.18356 205,222.66667 205.89999,222.66667C206.8045,222.66667 207.67178,222.74037 208.5,222.64583C209.49226,222.53256 210.14021,221.96303 210.5,221.16667C210.85902,220.37201 211.86575,220.12408 212.37849,219.44516C212.91298,218.73744 212.7117,217.69493 213.07466,217.06667C213.56323,216.22099 214.07466,215.64133 214.55267,214.96217L215,214.16667" id="svg_10" stroke-width="3" stroke="#000" fill="none"/>
  <path t="105136,105364,105380,105380,105457,105525,105525,105580,105580,105588,105653,106060,106060,106100" d="M213.5,195.66667C214.33333,195.83333 214.62561,196.69936 215.11067,197.26666C215.74911,198.01337 216.50024,198.66643 217,199.16667C217.69901,199.86633 217.98125,200.60373 218.55267,201.30949C219.14426,202.04015 219.5,202.66667 219.5,203.46666L219.55716,204.36667" id="svg_12" stroke-width="3" stroke="#000" fill="none"/>
  <path t="110043,110310,110326,110326,110364,110420,110420,110428,110468,110468,110476,110492,110492,110509,110556,110572,110572,110580,110628,110692,110692,110724,110776,110812,110836,110884,110884,110900,110916,110940,110956,111036,111036,111076,111126,111126,111255,111300,111375,111441,111441,111493,111508,111508" d="M229.5,201.66667C230.584,202.55333 230.81506,203.34204 231.2045,204.01401C231.74374,204.94446 232.56183,205.61401 232.97917,206.16667C233.53775,206.90636 233.88805,207.81245 234.216,208.552C234.60706,209.43385 234.672,210.32532 235.30133,210.74933C236.07062,211.26762 236.40172,212.10033 236.7215,212.98784C236.96654,213.66792 237.79277,214.19614 238.37866,214.88817C238.98796,215.60783 239.30988,216.32076 239.48933,217.26666C239.6571,218.15096 239.38351,219.07483 239.5045,219.96666C239.61592,220.78801 240.34586,221.43352 240.48933,222.26666C240.64209,223.15367 240.40599,224.11375 240.85266,224.96666C241.24661,225.7189 241.37616,226.48212 241.55716,227.42383C241.73514,228.34988 242.2655,228.98334 242.44284,229.9095C242.62317,230.85126 242.45221,231.76793 242.5,232.66667C242.54272,233.47006 243.02083,234.16667 243.69867,234.86667L244.21466,235.46666" id="svg_13" stroke-width="3" stroke="#000" fill="none"/>
  <path t="122174,122459,122459,122508,122509,122717,122757,122824,122824,122875,122972,123021,123053,123085,123085,123125,123176,123220,123237,123402,123475,123526,123542,123542,124207,124461,124476,124524,124732,124772,124856,124900,124900,125175,125191,125268,125403,125741,125772,125780,125820,125820,125852,126082,126156,126188,126188,126273,126388,126388,126489,126489,126574,126627,126628,126676,126708,126868,126940,126940,126992,126992,127028,127091,127188,127204,127236,127292,127342,127342,127457,127457,127508,127524,127572,127641,127683,127684,127691,127790,127790,127829,127876,127916,127916,127924,127972,127980,128020,128028,128068,128068,128116,128156,128164,128204,128258,128370,128420,128420,128436,128492,128532,128532,128572,128620,128690,128690,128732,128732,128838,128838,128854,128854,128900,129005,129005,129122,129122,129140,129239,129306,129306,129359,129359" d="M222.5,191.66667C221.5,191.66667 220.61081,191.56308 220.11067,190.80533C219.70732,190.19421 219.65651,189.17274 219.48933,188.26666C219.33586,187.43486 218.60843,186.94397 218.02083,186.16667C217.46323,185.42906 217.5,184.46666 217.5,183.56667C217.5,182.66667 217.5,181.86667 217.5,180.96666C217.5,180.06667 217.5,179.16667 217.5,178.26666C217.5,177.36667 217.5,176.46666 217.5,175.56667C217.5,174.66667 217.5,173.86667 217.5,172.96666C217.5,172.06667 217.5,171.16667 217.5,170.26666C217.5,169.36667 217.5,168.46666 217.5,167.56667C217.5,166.66667 217.5,165.86667 217.5,164.96666C217.5,164.06667 217.5,163.16667 217.5,162.26666C217.5,161.36667 217.5,160.46666 217.5,159.56667C217.5,158.66667 217.89305,157.73625 217.41467,156.952C216.92448,156.14838 216.10228,155.89217 215.39999,155.224C214.903,154.75114 214.34251,154.01755 213.5,153.5C212.84529,153.09781 212.46581,152.30141 211.89999,151.528C211.35921,150.7888 210.362,150.63123 209.85716,149.96217C209.29051,149.2112 208.82452,148.74715 208.10001,148.23067C207.31445,147.67067 206.84485,146.87051 205.89999,146.67734C205.03809,146.50113 204.36165,146.2173 203.784,145.58267C203.1954,144.936 202.76082,144.22206 202.14284,143.71933C201.43936,143.14705 200.96092,142.47798 200.416,141.952C199.72571,141.28569 198.70905,141.56564 198,141.16667C197.12146,140.67233 196.70947,140.12215 196.14284,139.37117C195.638,138.7021 194.59723,139.01138 193.78534,138.58133C192.92755,138.12697 192.18895,137.87833 191.60983,137.30949C190.94659,136.65804 190.51085,135.77605 189.8,135.67117C188.86526,135.53326 188.33333,134.83333 187.5,134.66667C186.66667,134.5 186.16844,133.85324 185.39999,133.44533C184.75005,133.10031 183.88179,132.67584 183.10001,132.24133C182.28069,131.78596 181.74901,131.21941 181.064,130.692C180.41148,130.18962 179.61075,129.67622 179.50133,128.86667C179.38052,127.97289 179.07317,127.25785 178.39999,126.56667C177.80797,125.9588 177.00043,125.33201 176.62134,124.56667C176.2019,123.71989 175.89201,123.06402 175.2,122.36667C174.70192,121.86475 173.95059,121.20382 173.55267,120.36667C173.14015,119.49881 173.05511,118.70272 172.416,117.952C171.84872,117.28567 171.4752,116.75562 171.064,115.84133C170.7435,115.12875 169.93315,114.39362 169.62151,113.56667C169.30125,112.71684 169.44284,111.9095 169.14284,111.014L168.7955,110.31934" id="svg_14" stroke-width="3" stroke="#000" fill="none"/>
  <path t="130316,130592,130642,130642,130707,130723,130772,130772,130834,130849,130849,130884,130932,130972,130972,130996,131020,131020,131036,131084,131116,131116,131191,131244,131293,131293,131395,131488,131504,131540,131638,131740,131780,131780,131856,132002,132075,132091,132091,132142,132180,132180,132256,132292,132292,132357,132878,132878,132916,133302,133375,133375,133488,134120,134156,134156,134196,134414,134522,134522,134591,134672,134757,134824,134824,134891,134906" d="M174.5,106.66666C176.33333,106.83334 176.71097,107.63882 177.07466,108.26667C177.52063,109.03654 177.32808,110.04218 177.78534,110.86667C178.16914,111.55872 179.01509,112.15195 179.59984,112.76667C180.15758,113.353 180.55699,114.19345 181.2045,114.7765C181.8327,115.34217 182.18738,116.02706 182.7955,116.9095C183.32251,117.67424 183.14651,118.57115 183.55716,119.3095C183.94513,120.00708 184.80775,120.59305 185.3,121.09866C185.99039,121.8078 186.94012,122.06998 187.416,122.86533C187.82994,123.55717 188.30881,124.33271 189.02083,124.64584C189.81638,124.99569 190.3096,125.31303 190.936,126.056C191.46768,126.68661 192.45378,126.9088 193.2,127.314C193.96112,127.72729 194.9959,127.48356 195.69867,127.952C196.49397,128.48213 196.51225,129.51691 197.02083,130.16667C197.62198,130.93472 198.3,131.46666 198.89999,132.06667C199.59999,132.76668 200.10001,133.26666 200.8,133.96666C201.5,134.66667 202.07988,135.27251 202.89999,135.64133C203.68156,135.99281 204.26245,136.69296 204.55267,137.36667C204.9153,138.20847 205.26514,139.05833 205.78534,139.86534C206.18069,140.47868 206.88475,140.97804 207.66667,141.5C208.37349,141.97182 209.27986,141.78656 210.10001,142.24133C210.88222,142.67508 211.7,142.95067 212.5,143.5L213.3,143.66533L214.2,143.66667L215.064,143.70267" id="svg_15" stroke-width="3" stroke="#000" fill="none"/>
  <path t="138193,138352,138405,138437,138461,138477,138493,138509,138509,138517,138526,138557,138557,138573,138605" d="M220.5,128.66667C219.69867,128.66667 218.64647,128.62181 218.50133,127.86533C218.332,126.98277 218.5,126.06667 218.5,125.14584C218.5,124.18267 218.5,123.492 218.5,122.42384C218.5,121.56667 218.5,120.66666 218.5,119.86667L218.5,118.96667L218.5,118.06667" id="svg_16" stroke-width="3" stroke="#000" fill="none"/>
  <path t="141353,141501,141501,141517,141540,141540,141548,141556,141564,141564,141572,141572,141588,141596,141604,141620,141628,141669" d="M223.5,131.66667C222.5,131.66667 221.64461,131.65727 220.89999,131.056C220.2464,130.52823 219.66666,129.89542 219.5045,128.96666C219.34337,128.04376 219.25508,127.16215 218.88933,126.492C218.35815,125.51876 217.69249,125.01804 217.51067,124.06667C217.34171,123.1826 217.5,122.26667 217.5,121.36667L217.5,120.46667L217.5,119.56667" id="svg_17" stroke-width="20" stroke="#fff" fill="none"/>
  <path t="143728,143823,143823,143838,143838,143893,143917,143933,143934,143981" d="M222.5,123.66666C221.69867,123.58134 221.02785,123.00014 220.52533,122.27734C220.05766,121.60465 219.2045,121.3095 218.62151,120.56667L218.5,119.66666L218.5,118.86667L218.5,117.96667" id="svg_18" stroke-width="20" stroke="#fff" fill="none"/>
  <path t="159672,159817,159833,159861,159869,159885,159909,159917,159941,159955,160133,160149,160149,160181,160257,160257,160373,160373,160389,160389,160389,160756,162826,162842,162842,163142,163142,163142,163302,163532,163622,163955,163971,163971,164037,164107,164283,164594,164609,164637,164653,164661,164724,164724,164724,165703,166211,166227,166275,166531,166685,166685,166725,166765,166824,166937,167212,167253,167277,167277,167285,167349,167349,169125,169157,169173,169197,169627,169627,169736,169736,169797,169829,169869,169917,169965,169989,170013,170029,170077,170077,170117,170117,170141,170165,170181,170188,170212,170268,170285,170285" d="M232.5,115.66666C231.7955,115.01933 230.90005,114.6666 230,114.66666C229.11061,114.66673 228.62294,115.38365 227.88933,115.656C227.05507,115.96571 226.00684,115.90455 225.62151,116.7665C225.25284,117.59118 224.66174,117.46254 223.8,117.72383C222.91513,117.99213 222.33015,118.90408 221.74283,119.36667C221.0489,119.91321 220.28865,120.26533 219.30017,120.76667C218.71025,121.06586 217.87248,121.33418 217.14667,122.06667C216.45879,122.76087 216.5,123.76683 216.5,124.552C216.5,125.492 216.5,126.18267 216.5,127.256C216.5,128.16667 216.50067,129.06667 216.5,129.96666C216.49933,130.86534 216.11778,131.45596 215.30133,131.668C214.50089,131.87589 214.0244,132.56136 213.2,133.01933C212.4577,133.43169 211.47893,133.81709 211.5,134.66667C211.52246,135.57239 212.65349,135.48532 213.5,135.83333C214.17108,136.10922 214.92516,136.72333 215.52533,137.24133C216.15405,137.78398 216.92256,138.3522 217.8,138.6095C218.66545,138.86327 219.64427,138.6974 220.14284,139.37117C220.65657,140.06544 220.56332,141.24236 219.97917,141.66667C219.18898,142.24063 218.10109,142.20206 217.58533,142.95334C217.08495,143.68222 217.20259,144.82248 217.78534,145.49733C218.37579,146.18109 218.93153,146.64877 219.55267,147.30949C220.12044,147.91344 221.13985,147.63043 221.91066,148.10266C222.71494,148.5954 223.4989,148.86667 224.16667,149.66667C224.66104,150.25894 224.5,151.26666 224.5,152.16667C224.5,153.06667 224.5,153.96666 224.5,154.86667C224.5,155.76666 224.8231,156.82106 224.2785,157.5455C223.73682,158.26607 223.158,158.56628 222.5,159.5C222.03894,160.15425 221.20628,160.45016 220.55267,161.01933C219.95615,161.53879 219.2045,162.02383 218.62134,162.76649L218.2785,163.54517L217.39999,163.66684L216.7,163.752" id="svg_21" stroke-width="3" stroke="#000" fill="none"/>
  <path t="172985,173025,173025,173025,173040,173085,173157,173189,173242,173242,173257,173257,173397,173397,173429,173429,173522" d="M211.5,141.66667C212.5,141.66667 213.3385,141.45723 214.2,141.72383C215.06618,141.99187 215.27806,143.12445 215.936,143.64133C216.58415,144.15051 217.69868,144.19868 218.33333,144.83333C218.96799,145.46799 219.17046,146.28738 219.78534,146.95334C220.32217,147.53476 220.7955,148.31934 221.14284,149.01401L221.47467,150.03067" id="svg_22" stroke-width="3" stroke="#000" fill="none"/>
  <path t="178128,179365,179365,179519,179715,179715,179855,179893,179956,180007,180007,180074,180090,180125,180141,180239,180255" d="M234.5,129.66667C235.33333,129.5 235.782,128.7094 236.60001,128.66667C237.49878,128.61974 238.3,128.66667 239.2,128.66667C240.10001,128.66667 241.26866,128.60852 241.4955,129.37117C241.75081,130.22951 241.5,131.16667 241.5,132.06667C241.5,132.96666 241.49867,133.86534 241.14734,134.614L240.52533,135.092" id="svg_23" stroke-width="3" stroke="#000" fill="none"/>
  <path t="185849,186093,186133,186149,186181,186193,186214,186237,186261,186269,186269,186324,186339,186357,186405,186437,186493,186517,186549,186549,186605,186645,186685,186756,186854,186869,186970,186985,187105,187204,187229,187229,187355" d="M216.5,119.66666C217.30133,119.66666 218.2,119.66666 219.10001,119.66666C220,119.66666 220.89999,119.66666 221.8,119.66666C222.7,119.66666 223.60001,119.66666 224.5,119.66666C225.3,119.66666 226.2,119.66666 227.10001,119.66666C228,119.66666 228.89999,119.66666 229.8,119.66666C230.7,119.66666 231.60001,119.66666 232.5,119.66666C233.3,119.66666 234.2,119.66666 235.10001,119.66666C236,119.66666 236.89999,119.66666 237.8,119.66666C238.7,119.66666 239.60439,119.57798 240.5,119.66666C241.3457,119.7504 241.78534,120.58266 242.59984,120.88817L243.21466,121.468L243.55267,122.3095" id="svg_24" stroke-width="3" stroke="#000" fill="none"/>
  <path t="189304,189572,189587,189637,189706,189914,189929,189949,190038,190540,190653,190653,190653,191175,191256,191301,191349,191349,191397,191421,191461,191485,191509,191525,191525,191533,191533,191549,191565,191581,191581,191613,191629,191629,191637,191661,191693,191701,191749,191807,191920" d="M243.5,121.66666C244.2045,122.37117 244.73413,123.28383 245.52533,123.656C246.23288,123.98882 247.1539,124.14922 247.88933,124.64133C248.55881,125.08932 249.14763,125.62683 249.91066,126.10267C250.711,126.60178 251.34239,127.03856 252.01601,127.46667C252.88756,128.02057 253.69698,128.62395 254.60001,128.66667C255.49899,128.7092 256.29999,128.66667 257.20001,128.66667C258.10001,128.66667 259,128.66443 259.89999,128.66667C260.8045,128.66893 261.668,128.8299 262.32535,129.092C263.33545,129.49475 264.08926,129.66133 265,129.66667C265.91064,129.672 266.82132,129.66667 267.67465,129.66667C268.61465,129.66667 269.5,129.66667 270.29999,129.66667C271.20001,129.66667 272.10001,129.66667 273,129.66667C273.89999,129.66667 274.79999,129.66667 275.70001,129.66667L276.60001,129.66684" id="svg_25" stroke-width="3" stroke="#000" fill="none"/>
  <path t="193039,193231,193246,193246,193293,193317,193333,193333,193341,193365,193373,193397,193397,193437,193461,193461,193501,193509,193517,193517,193565,193589,193597,193613,193621,193629,193677,193685,193709,193709,193725,193725,193749,193749,193781,193781,193856,193856,193856,193893,193909,193973,194013,194037,194038,194054,194054,194108,194141,194173,194173,194205,194540" d="M249.5,128.66667C250.5,128.66667 251.30151,128.64871 252.2,128.66667C253.10054,128.68468 253.8923,129.11086 254.60001,129.76649C255.19363,130.31645 256.01776,130.49658 256.89999,130.67734C257.84067,130.87007 258.07947,131.85628 258.66934,132.38133C259.34015,132.97841 260.45367,132.93285 261.1955,133.314C261.97681,133.71542 262.80374,134.01978 263.5,134.66667C264.10327,135.22717 264.88028,135.65205 265.5,136.16667C266.10202,136.66658 267.05508,136.36903 267.88934,136.67734C268.63571,136.95317 268.86551,138.17001 269.60001,138.54533C270.44147,138.97531 271.11243,139.31274 271.98401,139.86667C272.65759,140.29477 273.46994,140.77817 274.12534,141.26666C274.81256,141.77888 275.5174,142.17349 276.5,142.66667C277.28662,143.06148 278.07922,143.22699 278.85333,143.64133C279.58789,144.03448 280.17545,144.58621 280.89999,145.10266C281.68567,145.66267 282.23611,146.38004 283.14816,146.614C283.9176,146.81139 284.57477,147.39644 285.36133,147.64133C286.30734,147.93585 286.97916,148.16667 287.89999,148.63066L288.70001,148.668" id="svg_26" stroke-width="3" stroke="#000" fill="none"/>
  <path t="195899,196065,196109,196157,196211,196226,196273,196309,196317,196341,196437,196437,196437,196477,196525,196533,196550,196558,196597,196597,196621,196621,196653,196661,196661,196685,196709,196725,196725,196765,196855,196922,196957,197005,197036,197037,197077,197117,197133,197205,197236,197305,197355,197355,197423,197423,197438,197460,197484,197548,197556,197564,197580,197588,197644,197684,197700,197740,197788,197788,197855" d="M273.5,129.66667C273.53601,128.67734 274.30133,128.66667 275.20001,128.66667C276.10001,128.66667 277,128.66667 277.89999,128.66667C278.79999,128.66667 279.70001,128.66667 280.60001,128.66667C281.5,128.66667 282.29999,128.66667 283.20001,128.66667C284.10001,128.66667 285.13,128.48082 285.88934,129.10266C286.52737,129.62517 286.78549,130.57991 287.60016,130.66684C288.3855,130.75064 289.30948,131.133 290.01599,131.38266C290.98166,131.72389 291.87854,131.78546 292.63867,132.27733C293.40106,132.77066 293.90442,133.51393 294.70001,133.95067C295.34811,134.30643 296.31433,134.27124 297.064,134.70267C297.75363,135.09955 297.42264,136.33423 297.936,137.06667C298.48978,137.85675 299.14584,138.22392 299.7955,138.96666C300.37671,139.63112 300.98318,140.27385 301.41467,140.952C301.90784,141.72705 301.5,142.76666 301.5,143.66667C301.5,144.42383 301.62497,145.34145 301.41467,146.18266C301.19449,147.06337 300.20868,147.45293 299.55267,148.01933C298.9603,148.53081 298.17831,148.47177 297.30133,148.668C296.49429,148.84857 295.97934,149.65625 295.10001,149.66667C294.20007,149.67734 293.29999,149.66667 292.39999,149.66667L291.5,149.66667L290.70001,149.66667L289.79999,149.66667" id="svg_27" stroke-width="3" stroke="#000" fill="none"/>
  <path t="200273,200416,200452,200476,200509" d="M284.5,150.66667C286.29999,150.66667 287.20001,150.66667 288.10001,150.66667L289,150.66667" id="svg_28" stroke-width="3" stroke="#000" fill="none"/>
  <path t="216637,216842,216842,216858,216858,216876,216884,216884,216900,216900,216924,216989,217004,217070,217108,217124,217124,217376,217469,217485,217485,217587,217612,217703,217803,217855,217855,218061,218061,218077,218077,218154,218315,218330,218516,218636,218676,218692,218692,218785,218871,218921,219020,219322,219322,219371,219440,219488,219558,219596,219644" d="M176.5,105.66666C176.5,104.66666 176.50491,103.88625 176.14284,103.014C175.84508,102.29668 175.04054,101.51683 174.66667,100.66666C174.35497,99.95784 174.5,99.014 174.5,98.15067C174.5,97.1875 174.5,96.26667 174.5,95.36667C174.5,94.46667 174.5,93.56667 174.5,92.66666C174.5,91.86667 174.37747,90.46797 173.66667,90.83334C172.86842,91.24365 172.7068,92.15959 172.02083,92.66666C171.36201,93.15366 170.87907,93.9762 170.58533,94.868C170.28215,95.78845 170.5,96.492 170.5,97.5C170.5,98.36217 170.5,99.26667 170.5,100.16666C170.5,101.06667 170.5,101.96667 170.5,102.86667C170.5,103.76667 170.8768,104.84665 170.33333,105.5C169.75937,106.19001 169.09058,106.37408 168.5,107.14584C168.00211,107.79647 167.15427,108.19408 166.3,108.58266C165.53688,108.92979 164.25763,109.36372 164.54666,110.23067C164.79547,110.97701 166.10001,110.66666 167,110.66666L167.89999,110.66666L168.8,110.66666" id="svg_30" stroke-width="3" stroke="#000" fill="none"/>
  <path t="223661,224126,224158,224164,224228,224252,224260,224260,224268,224321,224321,224336,224356,224356,224380,224404,224404,224421,224421,224436,224452,224468,224521,224521,224521,224556,224604,224612,224668,224752,224752,224768,224805,224907,224969,225020,225036,225052,225068,225168,225168,225212,225212,225244,225284,225300,225308,225332,225380,225380,225439,225439,225484,225500,225548,225580,225580,225604,225644,225668,225668,225676,225692,225700,225771,225803,225820,225820,225844,225860,225868,225907,225908,225916,225932,225971,226037,226068,226092,226092,226108,226185,226201,226412,226412,226460,226521,226688,226754,226788,226916,226972,226972,227012,227036,227044,227068,227100,227100,227116,227124,227148,227172,227188,227196,227204,227212,227236,227244,227252,227252,227260,227268,227300,227340,227356,227380" d="M102.5,44.66667C103.07467,43.06667 103.48199,42.26721 103.5,41.36667C103.51799,40.46685 103.4522,39.5654 103.5,38.66667C103.54272,37.86327 104.10798,37.06401 104.7,36.46667C105.2973,35.86398 105.99499,35.13137 106.66666,34.66667C107.45123,34.12387 107.91265,33.44645 108.66666,32.83333C109.25818,32.35235 110.18311,32.36425 111.016,31.86533C111.76899,31.41428 111.97665,30.4073 112.66666,29.83333C113.32001,29.28986 114.43042,30.05972 115.21467,29.58133C116.01828,29.09114 116.31046,28.17612 116.936,27.692C117.6818,27.1148 118.4874,26.7517 119.3,26.668C120.19526,26.57579 121.10001,26.66133 122,26.66667C122.90005,26.672 123.64425,27.04233 124.5,27.5C125.29145,27.92328 125.83751,28.38865 126.5,29C127.11585,29.56831 127.4119,30.48887 127.4955,31.36217C127.5817,32.26256 127.5,33.16667 127.5,34.06667C127.5,34.96667 127.66369,35.92396 127.27866,36.76667C126.97286,37.43597 126.67049,38.28667 126.47916,39.16667C126.29516,40.01299 125.97836,40.88736 125.2785,41.54533C124.67374,42.11391 123.85633,42.37079 123.5,43.16667C123.14199,43.96629 122.41252,44.59509 121.936,45.26667C121.4211,45.99232 121.02061,46.77855 120.44733,47.314C119.76211,47.95401 119.21606,48.41557 118.4,48.88817C117.73346,49.27418 117.0576,50.03241 116.62133,50.7665C116.15546,51.55038 115.44044,51.95163 114.8,52.314C113.97921,52.77842 113.27516,53.21024 112.62133,53.888C112.06327,54.46649 111.25154,54.51314 110.5,54.83333C109.7188,55.16616 108.96792,55.60139 108.2,56.01933C107.35905,56.47702 106.53333,56.88726 105.9,57.24133C105.03874,57.72284 104.1,57.66734 103.2,57.66667C102.30133,57.666 101.69582,57.16789 101.064,56.692C100.40522,56.1958 99.60916,55.94337 99.02084,55.16667C98.46253,54.42959 98.5,53.46667 98.5,52.56667C98.5,51.66667 98.5,50.86667 98.5,49.96667C98.5,49.06667 98.5,48.16667 98.5,47.26667C98.5,46.36667 98.35021,45.45408 98.50017,44.56683C98.64417,43.71481 99.35616,43.26709 99.784,42.46667C100.24146,41.61081 100.60928,40.99743 101.30133,40.58267C102.09634,40.10621 102.47467,39.27733 103.07467,38.64133L103.55267,38.01933L104.30133,37.58267" id="svg_31" stroke-width="3" stroke="#000" fill="none"/>
  <path t="232188,232674,232737,232896,233018,233384,233384,233400,233400" d="M219.5,127.66666C220.30133,127.66666 221.2,127.66666 222.10001,127.66666C223,127.66666 223.89999,127.66666 224.8,127.66666L225.70267,127.66666L226.47067,127.66666" id="svg_32" stroke-width="3" stroke="#000" fill="none"/>
  <path t="265106,265294,265350,265365,265381,265381,265437,265453,265469,265485,265493,265493,265501,265501,265509,265517,265517,265533,265533,265549,265573,265589,265589,265589,265597,265605,265621,265653,265653,265677,265677,265685,265693,265701,265717,265717,265725,265733,265733,265741,265773,265877,265953,266004,266045,266104,266120,266186,266229,266269,266269,266277,266293,266309,266309,266317,266317,266317,266325,266333,266349,266357,266357,266381,266381,266397,266397,266405,266421,266421,266429,266429,266437,266437,266445,266453,266461,266461,266469,266485,266485,266493,266493,266501,266501,266509,266517,266525,266533,266541,266557,266573,266581,266581,266589,266597,266605,266605,266613,266629,266645,266645,266653,266653,266677,266701,266701,266725,266725,266725,266741,266749,266765,266765,266781,266781,266797,266797,266813,266821,266837,266854,266854,266861,266877,266901,266917,266925,266941,266949,266981,266981,266989,266989,266997,267005,267037,267037,267045,267069,267101,267125,267141,267173,267205,267205,267221,267260,267285,267293,267301,267317,267325,267341,267341,267357,267357,267373,267381,267381,267389,267389,267397,267405,267405,267413,267421,267437,267445,267453,267453,267461,267469,267477,267493,267493,267493,267501,267509,267509,267525,267525,267533,267541,267541,267565,267565,267565,267573,267589,267613,267637,267661,267677,267677,267701,267717,267717,267725,267732,267741,267781,267887" d="M-3.5,83.66666C-1.8,83.66666 -0.8324,83.58926 -0.1,84.10267C0.68995,84.65642 0.94539,85.4847 1.52533,86.23067C2.01082,86.85515 2.55539,87.48618 3.02083,88.1875C3.56714,89.01066 4.05338,89.63956 4.37867,90.64516C4.60574,91.34717 5.06842,92.15514 5.59983,92.988C6.01804,93.64342 6.39454,94.49071 6.4955,95.36217C6.59969,96.26156 6.90412,96.93808 7.5,97.83334C7.92394,98.47027 8.15534,99.20227 8.5,100.14584C8.80572,100.9828 9.82709,101.30121 10.33333,102C10.74836,102.57288 10.6544,103.69525 11.2045,104.36217C11.82962,105.12003 12.7899,105.27378 13.37867,105.88817C14.03114,106.56904 14.20337,107.36779 14.9,108.06667C15.49903,108.66763 15.91742,109.35614 16.5,110.14584C16.97066,110.78381 17.49428,111.48476 18.30133,111.66534C19.17832,111.86156 20.1,111.66666 21,111.66666C21.9,111.66666 22.8,111.66666 23.7,111.66666C24.60017,111.66666 25.39148,111.76326 26.31467,111.656C27.27413,111.54452 27.82873,110.8124 28.54167,110.66666C29.49468,110.47185 30.27173,110.19283 31.01467,109.95067C32.06895,109.60701 33.03888,109.72729 33.8,109.314C34.54622,108.9088 35.26557,108.63811 36.15717,108.314C36.91216,108.03955 37.89616,107.71901 38.664,107.67733C39.61466,107.62572 40.66667,107.66666 41.32533,107.66666C42.33333,107.66666 43.14133,107.68053 43.984,107.38267C44.86713,107.07051 45.74141,106.69527 46.6,106.66666C47.4995,106.6367 48.26595,106.51785 49.136,106.092C49.95771,105.68982 50.71062,105.672 51.69983,105.66666C52.47916,105.66246 53.4785,105.66666 54.29867,105.66666C55.2,105.66666 56.1,105.66666 57,105.66666C57.9,105.66666 58.8,105.66666 59.7,105.66666C60.6,105.66666 61.5,105.66666 62.3,105.66666C63.2,105.66666 64.136,105.66666 64.984,105.66666C65.84734,105.66666 66.864,105.66666 67.70133,105.66666C68.66666,105.66666 69.5,105.66666 70.4785,105.66666C71.1955,105.66666 72.15492,105.64549 72.98534,105.952C73.7311,106.22726 74.7049,106.75691 75.28934,107.06667C76.02121,107.45456 76.76524,108.26339 77.7,108.58134C78.55605,108.87251 79.40352,108.70528 80.15266,109.02383C80.8674,109.32775 81.75212,109.95653 82.29867,110.46667C83.01237,111.13283 83.80856,111.53105 84.7,111.668C85.61563,111.80867 85.88472,112.53343 86.55267,113.3095C87.05494,113.89308 88.0236,114.12708 88.7955,114.614C89.49794,115.05711 90.08604,115.54958 90.8,116.02383C91.59164,116.54969 92.1,117.26667 92.7,117.86667C93.3,118.46667 93.95736,119.22782 94.8,119.614C95.56874,119.9663 96.26686,120.51252 97.1,120.656C97.98701,120.80875 98.9,120.66666 99.8,120.66666C100.7,120.66666 101.6,120.66666 102.5,120.66666C103.3,120.66666 104.2,120.66666 105.1,120.66666C106,120.66666 106.9,120.66666 107.8,120.66666C108.7,120.66666 109.64889,120.83665 110.5,120.5C111.20265,120.22208 111.98126,119.71352 112.84734,119.67117C113.87345,119.62098 114.82133,119.66666 115.5,119.66666C116.4785,119.66666 117.29867,119.66666 118.25716,119.66666C119.15266,119.66666 120.016,119.66666 120.97916,119.66666C121.8,119.66666 122.7,119.66666 123.6,119.66666C124.5,119.66666 125.3,119.66666 126.2,119.66666C127.1,119.66666 128.04167,119.66666 129.04266,119.66666C129.75067,119.66666 130.49466,119.66666 131.68567,119.66666C132.5,119.66666 133.39415,119.72793 134.15266,120.01933C135.02704,120.35525 135.87451,120.63476 136.8215,120.66683C137.52074,120.69051 138.50874,120.80803 139.28934,121.092C140.02365,121.35914 141.16396,121.32941 141.97917,121.6875C142.69133,122.00032 143.26509,122.62901 144,123.1875C144.66397,123.69208 145.2,124.36667 145.89999,125.06667C146.5,125.66666 147.05727,126.31251 147.8,126.96217C148.46445,127.54335 149.33333,127.83334 149.78534,128.58133L150.60001,128.66684" id="svg_37" stroke-width="3" stroke="#000" fill="none"/>
  <path t="269246,269350,269350,269381,269389,269389,269397,269413,269421,269439,269439,269445,269455,269461,269477,269477,269485,269501,269501,269517,269541,269557,269557,269581,269597,269629,269629,269637,269645,269671,269671,269693,269709,269709,269725,269725,269725,269733,269749,269749,269757,269765,269765,269773,269797,269821,269821,269845,269871,269885,269909,270034,270050,270136,270151,270173,270173,270181,270189,270197,270213,270222,270229,270261,270277,270285,270317,270365,270373,270373,270389,270437,270461,270461,270461,270485,270485,270493,270493,270517,270533,270565,270589,270597,270613,270613,270629,270639,270655,270661,270670,270677,270702,270717,270717,270741,270741,270749,270765,270773,270773,270781,270797,270805,270838,270877,270877,270941,270973,270989,270989,271021,271029,271029,271045,271054,271061,271077,271101,271133,271165,271165,271181,271189,271206,271223,271255,271293,271293,271309,271317,271325,271341,271373,271389,271389,271389,271397,271422,271454,271454,271461,271485,271501,271509,271509,271517,271549,271557,271605,271605,271637,271645,271654,271717,271733,271733,271749,271749,271797,271813,271821,271839,271839,271856,271885,271901,271909,271925,271933,271933,271957,271957,271973,271989,272006,272013,272023,272023,272039,272056,272072,272077,272093,272101,272117,272125,272149,272181,272205,272238,272253,272253,272261,272271,272369,272369,272486,272501,272510,272517,272542,272549,272557,272565,272565,272582,272598,272606,272630,272661,272671,272671,272685,272702,272702,272718,272726,272726,272741,272742,272749,272758,272758,272774,272781,272790,272797,272806,272823,272823,272840,272856,272894,272925,272957,272989,272997,273022,273022,273038,273055,273061,273078,273103,273104,273125,273157,273158,273173,273174,273181,273190,273230,273270,273309,273310,273310,273511,273511,273557" d="M326.5,133.66667C328.668,134.38266 329.58276,134.49075 330.332,134.95067C331.05841,135.39658 331.92526,135.58281 332.51468,136.27733C333.08755,136.95235 333.65897,137.40253 334.5,137.83333C335.16434,138.17361 335.88284,138.9075 336.33334,139.66667C336.82355,140.49275 337.53348,140.79135 338.10001,141.27733C338.84326,141.91489 339.41544,142.76132 339.49866,143.46666C339.60434,144.36235 340.01556,145.17181 340.70001,145.86667C341.19623,146.37042 342.00549,147.0013 342.41599,147.86667C342.7753,148.62413 343.14545,149.36751 343.5,150.16667C343.85529,150.9675 344.59113,151.59251 345.064,152.26666C345.58585,153.01064 345.70389,153.99597 346.02084,154.6875C346.47507,155.67848 346.76566,156.28159 347.20001,157.00951C347.75299,157.93623 348.25586,158.69585 348.55267,159.36667C348.92773,160.21432 349.80756,160.78806 350.21466,161.46666C350.65616,162.20261 350.94421,163.05898 351.59982,163.76666C352.14978,164.36031 352.1235,165.24995 352.52084,166.14583C352.83621,166.85687 353.71439,167.21567 354.33334,167.83333C354.95197,168.45067 355.70001,168.66667 356.60001,168.66667C357.5,168.66667 358.30017,168.68541 359.20001,168.66667C360.06454,168.64867 360.3808,167.82755 361.02084,167.1875C361.66086,166.54747 362.44733,166.314 363,165.66667C363.55267,165.01933 364.20398,164.61305 365,164.16667C365.79947,163.71838 366.54456,163.35562 367.29999,162.95067C368.05597,162.54543 368.88284,162.19128 369.66666,161.66667C370.31467,161.23297 371.10468,160.87328 371.89868,160.46666C372.6673,160.07304 373.71979,159.55862 374.13834,158.96666C374.68491,158.19365 375.04901,157.45229 375.66666,156.83333C376.284,156.21469 376.5,155.56667 376.5,154.66667C376.5,153.86667 376.5,152.96666 376.5,152.06667C376.5,151.16667 376.5,150.26666 376.5,149.36667C376.5,148.46666 376.45679,147.56563 376.5,146.66667C376.54272,145.77824 376.90237,145.03328 377.216,144.15067C377.51184,143.31816 377.36343,142.31003 377.784,141.46666C378.11392,140.80502 378.48734,139.96658 378.5,139.06667C378.51266,138.16652 378.9765,137.43555 379.37866,136.56667C379.68509,135.90465 380.0444,134.92531 380.91068,134.70267C381.79333,134.47581 382.67465,134.66667 383.61465,134.66667C384.5,134.66667 385.28107,134.54898 386.10001,134.092C386.87274,133.66078 387.44119,133.08932 388.11066,132.64133C388.8461,132.1492 389.75363,131.87764 390.60001,131.44533C391.25531,131.1106 392.17947,131.01241 392.97916,130.64583C393.7099,130.31085 393.86591,129.15729 394.70001,128.75067C395.45358,128.38332 396.29828,128.1842 396.97916,127.66666C397.61264,127.18514 397.50885,126.06316 398.2045,125.614C398.87604,125.18041 399.50687,124.50413 399.89999,123.84133C400.30716,123.15486 400.991,122.35865 401.41599,121.46667C401.82477,120.60868 402.29892,120.01044 402.48932,119.06667C402.66742,118.1839 403.00052,117.44788 403.33334,116.66666C403.65353,115.91513 403.55545,114.96571 404,114.16666C404.44562,113.36572 404.83691,112.63541 405.216,111.86667C405.63281,111.02145 405.33267,110.04702 405.52084,109.16666C405.70224,108.31801 406.5,107.66666 407,107.16666C407.70001,106.46666 408.24536,105.80534 408.89999,105.27734C409.64496,104.67648 410.60001,104.66666 411.5,104.66666C412.29999,104.66666 413.2265,104.85041 414.10001,104.63067C414.96283,104.41361 415.70465,103.7916 416.60001,103.6665C417.50647,103.53985 418.10266,103.05868 418.79999,102.36667C419.30191,101.86859 419.9151,100.9921 420.79999,100.72383C421.66302,100.46219 422.67184,100.8897 423.5,100.5C424.25836,100.14314 424.36426,98.95316 425.11066,98.67733C425.94492,98.36903 426.84357,98.59972 427.52533,98.092C428.16614,97.61478 429.10001,97.66666 430,97.66666C430.89999,97.66666 431.79999,97.66666 432.70001,97.66666C433.60001,97.66666 434.5,97.66666 435.29999,97.66666C436.20001,97.66666 437.10004,97.66127 438,97.66666C438.8894,97.672 439.3739,98.39226 440.11066,98.656C440.94803,98.95576 441.89999,98.66666 442.79999,98.66666C443.70001,98.66666 444.60001,98.66666 445.5,98.66666C446.29999,98.66666 447.20007,98.67708 448.10001,98.66666C449.00018,98.65625 449.70328,98.12348 450.60001,97.78817C451.45065,97.47009 452.31042,97.7671 453.13599,97.63067C454.00772,97.48662 454.81705,96.90243 455.74734,96.72383C456.65192,96.55017 457.55267,96.82008 458.47849,96.44517C459.14981,96.17332 459.69739,95.2009 460.5,94.83334C461.24271,94.49319 462.20001,94.66666 463.10001,94.66666C464,94.66666 464.90814,94.78316 465.79999,94.66217C466.62134,94.55074 467.26862,93.81484 468.20001,93.67117C469.08951,93.53395 470,93.66666 470.89999,93.66666C471.79999,93.66666 472.70001,93.66666 473.60001,93.66666C474.5,93.66666 475.33588,93.54857 475.97916,94.1875C476.62137,94.82536 476.95215,95.49549 477.89999,95.67733C478.73071,95.8367 479.26236,96.50904 480.02084,97.16666C480.63794,97.7017 481.46902,98.23009 482.33334,98.5C483.07016,98.73009 483.97562,98.78527 484.55267,99.314C485.24399,99.94743 485.73505,100.50464 486.66666,100.83334C487.34705,101.07339 488.10132,101.468 488.89868,101.86533L489.664,102.23067L490.61465,102.58134" id="svg_38" stroke-width="3" stroke="#000" fill="none"/>
  <path t="278466,278550,278581,278581,278597,278597,278605,278605,278613,278629,278637,278645,278645,278669,278693,278693,278701,278701,278717,278733,278733,278749,278765,278789,278789,278789,278868,278883,278883,278883,278925,278949,278950,278982,278982,279005,279021,279037,279037,279053,279053,279290" d="M244.5,234.66667C245.38667,234.58133 246.33871,234.23636 246.9045,233.96217C247.90358,233.478 248.6326,233.00436 249.47867,232.78816C250.36351,232.56204 251.42598,232.94902 252.16667,232.5C252.93857,232.03207 253.45634,231.42923 254.2,231.01933C254.98241,230.58807 255.97391,230.35234 256.71066,230.092C257.68622,229.74725 258.6405,229.98636 259.33066,229.38133C260.00998,228.7858 260.21744,228.05283 261.10001,227.64133C261.92365,227.25731 262.66254,226.65981 263.32535,226.26666C264.01178,225.85951 264.92392,225.30258 265.5,224.5C265.94937,223.87398 266.24911,223.11292 266.79999,222.42383C267.44388,221.61839 268.10001,221.06667 268.70001,220.46666C269.29999,219.86667 270.00742,219.18358 270.41733,218.46666C270.8649,217.68388 271.5,217.16667 272.25717,216.56667L272.58267,215.86667L273.11066,215.10266" id="svg_39" stroke-width="3" stroke="#000" fill="none"/>
 </g>
</svg>