<svg width="500" height="333.3333333333333" xmlns="http://www.w3.org/2000/svg" xmlns:svg="http://www.w3.org/2000/svg" xmlns:xlink="http://www.w3.org/1999/xlink">
 <!-- Created with SVG-edit - http://svg-edit.googlecode.com/ -->
 <g display="inline" class="layer">
  <title>Layer 1</title>
  <path t="28948,29648,29725,29725,29890,29934,30049,30050,30124,30124,30124,30402,30457,30457,30457,30538" d="M253.3,139.86667C253.3,141.51334 253.3,142.35066 253.3,143.214C253.3,144.23067 253.27589,145.0683 253.3,146.03334C253.32083,146.86745 253.58234,147.75615 254.16133,148.23067C254.76999,148.72949 255.664,149.27733 256.29999,150.03334L256.68933,150.692L257.01468,151.38266L257.28934,152.45599" id="svg_3" stroke-width="3" stroke="#000" fill="none"/>
  <path t="35618,35961,36005,36056,36107,36126,36202,36203,36256,36306,36357,36376,36403,36404,36457,36476,36476,36496,36524,36594,36619,36643,36643,36962,37075,37107,37128,37148,37174,37174,37194,37223,37224,37356,37407,37425,37426,37475,37494,37524,37544,37544,37681,37740,37790,37790,37858,38234,38235,40490,40490,40786,40890,40910,40931,40932,41083,41083,41139,41290,41442,41490,41490,41540,41540,41563,41623,41624,41675,41675,41778,41778,41799,41821,41906,41930,41955,41987,41987,42202,42282,42283,42313" d="M260.29999,154.86667C260.35718,153.16667 260.98618,152.44431 261.24283,151.56667C261.49594,150.70111 261.10184,149.70609 261.46667,148.86667C261.76422,148.18211 262.69638,147.6337 263.13333,146.86667C263.57761,146.08681 264.25726,145.5843 264.29999,144.66533C264.33176,143.98207 264.2666,143.04079 264.29999,142.03334C264.32861,141.16975 264.96277,140.44029 265.21466,139.66667C265.49451,138.80719 265.6311,138.0524 266.39999,137.64534C267.15753,137.24429 267.91138,136.86304 268.68933,136.44133C269.30972,136.10504 269.66522,136.73787 270.5,136.868C271.41534,137.01067 272.14481,137.63594 272.28934,138.50267C272.42862,139.33788 272.29999,140.15683 272.29999,141.22383C272.29999,142.06799 272.29999,143.03334 272.29999,143.84584C272.29999,144.75684 272.29999,145.57117 272.29999,146.50267C272.29999,147.34933 272.29999,148.15683 272.29999,149.22383C272.29999,150.06799 272.29999,151.03334 272.29999,151.84584C272.29999,152.76134 272.29999,153.58099 272.29999,154.46933C272.29999,155.45767 272.15619,156.24298 272.65268,156.87117C273.15607,157.5081 273.17987,158.37444 273.74283,158.96666C274.35956,159.61545 275.23639,160.02791 275.88934,160.43066C276.73273,160.95087 277.03424,161.53053 277.34167,162.36667C277.6442,163.18941 278.52872,163.40425 279.41467,164.06667C280.02847,164.5256 280.81125,165.2179 281.13333,166.03334C281.44711,166.82777 281.55743,167.79048 282.16135,168.22C283.04474,168.8483 284.01407,168.70882 284.68933,169.30267C285.38556,169.91498 285.2113,170.97104 285.29999,171.86667C285.38373,172.71237 286.33347,172.99136 286.89999,173.47734C287.64325,174.1149 288.13333,174.86667 288.29868,175.66667L288.29999,176.58133" id="svg_4" stroke-width="3" stroke="#000" fill="none"/>
  <path t="44845,45090,45090,45140,45171,45171,45171,45229,45229,45276,45276,45276,45295,45316,45317,45339,45339,45360,45381,45381,45381,45409,45409,45409,45427,45491,45546,45573,45593,45615,45615,45637,45690,45710,45770,45791,45858,45907,45948,45949,45975,45975,46023,46050,46050,46075,46250,46251" d="M270.29999,156.86667C271.29999,156.86667 272.10001,156.86667 273.008,156.86667C274.06384,156.86667 274.6535,156.86667 275.58801,156.86667C276.63333,156.86667 277.51068,156.86667 278.436,156.86667C279.29999,156.86667 279.88934,156.86667 281.08032,156.86667C281.87067,156.86667 282.70901,156.86667 283.69733,156.86667C284.58566,156.86667 285.51965,156.86667 286.43866,156.86667C287.02267,156.86667 288.00366,156.86667 288.96667,156.86667C289.78116,156.86667 290.6506,156.69177 291.664,156.87733C292.64005,157.05606 293.29486,157.71542 293.79999,158.3875C294.33981,159.10571 294.48907,160.20769 295.18668,160.58133C296.03622,161.03635 297.12961,160.98044 297.29999,161.78267C297.46381,162.55397 297.29834,163.4861 297.72534,164.26666C298.17596,165.09038 298.29999,166.03334 298.29999,166.86667C298.29999,167.7 298.29926,168.56216 298.29999,169.50267C298.30066,170.35066 298.35718,171.214 298.65717,172.1095L299.29999,172.86667L299.79999,173.40834" id="svg_5" stroke-width="3" stroke="#000" fill="none"/>
  <path t="49020,49265,49266,49356,49356,49356,49406,49562,49602,49624,49643,49690,49740,49740,49835,49835,49835,49866,49922,49922,49923,49947,49947,49992,50035,50036,50063,50064,50089,50111,50178,50203,50226,50227,50258,50283,50283,50306,50306,50332,50356,50356,50378,50401,50401,50434,50457,50483,50540,50540,50564,50584,50626,50626,50658,50659,50690,50690,50690,50740,50740,50842,50842,50872,50897,50898,50956,50986,51017,51050,51050,51083,51110,51110,51226,51290,51290,51317,51344,51375,51419,51446,51447,51642,51669,51697,51740" d="M292.29999,156.86667C292.46667,155.86667 292.94269,155.21919 293.63333,154.53334C294.15784,154.01247 294.78241,153.37114 295.664,152.92799C296.47104,152.52232 297.17346,151.94499 298.00449,151.86667C298.86096,151.78595 299.37326,151.11407 300.18268,150.892C300.96643,150.67696 301.98431,150.58867 302.77917,150.36667C303.53229,150.15633 304.65424,149.94981 305.46667,149.7C306.15253,149.48909 306.89279,149.11021 307.89551,148.91933C308.80838,148.74554 309.62573,148.32755 310.46667,148.03334C311.26883,147.75272 312.26059,147.61237 312.88934,147.29201C313.77719,146.83965 314.70001,146.86732 315.60001,146.86667C316.5,146.866 317.33429,146.74191 318,146.16217C318.63513,145.60907 319.39337,144.92882 320.18533,144.868C321.12259,144.79602 321.82559,144.98439 322.79999,144.84584C323.80844,144.70244 324.46292,144.25777 325.41467,143.95067C326.29034,143.66812 326.95261,143.06648 327.79999,142.8875C328.68082,142.70145 329.65005,142.99834 330.39999,142.64534C331.17554,142.28029 332.0087,141.96758 332.82083,141.84584C333.80826,141.69783 334.45139,141.21918 335.41733,140.95067C336.09741,140.76163 337.06772,140.57701 337.82083,140.36667C338.61569,140.14467 339.6225,140.00642 340.45334,139.84134C341.42978,139.64732 342.06717,139.02223 342.936,138.87733C343.93451,138.71082 344.61981,138.64151 345.38266,138.15067C346.03207,137.7328 347.08606,137.88457 347.94818,137.50951C348.61752,137.21832 349.13281,136.29611 349.86932,135.95067C350.5885,135.61336 351.67224,135.43982 352.29999,134.86667C352.90811,134.31143 353.77692,134.0381 354.59549,133.51401C355.33859,133.03824 355.84647,132.37048 356.49866,131.66667C357.03656,131.0862 357.35266,130.22383 358.10132,129.78267L358.86401,129.29201L359.30133,128.58133" id="svg_6" stroke-width="3" stroke="#000" fill="none"/>
  <path t="91960,92147,92147,92203,92254,92276,92276,92296,92322,92344,92780,92805,92891,92921,93046,93046,93074,93075,93102,93179,93229,93229,93289,93289,93316,93372,93438,93438,93465,93547,93637,93788,93788,93816" d="M253.3,144.86667C253.3,143.86667 253.3,143.06667 253.3,142.16667C253.3,141.23067 253.06802,140.33252 253.35716,139.57651C253.70033,138.67923 254.31587,138.16205 254.3,137.22383C254.28424,136.29144 253.57567,135.85416 252.864,136.29201C252.09067,136.76781 251.06166,136.97807 250.65717,137.62833C250.16058,138.42664 250.30469,139.214 250.3,140.23067C250.29567,141.17117 250.13333,142.03334 249.8,142.86667C249.46666,143.7 249.30534,144.45595 249.3,145.36667C249.29468,146.27731 249.4855,147.21761 249.26401,148.00534C249.00412,148.92957 248.31067,149.47734 248.3,150.3875L248.3,151.18784L248.3,152.00534L248.3,153.03467" id="svg_9" stroke-width="3" stroke="#000" fill="none"/>
  <path t="111091,111388,111443,111540,111541,111541,111565,111566,111591,111629,111724,111764,111764,111822,111948,111976,111976,112061,112062,112089,112236,112780,112781,112988,113012,113046,113837,113948,113949,114053,114149,114293,114328,114405,114405,114438,114564,114700,114730,114732,114764,114820,114848,114880,114917,114946,114976,115008,115040,115072,115073,115137,115171,115171,115206,115356,115395,115422,115494,115494,115533,117053,117180,117180,117388,117572,117644,117717,117772,117773,117797,117871,117933,117933,117957,118004,118054,118075,118076,118121,118122,118149,118227,118254,118275,118348,118348,118379,118402,118429,118461,118481,118505,118506,118555,118613,118668,118757,118757,120148,120205,120252,120340,120340,120362,120396,120421,121229,121260,121290,121319,121319,121320,121345,121346" d="M247.3,153.86667C246.77916,156.325 245.93898,156.7103 245.13333,157.2C244.41197,157.63847 243.93237,158.19865 243.18666,158.98134C242.64659,159.54817 242.46742,160.3839 242.28934,161.26666C242.09894,162.21045 241.38501,162.85406 241.30133,163.66667C241.20763,164.57652 241.2942,165.55627 240.73199,166.35066C240.34323,166.89998 239.78596,167.7964 239.28534,168.42C238.78078,169.04851 238.30226,169.62831 238.3,170.51933C238.29782,171.38266 238.3,172.34584 238.3,173.26666C238.3,174.16667 238.13631,175.12396 238.52133,175.96666C238.82713,176.63596 239.3,177.4666 239.3,178.36667C239.3,179.26672 239.15431,180.27141 238.3,180.7C237.56982,181.06631 236.49405,180.48653 235.73599,180.90266C235.08363,181.26077 235.38911,182.53287 235.24283,183.214C235.01578,184.27116 234.44987,184.97095 234.3,185.86667C234.15976,186.70485 233.34273,187.14865 233.3,187.96651C233.25172,188.89073 233.28976,189.72281 232.68933,190.46666C232.16109,191.12108 231.38763,191.57533 230.82083,192.3875C230.3089,193.12103 230.38857,194.07327 229.87466,194.80533C229.41299,195.46298 229.43411,196.27739 229.2955,197.16667C229.15044,198.09735 228.41972,198.60532 227.48534,198.84134C226.63857,199.05522 225.96887,200.04462 226.47067,200.58133C227.07874,201.2317 228.27834,200.86667 229.13333,200.86667C229.94667,200.86667 230.95267,200.86667 231.64734,200.86667C232.65334,200.86667 233.70497,201.03574 234.39999,200.424C234.91496,199.97075 235.37589,198.98941 236.3,198.86667C237.17119,198.75096 237.84583,198.27269 238.48534,197.71733C239.11139,197.17365 240.11131,197.26633 240.864,196.83067C241.55264,196.43208 241.2226,195.19907 241.73599,194.46666C242.28973,193.67671 242.95134,193.06888 243.8,192.8875C244.68036,192.69934 245.75102,193.04161 246.27467,192.43066C246.8884,191.71461 247.01663,190.82025 247.384,190.06667C247.79062,189.23257 248.69899,189.00174 249.58533,188.86534C250.41936,188.73698 251.19316,187.4836 251.94284,187.92833C252.62643,188.33386 251.48572,189.19775 251.07866,189.96666C250.67761,190.7242 250.35925,191.51558 249.87466,192.256C249.38141,193.00964 248.772,194.39467 249.3,194.39467C250.24934,194.39467 249.3,192.53334 249.3,191.86133L249.3,190.87199L249.30133,189.83734L249.38533,189.06934" id="svg_12" stroke-width="3" stroke="#000" fill="none"/>
  <path t="121672,121812,121860,121884,121884,121918,121918,121939,121939,121960,121960,122054,122106,122126,122173,122220,122325,122325,122398,122469,122469,122469,122504,123268,123324,123324,123387,123387,123387,123387,123469,123506,123506,123525,123525,123550,123581,123606,123626,123654,123655,123685,123685,123738,123788,123807,123830,123854,123876,124029,124180,124240" d="M251.3,186.86667C251.3,188.56667 251.3,189.50267 251.3,190.35201C251.3,191.27116 251.3,192.26666 251.3,193.06667C251.3,194.0665 251.3,194.84584 251.3,195.84517C251.3,196.66533 251.3,197.46666 251.3,198.36667C251.3,199.26666 251.40704,200.17322 251.29866,201.06667C251.1871,201.9863 250.47115,202.52135 249.664,202.92799C248.78119,203.37277 248.29381,203.88113 247.784,204.384C246.93623,205.22021 246.0574,206.19894 246.63333,206.7C247.18904,207.18346 248.48486,206.56879 249.24367,206.15683C249.77214,205.86992 250.73346,205.53233 251.192,204.492C251.57629,203.6201 251.11697,202.80144 251.5215,201.88834C251.85277,201.14056 252.90979,200.87204 253.35266,200.16217C253.77032,199.49271 254.08206,198.60944 254.5215,197.76649C254.89845,197.04341 255.43677,196.34099 255.89999,195.728C256.51733,194.91109 257.04947,194.39296 257.3045,193.57117C257.54132,192.80809 258.28934,192.256 258.32083,191.3875L258.87466,190.84134L259.2955,190.16217L259.29999,189.26666" id="svg_13" stroke-width="3" stroke="#000" fill="none"/>
  <path t="126708,127037,127039,127165,127189,127209,127380,127380,127427,127508,127508,127605,127636,127661,127688,127709,127709,127728,127754,127754,127828,127853,127917,127970,127970,127990,128077,128077,128380,128380,128440,128442,128442,128460,128460,128488,128508,128538,128687,128716,128739,128759,128789,128789,128813,128853,128904,129037,130228,130285,130285,130316,130316,130316,130316,130343,130343,130756,130781,130782,130782,130806,130807,130807,130807,130807,130808,130811,130811,130831,130831,130832,130832,130832,130832,130833,130949,130949,130949,130969,130970,132188,132214,132271,132271,132272,132296,132296,132353" d="M261.29999,192.86667C261.46667,191.86667 262.00327,191.22112 262.79999,190.86667C263.59879,190.51129 264.39386,189.92755 265.29999,189.86667C266.09821,189.81303 266.95148,189.85483 267.784,190.15067C268.6666,190.46431 269.55835,190.69475 270.39984,190.86684C271.24561,191.03981 271.10184,192.02725 271.46667,192.86667C271.76419,193.55121 272.79312,194.05487 273.1785,194.96666C273.45502,195.62088 273.14377,196.72328 273.336,197.47734C273.55579,198.33946 274.2287,199.18259 274.28934,200.00534C274.35266,200.86441 274.29999,201.73866 274.29999,202.46933C274.29999,203.45767 274.1431,204.56238 274.96432,204.86667C275.55789,205.08659 276.35632,204.86667 277.612,204.86667C278.41733,204.86667 279.24109,204.73589 279.91068,204.29201C280.70923,203.76263 281.29999,203.50951 281.29999,202.56667C281.29999,201.66667 281.29999,200.76666 281.29999,199.86667C281.29999,199.06667 281.29999,198.16667 281.29999,197.26666C281.29999,196.36667 280.98132,195.40462 281.30899,194.57117C281.61551,193.79149 282.59329,193.87201 283.63333,193.86667C284.26801,193.86342 285.29999,193.86667 285.99466,193.86667C287.25665,193.86667 288.00665,193.86667 288.96667,193.86667C289.88,193.86667 290.48749,193.86667 291.10916,193.86667C292.46667,193.86667 293.05005,193.86011 294.38666,193.87567C295.12006,193.88422 295.88358,193.9026 296.66666,193.93866C297.46027,193.97519 298.2572,194.004 299.79999,194.2C300.53687,194.29361 301.23935,194.42668 301.90601,194.57651C302.54071,194.71915 303.69226,195.0394 304.20065,195.21851C305.47818,195.66859 306.28433,196.17387 307.03467,196.505C307.91562,196.89378 308.97635,196.68604 309.29999,197.3875C309.673,198.196 309.77774,199.06061 310.36249,199.51483C311.03589,200.03793 311.96667,200.53334 312.75833,200.84584L313.59549,201.22383" id="svg_14" stroke-width="3" stroke="#000" fill="none"/>
  <path t="161512,162020,162020,162071,162092,162092,162136,162213,162236,162255,162255,162279,162279,162302,162303,162325,162326,162380,162380,162454,162454,162508,162635,162636,162671,162781,162819,162819,162925,162925,162962,162963,163003,163039,163149,163149,163229,165629" d="M289.29999,196.86667C290.13333,197.2 290.20969,198.05646 290.30133,198.98134C290.39014,199.87759 291.00449,200.50951 291.79999,200.86667C292.59549,201.22383 293.04752,202.01976 293.46667,202.86667C293.81073,203.56184 294.3941,204.19151 294.79999,204.86667C295.39145,205.85052 295.84109,206.33817 296.39999,207.188C296.83286,207.84619 297.26465,208.72899 297.79999,209.34584C298.45859,210.10471 299.09998,210.6667 299.70001,211.26666C300.39996,211.96654 300.99915,212.5114 301.79999,212.86667C302.59918,213.22122 303.48172,213.59767 304.10001,214.036C304.84641,214.56516 305.12219,215.43919 306.12534,215.80533C306.78809,216.04723 307.73108,216.46997 308.59549,216.80949C309.43271,217.13834 310.00449,217.51401 310.89999,217.856L311.79999,217.8875" id="svg_17" stroke-width="3" stroke="#000" fill="none"/>
  <path t="169166,169486,169621,169694,169712,170005,170005,170069,170373,170519,170573,170598,170598,170725,170813,170869,170890,170936,171134,171134,173654,173730,173756,173783,173807,173807,173807,173851,173902,173927,173927,173960,173960,173960,173960,173961,173961,174005,174005,174005,174005,174086,174086,174086,174087,174087,174126,174126,174173,174174,174174,174236,174236,174236,174237,174278,174336,174337,174414,174454,174455,174490,175949,176007" d="M333.29999,199.86667C334.216,200.15067 334.92303,200.61641 335.27917,201.3875C335.64804,202.18616 335.56345,203.08621 336.10132,203.66667C336.75354,204.37051 337.79929,204.55206 338.24283,205.22383C338.76315,206.01186 337.99313,206.91347 337.58401,207.66667C337.15082,208.4642 336.59549,208.86441 335.60001,208.86667C334.70001,208.8687 333.66904,208.82397 333.35266,209.57201C333.06464,210.25299 332.37552,210.80119 331.82083,211.3875C331.13364,212.11385 330.73877,212.75813 330.20016,213.53084C329.80759,214.09404 329.76196,214.8979 329.35266,216.04784C329.08185,216.80869 328.06332,216.78835 327.37134,217.09534C326.58688,217.44336 325.95779,217.99892 325.18799,218.58934C324.77652,218.90492 323.95084,219.56712 323.55066,219.90134C322.45667,220.81497 321.88,221.37971 321.02399,222.04533C320.46185,222.48244 319.44098,223.07625 318.64651,223.46217C318.23709,223.66106 317.40451,224.0146 316.63733,224.38133C315.42905,224.95892 314.80637,225.33743 314.29999,226.2C313.92664,226.83595 313.73557,227.75771 312.79999,228.36667C312.03217,228.86644 311.30466,228.73955 310.43735,228.948C309.41522,229.19365 309.07849,230.08817 308.49866,230.668C307.79999,231.36667 307.20001,231.96651 306.60001,232.50951L305.73599,232.892L305.216,233.58267L304.53833,233.86217" id="svg_18" stroke-width="3" stroke="#000" fill="none"/>
  <path t="177720,178077,178128,178148,178169,178170,178189,178189,178220,178254,178301,178326,178327,178366,178430,178536,178536,178589,178589,178609,178609,178710,178736,178861" d="M310.29999,218.86667C310.13333,220.7 309.61649,221.26425 308.94284,221.814C308.23831,222.38892 307.55225,222.58548 306.65182,223.16667C306.0163,223.57687 305.47739,224.34409 304.94733,224.87117C304.4043,225.41115 303.75986,226.11984 303.11465,226.43066C302.22049,226.8614 301.52094,227.25299 300.96667,227.86667C300.39688,228.49754 299.43744,228.83104 298.82083,229.36667C298.06299,230.02498 297.58533,230.66667 297.27466,231.46666L296.86401,232.256L296.10132,232.78267" id="svg_19" stroke-width="3" stroke="#000" fill="none"/>
  <path t="181551,181741,181846,181878,181926,182053,182092,182128,182129,182218,182285,182285,182285,182814,182894,182895,182937,182938,182938,182975,182976,182976,183389,183452,183452,183490,183530,183530,183615,183616,183654,183679,183679,183797,183797,183852,183925,183926,183926,183947,183947,183947,183971,183990,184018,184069,184070,184366,184462,184462,184934" d="M305.29999,233.86667C307,233.86667 308.01215,233.44997 308.86401,233.90266C309.59525,234.29124 309.77588,235.4305 310.60001,235.814C311.36655,236.1707 312.05084,236.5486 312.65717,237.22833C313.34293,237.9971 313.66705,238.71216 314.10001,239.38266C314.65878,240.24805 315.59082,240.56578 316.01468,241.20667C316.46759,241.89151 316.35001,242.92273 316.04266,243.81599C315.75476,244.65283 315.0166,245.13329 314.15201,245.57733C313.29239,246.01884 313.27155,247.01404 312.59549,247.50951C311.88336,248.0314 310.81375,247.94243 310.00983,247.86667C309.12155,247.78296 308.42892,247.28047 307.70001,246.80533C306.9006,246.28424 306.6254,245.49762 306.10132,244.752C305.60864,244.05103 305.29877,243.19177 304.73065,242.38C304.32043,241.79385 303.73441,241.20744 303.18533,240.18533C302.91129,239.6752 302.54459,238.68552 301.91068,237.964C301.33716,237.31122 300.96811,236.5426 300.29999,235.86667C299.72113,235.28104 298.89999,234.88133 298.20016,234.424L297.73599,233.71733L297.27917,232.8875" id="svg_20" stroke-width="3" stroke="#000" fill="none"/>
  <path t="189943,190351,190351,190404,190426,190448,190449,190477,190508,190508,190586,190643,190643,190644,190670,190670,190670,190670,190693,190693,190693,190694,190733,190829,190829,191046,191047,191934,191987,192020,192021,192148,192149,192210,192254,192254,192254,192254,192295,192295,192340,192341,192965,193045,193188,193189,193277,193350,193350,193407,193459,193507,193507,193507,193562,193853,193853,194294,194340,194390,194397,194397,194444,194516,194516,194596,194644,194644,194711,194743,195166,195192,195193,195219" d="M322.29999,222.86667C323.13333,222.36667 323.19522,223.30713 323.82083,223.84584C324.474,224.40828 325.23785,224.96002 325.29868,225.752C325.37064,226.68924 325.29999,227.7 325.29999,228.45599C325.29999,229.3875 325.29999,230.356 325.29999,230.95C325.29999,231.724 325.29999,232.73083 325.29999,233.52916C325.29999,234.3875 325.29886,235.26584 325.29999,236.53334C325.30066,237.29333 325.24335,238.29327 325.38535,239.09334C325.55933,240.07358 326.21204,240.854 326.2955,241.62384C326.39203,242.51413 326.29999,243.38266 326.29999,244.34584C326.29999,245.17117 326.29999,246.188 326.29999,246.86667C326.29999,247.84517 326.29999,248.66533 326.29999,249.61067C326.29999,250.53334 326.29999,251.20267 326.29999,251.968C326.29999,252.76534 326.29999,254.2 326.29999,254.938C326.29999,255.86667 326.31729,256.66681 326.29999,257.56668C326.28198,258.50317 325.99863,259.34363 325.72534,260.04132C325.3606,260.9725 325.2637,262.00357 324.59549,262.50949C323.90027,263.03586 323.02859,263.27078 322.13333,263.86667C321.4964,264.29062 320.63873,264.29895 319.84167,264.88751C319.16409,265.38785 319.28375,266.38412 319.29999,267.34583C319.31537,268.25644 319.96051,268.78363 320.82083,268.84583C321.53174,268.89722 322.66299,268.94794 323.62115,268.64532C324.30258,268.43011 325.24268,267.92126 325.29999,267.15683C325.36038,266.35159 325.12424,265.27509 325.65717,264.57117C326.2272,263.81824 327.29999,263.70001 327.89999,263.29199L328.77917,262.88751" id="svg_21" stroke-width="3" stroke="#000" fill="none"/>
  <path t="202614,202780,202840,202840,202863,202863,202863,202863,202885,202885,202910,202911,202936,202938,202938,202963,202963,202981,202982,203008,203008,203034,203035,203055,203055,203084,203107,203133,203134,203155,203156,203185,203185,203237,203238,203256,203294,203357,203357,203383,203384,203403,203435,203435,203456,203486,203486,203534,203534,203773,203773,203825,203825,203852,203876,203876,203909,203909,203966,204140,204277,204303,204350,204378,204408,204408,204478,204529,204684,204799,204829,204891,204891" d="M333.29999,212.86667C333.29999,213.8875 333.29999,214.84584 333.29999,215.60001C333.29999,216.53334 333.29999,217.57733 333.29999,218.36667C333.29999,219.15601 333.29999,220.2 333.29999,221.13333C333.29999,222.03334 333.29999,222.8875 333.29999,223.86667C333.29999,224.66667 333.29999,225.46666 333.29999,226.46666C333.29999,227.26666 333.29999,228.26534 333.29999,229.03067C333.29999,229.98399 333.29999,230.836 333.29999,231.63467C333.29999,232.616 333.29999,233.53334 333.29999,234.44533C333.29999,235.26666 333.29999,236.16667 333.29999,237.06934C333.29999,237.83734 333.29999,238.87199 333.29999,239.616C333.29999,240.72383 333.29999,241.48134 333.29999,242.35066C333.29999,243.214 333.29999,244.23067 333.29999,245.06799C333.29999,246.03334 333.29999,246.86667 333.29999,247.84517C333.29999,248.56216 333.29999,249.50267 333.29999,250.35066C333.29999,251.214 333.29999,252.24133 333.29999,253.18817C333.29999,253.8875 333.29999,254.86667 333.29999,255.65601C333.29999,256.70001 333.29999,257.492 333.29999,258.35068C333.29999,259.21399 333.42282,260.28699 333.01468,261.06799C332.69223,261.68503 332.01883,262.53052 331.60001,263.21399C331.12244,263.99335 330.69632,264.80591 330.26401,265.44135C329.78613,266.14377 329.15604,266.69815 328.44934,267.26666C327.66016,267.90155 327.31131,268.68237 326.49866,268.86533C325.62195,269.06268 324.70001,268.86667 323.82083,268.88751L323.23868,269.44135L322.42801,269.82001L321.69733,269.78" id="svg_23" stroke-width="3" stroke="#000" fill="none"/>
  <path t="207461,207868,207926,207926,207976,207976,207976,207976,207976,208012,208012,208012,208013,208047,208048,208077,208100,208237,208261,208262,208317,208367,208367,208405,208406,208444,208445,208445,208468,208494,208494,208549,208549,208573,208604,208627,208627,208627,208741,208816,208816,209101,209168,209168,209168,209300,209301,209420,209420,209470,209470,209470,209549,209549,209607,209607,209667,209667,209668,209668,209668,209668" d="M336.29999,203.86667C336.29999,202.86667 336.46136,202.01814 337.23315,201.75684C338.27887,201.40279 339.02216,201.15384 339.42267,200.98399C340.27618,200.62206 341.15274,200.20879 341.96667,199.7C342.74496,199.21349 343.40659,198.66257 344.00665,198.164C344.96652,197.36649 345.6235,196.92075 346.60001,196.86667C347.49863,196.81689 348.39999,196.86667 349.29999,196.86667C350.10001,196.86667 350.936,196.86667 351.94818,196.86667C352.73065,196.86667 353.76843,197.04591 354.32083,197.40834C355.17789,197.97067 355.64801,198.70233 356.09866,199.38266C356.66937,200.24422 357.17892,200.96693 357.35266,201.681C357.58435,202.63326 357.86206,203.32762 358.13333,204.36667C358.35635,205.22095 358.44547,206.20642 358.65717,206.86751C358.88782,207.58774 359.49094,208.64096 360.29999,208.86667C361.00775,209.06412 361.1796,210.00334 361.79999,210.7C362.2627,211.2196 363.1041,211.37032 364.15683,211.96651C364.87744,212.3746 365.63333,212.86667 366.34167,212.86667C367.29999,212.86667 368.1095,212.8083 368.89999,212.952C369.91531,213.13655 370.67767,213.52165 371.56082,214.18016C372.05429,214.54811 372.96301,215.37115 373.64133,215.92C374.02661,216.23174 374.88333,216.8875 375.34268,217.22667L375.81799,217.56583" id="svg_24" stroke-width="3" stroke="#000" fill="none"/>
  <path t="215413,215599,215678,215678,215678,215732,215732,215732,215733,215733,215733,215733,215784,215784,215784,215784,215854,215854,215854,215854,215854,215910,215910,215911,215911,215911,215911,215911,215911,215911,215958,215959,215959,215959,215959,215959,216009,216009,216068,216068,216110,216110,216110,216110,216183,216183,216183,216183,216238,216238,216238,216238,216238,216238,216317,216317,216317,216318,216378,216379,216379,216637,216637,216704,216776,216776,216776,216776,216843,216844,216844,216844,216845,216845,216897,216898,216899,216989,216989,217021,217050,217084,217084,217085,217111,217112,217147,217147,217149,217149,217150,217178,217178,217178,217178,217179,217235,217235,217295,217296,217353,217353,217411,217412,217468,217534,217535,217637,217637,217756,217757,217835,217836,217836,217902,217903,217903,217903,217904,217904,217967,217968,217968,217968,217968,217969,218000,218001,218001,218001,218002,218002,218002,218003,218028,218029,218029,218029,218030,218077,218077,218103,218245,218294,218328,218332,218333,218333,218333,218334,218334,218366,218367,218367,218367,218368,218368,218368,218369,218369,218400,218401,218401,218402,218402,218402,218628,218699,218699,218766,218766,218767,218767,218767,218838,218839,218839,218840,218840,218840,218841,218879,218879,218880,218884,218885,218917,218918,218918,218919,218919,219061,219062,219102,219132,219133,219133,219134,219134,219405,219406,219406,219436,219464,219464,219494,219494,219526,219526,219555,219556,219637,219667,219696,219813,219815,219982,220013,220050,220051,220051,220083,220083,220084,220084,220085,220118,220119,220119,220150,220151,220221,220221,220252,220284,220316,220344,220344,220405,220503,220504,220563,220650,220716,220716,220779,220780,220780,220782,220846,220848,220848,220849,220849,220850,220916,220917,220917,221047,221119,221124,221187,221187,221188,221189,221189,221190,221265,221266,221349,221382,221383,221416,221420,221450,221451,221485,221590,221591,221661,222037,222104,222381,222416,222461,222515,222693,223133,223173,223195,223196,223279,223280,223316,223317,223317,223318,223437,223438,223438,223470,223471,223504,223505,223537,223570,223637,223877,223935,223936,223978,223979,223979,224016,224017,224018,224229,224230,224230,224271,224333,224366,224401,224402,224403,224436,224437,224500,224500,224534,224535,224567,224568,224632,224633,224665,224690,224691,224766,224766,224821,224822,224998" d="M358.29999,127.86667C358.29999,125.24133 358.29999,124.37334 358.29999,123.72083C358.29999,122.75333 358.29999,121.86667 358.29999,120.76266C358.29999,120.15067 358.29999,119.51466 358.29999,118.21867C358.29999,117.58266 358.29156,116.97064 358.30032,115.39533C358.30475,114.60063 358.27026,113.93598 358.47067,113.104C358.77014,111.86074 359.19846,111.14925 359.40417,110.74167C359.86804,109.82262 360.15137,109.31847 360.79999,108.2C361.16013,107.57898 361.55145,106.92951 361.96249,106.256C362.38474,105.56415 362.81903,104.86553 363.26001,104.168C363.69736,103.4762 364.12402,102.79651 364.96667,101.53333C365.71838,100.40645 366.07373,99.90675 366.40668,99.44267C367.00146,98.61358 367.50275,97.90842 368.32935,96.92267C368.86353,96.28565 369.4812,95.64078 370.11432,95.1095C370.82034,94.51702 371.5741,94.02682 372.15732,93.692C372.77924,93.33497 373.81384,92.86491 374.56168,92.62833C375.33435,92.38389 376.1564,92.18917 377.46667,92.03333C378.38116,91.92457 378.85233,91.91383 379.79999,91.8875C380.74713,91.86118 381.216,91.86734 382.57834,91.86667C383.43832,91.86625 384.25833,91.86667 385.03833,91.86667C386.47818,91.86667 387.13382,91.86667 388.01733,91.86667C388.96667,91.86667 390.0993,91.80371 390.25333,92.58533C390.40616,93.36091 389.94656,94.24481 389.75833,94.95C389.54752,95.73985 389.13593,97.03423 388.97882,97.48783C388.65714,98.41669 388.31677,99.34444 388.16135,99.80534C387.86145,100.69472 387.53464,101.92184 387.40533,102.64333C387.23898,103.57154 387.06796,104.62875 386.44934,105.184C385.73083,105.82889 385.29999,105.30417 385.29999,104.324C385.29999,103.616 385.1246,102.85651 385.31799,101.6675C385.42972,100.98055 386.17563,100.09293 386.72867,99.50417C387.0383,99.17454 387.72595,98.48725 388.50534,97.83334C389.28378,97.18019 390.08658,96.62205 390.87866,96.16C391.25345,95.94139 392.31107,95.38332 393.25684,95.10966C394.00562,94.89301 395.19281,95.0973 395.88934,94.79467C396.7655,94.41399 396.95636,93.39673 397.784,93.03733C398.58966,92.68748 399.664,92.86667 400.50266,92.86667C401.27066,92.86667 402.3078,92.83433 403.04935,92.90266C403.97202,92.98769 404.97388,93.59116 404.5105,94.18017C404.07346,94.73568 403.35025,94.91561 402.21432,95.63084C401.75955,95.91718 400.77765,96.55383 400.25833,96.8875C399.72968,97.22717 398.6701,97.90781 397.63333,98.53333C397.14487,98.82803 396.20282,99.36614 395.75067,99.63734C394.84427,100.18098 394.36487,100.44687 392.96667,101.53333C392.44617,101.93779 391.93045,102.39935 391.40366,102.88184C390.86633,103.37397 390.33643,103.88224 389.82266,104.40134C388.82837,105.40594 387.96072,106.36153 387.58633,106.80183C386.92703,107.57726 386.39279,108.24183 386.03232,108.83884C385.41354,109.86362 385.30133,110.664 385.29999,111.56667C385.29858,112.5095 385.75766,112.80782 386.63333,112.7C387.58304,112.58305 388.15768,112.50758 388.78799,112.42C390.18613,112.22573 390.93692,112.11058 391.71066,111.98C393.30197,111.71146 394.10022,111.54882 394.896,111.38267C395.68723,111.21746 396.46835,111.04298 397.23749,110.86667C397.99237,110.69362 398.72836,110.51876 399.444,110.35067C400.79974,110.03224 401.4339,109.88493 402.60599,109.62833C403.13834,109.51179 404.0871,109.30875 404.86932,109.15334C406.01285,108.92613 406.36182,109.60863 406.12851,110.39C405.87845,111.22755 405.45712,111.84828 404.98132,112.54933C404.448,113.3351 404.13507,113.73724 403.13333,115.03333C402.78085,115.4894 402.0517,116.41473 401.68533,116.88133C401.32071,117.34573 400.60736,118.25494 400.26935,118.69733C399.33603,119.91882 399.06216,120.29366 398.56134,121.016C398.07837,121.71256 397.61282,122.43185 396.87885,123.609C396.61572,124.03099 396.08722,124.89717 395.56134,125.744C395.31073,126.14756 394.66699,127.22478 394.11884,127.9335C393.50314,128.72957 394.29999,128.86667 395.00665,128.86667C395.87332,128.86667 396.34167,128.86667 397.29834,128.86667C398.63333,128.86667 399.35608,128.85423 400.17499,128.86667C401.22836,128.88268 401.34616,129.72307 401.26401,130.62666C401.18106,131.53894 400.80939,132.35362 400.19983,132.96666C399.57248,133.5976 398.77286,134.00154 398.16135,134.46666C397.34653,135.08641 397.38211,136.07043 397.29984,136.96666C397.21616,137.87811 396.53305,138.40303 396.32083,139.36667C396.12494,140.25607 396.46265,141.22133 396.88333,141.90834C397.30133,142.59096 398.06046,143.29213 398.65799,143.82384C399.29623,144.39175 399.95834,144.95517 400.24799,145.26801C401.30548,146.41023 401.64664,147.03221 401.92932,147.9095C402.25598,148.92328 402.09491,149.66797 402.46667,150.7C402.71011,151.37585 403.62708,151.6414 404.49866,151.868C405.30093,152.07657 405.68414,153.01421 406.01599,153.752C406.4129,154.63441 406.62796,155.54504 407.29999,155.84584C408.17892,156.23926 408.09775,157.14276 408.52182,157.96683C408.84521,158.59526 409.84222,159.19003 410.32333,159.53284C410.88208,159.93095 411.53128,160.37477 412.63333,161.2C413.47009,161.82658 413.90076,162.16129 414.73749,162.86667C415.14575,163.21083 415.95602,163.83376 416.69266,164.8235C417.06128,165.3188 417.41507,166.17653 417.64816,167.105C417.82712,167.81775 416.98532,167.86728 415.87201,167.8665C415.396,167.86617 414.3479,167.86011 413.79999,167.84584C412.71576,167.81761 412.17963,167.924 410.612,167.58267C409.90833,167.42946 408.89481,167.05505 408.19983,166.424C407.68289,165.95459 407.16708,165.07475 406.29999,164.90834C405.33817,164.72375 404.50134,164.86853 403.664,164.86667C402.65182,164.86441 401.78937,164.8519 401.25183,164.16217C400.71158,163.46895 400.30225,163.57565 400.29999,164.46666C400.2977,165.36667 400.31546,166.25179 400.87466,166.892C401.41446,167.50998 402.39755,167.41933 403.05701,168.08833C403.74197,168.78323 403.38666,169.69574 403.29999,170.7C403.22772,171.53731 402.6521,172.22163 401.88034,172.87199C401.27261,173.38412 400.60873,173.87943 399.63333,174.53334C399.07883,174.90509 398.40076,175.40564 397.46667,175.7C396.69675,175.94261 395.64734,175.86667 394.95267,175.86667C393.936,175.86667 392.97763,175.66867 392.10132,175.868C391.30682,176.04871 391.86786,176.81979 392.70901,176.86217C393.70142,176.91216 394.34167,176.86586 395.07068,176.86667C396.26801,176.86801 396.95911,176.81895 397.99466,176.981C398.97906,177.13504 399.80954,177.52869 400.40668,178.01601C401.17691,178.64459 401.9216,179.20819 402.21466,180.06799C402.52734,180.98528 402.39362,181.73439 402.12933,182.468C401.74738,183.52831 401.18643,184.09764 400.32132,184.62399C399.59634,185.06508 398.75137,185.37698 398.16135,186.088C397.56055,186.812 397.36087,187.6553 397.29999,188.7C397.25595,189.45557 396.88498,190.28719 396.19983,190.96666C395.67944,191.48273 394.81732,192.06799 394.16135,192.50267L393.543,193.188L393.32132,194.04134L393.29999,194.98" id="svg_25" stroke-width="3" stroke="#000" fill="none"/>
  <path t="227591,228246,228325,228326,228382,228461,228482,228557,228616,228645,228670,228741,228837,228837,228885,228933,228956,228984,229033,229055,229118,229141,229165,229185,229185,229309,229366,229366,229398,229398,229469,229469,229574,229661,229750,229814,229845,229869,229869,229893,229934,229960,229960,229980,230002,230048,230221,230242,230264,230286,230286,230398,230885,230997,231415,231453,231476,231497,231497,231581,231613,231645,231646,231667,231668,231689,231690,231711,231766,231787,231837,231885,231958,231983,232032,232082,232083,232102,232149,232149,232182,232204,232231,232268,232295,232348,232369,232417,232446,232446,232446,232475,232475,232505,232506,232533,232534,232566,232567,232567,232598,232598,232627,232628,232655,232715,232716,232741,232742,232760,232842,232843,232843,232885,232886,232886,232887,232887,232920,232920,232953,233189,233965,234078,234131,234182,234183,234211,234211,234211,234240,234240,234271,234298,234298,234299,234327,234357,234384,234421,234421,234422,234567,234600,234601,234636,234669,234703,234743,234744" d="M377.29999,217.86667C378.21466,218.15334 378.29999,219.03334 378.29999,219.84584C378.29999,220.80533 378.24185,221.57063 377.79999,222.36667C377.3562,223.16614 377.43732,224.14778 376.94733,224.814C376.44409,225.49821 376.29999,226.27733 376.29999,227.18784C376.29999,228.00534 376.15372,228.84433 375.72534,229.47734C375.17285,230.29378 374.76282,231.07222 374.42151,231.96651C374.116,232.767 373.74368,233.35934 373.32535,234.26666C372.96622,235.04559 372.54041,235.8942 372.24734,236.56667C371.86981,237.43294 371.16306,238.16855 370.82083,238.86667C370.42227,239.6797 370.35571,240.49367 370.2955,241.51483C370.24921,242.30014 369.51944,242.86604 369.30133,243.668C369.06055,244.55327 368.44864,244.87935 367.79999,245.3875C367.03223,245.98897 366.42197,246.59863 365.82083,247.36667C365.31226,248.01642 365.2088,249.12317 364.49866,249.58133C363.78897,250.03918 362.69064,249.6993 362.00449,250.22383C361.2543,250.79732 361.73425,252.09908 361.13333,252.7C360.53241,253.30093 359.52136,252.98877 358.70001,253.44133C357.92914,253.86607 357.21384,254.22826 357.29999,255.06534C357.38376,255.87952 358.40128,255.91447 359.29999,255.86667C360.10342,255.82394 360.72183,255.17732 361.60449,254.92383C362.58353,254.64265 363.32086,254.87329 364.29999,254.86667C365.08939,254.86133 366.13751,254.70799 366.77917,254.36667C367.60098,253.9295 368.32846,253.49069 368.87466,252.84134C369.40927,252.20578 369.82498,251.39432 370.59549,250.91933C371.25095,250.51527 371.46814,249.50403 372.29999,249.03334C372.93845,248.67209 373.78027,248.32489 374.5,247.668C375.0845,247.13451 376.08835,246.86713 376.29868,246.06534C376.51273,245.2494 377.14581,244.82114 377.82083,244.36667C378.56287,243.86708 379.13129,243.41348 379.30899,242.56216C379.49722,241.66045 380.1998,241.06583 380.59467,240.46217C381.21329,239.51645 381.20743,238.61659 381.74268,237.888C382.19449,237.27299 383.09885,236.55705 383.27917,235.84584C383.5242,234.87946 383.75351,234.07635 383.94733,233.46666C384.26093,232.48019 384.27548,231.66643 384.30017,230.66701C384.32312,229.73825 384.92014,229.02998 385.21466,228.29601C385.52832,227.51437 385.29892,226.468 385.29999,225.70267C385.30133,224.752 385.64404,223.87938 386.172,223.424C386.72046,222.95094 387.51678,221.8903 387.89099,221.15601C388.0878,220.76984 388.448,219.97557 388.72934,219.20267C389.16025,218.0188 389.29865,217.07201 389.29999,216.16667C389.3013,215.26666 389.29999,214.36667 389.29999,213.46666C389.29999,212.56216 389.29999,211.7 389.29999,210.84584C389.29999,209.86667 389.29999,209.06667 389.29999,208.26666C389.29999,207.27116 389.29999,206.52383 389.29999,205.48134C389.29999,204.53334 389.29999,203.86133 389.29999,202.87199C389.29999,201.83867 389.29999,200.98801 389.29999,200.18401C389.29999,199.32417 389.29999,198.3875 389.29999,197.72C389.29999,196.58 389.29999,195.7 389.29999,194.86667C389.29999,193.88834 389.29999,192.98801 389.29999,192.22L389.29999,191.214L389.29999,190.51933" id="svg_26" stroke-width="3" stroke="#000" fill="none"/>
  <path t="236791,236984,237046,237047,237069,237070,237070,237099,237099,237120,237120,237144,237183,237183,237208,237236,237255,237295,237348,237349,237370,237486,237507,237533,237559,237583,237583,237609,237631,237631,237631,237656,237657,237693,237805,237806,237918,237918,238326,238384,238416,238416,238416,238438,238439,238466,238488,238516,238663,238663,238688,238712,238712,238766,238766,238787,238819,238910,238910,238950,239007,239008,239035,239035,239068,239068,239090,239090,239117,239117,239141,239168,239168,239193,239217" d="M371.29999,214.86667C371.29999,214.42917 371.29999,215.35333 371.29999,216.11333C371.29999,217.28783 371.30096,218.08133 371.29999,218.85683C371.29865,219.896 371.16495,220.70676 370.44934,221.26666C369.89359,221.70151 369.32303,222.54369 368.59467,223.16667C368.05341,223.62964 367.54547,224.37866 366.94284,225.16217C366.43185,225.82655 365.57056,226.08282 365.13333,226.86667C364.76974,227.51852 364.1734,228.39682 363.35266,228.80949C362.66852,229.15349 361.62216,229.30002 361.35718,230.17117C361.06082,231.14537 361.57816,232.02315 360.93832,232.76134C360.33789,233.45409 359.46771,233.7207 358.95267,234.21851C358.17468,234.97046 357.68219,235.65247 356.88934,236.256C356.19171,236.78705 355.25745,236.72208 354.46667,237.03334C353.67957,237.34317 353.17941,238.6828 353.86249,238.80417C354.89761,238.98808 355.5451,238.00652 356.04935,237.71733C357.14532,237.08881 357.87857,236.8828 358.79999,236.86667C359.69995,236.85092 360.70474,236.72098 361.13333,235.86667C361.49966,235.13649 361.25745,234.13988 362.01434,233.57117C362.63525,233.10461 363.69617,232.91902 364.46399,232.87733C365.41333,232.82579 366.46057,233.06483 367.29999,232.7C367.98456,232.40247 368.67194,231.61925 369.13333,230.86667C369.53864,230.20557 370.1517,229.66302 370.82083,229.36667C371.96393,228.86041 372.72156,228.53877 373.17883,227.76666C373.56503,227.11456 374.17551,226.48903 374.81732,226.06667C375.68417,225.4962 376.39984,224.76666 376.94284,224.16667L377.27917,223.36667L377.31067,222.46666" id="svg_27" stroke-width="3" stroke="#000" fill="none"/>
  <path t="244498,244918,245094,245094,245094,245247,245302,245421,245495,245495,245806,246014,246014,246115,246134,246310,246310,246398,246518,246565,246950,246950,246973,247078,247131" d="M251.3,171.86667C251.32083,170.825 251.41296,169.84625 251.73599,169.07733C252.05054,168.32858 252.50291,167.23604 253.32083,166.8875C254.09428,166.55789 255.13333,166.86667 255.88933,166.86667C256.86401,166.86667 257.29999,167.43466 257.29999,168.16133C257.29999,169.15199 257.50912,170.1463 257.07849,170.96651C256.74066,171.60994 255.70004,171.86133 254.8,171.86667C253.91068,171.87193 252.96666,171.86667 252.27916,171.86667L251.3215,171.86667L250.3,171.86667L249.46666,172.03334" id="svg_28" stroke-width="3" stroke="#000" fill="none"/>
  <path t="257943,258383,258656,258656,258719,258767,258767,258799,258822,258840,258861,259250,259277,259277,260262,260647,260671,260672,260699,260700,260700,260720,260750,260832,261063,261065,261183,261391,261449,261719,261719" d="M239.3,196.86667C238.3,196.86667 237.38504,197.01936 237.30133,197.75333C237.19496,198.68596 237.3,199.7 237.3,200.505C237.3,201.3875 237.29797,202.26666 237.3,203.16667C237.30226,204.16219 237.72386,204.68059 238.5,205.15199C239.17638,205.56282 239.71594,206.53995 240.60451,206.80949C241.43135,207.06032 242.32085,206.87329 243.3,206.86667C244.0894,206.86133 244.834,206.82368 245.77916,206.36667C246.61884,205.96066 247.55731,206.04022 248.3,205.7C249.11949,205.32458 249.8,204.86667 250.3,204.43066L250.3,203.56216L250.3,202.7L250.32083,201.8875" id="svg_30" stroke-width="3" stroke="#000" fill="none"/>
  <path t="268986,269959,270249,270316,270887" d="M252.3,158.86667C252.3,160.56667 252.3,161.46666 252.27916,162.36667L251.864,163.256" id="svg_31" stroke-width="3" stroke="#000" fill="none"/>
  <path t="271799,272118,272162,272191,272192,272232,272253,272479,272547,272598,272671,272712,272732,272754,272754,272927,272953,272975,272976,273064,273288,273344,273416,273416,273719,274727,275456,275456,275576,275639,275639,275662,276064,276065,276135,276182,276232,276282,276383,276404,276404,276432,276458,276458,276488,276489,276489,276489,276489,276518,276518,276518,276518,276519,276519,276519,276519,276519,276574,276574,276574,276574,276574,276575" d="M249.3,159.86667C248.46666,160.03334 247.93837,160.62794 247.20016,161.08817C246.483,161.53526 246.64804,162.54716 246.27916,163.34584C245.92302,164.11691 245.3175,164.70018 245.3,165.57117C245.282,166.46721 244.93411,167.37604 244.10001,167.78267C243.34644,168.15004 242.4827,168.45641 242.3,169.30267C242.11673,170.15161 242.44363,171.207 242.26401,172.00534C242.08501,172.80095 241.31042,173.38731 241.3,174.27733C241.28935,175.18777 241.3,176.00534 241.3,176.91733C241.3,177.728 240.92203,178.85791 241.41434,179.505C241.90775,180.15355 243.13333,179.86667 243.9955,179.86667C244.94284,179.86667 245.86934,179.86667 246.65184,179.86667C247.54283,179.86667 248.60005,179.70459 249.24733,180.21933C249.86644,180.71167 250.53639,181.3286 251.3,181.7C252.05391,182.06668 252.78848,182.52512 253.31734,183.27733C253.67732,183.78935 254.72978,184.35936 255.10384,184.53284C255.98244,184.94029 256.49744,185.14914 257.64801,185.63867C258.96677,186.19977 259.68558,186.508 260.43332,186.83467C261.20227,187.17061 261.98087,187.51546 262.75833,187.86667C263.52753,188.21414 264.27722,188.55663 264.99335,188.89867C266.30414,189.52473 266.871,189.8235 267.388,190.09467L268.284,190.584L269.03601,191.00934L269.69199,191.37866" id="svg_32" stroke-width="3" stroke="#000" fill="none"/>
  <path t="280563,280703,280768,280768,280789,280789,280789,280847,280848,281528,281528,281584,281647,281712,281712,281791,281792,281823,281843,281865,281895,281960,281960,281991,282135,282167,282168,282616,282631" d="M311.29999,198.86667C311.58533,197.952 312.40472,197.82518 313.17151,197.92383C314.07144,198.03961 314.97311,198.27698 315.58801,198.47734C316.64859,198.82294 317.23294,199.57631 318.00983,200.16217C318.59262,200.60165 319.65277,200.84866 320.52167,200.86667C321.46646,200.88625 322.30096,200.82642 323.13333,200.86667C324.01642,200.90938 324.41931,201.64735 324.87466,202.46666C325.30917,203.24846 325.44568,204.27141 326.29999,204.7C327.03018,205.06631 328.08536,204.93475 328.26401,205.728C328.47772,206.6769 328.38535,207.58 329.13333,208.03334L329.58667,208.78133" id="svg_33" stroke-width="3" stroke="#000" fill="none"/>
  <path t="285287,285532,285590,285609,285609,285609,285639,285639,285665,285687,285688,285708,285731,285751,285838,285858,285880,285880,285936,285961,286231,286287,286316,286316" d="M298.29999,169.86667C298.29999,172.45599 298.29999,173.28799 298.29999,174.2C298.29999,175.11734 298.29999,175.86133 298.29999,176.89734C298.29999,177.74933 298.29999,178.692 298.29999,179.7C298.29999,180.45599 298.29999,181.36667 298.29999,182.26666C298.29999,183.16667 298.29999,184.06667 298.29999,184.96666C298.29999,185.86667 298.23578,186.79028 298.82083,187.34584C299.5459,188.03436 300.29999,188.36667 300.94666,188.856L301.784,188.868L302.64734,188.92383" id="svg_34" stroke-width="3" stroke="#000" fill="none"/>
  <path t="288678,288982,289044,289045,289080,289080,289080,289080,289081,289143,289143,289164,289187,289217,289217,289240,289241,289271,289304,289333,289334,289354,289354,289438,289439,289439,289528,289528,289528,289528" d="M289.29999,178.86667C286.71066,178.86667 285.84668,178.86667 285.07333,178.86667C284.09332,178.86667 283.23666,178.86667 282.29999,178.86667C281.82666,178.86667 280.92001,178.86667 279.52667,178.86667C278.75333,178.86667 277.79999,178.86659 276.88934,178.86667C275.97867,178.86676 275.07162,178.74484 274.32166,179.08817C273.578,179.42859 273.36084,180.63448 272.53833,180.86217C271.67523,181.10109 270.87393,180.84453 269.89999,181.15199C269.07645,181.41197 268.28543,181.83978 267.48932,182.28799C266.83005,182.65915 266.13333,183.2 265.35184,183.87199L264.82083,184.36667L264.30984,184.86133" id="svg_35" stroke-width="3" stroke="#000" fill="none"/>
  <path t="309109,309398,309398,309520,309520,309629,309629,309629,309629,309629,309629,309629" d="M323.29999,212.86667C323.29999,213.86667 323.20245,214.68205 323.38333,215.5125C323.55243,216.28886 324.18307,217.51714 324.43735,218.05467C324.71259,218.63657 325.01199,219.244 325.32083,219.86667L325.9465,221.09801L326.24933,221.67867" id="svg_36" stroke-width="20" stroke="#fff" fill="none"/>
  <path t="319843,320135,320213,320241,320365,320385,320385,320448,320448,320476,320640,320704,320705,320705,320769,320840,321008,321008,321008,321121,321280,321307,321307" d="M309.29999,216.86667C310.10132,216.86667 311.02606,216.64658 311.94284,216.86667C312.7175,217.05264 313.13333,218.03334 313.29999,218.86667C313.46667,219.7 313.99014,220.29112 314.77917,220.86667C315.39804,221.3181 315.73944,222.19066 316.29999,222.86667C316.72952,223.3847 317.15836,224.49538 317.86249,224.86667C318.75119,225.3353 319.53763,225.29953 320.44666,225.58267C321.37897,225.87308 322.18668,225.86667 323.12534,225.87733L323.81601,225.952" id="svg_37" stroke-width="3" stroke="#000" fill="none"/>
  <path t="329153,329456,329457,329529,329665,329696" d="M249.3,182.86667C250.3,183.03334 251,183.51401 251.8,183.84584L252.7,183.87733L253.5,184.15067" id="svg_38" stroke-width="20" stroke="#fff" fill="none"/>
 </g>
</svg>