<svg width="299.25" height="420" xmlns="http://www.w3.org/2000/svg" xmlns:svg="http://www.w3.org/2000/svg" xmlns:xlink="http://www.w3.org/1999/xlink">
 <!-- Created with SVG-edit - http://svg-edit.googlecode.com/ -->
 <g display="inline" class="layer">
  <title>Layer 1</title>
  <path t="0,185,185,200,217,240,256,272,281,296,320,320,344,344,385,409,433,465,505,521,521,545,577,587,609,619,634,665,681,690,720,745,754,777,793,817,825,841,857,957,957,1025,1065,1065,1110,1125,1161,1201,1233,1257,1297,1297,1344,1393,1402,1433,1465,1474,1504,1528,1529,1553,1569,1593,1625,1641,1665,1710,1849,1849,1889,1937,1977,1993,2033,2033,2077,2137,2137,2193,2194,2194,2240,2264,2273,2304,2336,2336,2345,2384,2411,2424,2448,2488,2504,2520,2520,2536,2560,2570,2592,2608,2618,2640,2672,2672,2688,2697,2727,2751,2784,2784,2785,2800,2860,2910,2925,2946,2968,2992,2992,3000,3024,3040,3056,3072,3072,3127,3142,3142,3184,3217,3233,3272,3327,3327,3360,3391,3432,3471,3472,3503,3536,3552,3906,3953,4604,4604,4741,4741,4793,4877,4943,5010,5060,5112,5127,5161,5185,5233,5293,5336,5392,5443,5443,5459,5503,5528,5552,5568,5608,5640,5650,5650,5672,5695,5720,5736,5768,5792,5808,5833,5834,5863,5879,5887,5911,5936,5960,5969,5991,6032,6048,6049,6057,6080,6096,6111,6119,6143,6184,6208,6233,6264,6273,6287,6303,6343,6376,6408,6432,6448,6472,6488,6504,6536,6576,6584,6624,6648,6656,6665,6688,6735,6745,6769,6777,6784,6815,6839,6855,6879,6903,6936,6960,6992,7032,7033,7048,7072,7097,7120,7135,7175,7216,7233,7233,7256,7310,7377,7377,7417,7520,7553,7675,7675,7753,7941,7984,8040,8056,8110,8144,8152,8167,8175,8191,8215,8223,8255,8288,8289,8296,8336,8360,8400,8424,8425,8494,8543,8543,8577,8609,8707,8707,8707,8752,8784,8785,8792,8816,8855,8856,8887,8920,8936,8967,9104,9104,9137,9145,9145,9168,9168,9177,9193,9216,9216,9240,9256,9272,9272,9304,9321,9361,9361,9457,9505,9576,9609,9660,9705,9745,9769,9769,9841,9955,9955,9993,10043,10089,10113,10161,10161,10209,10291,10392,10491,10668,10712,10713,10823,10881,10921,10992,11057,11141,11176,11208,11240,11293,11293,11335,11359,11360,11426,11481,11574,11574,11632,11693,11765,11792,11824,11824,11840,11856,11872,11888,11888,11943,12041,12093,12239,12239,12291,12291,12328,12359,12359,12367,12391,12415,12460,12608,12665,12704,12736,12736,12753,12769,12792,12808,12832,12880,12888,12888,12943,12993,13033,13033,13089,13129,13129,13161,13209,13260,13305,13751,13801,13881,13881,13905,13945,13993,14032,14072,14112,14113,14152,14176,14226,14288,14359,14416,14476,14520,14521,14560,14642,14689,14689,14712,14719,14767,14800,14824,14863,14903,14935,14968,14969,14992,15016,15048,15080,15081,15088,15128,15136,15151,15191,15240,15272,15320,15376,15376,15443,15510,15510,15525,15568,15626,15711,15727,15727,15759,15775,15801,15848,15903,15952,15969,15985,16040,16124,16124,16317,16369,16377,16396,16401" d="M114.625,286.5C113.625,287.5 113.625,288.29999 113.625,289.20001C113.625,290.10001 113.625,291 113.625,291.89999C113.625,292.79999 113.625,293.70001 113.625,294.60001C113.625,295.5 113.625,296.25717 113.625,297.15268C113.625,298.01599 113.625,298.97916 113.625,299.89999C113.625,300.79999 113.625,301.70001 113.625,302.60001C113.625,303.5 113.625,304.29999 113.625,305.20001C113.625,306.10001 113.62726,307 113.625,307.89999C113.62275,308.7955 112.95448,309.30685 112.64584,310.02084C112.29689,310.82803 112.6423,311.81134 112.125,312.5C111.65501,313.12567 111.79228,314.10928 111.26783,314.7955C110.69445,315.54575 109.80722,315.73206 109.62483,316.59982C109.4583,317.39215 108.81109,317.92389 108.33967,318.70001C107.92886,319.37637 107.20739,319.88281 106.52517,320.60001C105.96743,321.18634 105.63033,322.09995 105.625,323C105.61967,323.89996 105.625,324.79999 105.625,325.70001C105.625,326.60001 105.625,327.5 105.625,328.29999C105.625,329.20001 105.625,330.10001 105.625,331C105.625,331.89999 105.625,332.79999 105.625,333.70001C105.625,334.60001 105.625,335.5 105.625,336.29999C105.625,337.20001 105.625,338.10001 105.625,339C105.625,339.89999 105.625,340.79999 105.625,341.70001C105.625,342.60001 105.625,343.5 105.625,344.29999C105.625,345.20001 105.61967,346.10004 105.625,347C105.63033,347.90005 105.88845,348.71954 106.42633,349.29999C107.09857,350.02542 107.72499,350.60001 108.325,351.20001C109.02499,351.89999 109.54961,352.5929 110.225,353.064C110.9586,353.57568 111.925,353.5 112.825,353.5C113.725,353.5 114.625,353.5 115.425,353.5C116.325,353.5 117.225,353.5 118.125,353.5C119.025,353.5 119.925,353.5 120.825,353.5C121.725,353.5 122.625,353.5 123.425,353.5C124.325,353.5 125.225,353.5 126.125,353.5C127.025,353.5 127.925,353.5 128.825,353.5C129.72501,353.5 130.66325,353.67355 131.425,353.41467C132.31293,353.11292 133.02448,352.51868 133.925,352.5C134.82614,352.48129 135.79485,352.34128 136.45033,352.07468C137.14447,351.79236 138.21429,351.50534 139.125,351.5C140.02498,351.49472 140.925,351.5 141.825,351.5C142.72501,351.5 143.625,351.5 144.425,351.5C145.325,351.5 146.2442,351.33481 147.125,351.52084C147.9724,351.69983 148.6124,352.41498 149.425,352.49866C150.32027,352.59085 151.32758,352.10181 152.189,352.53601C152.88788,352.88828 153.56281,353.09729 154.33966,353.58533C155.07971,354.05026 155.62587,354.4628 156.425,354.5C157.34264,354.54272 157.84023,355.43912 158.72501,355.5C159.62288,355.5618 160.425,355.5 161.325,355.5C162.22501,355.5 163.125,355.50223 164.02499,355.5C164.92502,355.49774 165.71689,355.26703 166.38217,354.7955C167.09895,354.28748 167.91914,353.80371 168.56366,353.11066C169.12851,352.50323 169.61966,351.8894 169.625,351C169.6304,350.10004 169.62509,349.20001 169.625,348.29999C169.62491,347.40018 169.07658,346.83069 168.68216,346.14282C168.21231,345.32343 168.625,344.29999 168.625,343.39999C168.625,342.5 168.625,341.70001 168.625,340.79999C168.625,339.89999 168.625,339 168.625,338.10001C168.625,337.20001 168.625,336.29999 168.625,335.39999C168.625,334.5 168.625,333.70001 168.625,332.79999C168.625,331.89999 168.625,331 168.625,330.10001C168.625,329.20001 168.625,328.29999 168.625,327.39999C168.625,326.5 168.625,325.70001 168.625,324.79999C168.625,323.89999 168.71448,323.08264 169.19966,322.47467C169.69804,321.85016 169.61967,320.89996 169.625,320C169.63034,319.09995 170.07794,318.39279 170.45833,317.5C170.77852,316.74847 170.73543,315.83041 171.42633,315.41599C172.22113,314.93924 172.36462,314.06088 172.6295,313.2045C172.86559,312.44119 173.4534,311.87387 173.98216,311.2045C174.56749,310.46353 175.41769,310.26227 175.62517,309.40018C175.82735,308.56006 176.57111,308.1463 177.125,307.5C177.64919,306.88837 178.02834,306.05988 178.82367,305.58401C179.51552,305.17007 180.01283,304.48532 180.65033,303.92532C181.20534,303.43781 182.04382,303.08353 182.541,302.30133C183.00592,301.56989 183.70258,301.07394 184.19966,300.47467C184.70976,299.85971 184.67793,298.8504 185.3295,298.44733C186.09926,297.97113 186.5135,297.15903 187.05034,296.52533C187.55312,295.93182 187.71448,295.08264 188.19966,294.47467C188.69804,293.85016 188.625,292.89999 188.625,292C188.625,291.10001 188.625,290.20001 188.625,289.29999C188.625,288.39999 188.625,287.5 188.625,286.70001C188.625,285.79999 188.625,284.89999 188.625,284C188.625,283.10001 188.625,282.20001 188.625,281.29999C188.625,280.39999 188.58781,279.49915 188.625,278.70001C188.66771,277.78235 189.48444,277.33765 189.62517,276.39999C189.72983,275.70267 190.36969,274.96225 190.589,274.10001C190.80997,273.23123 191.29836,272.67847 191.61433,271.88934C191.93738,271.08255 192.39978,270.56339 192.6205,269.7955C192.86787,268.93481 192.625,268 192.625,267.10001C192.625,266.20001 192.625,265.29999 192.625,264.39999C192.625,263.5 192.14183,262.89282 191.71033,262.21466C191.21718,261.43961 191.625,260.39999 191.625,259.5C191.625,258.70001 191.80875,257.7735 191.589,256.89999C191.37195,256.03717 190.83827,255.24731 190.45833,254.5C190.12004,253.83464 189.31409,253.21074 188.625,252.5C188.05179,251.90878 187.70413,251.0598 187.10417,250.47917C186.47758,249.87277 185.93059,249.3539 185.71033,248.38533C185.49101,247.42093 185.65208,246.49954 185.625,245.7C185.59641,244.85571 184.70874,244.3457 184.625,243.5C184.54617,242.70389 184.625,241.8 184.625,240.89999C184.625,240 184.83411,238.97868 184.26334,238.2045C183.86467,237.66376 182.75839,237.35696 181.79167,237.66667C181.09023,237.8914 180.4223,238.69731 179.825,239.3C179.23299,239.89734 178.86127,240.76706 178.4035,241.60001C178.03253,242.27502 177.12543,242.83466 176.74634,243.60001C176.32692,244.44678 176.03847,245.0945 175.625,246C175.26186,246.7953 174.71004,247.4874 174.62633,248.3C174.53412,249.19527 174.43622,249.99176 173.909,250.584C173.37292,251.18617 173.02371,252.08723 172.65033,252.89999C172.24283,253.78703 171.89108,254.53824 171.541,255.3C171.19644,256.04974 170.4223,256.69733 169.825,257.29999C169.23297,257.89734 168.84766,258.79913 168.27234,259.44733C167.74597,260.04037 166.8494,260.24362 166.19299,260.58401C165.38776,261.00159 165.01636,262.00781 164.26784,262.44284C163.53746,262.86731 162.52499,262.5 161.625,262.5C160.825,262.5 159.78914,262.6181 159.14583,261.97916C158.50363,261.34131 158.08656,260.62375 157.625,259.97916C157.12839,259.28558 156.39122,258.82016 155.709,258.216C155.11446,257.68951 154.79642,257.04779 154.61433,256.10001C154.45499,255.27058 153.50383,254.88646 152.91034,254.416C152.17178,253.83055 151.81108,253.07614 151.33966,252.3C150.92885,251.62363 150.23918,251.08853 149.42633,250.584C148.68996,250.12694 148.15709,249.59094 147.30383,249.2785C146.62502,249.02994 146.06061,248.03212 145.33966,247.58533C144.64339,247.15382 143.66672,247.26605 142.925,246.85266C142.16132,246.42703 141.3889,246.03406 140.52499,245.62134C139.67235,245.214 139.02203,244.82768 138.14101,244.584C137.29854,244.35098 136.4563,244.00327 135.625,243.66667C134.8678,243.36009 133.91794,243.45538 133.125,243C132.41988,242.59505 131.87741,241.87228 131.10417,241.52083C130.30357,241.15694 129.24823,241.31654 128.52516,241.7215C127.7878,242.13445 127.57133,243.14113 126.82367,243.584C126.12405,243.99841 125.10787,244.3477 124.65033,244.936C124.07278,245.67862 123.58245,246.22469 122.825,246.584C121.95963,246.99451 121.26969,247.59761 120.79166,248.5C120.44828,249.14822 120.08321,249.9803 119.42633,250.7C118.89285,251.28452 118.63567,252.10001 118.625,253C118.61433,253.89999 118.0433,254.68901 117.79166,255.5C117.54471,256.2959 118.6254,256.47464 119.425,256.5C120.32635,256.52859 121.04736,257.18619 121.925,257.44284C122.79056,257.69595 123.725,257.5 124.625,257.5C125.425,257.5 126.44843,257.08728 127.26783,257.55716C127.95567,257.9516 128.7739,258.1629 129.45833,258.66666C130.11134,259.14728 130.77849,259.31863 131.625,259.66666C132.2961,259.94257 133.19283,260.37604 133.925,260.85718C134.71924,261.37909 135.10088,262.15253 135.59967,262.88934C136.05122,263.5564 136.61966,264.1106 136.625,265C136.6304,265.89996 136.625,266.79999 136.625,267.70001C136.625,268.60001 136.66219,269.50085 136.625,270.29999C136.58229,271.21765 135.76637,271.72449 135.62483,272.60001C135.47876,273.50354 134.88113,274.03796 134.661,274.89999C134.41592,275.85965 134.17839,276.5538 133.59967,277.07468C132.96181,277.64877 132.70924,278.45071 132.01433,279.064C131.34721,279.65274 130.40546,279.76343 129.825,280.30133C129.09956,280.97357 128.32115,281.62363 127.91033,282.29999C127.43891,283.07611 126.79759,283.08881 125.98217,283.55716C125.17017,284.02356 124.625,284.5 123.825,284.5C122.925,284.5 122.15852,284.71863 121.541,285.216C120.94054,285.69965 119.89851,285.31628 119.025,285.53601C118.16218,285.75305 117.42814,286.53989 116.525,286.49985C115.61063,286.45932 114.97239,285.69983 114.125,285.52084C113.24419,285.33481 112.3295,285.49551 111.65033,285.064L111.341,284.29999" id="svg_1" stroke-width="3" stroke="#000" fill="none"/>
  <path t="27787,28021,28021,28037,28087,28103,28136,28152,28169,28207,28256,28256,28310,28326,28385,28425,28464,28464,28496,28496,28504,28528,28544,28568,28568,28584,28608,28649,28673,28673,28705,28729,28753,28777,28777,28826,28880,28904,28913,28951,28991,28991,29041,29041,29073,29105,29105,29137,29137,29153,29162,29200,29242,29257,29305,29345,29345,29385,29401,29417,29473,29473,29497,29545,29577,29577,29609,29633,29641,29697,29753,29753,29793,29833,29873,29873,29914,29938,29968,30001,30025,30049,30109,30124,30124,30351" d="M107.625,352.5C107.625,353.5 107.625,354.29999 107.625,355.20001C107.625,356.10001 107.625,357 107.625,357.89999C107.625,358.79999 107.625,359.70001 107.625,360.60001C107.625,361.5 107.625,362.29999 107.625,363.20001C107.625,364.10001 107.62492,365 107.625,365.91068C107.62508,366.82132 107.52092,367.7233 107.909,368.61465C108.23195,369.35641 108.61433,370.10001 108.625,371C108.63567,371.89999 108.89285,372.71548 109.42633,373.29999C110.08321,374.01968 110.48948,374.80853 110.62634,375.70001C110.76692,376.61578 111.42393,377.15625 111.61433,378.10001C111.79243,378.98276 112.10152,379.73111 112.50367,380.60001C112.81007,381.26202 113.09081,382.16537 113.59967,382.88934C114.10246,383.60468 114.52418,384.21323 114.64584,385.02084C114.79462,386.00851 115.18098,386.7106 115.725,387.47849C116.18134,388.12259 117.07713,388.72473 117.45834,389.66666C117.71107,390.29114 117.80961,391.32394 118.19967,392.08932C118.60801,392.89059 118.54622,393.8548 119.05033,394.47467C119.55055,395.08975 120.1682,395.70328 120.5035,396.60001C120.82158,397.45065 120.73108,398.28812 121.125,399C121.61524,399.88599 121.43612,400.76932 121.8465,401.60001C122.18765,402.29059 123.1305,402.83463 123.541,403.70001C123.9003,404.45746 124.1174,405.29083 124.625,405.97916C125.1383,406.6752 125.58641,407.26581 126.14584,408C126.73695,408.77579 127.39661,409.13608 128.01433,409.89999C128.61658,410.64478 128.66045,411.638 129.3295,412.14282C130.08047,412.70947 130.65732,413.21579 131.05034,413.89999C131.51723,414.7128 131.98712,415.43643 132.625,416C133.20848,416.5155 133.6205,417.2045 133.68216,418.14282L134.341,418.58401" id="svg_2" stroke-width="3" stroke="#000" fill="none"/>
  <path t="31678,31804,31871,31936,31975,31975,32026,32042,32065,32097,32121,32137,32177,32217,32241,32257,32296,32296,32321,32331,32337,32353,32377,32386,32408,32416,32440,32464,32472,32496,32529,32561,32561,32577,32609,32625,32649,32649,32689,32721,32745,32792,32832,32832,32848,32864,32880,32905,32930,32945,32945,32960,32992,33025,33049,33049,33081,33091,33112,33112,33145,33185,33201,33225,33249,33265,33297,33321,33321,33353,33369,33409,33449,33480" d="M148.625,354.5C148.68216,356.20001 149.187,356.96835 149.57233,357.79999C149.97632,358.67188 150.47682,359.26862 150.6205,360.20001C150.75771,361.08951 150.75154,361.88171 151.27234,362.55267C151.72545,363.13644 151.625,364.10001 151.625,365C151.625,365.89999 151.51804,366.80652 151.62633,367.70001C151.73781,368.61978 152.47086,369.26685 152.61433,370.10001C152.76709,370.987 152.69196,371.84357 153.19966,372.52533C153.67688,373.16614 153.82521,373.90079 154.341,374.58401C154.80554,375.19934 154.61459,376.20007 154.625,377.10001C154.63542,378.00018 155.16818,378.70328 155.50349,379.60001C155.82158,380.45065 155.42903,381.33441 155.68216,382.20001C155.9388,383.07764 156.4614,383.84705 156.84633,384.60001C157.2365,385.36319 157.61433,386.10001 157.625,387C157.63567,387.89999 158.12549,388.71881 158.45833,389.5C158.77852,390.25153 158.61459,391.20007 158.625,392.10001C158.63542,393.00018 159.16818,393.70328 159.50349,394.60001C159.82158,395.45065 159.625,396.29999 159.625,397.20001C159.625,398.10001 159.625,398.91068 159.625,399.82132C159.625,400.67465 159.625,401.61465 159.625,402.60001C159.625,403.5 159.625,404.29999 159.625,405.20001C159.625,406.10001 159.625,407 159.625,407.89999C159.625,408.79999 159.625,409.70001 159.625,410.60001C159.625,411.5 159.625,412.29999 159.625,413.20001C159.625,414.10001 159.625,415 159.625,415.89999L159.625,416.79999" id="svg_3" stroke-width="3" stroke="#000" fill="none"/>
  <path t="35147,35207,35207,35223,35248,35256,35264,35280,35288,35304,35312,35312,35320,35344,35369,35385,35395,35417,35441,35457,35457,35473,35505,35514,35553,35577,35593,35593,35609,35625,35656,35689,35689,35705,35721,35761,35785,35785,35801,35825,35825,35856,35881,35929,35961,35961,36055" d="M169.625,353.5C168.625,354.5 168.625,355.29999 168.625,356.20001C168.625,357.10001 168.625,358 168.625,358.89999C168.625,359.79999 168.625,360.70001 168.625,361.60001C168.625,362.5 168.625,363.29999 168.625,364.20001C168.625,365.10001 168.625,366 168.625,366.89999C168.625,367.79999 168.625,368.70001 168.625,369.60001C168.625,370.5 168.625,371.29999 168.625,372.20001C168.625,373.10001 168.76709,374.013 168.61433,374.89999C168.47086,375.73315 167.71004,376.4874 167.62633,377.29999C167.5341,378.19528 167.7007,379.16641 167.189,379.89999C166.71788,380.57538 165.87526,381.03577 165.64583,382C165.43736,382.8761 165.21613,383.62732 164.79167,384.5C164.47081,385.15967 164.08322,385.98032 163.42633,386.70001C162.89285,387.28452 162.63388,388.11804 162.19966,388.89999C161.74405,389.72049 161.40367,390.60001 160.97766,391.20001L160.63567,392.10001" id="svg_4" stroke-width="3" stroke="#000" fill="none"/>
  <path t="39349,39456,39471,39497,39512,39575,39591,39617,39617,39633,39657,39689,39713,39729,39729,39737,39752,39784,39784,39817,39826,39858,39889,39913,39945,40073,40073,40089,40089,40105,40136,40136,40144,40170,40194,40210,40249,40298,40330,40330,40354,40409,40458,40459,40525,40578,40578,40632,40632,40695,40754,40778,40840,40881,40929,40968,41008,41137,41137,41288,41356,41372,41433,41473,41525,41541,41541,41562,41609,41659,42195,42353,42720,42736,42770,42802,42827,42858,42883,42890,42922,42978,42994,43016,43064,43064,43074,43098,43107,43122,43138,43147,43186,43499,43499,43558,43640,43682,43682,43730,43790,43874,43889,43962,43962,43970,44008,44042,44074,44114,44146,44428,44835,44879,44912,44937,44977,45023,45049,45049,45081,45113,45122,45159,45193,45193,45201,45249,45297,45297,45329,45354,45502,45589,45605,45605,45635,45649,45688,45688,45714,45714,45746,45754,45784,45784,45818,45842,45866,45922,45978,45978,46057,46073,46121,46365,46365,46380,46380" d="M181.625,302.5C181.79167,304.33334 182.57825,304.52197 182.625,305.30133C182.67993,306.21698 183.5641,306.71524 183.625,307.60001C183.6868,308.49786 183.43829,309.33179 183.68216,310.20001C183.89603,310.96146 184.58229,311.69699 184.625,312.60001C184.66753,313.49899 184.42052,314.33698 184.68216,315.20001C184.95042,316.0849 185.94612,316.61343 186.33966,317.29999C186.76031,318.03381 186.78778,318.93805 187.27234,319.55267C187.78435,320.20212 187.625,321.20001 187.625,322.10001C187.625,323 187.59001,323.93033 187.79167,324.83334C187.94363,325.51385 188.27132,326.23212 188.50349,327.35699C188.67374,328.18179 188.625,329.10001 188.625,330C188.625,330.89999 188.625,331.79999 188.625,332.70001C188.625,333.60001 188.625,334.5 188.625,335.29999C188.625,336.20001 188.625,337.10001 188.625,338C188.625,338.89999 188.74167,339.84317 188.40367,340.60016C188.08443,341.31516 187.78044,342.17535 187.541,343.01599C187.29218,343.88956 186.13559,344.12039 185.68216,344.85718C185.2394,345.57663 185.86923,346.73215 185.341,347.41599C184.85629,348.04349 184.75668,348.85007 184.40367,349.60001C184.03864,350.37552 183.63417,351.11819 183.19966,351.89999C182.74429,352.7193 182.13643,353.31198 181.65033,353.936C181.0722,354.67816 180.63284,355.37729 179.825,355.49866C178.91644,355.63516 178.31203,356.25183 177.709,356.784C177.06717,357.35043 176.31032,357.66162 175.42767,357.5C175.26901,357.47095 175.91025,356.82159 176.541,356.216C177.11386,355.66602 177.56511,354.94916 177.97766,354.20001C178.43945,353.36145 179.10817,352.89282 179.53967,352.21466C180.03282,351.43961 179.44366,350.34653 179.79167,349.5C180.06757,348.82892 180.61232,348.00015 180.625,347.10001C180.6376,346.20459 181.2912,345.69125 181.60417,344.97916C181.95813,344.1738 182.07794,343.39279 182.45833,342.5C182.77852,341.74847 182.41724,340.2933 181.74634,340.7215C181.04665,341.16809 180.82481,342.15262 180.64583,343C180.45978,343.8808 180.73196,344.80652 180.62367,345.70001C180.51219,346.61978 180.19247,347.33057 179.59967,348.064C179.07372,348.71472 178.17253,349.03763 177.67767,349.7955C177.2236,350.49091 176.7901,351.03802 176.61433,351.89999C176.42365,352.83511 175.64301,353.02853 175.625,352.10001C175.60756,351.2002 175.625,350.29999 175.625,349.39999C175.625,348.5 175.43829,347.66821 175.68216,346.79999C175.89603,346.03854 176.58229,345.30301 176.625,344.39999C176.66753,343.50101 176.42052,342.66302 176.68216,341.79999C176.95042,340.9151 177.94612,340.38657 178.33966,339.70001C178.76031,338.96619 178.625,338 178.625,337.10001C178.625,336.20001 178.76233,335.21887 178.27234,334.55267C177.76909,333.86844 177.68745,333.06924 177.40367,332.17868C177.18092,331.47964 176.84105,330.49167 176.57233,329.8045C176.23708,328.9472 175.7886,328.15295 175.40367,327.39999C175.0135,326.63681 174.81097,325.77313 174.589,324.89999C174.3698,324.03772 173.87421,323.34851 173.45833,322.5C173.08461,321.73752 172.92406,320.94492 172.61433,320.11066C172.342,319.37704 171.63567,318.88934 171.625,317.89999L171.625,317L171.625,316.10001" id="svg_5" stroke-width="3" stroke="#000" fill="none"/>
  <path t="53028,53106,53175,53222,53222,53234,53292,53292,53357,53457,53572,53617,53673,53706,53773,53834,53834,53874,53906,53937,53985,53993,54024,54040,54064,54096,54096,54120,54144,54168,54168,54200,54232,54272,54288,54372,54372,54424,54424,54425,54464,54488,54488,54512,54528,54568,54601,54601,54633,54681,54698,54752,54752,54776,54824,54872,54873,54925,54984,55048,55140,55185,55185" d="M116.625,256.5C115.97767,257.2045 115.68687,258.04132 115.341,258.98267C115.09355,259.65616 114.67439,260.58401 114.625,261.5C114.58169,262.30334 114.23494,263.06808 113.65033,263.88934C113.18416,264.54422 112.225,264.5 111.325,264.5C110.425,264.5 109.525,264.5 108.625,264.5C107.825,264.5 106.925,264.5 106.025,264.5C105.125,264.5 104.225,264.5 103.325,264.5C102.425,264.5 101.34544,264.82315 100.74633,264.2785C100.04855,263.64417 99.97669,262.73822 99.225,262.11066C98.56941,261.56332 97.88716,261.13809 97.59967,260.35068C97.29619,259.51944 96.68485,258.94919 96.27233,258.20001C95.81051,257.3613 95.4994,256.46732 95.01434,255.89999C94.37589,255.15329 93.736,254.7765 93.14584,254C92.58496,253.26202 92.43259,252.18748 91.82367,251.78534C91.06696,251.28558 90.61262,250.64841 90.10416,250C89.50291,249.23326 88.66103,249.05591 87.91033,248.416C87.24436,247.84831 86.83452,247.15579 86.4035,246.39999C86.02193,245.7309 85.29037,244.99451 84.425,244.584C83.66755,244.22469 83.07259,243.83704 82.325,243.2045C81.56934,242.56514 80.74633,242.27867 80.33833,241.584L79.45834,241.33333L78.64584,240.97917" id="svg_7" stroke-width="3" stroke="#000" fill="none"/>
  <path t="64779,64996,65032,65056,65080,65121,65137,65168,65176,65224,65265,65308,65344,65345,65384,65424,65490,65490,65557,65557,65572,65633,65633,65657,65673,65724,65769,65769,65824,65857,65896,65941,65976,65976,65985,65992,66015,66080,66105,66119,66127,66143,66151,66167,66200,66216,66216,66233,66273,66305,66329,66345,66361,66383,66399,66441,66474,66491,66514,66514,66538,66570" d="M75.625,258.5C75.68217,260.20001 76.3105,260.92258 76.56783,261.79999C76.82129,262.66418 76.98713,263.43643 77.625,264C78.20849,264.5155 78.44004,265.23123 78.661,266.10001C78.88031,266.96225 79.40499,267.75616 79.79166,268.5C80.19883,269.28326 81.05549,269.71725 81.50367,270.60001C81.93145,271.4426 82.23299,272.10266 82.925,272.79999C83.42309,273.30191 84.15143,273.97458 84.82367,274.70001C85.36155,275.28046 85.78345,276.01498 86.341,276.58401C87.00014,277.25671 87.83894,277.61783 88.26783,278.2045C88.82304,278.96396 89.33491,279.54318 90.125,280C90.82993,280.40756 91.86366,280.60303 92.33967,281.30133C92.85044,282.05063 93.45241,282.08881 94.26783,282.55716C95.07983,283.02356 95.7629,283.17819 96.45834,283.66666C97.17352,284.16898 97.8428,284.27484 98.541,284.784C99.23953,285.2934 99.73219,285.95297 100.625,286.33334C101.37654,286.65353 102.325,286.5 103.225,286.5C104.125,286.5 105.05984,286.25711 105.9205,286.50449C106.6884,286.72519 107.14565,287.48956 108.025,287.5C108.92494,287.51068 109.825,287.5 110.725,287.5C111.625,287.5 112.425,287.5 113.325,287.5L114.225,287.5" id="svg_9" stroke-width="3" stroke="#000" fill="none"/>
  <path t="67701,68451,68495,68511,68574,68616,68721,68753,68792,68816,68872,68873,68905,68929,68938,68977,68977,69001,69057,69057,69112,69120,69191,69304" d="M73.625,260.5C71.925,260.5 70.80936,260.50296 70.62634,259.69867C70.42693,258.82239 70.625,257.89999 70.625,257C70.625,256.10001 70.51804,255.19347 70.62634,254.3C70.73782,253.38022 71.42393,252.84378 71.61433,251.89999C71.79242,251.01723 72.12551,250.28119 72.45834,249.5C72.77853,248.74846 72.64552,247.72989 72.97767,246.84734C73.24345,246.14111 73.56783,245.25717 73.625,244.3L73.625,243.39999L73.625,242.5" id="svg_10" stroke-width="3" stroke="#000" fill="none"/>
  <path t="70545,70875,70912,70930,70976,71016,71120,71121,71159,71183,71215,71247,71263,71287,71312,71328,71338,71345,71345,71360,71383,71392,71399,71415,71431,71455,71471,71471,71503" d="M70.625,257.5C70.01434,258.07468 68.98092,258.65775 68.64584,257.97916C68.25647,257.19064 68.82709,256.10687 68.33967,255.30133C67.9619,254.677 66.77145,254.45641 66.62634,253.69867C66.45729,252.81604 66.625,251.89999 66.625,251C66.625,250.10001 66.625,249.2 66.625,248.3C66.625,247.39999 66.5878,246.49913 66.625,245.7C66.66772,244.78236 67.56411,244.28477 67.625,243.39999C67.68679,242.50212 68.07114,241.95242 68.53967,241.21466C68.97879,240.52319 68.625,239.5 68.71033,238.7L69.23566,237.89999" id="svg_11" stroke-width="3" stroke="#000" fill="none"/>
  <path t="72436,72615,72656,72687,72788,72840,72840,72864,72896,72928,72944,72968,72968,73000,73017,73033,73065,73097,73113,73144,73168,73168,73184,73209,73218,73233,73264,73272,73288,73304,73357,73455" d="M66.625,255.5C64.925,255.5 63.99093,255.43758 63.541,254.69867C63.11246,253.99489 62.29415,253.39206 61.91033,252.7C61.45308,251.87552 61.62694,250.88039 61.19967,250.10001C60.74929,249.27744 60.625,248.5 60.625,247.7C60.625,246.8 60.625,245.89999 60.625,245C60.625,244.10001 60.625,243.2 60.625,242.3C60.625,241.39999 60.45145,240.46175 60.71033,239.7C61.0121,238.81209 61.36462,238.0609 61.6295,237.2045C61.86559,236.44119 62.45363,235.86888 62.64583,235C62.83237,234.15671 63.72483,233.62134 64.5035,233.2785L64.625,232.39999" id="svg_12" stroke-width="3" stroke="#000" fill="none"/>
  <path t="91193,91415,91415,91479,91504,91589,91688,91771,91771,91839,91839,91854,91923,92013,92073,92139,92237,92237,92312,92451,92466,92466,92555,92571,92617,92641,92651" d="M53.625,229.5C54.625,230.5 54.625,231.3 54.625,232.2C54.625,233.10001 54.72293,234.00644 54.61433,234.91066C54.50288,235.83871 54.02171,236.46608 53.7465,237.4785C53.55593,238.17953 53.625,239.10001 53.625,240C53.625,240.89999 53.51797,241.80655 53.62634,242.7C53.7379,243.6198 54.27317,244.26192 55.025,244.88933C55.68066,245.43649 56.67044,245.3062 57.425,245.58533C58.2946,245.90701 58.59967,246.88933 59.14583,247.47917L60.025,247.5L60.9205,247.5045" id="svg_16" stroke-width="3" stroke="#000" fill="none"/>
  <path t="99869,99918,99969,100000,100104,100120,100120,100269" d="M63.625,233.5C64.27233,234.2045 64.45451,235.12001 64.64584,236C64.82984,236.84631 65.5035,237.60001 65.62366,238.3L65.625,239.2" id="svg_17" stroke-width="3" stroke="#000" fill="none"/>
  <path t="100956,101130,101179,101209,101218,101256,101264,101337,101436" d="M67.625,238.5C69.225,239.07466 70.06116,239.54417 70.65033,240.07466C71.23331,240.59956 71.62366,241.30133 71.68217,242.2L72.125,243L72.57233,243.7955" id="svg_18" stroke-width="3" stroke="#000" fill="none"/>
  <path t="102997,103071,103120,103144,103185,103217,103249,103258,103306,103337,103337,103352,103401,103441,103481,103521,103521,103588,103604,103604,103632,103648,103680,103720,103752,103776,103776,103808,103817,103856,103888,103898,103928,103960,103984,103984,104007,104031,104040,104071,104079,104080,104095,104119,104151,104191,104223,104223,104255,104264,104271,104287,104311,104327,104327,104343,104351,104383,104408,104424,104433,104449,104472,104472,104487,104496,104535,104544,104544,104567,104575,104591,104607,104615,104639,104655,104655,104664,104679,104687,104711,104711,104720,104727,104743,104760,104775,104783,104791,104815,104823,104855,104879,104905,104905,104905,104920,104930,104952,104975,104975,104991,104999,105031,105071,105071,105104,105168,105207,105223,105233,105255,105255,105271,105311,105357,105401,105457,105473,105490,105490,105520,105544,105560,105600,105600,105616,105704,105745,105784,105784,105791,105848,105889,105920,105920,105952,106002,106033,106049,106071,106121,106121,106153,106153,106185,106185,106201,106201,106201,106209,106224,106232,106248,106281,106281,106297,106312,106312,106336,106368,106368,106384,106384,106408,106408,106424,106432,106464,106489,106489,106505,106535,106536,106568,106601,106625,106665,106665,106673,106697,106729,106785,106793,106849,106906,106969" d="M70.625,243.5C72.425,243.5 73.325,243.5 74.225,243.5C75.125,243.5 76.025,243.5 76.925,243.5C77.825,243.5 78.725,243.5 79.625,243.5C80.425,243.5 81.24461,243.50195 82.025,243.07466C82.84756,242.62428 83.72626,242.54779 84.625,242.5C85.42841,242.45728 86.24996,241.91367 86.82367,241.3C87.36412,240.72192 87.73428,239.83076 88.42633,239.416C89.22134,238.93953 89.50887,238.05867 89.909,237.3C90.36172,236.44162 90.62433,235.7 90.625,234.8C90.62567,233.89999 90.625,233 90.625,232.10001C90.625,231.2 90.625,230.3 90.625,229.39999C90.625,228.5 90.64374,227.6998 90.625,226.8C90.60699,225.93544 89.85986,225.5377 89.125,224.97917C88.46117,224.47462 88.18725,223.67596 87.59967,222.936C87.06205,222.25896 86.40052,221.64137 85.525,221.49983C84.62146,221.35376 84.03777,220.89871 83.225,220.52533C82.33797,220.11783 81.47566,219.91446 80.79166,219.33333C80.12477,218.76672 79.57417,218.19916 78.925,217.85266C78.07563,217.39931 77.06422,217.54538 76.59967,216.88933C76.09094,216.1709 75.40835,215.69218 74.52517,215.49983C73.67962,215.31567 73.12633,214.79745 72.33033,214.44733C71.51629,214.08926 71.23714,213.18878 70.45834,212.66667C69.75245,212.19344 68.8439,212.38232 68.025,211.92534C67.25227,211.49413 66.74795,210.783 66.01434,210.51067C65.18008,210.20096 64.32125,210.1469 63.625,209.5C63.02174,208.9395 62.22552,208.51866 61.325,208.5C60.42519,208.48135 59.41106,208.38219 58.98217,207.7955C58.42696,207.03604 57.92051,206.50226 57.025,206.5C56.125,206.49774 55.19016,206.74287 54.3295,206.4955C53.56161,206.27478 53.01438,205.50534 52.125,205.5C51.22501,205.4946 50.29972,205.5817 49.45833,205.33333C48.77584,205.13187 48.12208,204.67934 47.261,204.11067C46.4371,203.56656 45.525,203.5 44.625,203.5C43.825,203.5 42.80157,203.91272 41.98217,203.44284C41.29432,203.04842 40.625,202.5 39.825,202.5C38.925,202.5 38.025,202.5 37.125,202.5C36.225,202.5 35.27494,202.63167 34.525,202.27867C33.74947,201.91364 33.02505,201.50534 32.125,201.5C31.22502,201.49467 30.325,201.5 29.425,201.5C28.525,201.5 27.6246,201.47464 26.825,201.5C25.92364,201.52859 25.16194,202.07365 24.325,202.44733C23.55284,202.79207 22.68793,202.98206 21.98217,203.55267C21.2511,204.14375 20.85133,204.77007 20.40367,205.60001C20.05434,206.24765 19.63341,207.11778 19.19967,207.89999C18.74489,208.72014 18.625,209.5 18.625,210.3C18.625,211.2 18.44694,212.12201 18.64583,213C18.86383,213.96233 19.36086,214.65897 19.79167,215.5C20.13196,216.16434 20.92983,216.80418 21.51033,217.38533C22.10934,217.985 22.67456,218.48073 23.45833,219.5C23.89662,220.06998 24.31668,220.78975 25.01433,221.43866C25.62169,222.00359 26.21804,222.59482 26.73483,223.2045C27.28145,223.84935 27.98539,224.18738 28.86783,224.7955C29.63257,225.32251 30.4434,225.55499 31.14583,226.02083C31.96927,226.56691 32.65604,226.95158 33.45833,227.5C34.13261,227.96092 34.74863,228.80385 35.425,229.21466C36.20114,229.68608 36.6937,230.25139 37.51167,230.584C38.26501,230.89034 38.98259,231.18924 39.86783,231.7955C40.6341,232.32028 41.40453,232.61905 42.225,233.07466C43.00696,233.50888 43.73681,233.94234 44.625,234.33333C45.28264,234.62283 46.27459,234.55293 46.67767,235.2045C47.15386,235.97426 47.925,236.44284 48.82367,236.50133L49.57233,236.85266L50.14583,237.47917L51.025,237.5" id="svg_19" stroke-width="3" stroke="#000" fill="none"/>
  <path t="114468,114553,114553,114585,114600,114632,114665,114674,114697,114745,114799,114799,114814,114872,114922,114968,114968,114979,115009,115049,115081,115139,115189,115189,115234,115266,115274,115306,115338,115410,115440,115440,115480,115522,115586,115586,115611,115687,115745,115777,115817,115903,115954,116006,116006,116022,116152,116186,116239,116322,116418,116456,116488,116514,116554,116637,116681,116737,116738,116770,116809,116856,116871,116871,116904,116929,116961,116974,116992,117024,117049,117105,117105,117153,117177,117268,117983,117999,118055,118122,118188,118270,118312,118384,118385,118488" d="M141.625,218.5C141.625,219.5 141.625,220.3 141.625,221.2C141.625,222.10001 141.625,223 141.625,223.89999C141.625,224.8 141.54288,225.70377 141.62517,226.60001C141.70885,227.51144 142.42017,228.15367 142.60417,229C142.7955,229.87999 143.07794,230.60721 143.45833,231.5C143.77853,232.25154 143.69052,233.12903 144.42633,233.584C145.11221,234.0081 145.49057,234.90987 145.6295,235.8C145.75731,236.61896 146.30348,237.31554 146.65033,238.10001C147.01202,238.91803 147.40501,239.79677 147.97766,240.44733C148.49599,241.03616 149.19356,241.42299 150.10767,241.78534C150.78838,242.05518 151.35097,242.9528 151.98216,243.44733C152.69659,244.00706 153.39362,244.35182 154.325,244.4955C155.21449,244.63272 156.125,244.5 157.02499,244.5C157.925,244.5 158.825,244.5 159.72501,244.5C160.625,244.5 161.425,244.5 162.325,244.5C163.22501,244.5 164.08528,244.36415 164.67767,243.85266C165.33368,243.28625 166.1615,243.05948 166.9205,242.55267C167.66516,242.05545 168.23456,241.49794 168.67767,240.7955C169.1646,240.02361 169.43811,239.14053 169.8465,238.39999C170.21846,237.72551 171.22249,237.20299 171.53967,236.3C171.83928,235.44705 171.625,234.5 171.625,233.7C171.625,232.8 171.625,231.89999 171.625,231C171.625,230.10001 171.625,229.2 171.625,228.3C171.625,227.39999 171.625,226.5 171.625,225.7C171.625,224.8 171.625,223.89999 171.625,223C171.625,222.10001 171.79201,221.1841 171.62367,220.30133C171.47925,219.54396 170.64365,219.06454 170.625,218.2C170.60561,217.30022 170.40367,216.39999 169.97766,215.8L169.63567,214.89999" id="svg_20" stroke-width="3" stroke="#000" fill="none"/>
  <path t="132644,132766,132781,132799,132808,132816,132848,132865,132875,132897,132929,132929,132969,132969,133009,133009,133055,133055,133136,133184,133184,133216,133216,133256,133304,133305,133345,133361,133361,133377,133417,133464,133488,133512,133536,133569,133593,133593,133609,133633,133665,133689,133713,133713,133729,133753,133763,133764,133785,133816,133824,133824,133832,133848,133864,133888,133896,133896,133912,133920,133928,133936,133952,133976,133976,133984,134000,134016,134056,134056,134097,134105,134105,134144,134160,134176,134184,134208,134232,134232,134256,134272,134288,134304,134312,134336,134336,134352,134368,134384,134400,134424,134440,134440,134448,134488,134529,134553,134577,134617,134633,134657,134657,134681,134721,134745,134745,134761,134793,134817,134849,134865,134865,134905,134921,134921,134937,134961,134985,135001,135049,135050,135097,135129,135129,135145,135177,135177,135209,135249,135273,135305,135305,135321,135369,135437,135480,135539,135577,135601,135632,135688,135703,135737,135753,135792,135792,135833,135849,135881,135905,135945,135977,136001,136025,136048,136064,136120,136219,136335,136335,136404,136440,136463,136495,136520,136544,136652,136652,136799,136886,136886,136944,137021,137087,137189,137234,137288,137288,137433,137536,137637,137689,137721,137722,137745,137805,138152,138152" d="M133.625,239.5C133.625,237.8 134.02321,236.79742 133.589,235.936C133.23672,235.23712 132.82127,234.66417 132.56784,233.8C132.31052,232.92256 131.74448,232.19377 131.62367,231.3C131.51425,230.49045 130.96252,229.89766 130.42633,229.01601C130.02032,228.34843 129.75948,227.3712 129.541,226.616C129.26273,225.65413 128.90034,224.98645 128.625,224C128.3963,223.18065 128.15968,222.46495 127.52517,221.5215C127.09702,220.88489 126.64301,220.10054 126.625,219.2C126.60701,218.30019 126.625,217.39999 126.625,216.5C126.625,215.7 126.625,214.8 126.625,213.89999C126.625,213 126.625,212.10001 126.625,211.2C126.625,210.3 126.44365,209.34651 126.79166,208.5C127.06756,207.82892 127.68166,207.07483 128.19966,206.47467C128.74231,205.84595 129.2338,205.02209 129.50366,204.17883C129.75681,203.38779 130.14952,202.71202 130.82367,202.21466C131.59279,201.64722 131.26003,200.589 131.68216,199.85716C132.15004,199.04604 132.8367,198.52826 133.19966,197.89999C133.68823,197.05432 134.08165,196.36957 134.709,195.784C135.39749,195.14136 135.86714,194.54622 136.27234,193.8C136.68564,193.03888 136.67221,192.1413 137.19966,191.47467C137.715,190.82336 138.05182,190.09119 138.72501,189.39999C139.31703,188.79214 139.98058,188.04002 140.72484,187.62134C141.46648,187.20412 141.81586,186.37398 142.3295,185.8C142.98753,185.06468 143.62404,184.49904 144.22501,183.89999C144.92387,183.20337 145.78716,182.9292 146.45833,182.33333C147.06464,181.79504 147.77847,181.68134 148.625,181.33333C149.29608,181.05743 150.12482,180.51042 151.02499,180.5C151.92494,180.48959 152.82877,180.58212 153.72501,180.49983C154.63644,180.41615 155.16266,179.73883 156.125,179.52083C157.00299,179.32193 157.925,179.5 158.825,179.5C159.72501,179.5 160.625,179.5 161.425,179.5C162.325,179.5 163.22501,179.5 164.125,179.5C165.02499,179.5 165.94086,179.33327 166.82367,179.50133C167.58229,179.64574 168.2453,180.2494 168.91966,180.55267C169.75044,180.92627 170.03914,181.9214 170.72501,182.59984C171.21004,183.07962 172.18816,183.4342 172.65033,184.11067C173.14952,184.84132 173.405,185.75615 173.79167,186.5C174.19882,187.28325 174.93591,187.78926 175.625,188.5C176.19821,189.09122 176.48701,190.013 177.14583,190.5C177.8318,191.00708 178.36086,191.65897 178.79167,192.5C179.13197,193.16434 180.05118,193.71675 180.45833,194.5C180.845,195.24385 181.16679,195.98029 181.82367,196.7C182.35715,197.2845 182.65652,198.21167 183.05034,198.89999C183.5164,199.71457 183.90996,200.55956 184.27234,201.2C184.73676,202.02078 185.31371,202.59868 185.709,203.30133C186.16859,204.11827 186.36462,204.9391 186.6295,205.7955C186.86559,206.55881 187.61458,207.02065 187.625,207.89999C187.63567,208.79994 187.625,209.7 187.625,210.60001C187.625,211.5 187.625,212.3 187.625,213.2C187.625,214.10001 187.625,215 187.625,215.89999C187.625,216.8 187.625,217.7 187.625,218.60001C187.625,219.5 187.14183,220.10718 186.71033,220.78534C186.21718,221.56038 186.82317,222.66058 186.45833,223.5C186.1608,224.18456 185.22862,224.73297 184.79167,225.5C184.34741,226.27986 183.88582,226.9446 183.26784,227.44733C182.56436,228.01961 181.86914,228.52917 181.57233,229.2C181.19728,230.04765 180.32115,230.62363 179.91034,231.3C179.43892,232.07614 178.78368,232.37862 178.14583,233.02083C177.50688,233.66414 177.625,234.7 177.625,235.60001C177.625,236.5 177.17465,237.04492 176.71033,237.78534C176.22227,238.5636 176.44366,239.65347 176.79167,240.5C177.06757,241.17108 177.59967,241.89999 177.97766,242.8L178.45833,243.5L178.62367,244.3" id="svg_23" stroke-width="3" stroke="#000" fill="none"/>
  <path t="145286,145508,145527,145557,145593,145633,145633,145657,145657,145697,145697,145737,145882,145913,145945,145955,145955,145969,145985,146000,146195,146211,146249,146250,146265,146289,146313,146323,146324,146338,146585,146632,146640,146656,146689,146754,146897,146897,146897,146929,146977,146978,146993,147180,147196,147225,147231,147247,147263,147273,147288,147319,147353,147353,147377,147377,147601,147812" d="M142.625,216.5C143.27234,215.7955 143.55147,214.84154 144.05034,214.11067C144.55823,213.36661 145.03148,212.62134 145.42633,211.98267C145.89122,211.2307 146.4821,210.64941 147.01433,209.67467C147.3802,209.00459 147.5464,207.98241 147.97766,207.2C148.38756,206.45634 148.77605,205.53871 149.625,205.5C150.42871,205.46335 151.23334,206.08914 151.59967,206.89999C151.95282,207.68164 152.10165,208.75937 152.79167,209.33333C153.44502,209.87679 154.57478,209.58389 155.189,208.88933C155.77843,208.22279 155.80119,207.15131 156.625,206.66667C157.27777,206.28265 157.52458,205.53049 158.23567,204.936C158.96745,204.32422 159.76335,204.94936 160.341,205.584C160.9296,206.23065 161.38628,206.86165 161.8465,207.59984C162.29359,208.317 163.29367,208.57069 164.02499,208.064C164.81798,207.51457 165.44302,207.0546 166.189,206.47467C166.81349,205.98918 167.56966,205.08409 168.26784,205.55716C168.95071,206.01985 168.61433,207.20006 168.625,208.10001C168.63542,208.97935 169.31039,209.51498 169.59967,210.36133C169.9201,211.29886 170.14583,211.97917 170.82367,212.7L171.33966,213.3L171.65033,214.10001L172.061,214.89999" id="svg_25" stroke-width="3" stroke="#000" fill="none"/>
  <path t="149726,150005,150005,150088,150216,150249,150415,150518,150560,150592,150608,150624,150781,150781" d="M148.625,220.5C148.79167,219.5 149.33914,218.97388 150.05034,218.48933C150.73087,218.0257 151.32948,217.50226 152.22501,217.5C153.125,217.49774 154.2715,217.31548 154.60417,218.02083C154.97931,218.81622 154.6295,219.8 154.91034,220.7L155.42633,221.3" id="svg_26" stroke-width="3" stroke="#000" fill="none"/>
  <path t="151497,152398,153040,153104,153145,153169,153315,153315,153479" d="M163.625,219.5C165.45833,219.33333 165.84023,218.5609 166.72501,218.5C167.62288,218.4382 168.45833,218.66667 168.79167,219.5L169.27234,220.2L169.60417,221" id="svg_27" stroke-width="3" stroke="#000" fill="none"/>
  <path t="156806,156947,156978,157031,157055,157083,157095,157145,157251,157340,157387,157402,157465,157497,157497,157521,157585,157585,157654,157704,157704,157771,158541,158586,158702,158736,158850,158966,159037,159037,159081,159170,159361,159435,159435,159549,159855,159921,159921,160096,160263,160321,160621,160657" d="M152.625,233.5C153.541,233.784 154.11171,234.32478 154.625,235.02083C155.13261,235.70917 155.03546,236.83157 155.6295,237.44284C156.19365,238.02335 157.04594,238.20566 158.02499,238.464C158.8959,238.69382 159.825,238.5 160.72501,238.5C161.625,238.5 162.38765,238.53712 163.125,237.97917C163.90276,237.39064 164.325,236.8 165.02499,236.10001C165.72501,235.39999 166.17415,234.84476 166.925,234.2045C167.67802,233.56239 168.08333,233.5 167.22501,233.5C166.325,233.5 165.425,233.5 164.52499,233.5C163.625,233.5 162.825,233.5 161.925,233.5C161.02499,233.5 160.10417,233.5 159.14101,233.5C158.45033,233.5 157.38217,233.5 156.52499,233.5C155.625,233.5 154.825,233.5 153.925,233.5C153.02499,233.5 152.125,233.5 151.22501,233.5L150.3295,233.4955" id="svg_28" stroke-width="3" stroke="#000" fill="none"/>
  <path t="162073,162465,162520,162685,162879,162920,163003,163049,163097" d="M159.625,221.5C159.625,223.3 159.625,224.2 159.625,225.10001C159.625,225.89999 159.61433,226.88933 159.10417,227.47917L158.22501,227.5L157.325,227.5" id="svg_29" stroke-width="3" stroke="#000" fill="none"/>
  <path t="180669,180766,180808,180816,180816,180848,180864,180872,180896,180912,180928,180928,180944,180944,180960,180960,180968,180976,180976,180984,180991,180992,181008,181008,181016,181024,181032,181040,181048,181048,181055,181072,181088,181104,181112,181112,181128,181136,181153,181183,181184,181200,181216,181233,181242,181256,181264,181272,181272,181288,181296,181304,181320,181328,181344,181344,181353,181360,181377,181393,181408,181408,181416,181424,181424,181440,181455,181464,181472,181480,181488,181504,181512,181512,181523,181539,181545,181556,181569,181585,181601,181601,181617,181626,181626,181642,181649,181660,181672,181688,181696,181696,181704,181720,181728,181744,181753,181760,181760,181776,181784,181792,181808,181826,181842,181842,181848,181864,181880,181896,181896,181904,181904,181920,181936,181953,181960,181976,182000,182008,182016,182016,182040,182048,182071,182088,182088,182113,182120,182151,182176,182185,182216,182233,182256,182257,182273,182289,182305,182314,182337,182352,182369,182385,182385,182400,182424,182432,182448,182464,182472,182488,182504,182504,182520,182528,182551,182569,182585,182600,182623,182639,182640,182648,182672,182688,182704,182704,182712,182720,182728,182728,182744,182760,182776,182784,182800,182816,182841,182850,182850,182865,182872,182888,182904,182912,182920,182936,182944,182944,182960,182960,182968,182976,182984,182992,182992,183008,183024,183024,183040,183040,183048,183055,183064,183072,183088,183088,183104,183105,183128,183144,183153,183160,183176,183192,183208,183224,183240,183248,183256,183256,183272,183280,183296,183304,183313,183328,183344,183360,183360,183367,183383,183407,183423,183423,183447,183463,183464,183479,183480,183495,183503,183512,183527,183535,183552,183560,183560,183567,183583,183599,183607,183623,183647,183671,183679,183680,183704,183745,183779,183779,183800,183832,183832,183848,183848,183864,183888,183927,183943,183952,183968,183968,183991,183999,184015,184039,184071,184104,184169,184169,184209,184240,184272,184288,184296,184304,184328,184377,184385,184441,184504,184504,184766,184766" d="M5.625,154.5C5.91033,153.58533 6.725,153.5 7.625,153.5C8.425,153.5 9.325,153.5 10.225,153.5C11.125,153.5 12.025,153.5 12.9295,153.5C13.94633,153.5 14.625,153.5 15.60367,153.5C16.509,153.5 17.45037,153.49269 18.141,153.5C19.12517,153.51042 20.10178,153.8018 20.79967,154.07466C21.73064,154.43866 22.63754,154.40851 23.38217,154.55716C24.30692,154.74178 24.93954,155.28365 25.989,155.464C26.91216,155.62265 27.825,155.5 28.725,155.5C29.625,155.5 30.44888,155.33868 31.225,155.536C32.08728,155.7552 32.82198,156.45729 33.725,156.5C34.624,156.54253 35.42541,156.47276 36.325,156.5C37.26913,156.52859 37.6768,157.35638 38.625,157.5C39.41598,157.6198 40.325,157.5 41.225,157.5C42.125,157.5 43.025,157.49934 43.925,157.5C44.825,157.50067 45.57878,157.74214 46.325,158.14734C47.08612,158.56062 48.025,158.5 48.925,158.5C49.825,158.5 50.725,158.5 51.625,158.5C52.425,158.5 53.325,158.5 54.225,158.5C55.125,158.5 56.03567,158.5 56.94633,158.5C57.79967,158.5 58.73967,158.5 59.625,158.5C60.425,158.5 61.325,158.5 62.225,158.5C63.125,158.5 64.025,158.5 64.925,158.5C65.825,158.5 66.725,158.5 67.625,158.5C68.425,158.5 69.325,158.5 70.225,158.5C71.125,158.5 72.025,158.5 72.925,158.5C73.825,158.5 74.72517,158.5 75.51033,158.5C76.45033,158.5 77.45834,158.5 78.21433,158.5C79.125,158.5 80.025,158.5 80.925,158.5C81.825,158.5 82.725,158.5 83.625,158.5C84.425,158.5 85.32506,158.51041 86.225,158.5C87.12518,158.48958 87.94293,157.91086 88.725,157.62151C89.57674,157.30638 90.45944,157.69595 91.325,157.44284C92.20264,157.1862 92.92365,156.52859 93.825,156.5C94.72455,156.47147 95.625,156.5 96.425,156.5C97.325,156.5 98.23302,156.60225 99.14584,156.47917C99.96366,156.36891 100.77161,155.83698 101.6035,155.62151C102.40594,155.41367 103.325,155.5 104.225,155.5C105.125,155.5 106.025,155.5 106.925,155.5C107.825,155.5 108.77927,155.68327 109.625,155.33333C110.40962,155.00867 111.15705,154.56522 111.925,154.14734C112.76591,153.68976 113.625,153.5 114.425,153.5C115.325,153.5 116.225,153.5 117.125,153.5C118.025,153.5 118.925,153.5 119.825,153.5C120.725,153.5 121.625,153.5 122.425,153.5C123.325,153.5 124.225,153.5 125.125,153.5C126.025,153.5 126.925,153.5 127.825,153.5C128.72501,153.5 129.625,153.5 130.425,153.5C131.325,153.5 132.22501,153.5 133.125,153.5C134.02499,153.5 134.925,153.5 135.825,153.5C136.72501,153.5 137.625,153.5 138.425,153.5C139.325,153.5 140.22501,153.5 141.125,153.5C142.02499,153.5 142.925,153.5 143.825,153.5C144.72501,153.5 145.625,153.5 146.425,153.5C147.325,153.5 148.22501,153.5 149.14583,153.5C149.94633,153.5 150.79967,153.5 151.73967,153.5C152.72501,153.5 153.625,153.5 154.425,153.5C155.325,153.5 156.22501,153.5 157.125,153.5C158.02499,153.5 158.925,153.5 159.825,153.5C160.72501,153.5 161.625,153.5 162.425,153.5C163.325,153.5 164.22501,153.5 165.125,153.5C166.02499,153.5 166.925,153.49992 167.825,153.5C168.72501,153.50009 169.58934,153.72852 170.261,154.07466C171.07312,154.49318 171.97232,154.49774 172.86783,154.5C173.825,154.50241 174.72627,154.45221 175.625,154.5C176.42841,154.54272 177.09605,155.13136 177.9465,155.37849C178.80695,155.62852 179.82483,155.49994 180.60417,155.5C181.60333,155.50009 182.17256,155.94615 182.91034,156.41467C183.60181,156.85379 184.625,156.5 185.38217,156.5C186.27766,156.5 187.14101,156.5 188.10417,156.5C189.02499,156.5 189.94669,156.3051 190.82367,156.50133C191.63071,156.6819 192.14565,157.48958 193.02499,157.5C193.92494,157.51067 194.825,157.5 195.72501,157.5C196.625,157.5 197.425,157.5 198.325,157.5C199.22501,157.5 200.125,157.5 201.02499,157.5C201.925,157.5 202.825,157.5 203.72501,157.5C204.625,157.5 205.425,157.5 206.325,157.5C207.22501,157.5 208.14583,157.5 208.94633,157.5C209.79967,157.5 210.73967,157.5 211.72517,157.5C212.51033,157.5 213.45033,157.5 214.14101,157.5C215.21434,157.5 216.125,157.5 217.02499,157.5C217.925,157.5 218.825,157.5 219.72501,157.5C220.625,157.5 221.425,157.5 222.325,157.5C223.22501,157.5 224.125,157.5 225.02499,157.5C225.925,157.5 226.825,157.5 227.72501,157.5C228.625,157.5 229.425,157.5 230.325,157.5C231.14583,157.5 232.10899,157.5 232.97234,157.5C233.87233,157.5 234.79167,157.5 235.625,157.5C236.6035,157.5 237.42384,157.51802 238.325,157.5C239.22554,157.48199 239.93533,156.88187 240.825,156.58533C241.68265,156.29945 242.625,156.5 243.425,156.5C244.325,156.5 245.22501,156.5 246.125,156.5C247.02499,156.5 247.92973,156.59088 248.825,156.49867C249.6376,156.41496 250.2776,155.69981 251.125,155.52083C252.0058,155.33478 252.925,155.5 253.825,155.5C254.72501,155.5 255.77879,155.82237 256.50366,155.27867C257.1467,154.79636 257.82501,154.5 258.72501,154.5C259.625,154.5 260.42499,154.5 261.32501,154.5L262.22501,154.5" id="svg_31" stroke-width="3" stroke="#000" fill="none"/>
  <path t="185719,185957,185992,185993,186032,186056,186088,186136,186136,186152,186200,186200,186240,186264,186288,186295,186319,186335,186359,186375,186407,186423,186439,186455,186455,186471,186503,186519,186543,186559,186575,186575,186583,186591,186615,186623,186631,186647,186663,186687,186687,186711,186719,186759,186768,186784,186807,186831,186855,186863,186887,186895,186927,186967,187008,187039,187181,187181,187269,187269,187305" d="M254.625,171.5C255.50366,172.2785 255.9147,171.4431 256.27234,170.8C256.74677,169.94688 257.1524,169.15427 257.54099,168.3C257.88812,167.53688 258.28799,166.94763 258.9205,166.2C259.55991,165.4442 259.74408,164.72046 260.19968,163.89999C260.63388,163.11806 261.00067,162.35576 261.45834,161.5C261.88162,160.70856 262.39197,160.19199 262.97766,159.55267C263.51199,158.96941 264.05789,158.24878 264.45834,157.5C264.88162,156.70856 265.75854,156.46118 266.26782,155.7955C266.78616,155.11798 267.25226,154.50587 268.02499,154.07466C268.8439,153.61768 269.77847,153.68134 270.625,153.33333C271.29608,153.05743 272.03525,152.42555 272.65033,151.92534C273.2702,151.42122 274.22501,151.5 275.125,151.5C276.02499,151.5 276.98163,151.63657 277.82501,151.216C278.48663,150.88608 279.32501,150.50226 280.22501,150.5C281.125,150.49776 282.02298,150.49991 282.625,150C283.24472,149.4854 283.93536,148.88196 284.82501,148.58533C285.68246,148.29942 286.23401,147.99281 286.98218,147.55716C287.71112,147.13271 288.45102,147.01497 289.14584,146.5C289.83444,145.98965 290.625,145.5 291.22501,144.89999L291.82501,144.3L292.42499,143.7L293.02499,143.10001" id="svg_32" stroke-width="3" stroke="#000" fill="none"/>
  <path t="190608,190696,190705,190705,190721,190730,190730,190744,190753,190776,190776,190784,190784,190800,190824,190864,190864,190889,190889,190921,190952,190977,191019,191019,191056,191104,191128,191160,191200,191201,191216,191241,191280,191320,191336,191360,191384,191408,191409,191432,191433,191456,191480,191481,191496,191528,191552,191553,191568,191592,191624,191656,191688,191728,191729,191776,191866,191882,191897,191911,191935,191935,191951,192000,192069,192166,192250,192304,192304,192328,192328,192339,192353,192384,192400,192416,192425,192425,192448,192464,192512" d="M229.625,194.5C230.84666,193.62151 231.80223,193.61139 232.60417,193.47917C233.48393,193.33412 233.73961,192.28163 234.3295,191.85716C235.1199,191.28841 235.95911,190.94569 236.82634,190.584C237.47639,190.31288 238.51337,190.16646 239.05566,189.69867C239.79991,189.05669 240.52704,188.67148 241.45833,188.33333C242.15067,188.08194 242.82307,187.29808 243.325,186.8C244.02234,186.10799 245.00479,185.81752 245.541,185.21466C246.1192,184.56459 246.27472,183.67233 246.67767,182.8C247.00844,182.08397 248.006,181.80191 248.57233,181.14284C249.16415,180.45409 249.35025,179.61174 250.125,179.02083C250.85893,178.46106 251.37259,177.87228 252.14583,177.52083C252.94643,177.15694 253.925,177.5 254.82634,177.5C255.79167,177.5 256.4509,177.46664 257.45834,177.5C258.32193,177.52859 259.11581,178.03052 259.72501,178.59984C260.31625,179.15237 261.29141,179.41592 262.02499,179.936C262.81198,180.49394 263.11624,181.28935 263.625,181.97917C264.11127,182.63852 265.00708,182.9558 265.82367,183.416C266.52655,183.81212 266.70975,184.76662 267.42633,185.21466C268.22467,185.71382 269.14584,185.5 270.10901,185.5C270.97232,185.5 271.92188,185.64845 272.72501,185.27867C273.50357,184.9202 274.22495,184.50534 275.125,184.5C276.02496,184.49467 276.92499,184.5 277.82632,184.5C278.79166,184.5 279.66745,184.36633 280.45834,184.66667C281.24915,184.96696 281.5592,186.06316 282.23566,186.52533C282.96631,187.02452 283.93039,187.10808 284.54099,187.78534C285.1235,188.43143 285.42633,189.21466 286.26782,189.55267L286.70901,190.216L287.50366,190.72133" id="svg_33" stroke-width="3" stroke="#000" fill="none"/>
  <path t="193591,193636,193652,193673,193682,193697,193704,193705,193711,193727,193743,193759,193767,193792,193817,193826,193826,193848,193872,193882,193882,193889,193906,193911,193927,193936,193951,193969,193969,193978,193985,193999,194007,194008,194015,194023,194031,194047,194063,194071,194087,194088,194120,194144,194154,194169,194184,194195,194216,194240,194241,194256,194266,194279,194303,194311,194335,194351,194351,194375,194375,194383,194399,194415,194415,194432,194464" d="M232.625,194.5C234.43967,194.51067 235.14813,194.99191 235.91034,195.41467C236.71367,195.86024 237.72501,195.5 238.625,195.5C239.425,195.5 240.325,195.5 241.22501,195.5C242.125,195.5 243.02499,195.5 243.925,195.5C244.825,195.5 245.72501,195.5 246.625,195.5C247.425,195.5 248.325,195.50073 249.261,195.5C250.10767,195.49933 250.86679,195.37482 251.67317,194.85266C252.2968,194.44884 253.24461,194.50195 254.02499,194.07466C254.84756,193.62428 255.72627,193.54779 256.625,193.5C257.42838,193.45728 258.20697,192.88702 259.02499,192.52533C259.80948,192.17848 260.61133,191.58791 261.32501,191.5045C262.21893,191.40004 263.125,191.5 264.02499,191.5C264.92499,191.5 265.82501,191.5 266.72501,191.5C267.625,191.5 268.42499,191.5 269.32501,191.5C270.22501,191.5 271.125,191.5 272.02499,191.5C272.92499,191.5 273.82501,191.5 274.72501,191.5C275.625,191.5 276.42499,191.5 277.32501,191.5C278.22501,191.5 279.125,191.5 280.02499,191.5C280.92499,191.5 281.88553,191.67062 282.72516,191.2785C283.46402,190.93346 284.08682,190.25589 284.79965,189.936C285.715,189.52525 286.72501,189.49983 287.625,189.33333L288.22501,188.92534L289.02499,188.52533L289.92499,188.14284" id="svg_34" stroke-width="3" stroke="#000" fill="none"/>
  <path t="195447,195736,195751,195751,195784,195800,195824,195840,195872,195897,195913,195937,195953,195953,195977,196009,196041,196073,196097,196121,196184,196184,196234,196286,196367,196416,196417,196456,196472,196504,196536,196552,196577,196616,196617,196656,196656,196680,196697,196712,196728,196760,196784,196785,196793,196809,196825,196842,196849,196858,196873,196889,196905,196928,196952,197002,197018,197048,197048,197064,197088,197104,197113,197127,197143,197175,197200,197200,197216,197248,197280,197344,197402,197418,197418,197418,197418,197418,197434,197443,197443,197443,197444" d="M265.625,202.5C264.74634,201.72133 264.24277,202.28931 263.42633,202.50133C262.62589,202.7092 262.19894,203.57758 261.59967,204.07466C260.98471,204.58476 260.0054,204.49806 259.22501,204.92534C258.40244,205.37572 257.45886,205.28935 256.625,205.66667C255.97104,205.96259 255.67953,207.11517 254.91966,207.44733C254.01617,207.84227 253.20737,208.05444 252.74651,208.7215C252.24237,209.45117 252.38286,210.45378 251.97766,211.2C251.56436,211.96112 251.4915,212.91063 251.6295,213.8C251.77388,214.73039 252.39461,215.35112 253.325,215.4955C254.21437,215.6335 255.125,215.5 256.02499,215.5C256.92499,215.5 257.82501,215.5 258.72516,215.5C259.51035,215.5 260.45035,215.5 261.14099,215.5C262.21432,215.5 263.18008,215.79764 264.01434,215.48933C264.76071,215.2135 264.85849,213.99673 265.72516,213.62151C266.4541,213.30589 267.55093,213.78229 268.29166,213.33333C269.06348,212.86552 269.7294,212.58868 270.625,212.5C271.4707,212.41626 271.96793,211.66249 272.57233,211.14734C273.21875,210.59636 274.02499,210.5 274.92499,210.5C275.82501,210.5 276.72501,210.5 277.625,210.5C278.42499,210.5 279.32501,210.5 280.22501,210.5C281.125,210.5 282.02499,210.5 282.92499,210.5C283.82501,210.5 284.72629,210.45221 285.625,210.5C286.42838,210.54272 287.16217,211.24695 288.02499,211.464C288.8985,211.68375 289.83365,211.62422 290.72482,211.49983C291.52646,211.38794 291.49039,210.31929 291.189,209.67467C290.85806,208.96687 290.23788,208.06316 289.569,207.70134C288.62189,207.18903 287.92767,207.08934 287.229,206.864L286.50635,206.61467" id="svg_35" stroke-width="3" stroke="#000" fill="none"/>
  <path t="198110,198261,198305,198329,198338,198368,198384,198400,198416,198432,198432,198448,198472,198496,198529,198538,198561,198572,198585,198601,198625,198657,198657,198673,198690,198706,198736,198736,198769,198793" d="M263.625,197.5C265.42499,197.5 266.32501,197.5 267.22501,197.5C268.125,197.5 269.02499,197.5 269.92499,197.5C270.82501,197.5 271.72501,197.5 272.625,197.5C273.42499,197.5 274.32501,197.5 275.22501,197.5C276.125,197.5 277.02499,197.5 277.92499,197.5C278.82501,197.5 279.86331,197.22589 280.50366,197.72133C281.1394,198.21321 281.89432,198.31111 282.72501,198.7215C283.41559,199.06265 284.06738,199.86575 284.50366,200.59984C284.96954,201.38373 285.72501,201.7215 286.32501,202.2045L287.01434,202.89999L287.50366,203.59984" id="svg_36" stroke-width="3" stroke="#000" fill="none"/>
  <path t="200017,200239,200255,200255,200272,200304,200337,200369,200369,200385,200385,200417,200433,200456,200502,200537,200617,200617,200656,200672,200681,200719,200735,200751,200767,200775,200799,200823,200856,200918,200918,200933,200957,200970,200994,201025,201194" d="M260.625,173.5C261.64584,174.47917 262.64246,174.67863 263.42368,174.41467C264.3132,174.11412 265.02444,173.51801 265.9295,173.5C266.79147,173.48285 267.625,173.5 268.60349,173.5C269.42368,173.5 270.32507,173.48959 271.22501,173.5C272.12518,173.51042 272.82828,174.04318 273.72501,174.37849C274.57565,174.69658 275.42499,174.5 276.32501,174.5C277.22501,174.5 278.125,174.50226 279.02499,174.5C279.9205,174.49774 280.43381,173.83395 281.14584,173.52083C281.94138,173.17097 282.45331,172.87383 282.98218,172.2045C283.5676,171.46358 284.625,171.5 285.42499,171.5C286.32501,171.5 287.22501,171.5 288.125,171.5L289.02499,171.5L289.92499,171.5L290.82501,171.5" id="svg_37" stroke-width="3" stroke="#000" fill="none"/>
  <path t="205847,205932,205984,206032,206044,206071,206071,206095,206119,206152,206153,206176,206187,206210,206234,206234,206241,206257,206273,206289,206329,206361,206361,206371,206417,206449,206465,206503,206521,206561,206561,206684,206730,206752" d="M4.625,232.5C5.5035,233.7215 5.23327,234.87909 5.91033,235.41467C6.55276,235.92285 7.625,235.5 8.425,235.5C9.325,235.5 10.261,235.5 11.109,235.5C11.97233,235.5 12.989,235.5 13.825,235.5C14.725,235.5 15.625,235.5 16.425,235.5C17.325,235.5 18.24461,235.50195 19.025,235.07466C19.84756,234.62428 20.725,234.5 21.625,234.5C22.425,234.5 23.054,234.12938 23.8465,233.62151C24.59307,233.14307 25.23398,232.99277 25.98217,232.55716C26.71229,232.13206 27.725,232.27867 28.325,231.85266L29.225,231.51067L30.125,231.5L31.025,231.5" id="svg_38" stroke-width="3" stroke="#000" fill="none"/>
  <path t="207878,207935,207976,207985,208007,208007,208031,208047,208072,208072,208088,208098,208120,208143,208143,208151,208175,208200,208240,208256,208257,208272,208303,208311,208344,208345,208376,208466,208482,208520,208544,208601" d="M95.625,228.5C97.45834,228.66667 97.84023,229.4391 98.725,229.5C99.62288,229.5618 100.425,229.5 101.325,229.5C102.261,229.5 103.109,229.5 103.97234,229.5C104.86784,229.5 105.825,229.5 106.725,229.5C107.625,229.5 108.45944,229.69595 109.325,229.44284C110.20264,229.1862 110.93123,228.61948 111.825,228.49867C112.63454,228.38925 113.2776,227.69981 114.125,227.52083C115.00581,227.33478 115.98164,227.63655 116.825,227.216C117.48665,226.88608 118.32499,226.50226 119.225,226.5C120.125,226.49776 121.025,226.5 121.925,226.5L122.825,226.5" id="svg_39" stroke-width="3" stroke="#000" fill="none"/>
  <path t="210193,210423,210457,210480,210505,210545,210593,210609,210619,210641,210665,210681,210681,210705,210705,210714,210722,210744,210752,210776,210792,210792,210842,210842,210873,210889,210929,210929,210937,210937,210945,210962,210972,210992,210992,211000,211008,211032,211040,211048,211064,211072,211080,211080,211096,211112,211120,211136,211160,211184,211184,211200,211200,211216,211224,211248,211264,211272,211288,211305,211320,211320,211344,211360,211369,211376,211385,211400,211416,211440,211440,211464,211464,211488,211504,211504,211520,211520,211528,211536,211552,211569,211569,211576,211600,211632,211649,211673,211697,211721,211740,211741,211755,211800,211816,211840,211864,211872,211872,211898,211920,211928,211944,211960,211960,211984,211984,211992,211992,212000,212016,212024,212032,212048,212226,212226" d="M191.625,228.5C193.425,228.5 194.41763,228.8549 195.189,228.464C195.88712,228.11021 196.42633,227.50067 197.325,227.5C198.22501,227.49933 199.125,227.49776 200.02499,227.5C200.92952,227.50226 201.79167,227.66667 202.625,228C203.45833,228.33333 204.41443,228.14105 205.189,228.536C205.88625,228.89151 206.55676,229.10706 207.33966,229.58533C208.14291,230.07603 208.73988,230.41171 209.51033,230.58533C210.30302,230.76396 211.11731,231.31995 211.989,231.464C212.91779,231.61749 213.79167,231.66667 214.625,232C215.45833,232.33333 216.33246,232.53088 217.02499,232.92534C217.83987,233.38948 218.72501,233.5 219.625,233.5C220.425,233.5 221.325,233.5 222.22501,233.5C223.125,233.5 224.02499,233.5 224.925,233.5C225.825,233.5 226.72501,233.5 227.625,233.5C228.425,233.5 229.325,233.5 230.22501,233.5C231.125,233.5 232.02499,233.5 232.9295,233.5C233.79167,233.5 234.625,233.5 235.6035,233.5C236.42366,233.5 237.325,233.5 238.22501,233.5C239.125,233.5 240.02499,233.5 240.925,233.5C241.825,233.5 242.72501,233.5 243.625,233.5C244.425,233.5 245.325,233.5 246.22501,233.5C247.125,233.5 247.96855,233.43306 248.65033,232.92534C249.29114,232.44812 250.16522,232.54195 251.10899,232.216C251.81729,231.97139 252.73759,231.54393 253.509,231.50133C254.4489,231.44942 255.45833,231.5 256.25034,231.5C257.10901,231.5 257.97232,231.5 258.98901,231.5C259.82501,231.5 260.72501,231.5 261.625,231.5C262.42499,231.5 263.32501,231.5 264.22501,231.5C265.125,231.5 266.02499,231.5 266.92499,231.5C267.82501,231.5 268.72501,231.5 269.625,231.5C270.42499,231.5 271.32501,231.55716 272.125,232C272.92499,232.44284 273.82501,232.5 274.72501,232.5C275.625,232.5 276.42499,232.5 277.32501,232.5C278.22501,232.5 279.19458,232.61145 279.92499,232.14284C280.72491,231.62964 281.22537,230.83353 282.10901,230.584C282.78192,230.39397 283.69888,230.14345 284.42368,229.784C285.28564,229.35651 286.07068,228.95792 286.57233,228.2045C287.03125,227.51523 287.92499,227.4955 288.82501,227.216L289.42499,226.784" id="svg_40" stroke-width="3" stroke="#000" fill="none"/>
  <path t="213066,213227,213227,213243,213271,213279,213303,213320,213344,213384,213384,213483,213528,213544,213584,213584,213632,213672,213688,213712,213744,213745,213783,213808,213808,213840,213856,213865,213965,213965,214009,214018,214026,214047,214063,214079,214128,214128,214168,214200,214248" d="M239.625,225.5C237.07167,225.464 236.5155,224.82994 235.82367,224.416C235.02832,223.94012 234.65033,223.11067 234.125,222.5C233.59967,221.88933 233.1808,221.1077 232.52516,220.39999C231.9752,219.80637 231.63316,219.0002 231.625,218.10001C231.61684,217.20003 231.88408,216.27638 232.42633,215.7C233.09399,214.99033 234.00581,214.80176 234.57233,214.14284C235.16353,213.45518 235.80341,212.95079 236.33966,212.416C236.94254,211.81477 236.625,210.67467 236.625,209.98399C236.625,208.91066 236.625,208 236.625,207.10001C236.625,206.2 236.29393,205.04724 236.91034,204.58533C237.64546,204.03445 238.84991,204.75627 239.50366,204.27867C240.20274,203.76796 240.88187,203.66277 241.72501,203.27867C242.50502,202.92332 243.22501,202.51067 244.125,202.47917L244.925,202.14734" id="svg_41" stroke-width="3" stroke="#000" fill="none"/>
 </g>
</svg>