<svg width="500" height="333.3333333333333" xmlns="http://www.w3.org/2000/svg" xmlns:svg="http://www.w3.org/2000/svg" xmlns:xlink="http://www.w3.org/1999/xlink">
 <!-- Created with SVG-edit - http://svg-edit.googlecode.com/ -->
 <g display="inline" class="layer">
  <title>Layer 1</title>
  <path t="0,294,391,439,455,495,503,543,599,599,780,918,919,941,1223,1231,1255,1303,1311,1350,1374,1375,1390,1414,1462,1463,1503,1574,1628,1704,1704,1711,1711,1727,1751,1766,1782,1782,1815,1847,1862,1895,1951,1958,1991,2032,2032,2054,2159,2195,2195,2200,2217,2246,2280,2285,2285,2350,2350,2366,2374,2390,2399,2414,2422,2423,2431,2462,2471,2487,2495,2495,2510,2526,2537,2553,2575,2591,2591,2671,2671,2687,2719,2719,2726,2742,2742,2767,2775,2791,2814,2823,2846,2856,2856,2886,2927,2957,2973,2998,3013,3030,3095,3110,3150,3151,3166,3190,3198,3230,3270,3279,3295,3310,3310,3328,3343,3351,3358,3382,3399,3399,3423,3423,3431,3441,3447,3456,3463,3473,3473,3480,3487,3496,3504,3510,3518,3518,3526,3542,3565,3582,3630,3647,3647,3670,3703,3711,3720,3750,3750,3783,3783,3807,3807,3823,3831,3846,3861,3869,3877,3901,3909,3909,3941,3957,3973,3997,4005,4013,4029,4045,4061,4061,4094,4101,4118,4126,4142,4150,4158,4158,4166,4182,4206,4214,4214,4222,4230,4238,4246,4246,4269,4277,4294,4309,4326,4327,4342,4350,4359,4374,4397,4413,4413,4438,4461,4485,4502,4510,4535,4535,4550,4551,4575,4575,4591,4591,4623,4647,4663,4664,4679,4680,4688,4694,4703,4726,4726,4742,4743,4774,4775,4798,4815,4846,4846,4862,4862,4895,4903,4910,4927,4943,4950,4951,4974,4982,5006,5022,5046,5070,5078,5094,5095,5118,5128,5151,5167,5207,5207,5223,5254,5263,5279,5287,5350,5351,5366,5398,5462,5478,5501,5526,5542,5542,5590,5599,5600,5607,5622,5661,5695,5719,5720,5749,5750,5765,5790,5846,6199,6199,6246,6263,6294,6314,6335,6335,6351,6351,6366,6390,6405,6421,6470,6502,6534,6534,6583,6663,6694,6718,6735,6743,6773,6789,6790,6798,6814,6903,6999,7014,7087,7087,7136,7159,7174,7181,7205,7214,7214,7237,7269,7293,7301,7398,7423,7423,7439,7479,7510,7511,7550,7551,7558,7575,7583,7602,7623,7624,7654,7654,7678,7703,7726,7743,7766,7767,7782,7790,7798,7831,7863,7863,7887,7942,7943,7983,8014,8023,8062,8070,8102,8110,8125,8134,8135,8150,8150,8157,8158,8173,8181,8189,8205,8238,8238,8319,8319,8335,8335,8351,8399,8662,8702,8710,8719,8737,8758,8759,8774,8806,8807,8838,8863,8895,8911,8927,8951,8967,8991,8992,9007,9015,9023,9042,9055,9069,9070,9078,9085,9103,9119,9119,9125,9141,9142,9165,9165,9182,9246,9247,9255,9263,9301,9302,9310,9341,9341,9367,9368,9391,9415,9445,9446,9470,9478,9493,9517,9518,9549,9581,9582,9613,9614,9621,9645,9646,9655,9702,9718,9719,9734,9759,9791,9814,9814,9838,9839,9862,9863,9935,9935,9959,9989,9990,10005,10029,10078,10374,10375,10422,10471,10487,10511,10527,10535,10536,10551,10558,10568,10576,10583,10597,10645,10679,10679,10695,10734,10752,10773,10774,10797,10862,10870,10910,10911,10941,10942,10973,10983,10993,11022,11023,11030,11085,11101,11102,11141,11141,11190,11247,11278,11279,11303,11359,11422,11470,11511,11567,11591,11622,11638,11655,11685,11701,11701,11710,11717,11728,11738,11750,11765,11789,11813,11829,11845,11861,11885,11893,11910,11910,11917,11925,11940,11949,11949,11957,11957,11981,11997,11997,12005,12029,12045,12063,12070,12086,12094,12094,12125,12125,12141,12175,12198,12221,12390,12391,12429,12437,12469,12518,12575,12576,12671,12702,12711,12720,12721,12734,12745,12745,12758,12966,12974,12975,12985,12991,12999,13017,13018,13023,13024,13038,13039,13039,13049,13050,13064,13070,13101,13110,13110,13125,13157,13214,13214,13239,13239,13249,13266,13334,13350,13375,13390,13391,13413,13487,13702,13718,13719,13742,13749,13758,13773,13782,13790,13799,13806,13806,13829,13870,13879,13912,14127,14128,14166,14189,14190,14214,14262,14302,14309,14333,14455,14456,14582,14591,14600,14614,14630,14638,14638,14645,14653,14661,14669,14669,14677,14685,14685,14701,14701,14709,14710,14710,14717,14717,14717,14725,14740,14756,14757,14773,14773,14789,14805,14829,14830,14877,14902,14926,14934,14934,14958,14966,14973,14989,14989,15013,15014,15021,15053,15085,15086,15109,15141,15142,15158,15173,15190,15206,15206,15213,15229,15245,15261,15262,15277,15301,15317,15325,15341,15357,15357,15365,15381,15397,15405,15406,15413,15437,15453,15477,15493,15493,15502,15509,15524,15526,15534,15541,15557,15565,15566,15581,15581,15613,15613,15629,15637,15645,15653,15654,15661,15669,15677,15685,15693,15701,15717,15732,15733,15741,15749,15764,15772,15781,15804,15812,15837,15837,15844,15852,15877,15886,15901,15901,15917,15924,15925,15948,15965,15965,15973,15981,15997,16005,16021,16029,16029,16044,16045,16054,16054,16069,16069,16076,16077,16085,16092,16101,16109,16109,16125,16125,16141,16142,16157,16157,16158,16173,16189,16189,16197,16213,16213,16229,16229,16229,16253,16269,16301,16309,16334,16335,16342,16351,16365,16373,16382,16397,16413,16413,16422,16423,16430,16438,16445,16462,16485,16486,16501,16502,16541,16567,16568,16583,16600,16601,16609,16610,16626,16631,16647,16647,16654,16661,16670,16677,16686,16687,16692,16701,16708,16709,16725,16726,16726,16734,16735,16741,16750,16750,16757,16766,16766,16773,16773,16782,16790,16798,16813,16814,16823,16824,16846,16861,16877,16901,16917,16925,16941,16965,16965,16989,16997,17005,17013,17037,17054,17054,17076,17093,17100,17124,17125,17132,17149,17173,17180,17181,17189,17197,17213,17222,17237,17253,17254,17261,17285,17285,17301,17317,17333,17349,17349,17373,17389,17389,17398,17398,17413,17414,17422,17445,17445,17453,17454,17469,17469,17477,17501,17501,17517,17533,17533,17541,17572,17573,17605,17605,17622,17645,17677,17807,17854,17855,17886,17912,17929,17935,17950,17968,17983,17992,18006,18007,18013,18014,18023,18033,18039,18045,18046,18057,18061,18086,18093,18108,18125,18133,18156,18181,18189,18198,18205,18205,18214,18222,18237,18245,18261,18262,18269,18277,18294,18309,18310,18326,18327,18333,18343,18373,18388,18389,18404,18420,18428,18437,18465,18466,18477,18485,18509,18525,18526,18541,18542,18565,18589,18605,18621,18621,18628,18629,18637,18644,18653,18661,18669,18677,18693,18693,18701,18702,18725,18725,18734,18838,18862,18864,18894,18910,18933,18942,18957,19005,19006,19214,19239,19250,19255,19264,19270,19271,19285,19285,19293,19294,19349,19366,19397,19478,19525,19526,19559,19560,19654,19686,19742,19751,19768,19770,19782,19790,19821,19845,19861,19862,19885,19925,19957,19965,19973,19989,19989,20005,20013,20029,20037,20045,20084,20085,20100,20117,20157,20182,20184,20190,20192,20214,20237,20301,20302,20309,20312,20365,20398,20414,20429,20445,20453,20477,20478,20492,20524,20654,20656,20670,20672,20855,20886,20933,20934,20974,20992,21062,21142,21143,21214,21215,21270,21414,21438,21439,21485,21550,21807,21814" d="M106.5,303.66666C108.064,303.056 108.55666,302.24152 109.07467,301.64133C109.61731,301.0126 110.18263,300.24323 110.44283,299.36667C110.67107,298.59778 110.6247,297.63321 111.11066,297.06668C111.74825,296.32343 112.59237,295.72882 113.3,295.668C114.19669,295.59091 115.22562,296.10788 116.064,295.63068C116.75551,295.23706 116.33478,294.04749 116.52084,293.16666C116.69983,292.31927 117.2774,291.52863 117.584,290.86667C117.98655,289.99759 118.88993,289.58655 119.33334,288.66666C119.64532,288.01941 119.49473,287.06665 119.5,286.16666C119.50533,285.25595 119.68163,284.32632 120.02084,283.66666C120.54074,282.65558 121.15595,282.20456 121.88934,281.69199C122.56084,281.22266 122.83189,280.34259 123.5,279.66666C124.07888,279.08099 124.88934,278.69199 125.5,278.16666C126.11066,277.64133 126.91604,277.24841 127.416,276.46799C127.88265,275.73956 128.7693,275.85556 129.60001,275.44516C130.29057,275.104 130.83463,274.16116 131.7,273.75067C132.45746,273.39136 133.0524,273.00369 133.8,272.37115C134.55566,271.73178 135.10843,271.18463 135.78667,270.75201C136.53207,270.27655 137.5,270.66666 138.4785,270.66666C139.29866,270.66666 140.22649,270.85043 141.10001,270.63068C141.96283,270.41364 142.69698,269.70938 143.60001,269.66666C144.49899,269.62411 145.32388,269.82797 146.10001,269.63068C146.96228,269.41147 147.69698,268.70938 148.60001,268.66666C149.49899,268.62411 150.33444,268.86261 151.2,268.6095C152.07764,268.35284 152.79865,267.69525 153.7,267.66666C154.59955,267.63809 155.5,267.66666 156.25717,267.66666C157.15266,267.66666 158.01601,267.66666 159,267.66666C159.98399,267.66666 160.68312,267.79639 161.74283,267.66217C162.62,267.55109 163.15408,266.85681 164.10001,266.67734C164.98428,266.50955 165.89999,266.66666 166.8,266.66666C167.7,266.66666 168.60001,266.66666 169.5,266.66666C170.3,266.66666 171.22649,266.85043 172.10001,266.63068C172.96283,266.41364 173.60826,265.83859 174.5,265.66666C175.38972,265.49512 175.78236,264.70947 176.7,264.66666C177.59903,264.62473 178.47174,264.45499 179.10001,264.09201C179.94568,263.60342 180.50208,263.05713 181.2045,262.61401C181.97641,262.12708 182.79865,261.69525 183.7,261.66666C184.59955,261.63809 185.5,261.66666 186.3,261.66666C187.2,261.66666 188.10001,261.66666 189,261.66666C189.89999,261.66666 190.80173,261.72104 191.70134,261.66534C192.38916,261.62277 193.30771,261.19528 194.01601,260.95065C194.95978,260.62473 195.89999,260.66666 196.8,260.66666C197.7,260.66666 198.60001,260.66666 199.5,260.66666C200.3,260.66666 201.20006,260.67706 202.10001,260.66666C203.00018,260.65625 203.70331,260.12347 204.60001,259.78818C205.45064,259.47009 206.3,259.66666 207.2,259.66666C208.10001,259.66666 209.013,259.80875 209.89999,259.65601C210.73314,259.51254 211.4874,258.75171 212.3,258.668C213.19527,258.57578 214.10002,258.67197 215,258.66666C215.90004,258.66132 216.68369,258.35709 217.38533,257.86533C218.13474,257.34009 218.86525,256.99323 219.61467,256.46799C220.3163,255.97624 221.20007,255.6796 222.10001,255.66667C222.97932,255.65405 223.49391,254.87405 224.2045,254.67117C225.10873,254.41301 225.65431,253.75041 226.5,253.66667C227.29611,253.58784 228.20006,253.67709 229.10001,253.66667C230.00018,253.65625 230.70331,253.12346 231.60001,252.78816C232.45064,252.47009 233.11278,252.32381 233.7215,251.78799C234.42932,251.16495 235.15408,250.8568 236.10001,250.67734C236.98428,250.50957 237.89999,250.66667 238.8,250.66667C239.7,250.66667 240.60001,250.66667 241.5,250.66667C242.3,250.66667 243.22769,250.85509 244.10001,250.63066C244.96622,250.40781 245.53319,249.48236 246.10001,249.10266C246.92345,248.55104 247.90816,248.78317 248.8,248.66217C249.62135,248.55074 250.26686,247.82082 251.10001,247.67734C251.987,247.52458 252.91051,247.79939 253.8,247.66217C254.73138,247.51849 255.26862,246.81485 256.20001,246.67117C257.08951,246.53397 258.01572,246.82379 258.89999,246.65601C259.84592,246.47653 260.49045,245.77742 261.29999,245.668C262.19379,245.5472 262.92236,244.98047 263.79999,244.72383C264.66559,244.4707 265.6489,244.83665 266.5,244.5C267.20264,244.22206 267.98804,243.76732 268.71066,243.64133C269.70407,243.46812 270.46317,243.12141 271.47833,242.78799C272.20337,242.54987 272.72449,241.80804 273.60001,241.6665C274.50354,241.52045 275.11008,241.0175 275.82132,240.56683C276.47806,240.1507 277.62958,240.06454 278.33334,239.5C279.01508,238.95314 279.60016,238.67108 280.38535,238.66667C281.33603,238.66133 282.11798,238.63698 283.09549,238.314C283.85828,238.06197 284.86798,237.75491 285.70132,237.66533C286.67511,237.56064 287.29257,237.1485 288.33334,236.83333C289.07211,236.6096 290,236.66667 290.89999,236.66667C291.79999,236.66667 292.70001,236.66667 293.60001,236.66667C294.5,236.66667 295.29999,236.66667 296.20001,236.66667C297.10001,236.66667 298,236.66667 298.89999,236.66667C299.79999,236.66667 300.70001,236.66667 301.60001,236.66667C302.5,236.66667 303.30017,236.68466 304.20001,236.66667C305.10056,236.64867 305.81793,236.07751 306.60001,235.78816C307.45175,235.47305 308.33441,235.86263 309.20001,235.6095C310.07764,235.35286 310.79865,234.69534 311.70001,234.66667C312.59955,234.63805 313.47174,234.45497 314.10001,234.092C314.94565,233.60344 315.44119,232.90726 316.2045,232.67117C317.06088,232.4063 317.85037,232.14931 318.70001,231.75067C319.56046,231.34695 320.20111,230.96329 320.79999,230.36667C321.50131,229.66798 322.10583,229.08679 322.47467,228.26666C322.82614,227.48511 323.6987,227.13466 324.33334,226.5C324.96799,225.86536 325.10797,225.06401 325.79999,224.36667C326.29807,223.86475 327.17395,223.25137 327.44284,222.36667C327.70551,221.50247 327.56464,220.44835 327.92532,219.86267C328.36655,219.14618 328.5,220.06667 328.5,220.96666C328.5,221.868 328.5,222.83333 328.5,223.66667C328.5,224.5 328.5,225.36217 328.5,226.26666C328.5,227.16667 328.5,228.06667 328.5,228.96666C328.5,229.86667 328.5,230.76666 328.5,231.66667C328.5,232.46666 328.48959,233.36673 328.5,234.26666C328.51044,235.16685 329.04321,235.86995 329.37851,236.76666C329.69659,237.61731 329.72952,238.37294 330.5,238.83333C331.21948,239.26324 331.58948,240.05846 332.14734,240.71933C332.64246,241.30589 332.905,242.47495 333.79999,242.605C334.71646,242.73817 335.35114,241.89706 335.49551,240.96666C335.63351,240.0773 335.49774,239.16667 335.5,238.26666C335.50226,237.36665 335.83691,236.63541 336.216,235.86667C336.63281,235.02144 336.49466,234.06665 336.5,233.16667C336.50534,232.26662 336.90887,231.53937 337.33334,230.66667C337.65421,230.00699 338.10736,229.21759 338.44733,228.36217C338.77588,227.53543 338.97314,226.63736 339.5,225.83333C339.94073,225.16071 340.30759,224.44995 340.50015,223.56683C340.68427,222.72256 341.39429,222.28824 341.72134,221.34534C341.96176,220.65221 342.43503,219.69513 342.49551,218.97116C342.57083,218.06979 342.6571,217.15096 342.48932,216.26666C342.30984,215.32076 341.78336,214.62025 341.41599,213.86667C341.00937,213.03256 339.8558,212.87657 339.52084,212.14583C339.15427,211.34612 339.23654,210.44711 338.69867,209.86667C338.02643,209.14125 337.19244,208.54527 336.78534,207.86667C336.34384,207.13072 336.06836,206.27051 335.58401,205.468C335.13696,204.72733 334.20212,204.82599 333.55267,204.314C332.93805,203.82945 332.1955,203.66667 331.17868,203.66667C330.5,203.66667 329.52133,203.66667 328.616,203.66667C327.67465,203.66667 326.98401,203.66667 325.91068,203.66667C325,203.66667 324.05545,203.5712 323.29999,203.95067C322.4328,204.38625 321.72009,204.65923 320.84732,205.02383C320.13071,205.32321 319.46362,205.99011 318.70132,206.38133C317.86139,206.81239 316.31696,207.47966 316.04166,206.66667C315.89102,206.22185 316.34409,205.37148 316.85266,204.71933C317.33807,204.09689 317.5,203.34534 317.5,202.492C317.5,201.552 317.5,200.66667 317.5,199.86667C317.5,198.96666 317.5,198.06667 317.5,197.16667C317.5,196.26666 317.5,195.36667 317.5,194.46666C317.5,193.56667 317.5,192.66667 317.5,191.86667C317.5,190.96666 317.33481,190.04747 317.52084,189.16667C317.69983,188.31927 318.39108,187.56827 318.5,186.66667C318.5965,185.86794 319.24478,185.12894 319.46399,184.26666C319.68594,183.39352 319.69086,182.54065 320.2045,181.96666C320.86252,181.23132 321.69125,180.63368 322.064,180.03067C322.54675,179.24968 322.44659,178.27649 322.85266,177.42383C323.23828,176.61411 323.29486,175.82957 323.55716,174.96666C323.82608,174.08197 324.70001,173.46666 325.20001,172.96666C325.89999,172.26666 326.6376,171.59926 327.10001,171.03067C327.75494,170.22534 328.06775,169.49347 328.37866,168.68834C328.72571,167.78961 329.6369,167.63039 330.14282,166.96217C330.66919,166.26695 330.73019,165.15572 331.60001,164.78816C332.43655,164.43468 333.35019,164.65321 334,164.14583C334.7695,163.54498 335.22223,162.91042 336.15268,162.37117C336.82462,161.98174 337.79456,161.84668 338.60001,161.44533C339.36716,161.06305 340.08878,160.57167 340.60983,159.96217C341.1571,159.32202 342.10999,159.16386 342.95834,158.66667C343.60666,158.28673 343.92679,157.25787 344.5,156.66667C345.09067,156.05746 345.77252,155.32689 346.38535,154.86667C347.11771,154.3167 347.89221,154.02878 348.74283,153.36667C349.33279,152.90744 350.01508,152.18138 350.59982,151.56667C351.15756,150.98033 351.50363,150.071 352.2045,149.614C352.97769,149.10983 353.59772,148.56436 354.20001,147.96666C354.89734,147.27464 355.60828,146.83861 356.5,146.66667C357.38971,146.49512 357.83112,145.85239 358.60001,145.44533C359.35751,145.0443 360.09995,144.67201 361,144.66667C361.89996,144.66135 362.89798,144.66658 363.5,144.16667C364.11972,143.65205 364.8923,143.22246 365.60001,142.56683C366.19363,142.01688 367.01434,141.81909 367.89999,141.65601C368.73145,141.5029 369.49045,140.77742 370.29999,140.668C371.19379,140.5472 371.85034,140.14922 372.70001,139.75067C373.56058,139.34702 374.22693,138.90346 375.15268,138.72383C376.00195,138.55904 376.86401,138.66737 377.79999,138.66667C378.70001,138.666 379.55692,138.37697 380.20001,138.01933C381.05313,137.54492 381.83411,137.11235 382.70132,136.75067C383.35141,136.47955 384.31021,136.20235 385.01599,135.95067C385.96182,135.61339 386.82407,135.33478 387.5,134.66667C388.08566,134.08778 388.48541,133.28641 389,132.66667C389.49991,132.06464 389.50485,131.16666 389.5,130.26666C389.49466,129.27728 388.97934,128.67709 388.10001,128.66667C387.20007,128.65601 386.29999,128.66667 385.39999,128.66667C384.5,128.66667 383.69983,128.64793 382.79999,128.66667C381.93546,128.68468 381.45602,129.5209 380.69867,129.66533C379.81589,129.83368 378.87997,129.66396 378.10001,130.092C377.27826,130.54297 376.76212,131.27687 376.064,131.63066C375.29266,132.02155 374.2962,131.58456 373.39999,131.66684C372.48856,131.75052 371.84738,132.46683 371,132.64583C370.1192,132.83188 369.1955,132.66667 368.33334,132.66667C367.5,132.66667 366.48602,132.49861 365.70132,132.752C364.90887,133.0079 364.01874,133.61366 363.32535,133.65601C362.26352,133.72084 361.76288,134.27838 361.064,134.63066C360.20258,135.06487 359.20001,134.6666 358.29999,134.66667C357.39984,134.66676 356.60583,134.72792 355.84732,135.01933C354.97296,135.35524 354.13651,135.64867 353.20001,135.66667C352.30014,135.68398 351.39999,135.66667 350.5,135.66667C349.70001,135.66667 348.823,135.56062 348.41599,134.86534C347.93268,134.03972 347.14468,133.56905 346.66666,132.66667C346.32327,132.01845 346.06635,130.99124 345.20001,130.72383C344.33838,130.45787 343.37396,130.85751 342.79999,131.37117C342.06467,132.02919 341.57288,132.75598 340.89999,133.23067C340.16519,133.74902 339.28122,134.16718 338.5,134.5C337.74847,134.82019 336.79999,134.66667 335.89999,134.66667C334.97916,134.66667 334.01468,134.66667 333.28934,134.66667C332.29999,134.66667 331.49997,134.67334 330.5,134.66667C329.69995,134.66133 328.88327,134.63722 327.90451,134.314C327.14169,134.06209 326.25845,133.69536 325.29999,133.66667C324.40039,133.63976 323.52783,133.4557 322.89999,133.092C322.13016,132.64603 321.1955,132.66667 320.17868,132.66667C319.5,132.66667 318.52112,132.69264 317.70132,132.66667C316.79861,132.63808 316.07764,131.98047 315.20001,131.72383C314.33441,131.4707 313.39999,131.66667 312.5,131.66667C311.70001,131.66667 310.67657,131.25398 309.85718,131.72383C309.16931,132.11826 308.5,132.66667 307.70001,132.66667C306.79999,132.66667 305.89999,132.66667 305,132.66667C304.10001,132.66667 303.20001,132.66667 302.29999,132.66667C301.39999,132.66667 300.4996,132.69205 299.70001,132.66667C298.79861,132.63808 298.07367,132.00381 297.29999,131.752C296.44034,131.47221 295.49915,131.62949 294.70001,131.66667C293.78235,131.70938 293.33185,132.70311 293.58533,133.46666C293.84167,134.23883 294.27475,134.99373 294.50134,135.86534C294.7099,136.66759 295.86264,136.83479 296.33334,137.66667C296.69458,138.30511 297.18619,139.08904 297.44284,139.96666C297.69595,140.83223 297.81903,141.96443 297.21466,142.58267C296.60657,143.20471 296.02856,143.61342 295.44733,144.30949C294.95383,144.90051 293.99484,145.18224 293.29999,145.86667C292.79623,146.36287 292.17767,147.19943 291.29868,147.58267C290.65302,147.86417 289.66113,148.09666 289.09549,148.37117C288.09348,148.85744 287.47183,149.17445 286.81467,149.552C285.80704,150.13089 285.01456,150.63239 284.56699,151.01401C283.6033,151.83571 283.19815,152.53439 282.33334,152.83333C281.66077,153.06583 280.58014,153.57452 280.04166,154.16667C279.47974,154.78459 279.05804,155.45224 278.30133,155.952C277.69241,156.35414 277.62192,157.50307 276.97916,158.14583C276.33643,158.78857 275.25751,158.76709 274.78534,159.468C274.30655,160.17873 274.12921,161.16614 273.29999,161.58267C272.45081,162.00925 271.78629,162.40707 271.55267,163.31483C271.35468,164.08412 270.73483,164.62514 270,165.1875C269.22543,165.78024 268.79996,166.36662 268.10001,167.06667C267.40015,167.76663 267.00873,168.45601 266.5,169.14583C266.01373,169.80518 265.07425,170.07652 264.40018,170.76666C263.83475,171.34558 263.56332,172.22623 262.88934,172.692C262.15735,173.19786 261.30249,173.69098 260.85718,174.36667C260.38553,175.08235 259.76907,175.5183 259.11066,176.10266C258.41745,176.7179 258.07611,177.48058 257.29999,177.952C256.62363,178.36282 256.01163,179.161 255.584,179.86534C255.13304,180.60814 254.27638,180.92574 253.7,181.468C252.99033,182.13567 252.80176,183.0475 252.14284,183.614C251.45518,184.2052 250.9133,184.81012 250.416,185.38133C249.88622,185.98985 248.89735,186.27466 248.3,186.86667C247.69733,187.46397 247.08469,188.34058 246.2,188.6095C245.33708,188.8718 244.50047,188.834 243.864,189.27733C243.01663,189.86757 242.30153,190.23029 241.5215,190.76649C240.78032,191.276 240.00015,191.65399 239.10001,191.66667C238.20007,191.67934 237.46873,192.00356 236.7,192.38266C235.85478,192.79947 234.89999,192.66667 234,192.66667C233.10001,192.66667 232.2,192.66667 231.3,192.66667C230.39999,192.66667 229.5,192.66667 228.7,192.66667C227.8,192.66667 226.89999,192.66667 226,192.66667C225.10001,192.66667 224.2,192.66667 223.3,192.66667C222.39999,192.66667 221.5,192.66667 220.7,192.66667C219.8,192.66667 218.89999,192.66667 218,192.66667C217.08934,192.66667 216.17867,192.66667 215.5,192.66667C214.38533,192.66667 213.46516,192.50339 212.7,192.752C211.9091,193.00897 211.18372,193.5956 210.32533,193.65601C209.38759,193.722 208.27509,193.4104 207.62134,193.888C206.92227,194.39871 206.29858,194.65462 205.33333,194.66667C204.4998,194.67709 203.68593,194.87311 202.87466,195.24133C202.03258,195.62355 201.28923,195.64832 200.30017,195.66684C199.52069,195.68144 198.54631,195.93286 197.8045,196.314C197.02319,196.71544 196.29669,197.20985 195.39999,197.54517C194.54936,197.86325 193.7244,197.67336 192.84283,198.02383C192.07704,198.32829 191.31836,198.80792 190.5,199.14583C189.51944,199.5507 188.71127,199.64749 187.98534,199.66533C187.00029,199.68953 186.01601,199.66667 185.15266,199.66667C184.25267,199.66667 183.33041,199.61401 182.47917,199.6875C181.49287,199.77264 180.72391,200.12752 179.98534,200.38266C179.14903,200.67157 178.2,200.66667 177.3,200.66667C176.39999,200.66667 175.5,200.66667 174.7,200.66667C173.8,200.66667 172.89999,200.66667 172,200.66667C171.10001,200.66667 170.2,200.66667 169.29866,200.66667C168.33333,200.66667 167.5,200.66667 166.66667,200.66667C165.8045,200.66667 164.87997,200.66937 164.10001,200.24133C163.27826,199.79037 162.68776,199.19531 162.05716,198.56683C161.56747,198.0788 160.48181,197.90775 159.70134,197.58267C158.92221,197.25815 158.15575,196.60239 157.52083,196.16667C156.71072,195.61072 156.16756,194.82965 155.47917,194.66667C154.52269,194.44022 153.8033,194.02206 153,193.66667C152.19879,193.31221 151.57539,192.57378 150.89999,192.10266C150.16641,191.59097 149.2,191.66675 148.3,191.66667C147.39999,191.66658 146.54622,191.42453 145.8,191.01933C145.03888,190.60603 144.08916,190.68494 143.1785,190.6665C142.2888,190.6485 141.49524,190.51427 140.7,190.24133C139.89493,189.96503 138.90582,189.69916 138.15717,189.67117C137.12605,189.63264 136.17867,189.66667 135.32533,189.66667C134.38533,189.66667 133.5,189.66667 132.74283,189.66667C131.84734,189.66667 130.98399,189.66667 130.02083,189.66667C129.10001,189.66667 128.1955,189.66667 127.33334,189.66667C126.5,189.66667 125.5215,189.66667 124.70133,189.66667C123.8,189.66667 122.9,189.66667 122,189.66667C121.1,189.66667 120.2,189.66667 119.3,189.66667C118.4,189.66667 117.4996,189.64131 116.7,189.66667C115.79865,189.69527 115.07763,190.35286 114.2,190.6095C113.33444,190.86261 112.4,190.66667 111.5,190.66667C110.7,190.66667 109.79312,190.71162 109,191.16667C108.29371,191.5719 107.4431,191.95636 106.8,192.314C105.94688,192.78842 105.15426,193.19409 104.3,193.58267C103.53689,193.92979 102.7988,194.31128 102,194.66667C101.20329,195.02113 100.96306,196.06245 100.21467,196.58133C99.5415,197.04807 98.46732,196.79227 97.9,197.27733C97.15329,197.91577 96.55703,198.73436 96,199.14583C95.18113,199.75072 94.67164,200.2928 94.14283,200.96217C93.5574,201.70322 92.6816,201.72166 91.97916,202.1875C91.15573,202.73357 90.46896,203.11824 89.66666,203.66667C88.99239,204.12759 88.3,204.86667 87.7,205.46666C87.09999,206.06667 86.43235,206.80396 85.864,207.26666C85.05841,207.92252 84.2913,208.2157 83.5215,208.76666C82.87959,209.22609 82.20741,209.97415 81.5,210.66667C81.00513,211.15112 80.10832,211.43181 79.30133,211.952C78.68798,212.34737 78.45457,213.43887 77.79017,213.96666C77.19788,214.43715 76.24011,214.94833 75.70133,215.46666C74.99778,216.14349 74.71306,217.11334 74.064,217.64133C73.3342,218.235 72.54714,218.65105 72.50134,219.46666C72.44983,220.38374 73.30133,220.666 74.2,220.66667C75.1,220.66734 76,220.66667 76.9,220.66667C77.8,220.66667 78.74937,220.52077 79.60017,220.888C80.31908,221.1983 81.15133,221.6368 82.016,221.66533C82.97864,221.6971 83.80654,221.55971 84.7,221.668C85.61977,221.77948 86.26686,222.51253 87.1,222.65601C87.98701,222.80876 88.9,222.666 89.8,222.66667C90.69867,222.66734 91.23713,223.27838 91.936,223.63066C92.79742,224.06488 93.8,223.66667 94.7,223.66667C95.6,223.66667 96.5,223.66667 97.3,223.66667C98.2,223.66667 99.12514,223.65477 99.9,224.092C100.62624,224.50179 101.5004,224.64131 102.3,224.66667C103.20135,224.69527 103.96304,225.24036 104.8,225.614C105.57231,225.95879 106.22694,226.42987 107.15266,226.6095C108.00196,226.77429 108.97916,226.66437 109.9,226.66667C110.80001,226.66893 111.648,227.03406 112.3,227.38266C113.14739,227.83572 113.81036,228.2847 114.7,228.58133C115.55763,228.86729 116.45377,228.9088 117.2,229.314C117.96112,229.72729 118.90411,229.58498 119.8045,229.67117C120.67779,229.75478 121.47991,230.22209 122.33334,230.5C123.17924,230.77545 123.81036,231.2847 124.7,231.58133C125.55763,231.86729 126.46432,231.89519 127.136,232.24133C127.94812,232.65985 128.84734,232.66441 129.864,232.66667C130.7,232.66852 131.60684,232.55591 132.5,232.66667C133.39922,232.77818 133.80273,233.53189 134.66667,233.83333C135.32924,234.0645 135.93585,234.86613 136.58267,235.38133C137.33412,235.97986 138.33325,235.47484 139.2,235.72383C139.965,235.94359 140.70197,236.68808 141.14284,237.36667C141.65762,238.159 142.34131,238.54529 142.97917,239.1875C143.6181,239.8308 143.34647,240.91513 143.66667,241.66667C143.99951,242.44786 144.64954,243.18098 144.48933,244.06667C144.31842,245.01154 143.37904,245.28738 142.66667,245.83333C142.00523,246.34024 141.26317,246.62624 140.30017,246.888C139.69821,247.05164 138.67813,247.5731 137.91066,247.65601C137.0052,247.75381 136.10001,247.66667 135.2,247.66667C134.29866,247.66667 133.33333,247.66667 132.67467,247.66667C131.66667,247.66667 130.80397,247.61046 130,247.16667C129.19946,246.72479 128.3,246.66667 127.4,246.66667C126.5,246.66667 125.7,246.66667 124.8,246.66667C123.9,246.66667 122.96523,246.61371 122.2,247.01933C121.35406,247.46774 120.5503,247.58185 119.936,248.27733C119.34695,248.94421 119.31316,249.9977 118.5,250.5C117.7364,250.97168 117.67355,251.70493 117.41467,252.46666C117.1129,253.35457 116.51801,254.06613 116.5,254.96666C116.48201,255.86649 116.5,256.76666 116.5,257.66666C116.5,258.46667 116.51018,259.36673 116.5,260.26666C116.48958,261.18768 116.2654,261.98264 115.92533,262.84134C115.6089,263.64035 115.37902,264.44382 114.92533,265.26666C114.48885,266.05829 114.27168,266.98517 114,267.66666C113.61147,268.64124 113.50225,269.36215 113.5,270.26666C113.49776,271.16666 113.5,272.06668 113.5,272.96667C113.5,273.86667 113.5,274.76666 113.5,275.66666C113.5,276.46667 113.61526,277.37827 113.464,278.30267C113.32125,279.17496 112.95846,279.8884 112.3,280.78134C111.84517,281.39816 110.93195,281.97113 110.6215,282.76666C110.29135,283.61267 110.5,284.46667 110.5,285.36667C110.5,286.26666 110.47652,287.18781 110.50134,288.15067C110.51916,288.84198 110.65305,289.92615 111.30133,290.38C112.08825,290.93091 113.02431,291.16333 113.59983,291.76666C114.24292,292.44083 114.55267,293.30951 115.2045,293.66217L116.157,293.66666L115.29867,293.66666" id="svg_1" stroke-width="3" stroke="#000" fill="none"/>
  <path t="22811,23199,23247,23247,23263,23280,23304,23351,23351,23495,23511,23511,23544,23567,23592,23671,23703,23735,23735,23775,23816,23856,23895,23904,23944,23944,23975,24144,24238,24303,24423,24454,24470,24495,24495,24511,24631,24632,24679,24711,24744" d="M109.5,281.66666C108.88934,282.27734 108.18864,282.7858 107.78533,283.46667C107.29539,284.29382 106.92642,285.12976 106.55267,285.96667C106.20783,286.73883 105.79659,287.36777 105.1,288.06668C104.40126,288.76776 103.70222,289.31802 103.52084,290.16666C103.33266,291.04703 103.5,291.96667 103.5,292.86667C103.5,293.76666 103.5,294.66666 103.5,295.46667C103.5,296.36667 103.66521,297.28586 103.47916,298.16666C103.30017,299.01407 102.56088,299.76053 102.5,300.66666C102.44637,301.46487 102.44283,302.36667 102,303.16666C101.55716,303.96667 101.16893,305.11942 101.78533,305.58133C102.52046,306.13223 103.60126,305.71445 104.5,305.66666C105.30341,305.62393 106.03101,305.17636 106.69867,304.46667C107.24093,303.89029 107.584,302.952 108.30133,302.58267L109.064,302.056" id="svg_2" stroke-width="3" stroke="#000" fill="none"/>
  <path t="28240,28455,28461,28472,28480,28496,28648,28673,28727,28727,28744,28760,28785,28786,28871,28872,28935,28944,28944,28960,28977,28994,29008,29008,29022,29064,29104,29159,29328,29328,29344,29383,29575,29575,29632,29649,29711,29720,29823,29832,29842,29842,29936,30031,30032,30111,30137" d="M360.5,134.66667C359.61334,134.66667 358.5372,134.15965 357.74301,134.66684C357.14178,135.05081 356.7092,135.76888 356,136.16667C355.11258,136.66444 354.27637,136.92575 353.70001,137.468C352.99036,138.13568 352.71375,139.15797 352.05716,139.54533C351.4053,139.9299 350.23209,139.99413 349.70132,140.468C348.96289,141.12732 348.48004,141.8709 347.79999,142.30949C346.93604,142.86668 346.53894,143.43274 345.97916,144.16667C345.38824,144.94142 344.55438,145.1375 343.85718,145.71933C343.26602,146.21268 343.01834,147.21829 342.20001,147.614C341.33563,148.03197 340.64908,148.43631 340.50449,149.36667C340.37842,150.17778 340.26215,151.20309 340.55716,151.95683C340.87915,152.77946 342,152.66667 342.89999,152.66667C343.79999,152.66667 344.70001,152.66667 345.60001,152.66667C346.5,152.66667 347.35019,152.6532 348,152.14583C348.76804,151.54616 349.29999,150.952 350.20001,150.67117L351.14282,150.6095" id="svg_3" stroke-width="3" stroke="#000" fill="none"/>
  <path t="32186,32311,32311,32351,32359,32359,32375,32415,32456,32464,32464" d="M319.5,136.66667C320.5,136.83333 321.14798,137.23209 321.7955,137.96666C322.37924,138.62888 322.62347,139.44376 323.07468,140.26666C323.50241,141.0468 323.5,141.97116 323.5,142.83333L323.5,143.64583" id="svg_4" stroke-width="3" stroke="#000" fill="none"/>
  <path t="36714,36808,36808,36814,36830,36830,36837,36853,36862" d="M302.5,138.66667C303.5,138.5 304.10266,138.05867 304.79999,137.36667C305.50269,136.66936 306,136.1875 306.88934,135.692L307.47467,135.23067L307.85718,134.36667" id="svg_5" stroke-width="3" stroke="#000" fill="none"/>
  <path t="38953,39175,39176,39185,39207,39245,39262,39286,39310,39334,39399,39399,39430,39478,39550,39575,39591,39591,39608,39632,39632,39657,39736,39751,39783,39871,39897,39919,39920,39951,39960,40007,40039,40055,40071,40120,40120" d="M297.5,214.66667C297.5,215.66667 297.5,216.46666 297.5,217.38133C297.5,218.27733 297.5,219.16667 297.5,220.06667C297.5,220.96666 297.5,221.86667 297.5,222.76666C297.5,223.66667 297.5,224.46666 297.5,225.36667C297.5,226.26666 297.38858,227.23624 297.85718,227.96666C298.37036,228.76659 299.10608,229.24643 299.47467,230.06667C299.82645,230.84947 300.38898,231.39133 300.97916,232.16667C301.53821,232.90114 301.93546,233.64867 302.79999,233.66667C303.69983,233.68541 304.60001,233.66667 305.5,233.66667C306.29999,233.66667 307.20001,233.66667 308.10001,233.66667C309,233.66667 309.89999,233.66667 310.79999,233.66667L311.70001,233.66667L312.60016,233.6665L313.38535,233.58133" id="svg_6" stroke-width="3" stroke="#000" fill="none"/>
  <path t="47187,47399,47417,47433,47440,47440,47466,47527,47576,47584,47609,47623,47662,47662,47671,47688,47695,47702,47726,47726,47791,47799,47871,47871,47927" d="M191.5,249.66667C190.584,249.95067 190.04292,250.43005 189.30133,250.952C188.51971,251.50211 188.97821,252.53098 188.44284,253.30949C187.95871,254.0135 187.68973,254.39934 187.464,255.26666C187.24112,256.12305 186.23566,256.4313 185.5,256.83334C184.76453,257.23529 184.50128,258.26993 183.7955,258.71933C183.1335,259.14087 182.76846,259.95227 182.2785,260.76651C181.84276,261.49063 180.89999,261.69199 180.10001,262.10266L179.39999,262.76666L178.89999,263.26666L178.2,263.96216" id="svg_8" stroke-width="3" stroke="#000" fill="none"/>
  <path t="54913,55055,55056,55063,55072,55090,55105,55184,55193,55197,55207,55230,55254,55254,55262,55293,55301,55310,55334,55358,55358,55399,55399,55431,55487,55535,55535,55583,55599,55607,55647,55664,55680,55680,55703,55719,55719,55760,55785,55823,55839,55855,55855,55880,55887,55896,55919,55952" d="M303.5,158.66667C303.5,159.66667 303.5,160.46666 303.5,161.36667C303.5,162.26666 303.5,163.16667 303.5,164.06667C303.5,164.96666 303.5,165.86667 303.5,166.76649C303.5,167.66667 303.72952,168.37294 304.5,168.83333C305.21948,169.26324 305.43478,170.19873 305.85266,170.96666C306.31024,171.80757 306.1232,172.84665 306.66666,173.5C307.24063,174.19002 308.15747,174.27509 308.69867,175.15067C309.10947,175.81529 309.03705,176.86736 309.7215,177.54533C310.31122,178.12949 311.29779,178.32225 311.47916,179.16667C311.66821,180.04683 311.5,180.96666 311.5,181.86667C311.5,182.76666 311.5,183.66667 311.5,184.46666C311.5,185.42383 311.5,186.31934 311.5,187.18266C311.5,188.14583 311.5,188.96666 311.5,189.86667C311.5,190.76666 311.5,191.66667 311.5,192.46666C311.5,193.36667 311.5,194.26666 311.5,195.16667L311.48932,196.06667L311.14734,196.96666" id="svg_9" stroke-width="3" stroke="#000" fill="none"/>
  <path t="59792,59925,59934,59934,59942,59942,59950,59950,59958,59958,59958,59968,59968,59968,59973,59981,59981,59981,59989,59989,59989,59997,60005,60005,60012,60013,60020,60020,60029,60029,60036,60037,60044,60044,60053,60054,60061,60061,60061,60069,60077,60077,60084,60093,60093,60101,60101,60109,60116,60117,60117,60125,60125,60133,60133,60141,60141,60141,60149,60149,60157,60157,60165,60165,60165,60173,60173,60181,60189,60189,60197,60204,60214,60214,60229,60230,60239,60239,60246,60254,60254,60254,60261,60261,60270,60270,60277,60309,60309,60334,60334,60349,60365,60374,60382,60423,60431,60454,60469,60477,60478,60493,60502,60510,60517,60526,60541,60559,60566,60574,60582,60591,60598,60607,60621,60629,60695,60767,60767,60792,60879" d="M3.5,271.66666C5.25717,271.66666 6.15717,271.66666 6.9045,271.66666C7.9,271.66666 8.7,271.66666 9.70017,271.66666C10.52083,271.66666 11.66667,271.66666 12.45267,271.66666C13.27467,271.66666 14.33333,271.66666 15.03833,271.66666C15.83833,271.66666 16.88533,271.66666 17.83333,271.66666C18.50983,271.66666 19.28533,271.66666 20.33333,271.66666C21.25333,271.66666 22.01333,271.66666 23,271.66666C23.98533,271.66666 24.71067,271.66666 25.69983,271.66666C26.47917,271.66666 27.47867,271.66666 28.384,271.66666C29.336,271.66666 30.10133,271.66666 31.1,271.66666C31.9,271.66666 32.9,271.66666 33.7,271.66666C34.7,271.66666 35.5,271.66666 36.5,271.66666C37.28933,271.66666 38.01467,271.66666 39,271.66666C39.984,271.66666 40.67467,271.66666 41.74733,271.66666C42.66667,271.66666 43.5,271.66666 44.4785,271.66666C45.29867,271.66666 46.172,271.66666 47.04284,271.66666C47.76133,271.66666 48.55183,271.66666 49.81333,271.66666C50.45833,271.66666 51.47883,271.66666 52.30983,271.66666C53.26933,271.66666 54.02083,271.66666 54.81733,271.66666C56.04284,271.66666 56.68933,271.66666 57.7,271.66666C58.5,271.66666 59.5,271.66666 60.3,271.66666C61.1,271.66666 62.0955,271.66666 63.01467,271.66666C63.87467,271.66666 64.82133,271.66666 65.67467,271.66666C66.61467,271.66666 67.6,271.66666 68.5,271.66666C69.25716,271.66666 70.15717,271.66666 70.9045,271.66666C71.89867,271.66666 72.84283,271.66666 73.74733,271.66666C74.66666,271.66666 75.54166,271.66666 76.18667,271.66666C77.18266,271.66666 77.97916,271.66666 79.16666,271.66666C79.95834,271.66666 80.8045,271.66666 81.82133,271.66666C82.5,271.66666 83.4785,271.66666 84.29867,271.66666C85.2,271.66666 86.1,271.66666 87.1,271.66666C88,271.66666 88.9,271.66666 89.8,271.66666C90.7,271.66666 91.6,271.66666 92.5,271.66666C93.3,271.66666 94.2,271.66666 95.1,271.66666C96,271.66666 96.88934,271.67734 97.5,272.16666C98.11067,272.65601 99,272.66666 99.9,272.66666C100.8,272.66666 101.79789,272.50732 102.44733,273.01935C103.06194,273.50391 103.9,273.66666 104.8,273.66666C105.7,273.66666 106.6,273.66666 107.5,273.66666L108.3,273.66666L109.2,273.66666L110.1,273.66666" id="svg_10" stroke-width="3" stroke="#000" fill="none"/>
  <path t="62135,62231,62240,62240,62247,62248,62255,62255,62255,62264,62264,62271,62272,62280,62281,62281,62288,62288,62296,62296,62296,62303,62303,62310,62310,62310,62318,62318,62326,62326,62326,62334,62334,62335,62335,62343,62343,62343,62350,62351,62351,62359,62359,62366,62366,62367,62367,62375,62375,62375,62383,62383,62383,62383,62390,62390,62390,62398,62398,62398,62406,62406,62414,62415,62422,62422,62422,62430,62430,62430,62437,62445,62445,62446,62454,62454,62463,62463,62470,62470,62478,62478,62485,62486,62495,62495,62495,62502,62502,62510,62510,62517,62518,62518,62518,62526,62526,62526,62534,62534,62534,62542,62542,62542,62550,62550,62550,62558,62558,62558,62566,62566,62566,62566,62573,62573,62581,62582,62582,62589,62589,62590,62598,62599,62606,62622,62622,62630,62630,62646,62646,62654,62654,62663,62669,62670,62677,62677,62686,62686,62686,62694,62695,62695,62702,62703,62703,62703,62710,62711,62711,62711,62719,62719,62719,62719,62727,62727,62727,62727,62734,62735,62735,62742,62743,62743,62743,62750,62750,62750,62751,62758,62759,62767,62767,62767,62774,62775,62775,62783,62783,62784,62790,62791,62798,62798,62806,62806,62806,62814,62814,62814,62821,62822,62822,62829,62829,62829,62830,62837,62838,62838,62838,62846,62847,62847,62854,62854,62854,62863,62863,62863,62863,62864,62870,62870,62870,62878,62878,62878,62878,62886,62886,62886,62894,62894,62894,62902,62902,62902,62903,62910,62910,62918,62918,62918,62926,62926,62926,62934,62934,62934,62942,62950,62951,62957,62958,62958,62966,62966,62974,62974,62974,62982,62982,62982,62989,62990,62997,62998,62998,63005,63006,63014,63014,63014,63021,63022,63030,63031,63031,63037,63038,63045,63046,63046,63053,63053,63061,63061,63061,63069,63069,63069,63077,63078,63078,63085,63085,63086,63086,63093,63093,63094,63094,63110,63110,63110,63111,63117,63118,63118,63118,63118,63118,63124,63124,63125,63125,63125,63125,63133,63133,63133,63134,63141,63141,63141,63149,63149,63149,63157,63157,63157,63164,63165,63165,63165,63173,63173,63173,63180,63181,63181,63189,63189,63190,63190,63197,63197,63197,63205,63205,63212,63213,63213,63213,63221,63221,63221,63229,63237,63237,63245,63245,63253,63253,63261,63261,63269,63277,63285,63285,63292,63293,63293,63301,63308,63309,63316,63325,63325,63332,63332,63341,63349,63364,63364,63372,63380,63404,63405,63462,63485,63502,63510,63533,63542,63567,63597,63597,63614,63614,63766,63838,63853,63870" d="M142.5,274.66666C144.25717,274.66666 145.16348,274.61349 145.9045,274.72385C146.91466,274.87427 147.7,275.27734 148.5,275.66666C149.3,276.056 150.08984,276.43045 151.10001,276.61401C151.89389,276.75827 152.71407,276.85294 153.5,277.1875C154.52028,277.6218 155.11469,277.93274 155.84283,278.36667C156.77846,278.92426 157.2812,279.42612 158.26933,279.86533C159.00232,280.19113 159.81035,280.4198 160.81599,280.58267C161.49628,280.69284 162.67056,280.81772 163.44817,281.01935C164.24295,281.22543 165.16667,281.5 166,281.66666C166.83333,281.83334 167.76848,282.10562 168.32133,282.24133C169.49326,282.52902 170.3994,282.62115 171,282.64584C171.89944,282.68283 173.09895,282.65659 173.68933,282.67734C174.54356,282.70737 175.58359,282.87207 176.47917,283.16666C177.1024,283.37164 178.11082,283.59927 179.01433,283.71933C180.14526,283.8696 180.80533,284.01935 181.5,284.16666C182.19467,284.314 183.45496,284.57132 184.24933,284.63068C185.00389,284.68707 186.14267,284.66666 186.80533,284.66666C187.84933,284.66666 188.532,284.66666 189.73067,284.66666C190.47917,284.66666 191.18266,284.66666 192.18401,284.66666C193,284.66666 193.81599,284.66666 195.04283,284.66666C195.89549,284.66666 196.89999,284.66666 197.7,284.66666C198.70016,284.66666 199.31067,284.66666 200.18533,284.66666C201.18266,284.66666 201.97917,284.66666 202.73067,284.66666C203.84933,284.66666 204.83333,284.66666 205.50983,284.66666C206.28534,284.66666 207.57834,284.66666 208.25333,284.66666C209.33333,284.66666 210.12534,284.66666 210.98534,284.66666C211.71066,284.66666 212.89867,284.66666 213.664,284.66666C214.61734,284.66666 215.30983,284.66666 216.26933,284.66666C217.02083,284.66666 217.81734,284.66666 219.04283,284.66666C219.89549,284.66666 220.90134,284.66666 221.52083,284.66666C222.66667,284.66666 223.45717,284.66666 224.31067,284.66666C224.90134,284.66666 226.10001,284.66666 227,284.66666C227.60001,284.66666 228.79984,284.66666 229.68933,284.66666C230.54283,284.66666 231.57867,284.66666 232.27467,284.66666C233.18401,284.66666 234.18533,284.66666 235.02083,284.66666C235.60451,284.66666 236.8,284.66666 237.7,284.66666C238.3,284.66666 239.5,284.66666 240.39549,284.66666C240.97917,284.66666 241.81467,284.66666 243.04733,284.66666C243.72533,284.66666 244.92133,284.66666 245.72533,284.66666C246.54733,284.66666 247.57851,284.66666 248.26401,284.66666C249.09866,284.66666 250.0955,284.66666 250.84283,284.66666C251.87466,284.66666 252.8215,284.66666 253.52083,284.66666C254.69983,284.66666 255.47917,284.66666 256.33334,284.66666C257.25266,284.66666 258.15268,284.66666 258.84732,284.66666C259.87466,284.66666 260.8215,284.66666 261.52084,284.66666C262.70001,284.66666 263.5,284.66666 264.5,284.66666C265.10449,284.66666 265.95715,284.66666 266.92166,284.66666C267.74667,284.66666 268.66165,284.66666 269.66666,284.66666C270.384,284.66666 271.12534,284.66666 272.24734,284.66666C273.33334,284.66666 274.01599,284.66666 275,284.66666C275.65268,284.66666 276.66666,284.66666 277.75266,284.66666C278.5,284.66666 279.24734,284.66666 280.33334,284.66666C281.34283,284.66666 281.97916,284.66666 282.89868,284.66666C283.80017,284.66666 284.71066,284.66666 285.336,284.66666C286.66666,284.66666 287.384,284.66666 288.12534,284.66666C288.87466,284.66666 290.33334,284.66666 291.01199,284.66666C291.9375,284.66666 292.728,284.66666 293.69467,284.66666C294.46799,284.66666 295.51434,284.66666 296.32132,284.66666C296.90268,284.66666 298.10001,284.66666 299,284.66666C299.60001,284.66666 300.79965,284.66666 301.67868,284.66666C302.48566,284.66666 303.53067,284.66666 304.24817,284.66666C305.16165,284.66666 305.96167,284.66666 306.92133,284.66666C307.72534,284.66666 308.54733,284.66666 309.57867,284.66666C310.5,284.66666 311.18399,284.66666 312.18668,284.66666C313.04166,284.66666 313.98666,284.66666 315.02133,284.66666C315.75266,284.66666 316.5,284.66666 317.24734,284.66666C318.6785,284.66666 319.34283,284.66666 320.28934,284.66666C320.89868,284.66666 322.10001,284.66666 323,284.66666C323.60001,284.66666 324.80017,284.66666 325.71066,284.66666C326.336,284.66666 327.66666,284.66666 328.384,284.66666C329.12534,284.66666 329.87466,284.66666 330.616,284.66666C332.01599,284.66666 332.67465,284.66666 333.32535,284.66666C334.66666,284.66666 335.38266,284.66666 336.11465,284.66666C337.19016,284.66666 338.16666,284.66666 338.99017,284.66666C339.71466,284.66666 340.92151,284.66666 341.73599,284.66666C342.31067,284.66666 343.5,284.66666 344.39551,284.66666C344.97916,284.66666 345.81467,284.66666 347.04733,284.66666C347.72534,284.66666 348.92133,284.66666 349.72534,284.66666C350.54733,284.66666 351.57867,284.66666 352.27466,284.66666C353.18399,284.66666 354.18268,284.66666 354.97916,284.66666C355.73065,284.66666 356.83865,284.66666 357.66666,284.66666C358.52084,284.66666 359.5,284.66666 360.29999,284.66666C361.10001,284.66666 362.10449,284.66666 362.95715,284.66666C363.92151,284.66666 364.73599,284.66666 365.60449,284.66666C366.5,284.66666 367.39099,284.66666 368.228,284.66666C369.35733,284.66666 370.15067,284.66666 371.04285,284.66666C371.76132,284.66666 372.55182,284.66666 373.57849,284.66666C374.47916,284.66666 375.5,284.66666 376.29999,284.66666C377.10001,284.66666 378.10449,284.66666 378.95715,284.66666C379.92117,284.66666 380.71466,284.66666 381.49017,284.66666C382.53201,284.66666 383.30533,284.66666 384.26935,284.66666C385.02084,284.66666 385.81732,284.66666 387.04733,284.66666C387.72534,284.66666 388.92133,284.66666 389.72534,284.66666C390.54733,284.66666 391.57867,284.66666 392.27466,284.66666C393.18399,284.66666 394.18668,284.66666 395.04166,284.66666C395.66165,284.66666 396.66666,284.66666 397.75266,284.66666C398.5,284.66666 399.24734,284.66666 400.33334,284.66666C401.34283,284.66666 401.97916,284.66666 402.89868,284.66666C403.80066,284.66666 404.74268,284.66666 405.444,284.66666C406.24133,284.66666 407.68549,284.66666 408.23734,284.66666C408.81516,284.66666 410.02084,284.66666 410.63467,284.66666C411.24649,284.66666 413,284.66666 413.53549,284.66666C414.5285,284.66666 415.4375,284.66666 416.2865,284.66666C416.69601,284.66666 417.89966,284.66666 419.07867,284.66666C419.828,284.66666 420.52933,284.66666 421.73065,284.66666C422.47916,284.66666 423.18268,284.66666 424.18533,284.66666C425.02084,284.66666 425.90134,284.66666 427.10132,284.66666C427.71066,284.66666 428.65717,284.66666 429.66666,284.66666C430.38266,284.66666 431.47916,284.66666 432.19016,284.66666C433.16666,284.66666 433.99017,284.66666 434.94818,284.66666C435.92151,284.66666 436.73599,284.66666 437.60449,284.66666C438.5,284.66666 439.39999,284.66666 440.29999,284.66666C440.89999,284.66666 442.09866,284.66666 442.97916,284.66666C443.81467,284.66666 444.81601,284.66666 445.5,284.66666C446.66666,284.66666 447.45715,284.66666 448.31067,284.66666C448.90134,284.66666 450.09732,284.66666 450.95834,284.66666C451.72934,284.66666 452.83865,284.66666 453.66666,284.66666C454.52084,284.66666 455.5,284.66666 456.28934,284.66666C457.33334,284.66666 458.12534,284.66666 458.98401,284.66666C459.84732,284.66666 460.74283,284.66666 461.70132,284.66666C462.66666,284.66666 463.336,284.66666 464.5,284.66666C465.28934,284.66666 466.01468,284.66666 467,284.66666C467.98401,284.66666 468.67465,284.66666 469.74734,284.66666C470.66666,284.66666 471.5,284.66666 472.33334,284.66666C473.1955,284.66666 474.10001,284.66666 475.02084,284.66666C475.98401,284.66666 476.67465,284.66666 477.74283,284.66666C478.60001,284.66666 479.5,284.66666 480.29999,284.66666C481.20001,284.66666 482.10001,284.66666 483,284.66666C483.89999,284.66666 484.79999,284.66666 485.70001,284.66666C486.60001,284.66666 487.5,284.66666 488.25717,284.66666C489.15268,284.66666 490.01599,284.66666 490.97916,284.66666L491.89999,284.66666L492.79999,284.66666L493.70001,284.66666" id="svg_11" stroke-width="3" stroke="#000" fill="none"/>
  <path t="74722,74887,74887,74904,74912,74928,74928,74935,74936,74952,74959,74968,74983,74992,74992,74995,75031,75038,75055,75080,75119,75119,75137,75143,75159,75168,75199,75223,75223,75248,75255,75255,75264,75265,75277,75285,75301,75317,75317,75350,75350,75367,75664,75689,75703,75703,75720,75720,75751,75752,75767,75768,75783,75815,75816,75831,75863,75863,75895,75895,75921,75951" d="M160.5,252.66667C159.5,252.83333 159.00595,253.45905 158.5,254.14583C157.98392,254.84637 157.13437,255.0625 156.52083,255.6875C155.77522,256.44702 155.51736,257.26755 154.7955,257.71933C154.12665,258.13794 153.11919,258.3649 152.55267,259.02383C151.96147,259.71146 151.72777,260.50208 150.78534,260.66534C149.90172,260.81842 149.18964,261.2847 148.3,261.58133C147.44235,261.86728 146.53331,261.88727 145.89999,262.24133C145.03873,262.72284 144.11067,262.67734 143.5,263.16666C142.88933,263.65601 141.97917,263.66666 141.01601,263.66666C140.32533,263.66666 139.23193,263.58038 138.33333,263.83334C137.65218,264.02509 136.67813,264.57312 135.91066,264.65601C135.0052,264.75381 134.10001,264.66666 133.1955,264.66666C132.33333,264.66666 131.5,264.66666 130.5215,264.66666C129.70134,264.66666 128.77171,264.47589 127.9,264.70267C127.04361,264.92545 126.5439,265.8642 126.50134,266.552C126.44262,267.50085 126.53056,268.26862 126.4955,269.26666C126.46735,270.06793 126.209,271.06271 125.92533,271.83066C125.57533,272.7782 125.28267,273.63516 124.92533,274.26666C124.4258,275.14944 124.31829,276.00699 123.97916,276.66666C123.45933,277.67786 122.936,278.25601 122.536,279.06668L122.5,279.96667" id="svg_12" stroke-width="3" stroke="#000" fill="none"/>
 </g>
</svg>