<svg width="500" height="333.3333333333333" xmlns="http://www.w3.org/2000/svg" xmlns:svg="http://www.w3.org/2000/svg" xmlns:xlink="http://www.w3.org/1999/xlink">
 <!-- Created with SVG-edit - http://svg-edit.googlecode.com/ -->
 <g display="inline" class="layer">
  <title>Layer 1</title>
  <path t="0,129,130,147,147,196,196,231,232,247,263,263,280,280,297,297,313,313,336,362,362,381,381,381,397,397,463,481,498,514,515,789,789,818,834,857,867,882,915,932,948,948,964,981,1000,1032,1048,1072,1098,1114,1114,1131,1149,1166,1193,1232,1249,1266,1266,1282,1282,1299,1332,1377,1409,1425,1457,1458,1475,1475,1500,1500,1516,1516,1532,1549,1565,1565,1583,1583,1598,1598,1624,1624,1624,1640,1649,1667,1667,1683,1701,1701,1716,1716,1735,1735,1750,1750,1767,1767,1783,1784,1784,1800,1800,1825,1825,1841,1841,1864,1917,1951,1970,1970,1985,1985,2151,2151,2184,2287,2305,2320,2432,2432,2452,2453,2468,2469,2485,2486,2565,2565,2565,2594,2618,2619,2636,2636,2636,2652,2653,2669,2669,2670,2685,2686,2686,2703,2703,2703,2720,2720,2735,2735,2752,2752,2768,2769,2769,2786,2802,2802,2802,2820,2821,2821,2836,2836,2852,2853,2870,2870,2902,2902,2920,2936,2936,2952,2952,2969,2969,2969,2986,2986,3003,3019,3019,3041,3041,3057,3072,3073,3086,3087,3104,3120,3120,3136,3153,3153,3203,3203,3220,3220,3248,3271,3320,3353,3371,3387,3404,3404,3421,3437,3488,3505,3521,3539,3539,3555,3556,3572,3588,3604,3604,3621,3622,3622,3637,3637,3637,3655,3656,3914,3914,3938,3956,3973,3973,4001,4049,4072,4104,4105,4156,4189,4206,4233,4352,4372,4389,4406,4406,4423,4423,4441,4441,4474,4474,4490,4490,4507,4508,4556,4573,4592,4617,4617,4625,4625,4641,4641,4657,4657,4658,4674,4674,4675,4675,4691,4691,4691,4707,4707,4899,4938,4958,4975,4975,4992,5009,5011,5032,5056,5091,5092,5112,5129,5129,5262,5297,5320,5320,5353,5375,5392,5408,5409,5424,5442,5442,5488,5509,5553,5554,5577,5577,5601,5601,5626,5642,5658,5675,5676,5726,5743,5759,5777,5793,5793,5816,5843,5843,5876,5913,5936,5978,5993,5994,6075,6111,6129,6129,6145,6145,6261,6261,6294,6295,6345,6362,6379,6379,6394,6394,6411,6460,6461,6488,6561,6561,6611,6646,6671,6672,6687,6688,6712,6727,6745,6761,6762,6778,6778,6800,6833,6879,6879,6905,6905,6929,6929,6952,6953,6968,6969,6985,6996,7013,7030,7046,7073,7073,7096,7113,7113,7130,7146,7146,7163,7163,7179,7197,7197,7213,7232,7249,7264,7313,7330,7347,7363,7380,7380,7409,7683,7714,7714,7731,7731,7731,7748,7749,7769,7782,7816,7817,7858,7858,7883,7900,7916,7916,7917,7918,7932,7932,7948,7968,7969,7982,8008,8009,8040,8105,8115,8115,8136,8149,8166,8166,8182,8199,8280,8280,8384,8433,8466,8467,8489,8516,8517,8536,8537,8670,8704,8720,8733,8752,8768,8818,8841,8841,8867,8867,8884,8913,8935,8952,9182,9236,9281,9282,9337,9368,9385,9402,9402,9418,9419,9435,9435,9452,9452,9468,9468,9485,9485,9502,9502,9518,9535,9552,9569,9585,9601,9640,9641,9656,9688,9702,9721,9736,9752,9752,9776,9820,9853,9870,9871,9896,9922,9922,9946,9946,9969,10020,10086,10130,10131,10177,10193,10209,10209,10225,10237,10237,10254,10381,10437,10458,10487,10539,10578,10579,10593,10606,10648,10672,10688,10706,10706,10744,10744,10768,10787,10788,10804,10842,10905,10905,10940,10968,11000,11071,11107,11139,11156,11173,11173,11254,11275,11371,11502,11589,11611,11673,11705,11705,11713,11741,11741,11769,11776,11777,11809,11824,11825,11841,11864,11865,11908,11908,12005,12042,12042,12065,12092,12109,12109,12124,12140,12157,12158,12174,12175,12192,12192,12216,12216,12290,12391,12418,12419,12507,12544,12577,12617,12643,12696,12837,12865,12892,12909,12910,12927,12952,12984,12993,13010,13026,13027,13028,13333,13442,13478,13479,13762,13779,13797,13799,13811,13812,13832,13849,13849,13864,13931,13976,14008,14226,14226,14248,14264,14296,14296,14320,14350,14447,14480,14504,14608,14633,14634,14664,14792,14858,14888,14904,14920,14965,14994,15002,15003,15022,15132,15166,15192,15193,15200,15232,15232,15249,15299,15299,15320,15321,15382" d="M46.5,191.66667C47.5,191.83333 48.14122,192.28528 48.7,193.15067C49.13295,193.82117 49.57248,194.66878 50.1,195.256C50.76662,195.99806 51.20858,196.57916 52.02083,197.14583C52.75463,197.65776 53.71062,197.66133 54.69983,197.66667C55.47916,197.67087 56.47867,197.66473 57.25267,197.66667C58.14817,197.66893 58.80209,197.92056 59.58267,198.38266C60.40902,198.87184 61.18397,198.65492 62.268,198.952C63.00961,199.15523 63.76409,199.41046 64.68567,199.96217C65.32188,200.34305 66.22686,200.4807 67.1,200.70267C67.96228,200.92188 68.71134,201.54619 69.38533,201.75067C70.34231,202.04102 71.13181,202.13234 71.95834,202.66667C72.63792,203.10602 72.5,204.16667 72.5,205.06667C72.5,205.96666 72.5,206.86667 72.5,207.76666C72.5,208.66667 72.5,209.46666 72.5,210.36667C72.5,211.26666 72.5,212.16667 72.5,213.06667C72.5,213.96666 72.5,214.86667 72.5,215.76666C72.5,216.66667 72.5,217.46666 72.5,218.36667C72.5,219.26666 72.5,220.16667 72.5,221.06667C72.5,221.96666 72.5,222.868 72.5,223.83333C72.5,224.66667 72.5,225.5 72.5,226.36217C72.5,227.30949 72.5,228.1875 72.5,229.06667C72.5,229.96666 72.59637,230.88992 72.33334,231.83333C72.14328,232.51497 71.67864,233.50311 71.5,234.16667C71.23376,235.15562 70.81133,235.80766 70.58533,236.78267C70.41088,237.53529 70.75674,238.5847 70.27866,239.424C69.86269,240.15427 69.51042,240.70819 69.5,241.8665C69.49299,242.6458 69.56762,243.50572 69.464,244.328C69.35139,245.22154 69.04784,245.90977 68.784,246.89867C68.53129,247.84581 68.68137,248.82014 68.33334,249.66667C68.05744,250.33774 67.52714,251.18768 67.49983,251.98801C67.47071,252.8416 67.15118,253.74983 66.85267,254.41933C66.46459,255.28969 66.50671,256.08685 66.216,257.06668C65.9739,257.88269 65.57964,258.86252 65.52084,259.66666C65.44788,260.66422 65.55625,261.47577 65.41467,262.26666C65.23225,263.28558 64.8411,263.84485 64.6215,264.86649C64.45635,265.63477 64.67861,266.68414 64.41467,267.46533C64.11411,268.35486 63.65025,269.07916 63.4955,269.96667C63.33319,270.89755 62.76323,271.46033 62.58533,272.43466C62.45335,273.15753 62.5,274.33334 62.5,275.125C62.5,275.96667 62.17304,277.14865 62.85717,277.6095C63.63684,278.1347 64.5912,277.94586 65.26167,278.314C66.08576,278.76651 66.87092,278.65924 67.88533,279.09201C68.48534,279.34799 69.50892,279.62878 70.28533,279.65601C71.33275,279.69272 72.03838,279.67715 73.01334,279.66666C73.97933,279.65625 74.87161,279.35309 75.3,278.69467C75.78616,277.94745 76.01517,277.15561 76.21467,276.34933C76.4593,275.36066 76.49467,274.44138 76.5,273.5C76.50446,272.71399 76.5,271.892 76.5,270.83334C76.5,269.892 76.5,269.21399 76.5,268.24533C76.5,267.44135 76.5,266.61932 76.5,265.58817C76.5,264.6875 76.5,263.66666 76.5,262.87732C76.5,261.83334 76.5,261.14584 76.5,260.12399C76.5,259.41599 76.5,258.672 76.5,257.4765C76.5,256.5 76.46491,255.81468 76.58533,254.98C76.73058,253.97324 77.00132,253.1597 77.30133,252.35066C77.6746,251.34407 78.06382,250.73799 78.33334,249.83333C78.5638,249.05972 78.5,248.00951 78.5,247.26216C78.5,246.26801 78.39639,245.49686 78.50134,244.552C78.61279,243.54854 79.26134,243.01712 79.8,242.35316C80.36397,241.65802 80.70907,240.61775 80.88934,239.99066C81.07475,239.34566 81.39215,238.17395 81.47916,237.22917C81.5583,236.36993 81.80887,235.61559 82.14733,234.9095C82.55494,234.05916 82.3922,233.14247 82.52084,232.16667C82.63134,231.32843 83.05598,230.45605 83.6,229.68817C84.05634,229.04405 84.92618,228.44992 85.33334,227.66667C85.67168,227.01579 86.00991,226.12299 86.82117,225.56667C87.45622,225.13116 88.15131,224.49251 88.668,223.86667C89.24664,223.1658 89.78344,222.73462 90.54816,222.02383C91.11494,221.49704 91.92236,220.98047 92.8,220.72383C93.66556,220.47072 94.6,220.66667 95.5,220.66667C96.3,220.66667 97.2,220.66667 98.1,220.66667C99,220.66667 99.90411,220.58498 100.8045,220.67117C101.67779,220.75478 102.47991,221.22209 103.33334,221.5C104.17924,221.77545 104.81036,222.28471 105.7,222.58133C106.55795,222.86739 107.47607,222.73148 108.27067,222.952C109.04747,223.16757 109.9017,223.47093 110.79984,223.76649C111.68839,224.0589 112.53255,224.36038 113.57833,224.54517C114.24835,224.66354 115.33339,224.65782 116.08933,224.66667C116.97935,224.67709 117.49467,225.31329 117.5,226.15067C117.5055,227.01399 117.5,228.03067 117.5,228.86667C117.5,229.76666 117.5,230.66667 117.5,231.46666C117.5,232.36667 117.5,233.26666 117.5,234.16667C117.5,235.06667 117.49992,235.96666 117.5,236.86667C117.50008,237.76666 117.66734,238.6662 118.11066,239.30267C118.70089,240.15004 119.04903,240.87538 119.6,241.64517C120.05943,242.28706 120.7725,243.00644 121.38533,243.46666C122.11768,244.01663 122.91803,244.27315 123.73833,244.96666C124.26499,245.41191 124.66933,246.38133 125.5,246.66667C126.33067,246.952 126.65538,247.83372 127.26167,248.36667C127.92092,248.94617 128.64919,249.30843 129.61734,249.58267C130.45287,249.81935 131.2789,249.92967 132.04167,250.20833C132.9129,250.5266 133.80353,250.98172 134.39999,251.31934C135.30544,251.83185 135.88405,252.2151 136.79967,252.645C137.6647,253.05116 138.46791,253.38391 139.52933,253.58133C140.28888,253.7226 141.35461,254.13 142.14284,253.6095C142.80026,253.17535 142.5,252.01401 142.5,251.15067C142.5,250.29201 142.50061,249.34534 142.5,248.492C142.49933,247.55333 142.10228,246.89217 141.39999,246.224C140.903,245.75114 140.41632,244.83815 139.5,244.66667C138.70918,244.51869 137.91777,244.05428 137.10001,243.692C136.31535,243.34439 135.60916,242.94339 135.02083,242.16667C134.46252,241.4296 134.68883,240.40216 134.33333,239.66667C133.96857,238.91205 132.81152,238.66429 132.55267,237.95683C132.27126,237.18771 131.89958,236.23669 131.584,235.46533C131.20634,234.54225 130.97716,233.8755 130.66667,232.83333C130.4362,232.05972 130.5,231.18266 130.5,230.31934C130.5,229.42383 130.5,228.46666 130.5,227.56667C130.5,226.66667 130.5,225.86667 130.5,224.96666C130.5,224.06667 130.5,223.16667 130.5,222.256C130.5,221.34534 130.3979,220.66187 130.50133,219.552C130.58488,218.65524 131.26117,218.12901 131.47917,217.16667C131.67807,216.28867 131.4091,215.36194 131.50133,214.46666C131.58504,213.65407 132.2505,213.00874 132.7955,212.36667C133.43608,211.61198 133.50189,210.66667 133.5,209.9095C133.49774,209.00949 133.5295,208.2382 133.21466,207.26801C132.95798,206.47699 132.31796,205.74358 131.85716,204.97116C131.41594,204.23157 130.83324,203.6989 130.01601,203.38133C129.30438,203.1048 128.36725,202.48694 127.8045,201.96666C127.17911,201.38847 126.57289,200.57735 125.9,200.10266C125.16519,199.58429 124.27637,199.40759 123.7,198.86534C122.99033,198.19768 122.5286,197.36359 122.5,196.5C122.47242,195.66713 122.5,194.68817 122.5,193.868C122.5,192.96666 122.33356,192.04721 122.52084,191.16667C122.70224,190.31377 123.35816,189.81458 123.88934,188.84134C124.25509,188.17119 124.36912,187.1171 124.85717,186.36667C125.37533,185.56996 126.04517,185.17778 126.6,184.34534C127.0369,183.68982 127.46524,182.80486 128,182.1875C128.6579,181.42799 129.17091,180.91875 129.45183,180.01849C129.69374,179.24321 130.48586,178.98761 131.33067,178.38266C132.01695,177.89124 132.27458,177.19948 132.509,176.36667C132.75557,175.49072 133.8008,175.20386 134.33067,174.46666C134.8371,173.76208 135.16008,172.91866 135.8,172.37117C136.55232,171.72751 137.35971,171.54489 137.89999,170.80533C138.35324,170.18492 138.88118,169.28438 139.5,168.66667C140.08281,168.08492 140.95103,167.63855 141.52533,167.092C142.11972,166.52632 142.20276,165.68349 142.784,164.836C143.26102,164.14049 143.41788,163.46289 143.50017,162.56667C143.58385,161.65523 144.15363,161.10625 144.7955,160.36667C145.37411,159.69998 145.82303,158.7686 146.54167,158.6875C147.49419,158.58 148.30917,158.60997 149.10001,158.752C150.11455,158.9342 150.81245,159.4314 151.74283,159.6095C152.68468,159.78979 153.5963,159.89355 154.136,160.27733C154.97672,160.87514 155.71056,161.19627 156.39017,161.96217C156.92828,162.56862 157.84306,162.98312 158.50534,163.3765C159.00771,163.67488 159.73668,164.17784 160.68567,164.905C161.3004,165.37604 162.13693,165.62514 163.15266,165.67117C163.84862,165.70271 164.87224,166.09351 165.5,166.66667C166.10812,167.22191 166.94318,167.55161 167.8,168.01933C168.54532,168.42619 169.30019,168.64871 170.2,168.66667C171.13651,168.68538 172.03419,168.86404 172.63867,169.27733C173.478,169.85118 173.94612,170.64867 174.82133,170.66667C175.67448,170.68422 176.61897,170.57944 177.5,170.66667C178.34569,170.75041 178.49933,171.55333 178.5,172.492C178.50072,173.5 178.51385,174.308 178.216,175.15067C177.96628,175.85718 177.40602,176.78215 177.50017,177.76649C177.57724,178.57233 178.60439,178.75536 179.5,178.66667C180.3457,178.58293 180.7998,177.79291 181.66667,177.5C182.33707,177.27347 183.4832,177.13066 184.13834,176.614C184.72195,176.15375 184.10178,174.9641 184.536,174.10266C184.88828,173.40378 185.50839,172.81102 186.07466,172.10266C186.65051,171.38232 187.35182,170.89677 187.4955,169.96666C187.63289,169.07721 187.51604,168.14566 187.49983,167.34517C187.48183,166.45546 187.33398,165.44318 186.97917,164.6875C186.56291,163.80096 186.0347,163.07898 185.1785,162.78799C184.50647,162.55962 183.46344,162.58862 182.72133,162.23067C181.77382,161.77364 181.55064,160.95418 180.79016,160.37117C180.21088,159.92706 179.13652,159.68468 178.2,159.66667C177.30017,159.64938 176.26146,159.94104 175.62134,159.44533C174.98491,158.95248 174.37517,158.47389 173.7,157.86534C173.07597,157.3029 172.28329,156.85909 171.40016,156.6665C170.55589,156.48239 170.07614,155.85274 169.3,155.38133C168.62363,154.97052 168.0811,154.01573 167.3,153.752C166.44345,153.46278 165.46732,153.54106 164.89999,153.056C164.15329,152.41756 163.50024,151.66643 163,151.16667C162.30034,150.46767 161.6656,150.03229 160.8,149.614C159.98155,149.21849 159.68689,148.30721 159.2785,147.56667C158.90654,146.89217 157.99451,146.33203 157.584,145.46666C157.22469,144.70921 156.80336,143.98613 156.5,143.14583C156.15945,142.20255 156.03896,141.4595 155.47467,140.65199C155.01039,139.98759 154.51801,139.2672 154.5,138.36667C154.48201,137.46684 154.5,136.56667 154.5,135.66667C154.5,134.86667 154.44284,133.96666 154,133.16667C153.55716,132.36667 153.68837,131.34433 153.14284,130.71483C152.55968,130.0419 152.05922,129.60608 151.39999,128.68817C150.93951,128.04701 150.1447,127.56904 149.66667,126.66666C149.32329,126.01844 148.92635,125.20361 148.55267,124.36667C148.20793,123.59451 147.64818,122.89805 147.5045,121.96667C147.36729,121.07718 147.5,120.16666 147.5,119.26667C147.5,118.36667 147.5,117.46667 147.5,116.56667C147.5,115.66666 147.5,114.86667 147.5,113.96667C147.5,113.10267 147.5,112.23067 147.5,111.26667C147.5,110.36667 147.41788,109.4629 147.50017,108.56667C147.58385,107.65523 148.09956,107.07864 148.47467,106.26667C148.88478,105.37891 149.30099,104.86633 150,104.16666C150.69966,103.46633 151.2,102.96667 151.89999,102.26667C152.60001,101.56667 153.10001,101.06667 153.8,100.36667C154.5,99.66666 154.97458,99.14023 155.7,98.468C156.28046,97.93011 157.13596,97.672 158.15266,97.66666C158.84732,97.66302 159.87248,97.788 160.8,97.66217C161.62138,97.55074 162.24561,96.80413 162.89999,96.27734C163.64639,95.67648 164.66896,95.71184 165.32533,95.656C166.34166,95.56953 166.97092,95.10221 167.82133,94.56683C168.47929,94.15262 169.51895,93.90958 170.29866,93.58266C171.03421,93.27427 171.83635,92.80436 172.60001,92.44534C173.3757,92.08065 174.31569,91.67381 174.49867,90.86533C174.69705,89.98884 174.66522,89.04747 174.47917,88.16666C174.30019,87.31927 173.95747,86.30085 173.2785,85.78817C172.57074,85.25375 171.5,85.66666 170.7,85.66666C169.8,85.66666 168.89999,85.66666 168,85.66666C167.10001,85.66666 166.136,85.78527 165.33333,85.33334C164.60352,84.92242 164.2623,84.15768 163.26167,83.781C162.46301,83.48035 161.5,83.66666 160.7,83.66666C159.91434,83.66666 160.8045,83.66666 161.66667,83.66666C162.5,83.66666 163.51846,83.84821 164.29866,83.58134C165.07979,83.31415 165.61913,82.35532 166.3,81.952C167.12715,81.46205 167.92256,80.98112 168.8,80.72383C169.66545,80.47006 170.53648,80.54442 171.2,79.96217C171.83299,79.40668 172.43912,78.57278 172.5,77.66666C172.55363,76.86847 172.5,75.96667 172.5,75.10267C172.5,74.23067 172.50066,73.26667 172.5,72.36667C172.49933,71.46667 172.26501,70.70896 171.85266,69.96667C171.3947,69.14227 170.88937,68.672 169.89999,68.66666C169.00002,68.66181 168.10001,68.66666 167.2,68.66666C166.3,68.66666 165.39999,68.66666 164.5,68.66666C163.7,68.66666 162.8,68.66666 161.89999,68.66666C161.08934,68.66666 160.17867,68.66606 159.32533,68.66666C158.38533,68.66734 157.54366,68.90411 156.8,69.314C156.01759,69.74525 155.17867,69.88817 154.32533,70.27734L153.5215,70.7665L152.91066,71.23067L152.02083,71.64584" id="svg_1" stroke-width="3" stroke="#000" fill="none"/>
  <path t="22213,22300,22318,22318,22333,22333,22333,22333,22333,22333,22333,22350,22350,22350,22350,22350,22350,22350,22350,22367,22368,22368,22368,22368,22368,22384,22384,22466,22466,22485,22517,22535,22553,22569,22585,22586,22601,22601,22682,22704,22720,22916,22923,22928" d="M138.5,70.66666C139.26167,70.66666 140.17517,70.66666 140.85466,70.66666C142.16667,70.66666 143.04401,70.66666 143.53767,70.66666C144.625,70.66666 145.21466,70.66666 145.83234,70.66666C146.476,70.66666 148.5425,70.66666 149.26666,70.66666C150.00084,70.66666 150.74001,70.66666 151.47917,70.66666C152.21333,70.66666 152.9375,70.66666 153.64667,70.66666C155,70.66666 156.24001,70.66666 156.815,70.66666C157.875,70.66666 158.815,70.66666 159.24001,70.66666C160.64267,70.66666 161.41667,70.66666 162.4785,70.66666C163.29866,70.66666 164.2,70.66666 165.10001,70.66666C166,70.66666 166.89999,70.66666 167.8045,70.66666C168.66667,70.66666 169.5,70.66666 170.4785,70.66666C171.29866,70.66666 172.2,70.66666 173.10001,70.66666C174,70.66666 174.89999,70.66666 175.8,70.66666L176.7,70.66666" id="svg_2" stroke-width="20" stroke="#fff" fill="none"/>
  <path t="25018,25335,25356,25590,25608,25624,25624,25640,25641,25910,25942,25958,26072,26072,26072,26106,26106,26126,26192,26227,26227,26242,26243,26259,26259,26325,26391,26459,26506,26594,27004,27004,27040,27125,27162,27163,27421,27448,27448,27463,27543,27543,27658,27689,27689,27713,27739,27747,27762,27762,27784,27800,27812,27812,27829,27880,27914,27914,27930,28012,28012,28045,28046,28112,28184,28216,28231,28247,28247,28264,28288,28288,28304,28320,28337,28362,28402,28402,28510,28549,28579,28611,28633,28651,28666,28681,28682,28733,28751,28766,28786,28800,28849,28899,28935,28935,28950,28986,29002,29017,29051,29067,29083,29099,29099,29116,29137,29150,29182,29182,29227,29254,29254,29275,29381,29396,29435,29435,29530,29586,29586,29602,29667,29716,29716,29716,29755,29755,29800,29838,29838,29868,29885,29934,29934,29956,29984,30001,30018,30018,30049,30081,30101,30171,30171,30235,30260,30320,30354,30370,30370,30411,30437,30458,30487,30507,30521,30522,30553,30554,30569,30593,30609,30649,30649,30670,30671,30697,30729,30729,30753,30753,30770,30787,30809,30809,30820,30821,30821,30836,30837,30854,30855,30870,30871,30888,30903,30903,30903,30928,30936,30953,30970,30970,31068,31068,31152,31194,31194,31204,31222,31240,31254,31272,31272,31287,31304,31304,31320,31361,31361,31421,31421,31456,31522,31522,31560,31590,31591,31725,31725,31761,31773,31790,31809,31809,31825,31825,31839,32044,32044,32074,32090,32107,32124,32125,32140,32140,32140,32228,32228,32324,32342,32358,32358,32376,32376,32392,32392,32392,32406,32424,32440,32456,32480,32491,32491,32507,32524,32542,32542,32558,32592,32607,32624,32625,32658,32659,32659,32659,32861,32861,32861,32861,32893,32905,32905,32905,32905,32905" d="M169.5,79.66666C169.44284,77.96667 169.11691,76.93866 168.21466,76.66666C167.33893,76.40266 166.39983,76.66666 165.61467,76.66666C164.67467,76.66666 163.98399,76.66666 162.91066,76.66666C162,76.66666 161.06714,76.73566 160.1785,76.44517C159.45546,76.20881 158.90506,75.85226 157.9045,75.37117C157.16179,75.01406 156.25845,74.69526 155.3,74.66666C154.40007,74.63982 153.68567,74.66666 152.73199,74.66666C152,74.66666 150.81767,74.80389 150.04167,74.64584C149.15515,74.46528 148.40646,73.72756 147.52533,73.66666C146.70064,73.60966 145.84853,73.6785 145.01601,73.38267C144.13339,73.06903 143.25861,72.69527 142.39999,72.66666C141.5005,72.6367 140.7,72.66666 139.74283,72.66666C138.84734,72.66666 137.98399,72.66666 137.12534,72.66666C136.17867,72.66666 135.32127,72.75265 134.38533,72.66534C133.48859,72.58168 132.85446,71.96338 132.5,71.16666C132.14462,70.36787 131.60892,69.56828 131.5,68.66666C131.4035,67.86794 130.93802,67.1983 130.55267,66.36667C130.1487,65.4948 130.04675,64.70975 129.416,63.952C128.87267,63.29926 128.12238,62.79116 127.7,62.14933C127.12953,61.28249 126.45882,60.70314 125.9,60.03067C125.3579,59.3783 125.24155,58.4091 124.30133,57.83733C123.6013,57.41163 122.58366,57.82227 122.5,58.76667C122.42059,59.66316 122.5,60.46667 122.5,61.30267C122.5,62.15067 122.5,63.014 122.5,64.03067C122.5,64.96667 122.5,65.86667 122.5,66.76667C122.5,67.66666 122.5,68.46667 122.5,69.36667C122.5,70.26667 122.5,71.16666 122.5,72.06667C122.5,72.96667 122.5,73.86667 122.5,74.76667C122.5,75.66666 122.5,76.46667 122.5,77.36667C122.5,78.26667 122.5,79.16666 122.5,80.06667C122.5,80.96667 122.5,81.86667 122.5,82.76667C122.5,83.66666 122.5,84.46667 122.5,85.36667C122.5,86.26667 122.5,87.16666 122.5,88.06667C122.5,88.96667 122.5,89.86667 122.5,90.76667C122.5,91.66666 122.6613,92.49055 122.464,93.26667C122.24479,94.12894 121.54271,94.86252 121.5,95.83334C121.46835,96.55264 121.5,97.492 121.5,98.5C121.5,99.256 121.57943,100.21637 121.14283,100.97117C120.77672,101.6041 120.12508,102.50714 119.7,103.18267C119.23151,103.92719 118.59499,104.76263 118.50134,105.46667C118.3802,106.37741 117.66203,106.90171 117.33334,107.83334C117.09328,108.51372 116.69189,109.26466 116.30133,110.06533C115.92953,110.82755 115.72427,111.83371 115.33334,112.66666C114.97256,113.43536 114.62397,114.2345 114.14283,114.96667C113.6209,115.76091 112.75886,116.20045 112.536,117.06667C112.31158,117.93898 112.66369,118.92397 112.27866,119.76667C111.97286,120.43597 111.51845,121.2901 111.07467,122.06667C110.66087,122.79075 110.25787,123.62044 109.85267,124.36667C109.43938,125.12778 109.50066,126.06667 109.5,126.96667C109.49933,127.86667 109.30791,128.79156 108.7955,129.36667C108.23524,129.99547 107.82671,130.89445 107.27866,131.54533C106.72104,132.20758 106.54852,132.86798 106.49983,133.76683C106.45712,134.55545 106.10947,135.51805 105.69867,136.18266C105.15747,137.05824 104.13091,137.2068 103.6215,137.88834C103.05108,138.65149 103.67569,139.53917 103.33334,140.5C103.03906,141.32588 102.13488,141.75916 101.66666,142.66667C101.30524,143.36722 101.11845,144.30779 100.85267,145.01401C100.52052,145.89656 100.53577,146.86739 100.49983,147.767C100.47124,148.4827 100.22775,149.44023 99.97916,150.1875C99.71262,150.98877 99.27943,151.97252 99.02084,152.64583C98.63344,153.65453 98.54285,154.45625 98.5,155.5C98.46896,156.25621 98.02272,157.04822 97.5,157.83333C97.07596,158.47021 96.66547,159.15753 96.52084,160.14583C96.38746,161.05719 96.64566,162.02805 96.21467,162.868C95.89685,163.48738 95.15654,164.29736 94.85717,165.01401C94.49258,165.88676 94.19313,166.71347 93.784,167.46666C93.35078,168.26418 92.66005,168.54665 92.02084,169.1875C91.3789,169.83109 91.23651,170.88617 90.69867,171.46666C90.1226,172.08841 89.40001,172.76666 88.8,173.36667C88.2,173.96666 87.49966,174.66634 86.9,175.26666C86.30099,175.86633 86.04639,176.62262 85.416,177.38133C84.81369,178.10625 84.56731,178.5565 84.48933,179.492C84.4046,180.50847 83.98982,181.15602 83.3,181.86667C82.70899,182.47552 81.84914,183.0856 81.58533,183.86667C81.29604,184.72319 81.18511,185.69228 80.63866,186.06667C79.69634,186.71228 78.95016,187.11475 78.584,187.86667C78.16795,188.72102 77.84283,189.47417 76.9,189.65601C76.01622,189.82646 75.08933,189.66667 74.17834,189.66667C73.45834,189.66667 72.33334,189.66667 71.55183,189.66667C70.76133,189.66667 69.83334,189.66667 68.86617,189.66667C67.97916,189.66667 67.1,189.66667 66.191,189.66667C65.52934,189.66667 64.49017,189.66667 63.71467,189.66667C62.66667,189.66667 61.74667,189.66667 60.98667,189.66667C60.02083,189.66667 59.1,189.66667 58.2,189.66667C57.3,189.66667 56.4,189.66667 55.5,189.66667C54.7,189.66667 53.8,189.66667 52.97917,189.66667C52.016,189.66667 51.15267,189.66667 50.25717,189.66667C49.3,189.66667 48.4,189.66667 47.5,189.66667C46.792,189.66667 45.7355,189.66667 45.1285,189.66667C44.068,189.66667 43.296,189.66989 42.10067,189.6665C41.31799,189.66428 40.5696,189.75406 39.64133,189.58133C38.72076,189.41003 39.16667,188.5 39.64533,188.18134L40.276,187.83067L41.05067,187.45599L41.96133,187.06534" id="svg_3" stroke-width="3" stroke="#000" fill="none"/>
  <path t="33676,34026,34194,34225,34256,34289,34491,34545,34580,34629,34650,34979" d="M144.5,79.66666C144.5,80.468 144.54486,81.52021 145.30133,81.66534C146.1839,81.83466 147.2731,82.10721 148.07466,81.63067C148.6861,81.26716 147.69867,80.668 146.8,80.66666L145.89999,80.66666L144.972,80.66666" id="svg_4" stroke-width="3" stroke="#000" fill="none"/>
  <path t="36769,37066,37101,37136,37171,37385" d="M167.5,77.66666C168.14734,78.37117 168.48933,79.26667 168.52083,80.14584L169.07466,80.692L169.49867,81.38267" id="svg_5" stroke-width="3" stroke="#000" fill="none"/>
  <path t="42119,42215,42248,42264,42264,42264,42280,42280,42280,42297,42297,42297,42316,42316,42361,42382,42382,42410,42411,42480,42502,42515,42515,42532,42564,42564,42602,42617,42649,42667,42683,42700,42746,42766,42786,42787,42787,42801,42895" d="M113.5,111.66666C113.536,110.67733 114.32346,110.70522 115.27067,110.95067C116.04575,111.15151 116.89668,111.42019 117.79984,111.54517C118.685,111.66766 119.54282,111.66441 120.5785,111.66666C121.264,111.66815 122.09866,111.66666 123.0955,111.66666C124.01466,111.66666 125.00018,111.64951 125.82133,111.66683C126.67523,111.68484 127.564,112.04395 128.29866,112.38267C129.15564,112.77778 130.04022,112.62473 130.98399,112.95067C131.69229,113.19528 132.66615,113.4443 133.5,113.83334C134.15753,114.14012 134.99982,114.65625 135.89999,114.66666C136.79994,114.67708 137.7,114.66666 138.60001,114.66666C139.5,114.66666 140.09291,115.03307 140.72166,115.54533C141.48756,116.16933 142.32533,116.092 143.01601,116.38267L144.05333,116.692L144.60983,117.314" id="svg_7" stroke-width="3" stroke="#000" fill="none"/>
  <path t="44802,44921,44956,44972,44973,44973,44973,44990,44990,44991,45005,45006,45022,45022,45038,45038,45055,45055,45071,45088,45107,45108,45123,45140,45156,45173,45173,45189,45189,45205,45205,45238,45238,45271,45272,45272,45290,45346,45374,45374,45391,45406,45455,45474,45490,45515,45541,45541,45560,45560,45586,45826,45858,45874,46192,46192,46226,46227,46244,46244,46321" d="M102.5,140.66667C104.064,141.27733 104.40186,142.14938 105,142.83333C105.49326,143.39735 106.29374,143.87962 106.73333,144.35333C107.60062,145.28792 107.82076,145.88477 108.191,146.65683C108.69159,147.70073 109.22729,148.40337 109.984,148.86534C110.65087,149.27248 111.62991,149.52843 112.384,149.75067C113.348,150.03476 114.0103,150.47632 114.864,151.056C115.59518,151.55249 116.46667,151.88725 117.1,152.24133C117.96126,152.72284 118.9,152.66602 119.8,152.66667C120.70133,152.66734 121.40999,152.69191 122.32533,153.10266C123.03819,153.42255 123.84417,154.14455 124.46933,154.38133C125.4655,154.75864 126.28529,154.66133 127.33334,154.66667C128.03831,154.67026 129.02623,154.51109 129.95833,154.66667C130.82082,154.81064 131.4874,155.58163 132.3,155.66533C133.19527,155.75754 134.10001,155.66667 135,155.66667C135.89999,155.66667 136.8,155.66667 137.7,155.66667C138.60017,155.66667 139.38533,155.66667 140.32533,155.66667C141.01601,155.66667 142.08934,155.66667 143,155.66667C143.89999,155.66667 144.80457,155.6559 145.66667,155.66667C146.5002,155.67709 147.4785,155.88817 148.08934,156.27733L148.8,156.96666L149.3,157.46666L149.97917,158.14583" id="svg_8" stroke-width="3" stroke="#000" fill="none"/>
  <path t="49761,49817,49818,49850,49850,49866,49866,49866,49883,49883,49883,49883,49900,49900,49900,49900,49901,49930,49931,49931,49931,49956,49956,49969,49969,49985,49985,50032,50032,50049,50067,50099,50118,50118" d="M113.5,194.66667C113.16666,195.66667 112.67651,196.15053 111.66666,196.5C110.89654,196.76651 110.0064,196.94122 109.21733,197.31334C108.72438,197.54581 107.53217,198.15654 106.828,198.492C106.08161,198.8476 105.70216,199.04228 104.5,199.5C103.70824,199.80147 102.90826,200.03403 102.136,200.29201C101.38292,200.54358 100.30872,200.96371 99.34666,201.492C98.7381,201.82619 98.17973,202.17125 97.188,202.78267C96.37688,203.28275 95.65862,203.96922 95.54166,204.6875C95.38415,205.65482 95.5,206.45599 95.5,207.5C95.5,208.36217 95.5,209.26666 95.5,210.14583L95.216,210.952L94.66666,211.66667L94.416,212.46666" id="svg_9" stroke-width="3" stroke="#000" fill="none"/>
  <path t="52651,52789,52811,52811,52823,52823,52823,52925,52925,53041,53058,53058,53058,53073,53073,53073,53073,53073,53090,53090,53090,53090,53090,53107,53107,53107,53203,53203" d="M110.5,57.66667C109.588,57.95067 110.07178,58.58404 110.75733,58.692C111.66638,58.83516 112.44725,59.02262 113.23867,59.24133C114.35556,59.54998 114.92947,59.90848 115.66666,60.5C116.3667,61.0617 117.07547,61.2401 117.64133,61.63867C118.47473,62.22567 119.22198,62.68374 120.08334,63.16667C120.53921,63.42226 121.49218,63.9301 122.5,64.33334C123.48412,64.72709 123.98333,64.86367 124.9375,65.125C125.82567,65.36826 127,65.66666 127.64267,65.86533L128.41667,66.14584L129.33333,66.5L130.21333,66.66534" id="svg_10" stroke-width="3" stroke="#000" fill="none"/>
  <path t="53686,53742,53742,53759,53759,53759,53759,53777,53777,53777,53777,53777,53777,53778,53778,53792,53792,53792,53792,53792,53792,53792,53792,53792,53809,53809,53809,53809,53810,53810,53810,53810,53825,53825,53826,53826,53826,53826,53843,53843,53843,53858,53858,53875,53875,53875,53893,53893,53893,53909,53909,53909,53909,53925,53925,53925,53925,53975,53975,53993,53993,53994,54009,54009,54026,54027,54027,54043,54043,54043,54060,54060,54060,54060,54075,54075,54092,54092,54092,54109,54109,54109,54126,54126,54143,54143,54143,54159,54159,54159,54159,54175,54176,54176,54208,54208,54208,54208,54209,54226,54226,54243,54259,54259,54274,54274,54292,54293,54293,54293,54308,54308,54308,54308,54309,54309,54325,54325,54325,54326,54326,54342,54342,54342,54358,54358,54358,54375,54375,54375,54376,54392,54392,54392,54393,54393,54393,54408,54408,54408,54409,54409,54409,54409,54425,54426,54426,54426,54426,54426,54426,54426,54442,54442,54443,54443,54443,54443,54443,54458,54459,54459,54459,54459,54475,54476,54476,54476,54476,54492,54493,54509,54509,54525,54525,54525,54526,54542,54542,54543,54558,54559,54559,54559,54559,54575,54575,54575,54576,54576,54576,54576,54592,54592,54593,54593,54593,54593,54593,54593,54593,54608,54608,54609,54609,54609,54609,54625,54625,54626,54626,54642,54642,54659,54676,54676,54692,54692,54692,54709,54709,54710,54726,54726,54726,54727,54727,54727,54743,54743,54743,54743,54743,54743,54744,54759,54759,54759,54759,54759,54760,54760,54760,54776,54776,54777,54777,54777,54777,54777,54777,54794,54794,54794,54794,54795,54795,54795,54795,54810,54810,54810,54810,54810,54811,54811,54826,54826,54827,54827,54827,54827,54843,54843,54844,54844,54860,54860,54861,54877,54877,54877,54893,54893,54894,54910,54911,54911,54911,54951,54951,54959,54978,54978,54978,54978,54994,54994,54994,54994,54994,55011,55011,55011,55011,55012,55012,55012,55026,55027,55027,55027,55027,55027,55028,55043,55044,55044,55044,55044,55044,55063,55064,55064,55079,55079,55094,55095,55111,55111,55111,55127,55128,55128,55128,55128,55144,55144,55144,55144,55144,55145,55145,55145,55160,55161,55161,55161,55161,55161,55177,55178,55178,55178,55178,55193,55194,55194,55194,55194,55210,55211,55211,55211,55227,55228,55228,55228,55244,55244,55244,55245,55245,55262,55262,55262,55263,55263,55328,55329,55330,55361,55362,55378,55379,55379,55379,55379,55379,55394,55395,55395,55395,55395,55411,55412,55412,55428,55429,55429,55429,55444,55445,55461,55462,55478,55479,55479,55494,55495,55495,55495,55753,55769,55769" d="M131.5,66.66666C133.35733,66.66666 134.01883,66.67014 135.14349,66.6665C135.82785,66.66429 136.60483,66.65919 137.4805,66.6095C139.0015,66.52318 139.56581,66.44923 140.16267,66.38C141.46243,66.22922 142.16695,66.12689 142.912,66.02C143.69963,65.907 144.53116,65.78312 146.33333,65.5C147.30609,65.34718 148.31335,65.1841 149.34084,65.0185C150.37335,64.8521 151.39569,64.68668 152.39333,64.528C153.35071,64.37572 154.25212,64.22774 155.83333,64C156.48535,63.90609 157.05304,63.83355 157.55083,63.7765C157.99309,63.72582 158.3958,63.6871 158.77333,63.652C159.51326,63.58321 160.80685,63.44676 161.32001,63.38267C162.42705,63.2444 162.99977,63.16486 164.13667,63.01933C164.67989,62.9498 166.09154,62.77621 166.81416,62.72383C167.64578,62.66356 168.7,62.66667 169.5,62.66667C170.5,62.66667 171.31067,62.66667 172.18533,62.66667C173.18666,62.66667 174.04167,62.66667 174.66167,62.66667C175.66667,62.66667 176.75296,62.67215 177.5,62.64583C178.24774,62.61949 179.3407,62.53543 180.33833,62.3095C180.96373,62.16787 181.8177,61.87616 182.81467,61.468C183.48218,61.19472 184.49812,60.82244 185.28934,60.692C186.01309,60.57268 186.88397,60.21819 187.46933,59.78C188.26881,59.18152 189.02296,58.65061 189.60899,58.3765C190.76773,57.83451 191.69864,57.7187 192.3,57.688C193.49863,57.6268 194.39549,57.66667 194.97917,57.66667C195.81467,57.66667 197.04283,57.66667 197.68933,57.66667C198.70033,57.66667 199.54167,57.66667 200.27066,57.66667C201.46666,57.66667 202.14,57.66667 203.1375,57.66667C204,57.66667 204.97923,57.65696 205.83333,57.66667C206.77219,57.67733 207.34879,57.63636 208.5,58C209.42465,58.29208 209.959,58.70814 210.81467,59.09867C211.79785,59.5474 212.54726,59.64158 213.35466,59.83467C214.37201,60.07796 215.15829,60.37116 216,60.66667C216.42415,60.81558 217.22852,61.17478 218.64133,61.496C219.38773,61.66571 220.332,61.66667 221.21434,61.66667C221.909,61.66667 222.90134,61.66667 223.73599,61.66667C224.66667,61.66667 225.47067,61.66667 226.41867,61.66667C227.15733,61.66667 228.46434,61.66667 228.95467,61.66667C229.99733,61.66667 230.54167,61.66667 231.65633,61.66667C232.21867,61.66667 233.87801,61.66667 234.41066,61.66667C235.43201,61.66667 235.91667,61.66667 236.82401,61.66667C238,61.66667 238.933,61.66667 239.70399,61.66667C240.66667,61.66667 241.45888,61.6931 242.31067,61.63067C243.50395,61.54321 244.10223,61.37463 245.0625,61.16667C245.77023,61.0134 246.99887,60.81884 247.95599,60.752C248.47101,60.71603 249.56247,60.68544 250.132,60.67733C250.71347,60.66906 252.5,60.66667 253.10017,60.66667C253.70134,60.66667 254.91066,60.66667 255.52083,60.66667C256.13599,60.66667 256.75717,60.66667 258.66666,60.66667C259.32132,60.66667 259.98401,60.66667 260.65268,60.66667C262,60.66667 262.67465,60.66667 263.34732,60.66667C264.01599,60.66667 265.33334,60.66667 266.61334,60.66667C267.23834,60.66667 267.85333,60.66667 269.05334,60.66667C269.63834,60.66667 270.21335,60.66667 271.87833,60.66667C272.41333,60.66667 273.45334,60.66667 273.95834,60.66667C274.93832,60.66667 276.33337,60.6624 277.21201,60.668C278.04269,60.67329 278.82047,60.66906 279.52802,60.752C280.73605,60.8936 281.41147,61.24742 282.33334,61.5C283.18008,61.732 284,61.66667 284.86249,61.66667C285.52084,61.66667 286.53333,61.66667 287.73334,61.66667C288.52084,61.66667 289.35333,61.66667 290.36465,61.66667C291.17599,61.66667 292.08334,61.66667 292.56799,61.66667C293.58932,61.66667 294.66666,61.66428 295.78934,61.668C296.37067,61.66993 296.96817,61.66987 298.21866,61.70267C298.87613,61.71991 299.55801,61.74109 301,61.83333C301.76422,61.88222 302.55078,61.94909 303.35349,62.01933C304.1655,62.0904 304.97913,62.16712 305.78799,62.24133C306.58481,62.31444 307.36191,62.39247 308.83334,62.5C309.51337,62.5497 310.76221,62.61318 311.33466,62.63067C312.38516,62.66276 312.86768,62.66442 314.16666,62.66667C315.28116,62.6686 315.9375,62.66667 316.81201,62.66667C317.81332,62.66667 318.65332,62.66667 319.61465,62.66667C320.5,62.66667 321.31433,62.66667 322.27066,62.66667C323.04166,62.66667 323.90268,62.66667 324.80032,62.66667C325.72134,62.66667 326.37201,62.66667 327.83334,62.66667C328.24316,62.66667 329.11884,62.66667 330.0625,62.66667C331.06616,62.66667 331.58801,62.66667 332.66666,62.66667C333.78799,62.66667 334.36618,62.66667 335.5625,62.66667C336.18268,62.66667 336.81885,62.66667 337.47198,62.66667C338.83334,62.66667 340.26935,62.66667 341.00983,62.66667C341.76132,62.66667 342.52084,62.66667 343.28534,62.66667C344.05182,62.66667 344.81732,62.66667 346.33334,62.66667C347.07849,62.66667 347.81467,62.66667 348.54285,62.66667C349.26401,62.66667 349.97916,62.66667 351.39551,62.66667C352.09866,62.66667 353.5,62.66667 354.20001,62.66667C354.89999,62.66667 355.60001,62.66667 356.29999,62.66667C357.70001,62.66667 358.39999,62.66667 359.10001,62.66667C360.5,62.66667 361.19949,62.66667 361.896,62.66667C362.58649,62.66667 363.9375,62.66667 364.59201,62.66667C365.22849,62.66667 367,62.66667 367.53549,62.66667C368.5285,62.66667 368.992,62.66667 369.86801,62.66667C370.69601,62.66667 371.89966,62.66667 372.69101,62.66667C373.45834,62.66667 374.52933,62.66667 375.73065,62.66667C376.47916,62.66667 377.18268,62.66667 378.18533,62.66667C379.02084,62.66667 379.90137,62.66157 380.80017,62.66683C381.71069,62.67216 382.66052,62.69628 383.66666,62.83333C384.38428,62.93109 385.10388,63.09259 386.133,63.314C386.99988,63.5005 387.93732,63.65625 388.80899,63.66667C389.83328,63.67891 390.52405,63.67793 391.39334,63.63067C392.07413,63.59366 393.24481,63.45493 394.11884,63.305C394.58362,63.22527 395.56046,63.03297 396.58801,62.78C397.6701,62.51361 398.22488,62.35659 399.35266,62.005C399.92719,61.82589 400.50552,61.6398 401.64734,61.205C402.21887,60.98737 403.34073,60.51513 404.41467,59.98133C404.94659,59.71694 405.46835,59.43839 406.48932,58.856C406.99771,58.56599 407.49973,58.26712 408.99951,57.36683C409.49637,57.06859 410.4696,56.47992 410.9375,56.1875C411.83157,55.62875 412.26135,55.37626 413.33551,54.5885C413.93857,54.14624 414.60297,53.43513 415.5,53C416.24811,52.63711 417.34305,52.75947 418.12534,52.63067C419.01263,52.48457 419.8139,52.04196 420.35733,51.86533C421.3569,51.54045 422.18433,51.35925 423.125,51.14583C423.63965,51.02907 424.7608,50.78478 426,50.5C426.66425,50.34735 427.35056,50.18348 428.0535,50.0185C428.7652,49.85147 429.47711,49.67811 430.88483,49.3765C431.56171,49.23148 432.83206,48.99129 433.41415,48.9095C434.47372,48.76062 435.43747,48.68723 435.89334,48.652C436.77997,48.58348 438.12216,48.45113 439.05267,48.314C439.52579,48.24428 440.47318,48.08173 441.41599,47.95067C442.332,47.82333 443.21408,47.74039 444.064,47.70267C444.88892,47.66606 445.69867,47.66734 446.89984,47.66667C447.6955,47.66623 448.47916,47.66667 449.24283,47.66667C450.67883,47.66667 451.35184,47.66667 452.02084,47.66667C453.06934,47.66667 454.24283,47.66667 454.66934,47.66667C455.56134,47.66667 456.48532,47.66667 457.41733,47.66667C458.33334,47.66667 459.21335,47.66667 460.05334,47.66667C460.85333,47.66667 461.61334,47.66667 463.01199,47.66667C463.64267,47.66667 464.48117,47.66667 465.71268,47.66667C466.29468,47.66667 467.5,47.66876 468.40799,47.66533C468.9295,47.66336 470.06259,47.64873 470.65601,47.63067C471.25558,47.61242 473.00092,47.50825 473.53516,47.44534C474.52142,47.3292 475.39566,47.16564 476.17218,47.01933C477.16641,46.83201 477.99869,46.76105 478.71466,46.60534C479.68213,46.39492 480.46085,45.97726 481.23868,45.48133C481.73914,45.16226 482.62039,44.30567 483.38266,43.95333C484.28931,43.53427 484.97183,43.66225 486.18533,43.38133C486.74152,43.25258 487.60495,42.96351 488.79999,42.56667C489.40021,42.36734 490.29999,42.06667 490.89999,41.86667L492.09732,41.46667L492.67868,41.26667L493.48566,40.96667" id="svg_11" stroke-width="3" stroke="#000" fill="none"/>
  <path t="57544,57634,57634,57635,57668,57668,57668,57668,57668,57668,57668,57668,57685,57686,57686,57686,57686,57686,57686,57686,57686,57701,57701,57701,57701,57701,57701,57701,57701,57701,57718,57718,57718,57718,57718,57718,57718,57718,57718,57735,57735,57735,57735,57735,57735,57735,57752,57768,57785,57785,57802,57802,57802,57802,57819,57819,57819,57819,57819,57819,57835,57835,57835,57835,57852,57852,57869,57869,57885,57885,57885,57901,57901,57901,57917,57917,57917,57935,57935,57935,57935,57952,57952,57952,57952,57968,57968,57984,57984,58000,58000,58017,58034,58035,58035,58035,58051,58051,58051,58067,58067,58067,58068,58085,58085,58085,58085,58102,58102,58119,58119,58168,58184,58184,58201,58201,58265,58265,58265,58302,58352,58353,58353,58387,58402,58402,58418,58418,58434,58452,58452,58469,58495,58495,58518,58519,58535,58536,58536,58536,58536,58638,58638,58638,58638,58638,58657,58657,58669,58670,58670,58682,58683,58684,58684,58684,58684" d="M104.5,59.66667C101.882,61.32833 101.42895,61.72478 100.87133,62.12833C99.85483,62.86398 98.94884,63.3613 98.43083,63.64183C97.86234,63.94971 97.23048,64.27348 96.53333,64.62133C95.76894,65.00273 94.92851,65.41319 93,66.33334C91.90871,66.85402 90.74255,67.40396 89.517,67.97283C88.25192,68.56005 86.96045,69.15058 85.656,69.72933C84.36175,70.30355 83.09663,70.87344 80.66666,71.83334C79.55602,72.27207 78.50378,72.64716 77.51366,72.98083C76.58624,73.29339 75.70922,73.56543 74.88267,73.81333C74.10382,74.04693 73.3622,74.24961 72,74.66666C71.36366,74.86149 70.76049,75.06155 70.1895,75.25767C69.64986,75.44302 69.14567,75.62453 68.676,75.79467C68.242,75.9519 67.84825,76.10452 67.16666,76.33334C66.88715,76.42717 66.64225,76.49958 66.42867,76.55233C66.24474,76.59776 66.08427,76.6331 65.94267,76.64533C65.20245,76.70924 64.24854,76.5062 63.5,76.83334C62.74329,77.16405 61.96006,77.99317 61.47667,78.32833C60.92051,78.71394 60.28053,79.13445 59.16667,79.83334C58.33486,80.35526 57.89477,80.61949 57,81.16666C56.55072,81.44141 55.66588,81.97926 54.44316,82.74483C54.07135,82.97764 53.07818,83.63293 52.46617,83.94783C51.4455,84.473 50.70423,84.45672 49.66667,84.83334C48.95707,85.09091 48.19221,85.79275 47.45833,86.16666C46.8245,86.4896 45.82152,86.88193 45,87.14584C44.4561,87.32056 43.17987,87.56652 42.47917,87.6875C41.7272,87.81732 40.84592,88.08389 39.83867,88.53867C39.10601,88.86946 38.73712,89.05589 37.66667,89.66666C36.65539,90.24368 36.05426,90.63381 35.51883,91.0095C34.4524,91.75776 33.90835,92.28947 33.17867,92.76667C32.51937,93.19784 31.56096,93.82362 30.91067,94.23067C30.12016,94.72549 29.16487,94.99673 28.48567,95.372C27.95693,95.66413 27.11901,96.1662 26.2,96.42384C25.31596,96.67167 24.39516,96.68256 23.5,96.83334C22.5894,96.9867 21.98563,97.19789 21.01467,97.38267C19.98479,97.57866 19.25561,97.60474 18.19733,97.692C17.55418,97.74504 16.35421,98.00225 15.75633,98.37117C14.99883,98.83858 14.15541,99.31769 13.25717,99.614C12.40237,99.89598 11.7652,100.40575 11.01467,100.86667C10.30883,101.30014 9.2951,101.75692 8.71067,102.06667C7.97879,102.45456 7.15505,103.10806 6.33333,103.66666C5.69604,104.09991 4.93979,104.40862 4.136,105.06667C3.45945,105.62054 2.9,106.26667 2.3,106.86667C1.7,107.46667 1,108.16666 0.4,108.76667C-0.2,109.36667 -0.9,110.06667 -1.5,110.66666C-2.1,111.26667 -2.7878,112.00484 -3.3715,112.42384C-4.22985,113.03999 -4.87544,113.32938 -5.58333,113.70834C-6.37005,114.12949 -6.79368,114.34551 -8.12083,115.08767C-8.58152,115.34529 -9.49182,115.87333 -10.36667,116.36933C-10.77513,116.60091 -12.22852,118.00507 -12.85417,117.54166C-13.4406,117.1073 -12.42463,116.09988 -11.97217,115.61034C-11.21252,114.78845 -10.52267,114.34933 -9.77467,113.88133L-9.35417,113.64584L-8.40517,113.15683L-7.87067,112.89733" id="svg_12" stroke-width="3" stroke="#000" fill="none"/>
  <path t="59692,59773,59773,59790,59790,59790,59790,59807,59807,59807,59807,59807,59822,59822,59822,59822,59822,59839,59840,59840,59840,59840,59840,59856,59856,59857,59857,59857,59857,59874,59874,59874,59889,59889,59890,59890,59907,59922,59939,59939,59956,59956,59973,60006,60006,60024" d="M105.5,20.66667C105.5,24.214 105.5,24.892 105.5,26.0885C105.5,26.924 105.5,27.54933 105.5,28.23867C105.5,29.40967 105.5,30.281 105.5,31.20833C105.5,31.688 105.5,32.66933 105.5,34.16667C105.5,34.66667 105.5,35.66667 105.5,36.16667C105.5,37.16667 105.502,38.66667 105.49966,39.16667C105.495,40.16669 105.50252,40.66816 105.428,41.66667C105.35322,42.66874 105.18668,43.67159 104.932,44.664C104.80463,45.16033 104.49652,46.1239 104.20533,47.05233C104.06634,47.49548 103.71514,48.71934 103.56133,49.79467C103.46857,50.44316 103.34878,51.66991 103.216,52.264C103.02239,53.13031 102.68465,53.87821 102.536,54.99467C102.42064,55.86115 102.33676,56.83469 102.07467,57.492C101.67191,58.50211 101.51067,59.256 101.5,60.1875L101.49983,60.98783L101.464,61.80533L101,62.64583" id="svg_13" stroke-width="3" stroke="#000" fill="none"/>
  <path t="60907,61076,61076,61092,61093,61093,61093,61093,61109,61109,61109,61109,61109,61109,61109,61109,61128,61128,61128,61128,61129,61129,61129,61129,61129,61142,61142,61142,61142,61142,61142,61142,61158,61158,61158,61175,61175,61175,61192,61192,61209,61209,61209,61226,61226,61242,61259,61260,61276,61276,61293,61293,61293,61293,61310,61310,61310,61310,61310,61310,61310,61326,61326,61326,61326,61326,61326,61326,61344,61344,61392,61392,61409,61409,61409,61409,61425,61425,61425,61425,61426,61442,61442,61442,61442,61442,61459,61459,61459,61459,61459,61475,61475,61476,61492,61492,61509,61509,61526,61526,61542,61542,61559,61559,61575,61575,61575,61592,61593,61593,61593,61593,61610,61610,61610,61786,61786,61786" d="M106.5,21.66667C104.64267,21.23067 103.99067,20.93404 102.85633,20.5665C102.17297,20.34508 101.37537,20.14443 100.93467,20.03067C99.9568,19.77822 98.83328,19.50022 98.21416,19.34517C96.87572,19.00997 96.16653,18.83122 95.4375,18.64583C94.69319,18.45656 93.93878,18.26365 93.18,18.06533C91.66589,17.66961 90.92148,17.46691 90.18533,17.268C89.45715,17.07124 88.73646,16.8756 88.02084,16.6875C87.31112,16.50095 86.60638,16.31597 85.90134,16.152C83.80614,15.66473 83.10705,15.54993 82.4225,15.42383C81.7537,15.30064 81.10343,15.19159 79.88583,14.97117C79.32632,14.86988 77.89944,14.59377 77.18584,14.36667C76.3426,14.09831 75.49289,13.6804 74.71066,13.26667C73.97846,12.8794 73.1348,12.21086 72.44534,11.86667C71.48436,11.38693 70.82721,11.26494 70.176,11.10267C69.00535,10.81095 68.06269,10.67708 67.1955,10.66667C66.3334,10.65631 65.49969,10.69098 64.521,10.6665C63.802,10.64852 62.73479,10.44687 62.1195,10.3095C61.39538,10.14784 60.57409,9.95286 59.16667,9.66667C58.65751,9.56313 57.58108,9.36263 57.01733,9.256C56.43741,9.14631 55.23297,8.91363 54.612,8.78133C53.33149,8.50851 52.67799,8.35148 51.36983,8.0185C50.72725,7.85493 50.10414,7.68761 49.50533,7.528C48.41061,7.2362 47.13832,6.85702 46.316,6.73867C45.40604,6.6077 44.62489,6.62802 43.7355,6.44517C42.78775,6.25032 42.06776,6.05698 41.296,5.86533C40.09945,5.56819 39.29589,5.36507 38.47917,5.16667C38.06419,5.06586 37.21606,4.86042 35.87867,4.56667C34.94828,4.36231 34.47449,4.26748 33.52533,4.06667C32.58383,3.86747 31.66563,3.67118 30.78667,3.46667C29.94565,3.27098 29.14492,3.07318 28.38667,2.86667C27.3193,2.57597 26.35953,2.26993 25.78267,2.10267C24.64697,1.77337 23.86347,1.70557 23.016,1.38133C22.30295,1.10852 21.44026,0.37381 20.74733,0.02383C19.89925,-0.40451 18.96821,-0.37956 18.11467,-0.75867C17.51849,-1.02346 16.47504,-1.25713 15.64267,-1.43067C15.00635,-1.56333 13.96819,-1.97884 13.24733,-2.39583C12.48847,-2.83481 11.75822,-3.34149 11.384,-3.56667C10.00763,-4.39487 9.35733,-4.65067 8.51883,-4.96717L7.64317,-5.21167L6.788,-5.24667L6.75733,-4.44667" id="svg_14" stroke-width="3" stroke="#000" fill="none"/>
  <path t="62402,62446,62496,62531,62547,62612,62634,62648,62665,62665,62679,62679" d="M102.5,57.66667C104.3,57.66667 105.2,57.66667 106.1,57.66667C107,57.66667 107.9,57.66667 108.8,57.66667C109.7,57.66667 110.5,57.66667 111.38533,57.66667L112.32533,57.66667L113.016,57.66667" id="svg_15" stroke-width="3" stroke="#000" fill="none"/>
 </g>
</svg>