<svg width="327.25" height="420" xmlns="http://www.w3.org/2000/svg" xmlns:svg="http://www.w3.org/2000/svg" xmlns:xlink="http://www.w3.org/1999/xlink">
 <!-- Created with SVG-edit - http://svg-edit.googlecode.com/ -->
 <g display="inline" class="layer">
  <title>Layer 1</title>
  <path t="0,123,123,133,138,145,162,162,177,177,186,186,207,207,210,218,230,234,242,257,257,273,273,276,292,297,307,307,321,337,342,363,364,372,385,404,424,427,427,436,465,465,485,492,512,514,515,529,537,556,572,594,605,640,665,665,680,680,696,714,714,729,750,750,755,763,780,793,794,817,826,841,851,860,912,929,946,970,980,995,1053,1097,1116,1154,1162,1178,1209,1241,1278,1372,1405,1433,1480,1561,1853,1873,1897,1921,1945,1953,1969,1993,2009,2048,2129,2145,2200,2200,2224,2272,2304,2337,2360,2393,2425,2444,2459,2465,2495,2587,2595,2801" d="M137.325,210.7C135.49966,211.12534 134.79041,211.35919 133.84584,211.7C133.00546,212.0032 132.21974,212.5444 131.325,212.7C130.51909,212.84015 129.96529,213.60141 129.43967,214.21733C128.89069,214.86063 128.12595,215.25328 127.21033,215.89867C126.61269,216.31993 125.55613,216.63242 125.3295,217.4045C125.07728,218.26376 125.49227,219.30927 124.96783,219.9955C124.39432,220.74594 123.43601,220.80251 122.93567,221.56134C122.5326,222.17265 122.39565,223.21327 121.97234,224C121.51871,224.84305 121.325,225.7 121.325,226.5C121.325,227.39999 121.08296,228.14835 120.609,228.784C120.03574,229.55283 120.26878,230.40053 119.825,231.2C119.38312,231.99603 119.325,232.92149 119.325,233.8C119.325,234.7 119.325,235.5 119.325,236.41467C119.325,237.40984 119.325,238.21733 119.325,239.064C119.325,240 119.325,240.89999 119.325,241.80017C119.325,242.58533 119.325,243.51466 119.325,244.45717C119.325,245.31067 119.325,246.2 119.325,247.10001C119.325,247.9955 119.325,248.92166 119.325,249.86667C119.325,250.7 119.325,251.53334 119.325,252.39549C119.325,253.336 119.32047,254.18402 119.325,255.04733C119.33033,256.06403 119.71305,256.84579 120.041,257.58533C120.43206,258.46719 120.71403,259.16165 121.15833,259.86667C121.61144,260.58563 120.88702,261.67896 121.49167,262.53333C121.96008,263.19519 122.70747,263.48834 123.52367,263.70132C124.31994,263.90912 124.19327,265.08795 124.75034,265.664C125.23521,266.16541 125.70098,266.72845 126.35033,267.27466C126.9859,267.80927 127.75138,268.36279 128.52499,268.61465C129.38448,268.8945 130.08455,269.01364 130.32634,269.89868C130.54428,270.69644 131.13156,271.37122 131.84584,271.67917C132.72607,272.05865 133.68321,271.69736 134.325,272.20001C134.94106,272.68253 135.825,272.69937 136.71434,272.70001C137.60899,272.70068 138.30699,273.13544 138.325,274C138.34373,274.89981 138.325,275.79984 138.325,276.72534C138.325,277.50134 138.325,278.39999 138.325,279.29999C138.325,280.26401 138.325,281.13599 138.325,282.00449C138.325,283.02118 138.38091,283.68066 138.325,284.71466C138.28227,285.50479 137.57814,286.23718 137.36099,287.10001C137.14226,287.96915 137.46625,288.93295 137.325,289.784C137.18106,290.65128 136.5144,291.12576 136.041,291.89868C135.56917,292.66901 134.89967,293.13599 134.37767,293.99551L133.97234,294.64282" id="svg_1" stroke-width="3" stroke="#000" fill="none"/>
  <path t="3988,4121,4129,4139,4148,4153,4166,4177,4187,4209,4221,4227,4228,4265,4281,4281,4321,4337,4345,4361,4379,4379,4395,4405,4425,4465,4481,4505,4505,4515,4521,4541,4556,4561,4577,4577,4593,4625,4634,4644,4659,4681,4693,4708,4724,4730,4739,4769,4777,4786,4793,4802,4818,4853,4859,4873,4882,4882,4897,4906,4913,4945,4961,4961,4972,4978,4993,5018,5042,5058,5068,5068,5098,5114,5121,5130,5177,5203,5203,5209,5225,5249,5256,5293,5308,5345,5353,5362,5408,5448,5471,5471,5474,5474,5496,5513,5554,5578,5578,5608,5609,5618,5629,5647,5713,5744,5761,5761,5773,5795" d="M170.325,294.70001C169.325,293.70001 169.07053,293.09607 168.325,292.67917C167.60625,292.27725 167.28331,291.3678 166.75034,290.67465C166.26332,290.04129 166.48293,289.1196 166.31433,288.26401C166.13467,287.35229 165.3871,286.60764 165.32634,285.89999C165.23795,284.87045 165.325,283.99017 165.325,283.18268C165.325,282.22083 165.325,281.39999 165.325,280.5C165.325,279.60001 165.325,278.70001 165.325,277.89999C165.325,277 165.325,276.10001 165.325,275.20001C165.325,274.29999 165.325,273.39551 165.325,272.37866C165.325,271.70001 164.99219,270.56464 165.54633,269.82132C166.02675,269.17688 166.325,268.5 166.325,267.60001C166.325,266.70001 166.42451,265.90887 166.89967,265.13599C167.33823,264.42264 167.16565,263.40213 167.67767,262.75266C168.1622,262.13806 168.08212,261.26517 168.3295,260.40451C168.55022,259.63663 169.31458,259.17935 169.325,258.29999C169.3356,257.40457 169.17383,256.38312 169.67767,255.75267C170.16628,255.1413 170.34248,254.31607 170.825,253.7C171.32765,253.05821 171.27757,252.14641 171.67767,251.39999C172.12994,250.55624 172.15685,249.66356 172.41034,248.89999C172.66669,248.12784 173.05629,247.36375 173.3295,246.4045C173.53358,245.68791 174.49382,245.29608 174.88901,244.51466C175.27403,243.75334 175.80762,243.09248 176.23967,242.41467C176.7328,241.64102 176.9361,240.95938 177.289,240.25333C177.68039,239.47029 177.325,238.52533 177.325,237.58667C177.325,236.64734 177.44514,235.91898 177.89967,235.10001C178.33371,234.31795 178.71304,233.55421 179.041,232.81467C179.43205,231.93282 179.64539,231.0527 180.241,230.416C180.78352,229.83604 181.31458,229.17935 181.325,228.31067C181.33574,227.41473 181.16219,226.39935 181.67767,225.75267C182.16138,225.14584 182.25713,224.3203 182.49167,223.53334C182.74802,222.67319 182.79286,221.70776 183.32367,220.98666C183.7589,220.39542 184.40216,220.00845 184.825,219.17917C185.22716,218.39044 185.31966,217.56139 185.325,216.53334C185.32874,215.81335 185.325,214.88533 185.325,213.86934C185.325,213.05267 185.93886,212.35596 186.23967,211.5C186.50642,210.74097 186.41034,209.89999 186.93567,209.136L187.71434,208.72533" id="svg_2" stroke-width="3" stroke="#000" fill="none"/>
  <path t="25189,25289,25289,25306,25324,25330,25355,25373,25373,25394,25409,25420,25436,25466,25474,25493,25509,25530,25530,25547,25601,25609,25618,25651,25674,25714,25722,25746,25801,25809,25836,25857,25889,26139,26172,26196,26215,26226,26257,26307,26329,26363,26388,26393,26473,26474,26500,26519,26737,26809,26886,26921,26938,26964,26994,26994,27019,27051,27097,27129,27154,27177,27209,27226,27245,27282,27306,27417,27436,27466,27523,27594,27626,27709,27709,27731,27817,27850,27858,27874,28010,28069,28097,28137,28155,28165,28203,28225,28242,28474,28474,28497,28538,28562,28573,28595,28625,28666,28683,28690,28690,28745,28778,28804,28827,28851,28885,28898,28945,28986,29049,29113,29137,29341,29418,29763,29802,29858,29900,29942,29955,29956,29994,30005,30035,30082,30082,30121,30185,30186,30202,30235,30236,30297,30322,30333,30364,30386,30410,30426,30489,30683,30705,30738,30778,30826,30898" d="M179.325,156.7C179.325,157.7 179.33482,158.55505 179.93567,159.3C180.46248,159.95316 181.20363,160.5787 181.761,161.136C182.42497,161.79987 183.04057,162.30809 183.925,162.72533C184.72974,163.10497 184.81932,164.09714 185.36099,164.7C185.94322,165.34799 186.06778,165.92561 186.54633,166.57867C187.06026,167.28004 187.50172,168.03734 188.12633,168.41467C188.94501,168.90926 188.98624,169.38834 189.34584,170.17917C189.6974,170.95235 189.84113,171.5737 190.38217,172.34283C190.89751,173.07542 191.13525,173.43266 191.36099,174.3C191.58388,175.15639 192.8147,175.31841 193.26784,176.05267C193.7251,176.79364 193.32434,177.8 193.325,178.7C193.32567,179.61467 194.0295,179.7 194.925,179.7C195.825,179.7 196.85107,179.42207 197.67767,179.7045C198.44908,179.96806 198.93562,180.69466 199.825,180.7C200.71432,180.70532 201.45889,181.04797 202.12633,181.416C202.95047,181.87044 204.00357,181.35695 204.80417,181.72084C205.57739,182.0723 206.16148,182.84041 206.30417,183.7C206.45792,184.62622 206.70995,185.33093 207.15834,186.03334C207.5365,186.62572 207.325,187.81334 207.325,188.67467C207.325,189.50133 207.325,190.39999 207.325,191.3C207.325,192.17917 207.325,193.05716 207.325,194C207.325,194.89999 207.65338,195.98433 207.10367,196.57851C206.53983,197.18796 205.75613,197.37662 205.36099,198.136C204.96182,198.90311 205.325,199.89867 205.325,200.784C205.325,201.7 205.325,202.5 205.325,203.39999C205.325,204.26401 205.32278,205.22084 205.325,206.10001C205.32726,206.99551 206.39165,207.48351 206.27834,208.27467C206.16602,209.05901 205.327,209.49269 204.6205,209.6955C203.71664,209.95496 203.32567,210.50133 203.325,211.39999C203.32436,212.26401 202.70757,212.91216 202.03033,212.64284C201.21272,212.31769 201.32985,211.19998 201.325,210.3C201.31966,209.31062 200.5968,208.82646 200.32634,208.06934C200.29999,207.99554 200.325,207.064 200.325,206.21733C200.325,205.26933 200.325,204.34283 200.325,203.5C200.325,202.60001 200.325,201.7 200.325,200.75267C200.325,199.9955 200.325,199.10001 200.325,198.2C200.325,197.22084 199.78293,196.79628 199.325,196.17917C198.81665,195.49413 197.99626,195.28781 197.34584,194.67917C196.73698,194.10942 196.05118,193.24681 195.4465,193.92149C194.85469,194.58183 195.04112,195.44899 194.22517,195.92133C193.54222,196.31667 192.90314,196.79959 192.27234,197.34734C191.6727,197.86804 190.96231,198.43567 190.17566,198.72533C189.35419,199.02782 188.99167,199.7 188.13966,199.7C187.21033,199.7 186.325,199.7 185.52499,199.7C184.625,199.7 183.70517,199.86821 182.825,199.67917C181.98058,199.4978 181.78806,198.30423 181.03967,197.78534C180.36664,197.3187 179.52751,197.39668 179.325,196.53334C179.14217,195.75392 178.12633,195.69867 177.37767,195.34734L176.89967,194.72533L176.33566,194.08934" id="svg_5" stroke-width="3" stroke="#000" fill="none"/>
  <path t="31827,31947,31977,32011,32051,32079,32122,32194" d="M184.325,211.7C185.20351,210.47867 185.23473,209.61154 185.325,208.7C185.40874,207.85429 186.23967,207.41467 186.325,206.60001L186.325,205.7" id="svg_6" stroke-width="3" stroke="#000" fill="none"/>
  <path t="33429,33622,33622,33630,33631,33650,33659,33668,33690,33707,33707,33730,33819,33834,33835,33858,33871,33890,33917,33923,33934,33947,33963,33977,33978,33986,34003,34010,34020,34027,34035,34057,34069,34090,34090,34107,34130,34147,34148,34171,34187,34210,34242,34242,34252,34290,34306,34313,34330,34369,34394,34394,34457,34465,34529,34546,34562,34578,34650,34666,34674,34838,34870,34870,34914,34938,35034,35058,35068,35077,35128,35146,35147,35293,35311,35347,35367,35420,35458,35482,35490,35587,35604,35673,35722,35762,35810,35925,35955,35969,35994,36010,36026,36042,36067,36089,36106,36137,36178,36210,36251,36308,36308,36312,36312,36330,36426,36474,36538,36561,36618,36634,36673,36682,36738,36786,36882,36961,37002,37018,37050,37066,37130,37154,37162,37194,37267,37313,37322,37354,37371,37378,37395,37419,37451,37459,37513,37538,37553,37577,37602,37666,37674,37722,37723,37754,37802,37803,37827,37851,37882,37906,37930,37938,37956,37964,38010,38082,38090,38098,38117,38202,38250,38298,38307,38308,38330,38428,38446,38464,38484,38530,38579,38604,38636,38644,38684,38730,38762,38818,39094,39096,39113,39130,39135,39155,39177,39210,39221,39236,39258,39258,39267,39338,39386,39410,39419,39458,39498,39678" d="M182.325,161.7C182.325,161.76134 182.325,160.92934 182.325,159.843C182.325,159.009 182.33032,158.09999 182.325,157.2C182.31966,156.29996 181.88266,155.5882 181.49167,154.7C181.20216,154.04236 181.325,153.05716 181.325,152.15834C181.325,151.216 181.56335,150.49724 181.3205,149.46167C181.14015,148.69266 180.33542,148.17935 180.325,147.3C180.31433,146.40005 180.325,145.50133 180.325,144.616C180.325,143.81334 180.41901,142.85513 180.23967,142.18401C179.97389,141.18936 179.4548,140.39963 178.97234,139.75267C178.46458,139.07179 178.325,138.3 178.325,137.4045C178.325,136.4785 178.325,135.60001 178.325,134.7C178.325,133.89999 178.325,133 178.325,132.17917C178.325,131.216 178.325,130.35266 178.325,129.46167C178.325,128.53067 178.325,127.67917 178.325,126.7215C178.325,125.90134 178.325,124.98534 178.325,124.08933C178.325,123.2 178.32492,122.3 178.325,121.4045C178.32509,120.4785 178.55998,119.74229 178.97234,119C179.4303,118.1756 179.65248,117.41646 180.32516,116.8215C180.8833,116.32786 180.93196,115.76818 181.41034,114.98534C181.90117,114.18211 182.83075,113.90094 183.289,113.27467C183.83086,112.53413 184.08746,111.67371 184.37767,111C184.74028,110.1582 185.2964,109.40582 185.325,108.4785C185.35207,107.60042 185.00276,106.56178 185.49167,105.86667C185.99406,105.15238 186.59711,104.61155 186.97234,103.9955C187.47098,103.17682 187.37288,102.13567 186.71434,101.67467C185.99721,101.17263 185.241,100.70067 184.325,100.7C183.52367,100.69941 182.78224,100.47374 182.10367,99.82133C181.52472,99.26472 181.15433,98.70074 180.30417,98.7C179.34666,98.69917 178.71811,98.21639 178.03967,97.78533C177.26552,97.29346 176.41711,98.08508 175.89967,98.67467C175.33997,99.31242 174.99753,99.98354 174.32483,100.5785C173.76669,101.07214 173.35287,101.50177 173.325,102.4C173.2957,103.34411 172.77287,104.12089 172.10367,104.5785C171.31693,105.11649 170.41399,104.98924 170.241,105.672C169.97984,106.70277 170.05956,107.58266 169.44633,108.3355C168.93921,108.95811 168.32144,109.48072 167.52367,109.69867C166.63867,109.94044 165.87526,110.24529 165.41034,110.98534C164.92229,111.76218 164.96928,112.67139 164.12633,112.7C163.2415,112.73002 162.10283,112.27616 161.49167,112.86667C160.85719,113.47971 160.77742,114.44489 159.925,114.664C159.05244,114.88828 158.25023,115.1667 157.44633,115.5785C156.74397,115.93829 156.1707,116.61626 155.325,116.7C154.45061,116.78658 153.7816,116.92664 153.10367,117.57867C152.52399,118.13619 151.90849,118.68448 151.325,119.2C150.68713,119.76356 150.19046,120.25019 149.60899,120.7C149.06367,121.12183 148.89049,122.09443 148.409,122.89867C147.96379,123.64228 147.34373,124.12483 147.325,125.05717C147.30806,125.89983 147.0211,126.74921 146.67767,127.4C146.20859,128.28889 146.325,129.26933 146.325,130.05183C146.325,130.94284 146.04782,131.96477 146.38217,132.75267C146.72566,133.5621 147.00522,134.26306 147.33566,135.08934C147.65132,135.87862 148.32376,136.52002 149.20366,136.7C150.01274,136.86549 150.7258,136.90021 151.409,137.416C152.02434,137.88055 153.26648,137.34775 153.97234,137.75717C154.78017,138.22575 155.325,138.7 156.125,138.7C157.03967,138.7 157.93567,138.7 158.825,138.7C159.72501,138.7 160.6205,138.7 161.54649,138.7C162.425,138.7 163.5574,139.13428 164.15834,138.53334C164.75928,137.9324 164.48003,136.78369 165.37767,136.7C166.26848,136.61694 167.72522,137.4303 167.76083,136.69983C167.80336,135.82753 166.69035,135.89737 166.289,135.136C165.8898,134.37872 165.74371,133.61107 165.23967,132.98399C164.6702,132.2755 163.71382,132.33459 162.93567,131.71466C162.32137,131.22527 162.12897,130.35422 161.67767,129.65184C161.18994,128.89275 161.44121,127.86059 160.80417,127.22083C160.1655,126.57944 159.35033,126.27467 158.825,125.7L158.27234,125.05267" id="svg_7" stroke-width="3" stroke="#000" fill="none"/>
  <path t="41292,41574,41593,41901,41941,42022,42055" d="M163.325,116.7C164.325,116.7 165.23967,116.7 165.23967,115.984L164.52367,115.70133L163.625,115.7L162.68216,115.64283" id="svg_8" stroke-width="3" stroke="#000" fill="none"/>
  <path t="43136,43327,43346,43374,43392,43426,43442,43474,43538,43562,43594,43635,43674,43684,43722,43746,43778,43826,43858,43915,43931,43932,43962,44018,44058,44074,44146,44162,44172,44226,44283,44371" d="M171.325,109.7C171.325,111.5 171.41681,112.23434 171.89967,112.736C172.44748,113.30512 172.325,114.3 172.325,115.2C172.325,116.08933 172.325,117.05717 172.325,117.9C172.325,118.8 172.325,119.7 172.325,120.616C172.325,121.4045 172.325,122.3 172.325,123.2C172.325,124.08933 172.47212,125.19193 171.88901,125.67467C171.16434,126.2746 170.44772,126.69216 170.32634,127.5C170.18983,128.40857 169.87389,128.89607 169.32483,129.57851C168.85774,130.15906 168.32567,130.50133 168.325,131.39999C168.3243,132.34283 168.325,133.22084 168.325,134.10001L168.325,135" id="svg_9" stroke-width="3" stroke="#000" fill="none"/>
  <path t="47179,47310,47311,47319,47340,47348,47352,47353,47356,47363,47363,47372,47372,47382,47382,47389,47398,47398,47398,47403,47403,47413,47414,47419,47429,47438,47449,47453,47459,47476,47495,47496,47500,47507,47532,47535,47535,47539,47551,47563,47578,47578,47587,47587,47597,47603,47603,47619,47622,47637,47637,47643,47658,47667,47677,47689,47713,47713,47719,47719,47730,47731,47742,47742,47747,47771,47795,47802,47802,47807,47826,47826,47838,47844,47852,47861,47868,47868,47876,47890,47891,47899,47914,47938,47946,47962,47963,47974,47987,48010,48019,48020,48044,48051,48067,48067,48074,48090,48106,48106,48115,48123,48132,48146,48147,48156,48170,48178,48190,48206,48223,48230,48252,48274,48292,48307,48330,48362,48378,48389,48410,48429,48450,48484,48522,48534,48554,48562,48563,48726,49165,49214,49259,49308,49356,49388,49388,49459,49602,49642,49667,49690,49714,49723,49731,49811,49859,49867,49884,49894,49900,49930,49970,49986,50005,50042,50069,50099,50107,50147,50171,50180,50180,50195,50220,50237,50245,50282,50322,50338,50355,50355,50371,50394,50426,50427,50467,50467,50514,50531,50531,50578,50594,50619,50659,50699,50723,50755,50786,50787,50866,50882,50883,50938,51102" d="M150.325,140.7C149.325,141.7 149.34299,142.50018 149.325,143.39999C149.30699,144.30054 148.71921,145.01466 148.41034,145.90134C148.18364,146.55211 148.53094,147.62636 147.99167,148.53334C147.61292,149.17035 146.51372,149.64764 146.34633,150.336C146.10606,151.3241 146.325,152.04733 146.325,153.08533C146.325,154.03334 146.325,154.70534 146.325,155.69467C146.325,156.55716 146.325,157.44817 146.325,158.35266C146.325,159.216 146.325,160.17917 146.325,161.10001C146.325,162 146.325,162.89999 146.325,163.79984C146.325,164.64734 146.325,165.46167 146.325,166.35266C146.325,167.216 146.32271,168.17917 146.325,169.10001C146.32726,170.00452 146.46605,170.87766 146.825,171.67917C147.17862,172.4688 147.3443,173.31902 147.75034,174.11067C148.1424,174.87506 148.17488,175.74658 148.54633,176.6785C148.85512,177.45323 149.31458,178.22064 149.325,179.02133C149.33609,179.87459 149.325,180.81467 149.325,181.8C149.325,182.7 149.325,183.5 149.325,184.41467C149.325,185.31067 149.325,186.2 149.325,187.10001C149.325,188 149.325,188.90266 149.325,189.67067C149.325,190.70534 149.325,191.44934 149.325,192.36667C149.325,193.31467 149.325,194.18401 149.325,195.04733C149.325,195.93834 149.325,196.92149 149.325,197.8C149.325,198.7 149.325,199.5 149.325,200.41467C149.325,201.26933 149.325,202.05183 149.325,203.064C149.325,203.9955 149.325,204.86934 149.325,205.72084C149.325,206.6785 149.325,207.49867 149.325,208.41467C149.325,209.26933 149.325,210.05183 149.325,211.064C149.325,211.9955 149.325,212.92149 149.325,213.8C149.325,214.7 149.325,215.5 149.325,216.41467C149.325,217.31067 149.325,218.22084 149.325,219.02116C149.325,219.83867 149.325,220.92149 149.325,221.8C149.325,222.7 149.56296,223.53149 149.325,224.41467C149.10475,225.23212 148.40366,226.01634 148.34584,226.7C148.26338,227.67508 147.84296,228.30843 147.41034,228.98666C146.93488,229.73207 147.41884,230.70453 147.32483,231.67833C147.24112,232.54536 146.4222,232.74828 146.31433,233.55066C146.19034,234.47302 145.36772,234.98235 145.325,235.89867C145.28377,236.78304 145.325,237.67467 145.325,238.50133C145.325,239.39999 145.325,240.26401 145.325,241.22084C145.325,242.10001 145.48637,243.06479 145.10367,243.79984C144.66251,244.64716 144.33032,245.31068 144.325,246.2C144.31966,247.08939 143.59863,247.57954 143.33566,248.34666C143.0641,249.13882 143.32745,250.04733 143.325,251.064C143.32274,251.99551 142.88957,252.68199 142.0295,252.7C141.1037,252.71938 140.22501,252.7 139.325,252.7C138.52499,252.7 137.61028,252.71074 136.71434,252.7C135.84566,252.68958 135.3311,251.90738 134.6205,251.7045C133.71626,251.44633 133.3638,250.89784 133.325,249.98534C133.28833,249.12311 132.47426,248.73795 131.56784,248.7C130.75026,248.66577 130.73769,247.87173 130.26784,247.05716C129.87166,246.37032 129.75035,245.47636 129.15834,244.86667C128.57745,244.26843 128.52061,243.86427 128.26784,243C128.01115,242.12238 127.35359,241.40582 127.325,240.4785C127.29792,239.60042 127.325,238.7 127.325,237.89999C127.325,236.98534 127.325,236.08934 127.325,235.2C127.325,234.3 127.32491,233.4045 127.325,232.4785C127.32508,231.60001 127.5428,230.73175 127.89967,230.10001C128.37564,229.25739 128.25002,228.31685 128.54633,227.37866C128.76727,226.67908 128.955,225.60008 129.409,224.98666C129.97014,224.22849 130.36922,223.57343 131.0295,223.05716C131.78259,222.46831 131.86229,221.79237 132.49167,221.03334C133.032,220.38171 132.92291,219.76244 133.41034,218.98534C133.87473,218.24496 134.44824,217.66512 134.97234,217.05716C135.56291,216.37207 136.15834,215.7 136.32367,214.89999L136.325,214L136.325,213.05716" id="svg_10" stroke-width="3" stroke="#000" fill="none"/>
  <path t="52680,52738,52756,52779,52790,52790,52802,52803,52811,52811,52827,52827,52836,52842,52843,52852,52862,52868,52868,52875,52883,52891,52899,52900,52914,52931,52934,52951,52952,52957,52957,52975,52975,52989,52989,53002,53005,53043,53044,53090,53090,53100,53100,53115,53115,53123,53146,53171,53204,53291,53330,53346,53356,53386,53402,53413,53421,53428,53435,53443,53459,53459,53468,53468,53475,53491,53498,53500,53507,53530,53530,53546,53546,53570,53594,53619,53619,53635,53651,53659,53686" d="M93.325,176.7C93.325,178.39999 93.06104,179.35246 93.36667,180.2C93.66404,181.02461 94.72554,181.33275 95.43967,181.90134C96.0686,182.4021 96.50928,183.19075 96.96783,183.99017C97.47589,184.8759 98.0929,185.23132 98.925,185.76134C99.58736,186.18323 100.01707,187.00325 100.71433,187.63867C101.33883,188.20778 102.03341,188.67018 102.84233,188.69867C103.80357,188.73253 104.8209,188.51691 105.52367,188.98534C106.31898,189.51546 106.46582,190.53568 107.34583,190.67917C108.29141,190.83334 109.1123,190.76276 109.809,191.26801C110.5398,191.79799 111.27837,192.56874 112.07767,192.69099C112.97182,192.82774 113.7295,192.7 114.72366,192.7C115.489,192.7 116.56783,192.7 117.425,192.7C118.325,192.7 119.1006,192.69331 119.98217,192.34283C120.74797,192.03838 121.73175,191.51517 122.30417,191.2C123.17119,190.72263 123.78078,190.0396 124.29967,189.31067C124.76585,188.65579 125.71433,188.68933 126.325,188.2C126.93567,187.71066 127.91144,187.31804 128.80417,187.72084C129.49052,188.03053 130.0412,188.5946 130.31433,189.31067C130.62405,190.12268 130.98186,190.72481 131.29967,191.55066C131.63707,192.42744 132.15466,193.02315 132.54633,193.80017C132.89877,194.49939 133.29514,195.35133 133.32367,196.216C133.35542,197.17865 133.18845,198.05664 133.60899,198.89999C133.93892,199.56165 134.64281,200.20964 135.15834,201.03334C135.53365,201.633 135.59935,202.64954 135.97234,203.39549C136.36154,204.17386 136.325,205.11067 136.325,206.02133C136.325,206.87466 136.325,207.81334 136.325,208.7L136.23967,209.50133L135.71434,210.3" id="svg_11" stroke-width="3" stroke="#000" fill="none"/>
  <path t="54421,54451,54459,54460,54468,54476,54485,54492,54499,54499,54508,54515,54515,54530,54540,54540,54547,54547,54557,54563,54563,54573,54573,54579,54579,54590,54591,54596,54597,54611,54612,54614,54614,54620,54620,54627,54627,54644,54645,54645,54653,54653,54659,54668,54668,54675,54684,54691,54699,54699,54707" d="M121.325,165.7C122.20383,166.92133 122.79942,167.46967 123.47433,167.72533C124.36834,168.06398 124.93575,168.68401 125.825,168.7C126.71445,168.716 127.07726,169.47119 127.409,170.132C127.81979,170.95032 128.70267,171.36377 129.03967,172.132C129.42914,173.01982 129.6351,173.88335 130.12633,174.58533C130.64743,175.33002 131.07973,176.11383 131.409,176.95334C131.72083,177.7484 131.86638,178.49361 132.42484,179.55716C132.76353,180.20219 133.24748,181.01657 133.30417,181.72084C133.39877,182.89621 133.29848,183.67958 133.325,184.53334C133.35359,185.45399 133.7076,186.34071 133.97234,187.04733C134.30618,187.93839 134.30467,188.6696 134.3295,189.70534C134.34734,190.4498 134.56607,191.54912 134.825,192.2C135.23499,193.23062 135.3494,193.95551 135.26334,194.69467C135.14095,195.74585 134.48019,196.46584 134.33566,197.336C134.1967,198.17262 134.49248,199.15819 133.96783,199.93834C133.42062,200.75206 132.44617,200.92149 131.99167,201.7L131.325,202.2L130.65834,202.7" id="svg_12" stroke-width="3" stroke="#000" fill="none"/>
  <path t="56124,56151,56165,56171,56180,56192,56192,56196,56211,56220,56220,56228,56237,56237,56244,56244,56253,56260,56270,56278,56283,56283,56305,56305,56305,56305,56308,56308,56308,56308,56309,56309,56309,56315,56315,56317,56317,56324,56338,56338,56338,56341,56341,56341,56347,56348,56348,56355,56355,56389,56391,56391,56391,56391,56395,56396,56396,56396,56396,56396,56396,56396,56403,56403,56403" d="M97.325,224.7C97.325,227.28934 97.27209,228.23474 97.67767,229C98.12596,229.84589 98.325,230.7 98.325,231.5C98.325,232.39999 98.325,233.22084 98.325,234.18401C98.325,235.04733 98.38286,235.94467 98.32367,236.90134C98.28111,237.58916 97.85361,238.50771 97.609,239.216C97.28306,240.15977 97.325,241.11067 97.325,242.0215C97.325,242.72084 97.325,243.89999 97.325,244.7C97.325,245.7 97.31813,246.33202 97.361,247.15199C97.4,247.89795 97.48876,248.86696 97.609,250.088C97.67605,250.76883 97.75034,251.47734 97.825,252.2C97.89967,252.92267 97.98135,253.63048 98.15833,255.53334C98.20628,256.0488 97.80948,257.08746 98.43483,257.897C98.93584,258.54559 100.26641,258.09332 100.67834,258.61865C101.20321,259.28802 101.241,260.384 101.325,261.20001C101.409,262.01599 101.57434,263.0311 101.86667,263.70001C102.17344,264.40198 102.80814,265.38455 103.15033,265.92532C103.67102,266.74817 104.29755,267.78339 104.59033,268.26532C105.08302,269.07632 105.54103,269.73242 106.15833,270.53333C106.52634,271.01077 107.39027,272.061 107.86234,272.616C108.34324,273.1814 108.83112,273.74023 109.31883,274.27951C109.78726,274.79749 111.03867,276.07101 111.381,276.388L112.2,277.07501" id="svg_13" stroke-width="3" stroke="#000" fill="none"/>
  <path t="57304,57341,57354,57355,57371,57372,57380,57402,57412,57412,57427,57427,57427,57436,57436,57443,57443,57453,57459,57459,57468,57475,57490,57500,57500,57506,57530,57539,57539,57546,57555,57556,57563,57563,57572,57579,57588,57595,57595,57595,57606,57611,57611,57611,57620,57621,57621,57621,57628,57628,57628,57636,57636,57636,57636,57646,57646,57646,57651" d="M87.325,270.70001C89.49167,271.53333 90.36015,271.82294 90.96783,272.34732C91.65334,272.93887 92.21773,273.42303 92.80417,274.20001C93.36355,274.94113 93.27235,275.86957 93.34583,276.72083C93.43098,277.70715 93.79716,278.4845 94.041,279.29999C94.33409,280.28018 94.30733,281.13452 94.893,281.81467C95.38271,282.38339 96.0761,283.07303 96.5465,283.79984C97.0057,284.50931 97.95803,284.75851 98.409,285.50134C98.83661,286.20569 99.44862,287.00388 100.125,287.41467C100.90114,287.88608 101.54116,288.42947 102.325,288.86667C102.97687,289.23026 103.62499,290 104.325,290.70001C104.825,291.20001 105.44412,292.01138 106.125,292.41467C106.95216,292.9046 107.66152,293.2486 108.52634,293.616C109.44427,294.00598 110.17108,294.09921 110.841,294.50134C111.74084,295.0415 112.65364,295.56815 113.33933,295.64282C114.14292,295.73035 115.325,295.70001 115.925,295.70001C116.825,295.70001 117.725,295.70001 118.62517,295.70001C119.53567,295.70001 120.161,295.70001 121.49167,295.70001C122.20766,295.70001 122.93967,295.70001 124.01517,295.70001C124.99167,295.70001 125.80617,295.70001 126.65884,295.70001L127.689,295.70001" id="svg_14" stroke-width="3" stroke="#000" fill="none"/>
  <path t="58954,59005,59006,59021,59021,59028,59028,59038,59038,59045,59057,59057,59059,59059,59069,59069,59077,59077,59083,59083,59092,59092,59100,59116,59116,59126,59126,59126,59126,59131,59131,59138,59139,59146,59147,59154,59154,59163,59163,59174,59179,59179,59186,59186,59186,59237,59237,59237,59239,59242,59242,59242,59242,59242,59245,59245,59245,59245,59245" d="M180.325,275.70001C181.49167,274.70001 181.94109,274.05585 182.64633,273.60016C183.29936,273.17822 184.31404,272.86234 185.07767,272.64734C185.98811,272.39099 186.75671,271.89954 187.325,271.20001C187.89406,270.49951 188.66438,270.18655 189.15567,269.216C189.47849,268.57828 189.6096,267.58353 190.0295,266.94733C190.62395,266.04663 191.01215,265.34418 191.52367,264.58401C191.95706,263.93994 192.286,263.04831 192.32367,262.18399C192.36652,261.20068 192.57579,260.38904 192.825,259.65833C193.20374,258.54779 193.27945,257.74799 193.30417,257.20001C193.34096,256.38461 193.26125,255.15019 193.38217,254.3045C193.52776,253.28636 193.93286,252.75528 194.20351,251.72133C194.40173,250.96405 194.06874,249.90865 194.58099,249.26933C195.15897,248.548 196.54486,249.05508 197.1535,248.33833C197.78467,247.59506 197.23964,246.63194 197.65834,245.7C197.94765,245.05605 198.71602,244.34842 199.08234,243.49933C199.34778,242.88405 199.40637,242.06578 199.65834,241.03334C199.87274,240.15482 200.17757,239.16721 200.325,238.6375C200.4763,238.09389 200.78932,236.98631 200.99167,235.86667C201.18544,234.79449 201.21066,234.27066 201.28334,233.28334L201.31599,232.37601" id="svg_15" stroke-width="3" stroke="#000" fill="none"/>
  <path t="60079,60123,60123,60149,60156,60172,60183,60183,60195,60205,60210,60210,60222,60227,60239,60242,60252,60259,60259,60268,60286,60286,60286,60297,60297,60303,60308,60308,60317,60324,60324,60331,60333,60341,60341,60341,60351,60351,60354,60364,60364,60364,60378,60378,60380,60380,60380" d="M208.325,240.7C209.325,239.99017 209.32295,239.18266 209.325,238.336C209.32726,237.40448 209.96703,236.82816 210.26784,235.99017C210.54132,235.22833 210.25868,234.17996 210.67767,233.39999C211.07951,232.65195 211.44847,231.9229 211.89967,231.10001C212.32744,230.31987 212.325,229.4045 212.325,228.53067C212.325,227.67917 212.325,226.7215 212.325,225.90134C212.325,224.98534 212.29684,224.03467 212.34584,223.17917C212.38675,222.46492 212.75806,221.54637 213.041,220.81734C213.39369,219.90863 213.325,218.86667 213.325,218.11067C213.325,217.17917 213.325,216.21466 213.325,215.48933C213.325,214.5 213.325,213.7 213.325,212.7C213.325,211.89999 213.325,211.10001 213.325,210.10451C213.325,209.18533 213.31949,208.31465 213.325,207.36667C213.33034,206.4493 213.26767,205.67349 213.60899,204.668C213.82872,204.02072 214.20351,203.15733 214.30417,202.2L214.32367,201.468" id="svg_16" stroke-width="3" stroke="#000" fill="none"/>
  <path t="61249,61307,61314,61314,61338,61338,61338,61348,61348,61348,61348,61348,61348,61348,61348,61369,61371,61371,61371,61371,61371,61371,61371,61371,61373,61373,61374,61374,61374,61374,61374,61374,61374,61388,61388,61388,61388,61389,61389,61389,61389,61389,61395,61395,61395,61395,61395,61395,61396,61396,61396,61422,61422,61422,61423,61423,61423,61423,61423,61423,61427,61427,61427,61427,61427,61427,61430,61430,61430,61430,61430,61430,61430,61459,61461,61461" d="M177.325,300.70001C178.36667,300.70001 179.33463,300.59656 180.11433,300.72134C181.19026,300.89355 181.70953,301.62585 182.36349,302.10901C183.27124,302.77966 183.74789,302.91684 184.77699,303.30899C185.35884,303.53073 185.99161,303.74182 186.661,303.97198C187.36627,304.21448 188.10873,304.45685 189.65834,305.03333C190.4709,305.3356 191.29771,305.66757 192.14383,306.00983C193.00839,306.35953 193.88686,306.72238 194.78233,307.08533C195.69052,307.45343 196.60695,307.83344 198.49167,308.53333C199.44267,308.88647 200.40256,309.21664 201.35966,309.53833C202.30658,309.8566 203.24142,310.15909 204.15567,310.45334C205.04344,310.73907 205.90228,311.0054 207.49167,311.53333C208.21938,311.77502 208.90434,312.0141 209.55716,312.24734C210.18832,312.47284 210.80426,312.69977 211.41566,312.92532C212.03127,313.15244 212.65791,313.38889 213.99167,313.86667C214.7094,314.12378 215.46033,314.38461 216.23567,314.64816C217.02567,314.91669 217.8242,315.18164 218.62367,315.43866C219.41356,315.6926 220.18553,315.9425 221.65834,316.36667C222.33762,316.56229 222.9837,316.73331 223.60083,316.88116C224.19048,317.02243 224.7614,317.14349 225.31833,317.24268C225.86316,317.33969 226.40286,317.43298 227.49167,317.53333C228.60855,317.63623 229.18193,317.65097 230.34584,317.67917C230.93558,317.69345 231.5295,317.69775 233.325,317.70001C233.92433,317.70078 234.51967,317.70001 235.68233,317.70001C236.24167,317.70001 237.29634,317.70001 237.78366,317.70001L239.38499,317.69733L239.99167,317.67868L240.76416,317.58566" id="svg_17" stroke-width="3" stroke="#000" fill="none"/>
  <path t="62093,62115,62115,62115,62125,62125,62125,62131,62131,62131,62140,62140,62140,62140,62140,62147,62148,62148,62148,62157,62157,62157,62157,62157,62166,62167,62167,62167,62173,62174,62174,62174,62180,62180,62181,62189,62191,62191,62195,62195,62203,62267,62267" d="M170.325,304.70001C173.009,305.26935 173.82535,305.72025 174.37233,306.05182C175.40433,306.6774 176.09016,307.0842 176.77766,307.39551C177.73427,307.82867 178.5743,308.10379 179.17166,308.336C180.49768,308.85147 181.20981,309.18222 181.95033,309.52533C182.70049,309.87289 183.06366,310.06735 184.50366,310.67883C185.16846,310.96115 185.83392,311.20148 186.47766,311.50983C187.50685,312.00281 188.21144,312.46426 188.95033,312.95065C189.70216,313.44556 190.42059,313.96805 191.50349,314.55716C192.15628,314.91229 192.80862,315.16919 193.4205,315.44818C194.63414,316.00153 195.21864,316.35999 195.825,316.67917C196.716,317.14819 197.61874,317.49005 198.51433,317.63867C199.36322,317.77954 200.41624,317.88437 201.089,318.13599C201.94238,318.45517 202.72366,318.89868 203.489,319.26401L204.43967,319.616L205.325,319.86667L206.03967,320.33066" id="svg_18" stroke-width="3" stroke="#000" fill="none"/>
  <path t="62625,62660,62660,62669,62680,62693,62693,62707,62707,62711,62712,62712,62718,62718,62718,62718,62718,62724,62724,62724,62724,62724,62724,62731,62731,62731,62731,62731,62731,62732,62740,62740,62740,62740,62740,62748,62748,62748,62755,62756,62756,62768,62768,62836" d="M152.325,314.70001C153.89433,315.98401 154.47371,316.39951 155.43834,316.61465C156.38937,316.82678 157.35614,316.82742 157.925,317.31067C158.67865,317.9509 159.11588,318.4476 160.097,318.90134C160.87086,319.25922 161.49702,319.44312 162.49167,319.86667C163.21608,320.17517 163.97116,320.53708 164.77167,320.91068C165.61115,321.30246 166.48935,321.70538 167.41167,322.10001C167.8855,322.30273 168.86569,322.70251 169.37167,322.89999C170.40968,323.30511 171.49074,323.70261 172.04634,323.89984C173.17581,324.30078 173.74919,324.4928 174.325,324.67917C175.47011,325.0498 176.03558,325.23456 177.703,325.67834C178.23402,325.81967 179.2561,326.05759 179.74167,326.15833C180.6474,326.34625 181.82236,326.55869 182.75349,326.64282C183.49146,326.7095 184.52643,326.67081 185.34584,326.72083C186.01221,326.76151 187.00633,326.98532 187.78334,327.22083L188.825,327.70001" id="svg_19" stroke-width="3" stroke="#000" fill="none"/>
  <path t="63426,63476,63487,63488,63494,63495,63503,63503,63503,63515,63516,63516,63517,63517,63523,63524,63524,63524,63526,63527,63527,63527,63538,63539,63543,63543,63544,63544,63549,63549,63557,63557,63564,63564,63564,63573,63580,63589,63589,63596,63596,63606,63611,63622,63623,63628,63636,63645,63646" d="M139.325,307.70001C139.55884,308.34732 138.66237,308.61398 137.9205,308.75266C136.91559,308.94052 136.12289,309.3064 135.12466,309.80017C134.50233,310.108 133.8121,310.46002 132.68201,311.02133C132.01151,311.35437 131.28682,311.70779 130.51601,312.04733C130.12405,312.21997 128.93047,312.69516 128.1295,312.93832C127.35064,313.17477 126.58784,313.37332 125.49167,313.53333C124.49082,313.67941 123.56744,313.69366 123.01167,313.784C121.76416,313.98672 121.10495,314.3237 120.15833,314.70001C119.37654,315.0108 118.54728,315.2919 118.009,315.5C116.77489,315.97711 116.15945,316.35431 115.125,316.57849C114.33698,316.74927 113.325,316.70001 112.53567,316.70001C111.81033,316.70001 110.73566,316.70001 109.91434,316.70001C109.0035,316.70001 108.11433,316.70001 107.12534,316.70001C106.36667,316.70001 105.38633,316.70001 104.56333,316.70001C103.67233,316.70001 102.809,316.70001 101.84583,316.70001L100.91434,316.70001L100.00333,316.70001L99.28333,316.70001" id="svg_20" stroke-width="3" stroke="#000" fill="none"/>
  <path t="64096,64123,64123,64132,64132,64146,64146,64147,64159,64159,64164,64164,64176,64195,64195,64203,64212,64212,64224,64228,64228,64237,64245,64245,64260,64261,64270,64279,64286,64286,64294,64294,64315,64315,64339,64340,64368,64368,64373,64373" d="M113.325,324.70001C115.925,324.34283 116.71971,323.98468 117.725,323.50134C118.32193,323.21436 119.32975,322.88956 120.11433,322.71466C120.84471,322.55185 121.61402,321.76132 122.209,321.26801C122.8961,320.6983 123.85404,320.85626 124.78333,320.70001C125.64689,320.55481 126.202,319.94595 127.15033,319.72534C128.14978,319.49283 128.79233,319.20947 129.43483,318.59018C130.04349,318.00351 130.6122,317.29486 131.56784,316.80984C132.28664,316.44504 133.01889,316.0874 133.54649,315.25732C133.97925,314.57648 134.77756,313.97385 135.27234,313.34283C135.83344,312.62726 136.03523,311.94666 136.6295,311.04733C137.08661,310.35556 137.62756,309.69501 138.325,309.22083C139.13766,308.6683 139.80417,308.17917 140.42484,307.37866L140.80417,306.70001L141.15834,305.86667L141.38634,305.00266" id="svg_21" stroke-width="3" stroke="#000" fill="none"/>
  <path t="65726,65781,65789,65789,65800,65801,65814,65814,65814,65824,65824,65824,65824,65824,65836,65836,65837,65839,65839,65839,65845,65845,65845,65845,65851,65851,65851,65860,65860,65860,65868,65868,65868,65875,65875,65883,65884,65893,65893,65907,65916,65916,65925,65925,65931,65931,65943,65943,65953,65954,65954,65956,65956,65956,65956,65971,65971,65971,65973,65974,65974,65988,65989,65989,65989,66011,66011,66038,66043,66052,66059,66068,66068,66075,66093,66095,66095,66100,66100,66110,66111,66117,66117,66131,66131,66147,66155,66155,66191,66191,66197,66197,66197,66197,66203,66203,66203,66212,66212,66212,66220,66220,66220,66227,66227,66227,66236,66243,66243,66251,66251,66268,66285,66287,66288,66327,66328,66329,66330,66334,66335,66335,66335,66341,66355,66378,66378,66381,66381,66422,66427,66427,66427,66435,66445,66445,66452,66453,66467,66475,66486,66512,66512,66519,66519,66537,66554,66557,66571,66571,66580,66587,66602,66605,66615,66644,66644,66700,66707,66740,66803,66851" d="M3.325,139.7C4.961,139.12534 5.80767,138.75197 6.53567,138.71066C7.52347,138.6546 8.325,138.7 9.325,138.7C10.157,138.7 10.8965,138.7 12.189,138.7C12.983,138.7 13.401,138.7 14.249,138.7C15.073,138.7 16.47033,138.7 17.28333,138.7C18.00633,138.7 19.01167,138.7 19.86667,138.7C20.81167,138.7 21.84633,138.7 22.57767,138.7C23.325,138.7 24.07233,138.7 25.50333,138.7C26.16333,138.7 27.07833,138.7 28.15833,138.7C28.87233,138.7 29.77767,138.7 30.74633,138.7C31.55033,138.7 32.37233,138.7 33.40333,138.7C34.28333,138.7 35.15833,138.7 35.95033,138.7C36.97766,138.7 37.67233,138.7 38.69967,138.7C39.64633,138.7 40.325,138.7 41.30367,138.7C42.209,138.7 43.161,138.7 43.92633,138.7C44.9295,138.7 45.78218,138.69394 46.74667,138.70016C47.57172,138.70549 48.1765,138.694 49.49166,138.86667C50.21104,138.96112 50.93885,139.12933 51.66367,139.27467C52.99022,139.54066 53.55377,139.64645 54.53967,139.68933C55.49083,139.7307 56.28217,139.7 57.13567,139.7C58.325,139.7 58.92453,139.67719 59.80416,139.72084C60.64112,139.76239 61.63932,139.98114 62.47833,140.27467C63.44081,140.6114 64.325,140.7 65.15833,140.7C65.97166,140.7 66.97767,140.7 67.67233,140.7C68.689,140.7 69.6295,140.7 70.49167,140.7C71.325,140.7 72.30367,140.7 73.07767,140.7C73.98217,140.7 74.7295,140.7 75.72234,140.7C76.61066,140.7 77.46167,141.043 78.12634,141.416C78.89225,141.84583 79.97317,141.69814 80.75567,141.7C81.70017,141.70226 82.46893,141.77769 83.3105,141.92133C84.04133,142.04605 84.84463,142.20689 85.6715,142.34734C86.8234,142.54297 87.75957,142.60204 88.7115,142.75267C89.53225,142.88255 90.33424,143.23961 91.01033,143.416C91.99686,143.67337 92.84568,143.68843 93.72633,143.69867C94.92226,143.71257 95.50367,143.7 96.55434,143.7C97.51067,143.7 98.42516,143.7 99.21033,143.7C100.161,143.7 100.92633,143.7 101.9205,143.7C102.66783,143.7 103.721,143.7 104.37967,143.7C105.38233,143.7 106.40833,143.7 107.19566,143.7C107.61433,143.7 108.94566,143.7 109.85966,143.7C110.74167,143.7 111.54366,143.7 112.71767,143.7C113.54667,143.7 114.49167,143.7 115.15033,143.7C116.15833,143.7 117.03833,143.7 117.8875,143.7C118.86767,143.7 119.57567,143.7 120.557,143.7C121.51517,143.7 122.49167,143.7 123.15033,143.7C124.15833,143.7 125.12228,144.03665 125.89967,143.664C126.71426,143.27351 127.18686,142.74818 128.15834,142.7C129.07831,142.65437 129.96611,142.31847 130.67233,142.05267C131.5549,141.72052 132.52367,141.7 133.37767,141.7C134.325,141.7 135.08217,141.7 135.97316,141.7C136.99167,141.7 137.84584,141.70219 138.72501,141.7C139.62502,141.69774 140.36166,141.37387 141.125,140.98399C141.87788,140.59946 142.825,140.7 143.72501,140.7L144.71434,140.7L145.61034,140.7" id="svg_22" stroke-width="3" stroke="#000" fill="none"/>
  <path t="67470,67531,67531,67542,67549,67558,67559,67559,67566,67566,67574,67574,67579,67580,67580,67589,67590,67590,67595,67596,67610,67610,67610,67613,67613,67623,67623,67629,67645,67646,67653,67659,67669,67678,67685,67685,67691,67692,67701,67701,67707,67715,67715,67717,67724,67725,67725,67732,67732,67732,67740,67747,67748,67755,67756,67756,67763,67773,67780,67795,67795,67811,67811,67814,67822,67827,67827,67836,67844,67844,67844,67855,67856,67860,67860,67860,67870,67870,67870,67875,67876,67876,67887,67887,67891,67892,67901,67902,67912,67913,67913,67917,67917,67917,67923,67923,67924,67931,67934,67943,67943,67944,67951,67952,67952,67955,67955,67964,67964,67976,67976,67979,67980,67989,67989,67995,68003,68018,68022,68028,68043,68043,68053,68053,68063,68064,68068,68068,68075,68096,68096,68096,68107,68125,68155,68172,68179,68192,68204,68204,68226,68236,68243,68252,68291,68307,68332,68336,68380" d="M185.325,140.7C186.325,140.7 187.125,140.7 188.02499,140.7C188.86667,140.7 189.86766,140.7 190.57567,140.7C191.55701,140.7 192.51967,140.7 193.293,140.7C194.33484,140.7 195.11034,140.7 196.15834,140.7C196.87233,140.7 197.77766,140.7 198.74617,140.7C199.53967,140.7 200.31517,140.7 201.35699,140.7C202.13034,140.7 203.09433,140.7 203.84584,140.7C204.64233,140.7 205.86783,140.7 206.7205,140.7C207.72234,140.7 208.453,140.7 209.40767,140.7C210.325,140.7 211.08217,140.7 211.97316,140.7C212.99167,140.7 213.84584,140.7 214.73567,140.7C215.64633,140.7 216.49966,140.7 217.44234,140.7C218.13483,140.7 219.09166,140.69991 220.03833,140.7C220.961,140.70009 221.8213,140.87831 222.62233,141.12534C223.37802,141.35837 224.4007,141.60785 225.09967,141.664C226.00674,141.73688 227.00862,141.677 227.80417,141.72084C228.55728,141.76234 229.61359,142.2487 230.49167,142.53334C231.31598,142.80054 232.325,142.7 233.11433,142.7C233.83966,142.7 234.91434,142.69798 235.72501,142.7C236.62952,142.70226 237.49167,142.86667 238.325,143.2C239.15834,143.53334 240.02048,143.69774 240.925,143.7C241.84584,143.70229 242.80901,143.7 243.49966,143.7C244.44099,143.7 245.49167,143.7 246.161,143.7C246.92633,143.7 248.0524,143.46721 248.83966,144.04134C249.64549,144.629 249.63763,145.4399 250.13483,146.28934C250.59438,147.07446 251.32043,147.54759 252.11034,147.65733C253.14923,147.80167 254.089,147.7 254.92366,147.7C255.925,147.7 256.72501,147.7 257.72501,147.7C258.52499,147.7 259.52499,147.7 260.32501,147.7C261.32501,147.7 262.13568,147.7 262.78217,147.7C263.74649,147.7 264.561,147.7 265.4295,147.7C266.62466,147.7 267.50366,147.7 268.05301,147.7C269.18234,147.7 269.97568,147.7 271.09567,147.7C271.86667,147.7 272.43399,147.7 273.62466,147.7C274.50366,147.7 275.31067,147.7 276.35699,147.7C277.13034,147.7 278.09299,147.7 278.82501,147.7C279.99167,147.7 280.80417,147.7 281.64651,147.7C282.53568,147.7 283.52466,147.7 284.28333,147.7C285.26367,147.7 286.02951,147.7 286.92499,147.7C287.82501,147.7 288.80417,147.7 289.65833,147.7C290.54633,147.7 291.52484,147.7 292.30417,147.7C293.30368,147.7 294.07767,147.7 294.97766,147.7C295.841,147.7 296.71033,147.7 297.65833,147.7C298.57565,147.7 299.31967,147.7 300.353,147.7C301.241,147.7 302.02951,147.7 302.92499,147.7C303.82501,147.7 304.88705,147.87093 305.61032,147.41467C306.22754,147.02531 306.74014,146.02548 307.625,145.75717C308.48676,145.49586 308.92319,145.33107 309.61032,144.78534C310.25165,144.276 311.35034,144.7 312.12634,144.7L313.15833,144.7" id="svg_23" stroke-width="3" stroke="#000" fill="none"/>
  <path t="70042,70535,70604,70604,70643,70643,70668,70715,70731,70747,70763,70779,70811,70821,70821,70852,70875,70907,70919,70919,70936,70936,70956,70987,70991,70991,71043,71052,71068,71086,71122,71123,71131,71162,71163,71171,71189,71206,71217,71230,71239,71246,71260,71268,71276,71286,71303,71303,71318,71339,71339,71363,71373,71403,71403,71405,71406,71406,71425,71428,71428,71428,71437,71447,71477,71477,71493,71494,71504,71530,71530,71530,71535,71539,71545,71546,71549,71574,71576,71578,71580,71580,71580,71602,71603,71618,71619,71621,71644,71660,71660,71677,71679,71700,71700,71708,71708,71715,71725,71725,71734,71734,71747,71747,71757,71757,71762,71762,71768,71781,71803,71803,71847,71848,71891,71979" d="M225.325,51.7C225.60899,52.61467 226.50734,52.61325 227.21167,52.78533C228.17537,53.02078 228.60303,53.62606 229.31599,54.34283C229.81229,54.84179 230.42368,55.3887 231.12633,55.784C231.94327,56.2436 232.724,56.56493 233.61034,56.70133C234.44437,56.82969 235.09668,57.53324 236.02499,57.6955C236.91246,57.85062 237.71689,58.14477 238.325,58.7C238.95274,59.27317 239.80473,59.6532 240.61517,59.6955C241.60899,59.74737 242.59422,59.51121 243.42484,59.92133C244.1324,60.27071 244.72664,60.81314 245.3205,61.34733C245.8615,61.83397 246.7338,62.1268 247.325,62.7C247.9342,63.29066 248.5224,64.16576 249.325,64.53333C250.06772,64.87348 251.03973,64.68925 251.93567,64.7C252.80435,64.71042 253.3689,65.3618 254.0295,65.75267C254.81494,66.21741 255.62364,66.67132 256.52499,66.7C257.42438,66.72861 257.99554,67.24908 258.68668,67.64283C259.52185,68.11865 260.51163,67.6488 261.27432,68.12534C261.9433,68.54331 262.75699,68.69713 263.68216,68.7C264.625,68.70293 265.37537,69.01926 266.13934,69.34734C267.04938,69.73814 267.82489,69.68499 268.55701,69.69867C269.67422,69.71954 270.66473,69.84547 271.32584,70.05717C272.04605,70.2878 272.8363,71.14905 273.54666,71.5785C274.36203,72.07143 275.32547,71.67242 276.15833,71.7C277.02194,71.7286 277.832,72.29877 278.65833,72.53333C279.54108,72.78391 280.34097,72.59226 281.22766,73.12534C281.95239,73.56104 282.80899,73.7 283.49966,73.7C284.56784,73.7 285.42719,73.63728 286.32501,73.7C287.14532,73.7573 287.87082,74.13729 288.57565,74.55067C289.32303,74.98899 290.3862,75.46236 291.07318,75.80534C291.84985,76.19308 292.31006,77.05372 293.15567,77.52934C293.88934,77.94199 294.802,78.00121 295.49966,78.27467C296.42957,78.63915 297,79.3283 297.65833,79.7C298.25699,80.03801 299.3035,79.7 300.12366,79.7C301.08215,79.7 301.98843,79.64718 302.72949,79.75716C303.73816,79.90687 304.4567,80.38452 305.44232,80.61467C306.12128,80.77321 307.09299,80.7 308.07434,80.7C308.99167,80.7 309.78333,80.7 310.72501,80.7C311.62949,80.7 312.49167,80.7 313.32501,80.7C314.3035,80.7 315.12366,80.7 316.02499,80.7L316.96783,80.7" id="svg_24" stroke-width="3" stroke="#000" fill="none"/>
  <path t="73404,73501,73520,73522,73526,73526,73526,73526,73526,73531,73531,73531,73539,73539,73549,73555,73556,73831,73847,73862,73862,73885,73901,73901,73917,73931,74071,74247,74285,74286,74293,74294,74308,74324,74355,74371,74402,74429,74476,74492,74511,74670,74763,74775,74803,74897,74897,74955,74955" d="M227.325,52.7C229.95033,52.7 230.81433,52.7 231.64366,52.7C232.825,52.7 233.577,52.7 234.401,52.7C234.825,52.7 235.66701,52.7 237.16051,52.7C237.75349,52.7 238.7115,52.7 239.72366,52.7C240.489,52.7 241.44099,52.7 242.49167,52.7C243.15033,52.7 244.953,53.49466 244.953,52.7C244.953,51.75066 243.325,52.7 242.3465,52.7C241.325,52.7 240.52499,52.7 239.625,52.7C238.72501,52.7 237.84016,52.79559 236.96333,52.6955C235.98582,52.58392 235.33302,52.17921 234.49167,51.86666C233.69377,51.57027 233.54875,50.58547 233.041,49.86934C232.55278,49.18076 231.87839,48.64619 231.29967,48.12533C230.6618,47.55125 229.87604,47.15474 229.41034,46.416C228.93744,45.66583 229.11243,44.96373 228.44633,44.47867C227.74649,43.96903 227.125,43.69867 226.22517,43.47867L225.61034,42.984L224.75566,42.7L223.97316,42.7" id="svg_25" stroke-width="3" stroke="#000" fill="none"/>
  <path t="75615,75718,75804,75837,75856,75859,75885,75907,75947,75979,75995,75995,76005,76029,76030,76036,76036,76054,76070,76070,76148,76148,76157,76157,76187,76187,76223,76224,76252,76292,76292,76319,76319,76351,76373,76388,76403,76420,76459,76476,76500,76531,76564,76573,76591,76596,76596,76620,76652,76668,76687,76691,76701,76726,76740,76740,76747,76748,76755,76771,76781,76789,76806,76834,76837,76868,76875,76884,76912,76926,76926,76939,76980,76995,76995,77005,77012,77023,77036,77043,77084,77107,77116,77127,77127,77131,77147,77163,77203,77203,77251,77276,77276,77286,77297,77323,77326,77371,77396,77396,77419,77452,77459,77468,77478,77494,77563,77595,77643,77659,77669,77684,77700,77701,77717,77718,77739,77763,77779,77795,77875,78080,78081,78110,78173" d="M223.325,39.7C224.325,38.7 224.69774,38.23787 225.36099,37.71067C225.96017,37.2344 227.02499,37.7 227.925,37.7C228.88901,37.7 229.57816,38.24507 230.425,38.5785C231.27002,38.91121 232.23575,38.33564 232.96783,38.75717C233.77933,39.22441 234.22041,39.76084 235.15033,40.12533C235.84799,40.39879 236.82518,40.67312 237.6465,40.70016C238.5359,40.72945 239.58618,40.80355 240.28334,41.24166C241.08316,41.7443 240.99858,42.7048 241.65834,43.36666C242.19148,43.90152 243.27158,43.98036 244.02049,44.34733C244.8587,44.75806 245.717,45.03408 246.12633,45.58667C246.78369,46.47407 247.00217,47.38087 247.925,47.67867C248.78175,47.95513 249.70894,47.71749 250.325,48.2C250.96678,48.70267 251.93053,48.32641 252.80417,48.72083C253.49046,49.03067 253.21634,50.42491 253.93567,50.68933C254.77045,50.9962 255.90027,50.60484 256.27234,51.40533C256.58398,52.07585 257.15839,52.6909 257.93567,52.7C258.8252,52.71042 259.70047,53.16565 260.42484,53.57867C261.21542,54.02945 261.42529,54.78268 262.19699,55.12533C262.91571,55.44445 263.91916,55.6675 264.66785,55.6955C265.68829,55.73366 266.625,55.7 267.52499,55.7C268.42499,55.7 269.46292,55.37822 270.15833,55.86666C270.8735,56.36899 271.42499,56.7 272.32501,56.7C273.27234,56.7 274.08667,56.7 274.97766,56.7C275.841,56.7 276.78333,56.7 277.68668,56.7C278.64633,56.7 279.32501,56.7 280.30334,56.7C281.27234,56.7 282.02951,56.7 282.92499,56.7C283.82501,56.7 284.80417,56.69931 285.68216,56.7C286.52499,56.70067 287.35989,57.02957 288.125,57.416C288.9176,57.81632 289.84583,57.7 290.73566,57.7C291.64618,57.7 292.46365,57.7 293.49167,57.7C294.32501,57.7 295.12543,57.67275 296.02499,57.7C296.96915,57.7286 297.45245,58.30601 298.04099,58.78533C298.71811,59.3368 299.366,59.51858 300.125,59.78533C300.98096,60.08615 301.70248,60.51754 302.52368,60.70133C303.33072,60.88195 303.84564,61.68958 304.71432,61.7C305.61026,61.71075 306.52499,61.7 307.42499,61.7C308.32501,61.7 308.91559,62.08451 309.61166,62.616C310.33893,63.17128 311.11682,63.22061 312.15833,63.53333C312.94482,63.76949 313.84583,63.7 314.72501,63.7C315.625,63.7 316.52368,63.7 317.409,63.7C318.32501,63.7 319.125,63.7 320.02499,63.7L320.88901,63.7" id="svg_26" stroke-width="3" stroke="#000" fill="none"/>
  <path t="79610,79758,79780,79787,79787,79790,79808,79808,79820,79828,79840,79845,79853,79868,79868,79875,79885,79891,79892,79901,79907,79918,79918,79931,79933,79971,79981,79997,80012,80020,80051,80051,80054,80069,80069,80069,80069,80099,80155,80180,80180,80212,80259,80268,80291,80307,80318,80326,80333,80340,80347,80379,80435,80446,80460,80460,80469,80491,80503,80574,80588,80608,80621,80622,80629,80639,80639,80644,80691,80707,80723,80732,80747,80763,80774,80804,80819,80820,80835,80843,80869,80876,80891,80893,80901,80908,80923,80931,80940,80971,80980,81003,81027,81027,81051,81059,81076,81084,81131,81147,81171,81171,81179,81203,81238,81270,81286,81294,81312,81312,81327,81327,81339,81429,81434,81437,81437,81437,81454,81454,81471,81484,81544,81556,81573,81589,81635,81659,81659,81670,81684,81701,81716,81767,81819,81859,81884,81900,81924,81963,81963,82103,82140,82203" d="M224.325,52.7C223.4465,53.9215 223.53566,54.86612 223.15834,55.7C222.86243,56.35397 221.65182,56.62434 221.38217,57.40983C221.11935,58.17541 221.62973,59.23549 221.31433,60.08933C221.0386,60.83576 219.81406,60.93018 219.4465,61.8C219.093,62.63654 219.22223,63.48996 218.825,64.2C218.32822,65.08798 217.9576,65.848 217.60899,66.5C217.15593,67.34739 216.83687,68.2334 216.22484,68.79984C215.59929,69.37879 214.62059,69.40208 213.89433,69.69867C213.17746,69.99143 212.55373,70.70035 212.3295,71.4045C212.04251,72.30574 211.41403,72.50488 210.49167,72.86667C209.70419,73.17555 209.41502,74.22775 208.65834,74.7C207.9792,75.12384 207.32895,75.19416 206.461,75.41467C205.3006,75.70947 204.46306,75.66555 203.49167,75.7C202.68513,75.7286 202.15834,76.53333 201.325,76.7C200.49167,76.86666 200.04301,77.65727 199.22501,77.7C198.32622,77.74694 197.409,77.7 196.6205,77.7C195.72501,77.7 194.825,77.7 193.84584,77.7C192.96783,77.7 192.06813,77.86275 191.22501,77.47867C190.44498,77.12332 189.68217,76.70225 188.80417,76.7C187.93567,76.69777 186.94774,76.88151 186.12633,76.69867C185.31511,76.5181 184.75845,75.75085 183.97316,75.7045C182.96265,75.64485 181.98766,75.52327 181.61034,74.89867C181.11577,74.07999 180.97607,73.15948 180.15834,72.7C179.4604,72.30783 179.48434,71.40211 178.97234,70.75267C178.48779,70.13805 178.44215,69.3028 178.32367,68.41467C178.21208,67.57822 177.47881,66.9332 177.33566,66.1C177.17242,65.14986 177.19768,64.2539 177.3295,63.4C177.47327,62.46863 177.70992,61.68055 178.409,60.98533C178.95604,60.44131 180.14349,60.64756 180.32367,59.89867C180.53828,59.00668 181.12202,58.46321 181.325,57.616C181.52992,56.76064 182.45299,56.51134 183.02499,55.9955C183.7522,55.33969 184.15305,54.59174 184.325,53.7C184.49654,52.81044 185.36099,52.66401 185.93567,52.08933C186.625,51.40001 187.04797,50.81032 187.825,50.22083C188.55855,49.66433 189.05099,49.16002 189.68216,48.75717C190.47838,48.24897 191.58565,48.88074 192.325,48.53333C193.02043,48.20656 193.46176,47.17432 193.925,46.56133C194.54234,45.74442 195.12823,45.19686 195.78233,44.71467C196.54106,44.15535 197.32495,43.9855 198.07434,43.55067C198.98524,43.02211 199.6951,42.64575 200.35033,42.12533C200.98494,41.62128 201.6673,41.08112 202.52499,40.78533C203.37964,40.49059 204.43936,40.98645 205.15834,40.53333C205.86334,40.08902 206.52455,39.86095 207.43834,39.69867C208.2762,39.54986 208.74977,38.71801 209.61034,38.7C210.5248,38.68087 211.425,38.7 212.325,38.7C213.20366,38.7 214.0295,38.7 214.84584,38.7C215.80766,38.7 216.61517,38.7 217.61034,38.7L218.52499,38.7L219.425,38.7" id="svg_27" stroke-width="3" stroke="#000" fill="none"/>
  <path t="83923,83998,84016,84023,84031,84044,84067,84075,84131,84203,84295,84307,84307,84308,84355,84387,84419,84483,84507,84531,84540,84571,84587,84611,84621,84627,84644,84667,84699,84717,84731,84787,84797,84797,84851,84861,84885,84916,84941,85015,85047,85075,85079,85094,85108,85116,85188,85203,85215,85230,85238,85246,85260,85269,85277,85285,85333,85356,85364,85427,85444,85588,85588,85612,85659,85670,85691,85702,85710,85724,85731,85741,85741,85747,85750,85750,85759,85764,85774,85790,85811,85835,85853,85869,85884,85884,85947,86005,86027,86109,86191,86209,86244,86256,86269,86296,86305,86308,86317,86346,86365,86427,86444,86453,86476,86498,86519,86534,86535,86604,86604,86623,86638,86645,86645,86662,86662,86672,86777,86790,86823,86830,86861,86885,86901,86916,86924,86946,86982,87004,87004,87029,87055,87077,87077,87101,87109,87127,87230,87254,87264,87270,87285,87293,87293,87301,87318,87503,87504,87523,87531,87547,87556,87573,87573,87580,87611,87636,87636,87691,87692,87717,87718,87733,87755,87764,87781,87791,87802,87811,87823,87839,87859,87949,87956,87958,87958,87958,87959,87959,87964,87964,87973,88021,88021,88094,88148,88172,88188,88188,88194,88197,88212,88222,88222,88230,88244,88245,88261,88262,88277,88286,88300,88308,88318,88323,88324,88357,88358,88362,88362,88362,88362,88367,88386,88387,88527,88639,88656,88664,88691,88766,88791,88823,88845,88855,88876,88892" d="M4.325,56.7C6.125,56.7 7.04516,56.85884 7.825,56.67916C8.77706,56.4598 9.50975,55.98042 10.20367,55.47867C10.90523,54.97139 11.52506,54.68929 12.42483,54.7C13.32119,54.71067 13.98454,55.14982 14.61167,55.55067C15.31903,56.0028 16.34082,56.61428 17.241,56.7C18.02595,56.77475 18.71215,57.0145 19.49167,57.53333C20.19913,58.00421 20.93681,57.84069 21.41033,58.416C21.92193,59.03757 22.99038,59.16581 23.71433,59.67467C24.42966,60.17746 24.97232,60.69775 25.84583,60.7C26.825,60.70252 27.725,60.7 28.6205,60.7C29.49167,60.7 30.27878,60.45787 31.025,60.05267C31.78612,59.63937 32.97467,59.87549 33.31433,59.12533C33.69623,58.28189 33.9356,57.7 34.825,57.7C35.7144,57.7 36.41737,58.1073 36.97233,58.75267C37.4728,59.33466 37.75813,60.3756 38.6205,60.64283C39.50669,60.91745 40.449,60.7245 40.449,60.7C40.449,60.208 40.925,60.7 41.825,60.7C42.725,60.7 43.68472,60.78477 44.29967,60.27467C44.89893,59.77758 44.92645,58.98582 45.361,58.136C45.71732,57.43918 46.66779,57.08715 47.20367,56.4785C47.82673,55.77083 47.9783,54.8822 48.889,54.71067C49.80888,54.5374 50.26161,55.47479 51.0295,55.6955C51.89016,55.94287 52.889,55.7 53.761,55.7C54.6295,55.7 55.65589,55.7798 56.34583,55.65833C57.35204,55.48119 57.90262,54.97125 58.66784,54.40533C59.42275,53.84703 60.47942,54.02319 61.20367,53.47867C61.84652,52.99534 62.30839,52.28252 62.825,51.7C63.35948,51.09732 63.75182,50.29118 64.42484,49.60017C64.96062,49.05005 65.32257,48.264 65.325,47.3C65.32725,46.40449 65.73356,45.70637 66.325,45.2C66.91943,44.69107 67.91144,44.31804 68.80417,44.72083C69.49053,45.03051 69.90013,45.66167 70.35033,46.31067C70.8521,47.03399 71.61632,47.48625 72.27233,48.05267C72.86472,48.56414 73.625,48.7 74.525,48.7C75.425,48.7 76.33025,48.7979 77.241,48.7C78.04332,48.61376 78.50512,47.8386 78.925,46.976C79.3071,46.19104 80.02507,45.71768 80.96783,45.7C81.86675,45.68315 82.64092,45.46532 83.49966,45.12533C84.29866,44.809 85.12383,44.68265 86.025,44.7C86.92555,44.71734 87.74382,45.11646 88.241,45.89867C88.70592,46.63013 88.98074,47.2033 89.33566,48.08933C89.62566,48.81327 90.725,48.7 91.625,48.7C92.525,48.7 93.425,48.7 94.325,48.7C95.125,48.7 96.025,48.7 96.96783,48.7C97.893,48.7 98.61967,48.7 99.61034,48.7C100.52367,48.7 100.97286,48.26963 101.61034,47.78533C102.34182,47.22961 103.425,47.7 104.325,47.7C105.15833,47.7 106.03484,47.7 106.84233,47.7C107.80417,47.7 108.78396,47.52131 109.5465,47.92133C110.22144,48.2754 111.03116,48.74183 111.825,49.2C112.52926,49.60646 113.04087,50.162 113.5465,50.92133C113.96893,51.55573 114.76074,51.94208 115.49167,52.53333C116.18948,53.09779 116.9212,53.41865 117.76783,53.92133C118.31957,54.24893 119.34749,54.44876 120.12366,54.784C120.95826,55.14447 121.68217,55.7 122.525,55.7C123.425,55.7 124.325,55.7 125.241,55.7C126.0295,55.7 126.92506,55.70958 127.825,55.7C128.80434,55.68958 129.42067,55.08837 130.49167,54.86666C131.30118,54.69909 131.79791,54.74891 132.84584,54.72083C133.38358,54.70643 134.42233,54.70067 135.69583,54.7C136.49834,54.69958 137.409,54.7 138.325,54.7C139.125,54.7 140.04231,54.672 140.80417,54.2C141.56505,53.72861 142.49484,53.85873 143.15033,54.12533C143.84447,54.40764 144.92285,54.7083 145.73567,55.12533C146.50002,55.51749 147.2775,55.79984 148.157,55.98133C148.88194,56.13094 149.41623,55.38828 150.3035,54.943C151.06737,54.55965 152.02499,54.7 152.88901,54.7C153.761,54.7 154.72501,54.70067 155.625,54.7C156.52634,54.69933 157.20819,54.60849 158.18233,54.27467C158.84241,54.04847 159.96606,53.80452 160.62584,53.75717C161.63681,53.68461 162.27692,53.80696 163.45351,53.6955C164.336,53.61189 164.9119,52.88026 165.761,52.7C166.70399,52.49981 167.64096,52.53272 168.52367,52.70133C169.27977,52.84576 169.16783,54.02172 169.67767,54.64734C170.17323,55.25542 170.84584,55.7 171.72501,56.12533L172.42484,56.5785L173.325,56.7" id="svg_28" stroke-width="3" stroke="#000" fill="none"/>
  <path t="89860,90024,90046,90047,90071,90184,90214,90229,90235,90235,90254,90320,90383,90461,90493,90509,90524,90525,90533,90542,90703,90739,90749,90765,90800,90932,91105,91223,91241,91242,91451,91452,91459,91489,91501,91539,91540,91568,91621,91622,91653,91691,91691,91700,91719,91756,91756,91779,91908,91933,91941,91974,91996,91996,92004,92004,92028,92035,92036,92069,92079,92118,92147,92171,92185,92189,92202,92211,92253,92520,92553,92559,92588,92736,92755,92764,92896,92914,92934,92958,92981,93012,93020,93068,93077,93108,93275" d="M217.325,68.7C218.54649,69.57867 219.37823,69.99639 220.02499,70.34734C220.84174,70.79051 221.76102,70.70484 222.72501,70.7C223.62053,70.6955 224.07692,70.08082 224.37767,69.40533C224.72765,68.61929 225.87859,68.74743 226.625,68.34734C227.46877,67.89505 228.43936,67.41355 229.15834,67.86667C229.86334,68.31098 230.54077,68.61497 231.26367,69.12534C231.92009,69.58877 232.79227,69.81012 233.3295,69.34734C233.93468,68.82601 234.71863,68.95461 235.6205,68.6955C236.38841,68.47488 236.97467,67.83986 237.68216,67.34283C238.42606,66.82024 238.79958,66.17356 239.52499,65.50134C240.10545,64.96344 241.1786,64.74611 241.32367,65.50134C241.51834,66.51481 241.50604,67.33913 242.0295,67.99467C242.61154,68.72359 243.65834,68.7 244.47433,68.7C245.40767,68.7 246.325,68.7 247.125,68.7C248.02499,68.7 248.96783,68.7 249.89433,68.7C250.67683,68.7 251.57286,68.60217 252.52367,68.7C253.33784,68.78378 253.80234,69.41534 254.27234,70.06167C254.85931,70.86887 254.78358,71.73903 255.325,72.53333C255.7758,73.1947 256.901,73.34848 257.32501,74.03333C257.75497,74.7278 257.80188,75.43161 258.62051,75.7045C259.37848,75.95716 259.84564,76.68958 260.72501,76.7C261.62494,76.71066 262.52499,76.7 263.42499,76.7C264.32501,76.7 265.241,76.7 266.02951,76.7C266.92499,76.7 267.82501,76.69747 268.80417,76.7C269.67767,76.70225 270.37881,77.14661 270.89966,77.72533C271.47372,78.3632 272.12634,78.69933 273.03967,78.7C273.93567,78.70065 274.88474,79.00989 275.71432,78.68933C276.50726,78.38295 277.02951,77.7045 277.91068,77.7L277.98233,77.47867L277.73932,76.75716" id="svg_29" stroke-width="3" stroke="#000" fill="none"/>
  <path t="94900,94959,94975,94984,94996,95009,95009,95013,95013,95027,95041,95058,95061,95061,95075,95092,95108,95108,95133,95133,95148,95160,95164,95164,95174,95174,95180,95180,95191,95191,95196,95207,95207,95212,95212,95224,95224,95242,95351,95376,95377,95385,95385,95388,95389,95397,95397,95413,95413,95422,95439,95460,95476,95477,95486,95492,95492,95502,95502,95512,95512,95517,95524,95524,95540,95548,95548,95549,95557,95557,95564,95572,95580,95596,95606,95622,95652,95668,95686,95692,95709,95724,95733,95740,95756,95790,95797,95797,95805,95837,95837,95844,95845,95845,95845,95853,95861,95870,95877,95877,95910,95919,95919,95919,95924,95925,95935,95940,95941,95956,95964,95976,95987,95992,96003,96006,96007,96014,96036,96044,96065,96071,96092,96109,96143,96143,96151,96167,96189,96196,96205,96215,96225,96253,96284,96316,96325,96337,96337,96350,96360,96360,96397,96420,96420,96437,96460,96460,96469,96511,96535,96556,96556,96564,96567,96576,96594,96623,96748,96780" d="M5.325,121.7C7.13967,121.71066 7.84497,122.21645 8.67767,122.64283C9.45284,123.03975 10.49167,122.7 11.15033,122.7C12.15833,122.7 13.15517,122.55806 13.30417,121.7C13.45578,120.8269 14.18661,120.72311 15.15833,120.7C15.91498,120.68199 16.63536,120.08195 17.525,119.78533C18.3828,119.49933 19.22429,119.65157 19.97317,119.34734C20.77246,119.02261 21.68217,118.7 22.6295,118.7C23.49167,118.7 24.34583,118.7 25.325,118.7C26.11433,118.7 27.15833,118.7 27.95033,118.7C28.809,118.7 29.67233,118.7 30.57233,118.7C31.49167,118.7 32.34583,118.7 33.325,118.7C34.11433,118.7 35.15833,118.7 35.91433,118.7C36.80416,118.7 37.68688,118.67995 38.64633,118.70016C39.50023,118.71816 40.26508,119.00738 41.13483,119.34734C42.05861,119.70841 43.39728,120.38883 43.73867,119.47867C43.95982,118.88907 42.32958,118.74096 41.64767,118.71066C41.13073,118.6877 42.025,118.7 42.961,118.7C43.809,118.7 44.67233,118.7 45.57233,118.7C46.49166,118.7 47.41453,118.55766 48.15833,119.03333C48.94029,119.53341 49.39518,120.57434 50.125,120.69733C50.94938,120.83626 51.97317,120.7 52.75566,120.7C53.69117,120.7 54.65833,120.7 55.33033,120.7C56.31967,120.7 57.35433,120.7 58.12233,120.7C59.025,120.7 59.925,120.7 60.825,120.7C61.725,120.7 62.625,120.7 63.525,120.7C64.42484,120.7 65.325,120.7 66.12634,120.7C67.025,120.7 67.925,120.7 68.825,120.7C69.725,120.7 70.625,120.7 71.525,120.7C72.425,120.7 73.325,120.7 74.125,120.7C74.961,120.7 75.99117,120.7 76.60767,120.7C77.65833,120.7 78.62133,120.7 79.28333,120.7C80.18633,120.7 81.31834,120.7 82.12634,120.7C82.961,120.7 83.97317,120.7 84.75567,120.7C85.66367,120.7 86.46233,120.7 87.34583,120.7C88.27433,120.7 89.269,120.7 90.121,120.7C90.961,120.7 91.97317,120.7 92.75567,120.7C93.761,120.7 94.625,120.7 95.525,120.7C96.42484,120.7 97.325,120.7 98.08667,120.7C98.97767,120.7 99.84102,120.70514 100.78333,120.7C101.76105,120.69466 102.46925,120.32434 103.325,119.86667C104.11645,119.44338 104.53995,118.7609 105.409,118.7C106.32275,118.63596 107.10364,118.57789 107.925,118.12534C108.69587,117.70061 109.61034,117.7 110.525,117.7C111.425,117.7 112.325,117.7 113.20367,117.7C114.0295,117.7 114.925,117.7 115.825,117.7C116.73566,117.7 117.64633,117.7 118.49966,117.7C119.43967,117.7 120.32518,117.68279 121.125,117.7C121.96158,117.718 122.79522,118.01865 123.67233,118.34734C124.55536,118.67824 125.42518,118.69549 126.21033,118.7C127.13971,118.70533 127.84808,119.19202 128.61034,119.61467C129.41606,120.06142 130.29567,119.7 131.32584,119.7C132.03833,119.7 133.07033,119.7 133.93567,119.7L134.825,119.7L135.71434,119.68933L136.325,119.2" id="svg_30" stroke-width="3" stroke="#000" fill="none"/>
  <path t="97732,97880,97888,97904,97913,97919,97937,97953,97967,97967,97981,97996,98006,98028,98029,98045,98056,98071,98086,98086,98092,98102,98132,98133,98149,98157,98167,98167,98174,98175,98181,98189,98197,98197,98206,98206,98212,98223,98229,98239,98255,98256,98269,98285,98292,98310,98326,98326,98341,98357,98364,98373,98380,98380,98389,98389,98396,98406,98406,98413,98423,98429,98429,98439,98444,98455,98461,98461,98486,98508,98508,98523,98523,98526,98534,98541,98541,98541,98548,98556,98557,98565,98565,98574,98574,98574,98581,98591,98620,98660,98669,98669,98676,98729,98737,98738,98738,98741,98742,98750,98750,98788,98803,98821,98828,98836,98844,98852,98853,98860,98861,98872,98876,98885,98885,98904,98924,98935,98935,98949,98988,99006,99013,99013,99029,99039,99045,99045,99056,99056,99060,99060,99060,99069,99076,99076,99087,99087,99149,99176,99198,99221,99286,99312,99344,99344" d="M190.325,118.7C192.02499,118.7 192.925,118.7 193.825,118.7C194.72501,118.7 195.625,118.7 196.52499,118.7C197.425,118.7 198.32756,118.6361 199.125,118.7C200.16835,118.7836 200.53995,119.6391 201.409,119.7C202.32275,119.76403 203.125,119.7 204.02499,119.7C204.96783,119.7 205.86667,119.7 206.80901,119.7C207.49966,119.7 208.56334,119.7 209.409,119.7C210.325,119.7 211.08217,119.7 211.97316,119.7C212.99167,119.7 213.89566,119.7 214.54633,119.7C215.52467,119.7 216.453,119.7 217.40767,119.7C218.21167,119.7 219.161,119.69826 219.92633,119.7C220.91602,119.70225 221.64766,119.91902 222.40767,120.416C223.02222,120.81786 224.19774,120.39082 224.99167,120.7C225.77428,121.00478 225.72681,122.12675 226.625,122.58566C227.43289,122.99844 228.45007,122.50568 229.34584,122.72083C230.08943,122.89944 230.84213,123.89989 231.78334,123.65833C232.53709,123.46488 233.01653,122.6228 233.84584,122.2C234.63469,121.79781 235.49962,121.70533 236.44099,121.7C237.20898,121.69565 238.15033,121.7 239.15834,121.7C239.91434,121.7 240.825,121.7 241.73567,121.7C242.64633,121.7 243.49966,121.7 244.43834,121.7C245.31033,121.7 246.18695,121.66555 247.15834,121.7C247.96486,121.7286 248.3768,122.55638 249.325,122.7C250.07362,122.81339 250.97766,122.7 251.841,122.7C252.80417,122.7 253.634,122.7 254.65834,122.7C255.32584,122.7 256.26251,122.7 257.24899,122.7C258.17834,122.7 258.84592,122.68568 259.99167,122.7C260.8252,122.71042 261.66031,122.85974 262.57565,123.12534C263.32132,123.34171 264.17892,123.60474 265.15833,123.7C265.97049,123.77898 266.47931,124.61626 267.32501,124.7C268.12109,124.77882 269.03967,124.7 269.88751,124.7C270.86783,124.7 271.58633,124.7 272.37683,124.7C273.4035,124.7 274.30417,124.7 275.32501,124.7C276.10367,124.7 277.08215,124.7 277.93567,124.7C278.82501,124.7 279.72501,124.7 280.625,124.7C281.52634,124.7 282.49167,124.7 283.15033,124.7C284.15833,124.7 285.02051,124.7 285.92499,124.7C286.84583,124.7 287.80768,124.7 288.61517,124.7C289.49301,124.7 290.34583,124.7 291.3035,124.7C292.12366,124.7 293.03967,124.7 293.93567,124.7C294.84583,124.7 295.80768,124.7 296.61517,124.7C297.49301,124.7 298.36667,124.7 299.32501,124.7C300.11432,124.7 301.15833,124.7 301.84583,124.7C302.86768,124.7 303.57565,124.7 304.55701,124.7C305.51517,124.7 306.49167,124.7 307.15033,124.7C308.15833,124.7 309.03833,124.7 309.93567,124.7C310.82501,124.7 311.76071,124.94594 312.62051,124.6955C313.37891,124.47459 313.61032,123.416 314.32501,122.86667L315.03967,122.616" id="svg_31" stroke-width="3" stroke="#000" fill="none"/>
 </g>
</svg>