<svg width="465.5" height="420" xmlns="http://www.w3.org/2000/svg" xmlns:svg="http://www.w3.org/2000/svg" xmlns:xlink="http://www.w3.org/1999/xlink">
 <!-- Created with SVG-edit - http://svg-edit.googlecode.com/ -->
 <g display="inline" class="layer">
  <title>Layer 1</title>
  <path t="22394,22531,22531,22565,22597,22653,22661,22817,22869,22901,22917,22949,22981,22981,23005,23021,23045,23136,23157,23181,23238,23238,23304,23304,23342,23342,23435,23520,23565,23565,23621,23687,23725,23749,23773,23773,23805,23822,23869,23869,23901,23954,24020,24086,24142,24142,24165,24222,24286,24339,24419,24453,24477,24493,24525,24565,24589,24589,24605,24701,24773,24781,24838,24901,24909,24987,24987,25101,25116,25188,25300,25316,25404,25404,25501,25571,25605,25653,25720,25757,25813,26043,26043,26077,26093,26117,26125,26149,26149,26173,26221,26221,26333,26451,26451,26502,26570,26715,26835,26967,26967,27084,27201,27245,27367,27545,27636,27636,27764,27883,27969,28082,28082,28231,28231,28304,28431,28431,28565,28699,28819,28819,28852,28967,29256,29300" d="M168.75,174.5C169.75,174.5 170.55,174.5 171.45,174.5C172.35001,174.5 173.25,174.50226 174.14999,174.5C175.04552,174.49774 175.73199,174.06456 175.75,173.2C175.76874,172.3002 175.75,171.39999 175.75,170.5C175.75,169.7 175.75,168.8 175.75,167.89999C175.75,167 175.74933,166.10001 175.75,165.2C175.75067,164.3 175.98326,163.40831 176.4545,162.74283C176.96284,162.02493 177.28455,161.28018 177.95,160.38533C178.40733,159.77034 179.05444,158.93196 179.85001,158.62151C180.69603,158.29137 181.5885,158.29056 182.45,158.55716C183.31618,158.8252 183.61441,159.80856 183.75133,160.7C183.892,161.6158 184.5005,162.15793 185.0455,162.8C185.68608,163.55469 185.75,164.5 185.75,165.3C185.75,166.2 185.74759,167.11987 186.17534,167.89999C186.62654,168.7229 186.78545,169.638 187.4545,170.14284C188.20546,170.70947 188.74429,171.3181 189.55133,171.49867C190.42831,171.6949 191.35001,171.5 192.25,171.5C193.14999,171.5 194.05,171.5 194.95,171.5C195.85001,171.5 196.75,171.5 197.55,171.5C198.45,171.5 199.35001,171.5 200.25,171.5C201.14999,171.5 202.05,171.5 202.95,171.5C203.85001,171.5 204.75,171.5 205.55,171.5C206.45,171.5 207.35001,171.5 208.25,171.5C209.14999,171.5 210.05458,171.48895 210.91667,171.5C211.72937,171.51042 212.61516,171.87509 213.17534,172.47467C213.70636,173.04305 213.50227,173.93623 213.7545,174.7955C213.98112,175.56758 215.18137,175.76453 215.58333,176.5C215.98538,177.23566 216.29361,178.24121 217.14999,178.464C218.02171,178.69078 219.00729,178.33629 219.85001,178.72133C220.5193,179.02713 221.28816,179.44672 222.23399,179.784C222.9398,180.03569 223.86159,180.45729 224.75,180.5C225.54909,180.53842 226.57343,180.08728 227.39284,180.55716C228.08067,180.95158 228.50026,181.78194 228.91667,182.5C229.33714,183.22505 230.5034,183.43713 230.7455,184.2045C231.0152,185.05939 231.33914,185.81793 231.62849,186.60001C231.94362,187.45174 231.95944,188.3385 231.69284,189.2C231.4248,190.06618 230.39738,190.33093 229.55,190.784C228.89799,191.1326 228.05002,191.49774 227.14999,191.5C226.25,191.50224 225.35001,191.5 224.45,191.5C223.55,191.5 222.64999,191.5 221.75,191.5C220.95,191.5 220.05,191.5 219.14999,191.5L218.25,191.5L217.35001,191.5" id="svg_3" stroke-width="3" stroke="#000" fill="none"/>
  <path t="32444,32783,32852,32950,33067,33067,33323,33433,33519,33571,33668,33931,33980" d="M205.75,179.5C206.75,179.5 207.55133,179.49759 208.50717,179.5C209.39818,179.50226 210.43684,179.42679 210.741,180.2045C211.06718,181.03853 210.714,182.064 210.0455,182.4955L209.14999,182.5L208.25,182.5L207.35001,182.5" id="svg_4" stroke-width="3" stroke="#000" fill="none"/>
  <path t="36150,36342,36358,36396,36444,36476,36492,36569,36585,36585,36628,36703,36703,36785,36869,36900,36980,36980,36980,37083,37153,37153,37196,37196,37228,37284,37336,37336,37352,37403,37454,37454,37492,37532,37601,37601,37669,37669,37716,37764,37869,37937,38033,38076,38108,38108,38169,38235,38284,38308,38340,38441,38441,38502,38540,38556,38650,38650,38781,38868,38870,39001,39131,39131,39131,39188,39268,39350,39419,39467,39516,39585,39649,39649,39684,39732,39772,39844,39844,39884,39916,39916,39964,39972,40020,40069,40069,40069,40136,40179,40180,40204,40211,40285,40348,40348,40388,40396,40476,40567,40567,40635,40635,40686,40732,40780,40852,40904,41033,41049,41049,41135,41180,41212,41285,41285,41337,41403,41403,41452,41552,41604,41652,41734,41734,41788,41836,41938,41972,42146" d="M217.75,193.5C219.55,193.5 220.45,193.5 221.35001,193.5C222.14999,193.5 223.05,193.5 223.95,193.5C224.85001,193.5 225.75,193.5 226.55,193.5C227.45,193.5 228.35001,193.5 229.25,193.5C230.14999,193.5 231.0533,193.4243 231.95134,193.50133C232.92715,193.58502 233.59895,193.89447 234.26601,194.30133C235.15965,194.84639 235.92908,195.48058 236.56467,195.89999C237.43443,196.47394 237.62506,197.33614 238.27083,197.97917C238.91495,198.62057 239.98865,198.60303 240.46466,199.30133C240.97545,200.05066 241.51131,200.55798 242.05,201.20534C242.61421,201.88336 243.46259,202.35071 244.13933,202.936C244.76329,203.47566 244.75493,204.41927 245.186,205.31467C245.49667,205.95996 246.40802,206.53893 246.80267,207.2045C247.26816,207.98952 247.72141,208.79865 247.75,209.7C247.77853,210.59955 247.77536,211.5004 247.75,212.3C247.72141,213.20135 247.06448,213.92256 246.80716,214.8C246.55373,215.66417 246.4189,216.31427 245.64999,216.72133C244.89246,217.12238 244.02194,217.30934 243.14999,217.536C242.28435,217.76102 241.8327,218.60356 241.14999,219.064C240.32826,219.61818 239.35001,219.5 238.45,219.5C237.55,219.5 236.64999,219.5 235.75,219.5C234.95,219.5 234.05,219.5 233.14999,219.5C232.25,219.5 231.35001,219.5 230.45,219.5C229.55,219.5 228.64873,219.54779 227.75,219.5C226.94659,219.45728 226.32744,218.81445 225.45,218.55716C224.58455,218.30339 223.62398,218.30914 223.05,217.7955C222.31468,217.13747 221.75096,216.49904 221.14999,215.89999C220.45113,215.20337 219.60066,214.91446 218.91667,214.33333C218.24977,213.76672 217.62398,213.30914 217.05,212.7955C216.31468,212.13747 215.82616,211.40601 215.14999,210.936C214.34419,210.3759 213.82889,209.82565 213.314,209.10001C212.83748,208.42842 212.05162,208.09448 211.27083,207.5C210.61899,207.00369 210.31117,206.10268 209.64999,205.39983C209.14784,204.86601 208.60291,203.98199 208.14999,203.36133C207.61063,202.62218 206.84416,202.11313 206.32466,201.52533C205.80956,200.9425 205.90117,200.01955 205.39284,199.2C204.89189,198.39235 204.05823,198.08537 203.786,197.10001C203.57274,196.32811 203.55183,195.33942 203.91667,194.5C204.2142,193.81544 205.03926,193.18909 205.75,192.5C206.34122,191.92679 207.14946,191.51801 208.05,191.5C208.94981,191.48201 209.85001,191.5 210.75,191.5C211.55,191.5 212.45,191.5 213.35001,191.5L214.25,191.5L215.14999,191.5L216.05,191.5" id="svg_5" stroke-width="3" stroke="#000" fill="none"/>
  <path t="45089,45386,45467,45467,45508,45540,45548,45589,45589,45628,45645,45660,45692,45732,45756,45803,45818,45818,45836,45902,45902,45940,45948,45948,45956,45980,46004,46004,46257,46364,46364,46380,47263,47300,47477,47508,47540,47540,47633,47649,47676,47732,47764,47788,47820,47868,47868,47916,47956,48058,48074,48108,48148,48148,48188,48188,48236,48276,48324,48348,48348,48364,48364,48380,48404,48404,48444,48476,48536,48552,48612,48636,48702,48801,48801,48950,49012,49044,49102,49185,49345,49345,49483,49770,49770,49884,49936,50002,50017,50044,50052,50306,50348,50418,50418,50690,50690,50705,50740,50748,50796,50796,50868,51013,51029,51092,51117,51117,51125,51156,51188,51205,51236,51286,51383,51428,51428,51444,51460,51492,51524,51548,51556,51556,51572,51612,51660,51660,51660,51668,51692,51708,51708,51724,51740,51748,51764,51780,51850,51850,51866,51917,52081,52081,52355,52480,52480,52552,52552,53324,53356,53496,53496,53512,53540,53580,53596,53596,53652,53749,53749,53820,53908,53948,53988,54066,54124,55340,55479,55479,55630,55718,55769,55769,55820,55908,55940,55988,56051,56092,56140,56140,56172,56204,56252,56252,56252,56268,56316,56332,56364,56364,56388,56396,56420,56444,56460,56460,56476,56500,56508,56540,56602,56652,56652,56704,56756,56834,56999,57036,57052,57052,57102,57117,57148,57164,57196,57205,57220,57244,57244,57252,57269,57285,57308,57332,57356,57404,57404,57436,57436,57444,57460,57476,57500,57568,57604,57604,57628,57652,57702,57717,57717,57748,57796,57805,57836,57836,57860,57900,57940,57964,57972,57972,58004,58020,58044,58076,58084,58116,58116,58148,58218,58331,58331,58347,58389,58405,58461,58493,58517,58517,58525,58557,58557,58589,58605,58613,58653,58734,58734,58982,59161,59161,59266,59324,59479,59479,59567,59762,59851,59867,59885,60000,60271,60382,60420,60468,60581,60612,60636,60747,60780,60867,60908,60908,60916,60948,60964,61012,61012,61020,61165,61267,61300,61352,61352,61367,61428,61460,61460,61582,61598,61700,61768,61804,61868,61935,61985,62036,62118,62232,62261,62350,62402,62453,62738,62753,62864,62864,62885,62972,62988,63036,63085,63138,63138,63234,63301,63356,63356,63418,63460,63629,63629,63676,63716,63716,63800,63844,63868,63876,63901,63999,64505,64646,64700,64724,64748,64756,64764,64764,64796,64844,64892,64932,64980,65028,65028,65044,65044,65084,65124,65172,65180,65331,65388,65420,65468,65501,65501,65517,65517,65662,65708,65708,65740,65764,65788,65812,65836,65868,65932,65932,65964,66004,66396" d="M204.75,196.5C204.91667,197.33333 205.89429,197.53075 206.39284,198.2045C206.90659,198.89877 206.65454,199.94453 207.034,200.7C207.46957,201.5672 207.74933,202.3 207.75,203.2C207.75067,204.10001 207.75,205 207.75,205.89999C207.75,206.8 207.75,207.7 207.75,208.60001C207.75,209.5 208.03354,210.38467 207.63567,211.2C207.26492,211.95972 206.3896,212.18739 205.50717,212.7955C204.74243,213.32251 203.91577,213.38026 203.27083,214.02083C202.62697,214.66032 202.1676,215.3553 201.39816,215.55267C200.48611,215.78664 199.68231,216.44296 199.27083,217C198.66594,217.81886 198.17267,218.44119 197.72467,219.11067C197.23254,219.8461 196.79272,220.69659 196.75,221.5C196.70752,222.29887 196.75,223.2 196.75,224.10001C196.75,225 196.75,225.89999 196.75,226.8C196.75,227.7 196.75,228.60001 196.75,229.5C196.75,230.3 196.75,231.2 196.75,232.10001C196.75,233 196.59883,233.98045 197.10716,234.8C197.60811,235.60765 198.27644,235.97456 198.94867,236.7C199.48656,237.28046 199.63766,238.32695 200.27083,238.97917C200.83409,239.55939 201.94528,239.60617 202.56467,239.936C203.46652,240.41626 203.70668,241.26166 204.27083,242C204.8624,242.77425 205.56535,243.1777 206.35001,243.52533C207.16777,243.88762 207.96671,244.30759 208.84984,244.50017C209.69411,244.68427 210.1152,245.37131 210.95,245.50133C211.86546,245.64392 212.51686,246.34586 213.35001,246.48933C214.237,246.64209 215.11249,246.54248 215.77533,247.07466C216.37386,247.55521 217.31564,247.65421 218.04016,248.2045C218.79742,248.77966 219.01785,249.7155 219.55133,250.3C220.20821,251.01971 220.72141,251.79848 220.75,252.60001C220.78209,253.49942 220.53477,254.4391 219.64999,254.5C218.75212,254.5618 217.64084,254.71365 217.91667,255.5C218.17101,256.22507 219.43071,256.47964 219.85266,257.064C220.11292,257.42444 218.98811,257.46387 218.25,258.02084C217.58443,258.52307 217.03777,259.1152 216.14999,259.52533C215.33803,259.90042 214.55302,260.45728 213.64999,260.5C212.75101,260.54251 211.95,260.5 211.05,260.5C210.14999,260.5 209.25,260.5 208.35001,260.5C207.45,260.5 206.55,260.5 205.64999,260.5C204.75,260.5 203.94981,260.51801 203.05,260.5C202.14946,260.48199 201.3748,260.03387 200.65016,259.62134C199.85721,259.16989 199.25604,258.7865 198.45534,258.44733C197.69173,258.12387 197.44485,257.12915 196.58333,256.5C195.961,256.04553 195.13313,255.82022 194.39667,255.10001C193.77097,254.48811 193.38811,253.76218 192.60066,253.47467C191.76944,253.17119 191.3427,252.40762 190.69733,251.85266C190.11534,251.3522 189.21899,251.00967 188.55133,250.3C188.00908,249.72362 187.83401,248.83363 187.314,248.10001C186.75603,247.31287 186.05,246.8 185.45,246.2C184.75,245.5 184.17174,244.87738 183.55,244.30133C182.9695,243.76349 182.26216,243.21304 181.5285,242.62134C180.88239,242.10023 179.95917,242.00761 179.27083,241.5C178.57478,240.98671 177.98695,240.54559 177.10184,240.4955C176.31644,240.45105 175.5957,239.58374 174.75,239.5C173.95389,239.42117 173.05,239.5 172.14999,239.5C171.25,239.5 170.35001,239.5 169.45,239.5C168.55,239.5 167.64999,239.5 166.75,239.5C165.95,239.5 164.98802,239.46376 164.25,240.02083C163.58449,240.52316 163.31224,241.32404 162.72467,242.064C162.18706,242.74104 161.95975,243.33989 161.69284,244.2C161.42412,245.06596 160.37715,245.29538 159.55,245.78534C158.86913,246.18864 158.41051,246.99539 157.55,247.416C156.69615,247.83336 156.09592,248.30988 155.14999,248.48933C154.26572,248.6571 153.30547,248.40454 152.55,248.784C151.6828,249.21957 151.04993,249.48734 150.14999,249.5C149.24985,249.51266 148.43207,250.08914 147.64999,250.37849C146.79826,250.69362 145.91556,250.30405 145.05,250.55716C144.17236,250.8138 143.45135,251.47141 142.55,251.5C141.65045,251.52853 140.75,251.5 139.95,251.5C139.05,251.5 138.13039,251.49805 137.35001,251.92534C136.52744,252.37572 135.64999,252.5 134.75,252.5C133.95,252.5 133.05,252.5 132.14999,252.5C131.25,252.5 130.35001,252.5 129.45,252.5C128.55,252.5 127.65,252.5 126.75,252.5C125.95,252.5 125.05,252.5 124.15,252.5C123.25,252.5 122.35,252.5 121.45,252.5C120.55,252.5 119.64983,252.5 118.86467,252.5C117.92467,252.5 117.234,252.5 116.16067,252.5C115.25,252.5 114.35,252.5 113.45,252.5C112.55,252.5 111.61596,252.64651 110.95,252.41467C110.06435,252.10635 109.30681,251.61505 108.45,251.14734C107.70467,250.74048 106.91546,250.69661 106.05,250.44284C105.17255,250.18555 104.37399,249.71552 103.65017,249.2785C102.92668,248.84171 102.70718,247.84106 102.0455,247.44733C101.26121,246.98064 100.35833,246.73486 99.55133,246.21466C98.93799,245.81929 98.70142,244.67044 97.94867,244.50133C97.07,244.30392 96.2869,243.92645 95.45,243.55267C94.67798,243.20787 94.30513,242.50687 93.64017,241.85716C93.05257,241.28305 91.92294,241.32147 91.16067,240.92534C90.367,240.51289 89.71754,240.03345 89.17533,239.47467C88.60391,238.88579 87.84287,238.68517 86.91666,238.33333C86.09707,238.02199 85.65237,237.1447 84.75,236.66667C84.10178,236.32329 83.30431,235.95793 82.80267,235.2045C82.34374,234.51524 81.37449,234.67192 80.55,234.21466C79.85795,233.83086 79.35001,233.10001 78.65,232.39999C78.05001,231.8 77.24049,231.31854 76.8715,230.39999C76.53298,229.55728 76.75,228.7 76.75,227.8C76.75,226.89999 77.04763,225.94492 76.73933,225.11067C76.4635,224.36427 75.35694,224.20999 74.87133,223.40016C74.43391,222.67068 74.0024,223.12772 73.22916,223.47917C72.42857,223.84306 71.39983,223.42696 70.77533,223.92534C70.16737,224.41052 69.3029,224.40599 68.45,224.85266C67.69777,225.24661 66.91546,225.30339 66.05,225.55716C65.17255,225.81445 64.40293,226.33641 63.65,226.72133C62.8868,227.1115 62.15,227.48933 61.25,227.5C60.35,227.51067 59.53119,228.00049 58.75,228.33333C57.99846,228.65353 57.26151,228.78795 56.5285,229.37866C55.88218,229.89952 54.95917,229.99239 54.27083,230.5C53.57479,231.01329 53.18815,231.70641 52.52867,232.37866C51.92239,232.99669 51.90934,233.79788 51.39734,234.44733C50.91279,235.06195 50.75,235.89999 50.75,236.8C50.75,237.7 51.00627,238.72491 50.52867,239.37866C50.01796,240.07773 50.07593,240.98047 49.39283,241.44284C48.61038,241.97247 47.7032,241.80685 46.95,242.216C46.15248,242.64922 45.65132,243.18869 44.94867,243.584C44.13173,244.04359 43.2764,244.33432 42.45,244.85716C41.88482,245.21474 41.36478,246.06393 40.79817,246.7955C40.26271,247.48685 39.32279,247.41449 38.73533,248.11067C38.15831,248.79448 37.65113,249.60114 37.05,250.2C36.45112,250.79663 35.61676,251.28804 34.95,251.584C34.09222,251.96475 33.35052,252.48134 32.45,252.5C31.55153,252.51863 31.01288,253.11172 30.314,253.464C29.45258,253.89821 28.18109,253.75464 27.786,253.064C27.35661,252.31339 27.75,251.3 27.75,250.39999C27.75,249.5 27.75,248.7 27.75,247.8C27.75,246.89999 27.60703,245.98685 27.76067,245.10001C27.90484,244.26782 28.7554,243.68452 29.50717,243.44733C30.40512,243.164 30.9789,242.73633 31.72917,242.02083C32.31666,241.46056 33.25,241.50226 34.15,241.5C35.04551,241.49774 35.73199,241.06456 35.75,240.2C35.76876,239.29886 35.81166,238.3295 35.72917,237.5C35.64545,236.65816 35.10941,235.93813 34.55133,235.3C33.87908,234.53131 33.75225,233.80002 33.75,232.89999C33.74775,232 33.75,231.10001 33.75,230.2C33.75,229.3 33.75,228.39999 33.75,227.5C33.75,226.7 33.75,225.8 33.75,224.89999L33.75,224" id="svg_6" stroke-width="3" stroke="#000" fill="none"/>
  <path t="69201,69266,69282,69282,69300,69300,69308,69308,69308,69316,69316,69316,69324,69324,69332,69332,69332,69340,69340,69340,69348,69348,69364,69364,69465,69481,69481,69481,69500,69500,69508,69508,69508,69516,69516,69516,69524,69524,69524,69524,69532,69532,69532,69532,69540,69540,69540,69540,69548,69548,69548,69556,69564,69564,69572,69572,69572,69590,69590,69590,69596,69596,69606,69636,69676,69684,69684,69692,69692,69692,69692,69692,69700,69700,69700,69700,69701,69708,69708,69708,69708,69708,69708,69716,69716,69716,69716,69716,69724,69724,69724,69724,69724,69732,69732,69732,69740,69740,69740,69748,69748,69748,69756,69756,69756,69764,69764,69780,69780,69851,69867,69867,69884,69884,69884,69892,69892,69900,69900,69900,69908,69908,69916,69916,69924,69924,69924,69940,69940,69948,69948,69948,69956,69964,69980,70028,70084,70084,70132,70132,70148,70149,70156,70157,70157,70164,70164,70173,70173,70189,70196,70204,70228,70228,70236,70236,70244,70244,70252,70252,70260,70268,70350,70350,70350,70366,70366,70366,70389,70389,70389,70396,70397,70397,70397,70405,70405,70405,70405,70412,70413,70413,70420,70421,70421,70421,70429,70429,70429,70429,70429,70436,70436,70436,70445,70445,70445,70452,70534,70534,70534,70550,70550,70550,70550,70573,70573,70573,70574,70574,70580,70580,70580,70580,70588,70588,70588,70589,70589,70589,70589,70596,70596,70596,70596,70596,70596,70604,70604,70604,70604,70604,70612,70612,70612,70612,70612,70620,70620,70620,70628,70628,70628,70717,70717,70732,70748,70748,70756,70764,70772,70780,70780,70796,70812,70820" d="M31.75,251.5C31.75,249.8 31.75,248.89999 31.75,247.97917C31.75,247.01334 31.75,246.25333 31.75,245.33333C31.75,244.54283 31.75,243.68933 31.75,242.5C31.75,241.90266 31.74056,241.04164 31.75,239.83333C31.75533,239.1506 31.91312,238.16568 32.10266,237.49017C32.32059,236.7135 32.59286,235.66808 32.72467,234.73599C32.84253,233.9025 33.06955,232.88618 33.36067,232.336C33.88347,231.34798 34.13277,230.62083 34.81133,229.936C35.43081,229.31081 36.53709,229.70784 36.83267,230.38667C37.23856,231.31886 37.48141,231.92667 38.07133,232.70016C38.55142,233.32965 39.16506,233.91609 39.7285,234.92149C40.16904,235.7076 40.34453,236.30888 40.75,237.5C40.95395,238.09912 41.25168,239.0079 41.50717,239.60001C42.0325,240.8175 42.40392,241.39928 42.75,242C43.26787,242.89891 43.74281,243.7939 43.99283,244.39999C44.3606,245.29152 44.55314,245.89851 44.94867,247.09734C45.23238,247.95728 45.54746,248.7133 45.69283,249.68567C45.82834,250.59204 45.77752,251.3219 46.03533,252.27066C46.24673,253.04863 46.55272,253.90221 46.84983,254.79967C47.14069,255.67822 47.45305,256.47156 47.6285,257.35699C47.81277,258.2869 47.75,259.20001 47.75,260.10001C47.75,260.95868 47.75,260.14532 47.75,259.32483C47.75,258.33334 47.75,257.61334 47.75,256.85333C47.75,256.05334 47.75299,255.21333 47.74983,253.87833C47.74761,252.93834 47.74721,252.45311 47.714,251.45334C47.69689,250.93819 47.58933,249.3327 47.5285,248.77901C47.405,247.65492 47.32358,247.09442 47.13933,245.99733C47.05013,245.4662 46.75982,243.99762 46.55,243.15334C46.35891,242.3844 46.14312,241.66187 45.95,240.93333C45.63907,239.76039 45.45162,238.89978 45.36067,238.46001C45.18029,237.58783 45.0075,236.75716 44.8715,235.66434C44.76391,234.79979 44.75067,233.81866 44.75,232.81467C44.74944,231.97917 44.75,231.39549 44.75,230.20016C44.75,229.31067 44.75,228.45717 44.75,227.42149C44.75,226.73599 44.75,225.90134 44.75,224.89999C44.75,224.10001 44.75,223.10133 44.75,222.336C44.75,221.26616 44.79217,221.21753 45.27083,222.04167C45.73559,222.84187 46.03965,223.5096 46.35,224.24933C46.73716,225.17216 47.28148,225.95735 47.75,226.66667C48.17975,227.31731 48.56997,228.09167 49.0455,229.10001C49.32589,229.69453 49.57827,230.71065 49.77083,231.5C50.01913,232.51784 50.47892,233.0775 51.04467,233.84283C51.60455,234.60025 51.77638,235.31546 52.034,236.26801C52.23325,237.00473 52.56858,237.71373 52.714,238.828C52.83987,239.7925 52.75,240.7 52.75,241.60001C52.75,242.5 53.40424,243.84264 52.58333,244.16667C51.89894,244.43681 51.266,243.01601 50.75,242.5C49.91667,241.66667 49.37534,241.12534 48.866,240.616C48.09734,239.84734 47.56991,239.33072 46.91667,238.66667C46.28639,238.02597 45.86731,237.15405 45.32467,236.52533C44.80666,235.92516 44.366,235.21507 43.94867,234.61467C43.30744,233.69217 43.05774,233.09157 42.55,232.10133C42.15599,231.3329 41.5931,230.56093 41.186,229.91066C40.70379,229.14041 40.47482,228.29387 39.91667,227.5C39.47165,226.86703 38.90585,227.36197 38.4545,228.15266C38.06947,228.82718 37.84687,229.89627 37.52833,230.82184C37.26577,231.58475 36.8647,232.27269 36.4285,233.14284C36.09388,233.81035 35.73646,234.5247 35.3455,235.25183C34.76084,236.33923 34.34718,237.0101 33.97133,237.65334C33.45678,238.53397 33.0467,239.32321 32.80067,240.28534C32.61707,241.00333 32.32197,242.14912 32.03567,242.80983C31.72445,243.52803 31.35677,244.2606 30.75,245.33333C30.36135,246.02043 29.95515,246.66074 29.586,247.28934C29.22999,247.89555 28.63523,249.0992 28.37533,249.68933C27.99911,250.54361 27.44209,251.58806 27.10183,252.03833C26.48341,252.85669 26.04959,253.6758 25.58333,254.5C25.22991,255.12476 24.04741,255.60442 23.77083,254.9375C23.39508,254.03143 23.75,253.21733 23.75,252.33383C23.75,251.33333 23.75,250.61467 23.75,249.864C23.75,249.08934 23.75,248.29866 23.75,247.09967C23.75,246.291 23.75,245.45833 23.75,244.58566C23.75,243.16667 23.75,242.657 23.75,241.58566C23.75,241.028 23.75,239.87866 23.75,239.291C23.75,238.69733 23.74831,236.90031 23.75267,236.30267C23.75699,235.70898 23.78137,234.54103 23.822,233.972C23.90074,232.86906 24.053,231.82533 24.32067,230.87067C24.44982,230.41002 24.77542,229.53432 25.159,228.709C25.72619,227.48865 26.14867,226.70267 26.3455,226.30901C26.72917,225.54167 27.09283,224.81433 27.7285,223.543C27.99284,223.01433 28.4455,222.10899 28.85,221.3C29.25,220.5 29.50705,219.87701 30.05,218.9135C30.42134,218.25452 31.44526,218.12337 31.66467,218.98399C31.87888,219.82423 31.75,220.74283 31.75,221.7C31.75,222.60001 31.75,223.5 31.75,224.3L31.75,225.2L31.75,226.10001L31.75,227" id="svg_7" stroke-width="20" stroke="#fff" fill="none"/>
  <path t="74780,75347,75362,75467,75493,75533,75549,75589,75652,75652,75652,75717,75717,75786,75801,75801,75820,75868,75883,75900,75932,76063,76079,76079,76167,76234,76299,76352,76448,76448,76533,76581,76589,76621,76669,76669,76724,76740,76756,76833,76931,76931,76931,76981,77066,77134,77149,77233,77269,78158,78234,78300,78300,78431,78517,78755,78771,78771,78804,78804,78812,79126,79188,79220,79244,79284,79308,79332,79332,79348,79372,79428,79500,79500,79540,79588,79588,79612,79684,79699,79716,79741,79773,79804,79804,79820,79852,79876,79908,79908,79924,79972,79972,79996,80051,80066,80149,80149,80188,80266,80266,80281,80300,80324,80324,80348,81112,81164,81188,81281,81296,81368,81412,81412,81460,81484,81516,81556,81564,81644,81668,81676,81676,81700,81751,81788,81812,81852,81884,81924,81948,81948,81964,82004,82028,82060,82068,82124,82132,82156,82156,82172,82180,82250,82250,82300,82367,82428,82444,82517,82517,82556,82572,82604,82651,82721,82721,82764,82764,82850,82868,82892,82956,82964,82996,83097,83169,83169,83184,83234,83268,83284,83300,83324,83380,83388,83388,83412,83444,83452,83468,83492,83524,83524,83532,83556,83572,83580,83612,83636,83636,83644,83644,83676,83701,83701,83708,83708,83732,83764,83812,83844,83844,83868,83868,83884,83900,83916,83916,83924,83932,83932,83972,83988,83996,84004,84028,84044,84052,84084,84084,84108,84140,84164,84180,84212,84220,84220,84236,84244,84244,84268,84284,84300,84324,84348,84364,84388,84396,84396,84428,84460,84476,84508,84556,84572,84572,84628,84660,84684,84750,84788,84788,84796,84860,84884,84916,84932,84956,84980,84988,84988,85012,85060,85092,85100,85140,85216,85216,85268,85269,85364,85466,85500,85567,85665,85665,85700,85751,85804,85811,85828,85860,85933,86050,86065,86117,86164,86164,86232,86232,86302,86302,86382,86420,86516,86567,86634,86762,86834,86884,87004,87044,87045,87068,87180,87673,87716,87724" d="M57.75,228.5C56.94867,228.5 56.05,228.5 55.15,228.5C54.25,228.5 53.35,228.49934 52.45,228.5C51.54867,228.50067 50.58016,228.65874 49.92467,228.92534C49.23055,229.20764 48.14562,229.35374 47.35,229.51067C46.40541,229.69696 45.75784,230.37729 44.95,230.49867C44.04144,230.63518 43.53477,231.4391 42.65,231.5C41.75212,231.5618 41.13715,231.84279 40.5285,232.37866C39.82082,233.00172 38.9425,233.15718 38.76067,234.10001C38.59022,234.98378 38.86649,235.90816 38.7455,236.8C38.63407,237.62135 37.89818,238.26862 37.7545,239.2C37.61728,240.08949 37.66052,240.91737 37.17533,241.52533C36.67696,242.14983 36.89597,243.22275 36.314,243.88933C35.70443,244.58751 34.84947,244.86116 34.74866,245.70134C34.632,246.67375 34.28677,247.31058 34.034,248.01601C33.66886,249.03502 32.91087,249.3808 32.27083,250.02083C31.63079,250.66086 31.34144,251.49364 30.75,252C30.15557,252.50893 29.19225,252.80476 28.36067,252.48933C27.63151,252.21275 27.75225,251 27.75,250.10001C27.74775,249.19998 27.63859,248.26166 26.98833,247.85716C26.19003,247.36058 25.234,247.50067 24.27083,247.5C23.35,247.49936 22.18109,247.75464 21.786,247.064C21.35661,246.31339 21.75,245.3 21.75,244.39999C21.75,243.5 21.68199,242.73988 21.7545,241.85184C21.83843,240.82391 22.47947,240.28384 22.91667,239.5C23.28026,238.84813 24.0426,238.19252 24.75,237.5C25.24488,237.01553 26.26898,236.65373 26.72467,236.064C27.30128,235.31775 27.33555,234.35066 27.91667,233.66667C28.48327,232.99976 29.07612,232.46333 29.466,231.7C29.85054,230.9471 29.75,230 29.75,229.08934C29.75,228.17867 29.75,227.32533 29.75,226.38533C29.75,225.5 29.87429,224.72256 30.32467,223.89999C30.75195,223.11961 30.61346,222.14336 31.034,221.3C31.36393,220.63835 31.73232,219.84967 32.034,219.01601C32.35273,218.13522 32.7214,217.25861 32.75,216.39999C32.77996,215.5005 32.75,214.7 32.75,213.8C32.75,212.89999 32.75,212 32.75,211.10001C32.75,210.2 32.75,209.3 32.75,208.39999C32.75,207.5 32.75,206.7 32.75,205.8C32.75,204.89999 32.75,204 32.75,203.10001C32.75,202.2 32.75,201.3 32.75,200.39999C32.75,199.5 32.75,198.7 32.75,197.8C32.75,196.89999 32.75,196 32.75,195.10001C32.75,194.2 32.75,193.3 32.75,192.39999C32.75,191.5 32.73201,190.69981 32.75,189.8C32.768,188.89946 33.36803,188.18964 33.66467,187.3C33.95058,186.44252 34.1952,185.76129 34.69733,185.14284C35.26941,184.43825 35.39015,183.66785 35.80267,182.8C36.20059,181.96284 36.85231,181.4023 37.45,180.8C38.14202,180.10266 38.28432,179.10042 39.03533,178.58533C39.79301,178.06566 40.70828,178.26605 41.45,177.85266C42.21368,177.42703 43.0089,177.07877 43.84983,176.62134C44.59735,176.21472 44.86264,175.26363 45.51167,174.85716C46.30607,174.35965 47.06931,174.27574 47.83267,173.784C48.48188,173.36578 49.45,173.44284 50.25,173C51.05,172.55716 51.95,172.5 52.85,172.5C53.75,172.5 54.55,172.5 55.45,172.5C56.35,172.5 57.25,172.5 58.15,172.5C59.05,172.5 59.95,172.5 60.85,172.5C61.75,172.5 62.55,172.5 63.45,172.5C64.35,172.5 65.25,172.49776 66.15,172.5C67.05001,172.50226 67.88835,172.88608 68.55,173.216C69.39336,173.63655 70.36983,173.33179 71.25,173.52083C72.09442,173.70219 72.37733,174.8372 73.08334,175.33333C73.65836,175.73741 74.76909,175.31665 75.54867,175.58533C76.48322,175.90741 77.04944,176.642 77.75,176.97917C78.70229,177.4375 79.58325,177.30305 80.45,177.55716C81.32745,177.81441 82.06989,178.39388 82.91666,178.66667C83.59021,178.88367 84.57287,179.39766 85.33933,179.48933C86.24409,179.59755 86.95632,180.03526 87.85017,180.37849C88.59168,180.66324 89.57561,180.47603 90.58334,180.5C91.33997,180.51801 92.06033,181.11813 92.95,181.41467C93.80765,181.70055 94.8989,181.16292 95.58334,181.66667C96.23632,182.14726 96.85,182.5 97.75,182.5C98.55,182.5 99.45006,182.48959 100.35,182.5C101.25018,182.51042 101.9533,183.04318 102.85,183.37849C103.70064,183.69658 104.55,183.49814 105.386,183.5C106.39817,183.50226 107.06982,183.72516 107.83266,184.216C108.48209,184.63388 109.45,184.55716 110.25,185C111.05,185.44284 111.95,185.5 112.85,185.5C113.75,185.5 114.55,185.5 115.45,185.5C116.35,185.5 117.26299,185.35791 118.15,185.51067C118.98314,185.65414 119.73739,186.41496 120.55,186.49867C121.44526,186.59088 122.37513,186.48811 123.15,186.92534C123.87624,187.33513 124.75,187.5 125.55,187.5C126.45,187.5 127.35,187.5 128.25,187.5C129.14999,187.5 130.05,187.5 130.95,187.5C131.85001,187.5 132.75,187.5 133.55,187.5C134.45,187.5 135.35001,187.5 136.25,187.5C137.14999,187.5 138.05,187.5 138.95,187.5C139.85001,187.5 140.75,187.5 141.55,187.5C142.45,187.5 143.35002,187.50533 144.25,187.5C145.15004,187.49466 146.05966,187.15349 146.55,186.69867C147.2644,186.03603 148.08138,185.59996 148.72467,185.07466C149.4019,184.52164 150.12534,184.03412 150.84984,183.62134C151.64162,183.17023 152.15062,182.78442 153.0455,182.4955C153.81982,182.2455 154.18538,181.38873 154.93533,180.89999C155.72086,180.38808 156.342,179.90268 157.05,179.2C157.5519,178.70189 158.2697,178.0528 159.0455,177.55267C159.74355,177.10268 160.36063,176.50534 161.25,176.5C162.14998,176.4946 163.05,176.5 163.95,176.5C164.85001,176.5 165.75,176.5 166.55,176.5C167.45,176.5 168.35001,176.464 169.12866,176.07466L169.12866,175.51067L168.25,175.5" id="svg_8" stroke-width="3" stroke="#000" fill="none"/>
  <path t="91237,91472,91472,91487,91487,91517,91533,91541,91541,91548,91565,91581,91613,91613,91645,91668,91669,91677,91685,91692,91709,91716,91733,91749,91765,91765,91781,91781,91804,91821,91837,91844,91861,91861,91861,91869,91869,91876,91893,91909,91916,91940,91941,91965" d="M157.75,196.5C157.75,197.5 157.71046,198.25824 157.7545,199.15266C157.79713,200.01874 158.26288,200.81845 158.666,201.7C159.06125,202.5643 159.18253,203.33054 159.77533,204.064C160.30128,204.71472 161.36858,204.9848 161.62849,205.82133C161.88382,206.64308 161.75,207.61467 161.75,208.5C161.75,209.3 161.75,210.2 161.75,211.10001C161.75,212 161.75,212.89999 161.75,213.8C161.75,214.7 161.75,215.60001 161.75,216.5C161.75,217.25717 161.75,218.15266 161.75,219.01601C161.75,219.97917 161.75,220.89999 161.75,221.8C161.75,222.70134 161.75,223.66667 161.75,224.336C161.75,225.10133 161.75,226.28934 161.75,227.01466C161.75,227.97917 161.74933,228.89999 161.75,229.8C161.75067,230.7 161.97133,231.60001 162.39734,232.2L162.77533,233.064" id="svg_9" stroke-width="3" stroke="#000" fill="none"/>
  <path t="95208,95328,95348,95364,95364,95372,95388,95404,95404,95412,95420,95428,95428,95436,95444,95444,95460,95460,95476,95476,95484,95485,95500,95500,95516,95524,95540,95548,95564,95580,95580,95588,95596,95604,95612,95612,95628,95636,95652,95732,95748,95756,95764,95772,95772" d="M84.75,200.5C85.4545,201.14734 86.44205,201.50766 86.72467,202.36133C86.93369,202.99268 87.32088,203.94435 87.69733,204.8C88.03788,205.57402 88.59597,206.26685 88.73933,207.10001C88.8955,208.00755 88.67989,208.99132 88.786,209.67467C88.93517,210.63531 89.66204,211.48734 89.7455,212.25717C89.84251,213.15193 89.72816,213.90477 89.75134,214.89867C89.76919,215.66458 90.08484,216.57642 90.62867,217.37883C91.07787,218.04163 91.51492,218.82112 91.69283,219.74283C91.87434,220.68311 92.24054,221.31046 92.72467,221.936C93.30186,222.68181 93.66007,223.48755 93.7455,224.25717C93.8438,225.14278 94.13902,225.96167 94.58334,226.66667C95.03645,227.38564 94.8743,228.27744 95.32467,229.10001C95.75195,229.88039 95.55511,230.82169 95.75134,231.69867C95.93192,232.50571 96.72467,232.936 97.10717,233.7955L97.75,234.33333L98.50716,234.55267" id="svg_10" stroke-width="3" stroke="#000" fill="none"/>
  <path t="100303,100522,100538,100556,100556,100572,100583,100612" d="M227.75,183.5C226.83533,183.78534 226.75,184.60001 226.75,185.5C226.75,186.3 226.75,187.2 226.75,188.14284L226.75,189.02083" id="svg_11" stroke-width="3" stroke="#000" fill="none"/>
  <path t="105446,105640,105640,105640,105655,105655,105716,105749,105957,105957,105957,105972" d="M27.75,176.5C28.75,177.5 29.6002,177.51346 30.25,178.02083C31.01802,178.62051 31.68085,178.98901 32.39283,179.55267C33.11043,180.12077 33.61133,180.89999 34.26733,181.3L35.114,181.88933L35.84983,182.37866" id="svg_12" stroke-width="3" stroke="#000" fill="none"/>
  <path t="145945,146029,146060,146068,146076,146076,146084,146092,146092,146100,146100,146108,146108,146116,146116,146116,146116,146124,146124,146132,146132,146140,146156,146156,146172,146188,146188,146220,146236,146252,146268,146268,146275,146276,146284,146291,146300,146300,146300,146316,146316,146316,146316,146323,146324,146332,146332,146339,146340,146340,146348,146348,146356,146356,146364,146364,146364,146372,146372,146372,146380,146388,146388,146396,146396,146412,146412,146428,146436,146452,146459,146460,146468,146475,146476,146484,146491,146492,146492,146500,146500,146507,146508,146508,146516,146523,146524,146532,146532,146540,146540,146548,146548,146556,146556,146572,146580,146580,146588,146588,146604,146612,146620,146636,146643,146660,146660,146668,146668,146675,146692,146708,146716,146723,146732,146732,146740,146740,146748,146748,146756,146764,146764,146772,146779,146780,146787,146796,146796,146804,146804,146804,146811,146812,146828,146828,146828,146836,146844,146844,146860,146860,146868,146875,146884,146884,146891,146900,146900,146907,146908,146916,146916,146916,146916,146923,146924,146924,146931,146932,146932,146932,146932,146940,146940,146940,146940,146947,146948,146948,146948,146948,146948,146956,146956,146956,146956,146964,146964,146964,146964,146972,146972,146972,146980,146980,146980,146988,146988,146988,146996,146996,146996,147004,147004,147004,147012,147012,147012,147020,147020,147027,147028,147028,147028,147036,147036,147036,147036,147043,147044,147044,147044,147044,147052,147052,147052,147052,147052,147052,147059,147060,147060,147060,147060,147068,147068,147068,147068,147075,147076,147076,147076,147076,147084,147084,147084,147092,147092,147092,147092,147100,147100,147100,147107,147116,147123,147124,147131,147140,147140,147147,147148,147148,147156,147156,147164,147164,147165,147165,147172,147172,147172,147180,147180,147180,147196,147196,147204,147220,147227,147228" d="M9.75,138.5C10.36067,136.936 11.22795,136.67249 12.05,136.14284C12.84892,135.6281 13.19291,134.90489 14.0545,134.55267C14.87798,134.21603 15.77535,134.02077 16.58333,133.5C17.27342,133.05522 18.0776,132.6485 18.79167,132.47917C19.92776,132.20976 20.44851,131.95755 21.22917,131.47917C21.99715,131.00856 22.70975,130.27257 23.49817,129.86166C24.34578,129.41991 25.1371,129.54688 25.99283,129.14734C26.90409,128.72188 27.51571,128.35222 28.386,127.92533C29.20625,127.52298 30.09733,127.50225 30.99283,127.5C31.95,127.4976 32.85,127.5 33.75,127.5C34.50717,127.5 35.40267,127.5 36.266,127.5C37.22917,127.5 38.059,127.49661 39.08333,127.5C39.76434,127.50225 40.57778,127.48714 41.75,127.66666C42.35303,127.75902 43.22339,128.02374 44.06467,128.216C45.05731,128.44286 45.90417,128.4594 46.86867,128.50133C47.61837,128.53392 48.51466,128.71841 49.426,128.92534C50.07448,129.07259 51.24336,129.38416 52.05267,129.464C53.06738,129.56412 53.79167,129.5 54.91667,129.5C55.70267,129.5 56.52467,129.5 57.58333,129.5C58.28833,129.5 59.09508,129.39212 60.12467,129.51067C61.08813,129.6216 61.7145,130.10921 62.72867,130.37849C63.48524,130.57938 64.40266,130.5 65.266,130.5C66.22916,130.5 67.05,130.5 67.95,130.5C68.85017,130.5 69.63533,130.5 70.57533,130.5C71.58334,130.5 72.33933,130.5 73.29166,130.5C74.29283,130.5 75.01133,130.5 75.80183,130.5C76.8285,130.5 77.72916,130.5 78.75,130.5C79.53933,130.5 80.26466,130.5 81.25,130.5C82.23534,130.5 82.96067,130.5 83.95,130.5C84.75,130.5 85.75,130.5 86.53933,130.5C87.58334,130.5 88.37534,130.5 89.234,130.5C90.09734,130.5 91.12466,130.5 92.07133,130.5C92.75,130.5 93.7285,130.5 94.54867,130.5C95.45,130.5 96.35,130.5 97.25,130.5C98.15,130.5 99.0545,130.5 100.07133,130.5C100.75,130.5 101.7285,130.5 102.54867,130.5C103.45,130.5 104.35,130.5 105.25,130.5C106.15,130.5 107.0545,130.5 108.07133,130.5C108.75,130.5 109.72867,130.5 110.634,130.5C111.57533,130.5 112.266,130.5 113.25,130.5C114.234,130.5 114.92467,130.5 115.99284,130.5C116.85017,130.5 117.63533,130.5 118.57533,130.5C119.58334,130.5 120.4202,130.49796 121.29266,130.7215C122.0093,130.90511 122.76763,131.15894 123.782,131.69867C124.41628,132.03616 125.28946,132.41597 126.25,132.47917C126.98068,132.52725 128.11026,132.42247 128.91667,132.66667C129.78326,132.92909 130.56134,133.53116 131.22917,133.97917C131.92854,134.44835 132.85001,134.5 133.75,134.5C134.55,134.5 135.51617,134.53104 136.40717,134.85266C137.16277,135.12541 137.95003,135.37962 138.77083,135.5C139.91647,135.66801 140.70934,135.8499 141.27083,136.02083C142.15488,136.28995 143.04887,136.60397 143.96066,136.89999C144.58513,137.10272 145.91487,137.50662 146.634,137.69867C147.37355,137.89616 148.12129,138.08168 148.866,138.21466C149.9248,138.40373 150.94576,138.47234 151.64734,138.48933C152.4045,138.50768 153.71417,138.5 154.20334,138.5C155.23666,138.5 155.77083,138.5 156.84917,138.5C157.38333,138.5 158.90683,138.5 159.83116,138.5C160.6875,138.5 161.48384,138.5 162.58333,138.5C163.26466,138.5 164.22917,138.5 164.8455,138.5C166.05,138.5 166.95,138.5 167.55,138.5C168.75,138.5 169.64549,138.5 170.51401,138.5C171.58333,138.5 172.29733,138.5 172.97533,138.5C174.17134,138.5 174.97533,138.5 175.79733,138.5C176.82867,138.5 177.52467,138.5 178.43401,138.5C179.43401,138.5 180.25,138.5 181.06599,138.5C182.06599,138.5 182.97533,138.5 183.91667,138.5C184.71167,138.5 185.59666,138.5 186.23666,138.5C187.2715,138.5 188.00717,138.5 189.16066,138.5C189.95134,138.5 191.15033,138.5 191.959,138.5C192.37134,138.5 193.222,138.5 194.12067,138.5C195.59267,138.5 196.118,138.5 197.20067,138.5C197.75,138.5 198.84467,138.5 199.382,138.5C200.907,138.5 201.37933,138.5 202.278,138.5C203.12866,138.5 203.94733,138.5 205.14999,138.5C205.95,138.5 206.75,138.5 207.55,138.5C208.75,138.5 209.54866,138.5 210.33934,138.5C211.114,138.5 211.86467,138.5 213.26466,138.5C213.914,138.5 214.8455,138.5 215.75,138.5C216.64999,138.5 217.55,138.50034 218.14999,138.5C219.34734,138.49933 220.21982,138.56216 220.97934,138.41467C222.10832,138.19545 222.84389,137.56088 223.75,137.5C224.5482,137.44637 225.38623,137.51872 226.23666,137.49867C226.99725,137.48074 228.17401,137.28943 228.96466,137.07466C229.74312,136.8632 230.60225,136.57034 231.43666,136.51067C232.51147,136.43381 233.1125,136.5 234.11,136.5C234.78334,136.5 235.98289,136.52109 236.75,136.47917C237.51956,136.43712 238.71747,136.21982 239.39,136.07466C240.06418,135.92915 241.24327,135.61581 242.04201,135.536C243.04564,135.4357 243.95,135.49867 244.85001,135.27867L245.45,134.85266" id="svg_21" stroke-width="3" stroke="#000" fill="none"/>
  <path t="147562,147645,147685,147692,147701,147708,147716,147725,147725,147732,147732,147741,147741,147748,147748,147757,147757,147765,147765,147773,147773,147780,147789,147797,147797,147805,147812,147812,147829,147829,147837,147837,147845,147845,147845,147853,147853,147861,147861,147868,147869,147869,147877,147877,147877,147877,147884,147885,147885,147893,147893,147893,147900,147901,147901,147909,147909,147916,147917,147925,147925,147932,147932,147941,147941,147948,147948,147957,147965,147965,147965,147973,147973,147973,147973,147980,147981,147981,147989,147989,147989,147989,147997,147997,147997,148005,148005,148005,148005,148012,148013,148013,148013,148021,148021,148021,148021,148028,148028,148029,148029,148036,148037,148037,148045,148045,148052,148053,148053,148053,148061,148061,148061,148068,148069,148077,148077,148084,148085,148093,148093,148093,148100,148101,148101,148109,148109,148109,148119,148119,148125,148125,148133,148142,148142,148149,148149,148149,148157,148157,148166,148166,148173,148173,148173,148173,148173,148181,148181,148181,148181,148181,148181,148189,148189,148189,148189,148189,148189,148189,148197,148197,148197,148197,148197,148205,148205,148205,148205,148205,148213,148213,148213,148221,148221,148221,148221,148237,148237" d="M260.75,133.5C262.54999,133.5 263.45001,133.5 264.35001,133.5C265.25,133.5 266.14999,133.5 267.04999,133.5C267.85016,133.5 268.63535,133.5 269.586,133.5C270.35132,133.5 271.35001,133.5 272.14999,133.5C273.14868,133.5 274.09283,133.5 275.00183,133.5C275.71933,133.5 276.75534,133.5 277.49933,133.5C278.60699,133.5 279.44101,133.5 280.35001,133.5C281.16068,133.5 282.07132,133.5 282.92465,133.5C283.86465,133.5 284.75,133.5 285.56433,133.5C286.51801,133.5 287.25003,133.50911 288.41666,133.5C289.0994,133.49466 290.08517,133.33986 290.75534,133.14734C291.7475,132.8623 292.60159,132.56534 293.49817,132.5045C294.40958,132.44266 295.21167,132.5 296.17151,132.5C296.98599,132.5 297.85449,132.5 298.75,132.5C299.64999,132.5 300.54999,132.5 301.14999,132.5C302.35001,132.5 303.25,132.5 303.85001,132.5C305.04984,132.5 305.93933,132.5 306.79285,132.5C307.82849,132.5 308.51401,132.5 309.34866,132.5C310.35001,132.5 311.14999,132.5 312.14868,132.5C312.914,132.5 314.00183,132.5 314.71933,132.5C315.75534,132.5 316.49933,132.5 317.60718,132.5C318.36465,132.5 319.23401,132.5 320.09732,132.5C321.13535,132.5 322.08334,132.5 322.76434,132.5C323.57132,132.5 324.75,132.5 325.35001,132.5C326.25,132.5 327.14999,132.5 328.04999,132.5C328.95001,132.5 329.85001,132.5 330.75,132.5C331.64999,132.5 332.54999,132.50034 333.14999,132.5C334.35132,132.49933 335.27197,132.49539 335.90717,132.44284C336.91913,132.35912 338.00479,132.15231 338.75,131.97917C339.4996,131.80501 340.58496,131.50546 341.26468,131.3C342.23154,131.00775 342.84402,130.79558 344.05017,130.40016C344.65378,130.20227 345.58105,129.91287 346.23532,129.78534C347.26471,129.58469 347.99872,129.55984 349.08865,129.47467C349.78104,129.42056 350.98358,129.22978 351.70834,129C352.35129,128.79616 353.36084,128.56738 354.26434,128.44733C355.39526,128.29704 356.05533,128.14734 356.75,128C357.44467,127.85267 358.70447,127.59425 359.478,127.536C360.34555,127.47069 361.35001,127.5 362.14999,127.5C363.14999,127.5 363.95001,127.5 364.95001,127.5C365.75,127.5 366.75,127.5 367.56067,127.5C368.43533,127.5 369.43533,127.5 370.27084,127.5C370.85449,127.5 372.04984,127.5 372.93933,127.5C373.79285,127.5 374.82834,127.5 375.50333,127.5C376.58334,127.5 377.33932,127.50065 378.27084,127.5C379.23532,127.49933 379.97733,127.53761 380.95001,127.27866C381.76865,127.06073 382.33527,126.70472 383.35001,126.55717C384.14337,126.4418 385.15268,126.5 386.022,126.5C387.08334,126.5 387.72333,126.5 388.44333,126.5C389.24335,126.5 390.12332,126.5 391.59299,126.5C392.12067,126.5 393.22198,126.5 393.79166,126.5C394.37134,126.5 395.55267,126.5 396.75,126.5C397.34982,126.5 398.5455,126.5 399.13934,126.5C400.314,126.5 400.89282,126.5 401.46466,126.5C403.12833,126.5 403.66333,126.5 404.70334,126.5C405.20834,126.5 406.18832,126.5 407.58334,126.5C408.46335,126.5 409.30334,126.5 410.10333,126.5C410.86334,126.5 411.9285,126.5 412.59283,126.5C413.53934,126.5 414.75,126.5 415.34866,126.5C416.22916,126.5 417.06467,126.5 418.06332,126.5L418.90332,126.5" id="svg_22" stroke-width="3" stroke="#000" fill="none"/>
  <path t="150163,150214,150214,150229,150229,150229,150252,150252,150252,150260,150260,150268,150268,150268,150276,150277,150277,150287,150287,150287,150287,150292,150292,150292,150301,150301,150301,150301,150308,150308,150308,150316,150316,150316,150316,150324,150324,150332,150332,150340,150340,150340,150348,150348,150356,150364,150372,150388,150389,150397,150397,150404,150412,150412,150420,150428,150428,150436,150436,150444,150444,150444,150452,150452,150460,150460,150460,150468,150468,150468,150476,150476,150476,150484,150484,150492,150492,150492,150500,150500,150500,150508,150508,150508,150508,150516,150516,150516,150516,150516,150524,150524,150524,150524,150532,150532,150532,150532,150540,150540,150540,150540,150548,150548,150548,150556,150556,150556,150564,150564,150572,150572,150572,150580,150580,150580,150588,150588,150596,150596,150597,150604,150604,150612,150612,150620,150620,150628,150628,150628,150636,150636,150636,150644,150644,150644,150652,150652,150652,150652,150660,150660,150660,150668,150668,150668,150668,150676,150676,150676,150676,150684,150684,150684,150692,150692,150692,150700,150701,150701,150708,150708,150708,150708,150716,150716,150716,150717,150717,150724,150724,150724,150733,150733,150733,150733,150740,150740,150740,150748,150748,150756,150756,150764,150764,150764,150772,150772,150781,150781,150781,150788,150788,150789,150789,150797,150797,150797,150804,150804,150805,150812,150820,150828,150828,150836,150836,150844,150852,150860,150860,150868,150868,150876,150876,150884,150884,150892,150892,150900,150908,150908,150908,150916,150916,150917,150917,150924,150924,150924,150924,150932,150933,150940,150940,150948,150948,150956,150956,150972,150972,150981,150988,150997,150997,151004,151004,151005,151012,151012,151020,151028,151028,151029,151036,151036,151044,151044,151044,151052,151052,151053,151060,151060,151060,151068,151068,151069,151076,151076,151084,151092,151092,151100,151100,151101,151116,151116,151124,151124,151132,151132,151140,151140,151148,151172,151180" d="M19.75,311.5C21.57533,311.07468 22.26613,310.78442 23.25,310.5C24.23546,310.21509 24.96172,309.89148 25.75,309.5C26.55108,309.10217 27.14162,308.78281 28.15,308.30133C28.94364,307.92239 29.74362,307.61774 30.56067,307.53601C31.43167,307.44888 32.43859,307.52771 33.29167,307.45834C33.91386,307.40775 34.92994,307.20279 35.99817,306.79016C36.73921,306.50391 37.44127,306.15039 38.41667,305.66666C38.98131,305.38663 39.71768,304.99384 40.91667,304.5C41.43067,304.2883 42.26991,303.99728 43.15133,303.70001C44.04907,303.39722 44.95,303.10001 45.55,302.89999C46.75,302.5 47.35115,302.30719 48.22917,302C49.06709,301.70685 50.0598,301.29306 50.70833,301.02084C51.57873,300.65549 52.41933,300.50766 53.29267,300.2785C54.00823,300.09076 54.78347,299.86966 55.77934,299.30133C56.58292,298.84274 57.34995,298.50534 58.25,298.5C59.16065,298.4946 60.07133,298.5 60.92467,298.5C61.866,298.5 62.634,298.5 63.57533,298.5C64.58334,298.5 65.33933,298.5 66.27084,298.5C67.23534,298.5 67.96067,298.5 68.95,298.5C69.75,298.5 70.75,298.5 71.55,298.5C72.35,298.5 73.3545,298.5 74.20717,298.5C75.17133,298.5 75.97533,298.5 76.79733,298.5C77.82867,298.5 78.75,298.5 79.434,298.5C80.434,298.5 81.25,298.5 82.066,298.5C83.066,298.5 83.97533,298.5 84.91666,298.5C85.70267,298.5 86.52467,298.5 87.58334,298.5C88.53533,298.5 89.25984,298.49643 90.39317,298.50015C91.06884,298.50235 91.81335,298.50525 92.61617,298.55716C93.91855,298.64139 94.83303,298.78156 95.29816,298.85266C96.22993,298.99512 97.13683,299.17191 98.41666,299.33334C99.17764,299.42932 99.87766,299.47739 100.841,299.49551C101.74985,299.51263 102.6545,299.5 103.27084,299.5C104.23534,299.5 105.27133,299.5 106.00267,299.5C106.75,299.5 107.866,299.5 108.92834,299.5C109.58833,299.5 110.50333,299.5 111.58334,299.5C112.29283,299.5 113.1455,299.5 114.15134,299.5C114.986,299.5 115.91684,299.48718 116.70267,299.50449C117.52507,299.52261 118.60121,299.61121 119.514,299.936C120.1605,300.16605 121.13712,300.72806 121.75,300.97916C122.73167,301.38135 123.54945,301.48077 124.35,301.49866C125.34975,301.52097 126.15,301.5 127.15,301.5C127.95,301.5 128.95,301.5 129.75,301.5C130.75,301.5 131.56067,301.5 132.43533,301.5C133.43533,301.5 134.27083,301.5 134.85451,301.5C136.05,301.5 136.95,301.5 137.55,301.5C138.75,301.5 139.64999,301.5 140.25,301.5C141.14999,301.5 142.35133,301.5 142.96066,301.5C143.90717,301.5 144.91667,301.5 145.634,301.5C146.75,301.5 147.49733,301.5 148.58333,301.5C149.26466,301.5 150.22917,301.5 150.8455,301.5C152.04984,301.5 152.93933,301.5 153.79283,301.5C154.82867,301.5 155.52467,301.5 156.43401,301.5C157.43666,301.5 158.29167,301.5 158.91167,301.5C160.2715,301.5 161.00717,301.5 161.77083,301.5C162.5545,301.5 163.75,301.5 164.54866,301.5C165.33934,301.5 166.114,301.5 166.86467,301.5C167.9285,301.5 168.914,301.5 169.53934,301.5C170.75,301.5 171.64999,301.5 172.25,301.5C173.14999,301.5 174.34866,301.5 174.93933,301.5C175.79283,301.5 177.06334,301.49994 177.70833,301.5C178.72884,301.50009 179.56844,301.52362 180.51933,301.78534C181.27863,301.99432 182.07141,302.29123 183.06467,302.69867C183.73198,302.97241 184.74623,303.35736 185.57133,303.47467C186.26176,303.57285 187.39349,303.71802 188.05983,303.85266C188.77155,303.99646 189.4958,304.18814 190.92833,304.37866C191.58611,304.46613 192.51456,304.45663 193.58333,304.66666C194.29877,304.80725 195.05862,305.26202 195.99283,305.44284C196.83626,305.60608 197.75,305.5 198.63533,305.5C199.57533,305.5 200.26601,305.5 201.33934,305.5C202.16066,305.5 203.07133,305.5 203.92467,305.5C204.866,305.5 205.634,305.5 206.586,305.5C207.35133,305.5 208.35001,305.5 209.14999,305.5C210.14867,305.5 210.914,305.5 211.99733,305.5C212.91667,305.5 213.6107,305.47705 214.522,305.58533C215.39743,305.68933 216.42291,305.93213 217.17134,306.11066C217.95364,306.29727 219.14912,306.60135 219.93649,306.7955C220.68715,306.98062 221.37079,307.18246 222.48567,307.37851C223.20428,307.50488 224.23399,307.5 225.09734,307.5C226.00183,307.5 226.71933,307.5 227.75534,307.5C228.49933,307.5 229.60699,307.5 230.44099,307.5C231.35001,307.5 232.16083,307.48242 233.07167,307.50015C233.99719,307.51816 234.92056,307.651 235.69817,307.85266C236.49297,308.05878 237.40781,308.39938 238.32866,308.48932C239.16762,308.57126 240.08517,308.66013 240.75534,308.85266C241.74748,309.1377 242.60184,309.42996 243.40067,309.48932C244.51764,309.5723 245.29167,309.5 245.85899,309.5C247.04984,309.5 247.93933,309.5 248.79283,309.5C249.82867,309.5 250.52467,309.5 251.43401,309.5C252.43401,309.5 253.25,309.5 254.06599,309.5C255.06334,309.5 255.90334,309.5 256.86465,309.5C257.75,309.5 258.56442,309.48828 259.51935,309.50134C260.27103,309.51163 261.08157,309.5238 262.06467,309.784C262.95569,310.01984 263.94565,310.41916 264.72916,310.47916C265.58112,310.54437 266.50266,310.5 267.40268,310.5C268.26599,310.5 269.11401,310.5 270.04999,310.5L270.95001,310.5" id="svg_23" stroke-width="3" stroke="#000" fill="none"/>
  <path t="151421,151444,151444,151452,151452,151460,151460,151468,151468,151476,151476,151476,151484,151484,151484,151484,151492,151492,151500,151500,151500,151508,151508,151508,151516,151516,151516,151524,151524,151532,151532,151532,151540,151540,151548,151556,151564,151564,151572,151572,151588,151596,151596,151604,151604,151612,151612,151612,151620,151620,151628,151628,151636,151636,151636,151636,151644,151644,151644,151652,151652,151652,151652,151660,151660,151668,151668,151668,151668,151668,151676,151676,151676,151684,151692,151700,151700,151708,151708,151716,151716,151724,151732,151740,151740,151748,151748,151748,151748,151756,151756,151764,151764,151764,151764,151772,151772,151772,151780,151780,151780,151788,151788,151788,151788,151797,151797,151797,151804,151804,151812,151812,151812,151812,151820,151820,151820,151828,151828,151828,151828,151828,151828,151836,151836,151836,151836,151836,151844,151844,151844,151844,151844,151845,151852,151852,151852,151852,151852,151853,151853,151860,151860,151860,151860,151860,151860,151868,151868,151868,151868,151876,151876,151876,151876,151876,151876,151884,151884,151884,151885,151892,151892,151908,151981,151981,151981,152012,152020,152020,152028,152036,152044" d="M293.75,310.5C295.75534,310.5 296.49933,310.5 297.60718,310.5C298.36465,310.5 299.40717,310.5 300.15451,310.5C301.15134,310.5 301.98599,310.5 302.91666,310.5C303.70715,310.5 304.56067,310.5 305.75,310.5C306.34866,310.5 307.22916,310.5 308.06467,310.5C309.06467,310.5 309.93933,310.5 310.95016,310.5C311.77084,310.5 312.43533,310.5 313.43533,310.5C314.27084,310.5 315.15134,310.5 316.34866,310.5C316.93933,310.5 317.79285,310.5 318.82849,310.5C319.72916,310.5 320.75,310.5 321.54999,310.5C322.35001,310.5 323.34549,310.5 324.09283,310.5C325.11401,310.5 326.0545,310.5 326.91666,310.5C327.75,310.5 328.72849,310.5 329.54868,310.5C330.38599,310.5 331.40717,310.5 332.15451,310.5C333.15134,310.5 333.98599,310.50269 334.91666,310.5C335.69818,310.49774 336.52737,310.62421 337.60699,310.27866C338.37228,310.03372 339.19299,309.52744 339.89133,309.41599C340.7359,309.28119 341.46487,309.1456 342.27084,309C343.09619,308.85089 344.58447,308.60684 345.1875,308.55716C345.98862,308.49118 347.08334,308.5 348.05084,308.5C348.72916,308.5 349.38788,308.52911 350.69934,308.49866C351.46259,308.48093 352.41769,308.33902 353.08734,308.21466C353.86325,308.07056 354.68848,307.90491 355.49933,307.69867C356.59085,307.42105 357.4151,307.06577 358.26068,306.78534C359.21359,306.46933 360.16077,306.5134 361.0715,306.49985C361.77106,306.48944 362.75754,306.35529 363.53934,306.07468C364.59433,305.69598 365.33926,305.50534 366.25,305.5C367.16064,305.49466 368.07361,305.53586 368.79166,305.47916C369.92255,305.38983 370.70236,305.14618 371.25,305C372.06555,304.78229 373.30081,304.53748 374.01132,304.51068C375.08264,304.47028 375.71844,304.51587 376.75,304.47916C377.44519,304.45444 378.71448,304.3046 379.24017,304.14282C380.21411,303.84311 381.16962,303.39481 381.70715,303.20001C382.55774,302.89178 383.74826,302.49469 384.35001,302.30133C385.2475,302.01291 385.84,301.79871 387.04965,301.62149C387.92349,301.49347 388.7359,301.521 389.60751,301.49985C390.43719,301.47971 391.51434,301.27954 392.11249,301.14734C393.11032,300.92679 393.77777,300.74713 394.98468,300.58401C395.7887,300.47534 396.37128,300.46136 397.41666,300.33334C398.29019,300.22638 399.27307,300.06638 399.79166,299.97916C400.85449,299.80038 401.38681,299.70929 402.90735,299.39999C403.38269,299.30331 404.29898,299.09833 405.20065,298.89999C406.11765,298.6983 407.08249,298.49551 408.12067,298.29999C408.66391,298.19766 409.79153,297.99933 410.37134,297.89999C410.95889,297.79932 412.75,297.50009 413.34982,297.39999C413.94867,297.30008 414.54568,297.20117 415.72916,297C416.31409,296.90057 417.46509,296.70242 418.58334,296.5C419.12839,296.40134 420.18329,296.20151 421.1875,296.02084C421.66708,295.93457 422.57495,295.76053 423.8075,295.62134C424.54764,295.53775 425.27142,295.50775 426.01251,295.44733C427.25113,295.34631 428.20255,295.21838 428.70801,295.14282C429.75119,294.98685 430.27673,294.90356 431.298,294.69867C432.68936,294.41953 433.47385,294.20395 434.16666,294.02084C435.06049,293.78461 436.06107,293.55273 436.90332,293.51068C437.86353,293.46277 438.75,293.5 439.54999,293.5C440.45001,293.5 441.38599,293.5 442.23401,293.5C443.09732,293.5 444.11401,293.5 444.95001,293.5L445.85001,293.50015" id="svg_24" stroke-width="3" stroke="#000" fill="none"/>
 </g>
</svg>