<svg width="500" height="333.3333333333333" xmlns="http://www.w3.org/2000/svg" xmlns:svg="http://www.w3.org/2000/svg" xmlns:xlink="http://www.w3.org/1999/xlink">
 <!-- Created with SVG-edit - http://svg-edit.googlecode.com/ -->
 <g display="inline" class="layer">
  <title>Layer 1</title>
  <path t="0,180,180,204,204,227,260,260,260,270,300,300,332,332,380,380,380,476,477,516,516,516,524,540,556,564,564,580,580,587,604,604,636,636,636,652,668,684,684,700,700,708,708,716,718,733,740,740,748,748,772,780,780,787,796,796,804,812,820,828,844,844,844,868,868,884,884,892,902,908,908,916,956,956,972,972,975,1004,1004,1020,1036,1068,1068,1100,1100,1133,1134,1140,1147,1147,1172,1180,1180,1188,1204,1204,1236,1252,1269,1300,1300,1308,1308,1308,1317,1329,1347,1347,1347,1356,1356,1372,1372,1388,1388,1396,1396,1396,1412,1412,1412,1428,1428,1428,1444,1444,1460,1476,1476,1500,1524,1524,1580,1580,1605,1605,1605,1621,1621,1636,1644,1644,1652,1684,1684,1708,1709,1733,1733,1749,1749,1765,1765,1772,1788,1789,1797,1820,1821,1828,1829,1836,1837,1876,1876,1900,1908,1924,1924,1940,1940,1956,1964,1965,1980,1988,2012,2020,2020,2044,2076,2084,2084,2117,2117,2141,2188,2189,2220,2244,2245,2284,2356,2364,2364,2387,2387,2396,2429,2516" d="M198.25391,49.91667C196.92058,50.75 196.18762,50.77194 195.27541,51.138C194.5014,51.4486 193.63635,51.8634 193.15407,52.58083C192.63138,53.35837 192.81288,54.25827 192.26857,55.234C191.86113,55.96438 190.81041,55.77962 190.01108,56.28283C189.46933,56.62389 189.04652,57.6831 188.75391,58.4375C188.44611,59.23102 188.03333,60.22251 187.77473,60.89584C187.38734,61.90453 187.27303,62.70539 187.25523,63.43134C187.22891,64.50568 187.17181,65.42133 187.25841,66.22117C187.37032,67.25482 187.80933,67.89658 188.08723,68.75C188.3627,69.59591 188.76945,70.4218 189.35408,71.01684C190.00525,71.67961 190.59264,72.22141 191.23308,72.91666C191.69762,73.42096 192.21832,74.39085 192.86458,74.978C193.44109,75.50179 193.86337,76.13322 194.35374,77.1165C194.74057,77.89214 194.92661,78.81862 195.31525,79.506C195.78726,80.34086 196.72581,80.49675 197.23308,81.4375C197.63002,82.17368 197.71924,82.95171 198.35374,83.89516C198.78188,84.53177 199.04483,85.41573 199.54057,86.11533C199.99811,86.76102 201.26483,86.60423 201.92058,87.25C202.55264,87.87245 202.66179,88.87378 203.25391,89.41666C203.84766,89.96104 204.64171,90.38469 205.42058,90.91666C206.06154,91.35445 206.83862,91.74232 207.49673,92.56934C207.88687,93.05959 208.36194,94.13644 208.9539,94.555C209.7269,95.10156 210.28239,95.71714 210.96375,96.21217C211.6998,96.74694 212.73657,96.75134 213.35391,97.35966C214.01285,98.00898 214.19861,98.94844 214.66458,99.69534C215.09088,100.37865 215.90126,100.85685 216.76991,100.914C217.731,100.97723 218.68243,100.85468 219.45657,101.20067C220.26105,101.56021 221.02002,101.86292 222.00323,101.906C222.91975,101.94615 223.71223,101.91666 224.66458,101.91666C225.57524,101.91666 226.42857,101.91666 227.36858,101.91666C228.25391,101.91666 229.05391,101.91666 230.01108,101.91666C230.90657,101.91666 231.60124,101.91666 232.6179,101.91666C233.55391,101.91666 234.45528,101.92435 235.42058,101.91666C236.08997,101.91133 237.27286,101.80103 237.84491,101.5595C238.71892,101.19047 239.13167,100.27256 239.93657,99.89133C240.73366,99.51382 241.54994,99.57243 242.19141,99.155C243.0997,98.56394 243.21452,97.53638 243.60657,96.66933C243.90858,96.0014 244.233,95.07049 244.25258,94.23C244.2758,93.23293 244.2493,92.3989 244.4254,91.86933C244.78604,90.78483 245.55135,90.16234 245.97791,89.69134C246.79683,88.78709 247.13812,87.97633 247.22191,87.178C247.31883,86.25452 247.25391,85.338 247.25391,84.506C247.25391,83.59534 247.25391,82.742 247.25391,81.802C247.25391,80.81634 247.29091,80.10146 247.24991,79.15C247.21913,78.43577 246.80206,77.3039 245.96724,77.014C245.28111,76.77574 244.24545,76.59174 243.56291,76.26933C242.75481,75.88763 241.72108,76.14518 240.96375,75.8595C240.11067,75.53772 239.81731,74.49646 239.36723,74.03133C238.61327,73.25216 238.11511,72.64449 237.05408,72.1595C236.49309,71.90308 235.37071,71.82867 234.77473,71.39584C233.97414,70.81439 233.46281,70.1769 232.6179,69.89133C231.77802,69.60746 230.88327,69.33076 230.01108,68.96484C229.22925,68.63682 228.80446,67.86247 228.25391,67.08334C227.77512,66.40575 226.95203,65.77972 226.25391,65.4375C225.44087,65.03895 224.55637,64.86765 223.75391,64.41666C222.95636,63.96845 222.58803,63.38501 222.14407,62.622C221.71893,61.89133 220.66495,61.97158 219.88991,61.48067C219.05258,60.95031 218.45137,60.45079 217.68991,59.89133C217.02303,59.40136 216.38939,59.00317 215.42058,58.91667C214.61072,58.84436 214.62038,57.89227 214.03241,57.1595C213.4819,56.47342 212.65157,56.25421 211.76991,55.718C211.10234,55.312 210.14232,54.95938 209.25391,54.91667C208.45483,54.87825 207.60243,54.9285 206.76991,54.63267C205.8873,54.31903 205.01251,53.94527 204.1539,53.91667C203.25441,53.88671 202.36858,53.91667 201.42857,53.91667C200.7379,53.91667 199.66458,53.91667 198.85391,53.91667L197.9494,53.90767" id="svg_1" stroke-width="3" stroke="#000" fill="none"/>
  <path t="3573,3660,3660,3660,3660,3660,3660,3661,3669,3669,3669,3669,3676,3676,3676,3676,3686,3686,3686,3686,3686,3693,3693,3693,3701,3701,3703,3703,3703,3709,3709,3709,3710,3710,3717,3717,3717,3717,3717,3717,3724,3724,3724,3724,3724,3724,3734,3734,3734,3734,3734,3741,3741,3741,3741,3741,3749,3749,3749,3749,3749,3757,3757,3757,3764,3764,3765,3765,3781,3781,3781,3781,3781,3781,3787,3789,3789,3789,3789,3789,3790,3790,3790,3797,3797,3797,3797,3797,3804,3804,3804,3805,3813,3813,3813,3813,3821,3821,3821,3821,3821,3829,3829,3829,3829,3829,3836,3836,3836,3845,3845,3845,3854,3854,3861,3861,3861,3870,3870,3870,3876,3886,3886,3886,3892,3892,3892,3908,3908,3908,3908,3918,3918,3918,3918,3918,3919,3919,3919,3925,3925,3925,3932,3932,3940,3940,3940,3948,3948,3948,3948,3948,3956,3956,3956,3983,3983,3983,3987,3987,3988,3988,3988,3996,3996,3996,3996,4004,4004,4012,4012,4020,4020,4036,4036,4036,4036,4044,4044,4045,4045,4045,4053,4053,4053,4053,4054,4060,4060,4076,4076,4076,4100,4100,4101,4101,4101,4101,4101,4108,4108,4117,4117,4124,4132,4133,4140,4140,4147,4148,4164,4164,4172,4172,4172,4172,4181,4181,4188,4188,4196,4196,4204,4204,4204,4212,4212,4220,4220,4228,4229,4236,4236,4236,4245,4245,4245,4252,4252,4252,4260,4261,4261,4261,4269,4269,4276,4277,4277,4292,4292,4300,4300,4300,4300,4307,4308,4308,4308,4316,4316,4324,4324,4332,4332,4340,4340,4347,4348,4348,4356,4356,4364,4372,4380,4380,4388,4404,4431,4431,4445,4445,4445,4452,4453,4467,4467,4476,4485,4485,4500,4516,4516,4516,4532,4532,4547,4547,4564,4564,4564,4571,4572,4572,4604,4604,4604,4627,4652,4652,4668,4668,4668,4707,4724,4724,4740,4740,4756,4787,4787,4804,4805,4805,4828,4828,4836,4836,4837,4860,4884,4884,4884,4907,4907,4996,4996" d="M12.25391,295.91666C16.00324,296.138 16.64196,296.2001 17.32257,296.26935C18.0313,296.34143 18.75376,296.41812 20.18524,296.564C20.86584,296.63336 22.08654,296.75888 23.05791,296.83133C23.81209,296.88757 24.67967,296.90207 25.67574,296.91699C26.51141,296.9295 27.14147,296.95905 27.82591,297.08734C29.00738,297.30878 29.86552,297.62134 30.77474,297.9375C31.24017,298.09933 32.16544,298.45148 33.53224,298.89499C33.96547,299.03555 34.80363,299.28503 35.60724,299.47C36.36411,299.64423 37.77045,299.84344 38.43924,299.88068C39.11467,299.91827 40.58725,299.91431 41.42324,299.918C41.86375,299.91995 42.77566,299.91885 43.70574,299.97385C45.08916,300.05563 45.534,300.12988 46.40574,300.26935C47.27607,300.40857 48.16251,300.57281 48.62324,300.63266C50.09335,300.82358 50.623,300.83728 51.71524,300.89133C52.27463,300.91901 53.40622,300.96167 53.97124,301.00067C55.63378,301.11545 56.16688,301.19373 57.19658,301.34201C57.69189,301.41333 58.63221,301.58502 59.92057,301.75C60.68441,301.84781 61.40737,301.88736 62.10457,302.01401C62.82713,302.14526 64.00361,302.56534 64.85474,302.97467C65.74085,303.40085 66.15694,303.66156 67.00057,304.06467C68.07726,304.57913 68.9633,304.8511 69.75474,304.90317C70.89469,304.97818 71.57298,304.91254 72.31641,304.9375C73.12044,304.96451 74.42177,305.07434 75.34457,305.202C75.82975,305.2691 76.85802,305.43777 77.40858,305.52734C77.98703,305.62146 79.92023,305.91916 80.63908,306.01651C81.38822,306.11795 82.15981,306.21436 82.94457,306.306C83.73282,306.39804 84.51633,306.48303 85.28607,306.55951C86.03236,306.63364 87.41999,306.75906 88.62591,306.83133C89.16335,306.86353 90.12881,306.90231 90.97424,306.91217C92.08717,306.92517 92.76991,306.91666 93.75391,306.91666C94.40657,306.91666 95.42128,306.88849 96.51107,306.93018C97.27575,306.95941 98.08044,307.01651 99.25391,307.41666C99.66309,307.55618 100.45392,307.97467 101.25391,308.41666C102.05392,308.85867 103.24856,309.43356 103.65374,309.55234C104.44041,309.78293 105.23456,309.86197 106.36858,309.99799C107.43378,310.12576 108.09192,310.27069 109.00724,310.49133C110.08686,310.75159 110.79558,310.88391 111.64941,310.91217C112.6547,310.94543 113.48991,310.91666 114.42057,310.91666C115.20657,310.91666 116.02857,310.91666 117.08724,310.91666C118.00724,310.91666 118.76724,310.91666 119.77474,310.91666C120.58724,310.91666 121.51524,310.91666 122.30574,310.91666C123.33257,310.91666 124.02857,310.91605 124.9379,310.91666C125.94724,310.91733 126.55421,310.9198 127.28057,310.95267C128.16769,310.9928 129.25432,311.07892 130.55658,311.20065C131.26564,311.26694 131.99527,311.34174 132.73308,311.41666C133.46594,311.49106 134.18051,311.56635 134.86458,311.63266C136.60268,311.80115 137.44849,311.87738 138.34325,311.90601C139.23235,311.93445 140.06445,311.88312 141.02591,311.92065C141.81796,311.95157 142.45522,312.00055 143.77507,312.58066C144.1481,312.74463 144.8676,313.19424 145.59258,313.64066C146.28365,314.06619 147.47086,314.72491 148.23308,314.85416C148.92906,314.97217 149.94191,314.91666 150.81641,314.91666C151.47275,314.91666 152.99657,314.91666 153.42191,314.91666C154.30458,314.91666 155.20325,314.91666 156.08591,314.91666C157.31075,314.91666 158.03508,314.91666 158.99657,314.91666C159.5659,314.91666 160.79674,314.91666 161.64941,314.91666C162.65257,314.91666 163.41791,314.91666 164.37257,314.91666C165.12091,314.91666 166.01857,314.91666 166.97258,314.91666C167.72191,314.91666 168.54324,314.91666 169.87524,314.91666C170.33791,314.91666 171.27924,314.91666 172.22858,314.91666C172.70123,314.91666 174.08723,314.91666 174.96591,314.91666C175.79657,314.91666 176.57124,314.91666 177.28191,314.91666C178.48457,314.91666 179.46857,314.91666 180.42058,314.91666C181.20207,314.91666 181.99257,314.91666 183.11157,314.91666C183.79558,314.91666 184.92058,314.91666 185.5899,314.91666C186.35524,314.91666 187.15257,314.91666 187.91791,314.91666C189.11391,314.91666 189.99307,314.91666 190.90657,314.91666C191.76991,314.91666 192.75391,314.91666 193.73924,314.91666C194.46457,314.91666 195.4539,314.91666 196.25391,314.91666C197.25391,314.91666 198.04324,314.91666 199.08723,314.91666C199.79558,314.91666 200.75391,314.91666 201.61191,314.91666C202.25391,314.91666 203.20341,314.9722 204.3914,314.91217C205.22345,314.87015 206.02098,314.62949 206.75391,314.41666C207.91913,314.07831 208.60275,313.93466 209.58723,313.91666C210.50443,313.89987 211.24858,313.91666 212.28458,313.91666C213.00208,313.91666 213.91107,313.91666 214.85524,313.91666C215.85841,313.91666 216.48991,313.91666 217.67525,313.91666C218.47925,313.91666 219.30124,313.91666 220.33258,313.91666C221.02858,313.91666 221.93791,313.91666 222.94057,313.91666C223.79558,313.91666 224.41557,313.91666 225.42058,313.91666C226.49757,313.91666 227.21223,313.91666 227.8869,313.91666C229.20058,313.91666 229.89391,313.91666 230.79657,313.91666C231.75391,313.91666 232.4859,313.91666 233.45758,313.91666C234.39258,313.91666 235.23958,313.91666 235.97357,313.91666C236.79558,313.91666 237.65758,313.91666 238.92058,313.91666C239.6819,313.91666 240.69141,313.91666 241.28773,313.91666C242.33224,313.91666 243.21223,313.91666 244.23257,313.91666C245.00658,313.91666 245.91107,313.91666 246.85524,313.91666C247.85841,313.91666 248.48991,313.91666 249.67508,313.91666C250.46857,313.91666 251.24408,313.91666 252.28323,313.91666C253.05124,313.91666 253.9539,313.91666 254.88991,313.91666C255.7379,313.91666 256.60123,313.91666 257.61792,313.91666C258.45392,313.91666 259.37787,314.01721 260.06824,313.80234C261.07715,313.48831 261.76157,312.90701 262.24857,312.56482C263.30032,311.82574 263.78284,311.27228 264.55841,310.62115C265.10699,310.16058 266.0795,309.95865 267.08725,309.91666C267.84344,309.88516 268.70187,309.50742 269.25391,308.75C269.70578,308.13 270.08783,307.37793 271.0899,306.96735C271.82645,306.66556 272.67572,306.37558 273.23306,305.89584C274.12656,305.12677 274.62134,304.52069 275.22324,304.03265C275.99979,303.40302 276.77072,302.9166 277.24857,302.51218C278.14404,301.75433 278.5614,301.11362 279.05124,300.40201C279.64038,299.54614 280.45425,299.18875 281.25391,298.875C282.13925,298.52762 282.45816,297.83783 282.9494,296.97467C283.41803,296.15118 284.26645,296.00815 285.01108,295.8595C285.93582,295.6749 286.56876,295.13297 287.62857,294.95267C288.56284,294.79373 289.29556,294.91666 290.42056,294.91666C291.20209,294.91666 291.99258,294.91666 292.92056,294.91666C293.75391,294.91666 294.79657,294.91666 295.50458,294.91666C296.24857,294.91666 297.44406,294.91666 298.42056,294.91666C299.0899,294.91666 299.85526,294.91666 300.85391,294.91666L301.6539,294.91666L302.65259,294.91666L303.59674,294.91666" id="svg_2" stroke-width="3" stroke="#000" fill="none"/>
  <path t="5718,5796,5796,5820,5820,5820,5836,5836,5844,5860,5887,5887,5887,5900,5907,5916,5932,5932,5956,5956,5964,5964,5964,5972,5972,5989,5989,5996,5996,6004,6004,6004,6012,6020,6020,6020,6028,6028,6028,6044,6044,6044,6052,6052,6060,6060,6068,6070,6085,6092,6102,6102,6117,6220,6260,6260,6276,6276,6292,6300,6300,6307,6307,6316,6316,6324,6332,6332,6347,6364,6364,6428,6476,6476,6492,6492,6492,6508,6508,6540,6549,6564,6564,6572,6572,6580,6580,6596,6596,6612,6612,6628,6628,6636,6636,6652,6660,6675,6675,6685,6685,6692,6700,6700,6716,6716,6724,6724,6740,6740,6764,6764,6764,6772,6780,6780,6796,6812,6812,6828,6828,6836,6836,6852,6852,6852,6860,6860,6875,6875,6885,6886,6892,6892,6900,6900,6916,6924,6924,6924,6940,6940,6956,6956,6971,6972,6980,6980,6996,6996,6996,6996,7004,7020,7020,7028,7036,7036,7044,7052,7068,7085,7085,7085,7092,7100,7116,7132,7132,7140,7140,7164,7172,7196,7196,7196,7212,7220,7220,7260,7284,7284,7444,7460,7460,7524,7548,7548,7588,7588,7604,7604,7627,7662,7684,7718,7718,7718,7828,7828,7836,7860,7860,7892,7892,7901,7916,7916,7917,7925,7925,7932,7932,7947,7948,7956,7956,7957,7964,7965,7972,7972,7972,7980,7988,7989,7997,8004,8004,8020,8020,8028,8030,8030,8030,8038,8039,8039,8045,8053,8053,8070,8070,8077,8087,8087,8101,8101,8108,8117,8132,8132,8133,8141,8156,8165,8165,8172,8173,8181,8181,8204,8220,8221,8244,8244,8244,8277,8284,8284,8316,8316,8324,8356,8588,8588,8595,8596,8611,8612,8620,8620,8636,8636,8636,8644,8653,8653,8653,8660,8660,8669,8700,8700,8716,8717,8732,8733,8740,8748,8749,8764,8764,8773,8789,8789,8789,8796,8812,8812,8828,8828,8844,8844,8860,8860,8860,8869,8870,8870,8876,8892,8901,8924,8924,8924,8932,8932,8933,8948,8948,8956,8957,8971,8972,8987,8987,8987,9004,9004,9012,9012,9020,9020,9043,9051,9083,9084,9148,9204,9204,9212,9228,9228,9259,9275,9292,9292,9308,9323,9324,9364,9373,9373,9396,9420,9420,9428,9429,9484,9485,9509,9563,9587,9596,9620,9620,9635,9636,9644,9660,9683,9683,9691,9724,9724,9901,9908,9909,9909,9924,9924,9932,9940,9940,9940,9948,9948,9956,9956,9964,9964,9964,9980,9980,9987,9988,9988,9996,9996,10020,10020,10020,10020,10036,10036,10036,10036,10044,10044,10044,10052,10060,10060,10068,10076,10076,10084,10091,10092,10101,10108,10116,10117,10132,10132,10148,10149,10156,10156,10156,10156,10171,10172,10172,10180,10180,10187,10204,10212,10212,10212,10227,10227,10236,10244,10259,10260,10276,10300,10300,10307,10307,10308,10316,10348,10372,10420,10420,10421,10492,10524,10540,10541,10587,10587,10604,10628,10628,10732,10732,10740,10740,10756,10756,10787,10796,10852,10908" d="M313.25391,240.91667C314.1329,239.69501 314.47211,238.99106 315.10724,238.43266C315.74088,237.8756 316.49536,237.41133 317.28323,236.80333C317.95193,236.28729 318.89221,235.95947 319.66458,235.48067C320.46622,234.98372 321.05383,234.46672 321.7699,234.202C322.70676,233.85564 323.6539,233.91667 324.55841,233.91667C325.57523,233.91667 326.25391,233.91667 327.23291,233.91667C328.12091,233.91667 329.01791,233.91667 329.9299,233.91667C330.57791,233.91667 331.75391,233.91667 332.5459,233.91667C333.45657,233.91667 334.22458,233.91667 335.26373,233.91667C336.03925,233.91667 337.08725,233.91667 337.79224,233.91667C338.76724,233.91667 339.63925,233.91667 340.58725,233.91667C341.51523,233.91667 342.30576,233.91667 343.33258,233.91667C344.02856,233.91667 344.9379,233.91667 345.9379,233.91667C346.75391,233.91667 347.56992,233.91667 348.56857,233.91667C349.44324,233.91667 350.45374,233.91667 351.23306,233.91667C352.23242,233.91667 352.9494,233.91667 353.85391,233.91667C354.77475,233.91667 355.73792,233.91667 356.42859,233.91667C357.49673,233.91667 358.35391,233.91667 359.25391,233.91667C360.01108,233.91667 361.07928,233.90936 361.7699,233.91667C362.75406,233.92709 363.72778,234.231 364.46457,234.49133C365.44028,234.83609 366.26788,234.78999 367.08725,235.08333C367.89603,235.37288 368.68781,235.81483 369.45523,236.20067C370.17804,236.56406 371.07877,236.89867 372.08725,236.91667C372.84311,236.93018 373.82462,236.87524 374.45657,237.48466C374.99438,238.0033 375.78802,238.71117 376.50458,238.85533C377.24182,239.00366 378.47156,239.0182 378.96591,239.718C379.50961,240.48766 379.23154,241.43779 379.25525,242.40201C379.2731,243.12794 379.46802,244.11913 379.75391,244.89583C380.12311,245.89882 380.1929,246.67194 380.26291,247.57384C380.32132,248.32629 380.81528,249.32033 381.25391,249.89583C381.91074,250.75758 382.23306,251.41602 382.25391,252.40067C382.26852,253.09119 382.25391,254.1595 382.25391,255.01666C382.25391,255.91667 382.25391,256.802 382.25391,257.742C382.25391,258.43268 382.25391,259.41666 382.25391,260.40201C382.25391,261.12732 382.25391,262.11667 382.25391,262.91666C382.25391,263.91666 382.25391,264.70599 382.25391,265.75C382.25391,266.578 382.25391,267.45932 382.25391,268.16733C382.25391,269.14868 382.25391,270.10233 382.25391,271.01685C382.25391,271.802 382.25391,272.742 382.25391,273.75C382.25391,274.54199 382.25391,275.40201 382.25391,276.32117C382.25391,277.31668 382.25391,278.11667 382.25391,279.11682C382.25391,279.9375 382.25391,280.60199 382.25391,281.59933C382.25391,282.39584 382.25391,283.58334 382.25391,284.39584C382.25391,285.23816 382.25391,286.12732 382.25391,287.11652C382.25391,287.89584 382.28027,288.89566 382.25391,289.61218C382.2179,290.59064 381.81717,291.46277 381.40323,292.16733C381.10876,292.66852 380.39676,293.75146 380.27524,294.53134C380.14114,295.39188 380.25391,296.32117 380.25391,297.31534C380.25391,298.08066 380.32642,299.05048 380.13959,299.78366C379.90372,300.70929 379.54593,301.27344 379.10458,302.24066C378.82019,302.86389 378.31119,304.03955 378.25391,304.91666C378.20175,305.71497 378.25391,306.55267 378.25391,307.56934C378.25391,308.26401 378.25461,309.28067 378.25391,310.21667C378.25323,311.11801 378.09518,312.08652 377.82858,312.742C377.54626,313.43613 377.26434,314.39566 377.25391,315.31668C377.24368,316.2211 377.25391,317.23801 377.25391,317.91666C377.25391,318.89517 377.25391,319.71533 377.25391,320.61667C377.25391,321.58865 377.25391,322.45932 377.25391,323.16733C377.25391,324.14868 377.25391,325.10233 377.25391,326.01685C377.25391,326.802 377.25391,327.742 377.25391,328.75C377.25391,329.50601 377.34274,330.53793 376.68457,331.11533C376.00818,331.70871 374.90402,331.70575 374.25391,332.25C373.61493,332.78494 373.18048,333.79135 372.36856,333.914C371.43912,334.05441 370.73792,333.91666 369.66458,333.91666C368.75391,333.91666 367.94492,333.91666 366.92056,333.91666C366.24857,333.91666 365.25925,333.91666 364.39691,333.91666C363.45657,333.91666 362.61475,333.98856 361.60123,333.90765C360.90088,333.85175 360.03525,333.40851 359.61557,332.56482C359.19366,331.71667 359.10812,330.74121 358.8179,330.08066C358.47678,329.30426 358.02045,328.53366 357.68991,327.75266C357.29413,326.8175 357.1022,326.02017 356.54858,325.255C356.11807,324.66 355.52567,323.76471 355.36826,322.96851C355.2139,322.18765 355.25397,321.05933 355.25391,320.26599C355.25381,319.37399 355.30057,318.40753 355.16858,317.68466C354.99069,316.71033 354.3389,315.92926 354.25525,315.11667C354.15723,314.16455 354.25391,313.25949 354.25391,312.51218C354.25391,311.51401 354.25504,310.64465 354.25391,309.58334C354.25323,308.94867 354.27853,308.26382 354.19675,307.22202C354.12018,306.24686 354.04327,305.35883 353.54941,304.64001C353.0058,303.84882 352.28632,303.20377 352.25839,302.50766C352.21872,301.5188 352.25391,300.75266 352.25391,299.66934C352.25391,298.75 352.25391,297.91666 352.25391,296.93817C352.25391,296.22116 352.44458,295.28787 352.21225,294.39584C351.98657,293.52942 351.20108,292.95663 350.8219,292.40067C350.20343,291.4939 350.33514,290.47916 349.96991,289.71533C349.62091,288.98547 349.27484,288.08121 349.25525,287.31534C349.22983,286.32147 349.27072,285.5462 348.90125,284.66934C348.49844,283.71332 348.27975,283.08093 348.25391,281.91666C348.23639,281.12744 348.19846,280.38959 347.82858,279.54199C347.40881,278.58005 347.26434,277.91681 347.25391,276.93817C347.24518,276.11807 347.4635,275.17621 347.18192,274.28067C346.88809,273.34613 346.28445,272.401 345.27557,272.60266C344.49078,272.75952 344.33334,274.11224 344.27475,274.89584C344.2002,275.89294 344.25391,276.578 344.25391,277.68466C344.25391,278.41666 344.25391,279.14868 344.25391,280.26599C344.25391,281.25 344.25391,281.922 344.25391,282.66602C344.25391,283.77368 344.66934,284.73132 344.19675,285.55951C343.73264,286.3728 343.25616,286.7355 343.25391,287.68466C343.25217,288.41666 343.39041,289.59885 343.23306,290.375C343.05249,291.26578 342.36746,292.07501 342.28992,292.742C342.17343,293.7439 342.25391,294.61218 342.25391,295.45834C342.25391,296.45932 342.25854,297.16733 342.25391,298.14868C342.24939,299.09787 341.74887,299.63507 341.10458,299.978C340.23581,300.4404 340.25842,301.32562 340.25391,302.31799C340.25012,303.15268 340.25391,304.08334 340.25391,304.86932C340.25391,305.69135 340.25391,306.75 340.25391,307.67001C340.25391,308.42999 340.25644,309.50601 340.25391,310.41666C340.25165,311.22568 340.09082,312.25098 339.90125,312.92651C339.68332,313.70316 339.38803,314.74573 339.31107,315.4595C339.21948,316.30887 339.30841,317.32108 339.2179,318.11667C339.10294,319.12701 338.6517,319.86292 338.3754,320.89551C338.19669,321.56345 338.25391,322.686 338.25391,323.4375C338.25391,324.23401 338.25391,325.23132 338.25391,326.10599C338.25391,327.11652 338.25391,327.89584 338.25391,328.89517C338.25391,329.61218 338.25455,330.51666 338.25391,331.4375C338.25323,332.40067 338.35443,333.13846 337.96991,334.03134C337.5578,334.98828 337.1131,335.7525 336.23306,335.89584C335.28766,336.04984 334.55841,335.91666 333.6539,335.91666C332.73306,335.91666 331.76257,335.98679 331.07925,335.88068C330.11859,335.73151 329.22919,335.15057 328.55389,334.86401C327.69336,334.49884 326.93753,333.98895 326.07925,333.92734C325.14157,333.86002 324.24762,333.58813 323.85391,333.06601C323.24411,332.25729 322.74664,331.59702 321.92056,331.08334C321.20871,330.64069 320.47562,330.24454 319.73306,329.9375C318.92041,329.60147 317.9494,329.91666 317.08725,329.91666C316.25391,329.91666 315.27542,329.91666 314.45523,329.91666C313.55389,329.91666 312.61746,329.94339 311.7699,329.91534C310.90524,329.88675 310.08521,329.41992 309.25391,329.08334C308.49673,328.77676 307.55432,328.90369 306.7114,328.47385C305.98676,328.10431 305.16852,327.69797 304.61841,326.93817C304.09302,326.21252 304.24692,325.23798 304.03256,324.37384C303.85272,323.64893 303.55103,322.87579 303.3754,321.83835C303.22757,320.96503 303.25391,319.93784 303.25391,319.10684C303.25391,318.14734 303.25391,317.39584 303.25391,316.59933C303.25391,315.60068 303.25391,314.69135 303.25391,313.75C303.25391,312.96851 303.25391,312.17801 303.25391,311.05917C303.25391,310.23001 303.25391,309.41666 303.25391,308.54517C303.25391,307.85416 303.25391,307.10318 303.25391,305.91666C303.25391,305.11932 303.25391,303.95834 303.25391,303.23099C303.25391,302.25 303.25391,301.43549 303.25391,300.58282C303.25391,299.54199 303.25391,298.59534 303.25391,297.91666C303.25391,296.802 303.25391,295.91666 303.25391,295.11667C303.25391,294.28067 303.25391,293.26401 303.25391,292.56934C303.25391,291.55267 303.25391,290.61667 303.25391,289.71399C303.25391,288.94601 303.25391,287.91135 303.25391,287.16733C303.25391,286.25 303.25391,285.39584 303.25391,284.41666C303.25391,283.55417 303.25391,282.89584 303.25391,281.88333C303.25391,280.95966 303.25391,279.95834 303.25391,279.31934C303.25391,278.32117 303.25391,277.40201 303.25391,276.4375C303.25391,275.49533 303.25391,274.58334 303.25391,273.91135C303.25391,272.922 303.25391,272.05966 303.25391,271.11932C303.25391,270.21667 303.25391,269.39584 303.25391,268.43268C303.25391,267.56934 303.25391,266.66934 303.25391,265.75C303.25391,264.89584 303.25391,263.91666 303.25391,263.12732C303.25391,262.40201 303.24863,261.3273 303.25391,260.41666C303.25925,259.49527 303.39938,258.57693 303.61108,257.91583C303.84171,257.19562 304.57031,256.30594 305.13275,255.69518C305.74341,255.03206 306.40863,254.52423 306.92056,253.75C307.4007,253.02386 307.60312,252.19786 308.35391,251.69501C309.0246,251.2458 309.51111,250.45796 309.8179,249.70599C310.20999,248.745 310.01575,247.75325 310.69656,247.1595C311.2634,246.66516 312.21225,246.39583 312.26459,245.52733L312.82858,244.89133L313.27924,244.27" id="svg_3" stroke-width="3" stroke="#000" fill="none"/>
  <path t="11980,12052,12084,12084,12100,12116,12188,12188,12204,12229,12230,12243,12243" d="M329.25391,331.91666C330.14056,331.83133 331.06161,331.44528 331.7699,331.20065C332.71365,330.87469 333.69141,330.99789 334.45523,330.63266C335.18512,330.28366 336.06857,329.94199 336.92056,329.75L337.33658,329.03L337.60657,328.26849L337.96991,327.48599" id="svg_4" stroke-width="3" stroke="#000" fill="none"/>
  <path t="13142,13187,13195,13195,13204,13204,13204,13221,13221,13221,13227,13227,13228,13231,13231,13231,13236,13244,13244,13244,13251,13251,13251,13251,13260,13260,13268,13269,13269,13276,13276,13276,13284,13284,13284,13284,13291,13292,13292,13292,13300,13306,13306,13306,13315,13315,13315,13323,13323,13323,13323,13331,13331,13347,13347,13355,13355,13356,13356,13364,13364,13372,13388,13388,13396,13403,13419,13420,13420,13427,13427,13427,13436,13436,13436,13444,13444,13452,13452,13452,13460,13460,13460,13469,13470,13484,13484,13484,13491,13492,13492,13492,13500,13507,13507,13523,13523,13523,13532,13532,13540,13540,13540,13540,13548,13555,13572,13573,13580,13580,13588,13588,13612,13635,13636,13636,13667,13667,13676,13676,13691,13691,13795,13795,13804,13804,13820,13852,13852,13868,13884,13884,13907,13932,13932,13964,13964,13987,13988" d="M380.25391,301.91666C381.27475,301.91666 382.23291,301.9165 383.12091,301.91666C384.01773,301.91684 384.92548,301.88724 385.5419,301.98868C386.60513,302.16364 387.17856,302.98816 387.50458,303.51935C388.02765,304.37164 388.80035,304.92142 389.3674,305.25949C390.5231,305.94855 391.13416,306.17145 391.94589,306.47C392.88293,306.81464 393.69083,307.36618 394.13657,307.78867C394.7121,308.33417 395.66446,309.13138 396.20657,309.50766C397.01318,310.0675 397.5275,310.48306 398.80124,310.80234C399.46506,310.96872 400.42075,310.90387 401.20657,310.92117C402.02896,310.9393 403.09152,311.06815 404.03925,311.34201C404.76718,311.55237 405.58591,311.76175 406.56375,311.8685C407.27386,311.94604 408.02585,311.94492 409.08725,312.25C410.11313,312.54486 410.67889,312.94037 411.4819,313.34866C412.43011,313.83078 413.42056,313.91666 414.10059,313.91666C414.94058,313.91666 415.94058,313.91666 416.79556,313.91666C417.41559,313.91666 418.7749,313.91666 419.49756,313.91666C420.21225,313.91666 421.19925,313.91666 422.19925,313.91666C422.99756,313.91666 423.92007,313.91666 424.77274,313.91666C425.89639,313.91666 426.55475,313.91666 427.23306,313.91666C428.20056,313.91666 429.3869,313.91666 430.13525,313.91666C431.07925,313.91666 432.08725,313.91666 432.84323,313.91666C433.75391,313.91666 434.67523,313.91666 435.58725,313.91666C436.26373,313.91666 437.03925,313.91666 438.33258,313.91666C439.02856,313.91666 439.93799,313.9054 440.9379,313.918C441.75409,313.92828 442.58337,313.94351 443.56857,314.20065C444.24463,314.37711 445.25049,314.77133 446.06458,314.89133C446.7088,314.98627 447.93848,315.19839 448.47925,315.34201C449.30215,315.56055 450.32877,315.83621 451.23306,315.89584C452.25189,315.96304 453.07755,315.90054 453.76825,315.97385C454.90192,316.09418 455.55518,316.26746 456.56723,316.49133C457.20084,316.63147 458.38101,316.88806 459.25391,316.91666C460.06781,316.94333 461.02191,316.91666 461.75391,316.91666C462.4859,316.91666 463.64377,316.87155 464.30725,317.17267C465.36584,317.65311 465.92859,318.19128 466.5419,318.67667C467.1257,319.1387 467.61322,320.2518 468.4754,320.79517C469.22583,321.2681 470.13925,320.91666 471.0899,320.91666C471.85526,320.91666 472.86145,320.83011 473.59674,320.97385C474.53061,321.15643 475.42154,321.74579 476.0899,321.90201C476.85641,322.08118 477.84451,322.62833 478.41791,323.06601C479.2258,323.68268 480.00729,323.8826 480.91107,323.92117C481.65958,323.95313 482.64972,324.20831 483.41791,324.49133C484.36646,324.84082 485.13791,324.91599 486.07925,324.91666C487.08725,324.91736 488.06192,324.9223 488.24942,324.155C488.46091,323.28943 488.20004,322.32861 488.68991,321.55267C489.21912,320.71439 489.88989,320.31668 490.73657,319.71533L491.39258,319.28067L492.01108,318.59549L492.26859,317.77802" id="svg_5" stroke-width="3" stroke="#000" fill="none"/>
  <path t="15860,15980,15980,15980,15988,15988,15988,16004,16004,16004,16004,16020,16021,16021,16028,16029,16043,16044,16052,16059,16075,16075,16092,16092,16106,16106,16131,16131,16139,16139,16156,16156,16171,16171,16187,16187,16195,16195,16195,16211,16226,16243,16259,16404,16404,16411,16412,16435,16435,16435,16443,16443,16452,16452,16469,16485,16499,16515,16515,16523,16531,16531,16546,16555,16572,16572,16579,16579,16603,16619,16620,16620,16635,16635,16635,16643,16659,16675,16675,16675,16691,16691,16699,16700,16706,16706,16723,16723,16731,16731,16746,16746,16748,16795,16796,16860,16860,16876,16876,16876,16884,16908,16932,16932,16940,16940,16956,16956,16972,16972,16988,16988,16988,16988,16995,16995,16995,17004,17011,17020,17020,17036,17036,17043,17044,17052,17059,17068,17068,17068,17075,17075,17083,17083,17099,17100,17100,17107,17108,17108,17108,17124,17124,17155,17156,17157,17157,17157,17164,17164,17180,17180,17187,17188,17196,17211,17220,17220,17235,17236,17243,17259,17259,17259,17292,17299,17299,17300,17315,17315,17331,17331,17340,17356,17371,17372,17395,17412,17435,17435,17571" d="M325.25391,129.91667C323.20056,129.63266 322.23477,129.40854 321.55475,129.26933C320.58954,129.07175 319.72906,129.08075 318.80576,128.74966C317.77716,128.38081 317.30304,127.85642 316.75391,127.41666C315.94055,126.76533 315.20395,126.17277 314.25391,125.97916C313.58124,125.84209 312.57123,125.91666 311.77475,125.91666C310.58725,125.91666 309.79556,125.91666 308.85391,125.91666C307.9494,125.91666 307.08725,125.91666 306.25391,125.91666C305.27524,125.91666 304.50125,125.91666 303.59674,125.91666C302.8494,125.91666 301.85391,125.91666 301.05389,125.91666C300.05408,125.91666 299.27475,125.91666 298.27509,125.91666C297.44406,125.91666 296.4859,125.91666 295.75391,125.91666C294.58725,125.91666 293.75391,125.92156 292.92056,125.91666C292.01385,125.91133 291.23325,126.02907 290.35123,125.49133C289.64258,125.0593 288.85391,124.91651 287.9494,124.91666C286.93274,124.91683 286.00171,124.66954 285.42456,125.48867C285.02057,126.06205 285.25391,127.33784 285.25391,128.13133C285.25391,128.90683 285.02975,130.03416 285.42456,130.714C285.88446,131.50591 286.79965,131.74849 287.19257,132.73134C287.51996,133.55029 288.17017,134.07097 288.25391,134.91667C288.33273,135.71278 288.25391,136.67383 288.25391,137.56934C288.25391,138.43266 288.13321,139.40541 288.25839,140.21667C288.40228,141.14931 289.02271,141.78905 289.22858,142.742C289.37625,143.42549 289.65363,144.33812 290.42056,144.91667C291.04477,145.38757 291.84045,145.83887 292.36856,146.68333C292.79291,147.36189 293.05585,148.06044 293.8179,148.92067C294.35352,149.5253 295.1037,150.12465 295.77475,150.41667C296.48361,150.72516 297.51068,151.15445 298.05124,151.802C298.6391,152.50621 298.86191,153.33356 299.55841,154.1595C300.07669,154.77409 300.91794,155.19757 301.60123,155.61667C302.38351,156.0965 303.00128,156.67918 303.73923,157.40067C304.27097,157.92056 304.82944,158.46869 305.65259,159.03134C306.39606,159.53954 307.36774,159.90729 307.80725,160.58867C308.31104,161.36969 308.23221,162.16693 308.25256,163.14867C308.27225,164.09766 308.87411,164.78351 309.16858,165.48734C309.49362,166.2643 309.25391,167.31667 309.25391,168.11667C309.25391,169.1165 309.25391,169.89583 309.25391,170.89566C309.25391,171.614 309.25391,172.681 309.25391,173.28366C309.25391,174.31267 309.25391,175.03534 309.25391,176.09483C309.25391,177.05934 309.1488,177.90326 309.25525,178.94467C309.33887,179.76253 310.21005,180.20084 310.25256,180.88867C310.31631,181.92003 310.25391,182.666 310.25391,183.77367C310.25391,184.49533 310.06903,185.44006 310.27524,186.32733C310.50241,187.30486 311.17868,187.70166 311.68591,188.51801C312.15607,189.27469 312.18451,190.08289 312.25839,191.1685C312.30743,191.88887 312.61621,192.93298 312.75391,193.47917C312.98624,194.4007 313.14865,195.4364 313.19675,196.16034C313.267,197.21802 313.25323,197.862 313.25391,199.04967C313.25433,199.798 313.25333,200.76334 313.25391,201.60333C313.25458,202.60066 313.22696,203.42186 313.33923,204.23267C313.47891,205.24129 313.83215,205.87352 314.08725,206.91667C314.27728,207.69383 314.24527,208.75005 314.25391,209.506C314.26434,210.41685 314.7572,211.15303 315.08725,212.08333C315.37012,212.88065 315.25391,213.89517 315.25391,214.61217C315.25391,215.58867 315.25391,216.45934 315.25391,217.16733C315.25391,218.14867 315.10776,219.17291 315.58725,220.08333C315.87411,220.62801 316.66141,221.26553 317.01089,222.1165C317.31668,222.86107 317.25391,223.89517 317.25391,224.71533C317.25391,225.61667 317.25391,226.55267 317.25391,227.40067C317.25391,228.26401 317.25391,229.28067 317.25391,230.11667L317.25391,231.01683L317.25391,231.802L317.25391,232.742" id="svg_6" stroke-width="3" stroke="#000" fill="none"/>
  <path t="18277,18323,18323,18331,18331,18331,18339,18339,18346,18355,18355,18364,18364,18364,18371,18371,18380,18380,18387,18387,18395,18395,18395,18403,18403,18403,18411,18411,18419,18419,18435,18435,18435,18443,18443,18451,18451,18466,18483,18499,18499,18555,18555,18804,18828,18853,18915,18939,18939,18987,19035,19036,19066,19123,19124,19211,19219,19276,19276,19284,19285,19307,19323,19323,19339,19339,19339,19347,19347,19347,19355,19355,19363,19371,19371,19371,19379,19379,19379,19387,19403,19403,19410,19410,19426,19426,19435,19436,19452,19452,19459,19459,19467,19475,19491,19491,19499,19499,19506,19506,19523,19539,19539,19546,19546,19571,19587,19587,19595,19595,19611,19626,19643,19659,19669,19675,19699,19699,19723,19731,19763,19811,19811,19844,19844,19884,19900,19907,19931,19931,19947,19955,19955,19971,19988,19988,19996,20004,20012,20012,20028,20028,20043,20052,20060,20060,20076,20091,20107,20139,20147,20147,20155,20155,20179,20180,20188,20188,20212,20228,20228,20236,20237,20244,20267,20268,20299,20315,20315,20331,20355,20355,20404,20413,20413,20451,20451,20483,20483,20491,20491" d="M377.25391,234.91667C377.25391,232.90683 377.25391,232.13133 377.25391,231.08333C377.25391,230.15266 377.25391,229.52116 377.25391,228.51801C377.25391,227.57384 377.35571,226.66814 377.25125,225.714C377.16568,224.93251 376.68591,224.14867 376.25391,223.41667C375.8219,222.68466 375.38919,221.71892 375.17123,221.034C374.86404,220.06866 374.46265,219.32944 374.31107,218.31216C374.21774,217.68587 374.26645,216.4949 374.24326,215.68066C374.22687,215.10568 374.1087,213.91193 373.90125,213.02567C373.76764,212.45494 373.35773,211.25903 373.27475,210.45833C373.18658,209.60747 373.26349,208.86061 373.25256,207.86467C373.24219,206.91653 373.31528,206.25018 373.03256,205.181C372.83456,204.43221 372.30591,203.43546 372.26459,202.742C372.20868,201.8036 372.25391,200.81667 372.25391,199.91667C372.25391,199.1595 372.24435,198.26396 372.25391,197.40067C372.26434,196.45816 372.8645,195.92201 373.75391,195.91667C374.66455,195.91121 375.57523,195.91667 376.42859,195.91667C377.36856,195.91667 378.25391,195.91667 379.05389,195.91667C380.01108,195.91667 380.90659,195.92032 381.60123,195.91667C382.61795,195.91133 383.71979,195.66997 384.08725,194.91667C384.42676,194.22072 384.25391,193.26401 384.25391,192.40067C384.25391,191.41667 384.25391,190.43001 384.25391,189.67C384.25391,188.75 384.25391,187.964 384.25391,187.142C384.25391,186.08333 384.25391,185.15266 384.25391,184.52116C384.25391,183.51801 384.25391,182.57384 384.25391,181.66933C384.25391,180.75 384.27039,179.8606 384.08325,179.23C383.77817,178.20198 383.23114,177.45013 382.8219,176.686C382.40076,175.89963 382.40469,174.8779 382.13959,174.1595C381.84256,173.35463 381.00284,172.76399 380.58725,171.91667C380.21957,171.1671 380.12842,170.05977 379.73306,169.41667C379.20679,168.56061 378.68286,167.95 378.42056,167.08333C378.16641,166.24365 378.34052,165.31088 378.24326,164.506C378.13113,163.57803 377.73969,162.92206 377.37506,161.93817C377.07269,161.1223 376.37534,160.54364 375.73657,160.11667C374.87585,159.54135 374.35846,158.75851 374.27475,157.91667C374.19226,157.08716 374.29175,156.15834 373.73306,155.41667C373.14621,154.63762 372.58298,154.16875 372.30206,153.26849C372.06012,152.49321 371.10803,152.4129 370.42456,151.63133C369.87674,151.00487 369.89786,150.09416 369.30658,149.564C368.66098,148.98512 368.29251,148.2079 368.25525,147.39934C368.21097,146.43826 367.89035,145.62373 367.37506,144.81683C366.91064,144.08957 366.01694,144.14674 365.42325,143.34866C364.97052,142.74007 364.64343,141.92734 363.75391,141.91667C362.84329,141.90575 361.93259,141.91667 361.07925,141.91667C360.13925,141.91667 359.25391,141.91667 358.45392,141.91667C357.49673,141.91667 356.60123,141.91667 355.90659,141.91667C354.88989,141.91667 353.89255,142.06232 353.05258,141.63133C352.4332,141.31351 351.62387,140.57159 350.90659,140.27383C350.03433,139.91176 349.05389,139.91667 348.15375,139.91667C347.36856,139.91667 346.32797,140.19896 345.58725,139.75C344.81543,139.28218 344.1539,138.91667 343.25391,138.91667C342.49673,138.91667 341.5123,139.11284 340.73792,138.66068C340.00842,138.23471 339.9595,137.29611 339.25391,136.41667C338.76352,135.80548 337.90295,135.34312 336.93259,135.03816C336.27805,134.83246 335.22458,135.1281 334.45523,134.83133C333.56973,134.48976 333.51996,133.38094 333.20123,132.6265C332.879,131.86378 331.72864,132.12428 330.96375,131.8595C330.09448,131.55858 329.39325,130.93578 328.73657,130.918C327.75427,130.8914 326.72977,131.08548 325.90659,130.80234C325.06363,130.51239 324.66458,129.76733 323.94492,129.03101L323.28323,128.91933L322.25308,128.90767L321.54059,128.84467" id="svg_7" stroke-width="3" stroke="#000" fill="none"/>
  <path t="21747,21851,21859,21860,21860,21869,21875,21875,21891,21891,21901,21901,21908,21908,21916,21923,21923,21946,21946,21955,21955,21955,21955,21963,21979,21979,21979,21986,21986,21996,21996,22011,22011,22026,22026,22026,22035,22035,22043,22043,22043,22052,22075,22083,22099,22099,22131,22131,22131,22148,22155,22155,22226,22226" d="M284.25391,118.91666C283.43506,116.92567 282.4859,116.91666 281.75391,116.91666C281.02191,116.91666 279.89252,116.99596 279.05124,116.63267C278.24228,116.28334 277.4834,116.02121 276.50458,115.89133C275.5845,115.76925 274.81473,115.3109 273.93274,115.038C273.13928,114.7925 272.49472,114.34016 271.68323,114.002C270.90582,113.67803 269.84216,113.99322 269.01791,113.84467C268.06659,113.67321 267.30353,113.21534 266.77475,112.91666C266.02002,112.49036 265.00787,112.12962 264.08725,111.58334C263.55783,111.26919 262.90503,110.50916 262.05408,110.15967C261.30951,109.85388 260.27524,109.91928 259.3699,109.91666C258.59225,109.91441 257.785,109.8973 256.83258,109.69534C256.02112,109.52326 255.21765,109.21271 254.1754,109.03817C253.28157,108.88849 252.25391,108.91666 251.46457,108.91666C250.73924,108.91666 249.66454,108.9254 248.85391,108.91666C247.86441,108.906 247.49513,108.27711 247.08691,107.56483C246.57716,106.6754 245.74594,106.41902 245.02057,106.20333C243.94182,105.88257 243.15375,105.69534 242.49673,105.26933L241.60124,104.97383L240.7379,104.918" id="svg_8" stroke-width="3" stroke="#000" fill="none"/>
  <path t="22964,23051,23067,23075,23083,23083,23099,23099,23099,23107,23123,23123,23139,23139,23139,23139,23155,23163,23163,23163,23179,23179,23187,23187,23195,23195,23203,23218,23219,23227,23227,23234,23251,23259,23259,23275,23275,23283,23290,23291,23307,23307,23323,23346,23346,23347,23355,23355,23371,23371,23403,23403,23419,23419,23451,23475,23491,23491,23523,23523,23523,23531,23547,23554,23555,23563,23563,23587,23587,23587,23595,23595,23603,23603,23619,23635,23635,23643,23643,23652,23659,23668,23683,23683,23715,23715,23763,23763,23795,23795,23795,23819,23834,23835,23867,23875,23875" d="M210.25391,103.91666C212.26857,105.51667 212.65837,106.35484 213.4539,106.834C214.22632,107.29924 214.69722,108.00568 215.42058,108.75C215.86349,109.20575 216.60951,109.6 217.49673,110.21217C218.26117,110.73962 218.96407,110.95929 219.79657,111.58067C220.28358,111.94417 220.98262,112.66535 221.4859,113.06467C222.4086,113.79675 223.42937,114.06245 224.0899,114.35267C224.86633,114.69379 225.83826,115.23717 226.41791,115.48067C227.35368,115.87377 228.19006,115.88805 229.06857,116.36333C229.73438,116.72355 229.91913,117.92989 230.58723,118.58334C231.12114,119.10551 232.23329,118.87859 233.05257,118.91666C233.97154,118.95938 234.49211,119.70081 235.31641,119.864C236.24103,120.04705 237.16861,120.04627 237.83258,120.52734C238.63803,121.11091 239.24124,121.8287 240.01108,121.91217C240.90137,122.0087 241.79921,121.71638 242.75391,121.95834C243.64005,122.18292 244.23303,122.97924 244.85524,123.34867C245.79649,123.90753 246.63045,123.87874 247.50124,124.26933C248.17007,124.56935 249.08932,124.89748 249.85524,124.91534C250.84914,124.9385 251.78813,124.74311 252.73308,124.9375C253.60028,125.1159 254.24211,125.82874 255.06824,125.91217C256.01709,126.00799 256.75391,125.91666 257.4859,125.91666C258.71225,125.91666 259.57825,125.83819 260.42056,126.08334C261.28235,126.33414 262.12207,126.6525 262.87924,126.978C263.7973,127.37268 264.25403,127.98627 264.94058,128.34866C265.88824,128.84888 266.80911,128.60626 267.75391,129.08333C268.46786,129.44385 269.07275,129.91441 270.02191,129.91667C270.75391,129.91841 271.97858,129.64339 272.69141,129.9375C273.43799,130.24554 273.9584,130.9137 274.88989,130.91667C275.73792,130.91939 276.67105,130.81624 277.50125,131.27834C278.22229,131.67967 278.72357,132.41743 279.27475,132.91667C280.22772,133.77982 280.8197,134.21628 281.59674,134.55501C282.46902,134.93524 283.35391,135.13817 283.95392,135.62117L284.66458,136.306L285.42056,136.75L286.25391,136.89583" id="svg_9" stroke-width="3" stroke="#000" fill="none"/>
  <path t="24908,24931,24931,24939,24939,24955,24955,24955,24963,24963,24963,24963,24963,24963,24963,24971,24971,24979,24979,24995,24995,24995,25011,25011,25011,25019,25027,25027,25027,25035,25043,25043,25059,25059,25059,25066,25066,25083,25083,25083,25091,25091,25106,25116,25116,25123,25123,25131,25147,25155,25155,25155,25179,25179,25180,25203,25203,25211,25212,25219,25219,25228,25228,25243,25243,25259,25259,25299,25299,25299,25299,25307,25307,25323,25346,25346,25346,25371,25379,25379,25387,25387,25410,25427,25442,25459,25459,25466,25490,25490,25515,25547,25547,25571,25587,25587,25611,25611,25627,25627,25666,25667,25715,25970,25970,25995,26027,26027,26043,26066,26067,26083,26186,26186,26227,26227,26243,26243,26276,26291,26306,26331,26331,26346,26347,26354,26404,26451,26451,26475,26475,26484,26484,26515,26524,26524,26555,26651,26731,26731,26732,26732,26746,26779,26803,26811,26811,26836,26836,26947,26979,27139,27139,27307,27323,27323,27347,27459,27499,27499,27699,27699,27707" d="M384.25391,188.91667C384.25391,190.75267 384.25391,191.51801 384.25391,192.51666C384.25391,193.31667 384.24161,194.32516 384.27475,195.04167C384.32043,196.02972 384.41708,196.91705 384.5379,198.01933C384.60464,198.62839 384.67892,199.25803 384.75391,199.89583C384.90063,201.14357 384.98257,201.72597 385.13242,203.16617C385.2258,204.06387 385.15356,205.04056 385.36826,205.731C385.68237,206.74113 386.27725,207.43594 386.60574,207.96851C387.23706,208.99203 387.6701,209.64328 387.96725,210.43001C388.28784,211.27878 388.25391,212.25 388.25391,213.16733C388.25391,213.91133 388.07629,214.99417 388.42056,215.91667C388.69543,216.65321 389.16071,217.4567 389.2179,218.17799C389.28043,218.96666 389.25391,219.99516 389.25391,220.89583C389.25391,221.91667 389.1972,222.72585 389.33923,223.51666C389.52142,224.5312 390.01804,225.22939 390.19675,226.164C390.36975,227.06871 390.25391,227.91667 390.25391,228.89517C390.25391,229.71533 390.12714,230.63264 390.29556,231.45833C390.4642,232.285 390.94662,232.93321 391.43924,233.666C392.06583,234.5981 392.70682,235.21794 392.96725,235.88467C393.35379,236.87427 393.22247,237.6664 393.25406,238.77383C393.2757,239.53188 393.56824,240.39058 393.82858,241.12733C394.17334,242.10304 394.11557,242.93687 394.47525,243.89534C394.73416,244.58527 395.20184,245.40224 395.24326,246.19934C395.29779,247.24864 395.25391,247.88333 395.25391,248.89583C395.25391,249.55417 394.91617,251.02766 395.42456,251.62733C396.00201,252.30846 397.01361,252.39166 397.18192,253.20334C397.32715,253.90372 397.25391,255.10234 397.25391,256.01685C397.25391,256.802 397.25391,257.742 397.25391,258.43268C397.25391,259.50601 397.25391,260.41666 397.25391,261.32733C397.25391,262.23801 397.25391,262.91666 397.25391,264.03134C397.25391,264.91666 397.25391,265.71667 397.25391,266.55267C397.25391,267.56934 397.62079,268.34167 397.23257,269.26999C396.92917,269.99551 395.77371,269.87094 395.01108,270.63101C394.57611,271.06448 394.13058,272.1055 393.77475,272.89584C393.39514,273.73901 393.43848,274.65866 392.80725,275.306C392.1076,276.0235 391.25406,275.90625 390.27542,275.91666C389.25397,275.92752 388.45392,275.91666 387.61792,275.91666C386.60123,275.91666 385.89987,276.02368 384.87924,275.90601C383.91592,275.79495 383.05557,275.60931 382.49692,274.8165C382.02393,274.14529 382.25391,273.09134 382.25391,272.40067C382.25391,271.32733 382.25391,270.41666 382.25391,269.61218C382.25391,268.59534 382.20337,267.91534 382.25406,266.93817C382.29675,266.11472 383.00098,265.37875 383.2179,264.50601C383.43777,263.62137 383.24084,262.7059 383.25406,261.71683C383.26447,260.93729 383.24911,259.94363 383.86456,259.36334C384.58218,258.68671 385.22406,258.20828 385.25256,257.39932C385.28641,256.43808 385.15884,255.5687 385.58725,254.58333C385.89279,253.88052 386.19748,253.37238 386.77124,252.77C387.63007,251.86838 388.59106,251.6635 389.45258,251.91933C390.22925,252.14996 390.12112,253.23862 390.82324,254.03C391.32562,254.59627 392.65472,254.48471 393.16858,255.202C393.64572,255.86803 393.25391,256.802 393.25391,257.742C393.25391,258.75 393.25922,259.50604 393.25391,260.41666C393.24857,261.32739 393.03256,262.23801 392.75391,262.91666L392.3754,263.89517L392.25525,264.71533L392.13959,265.55951" id="svg_10" stroke-width="3" stroke="#000" fill="none"/>
  <path t="28604,28675,28683,28683,28698,28698,28714,28730,28730,28746,28746,28754,28779,28779,28811,28811,28827,28827,28850,28930,28930,28955,28962,28962,28978,28978,28994,29011,29019,29019,29027,29051,29067,29083,29106,29139,29139,29147,29147,29155,29171,29179,29202,29202,29203,29211,29211,29211,29227,29228,29235,29243,29259,29259,29267,29267,29274,29290,29299,29299,29315,29315,29338,29346,29386,29387,29395,29426,29426,29499,29499,29522,29522,29555,29555,29563,29573,29573,29602,29611,29611,29611,29626,29636,29643,29643,29659,29659,29667,29674,29699,29700,29707,29723,29739,29739,29747,29747,29755,29763,29779,29779,29795,29803,29803,29820,29843,29858,29859,29868,29875,29906,29906,29914,29938,29938,29946,29962,29970,29986,30018,30018,30034,30034,30074,30074,30099,30099,30123,30123,30123,30139,30139,30162,30179,30180,30180,30203,30203,30211,30219,30219,30236,30244,30266,30282,30282,30323,30323,30370,30378,30387,30387,30418,30434,30434,30456,30456,30456,30507,30514,30530,30563,30571,30571,30578,30626,30635,30643,30643,30699,30699,30755,30755,30755,30836,30836" d="M359.25391,130.91667C360.31525,129.28067 360.80951,128.4203 361.27475,127.91666C362.06448,127.06174 362.82993,126.66499 363.16858,125.71667C363.47269,124.86512 363.31516,124.02251 363.60657,123.264C363.94247,122.38963 364.05807,121.46729 364.54059,120.71667C364.99939,120.0029 365.99625,119.72248 366.54407,119.1595C367.29407,118.38875 367.09418,117.55515 367.26459,116.55267C367.41208,115.68515 368.09628,115.15431 368.75391,114.39584C369.28897,113.77872 369.76288,112.92872 370.08725,112.08334C370.39215,111.28867 371.27832,111.28315 372.01108,110.69517C372.69714,110.14466 373.08075,109.45929 373.73306,108.89584C374.36066,108.35374 374.65024,107.45958 375.08725,106.75C375.58441,105.94272 375.25391,104.91666 375.25391,104.1595C375.25391,103.264 375.25391,102.40067 375.25391,101.4375C375.25391,100.51667 375.25391,99.71533 375.25391,98.75C375.25391,97.875 375.25391,97.23 375.25391,96.23267C375.25391,95.41666 375.25391,94.60067 375.25391,93.37833C375.25391,92.57833 375.254,91.67384 375.25391,90.71667C375.25381,89.8165 375.19266,89.02251 374.90125,88.264C374.56534,87.38963 374.38,86.50813 373.96991,85.71667C373.52344,84.85501 373.25616,84.15951 373.25391,83.264C373.25174,82.40067 373.31226,81.40084 372.90125,80.61667C372.45673,79.76861 372.40607,79.01528 372.23257,78.102C372.06326,77.2106 371.19495,77.05614 370.27524,76.69534C369.58923,76.42622 368.77115,75.96371 367.8494,75.92117C366.85629,75.87533 366.0899,75.91666 365.13925,75.91666C364.25391,75.91666 363.45392,75.91666 362.58191,75.91666C361.71124,75.91666 360.75391,75.91666 360.02191,75.91666C358.9259,75.91666 358.05258,75.91666 357.08725,75.91666C356.25391,75.91666 355.42056,75.91666 354.55841,75.91666C353.6539,75.91666 352.73306,75.91666 351.7699,75.91666C351.07925,75.91666 350.01108,75.91666 349.1539,75.91666C348.25391,75.91666 347.49673,75.91666 346.60123,75.91666C345.73792,75.91666 344.76151,75.77139 343.85391,75.92734C343.01947,76.07071 342.39026,76.73844 341.42859,76.88067C340.43079,77.02824 339.66458,76.91666 338.75391,76.91666C337.84323,76.91666 336.93259,76.91666 336.07925,76.91666C335.13925,76.91666 334.01077,76.57382 333.42056,77.25C332.96869,77.7677 332.89734,78.8594 331.93259,78.91666C331.2551,78.95688 330.13159,78.60187 329.37524,79.138C328.66791,79.6394 328.40176,80.41496 327.96725,81.118C327.48892,81.89198 326.7699,82.40067 326.25391,82.91666C325.42056,83.75001 324.74417,84.21561 324.42056,85.08334C324.11777,85.89523 324.25391,86.91666 324.25391,87.71667C324.25391,88.51667 324.25391,89.51217 324.25391,90.2595C324.25391,91.302 324.25391,92.25 324.25391,92.922C324.25391,93.91133 324.25391,94.946 324.25391,95.714C324.25391,96.55267 324.25391,97.56934 324.25391,98.264C324.25391,99.28067 324.25391,100.21667 324.25391,101.118C324.25391,102.08334 324.25391,102.91666 324.25391,103.75C324.25391,104.61217 324.25391,105.51667 324.25391,106.4375C324.25391,107.40067 324.25391,108.09133 324.25391,109.164C324.25391,110.08334 324.25391,110.75267 324.25391,111.91666C324.25391,112.706 324.25391,113.43134 324.25391,114.39584C324.25391,115.31667 324.23367,116.22787 324.67923,116.902C325.17017,117.64478 325.25323,118.434 325.25391,119.39584C325.25449,120.21667 325.04233,121.3178 325.69656,121.7955C326.40952,122.31607 327.09915,122.64795 327.35925,123.32567C327.75089,124.34613 328.27475,124.89584 328.77124,125.43134L329.62857,126.29134L330.13791,126.80067" id="svg_11" stroke-width="3" stroke="#000" fill="none"/>
  <path t="32723,32875,32939,32939,32986" d="M335.25391,106.91666C336.27475,106.91666 337.23242,106.91666 338.05258,106.91666L338.95392,106.91666" id="svg_12" stroke-width="3" stroke="#000" fill="none"/>
  <path t="33604,33698,33787,33795,33795,33819" d="M352.25391,109.91666C353.95392,109.91666 354.88989,109.91666 355.73657,109.91534L356.68457,109.83134L357.30206,109.26933" id="svg_13" stroke-width="3" stroke="#000" fill="none"/>
  <path t="34859,34938,34987,35003,35003,35035,35083,35123,35123,35330,35347,35347,35378,35427,35507,35507,35619" d="M337.25391,123.91666C339.05389,123.91666 339.88989,123.91666 340.73792,123.91666C341.60123,123.91666 342.61792,123.91666 343.55389,123.91666C344.35406,123.91666 345.13925,123.91666 346.07925,123.91666C347.08725,123.91666 347.9494,123.91666 348.85391,123.91666C349.66458,123.91666 350.57523,123.91666 351.42859,123.91666L352.36856,123.91666" id="svg_14" stroke-width="3" stroke="#000" fill="none"/>
 </g>
</svg>