<svg width="280" height="420" xmlns="http://www.w3.org/2000/svg" xmlns:svg="http://www.w3.org/2000/svg" xmlns:xlink="http://www.w3.org/1999/xlink">
 <!-- Created with SVG-edit - http://svg-edit.googlecode.com/ -->
 <g display="inline" class="layer">
  <title>Layer 1</title>
  <path t="0,212,212,287,335,335,367,367,392,416,447,447,447,471,503,503,543,543,559,575,583,583,607,623,623,623,639,664,727,775,777,777,824,824,839,863,863,879,887,897,903,919,928,928,944,944,944,960,960,961,975,975,991,991,1076,1119,1135,1135,1176,1176,1191,1231,1239,1247,1279,1303,1303,1311,1311,1343,1343,1367,1382,1383,1398,1399,1431,1439,1487,1487,1503,1503,1512,1512,1543,1543,1543,1582,1583,1583,1614,1631,1631,1655,1655,1662,1663,1671,1679,1680,1680,1687,1695,1703,1703,1711,1711,1742,1751,1751,1774,1775,1791,1791,1798,1807,1815,1823,1839,1847,1863,1863,1879,1897,1897,1904,1904,1919,1919,1927,1951,1961,1961,1967,1975,1975,1991,1991,1991,2007,2007,2008,2014,2031,2039,2046,2063,2087,2087,2088,2111,2111,2136,2144,2167,2183,2191,2214,2215,2254,2255,2262,2263,2279,2287,2303,2326,2327,2391,2391,2415,2438,2439,2463,2463,2486,2487,2503,2503,2518,2535,2560,2567,2567,2590,2622,2623,2647,2647,2662,2670,2687,2742,2752,2752,2782,2783,2783,2791,2799,2822,2846,2863,2887,2888,2903,2903,2939,2939,2958,2982,2983,2999,3031,3031,3070,3087,3103,3103,3135,3135,3212,3212,3222,3222,3239,3278,3295,3295,3369,3369,3423,3423,3439,3455,3529,3551,3899,3899,3959,3959,3983,4006,4007,4022,4135,4135,4158,4159,4183,4206,4246,4322,4322,4322,4332,4360,4360,4376,4376,4399,4495,4505,4505,4519,4520,4528,4529,4535,4544,4553,4569,4642,4642,4652,4688,4710,4711,4742,4758,4775,4775,4791,4800,4862,4935,4935,4974,4975,5014,5015,5038,5184,5207,5510,5534,5535,5566,5567,5645,5645,5655,5709,5809,5839,5878,5879,6422,6479,6487,6527,6544,6554,6799,6799,6833,6833,6833,7026,7026,7048,7048,7078,7148,7158,7158,7198,7262,7262,7272,7272,7295,7295,7326,7382,7406,7407,7489,7489,7535,7566,7567,7582,7772,7871,7871,7879,7895,7895,7904,8157,8157,8167,8167,8191,8230,8285,8285,8318,8319,8374,8406,8529,8529,8645,8645,8749,8749,8782,8870,8871,8879,8982,9015,9015,9158,9158,9183,9184,9191,9222,9254,9255,9286,9310,9342,9374,9375,9391,9392,9406,9407,9430,9478,9518,9558,9806,9816,9848,9979,10002,10003,10022,10245,10245,10647,10790,10800,10831,10942,10942,10976,11039,11055,11095,11096,11143,11175,11175,11183,11184,11343,11353,11425,11486,11486,11653,11663,11663,12123,12123,12293,12327,12375,12410,12447,12448,12471,12495,12519,12519,12535,12559,12577,12577,12615,12615,12696,12696,12743,12791,12823,12824,13434,13487,13535,13536,13663,13711,13776,13808,13816,13816,13863,13863,13903,13927,13951,13959,14073,14111,14111,14186,14186,14263,14619,14619,14663,14664,14776,14815,14847,14847,14895,14896,14919,14920,14927,14975,15069,15069,15079,15079,15119,15151,15167,15199,15200,15247,15274,15295,15327,15337,15344,15345,15359,15399,15399,15431,15447,15471,15479,15495,15511,15567,15585,15615,15631,15632,15679,15680,15703,15735,15759,15775,15799,15800,15831,15888,15889,15905,15906,15927,15935,15936,15991,16023,16047,16087,16143,16143,16175,16175,16192,16192,16199,16223,16239,16247,16263,16264,16279,16311,16351,16351,16352,16375,16383,16384,16407,16423,16440,16455,16495,16504,16504,16983,16983,17009,17031,17063,17095,17119,17135,17175,17176,17223,17224,17247,17247,17255,17272,17287,17303,17335,17336,17375,17399,17400,17400,17410,17410,17411,17424,17425,17426,17431,17447,17448,17463,17464,17487,17487,17535,17536,17551,17583,17607,17615,17655,17656,17687,17719,17728,17728,17823,17871,17880,17979,18013,18465,18556,18639,18671,18695,18695,18727,18728,18783,18783,18815,18816,18831,18871,18871,18879,18959,18959,18984,19015,19071,19072,19073,19087,19088,19119,19135,19167,19167,19226,19296,19296,19327,19328,19351,19375,19399,19399,19407,19439,19479,19511,19512,19520,19520,19536,19536,19559,19607,19631,19656,19687,19695,19779,19779,19903,19903,19943,19944,20000,20031,20039,20055,20071,20079,20079,20103,20151,20175,20199,20199,20217,20217,20218,20231,20240,20263,20352,20352,20375,20384,20407,20407,20423,20423,20471,20511,20636,20636,20646,20807,20817,20839,20848,20863,20879,20880,20895,20896,20951,20959,20991,21007,21009,21039,21119,21129,21167,21176,21207,21231,21247,21248,21271,21284,21287,21296,21296,21321,21335,21336,21361,21362,21363,21367,21378,21385,21400,21401,21407,21408,21415,21416,21423,21431,21439,21448,21471,21471,21479,21495,21496,21528,21559,21559,21576,21646,21671,21672,21695,21703,21704,21743,21759,21760,21768,21807,21808,21833,21855,21871,21872,21911,21927,21927,21967,21968,21968,21983,22000,22001,22055,22055,22063,22079,22095,22111,22121,22143,22151,22152,22169,22169,22170,22191,22191,22242,22242,22252,22252,22303,22319,22319,22351,22375,22399,22399,22415,22416,22439,22439,22440,22519,22529,22567,22599,22599,22631,22663,22671,22719,22826,22863,22864,22903,22903,22911,22911,22927,22937,22983,22983,23052,23052,23119,23119,23119,23159,23159,23272,23272,23297,23311,23328,23353,23360,23431,23463,23463,23479,23479,23503,23535,23559,24262,24349,24349,24359,24399,24423,24423,24471,24472,24526,24526,24567,24567,24607,24655,24687,24735,24736,24812,25519,25616,25742,25752,25752,25799,25799,25863,25864,25946,26007,26319,26462,26462,26503,26504,26599,26599,26609,26623,26650,26679,26711,26751,26752,26807,26950,26950,26983,27201,27276,27286,27303,27312,27376,27386,27386,27400,27487,27542,27542,27552,27583,27591,27712,27712,27751,27791,27791,27856,27871,27872,27911,27942,27943,27975,28006,28008,28008,28031,28047,28087,28127,28127,28174,28223,28278,28361,28361,28574,28574,28706,28706,28706,28941,28974,29014,29070,29071,29103,29142,29143,29174,29223,29223,29239,29278,29279,29295,29310,29335,29350,29351,29406,29430,29431,29462,29463,29464,29479,29480,29495,29510,29527,29528,29537,29554,29555,29583,29591,29658,29686,29695,30181,30191" d="M52.72569,319.38889C50.72486,319.3844 49.68763,319.8786 48.89719,319.02722C48.3372,318.42404 48.72569,317.38889 48.72569,316.4104C48.72569,315.59021 48.85978,314.78461 49.57636,314.39288C50.41793,313.93283 50.52224,313.07709 50.80836,312.24088C51.10659,311.36926 52.01275,311.00793 52.61103,310.58755C53.35781,310.06284 54.24943,309.69824 55.08969,309.41422C55.93415,309.12878 56.75596,308.63708 57.52569,308.3049C58.30647,307.96796 59.26703,307.50134 59.96569,307.41422C60.66214,307.32736 61.63399,306.81982 62.33636,306.36356C63.09046,305.87366 63.90168,305.40347 64.55103,304.97821C65.25211,304.51907 65.80032,303.87531 66.31503,303.25021C66.97261,302.4516 67.48592,301.77335 67.77836,301.09421C68.13007,300.2774 68.72344,299.68439 68.72569,298.78888C68.72795,297.88889 68.72569,296.97821 68.72569,296.06723C68.72569,295.34723 68.70014,294.22153 68.7347,293.43622C68.77094,292.61261 69.01752,291.5322 69.43102,290.84604C69.83582,290.17432 70.49316,289.41537 70.65369,288.59955C70.85574,287.57275 70.72147,286.77899 71.15102,285.98889C71.59949,285.164 71.72569,284.22223 71.72569,283.56357C71.72569,282.55554 71.72569,281.69339 71.72569,280.78888C71.72569,279.88889 71.61587,278.87411 72.24653,278.38889C72.92411,277.86755 73.62114,277.23074 73.70486,276.38889C73.78735,275.55939 73.6939,274.6355 73.73019,273.73621C73.75829,273.04013 74.26461,272.08371 74.60436,271.28873C74.92331,270.54242 75.0514,269.49365 75.52702,268.95822C76.16496,268.24005 77.04351,267.87827 77.55903,267.05554C77.93465,266.45609 77.79032,265.24182 78.48736,264.75055C79.26064,264.20554 80.19692,264.3392 80.84169,263.53421C81.33369,262.91995 81.41628,262.29547 82.04686,261.31055C82.4977,260.60635 83.23814,260.16266 83.61136,259.14606C83.94414,258.23959 83.86053,257.47729 84.43102,256.73621C84.98671,256.01437 85.62858,255.28535 85.72302,254.50488C85.83614,253.57007 86.01923,252.51361 86.57636,252.02489C87.12203,251.54622 87.62135,250.67984 87.74653,249.86806C87.89861,248.88182 88.25433,248.08931 89.04686,247.63171C89.78911,247.20314 90.63536,246.93231 90.94703,246.06738C91.20223,245.35916 91.55717,244.38855 91.70036,243.59955C91.8899,242.55511 92.41089,241.98526 92.66853,241.08888C92.9173,240.22336 93.33591,239.651 93.68969,238.95288C94.08058,238.18152 93.56293,237.13202 93.94703,236.28888C94.30237,235.50887 94.69527,234.75238 94.72703,233.90355C94.76146,232.98334 94.93977,232.18642 95.22569,231.40971C95.59486,230.40689 95.52022,229.55309 95.78286,228.68889C96.05173,227.80418 96.93271,227.37073 97.36852,226.68889C97.89519,225.8649 98.18152,224.97478 98.61236,224.41821C99.22285,223.62956 99.73318,222.87288 100.07303,222.33705C100.71838,221.31952 101.14634,220.66394 101.43903,219.87555C101.78767,218.93643 101.48282,217.95406 101.73019,217.09338C101.9509,216.3255 102.70809,215.82645 102.72586,214.84622C102.73869,214.13826 102.63248,213.34937 103.00969,212.35956C103.32349,211.53615 103.72036,210.78893 103.72569,209.88889C103.73103,208.98891 103.72569,208.08888 103.72569,207.18889C103.72569,206.28856 103.72569,205.41821 103.72569,204.62088C103.72569,203.63956 103.72569,202.72221 103.72569,201.81023C103.72569,200.98889 103.72569,200.08888 103.72569,199.18755C103.72569,198.22221 103.72569,197.38889 103.72569,196.41039C103.72569,195.69339 103.72569,194.75288 103.72569,193.90355C103.72569,192.98439 103.72569,191.98889 103.72569,191.18889C103.72569,190.18906 103.72569,189.40971 103.72569,188.41039C103.72569,187.69339 103.72569,186.78888 103.72569,185.88889C103.72569,184.97823 103.72569,184.06755 103.72569,183.21422C103.72569,182.27422 103.72569,181.38889 103.72569,180.50356C103.72569,179.56355 103.72569,178.87288 103.72569,177.79956C103.72569,176.98889 103.72569,176.08888 103.72569,175.18755C103.72569,174.22221 103.6712,173.35384 103.89236,172.38889C104.03173,171.78078 104.54762,170.89821 104.68969,170.02489C104.8401,169.10034 104.57613,168.17635 104.72586,167.28905C104.86986,166.43575 105.59991,165.94504 105.75102,165.16756C105.94142,164.18794 106.30653,163.437 106.55903,162.55556C106.80062,161.71219 106.71386,160.7374 107.00969,159.90489C107.2606,159.19881 107.68298,158.2773 107.72569,157.38889C107.76821,156.50458 107.48988,155.4892 107.89236,154.72221C108.33044,153.88737 108.5469,153.25229 109.16853,152.41039C109.62275,151.79521 110.65608,151.49046 111.18403,150.88889C111.80094,150.18593 111.56979,149.09369 112.07836,148.44156C112.56377,147.81911 112.63425,147.05875 112.7617,146.21422C112.90696,145.25166 113.48878,144.66628 113.66853,143.73622C113.8327,142.8868 113.72569,141.90971 113.72569,140.98889C113.72569,140.08888 113.72569,139.18889 113.72569,138.28873C113.72569,137.50356 113.72569,136.56355 113.72569,135.87288C113.72569,134.88889 113.72569,133.90489 113.72569,133.04155C113.72569,132.14606 113.72569,131.18889 113.72569,130.28888C113.72569,129.38889 113.72569,128.58888 113.72569,127.68889C113.72569,126.78889 113.72569,125.96755 113.72569,125.05555C113.72569,124.13822 113.72569,123.39422 113.72569,122.35955C113.72569,121.38889 113.72569,120.63172 113.72569,119.73622C113.72569,118.87289 113.72569,117.90972 113.72569,116.97822C113.72569,116.06738 113.72569,115.36805 113.72569,114.38889C113.72569,113.59956 113.72569,112.55555 113.72569,111.69339C113.72569,110.78889 113.86778,109.87589 113.71503,108.98888C113.57155,108.15575 112.81359,107.40257 112.73019,106.68889C112.62574,105.79496 112.72569,104.86805 112.72569,103.90488C112.72569,103.21422 112.72569,102.14605 112.72569,101.28889C112.72569,100.38889 112.72569,99.58889 112.72569,98.68889C112.72569,97.78889 112.72569,96.86805 112.72569,95.90356C112.72569,95.17822 112.72569,94.18906 112.72569,93.40972C112.72569,92.41039 112.70767,91.59003 112.72569,90.68889C112.7437,89.78835 113.34382,89.07855 113.64036,88.18889C113.92628,87.33108 113.72569,86.50356 113.72569,85.55289C113.72569,84.78755 113.72569,83.79339 113.72569,83.04605C113.72569,82.02489 113.72569,81.08889 113.72569,80.18889C113.72569,79.28889 113.72569,78.38889 113.72569,77.58889C113.72569,76.68889 113.3714,75.70511 113.74653,74.90972C114.07919,74.20438 115.26857,74.64287 116.12569,74.36755C117.05031,74.07056 117.30251,73.07289 118.26852,72.63172C118.94262,72.32387 119.79051,72.4052 120.80402,72.16756C121.49056,72.00658 122.58327,71.63361 123.31503,71.36356C124.1631,71.05058 124.99004,70.62428 125.72569,70.22222C126.46117,69.82027 126.63193,68.78121 127.29636,68.18889C127.86649,67.68063 128.94374,67.32199 129.50436,66.98888C130.42569,66.44144 130.82878,65.71149 131.52702,65.30489C132.24879,64.88459 132.86763,64.08942 133.20486,63.38889C133.6633,62.43657 133.73785,61.54 134.24652,60.88889C134.84639,60.12102 135.37747,59.56269 135.77837,58.68888C136.11116,57.9635 136.74103,57.17743 137.42569,56.74605C138.17621,56.27318 139.20969,56.38889 140.07303,56.38889C140.97302,56.38889 141.89236,56.38881 142.72569,56.38889C143.70419,56.38897 144.64243,56.3297 145.20486,56.90972C145.84033,57.56506 145.89236,58.55555 146.22569,59.38889C146.55902,60.22222 146.60406,61.21955 147.24652,61.86805C147.88521,62.51274 148.51009,62.86153 148.78703,63.57422C149.17065,64.56142 149.94139,64.93389 150.70419,65.48888C151.34251,65.9533 152.01495,66.69979 152.72569,67.38889C153.31691,67.9621 154.16702,68.27275 154.92569,68.67289C155.78407,69.12561 156.48285,69.38663 157.38286,69.38889C158.13019,69.39075 159.12436,69.38889 159.88969,69.38889C160.96852,69.38889 161.8257,69.38889 162.72569,69.38889C163.5257,69.38889 164.42569,69.38889 165.3257,69.38889C166.24652,69.38889 167.21103,69.38889 167.93636,69.38889C168.92552,69.38889 169.70486,69.38889 170.70419,69.38889C171.52435,69.38889 172.42569,69.38889 173.3257,69.38889C174.22569,69.38889 175.12569,69.38821 176.0257,69.38889C176.92436,69.38956 177.6971,69.74476 177.72569,70.68889C177.75298,71.58981 177.72569,72.27422 177.72569,73.21422C177.72569,74.22222 177.36053,75.18175 177.76169,75.95289C178.15675,76.71232 178.44353,77.27416 178.84003,78.08889C179.20857,78.84616 180.40733,79.0666 180.70436,79.98888C180.98035,80.84579 180.72569,81.69339 180.72569,82.71022C180.72569,83.38889 180.80829,84.37073 180.72569,85.38889C180.66833,86.09584 179.9164,86.56416 179.29369,87.18889C178.60965,87.87513 178.77866,88.92365 178.37303,89.68889C177.92462,90.53482 177.57852,91.15488 177.15103,92.02489C176.74791,92.84531 176.87166,93.62881 176.44035,94.50356C176.06146,95.27202 175.05112,95.804 174.78285,96.68889C174.52122,97.55192 174.72569,98.48888 174.72569,99.38889C174.72569,100.18889 174.72569,101.08889 174.72569,101.90972C174.72569,102.87289 174.72569,103.73622 174.72569,104.63172C174.72569,105.59022 174.81343,106.56429 174.70436,107.21422C174.52972,108.25485 173.70255,108.5788 173.05902,109.38889C172.57915,109.99297 172.72569,110.98888 172.72569,111.90972C172.72569,112.87289 172.72569,113.56355 172.72569,114.50356C172.72569,115.48888 172.70033,116.38929 172.72569,117.18889C172.75429,118.09025 173.4119,118.81125 173.66853,119.68889C173.92165,120.55445 173.73015,121.48907 173.72569,122.27422C173.72035,123.21426 173.68242,123.9241 173.22569,124.86805C172.81947,125.70761 172.84967,126.5975 172.72552,127.48872C172.6138,128.29076 171.87529,128.83788 171.70036,129.57422C171.4774,130.51276 171.07115,131.21562 170.66435,132.02489C170.2209,132.90707 169.78705,133.47905 168.89236,134.05556C168.14354,134.53809 168.02264,135.04535 168.60452,135.61038C169.25125,136.23837 169.77446,136.8461 170.55902,137.38889C171.23071,137.85359 171.93272,138.40704 172.36853,139.08888C172.89519,139.91287 173.17758,140.77415 173.82553,141.48906C174.30161,142.01433 174.56792,142.88783 174.77837,143.73622C175.00507,144.6501 175.98506,144.86554 176.55902,145.55556C177.10248,146.20891 176.84337,147.16998 177.30035,147.98889C177.73157,148.76161 178.17941,149.54346 178.83553,150.03622C179.48663,150.52524 180.36356,150.73511 180.74036,151.53822C181.12231,152.35233 181.40211,153.04077 181.80969,153.82089C182.22972,154.62486 182.69783,155.19064 182.72569,156.08888C182.75499,157.033 183.4144,157.48756 183.80969,158.19022C184.26929,159.00716 184.60956,159.83022 185.00969,160.58888C185.4624,161.44727 185.72343,162.14604 185.72569,163.04155C185.72786,163.90489 185.72569,164.86806 185.72569,165.78888C185.72569,166.68889 185.56198,167.64618 185.94702,168.48889C186.25282,169.15819 186.71527,169.90955 186.72569,170.87422C186.73352,171.5995 186.72569,172.58871 186.72569,173.36806C186.72569,174.36739 186.72569,175.38889 186.72569,176.18889C186.72569,177.08888 186.72569,177.98889 186.72569,178.88889C186.72569,179.79956 186.72569,180.71039 186.72569,181.40971C186.72569,182.38889 186.72569,183.17822 186.72569,184.22221C186.72569,185.08438 186.72569,185.98889 186.72569,186.88889C186.72569,187.78888 186.59402,188.73895 186.94702,189.48889C187.31206,190.26442 187.72035,190.98885 187.72569,191.93056C187.73137,192.93153 187.72569,193.63956 187.72569,194.38356C187.72569,195.41821 187.72569,196.38889 187.72569,197.18889C187.72569,198.08888 187.72569,198.98889 187.72569,199.88889C187.72569,200.78888 187.72569,201.69339 187.72569,202.71022C187.72569,203.38889 187.72569,204.36739 187.72569,205.18755C187.72569,206.08888 187.72569,206.98889 187.72569,207.88889C187.72569,208.78888 187.72569,209.68889 187.72569,210.58888C187.72569,211.48923 187.72569,212.35956 187.72569,213.15689C187.72569,214.13821 187.72569,215.05556 187.72569,215.96756C187.72569,216.78888 187.72569,217.68889 187.72569,218.58888C187.72569,219.48889 187.72569,220.38889 187.72569,221.18889C187.72569,222.06088 187.76379,223.16145 187.68402,223.90971C187.59848,224.71205 187.18967,225.72952 186.68402,226.36806C186.33934,226.80333 185.51256,227.57578 184.94702,228.17822C184.28012,228.88866 183.76173,229.75056 183.72569,230.59155C183.69281,231.35886 183.76709,232.3976 183.6897,233.13821C183.57297,234.25522 183.19359,234.83707 182.52702,235.58888C182.00203,236.18103 181.91167,237.11575 181.6897,237.98889C181.47049,238.85117 181.0116,239.81197 180.28302,240.26755C179.67108,240.65019 178.74661,240.90898 178.72569,241.79956C178.7043,242.70981 178.80763,243.59663 178.30035,244.32756C177.84222,244.98767 177.71503,245.77821 177.22569,246.38889C176.73636,246.99956 176.72569,247.98889 176.72569,248.88889C176.72569,249.78888 176.72569,250.68889 176.72569,251.48906C176.72569,252.27422 176.63406,253.25589 176.89636,253.99022C177.27608,255.05327 178.01505,255.46519 178.4827,256.3674C178.82977,257.03699 178.7079,258.08276 179.43553,258.68887C180.01674,259.173 180.87866,259.84128 181.72569,260.22223C182.38101,260.51694 183.53268,260.38013 183.71503,261.07156C183.99213,262.12238 183.72569,262.90973 183.72569,263.70621C183.72569,264.70221 183.72569,265.54221 183.72569,266.50354C183.72569,267.48889 183.72569,268.38889 183.72569,269.18887C183.72569,270.02487 183.72569,270.87421 183.72569,271.7934C183.72569,272.78757 183.72569,273.55289 183.72569,274.50354C183.72569,275.48889 183.72569,276.38889 183.72569,277.18887C183.72569,278.0889 183.72569,278.98889 183.72569,279.79956C183.72569,280.71039 183.72569,281.59955 183.72569,282.58871C183.72569,283.36804 183.72569,284.3674 183.72569,285.18756C183.72569,286.0889 183.72569,286.98889 183.72569,287.88889C183.72569,288.78888 183.72569,289.68887 183.72569,290.5889C183.72569,291.48923 183.72569,292.20322 183.72569,293.15689C183.72569,293.88889 183.72569,295.05554 183.72569,295.84723C183.72569,296.78888 183.55769,297.70496 183.72702,298.58755C183.87216,299.34402 185.00533,299.17975 185.82553,299.61038C186.46896,299.94821 186.65808,301.15784 187.43019,301.3844C188.32402,301.64667 189.2726,301.19608 190.07303,301.56039C190.80168,301.89203 191.12106,302.93744 191.52435,303.5369C192.1138,304.41309 193.13385,304.27231 194.0257,304.39337C194.84708,304.50488 195.36284,305.16418 196.12569,305.77823C196.87123,306.37836 197.82587,306.38889 198.61102,306.38889C199.55103,306.38889 200.2417,306.38889 201.31503,306.38889C202.24652,306.38889 203.07663,306.20337 203.86436,306.4249C204.78859,306.68478 205.35616,307.22049 206.22569,307.40973C207.07198,307.5939 207.96945,308.04379 208.60452,308.61038C209.27719,309.21051 209.72054,309.93494 210.55902,310.22223C211.40062,310.51059 212.19923,310.91318 212.67302,311.68439C213.07806,312.34369 213.89452,312.79282 214.28969,313.57422C214.67471,314.33554 215.20886,314.99606 215.64037,315.67422C216.13351,316.44928 215.81438,317.49329 215.72569,318.38889C215.64195,319.23459 214.72569,319.38889 213.92569,319.38889C213.0257,319.38889 212.12569,319.38889 211.20486,319.38889C210.2417,319.38889 209.55103,319.38889 208.47836,319.38889C207.55902,319.38889 206.88969,319.38889 205.72569,319.38889C204.93636,319.38889 204.21103,319.38889 203.24652,319.38889C202.3257,319.38889 201.42119,319.38889 200.55902,319.38889C199.72569,319.38889 198.74702,319.38889 197.97302,319.38889C197.07303,319.38889 196.20969,319.38889 195.24652,319.38889C194.3257,319.38889 193.42569,319.38889 192.5257,319.38889C191.62552,319.38889 190.84036,319.38889 189.90036,319.38889C188.89236,319.38889 188.13635,319.38889 187.20486,319.38889C186.2417,319.38889 185.55103,319.38889 184.48286,319.38889C183.62569,319.38889 182.72569,319.38889 181.92569,319.38889C180.96852,319.38889 180.07297,319.39975 179.20969,319.38889C178.3615,319.3782 177.56934,318.78833 177.12569,318.23956C176.48489,317.44696 175.68903,317.06274 174.92569,316.67288C174.17279,316.28836 173.13182,316.45306 172.5257,315.82089C171.91522,315.18417 171.31459,314.46622 170.40436,314.3884C169.72534,314.33035 168.83762,313.92361 168.36169,313.11288C167.98508,312.47134 167.34631,311.64774 166.72569,311.05554C166.11363,310.47153 165.56262,309.71271 164.74652,309.40973C163.89864,309.09494 163.34062,308.48102 162.75102,307.96356C162.11327,307.40387 161.84096,306.55493 161.27902,305.99954C160.56609,305.29489 159.59464,305.53024 158.89236,304.88889C158.19168,304.24899 158.11295,303.34555 157.62552,302.53189C157.16359,301.7608 156.42622,301.24698 155.72569,300.90973C154.77338,300.45129 153.87633,300.37735 153.22569,299.86804C152.45844,299.26743 152.31114,298.39871 151.64169,297.67422C151.12775,297.11804 150.04897,297.07614 149.37836,296.68439C148.44545,296.1394 147.9875,295.59598 147.5257,294.62222C147.19443,293.92371 147.1682,292.89813 146.12569,292.4209C145.32486,292.05429 144.79724,291.78186 144.1577,291.18887C143.51089,290.58914 143.00389,289.94653 142.72119,289.09338C142.46988,288.33496 141.92084,287.74213 141.36403,287.09338C140.73347,286.35873 139.68645,286.52493 138.89236,286.22223C138.07312,285.90991 137.32191,285.14883 137.01103,284.50354C136.59219,283.63416 136.52673,282.54208 135.72569,282.38889C134.97989,282.24625 134.05032,282.07382 133.37836,281.68439C132.44791,281.14517 132.01811,280.47668 131.20486,279.90973C130.47095,279.39807 129.50284,279.49881 128.61102,279.10489C127.87099,278.77802 127.12574,278.39423 126.22569,278.38889C125.32571,278.38354 124.42569,278.38889 123.5257,278.38889C122.62569,278.38889 121.72569,278.38889 120.96853,278.38889C120.07303,278.38889 119.20969,278.38889 118.24653,278.38889C117.32569,278.38889 116.42569,278.38889 115.5257,278.38889C114.62553,278.38889 113.83421,278.29221 112.91103,278.39957C111.95171,278.51114 111.63655,279.46014 111.07903,279.98889C110.33159,280.69775 109.49896,280.9136 108.74736,281.48904C108.12329,281.96683 107.77283,282.87018 107.73019,283.73621C107.68616,284.63065 107.72569,285.5889 107.72569,286.48889C107.72569,287.38889 107.72569,288.18887 107.72569,289.0889C107.72569,289.98889 107.72569,290.81021 107.72569,291.72223C107.72569,292.65021 107.72569,293.44073 107.72569,294.46722C107.72569,295.34723 107.72569,296.22223 107.72569,297.08438C107.72569,297.98889 107.72346,298.88889 107.72569,299.78888C107.72794,300.69788 107.79702,301.36325 108.07836,302.39871C108.28987,303.17715 108.59027,304.21808 108.66853,304.92722C108.75647,305.72412 108.72569,306.7529 108.72569,307.68887C108.72569,308.5889 108.72569,309.48889 108.72569,310.38889C108.72569,311.18887 108.7619,312.02567 108.72119,313.04156C108.6933,313.73764 108.24876,314.72351 107.84702,315.48871C107.45153,316.242 106.62132,316.47757 105.72569,316.38889C104.87999,316.30515 104.3946,315.57462 103.62569,315.16754C102.86816,314.76651 102.07518,314.36682 101.75102,313.53821C101.4088,312.66339 100.83276,312.48669 99.91103,312.37823C98.95188,312.26538 98.3815,311.59842 97.62569,311.16739C96.9566,310.78583 96.3257,309.98889 95.62569,309.28888C95.12569,308.78888 94.50895,307.96271 93.72569,307.55554C92.98184,307.16888 92.19469,306.89853 91.52702,306.18887C90.98477,305.61252 90.73103,304.71695 90.72569,303.84622C90.71983,302.88892 90.72569,302.15689 90.72569,301.06088C90.72569,300.18887 91.01475,299.06699 90.39236,298.55554C89.7447,298.02335 88.76173,297.95514 88.72569,297.0889C88.68829,296.18964 88.72569,295.28854 88.72569,294.41821C88.72569,293.61957 88.72569,292.60355 88.72569,291.55554C88.72569,290.85056 88.72569,290.05057 88.72569,289.02487C88.72569,288.18887 88.72569,287.28888 88.72569,286.38889C88.72569,285.5889 88.72569,284.63171 88.72569,283.73621C88.72569,282.87289 88.72569,282.01422 88.72569,281.06757C88.72569,280.21423 88.72569,279.27423 88.72569,278.38889C88.72569,277.5889 88.72569,276.68887 88.72569,275.78888C88.72569,274.86804 88.72569,273.90488 88.72569,273.21423C88.72569,272.14154 88.72569,271.22223 88.72569,270.36804C88.72569,269.38889 88.85577,268.55093 88.55502,267.87421C88.18815,267.04871 87.04525,266.71194 86.74702,265.78888C86.49771,265.01721 86.7263,264.06757 86.72569,263.21423C86.72502,262.27423 86.48357,261.43512 86.07836,260.68887C85.66508,259.92776 85.72569,258.98889 85.72569,258.0889C85.72569,257.18887 85.72569,256.28888 85.72569,255.38889L85.66853,254.63171" id="svg_1" stroke-width="3" stroke="#000" fill="none"/>
  <path t="31814,32159,32159,32200,32268,32268,32278,32278,32342,32343,32401,32423,32438,32455,32494,32495,32551,32551,32590,32591,32647,32665,32764,32764,32815,32831,32879,32928,32994,33032,33050,33108,33144,33144,33168,33168,33169,33200,33200,33211,33225,33234,33234,33258,33258,33304,33408,33439,33447,33505,33505,33552,33553,33584,33584,33671,33671,33704,33889,33916,33916" d="M54.72569,319.38889C55.72569,320.55554 56.28611,321.04251 57.02569,321.68439C57.69238,322.263 58.48724,322.30841 59.37836,322.39789C60.2523,322.48566 60.90494,323.14902 61.42119,323.68356C62.1457,324.43375 63.12569,324.38889 64.0257,324.38889C64.92569,324.38889 65.82586,324.38889 66.61102,324.38889C67.56169,324.38889 68.32703,324.38889 69.32119,324.38889C70.06853,324.38889 71.15319,324.71802 72.02119,324.37988C72.79939,324.07672 72.77807,323.09399 73.30036,322.37421C73.80941,321.67267 74.50637,321.26959 75.32569,320.81421C76.10748,320.3797 76.86993,320.01321 77.72569,319.55554C78.51714,319.13226 79.05443,318.53461 79.76736,318.38889C80.72037,318.19409 81.57884,318.03339 82.24036,317.50223C83.06193,316.84256 83.4359,316.11411 84.11503,315.45023C84.71822,314.8606 84.65501,313.89746 84.7617,313.21423C84.91153,312.25461 85.6908,311.94501 86.44036,311.3049C87.10585,310.7366 87.68289,310.10651 87.72569,309.18887C87.76763,308.2897 87.74436,307.47614 88.08736,306.73621C88.42447,306.00897 89.25799,305.33105 89.86436,304.76355C90.54408,304.12738 90.70436,303.21423 90.72569,302.27423L90.72569,301.38889L90.89236,300.55554L91.61236,300.39023" id="svg_2" stroke-width="3" stroke="#000" fill="none"/>
  <path t="51215,51576,51661,51661,51975,52096,52145,52145,52218,52249,52521,52521,52720,52779,52801,52832,52928,52929,52929,53283,53283,53305,53568,53755,53755,53899,53986,54011,54273,54621,54621,54785,54795" d="M138.72569,52.38889C139.74652,52.38889 140.70767,52.31345 141.52435,52.38889C142.45216,52.47458 142.76474,53.4103 142.72552,54.36739C142.69177,55.19127 142.29236,56.0668 141.42119,56.33172C140.44681,56.62803 139.7186,56.50639 138.74736,56.38872C137.82732,56.27725 138.1965,55.5626 138.71103,54.94222C139.34113,54.1825 139.54752,53.51067 140.13469,53.09872C141.05728,52.45145 141.88953,52.39934 142.96852,52.38889C143.82549,52.38058 144.65517,52.82588 144.71503,53.57422C144.78914,54.50065 145.17894,55.66279 144.5042,56.26739C143.84369,56.85923 142.72569,56.38889 141.92569,56.30355L141.24652,55.86805L140.78285,55.08438" id="svg_3" stroke-width="3" stroke="#000" fill="none"/>
  <path t="102374,102565,102565,102594,102632,102641,102665,102681,102760,102770,102780,102780,102840,102850,102881,102921,102929,102930,102952,103007,103007,103017,103057,103081,103081,103105,103130,103145,103145,103168,103186,103193,103210,103241,103257,103273,103273,103289,103305,103330,103330,103361,103423,103465,103466,103497,103497,103498,103513,103514,103534,103538,103561,103562,103593,103633,103633,103712,103712,103712,103753,103794,103794,103820,103893,103950,104123,104193,104226,104428,104550,104550,104627,104627,104743,104800,104800,104960,104996,105033,105045,105075,105113,105113,105157,105157,105184,105200,105218,105218,105249,105249,105296,105328,105329,105352,105384,105385,105416,105483,105513,105545,105545,105590,105600,105634,105635,105659,105706,105737,105762,105762,105777,105778,105793,105794,105809,105817,105840,105872,105905,105921,105945,105968,106001,106032,106033,106042,106089,106089,106152,106153,106207,106217,106257,106257,106323,106333,106333,106480,106480,106654,106654,106664,106664,106794,106804" d="M125.72569,175.38889C125.72569,176.38889 125.7355,177.24394 126.33636,177.98889C126.86317,178.64204 127.50788,179.29512 127.7617,179.99956C128.06331,180.83664 128.92746,181.33815 129.54036,181.79956C130.45036,182.48465 130.53851,183.25122 130.89236,184.22221C131.1412,184.90508 131.6971,185.68753 131.72569,186.59023C131.75626,187.55507 131.42828,188.54471 132.01103,189.21956C132.60149,189.90332 133.53333,190.04604 133.71503,190.98889C133.8893,191.89314 133.72569,192.87288 133.72569,193.56355C133.72569,194.50356 133.72569,195.48889 133.72569,196.38889C133.72569,197.18889 133.36252,198.18578 133.76169,198.95288C134.15683,199.71227 134.72502,200.19022 134.72569,201.08888C134.72638,202.02489 134.72569,202.87288 134.72569,203.73622C134.72569,204.75288 134.56293,205.64575 134.94702,206.48889C135.30237,207.26891 135.72035,207.98885 135.72569,208.90971C135.73129,209.87553 135.72569,210.63556 135.72569,211.55556C135.72569,212.33705 135.72569,213.12755 135.72569,214.24588C135.72569,215.07988 135.96773,215.83723 136.4417,216.47289C137.01495,217.2417 136.72569,218.18889 136.72569,219.02489C136.72569,220.05055 136.72569,220.85056 136.72569,221.81006C136.72569,222.60355 136.72569,223.37906 136.72569,224.41821C136.72569,225.38889 136.72569,226.18889 136.72569,227.08888C136.72569,227.98889 136.72795,228.88889 136.72569,229.78888C136.72343,230.6844 136.29025,231.37088 135.42119,231.38889C134.5592,231.40674 133.72569,231.38889 132.74719,231.38889C131.92703,231.38889 131.08969,231.38889 130.07303,231.38889C129.37836,231.38889 128.36169,231.38889 127.42569,231.38889C126.5257,231.38889 125.34668,231.78056 124.81103,231.10355C124.30267,230.46103 124.66435,229.49452 124.30036,228.56355C124.0275,227.86565 123.88129,226.89513 123.71503,225.98889C123.56223,225.15611 122.91087,224.5242 122.7617,223.56355C122.65559,222.8802 122.72569,221.76355 122.72569,220.90489C122.72569,220.04155 122.87413,219.09203 122.50436,218.28888C122.14589,217.5103 121.72794,216.6889 121.72569,215.78888C121.72366,214.97823 121.72569,214.06755 121.72569,213.21422C121.72569,212.27422 121.76235,211.28813 121.72569,210.38889C121.69708,209.68713 121.0408,208.96614 120.78286,208.08888C120.52842,207.22353 120.38559,206.39778 119.72569,205.88889C118.9607,205.29893 118.72703,204.50356 118.72569,203.56355C118.72472,202.87288 119.05794,201.72678 118.70486,200.90971C118.39631,200.19569 117.72794,199.6844 117.72569,198.78888C117.72343,197.88889 117.72569,196.98889 117.72569,196.08888C117.72569,195.18755 117.83707,194.21165 117.70486,193.40971C117.55981,192.52995 116.48736,192.27748 116.08286,191.62721C115.58629,190.82892 115.89965,189.85324 115.70486,188.90971C115.52584,188.04263 114.99178,187.35065 114.64169,186.58888C114.29714,185.83914 113.48493,185.22166 113.0257,184.63171C112.36357,183.78113 112.11182,182.97768 111.52436,182.27556C111.03373,181.68916 110.07303,181.44156 109.20969,181.30489L108.37236,180.95288L107.80969,180.18889" id="svg_5" stroke-width="3" stroke="#000" fill="none"/>
  <path t="108199,108316,108359,108391,108392,108399,108418,108472,108472" d="M126.72569,224.38889C127.72119,226.08888 127.72569,227.02489 127.72569,227.87288C127.72569,228.73622 127.72569,229.75288 127.72569,230.58888L127.72569,231.48906L127.72569,232.27422" id="svg_6" stroke-width="3" stroke="#000" fill="none"/>
  <path t="112441,112629,112629,112639,112639,112664,112687,112711,112713,112728,112744,112759,112760,112793,112799,112800,112800,112831,112855,112879,112895,112895,112954,112984,112984,113024,113041,113081,113081,113095,113095,113136,113151,113184,113201,113215,113223,113328,113328,113488,113488,113488,113521,113576,113688,113736,113736,113830,113830,113840,113879,114011,114011,114056,114112,114112,114144,114145,114169,114184,114209,114294,114348,114348,114393,114394,114464,114474,114538,114562,114673,114673,114751,114784,114935,114935,115052,115052,115052,115513,115641,115641,115768,115804,115804,115904,115936,115937,115952,115984,116078,116128,116128,116168,116216,116311,116354,116354,116392,116392,116448,116449,116449,116480,116520,116536,116537,116552,116592,116600,116648,116696,116696,116736,116736,116788,116788,116840,116856,116934,116968,116968,116984,117078,117078,117111,117111,117121,117143,117160,117183,117231,117232,117255,117255,117287,117288,117288,117295,117304,117304,117327,117351,117375,117384,117384,117423,117488,117488,117488,117498,117512,117527,117543,117567,117567,117585,117608,117615,117640,117641,117679,117679,117703,117704,117720,117735,117752,117846,118044" d="M161.72569,190.38889C161.72569,191.38889 161.76523,192.14713 161.72119,193.04155C161.67856,193.90762 161.10841,194.66698 160.81102,195.58888C160.53352,196.44911 160.77637,197.39049 160.72569,198.19022C160.66841,199.09431 159.92191,199.5697 159.29369,200.18889C158.64597,200.82729 158.74892,201.93213 158.71503,202.62889C158.67082,203.53755 157.99879,204.22746 157.73636,204.99956C157.44344,205.86136 157.79581,206.8802 157.6897,207.56355C157.54053,208.5242 156.82784,209.37701 156.73019,210.08888C156.60777,210.98145 156.15218,211.73984 155.8472,212.71022C155.64149,213.36475 155.90431,214.40636 155.64037,215.18755C155.33981,216.07709 154.7437,216.78835 154.72569,217.68889C154.7077,218.5887 155.0446,219.68655 154.44035,220.30489C153.83229,220.92714 152.99109,221.18611 152.81102,222.15689C152.677,222.87939 152.72636,223.62088 152.72569,224.71689C152.7251,225.68889 152.72569,226.58888 152.72569,227.48906C152.72569,228.27422 152.72569,229.21422 152.72569,229.90489C152.72569,230.97823 152.72569,231.79956 152.72569,232.71022C152.72569,233.56355 152.72569,234.50356 152.72569,235.48906C152.72569,236.27422 152.72569,237.21422 152.72569,237.90489C152.72569,238.97823 152.72569,239.88889 152.72569,240.78888C152.72569,241.69339 152.72569,242.55556 152.72569,243.38889C152.72569,244.36739 152.72569,245.18755 152.72569,246.08888C152.72569,246.98889 152.58295,247.90199 152.73636,248.78888C152.88054,249.62234 153.45021,250.27811 154.22569,250.86806C154.96339,251.42928 155.91586,251.53209 156.42569,252.20772C156.92374,252.86775 157.00691,253.69121 157.5257,254.53555C158.03011,255.35652 159.04703,255.38889 159.90036,255.38889C160.84036,255.38889 161.76775,255.57338 162.5257,255.30356C163.31291,255.02333 163.78993,254.0446 164.22569,253.40971C164.78162,252.59975 165.66479,252.17366 165.72569,251.28888C165.78749,250.39101 165.72569,249.58888 165.72569,248.68889C165.72569,247.78888 165.72569,246.86806 165.72569,245.90355C165.72569,245.17822 165.67833,244.18625 165.74652,243.38889C165.83264,242.38199 166.19312,241.61502 166.4417,240.87422C166.75975,239.92639 166.70584,238.97801 166.72586,238.06772C166.74385,237.24963 167.13255,236.43066 167.72569,235.88889C168.35416,235.31483 168.64561,234.62285 168.7347,233.73622C168.82249,232.86227 169.43201,232.14102 170.07753,231.69339C170.95926,231.08197 171.37286,230.56107 171.77837,229.68889C172.16479,228.85776 172.68604,228.08536 172.72569,227.22221C172.763,226.41031 173.15485,225.62727 173.82553,225.16722C174.45705,224.73404 174.69583,223.73755 174.72437,222.87288C174.75612,221.91023 174.72569,220.98889 174.72569,220.08888C174.72569,219.18889 174.72569,218.28873 174.72569,217.50356C174.72569,216.54222 174.72569,215.70222 174.72569,214.70622C174.72569,213.90971 174.56506,213.14482 174.73636,212.06088C174.879,211.15825 175.57751,210.62027 175.72119,209.68889C175.85841,208.79939 175.70584,207.97801 175.72586,207.06772C175.74385,206.24963 176.36629,205.43221 176.60419,204.72472C176.8791,203.90715 176.72502,203.15555 176.72569,202.06088C176.72629,201.08888 176.72569,200.18889 176.72569,199.28888C176.72569,198.38889 176.72569,197.58888 176.72569,196.68889C176.72569,195.78888 176.72569,194.86806 176.72569,193.90355C176.72569,193.17822 176.72569,192.18906 176.72569,191.40971C176.72569,190.41039 176.72569,189.59023 176.72569,188.68889C176.72569,187.78888 176.72569,186.88889 176.72569,185.98889L176.73019,185.09338" id="svg_8" stroke-width="3" stroke="#000" fill="none"/>
  <path t="123567,123792,123832,123832,123967,123977,123977,124048,124105,124174,124184,124184,124215,124255,124255,124321,124381,124391,124391,124439,124439,124479,124521,124581,124581,124616,124616,124656,124688,124728,124760,124760,124785,124786,124854,124904,124904,124956,124956,124976,124986,124986,125064,125064,125111,125167,125192,125215,125264,125303,125303,125319,125551,125585,125586,125611,125612,125632,125632,125679,125679,125737,125827,125879,125919,126112,126135,126135,126159,126199,126199,126215" d="M108.72569,230.38889C109.74653,230.88889 110.60542,231.0607 111.43903,231.38756C112.22219,231.69464 112.64705,232.70523 112.70486,233.38889C112.78731,234.36397 113.20774,234.99731 113.64036,235.67555C114.11581,236.42096 113.41921,237.57011 114.08286,238.27905C114.63862,238.87274 115.20753,239.32707 115.77836,240.03172C116.37014,240.76224 116.72379,241.38889 116.72569,242.14606C116.72794,243.04156 116.74945,243.93225 117.15102,244.75288C117.57731,245.62401 117.66404,246.55939 117.74653,247.38889C117.83025,248.23073 118.47256,248.91618 118.68969,249.78888C118.90717,250.66296 118.72569,251.59023 118.72569,252.55556C118.72569,253.38889 118.72569,254.22221 118.72569,255.08438C118.72569,256.02487 118.72569,256.87421 118.72569,257.59955C118.72569,258.78757 118.72569,259.55289 118.72569,260.50354C118.72569,261.38889 118.72569,262.14606 118.72569,263.04156C118.72569,263.90488 118.59949,264.84872 118.07836,265.44156C117.57159,266.01807 117.1637,266.85724 116.77836,267.68887C116.37437,268.56076 116.24364,269.32593 115.67303,270.03171C115.08195,270.76279 114.49762,271.35345 114.15102,272.02487C113.73171,272.83716 113.79688,273.78812 113.36852,274.63623C113.01855,275.32916 112.54496,276.12759 111.92569,276.81955C111.34351,277.47006 111.15916,278.14035 110.65369,278.95288C110.26265,279.58148 108.89542,279.50754 108.72569,280.38889C108.57441,281.17444 108.72569,282.02487 108.72569,283.04156L108.72569,283.73621L108.71503,284.76355" id="svg_9" stroke-width="3" stroke="#000" fill="none"/>
  <path t="127065,127514,127539,128288,128313,128337,128525,128525,128601,128748,128748,128855,128855" d="M100.72569,309.38889C102.5257,309.38889 103.34573,309.38617 104.12569,309.81421C104.94744,310.26517 105.59697,310.78052 106.00969,311.59021C106.37709,312.311 106.67902,313.20355 106.55903,314.05554L105.83903,314.38623L104.90036,314.36755L104.20969,314.21823" id="svg_10" stroke-width="3" stroke="#000" fill="none"/>
  <path t="130596,131225,131225,131455,131489,131521,131569,131569,131617,131617,131963,132281,132353,132455,132481,132481,133103,133232" d="M208.72569,315.38889C207.72569,315.55554 206.95792,315.8642 206.43469,316.68439C206.05864,317.2739 206.95099,316.89951 207.82587,316.51022C208.56734,316.1803 209.40038,316.07263 210.07303,315.68439C211.00227,315.14801 212.338,314.9361 212.25369,314.38889C212.11076,313.46118 210.40436,314.38904 209.72569,314.40973L208.74753,314.61023L208.05902,315.22223" id="svg_11" stroke-width="3" stroke="#000" fill="none"/>
  <path t="147514,147941,148063,148214,148214,148214,148241,148250,148264,148264,148371,148441,148441,148441,148481,148481,148481,148497,148497,148508,148528,148544,148552,148584,148616,148616,148648,148648,148680,148680,148704,148712,148713,148781,148821,148871,148881,148904,148937,149004,149025,149025,149081,149081,149145,149162,149221,149265,149265,149274,149697,149824,149865,149865,149881,149881,149904,149920,150017,151124,151184,151287,151297,151404,151441,151441,151449,151544,151569,151584,151616,151624,151625,151640,151640,151648,151648,151648,151656,151664,151673,151704,151704,151720,151745,151760,151792,151792,151832,151833,151833,151842,151856,151856,151888,151888,151920,151944,151952,151992,151992,152016,152016,152016,152057,152057,152082,152082,152137,152147,152170,152221,152248,152248,152594,152633,152665,152665,152680,152681,152697,152697,152705,152720,152744,152744,152784,152784,152808,152816,152848,152914,152969,152969,153002,153041,153041,153088,153089,153089,153097,153174,153216,153216,153248,153288,153305,153305,153336,153377,153439,153439,153439,153497,153497,153544,153545,153553,153569,153592,153600,153743,153776,154110,154110,154169,154282,154282,154437,154447,154473,154473,154496,154496,155101,155224,155224,155310,155360,155450,155504,155504,155528,155529,155529,155569,155569,155577,155585,155612,155612,155626,155664,155664,155696,155705,155705,155753,155800,155816,155840,155880,155912,155912,155920,155936,155936,155944,155944,155960,155960,156000,156024,156024,156024,156040,156040,156048,156049,156071,156072,156089,156089,156114,156114,156128,156136,156152,156160,156240,156287,156287,156297,156312,156313,156336,156384" d="M116.72569,76.38889C117.52702,76.38889 118.39769,76.38889 119.26836,76.38889C120.22569,76.38889 120.9577,76.38805 122.0537,76.38889C122.92569,76.38956 123.78792,76.66917 124.42569,77.03622C125.20731,77.48605 126.0415,77.8391 126.76736,78.40972C127.40726,78.91277 128.13092,79.40301 128.94035,79.74222C129.70238,80.06155 130.75336,80.32055 131.52303,80.38755C132.42418,80.466 133.14806,81.07507 134.0257,81.33172C134.89125,81.58483 135.89331,81.17497 136.72569,81.55555C137.4245,81.87505 137.84818,82.93126 138.36169,83.52755C138.96405,84.22698 139.90018,84.37822 140.84036,84.38889C141.72563,84.39893 142.5257,84.38889 143.42569,84.38889C144.3257,84.38889 145.27766,84.0998 146.11502,84.39955C146.85178,84.66329 147.33601,85.41492 148.13635,85.81422C149.04663,86.26836 149.77226,86.23878 150.70419,86.61022C151.47893,86.91901 152.24004,87.23646 153.12569,87.39955C153.95712,87.55266 154.76018,88.1311 155.5257,88.47289C156.26923,88.80486 157.12508,89.37088 157.92703,89.38889C158.89212,89.41055 159.72569,89.38889 160.70419,89.38889C161.52435,89.38889 162.35472,89.45441 162.80969,90.19022C163.2338,90.87608 164.10701,91.3708 163.92302,91.38889C163.03,91.47666 162.12569,91.38889 161.20486,91.38889C160.2417,91.38889 159.55103,91.38889 158.48286,91.38889C157.62569,91.38889 156.57167,91.71156 155.84703,91.16756C155.20329,90.68429 154.6347,90.15464 153.96852,89.68439C153.24869,89.17625 152.49551,88.76029 151.55902,88.55555C150.79182,88.38782 149.69798,88.53774 148.89268,88.03622C148.1638,87.58228 147.35017,87.56081 146.5257,87.10355C145.83363,86.71974 145.42865,85.79147 144.5257,85.47422C143.67274,85.17454 142.76474,85.14957 142.0537,84.81422C141.21965,84.42085 140.47537,84.41288 139.4937,84.39022C138.54022,84.36822 137.69881,84.07432 137.22569,83.36805C136.69473,82.57543 136.31808,81.72601 135.42569,81.44605C134.56523,81.17612 133.58089,81.54832 132.72569,81.22222C131.99112,80.94212 131.1844,80.49783 130.46436,80.41422C129.67532,80.32261 128.63901,80.19265 127.76736,79.88889C126.88316,79.58075 126.0302,79.39114 125.12569,79.38889C124.22569,79.38664 123.31521,79.52142 122.42569,79.38438C121.49302,79.24071 120.99117,78.65475 119.93236,78.42489C119.66294,78.3664 120.55903,78.38889 121.35103,78.38889C122.21103,78.38889 123.1302,78.38889 124.12436,78.38889C124.88969,78.38889 125.84036,78.38889 126.82569,78.38889C127.72569,78.38889 128.48286,78.38889 129.37836,78.38889C130.2417,78.38889 131.25801,78.0929 132.11502,78.39955C132.85181,78.66319 133.37231,79.38355 134.20969,79.38889C135.07301,79.39439 135.97423,79.28707 136.92836,79.39156C137.70985,79.47713 138.4937,79.95689 139.22569,80.38889C139.95769,80.82088 140.90602,81.3316 141.8257,81.38889C142.72395,81.44483 143.66211,80.98616 144.44035,81.47422C145.18077,81.93855 145.7291,82.3152 146.5257,82.38889C147.45218,82.47459 147.57805,83.57071 148.22569,84.05555C148.89738,84.5584 149.78212,84.37247 150.80403,84.38905C151.68414,84.40334 152.68124,84.65147 153.42119,85.03622C154.18365,85.43266 154.71378,86.20313 155.43019,86.38438C156.29836,86.60403 157.24654,86.36311 158.0302,86.74155C158.91907,87.17082 159.88324,87.07977 160.55637,87.67422C161.23363,88.27232 161.37386,89.15081 162.12569,89.77822C162.78136,90.32539 163.73824,90.29739 164.48286,90.44605C165.40761,90.63067 167.30408,90.23724 167.16319,91.36805C167.10904,91.80269 165.92569,91.38889 165.0257,91.38889C164.12569,91.38889 163.31487,91.40643 162.40402,91.38872C161.4785,91.37071 160.55174,91.24992 159.77753,91.03172C158.9785,90.80653 158.05704,90.39223 157.39769,89.99955C156.52304,89.47865 155.56511,89.58705 154.72569,89.22222C154.04114,88.92469 153.50894,87.96271 152.72569,87.55555C151.98184,87.16887 151.24779,86.78008 150.40453,86.51022C149.61348,86.25708 148.86935,85.66267 148.11502,85.39955C147.27525,85.10664 146.28116,85.48435 145.5257,85.10489C144.65849,84.6693 143.8288,84.67786 143.12569,84.28088C142.2934,83.81097 142.44597,82.74398 141.72569,81.88889C141.21698,81.28496 140.24165,81.39785 139.37836,81.38889C138.35086,81.37822 137.55771,81.05724 136.88969,80.53822C136.32008,80.09566 135.33684,79.49501 134.56169,79.41022C133.61504,79.30666 132.82222,79.24534 132.06853,78.68356C131.4996,78.25949 130.54274,77.54865 129.74652,77.43055C128.75714,77.28381 128.0302,77.38889 127.12569,77.38889C126.22569,77.38889 125.30005,77.3096 124.70036,76.81422C124.12444,76.33848 123.07303,76.38889 122.37836,76.38889C121.35103,76.38889 120.40436,76.38889 119.55103,76.38889L118.61102,76.38889L117.72569,76.38889" id="svg_12" stroke-width="3" stroke="#000" fill="none"/>
  <path t="159340,159607,159627,159648,159656,159688,159728,159728,159728,159736,159736,159759,159776,159784,159808,159832" d="M135.72569,57.38889C135.72569,58.38889 135.72569,59.30489 135.72569,60.09339C135.72569,60.98889 135.74353,61.95509 135.39236,62.72222C135.07266,63.42062 134.50114,64.0997 134.05902,65.05555C133.70483,65.82129 133.71503,66.77822 133.22569,67.38889L132.70036,67.99955L132.30035,68.78889L131.80969,69.58889" id="svg_13" stroke-width="3" stroke="#000" fill="none"/>
  <path t="162470,162680,162690,162736,162767,163140,163194,163219,163270,163312,163337,163669,163669,163689,163757,163953,163953,164063,164630,164630,164787" d="M171.72569,79.38889C173.72302,78.58755 174.0567,77.93739 174.55902,77.22222C175.04749,76.52679 175.16853,75.57716 175.10435,75.38889C174.78859,74.46256 173.22569,75.38889 172.3257,75.38889C171.52435,75.38889 170.55902,75.38882 169.72569,75.38889C168.74736,75.38897 167.7644,75.53992 167.72569,76.38889C167.68904,77.19259 168.26736,77.88889 169.04686,78.48856L169.70486,78.84722L170.65369,78.91689" id="svg_15" stroke-width="3" stroke="#000" fill="none"/>
  <path t="166437,166637,166663,166664,167224,167273,167527,167537,167537,167613,167613,168032,168042,168113,168123,168152,168153,168192,168192,168240,168240,168333,168333,168407,168417,168544,168544,168576,168576,168919,168959,168959,168976,168983,169037,169064,169087,169120,169120,169192,169583,169583,169593,169988,169998,170024,170024,170055,170446,170446,170446,170803,170803,170832,170833,170857,170904,170927,170928,170936,170936,170936,170952,171019,171063,171064,171159,171169,171193,171202,171216,171224,171231,171256" d="M172.72569,68.38889C173.74652,68.38889 174.70419,68.38889 175.52435,68.38889C176.55902,68.38889 177.33812,68.4213 178.13635,68.81422C179.04906,69.26347 179.77226,69.23878 180.70419,69.61022C181.47893,69.91901 182.32242,69.98333 183.20486,70.40972C183.90704,70.74901 183.72569,71.79955 183.72569,72.71022C183.72569,73.56355 183.72569,74.50488 183.72569,75.27289C183.72569,76.22488 183.72569,76.99022 183.72569,77.98439C183.72569,78.90356 183.87164,79.8814 183.71503,80.78889C183.57095,81.62364 182.91602,82.26884 182.42569,83.03706C182.01872,83.67466 181.05237,84.41039 180.78285,83.67905C180.50296,82.91956 180.72569,81.90972 180.72569,80.98888C180.72569,80.08889 180.72569,79.18889 180.72569,78.28889C180.72569,77.38889 180.86711,76.61758 181.22569,75.84722C181.67731,74.87701 181.70381,74.13869 181.72119,73.39422C181.74527,72.3625 181.75679,71.95196 181.72437,72.87155C181.69585,73.68048 181.12219,74.85503 180.72569,74.60305C180.07019,74.18648 180.80609,73.06562 180.71669,71.85506C180.6611,71.10239 180.02211,70.43984 179.20836,70.39156C178.24803,70.33458 177.48604,70.8831 176.55902,71.22222C175.91856,71.45651 174.72444,71.35375 173.93636,71.39955C173.20842,71.44186 172.44839,72.00906 171.52435,72.30355C170.60101,72.59781 169.72569,72.38889 168.89236,72.38889C168.0302,72.38889 167.12569,72.38889 166.22569,72.38889C165.3257,72.38889 164.42569,72.38889 163.5257,72.38889L162.62569,72.38889" id="svg_16" stroke-width="3" stroke="#000" fill="none"/>
  <path t="173787,174115,174125,174125,174143,174252,174252,174252,174302,174302,174312,174328,174328,174336,174343,174359,174359,174367,174367,174407,174415,174431,174431,174439,174439,174809,174831,174832,174855,174855,174855,174863,174879,174895,174911,174911,174911,174927,174927,174943,174943,174960,175049" d="M182.72569,89.38889C182.20486,86.90972 181.43791,86.25523 181.01103,85.58889C180.51506,84.8147 180.07352,84.05238 179.43903,83.56355C178.73935,83.0245 177.79527,82.4848 177.28819,81.90972C176.71599,81.26077 176.53262,80.26485 176.02119,79.68889C175.37099,78.95662 175.04308,78.15904 174.39236,77.38889C173.96898,76.88778 172.86595,76.63941 172.13635,76.36356C171.29523,76.04553 170.7684,75.19038 170.72569,74.22222C170.69667,73.56419 170.98892,72.47687 170.61136,71.69339C170.24983,70.94318 169.7486,70.4411 170.54303,70.39955C171.55769,70.34649 172.26402,70.38889 173.06403,70.38889C174.08969,70.38889 175.02899,70.3132 175.92703,70.39022C176.90283,70.47391 177.56544,70.81714 178.32703,71.19022C179.12704,71.58212 179.8537,72.02489 180.48286,72.71005L180.74036,73.52755L181.1617,74.31689L182.12569,74.38889" id="svg_17" stroke-width="3" stroke="#000" fill="none"/>
  <path t="176812,177009,177019,177048,177048,177072,177079,177104,177104,177143,177143,177152,177160,177168,177176,177176,177184,177192,177192,177207,177223,177223,177270,177271,177355,177472,177472,177482,177623,177623,178065,178159,178159,178272,178282,178282,178304,178399,178612,178612,178648,178696,178736,178743,178775,178845,178952,178952,179062,179062,179072,179104,179134,179134,179174,179198,179199,179247,179262,179270,179271,179352,179391,179391,179502,179502,179545,179545,179584,179592,179610,179655,179728,179785,179945,179945,179993,180025,180056,180056,180572" d="M190.72569,87.38889C190.72569,85.58889 190.72569,84.75288 190.72569,83.90488C190.72569,83.04155 190.72598,82.02489 190.72569,81.08889C190.72543,80.28889 190.50142,79.53397 189.66769,79.08889C189.02332,78.7449 187.93639,78.202 187.72569,77.38889C187.51251,76.56622 186.72409,76.4394 185.92569,76.38889C185.02028,76.3316 184.5406,75.58928 183.92569,74.95689C183.30348,74.31699 182.24036,74.38889 181.51503,74.38889C180.52586,74.38889 179.56169,74.38889 178.61102,74.38889C177.72569,74.38889 176.96962,74.23101 176.72569,73.36805C176.45834,72.4222 175.92494,71.73952 175.74652,70.86805C175.55328,69.92424 175.82814,69.20847 175.72437,68.27422C175.6129,67.27076 175.07753,66.62697 174.3257,65.99955C173.67003,65.45238 172.72482,65.35168 171.92569,65.38889C171.00806,65.4316 170.72636,66.19022 170.72569,67.08889C170.72502,67.98888 170.72856,68.99659 171.37236,69.45022C172.17239,70.01393 172.63991,70.51323 173.55902,71.05555C174.26341,71.47118 175.34656,71.31004 175.75102,72.03555C176.17775,72.80102 176.33459,73.55181 176.64169,74.50356C176.92424,75.37923 177.47607,76.04691 178.02119,76.68889C178.66196,77.44349 179.0816,78.14367 179.87503,78.41422C180.6451,78.6768 180.91151,79.7271 181.24652,80.38889C181.68068,81.24653 182.34229,81.83531 182.60419,82.71022C182.85095,83.53458 182.61674,84.51028 182.72569,85.38889C182.8372,86.28812 183.68289,86.67124 183.72569,87.58889C183.76762,88.48791 183.94629,89.35557 184.30035,89.98888C184.78186,90.85015 184.72569,91.69339 184.72569,92.71022L184.72569,93.38889L184.72569,94.49822" id="svg_18" stroke-width="20" stroke="#fff" fill="none"/>
  <path t="184748,185415,185498,185720,185848,185848,185871,185918,185918,185943,185975,185975,186055,186111,186255,186438,186555,186555,186928,186960,186960,187078,187078,187295,187351,187411" d="M171.72569,78.38889C172.52702,78.38889 173.5762,78.43273 173.72119,79.15055C173.89761,80.02392 173.72569,80.90488 173.72569,81.88889C173.72569,82.87289 173.59586,83.57202 173.73019,84.63172C173.84138,85.50874 174.61469,85.74861 175.36853,86.44155C175.91415,86.94309 175.72569,87.98888 175.72569,88.90972C175.72569,89.87289 175.72569,90.56355 175.72569,91.63622C175.72569,92.55555 175.72569,93.38889 175.72569,94.36739C175.72569,95.08439 175.72569,95.98888 175.72569,96.88889L175.72569,97.78889" id="svg_19" stroke-width="3" stroke="#000" fill="none"/>
  <path t="188937,189401,189501,189542,189543,189574,189658,189658,189711,189711,189743,189799,189799,189861,189902,189902,189991,190047,190047,190341,190341,190374,191023,191095,191127,191151,191151,191183,191199,191215,191263,191263,191294,191362,191362,191449,191480,191544,191568,191671,191671" d="M160.72569,70.38889C161.55902,70.22222 162.08734,69.62761 162.82553,69.16739C163.54269,68.72028 163.69983,67.69657 164.43553,67.08889C165.01872,66.60718 165.77399,66.0713 166.6097,65.67422C167.33119,65.3314 168.26564,65.0712 168.89369,64.67289C169.64742,64.19489 170.70419,64.38889 171.52435,64.38889C172.36169,64.38889 173.38286,64.38889 174.13019,64.38889C175.12436,64.38889 175.88969,64.38878 176.96852,64.38889C177.82553,64.38897 178.68297,64.67088 178.72569,65.48888C178.77263,66.38766 178.60141,67.16633 178.15103,67.98888C177.72374,68.76928 177.86224,69.74553 177.4417,70.58889C177.11177,71.25053 176.74338,72.03922 176.4417,72.87289C176.12297,73.75367 175.89398,74.70726 175.37303,75.33622C174.83009,75.99174 174.20486,76.40972 173.52435,76.95689L172.96852,77.68356" id="svg_20" stroke-width="3" stroke="#000" fill="none"/>
  <path t="192652,193072,193432,193502,193512,193569,193639" d="M165.72569,74.38889C167.5257,74.38889 168.36853,74.44605 168.72437,75.19022L168.72569,76.08889L168.6897,76.98888L168.28969,77.77822" id="svg_21" stroke-width="3" stroke="#000" fill="none"/>
  <path t="199132,199525,199525,199548,199548,199554,199622,199632,199632,199755,199801,199867,199939,199939,199985,199985,199985,200018,200018,200057,200083,200114,200123,200139,200232,200232,200249,200250,200250,200362,200362,200415,200416,200519" d="M128.72569,82.38889C129.43103,84.98439 130.02882,85.45818 130.4827,86.36739C130.86443,87.13206 131.01364,87.87737 131.60435,88.61039C132.1252,89.25671 132.38287,90.19639 133.3257,90.37822C134.20947,90.54866 135.0302,90.38889 136.04736,90.38889C136.76736,90.38889 137.89236,90.38889 138.67386,90.38889C139.46436,90.38889 140.39236,90.38889 141.30435,90.38889C142.22569,90.38889 143.12569,90.38889 144.0257,90.38889C144.92569,90.38889 145.8257,90.38889 146.72569,90.38889C147.39769,90.38889 148.49503,90.38889 149.24652,90.38889C150.04303,90.38889 151.03903,90.38755 151.87903,90.35289L152.84036,90.10355L153.42119,89.68439L154.11502,88.98888" id="svg_22" stroke-width="3" stroke="#000" fill="none"/>
  <path t="201615,201692,201737,201777,201801,201801,201826" d="M153.72569,68.38889C153.72569,70.08889 153.72569,70.98888 153.72569,71.90972L153.72569,72.87289L153.72569,73.56355L153.72569,74.63172" id="svg_23" stroke-width="3" stroke="#000" fill="none"/>
  <path t="210598,210732,210753,210763,210763,210776,210776,210817,210841,210841,210856,210864,210896,210896,211058,211448,211482,211496,211536,211536,211552,211568,211568,211576,211688,211713,211744,211752,211858,211889,212121" d="M152.72569,301.38889C152.02119,300.74155 151.18039,300.46127 150.2417,300.10355C149.52829,299.83167 148.72275,299.31732 148.13635,298.78888C147.39774,298.12323 146.81073,297.40149 146.72702,296.5889C146.6348,295.6936 146.72569,294.7529 146.72569,293.90488C146.72569,293.04156 146.95116,291.9938 146.72569,291.19156C146.696,291.08594 146.09651,291.86057 145.8472,292.71021C145.6049,293.53592 145.72569,294.50354 145.72569,295.38889C145.72569,296.18887 145.72569,297.0889 145.72569,297.98889C145.72569,298.88889 145.73636,299.77823 146.30035,300.41422L146.75102,300.99954L147.1617,301.77823L147.92436,302.30621" id="svg_24" stroke-width="20" stroke="#fff" fill="none"/>
  <path t="213585,213715,213759,213760,213778,213778,213808,213851,213897,213937,213977,214024,214024,214107,214107,214161,214361,214408,214498,214498,214508,214508" d="M158.72569,292.38889C157.70486,293.40973 157.29413,294.38007 156.72569,294.86804C155.98283,295.50577 155.92299,296.22351 155.66853,297.0889C155.4106,297.96616 154.75429,298.6875 154.72569,299.5889C154.69716,300.48843 154.72569,301.38889 154.72569,302.14606C154.72569,303.04156 154.72569,303.90488 154.72569,304.86804C154.72569,305.78888 154.72569,306.69339 154.72569,307.55554L154.72569,308.38889L154.72552,309.3674L154.64037,310.18756" id="svg_25" stroke-width="20" stroke="#fff" fill="none"/>
  <path t="219401,219642,219642,219684,219913,219913,219988,220033,220094,220094,220094,220127,220128,220169,220200,220271,220303,220353,220428,220465,220505,220505,220560,220561,220601,220728,220824,220928,220928,221114,221124,221138,221144,221144,221144,221160,221160,221160,221169,221169,221169,221176,221176,221186,221186" d="M161.72569,284.38889C161.72569,285.38889 161.72569,286.18887 161.72569,287.10355C161.72569,288.09872 161.72328,288.74072 161.72569,289.7529C161.72795,290.69788 161.88567,291.72412 162.07835,292.39423C162.29291,293.14038 162.64673,294.24063 162.71503,294.96756C162.79932,295.86465 163.54379,296.38318 163.72437,297.19022C163.92059,298.0672 163.71381,299.01401 164.15103,299.78888C164.56082,300.51514 164.72569,301.38889 164.72569,302.14606C164.72569,303.04156 164.72569,303.90488 164.72569,304.86804C164.72569,305.78888 164.55376,306.7644 165.01103,307.5889C165.39484,308.28094 166.2189,308.87912 166.92436,309.3049C167.67497,309.75793 168.20877,310.42456 169.02303,310.78888C169.76801,311.12219 170.81657,311.46304 171.48969,311.79956C172.13397,312.12164 172.93007,312.70505 173.5257,313.21423C174.13017,313.73099 175.12436,314.50223 175.70486,314.84723L176.70453,315.2674L177.38702,315.37823" id="svg_26" stroke-width="3" stroke="#000" fill="none"/>
  <path t="222620,222759,222779,222779,222793,222793,222807,222807,222815,222815,222815,222823,222823,222832,222832,222839,223211,223211,223247,223247,223263,223318,223318,223610,223610,223718,223728,223728,223915,223915,223961" d="M161.72569,286.38889C159.90036,285.4249 158.89236,285.38889 158.10036,285.38889C157.24036,285.38889 156.3212,285.38889 155.3257,285.38889C154.5257,285.38889 153.52553,285.38889 152.70486,285.38889C152.04036,285.38889 151.04303,285.38889 150.24652,285.38889C149.05902,285.38889 148.26736,285.38889 147.42119,285.38889C146.40436,285.38889 145.72438,285.43942 144.74719,285.38873C143.92372,285.34604 143.09425,284.76443 142.62569,284.06772C142.19595,283.42874 141.53946,282.47714 140.84036,282.39154C139.90732,282.27728 138.89236,282.38889 138.13635,282.31689L137.42569,281.68356L137.0257,281.09421L136.22569,280.43054" id="svg_27" stroke-width="3" stroke="#000" fill="none"/>
  <path t="251576,251642,251642,251705,251760,251808,251852,251852,251864,251904,251936,251952,252056,252080,252096" d="M113.72569,87.38889C113.72569,88.38889 113.84999,89.16632 114.30036,89.98888C114.72765,90.76928 114.72569,91.69339 114.72569,92.55555C114.72569,93.36805 114.72569,94.36805 114.72569,95.19022C114.72569,96.08889 114.68969,96.95289 114.00969,97.47289L113.72703,98.19022L113.81103,99.10355" id="svg_28" stroke-width="3" stroke="#000" fill="none"/>
  <path t="253212,253438,253488,253528,253528,253582,253582,253652,253696,253707,253707,253721,253721,253745,253751" d="M125.72569,98.38889C127.2897,98.99955 127.52778,99.88474 128.08736,100.68889C128.50146,101.28399 129.35316,101.74017 130.07303,102.03172C131.06125,102.43195 132.14825,102.22403 132.8257,102.83172C133.34894,103.30108 133.72569,104.22222 134.3257,104.94222L135.12569,105.35289L136.0257,105.38889" id="svg_29" stroke-width="3" stroke="#000" fill="none"/>
  <path t="255103,255320,255320,255330,255330,255345,255355,255363,255371,255371,255384,255385,255391,255401,255408,255423,255448,255471,255511,255511,255511,255585,255585,255585" d="M140.72569,109.38889C142.56169,109.38889 143.32703,109.38889 144.3212,109.38889C145.24036,109.38889 146.20486,109.38889 147.12569,109.38889C148.0302,109.38889 148.89236,109.38889 149.72569,109.38889C150.70419,109.38889 151.52455,109.40765 152.42569,109.38889C153.29025,109.37088 153.77463,108.55862 154.52702,108.39022C155.40585,108.19352 156.21671,107.82441 157.04736,107.28889C157.55557,106.96125 158.41235,106.58889 159.40836,106.18889L160.20486,105.88889L160.95636,105.58889" id="svg_30" stroke-width="3" stroke="#000" fill="none"/>
  <path t="256275,256422,256519,256519,256529,256545,256570,256570,256607,256607,256664,256664,256665,256689,256719,256822,256822,256865" d="M146.72569,108.38889C144.96852,108.38889 144.07303,108.38889 143.20969,108.38889C142.24652,108.38889 141.42119,108.38889 140.40436,108.38889C139.72569,108.38889 138.74701,108.39401 137.84169,108.38889C136.90031,108.38355 136.04759,108.5528 135.26736,107.86805C134.57883,107.26377 134.36853,106.44155 133.5257,106.10355L132.92569,105.58755L132.22569,104.90972" id="svg_31" stroke-width="3" stroke="#000" fill="none"/>
  <path t="261029,261095,261095,261105,261119,261119,261135,261135,261143,261143,261143,261151,261151,261159,261159,261159,261167,261175,261183,261183,261199,261199,261199,261207,261222,261231,261238,261247,261262,261262,261279,261294,261295,261295,261318,261319,261319,261326,261343,261351,261351,261351,261370,261375,261383,261383,261399,261399,261407,261407,261422,261438,261438,261454,261455,261463,261463,261463,261495,261504,261504,261511,261519,261527,261528,261536,261543,261543,261543,261551,261559,261559,261567,261567,261583,261583,261591,261591,261599,261599,261607,261616,261616,261646,261671,261687,261696,261703,261704,261711,261711,261711,261726,261767,261767,261798,261838,261838,261854,261855,261870,261878,261878,261887,261889,261895,261918,261966,261966,262014,262023,262031,262031,262039,262039,262039,262047,262055,262063,262063,262063,262079,262079,262142,262183,262191,262191,262207,262207,262217,262226,262231,262239,262240,262240,262240,262247,262247,262247,262247,262254,262255,262255,262265,262265,262265,262271,262271,262271,262271,262279,262279,262279,262279,262294,262365,262365,262375,262375,262375,262392,262392,262399,262407,262407,262407,262416,262416,262417,262423,262431,262431,262438,262439,262439,262447,262447,262463,262510,262519,262535,262543,262543,262551,262552,262553,262553,262559,262559,262559,262567,262567,262567,262567,262575,262575,262575,262583,262583,262591,262591,262599,262600,262616,262646,262663,262663,262671,262679,262679,262687,262687,262695,262695,262695,262702,262703,262703,262711,262711,262711,262719,262720,262720,262720,262727,262727,262727,262727,262728,262734,262736,262737,262743,262743,262750,262751,262767,262767,262791,262791,262791,262806,262816,262823,262846,262855,262864,262864,262879,262888,262888,262888,262902,262903,262903,262911,262911,262918,262919,262927,262927,262936,262936,262943,262943,262958,262959,262975,262975,262983,262984,263001,263002,263017,263017,263023,263032,263039,263039,263047,263047,263054,263065,263065,263072,263086,263087,263087,263126,263127,263127,263150,263190,263191,263200,263201,263215,263222,263223,263231,263242,263242,263247,263247,263278,263358,263359,263366,263422,263454,263455,263486,263526,263527,263534,263544,263566,263606,263647,263647,264025,264035,264035,264047,264047,264056,264070,264071" d="M1.72569,370.38889C2.33636,368.82489 3.16889,368.50394 4.02569,368.03622C4.77102,367.62936 5.48285,367.39114 6.38736,367.38889C7.18736,367.3869 8.14703,367.38889 8.95103,367.38889C9.77303,367.38889 10.80701,367.4422 11.70486,367.36804C12.73255,367.28314 13.49955,366.92148 14.24036,366.67288C15.18817,366.35483 16.15496,366.44672 17.04719,366.16754C17.76565,365.94275 18.71943,365.50946 19.51503,365.4249C20.23712,365.34814 21.20486,365.38889 22.12569,365.38889C23.02569,365.38889 23.92946,365.47101 24.82569,365.38873C25.73713,365.30505 26.41809,364.72391 27.26736,364.36804C28.05234,364.03909 28.72226,363.65955 29.51103,363.23956C30.54264,362.69028 31.25912,362.45468 32.06403,362.39789C32.96633,362.33423 33.94896,362.48526 34.89236,362.22223C35.574,362.03217 36.21791,361.55154 37.31503,361.39957C38.12886,361.28683 39.0442,361.16055 39.72569,360.88889C40.70042,360.50034 41.47835,360.39114 42.37836,360.38889C43.24169,360.38672 44.22569,360.38889 45.21103,360.38889C45.93636,360.38889 46.92834,360.43625 47.72569,360.36804C48.73259,360.28192 49.49888,359.91949 50.24036,359.67288C51.20811,359.35104 52.04703,359.38889 52.90036,359.38889C53.84036,359.38889 54.82569,359.38889 55.72569,359.38889C56.52569,359.38889 57.39769,359.38889 58.26836,359.38889C59.22569,359.38889 59.95769,359.38889 60.91586,359.38889C61.89236,359.38889 62.72569,359.38889 63.70436,359.38889C64.47836,359.38889 65.38286,359.38889 66.1302,359.38889C67.12569,359.38889 67.92569,359.38889 68.92553,359.38889C69.88969,359.38889 70.84036,359.38889 71.72569,359.38889C72.5257,359.38889 73.42569,359.38889 74.32569,359.38889C75.22569,359.38889 76.13646,359.37549 77.0472,359.38904C77.74676,359.39944 78.73444,359.53024 79.51502,359.81421C80.24935,360.08136 81.22552,360.37845 82.20969,360.38889C82.90032,360.39621 83.96979,360.34265 84.82586,360.38904C85.61447,360.43176 86.57294,360.78616 87.24169,361.19022C88.13244,361.72839 88.88385,362.28433 89.72569,362.36804C90.5552,362.45053 91.4212,362.38889 92.32569,362.38889C93.24653,362.38889 94.20969,362.38889 94.90036,362.38889C95.96853,362.38889 96.82569,362.38889 97.72569,362.38889C98.54002,362.38889 99.49369,362.38889 100.22569,362.38889C100.9577,362.38889 102.08738,362.14774 103.03019,362.40237C103.98591,362.66049 104.36547,363.45721 104.90036,364.11288C105.54377,364.90158 106.20327,365.3576 107.12569,365.38889C108.02967,365.41953 108.89236,365.38889 109.72569,365.38889C110.70419,365.38889 111.52436,365.38889 112.42569,365.38889C113.32569,365.38889 114.26736,365.38889 115.05903,365.38889C116.01903,365.38889 116.61903,365.38889 117.29903,365.38889C118.46819,365.38889 119.32652,365.38889 120.20486,365.38889C121.06319,365.38889 122.22669,365.35394 123.15419,365.39789C123.89554,365.43301 124.93087,365.82462 125.54703,366.25021C126.24561,366.73273 127.04612,367.2536 127.69502,367.50223C128.72842,367.89816 129.47223,368.05927 130.55902,368.22223C131.23499,368.32358 132.16302,368.37732 132.95369,368.38754C134.06427,368.40192 134.89236,368.38889 135.74652,368.38889C136.72569,368.38889 137.53487,368.33218 138.3257,368.47421C139.34024,368.6564 140.03841,369.15302 140.97302,369.33173C141.87775,369.50473 142.77126,369.37845 143.41235,369.47421C144.41684,369.62424 145.19896,369.91061 145.95636,370.10489C147.0461,370.3844 148.0392,370.38889 148.78169,370.38889C149.77769,370.38889 150.40169,370.38889 151.36769,370.38889C152.4612,370.38889 153.29369,370.38889 154.22569,370.38889C155.12569,370.38889 156.0257,370.38889 156.92569,370.38889C157.82619,370.38889 158.5972,370.38889 159.49002,370.38889C160.42302,370.38889 161.12169,370.38889 161.84436,370.38889C162.90419,370.38889 163.88969,370.38889 164.8212,370.38889C165.72569,370.38889 166.62569,370.38889 167.5257,370.38889C168.12569,370.38889 169.32436,370.38889 170.20486,370.38889C170.76852,370.38889 172.03903,370.38889 172.87903,370.38889C173.84169,370.38889 174.6097,370.38889 175.55103,370.38889C176.2417,370.38889 177.31503,370.38889 178.24652,370.38889C179.04703,370.38889 179.90036,370.38889 180.84169,370.38889C181.89236,370.38889 182.55103,370.38889 183.55902,370.38889C184.38702,370.38889 185.26869,370.38889 185.9977,370.38889C186.83469,370.38889 188.02553,370.38889 188.91502,370.38889C189.48969,370.38889 190.55902,370.38889 191.51103,370.38889C192.23552,370.38889 193.36893,370.39398 194.04453,370.3844C194.7883,370.37384 195.59456,370.36005 196.89236,370.22223C197.80936,370.12485 198.2699,370.03949 199.18402,369.88889C200.0592,369.74469 201.22305,369.53015 202.15419,369.44604C202.89215,369.37939 203.92569,369.38889 204.72569,369.38889C205.72569,369.38889 206.51503,369.38889 207.55902,369.38889C208.38702,369.38889 209.26894,369.41214 209.9657,369.37823C210.87436,369.33401 211.64326,368.61371 212.43019,368.39337C213.29254,368.15192 214.2388,368.53165 215.12569,368.37823C215.95915,368.23407 216.42725,367.46085 217.26736,366.90973C217.99254,366.43402 218.98659,366.41086 219.77753,366.39337C220.80396,366.37067 221.48969,366.38889 222.32436,366.38889C223.3257,366.38889 224.12569,366.38889 225.12569,366.38889C225.92569,366.38889 226.92569,366.38889 227.72569,366.38889C228.72569,366.38889 229.51503,366.38889 230.55902,366.38889C231.35103,366.38889 232.21103,366.38889 233.13019,366.38889C234.12436,366.38889 234.88969,366.38889 235.84169,366.38889C236.6097,366.38889 237.56169,366.38889 238.32703,366.38889C239.3212,366.38889 240.24036,366.38889 241.20486,366.38889C242.0302,366.38889 243.04703,366.38901 243.72569,366.38889C244.70419,366.3887 245.55556,366.2446 246.12569,365.53821C246.7618,364.75006 247.42566,364.39352 248.26736,364.38889C249.26851,364.38336 249.99962,364.44308 250.77753,364.27457C251.83083,364.04639 252.45229,363.5015 253.23903,362.95688C253.95045,362.46442 254.89236,362.22223 255.72569,361.88889C256.55902,361.55554 257.42993,361.49036 258.24652,361.36804C259.23398,361.22012 259.8652,360.69388 260.84036,360.47421C261.70804,360.27875 262.48285,360.38889 263.37836,360.38889C264.2417,360.38889 265.22568,360.38889 266.20969,360.38889C266.90036,360.38889 268.02057,360.48199 268.67752,360.03622C269.36844,359.56741 270.09122,359.54498 271.08969,359.37823C271.95721,359.23334 272.49905,358.56506 273.42569,358.39337C274.35474,358.22122 274.77365,357.53421 275.61237,357.39023C276.53751,357.23141 277.2417,357.38889 278.22568,357.38889C279.21103,357.38889 279.93637,357.38889 280.92554,357.38889C281.70486,357.38889 282.70419,357.38889 283.72568,357.38889L284.5257,357.38889" id="svg_32" stroke-width="3" stroke="#000" fill="none"/>
  <path t="266869,266986,266986,267055,267216,267216,267226,267248,267248,267248,267451,267451,267488,267488,267504,267535,267536,267536,267544,267583,267584,267839,267839,267888,267888,267896,267896,267905,267920,267983,268032,268145,268145,268175,268207,268207,268346,268399,268479,268480,268683,268683,268711,268735,268736,268885,268911,268944,268968,268968,269000,269000,269018,269018,269143,269296,269306,269306,269321,269322,269322,269329,269337,269367,269649,269649,269802,269825,269825,269855,269871,269872,269895,270149,270149,270191,270223,270247,270295,270319,270320,270335,270606,270679,270703,270704,270743,270743,270879,270926,270936,270982,270982,271212,271232,271255,271446,271511,271527,271527,271582,271582,271592,271659,271856,271866,271866,271866,271952" d="M2.72569,329.38889C3.72569,328.38889 4.52569,328.38889 5.36169,328.38889C6.37836,328.38889 7.08764,328.23532 8.11103,328.41022C9.09479,328.57834 9.72563,329.10336 10.47503,329.53821C11.38594,330.06677 12.12293,330.18829 12.92569,330.67422C13.60268,331.08401 14.13461,331.8013 14.89236,332.55554C15.37724,333.03818 16.01142,333.77933 16.84036,334.21954C17.67669,334.6637 18.32291,335.05994 19.21103,335.58755C19.90924,336.00235 20.71889,336.27359 21.51503,336.35287C22.55451,336.45639 23.42119,336.38889 24.32569,336.38889C25.22569,336.38889 26.13387,336.50549 27.02569,336.3844C27.84691,336.27289 28.57048,335.61963 28.71502,334.7529C28.85453,333.91635 28.72078,333.04156 28.72569,332.02487C28.73019,331.09335 29.29337,330.44052 29.94703,330.39957C30.92367,330.33838 31.8938,330.47583 32.84036,330.38754C33.7371,330.30389 34.26287,329.64194 35.12569,329.4249C35.9992,329.20517 36.92569,329.38889 37.82586,329.38889C38.61103,329.38889 39.5617,329.38715 40.32703,329.38889C41.3212,329.39114 42.26822,329.41153 43.08969,329.81421C43.96011,330.24088 44.86421,330.43646 45.28969,331.07156C45.79939,331.83234 45.66734,332.89795 45.80969,333.62088C46.00112,334.59302 46.3464,335.50983 46.89236,336.22223C47.39927,336.88367 47.43104,337.83282 48.17236,338.31689C48.90719,338.79672 49.90442,338.47485 50.84036,338.38754C51.7371,338.30389 52.28611,337.73526 53.02569,337.09338C53.69238,336.51477 54.56407,336.18011 55.42569,336.44604C56.29206,336.71344 56.66812,337.68781 57.15103,338.37421C57.66335,339.10239 57.721,339.74072 57.72569,340.7529C57.73001,341.68439 58.30022,342.28647 58.67752,343.09872C58.95606,343.69833 59.47688,344.57758 60.02036,345.08438C60.71901,345.7359 60.63409,346.71902 60.76169,347.56357C60.90693,348.52478 61.15669,349.3688 61.77836,350.03171C62.34539,350.63635 63.45338,350.20047 64.32569,350.4249C65.19191,350.64777 65.83904,351.30411 66.2897,352.02487C66.77621,352.80295 66.49711,353.76718 66.73019,354.62723C66.95204,355.4458 67.76736,355.90973 68.38969,356.48889L69.22569,356.88889L69.8737,357.18887L70.68403,357.88889" id="svg_33" stroke-width="3" stroke="#000" fill="none"/>
  <path t="274296,274412,274412,274422,274442,274443,274463,274489,274489,274511,274519,274519,274528,274552,274569,274569,274569,274589,274607,274646,274646,274655,274658,274711,274898,274944,274944,274992,274992,275008,275039,275071,275127,275127,275202" d="M143.72569,339.38889C142.72569,340.38889 142.72569,341.18887 142.72569,342.02487C142.72569,343.04156 142.72569,343.73621 142.72569,344.76355C142.72569,345.71021 142.72569,346.56357 142.72569,347.50354C142.72569,348.38889 142.72569,349.18887 142.72569,350.0889C142.72569,350.93054 142.72569,351.93155 142.72569,352.63956C142.72569,353.38354 142.72569,354.57455 142.72569,355.48889C142.72569,356.38889 142.72569,357.18887 142.72569,358.10355C142.72569,358.96356 143.19789,359.6745 143.60435,360.48889C144.02635,361.33438 144.42555,361.98486 144.64037,362.87289C144.84422,363.71567 144.72569,364.63171 144.72569,365.5889C144.72569,366.48889 144.72569,367.38889 144.72569,368.18887L144.72569,369.0889" id="svg_34" stroke-width="3" stroke="#000" fill="none"/>
  <path t="276636,276782,276792,276819,276840,276840,277109,277159,277159" d="M144.72569,339.38889C144.72569,340.38889 144.72328,341.18887 144.72569,342.14606C144.72795,343.04156 144.78285,343.73621 145.15103,344.7529L145.60435,345.48904L145.80969,346.27423" id="svg_35" stroke-width="3" stroke="#000" fill="none"/>
  <path t="277966,278380,278380,278423,278431,278432,278644,278654" d="M145.72569,348.38889C146.89236,349.38889 147.32771,349.9758 147.70036,350.78888C148.10881,351.68005 148.4417,352.27423 148.67903,353.20355L148.5042,354.14587" id="svg_36" stroke-width="3" stroke="#000" fill="none"/>
  <path t="278962,279155,279200,279335,279504,279504,279759" d="M144.72569,352.38889C144.72569,354.97821 144.74652,355.88889 145.07835,356.68887L145.60435,357.48889L145.80969,358.18887L146.30035,358.98889" id="svg_37" stroke-width="3" stroke="#000" fill="none"/>
  <path t="280622,280835,280856,280856,280879,280911,280911,280975,280975" d="M137.72569,358.38889C138.89502,357.58755 139.60248,357.01318 140.24303,356.5889C141.10092,356.02063 141.64169,355.18756 141.80969,354.50354L142.15103,353.56357L142.4417,352.87289" id="svg_38" stroke-width="3" stroke="#000" fill="none"/>
  <path t="281612,281689,281743,281752,281768,281784,281784,281791,281807,281807,281823" d="M133.72569,354.38889C135.5257,354.38889 136.3257,354.38889 137.22569,354.38889C138.13635,354.38889 139.04703,354.38889 139.90036,354.38889C140.84036,354.38889 141.72569,354.38889 142.5257,354.38889L143.44035,354.21823" id="svg_39" stroke-width="3" stroke="#000" fill="none"/>
  <path t="282452,282569,282569,282579,282579,282594,282594,282607,282647,282845,282845" d="M136.72569,350.38889C138.72653,349.0889 139.56175,348.96814 140.36153,348.28888C140.94011,347.79749 141.52568,347.20419 142.1577,346.5889C142.86684,345.8985 143.08286,345.08438 143.72569,344.22223L144.10435,343.57422" id="svg_40" stroke-width="3" stroke="#000" fill="none"/>
  <path t="283215,283295,283295,283320,283328,283328,283336,283351,283367" d="M134.72569,346.38889C136.5257,346.38889 137.3257,346.38889 138.24652,346.38889C139.20969,346.38889 139.90036,346.38889 140.96852,346.38889L141.92436,346.38754L142.64169,346.10489" id="svg_41" stroke-width="3" stroke="#000" fill="none"/>
  <path t="283999,284039,284057,284057,284064,284064,284072,284079,284104,284111,284143,284151,284151,284375" d="M136.72569,345.38889C137.52702,344.21954 138.07622,343.47952 138.61102,342.87155C139.30644,342.08096 140.10548,341.83176 140.96402,341.44156C141.70752,341.10364 142.26073,340.53879 143.12569,340.37823C143.9561,340.22409 144.55902,339.38889 144.80969,338.67422L145.60419,338.16772" id="svg_42" stroke-width="3" stroke="#000" fill="none"/>
  <path t="285322,285432,285492,285543,285543,285543,285739" d="M143.72569,340.38889C145.28969,340.99954 145.71103,341.79956 146.16837,342.71021L146.57635,343.21423L147.1577,343.90488L147.66435,344.7529" id="svg_43" stroke-width="3" stroke="#000" fill="none"/>
  <path t="286305,286435,286455,286471,286471,286679" d="M147.72569,346.38889C148.89502,347.19022 149.57635,347.78888 150.39236,348.38889L150.71669,349.0889L150.76169,349.95288" id="svg_44" stroke-width="3" stroke="#000" fill="none"/>
  <path t="287215,287295,287332,287359,287375,287375,287391,287392,287407,287439,287439" d="M144.72569,346.38889C144.72569,348.0889 144.72569,348.98889 144.72569,349.90973C144.72569,350.87421 144.72569,351.59955 144.72569,352.58871C144.72569,353.36804 144.72569,354.3674 144.72569,355.38889L144.78285,356.0889" id="svg_45" stroke-width="3" stroke="#000" fill="none"/>
  <path t="288172,288282,288327,288376,288376" d="M143.72569,354.38889C143.78285,356.0889 144.24652,356.88889 144.92569,357.5889L145.42569,358.0889" id="svg_46" stroke-width="3" stroke="#000" fill="none"/>
  <path t="289098,289188,289198,289198,289223,289239,289239,289295,289295" d="M143.72569,351.38889C145.48286,351.38889 146.39845,351.27216 147.2417,351.47421C148.1398,351.68942 148.89236,352.22223 149.72569,352.40973L150.55902,352.72223L151.08969,353.25021" id="svg_47" stroke-width="3" stroke="#000" fill="none"/>
  <path t="290185,290302,290358,290358,290358,290398,290408,290475" d="M146.72569,350.38889C146.72569,352.06088 146.72569,353.15689 146.72569,353.88889C146.72569,354.62088 146.72569,355.71689 146.72569,356.5889L146.72586,357.48889" id="svg_48" stroke-width="3" stroke="#000" fill="none"/>
  <path t="294467,294634,294634,294665,294719,294747,294747,294752,294775,295053,295063,295087,295104,295232,295232,295310,295310,295347,295347,295635,295663" d="M213.72569,364.38889C212.72569,364.38889 211.77957,364.30826 211.1617,364.99954C210.56543,365.66666 210.30348,366.52145 209.57635,366.95288C208.733,367.45325 208.24736,368.16599 207.43019,368.6799C206.82979,369.0575 206.54976,367.93671 207.1617,367.41422C207.88518,366.79651 208.68202,366.59293 209.73103,366.44604C210.46927,366.34268 211.39236,366.38889 212.30435,366.38889L213.22569,366.38889L214.12569,366.38889" id="svg_49" stroke-width="3" stroke="#000" fill="none"/>
  <path t="306007,306133,306133,306174,306184,306527,306551,306559,306567,306590,306662,306663,306663,306955,306965,306975,306975,306983,306983,306991,306991,307103,307103,307163,307200,307239,307257,307257,307267,307267,307273,307510,307510,307520,307542,307543" d="M137.72569,87.38889C136.72569,87.38889 135.92528,87.41613 135.0257,87.38889C134.08156,87.36029 133.71112,86.47279 134.43019,86.38889C135.31967,86.2851 136.22569,86.38889 137.14702,86.38889C138.05902,86.38889 138.73103,86.38889 139.72035,86.38889C140.75237,86.38889 141.24303,86.38889 140.40436,86.38889C139.55103,86.38889 138.6097,86.38889 137.84169,86.38889C136.88969,86.38889 136.12436,86.38889 135.13019,86.38889C134.21103,86.38889 133.24652,86.38889 132.3257,86.38889C131.42119,86.38889 130.55902,86.38889 129.72569,86.38889C128.74719,86.38889 127.92702,86.38889 127.0257,86.38889C126.22569,86.38889 126.92169,86.38889 127.97302,86.38889L128.89236,86.38889L129.72569,86.36805" id="svg_50" stroke-width="3" stroke="#000" fill="none"/>
  <path t="308483,308647,308671,308686,308687,308703,308703,308726,308743,308743,308758,308775,308783,308798,308808,308808,308953,308953,308983,309001,309002,309009,309009,309090,309207,309207,309263,309263,309273,309303,309311,309319,309319,309327,309335,309352,309399,309591,309591,309639,309663,309679,309679,309695,309695,309727,309917,309950,309950,309951,309975,310030,310030,310118,310118,310145,310207,310247,310287,310297,310351,310657,310657,310678,310679,310682,310682,310698,310699,310707,310707,310719,310743,310743,310743,310743,310766,310766,310799,311150,311207,311207,311207,311239,311239,311255,311272,311272,311407,311439,311440,311547,311547,311547,311557,311569,311570" d="M145.72569,89.38889C144.0257,89.38889 143.08969,89.38889 142.24036,89.38889C141.3212,89.38889 140.32703,89.38889 139.56169,89.38889C138.61102,89.38889 137.72569,89.38889 136.92569,89.38889C136.0257,89.38889 135.12569,89.38889 134.22569,89.38889C133.31503,89.38889 132.40419,89.38896 131.51503,89.38889C130.52603,89.3888 129.50574,89.77895 128.89636,89.10222C128.29654,88.43609 128.72569,87.38889 128.72569,86.41039C128.72569,85.59022 128.65378,84.7497 128.7347,83.73622C128.79062,83.03584 129.39421,82.07496 130.07753,81.75055C130.92812,81.34672 131.92569,81.38889 132.8257,81.38889C133.72569,81.38889 134.5257,81.38889 135.42569,81.38889C136.3257,81.38889 137.22569,81.38889 138.0302,81.38889C139.04703,81.38889 139.73282,81.27123 140.70403,81.38905C141.6243,81.50069 141.72569,82.55555 141.72569,83.21422C141.72569,84.22222 142.118,85.19648 141.6897,85.95289C141.30833,86.62642 140.18303,86.38889 139.22569,86.38889C138.4937,86.38889 137.17252,86.54478 136.81102,85.81822C136.43585,85.06418 136.89743,83.96226 136.6897,83.26089C136.41664,82.33895 135.33636,82.37822 134.72569,81.88889C134.11502,81.39955 133.19096,81.44176 132.42569,81.03622C131.57999,80.58805 130.60132,80.87031 131.16853,81.26756C131.92661,81.79848 133.03172,81.69083 133.52435,82.27555C134.11339,82.97469 134.3752,83.88701 135.37836,84.27455C136.03377,84.52775 137.14545,84.32046 138.05902,84.72222C138.76414,85.03231 139.24004,85.3892 139.95769,85.90622C140.92702,86.60456 141.18027,87.34115 141.80969,88.10355C142.13062,88.49227 141.38376,88.24997 140.47502,87.95289C139.72322,87.70712 138.89047,87.25331 138.14702,86.82489C137.34723,86.36401 136.66283,85.91842 136.12569,85.23956C135.56299,84.52839 134.54475,84.56368 133.84036,84.13289C133.11969,83.69215 132.72569,82.88889 132.20969,82.24088L131.35103,81.49689L130.55902,81.38889L129.72569,81.38889" id="svg_51" stroke-width="3" stroke="#000" fill="none"/>
 </g>
</svg>