<svg width="500" height="333.3333333333333" xmlns="http://www.w3.org/2000/svg" xmlns:svg="http://www.w3.org/2000/svg" xmlns:xlink="http://www.w3.org/1999/xlink">
 <!-- Created with SVG-edit - http://svg-edit.googlecode.com/ -->
 <g display="inline" class="layer">
  <title>Layer 1</title>
  <path t="0,78,78,130,145,164,193,212,244,260,277,300,310,343,380,396,410,444,484,510,526,543,560,576,593,611,611,626,626,643,643,660,660,676,676,693,732,732,760,776,776,793,810,826,843,860,876,876,893,893,910,926,943,943,960,960,976,993,1026,1044,1068,1128,1128,1143,1164,1179,1210,1226,1226,1243,1283,1310,1310,1310,1331,1360,1380,1395,1410,1426,1444,1460,1476,1493,1493,1510,1526,1543,1560,1560,1593,1610,1643,1667,1668,1693,1726,1778,1778,1794,1811,1843,1860,1876,1893,1915,1943,1943,1960,1976,1993,2010,2026,2026,2043,2067,2067,2099,2126,2143,2160,2176,2226,2345,2426,2458,2458,2476,2510,2543,2560,2576,2593,2627,2627,2643,2660,2660,2676,2710,2710,2743,2760,2776,2793,2811,2827,2847,2860,2876,2893,2893,2893,2910,2943,2976,2993,3010,3043,3060,3076,3093,3115,3143,3160,3195,3227,3227,3260,3276,3328,3410,3441,3495,3545,3561,3628,3628,3677,3711,3761,3777,3777,3828,3844,3877,3894,3916,3961,3977,4012,4012,4044,4077,4077,4129,4144,4180,4212,4212,4243,4243,4260,4293,4332,4360,4376,4410,4460,4512,4576,4593,4612,4652,4676,4716,4716,4743,4764,4764,4780,4793,4814,4844,4893,4910,4910,4926,4943,4960,4995,4995,5012,5043,5043,5084,5110,5110,5126,5147,5176,5193,5212,5243,5276,5293,5315,5343,5364,5410,5410,5427,5460,5500,5526,5543,5543,5560,5593,5626,5667,5667,5676,5693,5710,5726,5726,5760,5760,5776,5810,5843,5883,5915,5963,5993,6010,6010,6026,6043,6044,6060,6060,6061,6061,6076,6076,6077,6077,6093,6093,6110,6110,6131,6179,6179,6210,6210,6226,6243,6260,6260,6276,6310,6343,6360,6376,6410,6426,6460,6476,6499,6526,6560,6576,6611,6626,6928,6978,6994,7043,7060,7076,7093,7143,7143,7144,7176,7210,7226,7226,7243,7260,7283,7310,7331,7360,7376,7393,7393,7410,7426,7444,7444,7460,7461,7493,7493,7494,7510,7511,7511,7526,7543,7543,7560,7593,7612,7626,7643,7676,7744,7906,7906,7947,8011,8044,8173,8173,8188,8210,8243,8243,8276,8293,8331,8360,8376,8410,8444,8495,8495,8511,8548,8580,8611,8628,8682,8682,8726,8726,8759,8796,8826,8878,8990,9061,9173,9173,9306,9321,9359,9393,9409,9426,9444,9476,9499,9526,9543,9576,9593,9626,9643,9644,9659,9758,9793,9845,9861,9893,10128,10223,10239,10260,10327,10380,10460,10493,10526,10609,10659,10774,10826,10826,10876,10915,10916,10963,11028,11028,11157,11172,11259,11358,11358,11409,11409,11459,11483,11484,11509,11510,11543,11611,11644,11659,11660,11676,11699,11747,11776,11859,11891,11944,11996,12011,12027,12067,12093,12109,12143,12143,12159,12176,12209,12243,12244,12276,12299,12326,12343,12344,12359,12393,12393,12426,12444,12460,12461,12477,12493,12543,12563,12564,12609,12609,12626,12659,12659,12693,12731,12732,12759,12795,12795,12859,12883,12992,13061,13099,13100,13131,13159,13209,13209,13226,13243,13315,13326,13343,13376,13393,13409,13427,13444,13478,13478,13510,13510,13526,13543,13544,13580,13628,13643,13693,13743,13743,13776,13845,13927,13927,13943,13979,13993,14026,14127,14180,14180,14212,14227,14260,14300,14327,14344,14410,14411,14427,14445,14484,14532,14560,14561,14577,14577,14610,14627,14644,14660,14694,14726,14743,14776,14828,14828,14895,14895,14961,14993,15027,15076,15093,15110,15127,15159,15193,15209,15210,15278,15476,15560,15596,15644,15761,15777,16080,16080,16112,16126,16144,16144,16211,16418,16434,16476,16499,16500,16526,16559,16576,16595,16609,16627,16627,16695,16695,16731,16732,16759,16827,16859,16893,16931,17307,17359,17376,17426,17492,17548,17577,17643,17644,17684,17696,17726,17759,17776,17809,17844,17844,17876,17916,17927,17994,18091,18115,18142,18211,18227,18277,18293,18411,18444,18445,18478,18479,18493,18511,18527,18528,18560,18593,18627,18660,18693,18710,18764,18764,18793,18810,18827,18828,18843,18860,18861,18877,18878,18893,18894,18910,18943,18944,18961,18961,18961,18978,18978,18993,18994,19027,19028,19043,19044,19060,19061,19077,19078,19093,19110,19111,19127,19128,19143,19160,19177,19178,19193,19227,19260,19293,19310,19327,19343,19360,19377,19410,19427,19443,19461,19461,19477,19478,19494,19494,19494,19510,19511,19528,19543,19559,19592,19593,19609,19626,19643,19660,19676,19677,19692,19693,19709,19710,19726,19727,19743,19760,19776,19777,19792,19793,19793,19809,19810,19810,19826,19827,19827,19843,19843,19843,19844,19859,19860,19860,19876,19877,19877,19892,19893,19893,19909,19910,19910,19910,19926,19942,19943,19959,19960,19960,19976,19993,19993,20026,20059,20092,20093,20126,20142,20159,20176,20193,20193,20209,20242,20243,20259,20260,20276,20277,20292,20293,20293,20309,20326,20327,20359,20360,20376,20393,20393,20409,20442,20460,20476,20516,20559,20642,20676,20677,20692,20710,20710,20726,20727,20727,20742,20759,20760,20776,20777,20777,20792,20809,20826,20842,20859,20876,20893,20909,20926,20927,20942,20959,20992,21009,21010,21026,21027,21042,21059,21076,21092,21109,21126,21142,21143,21176,21212,21242,21276,21277,21292,21293,21332,21376,21392,21442,21443,21660,21711,21743,21743,21776,21827,21892,21977,22042,22043,22109,22192,22226,22267,22299,22359,22459,22492,22577,22609,22659,22699,22726,22779,22826,22957,22979,22979,23009,23026,23059,23092,23126,23126,23142,23176,23177,23192,23209,23210,23242,23243,23259,23260,23293,23294,23294,23310,23326,23342,23359,23376,23409,23476,23492,23493" d="M219.3,221.86667C219.3,222.86667 219.42429,223.6441 219.87466,224.46666C220.30196,225.24706 220.3,226.16667 220.3,227.06667C220.3,227.96651 220.3,228.84134 220.3,229.668C220.3,230.56667 220.30496,231.46667 220.3,232.34584C220.29466,233.29205 219.67381,233.69499 219.0045,234.22383C218.26358,234.80925 218.73425,236.09908 218.13333,236.7C217.53241,237.30092 216.49867,236.86667 215.60001,236.86667C214.7,236.86667 213.8,236.86667 212.88933,236.86667C211.97867,236.86667 211.12534,236.86667 210.18401,236.86667C209.416,236.86667 208.464,236.86494 207.69867,236.86667C206.7,236.86893 205.88174,236.85472 204.90134,237.15067C204.1176,237.38724 203.12491,237.62569 202.3,238.03334C201.5804,238.38895 201.11949,239.32458 200.3,239.7C199.55731,240.04022 198.57292,239.6806 197.7,239.90266C196.84703,240.11964 196.32553,241.02484 195.65334,241.44133C194.88426,241.91786 193.86182,241.85065 193.18533,242.43466C192.61723,242.92511 192.00542,243.8093 191.10001,243.86667C190.20163,243.92358 189.40565,243.92801 188.47467,244.29201C187.77678,244.56487 186.82101,244.85625 185.91066,244.86667C185.01472,244.87692 184.09624,244.78455 183.2,244.86684C182.28856,244.95052 181.55878,245.41028 181.336,246.26666C181.10922,247.13838 181.3,248.16217 181.3,249.03334C181.3,249.86667 180.90707,250.79701 181.38533,251.58133C181.8755,252.38518 182.4346,253.04738 182.73599,253.692C183.06693,254.3998 183.65508,255.28589 184.39983,255.74533C185.17438,256.22314 185.48558,256.72937 186.3,256.88751C187.23259,257.06857 187.73543,257.84866 188.60001,257.86667C189.4998,257.88541 190.40016,257.86667 191.18533,257.86667C192.11467,257.86667 193.13066,257.86667 193.94667,257.86667C194.784,257.86667 195.6487,257.91907 196.65334,257.86667C197.47267,257.82394 198.29942,257.30875 199.13333,257.03333C199.87398,256.7887 200.58281,256.25821 201.46666,255.86667C202.24368,255.52246 202.95438,255.07469 203.8,254.8875C204.75688,254.67567 205.2412,254.10725 206.0045,253.87117C206.86089,253.60629 207.64574,253.33925 208.5,252.95067C209.26312,252.60355 210.00121,252.22205 210.8,251.86667C211.59671,251.51222 211.90707,250.57671 212.5215,249.98801C213.20238,249.33565 213.95375,249.06651 214.82083,248.8875C215.76305,248.69296 216.58649,248.80431 217.31467,248.29201C218.00107,247.80908 218.72256,247.18115 219.60001,246.92383C220.46417,246.67039 220.87119,246.2955 221.5215,245.86667C222.2549,245.38306 223.34097,246.04808 224.10001,245.78133C224.95595,245.48051 225.65266,244.86676 226.58533,244.86667C227.39983,244.86658 228.034,244.3965 228.72533,243.90266C229.40619,243.41632 230.06975,243.02222 230.936,242.87733C231.93442,242.71034 232.60379,242.63835 233.29733,242.15067C233.92271,241.71089 234.54451,241.5322 235.46666,241.03334C236.21414,240.62897 237.13573,241.06227 238,240.80949C238.87762,240.55281 239.66307,240.06004 240.39983,239.64534C241.2323,239.17676 241.71088,238.32124 242.63333,238.03334C243.27974,237.83159 244.3945,238.10147 245.12849,237.51401C245.71974,237.04079 246.40437,236.95535 247.3,236.86667C248.14571,236.78293 248.60645,236.07895 249.49867,235.86534C250.2485,235.68582 250.73544,234.88531 251.60001,234.86667C252.49846,234.84731 253.01236,234.32336 253.58533,233.86534C254.24446,233.33842 255.06863,233.01494 256,232.87117C256.85391,232.73935 257.73599,232.86667 258.70001,232.86667C259.60001,232.86667 260.49866,232.86667 261.32083,232.86667C262.16135,232.86667 263.13351,232.84952 263.99551,232.86667C264.90054,232.88467 265.86911,233.20218 266.1785,233.96666C266.5192,234.8085 266.29999,235.66667 266.29999,236.7C266.29999,237.47734 266.29999,238.36667 266.29999,239.26666C266.29999,240.16217 266.29999,241.08817 266.29999,241.96666C266.29999,242.86667 266.64404,243.76923 266.21466,244.58133C265.76093,245.43945 265.31042,245.88733 265.29999,246.84517C265.28888,247.86661 265.06851,248.56972 264.29999,249.03334C263.66583,249.41589 263.56326,250.40123 263.24734,251.15683C262.90289,251.9807 262.15964,252.39455 261.65268,252.92383C261.08344,253.51814 261.29999,254.56667 261.29999,255.46666C261.29999,256.34583 261.29999,257.22385 261.29999,258.16666C261.29999,259.06668 261.29999,259.96649 261.29999,260.84134C261.29999,261.62833 261.17694,262.54099 261.38535,263.38266C261.6059,264.27338 262.50092,264.88879 262.94284,265.56668C263.4213,266.3006 263.59,267.25974 264.39984,267.74533C265.12946,268.1828 265.46667,268.86667 266.29999,268.86667C267.10001,268.86667 268,268.86667 268.89999,268.86667C269.86401,268.86667 270.75092,268.94568 271.48532,268.83066C272.43466,268.68198 273.05585,267.83749 273.35266,267.16666C273.72769,266.319 274.41345,265.54556 275.10001,265.15201C275.83383,264.73135 277.06866,264.9248 277.2955,264.16217C277.55081,263.3038 277.29999,262.36667 277.29999,261.47733C277.29999,260.58133 277.14066,259.56879 277.65268,258.91934C278.13724,258.30472 278.0799,257.4982 278.46667,256.70001C278.8327,255.94464 279.28934,255.26666 279.29999,254.36667C279.31067,253.46666 279.80051,252.64786 280.13333,251.86667C280.45352,251.11513 280.66797,250.436 281.1785,249.64534C281.63666,248.93578 281.29999,247.86667 281.29999,247.06667C281.29999,246.16667 281.2243,245.20026 281.73599,244.46666C282.20709,243.79128 282.99411,243.27341 283.21466,242.38266C283.42307,241.54097 283.20816,240.56418 283.72534,239.892C284.19965,239.27553 284.29999,238.46666 284.29999,237.47734C284.29999,236.58133 284.25217,235.7654 284.29999,234.86667C284.34271,234.06326 284.88202,233.23695 285.504,232.66533C286.14355,232.07755 287.05988,231.53709 287.66699,231.214C288.33688,230.85751 289.0484,230.50136 290.13333,230.03334C290.80856,229.74205 291.74774,229.36967 292.61334,229.15334C293.60324,228.90594 294.49234,228.96359 295.2785,228.64534C296.05157,228.33238 296.89246,227.96625 297.74301,227.64517C298.55713,227.33786 299.29999,226.86667 300.07867,226.47734C300.96667,226.03334 301.55927,225.33672 302.39999,224.98817C303.05609,224.71617 304.10892,225.30655 304.94284,224.86667C305.55869,224.54181 306.00449,223.814 306.79999,223.36667C307.59549,222.91933 308.28448,222.45015 308.79999,221.86667C309.36356,221.22879 310.13315,221.0537 311,220.80949C311.76129,220.59503 312.58224,220.06976 313.24734,219.51401C313.90048,218.96825 314.23428,217.91161 315.00449,217.92833C315.90482,217.94788 316.10663,219.22975 316.52133,219.96651C316.9899,220.79897 317.29999,221.42917 317.29999,222.40916C317.29999,223.10667 317.29987,224.01334 317.29999,225.08817C317.30008,225.96666 317.51172,226.83841 317.87466,227.46666C318.36322,228.31233 318.98923,228.52518 319.77917,228.8875C320.50986,229.22264 320.71756,230.28375 321.49866,230.78267C322.23102,231.25046 322.49246,232.20146 323.18668,232.58133C323.88406,232.96292 324.96667,232.86667 325.87067,232.86667C326.70901,232.86667 327.70001,232.86673 328.5,232.86667C329.50015,232.86658 330.11624,232.90517 330.98532,232.78133C331.99234,232.63783 332.79739,232.3905 333.53067,232.06534C334.51364,231.62946 335.28915,230.97606 336,230.87117C336.93472,230.73326 337.2883,229.97241 338.00449,229.86667C338.93451,229.72935 339.37057,229.10303 340.29999,228.86667C341.12363,228.65721 341.34821,227.7486 341.91068,227.30267C342.67975,226.69295 343.70819,226.75009 344.60001,226.87117C345.42136,226.98268 346.0239,227.54793 346.68933,228.256C347.32214,228.92935 347.29999,229.86667 347.29999,230.66667C347.29999,231.56667 347.29999,232.50951 347.29999,233.3875C347.29999,234.26666 347.29999,235.16667 347.29999,236.06534C347.29999,236.95067 347.12646,237.90492 347.38535,238.66667C347.6871,239.55457 348.28537,240.24693 348.79999,240.86667C349.2999,241.46872 349.29999,242.3875 349.29999,243.34933C349.29999,244.15683 349.57941,244.95111 350.01599,245.668C350.48743,246.44211 351.13913,246.74745 351.77917,247.3875C352.41922,248.02753 352.72482,248.84866 353.66165,248.86667C354.62115,248.8851 355.3071,248.98413 356.27832,248.8665C357.19873,248.75504 357.86679,248.18896 358.26401,247.43066C358.66327,246.66844 358.98129,246.05566 359.28934,245.29201C359.6116,244.49315 359.30066,243.46666 359.29999,242.56667C359.29932,241.668 358.73312,241.18901 358.336,240.43066C357.93475,239.66441 357.91348,238.72853 357.58401,238.06667C357.15741,237.20961 356.48584,236.87448 356.3045,236.16217C356.08359,235.29433 355.97122,234.30983 356.29999,233.3875C356.52579,232.75409 357.58533,232.86667 358.5,232.86667C359.39999,232.86667 360.29999,232.86667 361.17868,232.86667C362.00449,232.86667 362.89999,232.86667 363.79999,232.86667C364.68933,232.86667 365.58533,232.86667 366.50134,232.86667C367.46667,232.86667 368.32147,232.479 369.13068,233.15199C369.82538,233.72975 370.00336,234.56778 370.60001,235.16667C371.29868,235.86798 371.95734,236.33546 372.68933,236.84134C373.36331,237.30711 373.63248,238.19016 374.29999,238.86667C374.91409,239.48907 375.65115,239.92104 376.27917,240.36667C377.17813,241.00456 377.38934,241.93771 377.94666,242.46666C378.69302,243.17505 379.51593,243.38756 380.13068,244.06534C380.7431,244.74055 381.55728,244.70297 382.39999,245.088C383.06931,245.3938 383.89993,245.86133 384.77917,245.86667C385.73596,245.87247 386.60001,245.86667 387.5,245.86667C388.39984,245.86667 389.28958,245.84602 389.29999,244.95067C389.30914,244.16222 389.29776,243.2469 389.72534,242.46666C390.17548,241.64526 390.29999,240.78267 390.29999,239.86667C390.29999,239.06667 390.31015,238.16661 390.29999,237.26666C390.28958,236.34566 390.06537,235.55074 389.72534,234.692C389.40903,233.89316 389.31033,232.90561 388.77917,232.34584C388.11804,231.64911 387.5,231.06667 386.89999,230.46666C386.20016,229.76683 385.65759,229.22365 385.27917,228.34584C384.94321,227.5665 384.3754,226.77377 383.70001,226.30267C382.9664,225.79095 381.8414,226.04802 381.32535,225.43066C380.79608,224.79749 380.427,224.04507 379.64734,223.56667C378.96411,223.14743 377.92389,222.66351 377.46667,221.86667C377.08975,221.20976 376.41333,220.86734 375.47467,220.86667C374.784,220.86618 373.72009,220.95448 372.85718,220.64534C372.08304,220.36801 371.18842,219.90947 370.29999,219.86667C369.42233,219.82439 368.77917,219.34584 368.10001,218.66667C367.60001,218.16667 366.70782,217.56776 366.38535,216.66667C366.11426,215.90918 366.50079,215.03079 366.24283,214.16667C365.98645,213.30791 365.29999,212.58133 365.29999,211.66667C365.29999,210.76666 365.29999,209.86667 365.29999,209.03334C365.29999,208.16217 365.28809,207.24152 365.72534,206.46666C366.13528,205.74023 366.32449,204.95685 366.73599,204.04134C367.0563,203.32867 367.59686,202.62093 368.29999,201.86667C368.86151,201.26431 369.28131,200.46718 369.29999,199.56667C369.3186,198.6682 369.70441,198.01939 370.5,197.58267C371.14813,197.2269 372.07227,196.95128 372.73599,196.43066C373.47476,195.85118 373.99915,195.22194 374.79999,194.86667C375.59918,194.51212 376.59531,194.26469 377.1785,193.64534C377.74768,193.04086 378.25827,192.63272 379,192.21933C379.76367,191.7937 380.80411,191.63361 381.1785,190.76683C381.52933,189.95461 381.88147,189.22708 382.68933,188.90266C383.49768,188.57803 384.17972,188.13367 384.77917,187.36667C385.28683,186.71712 384.9068,185.48476 385.58667,184.952C386.28259,184.40666 387.35376,185.02286 388.27832,184.64534C389.00558,184.34839 389.34113,183.46857 389.87466,182.84134C390.38293,182.2438 391.09177,181.76622 391.79999,181.36667C392.67798,180.87132 393.1395,180.35712 393.65717,179.56667C394.17786,178.77161 394.77457,178.34024 395.5,177.668C396.08047,177.1301 397.11844,176.81549 397.29868,176.06534C397.513,175.17328 398.11777,174.6346 398.30017,173.76683C398.46671,172.97453 399.112,172.3781 399.73599,171.892C400.47815,171.31386 401.215,170.87927 401.29868,170.06667C401.39236,169.1568 401.29999,168.256 401.29999,167.36667C401.29999,166.46666 401.29999,165.57117 401.29999,164.64517C401.29999,163.76666 401.26279,162.8658 401.29999,162.06667C401.34271,161.14902 402.14264,160.73152 402.70001,160.01601C403.13367,159.45932 404.11569,158.87798 404.29868,158.06534C404.48352,157.24438 404.25366,156.30357 404.58401,155.384C404.8266,154.70874 405.03506,153.65637 405.52133,152.98801C406.03067,152.28793 406.21786,151.6629 406.30017,150.76666C406.38385,149.85522 407.00458,149.26198 407.52151,148.42383C407.96158,147.71033 408.4675,146.9341 408.86401,146.27733C409.37152,145.43674 409.29999,144.50951 409.29999,143.66667C409.29999,142.76666 409.93954,141.61243 409.2955,140.92383C408.74979,140.34036 407.91284,141.18115 407.13333,141.7C406.42587,142.17088 405.85205,142.37465 405.21466,142.86534C404.4899,143.42331 403.50906,142.96768 402.79999,143.36667C401.92145,143.86101 401.42609,144.59225 400.68933,144.856C399.85196,145.15576 398.83383,144.73135 398.10001,145.15199C397.41342,145.54555 396.85971,146.39087 396.35266,147.16217C395.8978,147.8541 394.97147,147.82726 394.29999,148.36667C393.69302,148.85428 393.24734,149.57117 392.79999,150.36667C392.35266,151.16217 391.74664,151.73312 391.32083,152.36667C390.85065,153.06624 390.22241,153.80475 389.82083,154.3875C389.31326,155.12407 389.49646,156.18443 388.77917,156.84584C388.14252,157.43291 387.21066,157.79378 386.73599,158.46666C386.21765,159.20146 386.19589,160.28059 385.42133,160.74516C384.74457,161.15106 383.94333,161.47897 383.384,162.15199C382.82788,162.82114 382.65176,163.62852 381.89999,164.256C381.24432,164.80327 380.34171,165.10062 379.60001,165.51401C378.8363,165.93965 377.98312,166.21494 377.41467,166.75333C376.62979,167.49673 376.22549,168.16405 375.3215,168.62367C374.55966,169.01102 373.66376,168.84795 372.81332,168.868C372.05276,168.88593 370.87601,169.07724 370.08533,169.29201C369.30692,169.50345 368.44843,169.8013 367.55182,169.86217C366.65387,169.92313 365.86932,169.86667 364.85699,169.86667C364.07867,169.86667 363.10016,169.86667 362.32083,169.86667C361.32132,169.86667 360.41599,169.86667 359.47467,169.86667C358.784,169.86667 357.79999,169.86667 356.81467,169.86667C356.08932,169.86667 355.10034,169.86667 354.172,169.86667C353.24933,169.86667 352.43866,169.86667 351.46667,169.86667C350.60449,169.86667 349.73599,169.86667 348.86401,169.86667C348,169.86667 347.09976,169.84494 346.10132,169.86667C345.27408,169.88467 344.75238,170.62785 343.79999,170.84584C342.92245,171.04669 342.00443,170.85736 341.19016,170.86667C340.27899,170.87709 339.34177,171.12833 338.67465,171.44133C337.83588,171.83485 337.04684,171.85477 336.13333,172.03334C335.34494,172.18745 334.57825,172.51228 333.44299,172.74516C332.61801,172.9144 331.70001,172.86667 330.79999,172.86667C329.91068,172.86667 328.96667,172.86667 328.27917,172.86667C327.18533,172.86667 326.29999,172.86667 325.42133,172.86667C324.65332,172.86667 323.64282,172.86617 322.89551,172.86667C321.89999,172.86734 321.08197,172.82329 320.10016,173.088C319.30103,173.30345 318.47778,173.77829 317.60449,173.86217C316.80365,173.93909 315.88934,173.86667 314.97833,173.86667C314.25833,173.86667 313.13333,173.86667 312.34732,173.86667C311.52533,173.86667 310.46667,173.86667 309.75266,173.86667C308.84732,173.86667 307.87833,173.86667 307.05334,173.86667C306.13834,173.86667 305.13333,173.86667 304.41733,173.86667C303.68533,173.86667 302.60983,173.86667 301.63333,173.86667C300.81433,173.86667 299.909,173.86667 298.89734,173.86667C298.25833,173.86667 297.52933,173.86667 296.33066,173.86667C295.63867,173.86667 294.91467,173.86667 293.46667,173.86667C292.78799,173.86667 291.86249,173.86667 291.07199,173.86667C290.10983,173.86667 289.13333,173.86667 288.27917,173.86667C287.29999,173.86667 286.51068,173.86667 285.78534,173.86667C284.79999,173.86667 283.81601,173.86667 283.12534,173.86667C282.06168,173.86667 281.13333,173.86667 280.29999,173.86667C279.41467,173.86667 278.37405,174.14896 277.63333,173.7C276.86151,173.23219 276.20001,172.86667 275.29999,172.86667C274.5,172.86667 273.64508,172.88783 272.81467,172.58133C272.06888,172.30606 271.11118,171.74332 270.32083,171.3875C269.47766,171.0079 268.63873,170.87201 267.75751,170.86667C267.06,170.86244 266.11914,171.05673 265.13333,170.78133C264.37469,170.56938 263.70386,170.052 262.7045,169.57117C261.96188,169.21385 261.05859,168.89526 260.19983,168.86667C259.4151,168.84055 258.48532,168.86667 257.46933,168.86667C256.68933,168.86667 255.8,168.86667 254.89999,168.86667C254.0045,168.86667 253.07851,168.86667 252.19983,168.86667C251.41467,168.86667 250.47467,168.86667 249.46666,168.86667C248.63867,168.86667 247.75751,168.86667 247.06,168.86667C246.15334,168.86667 245.14174,168.8493 244.233,168.87117C243.50352,168.88873 242.45392,168.99167 241.54666,169.29201C240.7742,169.54773 239.89146,169.74059 239.10001,170.15067C238.23836,170.59712 237.43289,170.67691 236.5955,170.92383C235.72221,171.18134 235.09537,171.74173 234.2,171.86684C233.29353,171.9935 232.6474,172.66685 231.8,172.84584C230.91919,173.03189 229.99863,172.81819 229.09734,172.868C228.32593,172.91063 227.29735,173.21358 226.58667,173.44133C225.66191,173.7377 224.76645,173.728 223.89999,173.87733C223.06688,174.02094 222.31215,174.78075 221.46666,174.86667C220.59912,174.95483 220.05548,175.20113 219.13333,175.7C218.38586,176.10437 217.42117,175.86667 216.58566,175.86667C215.89101,175.86667 214.90266,175.86667 214.01433,175.86667C213.01466,175.86667 212.09624,175.78455 211.2,175.86684C210.28856,175.95052 209.67204,176.54843 208.864,176.87733C208.11246,177.18324 207.27206,177.62531 206.60001,177.91933C205.77687,178.27945 204.99837,178.69621 204.10133,178.868C203.3436,179.01311 203.21556,180.13379 202.49867,180.58133C201.68732,181.08784 200.68933,180.86667 199.8,180.86667C198.89999,180.86667 198.0045,180.86667 197.13333,180.86667C196.2,180.86667 195.12024,180.34966 194.46666,180.86667C193.89888,181.3158 194.13179,182.4865 194.32083,183.36667C194.5022,184.21109 195.40428,184.71678 196.3,184.86667C197.13818,185.00693 197.3,185.86667 197.3,186.66667C197.3,187.56667 197.46706,188.52959 197.27916,189.3875C197.0976,190.21651 196.21606,190.79761 195.73599,191.46666C195.21437,192.19362 194.57649,192.75061 193.94817,192.91933C192.90288,193.20001 192.33655,193.90794 191.664,194.46666C191.01154,195.0087 190.33212,195.43599 189.32117,195.74533C188.50931,195.99376 187.52354,196.12418 186.82083,196.3875C186.14284,196.64156 185.39955,197.42358 184.68933,197.892C183.95062,198.3792 183.00563,198.6494 182.35266,199.21933C181.76802,199.72963 181.01466,200.15067 180.3,200.7L179.58533,200.95067" id="svg_1" stroke-width="3" stroke="#000" fill="none"/>
  <path t="25459,25527,25562,25562,25575,25592,25592,25609,25609,25625,25625,25625,25625,25642,25642,25642,25642,25661,25661,25676,25677,25677,25677,25693,25693,25693,25732,25732,25732,25760,25776,25776,25793,25810,25844,25876,25916,25948,25976,25996,25996,26043,26250" d="M161.3,196.86667C162.936,197.44133 163.78127,197.81952 164.64734,197.86217C165.54176,197.9062 166.50133,197.86667 167.18533,197.86667C168.15733,197.86667 168.81886,197.85953 169.94284,197.867C170.60988,197.87144 171.69235,197.89606 172.41733,198.03734C173.49242,198.24686 174.14185,198.56487 175.05333,199.01601C175.61552,199.29427 176.60933,199.76096 177.56134,199.84534C178.62936,199.93999 179.26801,199.86667 180.3,199.86667C180.99466,199.86667 181.96666,199.86667 182.79016,199.86667C183.74817,199.86667 184.72116,199.86667 185.51466,199.86667C186.29016,199.86667 187.48567,199.86667 188.3,199.86667C189.10001,199.86667 190,199.86667 190.89999,199.86667C191.8,199.86667 192.7471,199.96068 193.60001,199.51401C194.35223,199.12006 195.13333,198.7 195.63333,197.86667L196.15067,197.47734L197.05716,196.98817L197.91066,196.86667" id="svg_2" stroke-width="20" stroke="#fff" fill="none"/>
  <path t="28345,28576,28576,28597,28627,28775,28809,28861,28861,28892,28931,28949,28975,28992,28992,29009,29025,29025,29059,29075,29092,29109,29109,29161,29211,29263,29313,29359,29396,29396,29425,29425,29459,29543,29580,29612,29683,29709,29760,29760,29810,29845,29876,29917,29977,29977,30029,30029,30060,30093,30110,30126,30143,30160,30176,30212,30243,30260,30276,30293,30310,30326,30343,30360,30377,30393,30418,30426,30443,30460,30476,30493,30510,30510,30526,30543,30543,30560,30576,30593,30610,30626,30643,30676,30693,30710,30743,30793,30810,30843,30860,30944,31011,31060,31126,31143,31227,31340,31340,31360,31372,31372" d="M197.3,188.86667C197.3,189.86667 197.3,190.66667 197.3,191.56667C197.3,192.50951 197.41264,193.39484 197.3,194.256C197.18831,195.10986 196.55489,195.72931 195.82083,196.34584C195.12645,196.92906 194.06113,196.59192 193.42117,197.08817C192.70879,197.64058 192.22438,198.28195 191.54266,198.96651C190.88457,199.62733 190.19487,199.67116 189.40984,200.21933C188.73788,200.68854 187.94336,200.73012 187.10001,201.15067C186.43835,201.48059 185.48157,201.91785 185.30133,202.668C185.08701,203.56004 184.533,204.0144 183.664,204.44133C182.84511,204.84364 181.8949,204.58626 181.07866,205.08817C180.42941,205.48738 180.11476,206.35231 179.46666,207.03334C178.86386,207.66676 178.3286,208.21802 178.3,209.15199C178.27202,210.06624 178.13579,211.00713 178.38533,211.66667C178.71344,212.53386 179.74062,212.60147 180.5955,212.87117C181.36287,213.11327 181.61731,214.21783 182.18666,214.66667C182.90311,215.23148 183.8804,215.42743 184.65334,215.84134C185.3878,216.23466 185.91061,216.86133 186.8,216.86667C187.69998,216.87207 188.68933,216.87733 189.3,217.36667C189.91066,217.856 190.83479,217.81366 191.60001,218.21933C192.44579,218.66771 192.90865,219.37448 193.65717,219.80949C194.38754,220.23398 195.39999,219.86667 196.3,219.86667C197.17867,219.86667 198.0045,219.86667 198.89999,219.86667C199.8,219.86667 200.7,219.86667 201.60001,219.86667C202.5,219.86667 203.39999,219.86667 204.3,219.86667C205.10001,219.86667 206.05716,219.86667 206.95267,219.86667C207.64734,219.86667 208.664,219.86667 209.60001,219.86667C210.5,219.86667 211.39999,219.86667 212.3,219.86667C213.17867,219.86667 214.0045,219.86667 214.89999,219.86667C215.8,219.86667 216.68933,219.86591 217.65717,219.86667C218.49867,219.86734 219.11494,220.36768 219.8,220.84584C220.48976,221.32729 221.25726,221.77922 221.3,222.57117C221.34825,223.46536 221.45988,224.3611 221.28934,225.30267C221.14478,226.10075 220.41333,226.58133 219.47467,226.83067L218.46666,226.86667L217.71066,226.86667" id="svg_3" stroke-width="3" stroke="#000" fill="none"/>
  <path t="35913,36027,36043,36060,36077,36094,36110,36127,36144,36177,36194,36194,36227,36261,36261,36285,36294,36327,36344,36360,36377,36377,36394,36394,36410,36427,36444,36444,36461,36461,36495,36527,36527,36671,36671" d="M266.29999,233.86667C266.01599,232.95067 265.32858,232.5108 265.29999,231.56667C265.27274,230.66708 265.59219,229.71321 265.2955,228.91933C264.98929,228.09998 264.41614,227.42534 264.01599,226.66667C263.56326,225.8083 263.01303,225.37885 262.42133,224.64517C261.90024,223.99905 261.49905,223.21423 261.32083,222.36667C261.11929,221.40823 260.75723,220.96346 260.29999,220.34584C259.78998,219.65695 259.29999,218.86665 258.70001,218.26666C258.10001,217.66666 257.41263,217.14195 256.82083,216.36667C256.25705,215.62805 255.98543,214.83978 255.27916,214.36667C254.48654,213.83571 253.79965,213.19835 253.01466,212.86534C252.23764,212.53571 251.54283,212.16217 250.81734,211.668L250.00983,211.22383" id="svg_4" stroke-width="3" stroke="#000" fill="none"/>
  <path t="47592,47692,47692,47709,47709,47726,47742,47742,47759,47759,47759,47776,47776,47776,47792,47792,47792,47809,47809,47809,47826,47826,48049,48077,48110,48127,48143,48160,48160,48177,48193,48210,48227,48227,48227,48243,48243,48243,48243,48243,48243,48260,48260,48260,48260,48260,48260,48260,48277,48277,48277,48277,48278,48293,48293,48293,48293,48310,48310,48310,48310,48327,48327,48394,48409,48442,48442,48461,48476,48492,48510,48559,48559,48582,48609,48626,48642,48642,48659,48676,48676,48676,48692,48692,48693,48709,48709,48709,48709,48726,48726,48726,48726,48742,48742,48759,48759,48776,48792,48792,48792,48809,48809,48826,48842,48842,48859,48876,48893,48893,48909,48942,48959,49011,49108" d="M361.29999,232.86667C362.29999,232.86667 363.15997,232.9895 363.70001,233.728C364.15356,234.34819 364.67838,235.25179 365.29999,235.86667C365.82407,236.38509 366.6312,236.87154 367.56134,237.27733C368.08414,237.50542 369.15298,238.00581 369.84283,238.51933C370.50934,239.0155 371.28333,239.72554 371.89999,240.1095C372.6803,240.59535 373.5,240.96666 374.29999,241.36667C374.89999,241.66667 375.95798,242.06808 376.58566,242.56667C377.33527,243.16209 377.8959,244.00603 378.24283,244.814C378.54242,245.51172 378.32855,246.5032 378.29868,247.34933C378.27011,248.15825 377.83765,249.08244 377.216,249.58267C376.60349,250.07555 375.52667,249.86667 374.71667,249.86667C374.07666,249.86667 372.96667,249.86667 372.12668,249.86667C371.20667,249.86667 370.20667,249.86667 369.67667,249.86667C369.12668,249.86667 367.35751,249.86667 366.73334,249.86667C366.09915,249.86667 364.82083,249.86667 364.18668,249.86667C363.5625,249.86667 362.95334,249.87027 361.2645,249.8665C360.27151,249.86429 359.80753,249.86942 358.93201,249.83067C358.10333,249.79401 356.8963,249.6655 356.10449,249.505C355.31644,249.34528 354.5397,249.14923 353.46667,248.7C352.7756,248.41066 351.85257,247.88171 351.31885,247.51933C350.4259,246.91304 349.53653,246.40358 349.29999,245.50951C349.08441,244.6947 349.39423,243.75041 349.21466,242.98134C348.98965,242.01768 348.38382,241.21338 348.29999,240.43066C348.1962,239.46153 348.25949,238.54449 348.29999,237.728C348.34271,236.86617 349.29999,236.86667 350.06168,236.86667C350.95267,236.86667 351.81601,236.86659 352.82083,236.86667C353.84283,236.86676 354.56467,236.83784 355.35184,236.92383C356.38562,237.03676 357.08932,237.28354 357.75266,237.62833C358.74557,238.14442 359.54025,238.70325 360.14667,239.04134C360.78018,239.39453 361.81696,239.85651 362.54367,240.1095C363.25455,240.35698 364.27246,240.60321 365.24533,241.06534C365.92566,241.3885 366.78174,241.81082 367.64734,241.86217C368.67319,241.92302 369.46799,242.19832 370.13599,242.71733C370.7056,243.1599 371.68875,243.76161 372.46399,243.84534C373.40942,243.94743 374.29999,243.86667 375.18533,243.86667C376.11465,243.86667 376.98807,243.80597 377.86932,244.15067C378.50366,244.39879 379.41467,244.78133 380.39984,244.86667L381.24734,244.86667L382.10132,244.86667L382.94284,244.92383" id="svg_6" stroke-width="20" stroke="#fff" fill="none"/>
  <path t="52049,52193,52243,52259,52274,52315,52358,52410,52426,52426,52461,52575,52591,52643,52659,52725,52742,52780,52780,52809,52844,52875,52891,52932,52958,52974,52991,53024,53058,53110,53158,53158,53174,53174,53243,53291,53331,53331,53358,53391,53441,53459,53510,53558,53558,53575,53624,53658,53710,53710,53764,53809,53844,53844,53892,53959,54011,54011,54045,54060,54251" d="M344.29999,227.86667C345.32083,227.86667 346.10132,227.86667 347,227.86667C347.89999,227.86667 348.86401,227.8644 349.73599,227.86667C350.60001,227.86893 351.43814,228.25319 352.10001,228.58267C352.95706,229.00929 353.91068,228.86667 354.79999,228.86667C355.70001,228.86667 356.59549,228.86667 357.52151,228.86667C358.39999,228.86667 359.29999,228.86667 360.10001,228.86667C361.01468,228.86667 361.91068,228.86667 362.79999,228.86667C363.70001,228.86667 364.59555,228.85571 365.46933,228.86667C366.30017,228.87709 366.99512,229.48026 367.73599,229.83067C368.51773,230.20041 369.52591,229.761 370.46667,230.03334C371.14072,230.22847 371.80231,230.99228 372.38266,231.58133C372.99765,232.20552 373.42633,232.63979 374.29999,233.03334C374.95447,233.32816 375.1308,234.46695 375.65717,235.16217C376.16309,235.83038 376.91226,236.2234 377.58533,236.78267C378.25449,237.33867 379.11835,237.53886 379.89999,237.892C380.71085,238.25835 381.04346,239.14522 381.52151,239.96651C381.88708,240.59457 382.828,240.92258 383.40982,241.57117C383.9722,242.19807 384.82944,242.60129 385.25833,243.34584C385.69196,244.0986 386.29999,244.7 387.10001,244.95067L387.89999,245.44133L388.68933,245.84134L389.27917,246.36667" id="svg_7" stroke-width="3" stroke="#000" fill="none"/>
  <path t="55409,55608,55641,55660,55660,55692,55716,55741,55758,55810,55860,55927,55927,55964,55964,56009,56108,56160,56176,56242,56309,56376,56427,56526,56526,56564,56658,56708,56791,56906,56924,56963,56963,56991,57008,57024,57043,57059,57091,57108,57124,57147,57174,57208,57241,57275,57275,57299,57341,57391,57522,57548,57576,57613,57711,57711,57727,57765" d="M359.29999,230.86667C359.29999,232.7 359.27362,233.51379 359.30133,234.35066C359.32996,235.21533 359.91953,235.94844 360.26401,236.84134C360.56183,237.61333 360.11624,238.59317 360.336,239.46666C360.55307,240.32948 361.1795,241.078 361.384,241.752C361.67435,242.70898 362.14511,243.35699 362.28934,244.42C362.40802,245.29472 362.29999,246.16667 362.29999,247.06667C362.29999,247.96651 362.03674,248.46742 361.42151,249.088C360.85516,249.65924 360.29999,249.86667 359.5,249.86667C358.60001,249.86667 357.63351,250.18188 356.82083,249.84584C356.07828,249.5388 355.2756,249.23314 354.54285,248.64517C353.85675,248.09467 353.49985,247.21407 353.32083,246.36667C353.13477,245.48586 353.29999,244.56667 353.29999,243.66667C353.29999,242.76666 353.29999,241.86667 353.29999,240.98801C353.29999,240.16217 353.29999,239.26666 353.29999,238.36667C353.29999,237.47734 353.4426,236.52371 353.01599,235.66667C352.68652,235.00481 352.30225,234.16669 352.29999,233.30267C352.29749,232.34584 352.29999,231.46666 352.29999,230.56667C352.29999,229.668 352.29999,228.814 352.29999,227.86667L352.29999,227.06667L352.29999,226.16667L352.29999,225.30267" id="svg_8" stroke-width="3" stroke="#000" fill="none"/>
  <path t="63691,63809,63809,63826,63859,63893,63960,63960,64010,64046,64094,64094,64144,64160,64194,64214,64246,64262,64311,64311,64360,64398,64398,64426,64459,64476,64476,64509,64534,64582,64582,64626,64659,64678,64789,64789" d="M345.29999,226.86667C344.29999,226.86667 343.34671,227.29532 342.58533,226.78133C341.9176,226.33057 341.79657,225.1145 340.85733,224.8665C340.17322,224.68587 339.48248,224.36064 338.94284,223.56667C338.4086,222.78064 337.73599,222.30267 337.07867,221.64534C336.46667,221.03334 335.67044,220.86682 334.89999,220.44133C334.07944,219.98819 333.48608,219.44279 333.01468,218.66667C332.60385,217.99028 331.9541,217.33054 330.97882,216.98801C330.34753,216.7663 329.4798,216.49893 329.2955,215.56667C329.1348,214.75365 328.36063,214.38626 327.65717,213.814C327.03918,213.31126 326.19092,212.8112 325.73599,212.256C325.17514,211.57153 325.2955,210.56667 325.01468,209.668L324.29999,209.03334L323.58533,208.868" id="svg_9" stroke-width="3" stroke="#000" fill="none"/>
  <path t="71192,71310,71342,71359,71409,71409,71478,71558,71558,71614,71662,71662,71728,71777,71792,71921,71921,71993,72043,72329,72630,72693,72759,72826,72955,72982,72982,73030,73094,73149,73159,73176,73192,73226,73242,73277,73292,73343,73343,73410" d="M221.3,225.86667C221.584,226.78267 222.06339,227.32375 222.58533,228.06534C223.13544,228.84695 224.0623,228.82626 224.8,229.3875C225.57547,229.97746 225.88503,230.73639 226.36133,231.46666C226.87917,232.2606 227.54793,232.68529 228.584,232.86667C229.50729,233.02831 230.08557,233.30862 230.58533,234.06534C230.98747,234.67426 232.01657,234.89163 232.77916,235.36667C233.53882,235.83986 234.03787,236.47688 234.73599,236.83067C235.50735,237.22159 236.49867,236.86667 237.46666,236.86667C238.3,236.86667 239.10001,236.86667 240,236.86667C240.94284,236.86667 241.89893,237.22533 242.77916,236.84584C243.49344,236.53789 243.70561,235.58101 244.46666,235.03334C245.16351,234.53186 245.5215,233.98817 246.39999,233.86667L247.3,233.86667L248.10001,233.78133L248.864,233.29201" id="svg_10" stroke-width="3" stroke="#000" fill="none"/>
  <path t="75272,75326,75376,75391,75408,75425,75425,75441,75441,75475,75493,75558" d="M184.3,207.86667C185.01601,208.58267 185.60805,209.29666 186.39983,209.74533C187.14023,210.1649 187.40614,211.06195 187.73599,211.68134C188.21626,212.58321 189.01466,212.94934 189.29866,213.668L189.3,214.56667L189.3,215.50951" id="svg_11" stroke-width="3" stroke="#000" fill="none"/>
  <path t="85404,85708,85725,85749,85797,85858,85877,85877,85959,85993" d="M206.3,192.86667C207.3,192.86667 208.23227,192.39546 209.01466,192.86667C209.64203,193.24451 210.13333,194.03334 210.46666,194.86667L210.91066,195.46666L211.5955,196.16667L212.13333,196.86667" id="svg_14" stroke-width="3" stroke="#000" fill="none"/>
  <path t="87162,87506,87560,87575,87770" d="M204.3,198.86667C205.87466,197.90266 206.2955,198.57117 206.3,199.46666L206.3,200.34584" id="svg_15" stroke-width="3" stroke="#000" fill="none"/>
  <path t="88496,88757,88809,88825,88825,88858,88878,88943,89118,89135,89158" d="M209.3,192.86667C210.3,192.86667 211.21626,193.02097 211.3,193.86667C211.37883,194.66278 211.3,195.56667 211.3,196.50951C211.3,197.3875 211.3,198.26666 211.3,199.16667L211.3,200.16217" id="svg_16" stroke-width="3" stroke="#000" fill="none"/>
  <path t="90560,90710,90742,90758,90775,90792,90808,90845,90862,90875,90925,90925,90976,91009,91058,91092,91143,91177,91193,91214,91276,91294,91294,91309,91326,91359,91398,91409,91446,91446,91459,91509,91550,91550,91559,91559,91609,91626,91644,91662,91662,91676,91693,91709,91726,91743,91759,91776,91776,91843,91876,91893,91910,91934,91943,91993,92014,92043,92059,92059,92078,92126,92142,92142,92159,92210,92275,92291,92308,92325,92358,92382,92382,92408,92408,92425,92441,92458,92458,92511,92544,92575,92575,92641,92659,92675,92691,92726,92758,92782,92813,92813,92874,92890,92925,93148" d="M229.3,172.86667C230.3,173.3875 230.88231,174.09648 231.46666,174.7C232.07491,175.3282 232.75053,175.81598 233.27916,176.36667C233.74875,176.85588 234.17589,177.46088 234.73599,178.26666C235.20599,178.94284 235.90038,179.46628 236.5955,180.16217C237.215,180.78233 237.41066,181.53708 238.10133,181.95067C238.8965,182.42685 239.09595,183.36185 239.58533,184.06534C240.13115,184.84996 241.21626,185.02097 241.3,185.86667C241.37883,186.66278 240.87175,187.66954 241.3,188.50951C241.59232,189.08282 242.86909,189.20218 243.1785,189.96666C243.51921,190.8085 242.90706,191.79703 243.38533,192.58133C243.8754,193.38496 244.21101,193.9817 244.38533,194.752C244.56375,195.54039 245.15665,196.26787 245.3,197.30267C245.41856,198.15849 245.13631,199.12396 245.52133,199.96666C245.82713,200.63596 246.29466,201.46661 246.3,202.36667C246.30533,203.26665 246.29993,204.16667 246.3,205.06667C246.30009,205.96666 246.42561,206.89934 246.91066,207.46666C247.54497,208.20856 248.25726,208.77922 248.3,209.57117C248.34825,210.46536 248.3,211.36667 248.3,212.256C248.3,213.15199 248.3,214.06667 248.3,214.96666C248.3,215.86667 248.50447,216.70364 248.24283,217.56667C247.97456,218.45155 247.07314,218.87289 246.58533,219.66667C246.10988,220.44034 245.46666,220.86667 244.68933,220.86667C243.8,220.86667 242.89999,220.86667 242.0045,220.86667C241.07834,220.86667 240.13333,220.86667 239.3,220.86667C238.3215,220.86667 237.60451,220.86667 236.7,220.86667C235.77916,220.86667 234.81734,220.86667 234.00983,220.86667C233.07851,220.86667 232.2,220.86667 231.3,220.86667C230.5,220.86667 229.46666,220.86667 228.68933,220.86667C227.8,220.86667 226.89999,220.86667 226,220.86667C225.10001,220.86667 224.2,220.86667 223.3,220.86667C222.5,220.86667 221.46666,220.86667 220.68933,220.86667L219.8,220.86667L218.89999,220.86667" id="svg_17" stroke-width="3" stroke="#000" fill="none"/>
  <path t="99926,100075,100108,100108,100125,100158,100191,100213,100245,100258,100275,100291,100325,100365,100391,100414,100414,100441,100458,100477,100509,100541,100541,100558,100581,100608,100630,100674,100674,100691,100709,100709,100774,100774,100791,100824,100846,100874,100908,100959,101025,101091,101174,101174,101225,101274,101293" d="M349.29999,171.86667C350.32083,171.86667 351.27939,171.8286 352.09866,171.86667C353.01764,171.90938 353.33804,172.67946 354.10132,172.952C354.86646,173.2252 355.61682,173.78786 356.29999,174.36667C356.89404,174.86998 356.82422,175.73476 357.35718,176.50951C357.84143,177.21342 358.73599,177.30267 359.39999,177.96666C360,178.56667 360.85178,179.17763 361.1785,179.96651C361.52414,180.8011 362.08484,181.12964 362.46667,181.86667C362.8573,182.62062 363.24548,183.48184 364.00534,183.814C364.90884,184.20894 365.51617,184.59615 366.29999,185.03334C366.95187,185.39694 367.60001,186.16669 368.29999,186.86667C368.86401,187.43068 369.4339,188.21465 370.10132,188.58267C370.92548,189.03712 371.97858,188.52359 372.77917,188.8875C373.5524,189.23895 374.00299,189.92201 374.79999,190.36667C375.59851,190.81218 376.55728,190.70297 377.39999,191.088C378.06931,191.3938 378.89999,191.856 379.79999,191.86667L380.68933,191.86667" id="svg_18" stroke-width="3" stroke="#000" fill="none"/>
  <path t="107449,107507,107557,107557,107581,107581,107581,107581,107607,107607,107607,107607,107623,107640,107640,107707,107727,107727,107727,107748,107748,107748,107748,107757,107757,107757,107757,107757,107773,107773,107773,107773,107773,107790,107790,107790,107790,107790,107790,107790,107807,107807,107807,107807,107807,107807,107807,107807,107823,107823,107823,107823,107823,107823,107823,107823,107840,107840,107840,107840,107840,107840,107840,107858,107858,107858,107858,107858,107858,107858,107859,107874,107874,107874,107874,107874,107891,107891,107891,107891,107908,107908,107908,107908,107908,107924,107924,107924,107941,107941,107941,107958,107958,107974,107974,107974,107974,107991,107991,107991,108008,108008,108008,108024,108024,108024,108025,108041,108041,108042,108042,108058,108058,108059,108059,108074,108074,108075,108075,108075,108091,108091,108092,108113,108113,108113,108128,108131,108131,108131,108148,108148,108148,108148,108149,108174,108174,108174,108175,108175,108191,108191,108191,108192,108192,108192,108192,108192,108208,108208,108208,108209,108209,108209,108209,108209,108224,108224,108225,108225,108225,108225,108241,108241,108241,108242,108242,108242,108258,108258,108258,108258,108274,108274,108274,108291,108291,108291,108308,108324,108324,108341,108341,108358,108358,108359,108359,108359,108359,108374,108374,108375,108375,108375,108375,108375,108375,108391,108391,108392,108392,108392,108392,108392,108392,108392,108408,108408,108409,108409,108409,108409,108409,108424,108424,108425,108425,108425,108425,108441,108441,108442,108442,108458,108458,108474,108474,108491,108491,108492,108508,108508,108509,108509,108524,108524,108525,108525,108541,108541,108542,108542,108542,108558,108558,108559,108559,108574,108574,108575,108575,108591,108591,108592,108592,108592,108608,108608,108609,108609,108609,108609,108624,108624,108625,108625,108625,108625,108625,108641,108641,108642,108642,108642,108642,108658,108658,108659,108659,108675,108675,108675,108675,108675,108691,108691,108708,108709,108709,108724,108725,108725,108725,108741,108742,108742,108742,108742,108757,108758,108758,108758,108758,108758,108758,108774,108774,108775,108775,108775,108775,108791,108792,108807,108808,108808,108808,108808,108824,108825,108825,108825,108841,108842,108842,108842,108842,108857,108858,108858,108858,108874,108875,108875,108875,108891,108892,108892,108924,108924,108941,108941,108942,108957,108957,108958,108958,108958,108958,108974,108974,108975,108975,108975,108991,108991,108992,108992,108992,109007,109008,109008,109008,109008,109024,109025,109025,109041,109042,109042,109042,109042,109057,109058,109058,109058,109074,109075,109075,109075,109075,109075,109091,109092,109092,109092,109092,109093,109107,109108,109108,109108,109108,109109,109128,109129,109129,109129,109129,109157,109158,109158,109158,109158,109175,109175,109176,109176,109176,109191,109192,109207,109224,109225,109241,109241,109242,109257,109258,109258,109274,109274,109275,109275,109291,109291,109292,109307,109308,109308,109308,109324,109325,109325,109325,109341,109342,109342,109342,109342,109357,109358,109358,109358,109358,109374,109375,109375,109375,109391,109392,109392,109392,109407,109408,109424,109425,109441,109442,109457,109458,109474,109475,109491,109492,109492,109507,109508,109508,109524,109525,109525,109541,109542,109542,109542,109557,109558,109558,109558,109558,109558,109574,109575,109575,109575,109575,109592,109592,109592,109592,109593,109611,109612,109612,109612,109613,109631,109631,109632,109632,109632,109632,109657,109658,109658,109658,109658,109676,109677,109677,109677,109678,109678,109678,109678,109679,109698,109699,109699,109699,109700,109700,109724,109725,109725,109725,109725,109726,109726,109726,109744,109744,109745,109745,109745,109745,109763,109764,109764,109764,109765,109791,109792,109810,109810,109811,109829,109829,109862,109863,109863,109863,109882,109883,109883,109883,109883,109884,109907,109908,109908,109908,109927,109927,109928,109946,109946,109947,109947,109947,109974,109975,109975,109975,109975,109994,109995,109995,109995,109996,110025,110026" d="M-2.7,136.86667C-2.17917,134.3875 -1.46731,133.6881 -1.064,133.15866C-0.4863,132.4003 -0.04613,131.50233 0.32083,130.84584C0.70109,130.16557 1.2811,129.18608 1.69867,128.63867C2.25465,127.9098 2.814,127.354 3.54283,126.62383C4.29931,125.86597 4.7737,125.09293 5.588,124.86667C6.59518,124.58681 7.31433,124.86667 8.12133,124.86667C9.3,124.86667 9.90183,124.85152 10.82083,124.8875C11.45772,124.91242 12.8246,125.07363 13.56167,125.22833C14.3451,125.39277 15.16351,125.62222 15.58667,125.75333C16.9278,126.16888 17.86213,126.52257 18.34667,126.70267C19.34764,127.07472 19.8588,127.27895 21.46667,127.86667C22.02069,128.06918 22.58357,128.27464 23.74667,128.65601C24.34013,128.8506 24.94397,129.04022 25.56167,129.2095C27.45884,129.72945 28.12076,129.84897 28.78533,129.98267C29.45644,130.11768 30.13592,130.24178 30.82083,130.36667C31.51059,130.49245 32.90395,130.73804 34.3,131.03334C35.0012,131.18167 35.69921,131.34842 36.3955,131.51933C37.08988,131.68977 37.77898,131.86742 38.464,132.04134C39.81429,132.38414 41.13245,132.70396 41.77867,132.845C42.41516,132.98392 43.04488,133.11948 44.3,133.325C44.9242,133.42722 45.54974,133.53624 47.46667,133.7C48.12017,133.75583 48.7812,133.78479 49.44367,133.80949C50.10388,133.83412 51.40266,133.85745 52.033,133.86217C52.64532,133.86674 54.3355,133.86667 54.844,133.86667C55.792,133.86667 56.668,133.86667 57.496,133.86667C58.7,133.86667 59.5,133.86667 60.3,133.86667C61.1,133.86667 62.30001,133.87073 63.09867,133.86534C63.88937,133.86002 64.66587,133.85373 65.41467,133.78133C66.48201,133.67812 67.45042,133.42938 68.33833,133.21933C69.37529,132.97401 70.07327,132.94801 70.89867,132.78267C71.92063,132.57794 72.52962,132.24036 73.46667,131.86667C74.25203,131.55347 75.11026,131.26546 75.70133,131.06667C76.89785,130.66425 77.49398,130.47957 78.34283,130.16667C79.38477,129.78259 80.07026,129.42923 80.80983,129.22383C81.92491,128.91414 82.6099,128.92023 83.32083,128.86667C84.41744,128.78406 85.48066,128.65511 86.14733,128.51401C87.12848,128.30635 87.77979,128.12115 88.8215,127.98783C89.5548,127.89398 90.32452,127.87388 91.1045,127.75684C92.30725,127.57635 93.10495,127.31695 93.87867,127.00533C94.63593,126.70034 95.32092,126.33208 96.53067,125.75333C97.27415,125.39765 97.97222,125.09145 98.98666,124.952C99.83611,124.83524 100.46168,124.87284 101.8215,124.8665C102.55717,124.86307 103.32185,124.86346 104.1045,124.8095C105.30216,124.72693 106.10225,124.59284 106.9,124.43066C107.70243,124.26753 108.49871,124.0601 109.70067,123.76683C110.51714,123.56761 110.93924,123.4586 111.844,123.30267C112.83799,123.13135 113.96629,123.02789 114.58583,122.98817C115.23965,122.94625 116.63329,122.90006 117.3625,122.8875C118.10663,122.87468 118.86082,122.86992 119.62,122.868C121.13332,122.86418 121.87817,122.86667 122.612,122.86667C123.33383,122.86667 124.04266,122.86667 125.41734,122.86667C126.08117,122.86667 126.728,122.86667 127.96667,122.86667C129.13066,122.86667 129.69017,122.86667 130.77916,122.86667C131.31467,122.86667 132.38266,122.86667 133.46666,122.86667C134.58133,122.86667 135.14366,122.86667 135.70399,122.86667C136.80267,122.86667 137.33299,122.86551 138.8,122.86667C139.644,122.86734 140.39433,122.84129 141.38651,122.92384C142.30338,123.00012 143.20422,123.19567 144.064,123.47733C145.14545,123.83162 145.83032,124.18131 146.45334,124.43066C147.40337,124.81089 148.40016,124.86667 149.18533,124.86667C149.97517,124.86667 150.93317,124.86667 151.96666,124.86667C152.84267,124.86667 153.33316,124.86667 154.40416,124.86667C154.97867,124.86667 155.57516,124.86667 157.46666,124.86667C158.12183,124.86667 158.78799,124.86667 159.46617,124.86667C160.15733,124.86667 161.58267,124.86667 162.31883,124.86667C163.07201,124.86667 164.63333,124.86667 165.44234,124.86667C166.26534,124.86667 167.09633,124.86667 167.92934,124.86667C168.75833,124.86667 169.57733,124.86667 170.38034,124.86667C171.16133,124.86667 172.63333,124.86667 173.31416,124.86667C173.96001,124.86667 174.57584,124.86667 175.7375,124.86667C176.29333,124.86667 177.38,124.86667 178.46666,124.86667C179.58133,124.86667 180.14366,124.86667 180.70399,124.86667C181.80267,124.86667 182.33299,124.86667 183.8,124.86667C184.64267,124.86667 185.38133,124.86667 186.32933,124.86667C187.37833,124.86667 188.25833,124.86667 189.27884,124.86667C190.10983,124.86667 191.07066,124.86667 191.84166,124.86667C192.70267,124.86667 193.60033,124.86667 194.52133,124.86667C195.172,124.86667 195.87067,124.86667 197.04266,124.86667C197.90533,124.86667 198.8,124.86667 199.69467,124.86667C200.96666,124.86667 201.73199,124.86667 202.44934,124.86667C203.15067,124.86667 203.868,124.86667 205.04266,124.86667C205.90533,124.86667 206.8,124.86667 207.69467,124.86667C208.96666,124.86667 209.73067,124.86667 210.43866,124.86667C211.11467,124.86667 212.46666,124.86667 213.18666,124.86667C213.94667,124.86667 214.74667,124.86667 215.58667,124.86667C216.92183,124.86667 217.388,124.86667 218.35733,124.86667C219.38266,124.86667 219.91884,124.86667 220.472,124.86667C222.24266,124.86667 222.868,124.86667 223.50534,124.86667C224.15067,124.86667 225.44934,124.86667 226.09467,124.86667C226.73199,124.86667 228.55684,124.86667 229.12801,124.86667C229.68117,124.86667 230.7375,124.86667 231.73384,124.86667C232.21201,124.86667 233.57851,124.86667 234.44284,124.86667C235.27916,124.86667 236.0955,124.86667 237.3,124.86667C238.09734,124.86667 238.87866,124.86667 239.62801,124.86667C240.32933,124.86667 241.53067,124.86667 242.51466,124.86667C243.46666,124.86667 244.25717,124.86667 245.11067,124.86667C246.3,124.86667 246.90134,124.86667 247.82083,124.86667C248.45717,124.86667 249.82217,124.86667 250.57516,124.86667C251.40416,124.86667 251.85466,124.86667 252.84267,124.86667C253.96666,124.86667 254.58533,124.86667 255.91066,124.86667C256.60132,124.86667 257.29999,124.86667 257.99866,124.86667C258.68933,124.86667 260.63333,124.86667 261.21365,124.86667C261.75601,124.86667 262.73468,124.86667 263.58533,124.86667C264.32401,124.86667 265.53201,124.86667 266.55066,124.86667C267.63333,124.86667 268.27066,124.86667 268.97198,124.86667C269.72134,124.86667 270.50266,124.86667 271.70001,124.86667C272.5,124.86667 273.29999,124.86667 274.10001,124.86667C275.29999,124.86667 276.10001,124.86667 276.89999,124.86667C277.70001,124.86667 278.5,124.86667 279.70001,124.86667C280.5,124.86667 281.29999,124.86667 282.10001,124.86667C283.29999,124.86667 284.09732,124.86667 284.87866,124.86667C285.98566,124.86667 286.96667,124.86667 287.77667,124.86667C288.72665,124.86667 289.74301,124.86667 290.52133,124.86667C291.50067,124.86667 292.14267,124.86667 292.92868,124.86667C293.96667,124.86667 294.84,124.86667 295.83334,124.86667C296.36249,124.86667 297.46085,124.86667 298.01999,124.86667C299.67834,124.86667 300.21335,124.86667 301.25333,124.86667C301.75833,124.86667 302.73834,124.86667 304.13333,124.86667C304.57849,124.86667 305.44284,124.86667 306.27917,124.86667C307.09549,124.86667 308.29999,124.86667 309.09866,124.86667C309.88934,124.86667 310.664,124.86667 311.41467,124.86667C312.81601,124.86667 313.47467,124.86667 314.45267,124.86667C315.46667,124.86667 316.18533,124.86667 316.936,124.86667C317.71066,124.86667 318.50134,124.86667 319.70016,124.86667C320.50449,124.86667 321.32083,124.86667 322.15717,124.86667C323.46667,124.86667 324.38675,124.86874 324.86166,124.85767C325.84195,124.83479 326.86298,124.7635 327.38666,124.696C328.46988,124.55637 329.58627,124.30464 330.15268,124.15234C331.30484,123.84251 331.87662,123.65118 332.44733,123.45766C334.13928,122.88395 334.67813,122.66694 335.21201,122.46934C336.24265,122.08788 336.73026,121.88666 337.68115,121.581C338.95761,121.17069 339.7305,121.01354 340.45999,120.93867C341.18463,120.86429 341.95334,120.868 343.26416,120.86667C344.26251,120.86565 344.78665,120.86667 345.85999,120.86667C346.39917,120.86667 347.96667,120.86667 348.45651,120.86667C349.37216,120.86667 350.19583,120.86667 350.91949,120.86667C352.24399,120.86667 353.09601,120.86667 353.936,120.86667C354.78665,120.86667 355.54666,120.86667 356.72134,120.86667C357.52533,120.86667 358.34732,120.86667 359.37885,120.86667C360.08533,120.86667 360.80984,120.86667 361.94266,120.86667C362.60535,120.86667 363.64932,120.86667 364.332,120.86667C365.53201,120.86667 366.29999,120.86581 367.06799,120.86667C368.26935,120.868 368.96332,120.86482 369.68533,120.93867C370.4201,121.01382 371.82593,121.41653 372.47467,121.73867C373.13611,122.06712 373.77609,122.48328 374.82166,123.06667C375.55624,123.47654 376.34027,123.86956 376.74667,124.06667C377.5838,124.47265 378.9202,125.06879 379.38266,125.26534C380.31271,125.66061 381.23776,126.033 381.69016,126.2095C382.96414,126.70656 383.72794,126.98527 384.42801,127.23067C385.3891,127.56757 386.29797,127.87289 387.1955,128.16217C387.77789,128.34988 388.60828,128.61615 389.61334,128.78267C390.44904,128.92113 391.41525,129.15309 392.05267,129.57117C392.95612,130.16373 393.68707,130.57935 394.49985,130.74516C395.45074,130.93916 396.41867,130.86667 397.16699,130.86667C398.06418,130.86667 398.98666,130.86667 399.66,130.86667C400.96667,130.86667 401.78568,130.86667 402.47867,130.86667C403.50034,130.86667 404.34167,130.86667 405.07068,130.86667C406.27335,130.86667 406.99335,130.86667 407.79333,130.86667C408.67334,130.86667 409.63333,130.86667 410.668,130.86667C411.20532,130.86667 412.29999,130.86667 412.84933,130.86667C413.93201,130.86667 414.96667,130.86667 415.93066,130.86667C416.83865,130.86667 417.27917,130.86667 418.14816,130.86667C419.46667,130.86667 420.384,130.86667 420.85266,130.86667C421.79999,130.86667 422.74734,130.86667 424.13333,130.86667C424.57867,130.86667 425.44733,130.86667 426.29999,130.86667C427.15268,130.86667 428.46667,130.86667 429.384,130.86667C429.85266,130.86667 430.79999,130.86667 431.74734,130.86667C432.216,130.86667 433.57935,130.86667 434.46533,130.86667C435.38333,130.86667 435.86932,130.86667 436.92532,130.86667C438.13333,130.86667 438.80682,130.86667 439.52133,130.86667C440.26782,130.86667 441.03732,130.86667 441.82083,130.86667C442.60934,130.86667 443.39383,130.86667 444.16534,130.86667C446.31451,130.86667 446.96268,130.86667 447.58484,130.86667C448.77917,130.86667 449.36533,130.86667 449.95349,130.86667C451.79999,130.86667 452.46399,130.86667 453.15201,130.86667C453.858,130.86667 454.57599,130.86667 455.29999,130.86667C456.02399,130.86667 457.448,130.86667 458.79999,130.86667C459.43533,130.86667 460.04266,130.86667 461.18134,130.86667C461.71667,130.86667 462.72934,130.86667 464.13333,130.86667C464.578,130.86667 465.42932,130.86667 466.21667,130.86667C467.24268,130.86667 468.4375,130.86713 469.10083,130.86667C470.06934,130.866 470.8269,130.8987 471.61734,130.78133C472.8624,130.59645 473.51071,130.23123 474.46667,130.03334C475.26624,129.86783 475.90454,129.87146 476.63318,129.814C477.96741,129.70877 479.03482,129.58385 479.60617,129.51401C480.19083,129.44254 481.36246,129.29021 481.93216,129.21933C483.46606,129.02849 484.27487,128.95314 484.93066,128.892C485.73495,128.81702 486.7251,128.65794 487.54666,128.43066C488.46573,128.17641 489.46558,127.86269 490.18533,127.66666C490.93488,127.46252 491.71042,127.26566 492.50134,127.06667C493.69977,126.76514 494.50394,126.56441 495.32083,126.36667C496.15662,126.16435 496.58359,126.05874 497.92099,125.76683C498.84247,125.5657 499.75833,125.3875 500.20267,125.30267L501.04532,125.152L502.44266,124.952L503.21667,124.8875" id="svg_19" stroke-width="3" stroke="#000" fill="none"/>
 </g>
</svg>