<svg width="500" height="323.45013477088946" xmlns="http://www.w3.org/2000/svg" xmlns:svg="http://www.w3.org/2000/svg" xmlns:xlink="http://www.w3.org/1999/xlink">
 <!-- Created with SVG-edit - http://svg-edit.googlecode.com/ -->
 <g display="inline" class="layer">
  <title>Layer 1</title>
  <path t="0,191,209,225,243,243,260,277,294,317,318,349,367,384,401,419,419,436,454,495,512,530,548,564,564,581,599,599,617,635,652,652,668,669,686,703,704,721,742,742,742,759,759,775,776,793,793,808,826,826,842,842,859,877,877,894,911,912,929,929,946,964,964,980,998,998,1015,1015,1015,1033,1033,1050,1050,1050,1068,1068,1085,1085,1101,1102,1102,1118,1119,1136,1136,1153,1153,1171,1171,1171,1188,1188,1188,1188,1204,1205,1222,1223,1223,1243,1243,1243,1260,1260,1277,1277,1293,1293,1294,1294,1310,1310,1310,1327,1344,1344,1361,1361,1378,1396,1396,1413,1413,1430,1430,1447,1465,1465,1482,1500,1500,1500,1517,1534,1534,1552,1552,1570,1587,1587,1604,1604,1621,1621,1639,1639,1656,1656,1656,1656,1673,1673,1674,1674,1694,1695,1695,1711,1711,1711,1711,1728,1728,1728,1728,1728,1745,1745,1745,1746,1761,1761,1762,1762,1779,1779,1779,1780,1795,1795,1795,1812,1812,1812,1829,1829,1829,1830,1845,1845,1845,1863,1863,1879,1879,1879,1896,1896,1913,1914,1931,1931,1931,1948,1948,1948,1965,1965,1982,1982,1982,1999,1999,1999,2016,2016,2033,2034,2051,2051,2051,2069,2069,2069,2069,2086,2087,2087,2087,2104,2104,2104,2104,2121,2121,2121,2138,2138,2139,2156,2156,2156,2156,2173,2173,2173,2173,2189,2190,2190,2207,2207,2207,2224,2225,2225,2225,2242,2242,2242,2242,2263,2263,2263,2263,2279,2280,2280,2296,2296,2296,2313,2313,2330,2606,2623,2624,2641,2641,2641,2641,2658,2658,2658,2675,2676,2676,2676,2676,2693,2693,2693,2693,2709,2710,2710,2710,2730,2730,2731,2747,2747,2765,2765,2781,2781,2798,2798,2815,2831,2831,2848,2848,2865,2865,2882,2883,2900,2900,2900,2900,2917,2917,2917,2934,2935,2952,2952,2952,2969,2969,2986,2986,3004,3004,3004,3021,3022,3022,3038,3038,3038,3056,3056,3056,3056,3073,3073,3073,3090,3091,3091,3108,3108,3125,3126,3126,3142,3142,3160,3160,3183,3184,3200,3201,3218,3218,3235,3235,3251,3252,3268,3286,3286,3303,3303,3320,3320,3337,3338,3355,3355,3373,3390,3408,3425,3442,3443,3443,3460,3460,3478,3514,3532,3533,3533,3550,3566,3567,3567,3583,3583,3583,3600,3600,3600,3618,3618,3618,3634,3634,3634,3634,3650,3650,3667,3667,3683,3700,3701,3718,3735,3751,3768,3769,3785,3802,3802,3819,3836,3854,3855,3871,3888,3905,3905,3922,3940,3957,3958,3958,3975,3975,3992,3993,4010,4010,4027,4046,4046,4062,4080,4102,4103,4119,4135,4153,4168,4185,4202,4202,4218,4219,4237,4238,4253,4253,4271,4271,4287,4287,4304,4304,4321,4322,4338,4338,4355,4355,4373,4373,4391,4391,4408,4408,4425,4426,4426,4443,4443,4443,4460,4460,4461,4478,4478,4494,4495,4511,4511,4529,4529,4546,4546,4563,4564,4581,4602,4619,4636,4636,4653,4671,4688,4727,4783,4784,4816,4837,4927,4945,4962,4980,4998,5015,5015,5031,5049,5050,5070,5071,5088,5105,5106,5121,5121,5138,5138,5154,5155,5264,5281,5298,5315,5316,5333,5333,5333,5350,5351,5371,5388,5405,5425,5442,5459,5476,5493,5493,5511,5511,5512,5528,5528,5546,5546,5546,5563,5563,5563,5580,5580,5598,5598,5615,5641,5673,5691,5709,5726,5726,5743,5743,5760,5760,5778,5778,5778,5795,5795,5796,5812,5813,5813,5830,5830,5848,5848,5864,5865,5865,5882,5899,5900,5917,5917,5917,5934,5935,5952,5952,5968,5969,5990,5990,6008,6008,6024,6024,6040,6041,6057,6057,6074,6075,6090,6114,6114,6138,6180,6198,6198,6215,6232,6233,6249,6266,6266,6283,6284,6307,6410,6428,6445,6445,6461,6462,6479,6513,6514,6554,6575,6591,6592,6609,6626,6626,6642,6642,6642,6658,6659,6676,6676,6677,6693,6693,6693,6709,6709,6710,6725,6726,6742,6743,6743,6759,6760,6760,6776,6776,6793,6809,6810,6826,6843,6861,6862,6878,6896,6896,6897,6913,6930,6955,6955,7018,7053,7071,7071,7093,7126,7194,7227,7245,7267,7284,7286,7301,7319,7336,7353,7370,7388,7388,7410,7427,7445,7460,7478,7478,7494,7512,7528,7528,7529,7546,7546,7562,7580,7597,7598,7614,7631,7632,7648,7665,7666,7682,7700,7700,7717,7717,7735,7735,7753,7770,7770,7786,7787,7804,7821,7822,7838,7856,7857,7874,7874,7894,7895,7911,7912,7912,7929,7929,7945,7946,7946,7963,7963,7979,7980,7995,7996,7996,8013,8013,8014,8029,8030,8046,8046,8062,8063,8063,8080,8080,8097,8098,8115,8115,8131,8132,8132,8149,8149,8150,8166,8166,8183,8183,8184,8200,8201,8218,8235,8251,8252,8270,8304,8322,8339,8357,8374,8419" d="M118.5,123.72507C121.08933,123.68906 121.84574,123.19765 122.7,122.80907C123.46311,122.46194 124.2,122.07774 125,121.72507C125.8,121.3724 126.65054,120.97235 127.5,120.5584C128.15227,120.24055 128.89946,119.74307 129.8,119.72507C130.69981,119.70708 131.60001,119.72507 132.5,119.72507C133.3,119.72507 134.2,119.72507 135.14284,119.72507C136.02083,119.72507 136.89999,119.72507 137.8,119.72507C138.7,119.72507 139.60017,119.72507 140.38533,119.72507C141.32533,119.72507 142.33333,119.72507 143.1955,119.72507C144,119.72507 144.91086,119.70604 145.82133,119.72523C146.67523,119.74323 147.64861,119.967 148.1955,120.42957C148.95135,121.06887 149.51804,121.93227 150.2,122.3679C150.97054,122.8601 151.84193,122.86398 152.75067,123.16106C153.50247,123.40684 154.36536,123.81287 155.11467,124.32507C155.82933,124.81357 156.52617,125.18383 157.33333,125.72507C158.11673,126.25037 158.93182,126.63187 159.82133,126.94656C160.52061,127.19395 161.30576,127.76466 161.97917,128.20424C162.77046,128.72076 163.62215,128.92082 164.3,129.5264C164.93219,130.09117 165.82428,130.58832 166.5,130.72507C167.48329,130.92407 168.17372,131.42848 169.02083,131.72507C169.80472,131.99951 170.6395,132.42006 171.61467,132.63974C172.48236,132.83521 173.31433,132.72507 174.26933,132.72507C175.02083,132.72507 175.81755,132.70598 176.81467,132.72639C177.68983,132.74431 178.70215,132.94019 179.3,133.15041C180.10298,133.43275 181.09877,133.69243 181.89999,133.72057C182.90073,133.75572 183.73599,133.72507 184.66667,133.72507C185.44817,133.72507 186.23866,133.72507 187.35716,133.72507C188.24817,133.72507 189.15717,133.72507 189.9045,133.72507C190.90134,133.72507 191.73599,133.72507 192.66667,133.72507C193.45717,133.72507 194.31067,133.72507 195.5,133.72507C196.09866,133.72507 196.97917,133.72507 197.81467,133.72507C198.81599,133.72507 199.72533,133.72507 200.66667,133.72507C201.45267,133.72507 202.27467,133.72507 203.33333,133.72507C204.26401,133.72507 205.09927,133.69441 206.10001,133.72957C206.90123,133.75771 207.89589,134.02538 208.52083,134.22507C209.65755,134.5883 210.45653,134.67981 211.02083,134.70424C211.90073,134.74232 213.09833,134.70023 213.95833,134.7459C214.73094,134.78693 215.61911,135.21458 216.5,135.5584C217.22134,135.83994 218.17276,135.60834 219.01601,135.81039C219.91411,136.0256 220.658,136.62201 221.5,136.70424C222.47426,136.79939 223.26587,136.74472 224.15266,137.07773C224.85909,137.343 225.91316,137.59018 226.7,138.00906C227.35263,138.35651 228.17195,138.71973 229.04266,138.72507C229.99998,138.73093 230.73199,138.72507 231.83867,138.72507C232.66667,138.72507 233.54694,138.58603 234.4785,138.9464C235.25633,139.2473 236.02066,139.71465 236.98534,139.72507C237.71062,139.73289 238.69983,139.72507 239.47917,139.72507C240.47867,139.72507 241.25267,139.72507 242.16617,139.72507C243.01883,139.72507 244.14322,139.74139 244.80533,139.71156C245.50102,139.68022 246.584,139.57092 247.45717,139.0609C248.03174,138.7253 248.68729,137.93634 249.18266,137.49173C250.13603,136.63606 250.73529,136.38492 251.60451,135.9769C252.49928,135.55687 253.10544,135.2467 254.02083,134.70424C254.66006,134.32542 255.66064,133.71399 256.384,133.32773C257.11938,132.93504 257.86234,132.56473 258.616,132.29573C259.6633,131.92192 260.35013,131.85956 261.28934,131.6384C261.90424,131.49359 263.10934,130.88437 263.70001,130.4384C264.30991,129.97792 264.86566,129.43904 265.79999,128.8679C266.6709,128.33553 267.30615,128.12379 267.89999,127.8424C269.11188,127.26813 269.69037,126.90142 270.26401,126.5504C271.33527,125.89487 272.03708,125.46137 272.72534,125.13573C273.65369,124.69652 274.4501,124.40598 275.31067,124.16106C275.89697,123.99421 277.09888,123.81131 277.97916,123.72507C278.81488,123.6432 279.81482,123.44151 280.47916,123.22507C281.50021,122.89241 282.3085,122.8008 283.10001,122.64107C284.11499,122.43622 284.88416,122.01338 285.70016,121.84657C286.51025,121.68097 287.66684,121.73787 288.45267,121.72057C289.27505,121.70245 290.34076,121.58466 291.04285,121.3724C291.69714,121.17459 292.69586,120.80471 293.5,120.7459C294.49756,120.67295 295.31067,120.72507 296.18533,120.72507C297.18399,120.72507 298,120.72507 298.81601,120.72507C299.81332,120.72507 300.65332,120.72507 301.61734,120.72507C302.46933,120.72507 303.272,120.72507 304.0625,120.72507C304.98801,120.72507 306.02158,120.7306 306.75717,120.72057C307.52094,120.71015 308.30792,120.70045 309.5,120.5584C310.30157,120.46289 311.08813,120.29346 311.86401,120.1504C313.33121,119.87985 314.01379,119.79675 314.664,119.76107C315.59464,119.71001 316.79996,119.73353 317.39551,119.72057C318.26437,119.70165 319.33771,119.57455 320.05182,119.3724C321.01624,119.0994 321.83047,118.86209 322.80984,118.78223C323.51941,118.72437 324.25183,118.72732 325.33334,118.72507C326.34283,118.72297 326.97916,118.72507 327.89868,118.72507C329.10001,118.72507 329.70001,118.72507 330.60001,118.72507C331.79999,118.72507 332.39999,118.72507 333.29999,118.72507C334.5,118.72507 335.10132,118.72507 336.02084,118.72507C336.65717,118.72507 338.02133,118.72507 338.75266,118.72507C339.5,118.72507 340.24734,118.72507 341.33334,118.72507C342.34283,118.72507 342.97916,118.72507 343.89868,118.72507C345.10001,118.72507 345.70001,118.72513 346.60001,118.72507C347.79965,118.72498 348.39459,118.77282 349.228,118.68906C350.36636,118.57466 351.13129,118.24287 351.88934,117.7504C352.57819,117.30289 353.22208,116.75753 354.02335,116.72957C355.142,116.69054 355.80533,116.72507 356.5,116.72507C357.53201,116.72507 358.73334,116.72507 359.52084,116.72507C360.0625,116.72507 361.36423,116.7198 362.16251,116.72957C363.02094,116.74007 363.46167,116.73734 364.33334,116.8104C365.56039,116.91325 366.64093,117.15257 367.31467,117.33573C367.98502,117.51797 369.02118,117.82507 369.74817,118.02507C370.83865,118.32507 371.53784,118.50377 372.457,118.8249C373.23447,119.09653 374.08243,119.51958 375.10001,119.6679C375.89334,119.78354 376.90649,119.64655 377.664,119.76107C378.63672,119.90813 379.2226,120.48815 380.15268,120.6679C381.00208,120.83205 382.02249,120.66959 382.82132,120.94656C383.70746,121.25381 384.46997,121.83652 385.12534,122.32507C385.81241,122.83724 386.53445,123.17218 387.47882,123.82523C388.04315,124.21548 388.82709,124.90057 389.50983,125.37773C390.0163,125.73168 390.80588,126.26057 391.81467,126.83974C392.47195,127.21709 393.10818,127.5053 394.10001,128.02957C394.70605,128.34991 395.71228,129.03218 396.28934,129.5504C396.85541,130.05875 397.58588,130.87428 398.12534,131.31441C398.94318,131.98166 399.73737,132.32338 400.5,132.89174C401.11859,133.35275 401.70776,133.90062 402.33334,134.72507C402.91724,135.49455 403.22025,136.14912 403.8215,136.92523C404.31046,137.55638 404.92239,138.1676 405.5,138.89174C406.1149,139.66264 406.49316,140.21605 407.01468,141.04106C407.49161,141.79555 407.97318,142.72169 408.384,143.32373C408.94827,144.15062 409.52029,144.70819 410.01599,145.32507C410.64236,146.1046 411.09003,146.95012 411.66666,147.72507C412.12552,148.34175 412.69601,148.86853 413.47833,149.70374C414.06989,150.3353 414.31888,151.23718 414.56134,151.89973C414.92813,152.90204 415.68167,153.28786 416.61465,153.6424C417.29608,153.90134 417.80548,154.68057 418.38535,155.15707C419.21762,155.841 420.11774,155.7533 421.09549,156.07773C421.85794,156.33072 422.76492,156.60864 423.66666,156.89174C424.34183,157.10371 425.32251,157.63043 426.12534,157.7144C426.98074,157.80388 427.72839,157.68349 428.69983,157.9464C429.49875,158.16261 430.47153,158.66006 431.1955,158.72057C432.09686,158.79588 433,158.72507 433.89999,158.72507C434.80899,158.72507 435.83334,158.72507 436.50534,158.72507C437.24933,158.72507 438.35736,158.70006 439.19101,158.72507C440.1441,158.75366 440.5,159.60406 440.5,160.38924C440.5,161.2459 440.5,161.9584 440.5,163.0744C440.5,164.0584 440.5,164.73489 440.5,165.51041C440.5,166.5584 440.5,167.49974 440.5,168.17773C440.5,169.4104 440.5,169.96106 440.5,170.82957C440.5,172.02507 440.5,172.92506 440.5,173.52507C440.5,174.72507 440.5,175.62056 440.5,176.20424C440.5,177.03973 440.5,178.2679 440.5,178.9144C440.5,179.9249 440.5,180.88907 440.5,181.83974C440.5,182.72507 440.39392,183.51318 440,184.22507C439.50977,185.11104 439.63165,186.07513 439.27866,186.82507C438.9136,187.60059 438.5177,188.3754 438.216,189.20906C437.961,189.9137 437.7153,190.91264 437.216,191.6424C436.7038,192.39101 436.58551,193.15228 435.88934,193.73973C435.20554,194.31677 434.47787,194.92596 433.79999,195.3679C433.06607,195.84636 432.26035,196.21927 431.33334,196.5584C430.69287,196.79269 429.89868,196.7244 428.89999,196.72507C428.10001,196.7256 427.10001,196.72507 426.29999,196.72507C425.30017,196.72507 424.33188,196.81204 423.38535,196.72374C422.48859,196.64009 421.91162,196.12624 421.10001,195.7504C420.21637,195.34122 419.76312,194.68819 419.41599,193.92506C419.0274,193.0708 418.52533,192.33574 418,191.72507C417.47467,191.1144 417.07318,190.31625 416.39999,189.62506C415.90665,189.1185 415.22748,188.38528 414.61465,187.92506C413.88229,187.37509 413.12869,187.0596 412.25266,186.42506C411.59705,185.95018 410.83383,185.4476 410.15268,185.02507C409.23349,184.45488 408.62927,183.90404 407.84732,183.42506C407.16379,183.00638 406.45233,182.40613 405.616,182.01041C404.88617,181.66507 403.88559,181.68742 403.10132,181.44107C402.32028,181.19574 401.37158,180.85818 400.616,180.64107C399.64398,180.36176 398.91278,179.93382 397.89551,179.78223C397.26923,179.68889 396.07825,179.74236 395.27466,179.7144C394.45184,179.68578 393.40332,179.55266 392.73599,179.2784C392.08325,179.01015 391.11133,178.22841 390.5,177.7459C389.91058,177.28067 388.8985,176.84225 388.10001,176.6769C387.29861,176.51094 386.49268,176.2513 385.66666,175.72507C384.97424,175.28395 384.01733,174.7771 383.28934,174.73573C382.3017,174.67961 381.47287,174.86951 380.52151,174.50374C379.74304,174.20444 378.98566,173.87749 378.10001,173.7144C377.26855,173.56129 376.5126,172.8101 375.70001,172.72639C374.80472,172.63417 373.87488,172.73695 373.10001,172.29973C372.37375,171.88994 371.5,171.72507 370.70001,171.72507C369.79999,171.72507 368.77438,171.28387 367.936,171.76106C367.24451,172.15466 367.5,173.32507 367.5,174.22507C367.5,175.13573 367.5,176.0464 367.5,176.72507C367.5,177.83974 367.5,178.72507 367.5,179.48224C367.5,180.37773 367.5,181.24107 367.5,182.22507C367.5,183.0464 367.5,183.89973 367.5,184.84241C367.5,185.6944 367.5,186.73041 367.5,187.4744C367.5,188.39174 367.12225,189.3965 367.52084,190.20424C367.85574,190.88289 368.87506,190.26173 369.60034,189.62523C370.15378,189.13951 371.04196,188.84074 372,188.72507C372.73148,188.63675 373.71808,188.40941 374.29733,187.92374C375.04547,187.29646 375.84097,186.83656 376.47467,186.29973C377.06818,185.79695 378,185.72507 378.89999,185.72507C379.8045,185.72507 380.66666,185.72507 381.52084,185.72507C382.5,185.72507 383.29999,185.72507 384.10001,185.72507C385.10449,185.72507 385.73599,185.72507 386.92133,185.72507C387.72534,185.72507 388.54733,185.72507 389.57849,185.72507C390.26401,185.72507 391.09866,185.72507 392.10001,185.72507C392.89999,185.72507 393.89868,185.72507 394.84283,185.72507C395.74283,185.72507 396.70001,185.72507 397.60001,185.72507C398.5,185.72507 399.22946,185.94122 399.66666,186.72507C400.03024,187.37695 400.84058,187.99696 401.29999,188.6104C401.85126,189.3465 402.20493,190.12712 402.60001,190.92523C403.00504,191.74342 403.31436,192.40477 403.70001,193.40907C404.01169,194.22069 404.27856,195.04991 404.70001,196.03973C404.98563,196.71054 405.32513,197.31168 405.7955,198.32507C406.16269,199.11615 406.37283,199.92598 406.5,200.72507C406.65933,201.72626 406.96213,202.50072 407.216,203.23973C407.54916,204.20955 407.81436,205.19896 408.07468,205.93573C408.41946,206.91159 408.4632,207.73138 408.58401,208.32507C408.79053,209.33972 409.21115,210.11006 409.41599,211.12506C409.57571,211.91655 409.71021,212.92897 410,213.70424C410.32104,214.5631 410.46927,215.35092 410.50134,216.2104C410.53571,217.13062 410.79114,218.12253 411,218.72507C411.34521,219.72102 411.32996,220.55171 411.66666,221.5584C411.90308,222.26527 412.26569,223.07481 412.52533,223.86374C412.80792,224.72241 413.47015,225.43349 413.49866,226.2424C413.5318,227.18282 413.94818,227.9101 414.33334,228.72507C414.64038,229.37471 414.48816,230.37656 414.784,231.20906C415.03491,231.91516 415.47141,232.97107 415.5,233.89174C415.52045,234.55008 415.5,235.5584 415.5,236.42056C415.5,237.3679 415.60254,238.45024 414.85333,238.7144C414.06357,238.99286 413.11841,238.69327 412.25266,239.07773C411.5827,239.37524 410.67514,239.70706 409.66666,239.72507C408.80463,239.74045 407.79175,240.10805 407.02084,239.6834C406.30621,239.28975 406.45709,238.19022 406.07468,237.3504C405.70547,236.53958 405.57587,235.68825 405.33334,234.72507C405.12723,233.90649 404.78015,233.33252 404.30133,232.32507C403.9238,231.53075 403.67557,230.72334 403.51468,229.9144C403.3403,229.03777 402.93579,228.03908 402.64932,227.49974C402.21109,226.67465 401.71252,225.65387 401.56134,224.96106C401.38077,224.13354 401.1474,223.1187 400.88934,222.48907C400.50677,221.5556 400.24323,220.75514 399.86401,219.9864C399.39108,219.02768 398.77103,218.6161 398.20984,217.9769C397.49374,217.16124 397.61197,216.30524 397.14282,215.48224C396.65094,214.61934 396.02509,214.0719 395.52533,213.33574C395.05637,212.64496 394.24652,212.1851 393.936,211.53973C393.50461,210.64311 393.36539,209.54436 393.064,208.89973C392.73306,208.19194 391.93314,207.45203 391.62149,206.62506C391.30124,205.77524 391.89297,204.79468 391.41467,204.01041C390.9245,203.20668 390.46457,202.58707 389.7955,202.08223C389.04453,201.51559 388.50571,200.90697 387.69867,200.72639C386.82169,200.53017 385.83246,200.64775 385.10001,201.16107C384.30997,201.71474 383.71826,202.22684 383.02084,202.72507C382.37573,203.18591 381.79605,203.7787 381,204.22507C380.20056,204.67336 379.46875,205.06197 378.70001,205.44107C377.85477,205.85789 376.87488,205.71318 376.10001,206.15041C375.37375,206.5602 374.4996,206.69971 373.70001,206.72507C372.79861,206.75366 371.98779,207.29832 371.16666,207.72507C370.51526,208.06358 369.76962,208.36577 368.64301,208.60356C367.81897,208.77748 366.96658,208.67854 366.10001,209.15041C365.36749,209.54927 364.66946,209.86867 364.10001,210.57573C363.46469,211.36456 362.80002,211.72057 361.86401,211.72507C361.01599,211.72914 360.13925,211.57072 359.13599,211.73573C358.26688,211.87868 357.63538,212.52986 356.84283,212.66791C355.91107,212.83022 354.89246,212.63849 354.15717,212.78223C353.2233,212.9648 352.34167,213.6115 351.67465,213.68907C350.67276,213.80559 349.8045,213.72507 348.97916,213.72507C348.01599,213.72507 347.15268,213.72507 346.25266,213.72507C345.33334,213.72507 344.5,213.72507 343.52133,213.72507C342.74734,213.72507 341.83835,213.72507 341.03833,213.72507C340.07867,213.72507 339.27466,213.72507 338.45267,213.72507C337.42151,213.72507 336.52084,213.72507 335.5,213.72507C334.70001,213.72507 333.89938,213.75568 332.89999,213.72057C332.09875,213.69241 331.09103,213.46143 330.5,213.20424C329.48322,212.7618 328.68372,212.34119 328.10001,211.9679C327.2753,211.44049 326.71234,210.88521 326.10001,210.37773C325.31552,209.72758 324.49487,209.28627 323.66666,208.72507C322.97678,208.25761 322.18686,207.61011 321.47916,207.22507C320.90518,206.9128 319.89999,206.42508 319.29999,206.12506C318.30014,205.62509 317.49545,205.2661 316.66666,204.72507C316.09583,204.35245 315.1676,203.72295 314.49466,203.42056C313.75171,203.08673 312.79657,202.59523 312.30984,202.0724C311.70273,201.42021 311.03369,200.58075 310.47916,200.2459C309.52975,199.67261 308.88434,199.46068 308.15717,199.02507C307.22925,198.46921 306.77756,197.83627 306,197.2459C305.26178,196.68538 304.26135,196.62206 303.78534,195.92374C303.27454,195.17442 302.82159,194.43982 302.216,193.80907C301.66602,193.23621 301,192.72507 300.47467,192.1144L300.07468,191.32507" id="svg_1" stroke-width="3" stroke="#000" fill="none"/>
  <path t="9314,9499,9499,9519,9519,9519,9535,9535,9535,9553,9553,9553,9553,9568,9568,9585,9585,9585,9609,9609,9627,9651,9668,9685,9702,9702,9719,9719,9719,9735,9735,9735,9749,9749,9767,9790,9815,9846,9865,9866,9882,9882,9899,9926,9927,9927,9965,9990,10007,10029,10029,10046,10064,10064,10081,10098,10099,10115,10115,10134,10134,10153,10169,10170,10186,10186,10203,10203,10203,10220,10220,10237,10254,10254,10272,10272,10288,10306,10323,10346,10346,10364,10382,10382,10400,10417,10417,10433,10434,10453,10470,10471,10488,10504" d="M368.5,211.72507C368.5,213.57173 368.5,214.41173 368.5,215.4104C368.5,216.2459 368.49481,217.12642 368.50015,218.02507C368.50549,218.92511 368.51743,219.8308 368.66666,220.72507C368.81735,221.62811 368.99777,222.21234 369.30133,223.03973C369.67212,224.0504 370.09787,224.91545 370.5,225.72507C370.89789,226.52612 371.20001,227.12506 371.69867,228.12241C372.064,228.85307 372.46967,229.74025 372.5,230.5264C372.5347,231.42621 373.09836,232.20638 373.37885,233.04657C373.66626,233.90756 373.79324,234.75302 374.36133,235.52507C374.82062,236.14928 375.5199,236.90102 375.85333,237.52507C376.26675,238.29881 376.37997,239.33321 376.55267,240.0679C376.76978,240.99139 377.35013,241.82936 377.5,242.72507C377.64023,243.56325 378.5,243.72507 379.25717,243.72507C380.15268,243.72507 381.01599,243.72507 382.02084,243.72507C383.04266,243.72507 383.75067,243.72507 384.49466,243.72507C385.52933,243.72507 386.67999,244.10188 387.33334,243.5584C388.02335,242.98444 388.30075,242.07144 388.47916,241.20424C388.67328,240.2606 388.5,239.5504 388.5,238.47774C388.5,237.5584 388.5,236.72507 388.5,235.89174C388.5,234.9724 388.5,234.0724 388.5,233.37773C388.5,232.3504 388.5,231.40373 388.5,230.5504C388.5,229.60773 388.5,228.91524 388.5,227.95573C388.5,227.20424 388.5,226.40773 388.5,225.18674C388.5,224.38673 388.58914,223.45621 388.33334,222.5584C388.0874,221.69522 387.60544,220.90103 387.50449,220.02957C387.4003,219.13017 386.91086,218.40715 386.62149,217.62506C386.30637,216.77333 386.78201,215.84116 386.38568,215.02507C386.01776,214.26749 384.93704,214.00781 384.52084,213.20424C384.05621,212.30717 383.81131,211.58408 383.58533,210.60907C383.41089,209.85645 383.5,208.89973 383.5,207.89174L383.46399,207.13573L383.07468,206.32507L382.58533,205.52507" id="svg_2" stroke-width="3" stroke="#000" fill="none"/>
  <path t="11723,11933,11950,11950,11950,11968,11968,11985,11985,12002,12002,12019,12019,12037,12037,12037,12054,12072,12072,12091,12108,12108,12129,12140,12140,12158,12158,12176,12176,12192,12208,12208,12225,12242,12242,12258,12258,12275,12276,12293,12293,12309,12326,12326,12342,12343,12360,12360,12377,12394,12394,12411,12411,12428,12428,12446,12446,12464,12481,12482,12482,12498,12515,12533,12533,12551,12569,12587,12603,12622,12622,12639,12639,12656,12657,12673,12693,12741,12764,12781,12813,12845,12845,12869,12904,12927,12944,12961,12977,13031,13031,13044,13044,13044,13062,13078,13098,13116,13131,13149,13150,13185,13185,13202,13202,13219,13236,13254,13254,13271,13271,13271,13288,13289,13289,13305,13306,13323,13323,13340,13340,13340,13358,13358,13377,13378,13378,13395,13395,13412,13429,13429,13469,13700,13718,13735,13735,13735,13753,13753,13753,13770,13770,13771,13787,13788,13788,13804,13804,13804,13804,13822,13822,13840,13840,13857,13857,13857,13874,13875,13888,13888,13888,13905,13905,13922,13923,13923,13940,13940,13959,13959,13976,13976,13994,13994,13994,14010,14027,14027,14044,14044,14044,14061,14061,14061,14077,14077,14094,14094,14111,14112,14131,14132,14146,14147,14147,14164,14164,14164,14181,14181,14198,14199,14199,14216,14216,14216,14233,14233,14251,14251,14251,14268,14268,14268,14285,14285,14302,14303,14303,14320,14320,14337,14337,14337,14354,14354,14371,14371,14371,14388,14388,14405,14405,14442,14442,14442,14650,14650,14650,14668,14685,14685,14685,14685,14701,14702,14702,14702,14719,14719,14719,14719,14737,14737,14737,14754,14754,14771,14772,14798,14812,14830,14851,14875,14899,14917,14934,14951,14951,14969,14969,14986,15003,15003,15003,15031,15074,15099,15133,15150,15150,15171,15172,15330,15363,15381,15397,15414,15414,15431,15448,15467,15468,15502,15524,15541,15558,15587,15626,15651,15669,15700,15739,15772,15804,15828,15845,15862,15862,15881,15882,15882,15898,15898,15899,15915,15915,15915,15932,15932,15932,15948,15949,15966,15966,15966,15982,15982,15999,15999,16015,16015,16016,16032,16033,16050,16051,16051,16066,16067,16084,16084,16085,16105,16105,16105,16122,16122,16139,16139,16156,16156,16174,16174,16174,16191,16191,16208,16208,16226,16244,16244,16261,16261,16278,16278,16279,16296,16296,16313,16314,16331,16331,16348,16369,16370,16387,16408,16425,16460,16460,16477,16478,16496,16496,16536,16555,16576,16593,16616,16633,16650,16669,16670,16687,16704,16704,16721,16737,16737,16754,16755,16771,16788,16805,16805,16822,16838,16855,16855,16872,16872,16890,16908,16926,16943,16959,16977,16977,16995,17013,17031,17049,17049,17066,17097,17114,17131,17149,17149,17167,17183,17200,17200,17214,17231,17232,17232,17249,17268,17269,17285,17286,17302,17302,17303,17320,17335,17336,17358,17358,17375,17428,17469,17469,17486,17503,17520,17554,17597,17645,17662,17679,17717,17750" d="M296.5,190.72507C294.86401,191.37173 294.17868,192.04639 293.67465,192.5504C293.15265,193.07239 292.42191,193.88425 291.74734,194.42056C291.05188,194.9735 290.2626,195.23674 289.38535,195.92641C288.75333,196.42328 288.34732,197.24219 287.86401,197.89973C287.2384,198.75087 286.66241,199.07021 285.98401,199.52373C285.11975,200.10149 284.40112,200.82619 283.79999,201.42506C283.20111,202.02168 282.36194,202.50247 281.70001,202.80907C280.8309,203.21164 280.33966,203.9753 279.61465,204.52507C278.88489,205.07845 278.11511,205.37169 277.38535,205.92506C276.66034,206.47484 276.10001,207.12506 275.39999,207.82507C274.79999,208.42506 274.21011,209.03532 273.5,209.72507C272.8728,210.33426 272.17709,210.82242 271.5,211.22507C270.6647,211.72179 270.04129,212.24681 269.29999,212.92374C268.71564,213.45734 267.85217,213.71434 267.01468,214.00906C266.27759,214.26846 265.30444,214.64557 264.52084,214.70424C263.52408,214.77887 262.73523,214.87367 261.86401,215.29973C261.04214,215.70164 260.28937,215.71973 259.30017,215.72507C258.52084,215.72926 257.52133,215.72507 256.616,215.72507C255.67467,215.72507 254.98399,215.72507 253.97917,215.72507C252.95734,215.72507 252.24933,215.72507 251.50534,215.72507C250.31433,215.72507 249.39999,215.72507 248.5,215.72507C247.7,215.72507 246.8,215.72507 245.89999,215.72507C245,215.72507 244.1955,215.72507 243.1785,215.72507C242.47917,215.72507 241.5,215.72507 240.71066,215.72507C239.66667,215.72507 238.8045,215.72507 237.89999,215.72507C237.02083,215.72507 236.14284,215.72507 235.2,215.72507C234.3,215.72507 233.39999,215.72507 232.5,215.72507C231.7,215.72507 231.11284,216.03955 230.33333,216.5584C229.62587,217.02927 228.59036,216.55101 227.7955,216.78223C226.90375,217.04163 226.1787,217.60484 225.47917,217.72507C224.50027,217.89331 223.72826,218.19891 222.98534,218.44107C221.93105,218.78473 221.08263,218.81454 220.47467,219.29973C219.85017,219.79811 218.84491,219.70332 218.01733,220.00906C217.18672,220.31592 216.31882,220.64316 215.61333,220.81039C214.64191,221.04066 214.00888,221.56042 213.02083,221.70424C212.09882,221.83844 211.17833,221.72507 210.45833,221.72507C209.33333,221.72507 208.54733,221.72507 207.72533,221.72507C206.66667,221.72507 205.95717,221.72507 205.10451,221.72507C204.10001,221.72507 203.3,221.72507 202.3,221.72507C201.5,221.72507 200.5,221.72507 199.7,221.72507C198.89999,221.72507 197.89549,221.72507 197.04283,221.72507C196.07883,221.72507 195.28534,221.72507 194.50983,221.72507C193.46933,221.72507 192.61734,221.72507 191.67467,221.72507C190.66667,221.72507 189.77565,221.37004 189,221.7459C188.3103,222.08009 188.53168,223.27872 188.27834,224.2679C188.09152,224.99727 187.92534,225.54933 187.33333,226.5584C186.89815,227.30014 186.29309,227.88924 185.66667,228.72507C185.22949,229.3084 184.77975,230.14912 184.1785,230.92523C183.68954,231.55638 183.07863,232.1684 182.5,232.89174C181.88625,233.65898 181.53065,234.21133 180.98534,234.95573C180.39455,235.76222 179.7726,236.45453 179.01466,236.92506C178.31093,237.36195 177.5,237.72507 176.7,238.12506C175.89999,238.52507 175.10001,238.92506 174.3,239.32507C173.5,239.72507 172.7,240.12506 171.89999,240.52507C171.10001,240.92506 170.29677,241.31865 169.5,241.72507C168.70738,242.12936 167.94574,242.57301 167.384,243.20773C166.83359,243.82967 165.99805,244.50687 165.32533,244.77573C164.49466,245.10771 164.07982,245.81856 163.33333,246.5584C162.73256,247.15382 162.01013,247.56366 161.12534,248.1144C160.35449,248.59419 159.41556,248.57748 158.66667,249.0584C158.02408,249.47105 157.65431,250.35817 157.01466,251.12373C156.50829,251.7298 155.92484,252.27618 155.10133,252.83974C154.35812,253.34834 153.53003,253.83653 152.87466,254.32507C152.18758,254.83725 151.45934,255.16331 150.52133,255.82524C149.974,256.21149 149.18658,257.05478 148.664,257.55042C148.10402,258.08151 147.317,258.73181 146.5,259.20422C145.91151,259.54449 144.88609,260.00555 144.3,260.36105C143.47919,260.85892 142.71236,261.56497 142.10001,262.07239C141.31538,262.72256 140.707,263.10223 139.89999,263.52374C139.10667,263.93811 138.29787,264.32083 137.5,264.72507C136.69783,265.1315 136.06947,265.44199 135.10001,266.20908C134.47942,266.7001 133.92169,267.27115 133.10001,267.84106C132.51466,268.24707 131.4856,268.8746 130.9045,269.37775C130.32104,269.88293 129.70004,270.59473 129,271.20422C128.36194,271.75974 127.66674,272.13034 126.89867,272.52505C125.9035,273.03644 125.27281,273.32217 124.5,273.89172C123.88123,274.34775 123.16494,275.08032 122.52133,275.70355C121.88229,276.32236 121.18778,276.84177 120.47916,277.22507C119.51213,277.74814 118.83311,277.94193 118.15717,278.5394C117.43293,279.17957 117.19046,279.99365 116.8045,280.66257C116.26385,281.59955 115.16666,281.72507 114.48116,281.72507C113.64267,281.72507 113.012,281.72507 111.61467,281.72507C110.864,281.72507 110.08933,281.72507 109.29867,281.72507C108.10033,281.72507 107.309,281.72507 106.54166,281.72507C105.81433,281.72507 104.543,281.72507 103.772,281.72507C102.90266,281.72507 101.9,281.72562 101.1,281.72507C100.10133,281.7244 99.26862,281.87106 98.38667,281.44107C97.57262,281.04419 97.48893,280.11343 96.7955,279.67239C96.02542,279.18259 95.1492,278.84796 94.52533,278.29974C93.91833,277.76636 93.29919,277.15625 92.9,276.53973C92.29878,275.61121 91.76196,275.06491 91.1,274.31439C90.46159,273.59055 90.05006,272.92514 89.78533,272.20908C89.43898,271.27222 89.5,270.32507 89.5,269.42957C89.5,268.50339 89.5,267.55841 89.5,266.89972C89.5,265.89172 89.10365,264.89621 89.536,264.15039C89.93217,263.46698 91.1,263.72507 92.02084,263.72507C92.984,263.72507 93.67467,263.72498 94.74284,263.72507C95.6,263.72516 96.63488,263.75089 97.14283,264.37241C97.68741,265.03873 98.10249,265.3566 98.97916,265.74591C99.69006,266.06161 100.20458,266.71222 101.1,266.72507C101.97932,266.7377 102.48803,267.53952 103.2045,267.72058C104.16966,267.96451 105.1,267.72507 106,267.72507C106.88934,267.72507 107.5667,267.46292 107.86166,266.65808C108.131,265.92316 108.63633,264.86981 109.15266,264.18674C109.48132,263.75195 110.31776,262.87537 110.88533,262.3504C111.45421,261.82422 112.27559,261.24997 113,260.70422C113.50001,260.32755 114.39854,259.55545 114.828,258.92508C115.35023,258.15854 115.63327,257.28351 116.136,256.56107C116.74409,255.68723 117.37332,255.40976 118.016,254.84106C118.80826,254.14001 119.15946,253.35281 119.70133,252.60773C120.22361,251.88959 120.82401,251.1843 121.32533,250.4744C121.67654,249.97707 122.30525,249.03477 122.87466,248.3864C123.63074,247.52547 124.15266,247.0724 124.67467,246.5504C125.47867,245.7464 125.99732,245.22238 126.66666,244.5584C127.33334,243.89705 127.88006,243.34564 128.69983,242.7464C129.27315,242.3273 130.05278,241.87587 130.74733,241.0769C131.28336,240.4603 132.02226,239.99301 132.84734,239.61974C133.66537,239.24965 134.04697,238.46341 134.8215,237.74657C135.29333,237.30988 136.10602,236.93558 137.0955,236.42506C137.66675,236.13034 138.63289,235.54549 139.1955,235.02507C139.92455,234.35068 140.4635,233.68385 141.136,233.12506C141.78867,232.58275 142.55481,232.25304 143.5,231.5584C144.11937,231.10321 144.67192,230.55835 145.33333,229.89174C145.98709,229.23283 146.53984,228.58037 146.88933,227.89973C147.39246,226.91991 147.41252,226.06789 147.936,225.32507C148.49174,224.5365 149.14389,224.02554 149.5,223.22507C149.8537,222.43002 150.75977,222.09238 151.33333,221.39174C151.79144,220.83214 151.5,219.72507 151.5,218.93573C151.5,217.89174 151.5,217.08673 151.5,216.20424C151.5,215.32507 151.5,214.42506 151.5,213.52507C151.5,212.62523 151.5,211.70424 151.5,210.86374C151.5,209.89174 151.58089,209.06668 151.064,208.32507C150.5123,207.53352 149.8,207.02507 149.2,206.42506C148.5,205.72507 147.92174,205.10245 147.3,204.5264C146.7195,203.98856 145.73872,203.76411 145,203.20424C144.33546,202.70061 143.68556,202.04529 142.89999,201.69974C142.07254,201.33577 141.33118,200.90216 140.5,200.72507C139.5188,200.51601 138.85164,199.9249 138,199.7459C137.11902,199.56071 136.2,199.72507 135.3,199.72507C134.39999,199.72507 133.5,199.72507 132.7,199.72507C131.8,199.72507 130.89197,199.82733 129.97917,199.70424C129.1615,199.59398 128.41631,199.00522 127.48534,198.73573C126.72409,198.51537 125.91778,198.11269 125.1,197.7504C124.31535,197.40279 123.77607,196.83511 123,196.2459C122.26176,195.68539 121.37592,195.53204 120.8,195.02057C120.05651,194.36028 119.35083,193.69382 118.67467,193.33574C117.99998,192.97844 116.98165,192.78229 116.016,192.44107C115.30947,192.19142 114.37954,191.82405 113.69017,191.67239C112.72718,191.46056 111.98253,191.24615 111.268,190.92374C110.28706,190.48111 109.50024,189.72482 109,189.22507C108.30033,188.52606 107.56293,188.2438 106.85717,187.67239C106.12651,187.08081 105.38989,186.67047 104.936,186.1144C104.32149,185.36156 104.04339,184.59457 103.416,184.00906C102.72752,183.36653 102.21764,182.76787 101.3,182.72507C100.40115,182.68315 99.62133,182.50374 99.14733,181.77774L98.52533,181.29973" id="svg_3" stroke-width="3" stroke="#000" fill="none"/>
  <path t="18513,18710,18750,18776,18793,18811,18841,18858,18874,18904,18924,18942,18959,18973,18992,19007,19025,19063,19080,19080,19159,19230,19287,19304,19327,19342,19343,19359,19376,19376,19408,19426,19444,19460,19480,19504,19521,19538,19539,19560,19577,19593,19593,19640,19664,19664,19696,19714,19731,19760,19778,19832,19856,19880,19904,19921,19939,19956,19977,19977,19994,20011,20028,20044,20044,20067,20085,20103,20120,20137,20137,20154,20171,20188,20188,20206,20223,20223,20240,20262,20279,20295,20312,20312,20329,20345,20345,20363,20363,20379,20397,20397,20414,20432,20432,20449,20466,20483,20500,20500,20518,20535,20555,20573,20590,20608,20625,20625,20643,20660,20679,20727" d="M78.5,173.72507C76.8,173.72507 75.79742,174.12329 74.936,173.68907C74.23712,173.33679 73.55124,172.8076 72.936,172.1144C72.35165,171.45599 71.78333,170.8479 71.51067,170.1144C71.20786,169.29979 70.70921,168.72418 70.50134,167.92374C70.2893,167.10728 69.57391,166.79108 69.02084,166.20424C68.32867,165.46982 68.10577,164.5905 67.66666,163.72507C67.32399,163.04968 66.49139,162.72256 66.5,161.92374C66.50988,161.00648 67.30133,160.72574 68.25716,160.72507C69.15266,160.72444 69.84734,160.72507 70.87466,160.72507C71.82133,160.72507 72.67467,160.72507 73.61467,160.72507C74.5,160.72507 75.04492,160.27472 75.78533,159.81039C76.56359,159.32233 77.69667,159.94009 78.37883,159.50374C79.10835,159.03708 79.68529,158.73048 80.61467,158.72507C81.59998,158.71933 82.53487,158.60181 83.14283,158.07773C83.82793,157.48715 84.53448,156.98286 85.3,156.64107C86.04353,156.30908 86.89732,155.75954 87.5,155.22507C88.08253,154.70847 88.65652,154.16739 89.416,153.72374C90.0909,153.32948 90.47467,152.33574 91,151.72507C91.52533,151.1144 92.02741,150.37933 92.416,149.52507C92.76312,148.76196 93.30017,148.07246 93.47916,147.22507C93.66521,146.34427 93.36346,145.36842 93.784,144.52507C94.11393,143.86342 94.31403,142.99821 94.536,142.12506C94.75521,141.26279 95.29999,140.47897 95.66666,139.72507C96.03806,138.96146 96.37603,138.15724 96.85717,137.42506C97.3791,136.63083 98.10608,136.14529 98.47467,135.32507C98.82644,134.54228 99.38898,134.0004 99.97916,133.22507C100.53824,132.4906 100.97559,131.83037 101.8,131.37241C102.5423,130.96005 103.3184,130.67007 104.02084,130.20424C104.84427,129.65816 105.52547,129.26524 106.33334,128.72507C107.00184,128.27808 107.87284,127.92968 108.7,127.43974C109.38088,127.03643 109.91761,126.34224 110.59983,125.62507C111.15757,125.03875 111.48466,124.10417 112.11066,123.69974C112.85803,123.2169 113.52211,122.52418 114.2,122.08224C114.93391,121.60377 115.81792,121.13592 116.6,120.84657C117.45174,120.53144 118.11226,120.36833 118.78533,119.80907C119.45448,119.25305 120.3,119.00906 121.1,118.73573L122.064,118.68906L122.55267,118.07774L123.30133,117.7264" id="svg_4" stroke-width="3" stroke="#000" fill="none"/>
  <path t="21479,21870,21870,21902,21926,21958,22197,22218,22234,22254,22271,22271,22303,22335,22367,22405,22445,22574,22806,22894" d="M96.5,144.72507C97.5,145.72507 98.3002,145.7438 99.2,145.72507C100.06457,145.70706 100.96406,145.35101 101.33334,144.5584C101.65318,143.87189 100.3,143.72507 99.4,143.72507C98.5,143.72507 97.7,143.72507 96.8,143.72507C95.9,143.72507 94.96521,143.67206 94.2,144.07773C93.35421,144.52611 92.6215,144.94656 92.50017,145.82491L92.7215,146.60356" id="svg_5" stroke-width="3" stroke="#000" fill="none"/>
  <path t="25548,25786,25961,25994,26026,26026,26044,26074,26098,26098,26122,26139,26157,26177" d="M97.5,145.72507C97.33334,147.5584 96.49674,148.2496 96.936,148.25307C97.84991,148.26028 98.26109,147.08038 98.88934,146.32507C99.43545,145.66852 99.32645,144.68681 99.58533,143.92506C99.8871,143.03716 100.464,142.32507 100.5,141.42506L100.50134,140.52507" id="svg_6" stroke-width="3" stroke="#000" fill="none"/>
  <path t="27109,27259,27298,27331,27349,27365,27382,27399,27400,27417,27417,27434,27451,27468,27485,27485,27502,27519,27537,27554,27554,27572,27572,27590,27607,27607,27624,27624,27642,27642,27660,27682,27682,27699,27699,27699,27716,27716,27733,27733,27749,27749,27783,27783,27800,27801,27801,27818,27835,27835,27835,27852,27873,27873,27889,27889,27908,27908,27925,27925,27925,27941,27941,27958,27958,27986,27987,27987,28001" d="M95.5,169.72507C95.5,168.02507 95.5,167.12506 95.5,166.22507C95.5,165.32507 95.5,164.42506 95.5,163.52373C95.5,162.5584 95.5,161.72507 95.5,160.74657C95.5,159.92641 95.49758,159.10519 95.92533,158.32507C96.37654,157.50217 96.78971,156.66817 97.14733,156.02507C97.62176,155.17195 98.11804,154.41472 98.41467,153.52507C98.70068,152.66727 98.53862,151.82155 98.85717,151.0724C99.16109,150.35767 99.92954,149.56145 100.33334,148.72507C100.67606,148.01517 100.81506,147.0497 101.2045,146.37773C101.74374,145.44728 102.41216,145.01743 102.97916,144.20424C103.49091,143.47031 103.31438,142.60713 103.943,141.7464C104.41119,141.10533 105.12991,140.8756 105.89867,140.24107C106.69373,139.58484 107.33334,138.89174 107.864,138.36107C108.59983,137.62523 109.18622,137.11189 109.72166,136.28223C110.18558,135.5634 110.63689,134.85249 111.32533,134.36107C111.98952,133.88695 112.84163,133.27878 113.66666,132.72507C114.30198,132.29869 115.03491,132.06784 115.97916,131.72507C116.82449,131.41821 117.36549,130.8916 118.15717,130.42506C118.88744,129.99471 119.9232,129.56473 120.47916,129.20424C121.37766,128.62164 121.82327,127.8587 122.384,127.20907C122.93783,126.56744 123.68695,126.08799 124.7,125.8464C125.48708,125.65869 126.5,125.5584 127.28934,125.29974L128.01466,125.00906L128.97917,124.72507" id="svg_7" stroke-width="3" stroke="#000" fill="none"/>
  <path t="29471,29820,29860,29893,29911,29933,29996,30054,30092,30140,30180,30229,30229,30253,30318,30356,30468,30516,30541,30606,30644,30701,30734,30783,30801,30818,30839,30853,30873,30902,30926,30982,31029,31047,31065,31086,31157,31175,31207,31225,31269,31341,31374,31374,31413,31438" d="M107.5,148.72507C105.7,148.72507 104.89995,148.7155 104,148.72507C103.02067,148.73549 102.36165,149.17442 101.784,149.80907C101.19542,150.45572 100.49399,151.00645 100.5,151.92374C100.50527,152.72826 101.5,152.72507 102.3,152.72507C103.21467,152.72507 104.11068,152.73039 105,152.72507C105.88938,152.71973 106.48958,152.20442 106.5,151.33574C106.5116,150.36798 106.65002,149.51245 106.49983,148.62523C106.35582,147.77448 105.22251,147.52484 104.584,148.00906C103.90022,148.52762 103.36876,149.10089 102.85267,149.77774C102.35123,150.43538 102.5,151.42506 102.5,152.28906C102.5,153.16107 102.24919,154.16222 102.5045,155.02057C102.73134,155.78322 103.7955,155.72516 104.7215,155.72507C105.59983,155.72498 106.31512,155.3623 106.85267,154.77774C107.38809,154.1955 107.85267,153.42506 108.33334,152.72507L108.49866,151.92506L108.5,151.02507L108.5,150.08223" id="svg_8" stroke-width="3" stroke="#000" fill="none"/>
  <path t="36088,36353,36353,36353,36373,36373,36373,36390,36390,36405,36405,36518,36552,36552,36573,36590,36590,36606,36622,36623,36640,36656,36656,36673,36673,36690,36708,36727,36727,36760,36791,36792,36809,36826,36826,36844,36861,36887,36919,36939,36957,36957,36957,36973,36974,36974,36974,36990,36990,36990,37007,37023,37024,37055,37055,37087,37111,37198,37223,37247,37265,37283,37301,37318,37343,37462,37505,37525,37542,37543,37559,37560,37576,37576" d="M90.5,141.72507C90.5,143.7439 90.50005,144.5824 90.5,145.21307C90.49992,146.24606 90.51462,147.33044 90.464,148.02774C90.37679,149.22902 89.95704,149.96126 89.66666,150.72507C89.37637,151.48866 89.5477,152.61945 90.5,152.72507C91.19804,152.80249 92.00515,152.2095 92.7,151.52507C93.20376,151.02885 93.89999,150.32507 94.6,149.62506C95.1,149.12506 95.80718,148.43217 96.5,147.72507C97.00529,147.20937 97.56425,146.38078 98,145.7459C98.55592,144.93593 99.26527,144.45163 99.66666,143.72507C100.09354,142.95238 100.8,142.42506 101.5,141.72507C102.1,141.12506 102.84018,140.61928 103.33334,139.72507C103.69908,139.06189 104.27826,138.60136 105.1,138.15041C105.87997,137.72235 107.07107,137.47704 107.464,138.1824C107.89065,138.94832 107.5,139.99707 107.5,140.5464C107.5,141.72507 107.5,142.62506 107.5,143.22507C107.5,144.12506 107.5,145.3224 107.5,146.1834C107.5,146.95441 107.5,147.91524 107.5,148.89174C107.5,149.72507 107.5,150.70357 107.5,151.52373C107.5,152.42506 107.85429,153.40884 107.47916,154.20424C107.14651,154.90958 106,154.72507 105.1,154.72507C104.2,154.72507 103.3,154.72507 102.4,154.72507C101.5,154.72507 100.62167,154.72507 101.33334,154.72507C102.14667,154.72507 103.16438,154.6447 103.84734,154.78223C104.77734,154.9695 105.384,155.5264 106.31467,156.1144L106.93066,156.43973" id="svg_9" stroke-width="20" stroke="#fff" fill="none"/>
  <path t="42055,42405,42437,42456,42471,42493,42517,42534,42552,42571,42588,42605,42622,42668,42689,42740,42773,42813,42862,42885,42885,42909,42926,42949,42966,42984,43002,43021,43045,43045,43062,43080,43101,43133,43151,43186,43207,43223,43240,43257,43294,43312,43359,43382,43429,43429,43462,43501,43518,43536,43558,43590,43622,43622,43701,43845" d="M108.5,124.72507C106.8,124.78223 105.9764,125.18548 105.2045,125.6724C104.50207,126.1155 103.95107,126.67132 103.1,127.1504C102.37338,127.55943 101.67287,128.077 101.14733,128.67239C100.58407,129.31053 99.86889,129.5537 99,129.7459C98.15671,129.93243 97.82813,130.95406 97.27866,131.60373C96.7212,132.26288 96.59315,132.951 96.5,133.89174C96.41626,134.73743 95.85267,135.42506 95.5,136.22507C95.14733,137.02507 94.64987,137.82936 94.5,138.72507C94.35975,139.56325 93.64137,139.94954 93.49983,140.82507C93.35377,141.72861 92.74473,142.26408 92.52084,143.22507C92.31892,144.09174 92.08547,144.80914 91.44733,145.37241C90.85194,145.89793 90.18884,146.48863 89.55267,147.07773C88.97708,147.61072 88.38813,148.20445 87.85267,148.77774C87.21267,149.46297 86.36191,149.403 85.66666,149.89174C84.95076,150.395 84.37597,150.91814 83.8,151.42957C83.06773,152.07977 82.29204,152.5838 81.5,152.72507C80.60796,152.88417 80.20596,153.57358 79.3,153.72639C78.38641,153.88049 77.8,154.37241 76.9,154.7144L76,154.72507" id="svg_10" stroke-width="3" stroke="#000" fill="none"/>
  <path t="44729,44967,44984,45007,45025,45044,45061,45078,45078,45095,45111,45128,45145,45165,45165,45179,45199,45217,45239,45240,45257,45275,45295,45312,45328,45345,45362,45379,45400,45440,45458,45475,45495,45544,45563,45584,45618,45647,45648,45672,45690,45707,45725,45742,45758,45816,45840,45887,45920,45952,45952" d="M96.5,161.72507C96.5,160.02507 96.5,159.12506 96.5,158.22507C96.5,157.32507 96.39304,156.41853 96.50134,155.52507C96.61282,154.60529 97.17848,153.90953 97.52533,153.12506C97.88702,152.30704 98.37507,151.52043 98.50017,150.62506C98.62682,149.7186 99.26117,149.18739 99.47916,148.22507C99.67805,147.34708 99.36834,146.375 99.72134,145.62506C100.08638,144.84953 100.58633,144.02379 101.35067,143.7504C102.23514,143.43404 102.17764,142.57127 102.72134,141.84641C103.20364,141.20338 103.33719,140.42442 103.85267,139.77774C104.33638,139.17091 104.47674,138.35017 105,137.72507C105.49976,137.12804 106.04284,136.49947 106.72134,135.84641C107.3008,135.28867 107.96692,134.81723 108.509,134.37241C109.12251,133.86897 109.90624,134.04034 110.85333,133.7144C111.62013,133.4505 112.11066,132.73573 113,132.72507C113.88934,132.7144 114.36332,131.95412 114.936,131.72507C115.82116,131.37103 116.78533,131.72507 117.7,131.72374L118.5,131.5584L119.2,131.07773" id="svg_11" stroke-width="3" stroke="#000" fill="none"/>
  <path t="47083,47227,47245,47263,47280,47280,47300,47300,47317,47317,47333,47333,47333,47351,47351,47367,47367,47367,47383,47383,47401,47401,47417,47417,47696,47696,47714,47714,47731,47731,47750,47751,47751,47768,47768,47785,47785,47785,47802,47803,47818,47818,47835,47851,47852,47852,47869,47887,47887,47904,47904,47920,47938,47938,47956,47974,47974,47992,48008,48026,48026,48044,48062,48062,48080,48097,48115,48135,48152,48152,48173,48186,48203,48203,48221,48221,48236,48253,48269,48270,48286,48303,48330,48354,48539,48556,48556,48573,48574,48591,48591,48608,48608,48608,48608,48625,48625,48625,48643,48643,48643,48660,48660,48660,48660,48677,48678,48678,48695,48695,48695,48695,48712,48713,48713,48729,48729,48729,48729,48747,48747,48764,48764,48782,48799,48799,48817,48833,48853,48870,48887,48887,48904,48922,48937,48954,48972,48988,49005,49021,49021,49038,49055,49056,49073,49091,49109,49109,49126,49143,49143,49161,49179,49195,49213,49230,49230,49251,49271,49288,49315,49315,49332,49363,49396,49396,49413,49475,49539,49556,49573,49596,49613,49636,49668,49707" d="M94.5,171.72507C92.7,171.72507 91.9,171.72443 90.97916,171.72507C90.016,171.72574 89.26089,171.59517 88.25267,172.08223C87.55367,172.41991 86.84788,173.03464 86.0955,173.42506C85.30517,173.83519 84.5,174.22507 83.9,174.52507C82.9,175.02507 82.09369,175.4127 81.30016,175.82524C80.5144,176.23375 79.93257,176.56328 79.25267,177.37773C78.70216,178.03719 78.02449,178.85234 77.32533,179.31441C76.53072,179.83957 75.89655,180.35703 75.17867,180.82507C74.51876,181.25533 73.63768,181.68971 73.02084,182.22507C72.26056,182.8849 71.74921,183.48868 71.01466,184.20906C70.48373,184.72977 69.90708,185.2524 69.10133,185.84241C68.34376,186.39716 67.62861,187.03664 67.25716,187.73041C66.86978,188.45395 66.57229,189.44231 66,190.1834C65.46306,190.87869 64.82915,191.45593 64.1955,192.02507C63.36929,192.76717 62.65863,193.09857 61.984,193.52507C61.23832,193.99649 60.49967,194.72473 59.9,195.32507C59.30101,195.92473 58.76674,196.51839 58.47467,197.36107C58.12489,198.37022 57.84653,199.07037 57.55267,199.9679C57.27264,200.82318 56.72516,201.36256 56.11067,202.12506C55.50965,202.87082 55.37347,203.75696 54.88933,204.32507C54.25416,205.07042 53.58457,205.81973 53.50134,206.52507C53.39565,207.42075 52.81446,208.14763 52.55717,209.02507C52.30339,209.89052 52.21029,210.78197 51.85266,211.42506C51.37824,212.27818 50.95813,213.08362 50.66667,213.89174C50.37835,214.69116 50.24569,215.68564 49.92533,216.31441C49.47298,217.20227 49.51986,218.13594 49.49983,219.04623C49.48184,219.86432 48.82787,220.50334 48.52083,221.2459C48.1848,222.05858 48.15501,223.30029 48.78533,223.72507C49.46105,224.18044 50.38667,223.76593 51.336,223.7144C52.10384,223.67271 53.11727,223.39015 53.736,223.0784C54.68806,222.59868 55.45853,222.07658 56,221.70424C56.82515,221.13681 57.58128,220.52846 58.264,219.93573C58.8981,219.38521 59.69115,218.73215 60.31067,218.3504C60.94824,217.95752 61.92896,217.4153 62.72533,216.88907C63.2801,216.52249 63.85894,216.17442 64.81333,215.3224C65.49064,214.71774 65.91356,214.25023 66.47867,213.0824C66.79013,212.43875 66.98141,211.71802 67.25267,211.0304C67.64037,210.04761 68.12602,209.21333 68.71066,208.5464C69.46158,207.68979 69.91085,207.33662 70.47916,206.72507C71.02662,206.13596 71.73615,205.12543 72.08933,204.56107C72.68874,203.60326 73.19888,203.02846 73.9,202.32507C74.49904,201.72411 75.15735,201.25626 75.88934,200.7504C76.56332,200.28462 77.02178,199.37883 77.37867,198.62506C77.78304,197.771 78.20741,197.31564 78.97916,196.72507C79.6298,196.22717 79.91645,195.30624 80.69867,194.80907C81.43012,194.34415 82.02638,193.91534 82.69867,193.43973C83.47894,192.88771 83.51196,191.87459 84.02084,191.22507C84.62176,190.45807 85.43085,190.23605 86.14283,189.67239C86.86043,189.10429 87.37276,188.34323 88.01733,187.92506C88.75652,187.44551 89.58748,186.79665 90.064,186.12506C90.57889,185.39941 91.07377,184.78146 91.52533,184.1144C92.02411,183.37758 92.60113,182.62619 93.2,182.02507C93.79663,181.42619 94.10192,180.42969 94.7215,179.84641C95.32588,179.27742 96.14367,179.02095 96.5,178.22507C96.85801,177.42545 97.594,176.80122 98.064,176.12506C98.62411,175.31926 99.29083,174.79289 99.4955,174.02057C99.71581,173.18919 98.79551,172.72733 97.9,172.72507C97,172.72281 96.1,172.72507 95.2,172.72507L94.3,172.72507" id="svg_12" stroke-width="3" stroke="#000" fill="none"/>
  <path t="51456,51813,51834,51869,51917,51942,52093,52149,52174,52198,52254,52272,52290,52333,52366,52405,52541,52709,52759,52805,52806,52886" d="M71.5,168.72507C73.3,168.72507 74.12902,168.65955 74.584,167.92374C75.00811,167.23785 76.15302,166.93896 76.47916,166.20424C76.83156,165.41039 75.97935,164.73549 75.11066,164.72507C74.21473,164.71432 73.20211,164.88441 72.55267,164.37241C71.93806,163.88786 71.11066,163.7144 70.5,163.22507C69.88934,162.73573 68.972,162.72507 69.6,162.72507L70.5,162.72507L71.3,162.72507L72.2,162.72507" id="svg_13" stroke-width="3" stroke="#000" fill="none"/>
  <path t="54714,55111,55144,55144,55192,55248,55440,55488,55568,55585,55632,55752,55769,55793,55810,55833,55865,55904,55937,55937,56032,56104,56152,56169,56193,56218,56256,56377,56441,56505" d="M106.5,147.72507C104.66666,147.89174 104.5,148.72507 104.5,149.52507C104.5,150.42506 104.14571,151.40884 104.52084,152.20424C104.85349,152.90958 106.05775,153.02983 106.88934,152.7144C107.61849,152.43782 107.83967,151.26103 107.48933,150.33574C107.2132,149.6064 106.1,149.72507 105.2,149.72507C104.3,149.72507 103.4,149.72507 102.5,149.72507C101.7,149.72507 100.61107,149.76399 100.50134,150.5264C100.37067,151.43423 101.38667,151.7244 102.31467,151.72507C103.16666,151.72568 104.02084,151.72507 104.9,151.72507L105.88934,151.7144L106.47916,151.20424" id="svg_14" stroke-width="3" stroke="#000" fill="none"/>
  <path t="57598,57758,57775,57775,57793,57810,57827,57827,57846,57864,57880,57881,57898,57914,57931,57951,57969,57988,57988,58022,58052,58070,58088,58108,58126,58148,58195,58229,58248,58265,58283,58283,58283,58300,58300,58300,58316,58332,58333,58333,58350,58365,58365,58365,58384,58384,58399,58399,58416,58416,58435,58435,58453,58453,58453,58470,58470,58488,58488,58506,58523,58523,58550,58550,58589,58606,58624,58642,58659,58693,58718,58797,58853,58893,58918,58942,58960,58997,59117,59197,59197,59213,59270,59306,59324,59341,59341,59357,59357,59375,59375,59393,59411,59411,59428,59428,59444,59463,59480,59496,59519,59535,59535,59552,59575,59592,59615,59631,59650,59670,59688,59711,59743,59806,59870,59903,59937,59952,59952,59970,59987,60004,60022,60036,60036,60055,60072,60072,60089,60108,60125,60126,60142,60142,60161,60176,60195,60195,60213,60229,60248,60271,60272,60287,60320,60320,60352,60352,60384,60416,60416" d="M102.5,180.72507C104.32533,180.72507 105.33334,180.72507 106.1955,180.72507C107.1,180.72507 108.02084,180.72507 108.82133,180.72507C109.67467,180.72507 110.61467,180.72507 111.6,180.72507C112.5,180.72507 113.3,180.72507 114.2,180.72507C115.1,180.72507 116.01299,180.58298 116.9,180.73573C117.73314,180.87921 118.62116,181.33859 119.21467,181.80907C119.95322,182.39452 120.2893,183.10728 120.50134,183.92374C120.70921,184.72418 121.15575,185.22838 121.51067,186.1144C121.80066,186.83833 122.9,186.72574 123.8,186.72507C124.69867,186.7244 125.42548,186.35368 125.66666,185.39174C125.8373,184.7112 126.11767,183.94942 126.33334,182.89174C126.47602,182.19199 126.41934,181.32713 126.936,180.3504C127.39063,179.49094 127.93792,178.92059 128.21466,178.20906C128.58821,177.24863 128.92627,176.3895 129.36133,175.89973C129.99394,175.18758 130.77963,174.50844 131.1955,173.9724C131.86235,173.11284 132.19675,172.31892 132.60001,171.52524C132.99681,170.74426 133.5,169.89174 134,169.22507C134.5,168.5584 134.90599,167.89217 135.3,167.12373C135.80775,166.1335 136.03146,165.51419 136.7,164.6104C137.15576,163.99425 137.89999,163.32507 138.5,162.72507C139.10001,162.12506 139.80379,161.42882 140.3,160.92506C140.98444,160.23021 141.39072,159.38597 141.92534,158.7504C142.47154,158.10106 142.989,157.53973 143.66667,156.89174C144.29784,156.28822 144.93037,156.07721 145.41467,155.43973C145.97038,154.70825 145.41132,153.62068 145.5,152.72507C145.58374,151.87936 146.45728,151.44307 146.5,150.62506C146.54694,149.72629 146.01527,148.73077 146.58533,148.01041C147.16069,147.28333 147.94911,147.17885 148.41467,146.4384C148.88528,145.68993 148.37778,144.68446 148.72133,143.7464C148.97475,143.05444 149.45287,142.2438 149.4955,141.37773C149.53954,140.48331 149.42511,139.50998 149.58533,138.83974C149.81772,137.86752 150.33522,137.23393 150.47917,136.2459C150.61195,135.33446 150.5,134.42506 150.5,133.52507C150.5,132.62506 150.5,131.72507 150.5,130.92506C150.5,130.02507 150.5,129.12506 150.5,128.22507C150.5,127.32507 150.5,126.42506 150.5,125.52507C150.5,124.62524 150.5,123.69974 150.5,122.92374C150.5,122.02507 150.29681,121.25105 149.66667,120.5584C149.12106,119.95866 148.39999,119.72507 147.5,119.72507C146.7,119.72507 145.77351,119.54132 144.89999,119.76107C144.03719,119.97813 143.24385,120.50505 142.5,120.89173C141.71675,121.29889 141.21074,122.03597 140.5,122.72507C139.90878,123.29828 138.98785,123.58771 138.5,124.2459C137.98849,124.93602 137.61273,125.52415 136.68533,126.12507C136.06894,126.52446 135.45253,127.24999 134.7955,127.8349C134.16647,128.39488 133.64819,129.09837 133.02083,129.70424C132.42024,130.28423 132.07318,131.13388 131.39999,131.82507C130.80797,132.43292 130.2,133.02507 129.5,133.72507C129,134.22507 128.3,134.92506 127.7,135.52507L127.1,136.12506L126.4,136.82491L125.8,137.3679" id="svg_15" stroke-width="3" stroke="#000" fill="none"/>
  <path t="62909,63082,63100,63117,63117,63135,63153,63153,63178,63199,63217,63217,63234,63252,63270,63287,63304,63304,63322,63339,63376,63395,63432,63449,63449,63466,63489,63506,63537,63569,63586,63604,63622,63639,63656,63656,63674,63691,63713,63713,63730,63747,63764,63781,63810,63880,63897,63914,63932,63932,63968,63984,64002,64034,64058,64082,64119,64137,64154,64155,64172,64172,64187,64204,64222,64258,64291,64317,64332,64332,64347,64348,64366,64366,64383,64383,64400,64400,64418,64498,64499,64516,64551,64568,64568,64585,64601,64619,64619,64638,64660,64684,64718,64734,64734,64753,64753,64753,64770,64770,64787,64787,64813,64867,64884,64901,64901,64916,64916,64934,64935,64935,64950,64950,64950,64968,64968,65059,65077,65112,65147,65147,65219,65283,65331,65387" d="M208.5,215.72507C208.5,214.02507 208.52672,213.08861 208.49867,212.24107C208.47006,211.3764 208.18436,210.44493 207.5,209.72507C206.93263,209.12825 206.11124,208.74307 205.24533,208.72507C204.44217,208.70837 203.558,208.72507 202.54167,208.72507C201.69867,208.72507 200.8,208.72507 199.97917,208.72507C199.01601,208.72507 198.15266,208.72507 197.25717,208.72507C196.3,208.72507 195.39561,208.81375 194.5,208.72507C193.6543,208.64133 193.5,207.72507 193.5,206.92506C193.5,206.02507 193.5,205.12506 193.5,204.22507C193.5,203.32507 193.42914,202.37662 193.92534,201.7504C194.4523,201.08534 195.25893,200.75777 195.89999,200.28906C196.67877,199.71968 197.21443,199.11456 198.10001,198.69974C198.91434,198.31828 199.42168,197.62794 200.10001,197.16107C200.9238,196.5941 201.75887,196.30377 202.59984,195.84641C203.34732,195.4399 204.36424,195.13609 204.45334,194.29973C204.53058,193.57475 202.86905,193.76775 202.55267,193.01973C202.26465,192.33873 201.58374,191.57077 201.5,190.72507C201.41342,189.85068 201.13882,188.92415 201.536,188.16107C201.93123,187.40172 202.89754,187.05548 203.416,186.43973C203.97647,185.77411 204.26321,184.99812 204.44284,184.0724C204.60764,183.2231 204.5,182.2459 204.5,181.32507C204.5,180.42506 204.5,179.52507 204.5,178.62506C204.5,177.72507 204.69936,176.95436 205.38667,176.55574C206.19765,176.0854 206.66936,175.53432 207.47867,174.74657C207.99663,174.2424 208.82291,173.62772 209.5,173.22507C210.33528,172.72833 210.93883,172.16675 211.8,171.77774C212.57056,171.42967 213.74287,170.89796 213.43834,170.08223C213.11214,169.20847 212.28545,168.75497 211.92534,168.12506C211.4313,167.26086 210.97282,166.51561 210.62151,165.62506C210.36087,164.96437 210.5,164.02507 210.5,163.12506C210.5,162.16107 210.87015,161.38063 211.5,160.72507C212.01073,160.1935 212.52596,159.40257 212.7955,158.71973C213.18048,157.74445 213.32231,156.85503 213.55267,155.9769C213.79448,155.05515 214.2655,154.4084 214.44284,153.48224C214.62317,152.54048 214.31346,151.56943 214.66667,150.72507C214.966,150.00951 215.56532,149.38084 216.02083,148.72507C216.62228,147.85916 217.3425,147.35999 217.9045,146.9724C218.70937,146.41731 219.48373,145.72977 220.01466,145.20906C220.74919,144.48868 221.72974,144.16568 221.95833,143.2459C222.11024,142.63467 221.27046,142.01877 220.5,141.5584C219.7805,141.12848 219.52083,140.22507 219.5,139.32507L219.5,138.42506L219.5,137.52507" id="svg_16" stroke-width="3" stroke="#000" fill="none"/>
  <path t="66598,66807,66825,66825,66842,66843,66870,66958,66975,66975,66993,66993,67011,67011,67011,67028,67046,67101,67118,67118,67136,67153,67153,67153,67171,67171,67190,67190,67190,67211,67329,67377,67457,67490,67514,67555,67657" d="M407.5,176.72507C407.5,174.89973 407.5,173.89174 407.5,173.09973C407.5,172.0724 407.29248,171.35609 407.5,170.37173C407.64581,169.68011 408.70267,169.72507 409.47067,169.72507C410.50983,169.72507 411.28534,169.72507 412.33334,169.72507C413.03833,169.72507 413.83835,169.72507 414.86401,169.72507C415.79999,169.72507 416.93997,169.96312 417.37851,169.28223C417.785,168.65108 417.59006,167.45593 417.33334,166.5584C417.13492,165.86473 416.69891,165.12361 416.29999,164.32507C415.90024,163.52495 415.38983,162.5302 415.11066,161.93573C414.77274,161.21619 414.14621,160.05307 414.52084,159.2459C414.84915,158.53854 415.97916,158.70424 416.48932,158.1144L416.5,157.16107L416.5,156.28906L416.5,155.42506" id="svg_17" stroke-width="3" stroke="#000" fill="none"/>
  <path t="68774,69076,69115,69243,69277,69296,69316,69363,69515,69563,69619,69667,69731,69731,69787,69813" d="M394.5,203.72507C394.5,201.89174 393.56635,200.42032 394.5,200.1394C395.112,199.95526 395.5538,201.17168 396.07468,201.7504C396.64877,202.38826 397.31766,202.49297 397.50015,201.62523C397.66675,200.83305 398.60001,200.72507 399.5,200.72507L400.29999,200.72507L401.21466,200.63974L401.49866,199.92374" id="svg_18" stroke-width="3" stroke="#000" fill="none"/>
  <path t="73459,73848,74056,74144,74200,74217,74272,74432,74513,74529,74554,74729,74762" d="M96.5,272.72507C97.7215,273.60358 99.05984,274.22681 99.41333,273.44107C99.70553,272.79156 97.92936,272.46942 97.536,273.16107C97.11081,273.90869 97.92533,274.67841 98.48933,274.11441L98.5,273.24591L98.5,273.16107L98.5,274.12506" id="svg_19" stroke-width="3" stroke="#000" fill="none"/>
  <path t="75884,76322,76323,76410,76431,76447,76464,76481,76515,76571,76611,76631,76652,76694,76712,76740,76740,76875" d="M92.5,271.72507C93.5,272.72507 94.47954,273.19064 95.21467,272.63974C95.83107,272.17783 95.5,271.02505 95.5,270.12506C95.5,269.22507 95.6845,268.07855 94.97916,267.74591C94.18377,267.37079 93.06963,267.69012 92.52084,268.22507C92.03524,268.69843 91.52084,269.26672 91.5,270.20908L91.5,270.89972L91.5045,271.96341" id="svg_20" stroke-width="3" stroke="#000" fill="none"/>
  <path t="79945,80192,80210,80210,80227,80245,80245,80263,80263,80280,80297,80314,80315,80332,80349,80367,80367,80384,80384,80401,80402,80419,80437,80454,80454,80472,80495,80519,80536,80554,80571,80572,80592,80814,80847,80864,80934,81006,81040,81088,81088" d="M164.5,245.72507C166.10001,246.33574 166.7417,247.12543 167.38533,247.43973C168.25511,247.86447 169.22928,248.03325 169.47917,248.7459C169.806,249.67795 170.20328,250.3661 171,250.72507C171.79878,251.08495 172.59399,251.64891 173.064,252.32507C173.6241,253.13087 174.11781,253.64388 174.7,254.2944C175.31926,254.98637 175.79288,255.78481 176.14284,256.47772C176.57118,257.32584 176.5222,258.26862 176.92534,259.08908C177.35281,259.95908 177.74213,260.67883 178.14734,261.42508C178.56062,262.18619 178.5,263.12506 178.5,264.02505C178.5,264.92508 178.5,265.82507 178.5,266.72507C178.5,267.52505 178.30777,268.46854 178.536,269.33572C178.7588,270.18231 179.98941,270.34546 180.44284,271.08224C180.8856,271.8017 180.5,272.82507 180.5,273.72507L180.5,274.52505" id="svg_21" stroke-width="3" stroke="#000" fill="none"/>
  <path t="81649,81719,81736,81755,81755,81772,81791,81807,81825,81843,81843,81861,81879,81879,81896,81896,81911,81911,81928,81929,81929,81946,81946,81968,82047,82063,82080,82097,82114,82136,82153,82170,82188,82208,82208,82231,82276,82300,82317,82348,82386,82450,82578,82578" d="M198.5,272.72507C198.5,271.83841 198.5,270.89972 198.5,269.89172C198.5,269.13574 198.5,268.22507 198.5,267.32507C198.5,266.42508 198.5,265.52505 198.5,264.62491C198.5,263.83972 198.5,262.89972 198.5,261.89172C198.5,261.09973 198.5,260.23975 198.5,259.32056C198.5,258.32373 198.5,257.70422 198.5,256.55841C198.5,255.7769 198.5,254.9864 198.5,253.86807C198.5,253.14641 198.49771,252.16107 198.5,251.28906C198.50226,250.42955 199.18295,249.90732 199.48933,249.1144C199.80989,248.28479 199.5,247.32507 199.5,246.42506C199.5,245.52507 199.5,244.62506 199.5,243.72507C199.5,242.92506 199.5,242.01041 199.5,241.1144C199.5,240.22507 199.5,239.32507 199.5,238.42506C199.5,237.52507 199.5,236.62506 199.5,235.72507L199.5,234.92506" id="svg_22" stroke-width="3" stroke="#000" fill="none"/>
  <path t="86533,86781,86781,86799,86799,86799,86799,86799,86816,86816,86816,86834,86834,86834,86834,86850,86850,86868,86868,86886,86886,86904,86922,86922,86940,86960,86960,86977,86977,86995,87009,87009,87009,87029,87044,87044,87065,87065,87076,87096,87096,87111,87111,87128,87128,87145,87145,87165,87165,87181,87181,87181,87197,87197,87216,87216,87217,87230,87230,87230,87247,87248,87266,87266,87283,87283,87300,87300,87318,87318,87318,87335,87335,87335,87353,87353,87370,87370,87387,87387,87404,87404,87421,87440,87440,87460" d="M189.5,221.72507C191.368,221.72507 192.076,221.72507 193.36417,221.72507C194.16251,221.72507 194.58667,221.72507 195.46001,221.72507C196.33333,221.72507 197.55701,221.72507 198.28566,221.72507C199.27867,221.72507 200.5,221.72507 201.09866,221.72507C201.97917,221.72507 202.81467,221.72507 203.81467,221.72507C204.68933,221.72507 205.70447,221.65857 206.47917,221.7459C207.492,221.86008 208.0293,222.48476 209.02083,222.70424C209.80267,222.87732 210.67467,222.72507 211.616,222.72507C212.66667,222.72507 213.32533,222.72507 214.33333,222.72507C215.1955,222.72507 216.04167,222.72507 217.04266,222.72507C217.75067,222.72507 218.49466,222.72507 219.69017,222.72507C220.66667,222.72507 221.32533,222.72507 222.33333,222.72507C223.1955,222.72507 224.02135,222.75549 224.98399,222.72374C225.84866,222.69521 226.70654,222.28908 227.384,222.00906C228.2957,221.63223 229.11446,221.68579 230.10001,221.37241C230.91246,221.11407 231.70091,220.85225 232.5,220.72507C233.50119,220.56572 234.28387,220.25075 235.10001,220.00906C236.08417,219.71762 236.91797,219.73938 237.90134,219.43973C238.53529,219.24655 239.17995,218.90997 240.18401,218.52507C240.9958,218.21388 241.82208,217.93996 242.81334,217.5264C243.46246,217.25558 244.48824,216.88452 245.25267,216.67239C246.17091,216.41757 246.88937,216.01363 247.89999,215.80907C248.69139,215.64888 249.51035,215.58775 250.31067,215.28906C250.96652,215.0443 251.91483,214.60648 252.72533,214.33574C253.54123,214.0632 254.5746,213.80534 255.45833,213.7459C256.47659,213.6774 257.2533,213.75462 258.15717,213.72057C258.90582,213.69235 259.89587,213.43359 260.664,213.15041C261.6113,212.80115 262.5,212.72507 263.29999,212.72507L264.20001,212.72507" id="svg_23" stroke-width="20" stroke="#fff" fill="none"/>
  <path t="89585,89813,89835,89849,89869,89869,89886,89886,89903,89921,89939,89939,89961,89978,90014,90014,90032,90049,90065,90085,90099,90122,90146,90164,90182,90204,90204,90217,90240,90259,90277,90277,90294,90295,90312,90312,90329,90344,90371,90386,90404,90404,90422,90440,90440,90455,90473,90492,90510,90527,90528,90546,90563,90581,90598,90617,90617,90617,90632,90632,90659,90659,90690,90706,90726,90744,90760,90778,90793,90793,90812,90812,90829,90830,90841,90859,90859,90876,90893,90911,90935,90953,90968,90968,90986,91002,91002,91019,91019,91035,91036,91036,91052,91052,91052,91069,91069,91087,91103,91120,91138,91156,91173,91192,91209,91210,91232,91249,91250,91272,91327,91344,91361,91378,91396,91414,91414,91432" d="M188.5,225.72507C189.5,226.72507 189.80235,227.38623 190.41733,228.01041C190.9977,228.59946 191.49484,229.2711 192.33333,229.5584C193.17493,229.84676 193.96306,230.29872 194.8,230.67239C195.57216,231.01714 196.43825,231.20567 197.14284,231.77774C197.76129,232.27988 198.47217,232.93604 199.10001,233.29973C199.86986,233.7457 200.88933,233.73573 201.5,234.22507C202.11067,234.7144 203.01315,234.58209 203.89999,234.73573C204.73218,234.87991 205.03203,235.92375 205.66667,236.5584C206.30132,237.19304 207.0959,237.30852 208,237.72507C208.79198,238.08997 209.04222,238.99397 209.83333,239.5584C210.40544,239.96658 211.47867,239.72507 212.25267,239.72507C213.15266,239.72507 214.01601,239.72507 214.97917,239.72507C215.89999,239.72507 216.8,239.72507 217.7,239.72507C218.60017,239.72507 219.38533,239.72507 220.32533,239.72507C221.33333,239.72507 222.08934,239.72507 223,239.72507C223.89999,239.72507 224.80653,239.83203 225.7,239.72374C226.61978,239.61226 227.15408,238.91519 228.10001,238.73573C228.98428,238.56796 229.91536,238.88234 230.8045,238.71606C231.70996,238.54674 232.33185,237.87059 232.84734,237.37323C233.62599,236.62195 234.22168,235.97188 235.15266,235.78223C235.83531,235.64317 236.90021,235.9778 237.7955,235.72057C238.56342,235.49992 239.05086,234.78503 239.8,234.37241C240.6386,233.91052 241.32439,233.38968 241.52533,232.53973C241.71332,231.74455 242.24614,231.00662 242.98267,230.52507C243.62575,230.1046 244.34712,229.40555 244.66667,228.5584C244.97948,227.7291 245.83066,227.23146 246.33333,226.5584C246.84444,225.87402 247.0919,225.11101 247.89999,224.7504C248.6837,224.40067 249.25725,223.87674 250.02083,223.22507C250.78178,222.57562 251.53224,222.27525 252.33333,221.72507C253.0307,221.24612 253.66072,220.55231 254.15717,220.0724C254.70418,219.54361 255.68755,218.72646 256.29999,218.36107C256.88867,218.00986 257.94205,217.59764 258.62799,217.12506C259.38815,216.60135 259.86212,215.78864 260.5,215.22507C261.0835,214.70955 261.60025,214.03912 262.30133,213.64107C263.01788,213.23424 263.70001,212.52505 264.29999,211.92506C264.89999,211.32506 265.51373,210.51105 266.20001,210.08223C266.98944,209.58896 267.936,209.72507 268.89999,209.72507C269.79999,209.72507 270.70001,209.72507 271.60001,209.7249L272.5,209.5584L273.10001,209.15041L273.89999,208.76106" id="svg_24" stroke-width="3" stroke="#000" fill="none"/>
  <path t="128885,129091,129114,129153,129186,129206,129206,129222,129222,129239,129239,129255,129256,129256,129256,129271,129271,129271,129293,129293,129293,129306,129306,129369,129403,129422,129439,129439,129439,129455,129455,129537,129556,129573,129573,129589,129589,129589,129606,129623,129657,129673,129690,129707,129707,129707,129724,129841,129841,129857,129874,129874,129891,129891,129891,129908,129908,129908,129925,129926,129943,130025,130041,130041,130058,130075,130075,130075,130093,130093,130111,130128,130128,130128" d="M210.5,216.72507C209.07466,217.16107 208.39116,217.92764 208.50017,218.82491C208.60443,219.68314 209.55159,220.03287 210.25717,220.37241C211.11201,220.78377 211.92357,220.70743 212.90134,221.01041C213.75702,221.27556 214.66345,221.73369 215.45717,222.02507C216.01862,222.23119 216.90337,222.51906 217.79984,222.82524C218.69139,223.12976 219.56909,223.4351 220.33333,223.89174C221.06621,224.32964 221.55643,225.02055 222.4785,225.48207C223.24277,225.86459 224.24344,225.91719 225.11067,225.68907C225.98033,225.46031 226.66667,224.5584 227.15266,224.0724C227.67467,223.5504 228.56592,222.8185 229.05333,222.13573C229.57866,221.39984 230.06071,220.69821 230.8215,220.94656C231.54465,221.18263 232.49301,221.73958 233.28934,222.1144C234.00859,222.45294 235.03543,222.41913 235.88933,222.73573C236.62306,223.00778 237.15076,223.75177 237.91066,223.28906C238.71628,222.79852 239.34421,222.35602 240.01601,221.92506C240.89037,221.36418 241.42586,220.63396 242.10001,220.16107C242.84398,219.63922 243.82932,219.52119 244.52083,219.20424C245.51183,218.75003 246.12341,218.45964 246.89999,217.9679C247.72696,217.44423 248.26073,216.85611 248.89999,216.43491C249.8477,215.81047 250.66382,215.73573 251.61467,215.72507C252.59995,215.71402 253.53755,215.89653 254.3,215.63974C255.09811,215.37093 255.81316,214.61011 256.52084,214.22507C257.09482,213.9128 258.07724,213.38725 258.84283,213.08223C259.7334,212.72742 260.83334,212.5584 261.50534,212.3679L262.24933,212.1144" id="svg_25" stroke-width="3" stroke="#000" fill="none"/>
  <path t="138892,139005,139022,139022,139022,139022,139039,139039,139039,139039,139039,139057,139057,139057,139057,139057,139074,139074,139074,139074,139092,139092,139092,139130,139173,139174,139191,139208,139208,139226,139244,139244,139261,139261,139261,139278,139279,139296,139314,139333,139356,139388,139405,139405,139422,139443,139515,139540,139557,139557,139574,139591,139591,139609,139609,139609,139626,139626,139644,139644,139644,139668,139668,139708,139732,139752,139769,139769,139784,139801,139801,139834,139869,139900,139919,139919,139935,139935,139935,139952,139952,139968,139987,139987,140003,140045,140062,140062,140079,140079,140097,140097,140097,140114,140114,140115,140132,140133,140133,140133,140152,140152,140152" d="M144.5,286.72507C146.04167,285.20422 146.82568,284.54755 147.51883,284.0679C148.0567,283.69571 148.65764,283.306 149.66667,282.72507C150.37946,282.3147 151.13434,281.92184 151.91066,281.52505C152.69966,281.12177 153.4984,280.72183 154.3,280.32639C155.09842,279.9325 155.89244,279.5433 156.7,279.21039C157.88913,278.72018 158.29512,278.60336 159.07866,278.36105C160.18265,278.01962 161.17479,277.74646 161.97667,277.42957C162.61357,277.17789 163.58267,276.72574 164.5,276.72507C165.3,276.72449 166.136,276.72507 167.15266,276.72507C167.84734,276.72507 168.87466,276.72507 169.8215,276.72507C170.52083,276.72507 171.5,276.72507 172.3,276.72507C173.10001,276.72507 174.28934,276.72507 175.01466,276.72507C175.97917,276.72507 176.89999,276.72507 177.8,276.72507C178.7,276.72507 179.60001,276.72507 180.5,276.72507C181.3,276.72507 182.21738,276.69717 182.97917,276.22507C183.73994,275.7536 184.60001,275.72507 185.5,275.72507C186.3,275.72507 187.25717,275.72507 188.16167,275.72507C188.96167,275.72507 189.92133,275.72507 190.72533,275.72507C191.54733,275.72507 192.57851,275.72507 193.47917,275.72507C194.5,275.72507 195.3,275.72507 196.10001,275.72507C197.091,275.72507 197.78566,275.72592 198.85716,275.72507C199.69867,275.7244 200.30716,275.15137 201.06934,274.81039C201.78741,274.48914 202.91583,274.83942 203.7,274.44107C204.35918,274.10623 205.03641,273.57425 205.61433,273.07773C206.22974,272.54901 207.33333,272.72507 208.16133,272.72507C209.04283,272.72507 209.76134,272.72507 210.55183,272.72507C211.81334,272.72507 212.45833,272.72507 213.4785,272.72507C214.5,272.72507 215.3,272.72507 216.14284,272.72507C217.04167,272.72507 217.98534,272.72507 218.71066,272.72507C219.7,272.72507 220.5,272.72507 221.5,272.72507C222.31067,272.72507 223.18533,272.72507 224.18666,272.72507C225.04167,272.72507 225.66167,272.72507 227.02116,272.72507C227.74817,272.72507 228.47917,272.72507 229.19017,272.72507L230.457,272.72507L231.228,272.72507L232.09734,272.72507" id="svg_27" stroke-width="3" stroke="#000" fill="none"/>
  <path t="141812,141916,141916,141933,141933,141933,141933,141933,141933,141950,141950,141950,141950,141950,141950,141950,141950,141950,141968,141968,141968,141968,141968,141968,141968,141968,141968,141988,141988,141988,141988,141988,141988,141988,141988,141988,142006,142006,142006,142006,142006,142006,142006,142006,142006,142022,142022,142022,142022,142022,142022,142022,142022,142022,142038,142039,142039,142039,142039,142039,142039,142039,142039,142121,142121,142121,142121,142121,142121,142121,142121,142121,142146,142146,142146,142163,142200,142252,142282,142309,142324,142340,142356,142356,142373,142373,142373,142390,142390,142390,142407,142407,142407,142426,142426,142426,142442,142442,142442,142442,142459,142460,142460,142477,142494,142494,142512,142530,142554,142573,142590,142590,142607,142607,142607,142623,142623,142624,142640,142640,142657,142657" d="M335.5,246.72507C337.36801,247.16107 338.06848,247.45418 339,247.72507C339.75708,247.94522 340.66034,248.13028 341.16666,248.22507C342.29721,248.43674 342.92935,248.53456 344.33334,248.72507C345.10779,248.83015 345.9342,248.92786 346.81284,249.02057C347.74353,249.11877 348.72876,249.20921 349.76935,249.28906C350.86511,249.37314 352.01791,249.45686 354.5,249.5584C355.82834,249.61273 357.20926,249.64351 358.634,249.66791C360.0946,249.69293 361.58334,249.70627 363.09201,249.7144C364.61267,249.72261 366.13733,249.7244 369.16666,249.72507C370.65668,249.72539 372.12668,249.72507 373.57666,249.72507C375.00665,249.72507 376.41666,249.72507 377.80667,249.72507C379.17667,249.72507 380.52667,249.72507 383.16666,249.72507C384.45566,249.72507 385.71866,249.72507 386.94968,249.72507C388.14267,249.72507 389.29166,249.72507 390.39066,249.72507C391.43365,249.72507 392.41467,249.72507 394.16666,249.72507C394.92749,249.72507 395.61334,249.72507 396.22916,249.72507C396.78,249.72507 397.27084,249.72507 397.70667,249.72507C398.0925,249.72507 398.43332,249.72507 399,249.72507C399.2355,249.72507 399.444,249.72507 399.62851,249.72507C399.79199,249.72507 399.9375,249.72507 400.06799,249.72507C400.18649,249.72507 400.29599,249.72507 400.5,249.72507C400.60001,249.72507 400.70001,249.72507 400.79999,249.72507C400.89999,249.72507 401,249.72507 401.10001,249.72507C401.20001,249.72507 401.29999,249.72523 401.5,249.72507C401.59982,249.72498 402.21304,249.84367 402.48932,249.1144C402.82709,248.22285 402.93335,247.63234 403.52533,247.15041C404.14496,246.64598 405.10001,246.72507 406.02084,246.72507C406.98666,246.72507 407.74667,246.72507 408.66666,246.72507C409.45267,246.72507 410.27466,246.72507 411.33334,246.72507C412.27466,246.72507 412.95267,246.72507 413.92151,246.72507C414.73599,246.72507 415.60449,246.72507 416.79999,246.72507C417.39999,246.72507 418.29999,246.72507 419.5,246.72507C420.10001,246.72507 421,246.72507 421.89999,246.72507C422.79965,246.72507 423.67868,246.72507 424.48566,246.72507C425.52933,246.72507 426.5,246.72507 427.29999,246.72507C428.20001,246.72507 429.11966,246.8924 430,246.70424C430.84863,246.52286 431.46341,245.68376 432.13599,245.12506C432.78876,244.58281 433.53363,244.2072 434.18668,243.92506C435.17264,243.4991 435.99106,243.21236 436.81601,243.01041C437.80426,242.76848 438.65332,242.69974 439.61465,242.44107L440.29868,242.00906" id="svg_28" stroke-width="3" stroke="#000" fill="none"/>
 </g>
</svg>