<svg width="500" height="333.3333333333333" xmlns="http://www.w3.org/2000/svg" xmlns:svg="http://www.w3.org/2000/svg" xmlns:xlink="http://www.w3.org/1999/xlink">
 <!-- Created with SVG-edit - http://svg-edit.googlecode.com/ -->
 <g display="inline" class="layer">
  <title>Layer 1</title>
  <path t="0,246,247,286,319,327,374,398,399,599,607,615,639,654,655,664,664,686,710,895,910,911,943,943,975,1006,1029,1077,1077,1125,1125,1163,1230,1261,1301,1382,1439,1439,1510,1542,1543,1590,1591,1614,1630,1655,1694,1695,1726,1726,1742,1782,1878,2006,2206,2207,2230,2271,2286,2318,2390,2390,2407,2485,2493,2517,2533,2541,2557,2574,2613,2622,2653,2653,2669,2693,2710,2726,2750,2774,2783,2814,2830,2854,2894,2926,2950,2974,3014,3039,3055,3086,3093,3093,3117,3173,3173,3198,3238,3278,3334,3382,3406,3423,3430,3454,3501,3502,3517,3526,3534,3686,3695,3711,3719,3719,3734,3734,3734,3894,3926,3926,3943,3944,3966,3989,4053,4062,4079,4111,4111,4142,4223,4254,4254,4264,4286,4317,4333,4365,4382,4397,4422,4445,4470,4558,4591,4639,4655,4702,4703,4734,4846,4974,5087,5239,5311,5318,5351,5351,5390,5398,5542,5582,5654,5670,5718,5743,5822,5831,6046,6055,6087,6151,6158,6262,6263,6326,6334,6350,6438,6510,6518,6543,6663,6663,6679,6679,6734,6774,6806,6807,6814,6990,7006,7023,7023,7078,7094,7111,7142,7190,7191,7238,7239,7247,7263,7278,7454,7462,7463,7511,7519,7622,7623,7638,7655,7655,7710,7718,7719,7750,7822,7943,7958,7967,7976,7998,8009,8026,8031,8047,8101,8157,8157,8165,8165,8181,8229,8245,8253,8277,8277,8285,8341,8374,8374,8398,8399,8445,8486,8486,8493,8518,8620,8621,8629" d="M125.01137,112.25758C125.01137,113.96741 125.01137,114.77491 125.01137,115.62157C125.01137,116.55758 125.01137,117.45758 125.01137,118.35757C125.01137,119.25758 125.01137,120.05758 125.01137,120.95758C125.01137,121.85757 124.98557,122.77843 125.36403,123.56208C125.7933,124.45095 126.00095,125.25738 126.01137,126.09091C126.02214,126.95301 125.84702,127.87659 126.0322,128.75758C126.2112,129.60921 126.90681,130.41573 126.99053,131.25758C127.07302,132.08708 127.01137,132.97092 127.01137,133.86824C127.01137,134.75758 127.0304,135.66844 127.0112,136.5789C126.9932,137.43282 126.64435,138.32639 126.29536,139.05624C125.93014,139.82008 126.01363,140.75758 126.01137,141.65758C126.00912,142.55309 125.45063,143.10873 124.8127,143.8269C124.33707,144.36237 124.05408,145.36916 124.01137,146.25758C123.96885,147.14189 123.9112,148.10411 124.09669,148.77357C124.37389,149.77399 125.46495,150.02393 125.95869,150.61475C126.54133,151.31192 126.87183,152.10063 127.66403,152.55307C128.33846,152.93825 129.44937,153.13577 129.97537,153.68291C130.46051,154.18753 131.12317,154.69992 132.01137,155.09091C132.66901,155.38042 133.73445,155.40396 134.4007,154.82158C135.09795,154.2121 135.01137,153.17358 135.01137,152.25758C135.01137,151.45758 135.01137,150.55757 135.01137,149.65758C135.01137,148.75758 135.01137,147.85757 135.01137,146.95758C135.01137,146.05757 135.10005,145.1532 135.01137,144.25758C134.92763,143.41187 134.01363,143.20042 134.01137,142.25758C134.00946,141.45758 134.01137,140.55757 134.01137,139.65758C134.01137,138.75758 134.01137,137.85757 134.01137,136.95758C134.01137,136.05757 134.01137,135.15758 134.01137,134.25758C134.01137,133.37891 134.01137,132.55307 134.01137,131.65758C134.01137,130.75758 134.01137,129.85757 134.01137,128.95758C134.01137,128.05757 133.92268,127.1532 134.01137,126.25758C134.09511,125.41187 134.74704,124.89489 135.0367,124.10825C135.33919,123.28677 136.33246,123.10814 136.72737,122.45625C137.23756,121.61404 137.61858,120.77447 138.29669,120.34291C139.07059,119.8504 140.09982,120.34784 141.01137,120.25758C141.85706,120.17384 142.29335,119.3003 143.11136,119.25758C144.01015,119.21063 144.81137,119.25758 145.71136,119.25758C146.61136,119.25758 147.51137,119.25758 148.41136,119.25758C149.30687,119.25758 150.2981,119.24685 151.17802,119.25758C152.03238,119.268 153.01862,119.40244 153.60686,119.61024C154.53879,119.93948 155.42926,120.11412 156.21269,120.54291C156.96429,120.95428 157.72395,121.46915 158.30153,121.95758C159.09572,122.6292 159.62219,123.17747 160.36853,123.61024C161.15582,124.06676 161.76027,124.54152 162.23286,125.35757C162.61888,126.02412 163.34602,126.75716 164.11136,127.13625C164.95815,127.55567 165.76682,127.80195 165.99052,128.75758C166.19571,129.63412 166.01137,130.55757 166.01137,131.45758C166.01137,132.35741 166.01137,133.23224 166.01137,134.05891C166.01137,134.95758 166.01137,135.85757 166.01137,136.75758C166.01137,137.65758 166.01137,138.55757 166.01137,139.45758C166.01137,140.35757 166.01137,141.25758 166.01137,142.05757C166.01137,142.97224 166.00604,143.86826 166.01137,144.75758C166.01671,145.64696 166.53197,146.25156 167.41136,146.25758C168.3114,146.26375 169.1664,145.84741 169.49052,145.23674C169.9769,144.32037 169.62228,143.2368 170.09669,142.54158C170.55046,141.87662 171.59332,141.64461 172.41136,141.28291C173.19583,140.93607 174.1736,140.68687 174.8447,140.09091C175.45099,139.55249 175.94707,138.8958 176.43669,138.28291C176.95262,137.63708 176.64546,136.7482 175.81137,136.34158C175.05779,135.97421 174.21873,135.60086 174.0322,134.75758C173.83998,133.88869 173.36276,133.59444 172.58603,133.24692C171.83437,132.91061 172.03714,131.73674 171.65869,130.95308C171.22943,130.06421 171.1884,129.3911 170.8447,128.42424C170.55695,127.6148 170.1458,126.84771 170.00687,125.95758C169.87904,125.13863 169.54971,124.30352 168.95869,123.61475C168.39282,122.95528 167.48036,122.76724 166.8127,122.05758C166.27043,121.4812 165.97943,120.54613 165.58603,119.85757C165.1208,119.04332 165.19791,118.10195 164.8447,117.25758C164.54536,116.54201 163.76741,115.79569 163.44736,115.08291C163.03691,114.1688 163.20291,113.2686 162.92603,112.45625C162.66042,111.67698 161.80867,111.06026 161.21136,110.45758C160.61934,109.86022 160.24763,108.99052 159.78987,108.15758C159.4189,107.48254 158.71136,106.95757 158.01137,106.25758C157.41136,105.65758 156.91376,104.90227 156.01137,104.42424C155.36314,104.08086 154.589,103.57139 153.71136,103.31474C152.84581,103.06163 151.91136,103.25758 151.01137,103.25758C150.13269,103.25758 149.30687,103.25758 148.41136,103.25758C147.51137,103.25758 146.61136,103.25758 145.71136,103.25758C144.81003,103.25758 143.8447,103.25758 143.01137,103.25758C142.17802,103.25758 141.31587,103.25758 140.36853,103.25758C139.49052,103.25758 138.60088,103.12505 137.71136,103.26208C136.77869,103.40575 136.26967,103.95555 135.3632,104.20491C134.35866,104.48125 133.84167,105.08237 133.12469,105.34158C132.18192,105.6824 131.41525,105.95927 130.77303,106.55758C130.02327,107.25607 130.09619,108.20728 129.4007,108.82158C128.73381,109.41061 127.71136,109.61475 127.21136,110.05891L126.51137,110.73674" id="svg_1" stroke-width="3" stroke="#000" fill="none"/>
  <path t="11010,11111,11119,11174,11207,11216,11270,11271,11287,11303,11304,11342,11366,11398,11454,11470,11486" d="M133.01137,122.25758C132.01137,122.25758 131.38579,122.59859 130.72737,123.17224C130.14005,123.68396 130.20953,124.41816 129.8447,125.25758C129.54716,125.94212 128.58519,126.47432 128.17802,127.25758C127.79135,128.00142 127.26442,128.79475 127.04736,129.65758C126.82762,130.53108 127.01137,131.45758 127.01137,132.35741L127.00069,133.22157" id="svg_2" stroke-width="3" stroke="#000" fill="none"/>
  <path t="14392,14567,14591,14807,14807,14817,14823,14908,14925,14973,14973,15045,15061,15157,15213,15253,15278,15278,15406,15526,15535,15614,15631,15735,15735,15744,15767,15775,15775,16014,16055,16055,16127,16199,16207,16207,16392,16487,16519,16519,16694,16704,16729,16744,16767,16797" d="M135.01137,152.25758C136.71136,153.31024 137.51651,153.77315 138.21136,154.45758C138.71512,154.9538 139.44406,155.63062 139.92737,156.45624C140.33437,157.15152 141.25983,157.10405 142.01137,157.42424C142.79256,157.75706 143.51118,158.24716 144.41136,158.25758C145.31131,158.26801 146.21136,158.25758 147.11136,158.25758C148.01137,158.25758 148.81137,158.25758 149.8447,158.25758C150.62202,158.25758 151.51137,158.25983 152.41136,158.25758C153.31139,158.25533 154.22685,157.98973 154.81137,157.45624C155.53107,156.79936 156.27843,156.49384 157.11136,156.03607C157.78639,155.66508 158.41136,154.85757 159.01137,154.25758C159.65421,153.61475 159.8833,152.81136 160.01587,151.95758C160.16032,151.02721 161.00848,150.81657 161.65421,150.14775C162.22185,149.5598 161.82584,148.39136 162.06853,147.56207C162.32646,146.68073 162.95419,145.95758 163.01137,145.05757L163.01137,144.15775L163.01137,143.31024L163.01137,142.45624" id="svg_3" stroke-width="3" stroke="#000" fill="none"/>
  <path t="18920,19143,19254,19310,19319,19395,19463,19463,19807,20263,20271,20279" d="M141.01137,133.25758C140.09804,132.97357 140.44679,132.27559 141.31137,132.25758C142.21117,132.23885 143.11136,132.25758 144.01137,132.25758C144.81137,132.25758 145.72603,132.34291 145.78987,133.13608L144.91136,133.25758L144.01137,133.25758" id="svg_4" stroke-width="3" stroke="#000" fill="none"/>
  <polyline timestamps="21233,22063,22078" startTime="1502028913905" id="svg_5" points="158.01136471971498,133.25757681030376 159.53936471971497,133.25757681030376 158.71136471971496,133.25757681030376 " stroke-linecap="round" stroke-width="3" stroke="#000" fill="none"/>
  <path t="22456,22663,22870,22871,22903,22951,23279,23279,23479" d="M157.01137,133.25758C157.17802,131.42424 158.01137,131.25758 158.81137,131.25758C159.72603,131.25758 160.44736,131.69357 161.11119,132.35741L161.65421,132.90041L161.99052,133.75758" id="svg_6" stroke-width="3" stroke="#000" fill="none"/>
  <path t="26295,26479,26479,26487,26575,26719,26719,26751,26799,26975,27039,27127,27166,27215,27351,27463,27567" d="M152.01137,137.25758C153.01137,136.42424 153.59351,136.85957 154.01137,137.75758C154.3802,138.55025 154.72801,139.304 155.09537,140.05757C155.50198,140.89168 156.66438,141.04367 156.99052,141.77841C157.34291,142.57228 156.49069,143.24716 155.51137,143.25758C154.6114,143.26717 153.71587,143.26207 153.0367,143.68291L152.4697,144.23674" id="svg_7" stroke-width="3" stroke="#000" fill="none"/>
  <path t="29633,29991,29998,30087,30143,30159,30175,30366,30391,30454,30455,30501,30910,30998,31350,31374,31385,31438,31510,31712,31782,31798,31815,31854,31894,32358,32758,32934" d="M148.01137,146.25758C148.8127,146.25758 149.72603,146.25758 150.62202,146.25758C151.51137,146.25758 152.41136,146.25758 153.31137,146.25758C154.21136,146.25758 155.11136,146.25758 156.01137,146.25758C156.81137,146.25758 157.83859,145.84085 158.57536,146.29358C159.22815,146.69469 158.57732,147.93169 157.71136,148.20041C156.85126,148.46732 156.27423,148.86929 155.57536,149.22157C154.71394,149.65579 153.71136,149.25758 152.81137,149.25758C151.91136,149.25758 151.01137,149.25758 150.17802,149.25758L149.30687,149.25758L148.44736,149.22157L148.01587,148.55307" id="svg_8" stroke-width="3" stroke="#000" fill="none"/>
  <path t="51376,51479,51479,51494,51494,51495,51503,51518,51526,51533,51622,51639,51654,51663,51663,51714,51721,51789,51813,51813,51861,51966,51983,52006,52037,52037,52054,52062,52070,52078,52086,52101,52117,52126,52126,52134,52142,52165,52189,52197,52206,52206,52230,52245,52245,52254,52269,52285,52286,52294,52334,52350,52358,52359,52366,52375,52382,52422,52446,52446,52454,52470,52478,52495,52510,52528,52550,52550,52910,52974,52982,52998,52999,53014,53030,53037,53038,53045,53054,53077,53150,53318,53318,53462,53510,53529,54014,54038,54071,54094,54094,54254,54263,54263,54263,54271,54326,54326,54406,54407,54462,54463,54470,54471,54481,54622,54630,54639" d="M162.01137,148.25758C162.02203,149.55492 162.00037,150.32721 162.2327,151.33591C162.39098,152.02307 162.43147,152.91035 163.0367,153.81091C163.48161,154.47293 164.10405,155.05382 164.51137,155.75758C164.96852,156.54747 165.48695,157.15227 166.31137,157.61024C167.05367,158.0226 167.81137,158.25691 168.71136,158.25758C169.65421,158.25829 170.35867,158.62476 171.01137,159.25758C171.60257,159.83078 172.51118,160.24716 173.41136,160.25758C174.31131,160.26801 175.21301,160.2032 176.11136,160.25774C176.81523,160.30046 177.59973,160.8564 178.41136,161.23224C179.295,161.64142 179.40941,162.47488 180.01137,163.13608C180.51309,163.68718 181.2933,164.00783 182.01137,164.42424C182.73643,164.84471 183.12187,165.72929 183.65869,166.31024C184.29503,166.99889 184.87,167.48206 185.01154,168.35757C185.15761,169.26112 185.61935,169.86021 186.31137,170.55757C187.00868,171.26025 187.52107,171.74055 187.95419,172.55307C188.32324,173.24539 189.2711,173.34668 189.72603,174.05891C190.20355,174.80655 189.90688,175.84547 190.36853,176.55757C190.88553,177.35504 191.71986,177.65004 192.49052,178.25758C193.11542,178.75021 192.89992,179.82715 193.36853,180.55757C193.88173,181.3575 194.48018,181.91492 194.98604,182.64691C195.45181,183.32089 196.4045,183.54755 196.89003,184.35741C197.32756,185.08719 197.83759,185.67148 198.23286,186.35757C198.68661,187.14517 199.81322,187.50755 199.9247,188.45624C200.01761,189.24684 198.69206,189.44556 198.29669,190.05891C197.7765,190.86591 197.48085,191.74838 196.91153,192.35757C196.35899,192.94881 196.00505,193.84917 195.30687,194.31024C194.55156,194.80905 194.22687,195.63358 193.78987,196.35741C193.35307,197.0809 192.29955,197.28882 191.61136,197.68291C190.79794,198.14871 190.30571,198.92912 190.01137,198.90041C189.17252,198.81857 190.02028,197.15736 190.01137,196.37224C190.0007,195.43207 189.72902,194.36809 189.15002,193.89357C188.54138,193.39476 187.63857,192.86678 187.01137,192.25758C186.40269,191.66638 185.85103,191.00734 185.12604,190.45758C184.39627,189.90421 183.60825,189.63408 182.89803,189.05757C182.23923,188.52281 181.92737,187.54291 181.17802,187.09091L180.72737,186.34158L180.06403,185.90041" id="svg_10" stroke-width="3" stroke="#000" fill="none"/>
  <path t="55704,55814,55830,55831,55839,55839,55839,55839,55848,55855,55855,55870,55870,55885,55893,55902,55925,55933,55933,55942,55965,55965,55981,55997,56029,56045,56085,56085,56094,56102,56117,56133,56143,56165,56197,56222,56230,56253,56277,56293,56302,56318,56327,56349,56349,56357,56357,56381,56405,56406,56438,56453,56454,56461,56477,56502,56510,56549,56597,56646,56846,56846,56878,56934,56934,56974,57014,57070,57078,57095,57095,57102,57102,57109,57109,57117,57117,57118,57118,57126,57127,57133,57134,57150,57165,57166,57222,57222,57302,57310,57311,57319,57319,57319,57329,57329,57330,57336,57336,57336,57336,57470,57479,57479,57480,57487,57487,57487,57496,57496,57497,57503,57504,57504,57504,57654,57654,57662,57671,57774,57958,58031,58038,58134,58159,58262,58278,58334,58334,58350,58358,58366,58376,58383,58397,58421,58437,58437,58445,58461,58492,58516,58516,58532,58708,58716,58724,58725,58732,58741,58748,58748,58758,58781,58781,58845,58892,59022,59032,59049,59069,59070,59070,59093,59094,59198,59214,59231,59318" d="M176.01137,182.25758C176.72737,183.51224 176.95178,184.32982 177.0367,185.08958C177.16739,186.25882 177.34932,187.15448 177.5322,187.71591C177.7863,188.496 178.52408,189.52002 178.89003,190.35774C179.16211,190.98056 179.41373,191.89098 179.72737,192.77357C180.02321,193.60609 180.01137,194.55757 180.01137,195.45758C180.01137,196.35757 180.01137,197.25758 180.01137,198.05757C180.01137,198.89357 180.01137,199.91025 180.01137,200.6049C180.01137,201.62158 180.01137,202.55307 180.01137,203.47908C180.01137,204.35757 180.01137,205.25758 180.01137,206.05757C180.01137,206.95758 180.01137,207.85757 180.01137,208.75758C180.01137,209.65758 180.01137,210.55757 180.01137,211.45758C180.01137,212.35741 180.01137,213.23224 180.01137,214.05891C180.01137,214.95758 180.01137,215.85757 180.01137,216.75758C180.01137,217.65758 180.01137,218.55757 180.01137,219.45891C180.01137,220.42424 180.01137,221.08292 180.01137,222.09091C180.01137,222.95308 180.02321,223.90906 179.72737,224.74158C179.47646,225.44766 179.05408,226.36916 179.01137,227.25758C178.97295,228.05666 179.01137,228.95758 179.01137,229.85757C179.01137,230.75758 179.01137,231.65758 179.01137,232.64691C179.01137,233.54291 179.01137,234.35757 179.01137,235.25758C179.01137,236.05757 178.95857,237.11327 178.01137,237.25758C177.22049,237.37808 176.31137,237.31474 175.51137,237.75758C174.71136,238.20041 173.91136,238.25758 173.01137,238.25758C172.12604,238.25758 171.17537,238.25758 170.41003,238.25758C169.40236,238.25758 168.73936,238.25758 167.67802,238.25758C166.71053,238.25758 166.0322,238.25758 165.37387,238.25758C164.06602,238.25758 163.2677,238.25758 162.3587,238.25758C161.49536,238.25758 160.61531,238.32681 159.69003,238.03624C158.9901,237.81642 158.03938,237.31981 157.21269,237.25891C156.37762,237.1974 155.33508,237.34149 154.60686,237.14325C153.77628,236.91714 153.01033,236.20906 152.32603,235.74025C151.60939,235.24927 150.77988,234.88168 150.2007,234.66824C149.02008,234.23317 148.12187,233.95735 147.55302,233.77841C146.78401,233.5365 145.65562,233.34306 144.6897,233.03624C143.95389,232.80251 143.33138,232.50504 142.32736,232.34024C141.51569,232.20702 140.65277,232.18169 139.69403,231.68825C138.95076,231.30571 138.26485,230.6942 137.36887,230.27908C136.72517,229.98085 136.02174,229.80847 135.0647,229.45891C134.05536,229.09026 133.37274,228.45984 132.51137,228.27841C131.63045,228.09286 130.61426,228.67906 129.79019,228.25742C129.32343,228.01859 130.37215,227.40001 130.95869,226.90491C131.61957,226.34706 132.21466,225.71437 133.11136,225.37907C133.96201,225.06099 134.92767,225.31476 135.49052,224.73674C136.12199,224.08826 136.73695,223.38367 137.0007,222.64691C137.30046,221.80956 136.91591,220.81303 137.29536,220.05757C137.73094,219.19038 138.0107,218.45758 138.01137,217.55757C138.01204,216.65758 137.99152,215.84669 138.01154,214.93642C138.02953,214.11833 138.73769,213.40128 139.0007,212.64691C139.30037,211.78741 139.01137,210.93625 139.01137,210.08292C139.01137,209.14291 139.05917,208.15631 139.01137,207.25758C138.96864,206.45418 138.46957,205.77728 137.8127,205.05757C137.27922,204.47307 137.20425,203.51398 136.97537,202.64691C136.75194,201.80051 135.60664,201.59587 135.09537,200.97092C134.51599,200.26271 134.53401,199.43935 134.29536,198.65625C133.99782,197.67986 133.92737,196.7429 133.57536,195.90424L132.8127,195.34158L132.09537,194.97224L131.79002,194.15775" id="svg_11" stroke-width="3" stroke="#000" fill="none"/>
  <path t="60673,60807,60823,60855,60855,60863,60871,60917,60918,60926,61014,61024,61025,61038,61134,61143,61151,61167,61178,61183,61198,61213,61213,61238,61261,61269,61334,61334,61343,61351,61361,61375,61397,61398,61413,61439,61439,61453,61485,61485,61486,61510,61550,61550,61550,61573,61589,61605,61606,61654,61654,61661,61677,61686,61686,61693,61693,61717,61725,61725,61742,61750,61750,61759,61789,61790,61798,61814,61822,61830,61838,61846,61862,61870,62110,62198,62254,62357" d="M133.01137,154.25758C132.01137,153.25758 131.26619,153.46516 130.8447,154.25758C130.50397,154.89818 130.07663,155.78966 129.65869,156.55757C129.201,157.39853 129.00203,158.11206 128.4007,158.85757C127.87327,159.51146 127.39783,160.37875 126.92737,160.97224C126.34192,161.7108 125.68531,162.121 125.0367,162.68291C124.44879,163.19221 123.49643,163.05556 122.71587,163.61475C122.03451,164.10286 121.78182,164.96387 121.01137,165.42424C120.29187,165.85417 120.16379,166.77193 120.00069,167.65758C119.84759,168.489 119.28264,169.29823 118.92737,170.05757C118.58516,170.789 117.49424,171.10527 117.0367,171.69357C116.45914,172.43619 115.86501,173.01768 115.21136,173.34158C114.36119,173.76286 114.06432,174.73885 114.02203,175.43225C113.95673,176.50304 113.87676,177.43828 113.57536,178.08292C113.24444,178.79071 112.56507,179.59921 112.01137,180.42424C111.58498,181.05956 111.35197,181.7917 111.01137,182.73674C110.70705,183.5811 110.11435,184.41557 110.0322,185.25758C109.93715,186.23167 110.19851,186.9803 109.97536,187.85757C109.75253,188.73366 108.97153,189.40227 108.62203,190.08292C108.11891,191.06274 108.09721,191.9136 107.57536,192.65758C107.10249,193.33174 106.36552,193.81483 105.71587,194.55757C105.13468,195.22203 104.99879,196.10757 104.49053,196.75758C103.89034,197.52519 103.36344,198.08554 102.95869,198.95758C102.57281,199.78897 102.12868,200.60352 101.58603,201.23224C101.06802,201.83241 100.46817,202.46088 100.13287,203.35757C99.81478,204.20822 99.8447,205.09091 99.13303,205.47891L99.36853,206.20041L100.31136,206.25758" id="svg_12" stroke-width="3" stroke="#000" fill="none"/>
  <path t="63064,63134,63151,63151,63294,63303,63303,63311,63342,63351,63360,63361,63375,63406,63429,63454,63518,63566,63598,63606,63607,63653,63685,63982,64007,64022,64032,64032,64048,64048,64062,64093,64093,64150,64158,64214,64215,64225,64247,64271,64271,64302,64303,64318,64334,64374,64374,64399,64455,64455,64487,64527" d="M101.01137,203.25758C102.61137,203.86824 103.31136,204.55757 103.81136,205.05757C104.51137,205.75758 105.13274,206.56514 105.81136,206.97224C106.5473,207.41373 107.3571,207.785 108.21136,208.17358C108.97448,208.52071 109.63146,208.9716 110.00069,209.82158C110.34743,210.61975 111.23915,210.93086 111.89003,211.47891C112.55228,212.03653 113.21136,212.25758 114.11137,212.25758C115.01137,212.25758 115.81136,212.25758 116.71136,212.25758C117.61137,212.25758 118.62071,212.42494 119.30686,211.90041C120.05706,211.32692 120.01137,210.25758 120.01137,209.50041C120.01137,208.6049 120.01137,207.74158 120.01137,206.75758C120.01137,205.93625 120.01137,205.08292 120.01137,204.14424C120.01137,203.17358 120.22306,202.28584 120.58603,201.65758C121.0746,200.81192 121.62918,200.33878 122.21136,199.68825C122.83064,198.99628 123.1931,198.12668 123.71136,197.56207C124.37788,196.83595 124.79136,196.00142 125.17803,195.25758C125.5852,194.47432 126.31136,193.95758 127.01137,193.25758L127.57536,192.65758L127.98603,191.86824L128.5322,191.25758" id="svg_13" stroke-width="3" stroke="#000" fill="none"/>
  <path t="66345,66614,66624,66624,66641,66654,66710,66726,66734,66765,66789,66813,66893,66909,66925,66950,66965,66974,67013,67029,67030,67053,67070,67078,67094,67109,67118,67118,67150,67173,67181,67205,67222,67230,67285,67301,67317,67333,67366,67374,67374,67398,67454,67542,67543,67622,67662,67710,67742,67742,67782,67830,67853,67862,67885,67893,67926,67942,67982,68006,68021,68038,68078,68094,68118,68118,68126,68141,68166,68359,68375,68430,68462,68472,68494,68559,68598,68662,68710,68710,68726,68751,68758,68766,68797,68829,68829,68854,68869,68885,68950,68966,68976,69134,69206,69207,69254,69263,69264,69271,69294,69304,69325,69349,69446,69598,69774,69784,69798,69799,69815,69831,69831,69863,69873,69887,69950,69958,69959,69967,70118,70158,70167,70206,70255,70294,70304,70304,70366,70382,70392,70438,70447,70459,70465,70485,70486,70533,70534,70558,70567,70606,70622,70623,70630,70646,70663,70718,70734,70742,70766,70783,70784,70926,70966,71030,71037" d="M98.01137,204.25758C97.51137,205.27841 97.09638,206.07944 97.0127,206.97092C96.92883,207.86432 97.01137,208.75758 97.01137,209.65758C97.01137,210.55757 97.01137,211.45758 97.01137,212.35741C97.01137,213.23224 97.01137,214.05891 97.01137,214.95758C97.01137,215.85757 97.01137,216.75758 97.01137,217.65758C97.01137,218.55757 97.01137,219.45758 97.01137,220.35757C97.01137,221.25758 97.01137,222.05757 97.01137,222.95758C97.01137,223.85757 96.95847,224.79231 97.36403,225.55757C97.81233,226.40346 98.01137,227.25758 98.01137,228.05757C98.01137,228.95758 98.01137,229.85757 98.01137,230.75758C98.01137,231.65758 97.7578,232.8246 98.44736,233.22157C99.19308,233.65086 99.99336,233.69301 100.01137,234.55757C100.03011,235.45738 100.01137,236.35757 100.01137,237.25758C100.01137,238.05757 100.01137,238.95758 100.01137,239.89357C100.01137,240.74158 100.01137,241.6049 100.01137,242.61092C100.01137,243.47908 100.01137,244.35757 100.01137,245.25758C100.01137,246.05757 99.95689,246.95908 99.51137,247.75758C99.0667,248.55457 98.34788,249.0675 98.0322,249.77841C97.64289,250.65509 97.25195,251.19878 97.01586,251.96208C96.75098,252.81847 96.60752,253.69682 95.8127,254.17358C95.12181,254.588 95.01137,255.45758 95.01137,256.35757C95.01137,257.25757 95.01137,258.05759 95.01137,258.95758C95.01137,259.85757 94.7066,260.81531 95.02203,261.64691C95.29861,262.37607 96.41136,262.25757 97.31136,262.25757C98.21136,262.25757 99.11246,262.3053 100.01137,262.25757C100.81609,262.21484 101.59256,261.62708 102.21136,261.0589C102.79427,260.52368 103.55402,260.03284 104.2327,259.37891C104.81152,258.82117 105.01137,258.05759 105.01137,257.15756C105.01137,256.25757 105.01137,255.50041 105.01137,254.60941C105.01137,253.59091 105.78596,253.31149 106.00687,252.55307C106.2573,251.6933 105.89992,250.688 106.36853,249.95758C106.88173,249.15767 107.44505,248.57271 107.9967,247.86824C108.47983,247.25127 109.70481,247.18407 110.0087,247.97357C110.33008,248.80853 110.01137,249.75758 110.01137,250.65758C110.01137,251.55757 109.89144,252.4644 110.01137,253.34158C110.12306,254.15857 110.85863,253.85316 111.29536,253.05757C111.65114,252.40947 112.00912,251.50043 112.01137,250.6049C112.01353,249.74158 112.01137,248.89357 112.01137,247.95758C112.01137,247.05757 112.01137,246.15758 112.01137,245.25758C112.01137,244.45758 112.01137,243.54291 112.01137,242.64691C112.01137,241.75758 112.01137,240.85757 112.01137,239.95758C112.01137,239.05757 112.01137,238.15758 112.01137,237.25758C112.01137,236.45758 112.01137,235.55757 112.01137,234.65758C112.01137,233.69357 112.01137,232.82158 112.01137,231.95758C112.01137,231.05757 112.01137,230.15758 112.01137,229.25758C112.01137,228.50041 112.01137,227.6049 112.01137,226.74158C112.01137,225.77841 111.91736,224.81049 112.36403,223.95758C112.75797,223.20535 113.0107,222.45758 113.01137,221.55757C113.01203,220.65758 113.01137,219.75758 113.01137,218.85757C113.01137,217.95758 113.01137,217.05757 113.01137,216.15758C113.01137,215.25758 113.01137,214.45758 113.01137,213.54291L113.01137,212.64691L113.0322,211.75758L113.36853,210.96208" id="svg_14" stroke-width="3" stroke="#000" fill="none"/>
  <path t="72393,72518,72526,72535,72535,72544,72550,72598,72718,72727,72727,72734,72750,72767,72767,72767,72775,72775,72784,72797,72805,72862,72893,72902,72902,72902,72909,72909,72918,72918,72925,72925,72941,72957,73045,73062,73071,73071,73078,73088,73094,73095,73103,73110,73214,73214,73222,73232,73232,73233,73241,73242,73242,73258,73258,73285,73285,73294,73309,73325,73333,73334,73814,73814,73838,73855,73877,73893,73894,73902,73903,73909,73933,73941,73941,73949,73957,73957,74246,74262,74302,74333,74430,74479" d="M194.01137,197.25758C195.06403,198.95758 195.50169,199.78859 196.21136,200.45624C196.78775,200.9985 197.52632,201.41606 198.09537,201.97357C198.76805,202.63261 199.34245,203.07187 200.11136,203.47891C200.86891,203.87994 201.72429,204.28687 202.43269,204.69357C203.36264,205.22746 204.00888,205.57579 204.7607,205.82158C205.66942,206.11865 206.61046,206.08292 207.51137,206.27841C208.35776,206.46207 209.25433,206.91331 209.89003,207.47891C210.49191,208.01442 211.18681,208.40335 211.84737,208.69357C212.62379,209.0347 213.59682,209.58826 214.21136,209.82158C215.1913,210.19362 216.04927,210.07532 216.98987,210.47908C217.78429,210.82008 218.19528,211.76096 219.11119,212.13608C219.90408,212.46082 220.50073,212.90646 221.49536,213.17224C222.16652,213.35158 223.25778,213.17937 224.11136,213.25774C225.02281,213.34142 225.55028,214.01324 226.51137,214.23674C227.3989,214.44313 228.3394,214.46321 228.99052,214.75758C229.9209,215.17821 230.67586,215.25758 231.57387,215.25758C232.41536,215.25758 233.3112,215.25758 234.2007,215.25758C235.0542,215.25758 236.08969,215.25758 236.9697,215.25758C237.8447,215.25758 238.70686,215.25758 239.65421,215.25758C240.5322,215.25758 241.42223,215.23854 242.3327,215.25774C243.1866,215.27573 244.28006,215.40427 244.7247,216.05891C245.19948,216.75793 244.91344,217.76402 245.02203,218.66824C245.13348,219.59628 245.62291,220.22147 245.88986,221.23608C246.10078,222.03772 246.32585,222.64473 246.8447,223.42424C247.31558,224.13171 247.00896,225.05757 247.01137,226.01474C247.01363,226.91026 246.58554,227.96637 247.43669,228.60025C247.88995,228.93782 248.0322,227.75758 248.36403,226.95758L248.88986,226.15758L249.01137,225.25758" id="svg_15" stroke-width="3" stroke="#000" fill="none"/>
  <path t="75551,75678,75687,75687,75695,75703,75710,75710,75719,75726,75743,75743,75751,75791,75806,75806,75816,75839,75839,75847,75847,75858,75919,75927,75927,75935,75935,75946,75946,75952,75960,75960,75974,75974,75981,75998,76005,76022,76038,76046,76191,76199,76207,76208,76215,76215,76224,76224,76246,76264,76342,76351,76359,76359,76374,76375,76383,76383,76406,76438,76439,76486,76511,76511,76565,76590,76591,76694,76782,76783,76854,76871,76950,76990,77022,77070,77358,77366,77366,77376,77383,77392,77414,77430,77440,77447,77463,77463,77525,77541,77542,77557,77671,77726,77750,77774,77838,77902,77950,77951,78046,78046,78055,78110,78110,78135,78326,78343,78382,78383,78390,78391,78398,78527,78533" d="M201.01137,188.25758C202.0322,189.25758 202.96506,189.52377 203.70686,189.90491C204.48817,190.30635 205.31512,190.61069 206.01137,191.25758C206.61462,191.81808 207.4527,192.14143 208.21136,192.54158C209.06975,192.99431 209.92238,192.89259 210.65421,193.31474C211.46532,193.78262 211.97987,194.4749 212.61136,194.83224C213.49414,195.33179 214.32599,195.49687 215.0322,195.75758C216.00253,196.11581 216.92656,195.92265 217.76852,196.47891C218.49663,196.95995 219.10304,197.49084 219.76852,197.96208C220.48643,198.47043 221.21257,198.81783 222.12604,199.45624C222.72537,199.87509 223.55667,200.18518 224.49536,200.54291C225.20877,200.81479 225.92728,201.45189 226.70686,201.90041C227.46268,202.33525 228.47977,202.11815 229.21004,202.54158C230.03632,203.02069 230.74225,203.07486 231.61136,203.29358C232.47417,203.51071 233.21025,204.20703 234.17802,204.25758C234.83589,204.29195 235.90179,204.3389 236.60069,204.86824C237.27724,205.38065 237.87466,206.07764 238.82603,206.22157C239.75861,206.36266 240.56343,206.21648 241.41136,206.68291C242.1422,207.08493 242.89986,207.33292 243.84737,207.68291C244.61533,207.96657 245.42592,208.09019 246.3542,208.31024C247.2773,208.52905 247.99876,209.17255 248.81137,209.25624C249.72122,209.34995 250.56619,209.57457 251.1967,209.83224C252.23323,210.25584 253.11154,210.25313 253.8967,210.25758C254.83675,210.26292 255.95148,210.2809 256.4697,210.77841C257.13156,211.41383 257.32434,212.54631 256.92603,213.34158C256.55115,214.09004 255.49359,214.08749 254.61136,214.26825C253.67072,214.46098 253.0585,215.24196 253.0127,216.05757C252.96118,216.97466 253.8472,217.06129 254.71136,217.31474C255.58879,217.57208 256.45801,218.04451 256.98602,218.69357C257.57971,219.42337 258.04959,219.9915 258.81137,220.34158C259.5611,220.68613 260.31442,221.38168 260.72604,222.05757C261.23914,222.90005 261.96863,223.25551 262.01135,224.05891C262.05908,224.95631 262.17868,225.87721 261.99054,226.75758C261.80917,227.60623 261.08209,228.33856 260.44736,228.82158C259.74365,229.35709 258.82602,229.25758 257.8967,229.25758C257.01135,229.25758 256.21136,229.25758 255.31137,229.25758C254.41136,229.25758 253.4902,229.28107 252.52736,229.25624C251.83606,229.23842 250.8967,228.97357 250.21269,228.54158L249.29669,228.17358L248.8447,227.42424L248.09537,226.97357" id="svg_16" stroke-width="3" stroke="#000" fill="none"/>
  <path t="80616,80719,80727,80727,80734,80735,80742,80758,80774,80774,80789,80806,80806,80902,80910,80926,80942,80982,80982,80990,81086,81095,81126,81142,81158,81167,81197,81205,81222,81237,81238,81246,81262,81277,81277,81293,81334,81350,81350,81350,81366,81366,81375,81606,81614,81623,81623,81631,81637,81637,81646,81646,81654,81654,81654,81661,81669,81670,81670,81677,81678,81678,81687,81702,81702,81774,81775,81784,81894,81894,82070,82086,82094,82110,82158,82158,82223,82230,82239,82246,82247,82262,82263,82269,82270,82293,82303,82319,82326,82686,82695,82717,82718,82718,82733,82734,82766,82766,82797,82797,82854,82862,82886,82902,82902,82910,82942,82997,83006,83014,83022,83030,83030,83045,83046,83062,83078,83078,83191" d="M133.01137,229.25758C132.0367,231.08292 131.92336,232.14076 131.49052,232.73674C130.90907,233.53735 130.16046,234.02592 130.01587,234.95758C129.88998,235.76871 130.01353,236.74158 130.01137,237.6049C130.00911,238.50043 129.67447,239.28883 129.29536,240.05757C128.87856,240.9028 129.0714,241.9127 128.58603,242.64691C128.10367,243.37657 128.01137,244.25758 128.01137,245.05757C128.01137,245.95758 128.00604,246.85759 128.01137,247.75758C128.01671,248.65762 128.15567,249.66505 129.01137,250.09091C129.77219,250.46956 130.64378,250.4334 131.51137,250.23674C132.47366,250.0186 133.10507,249.32428 133.8967,249.25891C134.82295,249.18243 135.68829,248.98827 136.17802,248.25758C136.64467,247.56134 137.53214,247.43416 138.42203,247.23624C139.22037,247.05869 139.84387,246.40376 140.3587,245.90575C141.1357,245.15411 141.44077,244.27754 142.06403,243.61475C142.63188,243.01086 143.64737,243.25758 144.66403,243.25758C145.3587,243.25758 146.44444,243.11172 147.21269,243.54425C147.84979,243.90294 148.53142,244.71053 148.99052,245.27841C149.74272,246.20882 149.81343,246.87604 150.09402,247.77225C150.37305,248.66345 151.18411,249.41829 151.66403,249.91475C152.19283,250.46176 152.84831,251.25513 153.37537,252.03624C153.81303,252.68488 154.60835,253.15572 155.21136,253.8269C155.70224,254.37328 156.19093,255.39047 156.71136,255.95308C157.38574,256.68213 157.93521,257.35156 158.61136,257.82156C159.41716,258.38168 160.00549,258.88486 160.43669,259.65756C160.89368,260.47647 160.81755,261.30301 161.09669,262.05759C161.41837,262.92715 162.41083,263.23956 163.31137,263.25757C164.21385,263.2756 164.98203,263.25757 166.01669,263.25757C166.7607,263.25757 167.86836,263.25757 168.59003,263.25757C169.51137,263.25757 170.41136,263.25757 171.31137,263.25757C172.21136,263.25757 173.2915,263.73914 174.01137,263.19507C174.68307,262.68741 174.51918,261.71109 174.8127,260.9389C175.19327,259.93771 175.67305,259.1351 175.88986,258.2789C176.11404,257.39355 176.01137,256.43225 176.01137,255.74158C176.01137,254.77841 175.87367,253.76683 176.01587,252.90041C176.15967,252.02415 176.86319,251.48897 177.00687,250.55757C177.14407,249.66809 177.01137,248.75758 177.01137,247.85757C177.01137,246.95758 177.01137,246.05624 177.01137,245.09091C177.01137,244.25758 177.01137,243.42424 177.01137,242.56207C177.01137,241.62158 177.01137,240.77357 177.01137,239.91025L177.00687,239.01474" id="svg_17" stroke-width="3" stroke="#000" fill="none"/>
  <path t="84801,84894,84895,84902,84903,84903,84910,84910,84919,84919,84919,84927,84936,84936,84943,84943,84951,85078,85078,85086,85086,85094,85141,85141,85150,85150,85238,85262,85272,85309,85325,85326,85350,85373,85389,85397,85406,85422,85445,85469,85470,85486,85509,85525,85535,85790,85798,85822,85822,85910,85928,85951,85957,85981,85989,86021,86021,86053,86069,86077,86101,86109,86119,86136" d="M131.01137,254.25758C131.36853,257.80042 131.61559,258.45004 132.11136,259.45758C132.40753,260.05948 132.81139,260.85757 133.31137,261.85757C133.61136,262.45758 134.10161,263.46246 134.41136,264.04691C134.79927,264.77878 135.5298,265.57263 135.8447,266.42426C136.13942,267.22131 136.17392,268.27792 136.62202,268.84692C137.23264,269.62231 137.82683,270.26297 138.06403,271.01474C138.34735,271.91269 138.72823,272.83087 139.57536,273.23624C140.39781,273.62979 141.06421,273.72849 141.98987,274.35742C142.62442,274.78854 143.41083,275.23956 144.31137,275.25757C145.21118,275.27554 146.11136,275.25757 147.01137,275.25757C147.81137,275.25757 148.71136,275.25757 149.61136,275.25757C150.51137,275.25757 151.41136,275.25757 152.31137,275.25757C153.21136,275.25757 154.11136,275.25757 155.01137,275.25757C155.81137,275.25757 156.71136,275.25757 157.61136,275.25757C158.51137,275.25757 159.4007,275.25833 160.36853,275.25757C161.21136,275.2569 162.23996,275.15021 162.65421,274.55307C163.20152,273.76413 163.01137,272.75757 163.01137,271.85757C163.01137,270.95758 163.01137,270.05759 163.01137,269.15756C163.01137,268.25757 163.03862,267.45715 163.01137,266.55759C162.98277,265.61343 162.29536,265.17358 162.01137,264.25757L162.01137,263.42426L161.51137,262.73676L161.06853,261.95758" id="svg_18" stroke-width="3" stroke="#000" fill="none"/>
  <path t="86944,87038,87046,87046,87054,87054,87071,87079,87102,87102,87103,87111,87126,87182,87262,87286,87286" d="M172.01137,263.25757C170.62202,264.1189 170.10539,265.08002 170.02203,265.8829C169.93336,266.73706 170.01199,267.60492 170.01137,268.5004C170.0107,269.45892 169.85263,270.42743 169.58603,271.08292C169.30373,271.77704 169.07869,273.00775 168.29536,273.25626C167.44183,273.52704 166.61136,273.69357 165.91136,274.35742L165.41136,274.82156" id="svg_19" stroke-width="3" stroke="#000" fill="none"/>
  <path t="89474,89574,89583,89584,89590,89590,89599,89599,89615,89615,89622,89622,89622,89629,89637,89645,89645,89653,89662,89678,89678,89686,89686,89694,89694,89702,89710,89725,89765,89773,89774,89789,89789,89789,89798,89798,89813,89821,89837,89837,89861,89861,89870,89870,89878,89878,89885,89885,89901,89901,89909,89910,89933,89941,89951,89951,89957,89958,89966,89981,89981,89982,89997,89997,90021,90038,90038,90111,90111,90118,90119,90119,90127,90127,90138,90138,90144,90158,90158,90166,90205,90221,90229,90229,90238,90246,90246,90254,90254,90262,90285,90286,90301,90302,90317,90333,90333,90342,90342,90365,90381,90397,90397,90413,90429,90477,90485,90493,90493,90509,90517,90525,90525,90533,90550,90550,90573,90581,90581,90589,90589,90613,90629,90637,90645,90652,90661,90677,90693,90709,90733,90733,90741,90741,90750,90773,90782,90813,90845,90845,90853,90877,90885,90893,90917,90941,90957,90973,90982,90989,91005,91021,91029,91045,91069,91077,91093,91109,91125,91125,91141,91150,91167,91181,91181,91181,91189,91189,91189,91206,91206,91221,91221,91237,91237,91245,91261,91285,91285,91293,91294,91309,91309,91309,91317,91325,91326,91326,91333,91334,91341,91341,91341,91350,91350,91357,91373,91413,91421,91429,91429,91429,91437,91437,91445,91445,91446,91453,91453,91461,91469,91469,91477,91478,91485,91485,91493,91501,91525,91541,91550,91557,91557,91567,91567,91573,91574,91581,91589,91598,91598,91598,91605,91605,91613,91629,91645,91645,91653,91654,91677,91709,91717,91717,91725,91725,91725,91733,91734,91741,91749,91749,91757,91766,91789,91789,91821,91821,91829,91837,91845,91853,91861,91869,91869,91877,91893,91893,91909,91909,91925,91973,91989,91989,92005,92006,92021,92029,92029,92045,92053,92077,92101,92117,92141,92157,92173,92173,92189,92190,92261,92270,92270,92286,92294,92301,92310,92310,92405,92421,92422,92462,92469,92565,92573,92591,92591,92599,92600,92645,92662,92662,92685,92725,92733,92741,92742,92757,92767,92767,92829,92838,92839,92846,92862,92862,92878,92886,92886,92894,92917,92941,92950,92950,92957,93005,93069,93078,93079,93094,93094,93141,93173,93197,93213,93221,93222,93222,93222,93237,93246,93246,93285,93309,93317,93325,93334,93334,93373,93373,93429,93438,93438,93446,93454,93461,93469,93478,93485,93486" d="M301.01135,234.25758C299.51135,235.75758 298.87854,236.55916 298.25421,236.90041C297.4205,237.35611 296.58322,237.22569 295.6127,237.54291C294.82224,237.80128 294.08588,238.44769 293.35004,238.82158C292.51587,239.24542 291.48929,239.09157 290.86469,239.34158C289.89529,239.72963 289.99393,240.95029 289.15002,241.23224C288.51926,241.44298 287.56705,241.82848 286.71136,242.20491C285.93719,242.54549 285.28375,243.01797 284.35419,243.20041C283.61905,243.3447 282.55997,243.00446 281.72571,243.31474C280.8678,243.63382 280.72375,244.84285 279.92737,245.25624C279.19879,245.63445 278.38086,245.99838 277.80069,246.40691C276.85132,247.07541 276.20438,247.16168 275.41138,247.34024C274.40509,247.56682 273.70059,248.03789 272.64737,248.22157C271.82297,248.36536 270.93353,248.5076 270.29669,248.97357C269.46762,249.5802 268.80969,249.9048 267.81152,250.13625C267.04318,250.31439 266.021,250.46027 265.38602,250.86824C264.5105,251.43079 263.85825,251.8835 263.03268,252.13625C262.27414,252.36847 261.38559,252.66298 260.58069,252.97357C259.67538,253.32292 258.88861,253.67595 258.01135,254.09091C257.2988,254.42798 256.36984,254.63805 255.66403,254.90491C254.77666,255.2404 253.83591,255.40337 253.17537,255.69357C252.39894,256.0347 251.43669,256.58783 250.72569,256.90042C249.80869,257.30359 249.01201,257.42517 248.37537,257.86826C247.52687,258.4588 246.80177,258.85971 246.01137,259.25757C245.21245,259.65973 244.60696,259.94891 243.6127,260.45758C242.84392,260.85089 242.0101,261.33099 241.42203,261.85757C240.68124,262.5209 240.02397,263.17255 239.21136,263.25626C238.3161,263.34845 237.40196,263.2746 236.60069,263.68292C235.8353,264.073 234.96233,264.11282 234.1167,264.61023C233.3591,265.05585 232.59407,265.16187 231.76852,265.61475C231.14473,265.95694 230.55252,266.75766 229.7897,267.47906C229.26332,267.97687 228.55801,268.5217 227.66403,268.90042C226.78918,269.27103 225.81609,269.36374 225.1967,269.69357C224.29483,270.17383 223.91934,270.95456 223.21004,271.34158C222.48045,271.73965 221.48424,272.01276 220.72119,272.31024C219.95583,272.60864 219.38045,273.0871 218.51137,273.27841C217.66383,273.465 217.08424,274.34689 216.41136,274.82156C215.67654,275.33994 214.77498,275.71951 214.01137,276.09091C213.25746,276.45761 212.50623,276.77313 211.81137,277.45758C211.20685,278.05304 210.47256,278.60257 210.13269,279.57892C209.90605,280.23001 209.74419,281.21075 209.36403,281.95306C208.93227,282.79611 208.19327,283.25186 208.0127,284.0589C207.81647,284.93588 208.01137,285.85757 208.01137,286.75757C208.01137,287.65756 208.01137,288.55759 208.01137,289.45892C208.01137,290.42426 207.96268,291.08411 208.01137,292.09091C208.05408,292.974 208.96387,293.17175 209.57536,293.86826C210.15291,294.52609 209.82092,295.62106 210.23286,296.35742C210.64548,297.09494 211.71144,297.24466 212.61136,297.25757C213.49068,297.27017 213.95256,298.017 214.71587,298.25308C215.57225,298.51794 216.3217,298.8757 217.21136,299.17224C218.069,299.4581 219.01137,299.25757 219.89003,299.25757C220.71587,299.25757 221.61136,299.25757 222.51137,299.25757C223.41136,299.25757 224.31137,299.25757 225.21136,299.25757C226.11136,299.25757 227.01137,299.25757 227.81137,299.25757C228.71136,299.25757 229.61136,299.25757 230.55302,299.25757C231.3447,299.25757 232.27271,299.25763 233.0632,299.25757C234.08986,299.25748 234.9975,299.28519 235.61003,299.17224C236.62926,298.98431 237.39317,298.52963 238.40869,298.3429C239.13106,298.21005 240.09981,297.98547 240.71587,297.61023C241.53453,297.1116 242.5491,297.29504 243.3327,297.03625C244.2097,296.74661 244.99295,296.39154 245.8212,296.2049C246.78278,295.98819 247.50439,295.73236 248.24336,295.54156C249.35155,295.25543 250.3447,295.25757 251.01669,295.25757C251.7607,295.25757 252.8741,295.32068 253.66203,295.22159C254.56599,295.10791 255.52573,294.7717 256.24338,294.45624C257.05893,294.09775 257.77527,293.41211 258.61136,293.26825C259.56146,293.10477 260.45129,293.33594 261.31586,293.25308C262.18915,293.1694 263.03403,292.74051 263.6127,292.45624C264.61456,291.96408 265.41138,291.55759 266.21136,291.15756C267.01135,290.75757 267.61136,290.45758 268.60236,289.96207C269.29703,289.61475 270.17935,289.17358 270.88336,288.82156C271.61404,288.45624 272.62393,287.98795 273.35419,287.55759C274.14587,287.09103 274.77661,286.41241 275.61136,286.26825C276.49829,286.11505 277.4559,286.35303 278.21136,285.97357C279.07855,285.53799 279.72888,285.01443 280.18069,284.45624C280.75714,283.74408 281.59933,283.46509 282.60687,283.31476C283.34784,283.20419 284.37964,283.34262 285.31586,283.25308C286.18918,283.16956 286.85062,282.82834 287.6127,282.45624C288.60672,281.97089 289.2984,281.61746 290.17935,281.17358C290.87378,280.8237 291.81769,280.21695 292.38602,279.86826C293.29422,279.31104 294.09573,279.45715 294.90152,278.90491C295.58344,278.43756 296.3378,278.32184 297.22205,278.22159C298.22208,278.10818 299.03476,277.77643 299.52603,277.37091C300.33859,276.7002 300.58371,275.79764 301.42203,275.31891C302.24994,274.8461 303.11401,274.86792 303.84204,274.0589C304.40988,273.42792 305.17804,273.25757 306.01135,273.25757C306.98987,273.25757 307.81021,273.27634 308.71136,273.25757C309.57593,273.23956 309.89136,272.41763 310.5322,271.77841C311.17578,271.13647 312.13538,271.06448 312.71136,270.55307C313.44363,269.90286 314.22272,269.37808 314.8967,269.17358C315.85367,268.88324 316.50336,268.42807 317.49054,268.27841C318.40152,268.14032 319.27658,268.02972 319.81137,267.37091C320.38788,266.66071 320.59546,265.8201 321.31137,265.01926C321.92368,264.33435 322.71155,264.27661 323.61136,264.25757C324.57584,264.23715 325.00565,263.43948 325.81268,263.25891C326.68967,263.06268 327.6308,263.42401 328.51135,263.23676C329.36426,263.05536 329.88354,262.43539 330.66403,261.95758C331.34769,261.53903 332.17944,260.83707 333.01135,260.42426C333.76233,260.05157 334.59369,259.64545 335.41138,259.2829C336.19476,258.93558 336.62494,258.13644 337.09537,257.54291C337.68082,256.80423 338.25348,256.30377 338.65869,255.55757C339.07199,254.79646 339.01135,253.77841 339.01135,252.90041C339.01135,252.05624 339.01135,251.09091 339.01135,250.25758C339.01135,249.27908 339.01135,248.56207 339.01135,247.62158C339.01135,246.77357 339.01135,245.91025 339.01135,244.89357C339.01135,244.05757 339.20953,243.097 338.8447,242.25758C338.54715,241.57303 337.57007,241.04572 337.13269,240.15758C336.81039,239.50314 336.45798,238.75931 335.91138,237.93642C335.48529,237.29498 334.7655,236.52007 334.01135,236.09091C333.36264,235.72176 332.71875,234.9501 332.01135,234.25758C331.51648,233.77313 330.71716,233.28618 329.78986,233.25758C328.9118,233.23051 328.01135,233.25758 327.21136,233.25758C326.31137,233.25758 325.41138,233.25758 324.49054,233.25758C323.52603,233.25758 322.80069,233.25758 321.81171,233.25758C320.88336,233.25758 319.9967,233.25758 319.21002,233.25758C318.31137,233.25758 317.44885,233.25758 316.51135,233.25758C315.65335,233.25758 315.01135,233.25758 314.06335,233.25758C312.88287,233.25758 312.01135,233.25758 311.21136,233.25758C310.17804,233.25758 309.38126,233.09236 308.51135,233.27841C307.66272,233.45992 307.0961,234.37093 306.37537,234.82158C305.59732,235.30807 304.65665,235.14687 303.76852,235.26207C302.89169,235.37581 302.37421,236.03287 301.61136,236.64691C300.86581,237.24702 299.91153,237.25774 299.13269,237.47891L298.64969,238.20491L297.8447,238.42424L297.01135,238.77841" id="svg_20" stroke-width="3" stroke="#000" fill="none"/>
  <path t="94802,94871,94887,94902,94910,94910,94926,94966,94982,94998,95046,95071,95082,95110,95199,95207,95215,95231,95295,95359,95359,95367,95399,95423,95471,95471,95527,95551,95599,95623,95623,95631,95657,95671,95679,95687,95695,95695,95701,95701,95701" d="M274.01135,250.25758C273.01135,250.25758 272.39905,250.61423 271.72604,251.17358C271.05704,251.72961 270.16037,252.02515 270.01587,252.90041C269.87283,253.76669 270.01135,254.65758 270.01135,255.55757C270.01135,256.45758 270.01135,257.35757 270.01135,258.25757C270.01135,259.17224 270.71585,259.25757 271.61136,259.25757C272.51135,259.25757 273.42188,259.39029 274.31137,259.25308C275.24277,259.10941 275.78677,258.44443 276.71136,258.26208C277.56238,258.09427 277.97021,257.39603 278.01135,256.42426C278.04337,255.66806 278.62881,254.94714 278.92603,254.05891C279.20825,253.21544 279.01135,252.25758 279.01135,251.45758C279.01135,250.55757 279.02075,249.44583 278.30685,249.26207C277.43964,249.03885 276.49054,249.25758 275.52469,249.25758C274.76471,249.25758 273.8447,249.25758 273.05869,249.25758L272.23669,249.25758" id="svg_21" stroke-width="3" stroke="#000" fill="none"/>
  <path t="97027,97150,97151,97159,97159,97168,97169,97175,97176,97176,97182,97182,97182,97190,97190,97190,97199,97199,97199,97199,97199,97205,97205,97205,97215,97215,97215,97215,97215,97215,97221,97221,97221,97221,97221,97230,97230,97230,97230,97230,97230,97237,97237,97237,97237,97237,97237,97245,97245,97245,97245,97245,97253,97253,97253,97253,97253,97261,97261,97261,97261,97261,97268,97269,97269,97269,97277,97277,97277,97277,97285,97285,97285,97293,97293,97301,97301,97317,97357,97357,97365,97365,97373,97373,97373,97382,97382,97382,97382,97389,97389,97389,97389,97389,97398,97398,97398,97398,97398,97398,97398,97405,97405,97405,97405,97405,97405,97405,97414,97414,97414,97414,97414,97414,97414,97421,97421,97421,97421,97421,97429,97429,97429,97429,97437,97437,97437,97445,97445,97446,97500,97501,97516,97533,97749,97749,97773,97781,97782,97790,97800,97806,97814,97821,97830,97933,97941,97942,97942,97950,97950,97950,97957,97957,97957,97957" d="M2.01136,102.25758C3.01136,101.09091 3.60843,100.56187 4.4967,100.34291C5.20467,100.1684 6.21136,100.25758 7.01136,100.25758C8.01136,100.25758 8.82203,100.25758 9.6967,100.25758C10.6967,100.25758 11.5322,100.25758 12.4127,100.25758C13.31153,100.25758 14.22203,100.25758 14.84736,100.25758C16.17803,100.25758 16.89536,100.25758 17.6367,100.25758C18.38603,100.25758 19.12737,100.25758 20.5287,100.25758C21.1967,100.25758 21.8727,100.25758 23.3447,100.25758C24.18203,100.25758 24.6257,100.25758 25.55303,100.25758C26.52036,100.25758 27.01403,100.25758 28.51136,100.25758C29.01136,100.25758 30.01136,100.25758 31.01136,100.25758C31.51136,100.25758 33.01136,100.25758 33.51136,100.25758C34.51136,100.25758 35.51136,100.25758 36.01136,100.25758C37.01136,100.25758 38.01136,100.25758 39.01136,100.25758C40.01136,100.25758 40.51136,100.25758 41.51136,100.25758C42.01136,100.25758 43.5112,100.25758 44.50687,100.25758C45.0007,100.25758 45.97536,100.25758 46.92603,100.25758C47.8447,100.25758 48.72736,100.25758 49.58603,100.25758C50.4367,100.25758 51.29536,100.25758 52.63253,100.25758C53.09403,100.25758 54.02603,100.25758 54.95003,100.25758C55.84203,100.25758 57.06853,100.25758 57.80153,100.25758C58.49053,100.25758 59.49403,100.25758 60.53253,100.25758C61.25953,100.25758 61.99053,100.25758 63.04203,100.25758C63.96836,100.25758 64.9697,100.25758 65.6087,100.25758C66.61137,100.25758 67.41136,100.25758 68.4087,100.25758C69.29704,100.25758 70.2967,100.25758 71.2127,100.25758C71.8967,100.25758 72.85803,100.25758 73.69803,100.25758C74.6967,100.25758 75.5322,100.25758 76.4127,100.25758C77.3117,100.25758 78.2327,100.25758 78.88336,100.25758C79.58203,100.25758 80.75453,100.25758 81.6302,100.25758C82.57387,100.25758 83.0687,100.25758 84.09937,100.25758C85.17803,100.25758 86.29803,100.25758 86.87303,100.25758C88.05303,100.25758 88.65803,100.25758 89.27303,100.25758C89.89803,100.25758 91.8327,100.25758 92.49536,100.25758C93.16403,100.25758 93.8367,100.25758 94.51137,100.25758C95.8587,100.25758 96.52737,100.25758 97.8447,100.25758C98.4897,100.25758 99.74969,100.25758 100.3647,100.25758C100.9697,100.25758 102.1497,100.25758 102.7247,100.25758C103.8447,100.25758 104.92336,100.25758 105.4452,100.25758C106.44887,100.25758 107.39253,100.25758 108.67803,100.25758C109.4407,100.25758 110.13937,100.25758 111.10236,100.25758C112.01137,100.25758 112.90687,100.25758 113.77537,100.25758C114.8447,100.25758 115.5542,100.25758 116.40687,100.25758C117.41003,100.25758 118.17536,100.25758 119.12603,100.25758C120.11137,100.25758 121.01137,100.25758 121.81136,100.25758C122.64736,100.25758 123.72395,100.49348 124.44203,100.17224C125.20419,99.83128 125.8127,99.25825 126.71136,99.25758C127.61137,99.2569 128.51137,99.25758 129.4007,99.25758C130.29936,99.25758 131.3447,99.25758 132.02119,99.25758C132.79669,99.25758 133.8447,99.25758 134.79669,99.25758C135.52119,99.25758 136.65453,99.25758 137.3302,99.25758L138.07387,99.25758L138.87753,99.25758" id="svg_22" stroke-width="3" stroke="#000" fill="none"/>
  <path t="98626,98663,98663,98679,98687,98687,98695,98695,98703,98703,98703,98710,98710,98710,98710,98710,98718,98718,98718,98718,98718,98726,98726,98726,98726,98726,98726,98726,98734,98734,98734,98734,98734,98734,98734,98741,98742,98742,98742,98742,98742,98742,98742,98750,98750,98750,98750,98750,98750,98750,98751,98751,98757,98758,98758,98758,98758,98758,98758,98758,98765,98766,98766,98766,98766,98766,98766,98766,98774,98774,98774,98774,98774,98774,98774,98774,98774,98783,98784,98784,98784,98784,98784,98784,98784,98790,98790,98790,98790,98790,98790,98790,98790,98798,98799,98799,98799,98799,98799,98799,98799,98806,98806,98806,98806,98806,98806,98806,98806,98806,98816,98816,98816,98816,98816,98816,98817,98817,98817,98822,98822,98822,98822,98822,98822,98822,98822,98822,98832,98832,98832,98832,98832,98833,98833,98833,98833,98838,98838,98838,98838,98838,98838,98838,98838,98838,98846,98846,98846,98846,98846,98846,98846,98847,98847,98854,98854,98854,98854,98854,98855,98855,98855,98855,98861,98862,98862,98862,98863,98863,98863,98863,98863,98870,98870,98870,98870,98870,98870,98870,98871,98871,98877,98877,98877,98878,98878,98878,98878,98878,98878,98885,98885,98886,98886,98886,98886,98886,98887,98887,98894,98894,98895,98895,98895,98895,98896,98896,98896,98901,98901,98902,98902,98902,98902,98903,98903,98903,98910,98910,98912,98913,98913,98914,98914,98914,98914,98917,98918,98918,98918,98918,98918,98918,98918,98918,98925,98925,98925,98925,98925,98925,98926,98926,98926,98933,98933,98933,98933,98933,98933,98933,98934,98934,98941,98941,98941,98941,98941,98941,98942,98942,98942,98949,98949,98949,98949,98949,98949,98949,98950,98950,98957,98957,98957,98957,98957,98957,98957,98958,98958,98965,98965,98965,98965,98965,98965,98966,98966,98966,98973,98973,98973,98973,98973,98973,98974,98974,98974,98981,98982,98982,98982,98982,98982,98989,98989,98989,98990,98998,98998,98998,99005,99005,99013,99013,99021,99021,99030,99030,99037,99038,99045,99046,99046,99053,99053,99061,99062,99062,99069,99069,99069,99077,99077,99077,99085,99085,99093,99093,99093,99093,99100,99101,99101,99101,99109,99109,99117,99117,99125,99125,99125,99133,99141,99325,99349,99373,99413,99445" d="M170.01137,104.25758C172.60686,103.31474 173.52603,103.25825 174.51137,103.25758C175.4967,103.25691 176.22203,103.25758 177.21136,103.25758C178.01137,103.25758 179.01189,103.27836 179.84337,103.24691C180.5838,103.2189 181.51208,103.09541 182.26604,102.97358C183.10953,102.83727 184.00572,102.67164 184.93004,102.54158C185.8432,102.41309 186.72809,102.33082 187.59669,102.29358C188.47226,102.25604 189.38069,102.25825 190.3447,102.25758C191.38336,102.25686 191.93019,102.25758 193.07387,102.25758C193.6687,102.25758 194.27753,102.25758 194.89937,102.25758C196.83287,102.25758 197.4967,102.25758 198.16853,102.25758C198.84737,102.25758 199.5322,102.25758 200.91586,102.25758C201.6127,102.25758 203.01137,102.25758 203.71153,102.25758C204.4127,102.25758 205.11586,102.25758 205.82204,102.25758C207.24736,102.25758 207.96854,102.25758 208.6967,102.25758C210.17802,102.25758 210.93269,102.25758 211.69536,102.25758C212.46404,102.25758 213.23669,102.25758 214.01137,102.25758C214.78603,102.25758 215.5587,102.25758 216.32736,102.25758C217.8447,102.25758 218.58986,102.25758 219.32603,102.25758C220.0542,102.25758 221.49052,102.25758 222.2007,102.25758C222.90686,102.25758 223.61003,102.25758 225.01137,102.25758C225.71153,102.25758 226.4127,102.25758 227.82204,102.25758C228.5322,102.25758 229.24736,102.25758 229.96854,102.25758C230.6967,102.25758 232.17802,102.25758 232.93269,102.25758C233.69536,102.25758 234.46404,102.25758 235.23669,102.25758C236.01137,102.25758 236.78603,102.25758 237.5587,102.25758C238.32736,102.25758 239.8447,102.25758 241.32603,102.25758C242.0542,102.25758 242.77536,102.25758 243.49052,102.25758C244.2007,102.25758 244.90686,102.25758 245.61003,102.25758C247.01137,102.25758 248.41136,102.25758 249.11136,102.25758C249.81137,102.25758 250.51137,102.25758 251.21136,102.25758C251.91136,102.25758 252.61136,102.25758 254.7117,102.25758C255.41403,102.25758 256.12036,102.25758 256.8327,102.25758C257.55304,102.25758 258.28336,102.25758 259.0257,102.25758C259.78204,102.25758 261.3447,102.25758 262.15436,102.25758C262.98203,102.25758 263.82568,102.25758 264.68335,102.25758C265.55304,102.25758 266.43271,102.25758 267.32037,102.25758C268.21402,102.25758 270.01135,102.25758 270.91119,102.25758C271.81003,102.25758 272.70688,102.25758 273.60071,102.25758C274.49054,102.25758 275.37537,102.25758 276.25421,102.25758C277.12604,102.25758 278.8447,102.25758 279.69003,102.25758C280.52737,102.25758 281.3587,102.25758 282.18604,102.25758C283.01135,102.25758 283.8367,102.25758 284.66403,102.25758C285.49536,102.25758 287.17804,102.25758 288.03268,102.25758C288.89536,102.25758 289.76404,102.25758 290.63669,102.25758C291.51135,102.25758 292.38602,102.25758 293.2587,102.25758C294.12735,102.25758 295.8447,102.25758 296.69019,102.25758C297.52869,102.25758 298.36319,102.25758 299.19669,102.25758C300.0322,102.25758 300.87271,102.25758 301.72119,102.25758C302.58069,102.25758 304.3447,102.25758 305.25421,102.25758C306.18069,102.25758 307.12119,102.25758 308.07269,102.25758C309.0322,102.25758 309.9967,102.25758 310.9632,102.25758C311.92871,102.25758 313.8447,102.25758 314.79019,102.25758C315.7287,102.25758 316.66321,102.25758 317.59671,102.25758C318.5322,102.25758 319.47269,102.25758 320.4212,102.25758C321.38071,102.25758 323.3447,102.25758 324.35419,102.25758C325.38071,102.25758 326.4212,102.25758 327.47269,102.25758C328.5322,102.25758 329.59671,102.25758 330.66321,102.25758C331.7287,102.25758 333.8447,102.25758 334.88986,102.25758C335.92603,102.25758 336.95419,102.25758 337.97537,102.25758C338.99054,102.25758 340.0007,102.25758 341.00687,102.25758C342.01004,102.25758 344.01135,102.25758 345.0112,102.25758C346.01004,102.25758 347.00687,102.25758 348.0007,102.25758C348.99054,102.25758 349.97537,102.25758 350.95419,102.25758C351.92603,102.25758 353.8447,102.25707 354.79004,102.25774C355.72736,102.25841 356.65872,102.26006 357.58603,102.26824C358.51138,102.27641 359.4368,102.29014 360.36404,102.31474C361.29547,102.33945 363.17825,102.42049 364.13254,102.47891C365.09427,102.5378 366.05963,102.60917 367.02603,102.68291C367.99063,102.75651 368.94992,102.83383 369.90152,102.90491C370.84192,102.97515 372.67783,103.09503 373.56836,103.13608C374.44052,103.17628 375.29697,103.2033 376.13937,103.22158C376.96964,103.23959 377.79004,103.2484 378.60236,103.25307C379.40869,103.25772 381.01135,103.25758 381.81119,103.25758C382.61005,103.25758 383.40686,103.25758 384.20068,103.25758C384.99054,103.25758 385.77536,103.25758 386.5542,103.25758C387.32602,103.25758 388.8447,103.25758 389.59021,103.25758C390.3287,103.25758 391.0632,103.25758 391.79669,103.25758C392.5322,103.25758 393.27271,103.25758 394.02121,103.25758C394.7807,103.25758 396.3447,103.25758 397.15421,103.25758C397.98071,103.25758 398.8212,103.25758 399.6727,103.25758C400.5322,103.25758 401.3967,103.25758 402.26318,103.25758C403.12869,103.25758 404.8447,103.25758 405.6897,103.25758C406.52469,103.25758 407.3497,103.25758 408.1647,103.25758C408.9697,103.25758 409.76471,103.25758 410.54971,103.25758C411.32471,103.25758 412.8447,103.25758 413.58987,103.25758C414.32602,103.25758 415.0542,103.25758 415.77536,103.25758C416.49054,103.25758 417.20068,103.25758 417.90686,103.25758C418.61005,103.25758 420.01135,103.25758 420.71088,103.25758C421.40738,103.25758 422.09787,103.25758 422.77936,103.25758C423.44885,103.25758 424.10336,103.25758 424.73987,103.25758C425.35538,103.25758 426.51135,103.25758 427.04721,103.25758C427.55804,103.25758 428.04886,103.25758 428.52469,103.25758C428.99054,103.25758 429.45135,103.25758 429.9122,103.25758C430.37802,103.25758 431.3447,103.25758 431.85385,103.25758C432.37802,103.25758 432.9122,103.25758 433.45135,103.25758C433.99054,103.25758 434.52469,103.25758 435.04886,103.25758C435.55804,103.25758 436.51135,103.25758 436.94687,103.25758C437.35538,103.25758 437.73987,103.25758 438.10336,103.25758C438.44885,103.25758 438.77936,103.25758 439.09787,103.25758C439.40738,103.25758 440.01135,103.25758 440.31137,103.25758C440.61136,103.25758 440.91138,103.25758 441.21136,103.25758C441.81137,103.25758 443.01135,103.25758 443.61136,103.25758C444.51135,103.25758 445.41138,103.25758 446.31104,103.25758C447.19003,103.25758 447.99704,103.25758 449.04202,103.25758C449.89404,103.25758 450.84735,103.25758 451.6127,103.25758C452.61136,103.25758 453.41138,103.25758 454.41138,103.25758C455.21136,103.25758 456.21136,103.25758 457.01135,103.25758C458.01135,103.25758 458.81137,103.25758 459.61136,103.25758C460.61588,103.25758 461.46854,103.25758 462.43271,103.25758C463.23669,103.25758 464.05869,103.25758 465.09003,103.25758C466.01135,103.25758 466.69537,103.25758 467.69537,103.25758C468.51135,103.25758 469.32736,103.25758 470.3287,103.25758C471.27271,103.25758 472.3447,103.25758 472.98071,103.25758C473.6727,103.25758 474.76318,103.25758 475.8447,103.25758C476.52469,103.25758 477.4697,103.25758 478.32471,103.25758C479.32602,103.25758 480.20068,103.25758 481.21136,103.25758C482.01135,103.25758 483.01135,103.25758 483.80069,103.25758C484.52603,103.25758 485.49054,103.25758 486.41138,103.25758C487.31137,103.25758 488.21136,103.25758 489.11121,103.25758L490.01135,103.25758L490.81268,103.25758" id="svg_23" stroke-width="3" stroke="#000" fill="none"/>
  <path t="100895,100998,100998,101006,101015,101030,101030,101039,101039,101048,101048,101048,101053,101053,101062,101063,101069,101069,101069,101069,101069,101077,101077,101077,101077,101077,101077,101084,101085,101085,101085,101085,101085,101093,101093,101093,101093,101093,101093,101093,101101,101101,101101,101101,101101,101101,101101,101101,101109,101109,101109,101109,101109,101109,101109,101109,101117,101117,101117,101117,101117,101117,101117,101117,101117,101125,101125,101125,101125,101125,101125,101125,101125,101133,101133,101133,101133,101133,101133,101133,101133,101133,101141,101141,101141,101141,101141,101141,101141,101141,101148,101148,101149,101149,101149,101149,101149,101149,101157,101157,101157,101157,101157,101157,101157,101157,101165,101165,101165,101165,101165,101165,101165,101173,101173,101173,101173,101173,101173,101180,101180,101180,101181,101181,101181,101189,101189,101189,101189,101189,101189,101197,101197,101197,101197,101197,101205,101205,101205,101205,101205,101213,101214,101214,101214,101214,101214,101221,101221,101221,101221,101221,101221,101230,101230,101230,101230,101230,101230,101231,101237,101237,101237,101237,101237,101237,101238,101246,101246,101246,101246,101246,101247,101253,101253,101253,101253,101253,101253,101253,101261,101261,101261,101261,101262,101262,101262,101269,101269,101269,101269,101269,101269,101277,101277,101277,101277,101277,101285,101285,101285,101285,101285,101293,101293,101293,101293,101300,101301,101301,101301,101309,101309,101309,101309,101316,101317,101317,101325,101325,101325,101333,101333,101348,101381,101389,101389,101397,101397,101406,101421,101431,101431,101437,101438,101446,101453,101462,101701,101726,101726,101734,101753,101753,101759,101759,101767,101773,101773,101789,101942,102013,102021,102031,102031,102046,102046,102046,102053,102053,102053,102053,102053,102066,102066,102067,102067,102069,102069,102069,102069,102069,102069,102069,102069,102077,102078,102078,102078,102078,102078,102079,102085,102085,102085,102085,102085,102085,102093,102093,102093,102093,102093,102093,102093,102101,102101,102101,102101,102101,102101,102101,102101,102109,102109,102109,102109,102110,102110,102110,102110,102117,102117,102117,102117,102117,102117,102118,102125,102125,102125,102125,102126,102126,102126,102133,102133,102133,102133,102133,102133,102141,102141,102141,102141,102149,102149,102149,102149,102157,102157,102157,102165,102165,102166,102173,102173,102173,102181,102181,102181,102189,102189,102189,102189,102197,102197,102205,102205,102214,102214,102221,102221,102477,102487,102494,102503,102526,102535,102544,102671,102671,102678,102702,102774,102783,102784,102794,102805,102808,102809,102809,102818,102818,102819,102819,102819,102821,102822,102822,102822,102832,102832,102833,102833,102833,102837,102837,102838,102838,102838,102838,102846,102846,102846,102846,102847,102847,102847,102847,102852,102853,102853,102853,102853,102853,102854,102854,102862,102863,102863,102863,102864,102864,102864,102864,102865,102868,102869,102869,102869,102869,102869,102869,102869,102870,102877,102878,102878,102879,102879,102879,102879,102880,102880,102885,102885,102885,102885,102886,102886,102886,102886,102886,102893,102893,102894,102894,102894,102895,102895,102895,102895,102900,102901,102901,102901,102901,102901,102902,102902,102902,102909,102909,102909,102909,102909,102910,102910,102910,102916,102917,102917,102917,102918,102918,102918,102918,102918,102925,102925,102926,102926,102926,102926,102926,102926,102937,102937,102937,102938,102938,102938,102938,102938,102941,102941,102941,102942,102942,102942,102942,102951,102952,102952,102952,102952,102952,102953,102957,102957,102957,102957,102957,102958,102965,102965,102965,102966,102966,102973,102973,102974,102974,102981,102982,102982,102989,102989,102990,102990,102998,102998,103005,103005,103005,103014,103014,103015,103015,103021,103021,103021,103021,103022,103031,103032,103032,103032,103037,103037,103037,103037,103037,103046,103046,103046,103047,103053,103053,103054,103054,103062,103063,103063,103063,103069,103069,103069,103077,103078,103085" d="M7.01136,65.25758C7.11136,65.03625 7.77999,64.40585 8.71136,64.26208C9.56526,64.13026 10.45436,64.25758 11.2327,64.25758C12.21136,64.25758 13.01136,64.25758 14.01136,64.25758C14.81137,64.25758 15.61136,64.25758 16.61136,64.25758C17.41137,64.25758 18.41403,64.25758 19.28337,64.25758C20.3447,64.25758 20.9847,64.25758 21.7047,64.25758C22.5047,64.25758 23.3847,64.25758 24.8542,64.25758C25.3807,64.25758 26.4727,64.25758 27.0322,64.25758C27.5967,64.25758 28.7287,64.25758 29.8447,64.25758C30.92736,64.25758 31.4587,64.25758 32.51136,64.25758C33.0367,64.25758 34.09536,64.25758 35.17803,64.25758C36.29937,64.25758 36.87753,64.25758 37.4687,64.25758C38.69403,64.25758 39.3302,64.25758 39.98336,64.25758C41.3447,64.25758 42.0542,64.25758 43.5212,64.25758C44.2727,64.25758 45.0322,64.25758 45.7967,64.25758C46.5632,64.25758 47.3287,64.25758 48.8447,64.25758C49.59003,64.25758 50.32737,64.25758 51.0587,64.25758C51.78603,64.25758 52.51136,64.25758 53.2367,64.25758C53.96403,64.25758 56.17803,64.25758 56.9327,64.25758C57.69537,64.25758 58.46403,64.25758 59.2367,64.25758C60.01136,64.25758 60.78603,64.25758 61.5587,64.25758C62.32737,64.25758 63.8447,64.25758 64.59003,64.25758C65.32736,64.25758 66.0587,64.25758 66.78603,64.25758C67.51137,64.25758 68.96404,64.25758 69.69537,64.25758C71.17803,64.25758 71.9327,64.25758 72.69537,64.25758C73.46404,64.25758 74.23669,64.25758 75.01137,64.25758C75.78603,64.25758 76.5587,64.25758 77.32736,64.25758C78.8447,64.25758 79.58987,64.25758 80.32603,64.25758C81.0542,64.25758 81.77537,64.25758 83.2007,64.25758C83.90687,64.25758 84.61003,64.25758 86.01137,64.25758C86.71136,64.25758 87.41136,64.25758 88.11137,64.25758C89.51137,64.25758 90.21136,64.25758 90.91136,64.25758C91.61137,64.25758 93.01137,64.25758 93.71136,64.25758C94.41136,64.25758 95.81136,64.25758 96.51137,64.25758C97.21136,64.25758 97.91136,64.25758 98.61137,64.25758C100.01137,64.25758 100.71103,64.25758 102.10236,64.25758C102.79003,64.25758 103.4697,64.25758 104.13937,64.25758C104.79703,64.25758 106.67803,64.25758 107.26836,64.25758C107.8407,64.25758 108.93936,64.25758 109.99003,64.25758C110.50237,64.25758 112.01137,64.25758 112.51137,64.25758C113.51137,64.25758 114.01137,64.25758 115.01137,64.25758C116.01137,64.25758 117.01137,64.25758 118.01137,64.25758C118.51137,64.25758 119.51137,64.25758 120.51137,64.25758C121.01137,64.25758 122.5112,64.25758 123.01003,64.25758C124.00069,64.25758 124.97536,64.25758 125.4542,64.25758C126.8447,64.25758 127.7287,64.25758 128.59669,64.25758C129.4727,64.25758 129.9212,64.25758 131.3447,64.25758C132.37936,64.25758 132.9167,64.25758 134.01137,64.25758C134.5607,64.25758 135.10603,64.25758 136.67802,64.25758C137.6447,64.25758 138.11053,64.25758 139.0322,64.25758C139.97386,64.25758 140.46469,64.25758 142.0757,64.25758C142.66603,64.25758 143.27837,64.25758 144.55302,64.25758C145.20737,64.25758 145.86769,64.25758 146.53003,64.25758C148.48987,64.25758 149.12604,64.25758 149.7542,64.25758C150.37537,64.25758 151.60069,64.25758 152.20686,64.25758C152.81003,64.25758 154.61136,64.25758 155.21136,64.25758C155.81137,64.25758 157.01137,64.25758 157.61136,64.25758C158.21136,64.25758 160.01137,64.25758 160.61136,64.25758C161.21136,64.25758 162.41136,64.25758 163.01137,64.25758C163.61136,64.25758 164.81137,64.25758 166.01137,64.25758C166.61119,64.25758 167.80687,64.25758 168.4007,64.25758C168.99052,64.25758 170.15421,64.25758 170.72603,64.25758C172.38986,64.25758 172.92603,64.25758 173.97537,64.25758C174.49052,64.25758 175.50687,64.25758 176.01003,64.25758C177.5112,64.25758 178.50687,64.25758 179.0007,64.25758C179.97537,64.25758 180.92603,64.25758 181.8447,64.25758C182.72603,64.25758 183.57536,64.25758 184.4007,64.25758C185.21004,64.25758 186.41119,64.25758 187.20686,64.25758C187.99052,64.25758 188.7542,64.25758 190.19003,64.25758C190.8587,64.25758 191.51137,64.25758 192.49536,64.25758C193.5327,64.25758 194.26404,64.25758 195.01137,64.25758C196.12737,64.25758 197.1897,64.25758 197.8497,64.25758C198.76469,64.25758 199.8447,64.25758 200.5542,64.25758C201.40686,64.25758 202.41003,64.25758 203.3542,64.25758C204.2542,64.25758 205.21268,64.3061 206.11153,64.25741C206.90015,64.21469 207.64529,63.85672 208.52736,63.54158C209.34975,63.24775 210.29803,63.25758 211.17802,63.25758C212.01137,63.25758 212.98987,63.25758 213.81003,63.25758C214.71136,63.25758 215.61136,63.25758 216.51137,63.25758C217.4007,63.25758 218.01137,62.81474 218.01137,62.07224C218.01137,61.14291 218.01137,60.25758 218.01137,59.37224C218.01137,58.43224 218.01137,57.74158 218.01137,56.75758C218.01137,55.77358 218.01137,55.08291 218.01137,54.01925C218.01137,53.09091 217.68294,51.97317 218.23286,51.37891C218.79665,50.76968 219.6888,50.40174 220.51137,50.25758C221.31775,50.11625 222.18204,50.25758 223.17802,50.25758C223.8967,50.25758 224.64737,50.25758 225.42203,50.25758C226.21269,50.25758 227.41187,50.25758 228.22487,50.25758C229.07387,50.25758 229.98286,50.25758 231.51137,50.25758C232.0757,50.25758 232.66603,50.25758 233.90869,50.25758C234.55302,50.25758 235.20737,50.25758 235.86769,50.25758C236.53003,50.25758 238.48987,50.25758 239.12604,50.25758C239.7542,50.25758 240.37537,50.25758 241.60069,50.25758C242.20686,50.25758 242.81003,50.25758 244.61136,50.25758C245.21136,50.25758 245.81137,50.25758 247.01137,50.25758C247.61136,50.25758 248.21136,50.25758 250.01137,50.25758C250.61153,50.25758 251.21269,50.25758 252.42203,50.25758C253.0322,50.25758 253.64737,50.25758 254.8967,50.25758C256.17804,50.25758 256.83286,50.25758 257.4967,50.25758C258.16852,50.25758 259.5322,50.25758 260.22205,50.25758C260.91586,50.25758 261.6127,50.25758 263.01135,50.25758C263.71136,50.25758 265.11136,50.25758 265.81137,50.25758C266.51135,50.25758 267.21136,50.25758 267.91138,50.25758C268.61136,50.25758 270.01135,50.25758 271.41003,50.25758C272.10687,50.25758 272.80069,50.25758 273.49054,50.25758C274.17535,50.25758 274.85419,50.25758 276.8447,50.25758C277.48969,50.25758 278.12469,50.25758 278.74969,50.25758C279.9697,50.25758 280.5647,50.25758 281.14969,50.25758C282.8447,50.25758 283.38953,50.25758 284.44519,50.25758C284.95404,50.25758 285.92871,50.25758 286.83936,50.25758C288.06854,50.25758 288.80154,50.25758 289.82602,50.25758C290.49402,50.25758 291.53268,50.25758 292.26404,50.25758C293.38602,50.25758 294.12735,50.25758 295.1897,50.25758C295.8497,50.25758 296.76471,50.25758 297.8447,50.25758C298.78604,50.25758 299.46402,50.25758 300.43286,50.25758C301.24738,50.25758 302.11588,50.25758 303.31137,50.25758C303.91138,50.25758 304.81137,50.25758 306.01135,50.25758C306.61005,50.25758 307.49054,50.25758 308.32602,50.25758C309.32602,50.25758 310.20068,50.25758 311.21136,50.25758C312.01135,50.25758 313.01135,50.25758 313.80069,50.25758C314.8447,50.25758 315.68546,49.89885 316.49054,50.27841C317.19592,50.61097 317.01135,51.75758 317.01135,52.64691C317.01135,53.61474 317.01135,54.45758 317.01135,55.35758C317.01135,56.25758 317.13126,57.03744 317.58603,57.85758C318.01978,58.6398 318.15704,59.66232 319.01135,60.09091C319.74155,60.45723 320.71136,60.25758 321.55304,60.25758C322.55453,60.25758 323.29404,60.25758 324.17752,60.25758C325.17804,60.25758 325.8967,60.25758 326.64737,60.25758C327.42203,60.25758 328.21271,60.25758 329.41153,60.25758C330.21585,60.25758 331.0322,60.25758 331.86853,60.25758C333.17804,60.25758 334.09537,60.25758 334.56403,60.25758C335.51135,60.25758 336.45871,60.25758 337.8447,60.25758C338.29053,60.25758 339.17221,60.25758 340.07385,60.25758C341.03552,60.25758 341.55136,60.25758 342.67804,60.25758C343.95135,60.25758 344.63553,60.25758 345.3447,60.25758C346.07385,60.25758 346.81802,60.25758 347.5722,60.25758C348.33136,60.25758 349.8447,60.25758 350.59021,60.25758C351.3287,60.25758 352.79669,60.25758 353.5322,60.25758C354.27271,60.25758 355.02121,60.25758 355.7807,60.25758C357.3447,60.25758 358.15402,60.25758 358.97937,60.25758C359.81671,60.25758 360.66202,60.25758 361.51135,60.25758C362.36069,60.25758 363.20602,60.25758 364.04337,60.25758C365.67804,60.25758 366.46854,60.25758 367.24203,60.25758C368.00153,60.25758 368.75003,60.25758 369.49054,60.25758C370.22604,60.25758 370.95953,60.25758 371.69403,60.25758C373.17804,60.25758 373.93304,60.25758 374.69803,60.25758C375.47302,60.25758 376.25803,60.25758 377.05304,60.25758C377.85803,60.25758 378.67303,60.25758 379.49802,60.25758C381.17804,60.25758 382.03268,60.25758 382.89536,60.25758C383.76404,60.25758 384.63669,60.25758 385.51135,60.25758C386.38602,60.25758 387.2587,60.25758 388.12735,60.25758C389.8447,60.25758 390.6897,60.25758 391.52469,60.25758C392.3497,60.25758 393.1647,60.25758 393.9697,60.25758C394.76471,60.25758 395.54971,60.25758 396.32471,60.25758C397.8447,60.25758 398.58987,60.25758 399.32602,60.25758C400.0542,60.25758 400.77536,60.25758 401.49054,60.25758C402.20068,60.25758 402.90686,60.25758 403.61005,60.25758C405.01135,60.25758 405.71152,60.25758 406.41269,60.25758C407.82202,60.25758 408.5322,60.25758 409.24738,60.25758C409.96854,60.25758 410.69669,60.25758 412.17804,60.25758C412.93271,60.25758 413.69537,60.25758 414.46402,60.25758C415.23669,60.25758 416.01135,60.25758 416.78604,60.25758C417.55869,60.25758 418.32736,60.25758 420.58987,60.25758C421.32602,60.25758 422.0542,60.25758 422.77536,60.25758C423.49054,60.25758 424.20068,60.25758 424.90686,60.25758C425.61005,60.25758 427.01135,60.25758 428.41138,60.25758C429.11136,60.25758 429.81137,60.25758 430.51135,60.25758C431.21136,60.25758 431.91138,60.25758 432.61136,60.25758C434.71121,60.25758 435.41003,60.25758 436.10687,60.25758C436.80069,60.25758 437.49054,60.25758 438.17535,60.25758C439.52603,60.25758 440.8447,60.25758 441.48969,60.25758C442.12469,60.25758 443.36469,60.25758 443.9697,60.25758C444.5647,60.25758 445.7247,60.25758 446.8447,60.25758C447.92603,60.25758 448.45419,60.25758 449.49054,60.25758C450.0007,60.25758 451.01004,60.25758 452.01135,60.25758C453.0087,60.25758 453.99002,60.25758 454.4697,60.25758C455.39703,60.25758 456.67804,60.25758 457.4407,60.25758C458.4697,60.25758 459.10236,60.25758 460.31137,60.25758C461.21136,60.25758 461.81137,60.25758 463.01135,60.25758C463.90686,60.25758 464.49054,60.25758 465.32602,60.25758C466.5542,60.25758 467.20068,60.25758 468.2117,60.25758C469.05304,60.25758 469.78204,60.25758 470.98337,60.25758C471.69403,60.25758 472.46869,60.25758 473.29938,60.25758C474.63254,60.25758 475.09402,60.25758 476.02603,60.25758C476.95004,60.25758 477.84204,60.25758 479.0687,60.25758C479.80603,60.25758 480.51135,60.25758 481.21671,60.25758C482.3447,60.25758 483.17935,60.25758 484.06204,60.25758C484.96069,60.25758 485.84335,60.25758 487.06854,60.25758C487.80154,60.25758 488.49054,60.25758 489.49402,60.25758C490.53287,60.25758 491.26852,60.25758 492.0322,60.25758C492.81586,60.25758 494.01135,60.25758 494.80869,60.25758C495.59003,60.25758 496.33936,60.25758 497.67804,60.25758C498.49704,60.25758 499.19003,60.25758 500.21121,60.25758L500.99054,60.25758L502.12604,60.25758" id="svg_24" stroke-width="3" stroke="#000" fill="none"/>
  <path t="105912,105965,105981,105990,105990,105997,106037,106045,106070,106070,106117,106157,106165,106197,106213,106221,106231,106237,106238,106246,106246,106254,106254,106263,106269,106269,106278,106278,106285,106285,106293,106431,106518,106518,106542,106550,106558,106566,106573,106589,106590,106597,106597,106606,106606,106613,106614,106622,106622,106631,106638,106647,106654,106654,106846,106847,106862,106862,106886,106901,106910,106910,106918,106926,106927,106934,106935,106942,106942,106942,106950,106950,106950,106958,106958,106958,106966,106966,106974,106974,106974,106982,106982,106990,106990,107005,107022,107022,107037,107038,107050,107054,107069,107070,107085,107094,107094,107101,107110,107165,107174,107189,107198,107206,107230,107230,107238,107269,107294,107325,107341,107357,107373,107405,107469,107477,107486,107486,107495,107495,107502,107511,107511,107519,107526,107534,107535" d="M126.01137,273.25757C124.21136,273.25757 123.35988,273.24573 122.52737,273.54156C121.82128,273.79248 120.49912,273.92273 120.06853,274.61475C119.62219,275.33209 119.71052,276.30841 119.36403,276.95758C118.91068,277.80695 118.89529,278.97684 119.6587,279.25308C120.48008,279.55032 121.41136,279.25757 122.31136,279.25757C123.21136,279.25757 124.11153,279.25757 124.8967,279.25757C125.84737,279.25757 126.6127,279.25757 127.60686,279.25757C128.52603,279.25757 129.38603,279.25757 130.33287,279.25757C131.22203,279.25757 132.2112,279.25757 132.99052,279.25757C133.8447,279.25757 134.70749,279.22385 135.61136,279.25757C136.57738,279.29361 136.96802,279.96658 137.01003,280.7749C137.0657,281.84613 137.34686,282.82669 138.11136,283.13608C138.9532,283.47678 139.69623,283.71719 140.45419,284.13608C141.11127,284.49921 142.12738,284.25327 142.89537,284.25757C143.84741,284.26291 144.63904,284.26038 145.60686,284.61475C146.38072,284.8981 147.04778,285.58102 147.81003,285.97223C148.64995,286.40332 149.61136,286.25757 150.5322,286.25757C151.4967,286.25757 152.22203,286.25757 153.2112,286.25757C153.99052,286.25757 154.98987,286.25757 155.81003,286.25757C156.71136,286.25757 157.66646,286.27933 158.49403,285.97357C159.32463,285.66672 160.1167,285.2049 160.88336,284.82156C161.61403,284.45624 162.39034,284.00882 163.21136,283.69357C164.1902,283.31775 165.03578,283.28226 165.6967,283.17358C166.70221,283.00824 167.53313,282.7634 168.32736,282.37091C169.11415,281.98209 169.74135,281.39401 170.40686,280.96741C171.36772,280.35147 172.26431,280.32159 173.21136,279.81476C173.85635,279.46957 174.37743,278.8598 175.2112,278.27924C175.96233,277.75623 176.83423,277.35992 177.60069,277.26825C178.50546,277.16003 179.29567,276.87268 179.8967,276.45624C180.80807,275.8248 181.54582,275.59909 182.49052,275.25757C183.3307,274.95383 184.04369,274.5105 184.81137,274.17358C185.57347,273.83914 186.49254,273.30908 187.18604,273.26825C188.2524,273.20544 189.37067,273.841 189.99052,273.21591C190.56059,272.64102 190.50272,271.73413 190.92603,270.97223C191.37224,270.16913 191.31221,269.20673 191.65869,268.55759C192.11206,267.70819 192.15434,266.74442 192.0007,265.85757C191.85652,265.02539 190.95879,264.5932 190.17802,264.25757C189.50035,263.96625 188.71272,263.28616 187.81137,263.25757C186.91182,263.229 186.01137,263.25757 185.2542,263.25757C184.3587,263.25757 183.49536,263.25757 182.51137,263.25757C181.69003,263.25757 180.8367,263.25757 179.8967,263.25757L178.91136,263.25757L178.01137,263.25757L177.21136,263.25757" id="svg_25" stroke-width="3" stroke="#000" fill="none"/>
  <path t="108201,108231,108239,108248,108266,108272,108279,108287,108295,108302,108326,108326,108333,108333,108342,108342,108349,108358,108358,108365,108365,108365,108374,108382,108382,108389,108390,108405,108405,108413,108413,108413,108421,108421,108430,108430,108437,108446,108454,108454,108463,108463,108470,108470,108478,108478,108485,108494,108501,108502,108510,108510,108510,108518,108527,108538,108542,108542,108549,108549,108558,108568,108568,108573,108573,108582,108589,108589,108597,108597,108606,108613,108613,108621,108630,108638,108653,108653,108669,108821,108821" d="M120.01137,282.25757C121.71136,282.31476 122.43311,282.94452 123.30686,283.20041C124.19707,283.46112 124.95749,283.61127 125.51137,284.25757C126.03556,284.86923 126.37726,285.76697 127.21136,286.17358C127.96494,286.54095 128.69171,286.9827 129.31587,287.55759C129.87959,288.07681 130.63426,288.62094 131.52736,288.97223C132.35277,289.29691 133.18948,289.58121 133.8257,289.96207C134.74727,290.51376 135.50249,290.76639 136.24336,290.97223C137.33868,291.27655 138.20076,291.37494 139.01137,291.77841C139.87192,292.20676 140.45911,292.8699 141.33304,293.13608C142.02849,293.3479 143.17802,293.25757 143.95953,293.25757C144.75003,293.25757 145.67802,293.25757 146.62604,293.25757C147.49536,293.25757 148.3587,293.25757 149.2542,293.25757C150.21136,293.25757 151.11153,293.25757 151.8967,293.25757C152.84737,293.25757 153.6127,293.25757 154.61136,293.25757C155.41136,293.25757 156.41003,293.25757 157.17537,293.25757C158.12604,293.25757 159.11136,293.25757 160.01137,293.25757C160.8257,293.25757 161.77936,293.25757 162.51137,293.25757C163.24336,293.25757 164.33937,293.25757 165.31137,293.25757C166.21269,293.25757 167.17802,293.25757 167.8367,293.25757C168.8447,293.25757 169.70686,293.2583 170.64737,293.25757C171.49536,293.2569 172.42484,293.35214 173.2542,292.90042C173.87904,292.56009 174.494,291.70288 175.3327,291.15775C175.98459,290.73404 176.88338,290.54153 177.70686,290.2049C178.56845,289.85269 179.21332,289.23615 179.65421,288.55759C180.16901,287.76526 180.77647,287.29523 181.51137,286.73676C182.17534,286.23218 182.71136,285.55759 183.41136,284.85757L184.01137,284.25757L184.6407,283.62823" id="svg_26" stroke-width="3" stroke="#000" fill="none"/>
  <path t="109256,109286,109295,109303,109303,109303,109303,109311,109311,109319,109319,109327,109327,109327,109334,109334,109342,109342,109342,109342,109350,109350,109350,109358,109358,109358,109365,109365,109365,109365,109374,109374,109374,109383,109383,109383,109389,109389,109389,109397,109397,109397,109397,109405,109405,109405,109405,109413,109413,109413,109421,109421,109421,109429,109429,109429,109429,109437,109437,109437,109445,109445,109445,109453,109453,109453,109461,109461,109461,109469,109469,109469,109478,109478,109478,109485,109485,109485,109493,109493,109501,109501,109501,109509,109509,109509,109517,109517,109525,109525,109533,109533,109541,109541,109549,109549,109557,109557,109564,109565,109573,109573,109581,109589,109596,109597,109597,109605,109605,109613,109637,109646" d="M101.01137,292.25757C102.81136,292.25757 103.57387,292.25513 104.51137,292.25757C105.37387,292.25983 106.03572,292.23663 107.0447,292.3429C107.97303,292.44064 108.93686,292.79181 109.8447,293.09091C110.62747,293.34882 111.49829,293.82501 112.0322,294.27841C112.61445,294.77286 113.40738,295.38239 114.24737,295.8829C115.17228,296.43402 115.69579,296.74091 116.51137,297.25757C117.05898,297.60446 118.0728,298.26984 118.78603,298.6109C119.44954,298.92819 120.43353,299.13138 121.24737,299.24292C122.11662,299.36203 123.02756,299.55435 123.91136,299.96741C124.52361,300.25357 125.3988,300.80026 126.3112,301.23608C126.89924,301.51697 127.78074,301.83319 128.8447,302.25757C129.56244,302.54385 130.21791,302.90454 131.43286,303.13608C131.96284,303.23709 132.82201,303.25223 134.01137,303.25757C134.91585,303.26163 135.5322,303.25757 136.4967,303.25757C137.5327,303.25757 138.26404,303.25757 139.01137,303.25757C139.7587,303.25757 141.1897,303.25757 141.8497,303.25757C142.76469,303.25757 143.8447,303.25757 144.5632,303.25757C145.27271,303.25757 146.3447,303.25757 147.3167,303.25757C148.01137,303.25757 148.70602,303.25757 149.96854,303.25757C150.75003,303.25757 151.45953,303.25757 152.6967,303.25757C153.5322,303.25757 154.11586,303.25757 155.3112,303.25757C156.2007,303.25757 156.77536,303.25757 158.09003,303.25757C158.78603,303.25757 159.46404,303.25757 160.6967,303.25757C161.5322,303.25757 162.11586,303.25757 163.31137,303.25757C164.21136,303.25757 164.81137,303.25757 166.01137,303.25757C166.90236,303.25757 167.4697,303.25757 168.67802,303.25757C169.51137,303.25757 170.3447,303.25757 171.27271,303.25757C172.0632,303.25757 173.08986,303.25757 173.99052,303.25757C174.61003,303.25757 175.61806,303.31641 176.41136,303.20041C177.42499,303.05219 178.22237,302.71774 178.98987,302.15741C179.64613,301.67831 180.13394,300.7153 180.64737,300.1189C181.24965,299.41928 182.35419,299.40231 182.84203,298.68823C183.30017,298.01764 183.38484,297.02133 183.8127,296.37357C184.42441,295.44748 184.8419,294.76611 184.99052,293.77841C185.11339,292.96185 185.15381,292.08047 185.5322,291.23676C185.79602,290.6485 186.30687,289.66208 186.65421,288.91473L186.95419,288.01474L187.01137,287.05759L187.01154,286.15756" id="svg_27" stroke-width="3" stroke="#000" fill="none"/>
 </g>
</svg>