<svg width="500.00000000000006" height="332.409972299169" xmlns="http://www.w3.org/2000/svg" xmlns:svg="http://www.w3.org/2000/svg" xmlns:xlink="http://www.w3.org/1999/xlink">
 <!-- Created with SVG-edit - http://svg-edit.googlecode.com/ -->
 <g display="inline" class="layer">
  <title>Layer 1</title>
  <path t="0,347,363,363,434,634,642,650,651,668,668,683,683,684,691,954,970,970,988,1010,1010,1035,1090,1090,1162,1210,1210,1242,1268,1268,1291,1300,1317,1338,1338,1362,1410,1467,1467,1498,1516,1570,1602,1602,1610,1610,1618,1658,1668,1698,1717,1717,1723,1754,1770,1938,1970,1970,1987,2010,2010,2019,2074,2074,2106,2106,2131,2131,2138,2178,2194,2210,2210,2338,2354,2354,2363,2402,2442,2490,2490,2514,2530,2530,2549,2594,2658,2698,2748,2748,2762,2789,2818,2818,2826,2858,2901,2901,2955,3162,3188,3226,3349,3426,3437,3458,3468,3499,3538,3549,3570,3683,3683,3699,3722,3778,3794,3827,3858,3874,3900,3962,3978,4010,4034,4050,4090,4116,4138,4186,4218,4242,4316,4347,4370,4387,4410,4467,4490,4506,4674,4690,4690,4698,4722,4756,4762,4787,4803,5594,5642,5683,5715,6362,6378,6626,6626,6638,6642,6642,6667,6674,6715,6818,6818,6850,6858,6870,6890,6907,6922,7258,7268,7298,7316,7690,7746,7890,8130,8268,8275,8306,8306,8347,8347,8690,8699,8699,8707,8707,8716,8717,8717,8717,8725,8725,8725,8731,8731,8738,8738,8738" d="M216.01137,112.3868C216.01137,111.52547 216.01137,110.55347 216.01137,109.79747C216.01137,108.8868 216.10683,107.94227 215.72737,107.18681C215.29178,106.3196 214.96321,105.58665 214.4407,104.90281C214.01653,104.34766 213.01712,103.54504 212.42036,103.14397C211.73219,102.68148 211.14864,101.94955 210.72737,101.18681C210.25819,100.3373 210.01204,99.58681 210.01137,98.75081C210.0107,97.90281 210.01137,97.03947 210.01137,96.01214C210.01137,95.06548 210.01137,94.3868 210.01137,93.4083C210.01137,92.3868 210.01137,91.58681 210.01137,90.75081C210.01137,89.90281 210.01137,89.03947 210.01137,88.0228C210.01137,87.08681 210.01137,86.18681 210.01137,85.28664C210.01137,84.50147 210.01137,83.57214 210.01137,82.62947C210.01137,81.81747 210.01137,81.03497 210.01137,80.0228C210.01137,79.08681 209.86964,78.14326 210.17802,77.3868C210.46327,76.6871 210.74541,75.66924 211.09537,74.95614C211.46362,74.20578 212.10977,73.59455 212.58603,72.82281C213.02615,72.1096 213.31824,71.34 213.72737,70.58681C214.16058,69.78929 214.68172,69.10304 215.2327,68.50814C215.82442,67.86926 216.59332,67.52977 217.3632,67.33414C218.27438,67.1026 219.00352,66.50951 219.81137,66.38814C220.71992,66.25163 221.33408,65.48856 222.0322,65.40764C222.98389,65.29733 223.89537,65.3868 224.8367,65.3868C225.52736,65.3868 226.44624,65.21682 227.1212,64.73947C227.787,64.26859 228.95015,64.73206 229.6497,64.32964C230.46356,63.86146 231.01137,63.38681 231.81137,63.38681C232.71136,63.38681 233.61136,63.38681 234.5322,63.38681C235.49536,63.38681 236.18604,63.38681 237.2587,63.38681C238.17802,63.38681 238.99052,63.38681 239.90154,63.38681C240.71587,63.38681 241.61136,63.38681 242.5322,63.38681C243.49536,63.38681 244.18604,63.38681 245.2542,63.38681C246.11136,63.38681 247.01176,63.36144 247.81137,63.38681C248.71272,63.41541 249.47194,63.90652 250.17802,64.55347C250.79691,65.12054 251.50117,65.57217 252.09537,66.10281C252.6967,66.63982 253.75258,66.93041 253.97537,67.7868C254.20215,68.65851 254.01137,69.58681 254.01137,70.48681C254.01137,71.3868 254.49452,71.99399 254.92603,72.67214C255.41919,73.44718 255.01137,74.48681 255.01137,75.3868C255.01137,76.18681 255.01137,77.08681 255.01137,77.98681C255.01137,78.8868 255.02203,79.77614 255.51137,80.3868C256.0007,80.99747 256.19626,81.7778 256.72736,82.38548C257.17136,82.89349 257.15546,83.75526 257.65869,84.43947C258.14871,85.10569 258.01135,86.08681 258.01135,86.98681C258.01135,87.8868 258.01135,88.7868 258.01135,89.68681C258.01135,90.58681 258.01135,91.48664 258.01135,92.33414C258.01135,93.18814 258.01135,94.08681 258.01135,94.98681C258.01135,95.8868 258.01135,96.7868 258.01135,97.68681C258.01135,98.58681 258.01135,99.48681 258.01135,100.3868C258.01135,101.18681 258.12814,101.91575 258.89005,102.38697C259.57947,102.81336 259.98276,103.68545 260.01135,104.58681C260.03989,105.48636 260.57721,106.59343 260.0112,107.2653C259.55069,107.81194 258.39154,107.21858 257.51135,107.40764C256.66693,107.58901 256.07352,108.48016 256.0127,109.27214C255.9407,110.20937 256.02084,111.22019 256.01135,112.02514C256.00095,112.90782 255.46815,113.5901 255.13286,114.48681C254.81479,115.33744 255.03011,116.187 255.01137,117.08681C254.99336,117.95137 254.15712,118.43076 254.0127,119.18814C253.84436,120.0709 254.01408,121.00684 253.58603,121.7868C253.13506,122.60854 252.65565,123.3582 251.81137,123.3868C250.91205,123.41727 249.9852,123.42294 249.21004,123.3868C248.29372,123.34409 247.7869,122.52818 246.91136,122.38664C246.00783,122.24058 245.40871,121.77882 244.71136,121.08681C244.20944,120.58873 243.53445,119.80372 242.69003,119.50797C241.86646,119.21953 241.04175,118.93519 240.49052,118.36597C239.69118,117.54053 239.00806,117.11988 238.4697,116.92847C237.62361,116.62766 236.41394,116.47171 235.8327,116.41214C234.78186,116.30444 233.8167,116.02514 233.20602,115.62514L232.46887,115.06564L231.77136,114.57214L231.07387,114.09664" id="svg_1" stroke-width="3" stroke="#000" fill="none"/>
  <path t="10165,10378,10402,10438,10514,10523,10538,10562,10593,10682,10737,10754,10826,10841,10867,10883,10892,10892,10906,10906,10937,10969,10970,11002,11002,11034,11042,11050,11050,11068,11083,11106,11122,11134,11147,11156,11162,11177,11193,11203,11210,11225,11237,11258,11312,11339,11352,11367,11451,11469,11524,11554,11573,11609,11609,11620,11621,11627,11641,11682,11690,11721,11754,11777,11801,11817,11826,11837,11837,11852,11858,11883,11883,11895,11914,11914,11929,11977,12019,12026,12041,12073,12073,12105,12122,12169,12187,12187,12202,12220,12227,12268,12268,12307,12307,12330,12386,12386,12393,12425,12437,12437,12457,12457,12482,12482,12505,12561,12577,12577,12593,12619,12657,12669,12674,12873,12907,12931,13162,13163,13242,13242,13258,13268,13275,13490,13491,13515,13524,13535,13547,13557,13558,13587,13587,14051,14074,14074,14091" d="M239.01137,116.3868C238.09669,116.67214 238.01137,117.48681 238.01137,118.3868C238.01137,119.33414 238.01137,120.09131 238.01137,120.98681C238.01137,121.95081 238.00941,122.82281 238.01137,123.68681C238.01363,124.68231 238.42787,125.37128 239.01137,125.8868C239.64923,126.45036 239.97348,127.15208 240.5322,127.8868C241.12259,128.66318 241.72473,129.12291 241.95869,130.03497C242.15607,130.80441 242.74081,131.60297 243.17802,132.38681C243.54161,133.03868 244.41515,133.62683 244.72603,134.27214C245.14487,135.14153 245.27345,136.07466 246.01137,136.55347C246.61351,136.94417 247.08582,137.79706 247.58603,138.41214C248.09015,139.03201 248.00597,139.98682 248.01137,140.88681C248.01671,141.77618 248.77078,142.328 249.00687,143.09131C249.27174,143.94769 249.62425,144.6989 249.92603,145.58681C250.18492,146.34856 250.01137,147.33414 250.01137,148.09131C250.01137,148.9868 249.96492,149.92018 250.43669,150.7868C250.83533,151.51907 251.11162,152.20692 251.8127,152.47214C252.67888,152.7998 252.99271,153.78629 253.01137,154.6868C253.03004,155.58794 253.17461,156.55482 253.43669,157.21214C253.83945,158.22224 254.20337,158.77505 254.72737,159.47081C255.19121,160.08669 254.53517,161.25008 255.06853,162.02963C255.55098,162.73479 256.00098,163.09137 256.01135,163.9868C256.02179,164.88699 256.55457,165.5901 256.88986,166.4868C257.20795,167.33745 256.99994,168.18687 257.01135,169.08681C257.02179,169.90784 257.2937,170.87022 257.58603,171.52547C258.00763,172.47054 257.84323,173.42325 258.09671,174.1868C258.35306,174.95895 258.99335,175.78627 259.01135,176.6868C259.02933,177.58662 258.96353,178.48807 259.01135,179.38681C259.05408,180.1902 259.6983,180.80856 259.95419,181.68231C260.21497,182.57268 260.31219,183.43764 260.65869,184.08681C261.11203,184.93619 260.91336,185.89325 261.02203,186.79747C261.13358,187.72556 261.4845,188.41612 262.01135,189.22014C262.45212,189.89278 262.84232,190.7394 263.29538,191.58681C263.64395,192.23878 264.34143,192.83755 264.8447,193.55347C265.33344,194.24872 265.07245,195.18149 265.71671,196.03947C266.1282,196.58746 266.84695,197.34627 267.0087,198.18547C267.18286,199.08905 267.75476,199.59535 268.17804,200.38681C268.57849,201.13557 269.11957,201.75383 269.65869,202.38231C270.12036,202.9205 270.07672,203.82423 270.58603,204.41214C271.14795,205.06075 271.89868,205.36081 272.51135,205.92847C273.233,206.59711 273.39523,207.52718 274.17804,208.05347C274.90048,208.53917 275.76968,208.77156 276.0127,209.58548C276.24985,210.37975 277.34827,210.56378 277.72604,211.18814C278.21347,211.99368 278.25244,212.85922 278.72736,213.55614C279.22925,214.29263 279.01135,215.22014 279.01135,216.13947C279.01135,217.03947 279.01135,217.9028 279.01135,218.76147L279.01135,219.70815L279.01135,220.56148L279.01135,221.50014" id="svg_2" stroke-width="3" stroke="#000" fill="none"/>
  <path t="25954,26225,26527,26527,26538,26539,26539,26557,26566,26580,26641,26721,26786,26787,26793,26809,26833,26889,26897,26961,27001,27161,27169,27177,27201,27218,27218,27240,27840,27858,27945,27961,29336,29348,29348,29349,29356,29356,29356,29356,29366,29366,29379,29379,29929,29929,29929,29938,29938,30394,30410" d="M238.01137,209.38681C238.62202,210.9868 239.28508,211.73593 239.8257,212.08681C240.72841,212.67268 241.50293,212.894 242.24336,213.10147C243.31802,213.40259 243.82117,214.05061 244.5322,214.36597C245.42809,214.76332 246.24776,214.84874 247.01137,215.22014C247.76527,215.58682 248.61404,215.99475 249.21004,216.58548C249.89296,217.26237 250.01598,218.17944 250.8127,218.38547C251.68459,218.61093 252.45705,218.92888 252.95869,219.68231C253.41762,220.37157 254.3179,220.27985 255.21136,220.38814C256.13113,220.49962 256.66544,221.19667 257.61136,221.37614C258.49564,221.54393 259.43457,221.1443 260.29538,221.38814C261.0751,221.60901 261.5737,222.37639 262.55453,222.38681C263.29401,222.39467 263.86868,222.38681 265.17804,222.38681C265.8927,222.38681 266.61536,222.38681 267.64438,222.38681C268.74704,222.38681 269.4697,222.38681 270.49802,222.38681C271.25803,222.38681 272.17804,222.38681 272.96402,222.38681C273.78604,222.38681 274.8447,222.38681 275.75403,222.38681L276.67804,222.38681L277.36404,222.02963" id="svg_3" stroke-width="3" stroke="#000" fill="none"/>
  <path t="31490,31673,31682,31761,31801,31801,31905,32233,32242,32258,32290,32499,32507,32516,32516,32532,32532,32578,32867,32867,32874,32886,32906,32930" d="M270.01135,226.38681C270.44736,226.3508 271.32349,226.3652 271.9967,226.81213C272.74066,227.30602 273.65192,227.26176 274.36469,227.8228C275.10944,228.40901 275.366,229.41673 275.98602,228.96147C276.62506,228.49225 277.52231,228.15663 277.88986,227.2868C278.24335,226.45027 278.00647,225.6064 278.36853,224.73415C278.66629,224.01683 279.46375,223.23383 279.8447,222.38681C280.13943,221.73149 280.01135,220.7868 280.01135,219.88681L280.01135,218.9868L280.01135,218.08681" id="svg_4" stroke-width="3" stroke="#000" fill="none"/>
  <path t="34203,34273,34273,34305,34314,34361,34372,34402,34418,34601,34633,34673,34715,34761,34817,34897,34930,34949,34956,35009,35106,35225,35257,35257,35329,36233,36249,36258,36273,36617,36633,36633,36642,36947,36947,36956,36961,36978,37705,37969,37986,38009,38081,38081,38425,38425,38817,38835,38841,38858,38882,39385,39401,39425,39915,39923,39924,39924,39942,39942,40289" d="M260.01135,171.38681C261.01135,172.38681 261.81137,172.38681 262.71136,172.38681C263.61136,172.38681 264.56332,172.09772 265.4007,172.39748C266.13745,172.66122 266.63907,173.38016 267.41138,173.81213C268.22943,174.2697 268.92844,174.76395 269.43671,175.36147C269.97025,175.98871 270.42621,176.49458 271.06403,177.03413C271.65005,177.52986 272.53494,177.84721 273.30685,178.33414C274.00928,178.77724 274.56931,179.42645 275.07269,179.99747C275.6965,180.70512 276.26508,181.1248 276.99054,181.86597C277.55576,182.44342 278.00909,183.09129 278.01135,183.9868C278.01361,184.88681 278.01135,185.79747 278.01135,186.70815C278.01135,187.56148 278.05838,188.50272 278.01135,189.38681C277.96863,190.1902 277.53589,191.04549 277.03671,191.77614C276.57455,192.45262 275.84409,193.04977 274.91153,193.26514C274.14664,193.44177 274.01135,192.2868 274.01135,191.38681C274.01135,190.62964 274.01135,189.73415 274.01135,188.8708C274.01135,187.90764 274.19977,186.73192 273.49054,186.40764C272.61899,186.00914 271.89948,186.8662 271.36404,187.43947C270.72403,188.12471 270.00623,188.40236 269.4697,188.92847C268.68243,189.70047 268.18604,190.21214 267.66403,190.73415L266.8967,191.50014L266.21271,192.10014L265.36853,192.38231" id="svg_5" stroke-width="3" stroke="#000" fill="none"/>
  <path t="41203,41433,41737,41747,41755,41755,41762,41769,41788,41788" d="M268.01135,182.38681C269.0007,182.42281 269.24091,183.40712 268.89703,184.09131C268.52026,184.84093 267.57938,185.1868 266.9967,185.95081L266.36469,186.41214L265.52737,186.67213L264.66403,187.09131" id="svg_6" stroke-width="3" stroke="#000" fill="none"/>
  <path t="42650,42801,43177,43177,43233,43233,43257" d="M267.01135,179.38681C265.99054,178.92847 265.17804,179.38681 264.5322,179.88681L263.81137,180.58548L263.21136,181.10147L262.36853,181.43947" id="svg_7" stroke-width="3" stroke="#000" fill="none"/>
  <path t="46315,46449,46457,46457,46472,46482,46508,46537,46587,46705,46705,46716,46716,46761,46792,46817,46833,46856,46905,46905,47017,47027,47027,47072,47073,47089,47121,47121,47161,47201,47201,47249,47282,47282,47314,47314,47353,47353,47368,47408,47425,47426,47450,47746,47746" d="M214.01137,108.3868C214.29669,109.3028 215.05817,109.69367 215.81137,110.10281C216.60889,110.53601 217.11005,111.0755 217.8127,111.4708C218.62964,111.9304 219.43175,112.23927 220.3447,112.55347C221.06715,112.80212 222.11127,113.01684 222.7247,113.4708C223.4828,114.03182 224.23799,114.12818 224.89003,114.60814C225.58829,115.12212 225.89734,115.98969 226.72119,116.33414C227.47681,116.65005 228.39255,116.804 229.01137,117.3868C229.67317,118.01009 230.16103,118.87409 230.62202,119.53614C231.13681,120.27543 232.04326,120.51334 232.61136,120.99747C233.35672,121.63265 234.14943,122.16419 234.81137,122.4708C235.68047,122.87336 236.26161,123.54714 236.81137,124.27214C237.36476,125.00191 237.65797,125.7717 238.21136,126.50147C238.76112,127.22647 239.50668,127.72633 239.92737,128.58681C240.34482,129.44066 240.71587,130.08681 241.41136,130.7868L242.01137,131.38681L242.65421,132.02963" id="svg_8" stroke-width="3" stroke="#000" fill="none"/>
  <path t="49274,49506,49506,49522,49547,49609,49873,49890,49898,49907,49929,49930,50057,50073,50074,50121,50153,50178,50209,50209,50241,50401,50417,50418,50449,50505,50505,50529,50617,50721,50737,50737,50801,50930,50930,50938,50947,50961,50963,51019,51073,51073,51152,51199,51221,51232,51232,51289,51290,51315,51315,51337,51337,51419,51439,51454,51455,51482,51498,51517,51517,51561,51562,51649,51681,51809,51841,51882,51905,51937,51986,51986,52249,52249,52273,52273,52305,52321,52331,52337" d="M212.01137,107.3868C212.01137,108.3868 212.01137,109.18681 212.01137,110.08681C212.01137,110.98681 212.01677,112.00774 211.4007,112.41214C210.66476,112.89523 210.13631,113.59145 210.0112,114.48681C209.88455,115.39327 209.18365,115.84319 208.5322,116.40764C207.90263,116.95313 207.98912,117.93173 207.58603,118.75081C207.15851,119.61951 206.54527,120.20429 205.91153,120.82948C205.43158,121.30293 205.04591,122.33425 204.49052,122.90764C203.82228,123.59755 203.21132,124.18677 202.61136,124.7868C201.91148,125.48676 201.56598,126.20484 200.98604,126.95081C200.50055,127.57529 200.05295,128.14961 200.00687,129.03947C199.96202,129.90541 199.61169,130.78529 198.91136,131.48663C198.33957,132.05925 197.4483,132.06703 196.62202,132.39748C195.83276,132.71312 195.25244,133.3541 194.61136,133.8228C193.83258,134.39217 193.29581,134.9949 192.41136,135.41214C191.60664,135.79178 191.27551,136.54576 190.8447,137.38681C190.50441,138.05113 189.73886,138.72658 189.12604,139.1868C188.39369,139.73677 187.61913,140.02467 186.76852,140.6868C186.17856,141.14603 185.54852,141.9362 184.71136,142.33414C183.84352,142.74666 183.07185,142.86583 182.36853,143.43947C181.71063,143.97606 181.42508,144.85583 180.86203,145.56148C180.23354,146.34914 180.01587,147.08228 180.01137,147.9868C180.00688,148.8868 180.01137,149.7868 180.01137,150.6868C180.01137,151.58681 179.68872,152.56073 180.05302,153.40764C180.35341,154.10593 181.10072,154.688 181.99004,155.1438C182.70963,155.5126 183.66408,155.39636 184.52736,155.38681C185.46986,155.37639 186.0367,154.77614 186.44736,153.99747L187.21004,153.47081" id="svg_9" stroke-width="3" stroke="#000" fill="none"/>
  <path t="53458,53553,53577,53586,53602,53617,53641,53641,53657,53667,53705,53715,53729,53747,53747,53761,53786,53797,53797,53817,53825,53825,53834,53850,53850,53882,53883,53890,53900,53961,53978,53978,53986,54009,54009,54025,54057,54057,54089,54100,54100,54115,54137,54153,54166,54170,54193,54193,54217,54233,54233,54257,54257,54267,54289,54298,54305,54321,54369,54394,54473,54489,54489,54500,54518,54553,54577,54578,54596,54641,54657,54658,54681,54713,54721,54738,54754,54777,54793,54803,54809,54825,54836,54881,54898,54917,54947,54948,54985,54985,54996,54996,55003,55025,55025,55041,55041,55057,55057,55081,55097,55129,55169,55209,55225,55241,55257,55270,55313,55313,55337,55377,55425,55441,55441,55457,55473,55489,55513,55513,55521,55538,55547,55578,55601,55601,55625,55649,55649,55649,55665,55665,55674,55690,55713,55721,55746,55753,55770,55793,55817,55841,55850,55881,55890,55899,55922,55923,55923,55939,55947,55955,55974,55980,55980,55997,56012,56012,56027,56043,56091,56131,56155,56164,56188,56209,56209,56261,56865,56961,56970,56978,57025,57025,57036,57041,57041,57177,57241,57251,57266,57267,57267,57267,57273,57274,57282,57282,57313,57313,57465,57474,57482,57482,57482,57482,57490,57490,57490,57500,57500,57500,57500,57510,57510,57523,57525,57525,57533,57534,57535,57729,57738,57738,57739,57749,57749,57755,57755,57762,57762,57779,57779,57779,57789,57789,57795,57795,57905,57921,57931,57949,57969,57969,58033,58089,58099,58100,58105,58113,58122,58137,58138,58161,58346,58377,58378,58385,58386,58409,58410,58426,58426,58433" d="M229.01137,131.38681C227.21136,131.38681 226.41136,131.38681 225.51137,131.38681C224.61136,131.38681 223.65474,131.25027 222.81137,131.67081C222.14972,132.00073 221.28537,132.16684 220.36853,132.38681C219.59583,132.5722 219.47597,133.78571 218.7247,134.30147C217.9958,134.80188 216.91635,134.16769 216.18069,134.67081C215.48166,135.14886 214.79182,135.65024 214.21136,136.18814C213.48595,136.86037 212.91136,137.4868 212.31137,138.08681C211.61137,138.78682 211.01137,139.38681 210.36853,140.02963C209.72603,140.67213 209.2869,141.27763 208.51137,141.86597C207.7778,142.42245 206.72223,142.20424 205.91136,142.60831C205.22197,142.95184 204.62057,143.79616 204.01137,144.38681C203.42015,144.96002 202.57771,145.28853 201.6902,145.60831C201.01012,145.85335 200.29613,146.6458 199.8447,147.38681C199.40865,148.10258 198.61957,148.47629 197.95869,149.03413C197.37215,149.52924 196.54826,149.96036 195.71136,150.33414C194.93935,150.67894 194.57341,151.41222 193.84436,152.02963C193.12257,152.6409 192.21805,152.27191 191.3447,152.55347C190.40999,152.85481 190.14935,153.89981 189.49052,154.38681C188.80457,154.89388 188.4688,155.75255 187.78987,156.2653C187.08228,156.79973 186.27046,156.71992 185.65421,157.33864C185.02589,157.96947 184.63048,158.50377 183.8127,159.21747C183.17337,159.77544 182.55089,160.21001 181.91136,160.82947C181.28957,161.43175 180.64819,161.90445 179.97537,162.4588C179.29974,163.01546 179.24883,163.87608 178.41136,164.40147C177.65343,164.87697 177.39058,165.8756 176.65421,166.32964C175.93619,166.77237 175.05389,166.73096 174.51137,167.38681C174.01259,167.98978 174.30901,168.94189 174.0007,169.77614C173.72487,170.52254 172.61821,170.67674 172.13269,171.48663C171.69511,172.21657 171.13715,172.83066 170.98604,173.60814C170.79564,174.58775 170.45825,175.34709 170.17802,176.22014C169.90613,177.0672 169.54803,177.76189 168.91153,178.48714C168.4258,179.0406 168.11119,180.15552 168.01137,180.86597C167.86745,181.89026 167.15894,181.93335 166.36853,182.44397C165.74933,182.84398 166.01332,184.00641 165.58603,184.7868C165.13565,185.60938 165.10005,186.49118 165.01137,187.38681C164.92763,188.23251 164.19708,188.7179 163.79002,189.4868C163.38899,190.24432 163.19635,191.00465 163.01137,191.95081C162.86263,192.71162 162.27449,193.42371 161.92737,194.1868C161.53877,195.04106 161.1458,195.79668 161.00687,196.6868C160.87904,197.50575 160.15955,198.15541 160.01587,199.08681C159.87866,199.97629 160.1228,200.95638 159.65421,201.6868C159.14101,202.48672 158.36256,202.94916 158.0367,203.79747C157.69829,204.67841 157.49535,205.40999 157.21004,205.98814C156.71962,206.98192 156.28384,207.64272 155.5322,208.36597C154.99071,208.88699 154.42221,209.70473 154.13286,210.4868C153.81773,211.33855 153.95602,212.26207 153.51137,212.90764C153.00299,213.64572 153.14868,214.66792 152.65869,215.33414C152.15546,216.01836 152.01137,216.7868 152.01137,217.6868C152.01137,218.58681 152.01137,219.4868 152.01137,220.38681C152.01137,221.1868 152.01137,222.08681 152.01137,222.9868C152.01137,223.88681 152.01137,224.79747 152.01137,225.70815C152.01137,226.56148 152.01137,227.50146 152.01137,228.38681C152.01137,229.1868 152.01137,230.08681 152.01137,230.9868C152.01137,231.86597 152.01137,232.8228 152.01137,233.6868C152.01137,234.58681 152.01137,235.4868 152.01137,236.38681C152.01137,237.1868 152.00096,238.08687 152.01137,238.9868C152.02179,239.88699 152.24155,240.89775 153.11136,241.2653C153.94791,241.6188 154.82182,241.28619 155.64737,241.42281C156.51778,241.56683 157.25325,242.20755 158.23286,242.38681C159.09685,242.54492 159.97446,242.38188 160.89703,242.60831C161.73618,242.81425 162.38617,242.98364 163.04604,243.18814C164.24741,243.56046 164.92595,243.93054 165.8447,244.22014C166.74612,244.50427 167.65329,244.7662 168.3587,245.03413C169.23759,245.36794 169.86731,245.88266 170.67802,246.38681C171.36494,246.81398 172.04675,246.89417 173.04604,247.10147C173.96368,247.29185 174.78027,247.31201 175.51669,247.5538C176.69582,247.94093 177.31525,248.44016 177.99052,248.88681C178.65189,249.32426 179.47421,249.97276 180.32469,250.28947C181.31206,250.65717 182.02638,250.72861 182.79669,250.99747C183.85223,251.36589 184.53319,251.70941 185.29253,252.02963C186.21957,252.42058 187.18681,252.53258 187.84737,252.8228C188.62379,253.16393 189.42694,253.556 190.17537,253.9868C191.14967,254.54762 191.65599,255.1441 192.32486,255.6868C193.01999,256.25079 193.77264,256.49521 194.68736,256.7868C195.3335,256.99277 196.5325,257.34647 197.30336,257.77615C198.03333,258.18304 198.95145,258.30179 199.57536,258.96149C200.18968,259.61102 200.46352,260.21561 201.41136,260.39746C202.24207,260.55682 202.73409,261.27838 203.51137,261.86597C204.24899,262.42358 205.21271,262.3829 205.8967,262.38681C206.82608,262.39215 207.59663,262.7818 208.29669,263.3028C208.99455,263.82214 209.47443,264.32007 210.00687,265.02963C210.40552,265.56091 211.51369,265.6358 212.18604,265.99747C213.0148,266.44327 213.72983,267.06467 214.31137,267.69131C214.83269,268.25308 215.41136,269.20148 215.81137,269.81747L216.61136,270.40146" id="svg_10" stroke-width="3" stroke="#000" fill="none"/>
  <path t="64595,66153,66163,66187,66187,66314,66314,66410,66425,66465,66466,66521,66521,66569,66594,66625,66625,66657,66682,66730,66730,66753,66769,66786,66786,66810,66833,66841,66841,66866,66914,66932,66932,66979,66987,66987,67022,67052,67089,67106,67106,67119,67138,67155,67182,67182,67210,67230,67242,67268,67290,67306,67306,67347,67347,67357,67372,67409,67409,67448,67451,67456,67466,67537,67585,67610,67610,67641,67651,67769,67769,67826" d="M239.01137,211.38681C239.01137,212.40764 239.01137,213.24814 239.01137,214.22014C239.01137,215.01215 239.01137,215.8708 239.01137,216.73415C239.01137,217.75081 239.11702,218.6127 238.8447,219.55347C238.64957,220.22755 237.88574,220.88908 237.29669,221.46947C236.67252,222.08446 236.19708,222.7179 235.79002,223.4868C235.38899,224.24432 234.77257,224.8329 234.29536,225.47081C233.7209,226.23874 233.91727,227.18169 233.51137,227.88681C233.05409,228.68117 232.64397,229.53481 232.29536,230.1868C231.84229,231.03419 231.48085,231.87761 230.91153,232.4868C230.35899,233.07803 230.01671,233.98676 230.01137,234.90764C230.0058,235.86946 230.12584,236.68405 230.0112,237.60831C229.89969,238.50732 229.39354,239.09978 228.98604,239.9868C228.61266,240.79958 228.12029,241.4852 228.01137,242.38681C227.91487,243.18553 227.26657,243.92451 227.04736,244.7868C226.82539,245.65994 226.62529,246.52516 226.29536,247.1868C225.87482,248.03017 226.01332,249.00641 225.58603,249.7868C225.13565,250.60938 225.08415,251.48975 225.01137,252.38681C224.95401,253.09377 224.20207,253.56207 223.57936,254.1868C222.89532,254.87305 223.04883,255.92455 222.79002,256.70813C222.50037,257.58511 222.07355,258.35876 222.0127,259.18549C221.94653,260.08435 222.01379,261.00668 221.58603,261.7868C221.13483,262.60968 220.71051,263.43765 220.36403,264.08679C219.91068,264.93619 220.01137,265.86597 220.01137,266.82965L220.01137,267.57214L220.01003,268.50015" id="svg_11" stroke-width="3" stroke="#000" fill="none"/>
  <polyline timestamps="69066,69753,69770" startTime="1502000649308" id="svg_12" points="215.01136471971498,270.3868055086244 215.62203138638165,268.82280550862436 216.41136471971498,268.4121388419577 " stroke-linecap="round" stroke-width="3" stroke="#000" fill="none"/>
  <path t="71596,71922,71953,71983,72027,72073,72115,72217,72249,72249,72267,72362,72385,72433,72433,72457,72521,72537,72548,72577,72610,72610,72626,72673,72697,72746,72762,72785,72785,72810,72819,72827,72836,72849,72881,72921,72953,72993,72994,73017,73027,73027,73065,73081,73105,73106,73137,73169,73169,73185,73201,73233,73241,73281,73314,73329,73329,73363,73401,73417,73449,73481,73482,73499,73508,73537,73563,73564,73580,73586,73615,73629,73636,73658,73666,73690,73690,73699,73707,73729,73750,73754,73770,73801,73817,73842,73842,73858,73875,73914,73948,73980,73980,74001,74001,74034,74081,74081,74121,74121,74162,74201" d="M154.01137,242.38681C154.01137,244.08681 154.01137,244.9868 154.01137,245.88681C154.01137,246.7868 154.01128,247.6868 154.01137,248.58681C154.01146,249.4868 154.25957,250.33731 154.65869,251.08681C155.09546,251.907 154.88406,252.8329 155.01587,253.6868C155.15964,254.61818 155.66005,255.21494 156.06403,256.08679C156.44937,256.91846 156.98277,257.68542 157.01137,258.58679C157.03992,259.48636 157.01137,260.38681 157.01137,261.1868C157.01137,262.02963 157.00557,262.90768 157.01137,263.88681C157.01671,264.78687 157.45369,265.4986 157.8447,266.38681C158.13419,267.04443 158.00597,267.98685 158.01137,268.88681C158.01671,269.77621 158.78615,270.32343 159.00687,271.09131C159.25424,271.952 159.01137,272.88681 159.01137,273.79749C159.01137,274.70813 159.01137,275.56146 159.01137,276.50146C159.01137,277.38681 159.10782,278.18033 159.51137,278.88681C159.96686,279.6842 160.01137,280.70813 160.01137,281.38681C160.01137,282.3653 160.01137,283.38681 160.01137,284.1868C160.01137,285.08679 160.01137,285.98682 160.01137,286.88681C160.01137,287.7868 160.01129,288.6868 160.01137,289.58679C160.01146,290.48682 160.12663,291.16843 160.58603,291.95081C161.04175,292.7269 160.92049,293.69153 161.0127,294.58679C161.09639,295.39941 161.80652,296.04047 161.99052,296.88681C162.18185,297.76678 162.51187,298.60559 162.8447,299.38681C163.16489,300.13834 162.53516,301.25006 163.06853,302.02963C163.55098,302.7348 163.82863,303.11768 164.04736,303.98682C164.2645,304.84961 164.81134,305.63287 165.17802,306.38681C165.54941,307.15042 166.00095,307.88663 166.01137,308.7868C166.02179,309.68674 165.86794,310.67245 166.36403,311.33414C166.86519,312.00256 166.90039,312.7915 167.29536,313.58679C167.72704,314.45596 168.06575,315.08585 168.51137,315.88681C168.95592,316.68585 169.01137,317.58679 169.01137,318.48682C169.01137,319.38681 169.01804,320.16235 169.36403,321.03497C169.68201,321.83698 170.00131,322.74854 170.01137,323.55347C170.02179,324.38699 170.2327,325.3653 170.65869,326.08231L170.99052,326.88681L171.01137,327.7868" id="svg_13" stroke-width="3" stroke="#000" fill="none"/>
  <path t="76475,77163,77218,77282,77370,77395,77402,77482,77538,77602,77602,77610,77634,77674,77698,77738,77749,77749,77797,77827,77842,77858,77914,77914,77930,77954,77986,78050,78067,78082,78090,78114,78114,78122,78130,78162,78202,78234,78266,78283,78322,78322,78338,78386,78386,78402,78418,78450,78458,78490,78522,78547,78572,78586,78602,78626,78627,78634,78666,78674,78690,78707,78747,78754,78826,78826,78874,78874,78890,78994,79002,79018,79067" d="M214.01137,270.38681C214.8447,270.55347 215.01137,271.38681 215.01137,272.3028C215.01137,273.09131 215.01669,273.98685 215.01137,274.88681C215.00603,275.78687 214.54942,276.6232 214.17802,277.38681C213.81136,278.14072 213.30571,278.80774 213.04736,279.7868C212.81755,280.65771 213.01137,281.58679 213.01137,282.48682C213.01137,283.38681 212.91576,284.18082 212.51137,284.88681C212.05688,285.68024 212.01137,286.58679 212.01137,287.48682C212.01137,288.38681 212.01137,289.1868 212.01137,290.08679C212.01137,290.98682 212.01137,291.95081 212.01137,292.82281C212.01137,293.6868 212.01137,294.58679 212.01137,295.48682C212.01137,296.38681 212.01137,297.1868 212.01137,298.08679C212.01137,298.98682 212.01137,299.88681 212.01137,300.7868C212.01137,301.68231 212.01137,302.60831 212.01137,303.48682C212.01137,304.38681 212.01137,305.1868 212.01137,306.14398C212.01137,307.03946 212.01137,307.9028 212.01137,308.86597C212.01137,309.6868 212.01137,310.58679 212.01137,311.48663C212.01137,312.41214 212.13589,313.16541 212.58603,313.98682C213.0136,314.76703 212.90442,315.69333 213.0127,316.58679C213.12418,317.50659 213.45184,318.21097 214.0367,318.95081C214.57285,319.62903 214.95651,320.18982 215.01137,321.08679C215.06935,322.03476 216.10278,321.94547 216.76837,322.60831C217.41435,323.25165 217.07262,324.28094 217.36403,325.03946C217.69995,325.91385 217.98604,326.75079 218.29536,327.58679L218.8447,328.38681L219.17802,329.22015L219.88986,329.60831" id="svg_14" stroke-width="3" stroke="#000" fill="none"/>
  <path t="81018,81138,81170,81202,81218,81234,81267,81282,81294,81322,81386,81458,81458,81506,81532,81570,81586,81602,81626,81722,81748,81748,81754,81763,81826,81858,81858,81873,81898,81906,81907,81915,81922,81932,81949,82010,82010,82067,82089,82114,82153,82195,82314,82314" d="M215.01137,174.38681C215.29669,173.47214 216.11821,173.27596 217.01137,173.38681C217.91046,173.49841 217.75275,174.61343 218.2327,175.26547C218.74667,175.96373 219.73079,176.18347 220.01137,176.74397C220.43341,177.58707 220.20444,178.51083 220.71587,179.08681C221.36607,179.81908 221.79137,180.68358 222.36403,181.33414C222.88235,181.92297 223.63934,182.37471 224.0367,182.99747C224.5153,183.74756 225.03278,184.58875 225.71136,185.02963C226.50371,185.54442 226.97861,186.14577 227.44736,186.7868C228.01685,187.56563 228.77238,188.03156 229.4007,188.7868C229.94691,189.44337 230.05954,190.50488 230.62202,190.95081C231.39113,191.56053 232.39529,191.4043 233.01137,191.88681C233.65315,192.38947 234.50635,192.5256 235.16071,192.99747C235.97902,193.58757 236.5498,194.26303 237.01137,194.90764C237.508,195.60121 238.11136,196.26547 239.01137,196.55347L239.61136,196.99747" id="svg_15" stroke-width="3" stroke="#000" fill="none"/>
  <path t="83539,83682,83700,83700,83709,83722,83739,83748,83764,83765,83772,83779,83800,83818,83827,83858,83882,83882,83915,83915,83932,83947,83964,84002,84003,84042,84058,84090,84122,84170,84227,84242,84242,84282" d="M220.01137,165.38681C220.29803,164.47214 221.17802,164.38673 222.01137,164.38681C222.9897,164.3869 223.5658,164.80443 224.23286,165.2653C224.96252,165.76944 225.98311,165.5985 226.61136,165.96147C227.45702,166.45004 227.86261,167.11807 228.44736,167.77614C229.0625,168.46841 229.68358,168.67329 230.29669,169.30281C230.90385,169.92622 231.74232,170.13223 232.49536,170.58548C233.16479,170.98842 234.23947,171.11719 234.92737,171.67081C235.60086,172.21283 236.23499,172.64587 236.81137,173.18814C237.52103,173.8558 237.88799,174.73805 238.43669,175.36147C238.95113,175.94594 239.65869,176.43947 240.17802,177.22014L241.01137,177.38681L241.81137,177.47214L242.57536,177.99747" id="svg_16" stroke-width="3" stroke="#000" fill="none"/>
  <path t="85083,85258,85259,85269,85283,85306,85338,85364,85395,85410,85418,85419,85482,85507,85507,85516,85531,85538,85554" d="M224.01137,156.38681C225.01137,156.38681 225.81137,156.38681 226.71136,156.38681C227.61136,156.38681 228.51137,156.38681 229.4007,156.38681C230.36853,156.38681 231.21136,156.38681 232.11136,156.38681C233.01137,156.38681 233.81137,156.38681 234.76852,156.38681C235.66403,156.38681 236.3587,156.38681 237.37537,156.38681L238.31137,156.38681L239.21004,156.38681L240.09537,156.38681" id="svg_17" stroke-width="3" stroke="#000" fill="none"/>
  <path t="91668,94642,94650,94658,94674,95026,95322,95338,95442,95522,95522,95666,95802,95842,95994,96258,96258,96394,96626,96714,96714,96762" d="M222.01137,90.3868C222.89253,90.3868 221.99052,90.3868 221.03304,90.3868C220.17802,90.3868 219.27953,90.24487 218.62202,90.82281C217.92645,91.4342 218.01137,92.4708 218.01137,93.3868C218.01137,94.18681 218.06586,95.08829 218.51137,95.8868C218.95604,96.68379 219.5024,97.20007 220.23286,97.60814C220.89824,97.97985 221.71136,98.43947 222.51137,98.90764L223.11136,99.48664L223.81137,100.10147L224.61136,100.41214" id="svg_18" stroke-width="3" stroke="#000" fill="none"/>
  <path t="106276,106514,106514,106555,106650" d="M254.01137,95.3868C255.01137,95.3868 255.81137,95.3868 256.72604,95.3868L257.65802,95.42281" id="svg_19" stroke-width="3" stroke="#000" fill="none"/>
  <path t="108163,108441,108747,108770,108770,109027,109090,109090,109162,109179,109179" d="M239.01137,95.3868C240.01137,95.3868 240.9287,95.3868 241.72119,95.3868C242.5287,95.3868 243.51137,95.3868 244.49536,95.3868C245.18604,95.3868 246.2542,95.3913 247.11136,95.60814L247.71136,96.03414" id="svg_20" stroke-width="3" stroke="#000" fill="none"/>
  <path t="114043,114554,114570,114570,114630,114722,114938,115042,115122,115122" d="M247.01137,111.3868C247.17802,110.55347 248.01137,110.3868 248.81137,110.3868C249.72603,110.3868 250.62202,110.3868 251.51137,110.3868L252.42203,110.39747L253.33253,110.60831L253.99052,110.90764" id="svg_21" stroke-width="3" stroke="#000" fill="none"/>
  <path t="116619,116762,116834,116873,116937,116953" d="M250.01137,110.3868C251.01137,110.3868 251.8447,110.55347 252.29669,111.30148L253.21004,111.38814L253.95869,111.73947" id="svg_22" stroke-width="3" stroke="#000" fill="none"/>
  <path t="124443,125706,125706,126028,126074,126266,126362,126418,126442,126442,126482,126530,126562,126602,126626,126786,126786,126818,126818,126836,126866,126898,126915,126963,127066,127122,127202,127212,127228,127378,127378,127402,127434,127538,127794" d="M240.01137,221.38681C241.01137,221.55347 241.66397,222.18697 242.51137,222.36597C243.39217,222.55202 244.31137,222.38681 245.21136,222.38681C246.11136,222.38681 247.01137,222.38681 247.81137,222.38681C248.71136,222.38681 249.57536,222.38681 250.5322,222.38681C251.41136,222.38681 252.33571,222.30832 253.17802,222.55347C254.03981,222.80428 254.83324,223.29324 255.60069,223.37614C256.50613,223.47395 257.45847,223.2928 258.31137,223.73947C259.06357,224.13342 259.89005,224.38681 260.71585,224.38681C261.61136,224.38681 262.51135,224.38455 263.41138,224.38681C264.31137,224.38907 265.14972,224.77287 265.81137,225.1028C266.65472,225.52335 267.61136,225.38681 268.51135,225.38681L269.4007,225.38681" id="svg_23" stroke-width="3" stroke="#000" fill="none"/>
  <path t="133444,133562,133610,133634,133658,133658,133803,133834,133850,133882,133898,133922,133962,133979,133995,134058,134074,134130,134154,134187,134330" d="M159.01137,256.38681C160.01137,256.38681 160.8965,256.10532 161.71136,256.50113C162.46892,256.86911 162.68909,258.06845 163.61136,258.36548C164.46828,258.64145 165.41136,258.38681 166.31137,258.38681C167.21136,258.38681 168.11136,258.38681 169.01137,258.38681C169.8447,258.38681 170.62202,258.38681 171.61136,258.38681C172.51137,258.38681 173.41136,258.38681 174.31137,258.38681L175.21136,258.38681L176.11136,258.38681" id="svg_24" stroke-width="3" stroke="#000" fill="none"/>
  <path t="136259,137762,137946,138049,138049,138130,138137,138165,138201,138201,138217,138241,138289,138305,138362,138380,138401,138449,138449,138466,138489,138529,138547,138577,138628,138705,138730,138730,138738,138753,138795,138803,138812,138841,138873,138873,138929,138953,138964,138971,139017,139041,139041,139066,139081,139105,139115,139137,139137,139177,139227,139227,139282,139290,139290,139299,139337,139337,139352,139369,139386,139386,139402,139441,139441,139450,139458,139467,139489,139489,139505,139529,139538,139553,139570,139586,139586,139595,139596,139611,139611,139618,139618,139634,139644,139645,139659,139676,139682,139921,139929,139929,139937" d="M178.01137,251.38681C178.71587,252.03413 179.74698,252.38336 179.97537,253.24814C180.14313,253.88329 179.84406,254.99554 180.0322,255.88681C180.21107,256.73422 180.9492,257.47919 181.01003,258.1868C181.08711,259.0835 181.01137,259.98682 181.01137,260.88681C181.01137,261.86597 181.01137,262.74396 181.01137,263.58679C181.01137,264.48682 181.01137,265.38681 181.01137,266.1868C181.01137,267.08679 181.01137,267.98682 181.01137,268.88681C181.01137,269.7868 181.01137,270.6868 181.01137,271.58548C181.01137,272.55347 181.01137,273.38681 181.01137,274.1868C181.01137,275.08679 181.01137,275.98682 181.01137,276.88681C181.01137,277.7868 180.93568,278.69009 181.0127,279.58813C181.09637,280.56393 181.3317,281.25961 181.89003,282.14398C182.35532,282.88098 182.84467,283.59827 183.01154,284.48663C183.16104,285.2825 183.93974,285.82391 184.0007,286.57214C184.08623,287.6218 184.50191,288.19727 184.98604,288.82281C185.56322,289.5686 185.74036,290.42734 186.09537,291.1868C186.47987,292.00937 187.01137,292.72015 187.01137,293.57214C187.01137,294.50146 186.96086,295.3884 187.01137,296.1868C187.06865,297.09222 187.80669,297.57632 188.44336,298.1868C189.07553,298.79294 188.9408,299.82019 189.2327,300.70798C189.51088,301.55402 189.99336,302.33563 190.01137,303.24814C190.02431,303.90402 190.01137,304.97614 190.01137,305.88681C190.01137,306.77615 190.35934,307.52072 190.72737,308.18814C191.18179,309.01227 190.66832,310.0654 191.0322,310.86597C191.38365,311.63922 192.00911,312.14847 192.01137,313.04398C192.01324,313.79129 191.86705,314.81339 192.08336,315.55081C192.3855,316.58087 193.33685,316.89117 193.76837,317.70813C194.18015,318.4877 193.96436,319.50272 194.01137,320.38681C194.05409,321.19019 194.7914,321.87125 195.01137,322.74396C195.21704,323.55997 195.36403,324.33865 195.92737,324.9548L196.09537,325.81882L196.65869,326.43497" id="svg_25" stroke-width="3" stroke="#000" fill="none"/>
  <path t="148530,148913,148945,148945,148985,148985,149009,149361,149369,149513,149569,149569,149585,149601,149633,149649,149660,149673,149697,149713,149753,149763,149809,149832,149849,149858,149874,149913,149929,149952,149969,149985,150001,150049,150058,150059,150097,150129,150169,150185,150195,150249,150275,150305,150305,150353,150377,150387,150409,150409,150441,150459,150467,150475,150496,150520,150537,150552,150577,150609,150626,150626,150642,150675,150676,150682,150713,150713,150729,150761,150761,150779,150779,150818,150897,150897,150931,150965" d="M179.01137,266.38681C179.8447,266.55347 179.91762,267.39981 180.06853,268.14398C180.25537,269.06537 180.87421,269.74918 181.49052,270.36597C182.06435,270.94025 181.93486,271.98947 182.36403,272.74396C182.81403,273.53506 183.0107,274.1868 183.01137,275.08679C183.01204,275.98682 183.01137,276.88681 183.01137,277.7868C183.01137,278.6868 183.01137,279.58679 183.01137,280.48682C183.01137,281.38681 183.08398,282.28174 183.51137,282.90765C184.07191,283.72861 184.01137,284.6868 184.01137,285.58679C184.01137,286.48682 183.67427,287.53571 184.17802,288.22015C184.65863,288.87314 184.92268,289.49121 185.01137,290.38681C185.09511,291.23251 185.88158,291.67624 186.01137,292.55347C186.13574,293.39417 186.80652,294.04047 186.99052,294.88681C187.18185,295.76678 187.44423,296.63803 187.8447,297.38681C188.26797,298.17825 188.96864,298.66879 189.01137,299.48682C189.05832,300.38559 189.13565,301.16425 189.58603,301.98682C190.01331,302.76721 189.87482,303.74344 190.29536,304.58679C190.62529,305.24844 190.99846,306.08688 191.01137,306.98682C191.02399,307.86612 191.74286,308.23779 192.4007,308.82281C193.09352,309.43896 192.76712,310.61896 193.29536,311.3028C193.78008,311.9303 193.82246,312.6561 194.23286,313.48682C194.57402,314.17737 195.53036,314.73502 195.8447,315.55347C196.14206,316.32776 196.562,317.14444 196.88986,317.82965C197.28545,318.65637 196.92506,319.65485 197.17802,320.55347C197.36977,321.23462 197.57747,322.34738 198.06403,323.02515C198.53006,323.67435 199.01137,324.38681 199.09669,325.1868L199.51137,325.88681L199.95419,326.6868" id="svg_26" stroke-width="20" stroke="#fff" fill="none"/>
  <path t="164729,165059,165753,165762,165785,165842,166473,167041,167042,167050,167057,167057,167082,167082,167113,167321,167321,167330,167331,167347,167347,167353,167369,167369,167378,167378,167385,167385,167409,167432,167481,167481" d="M320.01135,168.38681C320.01135,166.6868 320.01135,165.7868 320.01135,164.88681C320.01135,163.9868 320.01135,162.99747 320.01135,162.10147C320.01135,161.28664 320.01135,160.50146 320.01135,159.56148C320.01135,158.55347 320.01135,157.74847 320.01135,156.81747C320.01135,156.03497 319.94214,154.99075 320.2327,154.06548C320.45251,153.36554 320.91815,152.56445 321.0007,151.76147C321.10574,150.73947 321.01135,150.03947 321.01135,149.01215C321.01135,148.06531 321.01135,147.36597 321.01135,146.38681C321.01135,145.40764 321.01135,144.55347 321.01135,143.6913C321.01135,142.74397 321.05304,141.86597 321.57938,141.18547L322.16071,140.75081" id="svg_27" stroke-width="20" stroke="#fff" fill="none"/>
  <path t="172050,172233,172265,172276,172284,172321,172337,172346,172394,172394,172417,172427,172465,172481,172521,172538,172594" d="M320.01135,164.38681C320.01135,163.38681 320.01135,162.47081 320.01135,161.68231C320.01135,160.7868 320.00909,159.88681 320.01135,158.9868C320.01361,158.08679 320.39743,157.24843 320.72736,156.58681C321.14789,155.74342 321.01135,154.7868 321.01135,153.88681C321.01135,152.99747 321.01135,152.10147 321.01135,151.1868L321.01135,150.2868" id="svg_28" stroke-width="3" stroke="#000" fill="none"/>
  <path t="173562,173801,173801,173833,173843,173859,173921,173932,173932,173937,173961,174001,174033,174089,174113,174146,174185,174201,174217,174217,174227,174233,174249,174264,174280,174298,174306,174329,174345,174354,174377,174377,174401,174409,174420,174434,174442,174451,174475,174482,174482,174507,174515,174515,174521,174530,174538,174548,174548,174553,174569,174569,174569,174578,174578,174585,174594,174595,174601,174601,174611,174617,174628,174633,174633,174642,174642,174649,174658,174658,174666,174675,174682,174682,174690,174709,174709,174716,174721,174721,174730,174738,174747,174762,174769,174769,174785,174810,174810,174817,174828,174833,174833,174849,174858,174867,174889,174897,174897,174908,174930,174938,174938,174961,174961,174979,175010,175041,175042,175089,175097,175129,175249,175260,175276,175276,175286,175287,175299,175316,175649,175666,175666,175675,175675,175684,175685,175695,175695,175695,175707,175707,175721,175721,175722,175731,175731,175739,175756,175756,175897,175914,175921,175929,175953,175953,175957,175957,175958,175966,175970,175970,175978,175978,176011,176041" d="M345.01135,174.38681C346.17804,173.38681 346.83029,172.80544 347.01135,172.02963C347.22565,171.11148 347.01135,170.1868 347.01135,169.2868C347.01135,168.38681 347.01135,167.58681 347.01135,166.6868C347.01135,165.7868 347.01135,164.88681 347.01135,163.9868C347.01135,163.09131 347.16254,162.06993 346.65869,161.43947C346.1701,160.82809 346.14789,160.03018 345.72736,159.1868C345.39743,158.52518 345.01361,157.68681 345.01135,156.7868C345.00909,155.88681 345.10681,154.94226 344.72736,154.1868C344.29178,153.31961 343.9635,152.54257 343.51135,151.86597C343.0134,151.12083 343.17505,150.1295 342.79004,149.2868C342.48425,148.61751 342.01669,147.78685 342.01135,146.88681C342.00601,145.98682 342.01135,145.08681 342.01135,144.1868C342.01135,143.28697 342.01135,142.43497 342.01135,141.67697C342.01135,140.86948 342.01135,139.88681 342.01135,138.9028C342.01135,138.03947 342.01135,137.14397 342.01135,136.1868C342.01135,135.2868 342.01135,134.38681 342.01135,133.58681C342.01135,132.7148 342.01135,131.84398 342.01135,131.12547C342.01135,130.33498 342.01135,129.07347 342.01135,128.23347C342.01135,127.4083 342.01135,126.3868 342.01135,125.62964C342.01135,124.73414 342.01135,123.8708 342.01135,122.90764C342.01135,121.98681 342.01135,121.08231 342.01135,120.22014C342.01135,119.3868 342.01135,118.4083 342.01135,117.58814C342.01135,116.75081 342.01135,115.73414 342.01135,115.03947C342.01135,114.0228 342.01135,113.08681 342.01135,112.18547C342.01135,111.50147 342.01135,110.56147 342.01135,109.55347C342.01135,108.69131 342.01135,107.86597 342.01135,106.90281C342.01135,106.03947 342.01135,105.14397 342.01135,104.18681C342.01135,103.28697 342.01135,102.43497 342.01135,101.67697C342.01135,100.86947 342.01135,99.8868 342.01135,98.90281C342.01135,98.03947 341.94888,97.10657 342.43671,96.40147C342.87018,95.77491 343.00665,95.03497 343.01135,94.0228C343.01569,93.09131 343.68292,92.57561 343.99054,91.84514C344.35587,90.97766 344.06882,90.09684 344.58603,89.37214C345.03696,88.74031 345.25595,87.8821 345.62204,87.21214C346.15405,86.23856 346.65472,85.62904 347.41138,84.99747C348.06705,84.4502 349.14493,84.34801 349.65421,83.6823C350.17252,83.0048 350.62198,82.39214 351.51135,82.3868C352.41135,82.38141 353.31586,82.3868 354.17804,82.3868C355.01135,82.3868 355.98987,82.3868 356.81003,82.3868C357.71136,82.3868 358.61136,82.38689 359.57538,82.3868C360.45419,82.38672 361.24838,82.49609 362.12735,82.10147C362.82275,81.78925 363.6525,81.04108 364.25803,80.82281C365.40186,80.41049 366.22562,80.40923 367.00153,80.3913C368.04175,80.36727 368.77295,80.36799 369.66403,80.03414C370.37067,79.7694 371.3855,79.40481 372.3327,79.3868C373.01123,79.3739 374.12604,79.3868 375.01135,79.3868C375.81137,79.3868 376.71136,79.3868 377.61136,79.3868C378.51135,79.3868 379.40079,79.37292 380.3447,79.3868C381.05328,79.39722 382.03177,79.49979 382.80069,79.82281C383.54947,80.13735 384.32642,80.90524 385.17804,81.22014C385.9751,81.51486 386.8447,81.55347 387.60071,81.96147L388.41138,82.35081L389.4007,82.39747" id="svg_29" stroke-width="3" stroke="#000" fill="none"/>
  <path t="179058,179185,179209,179217,179217,179249,179273,179273,179281,179305,179321,179353,179378,179385,179401,179465,179490,179521,179569,179585,179595,179628,179643,179659,179681,179681,179690,179705,179737,179753,179769,179779,179796,179833,179833,179858,179905,179921,179937,179985,179993,180033,180049,180049,180065,180073,180090,180113,180113,180113,180137,180153,180177,180193,180194,180202,180202,180213,180217,180233,180249,180249,180259,180275,180282,180282,180291,180305,180321,180329,180347,180361,180369,180397,180402,180426,180427,180441,180449,180478,180481,180491,180513,180513,180522,180569,180609,180617,180643,180650,180659,180681,180681,180702,180707,180728,180748,180763,180773,180787,180787,180802,180803,180819,180835,180842,180850,180870,180883,180898,180914,180936,180944,180955,180972,180982,180995,180996,181001,181032,181034,181052,181070,181070,181077,181099,181119,181139,181185,181209,181217,181228,181244,181258,181268,181282,181289,181289,181308,181334,181358,181358" d="M167.01137,127.3868C167.01137,125.58681 167.01137,124.75081 167.01137,123.90414C167.01137,122.95614 167.46928,122.20631 167.8447,121.3868C168.18491,120.64412 168.01137,119.68681 168.01137,118.7868C168.01137,117.8868 168.01137,116.98681 168.01137,116.08681C168.01137,115.18681 168.01137,114.2868 168.01137,113.3868C168.01137,112.55347 168.01137,111.6823 168.01137,110.7868C168.01137,109.8868 168.01137,108.98681 168.01137,108.08681C168.01137,107.18681 168.01137,106.2868 168.01137,105.3868C168.01137,104.58681 168.01137,103.68681 168.01137,102.82281C168.01137,101.95081 168.01137,100.98681 168.01137,100.08681C168.01137,99.18681 168.01137,98.2868 168.01137,97.3868C168.01137,96.58681 168.01137,95.68681 168.01137,94.7868C168.01137,93.8868 168.01137,92.99747 168.01137,92.10147C168.01137,91.18681 168.01137,90.2868 168.01137,89.3868C168.01137,88.58681 167.82524,87.65971 168.04736,86.7868C168.27028,85.91074 169.04262,85.23763 169.4007,84.56147C169.758,83.88679 170.00095,82.90781 170.01137,81.98681C170.02161,81.08237 170.01137,80.22014 170.01137,79.3868C170.01137,78.4083 170.01137,77.58814 170.01137,76.68681C170.01137,75.7868 170.01137,74.86597 170.01137,73.90414C170.01137,73.09664 170.01137,72.2188 170.01137,71.36597C170.01137,70.4083 170.01137,69.58814 170.01137,68.68681C170.01137,67.7868 170.01137,66.8868 170.01137,65.98681C170.01137,65.08681 170.01137,64.18681 170.01137,63.28697C170.01137,62.40147 170.01137,61.52547 170.01137,60.55347C170.01137,59.79747 170.01137,58.88681 170.01137,57.9868C170.01137,57.08681 170.01137,56.18681 170.01137,55.2868C170.01137,54.38681 170.01137,53.58681 170.01137,52.67214C170.01137,51.77614 170.01137,50.88681 170.01137,49.9868C170.01137,49.08681 170.01137,48.18681 170.01137,47.2868C170.01137,46.38681 170.01137,45.58681 170.01137,44.68681C170.01137,43.7868 170.01137,42.90764 170.01137,41.95081C170.01137,41.08681 169.84767,40.12951 170.2327,39.2868C170.5385,38.61751 171.00603,37.78685 171.01137,36.88681C171.01669,35.98682 171.01137,35.08681 171.01137,34.18681C171.01137,33.28697 171.01137,32.41214 171.01137,31.58547C171.01137,30.68681 171.01137,29.78681 171.01137,28.8868C171.01137,27.9868 171.01137,27.08681 171.01137,26.18681C171.01137,25.28681 171.01137,24.38681 171.01137,23.58681C171.01137,22.67214 171.01137,21.77614 171.01137,20.8868C171.01137,19.97614 170.84622,19.04132 171.04736,18.24814C171.26607,17.38573 172.00095,16.86616 172.01137,15.98681C172.02203,15.08687 172.00096,14.18675 172.01137,13.28697C172.02179,12.38663 172.75839,11.83977 172.97537,10.98681C173.19743,10.11389 172.92926,9.18304 173.01154,8.28681C173.09521,7.37537 173.65869,6.68681 173.99052,5.88681L174.02203,4.97614L174.23286,4.06547L174.5322,3.38681" id="svg_30" stroke-width="3" stroke="#000" fill="none"/>
  <path t="183761,184145,184165,184165,184192,184206,184215,184215,184249,184297,184560,184569,184569,184593,184601,184625,184648,184673,184729,184761,184761,184793,184817,184841,184865,184880,184881,184889,184922,184937,184968,184985,185027,185043,185065,185097,185112,185122,185145,185152,185168,185193,185209,185209,185232,185248,185265,185291,185313,185313,185329,185346,185346,185353,185377,185385,185416,185426,185442,185465,185481,185481,185497,185529,185552,185577,185584,185616,185627,185634,185634,185659,185667,185681,185705,185713,185737,185752,185763,185777,185793,185811,185817,185848,185857,185866,185867,185889,185905,185921,185961,185985,186001,186011,186017,186042,186075,186081,186091,186115,186116,186122,186137,186147,186153,186162,186178,186178,186178,186195,186195,186211,186211,186217,186227,186227,186234,186243,186249,186249,186260,186268,186268,186276,186281,186294,186305,186321,186321,186321,186336,186360,186361,186361,186379,186379,186386,186561,186569,186579,186580" d="M146.01137,6.38681C145.23286,7.26547 146.13936,7.57546 146.71136,8.09131C147.43857,8.74711 147.90245,9.4852 148.01137,10.38681C148.10786,11.18554 148.62434,11.96877 148.98604,12.78681C149.33289,13.57127 149.92633,14.3742 150.01003,15.18681C150.10223,16.08207 150.17415,16.82487 150.65869,17.43947C151.1707,18.08892 150.81822,19.12226 151.08336,20.02281C151.30338,20.77009 152.19385,21.22296 152.76837,22.14397C153.14998,22.75572 152.89488,23.79496 153.01587,24.68681C153.12729,25.50814 153.85722,26.15367 154.0007,26.9868C154.15346,27.87381 154.01137,28.78681 154.01137,29.68681C154.01137,30.58681 154.01137,31.48664 154.01137,32.41214C154.01137,33.18814 154.01137,34.08681 154.01137,34.9868C154.01137,35.88681 154.01137,36.7868 154.01137,37.68681C154.01137,38.58681 154.01137,39.4868 154.01137,40.38681C154.01137,41.18681 154.01137,42.22014 154.01137,42.99747C154.01137,43.88681 154.01137,44.79747 154.01137,45.70814C154.01137,46.56147 154.01137,47.50147 154.01137,48.38681C154.01137,49.18681 154.01137,50.08681 154.01137,50.9868C154.01137,51.95081 154.01137,52.82281 154.01137,53.68681C154.01137,54.58681 154.01137,55.4868 154.01137,56.38681C154.01137,57.18681 154.01137,58.08681 154.01137,58.9868C154.01137,59.88681 154.01137,60.7868 154.01137,61.77614C154.01137,62.67214 154.01137,63.4868 154.01137,64.3868C154.01137,65.18681 154.01137,66.08681 154.01137,66.98681C154.01137,67.8868 154.01137,68.7868 154.01137,69.68681C154.01137,70.58681 154.06203,71.48803 154.01137,72.41214C153.96863,73.19165 153.26442,73.92399 153.04736,74.7868C152.82762,75.66031 153.01137,76.58681 153.01137,77.48681C153.01137,78.3868 153.01137,79.18681 153.01137,80.08681C153.01137,80.98681 153.01137,81.95081 153.01137,82.82281C153.01137,83.68681 153.16116,84.59939 153.0112,85.48664C152.8672,86.33866 152.03996,86.74268 152.01137,87.68681C151.98413,88.5864 152.01137,89.48681 152.01137,90.3868C152.01137,91.18681 152.01137,92.08681 152.01137,92.98681C152.01137,93.8868 152.16866,94.80218 152.00237,95.69131C151.83302,96.59676 151.12088,97.19384 150.71671,97.79131C150.20116,98.55341 150.0322,99.38615 150.01137,100.3868C149.99142,101.34493 150.01137,102.2188 150.01137,103.09664C150.01137,103.90414 150.01137,104.86597 150.01137,105.79747C150.01137,106.70814 150.01137,107.3868 150.01137,108.3653C150.01137,109.3868 150.21217,110.22268 149.95419,111.08681C149.69781,111.94556 149.01204,112.55614 149.01137,113.42847C149.01064,114.3868 149.10413,115.19439 148.92603,115.90147C148.66022,116.95677 148.13239,117.71479 148.04736,118.63747C147.97903,119.379 148.01137,120.41614 148.01137,121.18414C148.01137,122.10147 147.95419,123.03414 147.30687,123.49664L146.71136,124.09214L146.21136,124.8188" id="svg_31" stroke-width="3" stroke="#000" fill="none"/>
  <path t="188834,189058,189066,189091,189122,189194,189194,189209,189209,189241,189361,189379,189412,189434,189434,189453,189497,189514,189530,189586,189601,189618,189631,189653,189668,189722,189749,189753,189773,189818,189897,189898,189922,189970,189970,189978,190033,190073,190092,190092,190130,190161,190161,190185,190185,190227,190227,190258,190290,190313,190322,190322,190345,190354,190386,190412,190441,190442,190473,190474,190506,190529,190553,190570,190578,190578,190601,190627,190641,190660,190690,190722,190761,190786,190809,190826,190842,190858,190890,190906,190921,190922,190946,190961,190993,191002,191011,191033,191049,191065,191065,191081,191092,191106,191121,191138,191155,191169,191178,191178,191195,191201,191211,191227,191234,191243,191259,191328,191328,191343,191421,191432,191440,191440,191441,191450,191450,191463,191473,191485,191499,191508,191516,191537,191553,191562,191562,191578,191585,191609,191626,191633,191649,191658,191676,191676,191698,191714,191729,191762,191770,191779,191808,191811,191835,191844,191845,191853,191881,191881,191913,191913,191929,191945,192073,192146" d="M153.01137,-1.61319C152.12469,-1.61319 151.15707,-1.88343 150.2542,-1.61303C149.47585,-1.37992 149.03079,-0.43413 148.61136,0.20147C148.03741,1.07123 147.18707,0.9714 146.36853,1.44397C145.55759,1.91216 144.83138,2.01 144.17802,2.55347C143.48801,3.12744 143.25018,3.92447 143.0322,4.88681C142.83331,5.7648 143.08441,6.73698 142.58603,7.36147C142.10085,7.96944 142.01204,8.78681 142.01137,9.68681C142.0107,10.58547 141.38432,11.12921 141.0322,11.88681C140.63759,12.73581 141.20625,13.70849 141.01003,14.58547C140.82944,15.39252 140.02937,15.83292 140.01137,16.70814C139.99382,17.56129 140.18974,18.55489 139.8447,19.38681C139.51938,20.17116 139.3036,20.93938 139.0007,21.77614C138.72878,22.52734 138.15262,23.11674 137.92737,23.90414C137.67247,24.79518 136.97153,25.53149 136.62202,26.21214C136.1189,27.19197 136.01671,28.01209 136.01137,28.87081C136.00601,29.73412 136.01137,30.62964 136.01137,31.58681C136.01137,32.4868 136.01137,33.38681 136.01137,34.18681C136.01137,35.08681 135.77028,35.85921 135.29536,36.55614C134.79349,37.29263 135.01137,38.22014 135.01137,39.13947C135.01137,40.03947 135.01137,40.90281 135.01137,41.84514C135.01137,42.74397 135.01137,43.58681 135.01137,44.4868C135.01137,45.38681 135.01137,46.18681 135.01137,47.08681C135.01137,47.9868 135.06425,48.92154 134.65869,49.68681C134.21039,50.5327 134.01137,51.38681 134.01137,52.26547C134.01137,53.0913 134.01137,53.9868 134.01137,54.88681C134.01137,55.7868 134.01137,56.68681 134.01137,57.58681C134.01137,58.4868 134.01137,59.38681 134.01137,60.18681C134.01137,61.08681 134.01137,62.02964 134.01137,62.90764C134.01137,63.7868 134.01137,64.68681 134.01137,65.58681C134.01137,66.48681 134.01137,67.3868 134.01137,68.18681C134.01137,69.08681 134.01137,69.98681 134.01137,70.8868C134.01137,71.77614 134.01137,72.67214 134.01137,73.58681C134.01137,74.48681 134.01137,75.3868 134.01137,76.18681C134.01137,77.08681 134.01137,77.98681 134.01137,78.8868C134.01137,79.7868 134.01137,80.68681 134.01137,81.58547C134.01137,82.4708 134.01137,83.3868 134.01137,84.18681C134.01137,85.08681 134.01137,85.98681 134.01137,86.92847C134.01137,87.72014 134.01137,88.64814 134.01137,89.43864C134.01137,90.46497 134.01137,91.3243 134.01137,92.27697C134.01137,93.09131 134.01137,93.98681 134.01137,94.8868C134.01137,95.7868 134.01137,96.68681 134.01137,97.58681C134.01137,98.48681 134.01137,99.3868 134.01137,100.18681C134.01137,101.08681 134.01137,102.02964 134.01137,102.90764C134.01137,103.7868 134.01137,104.68681 134.01137,105.58681C134.01137,106.48681 134.01137,107.3868 134.01137,108.18681C134.01137,109.08681 134.17746,110.00619 133.99052,110.8868C133.81154,111.72995 133.02179,112.3866 133.01137,113.18814C132.99969,114.08673 133.01137,114.98681 133.01137,115.90764C133.01137,116.8708 133.01137,117.56147 133.01137,118.63414C133.01137,119.55347 133.01137,120.3868 133.01137,121.22014C133.01137,122.08231 133.04736,122.98681 133.43669,123.7868L133.92603,124.58681L134.01137,125.48681" id="svg_32" stroke-width="3" stroke="#000" fill="none"/>
  <path t="193459,193673,193730,193753,193780,193826,193849,193873,193929,193929,193961,193969,194001,194027,194049,194081,194099,194114,194124,194147,194147,194162,194169,194194,194194,194209,194265,194277,194289,194291,194329,194346,194362,194385,194401,194426,194434,194449,194481,194497,194497,194506,194521,194537,194547,194553,194569,194579,194596,194641,194660,194660,194681,194691,194698,194721,194729,194737,194737,194761,194777,194801,194810,194826,194833,194850,194857,194866,194882,194898,194898,194907,194923,194953,194953,194963,194963,194986,194998,195002,195017,195017,195017,195028,195033,195058,195058,195075,195076,195084,195091,195110,195114,195125,195125,195149,195163,195194,195194,195209,195217,195217,195242,195250,195267,195276,195290,195300,195309,195321,195330,195342,195342,195352,195352,195357,195367,195367,195372,195388,195396,195397,195402,195411,195417,195433,195433,195442,195466,195489,195498,195546,195553,195553,195577,195577,195601,195641,195658,195667,195675,195697,195729,195785,195785,195795" d="M113.01137,0.38681C112.0127,2.10147 112.01137,2.99747 112.01137,3.88681C112.01137,4.78681 112.01137,5.68681 112.01137,6.58681C112.01137,7.48681 112.01137,8.38681 112.01137,9.18681C112.01137,10.08681 111.61315,11.08938 112.04736,11.95081C112.39964,12.64968 113.0107,13.18814 113.01137,14.08681C113.01204,14.98681 112.78152,15.9223 113.0327,16.78681C113.26065,17.57138 114.39198,17.79874 114.8407,18.58681C115.29396,19.38285 114.97417,20.38767 115.01137,21.18681C115.05408,22.10445 115.95047,22.60204 116.01137,23.4868C116.07317,24.38468 116.01137,25.18681 116.01137,26.08681C116.01137,26.9868 116.01137,27.8868 116.01137,28.78681C116.01137,29.68681 115.88733,30.59542 116.01153,31.48664C116.12325,32.28836 117.01137,32.55347 117.01137,33.38681C117.01137,34.18681 117.01137,35.08681 117.01137,35.9868C117.01137,36.88681 117.01137,37.7868 117.01137,38.68681C117.01137,39.58681 117.01137,40.4868 117.01137,41.38681C117.01137,42.30414 117.01137,43.09664 117.01137,43.90414C117.01137,44.86597 117.01137,45.7868 117.01137,46.68681C117.01137,47.58681 117.01137,48.4868 117.01137,49.38681C117.01137,50.18681 117.01137,51.08681 117.01137,52.02964C117.01137,52.90764 116.94441,53.73037 116.4367,54.41214C115.95949,55.05295 116.01331,56.00641 115.58603,56.7868C115.13566,57.60937 115.01137,58.4868 115.01137,59.38681C115.01137,60.18681 115.11768,61.09337 115.01137,61.95081C114.89985,62.8502 114.3222,63.53798 114.09669,64.50281C113.92086,65.25511 114.29365,66.31274 113.8447,67.05347C113.37678,67.8255 112.85262,68.55664 112.58603,69.21214C112.30372,69.90627 112.16639,70.98968 112.01137,71.86597C111.86226,72.70887 111.24247,73.26048 111.0367,74.21214C110.88892,74.89561 110.32546,75.79023 110.06853,76.68681C109.82011,77.55373 110.01137,78.48681 110.01137,79.3868C110.01137,80.18681 110.11003,81.09528 109.99053,81.90764C109.84522,82.89548 109.31638,83.52631 109.09669,84.50147C108.90123,85.36916 109.02936,86.18699 109.01137,87.08681C108.99336,87.98735 108.39324,88.69714 108.09669,89.58681C107.81082,90.44446 108.01137,91.3868 108.01137,92.26547C108.01137,93.09131 108.01137,94.0228 108.01137,94.87214C108.01137,95.59747 108.01137,96.78547 108.01137,97.5508C108.01137,98.50147 108.01137,99.3868 108.01137,100.14397C108.01137,101.03497 108.01137,102.05347 108.01137,102.95614C108.01137,103.73864 108.01137,104.62964 108.01137,105.58681C108.01137,106.48681 108.01137,107.3868 108.01137,108.18681C108.01137,109.08681 108.01137,109.98681 108.01137,110.8868C108.01137,111.77614 108.01137,112.67347 108.01137,113.55347C108.01137,114.3868 108.01137,115.3653 108.01137,116.18547C108.01137,117.08681 108.01137,117.98681 108.01137,118.8868C108.01137,119.7868 108.01137,120.68681 108.01137,121.58547C108.01137,122.4708 108.01137,123.3868 108.01137,124.18681L108.01137,125.08681" id="svg_33" stroke-width="3" stroke="#000" fill="none"/>
  <path t="197554,197674,197699,197717,197746,197762,197762,197787,197810,197827,197845" d="M34.01136,55.38681C35.71136,56.38231 36.63123,56.38923 37.41137,55.96147C38.23426,55.51027 39.07093,55.10184 39.71136,54.73947C40.53215,54.27505 41.06403,53.73947 41.8127,53.38814L42.72603,53.30147" id="svg_34" stroke-width="3" stroke="#000" fill="none"/>
  <path t="198539,198618,198618,198634,198645,198674,198692,198714,198746,198778,198818,198866,198891,198898,198923,198940,198954,198986,199002,199011,199011,199034,199043,199067,199067,199077,199098,199098,199114,199114,199114,199130,199141,199147,199170,199180,199202,199218,199218,199227,199250,199268,199268,199298,199316,199316,199341,199354,199354,199364,199364,199382,199382,199387,199397,199428,199450" d="M36.01136,52.38681C35.01136,53.38681 35.01136,54.18681 35.01136,55.08681C35.01136,55.9868 35.01136,56.88681 35.01136,57.7868C35.01136,58.68681 35.01136,59.58681 35.01136,60.4868C35.01136,61.38681 35.01136,62.26547 35.01136,63.0913C35.01136,63.9868 35.01136,64.8868 35.01136,65.7868C35.01136,66.68681 35.01136,67.58681 35.01136,68.48681C35.01136,69.3868 35.01136,70.18681 35.01136,71.08681C35.01136,71.95081 35.01136,72.95614 35.01136,73.73864C35.01136,74.63414 35.01136,75.55347 35.01136,76.40764C35.01136,77.3868 35.01136,78.17614 35.01136,78.90147C35.01136,79.97614 35.01136,80.8868 35.01136,81.77614C35.01136,82.67214 35.01136,83.58681 35.01136,84.48681C35.01136,85.3868 35.02278,86.18687 35.01136,87.08681C35.00095,87.90784 34.70956,88.86358 34.4367,89.56147C34.07271,90.49245 34.17752,91.42258 33.92603,92.18681C33.62324,93.10695 33.06334,93.86948 33.02203,94.59747C32.96599,95.58511 33.01136,96.36597 33.01136,97.3653C33.01136,98.18547 33.01136,99.08681 33.01136,99.98681L33.01136,100.8868L33.01136,101.86597" id="svg_35" stroke-width="3" stroke="#000" fill="none"/>
  <path t="200370,200418,200426,200443,200443,200462,200462,200477,200477,200498,200498,200522,200522,200538,200538,200549,200554,200554,200570,200594,200594,200628,200746,200778,200778,200786,200827,200866,200882,200882,200898,200915,200962,200970,200979,200979,200994,201018,201042,201042,201060,201060,201068,201093,201093,201114,201130,201153,201162,201170,201194,201217,201218,201234,201250,201250,201258,201279,201290,201290,201314,201330,201353,201354,201370,201386,201386,201411,201411,201427,201442,201442,201465,201530" d="M7.01136,55.38681C8.81137,55.38681 9.40594,55.69032 10.17803,56.22014C10.78715,56.63813 11.88846,56.25562 12.52736,56.55747C13.51771,57.02536 13.83116,57.9506 14.66853,58.27697C15.38024,58.55437 16.43448,58.61976 17.17537,58.99747C18.02189,59.42904 18.66449,60.13313 19.31137,60.6823C20.06606,61.32302 20.77707,61.53458 21.64737,61.96147C22.46762,62.36382 23.35869,62.38393 24.2542,62.38681C25.21136,62.38988 25.96907,62.62178 26.71136,63.03414C27.53577,63.49211 28.32258,63.77467 28.8447,64.55347C29.31793,65.25935 28.81055,66.22268 29.06853,67.08681C29.32491,67.94557 30.01136,68.60831 30.01136,69.48681C30.01136,70.3868 29.60863,71.32321 30.0967,72.10147C30.56103,72.84188 31.01136,73.48697 31.01136,74.27214C31.01136,75.21214 30.68979,75.97498 31.08336,76.97614C31.3712,77.70831 32.56513,77.92017 32.93937,78.7868C33.2973,79.6157 33.01136,80.58681 33.01136,81.48664C33.01136,82.36147 33.01136,83.14848 33.01136,84.03947C33.01136,84.90281 33.01136,85.8868 33.01136,86.70814C33.01136,87.56147 32.87529,88.57205 33.36403,89.33864C33.8129,90.04268 34.00911,90.73863 34.01136,91.75081C34.01322,92.58681 34.01136,93.48697 34.01136,94.27214C34.01136,95.21214 34.01136,96.22014 34.01136,97.01214C34.01136,97.8708 34.01136,98.73414 34.01136,99.63414C34.01136,100.55347 34.01136,101.36597 34.01136,102.3868L34.01136,103.24814" id="svg_36" stroke-width="3" stroke="#000" fill="none"/>
  <path t="202450,202514,202530,202538,202562,202578,202578,202585,202601,202613,202634,202645,202659,202659,202676,202676,202682,202698,202722,202747,202762,202762,202801,202802,202818,202818,202842,202858,202858,202882,202890,202891,202907,202916,202922,202930,202938,202947,202962,202970,202979,203001,203018,203018,203027,203043,203050,203066,203066,203082,203099,203138" d="M41.01136,52.38681C42.81136,52.38681 43.73063,52.20538 44.57536,52.38681C45.42585,52.56946 46.09884,53.31522 46.57536,53.9868C47.09026,54.71246 47.73696,55.26072 48.0007,55.99747C48.30046,56.83484 47.90847,57.88751 48.57936,58.58814C49.08138,59.11241 49.86837,59.68825 49.99003,60.56147C50.11959,61.4914 49.70175,62.56172 50.2327,63.26547C50.71721,63.90768 50.93776,64.55858 51.0322,65.3868C51.14538,66.37936 51.71083,66.9727 51.92603,67.8708C52.12809,68.71404 51.99958,69.63422 52.01136,70.55347C52.02178,71.36617 52.58511,72.14694 52.92603,72.95614C53.23146,73.68109 53.01129,74.75081 53.01136,75.58681C53.01145,76.48664 53.55977,77.05614 53.9542,77.74397C54.42407,78.56338 54.01136,79.58681 54.01136,80.48681C54.01136,81.3868 54.01136,82.22014 54.01136,83.09664C54.01136,83.90414 54.00906,84.86597 54.01136,85.7868C54.01361,86.68681 54.2327,87.48681 54.72736,88.18681L55.0007,88.98681L55.0322,89.8868L55.36403,90.68681" id="svg_37" stroke-width="3" stroke="#000" fill="none"/>
  <path t="203795,204194,204194,204202,204202,204210,204218,204228,204258,204266,204442,204442,204449,204458,204466,204481,204491,204498,204513,204522,204530,204546,204554,204554,204562,204586,204602,204611,204642,204642,204649,204681,204690,204707,204722,204730,204753,204763,204763,204779,204794,204802,204826,204834,204849,204873,204882,204882,204892,204908,204908,204914,204914,204930,204938,204953,204954,204961,204962,204970,204986,204986,204993,205002,205017,205028,205034,205058,205066,205076,205091,205099,205114,205122,205122,205138,205161" d="M56.01136,90.3868C56.01136,88.5508 56.01136,87.78547 56.01136,86.79131C56.01136,85.87214 56.01136,84.90764 56.01136,83.98681C56.01136,83.09131 56.01136,82.16531 56.01136,81.2868C56.01136,80.3868 56.01136,79.58681 56.01136,78.68681C56.01136,77.7868 56.01136,76.8868 56.01136,75.98681C56.01136,75.08681 56.01136,74.18681 56.01136,73.28697C56.01136,72.41214 56.01136,71.58547 56.01136,70.75081C56.01136,69.73414 56.01136,69.03947 56.01136,68.0228C56.01136,67.08681 56.01136,66.18681 56.01136,65.2868C56.01136,64.3868 56.01136,63.58681 56.01136,62.67214C56.01136,61.77614 56.01136,60.88681 56.01136,59.9868C56.01136,59.08681 56.01136,58.18681 56.01136,57.2868C56.01136,56.38681 56.01136,55.58681 56.01136,54.68681C56.01136,53.7868 56.01136,52.90764 56.01136,52.02964C56.01136,51.08681 56.01136,50.18681 56.01136,49.2868C56.01136,48.38681 56.01136,47.58681 56.01136,46.7508C56.01136,45.72964 56.01136,44.9823 56.01136,43.98947C56.01136,43.2588 56.01136,42.21881 56.01136,41.36597C56.01136,40.40814 56.01136,39.63414 56.01136,38.73414C56.01136,37.8708 56.01136,36.88681 56.01136,36.06547C56.01136,35.21214 56.01136,34.27214 56.01136,33.28697C56.01136,32.41214 56.01136,31.58547 56.01136,30.68681C56.01136,29.78681 56.01136,28.8868 56.01136,27.9868C56.01136,27.08681 56.01136,26.18681 56.01136,25.28681C56.01136,24.38681 56.01136,23.58681 56.01136,22.67214L56.01136,21.77614" id="svg_38" stroke-width="3" stroke="#000" fill="none"/>
  <path t="206163,206259,206290,206302,206302,206311,206318,206332,206375,206375,206377,206397,206404,206405,206419,206444,206459,206478,206491,206509,206516,206530,206541,206548,206554,206570,206586,206596,206618,206618,206627,206648,206660,206669,206680,206683,206694,206694,206710,206719,206740,206749,206754,206771,206783,206789,206789,206812,206819,206835,206882" d="M88.01137,33.38681C89.01137,32.38681 89.72918,32.60957 90.17803,33.38681C90.53699,34.0084 91.45075,34.42743 92.0367,34.96147C92.67577,35.54394 93.38149,36.06208 93.72603,36.90414C94.06142,37.72387 94.46432,38.49401 94.8447,39.38681C95.16489,40.13834 94.6482,41.1837 95.04736,41.95081C95.4425,42.71019 96.0107,43.18814 96.01137,44.08681C96.01204,44.9868 96.00911,45.88681 96.01137,46.7868C96.01362,47.68231 96.69431,48.20456 97.00069,48.99747C97.32127,49.82709 96.92686,50.7908 97.01137,51.6823C97.09507,52.56531 97.82123,53.04517 98.00069,53.9868C98.1692,54.87095 98.01137,55.7868 98.01137,56.68681C98.01137,57.58681 98.01137,58.4868 98.01137,59.38681C98.01137,60.18681 98.01137,61.08681 98.01137,61.95081C98.01137,62.90764 98.01137,63.7868 98.01137,64.68681C98.01137,65.58681 98.01137,66.48681 98.01137,67.3868C98.01137,68.18681 98.01137,69.08681 98.01137,69.98681L98.01137,70.8868L98.01137,71.77614" id="svg_39" stroke-width="3" stroke="#000" fill="none"/>
  <path t="209028,209450,209461,209468,209498,209546,209546,209554,209570,209579,209586,209610,209634,209682,209778,209778,209786,209794,209819,209834,209834,209850,209860,209882,209891,209899,209923,209931,209940,209954,209963,209978,209994,209994,210027,210058,210059,210077,210107,210114,210124,210141,210147,210154,210155,210178,210188,210195,210211,210227,210243,210250,210260,210261,210267,210283,210291,210308,210314,210330,210386,210386,210410,210410,210427,210442,210442,210450,210450,210467,210477,210477,210523" d="M187.01137,93.3868C188.01137,92.41214 188.01137,91.58547 188.01137,90.68681C188.01137,89.86597 188.01137,88.90281 188.01137,88.03947C188.01137,87.14397 188.13538,86.1782 188.0112,85.28697C187.89948,84.48509 187.03996,84.0311 187.01137,83.18814C186.97855,82.2207 187.18491,81.34855 186.92603,80.58681C186.62425,79.6989 186.16199,78.97427 186.00687,78.08681C185.8446,77.15848 185.179,76.61498 185.01587,75.68681C184.86615,74.83492 184.1571,74.34284 184.0127,73.58547C183.84163,72.6883 184.01137,71.77614 184.01137,70.8868C184.01137,69.98681 184.01137,69.08681 184.01137,68.18681C184.01137,67.2868 184.25352,66.29299 183.8407,65.58681C183.38304,64.80391 182.19035,64.43933 182.02037,63.68681C181.83,62.84399 182.01137,61.95081 182.01137,60.9868C182.01137,60.08681 182.01137,59.18681 182.01137,58.2868C182.01137,57.38681 182.01137,56.58681 182.01137,55.68681C182.01137,54.7868 182.01137,53.88681 182.01137,52.99747C182.01137,52.10147 182.01137,51.18681 182.01137,50.2868C182.01137,49.38681 182.01137,48.58681 182.01137,47.68681C182.01137,46.7868 182.01137,45.88681 182.01137,44.9868C182.01137,44.08681 182.01137,43.18681 182.01137,42.28664C182.01137,41.50147 182.00406,40.56144 182.01137,39.8708C182.02179,38.88664 182.31332,37.91009 182.58603,37.21214C182.95026,36.27991 183.01003,35.5028 183.01137,34.56147L183.01137,33.55347L183.01137,32.74847L183.01137,31.86597" id="svg_40" stroke-width="3" stroke="#000" fill="none"/>
  <path t="218251,219386,219396,219396,219738,219746,219746,219746,219746,219746,219755,219755,219762,219779,219954,219962,219970,219970,219979,219986,219986,219994,219994,220138,220146,220162,220186,220186,220194,220194,220210,220210,220210,220218,220218,220233,220242,220713,220714,220754,220763,220763,220763,220770,220778,220778,220778,220786,220786,220786,220796,220796,220811,220811,220818,220831,220831,220834,221026,221034,221034,221042,221042,221050,221066,221076,221082,221092,221099,221099,221109,221114,221126,221126,221130,221130,221139,221154,221163,221179,221209,221217,221233,221249,221266,221276,221303,221303,221318,221358,221562,221562,221569,221578,221596,221611,221618,221618,221633,221634,221659,221659" d="M320.01135,122.3868C321.0322,121.3868 322.12408,121.3089 322.64969,120.6823C323.17068,120.06122 323.50336,118.88162 323.86337,118.33481C324.27823,117.7047 324.75922,117.07838 325.15936,116.4388C325.88416,115.28035 326.00928,114.50548 326.01135,113.57214C326.01346,112.62964 326.63025,112.0445 326.92603,111.18681C327.22079,110.332 327.01135,109.50147 327.01135,108.56147C327.01135,107.55347 327.01135,106.76147 327.01135,105.90281C327.01135,105.03947 327.01144,104.14397 327.01135,103.18681C327.01126,102.2868 326.91794,101.32001 326.36469,100.7868C325.75986,100.20391 324.95813,99.91263 324.01135,99.22014C323.39325,98.76804 322.92361,98.13215 322.03287,97.62964C321.26434,97.19608 320.45953,96.90526 320.06403,96.08681C319.64572,95.22121 319.24118,94.55341 318.60071,93.98681C317.87781,93.34729 317.16666,93.01856 316.49536,92.58681C315.60916,92.01682 314.85065,91.21406 314.35419,90.73414C313.80716,90.20535 313.02496,89.53265 312.22205,89.0228C311.67737,88.67694 310.78564,88.05799 310.12735,87.58681C309.38171,87.05311 308.65475,86.70052 307.76852,86.09131C307.00317,85.56519 306.1788,85.57656 305.31137,85.32964C304.5368,85.10915 303.86667,84.34697 303.18604,83.99747C302.20621,83.49435 301.59644,83.22846 300.92737,82.67081C300.30804,82.15461 299.40387,81.79729 299.03671,80.98681C298.68311,80.20621 297.9707,79.65807 297.21136,79.3028C296.47995,78.96059 296.12918,78.06306 295.8447,77.22014C295.55515,76.36221 294.97256,75.58051 294.5322,74.90764C294.01688,74.12023 293.60281,73.39318 293.01135,72.8868C292.41693,72.37788 291.38132,72.5727 290.62204,71.95081C289.9841,71.42831 290.19775,70.34413 289.92603,69.58547C289.60367,68.68551 288.70831,68.26269 288.29669,67.58681C287.78363,66.74433 287.12146,66.28387 286.62204,65.52547C286.2193,64.91392 286.33853,63.84321 286.0007,62.99747C285.68536,62.20807 285.01669,61.74018 285.01135,60.72964C285.00742,59.98232 285.01135,58.9868 285.01135,58.18681L285.01135,57.18697L285.01135,56.40764" id="svg_41" stroke-width="3" stroke="#000" fill="none"/>
  <path t="222851,222923,222932,222955,222970,222980,222986,222997,223013,223034,223050,223091,223147,223155,223202,223228,223275,223275,223283,223299,223308,223325,223331,223331,223395,223491,223491,223515,223515,223531,223531,223547,223570,223586,223594,223611,223635,223635,223646,223667,223682,223707,223930" d="M321.01135,125.3868C322.81137,125.3868 323.73111,125.22971 324.51135,125.40764C325.47339,125.62703 326.11963,126.21477 327.01135,126.3868C327.90094,126.55843 327.75275,127.61345 328.2327,128.26547C328.74667,128.96375 329.68652,129.12811 330.01135,129.74397C330.45123,130.5779 330.01135,131.58548 330.01135,132.43947C330.01135,133.38681 330.39694,134.3102 329.95419,135.02963C329.50076,135.7664 328.53741,135.93994 327.61136,136.36147C326.83072,136.7168 326.21988,137.12689 325.37537,137.41214C324.53384,137.69638 323.79431,137.98477 322.81171,138.4868C322.04794,138.87701 321.18387,139.33798 321.01404,140.1868C320.83746,141.06932 321.01331,142.00641 320.58603,142.7868C320.13565,143.60936 320.01135,144.4868 320.01135,145.38681C320.01135,146.1868 320.01135,147.08681 320.01135,147.9868L319.99054,148.88681L319.65869,149.6868L319.13269,150.48663" id="svg_42" stroke-width="3" stroke="#000" fill="none"/>
  <path t="224483,224819,224828,224828,224835,224835,224844,224861,224883,224946,224954,224978,224978,225010,225027,225042,225051,225061,225076,225083,225091,225091,225108,225114,225138,225155,225163,225179,225196,225202,225203,225212,225235,225251,225291,225291,225307,225355,225370,225394" d="M319.01135,153.38681C319.8447,153.22014 320.01135,152.38681 320.01135,151.62964C320.01135,150.73415 320.01135,149.8708 320.01135,148.90764C320.01135,147.9868 320.01135,147.08681 320.01135,146.1868C320.01135,145.2868 320.01135,144.38681 320.01135,143.58681C320.01135,142.67213 320.01135,141.77614 320.01135,140.88681C320.01135,139.9868 320.01135,139.08681 320.01135,138.1868C320.01135,137.2868 320.01135,136.38681 320.01135,135.58681C320.01135,134.6868 320.01135,133.7868 320.01135,132.88681C320.01135,131.9868 320.01135,131.08681 320.01135,130.1868C320.01135,129.2868 320.01135,128.38681 320.01135,127.58681C320.01135,126.68681 319.89923,125.77739 320.0322,124.86597C320.17615,123.87923 320.58603,123.24814 321.03671,122.37214L321.58603,121.77614L321.98602,120.98681L322.36404,120.08681" id="svg_43" stroke-width="3" stroke="#000" fill="none"/>
  <path t="228499,228658,228659,228659,228667,228667,228679,228679,228682,228682,228692,228699,228699,228699,228712,228712,228714,228714,228727,228731,228731,228739,228746,228746,228758,228760,228763,228770,228786,228802,228834,228834,228844,228850,228876,228876,228890,228907,228915,228927,228939,228946,228963,228970,228979,228979,228995,228995,229002,229002,229018,229027,229027,229034,229034,229043,229062,229077,229082,229082,229093,229098,229099,229114,229114,229126,229127,229140,229140,229159,229159,229163,229163,229170,229180,229186,229194,229194,229211,229218,229228,229244,229250,229250,229260,229260,229267,229278,229278,229282,229293,229307,229309,229315,229331,229331,229331,229339,229339,229347,229347,229359,229360,229372,229372,229382,229383,229388,229389,229397,229413,229413,229413,229418,229418,229434,229445,229445" d="M380.01135,169.38681C381.01135,169.05347 381.46976,168.54179 381.72604,167.78413C382.05453,166.81305 382.01923,165.9334 382.57938,164.98814C382.94827,164.36563 383.80527,163.59692 383.9697,162.90764C384.18854,161.9903 384.01135,161.05347 384.01135,160.13614C384.01135,159.39214 384.01135,158.35614 384.01135,157.63864C384.01135,156.73415 384.01135,155.8708 384.01135,154.88681C384.01135,153.9028 384.01135,153.21214 384.01135,152.13947C384.01135,151.22014 384.01135,150.38681 384.01135,149.55347C384.01135,148.6913 384.01135,147.7868 384.01135,146.88681C384.01135,145.9868 384.01135,145.08231 384.01135,144.22014C384.01135,143.40764 384.01135,142.38681 384.01135,141.52547C384.01135,140.55347 384.01135,139.79747 384.01135,138.88681C384.01135,137.9868 384.06323,137.05295 383.58603,136.41214C383.07831,135.73036 383.15344,134.87381 383.0007,133.9868C382.85724,133.15366 382.09933,132.39948 382.01587,131.62964C381.91885,130.73488 382.01135,129.9823 382.01135,128.98814C382.01135,128.22281 382.02283,127.1394 382.01135,126.22014C382.00095,125.3866 381.8187,124.56695 381.43671,123.79747C381.00208,122.92195 381.01135,122.02964 381.01135,121.18681C381.01135,120.28664 381.01135,119.50147 381.01135,118.56147C381.01135,117.55347 381.01135,116.76147 381.01135,115.90147C381.01135,114.98231 381.01135,113.98947 381.01135,113.2588C381.01135,112.22014 381.01135,111.50014 381.01135,110.5508C381.01135,109.78547 381.01135,108.79131 381.01135,107.87214C381.01135,106.90764 381.01135,106.08681 381.01135,105.18547C381.01135,104.22014 381.01135,103.40764 381.01135,102.44814C381.01135,101.6823 381.04163,100.78403 381.43671,99.97614C381.88358,99.06229 381.83508,98.32933 382.23288,97.4083C382.57565,96.61468 383.45264,96.17495 383.89005,95.2868C384.21234,94.63238 384.61627,93.8001 384.99054,92.90764C385.32404,92.11239 385.854,91.62342 386.51135,90.86597C387.04669,90.24911 387.41736,89.5539 387.81137,88.78547C388.31912,87.79523 388.56299,87.19054 389.21136,86.27081C389.6778,85.60916 390.26859,84.92812 390.57538,84.17614C390.9675,83.215 390.85538,82.32017 391.3447,81.55347C391.85193,80.75874 392.71274,80.23363 392.95004,79.57214C393.28238,78.64577 394.04941,78.07975 394.41138,77.51481C394.86075,76.81343 395.30685,75.79131 395.65421,75.04398L395.95871,74.14397L396.2327,73.28697L396.72736,72.67214" id="svg_44" stroke-width="3" stroke="#000" fill="none"/>
  <path t="230259,230427,230427,230428,230434,230434,230434,230448,230448,230448,230460,230460,230464,230467,230467,230476,230482,230491,230499,230500,230514,230523,230531,230554,230563,230570,230578,230586,230587,230602,230618,230618,230634,230650,230659,230659,230667,230668,230675,230682,230691,230691,230699,230708,230708,230715,230730,230730,230739,230739,230758,230763,230763,230770,230770,230778,230786,230812,230812,230830,230834,230851,230851,230859,230859,230876,230887,230894,230894,230903,230949,230950,230957,230957,230966,230967,230970,230982,231000,231000,231014,231015,231028,231028,231051,231052,231053,231054,231070,231093,231121,231140,231418,231418,231429,231434,231434,231443,231453,231469,231508" d="M397.01135,164.38681C397.01135,161.42964 397.01135,160.86597 397.01135,159.98547C397.01135,158.7868 397.01135,158.1868 397.01135,157.2868C397.01135,156.08698 397.01135,155.4913 397.01135,154.6228C397.01135,153.55347 397.01135,152.6228 397.01135,151.78813C397.01135,150.79131 397.01135,150.04398 397.01135,149.02281C397.01135,148.1868 397.01135,147.2868 397.01135,146.38681C397.01135,145.58681 397.01135,144.6868 397.01135,143.7868C397.01135,142.8228 397.01135,141.95081 397.01135,141.08681C397.01135,140.1868 397.05914,139.28554 397.01135,138.38681C396.96863,137.5834 396.31787,136.78926 396.09671,135.9028C395.92853,135.22878 396.01135,134.14397 396.01135,133.2868C396.01135,132.38681 396.01135,131.62964 396.01135,130.73415C396.01135,129.8708 396.01135,128.90764 396.01135,127.97614C396.01135,127.06548 396.01135,126.21214 396.01135,125.27214C396.01135,124.3868 396.01135,123.58681 396.01135,122.62964C396.01135,121.72964 396.01135,120.98231 396.01135,119.98814C396.01135,119.22281 396.01135,118.13947 396.01135,117.22014C396.01135,116.3868 395.98535,115.55309 396.01135,114.69131C396.03995,113.74268 396.86774,113.33501 397.01135,112.3868C397.13116,111.59583 396.84369,110.66075 397.05304,109.86597C397.2811,109.00019 398.12073,108.46358 398.67804,107.55347C399.04813,106.94915 398.87863,105.9763 399.01587,105.08681C399.15955,104.15542 399.71667,103.58344 400.01004,102.67214C400.28665,101.81284 400.6116,101.16018 401.11136,100.18714C401.5032,99.42423 402.15683,98.904 402.72604,98.30414C403.28223,97.71801 403.63885,96.80285 404.21136,96.18547C404.83002,95.5183 405.255,94.69044 405.76852,94.03947C406.42313,93.20966 407.05054,92.96546 407.98987,92.2868C408.62973,91.82452 409.32272,91.2677 409.72604,90.58681C410.216,89.75966 410.46777,88.86066 410.95871,88.09131C411.40878,87.38599 412.23093,87.12337 412.81137,86.58547C413.53677,85.91325 414.31894,85.26543 414.72604,84.58681C415.16754,83.85087 415.44736,82.99747 416.21002,82.4708L416.95871,82.02514" id="svg_45" stroke-width="3" stroke="#000" fill="none"/>
  <path t="234298,234434,234444,234444,234460,234466,234477,234477,234482,234498,234498,234509,234523,234541,234541,234546,234546,234555,234555,234570,234570,234578,234586,234596,234596,234602,234611,234618,234626,234634,234643,234643,234650,234650,234666,234682,234682,234729,234729,234759,234759,234773,234773,234773,234773,234773,234794,234794,234794,234816,234816,234837,234843,234859,234877,234878,234883,234897,234908,234908,234908,234909,234909,234909,234915,234929,234929,234930,234931,234931,234931,234944,234944,234944,234948,234948,234958,234959,234963,234988,234988,234999,234999,235014,235014,235020,235020,235020,235039,235040,235041,235083,235083,235093,235093,235114,235114,235145,235165,235166,235186,235200,235207,235212,235221,235233,235233,235254,235254,235277,235277,235322,235322,235370,235379,235388,235397,235416,235416,235429,235430,235434,235434,235453,235453,235459,235467,235485,235485,235498,235499,235520,235524,235524,235543,235559,235559" d="M388.01135,68.3868C389.8447,68.3868 390.72119,68.3868 391.52869,68.3868C392.49054,68.3868 393.31586,68.3868 394.3327,68.3868C395.01135,68.3868 395.98987,68.3868 397.01135,68.3868C397.81137,68.3868 398.71136,68.38672 399.57538,68.3868C400.45438,68.38689 401.25015,68.34702 402.21121,68.60814C403.00992,68.82514 403.99054,68.92469 404.7247,69.4708C405.48151,70.03374 405.90424,70.28969 406.82602,70.39747C407.78543,70.50964 408.48578,71.15647 409.16071,71.41214C410.05472,71.7508 410.41501,72.5798 411.09537,73.10281C411.70663,73.5727 412.76694,73.44955 413.31586,74.09664C413.82404,74.69567 414.51749,75.47063 415.15002,75.97614C415.87177,76.55293 416.32593,77.41369 417.0322,77.8868C417.8248,78.41776 418.45004,78.9455 419.32938,79.34314C419.91797,79.60931 420.99976,80.04568 421.72653,80.4493C422.12497,80.67058 422.94485,81.14886 423.76071,81.62014C424.84512,82.24654 425.44687,82.55242 426.14337,82.96547C427.14337,83.5585 427.65265,84.14701 428.41138,84.77614C429.06866,85.32114 429.99362,85.40409 430.72119,85.73947C431.52533,86.11015 432.495,86.30206 433.31586,86.3913C434.18802,86.48613 435.04071,86.92793 435.69803,87.10281C436.6795,87.36392 437.49036,87.37527 438.24203,87.38548C439.3606,87.40065 440.3447,87.3868 441.02121,87.3868C442.0632,87.3868 443.09003,87.3868 443.78604,87.3868C444.69537,87.3868 445.69537,87.3868 446.51135,87.3868C447.32736,87.3868 448.32471,87.3868 449.1647,87.3868C450.12735,87.3868 450.89536,87.3868 451.8367,87.3868C452.8447,87.3868 453.63712,87.41222 454.4967,87.38548C455.41711,87.35683 456.22543,87.20052 457.01135,86.86597C458.03165,86.43166 458.62756,86.12325 459.35419,85.68681C460.27826,85.13179 460.59323,84.23908 461.09537,83.67214C461.77261,82.90751 462.61432,82.71449 463.49536,82.4708C464.33783,82.23779 465.2793,82.05933 465.81003,81.58547C466.54846,80.92616 467.20944,80.18488 467.71136,79.68681C468.40872,78.99479 469.31058,78.62202 469.92737,78.10281C470.58875,77.54604 471.13412,76.96844 472.01135,76.55347C472.72394,76.21639 473.65308,75.99151 474.41586,75.73947C475.39337,75.41648 476.17532,75.39214 477.12735,75.3868C477.89536,75.3825 478.82623,75.36694 479.76852,75.3868C480.62262,75.40481 481.4202,75.81364 482.11136,76.48681C482.61792,76.98017 483.35196,77.65869 483.81137,78.27214C484.36264,79.00824 484.6944,79.80003 485.21136,80.78414C485.59875,81.52157 486.33856,82.05979 486.92871,82.67214C487.50253,83.26756 488.17014,83.72836 488.76852,84.48681C489.24667,85.09287 489.71121,85.9828 489.92603,86.8708C490.12991,87.71361 490.01587,88.62964 490.23288,89.48681L490.71585,90.08681" id="svg_46" stroke-width="3" stroke="#000" fill="none"/>
  <path t="237523,237617,237627,237627,237635,237636,237643,237651,237651,237661,237661,237661,237661,237661,237669,237669,237669,237676,237676,237676,237684,237684,237684,237691,237692,237701,237702,237718,237718,237718,237718,237718,237726,237726,237726,237743,237743,237751,237785,237786,237809,237826,237827,237849,237874,237898,237898,237914,237914,237930,237939,237939,237948,237948,237954,237954,237965,237978,237978,237986,238001,238002,238017,238018,238026,238026,238034,238044,238050,238074,238082,238098,238098,238107,238107,238125,238132,238140,238148,238154,238162,238180,238180,238201,238211,238227,238234,238234,238242,238250,238268,238268,238307,238307,238322,238322,238339,238354,238362,238362,238370,238385,238394,238394,238411,238411,238426,238426,238443,238450,238450,238466,238466,238477,238477,238482,238490,238491,238499,238509,238514,238538" d="M194.01137,62.38681C194.89803,63.38547 195.84737,63.38854 196.6127,63.38681C197.60687,63.38456 198.39464,63.43222 199.2542,63.03414C200.16736,62.61123 200.76297,62.35003 201.67802,62.05347C202.3548,61.83414 203.12984,61.52965 203.94603,61.16547C204.76747,60.79896 205.85577,60.20031 206.43987,59.79581C207.19119,59.27549 208.01137,58.72014 208.81137,58.42681C209.61136,58.13348 210.42377,57.54686 210.99052,56.88681C211.3634,56.45254 212.11812,55.61949 212.89537,55.30547C213.86858,54.9123 214.58473,54.61906 215.51137,54.22014C216.25992,53.89788 217.07825,53.56511 217.89937,53.21214C218.29697,53.04123 219.64207,52.43502 220.27803,52.0228C220.90884,51.61393 221.81396,50.94402 222.52736,50.67214C223.46605,50.3144 224.31772,50.03668 224.81137,49.58547C225.54173,48.91792 226.32765,48.45787 227.18604,48.39747C228.12378,48.33149 229.11136,48.38681 230.01137,48.38681C230.76852,48.38681 231.66403,48.38681 232.52736,48.38681C233.51137,48.38681 234.33287,48.38681 235.22203,48.38681C236.21136,48.38681 237.01137,48.38681 238.01137,48.38681C238.79002,48.38681 239.76869,48.38681 240.5807,48.38681C241.3632,48.38681 242.38603,48.38681 243.3327,48.38681C244.01137,48.38681 244.99004,48.38681 245.89537,48.38681C246.8367,48.38681 247.55836,48.16417 248.60069,48.42281C249.46422,48.63708 249.58948,49.70038 250.23286,50.2653C250.89928,50.85046 252.10518,50.14465 252.81137,50.55747C253.59427,51.01514 253.68909,52.06843 254.61136,52.36547C255.46828,52.64146 256.52631,52.18479 257.30685,52.74397C257.98822,53.23209 258.22861,54.11433 259.01135,54.55347C259.7114,54.94621 260.38461,55.61168 260.8447,56.38681C261.33499,57.21285 261.96512,57.62893 262.71136,58.03414C263.47247,58.44742 264.51208,58.28391 265.21271,58.95481C265.73697,59.45683 266.32373,60.17788 267.22205,60.40147C268.20248,60.6455 268.85034,60.69987 269.76852,61.26547C270.5177,61.72698 271.16937,62.28374 272.01135,62.36597C272.98529,62.46109 273.63608,62.78159 274.3447,63.22014C275.08121,63.67596 276.14273,63.29768 276.89536,63.47214C277.87036,63.69814 278.5249,64.11156 279.51135,64.3868C280.33072,64.61543 280.97586,64.99603 281.99002,65.2653C282.74661,65.46619 283.66403,65.3868 284.52737,65.3868C285.51135,65.3868 286.49536,65.3868 287.18604,65.3868C288.25421,65.3868 289.11121,65.3868 290.01135,65.3868L290.81268,65.3868" id="svg_47" stroke-width="3" stroke="#000" fill="none"/>
  <path t="248307,248498,248508,248515,248515,248524,248531,248531,248546,248546,248546,248557,248557,248557,248563,248574,248574,248579,248579,248586,248586,248594,248594,248602,248602,248611,248611,248618,248627,248634,248634,248646,248646,248651,248651,248660,248661,248676,248676,248682,248699,248699,248709,248709,248724,248724,248731,248746,248747,248762,248786,248802,248802,248810,248810,248828,248843,248844,248850,248866,248866,248892,248914,248914,248940,248963,248963,248979,249002,249002,249018,249018,249031,249036,249050,249050,249077,249091,249125,249126,249142" d="M70.01137,30.38681C69.55303,31.38681 70.34292,31.934 70.8447,32.72014C71.29572,33.42675 71.58559,34.24305 71.9287,34.95747C72.30107,35.73284 72.46232,36.58141 73.01137,37.40764C73.45004,38.06776 73.8715,39.06467 73.93936,39.60147C74.06709,40.61179 73.86321,41.62279 74.2327,42.48697C74.54053,43.20695 74.9257,44.04937 75.06403,44.79131C75.25111,45.79474 75.69952,46.51761 75.92603,47.5028C76.09914,48.25574 76.00963,49.22281 76.01137,49.98814C76.01362,50.97781 76.24094,51.70267 76.72736,52.46947C77.14918,53.13441 76.97697,54.15663 77.0322,54.88681C77.12087,56.0592 77.55824,56.67598 77.8447,57.55347C78.10724,58.3577 78.01137,59.36547 78.01137,60.13947C78.01137,61.03947 77.90431,61.91093 78.0322,62.88681C78.14204,63.72509 78.62058,64.3513 78.88986,65.36547C79.09074,66.12206 79.01137,67.03947 79.01137,67.90281C79.01137,68.8868 79.01137,69.8708 79.01137,70.56147C79.01137,71.62514 79.01137,72.55347 79.01137,73.3868C79.01137,74.14397 79.01137,75.03947 79.01137,75.90281C79.01137,76.8868 79.01137,77.8708 79.01137,78.56147C79.01137,79.63414 79.01137,80.55347 79.01137,81.36597C79.01137,82.28147 79.01137,83.09664 79.01137,83.90414C79.01137,84.8868 79.01137,85.8708 79.01137,86.56147C79.01137,87.63414 79.01137,88.55347 79.01137,89.3868C79.01137,90.22014 79.01137,91.08231 79.01137,91.98681C79.01137,92.90764 79.01137,93.8708 79.01137,94.56147C79.01137,95.62964 79.01137,96.48681 79.01137,97.3868L79.01137,98.18681L79.01137,99.08681" id="svg_48" stroke-width="3" stroke="#000" fill="none"/>
  <path t="253339,253466,253467,253482,253482,253482,253492,253492,253498,253498,253514,253523,253531,253531,253538,253539,253546,253578,253578,253587,253602,253611,253611,253628,253634,253643,253651,253651,253659,253668,253682,253707,253707,253714,253730,253730,253738,253746,253746,253758,253770,253770,253786,253786,253786,253796,253796,253802,253811,253811,253811,253818,253827,253843,253843,253890,253898,253946,253978,253995,254010,254018,254018,254026,254035,254035,254035,254042,254050,254058,254076,254091,254123,254138,254139,254154,254171,254194,254203,254211,254228,254234,254250,254274,254450,254450,254450,254498,254498,254514,254522,254530,254539,254557,254557,254563,254570,254578,254762,254827,254827,254834,254858,254881" d="M90.01137,127.3868C91.85803,127.36547 92.72111,127.26971 93.69403,126.8188C94.24061,126.56548 94.94238,125.95657 96.04203,125.55747C96.73339,125.30656 97.68501,125.5072 98.52737,125.30148C99.4053,125.08707 100.0574,124.32883 100.88336,123.96147C101.60186,123.64191 102.60569,123.42321 103.35419,123.3913C104.37455,123.34781 105.14972,123.00073 105.81136,122.67081C106.65473,122.25026 107.64736,122.3868 108.49403,122.3868C109.30153,122.3868 110.36853,122.3868 111.21136,122.3868C112.11137,122.3868 113.01137,122.3868 113.81136,122.3868C114.71136,122.3868 115.61137,122.3868 116.5322,122.3868C117.49536,122.3868 118.18604,122.3868 119.24969,122.3868C120.17803,122.3868 120.89803,122.3868 121.8367,122.3868C122.8447,122.3868 123.6007,122.3868 124.5322,122.3868C125.49803,122.3868 126.25804,122.38416 127.17803,122.3868C127.95954,122.38905 128.78873,122.26258 129.86836,122.60814C130.63364,122.85308 131.44003,123.32944 132.3447,123.55347C133.01849,123.72033 134.05563,123.94885 134.7567,124.58547C135.4214,125.18906 136.04802,125.71293 136.81137,126.10281C137.56425,126.48734 138.62773,126.38443 139.0367,126.99747C139.58597,127.82082 140.17802,128.38681 141.11136,128.38681C142.01137,128.38681 142.8175,128.31348 143.68336,128.42281C144.56639,128.5343 145.31071,128.7007 146.15804,129.18814C146.9882,129.66573 147.53201,130.37639 148.41136,130.38681C149.31131,130.39748 150.21136,130.38681 151.11136,130.38681C152.01137,130.38681 152.81137,130.38681 153.71136,130.38681C154.61136,130.38681 155.54616,130.4398 156.31137,130.03413C157.15715,129.58575 157.62038,128.87962 158.36853,128.44397C159.09749,128.0195 159.84842,127.90576 160.51137,127.3868C161.20251,126.84576 161.99315,126.66651 163.0407,126.47214C163.80031,126.33118 164.71136,126.32964 165.51137,125.8868C166.31137,125.44397 167.21269,125.3868 168.17802,125.3868C168.99052,125.3868 169.90192,125.41158 170.71587,125.3868C171.65552,125.35821 172.06317,124.53043 173.01137,124.3868C173.80235,124.267 174.71136,124.44397 175.41136,124.81214L176.21136,125.30148" id="svg_49" stroke-width="3" stroke="#000" fill="none"/>
  <path t="256178,256281,256281,256298,256307,256322,256323,256338,256338,256354,256354,256362,256378,256378,256386,256395,256395,256402,256410,256417,256427,256427,256442,256458,256466,256497,256497,256509,256516,256538,256713,256714,256723,256731,256731,256731,256740,256740,256747,256758,256758,256758,256763,256763,256770,256770,256786,256794,256811,257026,257026,257034,257042,257050,257059,257059,257091,257322,257331,257331,257354,257363,257379,257394,257402,257417,257418,257433" d="M311.01135,157.38681C312.01135,156.38681 312.81137,156.38681 313.71136,156.38681C314.5322,156.38681 315.50964,156.27789 316.3587,156.44397C317.28973,156.62608 317.89017,157.19617 318.65955,157.6868C319.29733,158.09351 319.89789,158.99721 320.58069,159.58548C321.12326,160.05295 322.17841,160.16255 323.01135,160.55347C323.78006,160.91425 324.3746,161.52487 325.12119,162.03413C325.79489,162.49368 326.84476,162.37817 327.60071,162.38681C328.51154,162.39723 329.44754,162.65247 329.89005,163.4868C330.33279,164.32162 330.57678,165.03477 331.31137,165.68231C331.97357,166.26604 332.71765,166.61633 333.17804,167.38681C333.60794,168.10628 334.55313,168.36172 335.55402,168.38715C336.26212,168.40514 337.11694,168.3044 338.04071,168.9548C338.69467,169.41525 339.20148,170.30115 340.17804,170.38681C340.84479,170.4453 341.6127,170.38681 342.61136,170.38681C343.41138,170.38681 344.41003,170.38681 345.35419,170.38681C346.25421,170.38681 347.21136,170.38681 348.11136,170.38681C349.01135,170.38681 349.81137,170.38681 350.71136,170.38681C351.61136,170.38681 352.5322,170.38681 353.3327,170.38681C354.18604,170.38681 355.12604,170.38681 356.11136,170.38681C357.01135,170.38681 357.81137,170.38681 358.71136,170.38681C359.57538,170.38681 359.85242,171.01384 360.36853,171.68231C360.94562,172.42973 362.01135,172.38681 362.81137,172.38681L363.72604,172.47214" id="svg_50" stroke-width="3" stroke="#000" fill="none"/>
  <path t="258060,258155,258163,258174,258181,258181,258199,258212,258213,258219,258219,258242,258243,258259,258259,258267,258267,258282,258299,258356,258356,258363,258381,258411,258418,258434,258459,258474,258475,258475,258514,258515,258562,258563,258579,258594,258611,258611,258627,258642,258650,258659,258676,258739,258757" d="M371.01135,170.38681C372.61136,169.81213 373.45456,169.50186 374.31137,169.03413C375.05667,168.62727 375.86111,168.3739 376.51135,167.86597C377.28,167.26553 377.89069,166.65173 378.66403,166.43497C379.5213,166.19469 380.22775,165.65135 380.76404,165.03497C381.45706,164.23845 382.16486,163.77292 383.12604,163.47081C383.79794,163.25963 384.57178,162.7332 385.31137,162.09131C385.97806,161.5127 386.71136,161.33414 387.51135,160.88681C388.31137,160.43947 389.10181,159.94423 389.8447,159.55347C390.55566,159.17949 391.3956,158.88583 392.3447,158.38681C392.99445,158.04517 393.74753,157.7729 394.67804,157.55347C395.48148,157.364 396.49536,157.38681 397.18604,157.38681C398.25421,157.38681 399.11264,157.33902 400.01135,157.38681C400.81476,157.42953 401.5491,158.13148 402.41138,158.3508C403.28012,158.57175 403.98602,158.81213 404.62204,159.37614L405.51135,159.40764L406.30685,159.74397" id="svg_51" stroke-width="3" stroke="#000" fill="none"/>
 </g>
</svg>