<svg width="299.25" height="420" xmlns="http://www.w3.org/2000/svg" xmlns:svg="http://www.w3.org/2000/svg" xmlns:xlink="http://www.w3.org/1999/xlink">
 <!-- Created with SVG-edit - http://svg-edit.googlecode.com/ -->
 <g display="inline" class="layer">
  <title>Layer 1</title>
  <path t="0,172,208,232,304,320,328,352,360,368,372,380,396,412,428,432,440,464,473,480,488,496,508,516,525,532,540,545,560,576,585,592,600,612,620,636,646,652,665,672,682,688,704,720,720,728,740,756,765,772,780,788,808,816,832,840,856,868,876,884,901,912,932,936,945,960,972,972,980,988,1012,1021,1024,1024,1032,1048,1056,1065,1072,1080,1104,1116,1124,1140,1140,1160,1169,1176,1185,1192,1208,1216,1224,1228,1244,1252,1276,1288,1296,1340,1388,1408,1440,1445,1468,1477,1484,1500,1508,1520,1528,1536,1545,1560,1568,1572,1580,1588,1596,1612,1620,1628,1637,1640,1656,1656,1664,1672,1684,1692,1700,1708,1708,1732,1740,1749,1752,1775,1784,1800,1800,1808,1820,1836,1845,1852,1868,1872,1880,1889,1896,1913,1920,1924,1939,1956,1964,1972,1972,1980,1992,2000,2008,2016,2024,2032,2040,2045,2052,2060,2068,2085,2092,2108,2112,2136,2152,2160,2169,2172,2196,2196,2204,2220,2232,2256,2272,2288" d="M89.325,64.7C88.4465,64.7 88.37453,63.84583 87.75034,63.7C86.84926,63.48949 85.89967,63.68933 85.33566,63.12533C84.89967,62.68933 84.3838,61.94058 83.6205,61.7045C82.76411,61.43962 82.09386,61.00647 81.26783,60.7C80.40763,60.38085 79.48019,60.65299 78.80417,60.2C78.06289,59.70329 77.0951,59.82104 76.22517,59.69983C75.42329,59.58811 74.95781,58.84156 74.12634,58.7C73.30663,58.56045 72.96928,57.7286 72.125,57.7C71.22569,57.66954 70.39352,57.59786 69.75034,57.12533C69.03577,56.60036 68.03967,56.7 67.125,56.7C66.22517,56.7 65.38216,56.7 64.52367,56.7C63.68217,56.7 62.71948,57.07359 61.84583,56.67916C61.15954,56.36932 60.80416,55.7 59.925,55.7C59.025,55.7 58.12634,55.7 57.23967,55.7C56.325,55.7 55.525,55.7 54.61033,55.7C53.67767,55.7 52.7458,56.00251 51.93567,55.68933C51.14279,55.38283 50.62051,54.70225 49.761,54.7C48.889,54.69772 47.93567,54.7 47.03967,54.7C46.12634,54.7 45.26783,54.7 44.325,54.7C43.49166,54.7 42.609,54.7 41.75033,54.7C40.825,54.7 39.96783,54.7 39.025,54.7C38.12634,54.7 37.26783,54.7 36.325,54.7C35.525,54.7 34.60616,54.52058 33.761,54.7C32.91189,54.88026 32.23112,55.63911 31.325,55.7C30.5268,55.75364 29.51187,55.3348 28.75033,55.736C27.99866,56.132 27.52367,56.69933 26.625,56.7C25.68217,56.7007 24.825,56.7 23.889,56.7C23.0295,56.7 22.26625,57.00181 21.609,57.416C20.88694,57.87103 19.90763,57.78948 19.29967,58.27467C18.67517,58.77304 17.79066,58.7918 17.289,59.27467C16.71987,59.82247 15.93599,59.91621 15.241,60.416C14.52726,60.92927 13.80017,60.84529 13.26783,61.34733C12.64761,61.93226 12.325,62.416 12.325,63.27467C12.325,64.2 12.85021,64.55302 13.32633,64.984C13.92045,65.52178 14.7132,65.65624 15.29967,66.12534C15.94273,66.63969 16.78518,66.75874 17.31433,67.27467C17.8112,67.75911 18.44582,68.34314 19.35033,68.68933C20.07513,68.96674 21.15833,68.7 21.93567,68.7C22.825,68.7 23.8043,68.54997 24.6205,69.05267C25.36636,69.51204 26.02956,69.68964 26.925,69.7C27.82518,69.71042 28.55823,70.38952 29.37767,70.6955C30.26516,71.0269 31.125,70.7 32.025,70.7C32.889,70.7 33.76101,70.69759 34.725,70.7C35.62501,70.70225 36.35024,71.03207 37.03967,71.416C37.78641,71.83185 38.825,71.7 39.725,71.7C40.6205,71.7 41.49166,71.7 42.37767,71.7C43.325,71.7 44.125,71.7 44.96783,71.7C45.89967,71.7 46.761,71.7 47.725,71.7C48.6205,71.7 49.49166,71.7 50.42484,71.7C51.27234,71.7 52.12634,71.7 52.96783,71.7C53.84583,71.7 54.825,71.7 55.71433,71.7C56.609,71.7 57.49166,71.7 58.425,71.7C59.325,71.7 60.2774,72.12959 60.96783,71.64283C61.69989,71.12672 62.0295,70.7 62.925,70.7C63.825,70.7 64.66856,70.63305 65.35033,70.12534C65.99115,69.64812 66.94438,69.8661 67.825,69.67917C68.66815,69.50019 69.30397,68.71042 70.12634,68.7C71.03959,68.68842 71.93567,68.7 72.80417,68.7C73.67767,68.7 74.63237,68.89809 75.52367,68.69867C76.33072,68.5181 76.81604,67.88674 77.5465,67.47867C78.21188,67.10696 79.06477,66.91493 79.97234,66.7C80.73969,66.51827 81.38216,65.7 82.2035,65.47867L82.49167,64.7" id="svg_1" stroke-width="3" stroke="#000" fill="none"/>
  <path t="3674,3764,3780,3792,3808,3844,3864,3868,3883,3891,3907,3915,3952,3968,3976,3989,4011,4012,4024,4048,4064,4080,4092,4100,4139,4160,4167,4183,4203,4243,4252,4271,4295,4320,4372,4388,4400,4408,4423,4443,4476,4492,4508,4513,4528,4575,4579,4587,4631,4824,4828,4860,4879,4904,4912,4931,4956,4995,5007,5031,5039,5075,5084,5099,5112,5127,5136,5179,5219,5235,5248,5263,5331,5356,5376,5392,5404,5413,5432,5464,5472,5488,5496,5520,5532,5540,5573,5580,5591,5607,5623,5631,5656,5672,5676,5684,5707,5727,5736,5752,5768,5775,5779,5803,5819,5831,5848,5872,5888,5892,5908,5916,5931,5948,5961,5976,5985,5992,6020,6036,6044,6059,6080,6087,6111,6127,6148,6156,6172,6185,6204,6216,6232,6248,6283,6299,6315,6320,6360,6379,6412,6425,6433,6450,6458,6480" d="M152.325,39.7C151.4465,39.7 150.80017,39.84529 150.26784,40.34733C149.64761,40.93226 148.78571,40.81254 148.32483,41.57867C147.91377,42.26198 147.54553,43.16436 146.97234,43.64283C146.27203,44.22741 145.81577,44.7051 145.26784,45.34733C144.71451,45.9959 144.21123,46.26672 143.75034,46.736C143.11713,47.38074 143.06564,48.06963 142.49167,48.7C142.03053,49.20645 141.40874,49.85445 141.325,50.71067C141.24051,51.57455 141.33636,52.41607 141.325,53.34733C141.31458,54.20019 140.50815,54.62177 140.325,55.27467C140.07507,56.16561 139.70193,56.485 139.34584,57.2C138.93323,58.0285 139.325,59.05267 139.325,59.92133C139.325,60.78533 138.91101,61.9128 139.49167,62.53333C140.07826,63.16021 140.29453,63.66454 140.325,64.53333C140.35361,65.34884 141.2641,65.69356 141.325,66.53333C141.38388,67.34521 141.01733,68.3364 141.33566,69.12534C141.64378,69.88898 142.31467,70.41606 142.325,71.27467C142.33614,72.20016 143.02551,72.40356 143.825,72.7C144.44049,72.92822 144.78172,73.75034 145.20351,74.5785C145.55676,75.27209 145.58559,76.39193 146.38217,76.7C147.22795,77.02709 148.24681,76.59988 148.825,77.2C149.43402,77.83212 149.67627,78.67139 150.54633,78.7C151.49117,78.73106 152.27278,78.80513 152.89967,79.27467C153.60936,79.80621 154.60899,79.7 155.49167,79.7C156.38217,79.7 157.289,79.7 158.15834,79.7C158.97234,79.7 159.32278,79.12273 159.825,78.7C160.33344,78.27201 160.89967,77.71066 161.325,77.2C161.75034,76.68933 162.3205,76.21583 162.825,75.67917C163.33119,75.14071 163.30223,74.18015 163.75034,73.68933C164.28812,73.10029 165.00485,72.86046 165.31433,72.12534C165.67339,71.27243 165.08942,70.24133 165.32634,69.416C165.54745,68.64575 166.13042,68.32523 166.32516,67.47867C166.50609,66.69215 167.14008,66.17996 167.325,65.34734C167.47853,64.65607 168.30699,64.27523 168.325,63.416C168.34464,62.47871 167.98837,61.53401 168.325,60.71067C168.63542,59.95139 169.325,59.34733 169.325,58.47867C169.325,57.53333 169.325,56.67916 169.325,55.784C169.325,54.984 169.71967,54.0038 169.325,53.136C169.05035,52.53212 168.325,52.27467 168.325,51.416C168.325,50.47867 168.15323,49.74243 167.67767,49.05267C167.19283,48.3494 167.37279,47.30217 166.825,46.72083C166.36543,46.23312 166.4557,45.31306 165.89967,44.736C165.41829,44.23641 165.49557,43.46315 165.325,42.53333C165.18063,41.74636 164.81682,41.22962 164.23967,40.7C163.58092,40.0955 163.27057,40.00467 162.49167,39.7C161.71559,39.39644 161.76509,38.30194 161.26784,37.7C160.72598,37.04407 159.97374,36.7286 159.10367,36.7C158.15884,36.66895 157.30417,36.7 156.409,36.7C155.60899,36.7 154.71434,36.7 153.761,36.7L152.88901,36.7" id="svg_2" stroke-width="3" stroke="#000" fill="none"/>
  <path t="8455,8587,8596,8607,8668,8692,8720,8752,8805,8831,8879,8888,8915,8960,8976,9015,9028,9140,9240,9248,9300,9336,9368,9388,9466,9492,9507,9531,9599,9743,9799,9823,9860,9912,9920,10032,10040,10056,10072,10092,10124,10176,10203,10220,10236,10340,10520,10536,10611,10631,10648,10696,10740,10756,10876,11332,11368,11377,11468,11476,11495,11511,11531,11616,11640,11660,11675,11719,11760,11771,11823,11864,11883,11991,12007,12068,12079,12103,12123,12147,12216,12244,12299,12336,12350" d="M139.325,56.7C140.15834,56.53333 140.38216,55.70225 141.26784,55.7C142.15834,55.69774 142.97234,55.7 143.89967,55.7C144.825,55.7 145.68376,55.59374 146.60899,55.7C147.33934,55.78388 147.60982,56.60606 148.54633,56.7C149.32574,56.77818 148.75127,57.8992 149.325,58.5785C149.79361,59.13332 150.71678,59.37149 150.30417,60.2C149.94809,60.915 148.825,60.7 147.89967,60.7C146.97234,60.7 146.10367,60.7 145.15834,60.7C144.30417,60.7 143.41034,60.7 142.60899,60.7C141.67767,60.7 141.39827,60.12697 140.89967,59.7C140.38754,59.26143 140.15442,58.46315 140.325,57.53333C140.46936,56.74636 141.7556,57.22851 142.32367,56.61467C142.93097,55.95845 143.23967,55.7 144.041,55.7C144.97234,55.7 145.85982,55.44854 146.75034,55.7C147.39922,55.88323 147.60899,56.7 148.54633,56.7C149.41034,56.7 150.35527,56.40115 151.20351,56.7C151.95583,56.96507 152.54633,57.7 153.49167,57.7C154.34584,57.7 155.37013,57.26174 156.041,57.7C156.6328,58.08661 156.73405,58.80501 157.3205,59.34733C157.8326,59.8209 158.27423,60.55419 158.89967,60.7C159.80083,60.91009 160.75034,60.7 161.60899,60.7C162.54633,60.7 162.68082,60.38047 163.325,59.72083C163.93896,59.09214 164.42488,59.14722 164.97234,58.7C165.44618,58.31291 165.99574,57.93572 166.325,57.34733C166.74919,56.58929 166.15834,55.7 165.289,55.7C164.38217,55.7 163.49167,55.7 162.67767,55.7C161.75034,55.7 160.89967,55.7 159.97234,55.7L159.041,55.7L158.23967,55.78533L157.60899,56.416" id="svg_3" stroke-width="3" stroke="#000" fill="none"/>
  <path t="14806,14939,14948,14968,14983,15028,15036,15051,15079,15131,15275,15319,15335" d="M149.325,70.7C150.20366,70.7 151.041,70.7 151.89967,70.7C152.825,70.7 153.7253,70.66312 154.31433,70.12534C154.80515,69.67723 155.67767,69.7 156.60899,69.7L157.325,69.53333L157.38217,68.7L158.26784,68.7" id="svg_4" stroke-width="3" stroke="#000" fill="none"/>
  <path t="16090,16124,16140,16152,16199,16227,16296" d="M150.325,65.7C151.97234,65.64283 152.325,64.86667 152.97234,64.7L153.89967,64.7L154.825,64.7L155.67767,64.7" id="svg_5" stroke-width="3" stroke="#000" fill="none"/>
  <path t="17822,17924,17948,17975,17991,18003,18012,18019,18036,18044,18051,18060,18072,18080,18088,18104,18112,18120,18124,18144,18164,18172,18187,18207,18215,18231,18243,18251,18268,18276,18284,18291,18327,18343,18352,18369,18372,18388,18404,18428,18432,18464,18483,18492,18515,18523,18531,18544,18568,18577,18584,18592,18608,18620,18628,18651,18664,18680,18688,18704,18704,18727,18731,18747,18756,18772,18779,18799,18815,18823,18831,18839,18847,18860,18884,18892,18912,18928,18944,18960,18973,18988,18996,19012,19020,19032,19057,19064,19072,19083,19096,19100,19123,19131,19143,19152,19160,19168,19184,19192,19200,19204,19212,19228,19236,19244,19260,19268,19279,19288,19311,19315,19336,19356,19399,19432,19444,19476,19520,19603,19631,19664,19692,19700,19732,19743,19776,19783,19803,19811,19835,19864,19879,19896,19904,19920,19924,19940,19949,19972,19983,19991,20007,20007,20023,20043,20074,20081,20081,20084,20092,20096,20120,20128,20136,20152,20161,20172,20181,20189,20196,20212,20217,20232,20280,20292,20304,20316,20332,20340,20360,20369,20383,20400,20411,20420,20452,20472,20480,20496,20512,20532,20548,20579,20584,20615,20631,20684,20744,20779,21132,21172,21183,21200,21231,21243,21292,21337,21360,21424,21432,21480,21540,21568,21583,21627,21703,21739,21763,21800" d="M141.325,69.7C140.4465,69.7 139.60899,69.7 138.75034,69.7C137.825,69.7 137.49046,70.36933 136.80417,70.67917C135.93053,71.07359 134.89603,70.54376 134.12633,70.984C133.34229,71.43244 132.58205,71.51515 131.71434,71.736C130.8614,71.95309 130.12958,72.65728 129.289,72.7C128.52466,72.73884 127.625,72.7 126.68217,72.7C125.75034,72.7 125.48546,73.37986 124.75034,73.68933C123.89743,74.04839 122.92717,73.65221 122.34583,74.2C121.85812,74.65957 121.53794,75.31897 120.825,75.67917C119.99861,76.09668 119.45119,76.42589 118.71433,76.68933C117.8166,77.0103 116.84751,76.39786 115.97234,76.7045C115.21851,76.96862 114.92471,77.73688 114.33566,78.27467C113.84486,78.72276 113.59798,79.16781 113.3205,80.05267C113.09843,80.76085 111.84334,80.50299 111.32367,80.984C110.77572,81.49119 110.41001,82.0451 109.89967,82.67467C109.41897,83.26765 109.4402,84.21368 108.97234,84.7045C108.45417,85.24809 107.7472,85.72342 107.32633,86.416C106.89645,87.1234 106.61363,88.05587 106.041,88.61467C105.49775,89.1448 105.6024,89.88938 105.10367,90.57867C104.59762,91.27806 104.2626,91.99608 103.609,92.416C102.83805,92.91132 102.01379,93.08787 101.49167,93.86667C101.01844,94.57255 101.40442,95.69601 100.825,96.2C100.1234,96.81026 99.48218,97.02172 98.97234,97.64733C98.47677,98.25543 97.54723,98.63625 97.32633,99.416C97.09228,100.24215 96.75983,100.6744 96.3295,101.34734C95.90356,102.0134 95.37158,102.73724 95.325,103.61467C95.28227,104.4194 94.66094,104.85124 94.15833,105.53333C93.6403,106.23636 93.325,106.86667 93.325,107.75267C93.325,108.64283 92.4089,108.68542 92.325,109.4045C92.22539,110.25821 91.5998,110.59123 91.33566,111.31067C91.00708,112.20565 90.64505,112.53949 90.33566,113.27467C89.96864,114.14681 90.57094,115.13572 90.3205,115.9955C90.09959,116.75392 89.325,117.05717 89.325,117.9C89.325,118.8 89.325,119.7 89.325,120.64283C89.325,121.4045 89.52618,122.32123 89.325,123.264C89.1447,124.1089 88.52349,124.72244 88.23967,125.50134C87.92944,126.35272 87.4557,127.08694 86.89967,127.664C86.41829,128.16359 85.78211,128.29092 85.325,128.86667C84.78445,129.5475 85.325,130.64284 85.325,131.53334C85.325,132.34734 85.325,133.27467 85.325,134.12534C85.325,135.05267 85.33242,136.07863 86.15833,136.53334C86.82396,136.8998 87.30224,137.21985 87.75034,137.71066C88.28812,138.29971 89.00486,138.53954 89.31433,139.27467C89.67338,140.12756 89.85435,140.45656 90.325,140.98399C90.82407,141.54329 91.1101,142.16444 91.609,142.70134C92.15449,143.28838 92.46845,144.17036 93.2035,144.57851C93.89358,144.96169 94.29237,145.60654 94.825,146.2C95.45473,146.90166 96.01695,147.44089 96.75034,148.12534C97.39011,148.72243 98.05402,148.99579 98.5465,149.79984C98.92608,150.41956 100.01536,150.33134 100.80417,150.72084C101.53211,151.08028 101.57814,152.2451 102.42484,152.57851C103.27,152.9113 104.32066,152.6209 104.825,153.2C105.43616,153.90176 105.72797,154.70024 106.325,155.2C106.9501,155.72327 107.78123,155.83742 108.3205,156.34734C108.8132,156.81322 109.89744,156.35159 110.75034,156.71066C111.48547,157.02014 111.87301,157.42238 112.67767,157.7045C113.43144,157.96878 113.76057,158.69931 114.30417,159.2C114.83522,159.68912 115.71381,159.44441 116.609,159.70134C117.37926,159.92241 117.609,160.7 118.54633,160.7C119.409,160.7 119.90552,160.94026 120.49167,161.53334C121.09452,162.14333 121.52232,162.15851 122.15833,162.7C122.71809,163.17656 122.89967,163.7 123.325,164.2C123.75034,164.7 124.92712,164.36481 125.325,164.92133C125.82749,165.62419 125.56908,166.09509 126.23967,166.70134C126.86008,167.26222 126.88643,167.76254 127.325,168.27467C127.75197,168.77327 128.90923,168.49611 129.325,168.98399C129.8112,169.55452 129.95775,170.31248 130.54633,170.7C131.26797,171.17513 132.5405,170.14001 133.20351,170.7C133.75833,171.16861 133.97234,171.7 134.825,171.7L135.75034,171.7L136.67767,171.7" id="svg_6" stroke-width="3" stroke="#000" fill="none"/>
  <path t="22487,22568,22580,22604,22644,22648,22664,22676,22751,22795,22820,22837,22912,22920" d="M130.325,160.7C130.325,161.57851 130.93675,161.7646 131.325,162.27467C131.73087,162.80791 132.38385,163.25983 132.89967,163.7C133.399,164.1261 133.75996,164.57176 134.60899,164.7C135.35002,164.81192 135.49167,165.7 136.34584,165.72084L136.89967,166.27467" id="svg_7" stroke-width="3" stroke="#000" fill="none"/>
  <path t="23633,23676,23709,23720,23757,23776,23796,23812,23832,23848,23864,23892,23900,23916,23932,23936,23952,23992,24004,24028,24036,24052,24072,24088,24104,24112,24128,24140,24149,24184,24199,24208,24223,24243,24251,24284,24295,24319,24328,24344,24360,24372,24404,24415,24440,24499,24508,24531,24567,24577,24628,24644,24711,24723,24747,24796,24832,24847,25544,25576,25648,25672,25688,25716,25724,25752,25775,25796,25820,25903,25911,26036,26044,26084,26160,26182,26196,26220,26292,26324,26331,26348,26356,26376,26411,26416,26452,26461,26468,26472,26488,26504,26513,26516,26555,26564,26581,26585,26596,26615,26631,26692,26720,26736,26760,26815,26831,26943,26975,27008,27012,27028,27196,27200,27275,27295,27311,27327,27360,27369,27380,27403,27412,27423,27456,27463,27480,27484,27493,27508,27532,27543,27567,27584,27595,27608,27617,27627,27651,27667,27704,27720,27736,27740,27756,27764,27772,27816,27836,27860,27884,27952,28020" d="M131.325,154.7C130.49167,154.53334 130.06432,154.1134 129.4465,153.47867C128.88927,152.90617 128.33647,152.9816 127.49167,152.7C126.7011,152.43648 125.84786,152.19795 125.325,151.61467C124.72838,150.9491 124.75671,150.52052 124.23967,149.98399C123.60989,149.33047 122.77495,149.52219 122.23967,148.98399C121.64556,148.38666 120.60893,148.71136 119.67767,148.7C118.82481,148.68958 118.04303,148.35561 117.49167,147.7C117.06144,147.18842 116.65351,147.09178 115.825,146.67917C115.11,146.32309 114.79188,145.65956 114.30417,145.2C113.72283,144.65221 112.74461,144.86349 112.041,144.416C111.22955,143.89992 110.74689,143.131 110.041,142.69867C109.35763,142.28014 109.6328,141.08661 109.041,140.7C108.30205,140.21724 107.95724,140.37216 107.30417,139.72084C106.6711,139.08945 106.17926,139.10925 105.67767,138.64284C105.02307,138.03416 105.72166,136.86789 105.289,136.12534C104.88557,135.43294 104.27235,135.11435 103.825,134.67917C103.25245,134.12221 103.34374,133.10226 102.825,132.7C102.34148,132.32506 101.76984,132.08179 101.325,131.47867C100.81215,130.78334 101.03457,129.64583 101.325,128.8215C101.59006,128.06917 102.325,127.47867 102.325,126.53333C102.325,125.67917 102.12671,125.2463 101.49167,124.7C100.98493,124.26407 101.325,123.12534 101.325,122.2C101.325,121.34734 100.8785,121.01714 100.325,120.53333C99.72259,120.00677 99.71386,119.47135 100.26783,120.05267C100.75398,120.56282 101.49167,120.7 102.34583,120.7C103.23967,120.7 104.13972,121.1173 104.97234,120.7C105.53028,120.42036 105.85961,119.6102 106.361,119.12534C106.93706,118.56826 107.67357,118.15884 108.49167,117.7C109.18951,117.30861 109.64672,116.85718 110.27233,116.34734C110.88043,115.85177 111.31433,115.12534 111.825,114.7C112.33566,114.27467 112.9281,113.69299 113.3205,113.05267C113.78493,112.29481 114.54588,111.95493 115.241,111.416C115.86862,110.92941 116.189,110.0882 116.67767,109.7C117.23116,109.26029 117.18311,108.46694 117.325,107.61467C117.46896,106.74995 118.325,106.53333 118.325,105.67917C118.325,104.78533 117.48348,104.74156 117.325,104.05267C117.11694,103.14826 116.20906,102.79344 116.325,102.12534C116.43495,101.49167 117.23788,102.51513 117.825,102.7C118.70762,102.97791 119.67767,102.7 120.54633,102.7C121.49167,102.7 121.91113,102.1508 122.54633,101.7C123.22954,101.21512 123.91584,100.88242 124.75034,100.7C125.65628,100.50195 126.26779,100.16577 126.75034,99.68933C127.28742,99.15903 128.05295,98.82575 128.75034,98.27467C129.42044,97.74513 129.32556,96.74722 130.15834,96.7C130.97304,96.6538 131.60928,96.0206 132.241,95.416C132.81203,94.86948 132.99336,94.20584 133.54633,93.7C134.13388,93.16251 134.59596,93.12324 135.20351,92.47867C135.76544,91.88248 135.85388,90.98543 136.33566,90.27467C136.7977,89.59303 137.32274,89.05267 137.325,88.12534C137.32724,87.2 137.325,86.34734 137.325,85.416L137.325,84.53333L137.325,83.75716" id="svg_8" stroke-width="3" stroke="#000" fill="none"/>
  <path t="28846,28896,28912,28928,28940,28948,28957,28972,28980,28985,29000,29009,29016,29032,29036,29045,29068,29077,29092,29104,29112,29128,29137,29160,29188,29212,29232,29248,29264,29280,29284,29335,29376,29408,29428,29444,29468,29488,29512,29516,29548,29557,29572,29600,29616,29632,29640,29652,29668,29696,29711,29752,29764,29795,29811,29816,29880,29908,29915,29931,29951,29967,29992,30004,30036,30055,30064,30080,30096,30104,30115,30116,30135,30148,30172,30188,30196,30200,30215,30224,30232,30260,30267,30277,30284,30295,30303,30319,30343,30351,30363,30372,30380,30389,30395,30411,30428,30440,30448,30456,30472,30476,30493,30508,30524,30544,30559,30567,30577,30584,30603,30627,30659,30688,30712,30724,30739,30780,30792,30800,30832,30837" d="M163.325,73.7C164.20351,73.7 164.69447,74.01433 165.23967,74.70133C165.75957,75.35647 166.04631,75.72898 166.80417,76.2C167.56421,76.67237 168.49207,76.66084 168.97234,77.34734C169.47009,78.05884 169.51733,79.1927 170.27234,79.64283C171.05727,80.1108 171.54031,80.6341 172.409,80.7C173.33307,80.7701 173.88179,81.30914 174.67767,81.7C175.31328,82.01214 175.79753,82.40963 176.67767,82.7045C177.38141,82.94026 177.06517,84.24838 177.60899,84.7C178.17455,85.16966 178.62317,85.2717 179.20351,85.92133C179.7662,86.55122 179.41626,87.60802 179.89967,88.27467C180.42018,88.99248 180.325,89.92133 180.325,90.78533C180.325,91.71066 180.18823,92.27054 179.60899,92.7C179.04115,93.12101 178.60818,93.59877 178.3295,94.34734C178.00565,95.21722 178.03017,96.02253 177.325,96.5785C176.75468,97.02814 176.06738,97.07122 175.49167,97.7C174.97908,98.25983 174.33017,98.61911 173.825,99.2C173.2148,99.90166 173.10367,100.7 172.26784,100.7C171.34584,100.7 171.07362,101.29943 170.3205,101.7045C169.61037,102.08644 169.522,103.18166 169.041,103.70133C168.53381,104.24928 168.041,104.7 167.10367,104.7C166.23967,104.7 165.325,104.70133 165.325,105.5785C165.325,106.416 165.10678,107.0955 164.60899,107.784C164.07816,108.5182 163.41846,108.66737 162.825,109.2C162.12334,109.82973 161.46883,110.38177 161.325,111.27467C161.17784,112.18822 160.85768,112.51897 160.32367,112.984C159.71249,113.51622 159.46504,114.34943 158.97234,115.05267C158.46758,115.77309 157.78493,116.29481 157.3205,117.05267C156.9281,117.69298 156.1584,118.13278 155.67767,118.75267C155.12723,119.46245 154.8981,120.33942 154.041,120.7C153.36337,120.98507 153.63591,121.8759 153.10367,122.57867C152.61809,123.21982 151.92203,123.70023 151.325,124.2C150.69989,124.72326 149.55515,124.58522 149.325,125.2C149.00055,126.06666 148.9529,126.83615 148.27234,127.34734C147.5874,127.86181 147.2662,128.51039 146.41034,128.7C145.62354,128.8743 145.65073,129.75563 145.23967,130.416C144.7426,131.21454 143.94786,131.61707 143.35033,132.12534C142.7231,132.65887 141.76802,132.54439 141.325,133.05267C140.86053,133.58556 140.15834,133.69785 139.289,133.7C138.38216,133.70226 138.15793,134.53125 137.31433,134.7C136.49126,134.86464 136.041,135.61467 135.15834,135.7L134.41034,135.98399" id="svg_9" stroke-width="3" stroke="#000" fill="none"/>
  <path t="31678,31755,31804,31820,31837,31852,31856,31880,31888,31904,31912,31920,31940,31948,31956,31972,31988,31999,32010,32024,32031,32043,32067,32077,32084,32096,32112,32128,32136,32144,32152,32172,32181,32188,32196,32204,32224,32240,32248,32256,32280,32285,32292,32308,32316,32332,32352,32360,32377,32385,32392,32420,32428,32452,32464,32472,32489,32495,32504,32520,32532,32564,32572,32584,32592,32608,32636,32644,32683,32848,32883,32908,32951,33003,33043,33184,33199,33259,33319,33351,33388,33423,33463,33499,33508,33575,33592,33595,33611,33643,33671" d="M169.325,99.7C169.325,100.5785 169.325,101.416 169.325,102.27467C169.325,103.2 168.76613,103.7939 168.38217,104.64283C168.01443,105.45587 168.01067,106.09028 167.49167,106.86667C167.01938,107.57318 167.34229,108.57868 167.325,109.4045C167.30699,110.26456 166.46893,110.74873 166.325,111.616C166.1748,112.52095 165.70328,113.04118 165.41034,113.89867C165.09619,114.81824 165.325,115.72533 165.325,116.61467C165.325,117.53333 165.3548,118.34721 164.89967,119.08933C164.39429,119.9134 164.62996,120.88434 164.10367,121.57867C163.61813,122.21924 163.325,122.89867 163.325,123.784C163.325,124.70016 163.325,125.50134 163.325,126.4C163.325,127.3 163.325,128.17917 163.325,129.12534C163.325,129.98534 163.325,130.89867 163.325,131.784C163.325,132.70016 163.3441,133.50153 163.325,134.41467C163.30699,135.27524 162.46883,135.74977 162.325,136.64284C162.18341,137.52202 161.58693,138.08366 161.325,138.92149C161.06291,139.75983 161.325,140.6955 161.325,141.50133C161.325,142.41467 160.65906,142.99019 160.325,143.86667C160.02911,144.64299 159.343,144.71005 159.325,145.50133C159.30423,146.41444 159.47241,147.36018 159.325,148.2C159.18083,149.02129 158.35359,149.64595 158.325,150.53334C158.29877,151.34691 158.45853,152.35034 157.97234,153.05267C157.48026,153.76353 157.325,154.53334 157.325,155.34734C157.325,156.27467 158.0434,156.50946 158.325,157.05267C158.75362,157.8795 158.87834,159.12993 158.26784,159.7C157.60503,160.31891 157.7225,158.76302 157.325,158.05267C156.99574,157.46428 156.51555,156.9816 155.97234,156.7C155.14549,156.27136 153.98779,156.9698 153.41034,156.416C152.84818,155.87686 152.325,155.53334 152.26784,154.7045L151.38217,154.7L150.49167,154.7L149.67767,154.7" id="svg_10" stroke-width="3" stroke="#000" fill="none"/>
  <path t="34326,34424,34452,34496,34519,34536,34555,34564,34684,34700" d="M151.325,148.7C152.20351,148.7 153.041,148.7 153.89967,148.7C154.825,148.7 155.75034,148.7 156.54633,148.92133L157.15834,149.53334L157.97234,149.75717L158.325,150.53334" id="svg_11" stroke-width="3" stroke="#000" fill="none"/>
  <path t="35258,35376,35404,35412,35429,35437,35453,35462,35469,35472,35481,35497,35504,35513,35520,35540,35549,35557,35564,35572,35584,35594,35600,35608,35617,35644,35652,35668,35684,35712,35736" d="M150.325,127.7C150.325,128.57851 150.325,129.4045 150.325,130.34283C150.325,131.22084 150.325,132.08934 150.325,132.98534C150.325,133.89999 150.325,134.8 150.325,135.7C150.325,136.57851 150.325,137.4045 150.325,138.3C150.325,139.2 150.325,140.08934 150.325,140.98534C150.325,141.89999 150.00844,142.86327 150.33566,143.67467C150.64366,144.43839 151.32492,145.05716 151.325,145.89999C151.32509,146.79984 151.89301,147.37366 152.289,148.12534C152.6902,148.88687 152.325,149.89867 152.325,150.78534L152.325,151.6955L152.325,152.57851L153.041,152.7" id="svg_12" stroke-width="3" stroke="#000" fill="none"/>
  <path t="36534,36596,36611,36651,36688,36712,36716,36756,36788,36832,36836,36868,36911,36920,36943,37031,37152,37168" d="M157.325,150.7C157.32516,149.8215 158.041,149.7 158.97234,149.7C159.89967,149.7 160.36188,150.10028 160.89967,150.68933C161.34776,151.18013 161.14583,152.16571 161.60899,152.70134C162.13315,153.30751 162.53607,154.0081 162.32483,154.92133C162.14386,155.70369 161.325,155.92133 161.325,156.86667L161.30417,157.7L160.41034,157.7" id="svg_13" stroke-width="3" stroke="#000" fill="none"/>
  <path t="37915,37972,38000,38040,38055,38060,38068,38084,38100,38112,38135,38155,38171,38180,38189,38212,38223,38239,38247,38263,38284,38332,38344,38360,38377,38393,38456" d="M147.325,154.7C148.325,155.34734 148.32706,156.27467 148.325,157.12534C148.32274,158.05269 147.74368,158.63968 147.33566,159.27467C146.87149,159.99706 146.08633,160.09979 145.41034,160.7C144.87114,161.17874 145.43343,162.41293 144.97234,163.05267C144.41611,163.8244 143.65416,164.29948 142.89967,164.7C142.30412,165.01614 142.5314,166.06641 141.97234,166.64284C141.46289,167.16811 141.325,167.92133 141.325,168.75717C141.325,169.67467 141.325,170.57851 141.325,171.416L141.325,172.27467L141.325,173.2" id="svg_14" stroke-width="3" stroke="#000" fill="none"/>
  <path t="38904,38992,39011,39035,39071,39096,39119,39124,39155,39167" d="M146.325,166.7C146.325,167.57851 146.25577,168.30574 145.75034,168.7C145.23274,169.10374 145.325,170.12534 145.10367,170.92133L144.49167,171.53334L144.325,172.34734L143.75034,172.7" id="svg_15" stroke-width="3" stroke="#000" fill="none"/>
  <path t="40177,40236,40272,40320,40340,40356,40380,40415,40432,40443,40467,40500,40552,40603,40619,40647,40671,40695,40702,40776,40784,40828,40828,40872" d="M147.325,166.7C147.325,167.57851 147.325,168.416 147.325,169.27467C147.325,170.2 147.325,171.12534 147.325,171.98399C147.325,172.92133 147.325,173.78534 147.325,174.69867C147.325,175.57851 147.37454,176.55417 146.75034,176.7C145.84926,176.91051 145.47707,177.13789 145.325,178.05267C145.21281,178.72752 144.61363,179.05588 144.041,179.61467C143.49774,180.14481 143.041,180.61467 142.15834,180.86667L141.60899,181.416L141.325,182.2" id="svg_16" stroke-width="3" stroke="#000" fill="none"/>
  <path t="41395,41435,41479,41496,41512,41529,41540,41556,41564,41572,41577,41593,41611,41624,41632,41652,41668,41684,41700,41720,41748,41764,41780,41788,41804,41824,41832,41848,41856,41872,41880,41901,41908,41928,41936,41951,41968" d="M154.325,160.7C155.20351,160.7 155.325,161.416 155.325,162.27467C155.325,163.2 155.325,164.12534 155.325,164.98399C155.325,165.92149 155.325,166.8 155.325,167.7C155.325,168.57851 155.50543,169.43517 155.325,170.27467C155.14464,171.1138 154.38588,171.79379 154.325,172.71066C154.26749,173.5766 154.53897,174.44092 154.325,175.34734C154.14381,176.11482 153.325,176.73599 153.325,177.616C153.325,178.53334 153.67456,179.41574 153.325,180.27467C153.0954,180.83882 152.45927,181.34544 151.97234,182.05267C151.46147,182.79466 150.96181,183.30688 150.41034,183.98399C149.931,184.57254 149.41034,184.98399 149.32483,185.92133L148.97234,186.64284L148.325,186.98399L148.10367,187.70016" id="svg_17" stroke-width="3" stroke="#000" fill="none"/>
  <path t="43936,44087,44120,44135,44151,44180" d="M132.325,155.7C132.49167,156.53334 133.325,156.72084 133.325,157.61467L133.825,158.2L134.325,158.98399" id="svg_18" stroke-width="3" stroke="#000" fill="none"/>
  <path t="45854,45971,45980,45996,46004,46012,46032,46048,46064,46068,46076,46084,46093,46108,46124,46136,46144,46160,46176,46203,46213,46228,46244,46252,46261,46280,46288,46304,46316,46324,46368,46383,46401,46416,46425,46436,46456,46460,46476,46493,46508,46512,46530,46543,46544,46551,46563,46580,46588,46596,46610,46616,46624,46633,46640,46649,46656,46664,46677,46684,46697,46700,46716,46724,46732,46748,46752,46768,46784,46804,46812,46828,46844,46856,46896,46909,46931,46968,47000,47135,47148,47256,47280,47316,47324,47344,47384,47396,47419,47443,47471,47512,47526,47539,47555,47571,47632,47712,47768,47804,47940,47984,47996,48028,48047,48064,48087,48104,48115,48124,48155,48208,48224,48252,48267,48291,48347,48379,48423,48439,48455,48492,48500,48535,48560,48568" d="M85.325,125.7C84.49167,125.86667 84.74545,126.97435 84.10367,127.5785C83.50713,128.14008 82.65415,128.29948 81.89967,128.7C81.30412,129.01614 81.46593,130.0088 80.97234,130.64734C80.45177,131.32076 79.93752,131.88377 79.32633,132.416C78.79231,132.88103 78.28457,133.23312 77.825,133.72084C77.27721,134.30217 77.55474,135.30629 77.325,136.12534C77.14186,136.77823 76.33542,137.1998 76.325,138.05267C76.31361,138.98526 76.56429,140.07115 75.97234,140.64284C75.46544,141.13239 75.325,141.784 75.325,142.7C75.325,143.57867 75.11102,144.44092 75.325,145.34734C75.50618,146.11484 76.27464,146.73738 76.325,147.64734C76.36773,148.41954 77.30699,148.69939 77.325,149.50133C77.3455,150.41444 77.19147,151.35034 77.67767,152.05267C78.20731,152.81778 79.00034,153.22757 79.325,154.05267C79.65328,154.88698 79.74569,155.69316 80.37767,156.34283C81.00504,156.98778 80.96381,157.50092 81.361,158.26401C81.75623,159.02333 82.64263,159.44659 83.241,159.98399C83.87946,160.55742 84.43887,161.0894 84.97234,161.75267C85.43548,162.32851 84.9361,163.38193 85.325,164.26401C85.59821,164.88373 86.26893,165.3582 86.75034,166.08934C87.24565,166.84161 86.911,167.9128 87.49167,168.53334C88.07826,169.16022 88.41626,169.60802 88.89967,170.27467C89.42017,170.99249 88.97297,172.09579 89.49167,172.7C90.01283,173.30707 89.85174,174.05475 90.38216,174.7C90.92233,175.3571 90.68967,176.04625 91.325,176.68933C91.94245,177.31433 92.93073,176.76924 93.325,177.27467C93.72874,177.79225 94.325,177.27467 94.325,176.34734C94.325,175.47867 94.03637,174.34413 94.609,173.78534C95.15225,173.25522 94.99789,172.60295 95.325,171.75717C95.63307,170.96059 96.29066,170.41537 96.325,169.47867C96.3536,168.69843 97.307,168.68987 97.325,167.78534C97.34094,166.98415 97.325,166.05267 97.325,165.2C97.325,164.27467 97.27761,163.34604 97.325,162.47867C97.36773,161.6965 98.33566,161.7 99.23967,161.7C100.041,161.7 100.90739,161.7453 101.325,162.27467C101.69754,162.74693 102.7907,162.52083 103.32633,162.98399C103.9325,163.50815 104.67767,163.7 105.54633,163.7C106.41033,163.7 107.33566,163.7 108.2035,163.7C109.041,163.7 109.97234,163.7 110.825,163.7C111.75034,163.7 112.08155,163.17064 112.609,162.7C113.1683,162.20093 113.67767,161.75717 114.54633,161.7L115.38216,161.64284L115.97234,161.05267" id="svg_19" stroke-width="3" stroke="#000" fill="none"/>
  <path t="50425,50528,50556,50568,50584,50593,50609,50616,50632,50652,50668,50684,50696,50720,50729,50736,50748,50757,50772,50788,50796,50804,50816,50849,50859,50865,50872,50884,50908,50924,50932,50948,50952,50968,50984,51013" d="M135.325,136.7C134.4465,136.7 134.01067,137.06947 133.32367,137.61467C132.66853,138.13458 131.93474,138.01434 131.15834,138.53334C130.45181,139.00563 129.4465,138.7 128.60899,138.7C127.67767,138.7 126.79061,138.45007 125.89967,138.7C125.24677,138.88315 124.88956,139.68199 124.0295,139.7C123.03988,139.7207 122.22517,139.7 121.289,139.7C120.409,139.7 119.6205,139.7 118.68217,139.7C117.75034,139.7 116.84518,139.78409 116.025,139.34734C115.2755,138.94823 114.4465,138.7 113.609,138.7C112.67767,138.7 112.1571,138.05154 111.27233,137.7045C110.3904,137.35857 109.49167,137.7 109.325,137.05267L108.75034,136.7L107.825,136.7" id="svg_20" stroke-width="3" stroke="#000" fill="none"/>
  <path t="51594,51643,51660,51671,51704,51712,51724,51732,51740,51768,51777,51792,51792,51800,51824,51828,51847,51857,51860,51884,51896,51912,51930,51944,51961,51962,51968,51972" d="M134.325,137.7C134.325,138.57851 134.325,139.416 134.325,140.27467C134.325,141.22084 134.0825,142.12321 134.32634,142.98399C134.54721,143.76375 135.31966,144.27463 135.325,145.136C135.3309,146.08932 135.66661,146.83745 136.041,147.50133C136.47658,148.27368 136.32253,149.22084 136.325,150.17917C136.32726,151.05269 137.05687,151.57593 137.3205,152.34734C137.59622,153.15419 137.325,154.12534 137.325,155.05267C137.325,155.92133 137.325,156.78534 137.325,157.7L137.325,158.5L137.325,159.39999L137.325,160.34283" id="svg_21" stroke-width="3" stroke="#000" fill="none"/>
  <path t="53046,53096,53120,53128,53144,53160,53172,53180,53188,53197,53208,53216,53224,53240,53248,53267,53272,53283,53293,53308,53316,53324,53336,53344,53352,53383,53396,53404,53419,53436,53467,53480,53488,53504,53513,53516,53548,53556,53579,53591,53600,53631,53643,53659,53676,53684,53692,53743,53755,53771,53795,53808,53831,53908,53943,53992,54036,54064,54080,54088,54096,54117,54124,54132,54156,54168,54184,54200,54216,54226,54246,54252,54259,54276,54287,54319,54328,54336,54343,54355,54363,54388,54395,54409,54423,54448,54456,54464,54472,54484,54500,54516,54532,54536,54536,54552,54583,54591,54596,54604,54622,54644,54656,54672,54692,54704,54724" d="M119.325,160.7C120.15833,160.86667 120.43013,161.64778 120.89967,162.27467C121.43121,162.98436 120.95883,164.23471 121.54633,164.7C122.19958,165.21735 122.98914,165.39751 123.30417,166.17917C123.62634,166.97856 123.81361,167.9453 124.49167,168.53334C125.13957,169.09523 124.99864,169.55429 125.325,170.53334C125.58852,171.3239 126.11835,172.06664 126.67767,172.64284C127.18815,173.16873 127.99088,173.50391 128.30417,174.2C128.68416,175.0443 129.05704,175.57587 129.3205,176.34734C129.62019,177.22493 129.95638,177.869 130.30417,178.7C130.64343,179.51062 130.97636,180.11586 131.325,180.92133C131.64131,181.65211 132.07277,182.01457 132.32516,182.92133C132.5416,183.69884 133.30699,184.12482 133.325,185.05716C133.34125,185.89851 133.00926,186.9355 133.34584,187.72084C133.65437,188.44075 134.08157,189.22935 134.60899,189.7C135.16817,190.19897 135.12717,190.97569 135.60899,191.616C136.11984,192.29488 135.99336,193.19415 136.54633,193.7C137.13388,194.23749 137.325,194.73599 137.325,195.64284C137.325,196.53334 137.325,197.34734 137.325,198.27467C137.325,199.12534 137.56844,200.22937 137.041,200.7C136.4817,201.19907 135.80551,201.48924 135.36099,202.12534C134.88181,202.81104 134.82207,203.73131 134.325,204.416C133.94841,204.93472 133.325,205.2 133.325,206.12534C133.325,206.98399 133.55367,208.08887 132.97234,208.64284C132.46217,209.129 132.1192,209.68533 131.67767,210.34734C131.1657,211.11499 131.52011,212.20778 131.10367,212.92133C130.6674,213.66884 130.50304,214.32744 130.325,215.26401C130.18045,216.02437 129.343,216.66344 129.325,217.53334C129.30815,218.34717 129.32744,219.27467 129.325,220.2C129.32274,221.05269 128.59952,221.57394 128.33566,222.31067C128.04282,223.12837 128.48061,224.25699 127.97234,224.7C127.43945,225.16446 127.49239,225.97737 127.15833,226.7C126.7801,227.5182 126.63898,228.25876 126.31433,229.12534C126.04954,229.83214 125.33033,230.31062 125.325,231.26401C125.32018,232.12532 125.325,233.05267 125.325,233.92133C125.325,234.86667 125.325,235.73599 125.325,236.61467L124.49167,236.7" id="svg_22" stroke-width="3" stroke="#000" fill="none"/>
  <path t="55366,55492,55496,55513,55521,55528,55544,55555,55564,55564,55580,55588,55596,55604,55616,55624,55624,55632,55648,55664,55668,55676,55700,55716,55724,55736,55768,55776,55788,55796,55828,55848,55868,55896,55923,55923,55963,55975,56024,56052,56096,56112,56127,56151,56155,56196,56209,56225,56240,56272,56281,56293,56300,56317,56332,56344,56361,56376,56385,56394,56429,56445,56449,56465,56481,56490,56514,56528,56540,56556,56583,56586,56600,56610,56618,56628,56645,56653,56661,56684,56693" d="M94.325,178.7C94.49167,179.53334 94.9272,179.99347 95.54633,180.57851C96.16438,181.16251 97.0143,181.32965 97.325,182.12534C97.65443,182.96898 97.86407,183.88869 98.409,184.41467C99.09929,185.08098 99.99704,184.98221 100.54633,185.57867C101.13113,186.2137 101.13457,187.06349 101.5465,187.79984C101.95911,188.53738 103.03061,188.37798 103.825,188.7C104.4941,188.97122 105.10281,189.63623 105.32367,190.416C105.57747,191.31209 105.78123,191.83742 106.3205,192.34734C106.8132,192.81322 107.70564,192.85103 108.37767,193.34734C109.06675,193.85623 108.96473,194.49524 109.325,195.27467C109.60041,195.87053 110.12547,196.3131 110.67767,196.7C111.35815,197.17677 111.81981,197.52451 112.325,198.27467C112.69167,198.81915 113.325,199.05267 113.325,199.98399C113.325,200.92133 113.325,201.75717 113.325,202.664C113.325,203.53334 113.325,204.416 113.325,205.27467C113.325,206.2 113.325,207.05267 113.325,207.98399C113.325,208.92133 113.60448,209.88553 113.10367,210.57867C112.5981,211.27841 112.76003,212.17839 112.15833,212.7C111.52718,213.24715 111.68863,213.80426 111.15833,214.53334C110.68147,215.18896 110.41618,215.78853 110.325,216.7045C110.24126,217.54578 109.32725,217.75716 109.325,218.64734C109.32275,219.53334 109.325,220.416 109.325,221.27467C109.325,222.2 109.325,223.05267 109.325,223.98399C109.325,224.86667 109.325,225.75267 109.325,226.7C109.325,227.53334 109.325,228.416 109.325,229.27467C109.325,230.136 109.325,231.10001 109.325,231.9955L109.325,232.86667L109.325,233.75267" id="svg_23" stroke-width="3" stroke="#000" fill="none"/>
  <path t="58027,58101,58109,58126,58133,58137,58153,58161,58169,58178,58193,58197,58197,58205,58214,58229,58237,58245,58249,58257,58273,58289,58317,58357,58385,58401,58417,58425,58445,58461" d="M137.325,168.7C137.325,169.57867 137.65594,170.15237 138.15834,170.86667C138.64725,171.56178 138.325,172.64284 138.325,173.4045C138.325,174.3 138.32249,175.2 138.325,176.17917C138.32726,177.05717 138.71107,177.83835 139.041,178.5C139.46155,179.34335 139.325,180.34283 139.325,181.22084C139.325,182.10001 139.26389,183.04085 139.75034,183.67467C140.25169,184.32791 140.325,185.2 140.325,186.05267C140.325,186.98399 140.325,187.86667 140.325,188.75717C140.325,189.64734 140.325,190.53334 140.325,191.416L139.75034,191.7L139.325,192.2" id="svg_24" stroke-width="3" stroke="#000" fill="none"/>
  <path t="62020,62096,62121,62136,62148,62156,62164,62188,62198,62212,62225,62233,62241,62257,62277,62293,62345,62389,62405,62414,62429,62437,62448,62541,62557,62573,62601,62669,62685,62697,62705,62729,62773,62789" d="M149.325,100.7C148.4465,100.7 148.36653,101.44262 147.89967,102.12534C147.37021,102.89961 147.38977,103.84381 146.67767,104.34734C145.97658,104.84308 145.46043,105.20972 145.325,106.12534C145.2041,106.94263 144.32687,107.30849 143.67767,107.75716C142.90941,108.28813 142.1095,108.14003 141.4465,108.7C140.89168,109.1686 141.32489,110.51958 140.49167,110.7C139.69611,110.87226 139.37927,111.47761 138.60899,111.69867C137.71381,111.95558 136.825,111.7 135.89967,111.7C135.041,111.7 134.10367,111.7 133.23967,111.7C132.325,111.7 131.49167,111.53333 131.041,110.78533L130.15834,110.7L129.289,110.7L128.4465,110.47867" id="svg_25" stroke-width="3" stroke="#000" fill="none"/>
  <path t="63443,63473,63481,63517,63533,63552,63568,63585,63593,63636,63656,63672,63704,63716,63756" d="M140.325,110.7C141.20351,110.70016 140.87018,111.53461 141.325,112.34734C141.65427,112.93573 142.84308,112.5253 143.67767,112.7C144.37077,112.84508 144.76532,113.53008 145.67767,113.7C146.35022,113.82526 146.49167,114.7 147.38217,114.7L148.26784,114.7L149.15834,114.7" id="svg_26" stroke-width="3" stroke="#000" fill="none"/>
  <path t="68777,68872,68884,68908,68933,68950,68961,68985,68994,68997,69037,69045,69072" d="M154.325,89.7C155.20351,89.7 156.12024,90.06026 156.89967,89.7C157.49553,89.42458 157.75034,88.7 158.67767,88.7C159.54633,88.7 160.409,88.61467 160.97234,88.05267L161.67767,87.34734L162.3205,86.7045L163.20351,86.7" id="svg_27" stroke-width="3" stroke="#000" fill="none"/>
  <path t="70223,70256,70296,70316,70333,70365,70377,70396" d="M145.325,85.7C144.4465,85.7 143.90913,85.04863 143.10367,84.7C142.37288,84.38368 142.325,83.64283 142.3205,82.75716L141.4465,82.7" id="svg_28" stroke-width="3" stroke="#000" fill="none"/>
  <path t="71688,71729,71797,71824,71848,71876,71928,71953,71968,71996,72020,72081,72117,72141,72168,72241,72277,72289,72321,72337" d="M139.325,56.7C137.67767,56.7 136.75034,56.7 135.89967,56.7C134.97234,56.7 133.8257,56.24746 133.325,56.86666C132.78792,57.53086 133.325,58.61467 133.325,59.416C133.325,60.34733 133.09383,61.30668 133.325,62.12533C133.50822,62.77422 133.87247,63.19931 134.49167,63.7C135.15587,64.23708 136.20351,63.92133 136.38217,64.7L137.26784,64.7" id="svg_29" stroke-width="3" stroke="#000" fill="none"/>
  <path t="73060,73180,73188,73213,73241,73280,73291,73332,73341,73360,73384,73437,73469,73493,73501,73529,73537,73633,73665,73729,73745" d="M169.325,60.7C170.20351,60.69983 170.28049,59.84509 170.97234,59.7C171.87993,59.50967 172.90268,59.78334 173.289,60.664C173.63853,61.46078 173.325,62.34733 173.325,63.27467C173.325,64.2 173.43126,65.05875 173.325,65.984C173.24112,66.71433 172.57834,67.01489 172.32483,67.92133C172.10855,68.69466 171.10367,68.7 170.23967,68.7L169.31433,68.7L168.41034,68.7" id="svg_30" stroke-width="3" stroke="#000" fill="none"/>
  <path t="75127,75208,75228,75237,75245,75253,75261,75277,75278,75281,75289,75305,75322,75329,75337,75341,75365,75381,75397,75405,75410,75417,75426,75426,75433,75441,75441,75449,75457,75462,75477,75485,75494,75494,75501,75517,75521,75537,75545,75545,75559,75571,75577,75577,75581,75589,75605,75616,75621,75629,75642,75652,75657,75664,75673,75688,75697,75701,75701,75709,75725,75725,75733,75741,75741,75749,75757,75761,75769,75785,75793,75801,75809,75817,75821,75821,75828,75837,75845,75853,75853,75861,75869" d="M84.325,235.7C85.2035,235.7 86.02897,235.64188 86.825,235.2C87.62447,234.75621 88.52367,234.7 89.37767,234.7C90.325,234.7 91.125,234.7 92.025,234.7C92.889,234.7 93.87793,234.58276 94.61034,234.98399C95.40088,235.41707 96.20367,235.7 97.041,235.7C97.89967,235.7 98.825,235.7 99.68217,235.7C100.6205,235.7 101.49433,235.70007 102.34583,235.7C103.3035,235.69991 104.17409,235.68695 104.825,235.17917C105.59328,234.57982 106.09332,233.84886 107.025,233.7045C107.9144,233.56668 108.80417,233.69791 109.68217,233.7C110.62501,233.70226 111.45101,233.89085 112.025,234.4045C112.74911,235.05246 112.97309,236.12909 113.609,236.61467C114.3138,237.15285 115.2755,236.94823 116.025,237.34734C116.84518,237.78409 117.50549,238.15793 118.325,238.53334C119.06769,238.87357 120.14758,238.28879 120.96783,238.75717C121.781,239.22151 122.29967,239.7 123.12634,239.7C124.025,239.7 124.889,239.7 125.84583,239.7C126.725,239.7 127.625,239.7 128.52367,239.7C129.397,239.7 130.18634,239.7 131.15834,239.7C132.02049,239.7 132.9151,239.61444 133.76784,239.92133C134.54155,240.19977 135.43658,240.65729 136.325,240.7C137.12408,240.73842 138.02499,240.7 138.925,240.7C139.825,240.7 140.71434,240.7 141.68216,240.7C142.52499,240.7 143.425,240.69991 144.325,240.7C145.20383,240.70009 146.01743,241.09404 146.67683,241.34734C147.66684,241.72763 148.52499,241.7 149.425,241.7C150.325,241.7 151.125,241.7 152.02499,241.7L152.96783,241.7" id="svg_31" stroke-width="3" stroke="#000" fill="none"/>
  <path t="77543,77592,77609,77616,77628,77637,77645,77653,77661,77669,77677,77682,77682,77689,77713,77721,77729,77737,77743,77743,77749,77757,77765,77773,77773,77780,77780,77789,77789,77797,77797,77806" d="M129.325,214.7C130.20351,214.7 131.0295,214.7 131.96783,214.7C132.84584,214.7 133.72501,214.7 134.625,214.7C135.52499,214.7 136.42484,214.7 137.31033,214.7C138.18634,214.7 139.15834,214.7 139.91434,214.7C140.80417,214.7 141.761,214.7 142.625,214.7C143.52499,214.7 144.425,214.7 145.325,214.7C146.125,214.7 147.02505,214.68982 147.925,214.7C148.84602,214.71042 149.63962,214.93927 150.34584,215.2C151.31616,215.55823 152.11455,215.65828 153.15834,215.7C153.95052,215.73166 154.80901,215.98399 155.67233,216.34734L156.56784,216.64284" id="svg_32" stroke-width="3" stroke="#000" fill="none"/>
 </g>
</svg>