<svg width="500" height="310.07751937984494" xmlns="http://www.w3.org/2000/svg" xmlns:svg="http://www.w3.org/2000/svg" xmlns:xlink="http://www.w3.org/1999/xlink">
 <!-- Created with SVG-edit - http://svg-edit.googlecode.com/ -->
 <g display="inline" class="layer">
  <title>Layer 1</title>
  <path t="0,129,160,176,201,201,224,233,234,257,257,264,282,299,313,313,336,361,392,416,416,432,432,456,456,464,480,489,498,513,513,536,537,553,560,568,569,584,600,640,656,680,696,728,736,760,768,777,793,801,801,824,841,849,865,881,889,897,905,921,945,945,968,985,1016,1016,1033,1056,1088,1189,1189,1240,1241,1264,1280,1304,1328,1352,1353,1376,1384,1408,1425,1433,1433,1464,1481,1489,1505,1521,1536,1553,1576,1576,1592,1601,1640,1664,1709,1728,1728,1776,1832,1832,1857,1872,1880,1897,1897,1921,1960,1960,1992,1993,2016,2025,2090,2120,2152,2160,2176,2184,2194,2224,2248,2272,2273,2324,2391,2441,2464,2464,2481,2524,2569,2704,2704,2729,2744,2753,2769,2769,2785,2801,2817,2825,2826,2848,2849,2864,2864,2872,2880,2888,2904,2913,2936,2937,2968,2968,2976,2984,2992,3001,3016,3032,3048,3049,3064,3072,3080,3104,3112,3128,3136,3144,3161,3169,3176,3185,3208,3224,3241,3273,3289,3289,3296,3313,3321,3321,3345,3360,3360,3368,3368,3384,3392,3408,3424,3440,3441,3449,3458,3465,3489,3489,3521,3529,3529,3552,3584,3592,3601,3616,3624,3641,3641,3657,3674,3689,3712,3712,3721,3736,3744,3753,3768,3777,3785,3800,3809,3832,3848,3856,3873,3881,3881,3889,3897,3897,3904,3920,3944,3952,3977,3977,4000,4000,4008,4025,4048,4048,4072,4096,4096,4137,4160,4177,4177,4200,4200,4208,4216,4233,4264,4280,4289,4289,4296,4312,4321,4321,4328,4344,4352,4353,4360,4376,4376,4385,4401,4409,4417,4417,4432,4433,4441,4456,4465,4473,4496,4505,4506,4521,4544,4568,4577,4608,4632,4686,4686,4712,4840,4880,4918,4969,4969,4985,5157,5240,5264,5296,5296,5313,5337,5344,5369,5408,5451,5517,5536,5568,5584,5664,5696,5712,5728,5752,5965,5965,6000,6016,6032,6049,6065,6065,6080,6089,6105,6144,6152,6160,6176,6200,6200,6208,6233,6264,6296,6312,6366,6400,6408,6433,6464,6465,6497,6505,6513,6536,6577,6592,6616,6627,6681,6681,6704,6712,6721,6729,6776,6784,6801,6825,6848,6849,6864,6880,6928,6976,7000,7024,7040,7072,7233,7305,7344,7360,7361,7369,7400,7432,7432,7456,7480,7520,7560,7577,7609,7609,7640,7688,7736,7736,7768,7800,7800,7949,7992,8033,8094,8223,8272,8312,8320,8394,8394,8440,8588,8632,8665,8688,8704,8729,8745,8768,8768,8776,8816,8832,8885,8885,8928,8992,8992,9032,9056,9056,9088,9105,9113,9113,9129,9137,9160,9200,9232,9232,9288,9312,9328,9336,9345,9346,9376,9392,9424,9448,9472,9488,9872,9872,9926,9926,9968,9984,9985,10016,10070,10070,10096,10113,10129,10174,10240,10250,10272,10273,10320,10328,10369,10401,10440,10441,10473,10520,10560,10592,10608,10648,10648,10672,10705,10744,10760,10785,10800,10832,10840,10849,10872,10873,10888,10913,10920,10936,10960,10984,11000,11016,11017,11072,11080,11104,11120,11136,11144,11176,11208,11256,11288,11288,11289,11312,11344,11368,11400,11408,11417,11441,11457,11457,11465,11481,11497,11507,11521,11529,11545,11561,11561,11576,11592,11608,11625,11642,11664,11673,11696,11705,11705,11752,11776,11792,11800,11801,11824,11840,11856,11903,11921,11968,12000,12008,12024,12040,12072,12112,12129,12137,12153,12234,12413,12448,12456,12488,12488,12521,12545,12602,12640,12648,12664,12681,12705,12744,12760,12822,12856,12865,12880,12896,12912,12921,12921,12945,12961,12976,12977,12992,13001,13024,13025,13041,13056,13064,13081,13097,13112,13128,13128,13144,13160,13169,13185,13192,13201,13208,13224,13232,13241,13257,13265,13280,13296,13305,13321,13321,13329,13344,13345,13360,13400,13401,13424,13424,13440,13448,13472,13512,13544,13544,13552,13600,13616,13617,13682,13712,13752,13799,13849,13864,13915,13944,13945,13969,14046" d="M253.01137,137.62967C250.65804,139.02966 250.31328,140.01067 249.65421,140.577C248.96545,141.16882 248.21103,141.43066 247.61136,142.02966C246.91113,142.72911 246.32555,143.45181 245.44336,143.631C244.72914,143.77606 243.99629,144.28528 243.16071,144.60434C242.283,144.93948 241.95676,145.73978 241.4007,146.19366C240.64786,146.80817 240.15123,147.27933 239.65421,147.98683C239.13161,148.73073 238.4509,149.2722 237.81003,149.82834C237.16292,150.38989 236.16695,150.51884 235.49536,150.71367C234.48775,151.00598 233.71272,151.601 232.81137,151.62967C231.91182,151.65829 231.06165,151.87219 230.36853,152.27701C229.61359,152.71794 228.82603,152.62967 227.76852,152.62967C226.91136,152.62967 226.01137,152.62967 225.21136,152.62967C224.31137,152.62967 223.39175,152.62772 222.61136,153.05501C221.7888,153.50539 220.91153,153.62967 220.06403,153.62967C219.21004,153.62967 218.31137,153.62967 217.41136,153.62967C216.51137,153.62967 215.6032,153.51318 214.71136,153.63417C213.89001,153.74559 213.19583,154.30815 212.41136,154.655C211.59332,155.01669 210.7146,155.40967 210.06403,155.98233C209.47519,156.50064 208.88235,157.09351 208.36403,157.68234C207.79138,158.3329 207.46957,159.10997 206.8127,159.82967C206.27921,160.41418 206.0504,161.39093 205.49052,162.12967C204.98689,162.79419 204.20386,163.28256 204.02203,164.22968C203.85234,165.11359 204.07381,166.06039 203.79002,166.951C203.56729,167.65002 203.07635,168.60121 203.01587,169.32516C202.94055,170.22655 202.89276,171.1053 202.36403,171.68234C201.73061,172.37364 201.06099,172.87108 200.36853,173.27701C199.61967,173.71599 198.71587,173.62967 197.78987,173.62967C196.91136,173.62967 196.01137,173.62967 195.21136,173.62967C194.31137,173.62967 193.41136,173.62967 192.51137,173.62967C191.61136,173.62967 190.71136,173.62967 189.81137,173.62967C188.91136,173.62967 188.01137,173.62967 187.21136,173.62967C186.31137,173.62967 185.41135,173.62434 184.51137,173.62967C183.61131,173.63501 182.88406,174.03854 182.01137,174.463C181.25745,174.82968 180.4902,175.25101 179.7897,175.851C179.16022,176.39017 178.222,176.23438 177.3447,176.79634C176.64299,177.24582 175.96886,177.44392 175.21136,177.715C174.31026,178.03746 173.89648,178.9695 173.12604,179.34433C172.25153,179.76979 171.36218,179.15579 170.45804,179.66566C169.75,180.06494 169.38171,180.46654 168.51137,180.6505C167.664,180.82961 166.77995,181.31219 166.09537,181.91367C165.49971,182.43701 164.79883,182.4801 163.91153,182.62984C163.05821,182.77383 162.44493,183.58072 161.65953,183.62517C160.7744,183.67526 160.11761,184.10367 159.72737,184.82967C159.2679,185.68446 159.37634,186.54066 158.95419,187.27251C158.48631,188.08363 157.72827,188.59828 156.8447,188.62967C156.03244,188.65852 155.09706,188.35616 155.01137,187.42967C154.92847,186.53349 155.01137,185.62967 155.01137,184.82967C155.01137,183.98683 154.97026,183.07761 155.43669,182.22968C155.83871,181.49883 156.05452,180.7282 156.44736,179.79367C156.69099,179.21408 157.13878,178.18762 157.61136,177.50166C158.13509,176.74149 158.80066,176.24745 159.0127,175.431C159.22058,174.63055 160.00095,174.12984 160.01137,173.187C160.01918,172.48038 160.28346,171.54121 160.65869,170.92517C161.15735,170.10649 161.10773,169.2234 161.65869,168.577C162.17386,167.9726 162.68103,167.23224 163.29669,166.71367C163.96204,166.15326 164.84306,165.85684 165.00687,164.92967C165.15735,164.07791 165.75626,163.82225 166.62202,163.59367C167.46843,163.37021 167.84464,162.41818 168.01154,161.52983C168.16103,160.73413 168.80066,160.24745 169.0127,159.431C169.22058,158.63055 169.68747,158.06764 170.02203,157.20433C170.29477,156.50055 170.93079,155.95413 171.44736,155.22968C172.00745,154.4442 172.66379,153.8369 173.51137,153.6505C174.3909,153.45706 175.32114,153.28326 175.81137,152.82834C176.54721,152.14549 177.31325,151.49271 178.01137,151.1505C178.8244,150.75195 179.5675,150.47325 180.0127,149.71367C180.40791,149.03932 181.31129,148.68866 181.9967,148.20433C182.72595,147.68903 183.56052,147.61588 184.37537,147.20433C185.1468,146.8147 185.76591,146.14604 186.45419,145.75101C187.11061,145.37425 188.20438,145.18764 189.01137,144.79634C189.69283,144.46591 190.16281,143.96587 190.8447,143.463C191.54843,142.94402 191.83795,142.14539 192.5322,141.62967C193.21698,141.12099 193.79941,140.49643 194.09537,139.82967C194.47612,138.97189 194.89523,138.18834 195.29536,137.42967C195.74808,136.57129 195.608,135.69301 196.09669,134.91501C196.56157,134.17493 197.38605,133.95177 198.09537,133.54434C198.82123,133.12741 199.17059,132.20706 199.72737,131.54567C200.24658,130.92889 200.49391,129.97577 200.98604,129.24034C201.43404,128.57086 202.02634,127.94427 202.8727,127.655C203.81023,127.33456 204.4557,127.0588 205.31137,126.68233C206.08539,126.3418 206.78305,125.79643 207.71136,125.63417C208.59882,125.47905 209.27428,125.0102 210.06403,124.63417C210.93321,124.22031 211.60736,123.92981 212.49536,123.715C213.33817,123.51113 214.25923,123.72636 215.21136,123.62833C216.02397,123.54467 216.71249,122.9263 217.31137,122.32967C218.01268,121.63099 218.61804,121.05018 218.98604,120.22967C219.33704,119.44706 219.92339,118.64233 220.00687,117.87251C220.10341,116.98222 219.66699,116.04028 220.0322,115.17133C220.33929,114.44064 220.99715,113.90588 221.43669,113.19367C221.91356,112.42097 222.20444,111.50564 222.71587,110.92967C223.36607,110.1974 223.76215,109.4782 224.17802,108.62967C224.55173,107.86719 224.88739,107.06184 225.36853,106.32967C225.89046,105.53542 226.64346,105.06064 226.97537,104.24033C227.30208,103.43288 227.84464,102.85671 228.00687,101.92967C228.16217,101.04224 228.56567,100.29556 228.92737,99.42834C229.19849,98.77828 229.48596,97.82307 229.72737,97.11367C230.07295,96.09811 229.77371,95.15887 230.01587,94.33417C230.24257,93.56212 231.47995,93.38428 231.8447,92.62967C232.2002,91.89417 232.01137,90.92967 232.01137,90.02967C232.01137,89.12967 232.0107,88.22967 232.01137,87.32967C232.01204,86.42967 232.30774,85.57644 232.65869,84.92967C233.10187,84.11293 232.96393,83.07608 233.36403,82.32967C233.81631,81.4859 233.98428,80.62921 234.01137,79.82967C234.03996,78.98539 234.99425,78.49461 234.9697,77.62967C234.9429,76.68563 233.98012,76.29277 233.21136,75.91367C232.36615,75.49686 231.33336,75.97148 230.5322,75.60883C229.84621,75.29832 229.49052,74.62967 228.61136,74.62967C227.71136,74.62967 226.73024,74.767 226.06403,74.277C225.37981,73.77377 224.57652,73.87254 223.71587,73.62517C222.94798,73.40446 222.37883,72.71776 221.98604,71.983C221.57288,71.21013 221.03497,70.51481 221.07303,69.39133C221.09889,68.62781 222.21136,68.62967 223.11136,68.62967C224.01137,68.62967 224.81137,68.62967 225.71136,68.62967C226.61136,68.62967 227.51137,68.63193 228.41136,68.62967C229.30688,68.62742 229.79022,68.07619 230.36853,67.33417C230.94901,66.58936 231.84592,66.82628 232.71136,66.5725C233.58881,66.31521 234.45947,65.84389 234.98604,65.19367C235.57697,64.46399 235.96753,63.68322 236.01137,62.92517C236.06311,62.03044 236.45557,61.23735 237.11119,60.52967C237.66116,59.93604 238.16637,59.19611 238.65869,58.577C239.17343,57.92971 239.34238,57.17818 239.8447,56.463C240.33316,55.76757 240.43367,54.98016 240.92603,54.34567C241.48877,53.62047 241.4537,52.8017 242.0367,52.06567C242.57349,51.38797 242.61832,50.69785 243.09669,49.915C243.58752,49.11177 244.61977,48.89087 244.97537,48.19367C245.36836,47.42316 245.37079,46.47734 245.72737,45.82967C246.20288,44.96599 246.68977,44.34443 247.29536,43.71367C247.84537,43.1408 248.72804,42.7525 249.0007,42.019C249.30351,41.20439 249.56818,40.52942 250.01137,39.79634C250.44905,39.07236 251.36194,38.52876 252.11136,38.851C252.8988,39.18959 253.4471,39.87175 254.17802,40.463C254.87584,41.02748 255.65933,41.19509 256.30685,41.92967C256.89059,42.59188 257.45752,43.17725 257.92603,43.915C258.36514,44.60648 258.01135,45.62967 258.01135,46.42967C258.01135,47.32967 258.03809,48.26613 258.01004,49.11367C257.98145,49.97833 257.51462,50.79838 257.17804,51.62967C256.87146,52.38686 257.01135,53.463 257.01135,54.24034C257.01135,55.12967 256.76056,56.06683 257.01587,56.92517C257.24271,57.68781 258.41537,57.71418 259.30685,57.62967C260.18988,57.54596 260.66971,56.8198 261.61136,56.64034C262.49551,56.47183 263.44852,56.37888 264.30685,56.63417C265.06952,56.86101 265.01135,57.92967 265.01135,58.82967C265.01135,59.72967 264.97415,60.63054 265.01135,61.42967C265.05408,62.34732 265.95044,62.84438 266.01135,63.68233C266.08002,64.62717 265.91092,65.44009 266.04736,66.26567C266.19144,67.13737 266.86865,67.74704 266.94971,68.87251C267.01233,69.7422 266.36319,70.39158 265.61136,71.019C264.95572,71.56616 264.01135,71.62967 263.21136,71.62967C262.31137,71.62967 261.37357,71.59691 260.62204,72.055C259.7966,72.55814 259.05765,72.86544 258.36853,73.277C257.62784,73.71937 257.02707,74.26252 256.58603,75.02967C256.17041,75.75259 256.01135,76.62967 256.01135,77.42967C256.01135,78.32967 256.01135,79.22967 256.01135,80.12967C256.01135,81.02967 256.01135,81.92967 256.01135,82.82834C256.01135,83.79633 256.03693,84.54089 256.44736,85.455C256.7674,86.16779 257.40216,87.00248 258.01135,87.62967C258.60254,88.23835 259.40128,88.70978 259.8447,89.62967C260.15668,90.27693 260.01135,91.22967 260.01135,92.12967C260.01135,93.019 260.01135,93.98684 260.01135,94.82967C260.01135,95.72967 260.01135,96.62967 260.01135,97.42967C260.01135,98.32967 260.06641,99.30244 259.65869,99.98684C259.1929,100.76871 259.19278,101.67064 258.92603,102.42967C258.62521,103.28562 258.01135,103.98684 258.01135,104.92967C258.01135,105.82967 258.01135,106.72967 258.01135,107.62967C258.01135,108.42967 258.01135,109.32967 258.01135,110.22967C258.01135,111.12967 258.01144,112.02764 258.51135,112.62967C259.02597,113.24941 259.62726,113.94062 259.92603,114.82834C260.19977,115.64176 260.06598,116.73978 260.62204,117.19367C261.37488,117.80818 262.14038,118.09352 262.65869,118.68233C263.23135,119.33291 263.6235,120.212 263.98602,121.02967C264.33334,121.8131 265.13254,122.24319 265.72604,122.71367C266.4646,123.29911 266.87704,123.95377 267.43671,124.60433C267.99008,125.2476 268.65533,125.6843 269.09537,126.431C269.50821,127.13153 269.90704,127.93398 270.0127,128.83101C270.12723,129.80368 270.40189,130.48105 270.81268,131.14568C271.35388,132.02126 272.3027,132.41589 272.95871,132.98233C273.55109,133.4938 274.31137,133.62967 275.21136,133.62967C276.11136,133.62967 277.01135,133.62967 277.81137,133.62967C278.71136,133.62967 279.65421,133.62967 280.5322,133.62967C281.41138,133.62967 282.31137,133.62967 283.21136,133.62967C284.11136,133.62967 285.01135,133.62967 285.81137,133.62967C286.71136,133.62967 287.61139,133.62427 288.51135,133.62967C289.40076,133.63501 289.89124,134.40039 290.5322,134.62967C291.36008,134.9258 292.13867,135.03854 293.01135,135.463C293.67102,135.78386 294.4339,136.31522 295.31137,136.57251C296.17682,136.82628 297.06827,136.91937 297.71136,137.27701C298.56448,137.75142 299.39899,138.05682 300.06403,138.68234C300.62061,139.20586 301.42163,139.7041 302.03671,140.20433C302.65656,140.70844 303.71393,140.23143 304.57538,140.66566C305.27423,141.01794 305.84717,141.43338 306.71136,141.68683C307.58878,141.94415 308.37268,142.48657 308.95871,142.98233C309.59653,143.52188 310.22818,144.01674 311.01135,144.463C311.79117,144.90735 311.83783,145.66792 312.09671,146.42967C312.39847,147.31758 312.99402,148.02911 313.01135,148.92967C313.02866,149.82817 312.65567,150.60107 311.81137,150.62967C310.91205,150.66013 309.98602,150.62967 309.21002,150.62967C308.31137,150.62967 307.41138,150.62967 306.51135,150.62967C305.61136,150.62967 304.71136,150.62967 303.81137,150.62967C302.91138,150.62967 302.01135,150.62967 301.21136,150.62967C300.17804,150.62967 299.36469,150.62967 298.52737,150.62967C297.66403,150.62967 296.6413,150.53036 295.81137,150.631C294.8916,150.74252 294.3573,151.43954 293.41138,151.619C292.52707,151.78677 291.61136,151.62967 290.71585,151.62967C289.84204,151.62967 288.99054,151.62967 288.03287,151.62967C287.21271,151.62967 286.31137,151.62967 285.41138,151.62967C284.51135,151.62967 283.61136,151.62967 282.71136,151.62967C281.81137,151.62967 280.91153,151.62967 280.01135,151.62967C279.21002,151.62967 278.31131,151.64008 277.41138,151.62967C276.51117,151.61925 275.80807,151.08649 274.91138,150.75117C274.06073,150.43307 273.29175,150.38821 272.84204,149.82834C272.27338,149.12035 271.08441,149.008 270.45804,148.60434C269.71997,148.12869 269.29434,147.34099 268.65955,146.92967C267.75803,146.34555 267.12427,145.9059 266.5322,145.12967C265.97241,144.39575 265.48499,143.81996 264.81268,143.34433C264.03244,142.79233 264.4147,141.69301 263.92603,140.91501C263.46115,140.17494 262.78107,139.66934 262.36404,138.92967C261.944,138.18465 261.28043,137.77802 260.62204,137.19366C259.92883,136.57843 259.65567,135.65826 258.81137,135.62967C257.9119,135.5992 257.01135,135.62967 256.21136,135.62967L255.29669,135.715L254.78987,136.50816" id="svg_1" stroke-width="3" stroke="#000" fill="none"/>
  <path t="15386,15424,15433,15433,15441,15441,15449,15449,15465,15473,15482,15482,15489,15513,15521,15521,15537,15552,15560,15585,15625,15657,15663,15680,15705,15721,15721,15745,15769,15777,15777,15792,15808,15841,15910,15953" d="M274.01135,133.62967C274.89804,133.715 275.87268,134.02325 276.3587,134.39134C277.19882,135.0276 277.52271,135.92758 278.33252,136.38684C279.07806,136.80965 279.82681,137.2547 280.36853,137.92517C280.96207,138.65974 281.86584,138.63901 282.61136,139.24034C283.26526,139.76778 284.03766,140.39212 284.71136,140.68234C285.55313,141.04497 286.31,141.60107 287.21136,141.62967C288.1109,141.6582 289.01135,141.62967 289.89005,141.62967C290.72736,141.62967 291.62204,141.62967 292.5322,141.62967C293.49536,141.62967 294.18604,141.62967 295.25421,141.62967C296.11136,141.62967 297.01135,141.62967 297.81137,141.62967C298.71136,141.62967 299.65421,141.62967 300.5322,141.62967L301.41138,141.62967L302.31137,141.63417" id="svg_2" stroke-width="3" stroke="#000" fill="none"/>
  <path t="20069,20105,20151,20201,20201,20233,20265,20289,20321,20355,20401,20425,20433,20441,20449,20449,20457,20457,20465,20465,20465,20481,20489,20505,20505,20513,20513,20521,20521,20529,20529,20537,20553,20561,20569,20832,20881,20881,20913,20921,20937,20954,21032,21099,21121,21121,21137,21183,21208,21225,21241,21264,21305,21305,21349,21377,21385,21408" d="M234.01137,108.62967C233.30687,109.33417 232.70047,109.91894 232.01137,110.62967C231.43816,111.22088 231.18134,112.10563 230.65869,112.92517C230.20856,113.63103 230.01137,114.33417 230.01137,115.2725C230.01137,116.15051 229.90491,117.1401 230.5322,117.62967C231.30211,118.23056 232.10472,118.56753 232.8967,118.62833C233.85521,118.70193 234.69803,118.62967 235.69403,118.62967C236.49052,118.62967 237.24203,118.62967 238.33937,118.62967C239.21136,118.62967 240.11153,118.62967 240.8967,118.62967C241.84737,118.62967 242.6127,118.62967 243.61136,118.62967C244.41136,118.62967 245.41003,118.62967 246.17537,118.62967C247.2542,118.62967 248.11136,118.63033 249.01137,118.62967C249.92603,118.629 250.23413,117.91186 251.01137,117.46301C251.63295,117.10404 251.92436,116.19134 251.43669,115.60433C250.90598,114.96552 250.63658,113.90335 249.78987,113.62967C248.95395,113.35947 248.01137,113.62967 247.21136,113.62967C246.31137,113.62967 245.41136,113.62967 244.51137,113.62967C243.61136,113.62967 242.70482,113.73669 241.81137,113.62833C240.89157,113.51678 240.31137,112.92517 239.61136,112.24033L238.91153,111.751L238.09537,111.34567L237.65869,110.68233" id="svg_3" stroke-width="3" stroke="#000" fill="none"/>
  <path t="21922,22013,22064,22112,22113" d="M238.01137,103.62967C238.01137,105.42967 237.97537,106.26567 237.72603,107.11367L237.4007,107.80434" id="svg_4" stroke-width="3" stroke="#000" fill="none"/>
  <path t="25521,25752,25785,25817,25841,25864,25881,25904,25928,25988,26032,26041,26089,26113,26113,26201,26225,26225,26265,26306,26344,26344,26388,26425,26457,26464,26488,26529,26553,26553,26569,26585,26653,26681,26705" d="M247.01137,45.62967C247.01137,47.32967 247.01137,48.32967 247.01137,49.22967C247.01137,50.12967 247.25424,51.06451 247.00687,51.92517C246.78615,52.69306 246.02179,53.12949 246.01137,54.06567C246.00175,54.92962 246.01137,55.82967 246.01137,56.72967C246.01137,57.62967 246.0242,58.48036 246.5322,59.12967C247.1326,59.89708 247.84166,60.27266 248.71136,60.68233C249.52415,61.06519 250.09981,61.90178 250.71587,62.277C251.53455,62.77564 252.51137,62.62967 253.41136,62.62967C254.31137,62.62967 255.21136,62.62967 256.11136,62.62967C257.01135,62.62967 257.84726,62.83048 258.71136,62.5725C259.57013,62.31612 260.23288,61.62967 261.11121,61.6295L261.92737,61.34567" id="svg_5" stroke-width="3" stroke="#000" fill="none"/>
  <path t="29489,29584,29617,29641,29657,29665,29681,29997,30048,30080,30137,30177,30329,30345,30361,30377,30460" d="M241.01137,57.62967C241.01137,59.32967 241.01137,60.32967 241.01137,61.22967C241.01137,62.12967 241.04674,63.06045 240.51137,63.60884C240.04817,64.08329 240.01137,63.655 240.01137,62.82833C240.01137,61.92967 240.0761,60.83761 239.30687,60.63417C238.3983,60.39387 238.0127,61.431 238.01137,62.32967L238.01137,63.19367" id="svg_6" stroke-width="3" stroke="#000" fill="none"/>
  <path t="32017,32078,32096,32105,32113,32120,32120,32129,32129,32136,32146,32146,32161,32162,32169,32185,32200,32208,32209,32216,32232,32249,32249,32256,32273,32288,32297,32305,32320,32329,32329,32345,32353,32369,32377,32385,32409,32417,32432,32448,32464,32496,32520,32528,32544,32552,32569,32576,32584,32592,32600,32608,32624,32641,32641,32649,32664,32664,32672,32672,32681,32689,32697,32705,32713,32721,32721,32729,32729,32737,32737,32745,32754,32754,32761,32777,32777,32785,32794,32794,32810,32817,32832,32849,32849,32865,32865,32880,32888,32896,32912,32912,32920,32929,32929,32937,32937,32944,32961,32985,32993,32993,33001,33017,33049,33049,33065,33080,33096,33128,33160,33192,33192,33224,33240,33248,33256,33273,33289,33289,33297,33297,33304,33312,33328,33337,33337,33344,33345,33353,33353,33361,33369,33369,33385,33401,33416,33416,33432,33440,33456,33472,33488,33496,33520,33544,33544,33576,33592,33608,33608,33616" d="M295.01135,21.62967C293.31137,21.62967 292.41138,21.62967 291.51135,21.62967C290.60071,21.62967 289.69003,21.62967 288.8367,21.62967C287.89536,21.62967 287.12735,21.62967 286.18604,21.62967C285.17804,21.62967 284.38602,21.62967 283.52737,21.62967C282.66403,21.62967 281.64737,21.62967 280.81137,21.62967C279.91138,21.62967 279.01135,21.62967 278.21136,21.62967C277.31137,21.62967 276.37537,21.62967 275.52737,21.62967C274.66403,21.62967 273.64737,21.62967 272.81137,21.62967C271.91138,21.62967 270.73648,21.11986 270.06854,21.63417C269.38831,22.15795 269.01135,22.62967 268.21136,22.62967C267.31137,22.62967 266.41135,22.62427 265.51135,22.62967C264.62198,22.635 264.07474,23.40446 263.30685,23.62517C262.4462,23.87254 261.57391,23.69502 260.98602,24.20434C260.33743,24.76624 260.01202,25.431 260.01135,26.32967C260.01068,27.22967 260.01135,28.12967 260.01135,29.02967C260.01135,29.92967 260.01135,30.82967 260.01135,31.72967C260.01135,32.62967 260.31015,33.29349 261.06403,33.68684C261.78384,34.06242 262.5296,34.77643 263.15002,35.22967C263.88962,35.76996 264.03912,36.79435 264.77304,37.2725C265.55841,37.78418 266.36813,37.80727 267.05954,38.277C267.71625,38.72316 268.65955,38.62967 269.67804,38.62967C270.55304,38.62967 271.4967,38.62967 272.22205,38.62967C273.21121,38.62967 273.99054,38.62967 274.98987,38.62967C275.81003,38.62967 276.68335,38.62967 277.55386,38.62967C278.49054,38.62967 279.51135,38.62967 280.3447,38.62967C281.19669,38.62967 282.12604,38.62967 283.01135,38.62967C283.81137,38.62967 284.71143,38.64008 285.61136,38.62967C286.51154,38.61925 287.29672,38.24631 287.8967,37.82833C288.79904,37.19971 289.52979,37.12349 290.43671,36.619C291.10825,36.24546 291.28467,35.16948 292.17804,34.79634C292.94339,34.47667 293.68918,34.12702 294.45438,33.75117C295.16003,33.40456 296.21109,33.64075 297.13937,33.62967C298.01154,33.61925 298.95059,33.34694 299.67804,32.79634C300.33514,32.29898 300.43143,31.24912 301.21136,30.80033C302.00537,30.34345 302.98309,30.41797 303.61136,30.055C304.45703,29.56643 304.86301,28.89874 305.44736,28.24034C306.06259,27.54713 306.96863,27.3461 307.01135,26.463C307.05161,25.63064 307.04245,24.6508 307.01135,23.751C306.98276,22.92369 306.54987,22.03261 305.70688,21.68233C304.88535,21.34097 304.21881,21.11151 303.17804,20.79634C302.43924,20.57261 301.51135,20.62967 300.62204,20.62967C299.64969,20.62967 298.8447,20.62967 298.01135,20.62967C297.03268,20.62967 296.2587,20.62967 295.3587,20.62967C294.49536,20.62967 293.51135,20.62967 292.52737,20.62967C291.8367,20.62967 290.76852,20.62967 289.91138,20.62967C289.01135,20.62967 288.21136,20.62967 287.31137,20.62967C286.41138,20.62967 285.51135,20.62967 284.61136,20.62967C283.71136,20.62967 282.81137,20.62967 281.91138,20.62967C281.01135,20.62967 280.17828,20.43841 279.31137,20.68684C278.41479,20.94377 277.69003,21.50817 276.8367,21.619L275.89804,21.631" id="svg_7" stroke-width="3" stroke="#000" fill="none"/>
  <path t="37244,37337,37337,37353,37361,37369,37385,37385,37417,37417,37417,37433,37433,37456,37464,37472,37518,37579,37609,37625,37625,37648,37673,37680,37705,37737,37777,37801,37829,37829,37857,37902,37921,37969,37985,38009,38025,38033,38041,38056,38056,38072,38081,38088,38098,38104,38136,38144,38152,38152,38168,38176,38193,38193,38201,38208,38216,38232,38250,38280,38296,38329,38352,38377,38393,38433,38526,38610,38610,38664,38705,38744,38833,38877,38877" d="M234.01137,85.62967C235.01137,85.79633 235.57178,86.28329 236.31137,86.92517C236.97806,87.50378 237.72348,87.85576 238.17802,88.62967C238.5928,89.33587 239.33546,89.80948 240.01669,90.27783C240.75102,90.7827 241.64259,91.42154 242.4697,91.58801C243.39375,91.77398 244.32733,91.46239 245.21004,91.631C245.96613,91.77543 246.23286,92.62967 247.11136,92.62967C248.01137,92.62967 248.81137,92.62967 249.72603,92.62967C250.62202,92.62967 251.51137,92.62967 252.41136,92.62967C253.31137,92.62967 254.21136,92.62967 255.11136,92.62967C256.01135,92.62967 256.79456,92.74229 257.57538,93.20434C258.34836,93.66176 258.99335,94.06516 259.01135,95.02967C259.02814,95.92951 259.34244,97.08242 258.72604,97.54433C257.99091,98.09523 256.91138,97.62967 256.01135,97.62967C255.21136,97.62967 254.31137,97.62967 253.41136,97.62967C252.51137,97.62967 251.61136,97.62967 250.71587,97.62967C249.78987,97.62967 248.85788,97.81102 248.01137,97.46301C247.34029,97.18711 246.47932,96.69489 245.71136,96.277C244.87045,95.81942 244.17682,95.82628 243.31137,95.5725C242.43393,95.31521 241.68045,94.72906 241.0367,94.20434C240.39839,93.68407 239.57536,93.62967 238.62202,93.62967C237.72603,93.62967 236.71071,93.81023 236.09537,93.34567C235.41216,92.8299 234.56168,92.80347 234.0367,92.19367C233.42023,91.47759 233.1198,90.90697 232.5322,90.12967C231.97459,89.39205 232.01137,88.42967 232.01137,87.52967L232.01137,86.62967L232.01137,85.82967" id="svg_8" stroke-width="3" stroke="#000" fill="none"/>
  <path t="40637,40708,40721,40730,40737,40777,40801" d="M260.01135,114.62967C260.01135,116.42967 260.01135,117.32967 260.01135,118.22967L260.01135,119.12967L260.01135,120.02967L260.01135,120.92967" id="svg_9" stroke-width="3" stroke="#000" fill="none"/>
  <path t="41235,41336,41336,41345,41345,41368,41384,41417" d="M258.01135,115.62967C259.17804,116.62967 259.71121,117.22566 259.92603,118.11367C260.12991,118.95647 260.01135,119.87251 260.01135,120.82967L260.01135,121.72967" id="svg_10" stroke-width="3" stroke="#000" fill="none"/>
  <path t="42212,42303,42312,42320,42344,42369,42393,42409" d="M257.01135,113.62967C257.01135,115.42967 257.01135,116.32967 257.01135,117.22967C257.01135,118.12967 257.01135,119.02967 257.01135,119.92967L257.01135,120.82967" id="svg_11" stroke-width="3" stroke="#000" fill="none"/>
  <path t="46401,46424,46424,46432,46457,46457,46489,46489,46505,46521,46653,46675,46696,46743,46760,46793,46801,46816,46840,46865,46880,46896,46912,46928,46928,46969,46969,46993,47025,47049" d="M172.01137,167.62967C173.29803,167.62967 174.01053,167.62967 175.0407,167.62967C176.01137,167.62967 176.76852,167.62967 177.66403,167.62967C178.52736,167.62967 179.44576,167.67448 180.0007,168.20433C180.49117,168.67261 181.01842,169.27702 181.01137,170.1505C181.00346,171.12985 180.50218,171.84483 180.17802,172.62967C179.82301,173.48921 179.21004,173.62967 178.31137,173.62967C177.41136,173.62967 176.51137,173.62967 175.61136,173.62967C174.71136,173.62967 173.79628,173.55478 173.12604,173.715C172.15382,173.94739 171.49536,174.34567 170.5322,174.62967L169.71136,174.98233L168.91136,175.50816" id="svg_12" stroke-width="3" stroke="#000" fill="none"/>
  <path t="47661,47765,47793,47800,47824,47873,47873,47897,47940,47940,47969,47992,48040,48125,48174,48174,48184,48200,48233,48265,48272,48304,48356,48356,48423,48536" d="M172.01137,166.62967C170.17802,166.62967 170.35194,167.46378 169.8447,168.29634C169.4111,169.008 168.88576,169.66235 168.4007,170.22968C167.76225,170.97638 166.94368,171.57263 166.5322,172.12967C165.92731,172.94853 165.38321,173.49719 165.0007,174.06567C164.54773,174.73888 164.28264,175.67032 163.92737,176.42967C163.58516,177.1611 162.37837,177.40727 162.04736,178.06567C161.61406,178.92755 162.05769,179.95888 161.58603,180.61501C161.14081,181.23434 160.95869,181.98151 160.58603,182.983L160.01137,183.6505" id="svg_13" stroke-width="3" stroke="#000" fill="none"/>
  <path t="54151,54184,54184,54201,54209,54210,54217,54224,54224,54232,54240,54248,54257,54272,54272,54280,54321,54406,54432,54441,54449,54449,54456" d="M222.01137,121.62967C221.8447,122.62967 221.32249,123.23384 220.72737,123.915C220.13429,124.59382 220.29402,125.51373 219.89703,126.32967C219.52856,127.08698 218.65532,127.49409 217.9967,128.19366C217.42393,128.80206 217.37785,129.65407 216.78987,130.38684C216.23936,131.07292 215.36665,131.33333 215.01137,132.12967C214.65681,132.92435 213.57974,133.92015 214.23286,134.50816C214.89195,135.10155 216.01137,134.62967 216.81137,134.62967L217.71136,134.62967" id="svg_14" stroke-width="3" stroke="#000" fill="none"/>
  <path t="60760,60808,60808,60816,60816,60816,60825,60825,60825,60825,60825,60832,60832,60832,60832,60832,60840,60840,60840,60840,60840,60840,60840,60848,60848,60848,60848,60848,60848,60855,60855,60855,60855,60855,60855,60855,60856,60863,60863,60864,60864,60864,60864,60864,60864,60872,60872,60872,60872,60872,60872,60881,60881,60881,60881,60881,60888,60888,60888,60888,60896,60896,60896,60904,60904,60904,60904,60912,60912,60913,60913,60920,60920,60920,60920,60928,60928,60928,60928,60936,60936,60936,60936,60936,60936,60944,60944,60944,60944,60944,60944,60944,60951,60952,60952,60952,60952,60952,60952,60952,60959,60960,60960,60960,60960,60960,60960,60960,60960,60967,60968,60968,60968,60968,60968,60968,60968,60968,60976,60976,60976,60976,60976,60976,60976,60976,60976,60984,60984,60984,60984,60984,60984,60984,60984,60985,60992,60992,60992,60992,60992,60992,60992,60992,60992,61000,61000,61000,61000,61000,61000,61000,61000,61000,61008,61008,61008,61008,61008,61008,61008,61008,61008,61015,61016,61016,61016,61016,61016,61016,61016,61016,61024,61025,61025,61025,61025,61025,61025,61025,61033,61033,61033,61033,61033,61034,61034,61034,61040,61040,61040,61040,61040,61040,61040,61040,61040,61048,61048,61049,61049,61049,61049,61049,61049,61056,61056,61057,61057,61057,61057,61057,61057,61065,61065,61065,61065,61065,61066,61066,61066,61066,61072,61073,61073,61073,61073,61073,61073,61073,61073,61082,61082,61082,61082,61083,61083,61083,61083,61083,61089,61089,61089,61089,61089,61089,61089,61090,61090,61099,61099,61100,61100,61100,61100,61100,61101,61101,61104,61105,61105,61105,61105,61105,61105,61105,61106,61113,61113,61113,61113,61113,61113,61113,61114,61114,61121,61121,61121,61122,61122,61122,61122,61122,61122,61131,61131,61132,61132,61132,61132,61132,61132,61133,61139,61139,61140,61140,61140,61140,61140,61140,61140,61144,61144,61144,61144,61144,61144,61144,61144,61145,61151,61151,61151,61151,61151,61151,61153,61153,61153,61160,61160,61160,61160,61160,61160,61160,61160,61161,61167,61167,61167,61167,61168,61168,61168,61168,61168,61175,61175,61175,61175,61176,61176,61176,61176,61176,61184,61184,61184,61184,61184,61184,61184,61184,61184,61191,61191,61191,61191,61191,61192,61192,61192,61192,61199,61200,61200,61200,61200,61200,61201,61201,61201,61207,61207,61207,61207,61208,61208,61208,61208,61208,61215,61215,61215,61215,61216,61216,61216,61216,61216,61223,61223,61223,61223,61224,61224,61224,61224,61224,61231,61232,61232,61232,61232,61232,61232,61232,61239,61239,61239,61240,61240,61247,61247,61247,61255,61255,61255,61264,61264,61264,61264,61272,61272,61272,61272,61280,61280,61280,61280,61281,61287,61287,61287,61288,61288,61288,61296,61296,61296,61296,61297,61297,61303,61304,61304,61304,61304,61313,61313,61313,61313,61314,61314,61320,61320,61320,61320,61320,61329,61329,61329,61330,61336,61336,61344,61344,61344,61351,61351,61359,61367,61367,61375,61375,61383,61383,61384,61391,61392,61400,61400,61400,61400,61407,61407,61407,61416,61416,61416,61432,61439,61439,61447,61456,61456,61463,61471,61471,61487,61488,61495,61496,61503,61504,61504,61511,61512,61519,61519,61567,61583,61599,61600,61608,61623,61640,61655,61663,61679,61711,61712,61728,61743,61751,61760,61767,61783,61784,61792,61815,61831,61892,61936" d="M14.01136,214.62967C15.85803,214.64034 16.70346,214.68939 17.69803,214.91367C18.55829,215.10765 19.16616,215.31902 20.17803,215.463C21.26752,215.61801 22.05295,215.61394 22.87303,215.62517C23.298,215.63098 24.63303,215.62967 25.57303,215.62967C26.05803,215.62967 27.05803,215.62967 28.09803,215.62967C29.17803,215.62967 29.7327,215.62967 30.86403,215.62967C31.4367,215.62967 32.58603,215.62967 33.1587,215.62967C33.72736,215.62967 35.39037,215.62967 35.93003,215.62967C37.00737,215.62967 37.55303,215.62967 38.67836,215.62967C39.26603,215.62967 40.51136,215.62967 41.1757,215.62967C42.57837,215.62967 43.3087,215.62967 44.05303,215.62967C44.80737,215.62967 45.5677,215.62967 46.33003,215.62967C47.8447,215.62967 48.58953,215.62967 49.32336,215.62967C50.0452,215.62967 50.75403,215.62967 52.1287,215.62967C52.79253,215.62967 53.43937,215.62967 54.67803,215.62967C55.8407,215.62967 56.39703,215.62967 57.4697,215.62967C57.99003,215.62967 59.0087,215.62967 60.51103,215.62967C61.0087,215.62967 61.99003,215.62967 62.4697,215.62967C63.39703,215.62967 64.67803,215.62967 65.4407,215.62967C66.4697,215.62967 67.10236,215.62967 68.31136,215.62967C69.21136,215.62967 69.81136,215.62967 71.01137,215.62967C71.91586,215.62967 72.5322,215.62967 73.4967,215.62967C74.5327,215.62967 75.26403,215.62967 76.01137,215.62967C76.7587,215.62967 78.19003,215.62967 78.8587,215.62967C79.8367,215.62967 80.49536,215.62967 81.53303,215.62967C82.27303,215.62967 83.05303,215.62967 83.87303,215.62967C85.17803,215.62967 86.09937,215.62967 86.57753,215.62967C87.57387,215.62967 88.09403,215.62967 89.18336,215.62967C90.3447,215.62967 91.58203,215.62967 92.2257,215.62967C92.88336,215.62967 93.55303,215.62967 94.2327,215.62967C95.61403,215.62967 97.01137,215.62967 97.71153,215.62967C98.4127,215.62967 99.11587,215.62967 99.82203,215.62967C100.5322,215.62967 101.24737,215.62967 102.6967,215.62967C104.17803,215.62967 104.93286,215.62967 105.6967,215.62967C106.46853,215.62967 107.24737,215.62967 108.0322,215.62967C108.82203,215.62967 109.61587,215.62967 110.4127,215.62967C112.01137,215.62967 112.81136,215.62967 113.61137,215.62967C114.41136,215.62967 115.21136,215.62967 116.01137,215.62967C116.81136,215.62967 117.61137,215.62967 118.41136,215.62967C120.01137,215.62967 120.81153,215.62967 121.6127,215.62967C122.41586,215.62967 123.22203,215.62967 124.0322,215.62967C124.84737,215.62967 125.66853,215.62967 126.4967,215.62967C128.17802,215.62967 129.0327,215.62967 129.89537,215.62967C130.76404,215.62967 131.6367,215.62967 132.51137,215.62967C133.38603,215.62967 134.2587,215.62967 135.12737,215.62967C136.8447,215.62967 137.6897,215.62967 138.5247,215.62967C139.3497,215.62967 140.1647,215.62967 140.9697,215.62967C141.76469,215.62967 142.5497,215.62967 143.32469,215.62967C144.8447,215.62967 145.59003,215.62967 146.32736,215.62967C147.0587,215.62967 147.78603,215.62967 148.51137,215.62967C149.23669,215.62967 149.96404,215.62967 150.69536,215.62967C152.17802,215.62967 152.93286,215.62967 153.6967,215.62967C154.46854,215.62967 155.24736,215.62967 156.0322,215.62967C156.82204,215.62967 157.61586,215.62967 158.4127,215.62967C160.01137,215.62967 160.8112,215.62967 161.61003,215.62967C162.40686,215.62967 163.2007,215.62967 163.99052,215.62967C164.77536,215.62967 165.5542,215.62967 166.32603,215.62967C167.8447,215.62967 168.58986,215.62967 169.32603,215.62967C170.0542,215.62967 170.77536,215.62967 172.2007,215.62967C172.90686,215.62967 173.61003,215.62967 175.01137,215.62967C175.71153,215.62967 176.4127,215.62967 177.11586,215.62967C177.82204,215.62967 179.24736,215.62967 179.96854,215.62967C180.6967,215.62967 182.17802,215.62967 182.93269,215.62967C183.69536,215.62967 184.46404,215.62967 185.23669,215.62967C186.01137,215.62967 186.78603,215.62967 187.5587,215.62967C188.32736,215.62967 189.8447,215.62967 190.58986,215.62967C191.32603,215.62967 192.77536,215.62967 193.49052,215.62967C194.2007,215.62967 194.90686,215.62967 195.61003,215.62967C197.01137,215.62967 197.71187,215.62967 198.41536,215.62967C199.84337,215.62967 200.57387,215.62967 201.31937,215.62967C202.08287,215.62967 202.86737,215.62967 204.51137,215.62967C205.37553,215.62967 206.26469,215.62967 207.17386,215.62967C208.09804,215.62967 209.0322,215.62967 209.97136,215.62967C210.91054,215.62967 211.8447,215.62967 213.67802,215.62967C214.5687,215.62967 215.44336,215.62967 216.30603,215.62967C217.16071,215.62967 218.01137,215.62967 218.86203,215.62967C219.71671,215.62967 220.57936,215.62984 222.3447,215.62967C223.25453,215.62958 224.18336,215.62978 225.1302,215.62517C226.09404,215.62047 227.07391,215.61169 228.0687,215.59367C229.07759,215.57539 230.09993,215.55779 232.17802,215.463C233.23404,215.41483 234.30365,215.34714 235.39104,215.26801C236.50102,215.18723 237.63667,215.09134 238.80203,214.983C240.00201,214.87144 241.2401,214.74976 243.8447,214.463C245.2186,214.31174 246.63293,214.14641 248.07919,213.9725C249.54895,213.79578 251.03249,213.61107 252.52069,213.41901C254.00549,213.22739 255.47783,213.03639 258.3447,212.62967C259.72592,212.43372 261.07013,212.2316 262.38269,212.03416C263.66745,211.84091 264.92776,211.64871 266.1687,211.46567C267.3931,211.28506 268.60425,211.10127 271.01135,210.79634C272.21002,210.6445 273.40692,210.51183 274.59787,210.39134C275.7789,210.27187 276.94852,210.16704 278.10336,210.07634C279.23953,209.98711 280.35471,209.9034 282.51135,209.79634C283.54642,209.74496 284.55392,209.71176 285.53537,209.68683C286.49265,209.66251 287.42801,209.64856 288.34335,209.64034C289.24069,209.63228 290.12204,209.63034 291.8447,209.62967C292.68954,209.62935 293.52338,209.62967 294.34518,209.62967C295.15402,209.62967 295.94885,209.62967 296.7287,209.62967C297.49252,209.62967 298.23938,209.62967 299.67804,209.62967C300.36819,209.62967 301.03937,209.62967 301.69254,209.62967C302.3287,209.62967 302.94885,209.62967 303.55402,209.62967C304.1452,209.62967 304.72336,209.62967 305.8447,209.62967C306.38986,209.62967 306.92603,209.62967 307.45419,209.62967C307.97537,209.62967 308.49054,209.62967 309.0007,209.62967C309.50687,209.62967 310.01004,209.62967 311.01135,209.62967C311.5112,209.62967 312.01004,209.62967 312.50687,209.62967C313.0007,209.62967 313.49054,209.62967 313.97537,209.62967C314.45419,209.62967 314.92603,209.62967 315.8447,209.62967C316.29004,209.62967 316.72736,209.62967 317.15869,209.62967C317.58603,209.62967 318.01135,209.62967 318.43671,209.62967C318.86404,209.62967 319.29538,209.62967 320.17804,209.62967C320.63287,209.62967 321.09671,209.62967 321.56854,209.62967C322.04736,209.62967 322.5322,209.62967 323.02203,209.62967C323.51587,209.62967 324.0127,209.62967 325.01135,209.62967C325.51154,209.62967 326.0127,209.62967 326.51587,209.62967C327.02203,209.62967 327.5322,209.62967 328.04736,209.62967C328.56854,209.62967 329.09671,209.62967 330.17804,209.62967C330.73303,209.62967 331.29803,209.62967 331.87302,209.62967C332.45804,209.62967 333.05304,209.62967 333.65802,209.62967C334.27304,209.62967 334.89804,209.62967 336.17804,209.62967C336.83286,209.62967 337.4967,209.62967 338.16852,209.62967C338.84735,209.62967 339.5322,209.62967 340.22205,209.62967C340.91586,209.62967 341.6127,209.62967 343.01135,209.62967C343.71185,209.62967 344.41537,209.62967 345.12488,209.62967C345.84335,209.62967 346.57385,209.62967 347.31937,209.62967C348.08286,209.62967 348.86737,209.62967 350.51135,209.62967C351.37537,209.62967 352.26337,209.62967 353.16937,209.62967C354.08737,209.62967 355.01135,209.62967 355.93536,209.62967C356.85336,209.62967 357.75937,209.62967 359.51135,209.62967C360.34671,209.62967 361.15402,209.62967 361.93536,209.62967C362.69269,209.62967 363.42804,209.62967 364.14337,209.62967C364.8407,209.62967 365.52203,209.62967 366.8447,209.62967C367.48987,209.62967 368.12604,209.62967 368.75421,209.62967C369.37537,209.62967 369.99054,209.62967 370.60071,209.62967C371.20688,209.62967 371.81003,209.62967 373.01135,209.62967C373.61102,209.62967 374.20871,209.62967 374.80237,209.62967C375.39005,209.62967 375.9697,209.62967 377.09705,209.62967C377.64069,209.62967 379.16821,209.62967 379.63937,209.62967C380.52869,209.62967 381.35403,209.62967 382.12335,209.62967C383.52603,209.62967 384.17535,209.62967 385.10687,209.62967C386.31137,209.62967 386.91138,209.62967 387.81137,209.62967C389.01135,209.62967 389.6127,209.62967 390.5322,209.62967C391.16852,209.62967 392.53287,209.62967 393.26852,209.62967C394.0322,209.62967 394.81586,209.63066 396.01135,209.62967C396.81403,209.629 397.63297,209.62668 398.48337,209.59367C398.92587,209.57651 400.34583,209.47235 401.38071,209.34433C401.92184,209.27739 403.03247,209.11063 403.59671,209.019C404.16351,208.92696 405.84494,208.63103 406.38971,208.52966C407.4502,208.33232 407.96527,208.23262 408.96469,208.02966C409.45001,207.93111 410.84531,207.63232 411.72736,207.42967C412.58664,207.23225 413.43643,207.02852 413.86404,206.92967C415.17722,206.62613 416.0965,206.42868 416.56854,206.32967C417.53177,206.12764 418.51581,205.9294 419.0127,205.82967C420.51083,205.52899 421.00775,205.42612 421.99002,205.24034C422.93848,205.06096 423.3927,204.95496 424.67804,204.79634C425.78949,204.65918 426.4487,204.64133 427.32336,204.631C428.3273,204.61914 429.23669,204.62967 430.17804,204.62967C430.95953,204.62967 431.75003,204.62967 432.86838,204.62967C433.70236,204.62967 434.5322,204.62967 435.4967,204.62967C436.22205,204.62967 437.21136,204.62967 438.01135,204.62967C439.01135,204.62967 439.81137,204.62967 440.61136,204.62967C441.62036,204.62967 442.5257,204.62967 443.65421,204.62967C444.3212,204.62967 445.0322,204.62967 445.76318,204.62967C447.1897,204.62967 447.8497,204.62967 448.76471,204.62967C449.8447,204.62967 450.54971,204.62967 451.3497,204.62967C452.38602,204.62967 453.3327,204.62967 454.01135,204.62967C454.98987,204.62967 456.01135,204.62967 456.81137,204.62967C457.64737,204.62967 458.65955,204.62967 459.44202,204.62967C460.45438,204.62967 461.2327,204.62967 462.21136,204.62967C463.01135,204.62967 464.01135,204.62967 464.81137,204.62967C465.61136,204.62967 466.61136,204.62967 467.41138,204.62967C468.40869,204.62967 469.13937,204.62967 470.17804,204.62967C471.11136,204.62967 472.01135,204.62967 472.81137,204.62967C473.71136,204.62967 474.61136,204.62967 475.51135,204.62967C476.41138,204.62967 477.31137,204.62975 478.21136,204.62967C479.11136,204.62958 479.78882,204.50539 480.61136,204.05501C481.39175,203.62772 482.31137,203.62967 483.21136,203.62967C484.11136,203.62967 485.01135,203.62967 485.81137,203.62967C486.71136,203.62967 487.61136,203.62967 488.57538,203.62967L489.43671,203.62967L490.36853,203.62967" id="svg_15" stroke-width="3" stroke="#000" fill="none"/>
  <path t="63509,63536,63536,63536,63544,63544,63544,63544,63544,63552,63553,63553,63553,63553,63561,63562,63562,63562,63562,63568,63568,63568,63568,63568,63568,63576,63576,63576,63576,63576,63576,63576,63576,63584,63584,63584,63584,63584,63584,63584,63584,63584,63592,63592,63592,63592,63592,63592,63592,63592,63600,63600,63600,63600,63600,63600,63600,63600,63608,63609,63609,63609,63609,63609,63609,63616,63616,63616,63616,63616,63616,63616,63624,63625,63625,63625,63625,63632,63632,63632,63632,63640,63640,63640,63640,63647,63648,63648,63648,63655,63656,63656,63656,63664,63664,63664,63664,63672,63672,63672,63672,63672,63680,63680,63680,63681,63688,63688,63689,63689,63689,63689,63696,63696,63696,63704,63704,63704,63705,63712,63712,63712,63720,63720,63736,63751,63768,63776,63776,63784,63785,63792,63815,63816,63848,63863,63879,63887,63888,63896,63896,63904,63904,63911,63919,63927,63944,63960,63969,63976,63977,63984,63993,63993,64001,64024,64032,64041,64064,64088,64096,64112,64208,64208" d="M19.01136,174.62967C21.69937,175.82834 22.56818,176.13359 23.2302,176.27251C24.33676,176.5047 25.18039,176.55054 26.0727,176.60434C26.99641,176.66003 27.46648,176.64784 28.8447,176.79634C29.72869,176.89159 30.57491,177.05753 31.4007,177.20433C32.20959,177.34813 33.41087,177.51955 34.22036,177.57251C34.63236,177.59947 35.48333,177.62326 36.38203,177.62834C37.85451,177.63666 38.38337,177.62967 39.49403,177.62967C40.07386,177.62967 40.6687,177.62967 41.89936,177.62967C43.17803,177.62967 43.83303,177.62967 44.49803,177.62967C45.17303,177.62967 46.55303,177.62967 47.25803,177.62967C47.97303,177.62967 48.69803,177.62967 50.17803,177.62967C50.9327,177.62967 51.69537,177.62967 52.46403,177.62967C53.2367,177.62967 54.01136,177.62967 54.78603,177.62967C55.5587,177.62967 56.32737,177.62967 57.8447,177.62967C58.58987,177.62967 60.0542,177.62967 60.77536,177.62967C61.49053,177.62967 62.2007,177.62967 62.90686,177.62967C63.61003,177.62967 65.01137,177.62967 65.71136,177.62967C67.11137,177.62967 67.81136,177.62967 68.51137,177.62967C69.21136,177.62967 69.91136,177.62967 70.61137,177.62967C72.01137,177.62967 73.41003,177.62967 74.10686,177.62967C74.8007,177.62967 75.49053,177.62967 76.17536,177.62967C76.85419,177.62967 78.8447,177.62967 79.48953,177.62967C80.12337,177.62967 80.7452,177.62967 81.94887,177.62967C82.5287,177.62967 83.63937,177.62967 84.67803,177.62967C85.63937,177.62967 86.5287,177.62967 87.35403,177.62967C88.12337,177.62967 89.19003,177.62967 90.18604,177.62967C90.8367,177.62967 91.49536,177.62967 92.8967,177.62967C93.64736,177.62967 94.42204,177.62967 95.2127,177.62967C96.4112,177.62967 97.20686,177.62967 97.99053,177.62967C98.7542,177.62967 99.8447,177.62967 100.8587,177.62967C101.51137,177.62967 102.49536,177.62967 103.53287,177.62967C104.26853,177.62967 105.0322,177.62967 105.81586,177.62967C107.01137,177.62967 107.81149,177.63634 108.61137,177.619C109.41158,177.60167 110.21548,177.57677 111.41153,177.40817C112.21925,177.29431 113.03273,177.11125 113.86853,176.92517C115.17888,176.63344 115.63126,176.5237 116.55953,176.33417C117.4893,176.14433 117.94758,176.05032 118.84203,175.91501C120.06537,175.72995 120.79863,175.70061 121.79003,175.60434C123.01376,175.4855 123.6164,175.36279 124.51137,175.10884C125.11502,174.93755 126.31015,174.52713 126.90237,174.33417C127.73813,174.06186 128.86179,173.69482 129.6452,173.63417C130.52956,173.5657 131.41136,173.62975 132.31587,173.62967C133.3327,173.62958 134.0583,173.76871 134.98987,173.40834C135.7677,173.10744 136.54953,172.68295 137.49536,172.34567C138.20117,172.09398 139.18935,171.96017 139.98604,171.619C140.79251,171.27364 141.49405,170.68164 142.22203,170.64034C143.20967,170.5843 143.99052,170.62967 144.98987,170.62967C145.81003,170.62967 146.71136,170.62967 147.61136,170.62967C148.51137,170.62967 149.49052,170.62967 150.36853,170.62967C151.21136,170.62967 152.11153,170.62967 152.8967,170.62967C153.8367,170.62967 154.8447,170.62967 155.60069,170.62967C156.51137,170.62967 157.41136,170.63034 158.31137,170.62967C159.21004,170.629 159.66933,170.00751 160.29669,169.62967C161.08023,169.15778 162.11136,169.62967 163.01137,169.62967L163.81137,169.62967" id="svg_16" stroke-width="3" stroke="#000" fill="none"/>
  <path t="64791,64832,64832,64833,64833,64833,64833,64841,64841,64841,64841,64841,64841,64841,64841,64841,64848,64848,64848,64848,64848,64848,64848,64848,64848,64856,64856,64856,64856,64856,64856,64856,64856,64856,64864,64864,64864,64864,64864,64864,64864,64864,64864,64872,64872,64872,64872,64872,64872,64872,64872,64872,64880,64880,64880,64880,64880,64880,64880,64880,64880,64889,64889,64889,64889,64889,64889,64889,64889,64889,64895,64895,64895,64895,64895,64895,64895,64895,64896,64903,64904,64904,64904,64904,64904,64904,64904,64904,64911,64911,64911,64911,64911,64911,64911,64911,64911,64920,64920,64920,64920,64920,64920,64920,64920,64920,64927,64927,64927,64927,64927,64927,64928,64928,64928,64935,64935,64935,64935,64935,64935,64936,64936,64936,64943,64943,64943,64943,64943,64943,64944,64944,64944,64951,64951,64951,64951,64951,64951,64951,64952,64952,64959,64959,64959,64959,64959,64960,64960,64960,64960,64967,64967,64967,64967,64967,64968,64968,64968,64968,64975,64975,64975,64975,64975,64976,64976,64976,64976,64983,64983,64983,64983,64983,64983,64984,64984,64984,64991,64991,64991,64991,64991,64991,64991,64991,64992,64999,64999,64999,64999,64999,64999,65000,65000,65000,65007,65008,65008,65008,65008,65008,65008,65008,65008,65015,65015,65015,65015,65016,65016,65016,65016,65016,65024,65024,65024,65024,65025,65025,65025,65025,65025,65032,65033,65033,65033,65033,65033,65033,65033,65033,65041,65041,65041,65041,65041,65042,65042,65042,65042,65048,65048,65049,65049,65049,65049,65049,65049,65049,65057,65057,65058,65058,65058,65058,65059,65059,65059,65064,65064,65064,65064,65064,65064,65065,65065,65065,65072,65072,65072,65072,65073,65073,65073,65080,65080,65080,65088,65089,65089,65096,65096,65260,65334,65368,65384,65400" d="M229.01137,168.62967C231.4407,168.62967 232.46336,168.62967 233.04869,168.62967C233.67802,168.62967 234.34737,168.62967 235.79002,168.62967C237.3447,168.62967 238.1552,168.62967 238.98869,168.62967C239.84821,168.62967 240.73669,168.62967 241.6572,168.62967C242.6127,168.62967 243.6062,168.62967 244.6407,168.62967C246.8447,168.62967 248.01837,168.62967 249.23402,168.62967C250.4837,168.62967 251.75937,168.62967 253.05302,168.62967C254.3567,168.62967 255.66237,168.62967 256.96204,168.62967C259.51135,168.62967 260.74753,168.62967 261.96069,168.62967C263.15787,168.62967 264.34604,168.62967 265.5322,168.62967C266.72336,168.62967 267.92654,168.62967 269.14871,168.62967C271.67804,168.62967 272.99869,168.62967 274.36337,168.62967C275.77603,168.62967 277.24069,168.62967 278.76135,168.62967C280.34204,168.62967 281.98669,168.62967 283.69937,168.62967C287.3447,168.62967 289.28238,168.62967 291.28604,168.62967C293.34171,168.62967 295.43536,168.62967 297.55304,168.62967C299.68069,168.62967 301.80435,168.62967 303.91003,168.62967C308.01135,168.62967 309.98236,168.62967 311.89935,168.62967C313.76837,168.62967 315.59537,168.62967 317.38635,168.62967C319.14737,168.62967 320.88437,168.62967 322.60336,168.62967C326.01135,168.62967 327.71054,168.62967 329.40469,168.62967C331.08887,168.62967 332.75803,168.62967 334.4072,168.62967C336.03137,168.62967 337.62552,168.62967 339.18469,168.62967C342.17804,168.62967 343.60419,168.62967 344.98737,168.62967C346.33453,168.62967 347.65271,168.62967 348.94885,168.62967C350.23004,168.62967 351.5032,168.62967 352.77536,168.62967C355.3447,168.62967 356.65387,168.62967 357.97803,168.62967C359.31219,168.62967 360.65137,168.62967 361.99054,168.62967C363.32471,168.62967 364.64886,168.62967 365.95804,168.62967C368.51135,168.62967 369.74652,168.62967 370.9527,168.62967C372.13086,168.62967 373.28204,168.62967 374.4072,168.62967C375.50735,168.62967 376.58353,168.62967 377.63669,168.62967C379.67804,168.62967 380.66837,168.62967 381.64069,168.62967C382.59705,168.62967 383.53937,168.62967 384.4697,168.62967C385.39005,168.62967 386.30237,168.62967 387.20871,168.62967C389.01135,168.62967 389.91104,168.62967 390.80869,168.62967C391.70236,168.62967 392.59003,168.62967 393.4697,168.62967C394.33936,168.62967 395.19702,168.62967 396.04071,168.62967C397.67804,168.62967 398.4682,168.62967 399.23938,168.62967C399.99252,168.62967 400.7287,168.62967 401.44885,168.62967C402.15402,168.62967 402.84518,168.62967 403.52338,168.62967C404.8447,168.62967 405.48987,168.62967 406.12604,168.62967C406.75421,168.62967 407.37537,168.62967 407.99054,168.62967C408.60071,168.62967 409.20688,168.62967 409.81003,168.62967C411.01135,168.62967 411.61121,168.62967 412.21002,168.62967C412.80685,168.62967 413.4007,168.62967 413.99054,168.62967C414.57538,168.62967 415.15421,168.62967 415.72604,168.62967C416.8447,168.62967 417.38986,168.62967 417.92603,168.62967C418.45419,168.62967 418.97537,168.62967 419.49054,168.62967C420.0007,168.62967 420.50687,168.62967 421.01004,168.62967C422.01135,168.62967 422.51135,168.62967 423.01135,168.62967C423.51135,168.62967 424.01135,168.62967 424.51135,168.62967C425.01135,168.62967 425.51135,168.62967 426.01135,168.62967C427.01135,168.62967 427.5112,168.62967 428.01004,168.62967C428.50687,168.62967 429.0007,168.62967 429.49054,168.62967C429.97537,168.62967 430.45419,168.62967 430.92603,168.62967C431.8447,168.62967 432.28986,168.62967 432.72604,168.62967C433.15421,168.62967 433.57538,168.62967 433.99054,168.62967C434.4007,168.62967 434.80685,168.62967 435.21002,168.62967C436.01135,168.62967 436.41119,168.63052 436.81003,168.62834C437.20688,168.62617 437.6008,168.6216 437.99054,168.60884C438.37546,168.59624 438.75479,168.57941 439.12604,168.54434C439.84607,168.47635 440.19092,168.41263 440.52737,168.34433C440.85962,168.27689 441.18665,168.196 441.51135,168.10884C441.83734,168.02133 442.16397,167.92499 442.49536,167.82834C443.17792,167.62927 443.53259,167.52867 443.8967,167.42967C444.26825,167.32864 444.64722,167.22908 445.0322,167.12967C445.42188,167.02905 445.8158,166.92938 446.21271,166.82967C447.0112,166.62907 447.41113,166.52888 447.81137,166.431C448.21112,166.33322 448.61084,166.23795 449.01135,166.1505C449.41086,166.06328 449.81033,165.98074 450.21136,165.91501C451.00946,165.78419 451.4111,165.74802 451.81137,165.71367C452.21112,165.67937 452.61136,165.655 453.01135,165.62967C453.41138,165.60434 453.8118,165.58195 454.21136,165.54567C455.01233,165.47293 455.41202,165.41205 455.81137,165.34433C456.21204,165.27638 456.61188,165.19606 457.01135,165.10884C457.4119,165.02139 457.81165,164.92635 458.21136,164.82834C459.01193,164.63203 459.41101,164.52911 459.81003,164.431C460.2067,164.33345 460.60028,164.23848 460.99054,164.1505C461.37497,164.06383 461.75327,163.98178 462.12604,163.91501C462.84302,163.78659 463.18948,163.74754 463.52603,163.715C463.85385,163.68329 464.17523,163.66325 464.49054,163.6505C464.8006,163.63795 465.10687,163.63292 465.41003,163.631C466.01135,163.62718 466.31119,163.62967 466.61005,163.62967C466.90686,163.62967 467.20068,163.62967 467.49054,163.62967C467.77536,163.62967 468.0542,163.62967 468.32602,163.62967C468.8447,163.62967 469.09003,163.62967 469.32736,163.62967C469.55869,163.62967 469.78604,163.62967 470.01135,163.62967C470.23669,163.62967 470.46402,163.62967 470.69537,163.62967C471.17804,163.62967 471.43286,163.63046 471.69669,163.62834C471.96854,163.62616 472.24799,163.63028 472.82202,163.59367C473.41354,163.55595 474.61212,163.34882 475.21136,163.20433C476.11252,162.98706 477.3103,162.74429 477.90237,162.68234C478.73843,162.59485 479.86615,162.40376 480.59003,162.05501C481.40891,161.66048 482.30685,161.63417 482.97537,162.06567L483.01135,163.019L483.29538,163.631" id="svg_17" stroke-width="3" stroke="#000" fill="none"/>
 </g>
</svg>