<svg width="315" height="420" xmlns="http://www.w3.org/2000/svg" xmlns:svg="http://www.w3.org/2000/svg" xmlns:xlink="http://www.w3.org/1999/xlink">
 <!-- Created with SVG-edit - http://svg-edit.googlecode.com/ -->
 <g display="inline" class="layer">
  <title>Layer 1</title>
  <path t="0,156,179,195,208,224,242,244,261,275,275,292,310,315,330,338,355,372,389,389,406,406,422,427,442,450,458,474,474,493,498,514,524,530,546,562,587,587,594,610,626,634,642,658,658,667,682,682,698,699,714,714,730,730,746,757,774,795,810,818,850,882,893,915,962,1026,1052,1064,1219,1308,1371,1371,1387,1459,1515,1571" d="M0.5,273C2.3,273 3.2,273 4.1,273C5,273 5.9,273 6.8,273C7.7,273 8.6,273 9.5,273C10.3,273 11.2,273 12.1,273C13,273 13.9,273 14.8,273C15.7,273 16.6,273 17.5,273C18.25717,273 19.15267,273 20.016,273C20.97917,273 21.9,273 22.8,273C23.7,273 24.6,273 25.5,273C26.3,273 27.2,273 28.1,273C29,273 29.9,273 30.8,273C31.7,273 32.6,273 33.5,273C34.3,273 35.2,273 36.1,273C37,273 37.9,273 38.8,273C39.60017,273 40.38533,273 41.32533,273C42.33333,273 43.12533,273 43.98533,273C44.9045,273 45.90651,273.07864 46.664,272.96399C47.63541,272.81696 48.26733,272.14816 49.2,272.00449C50.08952,271.86746 51.05197,272.28906 51.88933,271.98932C52.62608,271.72559 53.11067,271.01068 54,271C54.88933,270.98932 55.37376,270.27399 56.11067,270.01068C57.04237,269.6778 58,270 58.9,270C59.8,270 60.7,270 61.6,270C62.5,270 63.3,270 64.2,270L65.1,270L66,270L66.9,270" id="svg_1" stroke-width="3" stroke="#000" fill="none"/>
  <path t="2860,2947,2963,2978,2994,3006,3011,3022,3027,3039,3039,3043,3043,3043,3055,3059,3059,3067,3067,3074,3075,3083,3083,3090,3099,3099,3106,3106,3115,3115,3123,3139,3147,3163,3178,3189,3210,3210,3236,3259,3267,3282,3300,3311,3324,3341,3341,3347,3357,3374,3391,3391,3391,3395,3407,3411,3424,3427,3435,3435,3442,3442,3450,3458,3466,3466,3475,3475,3482,3482,3490,3498,3498,3507,3514,3524,3530,3540,3540,3546,3559,3576,3579,3579,3590,3594,3603,3603,3610,3618,3626,3634,3642,3642,3650,3658,3658,3666,3676,3682,3698,3708,3725,3742,3746,3747,3762,3775,3778,3787,3794,3802,3810,3810,3826,3826,3834,3842,3850,3858,3866,3876,3876,3883,3883,3892,3898,3909,3915,3927,3930,3930,3943,3943,3946,3954,3955,3962,3970,3971,3978,3978,3978,3986,3986,3995,3995,4003,4003,4010,4018,4026,4034,4034,4043,4050,4050,4060,4066,4077,4082,4082,4098,4110,4127,4138,4146,4162,4162,4178,4259,4283,4283,4316" d="M155.5,265C157.3,265 158.2,265 159.10001,265C160,265 160.89999,265 161.8,265C162.7,265 163.60001,265 164.5,265C165.172,265 166.26801,265 167,265C167.73199,265 168.83867,265 169.82133,265C170.5,265 171.47884,265 172.30983,265C173.26801,265 174,265 175.16667,265C175.95833,265 176.8045,265 177.8215,265C178.52083,265 179.5,265 180.28934,265C181.33333,265 182.1955,265 183.10001,265C184,265 184.89999,265 185.8,265C186.7,265 187.60001,265 188.5,265C189.3,265 190.2,265 191.10001,265C192,265 192.89999,265 193.8,265C194.7,265 195.60001,265 196.5,265C197.3,265 197.97079,264.75656 198.66933,264.284C199.42403,263.77344 200.5,264 201.28934,264C202.01466,264 203.08934,264 204,264C204.89999,264 205.8,264 206.7,264C207.60017,264 208.38533,264 209.32533,264C210.01601,264 211.08934,264 212.02083,264C212.8215,264 213.71066,264 214.69983,264C215.47917,264 216.4785,264 217.29866,264C218.136,264 219.15266,264 219.84734,264C220.864,264 221.8,264 222.7,264C223.60001,264 224.5,264 225.3,264C226.2,264 227.10001,264 228.02083,264C228.82133,264 229.67467,264 230.61467,264C231.60001,264 232.5,264 233.3,264C234.2,264 235.10001,264 236,264C236.91066,264 237.82133,264 238.5,264C239.61467,264 240.5,264 241.3,264C242.2,264 243.10001,264 244,264C244.89999,264 245.8,264 246.7,264C247.60001,264 248.5,264 249.3,264C250.2,264 251.10001,264 252,264C252.89999,264 253.8,264 254.7,264C255.60017,264 256.38535,264 257.32535,264C258.01599,264 259.08932,264 260,264C260.89999,264 261.79999,264 262.70001,264C263.60016,264 264.38535,264 265.32535,264C266.01599,264 267.08932,264 268,264C268.89999,264 269.79999,264 270.70132,264C271.66666,264 272.32535,264 273.33334,264C274.1955,264 275.02084,264 275.98401,264C276.84732,264 277.74741,264.0112 278.66666,264C279.52103,263.98956 280.50555,263.84995 281.29999,263.57468C281.90448,263.3652 282.9144,263.16669 283.84283,262.94733C284.77026,262.72821 285.36337,262.18521 286.32535,262.03601C287.0087,261.93002 288.10873,262.1673 289,261.97916C289.84741,261.80029 290.59451,261.08319 291.29999,261.00134C292.25256,260.89081 293.14111,260.61844 293.84732,260.35266C294.72989,260.02051 295.70001,260 296.60001,260C297.5,260 298.30017,260.01801 299.20001,260C300.10056,259.98199 300.81033,259.3819 301.70001,259.08533C302.55765,258.79947 303.50046,259.02707 304.29999,259C305.14429,258.97141 305.66666,258.16666 306.5,258L307.29999,258L308.21466,257.91467" id="svg_2" stroke-width="3" stroke="#000" fill="none"/>
  <path t="5539,5612,5627,5641,5641,5657,5670,5670,5674,5675,5688,5688,5690,5704,5707,5707,5720,5722,5722,5731,5740,5746,5754,5771,5788,5794,5804,5824,5824,5838,5842,5858,5874,5882,5898,5914,5930,5930,5939,5955,5972,5990,5990,5994,6006,6010,6010,6030,6030,6039,6042,6058,6066,6074,6090,6090,6106,6123,6130,6146,6162,6174,6190,6210,6210,6226,6243,6258,6274,6282,6298,6322,6330,6362,6374,6378,6402,6426,6434,6443,6450,6458,6482,6498,6508,6514,6525,6551,6562,6576,6586,6610,6610,6763" d="M0.5,259C2.3,259 3.136,259 3.984,259C4.84733,259 5.87467,259 6.82133,259C7.5,259 8.47867,259 9.384,259C10.32533,259 11.016,259 12.08933,259C12.91067,259 13.82133,259 14.67467,259C15.61467,259 16.5,259 17.3,259C18.3,259 19.2,259 20.1,259C21,259 21.9,259 22.8,259C23.7,259 24.6,259 25.5,259C26.3,259 27.2,259 28.1,259C29,259 29.9,259 30.8,259C31.7,259 32.6,259 33.5,259C34.3,259 35.2,259 36.1,259C36.91067,259 37.82133,259 38.67467,259C39.61467,259 40.6,259 41.5,259C42.25717,259 43.15267,259 44.016,259C44.97917,259 45.9,259 46.8,259C47.7,259 48.6,259 49.5,259C50.3,259 51.2,259 52.1,259C53,259 53.9,259 54.8,259C55.7,259 56.6,259 57.5,259C58.3,259 59.2,259 60.1,259C61,259 61.9,259 62.8,259C63.7,259 64.73833,259.27411 65.37867,258.77866C66.01438,258.28677 66.80005,258.16208 67.44733,257.64734C68.06644,257.155 68.75122,256.56714 69.5,256.16666C70.29144,255.74338 70.84715,255.1674 71.44733,254.64734C72.10094,254.08099 72.89312,253.71004 73.37867,252.90016C73.81619,252.17039 74.40789,251.61493 74.92533,251.02533C75.48503,250.38759 76.14733,249.94733 76.66666,249.16667L77.5,248.83333L78.064,248.38933L78.47916,247.5" id="svg_3" stroke-width="3" stroke="#000" fill="none"/>
  <path t="7852,8115,8139,8163,8187,8195,8208,8219,8239,8258,8274,8347,8355,8373,8387,8410,8418,8426,8435,8520,8563,8651,8704,8704,8728,8742,8747,8819,8867,8907,8932,8946,8947,8962,8978,8994,9034,9291,9299,9323,9355,9363,9419,9475,9499,9513,9515,9567,9618,9632,9632,9632,9651,9651,9667,9683,9695,9699,9715,9729,9731,9739,9747,9755,9765,9780,9787,9787,9796,9813,9819,9819,9830,9846,9851,9851,9869,9883,9899,9914,9923,9923,9938,9949,9955,9964,9987,9998,10003,10019,10043,10051,10067,10082,10091,10107,10115,10132,10149,10155,10167,10171,10187,10187,10199,10203,10219,10232,10235,10235,10249,10251,10259,10267,10283,10300,10300,10320,10320,10323,10338,10339,10354,10363,10370,10380,10386,10396,10415,10418,10434,10492,10547,10579,10611,10642,10651,10690,10704,10738,10751,10787,10827,10842,10843,10858,10912,10923,10923,10923,10934,10938,10938,10947,10954,10965,10965,10982,10994,11002,11019,11019,11026,11034,11042,11042,11050,11066,11083,11090,11100,11106,11106,11123,11138,11150,11162,11178,11194,11202,11210,11226,11226,11242,11251,11274,11290,11301,11306,11318,11378" d="M156.5,251C158.3,251 159.2,251 160.10001,251C161,251 161.88933,251.01067 162.5,251.5C163.11067,251.98933 164,252 164.89999,252C165.8,252 166.7,252 167.60001,252C168.5,252 169.04492,252.45035 169.78534,252.91467C170.5636,253.40273 171.72491,252.74373 172.37866,253.22133C173.07774,253.73204 173.7,254 174.60001,254C175.5,254 176.30042,254.02724 177.2,254C178.14413,253.97141 178.57057,253.23636 179.5,253C180.32362,252.79056 180.72447,252.14137 181.60001,251.99983C182.50354,251.85376 183.19043,251.57596 183.97917,251C184.61945,250.53247 184.92906,249.63023 185.7215,249.12151C186.46765,248.64249 187.26968,249.30554 187.85266,249.94733C188.37891,250.52664 188.24451,251.5704 188.936,251.964C189.77437,252.44121 190.8159,251.83299 191.69867,252.00133C192.45604,252.14575 192.93546,252.98199 193.80901,253C194.83311,253.0211 195.50534,253 196.24933,253C197.35699,253 198.19099,253 199.10001,253C200,253 200.84355,252.93306 201.52533,252.42534C202.16614,251.94812 203.10002,252.0054 204,252C204.88937,251.99466 205.37706,251.283 206.11067,251.01067C206.94493,250.70096 207.80374,250.6469 208.5,250C209.10327,249.4395 209.91254,249.15062 210.8,248.9955C211.72832,248.83324 212.46394,248.5551 213.21466,247.916C213.881,247.34872 214.5004,247.02536 215.3,247C216.20135,246.97141 216.92256,246.31445 217.8,246.05716C218.66545,245.80339 219.5569,245.7103 220.2,245.35266C221.05312,244.87823 221.87534,244.53412 222.59984,244.12134C223.39162,243.67023 223.90001,243.28252 224.7955,242.9955C225.55635,242.75163 226.02068,242.01262 226.89999,242C227.79543,241.98714 228.37392,241.27441 229.11067,241.01067C229.94803,240.71091 230.89999,241 231.8,241C232.7,241 233.60439,241.08868 234.5,241C235.3457,240.91626 235.83156,240.18658 236.60001,239.77867C237.24995,239.43365 238.09996,239.00534 239,239C239.89998,238.99467 240.85664,239.13655 241.7,238.716C242.36165,238.38608 243.19998,238.00226 244.10001,238C245,237.99776 245.89999,238 246.8045,238C247.66667,238 248.55267,238.15343 249.4785,237.7785C250.14983,237.50665 250.69742,236.53424 251.5,236.16667C252.24272,235.82652 253.20006,236.01067 254.10001,236C254.97935,235.98958 255.49429,235.1819 256.30133,235.00133C257.17831,234.8051 258.17197,235.32811 258.97916,234.97917C259.69315,234.67053 260.2045,234.00226 261.10001,234C262,233.99774 262.89999,234 263.79999,234C264.70001,234 265.6044,233.91132 266.5,234C267.3457,234.08374 267.78235,234.95729 268.70001,235C269.59903,235.04184 270.5,235 271.29999,235C272.20001,235 273.04166,235 274.04266,235C274.75067,235 275.50061,235.11461 276.68567,234.9955C277.51184,234.91246 278.15793,234.24948 278.79999,233.7045C279.55469,233.0639 280.53644,233.16815 281.29999,232.91467C282.07217,232.65833 282.80853,232.1356 283.70001,231.99867C284.61581,231.858 285.14609,231.23566 285.89999,230.61067C286.55743,230.06563 287.53824,230.17355 288.29999,229.91467C289.18793,229.61292 289.89948,229.01866 290.79999,229C291.69849,228.98137 292.28558,228.55804 292.78534,227.80133C293.18747,227.19241 294.22687,227.18597 295.10001,226.964C295.96228,226.7448 296.69699,226.04271 297.60001,226C298.49899,225.95747 299.11227,225.64326 299.78534,225.084C300.4545,224.528 301.21298,224.38217 302.10001,223.97467C302.91275,223.60129 303.69699,223.04271 304.60001,223C305.49899,222.95747 306.33334,222.83333 306.7215,222.12151L307.60001,222" id="svg_4" stroke-width="3" stroke="#000" fill="none"/>
  <path t="16691,17051,17051,17083,17130,17219,17238,17243,17283,17291,17305,17324,17355,17374,17389,17395,17419,17443,17457,17475,17475,17492,17499,17509,17515,17530,17546,17562,17563,17595,17659,17676,17722,17762,17787,17795,17815,17834,17835,17859,17890,17930,17955,17978,18018,18034,18066,18067,18082,18114,18218,18266,18331,18594,18615,18619,18635,18648,18648,18650,18661,18661,18678,18682,18682,18698,18711,18714,18730,18730,18738,18754,18762,18779,18786,18802,18834,18850,18866,18914,18931,18938,18954,18970,18980,19050,19052,19074,19114,19123" d="M80.5,238C79.5,239 79.5,239.8 79.5,240.7C79.5,241.60001 79.78909,242.55197 79.48933,243.38933C79.22559,244.12608 78.89854,244.71419 78.464,245.564C78.10768,246.26082 77.50067,246.80133 77.5,247.7C77.49933,248.60001 77.40363,249.40627 76.85267,250.05267C76.33751,250.65707 75.56089,251.21523 75.5,252.10001C75.43821,252.99788 75.5,253.8 75.5,254.7C75.5,255.60001 75.41051,256.41736 74.92533,257.02533C74.42696,257.64981 74.8982,258.70258 74.464,259.564C74.11172,260.26288 73.50067,260.80133 73.5,261.70001C73.49933,262.60001 73.5,263.5 73.5,264.39999C73.5,265.29999 73.5,266.20001 73.5,267.10001C73.5,268 73.5,268.79999 73.5,269.70001C73.5,270.60001 73.5,271.5 73.5,272.39999C73.5,273.29999 73.5,274.20001 73.5,275.10001C73.5,276 73.5,276.79999 73.5,277.70001C73.5,278.60001 73.5,279.5 73.5,280.39999C73.5,281.29999 73.06866,282.70197 73.85267,282.93832C74.54772,283.14786 74.84975,281.69315 75.5,281C75.97382,280.49493 76.29536,279.62717 76.78533,278.79999C77.18864,278.11914 77.9,277.60001 78.6,276.89999C79.2,276.29999 79.74197,275.61517 80.59983,275.12134C81.33732,274.69681 81.61462,273.78165 82.2045,273.35718C82.9949,272.78842 83.93925,272.59616 84.416,271.80133C84.83041,271.11044 85.80281,271.16553 86.44733,270.64734C87.0587,270.15579 87.61188,269.5206 88.14733,268.94733C88.78735,268.26208 89.10902,267.4928 89.85717,267.05716C90.58612,266.63269 91.43644,266.63788 92,266C92.51551,265.4165 93.216,264.91599 93.72134,264.12134L94.416,263.716L94.92533,263.02533" id="svg_5" stroke-width="3" stroke="#000" fill="none"/>
  <path t="20227,20426,20440,20451,20466,20482,20492,20509,20527,20532,20532,20546,20562,20578,20650,20730,20762,20787,20803,20890,20899,20914,20939,20962,20978,21019,21029,21046,21066,21075,21082,21098,21108,21130,21142,21146,21178,21210,21218,21250,21261,21282,21339,21643,21651,21667,21691,21699,21730,21749,21755,21764,21778,21795,21802,21818,21834,21850,21866,21874,21874,21890,21906,21914,21930,21946,21963,21970,21986,21986,22002,22018,22030,22047,22058,22066,22114,22330,22353,22356,22370,22389,22402,22410,22426,22426,22442,22450,22467,22483,22500,22506,22522,22538,22538,22550,22568,22578,22618,22626,22674,22706,22730,22730,22770,22858,22890" d="M123.5,243C125.3,243 126.2,243 127.1,243C128,243 128.89999,243 129.8,243C130.7,243 131.60001,243 132.5,243C133.3,243 134.2,243 135.10001,243C136,243 136.89999,243 137.8,243C138.7,243 139.72664,242.74138 140.37866,243.22133C141.07692,243.73531 141.30994,244.66348 142.02083,244.97917C142.89752,245.36848 143.63835,245.44936 144.216,246.084C144.8046,246.73065 145.33751,247.34293 145.85266,247.94733C146.40364,248.59373 146.24919,249.43715 146.5045,250.2955C146.73134,251.05815 148.06641,250.7468 148.464,251.436C148.94095,252.26276 149.22559,252.87392 149.48933,253.61067C149.78909,254.44803 149.51067,255.38933 150,256C150.48933,256.61066 150.61861,257.47562 151.14734,258.05267C151.78078,258.74399 151.74225,259.04288 151.5045,258.2955C151.21945,257.39941 150.93814,256.79358 150.27867,256.12134C149.67239,255.50331 149.6498,254.78741 149.49983,253.90016C149.35583,253.04814 148.54253,252.65587 148,252C147.50122,251.39702 147.5529,250.46526 147.14734,249.7C146.69904,248.85411 146.5,248 146.5,247.2C146.5,246.3 146.5,245.39999 146.5,244.5C146.5,243.60001 146.5,242.7 146.5,241.8C146.5,240.89999 146.5,240 146.5,239.2C146.5,238.3 146.5,237.39999 146.5,236.5C146.5,235.60001 146.5,234.7 146.5,233.8C146.5,232.89999 146.93425,231.76759 146.33333,231.16667C145.73241,230.56575 144.95508,230.54965 144.21466,230.08533C143.4364,229.59727 142.39999,230 141.5,230C140.7,230 139.8,230 138.89999,230C138,230 137.10001,230 136.2,230C135.3,230 134.39999,230 133.5,230C132.7,230 131.8,230 130.89999,230C130,230 129.10001,230 128.2,230C127.3,230 126.4,230 125.5,230C124.7,230 123.8,230 122.9,230L122,230" id="svg_6" stroke-width="3" stroke="#000" fill="none"/>
  <path t="24947,25034,25067,25099,25119,25123,25139,25154,25169,25186,25186,25203,25226,25238,25253,25258,25270,25275,25290,25303,25320,25322,25338,25354,25370,25383,25394,25402,25418,25426,25442,25458,25467,25474,25498,25506,25538,25594,25603,25642,26370,26378,26635,26642,26666,26690,26699,26730,26754,26779,26779,26802,26850,26866,26882,26922,26938,26962,26986,26986,27018,27034,27066,27115,27115,27138,27146,27162,27170,27186,27202,27212,27234,27234,27250,27266,27279,27282,27296,27298,27312,27312,27314,27314,27322,27330,27338,27346,27354,27354,27362,27370,27379,27386,27396,27402,27413,27418,27434,27434,27450,27463,27466,27466,27481,27491,27506,27514,27539,27555,27564,27580,27586,27618,27634,27658,27658,27674,27690,27698,27714,27732,27738,27752,27767,27767,27770,27770,27786,27802,27802,27813,27818,27830,27830,27834,27846,27858,27874,27882,27898,27914,27922,27922,27946,27978,28026,28034,28082" d="M75.5,279C75.5,280.79999 75.5,281.70001 75.5,282.60001C75.5,283.5 75.5,284.39999 75.5,285.29999C75.5,286.20001 75.5,287.10001 75.5,288C75.5,288.79999 75.5,289.70001 75.5,290.60001C75.5,291.5 75.25713,292.43481 75.5045,293.2955C75.7252,294.06339 76.48737,294.52069 76.5,295.39999C76.51286,296.29541 76.9761,296.74188 77.7955,297.00449C78.55322,297.24731 78.49933,298.39999 78.5,299.29999C78.50067,300.19867 79.06679,300.67767 79.464,301.436C79.86325,302.19821 80.04452,302.79053 80.7955,303.35718C81.46455,303.862 81.95033,304.54492 82.41467,305.28534C82.90274,306.0636 82.24374,307.22491 82.72134,307.87866C83.23205,308.57773 83.34067,309.29788 83.85267,309.94733C84.33721,310.56195 84.51067,311.38934 85,312C85.48933,312.61066 85.5,313.5 85.5,314.39999C85.5,315.29999 85.5,316.20001 85.5,317.10001C85.5,318 85.5,318.79999 85.5,319.70001C85.5,320.60001 85.5,321.5 85.5,322.39999C85.5,323.29999 85.5,324.20001 85.5,325.10001C85.5,326 85.47275,326.80042 85.5,327.70001C85.52859,328.64413 86.35638,329.05182 86.5,330C86.6198,330.79095 86.13685,331.79691 86.536,332.564C86.93115,333.32339 87.47212,333.80176 87.5,334.70001C87.5293,335.6441 88.35638,336.05182 88.5,337C88.6198,337.79095 88.5,338.70001 88.5,339.60001C88.5,340.5 88.5,341.39999 88.5,342.29999C88.5,343.20001 88.41171,344.11487 88.58533,344.88535C88.76396,345.67804 89.32195,346.49197 89.464,347.36401C89.61459,348.28848 89.5,349.20001 89.5,350.10001C89.5,351 89.62429,351.77744 90.07467,352.60001C90.50194,353.3804 90.49992,354.29999 90.5,355.20001C90.50008,356.09982 91.00782,356.60864 91.44283,357.35718C91.8673,358.08755 91.49549,359.10016 91.5,359.88535C91.50533,360.81473 91.93629,361.60239 92.37867,362.44266C92.71488,363.0813 93.18429,363.78809 93.48933,364.61066C93.79858,365.44458 93.5,366.39999 93.5,367.29999C93.5,368.20001 93.41132,369.1044 93.5,370C93.58374,370.8457 94.43911,371.21524 94.5,372.10001C94.56179,372.99786 94.5,373.79999 94.5,374.70001C94.5,375.60001 94.5,376.5 94.5,377.39999C94.5,378.29999 94.5,379.20001 94.5,380.10001C94.5,381 94.5,381.75717 94.5,382.65268C94.5,383.51599 94.5,384.5 94.5,385.48401C94.5,386.17465 94.5,387.24283 94.5,388.10001C94.5,389 94.5,389.79999 94.5,390.70001C94.5,391.60001 94.5,392.5 94.5,393.39999C94.5,394.29999 94.5,395.20001 94.5,396.10001C94.5,397 94.5,397.79999 94.5,398.70001C94.5,399.60001 94.5,400.5 94.5,401.39999L94.5,402.29999" id="svg_7" stroke-width="3" stroke="#000" fill="none"/>
  <path t="31403,31538,31570,31578,31602,31626,31642,31666,31666,31714,31754,31762,31778,31794,31805,31822,31839,31839,31856,31858,31874,31890,31906,31906,31914,31914,31923,31923,31930,31939,31946,31946,31956,31962,31962,31973,31979,31994,31994,32006,32023,32040,32050,32059,32082,32082,32090,32107,32114,32138,32157,32172,32178,32193,32193,32194,32210,32224,32224,32226,32234,32250,32250,32258,32258,32266,32266,32274,32274,32282,32282,32292,32298,32308,32308,32314,32330,32330,32342,32342,32346,32358,32362,32381,32392,32393,32409,32425,32434,32490,32508,32524,32570,32578,32610,32658,32658,32700,32723,32746,32762,32778,32818" d="M155.5,331C155.5,333.58932 155.5,334.5 155.5,335.39999C155.5,336.29999 155.5,337.20001 155.5,338.10001C155.5,339 155.5,339.79999 155.5,340.70001C155.5,341.60001 155.5,342.5 155.5,343.39999C155.5,344.29999 155.5,345.20001 155.5,346.10001C155.5,347 155.5,347.79999 155.5,348.70001C155.5,349.60001 155.5,350.5 155.5,351.41068C155.5,352.32132 155.55058,353.17609 155.49867,354.116C155.45607,354.88742 155.08977,355.63065 154.784,356.51599C154.45804,357.45975 154.63657,358.35663 154.216,359.20001C153.88608,359.86163 153.50226,360.75717 153.5,361.65268C153.49826,362.34732 153.60558,363.41144 153.216,364.20001C152.78616,365.07007 152.50067,365.79999 152.5,366.70001C152.49934,367.60001 152.50224,368.5 152.5,369.39999C152.49774,370.29999 152.39699,371.23865 151.69867,371.71466C150.94936,372.22546 150.50067,372.80133 150.5,373.70001C150.49933,374.60001 150.64209,375.513 150.48933,376.39999C150.34586,377.23315 149.73755,378.02631 149.44733,378.70001C149.0847,379.54178 148.6691,380.3526 148.216,381.20001C147.8674,381.85199 147.60144,382.70877 147.47917,383.52084C147.33047,384.50854 146.93335,385.20316 146.39999,385.97867C145.93678,386.65219 145.25616,387.46194 144.936,388.17465C144.52419,389.0914 144.43974,389.89273 144.14734,390.65268C143.81099,391.52686 143.62486,392.41068 143.14734,393.29999C142.74564,394.04813 142.6017,394.81055 142.464,395.63599C142.31856,396.50787 141.82359,397.36615 141.30133,398.11465C140.81104,398.81732 140.90317,399.70459 140.464,400.564C140.10786,401.26093 139.51938,401.80154 139.5,402.70001C139.48135,403.56454 138.68085,404.05151 138.50133,404.80133C138.28772,405.69354 137.68222,406.23206 137.49983,407.09982C137.3333,407.89215 136.52859,408.35571 136.5,409.20001C136.46953,410.09949 136.52536,411.0004 136.5,411.79999C136.47141,412.70139 136,413.5 135.55716,414.29999L135.5,415.20001L135.5,416.10001L135.5,417" id="svg_8" stroke-width="3" stroke="#000" fill="none"/>
  <path t="33587,33634,33650,33658,33674,33698,33722,33738,33762,33784,33784,33786,33818,33842,33882,33906,33931,33951,33954,33954,33978,34002,34026,34037,34052,34070,34074,34098,34098,34122,34138,34152,34202,34234,34371,34402,34421,34421,34442,34456,34472,34474,34488,34488,34490,34502,34506,34506,34518,34530,34530,34538,34546,34546,34556,34556,34562,34569,34570,34578,34586,34594,34602,34602,34610,34619,34619,34626,34626,34636,34653,34658,34669,34674,34686,34698,34698,34706,34714,34721,34737,34754,34762,34770,34787" d="M156.5,351C156.5,352.70001 156.5,353.70001 156.5,354.60001C156.5,355.5 156.5,356.39999 156.5,357.29999C156.5,358.20001 156.5,359.10001 156.5,360C156.5,360.79999 156.5,361.70001 156.5,362.60001C156.5,363.5 156.5,364.39999 156.5,365.29999C156.5,366.20001 156.5,367.10001 156.5,368C156.5,368.79999 156.5,369.70001 156.5,370.60001C156.5,371.5 156.5,372.39999 156.5,373.29999C156.5,374.20001 156.5,375.10001 156.5,376C156.5,376.79999 156.5,377.70001 156.5,378.60001C156.5,379.5 156.5,380.39999 156.5,381.29999C156.5,382.20001 156.5,383.10001 156.5,384C156.5,384.79999 156.506,385.70004 156.5,386.60001C156.49466,387.40005 155.99951,388.21881 155.66667,389C155.34648,389.75153 155.53712,390.76266 154.97917,391.5C154.39063,392.27777 153.8,392.70001 153.10001,393.39999C152.39999,394.10001 151.89999,394.60001 151.2,395.29999C150.49998,396 149.96065,396.46289 149.30133,397.20132C148.82745,397.73209 148.92276,398.80759 148.33333,399.66666C147.90401,400.29239 146.76093,400.54416 146.536,401.39999C146.30699,402.2713 146.20345,403.05249 145.784,403.79999C145.35759,404.55991 144.78535,405.29239 144.14816,405.70001C143.38078,406.19092 142.85284,406.82779 142.44733,407.70001C142.06091,408.53113 141.61731,409.34595 141.07466,409.97467C140.55666,410.57486 140.1469,411.30374 139.5,412C138.9395,412.60327 138.5146,413.38028 138,414C137.50009,414.60202 137.47917,415.5 137.07466,416.39999L136.62134,417.09982L136.216,417.91599L135.55267,418.35266" id="svg_9" stroke-width="3" stroke="#000" fill="none"/>
  <path t="44491,44682,44706,44738,44750,44770,44786,44802,44826,44962,44986,45018,45033,45034,45050,45074,45085,45090,45106,45122,45138,45150,45150,45167,45184,45186,45202,45226" d="M92.5,401C92.5,402.70001 92.5,403.70001 92.5,404.60001C92.5,405.5 92.48933,406.38934 92,407C91.51067,407.61066 91.5,408.5 91.5,409.39999C91.5,410.29999 91.64979,411.21259 91.49983,412.09982C91.35583,412.95184 90.52859,413.35587 90.5,414.29999C90.47275,415.19958 90.75626,416.22491 90.27866,416.87866C89.76795,417.57773 89.66369,418.25729 89.27866,419.10001C88.97286,419.76932 88.51067,420.60001 88.5,421.5L88.5,422.39999L88.5,423.29999L88.5,424.20001" id="svg_10" stroke-width="3" stroke="#000" fill="none"/>
  <path t="48364,48609,48625,48682,48701,48706,48730,48754,48769,48778,48778,48793,48818,48841,48859,48870,48889,48900,48900,48905,48921,48921,48929,48929,48937,48937,48953,48969,48969,48985,48993,49009,49018,49034,49051,49057,49067,49085,49102,49129,49137,49145,49161,49185,49193,49209,49225,49241,49266,49282,49305,49313,49337,49361,49370,49387,49425,49450,49497,49556,49593,49650,49650,49681,49692,49706,49713,49722,49739,49756,49761,49777,49793,49809,49817,49833,49833,49841,49849,49865,49881,49890,49890,49897,49913,49924,49942,49961,49977,49993,50009,50017,50041,50049,50073,50081,50097,50108,50125,50129,50145,50158,50161,50177,50193,50193,50217,50227,50242,50259,50265,50289,50297,50309,50313,50325,50345,50353,50369,50377,50385,50409,50417,50434,50458,50465,50477,50477,50481,50505,50513,50553,50577,50585,50826,50857,50869,50884,50890,50914,50937,50951,50968,50985,51001,51018,51031,51073,51097,51117,51169,51193,51193,51225,51249,51273,51297,51315,51345,51365,51385,51393,51401,51417,51425,51441,51465,51473,51497,51497,51516,51521,51537,51537,51554,51569,51577,51577,51593,51601,51609,51617,51633,51641,51665,51673,51674,51683,51689,51699,51721,51745,51753,51761,51769,51793,51849,51857,51867,51889,51901,51905,51918,51937,51953,51961,51977,51993,51993,52002,52019,52041,52041,52056,52057,52068,52073,52088,52089,52161,52177,52188" d="M93.5,178C95.3,178 96.2,178 97.1,178C98,178 98.9,178 99.8,178C100.7,178 101.6,178 102.5,178C103.3,178 104.2,178 105.1,178C106,178 106.93398,178.23988 107.7955,177.9955C108.5729,177.77498 109.06631,177.04669 109.85183,177.0045C110.8732,176.94963 111.8215,177 112.52084,177C113.5,177 114.29055,177.05043 115.33334,177C116.21643,176.95729 116.65993,176.12854 117.5,176C118.29529,175.87831 119.03774,175.25531 119.9,175.036C120.76876,174.81503 121.30994,174.33652 122.02084,174.02083C122.89752,173.63153 123.44119,173.24059 124.2045,173.0045C125.06089,172.73962 125.81033,172.38187 126.7,172.08533C127.55765,171.79945 128.63789,172.32178 129.33333,171.83333C130.04851,171.33101 130.72035,171.22859 131.416,170.716C132.10687,170.20694 132.37717,169.28333 133.11067,169.01067C133.92528,168.70786 134.49429,168.1819 135.30133,168.00133C136.17831,167.8051 137.24565,168.05093 137.4955,167.2955C137.79077,166.40269 138.20468,166.01897 139.10001,166C140.06445,165.97957 140.81122,165.61212 141.33333,164.83333C141.80656,164.12744 141.47276,163.19958 141.5,162.3C141.52859,161.35587 142.36418,161.47008 143.14284,160.94284C143.82587,160.48036 143.5,159.3 143.5,158.39999C143.5,157.5 143.5,156.60001 143.5,155.7C143.5,154.8 143.5,153.89999 143.5,153C143.5,152.2 143.48959,151.29994 143.5,150.39999C143.51042,149.49982 144.02718,148.79054 144.37849,147.89999C144.63913,147.2393 144.5,146.3 144.5,145.39999C144.5,144.5 144.5,143.60001 144.5,142.7C144.5,141.8 144.61086,140.89314 144.5,140C144.3884,139.10091 143.39561,139.08868 142.5,139C141.6543,138.91626 141.19446,138.23032 140.55267,137.64734C139.97336,137.12109 139.06285,137.25081 138.2045,136.9955C137.44185,136.76866 137.75362,135.43288 137.064,135.036C136.31433,134.60455 135.34767,134.64058 134.7,134.284C133.83633,133.8085 133.58253,133.05124 132.88933,132.436C132.23093,131.85165 131.55881,131.42267 130.88933,130.97467C130.1539,130.48254 129.20323,130.21999 128.55267,129.64734C127.96383,129.12901 127.37099,128.53616 126.85267,127.94733C126.28001,127.29677 125.92768,126.60178 125.11066,126.02533C124.45247,125.56094 123.90139,124.99091 123.44733,124.2955C122.95248,123.53761 122.12399,123.21551 121.40017,122.7785C120.67668,122.34171 120.30024,121.52791 119.66666,120.83334C119.12025,120.23432 118.39316,120.11076 117.5,120C116.60077,119.88848 116.15139,119.06351 116.209,119C116.80764,118.34007 117.96029,119.13586 118.55267,119.64733C119.20868,120.21375 120.06808,120.39007 120.88934,120.97467C121.54422,121.44084 121.25713,122.43484 121.5045,123.2955C121.7252,124.06339 122.48958,124.52065 122.5,125.4C122.51067,126.29994 122.5,127.2 122.5,128.10001C122.5,129 122.5,129.8 122.5,130.7C122.5,131.60001 122.5,132.5 122.5,133.39999C122.5,134.3 122.5,135.2 122.5,136.10001C122.5,137 122.01737,137.60753 121.58533,138.28534C121.09222,139.05898 120.88979,139.73788 120.536,140.436C120.14511,141.20737 120.68889,142.2693 120.2785,143.10001C119.93735,143.79057 119.00042,144.33466 118.62133,145.10001C118.20191,145.94678 117.85455,146.70082 117.5,147.5C117.14471,148.30084 116.4071,148.92461 115.936,149.60001C115.4243,150.33359 115.67329,151.44911 115.064,151.97467C114.35163,152.58914 113.91445,153.14934 113.33334,153.83333C112.76673,154.50024 112.38366,155.21597 111.7955,155.64284C110.96681,156.24426 110.9112,156.82741 110.44283,157.64284C109.97644,158.45482 109.18884,158.76357 108.55267,159.35266C107.97708,159.88565 107.38813,160.47939 106.85267,161.05267C106.21267,161.7379 105.82967,162.54666 105.14283,162.94284C104.32826,163.41269 103.51551,163.41652 103,164C102.43644,164.63788 102.07084,165.36963 101.2785,165.87849C100.5324,166.35767 99.75111,166.28395 99.2785,167.10001C98.89249,167.76654 98.16534,168.49957 97.4,168.87866C96.55322,169.2981 95.79076,169.39911 95.02084,170C94.39354,170.48958 94.61327,171.69934 93.88934,171.98933C93.0033,172.34425 92.44733,172.64734 91.66666,173.16667L91.5,174L91.33334,174.83333" id="svg_11" stroke-width="3" stroke="#000" fill="none"/>
  <path t="53443,53506,53518,53530,53538,53538,53549,53567,53567,53579,53596,53596,53611,53611,53628,53649,53661,53705,53737,53737,53745,53777,53785,53809,53829,53833,53865,53881,53889,53905,53921,53945,53945,53953,53969,53993,54001,54017,54041,54057,54065,54065,54089,54113,54121,54131,54150,54153,54169,54181,54181,54198,54209,54217,54233,54249,54249,54265,54265,54285,54289,54289,54298,54298,54305,54321,54333,54349,54366,54369,54385,54393,54409,54425,54433" d="M140.5,164C140.5,165.8 140.5,166.7 140.5,167.52083C140.5,168.48399 140.5,169.17467 140.5,170.24283C140.5,171.10017 140.5,171.88533 140.5,172.82533C140.5,173.83333 140.5,174.62534 140.5,175.48399C140.5,176.34734 140.5,177.364 140.5,178.3C140.5,179.2 140.5,180.10001 140.5,181C140.5,181.8 140.8549,182.79263 140.464,183.564C140.11021,184.26212 139.50067,184.80133 139.5,185.7C139.49933,186.60001 139.5,187.5 139.5,188.39999C139.5,189.3 139.5,190.2 139.5,191.10001C139.5,192 139.5,192.8 139.5,193.7C139.5,194.60001 139.5,195.5 139.5,196.39999C139.5,197.3 139.5,198.2 139.5,199.10001C139.5,200 139.5,200.8 139.5,201.7C139.5,202.60001 139.21091,203.55197 139.51067,204.38933C139.77441,205.12608 140.81122,205.38788 141.33333,206.16667C141.80656,206.87256 141.62428,207.77744 142.07466,208.60001C142.50195,209.38039 142.40912,210.30473 142.50133,211.2C142.58504,212.0126 143.25809,212.72795 143.44284,213.65266C143.57933,214.33583 143.48567,215.37477 143.50017,216.32133C143.51056,217.00023 143.78548,217.94408 144.14734,218.6955C144.56691,219.56674 144.5,220.5 144.5,221.39999C144.5,222.3 144.31944,223.30066 144.784,223.916C145.29979,224.59921 145.5,225.3 145.5,226.2L145.50017,227.09984L145.784,227.916" id="svg_12" stroke-width="3" stroke="#000" fill="none"/>
  <path t="56562,56649,56666,56673,56682,56690,56690,56690,56701,56706,56716,56721,56729,56737,56737,56747,56747,56753,56762,56769,56769,56785,56785,56801,56801,56813,56813,56830,56830,56841,56849,56865,56889,56898,56921,56969,56969,57001,57010,57030,57042,57057,57057,57073,57085,57089,57105,57118,57134,57151,57168,57181,57193,57209,57209,57217,57233,57241,57257,57265,57282,57299,57317,57321,57337,57353,57361,57361,57377,57393,57409,57417,57434,57450,57457,57473,57473,57497,57516,57521,57561,57585,57594,57634,57658,57659,57673,57685,57702,57713,57745,57754,57777" d="M71.5,117C71.5,118.8 71.64678,119.71748 71.47916,120.5C71.29653,121.35263 70.46875,122.14916 70.11066,122.82533C69.75336,123.50002 69.51042,124.47899 69.5,125.4C69.48982,126.29994 69.5,127.2 69.5,128.10001C69.5,129 69.47948,129.77011 69.14733,130.65266C68.88155,131.35889 68.61723,132.37161 68.49866,133.2C68.36737,134.11732 67.7396,134.72763 67.55717,135.65717C67.41288,136.39232 67.57852,137.40649 67.464,138.164C67.31693,139.13672 66.6852,139.86339 66.536,140.82533C66.43001,141.50871 66.5,142.58934 66.5,143.5C66.5,144.39999 66.5,145.3 66.5,146.2C66.5,147.10001 66.66815,148.03644 66.41467,148.8C66.15833,149.57216 65.52868,150.29865 65.5,151.2C65.47137,152.09955 65.25787,152.95378 64.85267,153.7C64.43938,154.46112 64.43305,155.34355 63.92533,156.02533C63.44812,156.66614 63.5,157.60001 63.5,158.5C63.5,159.39999 63.5,160.3 63.5,161.2C63.5,162.10001 63.5,163 63.5,163.8C63.5,164.7 63.29978,165.40079 62.784,166.084C62.31945,166.69934 62.5,167.7 62.5,168.60001C62.5,169.5 62.5,170.39999 62.5,171.3C62.5,172.2 62.5,173.10001 62.5,174C62.5,174.8 62.5,175.7 62.5,176.60001C62.5,177.5 62.5,178.39999 62.5,179.3C62.5,180.2 62.5,181.10001 62.5,182C62.5,182.8 62.5,183.7 62.5,184.60001C62.5,185.5 62.5,186.39999 62.5,187.3C62.5,188.2 62.5,189.10001 62.5,190C62.5,190.8 62.5,191.7 62.5,192.60001C62.5,193.5 62.5,194.39999 62.5,195.3L62.5,196.2L62.5,197.10001" id="svg_13" stroke-width="3" stroke="#000" fill="none"/>
  <path t="58466,58561,58575,58577,58601,58617,58625,58633,58665,58706,58961,58961,58985,59009,59030,59049,59064,59081,59098,59114,59129,59129,59137,59161,59169,59185,59194,59201,59201,59212,59228,59244,59244,59262,59262,59265,59277,59281,59297,59305,59314,59321,59329,59337,59353,59361,59369,59393,59401,59417,59427,59445,59449,59462,59473,59481,59489,59497,59505,59521,59531,59531,59537,59549,59553,59553,59565,59578,59579,59597,59597,59597,59612,59612,59612,59617,59617,59629,59629,59633,59633,59646,59646,59646,59649,59649,59657,59657,59665,59665,59673,59673,59681,59681,59689,59689,59697,59697,59705,59705,59713,59713,59721,59721,59730,59730,59730,59737,59737,59737,59746,59746,59753,59753,59763,59763,59769,59769,59780,59780,59785,59785,59801,59801,59813,59813,59817,59817,59830,59833,59841,59841,59849,59865,59897,59914,59937,60017,60129,60161,60186,60186,60217,60242,60253,60281,60305,60319,60337,60385,60385,60401,60409,60425,60441,60452,60469,60484,60508,60508,60519,60529,60545,60555,60561,60577,60593,60609,60619,60636,60636,60641,60657,60669,60686,60703,60705,60713,60721,60729,60745,60761,60777,60786,60803,60809,60820,60841,60865,60897,60953,60962,60975,60977" d="M69.5,195C68.27866,195.87866 67.7107,196.38222 67.49866,197.19867C67.29079,197.99911 66.79214,198.57472 66.48933,199.38933C66.21667,200.12283 65.26121,200.44922 64.784,201.084C64.20772,201.85056 64.48126,202.8002 64.5,203.7C64.51801,204.56456 65.04902,205.21437 65.66666,205.83333C66.284,206.45197 66.31489,207.30412 66.784,207.916C67.31521,208.60889 67.97047,209.06287 68.64933,209.60001C69.3605,210.1627 69.41132,211.10439 69.5,212C69.58374,212.84569 70.26128,213.36165 70.7215,214.09984C71.1686,214.817 72.21372,215.01617 72.55267,215.76167C72.94238,216.61884 73.17639,217.36618 73.69867,218.11467C74.18896,218.81732 74.75211,219.54405 75.216,220.16933C75.73907,220.87436 75.87314,221.86726 76.47467,222.42534C77.09671,223.00244 77.13674,223.80179 77.536,224.564C77.93321,225.3223 78.78523,225.67841 79.416,226.284C79.98887,226.834 80.59237,227.4073 81.14733,228.05267C81.64779,228.63466 82.03761,229.45247 82.7955,229.94733C83.49091,230.40138 84.25869,230.94142 84.4955,231.7045C84.75053,232.52629 85.30614,232.62851 86.064,233.036C86.79333,233.42813 87.01557,234.50514 87.7,235.2C88.19621,235.70377 89.0055,236.33463 89.416,237.2C89.77531,237.95746 90.25132,238.55695 91,239.02083C91.75665,239.48964 92.09751,240.22261 92.60017,241.2C92.90914,241.8008 93.34586,242.63124 93.98534,243.39867C94.49091,244.0054 95.08999,244.52998 95.89733,245.116C96.61813,245.63921 97.20556,246.34093 97.55067,247.17467C97.89279,248.00121 98.59349,248.42018 99.33334,249.16667C99.92875,249.76744 100.16251,250.37041 100.8,251.24733C101.27602,251.90213 101.77548,252.66737 102.2,253.34734C102.77217,254.26382 103.39264,254.7878 104.14817,255.3045C104.79658,255.74794 105.31016,256.68417 105.60533,257.34732C105.97044,258.1676 106.76458,258.54425 107.4785,259.32132C108.04909,259.94238 108.5,260.83334 109,261.5C109.5,262.16666 109.85063,262.85641 110.5,263.83334C110.8726,264.39389 111.49838,265.16766 111.91067,265.836C112.38348,266.60248 112.97245,267.40915 113.5,267.97916C114.00514,268.52493 114.7118,269.28638 115.384,269.79868C116.11287,270.35416 116.93045,270.67706 117.39467,271.65268C117.70655,272.30814 118.21918,273.23587 118.68533,273.62534C119.49504,274.30182 120.01566,274.97733 120.37883,275.97867C120.65422,276.73801 121.0556,277.49637 121.52084,278C122.31059,278.85492 122.864,279.36401 123.6,280.10001C124.1,280.60001 124.77858,281.32608 125.59983,281.87885C126.31568,282.36069 126.30112,283.10748 126.85267,283.89017C127.32936,284.56662 127.91971,285.25839 128.33333,286C128.80119,286.83887 129.45729,287.28235 129.5,288.20001C129.54184,289.09903 129.5,290 129.5,290.79999C129.5,291.70001 129.5,292.60001 129.5,293.5C129.5,294.39999 129.5,295.29999 129.5,296.20001C129.5,297.10001 129.5,298 129.5,298.79999C129.5,299.70001 129.5,300.60001 129.5,301.5C129.5,302.39999 129.5,303.29999 129.5,304.20001C129.5,305.10001 129.5,306 129.5,306.79999C129.5,307.70001 129.4946,308.60004 129.5,309.5C129.50534,310.3894 130.22559,310.8739 130.48933,311.61066C130.78909,312.44803 130.36729,313.41049 130.5045,314.29999C130.64818,315.23138 130.94489,315.96393 131.584,316.71466C132.15128,317.38098 132.17763,318.15381 132.72133,318.87866C133.20364,319.5217 133.33792,320.30005 133.85266,320.94733C134.345,321.56644 134.7805,322.40341 135.5,322.83334C136.27045,323.2937 136.84714,323.83258 137.44733,324.35266C138.10094,324.91901 138.75887,325.4213 139.59984,325.87866C140.34732,326.28519 140.82605,326.8634 141.47467,327.42532C142.06256,327.93463 142.89999,328 143.7955,328.00449L144.464,328.436" id="svg_14" stroke-width="3" stroke="#000" fill="none"/>
  <path t="61563,61634,61634,61634,61635,61645,61645,61645,61649,61649,61657,61657,61657,61665,61674,61691,61691,61697,61713,61729,61729" d="M140.5,311C142.4785,320.44934 142.60028,321.00531 142.864,321.93735C143.07773,322.69272 143.47853,323.84286 143.8,324.53833C144.17529,325.35022 144.80484,326.05978 145.14284,326.80984C145.55202,327.7179 145.48491,328.49988 145.49867,329.23199C145.51927,330.32788 145.95294,331.10721 146.33333,332C146.65352,332.75153 146.55716,333.70001 146.936,334.39999L147.59984,335.10001L148.14284,335.70001" id="svg_15" stroke-width="3" stroke="#000" fill="none"/>
  <path t="62522,62585,62602,62615,62615,62618,62626,62641,62642,62657,62673,62689,62689,62721,62753,62769,62873,62874,62945,62954" d="M147.5,310C148.07466,311.60001 148.48199,312.41016 148.5,313.32132C148.51686,314.1745 148.30807,315.21036 148.784,315.91733C149.2271,316.57556 149.49713,317.35184 149.5,318.24283C149.50308,319.20001 149.74213,319.95377 150.14734,320.70001C150.56062,321.46112 150.40599,322.44708 150.85266,323.29999C151.24661,324.05222 151.49867,324.79999 151.5,325.70001L151.5,326.60001" id="svg_16" stroke-width="3" stroke="#000" fill="none"/>
  <path t="71881,72052,72058,72081,72106,72122" d="M153.5,318C153.5,319.79999 153.55716,320.64282 154.33333,321.16666L154.5,322L154.66667,322.83334" id="svg_18" stroke-width="3" stroke="#000" fill="none"/>
  <path t="72756,72833,72849,72876,72881,72897,72921,72921,72935,72953,72953,72961,72977,72994,72995,73001,73025,73073,73080,73088,73129,73147,73201,73241,73265,73279,73305,73345,73353,73369,73394,73394,73401,73417,73428,73433,73451,73451,73464,73475,73475,73481,73492,73513,73633" d="M159.5,299C159.5,300.79999 159.494,301.70004 159.5,302.60001C159.50534,303.40005 160.00049,304.21881 160.33333,305C160.65352,305.75153 160.81577,306.51212 161.33333,307.33334C161.69972,307.9147 162.13063,308.70306 162.47917,309.52084C162.82396,310.32983 162.42696,311.35016 162.92534,311.97467C163.41052,312.58264 163.24919,313.43716 163.5045,314.2955C163.73134,315.05814 165.1465,314.81549 165.47917,315.52084C165.85429,316.31622 165.49991,317.29999 165.5,318.20001C165.50009,319.09982 166.00781,319.60864 166.44284,320.35718C166.86731,321.08755 166.5,322.10001 166.5,323C166.5,323.79999 166.5168,324.70016 166.5,325.60001C166.48199,326.56451 165.79991,326.97784 165.2,327.70984C164.72054,328.29486 164.04761,329.15298 163.66667,330C163.37195,330.65533 163.44284,331.64282 162.7955,332.05267L162,332.5L161.2,332.94284" id="svg_19" stroke-width="3" stroke="#000" fill="none"/>
  <path t="74794,74961,74974,74986,74987,74993,75008,75029,75040,75053,75081,75089,75089,75118,75137,75153,75170,75170,75177,75193,75203,75209,75233,75241,75265,75273,75281,75289,75305,75321,75341,75355,75361,75377,75388,75394,75405,75406,75421,75425,75436,75454,75457,75482,75497,75497,75505,75528,75545,75545,75560,75571,75577,75588,75605,75625,75638,75673,75696,75713,75722,75745,75755,75772,75777,75793,75817,75824,75833,75849,75857,75873,75890,75897,75906,75929,75929,75940,75959,75975,75992,75993,76001,76009,76041,76049,76060,76074,76081,76105,76113,76137,76158,76161,76193,76201,76232,76248,76257,76288,76297,76297,76321,76329,76347,76362,76369,76385,76401,76401,76411,76417,76429,76433,76445,76449,76465,76478,76482,76496,76499,76512,76521,76521,76536,76544,76558,76559,76566,76570,76584,76600,76601,76601,76616,76632,76633,76645,76661,76681,76694,76705,76745,76752,76768,76781,76784,76824,76825,76846,76913,76921,76969,77025,77025,77041,77073,77116,77145,77337,77361,77389,77408,77408,77420,77425,77440,77464,77472,77490,77506,77521,77521,77552,77565,77566,77573,77587,77600,77620,77624,77625,77640,77656,77667,77684,77689,77704,77719,77721,77734,77736,77737,77745,77752,77761,77768,77777,77784,77785,77793,77793,77801,77809,77824,77825,77834,77834,77841,77851,77857,77869,77873,77873,77885,77889,77902,77905,77919,77929,77936,77953,77961,77968,78008,78009,78033,78053,78120,78209,78224,78985,79321,79353,79366,79369" d="M156.5,294C154.66667,293.83334 154.20421,293.27097 153.40016,292.7785C152.78044,292.39893 152.34077,291.57739 151.784,290.91599C151.2648,290.29922 150.88785,289.41766 150.52533,288.60001C150.17799,287.81659 149.31131,287.46091 148.78534,286.91599C148.11905,286.22571 148.15721,285.38715 147.62134,284.7785C146.99828,284.07083 146.64838,283.58914 145.936,282.97467C145.32671,282.4491 145.25797,281.55167 144.784,280.91599C144.21075,280.14716 144.08238,279.44556 143.62151,278.7785C143.11746,278.04898 143.14807,277.17288 142.55267,276.64734C141.91454,276.08408 141.66843,275.36954 141.47917,274.5C141.29498,273.65372 140.64989,272.89569 140.5,272C140.35974,271.1618 139.72633,270.72992 139.27867,269.89999C138.92934,269.25235 138.84804,268.31949 138.47917,267.52084C138.12303,266.74973 137.68962,266.26755 137.464,265.39999C137.23889,264.53436 136.2991,263.97787 135.85716,263.29999C135.37871,262.56607 135.1469,261.69626 134.5,261C133.9395,260.39673 133.7852,259.55283 133.4955,258.7045C133.21715,257.8894 132.30702,257.59634 131.784,256.91599C131.3141,256.30472 131.27345,255.45752 130.62134,254.77867C130.06416,254.19865 129.7581,253.5239 129.4955,252.7045C129.25267,251.94679 127.85793,252.1824 127.52084,251.47917C127.14519,250.69548 127.0927,249.90762 126.44733,249.35266C125.86534,248.85219 125.04753,248.4624 124.55267,247.7045C124.09861,247.00909 123.55375,246.45108 123.07467,245.60001C122.66564,244.87337 122.13837,244.23872 121.40017,243.7785C120.683,243.33141 120.34155,242.48502 119.784,241.916C119.12484,241.2433 118.362,240.96455 117.85717,240.2955C117.29053,239.54453 117.02479,238.79994 116.33334,238.16667C115.73541,237.61906 115.74693,236.76576 115.216,236.084C114.72806,235.45743 113.91945,235.30739 113.11066,234.98933C112.38492,234.70393 112.76783,233.5576 112.4955,232.7045C112.23357,231.88399 111.30701,231.59637 110.784,230.916C110.3141,230.30472 110.21204,229.51152 109.62133,228.7785C109.10049,228.13219 108.70502,227.34628 108.52084,226.5C108.33159,225.63046 107.89043,224.99794 107.44733,224.2955C106.96041,223.52359 106.71098,222.74637 106.27866,221.89999C105.94394,221.24469 105.51073,220.39999 105.5,219.5C105.4894,218.61067 104.86869,218.01421 104.47467,217.38933C104.00269,216.64082 103.54272,215.80302 103.5,214.89999C103.45747,214.00101 103.0502,213.45474 102.58533,212.71466C102.09664,211.93666 102.37524,210.96571 101.7955,210.3C101.2424,209.66489 100.56088,208.90611 100.5,208C100.44637,207.2018 100.26413,206.52402 99.784,205.83067C99.26171,205.07645 99.38702,203.97958 99.064,203.21066C98.74946,202.46191 98.00951,201.86128 97.6215,200.89999C97.35566,200.24138 97.44283,199.3 97,198.5C96.55717,197.7 96.63732,196.71889 96.14733,196.05267C95.6441,195.36845 95.49878,194.60298 95,194C94.45747,193.34413 93.64362,192.9482 93.5,192C93.3802,191.20901 93.31129,190.51253 92.66666,189.83333C92.06471,189.1991 91.71442,188.55804 91.21467,187.80133C90.81252,187.19241 89.77314,187.18597 88.9,186.964C88.03771,186.7448 87.28849,186.16684 86.40017,185.99983C85.60459,185.85027 85.5,184.89999 85.5,184C85.5,183.2 85.5,182.3 85.5,181.39999C85.5,180.5 85.5,179.60001 85.5,178.7C85.5,177.8 85.5,176.89999 85.5,176C85.5,175.2 85.5,174.24283 85.5,173.34734C85.5,172.48399 85.5,171.636 85.5,170.7C85.5,169.8 85.5,168.89999 85.5,168C85.5,167.2 85.5,166.3 85.5,165.39999C85.5,164.5 85.23217,163.5576 85.5045,162.7045C85.76643,161.88399 86.33159,161.36954 86.52084,160.5C86.70502,159.65372 87.43784,158.90762 87.49866,158.2C87.57574,157.30331 87.49805,156.38039 87.92533,155.60001C88.3757,154.77744 88.5,153.89999 88.5,153C88.5,152.24283 88.5,151.34734 88.5,150.48399C88.5,149.52083 88.43755,148.56927 88.72134,147.67867C88.94408,146.97964 89.41167,146.02568 89.49866,145.20134C89.59346,144.3031 90.16279,143.57362 90.41467,142.8C90.69455,141.94035 90.74213,141.04622 91.14733,140.3C91.56062,139.53888 91.56695,138.65645 92.07467,137.97467C92.55188,137.33386 92.17188,136.32805 92.52084,135.52083C92.82948,134.80685 93.08732,134.17174 93.55717,133.35716C93.95334,132.67033 94.47292,131.99954 94.5,131.2C94.5286,130.35571 95.31281,129.82896 95.5,129C95.69958,128.11613 96.17662,127.43115 96.936,127.036C97.70311,126.63683 98.69867,126.99866 99.44733,126.64733L99.92533,126.02533" id="svg_20" stroke-width="3" stroke="#000" fill="none"/>
  <path t="80091,80169,80169,80169,80169,80182,80184,80200,80201,80233" d="M112.5,139C112.5,143.79601 112.5,144.56799 112.5,145.29201C112.5,145.944 112.5,147.12849 112.5,148.10001L112.5,149L112.5,149.8L112.5,150.7" id="svg_21" stroke-width="3" stroke="#000" fill="none"/>
  <path t="81418,81497,81513,81513,81529,81553,81568,81568,81592,81592,81608,81624,81697,81721,81750,81753,81774,81792,81801,81824,81849,81889,81899,81913,81947,81969,81969,81985,82001,82017,82027,82033,82055,82063,82075,82095,82099,82109,82109,82113,82125,82125,82128,82136,82136,82150,82150,82152,82160,82168,82169,82176,82193,82216,82216,82217,82226,82226,82233,82250,82265,82265,82265,82276,82281,82297,82310,82310,82315,82321,82328,82337,82352" d="M84.5,87C86.25716,87 87.15266,87 88.016,87C88.97916,87 89.82803,86.91422 90.82133,87.22134C91.52225,87.43804 92.32511,87.88572 93.1955,87.9955C94.13737,88.11429 94.57056,88.76365 95.5,89C96.32362,89.20944 96.71523,89.93911 97.6,90C98.49788,90.0618 99.17841,90.28523 99.784,90.916C100.33401,91.48888 101.12611,91.8284 101.7955,92.35717C102.53648,92.94248 102.89751,93.66962 103.416,94.28533C103.97639,94.95081 103.98205,95.93707 104.55267,96.64283C105.14375,97.3739 105.17747,98.13841 105.66666,98.83334C106.17,99.54836 107.12771,99.74761 107.47916,100.52084C107.84306,101.32143 107.39304,102.30654 107.50134,103.2C107.61282,104.11977 108.30015,104.65375 108.47916,105.52084C108.67396,106.46436 108.44915,107.39054 108.85267,108.24284C109.23644,109.05343 109.49775,109.75716 109.5,110.65266C109.50217,111.516 109.44154,112.51587 109.85267,113.3C110.29726,114.14795 110.6256,114.77593 111.07467,115.6C111.50499,116.38967 111.5,117.32133 111.5,118.17467C111.5,119.11467 111.32645,120.03825 111.58533,120.8C111.8871,121.68791 112.39933,122.45654 112.83334,123.16666C113.2701,123.8813 114.13058,124.4277 114.428,125.364C114.68204,126.16371 114.31672,127.15427 114.66666,128C114.99133,128.78462 115.47916,129.5 115.51067,130.38933L116,131L116.52533,131.61067L116.92533,132.39999" id="svg_22" stroke-width="3" stroke="#000" fill="none"/>
  <path t="83746,83785,83792,83801,83808,83824,83841,83851,83856,83873,83888,83904,83912,83928,83928,83941,83944,83952,83960,83976,83992,83992,84002,84002,84008,84019,84024,84043,84043,84052,84052,84056,84069,84080,84088,84088,84104,84120,84128,84142,84144,84153,84160,84176,84187,84187,84203,84221,84224,84245,84248,84256,84264,84272,84281,84296,84304,84321,84344,84355,84360,84360,84376,84390,84392,84405,84422,84433,84593,84611,84623,84625,84632,84632,84649,84649,84659,84659,84659,84659,84664,84665,84675,84690,84690,84690,84696,84696,84696,84706,84706,84712,84712,84723,84723,84728,84728,84728,84747,84747,84747,84757,84757,84760,84760,84760,84773,84773,84776,84784,84784,84792,84800,84808,84816,84824,84832,84848,84848,84857,84874,84891,84907,84912,84912,84928,84948,84952,84968,84992,85016,85024,85056,85056,85080,85096,85109,85126,85136,85149,85160,85179,85179,85193,85200,85216,85232,85249,85250,85250,85264,85280,85280,85296,85310,85327,85336,85350,85360,85384,85384,85400,85412,85448,85472,85500,85536,85556,85576,85576,85584,85600,85616,85629,85653,85664,85664,85680,85688,85688,85696,85720,85736,85753,85763,85763,85780,85808,85832,85853,85896,85904,85954,85968,85968,85984,85984,85997,86024,86052,86066,86088,86099,86116,86133,86137,86137,86157,86168,86177,86185,86192,86208,86208,86208,86216,86216,86224,86232,86240,86240,86255,86256,86256,86267,86267,86272,86283,86283,86288,86299,86299,86304,86316,86333,86333,86336,86356,86360,86376,86392,86392,86408,86440,86464,86650,86688,86696,86712,86728,86747,86756,86772,86789,86792,86793,86808,86824,86848,86850,86864,86880,86904,87025,87025,87051,87080,87091,87112,87142,87158,87175,87177,87193,87208,87222,87233,87256,87264,87288,87769,87785,87824,87833,87859,87869,87882,87898,87912,87944,87952,87960,87984,88008,88044,88044,88048,88088,88117,88129,88150,88176,88176,88184,88368,88381,88396,88400,88416,88432,88432,88458,88467,88467,88488,88504,88515,88529,88552,88552,88568,88568,88616,88769,88793,88801,88819,88834,88834,88841,88841,88858,88872,88873,88882,88888,88904,88915,88932,88936,88956,88956,88966,88968,88969,88982,88993,89000,89024,89033,89072,89121" d="M86.5,86C85.2785,86.8785 84.26577,86.75307 83.584,87.284C82.95742,87.77194 82.62283,88.71667 81.88934,88.98933C81.07473,89.29214 80.34111,89.51803 79.784,90.084C79.12337,90.75514 78.74918,91.44746 78.064,91.97467C77.41035,92.47762 76.61174,92.72526 76.02084,93.5C75.46106,94.23393 75.10156,95.00283 74.47467,95.57467C73.91228,96.08768 73.21132,96.71703 72.8,97.35183C72.21589,98.25333 71.60957,98.72121 71.02084,99.5C70.46323,100.23761 70.64172,101.24353 70.33334,102C70.0481,102.69971 69.61427,103.66485 69.44733,104.34734C69.22361,105.26196 68.21004,105.60706 67.62133,106.2215C66.96896,106.90237 66.69013,107.65408 66.51067,108.6C66.34289,109.48429 66.74287,110.43484 66.4955,111.2955C66.2748,112.06339 65.51262,112.52068 65.5,113.4C65.48708,114.29992 65.30759,115.31252 64.69867,115.71467C63.94196,116.21442 63.51863,116.80152 63.5,117.7C63.48133,118.60052 62.88197,119.31036 62.58533,120.2C62.29942,121.05747 62.18885,121.76358 61.55267,122.35267C60.97708,122.88565 60.5106,123.61066 60.5,124.5C60.48927,125.4 60.05766,126.1118 59.66667,127C59.37717,127.65764 59.91667,128.71214 59.464,129.564C59.07543,130.29523 57.90191,130.32854 57.58533,131.2C57.27666,132.04971 57.04167,133.45833 57.5,133.45833C58.35832,133.45833 57.5,131.6955 57.5,130.83333C57.5,130 57.41661,129.00764 57.572,128.30267C57.81506,127.1999 58.20621,126.6424 58.5,126C58.93329,125.05259 59.22898,124.01906 59.58267,123.204C59.92696,122.41061 60.52678,121.67774 60.7955,120.99017C61.09423,120.22581 61.34629,119.16854 61.47467,118.236C61.56144,117.60564 61.73299,116.5769 62.11067,115.836C62.54226,114.98933 63.17043,114.41957 63.69867,113.51334C64.12331,112.78481 64.36561,111.83716 64.44283,111.04733C64.52295,110.22793 64.48037,109.16627 64.5045,108.45717C64.53355,107.60337 64.77511,106.5946 65.11066,105.764C65.48855,104.82863 65.807,104.05567 65.97916,103.52084C66.35887,102.34126 66.36569,101.53053 66.5045,100.7C66.65985,99.77049 67.35182,99.23138 67.4955,98.3C67.63271,97.41051 67.19009,96.44028 67.51067,95.61066C67.81705,94.81775 68.49467,94.35338 68.5,93.34734C68.50368,92.65267 68.5,91.636 68.5,90.7C68.5,89.8 68.5,88.9 68.5,88C68.5,87.2 68.5,86.3 68.5,85.4C68.5,84.5 68.5,83.6 68.5,82.7C68.5,81.8 68.5,80.9 68.5,80C68.5,79.2 68.5,78.3 68.5,77.4C68.5,76.5 68.5,75.6 68.5,74.7C68.5,73.8 68.5,72.9 68.5,72C68.5,71.2 68.5,70.3 68.5,69.4C68.5,68.5 68.5,67.6 68.5,66.7C68.5,65.79867 68.5,65.11467 68.5,64.17467C68.5,63.16667 68.5,62.3045 68.5,61.4C68.5,60.5 68.5,59.6 68.5,58.7C68.5,57.8 68.5,56.9 68.5,56C68.5,55.2 68.5,54.3 68.5,53.4C68.5,52.5 68.5,51.6 68.5,50.7C68.5,49.8 68.5,48.9 68.5,48C68.5,47.2 68.31626,46.2735 68.536,45.4C68.75306,44.53717 69.22911,43.80703 69.784,43.08267C70.26659,42.45267 70.38827,41.76205 70.85267,40.75717C71.22891,39.94305 71.08669,39.17655 71.55717,38.35717C72.02343,37.54511 72.89787,37.31672 73.44733,36.64283C74.02087,35.93943 74.13513,35.16545 74.55267,34.3C74.94764,33.48129 76.07384,33.29438 76.464,32.564C76.87144,31.80125 76.22305,30.58418 76.86166,30.05267C77.50296,29.51893 78.47991,29.44457 79.33334,29.16667C80.17924,28.8912 80.89444,28.56549 81.69867,28.084C82.44229,27.63879 83.02065,27.01042 83.9,27C84.79994,26.98934 85.7,27 86.6,27C87.5,27 88.3,27 89.2,27C90.1,27 91,26.99776 91.9,27C92.8045,27.00225 93.66592,27.16861 94.336,27.42533C95.10049,27.71822 96.09425,27.9701 97.01466,27.99867C97.9787,28.02859 98.82433,27.92152 99.66666,28.16667C100.52844,28.41747 101.3644,28.73533 102.1955,29.05267C102.94889,29.34033 103.84974,29.76569 104.63866,30.02533C105.49734,30.30793 106.08195,30.85703 106.85183,31.05267C107.76302,31.28421 108.63807,31.77739 109.3,32.084C110.1691,32.48656 110.69741,33.46577 111.5,33.83333C112.24272,34.17348 113.29689,33.63683 114.064,34.036C114.82338,34.43114 115.20629,35.22954 115.66666,36C116.09658,36.71949 117.05508,36.70095 117.88934,37.01067C118.62295,37.28301 119.31808,37.99428 119.49866,38.80133C119.69489,39.67832 119.5,40.6 119.5,41.5C119.5,42.4 119.5,43.3 119.5,44.2C119.5,45.1 119.5,46 119.5,46.8C119.5,47.7 119.5,48.6 119.5,49.5C119.5,50.4 119.5,51.3 119.5,52.2C119.5,53.1 119.5,54 119.5,54.8C119.5,55.7 119.5,56.6 119.5,57.5C119.5,58.4 119.5,59.3 119.5,60.2C119.5,61.1 119.83718,62.14896 119.33334,62.83333C118.8526,63.48632 117.89232,63.73918 117.536,64.436C117.10145,65.28582 116.78333,65.87717 116.51067,66.61066C116.20786,67.42527 115.84852,68.0501 115.44733,68.7045C114.97425,69.47617 113.9288,69.70704 113.536,70.436C113.08323,71.27625 112.77441,71.87392 112.51067,72.61066C112.21091,73.44803 112.46665,74.36992 111.92533,75.02533C111.42578,75.63016 110.58374,76.1543 110.5,77C110.42117,77.79611 110.51067,78.70006 110.5,79.6C110.48958,80.47935 109.75179,80.99819 109.536,81.86134C109.3001,82.80496 109.3615,83.53703 108.784,84.084C108.44285,84.40711 108.5,83.6 108.5,82.7C108.5,81.8 108.5,80.9 108.5,80C108.5,79.2 108.5,78.24284 108.5,77.34734C108.5,76.484 108.5,75.52084 108.5,74.7C108.5,73.8 108.5,72.9 108.5,72C108.5,71.11467 108.51198,70.17456 108.5,69.484C108.48199,68.4462 107.69564,67.63267 106.936,68.036C106.20464,68.42432 105.90509,69.48247 105.62117,70.32133C105.34141,71.1479 105.06848,71.9912 104.5,72.47916C103.75703,73.11691 103.28831,73.97173 102.92533,74.6C102.43676,75.44566 101.89043,76.00207 101.44733,76.7045C100.96041,77.4764 100.61947,78.30623 100.49866,79.2C100.38924,80.00954 99.8039,80.68072 99.5,81.52084C99.15873,82.46427 98.97124,83.21761 98.30133,83.83067C97.62884,84.44608 97.49866,85.19867 97.14733,85.94733L96.52084,86.52084L96.48933,87.38934L96,88" id="svg_23" stroke-width="3" stroke="#000" fill="none"/>
  <path t="90026,90081,90097,90107,90124,90151,90201,90201,90242,90433,90433,90465,90480,90496,90512,90542,90560,90576,90584,90584,90592,90656,90673,90673,90721,90754,90789,90800,90809,90857,90880,90897,90920,90945,90953,90976,90985,91008,91049,91061,91106,91112,91252,91265,91273,91273,91296,91317,91337,91353,91368,91384,91396,91418,91430,91430,91433,91455" d="M122.5,60C122.5,61.8 122.5,62.7 122.5,63.6C122.5,64.5 122.5,65.3045 122.5,66.32133C122.5,67 122.5,67.9785 122.5,69C122.5,69.8 122.5,70.7 122.5,71.6C122.5,72.5 122.5,73.4 122.5,74.3C122.5,75.2 122.5,76.1 122.5,77C122.5,77.8 122.1855,78.38715 121.66666,79.16666C121.19579,79.87412 121.5,80.8 121.5,81.7C121.5,82.6 121.78909,83.55197 121.48933,84.38934C121.22559,85.12608 120.50533,85.61062 120.5,86.6C120.49515,87.49998 120.74287,88.43484 120.4955,89.2955C120.2748,90.06339 119.51042,90.52065 119.5,91.4C119.48933,92.29994 119.5,93.2 119.5,94.1C119.5,95 119.04967,95.54493 118.58533,96.28533C118.09726,97.06358 118.66421,98.14046 118.41467,98.8C118.08656,99.66719 117.06385,100.04419 116.47467,100.57467C115.8917,101.09956 115.21714,101.68089 114.584,102.284C114.00988,102.83088 113.2,103.0045 112.4,103.22134L111.7,103.716L110.9,103.98933L109.936,104.036" id="svg_24" stroke-width="3" stroke="#000" fill="none"/>
  <path t="93058,93097,93097,93113,93129,93156,93156,93169,93180,93201,93225,93233,93255,93268,93281,93296,93341,93356,93392,93449,93472,93493,93506,93560,93576,93584,93593,93624,93632,93664,93675,93704,93768,93776,93784,93808,93816,93864,93880,93904,93912,93960,93960,93976,93994,94051,94072,94136,94158,94164,94184,94195,94216,94228,94250,94272,94280,94288,94304,94320,94336,94352,94362,94368,94384,94400,94417,94429,94440,94440,94456,94464,94472,94480,94504,94592,94601,94632,94633,94663,94680,94702,94720,94736,94763,94777,94788,94788,94800,94808,94824,94840,94854,94865,94881,94899,94899,94904,94928,94960,94976,95258,95280,95306,95323,95355,95376,95410,95410,95440,95464,95528,95584,95605,95625,95857,95880,95892,95907,95912,95928,95955,95965,95993,96208,96256,96264,96273,96293,96308,96325,96350,96360,96360,96376,96400,96410,96468,96688,96710,96720,96728,96750,96751,96761,96761,96761,96768,96778,96800,96800,96816,96847,96960,97016,97088,97104,97136,97161,97171,97197,97216,97217,97240,97263,97272,97272,97283,97288,97300,97304,97318,97333,97336,97362,97372,97392,97456,97480,97480,97500,97520,97537,97564,97575,97575,97584,97584,97596,97597,97600,97600,97608,97624,97624,97632,97653,97656,97656,97664,97672,97672,97680,97688,97704,97720,97720,97731,97754,97765,97784,97792,97808,97824,97840,97855,97872,97888,97899,97904,97915,97933,97956,97961,97968,97976,97992,98008,98032,98040,98057,98066" d="M142.5,176C143.66667,177 144.09448,177.59674 144.89999,177.97467C145.78372,178.3893 146.4874,178.91496 147.3,178.99867C148.19527,179.09088 148.99176,179.18878 149.584,179.716C150.18617,180.25208 151.16537,180.46582 151.88933,180.97467C152.60464,181.47746 153.20457,181.98714 154.10001,182C154.97932,182.01262 155.50206,182.60956 156.2045,183.05267C156.97639,183.5396 157.82652,183.77689 158.69867,184.00133C159.49957,184.20744 159.93546,184.98135 160.8,185C161.69846,185.01938 162.24982,185.62286 163.02083,185.97917C163.80974,186.34375 164.37392,186.72559 165.11067,186.98933C165.94803,187.28909 166.9424,186.73218 167.7955,187.0045C168.61601,187.26642 168.90363,188.19299 169.584,188.716C170.19528,189.1859 171.32343,188.58728 172.14284,189.05716C172.83067,189.45158 173.5,190 174.3,190C175.2,190 175.92705,190.16716 176.584,190.716C177.20271,191.23289 177.96594,191.6709 178.47467,192.38933C178.93922,193.04538 179.93483,192.75713 180.7955,193.0045C181.5634,193.22522 182.11067,193.98933 183,194C183.88933,194.01067 184.19261,194.58055 184.51067,195.38933C184.79607,196.11508 185.89999,196 186.8,196C187.7,196 188.60684,195.88924 189.5,196C190.39922,196.11151 190.78236,196.95729 191.7,197C192.59903,197.04184 193.5,197 194.3,197C195.2,197 196.17755,196.65923 196.97917,197.02083C197.71194,197.35138 197.82854,198.5981 198.7,198.91467C199.54971,199.22336 200.5,199 201.3,199C202.2,199 203.10001,199 204,199C204.89999,199 205.8,199 206.7,199C207.60001,199 208.5,199 209.3,199C210.2,199 211.10001,199 212,199C212.89999,199 213.8,199 214.7,199C215.60001,199 216.5,199 217.3,199C218.2,199 219.10001,199 220,199C220.89999,199 221.79095,198.99702 221.69733,199C220.79865,199.02859 220.18967,199.61813 219.3,199.91467C218.44235,200.20055 217.5,200 216.7,200C215.8,200 214.89999,200 214,200C213.10001,200 212.2,199.99991 211.3,200C210.40016,200.00009 209.5428,200.28236 209.5,201.2C209.45808,202.09886 209.26207,202.79184 208.40016,203.00017C207.56104,203.20299 207.61076,204.10684 207.5,205C207.38849,205.89922 206.33969,206.29584 206.50133,207.19867C206.6467,208.01064 207.7,208 208.60001,208C209.5,208 210.13589,208.40186 210.94267,208.87866C211.564,209.24586 212.35257,209.5282 213.02083,210C213.81866,210.56329 214.59389,210.93912 215.5,211C215.95729,211.03073 215.10001,211 214.1955,211C213.33333,211 212.46339,210.9388 211.5,211.16667C210.69167,211.35786 209.96666,211.65895 209.02083,212C208.1804,212.30304 207.5126,212.91496 206.7,212.99867C205.80473,213.09088 204.89999,213 204,213C203.10001,213 202.17831,213.1949 201.30133,212.99867C200.49429,212.8181 200.05913,211.93976 199.47467,211.42534C198.85124,210.87662 198.07744,210.31448 197.2,210.05716C196.33583,209.80373 195.71442,209.55804 195.21466,208.80133C194.81252,208.19241 193.70226,208.36525 192.936,207.964C192.17764,207.56688 191.71808,206.88292 190.89999,206.42534C190.1277,205.99338 189.55881,205.42267 188.88933,204.97467C188.1539,204.48254 187.30302,204.04271 186.39999,204C185.50101,203.95747 184.69958,204.02724 183.8,204C182.85587,203.97141 182.63454,203.13887 181.95833,202.52083C181.31163,201.92975 180.28938,202.00534 179.30017,202C178.52084,201.9958 177.52133,202.00194 176.74733,202C175.85182,201.99774 175.19792,201.74609 174.41733,201.284C173.59099,200.79482 172.7,201 171.8,201C170.97917,201 170.01601,201.00217 169.15266,201C168.25716,200.99774 167.45319,200.69313 166.7,200.284C165.90248,199.85078 165.35892,199.16348 164.47917,199.02083C163.53362,198.86751 162.70134,199 161.8,199C160.89999,199 160,199 159.10001,199C158.2,199 157.2914,199.12401 156.40016,198.99983C155.5983,198.88811 155.14429,198.02867 154.3,198C153.40068,197.96945 152.67287,197.64807 152.14734,197.05267C151.58408,196.41452 150.88933,196.01067 150,196C149.11067,195.98933 148.62608,195.27441 147.88933,195.01067C147.05197,194.71091 146.10001,195 145.2,195L144.3,195L143.39999,195L142.5,195" id="svg_25" stroke-width="3" stroke="#000" fill="none"/>
  <path t="99044,99216,99246,99249,99273,99329,99360,99392,99473,99473,99497,99511,99536,99560,99568,99576,99616,99642,99658,99674,99680,99696,99712,99720,99728,99736,99752,99768,99777,99784,99800,99824,99849,99860,99860,99877,99888,99896,99912,99928,99950,99950,99952,99976,99994,100000,100000,100009,100056,100080,100080,100088,100153,100168,100216,100256,100480,100488,100504,100529,100564,100578,100578,100600,100650,100936,100992,101002,101018,101037,101040,101065,101082,101082,101090,101104,101112,101121,101168,101265,101272,101328,101360,101369,101385,101392,101408,101424,101442,101452,101452,101464,101472,101480,101497,101504,101504,101512,101528,101542,101554,101570,101592,101592,101605,101608,101624,101648,101656,101664,101680,101696,101720,101728,101728,101745,101776,101792,101803,101808,101824,101832,101848,101864,101880,101904,101904" d="M213.5,210C215.3,210 216.2,210 217.10001,210C217.89999,210 218.8,210 219.7,210C220.60001,210 221.5004,209.97464 222.3,210C223.20135,210.02859 223.92256,210.68552 224.8,210.94284C225.66417,211.19627 226.24759,211.62772 227.02083,211.97917C227.82143,212.34306 228.8,212 229.7,212C230.60001,212 231.6489,211.66293 232.33333,212.16667C232.98631,212.64726 233.73216,212.75575 234.416,213.284C235.0435,213.76871 235.8,213.99991 236.7,214C237.59984,214.00009 238.10863,214.50781 238.85716,214.94284C239.58754,215.36731 240.60001,215 241.5,215C242.3,215 243.20006,214.98959 244.10001,215C245.00018,215.01042 245.70331,215.54318 246.60001,215.87849C247.45064,216.19658 248.4364,215.59727 249.21466,216.08533C249.95508,216.54965 250.60001,217 251.5,217C252.3,217 252.88716,217.31448 253.66667,217.83333C254.37413,218.3042 255.3,218 256.20001,218C257.10001,218 257.90625,218.09636 258.55267,218.64734C259.15707,219.16249 259.74585,220.04185 259.84818,219.94284C260.43817,219.37189 259.16898,218.54852 258.66666,217.83333C258.17822,217.13789 258.89294,216.06964 258.41467,215.28534C257.92459,214.48169 257.74695,213.76576 257.216,213.084C256.72806,212.45743 256.06451,212.01801 255.10001,212C254.20015,211.9832 253.25154,212.15353 252.5,211.83333C251.71881,211.50049 251.00011,211.01527 250.10001,211C249.11076,210.98322 248.80739,210.41945 248.48933,209.61067C248.20393,208.88492 247.10001,209 246.2,209C245.3,209 244.39561,209.08868 243.5,209C242.6543,208.91626 242.21764,208.04271 241.3,208C240.40097,207.95816 239.5,208 238.7,208C237.8,208 236.8808,208.16522 236,207.97917C235.1526,207.80019 234.46312,207.26312 233.7,206.916C232.84573,206.52742 232.10054,206.01801 231.2,206C230.30019,205.98201 229.34653,206.18134 228.5,205.83333C227.82892,205.55743 226.94493,205.29904 226.11067,204.98933C225.37706,204.717 224.88933,204.01067 224,204C223.11067,203.98933 222.38812,203.52061 221.85266,202.94733C221.21266,202.26212 220.49913,202.0372 219.7,202C218.78236,201.95729 218.28477,201.0609 217.39999,201C216.50212,200.9382 215.94556,200.58238 215.2785,200.12151C214.54897,199.61746 213.584,199.716 213.14284,199.05716L212.2,198.9955L211.39999,198.77867L210.7,198.284" id="svg_26" stroke-width="3" stroke="#000" fill="none"/>
 </g>
</svg>