<svg width="500.00000000000006" height="332.409972299169" xmlns="http://www.w3.org/2000/svg" xmlns:svg="http://www.w3.org/2000/svg" xmlns:xlink="http://www.w3.org/1999/xlink">
 <!-- Created with SVG-edit - http://svg-edit.googlecode.com/ -->
 <g display="inline" class="layer">
  <title>Layer 1</title>
  <path t="0,167,167,185,185,202,203,220,220,236,236,254,254,254,271,271,289,289,306,306,326,326,343,363,376,376,393,409,426,426,444,444,459,476,493,510,510,527,527,543,560,560,560,577,577,595,595,595,612,628,646,664,682,682,699,716,716,733,733,733,751,768,768,785,785,803,803,820,838,855,855,872,873,890,908,926,927,943,960,960,977,994,1011,1011,1028,1028,1044,1044,1044,1061,1061,1078,1095,1111,1111,1128,1146,1146,1163,1163,1163,1181,1181,1197,1197,1215,1215,1232,1232,1232,1250,1250,1267,1267,1285,1301,1319,1337,1355,1373,1391,1409,1409,1431,1455,1504,1522,1539,1574,1630,1647,1647,1664,1681,1681,1699,1699,1717,1735,1735,1782,1824,1842,1842,1859,1887,2032,2048,2065,2083,2083,2099,2117,2134,2134,2151,2168,2186,2203,2203,2238,2272,2289,2306,2306,2323,2324,2341,2342,2358,2358,2358,2375,2392,2393,2393,2410,2410,2410,2427,2427,2427,2445,2445,2445,2464,2464,2481,2481,2481,2498,2498,2515,2531,2532,2532,2549,2549,2549,2549,2566,2566,2582,2582,2582,2600,2600,2615,2615,2632,2632,2649,2649,2666,2666,2666,2683,2683,2700,2700,2717,2717,2717,2734,2751,2769,2786,2786,2803,2803,2820,2838,2838,2838,2855,2873,2912,2944,2962,2980,2980,3000,3001,3017,3034,3051,3069,3069,3069,3087,3087,3087,3087,3108,3108,3109,3121,3121,3121,3138,3139,3139,3156,3156,3156,3173,3191,3191,3207,3208,3208,3225,3225,3225,3242,3242,3260,3260,3260,3277,3277,3295,3295,3312,3330,3330,3347,3347,3367,3367,3368,3368,3384,3384,3401,3401,3418,3418,3418,3418,3435,3435,3457,3457,3457,3475,3492,3492,3509,3510,3527,3545,3545,3545,3563,3580,3598,3599,3618,3634,3634,3651,3651,3668,3668,3685,3686,3701,3702,3718,3735,3735,3751,3752,3768,3785,3785,3802,3819,3836,3853,3870,3870,3887,3904,3952,4128,4161,4178,4196,4213,4231,4231,4247,4248,4264,4264,4264,4282,4282,4299,4299,4300,4316,4317,4317,4336,4336,4361,4393,4394,4411,4429,4446,4446,4464,4464,4481,4482,4521,4538,4556,4573,4591,4608,4608,4625,4626,4642,4660,4660,4677,4695,4695,4712,4729,4730,4747,4764,4764,4781,4781,4799,4799,4816,4816,4833,4834,4851,4851,4851,4868,4868,4868,4888,4888,4888,4904,4905,4921,4922,4938,4939,4939,4955,4955,4972,4988,4988,5005,5005,5321,5321,5341,5361,5361,5375,5390,5390,5407,5424,5450,5450,5474,5515,5538,5556,5557,5573,5591,5608,5625,5642,5660,5677,5678,5694,5712,5712,5729,5729,5729,5747,5763,5764,5781,5781,5798,5799,5816,5833,5833,5851,5851,5868,5868,5885,5903,5903,5903,5920,5921,5937,5938,5954,5955,5973,5974,5990,6007,6008,6008,6025,6041,6042,6042,6058,6337,6338,6355,6356,6376,6376,6377,6392,6392,6393,6393,6508,6508,6508,6509,6509,6509,6513,6513,6513,6513,6514,6514,6514,6514,6514,6529,6529,6529,6529,6529,6530,6547,6564,6564,6581,6581,6598,6616,6617,6633,6634,6651,6651,6668,6669,6685,6685,6703,6721,6721,6737,6738,6755,6772,6773,6789,6807,6807,6826,6843,6860,6860,6878,6894,6894,6911,6911,6928,6929,6945,6945,6946,6963,6963,6980,6981,6997,6998,7015,7015,7032,7049,7050,7069,7069,7069,7084,7085,7101,7102,7119,7119,7137,7137,7154,7171,7172,7189,7190,7207,7207,7225,7225,7244,7244,7261,7261,7261,7262,7278,7278,7278,7294,7295,7295,7295,7311,7312,7312,7328,7328,7345,7345,7365,7366,7380,7380,7381,7618,7618,7636,7653,7653,7654,7670,7671,7688,7688,7689,7706,7706,7706,7723,7724,7724,7724,7740,7741,7741,7758,7758,7776,7776,7796,7796,7812,7835,7859,7891,7892,8034,8051,8068,8086,8103,8121,8121,8122,8138,8155,8187,8188,8226,8244,8275,8276,8292,8328,8348,8368,8369,8382,8382,8398,8415,8415,8432,8432,8432,8449,8450,8450,8466,8466,8484,8484,8501,8501,8518,8519,8519,8535,8536,8552,8553,8553,8570,8570,8570,8586,8587,8587,8587,8604,8605,8605,8621,8622,8622,8639,8639,8639,8640,8656,8657,8674,8674,8675,8675,8690,8691,8708,8709,8725,8726,8726,8743,8744,8761,8761,8778,8779,8779,8795,8795,8795,8812,8812,8829,8829,8849,8849,8849,8865,8882,8882,8899,8915,8916,8932,8932,8949,8966,8988,8988,9006,9023,9041,9042,9058,9075,9100,9124,9125,9159,9177,9196,9515,9535,9536,9551,9551,9551,9552,9552,9567,9568,9568,9585,9585,9586,9602,9602,9602,9619,9619,9619,9636,9654,9689,9706,9723,9748,9749,9767,9768,9784,9802,9818,9836,9836,9853,9870,9906,9906,9923,9923,9924,9941,9958,9958,9975,9975,9993,9993,10011,10027,10045,10045,10069,10069,10102,10103,10120,10137,10138,10154,10154,10171,10197,10197,10214,10251,10277,10312,10329,10330,10347,10347,10363,10364,10364,10381,10382,10398,10399,10416,10416,10417,10515,10516,10516,10519,10519,10520,10520,10520,10520,10520,10521,10521,10538,10538,10539,10539,10540,10555,10555,10556,10570,10570,10588,10588,10603,10603,10603,10620,10620,10637,10654,10655,10672,10672,10689,10690,10707,10725,10749,10766,10784,10785,10804,10821,10845,11180,11206,11230,11247,11272,11272,11311,11328,11345,11365,11383,11400,11422,11446,11446,11478,11517,11550,11551,11567,11585,11602,11620,11639,11639,11656,11657,11672,11673,11690,11690,11690,11706,11707,11707,11723,11724,11724,11740,11740,11741,11756,11757,11757,11773,11774,11790,11790,11807,11807,11823,11824,11840,11841,11857,11857,11874,11874,11891,11891,11908,11908,11925,11941,11942,11958,12005,12030,12054,12074,12091,12107,12124,12157,12221,12261,12279,12297,12314,12315,12332,12349,12350,12367,12392,12392,12425,12447,12447,12464,12481,12498,12516,12517,12533,12533,12549,12550,12567,12567,12584,12601,12618,12618,12636,12653,12670,12687,12687,12688,12704,12721,12739,12739,12759,12759,12776,12776,12793,12793,12809,12810,12827,12827,12843,12861,12877,12895,12895,12912,12912,12929,12929,12946,12947,12964,12964,12981,12982,12998,12998,13015,13015,13033,13050,13051,13068,13085,13086,13104,13104,13118,13136,13136,13154,13154,13172,13189,13206,13231,13232,13248,13265,13283,13300,13317,13318,13334,13352,13352,13369,13386,13404,13422,13439,13463,13495,13527,13559,13598,13646,13664,13695,13712,13729,13730,13747,13764,13782,13782,13799,13800,13817,13817,13817,13834,13834,13851,13852,13869,13869,13886,13886,13902,13903,13919,13937,13968,13985,14002,14019,14020,14037,14038,14038,14054,14055,14055,14072,14072,14073,14089,14090,14108,14124,14124,14125,14142,14142,14158,14159,14176,14177,14193,14193,14194,14212,14213,14230,14230,14246,14247,14263,14264,14265,14280,14297,14297,14313,14330,14347,14347,14347,14364,14365,14385,14385,14398,14398,14415,14432,14449,14472,14489,14506,14530,14552,14639,14657,14674,14692,14709,14710,14727,14727,14728,14744,14745,14762,14762,14781,14781,14782,14782,14798,14798,14815,14815,14816,14831,14832,14848,14849,14865,14865,14866,14882,14883,14898,14899,14916,14917,14932,14933,14949,14966,14984,15001,15002,15019,15037,15038,15054,15071,15072,15367,15368,15388,15402,15402,15403,15420,15420,15421,15438,15438,15455,15455,15471,15472,15489,15490,15507,15525,15525,15542,15543,15559,15577,15577,15600,15633,15633,15671,15719,15745,15786,15803,15803,15821,15838,15839,15855,15856,15872,15873,15873,15889,15890,15906,15907,15924,15925,15925,15941,15942,15943,15959,15960,15960,15961,15976,15976,15977,15994,15994,15995,16011,16011,16012,16028,16029,16029,16030,16045,16046,16046,16063,16063,16064,16080,16080,16097,16115,16115,16135,16152,16153,16168,16169,16186,16202,16202,16219,16236,16236,16253,16254,16271,16287,16288,16305,16306,16322,16323,16340,16340,16357,16358,16358,16374,16391,16392,16408,16426,16443,16443,16460,16478,16495,16512,16529,16546,16592,17016,17017,17064,17122,17225,17296,17400,18465,18493,18509,18525,18542,18559,18578,18596,18614,18632,18649,18665,18683,18684,18701,18701,18702,18718,18719,18736,18753,18754,18769,18787,18788,18805,18822,18842,18859,18859,18876,18876,18893,18894,18909,18926,18927,18944,18945,18960,18961,18961,18977,18978,18994,18995,19028,19046,19063,19064,19081,19098,19114,19133,19155,19172,19195,19219,19220,19266,19386,20595,20620,20656,20673,20690,20707,20732,20733,20749,20766,20788,20806,20824,20841,20859,20875,20892,20910,20927,20927,20948,20998,21021,21045,21064,21082,21101,21125,21150,21166,21206,21207,21223,21224,21241,21259,21259,21275,21276,21293,21294,21294,21310,21311,21328,21328,21329,21345,21365,21366,21366,21386,21387,21399,21400,21416,21417,21418,21432,21433,21434,21450,21451,21451,21452,21468,21468,21469,21483,21484,21500,21500,21517,21534,21535,21552,21553,21569,21570,21587,21588,21604,21622,21639,21640,21657,21677,21732,21772,21790,21836" d="M195.5,69.70499C197.336,69.70499 198.10133,69.70499 199.10001,69.70499C199.89999,69.70499 200.89867,69.70499 201.84283,69.70499C202.75183,69.70499 203.46933,69.70499 204.50983,69.70499C205.28534,69.70499 206.33333,69.70499 207.26401,69.70499C207.89549,69.70499 208.89999,69.70499 209.7,69.70499C210.69983,69.70499 211.664,69.70499 212.616,69.70499C213.384,69.70499 214.32533,69.70499 215.01601,69.70499C216.08934,69.70499 217.02083,69.70499 217.82133,69.70499C218.67467,69.70499 219.61467,69.70499 220.60001,69.70499C221.5,69.70499 222.25717,69.70499 223.15266,69.70499C224.01601,69.70499 224.97917,69.70499 225.89999,69.70499C226.8,69.70499 227.71509,69.63011 228.38533,69.79032C229.35754,70.02271 229.99203,70.54099 231.02083,70.68415C232.03329,70.82504 232.76134,70.70499 233.55183,70.70499C234.57851,70.70499 235.47917,70.70499 236.5,70.70499C237.28934,70.70499 238.01466,70.70499 238.97917,70.70499C239.89999,70.70499 240.8,70.70499 241.7,70.70499C242.60017,70.70499 243.38533,70.70499 244.32533,70.70499C245.33333,70.70499 246.16133,70.70499 247.04266,70.70499C247.75067,70.70499 248.73199,70.70499 249.69017,70.70499C250.66667,70.70499 251.5,70.70499 252.33333,70.70499C253.25267,70.70499 254.15266,70.70499 255.01601,70.70499C255.864,70.70499 256.8045,70.70499 257.66666,70.70499C258.5,70.70499 259.47849,70.70499 260.29868,70.70499C261.20001,70.70499 262.13599,70.70499 262.98401,70.70499C263.84732,70.70499 264.93369,70.55778 265.70001,70.99032C266.38916,71.3793 266.91818,72.35845 267.70132,72.61965C268.62064,72.92628 269.53149,72.60194 270.33334,72.87165C271.06635,73.1182 271.81973,73.73872 272.75067,74.09432C273.48492,74.37479 274.40799,74.42093 275.29733,74.78899C276.04556,75.09864 276.29538,76.07783 276.78534,76.90498C277.18866,77.58586 277.89999,78.10499 278.60016,78.80515C279.13599,79.34099 279.82132,80.02631 280.5,80.70499C281.01599,81.22098 281.78867,81.91505 282.29868,82.58899C282.85245,83.32076 283.18112,84.06492 283.70001,84.82232C284.18274,85.52696 284.70001,86.47298 285,87.20499C285.29999,87.93699 285.78375,88.68951 286.14282,89.45316C286.54892,90.31683 286.52271,91.24832 286.92532,92.06898C287.35199,92.93864 287.24371,93.9299 287.72134,94.58366C288.23206,95.28271 288.5,95.90498 288.5,96.80499C288.5,97.70499 288.5,98.50499 288.5,99.40498C288.5,100.34782 288.84656,101.29881 288.47916,102.18415C288.20242,102.851 287.18207,103.29414 286.39999,103.58349C285.54825,103.89861 284.61346,103.73069 284,103.16332C283.2778,102.49541 282.95029,101.73091 282.62134,100.72649C282.35822,99.92299 281.95819,99.22469 281.30133,98.50499C280.76785,97.92048 280.50256,96.88735 279.62115,96.70499C278.8074,96.53661 277.98267,96.70499 277.02084,96.70499C276.11066,96.70499 275.49994,97.06216 275.5,97.90498C275.50009,98.80499 275.73395,99.66326 276.14734,100.40498C276.57297,101.16866 276.9765,101.93611 277.37866,102.80499C277.68509,103.46701 278.11298,104.28695 278.47467,105.10499C278.8215,105.88945 279.37729,106.69715 279.49866,107.50499C279.63516,108.41356 280.30133,108.70432 281.25717,108.70499C282.15717,108.70561 282.90451,108.70499 283.89999,108.70499C284.70001,108.70499 285.70267,108.75234 286.5,108.68415C287.5069,108.59804 288.27496,108.24081 289.01468,107.98898C290.00436,107.65206 290.83881,107.55649 291.76132,107.26899C292.28867,107.10464 293.33612,106.71149 294.04733,106.40498C294.95627,106.01327 295.92014,105.60178 296.72534,105.30499C297.27386,105.1028 298.33218,104.70221 299.04285,104.40948C299.89413,104.05882 300.90347,103.81203 301.70001,103.67966C302.70526,103.5126 303.28397,103.23109 304.10001,102.98898C305.0798,102.69829 305.86902,102.71811 306.87466,102.27966C307.69131,101.92359 308.35684,101.72445 309.272,101.70632C310.14249,101.68908 311.15125,101.70686 311.84933,101.66898C312.53278,101.63191 313.73172,101.42887 314.45834,101.20499C315.50354,100.88294 316.29944,100.7242 317.10001,100.70632C318.09976,100.68401 318.89999,100.70499 319.89999,100.70499C320.70001,100.70499 321.69983,100.70499 322.47916,100.70499C323.47882,100.70499 324.30984,100.70499 325.26935,100.70499C326.02084,100.70499 326.81754,100.72408 327.81467,100.70365C328.68982,100.68573 329.69815,100.47827 330.5,100.20499C331.49774,99.86494 332.28873,99.72417 333.01468,99.70632C333.97885,99.68262 334.89999,99.70499 335.8045,99.70499C336.66666,99.70499 337.5,99.70499 338.47849,99.70499C339.29868,99.70499 340.172,99.70499 341.04266,99.70499C342,99.70499 342.77725,100.00469 343.81732,99.69432C344.55344,99.47465 344.85718,98.70639 345.79999,98.70499C346.69867,98.70365 347.34976,98.25586 347.52533,97.51965C347.74887,96.5822 348.48703,96.28592 349.21466,95.62099C349.81027,95.0767 350.07446,94.22031 350.60001,93.38316C351.04758,92.67023 351.31979,91.93956 351.60001,91.06216C351.923,90.05072 352.09677,89.31876 352.29999,88.58765C352.59528,87.52533 352.78271,86.86081 353.10001,85.95165C353.47949,84.86427 353.80502,84.15985 354.10001,83.47965C354.50696,82.54131 354.823,81.7608 355.064,80.93032C355.36844,79.8812 355.46744,79.1679 355.49551,78.36665C355.53183,77.33095 355.5,76.38348 355.5,75.68415C355.5,74.70499 355.50058,73.89432 355.5,73.01965C355.49933,72.02099 355.5275,71.19972 355.41467,70.38898C355.27429,69.38021 354.99451,68.71848 354.5,67.70499C354.11197,66.90971 353.83569,66.33742 353.20001,65.45766C352.72589,64.80149 352.15552,64.07471 351.85718,63.35765C351.44507,62.36716 351.06458,61.5938 350.31467,61.10499C349.52893,60.59282 348.97037,60.18735 348.33334,59.37165C347.82288,58.71802 347.33337,57.94988 346.98401,57.47299C346.27328,56.50281 345.67758,55.83723 345.1955,55.04332C344.8465,54.46859 344.34225,53.53271 343.84732,52.75682C343.5061,52.22188 343.02393,51.44253 342.25266,50.51482C341.77139,49.93595 341.01599,49.22099 340.5,48.70499C339.98401,48.18899 339.25717,47.46215 338.5,46.70499C338,46.20499 337.30264,45.50233 336.70001,44.90499C336.09198,44.30229 335.33746,43.69812 334.67465,43.30499C333.98819,42.89783 333.16367,42.2927 332.58267,41.50632C332.07205,40.8152 331.33841,40.70099 330.5,40.20499C329.7746,39.77584 329.07339,39.71774 328.10132,39.42099C327.31833,39.18195 326.38715,38.75325 325.616,38.70632C324.66568,38.6485 323.88202,38.67531 322.90451,38.35232C322.14172,38.10028 321.254,37.73359 320.33334,37.70499C319.5004,37.67912 318.52151,37.70499 317.70132,37.70499C316.86401,37.70499 315.84732,37.70499 315.15268,37.70499C314.13599,37.70499 313.20001,37.7049 312.29999,37.70499C311.39999,37.70507 310.52588,37.91259 309.89999,38.27965C309.12848,38.73213 308.28531,39.21527 307.5,39.53832C306.64041,39.89193 306.0672,38.86444 306.55716,38.06215C307.00806,37.32384 307.98761,37.17114 308.70132,36.50499C309.24786,35.99485 310.15292,35.397 310.71066,35.10499C311.69272,34.59082 312.29892,34.30283 313.10001,33.90499C314.10315,33.40679 314.71967,33.07634 315.66666,32.87165C316.44296,32.70386 317.28845,32.75967 318.33334,32.53832C319.27112,32.33965 319.84006,32.0031 320.74734,31.40949C321.38519,30.99215 322.32486,30.72299 323.33334,30.70499C324.0892,30.69149 325,30.70499 325.91068,30.70499C326.8215,30.70499 327.71066,30.70499 328.69983,30.70499C329.47916,30.70499 330.33334,30.70499 331.21335,30.70499C332.11066,30.70499 333,30.70499 333.89999,30.70499C334.79999,30.70499 335.74939,30.5591 336.60016,30.92632C337.31909,31.23663 338.15176,31.66417 339.01599,31.70365C339.86343,31.74237 340.65637,32.30556 341.10001,32.85432C341.74078,33.64693 342.72906,33.81464 343.21466,34.50632C343.71494,35.2189 344.18384,36.0536 344.85184,36.34782C345.71487,36.72794 346.61566,37.13729 347,37.72582C347.52164,38.5246 348.04111,39.17649 348.60001,40.02632C349.03287,40.68451 349.46436,41.56756 350,42.18415C350.6608,42.94482 351.30768,43.47084 352.04251,44.02649C352.73383,44.54923 353.35037,44.79954 354,45.70499C354.52768,46.44044 354.49408,47.17298 354.78534,48.38765C354.91428,48.92533 355.12085,49.73928 355.70001,50.73565C356.1395,51.49173 356.7132,52.1832 357.10001,52.91565C357.61761,53.89579 357.95468,54.48143 358.21466,55.30499C358.52209,56.27893 358.39038,57.05474 358.51068,58.07965C358.62372,59.04287 359.10922,59.66948 359.37851,60.68365C359.57941,61.44023 359.5,62.35765 359.5,63.22099C359.5,64.07965 359.5,65.02632 359.5,65.87965C359.5,66.81966 359.5,67.70499 359.5,68.50499C359.5,69.40498 359.5,70.34099 359.5,71.18899C359.5,72.05232 359.5,73.05832 359.5,73.92648C359.5,74.80499 359.5,75.70499 359.5,76.50499C359.5,77.40498 359.5,78.30499 359.5,79.20499C359.5,80.10499 359.5,81.00499 359.5,81.90498C359.5,82.80515 359.5,83.59032 359.5,84.53032C359.5,85.53832 359.5,86.36632 359.5,87.24765C359.5,87.95565 359.5,88.93699 359.5,89.89516C359.5,90.87165 359.5,91.70499 359.5,92.68365C359.5,93.45766 359.5,94.35765 359.5,95.22099C359.5,96.07965 359.40854,97.03513 359.53601,97.87965C359.68127,98.8422 360.26309,99.4276 360.44284,100.35765C360.60699,101.20707 360.45798,102.10051 360.66666,103.03832C360.87369,103.96867 361.17731,104.69217 361.37866,105.56216C361.58337,106.44661 361.81985,107.37759 362.2045,108.05232C362.65741,108.84682 363.25546,109.42332 363.7955,110.35765C364.18414,111.03007 364.37726,111.97191 364.66666,112.87165C364.88455,113.54909 365.28448,114.23297 365.89999,115.07965C366.48425,115.88335 366.94485,116.50681 367.21466,117.22099C367.57675,118.17941 367.80127,119.18198 368.07468,119.87965C368.44064,120.81351 368.56522,121.53752 369.07068,122.47565C369.34811,122.99059 369.90796,123.81467 370.5,124.70499C370.89929,125.30545 371.29999,125.90498 371.89999,126.80499C372.5,127.70499 372.90247,128.31813 373.36401,128.97966C373.90952,129.76155 374.2403,130.2072 374.612,130.70232C375.49356,131.87653 376.02655,132.55498 376.60266,133.29031C377.21014,134.0657 377.84042,134.86172 378.47916,135.66331C379.11108,136.45638 379.72543,137.22313 380.31067,137.94632C381.33087,139.20699 381.74942,139.71159 382.10132,140.13832C382.39539,140.49492 382.78281,140.70486 383.20532,141.57832C383.63614,142.46896 383.58798,143.58817 384.02084,144.18416C384.60229,144.98476 385.23914,145.49629 385.52533,146.34099C385.80994,147.18105 386.06146,147.91231 386.70001,148.82098C387.16547,149.48334 387.68927,150.19531 388.10001,150.87965C388.58719,151.69136 389.25555,152.42764 389.44284,153.35765C389.58038,154.0406 389.43079,155.10104 389.72134,156.02632C389.94116,156.72626 390.22858,157.57199 390.55267,158.40048C390.89468,159.27473 391.42892,160.02129 391.48932,160.87965C391.5553,161.8174 391.5,162.70499 391.5,163.50499C391.5,164.40498 391.5,165.34099 391.5,166.18898C391.5,167.05232 391.5,167.95232 391.5,168.87166C391.5,169.70499 391.5,170.68365 391.5,171.45766C391.5,172.36665 391.5,173.16666 391.5,174.12633C391.5,174.93031 391.5,175.75232 391.5,176.78333C391.5,177.66331 391.5,178.68365 391.5,179.45766C391.5,180.36215 391.5,181.10948 391.5,182.30049C391.5,183.04782 391.5,183.95232 391.5,184.87166C391.5,185.72581 391.5,186.70499 391.5,187.50499C391.5,188.30499 391.5,189.30499 391.5,190.10498C391.5,191.10498 391.5,191.90498 391.5,192.90482C391.5,193.68416 391.5,194.68349 391.5,195.50365C391.5,196.34099 391.5,197.36215 391.5,198.10948C391.5,199.10365 391.5,199.86899 391.5,200.95682C391.5,201.67432 391.5,202.71033 391.5,203.45432C391.5,204.37166 391.49747,205.22581 391.5,206.20499C391.50226,207.0675 391.47903,207.72934 391.58533,208.73833C391.68317,209.66716 391.93854,210.45341 392.2045,211.21033C392.60364,212.34631 392.80737,213.00728 392.97916,213.70499C393.23221,214.73282 393.3736,215.66261 393.5,216.66331C393.58078,217.30273 393.88965,218.29233 394.14734,219.10498C394.46024,220.09167 394.49466,220.90494 394.5,221.90498C394.50427,222.70497 394.5,223.70499 394.5,224.50499C394.5,225.30499 394.49612,226.30051 394.5,227.04782C394.50534,228.0797 394.70563,229.03351 395.02084,229.72581C395.28799,230.31258 395.81192,231.30397 396.10001,231.94098C396.51743,232.86397 396.823,233.64917 397.064,234.47966C397.36844,235.52876 397.43393,236.25839 397.55267,237.21481C397.65512,238.03983 397.84778,239.01259 398.02084,239.70499C398.19507,240.40208 398.57935,241.67035 398.89999,242.43298C399.18204,243.10384 399.72806,244.0921 399.97916,244.70499C400.38135,245.68666 400.45715,246.49458 400.5,247.53831C400.53107,248.29454 401.11813,249.0153 401.41467,249.90498C401.70056,250.76263 401.52707,251.70544 401.5,252.50499C401.47141,253.34927 400.69852,253.72229 399.79999,253.70499C398.89944,253.68765 398.11844,253.22769 397.33334,252.70499C396.69644,252.28094 395.96475,252.04871 395.02084,251.70499C394.17972,251.3987 393.57538,250.61211 392.89999,250.14099C392.16641,249.62929 391.14337,249.84155 390.29999,249.42099C389.63837,249.09106 388.95187,248.49069 388.33334,247.87166C387.71558,247.25342 387.57822,246.48909 387.41467,245.81966C387.17654,244.84503 386.65967,244.21443 386.11066,243.33032C385.63165,242.55898 385.60342,241.85338 385.33334,240.70499C385.18854,240.08931 384.78983,239.26074 384.62149,238.28366C384.48419,237.48686 384.51428,236.65756 384.49985,235.62665C384.48752,234.74651 384.2941,233.89067 383.92532,233.07965C383.54233,232.23738 383.55423,231.47516 383.2785,230.50499C383.04498,229.68335 382.68997,229.10924 382.20001,228.10048C381.89456,227.4716 381.49423,226.5405 381.20001,225.75232C380.89398,224.93253 380.50671,223.8688 380.20001,223.15765C379.9064,222.47687 379.5011,221.53789 379.1955,220.74782C378.8652,219.89386 378.64307,219.28929 378.17868,218.40515C377.70328,217.50005 377.3085,216.95119 376.66666,215.87166C376.24603,215.16417 375.88855,214.489 375.5,213.53831C375.1817,212.75955 374.9072,211.9276 374.70001,211.38899C374.31335,210.38376 373.88242,209.48694 373.5,208.53831C373.18546,207.75804 373.01187,207.20053 372.70001,206.38899C372.31458,205.38593 371.9357,204.52895 371.39999,203.72615C370.93039,203.0224 370.3938,202.16492 370.10001,201.45432C369.79352,200.71298 369.41214,199.83966 368.89999,199.09032C368.41147,198.37552 367.99585,197.68628 367.5,196.70499C367.19748,196.10626 366.80811,195.30089 366.39984,194.50499C365.9873,193.70076 365.65677,193.07104 364.84732,192.10948C364.35028,191.51906 363.63925,190.89722 363.13599,190.33032C362.46164,189.57071 362.13095,188.86078 361.70001,188.18898C361.13913,187.31462 360.39999,186.60498 359.89999,186.10498C359.20001,185.40498 358.5,184.70499 358,184.20499C357.29999,183.50499 356.75433,182.84404 356.10001,182.31566C355.35483,181.7139 354.37595,181.51192 353.79999,181.00049C353.06772,180.35028 352.3345,179.98163 351.5,179.53831C350.86609,179.20157 350.62445,178.13719 350.14734,177.40948C349.6619,176.66905 348.71426,176.48134 348.06799,175.98898C347.38693,175.47012 347.14777,174.54126 346.44733,174.05765C345.87747,173.6642 345.17664,174.41794 344.74283,175.22832C344.31448,176.0285 344.01297,176.67284 343.67465,177.36632C343.3222,178.08879 342.96048,178.81247 342.38535,180.21832C342.12527,180.85405 341.93613,181.46834 341.5,182.53831C341.20789,183.25493 340.73169,184.14465 339.95749,184.90498C339.52347,185.33124 338.67313,185.80736 338,186.70499C337.59067,187.25085 337.53812,188.27927 337.07468,189.05832C336.61337,189.83382 336.19751,190.47806 335.55267,191.05765C334.96561,191.58531 334.16986,191.61339 333.32535,191.74098C332.36411,191.88622 331.6857,192.38318 330.89999,192.73032C330.08188,193.09178 329.22144,193.44844 328.40018,193.92648C327.77209,194.29208 327.36276,195.14674 326.784,195.78899C326.19864,196.43855 325.52121,196.76381 324.73199,196.99033C323.99289,197.20245 323.19244,197.38506 322.172,198.10498C321.43588,198.62431 321.02899,199.31715 320.01599,199.62099C319.34622,199.82187 318.3526,199.94955 317.70132,200.50632C316.95996,201.14011 316.3009,201.65019 315.33334,201.70499C314.50107,201.75212 313.57788,201.74446 312.94666,202.27965C312.20255,202.91054 312.15964,203.89357 311.29999,204.53566C310.6048,205.0549 309.89706,205.3773 309.01599,205.62099C308.17355,205.85399 307.3313,206.20172 306.5,206.53831C305.74283,206.84489 304.81906,206.80875 304.41599,207.50632C303.96225,208.29152 303.5,209.06215 303.5,209.90765C303.5,210.67566 303.5,211.71481 303.5,212.49033C303.5,213.53831 303.5,214.24782 303.5,215.10048C303.5,216.10498 303.5,216.90498 303.5,217.90498C303.5,218.70499 303.5,219.70499 303.5,220.50499C303.5,221.30499 303.49634,222.34583 303.53601,223.22899C303.55356,223.61967 303.66568,225.20506 303.72134,225.89716C303.7829,226.66241 303.8526,227.48349 303.92532,228.34366C303.99991,229.22581 304.0755,230.11293 304.14734,230.98816C304.2168,231.83426 304.3356,233.37151 304.37851,234.03282C304.41669,234.62086 304.47305,235.60608 304.48932,236.38365C304.51346,237.53812 304.5,238.24782 304.5,239.10048C304.5,240.10498 304.5,240.90498 304.5,241.90498C304.5,242.70499 304.5,243.70499 304.5,244.50499C304.5,245.30499 304.5,246.30049 304.5,247.04782C304.5,248.07965 304.49939,249.02632 304.5,249.87965C304.50067,250.82098 304.5611,251.5981 304.92532,252.53032C305.19803,253.22829 305.48956,254.18398 305.5,255.10498C305.51019,256.00491 305.27444,257.12595 305.94266,257.58365C306.53809,257.99152 307.47916,258.2251 307.5,259.10498C307.5213,260.00473 307.82535,261.18463 307.14282,261.64783C306.44382,262.12219 305.39999,261.70499 304.5,261.70499C303.70001,261.70499 302.66666,261.70499 301.88934,261.70499C301,261.70499 300.10001,261.70499 299.20001,261.70499C298.29999,261.70499 297.39999,261.70499 296.5,261.70499C295.70001,261.70499 294.73706,261.74246 294,261.18414C293.2233,260.59579 292.8223,259.88965 292.47467,259.10498C292.1124,258.28723 291.54272,257.508 291.5,256.60498C291.45749,255.70599 291.46896,254.93881 291.14734,254.04782C290.87457,253.29222 290.55234,252.30739 290.51068,251.50499C290.45883,250.5061 290.5,249.68416 290.5,249.01965C290.5,248.01965 290.5,247.18416 290.5,246.30365C290.5,245.10498 290.5,244.50499 290.5,243.60498C290.5,242.40515 290.5,241.80949 290.5,240.94098C290.5,239.87166 290.5,239.16216 290.5,238.30949C290.5,237.30499 290.5,236.50499 290.5,235.50499C290.5,234.70499 290.55313,233.70247 290.48932,232.91565C290.40399,231.86353 289.85028,231.25534 289.58533,230.21965C289.4046,229.51324 289.5,228.50499 289.5,227.70499C289.5,226.70499 289.5,225.91565 289.5,224.87166C289.5,224.07965 289.60764,223.20695 289.44284,222.35765C289.26321,221.43193 288.58502,220.71759 288.50134,219.90498C288.40915,219.00972 288.64597,217.98224 288.064,217.31566C287.45444,216.61746 286.82233,216.1382 286.064,215.74098C285.30179,215.34174 284.69351,215.0336 283.97916,214.72581C283.07971,214.33829 281.85339,214.52045 281.52084,215.22581C281.14127,216.0309 281.5,217.02632 281.5,217.87965C281.5,218.81966 281.66327,219.73982 281.41467,220.50499C281.15771,221.29588 280.55136,222.18468 280.51068,222.84366C280.44394,223.92465 280.35486,224.88066 280.07468,225.51965C279.69534,226.38481 279.54755,227.25864 279.14734,228.00499C278.69485,228.84886 278.34451,229.52083 277.64932,230.11565C277.07907,230.60356 276.53839,231.53868 276.50266,232.30632C276.45642,233.29942 276.65527,234.06134 276.48932,235.06898C276.34641,235.93684 275.61075,236.69545 275.50134,237.50499C275.38055,238.39876 274.95142,239.0415 274.58401,239.90633C274.19403,240.82426 274.10468,241.55342 273.69867,242.22099C273.16245,243.10266 272.70294,243.9525 272.33334,244.70499C271.99139,245.4012 271.25616,246.16692 270.936,246.87965C270.5242,247.7964 270.46671,248.60895 270.14282,249.35765C269.75732,250.24873 269.16983,250.92973 268.70001,251.58899C268.16925,252.33376 268.04245,253.1338 267.52533,254.05832C267.11212,254.79706 266.0412,254.95908 265.62134,255.80516C265.26059,256.53217 265.15302,257.36697 264.7955,258.1095C264.31363,259.11035 264.08704,259.74188 263.39984,260.68347C262.92084,261.33981 262.17709,261.80234 261.5,262.20499C260.6647,262.70172 259.96555,263.1524 259.30133,263.90631C258.73492,264.54919 258.65353,265.37982 258.41599,266.22098C258.16644,267.10458 257.39999,267.80499 256.79999,268.405C256.20001,269.00497 255.52943,269.73758 254.97917,270.20499C254.2168,270.85254 253.2885,270.98801 252.743,271.80499C252.22533,272.58026 252.52664,273.49493 252.14284,274.35315C251.77551,275.17453 250.94362,275.62488 250.47467,276.31564C249.97491,277.05182 249.30246,277.72931 248.85716,278.405C248.38551,279.12067 247.76883,279.55637 247.11067,280.14099C246.4169,280.75723 246.30901,281.83087 245.7955,282.405C245.23195,283.0351 244.57288,283.79431 243.89999,284.26898C243.16519,284.78735 242.35576,285.08066 241.5,285.53833C240.70856,285.96161 240.218,286.66226 239.40016,286.70499C238.47594,286.75327 237.69826,286.73218 236.8,286.70499C235.85587,286.67639 235.88554,285.78018 235.44284,285.06216C234.9888,284.32578 234.02209,284.09619 233.17883,283.82632C232.38779,283.57318 231.61649,283.17657 231.48933,282.29431C231.356,281.36914 231.01491,280.68341 230.5,279.87164C230.05113,279.164 229.62103,278.37698 229.536,277.45432C229.46765,276.7128 229.5976,275.65869 229.41467,274.82233C229.23961,274.02191 228.76753,273.31952 228.58533,272.30499C228.4433,271.51416 228.5,270.50516 228.5,269.72583C228.5,268.7265 228.5,267.90631 228.5,267.00497C228.5,266.10498 228.49776,265.20499 228.5,264.30499C228.50226,263.405 228.76611,262.48541 229.26167,261.94781C229.95746,261.19299 230.52084,260.68414 231.10133,260.10367C231.90001,259.30499 232.5,258.70499 232.89999,258.30499C233.69983,257.50516 234.28934,256.91565 234.84283,256.36215C235.61467,255.59032 236.23476,255.04616 236.89999,254.29433C237.53958,253.57149 237.87103,252.86205 238.3,252.18898C238.86299,251.30562 239.32014,250.83353 239.89999,249.87965C240.31459,249.19763 240.85303,248.48734 241.3,247.73566C241.75653,246.9679 241.96666,246.19041 242.3,245.47299C242.75542,244.49284 243.33209,243.84213 243.8,243.04782C244.23022,242.31747 244.60001,241.50499 245,240.70499C245.5,239.70499 245.76566,239.09006 246.2,238.36215C246.75298,237.43542 247.26245,236.6787 247.55267,236.00499C247.9153,235.16319 248.47141,234.4019 248.5,233.53831C248.52896,232.66379 248.5,232.01833 248.5,231.02232C248.5,230.22581 248.5,229.03831 248.5,228.22581C248.5,227.22099 248.5,226.53032 248.5,225.46666C248.5,224.62099 248.5,223.81831 248.5,222.89032C248.5,221.94781 248.50533,221.0943 248.5,220.20499C248.49466,219.31561 247.92636,218.41727 247.11067,218.71565C246.37828,218.98357 246.55785,220.13426 246.27867,221.02649C246.05386,221.74495 245.65103,222.70238 245.52533,223.50499C245.40041,224.3027 245.11855,225.29497 244.85266,226.10498C244.59288,226.89638 244.55327,227.73483 244.33333,228.87166C244.1797,229.66568 243.99896,230.21207 243.69867,231.02098C243.32445,232.02907 242.89778,232.89323 242.5,233.70499C242.10849,234.50392 241.74075,235.29507 241.584,236.10498C241.43057,236.89771 241.31372,237.91905 240.97917,238.70499C240.54486,239.72527 240.20003,240.30501 239.8,241.10498C239.40002,241.90483 239.03941,242.70848 238.5,243.53831C238.05255,244.22667 237.66309,245.03456 237.47467,245.87965C237.26251,246.83124 236.66379,247.47227 236.51067,248.30499C236.34781,249.19069 236.07321,250.11377 235.5,250.70499C234.90935,251.31419 234.07382,251.92174 233.66667,252.70499C233.28,253.44884 232.94102,254.19955 232.39999,255.02632C231.96864,255.6855 231.45822,256.50934 231.02083,257.18414C230.50592,257.97855 230.53317,258.87308 230.47917,259.74664C230.43918,260.39365 230.24229,261.39636 229.97917,262.18414C229.72505,262.94498 229.18272,263.883 228.7,264.58765C228.18112,265.34506 227.79898,266.05164 227.2045,266.95233C226.78461,267.5885 226.61688,268.55121 226.416,269.22098C226.11217,270.23398 225.19888,270.83807 224.85716,271.46216C224.40289,272.29178 224.55463,273.29291 224.064,274.069C223.53432,274.90686 222.94273,275.35083 222.2,276.00049C221.53555,276.58167 220.7229,276.82846 219.89999,277.27966C219.11987,277.7074 218.19936,277.80228 217.2785,277.70483C216.48682,277.62106 215.79887,277.00162 215.2,276.405C214.49867,275.7063 213.94942,275.21967 213.39999,274.38348C212.95758,273.71017 212.50734,272.70123 212.2,272.1095C211.80928,271.35727 211.09465,270.51767 210.78534,269.82098C210.38181,268.91211 210.51196,268.24326 210.49867,267.01965C210.49269,266.46893 210.48993,265.59308 210.27867,264.405C210.17114,263.80026 209.87862,262.91412 209.66667,261.70499C209.56213,261.10858 209.51175,260.20514 209.50133,259.30499C209.49092,258.40521 209.5,257.51566 209.5,256.66214C209.5,255.62631 209.49879,254.93031 209.5,254.02098C209.50134,253.01965 209.47658,252.17213 209.67067,251.30365C209.87544,250.38739 210.35506,249.50502 210.72133,248.94098C211.08612,248.37923 211.88977,247.38095 212.5,246.72581C212.89349,246.30334 213.69983,245.50516 214.28934,244.91565C214.84283,244.36215 215.61467,243.59032 216.1955,243.00949C216.89999,242.30499 217.49904,241.70403 218.10001,241.10498C218.79887,240.40836 219.57079,240.00812 220.2,239.59515C220.90939,239.12956 221.24954,238.15015 221.8,237.46216C222.44421,236.657 223.10631,236.12532 223.47467,235.30499C223.82674,234.52095 224.25912,233.98157 224.7955,233.05232C225.18378,232.37967 225.37727,231.43806 225.66667,230.53831C225.88455,229.86089 226.54063,228.89868 226.88933,228.33032C227.44659,227.42198 227.35822,226.66168 227.7215,225.72615C228.00589,224.99377 228.62111,224.17065 228.88933,223.45432C229.16495,222.71823 229.25337,221.61835 229.66667,220.70499C229.96581,220.04395 230.34758,219.19064 230.51067,218.30499C230.66377,217.47356 231.35182,216.93637 231.4955,216.00499C231.63272,215.11549 231.5,214.20499 231.5,213.30499C231.5,212.40498 231.5,211.50499 231.5,210.60498C231.5,209.70499 231.5,208.90498 231.5,208.00499C231.5,207.10498 231.5,206.20499 231.5,205.30499C231.5,204.40498 231.5,203.50499 231.5,202.60515C231.5,201.67966 231.5,200.90366 231.5,200.00499C231.5,199.10498 231.80989,198.14526 231.48933,197.31566C231.18295,196.52274 230.68272,195.97432 230.464,195.10498C230.24458,194.23285 229.6032,193.54675 229.52083,192.68416C229.42773,191.7092 229.64415,190.86061 229.32933,190.19032C228.86681,189.20552 227.93716,188.98888 227.52083,188.18416C227.05659,187.28688 226.80501,186.56549 226.58533,185.59032C226.38986,184.72263 226.38013,183.92513 225.92534,183.10498C225.49159,182.32277 225.04382,181.59915 224.66667,180.70499C224.34398,179.93993 224.53943,178.93604 224.47917,178.22581C224.392,177.19832 223.71239,176.64835 223.536,175.84366C223.32773,174.89355 223.5,173.95232 223.5,173.04332C223.5,172.24332 223.5,171.28366 223.5,170.47966C223.5,169.65765 223.5,168.62665 223.5,167.74666C223.5,166.87166 223.5,165.99165 223.5,165.09431C223.5,164.18416 223.5,163.22099 223.5,162.53032C223.5,161.46216 223.45227,160.60388 223.5,159.70499C223.54272,158.90025 224.2448,158.16727 224.464,157.30499C224.68597,156.43185 224.82613,155.66832 225.216,154.90498C225.60054,154.1521 225.44188,152.93642 226.2045,152.70949C227.02831,152.46436 227.46167,152.12987 228.11067,151.67966C228.834,151.1779 229.20166,150.26122 229.94284,149.82649C230.59039,149.44669 231.82347,149.83679 232.44733,149.35233C233.1196,148.83026 233.4366,147.93021 234.2045,147.70949C235.06517,147.46211 236.06241,147.80565 236.7955,147.35233C237.61069,146.84825 238.36133,146.70499 239.33333,146.70499C240.08934,146.70499 241.064,146.70499 241.936,146.70499C242.8,146.70499 243.78113,146.56766 244.44733,147.05765C245.13155,147.5609 245.89999,147.70499 246.8,147.70499C247.69867,147.70499 248.55577,147.78159 249.5,147.70499C250.20695,147.64763 250.81508,146.78563 251.3,146.27298C251.99496,145.53828 252.6953,145.13263 253.2,144.35315C253.69673,143.58598 254.24965,142.94475 254.98534,142.22099C255.51546,141.69948 256.08429,141.16566 256.89868,140.58899C257.64896,140.05772 258.37259,139.56808 258.86401,138.87965C259.33813,138.21545 259.94431,137.36201 260.5,136.53831C260.93607,135.89192 261.2934,135.10031 261.70001,134.30632C262.09366,133.53769 262.64047,132.75403 263.10001,132.04366C263.65048,131.19267 263.88339,130.43112 264.25717,129.65315C264.63925,128.85789 265.16824,128.16936 265.67465,127.47965C266.35461,126.55357 266.64127,126.03076 266.97916,125.18415C267.32635,124.31419 267.60593,123.4073 267.88934,122.52632C268.14841,121.72109 268.31967,120.83424 268.55267,119.95682C268.79654,119.03853 269.23877,118.44868 269.88934,117.75565C270.44681,117.16181 270.48724,116.27837 270.784,115.30632C271.02304,114.52332 271.32779,113.71326 271.58401,112.82098C271.80875,112.03836 272.19138,111.18108 272.47467,110.34099C272.75949,109.49632 273.38925,108.71453 273.49866,107.90498C273.61945,107.01122 273.92532,106.30499 274.41467,105.50499L274.5,104.60499L274.5,103.70499L274.72134,102.82632" id="svg_1" stroke-width="3" stroke="#000" fill="none"/>
  <path t="22823,23093,23117,23117,23152,23168,23204,23254,23277,23388,23428,23443,23460,23477,23495,23495,23525,23557,23558,23577,23592,23611,23611,23625,23645,23678,23678,23696,23712,23712,23729,23729,23746,23746,23763,23782,23799,23822,23839,23839,23854,23873,23891,23906,23926,23926,23942,23962,23978,23978,23996,24016,24016,24033,24051,24066,24086,24104,24104,24121,24139,24139,24154,24172,24173,24192,24207,24207,24226,24227,24246,24246,24261,24277,24295,24313,24313,24334,24350,24369,24386,24386,24402,24402,24418,24439,24453,24473,24489,24489,24508,24524,24543,24543,24562,24577,24597,24611,24631,24631,24644,24658,24658,24675,24675,24692,24692,24692,24692,24692,24709,24710,24726,24726,25097,25114,25114,25131,25132,25149,25169,25169,25185,25202,25220,25248,25266,25312,25329,25360,25377,25397,25412,25430,25447,25447,25465,25465,25482,25482,25499,25499,25516,25516,25534,25551,25551,25567,25585,25585,25602,25603,25620,25620,25637,25638,25655,25655,25672,25672,25689,25689,25706,25706,25724,25724,25744,25744,25761,25761,25777,25778,25778,25794,25794,25811,25811,25828,25828,25828,25845,25862,25862,25862,25878,25896,25896,25912,25929,25929,25946,25946,25964,25964,25982,25982,25999,25999,26021,26022,26037,26057,26057,26074,26074,26091,26107,26125,26125,26144,26168,26168,26168,26181,26201,26201,26216,26216,26236,26236,26250,26250,26267,26284,26284,26301,26301,26318,26319,26335,26353,26353,26372,26389,26408,26423,26443,26460,26477,26477,26494,26512,26531,26541,26571" d="M226.5,147.70499C224.936,147.05832 224.54735,146.22522 224.5045,145.41483C224.45204,144.42236 224.10344,143.7019 223.51067,143.13033C223.02252,142.65962 222.5,142.09438 222.5,141.20499C222.5,140.3156 223.0377,139.86864 223.89999,139.69432C224.8437,139.50354 225.53824,138.97107 226.3,138.62099C227.04973,138.27643 227.63562,137.42026 228.3,136.99033C229.08151,136.4846 229.48199,135.84416 229.5,134.87166C229.51596,134.00964 229.5,133.10498 229.5,132.22581C229.5,131.26215 229.5,130.51965 229.5,129.58899C229.5,128.53831 229.5,127.87965 229.5,126.87165C229.5,126.07965 229.5,125.05232 229.5,124.35765C229.5,123.34099 229.5,122.40498 229.5,121.50499C229.5,120.60499 229.5,119.70499 229.5,118.90498C229.5,118.00499 229.50243,117.08512 229.07466,116.30499C228.62346,115.48209 228.26605,114.74671 227.85266,114.00499C227.42703,113.2413 227.15758,112.39115 226.5,111.70499C225.91289,111.09236 225.15984,110.59918 224.66667,109.70499C224.30092,109.0418 223.5493,108.78924 222.936,108.09432C222.34723,107.42719 222.23549,106.27361 221.5,105.87165C220.76434,105.4696 219.99486,105.18941 219.3,104.50499C218.69548,103.90953 218.10001,103.30499 217.39999,102.60499C216.8,102.005 216.17871,101.42564 215.5,100.70499C214.91721,100.08617 214.62279,99.21372 214.47467,98.53032C214.2681,97.57715 213.60863,96.98333 213.02083,96.20499C212.46358,95.4671 212.67348,94.44771 212.33333,93.70499C211.96576,92.9024 211.11525,92.46297 210.62134,91.60516C210.1967,90.86765 209.30472,90.59883 208.68533,90.26899C207.78348,89.78872 207.45108,89.00541 207,88.20499C206.55193,87.4099 206.04292,86.9416 205.30133,86.41965C204.51971,85.86954 204.39513,85.02832 203.69867,84.62099C202.87285,84.13799 202.30452,83.50044 201.7,82.90498C201.00514,82.22056 200.04291,81.92638 199.52533,81.26899C199.0159,80.62195 198.46176,79.97107 197.7,79.62099C196.95026,79.27644 196.26247,78.53526 195.8,77.94782C195.25179,77.25146 194.86186,76.42339 194.33333,75.37165C194.01471,74.73763 193.67467,74.05432 193.32533,73.35565C192.98399,72.67299 192.42638,71.45502 192.02083,70.78832C191.5463,70.00821 191.07257,69.33608 190.2785,68.82648C189.53197,68.3474 188.61467,68.70499 187.67467,68.70499C186.98399,68.70499 185.96915,68.63025 185.01733,68.99032C184.33246,69.2494 183.6633,70.04626 183.07466,70.67966C182.54463,71.24998 181.98196,71.86388 181.416,72.42099C180.74487,73.08162 179.93321,73.38268 179.536,74.14098C179.13673,74.9032 178.81758,75.52294 178.51067,76.31565C178.22179,77.06175 178.59146,78.03513 178.464,78.87965C178.31874,79.84221 177.73973,80.42828 177.55716,81.36215C177.41342,82.09743 177.5,83.10499 177.5,83.90498C177.5,84.90482 177.5,85.86899 177.5,86.81966C177.5,87.70499 177.5,88.50499 177.5,89.34099C177.5,90.36215 177.5,91.10949 177.5,92.10499C177.5,92.90498 177.5,93.90482 177.5,94.68415C177.5,95.68365 177.5,96.45766 177.5,97.36215C177.5,98.10949 177.4454,99.10938 177.536,99.90498C177.65105,100.91536 177.96542,101.71768 178.5,102.53832C178.95485,103.23657 179.63696,104.00687 179.97917,104.70499C180.37772,105.51803 180.47084,106.34872 180.78534,107.19032C181.0636,107.93497 181.62756,108.89242 181.97917,109.70499C182.23514,110.29654 182.40778,111.3112 182.55267,112.10499C182.73685,113.11403 183.0591,113.95029 183.82133,114.68349C184.27864,115.12337 185.09758,115.40414 185.864,116.11565C186.58803,116.78782 186.86906,117.54919 187.3,118.22099C187.86089,119.09534 188.68147,119.74008 189.064,120.30499C189.63525,121.14861 189.73927,122.0196 190,122.72582C190.35823,123.69615 190.31093,124.5382 190.66667,125.53832C190.91351,126.23229 191.73715,126.87502 192.2,127.46215C192.74615,128.15497 193.03455,128.9248 193.7,129.81966C194.15733,130.43465 194.89999,131.10498 195.5,131.70499C196.10001,132.30499 196.79625,133.00877 197.3,133.50499C197.99486,134.18942 198.87285,134.50037 199.7,134.99033C200.38087,135.39363 200.87463,136.15341 201.66667,136.70499C202.29904,137.14537 203.06148,137.4454 203.864,138.10498C204.64871,138.74992 205.1004,139.37146 205.98399,139.62099C206.8252,139.85854 207.73906,140.07425 208.384,140.50632C209.14319,141.01492 209.83821,141.37752 210.87466,141.67966C211.81384,141.95345 212.47467,142.2784 213.47867,142.58365C214.23769,142.81442 215.14171,143.08493 215.84734,143.35233C216.73045,143.68698 217.53667,144.03111 218.3,144.42099C219.05289,144.80553 220,144.70499 220.89999,144.70499C221.8,144.70499 222.7,144.70499 223.60001,144.70499C224.5,144.70499 225.3,144.70499 226.2,144.70499C227.10001,144.70499 228,144.70499 228.89999,144.70499L229.8,144.70499" id="svg_2" stroke-width="3" stroke="#000" fill="none"/>
  <path t="27689,27880,27911,27966,28975,29001,29021,29041,29058,29094,29094,29111,29129,29129,29129,29161,29193,29240,29297,29322,29345,29362,29393,29427,29427,29457,29474,29497,29514,29531,29549,29566,29567,29584,29602,29602,29619,29636,29636,29656,29656,29673,29689,29706,29723" d="M190.5,89.70499C190.5,91.50499 190.5,92.40498 190.5,93.30499C190.5,94.20499 190.5,95.10499 190.5,96.00499C190.5,96.90366 190.5,97.75765 190.5,98.70499C190.5,99.50499 190.49048,100.37704 190.50017,101.24749C190.51059,102.18432 190.54213,102.8778 191.07466,103.70898C191.54692,104.44611 192.30133,104.70432 193.33333,104.70499C194.11067,104.70549 195,104.70724 195.89999,104.70499C196.80002,104.70274 197.8369,104.52799 198.21466,103.90366C198.70207,103.09811 198.5,102.10499 198.5,101.20499C198.5,100.30499 198.60704,99.39844 198.49867,98.50499C198.38712,97.58519 197.79663,97.00386 197.10001,96.30499C196.50098,95.70402 195.9057,95.129 195,94.70499C194.20486,94.33273 193.67841,93.83199 193.2,93.05232C192.78076,92.36909 192.2045,91.46215 191.66667,90.70499L191.33333,89.87165L190.5,89.70499" id="svg_3" stroke-width="3" stroke="#000" fill="none"/>
  <path t="31362,31576,31615,31640,31666,31712,31730,31760,31778,31847,31895,31951,31977,32008,32035,32048,32080,32112,32159,32159,32199,32263,32416,32463,32479,32501,32516,32536,32536,32550,32569,32569,32585,32609,32704,32743,32759,32792,32825,32857,32911,32945,33063,33089" d="M254.5,90.70499C252.8,90.70499 251.89999,90.70499 251,90.70499C250.02083,90.70499 249.10637,90.45039 248.2045,90.70949C247.43658,90.93011 246.77441,91.5789 246.51067,92.31565C246.21091,93.15302 246.24919,94.14214 246.5045,95.00049C246.73134,95.76313 247.89999,95.70499 248.8,95.70499C249.7,95.70499 250.60001,95.70499 251.5,95.70499C252.3,95.70499 253.20006,95.71565 254.10001,95.70499C254.97935,95.69456 255.84496,95.0136 255.47917,94.22582C255.15074,93.51849 253.97917,93.70499 253.01601,93.70499C252.32533,93.70499 251.25267,93.70499 250.33333,93.70499C249.52083,93.70499 248.60945,93.68021 247.7955,93.70499C246.85585,93.73358 246.03397,94.56711 246.55716,95.34782C247.01637,96.03304 248.2,95.70499 249.10001,95.70499C250,95.70499 250.88933,95.70499 251.4955,95.35232L251.064,94.74099" id="svg_4" stroke-width="3" stroke="#000" fill="none"/>
  <path t="33692,33851,33866,33866,33887,33887,33887,33900,34066,34099,34124,34147,34182,34182,34197,34217,34217,34231,34252,34275,34276,34292,34325,34388,34500,34526,34542,34555,34575,34575,34592,34592,34620,34634,34674,34696,34696,34716,34742,34788,34836,34855,34869,34888,34902,34902,34923,34939,34959,34976,34989,35005,35037" d="M218.5,94.70499C220.32533,94.70499 221.33333,94.70499 222.16133,94.70499C223.04266,94.70499 224,94.70499 224.73199,94.70499C225.68567,94.70499 226.97961,94.37964 227.44284,95.06216C227.9165,95.76003 227.70319,96.85056 227.33333,97.70499C227.0368,98.38998 226.07382,98.92174 225.66667,99.70499C225.28,100.44884 224.75302,101.24291 224.536,102.11565C224.3161,102.99994 224.58858,103.91737 224.07466,104.64365C223.61917,105.28736 223.01939,105.97378 222.2045,105.70049C221.41989,105.43735 222.17548,104.78548 222.89999,104.26899C223.68575,103.70885 224.0994,103.04945 224.98399,102.50632C225.64984,102.0975 226.62013,101.83504 227.5,101.70499C228.3407,101.58073 228.5,100.70499 228.5,99.90498C228.5,99.00499 228.57596,97.8907 227.92534,97.70499C227.09708,97.46857 226.2,97.70499 225.3,97.70499C224.39999,97.70499 223.5,97.70499 222.7,97.70499C221.8,97.70499 220.89999,97.70499 220,97.70499C219.10001,97.70499 218.2,97.70499 217.3,97.70499L216.39999,97.70499" id="svg_5" stroke-width="3" stroke="#000" fill="none"/>
  <path t="36568,36725,36748,36773,36807,36825,36842,36859,36880,36894,36914,36914,36927,36947,36973,37020,37048,37079,37116,37116,37149,37239,37261,37276,37296,37315,37331,37357,37357,37372,37405,37439" d="M228.5,136.70499C230.3,136.70499 231.27342,137.05353 232.064,136.70499C232.68372,136.43176 233.1277,135.71161 233.89999,135.27965C234.71808,134.82207 235.17944,134.13518 235.94667,133.74098C236.72531,133.34091 237.6882,133.86247 238.61333,133.70366C239.45206,133.55968 239.98671,132.8802 240.5,132.18416C241.00761,131.49582 241.43912,130.6111 241.5,129.70499C241.55363,128.90678 241.57216,127.89001 240.88933,127.70499C240.03096,127.4724 239.10001,127.70499 238.2,127.70499C237.3,127.70499 236.39999,127.70499 235.5,127.70499C234.7,127.70499 233.8,127.70499 232.89999,127.70499L232,127.70499" id="svg_6" stroke-width="3" stroke="#000" fill="none"/>
  <path t="39155,39331,39350,39366,39366,39382,39382,39399,39399,39416,39436,39436,39450,39450,39467,39468,39485,39485,39503,39519,39520,39520,39548,39556,39556,39572,39572,39590,39590,39608,39624,39642,39660,39660,39677,39694,39712,39712,39729,39748,39765,39782,39802,39837,39857,39874,39874,39899,39930,39985,40025,40042,40042,40059,40076,40094,40094,40112,40129,40129,40146,40146,40163,40182,40182,40200,40200,40200,40217,40217,40234,40251,40251,40274,40291,40317,40347,40379,40379,40418,40466,40484,40500,40500,40518,40518,40534,40534,40552,40568,40569,40569,40585,40585,40602,40619,40619,40635,40653,40671,40689,40706,40706,40723,40740,40740,40757,40775,40775,40793,40810,40810,40827,40827,40844,40845,40862,40880,40897,40898,40914,40914,40932,40952,40952,40969,40986,41002,41002,41019,41035,41036,41052,41070,41086,41087,41087,41104,41121,41121,41138,41138,41138,41156,41156,41156,41173,41190,41190,41207,41207,41207,41223,41224,41224,41240,41241,41258,41258,41258,41274,41275,41507,41524,41542,41542,41560,41560,41577,41577,41594,41594,41594,41611,41611,41629,41629,41646,41646,41663,41681,41681,41698,41715,41715,41733,41733,41733,41750,41750,41750,41770,41770,41788,41805,41822,41822,41838,41838,41855,41871,41872,41888,41889,41905,41906,41922,41922,41939,41939,41939,41956,41973,41973,41991,41991,42008,42026,42027,42043,42060,42060,42060,42077,42077,42094,42094,42094,42112,42112,42130,42130,42130,42147,42147,42163,42163,42181,42181,42198,42198,42215,42216,42233,42233,42251,42251,42267,42285,42285,42305,42323,42349,42373,42404,42405,42427,42440,42456,42457,42473,42473,42474,42490,42490,42491,42491,42491,42507,42508,42508,42508,42524,42525,42525,42542,42542,42559,42559,42559,42576,42576,42594,42594,42594,42611,42637,42657,42673,42691,42709,42709,42733,42750,42767,42785,42785,42803,42819,42845,42884,42924,42964,42964,42989,43007,43024,43042,43042,43058,43058,43076,43076,43092,43108,43126,43143,43144,43161,43179,43196,43213,43237,43254,43275,43292,43324,43420,43437,43454,43471,43472,43489,43489,43509,43509,43525,43526,43542,43542,43560,43581,43582,43622,43645,43662,43680,43697,43715,43716,43732,43750,43750,43767,43768,43784,43785,43802,43803,43820,43820,43836,43837,43854,43854,43871,43871,43888,43888,43889,43906,43923,43924,43924,43940,43941,43960,43960,43977,43977,43994,43994,44011,44011,44028,44028,44044,44062,44079,44096,44113,44113,44131,44148,44165,44165,44183,44183,44201,44201,44218,44219,44236,44253,44453,44478,44495,44512,44529,44530,44547,44547,44547,44565,44565,44582,44582,44583,44599,44599,44617,44635,44655,44655,44717,44742,44762,44779,44779,44796,44796,44812,44813,44813,44830,44831,44831,44831,44831,44846,44846,44846,44846,44862,44863,44863,44863,44879,44880,44880,44880,44896,44896,44896,44913,44913,44935,44935,44952,44969,44986,45004,45005,45021,45038,45038,45056,45056,45056,45079,45079,45080,45097,45097,45097,45097,45113,45113,45113,45132,45132,45145,45146,45166,45166,45185,45186,45197,45197,45197,45219,45220,45234,45234,45251,45251,45267,45285,45303,45303,45322,45322,45338,45338,45355,45355,45372,45373,45392,45409,45409,45425,45425,45443,45443,45464,45482,45483,45494,45512,45513,45532,45548,45548,45564,45584,45584,45613,45637,45651,45669,45669,45686" d="M181.5,115.70499C179.78534,115.87566 179.64012,116.8078 179.16667,117.53832C178.75955,118.16652 177.64293,118.6753 177.136,119.10499C176.36118,119.76176 175.8,120.40498 175.2,121.00499C174.5,121.70499 174.01111,122.25015 173.17867,122.80499C172.52315,123.24189 171.6377,123.66964 171.02083,124.20499C170.26198,124.86356 169.73085,125.5381 169.08934,126.10499C168.36609,126.7441 167.65269,127.06924 166.98399,127.50499C166.11572,128.07079 165.72346,128.88651 165.47917,129.70499C165.22464,130.55782 164.50752,131.23213 163.66667,131.53831C162.88268,131.82379 162.40646,132.50072 162,133.20499C161.54184,133.99883 161.1326,134.85298 160.784,135.50499C160.33093,136.35237 159.96495,137.19157 159.40016,137.80499C158.7691,138.49039 158.65276,139.4272 158.064,140.09431C157.4507,140.78923 156.76553,141.31554 156.07466,141.66899C155.24449,142.09372 154.24271,141.54128 153.39999,141.92632C152.7307,142.23212 151.90004,142.69965 151,142.70499C150.10002,142.71031 149.12323,142.88844 148.40016,142.48349C147.66281,142.07054 147.53419,140.94986 147.064,140.30499C146.49556,139.52538 145.8,139.00499 145.2,138.40498C144.5,137.70499 143.89999,137.10498 143.3,136.50499C142.7,135.90498 142.02863,135.1055 141.1785,134.82632C140.50415,134.60487 139.49524,134.55258 138.7,134.27965C137.89493,134.00334 136.90567,133.74139 136.15717,133.70949C135.13681,133.666 134.2845,133.43713 133.7,132.90366C132.98029,132.24678 132.20135,131.73358 131.3,131.70499C130.40045,131.67645 129.5,131.70499 128.7,131.70499C127.8,131.70499 126.76233,131.54582 126.11066,132.15166C125.49114,132.72762 125.51042,133.70482 125.5,134.68365C125.49176,135.45761 125.5,136.35765 125.5,137.22099C125.5,138.22581 125.5,139.03831 125.5,139.95566C125.5,140.69965 125.5,141.73566 125.5,142.58765C125.5,143.53032 125.5,144.53831 125.5,145.29433C125.5,146.20499 125.5,147.10498 125.5,148.00499C125.5,148.90498 125.5,149.80516 125.5,150.59032C125.5,151.53032 125.48272,152.53851 125.5,153.29433C125.52084,154.2057 126.10197,154.85963 126.64933,155.30499C127.43981,155.94815 127.5,157.02632 127.5,157.70499C127.5,158.68365 127.5,159.45766 127.5,160.53032C127.5,161.22099 127.5,162.18416 127.5,163.11565C127.5,164.02632 127.5,164.87965 127.5,165.82098C127.5,166.58899 127.5,167.53032 127.5,168.53831C127.5,169.29433 127.5,170.20499 127.5,171.11565C127.5,172.02632 127.5,172.87965 127.5,173.81966C127.5,174.70499 127.5,175.50499 127.5,176.40498C127.5,177.37698 127.5,178.24765 127.5,178.95566C127.5,179.93698 127.5,180.89516 127.5,181.87166C127.5,182.72581 127.5,183.70499 127.5,184.51566C127.5,185.16216 127.5,186.12616 127.5,186.91965C127.5,187.93565 127.5,188.89516 127.5,189.87166C127.5,190.72581 127.5,191.70499 127.5,192.51566C127.5,193.16216 127.5,194.12633 127.5,194.93031C127.5,195.75232 127.5,197.01965 127.5,197.68416C127.5,198.70499 127.5567,199.51416 127.41467,200.30499C127.23245,201.31953 126.73459,202.01732 126.55717,202.94781C126.37732,203.89104 126.54517,204.87395 126.48933,205.53032C126.40287,206.54665 125.93971,207.17854 125.4,208.02649C124.96741,208.70613 124.48551,209.69806 124.2045,210.30499C123.83807,211.09641 123.60712,212.10847 123.47467,212.90498C123.30753,213.91008 123.03243,214.71631 122.5,215.53831C122.06281,216.21329 121.73627,216.97205 121.2785,217.80499C120.90753,218.48001 119.96735,219.04808 119.66666,219.87166C119.36949,220.68562 119.5,221.70499 119.5,222.51566C119.5,223.16216 119.56881,224.13113 119.45834,225.18416C119.37878,225.94249 118.92703,226.72911 118.35067,227.28366C117.60788,227.99834 117.5,228.90633 117.5,229.87166C117.5,230.70499 117.5,231.53831 117.5,232.40048C117.5,233.34099 117.5,234.19032 117.5,234.91565C117.5,236.10365 117.5,236.86899 117.5,237.82098C117.5,238.58899 117.49944,239.55165 117.5,240.39165C117.50067,241.38765 117.44921,242.19379 117.58533,242.93565C117.76453,243.91229 118.50024,244.70474 119,245.20499C119.69901,245.90465 120.05672,246.59245 120.60983,247.40498C121.08553,248.10379 121.99225,248.46135 122.5,249.22581C123.00623,249.98799 123.38712,250.51961 124.01733,251.30632C124.64087,252.0847 124.98745,252.70071 125.5,253.70499C125.80495,254.30249 126.2,255.10498 126.6,255.90498C127,256.70499 127.49265,257.70874 127.8,258.30048C128.19072,259.0527 128.82883,259.93069 129.3,260.58899C129.83372,261.33466 130.16628,262.07532 130.7,262.82098C131.17117,263.47928 131.78062,264.3692 132.2,265.05231C132.67955,265.83344 133.23714,266.43063 133.98399,266.905C134.65773,267.33292 135.63289,267.88458 136.1955,268.405C136.92455,269.07938 137.59399,269.62885 138.064,270.30499C138.6241,271.11078 139.04886,271.65134 139.89999,272.13031C140.62672,272.53928 141.54544,272.8988 142.3,272.61966C143.16959,272.29797 143.42285,271.27869 143.72133,270.38348C143.95944,269.66931 144.38062,268.71106 144.464,267.87299C144.53729,267.13644 144.5,266.20499 144.5,265.45166C144.5,264.61832 144.5,263.745 144.5,262.87164C144.5,261.64798 144.5,260.91931 144.5,259.92633C144.5,259.30765 144.5,258.10632 144.5,257.22583C144.5,256.66214 144.5,255.38899 144.5,254.70499C144.5,253.53831 144.5,252.75682 144.5,251.96632C144.5,251.03831 144.5,250.20499 144.5,249.16232C144.5,248.45432 144.5,247.71033 144.5,246.51932C144.5,245.60498 144.83711,244.55608 144.33333,243.87166C143.85262,243.21858 143.38539,242.48662 142.7955,242.06215C142.0051,241.49339 140.90199,241.37642 140.58533,240.50499C140.27657,239.65529 140.37572,238.92755 139.92534,238.10498C139.49805,237.3246 139.5,236.40498 139.5,235.50499C139.5,234.60498 139.4628,233.70412 139.5,232.90498C139.54271,231.98735 140.26718,231.5576 141.136,231.13033C141.95628,230.72691 142.71318,230.79239 143.616,230.42099C144.43091,230.08575 145.34442,229.81581 146.01601,229.62099C147.02362,229.32867 147.80623,228.82446 148.7,228.70366C149.50955,228.59424 150.1526,227.9048 151,227.72581C151.8808,227.53976 152.78934,227.69135 153.52083,227.20499C154.19972,226.75359 155.1044,226.65445 155.52083,226.20499C156.0417,225.64281 157,225.70499 157.89999,225.70499C158.8,225.70499 159.70142,225.69293 160.66667,225.70499C161.5002,225.71541 162.35692,225.83199 163.12534,226.31566C163.84529,226.76883 164.47018,227.26688 165.47867,227.58365C166.23553,227.82138 167.21761,227.95673 167.79016,228.40948C168.62645,229.07079 169.08875,229.87137 169.79466,230.34782C170.52289,230.83934 171.06886,231.38161 171.464,232.14099C171.86317,232.9081 171.5,233.90498 171.5,234.80516C171.5,235.59032 171.5,236.53032 171.5,237.53831C171.5,238.33032 171.5,239.19032 171.5,239.91565C171.5,241.10498 171.5,241.90498 171.5,242.90482C171.5,243.68416 171.60956,244.55176 171.44284,245.45766C171.30394,246.21236 170.89664,246.9193 170.39999,247.90482C170.00578,248.6871 169.50323,249.54073 169.10001,250.07965C168.50475,250.87523 168.12897,251.54793 167.7,252.22099C167.13701,253.10435 166.48074,253.86052 166.10001,254.54099C165.67833,255.2946 165.26607,256.0878 164.936,256.86899C164.54097,257.80396 164.47581,258.61359 164.064,259.53033C163.74384,260.24304 163.20874,260.96466 162.61467,261.58899C161.86815,262.3735 161.24739,262.80365 160.74283,263.68347C160.35788,264.35474 159.8138,265.12735 159.55716,266.00497C159.30403,266.87057 159.5,267.80499 159.5,268.70499C159.5,269.50497 159.5,270.405 159.5,271.34097C159.5,272.19031 159.5,273.1095 159.5,274.10498C159.5,274.905 159.5,275.90482 159.5,276.68414C159.5,277.53833 159.5,278.40048 159.5,279.30499C159.5,280.20499 159.31551,281.3515 160.02083,281.68414C160.81622,282.05927 161.8045,281.70499 162.8215,281.70499C163.52083,281.70499 164.50105,281.73685 165.3,281.69431C166.10234,281.65158 167.09544,281.32465 167.73599,281.13031C168.90683,280.77509 169.72073,280.77667 170.49017,280.65231C171.54141,280.48239 172.15102,279.95627 172.8,279.40948C173.5571,278.77161 174.47173,278.49329 175.10001,278.13031C175.94566,277.64175 176.33037,277.07428 176.52083,276.20499C176.70744,275.35321 177.35429,274.8511 177.7955,274.04782C178.19225,273.3255 178.4222,272.30173 178.52533,271.39697C178.58775,270.84943 178.71446,269.83945 178.85716,269.03799C179.01315,268.16193 179.20224,267.24817 179.30133,266.78632C179.59335,265.42523 179.79518,264.56546 180,263.74664C180.1954,262.96548 180.49454,261.87003 180.7,261.19031C180.99225,260.22345 181.19933,259.60928 181.60001,258.405C181.79967,257.80487 182.0999,256.90497 182.3,256.30499C182.6998,255.10626 182.99226,254.22301 183.2,253.66216C183.58554,252.62125 184.03165,251.76611 184.33333,250.87166C184.59999,250.08105 185.17747,249.59988 185.584,248.90366C186.06639,248.07748 186.8,247.40498 187.3,246.90498C188,246.20499 188.62534,245.62724 189.136,245.03299C189.85826,244.19252 190.33241,243.4483 190.67467,242.91965C191.34737,241.88062 191.71147,241.13475 192.16133,240.51566C192.7803,239.66382 193.26096,239.29434 194.02083,238.70499C194.54614,238.29755 195.58548,237.51332 196.03833,237.10948C196.66339,236.55206 197.51009,235.75491 197.97917,235.20499C198.64732,234.42166 198.95158,233.67395 199.5,232.87166C199.96092,232.19737 200.70184,231.50415 201.25717,230.94781C201.98334,230.22032 202.54871,229.73209 202.93066,229.10365C203.50163,228.16425 203.46484,227.28145 203.78534,226.30632C204.045,225.51628 204.5027,224.62479 205.10001,224.15166C205.80876,223.59026 206.93936,223.44478 207.33333,222.70499C207.70386,222.00919 207.81583,221.03008 208.2045,220.35765C208.74455,219.42332 209.30127,218.82181 209.8045,218.05232C210.25832,217.3584 210.99557,216.60727 211.47917,216.22581C212.3551,215.53488 212.62651,214.67308 213.11067,214.10498C213.75,213.35481 214.34282,212.84567 214.7955,212.05232C215.1804,211.37775 215.33215,210.27312 215.78534,209.50499C216.18747,208.82341 217,208.20499 217.60001,207.60498C218.2,207.00499 218.89999,206.30499 219.5,205.70499C220.10001,205.10498 220.92618,204.48824 221.33333,203.70499C221.72,202.96114 222.01556,202.19984 222.69867,201.50632C223.32851,200.86688 223.5045,199.99515 223.58533,199.18765L223.92534,198.33032" id="svg_7" stroke-width="3" stroke="#000" fill="none"/>
  <path t="46403,46626,46644,46658,46678,46719,46737,46751,46776,46809,46833,46881,46900,46900,46944,46969,46992,47028,47041,47041,47060,47060,47080,47080,47099,47099,47119,47138,47138,47149,47162,47163,47183,47183,47196,47218,47218,47232,47232,47257,47330,47330,47378,47378,47411" d="M207.5,223.70499C207.5,225.50499 207.5,226.40498 207.5,227.30499C207.5,228.10498 207.49107,229.11055 208,229.70499C208.50636,230.29643 209.23183,230.51772 210.10001,230.74098C210.95239,230.96019 211.66667,231.70499 212.5,231.70499C213.3,231.70499 214.33333,231.70499 215.11067,231.70499C216.064,231.70499 216.36446,231.19438 216.86166,230.40048C217.27724,229.73694 218.01947,229.25418 218.63867,228.53032C219.29799,227.75957 219.46371,226.95149 219.5045,226.05232C219.53607,225.35637 220.08058,224.41632 220.37849,223.60481C220.65222,222.85916 220.5,221.87965 220.5,220.87166C220.5,220.07965 220.5,219.22099 220.5,218.35765C220.5,217.45766 220.50008,216.53831 220.5,215.70499C220.49991,214.72649 220.58267,213.76797 219.92534,213.14099C219.29216,212.53705 218.31467,212.66899 217.38667,212.41965L216.78667,211.90366L216.44733,211.06215" id="svg_8" stroke-width="3" stroke="#000" fill="none"/>
  <path t="48710,48877,48894,48912,48929,48946,48946,48995,48995,49093,49110,49127,49144,49144,49164,49199,49217,49234,49251,49251,49276,49276,49293,49324,49344,49364,49429,49461" d="M138.5,148.70499C138.5,147.00499 138.50212,146.08528 138.07466,145.30499C137.62321,144.48093 137.39383,143.5097 137.064,142.89032C136.58374,141.98846 135.91008,141.79144 135.44284,142.35233C134.90483,142.99815 134.51042,143.72565 134.5,144.68349C134.49109,145.5036 134.51048,146.41971 134.5,147.31566C134.48958,148.20517 133.96474,148.91132 133.62151,149.80516C133.33676,150.54668 133.5,151.53032 133.5,152.22099C133.5,153.29433 133.47917,154.18416 132.92534,154.73032L132.50133,155.42099L132.5,156.31566L132.5,157.20499" id="svg_9" stroke-width="3" stroke="#000" fill="none"/>
  <path t="51121,51350,51368,51392,51411,51422,51440,51440,51457,51478,51491,51514,51524,51544,51544,51576,51702" d="M190.5,141.70499C192.3,141.70499 193.2,141.70499 194.10001,141.70499C194.89999,141.70499 195.85664,141.84154 196.7,141.42099C197.36165,141.09106 198.19998,140.70724 199.10001,140.70499C200,140.70274 200.9471,140.799 201.8,140.35233C202.55223,139.95837 203.3,139.70631 204.2,139.70499L205.10001,139.70499" id="svg_10" stroke-width="3" stroke="#000" fill="none"/>
  <path t="52270,52462,52462,52481,52481,52492,52505,52542,52607" d="M206.5,154.70499C206.5,152.86899 206.5,152.10365 206.5,151.10948C206.5,150.19032 206.5,149.22581 206.5,148.30499L206.5,147.40948L206.5,146.48349" id="svg_11" stroke-width="3" stroke="#000" fill="none"/>
  <path t="55837,56028,56046,56062,56079,56079,56096,56113,56113,56129,56147,56164,56181,56199,56219,56236,56236,56260,56278,56295,56312,56329,56329,56346,56346,56362,56379,56379,56396,56413,56430,56450,56450,56468,56486,56504,56528,56545,56593,56604" d="M162.5,136.70499C164.3,136.70499 165.2,136.70499 166.02083,136.70499C166.98399,136.70499 167.68312,136.8347 168.74283,136.70049C169.62,136.58939 170.26686,135.85913 171.10001,135.71565C171.987,135.5629 172.89999,135.70499 173.8,135.70499C174.7,135.70499 175.60001,135.70499 176.5,135.70499C177.3,135.70499 178.2,135.70499 179.10001,135.70499C180,135.70499 180.91066,135.70499 181.82133,135.70499C182.67467,135.70499 183.616,135.70499 184.384,135.70499C185.32533,135.70499 186.33337,135.69635 187.08934,135.70499C188.00018,135.71541 188.70331,136.24817 189.60001,136.58348C190.45064,136.90157 191.2811,136.82266 192.10001,137.27965C192.87273,137.71086 193.5,138.20499 194.11067,138.69432L194.97917,138.72581L195.55267,139.35233L196.216,139.78899" id="svg_12" stroke-width="3" stroke="#000" fill="none"/>
  <path t="57418,57664,57664,57688,57706,57723,57723,57741,57741,57758,57776,57776,57824,57824,57911,57936,57977,58000,58032,58050,58067,58068,58084,58100,58118,58134,58151,58191" d="M159.5,144.70499C158.16667,143.87166 157.06194,143.42136 156.57201,144.14099C156.08388,144.85799 156.19701,145.89345 155.7955,146.46216C155.17668,147.33867 154.84895,148.04958 154.55267,148.94781C154.27084,149.80228 153.64384,150.38525 153.5,151.27432C153.37502,152.04678 153.29019,153.32739 154,153.68416C154.76608,154.06921 155.8,153.70515 156.7,153.70499C157.59984,153.70482 158.40544,153.38174 158.48933,152.51965C158.57922,151.59595 158.784,150.78899 159.44284,150.34782L159.5045,149.40948L159.92534,148.73032L160.47917,148.20499" id="svg_13" stroke-width="3" stroke="#000" fill="none"/>
  <path t="59065,59378,59402,59425,59443,59459,59481,59560,59600,59600,59618,59635,59654,59672,59800,59833,59850,59868,59885,59885,59905,59905,59922,59923,59939,59955,59977,59977,59994" d="M184.5,144.70499C184.5,146.53831 184.49054,147.3157 184.5,148.20499C184.51042,149.18433 185.07629,149.72931 185.49867,150.42099C185.93771,151.13995 186.52908,151.89537 187.2,152.34782C187.99594,152.8846 188.13736,153.53973 188.66667,154.37166C189.15117,155.13313 190.05215,155.91304 190.464,155.26898C190.92987,154.54045 190.51205,153.50357 190.5,152.53831C190.48958,151.70479 190.42033,150.81329 189.88933,150.11565C189.28969,149.32784 188.77652,148.81598 188,148.22581C187.26202,147.66495 186.39999,147.48366 185.7,146.98898L184.85716,146.65231" id="svg_14" stroke-width="3" stroke="#000" fill="none"/>
  <path t="61276,61483,61500,61518,61518,61535,61553,61571,61571,61588,61606,61624,61624,61643,61660,61660,61693,61711,61728,61728,61745,61762,61779,61779,61796,61813,61814,61831,61848,61866,61867,61890,61914,61914,61950,61968,61985,62003,62038,62081,62107,62139,62171" d="M171.5,165.70499C170.44733,167.40498 169.95821,168.18527 169.30133,168.90498C168.76785,169.48949 168.405,170.29378 167.7955,170.81482C167.15535,171.36208 166.68291,172.19868 166.536,173.06898C166.38002,173.993 166.02979,174.76819 165.35066,175.30499C164.63844,175.86797 164.26245,176.65764 163.85266,177.34782C163.40727,178.09799 163.03807,178.94138 162.66667,179.70499C162.29999,180.45889 161.88762,181.28722 161.52533,182.10498C161.1777,182.88963 160.69896,183.50528 160,184.20499C159.40041,184.80524 158.82645,185.5222 158.47467,186.30499C158.10608,187.12521 157.39999,187.80499 156.89999,188.30499C156.2,189.00499 155.42857,189.64163 154.936,190.26898C154.41577,190.93156 154.12903,191.73946 153.47467,192.27965C152.89552,192.75775 151.92534,192.74098 151.5045,193.40948L151.5,194.30499L151.5,195.20499L151.5,196.10498" id="svg_15" stroke-width="3" stroke="#000" fill="none"/>
  <path t="62910,63132,63164,63182,63198,63215,63232,63249,63266,63284,63301,63301,63319,63319,63319,63336,63354,63354,63354,63371,63371,63388,63405,63423,63441,63459,63474,63474,63500,63524,63541,63565,63582,63620,63638,63655,63673,63691,63691,63707,63743,63743,63765,63799,63820,63838,63855,63876" d="M172.5,165.70499C172.5,167.50499 172.1451,168.49762 172.536,169.26898C172.88979,169.9671 173.49933,170.50632 173.5,171.40498C173.50067,172.30499 173.4021,173.21143 173.51067,174.11565C173.62212,175.04387 174.08134,175.7018 174.33333,176.70499C174.52824,177.48096 174.49925,178.21965 174.5,179.22581C174.50076,180.24765 174.4538,180.96141 174.55716,181.69965C174.70404,182.74866 175.33319,183.47408 175.4955,184.40498C175.65024,185.29251 176.11813,186.01532 176.41467,186.90498C176.70055,187.76263 176.35396,188.7327 176.55716,189.40498C176.82172,190.28027 177.39072,191.04408 177.92534,191.67966C178.47154,192.32899 178.96875,193.01154 179.66667,193.53831C180.35191,194.05551 180.40289,194.68285 181.14667,195.26898C181.85912,195.83043 183.08548,195.51028 183.47867,196.27965C183.93083,197.1644 183.32596,198.29784 184.14734,198.69598C184.91508,199.06813 185.55267,199.35233 186.216,199.78899L186.584,200.50632L187.07466,201.30499" id="svg_16" stroke-width="3" stroke="#000" fill="none"/>
  <path t="64976,65212,65230,65248,65268,65286,65286,65302,65320,65320,65337,65358,65375,65392,65392,65414,65431,65456,65478,65496,65532,65532,65549,65567,65584,65614,65644,65663,65687,65705,65720,65740,65772,65819,65844,66035,66070,66102,66102,66126,66150,66168,66189,66220,66239,66270,66270,66294,66312,66330,66348,66364,66381,66399,66399,66416,66416,66416,66434,66434,66451,66469,66469,66485,66485,66503,66520,66520,66542,66605" d="M154.5,199.70499C154.55716,198.00499 155.0358,197.24974 155.7955,196.75766C156.49991,196.30139 157.23166,195.85219 158.01733,195.62099C158.90094,195.36098 159.51982,194.54982 159.88933,193.89032C160.35895,193.05215 160.78558,192.2328 161.60001,191.82632C162.44551,191.40434 163.03766,190.94382 164,190.72581C164.87799,190.52692 165.8,190.70499 166.69867,190.70499C167.55267,190.70499 168.5,190.70499 169.3,190.70499C170.2,190.70499 171.10001,190.70499 172,190.70499C172.89999,190.70499 173.8159,190.53798 174.69867,190.70631C175.45604,190.85074 175.90855,191.69862 176.5,192.20499C177.09444,192.71391 178.0334,192.65848 178.89999,193.13033C179.63231,193.52907 180.45728,193.98698 180.5,194.80499C180.54694,195.70377 180.5,196.50499 180.5,197.40498C180.5,198.30499 180.38139,199.18062 179.85266,199.75766C179.21924,200.44896 178.72792,201.06 178.2785,201.80482C177.90305,202.42706 176.90004,202.69965 176,202.70499C175.10002,202.71031 174.2,202.70499 173.3,202.70499C172.39999,202.70499 171.5,202.70499 170.68567,202.70499C169.73067,202.70499 168.97917,202.70499 168.18266,202.70499C167.18666,202.70499 166.34666,202.70499 165.384,202.70499C164.33333,202.70499 163.67412,202.73834 162.66667,202.70499C161.80309,202.67639 161,202.18416 160.39999,201.60515L159.8,201.06215L158.89999,200.71565L158,200.70499" id="svg_17" stroke-width="3" stroke="#000" fill="none"/>
  <path t="69107,69346,69366,69384,69416,69488,69505,69523,69545,69565,69582,69625,69642,69673,69760,69823,69841,69866,69897,69897,69921,69938,69955,69985,70064,70097,70117,70134,70149,70167,70185,70264,70312,70337,70355,70385,70417,70450,70496,70521,70538,70556,70573,70574,70591,70609,70658,70675,70698,70792,70818,70859" d="M165.5,156.70499C167.3,156.70499 168.2,156.70499 169.10001,156.70499C169.97917,156.70499 170.87489,156.68172 171.5,157.20499C172.09703,157.70474 172.08731,158.53325 172.55716,159.34782C172.95334,160.03467 173.16286,160.85393 173.66667,161.53831C174.14728,162.19119 174.60265,162.87801 174.5,163.70499C174.3884,164.60408 173.39999,164.70499 172.5,164.70499C171.7,164.70499 170.85788,164.6474 170.416,163.90366C170.00067,163.20459 169.5285,162.40634 169.5,161.50499C169.47156,160.60559 169.81367,159.94543 170.69867,159.70366C171.49643,159.48572 171.93544,158.72299 172.8,158.70499C173.6998,158.68625 174.72035,158.47639 175.416,158.98898C176.10687,159.49805 176.48958,160.22563 176.5,161.10498C176.51067,162.00493 176.82538,163.18463 176.14284,163.64783C175.44383,164.12219 174.39999,163.70499 173.5,163.70499C172.7,163.70499 171.675,164.17412 170.85716,163.70499C170.2435,163.35298 170.5,162.20499 170.5,161.31566L170.50133,160.42099L170.92534,159.74098L171.78534,159.70499" id="svg_18" stroke-width="3" stroke="#000" fill="none"/>
  <path t="72204,72491,72508,72508,72526,72543,72561,72578,72578,72595,72610,72633,72633,72650,72672,72691,72723,72768,72790,72822,72839,72857,72857" d="M140.5,198.70499C142.33333,198.70499 143.20984,198.70499 144.01733,198.70499C144.97917,198.70499 145.80655,198.81203 146.7,198.70366C147.6198,198.5921 148.13751,197.93015 148.89999,197.31566C149.64577,196.71465 150.46031,196.47467 151.2,196.05765C151.94502,195.6376 152.50089,194.91418 153.30133,194.70631C154.11778,194.49428 154.09729,193.76718 154.58533,192.99033C155.05025,192.25027 155.784,191.78766 156.37849,191.26215L156.48933,190.51965" id="svg_19" stroke-width="3" stroke="#000" fill="none"/>
  <path t="73847,74092,74116,74140,74160,74188,74220" d="M186.5,196.70499C188.3,196.70499 189.2,196.70499 190.10001,196.70499L190.89999,196.70499L191.8,196.70499L192.7,196.70499" id="svg_20" stroke-width="3" stroke="#000" fill="none"/>
  <path t="75142,75303,75321,75339,75356,75356,75372,75372,75390,75390,75407,75407,75407,75425,75425,75442,75443,75443,75460,75460,75476,75494,75494,75494,75511,75511,75530,75530,75530,75548,75548,75548,75564,75581,75581,75598,75598,75614,75614,75614,75632,75632,75648,75649,75664,75665,75682,75700,75718,75718" d="M169.5,225.70499C171.3,225.70499 172.2,225.70555 173.02083,225.70499C173.98399,225.70432 174.73911,225.83488 175.74733,225.34782C176.44633,225.01015 177.17403,224.42722 177.9045,223.94781C178.71971,223.4128 179.29626,222.8869 179.84283,222.35765C180.62605,221.59924 181.12534,221.07965 181.82133,220.38365C182.5,219.70499 183.01601,219.18898 183.74283,218.46216C184.29866,217.90633 185.02083,217.18416 185.66667,216.53831C186.15266,216.05232 186.8302,215.34003 187.47884,214.72649C188.14426,214.09709 189.04622,213.61279 189.75067,213.29433C190.49852,212.95624 191.39735,212.41855 191.828,211.87965C192.3493,211.22733 192.90346,210.34427 193.60001,209.60481C194.10252,209.07133 194.71037,208.22533 195,207.68416C195.51878,206.7148 195.89984,205.90491 196.2,205.30499C196.69974,204.30618 196.95952,203.70038 197.59984,202.72632C198.03709,202.06116 198.44849,201.22382 198.48933,200.53032C198.55214,199.46396 198.5,198.60498 198.5,197.70499L198.5,196.90498" id="svg_21" stroke-width="3" stroke="#000" fill="none"/>
  <path t="76351,76480,76501,76501,76501,76501,76517,76517,76535,76535,76535,76549,76549,76566,76566,76566,76591,76591,76608,76625,76625,76643,76643,76643,76660,76660,76677,76677,76694,76694,76743" d="M146.5,219.70499C145.95833,218.16331 145.31468,217.38455 144.85184,216.69516C144.34035,215.93332 143.98111,215.41866 143.66933,214.39032C143.40999,213.53496 143.30997,212.49249 142.97917,211.70499C142.72267,211.09433 142.2,210.10498 141.89999,209.50499C141.39999,208.50499 141.00108,207.70444 140.7,207.10498C140.2018,206.11308 139.8461,205.36703 139.10001,204.75565C138.43747,204.21272 137.99171,203.66759 137.5,202.70499C137.09312,201.90846 136.78732,201.31122 136.30133,200.30499C136.01328,199.70857 135.66667,198.70499 135.52533,197.91565L135.33333,196.87166L134.92534,196.15166L134.5,195.41832" id="svg_22" stroke-width="3" stroke="#000" fill="none"/>
  <path t="78320,78400,78400,78400,78400,78416,78416,78416,78416,78416,78416,78416,78436,78436,78436,78436,78436,78436,78437,78453,78453,78453,78453,78453,78453,78453,78453,78471,78471,78471,78471,78471,78471,78471,78471,78471,78491,78491,78491,78491,78491,78491,78491,78491,78491,78505,78505,78505,78505,78505,78505,78505,78520,78520,78520,78520,78520,78520,78520,78537,78537,78537,78537,78537,78537,78537,78537,78554,78554,78554,78554,78554,78554,78554,78571,78571,78571,78571,78571,78571,78571,78588,78588,78588,78588,78588,78588,78588,78605,78605,78605,78605,78605,78622,78622,78623,78623,78623,78623,78640,78640,78640,78640,78640,78657,78657,78657,78657,78657,78657,78675,78675,78675,78675,78675,78675,78692,78692,78692,78692,78692,78709,78709,78709,78709,78709,78709,78726,78726,78726,78726,78726,78726,78726,78742,78743,78743,78743,78743,78743,78743,78760,78760,78760,78760,78760,78760,78760,78777,78777,78777,78777,78778,78778,78778,78778,78795,78795,78795,78795,78795,78795,78796,78812,78812,78812,78812,78812,78812,78812,78813,78813,78829,78829,78829,78829,78829,78829,78829,78846,78847,78847,78847,78847,78847,78847,78847,78864,78864,78864,78864,78864,78864,78864,78864,78864,78881,78881,78881,78881,78881,78882,78882,78882,78882,78898,78899,78899,78899,78899,78899,78899,78899,78900,78916,78916,78916,78917,78917,78917,78917,78917,78917,78933,78933,78933,78933,78933,78933,78933,78933,78934,78950,78950,78951,78951,78951,78951,78951,78951,78951,78966,78967,78967,78967,78967,78967,78967,78967,78967,78984,78984,78984,78984,78984,78985,78985,78985,78985,79002,79002,79002,79213,79213,79231,79231,79231,79231,79248,79248,79248,79248,79248,79248,79265,79265,79265,79266,79266,79266,79266,79283,79283,79283,79283,79283,79284,79284,79284,79284,79300,79300,79300,79301,79301,79301,79301,79301,79301,79317,79317,79317,79317,79317,79318,79318,79318,79318,79334,79335,79335,79335,79335,79335,79335,79335,79335,79350,79351,79351,79351,79351,79351,79351,79351,79351,79368,79368,79368,79368,79368,79369,79369,79369,79369,79385,79385,79386,79386,79386,79386,79386,79402,79402,79402,79402,79402,79402,79419,79419,79420,79420,79420,79420,79420,79438,79439,79439,79439,79439,79455,79455,79456,79456,79456,79472,79472,79472,79472,79473,79473,79492,79492,79493,79493,79493,79493,79506,79506,79506,79506,79506,79524,79524,79524,79524,79524,79524,79525,79540,79540,79540,79541,79541,79541,79541,79559,79559,79559,79559,79560,79560,79573,79573,79573,79573,79574,79574,79574,79590,79590,79590,79590,79590,79591,79591,79606,79607,79607,79607,79607,79607,79607,79608,79622,79623,79623,79623,79623,79623,79623,79623,79640,79641,79641,79641,79641,79641,79642,79657,79657,79657,79657,79657,79657,79658,79658,79674,79674,79674,79675,79675,79675,79675,79675,79692,79692,79692,79693,79693,79693,79693,79693,79694,79709,79709,79709,79709,79710,79710,79727,79727,79727,79727,79728,79728,79728,79744,79744,79744,79744,79745,79745,79761,79761,79761,79761,79778,79778,79779,79779,79796,79796,79796,79796,79797,79813,79813,79813,79813,79814,79814,79829,79830,79830,79830,79830,79831,79846,79846,79847,79847,79847,79863,79864,79864,79864,79864,79881,79881,79881,79881,79882,79898,79898,79899,79899,79899,79916,79916,80149,80149,80184,80185,80185,80202,80202,80202,80219,80219,80220,80237" d="M6.5,29.70499C9.47467,29.70499 10.204,29.70499 11.02933,29.70499C11.95867,29.70499 13,29.70499 14.15467,29.70499C14.767,29.70499 15.39733,29.70499 16.04167,29.70499C17.35633,29.70499 18.01867,29.70499 19.33333,29.70499C19.97867,29.70499 20.616,29.70499 21.87467,29.70499C22.5,29.70499 23.12533,29.70499 24.384,29.70499C25.66667,29.70499 26.32167,29.70499 26.98667,29.70499C27.66167,29.70499 29.04167,29.70499 29.74667,29.70499C30.46167,29.70499 31.18667,29.70499 32.66667,29.70499C33.4215,29.70499 34.18533,29.70499 34.95717,29.70499C35.736,29.70499 36.52083,29.70499 37.31067,29.70499C38.1045,29.70499 38.90133,29.70499 40.5,29.70499C41.29967,29.70499 42.09733,29.70499 42.891,29.70499C43.67867,29.70499 44.45833,29.70499 45.228,29.70499C45.98567,29.70499 46.72933,29.70499 48.85717,29.70499C49.53067,29.70499 50.19017,29.70499 50.83867,29.70499C52.11467,29.70499 52.74817,29.70499 53.38267,29.70499C54.66667,29.70499 55.32133,29.70499 56.65267,29.70499C57.32533,29.70499 58,29.70499 58.67467,29.70499C59.34733,29.70499 61.33333,29.70549 61.97867,29.70482C62.616,29.70415 63.24744,29.70751 64.5,29.68415C65.12541,29.67249 65.75308,29.65587 66.384,29.61965C68.32291,29.50837 68.98418,29.42275 69.65266,29.35232C70.32552,29.28143 70.99952,29.20055 72.34734,29.05765C73.01577,28.98679 74.33293,28.8655 74.9785,28.82649C76.24216,28.75011 76.86395,28.73853 77.47916,28.72582C78.08929,28.71322 79.29867,28.70565 80.5,28.70499C81.09983,28.70465 82.2955,28.70499 82.88934,28.70499C84.064,28.70499 84.64283,28.70499 85.21467,28.70499C86.8785,28.70499 87.41467,28.70499 88.464,28.70499C88.97916,28.70499 89.9955,28.70499 91.5,28.70499C91.99983,28.70499 92.9955,28.70499 93.48933,28.70499C94.464,28.70499 95.41467,28.70499 96.77866,28.70499C97.216,28.70499 98.07467,28.70499 98.92533,28.70499C99.784,28.70499 101.12183,28.70499 101.588,28.70499C102.55733,28.70499 103.58266,28.70499 104.11884,28.70499C104.672,28.70499 106.44234,28.70499 107.06533,28.70499C107.69633,28.70499 108.95834,28.70499 109.57733,28.70499C110.18034,28.70499 111.83334,28.70499 112.3145,28.70499C113.18483,28.70499 113.97916,28.70499 114.7535,28.70499C116,28.70499 116.956,28.70499 117.4715,28.70499C118.5625,28.70499 119.132,28.70499 120.304,28.70499C121.5,28.70499 122.1,28.70499 123.3,28.70499C123.9,28.70499 124.5,28.70499 125.7,28.70499C126.3,28.70499 127.5,28.70499 128.70134,28.70499C129.3045,28.70499 129.91066,28.70499 131.136,28.70499C131.75717,28.70499 132.38533,28.70434 133.66667,28.70499C134.98534,28.70565 135.65718,28.70753 136.336,28.71565C137.02086,28.72385 137.71094,28.73346 138.4045,28.76215C140.50107,28.8489 141.19995,28.92315 141.89734,28.98899C142.59131,29.0545 143.27872,29.12994 143.95833,29.20499C145.28574,29.35157 145.92831,29.43229 147.16667,29.53832C147.75722,29.58888 148.90352,29.65217 149.47067,29.66899C150.62244,29.70315 151.21967,29.70176 151.83867,29.70365C153.16667,29.70772 153.8855,29.70499 154.63733,29.70499C155.41516,29.70499 156.21201,29.70499 157.02083,29.70499C157.83467,29.70499 158.6465,29.70499 159.44934,29.70499C161.73567,29.70499 162.44533,29.70499 163.133,29.70499C163.80267,29.70499 164.45833,29.70499 165.74367,29.70499C166.38133,29.70499 167.66667,29.70499 168.32167,29.70499C168.98666,29.70499 170.34666,29.70499 171.04167,29.70499C171.74667,29.70499 172.46167,29.70499 173.18666,29.70499C174.66667,29.70499 175.42166,29.70499 176.18666,29.70499C176.96167,29.70499 177.74667,29.70499 178.54167,29.70499C179.34666,29.70499 180.16167,29.70499 180.98666,29.70499C182.66667,29.70499 183.52167,29.7058 184.38667,29.70365C185.26167,29.70148 186.1467,29.69674 187.04167,29.68415C187.9467,29.67143 188.86186,29.65374 189.78667,29.61965C191.66716,29.55035 192.62175,29.48717 193.58533,29.41965C194.55743,29.35154 195.53619,29.27124 196.52083,29.18415C197.51086,29.09659 198.50461,29.0016 199.50133,28.90365C201.50021,28.70722 202.49974,28.60426 203.49867,28.50632C204.49541,28.40859 205.48914,28.31339 206.47917,28.22582C207.46381,28.13873 208.44243,28.05632 209.41467,27.99032C211.33258,27.86013 212.2782,27.82264 213.21333,27.79032C214.13821,27.75835 215.0533,27.73854 215.95833,27.72582C216.8533,27.71324 217.73833,27.70824 218.61333,27.70632C220.33333,27.70254 221.17816,27.70499 222.01199,27.70499C222.83383,27.70499 223.64267,27.70499 224.4375,27.70499C225.21733,27.70499 225.98117,27.70499 226.728,27.70499C228.16667,27.70499 228.85667,27.70587 229.52667,27.70365C230.17667,27.7015 230.80672,27.69707 231.41667,27.68415C232.00673,27.67165 232.57709,27.65521 233.12666,27.61965C234.16766,27.55231 234.65742,27.48793 235.12801,27.42099C235.58177,27.35644 236.01758,27.28099 236.4375,27.20499C236.8429,27.13161 237.23291,27.05228 237.612,26.98899C238.67575,26.81138 239.33304,26.74305 240.21733,26.71565C241.35683,26.68035 242.15067,26.70499 243.04367,26.70499C243.81467,26.70499 244.46533,26.70499 245.244,26.70499C246.68567,26.70499 247.23866,26.70499 248.42267,26.70499C249.04167,26.70499 249.67067,26.70499 250.30367,26.70499C252.16667,26.70499 252.75766,26.70499 253.33467,26.70499C254.47067,26.70499 255.04167,26.70499 256.21967,26.70499C256.83865,26.70499 258.16666,26.70546 258.88617,26.70482C259.64267,26.70415 260.4332,26.70232 261.25467,26.69432C262.10419,26.68605 262.97876,26.67219 263.87515,26.64782C264.79077,26.62292 266.6669,26.54254 267.62134,26.48349C268.58429,26.42391 269.55292,26.35071 270.52533,26.26899C271.50024,26.18705 272.47482,26.096 273.44733,26.00049C274.41614,25.90533 276.3334,25.70551 277.27832,25.60499C278.21341,25.50551 279.1384,25.40553 280.05334,25.30499C280.9584,25.20553 281.85339,25.10555 282.73834,25.00499C283.6134,24.90554 285.33334,24.70502 286.1785,24.60515C287.01468,24.50635 287.84265,24.40784 288.664,24.31565C289.47897,24.22418 290.28903,24.13765 291.09549,24.06215C291.89838,23.98699 293.49979,23.86771 294.29965,23.82632C295.09714,23.78506 295.89096,23.75678 296.67868,23.73032C297.45831,23.70413 298.22809,23.68194 298.98566,23.65232C299.72943,23.62324 301.16705,23.54317 301.85684,23.48365C302.52844,23.42571 303.18137,23.35426 303.81732,23.27965C304.43771,23.20687 305.04251,23.12911 305.63382,23.05765C306.21185,22.9878 307.33301,22.86748 307.87851,22.82649C308.41437,22.78622 308.94272,22.75924 309.46399,22.74099C309.97906,22.72294 310.99551,22.70724 312.5,22.70499C313.00015,22.70424 314.00449,22.70499 314.51068,22.70499C315.53601,22.70499 316.05716,22.70499 317.66666,22.70499C318.22134,22.70499 319.35266,22.70499 319.92532,22.70499C320.5,22.70499 321.64734,22.70499 322.216,22.70499C323.87833,22.70499 324.41333,22.70499 325.45334,22.70499C325.95834,22.70499 326.93832,22.70499 328.33334,22.70499C329.216,22.70499 329.64734,22.70499 330.5,22.70499C331.35266,22.70499 332.66666,22.70499 333.58667,22.70499C334.06168,22.70499 335.04166,22.70499 336.06168,22.70499C336.58667,22.70499 338.22101,22.70499 338.78134,22.70499C339.34366,22.70499 340.45834,22.70499 341.00266,22.70499C342.04532,22.70499 343.43634,22.70499 344.25101,22.70499C345.04166,22.70499 345.87234,22.70503 346.32266,22.70499C347.90701,22.70482 348.52271,22.70508 349.17233,22.69599C349.84805,22.68653 350.54285,22.68362 351.95099,22.59065C352.6514,22.54441 354.00266,22.38613 354.63568,22.26232C355.83868,22.02703 356.40286,21.85503 356.95834,21.70499C358.04404,21.41171 358.57123,21.21702 360.2215,20.94799C360.78256,20.85652 361.35626,20.80308 362.52084,20.74665C363.11032,20.71809 363.70447,20.70974 365.5,20.70499C366.10001,20.7034 366.70007,20.70915 367.89999,20.69432C368.50003,20.6869 369.10077,20.68493 370.29999,20.61965C371.50098,20.55428 372.10089,20.49009 373.3045,20.35232C373.91104,20.28289 374.52014,20.19897 375.75717,20.05765C376.38501,19.98593 377.66623,19.86486 378.3215,19.82649C379.65643,19.74831 380.33594,19.73845 381.02084,19.72582C381.71063,19.7131 382.40451,19.70823 383.10132,19.70632C384.5,19.70247 385.89999,19.70499 386.60001,19.70499C387.29999,19.70499 388,19.70499 388.70001,19.70499C389.39999,19.70499 390.10001,19.70499 392.19983,19.70499C392.89868,19.70499 393.59549,19.70499 394.28934,19.70499C394.97916,19.70499 395.664,19.70499 397.01468,19.70499C398.33334,19.70499 398.97882,19.70499 399.61734,19.70499C400.88535,19.70499 401.52084,19.70499 402.16135,19.70499C402.80984,19.70499 403.46933,19.70499 405.543,19.70499C406.27066,19.70499 407.01434,19.70499 407.772,19.70499C408.54166,19.70499 409.32132,19.70499 410.10901,19.70499C410.90268,19.70499 412.5,19.70499 413.2995,19.70499C414.09601,19.70499 414.88651,19.70499 415.668,19.70499C416.4375,19.70499 417.19199,19.70499 417.9285,19.70499C418.64401,19.70499 420.63568,19.70499 421.24533,19.70499C421.83301,19.70499 422.95834,19.70499 423.504,19.70499C424.58133,19.70499 425.66666,19.70499 426.78534,19.70499C427.35718,19.70499 427.936,19.70499 429.11066,19.70499C429.7045,19.70499 430.30133,19.70499 432.09949,19.70499C432.69601,19.70499 433.2865,19.70499 434.4375,19.70499C434.992,19.70499 436.04401,19.70499 437.43567,19.70499C438.233,19.70499 438.95834,19.70499 439.64368,19.70499C441.02151,19.70499 441.75717,19.70499 442.52084,19.70499C443.3045,19.70499 444.5,19.70499 445.30267,19.70499C446.12134,19.70499 446.97198,19.70499 447.41434,19.70499C448.83334,19.70499 449.86932,19.70499 450.40982,19.70499C451.52084,19.70499 452.08533,19.70499 452.65182,19.70499C454.33334,19.70499 454.87833,19.70499 455.93832,19.70499C456.45334,19.70499 457.45334,19.70499 458.41333,19.70499C459.33334,19.70499 460.216,19.70499 461.07468,19.70499C461.92532,19.70499 462.784,19.70499 464.12134,19.70499C464.58401,19.70499 465.52533,19.70499 466.47467,19.70499C466.94733,19.70499 468.33334,19.70499 469.216,19.70499C470.07468,19.70499 470.92532,19.70499 471.784,19.70499C472.66666,19.70499 473.57999,19.70499 474.49335,19.70499C475.36667,19.70499 476.16,19.70499 477.35999,19.70499C478.09332,19.70499 479.14816,19.70499 479.93066,19.70499C481,19.70499 481.5715,19.70499 482.332,19.70499C483.5,19.70499 484.39551,19.70499 485.26401,19.70499C486.33334,19.70499 487.03833,19.70499 487.83835,19.70499L488.86401,19.70499" id="svg_23" stroke-width="3" stroke="#000" fill="none"/>
 </g>
</svg>