<svg width="500" height="333.3333333333333" xmlns="http://www.w3.org/2000/svg" xmlns:svg="http://www.w3.org/2000/svg" xmlns:xlink="http://www.w3.org/1999/xlink">
 <!-- Created with SVG-edit - http://svg-edit.googlecode.com/ -->
 <g display="inline" class="layer">
  <title>Layer 1</title>
  <path t="6706,7594,7788,7788,7889,8177,8277,8277,8277,8553,8553,8640,8661,8661,8804,8804,9026,9103,9174,9174,9174,9213,9213,9351,9407,9431,9431,9455,9730,9823,9823,9843,9905,9905,9922,9922,9950,9992,10053,10086,10086,10102,10322,10435,10435,10508,10508,10701,10907,10933,10987,11023,11023,11087,11087,11170,11170,11337,11633,11633,11673,11673,11685,11785,11964,11964,11989,12121,12236,12236,12341,12347,12379,12820,13015,13015,13405,13405,13434,13481,13483,13785,13805,13805,13821,13841,13877,14133,14183,14183,14183,14215,14215,14266,14423,14481,14481,14523,14523,14569,14577,14616,14616,14641,14665,14665,14673,14693,14693,14727,14727,14829,14876,14958,14958,14986,15002,15034,15060,15105,15105,15147,15147,15179,15179,15227,15227,15258,15301,15321,15321,15329,15374,15386,15386,15496,15574,15574,15607,15607,15619,15678,15732,15824,15824,15881,15881,15933,15985,16013,16013,16042,16075,16099,16099,16143,16143,16143,16155,16192,16244,16244,16305,16305,16313,16374,16380,16380,16440,16473,16485,16517,16967,16967,17137,17137,17322,17594,17795,17827,18360,18426,18426,18509,18567,18567,18579,18583,18603,18603,18635,18672,18672,18709,18741,18741,18781,18863,18958,18958,19005,19005,19092,19160,19242,19280,19280,19314,19330,19330,19421,19577,19577,19577,19619,19619,19677,19705,19721,19721,19749,19777,19785,19785,19823,19823,19831,19855,19863,19883,19883,19895,19899,19899,19911,19923,19923,19939,20119,20238,20238,20274,20274,20286,20367,20474,20477,20497,21091,21143,21147,21210,21210,21248,21248,21355,21355,21367,21487,21556,21611,21611,21643,21643,21691,21705,21737,21737,21775,21865,21889,21893,21905,21909,21917,21936,21968,21968,21968,21996,21996,22018,22067,22071,22124,22124,22175,22191,22191,22199,22239,22239,22384,22408,22498,22498,22689,22739,22739,22763,22795,22811,22815,22833,22965,23058,23058,23093,23097,23115,23131,23183,23211,23215,23239,23239,23263,23317,23525,23525,23538,23586,23637,23637,23708,23721,23805,23805,23939,23976,23976,23988,24037,24067,24083,24127,24143,24143,24171,24191,24207,24207,24211,24269,24269,24361,24381,24443,24443,24462,24501,24501,24524,24557,24561,24581,24615,24615,24639,24639,24667,24671,24695,24707,24739,24743,24755,24798,24828,24828,24871,24873,24909,24909,24960,24994,25033,25033,25077,25124,25144,25144,25180,25180,25212,25252,25307,25307,25315,25344,25344,25372,25404,25424,25424,25448,25487,25487,25522,25522,25534,25534,25577,26004" d="M170.37109,139.91667C170.37109,138.09134 170.37109,137.08333 170.37109,136.22116C170.37109,135.31667 170.46915,134.44054 169.9281,133.59534C169.57127,133.0379 168.99344,132.52718 167.97375,131.802C167.42856,131.41428 166.49365,130.84081 166.37109,129.91667C166.27155,129.16608 166.37109,128.26401 166.37109,127.40067C166.37109,126.4375 166.37109,125.49533 166.37109,124.58334C166.37109,123.666 166.37109,122.922 166.37109,121.88734C166.37109,121.11933 166.37109,120.21667 166.37109,119.28067C166.37109,118.43267 166.37029,117.56934 166.37109,116.55267C166.37177,115.71667 166.49213,114.70709 167.07559,114.27383C167.79784,113.73752 168.68887,113.46964 169.37109,112.91666C170.20013,112.24467 170.93845,112.31115 171.85027,111.89584C172.55812,111.57343 173.03154,110.93233 173.85509,110.63267C174.73531,110.31238 175.61249,109.94527 176.4711,109.91666C177.37059,109.8867 178.12827,109.91666 179.02376,109.91666C179.8871,109.91666 180.9066,109.61194 181.76042,109.92734C182.50685,110.20306 182.92274,111.27176 183.20442,112.08334C183.48181,112.88256 183.15807,113.96416 183.48543,114.61217C183.86806,115.36956 184.98921,115.59692 185.60942,116.22117C186.34775,116.96429 186.35309,117.74152 186.37109,118.75C186.38647,119.61203 186.37109,120.51667 186.37109,121.32733C186.37109,122.238 186.37109,123.09133 186.37109,124.03133C186.37109,125.01667 186.46259,125.9292 186.31393,126.67384C186.12932,127.59859 185.58986,128.23163 185.40709,129.28067C185.26347,130.10503 185.37059,131.017 185.37109,131.731C185.37177,132.68333 185.01164,133.81238 185.59259,134.55217C186.1235,135.22824 187.18152,134.81624 188.0071,134.95267C188.87878,135.09673 189.6879,135.68147 190.61392,135.8595C191.55434,136.04028 192.13759,136.34447 192.81776,136.90201C193.43623,137.40897 194.20361,137.77046 194.71843,138.26849C195.49542,139.02013 196.04984,139.72968 196.39642,140.51666C196.76076,141.34398 197.23434,142.24095 197.37109,142.91667C197.5701,143.89996 198.17137,144.565 198.35027,145.41667C198.53751,146.30812 198.37109,147.23801 198.37109,148.09134C198.37109,149.03134 198.32356,149.91809 198.37109,150.71667C198.42836,151.67892 198.95088,152.39093 199.52043,153.09134C200.04884,153.74115 200.36659,154.61214 200.37109,155.51666C200.37567,156.43748 200.18559,157.26761 200.40709,158.05533C200.66698,158.97955 201.36575,159.52728 201.37109,160.41667C201.37656,161.32732 201.37109,162.23801 201.37109,163.09134C201.37109,164.03267 201.37109,164.80067 201.37109,165.75267C201.37109,166.51801 201.36719,167.51218 201.37109,168.25951C201.37643,169.28072 201.82083,170.02525 202.20442,170.91667C202.51048,171.62794 202.00523,172.70013 202.53777,173.58333C202.96806,174.29697 203.51506,174.74815 204.22176,175.31667C205.01094,175.95154 205.36659,176.6738 205.37109,177.56934C205.37543,178.43265 205.37109,179.39583 205.37109,180.21667C205.37109,181.118 205.37109,182.08333 205.37109,182.91667C205.37109,183.89517 205.37109,184.61217 205.37109,185.51666C205.37109,186.4375 205.37109,187.40067 205.37109,188.09134C205.37109,189.1595 205.33955,190.01721 205.37109,190.91667C205.3997,191.73251 205.65509,192.68466 205.87109,193.41667C206.0871,194.14867 206.35309,195.24413 206.37109,196.118C206.39098,197.08313 206.34351,197.91713 206.37109,198.75C206.3997,199.61359 207.056,200.33981 207.31393,201.22116C207.55663,202.05045 207.17979,203.00424 207.72375,203.80684C208.18355,204.48526 208.37109,205.21667 208.37109,206.118C208.37109,207.08333 208.37109,207.91667 208.37109,208.75C208.37109,209.61217 208.8123,210.64229 208.3351,211.48067C207.9415,212.17216 206.77109,211.91667 205.96043,211.91667C205.04976,211.91667 204.19237,212.00264 203.25642,211.91533C202.35968,211.83167 201.61293,211.18568 201.42827,210.25951C201.28177,209.52477 201.37163,208.51801 201.37109,207.75267C201.37042,206.802 201.1256,205.96472 200.72375,205.21667C200.30476,204.43671 200.37109,203.43266 200.37109,202.742C200.37109,201.67383 200.37109,200.81667 200.37109,199.91667C200.37109,199.03134 200.37109,198.09134 200.37109,197.40067C200.37109,196.32733 200.37109,195.51666 200.37109,194.61217C200.37109,193.59534 200.55154,192.89983 200.37076,191.93834C200.20119,191.03658 198.96179,191.20732 198.48543,190.55051C197.91364,189.76212 198.37109,188.91133 198.37109,187.922C198.37109,186.88733 198.37109,186.11934 198.37109,185.21667C198.37109,184.39583 198.37109,183.43266 198.37109,182.56934C198.37109,181.67383 198.37109,180.71667 198.37109,179.8165C198.37109,179.03134 198.37109,178.09134 198.37109,177.40067C198.37109,176.32733 198.37109,175.41667 198.37109,174.506C198.37109,173.59534 198.37109,172.742 198.37109,171.802C198.37109,170.91667 198.25647,170.13274 197.87109,169.39583C197.46075,168.61119 197.37643,167.74205 197.37109,166.802C197.36551,165.81668 197.37109,164.91667 197.37109,164.1595C197.37109,163.26401 197.37668,162.40065 197.37109,161.4375C197.36575,160.51662 196.98305,159.77089 196.65509,159.03134C196.26404,158.14949 195.99896,156.8475 195.4926,157.35966C194.93987,157.91875 195.37109,159.1165 195.37109,159.89583C195.37109,160.89534 195.37109,161.66933 195.37109,162.56934C195.37109,163.43266 195.37109,164.39583 195.37109,165.31667C195.37109,166.118 195.37109,167.08333 195.37109,167.91667C195.37109,168.89517 195.37109,169.71533 195.37109,170.61667C195.37109,171.4375 195.37109,172.40067 195.37109,173.09134C195.37109,174.1595 195.37109,175.11667 195.37109,176.01683C195.37109,176.802 195.37109,177.742 195.37109,178.43266C195.37109,179.506 195.38182,180.33806 195.37109,181.25C195.36043,182.15685 195.51443,183.0932 194.66576,183.74966C194.05835,184.2195 193.38577,184.57333 193.0871,185.40201C192.82214,186.13712 192.44955,187.11214 192.39192,187.89583C192.30862,189.02847 192.37109,189.91667 192.37109,190.71667C192.37109,191.55267 192.37109,192.56934 192.37109,193.26401C192.37109,194.28067 192.37109,195.21667 192.37109,196.118C192.37109,196.802 192.37109,197.742 192.37109,198.75C192.37109,199.61217 192.37109,200.51666 192.37109,201.32733C192.37109,202.23801 192.37109,203.09134 192.37109,204.03134C192.37109,205.01666 192.37109,205.91667 192.37109,206.67383C192.37109,207.56934 192.37109,208.43266 192.37109,209.39583C192.37109,210.31667 192.37109,211.22116 192.37109,212.08333C192.37109,212.91667 192.37109,213.89517 192.37109,214.71533C192.37109,215.61667 192.37109,216.45833 192.37109,217.45934C192.37109,218.16733 192.37109,218.91133 192.37109,220.10234C192.37109,221.01683 192.37109,221.802 192.37109,222.75267C192.37109,223.51801 192.37109,224.51216 192.37109,225.25951C192.37109,226.29134 192.37151,227.23801 192.37109,227.91667C192.37042,229.03 191.86392,229.52568 191.42827,230.27383C191.0038,231.00279 190.79739,231.72383 190.45642,232.48601C190.13519,233.20407 190.37109,234.28067 190.37109,235.11667C190.37109,236.01683 190.37109,236.802 190.37109,237.742C190.37109,238.75 190.37109,239.61217 190.37109,240.41667C190.37109,241.32733 190.37109,242.23801 190.37109,243.09134C190.37109,244.03134 190.37109,244.91667 190.37109,245.71667C190.37109,246.67383 190.37109,247.56934 190.37109,248.43266C190.37109,249.29134 190.37109,250.23817 190.37109,251.12733C190.37109,252.1165 190.37109,252.89583 190.37109,253.89517C190.37109,254.61217 190.37109,255.51666 190.37109,256.4375C190.37109,257.40067 190.37131,258.09134 190.37109,259.15952C190.37093,260.01666 190.02173,260.89722 189.52043,261.32733C188.67619,262.05167 188.40712,262.74008 188.37109,263.75C188.34036,264.61163 188.37109,265.51666 188.37109,266.32733C188.37109,267.23801 188.37109,268.09134 188.37109,269.03134C188.37109,270.01666 188.37109,270.91666 188.37109,271.67383C188.37109,272.56934 188.37109,273.43268 188.37109,274.39584C188.37109,275.22568 188.37109,276.25 188.37109,276.922C188.37109,277.91135 188.37109,278.77368 188.37109,279.71399C188.37109,280.61667 188.37109,281.4375 188.37109,282.40067C188.37109,283.26401 188.37109,284.15952 188.37109,285.11932C188.37109,285.88733 188.37109,286.68466 188.37109,287.66602C188.37109,288.58334 188.37109,289.49533 188.37109,290.41666L188.36043,291.306" id="svg_2" stroke-width="3" stroke="#000" fill="none"/>
  <path t="27035,27361,27385,27385,27389,27389,27389,27389,27397,27417,27417,27426,27426,27434,27458,27470,27506,27705,27743,27743,27763,27783,27803,27803,27819,27819,27819,27835,27845,27883,27883,27883,27891,27891,27911,27911,27919,27939,27969,27969,27969,28011,28011,28023,28023,28027,28036,28039,28048,28114,28114,28114,28133,28133,28145,28185,28185,28233,28233,28253,28253,28265,28281,28281,28319,28319,28319,28339,28342,28366,28374,28382,28420,28420,28437,28437,28479,28546,28594,28594,28610,28610,28646,28662,28698,28698,28748,28752,28752,28776,28814,28826,28826,28880,28931,28931,28973,28993,28993,29009,29079,29079,29122,29250,29315,29315,29541,29541,29588,29588,29596,29600,29624,29634,29662,29662,29675,29675,29721,29764,29805,29805,29805,29839,29887,29887,29903,29911,29911,29955,30005,30013,30013,30041,30057,30057,30086,30106,30126,30126,30154,30184,30216,30216,30257,30257,30314,30341,30373,30397,30397,30429,30429,30462,30503,30515,30519,30547,30579,30579,30615,30664,30664,30690,30735,30735,30845,30845,30845,30890,30920,30928,30963,30963,30963,30990,31003,31027,31027,31039,31039,31047,31090,31098,31138,31138,31175,31175,31207,31215,31269,31269,31586,31586,31627,31674,31674,31674,32278,32299" d="M137.37109,291.91666C138.01776,290.31668 138.77592,289.91678 139.35027,289.35416C140.18074,288.54062 140.22128,287.8689 140.35027,286.9375C140.47229,286.0564 140.81879,285.26648 141.56976,284.63C142.17346,284.11835 142.32629,283.26471 142.36977,282.40067C142.42192,281.36398 143.13512,280.90836 143.36977,280.11533C143.61076,279.30084 144.47659,279.2525 145.1281,278.47385C145.62537,277.87955 145.12784,276.66843 145.65643,275.99933C146.25737,275.23865 146.94273,274.90427 147.20442,273.91666C147.40935,273.14328 147.33362,272.40137 147.37109,271.32733C147.40292,270.41507 148.03372,269.81339 148.65776,269.50601C149.36852,269.15594 150.46588,268.47925 150.80859,267.91666C151.36694,267.00006 151.34814,266.11771 151.37109,265.21667C151.39256,264.37424 151.69357,263.57721 152.07643,262.91135C152.5083,262.16022 153.164,261.28394 153.32942,260.41666C153.52489,259.39182 153.17163,258.61105 153.54176,257.76999C153.89331,256.97116 154.98854,257.01126 155.73509,256.47C156.51286,255.90611 156.82907,255.10635 157.08575,254.31534C157.40059,253.34512 157.21213,252.55977 157.38176,251.55267C157.52798,250.68452 158.26517,250.12766 159.01926,249.61217C159.66776,249.16885 160.16701,248.42316 160.41927,247.56934C160.68727,246.66225 161.15587,245.89854 161.48093,245.10234C161.88083,244.1228 162.24371,243.67867 162.66576,242.922C163.23309,241.90483 163.54657,241.22542 164.37109,240.91667C165.26543,240.58179 165.35904,239.71526 165.37109,238.75C165.38152,237.91647 165.55569,237.09273 165.94576,236.32733C166.3541,235.52606 166.29262,234.59233 166.53777,233.75C166.78857,232.88823 167.28299,232.09445 167.36659,231.22116C167.45279,230.32077 167.28618,229.47842 167.59276,228.59534C167.83884,227.88651 168.51917,227.05977 169.18576,226.55267C169.7858,226.09621 170.36043,225.31685 170.37109,224.39583C170.38225,223.43272 170.24138,222.73355 170.3756,221.67383C170.48669,220.79668 171.21658,220.14838 171.36043,219.28067C171.49913,218.44402 171.24658,217.56001 171.3756,216.67383C171.51924,215.6871 171.87973,215.00262 172.45509,214.202C172.9402,213.52695 173.16096,212.80148 173.5381,211.97467C173.89212,211.19855 174.95569,210.67224 175.87109,211.08333C176.50601,211.36845 176.68974,212.38689 177.01843,213.26401C177.34933,214.14703 177.37109,215.11667 177.37109,216.01683C177.37109,216.802 177.37109,217.742 177.37109,218.43266C177.37109,219.506 177.37109,220.338 177.37109,221.25C177.37109,222.16733 177.37109,222.91133 177.37109,223.946C177.37109,224.91667 177.37109,225.71667 177.37109,226.55267C177.37109,227.40067 177.37109,228.26401 177.37109,229.28067C177.37109,230.21667 177.37109,231.118 177.37109,231.802C177.37109,232.742 177.37109,233.75 177.37109,234.61217C177.37109,235.51666 177.37109,236.32733 177.37109,237.23801C177.37109,238.09134 177.37109,239.03134 177.37109,240.01666C177.37109,240.91667 177.37109,241.67383 177.37109,242.56934C177.37109,243.43266 177.37109,244.39583 177.37109,245.31667C177.37109,246.118 177.37109,247.08333 177.37109,247.91667C177.37109,248.89517 177.37109,249.71533 177.37109,250.61667C177.37109,251.4375 177.16348,252.44194 177.42827,253.20683C177.72919,254.07608 178.34129,254.62508 178.36977,255.43401C178.40434,256.41605 178.37109,257.40067 178.37109,258.09134C178.37109,259.164 178.37109,260.08334 178.37109,260.9375C178.37109,261.91666 178.37109,262.70599 178.37109,263.43134C178.37109,264.50601 178.2317,265.43042 178.3801,266.22116C178.54999,267.12653 179.25426,267.716 179.66576,268.26401C180.31003,269.12198 180.32257,270.11798 180.37126,271.01685C180.41397,271.80545 180.84248,272.7244 181.0871,273.43268C181.41304,274.37646 181.37109,275.31668 181.37109,276.11801C181.37109,277.08334 181.33237,277.91742 181.37126,278.89517C181.39986,279.61389 182.06044,280.3385 182.31393,281.22116C182.59506,282.20004 182.37109,282.91666 182.37109,283.89517C182.37109,284.71533 182.37109,285.58865 182.37109,286.45932C182.37109,287.41666 182.37109,288.14868 182.37109,289.24466L182.37109,290.11667" id="svg_3" stroke-width="3" stroke="#000" fill="none"/>
  <path t="33875,34437,34532,34532,34648,34648,34681,34722,34816,34816,34835,34835,34855,34884,34884,34933,34999,35023,35066,35066,35104,35112,35112,35132,35177,35177,35211,35211,35337,35337,35398,35398,35398,35484,35550,35595,35603,35603,35603,35615,35615,35631,35651,35651,35689,35713,35713,35925,35925,35959,36000,36030,36380,36380,36380,36413,36413,36467,36535,36535,36570,36680,36709,36733,36745,36745,36799,36902,36902,36920,36979,37017,37017,37061,37061,37070,37086,37102,37114,37114,37141,37200,37216,37217" d="M167.37109,135.91667C165.65643,136.17267 165.56715,137.01436 165.26126,137.85867C164.94624,138.72816 163.94473,138.82463 163.35643,139.52733C162.78206,140.21339 162.25824,140.83221 161.8071,141.55267C161.31981,142.33084 161.42448,143.30684 161.01843,144.1595C160.63283,144.96922 160.19493,145.61217 159.37109,145.91667C158.47299,146.24863 157.82845,146.77681 157.27126,147.3595C156.66608,147.99237 156.46092,149.03178 156.37109,149.91667C156.28984,150.7171 155.77119,151.40012 155.45377,152.40067C155.24042,153.07317 154.96242,153.93924 154.18576,154.506C153.42371,155.0621 152.71985,155.55812 152.49243,156.45917C152.32013,157.14183 152.4875,158.22514 151.76042,158.92067C151.11696,159.53619 150.67854,160.13821 150.03777,160.91667C149.61266,161.43311 148.76018,161.72377 148.13277,162.56934C147.65511,163.21309 147.57605,164.22418 147.1496,165.01666C146.78459,165.69495 145.84956,166.26781 145.49226,167.23784C145.2596,167.86949 144.74586,168.60817 144.07643,168.96483C143.29485,169.38124 143.4437,170.42038 143.36043,171.338C143.27681,172.25946 143.0101,172.91956 142.79643,173.666C142.48041,174.77003 142.41544,175.76576 143.13277,175.91217C144.00577,176.09036 144.99451,175.49161 145.92442,175.95267C146.63162,176.3033 147.17244,176.91229 148.0071,176.91667C149.01929,176.92198 149.95058,176.9995 150.30977,177.778C150.72804,178.68454 150.79747,179.57912 151.6711,179.8595C152.53113,180.13551 153.53912,180.07991 154.19643,180.342C155.20653,180.74475 155.96043,180.90588 156.87109,180.91667C157.76042,180.92722 158.3035,181.60176 159.08093,181.8595C159.84923,182.11421 160.85027,181.97917 161.4711,182.58067L161.87109,183.41667L162.1711,184.06467" id="svg_4" stroke-width="3" stroke="#000" fill="none"/>
  <path t="38990,39163,39175,39207,39241,39241,39249,39249,39411,39486,39774,39774,39855,39855,39892,39904,40150,40150,40250,40305,40305,40333,40503,40529,40549,40553,40569,40569,40704,40723,40831" d="M160.37109,158.91667C159.37109,158.9375 158.55074,159.28438 158.36659,160.21667C158.20595,161.02998 157.60789,161.6436 157.42827,162.56934C157.26347,163.41862 157.43742,164.43671 157.01843,165.21667C156.61659,165.96472 156.37335,166.67383 156.37109,167.742C156.36964,168.43266 156.53122,169.41174 156.36043,170.31667C156.18109,171.26688 155.54932,171.7803 155.40709,172.742C155.25952,173.73979 154.96825,174.60963 155.40709,175.48067C155.75923,176.17961 156.52539,176.83293 157.37109,176.91667C158.12457,176.99129 159.02376,176.91667 159.8871,176.91667L160.85027,176.91667L161.77109,176.91667L162.6666,176.92567" id="svg_5" stroke-width="3" stroke="#000" fill="none"/>
  <path t="41783,41939,41939,41974,42021,42048,42064,42064,42096,42096,42154,42154,42195,42251,42251,42267,42315,42315,42434,42476,42476,42507,42556,42590,42622,42622,42670,42670,42740,42823,42903,42903,42905,43047,43073,43073,43089,43089,43105,43236,43379,43490,43490,43519,43519,43638,43638,43693,43709,43717,43717,43741,43741,43790,43790,43941,43941,43981,43981,44034,44034,44071,44091,44091,44099,44170,44170,44285,44308,44312,44341,44351,44383,44383,44395,44420,44420,44448,44484,44552,44552,44595,44627,44643,44643,44675,44675,44695,44725,44790,44818,44818,44919,44919,44947,44947,44979,45061,45061,45081,45203,45265,45302,45302,45302,45330,45330,45330,45387,45463,45463,45475,45475,45503,45569,45612,45612,45632,45632,45669,45681,45681,45719,45727,45727,45751,45751,45835,45835,45868,45868,45868,45920,45990,45990,46016,46040,46040,46040,46094,46098,46146,46184,46184,46215,46215,46260,46276,46320,46320,46370,46370,46402,46402,46418,46438,46466,46470,47059,47059,47233,47277,47293,47301,47317" d="M161.37109,155.91667C161.37109,157.20334 161.37109,157.91583 161.37109,158.946C161.37109,159.91667 161.74657,160.50237 162.24976,161.1385C162.73227,161.7485 162.72939,162.92033 162.94576,163.666C163.21135,164.58134 163.36067,165.37483 163.37109,166.32733C163.38106,167.23795 163.37109,168.09134 163.37109,169.03134C163.37109,169.91667 163.37109,170.71667 163.37109,171.55267C163.37109,172.56934 163.37109,173.26401 163.37109,174.28067C163.37109,175.21667 163.37109,176.118 163.37109,177.08333C163.37109,177.742 163.37109,178.75 163.37109,179.61217C163.37109,180.51666 163.37109,181.45833 163.37109,182.25C163.37109,183.16733 163.37109,183.91133 163.37109,184.946C163.37109,185.91667 163.37109,186.67383 163.37109,187.56934C163.37109,188.43266 163.5175,189.40926 163.36043,190.31667C163.21637,191.14888 162.30186,191.61591 161.6711,192.0265C160.95995,192.48943 160.54561,193.46767 159.72293,193.80684C158.97794,194.11398 158.02821,194.52945 157.49243,195.13817C156.86931,195.84612 156.64087,196.65033 156.42377,197.57384C156.25105,198.30853 156.08478,199.31447 155.79643,200.08067C155.49013,200.89458 155.37335,201.72649 155.37109,202.68466C155.36937,203.41667 155.37109,204.58333 155.37109,205.375C155.37109,206.22116 155.37109,207.23801 155.37109,207.91667C155.37109,208.89517 155.37109,209.91667 155.37109,210.71667C155.37109,211.55267 155.37109,212.40067 155.37109,213.26401C155.37109,214.28067 155.37109,215.21667 155.37109,216.118C155.37109,216.802 155.37109,217.742 155.37109,218.75C155.37109,219.61217 155.37109,220.51666 155.37109,221.32733C155.37109,222.23801 155.37109,223.09134 155.37109,224.03134C155.37109,225.01666 155.37109,225.91667 155.37109,226.67383C155.37109,227.56934 155.37109,228.43266 155.37109,229.39583C155.37109,230.31667 155.39262,231.22144 155.37109,232.08333C155.35025,232.91745 155.07114,233.78633 154.37109,234.39583C153.73303,234.95135 153.37244,235.71667 153.37109,236.55267C153.36948,237.56934 153.68565,238.31798 153.36043,239.27C153.09827,240.0374 152.40425,240.48726 152.1496,241.4595C151.95961,242.18486 151.70184,242.9828 151.27094,243.99483C150.9836,244.66968 150.54041,245.46007 149.55643,245.85533C148.73801,246.18408 148.37244,246.80333 148.37109,247.742C148.37012,248.43266 148.4503,249.57387 147.93509,250.31667C147.46577,250.9933 146.67699,251.50992 146.45642,252.40067C146.248,253.24236 146.51953,254.21353 146.14977,255.01666C145.79129,255.79526 145.44833,256.55615 145.36209,257.56934C145.30251,258.26941 144.81856,259.05399 144.18576,259.50601C143.28061,260.15256 142.65125,260.71094 142.45509,261.68466C142.30959,262.40695 142.49152,263.23697 141.93509,264.24466C141.51102,265.01266 140.62985,265.45203 140.40709,266.33801C140.18454,267.22318 140.43805,268.18378 140.25676,268.91135C140.03369,269.80658 139.37247,270.40591 138.39276,270.79535C137.55437,271.1286 137.31033,271.81189 137.01843,272.56934C136.68159,273.44336 136.44969,274.43427 136.01843,275.21667C135.60854,275.96033 135.31001,276.70694 134.8031,277.40067C134.27048,278.12958 133.65855,278.91495 133.32292,279.61218C132.92271,280.44354 132.47989,281.23743 132.20442,282.08334C131.92651,282.93674 131.47736,283.74081 131.3756,284.61218C131.27475,285.47577 130.65509,285.82999 130.20177,285.20065L129.37109,284.91666L128.48093,284.564" id="svg_6" stroke-width="3" stroke="#000" fill="none"/>
  <path t="48826,49111,49138,49138,49138,49158,49170,49331,49331,49442,49442,49563,49649,49669,49697,49697,49719,49719,49727,49776,49780,49796,49796,49814,49826,49838,49838,49846,49908,49908,49955,49967,49979,50056,50373,50373" d="M162.37109,189.91667C164.18576,188.92067 165.10629,188.43739 165.30977,187.64067C165.47678,186.98672 165.83603,186.06564 166.6711,185.564C167.39899,185.12672 168.12825,184.91893 169.02376,184.91667C169.8871,184.91451 170.85027,184.91667 171.77109,184.91667C172.6756,184.91667 173.53777,184.91667 174.37109,184.91667C175.34959,184.91667 176.30026,184.5231 177.08575,185.002C177.88963,185.49211 178.26651,185.97751 179.19643,186.342C179.89409,186.61545 180.94661,186.52829 181.76042,186.938C182.54886,187.33495 182.30753,188.60651 183.13277,188.90767C183.9698,189.21313 184.88712,188.91103 185.85027,188.91667C186.76047,188.92201 187.37109,189.41667 188.01776,189.90601L188.85376,189.91933L189.66125,190.03101" id="svg_7" stroke-width="3" stroke="#000" fill="none"/>
  <path t="51477,52172,52176,52236,52236,52311,52504,52709,52709,52709,52806,52821,52891,52909,52974,52974,53014,53014,53105" d="M171.37109,139.91667C172.37109,138.91667 173.12827,138.91667 174.02376,138.91667C174.8871,138.91667 175.85027,138.91667 176.79243,138.91667C177.70442,138.91667 178.37643,138.91667 179.36577,138.91667C180.40042,138.91667 181.16843,138.91667 182.07109,138.91667C182.89192,138.91667 183.85509,138.914 184.71843,138.80234L185.48442,138.34734L185.92442,137.73134L186.28709,136.80333" id="svg_8" stroke-width="3" stroke="#000" fill="none"/>
  <path t="61921,62211,62239,62298,62306,62387,62556,62562,62586,62606,62606,62618,62618,62659,62697,62697,62843,62964,63031,63080,63092,63092,63116,63129,63169,63397,63397,63397,63466,63466,63545,63596,63596,63604,63632,63683,63683,63722,63722,63746,63782,64174" d="M168.37109,129.91667C169.37109,129.91667 170.38576,129.91667 171.17242,129.91667C172.07109,129.91667 173.00755,129.88995 173.85509,129.918C174.71976,129.94661 175.79373,130.14844 176.24976,131.01683C176.62708,131.73535 176.57431,132.67514 177.17242,133.34734C177.76553,134.01392 178.89943,133.70036 179.66125,133.97383C180.49924,134.27464 181.18915,134.91096 181.36977,135.718C181.55206,136.53252 181.37109,137.56934 181.37109,138.26401C181.37109,139.28067 181.37109,140.21667 181.37109,141.118C181.37109,142.08333 181.37109,142.75267 181.37109,143.51801C181.37109,144.51216 181.37109,145.43134 181.37109,146.41667C181.37109,147.40067 181.37102,148.09134 181.37109,149.03134C181.37119,150.01666 181.59961,150.88101 181.94576,151.55267C182.36427,152.36479 182.36659,153.26401 182.3756,154.155L182.79643,154.89133L183.35027,155.4375" id="svg_10" stroke-width="3" stroke="#000" fill="none"/>
  <path t="64829,64988,64988,65038,65070,65095,65111,65111,65287,65287,65363,65392,65429,65429,65437,65485,65485,65514,65514,65567" d="M185.37109,134.91667C185.37109,137.70599 185.37109,138.43134 185.37109,139.39583C185.37109,140.31667 185.37109,141.22116 185.37109,142.08333C185.37109,142.91667 185.37109,143.89517 185.37109,144.71533C185.37109,145.61667 185.37109,146.55267 185.37109,147.40067C185.37109,148.26401 185.55338,149.28711 184.92842,150.01666C184.48212,150.53766 183.54176,151.118 183.37376,151.802L183.37109,152.742" id="svg_11" stroke-width="3" stroke="#000" fill="none"/>
  <path t="67530,68190,68257,68257,68257,68291,68291,68303,68315,68315,68365,68416,68416,68469,68469,68497,68513,68593,68593,68621,68664,68749,68749,68814,68839,68839,68972,69080" d="M172.37109,130.91667C172.20442,130.08333 171.31337,130.21266 170.98177,130.78867C170.5827,131.48183 170.42085,132.51173 170.37242,133.43134C170.32164,134.39545 169.76913,135.07132 169.22176,135.51666C168.43127,136.15981 168.37109,137.08333 168.37109,137.91667C168.37109,138.89517 168.37109,139.71533 168.37109,140.61667C168.37109,141.55267 168.37109,142.40067 168.37109,143.26401C168.37109,144.1595 168.37109,145.11667 168.37109,146.01683C168.37109,146.802 168.37109,147.742 168.37109,148.75L168.37109,149.506L168.35027,150.41667L168.01843,151.22116" id="svg_12" stroke-width="3" stroke="#000" fill="none"/>
  <path t="75416,75568,75587,75615,75615,75635,75659,75659,75691,75731,75731,75731,75747,75755,75759,75775,75819,75819,75875,75920,75920,75936,75988,76027,76059,76063,76075,76075,76169,76238,76305,76372,76372,76421,76421,76445,76568,76607,76607,76688,76725,76745,76804,76870,76896,76896,76896,76930,76946,76980,77008,77008,77036,77036,77088,77088,77124,77124,77144,77202,77224,77228,77236,77285,77285,77321,77349,77361,77361,77369,77394,77394,77412,77430,77430" d="M168.37109,130.91667C169.37109,130.9375 170.31383,131.27325 170.37109,132.23801C170.4113,132.91548 170.37109,133.89517 170.37109,134.91667C170.37109,135.71667 170.37109,136.58867 170.37109,137.45934C170.37109,138.41667 170.37109,139.14867 170.37109,140.10234C170.37109,141.118 170.37109,141.802 170.37109,142.742C170.37109,143.75 170.37109,144.61217 170.37109,145.45833C170.37109,146.45934 170.37109,147.16733 170.37109,147.91133C170.37109,149.10234 170.37109,150.01666 170.37109,150.91667C170.37109,151.67383 170.37109,152.56934 170.37109,153.43266C170.37109,154.39583 170.37109,155.31667 170.37109,156.22116C170.37109,157.08333 170.37109,157.91667 170.37109,158.89517C170.37109,159.71533 170.78322,160.76143 170.29909,161.48067C169.80496,162.21475 168.8537,161.92856 167.78177,161.91667C166.89174,161.9068 166.1467,161.43349 165.65509,160.74733C165.22112,160.1416 165.37109,158.91667 165.37109,158.12733C165.37109,157.40201 165.37109,156.4375 165.37109,155.51666C165.37109,154.61217 165.37109,153.59534 165.37109,152.91667C165.37109,151.938 165.37109,151.164 165.37109,150.25951C165.37109,149.31534 165.37109,148.32117 165.37109,147.57384C165.37109,146.55267 165.37109,145.71667 165.37109,144.8165C165.37109,144.03134 165.37109,143.09134 165.37109,142.08333C165.37109,141.32733 165.37109,140.41667 165.37109,139.506C165.37109,138.59534 165.37109,137.742 165.37109,136.802C165.37109,135.91667 165.37109,135.11667 165.42827,134.1595L165.72375,133.26401L166.01843,132.56934" id="svg_14" stroke-width="3" stroke="#000" fill="none"/>
  <path t="81396,81723,81723,81778,81778,81905,81905,81905,81941,81941,81941,82041,82041,82063,82095,82157,83045,83140,83239,83359,83359,83385,83409,83421,83445,83525,83548,83548,83568,83596,83604,83656,83656,83907,83968,83968,83992,83992,84160,84370,84404,84428" d="M291.37109,70.91666C289.54578,71.36333 288.80154,71.75557 288.12375,72.56934C287.71127,73.06454 287.06396,73.91517 286.35025,74.41666C285.78079,74.81681 284.95041,75.37905 284.39194,75.9375C283.83347,76.49596 283.08795,77.48956 282.81775,78.08067C282.34204,79.12139 281.75916,79.65368 281.4071,80.35267C281.02023,81.12082 281.80661,81.89867 282.78177,81.91666C283.69226,81.93347 284.38208,82.0713 285.48444,81.91534C286.27289,81.80378 286.75308,81.12643 287.56976,80.91534C288.37442,80.70736 288.99274,80.17024 289.66577,79.864C290.53946,79.46645 291.12769,78.75982 291.37109,77.89584C291.63763,76.94972 292.02252,76.36447 292.6666,75.61667C293.24271,74.9478 293.36884,74.15951 293.37109,73.264C293.37326,72.40067 293.37109,71.4375 293.36044,70.538L292.76044,70.502L291.9711,70.89133" id="svg_15" stroke-width="3" stroke="#000" fill="none"/>
  <path t="86227,86696,86733,86733,86775,86775,86799,86807,86847,86876,86876,86903,86938,86981,86981,87019,87019,87055,87055,87091,87099,87205,87205,87229,87229,87272,87424,87643,87643,87667,87667,87800,88016,88016,88087,88098,88138,88190,88190,88222,88222,88276,88357,88357,88390,88534,88641,88679,88679,88754,88754,88826,88841,88865,88865,88889,88935,88935,89021,89021,89139,89139,89379,89399,89423,89423,89435,89457,89471,89471,89496,89496,89525,89577,89577,89619,89643,89643,89695,89752,89772,89772,89784,89808,89808,89833,89849,89901,89901,89913,89913,90081,90425,90476,90476,90484,90484,90516,90516,90992,91031,91072,91128,91160,91160,91273,91273,91305,91305,91392,91392,91441,91457,91465,91465,91484,91544,91544,91607,91607,91649,91649,91677,91677,91697,91741,91869,91889,91889,91926,91926,91935,91947,91967,91971,91991,92009,92009,92024,92024,92048,92048,92063,92074,92086,92086,92114,92114,92164,92176,92200,92200,92216,92224,92236,92236,92252,92292,92292,92308,92308,92316,92371,92371,92393,92397,92417,92417,92461,92501,92501,92517,92517,92517,92533,92545,92561,92561,92577,92589,92589,92617,92637,92637,92657,92773,92773,92855,92855,92897,92913,92949,92969,92969,93171,93171,93631,93939,95081,95205,95232,95232,95244,95244,95325,95405,95420,95444,95448,95474,95474,95490,95526,95526,95542,95564,95564,95582,95582,95598,95598,95626,95653,95663,95663,95687,95699,95715,95715,95727,95747,95818,95818,95858,95953,95953,95980,95980,95996,95996,96239,96239,96260,96272,96288,96288,96296,96296,96308,96328,96340,96356,96356,96356,96364,96364,96392,96392,96392,96425,96425,96433,96433,96433,96453,96477,96477,96485,96485,96505,96551,96551,96624,96624,96624,96661,96778,97095,97095,97122,97126,97146,97146,97185,97221,97221,97242,97242,97258,97307,97335,97335,97335,97351,97355,97375,97385,97393,97421,97425,97441,97472,97508,97524,97549,97549,97569,97569,97589,97601,97621,97651,97651,97681,97685,97685,97796,97796,97842,97944,97978,97978,97998,97998,98038,98038,98046,98046,98110,98214,98238,98238,98282,98359,98375,98376,98388,98408,98420,98448,98448,98468,98492,98512,98512,98520,98528,98613,98676,98718,98718,98751,98755,98795,98819,98861,98869,98873,98913,98913,98972,99027,99141,99141,99237,99237,99323,99338,99483,99518,99518,99538,99538,99558,99558,99574,99590,99590,99614,99850,99854,99870,99902,99958,99992,99992,100000,100000,100072,100072,100114,100267,100267,100287,100299,100299,100355,100371,100371,100387,100425,100425,100556,100556,100794,100794,101019,101253,101289,101297,101301,101374,101439,101439,101486,101559,101559,101614,101614,101614,101644" d="M305.37109,125.91666C305.37109,126.118 305.37109,127.08334 305.37109,127.742C305.37109,128.75 305.42462,129.61418 305.87109,130.41667C306.31482,131.21419 306.94479,131.72383 307.28577,132.48601C307.60699,133.20407 307.26553,134.32811 307.65509,135.11667C308.08493,135.98674 308.43219,136.70694 308.93909,137.40067C309.47171,138.12956 309.99719,138.76912 310.41925,139.61217C310.83234,140.43726 311.22958,141.1348 311.53775,142.08333C311.75641,142.75635 312.26877,143.73953 312.36044,144.506C312.46866,145.41077 312.86392,146.15681 313.20444,147.08333C313.4361,147.71361 312.99313,148.90791 313.48544,149.55501C313.97885,150.20352 315.20483,149.94266 316.06659,149.91667C317.0152,149.88808 317.63943,149.36142 318.0871,148.662C318.53943,147.95529 318.36884,146.9175 318.37109,145.88733C318.37277,145.11934 318.37109,144.28067 318.37109,143.26401C318.37109,142.56934 318.62888,141.515 318.36661,140.62117C318.14005,139.84906 317.10449,139.6899 316.57111,139.03C315.99762,138.3205 315.58981,137.60309 315.4071,136.55267C315.24658,135.62984 315.37109,134.71533 315.37109,134.03134C315.37109,133.09134 315.37109,132.08333 315.37109,131.29134C315.37109,130.25951 315.37109,129.51216 315.37109,128.51801C315.37109,127.75267 315.17419,126.58993 315.4071,126.574C316.26816,126.51511 316.0903,128.05203 316.31393,129.1595C316.48398,130.00157 316.2796,130.92921 316.42825,131.67383C316.61285,132.59859 316.9967,133.27126 317.34576,134.28067C317.63708,135.12311 318.22296,135.6871 318.36661,136.67383C318.49561,137.56001 318.36618,138.26402 318.37109,139.28067C318.37561,140.2122 318.99609,140.65582 319.66577,140.96933C320.51114,141.36508 320.67291,142.39343 320.94577,143.09134C321.30975,144.02231 321.33719,145.0173 321.37109,145.91667C321.39969,146.67545 321.62238,147.63464 322.07559,148.20683C322.7193,149.01952 323.26395,149.41045 323.93909,148.998C324.59442,148.59764 325.25235,148.0713 325.32944,147.39583C325.45944,146.25664 325.05362,145.22093 325.72375,144.62567C326.20856,144.19502 326.37109,145.41667 326.37109,146.22116C326.37109,147.23801 326.37109,147.91667 326.37109,148.89534C326.37109,149.80067 326.37109,150.75267 326.37109,151.51801C326.37109,152.51216 326.37109,153.25951 326.37109,154.28067C326.37109,155.21667 326.37497,156.11801 326.37109,156.802C326.36575,157.74205 326.31744,158.83052 325.82944,159.39583C325.17825,160.15016 324.21121,160.2366 323.61392,161.01683C323.09726,161.69174 322.96872,162.55006 322.65509,163.43266C322.35925,164.26518 322.37109,165.21667 322.37109,166.118C322.37109,167.08333 322.37109,167.91667 322.37109,168.75C322.37109,169.61217 322.37109,170.51666 322.37109,171.4375C322.37109,172.40067 322.37109,173.09134 322.37109,174.1595C322.37109,175.017 322.37109,175.731 322.37109,176.68466C322.37109,177.666 322.37109,178.58333 322.37109,179.375C322.37109,180.31667 322.37109,181.22116 322.37109,182.08333C322.37109,182.91667 322.37109,183.89517 322.37109,184.71533C322.37109,185.61667 322.35925,186.56816 322.65509,187.40067C322.90601,188.10677 323.3284,189.02858 323.37109,190.01666C323.40994,190.91583 323.5451,191.62221 324.39194,191.9375C325.20776,192.24124 325.93216,192.89757 326.20444,193.75C326.47137,194.58569 326.31393,195.4537 326.72827,196.22566C327.10513,196.92783 327.4968,197.72186 328.00708,198.63C328.47192,199.45728 329.37137,199.49234 330.12827,200.13817C330.79742,200.70912 331.02853,201.56398 331.4711,202.45917C331.80759,203.1398 331.93832,203.95839 332.6666,204.74966C333.23352,205.36563 333.9541,205.76962 334.72293,205.96933C335.63159,206.20537 336.15561,207.09489 336.37109,207.89583C336.6044,208.76303 337.57962,209.03848 338.01392,209.62117C338.60461,210.41371 339.02457,211.02126 339.66577,211.67383C340.29871,212.31799 340.21231,213.36562 340.72827,214.155C341.20752,214.8882 342.28735,215.07097 342.37109,215.91667C342.44571,216.67015 342.37109,217.56934 342.37109,218.43266C342.37109,219.39583 342.40842,220.29349 342.37109,219.91667C342.28735,219.07097 341.37109,218.91667 340.61392,218.91667C339.71841,218.91667 338.8551,218.91667 337.89194,218.91667C336.9711,218.91667 335.88361,219.06558 335.45377,218.34734C335.03995,217.65587 334.85147,216.72369 334.18576,216.36333C333.30847,215.88843 332.24326,215.72783 331.67108,215.21217C331.04312,214.64626 330.59454,213.73515 330.35025,212.91667C330.0957,212.06384 329.55246,211.46487 328.53775,211.08333C327.84027,210.82108 327.29401,210.22508 326.87109,209.39583C326.46884,208.60709 326.47284,207.70062 325.94577,206.978C325.45499,206.30516 324.75446,205.7809 324.07642,205.21667C323.42908,204.67799 322.76822,204.0307 322.42377,203.20683C322.10785,202.45123 321.82004,201.59503 321.53775,200.75C321.26321,199.92812 321.43338,198.91331 321.36044,198.138C321.276,197.24036 320.57608,196.8582 319.72293,196.21584C319.21094,195.83034 318.38052,195.54846 318.37109,196.4375C318.36087,197.40062 318.26599,198.2088 318.93909,199.03134C319.41437,199.61215 320.18082,200.23128 320.37125,201.01649C320.5755,201.85872 321.22919,202.41263 321.34576,203.20334C321.48474,204.1461 321.65683,205.18806 322.18994,205.60767C323.03674,206.27419 323.90747,206.3721 324.60309,206.802C325.45193,207.3266 325.96246,208.12068 326.37109,208.91667C326.77304,209.69965 327.10229,210.42651 327.34576,211.29134C327.61087,212.23293 327.7562,213.09357 328.69226,213.67383C329.2825,214.0397 330.19351,214.30894 330.65643,215.11934C331.02423,215.7632 331.58987,216.67728 331.85025,217.41667C332.10565,218.14195 332.09857,219.26569 332.73276,219.8685C333.37845,220.48222 334.953,220.63693 334.70444,221.58333C334.55038,222.16989 333.10318,221.5892 332.57242,221.11534C331.83395,220.45604 331.23697,219.61745 330.61392,219.27383C329.78815,218.81841 328.84192,218.80457 328.39194,217.91667C327.99152,217.12659 327.2052,216.74806 326.5351,216.49133C325.77063,216.19846 324.70657,216.20215 323.94177,215.83267C323.18826,215.46864 322.42242,214.9975 321.89194,214.375C321.21902,213.58539 321.44366,212.71463 320.87109,211.9375C320.38565,211.27864 319.34668,211.28316 318.61392,210.69518C317.92786,210.14467 317.70865,209.31433 317.17242,208.43266C316.76642,207.76511 316.53284,206.93257 316.37109,205.91667C316.23749,205.07739 315.57889,204.63786 315.11642,204.03C314.60437,203.35693 313.84537,202.92337 313.13776,202.40067C312.33749,201.80952 311.69312,201.10385 311.34576,200.31667C310.98083,199.48962 310.47424,198.75865 310.39194,197.91667C310.29672,196.94258 310.19553,196.12332 309.52042,195.49533C308.93478,194.95058 308.54077,194.14992 308.39194,193.4375C308.1503,192.28088 307.45483,191.76236 307.37109,190.91667C307.29227,190.12056 307.37109,189.24467 307.37109,188.14867C307.37109,187.41667 307.6976,186.63101 307.36044,185.59933C307.09952,184.80095 306.38153,184.37517 306.37109,183.43266C306.36154,182.56938 306.37109,181.67383 306.37109,180.71667C306.37109,179.8165 306.46774,179.02519 306.36044,178.10201C306.24896,177.1427 305.43198,176.70145 305.37109,175.81667C305.3093,174.91879 305.37109,174.1595 305.37109,173.26401C305.37109,172.40067 305.37109,171.4375 305.37109,170.51666C305.37109,169.61217 305.37109,168.75 305.37109,167.91667C305.37109,166.93817 305.37109,166.118 305.37109,165.21667C305.37109,164.28067 305.37109,163.43134 305.37109,162.51216C305.37109,161.51801 305.37109,160.75267 305.37109,159.80067C305.37109,159.03267 305.37109,158.09134 305.37109,157.08333C305.37109,156.29134 305.37109,155.43134 305.37109,154.51216C305.37109,153.51801 305.37109,152.75267 305.37109,151.802C305.37109,150.91667 305.37109,150.11667 305.37109,149.1595C305.37109,148.26401 305.37109,147.40067 305.37109,146.55267C305.37109,145.61667 305.37109,144.71533 305.37109,143.75C305.37109,142.91667 305.63739,142.00316 305.25677,141.22116C304.88681,140.46103 303.80814,140.19942 303.39194,139.39583C302.92731,138.49876 302.67609,137.77716 302.45642,136.802C302.26096,135.93431 302.37109,135.11667 302.37109,134.28067C302.37109,133.26401 302.52521,132.55595 302.36044,131.55267C302.2175,130.68224 301.58737,129.95987 301.45642,129.14867C301.29956,128.17708 301.36655,127.24998 301.37109,126.45834C301.37643,125.52729 301.89175,124.92709 302.78177,124.91666C303.69235,124.90601 304.54578,124.91666 305.48575,124.91666C306.37109,124.91666 307.21951,124.70936 308.12827,125.031C308.93622,125.31697 309.50977,126.138 310.03775,126.91666L310.2991,127.706L310.36844,128.43134L310.37109,129.506" id="svg_16" stroke-width="3" stroke="#000" fill="none"/>
  <path t="103676,103916,103951,103979,103995,104027,104027,104027,104051" d="M308.37109,149.91667C309.39194,149.91667 310.34943,149.91667 311.28711,149.91667C312.05377,149.91667 313.1391,149.91667 313.87109,149.91667L314.60309,149.91667L315.6991,149.91667" id="svg_17" stroke-width="3" stroke="#000" fill="none"/>
  <path t="105501,105747,105847,105893,105893,106009,106033,106033,106033,106061,106061,106073,106151,106151,106172,106264,106323,106330,106330,106350,106358,106358,106398,106414,106430,106430,106443,106463,106463,106493,106552,106552,106576,106588,106628,106644,106644,106690,106690,106819,106859,106968,106968,107112,107168,107200,107232,107256,107256,107289,107289,107317,107348,107379,107403,107403,107419,107419,107419" d="M327.37109,141.91667C327.37109,140.21667 327.34439,139.28021 327.37244,138.43266C327.40103,137.56801 327.62155,136.4866 328.53775,136.08333C329.16193,135.80858 329.97244,135.91734 331.16043,135.91667C331.88577,135.91626 332.87109,135.91667 333.8551,135.91667C334.54578,135.91667 335.61392,135.91667 336.4711,135.91667C337.37109,135.91667 338.28604,136.06935 338.36975,136.80333C338.4761,137.73596 338.37109,138.75 338.37109,139.506C338.37109,140.41667 338.37109,141.32733 338.37109,142.23801C338.37109,143.09134 338.37109,144.03134 338.37109,144.91667C338.37109,145.71667 338.38898,146.70273 338.01392,147.56483C337.72272,148.23416 336.92813,148.63666 336.07559,148.92117C335.30377,149.17874 334.80447,150.12086 334.18576,150.51666C333.39603,151.02188 332.72403,151.71454 331.87109,151.89583C330.98007,152.08521 330.04977,151.91667 329.19644,151.91667C328.25644,151.91667 327.0972,152.36993 326.49258,151.69518C325.90076,151.03467 326.37109,149.91667 326.37109,149.1595C326.37109,148.26401 326.37109,147.40067 326.37109,146.4375C326.37109,145.51666 326.37109,144.71533 326.37109,143.75C326.37109,142.89583 326.37109,141.91667 326.37109,141.12733L326.37109,140.40201" id="svg_18" stroke-width="3" stroke="#000" fill="none"/>
  <path t="115319,115641,115669,115669,115693,115713,115945,115945,115945,116003,116003,116044,116064,116064,116313,116313,116357" d="M308.37109,173.91667C309.39194,173.91667 310.34961,173.91667 311.16977,173.91667C312.07111,173.91667 313.04318,173.92941 313.91376,173.91634C314.62201,173.9057 315.68481,173.87924 316.40042,173.34866C317.04291,172.8723 317.66995,171.97397 318.53775,171.91667C319.36929,171.86177 320.34961,171.91667 321.16977,171.91667L322.07111,171.8595" id="svg_19" stroke-width="3" stroke="#000" fill="none"/>
  <path t="119396,119528,119553,119561,119561,119561,119561,119585,119585,119585,119593,119593,119593,119593,119593,119593,119593,119597,119597,119597,119597,119597,119597,119597,119597,119597,119605,119605,119605,119605,119605,119605,119613,119613,119613,119613,119613,119613,119621,119621,119621,119621,119629,119629,119629,119629,119629,119637,119637,119637,119637,119637,119637,119645,119645,119645,119645,119645,119653,119653,119653,119661,119661,119661,119661,119669,119669,119669,119669,119677,119685,119685,119693,119693,119717,119733,119741,119747,119747,119759,119759,119763,119763,119771,119771,119779,119779,119787,119787,119795,119795,119803,119803,119811,119811,119811,119819,119819,119819,119827,119827,119827,119835,119835,119843,119843,119843,119843,119851,119851,119851,119859,119859,119859,119875,119875,119875,119875,119883,119883,119883,119895,119907,119907,119911,119915,119931,119951,119963,119963,119963,119979,119979,119987,119987,119987,119995,120003,120011,120019,120019,120027,120035,120035,120043,120051,120051,120059,120067,120079,120083,120083,120091,120091,120107,120115,120145,120145,120173,120193,120201,120201,120217,120217,120233,120241,120249,120269,120269,120277,120277,120338" d="M0.37109,190.91667C2.17109,190.91667 2.93359,190.91667 3.87109,190.91667C4.72909,190.91667 5.69509,190.91667 6.31909,190.91667C7.55359,190.91667 8.05859,190.91667 8.7436,190.91667C10.37109,190.91667 11.12726,190.91667 11.98043,190.91667C12.90759,190.91667 13.88576,190.91667 14.89193,190.91667C15.90309,190.91667 16.89626,190.91667 17.84843,190.91667C19.53776,190.91667 20.23543,190.91667 20.83909,190.91667C21.36476,190.91667 21.82843,190.91667 22.24609,190.91667C23.38309,190.91667 24.20443,190.91449 25.1951,190.918C25.74793,190.91995 26.93367,190.93465 27.55243,190.95267C28.17935,190.97093 30.03825,191.07828 30.62776,191.138C31.19828,191.19579 32.27802,191.34024 32.78776,191.41667C33.74826,191.56068 35.0364,191.76395 35.80176,191.83133C36.50874,191.89357 37.51925,191.91441 38.53776,191.91667C39.25909,191.91826 40.02843,191.91667 40.85376,191.91667C41.7431,191.91667 43.21376,191.91667 43.73909,191.91667C44.82176,191.91667 45.37109,191.91667 45.92043,191.91667C47.00309,191.91667 48.52793,191.91667 48.9991,191.91667C49.88843,191.91667 50.71376,191.91667 51.48309,191.91667C52.88576,191.91667 53.5351,191.91667 54.46659,191.91667C55.37109,191.91667 56.27559,191.91667 57.2071,191.91667C57.85643,191.91667 58.89209,191.91667 59.61476,191.91667C60.67376,191.91667 61.3574,191.61748 62.49509,191.92567C63.33534,192.15329 63.32539,193.43024 64.08092,193.80234C64.81223,194.16251 65.85026,193.91667 66.7711,193.91667C67.6756,193.91667 68.53776,193.91667 69.37109,193.91667C70.34976,193.91667 71.12376,193.91667 72.02826,193.91667C72.7756,193.91667 73.7711,193.91667 74.5711,193.91667C75.57093,193.91667 76.5351,193.91667 77.48843,193.91667C78.18093,193.91667 79.13909,193.91667 79.87109,193.91667C81.03776,193.91667 81.87109,193.91667 82.70443,193.91667C83.63243,193.91667 84.42293,193.91667 85.44976,193.91667C86.14576,193.91667 87.05509,193.91667 88.05509,193.91667C88.87109,193.91667 89.6871,193.91667 90.68843,193.91667C91.63243,193.91667 92.70443,193.91667 93.3391,193.91667C94.02176,193.91667 95.06576,193.91667 96.03776,193.91667C96.86126,193.91667 97.81926,193.91667 98.79276,193.91667C99.61776,193.91667 100.21776,193.91667 101.53776,193.91667C102.25376,193.91667 102.98576,193.91667 103.70976,193.91667C105.03776,193.91667 105.85226,193.91667 106.70493,193.91667C107.61843,193.91667 108.53776,193.91667 109.37109,193.91667C110.34959,193.91667 111.16976,193.91667 112.0711,193.91667C112.91276,193.91667 113.91393,193.91667 114.63243,193.91667C115.42293,193.91667 116.44959,193.91667 117.35026,193.91667C118.37109,193.91667 119.16043,193.91667 119.88576,193.91667C120.96043,193.91667 121.87109,193.91667 122.78176,193.91667C123.69243,193.91667 124.37109,193.91667 125.48576,193.91667C126.37109,193.91667 127.1711,193.91667 128.0071,193.91667C129.02376,193.91667 129.71843,193.91667 130.73509,193.91667C131.6711,193.91667 132.57243,193.91667 133.53777,193.91667C134.19643,193.91667 135.20442,193.91667 136.06659,193.91667C136.9711,193.91667 137.89192,193.91667 138.69243,193.91667C139.54576,193.91667 140.48576,193.91667 141.4711,193.91667C142.37109,193.91667 143.12827,193.91667 144.02376,193.91667C144.8871,193.91667 145.85027,193.91667 146.77109,193.91667C147.6756,193.91667 148.53777,193.91667 149.37109,193.91667L150.34959,193.91667L151.16975,193.91667L152.07109,193.91667" id="svg_20" stroke-width="3" stroke="#000" fill="none"/>
  <path t="121664,121860,121860,121878,121878,121906,121914,121914,121914,121934,121934,121950,121962,121966,121966,121970,121978,121982,121986,121986,121994,121994,122002,122002,122002,122010,122010,122018,122018,122018,122026,122026,122034,122046,122046,122046,122066,122066,122078,122106,122126,122126,122130,122138,122138,122138,122146,122146,122146,122154,122162,122170,122170,122170,122170,122178,122178,122178,122178,122186,122186,122194,122194,122202,122202,122210,122210,122210,122226,122226,122226,122234,122234,122242,122250,122250,122258,122266,122286,122298,122298,122314,122314,122314,122326,122331,122331,122339,122347,122355,122355,122367,122367,122450,122490,122806,122954,122954,123105,123105" d="M211.37109,191.91667C214.1711,191.91667 214.9711,191.91667 215.9666,191.91667C216.71393,191.91667 217.62292,191.91667 218.70442,191.91667C219.37643,191.91667 220.12042,191.91667 221.22809,191.91667C222.06209,191.91667 222.91277,191.91667 223.91376,191.91667C224.62177,191.91667 225.60309,191.91667 226.55676,191.91667C227.47127,191.91667 228.25642,191.91667 229.20709,191.91667C229.97243,191.91667 230.9756,191.91667 231.82826,191.91667C232.79227,191.91667 233.58575,191.91667 234.36127,191.91667C235.40443,191.91667 236.2336,191.91667 237.1351,191.91667C238.04709,191.91667 238.6951,191.91667 239.87109,191.91667C240.80859,191.91667 241.6801,191.91667 242.70442,191.91667C243.37643,191.91667 244.12042,191.91667 245.22809,191.91667C246.06209,191.91667 246.9711,191.91667 247.89192,191.91667C248.85509,191.91667 249.54576,191.91667 250.61842,191.91667C251.53777,191.91667 252.21776,191.91667 253.05775,191.91667C254.05376,191.91667 254.85027,191.91667 255.60176,191.91667C256.6991,191.91667 257.68008,191.91667 258.70444,191.91667C259.38992,191.91667 260.22842,191.91667 260.8591,191.91667C262.25375,191.91667 262.98575,191.91667 263.70975,191.91667C264.40176,191.91667 265.59909,191.91667 266.51376,191.91667C267.48709,191.91667 268.2551,191.91667 269.21777,191.91667C270.05777,191.91667 271.05643,191.91667 271.89194,191.91667C272.47559,191.91667 273.67078,191.91667 274.54977,191.91667C275.35675,191.91667 276.40042,191.91667 277.16843,191.91667C278.00708,191.91667 279.02377,191.91667 279.71841,191.91667C280.73511,191.91667 281.67108,191.91667 282.57242,191.91667C283.53775,191.91667 284.20709,191.91667 285.37109,191.91667C286.16043,191.91667 286.88577,191.91667 287.87109,191.91667C288.8551,191.91667 289.54578,191.91667 290.61392,191.91667C291.4711,191.91667 292.37109,191.91667 293.12827,191.91667C294.02377,191.91667 294.88708,191.91667 295.85025,191.91667C296.77109,191.91667 297.6756,191.91667 298.53775,191.91667L299.37109,191.91667L300.34961,191.91667L301.16977,191.91667" id="svg_21" stroke-width="3" stroke="#000" fill="none"/>
  <path t="123966,124071,124082,124082,124110,124114,124118,124118,124118,124122,124122,124130,124130,124138,124138,124138,124146,124146,124146,124146,124154,124154,124162,124162,124170,124170,124170,124178,124178,124178,124182,124186,124194,124206,124206,124214,124214,124222,124222,124230,124238,124250,124250,124254,124254,124262,124262,124270,124270,124270,124282,124282,124286,124286,124294,124294,124302,124302,124318,124318,124334,124334,124342,124342,124342,124350,124350,124358,124366,124374,124374,124382,124382,124390,124390,124398,124398,124402,124402,124406,124418,124418,124418,124430,124430,124430,124434,124434,124446,124450,124462,124462,124478,124478,124482,124482,124498,124514,124514,124518,124530,124530,124538,124546,124546,124554,124562,124562,124570,124570,124578,124578,124586,124594,124602,124602,124602,124610,124610,124610,124626,124626,124626,124634,124634,124642,124642,124642,124658,124658,124666,124682,124682,124694,124698,124706,124710,124722,124722,124731,124731,124739,124755,124755,124755,124763,124763,124763,124771,124771,124787,124787,124787,124795,124795,124795,124803,124803,124815,124827,124827,124954,124985,124985,125001,125021,125021,125033,125033,125041,125049,125049,125057,125057,125061,125069,125333,125333" d="M332.37109,196.91667C333.25775,195.918 334.19647,195.92369 334.88708,195.91667C335.9129,195.90625 336.87222,195.75519 337.7291,195.564C338.37198,195.42055 339.31073,195.15273 340.31644,195.002C341.10995,194.88307 342.03278,194.91667 342.83276,194.91667C343.79276,194.91667 344.61777,194.91667 345.53278,194.91667C346.53775,194.91667 347.25244,194.91667 348.32944,194.91667C349.00409,194.91667 350.10675,194.91667 350.9751,194.91667C351.85776,194.91667 352.61777,194.91667 353.79242,194.91667C354.59644,194.91667 355.14575,194.91667 356.44958,194.91667C357.1351,194.91667 357.96976,194.91667 358.96658,194.91667C359.71393,194.91667 360.74576,194.91667 361.6926,194.91667C362.39194,194.91667 363.37109,194.91667 364.35025,194.91667C365.20444,194.91667 366.06659,194.91667 366.9711,194.91667C367.89194,194.91667 368.85641,194.91667 369.58176,194.91667C370.57092,194.91667 371.35025,194.91667 372.3501,194.91667C373.06842,194.91667 374.1351,194.91667 375.04709,194.91667C375.6951,194.91667 376.87109,194.91667 377.67377,194.91667C378.53775,194.91667 379.39194,194.91667 380.37109,194.91667C381.16043,194.91667 382.20444,194.91667 382.99643,194.91667C383.85641,194.91667 384.58176,194.91667 385.57126,194.91667C386.39194,194.91667 387.53775,194.91667 388.31927,194.91667C389.10977,194.91667 390.03775,194.91667 390.94977,194.91667C391.87109,194.91667 392.78177,194.91667 393.6926,194.91667C394.39194,194.91667 395.37109,194.91667 396.35025,194.91667C397.20444,194.91667 397.99643,194.91667 399.03278,194.91667C399.83276,194.91667 400.7926,194.91667 401.60709,194.91667C402.47559,194.91667 403.37109,194.91667 404.2666,194.91667C405.1351,194.91667 406.20444,194.91667 406.91394,194.91667C407.7666,194.91667 408.76978,194.91667 409.5351,194.91667C410.61392,194.91667 411.4711,194.91667 412.37109,194.91667C413.12827,194.91667 414.02826,194.91667 414.7756,194.91667C415.76978,194.91667 416.71393,194.91667 417.62292,194.91667C418.70444,194.91667 419.37643,194.91667 420.12042,194.91667C421.22809,194.91667 422.0621,194.91667 423.00708,194.91667C423.8551,194.91667 424.71841,194.91667 425.61392,194.91667C426.57376,194.91667 427.34177,194.91667 428.37643,194.91667C429.12042,194.91667 430.03775,194.91667 430.94977,194.91667C431.87109,194.91667 432.79242,194.91667 433.70444,194.91667C434.38092,194.91667 435.15643,194.91667 436.44977,194.91667C437.14575,194.91667 438.05508,194.91667 439.05508,194.91667C439.87109,194.91667 440.6871,194.91667 441.6871,194.91667C442.37109,194.91667 443.53775,194.91667 444.31927,194.91667C445.10977,194.91667 446.03775,194.91667 446.94977,194.91667C447.89194,194.91667 448.8551,194.91667 449.54578,194.91667C450.61392,194.91667 451.4711,194.91667 452.37109,194.91667C453.12827,194.91667 454.02826,194.91667 454.7756,194.91667C455.76978,194.91667 456.71393,194.91667 457.62292,194.91667C458.70444,194.91667 459.38092,194.91667 460.15643,194.91667C461.20444,194.91667 462.1351,194.91667 462.7666,194.91667C463.77109,194.91667 464.57111,194.91667 465.57144,194.91667C466.41275,194.91667 467.14175,194.91667 468.33777,194.91667C469.01111,194.91667 470.00861,194.91667 471.1066,194.91667C471.80859,194.91667 472.78177,194.91667 473.69241,194.91667C474.54578,194.91667 475.48575,194.91667 476.37109,194.91667C477.17108,194.91667 478.00708,194.91667 479.02826,194.91667C479.7756,194.91667 480.76978,194.91667 481.5351,194.91667C482.48709,194.91667 483.53775,194.91667 484.19644,194.91667C485.20444,194.91667 486.06659,194.91667 486.9711,194.91667L487.89194,194.91667L488.8551,194.91667L489.54578,194.91667" id="svg_22" stroke-width="3" stroke="#000" fill="none"/>
  <path t="129018,129269,129322,129322,129380,129416,129416,129480,129506,129526,129526,129554,129580,129580,129592,129690,130030,130030,130158,130179,130191,130215,130215,130215,130220,130251,130251,130267,130267,130275,130275,130283,130291,130299,130299,130311,130311,130311,130331,130331,130331,130339,130339,130347,130347,130355,130355,130685,130778,130793,130809,130825,130825,130825,130842,130869,130881,130893,130893,130926,130926,130941" d="M141.37109,290.91666C141.37109,289.15952 141.63985,288.18848 141.28577,287.48599C140.87354,286.66818 139.72998,286.53513 139.02376,286.26935C138.1412,285.93719 137.1711,285.91666 136.27094,285.91666C135.48576,285.91666 134.54576,285.91666 133.53777,285.91666C132.78177,285.91666 131.87109,285.91666 130.96043,285.91666C130.04976,285.91666 129.18282,285.7587 128.25777,285.918C127.42161,286.06198 127.78026,286.78122 128.53777,287.25C129.24995,287.69073 129.85196,288.41275 130.73509,288.85535C131.54593,289.26172 132.16478,289.65341 133.1391,289.83133C133.86198,289.96332 135.03777,289.91666 135.82942,289.91666C136.6711,289.91666 137.57246,289.90897 138.53777,289.91666C139.20715,289.922 140.37936,290.05887 140.9756,290.27383C141.84171,290.58612 142.78748,291.03 143.58575,291.306C144.35686,291.5726 145.22267,291.85132 146.11926,291.91217C147.02618,291.97372 147.77559,291.91666 148.76976,291.91666C149.5351,291.91666 150.61392,291.91666 151.47076,291.91666C151.74976,291.91666 150.80064,291.96164 150.04976,291.474C149.31325,290.9957 148.94896,290.25394 147.89192,289.95834C147.00421,289.71008 146.06653,289.92743 145.20442,289.91666C144.3709,289.90625 143.39259,289.69534 142.78177,289.34201L141.87109,288.89584" id="svg_23" stroke-width="3" stroke="#000" fill="none"/>
 </g>
</svg>