<svg width="500" height="334.26183844011143" xmlns="http://www.w3.org/2000/svg" xmlns:svg="http://www.w3.org/2000/svg" xmlns:xlink="http://www.w3.org/1999/xlink">
 <!-- Created with SVG-edit - http://svg-edit.googlecode.com/ -->
 <g display="inline" class="layer">
  <title>Layer 1</title>
  <path t="0,115,123,140,141,149,156,165,172,189,197,197,197,204,204,204,213,214,220,229,229,237,238,246,246,255,265,276,284,285,301,301,308,319,320,335,341,341,341,348,348,357,365,373,399,409,409,416,420,420,433,441,457,466,466,469,482,493,495,507,516,523,523,532,539,539,548,564,575,576,577,588,588,588,597,598,604,604,604,614,614,621,630,630,630,637,637,648,648,648,652,652,665,665,669,669,669,680,680,680,684,691,691,700,700,707,707,716,723,723,732,732,740,740,748,748,755,764,764,771,771,781,781,787,788,798,798,804,804,814,814,821,821,830,830,838,838,847,847,847,854,854,854,863,864,864,871,871,876,876,876,876,888,888,888,888,891,892,901,901,901,901,911,912,917,917,923,923,932,932,939,948,955,965,965,971,980,989,989,998,998,1004,1014,1014,1021,1021,1021,1030,1030,1035,1035,1047,1047,1055,1064,1064,1072,1072,1080,1080,1088,1088,1091,1091,1100,1100,1108,1109,1117,1117,1124,1133,1133,1133,1140,1140,1148,1148,1148,1155,1155,1155,1164,1164,1165,1171,1171,1171,1180,1181,1181,1189,1189,1189,1189,1197,1197,1198,1206,1206,1206,1206,1214,1214,1214,1221,1221,1222,1231,1235,1247,1247,1251,1252,1260,1260,1272,1275,1291,1307,1332,1348,1387,1411" d="M-0.5,211.53091C0.33333,211.69759 0.55716,212.52867 1.5,212.53091C2.3,212.53282 3.2,212.53091 4.1,212.53091C5,212.53091 5.9,212.53091 6.8045,212.53091C7.66667,212.53091 8.35733,212.53091 9.272,212.53091C10.1425,212.53091 11.14,212.53091 11.81333,212.53091C13,212.53091 13.792,212.53091 14.8,212.53091C15.70133,212.53091 16.38533,212.53091 17.336,212.53091C18.10133,212.53091 19.0955,212.53091 20.01467,212.53091C20.97917,212.53091 21.9,212.53091 22.8,212.53091C23.7,212.53091 24.6,212.53091 25.5,212.53091C26.3,212.53091 27.2,212.53091 28.1,212.53091C29,212.53091 29.809,212.53091 30.83333,212.53091C31.50533,212.53091 32.49467,212.53091 33.357,212.53091C34.29733,212.53091 35.2,212.53091 36.1,212.53091C36.97917,212.53091 37.86167,212.53091 38.82133,212.53091C39.5,212.53091 40.47994,212.58516 41.5,212.53091C42.3034,212.48819 42.92175,211.84396 43.7955,211.58809C44.68588,211.32735 45.55083,211.23007 46.2,210.88359C47.04938,210.43025 48,210.53091 48.9,210.53091C49.7955,210.53091 50.7215,210.53091 51.6,210.53091C52.5,210.53091 53.3,210.53091 54.136,210.53091C55.15267,210.53091 55.84733,210.53091 56.864,210.53091C57.8045,210.53091 58.66809,210.56409 59.54167,210.51009C60.18865,210.47009 61.18431,210.2529 61.97917,210.03091C62.73227,209.82059 63.8624,209.57053 64.55334,209.44691C65.55592,209.26755 66.49876,209.02538 67.142,208.88359C68.23347,208.64301 69.07309,208.61436 70.04166,208.51009C70.84203,208.4239 71.7466,208.09151 72.49467,207.88359C73.52676,207.59673 74.30533,207.53317 75.26933,207.53091C76.02084,207.52916 76.81734,207.53091 77.81333,207.53091C78.65334,207.53091 79.61733,207.53275 80.46933,207.53091C81.51434,207.52867 82.32378,207.51816 82.90266,207.44559C84.10433,207.29492 84.95415,207.01535 85.72933,206.81493C86.68091,206.56889 87.6156,206.62238 88.38533,206.44559C89.36935,206.21959 89.88474,205.79454 90.89867,205.61626C91.83197,205.45215 92.87046,205.71321 93.6,205.08826C94.12099,204.64195 94.57412,203.66078 95.38533,203.53358C96.32462,203.38631 97.118,203.50124 98.0955,203.17825C98.85827,202.92622 99.74452,202.61115 100.70267,202.52959C101.47247,202.46407 102.26707,202.24374 103,202.03091C104.16521,201.69255 104.97897,201.54134 105.82133,201.53091C106.6746,201.52036 107.63106,201.6187 108.384,201.44559C109.36919,201.21909 110.08658,200.73561 111.1,200.58809C111.89337,200.4726 112.89867,200.53091 113.664,200.53091C114.616,200.53091 115.384,200.53091 116.34666,200.53091C117.18667,200.53091 118.18533,200.53091 119.02084,200.53091C119.6045,200.53091 120.79984,200.53091 121.68933,200.53091C122.54283,200.53091 123.5785,200.53091 124.264,200.53091C125.09866,200.53091 126.109,200.53091 127.01434,200.53091C127.83334,200.53091 128.80983,200.53091 129.52083,200.53091C130.25183,200.53091 131.33333,200.53091 132.33833,200.53091C133.25333,200.53091 133.81369,200.55615 135.05183,200.52643C135.76183,200.50938 136.83604,200.37794 137.46666,200.24559C138.48404,200.03206 139.16733,199.90111 140.23567,199.43109C140.98274,199.10242 141.81665,198.60194 142.71066,198.5416C143.69765,198.47498 144.47964,198.55919 145.33333,198.53091C146.19691,198.50232 146.92256,197.84538 147.8,197.58809C148.66545,197.33432 149.55084,197.23007 150.2,196.88359C151.04938,196.43024 151.91066,196.53091 152.82133,196.53091C153.67467,196.53091 154.616,196.53091 155.384,196.53091C156.32533,196.53091 157.33333,196.53091 158.16133,196.53091C159.04266,196.53091 160,196.53091 160.73199,196.53091C161.69467,196.53091 162.468,196.53091 163.50534,196.53091C164.24933,196.53091 165.35699,196.53091 166.19099,196.53091C167.02083,196.53091 167.98534,196.53091 168.71066,196.53091C169.69983,196.53091 170.47917,196.53091 171.47867,196.53091C172.384,196.53091 173.336,196.53091 174.10133,196.53091C175.10001,196.53091 175.89999,196.53091 176.89867,196.53091C177.664,196.53091 178.63138,196.62004 179.384,196.44559C180.35901,196.21959 181.00629,195.77798 182.02083,195.53091C182.82669,195.33466 183.74661,195.09151 184.49466,194.88359C185.52676,194.59673 186.30573,194.55682 187.26933,194.52826C188.02151,194.50597 188.85822,194.45064 189.81599,193.96292C190.53691,193.59581 191.14622,192.98601 192.18401,192.70158C192.98076,192.48322 193.81599,192.53226 194.81734,192.53091C195.52083,192.52998 196.26933,192.53091 197.46933,192.53091C198.16133,192.53091 198.88533,192.53233 200.33333,192.53091C201.01334,192.53024 201.65695,192.56625 202.53833,192.47375C203.58597,192.3638 204.51683,191.99916 205.26933,191.72958C206.1384,191.41824 206.80911,191.22838 207.52083,191.03091C208.61626,190.72699 209.67805,190.43018 210.33833,190.23543C211.25296,189.96565 212.32918,189.66635 213.03833,189.58809C213.83522,189.50014 214.864,189.53091 215.70134,189.53091C216.66667,189.53091 217.5,189.53091 218.47867,189.53091C219.25267,189.53091 220.15266,189.53091 221.01601,189.53091C221.97917,189.53091 222.7955,189.53091 223.784,189.53091C224.66667,189.53091 225.536,189.53091 226.30133,189.53091L227.33333,189.53091L227.5,188.81493" id="svg_1" stroke-width="3" stroke="#000" fill="none"/>
  <path t="14047,14144,14154,14157,14182,14183,14183,14183,14183,14200,14200,14200,14200,14213,14214,14214,14214,14214,14216,14216,14216,14216,14216,14216,14216,14235,14235,14235,14235,14236,14236,14256,14256,14256,14256,14256,14256,14256,14256,14266,14266,14266,14266,14266,14266,14270,14270,14270,14270,14270,14270,14278,14278,14278,14287,14287,14287,14295,14303,14311,14312,14321,14321,14330,14337,14345,14345,14353,14354,14361,14369,14369,14374,14374,14382,14389,14398,14398,14406,14406,14414,14414,14421,14430,14430,14437,14446,14453,14462,14470,14478,14486,14495,14502,14502,14512,14528,14536,14545,14553,14553,14561,14570,14581,14605,14653,14672,14696,14742,14757,14773,14797,14820" d="M393.5,177.53091C394.2045,176.88359 394.91696,176.36488 395.58401,175.81493C396.12875,175.3658 397.26575,175.31548 397.867,175.17375C398.8985,174.93062 399.62018,174.73499 400.67868,174.43109C401.3483,174.23885 402.32059,173.94438 402.98401,173.81625C404.01596,173.61696 404.77499,173.58075 405.60416,173.53091C406.53299,173.47508 407.04391,173.46205 408.78534,173.30959C409.43652,173.25258 410.11072,173.17883 410.80133,173.10559C411.50006,173.03149 412.19791,172.94876 413.564,172.81493C414.83267,172.69063 415.41458,172.65092 416.48932,172.57909C416.99863,172.54504 418.00238,172.47957 418.51068,172.42108C420.17072,172.23009 420.78613,172.09149 421.43735,171.96292C422.11584,171.82896 423.52048,171.52921 424.23468,171.38159C424.94617,171.23454 425.6459,171.07825 427,170.86426C427.63403,170.76405 428.82813,170.63643 429.392,170.59225C430.46738,170.508 430.98856,170.50636 432.5,170.36426C433.00031,170.31721 433.98862,170.18549 434.9375,170.01009C435.39307,169.92587 436.2551,169.76682 437.64532,169.33226C438.20755,169.15652 439.17142,168.75771 440.18268,168.61626C440.97406,168.50557 441.73065,168.53242 442.828,168.53091C443.70001,168.52972 444.55106,168.22206 445.25717,167.88359C446.10754,167.47598 446.89719,167.83344 447.85333,167.52025C448.65591,167.25735 449.35132,166.59013 450.02084,166.55176C451.16498,166.48618 451.96506,166.63358 452.91068,166.52025C453.83871,166.40903 454.46609,165.92763 455.47849,165.65242C456.17953,165.46185 457.10001,165.53091 458.02084,165.53091C458.98401,165.53091 459.67465,165.53091 460.75183,165.53091C461.46933,165.53091 462.50082,165.53091 463.21335,165.53091C464.24667,165.53091 465.20984,165.53091 466.01733,165.53091C466.86401,165.53091 467.83386,165.58281 468.47467,165.10559C469.15643,164.59789 470.01303,164.67323 470.89999,164.52025C471.73187,164.37677 472.41388,163.57365 473.20984,163.53091C474.01617,163.48763 474.95834,163.53091 475.936,163.53091C476.79999,163.53091 477.75729,163.69461 478.60001,163.30959C479.26932,163.00378 480.09995,162.53625 480.97916,162.53091C481.85263,162.5256 482.79849,162.69017 483.66666,162.53091C484.45364,162.38655 484.73682,161.70122 485.66666,161.53091C486.4549,161.38655 486.92532,160.56693 487.72134,160.30959L488.33334,159.69759" id="svg_2" stroke-width="3" stroke="#000" fill="none"/>
  <path t="17831,18022,18030,18046,18046,18059,18066,18073,18082,18098,18106,18110,18119,18126,18135,18141,18150,18158,18182,18199,18200,18207,18224,18232,18254,18254,18268,18278,18292,18306,18326,18326,18335,18359,18368,18368,18375,18382,18391,18399,18407,18407,18416,18424,18432,18440,18450,18450,18456,18456,18456,18479,18485,18485,18485,18494,18502,18510,18526,18534,18535,18541,18574,18590,18608,18617,18638,18651,18652,18659,18662,18676,18677,18683,18691,18699,18700,18707,18707,18712,18719,18719,18726,18726,18743,18743,18751,18751,18758,18758,18758,18758,18767,18774,18774,18784,18791,18791,18800,18807,18807,18838,18859,18918,18941,18958,18977,18994,19017,19024,19041,19062,19068,19078,19078,19110,19119,19141,19185,19198,19254,19276,19278,19286,19302,19311,19320,19327,19336,19374,19393,19411,19426,19487,19519,19527,19554,19569,19577,19595,19603,19610,19620,19628,19636,19660,19664,19664,19664,19670,19680,19688,19695,19712,19719,19720,19738,19746,19762,19769,19779,19802,19811,19871,19904,19904,19904,19904,19910,19910,19910,19928,19936,19937,19953,19955,19975,19989,19989,19998,20007,20018,20035,20043,20062,20071,20086,20102,20110,20119,20126,20135,20142,20154,20161,20169,20176,20184,20193,20193,20209,20226,20246,20270" d="M187.5,81.53092C186.62134,81.53109 186,82.03091 185.33333,82.69759C184.7955,83.23542 184.19473,84.10545 183.30133,84.44559C182.52049,84.74287 181.79221,85.06997 181.07466,85.54159C180.4325,85.96365 180.15062,86.82946 179.47467,87.55625C178.92798,88.14406 178.67145,89.00782 178.14734,89.82642C177.67159,90.5695 176.87524,90.96404 176.49867,91.81625C176.15765,92.588 175.66998,93.17101 174.85716,93.52642C174.03915,93.88409 173.5493,94.61625 173.5,95.53092C173.4567,96.3343 173.10196,97.09338 172.52533,97.92026C172.07353,98.56814 171.69511,99.03871 171.2785,99.75242C170.86511,100.4606 169.85394,100.91105 169.5,101.69759C169.15125,102.47257 168.85266,103.23092 168.5,104.03092C168.14734,104.83092 167.7525,105.66049 167.48933,106.51626C167.25447,107.27999 166.58223,107.83598 165.936,108.54559C165.38814,109.14718 165.483,110.14032 165.07466,110.94159C164.6846,111.70699 164.57198,112.56677 164.33333,113.53092C164.13376,114.33722 163.74503,115.03494 163.52533,115.91625C163.29137,116.85478 163.1577,117.53508 162.85266,118.46842C162.53606,119.43716 161.81418,119.97235 161.55716,120.83092C161.29852,121.69494 161.19611,122.58012 160.85266,123.23092C160.38358,124.1198 160.39503,124.94003 159.85266,125.52642C159.42302,125.99092 159.62355,127.06494 159.216,127.81625C158.78621,128.60858 158.44733,129.23093 158,130.03091C157.55267,130.83092 157.12042,131.68053 156.784,132.41626C156.45251,133.1412 156.1584,134.02481 155.66667,134.69759C155.2168,135.3131 155.10466,136.37936 154.69867,137.04692C154.16246,137.92859 153.657,138.6413 153.416,139.41626C153.17369,140.19548 152.80792,140.95016 152.01733,141.64558C151.40935,142.18039 150.65887,142.73126 150.39467,143.40242C150.04518,144.29024 149.64722,145.20595 149.35066,145.85492C149.06595,146.478 148.7347,147.70943 148.33333,148.53091C147.96056,149.29387 147.55328,150.06909 147.216,151.01492C146.96431,151.72072 146.74098,152.70601 146.33333,153.53091C145.97772,154.25052 145.01106,154.66185 144.58533,155.44559C144.19424,156.16553 143.86887,156.66769 143.41467,157.24692C142.91791,157.88042 141.90053,158.04608 141.14734,158.53542C140.46373,158.97954 139.89444,159.53554 139.44733,160.23543C138.96576,160.98927 138.33333,161.69759 137.784,162.24692C137.07466,162.95625 136.58591,163.61908 136.5,164.50558C136.41563,165.37621 135.29666,165.86873 135.58533,166.61626C135.88655,167.39632 136.6105,168.00264 137.14734,168.58359C137.78368,169.27223 138.18343,169.9286 138.85716,170.47826C139.55945,171.05121 140.4034,171.32066 141.11067,171.56693C141.94185,171.85632 142.8468,172.25972 143.44284,172.88359C143.9483,173.41266 144.46341,173.76828 145.216,174.24692C145.91962,174.6944 146.85716,174.53091 147.7955,174.53091C148.7215,174.53091 149.60001,174.53091 150.5,174.53091C151.37866,174.53091 152.22128,174.50191 152.97917,174.03091C153.73953,173.55838 154.68071,173.39632 155.32533,173.09492C156.03314,172.76399 156.85199,172.14017 157.52533,171.50558C158.10951,170.95502 159.03777,170.771 159.89999,170.50958C160.68173,170.27258 160.93755,169.30316 161.51067,168.52025C161.9818,167.87665 162.5045,167.17825 163,166.53091C163.4955,165.88359 163.60506,165.1219 164.14734,164.53542C164.62788,164.01569 164.8241,163.02689 165.06934,162.47758C165.50458,161.50267 165.85094,160.8313 166.33333,159.86426C166.73756,159.05388 166.81256,158.23866 167.56134,157.51625C168.20848,156.89189 169.12585,157.05351 169.95833,156.53091C170.70262,156.06367 170.99826,155.19281 171.83333,154.69759C172.54791,154.27382 173.246,154.30972 173.784,153.61493C174.26793,152.98997 174.88794,152.66267 175.464,152.10559C175.96539,151.62073 176.41048,150.95984 176.92534,150.53091C177.44632,150.09689 178.08742,149.6506 178.7955,149.17825C179.55511,148.67154 179.60127,147.73882 180,147.03091C180.49472,146.15259 181.07735,145.58972 181.52533,144.92026C182.01746,144.18483 182.28487,143.27728 182.66667,142.53091C183.03223,141.81633 183.85266,141.17375 184.37849,140.43092L184.5,139.53091L184.5,138.69759" id="svg_3" stroke-width="3" stroke="#000" fill="none"/>
  <path t="21768,21830,21839,21863,21871,21894,21904,21919,21929,21936,21953,21961,21970,21977,21987,21994,21994,21994,21999,22014,22062,22167,22179,22179,22182,22199,22206,22214,22217,22224,22256,22342,22363,22379,22394,22394,22403,22411,22423,22431,22479,22520,22520,22535,22545,22564,22571,22591,22606,22615,22638,22655,22688,22742,22767,22788,22788" d="M189.5,137.53091C189.41467,138.33226 188.93344,139.09979 188.49867,139.81493C188.08237,140.49966 187.5,140.88809 187.5,141.82642C187.5,142.69759 187.35001,143.46184 186.85266,144.17825C186.36299,144.88361 185.8687,145.51672 185.47467,146.14159C185.00267,146.89011 184.64812,147.75122 184.33333,148.69759C184.10873,149.37283 183.74077,150.07813 183.11067,150.88426C182.53683,151.61842 182.50513,152.51537 183.02083,152.01009C183.70689,151.33788 184.3,150.73093 184.97917,150.05176C185.584,149.44691 186.16142,148.77959 186.8,148.23543C187.55334,147.59348 188.03975,147.22661 188.72133,146.65242C189.34779,146.12466 190.2084,147.15337 190.5,147.95625C190.78209,148.73299 191.149,149.36029 191.55267,150.23093C191.93822,151.06245 192.20255,152.10382 192.92534,152.49492C193.6812,152.9039 194.56538,152.23944 195.216,151.81493C195.92049,151.35527 196.49429,150.71283 197.30133,150.53226C198.19263,150.33282 198.84859,151.07207 199.66667,151.53091C200.36452,151.9223 200.58533,152.61626 201.216,153.24692C201.85268,153.88358 202.51067,154.53091 203.33333,154.69759L203.66667,155.53091L204.14734,156.17375" id="svg_4" stroke-width="3" stroke="#000" fill="none"/>
  <path t="24409,24502,24502,24514,24519,24533,24540,24547,24547,24556,24567,24576,24583,24599,24608,24614,24631,24649,24657,24678,24679,24723,24734,24759,24768,24776,24790,24799,24799,24807,24814,24815,24824,24831,24831,24847,24847,24864,24873,24894,24907,24919,24939,24951,24975,24983,25000,25008,25024,25040,25058,25073,25095,25119,25152,25175,25175,25191,25303,25447,25471" d="M210.5,134.53091C210.5,135.53091 210.52724,136.33133 210.5,137.23093C210.47141,138.17505 209.64531,138.57887 209.50133,139.41759C209.34251,140.34273 209.71291,141.069 209.5,142.08426C209.31984,142.94336 208.5609,143.62445 208.5,144.50558C208.43767,145.40744 208.5,146.23543 208.5,147.09492C208.5,148.05176 208.41548,148.93492 208.5,149.82642C208.58371,150.70943 209.35583,151.20963 209.5,152.03091C209.65999,152.94232 209.92732,153.59695 210.37849,154.40959C210.76155,155.09953 211.37146,155.69086 211.5,156.53091C211.62169,157.3262 212.04178,158.01122 212.69867,158.73093C213.23215,159.31543 213.46645,160.18788 213.85266,161.17909C214.10912,161.8373 214.56241,162.827 215.216,163.24692C215.98695,163.74223 216.13478,164.3455 216.536,165.10559C216.9326,165.85695 217.08148,166.61967 217.58533,167.24692C218.16573,167.96945 218.53525,168.38293 219,169.03091C219.5426,169.78745 219.45102,170.73099 219.5,171.58809C219.54274,172.33592 220.24814,173.067 220.464,173.92026C220.70044,174.85481 220.5,175.75226 220.5,176.69759C220.5,177.53091 220.5,178.33092 220.5,179.24559L220.55716,180.17825L221.33333,180.53091L221.5,181.24692" id="svg_5" stroke-width="3" stroke="#000" fill="none"/>
  <path t="26073,26175,26183,26191,26199,26208,26215,26215,26225,26232,26242,26242,26258,26266,26275,26275,26291,26319,26327,26335,26351,26367,26376,26383,26392,26408,26415,26424,26447,26458,26471,26490,26499,26515,26542,26564,26571,26577,26591,26608,26616,26632,26641,26648,26658,26675,26683,26691,26692,26699,26704,26704,26711,26712,26719,26728,26728,26735,26735,26743,26751,26751,26760,26760,26767,26776,26783,26792,26799,26826,26935,26983,26999,27007,27018,27033,27050,27075,27095,27096,27111,27119,27127,27136,27143,27196,27206,27209,27220,27225,27234,27242,27263,27263,27283,27283,27295,27295,27359,27383,27392,27407,27417,27437,27444,27463,27503,27512,27519,27543,27760,27783,27800,27807,27807,27820,27820,27834,27834,27843,27851,27867,27872,27879,27920" d="M227.5,137.53091C227.5,137.23543 227.50533,138.13094 227.5,139.03091C227.49466,139.93097 227.04704,140.63814 226.66667,141.53091C226.34647,142.28246 226.5,143.23093 226.5,144.05176C226.5,145.0136 226.49928,145.82109 226.5,146.81625C226.50067,147.73093 226.82921,148.55775 227.216,149.24559C227.62532,149.9735 227.52579,150.94371 228,151.53091C228.51218,152.16513 228.37224,153.17731 228.85266,153.88359C229.35933,154.62846 229.02879,155.4632 229.5,156.24559C229.87784,156.87296 230.48309,157.33243 230.5,158.17375C230.51874,159.10609 231.35588,159.57809 231.5,160.40942C231.64108,161.22328 231.5,162.17375 231.5,163.03091C231.5,163.95625 231.9567,164.58131 232.37849,165.40959C232.73164,166.10306 232.5,167.10559 232.5,167.96692C232.5,168.92026 232.25644,169.88068 232.58533,170.61493C232.92755,171.37897 233.49466,172.09488 233.5,172.96692C233.50597,173.94157 233.4996,174.85225 233.5,175.53091C233.50067,176.64558 233.72852,177.49525 234.07466,178.16692C234.49319,178.97905 234.42154,179.88203 234.5045,180.77826C234.59055,181.70781 235.01816,182.3235 235.33333,183.36426C235.55705,184.10306 235.47652,185.05208 235.50133,186.01492C235.51915,186.70622 235.87727,187.59491 236.216,188.32959C236.61111,189.18657 236.33391,190.1503 236.52083,191.03091C236.6998,191.87407 237.49466,192.55621 237.5,193.44691C237.50549,194.36424 237.09044,194.08943 236.41467,193.44559C235.80928,192.86877 234.93605,192.53625 234,192.53091C233.14735,192.52605 232.21446,192.58295 231.33333,192.53091C230.60954,192.48817 229.72661,192.0049 228.83333,191.69759C228.00641,191.4131 227.34818,190.97208 226.51067,190.5416C225.74364,190.14734 225.12532,189.85301 224.416,189.44559C223.69012,189.02866 223.51117,187.9164 222.88933,187.50558C222.06352,186.96001 221.6331,186.31898 221.32933,185.64426C220.94478,184.7901 220.31735,184.35361 219.52167,183.55258C218.94859,182.97566 218.5,182.17825 218.5,181.24559C218.5,180.43109 218.5,179.49492 218.5,178.72958C218.5,177.83092 218.5,176.88809 218.5,175.95625C218.5,175.09492 218.46793,174.10335 219,173.55176C219.46524,173.06946 219.1922,171.91753 219.784,171.53091C220.52296,171.04816 221.51668,171.42513 222.38533,171.61626C223.17476,171.78996 223.9014,172.38757 224.94284,172.53091C225.67841,172.63216 226.61333,172.53091 227.55267,172.53091C228.47467,172.53091 229.30133,172.61626 230.064,173.10559L230.784,173.53091" id="svg_6" stroke-width="3" stroke="#000" fill="none"/>
  <path t="31426,31519,31564,31572,31576,31595,31616,31624,31640,31649,31649,31656,31665,31665,31665,31673,31689,31697,31705,31731,31737,31747,31768,31792,31816,31839,31862,31888,31906,31922,31938,31954,31964,31975,31988,31992,32004,32008,32032,32049,32056,32082,32115,32136,32149,32160,32172,32192,32192,32207,32216,32224,32240,32249,32264,32280,32288,32298,32305,32314,32322,32347,32352,32364,32432,32472,32544,32544,32557,32560,32560,32560,32576,32584,32592,32592,32601,32608,32616,32632,32648,32704,32761,32776,32800,32800,32808,32824,32840,32856,32875,32904,32936,32949,32969,32984,33096" d="M208.5,46.53092C210.07466,47.53092 210.99435,47.21301 211.88933,47.54159C212.60876,47.80572 212.92534,48.53092 213.85716,48.53092C214.69867,48.53092 215.66667,48.53092 216.5,48.53092C217.3,48.53092 218.172,48.53092 219.26801,48.53092C220,48.53092 220.73199,48.53092 221.81734,48.53092C222.7215,48.53092 223.59984,48.53092 224.52533,48.53092C225.416,48.53092 226.2045,48.53092 227.14284,48.53092C228.07466,48.53092 228.92534,48.53092 229.85266,48.53092C230.784,48.53092 231.66667,48.53092 232.536,48.53092C233.30133,48.53092 234.35809,48.33167 235.14734,48.53092C236.01613,48.75026 236.79922,49.29572 237.416,49.81492C238.07739,50.37169 238.54144,51.06159 239.416,51.44559C240.15266,51.76904 241.19795,51.17173 241.97917,51.55175C242.70923,51.90689 243.11221,52.45729 243.85716,52.88359C244.64697,53.33555 245.44733,53.53092 246.30133,53.53092C247.21466,53.53092 248.06799,53.53092 248.93201,53.53092C249.85716,53.53092 250.8,53.53092 251.7,53.53092C252.59984,53.53092 253.44775,53.55804 254.30133,53.53092C255.20135,53.50232 255.81033,52.91281 256.70001,52.61626C257.55746,52.33044 258.52533,52.53092 259.30133,52.53092C260.33334,52.53092 261.14719,52.56073 261.88934,52.10559C262.71338,51.60022 263.06836,50.78294 263.66666,50.69759C264.49765,50.57905 264.49466,52.20287 264.5,53.07342C264.50574,54.01007 264.5,54.67759 264.5,55.81625C264.5,56.63092 264.5,57.53092 264.5,58.33092C264.5,59.23092 264.5,60.13092 264.5,61.09492C264.5,61.95626 264.6391,62.89403 264.5,63.81492C264.38806,64.55595 263.44733,64.53092 262.5,64.53092C261.70001,64.53092 260.78534,64.53092 259.92532,64.53092C259,64.53092 258.216,64.81491 257.55716,65.47375C257,66.03092 256.33334,66.69759 255.66667,67.36426L254.92534,67.56693L254.50133,68.24693L254.07466,68.95625" id="svg_7" stroke-width="3" stroke="#000" fill="none"/>
  <path t="33693,33776,33872,33892,33896,33909,33932,33944,33952,33976,34072,34176,34568,34576,34584,34609,34618,34624,34632,34641,34667,34675,34700,34704,34716,34733,34736,34752,34760,34776,34792,34801,34835,34868,34907" d="M209.5,45.53092C208.44284,46.17826 207.56097,46.52329 207.5,47.23542C207.4236,48.12766 207.50229,49.09492 207.5,49.96692C207.49774,50.82643 206.77393,51.34468 206.5,51.95626C206.149,52.7399 206.00069,53.07838 205.5,53.69759C204.97603,54.34558 205.25095,55.05389 204.66667,55.69759C204.09549,56.32686 204.5,57.40959 204.5,58.23542C204.5,59.09492 204.38742,60.05908 204.5,60.92025C204.6116,61.77393 205.10847,62.52906 205.55716,63.17826C206.08812,63.94651 206.06377,64.73055 206.66667,65.36426C207.25067,65.9781 207.72821,65.94434 208.37849,66.53109C208.91757,67.01749 209.14734,67.53092 209.85266,67.88359L210.5,68.56693" id="svg_8" stroke-width="3" stroke="#000" fill="none"/>
  <path t="35722,35848,35888,35888,35913,35936,35970,35984,36161,36193,36203,36209,36217,36227,36235,36243,36252,36260,36269,36276,36292,36313,36321,36336,36352,36360,36377,36386,36393,36402,36403,36403,36409,36409,36409,36409,36409,36419,36419,36426,36489,36520,36545,36568,36579,36593,36610,36619,36657,36721,36744,36754,36761,36808,36828,36833,36846,36846,36853,36860,36865,36872,36897,36920,36993,37001,37012,37030,37036,37057,37078,37081,37088,37096,37096,37105,37105,37113,37121,37128,37129,37170,37185,37320,37337,37346,37346,37354,37354,37361,37361,37370,37377,37386,37403,37440,37465,37481,37496,37521,37537,37560,37578,37585,37595,37596,37603,37612,37620,37627,37637,37670" d="M202.5,60.53092C201.92534,61.10559 201.36636,61.87936 200.69867,62.24692C199.86111,62.70798 199.15143,63.07208 198.33333,63.53092C197.6355,63.92231 197.80244,64.83141 197.44284,65.58809C197.11758,66.27248 195.94493,66.23188 195.11067,66.54159C194.37706,66.81393 193.87273,67.52504 193.10001,67.95625C192.2811,68.41324 191.39561,68.44224 190.5,68.53092C189.65431,68.61466 189.2133,69.0932 188.62151,69.75226C188.06018,70.37738 188.25327,71.07072 187.66667,71.69759C187.08601,72.31812 187.55334,73.40755 188,74.05176C188.51543,74.79514 188.79376,75.73279 189.39333,76.36692C189.76987,76.76517 190.82623,77.54241 191.46666,77.92959C192.13284,78.33234 192.82167,78.68028 193.44667,79.04559C194.64511,79.74606 195.18874,80.22417 195.88933,80.92026C196.52737,81.5542 197.1322,82.264 196.47917,82.53092C195.65926,82.86606 195.41467,83.53025 194.51067,83.53092C193.69867,83.53152 192.66907,83.92823 191.92534,83.49492C191.23293,83.0915 192.1293,82.53125 192.89999,82.95625C193.7202,83.40856 194.23749,83.74306 194.72133,84.40959C195.23358,85.11525 195.6409,85.70864 196,86.51009C196.38727,87.3744 196.06206,88.26696 196.536,89.09492C196.93694,89.79535 197.55737,90.09846 198.07466,90.53092C198.58878,90.96075 199.10956,91.53298 199.55267,92.23542C200.0396,93.00732 200.20619,93.97544 200.72133,94.53109C201.27,95.12293 201.93544,95.51299 202.8045,95.53092C203.82112,95.5519 204.55754,95.69614 205.4785,95.30943C206.27559,94.97473 206.71727,94.10043 207.60001,93.65225C208.44258,93.22446 209.14395,92.88471 209.784,92.24693C210.41577,91.61736 211.27272,91.50583 211.536,92.17759C211.85512,92.99186 212.1595,93.71942 212.37849,94.73076C212.5448,95.49876 212.5,96.50942 212.5,97.32959C212.5,98.23092 212.44727,99.18127 212.92534,99.92026C213.4156,100.67808 213.5,101.53226 213.5,102.40959C213.5,103.24693 213.5,104.17825 213.5,105.03092C213.5,105.95625 213.49991,106.81492 213.5,107.75242C213.50009,108.63092 213.7206,109.4976 214.07466,110.13092C214.55617,110.99219 214.51067,111.93092 214.784,112.73092L215.33333,113.53092L215.5,114.36426L216,115.03092" id="svg_9" stroke-width="3" stroke="#000" fill="none"/>
  <path t="38466,38617,38649,38665,38681,38699,38706,38722,38730,38745,38762,38788,38797,38838,38846,38857,38873,38881,38921,38929,38929,38937,38971,38979,38985,39005,39013,39032,39057,39113,39146,39164,39193,39214,39218,39241,39249,39258,39264,39273,39306,39322,39330,39355,39390,39401" d="M208.5,83.53092C209.14734,82.53092 210.10515,82.54702 210.4955,83.17825C210.96298,83.93423 211.55267,84.58359 212.14734,85.17825C212.784,85.81492 213.39389,86.5742 214.07466,87.10559C214.72664,87.6145 215.24542,87.94833 215.85266,88.47375C216.5425,89.07065 217.33333,89.36425 217.92534,89.95625C218.55717,90.58808 219.14734,91.17825 219.78534,91.81625C220.5,92.53092 221.13208,93.09996 221.464,93.92026C221.79066,94.72755 222.47409,95.08739 223.07466,95.56693C223.78085,96.13079 224.31998,96.53389 224.5,97.40942C224.66867,98.22977 224.92532,98.95626 225.58533,99.61626C226.14734,100.17826 227.04129,100.78557 227.37849,101.63075C227.69412,102.42183 228.20325,102.97163 228.464,103.93092C228.69914,104.79595 229.16602,105.33476 229.47917,106.03092C229.86337,106.88501 229.784,107.72959 230.41467,108.44559L231,109.03092L231.50133,109.81492L231.85266,110.47375" id="svg_10" stroke-width="3" stroke="#000" fill="none"/>
  <path t="40050,40169,40201,40249,40273,40308,40329,40340,40361,40375,40410,40441,40474,40489,40524,40547,40578,40626,40657,40700,40705,40715,40745,40785,40785,40802,40810,40817,40848,40872,40881,40898,40923,40931,40941,40947,40957,40973,40993,40993,41009,41025,41042,41064,41084,41106,41129,41156,41172,41194,41232,41275,41322,41345,41365,41401,41426,41448,41465,41473,41490,41525,41558,41569,41650,41658,41666,41683,41707,41724,41741,41757,41774,41778,41801,41826,41849,41858,41892,41913,41937,41949,41969,41985,42002,42010,42017,42041,42075,42088,42109,42125,42155,42170,42170,42186,42193,42242,42257,42293,42293,42301,42330,42344,42350,42361,42369,42385,42410,42410,42434,42450,42497" d="M242.5,63.53092C244.14734,63.53092 245.07466,63.52886 245.92534,63.53092C246.85268,63.53317 247.44717,64.06075 247.92534,64.54159C248.44647,65.06562 249.05887,65.62581 249.44284,66.47826C249.80746,67.28777 250.31998,67.53389 250.5,68.40942C250.66867,69.22977 251.31677,69.45671 251.5,70.10559C251.75145,70.9961 251.5,71.88359 251.5,72.81492C251.5,73.69759 252.06914,74.20398 252.464,74.95625C252.89532,75.77797 252.77211,76.61937 253.14734,77.23542C253.64598,78.0541 253.5,79.03092 253.5,79.92026C253.5,80.88359 253.29361,81.89733 253.85266,82.47375C254.36211,82.99902 254.5,83.69759 254.5,84.63075C254.5,85.50559 254.59947,86.32336 255.07466,87.09492C255.5132,87.80696 255.80835,88.58559 256.216,89.24693C256.69058,90.01682 257.0426,90.74202 257.46399,91.50559C257.89026,92.27804 258.45728,92.81184 258.5,93.69759C258.54114,94.55077 259.00797,94.9789 259.49866,95.61626C260.05014,96.33256 259.06223,97.58733 259.58533,98.24693C260.13031,98.93412 260.5,99.36426 260.5,100.17825C260.5,101.10559 260.67468,102.04901 260.5,102.88359C260.35492,103.57668 259.51801,103.96635 259.5,104.82642C259.48062,105.75205 259.16284,106.26115 258.58533,106.81492C258.02307,107.35405 257.40018,107.53092 256.52533,107.53092C255.62151,107.53092 254.784,107.53092 253.92534,107.53092C253,107.53092 252.66547,106.8616 251.97917,106.55176C251.10551,106.15733 250.52403,106.07288 250,105.55176C249.51917,105.07359 248.92538,104.53625 248,104.53092C247.14735,104.52601 246.72479,103.92493 246.07466,103.56693C245.26175,103.11928 244.20157,103.68993 243.33333,103.53092C242.5451,103.38656 242.07523,102.54893 241.216,102.53092C240.27887,102.51128 239.28647,102.79536 238.62134,102.30959C237.92421,101.80043 237.21092,101.71339 236.40016,101.30959C235.69382,100.95778 235.46738,99.9508 234.784,99.53226C234.07809,99.09993 233.34756,98.7464 232.5,98.36426C231.84564,98.06923 231.68312,96.96975 231.216,96.24693C230.73088,95.49625 229.99553,95.03376 229.49867,94.24693C229.0708,93.56934 228.72705,93.09593 228.33333,92.36426C227.96519,91.68015 226.92534,91.49492 226.50133,90.81492L226.5,89.95625" id="svg_11" stroke-width="3" stroke="#000" fill="none"/>
  <path t="42909,43218,43242,43281,43314,43335,43378,43411,43443,43457,43495,43505,43519,43546,43546,43559,43578,43586,43618,43627,43642,43660,43770,43801,43849,43894,43938,44002,44058,44094,44201" d="M250.5,95.53092C250.5,94.65242 250.12822,93.75133 249.27867,93.53092C248.43829,93.3129 247.6804,94.12132 247.5,94.95625C247.30415,95.86267 247.47951,96.81648 247.5,97.72959C247.51801,98.53152 247.94795,99.03889 248.58533,99.52959C249.31009,100.08756 250.3,99.53092 251.21466,99.53092C252.11067,99.53092 252.99417,99.68935 253.936,99.52026C254.73341,99.3771 255.48289,98.6749 256,98.03092C256.58221,97.30588 256.27866,96.53092 255.44284,96.53092C254.536,96.53092 253.66667,96.53092 252.784,96.53092L252.07466,96.10559L251.5,95.44559L251.216,94.61626" id="svg_12" stroke-width="3" stroke="#000" fill="none"/>
  <path t="46325,46515,46530,46554,46572,46618,46650,46658,46682,46722,46747,46794,46818,46839,46842,46890,46959,46998,47082,47082,47106,47106,47123,47130,47147,47182,47227,47306,47387,47410,47425,47438" d="M238.5,81.53092C238.5,79.88359 238.07466,79.10558 237.464,78.49492C236.85268,77.88358 235.97479,77.38396 235.49867,77.81492C234.90456,78.3527 234.5,78.88359 234.5,79.81492C234.5,80.69759 234.10422,81.82397 234.72133,82.40942C235.3414,82.99769 236.17085,83.13041 236.92534,83.53092C237.52087,83.84706 237.87242,84.78384 238.66667,84.36426C239.35359,84.00137 239.70677,82.9156 239.44284,82.23625C239.09624,81.34411 238.9758,80.66283 238.44284,79.88809C237.9586,79.18416 237.40656,78.10352 236.62151,78.53092C235.98367,78.87818 236.536,80.10559 237.216,80.61492L237.5,81.47375" id="svg_13" stroke-width="3" stroke="#000" fill="none"/>
  <path t="48006,48227,48240,48243,48266,48291,48332,48366,48403,48424,48434,48459,48482,48490,48506,48539,48587,48619,48658,48729,48735,48779,48791,48807,48815,48822,48822,48826,48842,48842,48851,48859,48867,48875,48890,48938,48983,49035,49107" d="M228.5,58.53092C226.66667,58.36425 226.47865,57.56613 225.69867,57.53092C224.7991,57.49032 224.13451,56.79232 223.27867,56.53092C222.45236,56.27854 221.48933,56.53092 220.584,56.53092C219.784,56.53092 218.96358,56.43763 218.464,55.95626C217.88693,55.40022 216.92534,55.53092 216,55.53092C215.07466,55.53092 214.11455,55.66008 213.536,55.10559C213.03331,54.62381 212.30133,54.53092 211.33333,54.53092C210.47467,54.53092 209.5609,54.74615 209.5,55.63092C209.4382,56.5288 209.5,57.33092 209.5,58.24559C209.5,59.10025 209.5,59.88276 209.5,60.89492C209.5,61.83092 209.5,62.72959 209.5,63.58359C209.5,64.49492 209.5,65.36426 209.5,66.24693L209.464,67.10559L208.784,67.52959" id="svg_14" stroke-width="3" stroke="#000" fill="none"/>
  <path t="51597,51723,51736,51742,51748,51759,51759,51763,51763,51780,51811,51811,51835,51859,51892,51903,51909,51927,51942,51979,52002,52036,52069,52083,52083,52155,52163,52195,52219,52243,52254,52286,52294,52335,52343,52363,52371,52389,52395,52410,52419,52428,52436,52452,52461,52477,52493,52514,52528,52539,52555,52581,52589,52612,52621,52635,52645,52652,52691,52700,52731,52744,52744,52756,52771,52787" d="M245.5,105.53092C246.5,105.55176 246.62666,106.30836 247.07466,107.13092C247.50481,107.9207 247.42165,108.85919 247.536,109.70559C247.64644,110.52309 248.1987,111.20792 248.48933,112.09492C248.77229,112.95852 249.28212,113.60951 249.5,114.58809C249.70038,115.48805 249.96214,115.90366 250.48933,116.56693C250.96559,117.16611 250.5,118.36426 250.5,119.17825C250.5,120.10559 250.69078,120.97609 250.5,121.88359C250.35422,122.57709 249.3748,122.72231 248.78534,123.24693C248.02962,123.91951 247.30469,124.49029 246.464,124.53092C245.55821,124.57471 245.11784,124.08583 244.51067,123.49492C243.88441,122.88546 243.83173,122.3752 243.47917,121.53092C243.17163,120.79445 242.55083,120.13021 242,119.55176C241.53236,119.06067 240.82932,118.61839 240.48933,118.09492C239.98547,117.31915 239.52533,116.55625 238.92534,115.95625C238.27867,115.30959 237.46327,114.97395 236.85266,114.47375C236.19316,113.93351 235.97517,113.38564 235.44284,112.88359C234.82262,112.29866 234.10078,111.83824 233.27867,111.53092C232.54616,111.2571 232.0871,110.76469 231.55716,110.17825C231.06577,109.63448 230.60696,109.00362 229.92534,108.54159C229.21458,108.05981 228.52057,107.55202 227.97917,107.01009C227.30101,106.33125 226.78534,105.73092 226.50133,104.81625L225.85266,104.47375L225.5,103.69759" id="svg_15" stroke-width="3" stroke="#000" fill="none"/>
  <path t="53429,53572,53588,53597,53612,53631,53631,53639,53645,53654,53662,53671,53678,53687,53703,53715,53731,53739,53762,53779,53796,53804,53821,53828,53856,53871,53879,53899,53915,53924,53932,53971,53995,54012,54029" d="M228.5,107.53092C228.5,108.33225 228.28453,109.25587 228.5,110.17375C228.68344,110.95518 229.51981,111.68609 229.88933,112.34559C230.35893,113.18374 230.35072,114.2031 231.11067,114.52026C231.9127,114.85497 232.44392,115.18911 232.92534,115.92026C233.42065,116.67254 234.04909,117.11713 234.5,117.75226C234.98239,118.43172 235.17085,119.13041 235.92534,119.53092C236.52087,119.84706 236.88794,120.39918 237.464,120.95625C237.96539,121.44112 238.317,122.25608 238.936,122.53092C239.72156,122.87971 240.26111,123.21174 240.92534,123.53092C241.69928,123.90283 242.31102,124.21214 243.07466,124.52026C243.8636,124.83859 244.85266,124.53092 245.72133,124.53092L246.66667,124.53092" id="svg_16" stroke-width="3" stroke="#000" fill="none"/>
  <path t="55301,55356,55364,55364" d="M248.5,81.53092" id="svg_17" stroke-width="3" stroke="#000" fill="none"/>
  <path t="55797,55996,56016,56019,56032,56039,56048,56057,56068,56164,56196,56220,56235,56291,56299,56317,56326,56332,56348,56380,56403,56422,56460,56564,56676,56724" d="M253.5,78.53092C253.5,80.17825 253.5,81.05176 253.5,81.93092C253.5,82.83092 253.5,83.73092 253.5,84.63075C253.5,85.55625 253.41881,86.52611 254,87.03092C254.70148,87.64022 255.49364,87.12237 256,86.53092C256.50891,85.93649 256.50226,85.03092 256.5,84.13092C256.49774,83.23541 255.92892,82.62046 255.5,82.10559C255.06598,81.5846 254.65146,80.48547 253.92534,80.57759C253.09094,80.68346 252.55716,81.53542 252.5,82.40959L252.5,83.24693" id="svg_18" stroke-width="3" stroke="#000" fill="none"/>
  <path t="62269,62348,62357,62365,62373,62373,62381,62389,62397,62397,62405,62413,62413,62422,62422,62430,62439,62456,62456,62479,62489,62489,62516,62534,62549,62549,62564,62573,62580,62604,62613,62622,62638,62647,62648,62655,62673,62679,62689,62689,62697,62705,62722,62729,62729,62734,62747,62757,62765,62773,62782,62788,62805,62814,62822,62838,62855,62864,62880,62885,62900,62916,62928,62934,62941,62950,62957,62957,62965,62965,62972,62972,62981,62981,62989,62989,62998,63005,63005,63014,63014,63022,63022,63031,63031,63039,63047,63056,63064,63072,63072,63088,63097,63101,63101,63117,63117,63126,63134,63141,63149,63165,63173,63182,63182,63188,63197,63214,63222,63223,63231,63231,63239,63239,63248,63256,63256,63264,63273,63273,63281,63285,63285,63298,63305,63305,63305,63310,63317,63318,63325,63334,63349,63357,63375,63383,63398" d="M240.5,193.53091C240.5,194.40959 240.50073,195.23543 240.5,196.16692C240.49933,197.0136 240.42419,197.80814 239.92534,198.54559C239.42844,199.28015 239.11845,200.17204 238.85266,200.87825C238.52049,201.76082 238.57489,202.746 238.41467,203.41626C238.18228,204.38847 237.6649,205.02206 237.52083,206.01009C237.38947,206.91096 237.5,207.86426 237.5,208.68025C237.5,209.69759 237.26245,210.48357 236.85266,211.17375C236.40727,211.92392 235.99951,212.74973 235.66667,213.53091C235.34647,214.28246 235.4438,215.23146 235,216.03091C234.55811,216.82695 234.50575,217.6976 234.5,218.63075C234.49466,219.49496 233.62854,219.69086 233.5,220.53091C233.37831,221.3262 232.71997,222.01537 232.5,222.88809C232.29401,223.70537 232.17387,224.56758 231.784,225.33092C231.39946,226.0838 231.62355,227.06494 231.216,227.81625C230.78621,228.60858 230.70149,229.3669 230.44284,230.23093C230.18582,231.08949 229.51707,231.75259 229.5,232.63075C229.48199,233.55678 228.89276,234.12715 228.52083,235.01009C228.18623,235.80437 227.61333,236.522 227.5,237.36426C227.39119,238.17297 226.58374,238.68521 226.5,239.53091C226.41342,240.40532 226.5,241.24692 226.5,242.17825C226.5,243.05176 226.5,243.93092 226.5,244.83092C226.5,245.73093 226.27022,246.75388 226.83333,247.53091C227.22092,248.06577 228.22328,248.67697 228.43866,249.35626C228.75101,250.3414 229.06445,251.00183 229.59984,251.85225C230.01405,252.51021 230.22789,253.39819 230.55267,254.22643C230.84549,254.9731 231.72789,255.54356 232.14284,256.28809C232.60538,257.11801 232.46811,257.95911 232.78534,258.9296C233.04372,259.72003 233.66124,260.46732 234.064,261.12027C234.5842,261.96365 235.22203,262.39276 235.88933,262.96692C236.51457,263.50488 236.73578,264.48462 237.14734,265.17377C237.58969,265.91446 238.12416,266.44409 238.69867,267.09891C239.26036,267.73911 239.77942,268.61536 240.216,269.33224C240.68744,270.10635 241.3405,270.41037 241.97917,271.05176C242.6162,271.6915 242.94539,272.32712 243.44733,272.88809C244.05284,273.56482 244.39063,274.25433 244.97917,275.03091C245.53532,275.76474 245.31529,276.75714 245.66667,277.53091C246.03166,278.33469 246.84267,278.80127 247.3,279.41626C247.96545,280.31113 248.24916,281.08469 248.8,281.77374C249.44388,282.57919 250.04001,283 250.47467,283.93091C250.83777,284.70853 251.30099,285.33127 252,286.03091C252.59973,286.6312 253.23087,287.20178 253.8,287.83542C254.5421,288.66165 254.87491,289.3714 255.3,290.04694C255.76849,290.79144 256.41544,291.62558 256.49866,292.33093C256.60434,293.22662 257.24005,293.90393 257.5,294.81625C257.75064,295.69592 257.5,296.63092 257.5,297.53091L257.5,298.36426" id="svg_19" stroke-width="3" stroke="#000" fill="none"/>
  <path t="64134,64221,64229,64230,64241,64241,64241,64245,64245,64245,64260,64260,64266,64266,64266,64273,64273,64273,64276,64276,64276,64285,64293,64301,64309,64325,64333,64349,64365,64382,64405,64423,64449,64452,64469,64490,64493,64509,64518,64533,64541,64550,64583,64590,64609,64633,64640,64658,64666,64694,64702,64709,64725,64757,64781,64804,64829,64841,64865,64870,64885,64901,64909,64918,64926,64926,64942,64942,64950,64950,64950,64957,64957,64966,64974,64983,64991,65021,65045,65085,65149,65165" d="M275.5,227.53091C275.5,229.35626 275.4324,230.36998 275.53601,231.19226C275.64862,232.08614 275.9537,232.7959 276.14734,233.63992C276.41855,234.8221 276.4621,235.42107 276.48932,236.25893C276.52597,237.38771 276.5,238.18159 276.5,239.07393C276.5,239.80292 276.5,240.63992 276.5,241.83075C276.5,242.72026 276.5,243.29492 276.5,244.36426C276.5,245.28426 276.5,246.04425 276.5,247.12025C276.5,248.03091 276.49994,248.93092 276.5,249.82642C276.50009,250.75226 277.12198,251.18839 277.5,251.81493C277.95599,252.57068 277.5498,253.5683 277.5,254.47375C277.45728,255.25044 276.61578,255.61371 275.92532,256.10559C275.20319,256.62006 274.63174,256.91885 274.07468,257.49493C273.58981,257.99631 272.82632,258.27301 272.5,258.88809C272.06024,259.71698 271.99225,260.31564 271.27866,260.75226C270.48581,261.23737 270.17517,261.82925 269.62149,262.5311C269.17883,263.09222 269.53275,264.16873 269.07468,264.92026C268.57153,265.7457 267.95169,266.20032 267.55716,266.88809C267.08942,267.70352 267.5,268.75226 267.5,269.58807C267.5,270.50558 267.48746,271.35504 267,272.03091C266.4866,272.7428 266.5,273.61493 266.5,274.53091C266.5,275.40958 266.5,276.23541 266.5,277.16693C266.5,278.01492 266.5,278.87827 266.5,279.78726C266.5,280.5856 266.5,281.58292 266.5,282.20691C266.5,283.17291 266.49069,284.26648 266.5,285.09891C266.51044,286.0311 267.0415,286.73483 267.37851,287.63077C267.68948,288.45743 267.50015,289.40942 268.216,289.61624L268.5,290.47824L268.41467,291.24692L267.69867,291.35892" id="svg_20" stroke-width="3" stroke="#000" fill="none"/>
  <path t="65862,65973,65981,65997,65997,66009,66009,66017,66021,66033,66041,66045,66058,66061,66069,66086,66093,66093,66103,66109,66125,66157,66181,66230,66230,66301,66335,66341,66360,66385,66392,66401,66409,66425" d="M275.5,229.53091C276.5,229.55176 277.0488,230.13249 277.78665,230.81625C278.3671,231.35416 279.12888,231.87878 279.84732,232.17375C280.83667,232.57993 281.58206,232.98987 282.33334,233.36426C283.04486,233.71884 284,233.53091 284.89999,233.53091C285.79999,233.53091 286.69867,233.53091 287.66666,233.53091C288.5,233.53091 289.29999,233.53091 290.20001,233.53091C291.14282,233.53091 292.07468,233.53091 292.92532,233.53091C293.85266,233.53091 294.55466,233.22258 295.216,232.81493C295.9859,232.34035 296.75464,233.07222 297.59982,233.40942C298.3909,233.72505 299.33334,233.53091 299.58533,234.24692L300.30133,234.52959L301.21466,234.53091L301.92532,234.95625" id="svg_21" stroke-width="3" stroke="#000" fill="none"/>
  <path t="66737,66845,66854,66861,66869,66877,66885,66893,66893,66902,66910,66918,66918,66926,66935,66942,66952,66982,66982,66983,66983,66993,67008,67013,67022,67037,67045,67053,67086,67093,67118,67126,67152,67160,67169,67185,67185,67193,67193,67202,67202,67209,67213,67226,67226,67242,67246,67261,67270,67286,67293,67310,67319,67341,67366,67379,67398,67409,67413,67431,67438,67445,67460,67470,67478,67487,67493,67502,67510,67519,67527,67536,67544,67552,67560,67569,67586,67602,67610,67613,67622,67637,67646,67654,67676,67733" d="M294.5,219.53091C294.51068,220.5416 294.9693,221.20546 295.47467,221.92026C295.97943,222.6342 296.41953,223.20639 296.936,223.93092C297.49597,224.71646 298.14096,225.23177 298.5,226.03091C298.8598,226.83176 299.65515,227.55074 300.31467,227.92026C301.1528,228.38988 301.80801,228.961 302.59982,229.40959C303.34021,229.82906 303.52774,230.69559 304.26166,231.17375C305.04703,231.68544 305.98877,231.56729 306.49734,232.24692C306.99701,232.91467 307.78732,233.19408 308.58401,233.61626C309.2413,233.96455 309.63101,235.04593 310.47916,235.51009C311.24631,235.92993 311.68564,236.2197 312.37866,236.75226C313.01547,237.24162 313.34543,237.85051 313.85266,238.47826C314.34036,239.08186 314.82642,239.78458 315.30133,240.41759C315.84985,241.14871 316.12354,241.93404 316.70001,242.64426C317.23477,243.30305 318.26132,243.49184 319,244.05176C319.66437,244.55536 320.20123,245.25931 320.85266,245.88359C321.53885,246.54117 322.46109,246.52061 323.07468,247.10559C323.73657,247.73665 324.49899,248.13792 325.14734,248.58809C325.7966,249.03888 326.08206,249.94136 326.66666,250.53091C327.23004,251.09906 327.99527,251.21899 328.44284,251.88809C328.91177,252.58914 328.70453,253.52493 329.14734,254.23543C329.6366,255.02048 330.07584,255.72459 330.46399,256.50558C330.83585,257.25378 331.05289,258.00494 331.47467,258.93091C331.82971,259.71033 332.28979,260.43448 332.53601,261.1416C332.82541,261.97275 333.28625,262.82224 333.85266,263.47824C334.36414,264.07062 334.36154,264.99875 334.784,265.72958C335.23608,266.51166 336.04166,266.99667 336.7955,267.47824C337.49539,267.92535 338.07953,268.35526 338.784,268.81491C339.56964,269.32751 340.07468,270.10559 340.784,270.53091L341.72134,270.53091" id="svg_22" stroke-width="3" stroke="#000" fill="none"/>
  <path t="68654,68783,68783,68796,68796,68957,68957,68957,68957,68957,68965,68965,68965,68965,68965,68965,68965,68965,68965,68984,68984,68985,68985,68985,68985,68985,68985,68985,68989,68989,68989,68997,69006,69014,69030,69038,69045,69071,69079,69087,69104,69112,69121,69129,69137,69145,69145,69165,69165,69178,69190,69198,69213,69222,69222,69229,69239,69254,69262,69262,69271,69278,69288,69295,69311,69321,69329,69337,69337,69354,69362,69371,69375,69390,69398,69413,69422,69430,69439,69445,69454,69454,69463,69472,69478,69495,69504,69538,69549,69582,69629,69710,69734,69784,69843,69870,69894,69913,69958,69965,69990,69998,70006,70013,70022,70046,70077,70097,70125,70158" d="M316.5,201.53091C316.5,202.53091 316.5,203.28809 316.5,204.19258C316.5,204.99258 316.48825,205.95526 316.52133,206.92693C316.53622,207.36447 316.61035,208.49324 316.67065,209.21225C316.82327,211.03178 316.94113,212.15074 317.06799,213.38826C317.2037,214.7121 317.35016,216.08965 317.5,217.48926C317.6488,218.87898 317.79532,220.22652 317.93201,221.50026C318.16779,223.69746 318.25717,224.56541 318.33066,225.28026C318.39017,225.85909 318.43567,226.31927 318.47916,226.67676C318.51239,226.94987 318.53748,227.15721 318.58267,227.30826C318.65088,227.53624 318.74228,227.61711 319,228.03091C319.4834,228.80708 319.5,229.72958 319.5,230.61493C319.5,231.53091 319.59924,232.3235 320.07468,233.09492C320.51437,233.80838 320.76428,234.74721 321.33334,235.36426C321.90604,235.98526 322.28348,236.82463 322.85266,237.47826C323.37213,238.07478 323.84244,238.84474 324.5,239.53091C325.05188,240.1068 325.64896,240.85281 326.30133,241.24692C327.07709,241.71558 327.41638,242.4875 328,243.03091C328.64252,243.62917 329.73865,243.63396 330.21466,244.33226C330.72543,245.08157 330.98874,245.81792 331.7215,246.40959C332.36731,246.93108 333.31775,246.97964 334.064,247.55626C334.65372,248.01195 334.86636,249.03951 335.69867,249.44559C336.45361,249.81393 336.79404,250.37941 337.70001,250.53226C338.61343,250.68636 339.1962,251.25418 339.52084,252.05176C339.83923,252.83395 340.8187,252.9518 341.46399,253.5416C342.08939,254.1132 342.1022,254.82439 342.72134,255.40942C343.33939,255.99342 344.2952,256.18884 344.47916,257.03091C344.67136,257.91071 344.76785,258.74643 345.30133,259.33093C345.95819,260.05063 346.27277,260.99536 346.92532,261.49493C347.65292,262.05197 348.46942,262.39554 349,263.03091C349.56256,263.70459 349.18771,264.80298 349.784,265.44559C350.31381,266.01657 350.85211,266.78113 350.27866,267.40942C349.71893,268.02267 349.67203,268.60645 349.41467,269.33224C349.11185,270.18631 348.71472,271.15335 348,271.5101C347.23282,271.89304 346.13522,271.69229 345.40018,271.3096C344.55286,270.86844 343.92529,270.53622 343,270.53091C342.07462,270.52557 341.52084,270.03091 341.07468,269.52026L340.51068,268.95627" id="svg_23" stroke-width="3" stroke="#000" fill="none"/>
  <path t="72079,72175,72183,72191,72207,72207,72215,72224,72224,72224,72224,72232,72232,72232,72241,72241,72249,72249,72258,72258,72258,72265,72265,72265,72274,72274,72274,72274,72282,72282,72282,72290,72290,72298,72302,72303,72314,72315,72318,72326,72334,72343,72343,72351,72359,72366,72367,72375,72382,72382,72391,72408,72415,72415,72424,72424,72432,72441,72441,72449,72465,72474,72482,72482,72490,72499,72502,72510,72511,72526,72533,72534,72543,72550,72550,72559,72559,72566,72566,72582,72609,72609,72624,72625,72625,72633,72633,72641,72641,72641,72650,72657,72657,72668,72672,72672,72683,72683,72687,72699,72702,72702,72710,72711,72719,72727,72728,72742,72742,72750,72750,72750,72750,72759,72766,72766,72776,72776,72783,72783,72791,72791,72799,72800,72808,72808,72816,72833,72842,72850,72858,72874,72894,72894,72902,72927,72960,72991,73015,73046,73094,73126,73160,73206,73232,73269,73287,73302,73414,73422,73471,73487,73502,73527,73534,73543,73559,73567,73593,73609,73618,73626,73634,73634,73642,73651,73651,73658,73667,73670,73684,73688,73697,73697,73717,73727,73742,73751,73768,73776,73810,73830,73847,73859,73867,73870,73878,73879,73888,73895,73911,73919,73949,73959,73975,73985,73992,74009,74018,74026,74034,74043,74050,74051,74051,74059,74059,74067,74075,74084,74084,74151,74169,74186,74193,74201,74217,74226,74247,74259,74259,74267,74270,74287,74312,74320,74327,74345,74364,74382,74401,74427,74487,74494,74513,74513,74531,74531,74548,74549,74551,74578,74596,74630,74639,74664,74686,74710,74712,74741,74743,74763,74783,74830,74830,74838,74838,74838,74838,74838,74839,74839,74846,74846,74846,74879,74888,74896,74904,74911,74935,74953,74983,74994,75016,75119,75150,75170,75175,75186,75194,75202,75202,75210,75219,75236,75236,75239,75343,75391,75405,75407,75421,75423,75430,75430,75438,75447,75456,75464,75472,75495,75512,75528,75545,75545,75553,75561,75569,75578,75587,75594,75603,75611,75620,75628,75632,75646,75662,75671,75680,75688,75697,75704,75712,75728,75787,75814,75840,75856,75897,75911,75927,75928,75937,75963,75972,75998,76007,76024,76047,76080" d="M291.5,162.53091C291.66666,164.36426 292.48346,164.53238 293.07468,165.10559C293.73141,165.74234 294.24841,166.39243 294.92133,166.93092C295.77368,167.61302 296.50574,167.85385 297.32132,168.09492C297.89725,168.26515 299.09732,168.46753 299.97916,168.51009C300.81393,168.55038 301.81332,168.53091 302.65332,168.53091C303.61734,168.53091 304.30984,168.53091 305.27066,168.53091C306.04166,168.53091 306.90268,168.53091 308.10132,168.53091C308.71066,168.53091 309.65717,168.53279 310.66666,168.53091C311.38266,168.52959 312.48471,168.53133 313.19016,168.4166C314.17795,168.25594 314.98965,167.83797 315.64267,167.38159C316.48978,166.7896 317.18253,166.45821 318.02084,166.03091C318.80978,165.6288 319.72284,165.64082 320.61465,165.24692C321.35471,164.92006 322.11804,164.53979 322.89999,164.10559C323.72049,163.64998 324.71835,163.41631 325.14282,162.82642C325.71158,162.03601 325.92682,161.1221 326.60001,160.43092C327.09335,159.92438 327.71674,159.10475 328.5,158.69759C329.24384,158.31091 330.14993,157.95883 330.47467,157.12025C330.8154,156.2404 330.95859,155.49188 331.5,154.69759C331.95081,154.03622 332.89166,153.76579 333.69867,153.24559C334.31201,152.85022 334.35165,151.70128 334.936,151.10559C335.57187,150.4574 336.55692,150.24123 337.20001,149.88359C338.05313,149.40918 339.00336,149.16542 339.37866,148.43092C339.80862,147.58945 340.14621,146.88698 340.78534,146.24559C341.49875,145.52966 342.09509,145.08801 342.44733,144.22643C342.78397,143.40295 342.96494,142.49617 343.5,141.69759C343.95462,141.01906 344.59982,140.43109 345.21466,139.81625C345.85718,139.17375 346.5,138.53091 347.13599,137.89493C347.82132,137.20959 348.32535,136.70558 348.84732,136.18359C349.616,135.41492 350.25266,134.77827 350.98401,134.04692C351.5,133.53091 352.01599,133.01492 352.74283,132.28809C353.5,131.53091 354.064,130.96692 354.66934,130.36159C355.20984,129.82109 355.83319,129.15994 356.61465,128.41759C357.18231,127.87835 358.03204,127.59615 358.79999,127.17825C359.64108,126.72054 360.40982,126.50644 361.32535,126.09492C362.03799,125.7746 362.67084,125.07536 363.66666,124.69759C364.29453,124.4594 365.33704,124.58254 366.19733,124.49492C367.00638,124.41251 367.85788,124.17776 368.5,124.03092C369.44781,123.81418 370.50107,123.78864 371.5,123.36426C372.19547,123.06881 372.98804,122.63164 373.71066,122.50559C374.7041,122.33231 375.50732,122.05714 376.33334,121.53092C377.02576,121.08982 377.82956,120.69401 378.67465,120.50559C379.62622,120.29343 380.26709,119.68962 381.14282,119.53542C382.0079,119.3831 382.89813,119.11478 383.52533,118.50559C384.08261,117.9643 384.99188,117.69756 385.7215,117.30959C386.39444,116.95174 387.24121,116.57367 387.92532,116.10559C388.69943,115.57592 389.52084,115.53092 390.41599,115.53092C391.33334,115.53092 392.06534,115.63084 392.5,116.36426C392.92487,117.08115 393.29333,117.89758 393.85266,118.47375C394.36316,118.99965 394.93546,119.51284 395.7955,119.53092C396.72113,119.55038 397.47141,119.88218 397.5,120.75226C397.53104,121.69707 398.07117,122.1021 398.5,122.75242C398.98352,123.48568 398.5,124.52026 398.5,125.33225C398.5,126.24559 398.33688,127.16057 398.52084,128.03091C398.69995,128.87828 399.40225,129.62804 399.5,130.53091C399.57559,131.22917 400.12921,132.00259 400.37851,132.85225C400.62079,133.67793 400.5,134.64558 400.5,135.63092C400.5,136.53091 400.84283,137.14374 401.37866,137.75243C402.00162,138.4601 402.03888,139.34 402.52084,140.03091C402.99881,140.71611 403.29849,141.38959 403.5,142.17825C403.71948,143.03732 404.49933,143.61493 404.5,144.53226C404.50064,145.40942 403.76733,145.34119 402.89999,145.56693C402.04361,145.78981 401.70001,146.77702 401.33334,147.53091C400.96194,148.29454 400.3895,149.00264 399.85266,149.58359C399.21634,150.27222 398.73151,150.77303 398.5,151.69759C398.30566,152.47372 397.5,152.75243 397.5,153.63075C397.5,154.50558 397.5,155.40959 397.5,156.23543C397.5,157.13092 397.42743,158.03462 397.51068,158.95226C397.5943,159.87372 397.8609,160.53384 398.07468,161.28026C398.3909,162.38449 398.52939,163.23465 398.92532,163.93092C399.38922,164.74673 399.8389,165.5524 400.216,166.24559C400.6488,167.04117 399.97314,167.50061 399.48932,167.95625C398.88983,168.5208 398.41019,169.06552 397.92532,169.56693C397.36826,170.14297 397.0473,170.95064 396.40018,171.63092C395.84244,172.21725 395.58371,173.19643 395.07468,173.92026C394.56302,174.64781 393.84421,175.09952 393.2045,175.83092C392.62332,176.49538 392.33524,177.1149 391.784,177.61626C391.21454,178.13419 391.70566,179.39066 391.5,180.17825C391.27469,181.04117 390.30042,181.44965 389.5,181.53091C388.61511,181.62076 387.82462,181.84599 387.15268,182.23543C386.22223,182.77467 385.76843,183.40556 385.02084,184.01009C384.27484,184.61333 383.63962,185.04129 383.14734,185.53542C382.61731,186.06746 381.84277,186.46069 381.47916,187.05176C381.0376,187.76955 380.35919,188.19759 379.66666,188.69759C378.9577,189.20943 378.69086,190.18542 378,190.51009C377.22958,190.87213 376.64801,190.6163 375.2865,190.75226C374.65866,190.81496 373.96887,190.88377 373.23599,190.95625C372.47919,191.0311 371.71744,191.1066 370.96951,191.17825C369.00024,191.36691 368.49515,191.4333 367.42401,191.49492C366.40106,191.55376 365.45459,191.25961 364.66666,191.53091C363.86676,191.80634 363.79312,192.97479 363.27866,193.53108C362.73343,194.12062 362.5,194.75243 362.5,195.63075C362.5,196.55176 362.91898,197.61836 362.41467,198.24692C361.84848,198.95259 361.58334,199.48174 360.88934,200.09492C360.22256,200.68408 359.28046,200.79439 358.70001,201.33226C357.99619,201.98447 357.32391,202.60199 356.63867,202.96692C355.97592,203.31987 355.16873,204.25684 354.33334,204.53091C353.52173,204.7972 352.64386,204.54115 351.89999,205.14159C351.24704,205.66864 350.62317,206.41301 349.93201,206.81625C349.2074,207.23901 348.73666,208.1739 347.97916,208.51009C347.10242,208.89919 346.56375,209.30869 345.784,209.52959C344.95782,209.76363 343.99152,209.65598 343.07468,209.53091C342.25589,209.41922 341.7301,208.67911 340.79999,208.53542C339.91052,208.39801 339,208.53091 338.10001,208.53091C337.20001,208.53091 336.29999,208.53091 335.40018,208.53091C334.5,208.53091 333.69867,208.53091 332.79999,208.53091C331.85718,208.53091 330.98532,208.68578 330.064,208.52025C329.2666,208.37698 328.58746,207.57365 327.7955,207.53091C326.90131,207.48267 326.11792,207.41539 325.50449,206.88359C324.99213,206.43942 323.97391,206.32164 323.14734,206.53091C322.42889,206.71281 322.0752,207.51218 321.14282,207.53091C320.30017,207.54785 319.45078,207.83482 318.79999,208.17825C317.91113,208.64732 316.97183,208.41832 316.11066,208.53091C315.25699,208.64253 314.62149,209.40942 313.85266,209.53091L312.92532,209.53091L312.07468,209.53091" id="svg_24" stroke-width="3" stroke="#000" fill="none"/>
  <path t="77736,77808,77808,77816,77816,77816,77823,77823,77831,77831,77839,77839,77839,77848,77848,77848,77848,77855,77855,77855,77864,77864,77864,77871,77881,77881,77887,77888,77888,77897,77904,77914,77921,77931,77938,77954,77954,77964,77972,77976,77988,77988,77991,77999,77999,78007,78016,78023,78023,78032,78032,78039,78048,78048,78055,78064,78064,78071,78081,78081,78089,78097,78098,78105,78105,78114,78121,78122,78122,78131,78131,78138,78147,78148,78156,78156,78156,78163,78172,78176,78176,78183,78184,78191,78191,78200,78207,78207,78216,78222,78223,78232,78232,78239,78248,78248,78248,78255,78265,78273,78273,78281,78297,78314,78323,78323,78339,78347,78355,78372,78384,78399,78399,78415,78423,78503" d="M268.5,137.53091C268.5,138.53091 268.5,139.34526 268.5,140.30026C268.5,141.05176 268.5,141.84825 268.5,142.84558C268.5,143.72026 268.5,144.73093 268.5,145.53091C268.5,146.53091 268.5,147.35225 268.5,148.04526C268.5,149.17375 268.5,149.84076 268.5,150.91626C268.5,151.64825 268.48486,152.70955 268.51068,153.68425C268.52658,154.28458 268.62497,155.37701 268.92532,156.28426C269.18106,157.05672 269.46805,157.90544 269.50015,158.85242C269.52386,159.55167 269.64136,160.53966 269.92532,161.32025C270.19247,162.05458 270.47894,163.14485 270.92532,163.93092C271.3371,164.65605 271.17712,165.6851 271.72134,166.40959C272.2037,167.05171 272.76151,167.62595 273.14734,168.23543C273.66724,169.05669 273.90448,169.96909 274.70001,170.44826C275.47241,170.91348 275.98691,171.52687 276.37866,172.28825C276.79361,173.09473 277.18573,173.84616 277.88934,174.46959C278.47034,174.98436 279.05542,175.75688 279.72134,176.13092C280.6792,176.66893 281.27863,176.9203 282.16666,177.36426C282.94281,177.75229 283.67303,178.14117 284.61465,178.44691C285.48984,178.73108 286.10266,179.13892 286.79999,179.83092C287.50269,180.52823 287.96896,181.07118 288.89999,181.50558C289.67883,181.86897 290.24777,182.24974 291.14816,182.83092C291.78369,183.24113 292.3674,183.98914 292.83334,184.69759C293.29636,185.40163 293.8472,185.95395 294.89734,186.36159C295.74994,186.69255 296.39886,187.15161 297.07068,187.73093C297.64911,188.22971 298.69489,188.64108 299.28934,188.92026C300.00891,189.25819 301.11395,189.50978 301.89999,189.95625C302.62537,190.36827 303.42065,190.65332 304.15268,191.24075C304.70337,191.68268 305.40521,192.59871 306.08932,193.08426C306.83435,193.61305 307.71954,193.79437 308.29999,194.33226C309.02542,195.0045 309.51297,195.75822 310.25717,196.17375C311.08304,196.63486 311.90613,196.45282 312.87466,196.96692C313.73346,197.42276 314.30261,197.97371 315.01599,198.24559C315.95468,198.60333 316.73111,199.00743 317.60001,199.40959C318.26202,199.716 318.98404,200.31096 319.85266,200.53091C320.75681,200.75987 321.62912,200.71791 322.21466,201.24692C322.96533,201.92511 323.11658,202.99542 323.784,203.44559C324.56445,203.97198 325.65347,203.34956 326.5,203.69759C327.17108,203.97348 328,204.51009 328.88934,204.53091L329.784,204.53091" id="svg_25" stroke-width="3" stroke="#000" fill="none"/>
  <path t="81181,81443,81460,81484,81508,81528,81551,81585,81597,81624,81636,81636,81642,81669,81676,81700,81708,81736,81744,81753,81769,81776,81785,81792,81801,81823,81834,81842,81855,81867,81884,81892,81911,81928,81937,81953,81959,81968,81976,81993,82001,82018,82040,82051,82071,82087,82096,82112,82144,82163,82185,82195,82224,82243,82269,82295,82311,82328,82336,82353,82386,82394,82400,82418,82453,82479,82487,82496,82513,82521,82536,82553,82569,82577,82608,82619,82639,82672,82680,82695,82728,82753,82780,82803,82837,82845,82871,83000,83064,83089,83128,83152,83208,83215,83253,83266,83304,83337,83360,83370,83370,83391,83417,83431,83447,83480,83489,83503,83528,83544,83552,83576,83595,83619,83636,83644,83672,83680,83698,83721,83736,83753,83770,83791,83804,83837,83848,83864,83896,83904,83944,83964,83982,84004,84020,84036,84056,84072,84079,84105,84121,84137,84171,84208,84208,84230,84247,84279,84288,84304,84321,84343,84368,84392,84404,84423,84432,84448,84472,84488,84504,84527,84552,84593,84616,84656,84704,84728,84771,84779,84805,84820,84840,84856,84888,84897,84921,84960,84984" d="M265.5,105.53092C264.58533,105.81492 264.29053,106.52187 263.85266,107.23542C263.35132,108.05244 263.5,109.01009 263.5,109.88359C263.5,110.81625 263.31912,111.75381 263.52084,112.57259C263.7395,113.46008 264.3306,114.02351 264.47916,114.98926C264.62625,115.94552 265.22678,116.34721 265.5,116.96692C265.88458,117.83924 265.88272,118.53609 266.33334,119.36426C266.71329,120.06258 266.38873,121.09999 266.85266,121.82642C267.34836,122.60261 268.13962,123.11237 268.46399,123.92026C268.78848,124.72844 269.5051,125.04015 270.14734,125.58809C270.7959,126.14143 270.82578,126.82851 271.37851,127.53109C271.82745,128.10173 271.78577,129.20869 272.66666,129.53091C273.47379,129.82614 274.08752,130.13554 274.5,131.03091C274.86407,131.82126 275.71442,132.06885 276.33334,132.69759C276.91367,133.28711 277.07468,134.10561 277.784,134.81493C278.37851,135.40942 279.04346,135.99387 279.7955,136.47826C280.48639,136.92326 280.9657,137.35175 281.50134,137.81493C282.10748,138.33908 282.27606,139.13535 282.92532,139.49492C283.73734,139.94463 284.41046,140.10199 284.92532,140.53091C285.44632,140.96495 286.05118,141.24336 286.85266,141.53542C287.60315,141.80888 288.01413,142.34029 288.784,142.81493C289.49979,143.25621 289.65323,144.09653 290.41467,144.53091C291.08334,144.91237 291.79672,145.39534 292.59982,145.53108C293.45184,145.67511 293.94812,146.38274 294.7955,146.53091C295.52307,146.65813 295.9426,147.27713 296.72134,147.75226C297.46017,148.20303 298.11066,148.53091 298.97916,148.53091C299.92532,148.53091 300.85132,148.36299 301.59982,148.75226C302.44736,149.19304 303.11066,149.53091 304,149.53091C304.89999,149.53091 305.79999,149.53091 306.70001,149.53091C307.59982,149.53091 308.07571,149.26675 308.72134,148.65242C309.30011,148.10172 309.5,147.58809 309.5,146.69759C309.5,145.88359 309.81726,144.95604 309.5,144.05176C309.27463,143.40941 308.51044,143.0311 308.5,142.10559C308.48956,141.17831 308.68246,140.24184 308.27866,139.43109C307.92685,138.72473 307.48914,138.04114 307,137.51009C306.49933,136.96649 306.66348,135.95052 306.216,135.24692C305.73737,134.49434 305.11014,134.24252 304.55716,133.52643C304.04938,132.86885 303.97516,132.38564 303.44284,131.88359C302.8226,131.29865 301.95654,131.06798 301.2045,130.58359C300.51361,130.1386 300.07098,129.68719 299.30133,129.24692C298.51743,128.79848 298.15146,127.98976 297.33334,127.53092C296.6355,127.13953 296.10419,126.88294 295.5,126.36426C294.89291,125.84309 294.18039,125.68546 293.55267,125.17825C292.94907,124.69054 292.2215,124.24139 291.58533,123.61626C290.98428,123.02565 290.10999,122.69372 289.53601,122.10559C289.04709,121.60461 288.28107,121.26933 287.62149,120.65242C287.0567,120.12418 286.2724,119.56345 285.784,118.81492C285.32434,118.11044 284.93594,117.435 284.5,116.69759C284.07593,115.98023 283.20853,115.46555 282.784,114.81492C282.32434,114.11044 281.72409,113.7094 281.07468,113.09492C280.41647,112.47212 280.18521,112.15359 279.53601,111.52026C278.91428,110.91372 279.00284,110.02645 278.216,109.52959C277.53842,109.10172 276.89557,108.75484 276.53601,108.10559C276.0863,107.29359 275.98892,106.69427 275.2045,106.17825C274.44165,105.67643 274.11786,105.08582 273.51068,104.49492C272.88443,103.88546 272.83398,103.2386 272.216,102.61626C271.68115,102.07764 271.2189,101.57363 270.27866,101.53092C269.41687,101.49178 268.52533,101.53092 267.62149,101.53092C266.784,101.53092 266.20984,102.19686 265.33334,102.53092C264.55701,102.82682 264.48932,103.49492 263.62149,103.53109L263.41467,104.24693" id="svg_26" stroke-width="3" stroke="#000" fill="none"/>
  <path t="88940,89080,89105,89121,89123,89144,89150,89169,89193,89202,89226,89226,89243,89265,89276,89290,89303,89319,89327,89337,89346,89352,89352,89394,89402,89443,89465,89489,89601,89633,89666,89678,89697" d="M251.5,120.53092C252.216,121.24693 252.59958,121.95279 253.14734,122.58359C253.66805,123.18322 254.32196,123.76213 254.5,124.61492C254.66855,125.42227 255.19478,125.90431 255.784,126.44559C256.45999,127.06657 256.9595,127.33663 257.48932,128.09492C257.88174,128.6566 258.05722,129.26923 258.53601,130.09492C258.94086,130.79308 259.38287,131.23933 259.92532,131.92026C260.52377,132.67148 261.29056,132.87505 261.72134,133.63075C262.11215,134.31631 262.53265,135.11105 263.216,135.52959C263.92188,135.96191 264.55716,136.58809 265.14734,137.17825C265.85266,137.88358 266.46399,138.50558 266.5,139.36426L267.216,139.61626L267.5,140.44559" id="svg_27" stroke-width="3" stroke="#000" fill="none"/>
  <path t="112135,112188,112213,112226,112243,112260,112276,112284,112300,112309,112309,112317,112326,112334,112343,112350,112359,112368,112376,112384,112400,112409,112418,112418,112427,112433,112437,112444,112453,112453,112460,112469,112476,112476,112492,112501,112501,112510,112518,112525,112525,112534,112556,112556,112568,112580,112596,112602,112609,112609,112612,112621,112634,112634,112643,112646,112654,112669,112692,112702,112716,112726,112751,112760,112760,112768,112800,112813,112826,112844,112863,112886,112893,112910,112918,112927,112936,112945,112953,112961,112968,112977,112985,113001,113028" d="M252.5,121.53092C253.5,122.17825 254.27467,122.47698 254.4955,123.23542C254.75781,124.13635 255.07863,124.49018 255.52533,125.14159C256.02042,125.86355 256.33606,126.74802 256.66666,127.53092C256.99698,128.31319 257.48578,129.15009 258.11066,129.55626C258.84875,130.03604 259.28348,130.82463 259.85266,131.47826C260.37213,132.07478 260.74139,133.00787 261.5,133.36426C262.34171,133.75967 262.84277,134.14377 263.37866,134.75243C264.00171,135.4601 264.3342,135.96259 265.064,136.55626C265.71307,137.08426 265.97589,138.0947 266.79999,138.47826C267.56671,138.83511 268.13751,139.30577 268.89999,139.92026C269.64578,140.52127 270.53439,140.65472 271.14282,141.17825C271.90378,141.83304 272.63324,142.31898 273.29999,142.61493C274.15778,142.99568 274.96405,143.37476 275.70001,143.81625C276.37863,144.22336 276.95044,145.03998 277.7215,145.75226C278.28134,146.26942 278.85721,146.79517 279.5,147.36426C280.05347,147.85426 281.00513,148.04648 281.60001,148.63092C282.20529,149.2256 282.83466,150.0305 283.60001,150.40959C284.44678,150.82901 285.14798,151.09634 285.7955,151.83092C286.37924,152.49313 286.88803,152.96608 287.5,153.56693C288.12158,154.1772 288.16827,154.68665 288.52084,155.53091C288.8284,156.2674 289.95795,156.71141 290.33334,157.53091C290.67355,158.27361 290.39227,159.24277 290.92532,159.95625C291.45633,160.66699 292.01797,161.25302 292.51068,161.95625C292.96835,162.60948 293.66901,163.16222 294.5,163.51009C295.31073,163.84949 296.04166,163.99667 296.7955,164.47826C297.49539,164.92537 298.02066,165.52049 298.89999,165.53091C299.88928,165.54263 300.66934,165.61626 301.5,166.03091L302.33066,166.44559L303.11066,166.53091L304.064,166.53091" id="svg_28" stroke-width="3" stroke="#000" fill="none"/>
  <path t="114509,114684,114709,114766,114805,114885,114941,114974,115021" d="M202.5,155.53091C204.14734,155.53091 205.07466,155.53091 205.92534,155.53091C206.85266,155.53091 207.72133,155.53091 208.66667,155.53091L209.52083,155.53091L210.41467,155.52959" id="svg_29" stroke-width="3" stroke="#000" fill="none"/>
 </g>
</svg>