<svg width="280" height="420" xmlns="http://www.w3.org/2000/svg" xmlns:svg="http://www.w3.org/2000/svg" xmlns:xlink="http://www.w3.org/1999/xlink">
 <!-- Created with SVG-edit - http://svg-edit.googlecode.com/ -->
 <g display="inline" class="layer">
  <title>Layer 1</title>
  <path t="0,319,369,389,450,502,519,519,536,582,606,630,678,726,774,819,819,918,936,952,1026,1050,1069,1069,1136,1208,1229,1229,1269,1614,1636,1636,1636,1652,1652,1669,1686,1702,1719,1736,1736,1752,1769,1769,1786,1786,1802,1819,1819,1836,1836,1852,1852,1869,1869,1886,1961,1961,1985,2009,2021,2070,2093,2093,2201,2252,2369,2419,2435,2489,2537,2561,2632,2685,2735,2765,2872,2918,2934,2951,2980,3015,3016,3068,3118,3136,3183,3184,3201,3220,3244,3304,3328,3351,3412,3468,3556,3618,3668,3688,3715,3715,3784,3834,3868,3892,3933,3950,4012,4118,4151,4179,4443,4467,4468,4483,4501,4518,4534,4551,4568,4623,4695,4751,4816,4839,4862,4884,4884,4901,4923,4935,5078,5175,5175,5306,5368,5836,5858,5882,5907,5932,5954,6018,6034,6135,6167,6193,6194,6241,6253,6267,6318,6458,6501,6518,6518,6542,6602,6651,6710,6745,6806,6852,6868,6868,6918,6950,7003,7022,7178,7251,7268,7268,7286,7300,7321,7345,7367,7429,7526,7598,7718,7768,7784,7801,7817,8126,8126,8152,8222,8222,8247,8268,8283,8305,8305,8329,8389,8547,8606,8654,8702,8762,8821,8822,8869,8919,8941,8965,8965,8989,9035,9102,9135,9206,9253,9277,9302,9319,9369,9385,9446,9508,9577,9613,9722,9781,9805,9853,9902,9924,10021,10022,10069,10135,10189,10235,10260,10368,10428,10453,10478,10513,10548,10671" d="M117.5,95.5C117.5,93.7 117.32195,92.878 117.52084,92C117.73883,91.03766 118.43912,90.40612 118.5,89.5C118.55363,88.7018 118.72655,87.95751 119.37867,87.27866C119.93584,86.69865 120.48199,86.06457 120.5,85.2C120.51874,84.3002 120.31864,83.34653 120.66666,82.5C120.94256,81.82892 121.48958,81.00018 121.5,80.1C121.51041,79.20006 121.5,78.3 121.5,77.4C121.5,76.5 121.5,75.7 121.5,74.8C121.5,73.97916 121.5,73.016 121.5,72.15266C121.5,71.25716 121.5,70.29867 121.5,69.33334C121.5,68.664 121.5,67.89867 121.5,66.9045C121.5,65.98534 121.5,65.02084 121.5,64.1C121.5,63.2 121.5,62.3 121.5,61.39983C121.5,60.61467 121.5,59.67467 121.5,58.66667C121.5,57.87467 121.50217,57.016 121.5,56.15267C121.49775,55.25716 121.19061,54.44918 120.85267,53.74283C120.44385,52.88832 120.53094,52.09499 120.49866,51.10133C120.46796,50.15601 120.06139,49.29453 119.784,48.616C119.41562,47.71494 119.50885,46.66661 119.5,45.91067C119.48958,45.02065 118.84469,44.45223 118.44733,43.7955C117.9695,43.00577 117.16914,42.39206 116.78533,41.7C116.32807,40.87551 116.55814,39.73134 115.7955,39.5045C114.93716,39.24919 114.11829,39.37346 113.44733,38.85266C112.86356,38.39954 111.9,38.5 111,38.5C110.1,38.5 109.2,38.5 108.3,38.5C107.4,38.5 106.22617,38.04681 105.6215,38.7215C105.02969,39.38183 105.20421,40.22903 104.40017,40.7215C103.78045,41.10108 103.51846,42.12343 103.07467,42.9C102.66088,43.62408 102.25787,44.45378 101.85267,45.2C101.43938,45.96112 101.61098,47.01627 100.97916,47.5C100.30184,48.01857 99.64988,48.60429 99.5,49.5C99.35975,50.33818 98.83067,51.0484 98.14283,51.44283C97.32343,51.9127 96.3,51.5 95.4,51.5C94.5,51.5 93.6998,51.51874 92.8,51.5C91.93543,51.48199 91.94933,50.64947 91.44283,49.85717C91.04578,49.23607 89.68436,49.50297 89.50134,48.69867C89.30193,47.8224 89.35468,47.05407 88.784,46.416C88.20107,45.76424 87.45457,45.3062 86.7,45.58533C85.83041,45.90702 85.49274,46.8601 84.92533,47.52533C84.44594,48.08738 84.0655,48.89444 83.584,49.69867C83.13879,50.44229 82.51801,50.9355 82.5,51.9C82.4832,52.79984 82.5,53.7 82.5,54.6C82.5,55.5 82.68668,56.33178 82.44283,57.2C82.22897,57.96145 81.54272,58.69698 81.5,59.6C81.45747,60.49899 81.5,61.3 81.5,62.2C81.5,63.1 81.55814,64.26866 80.7955,64.4955C79.93716,64.75081 79.06257,64.43465 78.47467,63.92533C77.82605,63.36342 77.18702,62.74818 76.584,62.216C75.94217,61.64957 74.9882,61.66252 74.584,60.93067C74.19996,60.23532 74.07529,59.29836 73.66666,58.5C73.25774,57.70105 72.88171,56.83886 72.14283,56.56167C71.32759,56.25584 70.58503,57.48739 70.50134,58.3C70.40913,59.19527 70.5,60.1 70.5,61C70.5,61.9 70.5,62.8 70.5,63.7C70.5,64.6 70.5,65.5 70.5,66.3C70.5,67.2 70.5,68.1 70.5,69C70.5,69.9 70.40913,70.80474 70.50134,71.7C70.58504,72.5126 71.32184,72.9472 72.064,73.52533C72.68801,74.01142 73.30154,74.48062 74.2,74.5C75.06455,74.51865 75.55151,75.31915 76.30133,75.49866C77.19356,75.71227 77.6237,76.27826 78.07467,77.1C78.50271,77.87997 78.5,78.8 78.5,79.7C78.5,80.60017 78.43325,81.38847 78.51067,82.32533C78.59467,83.34187 79.18591,83.90342 79.44283,84.8C79.69126,85.66692 79.4522,86.60126 79.5,87.5C79.54272,88.30341 80.24469,89.03774 80.464,89.9C80.68496,90.76876 80.88783,91.51468 81.52533,92.07467C82.08034,92.56219 82.89231,92.94421 83.6,93.59983C84.19363,94.14979 85.12001,94.32951 86,94.52084C86.84632,94.70484 87.4874,95.41496 88.3,95.49866C89.19526,95.59087 90.1,95.5 91,95.5C91.9,95.5 92.8,95.49992 93.7,95.5C94.59983,95.50008 95.16933,96.0484 95.85717,96.44283C96.67657,96.9127 97.79789,96.34066 98.44733,96.85267C99.06194,97.3372 99.81135,97.4827 100.5,98C101.12567,98.46999 102,98.5 102.9,98.5C103.8,98.5 104.7,98.5 105.6,98.5C106.5,98.5 107.43642,98.90274 108.21467,98.41467C108.95507,97.95033 109.17033,96.95334 109.85717,96.55717C110.67174,96.08733 111.30686,95.82948 112.02084,95.52084C112.82805,95.17188 113.7955,95.4955 114.47467,95.07467L115.07467,94.47467L115.584,93.784" id="svg_1" stroke-width="3" stroke="#000" fill="none"/>
  <path t="12063,12252,12285,12302,12302,12302,12323,12324,12324,12335,12352,12432,12516,12539,12539,12588,12611,12652,12670,12756,12780,12802,12828,12828,12875,12899,12971,13044,13103,13152,13152,13202,13218,13218,13236,13253,13371,13418,13475,13488,13597,13679,13702,13727,13763,13787,13802,13852,13931,13966,14018,14038,14038,14052,14084,14102,14134,14231,14266,14318,14335,14352,14373,14470,14485,14534,14534,14602,14618,14698,14724,14746,14769,14830,14830,14866,14902,15334,15368,15368,15384,15401,15402,15417,15434,15434,15465,15489,15513,15537,15561,15601,15633,15657,15669,15729,15751,15802,15934,15985,16042,16055,16088,16137,16167,16234,16329,16353,16438,16463,16534,16552,16630,16702,16702,16761,16785,16802,16832,16885,16902,16918,16935,16952,17000,17025,17085,17085,17117,17134,17151,17168,17168,17184,17184,17185,17185,17201,17202,17217,17218,17234,17235,17516,17540,17540,17564,17564,17588,17602,17627,17652,17672,17696,17696,17732,17793,17828,17864,17888,17935,17959,18021,18036,18107,18136,18249,18332,18429,18491,18620,18668,18685,18741,18848,18908,18935,18967,19018,19085,19118,19136,19136,19185,19207,19208,19243,19279,19301,19351,19653" d="M122.5,65.5C122.5,65.87867 122.48133,64.95003 122.66666,64.16666C122.88914,63.22633 123.08737,62.70572 123.5,61.66667C123.86871,60.7382 124.32113,60.01086 124.464,59.136C124.61423,58.21599 124.5,57.2785 124.5,56.4C124.5,55.5 124.5,54.7 124.5,53.8C124.5,52.9 124.5,52 124.5,51.1C124.5,50.2 124.5,49.3 124.5,48.4C124.5,47.5 124.5,46.7 124.5,45.8C124.5,44.9 124.64209,43.98701 124.48933,43.1C124.34586,42.26686 123.74414,41.47083 123.44733,40.8C123.07229,39.95234 122.30192,39.29808 121.8,38.8C121.10265,38.10798 120.0106,37.87959 119.55717,37.14283C119.1144,36.42339 119.74424,35.26785 119.216,34.584C118.73129,33.9565 118.66798,33.18391 118.49866,32.30133C118.35354,31.54486 117.19719,31.66553 116.55267,31.14733C115.94131,30.6558 115.49793,29.89044 114.7955,29.44733C114.0236,28.96041 113.24637,28.71098 112.4,28.27867C111.74469,27.94394 110.90842,27.49368 110.44733,26.7955C109.94853,26.0402 109.15405,25.61731 108.52533,25.07467C107.92516,24.55666 107.24113,24.07869 106.40017,23.62133C105.65267,23.21481 105.14428,22.5286 104.3,22.5C103.40052,22.46953 102.5,22.5 101.7,22.5C100.8,22.5 99.9,22.5 99,22.5C98.1,22.5 97.19346,22.60695 96.3,22.49867C95.38023,22.38719 94.73314,21.65414 93.9,21.51067C93.01299,21.35791 92.06251,21.41877 91.29867,21.784C90.56882,22.13298 89.63664,22.33188 88.66666,22.66667C87.97965,22.90379 87.14739,23.33094 86.3,23.784C85.648,24.1326 84.77132,24.307 83.9,24.536C83.04416,24.76093 82.73827,25.80181 82.216,26.416C81.66009,27.06976 80.91746,27.18761 80.11066,27.51067C79.32153,27.82665 78.69822,28.13674 77.936,28.536C77.1777,28.93321 76.82159,29.78524 76.216,30.416C75.66599,30.98887 74.78333,31.37717 74.51067,32.11067C74.20786,32.92528 73.70745,33.50042 73.50134,34.30133C73.27689,35.17348 72.88197,35.81036 72.58533,36.7C72.29942,37.55748 71.93312,38.17765 71.536,38.936C71.13475,39.70224 71.1631,40.53125 70.784,41.3C70.36719,42.14521 70.82812,43.17195 70.47916,43.97917C70.17052,44.69315 69.51286,45.20458 69.5,46.1C69.48737,46.97932 68.9819,47.65882 68.416,48.216C67.74498,48.87668 67.5,49.6 67.5,50.5C67.5,51.3 67.5,52.2 67.5,53.1C67.5,54 67.5,54.94267 67.5,55.64133C67.5,56.48533 67.5,57.60133 67.5,58.39867C67.5,59.164 67.5,60.11417 67.5,61.09333C67.5,61.98533 67.5,62.71067 67.5,63.69983C67.5,64.664 67.5,65.61467 67.5,66.5C67.5,67.25716 67.5,68.15266 67.5,69.016C67.5,69.97916 67.5,70.9 67.5,71.8C67.5,72.7 67.5,73.6 67.5,74.5C67.5,75.3 67.5,76.2 67.5,77.1C67.5,78 67.25713,78.93484 67.5045,79.7955C67.7252,80.56339 68.13153,81.10249 68.52084,81.97916C68.83652,82.69006 69.08733,83.32826 69.55717,84.14283C69.95334,84.82967 70.16282,85.64896 70.66666,86.33334C71.1474,86.98632 72.10768,87.23918 72.464,87.936C72.89855,88.78582 73.21667,89.37717 73.48933,90.11066C73.79214,90.92527 74.31424,91.48808 74.4955,92.2045C74.71515,93.07265 74.5,94 74.5,94.91067C74.5,95.82133 74.5,96.67467 74.5,97.61467C74.5,98.5 74.5,99.3 74.5,100.2C74.5,101.1 74.5,102 74.5,102.9L74.5,103.8" id="svg_2" stroke-width="3" stroke="#000" fill="none"/>
  <path t="20600,20800,20826,20863,20898,20950,21000,21019,21043,21090,21117,21118,21134,21150,21200,21217,21234,21284,21284,21307,21307,21350,21350,21368,21384,21400,21417,21437,21437,21462,21462" d="M76.5,80.5C76.5,81.5 76.5,82.30133 76.5,83.2C76.5,84.1 76.5,85 76.5,85.9C76.5,86.8 76.5,87.7 76.5,88.6C76.5,89.5 76.5,90.3 76.5,91.2C76.5,92.1 76.5,93 76.5,93.9C76.5,94.8045 76.5,95.66666 76.5,96.52084C76.5,97.5 76.5,98.28934 76.5,99.33334C76.5,100.08933 76.5,101 76.5,101.9C76.5,102.8 76.5,103.70133 76.5,104.66666L76.5,105.5L76.5,106.33334L76.5,107.1955" id="svg_3" stroke-width="3" stroke="#000" fill="none"/>
  <path t="22880,23009,23050,23050,23068,23068,23068,23084,23084,23099,23116,23133,23153,23176,23216,23233,23233,23249,23309,23334,23452,23476,23537,23600,23657,23684,23716,23767,23767,23817,23884,24400,24460,24484,24484,24534,24584,24616,24667,24667,24684,24735,24784,24834,24850,24850,24871,24915,24934,24963,24987,25033,25050,25083,25133,25149,25179,25264,25287,25300,25322,25334,25349,25349,25371,25394,25416,25433,25454,25467,25491,25515,25515,25540,25551,25575,25960,25996,26032,26056,26085,26085,26104,26140,26213,26344,26548,26799,26884,26901,26901,26951,27016,27035,27100,27151,27244,27303,27326,27974,28001,28001,28018,28018,28035,28035,28050,28068,28083,28106,28130,28130,28150,28179,28200,28217,28250,28300,28318,28318,28337,28357,28370,28383,28400,28419,28442,28454,28478,28514,28534,28562,28586,28634,28651,28668,28693,28718,28768,28768,28784,28802,28825,28862,28883,28909,28921,28934,28983,29000,29030,29053,29053,29083,29102,29102,29117,29133,29161,29186,29233,29251,29251,29270,29283,29284,29300,29317,29318,29333,29334,29353,29403,29403,29702,29718,29718,29737,29810,29846,29868,29884,29953,30025,30062,30062,30086,30133,30184,30217,30218,30277,30337,30384,30409,30434,30457,30517,30577,30637,30684,30701,30721,30721,30745,30768,30784,30805,30818,30834,30851,30851,30876,30901,30918,30936,30951,30968,30984,30984,31001,31018,31084,31393,31418,31433,31452,31468,31468,31489,31533,31560,31583,31600,31632,31632,31650,31668,31728,31800,31824,31859,31896,31896,31920,31980,32017,32040,32088,32118,32136,32137,32151,32171,32183,32233,32268,32318,32376,32436,32468,32508,32508,32568,32585,33071,33101,33119,33150,33167,33190,33190,33203,33203,33217,33234,33251,33268,33287,33287,33311,33334,33408,33443,33468,33500,33526,33526,33583,33601,33668,33731,33815,33839,33886,33950,33951,33967,34018,34050,34068,34069,34118,34149,34168,34184,34200,34222,34284,34391,34418,34484,34484,34919,34984,35068,35100,35121,35183,35208,35242,35410,35626,35698,35718,35734,35751,35865,35866,35917,35938,35966,35983,36009,36068,36084,36133,36184,36184,36234,36261,36346,36367,36416,36441,36489,36533,36583,36634,36651,36683,36733,36801,36802,36834,36851,36896,36934,36984,37004,37005,37034,37245,37269,37301,37301,37497,37517,37534,37551,37552,37600,37601,37715,37766,37785,37816,37816,37833,37855,37899,37949,37965,38015,38048,38066,38066,38096,38132,38183,38200,38249,38267,38288,38336,38349,38399,38420,38600,38647,38708,38747,38768,38829,38852,38876,38899,38915,38932,38949,38999,39019,39092,39152,39183,39212,39248,39320,39320,39350,39367,39415,39433,39487,39549,39599,39650,39691,39692,39716,39738,39775,39833,39833,39850,39873,39874,39900,39931,39955,39967,40015,40039,40051,40083,40116,40133,40133,40150,40150,40166,40267,40376,41203,41249,41250,41274,41274,41311,41311,41335,41382,41400,41401,41432,41449,41480,41502,41549,41565,41598,41649,41650,41672,41706,41742,41778,41800,41816,41817,41837,41850,41900,41971,42000,42016,42033,42049,42066,42082,42099,42100,42115,42132,42182,42199,42222,42270,42294,42318,42318,42342,42366,42382,42399,42432,42449,42500,42500,42533,42565,42566,42582,42632,42633,43029,43083,43102,43132,43133,43149,43199,43219,43219,43241,43265,43266,43316,43335,43350,43373,43459,43484,43484,43501,43502,43567,43584,43601,43662,43663,43717,43717,43751,43903,43934,43934,44084,44084,44118,44141,44214,44214,44266,44318,44394,44466,44517,44517,44550,44658,44684,44717,44778,44779,44800,44816,44866,44917,44935,44981,45033,45055,45055,45089,45150,45200,45221,45318,45350,45498,45517" d="M83.5,96.5C83.5,97.52084 83.54733,98.39848 83.32933,99.188C83.12119,99.94184 82.66241,100.73021 82.14817,101.49017C81.54877,102.37596 81.08088,102.98251 80.55267,103.7955C80.09682,104.49712 79.16897,104.68683 78.66666,105.5C78.19498,106.2636 77.77097,106.79579 77.2785,107.59983C76.89893,108.21955 75.74731,108.43736 75.5045,109.2045C75.24485,110.02484 74.67174,110.08733 73.85717,110.55717C73.17033,110.95334 72.26759,111.06573 71.66666,111.66666C71.06573,112.26759 71.28384,113.22946 70.5,113.66666C69.84813,114.03026 69.25808,114.8849 68.40017,115.37867C67.6627,115.80312 67.16891,116.31428 66.4,116.72134C65.64246,117.12238 64.88196,117.4911 64.1,117.92533C63.27953,118.38094 62.28606,118.61782 61.85717,119.2045C61.30196,119.96397 60.81406,120.60023 60.416,121.30133C60.00916,122.01788 59.19696,122.62411 58.78533,123.3C58.27225,124.14248 57.79893,124.76424 57.216,125.416C56.64532,126.05406 56.57086,126.84844 56.07467,127.47467C55.5477,128.13972 54.68192,128.49429 54.50134,129.30133C54.30511,130.17831 54.5,131.10001 54.5,132C54.5,132.89999 54.5,133.8 54.5,134.7C54.5,135.60001 54.5,136.5 54.5,137.3C54.5,138.2 54.5,139.10001 54.5,140C54.5,140.89999 54.5,141.8 54.5,142.7C54.5,143.60001 54.5,144.5 54.5,145.3C54.5,146.2 54.5,147.10001 54.5,148C54.5,148.89999 54.5,149.8 54.5,150.7C54.5,151.60001 54.5,152.5 54.5,153.3C54.5,154.2 54.5,155.10001 54.5,156C54.5,156.89999 54.5,157.8 54.5,158.7C54.5,159.60001 54.5,160.5 54.5,161.3C54.5,162.2 54.17188,163.17195 54.52083,163.97917C54.82948,164.69315 55.49775,165.20448 55.5,166.10001C55.50226,167 55.5,167.89999 55.5,168.8C55.5,169.70267 55.5,170.47067 55.5,171.50534C55.5,172.24933 55.5,173.35699 55.5,174.07866C55.5,175 55.49933,175.89999 55.5,176.8C55.50067,177.7 55.80085,178.55083 56.14734,179.2C56.60069,180.04938 56.5,181 56.5,181.89999C56.5,182.8 56.41788,183.70377 56.50017,184.60001C56.58385,185.51144 57.26117,186.03766 57.47917,187C57.67806,187.87799 57.42122,188.8548 57.92533,189.47467C58.42555,190.08974 58.92131,190.75887 59.37867,191.59984C59.78518,192.34732 60.2893,192.88222 60.50134,193.69867C60.70921,194.49911 61.57758,194.92607 62.07467,195.52533C62.58477,196.14027 62.33479,197.1192 62.52083,198C62.69983,198.8474 63.43911,199.59389 63.5,200.5C63.55363,201.2982 63.55717,202.2 64,203C64.44283,203.8 64.37599,204.7086 64.50017,205.59984C64.61189,206.40172 65.40584,206.88687 65.92533,207.47467C66.44044,208.0575 66.43938,209.03888 66.85267,209.8C67.25787,210.54622 67.50933,211.35451 68.11066,212.10001C68.63809,212.75389 69.33254,213.27139 69.4955,214.2C69.65122,215.08736 70.11803,215.81035 70.41467,216.7C70.70063,217.55765 70.71259,218.47122 71.07467,219.10001C71.52343,219.87933 71.31856,220.84981 71.536,221.63867C71.79599,222.58185 72.41994,223.21906 72.55267,223.909C72.74467,224.90704 73.19455,225.62932 73.41467,226.61467C73.60857,227.48271 73.50939,228.35539 74.11066,229.10001C74.63843,229.75359 75.45602,229.95355 76.21467,230.584C76.93946,231.18631 77.72491,231.24373 78.37867,231.72133C79.07775,232.23204 79.7,232.5 80.6,232.5C81.5,232.5 82.43036,232.10704 83.21467,232.58533C84.0183,233.07539 84.6,233.5 85.5,233.5C86.3,233.5 87.2,233.5 88.1,233.5C89,233.5 89.88934,233.51067 90.5,234C91.11066,234.48933 92,234.5 92.9,234.5C93.8,234.5 94.7,234.5 95.6,234.5C96.5,234.5 97.3,234.5 98.2,234.5C99.1,234.5 100,234.5 100.9,234.5C101.8,234.5 102.75729,234.66371 103.6,234.27867C104.2693,233.97287 105.09995,233.50534 106,233.5C106.89999,233.49467 107.8,233.5 108.7,233.5C109.6,233.5 110.5,233.5 111.3,233.5C112.2,233.5 113.1,233.5 114,233.5C114.9,233.5 115.8,233.50008 116.7,233.5C117.6,233.49991 118.46668,233.2794 119.1,232.92534C119.96127,232.44383 120.9,232.5 121.8,232.5C122.7,232.5 123.6,232.5 124.5,232.5C125.3,232.5 126.2,232.5 127.1,232.5C128,232.5 128.89999,232.49933 129.8,232.5C130.7,232.50067 131.5343,232.62476 132.2,233.2045C132.83511,233.7576 133.60429,234.35011 134.5,234.5C135.33818,234.64026 135.72447,235.35863 136.60001,235.50017C137.50354,235.64624 138.29826,235.98245 138.97917,236.5C139.61267,236.98152 139.38673,238.19934 140.11067,238.48933C140.99669,238.84425 141.55466,239.14397 142.30133,239.584C143.00188,239.99684 143.94583,240.37543 144.7,240.784C145.35008,241.13618 146.20053,241.55171 147,242C147.79604,242.44637 148.4834,242.91748 149,243.5C149.53448,244.10268 149.87764,245.04112 150.82133,245.37866C151.47049,245.61086 152.44954,245.77435 153.1955,246.14734C153.97386,246.53654 154.89999,246.49933 155.8,246.5C156.7,246.50067 157.53667,246.82613 158.3,247.216C159.05289,247.60054 160,247.5 160.89999,247.5C161.8,247.5 162.7,247.5 163.60001,247.5C164.5,247.5 165.3,247.5 166.2,247.5C167.10001,247.5 168,247.5 168.89999,247.5C169.8,247.5 170.70377,247.58212 171.60001,247.49983C172.51144,247.41615 173.2,246.85266 174,246.5C174.8,246.14734 175.8246,245.86365 176.33333,245.16667C176.73848,244.61162 176.84811,243.60497 177.5,243C178.07071,242.47038 178.08731,241.67174 178.55716,240.85716C178.95334,240.17032 180.00723,239.89102 180.44284,239.14284C180.86794,238.4127 180.60738,237.27139 181.2045,236.85716C181.99345,236.30984 183,236.5 183.89999,236.5C184.8,236.5 185.80281,236.66553 186.44733,236.14734C187.0587,235.65579 187.48958,234.97934 187.5,234C187.50957,233.10005 187.50009,232.2 187.5,231.3C187.49991,230.40016 187.23701,229.71519 186.5,229.33333C185.74605,228.9427 184.96796,228.56522 184.2,228.14734C183.35909,227.68976 182.36211,227.82178 181.66667,227.33333C180.95149,226.83101 180.3,226.5 179.39999,226.5C178.5,226.5 177.7,226.5 176.8,226.5C175.89999,226.5 175.06816,226.42812 174.47467,225.92534C173.84097,225.3885 172.97385,225.04361 172.2045,224.55267C171.49916,224.10258 171.31316,223.16898 170.5,222.66667C169.7364,222.19499 169.27553,221.64137 168.39999,221.49983C167.49646,221.35376 167.07883,220.80144 166.5,220.02083C166.02779,219.384 165.27489,218.9567 164.62134,218.27867C164.06271,217.69911 163.26135,217.39697 162.78534,216.69867C162.27455,215.94934 161.64865,215.48732 161,214.97917C160.23221,214.3777 159.29138,213.93314 159.04167,213.02083C158.91701,212.56538 159.53593,213.31464 160.07066,213.98267C160.64806,214.70401 161.48918,215.19989 162.27867,215.43866C163.15622,215.70407 163.71523,216.4391 164.60001,216.5C165.49788,216.5618 166.3,216.5 167.2,216.5C168.10001,216.5 169,216.5 169.89999,216.5C170.8,216.5 171.7,216.5 172.60001,216.5C173.5,216.5 174.43036,216.89294 175.21466,216.41467C176.0183,215.92461 176.72491,215.75627 177.37866,215.27867C178.07774,214.76796 178.78969,214.64877 179.44733,214.14734C180.12419,213.63124 180.44142,212.7413 181.2045,212.5045C182.02629,212.24948 182.49774,211.79552 182.5,210.89999C182.50226,210 182.50067,209.10001 182.5,208.2C182.49933,207.30133 182.13788,206.56357 181.5,206C180.91652,205.48448 180.45604,204.64575 179.69867,204.50133C178.8159,204.33299 177.89998,204.50533 177,204.5C176.09996,204.49466 175.24878,204.06714 174.5,203.66667C173.70856,203.24338 173.1689,202.68573 172.39999,202.27867C171.64246,201.87762 171.01019,201.31462 170.416,200.784C169.81467,200.24699 168.96283,199.75305 168.10001,199.536C167.2265,199.31624 166.3,199.5 165.39999,199.5C164.5,199.5 163.66556,199.30405 162.8,199.55716C161.92236,199.8138 161.15294,200.33641 160.39999,200.72133C159.6368,201.1115 158.78613,201.45753 158.2045,202.20984C157.75804,202.78731 157.54398,203.86893 157,204.5C156.49165,205.08974 155.82994,205.6095 155.416,206.30133C154.94012,207.09668 154.1095,207.47331 153.5,208C152.85208,208.55989 152.18222,208.94702 151.5,209.5C150.67096,210.17198 149.88786,210.47246 149.10001,210.92534C148.37706,211.34091 147.3472,211.17897 146.62134,211.72133C145.97726,212.20258 145.51753,212.45055 144.49466,212.14284C143.74199,211.91641 142.8365,211.49471 142.04167,211.02083C141.30292,210.58038 140.39999,210.5 139.5,210.5C138.7,210.5 137.8,210.5 136.89999,210.5C136,210.5 135.10001,210.5 134.2,210.5C133.3,210.5 132.39999,210.5 131.5,210.5C130.7,210.5 129.8,210.5 128.89999,210.5C128,210.5 127.09184,210.61649 126.2,210.4955C125.37866,210.38408 124.73138,209.64818 123.8,209.5045C122.91051,209.36728 121.94492,209.79764 121.11066,209.48933C120.36427,209.2135 120.26981,207.98906 119.4,207.62151C118.56345,207.26801 117.88721,207.15714 117.2785,206.62134C116.57069,205.99829 115.67583,206.05951 114.936,205.47467C114.25777,204.93854 113.66417,204.69627 112.8,204.44284C111.92257,204.18552 111.19145,203.63551 110.3,203.49867C109.38423,203.35809 108.8437,202.70145 107.9,202.51067C107.03772,202.33635 106.36959,202.04332 105.784,201.416C105.14142,200.72765 104.20026,200.84445 103.62133,200.27834C103.12371,199.79175 103.2528,198.5242 102.5,197.83333C101.91264,197.2943 101.10769,197.05579 100.4,196.40016C99.80637,195.8502 98.90434,195.49637 98.44733,194.7955C97.94318,194.02231 97.3977,193.4023 96.8,192.8C96.10798,192.10266 95.60892,191.4016 95.5,190.5C95.4035,189.70126 94.95821,189.0197 94.30133,188.3C93.76785,187.71548 93.50225,186.80002 93.5,185.89999C93.49775,185 93.5817,184.0959 93.4955,183.1955C93.4119,182.3222 92.91747,181.52844 92.66666,180.66667C92.42152,179.82434 92.50527,178.89998 92.5,178C92.49467,177.08929 92.27557,176.17993 92,175.5C91.66287,174.6682 91.44561,173.80547 91,173C90.55544,172.19644 90.57362,171.32822 90.47916,170.5C90.36599,169.5076 89.91756,168.91425 89.5,168C89.13602,167.20306 88.4071,166.57539 87.936,165.89999C87.4243,165.16641 87.5,164.2 87.5,163.3C87.5,162.39999 87.52537,161.4996 87.5,160.7C87.47141,159.79865 86.81728,159.07661 86.55717,158.2C86.32902,157.43109 86.5,156.5 86.5,155.7C86.5,154.8 86.5,153.89999 86.5,153C86.5,152.10001 86.5,151.2 86.5,150.3C86.5,149.39999 86.5,148.5 86.5,147.7C86.5,146.8 86.5,145.89999 86.5,145C86.5,144.10001 86.5,143.2 86.5,142.3L86.5,141.40033L86.5,141.12134" id="svg_4" stroke-width="3" stroke="#000" fill="none"/>
  <path t="47565,47863,47863,47898,47959,48018,48118,48151,48201,48201,48473,48473,48522,48570,48585,48653,48702,48726,48751,48768,48796,48857,48880,48905,48950,49014,49014,49038,49062,50417,50451,50476,50535,50585,50601,50619,50645,50679,50703,50727,50767,50799,50851,50901,50901,50968,50991,51039,51100,51150,51256,51291,51377" d="M113.5,94.5C113.5,95.5 113.5,96.3 113.5,97.2C113.5,98.1 113.5,99 113.5,99.9C113.5,100.8045 113.5,101.66666 113.5,102.5C113.5,103.4785 113.5,104.29867 113.5,105.2C113.5,106.1 113.49134,107.12597 114.11066,107.52533C114.85435,108.00489 115.7167,108.30759 116.59983,108.50017C117.4441,108.68427 117.85587,109.47141 118.8,109.5C119.69958,109.52724 120.77953,109.17687 121.37867,109.7215C122.07636,110.35571 122.32184,110.9472 123.064,111.52533C123.68801,112.01142 124.48093,112.03458 125.21467,112.58533C125.8307,113.04774 125.55449,114.20148 126,115C126.44466,115.797 127.04453,116.29052 127.7955,116.85717C128.46455,117.362 128.78525,118.17841 129.416,118.784C129.98888,119.33401 130.44019,120.05078 130.85266,120.8C131.31436,121.63865 131.49933,122.3 131.5,123.2C131.50067,124.1 131.5,125 131.5,125.9C131.5,126.8 131.49867,127.69867 131.14734,128.44733L130.52083,129.02083" id="svg_5" stroke-width="3" stroke="#000" fill="none"/>
  <path t="54028,54234,54234,54268,54292,54292,54292,54315,54315,54334,54411,54468,54496,54518,54568,54584,54601,54617,54633,54651,54651,54667,54683,54700,54771,54818,54834,54884,54901,54962,54986,55033,55052,55070,55085,55135,55155,55168,55191,55203,55226,55250,55756,55803,55803,55818,55862,55950,56019,56019,56069,56142,56168,56218,56268,56284,56334,56354,56379,56402,56402,56463,56498,56522,56568,56595,56630,56655,56668,56738,56811,56868,56868,56954,57003,57051,57098,57118,57194,57231,57251,57268,57318,57334,57785,57842,57868,57918,57976,58001,58018,58034,58083,58286,58334,58358,58454,58455,58573,58618,58668,58684,58716,58768,58789,58803,58824,58867,58884,58908,58970,58970,59018,59044,59084,59134,59151,59201,59251,59269,59270,59293,59353,59402,59451,59468,59521,59523,59569,59774" d="M112.5,109.5C112.66666,110.5 113.22794,111.1686 113.47467,111.92133C113.76497,112.80696 113.93579,113.74762 114.14733,114.49467C114.39058,115.35368 114.08077,116.44187 114.55717,117.14283C115.02082,117.82505 116.32343,117.0873 117.14283,117.55717C117.83067,117.9516 118.28192,118.6171 119.1,119.07467C119.87231,119.50664 120.38291,120.08604 120.85717,120.8C121.38303,121.59164 122.16414,121.95912 122.88934,122.47467C123.60196,122.98128 124.1308,123.56255 124.584,124.30133C125.00567,124.9887 126.14863,125.28807 126.47916,126.02084C126.84077,126.82246 126.42696,127.85018 126.92533,128.47467C127.41051,129.08263 127.23217,129.9424 127.5045,130.7955C127.76643,131.61601 128.33159,132.13046 128.52083,133C128.70502,133.84628 129.15555,134.74315 129.72133,135.37866C130.25581,135.97903 130.5,136.7 130.5,137.60001C130.5,138.5 130.09727,139.4364 130.58533,140.21466C131.04965,140.95508 131.5,141.60001 131.5,142.5C131.5,143.3 131.48933,144.20006 131.5,145.10001C131.51042,145.97935 132.25941,146.44119 132.4955,147.2045C132.76038,148.0609 133.11813,148.81033 133.41467,149.7C133.70055,150.55765 133.5,151.5 133.5,152.3C133.5,153.2 133.5,154.10001 133.5,155C133.5,155.89999 133.50009,156.8 133.5,157.7C133.49991,158.59984 132.99277,159.10898 132.55716,159.85716C132.13206,160.5873 132.19916,161.55083 131.85266,162.2C131.39931,163.04938 131.78909,164.05197 131.48933,164.88933C131.22559,165.62608 130.50662,166.1277 130.07466,166.89999C129.61708,167.71808 128.88828,168.23712 128.536,168.936C128.10179,169.79742 128.58476,170.85971 128.07466,171.47467C127.57758,172.07393 126.83821,172.5439 126.44733,173.2045C125.98258,173.98994 125.61149,174.84097 125.07467,175.47467C124.5719,176.06818 124.5,176.89999 124.5,177.8C124.5,178.7 124.5,179.60001 124.5,180.5C124.5,181.3 124.30923,182.22829 124.536,183.10001C124.75879,183.95639 125.9894,184.12041 126.44283,184.85716C126.8856,185.5766 126.38924,186.60684 126.5,187.5C126.61152,188.39922 127.45728,188.78236 127.5,189.7C127.54185,190.59903 127.5,191.5 127.5,192.3C127.5,193.2 127.5,194.10001 127.5,195C127.5,195.89999 127.49992,196.8 127.5,197.7C127.50008,198.60001 127.72058,199.46669 128.07466,200.10001C128.55617,200.96126 128.5,201.89999 128.5,202.8C128.5,203.7 128.5,204.60001 128.5,205.5L128.5,206.3L128.5,207.2L128.5,208.10001" id="svg_6" stroke-width="3" stroke="#000" fill="none"/>
  <path t="62365,62501,62570,62702,62726,62726,62976,63060,63084" d="M130.5,124.5C130.5,126.3 130.18552,126.88715 129.66667,127.66666C129.19579,128.37413 129.5,129.3 129.5,130.2L129.5,131.10001L129.5,132" id="svg_7" stroke-width="3" stroke="#000" fill="none"/>
  <path t="66516,66785,66785,66818,66835,66852,66852,66868,66888,66912,66935,67031,67086,67118,67152,67168,67185,67235,67259,67318,67335,67355,67379,67451,67502,67523,67536,67558,67870,67894,67931,67955,67968,68038,68102,68134,68185,68242,68268,68318,68374,68418,68418,68435,68485,68535,68566,68689,68689,68795,68818,68842,68902,68918,68935,68962,68998,69018" d="M130.5,167.5C130.66667,168.5 131.14734,169.2 131.5,170C131.85266,170.8 132.27036,171.64139 132.584,172.3C132.98297,173.13779 134.1414,173.29137 134.47917,174.02083C134.88222,174.8913 134.94936,175.63835 135.584,176.216C136.23065,176.8046 136.85193,177.32713 137.44733,177.85266C138.08548,178.41592 138.66008,178.93024 139.216,179.584C139.73827,180.19818 139.98254,181.1539 140.47467,181.88933C140.92267,182.55881 141.10146,183.21419 141.536,184.064C141.89232,184.76083 142.47214,185.30176 142.5,186.2C142.5293,187.14412 143.20468,187.48103 144.10001,187.5C145.06445,187.52043 145.68489,187.98943 146.33333,188.66667C146.93774,189.29794 147.73216,189.25575 148.416,189.784C149.0435,190.26871 149.8,190.5 150.7,190.5C151.60001,190.5 152.5,190.5 153.3,190.5C154.2,190.5 155.11961,190.49805 155.89999,190.92534C156.72256,191.37572 157.50256,191.4361 158.3,191.5C159.34334,191.5836 159.17749,192.63841 159.66667,193.33333C160.17,194.04836 160.85266,194.44733 161.47467,194.936L161.85266,195.8L162.33333,196.5L162.72133,197.37866" id="svg_8" stroke-width="3" stroke="#000" fill="none"/>
  <path t="71109,71458,71484,71500,71500,71517,71567,71618,71637,71637,71697,71720,71853,71925,71985,72045,72189,72237,72273,72286,72394,72418,72513,72550,72608,72635,72788,72800,72800,72824,72908,72980,73005,73018" d="M146.5,207.5C145,206.02083 144.10832,205.73486 143.30133,205.21466C142.68799,204.81929 142.90045,203.68381 142.44284,202.85716C142.05626,202.15881 141.12839,201.82532 140.78534,200.98267C140.41458,200.07193 139.7413,199.55858 139.5045,198.7955C139.24948,197.97371 138.79552,197.50226 137.89999,197.5C137,197.49774 136.06517,197.74287 135.2045,197.4955C134.4366,197.27478 134.03616,196.37099 133.44733,195.85266C132.79677,195.28001 132.08411,194.93988 131.52533,194.11067C131.10884,193.49261 130.19626,193.1469 129.5,192.5C128.89673,191.9395 128.10001,191.536 127.2045,191.4955L126.52533,191.064L126.21467,190.30133L125.5,189.66667" id="svg_9" stroke-width="3" stroke="#000" fill="none"/>
  <path t="76439,76500,76533,76723,76747,76771,76816,76816,76832,76853,76882,76913,76938,76938,76966,76982,76982,76999,77016,77033,77057,77082,77099,77116,77141,77166,77182,77202,77217,77233,77250,77299,77333,77366,77366,77393,77407,77453,77489,77489,77516,77532,77549,77566,77566,77582,77599,77616,77632,77649,77666,77682,78116,78149,78149,78149,78167,78168,78185,78231,78257,78281,78298,78299,78316,78348,78365,78366,78382,78402,78417,78433,78450,78474,78499,78516,78549,78549,78566,78583,78605,78632,78632,78653,78668,78690,78716,78733,78734,78751,78773,78809,78832,78882,78905,78933,78953,78953,78982,79001,79025,79061,79134,79170,79199,79229,79229,79284,79316,79333,79350,79410,79435,79460,79493,79578,79650,79673,79700,79749,79769,79793,79854,79900,79900,79916,79933,79949,79966,79982,79999,80016,80033,80033,80049,80066,80083,80099,80099,80116,80141,80153,80199,80250,80250,80273,80285,80309,80349,80350,80380,80380,80404,80428,80452,80466,80484,80485,80499,80516,80537,80549,80600,80621,80645,80645,80668,80692,80716,80733,80733,80753,80767,80782,80799,80817,80832,80849,80849,80866,80882,80899,80920,80932,80932,80950,80951,80967,80982,81004,81005,81028,81049,81066,81113,81132,81150,81173,81196,81216,81232,81249,81266,81282,81333,81350,81376,81400,81416,81433,81433,81449,81467,81483,81484,81508,81520,81544,81568,81592,81615,81632,81663,81717,81748,81808,81834,81929,82061,82061,82146,82184,82216" d="M183.5,212.5C184.416,212.216 184.85135,211.52859 185.78534,211.5C186.69957,211.47202 187.60001,211.5 188.5,211.5C189.3,211.5 190.21228,211.4653 190.89999,211.07466C191.71541,210.61148 192.60127,210.54779 193.5,210.5C194.30341,210.45728 195.1042,209.83228 195.98267,209.584C196.77077,209.36125 197.4769,208.87047 198.11067,208.47467C198.86124,208.00595 199.71671,207.69241 200.59984,207.49983C201.44411,207.31573 201.85588,206.5293 202.8,206.5C203.69824,206.47214 204.23885,205.89168 204.936,205.536C205.70247,205.14496 206.37706,204.783 207.11067,204.51067C207.94493,204.20096 208.70946,203.97282 209.60001,203.62151C210.2607,203.36087 211.32257,203.91122 212.14284,203.44284C212.95601,202.97852 213.46669,202.2794 214.10001,201.92534C214.96127,201.44383 215.94453,201.59546 216.7,201.216C217.5672,200.78043 218.19998,200.50226 219.10001,200.5C220,200.49776 220.89999,200.5 221.8,200.5C222.7,200.5 223.73257,200.74478 224.416,200.216C225.05101,199.72469 225.68791,199.19214 226.32533,198.63867C226.8662,198.16904 227.51173,197.24341 228.29866,196.78667C229.03168,196.36122 230.01572,196.6571 230.89999,196.48933C231.84592,196.30988 232.49216,195.62271 233.3,195.50133C234.20856,195.36482 234.6543,194.58374 235.5,194.5C236.29611,194.42117 237.2,194.5 238.10001,194.5C239,194.5 239.91737,194.41052 240.52533,193.92534C241.14983,193.42696 241.94835,193.25797 242.584,192.784C243.35281,192.21074 244.39438,192.83455 245.14284,192.44284C245.89006,192.05177 246.52066,191.51042 247.4785,191.5C248.29861,191.49109 249.2265,191.68376 250.10001,191.464C250.96283,191.24695 251.69659,190.54272 252.5,190.5C253.29887,190.45752 254.2,190.5 255.10001,190.5C256,190.5 256.89999,190.5 257.79999,190.5C258.70001,190.5 259.60001,190.5 260.5,190.5C261.29999,190.5 262.20001,190.5 263.10001,190.5C264,190.5 264.89999,190.5 265.79999,190.5C266.70001,190.5 267.65427,190.31673 268.5,190.66667C269.28464,190.99133 269.86017,191.62927 270.55267,192.14734C271.21487,192.64273 272.31561,192.49702 272.49866,193.30133C272.69806,194.1776 272.70023,194.90079 273.216,195.584C273.68054,196.19936 273.5,197.2 273.5,198.10001C273.5,199 273.5,199.89999 273.5,200.8C273.5,201.7 273.72305,202.67184 273.33334,203.5C272.97647,204.25839 271.89145,204.32007 271.2045,204.85716C270.4606,205.43877 270.19199,206.26698 269.55267,206.85266C268.96942,207.38699 268.26361,207.96193 267.5,208.33333C266.74609,208.7 265.91803,209.11298 265.10001,209.47467C264.31552,209.82152 263.51187,210.39786 262.79999,210.4955C261.90744,210.61792 261.18967,211.11813 260.29999,211.41467C259.44235,211.70055 258.46176,211.32645 257.70001,211.58533C256.81207,211.88708 256.09015,212.3656 255.2,212.5045C254.38087,212.63232 253.77306,213.26321 252.84734,213.44284C251.99803,213.60764 251.02083,213.5 250.10001,213.5C249.2,213.5 248.24271,213.33629 247.39999,213.72133C246.7307,214.02713 245.90004,214.49466 245,214.5C244.10002,214.50533 243.2,214.5 242.3,214.5C241.39999,214.5 240.46356,214.33183 239.7,214.58533C238.92783,214.84167 238.19145,215.36449 237.3,215.50133C236.38422,215.64191 235.84592,216.30988 234.89999,216.48933C234.01572,216.6571 233.10001,216.5 232.2,216.5C231.3,216.5 230.39999,216.5 229.5,216.5C228.7,216.5 227.8,216.55716 227,217C226.2,217.44284 225.29866,217.5 224.33333,217.5C223.67467,217.5 222.55362,217.14546 221.78667,217.58533C221.11156,217.97252 220.4337,218.35527 219.5215,218.72133C218.74748,219.03194 217.94493,219.20096 217.11067,219.51067C216.37706,219.783 215.85963,220.29092 214.89999,220.536C214.03796,220.75613 213.39174,221.32806 212.5,221.5C211.61028,221.67155 211.21764,222.4572 210.3,222.5C209.40114,222.54192 208.89137,223.00781 208.14284,223.44284C207.41246,223.86731 206.39316,223.38927 205.5,223.5C204.60062,223.61151 204.063,224.42947 203.31467,224.48933C202.38823,224.56345 201.39999,224.5 200.5,224.5C199.7,224.5 198.70737,224.1451 197.936,224.536C197.23788,224.88979 196.69867,225.49933 195.8,225.5C194.89999,225.50067 194,225.5 193.10001,225.5C192.2,225.5 191.19995,225.33792 190.55267,225.85266C189.93356,226.345 189.28119,227.00049 188.5,227.33333C187.74846,227.65353 186.8,227.5 185.89999,227.5L184.936,227.536" id="svg_10" stroke-width="3" stroke="#000" fill="none"/>
  <path t="86008,86101,86133,86150,86150,86166,86166,86187,86200,86216,86235,86260,86308,86334,86351,86351,86367,86391,86416,86439,86501,86501,86523,86549,86571,86595,86619,86634,86634,86683,86701,86717,86733,86751,86774,86799,86849,86849,86882,86900,86930,86954,86983,86983,87001,87026,87050,87098,87133,87150,87166,87193,87249,87266,87284,87350,87398,87421,87457,87457,87482,87515,87549,87578,87578,87599,87600,87650,87682,87700,87733,87733,87751,87751,87782,87782,87800,87800,87800,87832,88154,88154,88154,88200,88200,88232,88233,88233,88250,88250,88282,88283,88300,88332,88350,88382,88382,88400,88400,88419,88442,88466,88499,88499,88517,88536,88565,88586,88586,88615,88615,88633,88634,88665,88683,88702,88702,88732,88732,88750,88769,88791,88809,88832,88873,89030,89139,89185,89185,89215,89333,89361,89394,89416,89461,89515,89533,89600,89628,89659,89682,89715,89739,89765,89821,89893,89917,89966,90015,90016,90038,90065,90099,90099,90118,90118,90149,90199,90218,90265,90314,90365,90365,90383,90431,90449,90469,90493,90528,90599,90624,90625,90698,90721,90745,90781,90832,90853,90853,91309,91344,91344,91405,91420,91420,91448,91465,91488,91513,91532,91549,91566,91585,91585,91632,91657,91657,91682,91732,91749,91750,91767,91837,91849,91897,91897,91949,91969,91999,92015,92040,92040,92064,92100,92131,92161,92181,92198,92199,92248,92281,92281,92304,92317,92340,92353,92398,92425,92448,92449,92498,92549,92569,92598,92614,92631,92648,92664,92665,92688,92748,92798,92799,92815,92833,92882,92905,92949,92965,92965,92989,93049,93096,93132,93149,93180,93199,93219,93265,93282,93299,93361,93415,93415,93432,93482,93636,93665,93829" d="M68.5,218.5C68.5,220.3 68.5,221.136 68.5,221.98534C68.5,222.9045 68.6614,223.92366 68.464,224.62801C68.20238,225.56146 67.30701,225.90363 66.784,226.584C66.3141,227.19528 66.44455,228.20094 66,229C65.55438,229.80096 65.18896,230.54456 64.784,231.3C64.37876,232.05597 63.88197,232.81035 63.58533,233.7C63.29937,234.55765 63.25787,235.45378 62.85266,236.2C62.43937,236.96112 62.5,237.89999 62.5,238.8C62.5,239.7 62.5,240.60001 62.5,241.5C62.5,242.3 62.5,243.2 62.5,244.10001C62.5,245 62.5,245.89999 62.5,246.8C62.5,247.7 62.5,248.60001 62.5,249.5C62.5,250.3 62.48959,251.20006 62.5,252.10001C62.51042,253.00018 62.97651,253.73112 63.37867,254.60001C63.68507,255.26202 63.96581,256.16537 64.47467,256.88934C64.97746,257.60468 65.30805,258.23306 65.536,259.10001C65.76102,259.95581 66.96337,260.11795 67.41467,260.78534C67.92857,261.54532 68.11021,262.23788 68.464,262.936C68.85488,263.70734 68.5,264.70001 68.5,265.60001C68.5,266.5 68.30405,267.33441 68.55717,268.20001C68.81381,269.07764 69.4714,269.80307 69.5,270.66666C69.52758,271.49954 69.5,272.47849 69.5,273.29868C69.5,274.20001 69.39776,275.10803 69.52084,276.02084C69.6311,276.83865 70.16866,277.64517 70.3785,278.47867C70.60146,279.36432 70.5,280.16165 70.5,280.96167C70.5,282.18268 70.49824,282.97916 70.5,283.73065C70.50225,284.69016 70.6686,285.66592 70.92533,286.336C71.21822,287.10046 71.46716,288.10333 71.4955,288.95715C71.52748,289.92081 71.5,290.72534 71.5,291.54733C71.5,292.57834 71.5,293.45834 71.5,294.33334C71.5,295.1955 71.49806,296.1196 71.92533,296.89999C72.37571,297.72256 72.5,298.60016 72.5,299.38535C72.5,300.32535 72.48772,301.01605 72.5,302.08932C72.51042,303.00018 72.97652,303.73111 73.37867,304.60001C73.68507,305.26202 74.24702,306.03717 74.464,306.89999C74.68475,307.77789 74.5,308.66666 74.5,309.5C74.5,310.47867 74.46026,311.25372 74.5045,312.15268C74.54713,313.01871 75.12018,313.77731 75.41467,314.70132C75.70893,315.62466 75.47242,316.50046 75.5,317.33334C75.5286,318.19693 76.1855,318.92258 76.44283,319.79999C76.69629,320.66418 77.11021,321.23788 77.464,321.936C77.85488,322.70734 77.5,323.70001 77.5,324.60001C77.5,325.5 77.10696,326.43039 77.58533,327.21466C78.07553,328.01828 79.10831,328.23886 79.464,328.936C79.85503,329.70245 79.9968,330.17245 80.88934,330.51068C81.62108,330.78796 82.11062,331.49466 83,331.5C83.89999,331.5054 84.83385,331.44812 85.47467,331.92532C86.15644,332.43304 87,332.5 87.9,332.5C88.8,332.5 89.7,332.5 90.6,332.5C91.5,332.5 92.41074,332.13565 93.14283,332.55716C93.95434,333.02441 94.5,333.5 95.25716,333.5C96.15266,333.5 97.016,333.5 97.97916,333.5C98.9,333.5 99.8,333.5 100.7,333.5C101.6,333.5 102.5,333.5 103.3,333.5C104.2,333.5 105.20258,333.89819 106.064,333.46399C106.76287,333.11172 107.41217,332.86435 108.14283,332.44284C108.95394,331.97491 109.63355,331.46118 110.14283,330.7955C110.66115,330.11798 110.95668,329.3696 111.584,328.784C112.27236,328.14142 112.31865,327.34653 112.66666,326.5C112.94256,325.82892 113.48199,325.08984 113.5,324.17868C113.51686,323.3255 113.5,322.38535 113.5,321.5C113.5,320.70001 113.5,319.79999 113.5,318.89999C113.5,318 113.5,317.10001 113.5,316.20001C113.5,315.29999 113.5,314.39999 113.5,313.5C113.5,312.70001 113.5,311.74283 113.5,310.84732C113.5,309.98401 113.43369,308.97998 113.85267,308.20001C114.25451,307.45197 114.47208,306.69958 114.5,305.79999C114.5293,304.8559 115.35638,304.44818 115.5,303.5C115.6198,302.70905 115.48959,301.79993 115.5,300.89999C115.51042,299.99982 116.02719,299.29056 116.3785,298.39999C116.63913,297.73932 116.5,296.79999 116.5,295.89999C116.5,295 116.36729,294.08951 116.5045,293.20001C116.64818,292.26862 117.35185,291.72958 117.4955,290.74283C117.6245,289.85666 117.092,289.0668 117.52084,288.04166C117.82671,287.31046 118.31504,286.76877 118.536,285.89999C118.75531,285.03775 119.43912,284.40613 119.5,283.5C119.55363,282.70181 119.55717,281.79999 120,281C120.44283,280.20001 120.35021,279.28741 120.50017,278.40018C120.64417,277.54816 121.34725,277.09558 121.784,276.29999C122.13977,275.65189 122.78697,275.01218 123.37867,274.2785C123.89976,273.63239 124.29498,272.84628 124.47916,272C124.66842,271.13046 124.97938,270.38812 125.55267,269.85266C126.23789,269.21265 126.5,268.5 126.5,267.70001C126.5,266.79999 126.49461,265.89996 126.5,265C126.50533,264.1106 127.2748,263.56339 127.4955,262.7955C127.74287,261.93481 127.5,261 127.5,260.10001C127.5,259.20001 127.5,258.29999 127.5,257.39999C127.5,256.5 127.5,255.7 127.5,254.8C127.5,253.89999 127.5,253 127.5,252.10001L127.5,251.2" id="svg_11" stroke-width="3" stroke="#000" fill="none"/>
  <path t="95377,95617,95633,95649,95649,95665,95682,95711,95711,95736,95809,95844,95865,95883,95904,95916,95940,95952,95976,95988,96001,96024,96065,96083,96099,96116,96145,96199,96217,96217,96276,96337,96349,96373,96397,96469,96516,96516,96533,96564,96589,96603,96616,96637,96637,96648,96665,96684,96757,96781,96804,96829,96883,96883,96900,96916,96933,96965,96965,97020,97033,97056,97056,97082,97441,97476,97501,97516,97548,97573,97573,97616,97633,97705,97717,97740,97740,97801,97824,97848,97908,97933,97983,97983,98004,98066,98100,98135,98135,98185,98209,98210,98266,98317,98389,98425,98484,98509,98567,98584" d="M115.5,304.5C117.31467,304.48932 118.09034,304.03986 118.94283,303.62149C119.61678,303.29074 120.61467,303.5 121.6,303.5C122.5,303.5 123.39437,303.83453 124.14283,303.44284C124.89006,303.05179 125.52609,302.60226 126.47833,302.49985C127.34441,302.40671 127.78199,301.54272 128.60001,301.5C129.49878,301.45306 130.10753,301.01736 130.78534,300.58533C131.55898,300.09222 132.2388,299.8916 132.936,299.53601C133.70653,299.14304 134.5585,298.99988 135.37866,298.62149C136.13661,298.27182 137.16641,298.57568 137.89999,298.064C138.57539,297.5929 139.09375,296.92285 140,296.5C140.79022,296.13129 141.08217,295.33832 141.72133,294.62134C142.25621,294.02133 142.34648,293.25153 142.66667,292.5C142.99951,291.71881 143.48958,291.00018 143.5,290.10001C143.51041,289.20007 143.5,288.29999 143.5,287.39999C143.5,286.5 143.5,285.70001 143.5,284.79999C143.5,283.89999 143.5,283 143.5,282.10001C143.5,281.20001 143.5,280.29999 143.5,279.39999C143.5,278.5 143.5,277.70001 143.5,276.79999C143.5,275.89999 143.5,274.97916 143.5,274.01599C143.5,273.32535 143.5,272.25717 143.5,271.39999C143.5,270.5 143.5,269.70001 143.5,268.79999C143.5,267.89999 143.5,267 143.5,266.10001C143.5,265.20001 143.66277,264.2431 143.27867,263.39999C142.92332,262.62 142.51067,261.89999 142.5,261C142.48933,260.10001 141.99951,259.28119 141.66667,258.5C141.34648,257.74847 141.44284,256.79999 141,256C140.55716,255.2 140.58212,254.29623 140.49983,253.39999C140.41615,252.48856 139.75305,251.96283 139.536,251.10001C139.31624,250.2265 139.5,249.3 139.5,248.39983C139.5,247.61467 139.5,246.67467 139.5,245.66667C139.5,244.91066 139.50226,244 139.5,243.10001C139.49774,242.20448 139,241.5 138.51067,240.88933L138.5,240L138.5,239.10001L138.5,238.2" id="svg_12" stroke-width="3" stroke="#000" fill="none"/>
  <path t="100548,100649,100699,100733,100733,100765,100784,100849,100884,100915,100948,100948,100982,101015,101048,101048,101098,101117,101117,101143,101182,101215,101234,101278,101315,101365,101365,101410,101447,101447,101465,101491,101517,101582,101601,101601,101633,101665,101684,101710,101782,101830,101849,101891,101917,101936,102323,102357,102387,102418,102454,102481,102500,102526,102553,102553,102582,102601,102601,102626,102653,102684,102730,102781,102815,102815,102850,102881,102950,102983,103030,103049,103082,103126,103161,103181,103208,103257,103319,103319,103354,103415,103464,103484,103510,103537,103566,103587,103608,103635,103661,103662,103684,103726,103781,103781,103802,103824,103847,103881,103902,103923,103924,103947,103970,103997,104031,104032,104290,104327,104355,104376,104376,104376,104399,104433,104465,104497,104522,104552,104577,104615,104615,104639,104667,104709,104723,104723,104765,104816,104865,104890,104938,104985,104985,105032,105132,105149,105177,105250,105299,105321,105345,105345,105369,105382,105416,105432,105452,105476,105477,105499,105525,105597,105621,105621,105666,105694,105717,105732,105749,105749,105777,105799,105816,105848,105872,105957,105999,105999,106017,106116,106329,106329,106382,106401,106425,106449,106509,106509,106544,106581,106632,106682,106699,106716,106747,106773,106833,106849,106849,106868,106882,106940,106976,106999,107016,107048,107081,107098,107099,107149,107166,107191,107231,107251,107299,107316,107348,107348,107365,107381,107398,107449,107466,107481,107503,107529,107548,107565,107566,107615,107666,107666,107683,107732,107732,107755,107780,107804,107847,107865,107881,107931,107931,107960,107984,107998,108020,108043,108152,108153,108248,108320,108381,108381" d="M83.5,333.5C82.6215,334.7215 82.5,335.60001 82.5,336.5C82.5,337.29999 82.44283,338.20001 82,339C81.55717,339.79999 81.5,340.70001 81.5,341.60001C81.5,342.5 81.51142,343.30005 81.5,344.20001C81.48958,345.02103 81.19819,345.97678 80.92533,346.67465C80.56133,347.60562 80.5,348.5 80.5,349.29999C80.5,350.20001 80.5,351.10001 80.5,352C80.5,352.89999 80.5,353.79999 80.5,354.70001C80.5,355.60016 80.5,356.38535 80.5,357.32535C80.5,358.33334 80.5,359.08932 80.5,360C80.5,360.89999 80.39304,361.80652 80.50134,362.70001C80.61282,363.61978 81.30987,364.15408 81.48933,365.10001C81.65711,365.98428 81.51067,366.88934 82,367.5C82.48933,368.11066 82.13331,369.07971 82.52084,369.97916C82.82862,370.69351 83.13675,371.30179 83.536,372.064C83.93321,372.82233 84.49933,373.30133 84.5,374.20001C84.50067,375.10001 84.5,376 84.5,376.89999C84.5,377.79999 84.5,378.70001 84.5,379.60016C84.5,380.38535 84.5,381.32535 84.5,382.33334C84.5,383.1955 84.5,384 84.5,384.89999C84.5,385.79999 84.5,386.70001 84.5,387.60001C84.5,388.5 84.5,389.29999 84.5,390.20001C84.5,391.10001 84.50485,392 84.5,392.89999C84.49467,393.88937 83.77441,394.3739 83.51067,395.11066C83.2109,395.94803 83.5,396.89999 83.5,397.79999C83.5,398.70001 83.5,399.60001 83.5,400.5C83.5,401.29999 83.31626,402.2265 83.536,403.10001C83.75306,403.96283 84.2648,404.79922 84.784,405.41599C85.34077,406.07739 85.68682,406.83105 86.5,407.33334C87.26359,407.80502 87.78394,408.2489 88.6,408.7215C89.26654,409.10751 89.83467,409.9996 90.6,410.37866C91.44678,410.79807 92.03902,411.25525 93,411.47916C93.86668,411.68109 94.4436,412.07376 95.11066,412.52533C95.8475,413.02411 96.5173,413.70834 97.2,414.14282C97.93213,414.60876 98.91051,414.36728 99.8,414.50449C100.73138,414.64816 101.26862,415.35184 102.2,415.49551C103.08949,415.63272 104.07047,415.45502 104.82133,415.94266C105.55784,416.42096 105.99246,416.97568 106.97916,417.47916C107.78246,417.88904 108.64912,418.08582 109.33334,418.66666C109.9996,419.23227 110.76791,419.36612 111.41734,419.784C112.18018,420.27484 112.85183,420.49774 113.74284,420.5C114.7,420.50241 115.6,420.5 116.5,420.5C117.3,420.5 118.2,420.5 119.1,420.5C120,420.5 120.90816,420.61652 121.8,420.49551C122.62135,420.38409 123.48097,420.06833 124.14283,419.44733C124.74732,418.88013 124.68374,417.7735 124.464,416.89999C124.24694,416.03717 123.81745,415.1203 123.21467,414.58401C122.56474,414.0058 122.01959,413.56064 121.44733,412.85718C120.9446,412.23917 119.99277,411.89102 119.55717,411.14282C119.13207,410.41269 119.38218,409.28607 118.7955,408.85718C118.03603,408.30197 117.21302,408.01126 116.62133,407.2785C116.09985,406.63269 115.79671,405.85446 115,405.5C114.2012,405.14462 113.21009,404.89291 112.62133,404.2785C111.96886,403.59763 111.73577,402.85382 111.11066,402.10001C110.56557,401.44269 109.99281,400.89099 109.55717,400.14282C109.13271,399.41388 109.07613,398.68607 108.3,398.21466C107.62363,397.80383 107.11478,396.93607 106.54816,396.2045C106.0127,395.51315 104.90945,395.68216 104.52133,394.88934C104.13019,394.09036 104.59547,393.05545 104.216,392.29999C103.78042,391.4328 103.44562,390.80093 103,390C102.55545,389.20096 102.64877,388.2103 102.14733,387.55267C101.63124,386.87582 100.82881,386.48056 100.52533,385.64932C100.23784,384.86191 99.72632,384.22995 99.27866,383.39999C98.92934,382.75235 98.30749,382.10403 97.784,381.41599C97.31715,380.8024 97.51041,379.79993 97.5,378.89999C97.48958,377.99982 96.9568,377.29672 96.6215,376.39999C96.30342,375.54935 96.5,374.70001 96.5,373.79999C96.5,372.89999 96.5,372 96.5,371.10001C96.5,370.20001 96.5,369.29999 96.5,368.39999C96.5,367.5 96.48126,366.69983 96.5,365.79999C96.51801,364.93546 97.35425,364.45602 97.49866,363.69867C97.667,362.81589 97.49806,361.8804 97.92533,361.10001C98.37571,360.27744 98.4522,359.39871 98.5,358.5C98.54272,357.69659 99.148,357.03015 99.41467,356.01599C99.59132,355.34415 99.35068,354.20273 99.72134,353.39999C100.02982,352.73193 100.49467,351.90005 100.5,351C100.50533,350.10004 100.49992,349.20001 100.5,348.29999C100.50008,347.39999 100.72059,346.53333 101.07467,345.89999C101.55618,345.03873 101.5,344.10001 101.5,343.20001C101.5,342.29999 101.5,341.39999 101.5,340.5C101.5,339.70001 101.55717,338.85718 102.33334,338.33334L102.5,337.5L102.58533,336.70001" id="svg_13" stroke-width="3" stroke="#000" fill="none"/>
  <path t="109905,110023,110048,110065,110098,110115,110115,110131,110131,110181,110198,110198,110216,110231,110231,110248,110265,110265,110315,110315,110331,110331,110348,110365,110365,110395,110419,110431,110455,110503,110548,110548,110565,110588,110631,110648,110665,110715,110742,110765,110765,110838,110887,110910,110971,110994,111014,111064,111098,111150,111175,111175,111209,111246,111270,111313,111342,111378,111378,111402,111426,111462,111486,111535,111594,111630,111653,111654,111726,111781,111799,111848,111898,111914,111931,111953,111954,111966,112001,112048,112048,112064,112098,112114,112130,112147,112147,112163,112180,112231,112281,112361,112361,112414,112445,112498,112517,112564,112581,112598,112613,112745,112798,112817,112817,112830,112863,112880,112881,112900,112901,112901,112913,112914,112931,112980,112998,113013,113063,113081,113130,113155,113155,113198,113198,113249,113272,113345,113406,113430,113482,113482,113514,113565,113586,113610,113665,113718,113766,113815,113815,113832,113850,113936,113936,113982,114032,114049,114049,114065,114102,114149,114165,114198,114569,114593,114615,114632,114660,114715,114773,114773,114799,114815,114833,114857,114882,114904,114916,114965,114965,114988,115013,115037,115060,115081,115098,115119,115119,115131,115132,115181,115231,115264,115281,115312,115365,115365,115386,115386,115398,115414,115432,115455,115497,115514,115540,115540,115552,115614,115664,115664,115681" d="M115.5,321.5C115.5,323.29999 115.49787,324.11972 115.92533,324.89999C116.37678,325.72406 116.66324,326.668 116.92533,327.32535C117.32808,328.33545 117.4068,329.09564 117.51067,329.91068C117.62881,330.83777 118.0651,331.68005 118.69867,332.332C119.33562,332.98743 119.40969,333.68979 119.50134,334.61465C119.59014,335.51093 120.20232,336.09546 120.41467,336.98532C120.62884,337.88284 120.49947,338.89868 120.5,339.664C120.50067,340.61465 120.74213,341.45377 121.14733,342.20001C121.56062,342.96112 121.5,343.89999 121.5,344.79999C121.5,345.70001 121.5,346.60001 121.5,347.5C121.5,348.29999 121.5,349.20001 121.5,350.10001C121.5,351 121.5,351.89999 121.5,352.79999C121.5,353.70001 121.5,354.60001 121.5,355.5C121.5,356.29999 121.5,357.20001 121.5,358.10001C121.5,359 121.25713,359.93481 121.5045,360.7955C121.7252,361.56339 122.63835,361.94937 123.216,362.58401C123.80458,363.23068 124.45377,363.74213 125.2,364.14734C125.96111,364.56064 126.9,364.5 127.8,364.5C128.7,364.5 129.60001,364.5 130.5,364.5C131.3,364.5 132.2,364.5 133.10001,364.5C134,364.5 134.89999,364.5 135.8,364.5C136.7,364.5 137.60001,364.5 138.5,364.5C139.3,364.5 140.2,364.5 141.10001,364.5C142,364.5 142.89999,364.5 143.8,364.5C144.7,364.5 145.60001,364.5 146.5,364.5C147.3,364.5 147.95148,364.83102 148.66667,365.33334C149.36211,365.82178 150.3,365.5 151.2,365.5C152.10001,365.5 153.03333,365.45364 153.89999,365.92532C154.63257,366.32401 155.39154,366.40271 156.31467,366.51068C157.2739,366.62286 157.782,367.45728 158.60001,367.5C159.49878,367.54694 160.3,367.5 161.2,367.5C162.10001,367.5 163.03342,367.54651 163.89999,367.07468C164.63232,366.67593 165.17032,365.95334 165.85716,365.55716C166.67174,365.08731 167.59406,365.05893 167.4955,364.20001C167.40103,363.37668 166.56181,363.01816 165.85716,362.44733C165.12666,361.85553 164.44386,361.39572 163.864,360.81732C163.26953,360.22437 162.87015,359.4819 162.32533,358.78665C161.6925,357.97906 160.88629,357.53848 160.47467,356.88934C160.00078,356.14203 159.87921,355.0112 159.14284,354.55716C158.42482,354.11444 157.71851,353.96555 157.05333,353.52533C156.29547,353.0238 155.34163,352.87814 154.5215,352.62134C153.71465,352.36871 152.96281,351.75305 152.10001,351.53601C151.22649,351.31625 150.3,351.5 149.39999,351.5C148.5,351.5 147.7,351.5 146.8,351.5C145.89999,351.5 145,351.5 144.10001,351.5C143.2,351.5 142.3,351.5 141.39999,351.5C140.5,351.5 139.71004,351.39725 139,351C138.11201,350.5032 137.28452,350.23215 136.7,349.69867C135.9803,349.04181 135.12399,348.71552 134.40016,348.2785C133.67668,347.84171 133.50534,346.90005 133.5,346C133.49467,345.10004 133.5173,344.18866 133,343.5C132.53001,342.87433 132.5,342 132.5,341.10001C132.5,340.20001 132.5,339.29999 132.5,338.39999C132.5,337.5 132.5,336.70001 132.5,335.79999C132.5,334.89999 132.5,334 132.5,333.10001C132.5,332.20001 132.5,331.29999 132.5,330.39999C132.5,329.5 132.5,328.70001 132.5,327.79999C132.5,326.89999 132.5,326 132.5,325.10001C132.5,324.20001 132.5,323.29868 132.5,322.33334C132.5,321.67465 132.5,320.66666 132.5,319.8045C132.5,318.89999 132.5,318 132.5,317.10001C132.5,316.20001 132.5,315.29999 132.5,314.39984C132.5,313.61465 132.5,312.67465 132.5,311.98401C132.5,310.91068 132.5,310 132.5,309.10001C132.5,308.20001 132.5,307.29999 132.5,306.39999C132.5,305.5 132.09726,304.5636 132.58533,303.78534C133.04965,303.04492 133.5,302.5 133.5,301.70001L133.58533,300.78534" id="svg_14" stroke-width="3" stroke="#000" fill="none"/>
  <path t="119271,119500,119500,119548,119665,119682,119703,119751,119800,119848,119921,119921,119942,119982,120003,120003,120048,120082,120114,120145,120145,120164,120215,120265,120315,120424,120482" d="M179.5,235.5C178.5,235.5 177.7,235.5 176.78534,235.5C175.88933,235.5 175,235.5 174.10001,235.5C173.2,235.5 172.3,235.5 171.39999,235.5C170.5,235.5 169.56961,235.89299 168.78534,235.41467C167.98161,234.9245 167.5423,234.26501 166.8,233.85266C165.9756,233.3947 165.48233,232.78413 164.73833,232.44733C163.88443,232.06076 163.2711,231.73633 162.52083,231.02083C161.93333,230.46056 161.02083,230.47917 160.47467,229.92534L159.7955,229.5045L158.85716,229.44284" id="svg_15" stroke-width="3" stroke="#000" fill="none"/>
  <path t="121467,121670,121671,121718,121765,121782,121832,121861,121885,121886,121934,121948,121997,122030,122048,122115,122115,122132,122150,122236,122236,122366,122463,122606" d="M173.5,244.5C172.5,243.5 171.7,243.5 170.8,243.5C169.89999,243.5 169,243.50224 168.10001,243.5C167.19998,243.49774 166.46875,243.1631 165.7,242.784C164.8548,242.36719 163.90625,242.48477 163.44733,241.7955C162.94569,241.04208 162.15294,240.66359 161.39999,240.27867C160.6368,239.8885 160.05389,239.2612 159.416,238.784C158.64809,238.20953 157.7,238.5 156.85716,238.44284L156.33333,237.66667L155.584,237.21466" id="svg_16" stroke-width="3" stroke="#000" fill="none"/>
  <path t="124850,125082,125114,125131,125147,125196,125246,125296,125316,125376,125448,125472,125531,125532,125605,125664,125714,125764,125814,125864,125952,126059,126060,126132,126312,126336,126386,126443,126479,126531,126600,126600,126648,126671,126720,126792,126852,126900,126900,126960,126996,127014,127031,127081,127130,127146,127163,127295,127402,127403,127452" d="M95.5,80.5C95.784,79.584 96.24983,78.87714 97.02084,78.52084C97.80974,78.15627 98.37392,77.77441 99.11066,77.51067C99.94803,77.21091 100.9,77.5 101.8,77.5C102.7,77.5 103.6,77.5 104.5,77.5C105.3,77.5 106.2,77.5 107.1,77.5C108,77.5 108.9,77.5 109.8,77.5C110.7,77.5 111.67184,77.27697 112.5,77.66666C113.25838,78.02352 113.48958,78.99982 113.5,79.9C113.51041,80.79994 113.5,81.7 113.5,82.6C113.5,83.5 113.29145,84.24339 112.5,84.66666C111.75122,85.06712 111.00018,85.48958 110.1,85.5C109.20006,85.51041 108.29623,85.58212 107.4,85.49983C106.48856,85.41615 105.96234,84.73883 105,84.52084C104.122,84.32195 103.14983,84.57304 102.52533,84.07467C101.91737,83.58949 101.0575,83.44044 100.47467,82.92533C99.88688,82.40584 99.33334,81.66666 98.5,81.5L97.7,81.5L96.78533,81.41467" id="svg_17" stroke-width="3" stroke="#000" fill="none"/>
  <path t="129142,129322,129346,129363,129539,129635,129679,129679,129696,129763,129779,129802,129802,129826,129911,130114,130146,130173,130213,130234,130355,130403,130474,130545,130596,130646,130726,130871,130931,130947,131003,131047,131064,131081,131081,131243,131266,131326,131435" d="M106.5,55.5C106.5,57.3 106.494,58.20002 106.5,59.1C106.50533,59.90005 107.00051,60.7188 107.33334,61.5C107.65353,62.25154 107.87064,62.92899 108.3785,63.7215C108.85703,64.46822 108.5546,65.61011 109.11066,66.064C109.8635,66.67851 110.5,67.1106 110.5,68C110.5,68.8894 109.91746,69.18761 109.11066,69.51067C108.32153,69.82665 107.79551,70.49775 106.9,70.5C106,70.50226 105.1,70.5 104.2,70.5C103.3,70.5 102.39562,70.58868 101.5,70.5C100.6543,70.41626 99.99219,69.89135 99.55717,69.14283C99.1327,68.41245 99.5,67.4 99.5,66.5C99.5,65.7 99.5,64.8 99.5,63.9L99.5,63L99.5,62.1" id="svg_18" stroke-width="3" stroke="#000" fill="none"/>
  <path t="132743,133080,133186,133236,133282,133297,133390,133447,133522,133557,133714,133906" d="M96.5,55.5C94.7,55.5 93.89995,55.49043 93,55.5C92.02067,55.51042 91.56339,56.27479 90.7955,56.4955C89.93484,56.74287 89.02084,56.52083 88.44733,57.14734L87.7955,57.55267L87.02084,58.02083" id="svg_19" stroke-width="3" stroke="#000" fill="none"/>
  <path t="134961,135247,135247,135297,135322,135344,135397,135477,135610" d="M108.5,52.5C109.5,51.5 110.3,51.5 111.2,51.5C112.1,51.5 113,51.5 113.9,51.5L114.8,51.5L115.7,51.5" id="svg_20" stroke-width="3" stroke="#000" fill="none"/>
  <path t="136497,136797,136847,137084,137157,137253,137349,137373,137468,137579,137648,137697,137793" d="M111.5,58.5C113.3,58.5 114.31339,58.1066 115.064,58.536C115.75464,58.93109 115.85429,60.18377 115.47916,60.97917C115.14651,61.68451 114,61.5 113.1,61.5L112.2045,61.4955L111.536,61.064L111.5,60.2" id="svg_21" stroke-width="3" stroke="#000" fill="none"/>
  <path t="139256,139547,139580,139603,139615,139680,139772,139831,139927,139989,139989,140013,140063,140132,140252,140335,140455,140828,141081,141113" d="M93.5,61.5C93.91467,60.536 93.49644,61.28072 92.69867,61.49866C91.81366,61.74044 91.01684,62.10718 90.58533,62.78533C90.09218,63.56038 90.5,64.6 90.5,65.5C90.5,66.3 90.48938,67.35329 91.30133,67.49866C92.20417,67.6603 92.98316,66.89281 93.41467,66.21467C93.90782,65.43963 93.5,64.4 93.5,63.5L93.49983,62.6215" id="svg_22" stroke-width="3" stroke="#000" fill="none"/>
 </g>
</svg>