<svg width="500" height="333.3333333333333" xmlns="http://www.w3.org/2000/svg" xmlns:svg="http://www.w3.org/2000/svg" xmlns:xlink="http://www.w3.org/1999/xlink">
 <!-- Created with SVG-edit - http://svg-edit.googlecode.com/ -->
 <g display="inline" class="layer">
  <title>Layer 1</title>
  <path t="0,242,251,274,307,323,347,356,372,384,399,415,431,453,460,485,518,550,558,585,606,631,638,662,688,695,711,720,736,755,759,776,792,804,824,849,857,866,897,918,962,962,1002,1059,1075,1139,1221,1237,1349,1349,1438,1449" d="M214.5,100.66666C214.5,101.468 214.5,102.38133 214.5,103.24133C214.5,104.16666 214.30487,105.17445 214.72133,105.888C215.15759,106.6355 215.7395,107.12004 216.216,107.75066C216.77959,108.49653 216.48151,109.50019 216.5,110.38267C216.51801,111.2419 217.35492,111.62091 217.5,112.314C217.6747,113.14857 217.51418,114.08852 218.07466,114.656C218.50269,115.08936 218.26866,116.15368 218.72133,116.66683C219.25255,117.26903 219.5,117.95067 219.5,118.83334C219.5,119.71933 219.58279,120.5509 220.07466,121.24133C220.58913,121.96349 220.5,122.888 220.5,123.75066C220.5,124.66666 220.53499,125.51886 221,126.16666C221.54224,126.92207 221.19395,127.90358 221.536,128.692C221.8831,129.49208 222.30046,130.27977 222.85266,130.66667C223.53314,131.14346 224.18176,131.52284 225.07466,131.66667C225.91451,131.80196 226.29611,132.25089 226.784,132.66667C227.35452,133.15288 227.85266,133.6095 228.66667,133.83333L229.216,134.38266L230.07466,134.70267L230.49867,135.38266" id="svg_1" stroke-width="3" stroke="#000" fill="none"/>
  <path t="3301,3603,3611,3635,3643,3654,3671,3686,3691,3711,3724,3732,3748,3764,3797,3837,3869,3889,3904,3942,3958,3982,4007,4039,4063,4088,4120,4137,4160,4176,4201,4225,4241,4269,4290,4298,4306,4322,4346,4354,4378,4388,4411,4426,4442,4483,4491,4524,4549,4576,4600,4613,4637,4660,4677,4701,4721,4758,4799,4806,4847,4855,4906,4952,5000" d="M229.5,135.66667C230.51067,135.65601 231.03891,135.01927 231.85716,134.66217C232.66986,134.3075 233.41058,133.91782 234.14734,133.66667C234.9866,133.3806 235.77188,133.19498 236.47917,132.64583C237.18311,132.09929 237.61261,131.98776 238.44284,131.66667C239.23943,131.3586 239.784,130.66667 240.72133,130.66667C241.58533,130.66667 241.94669,130.15782 242.58533,129.66667C243.31883,129.10257 244.41467,129.66667 245.216,129.66667C246.14734,129.66667 247,129.66667 247.92534,129.66667C248.85266,129.66667 249.72133,129.66667 250.58533,129.66667C251.51067,129.66667 252.41467,129.66667 253.216,129.66667C254.14734,129.66667 255,129.66443 255.92534,129.66667C256.85266,129.66893 257.31085,130.34827 258.07468,130.65601C258.93301,131.00183 259.85718,130.66667 260.7955,130.66667C261.66666,130.66667 262.09549,131.20299 262.72134,131.66667C263.35074,132.13298 263.80316,132.46483 264.66666,132.66667C265.44577,132.84879 265.85474,133.19341 266.5,133.72383C267.15714,134.26399 267.13544,134.96654 267.72134,135.54517C268.29459,136.11128 268.7052,136.10643 269.41467,136.66667C269.99234,137.12283 270.45654,137.65181 271,138.16667C271.74057,138.86826 272.45825,139.24365 273.07468,139.70267C273.71741,140.18127 274.14734,140.66667 274.5,141.24133L274.92532,141.66667" id="svg_2" stroke-width="3" stroke="#000" fill="none"/>
  <path t="6908,7132,7136,7156,7177,7191,7205,7226,7242,7250,7267,7274,7289,7298,7314,7326,7330,7346,7356,7362,7379,7389,7406,7415,7428,7443,7454,7475,7488,7508,7532,7540,7569,7589,7600,7616,7623,7645,7661,7672,7697,7705,7713,7729,7737,7755,7761,7777,7782,7793,7798,7810,7815,7826,7831,7847,7858,7863,7880,7891,7896,7907,7912,7928,7944,7961,7988,8005,8009,8025,8041,8049,8066,8412,8423,8428,8442,8445,8455,8461,8472,8477,8488,8493,8504,8504,8509,8521,8525,8533,8550,8558,8566,8574,8582,8590,8598,8615,8623,8630,8630,8650,8667,8679,8688,8707,8711,8731,8738,8755,8771,8787,8803,8828,8849,8873,8881,8898,8914,8930,8946,8970,8989,9014,9027,9043,9055,9083,9099,9108,9131,9156,9188,9196,9224,9253,9273,9289,9321,9333,9361,9423,9568,9587,9625,9657,9696,9729,9770,9802,9822,9826,9851,9875,9882,9899,9931,9948,9980,10004,10028,10053,10076,10093,10112,10134,10158,10184,10208,10242,10271,10294,10319,10344,10375,10423,10481,10521,10532,10586,10641,10707,10707,10772,10779,10820,10844,10860,10871,10893,10909,10941,10941,10973,11006,11013,11038,11069,11078,11094,11127,11135,11159,11175,11183,11200,11207,11224,11248,11256,11263,11287,11296,11308,11312,11323,11340,11344,11357,11361,11372,11391,11395,11401,11418,11434,11456,11460,11465,11477,11490,11497,11517,11522,11534,11542,11557,11575,11579,11589,11590,11598,11607,11611,11622,11628,11635,11646,11661,11676,11683,11699,11716,11731,11741,11748,11765,11789,11807,11812,11823,11840,11862,11902,11934,11975,12096,12144,13477,13496,13517,13585,13589,13857,13914,13938,14147,14195,14219,14236,14252,14268,14284,14301,14317,14325,14358,14365,14397,14406,14422,14446,14454,14470,14486,14503,14519,14530,14551,14575,14592,14607,14624,14640,14656,14665,14681,14697,14714,14736,14747,14769,14794,14802,14834,14858" d="M230.5,135.66667C230.44284,137.314 229.7323,137.73589 229.5,138.64583C229.28473,139.48906 228.50534,139.70262 228.5,140.6095C228.49477,141.49998 227.9108,142.02328 227.55716,142.96217C227.27428,143.71324 226.6904,144.32326 226.51067,145.23067C226.34331,146.07565 225.96991,146.77689 225.58533,147.58267C225.2388,148.30875 224.68199,148.66515 224.50133,149.468C224.31659,150.28897 224.32561,151.10406 223.85266,151.71933C223.3053,152.4314 223.13052,152.98099 222.58533,153.668C222.06543,154.32314 222.40179,155.24921 221.92534,155.70267C221.34485,156.25513 221.59959,157.37332 221.14734,158.01933C220.61617,158.77808 220.53215,159.58324 220.5,160.5C220.47141,161.31551 219.58376,161.8208 219.5,162.65601C219.41129,163.54073 219.50935,164.37122 219.5,165.23067C219.48958,166.18767 218.86639,166.78951 218.52083,167.66667C218.19867,168.48441 218.5,169.38266 218.5,170.27733C218.5,171.14583 218.5,172.10266 218.5,172.96666C218.5,173.86667 218.5,174.76649 218.5,175.66667C218.5,176.468 218.5,177.36667 218.5,178.30949C218.5,179.1875 218.5,180.06667 218.5,180.96217C218.5,181.88817 218.5,182.76649 218.5,183.66667C218.5,184.468 218.5,185.38133 218.5,186.24133C218.5,187.16667 218.5,188.092 218.5,188.95067C218.5,189.888 218.5,190.75067 218.5,191.66667C218.5,192.54533 218.5,193.38266 218.5,194.27733C218.5,195.16667 218.5,196.06667 218.5,196.96666C218.5,197.86667 218.5,198.76649 218.5,199.66667C218.5,200.468 218.5,201.36667 218.5,202.26666C218.5,203.16667 218.56732,204.09897 218.27867,204.98784C218.05797,205.66747 217.52859,206.55534 217.5,207.37117C217.46863,208.26611 217.5,209.23067 217.5,210.10266C217.5,210.96666 217.77412,211.9371 217.41467,212.75067C217.07634,213.51645 216.51042,214.1665 216.5,215.14583C216.49066,216.02379 216.6888,216.9359 216.27867,217.76649C215.92929,218.47408 215.5,219.24133 215.5,220.092C215.5,221.02383 215.5,221.86534 215.5,222.83333C215.5,223.692 215.0162,224.2729 214.58533,224.95067C214.08037,225.74496 214.84666,226.8206 214.5,227.66217C214.18924,228.41655 213.5,229.01933 213.5,229.888C213.5,230.83333 213.54849,231.66795 213.5,232.58133C213.45728,233.38606 212.52859,233.66977 212.5,234.54517C212.47266,235.38222 212.63065,236.31502 212.14734,237.01933C211.62508,237.78043 211.5,238.54533 211.5,239.38266C211.5,240.314 210.72244,240.61241 210.50133,241.38266C210.2644,242.20799 210.6635,243.24707 210.216,243.95067C209.73735,244.70325 209.92148,245.51378 209.464,246.24133C208.98297,247.00635 208.88907,247.39957 208.5,248.24133C208.22459,248.8372 207.7505,249.05403 207.49867,249.95067C207.28349,250.7168 207.464,250.66667 208.33333,250.66667C209.216,250.66667 210.07466,250.66667 211,250.66667C211.85266,250.66667 212.93076,250.93283 213.50017,250.44533C214.11015,249.9231 214.72133,249.66667 215.66667,249.66667C216.52533,249.66667 217.41467,249.66667 218.33333,249.66667C219.14734,249.66667 220.07466,249.66667 220.92534,249.66667C221.85266,249.66667 222.72133,249.66667 223.66667,249.66667C224.536,249.66667 225.41467,249.66667 226.33333,249.66667C227.14734,249.66667 228.07466,249.66667 228.92534,249.66667C229.85266,249.66667 230.72133,249.66667 231.66667,249.66667C232.536,249.66667 233.38132,249.62476 234,249.16667C234.74731,248.61336 235.73921,248.98018 236.536,248.63066C237.32773,248.28336 237.92908,247.74667 238.784,247.66667C239.67836,247.58298 240.32341,247.14563 241,246.64583C241.64247,246.17123 241.49794,245.092 241.5,244.24133C241.50226,243.31398 242.22035,242.87195 242.5,242.314C242.9173,241.48138 242.79909,240.6062 243.216,239.95067C243.6635,239.24707 243.51418,238.24481 244.07466,237.67734C244.50269,237.24397 244.45221,236.26883 245,235.6875C245.45956,235.19978 245.36931,234.27972 245.92534,233.70267C246.40671,233.20308 247.06003,232.93343 247.464,232.24133C247.89728,231.49905 248.17426,230.92653 248.5,230.314C248.9373,229.49171 249.16998,228.86459 249.47917,228.16667C249.85838,227.31067 249.42696,226.3165 249.92534,225.692C250.41052,225.08403 250.36211,224.17589 250.5045,223.30949C250.64832,222.43454 251.43909,221.79466 251.5,220.96217C251.56273,220.10495 251.59396,219.23433 252.07466,218.64133C252.58501,218.01176 252.49515,217.01932 252.5,216.16667C252.50534,215.23062 253.03067,214.62523 253.41467,213.75067C253.73811,213.01401 253.5,212.056 253.5,211.10266C253.5,210.23067 253.43889,209.32582 253.92534,208.692C254.4267,208.03876 254.49796,207.16667 254.5,206.30949C254.50226,205.36665 254.82613,204.63 255.216,203.86667C255.60054,203.11378 255.49774,202.16667 255.5,201.26666C255.50226,200.36665 255.99576,199.60614 256.37851,198.78799C256.70828,198.08311 256.13095,197.0061 256.52084,196.16667C256.83218,195.49641 257.37491,195.15817 257.5,194.24133C257.61169,193.42271 258.43909,192.79457 258.5,191.95067C258.5618,191.09422 258.22873,190.12086 258.50449,189.314C258.7681,188.54259 259.49774,188.01935 259.5,187.16667C259.50244,186.24133 259.25659,185.13733 259.784,184.66667C260.34317,184.16768 260.5,183.58133 260.5,182.67734C260.5,181.78816 260.49033,180.95061 260.5,180.092C260.51044,179.16649 261.12637,178.65585 261.5,178.16667C261.90341,177.63852 262.36115,176.89627 262.92532,176.66667C263.78424,176.31711 264.13492,177.20003 264.72134,177.66667C265.33228,178.1528 265.91064,178.20268 266.5,178.752C267.14127,179.34969 267.58533,179.752 268.14734,180.314C268.85266,181.01932 269.71201,181.25121 270.33334,181.83333C270.95987,182.42032 271.04578,182.90082 271.66666,183.5C272.26669,184.07904 272.50009,184.5947 273.33334,184.66667C274.1463,184.73689 274.53497,185.41487 275.216,185.66667C275.99173,185.95348 276.67383,186.55531 277.53601,186.66667C278.39993,186.77826 278.55716,187.66658 279.47467,187.66667C280.37851,187.66676 280.55881,188.47707 281.41467,188.66667C282.20145,188.84097 282.49942,189.64867 283.33334,189.66667C284.21579,189.68573 285.07468,189.66667 285.52084,190.16667L286.14734,190.66217L287,190.66667L287.92532,190.66667" id="svg_3" stroke-width="3" stroke="#000" fill="none"/>
  <path t="17968,18199,18214,18239,18255,18279,18303,18327,18343,18368,18392,18425,18436,18448,18464,18490,18530,18586,18606,18627,18659,18671,18723,18755,18789,18813,18837,18845,18860,18870,18876,18893,18909,18921,18938,18942,18949,18958,18966,18977,18982,18982,18993,18998,19007,19014,19022,19022,19030,19040,19046,19055,19062,19073,19079,19090,19094,19107,19111,19126,19143,19153,19171,19176,19186,19186,19191,19203,19208,19215,19223,19240,19248,19256,19263,19273,19280,19289,19308,19312,19328,19337,19353,19361,19370,19387,19402,19420,19425,19441,19453,19461,19469,19474,19482,19499,19507,19514,19525,19530,19540,19546,19562,19571,19587,19595,19611,19620,19636,19654,19671,19687,19692,19716,19727,19741,19765,19777,19792,19813,19846,19871,19894,19910,19926,19958,19983,20015,20048,20079,20104,20153,20234,20592,20613,20621,20628,20638,20645,20655,20661,20661,20670,20688,20693,20706,20723,20727,20738,20742,20753,20758,20770,20782,20791,20807,20823,20831,20846,20859,20872,20879,20888,20905,20911,20927,20947,20960,20971,20987,20992,21008,21020,21025,21041,21057,21065,21077,21090,21097,21113,21122,21138,21145,21154,21173,21178,21190,21194,21210,21222,21238,21242,21259,21270,21275,21294,21299,21310,21315,21324,21331,21340,21348,21356,21364,21380,21389,21396,21405,21412,21421,21431,21431,21444,21456,21471,21489,21489,21509,21525,21550,21574,21594,21615,21631,21639,21655,21671,21703,21743,21793,21857,22188,22196,22196,22206,22211,22222,22228,22238,22238,22254,22260,22271,22276,22288,22292,22317,22328,22341,22358,22377,22381,22406,22422,22454,22478,22487,22498,22522,22522,22530,22537,22559,22576,22600,22624,22637,22648,22673,22680,22696,22721,22745,22786,22818,22826,22878,22882,22918,22922,22939,22956,22975,22988,22996,23015,23019,23028,23044,23060,23072,23079,23086,23104,23120,23124,23136,23140,23149,23157,23165,23182,23193,23207,23213,23230,23238,23255,23262,23270,23295,23303,23326,23337,23354,23359,23370,23386,23391,23403,23416,23424,23440,23449,23464,23472,23480,23489,23505,23513,23521,23529,23545,23569,23593,23618,23637,23658,23691,23725,23739,23771,23788,23811,23836,23854,23859,23876,23901,23920,23924,23933,23941,23964,23981,24006,24022,24353,24372,24376,24388,24396,24404,24420,24425,24441,24454,24465,24476,24482,24498,24506,24522,24537,24547,24563,24579,24587,24605,24611,24631,24644,24654,24671,24687,24700,24725,24752,24765,24789,24813,24821,24829,24854,24862,24877,24893,24919,24938,24974,25007,25040,25072,25096,25120,25139,25160,25177,25193,25217,25224,25250,25257,25266,25282,25290,25297,25314,25330,25346,25371,25390,25405,25422,25439,25443,25459,25467,25492,25499,25516,25524,25532,25548,25565,25581,25597,25605,25622,25639,25655,25686,25718,25743,25775,25783,25839,25847,25896,25912,25961,25992,26017,26041,26057,26082,26098,26114,26138,26157,26172,26194,26210,26234,26242,26276,26283,26324,26331,26364,26424,26439" d="M251.5,224.66667C251.5,226.314 251.5,227.24133 251.5,228.092C251.5,229.01933 251.5,229.888 251.5,230.83333C251.5,231.6875 251.54192,232.54797 252,233.16667C252.55331,233.914 251.9715,235.09726 252.58533,235.66533C253.24155,236.27263 253.28621,236.61038 253.5,237.38266C253.72067,238.17976 253.93359,239.08972 254.536,239.66667C255.19092,240.29391 255.48566,240.58279 256.216,240.66667C257.06906,240.76465 258,240.66667 258.92532,240.66667C259.784,240.66667 260.72134,240.66667 261.58401,240.66667C262.5,240.66667 263.37866,240.66667 264.216,240.66667C265.07468,240.66667 266.02084,240.66667 266.88934,240.66667C267.78534,240.66667 268.70001,240.66667 269.60001,240.66667C270.5,240.66667 271.37866,240.66667 272.14667,240.66667C273.15268,240.66667 273.84732,240.66667 274.86401,240.66667C275.79999,240.66667 276.70001,240.66667 277.60001,240.66667C278.5,240.66667 279.29999,240.66667 280.20001,240.66667C281.10001,240.66667 282,240.66667 282.89999,240.66667C283.79999,240.66667 284.70001,240.66667 285.60001,240.66667C286.5,240.66667 287.37866,240.66667 288.2045,240.66667C289.064,240.66667 290,240.66667 290.85718,240.66667C291.7955,240.66667 292.7215,240.66667 293.60001,240.66667C294.5,240.66667 295.29999,240.66667 296.20001,240.66667C297.10001,240.66667 298,240.66667 298.89999,240.66667C299.7955,240.66667 300.7215,240.66667 301.60001,240.66667C302.5,240.66667 303.37866,240.66667 304.2045,240.66667C305.10001,240.66667 305.97916,240.66667 306.85718,240.66667C307.7955,240.66667 308.72134,240.66667 309.58401,240.66667C310.47467,240.66667 311.30133,240.66667 312.21466,240.66667C313.07468,240.66667 314,240.66667 314.85718,240.66667C315.7955,240.66667 316.7215,240.66667 317.59982,240.66667C318.47467,240.66667 319.33716,240.86716 320.20001,240.6095C321.05875,240.35307 321.7215,239.66667 322.60001,239.66667C323.5,239.66667 324.37866,239.66667 325.2045,239.66667C326.10001,239.66667 326.97916,239.66667 327.936,239.66667C328.7955,239.66667 329.72134,239.66667 330.58401,239.66667C331.5,239.66667 332.37851,239.66667 333.216,239.66667C334.07468,239.66667 335,239.66667 335.936,239.66667C336.7955,239.66667 337.72134,239.66667 338.58401,239.66667C339.49866,239.66667 340.37866,239.66667 341.216,239.66667C342.07468,239.66667 343,239.66667 343.92532,239.66667C344.784,239.66667 345.72134,239.66667 346.58533,239.66667C347.49866,239.66667 348.37851,239.66667 349.216,239.66667C350.07468,239.66667 351,239.66667 351.92532,239.66667C352.784,239.66667 353.72134,239.66667 354.58533,239.66667C355.49866,239.66667 355.5,238.78799 355.5,237.96217C355.5,237.06667 355.64206,236.15367 355.48932,235.26666C355.34586,234.43352 354.58502,233.67928 354.50134,232.86667C354.40765,231.9568 354.5,231.056 354.5,230.16667C354.5,229.27733 354.5,228.38133 354.5,227.46666C354.5,226.56683 354.5,225.71933 354.5,224.86534C354.5,223.96666 354.5,223.10266 354.5,222.23067C354.5,221.27733 354.5,220.38266 354.5,219.5C354.5,218.614 354.58362,217.78304 355.07468,217.092C355.59055,216.366 355.48993,215.46794 355.5,214.58267C355.51044,213.66649 356.28052,213.17307 356.5,212.314C356.73056,211.41165 356.38434,210.49242 356.5,209.614C356.61163,208.76617 357.27722,208.28687 357.50015,207.44533C357.70682,206.66518 358.38354,206.15894 358.5,205.314C358.62241,204.42596 359.22858,203.80463 359.5,203.01933C359.75763,202.27402 360.21808,201.48082 360.72134,200.78799C361.2287,200.08954 361.36426,199.36182 361.85266,198.71933C362.35825,198.05426 362.96054,197.48738 363.33334,196.66667C363.68481,195.89291 364.31027,195.60779 364.5,194.75067C364.67389,193.96515 365.03763,193.25708 365.58533,192.668C366.18283,192.02536 365.99072,191.36734 366.55716,190.67117C367.09479,190.01039 367.25574,189.43452 367.784,188.75067C368.26871,188.12317 368.33862,187.30188 368.72134,186.56683C369.16251,185.71953 369.45056,185.00705 369.92532,184.27733C370.41653,183.52235 370.46964,182.66615 370.5,181.78799C370.52859,180.96069 371.18555,180.24411 371.44284,179.36667C371.69662,178.50121 371.74139,177.71631 372.14734,177.02383C372.58633,176.27498 372.41666,175.27344 372.5,174.38266C372.58368,173.48831 373.35583,172.98796 373.5,172.16667C373.65997,171.25526 373.5,170.314 373.5,169.44533C373.5,168.58133 373.08868,167.45035 373.66666,166.83333C374.2536,166.20674 374.5,165.71933 374.5,164.83333C374.5,163.95067 374.5,163.092 374.5,162.16667C374.5,161.314 374.6377,160.33034 374.27866,159.56667C373.91397,158.79097 373.50842,158.04887 373.07468,157.26666C372.6199,156.44652 372.70029,155.50517 372.33334,154.66667C372.01154,153.93132 371.50064,153.23067 371.5,152.36667C371.49933,151.468 370.88843,150.92946 370.53601,150.23067C370.10641,149.37885 370.5,148.38133 370.5,147.468C370.5,146.6095 370.5,145.71933 370.5,144.83333C370.5,143.95067 370.5,143.092 370.5,142.16667C370.5,141.314 370.5,140.38133 370.5,139.468C370.5,138.614 370.5,137.66667 370.5,136.86667C370.5,135.96666 370.5,135.10266 370.5,134.16667C370.5,133.314 370.5,132.38266 370.5,131.5C370.5,130.614 371.00241,129.54279 370.5,128.83333C370.06131,128.21387 369.5,127.752 369.5,126.83334C369.5,126.01933 369.50269,125.08936 369.07468,124.656C368.51419,124.08852 367.86029,123.50706 367.51068,122.67733C367.16541,121.85788 367.21259,121.27553 366.49551,120.72383C365.8013,120.18973 365.17471,120.31483 364.58533,119.66534C364.09155,119.12122 363.73376,118.35797 363.14734,117.71933C362.62247,117.14773 362.03268,116.8477 361.49866,116.38267C360.88748,115.85046 360.47659,115.08887 359.784,114.668C359.0766,114.23813 358.2739,113.95567 357.5,113.64584C356.73465,113.33942 356.05283,112.95187 355.2045,112.66217C354.3894,112.38382 353.97025,111.63429 353.47916,111.16666C352.9007,110.61584 352.06259,110.49228 351.44733,110.01933C350.73526,109.47197 350.18457,109.29859 349.49866,108.752C348.86948,108.2506 347.85718,108.66666 346.97916,108.66666C346.02084,108.66666 345.14282,108.66666 344.2045,108.66666C343.33334,108.66666 342.40018,108.66666 341.55267,108.66666C340.66666,108.66666 339.7955,108.66666 338.936,108.66666C338.064,108.66666 337.11066,108.66666 336.21466,108.66666C335.30133,108.66666 334.40683,108.5079 333.69867,108.752C332.81314,109.05723 332.05383,109.34267 331.14734,109.67117C330.38089,109.94891 329.8894,110.66133 329.02084,110.66666C328.07471,110.67247 327.216,110.66666 326.27866,110.66666C325.44284,110.66666 324.5921,110.5822 323.92532,110.092C323.21094,109.5668 322.27866,109.66666 321.41467,109.66666C320.49551,109.66666 319.62149,109.66666 318.784,109.66666C317.85266,109.66666 317.10275,109.78474 316.50449,110.314C315.99661,110.7633 314.95419,110.39543 314.14734,110.67117C313.37592,110.93478 312.88937,111.66133 311.936,111.66666C311.07468,111.67149 310.14252,111.57524 309.27866,111.66666C308.48679,111.75047 308.2189,112.62395 307.2785,112.66666C306.40109,112.70651 305.52533,112.66666 304.69867,112.66666C303.78534,112.66666 302.88934,112.66666 302.02084,112.66666C301.14282,112.66666 300.2045,112.66666 299.2785,112.66666C298.40018,112.66666 297.52084,112.66666 296.69867,112.66666C295.78534,112.66666 294.88934,112.66666 294.02084,112.66666C293.07468,112.66666 292.216,112.66666 291.27866,112.66666C290.41599,112.66666 289.89322,113.17486 289.14734,113.6095C288.39517,114.04781 287.33334,113.66666 286.47467,113.66666C285.58401,113.66666 284.66666,113.66666 283.85266,113.66666C282.92532,113.66666 282.07468,113.66666 281.14734,113.66666C280.27866,113.66666 279.22433,113.46883 278.58401,113.95067C277.90515,114.46152 277.21466,114.66666 276.30133,114.66666C275.44284,114.66666 274.52084,114.66666 273.62134,114.66666C272.784,114.66666 271.92532,114.66666 271,114.66666C270.07468,114.66666 269.216,114.66666 268.27866,114.66666C267.44284,114.66666 266.52084,114.66666 265.62149,114.66666C264.784,114.66666 263.92532,114.66666 262.97916,114.66666C262.11066,114.66666 261.21466,114.66666 260.30133,114.66666C259.41599,114.66666 258.5,114.66666 257.62134,114.66666C256.784,114.66666 255.92534,114.66666 255,114.66666C254.07466,114.66666 253.216,114.66666 252.27867,114.66666C251.44284,114.66666 250.52533,114.66666 249.62134,114.66666C248.784,114.66666 247.88933,114.66666 247.02083,114.66666C246.14284,114.66666 245.061,114.92557 244.49983,114.44534C243.88821,113.92194 243.30133,113.66666 242.33333,113.66666C241.464,113.66666 240.5072,113.94684 239.66667,113.66666C238.8761,113.40314 238.27867,112.66666 237.41467,112.66666C236.5045,112.66666 235.63895,112.64418 235,112.16666C234.29697,111.64125 233.50359,111.4754 232.85266,111.01933C232.14943,110.52663 231.50845,110.09465 231,109.66666C230.4978,109.24393 229.97066,108.9101 229.5,108.38267C229.00102,107.8235 228.2408,108.24264 227.52083,107.66666C226.85384,107.13307 226.48933,106.66666 225.62151,106.66666C224.784,106.66666 224.40009,106.10131 223.66667,105.66666C222.94977,105.2418 222.20546,104.95634 221.44284,104.6095C220.68309,104.26397 220.09332,103.6367 219.51067,103.092C219.0153,102.62891 218.51067,102.092 218,101.66666L217.07466,101.66666L216.5,101.314" id="svg_4" stroke-width="3" stroke="#000" fill="none"/>
  <path t="28442,28768,28792,28809,28824,28848,28864,28876,28891,28908,28938,28945,28978,29010,29043,29059,29091,29148" d="M257.5,127.66666C257.5,126.78817 257.86365,126.34845 258.41467,125.66666C258.86792,125.10587 259.2905,124.65971 259.5,123.83334C259.70053,123.04235 260.08075,122.54366 260.5,121.95067C260.87973,121.41357 261.28537,120.9256 261.5,120.01933C261.68173,119.25198 262.5,118.63067 262.5,117.72383L263,117.16666L263.5,116.38267" id="svg_5" stroke-width="3" stroke="#000" fill="none"/>
  <path t="29904,30125,30133,30149,30164,30189,30209,30229,30254,30276,30294,30311,30343,30424" d="M248.5,115.66666C248.5,116.54533 248.5,117.38267 248.5,118.24133C248.5,119.16666 248.5,120.092 248.5,120.95067C248.5,121.888 248.5,122.752 248.5,123.66534C248.5,124.54517 248.5,125.38267 248.5,126.24133L248.5,127.16666" id="svg_6" stroke-width="3" stroke="#000" fill="none"/>
  <path t="33142,33388,33399,33404,33414,33431,33436,33436,33447,33452,33464,33484,33488,33488,33492,33509,33520,33524,33541,33552,33557,33573,33582,33589,33598,33605,33615,33631,33637,33648,33653,33665,33682,33687,33697,33718,33727,33742,33758,33776,33802,33832,33849,33860,33881,33905,33937,33954,34010,34035,34091,34155,34196,34236,34269,34390,34416,34437,34448,34464,34469,34480,34497,34511,34535,34552,34672,34688,34801,34808,34866,34882,34915,34938,34954,35067,35141,35198,35230,35253,35264,35281,35295,35303,35319,35326,35342,35353,35367,35374,35383,35399,35418,35423,35432,35448,35465,35483,35503,35529,35548,35554,35577,35602,35617,35633,35650,35673,35714,35738,35766,35782,35804,35819,35836,35842,35876,35901,35907,35933,35964,35992,36056" d="M273.5,140.66667C274.5,140.66667 275.45261,140.58176 276.064,141.27733C276.64194,141.93483 276.94412,142.48547 277.69867,142.952C278.31934,143.33575 278.6026,144.34727 279.30133,144.75067C280.0867,145.2041 280.31882,146.11078 280.78534,146.86534C281.1691,147.48601 281.9595,147.98451 282.66666,148.5C283.37961,149.01971 284.14734,149.314 284.784,149.95067C285.41599,150.58267 286,151.16667 286.66666,151.83333C287.33334,152.5 288.17606,152.59285 288.88934,153.092C289.63739,153.61545 290.20779,154.20573 290.92532,154.67734C291.56747,155.09941 291.73788,156.15984 292.59982,156.54517C293.4245,156.91383 293.80508,157.31868 294.55267,157.72383C295.28928,158.12303 295.61804,159.17609 296.44284,159.6095C297.13879,159.9752 297.56546,160.36111 298.37851,160.66667C299.12518,160.94728 300.01407,161.28169 300.5,161.83333C301.05283,162.46092 301.07416,162.89694 301.66666,163.5C302.27957,164.12381 303.05695,164.27553 303.85266,164.66667C304.48706,164.97852 304.72134,165.66667 305.58533,165.66667C306.49551,165.66667 306.49249,166.6057 307.216,166.66667C308.14404,166.74487 308.36435,166.02119 308.784,165.38266C309.29745,164.60136 309.91684,164.11177 310.37851,163.44533C310.8746,162.7292 311.05688,162.08592 311.5,161.44533C311.9639,160.77467 312.01797,159.94456 312.51068,159.24133C312.96835,158.5881 313.5369,158.26639 314.07468,157.67734C314.52277,157.18652 315.0842,156.87054 315.5,156.38266C315.98611,155.81229 316.5,155.5 316.5,154.64583C316.5,153.752 316.10864,152.92709 315.216,152.66667C314.36865,152.41946 313.25339,153.02127 312.62149,152.44533C312.00787,151.88603 311.5,151.66667 310.58401,151.66667C309.784,151.66667 308.80832,152.05125 307.936,151.66667C307.31628,151.39345 306.8894,150.67201 306.02084,150.66667C305.07471,150.66086 304.4288,150.24345 303.66666,149.83333C302.935,149.43961 301.92532,149.66667 301.07468,149.66667C300.14734,149.66667 299.27859,149.67821 298.33334,149.66667C297.47897,149.65625 297.00641,148.88617 296.14734,148.66667C295.245,148.43611 294.33334,148.66667 293.44284,148.66667C292.53601,148.66667 292.01309,147.88733 291.216,147.66667C290.31262,147.4166 289.41467,147.66667 288.51068,147.66667C287.62149,147.66667 287.45001,146.81062 286.58401,146.66667C285.79483,146.53549 284.91434,146.61403 284.47916,146.16667C283.92218,145.59413 282.92532,145.66667 282.07468,145.66667L281.14734,145.66667L280.216,145.66667" id="svg_7" stroke-width="3" stroke="#000" fill="none"/>
  <path t="40538,40790,40801,40806,40822,40839,40846,40863,40871,40888,40895,40904,40911,40927,40936,40952,40952,40960,40977,40992,41008,41019,41035,41039,41051,41056,41072,41083,41088,41105,41113,41129,41137,41145,41161,41169,41193,41218,41235,41266,41315,41364,41379,41396,41420,41452,41468,41485,41502,41508,41520,41536,41552,41560,41573,41589,41608,41613,41622,41629,41638,41654,41671,41678,41686,41702,41727,41735,41755,41774,41791,41807,41832,41840,41872,41896,41904,41912,41929,41945,41961,41977,41993,42017,42036,42053,42068,42085,42101,42106,42123,42130,42147,42163,42179,42195,42203,42219,42236,42243,42259,42268,42286,42291,42316,42325,42334,42340,42356,42368,42381,42397,42405,42421,42438,42457,42478,42486,42527,42534,42559,42599,42607,42648,42680,42712,42809,42817,43318,43333,43358,43366,43383,43401,43406,43431,43439,43463,43483,43487,43507,43523,43536,43568,43582,43596,43600,43624,43632,43649,43673,43681,43689,43714,43730,43757,43762,43769,43786,43798,43814,43822,43829,43849,43859,43875,43891,43907,43919,43932,43959,43963,43981,43992,44004,44020,44036,44061,44072,44084,44101,44117,44132,44152,44166,44185,44198,44213,44222,44247,44266,44287,44303,44314,44344,44363,44375,44393,44408,44416,44425,44449,44457,44481,44505,44514,44537,44548,44565,44585,44603,44618,44643,44667,44699,44715,44732,44771,44787,44820,44853,44900,44950,44990,45111,45135,45184,45236,45273,45314,45332,45349,45369,45401,45426,45442,45450,45466,45483,45507,45522,45539,45564,45571,45587,45603,45619,45636,45652,45660,45679,45693,45701,45708,45725,45741,45765,45773,45783,45800,45805,45821,45849,45870,45882,45902,45918,45943,45951,45967,45992,46015,46023,46035,46049,46056,46072,46082,46088,46099,46116,46120,46132,46137,46148,46152,46178,46185,46193,46218,46234,46251,46282,46307,46315,46380,46412,46541,46630,46670,46751,46872" d="M355.5,239.66667C356.37866,239.66667 357.2045,239.66667 358.14282,239.66667C359,239.66667 359.936,239.66667 360.7955,239.66667C361.72134,239.66667 362.58401,239.66667 363.5,239.66667C364.37866,239.66667 365.2045,239.66667 366.14282,239.66667C367.02084,239.66667 367.95895,239.84535 368.7215,239.44533C369.39642,239.09126 370.21466,238.66734 371.14734,238.66667C372,238.66606 372.936,238.66667 373.7955,238.66667C374.7215,238.66667 375.7334,238.91252 376.41599,238.38266C377.04034,237.89799 377.78534,237.66667 378.69867,237.66667C379.55267,237.66667 380.10678,237.15846 380.85266,236.72383C381.60498,236.28545 382.60422,236.75537 383.5,236.66667C384.3457,236.58293 384.78091,235.70938 385.66666,235.66667C386.55612,235.62378 387.38916,235.60144 388.07468,235.092C388.73849,234.59868 389.90286,235.0883 390.5,234.58133C391.12775,234.04837 391.58533,233.66667 392.51068,233.66667C393.41467,233.66667 393.89151,232.92706 394.78534,232.66667C395.66223,232.41122 396.55267,232.66667 397.44733,232.66667C398.33334,232.66667 399.14734,232.66667 400.07468,232.66667C401,232.66667 401.85855,232.71722 402.7955,232.66667C403.58746,232.62393 404.15649,231.85661 405.064,231.67734C405.9823,231.49591 406.85266,231.66217 407.5,231.16667C408.14734,230.67117 409.07245,231.01506 409.92532,230.65601C410.66046,230.34653 411.0264,229.87715 411.85266,229.66667C412.56702,229.4847 412.85822,228.92876 413.58533,228.58133C414.30246,228.23868 414.33685,227.0865 414.784,226.38266C415.26276,225.62903 415.5,224.95067 415.5,224.01933C415.5,223.16667 415.5,222.24133 415.5,221.314C415.5,220.44533 415.5,219.58133 415.5,218.66667C415.5,217.78816 415.93671,216.84193 415.5,216.01933C415.17468,215.40657 414.86523,214.85208 414.46399,214.092C414.06738,213.34067 413.91397,212.6368 413.5,211.95067C413.12198,211.32413 412.93256,210.6676 412.5,209.95067C412.12198,209.32413 411.70151,208.808 411.5,208.01933C411.28052,207.16026 410.76578,206.45418 410.27866,205.78799C409.7691,205.09116 409.33334,204.50002 408.66666,203.83333C408.07468,203.24133 407.83221,202.51218 407.47916,201.66667C407.1716,200.93019 406.75558,200.27786 406.49866,199.38266C406.27759,198.61241 405.74341,198.13733 405.216,197.66667C404.65683,197.16768 404.3316,196.70288 403.85266,196.01933C403.35995,195.3161 402.81641,194.76181 402.5,194.24133C402.03021,193.46851 401.99716,192.6355 401.5,191.95067C401.12341,191.43193 400.66351,191.08627 400.216,190.38266C399.71597,189.59647 399.83566,189.34335 400.46399,188.66667C401.04758,188.03821 401.06519,187.39125 401.72134,186.78816C402.33224,186.22667 403.03992,185.95944 403.51068,185.24133C403.91586,184.62328 404.40335,184.17004 404.85266,183.66217C405.38193,183.06392 405.30963,182.16519 405.85266,181.66667C406.37338,181.18861 406.23019,180.32945 406.784,179.752C407.32315,179.18983 407.15015,178.51175 407.50449,177.66217C407.81488,176.91795 408.27612,176.28635 408.50134,175.38266C408.68286,174.65431 409.48956,174.16685 409.5,173.24133C409.50967,172.38272 409.5,171.44516 409.5,170.56683C409.5,169.67117 409.02878,168.73441 409.5,167.952C409.87784,167.32463 410.49933,166.86534 410.5,166.02383C410.50073,165.092 410.5,164.16667 410.5,163.314C410.5,162.38266 410.5,161.5 410.5,160.614C410.5,159.72383 410.91534,158.6846 410.44284,158.01933C409.9252,157.29053 409.9548,156.83206 409.5,156.01933C409.17072,155.43094 408.66351,155.08627 408.216,154.38266C407.73737,153.63008 407.10892,153.3792 406.55716,152.66217C406.02301,151.96802 405.97519,151.52138 405.44284,151.01933C404.8226,150.4344 404.20703,150.32608 403.66666,149.66667C403.20068,149.09807 402.95255,148.58458 402.46399,148.092C401.94135,147.56505 401.45956,147.13353 401,146.64583C400.45221,146.0645 399.92532,145.66667 399.5,145.16667C399.07468,144.66667 398.68103,144.19934 398.216,143.66533C397.68378,143.05415 396.98468,142.70444 396.48932,142.24133C395.90668,141.69664 395.59665,141.17004 395.14734,140.66217C394.61807,140.06392 394.10217,139.71446 393.52084,139.16667C393.03314,138.70711 392.54779,138.26883 392,137.6875C391.54044,137.1998 391.00583,136.99831 390.5,136.44533C389.96252,135.85779 389.93796,135.3797 389.27866,134.78816C388.64999,134.22412 388.05331,134.15782 387.41467,133.66667C386.69318,133.1118 385.44321,134.10489 384.784,133.58133C384.09756,133.03613 383.64383,132.71771 383.5,133.6095C383.35822,134.48863 383.5,135.314 383.5,136.24133C383.5,137.16667 382.82928,137.43094 382.5,138.01933C382.07578,138.77737 382.5,139.83333 382.5,140.6875C382.5,141.58267 382.5,142.38266 382.5,143.314C382.5,144.16667 382.5,145.092 382.5,146.01933C382.5,146.888 382.5,147.83333 382.5,148.66667C382.5,149.58133 382.5,150.38266 382.5,151.314C382.5,152.16667 383.17984,152.50621 383.48932,153.24133C383.84839,154.09424 383.52579,155.07947 384,155.66667C384.51218,156.30089 384.38501,157.24915 384.5,158.092C384.61169,158.91061 385.42142,159.54022 385.5,160.38266C385.5798,161.23837 386.35492,161.62091 386.5,162.314C386.69,163.22166 387.11667,163.83894 387.46399,164.63066C387.81354,165.42744 387.07004,166.43877 387.53601,167.24133C387.93839,167.93434 388.5,168.314 388.5,169.16667C388.5,170.092 388.96115,170.71477 389.37851,171.54517C389.75342,172.29114 389.36859,173.30376 389.85266,174.01933C390.35742,174.7655 390.48166,175.46819 390.5,176.38133C390.51801,177.27788 391.08688,177.9879 391.41467,178.86534C391.71765,179.67639 392.16394,180.36427 392.47916,181.14583C392.80109,181.94398 393.43268,182.58096 393.5,183.38266C393.57809,184.31247 394.41602,184.65086 394.5,185.314C394.61652,186.23398 394.9653,186.72021 395.48932,187.24133C395.97015,187.71951 396.51279,188.2905 397,188.66667C397.51959,189.06784 397.85266,189.66667 398.5,189.888L398.66666,190.66667" id="svg_8" stroke-width="3" stroke="#000" fill="none"/>
  <path t="52083,52321,52352,52377,52393,52408,52425,52448,52449,52465,52481,52501,52514,52522,52530,52546,52562,52586,52595,52613,52635,52646,52663,52678,52699,52724,52732,52772,52800,52877,52959,52976,53088,53185,53201,53250,53257,53307,53313,53347,53354,53370,53386,53402,53418,53430,53446,53467,53484,53524,53565,53589" d="M384.5,132.66667C384.5,131.78816 384.5,130.95067 384.5,130.092C384.5,129.16667 384.58002,128.23759 384.5,127.38267C384.41632,126.48831 383.64383,125.9849 383.5,125.092C383.36472,124.25216 383.72708,123.23167 383.33334,122.5C382.88657,121.66975 382.5,121.092 382.5,120.16666C382.5,119.24133 382.07678,118.59549 381.66666,117.83334C381.27292,117.10165 380.85831,116.4998 380.51068,115.64133C380.16629,114.79086 379.83722,114.13788 379.5,113.38267C379.1944,112.69821 378.72379,112.28659 378.49985,111.44534C378.29327,110.66935 377.19946,110.3807 376.41467,110.752C375.69623,111.09192 375.56955,112.22324 375.14734,112.67117C374.59946,113.25241 373.9436,113.56049 373.52084,114.16666C373.03964,114.85662 372.36618,115.14922 371.66666,115.66666C371.05643,116.11807 370.90973,116.83795 370.41467,117.38267C369.82425,118.03232 368.96967,117.81711 368.5,118.38267C368.0484,118.92649 367.47916,119.16666 366.85266,119.66217L366.07468,120.092L365.44284,120.66666L364.62149,120.888" id="svg_9" stroke-width="3" stroke="#000" fill="none"/>
  <path t="54807,55041,55045,55054,55082,55105,55127,55162,55166,55187,55199,55216,55248,55280,55300,55306,55324,55349,55368,55379,55385,55409,55417,55442,55467,55473,55498,55531,55538,55563,55581,55598,55619,55635,55651,55668,55684,55701,55719,55724,55741,55773,55789,55808,55833,55853,55889,55913,55930,55959,55983,55999,56015,56042,56075,56099,56129,56161,56185,56201,56218,56233,56250,56257,56274,56290,56306,56322,56338,56347,56365,56382,56398,56415,56419,56429,56447,56460,56475,56484,56502,56505,56518,56523,56540,56556,56564,56583,56599,56604,56621,56632,56649,56665,56669,56686,56710,56720,56735,56751,56759,56792,56823,56848,56871,56887,56913,56961,57002,57058,57147,57196" d="M376.5,108.66666C376.5,107.788 376.5,106.96217 376.5,106.02383C376.5,105.16666 376.5,104.24133 376.5,103.38267C376.5,102.44534 376.5,101.58266 376.5,100.692C376.5,99.78817 376.5,98.95067 376.5,98.092C376.5,97.16666 376.4631,96.26638 375.92532,95.67733C375.47723,95.18652 375.72208,94.2244 375.27866,93.44534C374.85052,92.69315 374.89178,91.99517 374.47916,91.16666C374.12308,90.45167 373.63672,90.02048 373.216,89.38267C372.68649,88.57992 371.92532,88.092 371.27866,87.44534C370.66666,86.83334 370.15305,86.38135 369.5,85.83334C368.98795,85.40365 368.23761,84.97942 367.44284,84.66666C366.59894,84.33457 366.50644,83.72758 365.66666,83.66666C364.8548,83.60778 364.04376,83.52926 363.50449,83.01933C363.01178,82.55344 362.34146,82.01587 361.47916,81.66666C360.6507,81.33116 359.75739,81.70818 359.07468,81.24133C358.30042,80.71187 357.46399,80.66666 356.55716,80.66666C355.66666,80.66666 355.20245,80.34089 354.5,79.78817C353.92926,79.33909 352.92532,79.66666 352,79.66666C351.07468,79.66666 350.216,79.66666 349.27866,79.66666C348.44284,79.66666 347.9339,79.9215 347.33334,80.5C346.69583,81.11411 346.04214,81.16205 345.41467,81.66534C344.70889,82.23144 344.26996,82.49574 343.44284,82.66666C342.6098,82.83882 342.32645,83.55798 341.47467,83.66666C340.60034,83.77823 340.24979,84.31454 339.62149,84.888C339.00824,85.44772 338.68976,86.04456 338.07468,86.63067C337.57242,87.10927 337.06866,87.39982 336.49985,87.888C335.88742,88.41361 335.49692,89.06322 334.92532,89.656C334.45462,90.14414 333.81689,90.64185 333.5,91.24133C333.1008,91.99651 332.28278,92.20183 331.66666,92.83334C331.06439,93.45064 330.92532,94.24134 330.216,94.95067C329.62149,95.54517 328.76193,96.05032 328.5,96.888C328.24255,97.71135 327.95975,98.22935 327.5,98.83334C326.9968,99.49442 326.51801,99.67677 326.5,100.54533C326.48264,101.38248 326.5,102.314 326.5,103.16666C326.5,104.092 326.5,105.01933 326.5,105.888C326.5,106.752 326.5,107.67733 326.5,108.54517L326.5,109.38267L326.55716,110.314L327.33334,110.66666" id="svg_10" stroke-width="3" stroke="#000" fill="none"/>
  <path t="60024,60252,60268,60291,60300,60309,60325,60332,60341,60348,60359,60364,60375,60380,60397,60408,60424,60442,60454,60478,60485,60511,60527,60648,60672,60696,60712,60735,60744,60760,60784,60800,60824,60848,60874,60906,60929,60970,60995,61026,61043,61059,61100,61135,61159,61189,61212,61245,61286,61302,61366,61391,61463,61473,61536,61552,61592,61625,61698,61754" d="M218.5,122.66666C217.52533,123.66666 216.62132,123.64938 215.7955,123.66666C214.93544,123.68467 214.64816,124.49772 214.064,125.092C213.42799,125.73902 212.33621,125.35361 211.5,125.6875C210.73436,125.9932 210.09077,126.74239 209.47467,127.24133C208.84485,127.75137 207.83546,127.60974 207.11067,128.092C206.37715,128.58006 206.08153,128.90013 205.49983,129.54517C204.93596,130.17044 203.96358,129.75996 203.464,130.24133C202.88693,130.79736 202.5,130.092 202.5,129.16667C202.5,128.314 202.5,127.38267 202.5,126.44534C202.5,125.614 202.5,124.70267 202.5,123.83334C202.5,122.95067 202.5,122.092 202.5,121.16666C202.5,120.314 202.5,119.38267 202.5,118.44534C202.5,117.6095 202.73346,117.2482 203.37849,116.6665C204.00377,116.10262 204.08241,115.62136 204.5,115.092C204.87254,114.61974 205.28918,114.14196 205.85266,113.66666C206.3756,113.22556 206.85065,113.1542 207.5,112.63067C208.17813,112.08393 208.65125,111.7274 209.14734,111.01933C209.64005,110.3161 210.12572,109.72188 210.5,109.24133C210.91431,108.70939 211.5,108.38267 211.72133,107.66666L212.5,107.58134L212.72133,106.78817" id="svg_11" stroke-width="3" stroke="#000" fill="none"/>
  <path t="62587,62869,62885,62905,62929,62950,62986,62998,63015,63058,63080,63163,63224,63283,63345,63385,63426,63449,63466,63482,63510,63522,63550,63563,63579,63595,63620,63635,63660,63692,63725,63749,63796,63829,63854,63878,63918,63943,63962,63991,64022,64048,64056,64080,64112,64169,64185,64242,64443,64467,64524,64589,64613,64670,64689,64713,64750,64798,64807,64839,64864,64912,64919,64951,64968,65009,65029,65057,65090,65114,65146,65170,65197,65219,65251,65283" d="M223.5,101.66666C225.14734,101.66666 226.07466,101.66666 226.92534,101.66666C227.85266,101.66666 228.72133,101.66666 229.66667,101.66666C230.52083,101.66666 231.58864,102.08714 232.216,101.58134C232.91924,101.01437 233.416,100.68248 233.5,100.01933C233.61653,99.09936 233.5,98.16666 233.5,97.314C233.5,96.38267 233.14526,96.13992 232.5,95.6095C231.8429,95.06934 231.22726,95.00316 230.62151,94.44534C230.01074,93.8829 229.47917,93.66666 228.58533,93.66666C227.784,93.66666 227.49989,92.84708 226.66667,92.66666C225.87109,92.49439 224.92534,92.66666 224.07466,92.66666C223.14734,92.66666 222.216,92.66666 221.33333,92.66666C220.464,92.66666 219.55716,92.66666 218.66667,92.66666C217.85266,92.66666 216.92534,92.66666 216.07466,92.66666C215.14734,92.66666 214.42485,93.08258 213.66667,93.5C213.00105,93.86646 211.96518,93.4152 211.07466,93.66666C210.42578,93.84989 210.00839,94.22044 209.5,94.83334C208.9678,95.47493 208.41136,95.2462 207.784,95.752C207.08078,96.31896 206.96967,96.81712 206.5,97.38267C206.04839,97.92649 204.98015,97.6439 204.48933,98.092C203.9003,98.62979 203.66376,99.26155 203.07466,99.66666C202.39391,100.13481 201.4949,100.17589 200.85266,100.72383C200.2041,101.27716 199.93857,101.7292 199.5,102.24133C199.07303,102.73993 198.74342,103.19601 198.216,103.66666C197.65685,104.16565 197.33333,104.66666 196.5,104.70267L196.5,105.58134L195.784,105.752L195.5,106.63067" id="svg_12" stroke-width="3" stroke="#000" fill="none"/>
  <path t="66908,67267,67340,67444,67501,67549,67565,67590,67617,67624,67646,67661,67687,67703,67742,67750,67792,67815,67839,67860,67876,67892,67916,67937,67969,67977,68001,68037,68068,68098,68131,68141,68158,68187,68194,68215,68247,68260,68276,68295,68315,68357,68392,68430,68457,68543,68550,68607,68664,68683,68753,68816,68859,68890,68917,68955,68987,69008,69039,69062,69100,69107,69148,69200,69237,69253,69277,69310,69324,69350,69358,69374,69423,69430,69480,69495,69528,69591,69600,69681,69714,69778,69835,69859,69915,69948,69997,70029,70084,70093,70150,70166,70198,70214,70231,70263,70273,70303,70311,70371,70377,70416,70443,70514,71135,71142,71167,71184,71193,71215,71240,71247,71281,71305,71320,71353,71369,71385,71426,71474,71523,71717,71749,71789,71809,71821,71837,71878,71878,71927,71959,71977,71999,72048,72063,72095,72169,72201,72209,72242,72282,72314,72331,72347,72371,72395,72402,72419,72452,72483,72516,72548,72573,72589,72623,72645,72670,72702,72721,72759,72775,72799,72810,72827,72831,72847,72863,72875,72882,72892,72907,72911,72922,72938,72944,72960,72971,72988,73000,73009,73033,73041,73058,73065,73074,73090,73106,73123,73155,73155,73187,73194,73211,73227,73237,73271,73292,73299,73299,73324,73331,73357,73376,73397,73413,73422,73445,73461,73472,73493,73513,73519,73545,73550,73566,73583,73590,73607,73634,73656,73663,73744,74172,74191,74195,74208,74223,74230,74238,74245,74255,74261,74271,74279,74284,74293,74300,74309,74316,74326,74342,74349,74361,74367,74375,74381,74394,74399,74414,74422,74441,74457,74478,74478,74489,74505,74512,74527,74538,74552,74576,74583,74600,74609,74625,74641,74648,74665,74673,74692,74706,74724,74730,74757,74764,74777,74791,74808,74813,74826,74845,74850,74860,74867,74889,74897,74901,74911,74923,74941,74941,74967,75311,75327,75335,75343,75357,75362,75376,75383,75391,75408,75415,75416,75431,75440,75457,75464,75480,75496,75512,75528,75544,75555,75577,75585,75593,75617,75645,75650,75666,75682,75690,75708,75714,75723,75742,75748,75763,75773,75790,75796,75820,75840,75846,75852,75876,75884,75892,75900,75917,75933,75941,75957,75975,75992,75997,76013,76024,76040,76047,76056,76062,76072,76090,76095,76102,76119,76127,76135,76144,76150,76161,76173,76186,76192,76199,76211,76215,76226,76234,76247,76257,76266,76284,76290,76299,76311,76323,76345,76364,76369,76380,76396,76417,76450,76485,76498,76524,76563,76599,76624,76635,76668,76700,76733,76765,76789,76813" d="M195.5,104.66666C195.5,103.01933 195.5,102.092 195.5,101.24133C195.5,100.314 195.29359,99.30026 195.85266,98.72383C196.36211,98.19856 196.73735,97.70326 197.216,96.95067C197.6635,96.24706 198.05699,95.82228 198.5,95.314C198.96446,94.78111 199.18587,94.17128 199.85266,93.72383C200.57553,93.23875 201.79526,94.23917 202.5,93.656C203.14668,93.12087 203.536,92.66666 204.44284,92.66666C205.33333,92.66666 206.27209,93.09663 207.07466,92.63067C207.76768,92.22831 208.07466,91.66666 209,91.66666C209.92534,91.66666 210.784,91.66666 211.72133,91.66666C212.55267,91.66666 213.70311,92.10016 214.33333,91.5C214.94688,90.9157 215.44284,90.66666 216.33333,90.66666C217.14734,90.66666 217.38391,89.89326 218,89.66666C218.86845,89.34724 219.85316,89.69632 220.72133,89.66666C221.55862,89.63806 222.01796,88.94456 222.51067,88.24133C222.96834,87.5881 223.43047,87.11008 223.85266,86.66217C224.40054,86.08092 224.5,85.24133 224.5,84.38267C224.5,83.44534 225.07521,82.37653 224.5,81.67117C223.96236,81.01186 223.23932,81.08006 222.62151,80.44534C222.06427,79.87285 221.96152,79.42487 221.33333,78.83334C220.72949,78.26472 220.00639,77.88625 219.14734,77.66666C218.30573,77.45155 217.82161,77.07737 217.216,76.66666C216.54906,76.21436 215.73695,76.21455 215,75.64584C214.36763,75.15784 213.84969,74.80019 213.14734,74.314C212.43648,73.82192 212.09062,73.27376 211.5,72.67733C210.90051,72.07195 210.40349,71.7304 209.92534,71.092C209.39378,70.38232 208.94484,70.04846 208.5,69.44534C208.00386,68.77267 208.5,67.6875 208.5,66.78817C208.5,65.95067 207.80881,65.40015 207.5,64.58134C207.17564,63.72129 206.88742,63.15443 206.14734,62.66217C205.48225,62.21979 205.0343,61.84583 204.49867,61.38267C203.8925,60.85851 202.87949,60.88039 202.52083,60.16667C202.1378,59.40445 201.92049,58.84232 201.216,58.38267C200.46904,57.89529 200.33704,57.1225 199.55716,56.66667C198.81981,56.23568 197.93944,55.93373 197.536,55.24133C197.10333,54.49877 198.03923,53.94218 198.44284,53.314C198.94722,52.52899 198.23019,51.32946 198.784,50.752C199.32314,50.18983 199.5,49.58133 199.5,48.668C199.5,47.78817 200.35492,47.71117 200.5,47.01933C200.69034,46.11174 200.5,45.24133 200.5,44.314C200.5,43.44534 200.33331,42.66143 199.44284,42.66667C198.53595,42.672 198.53279,43.57304 198,44.16667C197.37025,44.86832 196.80058,45.39965 196.07466,46.092C195.45662,46.68146 195.05045,47.1718 194.41467,47.66667C193.69284,48.22853 193.50644,48.60576 192.66667,48.66667C191.8548,48.72556 191.55426,49.44422 190.784,49.66533C189.95866,49.90225 189.3455,50.31641 188.49867,50.66667C187.68811,51.00193 186.78394,50.65701 185.92534,50.66667C184.99982,50.67709 184.57823,51.48353 183.92534,51.66667C183.03439,51.91659 182.14734,51.66667 181.216,51.66667C180.33333,51.66667 179.44284,51.66667 178.536,51.66667C177.66667,51.66667 177.17009,51.95362 176.5,52.54517C175.94128,53.03839 175.92047,53.75531 175.41467,54.38267C174.8477,55.0859 174.31831,55.21286 173.784,55.752C173.16605,56.37553 173.54152,57.40928 173.07466,58.092C172.5452,58.86626 172.66736,59.75812 172.41467,60.468C172.11081,61.32168 171.4955,62.01933 171,62.66667C170.5045,63.314 170.60512,64.2546 170.14734,64.96217C169.61945,65.7781 168.89085,66.22345 168.5,67.01933C168.18787,67.65494 167.81935,68.14945 167.4955,69.01933C167.21681,69.7679 165.96991,69.77689 165.58533,70.58266C165.23878,71.30875 164.93465,71.76659 164.5,72.5C164.07513,73.2169 163.33333,73.83334 162.784,74.38267C162.14734,75.01933 162.1073,75.96283 161.4955,76.6095C160.89355,77.24574 160.54152,77.40928 160.07466,78.092C159.54521,78.86626 159.37717,79.7019 158.85266,80.3095C158.19878,81.06698 157.80873,81.70023 157.5,82.54517C157.22624,83.29438 156.78969,83.96122 156.44284,84.72383C156.09731,85.48358 155.80214,86.14416 155.4955,87.01933C155.23137,87.77316 154.67917,88.13236 154.216,88.668C153.69185,89.27417 153.54779,90.0645 153,90.64584C152.54044,91.13354 152.63071,92.0536 152.07466,92.63067C151.59329,93.13025 151.81714,94.11317 151.33333,94.66666C150.80676,95.26907 150.5,95.888 150.5,96.752C150.5,97.66666 150.4774,98.52795 150,99.16666C149.47449,99.86975 149.01405,100.49201 148.5,101.1875C147.99408,101.87199 147.42426,102.5593 146.92534,103.27734C146.42313,104.00011 146.57878,105.02146 146.07466,105.64133C145.57445,106.25641 144.90576,106.80775 144.51067,107.692C144.19168,108.4059 143.85399,109.19597 143.4955,110.02383C143.14314,110.83752 142.71214,111.57089 142.464,112.27734C142.17549,113.09872 141.29636,113.66018 140.85266,114.37117C140.36293,115.15593 140.14734,116.01933 139.51067,116.656C138.92534,117.24133 138.70049,118.08797 138.33333,118.83334C137.96242,119.58632 137.41061,120.19817 136.92534,120.70267C136.3698,121.28021 136.28017,122.06099 135.784,122.75066C135.25572,123.48495 135.35425,124.2574 134.85266,124.72383C134.19798,125.33263 134.35471,126.19149 133.85266,126.72383C133.26773,127.34405 133.89668,128.49876 133.464,129.24133C133.06056,129.93373 132.69585,130.33492 132.5,131.24133C132.3196,132.07626 131.85832,132.80061 131.33333,133.5C130.84665,134.14836 130.50061,134.83333 130.5,135.66667C130.49933,136.58267 129.76042,137.05801 129.5,137.95067C129.25279,138.798 128.93123,139.34332 128.536,140.10266C128.13881,140.86575 128.64621,141.90045 128.49983,142.76649C128.35582,143.61853 127.61537,144.02473 127.5,144.95067C127.38893,145.84203 126.64417,146.34537 126.5,147.16667C126.34002,148.07806 126.68007,149.02943 126.216,149.86534C125.80859,150.59921 125.25797,151.11813 124.784,151.75067C124.20892,152.51814 124.48747,153.49078 124,154.16667C123.48646,154.87871 123.16792,155.69189 122.784,156.38133C122.36815,157.12808 122.70374,158.14867 122.216,158.95067C121.77914,159.66901 121.58141,160.3644 121.07467,161.092C120.57452,161.81012 120.82224,162.80489 120.33334,163.5C119.83094,164.21429 119.69784,164.94235 119.216,165.58267C118.70516,166.26154 118.71107,166.97478 118.49983,167.888C118.31886,168.67035 117.54509,168.95183 117.5,169.83333C117.45728,170.66859 116.54272,170.94865 116.5,171.76649C116.45171,172.69073 116.0162,173.27292 115.58533,173.95067C115.08038,174.74496 115.77947,175.85219 115.27866,176.54533C114.77309,177.24507 114.6703,177.90347 114.5,178.83333C114.35564,179.62157 113.63036,180.10132 113.49866,180.952C113.36958,181.78575 112.58385,182.48613 112.5,183.24133C112.3979,184.16103 111.94113,184.76157 111.55717,185.614C111.19254,186.42351 111.88677,187.41519 111.464,188.24133C111.11047,188.93214 110.47736,189.52791 110,190.16667C109.4746,190.86972 109.30132,191.66437 108.85267,192.37117C108.39075,193.09889 108.77792,194.19273 108.4955,195.01933C108.23193,195.79076 107.68483,196.26341 107.47916,197.1875C107.29608,198.01013 106.51042,198.66647 106.5,199.468C106.48832,200.36659 106.25796,201.11501 105.784,201.75067C105.21075,202.5195 105.08232,203.22107 104.6215,203.88817C104.11754,204.61772 104.39091,205.59698 103.92533,206.27733C103.43366,206.99577 103.54375,208.05487 103.07467,208.64133C102.5603,209.28439 102.8103,210.15825 102.48933,211.056C102.22589,211.79286 101.50225,212.31398 101.5,213.16667C101.49756,214.092 101.54375,215.05487 101.07467,215.64133C100.5603,216.28439 100.5,217.16667 100.5,218.01933C100.5,218.95067 100.5,219.83333 100.5,220.72383C100.5,221.63066 100.98273,222.64371 100.5,223.38266C100.11339,223.97447 99.5,224.24133 99.5,225.092C99.5,226.01933 99.5,226.888 99.5,227.83333L99.5,228.70267L99.5,229.58133" id="svg_13" stroke-width="3" stroke="#000" fill="none"/>
  <path t="77528,77722,77730,77737,77754,77759,77768,77774,77774,77784,77790,77790,77801,77814,77814,77821,77834,77847,77856,77864,77882,77889,77898,77906,77920,77929,77945,77956,77964,77981,77998,78013,78034,78046,78064,78080,78102,78117,78125,78141,78166,78185,78225,78239,78255,78282,78303,78347,78354,78392,78457,78515,78602,78612,78634,78658,78666,78683,78700,78716,78732,78739,78756,78772,78787,78798,78820,78852,78877,78904,78917,78950,78974,79006,79032,79063,79086,79119,79144,79159,79192,79216,79240,79265,79288,79313,79345,79369,79386,79402,79418,79442,79459,79483,79499,79515,79532,79549,79555,79571,79582,79603,79628,79648,79668,79685,79701,79709,79717,79733,79749,79757,79773,79790,79798,79816,79821,79831,79849,79853,79869,79881,79886,79897,79902,79918,79935,79951,79959,79968,79984,80000,80016,80024,80048,80072,80097,80116,80120,80136,80152,80169,80197,80201,80234,80266,80315,80333,80387,80452,80501,80533,80565,80588,80622,80654,80694,80734,81165,81182,81200,81200,81210,81219,81238,81243,81252,81260,81276,81284,81292,81308,81316,81332,81340,81348,81366,81372,81383,81388,81400,81404,81421,81432,81449,81453,81469,81485,81494,81509,81518,81535,81543,81551,81575,81583,81591,81602,81617,81633,81655,81655,81679,81701,81715,81736,81739,81744,81768,81776,81786,81808,81817,81826,81841,81853,81867,81873,81890,81900,81917,81934,81941,81950,81966,81982,81987,82019,82027,82036,82061,82084,82100,82108,82124,82149,82168,82183,82203,82221,82240,82254,82270,82278,82294,82318,82326,82343,82359,82375,82391,82415,82422,82450,82455,82471,82487,82503,82511,82536,82544,82577,82605,82620,82641,82666" d="M99.5,230.66667C97.66666,230.66667 96.88934,230.66667 95.9,230.66667C95,230.66667 94.09418,230.57167 93.3,230.668C92.38024,230.77956 91.7317,231.51215 90.864,231.65601C90.02735,231.79471 89.14753,231.56519 88.14667,231.66667C87.32067,231.75043 86.73037,232.508 85.85717,232.66217C84.99218,232.8149 84.29672,233.20987 83.40017,233.54517C82.54939,233.86334 81.95504,234.11694 81.21467,234.58133C80.43757,235.06876 79.38636,234.34651 78.55267,234.67117C77.76273,234.97879 77.14733,235.66667 76.27866,235.66667C75.416,235.66667 74.5,235.66667 73.6215,235.66667C72.784,235.66667 72.49989,236.48625 71.66666,236.66667C70.80399,236.85347 69.92533,236.66423 69,236.66667C68.14732,236.66893 67.68625,237.39275 67.07467,237.66667C66.22835,238.04575 65.27866,237.66667 64.33334,237.66667C63.47917,237.66667 62.584,237.66667 61.66667,237.66667C60.85266,237.66667 60.56084,238.44009 59.85266,238.66217C58.96781,238.93965 58.60821,239.26422 58.14734,239.66667C57.78573,239.98244 58.35421,240.42522 59.07467,240.66667C59.88459,240.93811 60.58212,241.35381 61.41467,241.66667C62.13528,241.93747 62.78515,242.62158 63.66667,242.66667C64.50194,242.7094 64.78149,243.61316 65.66666,243.66667C66.51953,243.71823 66.99359,244.44717 67.85267,244.66667C68.755,244.89723 69.66666,244.66667 70.55717,244.66667C71.44283,244.66667 72.33334,244.66667 73.14733,244.66667C74.07467,244.66667 75,244.66667 75.85267,244.66667C76.784,244.66667 77.66666,244.66667 78.55717,244.66667C79.44283,244.66667 80.33334,244.66667 81.14733,244.66667C82.07467,244.66667 83,244.66667 83.85267,244.66667C84.784,244.66667 85.66666,244.66667 86.55717,244.66667C87.44733,244.66667 88.33334,244.66667 89.14733,244.66667C90.07467,244.66667 91,244.66667 91.85267,244.66667C92.784,244.66667 93.66666,244.66667 94.55717,244.66667C95.5,244.66667 96.33334,244.66667 97.11066,244.66667C98.064,244.66667 99,244.66667 99.85267,244.66667C100.784,244.66667 101.66666,244.66667 102.55717,244.66667C103.5,244.66667 104.33334,244.66667 105.14733,244.66667C106.07467,244.66667 106.936,244.66667 107.88934,244.66667C108.784,244.66667 109.66666,244.66667 110.55267,244.66667C111.5,244.66667 112.33334,244.66667 113.14733,244.66667C114.02084,244.66667 115.0617,244.49603 115.784,244.95067C116.53961,245.42628 117.2045,245.66667 118.1,245.66667C118.97916,245.66667 119.92533,245.66667 120.784,245.66667C121.72134,245.66667 122.44972,245.85004 123.14733,246.314C123.91566,246.82498 124.94227,246.44458 125.72134,246.888C126.47353,247.31613 127.14835,247.53603 127.85267,248.01933C128.61375,248.5416 129.58853,248.24846 130.216,248.752C130.92162,249.31825 131.49397,249.24229 132.216,249.66667C132.78307,249.99995 133.216,250.666 134.14734,250.66667C135,250.66728 135.33969,251.34615 136.07466,251.65601C136.85858,251.9865 137.85266,251.66667 138.784,251.66667C139.66667,251.66667 140.536,251.66667 141.44284,251.66667C142.33333,251.66667 143.14734,251.66667 144.07466,251.66667C144.92534,251.66667 146.05992,251.93587 146.5,251.38266C147.0592,250.6797 147.03938,249.85643 147.52083,249.16667C147.99899,248.48161 148.91716,248.26184 149.47917,247.64583C150.01006,247.06393 150.07202,246.10005 150.72133,245.44533C151.37584,244.78535 151.78694,244.33669 152.37849,243.6665C152.87158,243.10788 153.15199,242.36157 153.55716,241.614C153.95638,240.87741 154.57329,240.29457 155.07466,239.64133C155.56111,239.00751 155.44734,238.01636 155.92534,237.27733C156.41451,236.52104 156.86275,235.95332 157.44284,235.314C157.93533,234.77122 158.48192,234.2419 158.5,233.38266C158.51971,232.44554 159.12216,232.0087 159.5,231.38133C159.97121,230.59894 159.33391,229.57092 159.58533,228.86534C159.8895,228.01175 160.24539,227.27303 160.5045,226.37117C160.72513,225.60326 161.48958,225.16685 161.5,224.24133C161.51044,223.31406 161.80835,222.612 162.216,221.95067C162.69058,221.18077 162.5,220.24133 162.5,219.314C162.5,218.38133 162.5,217.56683 162.5,216.64133C162.5,215.75067 162.5,214.83333 162.5,214.01933C162.5,213.092 161.87024,212.50171 161.52083,211.6875C161.1965,210.93173 161.19814,210.28142 160.62151,209.6665C160.11182,209.12299 159.67802,208.43546 159.5,207.58267C159.33145,206.77531 158.69783,206.39098 158.216,205.75067C157.70515,205.07179 157.03432,204.84583 156.49867,204.38266C155.8925,203.85851 155.44962,203.20996 154.62134,202.78816C153.92786,202.43501 152.91451,202.80196 152.07466,202.66667C151.18176,202.52284 150.62808,201.72757 149.784,201.66667C148.92757,201.60487 148,201.66667 147.14734,201.66667C146.216,201.66667 145.27867,201.66667 144.44284,201.66667C143.52533,201.66667 143.12775,202.12939 142.464,202.65601C141.7756,203.20218 140.90924,202.81241 140.44284,203.314C139.83417,203.96858 138.96446,203.78111 138.5,204.314C138.05698,204.82228 137.34508,205.31499 136.50133,205.66533C135.68877,206.00272 135.38554,206.20219 134.85266,206.66667C134.34439,207.1097 134.09093,207.77167 133.5045,208.314C132.99242,208.78757 132.56163,209.42262 132.07466,210.092C131.55983,210.79965 131.464,211.65601 130.55716,211.67117L130.5,212.54517" id="svg_14" stroke-width="3" stroke="#000" fill="none"/>
  <path t="84435,84724,84741,84745,84756,84773,84778,84794,84801,84818,84840,84844,84859,84875,84891,84908,84926,84930,84939,84958,84962,84983,84996,85007,85027,85039,85058,85080,85084,85120,85124,85177,85205,85225,85241,85257,85262,85278,85290,85307,85321,85326,85335,85343,85359,85366,85376,85391,85406,85410,85415,85432,85440,85440,85447,85457,85474,85479,85490,85500,85512,85528,85548,85867,85892,85911,85924,85932,85957,85975,85975,85996,86013,86023,86041,86057,86073,86102,86110,86126,86143,86151,86175,86189,86199,86215,86224,86231,86247,86256,86273,86308,86308,86340,86344,86369,86380,86393,86409,86416,86442,86468,86473,86491,86497,86506,86513,86526,86540,86546,86562,86578,86594,86606,86627,86635,86659,86684,86691,86709,86725,86741,86748,86765,86805,86839,86845,86878,86886,86919,86926,86959,86967,86991,87015,87048,87121,87194" d="M163.5,216.66667C163.536,215.67734 164.15199,215.36157 164.55716,214.614C164.95638,213.87741 166.17162,213.82361 166.48933,213.092C166.85814,212.24277 167.05693,211.66203 167.5,211.16667C167.98134,210.62852 168.35995,210.01723 168.85266,209.314C169.38663,208.5519 170.17532,208.13908 170.5,207.314C170.82825,206.47984 171.03839,205.71019 171.5,205.01933C171.88542,204.44249 172.39091,203.95157 172.92534,203.24133C173.46259,202.52734 174.01796,201.94456 174.51067,201.24133C174.96834,200.5881 175.47723,200.14682 175.92534,199.65601C176.46313,199.06696 177.08415,198.71007 177.48933,198.092C177.9601,197.37389 178.08472,196.43823 178.66667,195.83333C179.26126,195.21529 180.00075,195.21309 180.49867,194.58133C181.06502,193.86276 181.17532,193.13908 181.5,192.314C181.82825,191.47984 182.1037,190.72742 182.536,190.092C183.01389,189.38954 183.3347,188.68817 183.55716,187.96217C183.81857,187.10901 184.42114,186.32649 184.92534,185.692C185.40927,185.08302 185.34799,184.2646 185.5045,183.30949C185.6481,182.43321 186.35173,181.89804 186.4955,180.96666C186.6273,180.11276 186.2178,179.09503 186.51067,178.27733C186.77452,177.54062 187.49774,177.01935 187.5,176.092C187.50206,175.24133 188.12308,174.88168 188.47917,174.16667C188.8918,173.33817 188.23384,172.23592 188.72133,171.6665C189.24356,171.0565 189.24709,170.29424 189.66667,169.5C190.02956,168.8131 190.47723,168.14682 190.92534,167.65601C191.46313,167.06696 191.42674,166.09366 191.92534,165.66667C192.43747,165.2281 192.29361,164.30026 192.85266,163.72383C193.36211,163.19856 193.9174,162.92125 194.44284,162.314C195.03972,161.62416 195.37177,160.86943 195.92534,160.24133C196.54553,159.53764 196.51555,158.66153 197.07466,158.092C197.77742,157.37614 198.41467,156.752 199,156.16667C199.66667,155.5 199.95625,154.80165 200.536,154.092C201.04298,153.47141 201.69185,153.27417 202.216,152.668C202.67917,152.13237 203.08012,151.63403 203.49867,150.95067C203.93102,150.24478 204.83723,149.93651 205.41467,149.38266C205.97691,148.8434 206.31258,148.2421 206.784,147.468C207.2206,146.7511 207.87122,146.40904 208.5,145.83333C209.05984,145.32074 209.41943,144.67218 210,144.16667C210.70183,143.55559 211.32997,143.14285 211.784,142.66533C212.33618,142.08456 212.987,141.89801 213.50017,141.44533C214.10234,140.91411 214.16838,140.1725 214.72133,139.66667C215.30888,139.12918 215.7524,139.22882 216.464,138.66667C217.13698,138.13504 217.43036,137.57681 218.07466,137.092C218.7849,136.55757 219.41594,136.11305 219.85266,135.66217C220.4084,135.08842 220.59576,134.11189 221.44284,133.72383C222.14767,133.40092 222.5,133.01933 223.07466,132.66667L224,132.66667L224.5,132.314" id="svg_15" stroke-width="3" stroke="#000" fill="none"/>
  <path t="103404,104017,104037,104364,104469,104536,104594,104630,104647,104760,104832,104876,104922,104973,105010,105083,105156,105245" d="M199.5,74.66666C199.49983,75.54517 198.28876,75.63941 198.5,76.314C198.70149,76.95744 199.93788,76.81869 200.85266,76.66666C201.52769,76.55448 202.12198,76.0092 202.5,75.38267C202.95599,74.62691 203.10445,73.37117 202.5,72.72383C201.92993,72.11332 200.85266,72.66666 199.92534,72.66666L199.5,73.16666L199.5,74.01933" id="svg_16" stroke-width="3" stroke="#000" fill="none"/>
  <path t="109694,109957,109965,109980,109983,109988,110000,110005,110015,110033,110037,110045,110062,110079,110098,110122,110128,110148,110151,110166,110182,110185,110194,110207,110232,110256,110264,110272,110288,110304,110321,110329,110347,110368,110380,110397,110413,110429,110445,110458,110474,110490,110506,110531,110538,110555,110579,110599,110613,110618,110634,110648,110652,110667,110684,110695,110711,110732,110765,110772,110797,110830,110862,110880,110901,110942,110966,110999,111030,111064,111104,111144,111168,111185,111200,111217,111233,111282,111290,111362,111381,111459,111548,111637,111710,111782,111823,111879,111899,111919,111935,111968,111992,112032,112057,112082,112106,112154,112180,112198,112235,112251,112275,112291,112332,112356,112412,112420,112469,112510,112534,112542,112567,112590,112598,112639,112647,112662,112690,112703,112739,112739,112751,112771,112775,112785,112803,112818,112835,112840,112860,112884,112900,112920,112923,112965,112994,113018,113046,113082,113110,113136,113174" d="M313.5,3.66667C313.5,4.66667 313.5,5.468 313.5,6.36667C313.5,7.26667 313.66281,8.10472 314.14734,8.71933C314.65933,9.36878 314.48648,10.38948 314.92532,11.10267C315.40021,11.87442 315.5,12.71933 315.5,13.64133C315.5,14.54517 316.23807,15.05032 316.5,15.888C316.75745,16.71135 317.04779,17.33472 317.44284,18.01933C317.90985,18.82868 317.20609,19.93317 317.53601,20.692C317.88376,21.4918 318.49991,22.092 318.5,23.01933C318.50009,23.888 319.12619,24.40946 319.47916,25.16667C319.83951,25.93973 319.45493,26.95182 319.5,27.83333C319.54272,28.66861 320.26849,28.90877 320.5,29.83333C320.69434,30.60947 321.39032,30.89523 321.5,31.72383C321.61163,32.56711 322.38864,32.8405 322.5,33.70267C322.6116,34.56658 322.87277,34.97575 323.5,35.63067C324.07693,36.23307 324.61444,36.2022 325.14734,36.66667C325.65561,37.10969 326.048,37.38904 326.85266,37.67117C327.60645,37.93545 327.87103,38.74133 328.52533,39.24133C329.16925,39.73343 330.03314,39.7071 330.52084,40.16667C331.10217,40.71445 332.07468,40.6646 332.92532,40.66667C333.85266,40.66892 334.31375,41.39273 334.92532,41.66667C335.70898,42.01768 336.72134,41.66667 337.55716,41.66667C338.47916,41.66667 339.37851,41.66667 340.216,41.66667C341.07468,41.66667 342,41.66667 342.92532,41.66667C343.784,41.66667 344.72141,41.67611 345.55716,41.66667C346.47934,41.65625 346.49808,40.70939 347.33334,40.66667C348.14627,40.62509 348.91791,40.50284 349.49866,39.95067C349.9762,39.49663 350.49933,38.95067 350.5,38.01933C350.50061,37.16667 350.5,36.24133 350.5,35.314C350.5,34.44534 350.5,33.58133 350.5,32.66217C350.5,31.78817 349.68961,31.60786 349.5,30.752C349.32571,29.96521 349.02512,29.48139 348.5,28.83333C348.07916,28.31398 347.57422,27.8499 346.92532,27.66667C346.10669,27.43551 345.8078,27.05328 345.216,26.66667C344.43127,26.15401 344.06641,26.2436 343.46399,25.66667C342.82941,25.05892 342.43048,24.89604 341.53601,24.66667C340.67856,24.4468 340.93848,23.43627 340.33334,22.83333C339.71683,22.21907 339.07892,22.16966 338.46399,21.66667C337.76208,21.09251 337.11288,21.24756 336.52084,20.66667C335.91113,20.06844 335.83209,19.56773 335.5,18.72383C335.18723,17.92907 334.75293,17.29425 334.33334,16.5C333.97046,15.81308 333.83514,15.09968 333.48932,14.24133C333.18158,13.47754 332.50067,12.95067 332.5,12.092C332.49927,11.16667 331.96985,10.55676 331.58533,9.752C331.23788,9.02488 331.79016,7.96844 331.5,7.16667C331.27383,6.54174 330.50534,6.09205 330.5,5.16667C330.49509,4.31401 329.94485,4.04846 329.5,3.44533C328.98715,2.75001 329.46399,1.67733 328.58533,1.66667L328.5,0.83333" id="svg_17" stroke-width="3" stroke="#000" fill="none"/>
  <path t="115757,115986,115997,116004,116021,116027,116037,116037,116055,116059,116070,116075,116087,116091,116103,116107,116119,116135,116148,116157,116181,116189,116207,116212,116237,116245,116256,116271,116287,116304,116309,116321,116337,116354,116370,116374,116407,116415,116439,116455,116463,116488,116511,116544,116553,116576,116609,116633,116657,116682,116697,116730,116754,116795,116883,116907,116963,117013,117061,117094,117161,117198,117279,117320,117360,117408,117418,117440,117464,117464,117497,117505,117529,117545,117554,117572,117577,117602,117610,117635,117643,117658,117675,117683,117699,117715,117731,117748,117764,117772,117796,117805,117822,117839,117844,117856,117872,117880,117893,117904,117912,117917,117939,117950,117960,117974,117993,118006,118025,118041,118054,118072,118089,118122,118126,118143,118176,118176,118207,118232,118240,118276,118300,118313,118321,118340" d="M283.5,0.66667C282.85266,1.72383 282.74109,2.50039 282.5,3.38133C282.27896,4.18903 281.73618,4.93366 281.27866,5.7665C280.89871,6.45813 279.90561,6.85423 279.51068,7.692C279.17728,8.39927 278.8291,9.13258 278.11066,9.64133C277.45462,10.10588 277.40924,11.08302 276.92532,11.692C276.42114,12.32649 275.93463,12.76659 275.5,13.5C275.07513,14.2169 274.81409,15.16199 274.14734,15.6095C273.4245,16.09466 272.75378,16.10928 272.27866,16.888C271.82788,17.62684 271.48248,18.22155 271,18.66667C270.48029,19.14614 270.08722,19.69245 269.5,20.16667C268.86578,20.67884 268.63351,21.31699 268.14734,22.01933C267.62268,22.77728 266.98776,23.27926 266.49551,24.01933C266.05313,24.68442 265.72208,25.10893 265.27866,25.888C264.85052,26.64019 264.50491,27.31401 264.5,28.16667C264.49466,29.09205 263.72958,29.52784 263.5,30.092C263.15045,30.95093 263.5,31.888 263.5,32.83333C263.5,33.6875 263.5,34.58133 263.5,35.5C263.5,36.314 263.26883,37.27335 263.5,38.092C263.68323,38.74088 264.784,38.66667 265.66666,38.66667C266.55716,38.66667 267.46399,38.66667 268.33334,38.66667C269.14734,38.66667 270.07468,38.66667 270.5,38.16667C270.92532,37.66667 271.36929,37.27973 271.92532,36.70267C272.40671,36.20308 272.79608,35.60428 273.216,34.95067C273.71133,34.17971 274.30655,33.79115 274.92532,33.24133C275.6265,32.6183 275.86539,31.97241 276.58533,31.58133C277.36905,31.1556 277.47443,30.1015 278.14734,29.67117C278.81339,29.24523 278.94058,28.44775 279.50449,27.72383C280.03207,27.04653 280.07825,26.4465 280.66666,25.83333C281.26047,25.21454 281.99863,25.23148 282.5,24.6095C283.07584,23.89513 283.07468,23.092 283.72134,22.44533C284.37851,21.78817 284.79178,21.32511 285.33334,20.66667C285.79321,20.10755 285.75961,19.29981 286.33334,18.66667C286.79327,18.15912 287.33334,17.5 287.5,16.66667C287.66666,15.83333 288.14551,15.41586 288.72134,14.78817C289.28262,14.17635 289.81473,14.28927 290.46399,13.656C291.08578,13.04952 291.10287,12.55701 291.5,12.01933C291.9006,11.47698 292.42673,11.09364 292.92532,10.66667C293.43747,10.2281 294.06161,9.93435 294.46399,9.24133C294.92996,8.43877 294.80835,7.612 295.216,6.95067C295.69058,6.18078 296.17984,5.82713 296.48932,5.092C296.84839,4.2391 296.5,3.314 296.72134,2.44533L297.33334,1.83333L297.5,1.01933" id="svg_18" stroke-width="3" stroke="#000" fill="none"/>
  <path t="132230,132572,132581,132605,132613,132622,132629,132638,132646,132646,132654,132654,132665,132670,132670,132679,132679,132685,132696,132696,132702,132714,132714,132718,132718,132730,132730,132734,132746,132746,132750,132750,132762,132762,132762,132766,132766,132777,132778,132782,132782,132782,132791,132791,132791,132799,132799,132807,132807,132815,132815,132815,132829,132829,132833,132833,132839,132839,132848,132848,132855,132855,132855,132864,132864,132871,132871,132880,132887,132887,132896,132904,133122,133130,133130,133138,133138,133138,133146,133147,133147,133154,133155,133163,133163,133163,133170,133170,133170,133170,133180,133180,133180,133186,133186,133186,133195,133195,133195,133195,133203,133203,133203,133214,133214,133214,133218,133218,133218,133231,133231,133235,133235,133247,133247,133247,133247,133254,133254,133262,133262,133267,133267,133267,133279,133279,133287,133287,133291,133291,133300,133300,133308,133308,133316,133324,133324,133333,133340,133340,133348,133349,133356,133356,133365,133372,133381,133381,133389,133389,133397,133405,133414,133414,133420,133420,133431,133437,133447,133453,133464,133465,133469,133482,133482,133485,133485,133498,133502,133502,133515,133515,133518,133531,133531,133534,133546,133550,133550,133563,133563,133569,133581,133581,133584,133599,133602,133602,133613,133613,133616,133616,133631,133634,133634,133648,133648,133651,133666,133668,133668,133682,133682,133684,133698,133699,133701,133701,133715,133717,133718,133732,133735,133735,133748,133748,133752,133753,133764,133768,133780,133781,133784,133797,133801,133801,133813,133813,133817,133830,133834,133849,133849,133852,133852,133865,133868,133879,133880,133883,133898,133898,133901,133901,133916,133919,133919,133933,133933,133936,133948,133951,133966,133970,133984,133984,133987,133987,133999,134003,134016,134020,134032,134035,134047,134050,134066,134075,134100,134116,134132,134140,134148,134155,134164,134172,134180,134188,134188,134197,134197,134205,134214,134224,134230,134230,134240,134248,134252,134266,134281,134285,134296,134301,134313,134329,134336,134351,134358,134375,134391,134401,134423,134464" d="M1.5,34.66667C2.37867,34.66667 3.216,34.66667 4.11067,34.66667C5,34.66667 5.9,34.66667 6.8,34.66667C7.70133,34.66667 8.66667,34.66667 9.32533,34.66667C10.33333,34.66667 11.20704,34.55143 12.136,34.70267C13.00804,34.84464 13.641,35.35533 14.616,35.58133C15.36862,35.75579 16.32562,35.64269 17.33333,35.66667C18.08998,35.68467 18.85094,36.2402 19.82133,36.54517C20.47586,36.75087 21.47867,36.66667 22.384,36.66667C23.32533,36.66667 24.016,36.66667 25,36.66667C25.98533,36.66667 26.71067,36.66667 27.7,36.66667C28.5,36.66667 29.5,36.66667 30.3,36.66667C31.1,36.66667 32.1,36.66667 32.9,36.66667C33.90133,36.66667 34.736,36.66667 35.66667,36.66667C36.45267,36.66667 37.27467,36.66667 38.33333,36.66667C39.264,36.66667 40.09867,36.66667 41.1,36.66667C41.9,36.66667 42.9,36.66667 43.7,36.66667C44.70016,36.66667 45.52083,36.66667 46.18533,36.66667C47.18267,36.66667 47.97917,36.66667 49.16667,36.66667C49.97917,36.66667 50.8215,36.66667 51.71067,36.66667C52.7,36.66667 53.5,36.66667 54.5,36.66667C55.3,36.66667 56.1,36.66667 57.1,36.66667C57.9,36.66667 58.89867,36.66667 59.664,36.66667C60.61467,36.66667 61.5,36.66667 62.3,36.66667C63.2,36.66667 64.14283,36.66667 65.04166,36.66667C65.98666,36.66667 66.74667,36.66667 67.66666,36.66667C68.45267,36.66667 69.27467,36.66667 70.33334,36.66667C71.264,36.66667 72.09866,36.66667 73.1,36.66667C73.9,36.66667 74.904,36.66667 75.5625,36.66667C76.356,36.66667 77.364,36.66667 78.158,36.66667C79,36.66667 79.842,36.66667 81,36.66667C81.933,36.66667 82.704,36.66667 83.66666,36.66667C84.45717,36.66667 85.31067,36.66667 86.5,36.66667C87.1,36.66667 88,36.66667 88.9,36.66667C89.8,36.66667 90.7,36.66667 91.6,36.66667C92.5,36.66667 93.3955,36.66667 94.264,36.66667C95.33334,36.66667 96.04283,36.66667 96.8955,36.66667C97.9,36.66667 98.70008,36.67918 99.70016,36.6665C100.52103,36.6561 101.6696,36.512 102.45267,36.314C103.00219,36.17505 103.80531,35.88225 105.04283,35.72383C105.68575,35.64154 106.7,35.66667 107.5,35.66667C108.5,35.66667 109.3,35.66667 110.1,35.66667C111.1,35.66667 111.90046,35.69549 112.89867,35.66533C113.84406,35.63677 114.70509,35.22713 115.384,34.95067C116.29513,34.57965 117.10133,34.66734 118.0955,34.66667C118.84283,34.66617 119.87466,34.66667 120.82133,34.66667C121.5,34.66667 122.61467,34.66667 123.5,34.66667C124.25716,34.66667 125.15717,34.66667 125.9045,34.66667C126.89867,34.66667 127.84283,34.66667 128.74283,34.66667C129.70134,34.66667 130.66667,34.66667 131.32533,34.66667C132.33333,34.66667 133.22154,34.84915 134.10001,34.63067C134.97272,34.41362 135.658,33.76966 136.5,33.6875C137.47409,33.59245 138.29866,33.66667 139.2,33.66667C140.10001,33.66667 141,33.66667 141.91066,33.66667C142.82133,33.66667 143.5,33.66667 144.61467,33.66667C145.5,33.66667 146.25824,33.7062 147.15266,33.66217C148.01874,33.61953 148.82224,33.11736 149.66667,32.83333C150.46852,32.56363 151.4785,32.66667 152.29866,32.66667C153.136,32.66667 154.15266,32.66667 154.84734,32.66667C155.864,32.66667 156.8045,32.66667 157.66667,32.66667C158.5,32.66667 159.4785,32.66667 160.29866,32.66667C161.136,32.66667 162.15266,32.66667 162.84734,32.66667C163.864,32.66667 164.8045,32.66667 165.66667,32.66667C166.52083,32.66667 167.5,32.66667 168.28934,32.66667C169.33333,32.66667 170.08934,32.66667 171.02083,32.66667C171.98534,32.66667 172.71066,32.66667 173.69966,32.66667C174.45833,32.66667 175.5,32.66667 176.36133,32.66667C177.33333,32.66667 178.12534,32.66667 178.98399,32.66667C179.84734,32.66667 180.76886,32.57754 181.66667,32.83333C182.52985,33.07926 183.32222,33.57835 184.1955,33.66217C185.01706,33.74102 185.98399,33.66667 186.84734,33.66667C187.74733,33.66667 188.66667,33.6666 189.5,33.66667C190.4785,33.66675 191.19601,33.72288 192,34.16667C192.80052,34.60855 193.70377,34.58455 194.60001,34.66683C195.51144,34.75051 196.15259,35.46695 197,35.64583C197.89127,35.83397 198.83017,35.57507 199.67467,35.70267C200.63593,35.84791 201.1498,36.47654 202.10001,36.656C202.98442,36.82304 203.93073,36.60421 204.82133,36.888C205.52036,37.11074 206.47198,37.60448 207.29866,37.66533C208.19757,37.73151 209.02115,37.64318 209.98399,37.668C210.67531,37.68582 211.66992,38.16043 212.5,38.5C213.21669,38.79318 214.15266,38.66667 215.01601,38.66667C216,38.66667 216.83017,38.57507 217.67467,38.70267C218.63593,38.84791 219.26732,39.51849 220.2,39.66217C221.08952,39.7992 222,39.66667 222.89999,39.66667C223.70134,39.66667 224.67178,39.59305 225.5,39.6875C226.4924,39.80067 227.02769,40.42781 228,40.64583C228.87842,40.8428 229.7955,40.66667 230.66667,40.66667C231.60001,40.66667 232.5,40.66667 233.33333,40.66667C234.11067,40.66667 235.064,40.66667 236,40.66667C236.85266,40.66667 237.784,40.66667 238.66667,40.66667C239.59984,40.66667 240.39491,40.59404 241.02083,40.16667C241.8418,39.60611 242.8,39.66667 243.7,39.66667C244.60017,39.66667 245.38533,39.66667 246.32533,39.66667C247.01601,39.66667 248.10873,39.83397 249,39.64583C249.84741,39.46695 250.59238,38.72882 251.3,38.668C252.19669,38.59092 253.10001,38.66667 254,38.66667C254.97917,38.66667 255.85716,38.66667 256.70001,38.66667C257.59982,38.66667 258.52533,38.66667 259.30133,38.66667C260.33334,38.66667 261.19769,38.74802 261.92532,38.24133C262.64197,37.74231 263.47467,37.66667 264.37866,37.66667L265.216,37.66667L266.07468,37.66667L267,37.66667" id="svg_20" stroke-width="3" stroke="#000" fill="none"/>
  <path t="135139,135343,135351,135359,135359,135368,135379,135387,135392,135403,135403,135408,135408,135416,135424,135433,135440,135449,135456,135456,135465,135465,135472,135482,135489,135500,135515,135521,135532,135537,135548,135553,135563,135569,135583,135586,135599,135603,135616,135619,135633,135636,135648,135652,135665,135668,135682,135682,135685,135700,135707,135715,135732,135739,135748,135755,135772,135781,135799,135820,135852,135893" d="M270.5,37.66667C271.52084,37.66667 272.36133,37.66667 273.33334,37.66667C274.08932,37.66667 275,37.66667 275.89999,37.66667C276.79999,37.66667 277.70132,37.66667 278.66666,37.66667C279.5,37.66667 280.33334,37.66667 281.1955,37.66667C282.10001,37.66667 283,37.66667 283.89999,37.66667C284.79999,37.66667 285.70132,37.66667 286.66666,37.66667C287.5,37.66667 288.33334,37.66667 289.1955,37.66667C290.10001,37.66667 291,37.66667 291.89999,37.66667C292.7955,37.66667 293.7215,37.66667 294.60001,37.66667C295.5,37.66667 296.41599,37.66667 297.2045,37.66667C298.10001,37.66667 299,37.66667 299.89999,37.66667C300.79999,37.66667 301.70001,37.66667 302.60001,37.66667C303.5,37.66667 304.41599,37.66667 305.2045,37.66667C306.10001,37.66667 307,37.66667 307.89999,37.66667C308.79999,37.66667 309.70001,37.66667 310.60001,37.66667C311.5,37.66667 312.29999,37.66667 313.21466,37.66667C314.11066,37.66667 315,37.66667 315.88934,37.66667C316.85718,37.66667 317.70001,37.66667 318.59982,37.66667C319.5,37.66667 320.41599,37.66667 321.216,37.66667C322.14734,37.66667 323,37.66667 323.92532,37.66667L324.5,37.314" id="svg_21" stroke-width="3" stroke="#000" fill="none"/>
  <path t="138187,138368,138368,138376,138389,138389,138389,138393,138393,138404,138404,138408,138408,138408,138419,138419,138424,138424,138424,138424,138436,138436,138436,138436,138440,138441,138441,138449,138450,138457,138457,138457,138465,138465,138465,138473,138473,138473,138482,138482,138482,138489,138490,138497,138498,138505,138506,138506,138514,138514,138514,138514,138522,138522,138530,138530,138530,138538,138539,138539,138546,138546,138546,138555,138555,138555,138555,138562,138562,138562,138562,138572,138572,138572,138578,138578,138578,138578,138590,138590,138594,138594,138594,138594,138607,138607,138607,138610,138610,138610,138624,138624,138624,138627,138628,138628,138628,138628,138640,138640,138640,138640,138643,138643,138655,138655,138655,138655,138658,138658,138659,138672,138672,138675,138675,138675,138688,138689,138692,138692,138692,138704,138708,138708,138724,138724,138727,138727,138741,138743,138755,138759,138759,138773,138776,138788,138791,138807,138812,138822,138844,138854,138877,138909,138950,138982,138999,139015,139031,139054,139062,139078,139089,139105,139111,139127,139143,139159,139184,139204,139219,139252" d="M352.5,37.66667C353.5,37.66667 354.29999,37.66667 355.172,37.66667C356.04285,37.66667 357.02084,37.66667 357.81732,37.66667C358.81332,37.66667 359.65332,37.66667 360.61865,37.66667C361.367,37.66667 362.26401,37.66667 363.17599,37.66667C363.82401,37.66667 365,37.66667 365.82401,37.66667C367,37.66667 367.55466,37.66667 368.54166,37.66667C369.25635,37.66667 370.33334,37.66667 371.34283,37.66667C371.97916,37.66667 372.89868,37.66667 373.79965,37.66667C374.67868,37.66667 375.48566,37.66667 376.53201,37.66667C377.30533,37.66667 378.27066,37.66667 379.04166,37.66667C379.90268,37.66667 381.10001,37.66667 381.70001,37.66667C382.60001,37.66667 383.79984,37.66667 384.39551,37.66667C385.26401,37.66667 386.33334,37.66667 387.26401,37.66667C388.09866,37.66667 389.10001,37.66667 389.89999,37.66667C390.89999,37.66667 391.70001,37.66667 392.70035,37.66667C393.32132,37.66667 394.27066,37.66667 395.14267,37.66667C396.15067,37.66667 396.84933,37.66667 397.53201,37.66667C398.73065,37.66667 399.47916,37.66667 400.66666,37.66667C401.45267,37.66667 402.27466,37.66667 403.33334,37.66667C404.04733,37.66667 404.95267,37.66667 405.92166,37.66667C406.74667,37.66667 407.34668,37.66667 408.66666,37.66667C409.384,37.66667 410.12534,37.66667 410.87466,37.66667C412.33334,37.66667 413.01364,37.65587 413.65332,37.67733C414.53906,37.70705 415.57791,37.89115 416.52084,38.16667C417.26862,38.38517 418.14166,38.55671 419.15067,38.64133C419.84872,38.69988 420.54556,38.68176 421.73065,38.95067C422.49039,39.12307 423.66318,39.52903 424.45715,39.6095C425.01913,39.66646 425.90137,39.65734 427.10001,39.668C427.70007,39.67333 428.60764,39.67537 429.79984,39.888C430.40033,39.9951 431.25443,40.28481 432.33334,40.5C433.05112,40.64316 433.8002,40.66946 435,40.83333C435.7554,40.93651 436.58627,41.09435 437.45999,41.24133C437.89899,41.31518 439.16458,41.52378 440.28116,41.6095C440.93658,41.65982 441.81219,41.64822 442.81732,41.668C443.76178,41.68659 444.83463,41.82657 445.46799,41.95067C446.15213,42.08471 447.18982,42.34137 448.16666,42.5C448.98227,42.63245 449.67865,42.66133 450.70016,42.66667C451.52084,42.67095 452.66666,42.66667 453.44818,42.66667C454.23868,42.66667 455.16666,42.66667 456,42.66667C457.04266,42.66667 457.75067,42.66667 458.49466,42.66667C459.69016,42.66667 460.66666,42.66667 461.32535,42.66667C462.33334,42.66667 463.12534,42.66667 464.15268,42.66667C464.84732,42.66667 465.86401,42.66598 466.79999,42.66667C467.70001,42.66734 468.55084,42.96751 469.20001,43.314C470.04938,43.76735 471,43.66667 471.89999,43.66667C472.7955,43.66667 473.66666,43.66667 474.59982,43.66667C475.46399,43.66667 476.33334,43.66667 477.14734,43.66667C478.07468,43.66667 479,43.66667 479.85266,43.66667C480.784,43.66667 481.66666,43.66667 482.55716,43.66667C483.46399,43.66667 484.33334,43.66667 485.14734,43.66667C486.11066,43.66667 486.97916,43.66667 487.85718,43.66667C488.7955,43.66667 489.66666,43.66667 490.55716,43.66667C491.46399,43.66667 492.33334,43.66667 493.14734,43.66667L494.07468,43.66667L495,43.66667" id="svg_22" stroke-width="3" stroke="#000" fill="none"/>
  <path t="140286,140682,140751,140843" d="M495.5,43.66667" id="svg_23" stroke-width="3" stroke="#000" fill="none"/>
 </g>
</svg>