<svg width="500" height="333.3333333333333" xmlns="http://www.w3.org/2000/svg" xmlns:svg="http://www.w3.org/2000/svg" xmlns:xlink="http://www.w3.org/1999/xlink">
 <!-- Created with SVG-edit - http://svg-edit.googlecode.com/ -->
 <g display="inline" class="layer">
  <title>Layer 1</title>
  <path t="0,453,454,525,526,534,534,606,813,822,829,830,849,957,967,1014,1181,1182,1190,1191,1221,1222,1230,1246,1254,1285,1294,1294,1334,1406,1415,1501,1534,1629,1629,1709,1726,1774,1869,1901,1902,1917,1949,2262,2485,2486" d="M239.01137,73.25758C239.01137,74.25758 238.98032,75.02374 238.65869,75.91474C238.38594,76.67035 238.23093,77.68854 237.98604,78.38557C237.65958,79.31479 236.50041,79.48775 236.13286,80.35757C235.77936,81.19411 236.01137,82.05758 236.01137,82.90041C236.01137,83.77841 235.92928,84.76224 236.01587,85.56208C236.12778,86.59573 236.59877,87.22773 236.8447,88.09091C237.10048,88.98872 237.01137,89.91024 237.01137,90.60491C237.01137,91.62157 236.83807,92.70668 237.44736,93.23225C238.15973,93.84673 238.92633,94.24497 239.01003,95.05758C239.10223,95.95284 239.01137,96.85757 239.01137,97.75758C239.01137,98.65758 238.87482,99.61422 239.29536,100.45758C239.62529,101.11922 239.82974,101.97688 240.01137,102.82158C240.19383,103.67022 240.95049,104.35146 241.01137,105.25758C241.065,106.05578 241.01137,106.95758 241.04736,107.85757L241.43669,108.66824L241.8447,109.42424L242.01137,110.23674" id="svg_1" stroke-width="3" stroke="#000" fill="none"/>
  <path t="3911,4150,4373,4373,4437,4494,4685,4701,4750,4766,4973,5190,5198,5222,5230,5389,5413,5431,5445,5463,5463,5485,5517,5525,5542,5558,5669,5822,5822,5869,5925,5941,5950,6118,6182,6182,6190,6198,6222,6341,6381,6389,6390,6406,6413,6431,6431,6453,6462,6477,6478,6693,6701,6702,6711,6718,6726,6733,6742,6749,6796,6820,6845,6886,6895,6911,6918,6950,6974,6982,6982,7005,7134,7174,7261,7285,7341,7406,7494,7494,7542,7549,7550,7838,7910,8101,8149,8190,8470,8478,8565,8693,8791,8830,8830,8910,8918,8918,9037,9085,9293,9309,9461,9477,9477,9485,9492,9501,9533,9549,9549,9557,9558,9573,9580,9605,9628,9628,9902,9910,9910,9918,10021,10053,10054,10061,10310,10318,10541,10549,10613,10621,10630,10644" d="M240.01137,73.25758C240.29669,72.34158 241.05591,71.94655 241.81137,71.54158C242.56732,71.13635 243.3936,70.80209 244.21004,70.34158C244.91174,69.94578 245.01137,69.05758 245.01137,68.15758C245.01137,67.25758 245.45749,66.71 245.92603,65.97224C246.36516,65.28078 245.97569,64.2569 246.01137,63.31024C246.03996,62.55146 246.4265,61.50361 247.31587,61.31924C248.16632,61.14295 249.21199,61.56323 249.76837,62.35741C250.25647,63.05412 250.81288,63.23961 251.71136,63.25758C252.61189,63.27558 253.41136,63.69357 254.01137,64.25758C254.61136,64.82157 255.51117,65.24942 256.41138,65.25758C257.30682,65.26569 257.82108,64.73119 258.29669,64.05891C258.84869,63.27864 259.81137,63.25824 260.71136,63.25758C261.61136,63.25691 262.52435,63.11548 263.41138,63.26824C264.24451,63.41172 265.03766,64.02003 265.71136,64.31024C266.55316,64.67286 267.37372,65.06553 268.11136,65.47908C268.90424,65.92358 269.35092,66.7529 270.21136,67.17358C271.06522,67.59103 271.71249,67.96095 272.31137,68.55758C273.01266,69.25626 273.67551,69.71671 274.4007,70.23225C275.11334,70.73886 275.64218,71.32013 276.09537,72.05891C276.51703,72.74628 277.44342,73.02124 278.30685,73.26208C279.01691,73.46014 279.01126,74.55758 279.01135,75.45758C279.01144,76.35741 279.51917,76.86623 279.95419,77.61475C280.37866,78.34513 280.01135,79.35757 280.01135,80.25758C280.01135,81.05758 279.53516,82.12086 280.06854,82.90041C280.55099,83.60555 281.01135,83.96207 281.01135,84.85757C281.01135,85.75758 281.01135,86.66824 281.01135,87.57891C281.01135,88.43224 281.01135,89.37225 281.01135,90.25758C281.01135,91.05758 280.08203,92.88615 281.01135,92.88691C281.83936,92.88758 281.38025,91.33063 281.98602,90.83224C282.60324,90.32446 283.00909,90.96207 283.01135,91.85757C283.01355,92.73674 283.01135,93.61924 283.01135,94.57891C283.01135,95.43224 283.20441,96.43189 282.8447,97.25758C282.54657,97.94187 281.77838,98.65395 281.01135,99.09091C280.23151,99.53516 279.46222,99.92811 279.06854,100.61924C278.59277,101.45444 279.01135,102.39624 279.01135,103.30574C279.01135,104.05891 278.93231,104.94615 278.51135,105.77841C278.11166,106.56862 278.14804,107.49298 277.72604,108.37225C277.41611,109.01802 276.41397,109.55463 276.09671,110.45758C275.79703,111.31051 275.80209,112.23073 275.43671,112.85757C274.98145,113.63856 274.86813,114.62033 274.49054,115.23674C273.922,116.16481 273.19708,116.58867 272.79004,117.35757C272.38901,118.11511 272.01978,118.87536 271.58603,119.65758C271.13126,120.47771 271.01135,121.35757 271.01135,122.25758C271.01135,123.13625 271.01135,123.96207 270.97537,124.85757L270.58603,125.65758" id="svg_2" stroke-width="3" stroke="#000" fill="none"/>
  <path t="12216,12421,12485,12485,12518,12549,12566,12566,12660,12708,12708,12732,12764,12813,12862,12957,12997,13133,13133,13142,13159,13181,13197,13197,13215,13254,13270,13279,13294,13294,13309,13325,13342,13373,13422,13445,13453,13710,13774,13782,13791,13797,13820,13837,13950,13982,14038,14122,14320,14341,14364,14373,14381,14405,14453,14470,14501,14510,14574,14574,14630,14646,14661,14662,14678,14678,14693,14725,14726,14740,14741,14764,14796,14852,14877,14910,14926,14942,14982,14982,15014,15045,15069,15070,15229,15246,15246,15270,15270,15342,15350,15359,15375,15383,15397,15412,15428,15444,15444,15525,15541,15541,15565,15566,15589,15646,15646,15686,15694,15694,15710,15718,15726,15746,15747,15754,15754,15758,15758,15773,15773,15790,15812,15861,15862,15917,16006,16118,16118,16206,16254,16286,16326,16365,16414,16494,16494,16526,16549,16590,16622,16622,16646,16854,17054,17054" d="M248.01137,53.25758C250.17802,52.42424 250.97804,52.03698 251.61136,51.68291C252.47263,51.2014 253.42203,51.25758 254.3327,51.25758C255.01137,51.25758 255.98987,51.25758 257.01135,51.25758C257.81137,51.25758 258.71136,51.25758 259.57538,51.25758C260.44736,51.25758 261.45044,51.00041 262.30685,51.26208C263.05075,51.48937 262.61066,52.43283 261.82602,52.82158C260.9371,53.26197 259.65308,53.48942 260.23288,54.13624C260.78693,54.75431 261.66397,55.05775 262.51135,55.23674C263.39218,55.4228 264.3179,55.15062 265.21136,55.25891C266.13113,55.37039 266.6676,56.05651 267.61136,56.24691C268.49411,56.425 269.40448,56.54753 269.89005,57.35741C270.32758,58.08718 270.74927,58.86779 271.44736,59.22158C272.21872,59.61249 273.21136,59.25758 274.11136,59.25758C275.01135,59.25758 275.75797,58.93995 276.29538,58.34158C276.86877,57.70313 277.54922,57.42196 278.41138,57.24691C279.35077,57.05618 279.95657,56.26308 280.71585,56.25758C281.65591,56.25076 282.01068,57.05891 282.01135,57.95758C282.01202,58.85758 282.01135,59.75758 282.01135,60.65758C282.01135,61.55758 282.01135,62.45624 282.01135,63.34158C282.01135,64.25758 282.18945,64.95152 283.01135,65.25758C283.91022,65.59229 284.24768,66.34711 284.71585,67.01474C285.33115,67.8922 285.66663,68.59875 286.41138,69.20691C287.07465,69.74854 287.62854,70.42384 287.89005,71.23608C288.14917,72.04087 288.68225,72.72352 289.4007,73.23225C290.05673,73.6968 290.01135,74.65758 290.01135,75.55758C290.01135,76.45758 290.01135,77.35757 290.01135,78.25758C290.01135,79.05758 290.01135,79.95758 290.01135,80.89358C290.01135,81.74024 290.01135,82.68824 290.01135,83.61924C290.01135,84.57891 290.01135,85.25758 290.01135,86.23608C290.01135,87.05624 290.01135,87.95758 290.01135,88.85757C290.01135,89.75758 290.01135,90.65758 290.01135,91.55758C290.01135,92.45625 290.01141,93.36741 290.01135,94.27841C290.01126,95.23608 289.93307,95.94209 289.51135,96.77841C289.11267,97.56904 289.01669,98.4322 289.01135,99.37357C289.00699,100.14156 288.97562,101.08354 289.01135,102.09091C289.03998,102.89743 289.92761,103.41187 290.01135,104.25758C290.09018,105.05369 290.1951,105.98408 289.97537,106.85757C289.75833,107.72041 289.10764,108.46303 288.92737,109.22824C288.7388,110.02869 288.57901,110.79796 288.01135,111.92424C287.66348,112.61443 286.92203,113.18468 286.44736,113.85757C285.92902,114.59238 285.84323,115.62022 285.01135,116.09091C284.28171,116.50375 283.56229,116.86494 282.70688,117.20491C281.88013,117.53349 280.89374,117.62837 280.25421,118.35741C279.70023,118.98893 278.85754,118.9352 278.13269,119.47891C277.48969,119.96122 276.75409,120.09389 275.91138,120.47891C275.24207,120.78471 274.38797,121.23918 273.61136,121.68291C272.88733,122.09658 271.97037,122.07616 271.21136,122.34291C270.35541,122.64373 269.65869,123.25758 268.78986,123.47908L268.30685,123.96207" id="svg_3" stroke-width="3" stroke="#000" fill="none"/>
  <path t="18334,18477,18509,18509,18549,18549,18565,18565,18605,18630,18702,18734,18734,18797,18853,18862,18878,18887,18894,18910,18911,18918,18919,19006,19014,19024,19041,19041,19047,19054,19055,19086,19093,19102,19109,19117,19132,19406,19550,19558,19574,19614,19622,19622,19757,19765,19829,19869,19877,20037,20085,20093,20109,20118,20125,20134,20140,20270,20286,20294,20325,20342,20349,20365,20388,20404,20404,20412,20428,20428,20477,20477,20485,20549,20557,20558,20606,20614,20646,20702,20711" d="M247.01137,51.25758C246.43669,52.82158 246.06601,53.70504 245.97537,54.47891C245.85951,55.46805 245.46562,56.22027 245.17802,57.09091C244.91632,57.88315 244.33887,58.53937 243.79002,59.13624C243.20148,59.77628 242.75047,60.4795 242.21004,61.05758C241.63632,61.67124 240.73399,61.94005 239.92737,62.34291C239.17841,62.71697 238.5041,63.14925 237.60069,63.26824C236.67398,63.3903 236.04749,63.86912 235.03287,64.13608C234.23122,64.347 233.28368,64.06915 232.41136,64.29358C231.54514,64.51643 230.91217,65.35838 230.41136,65.85757C229.71248,66.55421 228.96495,66.97421 228.21136,67.34158C227.37726,67.7482 227.02937,68.65704 227.01137,69.55758C226.99338,70.4574 227.01137,71.35757 227.01137,72.25758C227.01137,73.13625 226.95325,73.96155 226.51137,74.75758C226.06758,75.55705 225.957,76.45924 226.01154,77.35757C226.05426,78.06145 226.47717,78.92295 226.98604,79.64691C227.48883,80.36224 228.19888,80.98985 227.97537,81.85757C227.75464,82.71451 226.29836,82.63599 226.09804,83.34291C225.89575,84.05679 227.39627,84.4995 227.89003,85.35741C228.31447,86.09487 228.87479,86.58363 229.43669,87.23225C229.946,87.82015 230.01137,88.65758 230.01137,89.55758C230.01137,90.45758 230.01137,91.35757 230.01137,92.25758C230.01137,93.17491 229.8989,93.98785 230.09669,94.77491C230.32005,95.66368 231.23868,96.27053 231.65421,97.01474C232.11531,97.84058 231.96391,98.64743 232.43669,99.62157C232.81409,100.39919 233.37326,100.99541 234.16071,101.28291C234.99193,101.5864 235.51137,102.25758 236.06403,102.90491L236.8127,103.25624L237.71136,103.25758" id="svg_4" stroke-width="3" stroke="#000" fill="none"/>
  <path t="33087,33902,33910,33926,33940,33950,33950,33956,34270,34301,34302,34326,34382,34399,34606,34614,34629,34717,34790,34806,34854,34893,34894,34981,34997,35005,35317,35318,35486,35502,35510,35511,35521,35527,35541,35541,35766,35774,35838,35846,35871,35894,35918,36133,36134,36207,36215,36231" d="M250.01137,93.25758C250.65869,92.55308 250.99298,91.63418 251.43669,90.85757C251.85037,90.13354 251.98601,89.25717 252.01137,88.45758C252.03996,87.55622 252.50169,86.72657 253.21136,86.05891C253.78775,85.51665 254.61131,85.26291 255.51137,85.25758C256.41135,85.25224 257.31137,85.25758 258.21136,85.25758C259.11121,85.25758 260.07822,85.07841 260.81268,85.34291C261.7121,85.66682 262.35153,86.36338 262.8447,87.25758C263.21045,87.92075 263.86761,88.26649 264.61136,88.86824C265.26443,89.39664 265.73105,90.30827 266.09537,90.97224C266.48578,91.68378 265.91751,92.19669 265.01135,92.25758C264.21317,92.31121 263.31137,92.25758 262.37537,92.25758C261.52869,92.25758 260.72119,92.25758 259.72604,92.25758C258.81137,92.25758 257.90698,92.16889 257.01135,92.25758C256.16568,92.34132 255.72937,93.21485 254.91136,93.25758C254.01259,93.30452 253.21136,93.25758 252.31137,93.25758L251.41136,93.29358L250.62202,93.68291" id="svg_7" stroke-width="3" stroke="#000" fill="none"/>
  <path t="38767,39222,39262,39302,39310,39390,39558,39646,39646,39670,39703,39748" d="M252.01137,75.25758C252.01137,76.95758 252.01137,77.85757 252.01137,78.75758C252.01137,79.65758 251.90431,80.56413 252.0127,81.45758C252.12425,82.3772 252.8127,82.97224 253.61136,83.24691L254.51137,83.25758L255.41136,83.25758" id="svg_9" stroke-width="3" stroke="#000" fill="none"/>
  <path t="41719,42285,42285,42293,42383,42390,42941,42942,43206,43206,43238,43286,43294,43294" d="M259.01135,74.25758C260.01135,73.25758 260.81137,73.25758 261.71136,73.25758C262.61136,73.25758 263.53238,73.24086 264.3327,73.25774C265.18658,73.27576 266.08926,73.60619 266.81003,73.97358C267.61975,74.38631 267.8447,75.09091 267.01135,75.25758L266.21136,75.25758" id="svg_10" stroke-width="3" stroke="#000" fill="none"/>
  <path t="44271,44598,44710,44830,44846,44846,45494,45502,45518,45542,45542,45552,45552,45558" d="M242.01137,80.25758C243.71136,80.20041 244.46045,79.65022 245.31587,79.31024C246.14259,78.98168 247.32108,79.01804 247.7682,78.15775C248.12744,77.46655 246.91072,77.22367 246.01137,77.25758C245.25258,77.28618 244.3632,77.61475 243.72119,77.96207L243.0322,78.73674" id="svg_11" stroke-width="3" stroke="#000" fill="none"/>
  <path t="46680,46757,46757,46765,46790,46871,46944,46944,47093,47214,47224,47239,47758,47758,47775,47789" d="M260.01135,73.25758C261.01135,73.25758 261.81137,73.25758 262.71136,73.25758C263.61136,73.25758 264.5322,73.25758 265.49402,73.25758C266.30154,73.25758 267.27502,73.81928 266.57538,74.22158C265.82571,74.65264 264.81003,74.25758 263.8447,74.25758L263.05304,74.23674L262.51938,73.83224L263.30685,73.31474" id="svg_12" stroke-width="3" stroke="#000" fill="none"/>
  <path t="50777,51238,51270,51270,51326,51390,51406,51502,51622,51662,51710,51710,51790,51910,51950,52006,52030,52213,52294,52302,52310,52333,52341,52341,52373,52630,52630,52638,52655,52662,52893" d="M250.01137,102.25758C250.44736,103.69358 251.02213,104.47637 251.71136,104.90041C252.53276,105.40575 253.51137,105.25758 254.41136,105.25758C255.31137,105.25758 256.21136,105.25758 257.11136,105.25758C258.01135,105.25758 258.81155,105.27594 259.72604,105.25758C260.62259,105.23958 261.32932,104.66843 262.11136,104.37907C262.9631,104.06394 263.61856,103.77442 264.29669,103.34291C265.07175,102.84974 266.11575,103.34626 267.01135,103.25758C267.85706,103.17384 267.94406,102.36774 268.02203,101.43224C268.10675,100.41576 268.5322,99.79924 269.30685,99.31024L269.97537,98.82158L270.01135,97.85757L270.01135,96.95758" id="svg_13" stroke-width="3" stroke="#000" fill="none"/>
  <path t="54111,54230,54230,54238,54254,54374,54374,54390,54390,54437,54455,54463,54614,54645,54677,54685,54693,54742,54751,54758,54782" d="M250.01137,112.25758C251.01137,112.25758 251.81154,112.24028 252.71136,112.25758C253.64789,112.27558 254.51588,112.50249 255.18604,112.86824C256.15927,113.39941 256.66,114.06508 257.61136,114.24691C258.49542,114.41588 259.4007,114.26825 260.01135,114.75758C260.62204,115.24692 261.51135,115.25983 262.41138,115.25758C263.30685,115.25533 263.98602,114.83224 264.58603,114.23225L265.06403,113.61024L265.81268,113.17358" id="svg_14" stroke-width="3" stroke="#000" fill="none"/>
  <path t="56647,56862,56869,56870,56878,56885,57126,57134,57134,57142,57142,57150,57150,57277,57285,57293,57293,57293,57301,57316,57316,57422,57422,57430,57430,57438,57438,57452,57455,57517,57526,57526,57534,57613,57621,57622,57684,57684,57692,57700,57700,57709,57732,57732,57756,57756,57765,57773,57797,57805,57829,57829,57933,57941,57941,57950,57951,57957,57958,57980,57980,58077,58085,58150,58150,58166,58166,58174,58175,58237,58245,58245,58255,58266,58279,58293,58308,58526,58534,58589,58590,58622,58637,58661,58669,58717,58733,58748,58804,58862,58886,58918,58934,58943,58943,58950,58958,58966,58997,59005,59013,59028,59045,59053,59053,59069,59069,59078,59079,59085,59212" d="M282.01135,122.25758C282.8902,121.47908 283.31274,122.3055 284.01135,122.73674C284.80948,123.22941 285.59317,123.36697 286.12119,123.96207C286.806,124.73388 287.4151,124.96819 288.41003,125.45625C289.17142,125.82973 290.16742,126.05324 290.81003,126.34158C291.65765,126.72192 291.90161,127.7226 292.45404,128.5789C292.80557,129.12379 293.50574,129.73929 293.95004,130.62158C294.35733,131.43036 294.87769,132.09044 295.66852,132.55757C296.39838,132.98868 297.24518,133.2986 297.9697,133.75758C298.81366,134.29225 299.13397,135.03433 299.58603,135.85757C300.01425,136.63745 299.8797,137.60764 300.2327,138.35757C300.59772,139.1331 301.00909,139.95757 301.01135,140.77841C301.01398,141.74025 300.79932,142.62552 301.2327,143.47908C301.57776,144.15866 301.99371,144.9079 302.29538,145.74158C302.61411,146.62234 302.84747,147.5443 303.2327,148.35774C303.56784,149.06541 303.97531,149.90897 304.00687,150.6049C304.05292,151.62065 304.29187,152.661 305.01135,153.09091C305.78183,153.5513 305.84811,154.29242 306.09671,155.05757C306.35367,155.84846 306.91068,156.74562 307.03671,157.46825C307.20999,158.46167 307.47052,159.2744 308.01135,160.09091C308.46237,160.77185 309.23016,161.26834 309.65421,161.95758C310.15955,162.77898 310.01135,163.77841 310.01135,164.7429C310.01135,165.46825 309.94485,166.46205 310.0322,167.23674C310.14636,168.24959 310.71475,168.93132 311.01135,169.77841C311.2858,170.56229 311.68304,171.40199 311.88986,172.23592C312.12494,173.18378 312.06949,173.96156 312.51135,174.75758C312.95514,175.55705 313.01135,176.45758 313.01135,177.35757C313.01135,178.25758 313.47693,179.23711 312.92603,179.97224C312.46411,180.58864 311.14249,179.77325 310.36853,180.31474C309.63461,180.82822 309.18396,180.847 308.36853,181.31474C307.68076,181.70926 307.40417,182.74074 306.72604,183.17224C305.95099,183.66541 304.91138,183.25758 304.01135,183.25758C303.21136,183.25758 302.31137,183.25758 301.41138,183.25758C300.5322,183.25758 299.57538,183.25758 298.71136,183.25758C297.81137,183.25758 296.81281,183.05966 296.09402,183.54158C295.43491,183.98351 294.78812,184.17279 293.89536,184.54158C293.08093,184.87801 292.18604,185.22157 291.49536,185.25624L290.45804,185.25758L289.5647,185.26825" id="svg_15" stroke-width="3" stroke="#000" fill="none"/>
  <path t="60687,60813,60822,60830,60839,60847,60853,60869,60879,60895,60895,60900,60932,60940,60940,61029,61029,61037,61046,61093,61101,61114,61116,61198,61198,61206,61206,61215,61325,61326,61334,61334,61342,61343,61349,61359,61359,61359,61365,61373,61388,61388,61388,61396,61397,61501,61513,61517,61525,61526,61534,61549,61564,61565,61573,61589,61589,61597,61597,61613,61621,61637,61637,61645,61653,61765,61773,61774,61783,61783,61789,61790,61797,61797,61806,61812,61933,61941,61950,61990,61990,61997,61998,62007,62086,62086,62093,62094,62245,62245,62253,62326,62326,62334,62343,62343,62446,62446,62453,62470,62621,62621,62622,62637,62637,62702,62702,62719,62720,62773,62773,62797,62869,62894,62916,62941,62964,63004,63006,63036,63076,63190,63221,63229,63230,63239,63239,63246,63246,63246,63253,63253,63566,63574,63582,63582,63583,63590,63591,63591,63591,63591,63598,63598,63599,63599,63599,63606,63606,63821,63830,63838,63847,63894,63918,63933,63997,64222,64222,64230,64230,64238,64239,64246,64246,64246,64247,64254,64255,64485,64494,64494,64495,64502,64502,64502,64512,64513,64519,64520,64548,64548,64556,64564,64564,64573,64573,64573,64581,64582,64582,64589,64590,64718,64725,64726,64734,64734,64735,64735,64742,64742,64743,64743,64743,64743,64749,64749,64749,64749,64757,64757,64757,64885,64893,64893,64902,64902,64902,64913,64913,64914,64914,64918,64919,64919,64928,64929,65157,65165,65174,65175,65181,65182,65190,65190,65526,65526,65534" d="M310.01135,183.25758C311.0322,183.25758 311.99484,183.15923 312.92737,183.25758C313.74084,183.34338 313.79031,184.37021 314.29538,185.08824C314.78058,185.77803 314.8797,186.60764 315.2327,187.35757C315.59772,188.1331 316.25345,188.69331 316.8447,189.42424C317.40918,190.12206 317.61935,190.86023 318.31137,191.55757C318.80945,192.05949 319.68524,192.67291 319.95419,193.55757C320.21616,194.4192 320.3829,195.18356 321.01135,195.75758C321.60449,196.29936 321.90698,196.98141 322.09537,197.86024C322.31027,198.86285 322.61447,199.67174 323.41138,200.19624C324.14011,200.67587 324.83295,201.13058 325.31137,201.91025C325.73059,202.59346 326.19263,203.38913 326.81137,204.05624C327.3942,204.68463 328.01825,205.4201 328.41138,206.08292C328.81854,206.76936 329.61111,207.52194 329.92603,208.45891C330.23477,209.3775 329.95862,210.10245 330.09671,210.85892C330.28079,211.86739 330.69183,212.72885 331.36404,213.26207C331.95712,213.73251 332.36444,214.56134 333.01135,215.25758C333.57187,215.86086 334.0257,216.61591 334.51135,217.27841C334.99557,217.93898 334.90372,218.7831 335.0322,219.75758C335.14273,220.59581 335.47668,221.29263 336.11121,222.23608C336.53934,222.87268 336.86017,223.67023 337.01587,224.55757C337.17883,225.48619 337.87363,226.00337 338.4007,226.65758C339.00113,227.40286 338.8414,228.40646 339.17804,229.25758C339.45596,229.96022 339.85233,230.75685 340.06403,231.6049C340.29346,232.52402 340.89465,233.06143 341.65955,233.55757C342.4386,234.06288 343.1228,234.71707 343.65869,235.31024C344.17328,235.87981 344.49283,236.8096 345.31137,237.20491C346.17819,237.62354 346.75912,237.97638 347.65955,238.55757C348.29507,238.96779 348.85736,239.70441 349.29669,240.45891C349.72781,241.19934 350.27667,241.92268 350.72604,242.68825C351.20148,243.49823 351.75204,244.05017 352.03671,244.89357C352.32022,245.7336 352.69836,246.59264 352.95871,247.50491C353.21808,248.41376 353.52951,249.05016 353.8447,250.09091C354.06842,250.82971 353.93375,251.76097 354.01135,252.64691C354.095,253.60185 354.5332,254.29874 354.81268,254.86024C355.30865,255.85669 355.74127,256.63788 355.92603,257.65756C356.06927,258.44818 356.01135,259.4574 356.01135,260.23676C356.01135,261.09091 356.02286,261.95313 356.01135,262.90042C356.00095,263.75775 355.38409,264.25171 354.61136,264.68292C353.79248,265.13989 352.8508,265.05939 352.01135,265.42426C351.32681,265.72177 350.89957,266.81857 350.06403,267.20041C349.37338,267.51602 348.37537,267.25757 347.52603,267.25757C346.60687,267.25757 345.59818,267.34595 344.81137,267.18558C343.98672,267.01749 343.2085,266.41113 342.66852,265.90573C341.87622,265.16418 341.31815,264.55975 340.71585,263.96207C340.01801,263.26956 339.3421,262.82132 338.70337,262.37491C338.17535,262.00589 337.00168,261.10187 336.41138,260.57092C335.80118,260.02206 335.49927,259.72739 334.91138,259.09592C333.9921,258.10849 333.41071,257.37894 332.8327,256.65356C332.55142,256.30054 332.04315,255.61055 331.15454,254.52225C330.70279,253.96898 330.02179,253.25778 330.01135,252.45624C329.99966,251.55765 330.01135,250.65758 330.01135,249.75758C330.01135,248.85757 330.01135,247.95758 330.01135,247.05757C330.01135,246.15741 330.10052,245.36597 329.99002,244.43225C329.90698,243.73051 329.12595,242.87598 328.5452,242.44774C327.84134,241.92874 327.05759,241.26254 326.55304,240.75758C326.06845,240.27261 325.31647,239.20413 324.93002,238.46025C324.53976,237.70905 323.91788,236.93202 323.49054,236.23674C323.13162,235.65279 322.54898,234.83687 321.99054,234.27841C321.4321,233.71996 320.39209,233.04375 319.84735,232.63225C318.99249,231.9865 318.56497,231.23618 318.01135,230.42424C317.55832,229.75983 317.19812,228.86177 316.67804,228.25758C316.11536,227.6039 315.15137,227.11224 314.76404,226.6004C314.21967,225.88101 313.70425,225.04527 313.18604,224.46825C312.67767,223.90219 311.97397,223.04256 311.21271,222.54425C310.43237,222.03345 310.05563,221.35767 309.90152,220.73424C309.62122,219.60025 309.31378,218.9341 308.92804,218.23674C308.51505,217.49014 307.68665,216.41634 307.36868,216.0789C306.72308,215.39377 306.00845,214.76067 305.66202,214.43225C304.97357,213.77963 304.03714,212.74887 303.5257,212.01392C303.03629,211.31061 302.68045,210.5791 302.01135,209.75758C301.46655,209.08867 300.60019,208.89719 300.1257,207.95308C299.73514,207.17598 300.10175,206.18726 299.67804,205.25758C299.38327,204.61082 298.79242,204.05524 298.01135,203.25758C297.41766,202.65131 296.98557,202.27176 296.4967,201.57225C295.82999,200.61821 295.56253,199.76479 295.21271,199.02692C294.75064,198.05229 294.03308,197.59091 293.63269,196.85757C293.18707,196.04137 293.76703,195.06569 293.53937,194.43225C293.15451,193.36137 292.4155,192.8047 292.13269,191.93625C291.91922,191.2807 291.79004,190.27908 291.36404,189.56207L290.98602,188.65758" id="svg_16" stroke-width="3" stroke="#000" fill="none"/>
  <path t="66841,66894,66911,66927,66942,66942,67046,67062,67078,67093,67100,67117,67127,67133,67141,67148,67157,67173,67180,67189,67326" d="M334.01135,247.25758C335.81137,247.25758 336.67889,247.3349 337.41138,246.82158C338.20139,246.26793 338.70465,245.01314 339.57538,245.30424C340.3215,245.5537 340.01135,246.85757 340.01135,247.75758C340.01135,248.65758 340.01135,249.55757 340.01135,250.45758C340.01135,251.35757 340.01135,252.25758 340.01135,253.13625C340.01135,253.96208 340.01135,254.85757 340.01135,255.75758L340.01135,256.65756L340.01135,257.55759" id="svg_17" stroke-width="3" stroke="#000" fill="none"/>
  <path t="67847,68078,68094,68110,68126,68158,68334,68334" d="M346.01135,252.25758C346.01135,253.86824 346.01135,254.75758 346.01135,255.65758C346.01135,256.55759 346.01135,257.45892 346.01135,258.42426L346.01135,259.25757" id="svg_18" stroke-width="3" stroke="#000" fill="none"/>
  <path t="71463,71709,71717,71742,71742,71742,71764,71765,71773,71773,71925,71933,71943,71950,72053,72061,72061,72070,72246,72246,72254,72263,72263,72429,72437,72446,72662,72708,72740,72772,72780,72821,72861,72861,72869,73085,73125,73134,73157,73157,73175,73237,73253,73277,73301,73349,73365,73404,73428,73468,73581,73629,73629,73645,73646,73678,73949,74038,74054,74085,74124,74141,74261,74462,74470,74478,74486,74494,74509,74509,74533,74533,74541,74541,74558,74576,74717,74773,74782,74862,74925,74989,74990,75037,75054,75061,75061,75070,75085,75109,75109,75117,75150,75166,75206,75230,75573,75589,75598,76469,76485,76493,76494,76501,76519,76526,76527,76543,77125,77126,77366,77405,77406,77429,77574,77590,77598,77599,77609,77610,77615,77638,77638,77677,77926,77926,77990,78141,78142,78157,78205,78302,78310,78374,78453,78589" d="M190.01137,114.25758C188.31137,114.20041 187.50458,113.65807 186.67802,113.42424C185.78493,113.17159 184.97993,113.33179 183.9807,112.97358C183.22363,112.70218 182.28516,112.54064 181.5807,112.17358C180.80437,111.76905 180.47375,110.8051 179.71587,110.31024C179.02046,109.85619 178.40436,109.32911 177.81137,108.68958C177.21164,108.04276 176.64311,107.49603 175.81137,106.97224C175.14172,106.55054 174.56581,105.88092 174.01137,105.09091C173.5739,104.46758 173.05937,103.42731 172.17802,103.25758C171.41472,103.11058 170.24733,103.12392 170.01137,103.69358C169.64247,104.5842 170.01137,105.55758 170.01137,106.45758C170.01137,107.35757 170.01137,108.25758 170.01137,109.05758C170.01137,109.95758 170.17957,110.8774 169.99052,111.75758C169.80916,112.60199 168.91899,113.19542 168.21136,113.25624C167.31468,113.33331 166.41136,113.25758 165.51137,113.25758C164.61136,113.25758 163.71136,113.25758 162.81137,113.25758C161.91136,113.25758 160.77769,112.84256 160.13286,113.47891C159.56032,114.04391 159.14613,114.56032 158.8447,115.42424C158.61351,116.08681 157.89291,116.76723 157.29669,117.34024C156.61638,117.99408 155.85106,118.55341 156.0127,119.45625C156.15807,120.2682 157.21136,120.25758 158.11136,120.25758C159.01137,120.25758 159.92821,120.22131 160.71587,120.25758C161.64365,120.30029 161.31284,120.97263 160.62202,121.64691C159.9599,122.29319 159.13924,122.69333 158.40869,123.05891C157.61256,123.45731 156.79707,123.78367 156.03304,124.35757C155.31985,124.89328 154.89986,125.63139 154.36403,126.31024C153.90617,126.8903 153.84314,127.87741 154.0322,128.75758C154.21356,129.60199 155.10524,130.1967 156.01137,130.25758C156.80957,130.31122 157.81425,130.33943 158.51137,129.71591C159.24448,129.0602 159.65393,128.3438 159.92603,127.42691C160.15944,126.64037 159.77939,125.72343 160.06853,124.96741C160.4117,124.07014 161.15259,123.42599 162.01137,123.27841C162.937,123.11935 163.45564,122.65015 164.21004,122.06024C164.86877,121.54514 164.85645,122.5791 165.06853,123.36741C165.28593,124.17551 165.90903,125.08044 166.0007,125.84691C166.10892,126.75167 166.49542,127.501 166.8447,128.42424C167.07938,129.04457 167.25244,129.97952 168.01137,130.42424C168.74652,130.85503 168.83002,130.1041 169.17802,129.25758C169.45392,128.5865 169.86938,127.52652 170.62202,127.26824C171.46373,126.9794 172.27696,127.79496 172.57536,128.47891C172.98633,129.42085 172.68887,130.41702 173.36853,131.14775C174.0025,131.82936 174.81166,132.05862 175.41136,132.65758C176.11154,133.35689 176.86607,133.92801 177.01137,133.17358C177.1846,132.27411 177.12904,131.47649 177.58603,130.65758C178.01724,129.88484 178.51137,129.25758 179.0367,128.68291L179.72737,128.17358L180.01003,127.45625L180.09669,126.54291" id="svg_19" stroke-width="3" stroke="#000" fill="none"/>
  <path t="79537,79725,79726,80077,80078,80085,80093,80094,80094,80102,80102,80109,80109,80132,80132,80132,80357,80366,80367,80374,80382,80477,80614,80622,80630,80646,80669,80669,80676,80685,80693,80854,80918,80974,80998,81278,81286,81294,81294,81304,81397,81398,81405,81422,81422,81501,81501,81509,81519,81581,81589,81589,81597,81597,81606,81789,81789,81837,81845,81854,81854,81861,81892,81916,81957,81965,81965,82077,82086,82125,82197,82213,82224,82366,82398,82469,82501,82518,82519,82533,82573,82589,82597,82607,82670,82686,82686,82702,82765,82766,82813,82981,82990,82997,83054,83062,83174" d="M182.01137,125.25758C183.84737,124.30424 184.62949,124.28798 185.60686,124.61024C186.3698,124.8618 187.40331,125.17142 188.17802,125.42424C189.05708,125.71111 189.60068,126.08397 190.61136,126.55308C191.40245,126.92027 192.21228,127.13039 193.01137,127.25758C194.01256,127.41692 194.78702,127.71972 195.52603,127.97358C196.49585,128.30673 197.4882,128.55922 198.18604,128.83224C199.11575,129.19598 199.98604,129.25758 200.8127,129.25758C201.71136,129.25758 202.63055,129.09236 203.51137,129.27841C204.35876,129.4574 205.14459,130.04562 205.81137,130.34158C206.66914,130.72232 207.4527,131.14143 208.21136,131.54158C209.06975,131.99431 209.89003,132.25758 210.71587,132.25758C211.61136,132.25758 212.52448,132.40033 213.41136,132.24692C214.24483,132.10274 214.81175,131.45663 215.51137,130.75758C216.11153,130.15791 216.75113,129.46649 217.0367,128.62158C217.32057,127.78168 217.70003,127.11658 217.92603,126.14158C218.10048,125.38895 218.01137,124.44291 218.01137,123.42691C218.01137,122.61091 218.01137,121.77224 218.01137,120.85307C218.01137,119.85891 217.92441,119.08947 218.0127,118.14291C218.09634,117.24616 218.97179,116.61591 218.9697,115.75758C218.96761,114.89762 218.09201,114.15707 217.41136,113.69358C216.60773,113.14634 215.65421,113.25758 214.81137,113.25758C213.91136,113.25758 213.01137,113.25758 212.21136,113.25758C211.31137,113.25758 210.47704,113.16577 209.97537,112.68291C209.40625,112.1351 208.41136,112.25758 207.51137,112.25758C206.61136,112.25758 205.71136,112.25758 204.81137,112.25758C203.91136,112.25758 203.01137,112.25758 202.21136,112.25758C201.31137,112.25758 200.36853,112.25758 199.49052,112.25758C198.61136,112.25758 197.71136,112.25758 196.81137,112.25758C195.91119,112.25758 195.12604,112.25758 194.18604,112.25758C193.17802,112.25758 192.40244,112.08939 191.51137,112.27841C190.6682,112.45728 190.01137,113.23674 189.21004,113.25758L188.31137,113.25758L187.41136,113.29358L186.61136,113.68291" id="svg_20" stroke-width="3" stroke="#000" fill="none"/>
  <path t="86270,86365,86373,86373,86373,86384,86384,86384,86397,86397,86397,86406,86421,86428,86428,86630,86677,86695,86702,86733,86749,86765,86813,86853,86878,86886,86910,86990,87006,87189,87221,87221,87221,87229,87230,87381,87382,87390,87390,87461,87469,87478,87502,87509,87573,87582,87582,87597,87605,87612,87628,87636" d="M206.01137,133.25758C205.01137,134.29924 204.87404,135.26793 204.57536,136.06824C204.3306,136.72409 203.90846,137.67783 203.61136,138.48291C203.30841,139.30383 202.9113,140.3358 202.62202,141.01091C202.29643,141.7708 202.13623,142.66823 201.65869,143.55757C201.25699,144.30569 200.9933,145.05775 201.01137,145.95758C201.02873,146.82216 201.71597,147.27205 202.61136,147.25758C203.57591,147.242 203.86235,146.52606 204.44736,145.86824C205.06351,145.1754 206.24352,145.50183 206.92737,144.97357C207.55486,144.48886 208.33328,144.45349 209.21004,144.25624C210.01289,144.07561 209.92062,143.01529 210.17802,142.09091C210.37051,141.39963 210.77162,140.66551 210.95869,139.66208C211.09702,138.92015 211.38055,138.01846 211.8127,137.37358C212.42871,136.45432 212.90038,135.92784 213.57536,135.2429C214.18819,134.62105 214.79205,134.13828 215.61136,133.68291C216.39314,133.2484 217.40594,133.10672 217.8447,132.25758C218.17455,131.61922 218.01137,130.65758 218.01137,129.75758L218.01137,128.85757L218.01137,127.95758L218.0127,127.05758" id="svg_21" stroke-width="3" stroke="#000" fill="none"/>
  <path t="88504,88581,88582,88653,88813,89165,89261,89261,89645,89645,89653,89653,89671,89822,89830,89846,89846,89997,89997,90013,90142,90142,90150,90150,90158,90167,90509" d="M217.01137,113.25758C218.01137,112.25758 218.80247,112.15807 219.57536,111.68291C220.28873,111.24435 221.26074,111.40347 222.11153,111.03625C222.83044,110.72594 223.67404,110.34382 224.41586,110.20491C225.41817,110.01723 226.22093,109.7325 226.84203,109.05891C227.45998,108.38873 228.28059,108.44637 229.11119,108.03625C229.81877,107.68687 230.5807,107.25758 231.3632,107.25758C232.38603,107.25758 233.3327,107.25758 234.01137,107.25758C234.98987,107.25758 235.81003,107.25758 236.71136,107.25758L237.61136,107.25758L238.51137,107.25758" id="svg_22" stroke-width="3" stroke="#000" fill="none"/>
  <path t="92536,92622,92630,92677,92685,92685,92693,92693,92701,92708,92709,92709,92717,92724,92724,93022,93046,93061,93117,93141,93157,93173,93173" d="M204.01137,145.25758C205.81137,145.25758 206.62094,145.14429 207.5322,145.27841C208.51945,145.42372 209.31091,145.78621 209.76852,146.57875C210.1971,147.321 210.50223,148.13568 211.3327,148.70024C211.86897,149.06479 212.49278,149.75255 213.37537,150.19624C214.18396,150.60275 214.73604,151.14656 215.51137,151.73674C216.24583,152.29581 216.99336,152.68234 217.01137,153.54291C217.0305,154.45738 217.01137,155.35757 217.01137,156.25758L217.01137,157.05757" id="svg_23" stroke-width="3" stroke="#000" fill="none"/>
  <path t="94719,94798,94798,94805,94806,94806,94814,94822,94822,94822,94830,94830,94830,94838,94838,94846,94846,94855,94855,94863,94875,94879,94879,94892,94900,94924,94949,94957,94973,94981,94989,95005,95013,95020,95037,95045,95069,95085,95086,95101,95117,95125,95134,95142,95150,95189,95205,95221,95284,95284,95292,95309,95317,95317,95333,95342,95350,95350,95358,95358,95373,95374,95381,95382,95389,95398,95429,95436,95454,95469,95486,95486,95503,95503,95517,95525,95541,95557,95612,95830,95869,95878,95893,95917,95926,95934,95934,95941,95942,95942,95950,95950,95959,95960,95966,95967,95973,95974,95981,95981,95988,95988,95996,96004,96004,96012,96012,96012,96020,96028,96028,96132,96133,96141,96141,96149,96157,96157,96165,96165,96228,96228,96236,96245,96245,96253,96270,96277,96286,96287,96294,96304,96356,96372,96389,96390,96397,96413,96413,96508,96517,96517,96525,96526,96542,96636,96644,96645,96653,96653,96661,96662,96668,96668,96676,96685,96692,96708,96716,96716,96724,96894,97190,97198,97206,97207,97207,97214,97215,97221,97269,97278,97294,97294,97341,97342,97350,97357,97373,97374,97374,97420,97429,97436,97436,97436,97445,97452,97500,97510,97510,97520,97520,97581,97581,97589,97597,97598,97605,97605,97613,97637,97637,97645,97653,97654,97662,97662,97670,97671,97679,97679,97679,97687,97702,97709,97709,97718,97718,97733,97733,97805,97805,97821,97821,97852,97852,97973,97981,97997,98029,98045,98053,98053,98062,98070,98078,98087,98094" d="M215.01137,156.25758C215.02203,158.10425 215.06299,158.95157 215.29536,159.94025C215.48419,160.74362 215.81143,161.4722 215.95419,162.44774C216.09583,163.4156 216.00101,164.30313 216.09669,164.94424C216.2468,165.95003 216.53641,166.75136 216.72737,167.57358C216.95779,168.56567 216.94916,169.46793 217.23286,170.45741C217.46295,171.25992 218.04253,172.06892 218.49052,172.73674C218.9597,173.43613 219.01137,174.35757 219.01137,175.25758C219.01137,176.05757 219.01137,176.95758 219.01137,177.85757C219.01137,178.75758 219.01137,179.65758 219.01137,180.55757C219.01137,181.45758 219.01137,182.35741 219.01137,183.28291C219.01137,184.05891 219.01137,184.95758 219.01137,185.85757C219.01137,186.75758 218.91736,187.70467 219.36403,188.55757C219.75798,189.30981 220.0107,190.05757 220.01137,190.95758C220.01204,191.85757 220.01137,192.75758 220.01137,193.65758C220.01137,194.55757 219.84929,195.55762 220.36403,196.20491C220.85637,196.82402 221.51187,197.47638 221.8447,198.25758C222.16489,199.00911 222.01137,199.95758 222.01137,200.89357C222.01137,201.74025 222.01137,202.54774 222.01137,203.61475C222.01137,204.45891 222.01137,205.42424 222.01137,206.25758C222.01137,207.09091 222.01724,208.03377 221.65421,208.91025C221.35699,209.62778 220.68791,210.29396 220.29669,211.05624C219.86563,211.89616 220.01137,212.82158 220.01137,213.69357C220.01137,214.65758 220.01137,215.55757 220.01137,216.45758C220.01137,217.25758 220.05663,218.14452 220.0007,219.08292C219.95938,219.77637 219.3255,220.661 219.06853,221.55757C218.82042,222.4232 219.17134,223.34645 218.92603,224.05891C218.62109,224.94453 217.86823,225.91544 218.62202,226.24692C219.41711,226.59656 220.36853,226.25758 221.31587,226.25758C222.17802,226.25758 223.04938,226.19052 224.01137,226.42424C224.82181,226.62114 225.54344,227.03424 226.2587,227.55757C226.91203,228.0356 227.67751,228.53502 228.3587,228.95758C229.27788,229.52776 229.8821,230.07861 230.66403,230.55757C231.3476,230.97627 232.10759,231.48384 232.76404,231.95758C233.63911,232.58911 234.32727,233.01949 235.2542,233.20041C236.19809,233.38464 237.00305,233.38875 237.77803,233.8269C238.51231,234.24205 239.22649,234.71541 239.84886,235.50041C240.41115,236.20963 240.99059,236.85677 241.99004,237.13608C242.74394,237.34677 243.66403,237.25758 244.52736,237.25758C245.38603,237.25758 246.33781,237.19337 247.22203,237.29358C248.22188,237.40689 248.9487,237.49947 249.67802,238.25758C250.25131,238.85352 250.89803,239.25691 251.8367,239.25758C252.52736,239.25807 253.60069,239.25758 254.51137,239.25758C255.31587,239.25758 256.3327,239.25758 257.01135,239.25758C257.98987,239.25758 259.01135,239.25758 259.8447,239.25758C260.65802,239.25758 261.66403,239.25758 262.3587,239.25758C263.38602,239.25758 264.3327,239.25758 265.01135,239.25758C265.98987,239.25758 267.01135,239.25758 267.76852,239.25758C268.66403,239.25758 269.52737,239.25758 270.49054,239.25758C271.41138,239.25758 272.21402,239.25758 272.98203,239.25758C274.01669,239.25758 274.76071,239.25758 275.86853,239.25758C276.62604,239.25758 277.66403,239.25758 278.3587,239.25758C279.37537,239.25758 280.31137,239.25758 281.21136,239.25758C282.11136,239.25758 283.01135,239.25758 283.81137,239.25758C284.71136,239.25758 285.63165,239.4279 286.51135,239.23674C287.35706,239.05296 287.89438,238.09872 287.97537,237.42157C288.06635,236.66089 288.01135,235.66208 288.01135,234.7429C288.01135,233.79924 288.01135,232.90041 288.01135,231.95308C288.01135,231.09091 288.01135,230.25758 288.01135,229.27908C288.01135,228.45891 288.01135,227.55757 288.01135,226.71591C288.01135,225.71507 288.01135,225.01758 288.01135,224.11092C288.01135,223.09091 288.01135,222.21591 288.01135,221.25758C288.01135,220.46825 288.01135,219.7429 288.01135,218.66824C288.01135,217.75758 288.01135,216.84691 288.01135,215.93608C288.01135,215.23674 288.01135,214.25758 288.01135,213.46825C288.01135,212.42424 288.01135,211.56207 288.01135,210.73674C288.01135,209.77225 288.01135,209.04691 288.01135,208.05774C288.01135,207.09358 288.01135,206.14291 288.01135,205.25758C288.01135,204.45758 288.01135,203.62158 288.01135,202.6004C288.01135,201.85307 288.01135,200.85757 288.01135,200.05757C288.01135,199.05757 288.01135,198.25758 288.01135,197.25758C288.01135,196.46825 288.00436,195.74289 288.01135,194.66824C288.01669,193.84686 288.19308,192.91727 288.5322,192.25758C289.05206,191.24625 289.70087,190.67328 289.92603,189.77225C290.10281,189.06482 290.01135,188.05757 290.01135,187.25758C290.01135,186.25758 290.01135,185.46825 290.01135,184.42424C290.01135,183.61925 290.37003,182.65865 289.99054,181.77841C289.68259,181.06412 288.70016,180.86972 288.17804,180.09091C287.7048,179.38504 288.01135,178.45758 288.01135,177.55757C288.01135,176.65758 288.01135,175.75758 288.01135,174.85757L288.01135,173.96208" id="svg_24" stroke-width="3" stroke="#000" fill="none"/>
  <path t="100127,100222,100222,100229,100229,100238,100246,100247,100254,100254,100318,100326,100327,100336,100373,100374,100384,100384,100390,100390,100399,100399,100421,100422,100468,100477,100500,100501,100516,100517,100533,100533,100543,100549,100572,100573,100582,100582,100701,100709,100725,100941,100949,100957,100958,100958,100966,100973,100982,100982,100989,100989,101006,101013,101014,101030,101038,101046,101061,101077,101093,101101,101133,101133,101149,101165,101165,101205,101229,101252,101269,101285,101285,101324" d="M256.01135,113.25758C258.60236,114.91024 259.25705,115.35269 259.76852,116.23608C260.15625,116.90574 260.5798,117.74606 261.11121,118.57891C261.52942,119.23434 261.73926,120.12486 262.06403,120.95308C262.35684,121.69975 263.21548,122.2776 263.65421,122.95758C264.1395,123.70978 264.32571,124.73148 264.58603,125.46825C264.93079,126.44396 264.86993,127.27699 265.17804,128.09091C265.48843,128.91086 266.3512,129.37244 266.72604,130.14291C267.15149,131.01743 266.53748,131.90677 267.04736,132.81091C267.44662,133.51894 268.26486,133.8448 268.71585,134.60941C269.17819,135.39325 269.77206,135.9792 269.95419,136.91025C270.12027,137.75929 269.91107,138.74332 270.02203,139.66824C270.13336,140.5963 270.6145,141.22371 270.88986,142.23592C271.08536,142.95456 271.63025,143.59988 271.92603,144.45758C272.22076,145.31223 271.5047,146.76424 272.01135,146.76424C273.06052,146.76424 272.01135,145.01758 272.01135,144.32008C272.01135,143.15674 272.01135,142.39624 272.01135,141.42424C272.01135,140.50491 272.01135,139.6049 272.01135,138.91025C272.01135,137.8829 272.01135,136.93625 272.01135,136.08292C272.01135,135.14291 272.01135,134.25758 272.01135,133.37891C272.01135,132.55307 272.01135,131.65758 272.01135,130.75758C272.01135,129.84691 272.01135,128.93625 272.01135,128.08292C272.01135,127.14291 272.01135,126.25758 272.01135,125.45758C272.01135,124.55758 271.8443,123.59466 272.0322,122.73674C272.21378,121.90774 273.01135,121.25758 273.57538,120.65758L273.98602,119.86824" id="svg_25" stroke-width="3" stroke="#000" fill="none"/>
  <path t="104801,104902,104917,104926,104926,104935,104936,104990,104998,105006,105125,105133,105133,105174,105174,105206,105229,105230,105230" d="M281.01135,139.25758C281.01135,140.25758 281.21338,141.01343 282.01135,141.42424C282.68317,141.77013 283.54684,141.9921 284.30154,142.31024C285.23132,142.70219 285.86218,143.21797 286.84204,143.25758C287.65814,143.29057 288.51608,143.50215 289.18604,143.86824C290.15964,144.40025 290.70688,144.95758 291.31586,145.55757L292.17804,146.25758L292.8367,146.64691L293.52737,146.97224" id="svg_26" stroke-width="3" stroke="#000" fill="none"/>
  <path t="106095,106174,106182,106183,106190,106190,106190,106198,106206,106206,106215,106223,106230,106231,106237,106246,106253,106293,106303,106319,106336,106351,106352,106358,106374" d="M282.01135,139.25758C282.01135,142.50958 281.97934,143.32707 282.04736,144.05357C282.16815,145.34358 282.47684,145.99675 282.72736,146.7709C283.04175,147.74248 283.01135,148.5789 283.01135,149.43225C283.01135,150.37224 283.01135,151.35757 283.01135,152.25758C283.01135,153.05757 283.01135,153.95758 283.01135,154.85757C283.01135,155.75758 283.01135,156.65758 283.01135,157.55757C283.01135,158.45758 283.01135,159.35757 283.01135,160.25758L283.01135,161.05757L283.01135,161.95758L283.01135,162.82158" id="svg_27" stroke-width="3" stroke="#000" fill="none"/>
  <path t="109216,109310,109327,109342,109342,109350,109358,109518,109526,109527,109535,109536,109543,109552,109580,109581,109588,109588,109588,109597,109597,109604,109717,109781,109790,109800,109800,109862,109862,109862,109870,109878,109886,109902,109902,109918,109926,109934,109942,109951,109958,109968,109974,109974,109984,110001,110006,110022,110022,110030,110046,110046,110053,110053,110061,110076,110092,110100,110124,110124,110131,110148,110164,110172,110172,110188,110197,110221,110229,110236,110245,110260,110260,110269,110284,110292,110300,110308,110308,110324,110348,110372,110388,110397,110397,110414,110428,110436,110436,110452,110484,110484,110500,110510,110532,110597,110613,110621,111014,111029,111063,111085,111094,111094,111118,111126,111134,111151,111158,111173,111183,111183,111200,111201,111237,111253,111263,111270,111279,111279,111286,111304,111318,111397,111405,111417,111417,111422,111423,111431,111437,111445,111460,111564,111581,111581,111604,111637,111637,111861,111925,111958,111966,111974,111975,111976,111984,111991,112000,112001,112014,112014,112045,112053,112069,112085,112101,112101,112109,112116,112140,112148,112157,112196,112204,112213,112228,112237,112253,112253,112261,112277,112277,112285,112285,112356,112365,112389,112389,112389,112399,112405,112406,112509,112517,112525,112556,113261,113301,113422,113438,113549,113567,113567,113574,113574,113589,113590,113604,113607,113618,113621,114045,114061,114069,114069,114085,114094,114094,114109,114109,114116,114133,114173,114189,114205,114228,114252,114260,114276,114316,114332,114332,114348,114356,114356,114404,114404,114477,114485,114485,114493,114501,114502,114509,114509,114525,114533,114542,114557,114574,114575,114598,114622,114622,114623,114637,114654,114662,114677,114693,114694,114701,114717,114748,114756,114757,114772,114772,114787,114796,114819,114820,114836,114844,114852,114876,114884,114892,114924,114924,114932,114941,114948,114964,115036,115044,115061,115084,115357,115413,115432,115438,115439,115446,115447,115454,115466,115470,115471,115477,115477,115485,115485,115493,115622,115638,115741,115749,115758,115765,115766,115796,115853,115878,115893,115909,115942,115950,116277,116285,116295,116318,116326,116327,116430,116438,116438,116450,116500,116516,116669,116678,116688,116697,116702,116703,116749,116765,116773,116838,116845,116855,116893,116901,116902,116965,116966,116973,116982,116983,117045,117054,117063,117079,117109,117117,117117,117132,117133,117141,117148,117172,117181,117189,117197,117213,117221,117230,117245,117245,117252,117261,117261,117269,117269,117300,117309,117332,117333,117340,117341,117372,117372,117380,117380,117388,117388,117404,117413,117431,117469,117469,117477,117478,117564,117597,117597,117613,117621,117685,117694,117694,117726,117727,117735,117765,117773,117781,117854,117862,117894,117902,117909,117933,117949,118069,118078,118086,118087,118094,118095,118110,118278,118285,118295,118420,118420" d="M218.01137,227.25758C217.01137,227.25758 216.26797,227.46613 215.8447,228.25758C215.44424,229.00636 215.07658,229.78963 214.65869,230.55757C214.2011,231.39847 214.01137,232.25758 214.01137,233.01474C214.01137,233.91025 214.00586,234.77359 214.01137,235.73674C214.01671,236.66829 214.21524,237.58688 214.5322,238.27841C214.9864,239.26941 215.28101,239.87013 215.71136,240.6004C216.1779,241.39207 216.86569,242.02415 217.01003,242.97224C217.14487,243.85803 216.91338,244.76402 217.02203,245.66824C217.13358,246.59648 217.5295,247.27974 218.01137,248.25758C218.30522,248.85388 218.79018,249.56723 218.97537,250.62158C219.12013,251.44574 219.01137,252.35757 219.01137,253.25758C219.01137,254.05757 219.01137,254.95758 219.01137,255.85757C219.01137,256.75757 219.01137,257.65756 219.01137,258.55759C219.01137,259.45758 219.01137,260.35757 219.01137,261.25757C219.01137,262.05759 219.01137,262.95758 219.01137,263.85757C219.01137,264.77841 219.01137,265.74158 219.01137,266.43225C219.01137,267.50491 219.01137,268.42426 219.01137,269.25757C219.01137,270.23608 219.01137,270.95306 219.01137,271.85757C219.01137,272.75757 219.14409,273.66806 219.00687,274.55759C218.86319,275.48895 218.15955,276.02621 218.01587,276.95758C217.87866,277.84708 218.04388,278.77902 218.01003,279.74023C217.98152,280.54916 217.28516,281.11392 217.02203,281.86826C216.72913,282.70801 217.01204,283.65756 217.01137,284.55759C217.0107,285.45758 216.70032,286.30212 216.29536,287.05759C215.89014,287.81354 215.39323,288.5679 215.09669,289.45758C214.81082,290.31522 215.19279,291.29855 214.92603,292.05759C214.6252,292.91351 214.01137,293.54291 214.01137,294.45758C214.01137,295.35757 214.01137,296.25757 214.01137,297.05759C214.01137,297.95758 214.02321,298.90906 213.72737,299.74158C213.47646,300.44766 213.05408,301.36917 213.01137,302.25757C212.97295,303.05667 213.01137,303.95758 213.01137,304.85757C213.01137,305.75757 213.01137,306.65756 213.01137,307.55759C213.01137,308.45758 212.61661,309.6405 213.29669,310.17224C214.02039,310.73807 215.11136,310.25757 216.01137,310.25757C216.81137,310.25757 217.71136,310.25757 218.61136,310.25757C219.49052,310.25757 220.36853,310.25757 221.31137,310.25757C222.21136,310.25757 223.11153,310.25757 223.8967,310.25757C224.8367,310.25757 225.52736,310.25757 226.60069,310.25757C227.51137,310.25757 228.41953,310.14108 229.31137,310.26208C230.13269,310.3735 230.77823,311.10345 231.61136,311.24692C232.49837,311.39969 233.41136,311.2569 234.31137,311.25757C235.21269,311.25824 236.17938,311.42084 236.8367,311.68292C237.8468,312.08566 238.6821,311.90524 239.49052,312.27841C240.26169,312.63437 240.71594,313.24518 241.61136,313.25757C242.53235,313.27029 243.48813,313.55939 244.18604,313.83224C245.117,314.19623 246.01137,314.25757 246.81137,314.25757C247.71136,314.25757 248.68918,314.59897 249.49052,314.23676C250.16226,313.93311 250.01137,312.7149 250.01137,312.0069C250.01137,311.02557 250.01137,310.0719 250.01137,309.15756C250.01137,308.25757 250.01137,307.5004 250.01137,306.43225C250.01137,305.74158 250.01137,304.77841 250.01137,303.77841C250.01137,302.90042 249.84766,302.00027 250.2327,301.15756C250.5385,300.48828 251.00603,299.65762 251.01137,298.75757C251.01669,297.8576 251.01137,296.95758 251.01137,296.05759C251.01137,295.15756 251.01137,294.25757 251.01137,293.37891C251.01137,292.55307 251.01137,291.62158 251.01137,290.77359C251.01137,289.91025 251.01137,289.01025 251.01137,288.09091C251.01137,287.25757 251.01137,286.27908 251.01137,285.45892C251.01137,284.55759 250.95787,283.6026 251.17802,282.75757C251.3868,281.95624 251.65993,281.25876 251.92737,280.22824C252.1792,279.25787 252.43542,278.56714 253.01137,277.77841C253.4789,277.13812 253.81941,276.52451 254.04736,275.65756C254.27238,274.80179 255.31319,274.49585 255.92737,273.97357C256.58112,273.41763 257.00095,272.71609 257.01135,271.77225C257.01935,271.04694 257.01135,270.05774 257.01135,269.27841C257.01135,268.27908 257.01135,267.45892 257.01135,266.55759C257.01135,265.65756 257.00928,264.75757 257.01135,263.86826C257.01361,262.90491 257.69669,262.22656 257.95419,262.96741C258.21994,263.73196 257.9559,264.78006 258.23288,265.57892C258.54013,266.46506 259.17169,267.19452 259.57538,267.84692C260.05103,268.61563 260.01135,269.55759 260.01135,270.45758C260.01135,271.35757 260.01135,272.25757 260.01135,273.17358C260.01135,273.96207 260.01135,274.85757 260.01135,275.75757C260.01135,276.66824 260.01135,277.57892 260.01135,278.43225C260.01135,279.37225 259.91931,280.27023 260.06854,281.01474C260.25302,281.93515 260.69833,282.70825 261.29538,283.54291C261.81982,284.27603 262.08759,284.94519 262.51135,285.77841C262.91284,286.56781 262.91525,287.52808 263.45404,288.23608C264.01968,288.9794 264.70334,289.56564 265.29538,290.17358C265.84857,290.74161 265.85651,291.61905 266.23288,292.35757C266.58261,293.04382 267.46451,293.62897 268.01135,294.42426C268.44485,295.05472 268.85507,295.74863 269.0007,296.84692C269.10727,297.6506 268.90439,298.56412 269.0127,299.45758C269.12418,300.37735 269.85754,301.02438 270.0007,301.85757C270.16394,302.80771 269.9931,303.70444 270.01154,304.57892C270.02954,305.4328 270.37839,306.32642 270.72736,307.05624C271.09259,307.8201 271.01135,308.77841 271.01135,309.74158C271.01135,310.43225 271.00143,311.50046 271.01135,312.35742C271.02179,313.25775 271.75626,313.80518 271.97537,314.65756C272.19968,315.53012 272.39743,316.39594 272.72736,317.05759C273.14789,317.90094 272.66827,318.93616 273.0322,319.73676C273.38367,320.50998 273.99274,321.05908 274.01135,321.95758C274.03003,322.85809 274.47656,323.6333 274.89005,324.35742C275.34161,325.14822 276.21136,325.25757 277.01135,325.25757C277.8967,325.25757 278.8367,325.25757 279.52737,325.25757C280.60071,325.25757 281.42203,325.25757 282.33286,325.25757C283.22205,325.25757 284.21121,325.25757 284.99054,325.25757C285.98987,325.25757 286.81003,325.25757 287.71136,325.25757C288.61136,325.25757 289.49054,325.25757 290.36853,325.25757C291.31137,325.25757 292.21301,325.31195 293.11136,325.25742C293.81525,325.21469 294.54907,324.51279 295.41138,324.29358C296.28452,324.07162 297.39679,324.13416 297.8447,323.42426C298.2952,322.71027 298.85269,322.37897 299.49054,321.73676C300.12949,321.09344 299.92923,320.0538 300.01154,319.15756C300.09521,318.24612 300.67444,317.70523 301.30685,316.95758C301.94617,316.20178 302.01068,315.45758 302.01135,314.55759C302.01205,313.61475 302.01135,312.73676 302.01135,311.85757C302.01135,310.95758 302.01135,310.05759 302.01135,309.15756C302.01135,308.25757 302.01135,307.45758 302.01135,306.55759C302.01135,305.65756 302.37805,304.67786 301.99054,303.77841C301.68277,303.06406 300.95032,302.55743 300.58603,301.84692C300.12192,300.94168 300.16147,300.211 299.79004,299.27908C299.48126,298.50433 299.09293,297.70868 298.72604,296.7749C298.45825,296.09338 297.45346,295.59964 297.06854,294.90042C296.61304,294.07294 297.01135,293.05759 297.01135,292.15756C297.01135,291.25757 297.01135,290.5004 297.01135,289.60492C297.01135,288.74158 297.01135,287.77841 297.01135,286.85757C297.01135,285.95758 297.01135,285.05759 297.01135,284.15775C297.01135,283.2829 297.02274,282.45618 297.01135,281.55759C297.00095,280.73657 296.70956,279.78082 296.43671,279.08292C296.07272,278.15195 296.01324,277.25757 296.01135,276.5004C296.00909,275.60492 296.05063,274.67624 295.51135,273.79926C295.07803,273.0946 294.71268,272.40881 294.43671,271.49759C294.16342,270.59521 294.02179,269.77856 294.01135,268.77359C294.00418,268.08295 294.05734,266.99823 293.92603,266.28824C293.73221,265.24045 293.35175,264.56802 293.13287,263.62192C292.93152,262.75143 293.07382,261.82684 292.79004,260.93625C292.56729,260.23721 292.07361,259.28561 292.0127,258.45892C291.95117,257.62384 292.01135,256.60492 292.01135,255.91025C292.01135,254.89357 292.01135,253.96208 292.01135,253.09091C292.01135,252.15741 292.01135,251.37224 292.01135,250.43225C292.01135,249.74158 292.01135,248.66824 292.01135,247.75758C292.01135,246.85757 292.01135,245.95758 292.01135,245.05757C292.01135,244.15775 292.01135,243.31024 292.01135,242.45624C292.01135,241.55757 292.01135,240.65758 292.01135,239.75758C292.01135,238.85757 292.01135,237.95308 292.01135,237.09091C292.01135,236.25758 292.01135,235.27908 292.01135,234.45891C292.01135,233.61475 292.01135,232.64691 292.01135,231.75758L292.0007,230.84691L291.78986,229.93642L291.49054,229.27841" id="svg_28" stroke-width="3" stroke="#000" fill="none"/>
  <path t="119824,119934,119951,119967,119984,120014,120022,120023,120032,120032,120037,120046,120061,120061,120068,120068,120077,120084,120093,120109,120124,120237,120237,120245,120261,120261,120309,120325,120349,120349" d="M218.01137,310.25757C216.21136,310.25757 215.19901,310.25299 215.01587,311.01926C214.8098,311.88147 215.08954,312.95096 214.78987,313.70041C214.47862,314.47879 213.82553,315.17844 213.36853,315.95306C212.92128,316.71118 212.64809,317.55203 212.01137,318.25757C211.44185,318.88864 211.25618,319.7847 210.95869,320.54773C210.66029,321.31311 210.42813,321.98132 209.97537,322.82156C209.58257,323.55054 208.45627,323.63037 208.13286,324.57892C207.91145,325.2283 208.18785,326.4249 207.8447,327.25757C207.56824,327.92844 207.0322,328.75757 207.00687,329.56207L206.79002,330.57892L206.51137,331.25757" id="svg_29" stroke-width="3" stroke="#000" fill="none"/>
  <path t="121263,121326,121334,121334,121343,121343,121350,121350,121357,121357,121373,121381,121381,121389,121405,121405,121421,121421,121421,121429,121429,121446,121453,121493,121524,121532,121532,121572,121588,121604" d="M245.01137,313.25757C243.17802,313.42426 242.84802,314.25989 242.4007,314.89359C241.91512,315.58148 241.44946,316.22775 241.13269,317.23624C240.89496,317.9931 240.62283,318.89612 240.36403,319.60492C239.99532,320.61472 240.15614,321.59818 239.97537,322.39624C239.79391,323.19736 238.84645,323.66397 238.5322,324.29926C238.07919,325.215 238.08968,326.06662 237.92737,326.85757C237.72073,327.86456 237.26109,328.49527 236.5322,329.23676C235.9469,329.83215 235.48958,330.60382 235.13269,331.35757C234.72832,332.21164 234.30687,332.90042 233.5322,333.25757L233.02203,333.86826L232.97537,334.82156" id="svg_30" stroke-width="3" stroke="#000" fill="none"/>
  <path t="122599,122702,122718,122718,122726,122733,122749,123157,123165,123165,123174,123174,123189,123189,123197,123230" d="M300.01135,320.25757C301.4007,321.1189 301.91782,322.07944 302.0007,322.84692C302.09851,323.75235 302.01135,324.65756 302.01135,325.55759C302.01135,326.45758 302.00693,327.35776 302.01135,328.14291C302.01669,329.0936 302.09671,329.85892 302.36404,330.85309L302.65869,331.6004L302.95419,332.49591L303.01135,333.42426" id="svg_31" stroke-width="3" stroke="#000" fill="none"/>
  <path t="124127,124189,124198,124198,124206,124213,124237,124237,124246,124247" d="M280.01135,324.25757C280.01135,326.01474 280.01135,326.91025 280.01135,327.77359C280.01135,328.73676 280.01587,329.56207 280.2327,330.57892L280.51135,331.25757L280.8447,332.09091L281.01004,332.97092" id="svg_32" stroke-width="3" stroke="#000" fill="none"/>
  <path t="127670,127757,127757,127765,127789,127789,127805,127805,127902,127911,127930,127930,127934,127950,127958,127968,127968,127993,127996,128069,128078,128086,128086,128097,128097,128102,128117,128129,128165,128165,128173,128189,128350,128350,128358,128358,128366,128366,128375,128382,128382,128541,128542,128549,128558,128558,128565,128614,128614,128702,128702,128710,128734,128735,128742,128853,128861,128862,128862,128909,128926,128926,128998,128998,129007,129078,129078,129109,129118,129134,129142,129158,129158,129174,129174,129181,129228,129293,129326,129438,129453,129477,129549,129550,129566,129597,129597,129613,129621,129622,129629,129646,129678,129678,129686,129734,129734,129742,129750,129751,129759,129774,129789,129789,129797,129805,129893,129909,129910,129941,129965,129966,129981,129981,130054,130062,130118,130118,130133,130134,130150,130189,130197,130221,130229,130276,130277,130285,130285,130294,130358,130374,130374,130422,130422,130430,130438,130438,130453,130557,130558,130565,130566,130574,130575,130701,130702,130709,130717,130774,130774,130782,130806,130806" d="M85.01137,0.25758C85.36403,2.85308 85.68579,3.5922 85.98603,4.63224C86.25736,5.57214 86.61465,6.22366 86.88986,7.23608C87.08043,7.93712 87.01137,8.85758 87.01137,9.77841C87.01137,10.74158 86.97654,11.43281 87.01137,12.49591C87.03997,13.36881 87.28612,14.24751 88.01137,14.92424C88.5579,15.43422 89.13506,16.03584 89.58603,16.85758C90.01408,17.63755 89.93553,18.58114 90.17803,19.42424C90.37363,20.10431 90.76084,21.11732 91.0367,21.84691C91.35473,22.68804 92.39236,22.95566 92.95869,23.61474C93.55051,24.30349 93.87327,25.00369 94.4007,25.65758C95.00203,26.40309 95.24463,27.34925 95.71587,28.01474C96.22422,28.73265 96.55624,29.46928 97.11137,30.23608C97.65962,30.99338 98.31136,31.55758 99.01137,32.25758C99.57536,32.82157 100.23286,33.47908 100.8127,34.05891C101.41136,34.65758 102.11024,35.35871 102.71136,35.95758C103.31024,36.55421 104.12111,37.1026 104.8967,37.34158C105.67509,37.58142 106.56536,38.00762 107.2542,38.55758C108.06004,39.20095 108.42686,39.93089 109.31136,40.20041C110.17546,40.46371 111.18753,40.57882 111.66403,40.96291C112.37328,41.53461 113.29292,42.06109 114.11153,42.47891C114.80897,42.83488 115.66275,43.22159 116.3587,43.25308C117.38509,43.29952 118.33998,43.46194 118.99053,43.75758C119.91271,44.17664 120.71481,44.31664 121.51137,44.75758C122.3148,45.20232 123.17803,45.25758 124.01137,45.25758C124.98987,45.25758 125.81003,45.25758 126.71136,45.25758C127.61137,45.25758 128.51137,45.25758 129.41136,45.25758C130.31137,45.25758 131.21136,45.25758 132.11136,45.25758C133.01137,45.25758 133.82179,45.35801 134.64737,45.22158C135.51906,45.07752 136.34644,44.57057 137.2587,44.31024C138.16754,44.05089 138.77383,43.70192 139.76852,43.37908C140.52689,43.13294 141.48813,42.95577 142.18604,42.68291C143.117,42.31892 144.05061,42.43402 144.81137,42.17225C145.59093,41.90401 146.13049,40.94622 146.81137,40.54291C147.63852,40.05296 148.50217,39.72706 149.11136,39.15775C149.70259,38.60521 150.46045,38.12834 151.09537,37.54158C151.78705,36.90236 152.05313,36.12786 152.71587,35.61474C153.41228,35.07555 154.21284,34.69128 154.65421,33.96291C155.18138,33.09293 155.77654,32.608 156.4007,31.85758C156.94678,31.20102 157.01137,30.25758 157.01137,29.50041C157.01137,28.60491 157.01137,27.74158 157.01137,26.77841C157.01137,25.85758 157.01137,24.95758 157.01137,24.05891C157.01137,23.16024 157.01137,22.40424 157.01137,21.49758C157.01137,20.59091 157.01677,19.67889 157.01137,18.75758C157.00603,17.84686 156.78305,16.93906 156.51137,16.25758C156.12285,15.28301 156.01204,14.45891 156.01137,13.62158C156.01056,12.60491 156.01137,11.91024 156.01137,10.88291C156.01137,9.93624 156.08269,9.25495 156.01103,8.27891C155.95375,7.49866 155.29088,6.61743 154.86203,6.08291C154.23138,5.29685 153.89339,4.47955 153.43669,3.65758C153.00229,2.87573 152.72603,2.05758 152.21004,1.45758L151.51137,0.75758L150.91153,0.15758L150.36853,-0.44242" id="svg_33" stroke-width="3" stroke="#000" fill="none"/>
  <path t="134248,134309,134309,134317,134317,134317,134325,134325,134344,134345,134350,134381,134381,134437,134453,134477,134477,134477,134486,134486,134510,134526,134534,134535,134545,134561,134574,134582,134598,134598,134614,134614,134621,134621,134628,134652,134668,134676,134676,134685,134748,134780,134780" d="M230.01137,113.25758C230.44736,115.10424 230.73561,115.71135 231.11119,116.67874C231.4169,117.46615 231.73677,118.22961 231.92603,119.28825C232.07669,120.13101 232.01137,121.08291 232.01137,121.77357C232.01137,122.81091 232.01137,123.82691 232.01137,124.60941C232.01137,125.50041 232.01137,126.45891 232.01137,127.42424C232.01137,128.09358 232.01137,128.85892 232.01137,129.85307C232.01137,130.77225 232.06981,131.77344 231.65869,132.55757C231.21411,133.40552 230.88789,134.03467 230.43669,134.85757C230.00894,135.63771 230.1183,136.5641 230.01003,137.45758C229.89854,138.3775 229.28113,138.99123 229.06403,139.91475C228.89131,140.64944 228.8244,141.7072 228.4007,142.38557C227.91586,143.16182 227.01137,143.42424 227.01137,144.35757C227.01137,145.25758 227.01137,146.05757 226.95419,146.90041L226.17802,147.42424L225.8447,148.25758L225.4007,148.85757" id="svg_34" stroke-width="3" stroke="#000" fill="none"/>
  <path t="140300,140412,140412,140540,140548,140548,140564,140564,140611,140699,140707,140980,140989,141008,141008" d="M242.01137,110.25758C243.01137,110.25758 243.81137,110.25758 244.76852,110.25758C245.66853,110.25758 246.41586,110.25758 247.41003,110.25758C248.17537,110.25758 249.34276,110.11575 249.95869,110.61024C250.56898,111.10021 251.41136,111.25758 252.31587,111.26208L253.17802,111.42424L253.8367,111.69358" id="svg_35" stroke-width="3" stroke="#000" fill="none"/>
  <path t="145185,145261,145269,145269,145269,145358,145366,145375,145375,145382,145390,145390,145397,145397,145406,145406,145413,145413,145413,145422,145423,145429,145437,145437,145453,145453,145453,145460,145461,145476,145476,145492,145501,145501,145601,145607,145624,145630,145630,145637,145638,145638,145645,145645,145646,145654,145654,145654,145662,145662,145662,145662,145671,145671,145671,145678,145678,145679,145687,145687,145687,145694,145694,145814,145814,145822,145830,145838,145838,145839,145839,145845,145846,145846,145854,145854,145862,145862,145869,145870,145877,145877,145885,145885,145900,145909,145909,145990,146062,146102,146109,146118,146118,146125,146125,146126,146134,146134,146141,146141,146149,146149,146213,146262,146271,146271,146278,146279,146279,146287,146287,146288,146294,146294,146302,146310,146310,146317,146318,146318,146325,146325,146333,146333,146341,146349,146349,146364,146421,146461,146470,146477,146486,146486,146493,146494,146502,146502,146638,146646,146646,146654,146655,146661,146662,146671,146671,146677,146677,146686,146686,146717" d="M78.01137,81.25758C79.8447,81.25758 80.67668,81.22942 81.5322,81.27841C82.24644,81.31931 83.53702,81.56303 83.88986,82.35757C84.25846,83.18758 84.01137,84.05758 84.01137,84.89358C84.01137,85.91474 84.01137,86.66208 84.01137,87.65758C84.01137,88.45758 84.01137,89.45758 84.01137,90.25758C84.01137,91.25758 84.01137,92.05758 84.01137,92.85757C84.01137,93.85307 83.90392,94.60714 84.02203,95.63224C84.13306,96.59589 84.52802,97.28046 85.01137,98.25758C85.3088,98.85885 85.7156,99.65547 86.1112,100.45741C86.49464,101.23473 86.73992,102.12459 87.06403,102.95308C87.40604,103.82733 87.76865,104.61014 88.0367,105.39624C88.32387,106.2384 89.30686,106.25758 90.18069,106.25758C91.07387,106.25758 91.7,106.28979 92.96853,106.24857C93.53284,106.23023 94.43488,106.15156 95.3112,105.81474C96.22879,105.46207 96.76764,105.05932 97.8447,104.42424C98.55372,104.00617 99.22795,103.64758 100.17803,103.25758C100.96169,102.93588 101.82876,102.63696 102.4127,102.37225C103.3223,101.95992 104.20173,101.43393 104.77537,101.08291C105.84663,100.42738 106.56577,100.02937 107.2007,99.63224C108.02715,99.11533 108.61636,98.61507 109.17536,98.08291C110.00421,97.29387 110.57857,96.64523 111.21136,96.05891C111.79185,95.52106 112.80338,95.19284 113.5322,95.82008C114.29442,96.47606 114.66971,97.2636 115.01137,97.77841C115.53615,98.56915 116.00397,99.32838 116.49053,100.23674C116.81966,100.85119 117.29004,101.86485 117.61137,102.42158C118.17353,103.39558 118.73891,103.98602 118.95869,104.91474C119.13251,105.64918 119.30301,106.65338 119.58603,107.42158C119.9355,108.37014 120.0107,109.14158 120.01137,110.08291C120.01208,111.09091 119.70752,111.90039 120.01137,112.73674C120.24331,113.37515 121.31136,113.25749 122.21136,113.25758C123.11169,113.25766 123.83823,113.26781 124.77937,113.54424C125.52309,113.76269 126.34576,114.03185 127.19703,114.91024C127.65176,115.37946 128.22601,116.3624 128.61136,116.88291C129.23421,117.72421 129.541,118.44585 129.92737,119.37091C130.26695,120.18398 131.26111,120.14355 131.65421,119.43874C132.13657,118.57391 131.98779,117.71329 132.09537,116.85491C132.20822,115.95448 132.40549,115.06375 132.71587,114.27191C133.06505,113.38108 133.6579,112.71478 133.98604,111.84691C134.31978,110.96425 134.58084,110.2577 134.8447,109.25758C135.05241,108.47021 135.108,107.61695 135.57936,106.85891C136.08687,106.04273 136.64105,105.40691 137.05952,104.56208C137.41649,103.84144 138.21332,103.23617 138.65421,102.55758C139.16899,101.76525 139.72096,101.21384 140.51137,100.75758C141.21599,100.35082 142.16699,100.07103 143.01137,100.42424C143.72693,100.72357 144.50174,101.44677 145.18604,101.85757C145.99747,102.3447 146.75937,102.72768 147.43669,103.27891C148.10895,103.826 148.00403,104.69954 148.71671,105.50491C149.23117,106.08629 149.85741,106.73918 150.02603,107.46825C150.25374,108.45281 150.47679,109.27027 151.01137,110.09091C151.46622,110.78916 152.11136,111.57874 152.51137,112.23674L153.11119,113.01458" id="svg_36" stroke-width="3" stroke="#000" fill="none"/>
  <path t="147799,147854,147854,147862,147894,147918,147926,147926,147934,147934,147942,147942,147950,147957,147966,147981,147981,148013,148013,148037,148069,148094,148150,148166,148174,148182,148182,148191,148214,148245,148262,148270,148285,148294,148295,148302,148309,148310,148318,148318,148325,148326,148380,148380,148421,148430,148430,148440,148446,148446,148453,148574,148582,148591,148591,148598,148598,148614,148614,148765,148766,148773,148774,148774,148782,148782,148782,148790,148797,148808,148808,148814,148823,148823,148840,148840,148846,148847,148854,148855,148878,148894,148894,148918,148934,148934,148941,148952,148970,148989,148997,149012,149022,149038,149038,149045,149053,149060,149061,149061,149069,149069,149076,149076,149085,149085,149085,149092,149318,149318,149326,149334,149334,149342,149342,149349,149349,149349,149356,149357,149365,149365,149373,149380,149396,149397,149445,149457,149485,149557,149573,149597,149597,149598,149606,149606,149614,149614,149614,149615,149622,149622,149622,149631,149631,149641,149642,149742,149742,149750,149750,149757,149758,149772,149829,149829,149868,149869,149876,149876,149884,149892,149900,149901,149908,149908,149916,149916,149916,149923,149923,149932,149932,149939,149939,149948,149948,149955,149956,149964,149971,149980,149987,150004,150004,150036,150044,150054,150061,150061,150076,150076,150085,150085,150092,150116,150116,150132,150148,150188,150205,150213,150222,150231,150237,150245,150325,150341,150349,150358,150366,150373,150373,150380,150381,150381,150388,150396,150396,150405,150428,150428,150500,150501,150517,150517,150518,150524,150525,150525,150533,150533,150534,150543,150543,150543,150548,150548,150548,150548,150556,150556,150556,150564,150564,150564,150571,150572,150572,150580,150580,150588,150588,150627,150812,150813,150821,150830,150830,150831,150847,150847,150847,150847,150856,150857,150857,150857,150857,150858,150860,150860,150869,150869,150876,150885,150885,150892,150892,150900,150924,150957,150973,150981,150981,150989,150997,150998,151006,151006,151007,151007,151013,151014,151014,151015,151025,151025,151026,151026,151026,151027,151029,151029,151030,151030,151030,151030,151040,151040,151041,151041,151042,151044,151045,151045,151045,151046,151046,151056,151056,151056,151057,151060,151061,151061,151126,151149,151150,151157,151158,151159,151159,151165,151166,151166,151166,151177,151177,151178,151181,151181,151188,151188,151189,151206,151206,151206,151212,151213,151228,151228,151244,151244,151260,151308,151308,151339,151348,151356,151365,151372,151382,151389,151396,151397,151405,151405,151413,151413,151421,151421,151564,151572,151573,151583,151583,151584,151598,151598,151804,151805,151805,151805,151852,151852,151860,151871,151878,151879,151886,151887,151898,151899,151902,151903,151913,151914" d="M306.01135,135.25758C307.8367,134.83224 308.54599,134.59839 309.49054,134.25758C310.3309,133.95438 311.17859,133.53748 312.01135,133.09091C312.68851,132.7278 313.10019,131.9296 313.61136,131.08292C314.10059,130.27258 314.75247,129.73364 314.97537,128.85757C315.19748,127.98467 314.96283,127.05626 315.01154,126.15741C315.05426,125.3688 315.32327,124.34978 315.81268,123.82691C316.47461,123.11976 317.51135,123.25758 318.41138,123.25758C319.30685,123.25758 320.23288,123.25758 321.11136,123.25758C322.01135,123.25758 322.81137,123.25758 323.71136,123.25758C324.61136,123.25758 325.51135,123.25758 326.41138,123.25758C327.31137,123.25758 328.28067,123.44646 329.11136,123.03608C329.80194,122.69492 330.49399,121.91428 330.8902,121.15741C331.27847,120.41571 331.68317,119.56944 332.19669,119.11891C333.06848,118.35406 333.90387,118.19805 334.66403,117.90491C335.53796,117.56788 336.3855,117.27558 337.3327,117.25758C338.18588,117.24136 339.12729,117.21056 340.01135,117.25758C340.81479,117.3003 341.54745,118.00883 342.41138,118.22158C343.28564,118.43687 344.12701,117.82527 344.51135,117.23674C345.03299,116.43796 345.52493,115.79132 346.21136,115.05624C346.72162,114.50982 347.35712,113.61646 347.57538,113.01091C347.98773,111.86692 347.9733,111.30577 348.0007,110.48291C348.03595,109.42477 348.01135,108.50424 348.01135,107.74424C348.01135,106.66824 348.01135,105.73674 348.01135,104.93641C348.01135,104.11891 347.95602,103.15134 347.57538,102.38557C347.21176,101.65404 346.71136,100.65759 346.41138,100.05758C345.9115,99.05775 345.54074,98.49919 345.17804,97.42424C344.92868,96.68517 344.46149,95.90186 344.17804,95.09091C343.90567,94.31165 344.01135,93.30824 344.01135,92.39624C344.01135,91.74024 344.01135,90.66824 344.01135,89.75758C344.01135,88.85757 343.75671,87.68867 344.44736,87.29358C345.19797,86.86417 346.26865,87.42127 347.11136,87.03625C347.78067,86.73045 348.61429,86.19875 349.43271,86.26824C350.35461,86.34652 351.2739,86.66272 352.00604,86.96207C352.88431,87.32117 353.46176,87.80016 354.33286,88.35757C355.01147,88.79182 356.01511,89.25021 356.60687,89.55758C357.3591,89.94829 358.14368,90.75979 359.01135,91.09091C359.68326,91.34731 360.00909,90.43875 360.01135,89.48958C360.01309,88.75758 360.01135,87.59091 360.01135,86.75758C360.01135,85.92424 360.01135,85.00691 360.01135,84.26291C360.01135,83.22691 360.01135,82.37491 360.01135,81.43224C360.01135,80.74158 360.01135,79.66824 360.01135,78.84691C360.01135,77.93624 360.01135,77.08291 360.01135,76.14291C360.01135,75.15758 360.01135,74.25758 360.01135,73.42424C360.01135,72.54158 360.6767,72.23176 361.55304,72.27841C362.33157,72.31986 363.35208,72.4846 363.99054,72.79924C365.06418,73.32836 365.60529,73.92332 366.24738,74.43224C366.68958,74.78273 367.69852,75.36437 368.49054,75.75758C369.24643,76.13285 370.07462,76.71592 370.59003,77.43224C371.14966,78.21002 371.60739,78.90553 372.33286,79.35725C373.00003,79.77268 374.06702,80.10032 374.79004,79.77491C375.81216,79.31488 375.71536,78.33743 376.2327,77.50024C376.6745,76.7853 376.93494,76.19943 377.17804,75.25758C377.38397,74.4598 377.95395,73.41336 378.71136,73.26658C379.63818,73.08697 380.07205,74.01559 380.72119,74.56208C381.32211,75.06799 382.10074,75.76202 382.63669,76.43224C383.30075,77.26267 383.85272,77.59711 384.52737,78.05624C385.39713,78.64814 385.86304,79.20441 386.30685,80.26291C386.6127,80.99236 386.53848,82.06951 387.07269,82.80025C387.52524,83.41926 388.64902,83.2957 389.24969,83.96741C389.87421,84.66576 389.99335,85.62106 390.01135,86.55758C390.02866,87.45741 389.83002,88.41105 390.17804,89.25758C390.45392,89.92865 390.85806,90.77208 391.02203,91.65758C391.17581,92.48804 392.04514,93.01176 392.76852,93.36741C393.54022,93.7468 394.02069,94.26896 394.8447,95.09091C395.3707,95.61561 395.776,96.52192 396.17804,97.25758C396.57999,97.99305 397.6113,98.25224 398.51135,98.25758C399.40067,98.26285 400.57309,98.52121 400.97537,97.82158C401.40643,97.07192 401.01135,96.05758 401.01135,95.15758C401.01135,94.25758 401.00372,93.31855 401.71585,93.25758C402.60809,93.18118 403.55475,93.00195 404.41138,93.27891C405.33475,93.57745 405.61349,94.47782 406.01135,95.25758C406.41354,96.04581 406.85059,96.74665 407.4007,97.63224C407.87979,98.40351 407.70233,99.41505 408.29669,100.08824C408.89468,100.76553 409.76938,100.98829 409.95419,101.90575C410.1091,102.67478 410.51944,103.113 411.30869,102.81091C412.07617,102.51716 413.10403,101.95485 413.5542,101.60041C414.22287,101.07392 415.00449,100.25058 415.61136,99.66208C416.20474,99.08666 416.99899,98.40559 417.61588,98.01025C418.23553,97.61313 419.17828,97.09132 419.96854,96.60491C420.53238,96.25787 421.39972,95.71545 422.31119,95.27908C422.89899,94.99766 423.78235,94.68602 424.8447,94.25758C425.55911,93.96945 426.20969,93.67537 427.21121,93.15741C427.99786,92.75059 428.59866,92.43515 429.25421,91.60491C429.76804,90.95418 430.18973,90.1233 430.81137,89.45891C431.39175,88.83862 432.22583,88.24412 432.65421,87.55758C433.13403,86.78862 433.02618,85.71421 433.0007,84.98558C432.97141,84.1478 432.8721,83.25129 432.64969,82.34408C432.48932,81.68995 432.25146,80.98549 431.8447,79.75758C431.53006,78.80779 431.36096,78.3093 431.0322,77.29924C430.87161,76.80593 430.54141,75.89099 430.25436,74.76491C430.02078,73.84853 430.01135,72.93624 430.01135,72.08291C430.01135,71.14158 430.01135,70.09091 430.01135,69.43224C430.01135,68.42424 430.01135,67.56208 430.01135,66.65758C430.01135,65.75758 429.82828,64.76167 430.29669,64.05891C430.82681,63.2636 431.81137,63.25824 432.64737,63.25758C433.49936,63.2569 434.29407,63.25028 435.3447,63.25758C436.31677,63.26433 437.02719,63.24563 437.70602,63.42908C439.01459,63.78271 439.52039,64.31474 440.01135,64.82008C440.53235,65.35631 441.32901,66.27471 441.98337,66.85757C442.67789,67.4762 443.06699,67.76691 443.87753,68.35757C444.29587,68.66243 445.63187,69.5586 446.09402,69.85757C447.02469,70.45964 447.49521,70.75056 448.40152,71.35757C448.84436,71.65417 450.07813,72.54633 450.80154,73.16208C451.15479,73.46275 451.82999,74.08952 452.49402,74.74291C453.18219,75.42006 453.89536,76.14157 454.26404,76.51025C455.01135,77.25756 455.38608,77.63218 456.12735,78.37357C457.18945,79.43583 457.53146,79.76189 458.14337,80.41091C458.70142,81.00281 459.57166,82.06531 459.84436,82.79141C460.11734,83.5183 460.52936,84.83722 461.01135,84.60024C461.55936,84.33082 461.01135,82.83575 461.01135,82.00024C461.01135,81.37491 461.01135,80.68558 461.01135,79.51508C461.01135,78.65675 461.01135,77.77841 461.01135,76.92007C461.01135,75.75758 461.01135,74.82908 461.01135,74.08958C461.01135,73.05758 461.00476,72.25755 461.01135,71.25758C461.01669,70.44685 461.01505,69.78925 461.29669,68.57358C461.42352,68.02616 461.69583,67.20235 462.11121,66.17924C462.38748,65.49873 462.8327,64.42113 463.01135,63.75758C463.27759,62.76862 463.62027,62.09465 463.92737,61.14291C464.20993,60.26723 464.66693,59.45978 465.51135,59.27841C466.39154,59.08936 467.31137,59.25758 468.21136,59.25758C469.11121,59.25758 469.96274,59.29538 470.55304,59.77841C471.30469,60.39348 472.03821,60.7153 472.8447,61.25758C473.53622,61.72256 474.3064,62.41085 475.0322,62.73674C475.98209,63.16325 476.8201,63.02562 477.67804,63.25758C478.43253,63.46157 478.8519,64.21163 479.31137,65.26741C479.53033,65.77057 479.77972,66.58822 480.21271,67.57358C480.61816,68.49631 481.172,69.428 481.49536,69.94025C482.00195,70.74275 482.30365,71.29081 483.12604,72.28558C483.57214,72.82519 484.41083,73.2395 485.31586,73.25758C486.33249,73.27788 487.06888,73.09237 487.98987,73.47908C488.78696,73.81377 489.31586,74.56208 489.8967,75.14291C490.66403,75.91024 491.18604,76.43224 491.8447,77.09091L492.49054,77.73674" id="svg_37" stroke-width="3" stroke="#000" fill="none"/>
  <path t="153142,153302,153302,153310,153333,153349,153349,153372,153372,153380,153381,153396,153412,153412,153428,153428,153444,153484,153484,153590,153590,153598,153598,153606,153615,153624,153630,153630,153646,153646,153702,153710,153718,153718,153734,153734,153742,153757,153766,153853,153853,153862,153862,153862,153872,153878,153894,153894,153902,154109,154118,154125,154135,154142,154143,154156,154231,154232,154261,154293,154349,154351,154351,154363,154363,154365,154365,154373,154373,154381,154382,154389,154389,154397,154397,154405,154421,154422,154494,154494,154518,154606,154622,154622,154639" d="M81.01137,79.25758C81.01137,76.46825 81.01137,75.74291 81.01137,74.77841C81.01137,73.84691 80.97022,72.93363 81.0322,72.23674C81.11989,71.25066 81.50208,70.49149 81.8447,69.42424C82.08311,68.68157 82.4207,67.83134 83.01137,67.25758C83.62109,66.66528 84.49274,66.30687 85.3587,66.26208C86.25754,66.21558 87.20076,66.14023 88.01137,65.73674C88.87192,65.30839 89.48083,64.74737 90.11137,64.15775C90.70243,63.60503 91.72466,63.40007 92.4007,62.82158C93.02732,62.28537 92.91988,61.24504 93.06853,60.50041C93.25314,59.57566 93.47147,58.82859 93.98603,57.90424C94.39774,57.16467 95.29566,56.87267 95.8967,56.45624C96.80807,55.82479 97.50243,55.42441 98.49053,55.27841C99.30281,55.15839 100.2127,55.25758 101.17803,55.25758C102.0322,55.25758 103.01137,55.25758 103.8007,55.25758C104.52603,55.25758 105.56257,55.37601 106.31136,54.90041C107.11361,54.39086 107.54484,53.51522 108.41136,53.29358C109.34982,53.05354 108.80294,53.53609 108.1212,52.90041C107.44126,52.2664 106.98219,51.50172 106.31136,51.20491C105.46371,50.82986 104.89793,49.93647 104.21136,49.54291C103.47754,49.12226 102.46812,49.51271 101.61137,49.23624C100.68853,48.93845 100.44878,48.04739 99.91136,47.27891C99.4429,46.60904 98.8222,45.76719 98.41136,45.08291C97.92409,44.2713 97.35722,43.71717 96.71587,42.95308C96.25536,42.40444 96.16727,41.37805 95.84203,40.74158C95.344,39.76693 94.39341,39.57825 93.77303,38.95308C93.03517,38.2095 93.02937,37.43272 93.01137,36.42424C92.99598,35.56221 93.01137,34.65758 93.01137,33.77841L92.5687,33.25741L91.7167,33.20041L90.9967,32.68291" id="svg_38" stroke-width="3" stroke="#000" fill="none"/>
 </g>
</svg>