<svg width="500" height="281.69014084507046" xmlns="http://www.w3.org/2000/svg" xmlns:svg="http://www.w3.org/2000/svg" xmlns:xlink="http://www.w3.org/1999/xlink">
 <!-- Created with SVG-edit - http://svg-edit.googlecode.com/ -->
 <g display="inline" class="layer">
  <title>Layer 1</title>
  <path t="0,154,171,204,221,237,271,288,321,354,404,454,471,488,537,571,588,604,621,621,654,671,688,705,721,737,771,821,854,854,871,871,921,971,1021,1038,1088,1105,1121,1121,1138,1171,1171,1188,1205,1221,1238,1272,1288,1305,1321,1338,1371,1388,1405,1421,1438,1455,1488,1505,1521,1538,1538,1555,1622,1622,1638,1655,1672,1688,1688,1738,1755,1772,1788,1838,1872,1889,1955,2005,2056,2122,2155,2189,2206,2305,2322,2322,2355,2355,2389,2455,2489,2589,2622,2722,2772,2806,2856,2856,2889,2956,2989,3073,3106,3173,3289,3339,3373,3390,3423,3457,3473,3506,3506,3523,3557,3573,3590,3623,3640,3673,3690,3707,3740,3740,3756,3790,3824,3840,3874,3874,3907,3923,3940,3957,3973,3990,3990,4007,4041,4074,4090,4090,4107,4107,4124,4140,4157,4190,4207,4224,4257,4274,4307,4307,4324,4357,4375,4391,4424,4440,4524,4607,4624,4657,4741" d="M186.72569,97.34507C187.55902,97.51173 187.78284,98.34282 188.67752,98.34507C189.57635,98.34733 190.59361,97.96828 191.30035,98.38107C191.99234,98.78522 192.37303,99.34507 193.22569,99.34507C194.15103,99.34507 194.77608,98.88837 195.60435,98.46657C196.29784,98.11342 197.37187,98.47255 198.07835,97.9924C198.80598,97.49788 199.58702,97.34507 200.55902,97.34507C201.36403,97.34507 201.97885,96.8 202.8257,96.46657C203.67072,96.13387 204.64169,96.34507 205.43019,96.34507C206.36853,96.34507 207.22569,96.34507 208.15103,96.34507C209.05902,96.34507 209.97101,96.47245 210.83902,96.06107C211.50713,95.74442 212.30035,95.34507 213.22569,95.34507C214.08286,95.34507 215.02196,95.3815 215.89236,95.34507C216.75328,95.30904 217.04771,94.40466 217.52702,93.91307C218.2323,93.18974 219.29504,93.34924 220.07753,93.34507C221.07907,93.33974 221.59964,92.61958 222.33636,92.35574C223.15407,92.06288 224.22644,92.4725 224.92436,92.06107C225.74718,91.57601 226.45502,91.5595 227.36853,91.34507C228.14017,91.16394 228.78697,90.3504 229.57635,90.34507C230.55635,90.33845 231.37045,90.3679 232.20486,89.84507C232.92523,89.39371 233.52986,88.84629 234.1617,88.3704C234.82048,87.87421 235.52603,87.54407 236.20486,86.8659C236.8927,86.17873 237.72104,85.90156 238.36853,85.23524C238.93124,84.65616 238.68352,83.45197 239.29369,83.06107C239.97778,82.6228 240.6349,81.99524 241.15103,81.3704C241.64688,80.77011 242.29167,80.29139 242.72569,79.7704C243.15462,79.25553 243.71724,78.77305 244.22569,78.34507C244.72789,77.92235 245.21985,77.6767 245.72569,77.12373C246.26317,76.53619 246.67555,76.24271 247.30035,75.7704C248.01115,75.23309 248.40222,74.71915 248.72437,73.91307C248.99191,73.24361 250.2108,73.62057 250.72569,73.06107C251.23318,72.50962 251.72569,72.1784 251.72569,71.32423C251.72569,70.4304 251.5804,69.82024 251.07835,69.2879C250.49342,68.66769 249.92963,68.62053 249.29369,68.25974C248.47679,67.79627 248.39578,67.05812 247.72569,66.46657C247.16698,65.97334 246.72949,65.38781 246.00969,65.34507C245.07999,65.28986 244.17987,65.37239 243.70486,65.84507C243.181,66.36636 242.37303,66.69773 241.70486,67.3659C241.15103,67.91974 240.25525,68.18165 239.57635,68.38107C238.68155,68.64391 238.32759,69.3862 237.70036,69.91974C237.10283,70.42801 236.60625,70.98396 236.00969,71.4304C235.25662,71.99398 234.95287,72.76495 234.30035,73.30907C233.66426,73.8395 233.58344,74.63965 232.76169,75.27307C232.1532,75.74211 231.33961,75.90909 230.72702,76.4304C230.10297,76.96148 229.55879,77.15655 228.55902,77.34507C227.77156,77.49356 227.36981,78.31577 226.42569,78.34507C225.52612,78.37299 224.77519,78.59328 224.0257,78.9924C223.20551,79.42916 222.29552,79.25443 221.36403,79.34957C220.5471,79.43302 219.75414,79.92759 218.89236,80.1784C218.05003,80.42355 217.32491,80.54528 216.64169,81.06107C216.02635,81.52562 214.89236,81.34507 214.11502,81.34507C213.1617,81.34507 212.28969,81.34507 211.33636,81.34507C210.39236,81.34507 209.72569,81.34507 208.71103,81.34507C207.77837,81.34507 206.91281,81.78286 206.08286,81.34507C205.467,81.02021 204.98332,80.38746 204.30035,79.91974C203.52646,79.38975 202.73019,79.2879 202.72569,78.38107L201.89236,78.34507" id="svg_1" stroke-width="3" stroke="#000" fill="none"/>
  <path t="5561,5658,5691,5708,5725,5741,5741,5775,5791,5809,5825,5841,5858,5858,5875,5892,5908,5925,5942,5975,6008,6025,6059,6092,6108,6142,6175,6192,6242,6242,6259,6292,6309,6326,6342,6342,6375,6409,6426,6459,6459,6476,6476,6492,6509,6526,6542,6576,6592,6610,6642,6659,6676,6709,6709,6743,6743,6759,6776,6792,6809,6826,6843,6859,6876,6876,6893,6893,6909,6926,6943,6959,6976,6993,6993,7009,7026,7026,7044,7059,7059,7076,7076,7093,7093,7109,7109,7126,7126,7126,7143,7143,7160,7176,7176,7193,7226,7243,7260,7260,7276,7276,7310,7326,7343,7376,7393,7410,7426,7443,7460,7460,7476,7510,7544,7593,7610,7643,7677,7693,7743,7760,7777,7793,7810,7810,7827,7843,7877,7893,7893,7910,7927,7960,7977,7993,8027,8044,8044,8077,8093,8093,8110,8110,8143,8178,8194,8210,8227,8260,8277,8310,8344,8377,8427,8427,8477,8494,8544,8594,8627,8660,8694,8711,8761,8811,8827,8844,8861,8878,8928,8977,9027" d="M191.72569,65.34507C190.8472,65.34507 189.89159,65.00449 189.05902,65.51173C188.34737,65.94532 187.59081,66.3709 187.08286,66.9924C186.53827,67.65874 186.10895,68.34265 185.67302,69.04957C185.25885,69.72118 184.93668,70.5987 184.50436,71.44507C184.16963,72.10039 183.54813,72.77362 183.07835,73.4549C182.53906,74.237 182.72569,75.23524 182.72569,76.06107C182.72569,76.9924 182.07736,77.51302 181.73019,78.39774C181.40338,79.23059 181.54401,79.89127 181.00969,80.4304C180.39174,81.05394 180.72569,82.1784 180.72569,82.9924C180.72569,83.9144 180.72569,84.6969 180.72569,85.6984C180.72569,86.5664 180.58603,87.35257 179.87503,87.78107C179.02544,88.29309 178.72704,89.05974 178.72569,89.9924C178.72444,90.8659 178.4939,91.88247 179.05902,92.51173C179.57011,93.08083 180.51761,93.478 180.68402,94.34507C180.86859,95.30674 180.72569,96.22373 180.72569,97.04957C180.72569,97.90907 181.27078,98.59821 181.60419,99.4449C181.937,100.29007 181.72569,101.22373 181.72569,102.04957C181.72569,102.9879 181.64072,103.91805 181.72569,104.63973C181.83713,105.58609 182.57751,106.11497 182.72119,107.04507C182.8586,107.93453 182.72569,108.84507 182.72569,109.74507C182.72569,110.64507 182.72569,111.54373 182.72569,112.4424C182.72569,113.1984 182.72569,114.10507 182.72569,115.20207C182.72569,115.92374 182.72569,116.84507 182.72569,117.74507C182.72569,118.64507 182.72569,119.54507 182.72569,120.44507C182.72569,121.34507 182.72569,122.14507 182.72569,123.10223C182.72569,123.99773 182.72578,124.6924 182.72569,125.71973C182.7256,126.66656 182.7869,127.38168 182.55902,128.34506C182.36783,129.1534 181.8197,130.1675 181.73636,130.9704C181.64742,131.82721 181.72569,132.59174 181.72569,133.51173C181.72569,134.55974 181.72569,135.33524 181.72569,136.20207C181.72569,137.1424 181.72569,137.98106 181.72569,138.99774C181.72569,139.6924 181.72569,140.69839 181.72569,141.6304C181.72569,142.5464 181.72569,143.51173 181.72569,144.17039C181.72569,145.17841 181.72569,146.0584 181.72569,146.95573C181.72569,147.84506 181.72569,148.73441 181.72569,149.6304C181.72569,150.54507 181.72569,151.44507 181.72569,152.34506C181.72569,153.22391 181.72569,154.0549 181.72569,154.8624C181.72569,155.80341 181.72569,156.7704 181.72569,157.62907C181.72569,158.56641 181.63745,159.40196 181.72569,160.31973C181.80942,161.19041 182.36209,161.80197 182.89236,162.34506C183.45219,162.91843 184.15546,162.98615 185.02119,163.35406C185.78983,163.68073 185.54366,164.93539 186.33636,165.32373C187.11653,165.70593 188.17236,165.34506 189.04703,165.34506C189.90036,165.34506 190.83902,165.34506 191.72569,165.34506C192.64169,165.34506 193.43045,165.36731 194.36853,165.34506C195.24727,165.32423 195.87521,164.74464 196.36853,164.0504C196.89706,163.30659 197.77704,163.03673 198.48286,162.69774C199.32904,162.29134 200.15636,162.3465 201.15103,162.34506C202.01103,162.34381 202.80605,161.88264 203.55902,161.51173C204.3044,161.14456 204.67145,160.56752 205.4417,160.34641C206.26703,160.10948 207.22569,160.34506 208.07835,160.34506C209.05902,160.34506 209.94891,160.02492 210.76169,160.38107C211.55356,160.72806 212.15103,161.34506 213.00969,161.34506C213.94702,161.34506 214.94681,161.09259 215.64169,161.62907C216.26733,162.11209 217.00969,162.34506 217.89236,162.34506C218.74652,162.34506 219.57635,162.34506 220.55637,162.34506C221.37303,162.34506 222.30035,162.34506 223.15103,162.34506L224.07835,162.34506" id="svg_2" stroke-width="3" stroke="#000" fill="none"/>
  <path t="10010,10128,10145,10162,10162,10179,10195,10212,10212,10232,10245,10245,10262,10279,10295,10312,10312,10329,10364,10379,10395,10395,10412,10412,10429,10445,10479,10495,10529,10546,10562,10579,10596,10596,10612,10629,10645,10662,10679,10696,10713,10729,10745,10762,10762,10779,10779,10796,10812,10829,10845,10862,10862,10879,10896,10912,10913,10929,10946,10946,10962,10979,11013,11029,11046,11079,11096,11129,11129,11146,11179,11279,11313,11395,11479,11579,11663" d="M208.72569,97.34507C208.72569,98.1464 208.78571,99.10392 209.43103,99.64507C210.10692,100.21183 210.54861,100.86331 210.73636,101.74507C210.93774,102.69086 211.54747,103.20869 211.6897,104.1704C211.83727,105.16819 211.72118,105.95514 212.15103,106.74507C212.59927,107.56879 212.54434,108.49854 212.89236,109.34507C213.16826,110.01614 213.71527,110.82405 213.72569,111.70223C213.73692,112.6495 213.72569,113.51173 213.72569,114.34507C213.72569,115.32357 213.72569,116.14374 213.72569,117.04507C213.72569,117.90907 213.72569,118.8659 213.72569,119.73441C213.72569,120.6304 213.72569,121.54373 213.72569,122.39774C213.72569,123.23174 213.72569,124.1704 213.72569,124.86107C213.72569,125.9344 213.72343,126.84507 213.72569,127.74507C213.72795,128.64058 214.39622,129.15192 214.70486,129.86591C215.05382,130.67313 214.72569,131.64507 214.72569,132.5464C214.72569,133.51173 214.72569,134.34506 214.72569,135.17841C214.72569,136.04057 214.56047,136.96426 214.74652,137.84506C214.92551,138.69246 215.66481,139.43895 215.72569,140.34506C215.77933,141.14326 215.72496,142.04507 215.72569,142.98106C215.72636,143.82907 215.67484,144.7356 216.07835,145.58791C216.46213,146.39848 216.72502,147.14507 216.72569,148.04507C216.72639,148.9879 216.72569,149.86591 216.72569,150.74507C216.72569,151.64056 217.22359,152.02927 217.66853,152.69774C218.21284,153.51549 217.72569,154.4944 217.72569,155.39323C217.72569,156.30907 217.83536,156.94792 218.37303,157.34506C218.91539,157.74565 218.22569,158.34506 217.72569,158.69774L217.72569,159.62907" id="svg_3" stroke-width="3" stroke="#000" fill="none"/>
  <path t="13077,13197,13231,13248,13265,13281,13314,13364,13381,13414,13448,13481,13497,13515,13581,13681,13681,13731,13781,13798,13814,13831,13848,13864,13864,13898,13898,13914,13931,13964,13998,14031,14064,14148,14182,14198,14215,14231,14248,14265,14282,14298,14298,14315,14332,14365,14382,14398,14431,14498" d="M216.72569,128.34506C217.30035,128.91974 218.07835,129.34506 218.89502,129.34506C219.72569,129.34506 220.74036,129.34506 221.64037,129.34506C222.55902,129.34506 223.37303,129.34506 224.30035,129.34506C225.15103,129.34506 225.85265,129.84676 226.60435,130.22357C227.36075,130.60274 228.30035,130.34506 229.29369,130.34506C230.02036,130.34506 230.72569,130.06107 230.72569,129.12357C230.72569,128.24507 230.72569,127.34507 230.72569,126.4664C230.72569,125.6984 230.92319,124.67157 230.72569,123.9144C230.49695,123.03745 229.34625,122.92469 228.89636,122.1464C228.44513,121.36581 229.3089,120.15707 228.72569,119.46657C228.25708,118.91174 227.80891,118.53006 227.22569,118.34507C226.3335,118.06207 225.42569,118.34507 224.5257,118.34507C223.62585,118.34507 222.6907,118.18115 221.92436,118.4304C221.13464,118.68726 220.24452,119.29354 219.55103,119.3344C218.48915,119.39698 217.64169,119.34507 216.72569,119.34507C215.80969,119.34507 215.00969,119.34507 214.30035,119.7704L213.72569,120.1784" id="svg_4" stroke-width="3" stroke="#000" fill="none"/>
  <path t="14957,15099,15116,15132,15132,15149,15165,15165,15199,15232,15232,15249,15265,15282,15299,15316,15332,15399,15482,15500,15500,15516,15532,15549,15549,15566,15583,15600,15616,15632,15666" d="M231.72569,119.34507C232.60435,119.34507 233.38731,119.33525 234.20969,119.62907C235.09177,119.94421 236.03314,120.1402 236.82553,120.5664C237.52049,120.9402 238.33533,121.23711 239.16837,121.56657C239.91856,121.86327 240.63998,122.53185 240.72569,123.4549C240.80798,124.34126 240.72569,125.23524 240.72569,126.04957C240.72569,126.9879 241.12738,127.94714 240.70436,128.7704C240.31071,129.5365 239.18874,129.17136 238.24652,129.36591C237.37944,129.54494 236.7383,130.26004 235.92569,130.34373C235.03043,130.43594 234.12569,130.38107 233.3257,130.7704L232.52702,131.25974L231.67302,131.34506L230.74652,131.34506" id="svg_5" stroke-width="3" stroke="#000" fill="none"/>
  <path t="16840,16900,16917,16933,16934,16950,16950,16967,16967,16984,17000,17017,17017,17034,17051,17067,17067,17084,17100,17117,17134,17167,17184,17200,17217,17234,17251,17267,17268,17284,17284,17317,17334,17367,17401,17417,17434,17468" d="M218.72569,131.34506C218.72569,132.34506 218.791,133.13995 219.29369,133.82907C219.82571,134.5584 220.49582,135.31898 220.77386,136.09773C221.09334,136.99254 221.49055,137.66185 221.66853,138.58791C221.84953,139.52962 222.02654,140.39589 222.37303,141.04507C222.82639,141.89444 222.72569,142.86591 222.72569,143.6664C222.72569,144.51973 222.53241,145.57065 223.07835,146.2924C223.55049,146.9166 223.7256,147.64056 223.72569,148.56657C223.72578,149.4449 224.27411,150.01439 224.66853,150.70224C225.1384,151.52164 224.72569,152.5464 224.72569,153.51173C224.72569,154.17039 224.72569,155.17841 224.72569,156.0584C224.72569,156.95573 224.72569,157.82423 224.72569,158.7704C224.72569,159.6304 224.72569,160.54373 224.72569,161.42906L224.72569,162.32423" id="svg_6" stroke-width="3" stroke="#000" fill="none"/>
  <path t="18504,18602,18619,18651,18651,18668,18685,18685,18702,18719,18735,18735,18752,18752,18768,18768,18785,18802,18819,18835,18868,18868,18902,18919,18968,19002,19052,19168" d="M195.72569,167.34506C195.72569,168.95573 195.6319,169.93819 195.94702,170.78773C196.2218,171.52849 196.72881,172.36485 197.00969,173.19707C197.22812,173.84425 197.54779,174.84737 197.73019,175.70674C197.93448,176.66914 198.25407,177.33453 198.60452,178.32356C198.85611,179.03362 199.53499,179.52034 200.1577,180.14507C200.84174,180.83131 200.81642,181.76143 201.30035,182.37041C201.80455,183.0049 201.5873,183.92422 201.72569,184.77707C201.86955,185.66356 202.6897,186.30907 202.72569,187.17841L202.72569,187.9924L202.72569,188.91974L202.72569,189.7704" id="svg_7" stroke-width="3" stroke="#000" fill="none"/>
  <path t="19684,19803,19819,19819,19837,19853,19853,19853,19869,19869,19886,19886,19903,19903,19903,19919,19936,19936,19953,19953,19969,19969,19986,19986,20003,20019,20036,20036,20053,20086,20103,20119,20119,20136,20153,20170,20186,20203,20203,20236,20253,20270,20303,20319,20353,20353,20370,20370,20403,20419,20453,20470,20536,20570,20587,20653" d="M203.72569,190.34506C202.89236,190.51173 202.49574,191.30559 202.07835,192.04507C201.689,192.73489 201.56595,193.68039 201.30035,194.59573C201.08398,195.3414 200.97899,196.24744 200.61586,197.09323C200.27316,197.89143 199.50414,198.52734 198.89236,199.34506C198.46094,199.92171 198.0778,200.68468 197.77837,201.58791C197.49513,202.44228 196.98662,203.07986 196.5257,203.8304C196.09222,204.53625 195.60973,205.53726 195.33636,206.1344C194.86415,207.16595 194.73665,207.95334 194.30035,208.74507C193.84773,209.56641 193.90712,210.38603 193.64037,211.14507C193.33955,212.00102 192.69859,212.68155 192.22569,213.36591C191.76007,214.03972 191.8994,214.88202 191.70486,215.82423C191.52585,216.69131 191.1996,217.58382 190.71669,218.2924C190.26294,218.95821 189.23323,218.97948 188.4417,219.62907C187.75153,220.19548 187.49934,220.88873 186.84703,221.56641C186.29007,222.14502 185.44548,222.4357 185.07835,223.10674C184.62984,223.92651 184.73274,224.78065 184.22569,225.36591C183.74178,225.92447 182.95227,226.28423 182.73019,226.9924C182.45271,227.87726 182.22569,228.36591 181.73019,228.9924L181.72569,229.84506" id="svg_8" stroke-width="3" stroke="#000" fill="none"/>
  <path t="21473,21537,21554,21587,21587,21620,21620,21637,21637,21654,21654,21671,21688,21688,21704,21737,21737,21771,21787,21804,21821,21854,21871,21887,21887,21904,21921,21937,21938,21954,21987,22005,22021,22038,22055,22055,22071,22105,22121,22121,22138,22154,22154,22205,22221,22271,22305,22338,22355,22371,22388,22438,22471,22488,22505,22522,22555,22588,22604,22622,22638,22671,22688,22705,22722,22722,22755,22805,22822,22838,22855,22888,22905,22938,22955,22972,22972,22988,23022,23038,23072,23088,23105,23139,23155,23172,23188,23222,23222,23239,23272,23339" d="M193.72569,232.34506C193.78285,230.69774 194.36598,230.21976 194.89236,229.34506C195.25128,228.74864 196.12343,228.12573 196.4417,227.4584C196.86526,226.5703 196.75464,225.72719 197.07835,224.74957C197.33087,223.98695 197.54567,223.05051 197.94702,222.24507C198.32932,221.47791 198.61086,220.58316 199.29369,220.06107C199.93909,219.5676 200.9178,219.34198 201.37303,218.64056C201.8842,217.85297 202.27579,217.24371 202.72586,216.4664C203.14191,215.74786 203.48512,214.99323 203.75102,214.20641C204.03893,213.35448 205.15706,213.08054 205.55902,212.34506C205.96107,211.60942 206.29767,210.77841 206.94702,210.12373C207.55652,209.50923 208.18692,208.93103 208.64302,208.14507C209.0956,207.36517 210.00677,207.19841 210.61136,206.40224C211.04662,205.82906 211.04236,204.8741 211.37303,203.99774C211.70644,203.11414 211.80536,202.09709 212.4417,201.6304C213.12039,201.13264 213.33458,200.61124 213.72569,199.7704C214.00255,199.1752 214.64029,198.86754 215.00969,198.14507C215.45148,197.28101 215.28841,196.28905 215.81102,195.62907C216.35577,194.94115 216.72569,194.4944 216.72569,193.58791C216.72569,192.7704 216.72569,191.84506 216.72569,190.9879C216.72569,190.04507 216.72569,189.14641 216.72569,188.2924C216.72569,187.34506 216.72569,186.51173 216.72569,185.69839C216.72569,184.6969 216.72569,183.9144 216.72569,182.9924C216.72569,182.05974 216.72569,181.14507 216.72569,180.24524C216.72569,179.39774 216.7354,178.51167 216.72569,177.69774C216.71527,176.82405 216.17581,175.98936 215.89236,175.17841C215.62,174.39914 215.72569,173.4064 215.72569,172.51173C215.72569,171.69774 215.10895,171.00218 214.81102,170.14641C214.52884,169.33586 214.72569,168.39774 214.72569,167.54373C214.72569,166.64507 214.81949,165.75195 214.50436,164.9024C214.22958,164.16165 213.73019,163.29691 213.72569,162.38107L213.72569,161.51173" id="svg_9" stroke-width="3" stroke="#000" fill="none"/>
  <path t="23912,23956,23972,23972,23989,24006,24022,24039,24039,24056,24056,24072,24072,24089,24089,24106,24106,24122,24139,24156,24172,24172,24172,24189,24189,24206,24222,24239,24272,24273,24289,24289,24322,24339,24356,24389,24389,24406,24423,24439,24456,24473,24489,24489,24506,24523,24539,24539,24556,24557,24573,24590,24606,24623,24623,24640,24673,24690,24690,24706,24706,24739,24756,24790,24806,24806,24823,24840,24856,24890,24906,24907,24923,24923,24956,25006,25023,25057,25090,25106,25123,25156,25190,25190,25207,25240,25257,25274,25290,25340,25384" d="M218.72569,163.34506C218.72569,164.36591 218.72569,165.32356 218.72569,166.14374C218.72569,167.04507 218.46263,167.99721 218.76736,168.84506C219.06393,169.67024 220.18414,170.0065 220.55502,170.82907C220.84547,171.47324 220.68008,172.60434 220.81102,173.31441C221.00505,174.36659 221.34904,175.08205 221.55902,176.01173C221.76286,176.91425 221.72569,177.74507 221.72569,178.64507C221.72569,179.5464 221.72569,180.51173 221.72569,181.19174C221.72569,182.03174 221.72569,183.0264 221.72569,183.80341C221.72569,184.98073 221.72569,185.78107 221.72569,186.64056C221.72569,187.67841 221.72569,188.36591 221.72569,189.32356C221.72569,190.14374 221.72569,191.17841 221.72569,191.95573C221.72569,192.90907 221.72569,193.7879 221.72569,194.5304C221.72569,195.58791 221.72569,196.44507 221.72569,197.34506C221.72569,198.26106 221.72569,199.10674 221.72569,199.99774C221.72569,200.86107 221.80005,201.828 221.72119,202.64957C221.63737,203.52284 221.14317,204.31662 220.89236,205.17841C220.64722,206.02074 220.73636,206.94513 220.72569,207.84506C220.71503,208.74525 220.25551,209.40829 219.57635,209.94507C218.86557,210.50684 218.75708,211.51233 218.72569,212.34506C218.6971,213.10385 218.31851,213.97017 218.00969,214.77574C217.66281,215.68059 217.81154,216.64481 217.72569,217.51173C217.64195,218.35744 216.92551,218.99768 216.74652,219.84506C216.56047,220.72588 216.72569,221.64056 216.72569,222.56674C216.72569,223.51173 216.72569,224.34506 216.72569,225.17841C216.72569,226.0584 216.77959,227.02184 216.37303,227.70224C215.90628,228.48338 215.72569,229.36591 215.72569,230.26106C215.72569,231.04958 215.72569,231.9879 215.72569,232.84506C215.72569,233.7879 215.72569,234.5304 215.72569,235.5834C215.72569,236.51173 215.72569,237.34506 215.72569,238.26106L215.72569,239.06107L215.72569,239.9924L215.72569,239.84506" id="svg_10" stroke-width="3" stroke="#000" fill="none"/>
  <path t="26833,26941,26959,26991,26992,27008,27025,27042,27059,27059,27075,27075,27092,27092,27125,27158,27175,27192,27208,27242,27258,27275,27275,27292,27325,27358,27392,27425,27458,27509,27559,27592,27609,27659,27692,27709,27726,27759,27776,27809,27826,27859,27876,27892,27909,27959,27976,27992,28009,28042,28076,28093,28109,28143,28159,28176,28193,28226,28259,28293,28326,28359,28376,28393,28393,28409,28426,28443,28459,28477,28493,28526,28543,28559,28593" d="M205.72569,215.34506C205.72569,216.22374 205.72569,217.06107 205.72569,217.9144C205.72569,218.6969 205.72569,219.70908 205.72569,220.64507C205.72569,221.54507 205.72569,222.44524 205.72569,223.23041C205.72569,224.18106 205.72569,224.9464 205.72569,225.93607C205.72569,226.7744 205.72569,227.7704 205.72569,228.6304C205.72569,229.54507 205.72569,230.4449 205.72569,231.31973C205.72569,232.22374 205.72569,232.99173 205.72569,233.99774C205.72569,234.6924 205.72569,235.69839 205.72569,236.62907C205.72569,237.56641 205.30771,237.76915 204.72569,238.36591C204.10161,239.0058 205.16241,240.1698 204.72569,240.9924C204.40038,241.60516 203.6729,242.09636 204.15103,242.7704C204.67012,243.50218 204.14659,244.56451 204.73019,245.23073C205.28151,245.86008 206.4234,245.2637 207.15103,245.7704C207.86765,246.26942 208.71103,246.34499 209.57635,246.34506C210.48286,246.34515 211.0049,247.04137 211.89236,247.34506C212.73064,247.63193 213.50902,247.45969 214.28969,247.91974C215.06166,248.37466 216.01103,248.34506 216.92436,248.34506C217.77837,248.34506 218.67752,248.34499 219.57635,248.34506C220.4827,248.34515 220.63448,249.45097 221.30035,249.34506C221.94864,249.24194 221.72569,247.91974 221.72569,247.06107C221.72569,246.12373 221.67529,245.29059 221.30035,244.48373C220.99799,243.83304 220.78767,242.74254 220.02036,242.39774C219.12094,241.99359 218.47304,241.73489 217.70036,241.30907C217.02655,240.93773 216.4417,240.06107 215.81102,239.42906L215.64037,238.62907L214.81102,238.34506" id="svg_11" stroke-width="3" stroke="#000" fill="none"/>
  <path t="29512,29577,29594,29644,29660,29677,29694,29710,29727,29744,29744,29760,29760,29777,29811,29827,29860,29877,29911,29944,29960,29977,29994,30027,30027,30044,30094,30111,30161,30177,30178,30211,30228,30261,30261,30277,30311,30328,30361,30378,30394,30394,30411,30444,30478,30494,30494,30511,30528,30578,30645,30694,30728,30761,30795,30820,30845,30861,30878,30895,30911,30928,30945,30961,30978,30995,31011,31061,31095,31145,31178,31195,31195,31211,31228,31245,31245,31262,31278,31278,31295,31378" d="M183.72569,227.34506C183.4417,228.26106 183.00606,228.73944 182.72437,229.62907C182.47972,230.40169 181.89008,230.88293 181.71503,231.74507C181.52429,232.68448 180.80147,233.2556 180.1577,233.9144C179.72096,234.36133 178.90422,235.13515 178.7347,236.04057C178.57486,236.89429 178.18988,237.56285 177.73636,238.37041C177.30342,239.1413 177.27011,239.63148 176.70486,240.32423C176.1777,240.97031 176.06485,241.40958 175.72119,242.2924C175.41368,243.08238 174.72569,243.67841 174.72569,244.4944C174.72569,245.42773 174.72705,246.34637 175.30035,246.91974C175.94707,247.56653 176.27057,248.52782 176.80969,249.05974C177.45796,249.69934 178.2175,250.12526 179.05902,250.34506C179.84854,250.55127 180.94456,250.09138 181.64169,250.62907C182.26756,251.11179 183.01584,251.2527 183.92569,251.34641C184.7383,251.4301 185.37801,252.15466 186.28969,252.3344C187.13483,252.50101 188.08736,252.34506 188.89236,252.34506C189.70486,252.34506 190.67393,252.45999 191.30035,252.91974C192.01517,253.44437 193.01021,253.37527 193.89236,253.34506C194.72716,253.31647 194.72569,252.38107 194.72569,251.54373C194.72569,250.6304 194.31241,249.88249 193.52702,249.42906C192.82829,249.02567 192.32942,248.36118 191.89236,247.51173C191.52484,246.79742 191.03423,246.10228 190.73019,245.23523C190.43564,244.39519 190.72569,243.4549 190.72569,242.62907C190.72569,241.69774 190.72346,240.84506 190.72569,239.91974C190.72795,238.98788 191.11177,238.20671 191.4417,237.54507C191.86224,236.70171 191.69897,235.70862 191.72702,234.86107C191.75563,233.99641 192.07835,233.10223 192.55902,232.34506L192.72437,231.54507L192.72569,230.6304L192.72569,229.7704" id="svg_12" stroke-width="3" stroke="#000" fill="none"/>
  <path t="33840,33930,33963,33997,34030,34047,34080,34114,34131,34147,34180,34198,34214,34231,34247,34264,34280,34314,34347,34380,34398,34414,34447,34464,34464,34481,34498,34514,34531,34547,34581,34598,34598,34631,34647,34664,34681,34714,34731,34764,34781,34798,34831,34864,34881,34898,34914,34948,34964,35015,35064,35098,35131,35147,35215,35264,35298,35315,35331,35465,35531,35565,35582,35582,35615,35648,35732,35765,35782,35798,35881,35931,35982,36031,36065,36082,36099,36116,36149,36199,36199,36249,36265,36282,36332,36382,36382,36432,36466,36482,36499,36566,36599,36632,36632,36667,36682,36699,36749,36765,36799,36832,36866,36899,36932,36966,36983,36999,37033,37033,37067,37100,37133,37150,37195" d="M208.72569,42.34507C207.70486,42.34507 206.69467,42.68425 206.00969,42.25974C205.2103,41.76431 205.13028,40.97359 204.4417,40.4304C203.74545,39.88117 203.05202,39.77709 202.30035,39.38107C201.54002,38.98047 200.55637,39.34507 199.72569,39.34507C198.74652,39.34507 197.92436,39.34507 197.0257,39.34507C196.1617,39.34507 195.22569,39.34507 194.30035,39.34507C193.44035,39.34507 192.51971,39.23362 191.67302,39.34507C190.82504,39.45669 190.2886,40.27344 189.54036,40.3344C188.49074,40.41991 187.81781,40.73014 187.30035,41.31974C186.74065,41.95748 186.03331,42.43792 185.72552,43.2239C185.39789,44.06057 185.1402,44.82866 184.72119,45.69773C184.39503,46.37421 183.55904,46.7778 183.07835,47.39774C182.52802,48.10751 182.9129,49.08861 182.6897,49.95573C182.47269,50.79883 181.72636,51.42907 181.72569,52.34507C181.72505,53.2239 181.2957,54.24073 181.89236,55.01173C182.39389,55.6598 182.76021,56.06937 183.4417,56.34507C184.20842,56.65524 184.89673,57.43133 185.74652,57.34507C186.5717,57.26131 187.00859,56.41809 187.89236,56.34507C188.72481,56.27629 188.74644,55.36308 189.57635,55.34507C190.48248,55.32541 190.73552,55.99246 190.72569,56.84507C190.71503,57.77058 189.965,58.05998 189.29369,58.34373C188.59587,58.63869 188.62546,59.77627 188.72569,60.62907C188.81161,61.3601 189.72569,61.34507 190.70436,61.34507C191.60419,61.34507 192.4417,61.34507 193.30035,61.34507C194.22569,61.34507 195.11932,61.59967 196.02119,61.34057C196.78911,61.11995 197.30031,60.3504 198.15103,60.34507C199.05901,60.33938 199.89168,60.52834 200.89236,60.34507C201.6806,60.20071 202.15588,59.44305 203.00969,59.34507C203.9021,59.24265 204.40524,58.49397 205.22569,58.34507C206.13622,58.17982 206.6907,57.79566 207.37303,57.34957C208.11699,56.86318 208.40062,56.04093 209.05902,55.51173C209.70657,54.99126 210.76169,55.27307 211.15103,54.4944C211.55904,53.67841 211.83949,52.92827 212.30035,52.31974C212.85164,51.59181 212.72569,50.69773 212.72569,49.7704C212.72569,48.91973 212.95276,47.91008 212.55902,47.1784C212.11226,46.34818 211.12244,46.43649 210.28302,46.12373C209.54266,45.84788 208.66853,45.34507 207.75102,45.34507L206.89236,45.34507L206.00969,45.34507L205.15103,45.34507" id="svg_13" stroke-width="3" stroke="#000" fill="none"/>
  <path t="37740,37884,37900,37917,37934,38000,38051,38067,38101,38134,38151,38184,38201,38251,38284,38317,38334,38351,38351,38401,38418,38434,38434,38451,38484,38518,38534,38567,38618,38635,38651,38651,38734,38768,38784,38802,38835,38851,38868,38884,38935,39102,39118,39135,39151,39168,39185,39201,39202,39235,39268,39285,39285,39401,39402,39419,39451,39451,39468,39485,39502,39519,39535,39551,39551,39568,39585,39602,39635,39668,39702,39719,39735,39752,39768,39819,39852,39852,39902,39968,40102,40136" d="M192.72569,62.34507C192.72569,63.2239 192.72569,64.0504 192.72569,65.01173C192.72569,65.84507 192.53056,66.85284 192.94702,67.5664C193.38329,68.3139 193.73264,69.13556 194.55902,69.34507C195.35001,69.54561 195.7204,70.26196 196.4417,70.34507C197.36865,70.45187 197.72569,71.1784 197.72569,71.95573C197.72569,72.8659 197.63168,73.83323 197.72569,74.63524C197.83711,75.58583 198.54506,76.26122 199.29503,76.34507C200.07268,76.43202 201.07903,76.34507 202.00969,76.34507C202.94702,76.34507 203.814,76.43319 204.71503,76.34507C205.57124,76.26134 206.22957,75.60174 206.60419,74.9024C207.01027,74.14432 206.55539,73.10827 206.72569,72.1784C206.87006,71.39017 207.70706,70.92029 207.72569,70.05974C207.74545,69.14661 208.33617,68.61057 208.6897,67.91974C209.11247,67.0936 208.72569,66.56657 208.72569,67.4449C208.72569,68.3704 208.68983,69.14712 208.72569,70.04507C208.76172,70.94723 209.50714,71.5301 210.1577,72.05974C210.82013,72.59904 211.25273,73.16001 211.64037,73.91307C211.97499,74.56315 211.72569,75.01173 211.72569,74.19573C211.72569,73.29691 211.72569,72.34507 211.72569,71.54507C211.72569,70.64507 211.72569,69.74507 211.72569,68.84507C211.72569,67.94507 211.67133,67.04334 211.72702,66.14374C211.76961,65.45591 212.26007,64.5745 212.55902,63.6784C212.82796,62.87224 212.72569,61.91973 212.72569,61.06107C212.72569,60.12357 212.72569,59.24524 212.72569,58.3704C212.72569,57.54374 212.72569,56.6304 212.72569,55.7704C212.72569,54.77707 212.72569,54.0504 212.72569,53.06107L212.72569,52.12373L212.81102,51.34507L213.72119,51.34507" id="svg_14" stroke-width="3" stroke="#000" fill="none"/>
  <path t="41584,41703,41720,41753,41770,41787,41787,41803,41820,41853,41887,41903,41937,41970,42003,42037,42071,42087,42104,42154,42203,42254,42271,42320,42337" d="M213.72569,51.34507C214.60419,51.34523 215.07748,51.78727 215.60419,52.5664C216.08282,53.27444 216.201,54.18647 216.4417,54.8624C216.7762,55.80181 216.72569,56.7344 216.72569,57.62907C216.72569,58.5664 216.72569,59.42907 216.72569,60.34507C216.72569,61.22357 216.77934,62.09613 216.30035,62.7704C215.78076,63.50183 216.05188,64.40429 215.72569,65.27307C215.45865,65.98432 214.72569,66.62907 214.55902,67.34507L213.78285,67.69774L213.50436,68.34524L212.78285,68.69774" id="svg_15" stroke-width="3" stroke="#000" fill="none"/>
  <path t="44456,44622,44655,44705,44739,44805,44856,44889,44905,44956,44989,45006,45022,45072,45106,45139,45156,45189,45222,45272,45322,45339,45373,45439,45490,45506,45539,45539,45556,45590,45606,45623" d="M283.72568,121.34507C283.70486,120.34507 283.13803,120.17139 282.64035,119.62907C282.0296,118.96354 282.10736,120.27344 281.72568,120.9924C281.40036,121.60515 280.30682,122.16057 280.72568,122.9924C281.04706,123.63062 281.70767,124.1952 281.72568,125.10207C281.74191,125.91958 281.68799,126.87899 282.15103,127.35574C282.66595,127.88587 282.57007,128.90204 283.07837,129.34506C283.61124,129.80951 284.16351,129.80997 284.72437,130.4304C285.33057,131.101 285.2627,131.94176 285.73019,132.69774C286.12054,133.32898 286.56229,133.81551 286.76169,134.4944C287.02451,135.38922 287.73636,135.7704 288.30035,136.37041L288.72437,137.06107" id="svg_16" stroke-width="3" stroke="#000" fill="none"/>
  <path t="46267,46407,46440,46473,46490,46507,46540,46540,46590,46640,46691,46724,46740,46773,46807,46824,46857,46907,46940,46940,46957,47024,47075,47141,47291,47324,47341,47391,47408,47408,47424,47458,47491,47525,47541,47558,47608,47808,47825,47842,47858,47909,47909,47941,47975,48009,48225,48242,48258,48258,48275,48292,48308,48342,48359,48392,48442,48475,48509,48526,48625,48692,48742,48792,48859,48892,48926,48975,49026,49026,49276,49309,49309,49326,49360,49393,49409,49443,49476,49509,49526,49543,49560,49609,49743,49776,49810,49843,49876" d="M284.72568,120.34507C285.30035,120.91974 286.16071,121.118 286.89236,121.51173C287.7226,121.9585 288.30035,122.34507 289.2937,122.34507C290.02036,122.34507 291.0097,122.34507 291.94702,122.34507C292.81104,122.34507 293.33249,122.85326 294.07837,123.2879C294.83051,123.7262 295.89236,123.34507 296.75104,123.34507C297.64035,123.34507 298.59564,123.29861 299.16837,123.78773C299.7677,124.29961 300.54364,124.96312 301.22568,125.34507C301.79843,125.66581 302.01492,126.44371 302.94702,126.34507C303.73889,126.26127 304.05237,125.62933 304.89236,125.34507C305.68652,125.07632 305.42245,123.87106 306.22568,123.38673C307.01892,122.90842 308.0097,123.34507 308.89636,123.34507C309.72568,123.34507 310.91602,122.7653 311.60419,123.34507C312.15155,123.80621 311.67023,124.94424 311.22568,125.3659C310.64615,125.91558 310.12399,126.56834 309.43103,126.9924C308.6839,127.4496 307.85495,127.44304 307.76169,128.34506C307.67792,129.1553 308.7326,129.34732 309.43552,129.69774C310.22797,130.09279 311.14606,130.38518 311.75104,130.91974C312.33887,131.43915 312.89236,132.17841 313.72568,132.34506C314.55902,132.51173 315.00189,132.73029 315.66852,133.34506C316.18872,133.82481 316.10663,135.09552 315.72568,135.91974C315.45026,136.51559 314.37302,136.34506 313.44168,136.34506C312.55902,136.34506 312.34457,136.62511 311.72568,137.2879C311.15561,137.89841 309.97354,137.08847 309.2937,137.34506C308.58572,137.61227 309.19614,138.18166 309.87503,138.38107C310.76984,138.64392 310.53055,139.85284 310.94702,140.56641C311.4155,141.36906 312.04028,141.73518 312.55902,142.51173C313.03253,143.22057 312.44116,144.32108 312.94702,145.10223C313.42035,145.83315 314.30161,146.76303 313.70486,147.34506C313.065,147.96916 312.0097,147.25974 311.72119,146.40224L310.8472,146.34506" id="svg_17" stroke-width="3" stroke="#000" fill="none"/>
  <path t="50907,51011,51027,51044,51061,51078,51094,51094,51110,51110,51127,51161,51177,51194,51211,51211,51227,51261,51277,51294,51311,51344,51344,51361,51377,51411,51427,51444,51461,51511,51544,51595,51611" d="M287.72568,137.34506C287.72568,138.22374 287.90842,139.07596 287.6897,139.94507C287.47256,140.80788 286.7684,141.54205 286.72568,142.44524C286.68857,143.22954 286.8197,144.18993 286.64035,144.86107C286.37454,145.85571 285.87253,146.57896 285.72552,147.4449C285.58084,148.29726 284.46594,148.43417 284.01102,149.14641C283.53351,149.89404 283.12735,150.53433 282.73019,151.39774C282.41507,152.08278 281.96783,152.84201 281.72552,153.78773C281.5499,154.47316 281.01236,155.20988 280.73019,155.9924C280.44052,156.79568 279.87888,156.83983 279.05902,157.34506C278.49344,157.6936 278.72568,158.84506 278.72568,159.69774L278.50436,160.56641L277.89236,161.17841" id="svg_18" stroke-width="3" stroke="#000" fill="none"/>
  <path t="52295,52345,52378,52395,52412,52428,52445,52462,52478,52512,52528,52562,52578,52595,52612,52612,52645,52662,52678,52695,52712,52745,52779,52812,52895,52962,53029,53062,53112,53146,53179,53212,53246,53279,53279,53312,53329,53395,53412,53446,53462,53479,53496,53513,53530,53546,53562,53563,53579,53596,53612,53629,53646,53662,53696,53696,53729,53779,53829,53879,53879,53896,53913,53946,53963,53979,53996,54030,54046,54046,54063,54080,54096,54130,54179,54230,54380,54396,54430,54464,54480,54680,54714,54747,54764,54780,54797,54797,54830,54847,54864,54880,54880,54897,54930,54948,54964,54980,54997,54997,55013,55047,55064,55080,55097,55097,55114,55130,55148,55164,55164,55180,55197,55214,55214,55230,55230,55247,55264,55281,55297,55314,55331,55347,55381,55397,55414,55430,55464,55481,55497,55514,55514,55531,55531,55547,55564,55597,55614,55631,55647,55697" d="M286.72568,156.34506C286.0097,157.06107 285.53812,157.93948 284.70035,158.3344C283.99307,158.6678 283.24655,159.00679 282.75104,159.73441C282.29761,160.40022 281.41684,160.73451 280.89236,161.51173C280.43088,162.1956 280.72568,163.22391 280.72568,164.0504C280.72568,165.01173 280.25571,165.51637 279.57635,165.91974C278.68521,166.44885 278.72568,167.37041 278.72568,168.14641C278.72568,169.04507 278.72568,169.9879 278.72568,170.91974C278.72568,171.7704 279.08664,173.01961 278.72568,173.06107C277.99533,173.14494 277.6897,172.34506 276.78287,172.34506C275.89236,172.34506 275.07837,172.34506 274.15103,172.34506C273.30035,172.34506 272.72568,172.69774 272.72568,173.67841C272.72568,174.4944 272.56863,175.2803 272.07837,175.9924C271.58844,176.70399 271.72568,177.64056 271.72568,178.56657C271.72568,179.4449 271.83661,180.27412 272.30035,180.95573C272.79544,181.68341 272.70547,182.65627 273.15103,183.3304C273.64194,184.07317 273.55197,184.88202 273.74652,185.82423C273.92554,186.69131 274.35748,187.40875 274.72586,188.22374C275.06104,188.96526 275.44666,189.73047 275.89236,190.51173C276.27731,191.18651 276.60959,192.11847 277.22568,192.34506C278.02597,192.6394 279.05923,192.17883 279.72568,191.84506C280.5553,191.42958 280.72568,190.62907 280.72568,189.73441C280.72568,188.84506 280.72568,187.94507 280.72568,187.04958C280.72568,186.1234 280.72568,185.17841 280.72568,184.5304C280.72568,183.5144 280.72568,182.64056 280.72568,181.78107C280.72568,180.84506 280.59744,179.91011 280.72568,179.06107C280.83762,178.32004 281.81378,178.25981 282.70035,178.34506C283.57104,178.42879 284.28702,178.8923 284.72568,179.51173C285.21933,180.20882 284.72568,181.26106 284.72568,182.04958C284.72568,182.98106 284.72568,183.82773 284.72568,184.63524C284.72568,185.70224 284.64355,186.54884 284.72586,187.44507C284.80954,188.35651 285.52188,188.99734 285.70486,189.82423C285.91171,190.75897 286.25885,191.38542 286.64035,192.26106C286.97983,193.04028 286.47891,194.06262 286.81104,194.77574C287.194,195.59802 287.78336,196.21872 288.22568,196.86591C288.78708,197.6873 289.30823,198.19975 290.07751,198.39774C290.98529,198.63135 291.32761,199.64044 291.9472,200.22374C292.55157,200.79269 293.42651,200.99052 294.22568,201.34506C295.02652,201.70036 295.83835,202.26073 296.2897,202.98106C296.77655,203.75806 296.63687,204.77068 297.33636,205.35974C298.0097,205.92679 298.78696,206.33919 299.57635,206.34506C300.55634,206.35236 301.16629,207.03226 302.02118,207.2879C302.90991,207.55367 303.46289,207.95665 304.16168,208.30907C305.01349,208.73866 306.01102,208.34506 306.92435,208.34506C307.76736,208.34506 308.57904,208.34506 309.48569,208.34506C310.39236,208.34506 311.36221,208.27841 312.11502,208.7704C312.8472,209.24893 313.72568,209.34506 314.55902,209.34506L315.43021,209.34506L316.2897,209.34506L317.22568,209.34506" id="svg_19" stroke-width="3" stroke="#000" fill="none"/>
  <path t="56507,56599,56615,56631,56648,56665,56665,56681,56698,56731,56748,56765,56815,56815,56831,56848,56848,56865,56899,56899,56915,56931,56948,56982,56998,57015,57032,57049,57065,57065,57099,57116,57149,57182,57216,57232,57266,57282,57300,57300,57316,57349" d="M278.72568,166.34506C277.71503,166.3344 277.17752,165.60242 276.32568,165.38107C275.45789,165.15559 274.98471,164.72092 274.67303,164.0504C274.30096,163.24991 273.16168,163.34995 272.2897,163.34506C271.33633,163.33972 270.87357,162.58237 270.39236,162.51173C269.48972,162.37924 268.75165,163.31129 268.37302,164.0549C267.97125,164.84396 267.93628,165.77071 267.50436,166.56657C267.14084,167.23645 266.72794,168.04506 266.72568,168.94507C266.72327,169.90907 266.72568,170.78107 266.72568,171.64507C266.72568,172.54373 266.72568,173.4549 266.72568,174.20641C266.72568,175.17841 266.72568,176.0584 266.72568,176.95573C266.72568,177.90907 266.72559,178.7704 266.72568,179.69774C266.72577,180.56641 267.11124,181.09433 268.0097,181.34641C268.73624,181.55023 269.2937,182.25841 270.15768,182.25841L270.77386,181.69774L271.60419,181.34506" id="svg_20" stroke-width="3" stroke="#000" fill="none"/>
  <path t="59143,59234,59250,59267,59267,59284,59284,59301,59317,59317,59334,59334,59350,59350,59367,59367,59384,59401,59401,59418,59434,59434,59450,59484,59517,59534,59550,59567,59567,59600,59618,59634,59650,59667,59684,59718,59734,59734,59751,59767,59767,59784,59818,59851,59867,59884,59901,59934,59951,59984,59984,60067,60101,60118,60151,60167,60185,60201,60218,60251,60267,60285,60301,60318,60335,60351,60368,60385,60418,60485,60501,60552,60552,60585,60585,60602,60652,60785,60834,60852,60868,60885,60902,60918,60935,60952,60985,61002,61035,61052,61068,61135,61135,61168,61202,61202,61218,61235,61269,61285,61319,61352,61369,61385,61402,61418,61535,61686,61702,61752,61769,61802,61835,61869,61902,61936,61936,61952,61986,62002,62019,62019,62036,62053,62069,62086,62102,62102,62119,62119,62136,62152,62170,62186,62202,62202,62219,62253,62286,62286,62436,62470,62486,62553,62553,62570,62586,62603,62603,62619,62653,62670,62703,62720,62753,62770,62787,62803,62836,62853,62870,62886,62904,62936,62953,62986,63004,63020,63036,63054,63070,63070,63104,63120,63120,63137,63154,63170,63204,63220,63237,63254,63286,63304,63320,63320,63337,63354,63370,63386,63404,63437,63454,63487,63504,63537,63670,63687,63854,63904,63970,64021,64087,64138,64170,64221,64237,64254,64254,64270,64287,64304,64321,64338,64338,64354,64354,64371,64387,64404,64421,64437,64437,64454,64471,64488,64504,64522,64538,64554,64571,64571,64604,64638,64638,64654,64671,64671,64705,64722,64738,64754,64754,64771,64788,64805,64805,64822,64822,64838,64855,64871,64871,64888,64905,64922,64922,64938,64954,64971,64988,64988,64988,65005,65022,65022,65038,65054,65055,65071,65071,65088,65105,65105,65121,65138,65155,65155,65171,65188,65188,65205,65205,65221,65238,65255,65255,65271,65288,65305,65321,65322,65338,65355,65356,65356,65372,65388,65405,65405,65421,65455,65472,65505,65522,65522,65538,65538,65556,65572,65572,65589,65606,65622,65639,65656,65722,65722,65798" d="M316.72568,209.34506C317.60437,209.34523 318.22189,209.95836 319.04703,210.22374C319.87128,210.48885 320.8725,210.58913 321.4212,211.04958C322.1738,211.68115 322.93912,212.21786 323.61102,212.42906C324.5722,212.73117 325.29922,213.17915 325.84036,213.82907C326.37659,214.4731 326.90744,215.47597 327.42569,216.04057C328.09222,216.76669 328.45401,217.52872 328.89502,218.14507C329.42331,218.88339 330.38312,219.35017 330.77386,220.04507C331.2153,220.83015 331.72568,221.56641 331.72568,222.51173C331.72568,223.36591 331.72568,224.20641 331.72568,225.17841C331.72568,225.9834 332.50027,226.29115 332.72119,227.04958C332.97162,227.90935 332.72568,228.84506 332.72568,229.74507C332.72568,230.64056 332.72568,231.56657 332.72568,232.44524C332.72568,233.23041 332.72568,234.17039 332.72568,235.17841C332.72568,235.9344 332.72568,236.82423 332.72568,237.7704C332.72568,238.6304 332.72568,239.54507 332.72568,240.4449C332.72568,241.31973 332.72568,242.22374 332.72568,243.06107C332.72568,243.91307 332.45737,244.814 332.72568,245.7704C332.90884,246.42329 333.50577,246.95593 334.01102,247.62907C334.55212,248.34999 335.35049,248.588 335.73636,249.31973C336.12045,250.04813 337.10059,250.32181 337.72568,250.84506C338.32272,251.34485 338.81866,252.03358 339.57635,252.31973C340.53656,252.68236 340.75955,253.40746 341.15103,254.19574C341.55682,255.01283 341.74844,255.86493 341.30035,256.35574C340.76257,256.94479 340.27716,257.24542 339.43103,257.34506C338.48465,257.45651 337.95782,258.1969 337.08286,258.34058C336.16333,258.49158 336.15103,258.34506 337.08286,258.34506C338.02118,258.34506 338.83554,258.34506 339.74652,258.34506C340.70404,258.34506 341.55902,258.34506 342.33636,258.34506C343.2897,258.34506 343.93304,257.79398 344.72568,257.36591C345.47726,256.95999 346.27454,256.67758 346.66852,255.9924C347.15817,255.14081 346.72568,254.19574 346.72568,253.2879C346.72568,252.34506 346.72568,251.54507 346.72568,250.64507C346.72568,249.78107 346.72568,248.90907 346.72568,247.95573C346.72568,247.06107 346.72568,246.17841 346.72568,245.28374C346.72568,244.4944 346.72568,243.5144 346.72568,242.69774C346.72568,241.7704 347.37109,241.18854 347.72119,240.34956C348.06125,239.53467 348.58185,239.29385 348.72568,238.39774C348.86609,237.52293 348.72568,236.69774 348.72568,235.7704C348.72568,234.90224 348.72568,234.15973 348.72568,233.10674C348.72568,232.17841 348.72568,231.24507 348.72568,230.34506C348.72568,229.54507 348.72568,228.64507 348.72568,227.74507C348.72568,226.84506 348.74106,226.04045 348.72552,225.02373C348.71515,224.34483 348.44022,223.40097 348.07837,222.64957C347.65881,221.77834 347.72791,220.84506 347.72568,219.94507C347.72342,219.04506 347.39612,218.31017 347.0097,217.54507C346.60938,216.75246 346.72568,215.7704 346.72568,214.9024C346.72568,214.0504 346.15048,212.65773 346.81104,212.4304C347.56256,212.17178 347.95615,213.78325 348.30035,214.4944C348.73273,215.38774 348.82971,216.23515 349.58704,216.73441C350.19836,217.13742 351.35669,217.1976 352.07837,217.69774C352.80658,218.20239 353.27194,219.09209 354.11502,219.30907C354.98343,219.53256 356.02634,219.18224 356.67303,219.69774C357.27985,220.18144 358.07837,220.34506 358.89502,220.34506C359.72568,220.34506 360.66788,220.22176 361.30035,219.7704C362.07846,219.21513 362.55005,218.76555 363.0097,218.06107C363.52231,217.27542 364.14392,216.77426 364.70035,215.95573C365.16214,215.2764 365.46133,214.56528 365.80969,213.91307C366.30411,212.98744 366.93741,212.37332 367.30035,211.74507C367.78891,210.89941 368.47104,210.3989 368.72437,209.62907C368.99374,208.81046 369.80936,208.77864 370.4827,208.12373C371.08478,207.53813 370.61957,206.41512 370.78287,205.5834C370.96375,204.66226 371.49115,204.0284 371.66852,203.10223C371.84863,202.16179 371.87579,201.366 372.30035,200.73441C372.83484,199.93927 372.72568,198.9879 372.72568,198.04958C372.72568,197.12373 372.72568,196.26106 372.72568,195.36591C372.72568,194.4944 372.72568,193.58807 372.72568,192.7704C372.72568,191.84506 372.72568,190.91974 372.72568,190.06107C372.72568,189.12373 372.6362,188.25906 371.74652,188.34506C370.88028,188.42879 370.68188,189.34108 370.01587,189.70224C369.20572,190.14157 368.53256,190.72133 367.62585,191.22374C366.88159,191.63615 366.36938,192.11499 365.6257,192.56674C364.93579,192.98582 364.62952,193.90211 364.0257,194.63524C363.41904,195.3718 362.66513,195.84077 361.84702,196.22357C361.14276,196.55309 360.22766,196.23744 359.37836,196.40224C358.45261,196.58186 357.63184,197.28418 356.72568,197.34506C355.89423,197.40092 355.28427,198.03088 354.42569,198.2879C353.56168,198.54655 352.78094,198.59624 352.08286,198.9924C351.27673,199.44987 350.28287,199.3456 349.54034,199.34506C348.61102,199.34439 347.69601,199.02084 347.01102,198.62907C346.26288,198.2012 345.5224,197.80188 344.6257,197.46657C343.77505,197.14847 342.93127,197.25014 342.22568,196.84506C341.4274,196.3868 340.55902,196.17841 339.72568,195.84506C338.89236,195.51173 338.04266,195.25395 337.75104,194.4944C337.38257,193.53465 336.6008,193.15297 336.0257,192.64056C335.39688,192.08032 334.56021,191.62172 333.72568,191.17841C333.09177,190.84167 332.79028,189.78368 332.11502,189.31973C331.37387,188.81052 330.56314,188.33818 329.90036,187.94507C329.2139,187.5379 328.36221,186.9445 327.72568,186.34506C327.12619,185.78053 326.22107,185.48947 325.6257,184.90224C324.9884,184.27362 324.65228,183.34381 324.1257,182.75574C323.46237,182.01495 322.83646,181.35461 322.72702,180.54507C322.6062,179.65129 322.18393,178.86475 321.52704,178.14507C320.99353,177.56056 320.72354,176.68602 320.02036,176.04057C319.4729,175.53807 319.05328,174.802 318.67752,174.0549C318.24341,173.19173 317.72794,172.58342 317.72568,171.6924C317.72348,170.82907 317.72629,169.86591 317.72568,169.04507C317.72501,168.14507 317.42889,167.29207 317.07837,166.64507C316.64743,165.84958 316.72568,164.8024 316.72568,164.09441C316.72568,163.11307 316.72568,162.15941 316.72568,161.24507C316.72568,160.34506 316.72568,159.54507 316.72568,158.6304C316.72568,157.73441 316.72568,156.86591 316.72568,155.89841C316.72568,155.02373 316.72568,154.17039 316.72568,153.22906C316.72568,152.46107 316.87506,151.48154 316.55902,150.51173C316.33383,149.82071 315.75436,149.04643 315.72568,148.14507C315.69705,147.2457 315.44168,146.42906 314.78287,145.9924L314.72568,145.01173L314.72568,144.19574L314.66852,143.34506" id="svg_21" stroke-width="3" stroke="#000" fill="none"/>
  <path t="66567,66639,66656,66673,66690,66706,66722,66739,66756,66773,66789,66806,66823,66839,66856,66873,66889,66889,66906,66923,66923,66940,66956,66973,66989,67006,67023,67040,67056,67073,67073,67090,67106,67106,67123,67157,67157,67190,67206,67223,67257,67273,67290,67323,67357,67373,67407,67423,67423,67440,67457,67490,67524,67557,67607,67640,67657,67690,67707,67724,67757,67774,67824,67841,67857,67874,67908,67924,67941,67957,67974,67990,68008,68024,68024,68041,68074,68074,68091,68124,68141,68157,68208" d="M320.72568,212.34506C319.87503,212.34506 318.8746,211.99887 318.15103,212.38107C317.39981,212.77789 316.84836,213.4556 316.33636,214.19574C315.80789,214.95973 315.59668,215.74252 315.07837,216.39774C314.6199,216.97733 314.72568,217.94507 314.72568,218.84506C314.72568,219.74507 314.72568,220.64507 314.72568,221.54507C314.72568,222.44524 314.72568,223.23041 314.72568,224.17039C314.72568,225.17841 314.72089,225.95529 315.15103,226.74507C315.59903,227.56763 315.81155,228.42853 316.33636,228.95573C317.02188,229.64438 317.38025,230.5891 317.94702,231.22374C318.48352,231.82449 319.34024,232.10768 320.02036,232.39774C320.79416,232.72774 320.92218,233.87988 321.33636,234.48373C321.90958,235.31944 322.89236,235.51173 323.44168,236.06107C324.07837,236.69775 324.86829,237.272 325.37302,237.9924C325.86572,238.69563 326.45773,239.22093 326.72119,239.9924C327.02087,240.87 327.34344,241.51929 327.6897,242.31973C328.04895,243.15025 327.61749,244.07428 327.81104,244.8624C328.02863,245.74846 328.68295,246.54066 328.72568,247.4304C328.76831,248.31871 328.74323,249.22375 328.72568,250.06107C328.70767,250.9203 328.0097,251.34439 327.11502,251.34506C326.22568,251.34572 325.25034,251.1366 324.50436,251.56641C323.6991,252.03038 322.99033,252.72235 322.72702,253.5144C322.46497,254.30264 322.9118,255.02849 323.60437,255.56641C324.23917,256.05945 324.92569,256.34506 325.82553,256.34506C326.70035,256.34506 327.52704,256.34692 328.36169,256.34506C329.37387,256.3428 330.29517,256.36102 330.72302,255.62907C331.17688,254.85263 331.26108,253.79236 332.11502,253.41707C332.93683,253.05589 333.70035,252.91974 334.30035,252.35573L335.15103,252.34506" id="svg_22" stroke-width="3" stroke="#000" fill="none"/>
  <path t="69346,69458,69475,69475,69492,69508,69525,69542,69542,69559,69575,69592,69609,69625,69642,69692,69692,69708,69775,69858,69875,69892,69909,69925,69959,69975,70025,70042,70042,70075,70259,70259,70275,70292,70309,70342,70359,70376,70376,70393,70409,70409,70426,70442,70460,70460,70492,70509,70542,70560,70576,70593,70626" d="M246.72569,63.34507C247.33636,62.7344 248.00285,62.20449 248.44035,61.54507C249.00507,60.69393 249.90022,60.64361 250.55637,60.05973C251.23137,59.45908 251.37395,58.58325 252.12569,57.95573C252.78125,57.4085 253.55283,56.99313 254.07835,56.39774C254.64162,55.75959 255.4749,55.45607 255.94719,54.9024C256.47076,54.28863 257.01556,53.40236 257.89236,53.34507C258.7655,53.28802 259.78647,52.74181 260.55502,53.34774C261.12286,53.79543 260.72568,55.01173 260.72568,55.8659C260.72568,56.82423 260.87402,57.92031 260.15768,58.25974C259.37323,58.63143 258.48334,59.01348 259.05902,59.34507C259.76611,59.75236 260.89276,59.30971 261.37302,60.04957C261.83185,60.75646 261.80405,61.78502 261.72119,62.64957C261.63751,63.52285 261.42609,64.45627 260.80835,65.17574C260.29105,65.77822 259.4046,66.11002 258.48285,66.2879C257.54129,66.4696 256.69043,66.4679 256.08286,66.9924C255.32538,67.6463 254.72588,68.33465 253.84703,68.34507C253.02126,68.35486 252.08286,68.40224 251.64169,69.06107L250.78285,69.34507" id="svg_23" stroke-width="3" stroke="#000" fill="none"/>
  <path t="71178,71276,71326,71343,71360,71376,71393,71410,71426,71426,71426,71443,71460,71476,71493,71510,71526,71543,71560,71560,71577,71610,71626,71660,71693,71694,71710,71726,71743,71760,71810,71810,71827,71860,71877,71894,71927,71943,71943,71960,71977,72011,72027,72044,72094,72110,72127,72144,72193,72211,72227,72244,72261,72277,72311,72344,72360,72394,72411,72444,72477,72494,72527,72544,72561,72577,72611,72627,72644,72661,72694,72711,72744,72761,72794,72811,72844,72894,72928,72961,72994,73011,73028,73044,73077,73111,73111,73128,73161,73194,73278,73294" d="M255.72569,67.34507C255.72569,68.22357 255.71533,69.04963 255.72569,69.94507C255.73611,70.84525 256.01575,71.73804 256.82553,72.22373C257.55536,72.66146 257.88443,73.5149 258.15103,74.1704C258.43332,74.86452 258.73178,76.00769 259.43103,76.2924C260.34427,76.66425 260.95776,77.16286 261.82553,77.34524C262.61786,77.51176 263.1301,78.19234 263.92569,78.62907C264.57382,78.98484 265.44037,79.3444 266.33636,79.34507C267.20486,79.34572 268.15103,79.34507 269.05902,79.34507C269.74652,79.34507 270.84015,79.38935 271.70035,79.34507C272.53033,79.30235 273.26724,78.74673 273.9472,78.12373C274.50916,77.60886 275.11673,77.04301 275.89236,76.51173C276.59705,76.02905 277.36621,75.87159 278.07837,75.33607C278.71341,74.85854 278.81967,73.7916 279.57635,73.4064C280.42242,72.9757 280.84692,72.4045 281.30035,71.73441C281.83731,70.94092 281.72302,69.98685 282.22568,69.34507C282.70819,68.729 282.72568,67.8659 282.72568,66.90907C282.72568,66.04957 282.81079,65.17561 283.15103,64.4944C283.60388,63.58774 283.72568,62.7704 283.72568,61.84507C283.72568,60.90907 283.72568,60.04957 283.72568,59.12373C283.72568,58.26107 283.77155,57.36924 283.72568,56.4664C283.68295,55.62582 282.84326,55.33813 282.71503,54.4944C282.59021,53.67305 282.15179,53.09819 281.55902,52.51173C280.93735,51.89669 279.83401,51.99311 279.05902,51.51173C278.32813,51.05775 277.55914,50.90289 276.8472,50.3449C276.26074,49.88527 275.85757,49.28359 275.15103,48.7704C274.48184,48.28433 273.50436,48.34507 272.64035,48.34507C271.73636,48.34507 270.96402,48.34507 270.07751,48.34507C269.05902,48.34507 268.21719,48.22001 267.30035,48.34507C266.48157,48.45676 265.88382,48.95352 265.01102,49.34373C264.2543,49.68204 263.55902,50.34507 262.6897,50.38107L262.07837,50.9924" id="svg_24" stroke-width="3" stroke="#000" fill="none"/>
  <path t="74174,74262,74279,74312,74329,74345,74362,74395,74462,74529,74545,74562,74613,74629,74696,74746,74763,74812,74863,74879,74912,74963,75012,75063,75063,75096,75113,75163,75196,75213,75280,75313,75363,75396,75496,75513" d="M266.72568,53.34507C267.60419,53.3449 267.7771,52.48887 268.67752,52.34507C269.56509,52.20332 270.27646,52.48993 270.78287,52.9924C271.38803,53.59287 272.48297,52.96582 273.22568,53.38673C273.9198,53.78012 273.30508,55.13406 273.76169,55.91973C274.16434,56.61258 274.76611,56.8782 275.22568,57.3659C275.77347,57.94724 275.56342,58.9247 276.0097,59.62907C276.5101,60.41879 276.72568,61.1784 276.72568,61.9924C276.72568,62.91973 276.88748,63.80324 276.72568,64.63973C276.58105,65.38747 275.74377,65.76988 275.72568,66.69774C275.70874,67.56623 275.19302,68.06601 274.72568,68.62907C274.24704,69.20573 273.72568,69.4304 273.50436,70.22357L272.64035,70.4304L272.07837,70.9924" id="svg_25" stroke-width="3" stroke="#000" fill="none"/>
  <path t="77267,77448,77464,77464,77481,77498,77498,77498,77514,77514,77531,77531,77531,77548,77565,77565,77581,77581,77581,77598,77598,77598,77615,77615,77648,77648,77665,77665,77665,77665,77681,77681,77698,77698,77715,77715,77715,77715,77732,77732,77732,77732,77748,77748,77748,77765,77765,77765,77781,77781,77781,77798,77798,77798,77815,77815,77815,77832,77832,77848,77848,77865,77865,77865,77881,77882,77898,77898,77915,77915,77915,77915,77932,77932,77932,77932,77949,77949,77949,77965,77965,77965,77982,77982,77998,77998,77998,77998,78015,78015,78015,78015,78032,78032,78048,78048,78048,78048,78065,78065,78065,78082,78082,78082,78099,78099,78099,78099,78115,78115,78115,78115,78132,78132,78132,78132,78149,78149,78149,78149,78149,78165,78165,78165,78165,78165,78181,78182,78182,78198,78198,78199,78199,78215,78215,78215,78215,78232,78232,78232,78232,78249,78249,78249,78249,78265,78265,78265,78282,78282,78282,78298,78299,78299,78299,78299,78315,78315,78315,78332,78332,78332,78349,78349,78349,78365,78365,78365,78382,78382,78399,78399,78399,78415,78415,78432,78449,78449,78482,78499,78515,78549,78565,78582,78632,78649,78666,78666,78682,78682,78699,78732,78782,78816,78832,78866,78882,78882,78899,78966,78966,79066" d="M5.72569,159.34506C5.89236,160.17841 6.75902,160.18648 7.52569,160.4304C8.33541,160.68802 9.26572,161.25188 9.98703,161.30907C10.77568,161.3716 11.80419,161.34506 12.70486,161.34506C13.72569,161.34506 14.51503,161.34506 15.24036,161.34506C16.22569,161.34506 17.21488,161.31017 17.97236,161.38107C18.89755,161.46767 19.67574,161.70767 20.50036,161.91974C21.55583,162.19116 22.26737,162.3123 23.12119,162.34056C24.12249,162.3737 25.01147,162.36002 26.05903,162.34506C26.78842,162.33464 27.8953,162.1904 28.67836,161.9924C29.22788,161.85345 30.031,161.56065 31.26853,161.40224C31.91145,161.31993 32.92586,161.34506 33.74652,161.34506C34.89236,161.34506 35.6878,161.35216 36.26736,161.32423C37.21346,161.27866 38.24822,161.13106 38.97386,160.9924C39.70631,160.85245 40.75247,160.60512 41.68286,160.4664C42.46162,160.35028 43.415,160.29182 44.40969,160.06107C45.23196,159.87032 46.03269,159.57654 47.04303,159.4304C47.7422,159.32927 48.49503,159.34573 49.69369,159.34506C50.37636,159.34468 51.07503,159.34506 52.39236,159.34506C53.21136,159.34506 53.90436,159.34506 54.92553,159.34506C55.88969,159.34506 56.84303,159.34506 57.53553,159.34506C58.49503,159.34506 59.24652,159.34506 60.04303,159.34506C61.26852,159.34506 61.91503,159.34506 62.92586,159.34506C63.74652,159.34506 64.89246,159.354 65.68736,159.34056C66.2675,159.33075 67.21592,159.28453 68.24686,159.12373C68.97681,159.00989 69.70184,158.82982 70.75636,158.62907C71.68041,158.45317 72.70466,158.35663 73.40836,158.34641C74.40958,158.33186 75.22569,158.34506 76.04169,158.34506C77.04302,158.34506 77.98702,158.34506 79.05903,158.34506C79.69502,158.34506 80.38702,158.34506 81.47752,158.34506C82.55903,158.34506 83.23903,158.34506 84.18403,158.34506C85.03902,158.34506 86.04169,158.34506 86.72569,158.34506C87.89236,158.34506 88.68286,158.34506 89.53636,158.34506C90.12703,158.34506 91.32436,158.34506 92.20486,158.34506C93.04036,158.34506 94.04436,158.34506 94.76736,158.34506C95.58036,158.34506 96.58986,158.34506 97.38819,158.34506C98.24653,158.34506 99.12486,158.34616 100.39236,158.34506C101.15503,158.34439 101.85597,158.36885 102.8167,158.2879C103.72903,158.21103 104.63311,157.98546 105.26736,157.84506C106.29393,157.61781 107.46804,157.46031 107.89503,157.4304C108.78621,157.368 109.711,157.35175 110.64303,157.34641C111.55901,157.34116 112.43903,157.34506 113.27902,157.34506C114.07903,157.34506 114.83903,157.34506 116.24169,157.34506C116.90036,157.34506 117.87836,157.34506 118.89236,157.34506C119.6097,157.34506 120.35103,157.34506 121.10036,157.34506C122.55903,157.34506 123.24091,157.36238 124.20486,157.32423C124.82178,157.29982 126.0272,157.12976 126.6302,156.9924C127.56387,156.77971 128.20546,156.58839 129.24702,156.46657C130.34683,156.33792 131.10031,156.35153 131.84169,156.34641C132.90399,156.33905 133.87903,156.34506 134.47902,156.34506C135.55902,156.34506 136.5217,156.34506 137.29269,156.34506C138.22569,156.34506 138.97902,156.34506 139.81236,156.34506C140.6857,156.34506 141.55902,156.34506 142.78253,156.34506C143.50687,156.34506 144.46835,156.34506 145.55902,156.34506C146.27303,156.34506 147.17836,156.34506 148.14702,156.34506C148.95102,156.34506 149.77303,156.34506 150.8042,156.34506C151.48969,156.34506 152.32436,156.34506 153.33018,156.34506C154.18286,156.34506 155.14687,156.34506 155.94035,156.34506C156.71587,156.34506 157.91588,156.34114 158.60835,156.34506C159.55107,156.3504 160.56123,156.50784 161.27902,156.91974C162.01332,157.34109 162.92442,157.35513 163.80969,157.34506C164.72588,157.33464 165.27161,156.5968 166.11502,156.38107C167.05331,156.14107 167.94896,156.44145 168.89236,156.17841C169.57399,155.98836 170.54756,155.43874 171.31503,155.35573C172.19977,155.26004 173.07835,155.34506 174.00969,155.34506C174.89236,155.34506 175.89856,155.78407 176.67302,155.33607C177.37242,154.93149 177.52702,153.91307 178.28969,153.36641L179.16837,153.34506L180.02036,153.34506L181.00969,153.34506" id="svg_26" stroke-width="3" stroke="#000" fill="none"/>
  <path t="79850,79900,79917,79917,79917,79917,79933,79933,79950,79950,79950,79950,79966,79967,79967,79967,79984,79984,80000,80000,80017,80017,80033,80050,80066,80067,80067,80084,80084,80084,80100,80117,80117,80133,80150,80150,80167,80167,80167,80184,80184,80200,80217,80233,80250,80250,80267,80284,80317,80317,80367,80400,80434,80450,80450,80467,80484,80517" d="M226.72569,158.34506C227.6017,158.2879 228.48991,158.12402 229.41235,157.91974C230.08574,157.77061 230.754,157.59616 231.95636,157.42906C232.93698,157.29279 233.89417,157.18593 234.68736,156.9924C235.26874,156.85056 236.20749,156.59431 237.24669,156.46657C237.9668,156.37805 239.02832,156.35143 239.67102,156.34641C240.85866,156.33711 241.60703,156.34506 242.56169,156.34506C243.32703,156.34506 244.3212,156.34506 245.24036,156.34506C246.20486,156.34506 247.0347,156.34506 248.05902,156.34506C248.73552,156.34506 249.51103,156.34506 250.55902,156.34506C251.47902,156.34506 252.23903,156.34506 253.22569,156.34506C254.20969,156.34506 254.90036,156.34506 255.97302,156.34506C256.89236,156.34506 257.74652,156.34506 258.72568,156.34506C259.5257,156.34506 260.32568,156.34506 261.3212,156.34506C262.06851,156.34506 263.08969,156.34506 263.92569,156.34506C264.82568,156.34506 265.72568,156.34506 266.5257,156.34506C267.42569,156.34506 268.36853,156.34506 269.2937,156.34506C270.15768,156.34506 271.07837,156.34506 272.0097,156.34506C272.89236,156.34506 273.72568,156.51173 274.42569,156.9924L275.22568,157.32423L276.11502,157.34506L277.07837,157.34506" id="svg_27" stroke-width="3" stroke="#000" fill="none"/>
  <path t="81294,81368,81384,81418,81434,81435,81451,81451,81468,81468,81468,81468,81485,81485,81485,81501,81501,81501,81518,81518,81518,81518,81518,81534,81534,81534,81534,81534,81551,81551,81551,81551,81551,81551,81568,81568,81568,81568,81585,81585,81585,81585,81601,81601,81601,81601,81618,81618,81618,81618,81618,81634,81634,81634,81634,81634,81651,81651,81651,81651,81668,81668,81668,81684,81684,81684,81684,81701,81701,81701,81718,81718,81718,81718,81734,81734,81734,81734,81734,81751,81751,81751,81768,81768,81768,81768,81785,81785,81785,81785,81785,81801,81801,81801,81801,81818,81818,81818,81841,81841,81842,81842,81851,81851,81851,81851,81868,81868,81868,81868,81885,81885,81885,81885,81901,81901,81901,81919,81919,81919,81919,81935,81935,81935,81935,81935,81968,81968,81968,81968,81968,81968,81985,81985,81985,81985,81985,81985,82001,82002,82002,82002,82002,82018,82018,82018,82018,82035,82035,82035,82035,82051,82052,82052,82068,82068,82068,82068,82068,82085,82085,82085,82085,82102,82102,82102,82118,82118,82118,82118,82118,82135,82135,82135,82136,82152,82152,82152,82152,82168,82168,82168,82168,82185,82201,82218,82252,82268,82285" d="M322.72568,158.34506C323.60419,158.34489 323.68112,157.49016 324.37234,157.34506C325.19315,157.17276 326.13019,157.34506 327.12836,157.34506C327.76736,157.34506 329.05902,157.34506 329.6937,157.34506C330.37637,157.34506 331.42035,157.34506 332.39236,157.34506C333.21585,157.34506 334.17386,157.34506 335.14737,157.34506C335.97235,157.34506 336.57236,157.34506 337.89236,157.34506C338.61237,157.34506 339.37234,157.34506 340.17236,157.34506C341.01236,157.34506 342.3472,157.34354 342.81104,157.34641C343.76172,157.35226 344.73672,157.37361 345.23019,157.40224C346.72717,157.48909 347.22672,157.55769 348.22119,157.69774C349.20612,157.83644 349.68774,157.93353 350.64035,158.06107C352.00153,158.24332 352.86365,158.29749 353.68402,158.32423C354.46378,158.34967 355.55902,158.34506 356.2417,158.34506C357.22568,158.34506 357.87836,158.34506 358.89236,158.34506C359.98285,158.34506 360.74652,158.34506 361.53018,158.34506C362.72568,158.34506 363.52704,158.34506 364.33636,158.34506C365.16168,158.34506 366.01102,158.34506 366.89236,158.34506C367.80835,158.34506 368.74036,158.34506 369.66437,158.34506C370.11584,158.34506 371.39236,158.34506 372.15503,158.34506C373.18402,158.34506 373.81668,158.34506 375.0257,158.34506C375.92569,158.34506 376.5257,158.34506 377.72568,158.34506C378.6257,158.34506 379.22568,158.34506 380.1257,158.34506C381.32568,158.34506 381.92569,158.34506 382.82568,158.34506C384.02603,158.34506 384.6347,158.34506 385.59769,158.34506C386.29636,158.34506 387.46835,158.34506 388.33102,158.34506C389.22568,158.34506 389.67502,158.34506 390.55768,158.34506C391.78268,158.34506 392.8537,158.34506 393.50436,158.34506C394.72568,158.34506 395.32883,158.35931 396.26736,158.32423C396.94055,158.29907 398.06018,158.18637 398.89371,158.06107C399.77768,157.92818 400.67444,157.76672 401.12036,157.69774C402.39078,157.50122 403.50635,157.3914 404.16318,157.36591C405.03726,157.33197 406.04514,157.32755 406.76736,157.36591C407.58176,157.40916 408.59033,157.56364 409.38818,157.69774C410.24704,157.84209 411.12143,158.01746 412.39236,158.17841C413.15329,158.27477 413.85336,158.32243 414.81668,158.34056C415.72552,158.35767 416.63019,158.34506 417.24652,158.34506C418.21103,158.34506 419.24704,158.34506 419.97836,158.34506C421.10037,158.34506 421.84171,158.34167 422.90421,158.34523C423.56851,158.34744 424.52164,158.32988 425.72568,158.51173C426.33279,158.60342 427.26382,158.86223 427.94003,158.9924C429.05392,159.20683 429.89471,159.26579 430.78702,159.31973C431.24637,159.3475 432.18076,159.36363 433.55902,159.51173C434.44699,159.60716 434.8815,159.70084 435.76736,159.84506C436.69217,159.99564 437.17749,160.09256 438.78952,160.22357C439.37555,160.27119 440.59097,160.31152 441.20486,160.32423C441.81366,160.33684 442.98837,160.34363 444.05902,160.34506C444.98703,160.34631 445.80356,160.34323 446.55502,160.38107C447.29175,160.41817 448.46918,160.56024 449.32654,160.69774C450.2059,160.83876 451.06027,161.01178 452.22568,161.17841C452.8696,161.27046 453.68384,161.33351 454.40701,161.34373C455.4136,161.35797 456.28818,161.34506 456.94452,161.34506C458.05902,161.34506 458.89371,161.34506 459.77637,161.34506C460.67502,161.34506 461.55768,161.34506 462.78268,161.34506C463.51135,161.34506 464.18402,161.34506 465.12302,161.34506C466.32837,161.34506 466.94702,161.34506 467.94003,161.34506C469.05902,161.34506 469.89371,161.34506 470.33102,161.34506C471.22568,161.34506 472.12036,161.34506 473.39236,161.34506C474.15637,161.34506 474.86435,161.34506 475.87387,161.34506C476.89236,161.34506 477.60968,161.34506 478.35101,161.34506C479.47302,161.34506 480.55902,161.34506 481.2377,161.34506C482.16318,161.34506 482.9537,161.34506 484.05368,161.34506C484.92569,161.34506 485.82553,161.34506 486.72437,161.34506L485.92435,161.34506L485.01102,161.34506" id="svg_28" stroke-width="3" stroke="#000" fill="none"/>
  <path t="83759,83853,83886,83920,83936,83953,83986,84003,84020,84037,84053,84086,84086,84103,84120,84120,84137,84170,84186,84203,84220,84253,84269,84269,84287,84303,84320,84337,84353,84370,84387,84403,84420,84420,84437,84437,84453,84470,84487,84503,84520,84553,84570,84603,84620,84637,84670,84687,84703,84720,84753,84770,84787,84803,84820,84837,84853,84870,84904,84920,84937,84953,84970,84988,84988,85003,85003,85037,85053,85070,85088,85104,85104,85121,85154,85170,85170,85188,85188,85204,85221,85237,85254,85270,85287,85304,85304,85321,85321,85321,85337,85354,85354,85371,85404,85404,85437,85437,85470,85504" d="M362.72568,153.34506C362.72568,152.46657 363.28275,151.88145 363.72586,151.12373C364.13327,150.42706 364.59641,149.79379 365.0097,149.05974C365.45193,148.27428 365.72568,147.4664 365.72568,146.64056C365.72568,145.70224 365.63028,144.76276 365.78287,143.99324C365.96545,143.07243 366.64069,142.35767 366.72437,141.54507C366.81805,140.63521 366.72568,139.73441 366.72568,138.84506C366.72568,137.94507 366.72568,137.04958 366.72568,136.1234C366.72568,135.17841 367.02109,134.31514 366.72119,133.4549C366.45718,132.69756 365.75427,132.04643 365.72568,131.14507C365.69714,130.2457 365.72574,129.35974 365.72568,128.4944C365.72559,127.58774 365.40247,126.79053 365.15103,126.12373C364.78952,125.16504 364.73611,124.36606 364.72568,123.36674C364.71558,122.39779 364.92261,121.6105 364.6897,120.74507C364.43134,119.78512 363.72568,119.1784 363.72568,118.2924C363.72568,117.34507 363.31039,116.36304 363.78287,115.69774C364.30048,114.96886 364.24585,114.51142 364.72568,113.6784C365.05728,113.10272 366.41458,113.29404 366.66852,114.0504C366.97501,114.96336 366.62659,115.92915 367.07837,116.64057C367.58377,117.43642 367.84125,118.12785 368.30035,118.90907C368.75638,119.685 368.72568,120.54507 368.72568,121.44507C368.72568,122.34507 368.71475,123.27445 369.2937,123.9144C369.86194,124.5425 370.60022,125.29492 370.72302,126.0584C370.86554,126.94435 370.58359,127.85806 370.73636,128.74507C370.87985,129.57822 371.48431,130.373 371.77835,131.04507C372.13846,131.86819 372.72568,132.63173 372.72568,133.51173C372.72568,134.34506 372.72568,135.32356 372.72568,136.14374C372.72568,137.04507 372.72568,137.94507 372.72568,138.84506C372.72568,139.74507 372.81659,140.6498 372.72437,141.54507C372.64066,142.35767 372.05817,142.99002 371.84702,143.88774C371.62607,144.82709 371.76242,145.61967 371.37302,146.53073C371.00137,147.40024 371.07584,148.21474 370.72568,149.05974C370.41782,149.80269 369.43103,149.9924 368.55902,150.51173L368.0097,151.06107L367.72568,151.91974L367.72568,152.84506" id="svg_29" stroke-width="3" stroke="#000" fill="none"/>
  <path t="86094,86171,86222,86238,86254,86254,86271,86271,86271,86288,86288,86304,86304,86304,86322,86322,86338,86338,86355,86371,86371,86371,86388,86405,86422,86455,86471,86488,86488,86538,86588,86589,86605,86605,86622,86622,86622,86639,86639,86655,86655,86672,86672,86688,86705,86705,86721,86739,86739,86755,86772,86788,86805,86805,86821,86821,86839,86839,86839,86855,86855,86872,86888,86889,86905,86905,86922,86922,86922,86939,86939,86939,86955,86955,86955,86955,86972,86972,86989,86989,87005,87005,87021,87022,87039,87039,87039,87055,87055,87055,87072,87072,87072,87089,87089,87089,87105,87105,87105,87122,87122,87122,87139,87139,87139,87139,87155,87155,87155,87172,87172,87189,87189,87205,87205,87222,87222,87222,87239,87255,87272,87289,87289,87305,87305,87322,87322,87339,87355,87355,87355,87372,87372,87372,87372,87389,87389,87389,87389,87405,87405,87405,87422,87422,87422,87439,87440,87455,87455,87455,87472,87473,87473,87473,87489,87489,87505,87505,87522,87522,87540,87540,87556,87556,87573,87573,87589,87606,87623,87656,87673,87689,87706,87706,87723,87723,87723,87739,87739,87740,87757,87757,87757,87773,87773,87773,87789,87789,87789,87806,87806,87806,87823,87839,87839,87857,87873,87873,87889,87889,87906,87906,87923,87940,87940,87940,87956,87956,87956,87974,87974,87974,87989,87989,88006,88006,88023,88040,88057,88073,88089,88089,88106,88106,88123,88140,88157,88157,88173,88173,88189,88190,88190,88206,88206,88240,88257,88257,88273,88273,88290,88290,88306,88306,88323,88340,88357,88357,88373,88373,88390,88390,88390,88406,88407,88407,88423,88423,88423,88440,88457,88457,88474,88490,88507,88507,88523,88523,88540,88540,88557,88574,88590,88607,88607,88624,88640,88640,88657,88657,88674,88674,88690,88690,88707,88707,88723,88723,88723,88740,88757,88757,88774,88774,88790,88807,88824,88840,88857,88857,88874,88937" d="M432.72568,155.34506C432.72568,156.22357 432.00952,156.46036 431.08969,156.30907C430.21716,156.16554 429.46851,155.78596 428.74719,155.02357C428.30533,154.55656 427.92621,153.74414 427.42569,152.74507C427.12521,152.14531 426.6257,151.14507 426.32568,150.54507C425.92569,149.74509 425.44748,148.73753 425.1257,148.18106C424.56296,147.20789 423.98764,146.68492 423.32568,145.9344C422.68726,145.21056 422.27576,144.54515 422.01102,143.82907C421.66467,142.89223 421.72568,141.94507 421.72568,141.04958C421.72568,140.12357 421.52545,139.18358 421.89236,138.34506C422.21414,137.60974 422.90085,136.84857 422.50418,136.1234C422.15652,135.48778 421.45694,134.66789 421.08969,134.17039C420.46219,133.32037 419.69278,132.86273 419.12436,132.46107C418.3103,131.88583 417.50357,131.23724 417.05902,130.51173C416.60706,129.77412 416.40704,128.87485 416.07837,127.99773C415.74747,127.1147 415.72568,126.2449 415.72568,125.45973C415.72568,124.51974 415.71704,123.51169 415.72568,122.75574C415.73611,121.84489 416.19165,121.10899 416.60437,120.24507C417.01169,119.39241 417.33368,118.74242 418.03018,118.04057C418.48111,117.58617 419.22055,116.87 419.72568,116.32423C420.25327,115.75422 421.02704,114.78001 421.36401,114.00224C421.74173,113.13042 421.73889,112.24479 421.72568,111.45973C421.70969,110.50867 421.55548,109.67142 420.87103,108.9464C420.2536,108.29238 419.67609,107.9913 418.64719,107.36623C417.96606,106.95245 417.28516,106.58182 416.5257,105.8024C416.09888,105.36436 415.55273,104.57198 415.1257,104.11307C414.18655,103.10384 413.48767,102.86701 412.74753,102.2449C412.06485,101.67112 412.10989,100.67532 412.43469,99.94057C412.79306,99.12984 413.22568,98.34506 413.72568,97.34507C414.0257,96.74506 414.4176,95.94097 414.82587,95.14507C415.2384,94.34085 415.56516,93.70837 416.21237,92.9464C416.7323,92.3343 417.38522,91.78297 418.40836,91.22906C419.18594,90.80809 419.83624,90.73845 420.75504,89.8584C421.2616,89.37318 421.53262,88.66223 421.92703,87.65974C422.25452,86.82733 422.44336,86.22112 423.04703,85.04523C423.35834,84.43887 423.73105,83.86919 424.2417,83.0304C424.84811,82.03428 425.19861,81.34828 425.60968,80.7464C426.17368,79.92062 426.729,79.36912 427.55902,78.51173C428.08115,77.97241 428.51959,77.16878 428.74652,76.32423C429.01324,75.33162 429.78006,74.89663 429.90604,74.0594C430.0144,73.33933 428.61804,72.98808 428.72836,72.14507C428.84067,71.28674 429.77444,70.88786 430.55902,70.34507C431.23071,69.88037 431.9238,69.14317 432.42569,68.64507C433.1337,67.94239 433.89532,67.34979 434.57236,66.92374C435.19006,66.53502 436.14902,65.80451 436.68286,65.33974C437.24847,64.84731 437.79129,64.29517 438.72568,63.6784C439.59277,63.10606 440.22098,62.87423 440.82568,62.65407C442.01675,62.22042 442.91098,61.9418 443.48969,61.78107C444.55219,61.48597 445.48917,61.36429 446.32437,61.3464C447.32996,61.32486 447.9617,61.34507 449.14719,61.34507C449.9617,61.34507 450.53635,61.34507 451.72568,61.34507C452.62119,61.34507 453.20486,61.34354 454.04034,61.34507C455.26404,61.34732 456.08981,61.332 456.97754,61.69773C457.72116,62.0041 458.49619,62.24053 459.47504,62.3704C460.39511,62.49248 461.2562,62.83257 461.82553,63.6664C462.26395,64.30849 462.47903,65.20335 462.75104,65.9344C463.06293,66.77269 463.80969,67.42908 464.44168,68.06107C465.07837,68.69775 465.71716,69.34483 465.72568,70.10674C465.73572,71.00669 465.71936,71.81685 465.50403,72.76624C465.32159,73.57059 465.07581,74.41865 464.40421,75.20223C463.79514,75.91286 463.09891,76.19542 462.32568,76.8304C461.70416,77.34078 461.11908,77.93983 460.32703,78.74507C459.74158,79.34026 459.16571,79.91306 458.61102,80.7464C458.21277,81.34475 457.90561,82.02207 457.52704,83.02773C457.22955,83.81805 456.90778,84.55746 456.76169,85.68374C456.63519,86.6589 456.6236,87.34988 456.72702,88.45973C456.81058,89.35649 457.30923,89.97305 458.03018,90.64507C458.59079,91.16764 459.43829,91.55663 460.01587,92.04507C460.7511,92.66683 460.79456,93.6834 460.6937,94.59573C460.61053,95.34812 460.09296,96.24588 459.43903,96.68374C458.75616,97.14095 457.82565,97.63066 457.24652,98.3659C456.80908,98.92126 456.23428,99.73639 455.74652,100.32423C455.04636,101.16805 454.31647,102.04191 454.76169,102.90907C455.08826,103.54509 456.37848,103.0802 457.22568,103.38673C458.04974,103.68489 458.38019,104.54182 458.60419,105.5449C458.77545,106.31182 458.45065,107.36884 458.72568,108.1784C459.0242,109.05714 460.19946,109.51134 460.03986,110.32374C459.87979,111.1385 458.69681,111.63329 458.37234,112.18107C457.94131,112.90877 457.48029,113.97126 457.72702,114.7744C457.93961,115.46635 459.04718,115.34507 459.93637,115.34507C460.92554,115.34507 461.71011,115.2431 462.70419,115.3454C463.53745,115.43115 464.17258,116.18087 464.44037,116.8624C464.80725,117.79617 465.21133,118.58791 465.55902,119.51173C465.79633,120.14222 465.87286,121.1888 466.24652,121.8659C466.70227,122.69176 467.02744,123.35423 467.32568,124.1304C467.72803,125.1775 467.97842,125.91746 468.48285,126.74057C468.99615,127.57816 469.57492,128.10649 470.01587,128.6879C470.66949,129.54973 470.91656,130.47107 471.43021,131.04507C472.07816,131.76918 472.73413,132.4424 472.72437,133.19839C472.71262,134.10565 472.68054,135.07822 472.20486,135.80341C471.65378,136.64354 470.8559,137.11069 470.73019,138.04507C470.61011,138.93758 471.1434,139.76279 471.72568,140.34506C472.30795,140.92735 473.35052,141.1481 474.02118,141.71123C474.58539,142.18497 474.68744,143.34946 474.71503,144.09441C474.74899,145.01117 474.73444,145.97374 474.44168,146.8304C474.18896,147.56982 473.85284,148.54597 473.72568,149.34506C473.56635,150.34625 473.26782,151.12219 473.0097,151.85974C472.71307,152.7074 472.49744,153.66359 472.22568,154.34506C471.83704,155.31964 471.67224,156.04013 471.22568,156.84506C470.78207,157.64464 470.95535,158.57495 470.72537,159.4449C470.49646,160.31085 469.57635,160.37041 468.76736,160.84506L468.72119,160.9924" id="svg_30" stroke-width="3" stroke="#000" fill="none"/>
  <path t="91534,91576,91592,91592,91609,91609,91625,91626,91643,91643,91643,91659,91676,91676,91676,91692,91709,91709,91726,91726,91743,91743,91759,91759,91776,91776,91792,91792,91809,91826,91842,91859,91876,91876,91892,91892,91909,91909,91926,91926,91943,91943,91959,91959,91976,91993,91993,92009,92009,92026,92026,92026,92042,92043,92059,92059,92059,92076,92076,92093,92109,92109,92109,92126,92126,92126,92143,92143,92159,92176,92176,92193,92193,92210,92210,92226,92243,92276,92276,92293,92293,92310,92326,92326,92343,92343,92360,92360,92376,92377,92393,92393,92393,92409,92409,92426,92426,92426,92443,92443,92443,92443,92460,92460,92460,92460,92460,92476,92477,92477,92493,92493,92493,92493,92509,92509,92526,92526,92543,92543,92560,92576,92577,92593,92610,92610,92626,92626,92643,92677,92677,92693,92693,92710,92710,92726,92743,92743,92760,92760,92777,92777,92793,92793,92793,92810,92810,92826,92827,92843,92843,92860,92861,92877,92893,92910,92910,92927,92943,92960,92977,92993,93010,93010,93027,93027,93044,93044,93060,93060,93060,93077,93077,93077,93093,93093,93093,93110,93110,93110,93127,93127,93144,93160,93160,93177,93193,93210,93227,93227,93244,93244,93244,93260,93260,93260,93277,93277,93277,93293,93293,93310,93310,93310,93327,93327,93327,93327,93344,93360,93377,93394,93410,93427,93444,93444,93460,93494,93494,93494,93510,93511,93527,93544,93544,93560,93577,93577,93594,93594,93594,93610,93627,93627,93627,93644,93644,93661,93661,93677,93677,93694,93694,93694,93710,93711,93711,93727,93744,93761,93777,93794,93795,93811,93827,93861,93877,93877,93894,93895,93911,93911,93928,93928,93944,93961,93978,93994,94011,94011,94028,94061,94078,94111,94111,94128,94128,94128,94128,94144,94144,94145,94161,94161,94161,94177,94177,94194,94211,94228,94244,94278,94278,94295,94311,94328,94328,94344,94361,94361,94378,94378,94394,94394,94411,94411,94411,94428,94428,94444,94444,94461,94478,94478,94494,94511,94512,94528,94528,94561,94595,94611,94628,94645,94662,94678,94695" d="M73.72569,120.34507C72.70486,120.34507 71.74702,120.3477 70.84169,120.34507C70.06852,120.34282 69.10831,120.31544 68.32569,120.05974C67.50478,119.79151 66.52079,119.25482 65.93636,118.94507C65.20448,118.55717 64.34396,117.94173 63.55902,117.1784C63.06857,116.70144 62.56062,116.19321 61.61236,115.51307C60.89944,115.00172 60.89692,114.21404 60.28303,113.36657C59.84352,112.75983 58.851,112.27165 58.72836,111.45973C58.58637,110.51973 58.66065,109.74101 58.73469,108.74957C58.79089,107.99694 59.33872,107.28264 60.02036,106.64957C60.71399,106.00536 61.24634,105.35548 62.12569,105.34507C63.03013,105.33436 63.89236,105.34507 64.72569,105.34507C65.70436,105.34507 66.47836,105.34507 67.38286,105.34507C68.1302,105.34507 69.16761,105.53449 70.06853,105.23074C70.91753,104.94448 71.26657,104.12636 71.82569,103.36657C72.37982,102.61356 73.18514,102.12328 73.55903,101.1784C73.8061,100.55401 73.72577,99.51173 73.72569,98.68374C73.72561,97.80224 73.75085,96.81917 73.64036,96.02773C73.49975,95.02058 73.15308,94.38681 72.89236,93.34507C72.69511,92.55698 72.69698,91.72848 72.37302,90.74957C72.12064,89.98692 71.75429,89.09907 71.72569,88.1784C71.69852,87.30382 71.72569,86.6584 71.72569,85.66107C71.72569,84.84507 71.72569,84.02907 71.72569,82.80673C71.72569,82.00674 71.81199,81.077 71.55903,80.1784C71.36728,79.49724 71.05526,78.44183 70.66436,77.75574C70.18974,76.9227 69.32864,76.81106 68.48736,76.39774C67.70745,76.01457 67.81839,75.00272 67.68969,74.15974C67.54453,73.2089 66.87952,72.57817 66.73636,71.70907C66.59852,70.87229 66.65707,69.9455 67.08286,69.09773C67.43127,68.40402 67.96961,67.64893 68.48286,66.99773C69.1377,66.16688 69.95911,65.78419 70.55903,65.1784C71.15421,64.57739 71.49471,63.80741 72.13636,62.95974C72.59057,62.35969 73.20514,61.57037 73.57236,61.08374C74.17564,60.28426 74.87212,59.48891 75.41236,59.0304C76.23796,58.32972 76.8778,57.93339 77.89236,57.34507C78.60186,56.93365 79.34204,56.5481 79.70486,56.34507C80.76133,55.75386 81.6882,55.15232 82.21586,54.74957C82.9479,54.19081 83.87951,53.48656 84.40969,53.23174C85.20818,52.84794 86.0294,52.55536 87.04036,52.43174C87.90946,52.32546 88.96714,52.47987 89.50436,52.79174C90.49305,53.36569 90.32155,54.34272 90.94719,55.10223C91.50646,55.78118 92.40362,56.04901 93.24653,56.34507C94.03014,56.6203 94.88406,56.96695 95.70419,57.22374C96.51105,57.47637 97.35157,57.86218 98.00969,58.63174C98.49022,59.19363 98.70302,60.18058 98.72436,60.9464C98.75192,61.93574 98.84494,62.84963 99.57636,63.2944C100.34692,63.76297 100.52054,64.43263 100.94736,65.32357C101.33516,66.13307 102.20415,66.5578 102.93636,66.94507C103.71858,67.3588 104.50269,67.798 105.32569,68.05974C106.29993,68.36958 107.13855,68.24065 107.97302,68.70673C108.69347,69.10914 109.24513,69.79592 109.86436,70.51974C110.52362,71.29036 110.22978,72.21593 110.78286,72.9879C111.2278,73.60892 112.36584,72.96097 113.07303,72.69774C114.074,72.32516 114.94524,71.32892 115.64036,71.71574C116.36783,72.12055 116.18617,73.16828 116.82569,73.78773C117.44749,74.39002 117.9145,75.26029 118.69636,75.3424C119.72987,75.45094 120.54956,75.39591 121.55903,75.01173C122.30775,74.72679 122.85146,74.07906 123.72569,73.6784C124.48498,73.33042 125.36694,73.44427 126.12703,73.91573C126.78836,74.32593 127.40025,74.96127 128.1467,75.5449C128.91879,76.14859 129.76822,76.58465 130.36136,77.32357C130.87776,77.9669 131.22665,78.86491 131.8257,79.4449C132.40707,80.00779 133.44884,80.19125 134.11502,80.78107C134.80865,81.3952 134.4794,82.42929 134.11502,83.01707C133.58875,83.86601 133.36749,84.6225 132.96852,85.33974C132.46748,86.24048 131.6971,86.81329 131.12436,87.22774C130.31444,87.81381 129.74258,88.36538 129.12569,88.86107C128.34616,89.48743 127.49805,89.93163 126.72569,90.51173C126.10652,90.97678 125.49265,91.54527 124.89236,92.51173C124.42683,93.26122 124.28218,93.84041 123.92702,94.57574C123.38911,95.68946 122.91047,96.38453 122.64036,97.1464C122.32737,98.02921 121.86012,98.75494 121.72119,99.64507C121.59337,100.46402 121.03286,101.15311 120.73019,101.9879C120.41615,102.85407 120.02357,103.41289 119.54036,104.10507C118.90245,105.01887 118.18114,105.57314 117.84719,106.44507C117.52237,107.29316 117.69997,108.23163 118.26736,108.84507C118.9354,109.56733 119.71826,109.91518 120.72569,110.1784C121.49978,110.38065 122.24596,110.25753 123.24653,110.3659C124.28178,110.47803 124.9723,110.78448 125.72036,110.9924C126.75246,111.27927 127.53114,111.33067 128.4937,111.34641C129.22586,111.35838 130.48535,111.35649 131.0537,111.8024C131.92232,112.4839 132.05312,113.34458 132.28969,114.1304C132.60162,115.16652 132.68892,115.88232 132.72119,116.6834C132.76248,117.70835 132.81366,118.78697 133.60435,119.22357C134.28503,119.59943 135.37836,119.34507 136.07303,119.34507C137.08969,119.34507 138.28877,118.97118 138.72569,119.56657C139.24554,120.27496 138.72569,121.2304 138.72569,122.18107C138.72569,122.9464 138.72569,123.94507 138.72569,124.74507C138.72569,125.74374 138.7258,126.50907 138.72569,127.5879C138.7256,128.4449 138.28093,129.08412 137.77837,129.70224C137.20551,130.40683 136.86333,131.08919 136.24652,131.82423C135.6637,132.51878 135.81216,133.39072 136.72569,133.34506C137.43645,133.30954 138.49478,132.9127 139.0882,132.63074C139.75226,132.3152 140.45801,131.98647 141.68269,131.14523C142.22699,130.77136 142.87508,130.14342 143.72569,129.51173C144.30687,129.08014 145.10793,128.63678 145.92535,128.46657C146.84065,128.27597 147.8963,128.30743 148.37303,129.04958C148.83887,129.77477 148.50533,130.98544 149.16837,131.34523C149.79027,131.68271 150.55864,132.14789 151.26736,132.30341C152.21774,132.51195 152.88863,131.73615 153.84036,131.42906C154.71603,131.14651 155.32864,130.67274 156.20969,130.42906C157.05215,130.19606 157.95786,129.95444 158.69502,129.54373C159.47585,129.1087 160.24965,128.85323 161.04303,128.54507C162.04308,128.15666 162.64526,127.74746 163.70419,127.46657C164.5054,127.25404 165.37717,127.3569 166.20969,127.06107C167.0923,126.74743 167.97169,126.37366 168.89236,126.34507C169.7253,126.3192 170.68481,126.79847 171.43903,126.34507C172.06723,125.96742 172.66472,125.33744 172.72569,126.04957C172.80209,126.9418 172.76169,127.90907 173.33636,128.3344L174.3257,128.34506L175.18402,128.34506" id="svg_31" stroke-width="3" stroke="#000" fill="none"/>
  <path t="95313,95379,95395,95395,95412,95429,95445,95445,95445,95462,95462,95479,95479,95479,95495,95496,95512,95512,95529,95529,95529,95529,95546,95546,95546,95546,95562,95562,95562,95579,95579,95579,95579,95595,95596,95596,95596,95612,95612,95612,95629,95629,95629,95645,95645,95662,95662,95662,95679,95679,95695,95729,95729,95745,95762,95779,95795,95796,95812,95812,95812,95829,95829,95846,95846,95862,95862,95879,95879,95879,95895,95895,95895,95912,95912,95929,95929,95929,95946,95946,95962,95979,95996" d="M73.72569,122.34507C73.72569,123.10674 73.84423,124.01826 73.64036,124.86107C73.42555,125.74908 72.87116,126.56449 72.55903,127.51173C72.33323,128.19698 71.94477,128.95697 71.52436,129.74373C71.10955,130.52 70.43747,131.37393 69.88969,131.69839C69.16199,132.12943 68.12693,132.31242 67.32569,132.34056C66.32497,132.37572 65.48969,132.3477 64.55903,132.34506C63.76402,132.3428 62.87707,132.32996 62.23903,132.25974C60.83723,132.10547 60.10813,131.92068 59.38702,131.73441C58.69205,131.55487 57.4937,131.14507 56.72569,130.84506C55.9577,130.54507 55.08455,130.23936 54.41586,130.04507C53.7066,129.83899 52.60669,129.55093 51.54719,129.24524C50.88179,129.05325 49.94179,128.7571 49.32703,128.6304C48.13572,128.3849 47.53338,128.33397 46.68286,128.40674C45.63875,128.49606 44.74151,128.85509 44.12703,129.14641C43.1126,129.62735 42.49739,129.96347 41.55902,130.34506C40.78358,130.6604 39.9574,130.88234 39.05902,131.34506C38.23635,131.7688 37.35247,132.0881 36.55902,132.51173C35.92272,132.85147 35.12574,133.33972 34.22569,133.34506C33.32571,133.35039 32.39447,133.28113 31.75503,133.51573C30.91813,133.82278 30.21404,134.34914 29.49369,134.8624C28.68145,135.44113 28.00918,136.09041 27.24036,136.54373C26.54077,136.95622 25.52478,137.21788 24.72569,137.34506C23.7245,137.50441 22.92488,137.8015 22.26853,137.9924C21.31649,138.2693 20.50077,138.32295 19.67836,138.34056C18.64742,138.36264 17.73036,138.27934 16.72569,138.51173C15.90654,138.7012 15.34534,139.08128 14.32703,139.25974C13.39363,139.42331 12.48286,139.34506 11.52703,139.34373L10.81103,139.06107" id="svg_32" stroke-width="3" stroke="#000" fill="none"/>
  <path t="97285,97364,97380,97397,97413,97413,97413,97430,97430,97430,97447,97463,97480,97497,97497,97513,97530,97530,97547,97547,97563,97581,97581,97597,97614,97614,97630,97647,97647,97647,97664,97664,97664,97681,97697,97697,97714,97714,97730,97731,97748,97764,97780,97798,97798,97814,97830,97830,97847,97864,97881" d="M246.72569,126.34507C246.37303,126.40224 246.58473,127.21994 247.28819,127.82423C247.93167,128.377 248.98996,128.29428 249.77753,128.39774C250.80893,128.53322 251.45959,128.82745 252.23903,129.06107C253.29451,129.37741 254.07193,128.82329 254.8257,128.4664C255.67976,128.06203 256.36737,127.38547 257.22568,127.38673C258.08984,127.38801 258.5986,128.16635 259.55103,128.74507C260.23312,129.15953 260.87418,129.8076 261.72568,130.17841C262.47467,130.50458 263.49579,130.32455 264.37836,129.9924C265.08459,129.72661 265.98911,129.45667 266.89236,129.17841C267.58765,128.9642 268.40411,128.5825 269.40836,128.42906C270.2001,128.30809 270.95831,128.26743 272.05368,127.9304C272.82727,127.69239 273.59058,128.15056 274.38287,128.2879C275.31479,128.44945 276.3212,128.34506 277.06851,128.34506C278.07904,128.34506 278.92758,128.37326 279.72568,128.86591C280.42432,129.29716 280.73676,130.19534 281.24652,130.84506C281.84796,131.61165 282.5257,132.05974 283.42569,132.34056L284.32568,132.34506L285.22568,132.34506" id="svg_33" stroke-width="3" stroke="#000" fill="none"/>
  <path t="98461,98531,98548,98548,98564,98582,98582,98582,98598,98598,98598,98598,98614,98614,98614,98614,98631,98631,98631,98631,98648,98648,98664,98682,98682,98698,98698,98698,98715,98715,98715,98731,98748,98764,98781,98781,98798,98848,98865,98881,98898,98898,98915,98915,98931,98931,98931,98948,98948,98948,98965,98965,98965,98981,98981,98981,98998,98998,98998,99015,99015,99031,99032,99032,99048,99048,99048,99065,99065,99081,99081,99081,99098,99116,99132,99148,99148,99165,99165,99181,99182,99182,99198,99198,99198,99215,99215,99215,99215,99232,99232,99232,99232,99232,99232,99249,99249,99249,99249,99249,99249,99270,99270,99270,99270,99270,99281,99281,99281,99298,99298,99315,99315,99331,99331,99348,99348,99348,99348,99348,99365,99365,99365,99365,99381,99381,99398,99415,99415,99432,99432,99448,99448,99448,99465,99465,99465,99482,99482,99482,99500,99500,99500,99500,99516,99516,99516,99532,99532,99532,99549,99549,99549,99549,99565,99565,99582,99598,99599,99615,99615,99632,99632,99632,99648,99648,99665,99665,99682,99682,99682,99699,99716,99716,99732,99732,99748,99765,99782,99798,99815,99815,99832,99832,99832,99849,99849,99849,99865,99865,99882,99899,99899,99916,99916,99933,99933,99933,99949,99949,99965,99966,99982,100032,100049,100082,100132,100157,100157" d="M317.72568,130.34506C318.26736,130.84506 319.20679,131.29501 319.90036,131.3344C320.97131,131.3952 321.90097,131.19875 322.58304,130.89841C323.25357,130.60315 324.36743,130.02151 325.03552,129.6924C325.74536,129.34271 326.47018,128.98105 327.55902,128.51173C328.23596,128.21996 328.88687,127.97307 329.8212,127.64957C330.72302,127.33732 331.62265,127.04933 332.20486,126.84507C333.04251,126.55119 334.02838,126.12083 334.87903,125.78107C335.82932,125.4015 336.72568,125.34589 337.39771,125.34507C338.49503,125.34373 339.2655,125.39013 340.04303,125.1744C341.07681,124.88757 341.69812,124.33955 342.23901,123.82774C342.98401,123.12279 343.25772,122.14639 343.89236,121.51173C344.52701,120.8771 345.27448,120.63232 346.20486,120.3659C346.36346,120.32048 345.26599,120.52736 344.75104,119.90907C344.22275,119.27477 343.94507,118.47484 343.75104,117.49841C343.58594,116.66756 343.44141,115.65981 343.30035,115.10907C343.07794,114.24068 342.83105,113.04675 342.78287,112.44957C342.71289,111.58264 342.72568,110.51173 342.72568,109.5704C342.72568,108.8924 342.70932,107.92319 342.73636,107.10907C342.76523,106.23981 342.927,105.04041 343.08286,104.45407C343.30753,103.60886 343.69473,102.65852 344.22568,101.8659C344.69879,101.15963 345.15216,100.5105 345.5257,99.6584C345.95663,98.67539 346.09555,98.11806 346.42569,97.3549C346.88449,96.29428 347.38129,95.72336 347.82553,94.8024C348.15787,94.11346 348.45694,93.36967 348.64035,92.31573C348.8074,91.35575 348.70898,90.39613 349.44003,89.9879C350.11813,89.60924 350.92569,89.24507 351.72568,88.84507C352.72568,88.34506 353.30258,87.99062 354.1257,87.70223C355.10733,87.3583 355.78799,87.35667 356.5817,87.34641C357.58994,87.33336 358.3927,87.34507 359.26736,87.34507C360.18204,87.34507 361.55902,87.34406 362.0047,87.34524C362.88202,87.34757 363.76773,87.35737 364.69269,87.40224C365.1806,87.4259 366.78973,87.56433 367.37637,87.62907C367.97943,87.69562 369.20483,87.84534 369.81369,87.91974C370.41049,87.99267 372.05872,88.18179 372.5397,88.22373C373.39651,88.29845 374.48563,88.3469 375.12036,88.42907C376.33099,88.58579 377.20963,88.8519 377.76852,89.04957C378.81342,89.41912 379.83148,89.66161 380.39236,90.34507C380.91492,90.9818 380.75571,92.02071 380.65369,92.66373C380.46411,93.85869 380.1626,94.60062 379.86435,95.43173C379.70813,95.86708 379.36749,96.74183 378.89236,98.01173C378.60855,98.77032 378.34567,99.44345 378.08737,100.32173C377.78036,101.36553 377.62698,102.321 378.37234,102.90907C379.086,103.47213 379.93634,103.35243 380.92569,103.3449C381.72592,103.33881 382.71918,103.15611 383.53635,102.9304C384.40475,102.69054 385.43063,102.64715 386.20486,102.9284C386.73547,103.12115 387.65833,103.84538 388.04303,104.61707C388.44226,105.41792 388.60391,106.34096 388.66403,107.24507C388.72375,108.1432 388.6799,108.75251 388.44168,109.94507C388.32092,110.54955 388.02808,111.43646 387.8472,112.64507C387.75787,113.24187 387.73233,114.14503 387.72568,115.34507C387.72235,115.94373 387.75455,116.82957 387.64035,117.65974C387.50159,118.66847 387.03159,119.4642 386.81104,120.45973C386.61865,121.32812 386.82071,122.25081 387.60837,122.73441C388.15051,123.06727 389.14459,123.25081 389.95102,123.30907C390.77151,123.36835 391.82257,123.20232 392.68402,123.38673C393.75586,123.6162 394.29254,124.35107 394.55902,125.34507C394.76575,126.11623 394.66946,126.87235 394.30035,127.71973C393.88123,128.68195 393.73611,129.34489 393.72568,130.32373C393.71603,131.22902 393.29086,132.27904 393.72568,133.01173C394.08075,133.61005 395.26047,133.37346 396.04736,133.12373C396.78323,132.8902 397.88855,132.47946 398.67834,132.40224C399.49777,132.32211 400.55942,132.32542 401.26852,132.34956C402.12231,132.37862 403.13605,132.59828 403.8537,132.91974C404.69174,133.29512 405.26593,133.94553 405.91101,134.4944C406.67221,135.14207 407.38687,135.3344 408.49503,135.34506C409.24649,135.35229 410.04303,135.34506 411.04034,135.34506C411.91504,135.34506 412.92535,135.34506 413.68402,135.34506C414.68402,135.34506 414.32816,136.28207 414.72568,136.9924C415.05496,137.5808 416.20486,137.34506 415.72568,137.17841L415.08286,136.69774" id="svg_34" stroke-width="3" stroke="#000" fill="none"/>
  <path t="104989,105053,105069,105086,105136,105186,105203,105203,105220,105220,105236,105236,105253,105253,105253,105270,105270,105286,105303,105320,105336,105353,105386,105403,105420,105436,105436,105453,105453,105453,105470,105470,105470,105486,105486,105486,105503,105503,105503,105520,105520,105520,105520,105536,105536,105536,105553,105553,105570,105570,105570,105587,105603" d="M476.72568,133.34506C475.70486,133.34506 474.92435,133.34506 474.01102,133.34506C473.07837,133.34506 473.28802,133.39197 474.04703,133.12357C474.93124,132.8109 475.69562,132.23357 476.35101,131.74507C477.03824,131.23285 477.74576,130.84355 478.72568,130.34506C479.5144,129.94385 480.1142,129.70851 480.96854,129.04507C481.55902,128.58653 482.22568,127.84507 482.92435,127.1464C483.55902,126.51173 483.67142,125.56749 484.44168,125.34641C485.30164,125.09957 486.29526,125.23361 487.0257,125.70223C487.82559,126.21542 488.23285,126.90443 489.05902,127.34507C489.95444,127.82264 490.54825,127.91318 491.55902,128.51173C492.29901,128.94994 492.88828,129.55412 493.72568,130.17841C494.30807,130.61258 495.13083,131.03059 495.92587,131.4454C496.75198,131.87643 497.42725,132.29543 498.14703,132.88774C498.69104,133.3354 499.20956,133.86343 500.04169,134.57707C500.79007,135.2189 501.47897,135.69263 502.32437,136.1424C503.11612,136.56363 503.92676,136.94292 504.72568,137.34506C505.51608,137.74294 506.24036,138.14507 507.07904,138.73441L507.71503,139.37041" id="svg_35" stroke-width="3" stroke="#000" fill="none"/>
  <path t="108033,108189,108205,108222,108239,108256,108272,108288,108288,108305,108305,108322,108339,108355,108372,108388,108405" d="M182.72569,237.34506C182.33636,237.34506 183.22569,237.34506 184.12569,237.34506C185.0257,237.34506 185.92946,237.26294 186.8257,237.34523C187.73714,237.42891 188.3299,238.01279 189.20836,238.26106C189.99648,238.4838 190.77191,238.99557 191.43019,239.39774C192.20261,239.86963 192.67302,240.64056 193.15103,241.31973L193.71503,241.91974" id="svg_36" stroke-width="3" stroke="#000" fill="none"/>
  <path t="109225,109289,109306,109340,109357,109357,109373,109389,109389,109406,109423,109440,109457,109473,109573,109640" d="M205.72569,237.34506C206.52702,237.25974 207.20329,236.56548 208.01236,236.34506C208.86142,236.11374 209.77666,236.47861 210.62036,235.9924C211.38174,235.55363 212.18813,235.36519 212.61586,234.63974C213.12392,233.77806 213.67302,233.34506 214.43019,233.2879L215.20486,232.84506L216.00969,232.34506L216.89236,232.34506" id="svg_37" stroke-width="3" stroke="#000" fill="none"/>
 </g>
</svg>