<svg width="500.00000000000006" height="332.409972299169" xmlns="http://www.w3.org/2000/svg" xmlns:svg="http://www.w3.org/2000/svg" xmlns:xlink="http://www.w3.org/1999/xlink">
 <!-- Created with SVG-edit - http://svg-edit.googlecode.com/ -->
 <g display="inline" class="layer">
  <title>Layer 1</title>
  <path t="0,347,377,396,413,430,448,448,465,465,481,497,524,535,548,569,569,661,680,764,785,817,817,859,859,900,921,963,1067,1088,1162,1162,1181,1198,1224,1255,1255,1266,1280,1298,1317,1318,1360,1391,1414,1414,1432,1453,1474,1505,1557,1558,1620,1640,1661,1680,1680,1697,1714,1714,1731,1748,1763,1781,1797,1797,1814,1814,1830,1830,1871,1914,1914,1943,1984,1985,2036,2047,2090,2132,2205,2257,2320,2382,2382,2434,2434,2499,2550,2582,2601,2653,2654,2685,2705,2715,2736,2768,2769,2789,2831,2847,2864,2880,2904,2904,2924,3050,3090,3123,3165,3197,3213,3213,3246,3280,3281,3296,3347,3374,3397,3397,3426,3468,3489,3530,3551,3597,3598,3613,3666,3728,3780,3780,3886,3948,3948,3967,3996,4013,4013,4030,4030,4051,4052,4063,4063,4080,4096,4096,4129,4166,4187,4220,4220,4250,4271,4291,4314,4333,4333,4379,4397,4398,4427,4459,4480,4497,4513,4530,4584,4605,4606,4629,4667,4689,4714,4731,4751,4752,4764,4780,4796,4813,4814,4834,4835,4847,4867,4880,4897,4918,4918,4949,4981,4981,4996,5029,5047,5047,5062,5079,5096,5115,5180,5180,5199,5221,5222,5262,5293,5294,5324,5356,5380,5397,5398,5412,5431,5450,5463,5481,5497,5513,5514,5533,5534,5534,5555,5564,5579,5596,5596,5612,5613,5630,5659,5680,5696,5713,5741,5765,5765,5779,5779,5795,5812,5812,5831,5831,5846,5847,5864,5864,5864,5865,5879,5879,5895,5895,5896,5912,5912,5930,5930,5946,5946,5963,5963,5979,5997,6013,6034,6046,6066,6079,6079,6096,6096,6113,6163,6180,6196,6213,6213,6233,6233,6247,6247,6264,6279,6279,6297,6297,6313,6313,6330,6345,6362,6379,6379,6399,6400,6452,6453,6493,6515,6530,6546,6547,6562,6562,6563,6580,6595,6613,6629,6629,6681,6696,6724,6724,6746,6765,6780,6818,6841,6864,6865,6865,6881,6882,6931,6991,6991,6995,6995,6995,6995,7011,7012,7028,7046,7063,7088,7089,7113,7114,7130,7147,7147,7162,7179,7179,7196,7196,7213,7247,7262,7278,7278,7296,7296,7312,7329,7347,7347,7363,7380,7395,7412,7413,7433,7445,7462,7480,7496,7496,7513,7513,7529,7546,7547,7563,7578,7596,7612,7613,7613,7634,7635,7635,7652,7752,7762,7763,7778,7778,7808,7808,7840,7862,7879,7895,7914,7929,7946,7946,7962,7978,7978,7996,8012,8012,8049,8063,8063,8079,8095,8113,8129,8129,8130,8145,8146,8174,8174,8226,8226,8227,8227,8246,8246,8262,8263,8279,8280,8280,8299,8300,8300,8312,8331,8331,8345,8363,8363,8378,8378,8395,8396,8413,8429,8430,8446,8466,8467,8479,8480,8495,8512,8529,8545,8563,8591,8612,8633,8634,8653,8680,8695,8712,8737,8738,8762,8762,8763,8778,8779,8779,8796,8812,8812,8828,8846,8863,8863,8884,8895,8895,8925,8926,8945,8946,8963,8978,9012,9012,9040,9041,9062,9063,9063,9078,9123,9145,9146,9162,9180,9181,9197,9218,9261,9280,9301,9302,9303,9324,9324,9325,9326,9345,9346,9385,9428,9428,9446,9461,9462,9521,9627,9699,9699,9718,9748,9749,9762,9762,9763,9778,9812,9828,9845,9845,9846,9875,9907,9928,9945,9963,9990,10012,10032,10053,10054,10079,10105,10128,10148,10162,10162,10210,10210,10261,10324,10356,10356,10379,10396,10396,10411,10428,10444,10445,10462,10481,10523,10524,10564,10578,10606,10629,10630,10647,10648,10661,10662,10711,10711,10731,10779,10780,10795,10795,10836,10837,10838,10861,10862,10878,10895,10896,10913,10930,10946,10962,10978,10995,10996,11046,11066,11078,11098,11139,11140,11170,11171,11195,11211,11228,11274,11274,11294,11336,11420,11451,11478,11556,11765,11811,11879,11901,11932,11933,11945,12036,12062,12063,12089,12090,12121,12172,12194,12213,12246,12319,12344,12361,12362,12379,12380,12394,12464,12511,12528,12631,12644,12663,12683,12684,12685,12712,12712,12728,12744,12745,12761,12762,12777,12778,12795,12796,12811,12827,12828,12844,12845,12861,12877,12894,12910,12927,12928,12944,12945,12974,13006,13007,13028,13044,13060,13079,13095,13122,13144,13145,13163,13184,13185,13211,13262,13262,13277,13278,13295,13296,13297,13298,13298,13311,13312,13328,13329,13330,13330,13345,13346,13362,13363,13364,13379,13380,13381,13394,13414,13476,13477,13644,13685,13686,13711,13728,13745,13779,13800,13831,13844,13845,13845,13860,13884,13911,13912,14061,14078,14094,14261,14277,14294,14295,14312,14364,14365,14384,14385,14411,14412,14427,14428,14429,14446,14447,14531,14583,14584,14611,14612,14628,14629,14644,14824,14844,14844,14896,14897,14898,14899,15940,15941,16076,16095,16138,16138,16273,16273,16401,16428,16429,16445,16482,16482,16567,16568,16594,16660,16838,16861,16877,16878,16879,16894,16910,16912,16994,16995,17202,17245,17245,17316,17358,17389,17535,17536,17611,17612,17627,17677,17839,17912,18017,18043,18111,18112,18160,18176,18177,18205,18236,18260,18261,18276,18297,18318,18372,18393,18410,18412,18413,18427,18443,18444,18464,18477,18493,18510,18591,18592,18611,18612,18643,18661,18662,18685,18686,18686,18715,18757,18777,18778,18779,18793,18794,18809,18810,18826,18827,18844,18893,18909,18927,18928,18942,18959,18998,18999,19027,19344,19395,19416,19446,19467,19493,19509,19527,19528,19614,19642,19666,19667,19667,19692,19710,19749,19776,19777,19792,19793,19810,19811,19828,19844,19845,19864,19864,19905,19906,19927,19942,19969,19994,20010,20031,20031,20051,20083,20136,20161,20162,20177,20178,20480,20510,20525,20526,20543,20544,20545,20562,20668,20692,20709,20710,20727,20728,20743,20745,20759,20777,20804,20877,20894,20910,20911,20927,20959,20960,21054,21055,21076,21092,21152,21221,21222,21242,21260,21261,21293,21310,21545,21546,21565,21566,21567,21593,21618,21618,21721,21742,21743,21795,21795,21796,21847,21875,21899,21900,22047,22059,22077,22149,22150,22181,22213,22254,22328,22343,22344,22370,22371,22453,22477,22492,22493,22510,22525,22777,22791,22809,22870,22871,22912,22913,22985,23008,23009,23025,23026,23027,23028,23042,23043,23044,23045,23058,23059,23075,23076,23184,23185,23186,23236,23260,23292,23293,23309,23310,23325,23326,23342,23361,23375,23392,23408,23458,23632,23633,23658,23683,23684,23712,23758,23760,23779,23842,23883,23884,23909,23925,23943,23958,23975,23993,24008,24042,24060,24061,24076,24092,24108,24125,24143,24159,24227,24259,24292,24331,24373,24374,24393,24425,24441,24467,24493,24509,24528,24529,24558,24559,24592,24608,24626,24627,24641,24659,24661,24675,24677,24692,24693,24708,24725,24743,24759,24791,24810,24811,24832,24833,24859,24947,24975,24977,24992,25010,25061,25062,25094,25108,25125,25126,25144,25145,25198,25199,25226,25249,25251,25277,25291,25322,25324,25325,25341,25359,25360,25374,25376,25377,25391,25392,25407,25530,25558,25559,25575,25593,25594,25608,25635,25645,25687,25707,25708,25724,25742,25743,25762,25763,25810,25841,25858,25859,25877,25878,25896,25898,25899,25925,25941,26008,26025,26063,26091,26108,26283,26309,26377,26659,26674" d="M187.01137,157.38681C187.01137,155.6868 187.01137,154.7868 187.01137,153.88681C187.01137,152.9868 187.01137,152.08231 187.01137,151.06548C187.01137,150.38681 187.01137,149.40831 187.01137,148.58813C187.01137,147.6868 187.38596,146.69574 186.97537,145.8228C186.62656,145.08119 186.02937,144.52597 186.01137,143.55347C185.99509,142.67363 186.01137,141.77614 186.01137,140.88681C186.01137,139.9868 186.01137,139.08231 186.01137,138.22014C186.01137,137.38681 186.01137,136.40831 186.01137,135.58813C186.01137,134.6868 186.01633,133.78679 186.01137,132.90764C186.00603,131.96143 185.32628,131.45439 185.06853,130.67697C184.8138,129.90868 185.15688,128.89436 185.0007,127.98681C184.85733,127.15365 184.09639,126.39941 184.0127,125.58681C183.92049,124.69154 184.01137,123.7868 184.01137,122.86597C184.01137,122.06548 184.01137,121.21214 184.01137,120.27214C184.01137,119.2868 184.01137,118.3868 184.01137,117.58681C184.01137,116.68681 183.84047,115.94382 183.36403,115.27697C182.88995,114.61344 183.42824,113.35046 182.8407,112.67347C182.26555,112.01077 181.09715,112.11472 181.01137,111.2868C180.91861,110.39159 181.01137,109.58681 181.01137,108.62964C181.01137,107.73414 181.01137,106.8708 181.01137,105.90764C181.01137,105.08681 180.92926,104.18304 181.01154,103.2868C181.09521,102.37537 181.71367,101.79134 181.92603,100.90147C182.1402,100.00396 182.01137,98.98814 182.01137,98.22281C182.01137,97.27214 182.01137,96.3868 182.01137,95.58681C182.01137,94.62964 182.00717,93.73863 182.01137,92.95614C182.01671,91.96143 182.78615,91.4502 183.00687,90.6823C183.25424,89.82164 183.01137,88.8868 183.01137,87.98681C183.01137,87.08231 183.01137,86.22014 183.01137,85.3868C183.01137,84.4083 183.01137,83.58814 183.01137,82.67214C183.01137,81.77614 183.01137,80.8868 183.01137,79.97614C183.01137,79.06548 182.8811,78.20287 183.0127,77.27348C183.12434,76.48502 183.88266,76.0216 184.0127,75.18681C184.15529,74.27135 184.4382,73.40128 185.06403,72.74397C185.65601,72.12222 185.67078,71.5527 186.17802,70.72014C186.6116,70.00848 187.2171,69.41159 187.58603,68.7868C188.08733,67.93787 188.71544,67.4154 189.67802,67.3868C190.44702,67.36396 191.50726,67.2037 192.21004,67.67214C193.00534,68.20226 193.16479,69.00705 193.8127,69.55614C194.51003,70.1471 194.84319,70.93255 195.82603,71.32547C196.64499,71.65287 197.28481,72.15208 198.01137,72.55347C198.78404,72.98035 199.10648,73.98532 200.01137,74.36597C200.75026,74.6768 201.71136,74.3868 202.64737,74.3868C203.49536,74.3868 204.3587,74.3868 205.2542,74.3868C206.21136,74.3868 207.11136,74.3868 208.01137,74.3868C208.81137,74.3868 209.75888,74.47079 210.57936,74.10147C211.34433,73.75714 211.88397,72.95563 212.36403,72.37781C212.87178,71.76665 213.00911,70.97781 213.01137,69.98681C213.01318,69.18681 213.01137,68.18697 213.01137,67.40764C213.01137,66.55347 213.01137,65.69131 213.01137,64.75081C213.01137,63.90414 213.01137,63.09664 213.01137,62.02964C213.01137,61.18681 213.01137,60.2868 213.01137,59.38681C213.01137,58.58681 213.11098,57.69861 213.8127,57.30281C214.62912,56.8423 215.50926,56.52433 216.11136,55.94414C216.73471,55.34346 217.31021,54.4441 218.17802,54.38681C218.98875,54.33328 219.95003,54.38681 220.71587,54.38681C221.61136,54.38681 222.44942,54.5496 223.06403,55.03414C223.71349,55.54615 224.64882,55.33699 225.65953,55.3913C226.44507,55.43352 227.22534,55.9346 227.8447,56.55347C228.46324,57.17153 228.86752,57.78639 229.29536,58.58681C229.75284,59.44266 229.9987,60.08688 230.01137,60.9868C230.02403,61.88696 230.50073,62.6121 230.89003,63.48697C231.21997,64.22845 231.48276,65.19451 231.72737,65.90281C232.05331,66.84658 231.7715,67.82079 232.01587,68.6823C232.23637,69.45969 232.95627,69.95361 233.00687,70.73864C233.0713,71.7384 233.66324,72.06322 234.44336,72.4708C235.24733,72.89084 235.71765,73.61635 236.17802,74.3868C236.60796,75.1063 237.37152,75.51608 238.06403,76.03414C238.72624,76.52954 239.76566,76.32998 240.01404,76.9548C240.33919,77.77273 240.87259,78.31628 241.8447,78.3868C242.64961,78.44519 243.16566,79.30306 244.01137,79.3868C244.80748,79.46563 245.71136,79.3868 246.61136,79.3868C247.5322,79.3868 248.53323,79.18925 249.30153,79.44397C250.07895,79.70171 250.62198,80.38147 251.51137,80.3868C252.41135,80.3922 253.31137,80.3868 254.21269,80.3868C255.17802,80.3868 256.0322,80.3868 257.01135,80.3868C257.80069,80.3868 258.52603,80.3868 259.60071,80.3868C260.41138,80.3868 261.31586,80.3868 262.3327,80.3868C263.01135,80.3868 263.98987,80.3868 264.81003,80.3868C265.71136,80.3868 266.63483,80.20245 267.51135,80.40764C268.46698,80.63135 268.61951,81.69215 269.29669,82.3028C269.94278,82.88542 270.7251,83.12721 270.95871,84.03497C271.15668,84.80425 271.78604,85.43023 272.31137,86.09664C272.77963,86.69068 273.26846,87.68384 273.8967,88.18547C274.61975,88.76282 275.45963,89.15604 276.21136,89.92947C276.63763,90.36805 277.18887,91.15569 277.61136,91.6188C278.37259,92.45325 279.20477,92.97826 280.01135,93.3868C280.80508,93.78883 281.39169,94.11672 282.41138,94.30148C283.20197,94.44472 284.21136,94.3868 285.01135,94.3868C286.01135,94.3868 286.80069,94.3868 287.8447,94.3868C288.70688,94.3868 289.61136,94.3868 290.51135,94.3868C291.41138,94.3868 292.31137,94.3868 293.21136,94.3868C294.11136,94.3868 295.01135,94.3868 295.76852,94.3868C296.66403,94.3868 297.5274,94.38116 298.49054,94.3868C299.40076,94.39214 299.8396,95.01304 300.36853,95.6823C300.95419,96.42336 301.82568,96.38455 302.77936,96.3868C303.51135,96.38853 304.67804,96.3868 305.4697,96.3868C306.42203,96.3868 307.3327,96.3868 308.01135,96.3868C309.12735,96.3868 309.89536,96.3868 310.8367,96.3868C311.52737,96.3868 312.60071,96.3868 313.51135,96.3868C314.41138,96.3868 315.32037,96.3868 315.98203,96.3868C317.01669,96.3868 317.76071,96.3868 318.86819,96.3868C319.72336,96.3868 320.6221,96.37626 321.51135,96.3868C322.41156,96.39748 323.08911,96.84634 323.64737,97.57214C324.15802,98.23604 324.80457,98.81002 325.52737,99.10014C326.5647,99.51649 327.35764,99.90859 328.11136,100.26547C328.96542,100.66985 329.71509,100.92461 330.43671,101.39747C331.14771,101.86338 331.71976,102.35704 332.52869,102.38548C333.60004,102.42314 334.41138,102.3868 335.4007,102.3868C336.29669,102.3868 337.36182,102.14226 337.8447,102.8868C338.2796,103.55738 337.89185,104.4407 338.29669,105.41614C338.59695,106.13956 339.38989,106.80898 340.11188,107.48697C340.70236,108.04148 341.51111,108.55387 342.06204,108.87214C342.99014,109.40831 343.69296,109.68671 344.3447,110.3868C344.98779,111.07761 345.14313,112.15555 345.98602,112.3868C346.75296,112.59722 347.51065,112.93943 348.18604,113.57214C348.86035,114.20383 349.65002,114.77956 349.92603,115.58681C350.21854,116.44238 349.94461,117.27528 350.02203,118.21214C350.10605,119.22868 350.54834,119.85112 351.21002,120.58681C351.73923,121.17521 351.97821,122.04586 352.43671,122.82281C352.8978,123.60416 352.9231,124.50169 353.09671,125.27214C353.27533,126.06483 353.82913,126.87947 353.97537,127.75081C354.13046,128.67496 354.48184,129.44966 355.16071,129.9868C355.87186,130.54951 355.79633,131.58348 356.2327,132.26564C356.69934,132.99515 357.00601,133.5721 357.01135,134.50146C357.017,135.48679 356.72491,136.50117 357.17804,137.22014C357.62234,137.92514 358.00601,138.5721 358.01135,139.50281C358.01575,140.2708 358.01135,141.21214 358.01135,142.22014C358.01135,142.97614 358.01135,143.88681 358.01135,144.7868C358.01135,145.6958 358.01135,146.72014 358.01135,147.39664C358.01135,148.17213 358.01135,149.22014 358.01135,150.14014C358.01135,150.90015 358.01135,151.94014 358.01135,152.83347C358.01135,153.70831 358.01135,154.40764 358.01135,155.58664C358.01135,156.36597 358.01135,157.22014 358.01135,158.08231C358.01135,158.9868 358.01135,159.88681 358.01135,160.7868C358.01135,161.68231 358.01135,162.55614 358.01135,163.40764C358.01135,164.36531 358.01135,165.18547 358.01135,166.14397C358.01135,167.03947 358.01135,167.73415 358.01135,168.76147C358.01135,169.70815 358.01135,170.56148 358.01135,171.50146C358.01135,172.38681 358.01135,173.1868 358.01135,174.08681C358.01135,174.9868 358.02588,175.93579 357.8447,176.72014C357.62787,177.6588 357.31479,178.42879 357.13287,179.46513C357.01523,180.13528 357.01135,181.22014 357.01135,182.02513C357.01135,183.05347 357.01135,183.80197 357.01135,184.40764C357.01135,185.33614 357.01962,186.51985 357.01135,187.26814C357.00067,188.23366 356.88248,189.09032 356.5687,189.80814C356.20758,190.63425 355.65054,191.40611 355.3447,192.22014C355.0083,193.11542 355.01337,193.90015 355.01135,194.88681C355.00937,195.8708 355.12,196.61552 354.65869,197.62964C354.28732,198.44598 353.98279,199.15236 353.65869,200.04398C353.38425,200.79897 353.06372,201.78297 353.02203,202.55081C352.97049,203.50012 353.02856,204.38699 353.01135,205.1868C352.99335,206.02339 352.69696,206.86069 352.43671,207.59747C352.09204,208.57317 352.01669,209.55077 352.01135,210.50146C352.00638,211.3868 352.02957,212.22032 352.01135,213.09131C351.99335,213.95137 351.24844,214.44946 350.95871,215.14847C350.59872,216.01698 350.22528,216.70094 350.04736,217.75081C349.89163,218.66974 350.776,219.17477 350.9697,219.92847C351.21222,220.87209 350.37408,221.57964 350.17804,222.38681C349.98425,223.18475 350.01202,224.07214 350.01135,225.06947C350.0108,225.86597 349.75113,226.65399 350.03268,227.7148C350.25827,228.56479 351.09851,229.00098 351.53537,229.77614C351.8779,230.38393 352.80698,230.67877 352.9697,231.40764C353.20819,232.47597 353.01135,233.38681 353.01135,234.14397C353.01135,235.04398 352.98087,235.79181 353.0127,236.78413C353.04123,237.67377 353.46396,238.50897 354.09537,239.1028C354.7814,239.748 355.01068,240.27347 355.01135,241.23347C355.01193,242.07347 355.01135,243.06947 355.01135,243.86597C355.01135,244.61748 355.01135,245.7148 355.01135,246.6868C355.01135,247.58813 355.01135,248.27214 355.01135,249.21214C355.01135,250.22014 355.37653,251.17966 354.97537,251.95081C354.58032,252.71024 354.08536,253.19431 353.97537,254.05881C353.86298,254.94229 353.60193,255.68115 353.19254,256.49582C352.73056,257.41513 352.25317,257.99115 351.77136,258.56546C351.08578,259.38263 350.24438,260.19675 350.04337,260.96548C349.80954,261.85968 349.47104,262.63959 348.82602,262.95081C347.9317,263.38232 347.24799,263.86362 346.98602,264.53613C346.63519,265.43671 345.79257,265.88733 345.01135,266.22015C344.25983,266.54034 343.24796,266.47995 342.3587,266.37329C341.65137,266.28845 340.85281,265.55499 340.55304,264.86597C340.25113,264.17206 340.28467,263.03036 340.01004,262.10281C339.77478,261.30823 339.09439,260.72629 339.0322,259.86597C338.9808,259.15506 339.01205,258.05881 339.01135,257.08679C339.01068,256.18814 338.4425,255.71019 338.04736,254.95081C337.64819,254.1837 338.01135,253.1868 338.01135,252.2868C338.01135,251.38681 338.01135,250.58681 338.01135,249.6868C338.01135,248.7868 337.91342,247.88037 338.02203,246.97614C338.13348,246.0481 338.62289,245.42293 338.88986,244.40831C339.1008,243.60666 339.33719,243.0914 339.88986,242.38647C340.33398,241.81999 340.01135,240.86948 340.01135,239.88681C340.01135,238.9028 340.01135,238.21214 340.01135,237.14397C340.01135,236.2868 340.01135,235.38681 340.01135,234.58681C340.01135,233.6868 340.01135,232.74397 340.01135,231.81747C340.01135,231.03497 340.01135,230.02281 340.01135,229.1868C340.01135,228.2868 340.01135,227.38681 340.01135,226.62964C340.01135,225.72964 340.01135,224.78548 340.01135,223.79581C340.01135,223.10114 339.6521,222.55807 338.86203,222.3508C338.0061,222.12625 337.71356,220.96915 337.03937,220.67213C336.06512,220.24294 335.18759,220.44472 334.17804,220.05347C333.43475,219.76541 332.91928,219.14409 332.03302,218.62964C331.33783,218.22609 331.03949,217.59314 330.65421,216.73863C330.28436,215.91838 329.45609,215.68913 328.62204,215.37614C327.87408,215.09546 327.17175,214.75705 326.3447,214.22014C325.64572,213.76637 325.1185,213.48396 324.19669,213.37614C323.23764,213.26396 322.90768,212.49268 322.12469,212.30147C321.15726,212.06522 320.41635,211.57634 320.1257,210.73415C319.84171,209.91124 320.01135,208.90764 320.01135,207.9868C320.01135,207.09131 319.7648,206.28204 319.36404,205.68231C318.83398,204.8891 318.02386,204.70416 317.25421,204.16547C316.59497,203.70406 315.77921,203.63104 315.09537,203.1028C314.4679,202.61809 313.70148,202.22922 312.8447,202.38681C312.05612,202.53186 311.7045,203.43361 311.29538,204.1868C310.86215,204.98431 310.28192,205.60297 309.8447,206.38681C309.48111,207.03867 308.60757,207.62683 308.29669,208.27214C307.87787,209.14153 307.52008,209.91028 307.09671,210.67213C306.65106,211.47408 306.44025,211.95802 306.01135,212.60831C305.52768,213.34166 305.78284,214.35114 305.43671,215.02281C305.01819,215.83493 305.29974,216.77951 305.0007,217.74014C304.77866,218.45337 304.06497,218.93567 303.58603,219.7868C303.17709,220.51352 303.01135,221.38681 303.01135,222.30547C303.01135,223.24147 303.01135,223.92847 303.01135,224.70547C303.01135,225.70013 303.01135,226.54015 303.01135,227.62964C303.01135,228.48714 303.01135,229.35747 303.01135,230.1548C303.01135,231.13614 303.01135,232.05347 303.01135,232.86597C303.01135,233.8708 302.9201,234.56575 303.01587,235.63414C303.09921,236.56393 303.52951,237.17938 303.8447,238.22014C304.06842,238.95894 304.01135,239.88681 304.01135,240.7868C304.01135,241.6868 304.01135,242.58813 304.01135,243.55347C304.01135,244.21214 304.01135,245.22014 304.01135,246.08231C304.01135,246.90764 304.01135,247.8708 304.01135,248.73415C304.01135,249.62964 304.01135,250.58681 304.01135,251.48663C304.01135,252.36147 304.01135,253.18814 304.01135,254.02281C304.01135,255.03947 304.01135,255.73415 304.01135,256.76147C304.01135,257.70813 304.01135,258.56146 304.01135,259.50146C304.01135,260.38681 304.11215,261.15158 303.99338,262.05298C303.87863,262.92377 303.36371,263.73468 302.87537,264.35349C302.33072,265.04364 301.7002,265.68921 301.14737,266.33347C300.48138,267.10959 300.09262,267.93155 299.3447,268.55347C298.66037,269.1225 297.99902,269.38364 297.36487,269.67697C296.28925,270.1745 295.37402,270.38177 294.6897,270.82947C293.92776,271.32794 293.36215,271.93002 292.3287,272.21613C291.55106,272.4314 290.7807,272.38461 289.68335,272.38681C288.81137,272.38855 287.96277,272.69183 287.31137,273.03415C286.42923,273.49774 285.52737,273.38681 284.66403,273.38681C283.76852,273.38681 282.71347,273.22748 282.06403,273.73947C281.44943,274.224 280.60736,274.54584 279.7247,274.38412C278.80002,274.21469 278.39285,273.63867 277.66403,273.09213C276.80563,272.44843 275.91138,272.38681 275.01135,272.38681C274.21136,272.38681 273.21448,272.74997 272.44736,272.3508C271.68799,271.95566 271.07227,271.17157 271.01135,270.2868C270.94955,269.38895 271.06726,268.56818 271.5322,267.86597C272.07761,267.04221 272.55515,266.41141 272.8447,265.55347C273.12918,264.71057 273.48172,263.97086 273.89804,263.33081C274.53091,262.35785 274.83957,261.71741 275.15002,261.06281C275.70239,259.89804 275.9541,259.26334 276.01135,258.2868C276.06403,257.38837 276.01135,256.50146 276.01135,255.72964C276.01135,254.78548 275.80612,253.74649 276.06854,253.10114C276.41495,252.24922 277.01135,251.84514 277.01135,250.8988C277.01135,250.10414 277.01135,249.05347 277.01135,248.42014C277.01135,247.40764 276.96365,246.74826 277.01154,245.65147C277.05423,244.67336 277.94312,244.77974 278.72604,244.30147C279.52948,243.81065 279.92242,243.36201 280.8367,242.95081C281.54929,242.63031 282.55087,242.09357 282.88986,241.28664C283.19751,240.55432 283.01135,239.56148 283.01135,238.55347C283.01135,237.76147 283.01135,236.9028 283.01135,236.03947C283.01135,235.14397 283.01135,234.1868 283.01135,233.28714C283.01135,232.97014 283.01135,233.92947 283.01135,234.63747C283.01135,235.38147 283.01135,236.57697 283.01135,237.55347C283.01135,238.21214 283.38934,239.37804 282.89703,240.02513C282.40363,240.67369 281.17786,240.36917 280.29803,240.38681C279.40015,240.40482 278.70102,241.00493 277.81137,241.30147C276.95355,241.5874 276.12604,241.38681 275.18604,241.38681C274.49536,241.38681 273.42203,241.38681 272.51135,241.38681C271.61136,241.38681 270.69254,241.59309 269.79004,241.38664C268.99936,241.20576 268.4288,240.5321 267.65955,240.33414C266.75177,240.10051 266.29474,239.34039 265.92737,238.58681C265.52075,237.7527 264.41541,237.53543 264.09671,236.81747C263.77756,236.09846 264.11694,234.97539 263.72736,234.1868C263.29752,233.31676 263.08328,232.54735 262.97537,231.70413C262.86368,230.83151 262.56857,230.14113 262.36404,229.39214C262.04077,228.20837 262.01135,227.38681 262.01135,226.58681C262.01135,225.6868 262.01135,224.7868 262.01135,223.88681C262.01135,222.90764 262.01135,222.05347 262.01135,221.20148C262.01135,220.27081 262.01135,219.50281 262.01135,218.56148C262.01135,217.55347 262.01135,216.72548 262.01135,215.84413C262.01135,215.13614 261.81479,214.13327 262.01587,213.20564C262.19589,212.37515 262.92905,211.72609 262.99054,210.84514C263.04465,210.06979 263.01077,209.07347 263.01135,208.23347C263.01202,207.27081 263.07248,206.4937 263.43671,205.56148C263.70941,204.86353 263.85553,203.89301 264.02203,202.9868C264.1748,202.1553 264.92346,201.4005 265.00687,200.6868C265.11133,199.79288 264.9472,198.79294 265.57938,198.1868C266.21606,197.57634 267.89078,197.16634 267.54437,196.39131C267.26129,195.758 266.08716,196.96097 265.4007,197.41214C264.66122,197.89816 263.80673,198.26189 262.91138,198.38698C262.00488,198.51363 261.5802,199.07806 261.01135,199.86597C260.56296,200.48705 259.68738,200.82626 259.01135,201.38681C258.49332,201.81635 257.5329,202.36597 256.61136,202.38681C255.71159,202.40717 254.8087,202.38515 254.0407,202.38681C253.00603,202.38907 252.23772,202.3063 251.3447,202.55347C250.51683,202.78259 249.71272,203.35822 248.8087,203.38681C248.04108,203.4111 247.00603,203.38681 246.26202,203.38681C245.15436,203.38681 244.43269,203.38681 243.51137,203.38681C242.61136,203.38681 241.71136,203.38681 240.81137,203.38681C239.91136,203.38681 239.01137,203.38681 238.21136,203.38681C237.31137,203.38681 236.41136,203.38681 235.49052,203.38681C234.52603,203.38681 233.8007,203.38681 232.81154,203.38681C232.0322,203.38681 230.75354,202.91978 230.13286,203.60831C229.5388,204.26727 229.97958,205.20753 229.72737,206.1548C229.53101,206.89232 229.19547,207.60091 229.04736,208.7148C228.91974,209.67471 228.56099,210.22058 227.91119,210.82947C227.26407,211.43587 226.6796,212.11671 226.01137,212.38681C225.01566,212.78928 224.65349,213.5052 223.91153,214.14397C223.22443,214.73552 222.60982,215.27652 222.0367,215.81213C221.45651,216.35434 221.16309,217.11981 220.92737,217.90414C220.63124,218.88945 220.1454,219.59917 219.8407,220.27347C219.45647,221.12373 218.75606,221.84991 217.8967,222.21614C217.06725,222.56963 216.08034,222.3591 215.30153,222.74397C214.64714,223.06735 213.83623,223.79335 213.01137,224.22014C212.33871,224.56818 211.77925,225.20435 210.91153,225.38698C210.11897,225.55379 209.86917,226.373 209.44336,227.1548C209.0368,227.90125 208.52109,228.59294 208.1212,229.57248C207.79616,230.36868 207.36964,231.15756 206.70686,231.68231C205.91017,232.31308 205.08286,232.15581 204.17802,232.72014C203.54285,233.11629 203.34338,234.01582 202.61136,234.74014C201.91612,235.42805 200.87485,235.4113 200.36853,236.03413C199.8196,236.70938 199.63702,237.67239 199.17802,238.38681C198.65273,239.20442 197.9825,239.26149 197.03304,239.38698C196.11392,239.50845 195.70305,240.16754 194.81137,240.38947C193.97134,240.59854 193.69995,241.58598 192.91136,242.1438C192.30714,242.5712 191.29988,242.2722 190.37537,242.42281C189.50333,242.56485 188.87289,243.08643 187.8967,243.30147C186.93098,243.51419 186.21675,243.93198 185.57536,243.92548C184.68567,243.91646 183.94121,243.09738 183.5322,242.36597C183.09959,241.59238 183.01363,240.69131 183.01137,239.7868C183.00928,238.94414 183.01137,238.24547 183.01137,237.04814C183.01137,236.26414 183.01137,235.41614 183.01137,234.98314C183.01137,233.72014 183.01137,232.60564 183.01137,231.94931C183.01137,231.0748 183.01137,230.07214 183.01137,229.19748C183.01137,228.1868 183.01137,227.38681 183.01137,226.38681C183.01137,225.59747 183.01137,224.87213 183.01137,223.79747C183.01137,222.86597 183.01129,222.06531 183.01137,221.17613C183.01146,220.18697 182.87248,219.36179 183.2327,218.40831C183.48209,217.74818 184.08582,216.97655 184.58603,216.36147C185.09013,215.74161 185.00894,214.76694 185.43669,213.9868C185.88789,213.16389 186.12784,212.17102 186.71587,211.74397C187.43684,211.22037 188.49477,211.10445 189.15002,210.81213C190.09509,210.39052 191.01137,210.38681 191.81137,210.38681C192.71136,210.38681 193.55159,210.42874 194.49536,210.1028C195.20366,209.85818 196.25504,209.67523 196.92737,209.1028C197.53108,208.58879 198.37108,208.47157 198.98604,207.96147C199.5853,207.46439 199.9297,206.57153 200.55302,206.38681C201.45526,206.11945 202.47105,206.40533 202.90154,205.68147C203.41283,204.82172 203.75795,204.06917 204.29536,203.47081C204.86879,202.83235 205.53201,202.39723 206.41136,202.38681C207.31131,202.37614 208.21136,202.38681 209.11136,202.38681C210.01137,202.38681 210.81137,202.38681 211.71136,202.38681C212.61136,202.38681 213.51137,202.38681 214.41136,202.38681C215.31137,202.38681 216.21269,202.38681 217.17802,202.38681C218.01137,202.38681 218.84488,202.40446 219.7247,202.38681C220.62257,202.3688 221.42018,201.95998 222.11136,201.2868C222.6179,200.79344 223.45453,200.15842 223.8447,199.22014C224.10025,198.60558 224.49725,197.71727 225.16071,197.33614C225.90248,196.91 226.19429,196.03351 226.65869,195.33864C227.12048,194.64767 227.11964,193.71359 227.8127,193.30281C228.51627,192.88579 228.88904,191.89563 229.0367,191.21214C229.24257,190.25919 229.86642,189.61993 230.01003,188.67213C230.14964,187.75066 230.00679,186.90279 230.01137,186.03947C230.01671,185.03343 230.65338,184.51495 230.95419,183.67697C231.22766,182.91515 230.88943,181.89786 231.01587,181.08681C231.16115,180.15486 231.77779,179.69373 232.65953,179.08231C233.30505,178.63469 233.9146,177.91341 234.00237,177.03947C234.09186,176.14835 234.39745,175.24844 234.72737,174.58681C235.14792,173.74344 234.99091,172.83598 235.2327,171.84413C235.4072,171.1283 235.74495,170.41066 235.92603,169.35747C236.09114,168.39716 236.01137,167.6788 236.01137,166.6228C236.01137,166.02881 236.01137,165.06281 236.01137,163.88681C236.01137,163.0948 236.01137,162.1868 236.01137,161.2868C236.01137,160.38681 236.01137,159.58681 236.01137,158.75081C236.01137,157.73415 236.01382,157.03947 236.01137,156.02281C236.00911,155.09129 235.54395,154.45474 234.99052,153.86597C234.39334,153.23062 233.75591,152.97643 232.77303,152.43497C232.06625,152.04562 232.15405,151.13704 231.72603,150.27214C231.34599,149.50423 230.44875,148.93243 230.09537,148.1868C229.68834,147.32794 229.2841,146.7084 228.60069,145.96547C228.10919,145.43115 227.53506,144.61449 227.01137,143.90764C226.66902,143.44557 225.76808,142.58032 224.95869,142.38681C224.12698,142.18796 223.62628,141.47891 223.0367,140.96147C222.39894,140.40176 222.01707,139.56871 221.21004,139.38814C220.33305,139.19191 219.41136,139.38681 218.5322,139.40764L217.95869,140.03413" id="svg_1" stroke-width="3" stroke="#000" fill="none"/>
  <path t="28112,28361,28361,28374,28391,28391,28408,28454,28454,28454,28528,28549,28575,28641,28657,28673,28673,28690,28690,28709,28709,28723,28724,28740,28788,28788,28808,28823,28823,28840,28913,28925,28958,29028,29029,29048,29049,29074,29074,29090,29090,29153,29153,29173,29191,29191,29208,29208,29208,29208,29225,29225,29320,29320,29340,29425,29425,29440,29458,29474,29474,29490,29507,29527,29560,29560,29580,29591,29610,29624,29687,29687,29709,29725,29742,29759,29774,29791,29811,29834,29859,29886,29886,29911,29911,29946,30021,30062,30083" d="M183.01137,151.38681C182.01137,150.55347 181.4173,150.97427 180.51137,151.38681C179.71194,151.75084 179.11852,152.0778 178.18604,152.37213C177.1691,152.69312 176.57961,153.21085 176.29803,153.90414C175.92255,154.82869 176.25424,155.82164 176.00687,156.68231C175.78615,157.4502 174.99747,158.0032 174.58603,158.80814C174.30316,159.36153 174.04887,160.39117 174.02203,161.13614C173.98213,162.2433 174.01137,163.00146 174.01137,164.03947C174.01137,164.73415 174.13335,165.9295 173.44336,166.30281C172.66922,166.72165 172.01587,167.14844 172.01137,168.03947C172.007,168.90279 172.01137,169.75081 172.01137,170.6868C172.01137,171.58548 172.01137,172.55347 172.01137,173.38681C172.01137,174.20114 172.01137,175.1548 172.01137,175.88681C172.01137,177.05347 172.01137,177.72548 172.01137,178.70815C172.01137,179.56148 172.01137,180.50281 172.01137,181.27081C172.01137,182.21214 172.01137,183.22014 172.01137,183.92847C172.01137,184.88681 172.0031,185.74974 172.0322,186.40764C172.07703,187.4212 172.19402,188.35547 172.51137,189.32431C172.8089,190.23265 173.00603,190.97609 173.01137,191.86597C173.01714,192.82962 173.01126,193.57214 173.01137,194.62964C173.01146,195.4868 173.23195,196.35349 173.58603,196.9868C174.06755,197.84807 173.92967,198.79091 174.01587,199.6913C174.09947,200.56459 174.39893,201.48148 175.01137,202.05347C175.7216,202.7168 176.34439,203.12779 176.9632,203.74397C177.59407,204.37216 178.01874,204.8999 178.9897,205.26547C179.83403,205.58337 180.31189,206.20854 181.11119,206.38698C181.95456,206.57526 182.44679,207.3688 183.31137,207.38681C184.21117,207.40555 185.11136,207.38681 186.01137,207.38681C186.76852,207.38681 187.66403,207.38681 188.52736,207.38681C189.4697,207.38681 190.44736,207.38681 191.31137,207.38681L192.21004,207.38414" id="svg_2" stroke-width="3" stroke="#000" fill="none"/>
  <polyline timestamps="31787,32042" startTime="1502504647914" id="svg_3" points="188.01136471971498,157.3868055086244 188.01136471971498,158.3868055086244 " stroke-linecap="round" stroke-width="3" stroke="#000" fill="none"/>
  <path t="34594,34842,34856,34874,34874,34874,34891,34891,35198,35239,35312,35386,35427,35656,35675,35719,35750,35751,35781,35823,35854,35875,35890,35907,35926,35939,35940,35960,36022,36022,36040,36075,36090,36107,36140,36241,36262,36291,36314,36378,36390,36406,36424,36441,36441,36457,36457,36457,36490,36490,36506,36506,36523,36523,36555,36555,36805,36930,36983,36983,37006,37006" d="M188.01137,152.38681C188.01137,153.18814 188.01137,154.05881 188.01137,154.92964C188.01137,155.90764 188.01137,156.70413 188.01137,157.70013C188.01137,158.54015 187.62889,159.77533 188.29669,160.30147C188.93999,160.80829 190.0367,160.38681 190.8127,160.38681C191.71136,160.38681 192.61136,160.38681 193.5322,160.38681C194.49536,160.38681 195.21413,160.62517 196.24969,160.38231C197.01871,160.20197 197.58609,159.67896 198.4007,159.37614C199.1342,159.10349 199.75958,158.38861 199.97537,157.52547C200.21127,156.58185 200.02951,155.67352 200.77303,155.33414C201.6283,154.94374 202.40674,154.85576 203.24969,154.43947C204.03412,154.05208 203.76506,152.80252 204.51137,152.40764C205.26537,152.00868 206.11075,151.97311 206.58603,151.32547C207.10957,150.61205 207.33148,149.74475 207.89003,149.16547C208.49185,148.54132 208.84068,147.93474 209.02203,146.9868C209.18144,146.15356 209.76584,145.59679 210.21004,144.62013C210.52704,143.92313 210.84937,143.26317 211.01137,142.05347C211.10266,141.37173 211.17242,140.36365 211.71587,139.6913C212.25136,139.02879 212.78462,138.42764 212.95869,137.38597C213.07684,136.67902 213.26729,135.51631 214.11136,135.38681C215.00096,135.25034 215.76852,135.38681 216.66403,135.38681L217.52736,135.38681" id="svg_4" stroke-width="3" stroke="#000" fill="none"/>
  <path t="38069,38412,38432,38473,38473,38490,38490,38506,38526,38632,38658,38658,38757,38849,38876,38876,38892,38913,38944,38944,38956,39017,39042,39059,39091" d="M198.01137,120.3868C199.2327,119.50831 200.09537,119.3868 201.01137,119.3868C201.76852,119.3868 202.66403,119.3868 203.52736,119.3868C204.49052,119.3868 205.4559,119.48226 206.21136,119.10281C207.07857,118.66722 208.00786,118.87373 208.65421,118.32964C209.26561,117.81496 208.01097,117.36143 207.21136,117.3868C206.31001,117.4154 205.53346,117.99561 204.6902,118.26547C203.89917,118.51862 203.0322,118.8868 202.4007,119.37614L201.5322,119.40764L200.98604,119.96147L200.29536,120.38548" id="svg_5" stroke-width="3" stroke="#000" fill="none"/>
  <path t="39842,40273,40290,40343,40448,40553,40553,40656,40656,40687,40705,40723,40739,40755,40771,40790" d="M197.01137,120.3868C198.72603,120.55747 198.63084,121.64442 199.29536,122.21614C200.01772,122.83762 201.11153,122.3868 201.8967,122.3868C202.8367,122.3868 203.63994,122.82219 204.5647,122.35081C205.33318,121.95908 205.8127,121.3028 206.61136,120.81214L207.4007,120.41214L208.01137,119.8868L208.62202,119.39747" id="svg_6" stroke-width="3" stroke="#000" fill="none"/>
  <path t="42306,42587,42618,42637,42654,42689,42689,42689,42730,42731,42868,42904,42930,42930,43045,43045,43075,43075,43107,43139" d="M191.01137,157.38681C191.01137,155.6868 191.008,154.76642 191.43669,153.9868C191.88957,153.16321 192.49355,152.35005 193.07387,152.09131C193.98627,151.68451 194.86095,151.42671 195.70236,151.39131C196.65482,151.35124 196.80934,152.14264 196.01137,152.55347C195.33955,152.89934 193.83217,152.53345 193.66603,153.38547C193.54823,153.98956 194.81137,154.1028 195.71136,154.43947L196.49052,154.90764" id="svg_7" stroke-width="3" stroke="#000" fill="none"/>
  <path t="46866,47137,47137,47156,47187,47205,47220,47252,47252,47406,47420,47421,47447,47480,47553,47606,47606,47621,47637,47668,47668,47699,47740,47754,47814,47814,47841,47856,47876,47891,47908,48034,48034,48095,48116,48116" d="M280.01135,235.38681C280.01135,234.38681 280.01135,233.58681 280.01135,232.67213C280.01135,231.77614 280.01135,230.88681 280.01135,229.97614C280.01135,229.06548 280.01135,228.21214 280.01135,227.27214C280.01135,226.38681 280.01135,225.58681 280.01135,224.6868C280.01135,223.7868 280.01135,222.8228 280.01135,221.94397C280.01135,221.20148 280.01135,220.14397 280.01135,219.2868C280.01135,218.38681 280.01135,217.58681 280.01135,216.6868C280.01135,215.7868 279.95389,214.71353 280.72119,214.44397C281.48486,214.17569 282.50711,214.55043 283.41138,214.37614C284.35422,214.19443 284.5434,213.18813 285.17804,212.55347C285.81268,211.91884 286.71136,211.73947 287.5322,211.40764L288.49402,211.38681L289.30154,211.38681" id="svg_8" stroke-width="3" stroke="#000" fill="none"/>
  <path t="50559,50819,50837,50854,50871,50871,50955,50975,50986,51039,51121,51121,51136,51205,51247,51289,51384,51403,51456" d="M286.01135,234.38681C286.01135,232.58681 285.93399,231.71924 286.44736,230.9868C287.00113,230.19672 287.75861,229.73024 288.30685,229.08681C288.94888,228.33334 288.72491,227.27245 289.17804,226.55347C289.62234,225.84846 290.00601,225.20152 290.01135,224.27214C290.01642,223.38683 290.01135,222.5083 290.01135,221.68231L290.01135,220.7868L290.01135,219.88681L290.02203,218.99747" id="svg_9" stroke-width="3" stroke="#000" fill="none"/>
 </g>
</svg>