<svg width="500" height="333.3333333333333" xmlns="http://www.w3.org/2000/svg" xmlns:svg="http://www.w3.org/2000/svg" xmlns:xlink="http://www.w3.org/1999/xlink">
 <!-- Created with SVG-edit - http://svg-edit.googlecode.com/ -->
 <g display="inline" class="layer">
  <title>Layer 1</title>
  <path t="0,211,226,274,306,306,330,330,370,402,402,418,418,442,474,474,514,514,594,594,634,666,666,690,722,722,738,738,778,779,794,810,810,826,826,834,874,890,922,963,963,986,986,1010,1042,1042,1075,1090,1098,1117,1130,1146,1155,1155,1170,1194,1202,1210,1234,1234,1258,1274,1274,1298,1314,1338,1354,1354,1378,1434,1450,1515,1549,1555,1555,1586,1602,1674,1722,1740,1762,1802,1818,1818,1850,1890,1906,1922,1962,1986,2003,2026,2026,2050,2066,2090,2106,2138,2138,2170,2194,2194,2234,2242,2258,2282,2298,2314,2346,2346,2365,2386,2386,2403,2419,2450,2466,2482,2490,2562,2586,2602,2634,2643,2644,2666,2698,2714,2730,2730,2770,2794,2826,2826,2858,2874,2874,2890,2914,2946,2962,2986,3050,3051,3146,3146,3162,3162,3194,3194,3234,3242,3258,3266,3266,3282,3338,3386,3410,3450,3466,3498,3522,3531,3594,3618,3642,3642,3674,3706,3706,3794,3954,3954,3955,3986,4026,4026,4042,4066,4066,4090,4122,4162,4162,4202,4234,4234,4282,4282,4298,4298,4330,4370,4370,4386,4402,4434,4434,4442,4554,4626,4650,4690,4762,4762,4786,4786,4802,4802,4826,4842,4858,4898,4970,4970,5010,5034,5042,5066,5066,5090,5130,5138,5138,5170,5178,5202,5266,5290,5298,5338,5386,5482,5482,5562,5650,5754,5754,5785,5906,6026,6042,6154,6154,6242,6274,6403,6459,6499,6499,6531,6531,6539,6539,6563,6571,6571,6595,6603,6643,6715,6715,6787,6796,6867,6867,6899,6971,6971,7019,7075,7075,7147,7147,7171,7179,7195,7243,7259,7267,7339,7379,7379,7395,7467,7547,7547,7643,7643,7683,7683,7723,7723,7747,7755,7755,7771,7787,7843,7906,7914,7915,7962,8067,8147,8147,8187,8187,8211,8275,8291,8291,8307,8321,8323,8467,8482,8483,8499,8571,8571,8579,8579,8595,8611,8779,8843,8843,8867,8883,8883,8899,8899,9058,9155,9155,9171,9194,9259,9275,9291,9347,9355,9371,9372,9435,9459,9475,9555,9707,9755,9755,9779,9843,9851,9851,9875,9939,9971,10027,10027,10060,10106,10163,10283,10283,10347,10347,10364,10468,10468,10539,10595,10643,10643,10651,10691,10755,10771,10771,10794,10875,10875,10899,10931,11019,11099,11123,11194,11242,11242,11283,11370,11403,11443,11546,11586,11610,11682,11683,11723,11763,11763,11802,11827,11827,11906,11907,11938,11970,11971,12010,12011,12051,12083,12083,12130,12131,12162,12163,12187,12210,12211,12242,12243,12250,12266,12282,12362,12363,12386,12387,12395,12427,12514,12515,12579,12626,12627,12907,12907,12970,12971,13362,13370,13370,13378,13394,13402,13402,13426,13498,13499,13506,13507,13602,13690,13691,13714,13715,13874,13875,13954,13955,13970,13978,13979,14050,14067,14067,14082,14083,14122,14122,14154,14178,14202,14211,14218,14250,14250,14266,14282,14299,14299,14322,14322,14354,14370,14379,14394,14405,14410,14410,14434,14458,14498,14498,14522,14522,14554,14594,14642,14650,14659,14667,14698,14730,14850,14867,14906,14922,14938,14978,14994,15010,15042,15042,15066,15082,15106,15114,15122,15146,15154,15170,15171,15218,15234,15258,15282,15290,15306,15330,15346,15346,15362,15386,15394,15411,15450,15459,15459,15475,15498,15514,15522,15562,15586,15586,15602,15674,15682,15706,15754,15770,15778,15795,15796,15810,15826,15858,15874,15882,15906,15922,15938,15938,15978,15994,16003,16026,16034,16050,16074,16074,16114,16114,16162,16178,16194,16226,16250,16266,16290,16290,16306,16314,16330,16338,16346,16386,16394,16410,16410,16418,16434,16450,16482,16507,16522,16523,16554,16570,16586,16626,16658,16658,16675,16675,16706,16714,16786,16787,16787,16826,16827,16858,16874,16875,16906,16906,16914,16938,16938,16994,17010,17314,17322,17338,17354,17355,17370,17386,17387,17410,17411,17426,17426,17450,17490,17490,17546,17546,17555,17556,17563,17563,17570,17570,17579,17586,17642,17666,17666,17675,17675,17682,17691,17738,17738,17778,17778,17814,17814,17828,17829,17867,17898,17922,17938,17938,18026,18027,18034,18034,18050,18051,18170,18171,18194,18258,18266,18282,18283,18338,18354,18378,18410,18450,18474,18482,18491,18562,18626,18627,18682,18714,18714,18722,18802,18803,18818,18834,18834,18842,18843,18850,18882,18906,18914,18978,19002,19050,19506,19507,19530,19546,19586,19610,19610,19642,19642,19650,19667,19706,19722,19722,19743,19743,19756,19762,19882,19883,19922,19978,20066,20082,20082,20114,20170,20778,20779" d="M256.5,329.66666C256.5,327.96667 256.61194,327.05728 256.47916,326.14584C256.33521,325.15781 255.81134,324.52567 255.58533,323.55066C255.41087,322.79803 255.5,321.84134 255.5,320.83334C255.5,320.04132 255.5,319.18268 255.5,318.31934C255.5,317.41934 255.5,316.5 255.5,315.66666C255.5,314.68799 255.5,313.914 255.5,313.01401C255.5,312.15067 255.5,311.16666 255.5,310.18268C255.5,309.492 255.5,308.41934 255.5,307.5C255.5,306.84134 255.5,305.83334 255.5,305.04132C255.5,304.01401 255.49991,303.31934 255.5,302.29199C255.50009,301.34534 255.39784,300.44418 255.784,299.552C256.05612,298.92325 256.48932,298.06668 256.5,297.16666C256.51068,296.26666 256.91837,295.54391 257.33334,294.66666C257.67041,293.9541 257.88409,293.02652 258.14734,292.31934C258.51993,291.31836 258.88608,290.52832 259.216,289.86667C259.63657,289.02332 259.15692,287.9881 259.52084,287.1875C259.87231,286.41428 260.46176,285.90112 261.02084,285.16666C261.61102,284.39133 262.33551,283.89841 262.48932,283.06668C262.65308,282.18112 263.04321,281.46338 263.37851,280.56668C263.69659,279.71603 263.51346,278.81647 264.02084,278.16666C264.62051,277.39865 265.33255,276.89529 265.49551,275.96667C265.65125,275.07935 265.94421,274.27435 266.59982,273.56668C267.14978,272.97305 267.48956,272.16684 267.5,271.26666C267.51041,270.36673 267.5,269.46667 267.5,268.56668C267.5,267.66666 267.5,266.86667 267.5,265.96667C267.5,265.06668 267.5,264.16666 267.5,263.26666C267.5,262.36667 267.5,261.46667 267.5,260.56668C267.5,259.66666 267.5,258.86667 267.5,257.96667C267.5,257.06668 267.5,256.16666 267.5,255.26666C267.5,254.36667 267.5,253.46666 267.5,252.56667C267.5,251.66667 267.5,250.86667 267.5,249.96666C267.5,249.06667 267.5,248.16667 267.5,247.256C267.5,246.34534 267.5,245.492 267.5,244.552C267.5,243.66667 267.5,242.86667 267.5,241.96666C267.5,241.06667 267.5,240.16667 267.5,239.26666C267.5,238.36667 267.5,237.46666 267.5,236.5665C267.5,235.78133 267.5,234.84134 267.5,233.83333C267.5,233.07733 267.5,232.16667 267.5,231.26666C267.5,230.36667 267.5,229.46666 267.5,228.56667C267.5,227.66667 267.04968,227.12175 266.58533,226.38133C266.09726,225.60307 266.5,224.56667 266.5,223.66667C266.5,222.86667 266.5,221.96666 266.5,221.06667C266.5,220.256 266.68552,219.31573 266.46399,218.528C266.2041,217.60378 265.54935,217.10869 265.216,216.18266C264.96219,215.47762 264.54272,214.55508 264.5,213.66667C264.46158,212.86758 264.5,211.96666 264.5,211.06667C264.5,210.16667 264.63315,209.25609 264.49551,208.36667C264.35114,207.43369 263.76639,206.92819 263.20001,206.01401C262.77783,205.33257 262.20715,204.60693 261.85718,203.914C261.42883,203.06592 261.47729,202.12332 261.07468,201.30267C260.64801,200.433 260.54779,199.5654 260.5,198.66667C260.45728,197.86327 260.09482,197.10915 259.52533,196.27733C259.07025,195.61266 258.51068,195.056 258.5,194.16667C258.48932,193.27733 257.78302,192.78961 257.51068,192.056C257.20096,191.22174 256.95679,190.46338 256.62149,189.56667C256.30341,188.71603 256.37238,187.8894 256,187.14583C255.53043,186.20821 255.59659,185.48734 255.4955,184.41933C255.40753,183.48996 255.0267,182.85962 254.784,182.15067C254.45409,181.187 254.50217,180.18266 254.5,179.31934C254.49774,178.42381 254.17387,177.63 253.784,176.86667C253.39946,176.11378 253.5,175.14583 253.5,174.18266C253.5,173.492 253.5,172.41933 253.5,171.5C253.5,170.66667 253.49806,169.688 253.5,168.914C253.50226,168.01848 253.57475,167.22615 254.2045,166.56134C254.78589,165.94759 255.31918,165.17332 255.464,164.30267C255.61772,163.37849 255.69289,162.35486 256.30133,161.952C257.12277,161.40811 257.30371,160.83084 257.55716,159.96666C257.81448,159.08923 258.30939,158.30511 258.72168,157.5665C259.1362,156.82393 260.00272,156.20123 260.47916,155.66667C261.19797,154.86017 261.15771,154.00096 261.52084,153.1875C261.83792,152.47722 262.76675,152.16602 263.33334,151.5C263.91489,150.81639 264.15363,150.10625 264.7955,149.36667C265.37411,148.69998 265.72952,147.96037 266.5,147.5C267.21948,147.07008 267.37604,146.09885 267.85718,145.36667C268.37909,144.57243 269.16177,144.20418 269.88934,143.692C270.54666,143.22928 270.5719,142.23483 271.07468,141.64133C271.61148,141.00764 271.98062,140.15546 272.44733,139.37117C272.84106,138.70947 273.84103,138.4776 274.21466,137.78C274.66968,136.93045 274.68118,136.02345 275.5,135.5C276.11133,135.10919 277.20477,134.79912 277.48932,134.056C277.80756,133.22496 278.00052,132.44788 278.33334,131.66667C278.65353,130.91513 278.5,129.96666 278.5,129.06667C278.5,128.16667 278.61206,127.15681 277.93066,126.46533C277.40149,125.92834 276.51608,125.3497 276.13599,124.852C275.49069,124.00703 274.73834,123.70998 274,123.14584C273.22577,122.55426 273.02917,121.72103 272.44733,121.02383C271.95398,120.43269 270.99484,120.15111 270.29999,119.46667C269.79623,118.97046 268.99451,118.33203 268.58401,117.46667C268.2247,116.70921 267.69925,116.01304 267.52084,115.14584C267.32672,114.20221 267.5,113.492 267.5,112.41933C267.5,111.5 267.5,110.66666 267.5,109.68816C267.5,108.97117 267.49042,108.06661 267.5,107.16666C267.51044,106.18733 268.25943,105.72547 268.49551,104.96217C268.76038,104.10577 268.94421,103.27435 269.59982,102.56667C270.14978,101.97303 270.34714,101.15224 270.51068,100.26667C270.66452,99.43365 271.35428,98.81278 271.7955,98.0095C272.19223,97.28719 272.44763,96.2705 272.48932,95.50267C272.54092,94.55201 272.5,93.78267 272.5,92.84133C272.5,91.83334 272.65042,90.95268 272.064,90.27734C271.45633,89.57751 270.4281,89.30817 270.50134,88.46667C270.58167,87.54366 271.34595,86.89983 271.48932,86.06667C271.64548,85.15911 271.42944,84.17528 271.53601,83.492C271.68588,82.53111 272.38974,81.94377 272.97916,81.16666C273.53931,80.42815 273.69308,79.54263 274.2045,78.96667C274.85474,78.2344 275.24838,77.35326 275.784,76.75066C276.31491,76.15337 276.65326,75.30995 277.02084,74.6875C277.51404,73.85235 278.46466,73.43878 279.13599,73.092C279.94705,72.67303 280.7854,72.60732 281.51468,72.092C282.20007,71.60769 283.00513,71.15112 283.60001,70.56667C284.20529,69.97199 284.88229,69.24843 285.5,68.66666C286.1188,68.08387 286.99835,67.82187 287.84732,67.614C288.76465,67.38939 289.4874,66.7517 290.29999,66.668C291.19528,66.57578 292.10001,66.66666 293,66.66666C293.89999,66.66666 294.79999,66.66666 295.70001,66.66666C296.60001,66.66666 297.5,66.66666 298.29999,66.66666C299.20001,66.66666 300.10001,66.66666 301,66.66666C301.89999,66.66666 302.87674,66.48322 303.59982,66.88817C304.33719,67.30112 304.41592,68.33307 304.936,69.06667C305.49393,69.85367 306.19919,70.31138 307,70.66666C307.79916,71.02121 308.6655,71.39003 309.5,71.83334C310.13391,72.17007 310.43668,73.22622 311.11066,73.692C311.84265,74.19787 312.60162,74.76507 313.10001,75.26667C313.79776,75.96893 314.25323,76.54218 314.47467,77.492C314.70764,78.49133 315.18594,79.07008 315.44284,79.96667C315.69159,80.83488 315.38919,81.8438 315.52084,82.64584C315.66519,83.52531 316.35614,84.06625 316.784,84.86667C317.24149,85.72253 317.46033,86.42842 318.02084,87.16666C318.61008,87.94273 319.32996,88.43598 319.48932,89.26667C319.67117,90.21451 320.14398,90.72131 320.58401,91.468C320.99686,92.16853 321.33093,93.01928 321.784,93.86667C322.1326,94.51867 322.49774,95.36666 322.5,96.26667C322.50223,97.16666 322.5,98.06667 322.5,98.96667C322.5,99.86667 322.5,100.76667 322.5,101.66666C322.5,102.46667 322.5,103.30267 322.5,104.31934C322.5,105.014 322.5,106.04134 322.5,106.988C322.5,107.84133 322.5,108.78267 322.5,109.55067C322.5,110.492 322.5,111.5 322.5,112.292C322.5,113.15067 322.5,114.014 322.5,114.914C322.5,115.83334 322.5,116.66666 322.5,117.64533C322.5,118.41933 322.5,119.31934 322.5,120.18267C322.5,121.16666 322.5701,122.15798 322.46399,122.84133C322.31482,123.80199 321.64816,124.43399 321.50449,125.36667C321.36746,126.25619 321.53745,127.20441 321.27866,127.988C320.98901,128.86501 320.74319,129.68573 320.41599,130.46533C320.05234,131.33173 319.60184,132.10057 319.216,132.868C318.8526,133.59079 318.54092,134.49219 318.5,135.5C318.46783,136.29218 318.19803,137.14337 317.92532,137.84134C317.5611,138.77356 317.50067,139.55067 317.5,140.492C317.49927,141.5 317.49557,142.47983 318.30133,142.66533C319.11472,142.85258 320.15268,142.66667 320.84732,142.66667C321.87466,142.66667 322.82132,142.66667 323.67465,142.66667C324.616,142.66667 325.384,142.66667 326.32535,142.66667C327.33334,142.66667 328.12579,142.63962 328.98401,142.668C329.84866,142.69659 330.73996,143.03462 331.384,143.468C332.14417,143.97954 332.9375,144.25073 333.73834,144.96666C334.42328,145.57896 334.86969,146.09496 335.37851,146.88817C335.85748,147.63481 335.63437,148.57861 336.20532,149.31934C336.62369,149.86209 337.41171,150.76622 337.49734,151.46533C337.60693,152.35999 337.49805,153.28627 337.92532,154.06667C338.3757,154.88924 338.45221,155.76793 338.5,156.66667C338.54272,157.47006 339.24698,158.20461 339.46399,159.07733C339.6839,159.96179 339.41434,160.87952 339.72134,161.64517C340.03174,162.41927 340.49466,163.26662 340.5,164.16667C340.50534,165.06665 340.39304,165.97319 340.50134,166.86667C340.61282,167.78642 341.30301,168.32208 341.48932,169.26666C341.64624,170.06229 341.72833,170.98518 342,171.66667C342.38852,172.64124 342.49933,173.46533 342.5,174.36667C342.50067,175.26666 342.5,176.16667 342.5,177.06667C342.5,177.96666 342.17416,179.14702 342.85718,179.6095C343.63583,180.13672 344.49362,180.07523 345,180.66667C345.50891,181.26109 345.5,182.16667 345.5,183.06667C345.5,183.96666 345.5,184.86667 345.5,185.76666C345.5,186.66667 345.5,187.46666 345.5,188.36667C345.5,189.26666 345.5,190.16667 345.5,191.06667C345.5,191.96666 345.5,192.86667 345.5,193.76666C345.5,194.66667 345.5,195.46666 345.5,196.36667C345.5,197.26666 345.5,198.16667 345.5,199.06667C345.5,199.96666 345.5,200.86667 345.5,201.76666C345.5,202.66667 345.3757,203.44409 344.92532,204.26666C344.49805,205.04706 344.5,205.96666 344.5,206.86667C344.5,207.76666 344.66815,208.70311 344.41467,209.46666C344.15833,210.23883 343.51801,211.06613 343.5,211.96666C343.48199,212.86649 343.5,213.76666 343.5,214.66667C343.5,215.46666 343.5,216.36667 343.5,217.26666C343.5,218.16667 343.5,219.06667 343.5,219.96666C343.5,220.86667 343.5,221.76666 343.5,222.66667C343.5,223.46666 343.5,224.36667 343.5,225.26666C343.5,226.16667 343.5,227.06667 343.5,227.96666C343.5,228.86667 343.5,229.76666 343.5,230.66667C343.5,231.46666 343.5,232.36667 343.5,233.26666C343.5,234.16667 343.5,235.06667 343.5,235.96666C343.5,236.86667 343.5,237.76683 343.5,238.552C343.5,239.492 343.5,240.18266 343.5,241.256C343.5,242.16667 343.5,243.06667 343.5,243.96666C343.5,244.86667 343.5,245.76666 343.5,246.66667C343.5,247.46666 343.5,248.36667 343.5,249.26666C343.5,250.16667 343.5,251.06667 343.5,251.96666C343.5,252.86667 343.5,253.76666 343.5,254.66667C343.5,255.46666 343.5,256.36667 343.5,257.26666C343.5,258.16666 343.38348,259.07483 343.50449,259.96667C343.61591,260.78799 344.34586,261.43353 344.48932,262.26666C344.64206,263.15366 344.4183,264.0708 344.50449,264.97116C344.58807,265.84448 345.05542,266.64658 345.33334,267.5C345.6088,268.34589 346.10242,269.11526 346.41599,269.86801C346.7995,270.78867 346.97736,271.48486 347.216,272.26801C347.51355,273.24442 347.45157,274.05228 347.92532,275.03067C348.30209,275.80881 348.52451,276.57648 348.936,277.492C349.25632,278.20468 349.96255,278.81516 350.33334,279.66666C350.65952,280.41565 350.02954,281.52603 350.55716,282.30951C351.01791,282.99371 352.20001,282.66666 353.02084,282.66666C353.98401,282.66666 354.84732,282.66666 355.74734,282.66666C356.66666,282.66666 357.5,282.66666 358.47867,282.66666C359.25266,282.66666 360.15268,282.66666 361.01599,282.66666C362,282.66666 362.82132,282.66666 363.67465,282.66666C364.616,282.66666 365.384,282.66666 366.336,282.66666C367.10132,282.66666 368.10001,282.66666 368.89999,282.66666C369.89868,282.66666 370.84283,282.66666 371.74283,282.66666C372.70001,282.66666 373.60297,282.59387 374.5,282.66666C375.20697,282.72403 375.8002,283.60049 376.29999,284.09866C376.98624,284.78271 378.02115,284.64319 378.98401,284.668C379.67529,284.68582 380.57294,285.03824 381.384,285.38266C382.12683,285.69809 383.12445,285.67487 383.89734,285.952C384.82196,286.28354 385.32068,287.18161 385.936,287.64133C386.69296,288.20685 387.49976,288.6669 388,289.16666C388.70099,289.867 389.23361,290.40283 389.98532,290.86667C390.69025,291.30164 391.68881,291.79004 392.47916,292.14584C393.32236,292.52545 394.21408,292.50879 394.88934,293.10266C395.58557,293.71497 395.5,294.76666 395.5,295.66666C395.5,296.46667 395.5,297.36667 395.5,298.26666C395.5,299.16666 395.5,300.06668 395.5,300.96667C395.5,301.86667 395.58868,302.77106 395.5,303.66666C395.41626,304.51236 394.46732,304.79227 393.89999,305.27734C393.15329,305.91577 392.55264,306.72849 392,307.14584C391.26031,307.70444 390.36441,308.05835 389.70001,308.38266C388.80389,308.82004 387.84283,308.66614 387.09549,308.66666C386.10266,308.66733 385.06949,308.55908 384.52084,309.1875C383.95395,309.83682 383.39569,310.51678 382.5,310.66666C381.6618,310.80692 381.21069,311.5495 380.39999,311.66684C379.49417,311.79797 378.79556,312.40225 379.08533,313.26666C379.36508,314.10117 380.10196,314.52768 380.79999,315.02832C381.38913,315.45087 381.76563,316.34018 382.29999,317.18268C382.77051,317.92453 383.65002,318.2514 384.33334,318.83334C385.07321,319.46344 385.48975,319.91327 386.16666,320.66666C386.71933,321.2818 387.18365,322.06409 387.85718,322.61401C388.56058,323.18832 389.24631,323.52832 389.89999,324.056C390.64441,324.65692 391.32538,325.12506 391.94266,325.76666C392.4183,326.26102 393.33066,326.86533 393.78534,327.58267L394.59982,327.88815L395.21466,328.46799" id="svg_1" stroke-width="3" stroke="#000" fill="none"/>
  <path t="22514,22578,22586,22595,22596,22603,22603,22611,22611,22619,22619,22626,22626,22634,22634,22634,22642,22650,22650,22665,22689,22706,22834,22842,22850,22850,22858,22858,22866,22866,22866,22874,22874,22890,22890,22890,22906,22906,22978,22986,22986,22994,22994,23003,23003,23003,23010,23010,23010,23018,23018,23018,23018,23018,23026,23026,23034,23034,23041,23122,23122,23130,23131,23138,23146,23154,23155,23162,23162,23162,23170,23298,23306,23306,23314,23315,23322,23322,23322,23323,23323,23330,23331,23331,23331,23331,23331,23339,23339,23339,23340,23340,23346,23346,23346,23347,23354,23354,23354,23362,23362,23378,23378,23386,23394,23403,23410,23418,23419,23426,23426,23434,23434,23442,23450,23450,23459,23586,23602" d="M388.5,333.66666C388.5,331.96667 388.48218,330.97278 389.20984,330.36667C389.79105,329.88257 390.72571,329.33783 391.384,328.86667C392.12967,328.33295 392.88489,328.02005 393.61465,327.46667C394.33966,326.9169 394.90515,326.2366 395.47067,325.78134C396.24673,325.15662 396.97678,324.64749 397.73199,324.23599C398.65985,323.73041 399.63785,323.82382 400.29999,323.58133C401.1987,323.2522 401.73297,322.27029 402.5,321.83334C403.27988,321.38907 403.57324,321.3205 402.92932,321.86533C402.35968,322.34732 401.29907,322.53946 400.5,322.66666C399.49881,322.82602 398.6842,323.05429 397.98532,323.46799C397.07605,324.00623 396.54672,324.50055 395.73065,324.86667C394.9924,325.19788 394.1767,325.45203 393.18668,325.86533C392.34137,326.21823 391.38843,326.62393 390.5,326.66666C389.74371,326.703 388.82394,326.5968 388.03833,326.78101C387.05084,327.01251 386.28101,327.52936 385.72534,327.81601C384.67816,328.35623 383.94604,328.57196 383.20267,328.68134C382.00336,328.85782 381.24878,328.94751 380.43466,329.09201C379.61142,329.23813 378.84299,329.42044 377.64001,329.58133C376.90939,329.67905 376.01599,329.66217 375.15268,329.66666C374.12531,329.672 373.33334,329.83334 372.5,330.16666C371.66666,330.5 370.81503,330.56454 370.41599,329.86533C370.00754,329.14969 369.23529,328.5116 368.79999,327.85233C368.20706,326.95425 367.99271,326.17511 367.78534,325.43466C367.5209,324.49039 367.32419,323.44922 367.50049,322.56683C367.63095,321.91391 368.57507,321.70386 369.36801,321.67734C370.66599,321.63391 371.388,321.66666 372.15732,321.66666C372.98267,321.66666 373.87201,321.66605 374.83334,321.66666C375.86801,321.66733 376.40546,321.66422 377.5,321.6875C378.04944,321.69919 379.13412,321.72836 380.16666,321.83334C381.13049,321.93134 382.02423,322.08676 382.84268,322.31332C383.61935,322.52832 384.68604,322.97311 385.33835,323.31934C385.96606,323.6525 386.80875,324.19034 387.57849,324.64532C388.26001,325.04816 389.11859,325.5249 389.89868,326.14932C390.49503,326.62668 391.28998,327.46021 391.97916,327.625C392.87567,327.83936 393.79999,327.66666 394.70001,327.66666C395.60001,327.66666 396.5,327.66666 397.25717,327.66666C398.15717,327.66666 399.10202,327.63394 400.09549,327.67117C400.84418,327.69922 401.6687,328.16342 402.5,328.5C403.25717,328.80658 404.20001,328.66666 405.14282,328.72385L405.49866,329.46799" id="svg_2" stroke-width="20" stroke="#fff" fill="none"/>
  <path t="26492,27482,27506,27507,27531,27555,27571,27571,27579,27595,27787,27811,27922,27931,27979,27979,28027,28099,28099,28171,28195,28219,28219,28283,28491,28499,28762,28818,28819" d="M380.5,313.66666C380.66666,314.5 381.45828,314.9006 382.20001,315.314C382.96368,315.73962 383.82407,315.99857 384.5,316.66666C385.08566,317.24554 385.48541,318.04694 386,318.66666C386.49991,319.26871 386.49774,320.16666 386.5,321.06668C386.50226,321.96667 386.86856,322.81406 387.216,323.46667C387.63489,324.25351 387.81863,325.1369 388.14734,326.01401C388.47824,326.89703 388.5,327.76666 388.5,328.66666C388.5,329.46667 388.5,330.36667 388.5,331.26666C388.5,332.16666 388.51068,333.06668 388.86166,333.96667L389.38666,334.46667" id="svg_3" stroke-width="3" stroke="#000" fill="none"/>
  <path t="30491,30666,30666,30675,30683,30699,30714,30739,30770,30778,30779,30795,30811,30811,30874,30898,30939,30986,30986,31011,31011,31019,31051,31083,31163,31163" d="M366.5,313.66666C367.5,313.66666 368.29999,313.66666 369.20001,313.66666C370.10001,313.66666 371,313.66666 371.89999,313.66666C372.79999,313.66666 373.70001,313.66666 374.60016,313.66666C375.38535,313.66666 376.32535,313.66666 377.33334,313.66666C378.08932,313.66666 379,313.66888 379.89999,313.66666C380.8045,313.6644 381.66666,313.5 382.5,313.16666C383.33334,312.83334 384.12512,312.60599 384.58401,311.86533C385.00873,311.17984 385.89999,310.69199 386.70001,310.38266L387.29999,309.95065" id="svg_4" stroke-width="3" stroke="#000" fill="none"/>
  <path t="33268,33419,33419,33442,33443,33451,33451,33459,33475,33482,33483,33507,33507,33546,33563,33579,33587,33595,33659,33675,33675,33691,33706,33730,33778,33850,34067,34067,34459,34779,34779,34797,34797,34826,34947,34947,35002,35003,35098,35098,35154,35154,35346,35346,35378,35458,35642,35643,35699,35722,35731,35731,35786,35810,35827,35866,35898,35907,35907,35914,35946,35962,35978,36202,36226,36243,36251,36267,36274,36283,36283,36346,36362,36363,36371,36371,36386,36466,36475,36484,36578,36595,36595,36658,36714,36858,36859,36963,36994,37026,37098,37122,37122,37138,37178,37210,37210,37234,37250,37514,37610,37778,37858,37890,38266,38298,38298,38362,38370,38371,38442,38451,38459,38482,38498,38498,38514,38530,38530,38674,38698,38770,38787,38795,38796,38804,38811,38819,38819,38866,38898,38898,38914,38914,38994,38995,39090,39106,39106,39115,39115,39170,39178,39218,39218,39250,39250,39306,39306,39306,39322,39338,39347,39402,39402,39418,39442,39482,39482,39498,39498,39514,39594,39594,39603,39618,39627,39627,39706,39706,39898,39898,39930,39962,39971,39971,39978,39978,39997,40012,40012,40066,40066,40074,40075,40083,40154,40164,40164,40179,40194,40194,40194,40212,40234,40234,40258,40274,40274,40290,40313,40314,40322,40338,40339,40394,40394,40418,40434,40490,40506,40514,40522,40531,40618,40627,40642,40706,40738,40746,40746,40810,40826,40842,40858,40914,40915,40938,40978,41010,41010,41018,41042,41050,41074,41154,41178,41178,41266,41290,41290,41307,41378,41403,41467,41675,41771,41795,41795" d="M330.5,291.66666C331.5,291.83334 332.11069,292.31223 332.98401,292.58401C333.82855,292.84683 334.59097,293.25485 335.08932,293.81601C335.76886,294.58118 336.70132,294.66666 337.66666,294.66666C338.5,294.66666 339.33334,294.66666 340.1955,294.66666C341.14282,294.66666 342.02084,294.66666 342.89999,294.66666C343.79999,294.66666 344.70001,294.66666 345.60001,294.66666C346.5,294.66666 347.29999,294.66666 348.20001,294.66666C349.10001,294.66666 350,294.6644 350.89999,294.66666C351.79999,294.66891 352.71716,294.93271 353.29999,295.46799C353.92987,296.04645 354.67905,296.64725 355.31467,297.06668C356.18442,297.64063 356.57367,298.39395 357.36133,298.64133C358.30661,298.9382 359.09207,299.34149 359.98532,299.58267C360.69348,299.77386 361.72348,299.83267 362.47916,300.1875C363.36569,300.60376 363.96509,301.18155 364.60001,301.76651C365.28519,302.3978 366.09998,302.66068 367.02084,302.66666C367.98264,302.67288 369.22787,302.41934 369.4375,303.1875C369.6875,304.10367 368.32193,304.45172 367.52084,304.66666C366.6539,304.89926 366.06454,305.64865 365.20001,305.66666C364.30017,305.68539 363.39999,305.66666 362.5,305.66666C361.70001,305.66666 360.79999,305.66666 359.89999,305.66666C359,305.66666 357.20901,304.77567 357.20901,305.66666C357.20901,305.76031 358.20001,305.66666 359.10001,305.66666C360,305.66666 360.93619,305.58774 361.82117,305.88815C362.50568,306.12051 363.04172,307.00693 363.83334,307.5C364.4299,307.87155 365.47849,307.66666 366.29868,307.66666C367.20001,307.66666 368.12201,307.48859 369,307.6875C369.96234,307.90552 370.59387,308.60577 371.5,308.66666C372.29819,308.72028 373.27112,308.38074 374.10001,308.73868C374.96661,309.11292 375.27448,309.88489 375.97916,310.64584C376.51572,311.22528 376.17142,312.26468 375.29999,312.58133C374.45029,312.89008 373.64554,312.67722 372.89999,313.27734C372.13715,313.89136 371.5126,314.58163 370.70001,314.66534C369.80472,314.75757 368.89996,314.66125 368,314.66666C367.1106,314.672 366.51263,315.18735 366.5,316.06668C366.48715,316.96207 366.05389,317.64865 365.17868,317.66666C364.32553,317.6842 363.38535,317.66666 362.5,317.66666C361.70001,317.66666 360.79993,317.65625 359.89999,317.66666C358.99982,317.67709 358.18619,318.00909 357.5,318.66666C356.88736,319.25375 356.40237,320.02197 355.5,320.5C354.85178,320.84338 354.07764,321.35284 353.20001,321.6095C352.33441,321.86261 351.39999,321.66666 350.5,321.66666C349.70001,321.66666 348.79999,321.66666 347.86401,321.66666C347.01599,321.66666 346.15268,321.66666 345.25266,321.66666C344.33334,321.66666 343.5,321.66666 342.52133,321.66666C341.74734,321.66666 340.82614,321.7879 339.98401,321.58133C339.08319,321.36035 338.35532,320.62683 337.67465,320.27734C336.69482,319.77423 335.78629,319.82413 335.11066,319.23065C334.41351,318.61829 334.41058,317.5957 333.85333,317.06668C333.10568,316.3569 332.26477,316.09811 331.66666,315.5C331.06854,314.90192 330.83224,314.03897 330.10001,313.31332C329.40607,312.62564 328.73874,312.30505 328.2785,311.56683C327.83139,310.84967 326.83368,310.75064 326.10001,310.23065C325.31274,309.6727 324.88419,309.03714 324.01733,308.46667C323.37552,308.04431 322.72012,307.31149 322.2785,306.56668C321.88565,305.90414 321.16534,305.16708 320.39999,304.78799C319.55322,304.36856 318.88754,304.0206 318.01599,303.46667C317.34241,303.03857 316.56918,302.49628 315.91068,302.10266C315.05161,301.58914 314.17197,301.75244 313.17868,301.44534C312.47775,301.22864 311.51389,301.13797 310.78665,300.58267C310.09058,300.05118 309.46808,299.54016 308.89999,299.056C308.14981,298.41669 307.64331,297.81921 306.84732,297.37115C306.01102,296.90039 305.08734,296.75735 304.47916,296.14584C303.86426,295.52759 303.3345,295.04251 302.25266,294.71933C301.34708,294.44879 300.64984,294.27414 299.98401,293.86533C299.0994,293.3222 298.50095,292.66571 297.89999,292.06668C297.20111,291.37006 296.46176,290.93274 295.70001,290.58267C294.95026,290.23813 294.18747,289.54825 293.78534,288.86667C293.33215,288.09854 293.2666,287.15549 292.7955,286.31934C292.34769,285.52451 291.55435,285.19662 290.85718,284.61401C290.26633,284.12024 290.03958,283.14307 289.55267,282.37115C289.10959,281.66873 288.37097,281.20285 287.85266,280.61401C287.27997,279.96344 286.92209,279.27628 286.11066,278.69199C285.44583,278.21326 285.14688,277.36292 284.5,276.66666C283.93951,276.06342 283.5242,275.27832 283,274.66666C282.44614,274.02039 281.73868,273.60867 281.20001,272.96133C280.6358,272.28333 279.93417,271.80334 279.20001,271.30951C278.41141,270.77905 278.08258,269.9772 277.5,269.1875C277.02933,268.5495 276.44052,268.03079 275.69867,267.58267C274.99338,267.15662 274.29999,266.46667 273.70001,265.86667C273.10001,265.26666 272.40112,264.56555 271.79999,263.96667C271.20111,263.37003 270.27023,262.99573 269.62134,262.44534C268.96011,261.88449 268.52533,261.23065 268.14734,260.36667L267.66666,259.66666L267.50134,258.86667" id="svg_5" stroke-width="3" stroke="#000" fill="none"/>
  <path t="49300,49506,49507,49523,49531,49570,49611,49611,49627,49651,49667,49675,49715,49723,49739,49763,49771,49771,49779,49795,49803,49819,49827,49835,49867,49875,49915,49925,49939,49970,49986,49986,49994,50011,50034,50042,50066,50082,50082" d="M321.5,288.66666C321.66666,287.66666 322.15558,286.86887 323,286.6875C323.88016,286.49844 324.87158,286.8931 325.66666,286.5C326.31326,286.1803 326.96436,285.45135 327.58401,284.95065C328.18372,284.46609 329.20001,284.6095 330,284.16666C330.79999,283.72385 331.70001,283.66666 332.60001,283.66666C333.5,283.66666 334.29999,283.66666 335.20001,283.66666C336.10001,283.66666 337,283.66891 337.89999,283.66666C338.7955,283.6644 339.31775,282.98373 340.11066,282.67734C340.94028,282.35675 341.89999,282.66666 342.79999,282.66666C343.70001,282.66666 344.60001,282.66666 345.5,282.66666C346.29999,282.66666 347.20001,282.66666 348.10001,282.66666C349,282.66666 349.89999,282.66666 350.8045,282.66666L351.66666,282.66666L352.5,282.66666" id="svg_6" stroke-width="3" stroke="#000" fill="none"/>
  <path t="51403,52026,52051,52090,52179,52290,52386,52395,52483,52546,52547,52627,52682,52714,52723,52723,52731,52731,52739,52739,52746,52747,52786,52810,52811,52819,52827,52835,52851,52851,52867,52867,52954,52955,52986,52987,53058,53075,53210" d="M306.5,302.66666C305.50449,304.36667 305.5,305.26666 305.5,306.16666C305.5,307.06668 305.49991,307.96667 305.5,308.86667C305.50009,309.76651 305.84421,310.45715 306.60001,310.88815C307.2691,311.26971 308.0975,311.96368 308.41467,312.86667C308.71426,313.7196 308.40457,314.67999 308.55716,315.42383C308.74637,316.34622 309.15668,317.13861 309.98532,317.496C310.84232,317.86563 311.89868,317.66666 312.664,317.66666C313.61465,317.66666 314.5,317.66666 315.29999,317.66666C316.20001,317.66666 317.10001,317.66666 318.02084,317.66666C318.98532,317.66666 319.71066,317.66666 320.69983,317.66666C321.47916,317.66666 322.47867,317.66666 323.25266,317.66666C324.32535,317.66666 325.01599,317.66666 325.97916,317.66666L326.89999,317.66666L327.79999,317.66666" id="svg_7" stroke-width="3" stroke="#000" fill="none"/>
  <path t="54322,54474,54490,54538,54594" d="M305.5,302.66666C306.07468,301.06668 306.46399,300.26666 306.50449,299.37115L306.936,298.70267" id="svg_8" stroke-width="3" stroke="#000" fill="none"/>
  <path t="55394,55562,55642,55650,55658,55850,55858,55874,55874,55962,55962" d="M322.5,318.66666C324.29999,318.66666 325.20001,318.66666 326.10001,318.66666C327,318.66666 327.89999,318.66666 328.70132,318.66666C329.66666,318.66666 330.52084,318.66666 331.5,318.66666L332.27866,318.65601" id="svg_9" stroke-width="3" stroke="#000" fill="none"/>
  <path t="57578,57849,57866,57930,57930,58026,58026,58042,58042,58050,58066,58075,58075,58138,58170,58170,58210,58210,58242,58250,58250,58266,58298,58322,58322,58338,58338,58402,58426,58426,58506,58506,58522,58530,58539,58539,58546,58562,58570,58610,58626,58633,58650,58738,58756,58756,58778,58819,58819,58835,58843,58851,58863,58867,58915,58939,58955,58971,58971,58987,58987,59051,59067,59067,59163,59163,59187,59187,59243,59259,59259,59275,59275,59315,59347,59347,59363,59387,59507,59507,59523,59619,59619,59635,59635,59667,59706,59715,59722,59754,59762,59770,59770,59794,59818,59842,59883,59899,59915,59971,59979,59979,60003,60059,60067,60107,60123,60139,60171,60179,60179,60211,60235,60251,60259,60283,60299,60315,60339,60339,60347,60355,60379,60387,60419,60451,60459,60467,60467,60523,60547,60571,60683,60731,60747,60763,60802,60826,60850,60874,60882,60890,60891,60914,60971,60979,61011,61051,61123,61123,61219,61251,61251,61267,61299,61323,61355,61355,61379,61427,61451,61499,61515,61539,61539,61579,61611,61715,61739,61739,61747,61874,61875,61890,61899,61899,61971,61995,62203,62203,62315,62315,62387,62387,62435,62435,62499,62547,62547,62571,62571,62667,62667,62675,62683,62803" d="M332.5,293.66666C332.44284,291.96667 331.94659,291.16843 331.39999,290.34549C330.97394,289.70407 330.41217,288.87994 329.74283,288.6185C328.86179,288.27438 328.14508,288.04202 327.13599,287.69199C326.29459,287.40012 325.96091,286.47797 325.41599,285.952C324.72571,285.28571 323.77786,285.42722 323.33066,284.86533C322.76083,284.14938 321.93741,283.9259 321.13599,283.26666C320.35165,282.62149 319.79999,282.02383 319,281.66666C318.20001,281.30951 317.56918,280.57831 316.97916,280.1875C316.09845,279.60416 315.06708,279.77475 314.52084,279.14584C313.95166,278.49051 313.61276,277.86758 312.68533,277.26666C312.06894,276.86728 311.45251,276.14172 310.7955,275.55682C310.1665,274.99686 309.64709,274.29453 309.02084,273.6875C308.38858,273.07465 307.6731,272.83459 306.89999,272.63068C306.04434,272.405 305.71307,271.37592 305.14734,270.71933C304.62668,270.11505 304.38162,269.28787 303.88934,268.52802C303.39511,267.76517 302.3631,267.63037 301.85718,266.96216C301.33081,266.26694 301.21002,265.27353 300.40018,264.78799C299.67041,264.35046 298.89233,263.92746 298.53601,263.23065C298.10147,262.38086 297.88455,261.74573 297.29999,261.09732C296.8082,260.55182 296.31418,259.74582 295.85718,258.97116C295.40991,258.21304 295.15256,257.34897 294.61334,256.78134C293.86658,255.99525 293.31992,255.49739 292.66666,254.83333C292.03638,254.19264 291.6217,253.3416 291.33334,252.5C291.04605,251.66151 290.30734,251.19836 289.78534,250.49867C289.24759,249.77786 289.24567,248.7061 288.92532,248.07733C288.47299,247.18947 288.61331,246.16534 288.05734,245.56667C287.46826,244.93234 286.58566,244.47655 286.5,243.5C286.42719,242.66986 286.5,241.83333 286.5,240.97116C286.5,240.06667 286.5,239.16667 286.5,238.26666C286.5,237.36667 286.5,236.46666 286.5,235.56667C286.5,234.66667 286.5,233.86667 286.5,232.96666C286.5,232.06667 286.5,231.16667 286.5,230.26666C286.5,229.36667 286.5,228.46666 286.5,227.56667C286.5,226.66667 286.5,225.86667 286.5,224.96666C286.5,224.06667 286.5,223.16667 286.5,222.26666C286.5,221.36667 286.5,220.46666 286.5,219.56667C286.5,218.66667 286.5,217.86667 286.5,216.96666C286.5,216.06667 286.5,215.16667 286.5,214.26666C286.5,213.36667 286.5,212.46666 286.5,211.56667C286.5,210.66667 286.5,209.86667 286.5,208.96666C286.5,208.06667 286.5,207.16667 286.5,206.26666C286.5,205.36667 286.5,204.46666 286.5,203.56667C286.5,202.66667 286.5,201.86667 286.5,200.96666C286.5,200.06667 286.5,199.16667 286.5,198.26666C286.5,197.36667 286.35019,196.45407 286.50015,195.56683C286.64417,194.71481 287.47141,194.31079 287.5,193.36667C287.52725,192.46707 287.5,191.56667 287.5,190.66667C287.5,189.86667 287.68872,189.1792 288.33334,188.5C288.9353,187.86577 289.47141,187.31094 289.5,186.46666C289.53046,185.56702 289.56674,184.7782 289.48932,183.84134C289.40533,182.8248 289.08279,182.13927 288.52533,181.27733C288.12057,180.65154 287.17593,180.33478 286.5,179.66667C285.91434,179.08778 285.53448,178.26935 285,177.66667C284.4834,177.08414 283.73447,176.7049 283,176.14583C282.22467,175.55565 281.68185,174.99524 280.89999,174.64133C280.08939,174.2744 279.73627,173.3996 279.2785,172.56667C278.90753,171.89163 278.20001,171.36667 277.5,170.66667C276.89999,170.06667 276.40237,169.31136 275.5,168.83333C274.85178,168.48993 274.07687,167.98177 273.1955,167.72383C272.36624,167.48116 271.47916,167.66667 270.5,167.66667C269.71066,167.66667 268.66666,167.66667 267.87466,167.66667C267.01599,167.66667 266.15268,167.66667 265.25266,167.66667C264.33334,167.66667 263.49933,167.70256 262.52133,167.6665C261.74579,167.63791 260.84732,167.314 260.15268,167.01933L259.13599,166.70267L258.20001,166.66667L257.29999,166.66667" id="svg_10" stroke-width="3" stroke="#000" fill="none"/>
  <path t="64508,64706,64803,64803,64810,64810,64843,64859,64859,64890,64907,64923,64923,64931,64939,64979,64979,64987,65019,65043,65059,65082,65083,65154,65154,65154,65162,65162,65170,65186,65251,65267,65267,65291,65291,65315,65331,65347,65363,65363,65387,65387,65395,65419,65419,65443,65459,65459,65475,65499,65531,65531,65554,65571,65659,65723,65755,65755,66067,66075,66115,66115,66194,66210,66226,66226,66242,66242,66331,66331,66339,66339,66355,66362,66363,66371,66387,66451,66507,66530,66667,66667,66683,66683,66763,66818,66819,66843,66851,67059,67107,67123,67298,67379,67387,67499,67539,67610,67611,67650,67674,67682,67738,67794,67826,67827,67874,67875,67930,67938,67978,67987,67987,68010,68034,68066,68090,68122,68123,68170,68202,68290,68291,68322,68330,68426,68506,68578,68578,68626,68698,68819,68819,68842,68898,68898,68954,69026,69026" d="M266.5,149.66667C268.32535,149.66667 269.33334,149.66493 270.12534,149.66667C271.15268,149.66893 271.92026,149.55983 272.74283,150.02383C273.60794,150.51183 274.03494,151.40338 274.89999,151.63066C275.76721,151.85852 276.21237,152.32326 276.60983,152.96133C277.12885,153.79453 278.11499,153.86659 278.66666,154.66667C279.07413,155.2576 279.92514,155.72333 280.52533,156.24133C281.15405,156.78397 281.98352,157.19562 282.70132,157.58533C283.37106,157.94894 284.15768,158.72543 284.5,159.1875C285.02368,159.89436 285.83157,160.79021 286.21335,161.464C286.63788,162.21324 286.90448,163.10483 287.70001,163.584C288.47241,164.04922 288.84155,164.82545 289.60001,165.42383C290.20605,165.90198 291.10751,166.25618 291.47467,167.06667C291.82831,167.84727 292.57822,168.35245 293.20001,168.7765C294.04849,169.35515 294.20126,170.26363 294.79999,170.905C295.4993,171.65414 296.33054,171.81027 296.89999,172.51733C297.53531,173.30615 298.13199,173.72127 298.58401,174.468C299.01071,175.1729 299.81134,175.7858 300.21466,176.46666C300.70462,177.29382 301.00159,178.16574 301.41599,178.86534C301.85886,179.61301 302.71548,179.93452 303.29999,180.468C304.01968,181.12489 304.84705,181.50308 305.60001,181.888C306.36319,182.27815 307.09995,182.66133 308.02084,182.66667C308.98529,182.67226 309.71066,182.66667 310.69983,182.66667C311.47916,182.66667 312.47867,182.66667 313.25266,182.66667C314.15268,182.66667 315.01599,182.66667 316,182.66667C316.98401,182.66667 317.67465,182.66678 318.74283,182.66667C319.59982,182.66658 320.17026,182.11989 320.85718,181.72383C321.67569,181.25189 322.66644,181.51073 323.20001,180.905C323.77997,180.24661 324.10098,179.24963 324.89999,178.728C325.62906,178.25203 326.1347,177.83105 326.55267,176.96666C326.94839,176.14832 327.85123,175.79005 328.47467,175.24133C329.05911,174.72693 329.08322,173.94292 329.53601,173.10266C329.9288,172.3737 331.06384,172.19081 331.44733,171.36667C331.80408,170.59998 332.34586,169.89981 332.48932,169.06667C332.64206,168.17967 332.50067,167.26666 332.5,166.36667C332.49933,165.46533 332.39383,164.47139 332.064,163.85201C331.58371,162.95015 330.67047,162.61934 330.50134,161.86534C330.30423,160.9866 330.00964,160.13568 329.29999,159.468C328.72363,158.92575 327.68433,158.67381 327.50134,157.86534C327.30295,156.98883 327.56418,156.0728 326.93201,155.46666C326.29532,154.85619 325.65262,154.25613 325.49551,153.36667C325.35132,152.55038 324.63834,151.92036 324.11066,151.26666C323.50977,150.52226 323.15201,149.71307 322.51468,149.24133C321.79987,148.71225 320.9873,148.6535 320.45184,147.96217C319.88522,147.23061 319.18747,146.54823 318.78534,145.86667C318.33215,145.09854 318.216,144.18266 317.92532,143.492L317.58401,142.552L317.33334,141.66667L316.85266,140.96666" id="svg_11" stroke-width="3" stroke="#000" fill="none"/>
  <path t="72531,72906,72923,73553,73554,73626,73946,73970,74026" d="M316.5,136.66667C315.02084,138.16667 314.66907,139.01927 314.216,139.86667C313.8674,140.51866 313.56168,141.36667 314.02084,142.14583L314.79999,142.6095L315.70001,142.66667" id="svg_12" stroke-width="3" stroke="#000" fill="none"/>
  <path t="75651,75682,75690,75690,75699,75706,75706,75706,75714,75714,75714,75721,75722,75722,75730,75730,75730,75737,75738,75746,75746,75746,75746,75753,75753,75753,75761,75761,75761,75761,75769,75769,75769,75777,75777,75777,75777,75785,75785,75802" d="M337.5,125.66666C336.41599,126.55334 336.28906,127.41837 335.69867,128.09734C335.08585,128.80208 334.15039,128.97264 333.49466,129.381C332.73041,129.85692 331.80917,130.64627 331.30984,131.26216C330.86301,131.81329 330.1918,132.66325 329.664,133.04134C328.91666,133.57668 328.09085,134.13911 327.52084,134.66667C326.97507,135.17181 326.11462,136.05197 325.69016,136.4765C324.95728,137.20946 324.24304,137.9221 323.75067,138.452C323.26172,138.97821 322.46573,139.98112 322,140.66667C321.69318,141.11833 320.96222,142.09229 320.49466,142.61934C320.00507,143.17122 319.24039,143.96082 318.64267,144.74533C318.12613,145.42331 317.71936,146.13828 317.16666,146.83333C316.52698,147.63774 316.02084,148.14583 315.5625,148.65683L314.75333,149.69467L314.33334,150.37866L313.47916,150.66667" id="svg_13" stroke-width="20" stroke="#fff" fill="none"/>
  <path t="78156,78275,78275,78291,78298,78307,78314,78419,78431,78474,78562,78594,78642,78770,78771,78818,78874,78970,78978,79026,79090,79098,79130,79290,79378,79378,79394,79482,79522,79522,79533,79554,79554,79650,79658,79658,79667,79667,79723,79763,79803,79811,79835,79883,79883,79971,80075" d="M320.5,123.66666C320.5,124.66666 320.3757,125.44409 319.92532,126.26667C319.49805,127.04705 319.57086,128.01511 319.07468,128.64133C318.5477,129.3064 317.81976,129.64258 317.46399,130.27733C317.03369,131.04509 316.54272,131.86365 316.5,132.76666C316.45749,133.66566 316.5,134.46666 316.5,135.36667C316.5,136.26666 316.21094,137.21864 316.51068,138.056C316.77441,138.79274 317.15625,139.35693 317.52084,140.14583C317.87717,140.91682 318.6543,141.58293 319.5,141.66667C320.29608,141.7455 320.95148,141.99768 321.66666,142.5C322.36209,142.98846 323.3154,142.5435 324.25717,142.72383C325.18335,142.90117 325.81705,143.43089 326.74734,143.6095C327.65192,143.78316 328.5,143.66667 329.47849,143.66667C330.29868,143.66667 331.20001,143.72383 332,144.16667C332.79999,144.6095 333.70001,144.66667 334.60001,144.66667C335.5,144.66667 336.29999,144.752 336.97916,145.1875L337.44284,145.96666" id="svg_14" stroke-width="3" stroke="#000" fill="none"/>
  <path t="81627,81778,81794,81794,81818,81827,81827,81907,81907,81910,82091,82122,82131,82154" d="M323.5,144.66667C324.41599,144.952 324.69305,145.7907 325.2045,146.36667C325.85471,147.09894 326.33725,147.77884 326.58401,148.552C326.88617,149.49872 327.45139,149.92009 328.14282,150.65767C328.63199,151.17947 328.5,152.16667 328.5,153.06667L328.5,153.96666" id="svg_15" stroke-width="3" stroke="#000" fill="none"/>
  <path t="84242,84266,84282,84290,84290,84290,84298,84298,84298,84298,84298,84307,84307,84307,84307,84307,84307,84314,84314,84314,84314,84314,84314,84323,84323,84323,84323,84330,84330,84330,84330,84370" d="M313.5,151.66667C315.29999,151.66667 316.13599,151.66667 316.99066,151.66667C317.85468,151.66667 318.44266,151.66667 319.58585,151.66667C320.52417,151.66667 321.03333,151.66667 322.10666,151.66667C322.66083,151.66667 324.33334,151.66565 324.87851,151.66684C325.94284,151.66917 326.46423,151.66858 327.48932,151.70267C327.99567,151.71951 329.50125,151.82317 330.49866,151.95067C330.99619,152.01427 331.97864,152.17014 332.94284,152.314C333.41443,152.38435 334.77744,152.55824 335.63834,152.6095C336.4577,152.65828 337.23834,152.66441 338.33334,152.66667C339.33383,152.66873 339.9375,152.66667 340.728,152.66667L341.9375,152.6875" id="svg_16" stroke-width="20" stroke="#fff" fill="none"/>
  <path t="86251,86482,86498,86498,86506,86530,86658,86658,86681,86721,86762,86786,86818,86818,86898,86961,86970,86978,87042,87226,87226,87242,87250,87274,87290,87290,87306,87306,87306,87314,87330,87330,87346,87354" d="M322.5,142.66667C323.33334,142.83333 323.47464,143.66707 323.5,144.46666C323.52859,145.36803 324.04181,146.14697 324.69867,146.86667C325.23215,147.45117 325.3295,148.28667 325.52084,149.16667C325.70486,150.01297 326.43912,150.76054 326.5,151.66667C326.55362,152.46486 326.8707,153.0956 327.37851,153.88817C327.85693,154.6349 327.1232,155.84665 327.66666,156.5C328.24063,157.19002 329.25543,157.21103 329.47916,158.16667C329.68436,159.04321 329.5,159.868 329.5,160.83333C329.5,161.6875 329.5,162.66667 329.5,163.45599C329.5,164.18134 329.5,165.16667 329.5,166.15067L329.5,167.01401L329.5,167.9095L329.5,168.86667" id="svg_17" stroke-width="3" stroke="#000" fill="none"/>
  <path t="88771,88857,88968,88968,89002,89034,89074,89074,89082,89097,89154,89178,89209,89266,89274,89290,89290,89362,89434,89450,89481,89482,89482,89626,89626,89658,89810,89810,89913,90002,90017,90073,90074,90098,90121,90122,90250,90266,90274,90282,90305,90386,90386,90394,90546" d="M339.5,164.66667C338.97916,163.64583 338.48257,162.84631 338.02084,162.20833C337.47913,161.45982 337.5,160.56667 337.5,159.66667C337.5,158.86667 337.5,157.96666 337.5,157.06667C337.5,156.16667 337.5,155.26666 337.5,154.36667C337.5,153.46666 337.5,152.56667 337.5,151.66667C337.5,150.86667 337.5199,149.96645 337.5,149.06667C337.47916,148.12431 337.17752,147.32719 336.79468,146.66133C336.36282,145.91022 335.70792,145.03548 335.54166,144.20833C335.35382,143.27377 335.67154,142.31953 335.46399,141.528C335.23956,140.67203 334.20001,140.66667 333.29999,140.66667C332.39984,140.66667 331.61465,140.66667 330.67465,140.66667C329.66666,140.66667 328.91068,140.66667 328,140.66667C327.10001,140.66667 326.20001,140.66667 325.29999,140.66667C324.39999,140.66667 323.5,140.66667 322.70001,140.66667L321.79999,140.66667L320.89999,140.66667" id="svg_18" stroke-width="3" stroke="#000" fill="none"/>
  <path t="103020,103034,103034,103043,103043,103051,103051,103059,103059,103059,103060,103060,103067,103067,103067,103067,103067,103067,103075,103075,103075,103075,103075,103075,103075,103082,103082,103082,103082,103083,103083,103083,103090,103090,103090,103090,103090,103090,103098,103098,103098,103099,103099,103099,103099,103106,103107,103107,103107,103107,103114,103114,103115,103115,103122,103122,103123,103123,103130,103130,103130,103131,103138,103138,103138,103147,103147,103147,103147,103154,103155,103155,103163,103163,103171,103171,103179,103179,103195,103202,103218,103219,103226,103227,103234,103235,103242,103250,103251,103258,103258,103267,103267,103274,103282,103282,103291,103291,103299,103299,103306,103307,103314,103322,103322,103323,103330,103330,103339,103347,103355,103355,103363,103363,103371,103378,103379,103386,103386,103394,103394,103402,103402,103410,103410,103418,103419,103434,103435,103442,103442,103442,103450,103450,103458,103458,103466,103474,103474,103482,103483,103483,103490,103490,103498,103507,103507,103514,103523,103523,103531,103547,103547,103555,103570,103571,103578,103579,103579,103586,103586,103594,103594,103602,103610,103610,103618,103618,103619,103626,103635,103643,103650,103666,103674,103674,103674,103683,103683,103690,103691,103699,103699,103707,103707,103715,103715,103723,103723,103723,103731,103731,103731,103739,103739,103747,103754,103755,103763,103770,103778,103778,103786,103787,103794,103794,103802,103818,103819,103826,103842,103842,103850,103851,103858,103858,103866,103874,103882,103882,103891,103891,103891,103899,103907,103922,103922,103931,103932,103938,103938,103947,103954,103963,103970,103986,103986,103994,103995,104010,104010,104018,104026,104034,104042,104051,104058,104066,104067,104075,104075,104083,104083,104091,104091,104099,104099,104107,104107,104122,104138,104154,104155,104162,104170,104170,104178,104178,104186,104187,104202,104218,104226,104250,104258,104258,104274,104290,104315,104354,104371,104379,104388,104395,104396,104404,104467,104515,104523,104539,104627,104643,104651,104651,104747,104827,104955" d="M1.5,148.66667C2.79733,148.66667 3.55636,148.67453 4.57833,148.6665C5.25339,148.66119 6.3168,148.46234 7.04167,148.16667C7.98117,147.78346 8.88003,147.71284 9.60417,147.6875C10.42749,147.65868 10.87467,147.66734 12.34317,147.66667C12.872,147.66643 13.98267,147.66667 14.5625,147.66667C15.76617,147.66667 16.388,147.66667 17.66667,147.66667C18.32117,147.66667 18.98267,147.66667 20.31467,147.66667C20.97917,147.66667 21.63867,147.66667 22.29017,147.66667C24.16667,147.66667 24.75717,147.66667 25.33067,147.66667C26.43867,147.66667 26.97917,147.66667 28.04817,147.66667C28.58267,147.66667 30.2215,147.66667 30.78533,147.66667C31.936,147.66667 32.52083,147.66667 33.11067,147.66667C34.30133,147.66667 35.5,147.66667 36.09967,147.66667C37.291,147.66667 37.87867,147.66667 38.45833,147.66667C39.58567,147.66667 40.12933,147.66667 41.657,147.66667C42.58567,147.66667 43.45833,147.66667 44.291,147.66667C44.69733,147.66667 45.9,147.66667 46.7,147.66667C47.5,147.66667 48.3,147.66667 49.5,147.66667C50.6955,147.66667 51.47917,147.66667 52.24283,147.66667C53.33333,147.66667 54.01467,147.66667 54.97917,147.66667C55.5955,147.66667 56.8,147.66667 57.7,147.66667C58.3,147.66667 59.5,147.66667 60.4,147.66667C61,147.66667 61.9,147.66667 63.09867,147.66667C63.68933,147.66667 64.54283,147.66667 65.57833,147.66667C66.45834,147.66667 67.47867,147.66667 68.25267,147.66667C69.15266,147.66667 70.03554,147.83997 70.97916,147.64583C71.84637,147.46741 72.59335,146.72881 73.38533,146.668C74.33321,146.59521 75.10202,146.69939 76.0955,146.66217C76.84416,146.63412 77.78865,146.08607 78.60017,145.78816C79.34582,145.51443 80.336,145.66667 81.10133,145.66667C82.0955,145.66667 82.84283,145.66667 83.87466,145.66667C84.8215,145.66667 85.52084,145.66667 86.5,145.66667C87.47916,145.66667 88.33334,145.66841 89.12534,145.66667C90.15267,145.66441 90.87466,145.68245 91.74733,145.314C92.70305,144.91049 93.34409,144.73848 94.10133,144.58267C95.11003,144.37514 95.81018,143.883 96.864,143.70267C97.7917,143.54391 98.66666,143.66667 99.5,143.66667C100.4785,143.66667 101.29867,143.66667 102.136,143.66667C103.15717,143.66667 103.9045,143.66667 104.9,143.66667C105.7,143.66667 106.69984,143.66667 107.47916,143.66667C108.47867,143.66667 109.25267,143.66667 110.15717,143.66667C110.9045,143.66667 111.9,143.66667 112.7,143.66667C113.7,143.66667 114.5,143.66667 115.5,143.66667C116.3,143.66667 117.1,143.66667 118.1,143.66667C118.9,143.66667 119.89867,143.66667 120.84283,143.66667C121.74733,143.66667 122.66666,143.66667 123.52084,143.66667C124.5,143.66667 125.3,143.66667 126.1,143.66667C127.0955,143.66667 127.84283,143.66667 128.87466,143.66667C129.82133,143.66667 130.5,143.66667 131.61467,143.66667C132.5,143.66667 133.3,143.66667 134.136,143.66667C135.15266,143.66667 135.84734,143.66667 136.87466,143.66667C137.8215,143.66667 138.52083,143.66667 139.5,143.66667C140.3,143.66667 141.10001,143.66667 142.10001,143.66667C142.89999,143.66667 143.89867,143.66667 144.84283,143.66667C145.74733,143.66667 146.66667,143.66667 147.52083,143.66667C148.5,143.66667 149.28934,143.66667 150.01466,143.66667C151.08934,143.66667 152,143.66667 152.89999,143.66667C153.8,143.66667 154.70134,143.66667 155.66667,143.66667C156.336,143.66667 157.10133,143.66667 158.10001,143.66667C158.89999,143.66667 159.89867,143.66667 160.84283,143.66667C161.75183,143.66667 162.46933,143.66667 163.50534,143.66667C164.24933,143.66667 165.35733,143.66667 166.15067,143.66667C167.043,143.66667 167.772,143.66667 168.60899,143.66667C169.79967,143.66667 170.67867,143.66667 171.48567,143.66667C172.35699,143.66667 173.29733,143.66667 174.136,143.66667C175.15266,143.66667 175.84734,143.66667 176.864,143.66667C177.8,143.66667 178.70267,143.66667 179.47067,143.66667C180.50534,143.66667 181.24933,143.66667 182.16667,143.66667C183.07866,143.66667 184.02083,143.66667 184.82133,143.66667C185.67467,143.66667 186.616,143.66667 187.66667,143.66667C188.32533,143.66667 189.33333,143.66667 190.12534,143.66667C191.15266,143.66667 191.84734,143.66667 192.864,143.66667C193.8045,143.66667 194.66667,143.66667 195.52083,143.66667C196.5,143.66667 197.28934,143.66667 198.01466,143.66667C199.08934,143.66667 200.02083,143.66667 200.8215,143.66667C201.71066,143.66667 202.69983,143.66667 203.47917,143.66667C204.4785,143.66667 205.29866,143.66667 206.2,143.66667C207.10001,143.66667 208,143.66667 208.91066,143.66667C209.82133,143.66667 210.5,143.66667 211.616,143.66667C212.384,143.66667 213.32533,143.66667 214.01601,143.66667C215.08934,143.66667 216,143.66667 216.89999,143.66667C217.8,143.66667 218.7,143.66667 219.60001,143.66667C220.5,143.66667 221.25717,143.66667 222.15717,143.66667C222.9045,143.66667 223.89999,143.66667 224.7,143.66667C225.69983,143.66667 226.664,143.66667 227.616,143.66667C228.384,143.66667 229.32533,143.66667 230.01601,143.66667C231.08934,143.66667 232.02083,143.66667 232.82133,143.66667C233.67467,143.66667 234.616,143.66667 235.66667,143.66667C236.32533,143.66667 237.33333,143.66667 238.12534,143.66667C239.15266,143.66667 239.84734,143.66667 240.864,143.66667C241.8,143.66667 242.7,143.66667 243.60001,143.66667C244.5,143.66667 245.3,143.66667 246.2,143.66667C247.10001,143.66667 248,143.66667 248.89999,143.66667C249.8,143.66667 250.7,143.66667 251.60001,143.66667C252.5,143.66667 253.3,143.66667 254.2,143.66667C255.10001,143.66667 256,143.66667 256.89999,143.66667C257.79999,143.66667 258.70001,143.66667 259.60001,143.66667C260.5,143.66667 261.29999,143.66667 262.20001,143.66667L263.10001,143.66667L264,143.66667" id="svg_19" stroke-width="3" stroke="#000" fill="none"/>
  <path t="106083,106122,106122,106130,106130,106139,106139,106139,106147,106147,106147,106147,106155,106155,106155,106162,106162,106170,106170,106178,106178,106186,106186,106194,106194,106202,106202,106202,106210,106210,106210,106218,106218,106226,106275,106275,106291,106307,106307,106315,106331,106331,106339,106339,106347,106355,106363,106371,106387,106395,106395,106403,106403,106419,106419,106428,106428,106435,106443,106451,106451,106459,106467,106483,106483,106492,106492,106499,106507,106507,106523,106530,106547,106547,106547,106563,106563,106563,106570,106571,106571,106579,106587,106595,106595,106610,106610,106619,106619,106626,106635,106635,106657,106657,106664,106664,106667,106667,106675,106675,106682,106682,106691,106691,106691,106698,106698,106707,106707,106707,106714,106714,106714,106723,106730,106730,106746,106746,106754,106754,106762,106770,106771,106778,106778,106787,106794,106794,106794,106803,106803,106810,106810,106819,106826,106826,106835,106842,106842,106850,106859,106859,106866,106866,106875,106875,106882,106882,106882,106891,106898,106898,106906,106906,106914,106930,106930,106939,106939,106954,106954,106954,106962,106971,106978,106978,106978,106994,106994,107010,107018,107050,107059,107066,107082,107082,107098,107114,107138,107170,107194,107194,107194,107203,107203,107250,107306,107307,107506,107530" d="M336.5,139.66667C338.336,140.64133 339.12332,140.68021 340.10001,141.02383C340.9227,141.31329 341.68997,141.78928 342.54166,142.16667C343.26239,142.48602 344.13898,142.78011 344.80984,142.96217C345.87967,143.2525 346.61322,143.4108 347.67816,143.54517C348.33179,143.62764 349.21774,143.63449 350.35718,143.66684C351.1152,143.68835 352.01053,143.90126 352.84732,144.37117C353.6441,144.81862 354.22232,145.42456 355.15717,145.6095C355.89212,145.7549 356.90402,145.62717 357.73599,145.70267C358.67194,145.7876 359.45004,146.02928 360.27466,146.24133C361.33014,146.51276 362.26346,146.64458 362.89551,146.66217C363.89697,146.69005 364.74973,146.78142 365.55066,147.24133C366.33054,147.68916 367.01733,147.666 368,147.66667C368.98401,147.66734 369.84732,147.66667 370.74734,147.66667C371.66666,147.66667 372.5,147.66667 373.47849,147.66667C374.29868,147.66667 375.20001,147.66667 376.10001,147.66667C377,147.66667 377.89999,147.66667 378.8045,147.66667C379.66666,147.66667 380.54797,147.80827 381.47867,147.44516C382.18179,147.17084 382.96439,146.42819 383.67465,146.10266C384.45932,145.74303 385.29868,145.66734 386.20001,145.66667C387.13599,145.66599 388.03415,145.89864 388.79016,145.6095C389.68744,145.26633 390.29407,144.60432 390.98401,144.09866C391.71213,143.56503 392.4512,142.7977 393.1955,142.67567C394.12363,142.5235 394.98401,142.66667 395.84732,142.66667C396.74283,142.66667 397.72363,142.7644 398.66666,142.5C399.37091,142.30254 399.95514,141.94591 400.92133,141.56667C401.72015,141.25313 402.55453,140.98476 403.57834,140.56683C404.25833,140.28926 404.98825,139.83202 405.97916,139.6875C406.90115,139.55302 407.83014,139.75812 408.67465,139.63066C409.63721,139.4854 410.2226,138.90358 411.15268,138.72383C412.00208,138.55968 412.87466,138.66667 413.82132,138.66667C414.67465,138.66667 415.61734,138.66667 416.46933,138.66667C417.26801,138.66667 418.24939,138.67844 419.16666,138.66667C419.97937,138.65625 420.97665,138.36453 421.67465,138.092C422.60815,137.72751 423.30984,137.66893 424.26935,137.66667C425.02084,137.6649 425.81897,137.72168 427.04285,137.65767C427.6915,137.62375 428.70276,137.22786 429.31067,136.81599C429.95996,136.3761 430.91168,135.85727 431.71466,135.73866C432.48438,135.62497 433.68567,135.66667 434.60016,135.66667C435.38535,135.66667 436.336,135.66841 437.10132,135.66667C438.09549,135.66441 438.88327,135.71207 439.74283,135.314C440.65546,134.89134 441.38535,134.66734 442.32535,134.66667C443.01599,134.66618 444.03049,134.68996 445.04266,134.44533C445.75885,134.27223 446.47714,133.93871 447.53067,133.752C448.37366,133.6026 449.32535,133.66667 450.01599,133.66667C451,133.66667 451.99301,133.74709 452.67465,133.63066C453.77286,133.44307 454.48938,132.76921 455.29999,132.668C456.13037,132.56432 456.97388,132.35228 457.71066,132.092C458.68634,131.74733 459.47995,131.71123 460.47882,131.6665C461.31097,131.62924 462.26801,131.38266 463,131.16667C463.73199,130.95067 464.83807,130.68468 465.66666,130.66667C466.49982,130.64857 467.47849,130.66667 468.29868,130.66667C469.13599,130.66667 470.15717,130.66768 470.90451,130.66667C471.89999,130.66533 472.75412,130.71661 473.69983,130.224C474.33566,129.89279 474.73138,129.15009 475.74283,128.78101C476.64963,128.45012 477.66666,128.66667 478.336,128.66667C479.10132,128.66667 480.28934,128.66667 481.01468,128.66667C481.97916,128.66667 482.89999,128.66667 483.79999,128.66667C484.70001,128.66667 485.60129,128.71448 486.5,128.66667C487.30341,128.62395 488.03717,127.91972 488.89999,127.70267C489.7735,127.48293 490.70132,127.66666 491.66666,127.66666C492.336,127.66666 493.10132,127.66666 494.09549,127.66666C495.01468,127.66666 496,127.66666 496.82132,127.66666L497.67465,127.66666L498.61465,127.66666L499.60001,127.66666" id="svg_20" stroke-width="3" stroke="#000" fill="none"/>
  <path t="108765,108803,108803,108867,108867,109003,109123" d="M260.5,144.66667C261.5,144.66667 262.25717,144.66667 263.15268,144.66667L264.01599,144.66667L264.97916,144.66667L265.89999,144.66667" id="svg_21" stroke-width="3" stroke="#000" fill="none"/>
  <path t="113293,114011,114187,114299,114403,114643,114715,114716,114859" d="M272.5,107.66666C271.92532,108.27734 271.51801,109.06612 271.5,109.96667C271.48199,110.86649 271.50034,111.7665 271.83334,112.5L272.64932,112.692L273.43866,113.092" id="svg_22" stroke-width="3" stroke="#000" fill="none"/>
  <path t="117859,118075,118131,118283,118307,118308,118411,118515,118523,118587,118603,118819,118819,118867,119259,119259,119299,119347,119435,119547,119571,119587,119587,119667,119707,119883" d="M295.5,109.66666C294.5,109.66666 294.15628,109.1216 293.41467,108.668C292.62173,108.183 291.96234,109.42784 291,109.64584C290.12201,109.84473 289.20001,109.66666 288.29999,109.66666C287.39999,109.66666 286.46692,109.50362 285.79999,109.72383C284.92874,110.01149 284.37033,111.00356 284.54666,111.80534C284.75006,112.73017 285.89999,112.66666 286.79999,112.66666C287.70001,112.66666 288.60001,112.66666 289.5,112.66666C290.29999,112.66666 291.20001,112.66666 292.10001,112.63067L292.89999,112.23067" id="svg_23" stroke-width="3" stroke="#000" fill="none"/>
  <path t="122996,123123,123131,123187,123187,123195,123331,123531,123563,123635,123699,123739,123739,123755,123771,123771,123779,123826,124011,124227,124227,124243,124243,124355,124443,124499" d="M309.5,107.66666C312.05334,107.63067 312.5285,106.8662 313.20984,106.37117C313.94589,105.8364 314.86349,105.68467 315.79999,105.66666C316.69986,105.64936 317.87915,105.27487 318.41467,105.952C318.92279,106.59447 318.45825,107.79638 317.7955,108.3095C317.09909,108.84869 316.34445,109.26792 315.89999,109.816C315.26007,110.60509 314.29999,110.66666 313.39999,110.66666C312.5,110.66666 311.74176,110.7062 310.84732,110.66217C309.98129,110.61954 309.04166,110.14584 308.58533,109.46667L308.50015,108.56683" id="svg_24" stroke-width="3" stroke="#000" fill="none"/>
  <path t="125996,126018,126035,126114,126131,126131,126210,126227,126235,126259,126307,126315,126322,126386,126387,126395" d="M282.5,106.66666C284.29999,106.66666 284.88715,106.35217 285.66666,105.83334C286.37411,105.36245 287.29999,105.66666 288.20001,105.66666C289.10001,105.66666 290,105.66666 290.89999,105.66666C291.79999,105.66666 292.70001,105.66666 293.60001,105.66666L294.5,105.66666L295.29999,105.66666L296.20001,105.66666" id="svg_25" stroke-width="3" stroke="#000" fill="none"/>
  <path t="127171,127258,127275,127283,127283,127298,127322,127475,127475,127483,127483,127499,127530,127539,127539,127547,127626" d="M304.5,104.66666C306.29999,104.66666 307.15146,104.67851 307.98401,104.38267C308.69006,104.13177 309.85205,103.87278 310.45184,103.3095C311.10083,102.70004 311.47858,102.06519 312.47849,101.78817C313.27734,101.56684 314.20001,101.66666 315.13599,101.66666C315.98401,101.66666 316.84732,101.66666 317.74283,101.66666L318.70001,101.66666" id="svg_26" stroke-width="3" stroke="#000" fill="none"/>
  <path t="128395,128907,128947,129091,129107,129195,129219,129227,129243,129259,129275,129459,129467,129476,129476" d="M297.5,119.66666C297.55716,121.36667 298.03763,122.11914 298.7955,122.614C299.49091,123.06806 300.1106,123.66133 301,123.66666C301.89996,123.67206 302.79999,123.66675 303.70001,123.66666C304.59982,123.66658 305.37866,123.44534 305.85718,122.71933L306.69867,122.38133L307.21466,121.86533" id="svg_27" stroke-width="3" stroke="#000" fill="none"/>
  <path t="131132,131579,131651,131651,131780,131859,131867,131939,131955,131964,131971,132067,132067,132123,132131,132259,132355,132355,132355,132363,132475,132475,132515" d="M294.5,128.66667C296.25717,128.72383 297.21799,128.91795 297.79016,129.37117C298.60284,130.01488 299.1106,130.66133 300,130.66667C300.89996,130.67207 301.79999,130.66667 302.70001,130.66667C303.60001,130.66667 304.53644,130.83481 305.29999,130.58133C306.07214,130.32498 306.80429,129.77097 307.70132,129.66533C308.67398,129.5508 309.35016,129.27415 310.01599,128.86534C310.9006,128.3222 311.60001,127.56683 312.20001,127.02383L312.97916,126.66666" id="svg_28" stroke-width="3" stroke="#000" fill="none"/>
  <path t="141833,141986,142019,142019,142075,142075,142107,142131,142202,142203,142226,142290,142315,142323,142330,142347,142355,142363,142403,142403,142426,142435,142539,142547,142563,142586,142587,142603,142626,142643,142651,142667,142675,142803,142803,142810,142811,142851,142851,142898,142914,142914,142922,142922,142930,142930,142970,143002,143211" d="M273.5,88.66666C273.66666,86.83334 274.53268,86.54107 275.10001,86.056C275.84671,85.41756 276.22348,84.77767 277,84.1875C277.73798,83.62663 278.53125,83.32977 279.29999,82.95067C280.14523,82.53384 281.10004,82.67206 282,82.66666C282.8894,82.66133 283.44119,82.08932 284.11066,81.64133C284.8461,81.14921 285.74609,80.86667 286.5,80.5C287.26361,80.1286 287.99982,79.67709 288.89999,79.66666C289.79993,79.65625 290.70001,79.66666 291.60001,79.66666C292.5,79.66666 293.29999,79.66666 294.20001,79.66666C295.10001,79.66666 296,79.66666 296.89999,79.66666C297.79999,79.66666 298.70132,79.66666 299.66666,79.66666C300.5,79.66666 301.47867,79.66666 302.25266,79.66666C303.15268,79.66666 304.02167,79.57822 304.87466,79.67733C305.83817,79.78928 306.49683,80.24802 307.5,80.5C308.27597,80.69491 309.33334,80.66666 310.08932,80.66666L311,80.66666L311.89999,80.66666L312.79999,80.67117" id="svg_29" stroke-width="3" stroke="#000" fill="none"/>
  <path t="147213,147347,147347,147379,147403,147419,147443,147459,147467,147475,147571,147603" d="M297.5,121.66666C297.5,122.66666 297.5,123.46667 297.5,124.36667C297.5,125.26667 297.5,126.16666 297.5,127.06667C297.5,127.96667 297.5,128.86667 297.50015,129.76649L297.784,130.58267L298.44284,131.02383" id="svg_30" stroke-width="20" stroke="#fff" fill="none"/>
  <path t="149203,149258,149291,149355,149355,149355,149410,149442,149442,149458,149491,149523,149531,149539,149539,149579,149627,149627,149723" d="M295.5,121.66666C296.2045,122.314 297.07208,122.60207 297.82132,123.1095C298.55942,123.60939 299.05972,124.14294 299.73834,124.9095C300.37665,125.63052 300.30338,126.50121 300.55716,127.36667C300.81445,128.24411 301.3645,128.9752 301.50134,129.86667C301.64194,130.78244 302.14734,131.36667 302.5,132.1875L302.784,133.15067L303.07468,133.84134L303.41467,134.78133" id="svg_31" stroke-width="20" stroke="#fff" fill="none"/>
  <path t="154283,154530,154556,154578,154658,154722,154793,154810,154810,154833,154833,154890,154890,154977,155073,155073,155457,155489,155737,155745,155745,155761,155762,155785" d="M298.5,108.66666C298.5,109.6875 298.18384,110.70039 298.50134,111.58266C298.76678,112.32024 299.48199,113.06606 299.5,113.868C299.52167,114.83309 299.5,115.66666 299.5,116.64533C299.5,117.41933 299.5,118.31934 299.5,119.18267C299.5,120.04134 299.5,120.988 299.5,121.84133C299.5,122.78133 299.11057,124.01406 299.7215,124.54517C300.39105,125.12724 301.31433,124.66666 302.26666,124.66534L303.21335,124.63067L304.13568,124.44534" id="svg_32" stroke-width="3" stroke="#000" fill="none"/>
  <path t="157074,157545,157545,157721,157801,157905,157905,157921,157921,157945,158025,158025,158137,158137,158161,158257,158257,158337,158353" d="M295.5,129.66667C297.32535,130.092 297.99109,130.502 298.97916,130.64583C299.90118,130.78004 300.82132,130.66667 301.67465,130.66667C302.616,130.66667 303.384,130.66667 304.32535,130.66667C305.33334,130.66667 306.12534,130.66667 306.98401,130.66667C307.84732,130.66667 308.86401,130.65601 309.69867,130.38133L310.21466,129.86534L310.49551,128.96666L310.55716,128.02383" id="svg_33" stroke-width="3" stroke="#000" fill="none"/>
  <path t="163298,163401,163417,163449,163449,163457,163473,163521,163537,163572,163573,163609,163625,163673,163673,163690,163690,163722,163762,163762,163770,163778,163810,163842,163842,163850,163931,163946,163962,163994,164018,164034,164170,164170,164194,164266,164266,164274,164330,164354,164354,164378,164426,164434,164442,164442,164458,164537,164561,164561,164642,164642,164706,164810,164834,164834" d="M283.5,131.66667C284.41467,131.952 284.5,132.76666 284.5,133.66667C284.5,134.46666 284.48959,135.36673 284.5,136.26666C284.51044,137.16685 284.92679,138.07545 285.5,138.66667C286.13281,139.31935 286.54568,140.06487 287,140.6875C287.48642,141.35416 287.46109,142.10182 287.78534,143.064C288.04077,143.82193 288.88834,144.39781 289.69867,144.952C290.30103,145.36394 290.60001,146.35179 291.30133,146.75067C292.01758,147.15804 292.60794,147.99753 293.29999,148.38133C294.12448,148.83861 295.10001,148.66667 296,148.66667C296.89999,148.66667 297.79999,148.66667 298.70001,148.66667C299.60001,148.66667 300.5,148.66667 301.29999,148.66667C302.13599,148.66667 303.21753,148.91345 303.93066,148.58133C304.75296,148.19836 305.13589,147.26482 305.94266,146.78799C306.56396,146.42078 307.31146,146.21347 307.51068,145.26666C307.68475,144.43938 308.36935,143.67404 308.49551,142.96666C308.66238,142.03114 309.53305,142.04366 310.25717,141.44501C310.82782,140.97325 310.82025,139.76657 311.30133,139.23601C312.00244,138.46278 312.66666,137.83333 313.5,137.5L314.064,137.056" id="svg_34" stroke-width="3" stroke="#000" fill="none"/>
  <path t="173242,173329,173329,173338,173354,173394,173434,173434,173442,173490,173530,173530,173554,173578,173586,173586,173650,173682,173714,173754,173770,173770,173850,173978,173978" d="M274.5,85.66666C274.5,86.66666 274.5,87.46667 274.5,88.36667C274.5,89.26667 274.5,90.1875 274.5,91.15067C274.5,91.84133 274.5,92.9095 274.5,93.76667C274.5,94.66666 274.5,95.46667 274.5,96.36667C274.5,97.30267 274.73199,98.20081 274.44284,98.95683C274.09967,99.85412 273.44638,100.37063 273,101.16666C272.5517,101.96613 272.21466,102.86533 271.69867,103.38133L270.89999,103.728L270.2045,104.3765L269.85718,105.0185" id="svg_35" stroke-width="3" stroke="#000" fill="none"/>
  <path t="174539,174561,174570,174626,174634,174658,174745,174746,174834,174834,174881,174890,174890,174906,174930,175010,175010,175041,175090,175090,175113,175114,175186,175186,175202,175210,175218,175369,175473,175474,175505" d="M269.5,84.66666C269.5,86.46667 269.65707,87.38643 269.47916,88.16666C269.25977,89.12868 268.56088,89.76055 268.5,90.66666C268.44925,91.42213 268.5,92.31934 268.5,93.18267C268.5,94.16666 268.71631,95.195 268.44284,95.95683C268.14203,96.79483 267.50534,97.31328 267.5,98.15067C267.49451,99.01398 267.5,100.04134 267.5,100.988C267.5,101.66666 267.5,102.64533 267.5,103.55067C267.5,104.492 267.5,105.18267 267.5,106.256C267.5,107.16666 267.5,108.06667 267.5,108.868L267.5,109.83334L267.52084,110.64584L267.78534,111.49734" id="svg_36" stroke-width="3" stroke="#000" fill="none"/>
  <path t="176051,176082,176089,176089,176098,176114,176114,176121,176129,176145,176153,176153,176185,176185,176193,176200,176225,176234,176241,176249,176289,176305,176321,176345,176345,176353" d="M272.5,84.66666C272.5,86.492 272.5,87.5 272.5,88.36217C272.5,89.1875 272.5,90.15067 272.5,91.014C272.5,91.9095 272.5,92.86667 272.5,93.76667C272.5,94.66666 272.5,95.42384 272.5,96.31934C272.5,97.18267 272.5,98.14584 272.5,99.06667C272.5,99.96667 272.5,100.86667 272.5,101.76667C272.5,102.66666 272.91769,103.22105 273.37851,103.88817C273.88257,104.61787 273.5,105.66666 273.5,106.46667L273.5,107.36667" id="svg_37" stroke-width="3" stroke="#000" fill="none"/>
  <path t="177090,177305,177321,177329,177337,177353,177353,177361,177361,177385,177385,177385,177393,177409,177433,177449,177449,177488,177489,177537,177537,177553,177553,177569,177577,177601,177633,177649,177649,177657,177705,177713,177713,177737,177801,177809,177873,177890,177890,177897,177906,177937,178017,178018,178033,178033,178089,178097,178185,178265,178313,178321,178369,178378,178378" d="M276.5,86.66666C276.58533,85.86533 277.04358,84.92538 277.89999,84.70267C278.77609,84.47485 279.66666,84.66666 280.5,84.66666C281.47882,84.66666 282.30984,84.66666 283.26801,84.66666C284,84.66666 284.73199,84.66666 285.828,84.66666C286.79999,84.66666 287.81076,84.85705 288.5,84.33334C289.17361,83.8215 289.63449,82.89643 290.32535,82.73867C291.31055,82.51369 292.12534,82.66666 293.15268,82.66666C293.84732,82.66666 294.86401,82.66666 295.79999,82.66666C296.70001,82.66666 297.60001,82.66666 298.5,82.66666C299.29999,82.66666 299.95148,82.33566 300.66666,81.83334C301.36209,81.34487 302.29999,81.66666 303.20001,81.66666C304.10001,81.66666 305,81.66658 305.91068,81.66666C306.82117,81.66675 307.69232,81.60772 308.43866,82.092C309.17462,82.56954 310.04971,82.58723 310.8045,83.02383C311.43744,83.38995 312.23306,83.85375 312.93066,84.46667C313.59644,85.05161 314.33472,85.30403 315.16666,85.83334C315.92816,86.31783 316.41467,86.952 316.50134,87.86533L316.78534,88.584L317.60001,89.10934L318,89.66666" id="svg_38" stroke-width="3" stroke="#000" fill="none"/>
  <path t="183714,184146,184162,184218,184241,184266,184266,184282,184306" d="M291.5,127.66666C292.5,127.6875 293.09802,128.26733 293.89999,128.64133C294.78253,129.05289 295.33334,129.66667 295.58401,130.46666L296.11066,131.23067L296.88934,131.64133" id="svg_39" stroke-width="3" stroke="#000" fill="none"/>
  <path t="186538,186561,186577,186577,186577,186601,186601,186625,186625,186625,186689,186801,186817,186929,186954,187081,187153,187169,187481,187506,187506,187545,187633,187649,187649,187721,187745,187777,187777,187817,187913,187914,188129,188145,188145,188153,188153,188169,188169,188177,188177,188217,188225,188233,188242,188249,188257,188617,188618,188641" d="M290.5,137.66667C291.14667,138.31334 291.81131,138.99864 292.336,139.492C293.08704,140.19818 293.88834,140.80124 294.5,141.14583C295.48233,141.69925 296.11618,141.93022 296.84283,142.36667C297.76691,142.92168 297.97665,143.92604 298.66666,144.5C299.32001,145.04349 300.30133,144.66667 301.20001,144.66667C302.10001,144.66667 303.09253,144.29242 303.88934,144.688C304.67807,145.07957 304.54102,146.06152 304.07468,147.03067C303.69986,147.80959 303.46927,148.81094 302.7955,149.30949C302.10123,149.82323 301.08932,149.66667 300.17868,149.66667C299.32535,149.66667 298.3327,149.49017 297.5,149.83333C296.82913,150.10979 296.06876,150.713 296.5,150.5C297.19543,150.15652 297.96188,149.41721 298.71066,149.10266C299.47958,148.77963 300.48047,148.71835 301.33334,148.66667C302.21585,148.61319 302.41248,147.71223 303.11066,147.10266C303.77725,146.52068 304.79999,146.66676 305.70001,146.66667C306.60001,146.66658 307.5,146.5 308.10001,146.092L309,145.6875" id="svg_40" stroke-width="20" stroke="#fff" fill="none"/>
  <path t="190050,190139,190177,190177,190185,190185,190193,190193,190201,190217,190217,190225,190225,190233,190241,190305,190305" d="M286.5,133.66667C287.216,134.38266 287.77069,135.08911 288.07468,135.888C288.43906,136.8456 288.48956,137.64566 288.5,138.64517C288.50748,139.36212 288.50269,140.34721 289.06799,141.15067C289.45526,141.70105 290.30112,142.45766 290.47867,143.256C290.67661,144.1459 290.85718,144.96666 291.5,145.66667L292.10001,146.26666" id="svg_41" stroke-width="20" stroke="#fff" fill="none"/>
  <path t="190873,190929,190929,190937,190937,190945,190945,190954,190961,190961,190961,190970,190970,190993" d="M285.5,133.66667C285.85718,137.205 286.05566,137.85591 286.70001,138.78267C287.16214,139.44733 287.74426,140.1284 288.064,140.84134C288.47504,141.75792 288.47281,142.83432 288.51068,143.50267C288.55417,144.2704 288.85718,145.26216 289.2045,146.00951L289.7955,146.9095" id="svg_42" stroke-width="20" stroke="#fff" fill="none"/>
  <path t="193178,193369,193385,193395,193410,193417,193445,193489,193497,193497,193514,193618,193618,193642,193817,193841,193841,193905" d="M278.5,129.66667C278.91467,129.73866 278.80429,130.64519 278.27866,131.42383C277.79086,132.14642 277.14255,132.60518 276.2045,132.66667C275.38992,132.72008 274.61813,133.06801 273.98267,133.468C273.1051,134.0204 272.29166,134.68398 271.85718,135.36667C271.39124,136.0988 271.5,137.07733 271.50015,137.98784L271.53601,138.80533L271.92532,139.616" id="svg_43" stroke-width="3" stroke="#000" fill="none"/>
  <path t="194721,194905,194921,194921,194953,194953,194985,194985,194985,195001,195033,195033,195097,195113,195209,195209,195217,195249,195249,195313,195321,195337,195425,195433,195441,195457,195457,195561,195569,195745,195761,195785,195785,195817,195825,195857,195865,195872,195896,195897" d="M285.5,135.66667C287,137.16667 287.6701,137.9037 288.25717,138.36667C288.95132,138.91409 289.73691,139.26559 290.5,139.83333C291.31937,140.44292 291.78186,141.05653 292.61465,141.49733C293.4516,141.94034 294.15479,142.45682 295,142.64583C295.87927,142.84245 296.65637,143.26724 297.10001,143.81599C297.74078,144.60861 298.53665,144.99278 299.29999,145.38266C300.05289,145.76721 301,145.66667 301.89999,145.66667C302.79999,145.66667 303.70001,145.66667 304.60001,145.66667C305.5,145.66667 306.33441,145.86263 307.20001,145.6095C308.07764,145.35286 308.80853,144.80229 309.70001,144.66533C310.61563,144.52466 311.2962,144.00725 311.48932,143.06667C311.66626,142.20491 312.07468,141.60533 312.47467,140.81599L312.7215,139.9095L313.5,139.5L314.10001,139.02" id="svg_44" stroke-width="3" stroke="#000" fill="none"/>
  <path t="197154,197248,197257,197257,197264,197265,197274,197274,197281,197281,197289" d="M284.5,133.66667C285.37851,132.88817 285.40472,133.78316 285.58533,134.552C285.81705,135.53844 286.19498,136.07597 286.70001,137.06534C287.09262,137.83447 287.59982,138.64517 288.064,139.256L288.5,140.14583" id="svg_45" stroke-width="3" stroke="#000" fill="none"/>
  <path t="198874,199177,199193,199226,199226,199242,199249,199266,199266,199346,199393" d="M316.5,132.66667C316.46399,135.256 316.05579,136.05898 315.40018,136.76666C314.85022,137.36031 314.55453,138.28185 313.79468,138.614C312.8912,139.00894 312.41733,139.468 312,140.16667L311.52533,141.06667" id="svg_46" stroke-width="3" stroke="#000" fill="none"/>
 </g>
</svg>