<svg width="500" height="333.3333333333333" xmlns="http://www.w3.org/2000/svg" xmlns:svg="http://www.w3.org/2000/svg" xmlns:xlink="http://www.w3.org/1999/xlink">
 <!-- Created with SVG-edit - http://svg-edit.googlecode.com/ -->
 <g display="inline" class="layer">
  <title>Layer 1</title>
  <path t="0,125,132,140,156,164,188,204,220,380,396,404,404,412,428,436,452,476,596,612,628,636,644,660,669,684,701,721,722,732,773,799,799,829,829,893,933,941,949,973,989,997,1101,1109,1165,1213,1237,1261,1285,1301,1429,1437,1445,1461,1477,1501,1549,1557,1573,1581,1597,1605,1613,1653,1669,1717,1717,1741,1749,1757,1766,1774,1781,1789,1805,1805,1813,1821,1829,1837,1845,1853,1853,1869,1885,1893,1893,1909,1917,1917,1973,2005,2021,2029,2045,2053,2069,2101,2117,2126,2157,2165,2181,2189,2197,2197,2213,2213,2221,2229,2237,2261,2277,2309,2333,2333,2349,2349,2365,2365,2374,2382,2397,2405,2429,2445,2461,2669,2685,2693,2709,2709,2725,2741,2757,2773,2773,2781,2797,2805,2805,2829,2853,2861,2877,2885,2901,2909,2933,2933,2957,3045,3157,3173,3189,3197,3205,3213,3213,3269,3269,3293,3309,3325,3373,3437,3485,3485,3563,3597,3605,3614,3669,3725,3741,3805,3933,3949,3973,3989,4005,4005,4013,4045,4174,4229" d="M349.5,208.66667C347.79999,208.66667 346.89999,208.66667 346,208.66667C345.10001,208.66667 344.09442,208.6756 343.5,208.16667C342.90854,207.66029 342.13028,207.23756 341.62149,206.44516C341.14233,205.69888 341.5,204.66667 341.5,203.86667C341.5,202.96666 341.5,202.06667 341.5,201.16667C341.5,200.26666 341.50009,199.36667 341.5,198.46666C341.49991,197.56683 341.18884,196.90308 340.55267,196.314C339.97708,195.78102 339.55981,195.11589 339.14734,194.36667C338.68561,193.52802 338.84283,192.42355 338.16666,191.83333C337.64896,191.38144 336.55728,191.31528 336.5,190.46533C336.43509,189.50218 336.61075,188.63257 336.33334,187.83333C336.05167,187.02174 335.51868,186.26718 335.5,185.36667C335.48135,184.4682 334.87231,183.91905 334.52084,183.14583C334.15695,182.34523 334.75357,181.09964 334.064,180.70267C333.31827,180.27338 332.6261,179.94109 331.88934,179.67734C331.05197,179.37758 330.00412,179.84978 329.30133,179.38133C328.50601,178.85121 328.33334,177.83333 327.5,177.66667C326.66666,177.5 326.82181,176.52878 326.33334,175.83333C325.83102,175.11813 325.68588,174.36195 325.216,173.75067C324.69299,173.0703 323.78796,172.78775 323.51068,172.056C323.17245,171.16345 322.71927,170.6631 322.50134,169.86534C322.25955,168.98033 321.71033,168.32086 321.5,167.66667C321.20691,166.75514 320.60056,166.14992 319.88934,165.64133C319.17328,165.12924 318.75302,164.35202 318.216,163.75067C317.68536,163.15648 317.31094,162.32564 316.61334,161.952C315.76379,161.49698 314.96588,161.20645 314.2785,160.78816C313.52103,160.32721 312.73874,160.30504 312.2785,159.56683C311.83139,158.84967 310.83362,158.75069 310.10001,158.23067C309.31287,157.67271 308.94275,157.02083 308.20001,156.37117C307.53555,155.78998 306.7229,155.54321 305.89999,155.092C305.11987,154.66425 304.15155,154.73753 303.52533,154.24133C302.86026,153.71436 302.50571,152.84857 301.69867,152.668C300.82169,152.47177 300.09921,152.46645 299.41599,151.95067C298.80066,151.48613 297.80051,151.60855 297,151.16667C296.19601,150.72289 295.32825,150.7403 294.5,150.64583C293.50763,150.53265 292.71304,150.17596 292.02084,149.66667C291.32422,149.15413 290.67471,148.82834 289.89999,148.63066C289.03793,148.41071 288.22003,147.9256 287.39999,147.44501C286.70355,147.03685 286.31082,146.17627 285.89999,145.492C285.41272,144.68039 284.84476,143.92278 284.20001,143.37117C283.44785,142.72766 282.73642,142.3555 282.14734,141.71933C281.61435,141.14374 281.0206,140.55478 280.44733,140.01933C279.76208,139.37932 279.21799,138.7094 278.39999,138.66667C277.50122,138.61974 276.70001,138.66667 275.79999,138.66667C274.89999,138.66667 273.97916,138.66667 273.01599,138.66667C272.32535,138.66667 271.25717,138.66667 270.39999,138.66667C269.5,138.66667 268.70001,138.66667 267.79999,138.66667C266.89999,138.66667 266,138.66667 265.10001,138.66667C264.20001,138.66667 263.29999,138.66667 262.39999,138.66667C261.5,138.66667 260.70001,138.66667 259.79999,138.66667C258.89999,138.66667 258,138.66667 257.10001,138.66667C256.20001,138.66667 255.3,138.66667 254.39999,138.66667C253.5,138.66667 252.74283,138.66667 251.84734,138.66667C250.98399,138.66667 250.02083,138.66667 249.10001,138.66667C248.2,138.66667 247.3,138.66667 246.39999,138.66667C245.5,138.66667 244.7,138.66667 243.8,138.66667C242.89999,138.66667 241.98428,138.50957 241.10001,138.67734C240.15408,138.8568 239.35028,139.25175 238.66667,139.83333C238.00066,140.39993 237.78253,141.06668 237.4955,141.96217C237.25163,142.72302 236.54482,143.22247 236.27867,143.98801C235.97539,144.86038 235.62134,145.645 235.27867,146.54533L234.55267,147.01933L234.07466,147.64133" id="svg_1" stroke-width="3" stroke="#000" fill="none"/>
  <path t="6422,6893,6909,6925,6933,6933,6941,6965,6965,6973,6989,7013,7029,7061,7245,7253,7269,7269,7277,7285,7292,7293,7301,7309,7317,7317,7325,7332,7333,7349,7397,7413,7421,7429,7429,7437,7437,7444,7461,7477,7509,7525,7541,7549,7549,7565,7573,7581,7581,7581,7597,7661,7733,7813,7837,7989,8037,8045,8069,8092,8109,8125,8125,8141,8349,8405,8517,8533,8621,8621,8701,8717,8740,8764,8813,8829,8836,8853,8853,8877,9013,9101,9133,9229,9261,9261,9317,9317,9349,9372,9389,9389,9413,9420,9436,9452,9509,9533,9581,9588,9789,9797,9836,9941,9965,9988" d="M233.5,147.66667C231.8,147.66667 230.89061,147.55472 229.97917,147.6875C228.99113,147.83145 228.36049,148.36165 227.38533,148.58133C226.51764,148.77679 225.7,148.66667 224.8,148.66667C223.89999,148.66667 223,148.66667 222.10001,148.66667C221.2,148.66667 220.3,148.66667 219.39999,148.66667C218.5,148.66667 217.7,148.66667 216.8,148.66667C215.864,148.66667 215.01601,148.66667 214.15266,148.66667C213.25717,148.66667 212.3,148.66667 211.39983,148.66667C210.61467,148.66667 209.67467,148.66667 208.66667,148.66667C207.91066,148.66667 207,148.66667 206.10001,148.66667C205.2,148.66667 204.29866,148.66667 203.33333,148.66667C202.67467,148.66667 201.66667,148.66667 200.8045,148.66667C199.89999,148.66667 199,148.66667 198.10001,148.66667C197.2,148.66667 196.3,148.66667 195.39999,148.66667C194.5,148.66667 193.7,148.66667 192.8,148.66667C191.95833,148.66667 190.95734,148.66667 190.24933,148.66667C189.26801,148.66667 188.31433,148.66667 187.39999,148.66667C186.5,148.66667 185.95508,149.11699 185.21466,149.58133C184.43642,150.0694 183.27509,149.4104 182.62134,149.888C181.92227,150.39871 181.3,150.66667 180.39999,150.66667C179.5,150.66667 178.7,150.66667 177.8,150.66667C176.89999,150.66667 176.09373,150.76303 175.44733,151.314C174.84293,151.82916 174.5,152.66667 174.5,153.46666C174.5,154.36667 174.5,155.26666 174.5,156.16667C174.5,157.06667 174.5,157.96666 174.5,158.86667C174.5,159.76666 174.5,160.66667 174.5,161.46666C174.5,162.36667 174.5,163.26666 174.5,164.16667C174.5,165.06667 174.5,165.97116 174.5,166.83333C174.5,167.66667 174.47227,168.64565 174.5,169.46533C174.52859,170.31094 175.41626,170.82095 175.5,171.66667C175.57883,172.46277 175.02956,173.52603 175.55716,174.30949C176.01791,174.99368 177.29689,174.30351 178.064,174.70267C178.82338,175.09781 179.48093,175.20125 180.21466,175.752C180.8307,176.2144 180.58533,177.38133 181.30133,177.75067L182.064,178.27733L182.5,179.14583L183.11067,179.65601" id="svg_2" stroke-width="3" stroke="#000" fill="none"/>
  <path t="10805,11036,11053,11060,11069,11077,11085,11085,11092,11092,11109,11109,11116,11125,11140,11149,11213,11253,11253,11285,11316,11332,11340,11348,11357,11372,11380,11380,11389,11396,11396,11404,11413,11429,11429,11436,11444,11444,11492,11525,11540,11548,11556,11573,11588,11685,11685,11757,11773,11804,11804,11820,11844,11893,11933,11933,12109,12181,12229,12317,12364,12388,12421,12468,12517,12629,12629,12757,12805,12845,12845,12893,12916,12965,13085,13085,13116,13156,13172,13196,13236,13252,13252,13276,13300,13348,13349,13380,13412,13428,13460,13460,13492,13725,13732,13740,13748,13756,13756,13764,13764,13772,13782,13788,13804,13804,13812,13820,13820,13828,13844,13860,13868,13868,13884,13900,13908,13916,13924,13932,13940,13948,13949,13957,13964,13972,13996,14020,14028,14028,14036,14044,14044,14063,14084,14100,14124,14484,14492,14508,14540,14684,14732,14748,14820,14981,14981,14988,15036,15100,15108,15156,15252,15260,15260,15268,15268,15276,15292,15292,15300,15308,15316,15316,15332,15348,15356,15372,15492,15556,15556,15572,15572,15596,15636,15668,15676,15684,15701,15764,15876,15876,15884,15892,15924,15964,16276,16292,16364,16492,16493" d="M184.5,179.66667C186.3,179.66667 187.2,179.66667 188.10001,179.66667C188.89999,179.66667 189.8,179.66667 190.70267,179.66667C191.47067,179.66667 192.50534,179.66667 193.24933,179.66667C194.35699,179.66667 195.19099,179.66667 196.10001,179.66667C197,179.66667 197.89999,179.66667 198.8,179.66667C199.7,179.66667 200.60001,179.66667 201.3,179.66667C202.3,179.66667 203.2,179.66667 204.10001,179.66667C204.89999,179.66667 205.8,179.66667 206.7,179.66667C207.60001,179.66667 208.5,179.66667 209.3,179.66667C210.25717,179.66667 211.15266,179.66667 212.01601,179.66667C212.97917,179.66667 213.8045,179.66667 214.82133,179.66667C215.5,179.66667 216.4785,179.66667 217.5,179.66667C218.3,179.66667 219.2,179.66667 220.10001,179.66667C221,179.66667 221.89999,179.66667 222.8,179.66667C223.7,179.66667 224.60001,179.66667 225.5,179.66667C226.3,179.66667 227.2,179.66667 228.02083,179.66667C228.98399,179.66667 229.67467,179.66667 230.74283,179.66667C231.7,179.66667 232.60001,179.66667 233.5,179.66667C234.3,179.66667 235.2,179.66667 236.10001,179.66667C237,179.66667 238.1465,179.48215 238.47917,180.1875C238.85431,180.98289 238.5,181.96666 238.5,182.86667C238.5,183.76666 238.5,184.66667 238.5,185.46666C238.5,186.36667 238.5,187.1875 238.5,188.15067C238.5,189.01401 238.5,189.9095 238.5,190.86667C238.5,191.76666 238.53719,192.66754 238.5,193.46666C238.45729,194.38431 237.95508,195.11699 237.21466,195.58133C236.43642,196.0694 235.39999,195.66667 234.5,195.66667C233.7,195.66667 232.8,195.66667 231.97917,195.66667C231.01601,195.66667 230.15266,195.66667 229.25717,195.66667C228.3,195.66667 227.39999,195.66667 226.5,195.66667C225.7,195.66667 224.8,195.66667 223.89999,195.66667C223,195.66667 222.10001,195.66667 221.29866,195.66667C220.33333,195.66667 219.49922,195.62796 218.5215,195.66684C217.80281,195.69542 217.07762,196.35286 216.2,196.6095C215.33444,196.86261 214.39983,196.66667 213.61467,196.66667C212.67467,196.66667 211.66667,196.66667 210.91066,196.66667C210,196.66667 209.08949,196.53395 208.2,196.67117C207.26862,196.81485 206.73138,197.51849 205.8,197.66217C204.91051,197.79939 204,197.66667 203.10001,197.66667C202.2,197.66667 201.3,197.66667 200.39999,197.66667C199.5,197.66667 198.66556,197.47072 197.8,197.72383C196.92236,197.98047 196.20135,198.63808 195.3,198.66667C194.40045,198.69522 193.5,198.66667 192.7,198.66667C191.864,198.66667 190.84734,198.66667 190.15266,198.66667C189.136,198.66667 188.2,198.66667 187.3,198.66667C186.39999,198.66667 185.35104,198.3295 184.66667,198.83333C184.01369,199.31406 183.54002,200.00874 183,200.66667C182.53561,201.23244 182.98874,201.95366 183.7215,202.54533C184.36731,203.06682 185.29083,203.15906 185.97917,203.66667C186.67522,204.17996 187.3958,204.33206 188.14284,204.72383C188.88972,205.11551 189.52066,205.65625 190.47867,205.66667C191.25262,205.67509 192.15266,205.66667 193.01601,205.66667C194,205.66667 194.82133,205.66667 195.67467,205.66667C196.61467,205.66667 197.60001,205.66667 198.5,205.66667C199.3,205.66667 200.2,205.66667 201.10001,205.66667C202,205.66667 202.89999,205.66667 203.8045,205.66667C204.66667,205.66667 205.5,205.66667 206.4785,205.66667C207.29866,205.66667 208.2,205.66667 209.10001,205.66667C210,205.66667 210.89999,205.66667 211.8,205.66667C212.7,205.66667 213.60001,205.66667 214.5,205.66667C215.3,205.66667 216.2,205.66667 217.10001,205.66667C218,205.66667 218.89999,205.66667 219.8,205.66667C220.7,205.66667 221.60001,205.66667 222.5,205.66667L223.3,205.66667" id="svg_3" stroke-width="3" stroke="#000" fill="none"/>
  <path t="20639,20893,20901,20901,20909,20958,20958,20965,20965,20965,20989,21005,21013,21021,21029,21053,21093,21101,21102,21109,21117,21125,21133,21141,21149,21149,21181,21181,21197,21213,21221,21229,21229,21237,21253,21277,21309,21333,21397,21397,21413,21421,21428,21437,21445,21453,21461,21477,21493,21493,21509,21517,21517,21541,21589,21598,21621,21637,21644,21645,21653,21661,21677,21685,21701,21733,21733,21749,21781,21789,21813,21837,21845,21853,21877,21925,21941,21949,21957,21981,22021,22213,22245,22261,22309,22333,22333,22341,22373,22405,22429,22461,22493" d="M221.5,204.66667C221.936,206.48134 222.49908,207.33501 223.2,207.71483C223.89909,208.09367 224.72319,208.52843 225.47067,208.836C226.29506,209.1752 226.98148,209.69971 227.73199,210.09866C228.66452,210.59438 229.60439,210.57799 230.5,210.66667C231.34569,210.75041 231.78236,211.62395 232.7,211.66667C233.59903,211.70853 234.5,211.66667 235.3,211.66667C236.2,211.66667 237.10001,211.66667 238,211.66667C238.89999,211.66667 239.82356,211.59084 240.66667,211.83333C241.34674,212.02893 242.32187,212.5731 243.08934,212.65601C243.9948,212.75381 244.91051,212.53395 245.8,212.67117C246.73138,212.81485 247.26862,213.51849 248.2,213.66217C249.08949,213.79939 250,213.66443 250.89999,213.66667C251.80002,213.66893 252.53127,214.00356 253.3,214.38266C254.14522,214.79947 254.93806,214.82945 255.55267,215.314C256.20212,215.82599 257.177,215.77272 257.58401,216.468C258.06732,217.29361 258.59763,218.02199 259.5,218.5C260.14822,218.84338 260.97791,219.27547 261.82117,219.54533C262.61221,219.79848 263.4884,220.04329 264.07468,220.692C264.60065,221.27399 265.3511,221.67967 266,222.1875C266.76736,222.78804 267.45407,223.12752 268.14282,223.71933C268.80194,224.28566 268.91208,225.21951 269.47467,226.056C269.93311,226.73763 270.46121,227.37544 270.49866,228.18401C270.54221,229.12425 271.18921,229.3252 271.97916,229.6875C272.70984,230.02263 272.93448,231.06111 273.41599,231.86534C273.86121,232.60896 274.31775,233.34961 275.11066,233.65601C275.94028,233.97658 276.88934,233.67734 277.5,234.16667C278.11066,234.65601 279.03479,234.61368 279.79999,235.01933C280.64578,235.46771 281.43912,235.8819 281.5,236.76666C281.5618,237.66455 281.5,238.46666 281.5,239.36667C281.5,240.26666 281.52084,241.14583 282.14734,241.71933L282.49866,242.468L282.5,243.36667" id="svg_4" stroke-width="3" stroke="#000" fill="none"/>
  <path t="26414,26540,26557,26557,26564,26572,26573,26580,26580,26588,26596,26612,26628,26669,26669,26691,26716,26724,26741,26748,26748,26821,26828,26868,26884,26892,26916,26917,26925,26932,26940,26949,26966,26972,26996,27028,27029,27045,27045,27068,27108,27117,27125,27165,27196,27220,27237,27277,27308,27381,27397,27405,27469,27508,27648,27710,27765,27797,28133,28149,28156,28164,28172,28172,28180,28188,28196,28196,28204,28204,28212,28220,28228,28228,28260,28308,28501,28516,28532,28532,28540,28556,28573,28580,28588,28596,28596,28604,28612,28620,28628,28637,28644,28669,28676,28877,28900,28908,28908,28924,29053,29068,29084,29108,29108,29172,29188,29188,29333,29517,29524,29532,29540,29548,29556,29556,29564,29588,29620,29645,29732,29925,29997,30012,30077,30077,30100,30132,30428,30436,30613,30628,30644,30805,30828,30829,30876,30940,30972,30973,31100,31108,31124,31124,31132,31148,31172,31412,31420,31436,31460" d="M320.5,169.66667C320.58533,170.55333 320.89935,171.51266 321.30133,172.18266C321.75543,172.93954 322.34097,173.83174 322.47467,174.492C322.67831,175.49771 323.24686,176.19397 323.46399,177.06667C323.68146,177.94073 323.41788,178.87044 323.50015,179.76666C323.58383,180.67812 324.26093,181.203 324.47916,182.14583C324.67722,183.00146 324.5,183.86667 324.5,184.76666C324.5,185.66667 324.47275,186.46707 324.5,187.36667C324.52859,188.31079 325.05444,189.08429 325.7215,189.54517C326.45117,190.04932 327.63354,189.70549 328.14282,190.37117C328.66113,191.04868 329.29263,191.66057 329.49551,192.37117C329.75366,193.27539 330.17465,193.94649 330.72134,194.54533C331.30673,195.18655 331.5,195.98801 331.5,196.66667C331.5,197.64517 331.5,198.46533 331.5,199.36667C331.5,200.26666 331.66281,201.10472 332.14734,201.71933C332.65933,202.36879 332.716,203.21469 333.33334,203.83333C333.95099,204.45229 334.45746,205.0108 335,205.66667C335.49878,206.26964 335.19012,207.22639 335.51068,208.056C335.81708,208.84891 336.49774,209.37115 336.5,210.26666C336.50226,211.16667 336.50067,212.06667 336.5,212.96666C336.49933,213.86534 336.21765,214.62404 335.29999,214.66667C334.40097,214.70844 333.52991,214.4521 332.89999,214.092C332.0358,213.59796 331.26761,213.19643 330.5,212.83333C329.78741,212.49625 328.75555,212.44731 328.06934,211.86534C327.40433,211.30136 326.85339,210.67201 326.01599,210.66667C325.15271,210.66118 324.13101,210.67603 323.5,210.16667C322.8732,209.66072 322.10352,209.22694 321.39999,208.56683C320.90247,208.10001 320.07486,207.61002 319.47467,207.092C318.84595,206.54935 318.0369,206.09311 317.20001,205.71933C316.42798,205.37453 316.06848,204.68457 315.44733,204.02383C314.87958,203.41989 313.66412,203.78476 313.02084,203.14583C312.37863,202.50798 312.12848,201.74071 311.5,201.16667C310.90683,200.62489 310.93042,199.58594 310.2785,198.90967C309.71249,198.32251 308.70001,198.66667 307.79999,198.66667C306.89999,198.66667 306,198.66667 305.08932,198.66667C304.17868,198.66667 303.32535,198.66667 302.38535,198.66667C301.5,198.66667 300.70001,198.66667 299.79999,198.66667C298.89999,198.66667 297.96521,198.71965 297.20001,198.314C296.35422,197.86562 295.77097,197.37086 295.2785,196.56683C294.89893,195.94711 293.75439,195.72702 293.50449,194.96217C293.21243,194.06831 292.73636,193.59612 292.5,192.66667C292.29056,191.84303 291.64139,191.44217 291.49985,190.56667C291.35379,189.66313 290.73883,189.129 290.52084,188.16667C290.32196,187.28867 290.69489,186.34499 290.49866,185.468C290.31808,184.66095 289.51865,184.23122 289.5,183.36667C289.48059,182.46687 289.19916,181.61583 288.85266,180.96666C288.39932,180.11729 288.5,179.14583 288.5,178.18266C288.5,177.492 288.5,176.42383 288.5,175.56667C288.5,174.66667 288.5,173.86667 288.5,172.96666C288.5,172.06667 288.5,171.16667 288.5,170.26666L288.5,169.36667L288.5,168.46666L288.5,167.56667" id="svg_5" stroke-width="3" stroke="#000" fill="none"/>
  <path t="34382,34868,34932,35092,35108,35124,35204,35220,35236,35372,35388,35404,35420,35484,35484,35500,35508,35524,35692,35700,35708,35821,35829,36069" d="M242.5,156.66667C240.8,156.66667 239.77437,156.22546 238.936,156.70267C238.24451,157.09627 238.5,158.26666 238.5,159.16667C238.5,160.06667 238.30191,160.98906 238.50133,161.86534C238.68436,162.66963 239.7,162.66667 240.60001,162.66667C241.5,162.66667 242.2811,162.54898 243.10001,162.092C243.87273,161.6608 244.61388,161.27727 245.14734,160.614C245.61047,160.03816 245.44284,159.02383 244.66667,158.5L244.27867,157.78799L243.55267,157.314" id="svg_6" stroke-width="3" stroke="#000" fill="none"/>
  <path t="37815,38133,38173,38357,38493,38517,38517,38613,38629,38645,38669,38669,38677,38701,38717,38725,38781,38829,38949,38957,38973,38981,38990,38990,38996,38997,39013,39013,39013,39021,39029,39029,39037,39037,39045,39045,39053,39053,39069,39101,39133,39149,39157,39165,39173,39173,39199,39204,39204,39221,39237,39316,39381,39437,39509,39565,39605,39605,39613,39629,39653,39765,39765,39773,39797,39820,39836,39917,39933,39940,40117,40133,40149,40149,40156,40181,40333,40364,40517,40597,40597,40621,40669,40692,40708,40716,40805,40821,40829,40836,40844,40844,40852,40860,40868,40876,40893,40893,40909,40917,40917,40926,40933,40940,40957,40964,40973,40981,40997,41005,41020,41028,41028,41045,41085,41093,41101,41108,41117,41132,41149,41149,41172,41180,41180,41189,41196,41216,41216,41229,41229,41469,41517,41533,41541,41541,41556,41557,41564,41564,41572,41580,41581,41581,41588,41596,41596,41604,41605,41612,41612,41613,41613,41621,41621,41621,41629,41629,41629,41629,41629,41629,41643,41643,41643,41645,41645,41653,41653,41653,41660,41677,41677,41693,41700,41708,41717,41725,41725,41733,41733,41740,41741,41741,41748,41756,41780,41804,41805,42157,42173,42180,42188,42196,42204,42213,42213,42233,42233,42244,42245,42245,42245,42245,42252,42252,42253,42261,42261,42261,42269,42317,42461,42461,42485,42532,42549,42556,42557,42580,42620,42621" d="M175.5,173.66667C174.5,173.66667 173.69867,173.66667 172.8,173.66667C171.864,173.66667 171.01601,173.66667 170.15266,173.66667C169.136,173.66667 168.3,173.66667 167.39999,173.66667C166.5,173.66667 165.7,173.66667 164.8,173.66667C163.89999,173.66667 163,173.66667 162.10001,173.66667C161.2,173.66667 160.28741,173.51688 159.40016,173.66684C158.54814,173.81084 158.14413,174.63808 157.2,174.66667C156.29907,174.69397 155.61467,174.66667 154.65334,174.66667C153.81334,174.66667 152.81734,174.66667 152.02083,174.66667C151.26933,174.66667 150.16133,174.66667 149.1785,174.66667C148.47917,174.66667 147.5,174.66667 146.71066,174.66667C145.66667,174.66667 144.87466,174.66667 143.84734,174.66667C143.15266,174.66667 142.136,174.66667 141.2,174.66667C140.3,174.66667 139.39561,174.57799 138.5,174.66667C137.65431,174.75041 137.17682,175.57274 136.31467,175.65601C135.38957,175.74536 134.5,175.66667 133.7,175.66667C132.8,175.66667 131.89999,175.66667 131,175.66667C130.10001,175.66667 129.2,175.66667 128.3,175.66667C127.4,175.66667 126.5,175.66476 125.74284,175.66667C124.85183,175.66893 124.03835,176.05568 123.33334,176.5C122.61436,176.95311 121.7,176.66667 120.8,176.66667C119.9,176.66667 119,176.66667 118.1,176.66667C117.2,176.66667 116.19995,176.50459 115.55267,177.01933C114.93356,177.51166 114.05361,177.92702 113.62133,178.76666C113.28741,179.41524 112.75306,180.20384 112.536,181.06667C112.31626,181.94017 112.5,182.86667 112.5,183.76666C112.5,184.66667 112.5,185.46666 112.5,186.36667C112.5,187.26666 112.49774,188.16667 112.5,189.06667C112.50225,189.96219 112.93543,190.64867 113.8,190.66667C114.6998,190.68541 115.65427,190.48338 116.5,190.83333C117.28462,191.15799 117.99982,191.65625 118.9,191.66667C119.79994,191.67709 120.7,191.66667 121.60017,191.66667C122.38533,191.66667 123.32533,191.66667 124.33334,191.66667C125.08933,191.66667 126,191.66667 126.9,191.66667C127.8,191.66667 128.7,191.66667 129.60001,191.66667C130.5,191.66667 131.04492,192.11699 131.78534,192.58133C132.56358,193.0694 133.60001,192.66667 134.5,192.66667C135.3,192.66667 136.2,192.66667 137.10001,192.66667C138,192.66667 138.89999,192.66667 139.8,192.66667C140.7,192.66667 141.60001,192.66667 142.5,192.66667C143.3,192.66667 144.13681,192.63048 145.15266,192.67117C145.84877,192.69907 146.65271,193.2077 147.60001,193.54517C148.45551,193.84993 149.25717,193.66667 150.15266,193.66667C151.01601,193.66667 151.97917,193.66667 152.89999,193.66667C153.8045,193.66667 154.66667,193.66653 155.5,193.66667C156.4785,193.66684 157.25684,193.72687 157.89999,194.51733C158.34535,195.0647 159.04102,195.64583 160.04266,195.66667C160.75052,195.6814 161.73871,195.55818 162.68567,195.67117C163.61891,195.78253 164.22842,196.42447 165.16617,196.6095C165.77272,196.72917 166.83333,196.66667 167.80533,196.66667C168.5,196.66667 169.19467,196.66667 170.45767,196.66667C171.27066,196.66667 172.11966,196.66667 173.16667,196.66667C174.036,196.66667 174.51067,196.66667 175.5,196.66667C176.48933,196.66667 176.964,196.66667 178.55867,196.66667C179.15601,196.66667 180.09467,196.66667 181.10451,196.66667C181.95717,196.66667 182.92117,196.66667 183.71466,196.66667C184.49017,196.66667 185.52933,196.66667 186.5,196.66667C187.3,196.66667 188.2,196.66667 189.10001,196.66667C190,196.66667 190.91086,196.64764 191.82133,196.66684C192.67523,196.68483 193.58292,197.02565 194.30983,197.314C195.23451,197.68079 195.99982,197.65514 196.73199,197.66533C197.8279,197.6806 198.7,197.66667 199.60001,197.66667C200.5,197.66667 201.3,197.66667 202.2,197.66667C203.10001,197.66667 204,197.66667 204.89999,197.66667C205.8,197.66667 206.7,197.66667 207.60017,197.66667C208.38533,197.66667 209.37367,197.68135 210.076,197.55234C211.00998,197.38077 211.75316,197.10202 212.576,196.81599C213.4252,196.5208 214.23372,196.18231 215.33566,195.90967C216.1935,195.69742 216.94363,195.67117 217.92117,195.66667C218.71465,195.66302 219.73067,195.66667 220.68567,195.66667C221.60001,195.66667 222.53825,195.84023 223.3,195.58133C224.18791,195.27956 224.94133,194.78281 225.7,194.38266C226.55838,193.92993 227.21466,193.58267 227.7215,192.78799L228.5,192.5L229.2,192.01933" id="svg_7" stroke-width="3" stroke="#000" fill="none"/>
  <path t="44839,45044,45044,45068,45092,45100,45108,45117,45132,45132,45148,45164,45188,45188,45196,45260,45268,45308,45316,45332,45348,45348,45436,45468,45476,45524,45620,45732,45812,45820,45820,45828,45836,45836,45836,45852,46013,46181,46188,46188,46196,46204,46204,46212" d="M177.5,149.66667C178.5,149.66667 179.30019,149.64868 180.2,149.66667C181.10054,149.68468 181.89659,150.09758 182.69867,150.58267C183.4442,151.03355 183.57626,151.87906 184.02083,152.64583C184.50726,153.48482 185.13591,154.04387 185.83333,154.5C186.5349,154.95885 187.28134,155.33147 188.02083,155.64583C188.90363,156.0211 189.44638,156.21553 189.92534,157.06667C190.33427,157.79338 190.32645,158.70493 190.58533,159.46666C190.88708,160.35457 191.48199,161.06613 191.5,161.96666C191.51799,162.86649 191.58868,163.77104 191.5,164.66667C191.41626,165.51237 190.5,165.66667 189.7,165.66667C188.828,165.66667 187.73199,165.66667 187,165.66667C186.26801,165.66667 185.172,165.66667 184.3,165.66667C183.39999,165.66667 182.5,165.66667 181.7,165.66667C180.74283,165.66667 179.84734,165.66667 178.98399,165.66667L178.136,165.67734" id="svg_8" stroke-width="3" stroke="#000" fill="none"/>
  <path t="56941,57164,57205,57220,57236,57252,57260,57284,57316,57324,57332,57340,57348,57356,57356,57356,57380,57381,57412,57429,57437,57444,57466,57468,57476,57484,57484,57500,57508,57556,57572,57604,57620,57628,57628,57644,57652,57685,57692,57700,57724,57732,57740,57748,57764,57765,57780,57804,57821,57821,57828,57844,57852,57852,57860,57876,57900,58021,58021,58036,58044,58052,58061,58068,58076,58093,58100,58100,58116,58133,58140,58156,58173,58245,58301,58324,58325,58349,58349,58364,58372,58380,58396,58413,58420,58428" d="M342.5,215.66667C340.66666,215.83333 340.18884,216.43025 339.55267,217.01933C338.97708,217.55231 338.37097,218.13051 337.85266,218.71933C337.28,219.3699 336.79691,220.0883 336.53601,221.06667C336.30502,221.93282 335.82678,222.48172 335.52084,223.22917C335.14944,224.13649 335.5462,224.92308 335.44284,225.66133C335.29596,226.71034 334.6694,227.43373 334.51068,228.26666C334.33002,229.21474 333.73599,229.67499 333.50134,230.468C333.26035,231.2825 332.4454,231.27776 331.66934,231.952C330.9873,232.54456 331.05951,233.49084 330.47467,234.23067C329.93854,234.90889 329.21622,235.34657 328.58401,235.95067C328.00803,236.50104 327.38818,237.10901 326.5,237.5C325.84235,237.78951 324.8804,237.66472 324.10001,238.092C323.27744,238.54237 322.26788,238.42244 321.58401,238.95067C320.95651,239.43538 320.20001,239.66667 319.29999,239.66667C318.39999,239.66667 317.49954,239.63959 316.70001,239.66667C315.85571,239.69527 315.3457,240.58293 314.5,240.66667C313.70392,240.7455 312.79999,240.66667 311.86401,240.66667C311.01599,240.66667 310.15268,240.66667 309.25717,240.66667C308.29999,240.66667 307.39999,240.66667 306.5,240.66667C305.70001,240.66667 304.79999,240.66667 303.89999,240.66667C303,240.66667 302.10001,240.66667 301.20001,240.66667C300.29999,240.66667 299.39999,240.66667 298.5,240.66667C297.70001,240.66667 296.79999,240.66667 295.89999,240.66667C295,240.66667 294.10001,240.66667 293.20001,240.66667C292.29999,240.66667 291.39999,240.66667 290.5,240.66667C289.74283,240.66667 288.84732,240.66667 287.98401,240.66667C287.02084,240.66667 286.15643,240.59972 285.47467,240.092C284.83386,239.61479 283.89999,239.66667 283,239.66667L282.11066,239.65601" id="svg_10" stroke-width="3" stroke="#000" fill="none"/>
  <path t="59477,59772,59781,59796,59804,59836,59836,59852,59973,60020,60029,60052,60052,60141,60149,60172,60188,60196,60621,60709,60724,60725,60740,60740,60780,60804,60852,60852,60860,60868,60884,60892,60916,61285,61285,61308,61324,61332,61348,61356,61372,61404,61420,61420,61445,61452,61476,61500,61500,61564,61564,61580,61588,61596,61596,61604,61620,61620,61628,61636,61644,61652,61668,61668,61676,61693,61708,61724,61732,61740,61764,61780,62148,62180,62204,62212,62292,62300,62308,62324,62340,62348,62372,62892,62900,62908,62908,62916,62916,62916,62924,62924,62924,62932,62932,62932,62940,62940,62940,62948,62948,62948,62956,62956,62973,62973,63092,63244,63252,63284,63308,63316,63316,63325,63332,63340,63340,63348,63364,63372,63500,63548,63572,63596,63612,63620,63620,63628,63644,63652,63660,63668,63668,63684,63708,63732,63748,63757,63773" d="M338.5,214.66667C339.5,215.66667 340.1799,215.38286 340.784,214.75067C341.33435,214.1747 341.84189,213.50436 342.216,212.86667C342.68677,212.06427 343.61536,211.89159 344.33066,211.38266C345.02133,210.89125 345.4491,210.10013 345.49551,209.31483C345.55463,208.31497 345.92606,207.5891 346.52533,207.092C347.14029,206.58189 347.89972,206.35124 348.58401,205.95067C349.27179,205.54805 349.40717,206.78258 349.58533,207.552C349.81082,208.52583 350.33115,209.15839 350.47916,210.14583C350.60089,210.95798 350.8674,211.81467 351.216,212.46666C351.66907,213.31406 352.18619,214.08904 352.44284,214.96666C352.69595,215.83223 352.5,216.76666 352.5,217.66667C352.5,218.46666 352.5,219.36667 352.5,220.26666C352.5,221.16667 352.5,222.06667 352.5,222.96666C352.5,223.86667 352.54779,224.76793 352.5,225.66667C352.45728,226.47006 351.79675,227.08826 351.53601,228.06667C351.32944,228.84175 351.57361,229.83844 351.47916,230.66667C351.36597,231.65907 350.91541,232.25143 350.5,233.16667C350.13867,233.96278 349.76605,234.70491 349.41599,235.46666C349.07144,236.2164 348.29544,236.86215 347.70001,237.46666C347.01556,238.16153 346.71921,238.96274 346.14734,239.614C345.61987,240.21469 344.9599,240.91985 344.31467,241.23067C343.42047,241.66142 342.64877,242.00346 342.07468,242.64133C341.5538,243.22006 340.98196,243.82555 340.41599,244.38266C339.74487,245.04329 339.11313,245.57251 338.52533,246.092C337.9425,246.6071 337,246.66667 336.10001,246.66667C335.20001,246.66667 334.19934,246.48613 333.58401,246.95067C332.90079,247.46645 332.17831,247.47177 331.30133,247.668C330.49429,247.84857 330.06451,248.64867 329.10001,248.66667C328.29749,248.68166 327.52933,248.66667 326.48566,248.66667C325.67868,248.66667 325.09702,248.64207 323.89999,248.66933C322.99939,248.68983 322.37241,248.69308 321.20016,249.10933C320.58667,249.32718 319.7724,249.89922 318.66666,250.33333C317.9715,250.60625 317.27481,250.65601 316.07867,250.66667C315.27469,250.67384 314.45267,250.66667 313.42166,250.66667C312.74667,250.66667 311.66666,250.66667 310.91068,250.66667C310,250.66667 309.10001,250.66667 308.20001,250.66667C307.29999,250.66667 306.39999,250.66667 305.5,250.66667C304.70001,250.66667 303.79999,250.66667 302.86401,250.66667C302.01599,250.66667 301.15268,250.6675 300.13599,250.66667C299.30133,250.666 298.75241,250.03896 297.97916,249.6875C297.17859,249.32362 296.20001,249.66684 295.29999,249.66667C294.40018,249.6665 293.76855,249.3024 293.47467,248.51733C293.16605,247.69289 292.20001,247.66667 291.29999,247.66667C290.39999,247.66667 289.46176,247.84021 288.70001,247.58133C287.81207,247.27956 287.10001,246.70267 286.2045,246.66217L285.52533,246.24133L284.97916,245.66667L284.2045,245.30949" id="svg_11" stroke-width="3" stroke="#000" fill="none"/>
  <path t="65477,65692,65700,65709,65709,65716,65716,65724,65732,65740,65740,65748,65748,65756,65764,65764,65772,65780,65788,65796,65804,65820,65820,65828,65852,65860,65876,65893,65909,65916,65924,65932,65948,65964,65974,65974,65980,65980,65989,66004,66012,66052,66116,66172,66188,66188,66196,66212,66220,66244,66292,66308,66324,66380,66380,66396,66412,66420,66436,66460,66460,66508,66532,66533,66540,66556,66564,66596,66708,66708,66732,66740,66844,66876,66876,66924,66940,66972,66980,66988,67004,67012,67020,67020,67036,67044,67052,67052,67068,67076,67084,67100,67180,67204,67212,67228,67228,67236,67244,67252,67260,67260,67268,67276,67276,67284,67300,67309,67309,67324,67324,67340,67348,67356,67365,67372,67372,67380,67388,67396,67404,67412,67428,67428,67436,67444,67460,67468,67476,67493,67493,67500,67524,67524,67548,67564,67588,67588,67668,67692,67708,67732,67748,67764,67764,67780,67796,67812,67820,67836,67868,67956,67980,67996,68004,68012,68021,68021,68028,68028" d="M354.5,214.66667C355.5,213.66667 355.85657,212.72394 356.82132,212.66667C357.49881,212.62645 358.47849,212.66667 359.29868,212.66667C360.20001,212.66667 361.13599,212.66667 361.98532,212.66667C362.90451,212.66667 363.89868,212.66667 364.664,212.66667C365.61465,212.66667 366.5,212.66667 367.29999,212.66667C368.20001,212.66667 369.1192,212.50145 370,212.6875C370.84738,212.86649 371.59387,213.60579 372.5,213.66667C373.29819,213.72031 374.20001,213.66667 375.10001,213.66667C376,213.66667 376.89999,213.66667 377.79999,213.66667C378.70001,213.66667 379.73212,213.42244 380.41599,213.95067C381.04349,214.43538 381.79999,214.66667 382.70001,214.66667C383.60016,214.66667 384.38535,214.66667 385.32535,214.66667C386.01599,214.66667 387.08932,214.66667 388,214.66667C388.89999,214.66667 389.79999,214.66667 390.70001,214.66667C391.60001,214.66667 392.5,214.66667 393.29999,214.66667C394.20001,214.66667 394.90079,214.86688 395.58401,215.38266C396.19934,215.8472 397.32343,215.25398 398.14282,215.72383C398.83069,216.11826 399.5,216.66667 400.29999,216.66667C401.20001,216.66667 402.12515,216.65477 402.89999,217.092C403.62625,217.5018 404.5,217.66667 405.29999,217.66667C406.25717,217.66667 407.15268,217.66667 408.01599,217.66667C408.97916,217.66667 409.79999,217.66667 410.70001,217.66667C411.60001,217.66667 412.5,217.66667 413.29999,217.66667C414.20001,217.66667 414.88715,217.98116 415.66666,218.5C416.37411,218.97089 417.29999,218.66667 418.20001,218.66667C419.10001,218.66667 420,218.66667 420.89999,218.66667C421.79999,218.66667 422.70001,218.66667 423.60001,218.66667C424.5,218.66667 425.29999,218.66667 426.20001,218.66667C427.13599,218.66667 427.98401,218.66667 428.84732,218.66667C429.74283,218.66667 430.70862,218.79068 431.59982,218.6665C432.4017,218.55478 432.85571,217.69527 433.70001,217.66667C434.59949,217.6362 435.5,217.66667 436.29999,217.66667C437.20001,217.66667 438.10941,217.77863 439.02084,217.64583C440.00888,217.50188 440.6395,216.97166 441.61465,216.752C442.48236,216.55653 443.30026,216.6895 444.20001,216.66667C445.02164,216.64583 445.81778,216.21965 446.5,215.66667C447.32907,214.99469 448.08911,214.67734 448.89999,214.66667C449.7999,214.65483 450.70001,214.66667 451.60001,214.66667C452.5,214.66667 453.29999,214.66667 454.20001,214.66667C455.10001,214.66667 456.03336,214.71306 456.89999,214.24133C457.63242,213.84267 458.5,213.66667 459.29999,213.66667C460.20001,213.66667 461.1196,213.66861 461.89999,213.24133C462.72256,212.79095 463.60001,212.66667 464.5,212.66667C465.29999,212.66667 466.13599,212.66667 467.15268,212.66667C467.84732,212.66667 468.91144,212.77225 469.70001,212.38266C470.57007,211.95282 471.29999,211.66734 472.20001,211.66667C473.10001,211.66602 474.013,211.80876 474.89999,211.65601C475.73315,211.51253 476.48633,210.75456 477.20001,210.67117C478.09393,210.56673 479.07971,211.03336 479.97916,210.64583C480.69351,210.33804 481.2045,209.66893 482.10001,209.66667C483,209.66441 483.89999,209.66667 484.79999,209.66667C485.70001,209.66667 486.60001,209.66667 487.5,209.66667L488.25717,209.66667L489.15268,209.66667L490.01599,209.66667" id="svg_12" stroke-width="3" stroke="#000" fill="none"/>
  <path t="69973,70228,70228,70236,70244,70260,70260,70276,70292,70300,70316,70316,70324,70332,70348,70357,70380,70388,70404,70412,70412,70428,70444,70468,70492,70508,70524,70548,70548,70557,70572,70572,70579,70588,70596,70604,70604,70611,70612,70620,70620,70627,70636,70652,70671,70671,70685,70693,70693,70693,70702,70716,70717,70725,70725,70732,70740,70749,70758,70765,70773,70773,70780,70788,70805,70821,70821,70837,70852,70853,70861,70877,70893,70941,70956,70973,70980,71012,71020,71021,71045,71053,71060,71085,71101,71108,71108,71124,71125,71140,71141,71165,71205,71213,71245,71285,71381,71421,71444,71461,71476,71476,71516,71557,71580,71596,71620,71965,71973,71981,71981,71989,71997,71997,72005,72045,72093,72197,72229,72260,72261,72292,72308,72309,72340,72356,72364,72404,72420,72429,72436,72444,72460,72468,72468,72476,72476,72493,72501,72508,72533,72549,72596,72644,72645,72668,72676,72676,72700,72708,72772,72781,72788,72788,72796,72804,72812,72820,72821,72828,72836,72844,72853,72860,72876,72925,72925,72940,72941,72948,72957,72964,72972,72980,72988,72996,72996,73004,73012,73012,73020,73029,73037,73093,73108,73116,73117,73124,73132,73164,73188,73204,73221,73236,73252,73253,73268,73293,73413,73429,73436,73452,73460,73460,73461,73469,73477,73493,73493,73885,73885" d="M264.5,227.66667C263.5,227.66667 262.70001,227.66667 261.79999,227.66667C260.86401,227.66667 260.01599,227.66667 259.15268,227.66667C258.13599,227.66667 257.29999,227.66667 256.39999,227.66667C255.5,227.66667 254.7,227.66667 253.8,227.66667C252.89999,227.66667 252,227.66667 251.10001,227.66667C250.2,227.66667 249.3,227.66667 248.39999,227.66667C247.5,227.66667 246.7,227.66667 245.8,227.66667C244.89999,227.66667 244,227.66667 243.10001,227.66667C242.2,227.66667 241.3,227.66667 240.39983,227.66667C239.61467,227.66667 238.67467,227.66667 237.66667,227.66667C236.91066,227.66667 236,227.66667 235.10001,227.66667C234.1955,227.66667 233.33333,227.66667 232.5,227.66667C231.52133,227.66667 230.74733,227.66667 229.84734,227.66667C228.98399,227.66667 227.83653,227.68224 227.55267,228.37199C227.17741,229.28383 226.5,229.66667 225.7,229.66667C224.828,229.66667 223.95734,229.66667 223.24933,229.66667C222.26801,229.66667 221.28751,229.56989 220.33333,229.83333C219.65121,230.02165 218.67813,230.5731 217.91066,230.65601C217.0052,230.75381 216.10001,230.66667 215.2,230.66667C214.3,230.66667 213.39999,230.66667 212.5,230.66667C211.7,230.66667 210.79994,230.65649 209.89999,230.66667C208.97899,230.67709 208.18407,230.90135 207.32533,231.24133C206.52634,231.55766 205.5,231.66667 204.7,231.66667C203.8,231.66667 202.89998,231.66127 202,231.66667C201.11063,231.67201 200.4462,232.11328 199.92534,232.692C199.35126,233.32986 198.71519,233.92966 198.33333,234.66667C197.9427,235.42062 197.81976,236.22974 197.48933,237.056C197.17369,237.84528 196.60031,238.37981 196.47917,239.1875C196.33107,240.17493 195.86227,240.8208 195.584,241.78267C195.36552,242.53787 195.02861,243.47438 194.784,244.18266C194.45805,245.12643 194.48933,246.056 194,246.66667C193.51067,247.27733 193.5,248.16667 193.5,249.06667C193.5,249.96666 193.5,250.86667 193.5,251.76666C193.5,252.66667 193.5,253.46666 193.5,254.36667C193.5,255.26666 193.5,256.16666 193.5,257.06668C193.5,257.96667 193.17447,259.14972 193.86166,259.6095C194.66068,260.1441 195.5,259.66666 196.4785,259.66666C197.5,259.66666 198.3,259.66666 199.2,259.66666C200.10001,259.66666 201,259.66666 201.89999,259.66666C202.8,259.66666 203.70134,259.66666 204.38533,259.66666C205.32533,259.66666 206.33333,259.66666 207.1955,259.66666C208.10001,259.66666 208.93182,259.59479 209.52533,259.09201C210.15903,258.55518 211.02361,258.20624 211.7955,257.71933C212.49794,257.27625 213.08603,256.78375 213.8,256.30951C214.59166,255.78366 215.09999,255.06667 215.7,254.46666C216.3,253.86665 216.9472,253.14697 217.44733,252.37117C217.89732,251.67313 218.58408,251.25215 219.14734,250.614C219.67287,250.0186 220.53925,249.84311 221.3,249.58133C222.07956,249.31308 222.60794,248.33582 223.3,247.952C224.12448,247.49474 224.90489,247.47183 225.584,246.95067C226.16554,246.50438 227.15266,246.66667 228.01601,246.66667C228.97917,246.66667 229.94453,246.76213 230.7,246.38266C231.5672,245.94707 232.3,245.66734 233.2,245.66667C234.10001,245.666 235,245.66667 235.89999,245.66667C236.8,245.66667 237.81595,245.86382 238.5,245.33333C239.15851,244.82265 239.57018,243.79224 240.3,243.66933C241.1875,243.51987 242.10001,243.66667 243,243.66667C243.89999,243.66667 244.8,243.66667 245.7,243.66667C246.60017,243.66667 247.38533,243.66667 248.32533,243.66667C249.33333,243.66667 250.08934,243.66667 251,243.66667C251.89999,243.66667 252.8,243.66667 253.7,243.66667C254.60001,243.66667 255.5,243.66667 256.29999,243.66667C257.20001,243.66667 258.10001,243.66667 259,243.66667C259.89999,243.66667 260.79999,243.66667 261.70001,243.66667C262.60001,243.66667 263.5,243.66667 264.29999,243.66667C265.20001,243.66667 266.10004,243.67207 267,243.66667C267.8894,243.66133 268.43738,242.89778 269.18268,242.67734C270.00742,242.4334 271,242.66667 271.73199,242.66667C272.68567,242.66667 273.70132,242.66667 274.66666,242.66667L275.32535,242.66667L276.33334,242.66667L277.1955,242.66667" id="svg_13" stroke-width="3" stroke="#000" fill="none"/>
  <path t="75878,75956,75964,75964,75964,75972,75988,75988,75988,75996,75996,75996,75996,76005,76005,76005,76005,76012,76012,76012,76020,76020,76028,76028,76028,76036,76036,76036,76044,76044,76044,76045,76052,76052,76061,76061,76061,76061,76061,76068,76068,76068,76068,76068,76076,76076,76076,76076,76076,76076,76084,76084,76084,76084,76084,76084,76092,76092,76092,76092,76092,76092,76092,76100,76100,76100,76100,76100,76100,76100,76100,76100,76108,76108,76108,76108,76108,76108,76108,76108,76108,76116,76116,76117,76117,76117,76117,76117,76117,76117,76124,76124,76124,76124,76124,76124,76125,76125,76132,76132,76132,76132,76132,76140,76140,76140,76148,76148,76148,76148,76156,76156,76157,76157,76164,76164,76164,76172,76172,76172,76172,76188,76188,76188,76189,76189,76196,76196,76196,76196,76196,76197,76204,76204,76204,76204,76205,76213,76213,76213,76213,76213,76213,76220,76220,76221,76221,76221,76221,76221,76221,76228,76228,76228,76228,76228,76236,76236,76236,76237,76237,76237,76244,76244,76244,76244,76245,76245,76252,76252,76252,76253,76253,76253,76261,76261,76261,76261,76261,76261,76268,76268,76268,76269,76269,76269,76276,76276,76276,76276,76276,76277,76277,76284,76284,76284,76285,76285,76285,76285,76292,76292,76292,76292,76293,76293,76293,76302,76302,76302,76302,76303,76303,76308,76308,76308,76309,76309,76309,76309,76309,76316,76317,76317,76317,76317,76317,76324,76324,76324,76325,76325,76325,76332,76333,76333,76333,76333,76333,76333,76340,76340,76340,76341,76341,76341,76341,76341,76341,76348,76348,76348,76349,76349,76349,76349,76349,76356,76357,76357,76357,76357,76357,76357,76357,76357,76364,76364,76364,76365,76365,76365,76365,76365,76365,76372,76372,76372,76373,76373,76373,76373,76373,76373,76380,76380,76380,76381,76381,76381,76381,76381,76381,76396,76396,76396,76396,76396,76396,76396,76396,76396,76404,76404,76404,76404,76404,76404,76412,76412,76412,76412,76412,76420,76421,76421,76421,76421,76428,76428,76428,76429,76436,76436,76437,76444,76444,76445,76445,76453,76453,76453,76453,76461,76461,76461,76461,76468,76469,76476,76476,76476,76484,76484,76485,76485,76492,76492,76492,76492,76500,76500,76500,76501,76508,76508,76508,76509,76516,76516,76517,76524,76524,76524,76525,76532,76532,76532,76541,76541,76541,76541,76541,76541,76548,76548,76548,76549,76549,76556,76556,76556,76557,76557,76557,76564,76564,76564,76564,76565,76565,76565,76565,76572,76572,76573,76573,76573,76573,76580,76580,76580,76581,76581,76581,76581,76581,76588,76588,76588,76589,76589,76589,76589,76589,76589,76604,76604,76605,76605,76605,76605,76605,76606,76606,76612,76612,76613,76613,76613,76613,76613,76614,76620,76621,76621,76621,76621,76621,76628,76628,76629,76629,76629,76629,76630,76636,76637,76637,76637,76637,76644,76644,76645,76645,76652,76652,76653,76653,76653,76653,76661,76661,76662,76662,76662,76662,76668,76669,76669,76670,76670,76677,76677,76677,76677,76678,76685,76685,76685,76686,76692,76693,76693,76700,76700,76708,76708,76709,76716,76716,76724,76732,76732,76750,76750,76750,76750,76756,76756,76757,76757,76757,76757,76757,76758,76758,76769,76769,76769,76769,76770,76770,76770,76770,76770,76772,76772,76773,76773,76773,76773,76773,76774,76774,76782,76782,76782,76782,76782,76782,76782,76783,76788,76788,76788,76788,76788,76796,76796,76796,76796,76813,76813,76820,76828,76828,76844,76852,76852,76860,76860,76876,76876,76884,76892,76892,76900,76900,76916,76916,77028,77029,77036,77044,77045,77052,77052,77053,77053" d="M4.5,66.66666C6.172,66.66666 7.268,66.66666 8,66.66666C8.732,66.66666 9.84933,66.66666 10.83333,66.66666C11.51433,66.66666 12.32133,66.66666 13.5,66.66666C14.10133,66.66666 15.02083,66.66666 15.98533,66.66666C17.02117,66.66666 17.74817,66.66666 18.47917,66.66666C19.53067,66.66666 20.457,66.66666 21.228,66.66666C22.09733,66.66666 23.1045,66.66666 23.95717,66.66666C24.92133,66.66666 25.72533,66.66666 26.54733,66.66666C27.57883,66.66666 28.52083,66.66666 29.26933,66.66666C30.14267,66.66666 31.15067,66.66666 31.84933,66.66666C32.532,66.66666 33.732,66.66666 34.5,66.66666C35.83333,66.66666 36.47066,66.66666 37.172,66.66666C37.92133,66.66666 38.70267,66.66666 39.9005,66.66666C40.7135,66.66666 41.5625,66.66666 42.4715,66.66666C42.956,66.66666 44.564,66.66666 45.152,66.66666C45.758,66.66666 47,66.66666 47.624,66.66666C48.242,66.66666 50,66.66666 50.53583,66.66666C51.5375,66.66666 52.47917,66.66666 52.94,66.66666C53.86666,66.66666 55.34383,66.66666 55.87733,66.66666C57.02533,66.66666 57.64583,66.66666 58.30133,66.66666C58.99483,66.66666 59.72933,66.66666 61.33333,66.66666C62.20667,66.66666 63.12,66.66666 64.06333,66.66666C65.02666,66.66666 66,66.66666 66.97334,66.66666C67.93667,66.66666 68.88,66.66666 70.66666,66.66666C71.493,66.66666 72.27734,66.66666 73.02766,66.66666C73.752,66.66666 74.45834,66.66666 75.15466,66.66666C75.849,66.66666 76.54933,66.66666 78,66.66666C78.764,66.66666 79.552,66.66666 80.358,66.66666C81.176,66.66666 82,66.66666 82.824,66.66666C83.642,66.66666 84.448,66.66666 86,66.66666C86.73534,66.66666 87.44267,66.66666 88.124,66.66666C88.78133,66.66666 89.41666,66.66666 90.032,66.66666C91.21067,66.66666 92.33334,66.66666 93.41067,66.66666C93.92934,66.66666 94.91666,66.66666 95.824,66.66666C97,66.66666 97.9375,66.66666 98.74,66.66666C99.83334,66.66666 100.46933,66.66666 101.16133,66.66666C101.88533,66.66666 103.33334,66.66666 104.01334,66.66666C104.95834,66.66666 105.53833,66.66666 106.81734,66.66666C107.52084,66.66666 108.26933,66.66666 109.47066,66.66666C110.172,66.66666 110.92133,66.66666 111.70267,66.66666C112.90033,66.66666 113.709,66.66666 114.54166,66.66666C115.41434,66.66666 115.87067,66.66666 117.34283,66.66666C118.40984,66.66666 118.96133,66.66666 119.52084,66.66666C120.65183,66.66666 121.21734,66.66321 122.87833,66.667C123.41333,66.66822 124.45374,66.67948 124.95834,66.70834C125.93941,66.76444 127.33615,66.9891 127.77917,67.10934C128.66701,67.3503 129.56007,67.67455 130.03334,67.816C131.03514,68.11543 132.16467,68.34827 132.78534,68.42367C134.10719,68.58424 134.80113,68.59966 135.5,68.625C136.1985,68.65033 136.88931,68.66035 137.564,68.664C139.41414,68.67402 139.96001,68.66666 140.96666,68.66666C141.89333,68.66666 142.78,68.66666 143.66667,68.66666C144.58667,68.66666 145.54666,68.66666 146.04167,68.66666C147.06166,68.66666 147.58667,68.66666 149.22133,68.66666C149.784,68.66666 150.92534,68.66666 151.5,68.66666C152.07466,68.66666 153.216,68.66666 154.33333,68.66666C155.416,68.66666 155.94733,68.66666 157,68.66666C157.52533,68.66666 158.584,68.66666 159.66667,68.66666C160.784,68.66666 161.35266,68.66666 162.5,68.66666C163.07466,68.66666 163.64734,68.66666 165.33333,68.66666C165.87866,68.66666 166.94733,68.66666 167.47467,68.66666C168.52533,68.66666 169.05267,68.66666 170.66667,68.66666C171.22166,68.66666 172.36166,68.66666 172.94667,68.66666C173.54167,68.66666 174.76167,68.66666 175.38667,68.66666C176.66667,68.66666 177.32117,68.66666 178.64816,68.66666C179.31467,68.66666 179.97917,68.66666 180.63867,68.66666C181.29016,68.66666 183.16667,68.66666 183.75717,68.66666C184.33067,68.66666 185.43866,68.66666 185.97917,68.66666C187.04817,68.66666 187.58267,68.66666 189.22166,68.66666C189.78667,68.66666 190.94667,68.66666 191.54167,68.66666C192.14667,68.66666 193.38667,68.66666 194.66667,68.66666C195.32133,68.66666 195.98399,68.66666 196.65266,68.66666C198,68.66666 198.67467,68.66666 199.34734,68.66666C200.01601,68.66666 201.33333,68.66666 202.612,68.66666C203.23384,68.66666 203.84267,68.66666 205.01733,68.66666C205.58116,68.66666 207.16667,68.66666 207.6575,68.66666C208.59917,68.66666 209.52083,68.66666 209.98666,68.66666C210.95334,68.66666 212.56467,68.66666 213.15733,68.66666C213.776,68.66666 214.41867,68.66666 215.76801,68.66666C216.47067,68.66666 217.18933,68.66666 218.66667,68.66666C219.42134,68.66666 220.18401,68.66666 220.95267,68.66666C221.72533,68.66666 222.5,68.66666 223.27467,68.66666C224.04733,68.66666 224.81599,68.66666 226.33333,68.66666C227.07866,68.66666 227.81599,68.66666 228.54733,68.66666C230,68.66666 230.72533,68.66666 231.45267,68.66666C232.18401,68.66666 233.66667,68.66666 234.42183,68.66666C235.188,68.66666 235.96617,68.66666 236.75734,68.66666C237.5625,68.66666 238.38266,68.66666 239.21883,68.66666C240.07201,68.66666 241.83333,68.66666 242.74266,68.66666C243.668,68.66666 244.60533,68.66666 245.55066,68.66666C246.5,68.66666 247.44934,68.66666 248.39467,68.66666C249.332,68.66666 251.16667,68.66666 252.05684,68.66666C252.92799,68.66666 253.78117,68.66666 254.61734,68.66666C255.4375,68.66666 256.24268,68.66666 257.03384,68.66666C257.81201,68.66666 259.33334,68.66666 260.07867,68.66666C260.81601,68.66666 261.54733,68.66666 262.27466,68.66666C263,68.66666 263.72534,68.66666 264.45267,68.66666C265.18399,68.66666 266.66666,68.66666 267.42084,68.66666C268.17999,68.66666 268.93918,68.66666 269.69333,68.66666C270.4375,68.66666 271.16666,68.66666 271.87582,68.66666C272.56,68.66666 273.83334,68.66666 274.41415,68.66666C275.47583,68.66666 275.96667,68.66666 276.89334,68.66666C277.78,68.66666 279.12134,68.66666 279.58401,68.66666C280.52533,68.66666 281.47467,68.66666 281.94733,68.66666C283.33334,68.66666 284.21466,68.66666 285.064,68.66666C285.88934,68.66666 286.69867,68.66666 287.89966,68.66666C288.69101,68.66666 289.45834,68.66666 290.18567,68.66666C291.45734,68.66666 292.24933,68.66666 293.00534,68.66666C294.14282,68.66666 294.80984,68.66666 295.52084,68.66666C296.61734,68.66666 297.67868,68.66666 298.34732,68.66666C299.32535,68.66666 299.98401,68.66666 301.02118,68.66666C302.11465,68.66666 302.83865,68.66666 303.53067,68.66666C304.72934,68.66666 305.45834,68.66666 306.5,68.66666C307.32132,68.66666 308.01434,68.66666 309.14301,68.66666C309.81433,68.66666 310.92133,68.66666 311.70267,68.66666C312.89984,68.66666 313.6955,68.66666 314.47916,68.66666C315.24283,68.66666 316.33334,68.66666 317.01599,68.66666C318,68.66666 318.65268,68.66666 320.02118,68.66666C320.74817,68.66666 321.47916,68.66666 322.19016,68.66666C323.45734,68.66666 324.24933,68.66666 325.00534,68.66666C326.14267,68.66666 326.80533,68.66666 327.5,68.66666C328.53201,68.66666 329.73468,68.66666 330.54166,68.66666C331.11966,68.66666 332.16666,68.66666 333.03867,68.66666C334.02267,68.66666 334.54166,68.66666 335.60367,68.66666C336.13467,68.66666 337.65717,68.66666 338.59018,68.66666C339.03867,68.66666 339.91467,68.66666 340.78265,68.66666C342.12201,68.66666 343.07068,68.66666 343.56799,68.66666C344.61865,68.66666 345.17599,68.66666 345.75732,68.66666C347.664,68.66666 348.35199,68.66666 349.05801,68.66666C349.776,68.66666 350.5,68.66666 351.224,68.66666C351.94199,68.66666 352.64801,68.66666 354.63599,68.66666C355.24799,68.66666 355.84201,68.66666 357,68.66666C357.57599,68.66666 358.75201,68.66666 360,68.66666C360.66434,68.66666 361.35468,68.66666 362.06699,68.66666C362.79733,68.66666 363.54166,68.66666 364.29599,68.66666C365.05634,68.66666 367.33334,68.66666 368.07901,68.66666C368.81866,68.66666 369.55634,68.66666 370.29599,68.66666C371.04166,68.66666 371.79733,68.66666 372.56699,68.66666C373.35468,68.66666 375,68.66666 375.86383,68.66666C376.75067,68.66666 377.6535,68.66666 378.56534,68.66666C379.47916,68.66666 380.388,68.66666 381.28482,68.66666C382.16266,68.66666 383.83334,68.66666 384.61383,68.66666C385.35733,68.66666 386.06683,68.66666 386.74533,68.66666C387.39584,68.66666 388.02133,68.66666 388.62485,68.66666C390.33334,68.66666 390.87866,68.66666 391.94733,68.66666C392.47467,68.66666 393.52533,68.66666 394.05267,68.66666C395.66666,68.66666 396.22116,68.66666 396.78265,68.66666C397.91467,68.66666 398.47916,68.66666 399.59018,68.66666C400.13068,68.66666 401.65701,68.66666 402.58566,68.66666C403.02802,68.66666 403.87866,68.66666 404.69733,68.66666C405.90018,68.66666 406.7045,68.66666 407.52084,68.66666C408.35718,68.66666 409.66669,68.67146 410.58667,68.664C411.06171,68.66015 412.04312,68.64323 413.06168,68.55233C413.58759,68.50539 414.67041,68.35059 415.78265,68.09866C416.35022,67.97011 417.47891,67.66578 418.03867,67.51733C418.58994,67.37113 420.16327,66.97852 421.12933,66.83733C421.58429,66.77084 422.45792,66.69511 423.29099,66.67567C424.49969,66.64746 425.29999,66.66666 426.10001,66.66666C426.89999,66.66666 427.70001,66.66666 428.89966,66.66666C429.69101,66.66666 430.45834,66.66666 431.52933,66.66666C432.457,66.66666 433.45834,66.66666 434.09732,66.66666C435.10449,66.66666 435.95715,66.66666 436.92117,66.66666C437.71466,66.66666 438.49017,66.66666 439.69016,66.66666C440.38266,66.66666 441.32535,66.66666 442.33334,66.66666C443.16135,66.66666 444.04434,66.66666 444.85733,66.66666C445.60934,66.66666 446.58533,66.66666 447.83334,66.66666C448.57117,66.66666 449.37601,66.66666 450.23483,66.66666C451.13467,66.66666 452.0625,66.66666 453.00534,66.66666C453.95016,66.66666 454.884,66.66666 456.66666,66.66666C457.49301,66.66666 458.27734,66.66666 459.02768,66.66666C459.75201,66.66666 460.45834,66.66666 461.15466,66.66666C461.849,66.66666 462.54935,66.66666 464,66.66666C464.76401,66.66666 465.552,66.66666 466.358,66.66666C467.17599,66.66666 468,66.66666 468.82401,66.66666C469.642,66.66666 470.448,66.66666 472,66.66666C472.73517,66.66666 473.44135,66.66666 474.11951,66.66666C474.77066,66.66666 475.996,66.66666 476.57217,66.66666C477.12534,66.66666 478.65717,66.66666 479.59018,66.66666C480.47916,66.66666 481.34818,66.66666 481.78265,66.66666C483.12082,66.66666 484.03915,66.66666 484.9375,66.66666C485.77585,66.66666 486.83334,66.66666 487.57132,66.66666C488.60001,66.66666 489.5,66.66666 490.29999,66.66666C491.13599,66.66666 492.15717,66.66716 492.90451,66.66666C493.89868,66.666 494.71332,66.77361 495.61465,66.38267C496.35687,66.06075 497.13596,65.672 498.15717,65.66666C498.90451,65.66276 499.89999,65.66666 500.70001,65.66666C501.69983,65.66666 502.47916,65.66666 503.47849,65.66666C504.29868,65.66666 505.28406,65.73682 505.46399,66.56C505.65207,67.42037 505.5,68.30967 505.5,68.981L505.5,70.088L505.5,70.86933" id="svg_14" stroke-width="3" stroke="#000" fill="none"/>
  <path t="78893,78964,78972,78972,78980,78980,78980,78980,78988,78988,78988,78996,78996,78996,78996,79004,79004,79004,79004,79004,79004,79013,79013,79013,79013,79013,79020,79020,79020,79029,79029,79036,79044,79052,79060,79068,79068,79076,79084,79084,79092,79092,79100,79100,79108,79108,79108,79116,79116,79116,79124,79124,79124,79124,79132,79132,79132,79140,79140,79140,79148,79148,79156,79172,79181,79188,79188,79197,79204,79204,79214,79214,79214,79214,79220,79220,79228,79228,79228,79236,79236,79236,79236,79244,79244,79244,79252,79252,79252,79260,79260,79268,79268,79276,79276,79284,79292,79300,79308,79308,79316,79324,79332,79332,79340,79348,79348,79356,79356,79364,79380,79388,79388,79396,79396,79396,79404,79404,79404,79412,79412,79412,79412,79412,79412,79420,79420,79420,79420,79420,79428,79428,79428,79428,79428,79428,79436,79436,79436,79436,79436,79436,79444,79444,79444,79444,79444,79444,79452,79452,79452,79452,79460,79460,79460,79460,79468,79468,79468,79468,79476,79476,79476,79484,79484,79492,79492,79500,79500,79500,79500,79508,79508,79508,79508,79509,79516,79516,79516,79524,79524,79524,79524,79532,79532,79532,79532,79540,79540,79540,79540,79540,79548,79548,79548,79548,79548,79556,79556,79556,79556,79557,79557,79565,79565,79565,79565,79580,79580,79580,79588,79588,79588,79588,79589,79596,79596,79596,79596,79604,79604,79605,79605,79605,79612,79612,79612,79612,79612,79620,79620,79621,79621,79621,79621,79621,79629,79629,79629,79629,79629,79636,79636,79636,79637,79644,79644,79644,79644,79644,79652,79652,79652,79652,79660,79660,79660,79660,79668,79668,79676,79676,79684,79692,79700,79708,79708,79724,79756,79780,79796,79804,79812,79812,79820,79836,79844,79868" d="M158.5,234.66667C158.5,236.42383 158.5,237.33284 158.5,238.1855C158.5,239 158.5,239.972 158.5,240.66667C158.5,241.69867 158.48109,242.62448 158.51067,243.416C158.53894,244.1729 158.71634,245.31105 158.85716,245.99001C159.01505,246.75122 159.21368,247.5881 159.5,249C159.60315,249.50868 159.79897,250.57143 159.88933,251.11734C160.07098,252.21487 160.16486,252.75882 160.33333,254.33333C160.38568,254.82265 160.4373,255.74466 160.52083,256.58334C160.59666,257.34476 160.76837,258.36627 161.20534,259.14783C161.59412,259.84323 162.26442,260.80954 162.58267,261.46533C162.99321,262.31128 163.51184,263.02686 164,263.6875C164.48595,264.34515 164.6675,265.33209 165.30133,265.74933C166.10104,266.27576 166.75121,266.82629 167.3,267.552C167.85469,268.28552 168.19675,269.07281 168.60001,269.86649C168.99681,270.64746 169.47217,271.5224 169.92133,272.052C170.43991,272.66345 171.27176,273.43234 171.75067,273.92801C172.2533,274.44818 173.1873,275.48517 173.52933,275.98267C173.98672,276.64801 174.28894,277.35413 174.70267,278.34933C175.03496,279.14868 175.3752,280.00571 176.26801,280.69601C176.93921,281.21497 177.75868,281.41486 178.52933,281.86533C179.32813,282.33224 180.22246,282.51364 180.88933,283.10266C181.58482,283.71698 181.69101,284.79254 182.2045,285.36667C182.76805,285.99677 183.52249,286.6459 184.02083,287.20834C184.69836,287.97305 185.15129,288.67297 185.67467,289.41599C186.01512,289.89932 186.71902,290.89169 187.30983,291.41483C188.00655,292.03171 188.77359,292.48633 189.24933,292.91333C190.21622,293.78113 190.53687,294.3479 191,295.16666C191.30858,295.71216 192.02206,296.76669 192.50534,297.20499C193.22035,297.85345 194.1824,298.48083 194.69017,298.914C195.40582,299.52451 195.98399,300.15067 196.67467,300.84134C197.33333,301.5 197.88252,302.0126 198.59984,302.76666C199.15759,303.353 199.43669,304.22623 200.11067,304.69199C200.84265,305.19785 201.52211,305.86758 202.2,306.30951C202.93391,306.78796 203.80376,307.01978 204.5,307.66666C205.10327,308.22714 205.92786,308.5849 206.82133,308.888C207.51608,309.12369 208.51678,309.42896 209.29866,309.75067C210.05275,310.06094 210.80383,310.62314 211.8215,310.66684C212.52049,310.69687 213.50288,310.82449 214.31067,311.09201C214.95956,311.30692 215.92194,311.54468 216.75734,311.65201C217.71895,311.77554 218.83742,311.98599 219.66933,312.23599C220.11214,312.36908 221.02083,312.6875 221.95183,313.01849C222.41733,313.18399 223.77605,313.65457 224.65184,313.90952C225.084,314.03531 225.95921,314.26541 226.86934,314.46533C227.83119,314.67661 228.86829,314.86655 229.40533,314.97116C230.50058,315.18451 231.05441,315.28152 232.132,315.552C233.17198,315.81305 234.13344,316.14679 234.59467,316.31934C235.50287,316.65906 236.4016,317.02466 236.868,317.18268C238.3317,317.67862 238.86461,317.79587 239.95067,318.01999C240.4984,318.13303 241.59358,318.31326 242.132,318.38C243.65395,318.5687 244.12657,318.58414 245.00667,318.64133C245.80658,318.6933 247.18098,318.78027 247.99466,319.02832C248.7675,319.26392 249.2641,319.56128 250.46933,320.14932C251.15913,320.48587 251.8741,320.83524 252.61734,321.09732C253.66406,321.4664 254.33066,321.59039 255.21733,321.64532C256.35519,321.71582 257.12442,321.67053 257.98801,321.95065C258.79288,322.21173 259.83163,322.51453 260.47067,322.58267C261.17047,322.65729 262.31226,322.68921 263.5,322.83334C264.30005,322.93042 265.07883,323.09122 265.828,323.24133C266.52948,323.3819 267.73044,323.60379 268.5,323.64584C269.26712,323.68777 270.14301,323.66666 271.172,323.66666C271.92133,323.66666 272.70267,323.66666 273.89999,323.66666C274.70001,323.66666 275.5,323.66666 276.29999,323.66666C277.5,323.66666 278.29999,323.66666 279.10001,323.66666C279.89999,323.66666 280.70001,323.66666 281.90033,323.66666C282.70901,323.66666 283.54166,323.66666 284.41434,323.66666C284.87067,323.66666 286.34268,323.66666 286.86801,323.66666C287.95065,323.66666 288.5,323.66666 289.59467,323.66666C290.13199,323.66666 291.65668,323.66666 292.57666,323.66666C293.41666,323.66666 294.17667,323.66129 295.16666,323.66666C295.99469,323.67117 296.76764,323.67636 297.83334,324C298.48322,324.19736 299.1673,324.52942 299.92133,324.81601C300.69803,325.11121 301.89603,325.45129 302.70001,325.55234C303.49701,325.6525 304.29996,325.66214 305.5,325.66666C306.30133,325.66965 307.11066,325.66666 307.936,325.66666C308.78534,325.66666 310.12167,325.66666 310.58667,325.66666C311.54666,325.66666 312.54666,325.66666 313.06168,325.66666C314.66666,325.66666 315.22116,325.66666 316.34818,325.66666C316.91467,325.66666 317.47916,325.66666 318.59018,325.66666C319.13068,325.66666 320.65701,325.66666 321.58566,325.66666C322.45834,325.66666 323.29099,325.66666 323.69733,325.66666C324.90018,325.66666 325.7045,325.66666 326.52084,325.66666C327.35718,325.66666 328.66666,325.66666 329.58267,325.66666C330.51468,325.66666 330.97916,325.66666 331.89017,325.66666C333.16666,325.66666 333.93066,325.66666 334.63867,325.66666C335.64816,325.66666 336.66666,325.66666 337.38135,325.66666C338.45834,325.66666 339.133,325.66666 340.23566,325.66666C341.104,325.66666 341.98401,325.66666 342.84732,325.66666C343.86401,325.66666 344.7038,325.74878 345.60001,325.6665C346.51144,325.58282 347.03766,324.90552 348,324.6875C348.87799,324.48859 349.85928,324.75095 350.47467,324.24133C351.09702,323.72595 351.77301,323.13507 352.14282,322.31482C352.52808,321.46033 352.85266,320.71933 353.5,320.16666L354.11066,319.64133" id="svg_15" stroke-width="3" stroke="#000" fill="none"/>
  <path t="80581,80620,80620,80620,80628,80628,80628,80628,80628,80636,80636,80636,80636,80636,80644,80644,80644,80644,80644,80652,80652,80652,80652,80652,80652,80652,80652,80652,80660,80660,80660,80660,80660,80660,80660,80660,80660,80668,80668,80668,80668,80668,80668,80669,80676,80676,80676,80676,80676,80684,80684,80684,80684,80700,80700,80708,80708,80708,80708,80716,80716,80716,80716,80724,80724,80724,80724,80724,80732,80732,80732,80740,80740,80740,80740,80748,80748,80748,80748,80756,80756,80756,80756,80756,80764,80764,80764,80764,80772,80772,80772,80772,80772,80783,80783,80783,80788,80788,80788,80796,80796,80804,80804,80804,80812,80812,80812,80820,80820,80829,80829,80829,80829,80836,80836,80836,80836,80844,80844,80844,80852,80852,80852,80852,80860,80860,80860,80860,80868,80868,80868,80868,80876,80876,80876,80884,80884,80884,80884,80891,80891,80892,80892,80908,80908,80908,80916,80916,80924,80924,80924,80931,80932,80932,80940,80940,80940,80947,80947,80947,80948,80956,80956,80956,80963,80963,80963,80964,80972,80972,80972,80972,80972,80980,80980,80980,80980,80988,80988,80996,80996,81004,81004,81004,81011,81011,81020,81020,81028,81028,81036,81044,81044,81052,81052,81060,81060,81060,81068,81076,81076,81076,81084,81084,81084,81092,81092,81100,81100,81116,81124,81132,81132,81148,81156,81164,81164,81180,81188,81188" d="M301.5,282.66666C303.556,282.66934 304.56631,282.67612 305.31351,282.78101C306.50833,282.94876 307.30237,283.2294 307.70001,283.3765C308.50504,283.67426 309.28983,284.04465 310.5,284.5C311.2937,284.79865 312.09793,285.03815 312.89999,285.25601C313.69803,285.47278 314.90244,285.76111 315.7225,285.98016C316.15417,286.09546 317.08273,286.36646 317.58585,286.53818C319.34335,287.13809 320.00839,287.42798 320.724,287.72134C321.47815,288.03049 322.25931,288.36255 323.0625,288.70834C323.88199,289.06116 324.70825,289.42279 325.53601,289.78534C327.16684,290.4996 327.95602,290.84631 328.72665,291.17868C329.47604,291.50189 330.20544,291.81229 330.91666,292.10416C331.6055,292.38687 332.2739,292.65527 332.92667,292.89465C334.16156,293.3475 334.75589,293.52707 335.328,293.69867C335.88028,293.86432 336.94226,294.15149 337.93384,294.47202C338.4144,294.62735 339.78333,295.19989 340.21335,295.43466C341.06366,295.8989 341.8479,296.42465 342.61334,296.89868C343.32837,297.34149 344.32843,297.87326 344.95834,298.10416C345.80145,298.41321 346.81772,298.56931 347.72534,298.69199C348.66864,298.81949 349.45993,299.02634 350.04166,299.16666C350.98401,299.39398 352.02121,299.54874 352.75717,299.6185C353.52054,299.69086 354.31738,299.71619 355.5,300C356.3082,300.19397 357.07925,300.5159 357.828,300.81601C358.52988,301.09732 359.72806,301.51932 360.5,301.64584C361.26474,301.77121 362.47052,301.95142 363.172,302.09201C363.92117,302.24216 364.69901,302.41226 365.89999,302.54532C366.69806,302.63373 367.50085,302.65506 368.29999,302.71933C369.50153,302.81595 370.30069,302.94681 371.10001,303.09201C371.9007,303.23749 372.69672,303.40903 373.89999,303.5455C374.69821,303.63605 375.50381,303.65823 376.29999,303.77649C377.50739,303.95584 378.30197,304.22214 379.07867,304.51733C379.8327,304.80392 380.51129,305.15561 381.45715,305.42368C382.22684,305.64182 383.18277,305.65405 384.18399,305.668C385.00015,305.67938 385.82843,305.69745 386.81601,305.95065C387.51083,306.12878 388.66284,306.53226 389.45267,306.6095C390.27206,306.68961 391.33334,306.66666 392.04285,306.66666C392.89551,306.66666 393.90134,306.66666 394.73599,306.66666C395.66666,306.66666 396.46252,306.65286 397.34668,306.70267C397.98755,306.73877 399.02316,306.87766 400.11465,307.09201C400.84003,307.23447 401.52759,307.40198 402.73199,307.58401C403.49823,307.69983 404.27844,307.80457 405.14282,308.10934C405.81891,308.34775 406.87573,308.84229 407.61734,309.09866C408.66641,309.46133 409.34476,309.58487 410.32535,309.64532C410.98303,309.68588 412.02118,309.66666 412.74817,309.66666C413.83865,309.66666 414.53067,309.66666 415.73199,309.66666C416.5,309.66666 417.26801,309.66666 418.47067,309.66666C419.172,309.66666 419.92133,309.66666 420.70267,309.66666C421.89966,309.66666 422.69101,309.66666 423.45834,309.66666C424.18567,309.66666 425.457,309.66666 426.228,309.66666C427.09732,309.66666 428.10449,309.66666 428.95715,309.66666C429.92133,309.66666 430.72534,309.66672 431.54733,309.66666C432.57867,309.66656 433.28046,309.7081 434.18399,309.58133C435.1965,309.43927 436.04147,309.1452 436.66165,308.96216C437.66635,308.66562 438.37933,308.45471 439.47916,308.1875C440.18811,308.01526 441.16483,307.81924 441.99466,307.71933C442.74924,307.62848 443.83453,307.50613 444.81433,307.314C445.54257,307.1712 446.30444,306.98737 447.5,306.83334C448.29752,306.73059 449.09979,306.69467 449.89999,306.67734C450.69989,306.66 451.89957,306.67288 452.68649,306.66217C453.43762,306.65195 454.16611,306.76871 455.44534,306.38266C456.13458,306.17468 456.99484,305.78723 457.74667,305.60535C458.67914,305.37979 459.44748,304.96008 460.23868,304.51733C461.16583,303.99854 461.83734,303.71759 462.82132,303.6665C463.49939,303.63129 464.44788,303.38901 465.1955,303.01935C465.99292,302.62506 466.98941,302.71512 467.71066,302.63068C468.71042,302.51361 469.50333,302.15271 470.5,301.66666C471.0975,301.37527 471.83136,300.98578 472.87466,300.69199C473.65909,300.4711 474.5376,300.13629 475.18668,299.86533C476.1767,299.45203 476.99216,299.19739 477.73065,298.86667C478.54645,298.50131 479.22583,297.94699 480.15268,297.71933C481.0015,297.51083 481.81381,297.14346 482.70001,296.75067C483.46646,296.41098 484.20001,296.01935 485,295.66666C485.79999,295.314 486.60001,294.78784 487.29999,294.49734L487.89999,293.81601L488.5,293L489.21466,292.58401" id="svg_16" stroke-width="3" stroke="#000" fill="none"/>
 </g>
</svg>