<svg width="500" height="353.98230088495575" xmlns="http://www.w3.org/2000/svg" xmlns:svg="http://www.w3.org/2000/svg" xmlns:xlink="http://www.w3.org/1999/xlink">
 <!-- Created with SVG-edit - http://svg-edit.googlecode.com/ -->
 <g display="inline" class="layer">
  <title>Layer 1</title>
  <path t="0,300,344,402,402,481,527,551,632,692,708,708,751,825,864,880,997,1013,1050,1095,1103,1135,1135,1159,1200,1263,1311,1314,1319,1359,1432,1432,1608,1640,1640,1680,1680,1765,1765,2004,2082,2164,2300,2350,2350,2366,2433,2449,2503,2503,2614,2759,2847,2847,2896,2982,3142,3246,3246,3279,3364,3384,3451,3451,3626,3699,3735,3801,3899,3914,3960,4001,4016,4040,4063,4072,4111,4112,4136,4152,4168,4207,4232,4232,4256,4272,4288,4312,4352,4360,4376,4407,4416,4456,4517,4559,4607,4683,4727,4744,4801,4883,4949,4991,5015,5031,5071,5095,5127,5127,5151,5159,5215,5223,5247,5263,5280,5303,5327,5367,5383,5432,5485,5500,5536,5568,5568,5599,5632,5648,5648,5688,5751,5766,5784,5799,5823,5840,5978,5978,6018,6099,6136,6168,6176,6192,6200,6208,6239,6272,6272,6280,6296,6320,6328,6328,6344,6368,6416,6455,6488,6488,6520,6536,6552,6592,6592,6624,6624,6648,6672,6718,6718,6751,6759,6767,6792,6807,6824,6824,6833,6848,6900,6916,6916,6951,6967,6991,7000,7007,7023,7031,7055,7055,7071,7095,7143,7143,7159,7175,7183,7200,7207,7217,7233,7247,7271,7287,7295,7311,7327,7343,7351,7359,7383,7383,7399,7431,7431,7479,7596,7596,7648,7656,7688,7696,7696,7704,7720,7728,7736,7744,7744,7752,7776,7808,7824,7840,7856,7864,7872,7872,7880,7895,7904,7920,7928,7951,7960,7967,7968,7992,8000,8024,8040,8040,8048,8056,8064,8072,8088,8088,8096,8096,8112,8120,8143,8200,8200,8250,8311,8311,8493,8493,8509,8509,8527,8543,8551,8551,8567,8591,8600,8683,8727,8735,8751,8767,8776,8783,8792,8800,8816,8824,8824,8839,8840,8847,8863,8864,8864,8879,8895,8896,8981,9016,9099,9099,9166,9166,9288,9366,9408,9424,9440,9440,9448,9456,9480,9489,9512,9583,9583,9616,9640,9664,9664,9673,9688,9704,9728,9736,9768,9776,9792,9801,9824,9834,9834,9843,9865,9888,9896,9912,9912,9944,9976,9984,9984,9992,10001,10024,10024,10032,10040,10056,10096,10128,10184,10184,10249,10459,10563,10853,10853,10868,10889,10896,10920,10960,11008,11032,11099,11144,11184,11224,11224,11232,11272,11334,11368,11465,11465,11516,11567,11591,11615,11631,11647,11671,11687,11727,11727,11759,11815,11816,11832,11848,11864,11864,11888" d="M212.3,132.69115C213.73599,132.26582 214.56706,131.9274 215.39999,131.46965C216.07503,131.09868 216.84328,130.3766 217.1785,129.59132C217.53708,128.75134 218.23911,128.47592 218.3,127.59115C218.3618,126.69328 218.21782,125.7433 218.91066,125.12715C219.56848,124.54214 220.15099,124.15627 220.31067,123.29115C220.46413,122.45979 220.95883,121.63617 221.3,120.85782C221.64127,120.07924 222.11311,119.33169 222.5215,118.59115C222.89346,117.91666 223.67285,117.25816 224.49867,116.77515C225.19513,116.36781 225.40303,115.4525 226.10133,114.97649C226.85065,114.46571 227.51724,113.96364 228.3,113.52448C229.00003,113.13174 229.769,112.75776 230.62134,112.46965C231.32402,112.23213 232.16632,111.7309 232.85333,111.12715C233.55739,110.50842 234.15501,109.9217 234.29866,108.97649C234.43327,108.09065 234.15726,107.17805 234.31067,106.29115C234.45483,105.4577 235.19157,104.96845 235.77916,104.19115C236.33675,103.45354 236.11121,102.42191 236.52133,101.59132C236.87071,100.88375 237.19133,99.96625 237.91066,99.70182C238.74545,99.39495 239.7,99.69115 240.5955,99.69115C241.5215,99.69115 242.46149,99.49089 243.3,99.85782C244.03535,100.1796 244.29936,101.12715 244.3,101.99115C244.30067,102.89115 244.6389,103.71262 245.01601,104.40582C245.44881,105.20139 245.85359,105.64371 246.60001,106.04382C247.44376,106.49609 248.3,106.69115 249.13333,106.69115C249.91066,106.69115 250.89999,106.69115 251.8,106.69115C252.68933,106.69115 253.59013,106.78353 254.5,106.68982C255.31261,106.60612 255.95796,105.94068 256.60001,105.39565C257.35455,104.75513 258.2608,104.70123 258.82083,104.17032C259.51721,103.51016 260.31955,103.30702 261.01468,102.60715C261.55835,102.05976 261.34985,100.86156 262.10132,100.69248C262.97995,100.49479 263.80515,100.17558 264.49866,99.49249C265.13812,98.86264 265.92914,98.69055 266.70001,98.26582C267.52136,97.81326 268.45346,97.98335 269.24734,97.68665C270.06668,97.38043 270.69946,96.70915 271.60001,96.69115C272.49847,96.67319 273.42484,96.34405 274.27466,96.70182C275.0567,97.03107 275.28198,98.09061 275.29999,98.99115C275.31793,99.88963 275.29999,100.77515 275.29999,101.69115C275.29999,102.49115 275.29999,103.39115 275.29999,104.25515C275.29999,105.21198 275.30066,106.09115 275.29999,106.99115C275.29932,107.88982 274.69168,108.43 274.336,109.12715C273.94495,109.89362 273.57452,110.56512 273.31067,111.30182C273.01782,112.11952 273.30063,113.12715 273.29999,113.99115C273.29932,114.89115 273.10977,115.81735 272.58401,116.40582C271.98135,117.08035 271.36087,117.78503 271.29999,118.69115C271.24634,119.48935 271.29999,120.40582 271.29999,121.30182C271.29999,122.19115 271.29999,123.09115 271.29999,123.98665C271.29999,124.91265 271.29999,125.79115 271.29999,126.69115C271.29999,127.49115 271.34488,128.54471 272.10132,128.68982C272.99832,128.86191 274.01221,128.29755 274.86401,128.72716C275.56281,129.07957 276.21216,129.3268 276.94284,129.74832C277.75394,130.21625 278.26666,130.91174 278.89999,131.26582C279.76126,131.74733 280.74457,131.59569 281.5,131.97514C282.36719,132.41074 283.10022,132.67174 284,132.69115C284.86456,132.70979 285.21576,133.46457 285.73599,134.12715C286.31589,134.86574 286.9566,135.43829 287.60001,135.98665C288.35336,136.62872 289.0582,136.96855 289.46667,137.69115C289.84479,138.36003 290.82565,138.82791 291.43866,139.29115C292.25558,139.90849 292.72446,140.46848 293.52151,140.91249C294.18732,141.28339 295.00616,141.73299 295.79999,142.19115C296.50424,142.59761 297.06342,143.14824 297.58533,143.88982C298.13544,144.67145 299.02747,144.50287 299.89999,144.72716C300.75241,144.94627 301.46667,145.69115 302.29999,145.69115C303.10001,145.69115 304.00864,145.73346 304.77917,146.19115C305.59476,146.6756 306.5,146.69115 307.39999,146.69115C308.29999,146.69115 309.13333,146.69115 310.00983,146.69115C310.81732,146.69115 311.77917,146.69115 312.68933,146.69115C313.63333,146.69115 314.32083,146.69115 315.2785,146.69115C316.29999,146.69115 317.13333,146.69115 318.00449,146.69115C318.89999,146.69115 319.79999,146.69115 320.68933,146.69115C321.58533,146.69115 322.5,146.69115 323.39999,146.69115C324.29999,146.69115 325.13333,146.69115 326.00449,146.69115C326.89999,146.69115 327.86957,146.57971 328.60001,147.04832C329.3999,147.56151 329.83459,148.41696 330.60449,148.63399C331.58456,148.91026 332.43866,148.69115 333.34818,148.69115C334.29999,148.69115 335.10001,148.69115 336,148.69115C336.86401,148.69115 337.64731,149.05833 338.29999,149.69115C338.8912,150.26436 339.69946,150.67314 340.60001,150.69115C341.49982,150.70914 342.39999,150.69115 343.29999,150.69115C344.10001,150.69115 345.01468,150.69115 345.91068,150.69115C346.79999,150.69115 347.70001,150.69115 348.59549,150.69115C349.46933,150.69115 350.32083,150.69115 351.2785,150.69115C352.09866,150.69115 353.01468,150.69115 353.91068,150.69115C354.79999,150.69115 355.70001,150.69115 356.59549,150.69115C357.52151,150.69115 358.40128,150.64334 359.29999,150.69115C360.10342,150.73387 360.88196,151.30412 361.70001,151.66582C362.48447,152.01265 363.28632,152.60326 364,152.68665C364.89392,152.79109 365.79999,152.68889 366.70001,152.69115C367.60001,152.69341 368.4436,153.0842 369.18533,153.40715C370.07669,153.79524 370.81601,153.69048 371.77917,153.69115C372.77917,153.69183 373.72726,153.53819 374.5,153.97649C375.18835,154.36691 375.70001,155.09116 376.39984,155.79099C377.01468,156.40582 377.87161,156.40895 378.68933,156.70181C379.42603,156.96567 379.94562,157.65479 380.68933,158.11649C381.51062,158.62634 382.43405,158.54463 383.10001,158.77649C383.98566,159.08482 384.6322,159.73285 385.32535,160.26582C385.95871,160.75282 386.91937,160.52505 387.79999,160.71199C388.64313,160.89098 389.27408,161.67314 390.10132,161.69115C390.99979,161.71069 391.89999,161.6889 392.77917,161.69115C393.66165,161.69341 394.63821,161.87698 395.29999,162.21199C396.15762,162.64616 396.69614,163.36888 397.60901,163.63399C398.59421,163.9201 399.30084,163.69115 400.23749,163.69115C401.21335,163.69115 402.00983,163.69115 402.81732,163.69115C403.77917,163.69115 404.68954,163.71107 405.63333,163.69115C406.4859,163.67314 407.36725,163.32085 408.09866,162.97514C408.90262,162.59515 409.85358,162.73859 410.60001,162.33849C411.44376,161.88622 412.29999,161.69115 413.10001,161.69115C414,161.69115 414.91977,161.69341 415.70001,161.26582C416.52139,160.8157 417.354,160.74146 418.29999,160.69115C419.10339,160.64842 419.74988,160.08578 420.59549,159.74832C421.43091,159.41492 422.11676,159.01237 422.89999,158.66582C423.71796,158.30391 424.59131,157.90491 425.24734,157.33849C425.83972,156.82703 426.60001,156.69115 427.5,156.69115C428.39984,156.69115 429.24603,156.54697 429.94666,156.11649C430.71603,155.64377 431.72189,155.77682 432.31467,155.08049C432.88855,154.40633 433.50464,153.81609 434.39999,153.69098C435.30646,153.56433 435.83688,152.93265 436.77917,152.71199C437.6344,152.51172 438.43835,152.30507 439.10001,151.97514C439.94336,151.5546 440.94284,151.69115 441.86932,151.69115C442.65182,151.69115 443.56589,151.89847 444.49866,151.68982C445.30573,151.50928 445.7756,150.79646 446.60001,150.33849C447.34229,149.92613 448.0813,149.57674 448.86401,149.11649C449.63983,148.66029 450.51273,148.54048 451.39984,148.69131C452.25092,148.83603 452.29999,149.89114 452.29999,150.79115C452.29999,151.69115 452.29999,152.52449 452.29999,153.39565C452.29999,154.29115 452.29999,155.19115 452.29999,156.08049C452.29999,156.97649 452.45352,157.93961 452.13333,158.69115C451.80051,159.47234 451.29581,160.28735 450.65268,160.68665C449.89752,161.1555 449.48676,161.82954 449.13333,162.69115C448.85797,163.36244 448.37753,164.36813 447.59467,164.63399C446.68277,164.94366 445.76602,164.94876 445.42151,165.79099C445.08426,166.61545 444.63037,167.08867 444.01468,167.60715C443.34921,168.16756 442.37943,168.1701 441.65717,168.68665C441.12067,169.07033 440.76871,169.96481 439.94818,170.33398C439.08948,170.72034 438.20001,170.91264 437.60001,171.39565L436.89999,172.08049" id="svg_1" stroke-width="3" stroke="#000" fill="none"/>
  <path t="15365,15415,15416,15432,15440,15448,15456,15472,15472,15480,15480,15488,15496,15512,15512,15524,15524,15528,15544,15560,15560,15576,15576,15583,15583,15592,15601,15608,15632,15640,15672,15704,15728,15744,15760,15768,15784,15801,15808,15824,15840,15840,15848,15872,15881,15904,15944,15960,15976,15984,16008,16040,16040,16056,16064,16072,16080,16080,16182,16197,16224,16232,16248,16320,16331,16331,16339,16344,16352,16360,16360,16368,16376,16408" d="M479.29999,137.69115C477.25183,139.33398 476.50513,139.78619 475.79999,140.19115C475.00708,140.64651 473.81772,140.36186 473.35718,141.04382C472.8074,141.85791 473.47668,142.77588 473.07849,143.66948C472.74561,144.41653 471.77322,144.74815 471.19016,145.39565C470.62872,146.0191 469.80811,146.3251 469.01468,146.97649C468.45065,147.43953 467.84256,148.25217 467,148.63849C466.23123,148.99098 465.57053,149.43327 465.10001,150.17516C464.67255,150.84915 464.20212,151.92563 463.60001,152.32948C462.79773,152.8676 461.5954,152.58055 461.3045,153.33849C460.97189,154.20508 460.56906,154.54282 459.91068,155.12715C459.21747,155.74239 458.89999,156.40862 458.00449,156.69565C457.24365,156.93951 456.74924,157.63133 456,158.04382C455.16138,158.50554 454.12,158.31436 453.46667,158.85782C452.77667,159.43178 452.75562,160.44662 451.79999,160.67032C450.92346,160.8755 449.84048,160.50903 449.32535,161.12715C448.79767,161.76035 448.72931,162.85338 448.13333,163.52449C447.59491,164.13078 446.85806,164.47673 446.10132,164.97649C445.4924,165.37863 445.25,166.39264 444.79999,167.19115C444.35083,167.98814 443.80133,168.39371 443.00534,168.74382C442.19128,169.10188 441.50745,169.69157 441.30133,170.49248C441.07687,171.36462 440.82413,172.25493 440,172.63849C439.23331,172.99532 438.59888,173.39452 437.91068,174.08049C437.24628,174.74274 436.6886,175.35556 435.81601,175.88982C435.14963,176.29781 434.18533,176.60582 433.29999,176.69115L432.46667,176.85782" id="svg_2" stroke-width="20" stroke="#fff" fill="none"/>
  <path t="18521,18552,18567,18576,18583,18592,18600,18607,18615,18632,18640,18664" d="M431.29999,107.69115C432.29999,108.67032 433.11166,108.75658 433.38535,109.49249C433.70816,110.36048 434.68835,110.66697 435.29999,111.19115C435.94629,111.74504 436.384,112.40715 437.17868,112.91248L437.65268,113.63848L438.27466,114.12715" id="svg_3" stroke-width="20" stroke="#fff" fill="none"/>
  <path t="23008,23477,23477,23493,23549,23565,23591,23599,23680,23732,23748,23791,23831,23855,23855,23871,23887,23903,23903,23919,23935,23943,23951,24007,24055,24087,24087,24119,24143,24167,24217,24217,24280,24320,24336,24352,24368,24384,24400,24400,24440,24464,24464,24488,24504,24512,24520,24536,24552,24584,24634,24649,24716,24751,24759,24847,24931,25125" d="M450.29999,146.69115C451.29999,146.85782 452.09845,147.34535 452.27917,148.17032C452.48401,149.10521 452.29999,149.99115 452.29999,150.89114C452.29999,151.79099 452.29999,152.66582 452.29999,153.49248C452.29999,154.39114 452.45917,155.42883 451.85333,156.08049C451.27737,156.70001 450.01627,156.28217 449.41434,157.04832C448.88879,157.71729 449.18536,158.90952 448.59549,159.33398C447.80511,159.90274 446.98904,160.30705 446.10132,160.60582C445.28793,160.87956 444.61673,161.08904 443.94284,161.63849C443.23944,162.21202 442.30569,162.13399 441.65717,162.80098C441.09427,163.3799 441.41919,164.63309 440.77917,165.19115C440.10492,165.77905 439.40625,166.16513 439.01599,166.89114C438.55652,167.74591 437.89816,168.25673 437.42151,168.91249C436.91901,169.60379 436.89865,170.57303 436.49866,171.20848C435.94626,172.08603 435.37289,172.78047 434.70001,173.25516C433.96521,173.77353 432.89658,173.97168 432.46667,174.69115C432.00629,175.46162 431.63062,176.23946 430.94284,176.63399C430.12738,177.10176 429.44092,176.99997 428.94733,177.63849C428.42676,178.3119 427.68933,178.68048 426.82083,178.71199L426.27466,179.26582L425.58401,179.68982L424.79999,180.19115" id="svg_4" stroke-width="3" stroke="#000" fill="none"/>
  <path t="33794,34269,34363,34379,34415,34607,34607,34623,34623,34647,34679,34687,34703,34711,34727,34798,34814,34913,34913,34950,34984,35000,35008,35024,35071,35080,35096,35096,35353,35400,35498,35498,35536,35536,35692,35748,35815,35815,35883,35980,35995,36040,36040,36064,36111,36128,36168,36200,36248,36280,36296,36296,36344,36368,36408,36433,36440,36464,36472,36480,36528,36560,36568,36608,36656,36663,36712,36712,36759,36760,36792,36913,36929,36960,37008,37024,37064,37080,37088,37112,37144,37176,37192,37216,37224,37256,37296,37320,37352,37368,37384,37400,37408,37464,37496,37520,37528,37552,37576,37600,37624,37648,37731,37782,37864,37864,37936,38078,38116,38182,38265,38311,38336,38343,38376,38543,38583,38631,38695,38712,38712,38765,38815,38823,38832,38832,38839,38899,38944,38960,39265,39949,39991,40024,40301,40301,40316,40574,40631,40647,40687,40719,40767,40783,40791,40791,40815,40865,40881,40904,40960,40968,41000,41050,41065,41088,41096,41150,41165,41231,41283,41283,41298,41298,41429,41445,41531,41531,41547,41599,41623,41623,41655,41687,41735,42049,42049,42146,42200,42215,42240,42240,42264,42312,42312,42352,42352,42368,42416,42456,42480,42527,42559,42599,42615,42639,42663,42664,42687,42703,42719,42720,42728,42744,42744,42783,42839,42863,42864,42911,42966,43047,43062,43062,43100,43152,43176,43200,43249,43265,43295,43296,43343,43383,43399,43399,43408,43415,43449,43480,43496,43503,43512,43535,43613,43629,43648,43688" d="M429.29999,174.69115C428.49866,174.69115 427.59946,174.74736 426.79999,175.19115C426.00394,175.63303 425.21155,175.96326 424.59549,176.33849C423.77682,176.83711 422.79999,176.69115 421.91068,176.69115C421.01468,176.69115 420.00211,176.53181 419.35266,177.04382C418.73807,177.52837 418.00449,177.69115 417.07849,177.69115C416.20001,177.69115 415.29999,177.69115 414.5,177.69115C413.46667,177.69115 412.68933,177.69115 411.79999,177.69115C410.89999,177.69115 410.00449,177.69115 409.07849,177.69115C408.20001,177.69115 407.29999,177.69115 406.5,177.69115C405.46667,177.69115 404.90454,178.23309 403.97882,178.56998C403.19171,178.85641 402.61594,179.3204 402.25183,179.98582C401.81088,180.79169 401.29999,181.30182 401.29999,182.19115C401.29999,183.09116 401.29999,183.98665 401.29999,184.85782C401.29999,185.79115 401.29999,186.69115 401.29999,187.49115C401.29999,188.33398 401.29999,189.30182 401.29999,190.19115C401.29999,191.09116 401.29999,191.99115 401.29999,192.89114C401.29999,193.79115 401.29999,194.69115 401.29999,195.49115C401.29999,196.33398 401.29999,197.30182 401.29999,198.19115C401.29999,199.09116 401.29999,199.98665 401.29999,200.85782C401.29999,201.79115 401.63715,202.84009 401.13333,203.52449C400.65274,204.17737 400.1091,204.69385 399.65268,205.39565C399.17825,206.12512 398.95758,207.00497 398.29999,207.69115C397.74811,208.26701 397.47125,209.05043 397.26401,209.84048C397.03946,210.69643 395.82242,210.93225 395.46667,211.69115C395.0715,212.53416 395.28961,213.39571 395.29999,214.29115C395.31042,215.19133 395.94318,215.81197 396.28934,216.71649C396.56671,217.44128 396.29999,218.39114 396.29999,219.29115C396.29999,220.25516 396.29999,221.12715 396.29999,221.99115C396.29999,222.89114 396.07751,223.90706 396.58401,224.60715C397.08578,225.3007 397.29999,225.99115 397.29999,226.89114C397.29999,227.79099 396.96594,228.80728 397.46667,229.52449C397.96695,230.24107 398.29999,230.79115 398.29999,231.69115C398.29999,232.60715 398.29999,233.39565 398.29999,234.29115C398.29999,235.19115 398.29999,236.17032 398.29999,237.04832C398.29999,237.89114 398.29999,238.79115 398.29999,239.69115C398.29999,240.60715 398.29999,241.39565 398.29999,242.29115C398.29999,243.19115 398.29999,244.17032 398.29999,245.04832C398.29999,245.89114 398.41074,246.79799 398.29999,247.69115C398.18848,248.59038 397.34262,248.9735 397.29999,249.89114C397.25821,250.79018 397.54141,251.64153 397.94733,252.33398C398.38629,253.08284 398.19293,253.9977 398.30133,254.89114C398.4129,255.81079 399.15164,256.10199 399.86401,256.71649C400.4733,257.24207 400.13477,258.31033 400.32083,259.19116C400.49985,260.03854 401.63083,261.01178 401.07849,261.56964C400.45453,262.19983 399.29999,261.69116 398.5,261.69116C397.58533,261.69116 396.6893,261.6965 395.79999,261.69116C394.91061,261.68582 394.27795,261.11105 393.58401,260.69247C392.86737,260.26019 391.87692,259.97705 391.42133,259.24847C391.03867,258.63654 390.57684,257.8298 390.3045,257.04382C390.0184,256.21811 389.66739,255.5679 389.32083,254.69115C389.02615,253.94568 389.1586,253.16348 388.65268,252.63399C388.08417,252.03897 388.49075,250.96286 388.26401,250.09116C388.04123,249.23476 386.89526,249.02942 386.384,248.40448C385.80463,247.69627 385.77939,246.89932 385.46667,245.85782C385.23053,245.07132 385.39557,244.16402 385.28934,243.28049C385.17776,242.35262 384.63214,241.77632 384.336,240.75249C384.10587,239.95685 383.91898,239.04984 383.65268,238.34381C383.32138,237.4655 383.29999,236.46965 383.29999,235.59116C383.29999,234.69115 383.86835,233.62192 383.21466,232.97649C382.64844,232.41742 382.48135,233.84462 382.13333,234.69115C381.85745,235.36223 381.32843,236.17053 381.29999,237.02449C381.27161,237.87677 380.92972,238.75841 380.58401,239.48982C380.20404,240.29378 379.68115,241.03346 379.38535,241.89114C379.09061,242.74579 379.31924,243.69138 379.29999,244.52449C379.28198,245.30244 378.78259,246.04152 378.384,246.89114C377.98044,247.75142 377.45428,248.37129 377.29999,249.21199C377.14124,250.07697 376.75995,250.94449 376.11465,251.25516C375.21927,251.68623 374.34735,251.9287 373.65717,252.33849C372.90701,252.78387 372.08121,253.19167 371.29999,253.52449C370.54846,253.84468 369.73334,253.79465 369.24283,254.33849C368.61737,255.03197 368.62311,255.86169 368.12933,256.40582C367.53995,257.05533 366.43274,257.0643 365.87466,257.66583C365.29755,258.28787 364.62451,258.61066 363.89999,259.12714C363.11444,259.68713 362.64783,260.49301 361.73599,260.68048C360.87115,260.85831 359.92148,260.80997 359.16135,261.30182C358.39893,261.79517 357.97394,262.5546 357.32535,263.11649C356.73746,263.62579 355.88947,263.55826 355,263.69565C354.06989,263.83932 353.46667,264.52448 352.68933,264.69116L351.82083,264.71198L351.24734,265.33847L350.49866,265.68982" id="svg_5" stroke-width="3" stroke="#000" fill="none"/>
  <path t="47938,47954,47975,47983,48007,48015,48032,48032,48039,48047,48048,48055,48055,48063,48071,48079,48087,48087,48095,48111,48127,48127,48144,48151,48167,48207,48453" d="M345.29999,275.69116C345.29999,273.10181 345.29773,272.19116 345.29999,271.29114C345.30225,270.39566 345.74612,269.70917 346.62134,269.69116C347.47449,269.67361 348.66428,269.41641 349.17868,270.13397C349.61966,270.74911 349.45813,271.94345 350.10132,272.40448C350.83878,272.93311 351.31024,273.42151 351.82083,274.21198C352.35681,275.04175 352.68207,275.7276 353.216,276.52182C353.66119,277.18408 354.50195,277.71255 354.94284,278.39114C355.45764,279.1835 356.00449,279.68665 356.94284,279.69116L357.82083,279.69116L358.75833,279.69116" id="svg_6" stroke-width="3" stroke="#000" fill="none"/>
  <path t="50436,50503,50511,50519,50537,50551,50551,50559,50583,50583,50599,50623,50624,50631,50631,50639,50648,50648,50655,50665,50665,50671,50672,50672,50679,50679,50679,50679,50687,50687,50687,50687,50688,50695,50695,50695,50695,50696,50703,50703,50703,50703,50703,50703,50711,50711,50711,50719,50719,50719,50727,50727,50743,50908,50908,50924,50924,50924,50945,50945,50952,51016,51016,51016,51031,51056,51064,51080,51088,51088,51096,51096,51104,51104,51112,51112,51120,51128,51128,51128,51136,51136,51144,51160,51176,51184,51216,51240" d="M342.29999,278.69116C343.89999,278.08047 344.43625,277.17694 345.216,276.77649C345.87485,276.43814 346.77097,276.37451 347.64734,276.04382C348.53094,275.71042 349.42212,275.49591 350,274.98666C350.74048,274.33417 351.45801,273.79413 352.29999,273.71198C353.27411,273.61694 354.10913,273.79196 354.936,273.65515C355.8064,273.51114 356.53967,272.87207 357.46799,272.69247C358.34619,272.52258 358.98801,272.69116 359.98532,272.69116C360.82083,272.69116 361.70132,272.69116 362.90399,272.69116C363.53201,272.69116 364.20801,272.69116 364.95599,272.69116C366.26416,272.69116 367.26251,272.69116 367.78665,272.69116C368.85999,272.69116 369.39917,272.69116 370.96667,272.69116C371.45715,272.69116 372.39017,272.69116 373.27917,272.69116C374.14816,272.69116 375.46667,272.69116 375.92117,272.69116C376.84818,272.69116 377.77917,272.69116 378.69016,272.69116C379.13068,272.69116 380.728,272.69116 381.41733,272.69116C382.33383,272.69116 383.37851,272.69116 384.064,272.69116C384.89868,272.69116 385.89551,272.69116 386.64282,272.69116C387.664,272.69116 388.591,272.69116 388.47665,272.69116C387.53333,272.69116 386.82083,272.69116 385.79999,272.69116C384.85718,272.69116 384.11465,272.69116 383.18533,272.69116C382.20001,272.69116 381.29999,272.69116 380.5,272.69116C379.60001,272.69116 378.70001,272.69116 377.82083,272.69116C376.93832,272.69116 375.97867,272.69116 375.12534,272.69116C374.18399,272.69116 373.41599,272.69116 372.46399,272.69116C371.69867,272.69116 370.7045,272.69116 369.95715,272.69116C368.91467,272.69116 367.96667,272.69116 367.29468,272.69116C366.30533,272.69116 365.27066,272.69116 364.50266,272.69116C363.60001,272.69116 362.70001,272.69116 361.82083,272.71198L361.27466,273.30182L360.86401,274.08047L360.10001,274.60715" id="svg_7" stroke-width="20" stroke="#fff" fill="none"/>
  <path t="56096,56164,56164,56215,56215,56224,56240,56240,56248,56248,56255,56263,56271,56279,56287,56295,56295,56295,56303,56311,56311,56319,56335,56383,56383,56399,56432,56597,56695,56710,56728,56744,56752,56924,56960,56960,56968,56984,56984,56999,57007,57015,57031,57031" d="M337.29999,272.69116C339.89099,271.39566 340.69644,270.83551 341.63333,270.69116C342.31281,270.58649 343.4743,270.88419 344.29999,270.52448C344.98428,270.22635 345.53836,269.28394 346.18533,268.97647C347.05438,268.56348 348.07693,268.72058 348.72534,268.26581C349.49432,267.72647 350.3584,267.75482 351.29999,267.52448C352.11011,267.32629 352.82001,266.89758 353.54285,266.39566C354.30569,265.86594 355.07831,265.56985 355.89999,265.11649C356.67059,264.69128 357.51715,264.46527 358.10132,263.88983C358.79483,263.2067 359.7937,263.07336 360.24283,262.33398C360.73074,261.53076 359.86456,260.70917 359,260.69116C358.1015,260.67245 356.43668,261.54221 356.36166,260.69116C356.27798,259.74182 357.86511,260.03625 358.71066,259.71649C359.59302,259.38281 360.40317,259.30197 361.13068,258.49249C361.69763,257.86166 362.39999,257.69116 363.29999,257.69116L364.10001,257.69116" id="svg_8" stroke-width="20" stroke="#fff" fill="none"/>
  <path t="58003,58113,58244,58312,58473" d="M360.29999,261.69116C361.01599,260.97516 361.79999,260.69116 362.73599,260.69116L363.60001,260.69116" id="svg_9" stroke-width="20" stroke="#fff" fill="none"/>
  <path t="61033,61255,61315,61380,61416,61416,61416,61497,61611,61611,61664,61704,61728,61744,61768,61776,61800,61864,61911,61911,61996,62040,62048,62088,62088,62128" d="M373.29999,246.69115C373.29999,248.52449 372.9317,249.24303 372.09866,249.60715C371.18481,250.00659 370.44986,250.08366 369.784,250.49248C368.89938,251.0356 368.09344,251.70204 367.65717,252.33398C367.16293,253.04984 367.29999,253.99115 367.29999,254.89114C367.29999,255.88982 367.35986,256.74622 367.29999,257.49249C367.2164,258.53448 366.55099,258.97504 366.07867,259.79099C365.68335,260.47394 365.30219,261.21198 365.29999,262.09116C365.29773,262.99115 365.01468,263.88983 364.49866,264.40582L363.58533,264.68982" id="svg_10" stroke-width="3" stroke="#000" fill="none"/>
  <path t="63863,64117,64152,64176,64184,64232,64282,64282,64350,64414,64414,64465,64512,64536,64536,64552,64568,64616,64640,64648,64672,64704,64736,64784,64800,64848,64856,64904,64904,64928,64944,64998,65014,65048,65064,65072,65111,65111,65128,65152,65198,65214,65231,65247,65287,65319,65319,65359,65367,65431,65447,65472,65496,65512,65536,65536,65544,65561,65630,65630,65630,65663,65680,65732,65776,65847,65887,65911,65959,65983,65999,66015,66031,66055,66071,66087,66119,66135,66183,66311,66326,66344,66352,66360,66368,66376,66384,66384,66392,66400,66400,66408,66408,66416,66448,66448,66848,66864" d="M349.29999,261.69116C350.29999,261.69116 350.84531,261.24139 351.58533,260.77649C352.36218,260.28845 353.08524,260.34393 353.52151,259.59116C353.97729,258.80475 354.70001,258.29114 355.39984,257.59131C355.94284,257.04831 356.21591,256.21133 356.65268,255.39114C357.05179,254.64165 356.87076,253.73761 357.38535,252.97649C357.83658,252.30908 359.04123,252.14755 359.26401,251.29115C359.49078,250.41943 359.16269,249.41003 359.65268,248.74382C360.15591,248.0596 360.29999,247.29115 360.29999,246.39114C360.29999,245.49248 360.29999,244.60715 360.29999,243.69115C360.29999,242.89114 360.29999,241.99115 360.29999,241.12715C360.29999,240.17032 360.29999,239.29115 360.29999,238.39114C360.29999,237.49248 360.29999,236.60715 360.29999,235.69115C360.29999,234.89114 360.29999,233.99115 360.29999,233.12715C360.29999,232.17032 360.29999,231.29115 360.29999,230.39114C360.29999,229.49248 360.29999,228.60715 360.29999,227.69115C360.29999,226.89114 360.29999,225.99115 360.29999,225.12715C360.29999,224.17032 360.29999,223.29115 360.29999,222.39114C360.29999,221.49248 360.29999,220.60715 360.29999,219.69115C360.29999,218.89114 360.33765,217.929 359.79999,217.21199C359.22546,216.44583 358.49014,216.03279 358.31067,215.09116C358.14215,214.207 358.29999,213.30182 358.29999,212.40582C358.29999,211.49115 358.29999,210.59116 358.29999,209.69115C358.29999,208.81248 358.29999,207.98665 358.29999,207.09116C358.29999,206.19115 358.29999,205.29115 358.29999,204.39114C358.29999,203.49115 358.29999,202.59116 358.29999,201.69115C358.29999,200.81248 357.96906,200.23875 357.46667,199.52449C356.97775,198.82936 357.30209,197.73387 356.49866,197.69115C355.60129,197.64342 354.70001,197.69115 353.79999,197.69115C352.88934,197.69115 351.97867,197.69115 351.29999,197.69115C350.18533,197.69115 349.29999,197.69115 348.54285,197.69115C347.64734,197.69115 346.784,197.69115 345.84167,197.69115C344.85718,197.69115 344.11465,197.69115 343.18668,197.69249L342.38535,197.97649" id="svg_11" stroke-width="3" stroke="#000" fill="none"/>
  <path t="69067,69176,69192,69232,69232,69240,69248,69265,69288,69304,69336,69413,69413,69464,69464,69464,69503,69547,69547,69563,69599,69655,69687,69703,69703,69711,69727,69751,69759,69783,70065" d="M360.29999,186.69115C359.42133,187.91249 358.85806,188.47673 358.10132,188.97649C357.4924,189.37863 357.19073,190.36038 356.49866,190.77515C355.70364,191.2516 355.51315,192.33078 354.79999,192.67032C353.96365,193.0685 353.41257,193.26697 353.24734,194.10014C353.0499,195.09581 353.03256,196.08492 352.24734,196.68214C351.63452,197.14825 350.85095,197.52612 350.58533,198.20848C350.18042,199.24857 349.83386,200.06636 349.42133,200.79099C348.96988,201.58395 348.59744,202.18983 348.24734,202.98582C347.88928,203.79987 347.24734,204.33849 346.49866,204.68982L345.60001,204.69115L344.70001,204.72716L343.89999,205.10582" id="svg_12" stroke-width="20" stroke="#fff" fill="none"/>
  <path t="72162,72293,72293,72308,72335,72343,72360,72376,72415,72423,72432,72432,72448,72464,72481,72504,72504,72520,72527,72597,72612,72612,72640,72656,72656,72665,72665,72665,72672,72680,72680,72680,72688,72688,72696,72696,72704,72712,72712,72728,72728,72736,72744,72760,72768,72768,72776,72792,72808,72808,72880,72947,72963,72991,72999,73015,73023,73047,73079,73135,73143" d="M286.29999,220.69115C287.29999,220.69115 288.10001,220.69115 289.01468,220.69115C289.91068,220.69115 290.79999,220.69115 291.70001,220.69115C292.59549,220.69115 293.52151,220.69115 294.39999,220.69115C295.29999,220.69115 296.10001,220.69115 297.01468,220.69115C297.91068,220.69115 298.83975,220.7346 299.62115,220.46982C300.46463,220.18399 301.31461,219.69649 302.10132,219.69115C302.99997,219.68506 304.00061,220.08545 304.86401,219.65515C305.56888,219.30386 305.82584,218.16171 306.34167,217.71199C307.23068,216.93695 307.89053,216.75117 308.81467,216.69382C309.68365,216.63989 310.63333,216.69115 311.55066,216.69115C312.29468,216.69115 313.34695,216.79167 314.18268,216.60582C314.97977,216.42856 315.65759,216.00191 316.54285,215.39565C317.30908,214.87088 318.11432,214.69341 319.06668,214.69115C319.77917,214.68947 320.81464,214.84575 321.73599,214.68048C322.53467,214.53722 323.29044,213.80191 324.10001,213.69249C324.99377,213.57169 325.65094,213.11763 326.62134,212.81265C327.27585,212.60696 328.47122,212.9911 329.27466,212.68048C330.06754,212.37395 330.73914,211.95152 331.59549,211.68665C332.3588,211.45056 332.87466,210.70181 333.65268,210.33398L334.17868,209.59132L334.52151,208.81265L335.39999,208.69115" id="svg_13" stroke-width="3" stroke="#000" fill="none"/>
  <path t="73710,73778,73847,73863,73895,73896,73920,73927,73959,74014,74047,74087,74095,74103,74127,74127,74143,74143,74159,74175,74207,74215,74247,74264,74303,74347,74392,74408,74424,74464,74520,74582,74582,74597,74632,74746,74844,74860,74913,74929,75124,75195,75195,75263,75330,75367,75375,75478,75608,75624,75639,75640,75655,75697,75744,75776,75800,75976" d="M327.29999,212.69115C328.384,210.97649 328.9696,210.29364 329.58533,209.77515C330.25079,209.21475 331.06961,208.86047 331.89999,208.70181C332.84799,208.52068 333.29495,207.96791 333.91068,207.65515C334.69537,207.25656 335.51151,206.85797 336.39984,206.69098C337.19559,206.5414 337.41232,205.45428 338.06168,205.04832C338.86008,204.54918 339.73419,204.81905 340.65332,204.26582C341.4252,203.80124 341.99954,203.26331 342.77917,202.69115C343.41833,202.22208 344.02039,201.66498 344.77917,201.19115C345.53833,200.71709 346.40439,200.77983 347.29999,200.69115C348.14569,200.60741 348.58945,199.82094 349.46667,199.69115C350.30734,199.56677 350.78143,198.8893 351.29999,198.21199C351.78372,197.58015 352.86401,197.69115 353.73599,197.69115C354.60001,197.69115 355.50046,197.66248 356.39984,197.69115C357.29688,197.71974 357.29999,198.69115 357.29999,199.49115C357.29999,200.40582 357.29999,201.30182 357.29999,202.19115C357.29999,203.09116 357.29999,203.98665 357.29999,204.91264C357.29999,205.79115 357.29999,206.69115 357.29999,207.49115C357.29999,208.40582 357.29999,209.30182 357.32083,210.17032L357.87466,210.71649L358.2955,211.39565L358.29999,212.33398" id="svg_14" stroke-width="3" stroke="#000" fill="none"/>
  <path t="80212,80451,80497,80627,80643,80679,80747,80813,80829,80829,80871,80880,80911,80919,80935,80951,80951,80975,80983,81047,81079,81143,81213,81229,81311,81344,81344,81368,81408,81432,81472,81481,81512,81536,81643,81869,81930,81997" d="M288.29999,220.69115C286.5,220.69115 285.65717,220.69115 284.77917,220.69115C283.89999,220.69115 282.89999,220.69115 282.00449,220.69115C281.13333,220.69115 280.29999,220.69115 279.5,220.69115C278.5,220.69115 277.65717,220.69115 276.77917,220.69115C275.89999,220.69115 274.94336,220.5546 274.10001,220.97514C273.43835,221.30507 272.46957,221.2659 271.65717,221.74832C270.99841,222.1395 270.83768,223.28622 270.00449,223.63399C269.17444,223.98045 268.46667,224.52449 267.86401,225.12715C267.20001,225.79115 266.65417,226.2484 266.00449,226.99115C265.42331,227.65558 265.14532,228.60744 264.27466,228.69115C263.50223,228.76541 262.44064,228.2207 261.65717,228.74832C260.97299,229.20906 261.24283,230.39114 260.77917,231.17032L260,231.63849" id="svg_15" stroke-width="3" stroke="#000" fill="none"/>
  <path t="88137,89356,89372,89372,89423,89529,89627,89663,89679,89696,89728,89760,89792,89816,89816,89840,89898,89936,89998,90047,90079,90147,90163,90183,90183,90191,90215,90247,90287,90327,90396,90431,90447,90464,90480,90480,90487,90497,90503,90504,90512,90527,90535,90543,90597,90665,90904,90963,91029,91045,91113,91179,91230,91281,91344,91421,91437,91480,91481,91519,91704,91759,91799,91847,91887,91930,92029,92081,92096,92119,92151,92213,92310,92326,92379,92446,92446,92498,92535,92559,92560,92583,92630,92711,92727,92781,92816,92816,93240" d="M259.29999,230.69115C259.10001,230.69249 258.27032,231.01538 257.58533,231.40715C256.83719,231.83502 256.04108,232.11237 255.20016,232.56982C254.4528,232.97639 254.55627,233.91606 254.07866,234.56982C253.56795,235.26889 253.39539,235.89453 253.3,236.85782C253.21626,237.70352 252.49994,238.34378 252.32083,239.19115C252.13687,240.06151 251.92509,240.66789 251.3,241.19115C250.70296,241.69093 250.07489,242.23445 249.42134,242.91249C248.86272,243.49203 248.26334,244.01729 247.5,244.40715C246.7471,244.79169 245.73599,244.69115 244.864,244.69115C244,244.69115 243.10001,244.69115 242.20016,244.69115C241.27467,244.69115 240.49867,244.68875 239.54283,244.69115C238.64732,244.69341 237.75195,244.70549 236.936,245.11649C236.16406,245.50531 235.3,245.69115 234.5,245.69115C233.60001,245.69115 232.7,245.69115 231.8,245.69115C230.89999,245.69115 229.98866,245.67386 229.3,246.19115C228.67432,246.66113 227.60066,246.80441 227.31067,246.08049C226.95575,245.19446 226.52383,244.86989 225.87466,244.25516C225.21588,243.63132 225.3,242.59116 225.3,241.69115C225.3,240.85782 225.3,239.98665 225.3,239.09116C225.3,238.19115 225.29935,237.30182 225.3,236.40582C225.30067,235.49248 225.58235,234.73387 226.5,234.69115C227.39902,234.64929 228.3,234.69115 229.17867,234.69115C230.0045,234.69115 230.97856,235.03421 231.77916,234.67032C232.55238,234.31886 233.00301,233.63582 233.8,233.19115C234.59851,232.74564 235.57964,232.90028 236.39983,232.46965C237.04327,232.13182 237.21597,231.0248 237.73599,230.29115C238.29381,229.50421 238.886,228.87604 239.73599,228.69115C240.57588,228.50845 241.2813,228.25565 241.3,227.30182C241.31757,226.40599 241.5215,225.59132 242.10133,224.97649L242.94284,224.69565" id="svg_16" stroke-width="3" stroke="#000" fill="none"/>
  <path t="105563,105939,105967,106029,106204,106247,106280,106280,106320,106352,106408,106432,106480,106495,106520,106579,106579,106594,106616,106664,106712,106720,106744,106752,106792,106816,106864,106896,106928,106968,107091,107091,107145,107145,107191,107207,107208,107223,107247,107263,107303,107379,107395,107524,107563,107579,107616,107656,107656,107680,107728,107878,107878,107945,107960,108061,108061,108111,108135,108151,108259,108259,108297,108343,108602,108639,108655,108671,108711,108970,108970,108985,109110,109144,109197,109232,109240,109328,109395,109446,109446,109496,109528,109675,109784,109784,109840,109840,110100,110136,110144,110160,110168,110168,110355,110475,110512,110544,110576,110629,110629,110645,110671,110712,110763,110778,110778,110778,110816,110832,110840,110848,110872,110872,110880,110888,110897,110913,110913,110936,110936,111000,111078,111078" d="M238.3,228.69115C238.3,227.88982 238.27213,226.97375 237.8,226.21199C237.32858,225.45135 237.3,224.60715 237.3,223.69115C237.3,222.89114 237.3,221.99115 237.3,221.04832C237.3,220.17032 237.3,219.29115 237.3,218.39114C237.3,217.49248 237.3,216.60715 237.3,215.69115C237.3,214.89114 237.3,213.99115 237.3,213.04832C237.3,212.17032 237.05713,211.25632 237.3045,210.39565C237.52521,209.62778 237.92764,209.02939 238.32083,208.19115C238.65627,207.47606 239.74013,207.28784 240.216,206.49248C240.62994,205.80064 241.10474,205.19528 241.5215,204.46948C241.88226,203.8412 242.64346,203.06046 242.94284,202.34381C243.30742,201.47105 243.40302,200.4525 244.10133,199.97649C244.85065,199.4657 245.29933,198.88982 245.3,197.99115C245.30064,197.12715 245.3,196.25516 245.3,195.29115C245.3,194.39114 245.34352,193.49136 245.3,192.63849C245.25728,191.80122 244.89224,191.05965 244.584,190.17516C244.26202,189.25125 244.41983,188.28198 244.01601,187.49115C243.67978,186.83267 243.30226,185.99117 243.3,185.12715C243.29752,184.17032 243.3,183.29115 243.3,182.39114C243.3,181.49248 243.3,180.60715 243.3,179.69115C243.3,178.89114 243.3,177.99115 243.3,177.12715C243.3,176.17032 243.3,175.29115 243.3,174.39114C243.3,173.49248 243.2496,172.63667 242.87466,171.82982C242.5723,171.17912 242.31255,170.21214 242.3,169.30182C242.28673,168.33856 241.62862,167.88467 241.32083,167.17032C240.9333,166.27086 241.41714,165.29395 241.29866,164.40582C241.18707,163.56938 240.45381,162.92435 240.31067,162.09116C240.14743,161.14101 240.40439,160.19987 239.94284,159.38666C239.58191,158.75073 239.12576,157.94658 238.5,157.26048C237.92043,156.62503 236.864,156.69179 236,156.69115C235.10001,156.69048 234.27477,156.35907 233.58533,155.97514C232.83858,155.5593 231.89999,155.69115 231,155.69115C230.10133,155.69115 229.216,155.69115 228.3,155.69115C227.5,155.69115 226.60001,155.69115 225.65717,155.69115C224.77916,155.69115 223.88948,155.55844 223,155.69565C222.06862,155.83932 221.53139,156.54297 220.60001,156.68665C219.71051,156.82387 218.8,156.69115 217.91066,156.69115C216.96666,156.69115 216.27916,156.69115 215.18533,156.69115C214.3,156.69115 213.42117,156.69115 212.58566,156.69115C211.89101,156.69115 210.90266,156.69115 210.01433,156.69115L209.01466,156.68982L208.2,156.46965L207.60001,155.98665" id="svg_17" stroke-width="3" stroke="#000" fill="none"/>
  <path t="114349,114399,114400,114408,114416,114432,114448,114456,114456,114472,114481,114481,114488,114488,114497,114506,114506,114513,114513,114520,114521,114530,114536,114544,114552,114560,114560,114568,114576,114584,114608,114608,114616,114672,114734,114776,114792,114808,114817,114840,114840,114856,114856,114880,114896,114904,114920,114928,114980,114980,114995,115024,115033" d="M214.3,196.69115C214.3,195.69115 214.3,194.93399 214.3,194.04298C214.3,193.02449 214.32098,192.15126 213.94733,191.38666C213.51392,190.4998 213.4906,189.69131 213.2955,188.79648C213.10579,187.92638 212.59447,187.29616 212.384,186.29382C212.23218,185.57079 211.7346,184.87326 211.10133,184.12048C210.62096,183.54945 210.43622,182.48886 210.3,181.71199C210.1497,180.85478 209.55313,180.16386 209.336,179.29115C209.11853,178.41707 209.4594,177.36839 209.24283,176.58131C209.01956,175.76988 208.47935,175.1869 207.91066,174.32715C207.36656,173.50458 207.3,172.63849 207.3,171.69115C207.3,170.89114 207.3,169.99115 207.3,169.12715C207.3,168.25516 207.3,167.29115 207.3,166.39114C207.3,165.49248 207.3,164.63849 207.3,163.69115C207.3,162.93399 207.3,162.04298 207.3,161.26048C207.3,160.25516 207.3,159.29115 207.3,158.39114C207.3,157.49248 207.3,156.63849 207.3,155.69115C207.3,154.89114 207.3,153.99115 207.336,153.12715L208.0045,152.63849" id="svg_18" stroke-width="20" stroke="#fff" fill="none"/>
  <path t="117784,117949,118012,118055,118103,118127,118143,118196,118212,118212,118247,118287,118361,118361,118392,118392,118416,118424,118424,118432,118456,118456,118472,118488,118496,118504,118528,118552,118552,118576,118576,118592,118661,118677,118677,118677,118696,118721,118721,118738,118738,118768,118776,118784,118808,118816,118825,118832,118842,118860,118864,118880,118920,118968,118992,119000,119032,119048,119048,119056,119080,119096,119112,119136,119136,119152,119214,119229,119229,119264,119375,119492,119527,119642,119743,119743,119784,119886,119920,119936,119975,120029,120045,120063,120063,120128,120210,120210,120278,120345,120399,120415,120463,120638,120895,121164,121199,121200,121231,121287,121304,121304,121473,121544,121584,121632,121648,121656,121664,121688,121695,121696,121712,121712,121729,122035,122051,122051,122051,122079,122087,122103,122112,122112,122129,122152,122152,122159,122160,122175,122191,122199,122208,122231,122232,122239,122247,122255,122256,122311,122336,122344,122352,122376,122392,122424,122424,122440,122448,122504,122513,122513,122552,122584,122661,122712,122762,122778,122807,122927,122927,122942,122995,123077,123092,123145,123192,123276,123486,123486,123501,123625,123805,123911,124058,124174,124189,124216,124216,124248,124374,124374,124412,124480,124480,124520,124560,124592,124696,124712,124760,124776,124830,124958,125073,125073,125112,125143" d="M212.3,132.69115C210.5,132.69115 209.65717,132.69115 208.77916,132.69115C207.89999,132.69115 207,132.69115 206.0045,132.69115C205.13333,132.69115 204.3,132.69115 203.5,132.69115C202.60001,132.69115 201.65663,132.72133 200.72934,132.68982C199.88963,132.66129 198.89133,132.43419 198.172,132.11649C197.33632,131.74739 196.50887,131.45073 195.868,130.88982C195.12901,130.24304 194.56793,129.83972 193.78267,129.60715C192.77786,129.30956 192.10303,128.73387 191.2,128.69115C190.30101,128.64862 189.60519,128.2491 188.85716,127.81248C188.20352,127.43096 187.23274,127.32085 186.50133,126.97515C185.69737,126.59517 184.88861,126.20695 184.13333,125.69115C183.5015,125.25966 182.80991,124.84679 181.74667,124.70182C180.86508,124.58162 180.06009,124.73504 179.10033,124.46982C178.3213,124.25454 177.47141,123.75148 176.5955,123.69115C175.70139,123.62958 174.98262,123.10056 174.20016,122.81265C173.32416,122.49031 172.52141,122.56662 171.7,122.11649C170.91975,121.68891 169.94983,121.76419 169.32533,121.26582C168.71736,120.78062 167.8,120.69115 166.89999,120.69115C166.0045,120.69115 165.13333,120.69115 164.19983,120.69115C163.41467,120.69115 162.31102,121.06391 161.63333,120.52448C160.95392,119.98368 160.53833,119.69115 159.64734,119.69115C158.784,119.69115 157.69887,119.79231 157.01466,119.40715C156.22917,118.96497 155.5,118.69182 154.60001,118.69115C153.65717,118.69046 152.77916,118.68896 151.89999,118.69115C150.99998,118.69341 149.96266,118.86787 149.58533,119.49249C149.09076,120.31116 149.3,121.30182 149.3,122.19115C149.3,123.09115 149.04041,124.13073 149.52133,124.69131C150.0481,125.30534 150.56343,125.9107 151.10133,126.49115C151.77357,127.21658 152.28667,127.93035 153.01466,128.40582C153.72038,128.86674 154.50015,129.16628 155.13333,129.85782C155.68091,130.45587 156.03447,131.3017 156.72533,131.65515C157.55551,132.0799 158.55687,131.52841 159.39999,131.91249C160.18002,132.26784 161.0088,132.57854 161.65717,133.04832C162.39333,133.58174 162.89275,134.27043 163.8,134.69115C164.58943,135.05722 165.17552,135.72433 165.82083,136.19115C166.62628,136.7738 167.61586,136.52444 168.49867,136.69249C169.25729,136.8369 169.8824,137.54643 170.65184,137.74382C171.56389,137.97778 172.03142,138.56747 172.77916,139.17032C173.52635,139.77272 174.40018,139.68665 175.18533,139.69115C176.11472,139.69649 176.68576,140.21347 177.37199,140.68048C178.02461,141.12462 179.16728,140.50204 179.9955,140.74832C180.90289,141.01814 181.43944,141.74196 182.3,142.17032C183.1106,142.57381 183.99496,142.28337 184.864,142.72716C185.561,143.0831 186.11179,143.59026 186.936,143.72716C187.80757,143.87193 188.61729,144.45343 189.54283,144.63399C190.386,144.79848 191.3,144.69115 192.10001,144.69115C193.13333,144.69115 193.91068,144.68588 194.8,144.69115C195.70004,144.69649 196.44019,145.28717 197.25183,145.63399C197.95084,145.93268 198.81734,145.69115 199.88933,145.69115C200.77916,145.69115 201.48048,146.14908 202.3,146.52449C203.04269,146.86472 204,146.69115 204.864,146.69115C205.82083,146.69115 206.7,146.69115 207.60001,146.69115C208.49867,146.69115 209.35266,146.69115 210.3,146.69115C211.10001,146.69115 212,146.69115 212.864,146.69115C213.82083,146.69115 214.7,146.69115 215.60001,146.69115C216.49867,146.69115 217.35266,146.69115 218.3,146.69115C219.10001,146.69115 220.10126,147.06259 220.864,146.65515C221.59439,146.265 221.78572,145.14752 222.5955,144.74832C223.27504,144.41333 223.3,143.59116 223.3,142.69115C223.3,141.89114 222.98422,141.17903 222.46666,140.35782C222.10027,139.77646 221.87859,138.94669 221.07851,138.46982C220.4238,138.07959 219.60002,137.69341 218.7,137.69115C217.82083,137.68895 216.87103,137.84738 216.10133,137.40715C215.31729,136.95871 214.49791,137.05457 213.73599,136.65515C213.05815,136.2998 213.01466,135.20848 212.5955,134.40099L211.91066,133.75249L211.3,133.19115" id="svg_19" stroke-width="3" stroke="#000" fill="none"/>
  <path t="126067,126349,126400,126478,126494,126640,126672,126728,126728,126767,126799,126807,126847,126888,127131" d="M221.3,156.69115C220.49867,156.69115 219.60001,156.69115 218.7,156.69115C217.82083,156.69115 216.82246,156.77655 216.10001,156.40715C215.23595,155.96536 214.3838,155.74925 213.82083,155.17032C213.1898,154.52139 212.8,153.69115 212.27467,153.11649L211.584,152.69249L211.3,152.08049" id="svg_20" stroke-width="3" stroke="#000" fill="none"/>
  <path t="128644,128883,128927,129025,129062" d="M210.3,148.69115C210.3,150.39114 210.336,151.29115 210.72533,152.09116L211.216,152.88982" id="svg_21" stroke-width="3" stroke="#000" fill="none"/>
  <path t="129877,129936,129984,130008,130056,130159,130159,130242,130278,130278,130344,130368,130392,130400,130512,130527,130579,130690,130746,130784,130844,130844,130896,130946,131045,131192,131192,131435,131450,131450,131488,131528,131576,131600,131608,131624,131624,131741,131842,131879,131920,131944,131960,132012,132094,132145,132176,132259,132296,132320" d="M216.3,154.69115C217.3,154.69115 217.84526,154.24136 218.58533,153.77649C219.36334,153.28778 220.2431,153.43707 220.94284,153.04382C221.76768,152.58028 222.7,152.69115 223.60001,152.69115C224.49867,152.69115 225.35266,152.69115 226.3,152.69115C227.17867,152.69115 228.11829,153.08405 228.864,152.65515C229.5636,152.25278 229.91071,151.70061 230.8,151.69115C231.77933,151.68073 232.50893,151.29948 233.01601,150.60715C233.53548,149.8979 233.34521,148.83684 234.10133,148.69249C235.11502,148.49896 235.61433,148.30089 236.13333,147.52449C236.60562,146.81796 236.81114,145.73499 236.3,144.97649C235.87524,144.34616 234.67482,144.70311 233.89999,144.26582C233.17371,143.85593 232.34622,143.44902 231.60001,143.04382C230.83888,142.63052 229.91066,142.69115 229.01466,142.69115C228.10001,142.69115 227.2,142.69115 226.3,142.69115C225.42134,142.69115 224.59544,142.68079 223.7,142.69115C222.79982,142.70157 222.0045,143.04832 221.42149,143.79099L221.3,144.67032" id="svg_22" stroke-width="3" stroke="#000" fill="none"/>
  <path t="138070,138314,138352,138384,138416,138462,138477,138496,138520,138584,138644,138836,138852,138926,138960,139075,139112,139175,139207,139215,139231,139247,139255,139271,139328,139344,139567,139627,139627,139643,139663,139663,139679,139696,139759,139775,139791,139807,139815,139831,140010,140025,140087,140103,140161,140207,140231,140271,140335,140359,140359,140367,140367,140375,140399,140407,140415,140463,140480,140512,140512,140593,140629,140629,140678,140678,140694,141040,141056,141056,141072" d="M246.3,197.69115C247.77916,199.19115 248.19072,200.03024 248.72533,200.66582C249.27153,201.31519 249.97008,201.80063 250.384,202.49248C250.85986,203.28784 251.67459,203.68346 252.3,204.19115C252.93292,204.70493 253.71185,205.00977 254.17867,205.79099C254.64609,206.57324 255.04765,207.31876 255.82083,207.67032C256.61166,208.02991 257.58533,207.69115 258.5,207.69115C259.39999,207.69115 260.29999,207.69115 261.17868,207.69115C262.00449,207.69115 262.89999,207.69115 263.79999,207.69115C264.68933,207.69115 265.57346,207.68509 265.46667,207.85782C265.04037,208.5475 264.20001,208.69115 263.29999,208.69115C262.5,208.69115 261.74918,208.80936 261.24283,209.33849C260.6463,209.96187 259.88412,210.25128 259.32535,211.08049C258.90887,211.69853 258.15234,212.26651 257.32535,212.65515C256.56915,213.01053 255.7635,213.13168 255.0045,213.63849C254.25984,214.13571 253.52512,214.62775 253.3045,215.39565C253.04539,216.29752 252.67297,216.53221 252.0045,217.04832C251.25688,217.62555 251.29507,218.61041 250.864,219.50581C250.55333,220.15111 249.49336,220.60297 249.3,221.21199C249.00993,222.1256 248.7511,222.63745 247.89999,223.11649C247.17323,223.52554 246.34839,223.93044 245.65717,224.33849C244.89752,224.78693 243.98148,224.91945 243.3,225.19115C242.32559,225.57964 241.39311,225.65831 240.77916,226.21199C240.06799,226.85335 239.64301,227.56949 240.39983,227.46982L241.13333,226.85782" id="svg_23" stroke-width="3" stroke="#000" fill="none"/>
  <path t="141611,141692,141708,141745,141761,141792,141792,141816,141840,141879,141894,141928,141952,141952,141968,142024,142048,142072" d="M261.29999,208.69115C263,208.69115 263.92297,208.8735 264.79999,208.67032C265.76556,208.44661 266.21729,207.58759 266.89999,207.12715C267.72171,206.57298 268.71646,206.90851 269.58401,206.68982C270.31393,206.50583 270.44568,205.28641 271.29999,204.85782C272.03018,204.4915 272.94284,204.69115 273.82083,204.69115L274.79999,204.69115L275.70001,204.69115" id="svg_24" stroke-width="3" stroke="#000" fill="none"/>
  <path t="149542,149609,149693,149693,149725,149794,149869,149927,149960,149992,150000,150032,150032,150047,150055,150174,150208,150232,150248,150327,150343,150343,150410,150456,150464,150480,150520,150560,150592,150640,150741,150741,150784,150784,150829,150829,150925,150941,150941,151000,151016,151048,151096,151136,151160,151168,151176,151208,151216,151294,151294,151350,151350,151432,151456,151456,151480,151512,151568,151584,151624,151672,151720,151768,151768,151984" d="M245.3,172.69115C245.58533,171.77515 246.3349,171.36157 247.10001,170.97514C247.89261,170.57483 248.71109,170.37209 249.17867,169.59132C249.64655,168.81003 250.40685,168.80199 251.3,168.69115C252.19925,168.57954 252.54213,167.73737 252.94733,166.99115C253.36063,166.23003 253.21936,165.14774 253.65266,164.68665C254.21092,164.09259 254.81805,163.5323 255.384,162.97514C256.05518,162.31441 256.4238,161.65674 256.94733,161.04832C257.60211,160.28737 258.15012,159.58687 258.29999,158.69115C258.44025,157.85297 258.90903,157.18398 259.65717,156.74832C260.38611,156.32385 260.99091,156.21185 261.52167,155.46982C262.00388,154.7957 262.97534,154.84659 263.81601,154.60715C264.68954,154.35834 264.78943,153.18811 265.46667,152.69115C266.13852,152.19815 267.24786,152.77335 267.86401,152.08049C268.44901,151.42267 268.78516,150.69673 269.32083,150.19115C269.89526,149.649 270.61145,149.07671 271.49866,148.77649C272.28589,148.5101 272.79471,148.23854 273.38535,147.69249C274.06818,147.0612 274.91855,147.0546 275.78265,146.49115C276.42624,146.07149 276.95035,145.26808 277.74268,144.81248C278.36835,144.45271 279.34476,144.25723 279.87466,143.66582C280.42886,143.04727 280.85257,142.24483 281.30017,141.46982C281.70178,140.77446 282.58533,140.68982 283.39999,140.46965L284,139.98665L284.68933,139.29115" id="svg_25" stroke-width="3" stroke="#000" fill="none"/>
  <path t="156825,156955,157008,157077,157077,157120,157152,157176,157208,157208,157232,157256,157256,157280,157304,157360,157368,157368,157384,157440,157495,157560,157560,157575,157575,157645,157680,157688,157688,157720,157752,157842,157842,157858,157911,157928,157951,157968,157991,158000,158024,158031,158040,158047,158055,158071,158072,158127,158127,158318" d="M265.29999,168.69115C266.29999,168.67032 266.91068,168.08049 267.5,167.49115C268.10001,166.89114 268.74319,166.16884 269.24734,165.39565C269.70435,164.69479 270.52762,164.43629 271.10001,163.88982C271.81564,163.20657 272.06149,162.34001 272.32535,161.55249C272.60645,160.71342 273.18903,160.28644 273.58401,159.49115C274.01569,158.62199 274.17752,157.8542 274.82083,157.21199C275.45978,156.57414 276.16232,156.35483 276.52133,155.59116C276.88602,154.81546 277.17209,153.99245 277.72534,153.30182C278.32584,152.55222 279.11429,152.36006 279.52133,151.59116C279.92236,150.8336 280.42465,150.14095 281.01599,149.60715C281.73666,148.9566 282.38327,149.06171 283.31467,148.65515C284.07346,148.32394 284.60156,147.40166 285.24734,146.74382C285.80527,146.17546 286.00287,145.1188 286.72534,144.72716C287.54532,144.28265 288.72031,144.59087 289.1785,143.81248C289.55832,143.16724 289.72681,142.28233 290.39984,141.59132C291.00653,140.96843 291.52151,140.24849 291.91068,139.54182L292.59549,138.80098" id="svg_26" stroke-width="3" stroke="#000" fill="none"/>
  <path t="159032,159072,159096,159111,159136" d="M283.29999,140.69115C283.94733,139.98665 284.32535,139.09116 284.72534,138.30182L285.2955,137.63849" id="svg_27" stroke-width="3" stroke="#000" fill="none"/>
  <path t="177535,177997,178092,178128,178270,178373,178488,178637,178724,178739,178873,178957,179040,179123,179254,179449,179683,179720,179736,179736" d="M265.29999,167.69115C265.26401,166.70181 264.35114,166.60954 263.73599,167.30182C263.15128,167.95988 262.72183,168.36397 261.82083,168.69115C261.18097,168.92349 260.72266,169.63234 260.27466,170.30182C259.78253,171.03726 259.61987,171.96442 259.24283,172.74382C258.85992,173.53535 258.34988,174.24001 257.65268,174.68665C256.98358,175.1153 256.20001,175.56982 255.3,175.85782L254.60001,176.33849" id="svg_32" stroke-width="3" stroke="#000" fill="none"/>
  <path t="181769,182044,182126,182126,182142,182539,182591,182593,182632,182656" d="M253.3,176.69115C252.27916,176.71199 251.34682,176.95833 250.60451,177.33849C249.76143,177.77025 249.24733,178.33849 248.49867,178.68982L247.60001,178.69115L246.7,178.69115L245.8,178.71199" id="svg_33" stroke-width="3" stroke="#000" fill="none"/>
  <path t="187209,187572,187627,187642,187704,187736,187768,187792,187800,187800,187809,187848,187880,187990,187990,188032,188032,188092,188152,188192,188192,188240,188280,188327,188368,188400,188400,188416,188456,188525" d="M381.29999,230.69115C381.29999,228.85782 381.29471,228.08047 381.29999,227.19115C381.30533,226.29111 381.58051,225.28773 382.29999,224.85782C383.07047,224.39745 383.33881,223.55759 384.00449,223.04832C384.68201,222.52998 385.17731,222.07262 385.29999,221.12715C385.41663,220.22836 385.87271,219.48111 386.39984,218.71265C386.8338,218.08 387.1275,217.21321 387.65717,216.39114C388.17191,215.59224 388.97726,215.27684 389.24283,214.39114C389.52921,213.43602 389.69714,212.92712 390.24734,212.33398C390.86407,211.66913 391.10132,210.97649 391.94284,210.63849L392.384,209.88982L392.87466,209.12715" id="svg_34" stroke-width="3" stroke="#000" fill="none"/>
  <path t="192396,192447,192455,192479,192495,192511,192519,192567,192576,192592,192608,192623,192647,192647,192663,192695,192719,192759,192776,192776,192799,192847,192909,193084,193100" d="M355.29999,198.69115C356.29999,198.69115 357.216,198.69115 358.00449,198.69115C358.89999,198.69115 359.79999,198.69115 360.68933,198.69115C361.65717,198.69115 362.59787,198.85051 363.24734,198.33849C363.86194,197.85396 364.75897,197.86986 365.52151,197.46982C366.19644,197.11575 367.01468,196.69182 367.91068,196.69115C368.77917,196.69049 369.50024,196.27365 370.29999,195.85782C371.04382,195.47105 371.79999,195.17032 372.49866,194.49248L373.13333,193.85782L373.73599,193.26582L374.49866,192.77515" id="svg_35" stroke-width="3" stroke="#000" fill="none"/>
  <path t="194941,195055,195094,195135,195209,195255" d="M381.29999,232.69115C381.29999,230.89114 381.29999,229.99115 381.29999,229.12715L381.29999,228.25516L381.29999,227.39114" id="svg_36" stroke-width="3" stroke="#000" fill="none"/>
  <path t="197272,197387,197403,197424,197439,197448,197464,197496,197683,197774,197774,197825,197841,197896,197960,198010,198010,198209,198248,198280,198545,198545,198686,198686,198701,198723" d="M400.29999,178.69115C399.29999,178.69115 398.49866,178.69115 397.58533,178.69115C396.68933,178.69115 395.79999,178.69115 394.89999,178.69115C394.00449,178.69115 393.01086,178.8737 392.20001,178.46965C391.51062,178.12611 391.0343,177.12941 390.24734,176.69565C389.4975,176.28233 389.49817,175.53056 389.13333,174.69115C388.83582,174.00661 388.06702,173.29477 387.29999,172.85782C386.52014,172.41357 386.17706,171.65599 385.65268,171.04832C385.06113,170.36282 384.49866,169.88982 383.79999,169.21199L383.00449,168.74832" id="svg_37" stroke-width="3" stroke="#000" fill="none"/>
  <path t="203913,204131,204147,204199,204215,204306,204352,204400,204416,204448,204464,204504,204575,204575,204623,204647,204647,204663,204687,204719,204727,204727,204743,204783,204792,204807,204815,204831,204840,204863,204925" d="M269.29999,202.69115C271,202.69115 272.02307,202.83754 272.68933,202.25516C273.3866,201.64566 273.38651,200.60698 274.00449,199.98665C274.59662,199.39226 274.95483,198.44737 275.52133,197.81248C276.05679,197.21237 276.96622,196.88242 277.27917,196.17032C277.63315,195.36494 277.63516,194.37027 278.29999,193.69115C278.78445,193.19627 279.74869,192.90587 280.27466,192.25516C280.86749,191.5217 281.215,190.70375 281.29868,189.89114C281.39236,188.98129 281.94495,188.6326 282.384,187.88982C282.79776,187.18982 283.27466,186.30182 283.79999,185.69115L284.32535,185.11649L285.01599,184.69249L285.336,184.08049" id="svg_39" stroke-width="3" stroke="#000" fill="none"/>
  <path t="216018,216059,216059,216074,216074,216095,216096,216104,216112,216120,216120,216120,216128,216136,216136,216159,216160,216168,216168,216176,216289,216327,216335,216344,216351,216367,216375,216375,216383,216392,216399,216399,216408,216423,216423,216423,216431,216431,216439,216463,216476,216487,216495,216503,216511,216519,216535,216535,216543,216559,216567,216583,216607,216736,216752,216768,216768,216784,216792,216800,216800,216809,216824,216840,216864,216864,216955,216955" d="M214.3,246.69115C216.12534,247.11649 216.83426,247.35129 217.77916,247.69115C218.62373,247.99493 219.45802,248.58569 220.27916,248.67032C221.18571,248.76375 221.83911,249.23538 222.46666,249.85782C223.12268,250.5085 223.5865,251.084 224.54283,251.58131C225.35796,252.0052 225.98473,252.45326 226.74283,252.91264C227.45978,253.34709 228.42778,253.65976 228.93834,254.39114C229.47215,255.15584 229.79778,256.01825 230.68933,255.68048C231.41859,255.40419 231.3,254.29115 231.3,253.39565C231.3,252.46965 231.3,251.59099 231.3,250.80582C231.3,249.87648 231.3,248.93382 231.3,248.12181C231.3,247.33932 231.3,246.30582 231.3,245.35782C231.3,244.68582 231.35567,243.69492 231.29866,242.66182C231.2561,241.89041 230.52045,241.21367 230.3,240.40582C230.05922,239.52341 230.38869,238.58678 230.3,237.69115C230.21626,236.84544 229.43517,236.39972 229.29866,235.49115C229.17728,234.6833 228.85187,233.87296 228.27467,233.12715C227.79054,232.5016 227.49628,231.85532 227.24283,230.99115C226.9855,230.11372 226.37042,229.31721 226.3,229.34848C225.39034,229.75244 226.14543,231.05194 226.31067,232.05515C226.45361,232.923 227.21007,233.6787 227.2955,234.44832C227.3938,235.33394 227.68901,236.15282 228.13333,236.85782C228.58644,237.57678 228.35716,238.44832 228.65266,239.33932L229.01601,240.12181" id="svg_41" stroke-width="20" stroke="#fff" fill="none"/>
  <path t="221702,222024,222055,222063,222141,222157,222255,222327,222359,222375,222383,222391,222400,222408,222408,222415,222425,222441,222456,222456,222471,222472,222541,222685,222725,222741,222783,222791,222839,222855,222895,222927,222927,222959,222991,223057,223057,223073,223103,223120,223151,223183,223199,223223,223247,223247,223263,223279,223295,223327,223344,223367,223383,223383,223400,223455,223487,223495,223535" d="M238.3,227.69115C238.3,228.56982 238.3,229.39565 238.3,230.29115C238.3,231.19115 238.54549,232.11522 238.29866,232.97514C238.07758,233.74541 236.94284,233.69115 236.10001,233.69115C235.2,233.69115 234.3,233.69115 233.38266,233.69115C232.59016,233.69115 231.78267,233.69115 230.82083,233.69115C229.89999,233.69115 228.97566,233.76964 228.13333,233.52449C227.27156,233.27368 226.47813,232.77618 225.58667,232.69249C224.69325,232.60861 223.74225,232.38637 222.91066,232.70181C222.1815,232.97839 222.3,234.09116 222.3,234.99115C222.3,235.88982 222.42509,236.74049 222.91066,237.33781C223.55586,238.1315 223.81966,238.90845 224.49867,239.52182C225.1732,240.13113 225.44681,241.01666 226.10133,241.40715C226.83685,241.84596 227.69444,242.12566 228.49867,242.60715C229.24229,243.05235 229.73553,243.67073 230.7,243.69115C231.59982,243.71019 232.33665,244.01727 233.10001,244.40715C233.85289,244.79167 234.8,244.69115 235.7,244.69115C236.5955,244.69115 237.46933,244.69115 238.32083,244.69115C239.2785,244.69115 240.09866,244.69115 241.01466,244.69115C241.91066,244.69115 242.8,244.69115 243.7,244.69115L244.5955,244.68665" id="svg_42" stroke-width="3" stroke="#000" fill="none"/>
  <path t="225563,225811,225872,225956,225956,225972,225999,226015,226040,226055,226063,226141,226157,226207,226290,226306,226359,226376,226391,226407,226489,226505,226544,226544,226607,226690,226804,226820,226855,226863,226863,226879,226919,226951,226975,227015,227039,227047,227095,227119,227135,227135,227143,227191,227215,227239,227239,227279,227311,227327,227327,227352,227440,227455,227480,227488,227512,227536,227544,227671,227708" d="M242.3,248.69115C244.13333,248.69115 244.884,249.07245 245.1785,250.01248C245.43575,250.83363 245.3,251.80449 245.3,252.66582C245.3,253.49248 245.3,254.39114 245.3,255.29115C245.3,256.17032 245.3,257.12714 245.3,257.99115C245.3,258.89114 244.7345,260.01468 245.32083,260.67032C245.8459,261.25748 246.83719,261.43799 247.7,261.65515C248.56912,261.8739 249.5215,261.69116 250.39999,261.69116C251.3,261.69116 252.08218,261.57678 252.864,261.11649C253.63615,260.66187 254.79475,261.00275 255.24283,260.33398C255.71309,259.63211 255.40302,258.45248 256.10132,257.97647C256.85065,257.4657 257.28738,256.98657 257.29999,256.09116C257.31265,255.19099 257.82486,254.48079 258.1785,253.59132C258.51224,252.75189 259.23911,252.47592 259.29999,251.59116C259.36179,250.69327 259.29999,249.89114 259.29999,248.97649C259.29999,248.08049 259.29999,247.17032 259.29999,246.36998C259.29999,245.55249 259.29999,244.46965 259.29999,243.59116C259.29999,242.69115 259.36423,241.76753 258.77917,241.21199C258.05408,240.52347 257.31259,240.17047 257.29999,239.29115C257.28708,238.39122 257.07867,237.59132 256.46667,236.85782L256.26401,236.11649L255.584,235.60715L255.07851,234.81265" id="svg_43" stroke-width="3" stroke="#000" fill="none"/>
  <path t="231989,232024,232032,232048,232056,232064,232072,232104,232112,232136,232136,232144,232152,232160,232176,232184,232192,232200,232200,232209,232225,232232,232232,232240,232248,232256,232264,232264,232280,232288,232296,232304,232312,232320,232328,232336,232336,232344,232352,232361,232368,232376,232376,232392,232392,232400,232409,232409,232432,232440,232456,232472,232488,232496,232504,232504,232512,232520,232528,232536,232544,232560,232560,232576,232592,232592,232616,232632,232648,232648,232656,232664,232672,232672,232680,232688,232696,232712,232720,232744,232760,232760,232768,232768,232792,232824,232864,232872,232912,232936,232952,232968,232968,232984,233088,233104" d="M126.3,248.69115C128,248.69115 128.94284,248.69115 129.82083,248.69115C130.8,248.69115 131.7,248.69115 132.5955,248.69115C133.46666,248.69115 134.39999,248.69115 135.3,248.69115C136.10001,248.69115 136.89999,248.69115 137.89999,248.69115C138.7,248.69115 139.60001,248.69115 140.60001,248.69115C141.39999,248.69115 142.3,248.69115 143.18533,248.69115C144.11467,248.69115 144.96666,248.69115 145.86934,248.69115C146.65184,248.69115 147.664,248.69115 148.5,248.69115C149.39999,248.69115 150.3,248.69115 151.10001,248.69115C152,248.69115 152.89999,248.69115 153.8,248.69115C154.7,248.69115 155.60001,248.69115 156.5,248.69115C157.39999,248.69115 158.3,248.69115 159.10001,248.69115C160,248.69115 160.89999,248.69115 161.8,248.69115C162.71066,248.69115 163.62117,248.69115 164.43866,248.69115C165.46666,248.69115 166.18666,248.69115 167.12534,248.69115C168.13333,248.69115 168.93834,248.69115 169.82083,248.69115C170.7,248.69115 171.60001,248.69115 172.5955,248.69115C173.40984,248.69115 174.32083,248.69115 175.2785,248.69115C176.09866,248.69115 176.89999,248.69115 177.8,248.69115C178.7,248.69115 179.60001,248.69115 180.5,248.69115C181.40016,248.69115 182.18533,248.69115 183.12534,248.69115C184.13333,248.69115 184.93834,248.69115 185.82083,248.69115C186.71066,248.69115 187.62117,248.69115 188.43866,248.69115C189.40533,248.69115 190.32083,248.69115 191.2785,248.69115C192.09866,248.69115 192.89999,248.69115 193.8,248.69115C194.7,248.69115 195.60001,248.69115 196.5955,248.69115C197.46666,248.69115 198.31668,248.79695 199.18533,248.60582C199.97476,248.43211 200.795,248.13129 201.65266,247.68665C202.3764,247.31145 202.93111,246.86252 203.8,246.67032C204.6433,246.48378 204.90799,245.38567 205.58533,244.77515C206.23155,244.19266 207,244.04382 207.89999,243.66582L208.68933,243.26582L209.12399,242.69565" id="svg_45" stroke-width="3" stroke="#000" fill="none"/>
  <path t="233627,233705,233721,233744,233760,233760,233776,233792,233792,233800,233809,233809,233816,233825,233825,233832,233832,233840,233840,233840,233848,233848,233856,233864,233880,233880,233880,233888,233904,233904,233912,233920,233952,233952,233968,233976,233992,234016,234016,234032,234040,234064,234080,234080,234088,234088,234112,234128,234144,234144,234152,234160,234168,234168,234176,234200,234224,234224,234232,234248,234264,234272,234272,234296,234296,234304,234320,234336,234344,234360,234376,234384,234392,234392,234400,234424,234440,234456,234464,234488,234504,234504,234512,234512,234536,234536,234544,234561,234584,234600,234609,234609,234616,234640,234648,234664,234672,234696,234712,234736,234736,234752,234784,234808,234832,234864,234940,235087,235103,235103,235136,235168,235184,235200,235216,235240,235272,235325,235325,235340,235455,235507,235523,235576,235592,235608,235616,235616,235640,235648,235656,235672,235688,235696,235704,235712,235720,235728,235752,235752,235768,235768,235776,235842,235857,235880,235904,235912,235920,235952,235968,235976,236016,236032,236056,236056,236064,236072,236080,236080,236096,236112,236120,236128,236136,236136,236144,236152,236160,236168,236176,236184,236184,236191,236200,236207,236208,236216,236224,236232,236248,236248,236257,236264,236272,236288,236296,236304,236320,236320,236336,236360,236384,236581,236597,236616,236632,236640,236640,236648,236672,236680,236712,236736,236760,236760,236768,236768,236776,236792,236800,236808,236816,236825,236832,236840,236856,236905,236928,236944,236960,236968,236992,237008,237016,237032,237048,237056,237072,237080,237080,237096,237096,237104,237120,237136,237152,237168,237176,237176,237184,237208,237224,237224,237264,237272,237288,237304,237320,237336,237384,237400,237440,237480,237488,237512,237536,237584,237608,237970,237985,238104,238423" d="M123.3,244.69115C124.17867,245.91249 124.72124,246.5607 125.28533,247.12715C125.96314,247.8078 126.44719,248.38087 127.41467,248.60582C128.28099,248.80725 129.11542,248.56799 130.05716,248.74832C130.98334,248.92567 131.61678,249.45607 132.54283,249.63399C133.48718,249.81541 134.27763,249.75049 135.06799,249.97649C135.80733,250.1879 136.9601,250.70287 137.64934,251.08049C138.26236,251.41635 139.29982,251.65353 140.01334,251.68048C141.04465,251.71944 141.87163,251.67165 142.8425,251.91249C143.54784,252.08746 144.41548,252.54625 145.38133,252.68982C146.29002,252.82489 147.10001,252.69115 148,252.69115C148.94284,252.69115 149.86934,252.69115 150.65184,252.69115C151.54283,252.69115 152.49867,252.69115 153.384,252.69115C154.3,252.69115 155.13445,252.49521 156,252.74832C156.87762,253.00496 157.6199,253.58502 158.46666,253.85782C159.14021,254.07481 160.12143,254.60309 160.93834,254.68665C161.81627,254.77644 162.7323,254.62384 163.62117,254.91249C164.3008,255.13319 165.23811,255.67107 166.06166,255.69115C166.95241,255.71288 167.87155,255.66312 168.65334,256.11649C169.45677,256.5824 170.3,256.69116 171.10001,256.69116C172,256.69116 172.90939,256.70816 173.71066,257.11649C174.47606,257.50656 175.29984,257.68073 176.2785,257.69116C177.09862,257.69989 178.00006,257.68076 178.89999,257.69116C179.80019,257.70157 180.69302,257.98117 181.17867,258.79099C181.61624,259.52063 182.39999,259.69116 183.3,259.69116C184.10001,259.69116 185.01466,259.69116 185.91066,259.69116C186.8,259.69116 187.7,259.69116 188.5955,259.69116C189.52167,259.69116 190.46666,259.69116 191.12534,259.69116C192.13333,259.69116 193.01334,259.69116 193.86934,259.69116C194.65184,259.69116 195.664,259.69116 196.5955,259.69116C197.5215,259.69116 198.39999,259.69116 199.3,259.69116C200.10001,259.69116 201.01466,259.69116 201.91066,259.69116C202.8,259.69116 203.7,259.69116 204.5955,259.69116C205.5215,259.69116 206.39999,259.69116 207.3,259.69116C208.10001,259.69116 209.01466,259.69116 209.91066,259.69116C210.8,259.69116 211.7,259.69116 212.5955,259.69116C213.5215,259.69116 214.39999,259.69116 215.3,259.69116C216.10001,259.69116 217.01466,259.69116 217.91066,259.69116C218.8,259.69116 219.7,259.69116 220.5955,259.69116C221.5215,259.69116 222.39999,259.69116 223.3,259.69116C224.10001,259.69116 225.01466,259.69116 225.91066,259.69116C226.8,259.69116 227.7,259.69116 228.5955,259.69116C229.5215,259.69116 230.40126,259.64337 231.3,259.69116C232.10341,259.73389 232.72095,260.39679 233.7,260.65515C234.57091,260.88498 235.5,260.69116 236.39983,260.69116C237.24733,260.69116 238.12517,260.53015 238.89999,260.72714C239.76227,260.94638 240.50006,261.59128 241.46666,261.69116C242.18787,261.76569 243.1084,262.16055 243.81599,262.40717C244.73988,262.72916 245.65717,262.69116 246.60001,262.69116C247.5,262.69116 248.39983,262.69116 249.27467,262.69116C250.10133,262.69116 251,262.69116 251.89999,262.69116C252.77916,262.69116 253.66145,262.77682 254.60451,262.68665C255.4778,262.60312 256.32483,262.27332 257.05716,261.81247C257.80191,261.34381 258.61703,260.78064 259.27917,260.71198C260.3107,260.60501 260.98688,260.24564 261.77917,259.69116C262.39484,259.26031 262.83072,258.41626 263.65182,258.04831C264.50589,257.66559 265.29095,257.48166 266.00449,257.04382C266.8215,256.54245 267.71066,256.69116 268.62134,256.69116C269.47467,256.69116 270.41467,256.69116 271.39999,256.69116C272.29999,256.69116 273,256.63397 273.79999,256.19116C274.60001,255.74832 275.55728,255.85484 276.39999,255.46982C277.06931,255.16402 277.89993,254.69649 278.79999,254.69115C279.69998,254.68582 280.60001,254.69115 281.5,254.69115C282.39999,254.69115 283.29999,254.69115 284.10001,254.69115C285.01468,254.69115 285.91068,254.69115 286.79999,254.69115C287.70001,254.69115 288.59549,254.69115 289.46933,254.69115C290.32083,254.69115 291.2785,254.69115 292.09866,254.69115C293.01468,254.69115 293.91068,254.69115 294.79999,254.69115C295.70001,254.69115 296.66202,254.48462 297.46667,254.85782C298.16058,255.17964 298.95132,255.66129 299.81601,255.68982C300.75781,255.7209 301.65717,255.69115 302.5,255.69115C303.39999,255.69115 304.29999,255.69115 305.216,255.69115C306.00449,255.69115 306.89999,255.69115 307.79999,255.69115C308.77917,255.69115 309.65717,255.69115 310.5,255.69115C311.39999,255.69115 312.29999,255.69115 313.216,255.69115C314.00449,255.69115 314.89999,255.69115 315.79999,255.69115C316.70001,255.69115 317.6033,255.61546 318.50134,255.69249C319.47714,255.77618 320.09256,256.20932 321.13333,256.52448C321.87213,256.7482 322.79999,256.69116 323.70001,256.69116C324.60001,256.69116 325.5,256.69116 326.39999,256.69116C327.29999,256.69116 328.1315,256.45322 329.01468,256.69116C329.83212,256.91141 330.61633,257.61255 331.29999,257.67032C332.27505,257.75272 333.216,257.69116 334.00449,257.69116C334.89999,257.69116 335.79999,257.69116 336.77917,257.69116C337.65717,257.69116 338.5,257.69116 339.39999,257.69116C340.29999,257.69116 341.216,257.69116 342.00449,257.69116C342.89999,257.69116 343.79999,257.69116 344.77917,257.69116C345.65717,257.69116 346.5,257.69116 347.39999,257.69116L348.29999,257.69116" id="svg_46" stroke-width="3" stroke="#000" fill="none"/>
  <path t="239401,239447,239456,239464,239472,239488,239488,239496,239512,239520,239536,239552,239584,239624,239624,239640,239666,239719,239727,239735,239736,239743,239751,239791,239792,239807,239824,239839,239856,239872,239895,239904,239912,239919,239943,239991" d="M206.3,242.69115C208.11467,242.69115 209.16339,242.50459 210.0045,242.74832C210.76518,242.96875 211.31372,243.90517 212,244.33398C212.78944,244.82726 213.82083,244.69115 214.7,244.69115C215.60001,244.69115 216.5,244.69115 217.39999,244.69115C218.3,244.69115 219.13588,244.49034 220,244.74832C220.85875,245.0047 221.5215,245.69115 222.39999,245.69115C223.3,245.69115 224.13698,245.48668 225,245.74832C225.88489,246.01659 226.31076,246.90994 227,247.33398C227.8214,247.83932 228.77916,247.69115 229.73599,247.69115C230.60001,247.69115 231.5,247.69115 232.39983,247.69115C233.27467,247.69115 234.10133,247.69115 235,247.69115L235.89999,247.69115L236.77916,247.69115" id="svg_47" stroke-width="3" stroke="#000" fill="none"/>
  <path t="241439,241490,241505,241528,241544,241552,241552,241568,241576,241576,241584,241592,241608,241640,241656,241672,241688,241696,241736,241752,241768,241784,241808,241816,241832,241840,241848,241880,241912,241912,241928,241952,242007,242040,242048,242048,242088,242141,242192,242243,242258,242258,242296,242296,242304,242312,242320,242328,242328,242336,242344,242360,242360,242368,242368,242376,242376,242384,242392,242392,242416,242425,242440,242456,242472,242496,242496,242504,242512,242544,242568,242568,242584,242592,242600,242608,242625,242632,242640,242648,242648,242656,242664,242680,242680,242704,242728,242752,242768,242784,242824,242847,242887,242911,242935,242951,242959,242968,242983,243023,243031,243091,243091,243144,243184,243200,243208,243232,243248,243256,243308,243352" d="M261.29999,247.69115C263,247.69115 263.89999,247.69115 264.79999,247.69115C265.71066,247.69115 266.62134,247.69115 267.47467,247.69115C268.41467,247.69115 269.29999,247.69115 270.10001,247.69115C271,247.69115 271.89999,247.69115 272.86401,247.69115C273.73599,247.69115 274.63867,247.9614 275.59549,247.68665C276.36343,247.46614 276.7998,246.70157 277.73599,246.69115C278.59995,246.68153 279.5,246.69115 280.39984,246.69115C281.29999,246.69115 282.1015,246.70911 283,246.69115C283.90054,246.67314 284.53659,245.99773 285.384,245.69249C286.24579,245.38208 287.13589,245.89197 288,245.63399C288.85876,245.37761 289.52151,244.69115 290.39999,244.69115C291.29999,244.69115 292.10019,244.7095 293.01468,244.69115C293.91122,244.67314 294.65036,244.17374 295.5,243.77515C296.36026,243.37157 296.98029,242.83499 297.86932,242.69115C298.64178,242.56616 299.54285,242.69115 300.5,242.69115C301.39999,242.69115 302.29999,242.69115 303.10001,242.69115C304,242.69115 304.94284,242.69115 305.87067,242.69115C306.52133,242.69115 307.49985,242.69115 308.46399,242.69115C309.41599,242.69115 310.18399,242.69115 311.12534,242.69115C312.13333,242.69115 312.93832,242.69115 313.82083,242.69115C314.70001,242.69115 315.60001,242.69115 316.49866,242.69115C317.384,242.69115 318.29999,242.69115 319.10001,242.69115C320,242.69115 320.95108,242.58881 321.84167,242.71199C322.6391,242.8223 323.44489,243.36095 324.27832,243.56966C325.22623,243.80704 325.74002,244.3969 326.70001,244.65515C327.56979,244.88914 328.5,244.69115 329.39999,244.69115C330.29999,244.69115 331.10007,244.67972 332,244.69115C332.82104,244.70157 333.77676,244.99295 334.47467,245.26582C335.40564,245.62982 336.29999,245.69115 337.216,245.69115C338.00449,245.69115 338.89999,245.69115 339.79999,245.69115C340.68933,245.69115 341.65717,245.69115 342.5,245.69115C343.39999,245.69115 344.29999,245.69115 345.216,245.69115C346.00449,245.69115 346.89999,245.69115 347.79999,245.69115C348.68933,245.69115 349.65717,245.69115 350.5,245.69115C351.39999,245.69115 352.29999,245.69115 353.216,245.69115C354.00449,245.69115 354.89999,245.69115 355.79999,245.69115L356.68933,245.69115L357.65717,245.69115L358.5,245.69115" id="svg_48" stroke-width="3" stroke="#000" fill="none"/>
  <polyline timestamps="246768,246784" startTime="1502011125666" id="svg_49" points="378.3,245.69115085601806 379.10133333333334,245.69115085601806 " stroke-linecap="round" stroke-width="3" stroke="#000" fill="none"/>
  <path t="248142,248237,248272,248288,248319,248374,248503,248602,248648,248656,248656,248704,248712,248720,248775,248825,248864,248924,248967,248984,249008,249104,249234" d="M403.29999,240.69115C404.29999,240.69115 405.216,240.69115 406.00449,240.69115C406.89999,240.69115 407.83032,240.46091 408.68933,240.69115C409.37048,240.8737 408.95206,241.52982 408.20001,241.91264C407.51358,242.26207 406.99133,243.25694 406.10132,243.60582C405.29526,243.92178 404.64203,244.48618 403.79999,244.67032C402.93066,244.86043 402.3598,245.24193 401.94733,245.99115C401.48563,246.82979 401.29999,247.69115 401.29999,248.56982L401.29999,249.40715" id="svg_50" stroke-width="3" stroke="#000" fill="none"/>
  <path t="250924,251146,251348,251415,251455,251495,251503,251503,251511,251535,251543,251543,251560,251560,251567,251575,251599,251615,251631,251647,251655,251655,251663,251671,251687,251703,251727,251743,251759,251775,251775,251784,251799,251823,251905,251944,251984,252015,252032,252032,252048,252056,252088,252144,252144,252168" d="M347.29999,257.69116C348.10132,257.69116 348.66901,257.99747 349.30133,258.6058C349.92783,259.20853 350.57007,259.46484 351.39999,259.91248C352.04764,260.26181 352.90125,260.60828 353.65717,261.04382C354.44586,261.49826 355.18695,261.64523 356.12534,261.70181C356.81879,261.74362 357.73224,262.2291 358.24734,262.98666C358.71295,263.67142 359.60001,263.69116 360.49866,263.69116C361.46667,263.69116 362.29999,263.69116 363.10001,263.69116C364,263.69116 364.94284,263.69116 365.82083,263.69116C366.70001,263.69116 367.60001,263.69116 368.49866,263.69116C369.46667,263.69116 370.29999,263.69116 371.10001,263.69116C372,263.69116 372.94284,263.69116 373.82083,263.69116C374.70001,263.69116 375.60001,263.69116 376.49866,263.69116C377.46667,263.69116 378.29999,263.69116 379.10001,263.69116C380,263.69116 380.94284,263.63397 381.384,262.97516L382.29999,262.69116L383.10001,262.69116L384,262.63397" id="svg_51" stroke-width="3" stroke="#000" fill="none"/>
  <path t="263066,263233,263233,263233,263248,263248,263264,263271,263271,263271,263279,263280,263288,263288,263289,263296,263296,263303,263303,263303,263312,263312,263319,263319,263328,263344,263344,263351,263360,263367,263376,263392,263392,263400,263415,263415,263424,263432,263447,263456,263464,263472,263472,263472,263480,263480,263480,263487,263487,263488,263496,263496,263496,263496,263504,263504,263504,263504,263504,263512,263512,263512,263512,263520,263520,263520,263520,263528,263528,263528,263528,263536,263536,263536,263536,263544,263544,263544,263552,263552,263552,263552,263560,263560,263560,263568,263568,263576,263576,263576,263584,263584,263592,263600,263608,263624,263640,263671,263672,263688,263704,263712,263720,263728,263736,263736,263744,263744,263752,263752,263759,263759,263768,263768,263776,263776,263783,263794,263794,263799,263816,263832,263840,263848,263855,263864,263873,263873,263880,263887,263888,263888,263896,263896,263903,263904,263917,263917,263920,263928,263928,263929,263935,263944,263951,263960,263967,263976,263983,263991,263999,264000,264008,264008,264008,264015,264016,264024,264024,264024,264032,264032,264032,264039,264040,264048,264048,264048,264056,264056,264056,264064,264064,264072,264080,264087,264104,264120,264128,264206,264221,264240,264248,264257,264264,264264,264272,264280,264280,264288,264288,264296,264296,264304,264304,264312,264320,264320,264328,264328,264336,264344,264352,264368,264368,264377,264392,264392,264408,264408,264424,264424,264432,264441,264441,264448,264448,264457,264457,264464,264464,264464,264472,264472,264472,264480,264480,264480,264488,264496,264496,264496,264504,264504,264504,264512,264512,264520,264528,264528,264528,264536,264536,264536,264544,264544,264552,264552,264560,264560,264568,264568,264577,264577,264584,264592,264592,264600,264600,264608,264608,264608,264616,264616,264624,264624,264624,264632,264632,264641,264641,264641,264648,264648,264657,264657,264657,264664,264664,264664,264672,264672,264680,264680,264680,264688,264688,264696,264696,264704,264704,264712,264720,264728,264728,264728,264736,264736,264736,264744,264745,264752,264752,264752,264761,264761,264761,264761,264761,264768,264768,264768,264776,264776,264776,264777,264784,264784,264784,264785,264792,264792,264800,264800,264801,264808,264808,264824,264891,264928,264944,264952,264968,264976,264984,264992,265000,265000,265008,265016,265016,265024,265024,265032,265040,265048,265048,265057,265064,265064,265087,265104,265104,265112,265120,265120,265136,265136" d="M5.3,69.69115C6.3,70.69115 7.1502,70.67769 7.8,70.17032C8.56802,69.57065 9.06927,68.84638 9.972,68.70182C10.83194,68.56411 11.82597,68.71682 12.61733,68.60582C13.62466,68.46452 14.28371,68.17988 15.3,67.69115C15.90275,67.4013 16.68428,66.98237 17.7,66.77515C18.49114,66.61375 19.50215,66.47604 20.1,66.26582C20.90297,65.98347 21.90605,65.78248 22.7,65.63848C23.70738,65.45577 24.36003,64.91334 25.34817,64.69565C26.27772,64.49087 27.1,64.69115 28,64.69115C28.9,64.69115 29.8,64.69115 30.71067,64.69115C31.62117,64.69115 32.43867,64.69115 33.34817,64.69115C34.3,64.69115 35.1,64.69115 36,64.69115C36.864,64.69115 37.82084,64.69115 38.7,64.69115C39.6045,64.69115 40.46667,64.69115 41.34167,64.69115C41.98667,64.69115 42.98533,64.69115 43.82084,64.69115C44.70133,64.69115 45.9,64.69115 46.5,64.69115C47.4,64.69115 48.60033,64.69115 49.209,64.69115C50.172,64.69115 50.87067,64.69115 52.04267,64.69115C52.90533,64.69115 53.8,64.69115 54.24933,64.69115C55.132,64.69115 56.35717,64.69115 57.09017,64.69115C58.11467,64.69115 58.78267,64.69115 59.8215,64.69115C60.936,64.69115 61.71067,64.69115 62.50134,64.69115C63.69983,64.69115 64.4955,64.69115 65.27917,64.69115C66.04283,64.69115 67.13333,64.69115 67.81467,64.69115C68.77917,64.69115 69.69867,64.69115 70.60017,64.69115C71.51067,64.69115 72.136,64.69115 73.46667,64.69115C74.18266,64.69115 74.91467,64.69115 75.63866,64.69115C76.96667,64.69115 77.78567,64.69115 78.47867,64.69115C79.50017,64.69115 80.32083,64.69115 81.46667,64.69115C82.24817,64.69115 83.03867,64.69115 83.96667,64.69115C84.87867,64.69115 85.8,64.69115 86.7,64.69115C87.6,64.69115 88.49866,64.69115 89.35267,64.69115C90.3,64.69115 91.1,64.69115 92,64.69115C92.9,64.69115 93.8,64.69115 94.7,64.69115C95.6,64.69115 96.51559,64.76815 97.18533,64.60582C98.1701,64.36713 98.90495,63.89696 99.69867,63.49115C100.46756,63.09804 101.22863,62.51217 101.92533,62.12715C102.7382,61.67793 103.70449,61.6934 104.69867,61.69115C105.464,61.68942 106.41467,61.69115 107.3,61.69115C108.1,61.69115 109,61.63398 109.8,61.19115C110.6,60.74832 111.5,60.69115 112.39983,60.69115C113.3,60.69115 114.06167,60.69115 114.95267,60.69115C115.816,60.69115 116.82083,60.69115 117.63333,60.69115C118.55067,60.69115 119.29467,60.69115 120.33067,60.69115C121.18266,60.69115 122.136,60.69115 122.90134,60.69115C123.8955,60.69115 124.64283,60.69115 125.68533,60.69115C126.63333,60.69115 127.30083,60.69115 128.2375,60.69115C129.25833,60.69115 130.10133,60.69115 131,60.69115C131.89999,60.69115 132.8,60.69115 133.7,60.69115C134.60001,60.69115 135.5,60.69115 136.40033,60.69115C137.11433,60.69115 138.06934,60.69115 138.82083,60.69115C139.61734,60.69115 140.84734,60.69115 141.52533,60.69115C142.72133,60.69115 143.52533,60.69115 144.07466,60.69115C145.37849,60.69115 146.064,60.69115 146.89867,60.69115C147.9045,60.69115 148.75717,60.69115 149.72133,60.69115C150.52533,60.69115 151.34734,60.69115 152.37849,60.69115C153.27916,60.69115 153.89867,60.69115 155.08934,60.69115C155.81467,60.69115 156.77916,60.69115 157.7,60.69115C158.60001,60.69115 159.5,60.69115 160.39983,60.69115C161.3,60.69115 162.10133,60.69115 163,60.69115C163.89999,60.69115 164.8,60.69115 165.71066,60.69115C166.62134,60.69115 167.47467,60.69115 168.41467,60.69115C169.3,60.69115 170.05716,60.69115 170.95717,60.69115C171.7045,60.69115 172.7,60.69115 173.5,60.69115C174.49983,60.69115 175.464,60.69115 176.41467,60.69115C177.3,60.69115 178.05716,60.69115 178.95267,60.69115C179.81599,60.69115 180.77916,60.69115 181.7,60.69115C182.60451,60.69115 183.46666,60.69115 184.27916,60.69115C185.3,60.69115 186.172,60.69115 186.90266,60.69115C187.89101,60.69115 188.72934,60.69115 189.74283,60.69115C190.48534,60.69115 191.54283,60.69115 192.40016,60.69115C193.18533,60.69115 194.136,60.69115 194.90134,60.69115C195.9045,60.69115 196.75717,60.69115 197.72133,60.69115C198.52533,60.69115 199.34734,60.69115 200.37866,60.69115C201.07466,60.69115 201.98399,60.69115 202.98267,60.69115C203.77916,60.69115 204.53067,60.69115 205.64934,60.69115C206.63333,60.69115 207.30983,60.69115 208.08533,60.69115C209.37849,60.69115 210.064,60.69115 210.89867,60.69115C211.89549,60.69115 212.64284,60.69115 213.68533,60.69115C214.63333,60.69115 215.31433,60.69115 216.12134,60.69115C217.3,60.69115 218.19099,60.69115 219.028,60.69115C219.96666,60.69115 220.77916,60.69115 221.78534,60.69115C222.51067,60.69115 223.49983,60.69115 224.27916,60.69115C225.27867,60.69115 226.05267,60.69115 226.95267,60.69115C227.81599,60.69115 228.8,60.69115 229.78534,60.69115C230.51067,60.69115 231.5,60.69115 232.3,60.69115C233.3,60.69115 234.10001,60.69115 234.89999,60.69115C235.9045,60.69115 236.75717,60.69115 237.72116,60.69115C238.51466,60.69115 239.29016,60.69115 240.332,60.69115C241.10533,60.69115 242.06934,60.69115 242.82083,60.69115C243.61734,60.69115 244.84734,60.69115 245.52533,60.69115C246.7215,60.69115 247.536,60.69115 248.11067,60.69115C249.3,60.69115 250.19099,60.69115 251.028,60.69115C251.96666,60.69115 252.8,60.69115 253.63333,60.69115C254.55066,60.69115 255.29466,60.69115 256.332,60.69115C257.10535,60.69115 258.06799,60.69115 258.79999,60.69115C259.96667,60.69115 260.75833,60.69115 261.70001,60.69115C262.60449,60.69115 263.46667,60.69115 264.34167,60.69115C264.98666,60.69115 265.98401,60.69115 266.79999,60.69115C267.616,60.69115 268.84732,60.69115 269.52533,60.69115C270.72168,60.69115 271.26166,60.69115 272.14667,60.69115C273.46667,60.69115 274.18399,60.69115 274.92532,60.69115C275.67465,60.69115 276.41599,60.69115 277.81601,60.69115C278.47467,60.69115 279.12534,60.69115 280.46667,60.69115C281.18399,60.69115 281.92532,60.69115 282.67465,60.69115C284.13333,60.69115 284.81332,60.69115 285.45334,60.69115C286.33835,60.69115 287.37851,60.69115 288.27917,60.69115C289.29999,60.69115 290.10001,60.69115 290.89999,60.69115C291.89099,60.69115 292.72934,60.69115 293.73599,60.69115C294.60001,60.69115 295.50006,60.68074 296.39984,60.69115C297.30017,60.70157 297.84705,61.43817 298.70001,61.65515C299.57294,61.87721 300.5,61.69115 301.40018,61.69115C302.18533,61.69115 303.12534,61.69115 304.13333,61.69115C304.92532,61.69115 305.784,61.69115 306.64734,61.69115C307.54285,61.69115 308.5,61.69115 309.40018,61.69115C310.18533,61.69115 311.12534,61.69115 312.13333,61.69115C312.93832,61.69115 313.84167,61.69115 314.784,61.69115C315.47467,61.69115 316.54733,61.69115 317.46667,61.69115L318.29999,61.69115L319.13333,61.69115L319.99551,61.69115" id="svg_53" stroke-width="3" stroke="#000" fill="none"/>
  <path t="266582,266639,266639,266655,266655,266655,266655,266655,266672,266672,266673,266673,266679,266679,266687,266695,266695,266711,266711,266711,266711,266722,266722,266729,266735,266743,266751,266751,266767,266783,266783,266791,266800,266816,266832,266841,266857,266896,266904,266920,266920,266928,266928,266944,266952,266952,266968,266968,266976,266976,266993,267000,267009,267009,267016,267024,267041,267041,267057,267064,267072,267072,267080,267088,267096,267096,267104,267104,267112,267120,267136,267136,267152,267168,267208,267208,267224,267232,267264,267280,267304,267357,267372,267392,267392,267400,267400,267408,267408,267416,267416,267424,267424,267432,267432,267441,267448,267448,267457,267464,267480,267488,267488,267496,267504,267512,267520,267520,267520,267536,267552,267552,267568,267576,267584,267584,267592,267600,267608,267608,267616,267616,267624,267632,267632,267641,267641,267648,267648,267648,267657,267657,267664,267672,267680,267680,267688,267696,267696,267704,267712,267720,267728,267736,267736,267744,267744,267744,267752,267752,267760,267760,267768,267768,267776,267776,267776,267784,267784,267792,267792,267800,267800,267808,267808,267816,267816,267824,267841,267864,267872,267888,267904,267920,267920,267936,267976,267992,268000,268008,268024,268041,268080,268080,268104,268136,268168,268176,268192,268200,268208,268208,268216,268232,268248,268248,268304,268320,268337,268352,268431,268440,268480,268552,268568,268608" d="M320.29999,60.69115C322.30533,60.69115 323.04962,60.71607 324.15732,60.69098C324.95126,60.673 325.84564,60.47847 326.57199,60.25515C327.4122,59.99682 328.30139,59.69533 329.1955,59.39115C330.0654,59.09521 330.62616,58.9186 331.83383,58.39565C332.42325,58.14042 333.40625,57.72141 334.19333,57.68048C335.07532,57.63463 335.94379,57.4753 336.95065,57.26582C337.65012,57.12029 338.32501,56.92714 339.52667,56.77649C340.40298,56.66663 341.31467,56.69115 342.10132,56.69115C343.05716,56.69115 343.94818,56.69115 344.73065,56.69115C345.74667,56.69115 346.62134,56.69115 347.47467,56.69115C348.41333,56.69115 349.32535,56.69115 350.10132,56.69115C351,56.69115 351.89999,56.69115 352.86401,56.69115C353.73599,56.69115 354.60461,56.67576 355.62134,56.69132C356.30023,56.70171 357.24789,56.96883 357.99551,57.33849C358.79291,57.73275 359.79129,57.62115 360.47467,57.72715C361.43661,57.87635 362.16336,58.50595 363.12534,58.65515C363.80872,58.76114 364.88934,58.69115 365.71066,58.69115C366.62134,58.69115 367.47467,58.69115 368.41333,58.69115C369.35266,58.69115 370.29999,58.69115 371.05716,58.69115C371.94818,58.69115 372.96667,58.69115 373.74283,58.69115C374.65182,58.69115 375.54285,58.69115 376.5,58.69115C377.40033,58.69115 378.11432,58.69115 379.06668,58.69115C379.77917,58.69115 380.93567,58.69115 381.74667,58.69115C382.62134,58.69115 383.47467,58.69115 384.41333,58.69115C385.35266,58.69115 386.29999,58.69115 387.10001,58.69115C388,58.69115 388.86401,58.69115 389.73599,58.69115C390.70001,58.69115 391.60001,58.69115 392.49866,58.69115C393.35266,58.69115 394.29999,58.69115 395.05716,58.69115C395.95715,58.69115 396.7045,58.69115 397.70001,58.69115C398.5,58.69115 399.49985,58.69115 400.27917,58.69115C401.41599,58.69115 402.18399,58.69115 403.12534,58.69115C403.81601,58.69115 404.79999,58.69115 405.784,58.69115C406.64734,58.69115 407.54285,58.69115 408.5,58.69115C409.39999,58.69115 410.29999,58.69115 411.05716,58.69115C411.94818,58.69115 412.96667,58.69115 413.75732,58.69115C414.63333,58.69115 415.54001,58.69115 416.23749,58.69115C417.34366,58.69115 418.29999,58.69115 419.05716,58.69115C419.94818,58.69115 420.96667,58.69115 421.74283,58.69115C422.65182,58.69115 423.54285,58.69115 424.5,58.69115C425.40018,58.69115 426.18533,58.69115 427.12534,58.69115C427.81601,58.69115 428.79999,58.69115 429.78534,58.69115C430.51068,58.69115 431.5,58.69115 432.29999,58.69115C433.29999,58.69115 434.10001,58.69115 434.89999,58.69115C435.89551,58.69115 436.81467,58.69115 437.77917,58.69115C438.71066,58.69115 439.62134,58.69115 440.29999,58.69115C441.41467,58.69115 442.29999,58.69115 443.10001,58.69115C444,58.69115 444.89999,58.69115 445.79999,58.69115C446.71066,58.69115 447.62149,58.69115 448.32083,58.69115C449.29999,58.69115 450.10001,58.69115 450.89999,58.69115C451.89999,58.69115 452.70001,58.69115 453.70001,58.69115C454.5,58.69115 455.5,58.69115 456.29999,58.69115C457.29999,58.69115 458.10001,58.69115 458.89999,58.69115C459.89999,58.69115 460.70001,58.69115 461.70001,58.69115C462.5,58.69115 463.5,58.69115 464.29999,58.69115C465.29999,58.69115 466.08932,58.69115 467.13333,58.69115C467.99551,58.69115 468.89999,58.69115 469.79999,58.69115C470.70001,58.69115 471.60001,58.69115 472.49866,58.69115C473.35266,58.69115 474.27411,58.89876 474.89999,59.26582C475.67154,59.7183 476.43936,60.28706 477.24734,60.63398C477.94504,60.93356 478.89999,60.69115 479.79999,60.69115C480.77917,60.69115 481.66467,60.80424 482.29999,61.21198C483.10217,61.72682 483.51526,62.63026 484.39984,62.69115C485.32315,62.75471 486.10132,62.69115 487.05716,62.69115C487.95267,62.69115 488.81601,62.69318 489.664,62.69115C490.60449,62.6889 491.47772,62.55025 492.27917,62.19115C493.14349,61.80388 493.92929,61.69083 494.70001,61.26582C495.5202,60.81351 496.46667,60.69115 497.29999,60.69115C498.10132,60.69115 499,60.69115 499.89999,60.65515L500.68933,60.26582" id="svg_54" stroke-width="3" stroke="#000" fill="none"/>
  <path t="270661,270894,270909,270959,270984,270999" d="M3.3,72.69115C1.46667,72.69115 0.68933,72.69115 -0.3,72.69115L-1.2,72.69115L-2.08933,72.69115" id="svg_55" stroke-width="3" stroke="#000" fill="none"/>
  <path t="271993,272134,272150,272183,272199,272239,272256,272272,272272,272295" d="M2.3,71.69115C4,71.63399 4.74569,71.14907 5.24733,70.39565C5.70626,69.70639 6.7,69.69115 7.6,69.68665L8.39983,69.46982L9.01467,68.97515L9.91067,68.69115" id="svg_56" stroke-width="3" stroke="#000" fill="none"/>
  <path t="309564,309768,309868,310045,310089,310089,310104,310186,310316,310668" d="M232.3,125.69115C232.336,124.70182 232.83978,124.44441 233.46666,123.85782C234.0872,123.27715 235.10001,123.69115 236,123.69115L236.94284,123.69115L237.82083,123.69115L238.7,123.69115" id="svg_60" stroke-width="3" stroke="#000" fill="none"/>
  <path t="314614,314748,314867,314920,315080,315080,315200" d="M236.3,121.69115C237.21466,121.97515 237.5215,122.69115 238.39999,122.69115L239.3,122.69115L240.10001,122.69115L241.01466,122.77648" id="svg_62" stroke-width="3" stroke="#000" fill="none"/>
 </g>
</svg>