<svg width="500" height="333.3333333333333" xmlns="http://www.w3.org/2000/svg" xmlns:svg="http://www.w3.org/2000/svg" xmlns:xlink="http://www.w3.org/1999/xlink">
 <!-- Created with SVG-edit - http://svg-edit.googlecode.com/ -->
 <g display="inline" class="layer">
  <title>Layer 1</title>
  <path t="0,215,260,288,312,328,344,360,360,360,378,378,427,444,460,478,494,512,528,528,544,560,560,577,577,600,600,616,616,628,644,661,678,683,696,711,711,711,728,728,728,744,760,760,783,784,784,800,800,800,810,827,847,871,872,879,944,960,960,977,977,994,994,1016,1040,1060,1093,1110,1135,1193,1211,1255,1309,1368,1384,1408,1426,1477,1494,1542,1560,1583,1592,1610,1611,1626,1677,1696,1696,1712,1728,1728,1752,1752,1768,1792,1811,1827,1827,1844,1844,1864,1864,1877,1877,1894,1911,1927,1927,1944,1944,1960,1960,1976,1976,2000,2011,2011,2027,2044,2044,2064,2064,2077,2111,2111,2127,2127,2144,2167,2168,2175,2194,2211,2227,2245,2260,2296,2361,2361,2392,2411,2427,2608" d="M254.01137,188.25758C252.41136,187.68291 251.61189,187.2762 250.71587,187.25758C249.72758,187.23706 249.4137,186.8062 248.99786,185.96208C248.61172,185.17825 247.71449,185.27959 246.95503,185.26207C245.69969,185.23311 244.81729,185.36642 244.1212,184.90491C243.38029,184.41367 242.61136,184.25758 241.71136,184.25758C240.81137,184.25758 239.85788,184.07622 239.01137,184.42424C238.34029,184.70013 237.60065,185.22054 236.69003,185.25774C235.83665,185.2926 234.89302,185.53937 234.2587,185.96208C233.52328,186.45215 232.82144,186.89629 231.81169,187.13625C231.06419,187.31387 230.31505,187.86867 229.57536,188.22157C228.70428,188.63716 227.85739,188.61401 227.21136,188.97357C226.42102,189.41345 225.51483,189.81581 224.99052,190.29924C224.39703,190.84647 223.61269,191.65623 223.0322,192.23674C222.4967,192.77225 221.78351,193.5157 221.01137,194.25758C220.4798,194.76831 219.68506,195.274 219.00153,195.55757C218.23349,195.87621 217.17613,196.25311 216.47304,196.55307C215.67084,196.89531 214.76981,197.22899 213.81137,197.25758C212.91176,197.28442 212.0105,197.22038 211.21136,197.25758C210.29372,197.30029 210.03926,198.22783 209.29703,198.61024C208.62625,198.95584 207.60448,199.12646 206.84737,199.28291C205.88252,199.48228 205.24083,200.08992 204.31137,200.25308C203.45944,200.40263 202.78575,200.8004 202.13269,201.47891C201.57495,202.05838 201.01775,202.66614 200.51137,203.25758C200.00244,203.85201 199.85159,204.7738 200.02203,205.65758C200.20387,206.60039 201.16109,206.84267 201.8447,207.42424C202.51071,207.99084 202.75897,208.88528 203.5322,209.23674C204.33279,209.60063 205.31137,209.25758 206.21136,209.25758C207.11136,209.25758 208.01137,209.25758 208.81137,209.25758C209.71136,209.25758 210.64737,209.25758 211.49536,209.25758C212.3587,209.25758 213.2587,209.25758 214.17802,209.25758C215.01137,209.25758 216.02698,209.43062 216.81003,209.17224C217.58374,208.91695 218.42123,208.39207 219.31137,208.25308C220.13051,208.12517 220.73805,207.50487 221.4967,207.05891C222.19684,206.64735 223.20691,206.33702 223.99052,206.27841C224.9873,206.20387 225.94124,206.65228 226.72603,206.17224C227.44957,205.72966 227.87617,204.84415 228.61403,204.45758C229.40262,204.04443 230.16878,203.67526 231.12737,203.34024C231.8904,203.07356 232.647,202.5314 233.18604,202.10825C234.0986,201.39185 235.01218,201.29347 235.81137,201.25758C236.61378,201.22154 237.26993,200.51276 237.76852,199.90575C238.43613,199.09299 239.33522,198.94228 239.9697,198.25758C240.59084,197.5873 241.08841,197.42795 241.98987,197.03607C242.7827,196.69142 243.23436,195.80119 244.17802,195.42424C244.94826,195.11656 245.62164,194.70642 246.36853,194.31474C247.11557,193.92297 247.74857,193.646 248.44736,193.29358C249.29918,192.86398 249.78729,192.89973 250.17802,192.09091C250.54317,191.33508 251.0007,190.65758 251.0322,189.77841L251.65869,189.20491L252.17802,188.42424" id="svg_1" stroke-width="3" stroke="#000" fill="none"/>
  <path t="3008,3128,3160,3176,3177,3194,3243,3261,3277,3293,3310,3327,3352,3375,3393,3393,3415,3455,3494,3494,3511,3511,3543,3543,3577,3610,3643,3643,3661,3661,3738,3739,3767,3793,3793,3826,3861,3861,3880,3896,3896,3920,3953,4024,4043,4076,4100,4100,4126,4126,4160,4160,4160,4193,4194,4226,4261,4261,4276,4276,4277,4277,4294,4294,4311,4311,4311,4339,4339,4360,4411,4429,4429,4448,4478,4493,4493,4511,4526,4544,4544,4559,4560,4577,4577,4594,4752,4793,4826,4826,4826,4844,4844,4860,4860,4860,4877,4877,4894,4894,4911,4927,4927,4943,4961,4961,4977,5000,5010,5027,5094,5111,5144,5160,5160,5160,5191,5191,5226,5227,5260,5293,5495,5511,5543,5611,5644,5661,5678,5709,5728,5728,5759,5776,5793,5810,5810,5826,5826,5876,5911,5944,5944,5977,5977,5994,5994,6011,6011,6028,6044,6060,6076,6094,6110,6110,6127,6127,6128,6144,6144,6195,6196,6218,6243,6277,6311,6343,6360,6360,6376,6376,6394,6410,6427,6448,6476,6476,6494,6494,6511,6527,6543,6544,6568,6569,6611,6644,6685,6686,6710,6711,6743,6793,6827,6860,6860,6894,6927,6927,6961,6994,6994,7010,7030,7074,7133,7134,7162,7162,7186,7187,7220,7220,7262,7263,7294,7294,7294,7326,7326,7361,7361,7361,7393,7393,7411,7426,7427,7528,7528,7560,7560,7577,7577,7600,7627,7660,7694,7695,7726,7726,7727,7761,7761,7761,7794,7794,7811,7811,7843,7876,7877,7910,7910,7943,7960,7977,8007,8027,8060,8093,8127,8160,8177,8177,8193,8193,8212,8240,8260,8277,8294,8311,8335,8376,8432,8432,8444,8444,8460,8477,8511,8528,8529,8561,8744,8760,8827,8843,8864,8983,8993,9044,9061,9061,9077,9092,9113,9114,9127,9159,9160,9183,9211,9227,9248,9264,9310,9327,9327,9343,9359,9360,9360,9376,9394,9412,9412,9427,9427,9427,9448,9449,9461,9462,9462,9477,9479,9495,9511,9512,9527,9544,9560,9560,9561,9576,9594,9595,9613,9627,9627,9644,9644,9645,9661,9662,9675,9676,9710,9710,9725,9743,9744,9759,9759,9760,9783,9783,9799,9799,9842,9858,9859,9876,9893,9910,9975,10007,10029,10030,10057,10080,10080,10127,10145,10145,10167,10183,10209,10227,10244,10261,10282,10283,10295,10296,10310,10330,10344,10359,10376,10399,10399,10410,10411,10429,10444,10445,10460,10460,10479,10479,10495,10495,10515,10515,10516,10527,10527,10528,10528,10544,10545,10560,10561,10627,10655,10695,10728,10776,10794,10794,10842,10843,10843,10859,10859,10860,10860,10877,10894,10909,10927,10928,10944,10945,10945,10960,10961,10961,10976,10993,11010,11040,11059,11076,11095,11095,11109,11127,11144,11145,11162,11163,11163,11176,11177,11194,11195,11211,11234,11234,11260,11261,11261,11276,11277,11296,11296,11311,11328,11343,11367,11383,11394,11410,11426,11427,11447,11447,11493,11510,11511,11559,11655,11676,11696,11696,11711,11712,11727,11744,11760,11760,11777,11777,11793,11809,11810,11827,11843,11861,11877,11893,11910,11935,11960,11960,11991,12043,12060,12060,12095,12110,12128,12129,12167,12192,12226,12226,12227,12391,12411,12411,12426,12443,12444,12460,12476,12476,12493,12509,12509,12527,12527,12527,12544,12544,12544,12545,12767,12768,12794,12824,12844,12860,12876,12876,12894,12911,12911,12935,12935,12959,12976,13007,13007,13026,13043,13044,13059,13079,13093,13094,13119,13143,13167,13191,13271,13303" d="M260.01135,193.25758C260.89804,193.25758 261.8367,193.25758 262.8447,193.25758C263.60071,193.25758 264.51135,193.25758 265.41138,193.25758C266.31137,193.25758 267.21136,193.25758 268.11136,193.25758C269.01135,193.25758 269.69031,192.97284 270.29538,192.34158C270.84924,191.76378 271.41229,191.08279 272.19669,190.69357C273.08575,190.2524 273.95047,190.04234 274.01135,189.15741C274.06525,188.37408 274.01135,187.42157 274.01135,186.65625C274.01135,185.66208 274.01135,184.91475 274.01135,183.89357C274.01135,182.95308 273.89273,182.07642 274.05304,181.25758C274.22266,180.39113 274.97675,179.64206 275.8447,179.42424C276.62686,179.22795 276.84299,180.15849 277.17804,181.09091C277.46854,181.89937 278.07242,182.69772 277.72736,183.45891C277.39334,184.19572 277.02936,185.08243 277.01135,186.09091C276.99786,186.84679 276.7066,187.81534 277.02203,188.64691C277.29861,189.37607 278.41138,189.25758 279.31137,189.25758C280.21402,189.25758 280.98203,189.25758 282.02121,189.25758C282.79669,189.25758 283.8447,189.25758 284.5542,189.25758C285.40686,189.25758 286.41003,189.25758 287.17535,189.25758C288.25421,189.25758 289.1152,189.22244 289.94003,189.31474C291.00275,189.43365 291.72205,189.61026 292.51135,189.75758C293.30069,189.90492 294.34933,190.06302 295.27805,190.23224C296.18338,190.3972 296.82907,190.73662 297.6127,190.97357C298.58878,191.26872 299.54001,191.11432 300.37537,191.26825C301.35541,191.44884 301.99875,192.17255 302.81137,192.25624C303.70663,192.34845 304.64737,192.25758 305.49536,192.25758C306.3587,192.25758 307.25421,192.25758 308.21136,192.25758C309.11154,192.25758 309.8967,192.25758 310.84735,192.25758C311.6127,192.25758 312.60687,192.25758 313.35419,192.25758C314.37537,192.25758 315.32886,192.43147 316.21136,192.25491C317.06018,192.08508 317.51263,191.20271 317.8967,190.65491C318.46832,189.83958 318.94397,189.15765 320.01135,188.59091C320.57547,188.29138 321.41339,188.31949 322.41003,188.25491C323.35876,188.19345 324.10321,187.67015 324.60071,187.10825C325.28122,186.33963 326.13351,186.06181 326.81137,185.45624C327.44357,184.89146 328.34671,184.43982 328.99054,184.25758C329.93048,183.99152 330.44681,183.27559 331.31137,183.25758C332.30664,183.23686 332.70013,182.76334 333.36853,182.31474C334.07013,181.84387 335.03204,181.93901 335.5322,181.21591C335.91278,180.66568 336.50974,179.87212 337.15002,179.09358C337.69156,178.43513 337.84888,177.54147 338.0322,176.75758C338.2569,175.79677 338.95047,175.1637 339.01135,174.25758C339.07275,173.34364 339.45721,172.37613 338.89703,171.61475C338.4184,170.9642 337.42612,170.86256 336.72604,170.34158C336.02817,169.82222 335.19675,169.48387 335.02203,168.65758C334.82187,167.71097 334.10999,167.71268 333.3447,167.09091C332.72977,166.59131 333.01135,165.43225 333.01135,164.74158C333.01135,163.70424 332.70813,162.81902 331.91138,162.37874C331.24802,162.01218 330.54974,161.41365 330.29669,160.65491C329.97302,159.68437 330.01361,158.85759 330.01135,157.85892C330.00961,157.09358 330.01135,156.14291 330.01135,155.15758C330.01135,154.25758 330.01135,153.37891 330.01135,152.61092C330.01135,151.59592 330.01135,150.79591 330.01135,149.83624C330.01135,149.03224 330.01135,148.21025 330.01135,147.17924C330.01135,146.29924 330.01135,145.42424 330.01135,144.56207C330.01135,143.65758 330.01135,142.75758 330.01135,141.85757C330.01135,140.95758 330.01135,140.05624 330.01135,139.09091C330.01135,138.43225 330.01135,137.42424 330.01135,136.56207C330.01135,135.65758 329.86926,134.74458 330.02203,133.85757C330.16553,133.02443 330.8291,132.25288 331.06403,131.50041C331.34549,130.59889 331.54803,129.86497 331.95871,129.01924C332.3486,128.21628 333.12268,127.82224 333.61136,127.07224C334.12317,126.28674 334.58441,125.67252 335.01135,124.75758C335.38086,123.96569 336.16971,123.37114 336.8367,123.29358C337.83859,123.17707 338.70688,123.25758 339.61136,123.25758C340.51135,123.25758 341.42203,123.25758 342.3327,123.25758C343.18604,123.25758 344.12729,123.21056 345.01135,123.25758C345.81479,123.3003 346.47131,123.82244 347.21271,124.45625C347.86395,125.01299 348.694,124.98871 349.67804,125.25758C350.42795,125.46247 350.92648,126.37111 351.64737,126.82158C352.42664,127.30851 353.22202,127.25224 354.21121,127.25758C355.17535,127.26277 356.14139,127.34086 356.89536,127.17224C357.69788,126.99276 358.45999,126.54721 359.43271,126.37907C360.2294,126.24136 361.05872,126.24808 362.08987,126.25774C362.99072,126.26618 364.01691,126.40763 364.81137,126.68291C365.41586,126.89236 366.40759,127.20413 367.17535,127.24691C368.25266,127.30693 369.0896,127.50703 369.72604,127.97358C370.55426,128.58072 371.25195,128.78917 372.12604,129.45891C372.63693,129.85036 373.25531,130.71945 373.57538,131.43225C373.98581,132.34634 374.1633,133.02486 374.81268,133.42824C375.59711,133.91548 375.77451,134.937 375.92737,135.94157C376.05078,136.75256 375.98495,137.32191 376.29538,138.57358C376.46805,139.26978 376.77307,139.93349 376.92737,140.9389C377.08319,141.95419 377.36398,142.7962 377.72736,143.42424C378.17496,144.19788 378.01135,145.23624 378.01135,146.01024C378.01135,146.91025 378.01135,147.77357 378.01135,148.73674C378.01135,149.65758 378.01135,150.55757 378.01135,151.45758C378.01135,152.35741 378.01135,153.25758 378.01135,154.05891C378.01135,154.95758 378.01135,155.89357 378.01135,156.7429C378.01135,157.46825 378.15463,158.67639 377.97537,159.38557C377.75497,160.25748 377.02399,160.77826 377.01135,161.65758C376.9985,162.55299 376.43942,163.20244 375.98602,163.86824C375.49051,164.59586 374.69666,165.00487 374.01135,165.59091C373.51279,166.01727 373.49243,167.25462 372.95871,167.8959C372.42719,168.53455 371.57352,168.50298 370.8447,169.09091C370.14612,169.65445 369.45096,169.91119 368.71136,170.55307C368.04465,171.13168 367.0957,171.41193 367.01135,172.25758C366.92044,173.16907 366.56992,173.94336 365.71136,174.20041C364.84863,174.45871 363.94797,174.85335 364.58069,175.17358C365.28943,175.53229 366.29739,175.84535 367.11136,176.13608C367.96661,176.44154 368.86157,176.27106 369.51135,176.77841C370.27939,177.37808 370.78445,178.08069 371.71136,178.25308C372.64029,178.42586 373.12085,178.92764 373.81268,179.34158C374.60806,179.81746 374.8457,180.73117 375.36853,181.55757C375.7261,182.12274 376.51166,182.84966 377.3447,183.09091C378.22458,183.34573 379.0481,182.85263 380.05502,183.31474C380.7984,183.6559 381.22174,184.73723 381.51135,185.27841C382.03012,186.24777 382.36996,187.08313 382.76852,187.6004C383.41681,188.44177 384.26566,188.8492 384.8447,189.59091C385.32657,190.20819 385.38907,191.12529 386.11136,191.89325C386.6799,192.49774 387.61401,192.86555 388.21136,193.45758C388.81406,194.05489 389.45425,194.85269 390.31586,195.20491C391.13934,195.54155 391.85861,195.65485 392.52737,196.05891C393.41809,196.59709 394.34766,197.07204 394.99054,197.25758C395.92825,197.52823 395.88077,198.604 396.07385,199.25758C396.34052,200.1602 397.31729,200.59798 398.01053,201.01024C398.89505,201.53627 399.15958,202.25197 400.01135,202.92424C400.62949,203.41211 401.59402,203.16043 402.36319,203.31474C403.285,203.49968 404.05255,204.22108 404.61136,204.89357C405.15369,205.54623 405.50317,206.29768 405.8967,206.85892C406.61722,207.88651 407.15826,208.49364 408.01135,208.92424C408.74768,209.29591 409.84164,209.37625 410.01135,210.25758C410.16263,211.04314 409.89191,212.0948 410.5322,212.73674C411.16977,213.37595 412.01135,213.47908 412.01135,214.35757C412.01135,215.25758 412.01135,216.05757 412.01135,216.89357C412.01135,217.91025 412.41721,218.69986 411.99002,219.61092C411.60544,220.43114 410.34702,220.19344 410.02036,220.96208C409.65244,221.8278 409.17554,222.06129 408.31137,222.31474C407.43393,222.57208 406.79324,223.11607 405.8447,223.42424C405.17169,223.64288 404.15164,224.00705 403.42203,224.28291C402.5809,224.60094 402.39343,225.72095 401.72604,226.17224C400.96603,226.68617 400.19144,226.72127 399.56854,227.35757C399.07684,227.85988 398.22369,228.32463 397.42203,228.82158C396.64963,229.30037 395.86481,229.64392 395.12604,229.97357C394.22369,230.37621 393.36707,230.35078 392.6127,230.8269C391.99078,231.21942 391.2467,232.17516 390.62604,232.61092C389.75638,233.2215 388.99609,233.19565 388.19003,233.28291C387.0098,233.41069 386.40491,233.51549 385.5322,233.77841C384.68832,234.03265 383.70309,234.46819 383.05304,234.73674C382.04056,235.15501 381.47034,235.483 380.79004,236.13625C380.2099,236.6933 379.57593,237.23958 378.71136,237.25758C377.81021,237.27635 376.83594,237.34532 376.18604,237.23624C375.14542,237.06158 374.6488,236.35429 374.14438,235.84857C373.30005,235.00206 372.66528,234.65364 372.0322,234.29924C371.15857,233.8102 370.48843,233.19438 369.89703,232.61024C369.31677,232.03711 368.16763,232.1104 367.49054,231.73674C366.66467,231.28099 366.0022,230.95583 365.22604,230.65758C364.17896,230.25522 363.48889,229.923 362.67303,229.61475C361.66461,229.23372 360.62119,229.1371 360.17804,228.42424C359.75394,227.742 359.64063,226.75804 358.81137,226.34158C357.96216,225.9151 357.39987,225.53902 356.98602,224.65758C356.60385,223.8436 355.9834,223.28297 355.37537,222.58557C354.81815,221.94644 354.3815,221.23947 353.8367,220.54425C353.20386,219.73666 352.43658,219.34515 352.05954,218.55225C351.7338,217.86723 350.81989,217.48509 350.25403,216.81458C349.71756,216.17891 349.58057,215.04932 349.16071,214.45758C348.72876,213.84883 348.19666,212.8549 347.9967,212.09358C347.74594,211.13879 347.0452,210.80937 346.36853,210.20491C345.81583,209.71118 346.15738,208.53482 345.57538,207.86824C344.96579,207.17004 344.03998,206.90186 344.01135,206.05624C343.9787,205.09146 344.24219,204.05927 343.56854,203.50058C342.97208,203.00591 341.56198,203.45821 341.13269,202.81491C340.64999,202.0916 340.49756,201.21994 339.99054,200.75758C339.45663,200.27072 338.71896,200.97221 338.31137,201.60941C337.82047,202.3768 337.0426,202.69533 336.29669,203.34158C335.7038,203.85527 335.49081,204.78975 334.82602,205.39624C334.08298,206.07411 333.16269,206.26886 332.51135,206.77841C331.74393,207.3788 331.23996,208.09012 330.31137,208.25308C329.42401,208.4088 328.63602,208.72346 327.91153,209.13625C327.11975,209.58737 326.61179,210.11375 325.81137,210.54158C324.95551,210.99905 324.17715,211.13783 323.5322,211.77841C322.88834,212.41791 322.41684,213.0424 321.71671,213.25308C320.95767,213.48149 321.16617,214.61897 320.79004,215.35741C320.43188,216.06056 319.30441,216.14622 318.61136,216.70424C317.88135,217.29202 317.72958,218.16779 317.21136,218.68825C316.50607,219.39659 315.52737,219.26212 314.66403,219.25758C313.64734,219.25224 312.79184,218.99413 312.21136,218.45624C311.48593,217.78401 310.80435,217.23943 310.36853,216.55757C309.84186,215.7336 309.59457,214.79904 309.03937,214.45758C308.05283,213.85085 307.45868,213.73573 306.52338,213.54291C305.49896,213.33171 304.76697,213.3195 303.70871,213.23224C303.06555,213.1792 301.72516,213.05733 301.30069,212.45624C300.7569,211.68616 301.00894,210.63771 301.43671,209.85757C301.88791,209.03467 302.13791,208.22569 302.62204,207.65758C303.2572,206.91223 303.867,206.15088 304.06403,205.50041C304.33698,204.59924 304.75571,203.74532 305.51135,203.27841C306.26407,202.81329 306.94095,202.17178 307.61136,201.69357C308.34744,201.1685 309.18665,200.85687 309.57538,200.07225C310.01578,199.18332 310.04022,198.2961 310.71671,197.90041C311.45184,197.47041 312.00873,196.66817 312.71585,196.20491C313.47299,195.70888 313.95871,194.96208 314.44736,194.28291L315.21002,193.97357" id="svg_2" stroke-width="3" stroke="#000" fill="none"/>
  <path t="13802,13912,13944,13944,13960,13960,13977,13977,13978,13994,13995,13995,14011,14011,14044,14060,14077,14093,14109,14109,14109,14127,14128,14128,14143,14143,14143,14159,14177,14194,14194,14194,14227,14227,14244,14244,14260,14277,14277,14294,14294,14309,14329,14329,14329,14329,14344,14360,14384,14384,14394,14410,14459,14477,14493,14520" d="M306.01135,201.25758C304.18604,202.22157 303.17804,202.25758 302.38602,202.25758C301.52469,202.25758 300.76471,202.25758 299.58987,202.25758C298.77536,202.25758 298.20068,202.25758 297.01135,202.25758C296.12036,202.25758 295.28336,202.25758 294.3447,202.25758C293.43271,202.25758 292.51135,202.25758 291.61136,202.25758C290.71585,202.25758 289.91403,202.25758 288.93985,202.25758C288.17935,202.25758 287.60736,202.25758 286.41138,202.25758C285.51135,202.25758 284.91138,202.25758 283.7117,202.25758C282.8327,202.25758 282.01727,202.3884 280.98337,202.25624C280.11148,202.14479 279.51779,201.37582 278.71402,201.29358C277.95831,201.21626 276.93304,201.25766 276.05304,201.25758C275.03287,201.25749 274.25275,201.29581 273.51135,200.73674C272.73184,200.14894 272.26624,199.53964 271.52869,199.05757C270.73367,198.53795 270.18176,197.74136 269.3447,197.59091C268.60416,197.45781 267.67834,197.85078 267.06204,197.97491C265.89029,198.21092 265.20419,197.68388 264.44202,197.34291C263.72397,197.02168 262.51892,197.38545 262.01135,196.73674C261.48431,196.06317 261.13269,195.15775 260.79004,194.37907L259.95871,194.25758" id="svg_3" stroke-width="3" stroke="#000" fill="none"/>
  <path t="15227,15294,15328,15344,15344,15368,15376,15393,15409,15409,15426,15426,15426,15444,15444,15444,15477,15477,15494,15494,15494,15494,15494,15494,15510,15510,15510,15510,15536,15536,15585,15585,15593,15609,15627,15627,15649,15660,15677,15694,15694,15710,15710,15727,15727,15727,15745,15773,15794,15873,15895,15911,15911,15912,15927,15927,15943,15944,15960,15960,15984,16000,16024,16043,16043,16112,16136,16160,16176,16193,16209,16210,16226,16227,16248,16248,16293,16328,16385,16444,16460,16477,16494,16510,16510,16528,16544,16560,16577,16577,16592,16609,16627,16659,16676,16696,16696,16768,16768,16784,16856,16877,16894,16910,16927,16944,16960,16976,16976,16992,17009,17010,17026,17048,17048,17064,17064,17080,17093,17109,17127,17144,17145,17160,17160,17161,17161,17161,17177,17177,17177,17178,17194,17194,17227,17227,17244,17245,17245,17245,17261,17261,17261,17261,17277,17278,17278,17294,17295,17295,17312,17327,17344,17360,17360,17377,17377,17377,17377,17377,17393,17393,17393,17409,17409,17409,17410,17427,17427,17427,17444,17445,17445,17459,17459,17477,17504,17528,17553,17611,17697" d="M305.01135,209.25758C303.78986,210.13608 302.85791,210.0762 302.01135,210.42424C301.3403,210.70013 300.58249,211.30998 299.98602,211.83224C299.40854,212.33789 298.51978,212.52931 297.80069,212.86824C296.80215,213.33887 296.21014,213.67897 295.32602,214.05757C294.33868,214.48038 293.5401,214.76358 292.7807,214.97224C291.80759,215.23964 290.97672,215.30481 290.01135,215.42424C289.10406,215.53648 288.58658,215.61182 287.4697,215.75758C286.89145,215.83305 286.31512,215.92447 284.67804,216.09091C283.75644,216.18462 282.97382,216.20367 282.32602,216.28291C281.14673,216.42719 280.57846,216.88467 279.69003,217.13608C278.86206,217.37039 277.8967,217.25758 276.91138,217.25758C276.01135,217.25758 275.21136,217.25758 274.31137,217.25758C273.41138,217.25758 272.49054,217.25758 271.68985,217.25758C270.80069,217.25758 269.81137,217.25758 269.01135,217.25758C268.01135,217.25758 267.22205,217.25758 266.4967,217.25758C265.42203,217.25758 264.51135,217.25758 263.61136,217.25758C262.71136,217.25758 261.6528,217.44647 261.01135,216.75758C260.57834,216.29257 260.44229,215.49902 260.13254,214.40057C259.89767,213.56766 259.26678,212.99875 258.65955,212.50041C257.84576,211.83257 257.50046,211.041 256.81268,210.42691C256.1319,209.81906 255.56468,209.29387 254.69003,209.25742C253.83669,209.22185 252.88547,208.20157 252.13286,208.60057C251.3681,209.00601 251.68816,210.53719 252.23286,211.13625C252.86734,211.83403 253.74501,211.98781 254.66853,212.20491C255.40323,212.37762 256.41623,212.52328 257.13937,212.83224C258.06985,213.2298 258.7655,213.56853 259.29538,214.17358C259.85376,214.8112 259.57849,215.5088 259.17804,216.25758C258.75476,217.04903 257.97311,217.08403 257.21136,217.34291C256.32346,217.64467 255.57004,218.14145 254.81137,218.54158C253.953,218.99431 253.21136,219.25691 252.31137,219.25758C251.41136,219.25826 250.52061,219.11987 249.65421,219.26207C248.77795,219.40587 247.82268,219.79666 247.29669,220.34158C246.63039,221.03188 247.01137,222.05757 247.01137,222.90041C247.01137,223.77841 246.89287,224.97034 247.62202,225.24692C248.45361,225.56236 249.52763,225.14659 250.01137,225.77841C250.52994,226.45572 251.10472,227.19542 251.8967,227.25624C252.83394,227.32822 253.8447,227.25758 254.60069,227.25758C255.5322,227.25758 256.33286,227.25758 257.22205,227.25758C258.21103,227.25758 258.9697,227.25758 259.99054,227.25758C260.81268,227.25758 261.71136,227.25758 262.5322,227.25758C263.5007,227.25758 264.33002,227.25864 265.51135,227.25758C266.26471,227.25691 267.09814,227.25081 267.5322,227.23674C268.41083,227.20827 269.68329,227.1207 270.43802,226.97224C271.43652,226.77585 272.26978,226.51469 273.04202,226.05757C273.79459,225.61209 274.47076,224.99571 275.25803,224.69357C276.15302,224.3501 276.97314,224.31178 277.85803,224.23224C278.49811,224.1747 279.89597,223.97667 280.63669,223.83224C281.38663,223.68604 282.12268,223.50734 283.1897,223.37907C284.16144,223.26227 284.76468,223.26292 285.8447,223.25758C286.76471,223.25304 287.52469,223.25758 288.60071,223.25758C289.49054,223.25758 290.26602,223.25758 291.08737,223.25758C291.87936,223.25758 293.17804,223.25758 293.89536,223.25758C294.63669,223.25758 295.38602,223.25758 296.12735,223.25758C297.52603,223.25758 298.17535,223.25758 299.10687,223.25758C300.01135,223.25758 300.91138,223.25758 301.81137,223.25758C302.41138,223.25758 303.61191,223.2737 304.51135,223.23674C305.11194,223.21207 306.32056,223.07185 307.19003,222.82158C308.00735,222.58632 308.84219,222.11424 309.59003,221.69357C310.38626,221.24568 311.31137,221.25758 312.21136,221.25758L313.11136,221.25758L314.01135,221.25758L314.8447,221.09091" id="svg_4" stroke-width="3" stroke="#000" fill="none"/>
  <path t="18513,19193,19226,19243,19296,19310,19327,19376,19376,19407,19459,19509,19559,19632,19660,19676,19693,19712,19728,19743,19759,19760,19784,19784,19809,19826,19826,19842,19842,19842,19860,19860,19860,19860,19877,19877,19877,19877,19877,19893,19894,19894,19894,19894,19909,19910,19910,19927,19952,19952,19992,20010,20072,20072,20104,20104,20176,20208,20243,20277,20293,20309,20327,20327,20343,20360,20376,20376,20400,20400,20432,20491,20559,20575,20576,20607,20627,20642,20658,20660,20676,20692,20710,20727,20743,20759,20759,20776,20793,20794,20809,20809,20826,20843,20859,20876,20876,20892,20893,20908,20909,20926,20942,20943,20960,20976,21007,21026,21055,21077,21092,21110,21159,21177,21192,21209,21228,21228,21277" d="M377.01135,238.25758C377.01135,239.95758 377.40958,240.96014 376.97537,241.82158C376.62311,242.52045 375.8703,243.09409 374.99054,243.23674C374.04498,243.39006 373.17416,243.04779 372.31137,243.31474C371.44519,243.58275 371.03986,244.55621 371.01135,245.45758C370.98291,246.35696 371.31693,247.02725 371.95871,247.61024C372.53799,248.13647 373.31137,248.25758 374.21136,248.25758C375.11136,248.25758 376.02786,248.15257 376.8967,248.34291C377.69043,248.5168 378.50363,249.07954 379.38602,249.22157C380.3215,249.37215 381.0322,249.25758 382.01135,249.25758C382.8327,249.25758 383.78204,249.25758 384.65436,249.25758C385.68335,249.25758 386.43271,249.25764 387.21402,249.25758C388.41171,249.25749 389.22052,249.25958 390.05304,249.23674C390.48346,249.22493 391.384,249.19217 392.8537,249.03624C393.3775,248.98067 394.44083,248.83302 394.9697,248.75758C395.99191,248.61176 397.34344,248.41212 398.06735,248.34291C398.88516,248.26471 399.84335,248.25758 400.72119,248.25758C401.52869,248.25758 402.49054,248.25758 403.31586,248.25758C404.3327,248.25758 405.01135,248.25758 405.98987,248.25758C406.81003,248.25758 407.83395,247.84636 408.65421,248.31474C409.46738,248.77907 409.98602,249.25758 410.81268,249.25758C411.64737,249.25758 412.66403,249.25758 413.3587,249.25758C414.37537,249.25758 415.35455,249.1409 416.11154,249.47891C416.82651,249.79816 417.66306,250.21814 418.52737,250.25624C419.46906,250.29774 420.1322,251.46021 420.8447,251.09091C421.64154,250.6779 421.77115,249.7196 421.99054,248.75758C422.16846,247.97734 422.01135,247.05624 422.01135,246.09091C422.01135,245.25758 422.01135,244.27924 422.01135,243.42424C422.01135,242.64691 422.05771,241.72427 421.58603,240.85757C421.18735,240.12502 421.07877,239.36906 421.0007,238.43225C420.91599,237.41576 420.38321,236.80525 420.13287,235.93625C419.89465,235.10938 420.01135,234.14424 420.01135,233.23674C420.01135,232.39624 420.17987,231.39027 419.93936,230.63225C419.63947,229.68704 418.90527,229.33234 418.3447,228.42424C417.90753,227.71606 417.45972,226.90248 417.17804,226.09091C416.90063,225.29169 417.01135,224.27924 417.01135,223.37891C417.01135,222.55307 417.01675,221.65756 417.01135,220.75758C417.00601,219.86819 416.60406,219.16521 415.95871,218.61024C415.37671,218.10976 414.55612,217.72177 414.06403,216.96208C413.60776,216.25769 413.06403,215.55225 412.92737,214.82558L412.21002,214.26024" id="svg_5" stroke-width="3" stroke="#000" fill="none"/>
  <path t="22000,22064,22064,22092,22092,22110,22110,22125,22126,22126,22141,22142,22142,22176,22177,22192,22209,22209,22232,22232,22232,22259,22259,22276,22276,22276,22276,22293,22293,22310,22310,22310,22327,22327,22344,22344,22393,22393,22393,22410,22433,22433,22458,22509,22559,22559,22575,22591,22592,22592,22608,22609,22625,22626,22626,22626,22643,22644,22644,22644,22660,22676,22676,22692,22693,22709,22710,22728,22728,22728,22728,22729,22743,22743,22743,22743,22743,22759,22760,22760,22760,22760,22784,22784,22784,22784,22799,22816,22826,22842,22843,22860,22877,22877,22892,22892,22892,22910,22911,22927,22928,22947,22947,22947,22948,22969,22969,22969,22969,22969,22969,22969,22994,22994,22994,22994,22994,22994,22995,23009,23009,23009,23010,23027,23043,23043,23058,23077,23093,23093,23109,23110,23127,23143,23177,23200,23200,23216,23241,23242,23296,23296,23312,23327,23376,23392,23410,23432,23584,23592" d="M366.01135,245.25758C366.59253,246.61475 366.14587,247.09618 365.17535,247.65758C364.61896,247.97943 363.61136,248.45758 363.01135,248.75758C362.01135,249.25758 361.19409,249.65622 360.5542,250.01474C359.57983,250.56064 359.07239,250.92088 358.27271,251.39624C357.35492,251.9418 356.51666,252.16008 355.81137,252.54158C354.95779,253.0033 354.19193,253.29013 353.24203,253.54158C352.48615,253.74167 351.70087,254.0114 350.69537,254.17358C350.01501,254.28333 348.83939,254.40356 348.05869,254.61475C347.50723,254.76392 346.69196,255.05043 345.69669,255.45624C344.81894,255.81412 344.01395,256.10654 343.21136,256.23224C342.41367,256.35718 341.40253,256.59503 340.61136,256.96207C339.80182,257.33762 339.01212,257.75906 338.01135,258.25757C337.41632,258.55396 336.66165,258.87997 335.64737,259.23224C334.80533,259.52469 334.01532,259.69873 333.36853,260.3674C332.80032,260.9548 332.56155,262.26715 333.09671,262.97092C333.57239,263.5965 334.7807,263.25757 335.5322,263.25757C336.3287,263.25757 337.3287,263.25757 338.27271,263.25757C339.3447,263.25757 339.98093,263.24884 340.6727,263.26825C341.76373,263.29886 342.84839,263.40457 343.52338,263.54156C344.45474,263.73059 345.22339,264.05759 346.20154,264.20041C347.16943,264.34174 348.01135,264.25757 348.99002,264.25757C349.76404,264.25757 350.68204,264.25757 351.33002,264.25757C352.51135,264.25757 353.26602,264.25757 354.1087,264.25757C355.00735,264.25757 355.46771,264.25757 356.8447,264.25757C357.72736,264.25757 358.58603,264.25757 359.43671,264.25757C360.29538,264.25757 361.17804,264.25757 362.09537,264.25757C363.03671,264.25757 363.51135,264.25757 364.45871,264.25757C365.8447,264.25757 366.7207,264.25757 367.53268,264.25757C368.25668,264.25757 369.3447,264.25757 370.29669,264.25757C371.11136,264.25757 372.01135,264.25757 372.81137,264.25757C373.76852,264.25757 374.67303,264.25757 375.47302,264.25757C376.43253,264.25757 377.22604,264.25806 378.00153,264.25757C379.04202,264.2569 379.89206,264.16647 380.86868,263.83224C381.5289,263.60632 382.65338,263.36325 383.33469,263.31476C384.09366,263.26074 384.93469,263.25983 386.3447,263.25757C386.85452,263.25674 387.93021,263.25757 388.49402,263.25757C389.07385,263.25757 390.27753,263.25757 390.89935,263.25757C392.17804,263.25757 392.83218,263.25757 394.15054,263.25757C394.80469,263.25757 395.44885,263.25757 396.07803,263.25757C397.27136,263.25757 398.34473,263.26508 399.26602,263.25626C400.36566,263.24573 401.16977,263.21005 401.99054,262.75757C402.74078,262.34396 403.55591,262.23459 404.37537,261.83224C405.2449,261.40533 406.12686,261.34857 406.8967,261.17224C407.6861,260.99142 408.3284,260.35388 409.02603,259.69357C409.58221,259.16714 409.98096,258.5347 410.72119,257.96207C411.29852,257.51544 412.27719,257.37686 413.17804,257.09091C414.03348,256.81937 414.83487,256.36499 415.60071,256.26825C416.56879,256.14594 417.04367,255.54178 417.43671,254.85757C417.90359,254.04478 418.36404,253.31024 418.99054,252.73674L419.01135,251.85757L419.00235,250.96208" id="svg_6" stroke-width="3" stroke="#000" fill="none"/>
  <path t="24045,24159,24159,24191,24215,24215,24215,24241,24241,24259,24277,24297,24314,24592" d="M361.01135,248.25758C361.17804,247.25758 361.5907,246.52129 362.05304,245.73674C362.45511,245.05447 363.05353,244.57913 363.77136,244.11891C364.65463,243.55263 365.58994,243.27377 366.51135,243.25758C367.40063,243.24196 368.01135,242.75758 368.62204,242.26825L369.49054,242.23674" id="svg_7" stroke-width="3" stroke="#000" fill="none"/>
  <path t="25427,25492,25511,25529,25529,25545,25561,25577,25577,25593,25593,25610,25627,25642,25642,25661,25677,25677,25694,25695,25711,25711,25727,25727,25743,25743,25759,25784,25808,25808,25827,25877,25896,25912,25936,26033,26033,26044,26801,26812,26881,26912,26929,26960,27057,27294,27312,27326,27326,27360,27383,27407,27426,27426,27442,27459,27459,27476,27476,27492,27509,27509,27535,27536,27600,27644,27660,27712,27727,27745,27762,27762,27762,27762,27776,27776,27776,27776,27793,27793,27793,27793,27793,27809,27809,27810,27810,27825,27825,28048,28049" d="M336.01135,165.25758C336.92737,165.54158 337.55911,166.07655 337.92737,166.8269C338.27731,167.54001 338.32062,168.55609 339.11121,169.13641C339.80682,169.647 339.86664,170.32387 340.2327,171.23608C340.5433,172.01009 340.86884,172.9709 341.44736,173.64691C341.9837,174.27362 342.8967,174.25691 343.8367,174.25758C344.8447,174.2583 345.72803,174.40201 345.92871,175.10957C346.16989,175.95985 346.50449,176.82135 347.16071,177.33357C347.82745,177.85402 347.70184,178.92221 348.3447,179.75758C348.83099,180.38953 349.92767,180.23169 350.5322,180.77841C351.24387,181.42203 351.77969,182.10872 352.71136,182.25308C353.60077,182.3909 354.56091,182.53984 355.4007,182.24692C356.15503,181.9838 356.72012,181.29637 357.52869,181.25891C358.46896,181.21535 358.58765,180.53004 359.04736,179.69357C359.40778,179.03781 359.67261,178.56924 360.0322,177.77841C360.38376,177.00523 360.05884,175.5976 361.01135,175.60057C361.86835,175.60324 360.939,177.51567 360.29538,177.97224C359.59891,178.46632 358.60086,178.12486 357.71136,178.26207C356.77997,178.40575 356.24323,179.10399 355.37537,179.24692C354.36771,179.41287 353.60687,179.25758 352.6127,179.25758C351.84735,179.25758 350.72171,179.38995 349.91119,179.03624C349.19354,178.72305 348.35999,178.29367 347.66403,178.26207C346.65894,178.21643 346.06995,177.49887 345.30685,177.26207C344.48508,177.00705 344.06244,176.40596 344.88736,176.26207C345.76248,176.10942 346.70871,176.25758 347.40738,176.25758C348.13004,176.25758 349.19019,176.25758 350.19669,176.25758C350.87271,176.25758 351.58069,176.26044 352.75421,176.25742C353.62119,176.25519 354.53265,176.24672 355.4632,176.20041C355.92899,176.17723 357.29279,176.056 358.14069,175.90041C358.93167,175.75525 359.63538,175.55307 360.74704,175.15775L361.4697,174.77841L362.33237,174.37907L363.11404,174.26825" id="svg_8" stroke-width="3" stroke="#000" fill="none"/>
  <path t="29153,29244,29277,29294,29295,29311,29328,29344,29360,29384,29384,29393,29393,29411,29426,29426,29443,29460,29476,29476,29496,29496,29519,29519,29535,29543,29559,29576,29576,29593,29593,29610,29626,29626,29643,29643,29660,29675,29675,29692,29692,29692,29711,29711,29711,29711,29725,29725,29743,29743,29759,29775,29792,29809,29840,29860,29876,29892,29910,29910,29926,29944,29960,29960,29976,29976,29993,30010,30026,30027,30043,30104,30320,30344" d="M348.01135,125.25758C346.31137,125.25758 345.33087,125.25062 344.71136,125.96291C344.24396,126.50034 343.44736,126.9329 342.62204,127.26824C341.89954,127.56181 342.06921,128.68686 341.79004,129.57907C341.56522,130.29755 341.12744,131.25076 341.04736,132.03624C340.94803,133.01053 340.69437,133.81239 340.43671,134.44292C340.01312,135.47946 340.01135,136.35757 340.01135,137.25758C340.01135,138.01474 340.01135,138.91475 340.01135,139.85892C340.01135,140.85307 340.01135,141.6004 340.01135,142.50041C340.01135,143.45758 340.01135,144.35757 340.01135,145.25758C340.01135,146.01474 340.0022,146.91029 340.01135,147.77357C340.02179,148.75775 340.18283,149.60355 340.62204,150.43225C341.06271,151.26375 341.65503,151.80666 342.30685,152.55757C342.88553,153.22423 343.13495,154.05818 343.86469,154.74425C344.27515,155.13014 345.07199,155.66576 345.67804,156.42424C346.26523,157.1591 346.5835,158.02193 346.89404,158.48825C347.57596,159.51221 348.27399,159.78328 348.98969,160.5789C349.54562,161.19693 349.46198,162.42461 350.01135,163.09091C350.44708,163.61938 350.94681,164.18214 351.5322,164.73674C352.25806,165.42444 352.96405,165.8853 353.71671,166.20491C354.6243,166.59032 354.95148,167.17619 355.5322,167.73674C356.189,168.37071 357.34958,168.44341 358.01135,168.77841C358.86902,169.21259 359.40768,169.9319 360.31137,170.20041C361.17584,170.45726 362.11154,170.25308 362.8967,170.25758C363.82608,170.26292 364.76852,170.47891 365.2327,171.13625L365.95419,171.61475" id="svg_9" stroke-width="3" stroke="#000" fill="none"/>
 </g>
</svg>