<svg width="500" height="333.3333333333333" xmlns="http://www.w3.org/2000/svg" xmlns:svg="http://www.w3.org/2000/svg" xmlns:xlink="http://www.w3.org/1999/xlink">
 <!-- Created with SVG-edit - http://svg-edit.googlecode.com/ -->
 <g display="inline" class="layer">
  <title>Layer 1</title>
  <path t="0,105,122,123,129,145,146,155,170,171,177,178,192,192,192,194,194,194,202,202,202,209,210,210,218,218,218,225,225,226,233,233,233,241,241,249,249,265,265,274,274,282,290,290,297,298,306,307,313,313,313,322,323,323,326,329,330,330,330,339,339,345,345,345,345,354,354,354,361,361,370,370,377,377,386,386,393,401,402,409,409,409,417,417,425,433,433,441,442,450,450,459,460,460,470,470,475,475,475,481,481,490,490,490,497,497,497,506,506,513,513,522,523,523,529,529,529,539,539,539,545,546,546,554,554,554,561,561,561,561,561,570,571,571,577,577,593,593,601,602,617,625,641,641,649,658,665,673,674,689,713,713,723,729,739,745,746,755,761,761,770,777,777,786,793,793,801,809,817,833,841,841,858,889,889" d="M154.5,113.66666C152.66667,113.5 152.1774,112.76747 151.47917,112.6875C150.39224,112.56301 149.5,112.66666 148.7,112.66666C147.864,112.66666 146.84283,112.66716 146.0955,112.66666C145.10001,112.666 144.28468,112.69981 143.29984,112.44534C142.67662,112.2843 141.82133,111.91421 140.81599,111.74934C140.0043,111.61622 139.14316,111.58749 138.18401,111.09866C137.46321,110.73132 136.84857,110.14035 135.81467,109.836C135.27635,109.67754 134.38837,109.66209 133.20016,109.44534C132.6001,109.33587 131.74603,109.04625 130.66667,108.83334C129.95798,108.69353 129.04735,108.66891 128.07883,108.66666C127.28533,108.66482 126.50983,108.66666 125.30983,108.66666C124.61733,108.66666 123.664,108.66666 122.89867,108.66666C121.9,108.66666 121.1,108.66666 120.10133,108.66666C119.15717,108.66666 118.25267,108.66666 117.33334,108.66666C116.5,108.66666 115.52133,108.66666 114.74733,108.66666C113.83833,108.66666 113.03833,108.66666 112.07833,108.66666C111.25333,108.66666 110.33833,108.66666 109.33334,108.66666C108.616,108.66666 107.87466,108.66666 106.75267,108.66666C105.66666,108.66666 104.98666,108.66666 104.04166,108.66666C103.46167,108.66666 102.184,108.66666 101.5,108.66666C100.33334,108.66666 99.54283,108.66666 98.97916,108.66666C98.09866,108.66666 96.90134,108.66666 96.02084,108.66666C95.45717,108.66666 94.18667,108.66666 93.34666,108.66666C92.38267,108.66666 91.69017,108.66666 90.732,108.66666C90,108.66666 88.83332,108.66223 88.04166,108.66666C87.08929,108.672 86.18539,108.90594 85.47916,109.16666C84.50883,109.52489 83.69281,109.5977 82.9,109.75066C82.09158,109.90664 81.3752,110.38796 80.25267,110.6095C79.34899,110.78784 78.67441,110.64377 77.66666,110.66666C76.87405,110.68467 76.02579,110.98562 75.25333,111.24133C74.34608,111.54167 73.54592,111.56643 72.50983,111.71933C71.63585,111.84831 70.87563,112.3287 69.95734,112.7665C69.26689,113.09568 68.52299,113.38912 67.468,113.58134C66.70304,113.72071 65.72933,113.66666 64.95834,113.66666C64.09734,113.66666 63.20033,113.66666 62.32133,113.66666C61.51433,113.66666 60.46933,113.66666 59.61733,113.66666C58.65333,113.66666 57.81333,113.66666 56.81467,113.66666C55.97917,113.66666 55.3955,113.66666 54.20016,113.66666C53.31067,113.66666 52.45716,113.66666 51.42133,113.66666C50.72533,113.66666 49.816,113.66666 48.81467,113.66666C47.97917,113.66666 47.39548,113.65986 46.19983,113.66683C45.28929,113.67214 44.65912,113.66 43.33333,113.83334C42.6126,113.92757 41.87528,114.09512 41.12533,114.24133C40.38459,114.38575 39.3237,114.56973 38.35733,114.63067C37.51991,114.68349 36.46933,114.66666 35.61733,114.66666C34.664,114.66666 33.89798,114.63395 32.9045,114.67117C32.15584,114.69921 31.34729,115.20771 30.4,115.54517C29.5445,115.84993 28.66822,115.47997 27.8,115.72383C27.03855,115.9377 26.24636,116.45569 25.4,116.888C24.74469,117.22272 23.86405,117.66133 23.016,117.66666C22.15268,117.6721 21.25717,117.66666 20.3,117.66666C19.4,117.66666 18.5,117.66666 17.7,117.66666C16.864,117.66666 15.84733,117.66666 15.15267,117.66666C14.12533,117.66666 13.17867,117.66666 12.32533,117.66666C11.38533,117.66666 10.5,117.66666 9.7,117.66666C8.8,117.66666 7.9,117.66666 7,117.66666C6.08933,117.66666 5.17867,117.66666 4.32533,117.66666L3.38533,117.66666L2.5,117.66666L1.7,117.66666" id="svg_1" stroke-width="3" stroke="#000" fill="none"/>
  <path t="2914,2961,2970,2970,2987,2987,2987,2993,2994,2994,3003,3003,3003,3009,3010,3018,3026,3026,3034,3034,3042,3042,3050,3057,3058,3065,3073,3081,3081,3097,3098,3106,3113,3129,3145,3161,3161,3170,3186,3195,3218,3241,3257,3266,3289,3297,3297,3313,3329,3329,3337,3346,3353,3362,3362,3370,3386,3428,3457,3473,3483,3505,3529,3545,3569,3578,3593,3594,3619,3682,3770,3787,3810" d="M225.5,93.66666C228.12534,93.63067 228.97394,93.35243 229.71066,93.092C230.68657,92.74702 231.53877,92.71265 232.10001,92.412C232.98079,91.94019 233.47676,91.1256 234.10001,90.43333C234.67905,89.79017 235.49167,89.19314 236.10001,88.86933C237.08266,88.34629 237.86591,88.08427 238.74283,87.71484C239.52417,87.38567 239.83617,86.50093 240.60017,85.9095C241.16838,85.46965 242.13976,85.28149 242.84734,85.01933C243.85838,84.64474 244.85669,84.51337 245.47917,84.14584C246.31427,83.65276 246.76083,82.87544 247.60017,82.44534C248.29703,82.08824 249.15138,81.70277 249.84734,81.67117C250.85242,81.62553 251.37694,80.94938 252.11067,80.67733C252.96457,80.36073 253.97678,80.36487 254.67467,80.092C255.60565,79.72801 256.63791,79.98846 257.33334,79.5C258.04852,78.99768 258.60684,78.5559 259.5,78.66666C260.39923,78.77818 260.78418,79.61263 261.66666,79.66666C262.47791,79.71633 263.29242,80.07567 263.7215,80.76667C264.20099,81.53887 264.79703,82.26408 265.70001,82.58134C266.55295,82.88101 267.61011,82.72127 268.064,83.27734C268.6785,84.03017 269.12726,84.66079 269.89999,85.092C270.71893,85.54899 271.6044,85.57798 272.5,85.66666C273.3457,85.7504 273.80801,86.43366 274.44733,87.01933C275.03058,87.55366 275.73639,88.1286 276.5,88.5C277.25391,88.86667 278.10001,89.24133 278.89999,89.63067L279.79999,89.66666L280.69867,89.668L281.44733,90.01933" id="svg_2" stroke-width="3" stroke="#000" fill="none"/>
  <path t="4724,4746,4746,4755,4755,4762,4763,4772,4772,4778,4778,4778,4787,4787,4787,4796,4796,4796,4803,4812,4812,4819,4819,4835,4835,4835,4842,4843,4851,4858,4867,4874,4883,4883,4899,4907,4907,4914,4915,4922,4922,4930,4930,4938,4954,4954,4962,4971,4971,4987,4989,4994,5002,5011,5019,5027,5027,5034,5035,5042,5042,5051,5051,5058,5074,5074,5074,5090,5090,5090,5099,5099,5107,5116,5116,5123,5123,5131,5138,5149,5150,5150,5154,5154,5155,5166,5166,5171,5171,5171,5172,5179,5179,5179,5179,5186,5186,5197,5197,5197,5203,5203,5210,5211,5211,5211,5211,5219,5219,5220,5226,5226,5227,5235,5235,5235,5242,5242,5243,5243,5250,5251,5251,5258,5258,5258,5266,5266,5266,5274,5274,5274,5284,5284,5285,5285,5291,5291,5299,5299,5307,5307,5317,5317,5324,5334,5334,5334,5341,5341,5350,5350,5355,5355,5355,5362,5371,5379,5379,5388,5394,5395,5403,5411,5419,5420,5435,5443,5443,5451,5458,5474,5490,5499,5515,5522,5522,5539,5564,5594,5605,5610,5650" d="M340.5,92.66666C342.50534,92.66666 343.24933,92.66666 344.35718,92.66666C345.11465,92.66666 346.15717,92.66616 346.90451,92.66666C347.89999,92.66734 348.71933,92.61864 349.70016,92.88834C350.32751,93.06084 351.18909,93.54702 351.92133,93.98783C352.72955,94.4744 353.23022,94.90586 354.33334,95.33334C355.2251,95.67891 356.01334,95.66533 357,95.66666C357.8215,95.66777 358.71066,95.66666 359.70001,95.66666C360.5,95.66666 361.5,95.66666 362.29999,95.66666C363.10001,95.66666 364.16446,95.39943 364.92932,95.752C365.754,96.13214 366.30133,96.666 367.20001,96.66666C368.13599,96.66736 368.98401,96.66882 369.84732,96.66666C370.74734,96.66441 371.66666,96.5 372.5,96.16666C373.33334,95.83334 374.12531,95.672 375.15717,95.66666C375.90451,95.6628 376.92267,95.82451 377.62799,95.63067C378.58044,95.3689 379.22922,94.8054 380.01733,94.58266C380.89581,94.33439 381.71133,93.78716 382.38535,93.58266C383.34232,93.29231 383.99112,92.83145 384.97916,92.6875C385.89059,92.55471 386.79999,92.66666 387.70001,92.66666C388.60016,92.66666 389.38535,92.66666 390.336,92.66666C391.10132,92.66666 392.10001,92.6672 392.89999,92.66666C393.89734,92.666 394.76828,92.57926 395.52084,92.16666C396.33844,91.71841 397.06235,91.67838 397.90399,91.668C398.79959,91.65696 399.67868,91.66666 400.48566,91.66666C401.53067,91.66666 402.38266,91.66666 403.32535,91.66666C404.33334,91.66666 405.12534,91.66666 405.98401,91.66666C406.84732,91.66666 407.86401,91.66666 408.70132,91.66666C409.66666,91.66666 410.35733,91.66666 411.272,91.66666C412.14249,91.66666 413.14001,91.66666 413.81332,91.66666C415,91.66666 415.82443,91.6168 416.83334,91.83334C417.52896,91.98264 418.35617,92.28123 418.98801,92.468C420.01932,92.77287 420.74585,92.97163 421.47916,93.14584C422.52753,93.3949 423.45377,93.5854 424.45834,93.64584C425.49832,93.70841 426.30792,93.61714 427.10001,93.752C427.9155,93.89083 428.76282,94.30335 429.83334,94.66666C430.46429,94.88079 431.15851,95.06824 431.88535,95.23067C432.61469,95.39366 434.01324,95.58379 434.65332,95.64133C435.53818,95.72089 436.58038,95.8824 437.5,96.16666C438.1853,96.3785 439.18686,96.57228 440.02084,96.6875C440.60568,96.7683 441.81091,97.08603 442.39551,97.3765C443.28223,97.8171 443.79153,98.22476 444.81732,98.78C445.50641,99.15298 446.26205,99.42916 447.46799,99.58266C448.14771,99.66919 448.85965,99.61637 450.16666,99.83334C450.99951,99.9716 451.7001,100.30259 452.66666,100.5C453.44855,100.6597 454.31064,100.66133 455.5,100.66666C456.09866,100.66935 456.97916,100.66666 457.81467,100.66666C458.81467,100.66666 459.68933,100.66666 460.70001,100.66666C461.5,100.66666 462.5,100.66666 463.28934,100.66666C464.33334,100.66666 465.08932,100.66666 466.04166,100.66666C466.83334,100.66666 467.76462,100.63795 468.55182,100.72383C469.58527,100.83658 470.22543,101.17528 471.33334,101.5C472.00778,101.69767 473.04266,101.66666 473.75067,101.66666C474.49466,101.66666 475.68567,101.66666 476.60001,101.66666C477.5,101.66666 478.29999,101.66666 479.13599,101.66666C480.15268,101.66666 480.84732,101.66666 481.86401,101.66666C482.79999,101.66666 483.70132,101.66666 484.38535,101.66666C485.32535,101.66666 486.33334,101.66666 487.1955,101.66666C488.10001,101.66666 489,101.66666 489.89999,101.66666C490.79999,101.66666 491.70001,101.66666 492.60001,101.66666C493.5,101.66666 494.29999,101.66666 495.20001,101.66666C496.10001,101.66666 497,101.66666 497.89999,101.66666L498.79999,101.66666L499.70001,101.66666" id="svg_3" stroke-width="3" stroke="#000" fill="none"/>
  <path t="6443,6490,6500,6500,6507,6515,6523,6531,6539,6539,6554,6570,6578,6586,6586,6586,6594,6594,6602,6610,6610,6618,6634,6642,6650,6658,6658,6666,6674,6682,6682,6690,6690,6706,6715,6730,6739,6747,6754,6762,6770,6778,6794,6810,6826,6826,6834,6850,6858,6866,6866,6890,6922,6930,6946,6962,6970,6978,6978,6994,6994,7002,7018,7026,7058,7074,7090,7090,7098,7114,7123,7123,7146,7178,7178,7186,7186,7202,7218,7226,7234,7242,7258,7266,7266,7282,7299,7314,7331,7331,7354,7363,7363,7379,7386,7394,7402,7410,7434,7442,7466,7475,7490,7498,7506,7523,7546,7554,7578,7594,7602,7618,7618,7634,7650,7658,7690,7698,7738,7756,7794,7794,7818,7819,7842,7843,7882,7882,7883,7906,7917,7923,7963,7970,7970,7986,8010,8026,8042,8042,8058,8067,8090,8106,8130,8146,8194,8258,8258,8338,8363,8386,8402,8426,8434,8442,8442,8458,8474,8484,8500,8506,8535,8539,8570,8595,8602,8618,8618,8626,8651,8668,8684,8690,8719,8722,8723,8751,8768,8770,8785,8787,8799,8800,8804,8804,8826,8850,8850,8858,8866,8866,8874,8886,8890,8903,8919,8934,8935,8939,8967,8991,8991,9004,9021,9038,9048,9051,9058,9074,9090,9090,9103,9122,9138,9138,9154,9170,9182,9187,9204,9219,9237,9237,9237,9258,9282,9298,9330,9362,9378,9418,9434,9554,9579,9594,9606,9626,9650,9674,9674,9690,9713,9714,9729,9730,9745,9755,9755,9770,9778,9802,9816,9820,9858,9866,9905,9906,9922,9962,10017,10026,10034,10058,10058,10076,10090,10106,10122,10139,10163,10164,10182,10202,10215,10236,10253,10263,10290,10306,10306,10337,10370,10417,10482,10714,10723,10748,10780,10780,10794,10802,10817,10833,10834,10844,10859,10860,10866,10874,10897,10906,10914,10929,10945,10946,10970,10978,10986,11018,11026,11027,11042,11066,11077,11082,11092,11093,11104,11110,11122,11130,11143,11157,11169,11177,11178,11186,11201,11225,11226,11242,11274,11410,11419,11429,11429" d="M277.5,91.66666C272.21066,94.63467 273.15268,94.66666 273.84732,94.66666C274.86401,94.66666 275.79999,94.66666 276.70001,94.66666C277.60001,94.66666 278.5,94.66666 279.29999,94.66666C280.20001,94.66666 281.10468,94.74187 282.04166,94.64584C282.84247,94.56375 283.7468,94.22794 284.49466,94.01933C285.52432,93.73212 286.34778,93.65491 287,93.14584C287.76813,92.5463 288.4628,91.19585 289.21466,91.75333C289.85281,92.2265 289.12134,92.66666 290.02084,92.66666C290.98401,92.66666 291.84732,92.66791 292.74283,92.66666C293.70001,92.66533 294.5,92.33334 295,91.66666C295.5,91 296.29999,90.668 297.20001,90.66666C298.10001,90.66533 299.05197,90.95576 299.88934,90.656C300.6261,90.39226 301.21417,90.06522 302.064,89.63067C302.76083,89.27435 303.30151,88.6846 304.20001,88.66666C305.13651,88.64796 305.97678,88.36486 306.67465,88.092C307.60562,87.728 308.60818,87.92223 309.37885,87.44534C310.11526,86.98965 310.68527,86.672 311.61465,86.66666C312.59998,86.66101 313.6489,87.00375 314.33334,86.5C314.98633,86.0194 315.60001,85.66666 316.5,85.66666C317.25717,85.66666 318.15268,85.66666 319.01599,85.66666C319.97916,85.66666 320.89999,85.66666 321.79999,85.66666C322.70001,85.66666 323.60001,85.66666 324.5,85.66666C325.29999,85.66666 326.20001,85.66666 327.13599,85.66666C327.98401,85.66666 328.84732,85.66666 329.74734,85.66666C330.66666,85.66666 331.5,85.66666 332.47849,85.66666C333.29868,85.66666 334.20016,85.64986 335.10001,85.66666C336.06451,85.68467 336.35138,86.39783 336.936,87.056C337.55225,87.74977 338.55692,87.95637 339.20001,88.314C340.05313,88.78842 340.84573,89.19408 341.70001,89.58266C342.4631,89.92978 343.15729,90.22398 343.7955,90.96667C344.4407,91.71752 344.4169,92.61443 345.11066,93.23067C345.76883,93.81531 346.48483,94.18739 346.5,95.06667C346.51706,96.05591 347.07733,96.60786 347.52533,97.27734C348.01746,98.01276 348.33325,98.87816 348.50015,99.7665C348.64966,100.56221 349.40582,101.05354 349.92532,101.64133C350.44043,102.22417 350.5,103.06667 350.5,103.96667C350.5,104.86667 350.5,105.76667 350.5,106.66666C350.5,107.46667 350.5,108.36667 350.5,109.26667C350.5,110.16666 350.5,111.06667 350.5,111.96667C350.5,112.86667 350.54321,113.76771 350.5,114.66666C350.45728,115.55508 350.15338,116.32884 349.7955,117.07117C349.31284,118.07228 349.08258,118.73495 348.33334,119.5C347.74615,120.09958 346.96454,120.32127 346.02084,120.66666C345.18405,120.97292 344.95743,122.03242 344.2785,122.54517C343.57077,123.07967 342.54651,122.57949 341.936,123.27734C341.35336,123.94334 341.63657,125.02331 341.216,125.86667C340.88608,126.52831 340.50226,127.36666 340.5,128.26666C340.49774,129.16667 340.5,130.06667 340.5,130.96666C340.5,131.86667 340.5,132.76666 340.5,133.66667C340.5,134.46666 340.5,135.36667 340.5,136.26666C340.5,137.16667 340.49933,138.06667 340.5,138.96666C340.50067,139.86667 340.80084,140.7175 341.14734,141.36667C341.60068,142.21603 341.62656,143.04839 342.14734,143.71933C342.60046,144.3031 342.70328,145.14058 343.33334,145.83333C343.87894,146.4332 344.47134,147.02238 344.5,147.86667C344.53055,148.76614 344.62653,149.69856 345.11066,150.26666C345.74585,151.01201 346.08218,151.82835 346.72134,152.54533C347.25623,153.14532 347.5,153.86667 347.5,154.76666C347.5,155.66667 347.5,156.46666 347.5,157.36667C347.5,158.26666 347.49777,159.16667 347.5,160.06667C347.50226,160.97118 347.66324,161.83469 347.92532,162.492C348.32809,163.50211 348.49466,164.25595 348.5,165.1875C348.50552,166.15065 348.5,166.84134 348.5,167.914C348.5,168.83333 348.71786,169.76083 348.216,170.49733C347.74109,171.19427 347.5,171.96666 347.5,172.86667C347.5,173.76666 347.64603,174.69438 347.44284,175.36667C347.17828,176.24196 346.66907,177.01927 346.216,177.86667C345.8674,178.51866 345.68594,179.39352 345.46399,180.26666C345.24478,181.12894 344.73291,181.96396 344.216,182.58267C343.66718,183.23961 343.63657,184.0233 343.216,184.86667C342.88608,185.52831 342.2579,186.10239 341.66666,186.83333C341.1022,187.53114 340.91348,188.26115 340.5,189.16667C340.13687,189.96196 339.84445,190.90981 339.27866,191.54533C338.74417,192.14568 338.68582,193.02194 338,193.66667C337.53842,194.10062 336.45221,194.22701 335.75467,194.86534C335.0929,195.47096 334.78253,196.06668 334.49551,196.96217C334.25165,197.72302 333.51044,198.18732 333.5,199.06667C333.48932,199.9666 333.35123,200.95636 333.85266,201.614C334.36874,202.29086 335.1106,202.66133 336,202.66667C336.91064,202.67213 337.82132,202.66667 338.67465,202.66667C339.61465,202.66667 340.5,202.66667 341.25717,202.66667C342.15268,202.66667 343.01599,202.66656 344,202.66667C344.82117,202.66676 345.67706,202.63907 346.47916,203.16667C347.14661,203.60571 348,203.66667 348.89999,203.66667C349.79999,203.66667 350.70001,203.66667 351.60001,203.66667C352.5,203.66667 353.43039,203.27362 354.21466,203.752C355.01828,204.24219 355.45728,204.94902 355.5,205.86667C355.54184,206.76569 355.47464,207.66707 355.5,208.46666C355.52859,209.36803 356.18619,210.08904 356.44284,210.96666C356.69595,211.83223 356.5,212.76666 356.5,213.66667C356.5,214.46666 356.5,215.36667 356.5,216.26666C356.5,217.16667 356.5,218.06667 356.5,218.96666C356.5,219.86667 356.5,220.76666 356.5,221.66667C356.5,222.46666 356.5,223.36667 356.5,224.26666C356.5,225.16667 357.15994,226.35902 356.5,226.95767C356.43649,227.01527 355.73474,226.39322 355.33334,225.66667C354.90646,224.89398 354.11517,224.4247 353.62134,223.56683C353.19681,222.82935 352.37411,222.47566 351.79999,221.96217C351.16989,221.39862 350.57159,220.57919 349.89999,220.10266C349.17435,219.58777 348.67166,219.04048 348.14282,218.37117C347.5574,217.63025 346.32001,218.04349 345.66666,217.5C344.97665,216.92604 344.70563,216.17534 344.02084,215.66667C343.32657,215.15096 342.73392,214.70561 342,214.14583C341.22525,213.55492 341.01874,212.7296 340.44733,212.02383C339.85574,211.29317 339.8768,210.48668 339.33334,209.83333C338.75937,209.14331 337.75043,209.12091 337.52084,208.16667C337.31268,207.30145 336.87387,206.83827 336.2045,206.30949C335.46353,205.72418 335.23709,204.8466 334.54816,204.314C333.88766,203.80338 333.23105,203.57986 332.45184,203.01933C331.80411,202.55338 331.66815,201.63023 331.41467,200.86667C331.15833,200.0945 330.55716,199.36667 330.5,198.46666L330.49985,197.56667L330.33334,196.66667L329.88934,196.03067" id="svg_4" stroke-width="3" stroke="#000" fill="none"/>
  <path t="13100,13410,13418,13445,13445,13450,13482,13482,13522,13522,13546,13546,13546,13562,13594,13609,13617,13641,13649,13649,13681,13681,13697,13697,13737,13770,13770,13802,13810,13866,13866,13874,13882,13898,13907,13914,13924,13946,13957,13978,13994,13994,14002,14002,14018,14018,14026,14050,14050,14066,14074,14082,14092,14107,14107,14125,14125,14130,14146,14146,14157,14157,14162,14162,14178,14178,14186,14195,14195,14202,14210,14226,14234,14234,14243,14243,14250,14258,14259,14266,14266,14274,14274,14275,14282,14291,14307,14314,14314,14326,14332,14354,14361,14378,14393,14394,14409,14418,14433,14442,14458,14466,14466,14474,14490,14490,14506,14506,14522,14522,14530,14555,14578,14578,14586,14586,14593,14594,14602,14609,14627,14634,14634,14642,14649,14665,14666,14674,14682,14690,14698,14706,14713,14714,14722,14730,14730,14738,14745,14746,14746,14756,14757,14762,14777,14778,14786,14786,14802,14825,14826,14841,14873,14874,14897,14954,14971,15034,15043,15050,15050,15074,15082,15122,15130,15146,15157,15171,15178,15179,15194,15211,15218,15242,15250,15266,15274,15282,15291,15308,15308,15324,15325,15345,15346,15410,15410,15434,15450,15459,15474,15490,15490,15497,15506,15514,15514,15522,15523,15529,15539,15545,15561,15562,15572,15572,15586,15593,15602,15609,15626,15626,15633,15634,15642,15649,15650,15665,15666,15681,15690,15697,15698,15706,15722,15722,15729,15730,15745,15761,15786,15802,15833,15834,15841,15873,15881,15882,15905,15914,15929,15939,15946,16026,16042,16058,16082,16114,16123,16140,16141,16147,16178,16187,16187,16194,16219,16242,16249,16265,16274,16281,16329,16345,16355,16370,16522" d="M229.5,89.66666C229.5,91.46667 229.5,92.30267 229.5,93.15067C229.5,94.014 229.5,95.03067 229.5,95.86933C229.5,96.63734 229.52783,97.67849 229.464,98.452C229.37717,99.50454 229.28516,100.28497 228.7955,100.94783C228.17592,101.78655 227.5106,102.27734 227.5,103.16666C227.48927,104.06667 227.1113,104.80407 226.66667,105.66666C226.29735,106.38316 225.94737,107.16594 225.31467,107.84133C224.68297,108.51565 223.95262,109.09648 223.584,109.86667C223.17371,110.72393 222.69075,111.32087 222.51067,112.26667C222.35902,113.0631 222.49939,113.988 222.5,114.84133C222.50067,115.78 222.88507,116.57455 223.47467,117.092C224.11241,117.6517 224.50043,118.45922 225.30133,118.66534C226.17348,118.88979 226.92569,119.33196 227.70134,119.58134C228.62393,119.87795 229.5,119.66666 230.47867,119.66666C231.25267,119.66666 232.21754,119.41988 232.93066,119.752C233.75298,120.13496 234.5,120.66666 235.3,120.66666C236.2,120.66666 236.90489,120.8615 237.584,121.38267C238.16554,121.82896 239.15717,121.66666 240.10133,121.66666C241.0955,121.66666 241.84283,121.66666 242.87466,121.66666C243.8215,121.66666 244.52083,121.66666 245.5,121.66666C246.28934,121.66666 247.33333,121.66605 248.12534,121.66666C248.98399,121.66734 249.89053,121.61581 250.74283,122.01933C251.55342,122.40311 252.3002,122.64801 253.2,122.66666C254.10052,122.68533 254.85551,123.22592 255.82133,123.54533C256.47589,123.76181 257.44788,123.94435 258.1955,124.314C258.99292,124.70827 259.98941,124.61828 260.71066,124.70267C261.71039,124.81963 262.47684,125.24647 263.5,125.5C264.27658,125.69244 265.01468,125.666 265.97916,125.66666C266.89999,125.6673 267.80457,125.65561 268.66666,125.66666C269.47937,125.67709 270.25739,126.05171 270.50134,126.86533C270.73825,127.65544 271.83716,127.41353 272.69867,127.66933C273.4751,127.89988 273.20438,129.14189 274.02084,129.625C274.77832,130.0732 275.79999,129.66667 276.70001,129.66667C277.60001,129.66667 278.50085,129.62949 279.29999,129.66667C280.21765,129.70938 280.82272,130.56491 281.52084,130.64583C282.47253,130.75613 283.25266,130.66667 284.15268,130.66667C285.01599,130.66667 285.97916,130.66676 286.91068,130.66667C287.8215,130.66658 288.72452,130.69681 289.5,130.5C290.29861,130.29733 291.29865,129.71379 291.491,128.96666C291.72662,128.05136 292.30133,127.66918 293.13599,127.66666C294.14816,127.6636 294.85724,127.48815 295.54816,127.01933C296.20511,126.57355 297.15268,126.66666 298.01599,126.66666C298.97916,126.66666 299.89999,126.66666 300.79999,126.66666C301.70001,126.66666 302.60001,126.66666 303.5,126.66666C304.29999,126.66666 305.15146,126.65482 305.98401,126.95067C306.86661,127.2643 307.76416,127.5527 308.66666,127.83334C309.35187,128.04642 310.09204,128.42693 311.09549,128.614C311.83743,128.75232 312.82224,129.21597 313.66666,129.5C314.46851,129.76971 315.36493,129.48561 316.1955,129.72383C317.09583,129.98207 317.81628,130.5956 318.67465,130.65601C319.6124,130.722 320.5,130.66667 321.29999,130.66667C322.20001,130.66667 322.94836,130.90869 323.58401,131.38266C324.35284,131.9559 325.41626,131.51236 325.5,130.66667C325.57883,129.87056 325.5,128.96666 325.5,128.06667C325.5,127.16666 325.5,126.26667 325.5,125.36667C325.5,124.46667 325.5,123.56667 325.5,122.66666C325.5,121.86667 325.5,120.96667 325.5,120.06667C325.5,119.16666 325.5,118.26667 325.5,117.36667C325.5,116.46667 325.41132,115.56229 325.5,114.66666C325.58374,113.82097 326.57156,113.5778 327.10001,113.02C327.80792,112.27276 328.18295,111.52811 328.41467,110.55067C328.5929,109.79893 328.51199,108.84122 328.5,108.15067C328.48199,107.11287 327.7955,106.66891 326.89999,106.66666C325.97916,106.66435 325.01599,106.66666 324.32535,106.66666C323.25717,106.66666 322.39999,106.66666 321.5,106.66666C320.74283,106.66666 319.84732,106.66666 318.98401,106.66666C318.02084,106.66666 317.10001,106.66666 316.1955,106.66666C315.33334,106.66666 314.5,106.66666 313.52151,106.66666C312.70132,106.66666 311.79999,106.66666 310.89999,106.66666C310,106.66666 309.08932,106.66666 308.17868,106.66666C307.32535,106.66666 306.384,106.66666 305.616,106.66666C304.67465,106.66666 303.66666,106.66666 302.87466,106.66666C302.01599,106.66666 301.15268,106.66666 300.25717,106.66666C299.29868,106.66666 298.32291,106.77731 297.52084,106.64584C296.64008,106.50146 295.99664,105.94505 295.35068,105.60533C294.48187,105.14842 294.56229,103.96974 293.69867,103.66933C292.84988,103.37408 291.89999,103.66666 291.08932,103.66666C290.17868,103.66666 289.32535,103.66666 288.38535,103.66666C287.39999,103.66666 286.4996,103.69203 285.70001,103.66666C284.79861,103.63807 284.10556,103.23216 283.30133,102.75066C282.55771,102.30547 281.92526,101.95882 281.11066,101.656C280.37717,101.38334 279.76279,101.10762 278.936,100.63067C278.2468,100.23307 278.5062,98.99235 277.93201,98.46667C277.2814,97.87102 276.63727,97.22942 276.216,96.46667C275.74683,95.61717 275.62109,94.83109 274.97916,94.1875C274.33994,93.54665 273.51996,93.23119 273.5,92.36667C273.47702,91.37142 272.8295,90.85981 272.52084,90.14584C272.17188,89.33862 272.5,88.36667 272.50134,87.468L272.85718,86.72383L273.69867,86.668" id="svg_5" stroke-width="3" stroke="#000" fill="none"/>
  <path t="17867,17970,17970,18017,18034,18081,18090,18106,18114,18161,18186,18195,18233,18289,18489,18497,18514,18529,18545,18570,18577,18591,18594,18618,18635,18654,18674,18692,18705,18714,18730,18756,18809,18817,18865,18889,18913,18929,18946,18961,18961,18969,18969,18977,18993,19009,19017,19033,19042,19058,19058,19074,19074,19082,19105,19105,19129,19153,19161,19161,19185,19209,19226,19249,19266,19266,19282,19305,19306,19306,19313,19313,19329,19337,19337,19353,19369,19377,19385,19409,19418,19441,19441,19457,19457,19481,19481,19489,19505,19514,19514,19537,19545,19570,19578,19578,19594,19605,19609,19618,19619,19626,19633,19644,19658,19667,19667,19674,19757,19758,19777,19777,19777,19777,19778,19778,19778,19778,19778,19789,19790,19790,19817,19841,19841,19873,19882,19921,19929,19962,19962,19970,19970,19985,19985,19993,20001,20009,20017,20017,20025,20025,20042,20058,20058,20058,20065,20082,20089,20121,20137,20145,20186,20193,20209,20257,20266,20274,20283,20306,20323,20351,20377,20402,20402,20427,20441,20465,20489,20497,20497,20514,20537,20545,20585,20601,20625,20625,20641,20641,20650,20658,20658,20665,20666,20673,20681,20689,20705,20705,20714,20714,20722,20730,20730,20738,20746,20746,20755,20762,20769,20769,20777,20793,20801,20817,20826,20842,20849,20857,20858,20865,20866,20881,20881,20905,20905,20913,20930,20945,20961,20969,20985,21001,21009,21017,21041,21065,21073,21081,21105,21113,21137,21169,21185,21193,21201,21211,21217,21226,21233,21242,21265,21274,21298,21322,21338,21394,21418,21442,21466,21490,21506,21531,21547,21578,21594,21626,21650,21650,21674,21674,21683,21706,21714,21731,21731,21738,21755,21770,21779,21802,21818,21827,21828,21859,21859,21866,21866,21876,21882,21898,21906,21914,21931,21938,21938,21947,21947,21980,21980,22003,22004,22034,22068,22086,22170,22187,22250,22274,22426,22427,22442,22530,22586,22586,22642,22659,22690,22714,22762,22810,22898,22931,22931,22986,22994,23026,23082,23098,23116,23202,23203,23274,23314,23322,23356,23371,23402,23402,23410,23421,23431,23442,23442,23458,23467,23498,23522,23546,23563,23578,23587,23587,23610,23634,23666,23698,23746,23756,23779,23787,23818,23834,23834,23866,23875,23882,23882,23906,23915,23946,23978,23987,24002,24011,24028,24034,24050,24061,24062,24066,24098,24107,24123,24123,24138,24155,24179,24186,24196,24211,24218,24234,24258,24266,24290,24298,24314,24322,24322,24332,24354,24362,24379,24386,24402,24413,24434,24434,24450,24450,24474,24482,24506,24506,24520,24520,24522,24522,24530,24538,24546,24547,24555,24563,24579,24580,24586,24595,24602,24612,24613,24634,24634,24634,24645,24666,24666,24682,24682,24730,24730,24738,24746,24762,24770,24794,24803,24804,24811,24826,24859,24874,24874,24890,24898,24906,24938,24954,24986,25002,25002,25003,25018,25029,25029,25044,25044,25050,25062,25062,25066,25076,25077,25090,25091,25098,25098,25106,25106,25123,25123,25131,25131,25138,25139,25146,25147,25154,25163,25163,25170,25170,25178,25186,25195,25202,25218,25218,25234,25244,25306,25306,25338,25338,25378,25394,25394,25413,25418,25427,25434,25444,25445,25451,25460,25460,25466,25482,25492,25492,25498,25514,25538,25538,25546,25563,25563,25570,25578,25594,25611,25618,25619,25638,25652,25659,25677,25682,25698,25708,25714,25722,25731,25746,25754,25772,25779,25780,25786,25787,25794,25802,25818,25826,25827,25834,25850,25859,25860,25866,25877,25877,25882,25892,25898,25899,25909,25914,25922,25930,25931,25938,25947,25970,25970,25986,25994,26002,26010,26019,26019,26027,26034,26043,26066,26077,26077,26082,26098,26114,26130,26131,26147,26147,26157,26170,26171,26186,26186,26194,26194,26202,26210,26226,26234,26243,26290,26316,26353,26354,26370,26394,26402,26426,26434,26442,26475,26475,26482,26491,26506,26538,26538,26554,26562,26579,26595,26604,26618,26634,26652,26653,26682,26698,26714,26724,26753,26754,26778,26810,26826,26865,26866,26890,26898,26898,26938,26956,26970,26987,27005,27013,27028,27034,27035,27050,27060,27066,27075,27082,27082,27091,27092,27098,27099,27111,27115,27130,27146,27177,27178,27193,27194,27218,27242,27250,27289,27306,27306,27316,27333,27355,27369,27378,27390,27394,27417,27426,27434,27441,27466,27474,27491,27499,27507,27525,27530,27540,27562,27570,27578,27586,27601,27610,27610,27618,27626,27634,27642,27650,27658,27674,27675,27691,27700,27707,27725,27730,27731,27746,27758,27778,27809,27825,27834,27842,27851,27874,27890,27898,27912,27930,27943,27944" d="M226.5,88.66666C226.5,87.66666 226.5,86.86667 226.5,85.96667C226.5,85.06667 226.80476,84.10892 226.48933,83.27734C226.21275,82.54817 224.79607,82.78175 224.51067,82.056C224.19261,81.24722 223.70737,80.67276 223.5045,79.96217C223.24635,79.05794 222.66667,78.5 222.5,77.66666C222.33333,76.83334 221.26759,77.10092 220.66667,76.5C220.06573,75.89907 220.26793,74.84889 219.40016,74.6665C218.60785,74.49998 218.11778,73.87737 217.30133,73.66534C216.50089,73.45746 215.97932,72.67929 215.10001,72.66666C214.20457,72.65381 213.7581,72.19057 213.4955,71.37117C213.25267,70.61346 212.11067,70.656 211.5,70.16666C210.88933,69.67733 210,69.66666 209.10001,69.66666C208.2,69.66666 207.29866,69.66666 206.33333,69.66666C205.67467,69.66666 204.66667,69.66666 203.8045,69.66666C202.89999,69.66666 202,69.66666 201.10001,69.66666C200.2,69.66666 199.3,69.66666 198.39999,69.66666C197.5,69.66666 196.74283,69.66666 195.84734,69.66666C194.98399,69.66666 194,69.66666 193.01601,69.66666C192.32533,69.66666 191.25717,69.66666 190.39999,69.66666C189.5,69.66666 188.7,69.66666 187.8,69.66666C186.89999,69.66666 185.97916,69.64088 185.1955,70.01933C184.30663,70.4486 183.38879,70.41425 182.668,70.952C181.96831,71.47401 181.46249,72.1746 180.89734,72.46667C179.91158,72.9761 179.1597,73.31709 178.25717,73.614C177.40233,73.89521 176.73141,74.50289 175.89999,74.656C175.01434,74.81909 174.24107,75.08786 173.40016,75.54533C172.6528,75.9519 172.59441,76.77164 172.5,77.66666C172.41418,78.48016 171.59831,79.02604 170.98267,79.552C170.34039,80.10072 170.03523,80.87847 169.55267,81.905C169.20428,82.64613 168.1631,82.84367 167.78534,83.468C167.29793,84.27354 167.57732,85.33421 167.064,86.06667C166.51033,86.85669 165.70723,87.3191 165.52083,88.16666C165.32739,89.0462 165.14937,89.82478 164.66667,90.66666C164.27386,91.35175 163.24365,91.288 162.67067,91.952C162.06279,92.65644 162.68134,93.82014 162.33333,94.66666C162.05743,95.33775 161.6282,96.17922 161.47749,97.00267C161.32222,97.85108 160.66928,99.00134 160.39333,99.53733C160.08293,100.14018 159.73723,100.7883 159.37334,101.46934C159.00058,102.16697 158.62547,102.86337 158.26334,103.54533C157.91885,104.19406 157.08549,105.78511 156.78133,106.50933C156.44055,107.3207 155.9695,108.15747 155.40016,108.76667C154.84763,109.35789 154.50841,110.28445 154.07466,111.06667C153.61987,111.8868 153.5,112.76667 153.5,113.66666C153.5,114.42384 153.24443,115.38837 153.58533,116.09734C154.04007,117.04307 154.40288,117.55954 154.51067,118.48133C154.62283,119.44055 155.29121,119.9275 155.72133,120.76683C156.07843,121.46369 156.21117,122.42673 156.66933,123.09734C157.15717,123.81139 158.41086,123.93352 158.85333,124.528C159.30011,125.12827 159.17284,126.21027 159.51067,127.056C159.82599,127.84541 160.13673,128.46846 160.536,129.23067C160.93321,129.98898 161.07143,130.62135 161.58533,131.38133C162.03662,132.04872 162.9626,132.33992 163.47467,133.056C163.98326,133.76721 164.68489,134.15608 165.33333,134.83333C165.93774,135.4646 166.79778,135.34766 167.416,135.952C168.03806,136.56009 168.27058,137.49666 169.10001,137.65601C170.04779,137.83809 170.41951,138.34213 170.936,139.06667C171.496,139.8522 172.30751,140.31956 172.48933,141.26666C172.65904,142.15059 172.5,143.06667 172.5,143.96666C172.5,144.86667 172.49554,145.76685 172.5,146.552C172.50534,147.49205 172.38884,148.30336 173.04167,149.14583C173.54001,149.78891 174.64079,149.99875 175.16667,150.66667C175.70216,151.3468 175.16626,152.44894 175.536,153.23067C175.88641,153.97154 176.48093,154.53806 176.49867,155.26933C176.52747,156.45564 176.39267,157.18948 176.52083,158.16667C176.63075,159.00482 177.06511,159.84671 177.69867,160.49867C178.3356,161.1541 178.31253,161.87134 178.50133,162.78C178.68626,163.67012 179.24644,164.28831 179.55267,164.96133C179.95023,165.83502 180.49774,166.37115 180.5,167.26666C180.50226,168.16667 180.49934,169.06667 180.5,169.96666C180.50067,170.86667 180.61357,171.90155 181.26167,172.30949C182.05618,172.80959 183.12856,172.73157 183.42799,173.53867C183.68329,174.22678 183.5,175.45599 183.5,176.18134C183.5,177.14583 183.49933,178.06667 183.5,178.96666C183.50067,179.86534 184.11021,180.40454 184.464,181.10266C184.8549,181.87401 184.35022,182.87926 184.50017,183.76649C184.64417,184.61853 185.24947,185.14037 185.5045,185.96217C185.7413,186.72525 186.13153,187.26915 186.52083,188.14583C186.8365,188.85674 187.30804,189.39972 187.536,190.26666C187.76102,191.12248 188.7115,191.49982 189.59984,191.66684C190.3954,191.81642 190.25307,192.90089 190.784,193.58267C191.27194,194.20924 192.0719,194.61154 192.52533,195.27733C193.02086,196.00494 193.96338,196.28462 194.41467,196.952C194.92859,197.71199 195.10768,198.40584 195.464,199.10266C195.89856,199.95248 196.22559,200.54059 196.48933,201.27733C196.78909,202.1147 196.5,203.06667 196.5,203.96666C196.5,204.86667 196.53391,205.7673 196.5,206.66667C196.47141,207.42545 196.11252,208.30557 195.85266,209.01401C195.48596,210.01372 195.57481,211.01085 195.14734,211.6185C194.66693,212.30142 194.81529,213.07291 194.48933,214.02C194.22543,214.7868 193.50587,215.29393 193.07466,216.06667C192.61768,216.88557 192.68654,217.8223 192.33333,218.66667C192.034,219.38223 191.34593,219.96068 190.936,220.84134C190.57173,221.62393 190.58368,222.6134 189.88933,223.23067C189.2314,223.81555 188.81238,224.24921 188.48933,225.056C188.17336,225.84514 187.54112,226.31425 187.4955,227.31934C187.4639,228.01529 187.16679,228.93858 186.61333,229.55067C185.88765,230.35323 185.24739,230.76534 184.74283,231.64517C184.35788,232.31642 184.0396,233.19028 183.55267,233.96217C183.10957,234.6646 182.51622,235.18741 182.5,236.16667C182.48509,237.0666 182.05766,237.77847 181.66667,238.66667C181.37717,239.32431 181.18552,240.05382 180.66667,240.83333C180.19579,241.5408 180.5,242.46666 180.5,243.36667C180.5,244.26666 180.5,245.16667 180.5,246.06667C180.5,246.96666 180.5,247.86667 180.5,248.76666C180.5,249.66667 180.48126,250.46686 180.5,251.36667C180.51801,252.23123 181.04356,252.89151 181.72133,253.54533C182.29982,254.10341 182.34647,254.91513 182.66667,255.66667C182.99951,256.44788 183.48958,257.16647 183.5,258.06668C183.51041,258.96661 183.41788,259.87045 183.50017,260.76666C183.58385,261.6781 183.99239,262.45752 184.5,263.14584C185.01329,263.84189 185.5518,264.52304 186.5,264.66666C187.29099,264.78647 188.2,264.66666 189.10001,264.66666C190,264.66666 190.89999,264.66666 191.8,264.66666C192.7,264.66666 193.60001,264.66666 194.5,264.66666C195.3,264.66666 196.2,264.66666 197.10001,264.66666C198,264.66666 198.89999,264.66666 199.8,264.66666C200.7,264.66666 201.7256,264.92389 202.37866,264.44534C203.08003,263.9314 203.72191,263.40579 204.3,262.86533C204.91365,262.29163 205.24344,261.38812 205.7215,260.56683C206.08708,259.93875 206.94902,259.53738 207.584,258.95065C208.27567,258.31155 208.94725,257.91568 209.47467,257.23065C209.97705,256.57813 210.75937,256.19 211.33333,255.5C211.8768,254.84665 211.72278,253.94885 212.5,253.5C213.12158,253.14104 213.48734,252.16682 213.5,251.26666C213.51266,250.36674 213.60301,249.42801 214.30133,248.952C215.05064,248.44121 215.60045,247.87488 216,247.16667C216.49535,246.28867 216.94659,245.61285 217.52533,245.092C218.16319,244.51791 218.49933,243.86534 218.5,242.96666C218.50067,242.06667 218.49774,241.16667 218.5,240.26666C218.50226,239.36665 218.88608,238.52831 219.216,237.86667C219.63655,237.0233 219.5,236.06667 219.5,235.16667C219.5,234.26666 219.5,233.36667 219.5,232.46666C219.5,231.56667 219.49809,230.66667 219.5,229.9095C219.50226,229.01399 219.52299,228.12292 219.92534,227.30267C220.35223,226.43237 220.80568,225.61406 221.14734,224.9095C221.56003,224.05844 221.47124,223.20975 222.20534,222.42383C222.71259,221.88077 223.34738,221.25613 223.5045,220.36667C223.64868,219.5504 224.24722,218.80611 224.89999,218.27733C225.64395,217.67468 226.26335,217.18983 226.52533,216.51733C226.87616,215.61674 227.83763,215.34073 228.37883,214.56683C228.87335,213.8597 229.58664,213.75974 230.5,213.33333C231.13622,213.0363 231.78328,212.27397 232.61467,211.836C233.45247,211.39464 234.1412,211.04805 234.7,210.18266C235.13295,209.51216 235.6642,208.73212 236.064,208.07733C236.59013,207.21561 236.79002,206.27365 237.59984,205.78799C238.32947,205.35042 238.5,204.56667 238.5,203.66667C238.5,202.86667 238.56723,202.04039 239.30133,201.58267C240.01007,201.14076 240.56424,200.32239 241,199.6875C241.55592,198.87753 242.26357,198.3555 242.85266,197.71933C243.38565,197.14374 244.06325,196.74796 244.8045,196.30949C245.73013,195.76198 246.34048,195.29175 247.01601,194.86667C247.76053,194.39818 248.59372,193.73331 249.38533,193.668C250.32222,193.59071 251.09946,193.73187 251.97917,193.14583C252.68578,192.67511 253.12285,191.87697 253.91066,191.27733C254.60831,190.74632 255.49983,190.67709 256.47867,190.66667C257.25262,190.65843 258.21106,190.84746 259.01599,190.496C259.84537,190.13388 260.09952,189.2415 260.70132,188.55333C261.30029,187.86841 262.34485,187.74211 263.10132,187.58267C264.10712,187.3707 264.93433,186.99611 265.33066,186.18266C265.64371,185.54012 265.60974,184.31973 266.5,183.83333C267.17953,183.46205 268.15274,183.67622 269.01599,183.66667C269.95853,183.65625 270.35138,182.9355 270.936,182.27733C271.55225,181.58356 272.46664,181.4474 273.20001,181.01933C273.99658,180.55437 273.23236,180.36525 272.74316,179.5665C272.32516,178.88397 272.8143,177.76111 273.30133,177.23601C273.99405,176.48911 274.97678,176.36485 275.67465,176.092C276.60562,175.728 277.6044,175.57799 278.5,175.66667C279.3457,175.75041 279.17484,176.83908 279.67065,177.38133C280.27582,178.04317 281.45367,177.93285 282.1955,178.314C282.97681,178.71542 283.80374,179.01978 284.5,179.66667C285.10327,180.22717 286.15033,180.45917 286.47916,181.20833C286.858,182.07141 286.37027,182.84979 286.50449,183.9095C286.6156,184.78667 287.11783,185.37964 287.52533,186.26666C287.89871,187.07944 288.45728,187.86365 288.5,188.76666C288.54251,189.66566 288.5,190.46666 288.5,191.36667C288.5,192.26666 288.5,193.16667 288.5,194.06667C288.5,194.96666 288.5,195.86667 288.5,196.76666C288.5,197.66667 288.78299,198.33786 289.37866,198.888C290.01563,199.47626 290.33951,200.17619 290.85718,200.96666C291.37787,201.76172 291.97458,202.1931 292.70001,202.86534C293.28046,203.40321 294.13303,203.72519 294.58401,204.468C295.01163,205.17235 295.80304,205.79079 296.21466,206.46666C296.72775,207.30914 297.13593,208.04387 297.83334,208.5C298.53488,208.95883 299.35394,209.27008 300.20984,209.614C300.81351,209.85657 301.81461,210.1843 302.60001,210.54533C303.45859,210.94002 304.0791,211.27008 304.5,212.16667C304.87057,212.95602 305.59387,213.60579 306.5,213.66667C307.29819,213.72031 308.16754,213.58936 308.89999,214.10266C309.69003,214.65631 310.34793,215.07555 311.064,215.692C311.6738,216.21698 311.50461,217.40913 312.36133,217.63066C313.30304,217.87416 313.98868,217.85518 314.58401,218.38266C315.18744,218.9173 316.07007,219.30951 316.70001,219.86534C317.46573,220.54097 318.36038,220.19421 319.14282,220.72383C319.82593,221.1862 319.76212,222.09132 320.33334,222.83333C320.7984,223.43744 320.897,224.5141 321.30133,225.18266C321.75748,225.9369 322.5885,226.59738 322.97916,227.1875C323.56296,228.06937 323.32675,228.92072 323.78534,229.78C324.15793,230.47815 325.33777,230.54338 325.97916,231.1875C326.61893,231.82999 326.33792,232.96672 326.85266,233.614C327.345,234.23311 328.00052,234.88545 328.33334,235.66667C328.65353,236.4182 328.5,237.36667 328.5,238.26666C328.5,239.16667 328.74472,240.10202 328.49551,240.96217C328.26907,241.7437 327.24683,242.20679 326.936,242.85201C326.50525,243.74617 326.05481,244.40538 325.55267,245.02383C324.98059,245.72842 324.86487,246.50121 324.44733,247.36667C324.05234,248.18536 322.92813,248.37335 322.53601,249.10266C322.12854,249.86053 321.95547,250.45718 321.2045,251.02383C320.53543,251.52867 320.37653,252.44376 319.92532,253.26666C319.49759,254.0468 319.60696,254.97319 319.49866,255.86667C319.38718,256.78644 318.86313,257.37137 318.5,258.16666C318.08652,259.07217 317.56088,259.76053 317.5,260.66666C317.44638,261.46487 317.45639,262.42511 317.50449,263.31482C317.54694,264.10034 318.32828,264.25339 319.14282,264.72385C319.95367,265.19217 320.10864,266.1745 320.85718,266.6095C321.58755,267.03397 322.60001,266.66666 323.5,266.66666C324.29999,266.66666 325.20001,266.66666 326.10001,266.66666C327,266.66666 327.91089,266.64764 328.82132,266.66684C329.6752,266.68484 330.5827,267.01648 331.25266,267.314C332.11841,267.69846 333.01599,267.66599 333.97916,267.66666C334.89999,267.6673 335.79999,267.66666 336.70001,267.66666C337.60016,267.66666 338.38535,267.66666 339.32535,267.66666C340.01599,267.66666 341.11569,267.68137 341.89999,267.24133C342.6272,266.83334 343.31427,266.3356 343.72134,265.56668C344.12238,264.80914 344.68536,264.17685 345.216,263.58267C345.75302,262.98132 346.1709,262.20074 346.88934,261.69199C347.54535,261.22745 347.1778,260.20905 347.51068,259.27734C347.77399,258.54044 348.69299,258.26306 349.216,257.58267C349.68591,256.97137 349.55716,255.96666 350,255.16667C350.44284,254.36667 350.17502,253.18761 350.85718,252.72383C351.55475,252.24957 352.21747,252.26665 352.50449,251.37117C352.74835,250.61031 353.64005,250.28732 354.14734,249.55684C354.61252,248.88702 354.48605,247.83321 354.5,247.07733C354.51801,246.10216 355.28073,245.6631 355.49866,244.86534C355.74045,243.98033 356.33652,243.52557 356.47916,242.64583C356.63248,241.70029 356.30371,240.83351 356.55716,239.96666C356.81375,239.08902 357.3645,238.35812 357.50134,237.46666C357.64194,236.55089 358.30984,236.01257 358.48932,235.06667C358.6571,234.18239 358.5,233.26666 358.5,232.36667C358.5,231.46666 358.75629,230.44176 358.27866,229.78799C357.76794,229.08893 357.64981,228.45407 357.49985,227.56683C357.35583,226.71481 356.55716,226.30949 356.49551,225.36667L356.27866,224.56667L355.784,223.86667" id="svg_6" stroke-width="3" stroke="#000" fill="none"/>
  <path t="30229,30309,30309,30323,30331,30331,30341,30360,30372,30378,30410,30418,30442,30458,30482,30490,30496,30522,30570,30571,30579,30594,30635,30643,30667,30682,30714,30746,30771,30795,30803,30828,30835,30866,30867,30892,30938,30939,30970,30995,31010,31036,31043,31067,31075,31099,31100,31107,31107,31202,31228,31228,31252,31259" d="M189.5,108.66666C190.5,108.66666 191.35472,108.6769 192.10001,109.27734C192.7542,109.80438 193.51953,110.0508 194.21466,110.75066C194.75835,111.29806 194.3797,112.50471 195.02083,113.14584C195.66196,113.78696 196.71272,113.516 197.59984,113.66683C198.45091,113.81154 198.31638,114.96964 198.784,115.58266C199.29929,116.25818 199.36687,117.21087 200.06799,117.58266C200.72124,117.92907 201.51505,118.32235 202.35066,118.64133C203.22836,118.97638 204.04666,119.33699 204.44284,120.02383C204.91269,120.8384 204.85587,121.63807 205.8,121.66666C206.69958,121.69391 207.84731,121.27731 208.37849,121.88817C208.96034,122.55729 208.782,123.62394 209.60017,123.66666C210.38426,123.7076 211.32533,123.66666 212.33333,123.66666C213.1955,123.66666 214,123.66666 214.89999,123.66666C215.8,123.66666 216.85017,123.73972 217.47467,123.24133C218.08263,122.75615 218.93074,122.72913 219.82133,122.44534C220.52036,122.2226 221.59991,122.03666 222.21333,121.58266C222.97151,121.02152 223.59984,120.44517 224.14284,119.96217L224.52533,119.06667L224.92534,118.26667" id="svg_7" stroke-width="3" stroke="#000" fill="none"/>
  <path t="33115,33298,33307,33347,33363,33363,33402,33410,33466,33506,33538,33538,33562,33594,33626,33658,33666,33683,33699,33715,33723,33723,33731,33739,33747,33762,33778,33779,33786,33810,33850,33850,33860,33884,33899,33907,33922,33946,33946,33955,33962,33962,33986,34010,34018,34026,34042,34050,34074,34082,34090,34114,34130,34146,34154,34162,34162,34171,34178,34187,34202,34218,34234,34258,34266,34274,34299,34315,34315,34322,34330,34338,34346,34346,34362,34362,34371,34378,34378,34387,34394,34434,34434,34466,34506,34514,34538,34554,34580,34591,34599,34618,34626,34650,34658,34714,34730,34731,34762,34794,34825,34826,34834,34858,34866,34890,34905,34914,34915,34930,34953,34962,34993,35002,35002,35034,35042,35073,35098,35138,35146,35162,35193,35194,35202,35218,35226,35266,35266,35282,35291,35307,35324,35348,35362,35386,35402,35434,35442,35442,35450,35450,35481,35490,35538,35746,35746" d="M193.5,112.66666C193.33333,114.5 192.81619,115.06389 192.14284,115.614C191.44055,116.18774 190.8653,116.50229 190.44733,117.36667C190.05162,118.18501 189.19377,118.54719 188.3,118.668C187.49046,118.77743 186.65205,119.07828 185.936,119.692C185.32506,120.21564 185.5,121.26667 185.5,122.16666C185.5,123.06667 185.5,123.96667 185.5,124.86667C185.5,125.76667 185.44611,126.66848 185.5,127.46667C185.5573,128.31528 186.59146,128.22527 187.257,128.88817C187.90279,129.5314 187.46281,130.66754 187.5,131.46666C187.54271,132.38431 188.24338,132.87521 188.66667,133.66667C189.06714,134.41545 189.34668,135.18118 189.51067,136.06667C189.66446,136.89714 190.75937,137.14333 191.33333,137.83333C191.8768,138.48668 191.43199,139.42677 191.5045,140.31483C191.58844,141.34274 192.30177,141.63814 193.2,141.66667C194.14409,141.69667 194.0829,142.61192 194.55716,143.30949C195.02092,143.99164 196.35353,143.71152 196.49867,144.468C196.668,145.35057 196.662,146.18341 197.216,146.75067C197.87398,147.42439 198.24065,148.27768 198.94667,148.63066C199.72952,149.02206 200.93265,148.36942 201.42799,149.10266C201.96367,149.8956 202.07472,150.37453 202.88933,150.67734C203.62283,150.95 204.21419,151.26813 205.064,151.70267C205.76082,152.05898 206.30133,152.666 207.136,152.66667C208.15266,152.6675 208.84734,152.66667 209.864,152.66667C210.8,152.66667 211.74937,152.52077 212.60017,152.888C213.31908,153.1983 214.15157,153.62697 214.84734,153.66217C215.86302,153.71355 216.56287,154.13713 217.10001,154.81599C217.6627,155.52716 218.60001,155.66667 219.5,155.66667C220.3,155.66667 221.2,155.66667 222.10001,155.66667C223,155.66667 223.89999,155.66734 224.8,155.66667C225.69867,155.666 226.24982,155.04379 227.02083,154.6875C227.80974,154.32292 228.58408,154.25215 229.14734,153.614C229.67287,153.0186 230.26527,152.39322 230.66667,151.66667C231.09355,150.89398 232.00951,150.48521 232.37849,149.56667C232.71701,148.72395 232.29056,147.82817 232.55716,146.96666C232.8252,146.10049 234.05165,145.96828 234.44284,145.30949C234.92525,144.49709 234.8369,143.63542 235.216,142.86667C235.63283,142.02145 235.45361,141.13333 235.92534,140.26666C236.32399,139.53426 236.5,138.66667 236.5,137.86667C236.5,136.96666 236.5,136.06667 236.5,135.16667C236.5,134.26666 236.5,133.36667 236.5,132.46666C236.5,131.56667 236.67355,130.62842 236.41467,129.86667C236.11292,128.97876 235.83333,128.19986 235.491,127.37117C235.17213,126.59927 233.93837,126.83401 233.52133,126.056C233.06879,125.21175 232.66525,125.02931 231.83333,124.5C231.07185,124.01551 230.74365,123.35212 230.49867,122.468C230.27841,121.67309 229.20807,121.89838 228.40016,121.445C227.73233,121.07023 227.80005,119.93134 227.416,119.236C227.0118,118.50415 225.85716,118.6095 225.33333,117.83334L224.5,117.66666L223.7,117.66666" id="svg_8" stroke-width="3" stroke="#000" fill="none"/>
  <path t="37179,37298,37322,37369,37370,37386,37698,37698,37898,37907,37923,37940,38082,38114,38114" d="M189.5,93.66666C191.10001,93.056 191.6974,92.2009 192.5,91.83334C193.24272,91.49319 194.93567,92.40234 194.93567,91.66666C194.93567,90.87466 193.209,91.6095 193.209,91.66666C193.209,92.55767 195,91.66666 195.95833,91.66666L195.5,91.66666L194.7,91.66666" id="svg_9" stroke-width="3" stroke="#000" fill="none"/>
  <path t="39035,39146,39170,39203,39203,39244,39267,39299,39299,39339,39394,39403,39443,39460,39476,39492,39510,39547,39547,39562,39573,39619,39634,39682,39699,39738,39739" d="M208.5,118.66666C209.5,117.66666 209.7076,116.92148 210.5,116.5C211.14059,116.15926 212.03204,115.73188 212.8,115.314C213.64091,114.85642 214.3,114.66734 215.2,114.66666C216.10001,114.66599 217,114.66666 217.89999,114.66666C218.8,114.66666 219.97873,114.34192 220.44284,115.02383C220.97209,115.80148 221.12415,116.40767 221.79466,116.71933C222.59515,117.09141 222.59637,118.07292 223.14734,118.71933C223.66251,119.32373 224.37866,119.888 224.85266,120.6185L225.41467,121.236L225.4955,122.0185" id="svg_10" stroke-width="3" stroke="#000" fill="none"/>
  <path t="40956,41179,41179,41363,41380,41396,41404,41491,41508" d="M219.5,95.66666C220.5,96.66666 222.12933,97.49599 222.12933,96.66666C222.12933,95.73733 220.3,96.66666 219.39999,96.66666L218.5,96.66666L217.98267,96.66666" id="svg_11" stroke-width="3" stroke="#000" fill="none"/>
  <path t="43563,43643,43651,43651,43666,43666,43678,43678,43691,43698,43698,43714,43723,43755,43772,43772,43789,43805,43810,43818,43850,43850,44322,44379,44451,44451,44491,44563,44571,44619,44659,44715,44723,44748,44763,44795,44804,44843,44891,44907,44971,44987,45171,45171,45211" d="M173.5,139.66667C175.33333,139.83333 175.82303,140.56471 176.54167,140.64583C177.49419,140.75334 178.28934,140.66667 179.33333,140.66667C180.1955,140.66667 181.02083,140.66667 181.98399,140.66667C182.84734,140.66667 183.74283,140.66667 184.7,140.66667C185.60001,140.66667 186.53644,140.4985 187.3,140.752C188.07217,141.00835 188.89938,141.64867 189.7,141.66667C190.59978,141.68692 191.5,141.66667 192.3,141.66667C193.028,141.66667 192.14337,141.53014 191.3,141.95067C190.63835,142.28059 190.04924,142.99673 189.33333,143.5C188.63809,143.98872 187.89282,144.14983 187.21466,144.58133C186.43962,145.07448 185.39561,144.57799 184.5,144.66667C183.65431,144.75041 183.19946,145.4884 182.40016,145.66684C181.55681,145.8551 181.06456,146.64867 180.2,146.66667C179.3002,146.68541 178.39999,146.66667 177.5,146.66667L176.7,146.66667L175.8,146.66667" id="svg_12" stroke-width="3" stroke="#000" fill="none"/>
  <path t="47091,47186,47187,47195,47211,47227,47228,47242,47252,47252,47259,47284,47307,47308,47315,47316,47316,47331,47346,47347,47362,47362,47372,47372,47378,47410,47418,47442,47458,47458,47467,47467,47474,47483,47483,47490,47490,47499,47499,47506,47514,47514,47522,47530,47530,47546,47562,47574,47574,47578,47579,47588,47594,47594,47604,47604,47610,47611,47611,47618,47618,47626,47626,47634,47634,47642,47642,47642,47651,47651,47651,47651,47658,47658,47658,47667,47667,47667,47674,47674,47683,47683,47683,47690,47690,47690,47690,47699,47699,47706,47706,47706,47714,47715,47722,47723,47730,47738,47739,47746,47746,47754,47755,47771,47772,47794,47794,47802,47802,47826,47850,47882,47922,47931,47939,47939,47947,47963,47973,47973,48011,48170,48242,48251,48267,48275,48283,48314,48325,48355,48371,48387,48410,48410,48434,48442,48450,48466,48538,48547,48548,48586,48610,48627,48674,48675,48683,48691,48707,48738,48739,48763,48763,48778,48789,48810,48819,48819,48827,48835,48850,48851,48858,48858,48866,48866,48874,48883,48883,48899,48914,48930,48931,48938,48954,48962,48971,48978,48987,48994,49002,49002,49018,49026,49042,49050,49066,49066,49074,49074,49091,49099,49114,49130,49131,49138,49138,49146,49147,49155,49162,49162,49171,49178,49178,49187,49188,49194,49194,49202,49218,49218,49226,49226,49234,49234,49242,49258,49266,49266,49266,49274,49274,49282,49283,49298,49306,49331,49338,49338,49354,49355,49364,49380,49386,49395,49395,49402,49410,49418,49434,49442,49450,49458,49466,49474,49482,49482,49498,49507,49507,49522,49531,49531,49554,49554,49570,49570,49581,49590,49602,49602,49610,49618,49626,49634,49634,49642,49650,49658,49730,49771,49778,49803,49811,49812" d="M221.5,237.66667C222.5,238.66667 223.26012,238.59866 224.14816,238.67117C225.17607,238.7551 225.65269,239.5816 226.38667,239.66533C227.31929,239.7717 228.42313,239.34998 229.13834,239.72383C229.88824,240.11581 230.52066,240.65625 231.47884,240.66667C232.16129,240.67409 233.26801,240.66667 234,240.66667C234.73199,240.66667 235.83867,240.66667 236.8215,240.66667C237.52083,240.66667 238.5,240.66667 239.28934,240.66667C240.33333,240.66667 241.08934,240.66667 242,240.66667C242.89999,240.66667 243.80653,240.55974 244.7,240.668C245.61993,240.77948 246.22694,241.42987 247.15266,241.6095C248.00197,241.77429 248.87488,241.6469 249.82133,241.66684C250.67523,241.68483 251.58337,242.01498 252.25267,242.314C253.11884,242.70097 254.0432,242.68965 254.864,243.092C255.73485,243.51888 256.38535,243.666 257.32535,243.66667C258.33334,243.66739 258.9675,243.90997 259.66934,244.38266C260.42508,244.89163 261.5,244.66667 262.28934,244.66667C263.33334,244.66667 264.08932,244.66667 265.02084,244.66667C265.8215,244.66667 266.71066,244.66667 267.70001,244.66667C268.5,244.66667 269.5,244.66667 270.29999,244.66667C271.10001,244.66667 272.10001,244.66667 272.89999,244.66667C273.89999,244.66667 274.70001,244.66667 275.70001,244.66667C276.5,244.66667 277.5,244.66667 278.32132,244.66667C279.01434,244.66667 280.14267,244.66667 280.80533,244.66667C281.84933,244.66667 282.53214,244.68161 283.73065,244.66533C284.47934,244.65515 285.18942,244.61272 286.18399,244.38266C287.00638,244.19243 287.8063,243.89328 288.81601,243.752C289.7196,243.62556 290.66666,243.66667 291.45715,243.66667C292.31067,243.66667 293.5,243.66667 294.09866,243.66667C294.97916,243.66667 295.81467,243.66667 296.81601,243.66667C297.72534,243.66667 298.66666,243.66667 299.44818,243.66667C300.23868,243.66667 301.36633,243.75342 302.11465,243.63066C303.00677,243.48433 303.81705,242.90242 304.74734,242.72383C305.65192,242.55017 306.5,242.66667 307.47867,242.66667C308.25266,242.66667 309.15717,242.66718 309.90451,242.66667C310.89999,242.666 311.71805,242.71002 312.69983,242.44533C313.49893,242.22989 314.3222,241.75478 315.1955,241.67117C316.09589,241.58498 317,241.66667 317.89999,241.66667C318.79999,241.66667 319.75729,241.83035 320.60001,241.44533C321.26932,241.13953 322.09995,240.67201 323.02084,240.66667C323.82132,240.66203 324.67465,240.6666 325.61465,240.66667C326.59982,240.66676 327.56873,240.97928 327.14734,241.614C326.67654,242.32312 326.05063,242.80502 325.41599,243.38266C324.76932,243.97124 324.88937,245.01398 324.2785,245.54517C323.60938,246.12701 322.77097,245.96246 322.2785,246.76649C321.89893,247.38622 320.75439,247.60631 320.50449,248.37117C320.21243,249.26501 320.01126,249.95366 319.2785,250.54533C318.63269,251.06682 317.70721,251.32333 317.52084,252.16667C317.32651,253.04601 317.25461,254.13525 316.5,254.5C315.76453,254.8555 314.67657,254.25398 313.85718,254.72383C313.16931,255.11826 312.5,255.66667 311.74283,255.66667C310.84732,255.66667 309.98401,255.66667 309.02084,255.66667C308.10001,255.66667 307.1955,255.66667 306.33334,255.66667C305.5,255.66667 304.40475,255.96257 303.66666,255.5C302.96051,255.05748 302.45853,254.67709 301.5,254.66667C300.5209,254.65604 299.47015,255.07597 298.78665,254.496C298.11224,253.92372 298.08008,252.80881 297.31467,252.688C296.39645,252.54309 295.39999,252.66667 294.5,252.66667C293.70001,252.66667 292.79999,252.66667 291.89999,252.66667C291,252.66667 290.10001,252.66667 289.20001,252.66667C288.29999,252.66667 287.34653,252.48532 286.5,252.83333C285.82892,253.10922 285.10056,253.64867 284.20001,253.66667C283.30017,253.68466 282.39999,253.66667 281.5,253.66667C280.61465,253.66667 279.67465,253.66667 278.98401,253.66667C277.91068,253.66667 277.10001,253.66667 276.1955,253.66667C275.1785,253.66667 274.47916,253.66667 273.5,253.66667C272.71066,253.66667 271.66666,253.66667 270.8045,253.66667C269.97916,253.66667 269.01599,253.66667 268.32535,253.66667C267.25266,253.66667 266.33334,253.66667 265.5,253.66667C264.52133,253.66667 263.74734,253.66667 262.84732,253.66667C261.98401,253.66667 261.12534,253.66667 260.1785,253.66667C259.28934,253.66667 258.30017,253.66667 257.52084,253.66667C256.52151,253.66667 255.8045,253.66667 254.89999,253.66667C253.95833,253.66667 252.95689,253.64999 252.24933,253.67734C251.50444,253.70612 250.495,254.00656 249.75183,254.314C248.87256,254.67775 247.96436,254.49271 247.02083,254.6875C246.15375,254.86652 245.40318,255.5717 244.5,255.66667C243.74484,255.74608 242.86108,256.05414 242.15266,256.314C241.15295,256.68069 240.3,256.66666 239.39999,256.66666C238.5,256.66666 237.7,256.66666 236.8,256.66666C235.89999,256.66666 234.96523,256.61368 234.2,257.01935C233.35422,257.46771 232.89136,258.17447 232.14284,258.6095C231.41246,259.03397 230.34573,258.4834 229.5,258.83334C228.71538,259.15799 227.97934,259.65625 227.01601,259.66666C226.32538,259.6741 225.21034,259.5343 224.39983,259.888C223.68216,260.20117 222.84415,260.63361 222.0955,260.66217C221.10336,260.70001 220.19974,260.70175 219.52083,261.16666C218.83794,261.63428 218.01601,261.66666 217.15266,261.66666C216.136,261.66666 215.3,261.66666 214.39999,261.66666C213.5,261.66666 212.7,261.66666 211.8,261.66666C210.89999,261.66666 210,261.66666 209.10001,261.66666C208.2,261.66666 207.3,261.66666 206.39999,261.66666L205.5,261.66666L204.7,261.66666" id="svg_13" stroke-width="3" stroke="#000" fill="none"/>
  <path t="51523,51569,51578,51578,51578,51586,51586,51586,51586,51594,51594,51602,51602,51602,51602,51602,51610,51610,51610,51617,51617,51618,51618,51625,51625,51625,51625,51634,51634,51634,51641,51641,51641,51649,51649,51649,51657,51657,51657,51665,51665,51665,51673,51673,51673,51681,51681,51681,51689,51689,51689,51697,51706,51706,51706,51713,51713,51722,51722,51729,51729,51738,51738,51738,51745,51745,51745,51754,51762,51762,51762,51771,51771,51778,51778,51787,51787,51794,51810,51817,51818,51818,51833,51833,51842,51842,51849,51849,51857,51865,51873,51873,51881,51889,51889,51897,51897,51906,51906,51922,51922,51929,51929,51938,51938,51946,51969,51969,51978,51994,52003,52003,52010,52010,52017,52033,52033,52041,52049,52057,52074,52081,52082,52089,52121,52137,52169,52194,52394,52521,52531,52538,52538" d="M32.5,1.66667C33.02083,3.20833 33.62558,4.19996 33.88933,4.93867C34.08316,5.48154 34.34975,6.66473 34.44733,7.56217C34.51068,8.14477 34.50674,9.00096 34.85717,10.2185C35.06555,10.94254 35.51081,11.99672 35.69867,12.636C35.90104,13.32467 36.08599,14.04782 36.21467,14.784C36.45775,16.17468 36.4552,16.8325 36.55267,17.76217C36.64772,18.66885 36.86182,19.56903 37.07467,20.50267C37.22237,21.15058 37.39511,22.18656 37.44283,22.91483C37.51421,24.00399 37.49933,24.69733 37.5,25.89733C37.50042,26.64583 37.5,27.34933 37.5,28.352C37.5,29.1875 37.5,30.068 37.5,31.26533C37.5,31.856 37.5,32.7095 37.5,33.7455C37.5,34.6875 37.50451,35.43601 37.49983,36.30917C37.49449,37.30671 37.57861,37.99829 37.33333,39.16667C37.1559,40.01189 36.72455,40.70869 36.58533,41.72C36.4987,42.34932 36.50225,43.36583 36.5,44.33333C36.4981,45.14783 36.5,46.0005 36.5,47.052C36.5,48 36.5,48.672 36.5,49.66133C36.5,50.52383 36.5,51.41483 36.5,52.32383C36.5,53.07117 36.5,54.068 36.5,54.90267C36.5,55.83333 36.5,56.61934 36.5,57.44133C36.5,58.5 36.5,59.42 36.5,60.18C36.5,61.1875 36.5,62.20934 36.5,62.91734C36.5,63.66133 36.5,64.86134 36.5,65.63467C36.5,66.43467 36.5,67.416 36.5,68.33334C36.5,69.24533 36.58214,70.17133 36.4955,70.97117C36.3835,72.00501 35.98293,72.68933 35.69867,73.268C35.20649,74.26989 34.79576,75.06456 34.40017,75.8665C34.01672,76.64382 33.60546,77.49071 33.5045,78.36217C33.40031,79.26156 32.8942,79.98133 32.58533,80.868C32.35864,81.51878 32.77659,82.59634 32.2785,83.42416C31.88516,84.07788 31.17345,84.71799 30.936,85.42667C30.57338,86.50889 30.53107,87.28185 30.49867,88.152C30.4644,89.07222 30.21373,90.06448 29.92533,90.83067C29.61909,91.64426 29.50067,92.46533 29.5,93.42384C29.49938,94.31934 29.5,95.014 29.5,96.03067C29.5,96.97117 29.5,97.83334 29.5,98.66666C29.5,99.64516 29.5,100.46533 29.5,101.42384C29.5,102.31934 29.5,103.014 29.5,104.03067C29.5,104.96667 29.5,105.86667 29.5,106.76667C29.5,107.66666 29.5,108.46667 29.5,109.36667C29.5,110.26667 29.5,111.16666 29.5,112.06667C29.5,112.96667 29.5,113.86667 29.5,114.76633L29.5,115.10416L29.5,114.18267L29.5,113.31934" id="svg_14" stroke-width="3" stroke="#000" fill="none"/>
  <path t="53146,53201,53209,53226,53226,53236,53236,53244,53249,53257,53257,53265,53265,53273,53281,53289,53305,53306,53321,53322,53322,53338,53338,53345,53345,53361,53371,53371,53377,53377,53387,53393,53403,53417,53426,53426,53433,53433,53442,53457,53457,53465,53473,53481,53481,53489,53505,53522,53522,53522,53537,53538,53538,53553,53554,53561,53571,53571,53577,53577,53593,53601,53601,53617,53633,53633,53642,53642,53649,53649,53657,53665,53673,53681,53697,53697,53705,53722,53729,53745,53754,53761,53761,53771,53786,53786,53793,53793,53801,53810,53817,53817,53826,53833,53833,53841,53858,53865,53865,53874,53875,53881,53897,53897,53906,53922,53922,53929,53953,53961,53970,53993,54003,54033,54042,54042,54049,54065,54073,54074,54091,54106,54121,54145,54153,54249,54274" d="M47.5,-1.33333C47.5,0.46667 47.5,1.30267 47.5,2.152C47.5,3.07117 47.49946,4.06533 47.5,4.83067C47.50067,5.78 47.91176,6.42677 48.59983,7.1095C49.0906,7.59645 49.43781,8.63865 49.49866,9.46533C49.56483,10.36424 49.41343,11.27245 49.51067,12.07733C49.62279,13.00546 50.08243,13.66321 50.33333,14.66667C50.52996,15.45306 50.49933,16.26667 50.5,17.26667C50.50053,18.06667 50.5,19.06533 50.5,19.83067C50.5,20.914 50.5,21.83333 50.5,22.66667C50.5,23.5 50.5,24.36217 50.5,25.26667C50.5,26.16667 50.5,27.06667 50.5,27.97117C50.5,28.83333 50.5,29.66667 50.5,30.64517C50.5,31.46533 50.5,32.42383 50.5,33.31933C50.5,34.18267 50.5,35.03067 50.5,35.97117C50.5,36.83333 50.68708,37.7514 50.14734,38.55684C49.67873,39.2561 49.33688,40.00098 49.14734,40.6765C48.92941,41.45316 48.62093,42.49472 48.536,43.43067C48.4605,44.26263 48.5,45.26217 48.5,46.0095C48.5,47.04133 48.5,47.988 48.5,48.66667C48.5,49.64517 48.5,50.46533 48.5,51.42383C48.5,52.31933 48.5,53.18267 48.5,54.04133C48.5,54.98817 48.51303,55.87742 48.49983,56.8665C48.48943,57.64604 48.3154,58.49059 47.92533,59.256C47.517,60.05726 47.5,60.96667 47.5,61.86667C47.5,62.76667 47.5,63.66667 47.5,64.46667C47.5,65.36667 47.67806,66.28867 47.47917,67.16666C47.26117,68.12901 46.56089,68.76055 46.5,69.66666C46.44637,70.46487 46.5,71.42384 46.5,72.32384C46.5,73.07117 46.5,74.06533 46.5,74.83067C46.5,75.9095 46.5,76.76667 46.5,77.66666C46.5,78.46667 46.54358,79.42513 46.4955,80.31483C46.45304,81.10036 45.71235,81.72755 45.536,82.528C45.32673,83.47789 45.5,84.41933 45.5,85.31934C45.5,86.014 45.5,87.04134 45.5,87.988C45.5,88.84133 45.5,89.78133 45.5,90.66666C45.5,91.46667 45.5,92.36667 45.5,93.26667C45.5,94.16666 45.5,95.06667 45.5,95.96667C45.5,96.86667 45.5,97.76667 45.5,98.66666C45.5,99.46667 45.66152,100.27921 46.30133,100.836C46.98635,101.43212 47.33455,102.15883 47.47917,103.14584C47.6127,104.05717 47.5045,104.96217 47.92533,105.64133L48.48933,106.27734L48.52083,107.14584L49.07467,107.692" id="svg_15" stroke-width="3" stroke="#000" fill="none"/>
  <path t="55082,55241,55249,55258,55258,55258,55266,55266,55266,55266,55266,55274,55275,55275,55275,55282,55282,55282,55282,55290,55290,55290,55290,55297,55298,55298,55298,55308,55308,55308,55313,55314,55314,55322,55322,55323,55330,55330,55339,55340,55340,55359,55359,55359,55370,55370,55377,55377,55385,55393,55393,55409,55417,55433,55433,55442,55449,55458,55458,55465,55465,55474,55481,55490,55508,55508,55513,55513,55523,55523,55529,55537,55545,55545,55554,55558,55561,55561,55570,55578,55593,55593,55597,55603,55612,55613,55617,55617,55633,55633,55649,55649,55659,55674,55674,55681,55692,55692,55697,55708,55708,55713,55723,55724,55724,55729,55740,55745,55753,55754,55770,55770,55777,55787,55793,55809,55809,55833,55858,55913,56033" d="M81.5,105.66666C81.5,105.47066 81.5,104.41933 81.5,103.5C81.5,102.79867 81.5,102.09067 81.5,100.8025C81.5,100.00417 81.5,99.14584 81.5,98.70667C81.5,97.83334 81.5,96.6095 81.5,95.528C81.5,94.852 81.5,94.184 81.5,92.78133C81.5,92.03067 81.5,91.256 81.5,90.46533C81.5,89.26683 81.5,88.47117 81.5,87.6875C81.5,86.92384 81.5,85.83334 81.5,84.82384C81.5,84.1875 81.5,83.268 81.5,82.36684C81.5,81.47733 81.5,80.62383 81.5,79.588C81.5,78.892 81.5,77.98267 81.5,76.98267C81.5,76.16666 81.5,75.35067 81.5,74.35067C81.5,73.44133 81.5,72.5 81.5,71.714C81.5,70.892 81.5,69.83334 81.5,68.90266C81.5,68.068 81.5,67.26667 81.5,66.46667C81.5,65.268 81.5,64.50267 81.5,63.552C81.5,62.66667 81.5,61.86667 81.5,60.96667C81.5,60.03067 81.5,59.18267 81.5,58.31933C81.5,57.42383 81.5,56.46533 81.5,55.5C81.5,54.84134 81.5,53.83333 81.5,52.97117C81.5,52.06667 81.5,51.16667 81.5,50.256C81.5,49.34517 81.5,48.64583 81.5,47.66667C81.5,46.6875 81.5,45.83333 81.5,44.97117C81.5,44.06667 81.5,43.14583 81.5,42.18134C81.5,41.456 81.5,40.46684 81.5,39.6875C81.5,38.68817 81.5,37.868 81.5,36.96667C81.5,36.03067 81.5,35.18267 81.5,34.31933C81.5,33.42383 81.5,32.46533 81.5,31.5C81.5,30.84133 81.5,29.83333 81.5,28.914C81.5,28.0095 81.5,27.26217 81.5,26.268C81.5,25.50267 81.5,24.42383 81.5,23.5665C81.5,22.78133 81.5,21.84133 81.5,20.83333C81.5,20.07733 81.5,19.14583 81.5,18.18267C81.5,17.492 81.5863,16.3986 81.33334,15.5C81.14159,14.81884 80.66738,14.17378 80.51067,13.07733C80.38174,12.17529 80.0023,11.44666 79.66666,10.66667C79.3606,9.95539 79.62915,8.99083 79.41467,8.15067C79.15528,7.13462 78.62493,6.46202 78.49983,5.56667C78.37318,4.6602 77.85267,3.96667 77.52084,3.16667L77.5,2.26667L77.5,1.36667L77.5,0.46667" id="svg_16" stroke-width="3" stroke="#000" fill="none"/>
  <path t="56483,56554,56562,56562,56575,56578,56578,56578,56591,56592,56592,56594,56595,56602,56602,56611,56611,56618,56619,56619,56627,56635,56635,56635,56643,56643,56651,56651,56666,56675,56691,56698,56707,56707,56724,56730,56746,56757,56757,56773,56778,56794,56794,56802,56810,56810,56818,56818,56826,56834,56842,56842,56842,56850,56850,56858,56875,56875,56882,56882,56890,56898,56898,56907,56914,56914,56924,56930,56946,56946,56970,56970,56970,56978,56994,57002,57010,57010,57018,57018,57026,57034,57042,57050,57050,57058,57066,57074,57074,57082,57091,57098,57107,57107,57114,57123,57140,57146,57146,57157,57175,57194,57194,57210,57210,57234,57234,57250,57258,57275,57282,57291,57298,57298,57314,57324,57341,57346,57362,57378,57442,57442,57658" d="M88.5,2.66667C88.5,4.42383 88.38328,5.33943 88.58533,6.18267C88.80054,7.08077 89.35909,7.82882 89.5,8.70833C89.6029,9.35059 89.73915,10.36614 90.04166,11.14583C90.34077,11.91675 91.00429,12.67116 91.63866,13.24533C92.41322,13.94638 92.49866,14.63733 92.5,15.6765C92.501,16.452 92.5,17.5 92.5,18.42C92.5,19.18 92.5,20.1875 92.5,21C92.5,21.91733 92.5,22.66133 92.5,23.69733C92.5,24.54933 92.5,25.492 92.5,26.18267C92.5,27.256 92.49775,28.16667 92.5,29.06667C92.50225,29.96667 92.81104,30.71122 93.216,31.46667C93.62123,32.22262 94.01743,33.01702 94.416,33.86667C94.81962,34.72709 95.30999,35.32073 95.48933,36.26667C95.66087,37.17144 95.5,37.988 95.5,38.84134C95.5,39.78133 95.5,40.76683 95.5,41.552C95.5,42.492 95.5,43.18267 95.5,44.256C95.5,45.088 95.45063,46.00251 95.52133,46.90667C95.57619,47.6082 96.30087,48.31051 96.932,48.748C97.65566,49.24964 97.5,50.32383 97.5,51.07117C97.5,52.06533 97.39105,53.01667 97.5045,53.9095C97.61595,54.78661 98.34548,55.43496 98.48933,56.30267C98.62804,57.13931 98.5,58.014 98.5,59.03067C98.5,59.868 98.5,60.83333 98.5,61.50267C98.5,62.66667 98.5,63.456 98.5,64.18134C98.5,65.14584 98.5,66.06667 98.5,66.97117C98.5,67.83334 98.5,68.66666 98.5,69.64516C98.5,70.46533 98.5,71.36667 98.5,72.26667C98.5,73.1875 98.5,74.15067 98.5,74.84133C98.5,75.9095 98.68327,76.82094 98.33334,77.66666C98.00867,78.45129 97.51042,79.16648 97.5,80.06667C97.48953,80.97111 97.63065,81.84731 97.47916,82.64584C97.29846,83.5984 96.51801,84.10211 96.5,84.97117C96.48214,85.83315 96.68741,86.75163 96.14733,87.55683C95.68684,88.24339 95.5,88.98817 95.5,89.87733C95.5,90.8665 95.5,91.64584 95.5,92.64516C95.5,93.46533 95.5,94.36667 95.5,95.26667C95.5,96.16666 95.40453,97.11121 95.784,97.86667C96.21958,98.73386 96.49775,99.36666 96.5,100.26667C96.50225,101.16666 96.5,102.06667 96.5,102.96667C96.5,103.86667 96.5,104.76667 96.5,105.66666L96.5,106.46667L96.58533,107.38133" id="svg_17" stroke-width="3" stroke="#000" fill="none"/>
  <path t="58451,58635,58644,58682,58690,58730,58755,58794,58850,58890,59162" d="M49.5,104.66666C49.5,106.46667 49.50642,107.44507 50.30133,107.66534C51.18546,107.91032 51.07142,108.62135 51.58533,109.38133C52.03663,110.04871 53.064,110.27734 53.47467,111.056L54.07467,111.62" id="svg_18" stroke-width="3" stroke="#000" fill="none"/>
  <path t="60066,60162,60170,60170,60170,60177,60177,60177,60177,60186,60186,60186,60186,60193,60193,60193,60193,60204,60204,60204,60204,60209,60209,60209,60218,60218,60218,60218,60226,60226,60226,60234,60234,60242,60242,60249,60250,60250,60258,60258,60274,60274,60281,60281,60289,60289,60297,60297,60305,60313,60321,60321,60329,60329,60337,60345,60345,60355,60355,60361,60361,60377,60377,60387,60387,60387,60393,60402,60410,60420,60420,60425,60425,60434,60449,60450,60458,60458,60465,60465,60473,60481,60489,60489,60497,60505,60513,60521,60521,60529,60537,60545,60569,60609,60745,60753,60762,60762" d="M321.5,80.66666C321.5,78.14584 321.5,77.12366 321.5,76.39467C321.5,75.55767 321.5,74.3665 321.5,73.76217C321.5,72.83067 321.5,72.18134 321.5,71.14516C321.5,70.03067 321.5,69.256 321.5,68.46533C321.5,67.26683 321.5,66.47117 321.5,65.6875C321.5,64.92384 321.5,63.83333 321.5,63.152C321.5,62.1875 321.5,61.268 321.5,60.36667C321.5,59.46667 321.5,58.56667 321.5,57.66667C321.5,56.76667 321.5,55.86667 321.5,55.26667C321.5,54.06933 321.5,53.20833 321.5,52.43733C321.5,51.472 321.5,50.69867 321.5,49.65683C321.5,48.88133 321.5,47.83333 321.5,46.90267C321.5,46.27117 321.5,45.26667 321.5,44.46667C321.5,43.46667 321.5,42.66667 321.5,41.66667C321.5,40.87733 321.5,39.83333 321.5,39.04133C321.5,38.014 321.5,37.31933 321.5,36.30267C321.5,35.36217 321.50006,34.5 321.5,33.66667C321.49991,32.68817 321.48663,31.81782 320.97916,31.16667C320.37958,30.39736 319.72723,29.79651 319.55267,29.0095C319.34607,28.07813 319.19455,27.27414 318.92532,26.46667C318.59476,25.47514 318.57523,24.65118 318.33334,23.66667C318.13516,22.86002 317.66479,22.17684 317.52084,21.1875C317.38821,20.27603 317.5,19.46533 317.5,18.5C317.5,17.66667 317.51764,16.68798 317.5,15.868C317.48199,15.03009 317.18561,14.19279 316.92532,13.456C316.58066,12.48032 316.51044,11.68766 316.5,10.68817C316.49146,9.86804 316.5,8.96667 316.5,8.03067C316.5,7.18267 316.5,6.31933 316.5,5.30267C316.5,4.46667 316.5,3.56667 316.5,2.66667C316.5,1.86667 316.68372,0.94017 316.46399,0.06667C316.24695,-0.79615 315.54272,-1.53031 315.5,-2.43333C315.45749,-3.33233 315.33334,-4.16667 314.5,-4.33333L313.70001,-4.33333" id="svg_19" stroke-width="3" stroke="#000" fill="none"/>
  <path t="61338,61385,61394,61394,61405,61405,61409,61409,61420,61420,61425,61425,61425,61436,61436,61442,61450,61450,61450,61457,61457,61466,61466,61473,61489,61489,61497,61497,61505,61505,61513,61513,61528,61545,61545,61545,61553,61553,61561,61569,61577,61586,61593,61609,61609,61617,61633,61641,61641,61649,61657,61666,61673,61673,61681,61697,61705,61713,61729,61737,61737,61753,61753,61761,61777,61785,61785,61793,61801,61817,61817,61825,61825,61849,61857,61866,61866,61873,61874,61882,61897,61897,61905,61913,61914,61921,61929,61945,61953,61953,61977,61986,62009,62019,62034,62057,62073,62105,62122,62370,62386" d="M321.5,-0.33333C321.51068,2.44533 321.72168,3.27063 322.30133,3.83467C322.95874,4.47435 323.22055,5.26794 323.45184,6.25767C323.61395,6.95138 324.35645,7.38402 324.93201,8.00533C325.5386,8.66017 325.45731,9.6903 325.54816,10.31317C325.73846,11.61812 326.24673,12.17556 326.46399,13.088C326.67538,13.97589 326.5,14.91733 326.5,15.66133C326.5,16.69733 326.5,17.54933 326.5,18.492C326.5,19.18267 326.5,20.16667 326.5,21.152C326.5,21.87733 326.5,22.8665 326.5,23.83067C326.5,24.78267 326.45471,25.55227 326.51068,26.492C326.552,27.18546 327.103,28.15252 327.33334,29C327.57639,29.89415 327.44211,30.66301 327.50134,31.696C327.54556,32.46731 328.24695,33.20385 328.46399,34.06667C328.68372,34.94017 328.5,35.86667 328.5,36.76667C328.5,37.66667 328.5,38.46667 328.5,39.36667C328.5,40.30267 328.5,41.15067 328.5,42.014C328.5,42.9095 328.5,43.86667 328.5,44.76667C328.5,45.66667 328.5,46.46667 328.5,47.36667C328.5,48.26667 328.5,49.16667 328.5,50.06667C328.5,50.97117 328.5,51.83333 328.5,52.66667C328.5,53.64517 328.5,54.46533 328.5,55.36667C328.5,56.30267 328.5,57.15067 328.5,58.014C328.5,58.9095 328.5,59.868 328.5,60.83333C328.5,61.492 328.48285,62.50017 328.5,63.36217C328.51801,64.2672 329.05167,65.02174 329.33334,65.83334C329.61072,66.63255 329.49805,67.64533 329.5,68.41933C329.50226,69.31484 329.81769,70.2066 330.216,70.83466C330.694,71.58839 330.47403,72.64558 330.5,73.46533C330.52859,74.36803 331.18491,75.0898 331.44284,75.97117C331.68552,76.80045 331.30188,77.74776 331.784,78.49734C332.27649,79.26302 332.30511,79.98835 332.50134,80.86533C332.68192,81.67238 333.48199,82.1021 333.5,82.96667C333.51874,83.86647 333.5,84.76667 333.5,85.66666L333.5,86.125" id="svg_20" stroke-width="3" stroke="#000" fill="none"/>
  <path t="62835,62978,62994,63010,63021,63034,63042,63051,63073,63089,63306,63322,63335" d="M319.5,75.66666C319.5,77.46667 319.5,78.36667 319.5,79.26667C319.5,80.16666 319.74289,81.1015 319.49551,81.96217C319.27481,82.73006 318.5,83.1875 318.14734,83.96667L317.62149,84.76633L317.5,85.125L317.5,84.26667" id="svg_21" stroke-width="3" stroke="#000" fill="none"/>
  <path t="63953,64049,64049,64057,64057,64065,64065,64073,64073,64082,64082,64082,64082,64089,64089,64098,64098,64098,64106,64106,64114,64114,64121,64121,64129,64130,64137,64137,64145,64153,64153,64161,64169,64169,64177,64186,64186,64193,64193,64202,64209,64209,64217,64225,64233,64241,64241,64256,64257,64266,64266,64274,64274,64274,64282,64282,64290,64298,64306,64306,64306,64323,64323,64329,64330,64330,64337,64346,64346,64354,64354,64361,64370,64370,64377,64386,64402,64409,64409,64417,64417,64425,64433,64441,64457,64465,64465,64474,64474,64481,64490,64497,64519,64519,64521,64521,64536,64537,64547,64552,64569,64588,64588,64697,64761" d="M384.5,89.66666C383.33334,88.66666 382.80426,88.06961 382.58533,87.18134C382.41083,86.47336 382.56647,85.4622 382.47916,84.6875C382.36496,83.67418 381.83389,82.99123 381.62149,81.90266C381.50708,81.31625 381.50754,80.3427 381.50134,79.71867C381.48953,78.52921 381.42923,77.69616 381.14734,76.65683C380.93619,75.8783 380.70929,75.36083 380.55716,74.12383C380.45288,73.27592 380.5,72.26667 380.5,71.46667C380.5,70.46684 380.5,69.6875 380.5,68.83334C380.5,67.914 380.5,67.014 380.5,66.15067C380.5,65.292 380.5,64.34534 380.5,63.492C380.5,62.552 380.5,61.66667 380.5,60.86667C380.5,59.9095 380.55283,59.00323 380.44284,58.26217C380.29312,57.2535 379.80545,56.53735 379.58533,55.552C379.39142,54.68396 379.39392,53.87856 379,53.16667C378.50977,52.28069 378.55435,51.36495 378.49866,50.46533C378.45609,49.77752 378.02185,48.84869 377.784,48.06533C377.48486,47.08026 377.52643,46.42094 377.27866,45.2455C377.10965,44.44382 376.79971,43.68891 376.62149,42.80967C376.45416,41.98429 376.53622,41.02682 376.064,40.256C375.57126,39.45173 375.09338,38.83409 374.70001,38.06533C374.29312,37.27015 373.90216,36.46559 373.5,35.66667C373.10214,34.87626 372.6608,34.1776 372.11066,33.292C371.63153,32.52074 371.64459,31.62412 371.33334,30.83333C371.02353,30.04622 369.82681,29.74233 369.55716,28.95683C369.29434,28.19126 369.5,27.1875 369.5,26.26667C369.5,25.46533 369.5,24.5 369.5,23.66667C369.5,22.68817 369.5,21.868 369.5,20.96667C369.5,20.06667 369.50006,19.16667 369.5,18.36217C369.49991,17.34533 369.63901,16.61973 369.27866,15.68817C368.97775,14.91033 368.51068,14.06667 368.5,13.16667C368.48932,12.26667 368.10593,11.52353 367.784,10.78133C367.39304,9.87999 367.50067,9.06533 367.5,8.07117C367.49948,7.32383 367.48932,6.31333 367,5.66667C366.51068,5.02 366.5,4.18267 366.5,3.31933L366.5,2.42383L366.5,1.46667" id="svg_22" stroke-width="3" stroke="#000" fill="none"/>
  <path t="65178,65233,65241,65241,65249,65249,65257,65273,65273,65289,65289,65289,65297,65297,65305,65305,65313,65337,65353,65354,65362,65370,65370,65378,65400,65408,65409,65417,65433,65440,65449,65456,65465,65465,65472,65481,65488,65497,65497,65505,65513,65521,65521,65529,65537,65537,65553,65553,65562,65562,65569,65569,65577,65577,65586,65593,65602,65602,65609,65609,65617,65624,65624,65633,65633,65633,65640,65649,65649,65649,65656,65656,65657,65665,65672,65672,65681,65681,65689,65697,65697,65705,65705,65713,65728,65737,65745,65761,65784,65784,65800,65840,65864,65888,65888,65897,65913,65936,66057,66073,66153,66153,66161,66201,66313,66409" d="M373.5,1.66667C373.55716,3.42383 373.81961,4.33943 374.2045,5.014C374.65717,5.80736 375.38898,6.39067 375.88934,7.07733C376.49835,7.91308 376.44843,8.71719 376.66666,9.83333C376.82101,10.62277 376.93402,11.18467 377.5,12.33333C377.8392,13.02174 378.43329,13.76039 378.49866,14.552C378.57513,15.47826 378.88364,16.17134 379.33334,17C379.66855,17.6177 379.5,18.78133 379.5,19.66667C379.5,20.46667 379.46872,21.42234 379.936,22.06667C380.50238,22.84761 381.3075,23.31957 381.48932,24.26667C381.65903,25.15059 381.49933,26.06667 381.5,26.96667C381.50067,27.86667 381.73395,28.62494 382.14734,29.36667C382.57297,30.13034 383.04321,30.86996 383.37851,31.76667C383.69659,32.61731 383.30872,33.49975 383.55716,34.36667C383.81409,35.26325 384.26569,36.01641 384.52533,36.80533C384.80792,37.66401 385.3877,38.24244 385.55267,39.07567C385.75034,40.07393 386.13483,40.84967 386.33334,41.66667C386.52225,42.44411 386.2337,43.58016 386.61432,44.36217C386.98428,45.12231 388.01547,45.40879 388.47916,46.16667C388.94205,46.92327 389.38644,47.82499 389.46399,48.492C389.58047,49.49389 389.57822,50.35121 390,51.1875C390.39883,51.97831 390.42215,52.70398 390.66666,53.66667C390.87195,54.47503 391.37094,55.13817 391.88934,56.052C392.40585,56.96252 392.46213,57.67558 392.48932,58.452C392.52603,59.49941 392.40607,60.43768 392.58533,61.18C392.80267,62.08014 393.32291,62.83549 393.5,63.66667C393.70905,64.64787 394.30011,65.31616 394.47916,66.1875C394.67307,67.1312 394.39594,67.88998 394.784,68.78133C395.10693,69.52308 395.55438,70.36572 396,71.16666C396.44455,71.96571 396.5,72.86667 396.5,73.76667C396.5,74.66666 396.13565,75.57742 396.55716,76.3095C397.02441,77.12101 397.98141,77.42246 398.37866,78.10934C398.81403,78.8621 399.25943,79.59836 399.49551,80.37117C399.75742,81.22848 400.08914,81.98459 400.37851,82.76667C400.69363,83.6184 400.5,84.46667 400.58533,85.38133L401.37851,85.88817L401.5,86.76667L401.5,87.66666" id="svg_23" stroke-width="3" stroke="#000" fill="none"/>
  <path t="67177,67312,67329,67329,67338,67338,67345,67353,67353,67361,67361,67370,67370,67378,67387,67387,67387,67393,67393,67394,67403,67403,67410,67410,67417,67417,67425,67425,67441,67441,67449,67449,67457,67465,67465,67473,67481,67489,67497,67505,67506,67537,67552,67553,67562,67562,67570,67577,67577,67593,67593,67609,67610,67610,67617,67617,67633,67649,67649,67657,67657,67665,67665,67673,67681,67705,67721,67736,67760,67761,67777,67777,67787,67864,67912" d="M216.5,66.66666C216.5,64.04134 216.5,63.18134 216.5,62.456C216.5,61.46684 216.5,60.50267 216.5,59.552C216.5,58.66667 216.5,57.9095 216.5,57.0095C216.5,56.26217 216.5,55.268 216.5,54.32383C216.5,53.41933 216.5,52.5 216.5,51.625C216.5,50.98 216.5211,49.98182 216.47917,49.16667C216.43713,48.3492 216.1348,47.12801 215.92534,46.47733C215.60202,45.4729 215.51042,44.68766 215.5,43.688C215.49194,42.91404 215.5,42.0095 215.5,41.26217C215.5,40.26667 215.5,39.46667 215.5,38.46684C215.5,37.50267 215.5,36.552 215.5,35.66667C215.5,34.86667 215.68375,33.94017 215.464,33.06667C215.24695,32.20384 214.54272,31.47007 214.5,30.66667C214.45752,29.8678 214.5294,28.90887 214.4955,28.0095C214.46729,27.26085 214.20853,26.27079 213.92534,25.50267C213.57608,24.55536 213.59206,23.65402 213.44284,22.9095C213.25557,21.97513 212.7813,21.21074 212.39999,20.2455C212.08832,19.45652 211.97832,18.88959 211.40016,17.80967C211.06459,17.18286 210.52859,16.36337 210.5,15.34517C210.48038,14.64611 210.5,13.66667 210.5,12.87733C210.5,11.83333 210.5,11.07733 210.5,10.16667C210.5,9.26667 210.50008,8.36667 210.5,7.46667C210.49991,6.56667 210.27148,5.70233 209.92534,5.03067C209.50681,4.21854 209.5045,3.31933 209.5,2.30267L209.5,1.46667L209.5,0.56667" id="svg_24" stroke-width="3" stroke="#000" fill="none"/>
  <path t="70154,70281,70289,70289,70307,70313,70314,70329,70331,70340,70340,70344,70344,70353,70361,70369,70369,70369,70378,70378,70392,70392,70394,70394,70402,70402,70409,70409,70416,70416,70425,70425,70425,70432,70432,70432,70442,70442,70448,70448,70457,70457,70464,70464,70474,70474,70480,70480,70490,70490,70496,70496,70507,70507,70512,70512,70523,70523,70528,70528,70541,70541,70544,70544,70552,70552,70574,70574,70574,70576,70577,70585,70592,70608,70608,70616,70632,70642,70648,70664,70674,70696,70696,70707,70712,70744,70872" d="M229.5,78.66666C230.49867,77.78 230.5,76.84133 230.5,76.15067C230.5,75.04134 230.5,74.18267 230.5,73.31934C230.5,72.42384 230.5,71.46667 230.5,70.5665C230.5,69.78133 230.5,68.84133 230.5,68.15067C230.5,67.07733 230.5,66.24533 230.5,65.33334C230.5,64.40533 230.5,63.61483 230.5,62.58833C230.5,61.70833 230.5,60.83333 230.5,60.04133C230.5,59.0095 230.5,58.26217 230.5,57.268C230.5,56.50267 230.5,55.54934 230.5,54.69733C230.5,53.65683 230.5,52.88133 230.5,51.83333C230.5,51.11934 230.5,50.214 230.5,49.24533C230.5,48.44133 230.5,47.61934 230.5,46.58833C230.5,45.70833 230.5,44.83333 230.5,44.04133C230.5,43.0095 230.5,42.26217 230.5,41.26667C230.5,40.46667 230.5,39.46684 230.5,38.6875C230.5,37.688 230.5,36.914 230.5,36.0095C230.5,35.26217 230.5,34.26667 230.5,33.46667C230.5,32.46667 230.5,31.66667 230.5,30.66667C230.5,29.87733 230.5,28.83333 230.5,28.04133C230.5,27.0095 230.5,26.26217 230.5,25.26667C230.5,24.46667 230.5,23.46683 230.5,22.6875C230.5,21.68783 230.5,20.85683 230.5,19.89733C230.5,19.14583 230.5,18.34933 230.5,17.35333C230.5,16.51333 230.5,15.552 230.5,14.56667C230.5,13.66667 230.5,12.86667 230.5,11.96667C230.5,11.06667 230.5,10.16667 230.5,9.26667C230.5,8.36667 230.5,7.46667 230.5,6.5665C230.5,5.78133 230.48933,4.852 230.2785,3.90967L229.5,3.66667L228.66667,3.5" id="svg_25" stroke-width="3" stroke="#000" fill="none"/>
  <path t="71809,71864,71864,71873,71881,71881,71890,71890,71890,71897,71897,71897,71906,71906,71906,71913,71913,71922,71922,71922,71929,71929,71938,71938,71945,71945,71945,71956,71956,71961,71961,71972,71972,71977,71977,71977,71988,71988,71993,71993,72005,72005,72009,72009,72009,72022,72025,72025,72033,72041,72041,72049,72049,72057,72065,72065,72073,72081,72081,72089,72089,72097,72097,72105,72105,72113,72113,72123,72123,72123,72129,72129,72137,72144,72144,72155,72160,72170,72171,72176,72184,72184,72192,72192,72203,72210,72210,72210,72216,72216,72225,72225,72232,72232,72240,72240,72240,72248,72249,72257,72274,72274,72280,72296,72312,72328,72328,72345,72345,72360,72360,72378,72391,72408,72424,72552,72562,72572,72572,72573,72573" d="M476.5,2.66667C476.5,5.456 476.5,6.18133 476.5,7.16667C476.5,8.152 476.5,8.87733 476.5,9.867C476.5,10.70833 476.49249,11.43737 476.50134,12.63467C476.50641,13.31738 476.46561,14.02489 476.66666,15.33333C476.75375,15.90015 477.18344,16.77797 477.41467,17.784C477.57086,18.46348 477.5,19.436 477.5,20.1875C477.5,20.984 477.5,22.2095 477.5,22.856C477.5,23.86667 477.5,24.66667 477.5,25.66667C477.5,26.46667 477.5,27.26667 477.5,28.26667C477.5,29.06667 477.5,30.06667 477.5,30.86667C477.5,31.86667 477.49332,32.66669 477.5,33.66667C477.50534,34.46672 477.53976,35.27997 477.85266,36.26667C478.11035,37.07933 478.44766,38.06427 478.48932,38.86667C478.54117,39.86538 478.5,40.66667 478.5,41.66667C478.5,42.456 478.5,43.18134 478.5,44.16667C478.5,45.15067 478.5,46.014 478.5,46.914C478.5,47.83333 478.5,48.66667 478.5,49.64517C478.5,50.46533 478.5,51.30267 478.5,52.31933C478.5,53.014 478.5,54.04133 478.5,54.988C478.5,55.66667 478.5,56.78267 478.5,57.55067C478.5,58.50267 478.46942,59.26861 478.50449,60.26667C478.53262,61.0679 478.76367,62.07563 479.02084,62.66667C479.46329,63.68344 479.87662,64.46933 480.20001,65.0095C480.75629,65.93863 481.32104,66.52876 481.46399,67.492C481.61203,68.48972 481.5,69.256 481.5,70.16666C481.5,71.07733 481.5,71.988 481.5,72.84133C481.5,73.78133 481.5,74.66666 481.5,75.42384C481.5,76.492 481.5,77.18267 481.5,78.1875C481.5,79.20934 481.49951,79.91734 481.5,80.66133C481.50067,81.69733 481.57562,82.55285 481.92532,83.50267C482.20819,84.27093 482.44818,85.06568 482.48932,85.90266C482.54749,87.08646 482.5,87.88133 482.5,88.65683C482.5,89.696 482.5,90.464 482.5,91.30267C482.5,92.31934 482.5,93.014 482.5,94.03067C482.5,94.96667 482.5,95.86667 482.5,96.76683C482.5,97.552 482.5,98.50267 482.5,99.268C482.5,100.26217 482.5,101.0095 482.5,102.03067C482.5,102.96667 482.34973,103.87933 482.50015,104.7665C482.64417,105.61597 483.44284,105.3005 483.5,104.33334L483.5,103.64783L483.5,102.80933L483.5,102.17867" id="svg_26" stroke-width="3" stroke="#000" fill="none"/>
  <path t="73209,73289,73297,73313,73321,73321,73328,73337,73345,73345,73354,73354,73361,73361,73373,73378,73378,73389,73390,73390,73392,73392,73401,73401,73408,73408,73408,73416,73417,73417,73424,73432,73440,73440,73448,73448,73448,73448,73456,73456,73464,73464,73472,73472,73488,73496,73496,73504,73505,73521,73521,73528,73528,73536,73537,73544,73544,73553,73560,73560,73570,73570,73576,73592,73592,73601,73601,73608,73608,73616,73624,73632,73640,73648,73648,73656,73664,73664,73672,73680,73680,73688,73696,73696,73704,73712,73712,73712,73720,73728,73728,73737,73744,73753,73760,73771,73771,73776,73786,73786,73792,73792,73801,73809,73809,73817,73824,73832,73833,73841,73849,73857,73857,73873,73873,73880,73888,73889,73904,73912,73928,73960,73960,73992,74081,74091,74108,74108" d="M487.5,1.66667C487.5,3.46667 487.5,4.36667 487.5,5.1875C487.5,6.15067 487.5,6.84133 487.5,7.9095C487.5,8.86667 487.5,9.66667 487.5,10.552C487.5,11.50267 487.5,12.268 487.5,13.26217C487.5,14.0095 487.43558,15.06123 487.72134,15.98817C487.94315,16.70756 488.38098,17.66033 488.46399,18.46667C488.54599,19.26321 488.5,20.26667 488.5,21.06667C488.5,22.068 488.5,22.6875 488.5,23.83333C488.5,24.61933 488.49661,25.44134 488.5,26.5C488.50226,27.20051 488.68686,28.02195 489.14734,28.772C489.57837,29.47406 489.70432,30.48347 490,31.20833C490.38321,32.14783 490.45438,33.02412 490.47916,33.66667C490.51569,34.61416 490.5,35.61333 490.5,36.4675C490.5,37.43467 490.5,38.16667 490.5,39.33333C490.5,40.125 490.5,41.07734 490.5,41.988C490.5,42.66667 490.5,43.64533 490.5,44.55067C490.5,45.50267 490.5,46.268 490.5,47.26667C490.5,48.06667 490.5,49.06533 490.5,49.83067C490.5,50.78267 490.5,51.55067 490.5,52.492C490.5,53.5 490.5,54.292 490.5,55.31933C490.5,56.014 490.5,57.04133 490.5,57.98817C490.5,58.6875 490.5,59.66667 490.5,60.456C490.5,61.5 490.5,62.36217 490.5,63.26667C490.5,64.16666 490.5,65.06667 490.5,65.96667C490.5,66.868 490.5,67.552 490.5,68.492C490.5,69.5 490.49942,70.36217 490.5,71.1875C490.50067,72.15067 490.44913,73.05721 490.85266,73.9095C491.23645,74.72009 491.49933,75.46667 491.5,76.33867C491.50067,77.20934 491.5,78.16666 491.5,78.89867C491.5,79.85233 491.49606,80.86801 491.5,81.552C491.50534,82.48138 491.99191,83.1898 492.41467,83.952C492.86026,84.75535 492.5,85.76683 492.5,86.552C492.5,87.492 492.5,88.5 492.5,89.292C492.5,90.15067 492.3916,91.02113 492.50449,91.9095C492.61594,92.78662 493.35162,93.43531 493.49551,94.36667C493.62085,95.17789 493.5,96.15067 493.5,97.014C493.5,97.9095 493.5,98.86667 493.5,99.76683C493.5,100.552 493.5,101.492 493.5,102.18267C493.5,103.16666 493.5,104.15067 493.5,105.014C493.5,105.9095 493.5,106.86667 493.5,107.76667C493.5,108.66666 493.47101,109.46713 493.5,110.36667C493.52859,111.25372 494.14734,110.9005 494.44284,110.0095L494.49551,109.26217" id="svg_27" stroke-width="3" stroke="#000" fill="none"/>
  <path t="78738,78817,78817,78833,78834,78851,78881,78881,78913,78913,78945,78945,78962,79025,79033,79049,79057,79097,79113,79130,79161,79169,79169,79185,79193,79217,79225,79225,79257,79274,79290,79299,79299,79313,79313,79321,79354,79378,79378,79401,79433,79434,79465,79465,79489,79497" d="M355.5,246.66667C358.10001,246.66667 359.10001,246.66667 360.09549,246.66667C360.84283,246.66667 361.74734,246.66667 362.66666,246.66667C363.52084,246.66667 364.5,246.66667 365.28934,246.66667C366.33334,246.66667 367.08936,246.66121 368,246.66667C368.8894,246.67201 369.48956,247.18732 369.5,248.06667C369.51068,248.9666 369.5,249.86667 369.5,250.76666C369.5,251.66667 369.21805,252.41692 368.5,252.83333C367.77493,253.2538 367.56754,254.43535 366.7955,254.66217C366.01224,254.89229 365.01599,254.66667 364.15268,254.66667C363.25717,254.66667 362.29999,254.66667 361.39999,254.66667C360.5,254.66667 359.72989,254.68718 358.84732,255.01933C358.14111,255.28511 357.25845,255.63808 356.29999,255.66667C355.40024,255.69353 354.61465,255.66667 353.67465,255.66667C352.66666,255.66667 351.87466,255.66667 351.01599,255.66667L350.15268,255.66667L349.14667,255.67734L348.52533,256.09201" id="svg_28" stroke-width="3" stroke="#000" fill="none"/>
 </g>
</svg>