<svg width="500" height="333.3333333333333" xmlns="http://www.w3.org/2000/svg" xmlns:svg="http://www.w3.org/2000/svg" xmlns:xlink="http://www.w3.org/1999/xlink">
 <!-- Created with SVG-edit - http://svg-edit.googlecode.com/ -->
 <g display="inline" class="layer">
  <title>Layer 1</title>
  <path t="0,168,203,203,214,228,251,263,287,287,299,323,385,420,420,469,747,772,784,808,833,833,857,867,893,917,928,954,990,1014,1064,1099,1124,1136,1219,1268,1268,1293,1341,1353,1390,1401,1438,1463,1487,1511,1523,1644,1814,1826,1851,1886,1887,1899,1922,1947,1959,1983,1996,2031,2129,2130,2141,2214,2217,2249,2273,2323,2333,2371,2431,2505,2564,2588,2614,2734,2771,2832,2856,2877,2928,2977,3012,3048,3084,3084,3109,3169,3193,3230,3389,3413,3569" d="M283.5,101.66666C283.5,99.9095 283.5,99.014 283.5,98.15067C283.5,97.1875 283.5,96.26667 283.5,95.36667C283.5,94.56667 283.47464,93.66626 283.5,92.86667C283.52859,91.96531 284.06198,91.1983 284.44733,90.36667C284.85132,89.4948 285.33237,88.89484 285.49551,87.96667C285.64523,87.11478 286.33994,86.78668 286.97916,86.14584C287.62109,85.50225 287.83691,84.63541 288.216,83.86667C288.63281,83.02145 288.61862,82.19104 289.14734,81.614C289.78076,80.92269 290.32712,80.31474 290.85266,79.71933C291.41592,79.08119 292.19025,79.01041 292.97916,78.64584C293.75018,78.28954 294.32742,78.07786 295.14282,77.6095C295.9548,77.14311 296.5,76.66666 297.29999,76.66666C298.20001,76.66666 299.10004,76.67206 300,76.66666C300.8894,76.66133 301.37375,75.94063 302.11066,75.67733C303.04239,75.34443 303.93741,75.60132 304.52533,75.092C305.17395,74.53009 305.65042,73.64565 306.5,73.66666C307.40552,73.68906 307.09558,74.51392 306.29999,74.95067C305.65189,75.30643 304.7999,75.65376 303.89999,75.66666C303.02069,75.67928 302.55637,76.4183 301.7955,76.66217C300.90002,76.94919 300.44818,77.52305 299.5,77.66666C298.70905,77.78647 297.68152,77.7191 297.50134,78.468C297.28674,79.35999 296.89249,80.1493 296.21466,80.58134C295.44101,81.07446 294.76114,81.27499 294.064,81.63067C293.29755,82.02171 292.70947,82.21119 292.14282,82.96217C291.638,83.63122 290.75342,83.9843 290.216,84.58266C289.64258,85.22113 289.08548,85.75074 288.44733,86.314C287.85193,86.83953 287.8371,87.81556 287.33334,88.5C286.85272,89.15301 286.5,89.76667 286.5,90.66666C286.5,91.46667 286.5,92.36667 286.5,93.26667C286.5,94.16666 286.5,95.06667 286.5,95.96667L286.5,96.86667L286.5,97.76667" id="svg_1" stroke-width="3" stroke="#000" fill="none"/>
  <path t="4225,4381,4382,4393,4406,4441,4453,4477,4527,4550,4574,4575,4660,5749,5787,5884,5907,5956,6659,6670,6719,6742,6815,6949,6949,7143,7239,7675,7747,7759,7795,7820,7834,7869,7966,8135,8147,8147,8355,8365,8388,8425,8449,8475,8633,8644,8754,8764,8802,8886,9189,9238,9262,9262,9335,9358,9468,9492,9493,9552,9577,9613,9613,9625,9759,9819,10170,10171,10182,10205,10205,10219,10243,10292,10304,10741,10741,10752,10775,10824,10873,10908,11212,11247,11272,11345,11405,11417,11431,11441,11441,11455,11467,11490,11538,11550,11611,11612,11624,11639,11648,11865,11890,11901,11939,11963,11989,12083,12094,12143,12168,12179,12217,12387,12411,12447,12460,12484,12519,12579,12629,12725,12955,12967,12993,13015,13040,13052,13088,13137,13245,13245,13450,13464,13464,13476,13489,13501,13574,13695,13718,13768,13778,13825,13863,13875,13875,13985,14022,14095,14299,14361,14469,14505,14540,14553,14553,14627,14675,14699,14699,14735,14891,15123,15159,15244,15317,15414,15463,15535,15559,15621,15621,15655,15692,15752,15778,15812,15874,15934,15945,16734,16757,16781,16830,16843,16843,16866,16938,16976,17120,17340,17389,17424,17447" d="M285.5,99.66666C284.5,100.66666 284.5,101.46667 284.5,102.36667C284.5,103.26667 284.5,104.16666 284.5,105.06667C284.5,105.96667 284.5,106.86667 284.5,107.76667C284.5,108.66666 284.5,109.46667 284.5,110.36667C284.5,111.26667 284.41052,112.08404 283.92532,112.692C283.42694,113.3165 283.5,114.26667 283.5,115.16666C283.5,116.06667 283.5,116.96667 283.5,117.86667C283.5,118.76667 283.5,119.66666 283.5,120.46667C283.5,121.36667 284.37958,122.8988 283.5,123.19466C282.93985,123.38309 282.21887,122.80399 281.55267,122.314C280.86844,121.81076 280.10001,121.66666 279.20001,121.66666C278.29999,121.66666 277.39999,121.66666 276.5,121.66666C275.70001,121.66666 274.61108,121.70559 274.50134,122.468C274.37067,123.37583 275.24658,123.9843 275.784,124.58266C276.35742,125.22113 277.09259,125.33025 277.88934,125.67733C278.66724,126.0162 278.58948,127.08404 279.07468,127.692C279.57306,128.3165 279.42261,129.33426 279.936,130.06667C280.48975,130.85661 281.29803,131.14638 281.97916,131.66667C282.61148,132.1497 282.5,133.1875 282.5,134.15067C282.5,134.84134 282.5,135.9095 282.5,136.76666C282.5,137.66667 282.89297,138.59702 282.41467,139.38133C281.92459,140.18498 281.5,140.76666 281.5,141.66667C281.5,142.46666 281.5,143.30267 281.5,144.31934C281.5,145.01401 281.5,146.03067 281.5,146.96666C281.5,147.86667 281.5,148.76666 281.5,149.66667C281.5,150.46666 281.5,151.36667 281.5,152.26666C281.5,153.16667 281.49933,154.06667 281.5,154.96666C281.50067,155.86534 281.883,156.453 282.69867,156.668C283.49631,156.87823 283.5,157.96666 283.5,158.86667C283.5,159.76666 283.5,160.66667 283.5,161.46666C283.5,162.36667 283.5,163.26666 283.5,164.16667C283.5,165.06667 283.36835,166.01672 283.72134,166.76666C284.0864,167.54218 284.09683,168.37125 284.53601,169.23067C284.89215,169.92758 285.20163,170.14111 285.51068,169.27733C285.77429,168.54054 286.69299,168.26305 287.216,167.58267C287.68591,166.97141 287.08878,165.84409 287.55716,165.02383C288.02148,164.21066 288.17746,163.52826 288.66666,162.83333C289.16998,162.1183 289.86212,161.73022 290.5,161.16667C291.0835,160.65115 291.48105,159.96199 291.5,159.06667C291.52042,158.1022 292.21417,158.06522 293.064,157.63066C293.76083,157.27434 294.28192,156.54958 295.10001,156.092C295.87231,155.66003 296.37717,154.95 297.11066,154.67734C297.92526,154.37451 298.7388,154.21745 299.216,153.58267C299.79227,152.81612 299.3988,151.85612 299.53601,151.03067C299.68073,150.16 300.21124,149.38356 300.88934,148.728C301.48517,148.15198 301.51068,147.27733 302,146.66667C302.48932,146.056 302.5,145.16667 302.5,144.26666C302.5,143.36667 302.5,142.46666 302.5,141.56667C302.5,140.66667 302.5,139.86667 302.5,138.96666C302.5,138.06667 302.10413,137.07382 302.52084,136.1875C302.85263,135.48177 304.01315,135.80965 304.89999,135.65601C305.73218,135.51183 306.11356,134.5455 306.58401,133.952C307.16943,133.21346 307.94196,132.88107 308.69867,132.38133C309.30759,131.97919 309.68542,131.18121 310.33334,130.5C310.93469,129.86774 310.79099,129.66667 309.89999,129.66667C309,129.66667 308.10001,129.66667 307.20001,129.66667C306.29999,129.66667 305.39999,129.66667 304.5,129.66667C303.70001,129.66667 302.79999,129.66667 301.89999,129.66667C301,129.66667 300.10001,129.66667 299.20001,129.66667C298.29999,129.66667 297.3956,129.57799 296.5,129.66667C295.6543,129.75041 295.21765,130.62395 294.29999,130.66667C293.40097,130.70853 292.5,130.66667 291.70001,130.66667C290.79999,130.66667 289.89999,130.66667 289,130.66667C288.10001,130.66667 287.20001,130.66667 286.30133,130.66533L285.58533,130.38133L285.49866,129.468" id="svg_2" stroke-width="3" stroke="#000" fill="none"/>
  <path t="25193,25368,25379,25415,25415,25453,25477,25525,25537,25574,25599,25670,25731,25732,25768,25779,25793,26033,26056,26096,26096,26107,26130,26130,26167,26203,26264,26313,26374,26495,26495,27475,27522,27682,27753,27791,27849,27900,28009,28009,28106,28166,28373,28407,28469,28530,28602,28808,29062" d="M287.5,98.66666C287.5,97.66666 287.6543,96.7504 288.5,96.66666C289.29608,96.58784 290.20001,96.66666 291.10001,96.66666C292,96.66666 292.89999,96.66666 293.79999,96.66666C294.70001,96.66666 295.60001,96.66666 296.5,96.66666C297.29999,96.66666 298.35938,96.19624 299.14282,96.72383C299.82703,97.18458 299.76773,98.16706 300.33334,98.83334C300.91418,99.51756 301.15363,100.22708 301.7955,100.96667C302.37411,101.63335 302.49933,102.46667 302.5,103.36667C302.50067,104.26667 302.3429,105.18237 302.51068,106.06667C302.69016,107.01257 303.41498,107.65406 303.49866,108.46667C303.59085,109.36193 303.5,110.26667 303.5,111.16666C303.5,112.06667 303.5,112.96667 303.5,113.86667C303.5,114.76667 303.5,115.66666 303.5,116.46667C303.5,117.36667 303.5,118.26667 303.5,119.16666C303.5,120.06667 303.5,120.96667 303.50134,121.86533L303.85266,122.614L304.46399,123.10267L304.5,123.96667" id="svg_3" stroke-width="3" stroke="#000" fill="none"/>
  <path t="33264,33374,33397,33422,33422,33432,33543" d="M302.5,120.66666C301.58533,120.952 301.5,121.76667 301.5,122.66666L301.5,123.46667L301.5,124.36667L301.5,125.26667" id="svg_4" stroke-width="3" stroke="#000" fill="none"/>
  <path t="35560,35724,35758,35855,35953,35953,36013,36100,36183" d="M285.5,119.66666C285.33334,121.5 284.56088,121.8819 284.5,122.76667C284.4382,123.66454 284.5,124.46667 284.5,125.36667L284.5,126.26667L284.5,127.16666" id="svg_5" stroke-width="3" stroke="#000" fill="none"/>
  <path t="40204,40301,40301,40474,41003,41003,41015,41051,41086,41172" d="M284.5,141.66667C285.5,141.66667 286.45764,141.15329 287.21466,141.66667C287.84299,142.09279 287.41467,143.09866 286.69867,143.664L285.79999,143.66667L284.89999,143.66667L284,143.66667" id="svg_7" stroke-width="3" stroke="#000" fill="none"/>
  <path t="42470,42614,42662,42917,42939,42964,42975,42988,43013,43074,43098,43195" d="M296.5,141.66667C299.08932,141.66667 300.05731,141.36308 300.88934,141.67734C301.5914,141.9425 300.69821,142.30342 299.936,142.70267C299.1777,143.09987 298.69867,143.66533 297.79999,143.66667L296.89999,143.66667L296,143.66667" id="svg_8" stroke-width="3" stroke="#000" fill="none"/>
  <path t="45543,45847,45870,46089,46440,46476,46562,46574,46610,46657,46705,46730,46754,46803,46961,47274,47287,47312,47397,47470,47565,47602,47688,47724,47737,47990,48257,48292,48305" d="M284.5,160.66667C284.58533,161.468 285.74701,161.7748 285.87866,162.63066C285.93396,162.99013 285.5116,163.04526 285.5,162.06667C285.48956,161.18732 284.79324,160.29027 284.02084,160.6875C283.33011,161.04274 284.30133,161.666 285.20001,161.66667C286.10001,161.66734 286.99557,161.59619 287.15182,161.72383C287.71942,162.18752 287.5,163.26666 287.5,164.16667C287.5,165.06667 287.74152,166.25491 286.97916,166.64583C286.19662,167.04707 285.15155,166.73753 284.52533,166.24133C283.90018,165.74599 284.44733,165.314 284.936,164.70267L285.88934,164.65601" id="svg_9" stroke-width="3" stroke="#000" fill="none"/>
  <path t="51335,51443,51453,51477,51478,51490,51525,51525,51539,51539,51564,51601,51601,51624,51636,51660,51696,51697,51781,51804,51854,51867,51879,51901,51940,51964,51987,51988,52035,52049,52072,52095,52119,52387,52410,52422,52435,52470,52483,52618,52702,52702,52763,52797,52823,52859,52883,52908,52919,53186,53198,53211,53236,53236,53258,53270,53294,53344,53345,53366,53501,53525,53587,53610,53634,53887,53900,53913,53924,53924,53936,53949,53949,53972,53997,54035,54046,54082,54167,54167,54398,54421,54458,54459,54469,54482,54507,54543,54554,54578,54602,54894,54906,54906,54918,54933,54942,54967,54979,54991,55330,55343,55353,55427,55439,55523,55584,55609,55644,55960,55972,56009,56009,56033,56033,56091,56274,56311,56432,56470,56518,56591,56663,56782,57365,57378" d="M278.5,148.66667C278.21466,149.58133 277.33942,149.46851 276.5,149.83333C275.81543,150.13086 275.27823,151.12613 274.33334,151.5C273.70892,151.74707 272.63135,151.47301 271.8045,151.72383C270.91592,151.99338 270.29807,152.68808 269.85718,153.36667C269.34238,154.15901 268.73486,154.62895 268,155.1875C267.33618,155.69205 266.8848,156.37891 266.47467,157.26666C266.09958,158.07863 265.66675,158.87816 265.49985,159.76649C265.35034,160.56221 264.52859,161.02238 264.5,161.86667C264.46954,162.76614 264.5,163.66667 264.5,164.46666C264.5,165.36667 264.84305,166.34523 264.47916,167.14583C264.12769,167.91905 263.50067,168.468 263.5,169.36667C263.49933,170.26666 263.5,171.16667 263.5,172.06667C263.5,172.96666 263.5,173.86667 263.5,174.76666C263.5,175.66667 263.5,176.46666 263.5,177.36667C263.5,178.26666 263.49774,179.16667 263.5,180.06667C263.50226,180.96219 264.04068,181.54129 264.5,182.1875C264.99548,182.8846 265.10712,183.95657 265.7215,184.54533C266.40237,185.19781 267.26184,185.31493 267.88934,186.06667C268.43655,186.72221 268.77005,187.44035 269.60001,187.888C270.24765,188.23732 270.89597,188.85918 271.58401,189.38266C272.1976,189.8495 273.20001,189.66667 274.10001,189.66667C275,189.66667 275.89999,189.66667 276.79999,189.66667C277.70001,189.66667 278.60016,189.66667 279.38535,189.66667C280.32535,189.66667 281.33334,189.66667 282.08932,189.66667C283,189.66667 283.89999,189.66667 284.79999,189.66667C285.70001,189.66667 286.60001,189.66667 287.5,189.66667C288.29999,189.66667 289.26239,189.70341 290,189.14583C290.77731,188.55824 291.44562,188.19583 292.14282,187.614C292.73398,187.12067 292.96042,186.14307 293.44733,185.37117C293.89041,184.66873 294.32837,184.04053 294.85718,183.37117C295.44263,182.63013 296.64429,182.63591 297.14282,181.96217C297.65656,181.2679 297.51068,180.27733 298,179.66667C298.48932,179.056 298.66281,178.22861 299.14734,177.614C299.65933,176.96455 299.13684,175.86977 299.53601,175.10266C299.93115,174.34329 300.49933,173.86534 300.5,172.96666C300.50067,172.06667 300.5,171.16667 300.5,170.26666C300.5,169.36667 300.5,168.46533 300.5,167.5C300.5,166.66667 300.5,165.68817 300.5,164.97116C300.5,164.06667 300.5,163.16667 300.5,162.26666C300.5,161.36667 300.64981,160.45407 300.49985,159.56683C300.35583,158.71481 299.52533,158.24133 298.97916,157.6875L298.11066,157.65601L297.47467,157.092" id="svg_10" stroke-width="3" stroke="#000" fill="none"/>
  <path t="61568,61701,61723,61724,61748,61761,61785,61796,61796,61810,61810,61845,61858,61881,61893,61893,61905,61941,61954,61966,61990,62003,62015,62015,62038,62052,62075,62087,62099,62124,62135,62135,62149,62149,62161,62173,62415,62426,62426,62438,62439,62451,62451,62462,62462,62476,62476,62476,62486,62486,62502,62502,62502,62511,62511,62524,62536,62536,62549,62549,62561,62561,62790,62802,62818,62818,62828,62838,62839,62853,62875,62911,62924,62983,63008,63032,63068,63068,63093,63141,63177,63190,63190,63202,63227,63251,63286,63287,63311,63334,63383,63395,63431,63541,63578,63880,63928,63965,63988,63988,64001,64001,64015,64025,64039,64051,64075,64365,64365,64412,64632,64739,64825,65176,65285,65286,65333,65357,65407,65419,65454,65455,65527,65611,65915,65926,65940,65952,65952,65963,65964,65988,65999,66023,66037,66109,66120,66120,66145,66146,66387,66399,66411,66423,66424,66447,66448,66460,66460,66472,66495,66508,66519,66581,66836,66837,67514,67549,67659,67768,67779,67804,67876,68058,68072,68095,68106,68132,68132,68156,68168,68179,68203,68252,68435,68482,68494,68520,68591,68676,68677,68725,68846,68871,69040,69065,69160,69173,69174,69187,69198,69245,69307,69331,69511,69512,69524,69537,69561,69586" d="M307.5,134.66667C307.5,135.6875 307.5,136.64517 307.5,137.46533C307.5,138.36667 307.46378,139.3065 307.936,140.07733C308.42874,140.88159 308.9982,141.45078 309.33334,142.5C309.56824,143.23532 309.35794,144.17967 309.51068,145.06667C309.65414,145.89981 310.41211,146.65298 310.49551,147.36667C310.59998,148.26059 310.5,149.16667 310.5,150.06667C310.5,150.96666 310.5,151.86667 310.5,152.76666C310.5,153.66667 310.5,154.46666 310.5,155.36667C310.5,156.26666 310.5,157.16667 310.5,158.06667C310.5,158.96666 310.5,159.868 310.5,160.83333C310.5,161.66667 310.5,162.64517 310.5,163.36217C310.5,164.26666 310.5,165.16667 310.5,166.07733C310.5,166.98817 310.5,167.87733 310.5,168.8665C310.5,169.64583 310.5,170.64534 310.5,171.41933C310.5,172.32834 310.5,173.12833 310.5,174.088C310.5,174.892 310.5,175.714 310.5,176.74516C310.5,177.64583 310.5,178.66667 310.5,179.46666C310.5,180.26666 310.5,181.26216 310.5,182.00951C310.5,183.04134 310.5,183.98801 310.5,184.66667C310.5,185.64534 310.5,186.55067 310.5,187.492C310.5,188.18266 310.5,189.256 310.5,190.07733C310.5,190.98801 310.5,191.84134 310.5,192.78133C310.5,193.66667 310.5,194.46666 310.5,195.36667C310.5,196.26666 310.5,197.16667 310.5,198.06667C310.5,198.96666 310.5,199.86667 310.5,200.76666C310.5,201.66667 310.89297,202.59702 310.41467,203.38133C309.92459,204.18498 309.5,204.76666 309.5,205.66667C309.5,206.46666 309.16156,207.11298 308.66666,207.83333C308.12979,208.61476 308.5,209.66667 308.5,210.46666C308.5,211.36667 308.5054,212.26668 308.5,213.16667C308.49466,214.05605 307.77441,214.54059 307.51068,215.27733C307.21091,216.1147 307.5,217.06667 307.5,217.96666C307.5,218.868 307.5,219.83333 307.5,220.492C307.5,221.5 307.5,222.36217 307.5,223.26666C307.5,224.16667 307.5,225.06667 307.5,225.96666C307.5,226.868 307.61157,227.84392 307.47916,228.64583C307.33411,229.52431 306.26703,229.91197 305.58401,229.38266C304.95432,228.89467 304.13736,228.49854 303.66666,227.66667C303.30542,227.02821 302.81381,226.24431 302.55716,225.36667C302.30405,224.5011 302.5,223.56667 302.5,222.66667C302.5,221.86667 302.5,220.96666 302.5,220.06667C302.5,219.16667 302.5,218.26666 302.5,217.36217C302.5,216.5 302.5,215.66667 302.5,214.68817C302.5,213.868 302.5,212.96666 302.5,212.06667C302.5,211.16667 302.5,210.26666 302.5,209.36217C302.5,208.5 302.5,207.66667 302.5,206.68817C302.5,205.868 302.5,204.96666 302.5,204.06667C302.5,203.14583 302.5,202.18134 302.5,201.45599C302.5,200.46683 302.55161,199.68616 302.49985,198.68817C302.45715,197.86469 301.75305,197.12949 301.53601,196.26666C301.31628,195.39316 301.5,194.46666 301.5,193.56667C301.5,192.66667 301.5,191.86667 301.5,190.96666C301.5,190.06667 301.5,189.16667 301.5,188.26666C301.5,187.36667 301.62402,186.45805 301.49985,185.56683C301.38812,184.76494 300.52859,184.31094 300.5,183.46666C300.46954,182.56718 300.5,181.66667 300.5,180.86667C300.5,179.96666 300.5,179.06667 300.5,178.16667C300.5,177.26666 300.5,176.36667 300.5,175.46666C300.5,174.56667 300.17734,173.51265 300.72134,172.78799C301.20459,172.14429 301.82614,171.63 302.216,170.86667C302.60052,170.11377 302.5,169.16667 302.5,168.26666C302.5,167.36667 302.5,166.46666 302.5,165.56667C302.5,164.66667 302.5,163.86667 302.5,162.96666C302.5,162.06667 302.6571,161.15096 302.48932,160.26666C302.30984,159.32076 301.91855,158.47928 301.33066,157.952C300.67682,157.36557 299.61432,157.30949 299.5,156.46666L299.49985,155.56683" id="svg_11" stroke-width="3" stroke="#000" fill="none"/>
  <path t="72519,72733,72733,72747,72795,72818,72829,72854,72866,72878,72926,72989,73025,73085,73147,73242,73255,73302,73484,73508,73545,73703,73749,73788,73788,73812,73860,73872,73885,73907,73931,73994,74018,74019,74044,74149,74161,74283" d="M289.5,187.66667C288.5,188.66667 288.5,189.46666 288.5,190.36667C288.5,191.26666 288.5,192.16667 288.5,193.06667C288.5,193.96666 288.34067,194.96455 288.85266,195.614C289.33719,196.22861 289.30511,196.98834 289.50134,197.86534C289.68192,198.67238 290.77234,199.23485 290.48932,200.056C290.23434,200.79582 289.64902,201.39818 289.064,202.056C288.44785,202.74884 287.3956,202.75536 286.5,202.66667C285.6543,202.58293 285.5,201.66667 285.5,200.86667C285.5,199.96666 285.5,199.06667 285.5,198.16667C285.5,197.26666 285.5,196.36667 285.5,195.46666C285.5,194.56667 285.5,193.66667 285.5,192.86667C285.5,191.96666 285.5,191.06667 285.5,190.16667L285.5,189.26666" id="svg_12" stroke-width="3" stroke="#000" fill="none"/>
  <path t="75641,75786,75833,75845,76197,76220,76245,76283,76283,76318,76391,76717,76728,76754,76814,76814,76827,76851,76851,76862,76887,76887,76899,76899,76923,76935,76948,76972,76984,76996,76996,77020,77033" d="M284.5,186.66667C284.5,188.46666 284.5,189.36667 284.5,190.26666C284.5,191.06667 284.60696,191.97319 284.49866,192.86667C284.38718,193.78642 283.65414,194.43352 283.51068,195.26666C283.35794,196.15367 283.50067,197.06667 283.5,197.96666C283.49933,198.86667 283.20584,199.72112 282.85266,200.36667C282.36816,201.25224 282.19818,202.14343 281.92532,202.84134C281.56134,203.77229 281.5,204.66667 281.5,205.552C281.5,206.492 281.5,207.18266 281.5,208.14583C281.5,209.06667 281.5,209.96666 281.5,210.86667C281.5,211.76666 281.5,212.66667 281.5,213.46666L281.5,214.36667L281.5,215.26666" id="svg_13" stroke-width="3" stroke="#000" fill="none"/>
  <path t="78609,78777,78826,78837,78862,78922,78946,78981,79443,79454,79454,79576,79637,79648,79770,80423,80447" d="M277.5,188.66667C277.5,189.468 277.5,190.36667 277.5,191.26666C277.5,192.16667 277.5,193.06667 277.5,193.96666C277.5,194.86667 277.5,195.76666 277.5,196.66667C277.5,197.46666 277.54486,198.5202 278.30133,198.66533C279.18393,198.83466 280.10001,198.66667 281.064,198.63066L281.49551,197.96217" id="svg_14" stroke-width="3" stroke="#000" fill="none"/>
  <path t="83938,84131,84131,84227,84384,84724,84724,84749,84772,84796,84869,84869,85255,85292,85317,85426" d="M279.5,209.66667C280.5,209.66667 281.29999,209.66667 282.20001,209.66667C283.16666,209.66667 282.36969,209.4799 281.70001,208.86534C281.08105,208.29732 280.54272,207.46968 280.5,206.56667C280.45749,205.66768 280.5,204.86667 280.58533,203.952L281.30133,203.668L282.20001,203.66667L283.10001,203.66667" id="svg_15" stroke-width="20" stroke="#fff" fill="none"/>
  <path t="90307,90501,90647,90670,90671,90828,90937,90937,90961,90997,91142,91457,91469,91604,91626" d="M275.5,191.66667C276.41467,191.952 276.5,192.76666 276.5,193.66667C276.5,194.46666 276.5528,195.52235 277.5,195.66667C278.29086,195.78717 279.20007,195.65601 280.10001,195.66667C280.97934,195.67709 281.5,196.33333 281.92532,195.692L282.47916,195.14583L282.52084,194.1875" id="svg_16" stroke-width="3" stroke="#000" fill="none"/>
  <path t="99781,100046,100191,100215,100553,100577" d="M283.5,121.66666C283.5,123.46667 283.5,124.36667 283.52084,125.16666L283.92532,126.06667L284.37851,126.76667" id="svg_17" stroke-width="3" stroke="#000" fill="none"/>
  <polyline timestamps="101886,102310" startTime="1502032903045" id="svg_18" points="283.5,122.6666669845581 283.5,124.46666698455809 " stroke-linecap="round" stroke-width="3" stroke="#000" fill="none"/>
  <polyline timestamps="107967,108208,108353" startTime="1502032903045" id="svg_20" points="283.5,124.6666669845581 283.5,125.6666669845581 283.66666666666663,126.50000031789143 " stroke-linecap="round" stroke-width="3" stroke="#000" fill="none"/>
  <path t="111019,111248,111296,111369,111503" d="M282.5,122.66666C283.37851,123.88817 283.50015,124.7665 283.784,125.58266L284.44284,126.02383" id="svg_21" stroke-width="3" stroke="#000" fill="none"/>
  <path t="112508,112593,112606,112655,112705" d="M301.5,122.66666C301.5,124.46667 301.5,125.36667 301.5,126.26667L301.5,127.16666" id="svg_22" stroke-width="3" stroke="#000" fill="none"/>
  <path t="115136,115367,115440,115475,115619,115730,115754,115839,115864,115911,115911,116105,116251,116334,116420,116445,116518,116529,116553,116638,116650,116916,117014,117015,117050,117208" d="M303.5,128.66667C305.29999,128.66667 306.20001,128.66667 307.10001,128.66667C308,128.66667 308.89999,128.66667 309.79999,128.66667C310.70001,128.66667 311.60001,128.66667 312.5,128.66667C313.29999,128.66667 314.31561,128.6637 314.49866,129.468C314.69806,130.34427 314.55814,131.43533 313.7955,131.66217C312.93716,131.91748 311.94028,131.97658 311.11066,131.65601C310.31775,131.34961 310.11215,130.35544 309.33334,129.83333C308.62744,129.36009 307.70001,129.752 306.936,130.27733L306.52533,131.056" id="svg_23" stroke-width="3" stroke="#000" fill="none"/>
  <path t="122309,122622,122622,122887,123179" d="M282.5,121.66666C282.5,122.66666 282.5,123.46667 282.58533,124.38133L283.37851,124.88817" id="svg_24" stroke-width="3" stroke="#000" fill="none"/>
  <path t="124671,125056,125190,125214,125563,125588" d="M275.5,121.66666C273.79999,121.66666 272.89999,121.66666 272,121.66666L271.10001,121.66666L270.20001,121.66666" id="svg_25" stroke-width="3" stroke="#000" fill="none"/>
  <path t="136711,136830,136831,136844,136854,136878,136891,136916,136975,136975,137011,137097,137253,137266,137303,137326,137326,137569,137666,137691,137774,137861,137910,137958,137969,138116,138200,138261,138309" d="M309.5,155.66667C309.5,156.66667 309.5,157.46666 309.5,158.36667C309.5,159.26666 309.64206,160.17967 309.48932,161.06667C309.34586,161.89981 308.58502,162.65407 308.50134,163.46666C308.40912,164.36194 308.50534,165.26668 308.5,166.16667C308.49466,167.06671 308.04703,167.77386 307.66666,168.66667C307.34647,169.4182 307.5,170.36667 307.5,171.26666C307.5,172.16667 307.25711,173.1015 307.50449,173.96217C307.72519,174.73006 308.61389,175.05608 309.14734,175.71933C309.6105,176.29518 309.5,177.36667 309.5,178.26666L309.5,179.16667" id="svg_26" stroke-width="3" stroke="#000" fill="none"/>
  <path t="140863,140949,140949,140961,140961,140961,140976,140976,140977,140985,140985,140998,140998,140998,141010,141010,141022,141023,141023,141034,141034,141034,141034,141047,141047,141047,141047,141047,141058,141058,141058,141058,141072,141072,141072,141072,141072,141084,141084,141084,141084,141094,141094,141094,141094,141094,141105,141105,141105,141105,141117,141117,141117,141133,141133,141142,141142,141142,141155,141155,141155,141167,141167,141167,141167,141181,141181,141181,141182,141191,141192,141192,141192,141203,141204,141204,141204,141215,141216,141216,141216,141228,141228,141228,141228,141241,141241,141241,141251,141251,141251,141265,141265,141265,141276,141277,141277,141277,141288,141289,141289,141289,141299,141300,141300,141300,141312,141312,141324,141325,141335,141335,141336,141350,141351,141361,141361,141373,141373,141373,141373,141385,141385,141385,141385,141397,141398,141398,141420,141420,141627,141627,141639,141640,141640,141640,141640,141640,141653,141653,141653,141653,141654,141654,141654,141664,141664,141664,141664,141664,141664,141664,141664,141664,141675,141675,141675,141675,141675,141675,141676,141676,141676,141688,141688,141688,141688,141688,141688,141701,141702,141702,141702,141703,141703,141712,141712,141712,141712,141712,141712,141712,141725,141725,141725,141726,141735,141735,141735,141735,141751,141751,141751,141752,141760,141760,141760,141772,141773,141784,141784,141809,141810,141832,141867,141892,141905,141905,141929,141941,141966,142003,142014,142038,142063,142075,142075,142111,142123,142159,142184,142209,142244,142257,142268,142268,142293" d="M302.5,2.66667C304.34668,3.10267 304.953,3.39293 305.92133,3.7665C306.7186,4.07408 307.53564,4.3683 308.57849,4.54517C309.47202,4.6967 310.09866,4.666 311.10449,4.66667C311.95715,4.66723 312.92133,4.66667 313.72534,4.66667C314.54733,4.66667 315.57849,4.66667 316.47916,4.66667C317.5,4.66667 318.32364,4.65049 319.01434,4.72383C320.14853,4.84427 320.81546,5.01889 321.54166,5.1875C322.31021,5.36595 323.50122,5.66193 324.29868,5.868C325.09055,6.07263 325.87296,6.27724 326.61465,6.552C327.69305,6.95149 328.34814,7.32656 329.02084,7.66667C330.06372,8.19393 330.8266,8.52087 331.668,8.78133C332.54419,9.05257 333.4494,9.25579 333.89465,9.36217C335.16681,9.66608 335.93246,9.86048 336.97916,10.16667C337.64932,10.36271 338.66556,10.67063 339.38535,10.86667C340.13486,11.0708 340.9104,11.2677 341.70132,11.46667C342.89944,11.76807 343.69379,11.96966 344.47916,12.14583C345.24124,12.31678 346.33197,12.51272 347.33383,12.614C348.21628,12.70321 349.1879,12.7847 349.84933,13.10267C350.87152,13.59407 351.49951,13.99408 352.28534,14.23067C353.32147,14.5426 354.05069,14.58839 354.95267,14.71933C355.92606,14.86064 356.74722,15.10079 357.34668,15.27733C357.98724,15.46599 359.3819,15.87377 360.12534,16.056C360.87262,16.23917 361.61176,16.4117 362.67868,16.54533C363.67151,16.66969 364.32712,16.67459 364.98401,16.75067C366.39014,16.91352 367.13498,17.09725 367.91068,17.24133C368.70035,17.38802 369.89923,17.55289 370.6955,17.614C371.47861,17.6741 372.24722,17.68321 373.33334,17.83333C374.01819,17.92799 374.97601,18.18053 375.59549,18.314C376.79434,18.5723 377.6926,18.61133 378.54285,18.71933C379.58398,18.85159 380.27609,19.09911 380.95267,19.37117C381.92358,19.76157 382.73459,20.07072 383.60449,20.36667C384.4986,20.67085 385.40359,20.96952 386.02084,21.16667C386.65622,21.36961 388.01938,21.77399 388.75266,21.96217C389.49808,22.15347 390.24255,22.33922 391.33334,22.5C392.01086,22.59987 392.95819,22.65501 393.81332,22.66533C394.81461,22.67742 395.68933,22.66667 396.70001,22.66667C397.5,22.66667 398.5,22.66667 399.29999,22.66667C400.10001,22.66667 401.10001,22.66827 401.89999,22.66667C402.90134,22.66467 403.78033,22.65065 404.66666,22.16667C405.21716,21.86606 406.00647,21.1318 406.54733,20.61033C407.34299,19.84321 407.82407,19.35967 408.47916,18.66667C408.90164,18.21973 409.70526,17.24953 410.09549,16.7185C410.67209,15.93387 411.28696,14.9594 411.74283,14.4855C412.43561,13.7653 413.25122,13.62875 414.16666,13.33333C414.84851,13.1133 415.65466,12.79464 416.57867,12.44533C417.07516,12.25765 417.5881,12.05697 419.22198,11.46633C419.78845,11.26156 420.37177,11.06076 421.58334,10.625C422.21924,10.39629 422.87756,10.15643 423.55734,9.896C425.00336,9.34202 425.7648,9.02557 426.55334,8.69867C427.36316,8.36294 428.18631,8.01512 429.02084,7.66667C429.85962,7.31645 430.69687,6.96629 431.53333,6.63467C433.16229,5.98885 433.95459,5.70402 434.72665,5.44C435.4747,5.18419 436.20471,4.95329 436.91666,4.75C437.60483,4.5535 438.27411,4.3784 438.92667,4.24C440.1622,3.97796 440.75488,3.88955 441.88568,3.781C442.42715,3.72902 443.47858,3.68336 443.991,3.67567C445.49985,3.65301 446.00034,3.6552 447.00449,3.67567C448.02115,3.69639 448.53915,3.70956 449.58533,3.83733C450.67075,3.9699 451.2251,4.09336 452.34818,4.3765C452.91678,4.51986 454.039,4.85091 454.59018,5.0185C455.13101,5.18294 456.65582,5.64866 457.58118,5.9095C458.01688,6.03231 458.84616,6.24357 460.33334,6.66667C461.01633,6.86097 461.66531,7.06263 462.59549,7.36667C463.50128,7.66274 464.39999,7.96667 465,8.16667C465.89999,8.46666 466.79767,8.77256 467.67868,9.056C468.48389,9.31505 469.35159,9.60132 470.24817,9.66217C471.15509,9.72371 471.90451,9.66667 472.89868,9.66667C473.84283,9.66667 474.74283,9.66667 475.70001,9.66667C476.60001,9.66667 477.5,9.66667 478.29999,9.66667C479.20001,9.66667 480.10001,9.66667 481,9.66667C481.89999,9.66667 482.79999,9.66667 483.70001,9.66667C484.60001,9.66667 485.5,9.66667 486.29999,9.66667C487.20001,9.66667 488.10001,9.66667 489,9.66667C489.89999,9.66667 490.79999,9.66667 491.70001,9.66667C492.60001,9.66667 493.5,9.66667 494.29999,9.66667L495.14282,9.6095" id="svg_27" stroke-width="3" stroke="#000" fill="none"/>
  <path t="144692,144764,144764,144776,144776,144776,144776,144790,144790,144790,144790,144790,144791,144800,144800,144800,144800,144800,144800,144800,144812,144812,144812,144812,144812,144812,144812,144812,144827,144827,144828,144828,144828,144828,144828,144828,144835,144836,144836,144836,144836,144836,144836,144850,144850,144850,144850,144850,144863,144863,144863,144863,144863,144877,144877,144877,144877,144884,144884,144884,144896,144897,144922,144933,144933,144946,144946,144946,144957,144957,144957,144957,144957,144970,144970,144970,144970,144970,144970,144970,144980,144980,144980,144980,144980,144980,144980,144981,144981,144993,144993,144993,144993,144993,144993,144993,144993,144994,145007,145007,145007,145007,145007,145007,145007,145007,145007,145019,145019,145020,145020,145020,145020,145020,145020,145020,145030,145030,145030,145030,145030,145030,145030,145030,145030,145043,145043,145043,145043,145043,145043,145043,145043,145043,145054,145054,145054,145054,145054,145054,145066,145066,145126,145139,145151,145152,145152,145163,145164,145164,145164,145175,145175,145175,145187,145187,145187,145200,145200,145200,145212,145213,145261,145272,145296,145296,145296,145345,145357,145357,145370,145370,145370,145371,145380,145380,145381,145381,145395,145395,145395,145395,145396,145406,145406,145406,145406,145407,145407,145407,145418,145418,145418,145418,145418,145418,145419,145419,145419" d="M406.5,5.66667C405.41666,6.64583 404.72665,6.666 403.52802,6.66667C402.81732,6.66706 402.04266,6.66667 401.21201,6.66667C399.87817,6.66667 399.41199,6.66667 398.44266,6.66667C397.9375,6.66667 396.88116,6.66667 396.328,6.66667C394.55701,6.66667 393.92932,6.66667 393.28568,6.66667C392.62799,6.66667 391.27866,6.66667 390.591,6.66667C389.89734,6.66667 388.5,6.66717 387.79999,6.6665C387.10001,6.66583 386.3999,6.66916 385,6.64583C384.29993,6.63417 383.59973,6.61573 382.89999,6.58133C381.49933,6.51247 380.79962,6.45105 380.10132,6.38133C378.70944,6.24238 378.02054,6.14821 377.336,6.056C376.65683,5.96452 375.98486,5.86827 374.66666,5.66667C373.38623,5.47085 372.76196,5.36905 372.14667,5.27733C370.94727,5.09855 370.36255,5.01632 369.78665,4.952C368.12396,4.76629 367.58685,4.74743 366.54666,4.692C366.04175,4.66509 365.05832,4.64941 363.66666,4.5C362.78265,4.4051 361.93597,4.24146 361.52084,4.16667C360.70447,4.01958 359.50143,3.81793 358.70267,3.752C357.92242,3.6876 356.81433,3.66892 355.83334,3.66667C355.01434,3.66479 354.10901,3.66667 353.10132,3.66667C352.336,3.66667 351.08356,3.35748 350.62183,4.1095C350.23279,4.74313 350.90005,5.70351 351.58334,6.16667C352.237,6.60973 353.13858,6.99838 353.82782,7.31933C354.59882,7.67836 355.47574,8.02814 355.95868,8.18267C357.55054,8.69203 358.15726,8.78715 358.78049,8.905C359.42795,9.02744 360.80328,9.22608 361.52783,9.305C362.27399,9.38627 363.8331,9.50442 364.64316,9.54533C365.47177,9.58719 366.31882,9.61523 367.18268,9.64133C368.06247,9.66792 368.9574,9.69022 369.86618,9.71933C370.78806,9.74886 372.66687,9.82967 373.62167,9.888C374.58691,9.94697 375.56174,10.01871 376.54666,10.092C377.54172,10.16604 378.54651,10.24366 379.56168,10.314C380.58652,10.38501 382.66647,10.50463 383.72134,10.54517C384.78381,10.586 385.8526,10.61251 386.92532,10.63067C387.99994,10.64885 389.07468,10.65749 390.14734,10.66217C391.216,10.66682 393.33334,10.66616 394.37799,10.66683C395.41068,10.6675 396.42932,10.66908 397.43201,10.67733C398.41669,10.68544 399.38144,10.6988 400.32401,10.72383C401.2428,10.74823 403.0004,10.82763 403.83484,10.88817C404.6391,10.94651 405.41104,11.01885 406.14932,11.10267C406.85471,11.18275 407.52466,11.27294 408.15784,11.37117C408.75534,11.46386 409.83417,11.66281 410.314,11.76667C410.75946,11.86309 411.17215,11.96356 411.556,12.06667C411.91745,12.16375 412.25787,12.26492 412.582,12.36667C412.8952,12.46498 413.50009,12.66637 413.79965,12.76667C414.09741,12.86637 414.39209,12.9636 414.67868,13.06667C415.48883,13.35802 416.48853,13.93315 417.19101,14.3095C417.98953,14.73731 417.52667,14.66667 416.48117,14.66667C415.9375,14.66667 415.01199,14.66667 413.97867,14.66667C413.24734,14.66667 412.5,14.66658 411.384,14.66667C410.32166,14.66675 409.65945,14.63187 408.74667,14.70267C407.66205,14.78679 406.92032,14.95773 406.10449,15.42833C405.25558,15.91803 404.71237,16.50656 404.10001,17.014C403.31555,17.66403 402.55496,18.21508 401.66666,18.5C400.89474,18.74759 401.83334,18.66667 402.50534,18.66667C403.24933,18.66667 404.89194,19.06335 404.93533,18.44517C404.99161,17.64331 403.34204,17.64216 402.53833,17.37117C401.66196,17.07567 401.01807,16.91875 399.97849,16.788C399.24539,16.6958 398.47833,16.67762 397.6955,16.614C396.49854,16.51673 395.69574,16.38972 394.87866,16.23067C394.02628,16.06474 393.13055,15.8593 392.16666,15.66667C391.12662,15.45882 390.57214,15.36234 389.39584,15.14583C388.77063,15.03076 388.11911,14.91153 387.44135,14.78133C385.99918,14.50431 385.23483,14.34806 384.444,14.17867C383.62778,14.00383 382.79199,13.80933 381.9375,13.60417L381.06799,13.384L380.18649,13.14783L379.29599,12.89467" id="svg_28" stroke-width="3" stroke="#000" fill="none"/>
  <path t="146776,146812,146813,146823,146836,146836,146847,146872,146872,146883,146898,146898,146908,146908,146908,146919,146919,146919,146919,146933,146933,146933,146934,146934,146934,146945,146945,146945,146945,146945,146945,146945,146957,146958,146958,146958,146958,146958,146958,146958,146958,146968,146969,146969,146969,146969,146969,146969,146969,146969,146981,146981,146981,146981,146981,146981,146982,146982,146982,146992,146992,146992,146992,146992,146992,146992,146992,146992,147005,147006,147006,147006,147006,147006,147006,147006,147006,147016,147016,147016,147016,147016,147016,147016,147016,147016,147030,147030,147030,147030,147030,147030,147030,147030,147030,147041,147042,147042,147042,147042,147042,147042,147042,147043,147053,147053,147053,147065,147065,147066,147066,147081,147081,147090,147090,147090,147090,147090,147102,147102,147103,147103,147103,147103,147103,147103,147103,147114,147114,147114,147114,147114,147114,147114,147114,147114,147126,147126,147126,147126,147127,147127,147127,147127,147127,147137,147137,147137,147137,147137,147137,147138,147138,147138,147150,147151,147151,147151,147151,147151,147151,147151,147151,147167,147167,147167,147167,147168,147168,147168,147168,147185,147198,147198,147198,147210,147211,147211,147211,147211,147211,147211,147211,147223,147223,147223,147223,147223,147223,147223,147223,147223,147234,147234,147234,147234,147234,147234,147234,147235,147235,147248,147248,147248,147248,147248,147248,147248,147248,147248,147258,147259,147259,147259,147259,147259,147259,147259,147259,147271,147271,147271,147271,147271,147272,147272,147272,147272,147285,147286,147286,147286,147287,147287,147287,147287,147288,147298,147299,147299,147300,147300,147300,147309,147357,147368,147368,147368,147368,147368,147368,147382,147382,147383,147383,147383,147384,147384,147384,147384,147393,147393,147394,147394,147394,147395,147395,147395,147395,147404,147405,147405,147405,147405,147405,147405,147405,147405,147426,147426,147426,147426,147426,147426,147426,147427,147427,147429,147429,147429,147429,147429,147430,147430,147430,147430,147442,147442,147442,147453,147453,147466,147467,147477,147477,147477,147489,147489,147489,147489,147489,147502,147503,147504,147504,147505,147505,147506,147514,147514,147514,147514,147514,147514,147515,147515,147515,147526,147527,147527,147527,147527,147527,147528,147528,147528,147536,147537,147537,147537,147537,147538,147549,147549,147550,147550,147550,147550,147562,147563,147563,147563,147574,147575,147585,147585,147598,147598,147599,147611,147623,147623,147623,147623,147634,147634,147634,147634,147635,147635,147635,147635,147647,147647,147647,147647,147648,147648,147648,147648,147648,147659,147660,147660,147660,147660,147661,147661,147661,147661,147671,147671,147671,147671,147671,147672,147672,147672,147672,147683,147684,147684,147685,147685,147685,147685,147685,147686,147699,147700,147700,147700,147701,147701,147702,147702,147702,147708,147709,147710,147710,147710,147712,147721,147721,147731,147732,147732,147733,147744,147745,147746,147746,147747,147747,147748,147748,147749,147757,147758,147758,147759,147759,147760,147761,147761,147761,147770,147771,147771,147771,147772,147772,147773,147773,147774,147783,147784,147784,147784,147785,147785,147786,147786,147786,147792,147793,147793,147794,147794,147795,147795,147796,147796,147805,147806,147806,147807,147807,147807,147808,147808,147809,147816,147816,147816,147817,147817,147817,147817,147817,147818,147828,147828,147829,147829,147829,147829,147829,147830,147830,147853,147853,147854,147854,147855,147855,147856,147856,147856,147864,147865,147865,147865,147865,147876,147877,147877,147877,147877,147878,147889,147889,147890,147890,147890,147890,147890,147902,147902,147903,147903,147904,147904,147905,147905,147917,147918,147918,147919,147919,147920,147920,147921,147921,147926,147927,147927,147928,147928,147929,147929,147930,147930,147938,147939,147940,147940,147941,147941,147942,147942,147949,147950,147950,147980,147980,147990,147990,148000,148001,148001,148001,148002,148011,148012,148012,148012,148012,148012,148013,148023,148023,148023,148023,148023,148024,148024,148024,148024,148034,148035,148035,148036,148036,148037,148038,148038,148039,148046,148046,148047,148047,148047,148047,148048,148048,148048,148059,148059,148060,148061,148061,148061,148061,148062,148062,148070,148071,148071,148071,148072,148072,148072,148072,148073,148083,148084,148084,148085,148086,148087,148087,148088,148088,148094,148094,148094,148094,148095,148095,148095,148095,148096,148156,148157,148157,148158,148158,148169,148170,148170,148179,148179,148180,148192,148192,148229,148251,148253,148265,148266,148267,148277,148278,148289,148289,148289,148302,148302,148303,148314,148315,148315,148325,148325,148336,148337,148337,148349,148423,148424,148446,148459,148459,148460,148472,148473,148474,148483,148483,148483,148484,148495,148496,148496,148496,148497,148508,148509,148510,148510,148511,148512,148512,148513,148514,148522,148523,148523,148524,148524,148524,148524,148525,148525,148534,148535,148536,148537,148537,148538,148539,148539,148540,148543,148543,148544,148544,148544,148544,148545,148545,148545,148556,148557,148558,148558,148559,148560,148560,148561,148562,148568,148569,148570,148570,148572,148572,148573,148574,148575,148580,148581,148582,148582,148583,148584,148584,148585,148585,148593,148594,148595,148596,148596,148596,148597,148597,148597,148603,148603,148603,148604,148604,148604,148605,148605,148605,148619,148620,148621,148622,148623,148623,148624,148624,148625,148630,148631,148632,148633,148633,148634,148635,148635,148636,148640,148641,148642,148642,148642,148643,148643,148643,148644,148652,148652,148653,148653,148653,148654,148654,148654,148655,148668,148670,148671,148672,148673,148673,148674,148675,148676,148681,148682,148683,148683,148684,148685,148688,148688,148688,148689,148701,148702,148702,148703,148712,148713,148714,148714,148724,148724,148725,148725,148725,148736,148736,148737,148737,148750,148751,148751,148752,148760,148760,148761,148761,148773,148774,148775,148775,148784,148785,148785,148797,148797,148798,148809,148809,148811,148829,148830,148830,148835,148836,148850,148850,148863,148872,148887,148907,148942,148955,148956,148978,148991,148992,149002,149040,149041,149101,149102,149125,149137,149148,149196,149222,149378,149389,149390,149403,149403,149404,149416,149417,149418,149426,149427,149427,149441,149442,149442,149443,149452,149452,149453,149463,149464,149465,149466,149475,149475,149476,149488,149489,149490,149499,149523,149524,149634,149635,149741,149741,149754,149754,149755,149767,149767,149767,149780,149780,149790,149791,149791,149806,149808,149809,149809,149826,149827,149827,149840,149841" d="M468.5,16.66667C467.10001,18.492 466.69962,19.1824 466.2045,19.9095C465.62103,20.76635 465.93582,21.62468 465.41467,22.38133C464.83594,23.22157 463.93958,23.3203 463.20001,23.96217C462.53333,24.54079 461.81912,24.65694 460.72934,24.952C459.9512,25.16268 459.39035,25.36925 458.19968,25.76683C457.59067,25.97019 456.62631,26.29805 455.92932,26.552C454.75397,26.98023 454.32962,27.15499 453.41733,27.492C452.93832,27.66894 451.93683,28.02357 451.41199,28.18267C449.78674,28.67531 449.21127,28.78664 448.62933,28.9185C447.41788,29.193 446.78076,29.32545 446.12399,29.4765C445.44205,29.63335 443.99881,29.9957 443.2355,30.2095C442.44275,30.43155 441.62814,30.67533 440.79199,30.928C439.93713,31.18631 439.06851,31.45369 438.18649,31.7185C437.29651,31.98571 435.50122,32.50455 434.60016,32.745C433.70251,32.98454 432.80554,33.2093 431.91068,33.42C431.02185,33.62928 430.13684,33.82413 429.25717,34.005C428.38617,34.18409 426.66721,34.50325 425.82132,34.64533C424.98456,34.78588 424.1528,34.91483 423.32535,35.04133C422.50012,35.16749 421.67441,35.29036 420.84732,35.41933C420.01575,35.54902 418.3327,35.82981 417.47849,35.98817C416.61398,36.14843 415.74237,36.32156 414.86401,36.50267C413.97867,36.68521 413.08908,36.87622 412.1955,37.07117C411.29843,37.26688 409.49988,37.66608 408.60016,37.86683C407.7012,38.06742 406.80396,38.26882 405.91068,38.47733C405.02029,38.68517 404.13495,38.89853 403.25717,39.12383C402.38428,39.34789 400.66492,39.82764 399.82184,40.08817C398.98624,40.34637 398.16446,40.61893 397.35733,40.90267C396.56079,41.18268 395.78101,41.47311 395.01883,41.77117C394.27039,42.06386 392.8316,42.66273 392.14349,42.96667C391.47296,43.26284 390.82547,43.56185 390.20401,43.86667C389.60187,44.16202 389.02606,44.46078 388.4805,44.76667C387.95547,45.06103 386.99506,45.65961 386.56482,45.96667C386.15381,46.26 385.77469,46.56002 385.42932,46.86667C385.09848,47.16041 384.79745,47.46079 384.52783,47.76667C384.26825,48.06114 383.60858,48.94923 383.31885,49.56667C382.90683,50.4447 382.64853,51.66448 382.58533,52.264C382.49481,53.12265 382.27264,53.92825 382.54266,55.016C382.70819,55.68275 383.63318,56.4562 384.29733,56.928C384.67932,57.19938 385.59607,57.73449 386.13199,57.984C387.31729,58.53586 388.00415,58.75592 388.728,58.97867C389.48682,59.21218 390.28839,59.41948 391.125,59.60417C391.98706,59.79448 392.87738,59.96288 393.79199,60.09467C395.66248,60.36418 396.62057,60.43175 397.58267,60.496C398.54764,60.56045 399.51453,60.59961 400.47916,60.625C401.43854,60.65025 402.39017,60.66015 403.33066,60.664C405.16666,60.67152 406.05716,60.66753 406.93066,60.66533C407.79016,60.66317 408.6387,60.65854 409.47916,60.64583C410.3147,60.63319 411.14838,60.61556 411.98267,60.58133C413.66721,60.51223 414.52188,60.45134 415.384,60.37733C416.25327,60.30272 417.12668,60.20845 418,60.08333C418.87613,59.95781 419.7518,59.8108 420.616,59.60933C422.34317,59.20669 423.18121,58.91286 424.008,58.616C424.82394,58.32302 425.612,58.00458 426.375,57.6875C427.11066,57.38179 427.80667,57.07457 428.47198,56.804C429.66144,56.32029 430.18958,56.14433 430.66934,56.00667C431.09863,55.88349 431.48727,55.7963 431.83334,55.72917C432.13806,55.67006 433.12787,55.97156 433.39584,55.125C433.6525,54.3142 432.62131,53.76493 431.80518,53.31933C430.71866,52.72611 430.19608,52.67182 429.10516,52.41483C428.50067,52.27243 427.85403,52.14647 427.17465,52.00533C426.46301,51.8575 425.71832,51.71543 424.16666,51.33333C423.35428,51.13328 422.526,50.89975 421.67667,50.65683C420.80597,50.40781 419.91714,50.14411 419.00665,49.88133C418.07718,49.61308 417.1315,49.33064 415.16666,48.83333C414.15939,48.57839 413.13007,48.34732 412.08566,48.11934C411.02875,47.88862 409.95831,47.66682 408.87866,47.44133C407.79095,47.21416 406.69458,46.99501 404.5,46.5C403.39911,46.25168 402.30362,45.98552 401.2135,45.7185C400.13162,45.4535 399.06293,45.18579 398.008,44.928C396.97189,44.67482 395.9599,44.41813 394,44C393.06628,43.8008 392.15637,43.63261 391.27151,43.472C390.40836,43.31533 389.56195,43.1697 388.73199,43.016C387.91296,42.86432 387.09793,42.72443 385.5,42.33333C384.69739,42.13689 383.90369,41.90405 383.11801,41.66133C382.34103,41.42131 381.5827,41.16857 380.84399,40.91734C380.12802,40.67384 379.44391,40.42708 378.16666,40C377.58762,39.80639 377.04617,39.63581 376.54218,39.4855C376.07678,39.34669 375.64651,39.22663 375.25067,39.124C374.89008,39.03051 374.56271,38.94809 374,38.83333C373.76505,38.78542 373.5563,38.7499 373.37149,38.72383C373.20825,38.70081 373.06256,38.68453 372.10001,38.66667C371.22705,38.65047 371.72137,37.98824 372.37,37.59517C372.77478,37.34986 373.77655,36.8273 374.37,36.55317C375.01633,36.2546 376.49722,35.65891 377.32901,35.3665C378.20914,35.05709 379.142,34.75895 380.116,34.456C381.12396,34.14249 382.16422,33.83136 383.22699,33.5095C384.30823,33.18204 386.50113,32.50346 387.59967,32.1455C388.69846,31.78746 389.79108,31.41881 390.87866,31.052C391.95844,30.68781 393.02704,30.32509 394.08566,29.9765C395.12839,29.63313 397.16531,28.99536 398.15649,28.70933C399.12402,28.43013 400.07251,28.17324 400.996,27.91733C401.89618,27.66788 402.77298,27.42358 403.61951,27.16133C404.44366,26.90602 406.00525,26.34555 406.73483,26.02417C407.44397,25.71179 408.11444,25.37315 408.74933,25.02667C409.358,24.69448 409.92578,24.35623 410.45782,24.02917C410.95636,23.72271 411.83258,23.16542 412.21384,22.931C412.55667,22.72021 412.86758,22.53489 413.14532,22.364C413.39651,22.20944 413.62415,22.06666 413.82483,21.923C414.01202,21.78901 414.3443,21.5096 414.47833,21.34533C415.00385,20.70125 415.41031,19.84467 415.48932,19.04133C415.5903,18.01445 415.48279,17.21465 415.05667,16.46667C414.68542,15.81499 414.0004,15.23322 413.16666,14.66667C412.54208,14.24224 411.8078,13.85017 410.97067,13.50267C410.05328,13.12183 409.00253,12.82312 408.43549,12.68817C407.23346,12.40209 406.59265,12.29904 405.9375,12.1875C405.26862,12.07362 404.58698,11.9677 402.5,11.66667C401.7998,11.56567 401.09756,11.46614 400.39099,11.37117C399.67892,11.27546 398.95874,11.18391 398.228,11.10267C397.48605,11.02018 396.73044,10.93635 395.16666,10.83333C394.35815,10.78007 393.53479,10.74848 392.70367,10.72383C391.87076,10.69914 391.04169,10.68556 390.22266,10.67733C389.41971,10.66927 388.63867,10.66733 387.16666,10.66667C385.84,10.66607 385.22415,10.66667 384.63333,10.66667C383.50665,10.66667 382.96085,10.66618 381.33334,10.66667C380.77917,10.66683 380.21976,10.65788 379.10666,10.688C378.56232,10.70273 377.5032,10.6768 376.16666,11C375.42529,11.17927 374.82898,11.5065 374.11801,12.0185C373.28192,12.62059 372.37772,13.02723 371.83334,13.83333C371.43121,14.42881 371.46487,15.66792 371.51068,16.456C371.55298,17.18394 371.89069,18.13445 372.83334,18.66667C373.49417,19.03976 374.1188,19.17567 374.83768,19.3095C376.15756,19.55521 376.68604,19.55813 377.84668,19.6095C378.48639,19.63782 379.16663,19.64799 379.88666,19.656C380.64664,19.66445 381.44666,19.66631 383.16666,19.66667C384.08649,19.66686 385.04535,19.66678 386.04218,19.65767C387.07602,19.64822 388.146,19.63036 389.25067,19.59467C390.38968,19.55786 391.56311,19.52065 394,19.33333C395.26471,19.23612 396.55048,19.1028 397.849,18.94333C399.15585,18.78285 400.46024,18.59462 401.75201,18.37333C403.02963,18.15448 404.28842,17.93871 406.66666,17.33333C407.79752,17.04547 408.87167,16.70965 409.89618,16.36133C410.88095,16.02652 411.81488,15.67267 412.70267,15.31733C413.55115,14.97773 414.35162,14.63384 415.83334,14C416.51334,13.70912 417.15561,13.43821 417.75784,13.1765C418.32492,12.93007 418.85712,12.69362 419.34933,12.452C419.81335,12.22423 420.25952,12.01534 421,11.5C421.34552,11.25954 421.64929,10.99067 421.91949,10.714C422.1785,10.44878 422.40363,10.17218 422.59601,9.892C422.77975,9.62439 422.94711,9.36029 423.16666,8.83333C423.26715,8.59215 423.33542,8.35341 423.38568,8.12383C423.43384,7.90387 423.57007,7.06457 423.48651,6.06667C423.43582,5.46139 422.8631,4.43328 422.40149,4.06667C421.84396,3.62388 421.06168,3.21758 419.5,2.66667C418.87744,2.44705 418.18842,2.26134 417.45251,2.07117C416.67514,1.87028 415.85538,1.68172 415,1.50267C414.11707,1.31785 413.20938,1.1356 411.33334,0.83333C410.37949,0.67965 409.41235,0.54788 408.43384,0.41933C407.44302,0.28917 406.4375,0.16668 405.41733,0.04133C404.38116,-0.08598 403.32678,-0.20819 401.16666,-0.5C400.05652,-0.64997 398.93048,-0.81618 397.79016,-0.986C396.63849,-1.1575 395.47934,-1.33446 394.31467,-1.508C393.14832,-1.68179 391.98425,-1.86119 389.66666,-2.16667C388.52209,-2.31753 387.38452,-2.45141 386.25266,-2.57167C385.12582,-2.69139 384.00043,-2.79671 382.87466,-2.88667C381.74774,-2.97672 380.61676,-3.06199 378.33334,-3.16667C377.17917,-3.21958 376.01743,-3.25151 374.85184,-3.27617C373.68539,-3.30084 372.52087,-3.31448 371.36133,-3.32267C370.20984,-3.3308 369.06934,-3.33267 366.83334,-3.33333C365.74384,-3.33366 364.67734,-3.33333 363.63684,-3.33333C362.62534,-3.33333 361.64584,-3.33333 360.70132,-3.33333C359.79483,-3.33333 358.92932,-3.33333 357.33334,-3.33333C356.60767,-3.33333 355.92801,-3.33333 355.29034,-3.33333C354.69067,-3.33333 354.125,-3.33333 353.58932,-3.33333C353.07968,-3.33333 352.59201,-3.33351 351.66666,-3.33333C351.22198,-3.33325 350.78931,-3.33362 350.37067,-3.32883C349.96796,-3.32423 349.58316,-3.31617 349.21866,-3.29733C348.87582,-3.27962 348.55338,-3.27161 348,-3.16667C347.76288,-3.1217 347.55496,-3.05747 347.38501,-2.97167C347.23495,-2.89591 347.11215,-2.80088 347.04001,-2.68667C346.97192,-2.57888 346.92453,-2.43926 347,-2.16667C347.04471,-2.00513 347.1441,-1.83735 347.285,-1.68517C347.78821,-1.14168 348.99344,-0.63257 349.75867,-0.50267C350.62363,-0.35583 351.104,-0.35197 352.12784,-0.28517C352.67459,-0.24949 354.44318,-0.11501 355.06934,-0.048C355.71021,0.02058 356.36172,0.09963 357.02084,0.1875C358.35266,0.36504 359.0177,0.46567 360.33334,0.66667C360.97934,0.76536 362.26047,0.9648 362.90668,1.056C363.56213,1.1485 364.23282,1.23537 364.92416,1.3095C365.6395,1.3862 367.16638,1.50521 367.98566,1.54517C368.83841,1.58676 369.7196,1.61263 370.62268,1.63067C371.5416,1.64902 372.47067,1.6575 373.40366,1.66217C374.33466,1.66683 376.16666,1.66667 377.05667,1.66667C377.92667,1.66667 378.77667,1.66667 379.60666,1.66667C380.41666,1.66667 381.20667,1.66667 381.97665,1.66667C382.72665,1.66667 384.16666,1.66667 384.85651,1.66667C385.52533,1.66667 386.17218,1.66667 386.79599,1.66667C387.39584,1.66667 388.5195,1.66667 389.04132,1.66667C390.43533,1.66667 391.224,1.66667 392.23199,1.66667C393.33334,1.66667 395.03482,2.67216 395.03482,1.66667C395.03482,0.98652 393.51367,1.66667 392.76233,1.66667C391.875,1.66667 390.86768,1.66667 390.32401,1.66667C389.16666,1.66667 387.92801,1.66667 387.28116,1.66667C386.61734,1.66667 385.9375,1.66667 385.24268,1.66667C383.81201,1.66667 382.33334,1.66667 381.57834,1.66667C380.81332,1.66667 380.03833,1.66667 379.25333,1.66667C378.45834,1.66667 377.65332,1.66667 376.83835,1.66667C376.01334,1.66667 374.33334,1.66667 373.47833,1.66667C372.61334,1.66667 371.73834,1.66667 370.85333,1.66667C369.95834,1.66667 369.05334,1.66667 368.13834,1.66667C367.21335,1.66667 365.33334,1.66667 364.37817,1.66667C363.41199,1.66667 362.43384,1.66667 361.44266,1.66667C360.4375,1.66667 359.41733,1.66667 358.38116,1.66667C357.328,1.66667 355.16666,1.66667 354.0575,1.66667C352.93332,1.66667 351.79916,1.66667 350.66,1.66667C349.52084,1.66667 348.38666,1.66667 347.26251,1.66667C346.15332,1.66667 344,1.66512 342.96484,1.66717C341.95868,1.66916 340.98035,1.67374 340.02933,1.69867C339.10397,1.72292 338.20309,1.76312 337.32782,1.83817C336.47363,1.91141 334.83032,2.15272 334.04367,2.33067C333.2728,2.50505 332.53021,2.71781 331.81467,2.94267C331.12289,3.16006 330.46536,3.39076 329.83768,3.60867C329.24402,3.81476 328.16895,4.17508 327.68616,4.30217C327.24463,4.41839 326.83429,4.50221 326.45468,4.55867C326.10507,4.61067 325.77887,4.63884 325.47516,4.65317C325.19083,4.66658 324.66666,4.66613 324.42249,4.66683C324.19333,4.6675 323.54721,4.1939 323.44751,4.72383C323.32498,5.37519 324.92874,5.27465 325.62268,5.468C326.67932,5.76241 327.33044,5.97357 328.21735,6.23067C329.35284,6.55983 331.03336,5.71728 331.02802,6.66667C331.02448,7.29501 329.68558,6.67839 328.73065,6.66533C327.97897,6.65506 327.16986,6.63742 326.18399,6.38267C325.2597,6.14382 324.33716,5.80106 323.54733,5.72383C322.72794,5.64372 321.66666,5.66667 320.95267,5.66667C320.04733,5.66667 319.07867,5.66667 318.27466,5.66667C317.45267,5.66667 316.42151,5.66667 315.52084,5.66667C314.5,5.66667 313.71066,5.66667 312.98532,5.66667C312,5.66667 310.15466,4.80265 310.15466,5.66667C310.15466,6.21333 311.66666,5.66667 312.34668,5.66667C313.18668,5.66667 314.18533,5.66667 315.02084,5.66667C315.90134,5.66667 316.80032,5.66667 317.72134,5.66667C318.37201,5.66667 319.07068,5.66667 320.2435,5.66667C321.12784,5.66667 322.10416,5.66667 322.62933,5.66667C323.75867,5.66667 325,5.66667 325.66501,5.66667C326.35999,5.66667 327.08499,5.66667 327.84,5.66667C328.625,5.66667 329.44,5.66667 330.285,5.66667C331.16,5.66667 333,5.66667 333.96399,5.66667C334.952,5.66667 335.95801,5.66667 336.97601,5.66667C338,5.66667 339.02399,5.66667 340.04199,5.66667C341.048,5.66667 343,5.66667 343.936,5.66667C344.84799,5.66667 345.742,5.66667 346.62399,5.66667C347.5,5.66667 348.37601,5.66667 349.258,5.66667C350.15201,5.66667 352,5.66667 352.96399,5.66667C353.952,5.66667 354.95801,5.66667 355.97601,5.66667C357,5.66667 358.02399,5.66667 359.04199,5.66667C360.048,5.66667 362,5.66667 362.93582,5.66667C363.84668,5.66667 364.73749,5.66667 365.61334,5.66667C366.47916,5.66667 367.34,5.66667 368.20084,5.66667C369.06668,5.66667 370.83334,5.66569 371.74316,5.667C372.672,5.66834 373.6189,5.67183 374.58267,5.688C375.56256,5.70444 376.55765,5.73204 377.56616,5.781C378.58835,5.83062 380.66751,5.99208 381.72134,6.1095C382.78491,6.22801 383.85321,6.37273 384.92532,6.528C386.00055,6.68372 387.07465,6.85219 388.14734,7.0185C389.21597,7.18419 391.33282,7.50371 392.37817,7.64517C393.4115,7.785 394.43359,7.91166 395.44266,8.03067C396.43726,8.14796 397.41727,8.25657 398.38116,8.36217C399.32794,8.46589 401.16678,8.66565 402.05701,8.76667C402.92944,8.86567 403.78577,8.96596 404.62799,9.06667C405.45844,9.16597 406.27869,9.2663 407.091,9.36667C407.89737,9.4663 409.49994,9.6671 410.29984,9.7665C411.0986,9.86576 411.89529,9.96392 412.68933,10.056C413.47894,10.14757 414.2637,10.23381 415.04285,10.3095C415.81436,10.38445 417.3331,10.50424 418.07834,10.54517C418.81311,10.58552 419.53824,10.61239 420.25333,10.63067C420.95828,10.64868 421.65332,10.65748 422.33835,10.66217C423.01334,10.66679 424.33334,10.66667 424.978,10.66667C425.61066,10.66667 426.22934,10.66667 426.832,10.66667C427.41666,10.66667 427.98132,10.66667 428.52399,10.66667C429.04266,10.66667 430,10.6672 430.43567,10.6665C430.84534,10.66584 431.23303,10.66436 431.60266,10.656C431.9584,10.64795 432.30423,10.63423 432.64368,10.6095C432.9816,10.58488 433.66724,10.50361 434.02151,10.44517C434.38599,10.38504 434.75763,10.31173 435.13599,10.23067C435.52133,10.1481 435.91092,10.05707 436.3045,9.96217C436.7016,9.86641 437.50003,9.66679 437.89984,9.56667C438.29871,9.46679 439.09012,9.26966 439.86401,9.06667C440.61542,8.86957 441.68185,8.57658 442.34732,8.36217C443.33023,8.04548 443.99011,7.79556 445.02133,7.34533C445.75714,7.02409 446.49753,6.66132 447.24734,6.31933C448.32983,5.8256 449.01172,5.54041 449.67465,5.30267C450.64673,4.95406 451.66461,4.65913 452.38535,4.468C453.13394,4.26948 453.90701,4.08199 454.70132,3.952C455.89514,3.75663 456.69653,3.72587 457.47916,3.64583C458.24402,3.56761 459.35675,3.39034 460.34283,2.95233C460.9968,2.66186 461.59824,2.26184 462.5,1.66667C463.40277,1.07084 464,0.66667 464.60001,0.26667C465.5,-0.33333 466.08731,-0.74891 466.97916,-1.29167C467.53598,-1.63054 468.56995,-2.13044 469.5,-2.3125C470.17889,-2.4454 471.18472,-2.61972 472.02084,-2.83333C472.60406,-2.98233 473.79807,-3.23549 474.70001,-3.29733C475.2991,-3.33841 476.5,-3.33333 477.39099,-3.33333C478.228,-3.33333 479.16666,-3.33333 479.97916,-3.33333C480.98401,-3.33333 481.70273,-3.09496 482.73834,-3.33783C483.50732,-3.51818 484.02063,-4.32511 484.89999,-4.33333C485.79996,-4.34174 486.55249,-4.03677 487.29999,-3.61733C488.05991,-3.19093 488.78793,-2.61583 489.20001,-1.9815C489.78314,-1.08383 490.68869,-0.79424 491.21466,-0.24933C491.88098,0.44096 491.5,1.46667 491.5,2.36667C491.5,3.26667 491.5,4.16667 491.5,5.06667C491.5,5.96667 491.73947,7.10894 491.05701,7.54517C490.39456,7.96859 489.29984,7.66667 488.47916,7.66667C487.81467,7.66667 486.81467,7.66667 485.97916,7.66667C485.09866,7.66667 483.89868,7.66667 483.28934,7.66667C482.34283,7.66667 481.33334,7.66667 480.61734,7.66667C479.88535,7.66667 478.80984,7.66667 477.83334,7.66667C477.00534,7.66667 476.24933,7.66667 475.16666,7.66667C474.19467,7.66667 473.5,7.66667 472.80533,7.66667C471.54285,7.66667 470.76132,7.66667 470.05182,7.66667C468.81732,7.66667 468.02084,7.66667 467.26935,7.66667C466.30984,7.66667 465.33334,7.66667 464.5,7.66667C463.52151,7.66667 462.11581,8.11756 462.06451,7.44533C462.00705,6.69229 463.69894,6.77936 464.52084,6.66667C465.18442,6.57568 466.18399,6.38267 467,6.16667C467.81601,5.95067 468.81393,5.71986 469.72534,5.67733C470.66568,5.63345 471.45715,5.66667 472.31067,5.66667C473.5,5.66667 474.10077,5.64556 475,5.6875C475.90134,5.72954 476.79984,5.888 477.68933,6.092L478.54285,6.314L479.57816,6.54533L480.24268,6.64133" id="svg_29" stroke-width="20" stroke="#fff" fill="none"/>
  <path t="150607,150639,150651,150651,150663,150663,150676,150677,150691,150691,150691,150698,150698,150699,150711,150724,150724,150724,150736,150736,150748,150748,150748,150760,150760,150774,150774,150774,150784,150784,150784,150797,150797,150797,150808,150809,150809,150824,150824,150824,150824,150833,150833,150833,150833,150843,150843,150843,150843,150848,150848,150848,150856,150868,150868,150881,150881,150881,150881,150893,150893,150893,150893,150908,150908,150908,150918,150918,150918,150918,150919,150930,150930,150930,150940,150940,150940,150954,150955,150955,150965,150966,150966,150977,150977,150991,150992,151001,151014,151028,151041,151041,151051,151051,151063,151075,151091,151098,151125,151125,151125,151137,151137,151148,151149,151160,151174,151174,151195,151195,151245,151282" d="M446.5,2.66667C445.61334,2.66667 444.664,2.66667 443.89868,2.66667C442.89999,2.66667 442.10001,2.66667 441.09866,2.66667C440.26401,2.66667 439.33334,2.66667 438.54733,2.66667C437.72534,2.66667 436.66666,2.66667 435.74667,2.66667C434.98666,2.66667 433.97916,2.66667 432.95715,2.66667C432.23868,2.66667 431.44818,2.66667 430.42151,2.66667C429.52084,2.66667 428.5,2.66667 427.70001,2.66667C426.89999,2.66667 425.89297,2.63795 425.26401,2.70267C424.07056,2.82547 423.54028,3.00204 422.72534,3.27733C421.65668,3.63834 420.97296,4.02056 420.04733,4.3095C419.09567,4.60657 418.27155,4.61365 417.45267,4.71933C416.41608,4.85311 415.72446,5.12699 414.99017,5.314C413.86957,5.59939 413.19009,5.6131 412.47916,5.66667C411.38257,5.74929 410.31934,5.87823 409.65268,6.01933C408.67151,6.227 408.0209,6.41784 406.97867,6.54517C406.24994,6.63419 405.50012,6.65488 404.384,6.66533C403.32202,6.67528 402.67065,6.66667 401.81866,6.66667C400.66251,6.66667 399.77667,6.66661 398.97665,6.66667C397.85718,6.66675 397.18988,6.66168 396.47916,6.6875C395.74774,6.71407 394.31787,6.8715 393.65717,7.02383C393.01694,7.17144 392.10156,7.46874 391.19983,7.76667C390.28958,8.06741 389.66797,8.28007 388.33334,8.66667C387.61804,8.87387 386.87439,9.06566 386.12534,9.26667C385.38373,9.46567 384.31812,9.75536 383.34668,10.06667C382.74438,10.25968 381.66382,10.65997 380.95267,10.96667C380.27188,11.26028 379.33551,11.67244 378.54733,11.96667C377.72757,12.27269 376.66138,12.65449 375.95715,12.96667C375.3056,13.25549 374.31119,13.79002 373.52084,14.14583C372.67764,14.52544 371.89172,14.65571 371.10001,15.092C370.27866,15.54461 369.39999,15.66667 368.5,15.66667C367.74283,15.66667 366.84732,15.66667 365.98401,15.66667C365.02084,15.66667 364.10001,15.66667 363.20001,15.66667C362.29868,15.66667 361.33334,15.66667 360.664,15.66667C359.89868,15.66667 358.89999,15.66667 358.10001,15.66667C357.10132,15.66667 356.15717,15.66667 355.25266,15.66667C354.33334,15.66667 353.5,15.66667 352.52151,15.66667L351.70132,15.66667L350.79999,15.66667L349.89999,15.66667" id="svg_30" stroke-width="20" stroke="#fff" fill="none"/>
  <path t="151669,151800,151800,151801,151814,151814,151814,151814,151828,151828,151828,151828,151828,151837,151837,151837,151837,151850,151850,151850,151863,151888,151913" d="M363.5,6.66667C361.48566,7.02833 360.67126,7.2961 360.09732,7.55333C359.18726,7.96121 358.289,8.50209 357.664,8.87733C357.01431,9.2674 355.98392,9.8768 355.24283,10.26217C354.48459,10.65645 353.69879,11.01734 353.29868,11.18133C352.10971,11.66865 351.31003,11.9129 350.54166,12.14583C349.47211,12.47007 348.52878,12.73254 347.78265,13.06667C346.9707,13.43027 346.13599,14.056 345.40018,14.54533L344.62167,14.88817" id="svg_31" stroke-width="20" stroke="#fff" fill="none"/>
  <path t="157631,157701,157701,157713,157725,157736,157749,157760,157760,157776,157776,157784,157784,157797,157797,157810,157825,157825,157846,157857,157857,157871,157881,157895,157907,157929,157942,157978,158003,158003,158016,158039,158050,158063,158077,158088,158099,158111,158111,158124,158124,158136,158136,158148,158161,158176,158186,158187,158196,158219,158220,158233,158234,158244,158244,158464,158465,158475,158475,158489,158489,158500,158500,158512,158513,158513,158524,158524,158535,158536,158536,158548,158549,158560,158572,158584,158584,158596,158597,158612,158613,158622,158632,158632,158645,158645,158658,158669,158887,158898,158912,158912,158923,158923,158936,158936,158936,158948,158948,158948,158963,158963,158972,158987,158995,159021,159033,159056,159057,159068,159082,159096,159097,159335,159346,159360,159370,159371,159383,159383,159383,159394,159395,159395,159407,159407,159419,159420,159663,159663,159663,159675,159675,159686,159686,159686,159698,159698,159712,159712,159722,159723,159723,159735,159735,159746,159760,159761,159761,159988,159988,159988,160000,160001,160001,160012,160012,160012,160025,160025,160025,160025,160037,160037,160037,160049,160049,160062,160062,160062,160075,160076,160076,160086,160086,160098,160098,160099,160111,160111,160111,160366,160377,160388,160388,160388,160401,160401,160401,160413,160413,160426,160426,160426,160437,160437,160437,160450,160450,160462,160463,160474,160475,160729,160729,160739,160739,160752,160752,160764,160765,160765,160775,160776,160776,160789,160789,160789,160789,160801,160801,160801,160801,160801,160816,160817,160817,160818,160818,160818,160826,160827,160827,160827,160827,160828,161078,161078,161078,161079,161091,161091,161091,161103,161103,161103,161115,161116,161116,161117,161117,161129,161129,161130,161130,161130,161130,161139,161139,161139,161139,161139,161140,161140,161151,161152,161152,161152,161152,161152,161152,161153,161164,161165,161165,161165,161165,161165,161165,161165,161176,161176,161176,161176,161176,161176,161176,161177,161177,161190,161190,161191,161191,161191,161191,161192,161192,161192,161201,161201,161201,161201,161201,161201,161202,161481,161481,161482,161482,161491,161492,161492,161492,161492,161512,161513,161513,161513,161517,161518,161518,161518,161531,161531,161531,161532,161543,161543,161544,161551,161551,161551,161551,161564,161565,161565,161575,161576,161586,161587,161880,161881,161903,161914,161952,161953,161965,161965,161987,162001,162012,162230,162243,162244,162267,162268,162268,162280,162281,162303,162303,162314,162338,162338,162351,162351,162387,162595,162617,162714" d="M176.5,2.66667C177.5,2.66667 178.3,2.66667 179.2,2.66667C180.10001,2.66667 181,2.66667 181.91066,2.66667C182.82133,2.66667 183.67467,2.66667 184.616,2.66667C185.384,2.66667 186.336,2.66667 187.10133,2.66667C188.0955,2.66667 188.84283,2.66667 189.87466,2.66667C190.82133,2.66667 191.67467,2.66667 192.61467,2.66667C193.5,2.66667 194.3,2.66667 195.2,2.66667C196.10001,2.66667 197,2.66667 197.89999,2.66667C198.8,2.66667 199.7,2.66667 200.60001,2.66667C201.5,2.66667 202.3,2.66667 203.2,2.66667C204.10001,2.66667 205,2.66667 205.89999,2.66667C206.8,2.66667 207.7,2.66667 208.60001,2.66667C209.5,2.66667 210.25717,2.66667 211.15717,2.66667C212.10133,2.66667 213.0955,2.66667 213.84283,2.66667C214.864,2.66667 215.7,2.66667 216.60001,2.66667C217.5,2.66667 218.3,2.66667 219.25717,2.66667C220.15717,2.66667 220.90474,2.68755 221.89999,2.66533C222.70055,2.64746 223.72348,2.50065 224.47917,2.14583C225.36569,1.72959 225.94827,1.05611 226.8215,0.78817C227.49695,0.58091 228.5,0.66667 229.47917,0.66667C230.33333,0.66667 231.16133,0.66667 232.04283,0.66667C233.02083,0.66667 233.81734,0.66667 234.81467,0.66667C235.68933,0.66667 236.50107,0.63479 237.3,0.67733C238.10234,0.72006 239.08501,1.04751 239.84283,1.314C240.85143,1.66867 241.82356,1.59084 242.66667,1.83333C243.34673,2.02894 244.32243,2.57264 245.12534,2.656C245.97946,2.74468 246.84734,2.66667 247.74733,2.66667C248.66667,2.66667 249.5,2.66667 250.4785,2.66667C251.29866,2.66667 252.20006,2.65601 253.10001,2.66667C253.97935,2.67708 254.55435,3.35978 255.35333,3.58267C256.233,3.82807 257.16666,3.83333 258,4.16667C258.83334,4.5 259.76425,4.61589 260.55182,4.71933C261.5834,4.85482 262.24979,5.13666 263.09866,5.38267C264.07733,5.66629 264.73672,5.7881 265.54816,6.314C266.17163,6.71808 267.20001,6.66667 268.10001,6.66667C268.91068,6.66667 269.82132,6.66667 270.67465,6.66667C271.61465,6.66667 272.60001,6.66667 273.5,6.66667C274.29999,6.66667 275.20001,6.66667 276.10001,6.66667C276.91068,6.66667 277.82166,6.66667 278.54166,6.66667C279.66666,6.66667 280.45267,6.66667 281.27466,6.66667C282.33334,6.66667 283.04285,6.66667 283.89551,6.66667C284.89999,6.66667 285.70001,6.66667 286.70001,6.66667C287.5,6.66667 288.5,6.66667 289.29999,6.66667C290.10001,6.66667 291.10449,6.66659 291.95715,6.66667C292.92133,6.66675 293.72876,6.63574 294.54733,6.72383C295.58533,6.83554 296.43771,7.22695 297.33334,7.5C298.14636,7.74787 299.04254,7.88903 299.76132,8.092C300.55151,8.31513 301.59125,8.4742 302.4375,8.66667C303.35388,8.87508 303.99356,9.54843 304.79733,9.63067C305.55304,9.70798 306.57867,9.66667 307.5,9.66667C308.18399,9.66667 309.18533,9.66667 310.02084,9.66667C310.90134,9.66667 311.79999,9.66667 312.70001,9.66667C313.60001,9.66667 314.5,9.66667 315.39999,9.66667C316.29999,9.66667 316.89999,9.66667 318.09866,9.66667C318.97916,9.66667 319.81467,9.66667 320.81601,9.66667C321.72534,9.66667 322.66666,9.66667 323.45267,9.66667C324.27466,9.66667 325.33334,9.66667 326.04285,9.66667C326.89551,9.66667 327.90134,9.66667 328.73599,9.66667C329.66666,9.66667 330.45267,9.66667 331.27466,9.66667C332.33334,9.66667 333.25333,9.66667 334.01334,9.66667C335.08932,9.66667 335.92133,9.67185 336.83334,9.66667C337.77203,9.66133 338.32889,9.68672 339.5,9.5C340.39883,9.35669 341.21671,9.04683 342.16666,8.83333C342.99207,8.64783 343.83334,8.66667 344.76132,8.66667C345.55182,8.66667 346.57849,8.66667 347.26401,8.66667C348.09866,8.66667 349.10001,8.66667 349.89999,8.66667C350.89999,8.66667 351.70001,8.66667 352.70001,8.66667C353.5,8.66667 354.5,8.66667 355.28934,8.66667C356.33334,8.66667 357.12558,8.68563 357.98666,8.66533C358.74725,8.64741 359.9231,8.45214 360.72534,8.24133C361.27591,8.09666 362.32831,7.78896 363.28534,7.70267C364.00757,7.63754 365.14301,7.66667 365.81433,7.66667C366.54166,7.66667 367.30899,7.66568 368.5,7.66667C369.30267,7.66733 370.12173,7.66667 370.97198,7.70267C371.87122,7.74073 372.83478,7.82165 373.86932,7.95333C374.41064,8.02223 375.52219,8.20128 376.08533,8.31333C377.22025,8.53916 378.33551,8.82585 378.87817,8.988C379.93829,9.30478 380.44522,9.48496 381.41733,9.84133C382.33044,10.17607 383.15811,10.52467 384.28116,10.9005C384.93286,11.11859 385.82126,11.43061 386.81601,11.29467C387.5195,11.19853 388.19067,10.78975 389.18668,10.18133C389.75052,9.8369 390.33643,9.43861 391.66666,8.66667C392.01901,8.46219 392.75418,8.05561 393.54166,7.6875C394.35428,7.30763 395.66394,6.82451 396.12167,6.68833C397.05649,6.41022 398.04013,6.19991 398.54666,6.11333C399.58386,5.93604 400.66577,5.82014 401.78665,5.752C402.3613,5.71707 402.94653,5.69602 404.14667,5.67733C404.76163,5.66776 405.38666,5.66669 406.66666,5.66667C407.98666,5.66665 408.66168,5.66924 409.34668,5.67733C410.04169,5.68555 410.74677,5.69937 411.46167,5.72383C412.1868,5.74865 413.66718,5.82647 414.42151,5.88833C415.95837,6.01437 416.73657,6.10874 417.52084,6.20833C418.31128,6.30871 419.10562,6.42125 419.90134,6.55333C421.50244,6.81911 422.30072,6.98533 423.10132,7.15067C423.90506,7.31665 424.71054,7.49251 425.52084,7.66667C426.33588,7.84185 427.15598,8.01996 427.98532,8.18267C429.66434,8.51207 430.52008,8.64989 431.38,8.78C432.23843,8.90989 433.09283,9.02408 433.9375,9.125C434.7662,9.22401 435.57532,9.31053 436.35999,9.38C437.83246,9.51038 438.51349,9.54832 439.15601,9.58133C439.76218,9.61248 440.33456,9.6338 440.875,9.64583C441.86755,9.66793 443.16669,9.67104 443.93066,9.66533C444.6387,9.66005 445.65195,9.64023 446.66666,9.5C447.38733,9.4004 448.13495,9.23912 448.87466,8.984C449.62698,8.72454 450.686,8.13465 451.34732,7.66583C452.00748,7.19785 452.60654,6.63649 453.66666,6.16667C454.35938,5.85966 455.12268,5.73445 456.24734,5.68017C457.33215,5.62781 458.01468,5.66667 458.97916,5.66667C459.59549,5.66667 460.80017,5.66667 461.71066,5.66667C462.336,5.66667 463.66666,5.66667 464.38266,5.66667C465.11465,5.66667 465.83865,5.66667 467.16666,5.66667C467.98566,5.66667 468.67868,5.66667 469.70001,5.66667C470.5,5.66667 471.5,5.66667 472.28934,5.66667C473.33334,5.66667 474.10855,5.50025 475,5.6875C475.85165,5.86639 476.65833,6.5531 477.32535,6.63067C478.32724,6.74717 479.1955,6.66667 480.10001,6.66667C481,6.66667 481.89999,6.66667 482.8045,6.66667C483.66666,6.66667 484.52084,6.66667 485.5,6.66667C486.29999,6.66667 487.10001,6.66667 488.10001,6.66667C488.89999,6.66667 489.89868,6.66667 490.664,6.66667C491.74734,6.66667 492.66666,6.66667 493.32535,6.66667C494.33334,6.66667 495.1955,6.66667 496.10001,6.66667L497,6.66667L497.89999,6.66667L498.79999,6.66667" id="svg_32" stroke-width="3" stroke="#000" fill="none"/>
  <path t="171437,171708,171764,172066,172502,172503,172598" d="M291.5,137.66667C291.5,138.66667 291.50134,139.58133 292.33334,139.83333L292.5,140.66667L292.5,141.46666L292.5,142.36667" id="svg_33" stroke-width="3" stroke="#000" fill="none"/>
  <path t="177542,177723,177723,177759,177817,177916,178001,178013,178086,178110,178147" d="M286.5,148.66667C286.5,149.66667 286.5,150.46666 286.5,151.36667C286.5,152.30949 285.95493,152.91983 285.62149,153.76666C285.28879,154.61169 285.27866,155.54533 284.58533,155.952L284.49866,156.86534" id="svg_34" stroke-width="3" stroke="#000" fill="none"/>
  <path t="180896,181321,181321,181346,181418,181552,181587,181695,181854,182215" d="M290.5,147.66667C289.5,148.66667 289.5,149.46666 289.5,150.36667C289.5,151.26666 289.5,152.16667 289.5,153.06667L289.5,153.96666L289.5,154.86667L289.5,155.76666" id="svg_35" stroke-width="3" stroke="#000" fill="none"/>
  <path t="188036,188408,188431,188503,188831" d="M291.5,138.66667C291.5,137.66667 291.5,136.86534 291.41467,135.952L290.62149,135.44516" id="svg_36" stroke-width="3" stroke="#000" fill="none"/>
  <path t="202765,203147,203184,203257,203291,203353,203401,203559,203656,203668,203717,203896,204031,204032,204102,204335,204517" d="M312.5,129.66667C312.41467,130.468 311.8291,131.13258 311.11066,131.64133C310.45462,132.10588 310.74774,133.10291 310.49551,133.96217C310.26889,134.73425 309.09659,134.94717 308.66666,135.66667C308.2063,136.43712 307.72794,137.02167 307.2785,137.76649C306.90305,138.38873 305.85718,138.71933 305.41599,139.38266L304.69867,139.66533" id="svg_37" stroke-width="3" stroke="#000" fill="none"/>
  <path t="208502,208900,208911,208960,209035,209167,209360,209384,209798,209834,209905,209967,210075,210197,210232,210268,210378,210428,210573,210633,210644,210668,210680,210899,210911,210937,210984,211240" d="M283.5,120.66666C283.784,121.58266 284.43643,122.02879 285,122.66666C285.5155,123.25015 286.35425,123.71063 286.49866,124.468C286.66699,125.35076 286.51062,126.51997 285.69867,126.66534C284.79584,126.82697 284.05386,126.11909 283.58533,125.38133C283.14636,124.69016 283.66281,124.18958 284.216,124.75066C284.8772,125.42126 285.65784,126.03715 285.49866,126.86533C285.34296,127.67537 284.01962,127.99253 283.55716,127.3095C283.02994,126.53085 283.08533,125.71333 283.12134,126.24133L283.89999,126.63067L284.88934,126.67733L285.45834,127.16666" id="svg_38" stroke-width="3" stroke="#000" fill="none"/>
  <path t="211990,212195,212244,212292,212292,212330,212438,212570,212644,212788,212910,212934,213164,213188,213530,213552,213746,213770,214171,214205" d="M284.5,123.66666C284.78534,122.752 285.67184,122.44363 286.5,122.83334C287.25836,123.1902 287.655,124.10022 288.14734,124.71933C288.66208,125.36662 288.31201,126.15481 287.66666,126.83334C287.06436,127.46661 286.39999,127.66666 285.5,127.66666C285.04166,127.66666 286.49969,127.44507 286.45334,128.24133C286.41309,128.93311 286.5,129.16667 287.14734,129.605L287.49866,128.86534" id="svg_39" stroke-width="3" stroke="#000" fill="none"/>
  <polyline timestamps="214595,215029" startTime="1502032903045" id="svg_40" points="287.5,124.6666669845581 287.5,126.46666698455809 " stroke-linecap="round" stroke-width="3" stroke="#000" fill="none"/>
 </g>
</svg>