<svg width="500" height="333.3333333333333" xmlns="http://www.w3.org/2000/svg" xmlns:svg="http://www.w3.org/2000/svg" xmlns:xlink="http://www.w3.org/1999/xlink">
 <!-- Created with SVG-edit - http://svg-edit.googlecode.com/ -->
 <g display="inline" class="layer">
  <title>Layer 1</title>
  <path t="0,210,228,228,246,246,265,284,284,302,320,320,337,354,354,371,388,405,424,424,442,458,476,476,476,495,512,512,528,546,546,581,601,601,621,622,637,649,649,666,666,684,684,701,719,719,736,753,754,770,770,787,804,804,804,823,823,823,840,858,858,874,892,917,935,954,971,988,1006,1006,1023,1040,1057,1098,1126,1146,1163,1178,1178,1196,1214,1214,1229,1229,1245,1264,1265,1284,1284,1303,1303,1319,1319,1337,1337,1354,1371,1371,1387,1387,1387,1404,1404,1421,1437,1437,1454,1473,1473,1491,1491,1506,1506,1524,1543,1543,1558,1558,1577,1594,1595,1609,1609,1628,1628,1646,1646,1664,1664,1679,1698,1698,1717,1717,1733,1733,1733,1754,1754,1770,1783,1783,1804,1804,1821,1821,1838,1838,1854,1854,1871,1871,1887,1887,1903,1920,1920,1937,1938,1954,1955,1971,1999,2006,2006,2030,2062,2063,2078,2083,2105,2134,2170,2212,2234,2251,2273,2319,2319,2400,2433,2457,2593" d="M211.5,169.81667C209.66667,169.98334 209.37439,170.84935 208.88933,171.41667C208.25089,172.16338 207.7,172.61667 207,173.31667C206.3,174.01666 205.80002,174.51666 205.10001,175.21667C204.39999,175.91669 203.89999,176.41667 203.2,177.11667C202.5,177.81667 201.97769,178.25984 201.2045,178.76401C200.50363,179.22101 200.16484,180.13753 199.5,180.81667C199.01553,181.31154 197.99942,181.67766 197.51466,182.26334C196.88535,183.0237 196.59187,183.59746 196.06799,184.33267C195.49475,185.13715 195.23656,186.03621 194.69867,186.61667C194.02644,187.3421 193.17911,187.91698 192.78534,188.53134C192.30948,189.27379 192.25095,190.31895 191.88933,190.99133C191.44362,191.82005 190.85716,192.51218 190.5,193.31667C190.14284,194.12117 189.6788,194.68945 189.2,195.46933C188.67799,196.31955 188.10023,197.00648 187.78534,197.70067C187.38191,198.59003 187.33984,199.65341 187,200.29584C186.56104,201.12566 186.38264,202.00607 185.97917,202.81667C185.55083,203.67723 184.90688,204.24089 184.55267,205.12117C184.22058,205.9465 184.01682,206.64549 183.784,207.50334C183.51799,208.48349 183.51518,209.29572 183.50133,210.04733C183.48109,211.14455 183.11392,211.95502 182.784,212.61667C182.36345,213.46002 182.5,214.41667 182.5,215.31667C182.5,216.21667 182.5,217.11667 182.5,218.01666C182.5,218.91667 182.5,219.81667 182.5,220.61667C182.5,221.51666 182.5,222.41667 182.5,223.31667C182.5,224.21667 182.30295,225.13884 182.50133,226.01534C182.68431,226.82382 183.71715,227.08272 184.3,227.618C184.92986,228.19644 185.6447,228.85651 186.32533,229.20601C187.30516,229.70914 188.08929,229.81133 189.02083,229.81667C189.98532,229.82219 190.71066,229.81667 191.7,229.81667C192.5,229.81667 193.5,229.81667 194.28934,229.81667C195.33333,229.81667 196.12534,229.81667 196.98399,229.81667C197.84734,229.81667 198.74733,229.81667 199.66667,229.81667C200.52083,229.81667 201.5,229.81667 202.3,229.81667C203.10001,229.81667 204.09552,229.82057 204.84283,229.81667C205.86404,229.81133 206.71954,229.55324 207.3,229.01534C208.02542,228.34311 208.67004,227.57951 209.25717,227.11667C209.94998,226.57051 210.70119,226.25641 211.61467,225.618C212.21399,225.19914 213.0453,224.88907 213.98399,224.53134C214.6974,224.25946 215.50211,223.7442 216.08934,223.21667C216.83141,222.55005 217.50072,221.81738 218,221.31667C218.69968,220.61499 219.22221,220.02158 219.416,219.04868C219.55994,218.32605 219.56364,217.09798 219.936,216.48866C220.46696,215.6198 221.10001,215.21667 221.8,214.51666C222.5,213.81667 223.10303,213.34645 223.37866,212.49516C223.65627,211.63782 223.69003,210.60417 224.02083,209.81667C224.27733,209.20602 224.83723,208.2392 225.14284,207.47383C225.49673,206.58751 225.66325,205.64865 225.92534,204.99133C226.32808,203.98123 226.42325,203.29108 226.78534,202.33267C227.05516,201.61848 227.67851,200.88777 228.064,200.19133C228.51401,199.37831 228.48975,198.3954 228.784,197.418C228.96254,196.82492 229.26729,195.80191 229.584,195.01801C229.89619,194.24527 230.44797,193.33398 230.48933,192.606C230.54546,191.61838 230.35555,190.78954 230.72133,189.83817C231.02063,189.05971 231.34781,188.30237 231.51067,187.41667C231.66379,186.58397 232.32178,185.95303 232.464,184.99133C232.61157,183.99355 232.49454,183.22733 232.5,182.31667C232.50534,181.42729 233.22589,180.94286 233.48933,180.20601C233.8103,179.30826 233.5,178.38068 233.5,177.51666C233.5,176.61667 233.5,175.71667 233.5,174.81667C233.5,174.01666 233.5,172.98334 233.5,172.20601L233.5,171.25267L233.5,170.38068" id="svg_1" stroke-width="3" stroke="#000" fill="none"/>
  <path t="4167,4393,4393,4410,4433,4450,4471,4514,4535,4554,4571,4587,4587,4604,4622,4638,4654,4693,4707,4725,4754,4810,4835,4858,4893,4922,4968,5028,5053,5069,5088,5107,5108,5145,5161,5178,5197,5197,5214,5214,5231,5231,5253,5253,5268,5288,5338,5474,5501,5526,5567,5620,5724,5751,5773,5821,5878,5903,5918,5938,5954,5974,5992,6013,6030,6048,6068,6087,6112" d="M208.5,163.81667C209.5,162.81667 210.3,162.81667 211.2,162.81667C212.10001,162.81667 212.90073,162.9278 213.52533,163.39134C214.25858,163.93552 215.20436,163.9082 215.47467,164.66734C215.78981,165.55241 216.46031,166.04698 217.2,166.464C217.94502,166.88405 218.50089,167.60745 219.30133,167.81534C220.11778,168.02737 220.66667,168.65001 221.5,168.81667C222.33333,168.98334 222.78091,169.77396 223.66667,169.81667C224.59875,169.86162 225.44733,169.81667 226.30133,169.81667C227.2,169.81667 228.03777,169.79137 228.52083,169.31667C229.1167,168.73111 229.56815,168.0639 230.38667,167.73267C231.13521,167.42976 231.9164,167.08876 232.51067,166.39134C233.00906,165.80644 233.74043,165.32458 234.66667,164.98334C235.46411,164.68954 236.35695,164.68974 237.12534,164.20601C237.84534,163.75273 238.52617,163.35789 239.33333,162.81667C240.11671,162.29137 240.87457,161.82434 241.5,161.31667C242.13293,160.80289 243.02083,160.81667 243.89999,160.81667C244.7955,160.81667 245.32384,161.23239 245.85266,161.75951C246.37135,162.27652 246.5,163.01666 246.5,163.9165C246.5,164.81667 246.56673,165.69856 246.4955,166.522C246.41148,167.49329 245.95505,168.26695 245.21466,168.73134C244.43756,169.21875 243.44733,168.81667 242.69867,168.81667C241.8,168.81667 240.89999,168.85268 240.10001,169.242L239.3,169.73134L238.39999,169.81683" id="svg_2" stroke-width="3" stroke="#000" fill="none"/>
  <path t="7098,7404,7475,7525,7571,7613,7637,7677,7694,7719,7788,7830,7908,7925,7960,7992,7993,8014,8031,8049,8068,8088,8104,8104,8122,8137,8154,8177,8178,8202,8218,8238,8255,8271,8305,8322,8343,8378,8430,8449,8502,8544,8580,8601,8619,8640,8658,8676,8693,8715,8738,8754,8772,8794,8842,8858,8859,8875,8897,8913,8913,8932,8966,8986,9006,9021,9038,9062,9092,9093,9122,9145,9164,9182,9214,9254,9270,9288,9288,9304,9322,9340,9363,9383,9402,9427,9462,9486,9525,9542,9634,9653,9672,9688,9688,9704,9705,9720,9738,9738,9754,9754,9773,9790,9808,9826,9842,9842,9860,9877,9877,9925,9949,10037,10062,10086,10102,10129,10147,10165,10189,10239,10256,10276,10291,10311,10328,10346,10346,10363,10363,10378,10394,10413,10413,10413,10431,10431,10447,10448,10482,10504,10504,10522,10544,10564,10584,10585,10602,10624,10664,10703,10768,10803,10968,10987,10987,11005,11006,11006" d="M211.5,164.81667C209.8,164.81667 209.02597,164.61348 208.33333,163.98334C207.7336,163.43773 207.5,162.71667 207.5,161.81667C207.5,160.90067 207.5,160.11217 207.5,159.17384C207.5,158.29584 207.49924,157.42734 207.5,156.4595C207.50067,155.618 207.92386,155.00275 208.7,154.53134C209.37637,154.12051 210.00577,153.34717 210.7955,152.86934C211.45222,152.47198 212.0508,151.87654 212.8,151.464C213.6387,151.0022 214.27954,150.69762 215.10001,150.242C215.88196,149.80779 216.60721,149.36371 217.5,148.98334C218.25154,148.66315 219.29689,149.17984 220.064,148.78067C220.82338,148.38553 221.43182,148.20972 222.21466,147.73134C223.01788,147.24051 223.37581,146.50114 223.92534,145.842C224.45264,145.20952 224.5544,144.42963 225.07466,143.79134C225.59938,143.14757 225.95757,142.27304 226.72133,141.8165C227.41405,141.40242 228.16348,141.00673 228.47917,140.29584C228.86847,139.41916 229.27478,138.88007 229.4955,138.11217C229.74287,137.25151 229.19011,136.25694 229.51067,135.42734C229.81705,134.63441 230.7422,134.37781 231.33333,133.65001C231.89919,132.95332 232.08653,132.22218 232.5,131.31667C232.86314,130.52136 233.37729,129.82451 233.49867,129.01666C233.63518,128.10811 234.24658,127.49904 234.784,126.90067C235.35742,126.26221 236.05077,125.87648 236.8,125.464C237.63866,125.0023 238.53825,124.99022 239.3,124.73134C240.18791,124.42958 240.88025,123.83127 241.5,123.31667C242.10204,122.81676 242.97917,122.81915 243.936,122.81667C244.80002,122.81441 245.64799,122.44927 246.3,122.10067C247.14738,121.64761 247.92635,121.15381 248.7,120.902C249.55965,120.6222 250.65379,121.13903 251.37866,120.59534C252.02168,120.11303 252.69867,119.81667 253.584,119.81667C254.5,119.81667 255.43144,119.70078 255.78267,118.902C255.79449,118.87511 254.95636,119.29539 254.30133,120.01801C253.82347,120.54516 253.6472,121.48972 253.416,122.33267C253.1716,123.22379 252.60298,123.97467 252.52083,124.81667C252.42578,125.79076 252.69629,126.64982 252.44284,127.51667C252.18623,128.39432 251.52859,129.11514 251.5,129.91667C251.46791,130.81609 251.5,131.61667 251.5,132.57384C251.5,133.46484 251.5,134.24733 251.5,135.25267C251.5,136.20601 251.36443,137.1134 251.50017,137.9165C251.64418,138.76852 252.30881,139.48271 253.02083,139.79584C253.81638,140.14569 254.43625,140.59447 255.216,140.81534C256.07678,141.05916 257,140.81667 257.89999,140.81667C258.79999,140.81667 259.7038,140.89877 260.60001,140.8165C261.51144,140.73282 262.10266,140.20868 262.79999,139.51666C263.30191,139.01859 264.09253,138.46561 264.7955,137.86034C265.49048,137.26195 265.2587,136.45963 265.66934,135.66867C266.14447,134.75351 267.12292,134.80052 268.091,134.464C268.80374,134.21625 269.77731,133.97464 270.60001,133.59534C271.26825,133.28723 272.11804,132.82556 272.89999,132.39134C273.72049,131.93571 274.4577,131.58171 275.20001,131.16934C276.02441,130.71138 276.06973,130.04462 276.53601,129.242C276.9328,128.55898 278.21252,129.22667 278.97916,128.79584C279.62808,128.43115 278.61734,127.85267 277.81201,127.818L276.81467,127.81667L275.97916,127.81667L275.39551,127.81667" id="svg_3" stroke-width="3" stroke="#000" fill="none"/>
  <path t="11500,11789,11806,11824,11843,11860,11878,11892,11911,11930,11930,11947,11967,12008,12028,12048,12068,12089,12110,12135,12157,12190,12231,12248,12266,12286,12311,12335,12375,12415,12463,12481,12497,12516,12516,12535,12551,12575,12654,12679,12720,12743,12762,12786,12802,12841,12842,12944,12961,13016,13035" d="M251.5,121.81667C253.3,121.81667 254.2,121.81667 255.10001,121.81667C255.89999,121.81667 256.89999,121.81667 257.79999,121.81667C258.70001,121.81667 259.60001,121.81667 260.5,121.81667C261.29999,121.81667 262.20001,121.81667 263.064,121.81667C263.936,121.81667 264.89999,121.81667 265.79999,121.81667C266.70001,121.81667 267.60001,121.81667 268.5,121.81667C269.33334,121.81667 270.11066,121.81667 271.064,121.81667C271.936,121.81667 272.89999,121.81667 273.79999,121.81667C274.70001,121.81667 275.72662,121.55804 276.37866,122.038C277.07693,122.55199 277.48199,123.24149 277.5,124.17384C277.51627,125.01651 277.5,125.91667 277.5,126.81667C277.5,127.61667 277.5,128.51666 277.5,129.41667C277.5,130.38068 277.5,131.25267 277.5,132.11217C277.5,133.03816 277.61078,133.92352 277.5,134.81667C277.38849,135.71574 276.21295,135.50031 275.66666,136.15001C275.12717,136.79161 275.07468,137.75534 274.5,138.31667L273.88934,138.806L273.02084,138.83751" id="svg_4" stroke-width="3" stroke="#000" fill="none"/>
  <path t="13635,13926,13943,13985,13985,13997,13997,14014,14014,14038,14054,14077,14095,14114,14130,14148,14168,14168,14185,14205,14222,14238,14254,14271,14286,14286,14286,14305,14321,14336,14336,14352,14372,14388,14388,14405,14425,14442,14463,14502,14519,14538,14538,14555,14572,14589,14589,14609,14644,14644,14659,14659,14679,14697,14697,14713,14731,14751,14769,14788,14804,14822,14838,14855,14855,14872,14872,14889,14889,14906,14906,14925,14925,14944,14960,14977,14993,14993,15012,15012,15030,15047,15065,15065,15082,15100,15121,15145,15162,15179,15196,15216,15236,15236,15255,15272,15288,15288,15303,15321,15850,15869,15869,15888,15906,15921,15939,15956,15972,15989,16015,16049,16071,16089,16106,16127,16127,16144,16189,16206,16223,16242,16258,16275,16293,16309,16326,16344,16366,16400,16430,16430,16444,16459,16481,16496,16502,16502,16522,16540,16556,16572,16588,16606,16606,16624,16640,16656,16656,16673,16673,16689,16690,16706,16727,16753,16770,16788,16806,16826,16841,16859,16876,16876,16894,16912,16912,16930,16946,16946,16982,16997,17032,17032,17071,17099,17133,17133,17153,17173,17190,17210,17227,17243,17260,17261,17280,17298,17315,17333,17353,17374,17403,17426,17450,17470,17489,17508,17525,17549,17589,17605,17605,17624,17640,17659,17678,17711,17727,17764,17764,17788,17788,17820,17843,17860,17885,17904,17923,17923,17965,17980,18005,18022,18022,18040,18061,18075,18093,18109,18127,18144,18162,18162,18181,18198,18198,18215,18232,18284,18319,18356,18381,18399,18445,18479,18479,18502,18520,18541,18556,18574,18591,18608,18633,18633,18686,18705,18723,18740,18756,18794,18807,18825,18844,18862,18905,18922,18941,18957,18993,19023,19023,19069,19095,19113,19129,19165,19194,19194,19219,19236,19256,19304,19329,19329,19352,19369,19390,19390,19407,19422,19422,19442,19480,19506,19529,19545,19545,19568,19594,19630,19631,19646,19663,19663,19680,19699,19722,19722,19739,19775,19812,19834,19834,19854,19877,19923,19946,20017,20043,20072,20092,20114,20156,20260,20277,20295,20333,20355,20374,20885,20905,20924,20943,20943,20978,20992,21010,21028,21028,21055,21078,21096,21112,21132,21149,21149,21165,21165,21184,21184,21184,21205,21224,21225,21241,21241,21257,21257,21275,21288,21306,21307,21326,21326,21340,21340,21359,21359,21376,21377,21392,21410,21410,21426,21426,21443,21461,21478,21495,21495,21512,21529,21529,21546,21563,21563,21580,21580,21616,21637,21637,21660,21677,21677,21692,21710,21710,21725,21726,21742,21759,21759,21777,21792,21808,21826,21843,21861,21879,21898,21932,21932,21955,22005,22024,22042,22060,22060,22077,22102,22130,22185,22231,22253,22274,22311,22324,22366,22381,22436,22917,22941,22956,22957,22977,22993,22993,23010,23010,23010,23028,23028,23044,23044,23061,23061,23078,23078,23094,23094,23112,23112,23129,23147,23147,23163,23164,23181,23197,23215,23215,23232,23249,23268,23292,23311,23328,23341,23360,23360,23377,23392,23410,23427,23427,23444,23462,23478,23492,23535,23687,23745,23761,23778,23795,23796,23814,23831,23849,23866,23884,23910,23978,24026,24053,24078,24100,24115,24149,24181,24197,24213,24245,24298,24337,24385,24443,24483,24548,24587,24631,24647,24664,24682,24683,24701,24741,24759,24778,24796,24830,24845,24863,24901,24901,24927,24954,24975,24976,24996,25028,25042,25063,25063,25080,25080,25094,25120,25143,25162,25182,25182,25216,25256,25277,25311,25326,25346,25346,25360,25360,25377,25377,25396,25412,25412,25428,25446,25463,25480,25513,25513,25544,25559,25597,25611,25629,25629,25645,25662,25679,25696,25713,25714,25730,25749,25767,25791,25813,25813,25813,25827,25843,25843,25873,25915,25930,25930,25947,25947,25964,25964,25982,25982,25999,25999,25999,26016,26017,26041,26061,26080,26096,26096,26122,26144,26163,26163,26176,26177,26195,26195,26195,26212,26226,26252,26276,26321,26355,26377,26396,26428,26442,26462,26491,26510,26540,26611,26627,26627,26665,26700,26795,27405,27439,27462,27488,27510,27535,27560,27580,27594,27612,27630,27630,27646,27659,27681,27691,27714,27726,27763,27795,27827,27857,27878,27915,27915,27938,27960,27978,27996,27996,28011,28011,28029,28067,28082,28118,28144,28144,28160,28179,28192,28192,28212,28213,28229,28229,28242,28243,28260,28279,28279,28292,28312,28312,28330,28330,28346,28346,28359,28360,28381,28392,28393,28412,28428,28446,28859,28876,28893,28894,28912,28912,28912,28930,28930,28945,28964,28964,28979,28996,29023,29024,29055,29077,29095,29118,29144,29144,29173,29194,29194,29209,29243,29278,29332,29366,29381,29406,29455,29486,29704,29821,29822,29846,29887,29911,29930,29940,29964,29964,29973,29994,30012,30013,30029,30029,30029,30046,30046,30047,30060,30080,30080,30096,30112,30147,30215,30651,30651,30678,30695,30695,30711,30711,30730,30742,30762,30780,30794,30811,30811,30830,30843,30843,30862,30880,30895,30914,30940,30964,30989,31011,31060,31085,31119,31144,31145,31164,31179,31205,31228,31276,31295,31316,31364,31399,31420,31420,31444,31486,31511,31534,31570,31593,31614,31614,31628,31648,31658,31658,31659,31681,31694,31708,31729,31750,31783,31812,31857,31879,31897,31916,31933,31951,31978,32006,32038,32086,32116,32171,32227,32307,32355,32419,32581,32629,32664,32701,32797,32845,32880,32913,32927,32964,32965,32979,33017,33031,33056,33080,33096,33112,33151,33191,33225,33247,33283,33314,33329,33354,33395,33416,33440,33440,33463,33480,33521,33552,33578,33618,33646,33662,33662,33681,33692,33713,33726,33754,33779,33803,33837,33838,33862,33880,33898,33914,33938,33986,34020,34050,34051,34090,34137,34186,34211,34237,34261,34281,34293,34313,34331,34372,34396,34444,34445,34485,34516,34533,34567,34582,34599,34599,34618,34645,34663,34663,34677,34696,34696,34711,34765,34800,34885,34941,34966,34966,34983,35000,35033,35033,35109,35173,35221,35246,35263,35311,35329,35347,35368,35395,36041,36063,36063,36081,36081,36096,36096,36113,36131,36131,36131,36145,36146,36146,36167,36167,36167,36179,36195,36195,36234,36273,36296,36314,36328,36346,36347,36364,36364,36379,36405,36429,36447,36468,36517,36541,36574,36659,36755,36811,36846,36941,36989,37013,37049,37063,37082,37119,37119,37146,37162,37163,37182,37193,37216,37247,37281,37304,37305,37337,37363,37455,37455,37583,37647,37682,37743,37889,37920,37946,37965,37976,37996,38014,38029,38072,38161,38217,38251,38268,38291,38314,38425,38473,38554,38619,39060,39097,39149,39197,39304,39334,39389,39445,39478,39503,39534,39887,39991,40025" d="M265.5,139.81667C265.70001,139.81667 266.65564,139.63013 267.5,139.98334C268.21555,140.28267 268.82483,140.9108 269.5,141.31667C270.48367,141.90797 271.14328,142.28928 271.88934,142.79134C272.55765,143.24106 273.11072,143.80186 274,143.81667C274.97925,143.83296 275.55807,144.3522 276.2045,144.9265C276.83408,145.48584 277.1777,146.47356 278,146.77501C278.84644,147.08531 279.64426,147.19234 280.5,147.65001C281.29144,148.0733 281.73596,148.65204 282.66666,148.98334C283.33707,149.22198 284.00323,149.63684 284.86401,150.20601C285.6882,150.75098 286.45828,151.05061 287.20001,151.464C287.96368,151.88963 288.80374,152.16977 289.5,152.81667C290.10327,153.37717 291.013,153.6787 291.5,154.33751C292.00708,155.02348 292.89569,155.35365 293.41467,156.10201C293.88138,156.77499 293.96945,157.59982 294.64932,157.842C295.48752,158.14055 295.96194,159.05305 296.33334,159.81667C296.70004,160.57057 297.12137,161.33783 297.72134,162.03833C298.2605,162.6678 298.38312,163.66287 298.58401,164.33267C298.88785,165.34569 299.51077,166.03546 300.20001,166.4595C301.02139,166.96484 302.05197,166.52757 302.88934,166.82733C303.6261,167.09108 304.11066,167.80606 305,167.81667C305.89999,167.82739 306.72,168.31438 307.5,168.65001C308.21127,168.95607 309.16351,168.76338 309.90451,168.87384C310.91339,169.02423 311.68188,169.39873 312.47867,169.9165C313.27145,170.43169 314.15125,170.78427 314.84732,170.81216C315.86322,170.85286 316.79999,170.81667 317.70132,170.81667C318.66666,170.81667 319.32535,170.81667 320.33334,170.81667C321.1955,170.81667 322.10001,170.81667 323.02084,170.81667C323.82132,170.81667 324.67465,170.81667 325.61465,170.81667C326.59982,170.81667 327.4751,170.79041 328.30133,170.81667C329.20139,170.84526 329.92337,171.49939 330.79999,171.75951C331.56891,171.98767 332.5,171.81667 333.29999,171.81667C334.20001,171.81667 335.13599,171.81667 335.98401,171.81667C336.84732,171.81667 337.86401,171.81667 338.70001,171.81667C339.60001,171.81667 340.5,171.81667 341.29999,171.81667C342.20001,171.81667 343.20258,172.21487 344.064,171.78067C344.76288,171.42841 345.33582,171.01295 346.20001,170.75951C347.07742,170.50217 347.81967,170.02835 348.66666,169.81667C349.49771,169.60895 349.974,168.92291 350.70001,168.53267C351.55478,168.07321 352.43665,168.22005 353.21466,167.73134C353.95474,167.26646 354.65442,167.13986 355.37866,166.59534C356.02151,166.11201 356.30881,165.15063 357.02084,164.83751C357.81638,164.48766 358.43661,164.04189 359.2045,163.82117C360.06519,163.57379 360.97479,163.81104 361.52133,163.39134C362.20447,162.86676 363.01733,162.81734 363.86401,162.81667C364.79999,162.81592 365.70001,162.81667 366.60001,162.81667C367.5,162.81667 368.27744,162.69238 369.10001,162.242C369.8804,161.81473 370.79999,161.81676 371.70001,161.81667C372.60001,161.81657 373.46667,161.59608 374.10001,161.242C374.96127,160.7605 375.91068,160.81667 376.82132,160.81667C377.5,160.81667 378.616,160.81667 379.384,160.81667C380.32535,160.81667 381.01599,160.81667 382.08932,160.81667C383,160.81667 383.88934,160.806 384.5,160.31667C385.11066,159.82733 386,159.81667 386.89999,159.81667C387.79999,159.81667 388.70001,159.81667 389.60016,159.81667C390.38535,159.81667 391.32535,159.81667 392.33334,159.81667C393.08932,159.81667 394.02084,159.81667 394.98267,159.81667C395.79016,159.81667 396.7215,159.81667 397.60001,159.81667C398.5,159.81667 399.33588,160.0175 400.20001,159.75951C401.05875,159.50313 401.79776,158.74312 402.216,158.01534C402.6366,157.28345 402.5,156.31667 402.5,155.41667C402.5,154.51666 402.5,153.61667 402.5,152.71667C402.5,151.81667 402.5,151.01666 402.5,150.11667C402.5,149.21667 402.5,148.31667 402.5,147.41667C402.5,146.51666 402.5,145.61667 402.5,144.71667C402.5,143.81667 402.5,142.90067 402.5,142.11217C402.5,141.21667 402.5,140.31667 402.5,139.41667C402.5,138.52116 401.96997,138.00291 401.58533,137.24733C401.22845,136.5463 401.60449,135.50427 401.07468,134.842C400.58829,134.23399 399.94424,133.74782 399.46399,133.242C398.879,132.62589 398.32983,131.99321 397.61334,131.73267C396.68057,131.39346 396.23969,130.85846 395.45184,130.17384C394.88943,129.68512 393.88013,129.81909 393.10001,129.39134C392.2771,128.94012 391.47037,128.49243 390.78534,128.10066C390.03717,127.67278 389.26392,127.35072 388.39999,126.938C387.54733,126.53068 386.80957,126.39261 386.02084,125.81667C385.38055,125.34914 384.82993,124.70718 384.41599,124.01534C383.94012,123.21999 383.00482,123.02071 382.30133,122.53133C381.51669,121.98552 381.33957,121.20458 380.69867,120.64734C380.0134,120.05151 380.07898,119.16035 379.47467,118.26334C379.02899,117.60181 378.47348,117.01495 378.5,116.11667C378.52789,115.17252 379.32742,115.22786 380.14282,114.75951C380.9548,114.29311 381.5,113.81667 382.29999,113.81667C383.20001,113.81667 384.10001,113.81667 385,113.81667C385.89999,113.81667 386.79999,113.81667 387.70001,113.81667C388.60001,113.81667 389.5,113.81667 390.29999,113.81667C391.20001,113.81667 392.24567,113.76574 392.49551,114.52117C392.79077,115.41396 393.05945,116.02544 393.72134,116.69534C394.33072,117.31208 394.87097,117.85114 395.52533,118.39133C396.10449,118.86944 396.90851,119.01739 397.58401,119.53267C398.19702,120.00028 398.92899,120.1873 399.7215,120.69517C400.46823,121.17369 401.27692,120.94192 402.10001,121.39133C402.95718,121.85936 403.61188,122.29604 404.14734,122.86934C404.78732,123.55456 405.53268,123.94228 406.10001,124.42734C406.84189,125.06162 407.14819,125.88454 407.58533,126.53267C408.11133,127.31255 408.69211,127.94157 409.2045,128.51666C409.76477,129.14548 410.23584,129.97563 410.66666,130.81667C411.00696,131.481 411.92618,132.03342 412.33334,132.81667C412.72003,133.56052 413.07669,134.37741 413.784,134.81801C414.47665,135.24948 414.90887,135.94395 415.33334,136.81667C415.70004,137.57057 416.08224,138.27838 416.46399,139.20601C416.79547,140.01151 417.24069,140.60925 417.52533,141.45267C417.80884,142.29269 418.21921,142.95203 418.44284,144.05951C418.61288,144.90158 418.4628,145.81754 418.5,146.61667C418.54272,147.53432 419.41635,147.97227 419.5,148.91667C419.57941,149.81316 419.5,150.61667 419.5,151.51666C419.5,152.38068 419.5,153.25267 419.5,154.20601C419.5,155.10201 419.50238,156.01666 419.5,156.9165C419.49774,157.76402 418.99615,158.33546 418.53601,159.20601C418.21329,159.81659 417.4523,160.17694 416.92532,160.842C416.42911,161.46822 416.28378,162.20569 415.784,162.90067C415.27072,163.61441 415.46469,164.58282 416.02084,165.31667C416.60938,166.09323 417.17773,166.63202 417.52533,167.41667C417.8876,168.23445 418.29996,169.06276 418.66666,169.81667C419.03806,170.58028 419.34906,171.40616 419.92532,172.20601C420.43527,172.91379 421.4783,172.71922 422.064,173.46333C422.62656,174.17802 422.43063,175.05096 422.72168,176.01651C422.96481,176.82312 423.62082,177.71405 424.32535,178.17C424.97922,178.59315 425.91791,178.67322 426.70132,179.10201C427.45294,179.51337 428.16666,180.09334 428.84732,180.51666C429.76266,181.08594 430.22369,181.70383 431,182.29584C431.73886,182.85928 432.52689,183.13124 433,183.83751C433.53094,184.63013 433.97641,185.31956 434.70132,186.01666C435.24023,186.53488 435.9928,187.00186 436.67465,187.41667C437.62738,187.99626 438.19662,188.51555 438.89999,189.21667C439.50095,189.8157 440.12833,190.43286 440.60001,191.13783C441.1329,191.9343 441.79193,192.52567 442.41599,193.10066C443.05179,193.68649 443.84576,194.00322 444.21466,194.70334C444.66739,195.56258 444.34274,196.67424 444.53601,197.40601C444.76807,198.28462 445.67905,198.79724 446.31467,199.21667C447.18442,199.79062 447.80826,200.19899 448.33334,200.98334C448.80609,201.68953 448.49759,202.61667 448.5,203.57384C448.50226,204.46935 448.49042,205.19043 448.92532,206.19133C449.2804,207.00845 449.45084,207.81769 449.50015,208.79517C449.53638,209.51352 450.12921,210.28835 450.37851,211.138C450.62079,211.96368 450.28384,213.04419 450.784,213.73267C451.28711,214.42525 451.30511,215.13835 451.50134,216.01534C451.68192,216.82239 452.35477,217.26479 452.50449,218.11667C452.66763,219.04485 453.32614,219.58966 453.49866,220.53134C453.66705,221.45055 454.11298,221.97726 454.66934,222.618C455.26471,223.30367 456.15634,223.23769 457.05334,223.842C457.71487,224.28766 458.43262,224.34489 459.21466,224.81667C459.84177,225.19496 460.32742,225.40547 461.14282,225.87384C461.9548,226.34024 462.28012,227.1129 462.85266,227.76401C463.4147,228.4032 464.20102,228.45047 464.97916,228.83751C465.70209,229.1971 465.39044,230.31509 465.55716,231.164C465.73917,232.09073 466.53265,232.78719 467,233.33751C467.64764,234.10014 468.00372,234.8356 468.29999,235.418C468.80637,236.41345 469.19583,237.21878 469.60001,238.01651C469.99591,238.79793 470.5,239.65001 471,240.31667C471.5,240.98334 471.95676,241.84419 472.5,242.65001C472.87146,243.20102 473.7041,243.83669 474.14282,244.51666C474.62814,245.26888 474.74905,246.31897 475.11066,246.99133C475.55637,247.82005 476.07831,248.39929 476.5,249.31667C476.86514,250.11105 477.41544,250.91133 477.49866,251.61667C477.60434,252.51234 477.96042,253.34027 478.44733,254.11217C478.89041,254.81461 479.44629,255.36559 479.92532,256.21667C480.33438,256.94342 480.53882,257.95023 481.2045,258.4595C481.88202,258.97781 482.41949,259.49216 482.936,260.21667C483.49597,261.0022 483.99124,261.60602 484.5,262.29584C484.98627,262.9552 485.91882,263.23312 486.41599,264.01535C486.88089,264.7468 487.48199,265.24149 487.5,266.17383C487.51627,267.01651 487.5,267.91666 487.5,268.81668C487.5,269.61667 487.5,270.51666 487.5,271.41666C487.5,272.31668 487.5,273.21667 487.5,274.11667C487.5,275.01535 487.49741,276.00784 486.7955,276.46399C486.00818,276.97565 485.27222,277.29742 484.784,277.98599C484.27625,278.70215 484.14862,279.75931 483.29999,279.81668C482.40222,279.87738 481.73376,280.22955 481.14734,280.75949C480.60355,281.25089 480.06458,281.79868 479.2045,281.81668C478.27872,281.83606 477.39999,281.81735 476.5,281.81668C475.58533,281.81601 475.3349,281.25351 474.784,280.73132C474.25287,280.22787 474.5,279.164 474.5,278.30066C474.5,277.26334 473.82785,276.96594 473.51068,276.20599C473.17596,275.40396 472.74835,274.87305 472.50449,274.11218C472.21747,273.21667 471.64362,272.76486 471.5,271.81668C471.38019,271.0257 471.16898,270.36517 470.66666,269.64999C470.17822,268.95459 470.89297,267.88629 470.41467,267.10199C469.92459,266.29837 469.59439,265.7117 469.5,264.81668C469.41418,264.00317 468.56616,263.51642 468.06799,263.01666C467.38397,262.33041 467.50226,261.31668 467.5,260.41666C467.49774,259.51666 467.11346,258.67856 466.784,258.01666C466.35739,257.15964 466.36136,256.35596 465.784,255.73267C465.14404,255.04179 464.73145,254.41322 464.05716,253.71667C463.56827,253.21162 462.6377,252.85199 462.02084,252.31667C461.26196,251.65808 460.70004,251.01663 460.10001,250.41667C459.40002,249.7168 458.71063,249.32541 458.02084,248.81667C457.36148,248.33038 457.12924,247.31711 456.29999,246.90067C455.45065,246.47414 454.80878,246.10321 454.11066,245.42734C453.48248,244.81917 452.83038,244.41916 452.21466,243.90067C451.54916,243.34027 450.50974,243.36989 449.85718,242.70683C449.28778,242.12827 449.28827,241.02118 448.39999,240.8165C447.50812,240.61098 446.80957,240.39261 446.02084,239.81667C445.38055,239.34914 444.80615,238.74278 444.07867,238.39134C443.17905,237.95673 442.48239,237.96959 441.5625,237.76401C440.6394,237.55771 440.3071,236.50485 439.69867,236.10201C438.87723,235.55812 438.22656,235.05141 437.5,234.65001C436.72729,234.22313 436.22812,233.47607 435.61465,233.01666C434.87857,232.46541 434.09595,232.11577 433.10001,231.61667C432.50027,231.31612 431.49625,230.82401 430.90451,230.51666C430.15228,230.12595 429.24789,229.52679 428.70132,229.01666C427.98764,228.35052 427.19147,227.95219 426.29999,227.81534C425.38422,227.67476 424.78485,227.20354 423.89999,226.79134C423.08487,226.41162 422.43253,225.67917 421.86401,225.21667C421.05734,224.56042 420.4826,224.30984 419.5,223.81667C418.71338,223.42186 417.88577,223.32596 417.04166,222.81667C416.35043,222.39963 415.69385,222.18814 414.936,221.78067C414.20667,221.38853 414.03958,220.29306 413.55267,219.52116C413.10959,218.81873 412.40762,218.40938 411.85266,217.76401C411.3522,217.18201 410.96054,216.36703 410.2045,215.86934C409.51807,215.41747 409.29263,214.4126 408.5,213.98334C407.83405,213.62268 407.18884,213.05309 406.55267,212.464C405.97708,211.93102 405.56339,211.04189 404.7955,210.82117C403.93481,210.57379 403.08264,210.90616 402.47467,211.39134C401.85019,211.88971 400.89996,211.81134 400,211.81667C399.09995,211.82201 398.28122,212.31718 397.5,212.65001C396.74847,212.9702 395.79999,212.81667 394.89999,212.81667C394,212.81667 393.09186,212.70015 392.20001,212.82117C391.37885,212.9326 390.72455,213.71538 390.064,214.242C389.35458,214.80759 388.25089,214.34689 387.52084,214.83751C386.78519,215.33189 386.39252,215.6178 385.60983,216.16934C384.93338,216.64603 384.18619,217.15909 383.5,217.81667C382.98947,218.30591 382.37589,219.11972 381.70001,219.53134C380.85754,220.04443 380.11307,220.26826 379.50449,220.87384C378.9006,221.47473 378.32288,221.70586 377.52084,221.83751C376.64139,221.98187 376.10837,222.68794 375.29868,223.10066C374.57788,223.46806 373.84406,223.78679 372.89868,223.81534C371.90045,223.84549 371.10001,223.81667 370.10132,223.81667C369.336,223.81667 368.3327,223.64018 367.5,223.98334C366.82913,224.2598 365.97937,224.80624 365.1785,224.81667C364.2894,224.82823 363.29553,224.75018 362.52084,224.83751C361.50784,224.95169 360.91409,225.51613 360.01599,225.73134C359.17276,225.9334 358.19611,225.66328 357.29999,226.10066C356.63559,226.42496 355.79999,226.81441 354.89999,226.81667C354,226.81891 353.11066,226.81667 352.24533,226.81667C351.43301,226.81667 350.70398,226.81071 349.66666,226.81667C348.73593,226.82201 347.88455,226.84587 346.90451,227.16934C346.14166,227.42113 345.20544,227.63666 344.39999,228.03801C343.63284,228.42029 342.83362,228.73264 342.10001,229.25267C341.31308,229.81049 340.98636,230.53448 340.48932,231.242C340.00156,231.93631 339.15375,232.33846 338.39999,232.69534C337.54593,233.09972 337.02661,233.57245 336.47867,234.242C335.93372,234.90787 335.1293,234.97063 334.41733,235.53267C333.67728,236.11688 333.01978,236.58528 332.49866,237.10066C331.96628,237.62721 331.10513,237.69421 330.53601,238.242C330.03433,238.72487 329.30133,238.81667 328.33334,238.81667C327.5,238.81667 326.56961,238.42363 325.78534,238.90201C324.98172,239.39221 324.68802,240.30524 324.064,240.79134C323.32184,241.36946 322.76312,241.85355 322.41599,242.61667C322.0274,243.47093 321.5314,244.22717 321.49985,245.13817C321.47562,245.8374 321.34222,246.81955 321.07468,247.62733C320.85977,248.27623 320.58649,249.49959 320.5,250.29584C320.41833,251.04759 320.00729,251.93452 319.66666,252.81667C319.37238,253.57874 319.5,254.51666 319.5,255.41667C319.5,256.31668 319.5,257.20599 319.5,258.14999C319.5,258.83749 319.5,259.93134 319.5,260.81668C319.5,261.57382 319.5,262.46933 319.5,263.33267C319.5,264.29584 319.5,265.21667 319.5,266.11667C319.5,267.01666 319.5,267.91666 319.5,268.81668C319.5,269.61667 319.5,270.45267 319.5,271.46933C319.5,272.164 319.5,273.18066 319.5,274.11667C319.5,275.01666 319.5,275.91666 319.5,276.81668C319.5,277.64999 319.5,278.52118 319.5,279.38068C319.5,280.33749 319.5,281.20599 319.5,282.10333C319.5,282.98334 319.5,283.79584 319.5,284.75534C319.5,285.61801 319.5,286.51666 319.5,287.38068C319.5,288.33749 319.5,289.21667 319.5,290.11218C319.5,290.98334 319.5,291.91666 319.5,292.81668C319.5,293.61667 319.5,294.53134 319.5,295.42734C319.5,296.31668 319.62674,297.29868 319.14734,297.82117C318.63553,298.37897 318.06036,299.0751 317.784,299.702C317.39484,300.58469 317.18863,301.46912 316.5,302.14999C316.02896,302.61572 315.68073,303.32089 315.11066,304.18066C314.56528,305.00323 314.10831,305.7171 313.52533,306.242C312.93616,306.77249 312.29288,307.34973 311.40018,307.69516C310.55023,308.02405 309.95297,308.56369 309.10001,308.78067C308.22708,309.00275 307.20212,308.65732 306.55267,309.16934C305.93805,309.6539 305.10001,309.81668 304.2045,309.81668C303.33334,309.81668 302.39999,309.81668 301.5,309.81668C300.66666,309.81668 299.7955,309.81668 298.89999,309.81668C298.02084,309.81668 297.5,309.38068 297.5,308.51666C297.5,307.61801 297.5,306.73267 297.5,305.81668C297.5,304.93799 297.08939,303.98929 297.55716,303.17383C297.95169,302.48605 298.47293,301.81622 298.5,301.01666C298.52859,300.17236 299.33334,299.64999 299.5,298.81668C299.66666,297.98334 300.32709,297.46475 300.85266,296.86932C301.41592,296.2312 302.23151,295.9657 302.88934,295.38068C303.58218,294.76453 303.19525,293.65805 303.51068,292.84201C303.81714,292.0491 304.48199,291.41721 304.5,290.52118C304.51862,289.59537 304.5,288.71667 304.5,287.81668C304.5,287.01666 304.5,286.11667 304.5,285.17383C304.5,284.29584 304.5,283.41666 304.5,282.52118C304.5,281.59518 304.5,280.71667 304.5,279.81668C304.5,279.01666 304.5,278.11667 304.5,277.21667C304.5,276.31668 304.5,275.41666 304.5,274.51666C304.5,273.61801 304.5,272.73267 304.5,271.81668C304.5,271.01666 304.5,270.11667 304.5,269.21667C304.5,268.31668 304.5,267.41666 304.5,266.52118C304.5,265.59518 304.5,264.71667 304.5,263.81668C304.5,263.01666 304.93988,262.00775 304.5,261.17383C304.17514,260.55795 303.51285,260.11209 303.5,259.21667C303.48737,258.33734 302.74835,257.87305 302.50449,257.11218C302.21747,256.21667 302.07031,255.44795 301.27866,254.93817C300.5462,254.46651 299.67343,254.48201 299.51068,253.66734C299.34042,252.81522 298.74045,252.50301 298.49866,251.618C298.28073,250.82024 297.6149,250.21172 296.79016,249.86934C296.1893,249.6199 295.01944,249.46393 294.62134,248.71667C294.17703,247.88269 293.89203,247.21402 293.20001,246.51666C292.50269,245.81398 292.10803,245.26215 291.52533,244.42734C291.06427,243.76678 290.36163,243.36731 289.784,242.73267C289.19543,242.08601 288.3631,241.7804 287.85718,241.11217C287.33081,240.41695 287.16809,239.49258 286.5,238.81667C285.92111,238.23102 284.85861,238.02528 284.52084,237.29584C284.1178,236.42538 283.72519,235.88007 283.50449,235.11217C283.25711,234.25151 283.37344,233.43495 282.85266,232.76401C282.39954,232.18024 282.18549,231.42953 281.66666,230.65001C281.19577,229.94254 281.50488,229.03627 281.14282,228.164C280.84506,227.44669 280.21423,226.56071 279.70001,226.01801C279.10538,225.39041 278.32724,224.65598 277.84732,224.1595C277.31854,223.61249 276.51495,222.62083 276.12534,222.01666C275.741,221.42072 275.19809,220.5995 274.5,219.83751C273.99765,219.28918 273.11548,218.66867 272.66666,217.81667C272.32477,217.16765 271.81448,216.39409 271.55716,215.51666C271.30371,214.6525 270.88898,214.07603 270.53601,213.37001C270.14453,212.58699 270.6041,211.59334 270.216,210.702C269.89307,209.96025 269.51492,209.21661 269.5,208.31667C269.48376,207.33742 268.7222,206.88042 268.50134,206.10066C268.25751,205.23987 268.50067,204.31667 268.5,203.42734C268.49933,202.53267 267.8288,202.01012 267.52084,201.29584C267.14133,200.4156 267.70703,199.19711 266.97916,198.83751C266.19998,198.45258 265.41592,198.40215 264.85266,197.76401C264.32712,197.16859 263.49841,196.86717 262.70001,196.81667C261.79456,196.75938 261.14676,196.13487 260.85718,195.46484C260.43863,194.49637 260.05341,193.76286 259.47467,193.242C258.83679,192.66792 258.22916,192.04665 257.5,191.65001C256.79489,191.26646 255.94543,191.01611 255.2045,190.4595C254.44952,189.89233 254.50067,189.01666 254.5,188.11667C254.49934,187.21667 254.82417,186.26144 254.5,185.33751C254.27461,184.69516 253.78549,184.24438 253.48933,183.42734C253.21709,182.67625 252.86264,181.98193 252.33333,181.15001C251.84883,180.38852 251.05202,180.06625 250.52533,179.38068C250.02318,178.72705 249.58374,177.82904 249.5,176.98334C249.41415,176.11641 249.5,175.21667 249.5,174.33751C249.5,173.4595 249.49992,172.52116 249.5,171.65001C249.50009,170.71684 249.86119,169.93797 249.791,169.81667C249.34476,169.04546 248.02083,169.81667 247.14284,169.81667C246.2,169.81667 245.3,169.81667 244.40016,169.81667C243.55267,169.81667 242.69867,169.81667 241.85716,169.81667L240.88933,169.81667L240,169.81667L239.11067,169.806" id="svg_5" stroke-width="3" stroke="#000" fill="none"/>
  <path t="41985,42099,42119,42142,42159,42177,42192,42209,42209,42228,42228,42242,42260,42260,42260,42276,42276,42293,42293,42310,42310,42327,42344,42344,42359,42376,42376,42395,42411,42411,42428,42428,42446,42446,42464,42482,42483,42499,42517,42535,42552,42572,42594,42612,42628,42653,42668,42686,42704,42730,42756,42773,42773,42793,42811,42827,42827,42844,42844,42859,42860,42877,42894,42894,42916,42916,42955,42990,43022,43040,43074,43074,43094,43110,43110,43557,43590,43614,43656,43674,43694,43711,43727,43744,43744,43760,43778,43795,43795,43812,43830,43846,43846,43863,43881,43899,43931,43969,44007,44025,44111,44183,44239,44281,44319,44354,44415,44521,44569,44609,44651,44684,44769,44809,44851,44885,44917,44995,45036,45071,45107,45171,45196,45221,45275,45275,45318,45379,45406,45467,45467,45484,45511,45565,45645,45701,46207,46225,46225,46296,46351,46368,46403,46426,46487,46508,46528,46569,46609,46651,46721,46785,46819,46842,46929,46946,46986,47003,47049,47083,47108,47125,47156,47175,47220,47241,47299,47363,47398,47459,48061,48125,48189,48246,48280,48306,48327,48345,48362,48379,48395,48415,48441,48463,48513,48530,48547,48565,48565,48584,48609,48652,48672,48691,48712,48727,48745,48745,48761,48780,48797,48818,48837,48859,48879,48899,48899,48917,48955,48978,49002,49026,49074,49098,49146,49181,49181,49203,49226,49269,49292,49324,49411,49459,49507,49660,49677" d="M273.5,216.81667C273.5,219.40601 273.5,220.31667 273.5,221.21667C273.5,222.11667 273.5,223.01666 273.5,223.91667C273.5,224.81667 273.5,225.57384 273.5,226.46933C273.5,227.33267 273.5,228.33751 273.5,229.15001C273.5,230.078 273.5,230.8685 273.5,231.895C273.5,232.77501 273.5,233.65001 273.5,234.442C273.5,235.46933 273.5,236.164 273.5,237.19133C273.5,238.138 273.5,238.99133 273.5,239.93134C273.5,240.81667 273.5,241.61667 273.5,242.45267C273.5,243.47383 273.47818,244.22145 273.50134,245.21533C273.5192,245.98125 273.87186,246.88319 274.216,247.61534C274.5907,248.41248 274.2532,249.53423 274.58533,250.24733C274.96829,251.06964 275.62372,251.59492 276.07468,252.41667C276.50272,253.19664 276.33862,254.18146 276.72134,254.9165C277.16251,255.76381 278.1188,256.15897 278.41467,257.01666C278.70944,257.87112 279.00781,258.42532 279.44284,259.17383C279.86731,259.90421 279.5,260.91666 279.5,261.81668C279.5,262.61667 279.29187,263.55667 279.57199,264.45267C279.86514,265.39032 280.60294,265.74387 281.16666,266.64999C281.5556,267.27518 281.80182,268.29343 282.07468,268.99133C282.43866,269.9223 282.40851,270.82922 282.55716,271.57382C282.74176,272.49857 283.28363,273.13123 283.46399,274.18066C283.62265,275.10382 283.5,276.01535 283.5,276.86932C283.5,277.81668 283.39957,278.62711 283.53601,279.45267C283.68005,280.32434 284.26227,281.13394 284.44284,282.05951C284.6073,282.90253 284.81012,283.99197 284.27866,284.69534C283.7941,285.33664 283.66208,286.11673 283.14734,286.76401C282.655,287.38312 282.23215,288.03217 281.69867,288.61667C281.04181,289.3364 280.73486,290.20834 280.21466,291.01535C279.81931,291.62869 278.73868,291.77756 278,292.33749C277.33542,292.84125 276.73901,293.46146 276.11066,294.21667C275.56451,294.87311 275.21802,295.77396 274.40018,295.81668C273.47592,295.86499 272.56842,295.42429 271.78534,295.90201C270.98175,296.39224 270.52859,297.17236 270.5,298.01666C270.46954,298.91614 270.5,299.81668 270.5,300.69534C270.5,301.52118 270.4906,302.62839 271.2045,302.81216C272.07175,303.0354 273,302.81668 273.97916,302.81668C274.85718,302.81668 275.70001,302.81668 276.59982,302.81668C277.52533,302.81668 278.30133,302.81668 279.33334,302.81668C280.11066,302.81668 281.27164,302.87515 281.49866,302.10068C281.75031,301.24213 281.4635,300.20001 282.20532,299.86932C283.10593,299.46786 283.10635,298.88464 283.58533,298.10199C284.07663,297.29919 284.8273,297.1279 285.33334,296.48334C285.86823,295.80206 285.25983,294.57104 285.784,293.90067C286.27316,293.27502 286.8703,292.6629 287.52533,292.242C288.08386,291.88312 287.88644,292.93784 287.41599,293.53134C286.83054,294.26987 286.11493,294.72455 285.52533,295.242C284.88757,295.80173 284.18878,296.20453 283.66666,296.98334C283.19342,297.68924 283.09229,298.38959 282.58533,299.10068C282.11047,299.76672 281.67911,300.47302 281.51068,301.41666C281.3562,302.28223 282.1106,302.81134 282.97916,302.81668C283.93597,302.82257 284.84845,302.88751 285.47467,302.39133C286.13974,301.86438 286.70016,301.34155 287.33334,300.64999C287.88092,300.05194 288.43643,299.45453 289,298.81668C289.51553,298.23318 290.32825,298.22931 291.14282,297.75949C291.82965,297.36334 292.2518,296.50369 292.784,295.90067C293.35043,295.25885 293.5,294.51666 293.5,293.61667C293.5,292.71667 293.5,291.81668 293.5,290.93799C293.5,290.11218 293.4946,289.21664 293.5,288.31668C293.50534,287.42728 294.27481,286.88007 294.49551,286.11218C294.74289,285.2515 294.5,284.31668 294.5,283.42734C294.5,282.53134 294.5,281.61667 294.5,280.71667C294.5,279.81668 294.5,279.01666 294.5,278.11667C294.5,277.25266 294.5,276.38068 294.5,275.41666C294.5,274.51666 294.5,273.61667 294.5,272.71667C294.5,271.81668 294.5,271.01666 294.5,270.11667C294.5,269.21667 294.5,268.31668 294.5,267.41666C294.5,266.51666 294.5,265.61667 294.5,264.71667C294.5,263.81668 294.86435,262.90591 294.44284,262.17383C293.97559,261.36234 293.5,260.81668 293.5,260.01535C293.5,259.10199 293.52979,258.16946 293.07468,257.42734C292.56931,256.60327 292.5,255.81667 292.5,255.01666C292.5,254.11667 292.5,253.17384 292.5,252.29584C292.5,251.41667 292.5,250.52116 292.5,249.59517C292.5,248.71684 292.5,247.81667 292.66666,246.98334L293.41599,246.53267" id="svg_6" stroke-width="3" stroke="#000" fill="none"/>
  <path t="51309,51545,51562,51580,51597,51614,51632,51632,51647,51647,51665,51682,51682,51699,51699,51717,51717,51736,51736,51752,51768,51768,51785,51802,51802,51820,51855,51875,51875,51897,51913,51930,51947,51965,51965,51983,52001,52035,52068,52069,52084,52121,52165,52179,52220,52238,52258,52279,52294,52338,52359,52723,52742,52759,52778,52778,52795,52795,52812,52828,52844,52862,52862,52884,52884,52920,52938,52959,53004,53020,53067,53102,53173,53215,53215,53253,53278,53302,53327,53373,53408,53462,53486,53542,53575,53615,53639,53687,53711,53735,53761,53784,53808,53856,53880,53905,53938,53959,53984,53984,54010,54054,54068,54091,54109,54109,54129,54129,54145,54161,54180,54180,54196,54214,54214,54232,54249,54249,54266,54283,54301,54319,54337,54354,54376,54376,54394,54412,54428,54445,54475,54475,54493,54526,54542,54542,54562,54598,54613,54643,54660,54680,54696,54712,54730,54746,54746,54764,54843,54868,54902,54939,55004,55036,55077,55096,55112,55132,55166,55204,55259,55307,55351,55397,55413,55431,55454,55475,55496,55496,55512,55533,55550,55569,55588,55607,55649,55665,55703,55749,55784,55808,55869,55869,55911,55944,55960,55993,56095,56110,56135,56254" d="M374.5,219.81667C374.5,221.61667 374.5,222.51666 374.5,223.41667C374.5,224.21667 374.38889,225.16103 374.784,226.01801C375.12271,226.75267 375.38312,227.66287 375.58401,228.33267C375.88785,229.34569 376.72787,229.82932 377.14282,230.57384C377.60538,231.40375 377.46814,232.24484 377.78534,233.21533C378.0437,234.00578 378.57343,234.81793 379.10001,235.40601C379.76334,236.14679 380.23395,236.8549 380.58401,237.61667C380.92856,238.36639 381.80383,238.94029 382.21466,239.61667C382.68607,240.39281 383.41626,240.97098 383.5,241.81667C383.57883,242.61278 383.0517,243.69435 383.61432,244.4595C384.09277,245.1102 385.17694,245.08597 385.66666,245.81667C386.1333,246.51291 387.05954,246.75334 387.52533,247.42734C388.03119,248.15932 388.52142,249.01862 389.20001,249.4595C389.99234,249.97427 390.56885,250.37242 391.07468,250.85268C391.6908,251.43767 392.24658,252.13431 392.784,252.73267C393.35742,253.37112 394.07733,253.75786 394.52533,254.42734C395.01746,255.16278 395.28622,256.108 395.85266,256.76401C396.36414,257.35635 396.5,258.12115 396.5,259.138C396.5,259.81668 396.67862,260.83414 396.41467,261.61533C396.11411,262.50485 395.5997,263.22177 395.49551,264.12115C395.39456,264.99261 394.923,265.78986 394.66666,266.64999C394.4321,267.43698 393.74057,267.76733 393.50449,268.52118C393.23657,269.37659 393.06839,270.21283 392.58401,271.01535C392.13699,271.75601 391.30133,271.81668 390.33334,271.81668C389.5,271.81668 388.7189,271.93433 387.89999,272.39133C387.12726,272.82254 386.36874,273.19247 385.85266,273.86932C385.3512,274.52698 385.5,275.4595 385.5,276.33749C385.5,277.29584 385.5,278.17383 385.5,279.11667C385.5,280.01666 385.1106,281.16403 385.7215,281.69516C386.39081,282.27704 387.5,281.81668 388.37866,281.81668C389.2045,281.81668 390.064,281.81668 391.02084,281.81668C391.89999,281.81668 392.7955,281.81668 393.7215,281.81668C394.60001,281.81668 395.5,281.81668 396.29999,281.81668C397.21466,281.81668 398.1301,281.9819 399,281.79584C399.84863,281.61432 400.5,280.81668 401.10001,280.21667C401.70001,279.61667 402.37802,279.08472 402.97916,278.31668C403.48773,277.66693 403.80502,276.76807 404.14734,276.11667C404.6109,275.23453 404.39236,274.31863 404.55716,273.46933C404.73679,272.54358 405.41498,271.82928 405.49866,271.01666C405.59085,270.1214 405.5,269.21667 405.5,268.31668C405.5,267.41666 405.39304,266.51013 405.50134,265.61667C405.61282,264.6969 406.30984,264.16257 406.48932,263.21667C406.6571,262.3324 406.40454,261.3721 406.784,260.61667C407.21957,259.74948 407.13501,258.90567 407.55716,258.17383C408.02505,257.3627 408.4628,256.81583 408.5,256.01666C408.54272,255.09903 409.50833,254.90347 410,254.29584C410.56375,253.59914 410.41522,252.45694 410.92532,251.842C411.42242,251.24274 412.3129,250.82349 412.49551,250.05501C412.70047,249.19247 412.74725,248.5106 413.216,247.73401C413.68631,246.95483 413.5,246.01534 413.5,245.11667C413.5,244.25267 413.5,243.38068 413.5,242.42734C413.5,241.53134 413.68054,240.51601 413.216,239.90067C412.70023,239.21747 412.5,238.51666 412.5,237.61667C412.5,236.71667 412.82181,235.67877 412.33334,234.98334C411.83102,234.26814 411.68054,233.51601 411.216,232.90067C410.70023,232.21747 410.63657,231.46002 410.216,230.61667C409.88608,229.95502 409.4483,229.11613 409,228.31667C408.55362,227.52063 407.87241,227.06902 407.52084,226.29584C407.16125,225.505 406.89261,225.0385 406.53601,224.38068C406.07626,223.53259 406.5,222.51666 406.5,221.618C406.5,220.76401 406.5,219.81667 406.5,219.01666C406.5,218.11667 406.5,217.21667 406.5,216.31667C406.5,215.42734 406.5,214.53134 406.50134,213.618L406.784,212.90067L407.47467,212.39134" id="svg_7" stroke-width="3" stroke="#000" fill="none"/>
  <path t="58645,58826,58845,58864,58879,58879,58896,58896,58914,58914,58930,58948,58948,58965,58965,58983,58983,59003,59021,59021,59036,59036,59054,59076,59076,59093,59093,59108,59127,59145,59145,59156,59177,59195,59195,59212,59229,59247,59247,59266,59266,59282,59299,59316,59332,59350,59367,59393,59433,59457,59475,59498,59518,59535,59552,59568,59587,59587,59632" d="M295.5,159.81667C295.5,161.61667 295.40234,162.40797 294.7955,162.9265C294.1528,163.47565 293.72354,164.35068 293.20001,165.064C292.72104,165.71663 292.13663,166.43956 291.78534,167.33267C291.46066,168.15808 291.1904,169.00037 290.69867,169.702C290.17346,170.4514 289.82626,171.18205 289.2045,172.05951C288.802,172.62752 288.50421,173.49544 287.93201,174.30067C287.54221,174.84924 286.85135,175.65855 286.48532,176.40601C286.08353,177.22653 285.43262,177.95427 284.86401,178.41667C284.05865,179.07162 283.31198,179.34688 282.38666,179.73267C281.57117,180.07266 281.3996,181.05917 280.69867,181.53134C279.98795,182.01013 279.1077,182.26088 278.39999,182.9165C277.80637,183.46646 276.93219,183.6927 276.20001,184.17384C275.40576,184.69577 274.92172,185.43927 274.29999,186.01534C273.71951,186.55318 272.83075,186.92593 272.41599,187.618C271.93954,188.41299 271.00482,188.61263 270.30133,189.10201C269.51669,189.64781 269.45447,190.66246 269,191.33751C268.50043,192.07954 268.11243,192.83163 267.47467,193.39134C266.88507,193.90878 266.55826,194.73465 265.97916,195.29584C265.32639,195.92842 264.30133,196.10201 263.78534,196.618L263.41599,197.53134" id="svg_8" stroke-width="3" stroke="#000" fill="none"/>
  <path t="60646,60831,60848,60868,60885,60885,60902,60902,60920,60934,60952,60969,60990,61013,61030,61047,61064,61082,61082,61100,61127,61127,61149,61191,61191,61209,61228,61244,61262,61278,61295,61313,61330,61347,61347,61363,61380,61398,61398,61415,61415,61432,61432,61449,61449,61466,61484,61502,61502,61519,61537,61538,61560,61576,61595,61625,61643,61664,61737,61792" d="M303.5,164.81667C303.5,166.61667 303.46973,167.41945 303.07468,168.22734C302.62781,169.14119 302.65009,169.86324 302.27866,170.79517C301.96988,171.5699 301.37213,172.27281 300.85266,172.86934C300.28348,173.52295 299.93823,174.28513 299.55267,175.11667C299.14902,175.9873 298.45303,176.39616 297.85266,176.931C297.24368,177.47351 297.31946,178.64268 296.92532,179.40601C296.51059,180.20923 296.23654,181.03619 295.69867,181.61667C295.04648,182.3205 294.24301,182.9146 293.85266,183.52116C293.34451,184.31075 292.82993,184.92615 292.41599,185.618C291.94012,186.41335 290.98468,186.67699 290.5,187.33751C289.99402,188.02704 289.77664,188.98215 289.33334,189.81667C288.99661,190.45058 288.02206,190.6442 287.20001,191.17384C286.40109,191.68858 286.01111,192.36185 285.17868,192.91667C284.52316,193.35358 283.6377,193.78134 283.02084,194.31667C282.26196,194.97525 281.86395,195.58829 281.10001,196.20601C280.35522,196.80824 279.46811,196.94321 278.89999,197.42734C278.15466,198.0625 277.36676,198.60472 276.70001,198.90067C275.84222,199.28142 275.11972,199.80206 274.5,200.31667C273.89798,200.81657 272.936,200.85268 272.44733,201.464L271.62149,201.81683L271.41467,202.53267" id="svg_9" stroke-width="3" stroke="#000" fill="none"/>
  <path t="63858,64154,64171,64195,64217,64244,64268,64306,64326,64410,64427,64451,64486,64546,65213,65238,65470,65535,65583,65694,65720,66096,66192,66248,66361,66388,66389,66420,66522,66658,66683,66730,66731,66778,66860,66932,67085,67120,67155,67196,67268,67308,67366,67461,67582,67618,67655,67766" d="M236.5,138.81667C238.3,138.81667 239.20001,138.81067 240.10001,138.81667C240.90004,138.82201 241.63789,139.41603 242.44733,139.75951C243.23524,140.09384 243.88715,140.13118 244.66667,140.65001C245.37413,141.12088 246.19783,141.08382 246.784,141.73267C247.35355,142.3631 247.30309,143.12378 247.50133,144.01534C247.67953,144.81679 247.69733,144.81667 246.78534,144.81667C245.88933,144.81667 245.11827,144.69014 244.44733,144.16934C243.86356,143.71622 243.06215,144.06207 242.33333,144.65001C241.63477,145.21353 241.092,145.52516 240.5,146.29584C240.03188,146.90524 238.9055,147.14603 238.11067,146.79533C237.41614,146.48889 237.50226,145.46484 237.5,144.46333C237.49791,143.53134 237.03172,142.33315 237.66667,141.81667C238.31314,141.29082 239.41637,141.79268 240.2045,141.81667C241.14415,141.84526 241.91684,142.3716 242.37849,143.03801C242.87459,143.75414 242.21466,144.73134 241.39999,144.81667L240.5,144.81667L239.58533,144.81534" id="svg_10" stroke-width="3" stroke="#000" fill="none"/>
  <path t="70459,70972,71012,71092,71212,71253,71300,71327,71343,71364,71392,71409" d="M215.5,153.81667C215.5,155.42734 215.5,156.31667 215.5,157.21667C215.5,158.11667 215.64879,159.10637 215.14734,159.76401C214.63124,160.44086 213.92534,160.842 213.44733,161.52116L213,162.31667L212.55267,163.11217" id="svg_11" stroke-width="3" stroke="#000" fill="none"/>
  <path t="73335,73501,73501,73501,73518,73518,73518,73518,73535,73535,73535,73535,73555,73555,73555,73555,73555,73572,73572,73572,73572,73587,73588,73588,73588,73604,73604,73621,73621,73621,73621,73622,73639,73639,73639,73657,73657,73657,73677,73677,73677,73697,73697,73697,73713,73713,73714,73730,73747,73747,73747,73763,73763,73779,73779,73797,73797,73797,73797,73813,73813,73831,73831,73831,73847,73847,73863,73863,73881,73881,73881,73897,73897,73913,73913,73930,73930,73930,73946,73946,73947,73963,73963,73963,73982,73982,73998,73998,73998,74015,74015,74015,74032,74032,74032,74049,74049,74049,74049,74066,74066,74066,74084,74084,74084,74084,74084,74100,74100,74100,74117,74117,74117,74117,74117,74134,74135,74135,74154,74154,74154,74172,74189,74189,74205,74205,74205,74222,74222,74222,74222,74239,74239,74239,74257,74258,74258,74258,74278,74278,74298,74298,74298,74315,74315,74331,74346,74346,74605,74605,74627,74628,74628,74645,74645,74645,74645,74645,74645,74645,74664,74664,74665,74665,74665,74665,74665,74665,74665,74681,74681,74681,74681,74681,74681,74681,74681,74681,74697,74698,74698,74698,74698,74698,74698,74698,74698,74714,74714,74714,74714,74714,74714,74714,74714,74714,74731,74731,74731,74731,74731,74731,74731,74731,74731,74748,74748,74749,74749,74749,74749,74749,74749,74749,74765,74765,74765,74765,74766,74766,74766,74766,74781,74781,74782,74782,74782,74782,74797,74797,74797,74797,74797,74815,74815,74815,74815,74815,74834,74834,74835,74835,74848,74849,74849,74849,74866,74866,74866,74866,74866,74882,74882,74882,74882,74898,74898,74898,74898,74916,74916,74916,74932,74932,74932,74949,74949,74949,74949,74966,74966,74966,74966,74983,74983,74983,75000,75000,75000,75017,75017,75017,75033,75033,75034,75051,75051,75051,75067,75068,75068,75085,75085,75085,75085,75102,75102,75102,75120,75120,75139,75139" d="M261.5,212.81667C259.44534,212.81667 258.45834,212.81667 257.74365,212.81667C256.66666,212.81667 255.65266,212.81667 255,212.81667C254.34734,212.81667 252.9785,212.81667 252.24283,212.81667C251.47917,212.81667 250.6955,212.81667 249.5,212.81667C248.7,212.81667 247.89999,212.81667 247.10001,212.81667C246.3,212.81667 245.10017,212.81667 244.3045,212.81667C243.52083,212.81667 242.75717,212.81667 241.66667,212.81667C240.66167,212.81667 239.74667,212.81667 239.18666,212.81667C237.94366,212.81667 237.20267,212.81667 236,212.81667C235.248,212.81667 234.424,212.81667 233.576,212.81667C233.158,212.81667 231.66379,212.79492 230.79733,212.82733C230.05539,212.85509 229.07246,213.01614 228.27467,213.25267C227.4456,213.49847 226.6637,213.80974 225.72533,214.21667C225.04514,214.51166 224.07985,214.91989 223.27467,215.21667C222.72614,215.41887 221.66499,215.81273 220.74667,216.20601C220.16058,216.457 219.10426,216.72134 218.1785,217.03816C217.45877,217.28447 216.91068,217.64305 215.89999,218.11217C215.10892,218.47934 214.09825,218.72968 213.47917,218.81667C212.33253,218.9778 211.54216,219.15765 210.72533,219.42734C210.18034,219.60727 209.17935,220.00383 208.31067,220.41667C207.4942,220.80469 206.72299,221.26959 205.89999,221.53134C204.92575,221.84119 204.11601,221.76659 203.24817,222.17384C202.48425,222.53233 201.73357,223.02405 200.97917,223.31667C200.18564,223.62447 199.17354,223.98991 198.54167,224.31667C197.6465,224.77959 197.01767,225.41342 195.95717,225.6955C195.25522,225.8822 194.40218,225.8087 193.42149,226.25951C192.69174,226.59496 192.13208,227.20561 191.3,227.79517C190.71809,228.20746 189.90982,228.63565 189.09866,229.01534C188.27347,229.40158 187.33716,229.68228 186.54733,229.75951C185.72792,229.83961 184.66599,229.78976 183.72533,229.82733C183.04628,229.85445 182.07379,230.02098 181.26401,230.25267C180.39001,230.50273 179.50294,230.82576 178.60001,231.11217C178.00189,231.30188 177.10553,231.56528 176.19983,231.69534C175.29359,231.82549 174.33957,231.84338 173.33333,231.98334C172.61317,232.0835 171.87263,232.24417 171.12534,232.42734C170.38188,232.60956 168.98366,233.01555 168.32533,233.21667C167.67433,233.41557 166.33513,233.82329 165.616,234.01534C164.87645,234.21283 164.12869,234.39827 163.384,234.53134C162.32585,234.72044 161.34323,234.75916 160.46167,234.86934C159.41621,235.00002 158.76083,235.28215 157.98666,235.53267C157.01511,235.84708 156.01057,235.76831 155.28934,235.85268C154.28928,235.96965 153.69356,236.29604 152.72934,236.53267C151.86772,236.74413 150.83891,236.78871 150.11467,236.806C149.38281,236.82347 148.32124,236.80212 147.336,236.82733C146.71036,236.84334 145.49347,236.95488 144.60451,237.17384C144.01591,237.31882 143.18304,237.61229 142.18401,238.01534C141.49841,238.29193 140.3371,238.68153 139.55183,238.75951C138.76384,238.83775 137.83333,238.81667 136.92134,238.81667C136.08934,238.81667 135.1785,238.81667 134.28934,238.81667C133.3,238.81667 132.5,238.81667 131.5,238.81667C130.882,238.81667 129.87134,238.81667 128.83333,238.81667C127.95467,238.81667 127.45783,238.81667 126.35416,238.81667C125.74934,238.81667 125.1105,238.81667 124.43867,238.81667C123,238.81667 122.23534,238.81667 121.44267,238.81667C120.624,238.81667 119.78133,238.81667 118.91666,238.81667C118.032,238.81667 117.12933,238.81667 116.21067,238.81667C114.33334,238.81667 113.37883,238.81667 112.41734,238.81667C111.45184,238.81667 110.48534,238.81667 109.52084,238.81667C108.56133,238.81667 107.60983,238.81667 106.66933,238.81667C104.83334,238.81667 103.94267,238.81667 103.068,238.81667C102.20533,238.81667 101.35067,238.81667 100.5,238.81667C99.64933,238.81667 98.79467,238.81667 97.932,238.81667C96.16666,238.81667 95.2575,238.81586 94.33334,238.81801C93.39917,238.82018 92.45997,238.8248 91.52084,238.83751C90.58663,238.85016 89.66225,238.86685 88.75333,238.90201C86.99943,238.96985 86.16424,239.033 85.35733,239.10201C84.57555,239.16885 83.81823,239.24898 83.08334,239.33751C82.36755,239.42374 81.67028,239.51846 80.98933,239.618C79.66589,239.81143 79.02156,239.91687 78.38533,240.01534C77.75722,240.11253 77.13631,240.20811 76.52084,240.29584C75.91096,240.38277 75.30519,240.46556 74.70133,240.53134C73.50125,240.66206 72.90029,240.69743 72.30133,240.73401C71.70461,240.77045 71.1105,240.79935 70.52084,240.83751C69.93582,240.87537 69.34876,240.87015 67.66666,241.15001C67.11831,241.24124 66.05956,241.51952 65.54667,241.67801C64.54235,241.98837 64.0672,242.18484 62.66667,242.65001C61.78868,242.94162 60.93721,243.18515 60.11067,243.40601C59.70508,243.51437 58.5,243.81667 57.7,244.01666C56.9,244.21667 56.09999,244.41666 55.3,244.61667C54.10016,244.91664 53.30387,245.11421 52.52083,245.31667C51.75655,245.51427 50.66606,245.81461 49.98267,246.01666C48.97827,246.31363 48.29393,246.53116 47.16667,246.81667C46.33464,247.02739 45.44928,247.21646 45,247.31667C44.10524,247.51624 42.83105,247.80815 42.07067,248.01666C41.36981,248.20885 40.40855,248.5153 39.5,248.81667C38.59955,249.11533 37.99999,249.31664 37.1,249.61667C36.20016,249.91664 35.30689,250.20615 34.45716,250.51666C33.66302,250.80687 32.72904,251.22519 32.04733,251.51666C31.08342,251.92879 30.25519,252.22234 29.65333,252.41667C29.01525,252.6227 27.61705,253.01564 26.88533,253.21667C26.16105,253.41566 25.46158,253.59406 24.26933,254.01534C23.51567,254.28165 22.82583,254.57953 21.816,254.73267C21.00496,254.85565 20.16504,254.82292 19.184,255.10333C18.48212,255.30396 17.81431,255.7005 16.81467,256.29935C16.26306,256.62979 15.42172,257.17657 14.5,257.48334C13.62426,257.77481 12.72518,257.76855 11.66667,257.98334C10.93819,258.13113 10.24681,258.45053 9.16667,258.81668C8.53646,259.0303 7.84635,259.20648 6.80533,259.51666C5.83044,259.80716 4.99869,260.07571 4.35733,260.41666C3.34832,260.95303 2.74733,261.4595 1.84733,261.75949L1.15267,261.81216" id="svg_12" stroke-width="3" stroke="#000" fill="none"/>
  <path t="76157,76254,76255,76255,76255,76272,76272,76272,76272,76272,76272,76289,76289,76289,76289,76289,76289,76289,76289,76289,76307,76308,76308,76308,76308,76308,76308,76308,76308,76327,76327,76327,76327,76327,76327,76327,76327,76327,76346,76346,76346,76346,76346,76346,76346,76346,76346,76363,76363,76363,76363,76363,76363,76363,76363,76363,76379,76379,76379,76379,76379,76379,76379,76379,76379,76397,76397,76397,76397,76397,76397,76397,76397,76397,76413,76413,76413,76413,76413,76413,76413,76413,76413,76430,76430,76430,76430,76430,76430,76430,76430,76431,76446,76446,76446,76446,76446,76446,76446,76447,76463,76463,76463,76463,76463,76463,76463,76481,76481,76481,76481,76481,76481,76496,76497,76497,76497,76497,76514,76515,76515,76515,76515,76515,76531,76531,76531,76531,76531,76531,76531,76548,76548,76548,76548,76548,76548,76548,76548,76564,76564,76564,76564,76564,76564,76564,76564,76580,76580,76580,76580,76580,76581,76581,76581,76581,76598,76598,76598,76598,76598,76598,76598,76598,76598,76615,76615,76615,76615,76615,76615,76615,76615,76615,76629,76629,76629,76629,76629,76629,76650,76650,76650,76650,76650,76650,76650,76666,76666,76666,76666,76666,76666,76682,76682,76682,76682,76682,76700,76700,76700,76700,76700,76716,76716,76716,76716,76733,76733,76733,76750,76750,76793,76814,76814,76827,77087,77104,77104,77104,77104,77122,77122,77122,77122,77122,77122,77122,77123,77138,77139,77139,77139,77139,77139,77139,77139,77139,77156,77157,77157,77157,77157,77157,77157,77157,77157,77181,77181,77181,77181,77181,77181,77181,77181,77181,77199,77199,77199,77199,77199,77199,77199,77199,77199,77217,77217,77217,77217,77218,77218,77218,77218,77218" d="M88.5,237.81667C91.472,237.81934 92.18427,237.81752 92.95734,237.88867C93.79032,237.96533 95.12411,238.2522 95.58933,238.38733C96.5727,238.67296 97.08284,238.85982 98.176,239.22566C98.75707,239.42012 99.99911,239.81964 100.66483,240.017C101.35776,240.22243 102.08058,240.42538 102.82933,240.638C103.60425,240.85805 104.40495,241.08545 105.22784,241.33101C106.07567,241.58401 107.83502,242.1451 108.74284,242.4595C109.67108,242.78099 110.61065,243.1243 111.56133,243.478C112.52167,243.83528 113.48524,244.20227 114.45184,244.5685C115.41724,244.93428 117.33247,245.65239 118.27834,245.99516C119.21249,246.33368 120.13795,246.66061 121.05334,246.98067C121.95795,247.29695 122.8534,247.6058 123.73833,247.91217C124.6134,248.21513 126.33374,248.81552 127.17834,249.1165C128.01373,249.4142 128.83827,249.71234 129.65334,250.006C130.45827,250.29601 131.25278,250.58223 132.03833,250.8595C132.81281,251.13286 134.33257,251.65233 135.078,251.89517C135.80994,252.13362 136.52928,252.35966 137.23199,252.58067C137.91663,252.79599 138.58203,253.0038 139.224,253.21217C139.84335,253.41321 141.00154,253.81258 141.536,254.01666C142.04951,254.21275 142.54245,254.4156 143.024,254.61667C143.50044,254.81561 143.97514,255.01875 144.45799,255.21667C144.95113,255.41881 145.99867,255.82047 146.56467,256.01685C147.15596,256.22202 147.77557,256.42252 148.41867,256.62735C149.08289,256.8389 149.76828,257.05179 150.47067,257.27383C151.18962,257.5011 152.66777,257.9801 153.42134,258.23834C154.18513,258.50006 154.95418,258.77429 155.72533,259.06332C156.50154,259.35425 157.27672,259.65836 158.04733,259.97833C158.81807,260.29837 160.33585,260.97812 161.07834,261.33801C161.81587,261.6955 162.53983,262.0665 163.25333,262.44202C163.95982,262.81387 164.65366,263.19077 165.33833,263.564C166.01364,263.9321 167.33162,264.6532 167.9785,264.995C169.23953,265.66129 169.86249,265.97305 170.47917,266.27499C171.08788,266.57303 171.69199,266.86282 172.29866,267.13C174.08961,267.91873 174.69756,268.13339 175.291,268.3685C175.87889,268.60141 177.0313,269.07074 177.58566,269.32651C178.13268,269.57889 179.66469,270.44846 180.12933,270.78467C181.04364,271.44626 181.4575,271.81766 182.291,272.51132C182.69693,272.84915 183.89426,273.78259 184.30133,274.04599C185.09947,274.56241 185.93269,275.00201 186.35716,275.20767C187.65686,275.83734 188.58545,276.21774 189.05716,276.42117C190.02109,276.83691 190.51596,277.04117 191.50133,277.50201C192.50554,277.97168 193.50345,278.50055 194.009,278.77383C194.52213,279.05121 195.57108,279.62909 196.11433,279.92117C196.66972,280.21979 197.82877,280.82617 199.07066,281.41666C199.71202,281.72159 200.37117,282.01852 201.04167,282.31668C201.72049,282.61856 202.4086,282.91757 203.10266,283.21667C204.49921,283.81851 205.20035,284.11563 205.89867,284.418C206.59602,284.71997 207.29071,285.02429 207.97917,285.33749C208.66539,285.64966 209.35989,285.94089 211.33333,286.98334C211.98465,287.32739 212.619,287.69919 213.25183,288.07382C213.88701,288.44986 214.52065,288.8378 215.16133,289.22733C215.80963,289.62146 216.46277,290.02933 217.83333,290.81668C218.53949,291.22235 219.2675,291.61877 220.00983,292.01218C220.75951,292.40948 221.51942,292.79861 222.28534,293.18066C223.05045,293.56229 223.81415,293.93811 225.33333,294.64999C226.07663,294.99832 226.8112,295.33176 227.53383,295.655C228.2419,295.97171 228.93692,296.27631 229.61734,296.57001C230.28062,296.85629 230.92697,297.13245 232.16667,297.64999C233.32837,298.13495 233.88661,298.36179 234.42799,298.59134C235.48051,299.03766 236.00165,299.24725 237.5,299.98334C238.00369,300.23077 238.504,300.49481 239.5,301.05267C240.00204,301.33386 241.00055,301.92026 241.5,302.21802C242.5011,302.81485 243.49841,303.41577 243.9955,303.71216C244.48907,304.00644 245.46257,304.58316 245.94284,304.8595C247.32921,305.6572 247.77693,305.89777 248.63834,306.3595C249.457,306.79831 250.24641,307.19775 251.33333,307.81668C252.01988,308.20764 252.66638,308.61298 253.28934,309.01666C253.90102,309.41306 254.8,310.01666 255.7,310.61667C256.29999,311.01666 256.89902,311.41812 257.79965,312.01633C258.39035,312.40866 259.18811,313.02106 260.16666,313.48334C260.91187,313.83539 261.92728,313.6637 262.70001,314.10199C263.38834,314.49243 263.91595,315.48993 264.8045,315.75949C265.63135,316.01031 266.41739,315.83255 267.2475,316.15967C267.62244,316.30743 269.03256,317.1412 269.616,317.53C270.25992,317.95908 270.94876,318.44226 271.6875,318.96249C272.47278,319.5155 273.29639,320.10382 274.164,320.70999C275.99561,321.98965 276.96262,322.64008 277.952,323.30066C278.9566,323.97144 279.97601,324.642 281,325.31668C282.02399,325.99133 283.04434,326.66046 284.048,327.33267C286.00461,328.64313 286.93652,329.29276 287.84134,329.92734C288.72083,330.54413 289.57013,331.14948 290.39584,331.73334C291.19547,332.29877 291.96783,332.84702 292.72534,333.35934C294.15857,334.32874 294.85373,334.75757 295.52933,335.16068C296.18256,335.55042 296.82596,335.91241 297.45834,336.25418C298.07669,336.58835 298.69,336.90515 299.29733,337.21268C300.49802,337.82062 301.09933,338.11633 301.69467,338.414C302.28201,338.70767 302.85733,338.99533 303.41666,339.27499C303.95599,339.54468 304.47134,339.80234 304.95868,340.04599C305.83334,340.48331 306.21408,340.67319 306.55734,340.84601C306.86703,341.00192 307.14532,341.14468 307.39584,341.27499L307.62134,341.39532L307.82483,341.50766L308.00934,341.61401" id="svg_13" stroke-width="3" stroke="#000" fill="none"/>
  <path t="78354,78488,78489,78489,78511,78511,78511,78511,78511,78523,78524,78524,78524,78524,78524,78524,78543,78543,78544,78544,78544,78544,78544,78563,78563,78563,78563,78563,78563,78563,78563,78579,78579,78579,78579,78579,78579,78579,78579,78595,78595,78595,78595,78595,78595,78595,78595,78613,78613,78613,78613,78613,78630,78630,78630,78630,78630,78630,78647,78647,78647,78647,78647,78647,78647,78659,78659,78659,78659,78659,78680,78681,78681,78681,78681,78681,78697,78697,78697,78714,78714,78714,78714,78714,78730,78731,78731,78731,78747,78747,78747,78747,78763,78763,78763,78763,78763,78779,78779,78779,78796,78796,78796,78796,78813,78813,78813,78813,78830,78830,78830,78830,78847,78847,78847,78866,78866,78866,78866,78866,78882,78882,78882,78882,78882,78899,78899,78899,78899,78899,78916,78916,78916,78933,78933,78933,78933,78948,78948,78948,78948,78966,78967,78967,78967,78983,78983,78983,78983,79001,79001,79001,79001,79001,79018,79018,79018,79018,79018,79037,79037,79037,79037,79037,79052,79052,79052,79053,79070,79070,79087,79087,79104" d="M180.5,280.81668C178.47667,280.81668 177.60667,280.81668 176.92667,280.81668C175.75684,280.81668 174.88116,280.81668 174.41733,280.81668C173.44267,280.81668 172.412,280.81668 171.33333,280.81668C170.77834,280.81668 169.63834,280.81668 169.05333,280.81668C167.85333,280.81668 167.23833,280.81668 166.61333,280.81668C165.33333,280.81668 164.01466,280.81668 163.34283,280.81668C162.664,280.81668 161.97917,280.81668 161.28934,280.81668C160.5955,280.81668 158.5,280.81668 157.8,280.81668C157.10001,280.81668 156.39999,280.81668 155.7,280.81668C155,280.81668 154.3,280.81668 152.89999,280.81668C151.5,280.81668 150.8,280.81668 150.10001,280.81668C149.39999,280.81668 148.7,280.81668 148,280.81668C146.60001,280.81668 145.89999,280.81635 144.5,280.81668C143.80051,280.81686 143.10397,280.81625 142.4135,280.82568C141.73195,280.83499 140.40742,280.88077 139.7715,280.931C139.15535,280.97968 137.46031,281.24457 136.95467,281.38733C135.98878,281.66003 135.09442,282.03433 134.65633,282.22568C133.32845,282.80563 132.88126,283.02362 131.93834,283.41666C130.9613,283.82391 130.45461,284.01993 129.93834,284.21667C128.33717,284.82684 127.77908,285.01736 127.21733,285.21667C126.08585,285.6181 125.51907,285.8118 124.40984,286.21667C123.86845,286.41428 122.82895,286.80627 121.86933,287.21667C120.95706,287.60681 120.5217,287.81857 119.65183,288.21667C118.33463,288.81952 117.88029,289.01956 116.95634,289.41217C116.49664,289.60751 115.59593,289.97733 114.75467,290.33133C113.66232,290.79099 112.78471,291.18729 112.26,291.44202C111.16251,291.97485 110.53217,292.30652 109.828,292.642C109.08161,292.99759 108.30807,293.36148 107.10017,293.79517C106.31106,294.07849 105.52124,294.29727 104.75716,294.51218C103.66724,294.81873 102.97675,294.99533 102.336,295.23801C101.39053,295.59607 100.48883,296.13498 99.9,296.58466C99.28801,297.05203 98.72115,297.59357 98.1,298.04868C96.93723,298.90063 96.3,299.15533 95.7,299.43134C94.5,299.98334 93.89388,300.29172 93.3,300.65268C92.39034,301.20557 91.50185,301.81949 90.9,302.21533C90.30183,302.60876 89.41568,303.18945 88.5,303.64999C87.61863,304.09329 87.00289,304.27982 86.18533,304.70068C85.40243,305.1037 84.72568,305.66699 83.99017,306.22116C83.1785,306.8327 82.53487,307.22653 81.828,307.61667C81.08434,308.0271 80.29759,308.41718 79.1,309.01666C78.70008,309.21686 77.9,309.61667 77.1,310.01666C76.3,310.41666 75.5,310.81668 74.70267,311.21533C73.92133,311.60599 73.17176,311.98019 72.47066,312.33133C71.26893,312.93317 70.50686,313.31595 70.05183,313.6265C69.0454,314.31335 68.54237,314.82602 67.97916,315.33749C67.39503,315.86798 66.5125,316.66605 65.9,317.13C65.01739,317.79858 64.41717,318.18756 63.5,318.64999C62.61541,319.09598 61.99429,319.30353 61.4,319.56934C60.1876,320.1116 59.59376,320.47092 58.97917,320.83749C58.34101,321.21814 57.33696,321.82327 56.61467,322.21667C55.86769,322.6235 55.09018,323.01834 54.29867,323.41666C53.10128,324.01923 52.7,324.21667 51.9,324.61667C51.1,325.01666 50.29966,325.41599 49.10017,326.01666C48.70122,326.21646 47.90806,326.61166 47.136,327.01666C46.38276,327.4118 45.31886,328.01187 44.66167,328.41217C44.03898,328.79144 43.1944,329.34439 42.18667,329.93134C41.54647,330.3042 40.66667,330.81668 40.02083,331.29584L39.3,331.73267" id="svg_14" stroke-width="3" stroke="#000" fill="none"/>
  <path t="82932,82965,82983,82983,82983,83000,83000,83000,83000,83000,83019,83019,83019,83019,83019,83037,83037,83037,83037,83037,83037,83037,83055,83055,83055,83055,83055,83055,83055,83055,83069,83069,83070,83070,83070,83070,83070,83070,83089,83090,83090,83090,83090,83090,83090,83090,83090,83106,83107,83107,83107,83107,83107,83107,83107,83107,83121,83121,83121,83121,83121,83121,83121,83121,83121,83140,83140,83140,83140,83140,83140,83140,83157,83157,83157,83157,83157,83157,83157,83173,83173,83173,83173,83173,83173,83173,83190,83190,83190,83190,83190,83209,83209,83210,83210,83210,83210,83230,83230,83230,83230,83230,83230,83230,83230,83247,83247,83247,83247,83247,83247,83264,83264,83264,83264,83264,83264,83280,83280,83280,83280,83280,83280,83298,83298,83298,83298,83298,83313,83313,83313,83313,83313,83330,83330,83330,83330,83330,83347,83347,83347,83365,83365,83365,83365,83381,83381,83381,83397,83397,83397,83397,83415,83415,83415,83415,83430,83430,83430,83431,83448,83448,83448,83465,83465,83481,83481,83481,83499,83499,83500,83516,83516,83516,83534,83534,83534,83552,83552,83552,83568,83568,83568,83568,83568,83585,83585,83585,83585,83602,83602,83603,83603,83603,83620,83620,83620,83620,83637,83637,83637,83637,83654,83654,83654,83671,83671,83671,83671,83687,83687,83687,83704,83704,83704,83704,83722,83722,83722,83740,83740,83741,83762,83762,83762,83783,83783,83798,83798,83816,83816,83833,83854,83897,83913,83936,83936,83962,83984,84021,84036,84036,84054,84055" d="M2.5,169.81667C5.02083,169.81667 6.04317,169.81667 6.78267,169.81667C7.66617,169.81667 8.66667,169.81667 9.38667,169.81667C10.14667,169.81667 10.94667,169.81667 11.78667,169.81667C13.12167,169.81667 14.06167,169.81667 14.54667,169.81667C15.54667,169.81667 16.06167,169.81667 17.66667,169.81667C18.22167,169.81667 19.36167,169.81667 19.94667,169.81667C20.54167,169.81667 21.76167,169.81667 22.38667,169.81667C23.66667,169.81667 24.32167,169.81667 25.66167,169.81667C26.34667,169.81667 27.04167,169.81667 27.74667,169.81667C28.46167,169.81667 29.18667,169.81667 30.66667,169.81667C31.42133,169.81667 32.184,169.81667 32.95267,169.81667C33.72533,169.81667 34.5,169.81667 36.04733,169.81667C36.816,169.81667 38.33333,169.81667 39.07883,169.81667C39.81733,169.81667 40.55183,169.81667 41.28533,169.81667C42.02083,169.81667 42.76133,169.81667 43.50983,169.81667C44.26933,169.81667 45.83333,169.81667 46.64283,169.81667C47.46933,169.81667 48.30983,169.81667 49.16133,169.81667C50.02083,169.81667 50.88533,169.81667 51.75183,169.81667C52.61733,169.81667 54.33333,169.81667 55.178,169.81667C56.01067,169.81667 56.82933,169.81667 57.632,169.81667C58.41667,169.81667 59.18133,169.81667 59.924,169.81667C60.64267,169.81667 62,169.81667 62.63583,169.81667C63.8375,169.81667 64.41333,169.81667 64.97916,169.81667C66.10083,169.81667 66.66666,169.81667 68.44283,169.81667C69.06934,169.81667 69.70983,169.81667 70.36134,169.81667C71.68533,169.81667 72.35183,169.81667 73.01733,169.81667C74.33334,169.81667 74.97819,169.82069 76.23383,169.81216C76.84268,169.80803 77.43791,169.8071 78.58117,169.75951C79.12825,169.73672 80.65858,169.60503 81.59016,169.464C82.0394,169.39601 82.91198,169.22437 83.78267,169.10066C85.11843,168.91087 85.589,168.89494 86.568,168.842C87.61835,168.78519 88.17631,168.76927 88.75733,168.73267C90.66517,168.61246 91.35229,168.53415 92.058,168.4595C92.77631,168.38353 93.5003,168.2982 94.224,168.20601C94.94231,168.1145 95.65038,168.03073 97.6355,167.71651C98.24477,167.62006 98.83085,167.52388 99.9375,167.29584C100.46919,167.18628 101.50095,166.94841 102.5,166.65001C103.50526,166.34976 104.00031,166.16489 105,165.81667C105.50015,165.64244 106.49495,165.28429 107.5,164.98334C108.49393,164.68571 108.99376,164.56648 109.97916,164.33751C110.94119,164.11397 111.41602,164.02406 112.77866,163.71667C113.64821,163.52052 114.49975,163.31558 115.35267,163.11667C115.78387,163.01611 117.12103,162.71524 118.05267,162.51666C118.52518,162.41594 119.4752,162.21916 120.416,162.01666C121.33386,161.81909 122.21255,161.61453 123.05334,161.42734C123.85261,161.24937 124.60853,161.06509 126.01466,160.90067C126.66223,160.82494 127.60102,160.80153 128.5,160.65001C129.40714,160.4971 130.00279,160.30466 130.89999,160.01534C132.10387,159.62712 132.71071,159.43263 133.60001,159.05951C134.51178,158.67696 135.10107,158.33455 136,157.81667C136.60072,157.47058 137.49187,156.96507 138.4045,156.56934C139.01563,156.30434 139.66519,156.08289 141.02116,155.4955C141.75264,155.17863 142.47246,154.82167 143.19017,154.5265C144.15808,154.12845 144.98708,153.93408 145.67867,153.802C146.70219,153.60654 147.47632,153.2347 148.5,152.98334C149.29744,152.78754 149.9572,152.82513 150.92134,152.8165C151.72536,152.8093 152.56085,152.82913 153.57866,152.59534C154.51678,152.37985 155.17549,152.05191 156.18533,151.90067C157.01578,151.77629 157.90659,151.7635 158.80017,151.59534C159.71713,151.42278 160.32698,151.19029 161.66667,150.98334C162.38159,150.87289 163.13623,150.84538 163.91066,150.79134C164.70158,150.73613 165.90131,150.6031 166.7,150.464C167.50139,150.32443 168.29567,150.13881 169.5,149.98334C170.29764,149.88037 171.10027,149.84598 171.89999,149.79134C172.70029,149.73665 173.90134,149.60419 174.6955,149.464C175.48076,149.32539 176.23767,149.13606 177.33333,148.98334C178.33904,148.84315 178.97902,148.82854 179.89867,148.81801C180.79994,148.80769 181.70215,148.83722 182.60001,148.75951C183.50327,148.68132 184.40302,148.47023 185,148.29584C185.90488,148.03151 187.09692,147.60803 187.7,147.42734C188.59569,147.15897 189.49792,146.96552 190.39999,146.86934C191.29828,146.77356 191.90898,146.78038 193.10001,146.53134C193.70554,146.40472 194.60022,146.11284 195.5,145.81667C196.39571,145.52184 197.25258,145.20233 198.33333,144.98334C199.03693,144.84076 199.89549,144.81892 200.89999,144.81667C201.7,144.81488 202.69983,144.81673 203.47917,144.81667C204.4785,144.81657 205.19655,144.76141 206,144.31667C206.79655,143.87573 207.7215,143.81667 208.60001,143.81667C209.5,143.81667 210.3,143.81667 211.2,143.81667C212.14284,143.81667 213.04167,143.81667 213.98534,143.81667L214.71066,143.81667L215.7,143.81667L216.5,143.81667" id="svg_15" stroke-width="3" stroke="#000" fill="none"/>
  <path t="84760,84865,84880,84880,84900,84900,84900,84915,84915,84915,84915,84933,84933,84933,84950,84950,84950,84968,84968,84968,84968,84984,84984,84984,85001,85001,85001,85018,85018,85018,85018,85035,85035,85036,85055,85055,85055,85055,85072,85072,85072,85090,85090,85090,85105,85105,85105,85105,85122,85122,85122,85122,85122,85141,85141,85141,85141,85156,85156,85156,85174,85174,85174,85174,85191,85192,85192,85212,85212,85212,85212,85232,85232,85232,85249,85249,85249,85249,85266,85266,85266,85266,85283,85283,85283,85294,85294,85294,85294,85294,85315,85315,85315,85334,85334,85334,85334,85349,85350,85350,85366,85366,85383,85383,85383,85397,85397,85415,85416,85433,85433,85449,85450,85467,85484,85498,85498,85516" d="M282.5,134.81667C284.25717,134.81667 285.15717,134.81667 285.90451,134.81667C286.90399,134.81667 287.80801,134.81667 288.35599,134.81667C289.75201,134.81667 290.57599,134.81667 291,134.81667C291.84201,134.81667 293.33566,134.81667 293.93301,134.81667C294.94366,134.81667 295.92151,134.81667 296.73599,134.81667C297.31067,134.81667 298.5,134.81667 299.39999,134.81667C300,134.81667 300.90002,134.82533 302.10001,134.81534C302.70007,134.81033 303.60748,134.80708 304.79999,134.59534C305.40475,134.48796 306.29111,134.19659 307.5,133.98334C308.09647,133.87811 309.00284,133.84288 309.89999,133.73267C310.80362,133.62166 311.69772,133.38184 312.29999,133.242C313.49576,132.96439 314.39941,132.86218 315,132.83751C315.89944,132.80055 317.10001,132.81667 317.70001,132.81667C318.60001,132.81667 319.80011,132.82483 320.39999,132.81216C321.30032,132.79317 322.50354,132.66676 323.10132,132.53134C324.02707,132.32162 324.65497,132.10455 325.66666,131.81667C326.38382,131.61258 327.13318,131.41435 327.91068,131.25267C328.6987,131.08881 329.89868,130.92189 330.6955,130.87384C331.86282,130.80345 332.61465,130.81734 333.6785,130.81667C334.34283,130.81625 335.28934,130.81667 336.5,130.81667C337.10001,130.81667 338,130.81667 338.89999,130.81667C339.79999,130.81667 340.70001,130.81667 341.60001,130.81667C342.5,130.81667 343.39999,130.81667 344.29999,130.81667C344.89999,130.81667 346.10132,130.81667 347.02084,130.81667C347.65717,130.81667 348.66666,130.81667 349.75266,130.81667C350.5,130.81667 351.24734,130.81667 352.33334,130.81667C353.01468,130.81667 353.97916,130.81676 354.89868,130.81667C355.80017,130.81657 356.71164,130.82393 357.336,130.78067C358.66986,130.68825 359.38623,130.54189 360.12534,130.38068C360.87708,130.21671 361.6178,130.02162 362.6785,129.71684C363.66571,129.43318 364.27762,129.19315 365.5,128.98334C366.39355,128.82997 366.99985,128.82826 367.89999,128.81801C369.09857,128.80435 369.68933,128.81674 370.54285,128.81667C371.57849,128.81657 372.49673,128.88843 373.5,128.65001C374.32123,128.45485 374.89255,128.09682 375.89999,127.618C376.69434,127.24048 377.50034,126.98519 378.28934,126.842C379.3338,126.65246 379.95233,126.18852 380.82132,125.93817C381.64819,125.69996 382.61465,125.81667 383.60001,125.81667L384.5,125.81667L385.29999,125.81667L386.20001,125.81667" id="svg_16" stroke-width="3" stroke="#000" fill="none"/>
  <path t="86276,86422,86422,86422,86422,86423,86439,86439,86439,86439,86439,86439,86439,86456,86456,86456,86456,86456,86456,86456,86456,86456,86474,86474,86474,86474,86474,86474,86474,86474,86474,86491,86491,86491,86491,86491,86491,86491,86491,86512,86512,86512,86512,86512,86532,86532,86532,86532,86532,86548,86548,86548,86548,86565,86565,86565,86565,86565,86578,86578,86598,86598,86614,86614,86631,86631,86649,86668,86685,86685,86702,86722,86759,86759,86783,86818,86818,86836,86855,86869,86870,86889,86889,86906,86957" d="M413.5,122.81667C416.75867,122.81667 417.18051,122.81667 418.10416,122.81667C419.12784,122.81667 419.67465,122.81667 420.83334,122.81667C422.07199,122.81667 422.71884,122.81667 423.38266,122.81667C424.0625,122.81667 424.75732,122.81667 426.18799,122.81667C427.66666,122.81667 428.42151,122.81667 429.18533,122.81667C429.95715,122.81667 430.73599,122.81667 431.52084,122.81667C432.31067,122.81667 433.10449,122.81667 433.90134,122.81667C435.5,122.81667 436.29984,122.81751 437.09866,122.81534C437.89551,122.81317 438.68936,122.80855 439.47916,122.79584C440.26404,122.7832 441.04312,122.76608 441.81467,122.73134C443.33398,122.66293 444.07843,122.59982 444.81067,122.53133C445.52975,122.46407 446.23346,122.39162 447.58133,122.206C448.22473,122.11739 448.84567,122.03185 450.53549,121.71667C451.04495,121.62164 451.99329,121.42216 452.86801,121.21667C453.69727,121.02187 454.50095,120.82041 455.29999,120.61533C456.10098,120.40975 456.90598,120.1991 457.70001,119.93134C458.90976,119.52338 459.6965,119.15987 460.5,118.8375C461.2966,118.51791 462.49707,118.13597 462.89966,118.0595C464.07159,117.83689 464.83084,117.82679 465.52933,117.734C466.73444,117.57391 467.47107,117.3539 468.33334,116.81667C469.03015,116.38252 469.8269,115.96741 470.67465,115.79134C471.48477,115.62307 472.14261,115.05318 472.89999,114.42734C473.55832,113.88336 474.53824,113.99021 475.29999,113.73134C476.18793,113.42958 476.88882,112.83467 477.83334,112.81667C478.64917,112.80112 479.58267,112.81667 480.5,112.81667C481.29999,112.81667 482.20001,112.81667 483.13599,112.81667C483.98532,112.81667 484.71066,112.81667 485.69983,112.81667L486.664,112.81667L487.61465,112.81667L488.5,112.81667" id="svg_17" stroke-width="3" stroke="#000" fill="none"/>
  <path t="87921,88043,88043,88043,88062,88062,88062,88062,88062,88062,88062,88062,88082,88082,88082,88082,88082,88082,88082,88082,88082,88097,88097,88097,88097,88097,88097,88097,88097,88097,88115,88115,88115,88115,88115,88115,88115,88115,88115,88131,88131,88131,88131,88131,88131,88131,88131,88131,88147,88147,88147,88147,88148,88148,88148,88148,88148,88165,88165,88165,88165,88165,88165,88165,88165,88165,88181,88181,88181,88181,88181,88181,88182,88182,88182,88201,88201,88201,88201,88201,88201,88201,88201,88201,88219,88220,88220,88220,88220,88220,88220,88220,88220,88237,88237,88237,88237,88237,88237,88237,88237,88237,88253,88253,88253,88254,88254,88254,88254,88254,88254,88269,88269,88269,88269,88269,88269,88269,88269,88269,88286,88286,88287,88287,88287,88287,88287,88287,88287,88303,88303,88303,88303,88303,88303,88303,88303,88304,88320,88320,88320,88320,88321,88321,88321,88321,88321,88338,88338,88338,88338,88338,88339,88339,88339,88339,88378,88378,88378,88378,88378,88378,88378,88378,88378,88392,88392,88392,88392,88392,88392,88392,88392,88392,88409,88409,88409,88410,88410,88410,88410,88410,88410,88429,88429,88429,88429,88429,88429,88429,88429,88429,88749,88749,88749,88749,88749,88750,88750,88750,88750,88766,88766,88766,88766,88766,88766,88766,88767,88767,88783,88783,88783,88783,88783,88783,88783,88783,88783,88800,88801,88801,88801,88801,88801,88801,88801,88801,88817,88817,88817,88817,88817,88818,88818,88818,88818,88834,88834,88834,88834,88834,88834,88834,88834,88835,88853,88853,88853,88853,88853,88853,88853,88853,88854,88870,88870,88870,88870,88871,88871,88871,88871,88871,88886,88886,88886,88886,88886,88886,88886,88886,88886,88904,88904,88904,88904,88904,88904,88904,88904,88904,88923,88923,88923,88924,88924,88924,88924,88924,88924,88937,88937,88938,88938,88938,88938,88938,88938,88938,88955,88955,88955,88955,88956,88956,88956,88956,88956,88974,88975,88975,88975,88975,88975,88975,88975,88976,88990,88990,88990,88991,88991,88991,88991,88991,88991,89009,89009,89009,89009,89010,89010,89010,89010,89010,89029,89030,89030,89030,89030,89030,89030,89030,89030,89051,89051,89051,89051,89051,89051,89051,89051,89052,89067,89067,89068,89068,89068,89068,89068,89068,89068,89085,89085,89085,89085,89085,89085,89086,89086,89086,89101,89101,89101,89101,89101,89101,89101,89101,89102,89116,89116,89116,89116,89116,89117,89117,89117,89117,89134,89134,89134,89135,89135,89135,89135,89135,89135,89152,89152,89152,89152,89152,89152,89152,89153,89153,89164,89164,89164,89164,89164,89164,89164,89165,89165,89183,89184,89184,89184,89184,89184,89184,89184,89184,89201,89201,89201,89201,89202,89202,89202,89202,89202,89214,89214,89214,89214,89214,89214,89214,89215,89215,89235,89235,89236,89236,89236,89236,89236,89236,89236,89252,89252,89252,89252,89252,89252,89252,89252,89253,89264,89264,89264,89264,89264,89264,89264,89264,89265,89286,89287,89287,89287,89287,89287,89287,89287,89287,89299,89299,89299,89299,89299,89299,89299,89299,89300,89316,89317,89317,89317,89317,89317,89317,89317,89317,89334,89334,89335,89335,89335,89352,89352,89352,89368,89368,89369,89383,89383,89383,89403,89418,89418,89435,89464,89487,89513,89533,89552" d="M6.5,124.81667C8.41067,124.81667 8.96267,124.81667 9.69867,124.81667C11.2515,124.81667 11.90533,124.81667 12.62717,124.81667C13.416,124.81667 14.27083,124.81667 15.19067,124.81667C16.1745,124.81667 17.22133,124.81667 19.5,124.81667C20.72983,124.81667 22.01867,124.81667 23.3655,124.81667C24.76933,124.81667 26.22917,124.81667 27.744,124.81667C29.31283,124.81667 30.93467,124.81667 34.33333,124.81667C36.108,124.81667 37.93067,124.81667 39.79933,124.81667C41.712,124.81667 43.66667,124.81667 45.66133,124.81667C47.694,124.81667 49.76266,124.81667 54,124.81667C56.16367,124.81667 58.34933,124.81667 60.549,124.81667C62.75467,124.81667 64.95834,124.81667 67.152,124.81667C69.32767,124.81667 71.47733,124.81667 75.66666,124.81667C77.69283,124.81667 79.676,124.81667 81.62317,124.81667C83.54134,124.81667 85.4375,124.81667 87.31866,124.81667C89.19183,124.81667 91.064,124.81667 94.83334,124.81667C96.74267,124.81667 98.668,124.81667 100.60533,124.81667C102.55067,124.81667 104.5,124.81667 106.44933,124.81667C108.39467,124.81667 110.332,124.81667 114.16666,124.81667C116.0565,124.81667 117.92533,124.81667 119.77216,124.81667C121.596,124.81667 123.39584,124.81667 125.17067,124.81667C126.9195,124.81667 128.64133,124.817 132,124.81667C133.6355,124.8165 135.24402,124.81709 136.82851,124.80767C138.39201,124.79838 139.93764,124.78116 141.468,124.74467C142.98665,124.70845 144.49768,124.67442 147.5,124.48334C149.00014,124.38786 150.49409,124.25372 151.97749,124.10233C153.44746,123.95232 154.89659,123.78092 156.32001,123.59534C157.71494,123.41347 159.07526,123.22637 161.66667,122.81667C162.89362,122.62269 164.07487,122.41925 165.21867,122.22117C166.33089,122.02856 167.41637,121.83575 168.48267,121.65267C169.53438,121.47211 170.57639,121.28675 172.66667,120.98334C173.71976,120.83048 174.77962,120.69884 175.83917,120.57384C176.89296,120.44952 177.93739,120.33656 178.96666,120.22733C179.97574,120.12025 180.96063,120.02378 182.83333,119.81667C183.71448,119.71922 184.56039,119.61845 185.37584,119.51217C186.16707,119.40903 186.93808,119.29956 187.69333,119.18067C188.43976,119.06318 189.18219,118.9427 190.66667,118.65C191.42183,118.50111 192.17929,118.33545 192.93466,118.164C193.68329,117.99408 194.41719,117.8188 195.13066,117.64201C195.81918,117.4714 196.4761,117.30604 197.66667,116.98334C198.1935,116.84055 198.67618,116.70265 199.12317,116.57384C199.54152,116.45328 199.93727,116.3367 200.31866,116.22733C200.6916,116.12038 201.06233,116.01152 201.83333,115.81667C202.24197,115.71339 202.66878,115.61548 203.10983,115.52117C203.56079,115.42475 204.02028,115.33443 204.48534,115.25267C204.95129,115.17075 205.41579,115.08949 206.33333,114.98334C206.77768,114.93193 207.21321,114.89901 207.63834,114.86934C208.05322,114.84038 208.45842,114.81802 208.85333,114.79134C209.23842,114.76532 209.61526,114.74806 210.33333,114.65C210.67943,114.60274 211.01399,114.53568 211.33833,114.464C211.65399,114.39426 211.95839,114.31693 212.25333,114.242C212.53839,114.16959 212.81111,114.09029 213.33333,113.98334C213.57771,113.93329 213.81561,113.89872 214.04733,113.87383C214.27435,113.84945 214.49992,113.83548 214.72533,113.82734C214.95261,113.81913 215.18401,113.81734 215.66667,113.81667C215.92117,113.81631 216.18266,113.81667 216.44817,113.81667C216.71466,113.81667 216.97917,113.81667 217.23866,113.81667C217.49017,113.81667 217.73067,113.81667 218.16667,113.81667C218.35699,113.81667 218.52933,113.81667 218.68567,113.81667C218.828,113.81667 218.95833,113.81667 219.07866,113.81667C219.19099,113.81667 219.29733,113.81667 219.5,113.81667C219.60001,113.81667 219.7,113.81667 219.8,113.81667C219.89999,113.81667 220,113.81667 220.10001,113.81667C220.2,113.81667 220.3,113.81667 220.5,113.81667C220.60017,113.81667 220.70134,113.81667 220.8045,113.81667C220.91066,113.81667 221.02083,113.81667 221.136,113.81667C221.25717,113.81667 221.38533,113.81667 221.66667,113.81667C221.82184,113.81667 221.98801,113.81667 222.16617,113.81667C222.35733,113.81667 222.5625,113.81667 222.78267,113.81667C223.01883,113.81667 223.272,113.81667 223.83333,113.81667C224.14349,113.81667 224.47467,113.81667 224.82784,113.81667C225.20399,113.81667 225.60417,113.81667 226.02933,113.81667C226.4805,113.81667 226.95866,113.81667 228,113.81667C228.56517,113.81667 229.16133,113.81667 229.78951,113.81667C230.45067,113.81667 231.14583,113.81667 231.87601,113.81667C232.64217,113.81667 233.44533,113.81697 235.16667,113.81667C236.08583,113.8165 237.04001,113.81685 238.02417,113.80767C239.03337,113.79826 240.06268,113.78079 241.10667,113.74467C242.16104,113.70818 243.22246,113.67525 245.33333,113.48334C246.38025,113.38816 247.41832,113.25292 248.45183,113.10233C249.48637,112.95159 250.52138,112.77819 251.56134,112.59534C252.6104,112.41088 253.66866,112.21036 255.83333,111.81667C256.94232,111.61497 258.06763,111.41589 259.20532,111.22117C260.35031,111.02521 261.49957,110.83488 262.64932,110.65267C263.79428,110.47122 264.93054,110.2916 267.16666,109.98334C268.25647,109.8331 269.33032,109.69918 270.39017,109.57384C271.43832,109.44987 272.47897,109.33562 273.51468,109.22733C274.54797,109.11929 275.58249,109.01618 277.66666,108.81667C278.72092,108.71574 279.78134,108.61676 280.84366,108.51667C281.90399,108.41676 282.9584,108.31734 284.00266,108.21667C285.03305,108.11733 286.04581,108.02125 288,107.81667C288.93591,107.71869 289.84564,107.6179 290.733,107.51217C291.60297,107.40852 292.4588,107.2992 293.30399,107.18067C294.14417,107.06284 294.98328,106.94286 296.66666,106.65C297.52203,106.50119 298.38177,106.33479 299.24365,106.164C300.10443,105.99344 300.95844,105.81711 301.80267,105.64201C302.63309,105.46977 303.44431,105.29556 305,104.98334C305.73535,104.83575 306.44626,104.69992 307.13751,104.57384C307.81296,104.45063 308.47882,104.33556 309.14001,104.22733C309.80054,104.11922 310.46606,104.01385 311.83334,103.81667C312.54285,103.71434 313.27203,103.61565 314.01883,103.51217C314.78268,103.40633 315.56277,103.29774 316.35733,103.18067C317.16644,103.06145 317.98987,102.94218 319.66666,102.65C320.52249,102.50087 321.38559,102.33394 322.25717,102.164C323.13623,101.99261 324.02057,101.81533 324.91068,101.64201C325.80426,101.468 326.69904,101.28735 328.5,100.98334C329.39841,100.83168 330.29538,100.69901 331.18649,100.57834C332.06741,100.45905 332.93707,100.35429 333.79199,100.26334C334.62811,100.17438 335.44315,100.09148 337,99.98334C337.73581,99.93223 338.44934,99.89906 339.14651,99.86484C339.83466,99.83106 340.52106,99.79941 341.21201,99.75533C341.91541,99.71046 342.63959,99.66727 344.16666,99.48334C344.98703,99.38452 345.83923,99.25089 346.71967,99.10683C347.62329,98.95898 348.54178,98.79646 349.47067,98.63133C350.40378,98.46546 351.33328,98.29123 353.16666,97.98334C354.05652,97.8339 354.93073,97.69969 355.79016,97.56483C356.63873,97.43169 357.47986,97.29989 358.31467,97.15533C359.14886,97.01089 359.98779,96.87026 361.66666,96.48334C362.52429,96.28568 363.38611,96.05148 364.25717,95.81133C365.13678,95.56883 366.02017,95.3143 366.91068,95.06734C367.80386,94.81963 368.69528,94.55885 370.5,94.15C371.39703,93.94679 372.29755,93.78075 373.1955,93.631C374.08826,93.48212 374.97867,93.35479 375.86401,93.23801C376.74237,93.12215 377.61469,93.01969 379.33334,92.81667C380.17838,92.71684 381.0134,92.61728 381.83835,92.51667C382.65338,92.41727 383.45844,92.31729 384.25333,92.21667C385.03842,92.11729 385.81357,92.01846 387.33334,91.81667C388.07861,91.71771 388.81454,91.61698 389.54285,91.52117C390.26389,91.42632 390.97882,91.33476 391.68933,91.25267C392.3952,91.17111 393.09756,91.08813 394.5,90.98334C395.19934,90.93108 395.89859,90.89874 396.59549,90.86934C397.28925,90.84007 397.97919,90.81779 398.664,90.79134C399.34286,90.76511 400.01569,90.7473 401.33334,90.65C401.97891,90.60233 402.61383,90.53542 403.23834,90.4595C403.85382,90.38469 404.45877,90.29857 405.05334,90.206C405.63876,90.11486 406.2139,90.01842 407.33334,89.81667C407.87894,89.71834 408.41577,89.6169 408.94733,89.52117C409.47449,89.42624 409.99951,89.33443 410.52533,89.25267C411.05222,89.17075 411.58246,89.08687 412.66666,88.98334C413.22083,88.93042 413.78519,88.89838 414.35718,88.87383C414.93585,88.849 415.52081,88.83549 416.11066,88.82734C416.70447,88.81914 417.30133,88.81766 418.5,88.81667C419.09967,88.81617 419.69736,88.81707 420.29099,88.80767C420.87872,88.79837 421.45871,88.78143 422.02802,88.74467C422.58609,88.70863 423.13504,88.67902 424.16666,88.48334C424.66025,88.3897 425.1311,88.25439 425.58566,88.11134C426.02982,87.97157 426.45816,87.81614 426.87866,87.66734C427.2908,87.52149 427.69046,87.35974 428.5,87.15C428.89685,87.04719 429.29794,86.98078 429.6955,86.92651C430.08865,86.87283 430.4791,86.83678 430.86401,86.802C431.24277,86.76778 431.61652,86.74862 432.33334,86.65C432.67953,86.60238 433.01526,86.53533 433.34283,86.464C433.66458,86.39394 433.97903,86.31618 434.28934,86.242C434.59537,86.16885 434.8963,86.08778 435.5,85.98334C435.79913,85.93159 436.1011,85.89856 436.40451,85.86934C436.71048,85.83987 437.0209,85.81741 437.336,85.79134C437.65723,85.76476 437.98672,85.74362 438.66666,85.65C439.02216,85.60105 439.38431,85.53423 439.75266,85.464C440.12564,85.39291 440.49985,85.3159 440.87466,85.242C441.24719,85.16856 441.6142,85.08917 442.33334,84.98334C442.67773,84.93266 443.0144,84.89874 443.34283,84.87383C443.66379,84.84949 443.9791,84.83555 444.28934,84.82734C444.59546,84.81924 444.89868,84.81734 445.5,84.81667C445.79984,84.81633 446.09866,84.81667 446.39551,84.81667C446.68933,84.81667 446.97916,84.81667 447.26401,84.81667C447.54285,84.81667 447.81467,84.81683 448.33334,84.81667C448.57867,84.81658 448.81702,84.83773 449.5,84.79584C450.18573,84.75378 451.18402,84.52747 452.02084,84.31667C452.89996,84.0952 453.79907,83.93072 454.68933,83.842C455.54218,83.75701 456.59503,83.64198 457.25333,83.38067C458.03708,83.06954 458.81583,82.30033 459.66666,81.98334C460.44388,81.69376 461.10855,81.26221 461.85718,80.87383C462.69562,80.43887 463.70001,80.81667 464.60001,80.81667L465.5,80.81667" id="svg_18" stroke-width="3" stroke="#000" fill="none"/>
 </g>
</svg>