<svg width="500" height="333.3333333333333" xmlns="http://www.w3.org/2000/svg" xmlns:svg="http://www.w3.org/2000/svg" xmlns:xlink="http://www.w3.org/1999/xlink">
 <!-- Created with SVG-edit - http://svg-edit.googlecode.com/ -->
 <g display="inline" class="layer">
  <title>Layer 1</title>
  <path t="0,142,157,190,272,290,442,460,460,485,508,525,526,541,558,559,573,950,987,1044,1310,1329,1329,1345,1358,1358,1374,1391,1583" d="M143.5,139.66667C142.61333,139.66667 141.55598,139.96637 140.74283,139.44533C140.00897,138.9751 139.20222,138.98569 138.584,138.38133C137.96194,137.77324 137.68156,136.99281 136.89999,136.64133C136.07988,136.27251 135.39886,135.56778 134.8,134.96666C134.20338,134.36778 133.71196,133.53343 133.416,132.86667C133.03525,132.0089 132.39537,130.94638 133.11067,130.67734C133.94313,130.36424 134.9825,130.931 135.33333,131.83333C135.63123,132.59952 135.1785,133.42947 134.39999,133.888C133.76596,134.26144 132.936,134.692 132.416,135.38266L131.69867,135.66533" id="svg_1" stroke-width="3" stroke="#000" fill="none"/>
  <path t="2011,2061,2082,2089,2095,2112,2128,2128,2144,2160,2160,2178,2227,2250,2250,2262,2311,2361,2361,2378,2394,2442,2442,2466,2482,2483,2495,2522,2553,2569,2593,2612,2628,2628,2645,2679,2679,2695,2712,2712,2729,2746,2763,2763,2779,2779,2849,2879,2898,2946,2946,2987,3002,3002,3172,3188,3215,3230,3246,3437,3463,3483,3497,3514,3539,3562,3563,3586,3598,3614,3614,3631,3649,3649,3681,3682,3926,3949,3969,3993,4017,4017,4031,4051,4066,4082,4147,4147,4166,4182,4182,4199,4263,4299,4315,4315,4333,4333,4354,4355,4378,4378,4399,4399,4449,4466,4467,4482,4499,4521,4545,4546,4566,4583,4583,4602,4618,4635,4650,4682,4683,4700,4716,4732,4733,4749,4749,4750,4793,4793,4835,4858,4875,4875,4891,4918,4934,4969,4970,4983,5000,5025,5035,5073,5073,5085,5099,5117,5118,5118,5133,5134,5216,5235,5235,5251,5300,5317,5334,5334,5353,5368,5385,5401,5401,5418,5434,5452,5468,5468,5486,5486,5502,5517,5518,5518,5535,5551,5551,5569,5569,5569,5585,5586,5586,5586,5609,5609,5609,5625,5625,5634,5652,5653,5684,5705,5738,5738,5770,5770,5786,5787,5802,5820,5820,5836,5836,5854,5890,5891,5913,5937,5953,5953,5969,5970,5986,5986,6003,6003,6019,6019,6035,6052,6053,6069,6069,6086,6087,6102,6103,6119,6145,6170,6170,6187,6187,6204,6220,6237,6254,6254,6270,6270,6287,6287,6304,6304,6320,6320,6338,6339,6339,6339,6357,6357,6358,6358,6372,6372,6372,6388,6388,6404,6420,6421,6441,6454,6520,6561,6876,6907,6913" d="M132.5,131.66667C134.25717,131.66667 135.15271,131.67601 136.01601,131.66667C136.97934,131.65625 137.80688,131.31691 138.5,130.66667C139.00507,130.19284 139.94583,129.79123 140.7,129.38266C141.35007,129.03049 142.26126,128.7057 143,128.14583C143.66452,127.6422 144.45657,127.20869 145.14284,126.614C145.76172,126.07769 145.76027,124.9557 146.2045,124.3765C146.77849,123.62812 147.45065,123.1087 147.784,122.18267C148.0378,121.47762 148.45729,120.55508 148.5,119.66666C148.53842,118.86759 148.5,117.96667 148.5,117.06667C148.5,116.16666 148.49934,115.26667 148.5,114.36667C148.50067,113.46667 148.69101,112.54079 149.2045,111.96667C149.76805,111.33657 150.59113,110.74081 151.064,110.06667C151.58585,109.32269 151.65329,108.30997 152.02083,107.6875C152.51392,106.85239 153.33269,106.42975 153.66667,105.5C153.90392,104.83958 154.62561,104.16436 155.21466,103.584C155.83884,102.96902 156.4572,102.38431 156.5,101.46667C156.54193,100.56764 156.64799,99.90032 157.07466,99.03067C157.47731,98.21 157.33302,97.41195 157.85716,96.42384C158.19057,95.79529 159.22919,94.99148 158.791,94.67117C158.07169,94.14534 156.99998,94.67152 156.10001,94.66666C155.11063,94.66133 154.50821,94.14604 154.5,93.26667C154.49159,92.3667 154.68866,91.53867 155.2045,90.96667C155.86029,90.23947 156.74609,89.86668 157.5,89.5C158.26361,89.1286 159.02122,88.70057 159.98399,88.66534C160.67508,88.64005 161.64742,88.42209 162.29866,87.86533C163.04004,87.23154 163.79865,86.69526 164.7,86.66666C165.59955,86.63812 166.5004,86.69203 167.3,86.66666C168.20135,86.63807 168.92635,86.00381 169.7,85.752C170.55965,85.4722 171.5,85.66666 172.3,85.66666C173.25717,85.66666 174.15266,85.66666 175.01601,85.66666C175.97917,85.66666 176.8,85.66666 177.70134,85.66666C178.66667,85.66666 179.50067,85.63078 180.47867,85.66683C181.25424,85.69542 182.16179,86.01406 182.9045,86.37117C183.70494,86.75603 184.45592,87.20818 185.33333,87.5C186.17749,87.78076 187.00514,88.18222 187.60001,88.76667C188.20528,89.36134 188.86575,90.10905 189.59984,90.54533C190.38371,91.0112 190.69086,91.79269 191.2045,92.36667C191.86253,93.102 192.49904,93.66763 193.10001,94.26667C193.79887,94.96329 194.66219,95.23743 195.33333,95.83334C195.93973,96.37176 196.55083,96.96751 197.2,97.314C198.04938,97.76736 199.03603,97.63441 199.8215,97.888C200.53789,98.11929 201.49367,98.54764 202.3,98.63067C203.09654,98.71268 204.11716,98.53783 205.01466,98.752C205.90454,98.96435 206.74609,99.46665 207.5,99.83334C208.26361,100.20473 208.89906,100.74766 209.55267,101.314C210.15286,101.83406 210.47292,102.66712 210.5,103.46667C210.52859,104.31095 211.4507,104.58242 212.064,105.27734C212.65276,105.94446 212.76785,106.88216 213.30133,107.46667C213.95821,108.18637 214.35033,109.02365 214.83333,109.83334C215.14828,110.36131 215.85071,111.01513 216.61467,111.78133C217.08864,112.2567 217.78926,112.97757 218.5,113.66666C219.09122,114.23988 220.0153,114.52699 220.5,115.1875C221.00598,115.87703 221.43785,116.75904 221.49867,117.46667C221.57576,118.36337 221.42259,119.33427 221.936,120.06667C222.48976,120.85662 223.31802,121.11207 224.064,121.692C224.68849,122.17749 225.29407,122.72903 225.98399,123.23466C226.71214,123.76831 227.49788,124.38002 228.1955,124.71484C229.06931,125.13422 229.8298,125.67464 230.50084,125.96667C231.2097,126.27515 231.95535,126.99635 232.83333,127.5C233.46454,127.86209 234.51471,127.7934 235.32133,128.11333C236.02893,128.39398 236.82968,128.84077 237.80533,129.31483C238.49745,129.65112 239.17572,130.00996 240.16667,130.33333C240.97263,130.59633 241.89098,130.66217 242.69983,130.66667C243.66399,130.67204 244.6673,130.49017 245.5,130.83333C246.17085,131.10979 246.99982,131.65625 247.89999,131.66667C248.79994,131.67709 249.7428,131.52675 250.5,131.83333C251.3313,132.16991 252.16422,132.55496 252.84734,132.71933C253.7697,132.94125 254.65833,133.5531 255.32533,133.63066C256.32724,133.74718 257.1955,133.66667 258.13599,133.66667C258.98401,133.66667 259.84732,133.66667 260.74283,133.66667C261.70001,133.66667 262.60016,133.66667 263.38535,133.66667C264.336,133.66667 265.10132,133.66667 266.10001,133.66667C266.89999,133.66667 267.90652,133.74532 268.664,133.63066C269.63541,133.48363 270.26688,132.82027 271.13599,132.67734C272.14368,132.51163 272.90451,132.66667 273.89999,132.66667C274.70001,132.66667 275.69983,132.66667 276.47916,132.66667C277.47849,132.66667 278.29883,132.68401 279.20001,132.66667C280.13651,132.64867 281.00229,132.41762 281.67465,132.056C282.50336,131.61029 283.14709,130.8689 284,130.6875C284.88055,130.50023 285.8045,130.66667 286.82132,130.66667C287.5,130.66667 288.47867,130.66667 289.25266,130.66667C290.15717,130.66667 291.10193,130.63611 292.10001,130.67117C292.90125,130.69933 293.8959,130.96696 294.52084,131.16667C295.65753,131.52989 296.18863,131.56888 297.04166,131.6875C297.98914,131.81924 299.02609,132.09612 299.74817,132.37199C300.48441,132.65329 301.16922,133.02182 302.16666,133.33333C303.20999,133.65916 303.89133,133.64003 304.89868,133.668C305.66449,133.68927 306.5369,134.10243 307.5,134.5C308.16418,134.77419 309.10004,134.66135 310,134.66667C310.90005,134.67201 311.79999,135.01933 312.5,135.5L313.33334,135.83333L313.78534,136.58133" id="svg_2" stroke-width="3" stroke="#000" fill="none"/>
  <path t="7585,7674,7674,7690,7707,7707,7723,7723,7755,7823,7823,7874,7915,7938,7938,7958,8008,8008,8035,8035,8059,8074,8075,8136,8136,8136,8175,8175,8208,8329,8354,8409,8433,8442,8508,8542,8835,8835,8875,8898,8922,8962,8986,9106,9106,9208,9244,9262,9439,9461,9511,9545,9561,9561,9627,9662,9680,9791,9826,9827,9879,9962,10019,10046,10063,10079,10146,10196,10242,10291,10291,10323,10323,10347,10348,10378,10397,10397,10494,10530,10546,10546,10546" d="M324.5,124.66666C322.14667,125.528 321.94449,126.24964 321.47916,127.14584C321.06165,127.94994 320.13797,128.16928 319.67065,129.15067C319.36685,129.78865 319.64932,130.96394 319.27866,131.76666C318.97015,132.43472 318.58237,133.33185 318.064,134.06667C317.58932,134.73955 316.85126,135.14525 316,135.6875C315.24994,136.16528 314.93359,136.87419 314.40018,137.64517C313.88846,138.38481 313.55649,139.20532 313.2785,139.98817C312.9537,140.90282 312.47858,141.6566 312.11066,142.46666C311.84131,143.05971 311.78659,144.12003 311.44733,144.95233C311.10889,145.78262 310.49188,146.3712 310.5,147.26666C310.50818,148.16687 310.78998,149.0598 311.59982,149.54533C312.32959,149.98286 312.90442,150.51393 313.70001,150.95067C314.34811,151.30643 315.2001,151.65401 316.10001,151.66667C317.00015,151.67934 317.70328,152.20985 318.60001,152.54517C319.45065,152.86325 320.29999,152.66667 321.20001,152.66667C322.10001,152.66667 323,152.66667 323.89999,152.66667C324.79999,152.66667 325.70001,152.66667 326.60001,152.66667C327.5,152.66667 328.32385,152.82797 329.10001,152.63066C329.96228,152.41145 330.69699,151.70938 331.60001,151.66667C332.49899,151.62415 333.29999,151.66667 334.20001,151.66667C335.10001,151.66667 336,151.66893 336.89999,151.66667C337.7955,151.66441 338.3739,150.94109 339.11066,150.67734C339.94803,150.37758 340.91068,150.66667 341.8215,150.66667C342.52084,150.66667 343.5,150.66667 344.28934,150.66667C345.33334,150.66667 346.25183,150.63391 346.89999,151.10266C347.6817,151.668 349.26193,151.72533 349.08566,152.66217C348.96652,153.29539 347.44666,152.66667 346.81332,152.66667L345.80084,152.66667" id="svg_3" stroke-width="3" stroke="#000" fill="none"/>
  <path t="25124,25362,25362,25560,25595,25644,25862,25862,25917,25980,26034,26060,26075,26075" d="M155.5,116.66666C156.5,116.83334 157.1526,117.46684 158,117.64584C158.8808,117.83188 159.87677,117.85013 160.59984,117.44517C161.33719,117.03222 161.4303,115.63119 160.69867,115.75333C159.78596,115.90571 159.52533,117.06667 159.21466,117.86667L158.69867,118.46667" id="svg_6" stroke-width="3" stroke="#000" fill="none"/>
  <path t="26960,27122,27122,27138,27156,27156,27251,27251,27251,27287,27287,27297,27462,27489,27489,27505,27513,27514" d="M155.5,134.66667C154.5,134.66667 153.68445,134.54279 152.74283,134.72383C151.80702,134.90376 151.25978,135.29294 150.33333,135.66667C149.55702,135.97983 148.7317,136.20395 147.83333,136.66667C147.01067,137.09039 146.29536,137.54173 145.39999,137.66684C144.49353,137.79349 143.8,138.314 142.97917,138.66667L142.17867,138.88817L141.32533,139.27733" id="svg_7" stroke-width="3" stroke="#000" fill="none"/>
  <path t="28055,28440,28459,28679,28679,28708,28709,28727,28727,28742,28742,28758,28758,28776,28777,28808,28809,28809,28827,28882,28883,28883,28914,28931,28954,28978,28993,29010,29010,29026,29043,29059,29081,29081,29081,29091,29108,29109,29129,29129,29141,29158,29176,29176,29192,29192,29209,29209,29225,29225,29242,29242,29258,29258,29276,29293,29293,29308,29329,29329,29353,29375,29392,29392,29418,29433,29434,29456,29456,29481,29505,29527,29545,29546,29577,29577,29592,29608,29608,29625,29625,29642,29642,29659,29659,29659,29710,29710,29745,29760,29777,29777,29793,29794,29810,29810,29827,29850,29850,29877,29894,29895,29910,29927,29944,29961,29977,29977,29994,29994,30011,30027,30045,30062,30079,30079,30094,30112,30112,30129,30130,30145,30162,30179,30179,30196,30196,30196,30212,30212,30212,30229,30229,30246,30246,30275,30275,30294,30295,30311,30329,30346,30347,30347,30363,30363,30378,30378,30394,30395,30413,30429,30429,30430,30445,30446,30446,30462,30479,30479,30499,30499,30546,30577,30771,30777" d="M149.5,139.66667C149.5,137.96666 149.05644,136.9397 149.536,136.10266C149.89603,135.47427 151.01082,135.90074 151.84734,136.37117C152.64445,136.81946 153.2345,137.39435 153.98399,137.86667C154.65924,138.29219 155.67351,138.81241 156.1955,139.42383C156.77068,140.09756 157.10001,140.87733 157.5,141.66667C157.89999,142.45599 158.28326,143.19325 158.89999,144.04134C159.48438,144.84492 159.94992,145.46658 160.21466,146.18266C160.56102,147.11951 160.5,148.06667 160.5,148.96666C160.5,149.86667 160.5,150.76666 160.5,151.66667C160.5,152.46666 160.5,153.36667 160.5,154.26666C160.5,155.088 160.5,156 160.5,156.91733C160.5,157.66133 160.53656,158.69669 160.5,159.66667C160.47141,160.42545 160.11252,161.30557 159.85266,162.01401C159.48596,163.01372 159.54852,163.86798 159.49983,164.76683C159.45712,165.55545 159.06999,166.50554 158.7955,167.07117C158.31053,168.07053 157.94313,168.85876 157.39999,169.64534C156.93553,170.31798 156.40587,170.9915 156,171.66667C155.40868,172.65034 154.8956,173.23677 154.52533,174.06667C154.17566,174.8504 153.69901,175.467 153,176.16667C152.30034,176.867 151.86394,177.43828 151.10001,178.056C150.35522,178.65823 149.54172,178.9006 148.8,179.314C148.03632,179.73964 147.2157,180.05157 146.61467,180.468C145.70329,181.09946 144.87679,181.14514 144.04167,181.66667C143.33487,182.10806 143.14629,183.20233 142.29866,183.58267C141.65607,183.87102 140.69295,184.13995 139.98399,184.38266C139.02032,184.71257 137.98999,184.53851 137.32533,184.73866C136.30652,185.04547 135.9899,185.98148 135.1785,186.42366C134.53949,186.7719 133.5,186.66667 132.7,186.66667C131.89999,186.66667 130.9045,186.66667 129.98534,186.66667C129.02083,186.66667 128.08923,186.68045 127.17867,186.6665C126.49976,186.6561 125.55673,186.37347 124.74733,186.01933C123.8782,185.63905 123.06624,185.7921 122.136,185.23067C121.40823,184.79143 120.85416,184.10941 120.2045,183.36667C119.62331,182.70222 119.68736,181.83479 119.44283,180.96666C119.2284,180.20537 118.54272,179.46968 118.5,178.56667C118.45747,177.66768 118.5,176.9095 118.5,175.84134C118.5,175.15067 118.5,174.1875 118.5,173.26666C118.5,172.36667 118.5,171.46666 118.5,170.5665C118.5,169.78133 118.5,168.84134 118.5,167.83333C118.5,167.04134 118.5,166.18266 118.5,165.31934C118.5,164.30267 118.48823,163.46526 118.5,162.5C118.51042,161.64565 118.65635,160.66341 118.85267,160.06216C119.1327,159.20459 119.38667,158.24643 119.47467,157.452C119.56048,156.67732 119.84043,155.6619 120.14733,154.9185C120.51208,154.035 120.46906,153.26166 120.50134,152.26801C120.53204,151.32269 120.8315,150.4023 121.30133,149.868C121.9454,149.13554 122.38457,148.34372 122.66666,147.5C122.89673,146.8119 123.36082,146.04535 123.98267,145.26801C124.45984,144.67151 125.21,143.85098 125.51466,143.04134C125.83129,142.19989 126.06446,141.48341 126.8,140.7675C127.46107,140.12408 127.80817,139.60298 128.10001,138.87067C128.51158,137.83786 128.86874,136.89622 129.2,136.32834C129.74564,135.3929 130.31548,134.66127 130.55267,133.9095C130.836,133.01154 131.2045,132.3765 131.89999,131.73866L132.8,131.66217L133.69867,131.384L134.44284,131.08099" id="svg_8" stroke-width="3" stroke="#000" fill="none"/>
  <path t="31410,31465,31498,31548,31570,31594,31594,31698,31761,31787,31815,31815,31883,31884,31899,31916,31932,31932,32029,32066,32066,32098,32117,32166,32194,32217,32234,32314,32314,32333,32350,32366,32385,32410,32434,32450,32451,32491,32534,32599,32618,32634,32650,32650,32667,32667,32685,32700,32717,32717,32734,32734,32734,32751,32751,32751,32751,32767,32767,32767,32785,32881,32918,32919,32934,32952,32968,32985,32985,33001,33001,33017,33017,33034,33051,33067,33084,33151,33186,33202,33220,33220,33250,33273,33274,33297,33319,33336,33351,33369,33369,33385,33385,33385,33402,33419,33419,33419,33434,33435,33435,33452,33452,33468,33469,33469,33486,33486,33486,33503,33519,33545,33545,33568,33586,33586,33610,33610,33635,33653,33654,33670,33686,33686,33702,33702,33719,33719,33737,33754,33754,33754,33769,33769,33769,33769,33786,33786,33808,33808,33825,33857,33857,33873,33889,33905,33937,34176,34203,34227,34227,34257,34273,34273,34289,34305,34320,34337,34354,34354,34371,34371,34387,34387,34387,34404,34404,34507,34507,34522,34539,34555,34572,34573,34595,34606,34623,34639,34657,34672,34690,34714,34738,34757,34757,34773,34773,34790,34806,34807,34823,34839,34839,34855,34856,34856,34874,34874,34874,34874,34874,34889,34889,34890,34890,34890,34890,34890,34906,34906,34906,34906,34922,34922,34923,34940,34940,34940,34961,34962,34962,35037,35037,35073,35074,35090,35137,35137,35138,35155,35155,35172,35192,35206,35222,35222,35240,35257,35257,35273,35273,35290,35290,35290,35306,35306,35323,35341,35356,35356,35373,35373,35390,35390,35406,35406,35406,35423,35423,35440,35457,35473,35490,35490,35490,35507,35507,35507,35524,35524,35524,35524,35573,35573,35573,35608,35608,35624,35624,35641,35641,35641,35641,35658,35658,35658,35674,35674,35697,35697,35774,35791,35791,35807,35825,35826,35841,35858,35875,35876,35891,35891,35908,35908,35924,35924,35941,35941,35941,35958,35959,35985,35986,36008,36050,36065,36075,36218,36242,36259,36276,36277,36342,36342,36487,36538,36571,36594,36595,36595,36611,36611,36612,36612,36627,36627,36628,36644,36644,36661,36661,36676,36676,36694,36694,36710,36727,36744,36744,36760,36761,36776,36776,36793,36794,36810,36841,36860,36945,36971,36996,36996,37010,37062,37078,37094,37094,37111,37111,37111,37112,37127,37127,37127,37144,37144,37144,37145,37160,37161,37185,37185,37185,37245,37266,37266,37278,37278,37296,37312,37329,37329,37330,37345,37345,37346,37346,37346,37361,37362,37362,37362,37362,37474,37474,37474,37512,37513,37530,37530,37579,37596,37611,37631,37645,37690,37770,37803,37829,37847,37847,37848,37863,37864,37865,37865,37881,37882,37882,37883,37896,37897,37898,37898,37913,37913,37930,37930,37947,37962,37980,38156,38180,38197,38309,38338,38364,38381,38381,38401,38417,38433,38447,38464,38561,38561,38598,38616,38631,38649,38665,38665,38689,38689,38690,38705,38720,38732,38748,38765,38781,38781,38798,38798,38815,38884,39027,39058,39091,39115,39138,39170,39200,39217,39233,39249,39353,39419,39444,39445,39467,39483,39484,39534,39534,39566,39584,39609,39617,39633,39634,39649,39650,39666,39667,39667,39707,39708,39784,39784,39833" d="M160.5,148.66667C161.14734,149.37117 161.48155,150.29008 161.92534,151.06667C162.33913,151.79074 162.5217,152.80667 163.14734,153.30949C163.82217,153.85187 164.8,153.66667 165.70134,153.66667C166.66667,153.66667 167.5,153.66667 168.4785,153.66667C169.1955,153.66667 170.10001,153.66603 171.02083,153.66667C171.98399,153.66734 172.77081,153.46887 173.61333,153.952C174.49338,154.45665 174.49774,155.36665 174.5,156.26666C174.50226,157.16667 174.5,158.06667 174.5,158.96666C174.5,159.86667 174.5,160.76666 174.5,161.66667C174.5,162.46666 174.5,163.36667 174.5,164.26666C174.5,165.16667 174.49934,166.06667 174.5,166.96666C174.50067,167.86667 174.81104,168.71121 175.216,169.46666C175.62123,170.22261 175.91823,171.08272 176.69867,171.58267C177.42712,172.04933 177.45148,172.86798 177.50017,173.76683C177.54288,174.55545 177.97139,175.47438 178.216,176.18266C178.54195,177.12643 178.48663,178.07744 178.50017,178.98817C178.51056,179.68773 178.6451,180.67406 178.936,181.48801C179.18613,182.18784 179.60425,183.30806 179.8,183.972C180.00444,184.66537 180.16423,185.37321 180.59984,186.6235C180.86757,187.39194 181.1577,188.19733 181.5,189.14583C181.80327,189.98616 182.41496,190.65407 182.49867,191.46666C182.5909,192.36194 182.5,193.26666 182.5,194.1875C182.5,195.15199 182.5,195.87733 182.5,196.8665C182.5,197.64583 182.32138,198.68414 182.58533,199.46533C182.88588,200.35486 183.47467,201.056 184,201.66667C184.52533,202.27733 185.11813,202.97701 185.41467,203.86667C185.70055,204.7243 185.5,205.66667 185.5,206.46666C185.5,207.30267 185.5,208.31934 185.5,209.01401C185.5,210.03067 185.5,210.96666 185.5,211.86667C185.5,212.76666 185.5,213.66667 185.5,214.481C185.5,215.43466 185.49651,216.16669 185.5,216.89867C185.50534,218.01605 185.66312,219.00099 185.85266,219.6765C186.07059,220.45316 186.37517,221.49507 186.464,222.43066C186.52377,223.06012 186.5,224.06799 186.5,224.90266C186.5,225.83333 186.5,226.61934 186.5,227.44133C186.5,228.5 186.5,229.42 186.5,230.18001C186.5,231.256 186.5,232.1875 186.5,232.98801C186.5,233.84134 186.5,234.78133 186.5,235.76683C186.5,236.552 186.5,237.492 186.5,238.18266C186.5,239.16667 186.5,240.15067 186.5,241.01401C186.5,241.914 186.5,242.83333 186.5,243.66667C186.5,244.64534 186.5,245.41933 186.5,246.31934C186.5,247.18266 186.49538,248.18752 186.5,249C186.50534,249.93871 186.52051,250.78094 186.66667,251.66667C186.81558,252.56908 187.02951,253.13875 187.216,253.98134C187.48589,255.20076 187.49466,255.85596 187.5,256.86649C187.50508,257.83066 187.45299,258.78259 187.5,259.66666C187.54272,260.47006 188.20566,261.08759 188.464,262.06668C188.69382,262.93759 188.37585,263.87531 188.50017,264.76651C188.61198,265.56812 189.62602,265.4758 190.2,264.96216C190.93532,264.30414 191.58748,263.73825 192.064,263.06668C192.5789,262.34103 193.02066,261.67709 194,261.66666C194.89995,261.65707 195.70267,261.66498 196.47067,261.66666C197.50983,261.66891 198.29688,261.63058 199.33333,261.83334C200.05429,261.97437 200.89893,262.36426 201.69983,262.76666C202.48257,263.15994 203.30484,263.70764 203.97917,264.14584C204.76965,264.65952 205.7,264.66666 206.60001,264.66666C207.5,264.66666 208.3,264.66666 209.2,264.66666C210.10001,264.66666 211,264.66666 211.89999,264.66666C212.8,264.66666 213.71259,264.81647 214.59984,264.6665C215.45186,264.52249 215.88268,263.78546 216.66667,263.5C217.50752,263.19382 218.17563,262.50339 218.47917,261.6875C218.79469,260.83942 219.73251,260.56198 220.14284,259.96216C220.70398,259.14188 220.50006,258.17999 220.5,257.42001C220.49991,256.245 220.52341,255.70357 220.464,254.82001C220.37503,253.49654 220.22432,252.77499 220.05333,251.99867C219.86537,251.14525 219.74419,250.6891 219.33333,249.16667C219.181,248.60223 219.01431,248.01683 218.68533,246.80133C218.5193,246.18791 218.35414,245.58044 218.20984,244.98183C217.81355,243.33797 217.65977,242.41058 217.56134,241.62134C217.47716,240.9463 217.3546,239.82744 217.14734,239.11934C216.87988,238.2056 216.61003,237.24641 216.52533,236.43066C216.43529,235.56332 216.35709,234.66138 216.14734,233.77567C215.9478,232.93303 215.2675,231.9489 215.5625,231.22917C215.87291,230.47185 217.06351,230.65649 217.87466,231.10266C218.72661,231.57126 219.311,232.12256 220.10133,232.38133C221.06752,232.69768 222.00676,232.68208 222.54817,233.37117C223.10881,234.08473 223.85947,234.47978 224.60001,234.88817C225.27449,235.26013 225.8755,236.09206 226.60017,236.76649C227.11913,237.24947 227.98795,237.57408 228.74667,237.692C229.92331,237.87488 230.72823,238.0663 231.49017,238.37117C232.37471,238.72508 233.01407,239.40765 233.89999,239.63066C234.77348,239.85052 235.71671,239.7482 236.38533,239.58133C237.36241,239.33746 238.08748,238.84367 238.61467,238.18001C239.17201,237.47838 239.5015,236.50056 239.8,235.71851C240.10152,234.92857 240.38533,233.91368 240.89999,233.34933C241.57257,232.61183 242.24335,232.05489 242.95734,231.70267C243.74359,231.31479 244.771,231.62665 245.55183,231.78101C246.34802,231.9384 247.06903,232.34926 247.68933,232.888C248.53798,233.62509 249.09485,234.27699 249.73599,234.86667C250.17877,235.27391 251.17461,236.07549 251.71466,236.44533C252.47913,236.96884 253.33511,237.53522 254.24817,237.65767C255.15807,237.77969 256.01883,237.66667 256.83334,237.66667C257.80533,237.66667 258.5,237.66667 259.19467,237.66667C260.45715,237.66667 261.23868,237.66605 262.18268,237.66667C263.18134,237.66734 264.05203,237.37762 265,237.83333C265.72086,238.17986 266.41626,238.82097 266.5,239.66667C266.57883,240.46277 266.51788,241.45273 266.14282,242.31483C265.85162,242.98416 264.8808,243.543 264.5,244.20833C264.01111,245.06252 263.81131,245.80766 263.58533,246.78267C263.41089,247.53529 263.5,248.50267 263.5,249.26801C263.5,250.27116 263.5,251.12384 263.5,252.088C263.5,252.892 263.5,253.714 263.5,254.745C263.5,255.625 263.5,256.5 263.5,257.36215C263.5,258.26666 263.49774,259.16666 263.5,260.06668C263.50226,260.96216 263.93542,261.64929 264.79999,261.66666C265.69983,261.68472 266.73636,261.55402 267.14282,260.905C267.64035,260.1106 267.44824,258.9978 268.30133,258.66934C269.14185,258.3457 270.06088,258.29578 270.37851,257.34485C270.61533,256.63586 270.49191,255.89464 270.50134,254.69733C270.50677,254.00529 270.50888,253.27899 270.58533,252.54933C270.73212,251.14825 270.92941,250.52507 271.14734,249.6855C271.41977,248.63599 271.49774,247.86134 271.5,246.89867C271.50171,246.16667 271.5,245 271.5,244.1875C271.5,243.34534 271.5,242.492 271.5,241.552C271.5,240.56667 271.40906,239.65425 271.55716,238.9095C271.74191,237.98042 272.20844,237.27669 272.41599,236.26801C272.57178,235.51076 272.86703,234.59787 273.216,233.868C273.58124,233.10416 273.10413,232.07382 273.52084,231.1875C273.85263,230.48177 274.91068,230.66667 275.82132,230.66667C276.67465,230.66667 277.72324,230.47652 278.44733,231.01933C279.06689,231.4838 279.86514,231.34135 280.20001,230.79066C280.70618,229.95825 280.90308,228.97021 281.10001,228.27066C281.30319,227.54889 281.59308,226.48604 281.89999,225.50267C282.09561,224.87595 282.5036,223.66786 282.69867,223.06799C282.98444,222.18921 283.17984,221.63127 283.41733,220.35201C283.54007,219.69078 283.80133,218.64545 284.20532,218.07117C284.75293,217.29272 285.08594,216.29283 285.83334,215.83333C286.56628,215.38271 287.75583,215.8223 288.21335,216.468C288.70908,217.1676 288.94263,218.08119 289.66666,218.83333C290.14999,219.33543 290.75159,219.90488 291.33334,221C291.66101,221.61679 291.87897,222.34796 292.12534,223.12399C292.38861,223.95322 292.65735,224.83661 292.98401,225.748C293.31592,226.6741 293.49274,227.12791 293.84732,227.99966C294.32364,229.17067 294.5853,229.82385 294.97916,230.58333C295.46454,231.51927 296.02176,232.12537 296.69867,232.86667C297.23227,233.45105 297.55368,234.3078 298.30133,234.75067C299.00095,235.16508 299.89948,235.64799 300.79999,235.66667C301.69849,235.6853 302.36938,235.98761 302.92532,236.64133C303.45792,237.26756 303.71362,238.21204 303.936,238.93866C304.10471,239.48987 304.49478,240.66844 304.70132,241.26666C305.013,242.16942 305.22015,242.78476 305.82132,243.96683C306.13376,244.58116 306.53473,245.16971 307.01599,246.15199C307.51498,247.17052 307.75192,247.9063 307.95834,248.625C308.15109,249.29613 308.42746,250.39748 308.48932,251.27066C308.56311,252.31233 308.6846,253.01984 309.14734,253.71483C309.60794,254.4066 309.5545,255.36815 310,256.16666C310.44467,256.96365 310.93542,257.64929 311.79999,257.66666C312.69849,257.68469 313.34726,257.26227 313.784,256.46667C314.13977,255.81856 314.49774,254.96667 314.5,254.06667C314.50223,253.16667 314.38348,252.2585 314.50449,251.36667C314.61591,250.54532 315.35184,249.89806 315.49551,248.96666C315.63272,248.07718 315.5979,247.16023 315.48932,246.256C315.37787,245.32779 314.91864,244.66986 314.66666,243.66667C314.47174,242.8907 314.50067,242.15199 314.5,241.1875C314.49936,240.26666 314.5,239.36667 314.5,238.46666C314.5,237.56667 314.5,236.66667 314.5,235.9095C314.5,235.01401 314.5,234.15067 314.5,233.1875C314.5,232.26666 314.24451,231.09627 314.936,230.70267C315.77438,230.22548 316.85971,230.75143 317.47467,230.24133C318.07394,229.74425 318.49466,229.05605 318.5,228.16667C318.5054,227.26668 318.5,226.36667 318.5,225.46666C318.5,224.56667 318.47614,223.66632 318.5,222.86667C318.52859,221.90822 318.82001,220.99414 319.2045,220.31934C319.65631,219.52634 320.35114,218.89964 320.49551,217.96666C320.63315,217.07724 320.5,216.16667 320.5,215.26666C320.5,214.35767 320.51886,213.69574 320.49551,212.65683C320.47809,211.88089 320.37711,210.8201 320.14282,210.12384C319.84921,209.25122 319.39999,208.467 319,207.70833L318.39999,206.9095L317.70001,206.584L316.91434,206.01933" id="svg_9" stroke-width="3" stroke="#000" fill="none"/>
  <path t="41383,41499,41499,41538,41635,41656,41671,41689,41689,41705,41705,41705,41705,41722,41722,41722,41722,41739,41739,41739,41755,41755,41773,41773,41788,41789,41806,41806,41806,41823,41839,41854,41855,41873,41888,41906,41906,41922,41923,41938,41939,41956,41956,41971,41971,41989,41989,42005,42005,42006,42023,42023,42039,42039,42039,42039,42056,42056,42056,42073,42073,42088,42088,42106,42107,42107,42122,42122,42138,42156,42172,42193,42209,42240,42256,42256,42272,42290,42290,42323,42345,42345,42360,42374,42375,42392,42408,42409,42424,42425,42441,42457,42458,42458,42474,42475,42493,42493,42493,42493,42514,42515,42575,42655,42674,42692,42692,42692,42707,42707,42729,42729,42729,42745,42774,42774,42790,42791,42791,42791,42808,42808,42808,42808,42808,42824,42824,42942,42991,43007,43007,43007,43024,43024,43024,43024,43041,43041,43041,43092,43108,43131,43154,43187,43187,43208,43209,43226,43226,43277,43277,43297,43358,43358,43395,43396,43412,43412,43412,43426,43427,43458,43458,43458,43476,43476,43498,43498,43513,43513,43529,43544,43545,43561,43576,43592,43592,43626,43627,43644,43660,43678,43678,43694,43694,43711,43730,43730,43746,43762,43762,43778,43794,43811,43828,43828,43828,43844,43844,43844,43845,43862,43862,43862,43862,43863,43863,43877,43877,43877,43897,44041,44041,44078,44128,44128,44157,44259,44297,44313,44330,44331,44346,44505,44505,44564,44677,44693,44693,44714,44816,44816,44833,44833,44833" d="M352.5,149.66667C351.5,149.66667 350.69958,149.63942 349.79999,149.66667C348.85587,149.69527 348.46652,150.4343 349.02084,151.16667C349.61172,151.94734 350.18756,152.33453 351,152.83333C351.84702,153.35336 352.53677,153.67688 353.25635,154.01401C354.32632,154.51529 355.0159,154.77643 355.65332,155.04134C356.54199,155.41066 357.60095,155.95908 358.25333,156.492C358.86053,156.98802 359.47849,157.64517 360.08932,158.256C360.8045,158.97116 361.39612,159.54147 361.98267,160.15199C362.48859,160.67859 363.22086,161.65002 363.43866,162.45599C363.63156,163.16989 363.96622,164.21898 364.70001,164.58267C365.55142,165.00465 366.11148,165.38522 366.52533,166.26666C366.90753,167.08066 367.6373,167.73431 368.10001,168.30267C368.75586,169.10826 369.05975,169.86783 369.60001,170.64534C370.06644,171.31662 370.59412,171.99152 371,172.66667C371.59146,173.65053 372.0466,174.13458 372.60001,174.98817C373.03827,175.66417 373.47879,176.67801 373.8045,177.26216C374.23001,178.0253 375.00677,178.75647 375.5,179.1875C376.3764,179.95337 376.76035,180.67349 376.97916,181.20833C377.3269,182.05833 377.70233,183.26282 377.88934,183.84534C378.14789,184.65071 378.35574,185.71146 378.58401,186.54933C378.80103,187.34581 379.22424,188.12044 379.59982,189.08783C379.90555,189.87524 380.20331,190.64261 380.37851,191.52367C380.56339,192.45345 380.5,193.36667 380.5,194.26666C380.5,195.16667 380.2601,196.10065 380.50449,196.96217C380.72501,197.73956 381.45331,198.23297 381.49551,199.01849C381.55038,200.03987 381.50061,200.98801 381.5,201.84134C381.49933,202.78133 381.37531,203.70013 380.88934,204.26666C380.25177,205.00992 379.5126,205.58157 378.70001,205.66533C377.86841,205.75104 376.84283,205.66667 376.09549,205.66667C375.10132,205.66667 374.336,205.66667 373.384,205.66667C372.33334,205.66667 371.65451,205.72285 370.89868,205.58133C369.87473,205.38959 369.23383,205.02515 368.33334,204.33333C367.79831,203.92229 367.01749,203.17012 366.50983,202.672C365.63718,201.81572 365.2092,201.29128 364.30133,200.75067C363.61069,200.33942 363.56586,200.74683 363.33334,201.66667C363.12808,202.47865 362.81409,203.0881 362.01468,203.78267C361.34561,204.36397 360.49225,204.8239 359.90451,205.31483C359.32825,205.7962 358.39755,206.58095 357.5,206.66667C356.7952,206.73398 355.73532,206.66667 355.12399,206.66667C354.41666,206.66667 353.62933,206.66667 352.33334,206.66667C351.42001,206.66667 350.50665,206.66667 349.63333,206.66667C348.84,206.66667 347.88599,206.66667 346.94266,206.66667C346,206.66667 345.08932,206.66667 344.17816,206.66667C343.4375,206.66667 342.728,206.66667 341.53067,206.66667C340.83865,206.66667 340.11465,206.66667 339.38266,206.66667C337.98666,206.66667 337.34668,206.6666 336.46167,206.66667C335.42184,206.66676 334.44135,206.4481 333.60983,207.01933C332.92682,207.48854 332.80286,208.35391 332.33301,208.96133C331.67654,209.81003 330.74014,209.65601 329.64282,209.66667C328.88538,209.67404 328.01599,209.66219 327.15268,209.66667C326.12531,209.67201 325.33334,209.83333 324.5,210.16667C323.66666,210.5 322.83871,210.66133 321.95715,210.66667C320.97919,210.67259 320.18268,210.66667 319.18399,210.66667C318.5,210.66667 317.33334,210.66667 316.55182,210.66667C315.76132,210.66667 314.83334,210.66814 313.88535,210.66667C313.01733,210.66533 311.98926,210.71094 311.61432,209.95683C311.2514,209.2269 311.5,208.16667 311.5,207.18266C311.5,206.492 311.5,205.42383 311.5,204.56667C311.5,203.66667 311.5,202.78133 311.5,201.84134C311.5,201.15067 311.5,200.07733 311.5,199.256C311.5,198.34534 311.5,197.492 311.5,196.55067C311.5,195.78267 311.64935,194.80315 311.33334,193.83333C311.10818,193.1423 310.66907,192.31406 310.216,191.46666C309.8674,190.81467 309.44467,189.96814 309,189.16667C308.55447,188.36365 308.5,187.5 308.5,186.60417C308.5,185.89467 308.5,185.02333 308.5,183.97333C308.5,183.17334 308.5,182.74333 308.5,181.33333C308.5,180.30133 308.5,179.77034 308.5,178.70833C308.5,178.18933 308.5,177.20534 308.5,175.95284C308.5,175.02133 308.5,174.34183 308.5,173.29201C308.5,172.34534 308.60205,171.66187 308.49866,170.552C308.4151,169.65526 307.75305,169.12949 307.53601,168.26666C307.31628,167.39316 307.5,166.46666 307.5,165.56667C307.5,164.66667 307.49759,163.86667 307.5,162.9095C307.50226,162.01399 307.48868,161.10451 307.936,160.29201C308.40494,159.44026 308.86905,158.82246 309.29999,158.15067C309.86087,157.27631 310.5,156.66667 310.97134,155.96666L310.35333,155.36667L309.83334,155.16667L309.15332,154.96666" id="svg_10" stroke-width="3" stroke="#000" fill="none"/>
  <path t="46036,46082,46082,46082,46082,46099,46099,46099,46099,46099,46115,46115,46115,46115,46134,46134,46134,46134,46134,46150,46150,46150,46150,46168,46168,46211,46211,46237,46237,46251,46251,46268,46268,46268,46284,46284,46284,46300,46300,46300,46318,46318,46318,46318,46334,46351,46351,46367,46367,46384,46384,46401,46401,46417,46417,46435,46451,46451,46468,46468,46468,46548,46548,46568,46569,46586,46586,46602,46602,46617" d="M203.5,142.66667C202.39983,147.06667 202.20476,147.86923 201.97917,148.66667C201.75212,149.46935 201.34836,150.67284 201.01466,151.46533C200.679,152.26248 200.30153,153.03714 199.89867,153.78133C199.31744,154.85497 198.89999,155.51401 198.5,156.16667C198.10001,156.81934 197.49199,157.82893 197.10133,158.55067C196.70244,159.28761 196.32486,160.03616 195.98534,160.78267C195.50548,161.83777 195.26941,162.50778 195,163.10417C194.6382,163.90508 193.83907,164.84685 193.32533,165.28133C192.50821,165.9724 191.94427,166.62938 191.66667,167.5C191.42145,168.26907 191.5,169.15334 191.5,169.91333C191.5,171.088 191.50006,171.892 191.5,172.714C191.49991,173.74533 191.54214,174.44722 191.41467,175.35066C191.27197,176.36203 190.98073,177.19644 190.73833,177.77116C190.22546,178.98708 189.85229,179.55792 189.52083,180.125C189.06996,180.89636 188.55727,181.85182 188.5,182.83333C188.45146,183.66525 188.59521,184.65836 188.44284,185.41933C188.25658,186.34955 187.79604,187.01436 187.2045,187.914C186.78572,188.55092 186.61688,189.51288 186.416,190.18266C186.11217,191.19568 185.37469,191.74445 184.864,192.33867C184.14178,193.179 183.85138,193.67485 183.32533,194.416C182.67169,195.33691 181.96317,195.89775 181.62151,196.76683C181.33089,197.50607 181.5,198.50267 181.5,199.26801L181.5,200.26216L181.5,201.00951L181.48933,202.03067" id="svg_11" stroke-width="3" stroke="#000" fill="none"/>
  <path t="57243,57443,57460,57460,57477,57477,57493,57493,57509,57509,57723,57723,57761,57761,57778,57778,57778,57778,57793,57794,57794,57794,57794,57817,57818,57818,57829,57829,57845,57845,57891,58209,58209,58234,58246,58426" d="M320.5,121.66666C320.46399,119.04134 320.19846,118.18979 319.92532,117.492C319.56033,116.55959 319.50793,115.74187 319.05334,114.84133C318.68433,114.11028 318.02243,113.5425 317.32535,113.07733C316.39508,112.45654 315.55276,112.18451 315.94318,112.5455C316.55579,113.11194 317.67984,112.97362 318.46167,113.381C319.05228,113.68875 319.65411,114.08866 320.66666,114.66666C321.37881,115.0732 322.11682,115.46424 322.87466,115.79467C323.60822,116.1145 324.67081,116.47231 325.64267,116.59467C326.47696,116.69969 327.53067,116.66184 328.38266,116.66666C329.32538,116.672 330.0994,116.60152 330.97916,117.1875C331.6857,117.65812 332.20001,118.3095 333.10001,118.656L334,118.64584L334.79099,118.314" id="svg_15" stroke-width="3" stroke="#000" fill="none"/>
  <path t="58978,59063,59090,59113,59131,59148,59408,59408" d="M321.5,120.66666C321.5,123.256 321.5,124.16666 321.5,125.06667C321.5,125.96667 321.5,126.868 321.5,127.83334L321.5,128.625" id="svg_16" stroke-width="3" stroke="#000" fill="none"/>
  <path t="59991,60083,60101,60116,60138,60154,60166,60194,60194,60304,60330,60330,60350,60370,60370,60463,60578,60579,60601,60618,60635,60650,60669,60686,60686,60700,60718,60870,60891,60902,60954,60954,60969,60988,60988,61003,61003,61026,61123,61153,61153,61170,61186,61187,61187,61228,61243,61258,61258,61269,61320,61348,61379,61404,61404,61420,61470,61470,61507,61530,61531,61564,61604,61644,61675,61675,61692,61721,61737,61737,61753,61753,61771,61787,61805,61820,61820,61841,61841,61870,61887,61905,61905,61920,61938,61938,61969,61987,62035,62058,62071,62121,62138,62138,62162,62177,62238,62265,62290,62290,62306,62321,62338,62389,62422,62503,62555,62555,62594,62594,62640,62816,62816,62873,62907,62940,62940,62962,63111,63141,63174,63174,63210,63241,63258,63312,63375,63410,63410,63425,63465,63527,63544,63558,63603,63603,63627,63643,63643,63659,63676,63676,63692,63709,63709,63725,63745,63761,63777,63801,63801,63825,63842,63892,63892,63926,63927,63944,63944,63987,64018,64019,64068,64077,64094,64125,64143,64162,64178,64194,64194,64218,64234,64250,64273,64297,64311,64330,64346,64346,64360,64377,64394,64409,64426,64426,64449,64495,64496,64512,64531,64531,64578,64628,64628,64661,64662,64662,64678,64695,64712,64730,64730,64745,64761,64779,64779,64844,64844,64861,64879,64895,64992,65028,65029,65065,65097,65097,65113,65138,65139,65139,65161,65179,65179,65180,65196,65213,65213,65230,65246,65274,65296,65314,65330,65582,65614,65614,65631,65631,65647,65647,65647,65648,65664,65664,65664,65664,65665,65681,65681,65681,65681,65856,65856,65881,65897,65914,65914,65914,65914,65931,65931,65931,65931,65932,65948,65948,65948,65964,65964,65981,65981,65998,65998,66014,66015,66032,66032,66047,66089,66089,66089,66255,66283,66316,66340,66366,66366,66594,66680,66714,66734,66750,66751,66772,66784,66784,66801,66834,66858,66907,66939,67001,67001,67097,67138,67170,67360,67360,67394,67419,67419,67608,67636,67654,67655,67656,67686,67686,67702,67702,67702,67718,67719,67752,67752,67777,67778,67785,67827,67827,67853,67854,67872,67885,67905,67906,67929,67952,67979,68003,68100,68115,68137,68154,68155,68186,68226,68249,68250,68270,68270,68287,68287,68303,68303,68304,68320,68320,68337,68407,68436,68437,68457,68615,68615,68642,68653,68671,68687,68687,68704,68721,68722,68737,68737,68755,68777,68778,68794,68817,68841,68857,68871,68888,68906,68921,68921,68971,68971,69005,69022,69039,69040,69055,69055,69056,69072,69073,69073,69088,69088,69088,69089,69105,69105,69171,69171,69208,69209,69224,69226,69227,69239,69240,69257,69257,69257,69272,69273,69384,69384,69418,69418" d="M335.5,119.66666C337.29999,119.66666 338.20001,119.66666 339.10001,119.66666C340,119.66666 340.90582,119.76167 341.70001,119.66534C342.61975,119.55378 343.2684,118.82186 344.13599,118.67733C344.97256,118.53796 345.92026,118.7735 346.74283,118.3095C347.60794,117.82152 347.96878,117.12598 348.89999,116.692C349.67746,116.32967 350.28268,115.59422 351.20001,115.72833C352.09488,115.85916 352.47141,116.96531 352.5,117.86667C352.52853,118.76622 352.5,119.66666 352.5,120.46667C352.5,121.36667 352.4946,122.26669 352.5,123.16666C352.50534,124.05605 353.05795,124.61731 353.98401,124.95067C354.68903,125.20447 355.67407,125.42773 356.5,125.83334C357.16998,126.16236 357.79623,126.97046 358.29999,127.46667C358.99484,128.15109 359.8526,128.49759 360.70001,128.95067C361.35199,129.29926 362.17816,129.66637 363.04266,129.888C363.75638,130.07098 364.47284,130.4227 365.68567,130.6095C366.59113,130.74896 367.5004,130.64131 368.29999,130.66667C369.20139,130.69527 369.81033,131.28477 370.70001,131.58133C371.55765,131.8672 372.53754,131.49521 373.29999,131.752C374.09814,132.02081 374.84424,132.73096 375.47916,133.16667C376.28925,133.72263 376.86191,134.40451 377.64932,134.692C378.48056,134.99548 378.99548,135.67084 379.56134,136.27733C380.20474,136.96695 380.82001,137.42993 381.74283,137.6095C382.68536,137.79289 383.66666,137.66667 384.5,137.66667C385.33334,137.66667 386.1955,137.66667 387.10001,137.66667C388,137.66667 388.93076,137.60422 389.82132,137.888C390.52036,138.11075 391.47195,138.60448 392.29868,138.66533C393.19757,138.73151 394.02084,138.66667 394.98401,138.66667C395.84732,138.66667 396.79688,138.51823 397.60001,138.888C398.37857,139.24646 399.09995,139.66133 400,139.66667C400.89996,139.672 401.79999,139.66667 402.70001,139.66667C403.60001,139.66667 404.5,139.66667 405.29999,139.66667C406.20001,139.66667 407.11987,139.66425 407.89999,140.092C408.7229,140.54321 409.55084,140.9675 410.20001,141.314C411.04938,141.76735 412.05197,141.37758 412.88934,141.67734C413.6261,141.94109 414.13071,142.49704 415,142.6875C415.85178,142.87411 416.37296,143.48795 417.32535,144.06667C418.00742,144.48112 418.76782,144.94055 419.5,145.66667C420.08469,146.24652 420.38385,147.108 420.784,147.86667C421.23672,148.72505 421.55438,149.36571 422,150.16667C422.44455,150.96571 422.29086,151.9463 422.7215,152.76649C423.05933,153.40993 424.25342,153.60379 424.49551,154.37117C424.76523,155.22604 425.0274,156.01241 425.41599,156.86667C425.76312,157.62979 426.16006,158.41469 426.79999,158.96217C427.55212,159.60567 428.26697,159.97469 428.85266,160.614C429.38699,161.19725 429.76346,161.88622 430.30133,162.46666C430.97357,163.19209 431.70001,163.86667 432.20001,164.36667C432.89999,165.06667 433.7041,165.68669 434.14282,166.36667C434.62814,167.11887 434.6188,168.0452 435.11066,168.80533C435.60397,169.56773 436.47141,170.02238 436.5,170.86667C436.53046,171.76614 436.5,172.66667 436.5,173.46666C436.5,174.36667 436.51962,175.30293 436.49866,176.15199C436.48074,176.87794 436.28598,177.86916 436,178.64583C435.63074,179.64868 435.48782,180.51555 434.97916,181.16667C434.3793,181.93452 433.64886,182.43498 433.50449,183.36667C433.36667,184.25606 433.5,185.16667 433.5,186.06667C433.5,186.96666 433.5,187.86667 433.5,188.76666C433.5,189.66667 433.5,190.46666 433.5,191.36667C433.5,192.26666 433.5,193.16667 433.5,194.06667C433.5,194.96666 433.5,195.86667 433.5,196.76666C433.5,197.66667 433.5,198.46666 433.5,199.36667C433.5,200.26666 433.5,201.16667 433.5,202.07733C433.5,202.98801 433.5,203.66667 433.5,204.78133C433.5,205.66667 433.5,206.46666 433.5,207.30267C433.5,208.31934 433.60687,209.02069 433.48932,210.04134C433.37836,211.00496 432.9252,211.66515 432.66666,212.66667C432.46622,213.44308 432.47064,214.2068 432,215.14583C431.62738,215.88928 431.54779,216.76793 431.5,217.66667C431.45728,218.47006 430.85715,219.23674 430.30133,219.86667C429.6257,220.63239 429.47311,221.46399 428.79016,221.96217C428.05515,222.49834 427.13651,222.64867 426.20001,222.66667C425.30014,222.68398 424.39871,222.61888 423.5,222.66667C422.69662,222.7094 421.8118,223.27158 421.58533,224.15067C421.41202,224.82339 421.59256,225.93652 421.33334,226.83333C421.13574,227.51697 420.71552,228.19466 420.10001,229.04134C419.51575,229.84502 419.13095,230.51088 418.70001,231.18266C418.13913,232.05704 417.49902,232.6657 416.89999,233.26666C416.20337,233.96553 415.92929,234.8289 415.33334,235.5C414.79492,236.10631 413.89215,236.40575 413.53601,237.10266C413.09683,237.96208 413.31497,239.0153 412.61334,239.38133C411.72479,239.84486 410.98117,239.66441 409.85684,239.66667C409.18115,239.66803 408.4375,239.66667 407.63382,239.66667C406.33334,239.66667 405.41733,239.66667 404.95184,239.66667C404.02084,239.66667 403.10983,239.66667 401.83334,239.66667C401.07199,239.66667 400.38266,239.66675 399.46616,239.66667C398.42184,239.66658 396.9812,240.24637 396.61884,239.314C396.35892,238.6452 397.84006,238.34515 398.51883,237.95233C399.06808,237.63448 399.65912,237.24557 400.66666,236.66667C401.37781,236.25807 402.11856,235.87364 402.83865,235.46666C403.53452,235.07338 404.72934,234.26933 405.228,233.888C405.89099,233.381 406.90262,232.85167 407.664,232.65199C408.62134,232.40092 409.23563,231.93608 409.98401,231.46666C410.66013,231.04256 411.74225,230.56348 412.13834,229.9095C412.62909,229.09923 412.48792,228.10466 412.936,227.29201C413.40549,226.44057 413.94995,225.86676 414.21466,225.15067C414.561,224.21381 414.50134,223.26666 414.5,222.36667C414.49866,221.468 414.00958,220.94473 413.20532,220.614C412.4491,220.30301 411.8894,219.67201 411,219.66667C410.08936,219.66121 409.17868,219.66667 408.32535,219.66667C407.38535,219.66667 406.5,219.66667 405.70001,219.66667C404.79999,219.66667 403.77725,219.81265 403.11066,219.23067C402.41248,218.62111 402.07611,217.85275 401.29999,217.38133C400.62363,216.97052 400.00568,216.17828 399.30133,215.75067C398.55853,215.2997 398.23654,214.44711 397.69867,213.86667C397.02643,213.14125 396.28516,212.65346 395.85718,211.96666C395.353,211.15758 395.3638,211.65823 394.93066,212.43466C394.51166,213.18576 394.01178,213.92136 393.384,214.69733C392.89661,215.29976 392.16321,215.97348 391.5,216.6875C390.97144,217.25658 390.33664,218.04056 390.04166,218.66667C389.58646,219.63281 389.67648,220.49548 389.33334,221.5C389.09842,222.18776 388.67825,223.02434 388.21466,223.868C387.87939,224.47812 387.15494,225.29669 386.85718,226.01401C386.49512,226.88626 386.5,227.76666 386.5,228.66667C386.5,229.46666 386.5,230.36667 386.5,231.26666C386.5,232.16667 386.5,233.07733 386.5,233.98801C386.5,234.84134 386.54703,235.78258 386.5,236.66667C386.45728,237.47006 385.9249,238.30388 385.29999,238.86534C384.54037,239.54781 383.74216,239.63503 382.84283,239.67117C382.09424,239.70126 381.10754,239.97752 380.26401,240.24133C379.3421,240.52965 378.54834,240.58437 377.76132,240.692C376.63644,240.84586 375.98187,241.41051 375.10001,241.63066C374.32297,241.82465 373.45837,241.98322 372.70001,242.38266C371.91135,242.79808 371.02332,242.96877 370.32535,243.24133C369.39581,243.60434 368.52859,243.31094 368.5,242.46666C368.46954,241.56702 368.5,240.78133 368.5,239.84134C368.5,238.83333 368.5,238.04134 368.5,237.18266C368.5,236.31934 368.65338,235.36276 368.216,234.46666C367.89169,233.80225 367.50226,232.96667 367.5,232.06667C367.49777,231.16667 367.5,230.26666 367.5,229.36667C367.5,228.46666 367.5,227.56667 367.5,226.66667C367.5,225.9095 367.5,225.01401 367.5,224.15067C367.5,223.1875 367.5267,222.2556 367.49966,221.34517C367.47885,220.64491 367.20651,219.63942 366.78568,219.06667C366.32056,218.43362 365.51324,217.65294 364.89551,217.07117C364.27695,216.48862 363.3439,215.81296 362.81601,215.552C362.01483,215.15598 361.17307,214.89415 360.18668,214.46666C359.53397,214.18378 358.53964,213.78918 358.04166,213.14583C357.38782,212.30112 357.50534,211.42004 357.5,210.5C357.49545,209.71852 357.4498,208.92685 357.50034,207.80933C357.53632,207.0136 357.9256,206.11353 358.36133,205.416C358.83347,204.6602 359.45645,203.7906 359.97916,203.20833C360.57535,202.54417 361.16666,201.83333 360.39984,201.888L359.74283,202.314" id="svg_17" stroke-width="3" stroke="#000" fill="none"/>
  <path t="70872,70929,70929,70961,70961,70961,70977,70978,70978,70978,70994,70994,71011,71027,71044,71044,71061,71093,71128,71144,71161,71177,71193,71218,71227,71244,71261,71278,71278,71294,71295,71311,71311,71380,71402" d="M405.5,217.66667C405.49551,219.6765 405.54135,220.46457 405.33334,221.5C405.18732,222.22684 404.86139,222.92404 404.16666,223.83333C403.75705,224.36945 403.00351,225.14925 402.50534,225.65683C401.64899,226.5294 401.20819,227.04041 400.30133,227.58267C399.60889,227.99673 399.17386,228.70332 398.784,229.46666C398.39948,230.21956 398.5,231.16667 398.5,232.06667C398.5,232.96666 398.5,233.86667 398.5,234.76666C398.5,235.66667 398.81299,236.4185 399.41599,236.95067C400.05783,237.51711 400.8045,237.66667 401.66666,237.66667C402.52084,237.66667 403.5,237.66667 404.28934,237.66667C405.33334,237.66667 406.08932,237.66667 407.02802,237.66667L406.52667,237.66667" id="svg_18" stroke-width="3" stroke="#000" fill="none"/>
  <path t="79144,79483,79483,79546,79586,79828,79876,80012,80052,80114,80114,80156,80182,80426" d="M338.5,138.66667C339.5,138.5 340.29779,138.01109 340.47916,137.16667C340.66821,136.2865 340.69693,135.34453 340.49866,134.468C340.31799,133.66931 339.59836,134.13731 339.2785,134.98784C338.95981,135.8353 338.30133,136.49733 337.58533,136.952L337.5,137.864" id="svg_19" stroke-width="3" stroke="#000" fill="none"/>
  <path t="81294,81499,81519,81536,81833,81833,81866,81891,81936,81936" d="M325.5,129.66667C325.5,131.46666 325.49942,132.36667 325.5,133.1875C325.50067,134.14799 325.55716,134.89967 326.14734,134.95317L326.48932,134.03067L326.5,133.18266L326.5,132.31934" id="svg_20" stroke-width="3" stroke="#000" fill="none"/>
  <path t="82734,82839,83100,83132,83139,83372,83373,83391,83407,83424,83516,83517,83541,83557,83577,83591,83591,83609" d="M319.5,142.66667C319.5,144.46666 319.35376,145.38965 319.936,146.056C320.54657,146.75478 321.72858,146.77405 322.14282,147.37117C322.69012,148.16011 322.5,149.16667 322.5,150.07733C322.5,150.98801 322.65839,151.85503 322.49866,152.78C322.35397,153.61777 321.39999,153.6665 320.5,153.5L319.85718,152.96217L319.5,152.1875" id="svg_21" stroke-width="3" stroke="#000" fill="none"/>
  <path t="84134,84275,84275,84291,84309,84411,84411,84443,84593,84611,84635,84635,84774,84794,84812,84877,84878,84896,84911,85046,85076,85093,85094,85110,85128,85128,85143,85144,85303,85377,85377,85412,85435,85569" d="M318.5,143.66667C317.5,142.66667 316.69995,142.65526 315.79999,142.66667C314.97897,142.67709 313.96451,142.86217 313.36133,143.27733C312.52402,143.85364 312.5,144.86667 312.5,145.76666C312.5,146.66667 312.03442,147.64619 312.58533,148.38133C313.04724,148.99773 314.27011,148.68718 315.15268,149.01933C315.85889,149.28511 316.74155,149.63808 317.70001,149.66667C318.59961,149.69351 319.72397,150.09238 320.33334,149.5C320.86304,148.98508 320.52289,147.84108 320.5,146.83333C320.48199,146.04073 320.30548,145.13049 319.88934,144.528C319.30994,143.68912 318.33334,143.66667 317.52084,143.6875L316.61432,144.02383L316.5,144.86667L316.5,145.76666" id="svg_22" stroke-width="3" stroke="#000" fill="none"/>
  <path t="88244,88335,88371,88371,88387,88387,88388,88402,88402,88418,88560,88585,88603,88603,88618,88666,88666,88686,88703,88720,88721,88738,88864,88904,88921,88921,88938,88955,88955,88972,88972,88972,89004,89004,89005,89054,89054,89087,89105,89123,89200,89221,89222,89237,89237,89253,89254" d="M371.5,133.66667C371.5,135.492 371.5,136.5 371.5,137.328C371.5,138.2095 371.50043,138.92799 371.5,139.71851C371.49933,140.97867 371.81122,142.08589 371.064,142.59467C370.34738,143.08261 369.03326,142.41211 368.62167,143.10933C368.18747,143.84485 369.06647,144.57809 369.98267,144.952C370.66061,145.22867 371.41431,145.85464 371.5,146.76666C371.5842,147.66272 371.59024,148.4286 371.48932,149.48134C371.40665,150.34354 370.61423,150.88719 370.49985,151.76666C370.40891,152.46593 369.88165,153.30736 369.1785,153.76666C368.504,154.20724 367.4967,154.6602 366.89551,154.97116C366.03806,155.41466 365.3226,155.81654 364.55634,156.31934C363.78616,156.82471 362.81644,157.40826 362.5625,158.14583C362.26202,159.01851 362.5,159.96666 362.5,160.86667C362.5,161.76666 362.5,162.66667 362.5,163.42383C362.5,164.32384 362.5,165.07117 362.5,166.06534L362.5,167.00951" id="svg_23" stroke-width="3" stroke="#000" fill="none"/>
  <path t="92103,92178,92178,92195,92196,92210,92210,92210,92210,92228,92229,92229,92229,92229,92229,92243,92243,92243,92243,92243,92261,92261,92262,92389,92412,92428,92428,92445,92445,92445,92461,92461,92461,92478,92478,92478,92495,92495,92495" d="M216.5,201.66667C215.5,202.66667 215.54041,203.42947 215.85266,204.32834C216.13243,205.13367 216.40511,206.08659 216.464,206.94533C216.5103,207.62022 216.49933,208.40933 216.5,209.33333C216.50076,210.40401 216.5,210.98183 216.5,212.1875C216.5,212.80133 216.5,213.41316 216.5,215.16667C216.5,215.70183 216.5,216.68617 216.5,217.5625C216.5,218.33884 216.5,219.33333 216.5,220.14783C216.5,221.0005 216.5,222.03067 216.5,222.97116C216.5,223.83333 216.5,224.6875 216.5,225.66667C216.5,226.47734 216.5,227.12384 216.5,228.35201C216.5,228.90266 216.5,229.77116 216.5,230.96666C216.5,231.56667 216.5,232.46666 216.5,233.66667L216.5,234.55766L216.5,235.125" id="svg_24" stroke-width="3" stroke="#000" fill="none"/>
  <path t="95692,95818,95818,95836,95836,95836,95853,95853,95853,95868,95868,95868,95885,95885,95885,95902,95919,95936,95953,95953,95969,95969,95969,95986,95986,95987,96003,96003,96019,96036,96036,96053,96053,96053,96070,96070,96070,96086,96086,96086,96103,96103,96103,96103,96103,96120,96120,96120,96136,96137,96137,96169,96169,96186,96202,96269,96269,96290,96305,96305,96320,96337,96337,96544,96572,96572,96674,96691,96713" d="M434.5,180.66667C436.34668,180.66667 437.18668,180.66667 438.18533,180.66667C439.02084,180.66667 439.90134,180.66667 440.79999,180.66667C441.70001,180.66667 442.60001,180.66667 443.5,180.66667C444.39551,180.66667 445.26401,180.66667 446.33334,180.66667C447.03833,180.66667 447.83835,180.66667 448.86401,180.66667C449.79999,180.66667 450.70001,180.66667 451.60034,180.66667C452.31433,180.66667 453.2735,180.70178 454.04166,180.625C454.90796,180.53841 455.81302,180.25166 456.67868,179.81599C457.23718,179.5349 458.3334,178.80852 459.07867,178.688C460.009,178.53757 460.98941,178.71504 461.71066,178.63066C462.71054,178.51369 463.50937,178.12749 464.18533,177.95067C465.17194,177.6926 466.02359,177.69159 466.90134,177.58267C467.80371,177.47069 468.71173,177.2345 469.336,177.056C470.66901,176.67484 471.38373,176.46567 472.12534,176.26666C472.87439,176.06566 473.61798,175.87363 474.67834,175.56683C475.33963,175.3755 476.24216,175.05312 477.33334,174.83333C478.03711,174.69157 478.89551,174.66893 479.89868,174.66667C480.664,174.66495 481.74283,174.66667 482.60001,174.66667C483.5,174.66667 484.29999,174.66667 485.25717,174.66667C486.15268,174.66667 487.01599,174.66667 487.87466,174.66667C488.82132,174.66667 489.67465,174.66667 490.61465,174.66667C491.5,174.66667 492.29999,174.66667 493.20001,174.66667L494.10001,174.66667L495,174.66667" id="svg_25" stroke-width="3" stroke="#000" fill="none"/>
  <path t="99296,99412,99429,99430,99430,99445,99445,99462,99463,99463,99463,99463,99478,99478,99478,99478,99496,99496,99496,99511,99511,99561,99578,99593,99611,99611,99611,99627,99627,99627,99627,99649,99649,99649,99661,99661,99678,99695,99695,99712,99712,99712,99728,99728,99728,99728,99728,99745,99745,99745,99745,99762,99762,99762,99762,99762,99811,99811,99818,99829,99829,99847,99863,99863,99863,99864,99880,99880,99880,99880,99897,99897,99898,99898,99914,99915,99915,99930,99930,99930,99946,99947,99947,99947,99963,99964,99964,99979,99979,99979,99979,99996,99996,99997,99997,99997,100012,100012,100012,100012,100012,100012,100030,100030,100030,100030,100030,100046,100047,100047,100047,100062,100062,100080,100081,100097,100098,100098,100112,100112,100112,100130,100130,100130,100131,100146,100146,100146,100146,100147,100147,100162,100162,100162,100162,100163,100179,100179,100179,100180,100197,100197,100197,100213,100214,100214,100214,100214,100230,100231,100231,100231,100231,100247,100247,100247,100247,100263,100264,100264,100264,100280,100280,100280,100280,100281,100296,100296,100362,100380,100380,100397,100398,100413,100413,100413,100430,100430,100430,100447,100447,100463,100464,100480,100480,100480,100496,100496,100497,100513,100514,100514,100514,100737,100737,100755,100769,100769,100785,100797,101031,101031,101058,101059,101082,101082,101098,101098,101344,101356,101367,101380,101380" d="M175.5,174.66667C175.47867,176.492 175.21767,177.55615 174.63867,178.03067C174.03001,178.5295 173.1102,179.10394 172.57584,179.42383C171.5444,180.04128 170.78114,180.32062 169.97917,180.70833C169.56339,180.90935 168.69989,181.28333 167.66451,182.08783C167.03806,182.5746 166.58025,183.16176 165.90401,183.89734C165.31512,184.5379 164.50746,185.13855 163.89999,185.464C162.92053,185.98877 162.22137,186.37341 161.56134,187.056C160.98526,187.65176 160.08934,187.66667 159.17816,187.66667C158.4375,187.66667 157.72787,187.65184 156.53067,187.66933C155.83849,187.67943 155.10571,187.68643 154.38266,187.83734C152.9631,188.13364 152.35762,188.51787 151.51883,188.96133C150.6433,189.42422 149.80904,189.66217 148.97917,189.66667C148.01468,189.67191 147.28934,189.66667 146.2995,189.66667C145.4375,189.66667 144.644,189.66667 143.63567,189.66667C142.83299,189.66667 141.95833,189.66667 141.04367,189.66667C140.58133,189.66667 139.22133,189.66667 138.35266,189.66667C137.5,189.66667 136.64734,189.66667 135.33333,189.66667C134.87917,189.66667 133.96083,189.66667 133.0625,189.66667C132.22417,189.66667 131.16667,189.66667 130.244,189.66667C129.39999,189.66667 128.5,189.66667 127.7,189.66667C126.792,189.66667 125.73566,189.66667 125.133,189.66667C124.104,189.66667 123.38133,189.66667 122.32133,189.66667C121.32533,189.66667 120.67467,189.66667 120.016,189.66667C118.616,189.66667 117.87466,189.66667 117.12534,189.66667C116.384,189.66667 115.32166,189.66667 114.34666,189.66667C113.46167,189.66667 112.42117,189.66667 111.71467,189.66667C110.99017,189.66667 109.85733,189.66667 109.19466,189.66667C108.15067,189.66667 107.468,189.66667 106.268,189.66667C105.5,189.66667 104.73197,189.65942 103.528,189.668C102.81729,189.67307 102.04144,189.6851 101.212,189.752C99.87592,189.85976 99.41434,189.94855 98.464,190.092C97.48901,190.23917 96.99841,190.33916 95.5,190.5C95.001,190.55356 94.00476,190.61732 93.02084,190.64583C92.5361,190.65987 91.58533,190.66266 90.2215,190.66684C89.35716,190.66948 88.52062,190.6826 88.11066,190.70267C87.3008,190.74231 86.09839,190.87679 85.309,191.01933C84.16896,191.22519 83.47448,191.40614 82.54317,191.54533C81.56588,191.69141 80.65627,191.81383 79.97916,192.1875C79.15331,192.64326 78.24448,193.07449 77.71467,193.23067C76.67676,193.53661 75.72585,193.64517 75.04733,193.66217C73.80972,193.69316 73.22134,193.66667 72.54533,193.66667C71.75733,193.66667 70.3145,193.66667 69.76266,193.66667C68.588,193.66667 67.97916,193.66667 67.36533,193.66667C66.15067,193.66667 65,193.66667 63.95733,193.66667C63.476,193.66667 62.58333,193.66667 61.77067,193.66667C60.66667,193.66667 59.66108,193.65601 59.04167,193.6875C58.18534,193.73105 57.17926,193.94574 56.45833,194.1875C55.64293,194.46094 54.63766,194.7756 53.8285,194.96666C52.93977,195.17651 52.4685,195.26913 51.496,195.46666C50.0011,195.77029 49.5036,195.87022 48.52133,196.056C47.57288,196.23538 47.11802,196.33617 45.83333,196.5C45.07119,196.5972 44.02096,196.65253 43.35183,196.66217C42.33343,196.67686 41.24283,196.66667 40.47917,196.66667C39.6955,196.66667 38.5,196.66667 37.70267,196.66667C36.92133,196.66667 36.172,196.66667 35.47066,196.66667C34.272,196.66667 33.35733,196.66667 32.38533,196.66667C31.5,196.66667 30.74283,196.66667 29.83833,196.66667C29.03833,196.66667 28.0785,196.66667 27.264,196.66667C26.3955,196.66667 25.20033,196.66667 24.609,196.66667C23.772,196.66667 22.63362,196.57954 21.88533,196.70267C20.99169,196.84972 20.28995,197.27856 19.29983,197.76666C18.68971,198.06743 17.82096,198.48277 16.81467,198.86667C16.26728,199.07549 15.3955,199.36667 14.5,199.66667C13.6045,199.96666 12.73279,200.25803 12.18533,200.46666C11.18052,200.84959 10.31293,201.14986 9.38667,201.584C8.63373,201.9369 8.79702,203.10716 8.064,203.59467C7.34176,204.075 6.31085,203.96866 5.74283,204.37117C4.86538,204.99295 4.11578,205.31421 3.384,205.868C2.71007,206.37801 1.99728,207.1321 1.52083,207.66667C0.80204,208.47316 0.55733,209.22 1.14667,209.65601L2.17067,209.66667L2.81867,209.66667" id="svg_26" stroke-width="3" stroke="#000" fill="none"/>
  <path t="109480,109660,109660,109675,109689,109721,110101,110101,110131,110154,110188,110204,110204,110722,110722,110739,110753,110753,110753" d="M153.5,135.66667C154.5,135.66667 155.3,135.66667 156.2,135.66667C157.10001,135.66667 158.02142,135.63414 158.98267,135.668C159.79158,135.69649 160.63481,136.19907 160.48933,137.06667C160.32986,138.01778 159.49976,138.66643 159,139.16667C158.30099,139.86633 157.78534,140.46666 157.67599,141.30949L158.58501,141.6095L159.125,141.64583L160.16,141.66533" id="svg_27" stroke-width="3" stroke="#000" fill="none"/>
  <path t="112322,112461,112461,112476,112493,112639,112639,112661,112677,112677,112694,112709,112727,112791,112860,112860,112941,112963,112978,112996,113011,113011" d="M175.5,98.66666C176.5,98.66666 177.30017,98.64937 178.2,98.66666C179.13652,98.68467 179.97694,98.96803 180.67467,99.24133C181.60583,99.60607 182.45378,99.9088 183.2,100.314C183.96112,100.72729 184.91042,100.53455 185.8,100.67117C186.73109,100.81416 187.64981,101.5156 188.14284,100.95766C188.7849,100.23107 188.92534,99.26667 189.37866,98.56683L189.78534,97.75066L190.60001,97.44517L191.2,96.96217" id="svg_28" stroke-width="3" stroke="#000" fill="none"/>
 </g>
</svg>